<svg width="16" height="20" viewBox="0 0 16 20" fill="none" xmlns="http://www.w3.org/2000/svg">
<path d="M1 1V0.25C0.585786 0.25 0.25 0.585786 0.25 1L1 1ZM15 19V19.75C15.4142 19.75 15.75 19.4142 15.75 19H15ZM1 19H0.25C0.25 19.4142 0.585786 19.75 1 19.75L1 19ZM10 1L10.5303 0.46967C10.3897 0.329018 10.1989 0.25 10 0.25V1ZM15 6H15.75C15.75 5.80109 15.671 5.61032 15.5303 5.46967L15 6ZM8.75 9C8.75 8.58579 8.41421 8.25 8 8.25C7.58579 8.25 7.25 8.58579 7.25 9H8.75ZM7.25 15C7.25 15.4142 7.58579 15.75 8 15.75C8.41421 15.75 8.75 15.4142 8.75 15H7.25ZM5 11.25C4.58579 11.25 4.25 11.5858 4.25 12C4.25 12.4142 4.58579 12.75 5 12.75V11.25ZM11 12.75C11.4142 12.75 11.75 12.4142 11.75 12C11.75 11.5858 11.4142 11.25 11 11.25V12.75ZM15 18.25H1V19.75H15V18.25ZM1.75 19V1H0.25V19H1.75ZM1 1.75H10V0.25H1V1.75ZM14.25 6V19H15.75V6H14.25ZM9.46967 1.53033L14.4697 6.53033L15.5303 5.46967L10.5303 0.46967L9.46967 1.53033ZM8.25 1V5H9.75V1H8.25ZM11 7.75H15V6.25H11V7.75ZM8.25 5C8.25 6.51878 9.48122 7.75 11 7.75V6.25C10.3096 6.25 9.75 5.69036 9.75 5H8.25ZM7.25 9V15H8.75V9H7.25ZM5 12.75H11V11.25H5V12.75Z" fill="#666666"/>
</svg>
