<?xml version="1.0" encoding="utf-8"?>
<!-- Generator: Adobe Illustrator 23.1.1, SVG Export Plug-In . SVG Version: 6.00 Build 0)  -->
<svg version="1.1" id="Layer_1" xmlns="http://www.w3.org/2000/svg" xmlns:xlink="http://www.w3.org/1999/xlink" x="0px" y="0px"
	 viewBox="0 0 108 108" style="enable-background:new 0 0 108 108;" xml:space="preserve">
<style type="text/css">
	.st0{fill:#798A54;stroke:#9AA77A;stroke-width:0.5;stroke-miterlimit:10;}
	.st1{fill:#ACC46E;stroke:#9AA77A;stroke-width:0.5;stroke-miterlimit:10;}
	.st2{fill:#A7B95E;stroke:#9AA77A;stroke-width:0.5;stroke-miterlimit:10;}
	.st3{fill:#99AF54;stroke:#9AA77A;stroke-width:0.5;stroke-miterlimit:10;}
	.st4{fill:#98B46D;stroke:#9AA77A;stroke-width:0.5;stroke-miterlimit:10;}
	.st5{fill:#8BA056;stroke:#9AA77A;stroke-width:0.5;stroke-miterlimit:10;}
	.st6{fill:#A6B165;stroke:#9AA77A;stroke-width:0.5;stroke-miterlimit:10;}
	.st7{fill:#869652;stroke:#9AA77A;stroke-width:0.5;stroke-miterlimit:10;}
	.st8{fill:#7A9345;stroke:#9AA77A;stroke-width:0.5;stroke-miterlimit:10;}
	.st9{fill:#84A05C;stroke:#9AA77A;stroke-width:0.5;stroke-miterlimit:10;}
</style>
<g>
	<path class="st0" d="M53.6,18.1c-0.9-0.3-2.3-0.2-3,0c-0.7,0.2-1.6,0.3-2.3,1c-0.7,0.7-1.9,1.1-2.5,2s-1.2,2.4-1.4,2.7
		c-0.2,0.3,0.3,1,2.1,2.1c1.7,1,4.2,3.2,5.2,3.1c0.9-0.1,4.2-1.5,4.4-1.8c0.2-0.3,2.7-3.5,2.9-3.7c0.3-0.2,2.7-1.4,2.8-1.6
		c0.1-0.3,0.2-1.1-0.6-1.7c-0.8-0.6-1.6-0.6-2.4-1.1c-0.8-0.5-0.6-1.5-1.6-1.1c-1,0.5-1.6,0.8-2.2,0.6
		C54.4,18.4,53.6,18.1,53.6,18.1z"/>
	<path class="st1" d="M46.2,24.1c0.1-0.4,0.3-2,1-2.5c0.8-0.5,1.8-0.4,2.2-0.4c0.3,0,1.1-0.1,1.5-0.6s0.9-0.6,1.4,0
		c0.5,0.6,1.4,1.6,1.7,1.6s1.5,0.3,1.6,1.2c0.2,0.9-0.2,4.1-0.5,4.3s-3.5,0.2-4.2,0c-0.7-0.2-2.3-1-2.9-1.4
		c-0.5-0.4-2.3-2.2-2.3-2.2"/>
	<path class="st2" d="M59.4,20.2c-0.4,0.6-2.7,1.5-3.4,1.6c-0.7,0.2-1.5,2.5-1.5,2.9s0.2,2.8,0.7,3.5c0.5,0.8,4,6.1,5.3,6.7
		s6.7,2.8,7.1,2.6s-0.8-9.4-1.3-10.7c-0.5-1.3-1.2-3.7-1.9-4.6c-0.7-0.9-0.8-0.9-2.1-1.5C61.1,20.1,59.4,20.2,59.4,20.2z"/>
	<path class="st1" d="M61.1,19.5c0.7,0.2,4.9,0.6,6.1,3.3c1.2,2.7,2.1,4.2,2.1,5c0,0.8,1.7,5.6,1.8,5.9c0.1,0.3-0.9,3.1-1.2,3.4
		c-0.3,0.3-3.9-3.1-3.8-3.4c0.2-0.3-1.1-8.5-1.3-9.1s-0.3-2.6-1.3-3.2C62.4,20.8,61.1,19.5,61.1,19.5z"/>
	<path class="st2" d="M47.3,23.4c0.4,0.2,2.2,0.3,2.7,1.7c0.5,1.4,0.8,4,0.8,4.3s-2.7,3.7-3.4,4.1s-8.3,8.6-8.3,8.2S37.7,34.6,38,34
		c0.3-0.7,2.9-5,3.2-6.2c0.3-1.2,1.2-3.3,2-3.8c0.8-0.4,1.2-0.3,1.9-0.6S47.3,23.4,47.3,23.4z"/>
	<path class="st1" d="M44.8,20.2c-0.3,0.4-3.2,1.9-3.8,2.5c-0.6,0.6-3,2.9-3.1,3.9c-0.1,0.9-0.5,4-0.6,4.6c-0.1,0.5,0.4,3.3,1.2,1.9
		c0.8-1.4,3.4-7.8,4-8.4c0.6-0.6,1.5-1.3,1.5-1.3L44.8,20.2z"/>
	<path class="st3" d="M71.4,24c0,0-2.7,1.7-2.2,3.8s-0.1,5.4-0.1,6c0,0.6-1,4.4-0.9,4.8c0.2,0.4,4.7,6.4,5.3,6.9
		c0.5,0.5,6.3,6.4,6.7,5.9c0.4-0.5,0.2-7.4,0-8c-0.2-0.6-3.6-12.7-3.7-13.5s-0.9-2.9-1.5-3.4S71.4,24,71.4,24z"/>
	<path class="st4" d="M52.5,26.8c-0.7-0.4-1.8-0.8-1.8-0.8s-3.4,3.3-3.6,4.1c-0.2,0.9-0.3,3.5,0,4.7c0.3,1.2,9.1,12.7,9.1,12.7
		s4.5-0.7,4.9-2s3.1-10.8,3.1-10.8s-1.8-2.2-3.1-3.2c-1.2-0.9-3.9-4-5.1-4.5C54.7,26.7,52.5,26.8,52.5,26.8z"/>
	<path class="st5" d="M37,26.8c0,0,1.2,4.1,1.5,5s1.3,7.4,1.3,7.4s0.3,5.9,0,6c-0.3,0.2-5.9,2-5.9,2s-2.4-3.5-2.3-3.9
		c0.1-0.3-0.1-4.5,0.3-6.5s0.6-5,1.4-6.2C34,29.4,37,26.8,37,26.8z"/>
	<path class="st6" d="M46.1,31.5c0,0-3.3,3.6-3.4,3.9c-0.2,0.3-2.9,4.4-2.9,4.7c0,0.3-2.5,4-2.5,4s-1.4,2.5-0.7,3.5
		c0.7,1,6.5,11,7.2,10.6s9.2-6,9.2-6s6.2-4,6-4.6s-1.7-2.2-3.5-5.5s-3.9-7.3-4.8-8.3c-0.9-0.9-1.6-1.5-2.1-1.7S46.1,31.5,46.1,31.5z
		"/>
	<path class="st1" d="M30.8,29.7c0,0.3,1.5,4.8,1.5,5.1c0,0.3,1.5,5.9,1.5,5.9s-2.8,3.7-2.9,4.1S29,48.3,29,47.2s-0.9-5.9-0.7-7.7
		c0.2-1.8-0.5-5.5,0-6S30.8,29.7,30.8,29.7z"/>
	<path class="st5" d="M29.5,29c0,0-2.7,5.7-2.7,6.2c0,0.5-0.9,7.3-1,7.8c-0.2,0.5-0.4,6.2,0,7.7s2.6,8.3,2.8,8
		c0.3-0.3,0.5-7.5,0.9-8c0.3-0.5-1-8.3-1-8.3s-0.5-8.4-0.2-8.9s1.7-1.4,1.7-1.9C29.9,31.1,29.5,29,29.5,29z"/>
	<path class="st2" d="M30,42.6c0,0-1.8,4.7-1.8,5.1c0,0.3,0.7,9.3,0.6,9.9c-0.1,0.6,2.1,6.3,2.1,6.8c0,0.5,1.8,2.6,2.1,2.7
		c0.3,0.1,4.4-1.5,4.9-1.8c0.5-0.3,3.7-4.1,4-4.6c0.3-0.5,2.4-3,2.4-3.4c-0.1-0.3-3.3-4.7-4.5-7c-1.2-2.2-3.8-6-4.6-7.2
		s-2.1-2.2-2.4-2.2C32.5,40.8,31.3,41.6,30,42.6z"/>
	<path class="st7" d="M63.4,33c0.1,0.3-0.2,2.3-1.3,2.6c-1.1,0.3-2.9,3.7-3.1,4.2s-1.8,6.4-1.8,6.4L56.4,50c0,0,6.3,9.7,7.8,10.1
		c1.5,0.3,5.4,3.1,5.9,3.1c0.5,0,5.3-4.6,6.1-5.3s2.3-8.7,2.1-9.2c-0.3-0.5,0.3-2.6-2.9-6.4c-3.2-3.8-4.4-5.5-5.4-6.4
		s-3.7-2.4-4.3-2.4S63.4,33,63.4,33z"/>
	<path class="st1" d="M82.5,34.1c0,0-1.6,9-2.2,9.2c-0.6,0.2-1.5,4.1-1.5,4.1l3.8-1.6c0,0,0.3-3,0.4-4.1c0.1-1.1-0.1-3.6,0-4.9
		C83,35.6,82.5,34.1,82.5,34.1z"/>
	<path class="st2" d="M83.3,33.4c0,0,3.1,5.4,3.4,6c0.3,0.5,0.2,10.9-0.4,12c-0.6,1.1-1.9,3.9-1.9,3.9s-2.2-4.4-2.2-5.3
		s-0.9-4.5-0.8-5.2c0.2-0.7,1.6-7.2,1.5-8.1S83.3,33.4,83.3,33.4z"/>
	<path class="st1" d="M42.6,61.5c0.1-0.8,5.1-10.4,5.9-11.4c0.8-1,2.8-2.9,3.4-2.4c0.6,0.5,0.5,1.5,1.2,1c0.6-0.4,2.1-0.9,2.5-0.6
		c0.4,0.3,2.9,2.3,4.2,3.3c1.3,1,6.9,6.5,7.6,7.3c0.7,0.8,2.3,3.1,1.8,4c-0.5,1-5.6,7.4-7.4,8c-1.9,0.6-5.7,2.8-7.2,2.2
		s-7.5-3.8-8.4-4.6c-0.9-0.9-3.9-3.5-4-4.2S42.6,61.5,42.6,61.5z"/>
	<path class="st1" d="M81.6,43.8c0,0-3.6,4.3-4.1,5.6s-1.4,3.6-2,4.6c-0.6,1-4.4,5.2-4.5,5.8c-0.1,0.6-0.6,2.8-1,3.4
		c-0.3,0.5,2.1,5.7,2.1,5.7s2.9,3.5,3.7,3.1c0.8-0.4,4.9-4,5.5-5.4s2.2-8,2.7-9.4c0.5-1.4,1.2-5.6,0.4-7.7c-0.8-2.2-0.3-2.5-0.9-3.4
		C83.1,45,81.6,43.8,81.6,43.8z"/>
	<path class="st5" d="M86.8,57.2c0,0-3,4.7-3.3,5.3c-0.3,0.6-4.7,6.9-4.7,7c-0.1,0.1-2.9,2.9-2.9,2.9s-2.5,3.8-2.2,4
		c0.3,0.2,2.5,0.7,3.1,0.5c0.6-0.2,3.5-2,4.6-2.8s2.3-2.5,2.7-3c0.4-0.5,0-1.5-0.4-1.1s-0.3,0.4,0.3-0.3s2.3-2.3,2.7-4.9
		c0.5-2.6,1-5.5,1.2-6c0.2-0.5,0.4-1.7,0-2.1C87.5,56.2,86.8,57.2,86.8,57.2z"/>
	<path class="st3" d="M65.6,60.6c0.7,0.4,4.9,1.6,6,2.5s4,2.5,4.6,3.6c0.6,1.1-0.1,5.2-0.4,5.7c-0.3,0.5-5.5,5.9-5.7,5.9
		s-5.7,3.4-7.6,2.3c-1.9-1.1-7.2-3.6-7.9-4.3c-0.7-0.7-1.3-2.9-1-3.3c0.3-0.4,5.6-5.1,6.3-6.2c0.7-1.1,1-4.1,1.9-4.4
		c1-0.3,2.8,0.8,2.8,0.8s-0.9-0.4-0.3-1.2C64.8,61.2,65.6,60.6,65.6,60.6z"/>
	<path class="st7" d="M41,58.7c0,0,4.1,1.9,4.7,2.9s6.4,7.1,7.3,7.7c0.9,0.7,2.8,1.5,2.7,3.1c-0.1,1.5-1.1,4.5-1.7,4.5
		c-0.6,0.1-6.5,0.6-7.7,0.9c-1.1,0.3-0.3,3.3-3.9,1.1c-3.6-2.2-8.3-5.1-8.8-6.5c-0.5-1.5-0.9-6.9,0-9.3c0.9-2.4,3.1-4,3.6-4.5
		c0.5-0.4,1.8-1.6,2-0.4s0,2.5,0.6,2C40.4,59.8,41,58.7,41,58.7z"/>
	<path class="st8" d="M20.9,47.2c0,0,0.2,2.2,1.2,3.1c1,0.9,3.6,3.3,4.2,3.6c0.6,0.3,1.6,4.6,1.9,5.1c0.3,0.5,2.6,5.5,3.4,6.4
		c0.8,0.9,2.1,3.2,2.5,3.3c0.4,0.2,0.4,3.2,0.4,3.2s-5.5-2.2-6.3-3.2c-0.8-1-3.1-2.4-3.5-3.8c-0.4-1.4-3.5-7.6-3.8-9.1
		c-0.3-1.5-0.6-4.7-0.7-5.7C20.1,49.2,19.9,45.6,20.9,47.2z"/>
	<path class="st4" d="M23.3,65.3c0,0,3.8,1.7,4.5,2.2c0.7,0.4,5.6,4.5,5.9,5c0.3,0.5,5.3,2.7,5.7,2.9c0.3,0.3,4.3,2.6,5,3.4
		c0.7,0.8,1.6,3.7,0.5,3.4c-1.1-0.3-7.7-3.1-9.1-3.7s-5.2-3-6.1-4s-4-4.2-4-4.2S23.3,66.7,23.3,65.3z"/>
	<path class="st6" d="M34.3,76.3c0.6,0.5,5.6,3,6.7,3.5s4.9,1.6,5.9,1.7c1,0.1,2.8,0.1,1.3,0.8c-1.5,0.7-2.3,2.1-4.9,1.7
		c-2.6-0.4-5.1-1.1-6-1.7c-0.9-0.6-3.3-2.3-4.2-2.9c-0.8-0.7-2-1.8-1.6-2.4c0.4-0.6,2.2-0.6,2.2-0.6l0.6-0.4"/>
	<path class="st0" d="M45.8,81.4c0.5,1.6,1.1,5.2,1.2,6.1s0.9,2.4,0,2.9s0.4,2.6,2.7,2.6c2.2,0,6.5,0,8,0s3.7-0.4,4.4-1.4
		c0.7-0.9,1.2-1.7,0.4-3.1c-0.8-1.4,0.1-5.8,0.4-6.3c0.3-0.4,0.8-2.8-0.4-2.9c-1.2-0.1-2.4,0.2-5,0.6c-2.6,0.4-4.5,0.5-5.9,0.5
		C50.3,80.4,45.8,81.4,45.8,81.4z"/>
	<path class="st9" d="M51.3,74.4c-0.3,0.6-0.2,0.8-0.5,0c-0.3-0.8,0.3-2-1.9-1.1s-3.7,1.8-4.4,2.6c-0.6,0.8-1,0.5-1.5,1.8
		c-0.5,1.3-2.3,1.8,0.4,3.2c2.7,1.3,5.1,3,6.8,3.2c1.7,0.2,4.2-0.1,6.2-0.7c2-0.6,3.1-0.9,4-1.6c0.9-0.8,2.8-0.9,2.1-2.3
		c-0.8-1.5-0.5-1.5-2.6-2.5s-2.9-1.4-4.2-2s-0.9-1.2-2.3-1.2C52,73.8,51.3,74.4,51.3,74.4z"/>
	<path class="st1" d="M72.7,74.7c-0.3,0.2-0.2-0.8-1.6,0c-1.4,0.8-3.5,2.3-5,3.4c-1.5,1-3,2.2-4.4,3c-1.3,0.7-1.6,1.5,0,1.9
		c1.6,0.3,4.4,0.8,6.6,0s4.8-3.3,5.7-4.3s2.2-4.1,2.5-4.8s-0.1-2.2-0.7-1.3s-0.9,1-1.4,1.6C73.9,74.5,72.7,74.7,72.7,74.7z"/>
</g>
</svg>
