<?xml version="1.0" encoding="utf-8"?>
<!-- Generator: Adobe Illustrator 23.1.1, SVG Export Plug-In . SVG Version: 6.00 Build 0)  -->
<svg version="1.1" id="Layer_1" xmlns="http://www.w3.org/2000/svg" xmlns:xlink="http://www.w3.org/1999/xlink" x="0px" y="0px"
	 viewBox="0 0 108 108" style="enable-background:new 0 0 108 108;" xml:space="preserve">
<style type="text/css">
	.st0{fill:none;stroke:#718537;stroke-width:0.6726;stroke-miterlimit:10;}
	.st1{fill:#84B541;}
	.st2{fill:#A4C839;}
	.st3{fill:#91BB3E;}
	.st4{fill:#D2DC80;}
	.st5{fill:#92B83F;}
	.st6{fill:#A5BE3B;}
	.st7{fill:none;stroke:#718537;stroke-width:0.8147;stroke-miterlimit:10;}
	.st8{fill:#A5C239;}
	.st9{fill:#AFCB36;}
	.st10{fill:#C6D0B8;}
	.st11{fill:#94B286;}
	.st12{fill:#75A775;}
	.st13{fill:#5E885F;}
	.st14{fill:none;stroke:#496F4C;stroke-width:0.3176;stroke-linecap:round;stroke-miterlimit:10;}
	.st15{fill:#A2B365;}
	.st16{fill:#669266;}
	.st17{fill:none;stroke:#496F4C;stroke-width:0.3581;stroke-linecap:round;stroke-miterlimit:10;}
	.st18{fill:none;stroke:#496F4C;stroke-width:0.3579;stroke-linecap:round;stroke-miterlimit:10;}
	.st19{fill:#7AA649;}
	.st20{fill:none;stroke:#496F4C;stroke-width:0.31;stroke-linecap:round;stroke-miterlimit:10;}
</style>
<g>
	<g>
		<path class="st0" d="M56,27c-0.96,1.29-2.24,3.95-3.16,5.83"/>
		<path class="st0" d="M51.37,26c1.14,1.98,2.1,5.17,1.88,7.64"/>
		<path class="st0" d="M48.22,28.83c2.62,0.58,5.02,0.75,4.83,3.68"/>
		<path class="st0" d="M53.01,38.43c0.79,3.13,1.08,6.69,0.39,9.09"/>
		<path class="st0" d="M58.3,40.18c-2.29,2.44-4.73,7.02-5.28,7.92"/>
		<path class="st0" d="M50.83,42.37c1.94,0.73,3.41,0.67,2.92,4.46"/>
		<path class="st1" d="M60.67,26.67c-0.63,1.13-0.28,1.74-3.36,2.21s-3.08,0.46-3.08,0.46s-0.03-0.65-0.08-1.4
			c-0.05-0.75-0.55-3.52,1.54-4.64c2.09-1.12,3.47-1.55,3.93-1.62c0.47-0.07,1.97-0.63,2.36-0.74"/>
		<path class="st2" d="M49.24,16.86c0.82,1.47,3.45,1.75,4.12,3.96c0.67,2.21-0.51,5.45-0.74,6.48c-0.23,1.02,0.63,1.18-0.79,0.1
			c-1.42-1.08-1.87-0.66-2.87-1.91c-0.99-1.25-1.25-4.39-0.77-5.23C48.67,19.42,49.24,16.86,49.24,16.86z"/>
		<path class="st3" d="M51.18,29.45c-0.37-0.29-0.54-0.91-2.28-2.32s-3.28-2.32-4.65-1.21c-1.37,1.1-1.14,1.71-2.6,2.01
			c-1.45,0.29-1.45,0.29-1.45,0.29s1.48,1.24,3.64,2.85c2.16,1.61,4.83,0.24,5.8-0.45C50.61,29.91,51.18,29.45,51.18,29.45z"/>
		<path class="st4" d="M52.15,30.18c0,0,0.11,1.54,1.77,2.86c1.66,1.32,2.84,3.58,1.46,5.34s-1.58,3.19-1.58,3.19
			s0.23-0.22-1.31-1.25c-1.54-1.03-2.82-3.64-2.27-5.54C50.78,32.88,52.15,30.18,52.15,30.18z"/>
		<path class="st5" d="M63.93,35.81c0,0-3.84,0.46-5.64,1.4c-1.8,0.94-2.66,1.67-2.63,3.37c0.04,1.71-0.3,2.78-0.3,2.78
			s2.63-0.85,3.75-0.65c1.12,0.2,3.16-0.58,3.42-1.79C62.8,39.72,63.93,35.81,63.93,35.81z"/>
		<path class="st6" d="M52.77,43.11c0.02-0.03-0.84-1.57-2.23-2.96c-1.39-1.39-2.22-2.02-3.42-1.73c-1.2,0.29-2.24,0.77-3.36,1.33
			c-1.12,0.55-1.46,0.87-1.88,0.68c-0.42-0.19,0.69,0.04,2.04,1.78s1.8,2.84,2.94,2.84c1.13,0,1.91-1.04,3.12-1.4
			S52.77,43.11,52.77,43.11z"/>
	</g>
	<g>
		<path class="st7" d="M35.85,29.28c0.62,1.85,2.38,4.96,3.62,7.17"/>
		<path class="st7" d="M31.67,33.2c2.76,0.23,6.59,1.49,8.9,3.41"/>
		<path class="st7" d="M32.3,38.29c2.38-2.21,4.22-4.47,7-2.27"/>
		<path class="st7" d="M45.17,40.16c3.66,1.38,7.4,3.55,9.31,5.89"/>
		<path class="st7" d="M50.55,36.1c0.85,3.96,3.71,9.55,4.23,10.73"/>
		<path class="st7" d="M47.58,45.05c2.07-1.42,3.02-2.93,6.45,0.18"/>
		<path class="st8" d="M38.75,24.41c0.69,1.41,1.54,1.48-0.13,4.87s-1.67,3.39-1.67,3.39s-0.67-0.42-1.44-0.89
			c-0.78-0.47-3.88-1.88-3.55-4.74c0.33-2.86,0.85-4.52,1.11-5.03c0.25-0.51,0.74-2.39,0.9-2.86"/>
		<path class="st1" d="M21.1,29c2.03,0.2,4.13-2.22,6.79-1.36c2.66,0.86,5.07,4.27,5.93,5.21c0.86,0.94,1.61,0.18-0.45,0.86
			c-2.05,0.67-1.95,1.41-3.88,1.53s-5.23-1.79-5.74-2.85C23.25,31.34,21.1,29,21.1,29z"/>
		<path class="st3" d="M34.97,35.77c-0.54,0.17-1.27-0.09-3.89,0.67c-2.61,0.76-4.57,1.67-4.42,3.79c0.15,2.12,0.92,2.32,0.2,3.97
			c-0.72,1.65-0.72,1.65-0.72,1.65s2.26-0.62,5.35-1.66c3.09-1.04,3.58-4.64,3.56-6.09C35.03,36.65,34.97,35.77,34.97,35.77z"/>
		<path class="st9" d="M36.36,35.31c0,0,1.61,0.96,4.06,0.22c2.46-0.74,5.52-0.36,6.32,2.24s2.08,3.77,2.08,3.77
			s-0.06-0.39-2.15,0.44s-5.57,0.29-7.08-1.57C38.09,38.54,36.36,35.31,36.36,35.31z"/>
		<path class="st5" d="M50.1,27.48c0,0-2.19,4.14-2.5,6.58s-0.18,3.8,1.54,4.94c1.72,1.14,2.56,2.22,2.56,2.22s0.97-3.2,1.95-4.18
			c0.98-0.98,1.6-3.54,0.58-4.64C53.2,31.31,50.1,27.48,50.1,27.48z"/>
		<path class="st10" d="M49.65,43.62c-0.02-0.04-2.14-0.25-4.48,0.17c-2.34,0.42-3.55,0.81-4.09,2.2c-0.54,1.4-0.78,2.76-1,4.26
			c-0.23,1.5-0.14,2.06-0.62,2.34s0.51-0.66,3.19-0.8c2.67-0.14,4.07,0.17,4.85-0.96s0.29-2.61,0.76-4.07S49.65,43.62,49.65,43.62z"
			/>
	</g>
	<g>
		<path class="st7" d="M75.06,32.74c-1.92,0.32-5.27,1.58-7.64,2.46"/>
		<path class="st7" d="M71.85,27.99c-0.66,2.69-2.49,6.28-4.75,8.26"/>
		<path class="st7" d="M66.72,27.83c1.81,2.69,3.76,4.86,1.15,7.27"/>
		<path class="st7" d="M62.87,40.25c-1.93,3.4-4.66,6.76-7.26,8.28"/>
		<path class="st7" d="M66.04,46.2c-4.05,0.22-10.02,2.18-11.25,2.51"/>
		<path class="st7" d="M57.67,41.87c1.08,2.27,2.43,3.44-1.18,6.34"/>
		<path class="st4" d="M79.43,36.36c-1.5,0.46-1.71,1.29-4.79-0.88c-3.09-2.17-3.09-2.17-3.09-2.17s0.52-0.59,1.1-1.29
			c0.58-0.69,2.46-3.54,5.23-2.77s4.33,1.55,4.8,1.88c0.46,0.33,2.25,1.1,2.68,1.33"/>
		<path class="st2" d="M77.63,18.21c-0.51,1.98,1.55,4.42,0.29,6.92c-1.26,2.49-5.01,4.35-6.07,5.05c-1.06,0.7-0.43,1.56-0.78-0.57
			c-0.35-2.13-1.09-2.15-0.91-4.07s2.58-4.89,3.71-5.22C74.99,19.97,77.63,18.21,77.63,18.21z"/>
		<path class="st1" d="M68.79,30.85c-0.08-0.56,0.29-1.25-0.06-3.94c-0.34-2.7-0.94-4.78-3.06-4.95c-2.12-0.18-2.44,0.54-3.95-0.42
			c-1.52-0.96-1.52-0.96-1.52-0.96s0.26,2.33,0.8,5.54s4.03,4.26,5.46,4.46S68.79,30.85,68.79,30.85z"/>
		<path class="st4" d="M69.03,32.31c0,0-1.2,1.44-0.85,3.98s-0.5,5.51-3.19,5.89c-2.69,0.38-4.05,1.47-4.05,1.47s0.39,0-0.1-2.19
			c-0.49-2.19,0.58-5.55,2.66-6.75C65.57,33.51,69.03,32.31,69.03,32.31z"/>
		<path class="st5" d="M74.63,47.1c0,0-3.75-2.8-6.11-3.49c-2.36-0.69-3.73-0.77-5.12,0.75c-1.39,1.52-2.59,2.18-2.59,2.18
			s3.01,1.45,3.82,2.57c0.81,1.12,3.25,2.14,4.49,1.29C70.37,49.56,74.63,47.1,74.63,47.1z"/>
		<path class="st6" d="M58.75,44.14c0.04-0.01,0.58-2.08,0.52-4.45c-0.05-2.37-0.25-3.63-1.54-4.38s-2.61-1.2-4.05-1.65
			c-1.45-0.46-2.01-0.46-2.21-0.98c-0.2-0.52,0.57,0.61,0.3,3.27s-0.8,3.99,0.19,4.94s2.54,0.69,3.91,1.38
			C57.23,42.96,58.75,44.14,58.75,44.14z"/>
	</g>
	<g>
		<path class="st11" d="M49.85,89.2c-0.29-0.44-0.35,0.39-0.63-1.63c-0.28-2.02,0.08-0.65-0.84-3.96c-0.92-3.31-2.01-10.29-2-10.59
			c0.02-0.3,0.5-5.8,0.65-6.79c0.15-0.99,1.48-7.01,1.78-8.11c0.3-1.1,2.29-5.27,2.29-5.27s1.26-2.43,1.29-2.61
			s-0.17-1.22-0.17-1.22s0.23-0.75-0.09-0.84c-0.08-0.02-0.15-0.08-0.19-0.16c0.15-0.06,0.24-0.08,0.24-0.08s0.38-0.55,0.69-0.8
			c0.31-0.25,0.45-0.43,0.49-0.56c0.04-0.13,0.18-0.74,0.18-0.74l0.45-0.05c0,0-0.01,0.77-0.19,1.08c-0.18,0.32-0.4,0.38-0.74,0.55
			c-0.33,0.16-0.33,0.8-0.01,0.89c0.32,0.09,0.09,0.84,0.09,0.84s0.2,1.04,0.17,1.22c-0.03,0.17-1.29,2.61-1.29,2.61
			s-1.99,4.17-2.29,5.27c-0.3,1.1-1.64,7.11-1.78,8.11c-0.15,0.99-0.64,6.49-0.65,6.79c-0.02,0.3,1.08,7.29,2,10.59
			c0.92,3.31,0.56,1.94,0.84,3.96c0.28,2.02,0.34,1.19,0.63,1.63c0.29,0.44,0.14,0.58-0.56,0.49c-0.13-0.02-0.25-0.06-0.36-0.13
			C50.04,89.62,50.02,89.46,49.85,89.2z"/>
		<path class="st12" d="M48.11,86.98c-0.39-0.72-1.43-3.68-1.91-4.65c-0.48-0.97-0.74-4.86-1.09-7.8
			c-0.35-2.94,0.73-10.29,0.92-13.03c0.19-2.74,3.91-10.5,4.73-12c0.19-0.34,0.38-0.76,0.57-1.2c0.25-0.12,0.47-0.21,0.63-0.27
			c0.04,0.08,0.1,0.14,0.19,0.16c0.32,0.09,0.09,0.84,0.09,0.84s0.2,1.04,0.17,1.22s-1.29,2.61-1.29,2.61s-1.99,4.17-2.29,5.27
			c-0.3,1.1-1.64,7.11-1.78,8.11c-0.15,0.99-0.64,6.49-0.65,6.79c-0.02,0.3,1.08,7.29,2,10.59c0.92,3.31,0.56,1.94,0.84,3.96
			c0.28,2.02,0.34,1.19,0.63,1.63c0.18,0.27,0.19,0.42,0.01,0.48c-0.16-0.09-0.3-0.22-0.46-0.39
			C48.92,88.43,48.36,87.44,48.11,86.98z"/>
		<path class="st13" d="M46.46,84.98c-1.2-1.62-2.46-6.12-2.79-8.04c-0.33-1.92-0.1-10.5,0.3-12.58c0.39-2.08,4.17-12.32,5.07-14.03
			c0.54-1.02,1.55-1.67,2.28-2.02c-0.19,0.44-0.38,0.86-0.57,1.2c-0.82,1.49-4.54,9.25-4.73,12c-0.19,2.74-1.28,10.09-0.92,13.03
			c0.35,2.94,0.61,6.83,1.09,7.8c0.48,0.97,1.52,3.92,1.91,4.65c0.25,0.47,0.81,1.46,1.3,2.32c-0.34-0.36-0.7-0.87-1.22-1.39
			C47.25,87,47.66,86.6,46.46,84.98z"/>
		<path class="st14" d="M51.14,48.75c-0.19,0.44-0.19,0.42-0.38,0.76c-0.82,1.49-4.54,9.25-4.73,12
			c-0.19,2.74-1.28,10.09-0.92,13.03c0.35,2.94,0.61,6.83,1.09,7.8c0.48,0.97,1.52,3.92,1.91,4.65c0.25,0.47,0.81,1.46,1.3,2.32"/>
	</g>
	<g>
		<g>
			<path class="st11" d="M43.93,97.08c0.32-0.5,0.28,0.53,0.74-1.93c0.49-2.46-0.02-0.82,1.26-4.79c1.19-3.99,3.83-12.35,3.99-12.69
				c0.02-0.38,1.44-6.98,1.74-8.15c0.22-1.2,1.5-8.36,1.68-9.66c0.21-1.3,0.04-6.4,0-6.41c0.02,0.01-0.31-3.02-0.3-3.24
				c0.03-0.21,0.58-1.41,0.58-1.41c0,0,0.02-0.92,0.38-0.98c0.09-0.01,0.18-0.08,0.24-0.16c-0.14-0.09-0.22-0.14-0.22-0.14
				c0,0-0.21-0.71-0.45-1.05c-0.24-0.34-0.34-0.59-0.34-0.75c0-0.16,0.03-0.92,0.03-0.92c-0.16-0.05-0.31-0.09-0.47-0.14
				c0,0-0.21,0.92-0.11,1.33c0.1,0.41,0.3,0.52,0.6,0.77c0.29,0.25,0.08,1-0.28,1.06c-0.36,0.06-0.36,0.98-0.36,0.98
				c0,0-0.53,1.2-0.56,1.42c0,0.22,0.35,3.25,0.34,3.25c0.04,0.01,0.27,5.13,0.07,6.43c-0.17,1.31-1.39,8.48-1.61,9.68
				c-0.29,1.17-1.7,7.77-1.72,8.15c-0.15,0.34-2.81,8.7-4.05,12.67c-1.32,3.95-0.79,2.32-1.31,4.77c-0.49,2.46-0.44,1.43-0.77,1.93
				c-0.32,0.5-0.19,0.7,0.49,0.68c0.13,0,0.24-0.04,0.36-0.11C43.71,97.58,43.74,97.38,43.93,97.08z"/>
		</g>
		<g>
			<path class="st15" d="M45.74,94.55c0.41-0.85,1.67-4.38,2.22-5.52c0.52-1.15,1.42-5.91,2.52-9.42
				c0.95-3.56,2.77-12.35,3.82-15.53c1.06-3.2,1.04-12.58,0.62-14.49c-0.06-0.42-0.1-0.94-0.13-1.49c-0.21-0.19-0.41-0.33-0.55-0.42
				c-0.07,0.09-0.15,0.15-0.24,0.16c-0.36,0.06-0.38,0.98-0.38,0.98c0,0-0.56,1.2-0.58,1.41c-0.01,0.22,0.32,3.24,0.3,3.24
				c0.04,0.01,0.22,5.11,0,6.41c-0.18,1.3-1.46,8.46-1.68,9.66c-0.3,1.17-1.72,7.77-1.74,8.15c-0.16,0.34-2.8,8.71-3.99,12.69
				c-1.28,3.96-0.77,2.32-1.26,4.79c-0.46,2.47-0.43,1.43-0.74,1.93c-0.19,0.3-0.22,0.5-0.05,0.6c0.16-0.09,0.31-0.23,0.47-0.41
				C44.87,96.26,45.47,95.1,45.74,94.55z"/>
		</g>
		<g>
			<path class="st16" d="M47.4,92.29c1.17-1.87,2.87-7.31,3.61-9.61c0.49-2.37,3.11-12.64,3.8-15.06
				c0.53-2.49,1.83-14.67,1.49-16.82c-0.11-1.25-0.89-2.17-1.51-2.71c0.03,0.55,0.07,1.07,0.13,1.49c0.43,1.91,0.45,11.3-0.62,14.49
				c-1.05,3.18-2.87,11.98-3.82,15.53c-1.1,3.51-2,8.27-2.52,9.42c-0.56,1.14-1.81,4.68-2.22,5.52c-0.27,0.55-0.87,1.71-1.4,2.71
				c0.35-0.4,0.73-0.99,1.25-1.56C46.51,94.69,46.18,94.15,47.4,92.29z"/>
		</g>
		<g>
			<path class="st17" d="M54.82,48.64c0.03,0.55,0.04,0.52,0.1,0.94c0.43,1.91,0.45,11.3-0.62,14.49
				c-1.05,3.18-2.87,11.98-3.82,15.53c-1.1,3.51-2,8.27-2.52,9.42c-0.56,1.14-1.81,4.68-2.22,5.52c-0.27,0.55-0.87,1.71-1.4,2.71"/>
		</g>
	</g>
	<g>
		<g>
			<path class="st11" d="M60.76,96.01c0.14-0.56,0.45,0.45,0.06-2.06c-0.26-2.5-0.4-0.8-0.03-4.92c0.37-4.12,1.79-12.71,1.82-13.07
				c-0.09-0.36-0.2-6.99-0.18-8.17c0.01-1.19-0.81-8.35-1.32-9.66c-0.18-1.3-3.22-6.21-3.34-6.21c0.03,0-2.19-2.87-2.29-3.08
				c-0.08-0.21-0.09-1.5-0.09-1.5c0,0-0.49-0.9-0.12-1.04c0.09-0.04,0.15-0.12,0.18-0.22c-0.2-0.06-0.32-0.08-0.32-0.08
				c0,0-0.61-0.64-1.03-0.91c-0.42-0.27-0.62-0.49-0.69-0.64c-0.07-0.16-0.34-0.89-0.33-0.89c-0.16-0.01-0.33-0.01-0.49-0.02
				c0,0,0.09,0.93,0.36,1.3c0.27,0.37,0.55,0.43,0.99,0.6c0.44,0.17,0.6,0.95,0.21,1.09c-0.39,0.14,0.07,1.04,0.07,1.04
				c0,0-0.04,1.29,0.04,1.5c0.09,0.21,2.34,3.08,2.32,3.08c0.11,0,3.28,4.92,3.5,6.22c0.55,1.31,1.44,8.48,1.39,9.66
				c-0.01,1.19-0.02,7.81,0.06,8.17c-0.05,0.36-1.57,8.94-1.81,13.07c-0.27,4.13-0.16,2.42,0.16,4.92c0.48,2.51,0.14,1.5,0.02,2.06
				c-0.08,0.57,0.14,0.73,0.76,0.54c0.12-0.03,0.21-0.1,0.29-0.19C60.76,96.55,60.7,96.36,60.76,96.01z"/>
		</g>
		<g>
			<path class="st12" d="M61.89,93.12c0.19-0.92,0.95-4.62,1.52-5.84c0.49-1.22,0.4-5.98,0.77-9.59c0.1-3.62-0.45-12.42-0.37-15.73
				c0.57-3.29-4.43-12.4-6.46-14.18c-0.33-0.4-0.7-0.89-1.06-1.42c-0.34-0.13-0.63-0.22-0.83-0.28c-0.03,0.1-0.08,0.18-0.18,0.22
				c-0.37,0.14,0.12,1.04,0.12,1.04c0.01,0,0.01,1.29,0.09,1.5c0.1,0.21,2.32,3.08,2.29,3.08c0.12,0,3.16,4.92,3.34,6.21
				c0.51,1.31,1.33,8.47,1.32,9.66c-0.01,1.19,0.09,7.81,0.18,8.17c-0.03,0.36-1.45,8.95-1.82,13.07c-0.38,4.12-0.23,2.42,0.03,4.92
				c0.39,2.5,0.08,1.49-0.06,2.06c-0.07,0.34-0.01,0.54,0.19,0.6c0.11-0.13,0.2-0.3,0.29-0.52C61.39,94.98,61.71,93.72,61.89,93.12z
				"/>
		</g>
		<g>
			<path class="st16" d="M63.48,90.54c1.26-2.08,2.63-7.66,2.81-10.04c0.01-2.38-0.78-12.8-0.83-15.28
				c0.16-2.48-3.34-14.54-5.87-16.59c-0.93-1.2-2.34-1.9-3.32-2.28c0.37,0.53,0.73,1.02,1.06,1.42c2.04,1.78,7.03,10.89,6.46,14.18
				c-0.08,3.31,0.47,12.11,0.37,15.73c-0.36,3.61-0.27,8.37-0.77,9.59c-0.57,1.22-1.33,4.92-1.52,5.84
				c-0.17,0.59-0.5,1.86-0.64,2.97c0.2-0.48,0.39-1.14,0.82-1.82C62.88,93.07,62.26,92.62,63.48,90.54z"/>
		</g>
		<g>
			<path class="st18" d="M56.64,46.89c0.37,0.53,0.36,0.5,0.7,0.89c2.04,1.78,7.03,10.89,6.46,14.18
				c-0.08,3.31,0.47,12.11,0.37,15.73c-0.36,3.61-0.27,8.37-0.77,9.59c-0.57,1.22-1.33,4.92-1.52,5.84
				c-0.17,0.59-0.5,1.86-0.64,2.97"/>
		</g>
	</g>
	<g>
		<g>
			<path class="st11" d="M68.94,90.03c-0.25-0.49,0.62,0.14-1.25-1.58c-1.73-1.76-0.82-0.46-3.03-3.63
				c-2.43-3.13-5.12-10.01-5.03-10.34c-0.31-0.23-2.6-5.57-2.72-6.63c-0.56-0.92-2.03-7.24-1.92-8.52
				c-0.28-1.15-1.03-5.97-0.92-6.01c-0.04,0.02-0.23-2.93-0.12-3.15c0.05-0.21,0.87-1.41,0.88-1.41c0,0,0.22-0.91,0.63-0.97
				c0.1-0.02,0.21-0.08,0.3-0.16c-0.12-0.09-0.2-0.13-0.2-0.13c0,0-0.03-0.7-0.17-1.04c-0.15-0.34-0.16-0.58-0.1-0.75
				c0.05-0.16,0.37-0.91,0.38-0.91c-0.14-0.05-0.29-0.09-0.43-0.14c0,0-0.59,0.92-0.62,1.33c-0.04,0.41,0.15,0.52,0.38,0.77
				c0.23,0.25-0.2,0.99-0.59,1.06c-0.41,0.07-0.63,0.99-0.62,0.99c-0.01,0-0.83,1.22-0.88,1.43c-0.11,0.23,0.09,3.2,0.13,3.19
				c-0.12,0.04,0.66,4.92,0.95,6.08c-0.11,1.3,1.42,7.7,1.99,8.64c0.13,1.08,2.49,6.5,2.81,6.73c-0.1,0.33,2.72,7.31,5.23,10.47
				c2.29,3.21,1.35,1.9,3.13,3.68c1.92,1.74,1.03,1.1,1.29,1.6c0.29,0.49,0.55,0.52,0.92,0.08c0.07-0.08,0.1-0.18,0.1-0.28
				C69.27,90.44,69.1,90.32,68.94,90.03z"/>
		</g>
		<g>
			<path class="st19" d="M67.92,87.44c-0.48-0.74-2.24-3.61-2.51-4.63c-0.4-0.99-2.89-4.42-3.87-7.27
				c-1.37-2.69-4.14-9.77-3.93-12.73c-0.59-2.65-1.97-11.35-1.51-13.33c0-0.41,0.05-0.92,0.14-1.46c-0.19-0.18-0.36-0.32-0.48-0.41
				c-0.09,0.09-0.2,0.15-0.3,0.16c-0.4,0.06-0.63,0.97-0.63,0.97c-0.01,0-0.83,1.2-0.88,1.41c-0.11,0.22,0.07,3.17,0.12,3.15
				c-0.12,0.04,0.63,4.86,0.92,6.01c-0.12,1.28,1.36,7.6,1.92,8.52c0.13,1.06,2.41,6.41,2.72,6.63c-0.1,0.32,2.59,7.21,5.03,10.34
				c2.21,3.17,1.3,1.87,3.03,3.63c1.87,1.72,1,1.09,1.25,1.58c0.16,0.29,0.33,0.42,0.52,0.38c0.01-0.15-0.04-0.33-0.1-0.53
				C68.76,88.97,68.18,87.92,67.92,87.44z"/>
		</g>
		<g>
			<path class="st13" d="M67.37,85.09c-0.59-1.81-2.64-6.03-3.24-7.83c-1.18-1.66-4.16-9.6-4.28-11.74
				c-1.3-1.74-3.15-12.64-2.4-14.9c-0.02-1.2-0.67-2.08-1.21-2.6c-0.09,0.54-0.14,1.05-0.14,1.46c-0.46,1.98,0.92,10.68,1.51,13.33
				c-0.21,2.96,2.56,10.04,3.93,12.73c0.98,2.85,3.47,6.28,3.87,7.27c0.27,1.02,2.03,3.89,2.51,4.63c0.26,0.49,0.84,1.53,1.43,2.44
				c-0.15-0.45-0.43-1.02-0.57-1.67C68.57,87.05,67.85,86.93,67.37,85.09z"/>
		</g>
		<g>
			<path class="st20" d="M56.16,48.56c-0.08,0.54-0.05,0.51-0.06,0.92c-0.46,1.98,0.92,10.68,1.51,13.33
				c-0.21,2.96,2.56,10.04,3.93,12.73c0.98,2.85,3.47,6.28,3.87,7.27c0.27,1.02,2.03,3.89,2.51,4.63c0.26,0.49,0.84,1.53,1.43,2.44"
				/>
		</g>
	</g>
</g>
</svg>
