<?xml version="1.0" encoding="utf-8"?>
<!-- Generator: Adobe Illustrator 23.1.1, SVG Export Plug-In . SVG Version: 6.00 Build 0)  -->
<svg version="1.1" id="Layer_1" xmlns="http://www.w3.org/2000/svg" xmlns:xlink="http://www.w3.org/1999/xlink" x="0px" y="0px"
	 viewBox="0 0 108 108" style="enable-background:new 0 0 108 108;" xml:space="preserve">
<style type="text/css">
	.st0{fill:#A32237;}
	.st1{fill:#A2BE3B;}
	.st2{fill:#94AE3C;}
	.st3{fill:#B8D334;}
	.st4{fill:none;stroke:#231F20;stroke-width:0.1881;stroke-miterlimit:10;}
	.st5{fill:#A94955;}
	.st6{fill:#921E23;}
	.st7{fill:#6B0B1C;}
	.st8{fill:#A6C03A;}
	.st9{fill:none;stroke:#231F20;stroke-width:0.2497;stroke-miterlimit:10;}
	.st10{fill:#A9505E;}
	.st11{fill:#7F1426;}
</style>
<g>
	<g>
		<path class="st0" d="M38.27,59.96c0,0-5.21-2.8-5.42-3.14c-0.21-0.33-0.93-0.19-0.93-0.19l-0.34,0.89c0,0,4.83,2.92,4.92,2.97
			c0.09,0.05,1.62,1.15,1.62,1.15l1.32,0.27l0.98-0.28l0.26-0.17L38.27,59.96z"/>
		<path class="st0" d="M40.63,60.62c0,0-1.73-4.25-1.82-5.08c-0.09-0.83-1.43-1.57-1.43-1.57s0.75,3.8,0.92,4.24
			c0.16,0.45,0.41,1.73,0.54,1.88c0.13,0.15,0.84,0.71,0.91,0.82C39.82,61.03,40.63,60.62,40.63,60.62z"/>
		<path class="st1" d="M31.7,57.93c0,0,0.78,0.51,1.09,0.73s-0.41,0.46-0.17,0.85c0.24,0.4,0.44-0.01,0.43,0.69s0.06,1.12-0.12,1.37
			c-0.18,0.25-0.07,0.65-0.79,0.44c-0.72-0.21-1.2-0.34-1.82,0.05s-0.81,0.53-1,1.16c-0.19,0.63,0.25,1.29-0.48,1.14
			c-0.73-0.15-0.32-0.6-1.31-0.58s-0.51-0.01-1.16,0.24c-0.65,0.25-1.01-0.17-1.49-0.3s-1.02-0.3-1.46,0.18
			c-0.45,0.48-0.21,0.88-0.76,0.96c-0.55,0.08-0.63-0.16-1.05,0.01c-0.41,0.17-0.81,0.41-0.86,0.81c-0.05,0.4,0.51,1.09-0.53,1.19
			c-1.04,0.11-1.16,0.27-1.74-0.03s-0.5-0.99-1.08-0.6c-0.59,0.39-0.46,0.86-1.35,0.55c-0.89-0.31-1.46-0.17-2.1-1.22
			c-0.64-1.05-0.4-1.16-0.9-1.83c-0.5-0.67-1.14-0.8-0.89-1.86c0.25-1.06,0.61-0.96,1.42-2.15c0.81-1.2,0.19-1.71,0.91-2.76
			s-0.1-0.46,1.79-1.64c1.89-1.17,1.4-1.14,2.04-1.93c0.64-0.79,0.92-0.8,1.56-0.83c0.64-0.03,1.29-0.25,1.59-0.47
			c0.3-0.22,0.77-0.38,0.85-0.3s1.5,0.08,1.92,0.52c0.42,0.43,2.19,2.66,3.07,3.32c0.88,0.65,0.93,0.44,1.84,0.94
			C30.07,57.06,31.7,57.93,31.7,57.93z"/>
		<path class="st2" d="M42.43,46.69c-0.02-0.2-0.6-0.98-0.87-1.51c-0.27-0.53-0.29-0.97-0.88-1.33c-0.59-0.36-0.61-0.71-1.04-0.96
			c-0.43-0.24-0.96-0.26-1.37-0.28c-0.41-0.02-1.38-0.09-1.45-0.13c-0.07-0.05-0.7-0.24-0.86-0.08s-0.73,0.64-0.89,0.77
			c-0.15,0.13-0.42-0.14-0.65,0.24c-0.23,0.38-0.41,0.47-0.55,0.69c-0.14,0.23-0.55,0.36-0.56,0.74c-0.01,0.38,1.1,2.06,1.37,2.46
			c0.27,0.4,2.27,2.71,2.58,2.9c0.31,0.19,1.79,0.68,2.01,0.53c0.22-0.14,1.54-0.83,1.74-1.04s1.23-1.08,1.26-1.36
			C42.32,48.06,42.43,46.69,42.43,46.69z"/>
		<path class="st3" d="M36.2,55.42c0.5-0.12-0.04,0.02,0.73-0.17c0.77-0.19,0.77-0.38,1.07-0.74c0.29-0.35,0.5-0.44,0.49-0.69
			c-0.01-0.26-0.35,0.18,0.43-0.55c0.78-0.73,1.03-1.19,1-1.67c-0.03-0.48-0.19-0.29-0.4-1s0.05-0.88-0.15-1.14
			c-0.2-0.26,0.01-0.19-0.2-0.26s-0.67,0.47-0.67-0.14c0-0.6,0.28-0.77-0.41-1.29c-0.69-0.52-1.15-0.74-1.62-0.77
			c-0.47-0.03-0.42,0.36-0.67,0.02s0.19-0.79-0.23-1.22c-0.42-0.43-0.86-0.9-1.22-1.04c-0.35-0.13-0.59,0.07-0.82-0.17
			s0.04-0.18-0.89-0.62c-0.93-0.44-1.44-1.05-1.85-1.2c-0.41-0.15-0.59,0.1-0.8,0.19c-0.21,0.08,0.05,0.71-0.66-0.2
			c-0.7-0.9-0.14-1.33-1.44-1.5s-2.72-0.33-3.22-0.05c-0.5,0.28-1.24,1.11-1.4,1.46c-0.17,0.35-0.88,1.69-1.06,2.13
			c-0.18,0.44-0.44,2.8-0.37,3.38s1.1,3.65,1.7,4.46c0.6,0.82,1.8,2.23,1.71,2.53c-0.09,0.3-0.36,0.53,0.24,0.87
			s0.57-0.01,1.02,0.62c0.44,0.63,0.8,0.89,1.15,0.9c0.35,0.01,0.34-0.26,0.97,0.21c0.64,0.47,0.87,0.55,1.26,0.69
			c0.38,0.14,0.57,0.46,1.25,0.25c0.68-0.21,0.95-0.44,1.19-0.71c0.24-0.27,0.85-0.3,0.71-0.84s-0.64-0.73-0.33-1.21
			c0.32-0.47,0.01-0.69,0.68-0.53c0.66,0.17,1.04,0.02,1.56-0.03S36.2,55.42,36.2,55.42z"/>
		<path class="st0" d="M40.06,60.48c-0.1-0.15-3.38-3.66-3.7-4.11c-0.32-0.45-0.34-0.54-0.45-1.14s-0.49-0.92-0.2-1.44
			c0.29-0.51,0.71-0.87,0.29-0.51s-0.6,0.64-0.62,0.89c-0.02,0.25-0.35,0.3-0.53,0.1s-0.48-0.59-0.01-1.22s0.26-0.68,0.81-0.72
			s0.62,0.06,0.89-0.26c0.27-0.33,0.76-0.51,0.87-0.9c0.11-0.39,0.14-0.38-0.18-0.04c-0.32,0.35-0.78,0.58-1.03,0.72
			s-0.42,0.65-0.33-0.07s0.13-0.96,0.35-1.39s0.18-0.9,0.39-1.32s0.44-0.92-0.04-0.28c-0.48,0.63-0.62,0.89-0.69,1.37
			c-0.06,0.48,0.04,0.72-0.24,1.19s-0.25,0.47-0.6,0.78c-0.35,0.31-0.61,0.35-0.67,0.63s-0.36,0.37-0.4,0.24
			c-0.04-0.13,0.54-1.73,0.65-2.44c0.11-0.71,0.11-0.96,0.11-1.4c0-0.44,0.27-0.74,0.26-1.28c-0.01-0.54,0.08-1.6,0.04-1.07
			c-0.04,0.53-0.07,1.25-0.37,1.76c-0.31,0.51-0.63,1.33-0.65,1.9c-0.02,0.57-0.35,1.29-0.32,1.46c0.03,0.16-0.13,0.61-0.13,0.61
			s-0.2,0.12-0.42-0.05c-0.22-0.17-0.15-0.98-0.15-1.77c0-0.79-0.25-1.41,0.13-1.88c0.38-0.46,1.1-1.2,1.1-1.2s-0.36,0.82-0.72,0.74
			c-0.37-0.07-0.54-0.17-0.47-0.51c0.07-0.33,0.29-0.67,0.33-0.85c0.04-0.18-0.29-0.67-0.3-0.75c-0.01-0.08-0.08-0.09-0.04,0.2
			c0.04,0.29-0.16,0.44-0.24,1.19c-0.08,0.74-0.13,1.31-0.13,1.31s0.05,0.23-0.03,0.79s-0.12,1.4-0.11,1.66
			C32.5,51.62,32.45,52,32.45,52s-0.27-0.09-0.64-0.57s-0.86-0.59-0.79-1.27c0.07-0.68,1.15-3.79,0.85-4.2s-0.85-1.28-0.66-0.96
			c0.19,0.32,0.38,0.08,0.34,0.89c-0.05,0.81-0.38,1.74-0.42,2.06c-0.04,0.32-0.11,0.88-0.24,1.18c-0.13,0.3-0.27,0.66-0.27,0.66
			s-0.57-0.15-0.78-0.51c-0.21-0.36,0.15-1.68,0.09-2.17c-0.06-0.49-0.1-1.38-0.09-1.57c0.01-0.19-0.07,0.37-0.15,0.76
			c-0.08,0.4-0.33,0.73-0.3,1.43s-0.05,1.09-0.05,1.09s-0.46-0.08-0.66-0.34c-0.2-0.26-0.4-0.21-0.3-0.73
			c0.1-0.52,0.37-1.99,0.23-2.24s-0.21-0.87-0.65-1.62s-0.7-1.25-0.7-1.25s0.82,2.23,0.92,2.66s0.21,0.87,0.14,1.2
			c-0.07,0.33-0.13,0.65-0.17,0.84s-0.35,0.32-0.51,0.19s-0.33,0.07-0.4-0.38c-0.03-0.19-0.03-0.42-0.03-0.63
			c0.01-0.29,0.03-0.54,0.02-0.6c-0.01-0.1-0.72,0.43-0.72,0.43s0.1-0.65,0.06-1.1s-0.17-0.55-0.01-1.05
			c0.05-0.16,0.09-0.29,0.12-0.41c0.07-0.26,0.09-0.43,0.05-0.5c-0.06-0.11-0.29,1.17-0.44,0.86c-0.16-0.31-0.34-1.3-0.34-1.3
			s-0.48-0.13-0.29,0.48c0.19,0.61,0.2,0.96,0.38,1.28s0.19,0.45,0.17,0.67s-0.09,0.74-0.09,0.74s-0.05,0.47-0.36-0.07
			c-0.31-0.54-0.46-0.89-0.72-1s-0.22-0.65-0.34-0.83c-0.12-0.18-0.04-0.1-0.06,0.3s-0.21,0.4,0.14,0.73s0.27,0.37,0.49,0.7
			c0.22,0.33,0.39,0.71,0.7,0.9s0.15,0.06,0.31,0.19c0.16,0.13,0.77,0.44,0.09,0.34s-0.71,0.05-1.14-0.17
			c-0.43-0.21-0.38-0.14-0.75-0.34c-0.37-0.2-0.59-0.52-0.61-0.29c-0.01,0.23,0.19,0.46,0.57,0.63c0.38,0.17,0.91,0.37,1.55,0.5
			c0.64,0.13,0.85,0.04,1.1,0.19c0.26,0.15,0.46,0.09,0.7,0.3c0.24,0.21,0.42,0.44,0.32,0.46c-0.1,0.03-0.72,0.09-1.29,0.13
			c-0.58,0.04-1.18-0.05-1.6-0.07c-0.41-0.02-0.77,0.19-0.22,0.27c0.55,0.08,0.43,0.06,1.29,0.2c0.86,0.14,1.06,0.09,1.38,0.06
			c0.32-0.03,0.74-0.07,1.06,0.09c0.32,0.16,0.88,0.53,1.06,0.69c0.19,0.16,0.67,0.62,0.52,0.71c-0.15,0.09-0.87,0.36-1.48,0.27
			c-0.62-0.09-1.09-0.25-1.85-0.28c-0.76-0.03-1.3,0.02-1.73-0.06c-0.43-0.09-0.24,0.11-0.82-0.36s-1.41-0.73-0.87-0.4
			s0.79,0.64,0.97,0.83s0.43,0.31,0.15,0.57c-0.28,0.26-0.46,0.98-0.31,0.7s0.76-0.96,0.87-1.03c0.11-0.07,0.42-0.04,1.13,0.04
			s0.95,0.32,1.86,0.38c0.91,0.06,1.18,0.14,1.61,0.01c0.44-0.13,0.52-0.24,0.75-0.1c0.23,0.14,0.82,0.51,0.93,0.73
			c0.12,0.21,0.81,0.54,0.01,0.44c-0.8-0.1-1.88-0.41-2.29-0.27s-1.71,0.16-2.1,0.21c-0.39,0.05-1.6-0.26-1.45-0.04
			c0.15,0.22-0.33,0.21,0.7,0.28c1.03,0.07,1.99,0.1,2.56,0.12s1.81-0.11,2.13,0.02c0.32,0.13,1.05-0.01,1.25,0.25
			c0.2,0.26,0.38,0.49,0.5,0.67c0.12,0.18,0.26,0.29,0.26,0.29s-0.09-0.04-1-0.2c-0.92-0.17-0.79-0.49-1.34-0.27
			s-1.47,0.58-2.05,0.52c-0.58-0.05-0.9-0.02-1.27,0.06c-0.37,0.08-0.71,0.08-0.99,0.05c-0.28-0.02-1.05,0.1-0.54,0.14
			c0.51,0.04,1.01-0.27,0.99,0.14s0.22,0.48-0.27,0.64c-0.49,0.16-0.95,0.1-0.49,0.16c0.46,0.06,1.27-0.19,1.54-0.55
			s0.73-0.46,0.85-0.43s2.55-0.24,2.55-0.24s0.21-0.08,0.55,0.11s1.07,0.22,0.59,0.37c-0.48,0.16-1.02,0.36-1.57,0.54
			c-0.54,0.18-0.61,0.19-1.24,0.35s-0.62-0.02-0.98,0.09s-1.14,0.48-0.81,0.43c0.33-0.05,0.18,0.04,0.86-0.03
			c0.68-0.07,1.05-0.33,0.73,0.15c-0.31,0.47-0.5,0.9-0.28,0.75c0.22-0.15,0.69-0.93,0.78-1.04s1.01-0.31,1.01-0.31
			s0.61-0.13,0.46,0.06s-0.28,0.32-0.69,0.79s-0.8,1.15-0.41,0.85c0.39-0.3,1.01-1.01,1.19-1.13s1.12-0.66,1.12-0.66
			s0.4-0.24,0.54-0.15c0.14,0.09,1.03,0.53,1.21,0.69c0.17,0.16,1.72,1.77,1.72,1.77s1.38,2.39,1.54,2.57
			c0.16,0.18,0.78,0.87,1.25,1.03c0.47,0.16,1.22,0.25,1.22,0.25L40.06,60.48z"/>
		<path class="st0" d="M37.57,60.86c0,0-2.52-1.03-3.16-1.01c-0.64,0.02-2.15,0.12-2.48,0.02s-0.85-0.2-1.01-0.2
			c-0.16,0-1.16-0.38-1.19-0.52c-0.03-0.14-0.01-0.73-0.1-0.76c-0.08-0.03-0.25-0.05-0.29,0.15c-0.04,0.2,0.33,0.4,0.12,0.65
			c-0.21,0.24-0.74,0.05-0.98-0.01c-0.24-0.05-0.45-0.28-1.03-0.72c-0.58-0.44-1.63-1.5-1.96-1.73c-0.33-0.23-3.56-2.15-3.9-2.33
			c-0.34-0.18-1.06-0.45-1.25-0.49s-0.69,0.1-0.69,0.1s-0.1-0.13,0.76,0.3c0.86,0.43,2.08,1.15,2.61,1.38
			c0.52,0.23,1.77,0.83,2.14,1.16c0.38,0.33,1.19,0.71,1.39,1.12c0.2,0.41,0.61,0.77,0.76,0.96c0.15,0.19,0.36,0.55,0.14,0.54
			c-0.22-0.01-0.78,0.1-1.36,0.01c-0.58-0.09-0.39-0.11-0.94-0.19c-0.55-0.08-0.55-0.4-1.28-1.05c-0.72-0.65-2.06-1.55-2.79-1.73
			c-0.72-0.18-1.45-0.37-1.65-0.6c-0.11-0.12-0.4-0.46-0.65-0.74c-0.23-0.25-0.43-0.45-0.45-0.39c-0.06,0.12,0.83,1.09,0.43,1.16
			c-0.4,0.08-0.89,0.01-1.02,0.02c-0.13,0.01-0.47,0.31,0.35,0.3c0.82,0,1.01,0.03,1.53,0.14c0.52,0.1,1.31,0.29,1.86,0.55
			c0.55,0.26,1.47,0.63,1.85,1.06c0.38,0.43,0.93,0.84,0.97,1.12c0.04,0.28,0.18,0.38-0.18,0.43c-0.36,0.05-1.31,0.5-1.63,0.37
			c-0.32-0.13-1.24-0.47-1.24-0.47l-0.72-0.34c0,0-0.46-0.38-0.58-0.43c-0.12-0.06-1-0.39-1.21-0.28s-0.44,0.45-0.75,0.1
			c-0.31-0.35-0.54-0.77-0.54-0.77s-0.17-0.35-0.24,0.11c-0.07,0.46,0.05,0.68-0.47,0.73s-1.44,0.22-0.55,0.24
			c0.88,0.02,1.15-0.05,1.21-0.17s-0.15-0.03,0.4,0.08c0.55,0.11-0.21-0.04,0.86,0.14s1.72,0.28,2.1,0.58
			c0.38,0.3,0.76,0.48,0.76,0.48s-0.24,0.56-0.64,0.5c-0.4-0.06-0.72,0.1-1.45,0.11c-0.73,0.01-2.08-0.2-2.35-0.29
			c-0.27-0.09-1.39-0.47-1.45-0.48c-0.06-0.01-0.95,0.01-0.95,0.01s2.19,0.78,2.55,0.86c0.37,0.07,0.76,0.31-0.11,0.55
			s-2.11,0.56-2.07,0.69c0.04,0.13,1.88-0.03,2.25-0.31c0.37-0.27,0.65-0.57,1.23-0.58c0.57-0.01,1.38,0.09,1.57,0.09
			c0.19,0.01,0.81-0.72,0.39,0.11c-0.42,0.83-0.6,1.88-1.08,2.03s-1.46,0.5-1.57,0.54c-0.1,0.04-0.18,0.44,0.67,0.14
			c0.85-0.3,2.04-0.89,2.11-1.22c0.07-0.33,0.58-1.59,0.71-1.79s0.56-0.43,1.02-0.49c0.46-0.07,1.02-0.2,1.29-0.25
			c0.26-0.04,0.61-0.35,0.55,0.11c-0.06,0.46-0.96,2.09-1.22,2.29c-0.26,0.2-0.87,1-1.06,1.15c-0.19,0.15-0.5,0.6,0.07,0.3
			c0.57-0.3,2.03-2.03,2.03-2.22c0.01-0.19,0.78-1.81,0.94-1.84c0.16-0.03,0.99,0.14,1.24,0.12c0.26-0.01,0.84,0.07,0.84,0.07
			s-1.34,1.6-1.66,1.92c-0.32,0.32-1.38,1.02-0.84,0.88c0.54-0.15,1.75-0.98,1.89-1.2c0.14-0.23,1.45-1.83,1.72-1.78
			s1.9,0.32,1.9,0.32s0.97,0.04,1.13,0.07c0.15,0.03,1.9,0.42,1.9,0.42s1.74,0.38,1.94,0.49c0.2,0.1,2.75,1.13,2.96,1.29
			s0.56-0.01,0.79-0.06c0.23-0.05,1.7-0.86,1.7-0.86l-1.18-0.27L37.57,60.86z"/>
		<path class="st4" d="M51.63,63.21c0.04,0.04,0.1,0.11,0.16,0.22c-0.12-0.14-0.25-0.27-0.37-0.39
			C51.52,63.11,51.59,63.18,51.63,63.21z"/>
		<path class="st5" d="M46.35,60.99c0.27,1.19,1.45,2.07,1.07,2.95c-0.38,0.88-1.03,1.6-1.83,1.65c-0.81,0.05-0.47,0.61-1.77-0.23
			c-1.3-0.84-2.06-0.58-2.62-1.27c-0.57-0.69-0.65-2.18-1-1.24c-0.34,0.94-0.01,0.87-0.58,2.34c-0.57,1.46-0.19,2.8-1.65,2.91
			c-1.43,0.11-1.54,0-2.05-0.13c-0.04-1.17,0.04-2.24,0.17-2.74c0.25-0.96,0.25-2.49,0.94-3.31c0.68-0.82,0.96-1.6,2.1-2.12
			c1.15-0.52,1.5-0.71,1.72-0.72c0.22-0.01,2.14-0.07,2.14-0.07c0.07,0.02,2.9,0.18,3.96,0.76c0.74,0.41,2.57,1.77,3.72,2.67
			c-0.87-0.39-3.12-1.66-3.72-1.73C46.35,60.65,46.07,59.8,46.35,60.99z"/>
		<path class="st4" d="M50.66,62.44c0.21,0.09,0.47,0.32,0.75,0.6C51.24,62.89,50.98,62.68,50.66,62.44
			C50.66,62.44,50.66,62.44,50.66,62.44z"/>
		<path class="st6" d="M50.82,69.22c-0.81,1.24-1.44,2.45-3.28,3.45s-0.44,2.17-2.26,2.35s-2.82,0.19-3.33,0.14
			c-0.5-0.04-0.91-0.07-1.37-0.24c-0.45-0.17-0.72-0.53-1.43-0.64c-0.17-0.03-0.44-0.1-0.77-0.18c-0.9-0.99-1.67-2.08-1.99-3.05
			c-0.3-0.91-0.44-2.05-0.48-3.09c0.51,0.13,0.62,0.24,2.05,0.13c1.46-0.11,1.07-1.45,1.65-2.91c0.57-1.46,0.24-1.4,0.58-2.34
			c0.34-0.94,0.43,0.55,1,1.24c0.57,0.69,1.32,0.43,2.62,1.27c1.3,0.84,0.96,0.28,1.77,0.23c0.81-0.05,1.45-0.77,1.83-1.65
			c0.38-0.88-0.8-1.76-1.07-2.95c-0.27-1.19,0-0.35,0.6-0.28c0.6,0.07,2.85,1.34,3.72,1.73c0.31,0.24,0.58,0.45,0.75,0.6
			c0.12,0.12,0.24,0.25,0.37,0.39c0.16,0.27,0.38,0.74,0.6,1.31C51.91,66.46,51.27,68.54,50.82,69.22z"/>
		<path class="st7" d="M40.59,74.93c0.45,0.17,0.86,0.2,1.37,0.24c0.5,0.04,1.5,0.04,3.33-0.14s0.43-1.35,2.26-2.35
			s2.47-2.21,3.28-3.45c0.45-0.68,1.09-2.76,1.56-4.48c0.45,1.17,0.92,2.76,0.94,3.88c0.03,1.88-0.71,3.89-0.93,4.44
			c-0.23,0.55-1.33,1.1-0.53,1.93c0.8,0.83,0.86,1.73,1.59,1.18c0.73-0.54,0.65-0.69,1.13-0.52c0.49,0.17,0.72,0.31,0.86,0.45
			c0.14,0.14,0.46,0.2-0.17,0.2c-0.62,0-0.59-0.25-1.38,0.29c-0.79,0.55-0.9,0.96-1.68,0.67c-0.78-0.3-1.14-0.51-1.46-0.82
			c-0.31-0.31,0.14-1.11-0.94-0.31c-1.08,0.79-2.18,1.31-3.33,1.33s-3.02,0.08-4.38-0.38c-0.81-0.27-2.4-1.51-3.72-2.98
			c0.33,0.08,0.6,0.15,0.77,0.18C39.87,74.4,40.13,74.75,40.59,74.93z"/>
	</g>
	<g>
		<path class="st0" d="M55.33,54.85c0.19-0.3-1.64-4.05-1.64-4.05l0.95-1.27l1.95,4.82l1.02,0.31c0,0-0.62,0.44-1.15,0.46
			c-0.53,0.02-0.87-0.17-1.32,0.14c-0.46,0.3-1.4,0.72-1.18,0.48C54.17,55.5,55.14,55.15,55.33,54.85z"/>
		<path class="st0" d="M60.93,52.36c0,0,6.11-4.93,6.3-5.41s1.16-0.47,1.16-0.47l0.66,1.08c0,0-5.59,4.99-5.69,5.07
			c-0.1,0.08-1.83,1.9-1.83,1.9l-1.66,0.67l-1.34-0.12l-0.38-0.16L60.93,52.36z"/>
		<path class="st0" d="M58.02,53.81c0,0,1.21-5.97,1.13-7.07c-0.08-1.1,1.48-2.4,1.48-2.4s-0.06,5.14-0.16,5.76
			c-0.1,0.62-0.11,2.36-0.24,2.59s-0.92,1.13-0.99,1.29C59.17,54.14,58.02,53.81,58.02,53.81z"/>
		<path class="st1" d="M69.01,48.11c0,0-0.9,0.85-1.24,1.21s0.65,0.49,0.43,1.07c-0.21,0.58-0.58,0.1-0.39,1
			c0.19,0.9,0.2,1.48,0.49,1.76c0.29,0.28,0.25,0.83,1.13,0.39c0.89-0.45,1.48-0.73,2.38-0.38c0.9,0.35,1.18,0.5,1.58,1.27
			c0.4,0.77-0.01,1.74,0.91,1.37s0.27-0.87,1.57-1.08c1.29-0.21,0.66-0.13,1.57,0.03c0.91,0.16,1.28-0.47,1.87-0.76
			c0.6-0.29,1.25-0.64,1.95-0.12c0.7,0.52,0.49,1.09,1.23,1.06s0.79-0.36,1.37-0.24c0.58,0.12,1.16,0.33,1.32,0.84
			c0.16,0.51-0.4,1.54,0.98,1.43s1.59,0.07,2.26-0.47c0.67-0.54,0.41-1.41,1.27-1.05c0.86,0.36,0.81,1.01,1.89,0.39
			c1.08-0.62,1.86-0.57,2.44-2.1s0.24-1.61,0.72-2.61s1.29-1.32,0.71-2.64c-0.58-1.32-1.02-1.1-2.38-2.46
			c-1.35-1.36-0.66-2.18-1.86-3.38c-1.2-1.2,0.01-0.63-2.73-1.7c-2.75-1.07-2.11-1.15-3.13-2.02c-1.02-0.88-1.4-0.81-2.24-0.7
			c-0.84,0.12-1.74-0.01-2.18-0.23c-0.44-0.22-1.1-0.31-1.19-0.19c-0.08,0.12-1.94,0.47-2.38,1.14c-0.44,0.67-2.2,4.01-3.19,5.07
			c-0.99,1.07-1.1,0.8-2.17,1.68S69.01,48.11,69.01,48.11z"/>
		<path class="st2" d="M52.26,36.08c-0.02-0.26,0.54-1.42,0.76-2.18c0.23-0.76,0.14-1.33,0.82-1.95c0.68-0.62,0.62-1.08,1.12-1.5
			s1.19-0.57,1.72-0.7c0.53-0.12,1.78-0.45,1.86-0.53c0.08-0.08,0.85-0.48,1.1-0.31c0.25,0.17,1.11,0.66,1.34,0.79
			s0.51-0.28,0.91,0.15c0.4,0.43,0.65,0.51,0.89,0.77c0.24,0.26,0.81,0.34,0.91,0.83c0.11,0.49-0.94,2.96-1.19,3.55
			c-0.25,0.59-2.3,4.09-2.66,4.41s-2.16,1.32-2.49,1.19c-0.33-0.13-2.21-0.71-2.52-0.94c-0.31-0.23-1.87-1.11-1.97-1.47
			C52.75,37.84,52.26,36.08,52.26,36.08z"/>
		<path class="st8" d="M54.24,51.07c0.34-0.41,0.47-0.59,0.91-1.48c0.44-0.89,1.46-1.44,1.66-1.61c0.2-0.17,0.69-0.94,0.93-1
			s0.58-0.06,0.95-0.16c0.37-0.11,0.78,0,0.99-0.45s0.28,0.16-0.17-1.5s-1.56-4.73-1.9-5.35s-1.08-1.34-1.9-2.17
			s-1.77-1.29-2.21-1.73c-0.45-0.44,0.29-0.7-2.1-1.02c-2.4-0.32-2.59-0.15-3.95-0.31c-1.36-0.16-3.59,0.7-3.99,0.46
			s-1.97-1.03-2.6-0.06c-0.63,0.97-0.8,1.1-0.98,1.74c-0.19,0.64-1.09,1.14-0.94,1.97c0.16,0.83,0.42,1.48,0.82,2.03
			c0.4,0.55,0.74-0.03,0.88,0.75s0.52,2.72,1.27,2.91c0.74,0.19,0.8-0.01,1.43-0.09s1.47,0.78,1.48,0.91s0.77-0.08,1.41,0.3
			c0.64,0.38,0.78,0.5,1.02,1.65s1.61,0.9,1.77,1.29c0.15,0.38-0.72,0.2,0.2,0.94s0.68,0.79,1.76,0.84
			c1.09,0.05,1.35-0.06,1.52,0.36s0.23,0.57,0.34,0.84C52.95,51.41,53.13,52.41,54.24,51.07z"/>
		<path class="st3" d="M62.52,45.94c-0.68-0.04,0.05,0.02-1-0.04c-1.05-0.06-1.1-0.31-1.57-0.7s-0.76-0.45-0.81-0.79
			c-0.05-0.34,0.51,0.15-0.69-0.61c-1.2-0.76-1.64-1.29-1.72-1.93s0.18-0.43,0.28-1.4c0.1-0.97-0.28-1.13-0.08-1.52
			c0.2-0.39-0.05-0.24,0.2-0.39c0.25-0.15,0.98,0.45,0.84-0.34s-0.56-0.93,0.21-1.78c0.77-0.85,1.32-1.25,1.92-1.4
			s0.64,0.36,0.88-0.13c0.24-0.5-0.44-0.98,0-1.65c0.44-0.67,0.91-1.39,1.33-1.65c0.43-0.26,0.78-0.05,1.03-0.42
			s-0.09-0.23,1.01-1.03c1.1-0.8,1.62-1.72,2.12-2.01s0.8-0.01,1.09,0.05c0.29,0.06,0.11,0.93,0.81-0.42
			c0.7-1.35-0.14-1.77,1.51-2.3s3.47-1.09,4.19-0.85s1.89,1.15,2.19,1.56c0.3,0.41,1.56,1.99,1.91,2.52s1.25,3.54,1.3,4.32
			s-0.55,5.02-1.12,6.24c-0.58,1.21-1.8,3.35-1.61,3.72c0.19,0.37,0.6,0.6-0.09,1.19c-0.69,0.59-0.75,0.13-1.17,1.05
			c-0.42,0.93-0.83,1.36-1.28,1.45c-0.45,0.09-0.5-0.25-1.22,0.51s-1,0.92-1.47,1.2c-0.47,0.28-0.63,0.75-1.57,0.63
			c-0.93-0.11-1.34-0.35-1.73-0.64s-1.19-0.19-1.13-0.92c0.06-0.74,0.66-1.11,0.13-1.65c-0.53-0.54-0.19-0.9-1.01-0.52
			c-0.83,0.38-1.35,0.28-2.04,0.34C63.49,45.68,62.52,45.94,62.52,45.94z"/>
		<path class="st0" d="M58.73,53.48c0.09-0.21,3.51-5.6,3.83-6.26c0.31-0.66,0.31-0.79,0.31-1.59c0.01-0.8,0.42-1.33-0.09-1.92
			s-1.14-0.96-0.51-0.6c0.64,0.36,0.94,0.69,1.03,1.01c0.09,0.32,0.53,0.31,0.71,0s0.49-0.88-0.29-1.59
			c-0.78-0.71-0.51-0.82-1.24-0.75c-0.73,0.07-0.79,0.23-1.23-0.13s-1.11-0.48-1.35-0.97c-0.24-0.48-0.28-0.47,0.23-0.09
			c0.51,0.37,1.16,0.57,1.52,0.68s0.7,0.75,0.42-0.17s-0.41-1.22-0.79-1.73c-0.38-0.51-0.46-1.13-0.84-1.63
			c-0.38-0.5-0.8-1.09-0.02-0.38c0.78,0.71,1.03,1.01,1.23,1.62s0.12,0.95,0.6,1.49s0.45,0.55,0.98,0.87s0.88,0.31,1.02,0.65
			s0.56,0.4,0.58,0.21c0.01-0.18-1.13-2.12-1.44-3.02c-0.32-0.89-0.38-1.23-0.49-1.8c-0.11-0.58-0.53-0.9-0.65-1.61
			s-0.5-2.07-0.31-1.39c0.19,0.68,0.39,1.62,0.92,2.21c0.53,0.59,1.15,1.58,1.31,2.31s0.77,1.6,0.78,1.82
			c0.01,0.22,0.32,0.76,0.32,0.76s0.3,0.1,0.54-0.17c0.24-0.28-0.04-1.32-0.24-2.35c-0.2-1.03-0.02-1.91-0.62-2.42
			c-0.61-0.51-1.73-1.3-1.73-1.3s0.66,0.98,1.12,0.79c0.46-0.19,0.66-0.35,0.49-0.78c-0.17-0.42-0.55-0.8-0.64-1.03
			c-0.09-0.23,0.22-0.94,0.21-1.05c-0.01-0.1,0.09-0.14,0.1,0.25c0.02,0.39,0.32,0.54,0.6,1.49c0.29,0.95,0.49,1.67,0.49,1.67
			s-0.01,0.31,0.23,1.02c0.24,0.7,0.5,1.8,0.55,2.13c0.05,0.34,0.19,0.81,0.19,0.81s0.33-0.18,0.7-0.91
			c0.37-0.73,0.98-0.98,0.72-1.85c-0.26-0.87-2.42-4.67-2.13-5.27c0.29-0.61,0.8-1.88,0.63-1.41c-0.17,0.47-0.48,0.19-0.22,1.25
			c0.26,1.05,0.92,2.18,1.05,2.59c0.13,0.41,0.35,1.12,0.6,1.48s0.51,0.79,0.51,0.79s0.71-0.33,0.9-0.85s-0.61-2.16-0.65-2.81
			c-0.04-0.65-0.21-1.83-0.26-2.07s0.19,0.46,0.39,0.96c0.2,0.5,0.61,0.86,0.74,1.79c0.13,0.92,0.33,1.4,0.33,1.4
			s0.58-0.21,0.78-0.61c0.2-0.39,0.47-0.37,0.21-1.02c-0.26-0.65-0.97-2.5-0.85-2.86c0.12-0.36,0.06-1.18,0.46-2.28
			s0.61-1.8,0.61-1.8s-0.52,3.1-0.55,3.69c-0.03,0.59-0.06,1.18,0.11,1.6c0.17,0.42,0.33,0.82,0.43,1.06
			c0.1,0.24,0.53,0.33,0.72,0.12c0.18-0.21,0.45,0.01,0.43-0.59c-0.01-0.25-0.06-0.55-0.12-0.83c-0.08-0.38-0.17-0.7-0.17-0.77
			c-0.01-0.13,1.04,0.38,1.04,0.38s-0.29-0.82-0.35-1.41c-0.06-0.6,0.09-0.76-0.24-1.37c-0.11-0.19-0.19-0.36-0.26-0.51
			c-0.15-0.32-0.22-0.54-0.18-0.64c0.05-0.15,0.66,1.46,0.79,1.01c0.13-0.45,0.12-1.78,0.12-1.78s0.6-0.29,0.49,0.56
			c-0.1,0.84-0.03,1.3-0.18,1.76s-0.13,0.63-0.06,0.92c0.07,0.28,0.29,0.95,0.29,0.95s0.18,0.6,0.45-0.18
			c0.27-0.78,0.39-1.27,0.7-1.48c0.31-0.22,0.13-0.9,0.24-1.16c0.11-0.27,0.03-0.15,0.15,0.38c0.12,0.53,0.37,0.47,0,0.98
			c-0.37,0.51-0.27,0.55-0.47,1.04c-0.2,0.48-0.34,1.03-0.7,1.35c-0.36,0.32-0.18,0.12-0.36,0.32c-0.18,0.21-0.89,0.76-0.04,0.46
			c0.86-0.3,0.93-0.11,1.44-0.5s0.47-0.28,0.9-0.63c0.43-0.35,0.65-0.82,0.72-0.53c0.07,0.29-0.14,0.65-0.59,0.96
			c-0.45,0.32-1.09,0.71-1.89,1.03c-0.8,0.32-1.09,0.26-1.39,0.52c-0.3,0.25-0.57,0.23-0.84,0.56c-0.27,0.33-0.44,0.67-0.3,0.68
			s0.96-0.06,1.72-0.14c0.77-0.09,1.53-0.35,2.06-0.48c0.54-0.13,1.06,0.06,0.35,0.3c-0.7,0.24-0.55,0.18-1.64,0.57
			c-1.09,0.39-1.36,0.37-1.79,0.41c-0.43,0.04-0.99,0.09-1.36,0.37c-0.37,0.28-1.01,0.9-1.22,1.16c-0.21,0.26-0.72,0.97-0.51,1.06
			c0.21,0.09,1.22,0.26,2-0.01s1.36-0.6,2.34-0.81s1.71-0.29,2.24-0.51s0.34,0.08,0.98-0.66c0.63-0.75,1.66-1.29,1.04-0.73
			c-0.62,0.56-0.88,1.02-1.07,1.32s-0.48,0.51-0.05,0.78c0.43,0.27,0.84,1.17,0.57,0.84s-1.23-1.06-1.39-1.13
			c-0.16-0.07-0.56,0.05-1.47,0.33c-0.91,0.28-1.16,0.65-2.33,0.94c-1.17,0.3-1.5,0.47-2.1,0.41c-0.61-0.07-0.74-0.19-1,0.05
			c-0.26,0.24-0.94,0.87-1.04,1.18c-0.1,0.31-0.92,0.91,0.1,0.58c1.02-0.33,2.35-1,2.92-0.92c0.57,0.08,2.27-0.21,2.79-0.24
			c0.52-0.03,2.02-0.73,1.88-0.41c-0.14,0.32,0.48,0.2-0.85,0.54c-1.33,0.34-2.57,0.62-3.31,0.79c-0.75,0.17-2.38,0.3-2.77,0.54
			s-1.37,0.24-1.57,0.63c-0.2,0.39-0.37,0.73-0.49,1c-0.11,0.27-0.27,0.44-0.27,0.44s0.11-0.07,1.26-0.51
			c1.16-0.44,0.91-0.84,1.68-0.68c0.78,0.16,2.06,0.39,2.8,0.18s1.17-0.25,1.67-0.23s0.95-0.07,1.31-0.17s1.39-0.12,0.74,0.05
			c-0.65,0.18-1.39-0.1-1.26,0.42c0.12,0.53-0.17,0.67,0.51,0.76s1.27-0.1,0.68,0.09c-0.59,0.19-1.71,0.07-2.14-0.34
			c-0.43-0.4-1.06-0.42-1.21-0.35c-0.15,0.06-3.39,0.3-3.39,0.3s-0.29-0.06-0.69,0.28c-0.4,0.34-1.34,0.54-0.68,0.63
			s1.42,0.22,2.18,0.32c0.75,0.1,0.84,0.1,1.71,0.15c0.87,0.05,0.8-0.18,1.3-0.12c0.5,0.06,1.6,0.35,1.16,0.36s-0.23,0.1-1.13,0.18
			c-0.9,0.08-1.44-0.17-0.92,0.37s0.87,1.05,0.55,0.91c-0.32-0.14-1.13-1.04-1.27-1.17c-0.14-0.13-1.4-0.15-1.4-0.15
			s-0.83-0.02-0.58,0.19c0.25,0.21,0.44,0.35,1.1,0.87c0.65,0.51,1.33,1.31,0.74,1.01c-0.59-0.3-1.57-1.07-1.83-1.18
			c-0.27-0.11-1.61-0.58-1.61-0.58s-0.58-0.21-0.74-0.06s-1.22,0.94-1.41,1.19s-1.81,2.73-1.81,2.73s-1.21,3.46-1.37,3.73
			c-0.16,0.27-0.8,1.33-1.38,1.66s-1.53,0.62-1.53,0.62L58.73,53.48z"/>
		<path class="st0" d="M62.06,53.37c0,0,3.03-1.95,3.87-2.09c0.84-0.13,2.83-0.37,3.24-0.57c0.41-0.2,1.05-0.47,1.26-0.51
			c0.21-0.04,1.42-0.78,1.43-0.97c0.01-0.19-0.16-0.96-0.06-1.02c0.1-0.07,0.31-0.12,0.41,0.13c0.1,0.25-0.33,0.61,0,0.87
			c0.33,0.27,0.97-0.12,1.28-0.25c0.3-0.13,0.52-0.47,1.17-1.18c0.65-0.71,1.76-2.36,2.14-2.74s4.12-3.67,4.52-3.99
			c0.4-0.32,1.28-0.85,1.52-0.95c0.24-0.1,0.93-0.04,0.93-0.04s0.1-0.19-0.92,0.57c-1.02,0.77-2.43,2.01-3.06,2.44
			c-0.63,0.43-2.1,1.52-2.51,2.04c-0.41,0.52-1.38,1.21-1.54,1.8c-0.16,0.58-0.6,1.15-0.75,1.44c-0.15,0.29-0.34,0.81-0.06,0.74
			c0.28-0.07,1.04-0.07,1.78-0.32c0.74-0.26,0.48-0.24,1.18-0.48c0.7-0.24,0.62-0.66,1.41-1.69c0.79-1.02,2.31-2.53,3.21-2.94
			c0.9-0.41,1.8-0.84,2.01-1.18c0.11-0.18,0.4-0.7,0.67-1.12c0.23-0.38,0.45-0.69,0.49-0.62c0.1,0.14-0.81,1.62-0.28,1.62
			c0.54,0.01,1.16-0.2,1.33-0.23s0.69,0.29-0.38,0.48c-1.08,0.2-1.31,0.29-1.96,0.55c-0.65,0.26-1.63,0.69-2.29,1.16
			s-1.76,1.19-2.16,1.84c-0.39,0.65-1.01,1.32-0.99,1.7s-0.14,0.53,0.34,0.52s1.83,0.33,2.21,0.08c0.39-0.25,1.5-0.92,1.5-0.92
			l0.86-0.61c0,0,0.51-0.61,0.65-0.71c0.14-0.1,1.21-0.76,1.51-0.66c0.31,0.1,0.68,0.48,1-0.05c0.32-0.53,0.52-1.14,0.52-1.14
			s0.14-0.5,0.34,0.09c0.2,0.59,0.1,0.89,0.79,0.84s1.93-0.07,0.78,0.17c-1.15,0.24-1.51,0.21-1.62,0.08
			c-0.1-0.14,0.19-0.08-0.5,0.2c-0.69,0.28,0.27-0.11-1.09,0.39c-1.35,0.5-2.17,0.79-2.6,1.27c-0.43,0.48-0.87,0.81-0.87,0.81
			s0.45,0.68,0.96,0.5c0.51-0.17,0.96-0.05,1.92-0.21c0.96-0.16,2.67-0.77,3-0.95c0.33-0.18,1.7-0.95,1.78-0.99s1.25-0.23,1.25-0.23
			s-2.66,1.56-3.12,1.74c-0.46,0.19-0.92,0.59,0.28,0.69c1.19,0.09,2.89,0.21,2.87,0.39s-2.46,0.42-3.01,0.15
			c-0.55-0.27-0.99-0.58-1.74-0.45s-1.77,0.45-2.02,0.51s-1.24-0.75-0.48,0.24s1.24,2.3,1.9,2.39c0.66,0.09,2.03,0.29,2.18,0.32
			c0.15,0.03,0.35,0.53-0.84,0.34s-2.88-0.66-3.06-1.08c-0.17-0.42-1.14-1.94-1.37-2.16c-0.22-0.22-0.84-0.42-1.45-0.39
			c-0.61,0.03-1.38-0.01-1.74-0.01c-0.35,0.01-0.88-0.31-0.69,0.28s1.76,2.49,2.15,2.68c0.39,0.2,1.37,1.09,1.66,1.24
			c0.28,0.15,0.8,0.66-0.01,0.41c-0.81-0.25-3.14-2.15-3.19-2.4s-1.46-2.17-1.68-2.17c-0.22,0-1.25,0.42-1.59,0.47
			c-0.34,0.05-1.08,0.3-1.08,0.3s2.14,1.76,2.63,2.09c0.49,0.33,2.05,0.99,1.31,0.94c-0.74-0.06-2.52-0.85-2.76-1.11
			c-0.24-0.26-2.34-2.03-2.68-1.9c-0.34,0.14-2.4,0.88-2.4,0.88s-1.26,0.29-1.45,0.37c-0.19,0.08-2.38,1.01-2.38,1.01
			s-2.17,0.92-2.41,1.11c-0.24,0.18-3.31,2.14-3.54,2.41c-0.22,0.27-0.73,0.12-1.04,0.11c-0.31-0.01-2.42-0.71-2.42-0.71L60,54.42
			L62.06,53.37z"/>
		<path class="st0" d="M57.34,47.34c0,0,1.28,4.22,1.36,4.32c0.08,0.1,1.18,2.46,1.18,2.46s-1.01,0.85-1.56,0.63
			c-0.55-0.22-1.3-0.54-1.3-0.54l-1.54-5.12l-0.08-0.96l0.81-0.86L57.34,47.34z"/>
		<path class="st0" d="M53.14,48.76c-0.07-0.24,0.05-0.33-1.03-0.16c-1.08,0.17-1.57,0.06-1.57,0.06s0.7,0.12,1.46-0.32
			c0.76-0.44,1.06-0.56,0.56-0.98s0.6-0.78-0.94-0.96c-1.54-0.18-2.49,0.21-3.05-0.39c-0.55-0.6-0.75-0.97-0.75-0.97
			s1.29,1.05,2.12,0.97c0.82-0.07,1.32-0.17,1.12-0.45c-0.2-0.28-1.69-1.81-1.79-1.86s-0.47,0.24-1.96,0.08s-2.47-0.38-2.47-0.38
			s1.85,0.28,2.59,0.02s2.22,0.21,1.55-0.67c-0.67-0.89-0.84-2.15-1.94-1.97c-1.1,0.18-1.81,0.95-3.28-0.05
			c-1.47-1-2.8-2.42-2.8-2.42s0.88,0.09,1.47,0.78s1.76,1.82,2.43,1.73s1.77,0.08,1.61-0.65S45.2,39.12,45,38.22
			c-0.2-0.9-0.12-2.84-0.12-2.84s-0.02,0.54,0.25,1.19c0.26,0.65,1.13,2.08,1.18,2.33c0.04,0.25,0.51,0.42,0.81,0.83
			c0.3,0.41,1.11,0.75,1.11,0.75s0.35-1.3-0.26-2.16c-0.61-0.87-1.22-1.28-1.31-1.61c-0.09-0.32,1.01-0.59,1.18,0.28
			c0.17,0.86,0.79,1.5,0.85,2.55c0.07,1.04,0.03,1.5,0.25,1.94c0.22,0.44,0.61,1.44,0.97,1.65c0.36,0.21,0.42,0.68,0.6-0.2
			s0.83-2.12,0.6-3.36c-0.23-1.24-0.51-2.24-0.68-2.66c-0.17-0.42,0.07-0.92,0.38-0.15s0.76,2.09,0.73,2.91
			c-0.03,0.81-0.07,2.56-0.16,2.91s-0.44,0.89-0.34,1.47c0.1,0.58,0.62,1.01,0.7,1.24c0.08,0.23,0.67,0.7,0.72,0.5
			c0.05-0.2-0.01-0.8,0.26-1.66c0.27-0.87,0.42-2.78,0.39-3.42c-0.03-0.64-0.27-1.79-0.05-1.25c0.22,0.54,0.26,1.23,0.31,1.88
			s-0.02,1.7,0.06,1.89c0.08,0.19,0.36,0.61,0.65-0.13c0.29-0.74,0.38-1.09,0.88-1.65s0.5-0.56,0.5-0.56s0.34,0.08-0.14,0.86
			c-0.49,0.78-0.84,1.14-1.09,1.73c-0.24,0.59-0.36,0.63-0.65,1.24c-0.29,0.61-1.04,1.05-0.7,1.79s1.14,0.96,1.3,0.68
			s0.8-1.53,1.41-2.22c0.61-0.69,1.3-1.9,1.3-1.9s-0.15,0.46-0.37,1.13c-0.22,0.67-1.4,1.5-0.68,1.39c0.71-0.11,0.87-0.49,1.12-0.41
			c0.25,0.08,0.93,0.29-0.2,0.75s-1.15,0.24-1.33,0.54c-0.18,0.3-0.68,0.5-0.85,0.74c-0.17,0.25,0.11,0.27-0.19,0.52
			c-0.3,0.25-0.68,1.07-0.68,1.07s-0.26,0.59-0.36,0.5S53.14,48.76,53.14,48.76z"/>
		<path class="st9" d="M45.75,66.47c-0.03,0.07-0.04,0.19-0.05,0.35c0.06-0.24,0.12-0.47,0.19-0.68
			C45.82,66.29,45.78,66.4,45.75,66.47z"/>
		<path class="st10" d="M50.58,60.6c0.41,1.57-0.43,3.33,0.56,4.13c0.99,0.8,2.19,1.25,3.17,0.81c0.98-0.44,0.93,0.42,1.94-1.36
			c1.01-1.79,2.06-1.95,2.3-3.11c0.24-1.16-0.58-2.97,0.4-2.08c0.98,0.89,0.55,1.02,2.12,2.39c1.57,1.36,1.95,3.17,3.73,2.4
			c1.74-0.75,1.81-0.95,2.33-1.42c-0.67-1.41-1.43-2.6-1.9-3.12c-0.88-0.98-1.83-2.77-3.14-3.31c-1.31-0.54-2.11-1.28-3.78-1.19
			c-1.67,0.1-2.2,0.09-2.46,0.21c-0.27,0.13-2.55,1.24-2.55,1.24c-0.07,0.07-3.3,2-4.18,3.34c-0.62,0.94-1.92,3.67-2.72,5.43
			c0.78-0.99,2.64-3.88,3.3-4.33C50.37,60.19,50.17,59.04,50.58,60.6z"/>
		<path class="st9" d="M46.41,64.97c-0.19,0.24-0.36,0.66-0.52,1.17C46.01,65.86,46.19,65.45,46.41,64.97
			C46.41,64.97,46.41,64.97,46.41,64.97z"/>
		<path class="st0" d="M50.41,73.03c1.72,0.95,3.21,1.99,5.98,2.03c2.77,0.03,1.85,2.27,4.11,1.36c2.25-0.91,3.43-1.52,4-1.88
			c0.57-0.36,1.03-0.64,1.46-1.12c0.43-0.48,0.52-1.06,1.28-1.63c0.18-0.14,0.46-0.39,0.79-0.68c0.44-1.72,0.67-3.48,0.45-4.8
			c-0.21-1.26-0.74-2.68-1.34-3.93c-0.52,0.47-0.58,0.67-2.33,1.42c-1.78,0.77-2.16-1.04-3.73-2.4c-1.57-1.36-1.14-1.5-2.12-2.39
			c-0.98-0.89-0.16,0.91-0.4,2.08c-0.24,1.16-1.29,1.32-2.3,3.11c-1.01,1.79-0.96,0.92-1.94,1.36c-0.98,0.44-2.18-0.01-3.17-0.81
			c-0.99-0.8-0.15-2.56-0.56-4.13c-0.41-1.57-0.21-0.41-0.87,0.04c-0.66,0.45-2.52,3.33-3.3,4.33c-0.22,0.48-0.4,0.89-0.52,1.17
			c-0.07,0.22-0.13,0.45-0.19,0.68c-0.02,0.42,0.01,1.1,0.11,1.91C47.43,70.46,49.46,72.51,50.41,73.03z"/>
		<path class="st11" d="M65.95,73.41c-0.43,0.48-0.89,0.76-1.46,1.12c-0.57,0.36-1.74,0.97-4,1.88c-2.25,0.91-1.34-1.33-4.11-1.36
			c-2.77-0.03-4.26-1.08-5.98-2.03c-0.95-0.53-2.98-2.57-4.6-4.3c0.19,1.65,0.63,3.81,1.3,5.14c1.12,2.23,3.23,4.13,3.84,4.64
			c0.61,0.51,2.24,0.47,1.81,1.94c-0.43,1.46,0.06,2.56-1.13,2.37c-1.19-0.19-1.19-0.41-1.65,0.09c-0.46,0.5-0.65,0.81-0.73,1.06
			c-0.08,0.25-0.41,0.52,0.32,0.13c0.73-0.39,0.53-0.66,1.8-0.5c1.26,0.16,1.66,0.58,2.39-0.25c0.73-0.83,1.03-1.31,1.2-1.87
			c0.17-0.56-0.85-1.21,0.91-0.95c1.75,0.27,3.37,0.19,4.74-0.49c1.37-0.69,3.6-1.77,4.91-3.14c0.78-0.82,1.89-3.26,2.54-5.79
			c-0.33,0.29-0.61,0.55-0.79,0.68C66.47,72.35,66.38,72.93,65.95,73.41z"/>
	</g>
</g>
</svg>
