<?xml version="1.0" encoding="utf-8"?>
<!-- Generator: Adobe Illustrator 23.1.1, SVG Export Plug-In . SVG Version: 6.00 Build 0)  -->
<svg version="1.1" id="Layer_1" xmlns="http://www.w3.org/2000/svg" xmlns:xlink="http://www.w3.org/1999/xlink" x="0px" y="0px"
	 viewBox="0 0 108 108" style="enable-background:new 0 0 108 108;" xml:space="preserve">
<style type="text/css">
	.st0{fill:#85A852;}
	.st1{fill:#5F8C3D;}
	.st2{fill:none;}
	.st3{fill:#CCDF77;}
	.st4{fill:#6A9940;}
	.st5{fill:#869F3C;}
	.st6{fill:#C1CF74;}
	.st7{fill:#B2CA5E;}
	.st8{fill:#8EB377;}
</style>
<g>
	<path class="st0" d="M65.6,69.64c0.67-0.44,2.59-2.4,3.53-2.62c0.94-0.22,2.07,0.81,4.12-1.35c2.05-2.16,6.61-10.33,7.7-13.19
		c1.09-2.86,1.33-6.53,0.85-8.93c-0.49-2.4,2.21-7.06-0.57-11.21c-2.78-4.15-1.51-4.65-3.71-5.16c-2.2-0.52-4.89-1.28-5.86,0.37
		c-0.98,1.65-1.15-0.01-2.46,4.17c-1.31,4.17-2.01,12.71-3.3,15.45c-1.28,2.74-7.56,10.64-7.99,13.06
		c-0.43,2.42,0.22,5.24,1.23,6.46c1.01,1.22,1.51,2.47,2.01,2.53c0.51,0.06-0.22,0,0.51,0.06C62.37,69.34,65.6,69.64,65.6,69.64z"/>
	<path class="st1" d="M47.8,31.83c-0.39-0.24-4.84-0.87-6.14-0.58c-1.3,0.29-5.65,1.92-6.37,2.98c-0.71,1.06-3.86,3.47-4.49,5.31
		c-0.63,1.83-0.53,4.56,0.33,6.27c0.86,1.72,10.85,13,11.15,13.03c0.3,0.03,4.57,9.03,4.57,9.03s1.81,2.52,2.07,1.93
		c0.26-0.59,0.23-18.64,0.26-18.98s-1.96-8.51-1.96-9.54C47.2,40.27,47.8,31.83,47.8,31.83z"/>
	<path class="st2" d="M47.58,69.78c1.23-3,0.3-5.34-0.62-8.65c-0.18,0.25-0.42,0.54-0.73,0.85c0.79,2.16,1.2,3.97,1.23,4.63
		C47.49,67.01,47.53,68.2,47.58,69.78z"/>
	<path class="st3" d="M60.82,63.97c-0.35-1.67,0.88-3.91,1.28-4.89c0.4-0.99,4.87-8.24,5.39-10.44c0.52-2.2-1.08,1.64-2.09,3.73
		c-1.02,2.09-3.53,4.85-5.56,6.81c-2.03,1.96-1.59,0.03-1.31-0.53c0.28-0.56,1.33-2.25,1.49-3.55c0.16-1.3,0.86-4.73,1.26-6.84
		c0.4-2.11,0.33-10,0.33-10s-1.62,5.17-2.33,7.05s-0.97,9.43-1.82,10.88c-0.85,1.45-0.78,0.65-0.86-0.08
		c-0.08-0.73-0.17-1.96,0.31-3.24c0.48-1.29-0.71-7.13-1.23-9.12c-0.53-1.99-0.67-3.75-0.82-3.25s0.2,7.59,0.58,10.09
		c0.38,2.49-0.54,6.81-0.76,8.01c-0.22,1.21-1.36,0.28-1.66-1.9c-0.31-2.18-0.69-2.42-2.38-4.93c-1.69-2.51,0.24,2.68,1.01,6.44
		c0.77,3.76-0.01,2.25-0.99,4c-0.98,1.75-0.59-0.26-2-1.62c-1.01-0.98-0.95-0.48-1.69,0.55c0.92,3.31,1.84,5.65,0.62,8.65
		c0.14,3.95,0.38,10.32,0.73,12.77c0.49,3.42,6.61,4.82,7.16,5.49l2.36,2.09c0.18,0.01,0.35,0.02,0.51,0.03
		c1.73,0.06,4.42-1.32,5.25-2.47c0.83-1.15,1.48-10.5,1.18-11.35c-0.3-0.85-2.53-6.79-2.77-8.55c-0.08-0.57-0.09-1.11-0.03-1.62
		c-0.34,0.02-0.53,0.04-0.53,0.04S61.18,65.65,60.82,63.97z"/>
	<path class="st4" d="M73.35,43.06c0.92-5.44-3.78-14.07-10-18.65c-6.22-4.58-12.83-0.7-15.62,1.69c-2.79,2.4-5.64,14.1-5.31,17.1
		c0.33,3,3.34,13.32,4.32,17.09c0.07,0.29,0.15,0.57,0.22,0.84c0.74-1.03,0.68-1.53,1.69-0.55c1.41,1.36,1.01,3.37,2,1.62
		c0.98-1.75,1.76-0.24,0.99-4c-0.77-3.76-2.7-8.96-1.01-6.44c1.69,2.51,2.08,2.76,2.38,4.93c0.31,2.18,1.45,3.11,1.66,1.9
		c0.22-1.21,1.14-5.52,0.76-8.01c-0.38-2.49-0.73-9.59-0.58-10.09s0.29,1.26,0.82,3.25c0.53,1.99,1.71,7.84,1.23,9.12
		c-0.48,1.29-0.39,2.51-0.31,3.24c0.08,0.73,0.01,1.53,0.86,0.08c0.85-1.45,1.1-9,1.82-10.88s2.33-7.05,2.33-7.05s0.07,7.89-0.33,10
		c-0.4,2.11-1.1,5.54-1.26,6.84c-0.16,1.3-1.21,2.99-1.49,3.55c-0.28,0.56-0.72,2.49,1.31,0.53c2.03-1.96,4.54-4.72,5.56-6.81
		c1.02-2.09,2.61-5.93,2.09-3.73c-0.52,2.2-4.99,9.46-5.39,10.44c-0.4,0.99-1.64,3.22-1.28,4.89c0.35,1.67,0.61,2.21,0.61,2.21
		s0.19-0.01,0.53-0.04c0.13-1.06,0.61-2.03,1.6-3.04C65.04,61.61,72.42,48.49,73.35,43.06z"/>
	<path class="st5" d="M45.72,62.69c0.27-0.16,0.5-0.31,0.7-0.47c-0.58-2.68-1.62-5.94-3.31-8.44c-3.1-4.59-7.25-10.07-9.22-13.26
		c-1.97-3.19-3.84-6.35-4.68-8.12c-0.84-1.77-1.1-2.88-2.11-3.01c-1.02-0.14-1.49-0.35-2.53,0.97c-1.05,1.32-2.43,6.75-1.68,9.34
		c0.75,2.59,1.67,8.46,5.34,13.3s5.36,8.28,9.09,9.79c2.53,1.03,4.57,1.07,5.8,1.46C43.81,63.89,44.39,63.47,45.72,62.69z"/>
	<path class="st6" d="M58.07,87.67c0,0,4.11-1.25,4.87-2.81s-0.76-15.73,0.09-16.06c0.85-0.33,1.75-0.14,2.03,0.19
		c0.28,0.33,0.51-0.01,0.61,1.15c0.09,1.17,0.63,14.93,0.38,16.55s-1.18,5.93-3.31,5.73c-2.13-0.21-3.52-0.64-4.3-1.03
		c-0.78-0.38-2.3-0.99-3.1-0.85c-0.8,0.13-2.51,0.42-2.51,0.42s-0.86-0.45,0.61-1.4C54.91,88.59,56.3,88.32,58.07,87.67z"/>
	<path class="st7" d="M51.89,89.13c-1.38-0.54-3.05-2.34-3.82-2.92c-0.76-0.58-1.1-1.33-1.1-1.33c-0.03-1.85-0.72-11.84,0.61-15.09
		c0,0,0,0,0-0.01c-0.05-1.57-0.09-2.77-0.11-3.18c-0.03-0.66-0.44-2.46-1.23-4.63c-0.18,0.18-0.39,0.37-0.63,0.56
		c-1.21,0.95-1.73,1.45-2.36,1.91c0.6,0.1,1.04,0.31,1.29,0.76c0.79,1.41,1.19,1.44,1.24,2.06c0.04,0.62-1.64,15.2-1.72,16.01
		c-0.08,0.81-0.1,4.26,0.69,5.63c0.79,1.37,5.08,2.59,6.54,2.32c1.46-0.27,6.55-1.1,6.55-1.1l0,0
		C56.02,90.01,53.15,89.62,51.89,89.13z"/>
	<path class="st8" d="M48.32,82.54c-0.35-2.45-0.6-8.81-0.73-12.77c0,0,0,0,0,0.01c-1.33,3.25-0.64,13.24-0.61,15.09
		c0,0,0.34,0.75,1.1,1.33c0.76,0.58,2.44,2.38,3.82,2.92c1.26,0.49,4.13,0.88,5.95,0.99l-2.36-2.09
		C54.92,87.37,48.81,85.97,48.32,82.54z"/>
</g>
</svg>
