<?xml version="1.0" encoding="utf-8"?>
<!-- Generator: Adobe Illustrator 23.1.1, SVG Export Plug-In . SVG Version: 6.00 Build 0)  -->
<svg version="1.1" id="Layer_1" xmlns="http://www.w3.org/2000/svg" xmlns:xlink="http://www.w3.org/1999/xlink" x="0px" y="0px"
	 viewBox="0 0 108 108" style="enable-background:new 0 0 108 108;" xml:space="preserve">
<style type="text/css">
	.st0{fill:#8AA876;}
	.st1{fill:#94A65D;}
	.st2{fill:#C4D683;}
	.st3{fill:#9CBA60;}
	.st4{fill:#8BA756;}
	.st5{fill:#7FA347;}
	.st6{fill:#759457;}
	.st7{fill:#8BA947;}
	.st8{fill:#6E8B52;}
	.st9{fill:#94AE78;}
	.st10{fill:#81A05F;}
</style>
<g>
	<path class="st0" d="M39.86,29.35c-0.68-0.09-3.41,0.77-3.92-0.85s-1.53-2.64,0-4.17c1.53-1.53,2.13-1.79,3.92-2.38
		s3.92-1.11,4.85-1.36c0.94-0.26,0.26-0.26,1.87,0s2.77-0.05,3.32,0.6c0.55,0.65,1.53,2.55,1.53,3.06s-0.43,0.34-3.24,1.79
		s-4.64,1.96-4.92,2.21c-0.28,0.26-0.19,0.17-0.79,0.6S39.86,29.35,39.86,29.35z"/>
	<path class="st1" d="M46.82,29.31c0,0-7.58,0.43-8,0c-0.43-0.43-2.13-2.21-4-2.13c-1.87,0.09-3.66,0.36-4.51,1.16
		c-0.85,0.8-2.72,0.97-3.58,1.57s-1.53,0.94-1.87,2.13c-0.34,1.19-0.26,1.87-0.94,2.47c-0.68,0.6-1.36,1.28-1.79,2.04
		c-0.43,0.77-1.11-0.09-0.6,1.79c0.51,1.87,0.94,1.96,0.94,2.98s0,1.7,1.11,2.3c1.11,0.6,1.36,0.94,2.38,1.11
		c1.02,0.17,1.7,0.17,2.9,0.43c1.19,0.26,1.96,1.02,2.9,0c0.94-1.02,2.21-2.64,3.92-3.66c1.7-1.02,2.13-1.02,3.07-2.81
		s1.11-3.83,1.11-3.83s1.1-0.6,1.61-0.85s0.76-0.44,1.58-1.19S46.82,29.31,46.82,29.31z"/>
	<path class="st2" d="M39.01,56.57c0,0,6.22,12.8,6.13,13.32c-0.09,0.51,0.68,4.6,0.68,5.02c0,0.43-0.6,2.21-0.68,3.41
		c-0.09,1.19-0.17,2.38,0,2.81c0.17,0.43,0.26,1.36,0,2.72c-0.26,1.36,0.09,2.64,0,3.58c-0.09,0.94,0.09,3.58-0.43,4.17
		c-0.51,0.6-1.39,1.02-0.44,1.87c0.95,0.85,2.99,1.96,4.61,2.21s5.71,0.6,8.26,0c2.55-0.6,3.75-1.19,3.87-2.64
		c0.13-1.45-0.81-5.79-1.06-7.24c-0.26-1.45-0.34-6.22-0.43-6.56c-0.09-0.34-0.26-3.58,0.09-5.62c0.34-2.04,1.11-4.26,1.4-5.88
		s1.15-3.66,1.32-4s0.77-3.32,0.77-3.32s-2.68-4.26-4.83-4.77s-10.16-1.7-10.16-1.7h-5.53L39.01,56.57z"/>
	<path class="st3" d="M43.87,55.83c-0.14,0.26,3.66,8,3.83,8.51c0.17,0.51,1.02,1.79,1.02,1.79s1.45,3.83,1.62,4.77
		s-0.51,1.45,0,3.15s0.72,3.15,0.72,3.15s0.38-5.45,0-7.07c-0.38-1.62-0.55-5.86-0.47-7.02c0.09-1.15,0.77-2.86,0.47-3.8
		s0.47-3.06-1.58-3.48c-2.04-0.43-2.98-0.85-3.32-0.77C45.82,55.15,43.87,55.83,43.87,55.83z"/>
	<path class="st4" d="M59.27,57.62c0,0-0.89,5.79-1,6.98c-0.11,1.19,0.28,3.24,0,3.66c-0.28,0.43,0.49,2.38,0.49,2.38
		s0.08-1.36,0.51-2.47c0.43-1.11,0.94-3.49,1.28-4.04c0.34-0.55,0.69-2.25,1.49-3.18c0.8-0.94,2.86-0.86,1.75-2.56
		c-1.11-1.7-2.27-3.6-2.63-3.33S59.27,57.62,59.27,57.62z"/>
	<path class="st5" d="M46.5,77.8c0,0,0.85,0.68,1.62,0.51c0.77-0.17,1.62,0.03,1.62,0.03s-1.4,0.82-2.19,1.68s-1.73,1.02-1.81,0.68
		C45.65,80.35,45.78,77.39,46.5,77.8z"/>
	<path class="st6" d="M37.14,41.02c-2.13,0.26-2.47,0.17-3.15,0.94s-1.36,0.94-2.38,1.87c-1.02,0.94-2.09,1.62-2.19,2.47
		c-0.1,0.85-0.15,1.45,0,3.32c0.15,1.87-0.96,2.55,0.58,4.26c1.53,1.7,2.21,2.23,3.49,2.69c1.28,0.46,2.72,0.29,3.66,0.46
		s0.26,0.77,1.45,1.19c1.19,0.43,1.19-0.09,2.04,0c0.85,0.09,0.94,0,2.13-0.85c1.19-0.85,2.3-4.51,2.98-5.96s2.21-2.47,0.94-4.68
		c-1.28-2.21-0.62-3.32-2.4-4.34c-1.78-1.02-3.05-1.36-3.05-1.36H37.14z"/>
	<path class="st7" d="M61.57,41.02c-0.09-0.85-0.85-5.19-0.43-6.98s1.19-4,2.64-4.77c1.45-0.77,3.66-1.79,5.11-1.79
		c1.45,0,3.66-0.68,5.02,0c1.36,0.68,3.92,2.72,4.6,3.41c0.68,0.68-0.34,0.51,1.11,2.3c1.45,1.79,1.87,2.3,1.96,3.83
		c0.09,1.53,0.17,2.81,0.77,4s1.02,3.15,0.94,4.34c-0.09,1.19,0.6,1.62-0.68,2.81s-0.88,1.53-2.18,1.53s-2.75,0.17-3.61,0
		s-1.19-0.53-2.21,0.08s-0.94,0.35-3.75-1.61c-2.81-1.96-4-2.81-5.71-3.83c-1.7-1.02-1.62-1.11-2.38-1.62
		C62,42.21,61.57,41.02,61.57,41.02z"/>
	<path class="st8" d="M67.87,29.18c-0.34-0.68-2.43-3.49-3.6-4.26c-1.17-0.77-3.04-1.28-5.09-1.62c-2.04-0.34-2.21,0.32-3.75-0.69
		c-1.53-1.01-1.62-1.78-3.24-1.27c-1.62,0.51-1.7,0.17-3.32,1.62c-1.62,1.45-0.09,0.43-3.49,1.79c-3.41,1.36-2.04,0.34-4.04,1.87
		c-2,1.53-3.7,2.47-3.19,3.66c0.51,1.19,1.28,2.38,3.19,2.9c1.91,0.51,3.87,0.34,4.98,1.79c1.11,1.45-0.26,1.51,2.64,3.65
		c2.9,2.14,2.49,2.39,4.48,2.9s0.54,1.03,3.86,0.35c3.32-0.68,5.88-1.38,6.56-2.69c0.68-1.31,0.94-2.42,1.62-3.61
		s1.62-2.04,1.87-3.15C67.62,31.31,67.87,29.18,67.87,29.18z"/>
	<path class="st9" d="M53.58,35.22c0.34,0.77,0.51,0.85,0.85,1.36s0.68,2.13,0.68,2.13s-0.68,2.04-1.3,3.33
		c-0.62,1.29-1,0.95-1.85,1.18c-0.85,0.24-2.21,0.68-2.66,0.94c-0.44,0.26-2.71,1.36-4.92,2.3c-2.21,0.94-2.21,0.17-3.24,0
		c-1.02-0.17-3.07-2.47-3.58-3.24c-0.51-0.77-0.94-3.41-1.19-5.36c-0.26-1.96,0.26-2.47,0.89-4.09c0.64-1.62,1.58-1.11,3.27-1.7
		c1.69-0.59,3.93-0.69,6.31-0.6c1.75,0.06,3.14,0.95,3.88,1.49c0.27,0.19,0.46,0.34,0.55,0.39L53.58,35.22z"/>
	<path class="st10" d="M48.63,43.4c-0.85,0.51-3.17,0.51-4.35,2.55C43.1,48,41.82,50.47,41.73,52c-0.09,1.53-1.11,2.9,0.6,4.17
		c1.7,1.28,2.04,2.39,3.83,2.22s2.47-0.94,3.75,0s1.11,1.11,2.38,1.62c1.28,0.51,0.51,0.51,2.21,0.6c1.7,0.09,0.68,0.94,2.72,0
		c2.04-0.94,4-1.7,4.26-0.68c0.26,1.02,1.79,2.64,3.32,2.72c1.53,0.09,1.79,1.02,3.24,0c1.45-1.02,3.07-1.62,4.43-4.26
		s3.32-8.52,2.55-10.65c-0.77-2.13-2.21-4.34-4.43-5.45s-4.6-1.53-7.07-2.04c-2.47-0.51-3.02-1.28-5.26-1.02
		c-2.24,0.26-2.24-0.26-3.34,1.02c-1.11,1.28-1.45,1.45-2.9,1.45s-2.04,0-2.21,0.26C49.65,42.21,48.63,43.4,48.63,43.4z"/>
</g>
</svg>
