<?xml version="1.0" encoding="utf-8"?>
<!-- Generator: Adobe Illustrator 23.1.1, SVG Export Plug-In . SVG Version: 6.00 Build 0)  -->
<svg version="1.1" id="Layer_1" xmlns="http://www.w3.org/2000/svg" xmlns:xlink="http://www.w3.org/1999/xlink" x="0px" y="0px"
	 viewBox="0 0 108 108" style="enable-background:new 0 0 108 108;" xml:space="preserve">
<style type="text/css">
	.st0{fill:#749C3F;}
	.st1{fill:#7B923A;}
	.st2{fill:#ABC379;}
	.st3{fill:#99CB49;}
	.st4{fill:#B8D547;}
	.st5{fill:#A4B140;}
	.st6{fill:#A1D072;}
	.st7{fill:#84AF40;}
	.st8{fill:#94BB5B;}
	.st9{fill:#7EA446;}
	.st10{fill:#66933E;}
	.st11{fill:#466C33;}
	.st12{fill:#7DA263;}
	.st13{fill:#DAE68F;}
	.st14{fill:#BBCA7E;}
</style>
<g>
	<g>
		<path class="st0" d="M59.48,30.11c-1.26,0.48-3.4,2-3.4,2s-0.35,0.34-0.76,0.83c-0.21,0.27-0.79,1.22-1.06,1.95
			c-0.09,0.24-0.14,0.46-0.13,0.62c0.24,1.28-0.64,1.04,0.9,2.26c1.54,1.22,3.56,0.82,5.01,2.19c1.45,1.37,2.17,2.66,3.65,3.26
			c0.41,0.17,0.93,0.44,1.47,0.74c0.66,0.37,1.36,0.79,1.96,1.13c0.66,0.37,1.2,0.65,1.45,0.68c0.66,0.07,2.11,0.09,2.77,0.29
			c0.29,0.09,0.57,0.32,0.78,0.43c0.26,0.15,0.41,0.11,0.31-0.62c-0.18-1.31-1.5-3.93-2.2-5.92c-0.71-1.98-3.87-5.88-4.45-6.85
			c-0.58-0.97-0.74-1.98-2.4-2.6C61.71,29.88,60.75,29.63,59.48,30.11z"/>
		<path class="st1" d="M54.17,34.93c0.16-0.67,0.69-1.43,1.15-1.99c0,0,0.01-0.01,0.01-0.01c0.27-0.34-0.83-0.23-1.49,0.24
			c-0.66,0.46-1.55,1.05-2.64,2.04c-0.55,0.49-0.92,1.32-1.15,2.03c0.28-0.29,0.52-0.52,0.68-0.67
			C50.74,36.57,52.72,35.48,54.17,34.93z"/>
		<path class="st2" d="M50.74,36.57c-0.16,0.15-0.4,0.38-0.68,0.67c-1.41,1.45-4,4.46-5.02,6.94c-1.22,2.99-1.42,5.63-0.37,7.94
			c0.71,1.57,1.94,3.53,2.94,4.86c1.99,0.39,4.41,0.82,5.19,0.77c1.4-0.08,2.87-1.07,3.4-1.09c0.25-0.01,0.57,0.35,0.88,0.79
			c0.65-0.23,1.29-0.44,1.6-0.53c0.78-0.22,3.04-0.76,3.67-0.57c0.35,0.1,1.12-0.02,1.66,0.03c0.27-0.47,0.44-0.96,0.12-1.63
			c-0.61-1.28-0.7-1.9-0.5-3.09c0.2-1.19,0.3-2.17,0.74-4.25c0.44-2.08,0.88-2.11,0.8-2.73c-0.02-0.16-0.02-0.41,0-0.7
			c-0.54-0.3-1.05-0.57-1.47-0.74c-1.48-0.61-2.2-1.9-3.65-3.26c-1.45-1.37-3.47-0.97-5.01-2.19c-1.54-1.22-0.66-0.98-0.9-2.26
			c-0.03-0.18-0.02-0.37,0.03-0.58C52.72,35.48,50.74,36.57,50.74,36.57z"/>
		<path class="st3" d="M54.27,34.9c0.26-0.73,0.85-1.68,1.06-1.95c-0.47,0.56-1,1.32-1.15,1.99C54.21,34.92,54.24,34.91,54.27,34.9z
			"/>
		<path class="st3" d="M54.14,35.51c-0.01-0.16,0.04-0.38,0.13-0.62c-0.03,0.01-0.07,0.02-0.1,0.04
			C54.12,35.14,54.11,35.33,54.14,35.51z"/>
		<polygon class="st3" points="59.03,61.65 59.03,61.65 59.03,61.65 		"/>
		<path class="st4" d="M60.34,59.82c0.91-0.59,2.71-1.09,2.97-2.12c0.12-0.49,0.46-0.9,0.7-1.32c-0.55-0.06-1.31,0.07-1.66-0.03
			c-0.63-0.18-2.88,0.35-3.67,0.57c-0.32,0.09-0.95,0.31-1.6,0.53c0.34,0.48,0.66,1.07,0.87,1.37c0.4,0.57,1.08,2.84,1.08,2.84l0,0
			C59.32,61.02,59.79,60.17,60.34,59.82z"/>
		<path class="st5" d="M65.17,43.97c-0.02,0.29-0.01,0.54,0,0.7c0.07,0.62-0.36,0.65-0.8,2.73c-0.44,2.08-0.54,3.06-0.74,4.25
			c-0.2,1.19-0.11,1.81,0.5,3.09c0.32,0.67,0.15,1.16-0.12,1.63c-0.25,0.43-0.58,0.83-0.7,1.32c-0.26,1.04-2.06,1.53-2.97,2.12
			c-0.55,0.35-1.02,1.2-1.31,1.83c-0.19,0.42-0.31,0.74-0.31,0.74s1.16,0.01,2.07-0.08c0.42-0.04,0.79-0.11,0.96-0.22
			c0.53-0.33,1.56,0.02,3.02-0.21c1.47-0.23,2.38-0.97,3.21-1.64c0.83-0.67,3.24-3.39,3.4-4.13s0.94-4,1.33-6.29
			c0.39-2.28-0.02-2.01-0.38-2.88c-0.05-0.12-0.12-0.27-0.2-0.43c-0.21-0.11-0.49-0.34-0.78-0.43c-0.66-0.2-2.1-0.22-2.77-0.29
			c-0.25-0.03-0.79-0.31-1.45-0.68C66.53,44.76,65.83,44.34,65.17,43.97z"/>
		<path class="st6" d="M52.8,57.74c-0.78,0.05-3.19-0.38-5.19-0.77c0.48,0.63,0.91,1.12,1.2,1.35c0.72,0.55,3.57,1.74,5.26,2.39
			c0.46,0.18,0.84,0.32,1.06,0.39c0.92,0.3,2.42,0.72,3.9,0.55c0,0-0.68-2.26-1.08-2.84c-0.21-0.3-0.53-0.88-0.87-1.37
			c-0.31-0.44-0.63-0.8-0.88-0.79C55.67,56.67,54.2,57.66,52.8,57.74z"/>
		<polygon class="st3" points="59.03,61.65 59.03,61.65 59.03,61.65 		"/>
	</g>
	<g>
		<path class="st7" d="M57.97,56.09c-0.7-1.39-2.7-3.66-2.7-3.66s-0.44-0.36-1.05-0.77c-0.34-0.21-1.5-0.77-2.36-0.98
			c-0.29-0.07-0.54-0.1-0.72-0.08c-1.44,0.43-1.27-0.61-2.49,1.3c-1.22,1.92-0.52,4.18-1.92,6.01c-1.39,1.83-2.79,2.81-3.31,4.57
			c-0.15,0.5-0.4,1.12-0.68,1.77c-0.35,0.8-0.75,1.65-1.07,2.39c-0.35,0.8-0.61,1.45-0.61,1.74c0,0.77,0.15,2.43,0,3.21
			c-0.07,0.34-0.29,0.69-0.4,0.95c-0.14,0.32-0.08,0.48,0.75,0.28c1.48-0.36,4.33-2.19,6.52-3.23c2.19-1.05,6.28-5.14,7.33-5.92
			c1.05-0.78,2.18-1.08,2.7-3.07C58.49,58.62,58.66,57.48,57.97,56.09z"/>
		<path class="st1" d="M51.8,50.57c0.79,0.1,1.72,0.62,2.42,1.09c0,0,0.01,0.01,0.02,0.01c0.42,0.27,0.16-0.98-0.45-1.68
			c-0.61-0.7-1.39-1.66-2.65-2.79c-0.63-0.57-1.63-0.9-2.46-1.08c0.37,0.29,0.66,0.53,0.85,0.7C49.52,46.82,51,48.97,51.8,50.57z"/>
		<path class="st8" d="M49.52,46.82c-0.19-0.17-0.48-0.41-0.85-0.7c-1.83-1.44-5.59-4.06-8.56-4.93c-3.57-1.05-6.62-0.96-9.15,0.52
			c-1.71,1-3.82,2.64-5.22,3.95c-0.21,2.33-0.41,5.15-0.27,6.04c0.26,1.6,1.57,3.16,1.66,3.77c0.04,0.29-0.33,0.7-0.8,1.1
			c0.34,0.72,0.66,1.42,0.8,1.77c0.35,0.87,1.23,3.4,1.09,4.14c-0.08,0.41,0.16,1.28,0.16,1.91c0.57,0.26,1.15,0.39,1.88-0.05
			c1.39-0.86,2.09-1.03,3.49-0.94c1.39,0.09,2.53,0.09,4.97,0.35c2.44,0.26,2.53,0.75,3.22,0.59c0.18-0.04,0.47-0.08,0.8-0.09
			c0.28-0.65,0.53-1.28,0.68-1.77c0.52-1.77,1.92-2.74,3.31-4.57c1.39-1.83,0.7-4.1,1.92-6.01c1.22-1.92,1.05-0.87,2.49-1.3
			c0.2-0.06,0.43-0.06,0.67-0.03C51,48.97,49.52,46.82,49.52,46.82z"/>
		<path class="st3" d="M51.85,50.68c0.87,0.21,2.03,0.77,2.36,0.98c-0.7-0.47-1.63-0.99-2.42-1.09
			C51.82,50.61,51.84,50.64,51.85,50.68z"/>
		<path class="st3" d="M51.13,50.6c0.18-0.03,0.44,0,0.72,0.08c-0.02-0.04-0.04-0.07-0.05-0.11C51.56,50.54,51.33,50.54,51.13,50.6z
			"/>
		<polygon class="st3" points="21.73,59.32 21.73,59.32 21.73,59.32 		"/>
		<path class="st4" d="M23.99,60.6c0.78,0.98,1.57,2.98,2.79,3.15c0.58,0.08,1.08,0.42,1.6,0.65c0-0.64-0.23-1.5-0.16-1.91
			c0.14-0.74-0.75-3.27-1.09-4.14c-0.14-0.35-0.46-1.06-0.8-1.77c-0.52,0.45-1.15,0.89-1.47,1.16c-0.61,0.52-3.13,1.57-3.13,1.57
			l0,0C22.48,59.58,23.52,60.02,23.99,60.6z"/>
		<path class="st9" d="M42.74,64.26c-0.33,0.01-0.63,0.05-0.8,0.09c-0.7,0.16-0.78-0.33-3.22-0.59c-2.44-0.26-3.57-0.26-4.97-0.35
			c-1.39-0.09-2.09,0.09-3.49,0.94c-0.73,0.45-1.32,0.31-1.88,0.05c-0.52-0.23-1.02-0.57-1.6-0.65c-1.22-0.17-2-2.18-2.79-3.15
			c-0.47-0.58-1.5-1.02-2.26-1.28c-0.5-0.17-0.88-0.27-0.88-0.27s0.12,1.34,0.34,2.37c0.1,0.48,0.22,0.9,0.37,1.08
			c0.45,0.57,0.16,1.79,0.6,3.44c0.44,1.66,1.39,2.61,2.27,3.49c0.87,0.87,4.27,3.31,5.14,3.41c0.87,0.1,4.71,0.6,7.37,0.78
			s2.3-0.26,3.26-0.78c0.13-0.07,0.29-0.17,0.47-0.28c0.11-0.25,0.34-0.6,0.4-0.95c0.15-0.78,0-2.44,0-3.21
			c0-0.29,0.26-0.94,0.61-1.74C41.99,65.92,42.39,65.07,42.74,64.26z"/>
		<path class="st6" d="M25.47,51.7c-0.15-0.89,0.06-3.71,0.27-6.04c-0.67,0.62-1.18,1.17-1.4,1.54c-0.55,0.89-1.58,4.3-2.12,6.32
			c-0.15,0.55-0.26,1-0.32,1.26c-0.23,1.09-0.53,2.87-0.16,4.54c0,0,2.52-1.05,3.13-1.57c0.32-0.27,0.95-0.72,1.47-1.16
			c0.47-0.4,0.84-0.81,0.8-1.1C27.04,54.87,25.73,53.3,25.47,51.7z"/>
		<polygon class="st3" points="21.73,59.32 21.73,59.32 21.73,59.32 		"/>
	</g>
	<g>
		<path class="st10" d="M63.82,46.49c0,0-3.43-0.1-4.65,0.5s-8.08,5.55-9.8,7.07s-4.34,5.86-4.34,6.87s-0.3,4.95-0.91,5.76
			s-1.21,1.92-1.41,2.22c-0.2,0.3-0.61,1.01-0.91,1.72c-0.3,0.71,2.93-0.81,4.75,0s2.42,8.99,2.42,8.99s7.88,2.93,10,2.73
			s8.48,0.2,9.8-0.5c1.31-0.71,5.35-2.42,7.37-4.24s4.3-4.24,5.96-7.47c1.66-3.23,1.01-9.14,0.33-12.12
			C81.7,54.77,76.24,44.47,63.82,46.49z"/>
		<path class="st11" d="M56.05,76.88c0,0,3.25,1.92,5.01,1.51c1.76-0.4,3.17-0.81,3.27-2.02c0.1-1.21,0.61-3.94-0.4-4.04
			c-1.01-0.1-1.5-0.61-2.87,0c-1.37,0.61-2.58,1.62-2.78,1.92C58.07,74.56,56.05,76.88,56.05,76.88z"/>
		<path class="st12" d="M49.69,64.29c1.92-1.74,0.5-1.74,5.15-4.57s1.72-4.24,6.26-3.64s4.78,1.37,7.98,2.12s5.46,2.02,5.76,3.64
			c0.3,1.62,0.26,5.45,0,7.27c-0.26,1.83-0.71,3.74-1.72,5.66c-1.01,1.92-3.53,5.66-5.85,5.96c-2.32,0.3-3.63,0.81-4.89,0.5
			c-1.27-0.3-1.25-1.51-1.31-2.83c-0.06-1.31-1.37-4.85-2.89-5.86s-2.33-1.51-4.09-2.83C52.31,68.4,49.69,64.29,49.69,64.29z"/>
		<path class="st13" d="M40.9,68.6c0,0,2.93,1.01,3.94-0.61s2.12-7.78,3.64-9.59s3.03-4.65,4.24-5.55s3.23-1.11,3.74-1.41
			s0,0.81-1.01,2.12s-3.33,4.75-3.64,5.76s-0.91,2.12-0.2,3.23s1.41,0.91,1.82,2.32s0.2,1.82,1.11,2.22s0.9,1.92,2.12-0.1
			c1.22-2.02,1.72-1.82,0.41-3.84c-1.31-2.02-1.82-2.93-1.51-3.74s0.2-2.12,0.91-0.3s1.62,2.83,1.82,3.43s0.2,3.33,0.5,2.73
			s0.1-4.13,0-4.94c-0.1-0.81,0.16-2.43,0.16-2.43s0.85-0.4,0.95,1.62s-0.4,2.02,0,3.84c0.4,1.82-0.1,4.95,0.91,1.92
			s2.42-3.07,2.12-5.12s-1.51-3.16-1.82-4.07s-0.4-1.92,0.4-0.91s0.99,1.82,1.46,0.61c0.46-1.21,0.77-2.32,0.97-3.74
			c0.2-1.41,0.4-3.33,0-3.64c-0.4-0.3,1.21,0.1,1.21,2.12s-0.61,5.55-0.91,7.47c-0.3,1.92,0,3.53-0.2,5.05
			c-0.2,1.51-1.56,3.53-1.56,3.53s1.86-1.31,3.78-2.73c1.92-1.41,3.84-2.21,4.54-3.53c0.71-1.32,0.91-4.25,1.01-6.06
			c0.1-1.82-0.61-3.64,0-4.14s1.71-0.4,1.31,0.4c-0.4,0.81-0.5,3.03-0.5,3.84s-0.1,1.62-0.1,2.63S72,60.32,72,60.32
			s2.12-1.11,3.13-2.23s3.03-3.03,3.03-3.03s-5.45,6.67-5.76,6.97c-0.3,0.3-0.81,1.31-0.81,1.31s0.91-0.91,2.83-1.01
			c1.92-0.1,5.25-0.2,5.25-0.2s-7.17,2.07-7.47,2.15c-0.3,0.07-2.02,1.89-2.73,2.2c-0.71,0.3,5.86-0.3,7.57-0.3
			c1.72,0,4.34,0.2,4.34,0.2S71.2,68.1,70.08,68.3c-1.11,0.2-2.63,1.41-2.63,1.41s1.51-1.11,3.64,0c2.12,1.11,8.08,2.32,8.08,2.32
			s-4.54,0.2-6.87,0c-2.32-0.2-4.65,0.09-4.65,0.09s2.93,0.42,3.94,1.53c1.01,1.11,2.32,3.13,1.51,2.83
			c-0.81-0.3-3.13-1.21-3.73-1.62s-2.52-1.72-2.52-1.11s0.4,2.76,0.4,2.76s-0.4,2.09-0.91,2.7c-0.5,0.61-1.41,0.61-1.41-0.5
			c0-1.11-0.71-1.82-1.62-1.51c-0.91,0.3-1.72,0.2-1.41-0.61s1.83-2.83,0.56-2.32c-1.27,0.5-5.51,4.04-6.22,4.44
			s-3.94,2.22-4.75,2.83s-1.82,1.53-3.53,0.82c-1.72-0.72-4.44-4.76-5.15-5.87C42.11,75.37,40.09,69.91,40.9,68.6z"/>
		<path class="st14" d="M52.19,69.86c0,0-3.53,0.81-3.43,1.62s0.05,1.59,0.93,3.77s0.78,4.89,0.78,4.89s1.84-1.5,3.55-3.21
			c1.7-1.72,3.17-2.11,4.25-2.67c1.09-0.56,4.22-0.96,5.53-1.37s4.34-1.41,2.12-1.82s-3.57,0.4-3.45-0.71c0.12-1.11,1.5-2.06,0-1.73
			c-1.5,0.32-1.74,0.49-2.17,0c-0.44-0.49-0.84-0.83-1.85,0c-1.01,0.83-0.35,1.53-2.4,1.03c-2.04-0.5-1.87,0.27-3.12-1.03
			c-1.25-1.3-1.35-2.61-1.85-2S52.49,68.85,52.19,69.86z"/>
	</g>
</g>
</svg>
