<?xml version="1.0" encoding="utf-8"?>
<!-- Generator: Adobe Illustrator 23.1.1, SVG Export Plug-In . SVG Version: 6.00 Build 0)  -->
<svg version="1.1" id="Layer_1" xmlns="http://www.w3.org/2000/svg" xmlns:xlink="http://www.w3.org/1999/xlink" x="0px" y="0px"
	 viewBox="0 0 108 108" style="enable-background:new 0 0 108 108;" xml:space="preserve">
<style type="text/css">
	.st0{fill:#549756;}
	.st1{fill:#5C8748;}
	.st2{fill:#7E954C;}
	.st3{fill:#6E9649;}
	.st4{fill:#7FA84A;}
	.st5{fill:#8BAE55;}
	.st6{fill:#AFBF79;}
	.st7{fill:#66933E;}
	.st8{fill:#84A63E;}
	.st9{fill:#DBE2C9;}
</style>
<g>
	<path class="st0" d="M33.06,48.65c0.05,0.01,0.09,0.01,0.14,0.02c0.03,0,0.06,0.01,0.09,0.02c0.04,0.01,0.08,0.01,0.12,0.02
		c0.03,0.01,0.07,0.01,0.1,0.02c0.03,0.01,0.07,0.01,0.1,0.02c0.04,0.01,0.07,0.02,0.11,0.03c0.03,0.01,0.06,0.02,0.09,0.03
		c0.04,0.01,0.08,0.02,0.11,0.03c0.03,0.01,0.06,0.02,0.09,0.03c0.04,0.01,0.08,0.03,0.12,0.04c0.03,0.01,0.05,0.02,0.08,0.03
		c0.04,0.02,0.08,0.03,0.12,0.05c0.02,0.01,0.05,0.02,0.07,0.03c0.04,0.02,0.08,0.04,0.12,0.06c0.02,0.01,0.04,0.02,0.06,0.03
		c0.04,0.02,0.08,0.04,0.13,0.06c0.02,0.01,0.04,0.02,0.05,0.03c0.04,0.02,0.09,0.05,0.13,0.07c0.02,0.01,0.03,0.02,0.05,0.03
		c0.04,0.03,0.09,0.05,0.13,0.08c0.01,0.01,0.03,0.02,0.04,0.03c0.04,0.03,0.09,0.06,0.13,0.09c0.01,0.01,0.02,0.01,0.03,0.02
		c0.05,0.03,0.09,0.07,0.13,0.1c0.01,0.01,0.01,0.01,0.02,0.02c0.05,0.04,0.09,0.07,0.14,0.11c0,0,0.01,0.01,0.01,0.01
		c0.05,0.04,0.09,0.08,0.14,0.13c0,0,0,0,0,0c1.08-0.99,2.26-1.86,3.52-2.58c0,0,0,0,0,0c0.63-0.4,1.28-0.76,1.95-1.08
		c0.01,0,0.01-0.01,0.02-0.01c0.15-0.07,0.31-0.15,0.47-0.22c0.02-0.01,0.03-0.01,0.05-0.02c0.14-0.07,0.29-0.13,0.44-0.19
		c0.03-0.01,0.05-0.02,0.08-0.04c0.14-0.06,0.28-0.11,0.42-0.17c0.03-0.01,0.07-0.03,0.1-0.04c0.18-0.07,0.35-0.13,0.53-0.2
		c1.69-0.59,3.48-0.97,5.34-1.1c0.46-0.03,0.92-0.05,1.39-0.05c0.46,0,0.92,0.02,1.38,0.05c1.55-1.5,4.01-2.46,6.77-2.46
		c0.75,0,1.47,0.07,2.16,0.2c-0.79-3.64-4.32-6.38-8.55-6.38c-4.04,0-7.44,2.5-8.43,5.89c-0.53-0.09-1.08-0.13-1.64-0.13
		c-4.7,0-8.56,3.2-8.93,7.27c0.07,0,0.15,0.01,0.22,0.02C33.01,48.65,33.04,48.65,33.06,48.65z"/>
	<path class="st0" d="M51.39,43.59c3.02,0.2,5.86,1.07,8.37,2.45c0.17,0.1,0.35,0.19,0.52,0.3c1.75,1.03,3.34,2.32,4.7,3.82
		c0.14,0.16,0.29,0.32,0.43,0.48c0.69,0.8,1.31,1.66,1.86,2.56c0.27,0.44,0.53,0.9,0.77,1.36c0.62,1.21,1.13,2.5,1.5,3.84
		c0.24,0.88,0.43,1.77,0.55,2.69c0.13-0.01,0.27-0.01,0.41-0.01c1.25,0,2.42,0.37,3.4,1.01c0.4-0.82,0.63-1.75,0.63-2.73
		c0-0.64-0.1-1.25-0.27-1.83c1.71-1.11,2.84-3.04,2.84-5.23c0-3.12-2.29-5.7-5.28-6.17c-0.96-2.2-3.16-3.74-5.72-3.74
		c-0.76,0-1.5,0.14-2.17,0.39c-1-0.68-2.23-1.18-3.59-1.44c-0.69-0.13-1.42-0.2-2.16-0.2C55.4,41.13,52.94,42.09,51.39,43.59z"/>
	<path class="st0" d="M31.13,57.14c0.91,6.63,2.99,10.41,11.92,16.27c0.02,0.01,0.04,0.03,0.07,0.04c0.51-1.68,0.97-3.26,0.9-4.91
		c-0.07-1.78-0.76-3.64-2.67-5.79c0.31-2.41-1.12-5.01-2.17-6.54c-0.57-0.84-1.03-1.36-1.03-1.36s0.05,0.39,0.03,1.04
		c-0.04,1.14-0.29,3.08-1.39,5.17c-0.9-0.78-0.24-3.25,0.15-5.74c0.12-0.75,0.21-1.5,0.24-2.2c0.02-0.54-0.01-1.06-0.1-1.52
		c-0.1-0.43-0.26-0.84-0.46-1.21c-0.21-0.38-0.48-0.73-0.78-1.04c-0.04-0.04-0.08-0.08-0.12-0.11c-0.05-0.04-0.09-0.09-0.14-0.13
		c0,0-0.01-0.01-0.01-0.01c-0.05-0.04-0.09-0.08-0.14-0.11c-0.01-0.01-0.01-0.01-0.02-0.02c-0.04-0.03-0.09-0.07-0.13-0.1
		c-0.01-0.01-0.02-0.01-0.03-0.02c-0.04-0.03-0.09-0.06-0.13-0.09c-0.01-0.01-0.03-0.02-0.04-0.03c-0.04-0.03-0.09-0.06-0.13-0.08
		c-0.02-0.01-0.03-0.02-0.05-0.03c-0.04-0.03-0.09-0.05-0.13-0.07c-0.02-0.01-0.04-0.02-0.05-0.03c-0.04-0.02-0.08-0.04-0.13-0.06
		c-0.02-0.01-0.04-0.02-0.06-0.03c-0.04-0.02-0.08-0.04-0.12-0.06c-0.02-0.01-0.05-0.02-0.07-0.03c-0.04-0.02-0.08-0.03-0.12-0.05
		c-0.03-0.01-0.05-0.02-0.08-0.03c-0.04-0.01-0.08-0.03-0.12-0.04c-0.03-0.01-0.06-0.02-0.09-0.03c-0.04-0.01-0.07-0.02-0.11-0.03
		c-0.03-0.01-0.06-0.02-0.09-0.03c-0.04-0.01-0.07-0.02-0.11-0.03c-0.03-0.01-0.07-0.02-0.1-0.02c-0.03-0.01-0.07-0.02-0.1-0.02
		c-0.04-0.01-0.08-0.01-0.12-0.02c-0.03-0.01-0.06-0.01-0.09-0.02c-0.05-0.01-0.09-0.01-0.14-0.02c-0.03,0-0.05-0.01-0.08-0.01
		c-0.07-0.01-0.14-0.01-0.22-0.02c-0.09,0-0.17-0.01-0.26-0.01c-0.79,0-1.53,0.19-2.18,0.54c-1.1,0.58-1.94,1.58-2.31,2.8
		c-0.13,0.43-0.2,0.88-0.2,1.36c0,1.88,1.1,3.49,2.7,4.24c0.13,0.06,0.26,0.12,0.4,0.17C30.98,57.09,31.06,57.11,31.13,57.14z"/>
	<path class="st0" d="M68.03,54.55c-0.24-0.46-0.49-0.92-0.77-1.36c-0.56-0.9-1.18-1.76-1.86-2.56c-0.14-0.16-0.28-0.32-0.43-0.48
		c-1.36-1.49-2.95-2.78-4.7-3.82c-0.17-0.1-0.34-0.2-0.52-0.3c-2.51-1.38-5.35-2.25-8.37-2.45c-0.46-0.03-0.92-0.05-1.38-0.05
		c-0.47,0-0.93,0.02-1.39,0.05c-1.86,0.13-3.65,0.5-5.34,1.1c-0.18,0.06-0.36,0.13-0.53,0.2c-0.03,0.01-0.07,0.03-0.1,0.04
		c-0.14,0.06-0.28,0.11-0.42,0.17c-0.03,0.01-0.05,0.02-0.08,0.04c-0.15,0.06-0.29,0.12-0.44,0.19c-0.02,0.01-0.03,0.01-0.05,0.02
		c-0.16,0.07-0.31,0.14-0.47,0.22c-0.01,0-0.01,0.01-0.02,0.01c-0.67,0.33-1.32,0.69-1.95,1.08c0,0,0,0,0,0
		c-0.61,0.39-1.21,0.81-1.77,1.26c-0.01,0-0.01,0.01-0.02,0.01c-0.14,0.11-0.27,0.22-0.4,0.33c-0.02,0.02-0.04,0.04-0.07,0.06
		c-0.12,0.1-0.23,0.2-0.34,0.3c-0.05,0.05-0.1,0.09-0.16,0.14c-0.08,0.07-0.17,0.15-0.25,0.22c-0.13,0.12-0.26,0.25-0.39,0.38
		c0.31,0.31,0.57,0.66,0.78,1.04h0c0.23,0.35,0.38,0.76,0.46,1.21c0.08,0.34,0.12,0.69,0.12,1.05c0,0.16-0.01,0.31-0.02,0.47
		c-0.02,0.71-0.12,1.46-0.24,2.2c-0.39,2.49-1.05,4.97-0.15,5.74c1.1-2.09,1.35-4.03,1.39-5.17c0.02-0.65-0.03-1.04-0.03-1.04
		s0.46,0.52,1.03,1.36c1.05,1.53,2.48,4.13,2.17,6.54c1.91,2.15,2.6,4.01,2.67,5.79c0.07,1.65-0.4,3.23-0.9,4.91
		c0.14,0.09,0.28,0.19,0.42,0.28c0.05,0.03,0.09,0.06,0.13,0.09c0.09,0.06,0.18,0.13,0.27,0.19c0.05,0.04,0.1,0.08,0.16,0.11
		c0.08,0.06,0.16,0.12,0.23,0.17c0.05,0.04,0.11,0.08,0.16,0.12c0.07,0.06,0.15,0.11,0.22,0.17c0.05,0.04,0.11,0.08,0.16,0.13
		c0.07,0.06,0.14,0.11,0.21,0.17c0.05,0.04,0.1,0.09,0.16,0.13c0.07,0.06,0.13,0.11,0.2,0.17c0.05,0.04,0.1,0.09,0.15,0.13
		c0.07,0.06,0.13,0.12,0.2,0.18c0.05,0.04,0.09,0.08,0.14,0.13c0.07,0.06,0.14,0.13,0.21,0.19c0.04,0.04,0.08,0.07,0.12,0.11
		c0.1,0.1,0.2,0.2,0.3,0.29c0.05,0.05,0.09,0.09,0.13,0.14c0.06,0.06,0.11,0.11,0.16,0.17c0.05,0.05,0.1,0.1,0.14,0.15
		c0.05,0.05,0.1,0.1,0.14,0.15c0.05,0.05,0.1,0.11,0.15,0.16c0.04,0.05,0.09,0.1,0.13,0.15c0.05,0.06,0.1,0.11,0.15,0.17
		c0.04,0.05,0.08,0.09,0.12,0.14c0.05,0.06,0.1,0.12,0.15,0.18c0.04,0.04,0.07,0.09,0.11,0.13c0.05,0.06,0.1,0.12,0.15,0.18
		c0.03,0.04,0.06,0.08,0.09,0.12c0.05,0.07,0.1,0.13,0.15,0.2c0.02,0.03,0.04,0.06,0.07,0.09c0.14,0.2,0.28,0.4,0.41,0.6
		c-0.82-5.97-0.68-11.02,0.42-15.31c-2.34-4.98-5.24-6.94-6.35-7.68c-0.07-0.05-0.14-0.1-0.2-0.14c-0.55-0.38-0.69-1.13-0.31-1.68
		c0.38-0.55,1.13-0.69,1.68-0.31c0.06,0.04,0.12,0.08,0.19,0.13c1.08,0.73,3.68,2.47,6.05,6.5c1.61-3.92,3.86-6.33,5.72-8.31
		c0.19-0.21,0.38-0.41,0.56-0.6c0.45-0.49,1.22-0.52,1.71-0.07c0.49,0.45,0.52,1.22,0.07,1.71c-0.19,0.2-0.38,0.41-0.57,0.62
		c-0.62,0.66-1.29,1.38-1.96,2.19c3.57-0.69,6.06,0.57,7.91,1.88c0.55,0.39,0.67,1.14,0.29,1.69c-0.24,0.33-0.61,0.51-0.99,0.51
		c-0.24,0-0.49-0.07-0.7-0.22c-1.38-0.98-3.93-2.79-8.78-0.58c-0.56,1-1.07,2.11-1.49,3.39c-0.6,1.78-0.99,3.73-1.19,5.85
		c1.31-0.62,2.93-0.95,4.27-1.16c0.66-0.1,1.28,0.35,1.38,1.01c0.1,0.66-0.35,1.28-1.01,1.38c-4,0.63-4.6,1.56-4.7,1.83
		c-0.03,0.07-0.06,0.14-0.1,0.21c0,2.9,0.32,6.09,0.95,9.62c1.54-1.62,4.37-2.7,7.61-2.7c0.21,0,0.41,0.01,0.61,0.01
		c-0.05-0.41-0.08-0.83-0.08-1.26c0-3.83,2.06-7.06,4.86-8.02c-0.09-0.25-0.16-0.5-0.22-0.77c0,0,0-0.01,0-0.01
		c-0.02-0.08-0.03-0.16-0.05-0.24c0-0.02-0.01-0.04-0.01-0.06c-0.01-0.06-0.02-0.13-0.03-0.19c0-0.03-0.01-0.05-0.01-0.08
		c-0.01-0.06-0.01-0.12-0.02-0.18c0-0.03-0.01-0.06-0.01-0.08c-0.01-0.06-0.01-0.12-0.01-0.18c0-0.03,0-0.05,0-0.08
		c0-0.09-0.01-0.17-0.01-0.26c0-0.98,0.23-1.9,0.63-2.73c0.24-0.5,0.56-0.97,0.92-1.38c0.09-0.1,0.18-0.19,0.27-0.29c0,0,0,0,0,0
		c0.06-0.06,0.12-0.11,0.18-0.17c0.06-0.05,0.12-0.11,0.18-0.16c0,0,0,0,0,0c0,0,0,0,0,0c0,0,0,0,0,0c0.11-0.09,0.21-0.18,0.33-0.26
		c0,0,0,0,0,0c0.02-0.01,0.03-0.02,0.05-0.03c0,0,0,0,0,0c0.11-0.08,0.22-0.16,0.34-0.23c0,0,0,0,0,0c0.86-0.55,1.87-0.9,2.95-0.97
		c-0.12-0.92-0.31-1.82-0.55-2.69C69.16,57.05,68.66,55.77,68.03,54.55z"/>
	<path class="st1" d="M51.12,84.65c0-0.02-0.01-0.04-0.01-0.06c-0.04-0.19-0.08-0.38-0.12-0.57c0,0,0,0,0,0
		c-0.03-0.15-0.07-0.3-0.11-0.44c-0.03-0.11-0.06-0.23-0.1-0.34c-0.04-0.13-0.07-0.25-0.11-0.38c-0.23-0.71-0.51-1.41-0.85-2.12
		c-0.01-0.01-0.01-0.03-0.02-0.04c-0.04-0.09-0.09-0.17-0.13-0.26c-0.01-0.02-0.02-0.04-0.03-0.06c-0.04-0.08-0.09-0.16-0.13-0.25
		c-0.01-0.02-0.03-0.05-0.04-0.07c-0.04-0.08-0.09-0.16-0.14-0.24c-0.01-0.02-0.03-0.05-0.04-0.07c-0.05-0.08-0.1-0.16-0.15-0.24
		c-0.01-0.02-0.02-0.04-0.03-0.06c-0.1-0.16-0.21-0.33-0.31-0.49c-0.13-0.2-0.27-0.4-0.41-0.6c-0.02-0.03-0.04-0.06-0.07-0.09
		c-0.05-0.07-0.1-0.13-0.15-0.2c-0.03-0.04-0.06-0.08-0.09-0.12c-0.05-0.06-0.1-0.12-0.15-0.18c-0.04-0.04-0.07-0.09-0.11-0.13
		c-0.05-0.06-0.1-0.12-0.15-0.18c-0.04-0.05-0.08-0.09-0.12-0.14c-0.05-0.06-0.1-0.11-0.15-0.17c-0.04-0.05-0.09-0.1-0.13-0.15
		c-0.05-0.05-0.1-0.11-0.15-0.16c-0.05-0.05-0.09-0.1-0.14-0.15c-0.05-0.05-0.1-0.1-0.14-0.15c-0.05-0.06-0.11-0.11-0.16-0.17
		c-0.04-0.05-0.09-0.09-0.13-0.14c-0.1-0.1-0.2-0.2-0.3-0.29c-0.04-0.04-0.08-0.07-0.12-0.11c-0.07-0.07-0.14-0.13-0.21-0.19
		c-0.05-0.04-0.09-0.08-0.14-0.13c-0.07-0.06-0.13-0.12-0.2-0.18c-0.05-0.04-0.1-0.09-0.15-0.13c-0.07-0.06-0.13-0.11-0.2-0.17
		c-0.05-0.04-0.1-0.09-0.16-0.13c-0.07-0.06-0.14-0.11-0.21-0.17c-0.05-0.04-0.11-0.08-0.16-0.13c-0.07-0.06-0.14-0.11-0.22-0.17
		c-0.05-0.04-0.11-0.08-0.16-0.12c-0.08-0.06-0.16-0.12-0.23-0.17c-0.05-0.04-0.1-0.08-0.16-0.11c-0.09-0.06-0.18-0.13-0.27-0.19
		c-0.05-0.03-0.09-0.06-0.13-0.09c-0.14-0.09-0.27-0.19-0.42-0.28c-0.02-0.01-0.04-0.03-0.07-0.04
		c-8.93-5.86-11.01-9.64-11.92-16.27c-0.07-0.02-0.15-0.05-0.22-0.07c-0.14-0.05-0.27-0.11-0.4-0.17c-0.96,2.45-1.49,5.15-1.49,7.98
		c0,11.38,8.57,20.61,19.14,20.61c0.9,0,1.78-0.07,2.65-0.2c0.13-0.02,0.27-0.04,0.4-0.06C51.19,85.03,51.15,84.84,51.12,84.65z"/>
	<path class="st0" d="M50.77,71.58c0.09-0.27,0.7-1.21,4.7-1.83c0.66-0.1,1.11-0.72,1.01-1.38c-0.1-0.66-0.72-1.11-1.38-1.01
		c-1.35,0.21-2.96,0.54-4.27,1.16c0.2-2.13,0.59-4.07,1.19-5.85c0.43-1.27,0.94-2.39,1.49-3.39c4.85-2.21,7.39-0.41,8.78,0.58
		c0.21,0.15,0.46,0.22,0.7,0.22c0.38,0,0.75-0.18,0.99-0.51c0.39-0.55,0.26-1.3-0.29-1.69c-1.85-1.31-4.34-2.57-7.91-1.88
		c0.67-0.81,1.34-1.53,1.96-2.19c0.2-0.21,0.39-0.41,0.57-0.62c0.45-0.49,0.42-1.26-0.07-1.71c-0.49-0.45-1.26-0.42-1.71,0.07
		c-0.18,0.2-0.37,0.4-0.56,0.6c-1.85,1.98-4.11,4.39-5.72,8.31c-2.38-4.02-4.97-5.77-6.05-6.5c-0.07-0.05-0.13-0.09-0.19-0.13
		c-0.55-0.38-1.31-0.24-1.68,0.31c-0.38,0.55-0.24,1.31,0.31,1.68c0.06,0.04,0.13,0.09,0.2,0.14c1.11,0.75,4.01,2.7,6.35,7.68
		c-1.1,4.28-1.24,9.33-0.42,15.31c0.11,0.16,0.21,0.33,0.31,0.49c0.01,0.02,0.02,0.04,0.03,0.06c0.05,0.08,0.1,0.16,0.15,0.24
		c0.01,0.02,0.03,0.05,0.04,0.07c0.05,0.08,0.09,0.16,0.14,0.24c0.01,0.02,0.03,0.05,0.04,0.07c0.04,0.08,0.09,0.16,0.13,0.25
		c0.01,0.02,0.02,0.04,0.03,0.06c0.04,0.09,0.09,0.17,0.13,0.26c0.01,0.01,0.01,0.03,0.02,0.04c0.35,0.71,0.63,1.41,0.85,2.12
		c0,0,0,0,0,0c0.21-0.51,0.54-1,0.96-1.45c-0.63-3.52-0.95-6.72-0.95-9.62C50.71,71.72,50.74,71.65,50.77,71.58z"/>
	<path class="st2" d="M73.72,61.67c-0.98-0.64-2.14-1.01-3.4-1.01c-0.14,0-0.27,0.01-0.41,0.01c-1.08,0.07-2.09,0.42-2.95,0.97
		c-0.12,0.07-0.23,0.15-0.34,0.23c-0.02,0.01-0.03,0.02-0.05,0.03c-0.11,0.08-0.22,0.17-0.33,0.26c0,0,0,0,0,0
		c-0.06,0.05-0.12,0.11-0.18,0.16c-0.04,0.03-0.08,0.07-0.11,0.1c-0.02,0.02-0.04,0.04-0.07,0.07c-0.09,0.09-0.18,0.19-0.27,0.29
		c-0.36,0.42-0.67,0.88-0.92,1.38c-0.4,0.82-0.63,1.75-0.63,2.73c0,0.09,0,0.18,0.01,0.26c0,0.03,0,0.05,0,0.08
		c0,0.06,0.01,0.12,0.01,0.18c0,0.03,0.01,0.06,0.01,0.08c0.01,0.06,0.01,0.12,0.02,0.18c0,0.03,0.01,0.05,0.01,0.08
		c0.01,0.07,0.02,0.13,0.03,0.19c0,0.02,0.01,0.04,0.01,0.06c0.01,0.08,0.03,0.16,0.05,0.24c0,0,0,0.01,0,0.01
		c0.06,0.26,0.13,0.52,0.22,0.77h0c-2.8,0.96-4.86,4.19-4.86,8.02c0,0.43,0.03,0.85,0.08,1.26c-0.2-0.01-0.4-0.01-0.61-0.01
		c-3.24,0-6.07,1.08-7.61,2.7c-0.42,0.45-0.75,0.93-0.96,1.45c0,0,0,0,0,0c0.08,0.24,0.15,0.48,0.21,0.72
		c0.04,0.15,0.08,0.3,0.11,0.44c0,0,0,0,0,0c0.05,0.21,0.09,0.42,0.13,0.63c0,0,0,0,0,0c0.04,0.19,0.07,0.39,0.1,0.58
		c0.01,0.09,0.03,0.17,0.04,0.26c1.74,0.74,3.66,1.16,5.69,1.16c2.42,0,4.69-0.59,6.67-1.62c1.44-0.75,2.72-1.74,3.79-2.91
		c0.18-0.19,0.35-0.38,0.51-0.58c1.81-2.21,2.89-4.98,2.92-7.99c0.43-0.02,0.85-0.09,1.25-0.2c2.67-0.71,4.64-3.14,4.64-6.03
		C76.56,64.72,75.43,62.79,73.72,61.67z"/>
	<path class="st3" d="M35.49,48.26c0.04,0,0.08,0.01,0.13,0.02c0.03,0,0.06,0.01,0.09,0.01c0.04,0.01,0.07,0.01,0.11,0.02
		c0.03,0.01,0.06,0.01,0.09,0.02c0.03,0.01,0.06,0.01,0.1,0.02c0.03,0.01,0.07,0.02,0.1,0.03c0.03,0.01,0.06,0.02,0.09,0.02
		c0.03,0.01,0.07,0.02,0.1,0.03c0.03,0.01,0.05,0.02,0.08,0.03c0.04,0.01,0.07,0.03,0.11,0.04c0.02,0.01,0.05,0.02,0.07,0.03
		c0.04,0.01,0.07,0.03,0.11,0.04c0.02,0.01,0.04,0.02,0.06,0.03c0.04,0.02,0.08,0.03,0.11,0.05c0.02,0.01,0.04,0.02,0.06,0.03
		c0.04,0.02,0.08,0.04,0.12,0.06c0.02,0.01,0.03,0.02,0.05,0.03c0.04,0.02,0.08,0.04,0.12,0.07c0.01,0.01,0.03,0.02,0.04,0.03
		c0.04,0.02,0.08,0.05,0.12,0.08c0.01,0.01,0.02,0.02,0.03,0.02c0.04,0.03,0.08,0.06,0.12,0.08c0.01,0.01,0.02,0.01,0.03,0.02
		c0.04,0.03,0.08,0.06,0.12,0.09c0.01,0.01,0.01,0.01,0.02,0.02c0.04,0.03,0.09,0.07,0.13,0.1c0,0,0.01,0.01,0.01,0.01
		c0.04,0.04,0.09,0.08,0.13,0.12c0,0,0,0,0,0c0.99-0.91,2.08-1.71,3.24-2.37c0,0,0,0,0,0c0.58-0.36,1.18-0.7,1.79-1
		c0,0,0.01,0,0.01-0.01c0.14-0.07,0.29-0.14,0.43-0.2c0.01-0.01,0.03-0.01,0.04-0.02c0.13-0.06,0.27-0.12,0.4-0.17
		c0.03-0.01,0.05-0.02,0.08-0.03c0.13-0.05,0.26-0.11,0.39-0.16c0.03-0.01,0.06-0.03,0.09-0.04c0.16-0.06,0.32-0.12,0.49-0.18
		c1.55-0.55,3.2-0.89,4.91-1.01c0.42-0.03,0.85-0.04,1.28-0.04c0.43,0,0.85,0.02,1.27,0.04c1.43-1.38,3.69-2.27,6.23-2.27
		c0.69,0,1.36,0.07,1.99,0.19c-0.73-3.35-3.97-5.87-7.87-5.87c-3.72,0-6.85,2.3-7.76,5.42c-0.49-0.08-0.99-0.12-1.51-0.12
		c-4.33,0-7.88,2.94-8.22,6.69c0.07,0,0.13,0.01,0.2,0.02C35.44,48.25,35.46,48.25,35.49,48.26z"/>
	<path class="st4" d="M52.35,43.6c2.78,0.19,5.39,0.98,7.7,2.26c0.16,0.09,0.32,0.18,0.48,0.27c1.61,0.95,3.07,2.14,4.32,3.51
		c0.13,0.15,0.26,0.29,0.39,0.44c0.63,0.74,1.2,1.52,1.72,2.35c0.25,0.41,0.49,0.82,0.71,1.25c0.57,1.12,1.04,2.3,1.38,3.53
		c0.22,0.81,0.39,1.63,0.5,2.48c0.12-0.01,0.25-0.01,0.37-0.01c1.15,0,2.23,0.34,3.12,0.93c0.37-0.76,0.58-1.61,0.58-2.51
		c0-0.58-0.09-1.15-0.25-1.68c1.57-1.02,2.62-2.8,2.62-4.82c0-2.87-2.1-5.25-4.85-5.67c-0.89-2.03-2.91-3.44-5.26-3.44
		c-0.7,0-1.38,0.13-2,0.36c-0.92-0.62-2.05-1.09-3.3-1.33c-0.64-0.12-1.3-0.19-1.99-0.19C56.04,41.33,53.78,42.22,52.35,43.6z"/>
	<path class="st5" d="M33.71,56.06c0.84,6.1,2.76,9.58,10.97,14.97c0.02,0.01,0.04,0.03,0.06,0.04c0.47-1.54,0.89-3,0.83-4.51
		c-0.06-1.64-0.7-3.35-2.46-5.32c0.28-2.22-1.03-4.61-2-6.02c-0.53-0.77-0.95-1.25-0.95-1.25s0.04,0.36,0.02,0.96
		c-0.03,1.05-0.27,2.83-1.28,4.76c-0.82-0.71-0.22-2.99,0.14-5.29c0.11-0.69,0.2-1.38,0.22-2.03c0.02-0.5-0.01-0.97-0.09-1.4
		c-0.09-0.4-0.24-0.77-0.43-1.12c-0.2-0.35-0.44-0.68-0.72-0.96c-0.04-0.04-0.07-0.07-0.11-0.1c-0.04-0.04-0.09-0.08-0.13-0.12
		c0,0-0.01-0.01-0.01-0.01c-0.04-0.04-0.08-0.07-0.13-0.1c-0.01-0.01-0.01-0.01-0.02-0.02c-0.04-0.03-0.08-0.06-0.12-0.09
		c-0.01-0.01-0.02-0.01-0.03-0.02c-0.04-0.03-0.08-0.06-0.12-0.08c-0.01-0.01-0.02-0.02-0.03-0.02c-0.04-0.03-0.08-0.05-0.12-0.08
		c-0.01-0.01-0.03-0.02-0.04-0.03c-0.04-0.02-0.08-0.05-0.12-0.07c-0.02-0.01-0.03-0.02-0.05-0.03c-0.04-0.02-0.08-0.04-0.12-0.06
		c-0.02-0.01-0.04-0.02-0.06-0.03c-0.04-0.02-0.07-0.04-0.11-0.05c-0.02-0.01-0.04-0.02-0.06-0.03c-0.04-0.02-0.07-0.03-0.11-0.04
		c-0.02-0.01-0.05-0.02-0.07-0.03c-0.04-0.01-0.07-0.03-0.11-0.04c-0.03-0.01-0.05-0.02-0.08-0.03c-0.03-0.01-0.07-0.02-0.1-0.03
		c-0.03-0.01-0.06-0.02-0.09-0.02c-0.03-0.01-0.07-0.02-0.1-0.03c-0.03-0.01-0.06-0.01-0.1-0.02c-0.03-0.01-0.06-0.01-0.09-0.02
		c-0.04-0.01-0.07-0.01-0.11-0.02c-0.03,0-0.06-0.01-0.09-0.01c-0.04-0.01-0.08-0.01-0.13-0.02c-0.02,0-0.05-0.01-0.07-0.01
		c-0.07-0.01-0.13-0.01-0.2-0.02c-0.08,0-0.16-0.01-0.24-0.01c-0.72,0-1.41,0.18-2,0.49c-1.01,0.53-1.79,1.46-2.13,2.57
		c-0.12,0.39-0.18,0.81-0.18,1.25c0,1.73,1.02,3.21,2.48,3.9c0.12,0.06,0.24,0.11,0.36,0.15C33.57,56.02,33.64,56.04,33.71,56.06z"
		/>
	<path class="st6" d="M67.66,53.68c-0.22-0.43-0.45-0.84-0.71-1.25c-0.51-0.83-1.08-1.62-1.72-2.35c-0.13-0.15-0.26-0.3-0.39-0.44
		c-1.25-1.37-2.71-2.56-4.32-3.51c-0.16-0.09-0.32-0.18-0.48-0.27c-2.31-1.27-4.92-2.07-7.7-2.26c-0.42-0.03-0.84-0.04-1.27-0.04
		c-0.43,0-0.85,0.02-1.28,0.04c-1.71,0.12-3.36,0.46-4.91,1.01c-0.16,0.06-0.33,0.12-0.49,0.18c-0.03,0.01-0.06,0.03-0.09,0.04
		c-0.13,0.05-0.26,0.1-0.39,0.16c-0.03,0.01-0.05,0.02-0.08,0.03c-0.13,0.06-0.27,0.11-0.4,0.17c-0.01,0.01-0.03,0.01-0.04,0.02
		c-0.14,0.07-0.29,0.13-0.43,0.2c0,0-0.01,0-0.01,0.01c-0.62,0.3-1.22,0.63-1.79,1c0,0,0,0,0,0c-0.57,0.36-1.11,0.74-1.63,1.16
		c0,0-0.01,0.01-0.01,0.01c-0.13,0.1-0.25,0.2-0.37,0.3c-0.02,0.02-0.04,0.04-0.06,0.05c-0.11,0.09-0.21,0.18-0.32,0.27
		c-0.05,0.04-0.1,0.09-0.14,0.13c-0.08,0.07-0.15,0.14-0.23,0.21c-0.12,0.11-0.24,0.23-0.36,0.35c0.28,0.28,0.53,0.61,0.72,0.96h0
		c0.21,0.32,0.35,0.7,0.43,1.12c0.07,0.31,0.11,0.64,0.11,0.97c0,0.15-0.01,0.29-0.02,0.43c-0.02,0.65-0.11,1.34-0.22,2.03
		c-0.36,2.29-0.96,4.57-0.14,5.29c1.01-1.92,1.24-3.71,1.28-4.76c0.02-0.6-0.02-0.96-0.02-0.96s0.42,0.48,0.95,1.25
		c0.96,1.41,2.28,3.8,2,6.02c1.76,1.97,2.39,3.69,2.46,5.32c0.06,1.52-0.37,2.97-0.83,4.51c0.13,0.09,0.26,0.17,0.38,0.26
		c0.04,0.03,0.08,0.06,0.12,0.09c0.08,0.06,0.17,0.12,0.25,0.17c0.05,0.03,0.1,0.07,0.14,0.1c0.07,0.05,0.14,0.11,0.22,0.16
		c0.05,0.04,0.1,0.08,0.15,0.11c0.07,0.05,0.13,0.1,0.2,0.16c0.05,0.04,0.1,0.08,0.15,0.12c0.06,0.05,0.13,0.1,0.19,0.15
		c0.05,0.04,0.1,0.08,0.14,0.12c0.06,0.05,0.12,0.1,0.18,0.16c0.05,0.04,0.09,0.08,0.14,0.12c0.06,0.05,0.12,0.11,0.18,0.16
		c0.04,0.04,0.09,0.08,0.13,0.12c0.07,0.06,0.13,0.12,0.19,0.18c0.04,0.03,0.07,0.07,0.11,0.1c0.09,0.09,0.19,0.18,0.28,0.27
		c0.04,0.04,0.08,0.08,0.12,0.13c0.05,0.05,0.1,0.1,0.15,0.16c0.05,0.05,0.09,0.09,0.13,0.14c0.04,0.05,0.09,0.09,0.13,0.14
		c0.05,0.05,0.09,0.1,0.14,0.15c0.04,0.04,0.08,0.09,0.12,0.13c0.05,0.05,0.09,0.1,0.13,0.16c0.04,0.04,0.07,0.09,0.11,0.13
		c0.04,0.05,0.09,0.11,0.13,0.16c0.03,0.04,0.07,0.08,0.1,0.12c0.04,0.06,0.09,0.11,0.13,0.17c0.03,0.04,0.06,0.07,0.08,0.11
		c0.05,0.06,0.09,0.12,0.14,0.18c0.02,0.03,0.04,0.06,0.06,0.08c0.13,0.18,0.26,0.37,0.38,0.55c-0.75-5.5-0.63-10.14,0.38-14.08
		c-2.16-4.59-4.82-6.38-5.84-7.07c-0.07-0.05-0.13-0.09-0.19-0.13c-0.51-0.35-0.64-1.04-0.29-1.55c0.35-0.51,1.04-0.64,1.55-0.29
		c0.05,0.03,0.11,0.07,0.17,0.12c1,0.67,3.38,2.28,5.57,5.98c1.48-3.6,3.56-5.82,5.26-7.64c0.18-0.19,0.35-0.37,0.52-0.55
		c0.42-0.45,1.12-0.48,1.57-0.06c0.45,0.42,0.48,1.12,0.06,1.57c-0.17,0.18-0.35,0.37-0.53,0.57c-0.57,0.61-1.19,1.27-1.81,2.01
		c3.29-0.63,5.57,0.52,7.28,1.73c0.5,0.36,0.62,1.05,0.26,1.55c-0.22,0.31-0.56,0.47-0.91,0.47c-0.22,0-0.45-0.07-0.64-0.21
		c-1.27-0.9-3.62-2.56-8.08-0.53c-0.51,0.92-0.98,1.95-1.37,3.12c-0.55,1.64-0.91,3.43-1.1,5.39c1.21-0.57,2.69-0.88,3.93-1.07
		c0.61-0.1,1.18,0.32,1.27,0.93c0.1,0.61-0.32,1.18-0.93,1.27c-3.68,0.58-4.24,1.44-4.32,1.69c-0.02,0.07-0.05,0.13-0.09,0.19
		c0,2.67,0.29,5.61,0.87,8.85c1.42-1.49,4.02-2.48,7-2.48c0.19,0,0.38,0.01,0.56,0.01c-0.05-0.38-0.07-0.77-0.07-1.16
		c0-3.53,1.89-6.49,4.47-7.38c-0.08-0.23-0.15-0.46-0.21-0.7c0,0,0-0.01,0-0.01c-0.02-0.07-0.03-0.14-0.04-0.22
		c0-0.02-0.01-0.03-0.01-0.05c-0.01-0.06-0.02-0.12-0.03-0.18c0-0.02-0.01-0.05-0.01-0.07c-0.01-0.06-0.01-0.11-0.02-0.17
		c0-0.03-0.01-0.05-0.01-0.08c0-0.06-0.01-0.11-0.01-0.17c0-0.02,0-0.05,0-0.07c0-0.08-0.01-0.16-0.01-0.24
		c0-0.9,0.21-1.75,0.58-2.51c0.22-0.46,0.51-0.89,0.85-1.27c0.08-0.09,0.16-0.18,0.25-0.27c0,0,0,0,0,0
		c0.05-0.05,0.11-0.1,0.16-0.16c0.05-0.05,0.11-0.1,0.16-0.15c0,0,0,0,0,0c0,0,0,0,0,0c0,0,0,0,0,0c0.1-0.08,0.2-0.16,0.3-0.24
		c0,0,0,0,0,0c0.01-0.01,0.03-0.02,0.04-0.03c0,0,0,0,0,0c0.1-0.07,0.2-0.15,0.31-0.21c0,0,0,0,0,0c0.79-0.51,1.72-0.83,2.71-0.89
		c-0.11-0.85-0.28-1.67-0.5-2.48C68.7,55.99,68.24,54.8,67.66,53.68z"/>
	<path class="st7" d="M52.1,81.37c0-0.02-0.01-0.04-0.01-0.06c-0.03-0.17-0.07-0.35-0.11-0.52c0,0,0,0,0,0
		c-0.03-0.14-0.07-0.27-0.11-0.41c-0.03-0.1-0.06-0.21-0.09-0.31c-0.03-0.12-0.07-0.23-0.1-0.35c-0.21-0.65-0.47-1.3-0.79-1.95
		c-0.01-0.01-0.01-0.03-0.02-0.04c-0.04-0.08-0.08-0.16-0.12-0.24c-0.01-0.02-0.02-0.04-0.03-0.06c-0.04-0.08-0.08-0.15-0.12-0.23
		c-0.01-0.02-0.02-0.04-0.04-0.07c-0.04-0.07-0.08-0.15-0.13-0.22c-0.01-0.02-0.03-0.04-0.04-0.07c-0.04-0.08-0.09-0.15-0.13-0.23
		c-0.01-0.02-0.02-0.03-0.03-0.05c-0.09-0.15-0.19-0.3-0.29-0.45c-0.12-0.18-0.25-0.37-0.38-0.55c-0.02-0.03-0.04-0.06-0.06-0.08
		c-0.04-0.06-0.09-0.12-0.14-0.18c-0.03-0.04-0.06-0.07-0.08-0.11c-0.04-0.06-0.09-0.11-0.13-0.17c-0.03-0.04-0.06-0.08-0.1-0.12
		c-0.04-0.05-0.09-0.11-0.13-0.16c-0.04-0.04-0.07-0.09-0.11-0.13c-0.04-0.05-0.09-0.1-0.13-0.16c-0.04-0.04-0.08-0.09-0.12-0.13
		c-0.04-0.05-0.09-0.1-0.14-0.15c-0.04-0.05-0.09-0.09-0.13-0.14c-0.04-0.05-0.09-0.09-0.13-0.14c-0.05-0.05-0.1-0.1-0.15-0.16
		c-0.04-0.04-0.08-0.08-0.12-0.13c-0.09-0.09-0.18-0.18-0.28-0.27c-0.03-0.03-0.07-0.07-0.11-0.1c-0.06-0.06-0.13-0.12-0.19-0.18
		c-0.04-0.04-0.09-0.08-0.13-0.12c-0.06-0.05-0.12-0.11-0.18-0.16c-0.05-0.04-0.09-0.08-0.14-0.12c-0.06-0.05-0.12-0.1-0.18-0.16
		c-0.05-0.04-0.1-0.08-0.14-0.12c-0.06-0.05-0.13-0.1-0.19-0.15c-0.05-0.04-0.1-0.08-0.15-0.12c-0.07-0.05-0.13-0.1-0.2-0.16
		c-0.05-0.04-0.1-0.08-0.15-0.11c-0.07-0.05-0.14-0.11-0.22-0.16c-0.05-0.03-0.09-0.07-0.14-0.1c-0.08-0.06-0.16-0.12-0.25-0.17
		c-0.04-0.03-0.08-0.06-0.12-0.09c-0.13-0.09-0.25-0.17-0.38-0.26c-0.02-0.01-0.04-0.03-0.06-0.04
		c-8.21-5.39-10.13-8.87-10.97-14.97c-0.07-0.02-0.13-0.04-0.2-0.07c-0.12-0.05-0.25-0.1-0.36-0.15c-0.88,2.26-1.37,4.74-1.37,7.34
		c0,10.47,7.88,18.96,17.61,18.96c0.83,0,1.64-0.06,2.44-0.18c0.12-0.02,0.24-0.04,0.37-0.06C52.16,81.73,52.13,81.55,52.1,81.37z"
		/>
	<path class="st8" d="M72.89,60.24c-0.9-0.58-1.97-0.93-3.12-0.93c-0.13,0-0.25,0.01-0.37,0.01c-1,0.06-1.92,0.38-2.71,0.89
		c-0.11,0.07-0.21,0.14-0.31,0.21c-0.01,0.01-0.03,0.02-0.04,0.03c-0.1,0.08-0.2,0.16-0.3,0.24c0,0,0,0,0,0
		c-0.06,0.05-0.11,0.1-0.16,0.15c-0.03,0.03-0.07,0.06-0.1,0.09c-0.02,0.02-0.04,0.04-0.06,0.06c-0.09,0.09-0.17,0.17-0.25,0.27
		c-0.34,0.38-0.62,0.81-0.85,1.27c-0.37,0.76-0.58,1.61-0.58,2.51c0,0.08,0,0.16,0.01,0.24c0,0.02,0,0.05,0,0.07
		c0,0.06,0.01,0.11,0.01,0.17c0,0.03,0,0.05,0.01,0.08c0.01,0.06,0.01,0.11,0.02,0.17c0,0.02,0.01,0.05,0.01,0.07
		c0.01,0.06,0.02,0.12,0.03,0.18c0,0.02,0.01,0.03,0.01,0.05c0.01,0.07,0.03,0.14,0.04,0.22c0,0,0,0.01,0,0.01
		c0.05,0.24,0.12,0.48,0.21,0.7h0c-2.58,0.89-4.47,3.85-4.47,7.38c0,0.39,0.02,0.78,0.07,1.16c-0.19-0.01-0.37-0.01-0.56-0.01
		c-2.98,0-5.58,1-7,2.48c-0.39,0.41-0.69,0.86-0.88,1.33c0,0,0,0,0,0c0.07,0.22,0.13,0.44,0.19,0.66c0.04,0.14,0.07,0.27,0.11,0.41
		c0,0,0,0,0,0c0.05,0.19,0.09,0.39,0.12,0.58c0,0,0,0,0,0c0.03,0.18,0.06,0.35,0.09,0.53c0.01,0.08,0.02,0.16,0.04,0.24
		c1.6,0.68,3.37,1.07,5.24,1.07c2.22,0,4.31-0.54,6.14-1.49c1.32-0.69,2.5-1.6,3.49-2.67c0.16-0.18,0.32-0.35,0.47-0.54
		c1.66-2.03,2.66-4.58,2.69-7.35c0.4-0.02,0.78-0.09,1.15-0.18c2.46-0.65,4.27-2.89,4.27-5.55C75.51,63.04,74.47,61.26,72.89,60.24z
		"/>
	<path class="st6" d="M49.03,73.45c0,0,2.62,5.04,2.36,4.94s0.8-2.37,1.76-3.26c0.96-0.88,6.47-7.1,6.58-7.57
		c0.11-0.48,5.29-7.53,5.4-8.25c0.11-0.72-2.43-7.37-3.31-8.34c-0.88-0.98-7.16-4.5-8.87-4.5c-1.71,0-8.09,0.79-8.93,1.5
		c-0.83,0.71-2.04,3.64-2.04,3.64l3.08,8.21l4.19,8.49L49.03,73.45z"/>
	<path class="st9" d="M52.67,68.68c0.14-0.25,0.92-1.11,5.39-1.69c0.73-0.1,1.21-0.67,1.09-1.27c-0.12-0.61-0.77-1.02-1.47-0.93
		c-1.42,0.19-3.15,0.5-4.61,1.07c0.44-1.96,1.04-3.75,1.79-5.39c0.5-1.17,1.04-2.2,1.59-3.12c4.07-2.03,6.36-0.37,7.69,0.53
		c0.21,0.14,0.44,0.21,0.65,0.21c0.34,0,0.63-0.16,0.78-0.47c0.23-0.5-0.02-1.2-0.55-1.55c-1.73-1.21-3.82-2.37-6.6-1.73
		c0.52-0.75,1.02-1.4,1.46-2.01c0.14-0.19,0.27-0.38,0.39-0.57c0.3-0.45,0.22-1.16-0.14-1.57c-0.36-0.42-0.88-0.39-1.18,0.06
		c-0.12,0.18-0.25,0.37-0.39,0.55c-1.38,1.82-3.29,4.04-5.07,7.64c-1.4-3.7-3.06-5.31-3.69-5.98c-0.04-0.04-0.07-0.08-0.1-0.12
		c-0.3-0.35-0.9-0.22-1.35,0.29c-0.46,0.51-0.58,1.2-0.27,1.55c0.04,0.04,0.08,0.08,0.12,0.13c0.68,0.69,2.62,2.48,3.87,7.07
		c-1.81,3.94-2.86,8.59-2.84,14.08c0.12,0.15,0.23,0.3,0.34,0.45c0.01,0.02,0.03,0.03,0.04,0.05c0.05,0.07,0.1,0.15,0.16,0.23
		c0.01,0.02,0.03,0.04,0.04,0.07c0.05,0.07,0.1,0.15,0.15,0.22c0.01,0.02,0.03,0.04,0.04,0.07c0.05,0.08,0.1,0.15,0.14,0.23
		c0.01,0.02,0.02,0.04,0.04,0.06c0.05,0.08,0.1,0.16,0.14,0.24c0.01,0.01,0.01,0.03,0.02,0.04c0.38,0.65,0.68,1.3,0.91,1.95
		c0,0,0,0,0,0c0.35-0.47,0.86-0.92,1.48-1.33c-0.48-3.24-0.51-6.18-0.18-8.85C52.59,68.81,52.64,68.74,52.67,68.68z"/>
</g>
</svg>
