<svg xmlns="http://www.w3.org/2000/svg" version="1.1" xmlns:xlink="http://www.w3.org/1999/xlink" xmlns:svgjs="http://svgjs.dev/svgjs" viewBox="0 0 108 108" style="" x="0" y="0"><style type="text/css">
	.st0{fill:#A9B079;}
	.st1{fill:#5B8D84;}
	.st2{fill:#7FA9A7;}
	.st3{fill:none;stroke:#EC008C;stroke-width:0.2869;stroke-miterlimit:10;}
	.st4{fill:#4E7B73;}
	.st5{fill:#5F8C6C;}
	.st6{fill:none;}
	.st7{fill:#719795;}
	.st8{fill:#54837B;}
	.st9{fill:#4D7A72;}
	.st10{fill:#5F837F;}
	.st11{fill:#55857C;}
	.st12{fill:#4F7D74;}
	.st13{fill:#448A84;}
	.st14{fill:#5D8C77;}
	.st15{fill:none;stroke:#EC008C;stroke-width:0.2612;stroke-miterlimit:10;}
	.st16{fill:#608C65;}
</style><g><path class="st0" d="M39.4,80.4c0.3-1.6,2.2-8.9,2.6-11.1s2.7-12.3,2.8-15.5c0.1-3.1,0-4.5,0.9-9.4s2.7-10.6,2.7-10.6l0.7-3.5
	c0,0-3.1,15.4-3.1,16.4c0,1-0.5,8.6-0.8,10.5s-1.9,9.2-2.3,11.9c-0.5,2.8-0.8,6.2-1.4,7.4s-0.8,2.8-1,3.4
	C40.3,80.4,39.4,80.4,39.4,80.4z"></path><path class="st1" d="M57.5,81c-0.4-0.4,0.9-0.9,0.9-0.9s-1.4,0.3-1.9-0.4c-0.4-0.6-0.6-0.1-2.9-1.8c-2.2-1.8-3.2-2-4.3-2.4
	c-1.1-0.4-4.8-0.2-5-0.1c-0.2,0.2-0.6,0.9-1.1,1.1c-0.5,0.2-1,0.1-1.4,0.7c-0.1,0.2-0.2,0.5-0.3,0.8c5.1,1.3,21.6,6.1,24.1,7.4
	C65.5,85.4,57.9,81.4,57.5,81z"></path><path class="st2" d="M41.9,82.8c0.2,0.7,1.7,2.6,1.8,1.9c0.1-0.6,0.9-2.5,0.9-2.5l3.5,3c0,0,1-2,1.3-1.8c0.2,0.2,1.5,1.4,1.5,1.4
	l3-0.7c0,0,2.3,0.5,4.3,0.7c2,0.2,4.6,0.5,5,0.5s2.4,0,2.4,0c-2.5-1.3-19-6.1-24.1-7.4c-0.3,1-0.7,2.6-0.7,2.6S41.8,82.1,41.9,82.8z
	"></path><path class="st2" d="M46.4,78.3c0.4,0,2.6,0.5,2.6,0.5l2.1,0.4l0.5-1l4.3,0.1c0,0-1.5-1.1-1.6-1.6c-0.1-0.5,2.9-0.2,2.9-0.2
	s-0.5-2-0.2-1.8c0.3,0.1,2.7,0.5,2.7,0.5l0.3-1.4c0,0,2.6-0.5,4.3-0.9c1.6-0.4,4.3-2,5.3-2.5c0.9-0.5,2.3-1.5,2.3-1.5
	s-1.1,0.3-2.5,0.5c-3.7,0.8-8.5,1.9-11.1,1.8c-3.3-0.2-12.4,1-16,2.6l-0.5,1c0,0,0.9,1.9,1.4,2.8C43.5,78.5,46,78.3,46.4,78.3z"></path><path class="st1" d="M69.3,69.4c-1.3,0.2-2.7,0.4-3.7,0.2c-2-0.3-3.9-1.2-3.9-1.2l-2.9,0.2l0.4-1.1c0,0-2.4,0.7-2.6,0.8
	c-0.2,0.2-1.2-0.9-1.2-0.9L54,67.2c0,0-4.7,2.4-5.1,2.6c-0.4,0.2-2.8,2.5-2.8,2.5s-2.5,0.1-2.8,0.3c-0.4,0.1-0.9,0.6-0.9,0.6
	l-0.3,0.6c3.7-1.6,12.7-2.7,16-2.6C60.8,71.3,65.6,70.2,69.3,69.4z"></path><path class="st2" d="M42.7,71.5c0.4,0.1,3.3,0,3.8-0.1c0.4-0.1,1.5-1.6,1.5-1.6l2.2-0.6l0.8-1l2.1-1.4l2.6-0.5l-0.6-1l3.9-0.6
	l-1.7-1.5l2.3-1.4l0.5-2.7c0,0,0.6-2.4,0.8-2.6C61.2,56.4,62,55,62,55s-7,5-8.2,5.6c-1.2,0.7-7.1,4.5-10.1,5.4
	C43.6,67,42.7,71.5,42.7,71.5z"></path><path class="st1" d="M62,55l-2.1,0l0.3-1.7l-2.5,0l-3.1,0.4c0,0-4.5,1.8-5.1,2c-0.5,0.2-2.9,0.4-3.7,2c-0.8,1.7-1.2,3.6-1.3,4.5
	c-0.1,0.9-0.6,3-0.8,4c3-0.9,8.9-4.7,10.1-5.4C55,59.9,62,55,62,55z"></path><path class="st2" d="M45.7,56.2l14-3.1c0,0-0.1-1.1,0.2-1.1c0.3,0,6.5-3.1,6.8-3.3s2.5-1.1,2.5-1.1c-1.5,0.1-15.3,1.5-16.7,2.5
	C51.1,51,47.2,54.2,45.7,56.2z"></path><path class="st1" d="M62.6,46.2c-1.3,0-7.1,0.7-7.1,0.7l0.1-2.2c0,0-1.9,1-2.2,1.4c-0.3,0.4-3.6,2.6-5,4.4c-1.3,1.8-2.3,3.1-2.3,3.1
	l-0.5,2.5c1.5-2.1,5.4-5.2,6.8-6.2c1.4-1,15.2-2.4,16.7-2.5C69.2,47.5,63.9,46.2,62.6,46.2z"></path><path class="st2" d="M47.6,40.2c-1,5.4-2.2,14.8-2.2,14.8s4.2-3.1,5.1-4.9c0.9-1.8,2.2-5.8,2.3-6.5c0.1-0.7,1.5-3.5,1.5-3.5
	s2-1.5,2.6-2.2c0.6-0.7,3.5-3.2,4.4-3.4c0.8-0.2,3-0.9,3-0.9s-7.6,0.3-8.2,1c-0.6,0.7-2.2,1.9-2.2,1.9l0.7-3c0,0-0.1-1.8-0.5-1.8
	c-0.5-0.1-0.5-0.9-0.5-0.9s0.2-1.8,0.3-2.3s0.9-6.8,0.9-6.8l-1.2,1.6c0,0,0.5-2.7,0.4-3.6c-1.2,3.7-3.4,6.2-4,8.5
	S48.6,34.8,47.6,40.2z"></path><path class="st1" d="M52.1,20.7c-0.4,1.6-2.8,4.5-2.7,4.9c0.1,0.4-0.4-1.3-0.3-2.1c0.1-0.9-0.3-1.9-0.4-1.7c-0.1,0.3-1.3,5-1.3,5
	s-0.5-2.5-0.7-2.7c-0.2-0.3-1.8-0.2-2.2,1.2C44,26.6,42.1,26,41.7,28c-0.4,2-1.1,3-0.7,3.8c0.3,0.8-0.9-0.2-0.9-0.2l-2.4-1.9
	c0,0-1.1-0.3-1.1-0.1c0,0.2,1.3,2.7,1.6,4.1c0.3,1.4,2,5.3,2.2,5.7c0.2,0.4,2.4,3.2,3,5.5c0.6,2.2,0.7,4.4,1.1,5.3
	c0.5,0.9,1,4.9,1,4.9s1.2-9.4,2.2-14.8c1-5.4,1.8-9.9,2.4-12.1s2.8-4.8,4-8.5C53.8,18.6,52.5,19.1,52.1,20.7z"></path><path class="st2" d="M42.1,73.8c0,0-0.8-1.1-0.8-1.3c0-0.1-2.7-3.9-3.1-4.3c-0.4-0.4-2.9-1.2-2.9-1.2l1.3,2c0,0-5.2-0.8-6.1-0.8
	c-0.9,0-5,0.5-5.4,0.4s-9.7,1.1-9.9,1c1.2,0.1,12.7,2.2,12.9,2.2C28.1,71.8,42.1,73.8,42.1,73.8z"></path><path class="st3" d="M15.1,69.6C15.1,69.6,15.1,69.6,15.1,69.6C15,69.5,15,69.6,15.1,69.6z"></path><path class="st2" d="M25.7,73.4l-0.2,1.2l4.1,0.4l-1.3,1c0,0-0.6,1.5-0.3,1.6c0.3,0.1,5.2-1.2,5.2-1.2l-2,2.8c0,0,3.3,0.4,4.2,0.3
	c1,0,3.9-0.8,3.9-0.8l0.8-1.7l1.9-3.3c0,0-13.9-1.9-14.1-2c-0.2,0-11.7-2.1-12.9-2.2c0,0,0,0,0,0c0.1,0.1,0.8,0.6,1.2,0.7
	C16.7,70.4,25.7,73.4,25.7,73.4z"></path><path class="st1" d="M37.7,75.6c0,0,1.1,0.1,2-0.1s2.1-4.2,2.1-4.2s0.4-1.5,0.6-2.6c-2.6-0.8-6.6-1.9-9-2.8
	c-3.1-1.2-8.5-2.8-13.8-1.8c0,0,0,0,0,0l-3.4,2.9c0,0,2.5-1.5,3-1.9c0.4-0.4,2.9,0.4,3.6,0.7c0.6,0.3,2.8,1.4,2.8,1.4l1.4,1.1
	l0.3,1.2l4.6,0.8l4.2,1.2l-0.7,3.4l2.9-0.7L37.7,75.6z"></path><path class="st2" d="M33.4,66c2.4,0.9,6.4,1.9,9,2.8c0.1-0.5,0.1-0.9,0.1-1.1c-0.1-0.6,0-1-0.3-1.9c-0.3-1-0.9-1.2-1.8-2.4
	c-0.9-1.2-0.9-1.1-1.8-2.1c-0.8-1-2.5-1.3-3.7-1.8c-1.2-0.6-3.1,0.2-3.5,0.2c-0.4,0-2,1.1-2,1.1l-2-0.4L26.2,61c0,0-1.6-0.2-1.8-0.4
	c-0.2-0.1,0.4,1,0.4,1l-2.9,0.5l-2.3,2c0,0,0,0,0,0C24.9,63.1,30.3,64.8,33.4,66z"></path><path class="st2" d="M44.3,59.8c0.2-0.5,0.4-1,0.4-1.1c-0.1-0.4-1-3.5-1-3.7c0-0.2-0.9-1.4-1.9-2.9c-1-1.4-1.7-1-2.6-1.5
	c-0.9-0.5-3.7-0.7-3.7-0.7s-1.8-0.2-2.1-0.4c-0.2-0.2-1.4,0.8-1.1,1.4c0.3,0.6-2.2,1.7-2.6,1.7c-0.2,0-0.8,0.8-1.3,1.6
	C36.6,52.3,42.3,57.5,44.3,59.8z"></path><path class="st1" d="M27.2,58.3c0,0,1-0.1,1.3-0.3c0.3-0.1,2.7-0.2,2.7-0.2l1.2,0.9l3.5-0.6l-2.1,2.3c0,0,1,0,2-0.2
	c1.1-0.2,1.4,1.2,1.9,1.9c0.6,0.7,1.7,0.8,1.7,0.8l-1.8,0.1c0,0,1.3,1.9,2.1,2.7c0.8,0.8,2.5-0.2,2.5-0.2s1.6-3.2,1.6-4.2
	c0-0.5,0.3-1.2,0.5-1.7c-2.1-2.3-7.7-7.5-15.8-5.7c-0.3,0.4-0.5,0.9-0.7,1.1C27.4,56,27.2,58.3,27.2,58.3z"></path><path class="st2" d="M44.4,56.3l0.4-2.5l0-2.1c0,0-0.8-3.8-1.3-6c-0.6-2.2-1-2.3-2.3-3.7c-1.3-1.4-3-3.3-3-3.3l-2.6-0.8l1.8,2.7
	l-2.5,0.6c0,0-2.4-0.4-2.1-0.1c4.2,0.8,7,3.2,7.5,3.8C40.7,45.4,43.3,52.9,44.4,56.3z"></path><path class="st1" d="M36.7,45.2c0.3,0.1-1.6,1-1.3,1.1c0.3,0.1,0.7,2.5,0.8,2.8c0.1,0.3,4.1,4.9,4.1,4.9s1.7,0.2,1.9,0.4
	c0.2,0.2,2,3.4,2,3.4l0.2-1.5c-1.1-3.4-3.7-10.9-4.2-11.3c-0.6-0.6-3.4-3-7.5-3.8c0.2,0.3,1.7,2.6,1.7,2.6S36.4,45.1,36.7,45.2z"></path><path class="st0" d="M45.5,68.9c0.9-1,6.3-7.3,8.4-8.6s8.3-6.1,9.4-6.8s11.3-9.1,12.1-9.7s4.6-3,5.1-3.7c0.5-0.7,6.1-5.2,7.8-5.8
	c1.7-0.6,4-1.1,4.9-1c0.8,0.1,2.1,0.3,2.1,0.3s0.1,0.1-2.3,0.6s-3.3,0.3-4.4,0.9c-1.2,0.6-5.4,3.7-5.7,4c-0.3,0.3-3.6,3.2-4.5,3.8
	c-0.9,0.5-8.2,6.3-8.6,6.6c-0.4,0.3-5.6,4.9-6.5,5.5c-0.5,0.3-2.7,2.2-4.6,3.8c-1.4,1.2-2.7,2.3-3,2.5c-0.6,0.4-6.1,6.3-6.3,6.5
	s-1.4,1.5-1.7,1.8C47.4,69.9,46,71,46,71L45.5,68.9z"></path><path class="st2" d="M63.3,54.9c0,0-2.9,2.3-1.3,4.3c1.1,1.4,3.9,3.7,3.9,3.7l0.4-2.9c0,0,2.6,0.9,2.9,2s0.9,3.3,0.9,3.3l1.2-3.8
	l3,2.2c0,0-0.2-1.2,0.4-1.2c0.6,0,1.3,0.9,1.3,0.9l0.7,1.8l0.8-1.9l2.7,0.2c0,0,2.4,0.4,3,0.5c0.6,0.1,2.7,0.5,3,0.6
	c0.3,0.1,1.5,0.4,1.5,0.4c-7.5-5-18.5-9.1-23.4-10.7L63.3,54.9z"></path><path class="st1" d="M86.5,62.9c-0.6-0.7-3.1-2.7-4.2-3.5c-1.1-0.7-3.3-2.1-3.3-2.1l2.1-1c0,0-2.7-1.3-3.2-1c-0.5,0.4-3-0.3-3-0.3
	l2.3-1.3c0,0-3.5-1-4.4-0.8c-0.9,0.1-3.2,0-4.1,0c-0.9,0-3.2,0.1-3.2,0.1l-1.4,1.1C68.9,55.9,80,59.9,87.5,65
	C87.5,65,87.1,63.6,86.5,62.9z"></path><path class="st1" d="M59.7,40.4c1,2.8,3,10.4,3.6,13.1l-0.2-1.4c0,0,1.1-1.7,1.4-2.2c0.2-0.5,1.3-4.7,2.1-6.9
	c0.8-2.2,0.3-3.2,0.3-3.2s-2.2,1.8-2.4,1.9c-0.1,0.1-0.2-1.4,0-2.1c0.2-0.7-0.7-1.8-1.5-2c-0.8-0.2-1.1-2.1-1.4-2.6s-1.8-1.2-2-1.5
	c-0.2-0.3-0.2-1.3-0.7-1.1c-0.5,0.1-1.7-0.6-2.3-1.5c-0.6-0.9-5.4-3.7-5.4-3.7C54.7,30.3,58.8,37.6,59.7,40.4z"></path><path class="st2" d="M54.7,32.1c0.1,0.4-0.3,0.9-0.3,0.9l1.6,5.8l-1.3-0.4l0.5,2c0,0,0.7,2.6,1.4,3.4c0.6,0.8,0.6,1.3-0.1,1.1
	c-0.6-0.2-2.3,0.2-2.3,0.2s0.5,0.7,0.8,1.1s1.1,1.3,2.1,2.3c1,1.1,3.4,3,3.4,3s-1-0.1-1.9-0.2c-0.9,0-0.6,0.9-0.6,0.9
	s1.1,0.4,2.3,0.7c1.2,0.3,0.4,0.9,0.3,1.5l2.8-1c-0.6-2.7-2.7-10.4-3.6-13.1c-1-2.8-5.1-10-8.6-13.2c0,0,0.4,0.8,1.4,1.7
	C53.6,29.8,54.6,31.7,54.7,32.1z"></path><path class="st2" d="M67.5,51.4c0,0,3.6,0.2,5.3,0.6c1.7,0.4,3.5-0.4,3.5-0.4l2.2,0.1l4.1,2.7l-0.5-1.6c0,0,2.9,2.6,3.8,2.6
	c0.9,0,2.6,0.8,2.6,0.8l1.3-1.1c0,0,2.9,2.2,4.6,3.4c1.7,1.3,3.4,2.8,3.2,2.5C80.6,46.1,77.2,48.9,67.5,51.4z"></path><path class="st4" d="M89.4,51.7l0.8-1L87.9,50l2.1-1.7l-4.4-0.8l0.7-2.2c0,0-2.4-0.7-5,0c-2.5,0.7-4.6,0.5-5.1,0.8
	c-0.5,0.3-2.8,0.1-2.8,0.1l-1.8,0.9l-1.9,2.3l-2.3,2c9.6-2.5,13-5.3,30.1,9.8c-0.2-0.3-5.1-7.6-5.1-7.6L89.4,51.7z"></path><path class="st1" d="M70.5,43.9c0.2-0.7,1-4.3,0.8-5c-0.1-0.7,0.5-4.9,0.4-5.5c-0.1-0.6-2.3-2.1-2.3-2.1s-1.1,0.6-1.2,0.2
	c0-0.4-1.3-2-1.3-2s-0.6,1-0.8,0.8c-0.2-0.2-1.9-2.1-1.9-2.1L63.8,29c0,0-0.8-1.5-2-2.5c-1.2-0.9-4.8-2.1-4.8-2.1
	c3.9,2.4,10.2,12.5,11.3,15.9c1.1,3.4,1,5.3-0.1,8.8c-0.1,0.4-0.2,0.7-0.2,0.7l1.7-3.3C69.7,46.2,70.3,44.6,70.5,43.9z"></path><path class="st2" d="M68.3,40.4C67.2,37,60.9,26.9,57,24.5c0,0,1.2,1.6,1.7,2.2c0.5,0.7,1.6,2.3,2.1,3.9c0.5,1.6,1.7,4.6,1.7,4.6
	l-0.7,0.6c0,0,0.4,1.5,1.1,1.8c0.7,0.3,1.5,2,1.5,2l2.1,3.4L63,43.7c0,0,1.6,0.8,3.1,0.7c1.5-0.1,2,0.6,2.3,1.6
	c0.2,0.7-0.1,2.2-0.2,3.1C69.3,45.7,69.4,43.8,68.3,40.4z"></path><path class="st2" d="M71.4,45.5c0,0,0.7-2.9,1.5-3.7c0.8-0.9,2.4-4,2.8-5c0.4-0.9-0.6-3.3-0.9-3.9s-1.1-2.6-2.6-5
	c-1.5-2.3-3-5.2-3.3-5.9s-0.6-2.4-0.6-2.4s4.5,4.1,4.9,4.8c0.4,0.7,1.4,0.3,1.4,0.3l2,2.5c0,0,0.8,0.3,1.1,0.6
	c0.3,0.3,0.5,2.2,0.3,3.6c-0.2,1.4-0.9,5.1-0.9,5.4c0.1,0.3,0.6,3.8-0.2,4.7c-0.8,1-1.8,1.9-2.5,2.4S72,46.1,72,46.1L71.4,45.5z"></path><path class="st1" d="M78.2,22.7l-1.8,4.5l-1.2-0.4l0.5,4l-1.1,2.1l1,3.2l0.7,4.4l0.4,1.1C80,32.3,78.2,24.9,78.2,22.7z"></path><path class="st2" d="M82,36.5c0,0,4.6-4,4.2-5.6c-0.4-1.6-3.6,1.1-3.6,1.4c-0.1,0.3-2.4,2.5-2.4,2.5l1.2-2.9l0.4-2.3L81,27.7
	L79.6,26l-0.8,0.8l0.6-1.9l-1.3-2.3c0,2.2,1.9,9.6-1.4,18.8l3.2-2.7L82,36.5z"></path><path class="st1" d="M101.7,49.9L95.9,44l-2.2-1.6l-1.3-0.9l1.9-1.3l-2.4-1.6c0,0-0.8-0.6-2.1-0.6c-1.3,0-3.5,0.2-3.8,0.3
	c-0.4,0.1-1.3,0.8-2.1,0.8c-0.9,0-2.3,1.6-2.3,1.6l-4.4,3C86.3,37.5,97.3,45.5,101.7,49.9z"></path><path class="st2" d="M80.6,44.7c0.7,0.5,3.1-0.2,3.1-0.2l3,2.2l2.1,0.6l-1.8-3.5c0,0,2-0.6,2.7,0.8c0.6,1.4,1.2,2.5,1.2,2.5l0.7-2.4
	c0,0,1.7,0,2.5,0.8c0.8,0.8,3.4,2.2,3.8,2.1c0.4-0.1,3.8,2.4,3.8,2.4c-4.4-4.4-15.4-12.4-24.6-6.2C77.1,43.7,79.9,44.2,80.6,44.7z"></path><path class="st1" d="M103,43.5c0.2,0.3-1-3.1-1.3-3.4c-0.3-0.3-3.2-3.1-3.2-3.1l0.7-1.2l-2.1-1.1L94,34l-3.1,0.8L88.7,35l-3.6,2.4
	l1.5,0.5C93,33.7,100.3,38.8,103,43.5z"></path><path class="st2" d="M90.5,38.1l3,1.9l2.3,1.4L97,40l2.5,0.7c0,0,3.2,2.4,3.5,2.7c-2.7-4.7-10-9.8-16.4-5.6l4.6,1.4L90.5,38.1z"></path><path class="st5" d="M89.3,32.4c1.2-1.1,5.6-7.8,5.6-7.8s-3.1,2.2-3.4,2.2c-0.3,0-3,1.6-3.7,1.6c-0.7,0.1-2.2,1-2.6,2
	c-0.4,1.1-3.3,3.5-3.9,4c-0.4,0.4-1,2.7-1.4,4.3C81.6,35.8,88.3,33.3,89.3,32.4z"></path><path class="st1" d="M79.6,40.3c0,0,0.2-0.7,0.4-1.6C79.7,39.2,79.5,39.8,79.6,40.3z"></path><path class="st2" d="M84.2,37.8c1-0.4,3.6-1.2,4.4-1.5c0.8-0.3,4.6-3,4.6-3l1.4-2.1l-0.5-3.2l0.7-3.5c0,0-4.4,6.8-5.6,7.8
	c-1,0.9-7.7,3.4-9.3,6.3c-0.2,0.9-0.4,1.6-0.4,1.6S83.2,38.2,84.2,37.8z"></path><path class="st6" d="M67,56.9c0.1,0.7,0.2,1.6,0.3,2.5C67.1,58.1,67,56.9,67,56.9z"></path><path class="st0" d="M62.9,40.1c-0.5,1.2-3.5,9-5.1,10.9s-5.8,8.5-6.6,9.5c-0.8,1-7.6,12.3-8.1,13.2c-0.5,0.8-3.3,4.4-3.6,5.2
	c-0.2,0.8-4,6.9-5.4,8.1c-1.4,1.2-3.4,2.4-4.3,2.6c-0.8,0.2-2.1,0.5-2.1,0.5s-0.1-0.1,1.9-1.3c2-1.2,3-1.4,3.9-2.3
	c0.9-0.9,3.8-5.3,4-5.7s2.3-4.3,3-5.1c0.7-0.8,5.6-8.7,5.9-9.1c0.3-0.4,3.7-6.5,4.3-7.3c0.4-0.4,1.8-3,3.1-5.1
	c0.9-1.7,1.8-3.1,2-3.4c0.4-0.5,3.6-8,3.8-8.3c0.1-0.3,0.8-1.9,1-2.3c0.2-0.4,1.2-2,1.2-2L62.9,40.1z"></path><path class="st2" d="M50.9,59.3c0,0,1.9-3.2-0.2-4.5c-1.5-0.9-4.9-2.1-4.9-2.1l0.6,2.8c0,0-2.7,0-3.4-0.9c-0.7-0.9-1.9-2.8-1.9-2.8
	l0.2,4l-3.6-1.1c0,0,0.6,1,0.1,1.2c-0.6,0.2-1.6-0.4-1.6-0.4L35,54.1l-0.1,2l-2.6,0.7c0,0-2.4,0.4-3,0.6c-0.6,0.1-2.7,0.5-3,0.5
	c-0.3,0-1.5,0.1-1.5,0.1c8.8,2.2,20.5,2.4,25.6,2.3L50.9,59.3z"></path><path class="st1" d="M26.3,59.5c0.8,0.5,3.8,1.5,5.1,1.9c1.2,0.3,3.8,0.9,3.8,0.9l-1.6,1.6c0,0,3,0.3,3.3-0.2
	c0.3-0.5,2.9-0.7,2.9-0.7l-1.7,2c0,0,3.7-0.3,4.5-0.7c0.8-0.4,3-1.1,3.9-1.4c0.8-0.3,2.9-1.2,2.9-1.2l1-1.5
	c-5.1,0.1-16.8-0.1-25.6-2.3C24.7,57.9,25.6,59.1,26.3,59.5z"></path><path class="st1" d="M59.1,71.7c-1.8-2.3-6.3-8.8-7.8-11.2l0.6,1.2c0,0-0.5,2-0.5,2.6c-0.1,0.6,0.3,4.9,0.4,7.2
	c0,2.4,0.8,3.1,0.8,3.1s1.5-2.4,1.6-2.6c0.1-0.2,0.7,1.3,0.7,2c0,0.7,1.3,1.4,2.1,1.4c0.8,0,1.7,1.6,2.2,2c0.5,0.4,2.1,0.6,2.4,0.8
	c0.3,0.2,0.6,1.1,1,0.8c0.4-0.3,1.8,0,2.6,0.6c0.8,0.6,6.4,1.7,6.4,1.7C67.2,79.5,60.9,74,59.1,71.7z"></path><path class="st2" d="M66.6,77.9c-0.3-0.3,0-1,0-1l-3.4-5l1.3-0.1l-1.2-1.7c0,0-1.6-2.2-2.4-2.7c-0.8-0.5-0.9-1-0.3-1s2.1-1,2.1-1
	s-0.7-0.5-1.1-0.8c-0.4-0.3-1.5-0.8-2.8-1.5c-1.3-0.7-4.2-1.7-4.2-1.7s1-0.2,1.9-0.5c0.9-0.3,0.3-1.1,0.3-1.1s-1.1,0-2.4,0.1
	c-1.2,0.1-0.7-0.7-0.8-1.3l-2.3,1.9c1.5,2.3,6,8.9,7.8,11.2c1.8,2.3,8.1,7.8,12.5,9.6c0,0-0.7-0.6-1.9-1.1
	C68.5,79.7,66.8,78.2,66.6,77.9z"></path><path class="st2" d="M48.1,64c0,0-3.5,1-5.2,1.2c-1.7,0.2-3.2,1.5-3.2,1.5l-2.1,0.6l-4.8-1.2l1,1.3c0,0-3.6-1.5-4.5-1.2
	c-0.9,0.3-2.7,0.1-2.7,0.1l-0.9,1.4c0,0-3.5-1.1-5.5-1.7c-2-0.6-4.2-1.5-3.9-1.3C37.5,73.4,39.8,69.6,48.1,64z"></path><path class="st1" d="M27.3,71l-0.4,1.2l2.4-0.1l-1.4,2.4l4.5-0.7l0.1,2.3c0,0,2.5-0.2,4.7-1.7c2.1-1.5,4.1-2,4.5-2.4
	c0.4-0.4,2.6-1,2.6-1l1.4-1.5l1-2.8l1.5-2.6c-8.2,5.5-10.5,9.3-31.7,0.9c0.3,0.2,7.4,5.4,7.4,5.4L27.3,71z"></path><path class="st1" d="M47.8,72c0,0.7,0.5,4.4,0.9,5c0.4,0.6,1.2,4.8,1.5,5.3c0.3,0.6,2.8,1.3,2.8,1.3s0.9-0.9,1-0.5
	c0.2,0.4,1.9,1.5,1.9,1.5s0.2-1.2,0.4-1c0.3,0.2,2.5,1.3,2.5,1.3l0.2-1.1c0,0,1.3,1.2,2.7,1.7c1.4,0.5,5.2,0.3,5.2,0.3
	c-4.5-0.9-13.8-8.4-15.9-11.2c-2.2-2.8-2.7-4.7-2.8-8.3c-0.1-0.4-0.1-0.7-0.1-0.7l-0.5,3.7C47.7,69.6,47.7,71.3,47.8,72z"></path><path class="st2" d="M51,74.6c2.2,2.8,11.5,10.3,15.9,11.2c0,0-1.7-1.1-2.4-1.5c-0.7-0.5-2.3-1.6-3.3-2.9c-1-1.3-3.1-3.8-3.1-3.8
	l0.5-0.8c0,0-0.9-1.3-1.6-1.3s-2.1-1.4-2.1-1.4l-3.1-2.5l3.2-1.9c0,0-1.8-0.2-3.2,0.4c-1.4,0.6-2.1,0.1-2.7-0.8
	c-0.4-0.6-0.7-2.1-0.8-3C48.3,69.9,48.9,71.7,51,74.6z"></path><path class="st2" d="M46.4,70.8c0,0,0.3,2.9-0.1,4c-0.4,1.1-0.9,4.6-1,5.6c0,1,1.7,2.9,2.2,3.4c0.5,0.5,1.9,2.1,4.1,3.8
	s4.6,3.9,5.1,4.4c0.5,0.5,1.4,2.1,1.4,2.1s-5.6-2.3-6.2-2.9s-1.4,0.2-1.4,0.2l-2.7-1.7c0,0-0.9,0-1.3-0.2c-0.4-0.2-1.2-1.9-1.5-3.3
	c-0.3-1.4-0.8-5.1-1-5.3c-0.2-0.2-1.8-3.3-1.4-4.5c0.4-1.2,1.1-2.4,1.6-3.1c0.5-0.8,1.4-2.8,1.4-2.8L46.4,70.8z"></path><path class="st1" d="M47.6,94.6l0.2-4.8l1.2-0.1l-1.8-3.6l0.3-2.3l-2-2.6l-2.2-3.9l-0.7-0.9C42.6,86.2,46.9,92.5,47.6,94.6z"></path><path class="st2" d="M39.4,82.9c0,0-3,5.3-2.1,6.7c0.9,1.4,3-2.2,3-2.5c0-0.3,1.4-3.2,1.4-3.2L41.5,87l0.4,2.3l1.4,1.5l1.9,1.1
	l0.4-1l0.1,2l2,1.7c-0.8-2.1-5-8.4-4.9-18.2l-2.1,3.7L39.4,82.9z"></path><path class="st1" d="M16.3,76.8l7.5,3.6l2.6,0.8l1.5,0.4l-1.4,1.9l2.8,0.7c0,0,1,0.3,2.2-0.1c1.2-0.4,3.2-1.4,3.5-1.6
	c0.3-0.2,0.9-1.2,1.8-1.5c0.8-0.3,1.7-2.3,1.7-2.3l3.1-4.3C35,83.3,21.9,79.5,16.3,76.8z"></path><path class="st2" d="M37.9,74.6c-0.8-0.3-2.9,1.3-2.9,1.3l-3.6-1L29.3,75l2.9,2.7c0,0-1.7,1.2-2.8,0.1s-2-1.9-2-1.9l0.1,2.5
	c0,0-1.6,0.6-2.6,0.1c-1-0.5-4-0.9-4.3-0.7c-0.3,0.2-4.4-1-4.4-1c5.6,2.7,18.7,6.5,25.2-2.4C41.6,74.5,38.8,74.9,37.9,74.6z"></path><path class="st1" d="M17.3,83.3c-0.3-0.2,2,2.6,2.4,2.7c0.3,0.1,4,1.8,4,1.8l-0.3,1.4l2.3,0.3l3.3-0.3l2.7-1.7l2-1l2.6-3.5l-1.6,0.1
	C30,89.2,21.4,86.8,17.3,83.3z"></path><path class="st2" d="M30.9,84.2l-3.4-0.8l-2.6-0.5L24,84.6l-2.6,0.2c0,0-3.9-1.2-4.2-1.4c4.2,3.5,12.8,5.9,17.4-0.2l-4.8,0.2
	L30.9,84.2z"></path><path class="st1" d="M33.9,89.2c-0.7,1.4-2.7,9.3-2.7,9.3s2.2-3.1,2.5-3.2c0.2-0.1,2.3-2.5,2.9-2.8c0.6-0.3,1.7-1.6,1.8-2.8
	c0-1.1,1.9-4.4,2.3-5.1c0.2-0.5,0.1-2.9-0.1-4.5C40,83.4,34.5,88,33.9,89.2z"></path><path class="st1" d="M40.4,78.4c0,0,0.1,0.7,0.2,1.7C40.7,79.5,40.7,78.9,40.4,78.4z"></path><path class="st7" d="M36.9,82.4c-0.8,0.7-3,2.3-3.6,2.9c-0.6,0.5-3.4,4.4-3.4,4.4L29.2,92l1.5,2.9l0.5,3.6c0,0,1.9-7.8,2.7-9.3
	c0.6-1.2,6.1-5.8,6.7-9.1c-0.1-0.9-0.2-1.7-0.2-1.7S37.7,81.7,36.9,82.4z"></path><path class="st6" d="M46.7,58.6c-0.3-0.7-0.7-1.5-1.1-2.3C46.2,57.6,46.7,58.6,46.7,58.6z"></path><path class="st0" d="M57,72.2c-0.6-1.2-4-8.8-5.6-10.7c-1.6-1.8-6.2-8.2-7-9.2c-0.8-1-8.2-11.9-8.7-12.8s-3.6-4.2-3.8-5
	c-0.3-0.8-4.4-6.7-5.8-7.8c-1.5-1.1-3.6-2.2-4.4-2.4S19.5,24,19.5,24s-0.1,0.1,2,1.2c2.1,1.1,3,1.2,4,2.1s4.1,5.1,4.3,5.5
	c0.2,0.4,2.5,4.1,3.3,4.9s6,8.4,6.3,8.8c0.3,0.4,4,6.4,4.7,7.1c0.4,0.4,2,2.9,3.3,5c1,1.6,1.9,3,2.1,3.3c0.5,0.5,4,7.8,4.1,8.1
	s0.9,1.9,1.1,2.3c0.2,0.4,1.3,1.9,1.3,1.9L57,72.2z"></path><path class="st2" d="M44,53.6c0,0,2.1,3.1,0,4.5c-1.5,1-4.8,2.4-4.8,2.4l0.5-2.9c0,0-2.7,0.1-3.3,1.1c-0.7,1-1.8,2.9-1.8,2.9v-4
	l-3.5,1.2c0,0,0.6-1.1,0-1.2c-0.6-0.2-1.5,0.5-1.5,0.5l-1.1,1.5l-0.2-2L25.5,57c0,0-2.4-0.3-3-0.4c-0.6-0.1-2.7-0.3-3-0.3
	s-1.5,0-1.5,0c8.7-2.7,20.4-3.3,25.5-3.5L44,53.6z"></path><path class="st1" d="M19.5,54.6c0.8-0.5,3.8-1.7,5-2.1c1.2-0.4,3.8-1.1,3.8-1.1l-1.7-1.5c0,0,3-0.5,3.3,0c0.3,0.5,2.9,0.6,2.9,0.6
	L31,48.5c0,0,3.7,0.1,4.5,0.5c0.8,0.4,3.1,1,3.9,1.2c0.8,0.2,3,1,3,1l1,1.5c-5.1,0.2-16.8,0.9-25.5,3.5C18,56.3,18.7,55.1,19.5,54.6
	z"></path><path class="st1" d="M51.6,40.8c-1.7,2.4-5.9,9.1-7.3,11.5l0.6-1.3c0,0-0.6-2-0.7-2.5c-0.1-0.6,0.1-4.9,0-7.3
	c-0.1-2.4,0.7-3.1,0.7-3.1s1.6,2.4,1.7,2.5c0.1,0.2,0.6-1.3,0.6-2c0-0.7,1.2-1.5,2-1.5s1.6-1.7,2.1-2.1c0.5-0.4,2.1-0.7,2.4-0.9
	c0.2-0.2,0.6-1.1,1-0.9c0.4,0.2,1.8-0.1,2.6-0.7c0.8-0.7,6.3-2,6.3-2C59.4,32.6,53.3,38.4,51.6,40.8z"></path><path class="st2" d="M58.8,34.3c-0.2,0.3,0,1,0,1l-3.2,5.1H57l-1.1,1.8c0,0-1.5,2.3-2.3,2.9c-0.8,0.6-0.9,1.1-0.2,1.1
	c0.7,0,2.1,0.9,2.1,0.9s-0.7,0.5-1.1,0.8s-1.5,0.9-2.7,1.6c-1.2,0.7-4.1,1.9-4.1,1.9s1,0.2,1.9,0.4c0.9,0.2,0.3,1,0.3,1
	s-1.1,0-2.4,0c-1.2,0-0.7,0.8-0.7,1.3l-2.4-1.8c1.4-2.4,5.6-9.2,7.3-11.5c1.7-2.4,7.7-8.2,12.1-10.2c0,0-0.7,0.7-1.9,1.2
	C60.6,32.4,59,34,58.8,34.3z"></path><path class="st2" d="M41,49c0,0-3.5-0.8-5.2-0.9c-1.7-0.1-3.3-1.4-3.3-1.4l-2.1-0.5l-4.7,1.4l1-1.4c0,0-3.5,1.6-4.4,1.4
	s-2.7,0-2.7,0l-1-1.4c0,0-3.4,1.2-5.4,2c-2,0.7-4.1,1.7-3.8,1.5C30,40.2,32.5,43.9,41,49z"></path><path class="st8" d="M19.9,43.1l-0.4-1.2h2.4l-1.5-2.3l4.5,0.5v-2.3c0,0,2.5,0.1,4.7,1.5c2.2,1.4,4.2,1.8,4.6,2.2
	c0.4,0.4,2.6,0.9,2.6,0.9l1.4,1.4l1.1,2.8L41,49c-8.5-5.1-10.9-8.8-31.7,0.6c0.2-0.2,7.1-5.8,7.1-5.8L19.9,43.1z"></path><path class="st1" d="M40.3,41c0-0.7,0.3-4.4,0.7-5.1c0.3-0.7,1-4.8,1.2-5.4c0.2-0.6,2.8-1.4,2.8-1.4s0.9,0.9,1.1,0.5
	c0.2-0.4,1.8-1.5,1.8-1.5s0.2,1.1,0.5,1c0.2-0.2,2.4-1.5,2.4-1.5l0.2,1.1c0,0,1.2-1.2,2.6-1.8c1.4-0.6,5.2-0.6,5.2-0.6
	c-4.4,1.1-13.4,9-15.4,12c-2,2.9-2.5,4.8-2.4,8.4c0,0.4-0.1,0.7-0.1,0.7l-0.7-3.7C40.4,43.5,40.3,41.8,40.3,41z"></path><path class="st2" d="M43.4,38.4c2-2.9,11-10.8,15.4-12c0,0-1.6,1.1-2.3,1.6c-0.7,0.5-2.2,1.7-3.2,3.1c-1,1.4-2.9,3.9-2.9,3.9
	l0.5,0.8c0,0-0.8,1.3-1.5,1.4c-0.7,0.1-2,1.5-2,1.5l-3,2.6l3.3,1.8c0,0-1.8,0.3-3.2-0.2c-1.4-0.6-2.1,0-2.7,0.9
	c-0.4,0.6-0.6,2.1-0.7,3C40.9,43.2,41.4,41.3,43.4,38.4z"></path><path class="st2" d="M39,42.3c0,0,0.2-2.9-0.3-4s-1.1-4.6-1.2-5.5s1.5-2.9,2-3.5s1.8-2.2,3.9-4s4.4-4.1,4.9-4.6s1.3-2.1,1.3-2.1
	s-5.5,2.6-6.1,3.2s-1.4-0.2-1.4-0.2l-2.6,1.8c0,0-0.9,0-1.3,0.2c-0.4,0.2-1.1,2-1.4,3.3s-0.6,5.1-0.7,5.4s-1.6,3.4-1.1,4.6
	c0.5,1.2,1.2,2.3,1.7,3.1s1.5,2.8,1.5,2.8L39,42.3z"></path><path class="st1" d="M39.1,18.5l0.4,4.8h1.2L39.1,27l0.4,2.3L37.6,32l-2,4L35,36.9C34.5,27.2,38.4,20.7,39.1,18.5z"></path><path class="st2" d="M31.4,30.6c0,0-3.2-5.1-2.4-6.6c0.8-1.5,3.1,2,3.1,2.4s1.5,3.1,1.5,3.1l-0.3-3.1l0.2-2.4l1.3-1.6l1.8-1.1l0.5,1
	v-2l1.9-1.8c-0.7,2.1-4.6,8.6-4.1,18.4l-2.3-3.5L31.4,30.6z"></path><path class="st1" d="M8.7,37.8l7.3-4l2.6-0.9l1.5-0.5l-1.5-1.8l2.7-0.8c0,0,1-0.3,2.2,0c1.2,0.3,3.3,1.2,3.6,1.4
	c0.3,0.2,1,1.2,1.8,1.4c0.9,0.2,1.8,2.2,1.8,2.2l3.3,4.2C27,30.4,14.1,34.8,8.7,37.8z"></path><path class="st2" d="M30.3,38.9c-0.8,0.3-2.9-1.1-2.9-1.1L23.9,39h-2.2l2.8-2.8c0,0-1.8-1.1-2.8,0c-1,1.1-1.9,2-1.9,2v-2.5
	c0,0-1.6-0.5-2.6,0c-1,0.5-3.9,1.1-4.2,0.9c-0.3-0.2-4.3,1.2-4.3,1.2c5.5-3,18.4-7.4,25.3,1.1C34,38.9,31.2,38.6,30.3,38.9z"></path><path class="st1" d="M9.3,31.3c-0.3,0.2,1.9-2.7,2.2-2.9c0.3-0.2,3.9-2,3.9-2L15.1,25l2.3-0.4l3.3,0.2l2.7,1.6l2.1,0.9l2.7,3.3h-1.6
	C21.7,24.8,13.3,27.5,9.3,31.3z"></path><path class="st2" d="M22.9,29.7l-3.4,0.9l-2.6,0.7L16,29.7l-2.6,0c0,0-3.8,1.4-4.1,1.6c4-3.7,12.5-6.5,17.3-0.6h-4.8L22.9,29.7z"></path><path class="st1" d="M25.6,24.6c-0.8-1.4-3.1-9.1-3.1-9.1s2.4,3,2.6,3.1c0.2,0.1,2.4,2.4,3.1,2.6c0.6,0.2,1.8,1.5,1.9,2.7
	c0.1,1.1,2.1,4.3,2.5,5c0.3,0.5,0.2,2.9,0.1,4.5C32,30,26.3,25.8,25.6,24.6z"></path><path class="st1" d="M32.6,35c0,0,0.1-0.7,0.1-1.7C32.9,33.9,32.9,34.5,32.6,35z"></path><path class="st2" d="M28.9,31.3c-0.9-0.7-3.1-2.2-3.8-2.7c-0.6-0.5-3.6-4.2-3.6-4.2L20.8,22l1.4-2.9l0.3-3.6c0,0,2.3,7.7,3.1,9.1
	c0.7,1.2,6.4,5.5,7.1,8.8c0,0.9-0.1,1.7-0.1,1.7S29.8,31.9,28.9,31.3z"></path><path class="st6" d="M39.9,54.5c-0.3,0.7-0.6,1.5-1,2.3C39.4,55.6,39.9,54.5,39.9,54.5z"></path><path class="st0" d="M36.6,50.5c1.1,0.7,7.9,5.6,10.2,6.3c2.3,0.7,9.5,3.9,10.7,4.4c1.2,0.4,13.1,6.1,14,6.6
	c0.9,0.4,5.2,1.8,5.8,2.4c0.7,0.6,7.2,3.6,9,3.8c1.8,0.2,4.2,0.1,5-0.2c0.8-0.3,2-0.7,2-0.7s0-0.1-2.3,0c-2.4,0.1-3.2,0.5-4.5,0.2
	c-1.3-0.3-6.1-2.3-6.5-2.5s-4.3-2.3-5.3-2.6c-1-0.3-9.4-4.2-9.9-4.4c-0.5-0.2-6.6-3.5-7.6-3.8c-0.6-0.2-3.1-1.5-5.4-2.6
	c-1.7-0.9-3.2-1.6-3.5-1.7c-0.7-0.2-7.4-4.7-7.7-4.8c-0.3-0.2-1.7-1.2-2.1-1.4c-0.4-0.2-2.1-1-2.1-1L36.6,50.5z"></path><path class="st2" d="M57.2,60c0,0-3.3-1.6-2.3-3.8c0.8-1.6,2.9-4.5,2.9-4.5l1,2.7c0,0,2.3-1.4,2.3-2.6s0.1-3.4,0.1-3.4l2,3.4
	l2.4-2.8c0,0,0,1.2,0.6,1.1c0.6-0.1,1.1-1.2,1.1-1.2l0.2-1.9l1.2,1.6l2.5-0.9c0,0,2.3-1,2.8-1.2c0.5-0.2,2.5-1.1,2.8-1.3
	c0.3-0.2,1.3-0.8,1.3-0.8c-6.1,6.7-15.9,13.2-20.2,15.9L57.2,60z"></path><path class="st1" d="M77.9,46.7c-0.4,0.8-2.4,3.4-3.2,4.4c-0.8,1-2.7,2.8-2.7,2.8l2.3,0.5c0,0-2.4,2-2.9,1.7c-0.5-0.3-2.8,1-2.8,1
	l2.5,0.7c0,0-3.2,1.8-4.1,1.8c-0.9,0.1-3.2,0.7-4,0.9c-0.8,0.2-3.1,0.6-3.1,0.6l-1.6-0.8c4.3-2.7,14-9.3,20.2-15.9
	C78.3,44.4,78.3,45.9,77.9,46.7z"></path><path class="st1" d="M57.2,74.9c0.3-2.9,0.5-10.9,0.4-13.6l0.1,1.4c0,0,1.5,1.4,1.8,1.8c0.4,0.4,2.4,4.3,3.7,6.3c1.3,2,1,3,1,3
	s-2.6-1.2-2.8-1.3c-0.2-0.1,0.1,1.4,0.5,2.1c0.4,0.6-0.3,1.9-1,2.3c-0.7,0.4-0.5,2.3-0.8,2.9c-0.2,0.6-1.5,1.6-1.6,2
	c-0.1,0.3,0.1,1.3-0.4,1.3c-0.5,0-1.5,1-1.9,2c-0.4,1-4.4,4.9-4.4,4.9C54.6,85.8,56.9,77.8,57.2,74.9z"></path><path class="st2" d="M54.3,84.1c0-0.4-0.5-0.8-0.5-0.8l0.1-6l-1.2,0.7l0-2.1c0,0,0.1-2.7,0.5-3.6c0.4-0.9,0.2-1.4-0.3-1
	s-2.3,0.3-2.3,0.3s0.3-0.8,0.5-1.2s0.8-1.5,1.5-2.8c0.7-1.3,2.6-3.7,2.6-3.7s-0.9,0.4-1.8,0.6c-0.9,0.2-0.8-0.7-0.8-0.7s1-0.6,2-1.2
	c1.1-0.6,0.2-1,0-1.5l2.9,0.3c0,2.8-0.1,10.7-0.4,13.6c-0.3,2.9-2.5,11-5.2,14.9c0,0,0.2-0.9,1-2C53.7,86.7,54.2,84.5,54.3,84.1z"></path><path class="st2" d="M62.2,62.4c0,0,3.5-1.1,5-1.9c1.5-0.8,3.5-0.5,3.5-0.5l2.1-0.7l3.4-3.6L76,57.5c0,0,2.2-3.2,3.1-3.4
	c0.9-0.2,2.3-1.4,2.3-1.4l1.5,0.7c0,0,2.3-2.8,3.6-4.4c1.3-1.6,2.6-3.5,2.6-3.2C76.1,64.4,72.1,62.5,62.2,62.4z"></path><path class="st1" d="M83.3,56.8l1,0.8l-2.1,1.2l2.5,1.2l-4.1,1.9l1.2,2c0,0-2.2,1.2-4.8,1.1c-2.6-0.1-4.6,0.6-5.1,0.4
	c-0.5-0.1-2.7,0.6-2.7,0.6l-2-0.5l-2.4-1.8l-2.7-1.4c9.9,0.1,13.9,2.1,27-16.6c-0.1,0.3-3.2,8.6-3.2,8.6L83.3,56.8z"></path><path class="st9" d="M66.8,68.9c0.4,0.6,2,4,2,4.7c0,0.7,1.6,4.6,1.7,5.2c0.1,0.6-1.7,2.6-1.7,2.6s-1.2-0.3-1.2,0.1
	s-0.8,2.2-0.8,2.2s-0.8-0.9-0.9-0.6c-0.1,0.3-1.4,2.5-1.4,2.5l-0.7-0.8c0,0-0.4,1.7-1.3,2.9c-0.9,1.2-4.2,3.1-4.2,3.1
	c3.2-3.2,6.9-14.6,7.2-18.1c0.2-3.6-0.3-5.4-2.2-8.5C63.1,64,63,63.7,63,63.7l2.4,2.8C65.5,66.8,66.4,68.3,66.8,68.9z"></path><path class="st2" d="M65.5,72.8c-0.2,3.6-4,14.9-7.2,18.1c0,0,0.8-1.8,1.1-2.6c0.3-0.8,1-2.6,1.2-4.3c0.1-1.7,0.5-4.9,0.5-4.9
	l-0.8-0.4c0,0,0-1.6,0.6-2c0.6-0.4,1-2.3,1-2.3l1.3-3.8l-3.7,0.1c0,0,1.4-1.2,2.9-1.4c1.5-0.2,1.8-1.1,1.9-2.1c0-0.7-0.6-2.1-1-3
	C65.2,67.4,65.7,69.3,65.5,72.8z"></path><path class="st2" d="M67.3,67.1c0,0,1.3,2.6,2.3,3.3c1,0.7,3.3,3.4,3.9,4.2s0.2,3.3,0,4.1c-0.1,0.7-0.5,2.8-1.4,5.4
	c-0.9,2.6-1.7,5.7-1.8,6.5c-0.1,0.7,0,2.5,0,2.5s3.4-5,3.6-5.8c0.2-0.8,1.3-0.6,1.3-0.6l1.3-2.9c0,0,0.8-0.4,1-0.8
	c0.2-0.4,0-2.3-0.5-3.6c-0.5-1.3-2.1-4.7-2.1-5c0-0.3-0.3-3.8-1.4-4.5s-2.2-1.4-3-1.8c-0.8-0.4-2.7-1.6-2.7-1.6L67.3,67.1z"></path><path class="st1" d="M79.3,87.7l-2.8-3.9l-1.1,0.6l-0.5-4l-1.5-1.8l0.2-3.3l-0.3-4.4l0.1-1.1C78.8,77.9,78.7,85.5,79.3,87.7z"></path><path class="st2" d="M79.7,73.4c0,0,5.4,2.8,5.4,4.5c0,1.7-3.7-0.2-3.9-0.5c-0.2-0.3-2.9-1.9-2.9-1.9l1.9,2.5l1,2.2l-0.3,2l-1,1.9
	L79,83.5l1,1.7l-0.7,2.5c-0.5-2.2-0.4-9.8-5.8-17.9l3.8,1.9L79.7,73.4z"></path><path class="st1" d="M95.7,55.7l-4.3,7.2l-1.8,2.1l-1,1.2l2.2,0.8L88.9,69c0,0-0.7,0.8-1.9,1.1c-1.2,0.3-3.4,0.6-3.8,0.6
	c-0.4,0-1.4-0.5-2.3-0.3c-0.9,0.2-2.6-1-2.6-1l-5-1.9C83.7,71.4,92.5,61,95.7,55.7z"></path><path class="st2" d="M76.4,65.7c0.5-0.7,3.1-0.5,3.1-0.5l2.4-2.8l1.9-1.1l-1,3.8c0,0,2.1,0.1,2.4-1.4s0.6-2.7,0.6-2.7l1.3,2.2
	c0,0,1.7-0.4,2.2-1.3c0.6-0.9,2.8-2.9,3.2-3c0.4,0,3.1-3.2,3.1-3.2C92.5,61,83.7,71.4,73.3,67.5C73.3,67.5,75.9,66.4,76.4,65.7z"></path><path class="st1" d="M98.5,61.6c0.1-0.4-0.3,3.3-0.5,3.6c-0.2,0.3-2.3,3.7-2.3,3.7l1,1l-1.8,1.5L92,73l-3.2,0l-2.3,0.2l-4-1.5
	l1.3-0.8C91,73.5,96.9,66.9,98.5,61.6z"></path><path class="st2" d="M87.6,69.9l2.5-2.5l1.9-1.9l1.6,0.9l2.3-1.3c0,0,2.6-3.1,2.7-3.5C96.9,66.9,91,73.5,83.8,71l4.1-2.4L87.6,69.9z
	"></path><path class="st1" d="M87.8,75.7c1.4,0.8,7.3,6.3,7.3,6.3s-3.6-1.4-3.8-1.3c-0.3,0.1-3.3-0.8-4-0.7c-0.7,0.1-2.4-0.4-3-1.3
	c-0.6-0.9-4-2.6-4.7-3c-0.5-0.3-1.6-2.4-2.4-3.9C79.5,74.2,86.6,75,87.8,75.7z"></path><path class="st1" d="M76.5,70.2c0,0,0.3,0.6,0.8,1.5C76.8,71.3,76.5,70.8,76.5,70.2z"></path><path class="st2" d="M81.6,71.6c1.1,0.1,3.8,0.3,4.6,0.4c0.8,0.1,5.2,1.8,5.2,1.8l1.9,1.7l0.3,3.2l1.5,3.3c0,0-5.9-5.5-7.3-6.3
	c-1.2-0.7-8.2-1.5-10.6-4c-0.4-0.8-0.8-1.5-0.8-1.5S80.5,71.5,81.6,71.6z"></path><path class="st6" d="M60.3,57.1c-0.1-0.7-0.2-1.6-0.3-2.5C60.2,55.9,60.3,57.1,60.3,57.1z"></path><path class="st0" d="M62.1,45.9c-1.2,0.5-8.9,3.5-10.7,5c-1.8,1.5-8.3,5.5-9.3,6.3c-1,0.7-12,7.3-12.8,7.8s-4.2,3.2-5,3.4
	c-0.8,0.2-6.8,3.9-7.9,5.2c-1.1,1.3-2.2,3.2-2.4,3.9c-0.2,0.7-0.4,1.9-0.4,1.9s0.1,0.1,1.2-1.8s1.3-2.7,2.2-3.6
	c0.9-0.8,5.1-3.6,5.5-3.8c0.4-0.2,4.2-2.2,4.9-2.9s8.5-5.3,8.9-5.6c0.4-0.3,6.4-3.5,7.2-4.2c0.4-0.4,2.9-1.7,5-2.9
	c1.6-0.9,3.1-1.7,3.3-1.9c0.5-0.4,7.8-3.6,8.1-3.7c0.3-0.1,1.9-0.8,2.3-1c0.4-0.2,1.9-1.1,1.9-1.1L62.1,45.9z"></path><path class="st2" d="M43.4,57.5c0,0,3.1-1.8,4.5,0c1,1.4,2.3,4.4,2.3,4.4l-2.8-0.5c0,0,0.1,2.4,1,3c1,0.6,2.9,1.7,2.9,1.7l-4,0
	l1.2,3.2c0,0-1.1-0.5-1.2,0c-0.2,0.5,0.5,1.4,0.5,1.4l1.5,1.1l-2,0.2l-0.6,2.4c0,0-0.4,2.2-0.4,2.7c-0.1,0.5-0.4,2.5-0.4,2.8
	c0,0.3,0,1.4,0,1.4c-2.6-7.9-3.1-18.5-3.3-23.1L43.4,57.5z"></path><path class="st1" d="M44.1,79.7c-0.5-0.7-1.7-3.4-2.1-4.6c-0.4-1.1-1-3.4-1-3.4l-1.6,1.5c0,0-0.5-2.7,0-3c0.5-0.3,0.6-2.7,0.6-2.7
	l-1.9,1.6c0,0,0.1-3.3,0.5-4.1c0.4-0.7,1-2.8,1.2-3.5c0.3-0.7,1.1-2.7,1.1-2.7l1.5-0.9c0.1,4.6,0.7,15.3,3.3,23.1
	C45.8,81.1,44.6,80.4,44.1,79.7z"></path><path class="st1" d="M30.6,50.4c2.3,1.6,9.1,5.5,11.5,6.7l-1.3-0.5c0,0-2,0.5-2.5,0.6c-0.6,0.1-4.9-0.1-7.3-0.1
	c-2.4,0-3.1-0.6-3.1-0.6s2.4-1.5,2.5-1.5c0.2-0.1-1.3-0.6-2-0.6c-0.7,0-1.5-1.1-1.4-1.9c0-0.7-1.7-1.5-2.1-1.9
	c-0.4-0.4-0.6-1.9-0.9-2.2c-0.2-0.2-1.1-0.5-0.9-0.9c0.2-0.4-0.1-1.6-0.7-2.4c-0.6-0.7-1.9-5.7-1.9-5.7
	C22.6,43.3,28.3,48.8,30.6,50.4z"></path><path class="st2" d="M24.2,43.8c0.3,0.2,1,0,1,0l5.1,2.9l0-1.2l1.8,1c0,0,2.3,1.4,2.8,2.1c0.6,0.7,1.1,0.8,1.1,0.2
	c0-0.6,0.9-1.9,0.9-1.9s0.5,0.6,0.8,1c0.3,0.4,0.9,1.3,1.6,2.5c0.7,1.1,1.8,3.7,1.8,3.7s0.2-0.9,0.4-1.7c0.3-0.8,1-0.3,1-0.3
	s0,1,0,2.1c0,1.1,0.7,0.6,1.3,0.7l-1.8,2.1c-2.4-1.3-9.1-5.1-11.5-6.7c-2.3-1.6-8.1-7.1-10.1-11.1c0,0,0.6,0.6,1.2,1.7
	C22.3,42.2,23.9,43.6,24.2,43.8z"></path><path class="st2" d="M38.8,60.2c0,0-0.9,3.2-1,4.7c-0.1,1.6-1.4,2.9-1.4,2.9l-0.5,1.9l1.3,4.3l-1.4-0.9c0,0,1.6,3.2,1.3,4
	s0,2.5,0,2.5l-1.4,0.9c0,0,1.2,3.1,1.9,4.9c0.7,1.8,1.7,3.7,1.4,3.5C29.8,70,33.5,67.8,38.8,60.2z"></path><path class="st10" d="M32.6,79.2l-1.2,0.4l0-2.2l-2.3,1.4l0.5-4.1l-2.3,0c0,0,0.1-2.3,1.5-4.3c1.4-2,1.9-3.8,2.3-4.2
	c0.4-0.4,0.9-2.4,0.9-2.4l1.4-1.3l2.8-1l2.6-1.4c-5.2,7.7-8.9,9.8,0.3,28.7c-0.2-0.2-5.7-6.5-5.7-6.5L32.6,79.2z"></path><path class="st1" d="M30.8,60.7c-0.7,0-4.4-0.3-5-0.7c-0.6-0.3-4.8-0.9-5.4-1.2c-0.6-0.2-1.4-2.5-1.4-2.5s0.9-0.8,0.5-1
	c-0.4-0.2-1.5-1.6-1.5-1.6s1.1-0.2,1-0.4c-0.2-0.2-1.4-2.2-1.4-2.2l1.1-0.2c0,0-1.2-1.1-1.8-2.4c-0.6-1.3-0.5-4.7-0.5-4.7
	c1.1,4,8.9,12.2,11.8,14.1c2.9,1.9,4.8,2.3,8.4,2.3c0.4,0,0.7,0.1,0.7,0.1l-3.7,0.6C33.2,60.7,31.5,60.7,30.8,60.7z"></path><path class="st2" d="M28.1,57.8C25.2,56,17.4,47.7,16.3,43.7c0,0,1.1,1.5,1.6,2.1c0.5,0.6,1.7,2,3.1,2.9c1.4,0.9,3.9,2.7,3.9,2.7
	l0.8-0.4c0,0,1.3,0.8,1.4,1.4c0.1,0.7,1.4,1.9,1.4,1.9l2.6,2.8l1.8-2.9c0,0,0.3,1.6-0.3,2.9c-0.6,1.3,0,1.9,0.9,2.4
	c0.6,0.4,2.1,0.6,3,0.6C32.9,60.1,31,59.7,28.1,57.8z"></path><path class="st2" d="M32,61.9c0,0-2.9-0.2-4,0.3c-1.1,0.4-4.6,1-5.6,1s-2.9-1.4-3.5-1.9c-0.6-0.5-2.2-1.7-4-3.6
	c-1.8-1.9-4-4-4.6-4.5S8.3,52,8.3,52s2.6,5,3.1,5.5c0.6,0.5-0.2,1.3-0.2,1.3l1.8,2.4c0,0,0,0.8,0.2,1.1c0.2,0.3,1.9,1,3.3,1.3
	s5.1,0.6,5.4,0.7c0.2,0.2,3.4,1.5,4.6,1.1c1.2-0.4,2.3-1.1,3.1-1.5c0.7-0.4,2.8-1.3,2.8-1.3L32,61.9z"></path><path class="st1" d="M8.2,61.6l4.8-0.3l0-1.1l3.7,1.5l2.3-0.3l2.7,1.7l3.9,1.8l0.9,0.6C16.8,65.8,10.4,62.2,8.2,61.6z"></path><path class="st2" d="M20.2,68.6c0,0-5.2,2.9-6.6,2.1c-1.5-0.8,2.1-2.8,2.4-2.8c0.3,0,3.1-1.4,3.1-1.4L16,66.8l-2.4-0.2l-1.5-1.2
	L11,63.7l1-0.4l-2,0l-1.8-1.7c2.1,0.6,8.6,4.2,18.3,3.9l-3.6,2L20.2,68.6z"></path><path class="st1" d="M27.2,89.4l-3.9-6.7l-0.9-2.4L21.9,79l-1.8,1.3l-0.8-2.5c0,0-0.3-0.9,0-2c0.3-1.1,1.3-2.9,1.4-3.2
	c0.2-0.3,1.2-0.9,1.4-1.6c0.2-0.8,2.2-1.6,2.2-1.6l4.2-3C19.9,72.6,24.2,84.4,27.2,89.4z"></path><path class="st2" d="M28.5,69.7c0.3,0.7-1.2,2.7-1.2,2.7l1.2,3.2l0,2L25.7,75c0,0-1.2,1.6,0,2.5c1.1,0.9,2,1.7,2,1.7l-2.5,0
	c0,0-0.5,1.5,0,2.4c0.5,0.9,1.1,3.6,0.9,3.9c-0.2,0.3,1.2,3.9,1.2,3.9c-2.9-5-7.2-16.7,1.4-23C28.6,66.4,28.2,69,28.5,69.7z"></path><path class="st1" d="M20.7,88.7c0.2,0.3-2.7-1.8-2.8-2c-0.2-0.3-2-3.6-2-3.6l-1.4,0.3L14,81.3l0.2-3l1.6-2.5l1-1.9l3.4-2.4l0,1.4
	C14.3,77.3,17,85.1,20.7,88.7z"></path><path class="st2" d="M19.2,76.4l0.9,3.1l0.6,2.4l-1.6,0.8L19.1,85c0,0,1.3,3.5,1.6,3.7C17,85.1,14.3,77.3,20.2,73l0,4.3L19.2,76.4z"></path><path class="st1" d="M14.1,73.8C12.7,74.6,5,76.5,5,76.5s3-2.1,3.1-2.3c0.1-0.2,2.4-2.2,2.6-2.8c0.3-0.6,1.6-1.6,2.7-1.7
	c1.1-0.1,4.3-1.9,5-2.2c0.5-0.2,2.9-0.1,4.5,0C19.7,68.1,15.3,73.2,14.1,73.8z"></path><path class="st1" d="M24.6,67.6c0,0-0.7-0.1-1.7-0.1C23.6,67.4,24.1,67.4,24.6,67.6z"></path><path class="st2" d="M20.9,70.9c-0.7,0.8-2.2,2.8-2.7,3.4c-0.5,0.6-4.2,3.2-4.2,3.2l-2.4,0.7l-2.9-1.3L5,76.5c0,0,7.8-2,9.2-2.7
	c1.2-0.6,5.5-5.7,8.8-6.4c0.9,0.1,1.7,0.1,1.7,0.1S21.5,70.1,20.9,70.9z"></path><path class="st6" d="M44.2,61.2c0.7,0.3,1.5,0.6,2.3,0.9C45.3,61.7,44.2,61.2,44.2,61.2z"></path><path class="st0" d="M46.3,64.4c0.3-1.6,2.2-8.9,2.6-11.1s2.7-12.3,2.8-15.5c0.1-3.1,0-4.5,0.9-9.4c1-4.9,2.7-10.6,2.7-10.6l0.7-3.5
	c0,0-3.1,15.4-3.1,16.4c0,1-0.5,8.6-0.8,10.5c-0.3,1.9-1.9,9.2-2.3,11.9c-0.5,2.8-0.8,6.2-1.4,7.4c-0.6,1.2-0.8,2.8-1,3.4
	C47.3,64.5,46.3,64.4,46.3,64.4z"></path><path class="st1" d="M64.4,65.1c-0.4-0.4,0.9-0.9,0.9-0.9s-1.4,0.3-1.9-0.4c-0.4-0.6-0.6-0.1-2.9-1.8c-2.2-1.8-3.2-2-4.3-2.4
	c-1.1-0.4-4.8-0.2-5-0.1c-0.2,0.2-0.6,0.9-1.1,1.1c-0.5,0.2-1,0.1-1.4,0.7c-0.1,0.2-0.2,0.5-0.3,0.8c5.1,1.3,21.6,6.1,24.1,7.4
	C72.4,69.5,64.8,65.4,64.4,65.1z"></path><path class="st2" d="M48.9,66.9c0.2,0.7,1.7,2.6,1.8,1.9s0.9-2.5,0.9-2.5l3.5,3c0,0,1-2,1.3-1.8c0.2,0.2,1.5,1.4,1.5,1.4l3-0.7
	c0,0,2.3,0.5,4.3,0.7c2,0.2,4.6,0.5,5,0.5c0.4,0.1,2.4,0,2.4,0c-2.5-1.3-19-6.1-24.1-7.4c-0.3,1-0.7,2.6-0.7,2.6
	S48.7,66.2,48.9,66.9z"></path><path class="st2" d="M53.4,62.4c0.4,0,2.6,0.5,2.6,0.5l2.1,0.4l0.5-1l4.3,0.1c0,0-1.5-1.1-1.6-1.6c-0.1-0.5,2.9-0.2,2.9-0.2
	s-0.5-2-0.2-1.8c0.3,0.1,2.7,0.5,2.7,0.5l0.3-1.4c0,0,2.6-0.5,4.3-0.9c1.6-0.4,4.3-2,5.3-2.5c0.9-0.5,2.3-1.5,2.3-1.5
	s-1.1,0.3-2.5,0.5c-3.7,0.8-8.5,1.9-11.1,1.8c-3.3-0.2-12.4,1-16,2.6l-0.5,1c0,0,0.9,1.9,1.4,2.8C50.4,62.6,53,62.3,53.4,62.4z"></path><path class="st1" d="M76.2,53.5c-1.3,0.2-2.7,0.4-3.7,0.2c-2-0.3-3.9-1.2-3.9-1.2l-2.9,0.2l0.4-1.1c0,0-2.4,0.7-2.6,0.8
	c-0.2,0.2-1.2-0.9-1.2-0.9l-1.3-0.3c0,0-4.7,2.4-5.1,2.6c-0.4,0.2-2.8,2.5-2.8,2.5s-2.5,0.1-2.8,0.3c-0.4,0.1-0.9,0.6-0.9,0.6
	L49,57.8c3.7-1.6,12.7-2.7,16-2.6C67.7,55.4,72.5,54.3,76.2,53.5z"></path><path class="st2" d="M49.7,55.5c0.4,0.1,3.3,0,3.8-0.1c0.4-0.1,1.5-1.6,1.5-1.6l2.2-0.6l0.8-1l2.1-1.4l2.6-0.5l-0.6-1l3.9-0.6
	l-1.7-1.5l2.3-1.4l0.5-2.7c0,0,0.6-2.4,0.8-2.6C68.1,40.5,69,39,69,39s-7,5-8.2,5.6c-1.2,0.7-7.1,4.5-10.1,5.4
	C50.5,51,49.7,55.5,49.7,55.5z"></path><path class="st11" d="M69,39l-2.1,0l0.3-1.7l-2.5,0l-3.1,0.4c0,0-4.5,1.8-5.1,2c-0.5,0.2-2.9,0.4-3.7,2c-0.8,1.7-1.2,3.6-1.3,4.5
	c-0.1,0.9-0.6,3-0.8,4c3-0.9,8.9-4.7,10.1-5.4C62,44,69,39,69,39z"></path><path class="st2" d="M52.6,40.3l14-3.1c0,0-0.1-1.1,0.2-1.1c0.3,0,6.5-3.1,6.8-3.3s2.5-1.1,2.5-1.1c-1.5,0.1-15.3,1.5-16.7,2.5
	C58,35.1,54.1,38.2,52.6,40.3z"></path><path class="st1" d="M69.6,30.3c-1.3,0-7.1,0.7-7.1,0.7l0.1-2.2c0,0-1.9,1-2.2,1.4c-0.3,0.4-3.6,2.6-5,4.4c-1.3,1.8-2.3,3.1-2.3,3.1
	l-0.5,2.5c1.5-2.1,5.4-5.2,6.8-6.2c1.4-1,15.2-2.4,16.7-2.5C76.1,31.6,70.8,30.3,69.6,30.3z"></path><path class="st2" d="M54.5,24.2c-1,5.4-2.2,14.8-2.2,14.8s4.2-3.1,5.1-4.9c0.9-1.8,2.2-5.8,2.3-6.5c0.1-0.7,1.5-3.5,1.5-3.5
	s2-1.5,2.6-2.2c0.6-0.7,3.5-3.2,4.4-3.4c0.8-0.2,3-0.9,3-0.9s-7.6,0.3-8.2,1c-0.6,0.7-2.2,1.9-2.2,1.9l0.7-3c0,0-0.1-1.8-0.5-1.8
	c-0.5-0.1-0.5-0.9-0.5-0.9s0.2-1.8,0.3-2.3s0.9-6.8,0.9-6.8l-1.2,1.6c0,0,0.5-2.7,0.4-3.6c-1.2,3.7-3.4,6.2-4,8.5
	C56.4,14.4,55.5,18.9,54.5,24.2z"></path><path class="st1" d="M59,4.7c-0.4,1.6-2.8,4.5-2.7,4.9S55.9,8.4,56,7.5c0.1-0.9-0.3-1.9-0.4-1.7c-0.1,0.3-1.3,5-1.3,5
	s-0.5-2.5-0.7-2.7c-0.2-0.3-1.8-0.2-2.2,1.2c-0.5,1.4-2.4,0.8-2.8,2.8c-0.4,2-1.1,3-0.7,3.8c0.3,0.8-0.9-0.2-0.9-0.2l-2.4-1.9
	c0,0-1.1-0.3-1.1-0.1c0,0.2,1.3,2.7,1.6,4.1c0.3,1.4,2,5.3,2.2,5.7c0.2,0.4,2.4,3.2,3,5.5c0.6,2.2,0.7,4.4,1.1,5.3
	c0.5,0.9,1,4.9,1,4.9s1.2-9.4,2.2-14.8c1-5.4,1.8-9.9,2.4-12.1c0.5-2.3,2.8-4.8,4-8.5C60.7,2.7,59.5,3.1,59,4.7z"></path><path class="st2" d="M49,57.8c0,0-0.8-1.1-0.8-1.3c0-0.1-2.7-3.9-3.1-4.3c-0.4-0.4-2.9-1.2-2.9-1.2l1.3,2c0,0-5.2-0.8-6.1-0.8
	c-0.9,0-5,0.5-5.4,0.4s-9.7,1.1-9.9,1c1.2,0.1,12.7,2.2,12.9,2.2C35.1,55.9,49,57.8,49,57.8z"></path><path class="st3" d="M22,53.6C22,53.6,22,53.6,22,53.6C22,53.6,22,53.6,22,53.6z"></path><path class="st2" d="M32.7,57.5l-0.2,1.2l4.1,0.4l-1.3,1c0,0-0.6,1.5-0.3,1.6c0.3,0.1,5.2-1.2,5.2-1.2l-2,2.8c0,0,3.3,0.4,4.2,0.3
	s3.9-0.8,3.9-0.8l0.8-1.7l1.9-3.3c0,0-13.9-1.9-14.1-2c-0.2,0-11.7-2.1-12.9-2.2c0,0,0,0,0,0c0.1,0.1,0.8,0.6,1.2,0.7
	C23.7,54.4,32.7,57.5,32.7,57.5z"></path><path class="st12" d="M44.6,59.6c0,0,1.1,0.1,2-0.1c0.9-0.2,2.1-4.2,2.1-4.2s0.4-1.5,0.6-2.6c-2.6-0.8-6.6-1.9-9-2.8
	c-3.1-1.2-8.5-2.8-13.8-1.8c0,0,0,0,0,0l-3.4,2.9c0,0,2.5-1.5,3-1.9c0.4-0.4,2.9,0.4,3.6,0.7c0.6,0.3,2.8,1.4,2.8,1.4l1.4,1.1
	l0.3,1.2l4.6,0.8l4.2,1.2l-0.7,3.4l2.9-0.7L44.6,59.6z"></path><path class="st2" d="M40.3,50c2.4,0.9,6.4,1.9,9,2.8c0.1-0.5,0.1-0.9,0.1-1.1c-0.1-0.6,0-1-0.3-1.9c-0.3-1-0.9-1.2-1.8-2.4
	c-0.9-1.2-0.9-1.1-1.8-2.1c-0.8-1-2.5-1.3-3.7-1.8c-1.2-0.6-3.1,0.2-3.5,0.2c-0.4,0-2,1.1-2,1.1l-2-0.4l-1.3,0.8
	c0,0-1.6-0.2-1.8-0.4c-0.2-0.1,0.4,1,0.4,1l-2.9,0.5l-2.3,2c0,0,0,0,0,0C31.8,47.2,37.2,48.9,40.3,50z"></path><path class="st2" d="M51.2,43.9c0.2-0.5,0.4-1,0.4-1.1c-0.1-0.4-1-3.5-1-3.7c0-0.2-0.9-1.4-1.9-2.9c-1-1.4-1.7-1-2.6-1.5
	c-0.9-0.5-3.7-0.7-3.7-0.7s-1.8-0.2-2.1-0.4c-0.2-0.2-1.4,0.8-1.1,1.4c0.3,0.6-2.2,1.7-2.6,1.7c-0.2,0-0.8,0.8-1.3,1.6
	C43.5,36.4,49.2,41.6,51.2,43.9z"></path><path class="st13" d="M34.1,42.4c0,0,1-0.1,1.3-0.3c0.3-0.1,2.7-0.2,2.7-0.2l1.2,0.9l3.5-0.6l-2.1,2.3c0,0,1,0,2-0.2
	c1.1-0.2,1.4,1.2,1.9,1.9c0.6,0.7,1.7,0.8,1.7,0.8l-1.8,0.1c0,0,1.3,1.9,2.1,2.7s2.5-0.2,2.5-0.2s1.6-3.2,1.6-4.2
	c0-0.5,0.3-1.2,0.5-1.7c-2.1-2.3-7.7-7.5-15.8-5.7c-0.3,0.4-0.5,0.9-0.7,1.1C34.3,40,34.1,42.4,34.1,42.4z"></path><path class="st2" d="M51.4,40.4l0.4-2.5l0-2.1c0,0-0.8-3.8-1.3-6c-0.6-2.2-1-2.3-2.3-3.7s-3-3.3-3-3.3l-2.6-0.8l1.8,2.7l-2.5,0.6
	c0,0-2.4-0.4-2.1-0.1c4.2,0.8,7,3.2,7.5,3.8C47.6,29.5,50.2,37,51.4,40.4z"></path><path class="st14" d="M43.6,29.3c0.3,0.1-1.6,1-1.3,1.1c0.3,0.1,0.7,2.5,0.8,2.8c0.1,0.3,4.1,4.9,4.1,4.9s1.7,0.2,1.9,0.4
	c0.2,0.2,2,3.4,2,3.4l0.2-1.5C50.2,37,47.6,29.5,47.2,29c-0.6-0.6-3.4-3-7.5-3.8c0.2,0.3,1.7,2.6,1.7,2.6S43.3,29.2,43.6,29.3z"></path><path class="st0" d="M50.3,48.4c0.4,1.4,2.7,7.7,3.3,9.6c0.6,1.9,3.5,10.7,3.8,13.4s0.3,4,1.6,8.2c1.3,4.2,3.3,9.2,3.3,9.2l0.9,3
	c0,0-4.1-13.4-4.2-14.2c-0.1-0.9-1.2-7.6-1.6-9.2c-0.4-1.6-2.5-8-3.1-10.4c-0.7-2.4-1.3-5.4-1.9-6.4c-0.7-1-1-2.4-1.2-2.9
	S50.3,48.4,50.3,48.4z"></path><path class="st1" d="M66.9,45.9c-0.4,0.4,0.9,0.7,0.9,0.7s-1.4-0.1-1.7,0.5c-0.3,0.6-0.6,0.1-2.5,1.9c-1.9,1.8-2.8,2.1-3.8,2.6
	c-1,0.5-4.4,0.7-4.6,0.6c-0.2-0.1-0.7-0.8-1.1-0.9c-0.5-0.1-0.9,0-1.3-0.5c-0.1-0.1-0.2-0.4-0.4-0.7c4.6-1.6,19.5-7.6,21.6-9
	C74,41.2,67.3,45.6,66.9,45.9z"></path><path class="st2" d="M52.4,45.9c0.1-0.6,1.3-2.4,1.5-1.9s1,2.2,1,2.2l3-3c0,0,1.1,1.7,1.3,1.5c0.2-0.2,1.2-1.4,1.2-1.4l2.8,0.3
	c0,0,2.1-0.6,3.9-1.1c1.8-0.4,4.2-0.9,4.5-1c0.4-0.1,2.2-0.3,2.2-0.3c-2.2,1.4-17.1,7.4-21.6,9c-0.4-0.9-0.9-2.2-0.9-2.2
	S52.3,46.5,52.4,45.9z"></path><path class="st2" d="M56.9,49.5c0.4-0.1,2.4-0.7,2.4-0.7l2-0.6l0.5,0.8l4-0.6c0,0-1.3,1.1-1.4,1.6s2.7-0.1,2.7-0.1s-0.3,1.8,0,1.7
	c0.2-0.1,2.4-0.7,2.4-0.7l0.4,1.2c0,0,2.5,0.2,4,0.4c1.5,0.2,4.2,1.3,5.1,1.7c0.9,0.4,2.2,1.1,2.2,1.1s-1.1-0.1-2.3-0.2
	c-3.5-0.3-8-0.8-10.4-0.5c-3,0.5-11.5,0.4-15-0.7l-0.6-0.9c0,0,0.6-1.8,1-2.7C54.2,49.6,56.5,49.5,56.9,49.5z"></path><path class="st1" d="M78.7,55.1c-1.2-0.1-2.6-0.1-3.5,0.2c-1.8,0.5-3.6,1.5-3.6,1.5L69,56.8l0.4,1c0,0-2.2-0.3-2.5-0.5
	c-0.2-0.1-1.1,0.9-1.1,0.9l-1.1,0.4c0,0-4.6-1.7-4.9-1.8c-0.4-0.1-2.8-1.9-2.8-1.9s-2.3,0.1-2.6,0s-0.8-0.4-0.8-0.4l-0.3-0.5
	c3.5,1,12,1.1,15,0.7C70.7,54.2,75.3,54.7,78.7,55.1z"></path><path class="st2" d="M54,55.9c0.4-0.1,3.1-0.3,3.5-0.3c0.4,0,1.5,1.3,1.5,1.3l2.1,0.3L62,58l2,1l2.4,0.1L66,60.1l3.7,0.2l-1.5,1.5
	l2.2,1l0.7,2.3c0,0,0.8,2.1,1,2.2c0.2,0.1,1.1,1.3,1.1,1.3s-6.9-3.7-8-4.2c-1.1-0.5-6.9-3.3-9.8-3.8C55.2,59.8,54,55.9,54,55.9z"></path><path class="st1" d="M73.3,68.6l-2,0.2l0.5,1.5l-2.4,0.3l-2.9,0c0,0-4.3-1.2-4.8-1.3c-0.5-0.1-2.7,0-3.5-1.4
	c-0.9-1.4-1.4-3.1-1.6-3.8c-0.2-0.8-0.8-2.6-1-3.4c2.8,0.5,8.6,3.3,9.8,3.8C66.4,64.9,73.3,68.6,73.3,68.6z"></path><path class="st2" d="M58,69.1l13.2,1.4c0,0,0,1,0.3,1c0.3,0,6.2,2.1,6.6,2.3c0.3,0.2,2.4,0.7,2.4,0.7c-1.4,0-14.3,0.2-15.6-0.6
	C63.5,73.2,59.6,70.8,58,69.1z"></path><path class="st1" d="M74.5,76.3c-1.2,0.1-6.6,0.1-6.6,0.1l0.3,1.9c0,0-1.9-0.7-2.2-1c-0.3-0.4-3.6-2-4.9-3.4
	c-1.4-1.4-2.4-2.5-2.4-2.5L58,69.1c1.5,1.7,5.5,4.1,6.8,4.8c1.4,0.7,14.3,0.6,15.6,0.6C80.5,74.5,75.7,76.2,74.5,76.3z"></path><path class="st2" d="M61.1,83.2c-1.3-4.7-3.2-12.9-3.2-12.9S62,72.6,63,74c1,1.5,2.5,5,2.7,5.5c0.2,0.6,1.6,3,1.6,3s2,1.1,2.6,1.7
	c0.6,0.6,3.5,2.5,4.3,2.6s2.9,0.5,2.9,0.5s-7.1,0.5-7.7,0c-0.6-0.6-2.2-1.4-2.2-1.4l0.9,2.6c0,0,0.1,1.6-0.4,1.7
	c-0.4,0.1-0.4,0.8-0.4,0.8s0.4,1.6,0.5,2s1.4,5.9,1.4,5.9L68,97.7c0,0,0.7,2.3,0.6,3.2c-1.4-3.1-3.7-5.2-4.4-7.1
	C63.6,91.8,62.4,87.9,61.1,83.2z"></path><path class="st1" d="M66.8,100.1c-0.5-1.4-2.9-3.8-2.9-4.1c0-0.3-0.3,1.2-0.1,1.9c0.2,0.8-0.1,1.8-0.2,1.5c-0.1-0.2-1.6-4.3-1.6-4.3
	s-0.3,2.2-0.4,2.5c-0.2,0.2-1.6,0.4-2.2-0.8s-2.3-0.5-2.8-2.2s-1.2-2.5-1-3.3c0.3-0.7-0.9,0.3-0.9,0.3l-2.1,2c0,0-1,0.4-1,0.2
	c0-0.2,1-2.5,1.1-3.8c0.2-1.3,1.4-4.9,1.6-5.3c0.2-0.4,1.9-3.1,2.3-5.1c0.4-2,0.3-4,0.6-4.8c0.3-0.8,0.5-4.4,0.5-4.4
	s1.9,8.3,3.2,12.9c1.3,4.7,2.5,8.6,3.2,10.5c0.7,2,2.9,4,4.4,7.1C68.6,101.7,67.4,101.4,66.8,100.1z"></path><path class="st2" d="M53.3,53.9c0,0-0.7,1.1-0.7,1.2c0,0.1-2.1,3.8-2.5,4.1c-0.3,0.4-2.6,1.3-2.6,1.3l1-1.9c0,0-4.7,1.2-5.6,1.3
	c-0.8,0.1-4.6,0.1-5.1,0.2c-0.4,0.1-9,0-9.3,0.1c1.1-0.2,11.5-3.2,11.7-3.3C40.5,57.1,53.3,53.9,53.3,53.9z"></path><path class="st15" d="M28.6,60.4C28.6,60.4,28.6,60.4,28.6,60.4C28.6,60.4,28.6,60.4,28.6,60.4z"></path><path class="st2" d="M38.2,55.9l-0.3-1.1l3.8-0.8l-1.3-0.8c0,0-0.6-1.3-0.4-1.4c0.2-0.1,4.9,0.6,4.9,0.6l-2.1-2.3c0,0,3-0.7,3.9-0.7
	c0.9-0.1,3.7,0.3,3.7,0.3l0.9,1.4l2.1,2.7c0,0-12.7,3.1-12.9,3.2c-0.2,0.1-10.6,3.1-11.7,3.3c0,0,0,0,0,0c0.1-0.1,0.7-0.6,1.1-0.7
	C30.1,59.5,38.2,55.9,38.2,55.9z"></path><path class="st16" d="M49.1,52.8c0,0,1-0.2,1.8-0.1c0.8,0.1,2.3,3.5,2.3,3.5s0.5,1.3,0.8,2.2c-2.3,1-6,2.3-8.1,3.4
	c-2.8,1.3-7.6,3.4-12.6,3c0,0,0,0,0,0l-3.4-2.2c0,0,2.5,1.1,2.9,1.4c0.4,0.3,2.7-0.7,3.2-1c0.6-0.3,2.5-1.5,2.5-1.5l1.2-1.2l0.2-1.1
	l4.2-1.2l3.8-1.5l-0.9-3l2.8,0.3L49.1,52.8z"></path><path class="st2" d="M45.9,61.7c2.2-1,5.8-2.4,8.1-3.4c0.1,0.4,0.2,0.8,0.2,0.9c0,0.5,0.1,0.9-0.1,1.7c-0.2,0.9-0.7,1.2-1.5,2.3
	c-0.8,1.2-0.7,1.1-1.4,2c-0.7,1-2.2,1.4-3.3,2c-1.1,0.6-2.9,0.1-3.3,0.2c-0.4,0.1-1.9-0.8-1.9-0.8l-1.8,0.6l-1.2-0.5
	c0,0-1.5,0.3-1.6,0.5c-0.2,0.2,0.2-0.9,0.2-0.9l-2.7-0.1l-2.3-1.5c0,0,0,0,0,0C38.2,65.1,43.1,63.1,45.9,61.7z"></path><path class="st2" d="M56.5,66.1c0.2,0.4,0.5,0.8,0.4,1c-0.1,0.3-0.6,3.2-0.6,3.4c0,0.2-0.7,1.4-1.5,2.7c-0.8,1.4-1.5,1.1-2.2,1.6
	c-0.8,0.5-3.4,1-3.4,1s-1.7,0.4-1.9,0.6c-0.2,0.2-1.4-0.5-1.1-1.1c0.2-0.6-2.2-1.3-2.5-1.3c-0.2,0-0.8-0.7-1.3-1.3
	C50,73.5,54.8,68.3,56.5,66.1z"></path><path class="st8" d="M40.8,69.2c0,0,0.9,0,1.2,0.1c0.3,0.1,2.5-0.1,2.5-0.1l1-1l3.3,0.2l-2.1-1.8c0,0,0.9-0.1,1.9-0.1
	c1,0.1,1.2-1.2,1.6-1.9c0.5-0.7,1.5-0.9,1.5-0.9L50,63.7c0,0,1-1.8,1.7-2.6c0.7-0.8,2.3-0.1,2.3-0.1s1.7,2.7,1.8,3.6
	c0,0.4,0.3,1,0.6,1.5c-1.7,2.3-6.5,7.4-14.2,6.6c-0.3-0.4-0.6-0.7-0.7-0.9C41.1,71.2,40.8,69.2,40.8,69.2z"></path><path class="st2" d="M56.9,69.2l0.5,2.2l0.2,1.9c0,0-0.4,3.5-0.8,5.4c-0.4,2-0.8,2.2-1.8,3.6c-1,1.4-2.5,3.3-2.5,3.3l-2.3,0.9
	l1.4-2.6l-2.4-0.3c0,0-2.2,0.6-2,0.3c3.8-1.1,6.2-3.6,6.7-4.2C54.3,79.2,56.1,72.3,56.9,69.2z"></path><path class="st1" d="M50.6,79.8c0.2-0.1-1.6-0.7-1.2-0.8s0.4-2.3,0.6-2.6c0.1-0.3,3.4-4.8,3.4-4.8s1.6-0.3,1.7-0.5
	c0.1-0.2,1.6-3.2,1.6-3.2l0.3,1.3c-0.8,3.1-2.6,10-2.9,10.5c-0.5,0.6-2.9,3-6.7,4.2c0.2-0.3,1.4-2.5,1.4-2.5S50.4,80,50.6,79.8z"></path></g></svg>