<?xml version="1.0" encoding="utf-8"?>
<!-- Generator: Adobe Illustrator 23.1.1, SVG Export Plug-In . SVG Version: 6.00 Build 0)  -->
<svg version="1.1" id="Layer_1" xmlns="http://www.w3.org/2000/svg" xmlns:xlink="http://www.w3.org/1999/xlink" x="0px" y="0px"
	 viewBox="0 0 108 108" style="enable-background:new 0 0 108 108;" xml:space="preserve">
<style type="text/css">
	.st0{fill:#87AC4A;}
	.st1{fill:#AAC744;}
	.st2{fill:#778D39;}
	.st3{fill:#F27623;}
	.st4{fill:#DA6E29;}
	.st5{fill:#F68951;}
	.st6{fill:#DF5B26;}
	.st7{fill:#F37F20;}
	.st8{fill:#D76A27;}
	.st9{fill:#F89E73;}
</style>
<g>
	<g>
		<path class="st0" d="M50.97,53.02c-0.59,0-3.49-0.71-4.18-1.01c-0.7-0.31-1.15-1.14-1.23-0.34s0.31,1.28,0.49,1.96
			c0.18,0.68,0.39,1.15-0.23,1.09c-0.62-0.05-1.02-0.55-1.36-0.41s-0.82-0.23-1.23,0.18c-0.41,0.41,0.32,0.77-0.09,1.85
			c-0.41,1.08-0.94,2.24-1.26,1.47c-0.32-0.77,0.19-1.04-0.1-1.48c-0.28-0.45-0.92-1.54-1.1-0.38c-0.18,1.16,0.36,1.34-0.61,1.81
			c-0.97,0.47-1.77,0.53-1.5-0.24c0.27-0.77,0.36-0.75-0.07-1.3c-0.43-0.55,0.2-1.55-1.1-0.8c-1.3,0.75-1.16,1.63-1.74,1.11
			c-0.59-0.53-0.25-1.19-0.88-1.39c-0.63-0.2-0.02-0.43-1.59,0.41S30.94,57.48,31,56.1c0.05-1.38-0.17-0.79,0.98-2.04
			c1.15-1.25,2.76-1.9,1.24-1.91c-1.52-0.01-1.76,0.29-3.4,1.03s-3.83,0.48-4.12,0.29c-0.29-0.19,0.35-1.04,0.72-1.13
			c0.37-0.08,1.25-0.55,1.67-1.09c0.42-0.54-1.2-1.3-1.89-1.16c-0.69,0.14-2.72,0.53-3.36,0.19c-0.64-0.34-0.33-1.06-0.74-1.17
			c-0.41-0.11-0.96,0.08-1.06-0.6c-0.1-0.69-0.33-0.92-0.33-0.92s0.23-0.67-0.92-0.91c-1.16-0.24-2.37-0.29-2.37-0.29
			s0.08-0.94-0.17-1.2s-0.3-0.6-1.12-0.83c-0.82-0.23-0.75-0.12-1.58,0.18c-0.82,0.3-1.85,0.27-1.26-0.25s1.02-1.32,1.86-1.18
			c0.85,0.14,1.14,0.47,1.56,0.21c0.42-0.27,1.24-0.04,0.39-0.85c-0.85-0.81-1.75-0.76-2.35-1.58c-0.6-0.82-0.95-1.64,0.17-1.6
			c1.12,0.04,0.89,0.34,1.12,0.04s-1.06-1.27-0.94-1.88c0.12-0.6,0.16-0.55,0.44-1.03s0.35-1.79,1.1-1.37
			c0.75,0.42,1.09,0.96,1.82,0.64c0.73-0.31,0.92-1.48,1.71-1.16s0.7,0.83,1.45,0.95s1.24-1.46,1-1.53
			c-0.24-0.07-1.67-0.29-0.34-0.53c1.33-0.25,1.99-0.81,2.33,0.39c0.34,1.2-0.14,2.04,0.32,3.16c0.46,1.13-0.13,1.43,0.87,1.99
			c1,0.56,2,1.2,1.84,0.55c-0.16-0.65-1.1-2-1.22-2.59c-0.12-0.59-0.22-1.28,0.58-1.49c0.8-0.21,1.2,0.43,1.5-0.43
			c0.3-0.86,1.67-1.36,1.53-0.52c-0.14,0.84-0.61,1.43-0.16,2.27s1.02,1.08,1.08,1.56c0.06,0.49,0.74,0.5,0.74,0.5
			s-0.54-1.53,0.04-2.2c0.59-0.67,0.7-1.56,1.46-1.56c0.76,0,1.24-0.98,0.19,0.96c-1.05,1.94-1.14,2.59-1.08,3.08
			s0.32,1.44,0.55,1.67s0.92,0.65,1.13,0.46c0.22-0.19,0.44-1.3,0.44-1.3s1.07,0.22,0.98-0.32c-0.09-0.54-0.91-0.24-0.36-0.97
			c0.55-0.72,1.12,0.04,0.96-0.61s-0.41-1.31-0.41-1.31s0.5-1.21,0.96-0.61s0.88,0.19,0.66,1.3c-0.22,1.11-0.77,1.04-0.22,1.91
			c0.55,0.87,0.28,1.77,0.48,2.22s0.03,0.85,0.64,0.61c0.61-0.24,0.55-0.59,0.86-1.57c0.31-0.97,0.61-1.69,1.18-1.6
			c0.56,0.09,1.55,0.72,1.29,0.04c-0.27-0.68-0.43-0.81-0.51-1.2c-0.08-0.4-0.65-2.36-0.02-1.63c0.63,0.72,0.45,0.98,1.29,2.03
			s1.43,1.71,1.79,2.75c0.36,1.04,0.65,1.23,0.51,2.07c-0.14,0.84,0.38,1.26-0.23,1.64c-0.6,0.38-0.01,2.25,0.37,2.31
			s0.58-0.29,1.5,0.1s3.6,1.69,4.36,2.1s1.79,0.96,2.09,1.3s0.17,0.94,0.07,1.45C52.55,52.46,50.97,53.02,50.97,53.02z"/>
		<path class="st1" d="M44.32,51.84c-0.86,0.24-5.28,0.58-6.48,0.29c-1.2-0.29-3.11-1.32-4.37-1.57c-1.26-0.25-6.41-2.67-7.19-3.23
			c-0.77-0.56-3.51-2.64-3.51-2.64s9.02,4.16,10.14,4.72c1.12,0.56,5.15,1.6,6.02,1.65c0.87,0.05,4.52-0.32,4.77-0.18
			c0.26,0.14,1.36-0.11,1.22,0.2C44.79,51.39,44.32,51.84,44.32,51.84z"/>
		<path class="st1" d="M50.52,52.18c-0.54-0.18-2.58-0.61-2.89-0.71c-0.32-0.1-1.63-0.31-1-0.79s1.19-0.38,1.79-0.24
			c0.6,0.14,0.76,0.27,1.33,0.5C50.31,51.19,50.52,52.18,50.52,52.18z"/>
		<path class="st1" d="M47.81,49.63c-0.61-0.29-2.39,0.09-2.85-0.37c-0.46-0.46-0.62-1.25-0.85-1.33c-0.22-0.08-1.12,0.18-0.94,0.29
			c0.18,0.11,0.13,1.04,0.81,1.28c0.68,0.24,0.94,0.9,1.49,0.7c0.55-0.2,2.91-0.2,3.35-0.18c0.44,0.02,1.81,0.2,2.01,0.37
			c0.2,0.18-0.98-1.02-1.39-1.14C49.03,49.16,47.81,49.63,47.81,49.63z"/>
		<path class="st2" d="M31.6,46.67c-0.5-0.13-1.17-0.91-1.69-1.47c-0.53-0.56-0.53-0.56-1.62-0.69c-1.09-0.13-1.6,0.94-2.11-0.01
			c-0.51-0.95,0.15-0.69-0.88-1.91s-1.03-1.36-1.97-1.25c-0.94,0.11-1.92,0.88-2.5,0.27s-0.63-1.62,0.03-2.71
			c0.66-1.09,0.85-2.11,1.68-1.07c0.83,1.04-0.13,1.28,0.94,2.02s1.44,0.81,2.56,1.9c1.11,1.09,0.7,1.5,1.72,1.38
			s0.61-0.24,1.48-0.19c0.87,0.05,1.94,0.94,1.56,0.06c-0.39-0.88-1-1.31-1.25-1.97s-0.56-1.42,0.31-0.97
			c0.87,0.44,1.65,1.67,2.33,2.74c0.68,1.07,1.43,1.86,2.01,1.57c0.58-0.29,0.12-0.6,0.15-1.36c0.02-0.76,1.37-1.43,1.44-0.26
			c0.07,1.17-0.05,2.97,0.32,3.56c0.37,0.59,0.4,1.69,1.01,0.93c0.61-0.76,0.52-1.98,1.02-1.85s0.92,1.59,1.12,0.56
			s0.32-2.59,0.72-2.48c0.4,0.12,1.27,0.38,1.18,1.53s-1.51,0.63-0.47,2.14s0.61,2.16-0.51,2.12c-1.12-0.04-2.09-0.24-2.71-0.15
			c-0.62,0.09-1.1,0.4-1.54,0.23c-0.44-0.17-1.86-0.02-1.96-0.7c-0.1-0.69,0.66-1.09,0.24-1.35s-0.23-0.75-0.75-0.12
			c-0.53,0.63-0.64,1.38-0.89,0.72c-0.25-0.66,0.75-0.78-0.09-0.99C31.6,46.67,31.6,46.67,31.6,46.67z"/>
		<path class="st1" d="M19.32,44.87c-0.79-0.32-1.71-0.04-1.48-1.01c0.23-0.97,0.28-0.63-0.11-1.5c-0.39-0.88-0.77-1.61,0.09-1.33
			c0.85,0.28,1.69,0.27,1.61,1.22s-0.15,0.56,0.46,1.25c0.61,0.69,0.89,0.21,0.61,0.69C20.21,44.68,19.32,44.87,19.32,44.87z"/>
		<path class="st3" d="M93.76,64.07c-0.95-0.3-2.39-0.58-3.62-0.92c-1.23-0.34-8.28-3.03-9.83-3.62c-1.55-0.59-2.05-0.84-3.92-1.52
			c-1.87-0.69-13.19-4.58-14.41-4.64c-1.21-0.05-5.41-1.88-7.56-2.34c-0.91-0.19-1.56-0.61-2.01-1.02c-0.6,0.73-1.33,2.62-1.58,3.61
			c-0.09,0.39-0.11,0.74-0.05,1.07c0.46-0.12,0.97-0.16,1.49-0.04c1.65,0.37,7.39,1.45,9.46,2.46c2.07,1.01,9.3,3.76,11.14,4.01
			c1.85,0.25,4.07,2.02,6.81,2.23c2.74,0.21,8.5,1.92,8.77,1.82c0.27-0.1,2.77-0.41,3.71-0.26c0.94,0.15,2.66,0.33,3.1,0.5
			c0.38,0.14,0.91,0.16,1.29,0.84c0.59,0.02,1.22,0.16,1-0.42c-0.22-0.59,0.92,0.03-0.86-1.07C95.13,64.67,94.71,64.36,93.76,64.07z
			"/>
		<path class="st4" d="M90.41,61.85c-1.78-0.82-4.69-2.69-5.98-2.99c-1.29-0.3-6.98-3.03-7.93-3.47s-10.41-4.32-10.94-4.36
			c-0.53-0.04-7.73-2.36-9.44-2.39c-1.71-0.04-2.8,0.77-3.42,1.12c-0.09,0.05-0.18,0.14-0.27,0.26c0.45,0.41,1.1,0.82,2.01,1.02
			c2.15,0.46,6.34,2.29,7.56,2.34c1.21,0.05,12.54,3.95,14.41,4.64c1.87,0.69,2.36,0.94,3.92,1.52c1.55,0.59,8.6,3.27,9.83,3.62
			c1.23,0.34,2.67,0.63,3.62,0.92c0.95,0.3,1.37,0.61,2.96,0.7c-0.22-0.14-0.48-0.3-0.8-0.49C93.03,62.51,92.2,62.66,90.41,61.85z"
			/>
		<path class="st5" d="M95.29,65.41c-0.45-0.17-2.16-0.35-3.1-0.5c-0.94-0.15-3.44,0.16-3.71,0.26c-0.27,0.1-6.03-1.61-8.77-1.82
			c-2.74-0.21-4.97-1.98-6.81-2.23c-1.85-0.25-9.07-3-11.14-4.01c-2.07-1.01-7.81-2.08-9.46-2.46c-0.52-0.12-1.03-0.08-1.49,0.04
			c0.14,0.86,0.77,1.55,1.78,2.19c1.41,0.89,8.51,2.52,9.46,2.82c0.95,0.3,6.43,1.76,7.46,1.93c1.03,0.17,14.17,3.01,14.98,3.09
			c0.81,0.08,4.15,0.96,4.15,0.96s3.14,0.7,3.73,0.56c0.58-0.14,3.33,0.06,3.98,0.02c0.08,0,0.17,0,0.25,0
			C96.2,65.57,95.66,65.56,95.29,65.41z"/>
	</g>
	<g>
		<g>
			<path class="st0" d="M49.09,58.33c-0.28-0.47-2.3-2.47-2.91-2.9c-0.61-0.42-1.64-0.39-0.88-0.85c0.76-0.46,1.4-0.37,2.16-0.55
				c0.76-0.18,1.32-0.23,1-0.71c-0.32-0.48-0.98-0.57-0.99-0.91c0-0.33-0.57-0.56-0.32-1.08c0.25-0.52,0.91-0.09,1.85-0.9
				c0.94-0.8,1.94-1.7,1.02-1.63c-0.92,0.07-1,0.59-1.57,0.55c-0.57-0.03-1.94-0.08-0.81-0.72c1.14-0.63,1.53-0.28,1.65-1.23
				c0.13-0.95-0.09-1.61-0.8-1.09c-0.71,0.52-0.66,0.59-1.39,0.46c-0.73-0.13-1.55,0.79-1.24-0.57c0.32-1.35,1.31-1.56,0.55-1.84
				c-0.76-0.28-1.35,0.25-1.78-0.19c-0.42-0.44-0.48,0.14-0.1-1.45c0.39-1.58,1.37-2.46-0.11-1.96c-1.47,0.52-0.92,0.13-1.88,1.52
				c-0.96,1.4-1.06,3.04-1.6,1.75c-0.53-1.28-0.3-1.6-0.04-3.23c0.27-1.63-0.65-3.35-0.94-3.54c-0.29-0.19-1.04,0.62-1.02,0.96
				c0.02,0.34-0.22,1.24-0.66,1.79c-0.44,0.55-1.78-0.57-1.84-1.22c-0.07-0.65-0.24-2.53-0.79-2.98c-0.56-0.45-1.25,0.05-1.49-0.28
				c-0.24-0.32-0.18-0.87-0.95-0.74c-0.78,0.13-1.09,0.01-1.09,0c0,0-0.66,0.43-1.25-0.53c-0.58-0.96-0.96-2.05-0.96-2.05
				c0,0-1.01,0.37-1.35,0.22c-0.35-0.14-0.73-0.08-1.2-0.76c-0.46-0.68-0.33-0.66-0.21-1.51c0.12-0.85-0.15-1.79-0.59-1.09
				c-0.44,0.7-1.19,1.36-0.82,2.11c0.37,0.75,0.81,0.91,0.64,1.4c-0.17,0.49,0.3,1.18-0.8,0.67c-1.1-0.51-1.3-1.38-2.33-1.67
				c-1.03-0.28-2-0.32-1.65,0.76c0.35,1.08,0.6,0.73,0.36,1.08c-0.24,0.35-1.63-0.53-2.21-0.15c-0.58,0.38-0.52,0.39-0.92,0.88
				c-0.4,0.49-1.69,1.16-1.03,1.72c0.66,0.56,1.29,0.64,1.22,1.52c-0.07,0.87-1.14,1.64-0.55,2.28c0.58,0.63,1.04,0.28,1.42,0.96
				c0.37,0.68-0.95,1.98-1.1,1.78c-0.16-0.2-0.88-1.53-0.62-0.05c0.26,1.47,0,2.44,1.24,2.12c1.24-0.32,1.85-1.23,3.11-1.34
				c1.26-0.12,1.35-0.83,2.26-0.14c0.92,0.69,1.92,1.33,1.22,1.49c-0.7,0.16-2.36-0.06-2.97,0.12c-0.62,0.18-1.3,0.45-1.18,1.34
				c0.12,0.89,0.88,0.94,0.2,1.7c-0.67,0.77-0.53,2.4,0.16,1.78c0.7-0.62,1.05-1.39,2.02-1.41c0.97-0.02,1.42,0.4,1.91,0.2
				c0.49-0.2,0.78,0.44,0.78,0.44c0,0-1.67,0.28-2.04,1.21c-0.37,0.93-1.12,1.55-0.78,2.28c0.34,0.73-0.33,1.74,0.95-0.37
				c1.31-2.09,1.92-2.49,2.4-2.7c0.49-0.2,1.51-0.44,1.83-0.34c0.31,0.1,1,0.52,0.9,0.82c-0.1,0.29-1.07,1.08-1.06,1.08
				c0,0,0.66,0.87,0.11,1.08c-0.55,0.21-0.62-0.72-1.06,0.19c-0.43,0.91,0.52,1.03-0.14,1.24c-0.66,0.21-1.37,0.35-1.37,0.35
				c0,0-0.86,1.17-0.11,1.26c0.75,0.09,0.57,0.71,1.47-0.13c0.91-0.84,0.6-1.31,1.65-1.27c1.05,0.03,1.78-0.7,2.29-0.75
				c0.51-0.05,0.82-0.41,0.86,0.26c0.04,0.68-0.32,0.81-1.09,1.62c-0.77,0.81-1.27,1.5-0.93,1.97c0.35,0.47,1.38,1.01,0.64,1.16
				c-0.74,0.15-0.92,0.07-1.32,0.23c-0.4,0.15-2.37,0.79-1.44,0.94c0.93,0.15,1.07-0.17,2.4-0.02c1.33,0.15,2.22,0.31,3.34,0.04
				c1.12-0.27,1.44-0.12,2.15-0.71c0.71-0.59,1.35-0.36,1.43-1.09c0.08-0.73,2.14-1.19,2.37-0.9c0.23,0.29-0.02,0.65,0.79,1.23
				c0.8,0.59,3.31,2.16,4.08,2.56c0.76,0.42,1.79,0.96,2.25,1.02c0.46,0.06,0.97-0.36,1.42-0.71C49.3,59.89,49.08,58.33,49.09,58.33
				z"/>
		</g>
		<g>
			<path class="st1" d="M44.94,53.47c-0.15-0.83-1.6-4.65-2.33-5.53c-0.76-0.87-2.53-2.07-3.25-3.04c-0.73-0.94-5.02-4.5-5.84-5.01
				c-0.84-0.47-3.91-2.16-3.9-2.17c-0.05,0.08,7.3,6.52,8.35,7.17c0.98,0.75,3.56,3.74,3.97,4.44c0.37,0.72,1.52,3.95,1.78,4.1
				c0.24,0.15,0.48,1.19,0.73,0.92C44.7,54.08,44.94,53.47,44.94,53.47z"/>
		</g>
		<g>
			<path class="st1" d="M48.06,58.4c-0.43-0.34-1.79-1.8-2.03-2.01c-0.24-0.21-1.04-1.19-1.22-0.44c-0.18,0.76,0.17,1.19,0.59,1.61
				c0.42,0.42,0.61,0.49,1.11,0.84C47.01,58.74,48.06,58.4,48.06,58.4z"/>
		</g>
		<g>
			<path class="st1" d="M44.33,57.48c-0.57-0.36-1.01-2.05-1.65-2.2c-0.65-0.16-1.5,0.1-1.68-0.05c-0.18-0.15-0.32-1.05-0.13-0.95
				c0.19,0.1,1.08-0.41,1.61,0.05c0.54,0.46,1.3,0.34,1.35,0.9c0.04,0.56,1.13,2.53,1.36,2.88c0.23,0.35,1.05,1.4,1.31,1.46
				c0.26,0.07-1.45-0.27-1.76-0.55C44.45,58.74,44.33,57.48,44.33,57.48z"/>
		</g>
		<g>
			<path class="st2" d="M34.65,44.89c-0.32-0.39-1.36-0.65-2.12-0.88c-0.77-0.23-0.77-0.23-1.29-1.17
				c-0.52-0.95,0.42-1.85-0.73-1.93c-1.15-0.08-0.67,0.43-2.27,0c-1.6-0.43-1.74-0.38-1.94-1.32c-0.21-0.94,0.29-2.18-0.52-2.48
				c-0.81-0.3-1.88,0.06-2.77,1.18c-0.89,1.12-1.82,1.81-0.5,2.13c1.32,0.31,1.23-0.72,2.34-0.03c1.12,0.69,1.31,1.01,2.8,1.57
				c1.5,0.55,1.77-0.01,2.01,0.99c0.24,0.99-0.02,0.67,0.34,1.45c0.37,0.79,1.67,1.35,0.64,1.4c-1.02,0.06-1.68-0.31-2.44-0.23
				c-0.75,0.08-1.6,0.16-0.83,0.77c0.77,0.6,2.27,0.72,3.6,0.83c1.32,0.11,2.41,0.42,2.35,1.08c-0.06,0.66-0.55,0.4-1.29,0.79
				c-0.74,0.39-0.83,1.97,0.34,1.44c1.16-0.53,2.9-1.5,3.64-1.44c0.74,0.05,1.86-0.43,1.34,0.46c-0.52,0.89-1.75,1.4-1.41,1.78
				c0.34,0.38,1.95,0.04,1.02,0.71c-0.92,0.67-2.38,1.59-2.09,1.89c0.29,0.3,0.92,0.93,1.99,0.26c1.07-0.66-0.05-1.65,1.88-1.49
				c1.93,0.16,2.39-0.52,1.89-1.46c-0.5-0.94-1.1-1.68-1.25-2.26c-0.15-0.57-0.02-1.12-0.36-1.43c-0.34-0.31-0.72-1.6-1.46-1.4
				c-0.74,0.21-0.87,1.05-1.29,0.8c-0.42-0.25-0.85,0.13-0.41-0.61c0.45-0.74,1.18-1.16,0.4-1.1c-0.78,0.06-0.52,1-1.05,0.35
				C34.64,44.89,34.65,44.89,34.65,44.89z"/>
		</g>
		<g>
			<path class="st1" d="M28.78,34.48c-0.57-0.62-0.52-1.57-1.5-1.02c-0.97,0.55-0.59,0.48-1.64,0.43c-1.04-0.04-1.92-0.12-1.38,0.58
				c0.55,0.71,0.78,1.5,1.76,1.06c0.98-0.43,0.54-0.35,1.46-0.05c0.92,0.31,0.49,0.75,0.92,0.31
				C28.83,35.36,28.78,34.48,28.78,34.48z"/>
		</g>
		<g>
			<path class="st3" d="M88.69,84.34c-0.92-0.34-2.18-1-3.32-1.51c-1.18-0.42-10.12-3.96-11.58-4.71c-1.51-0.64-4.54-2.54-6.28-3.43
				c-1.83-0.75-11.88-6.82-12.51-7.86c-0.72-0.89-4.63-3.16-6.14-4.67c-0.64-0.63-1.35-0.94-1.96-1.08
				c0.39-0.89,1.85-2.48,2.71-3.17c0.33-0.27,0.67-0.46,1.02-0.59c0.1,0.42,0.3,0.85,0.66,1.2c1.11,1.14,5,5.04,7.05,6.02
				c2,1.06,8.49,4.71,9.81,5.79c1.29,1.17,6.55,3.32,8.47,4.95c1.87,1.73,9.05,5,9.19,5.18c0.1,0.23,1.6,1.94,2.4,2.38
				c0.79,0.45,2.17,1.31,2.62,1.44c0.38,0.11,0.79,0.41,1.59,0.15c0.45,0.32,1.02,0.57,0.42,0.85c-0.61,0.28,0.7,0.5-1.45,0.26
				C90.15,84.72,89.61,84.69,88.69,84.34z"/>
		</g>
		<g>
			<path class="st6" d="M84.54,83.88c-1.93-0.49-7.44-1.94-8.56-2.6c-1.17-0.55-9.72-4.39-10.66-4.87
				c-1.03-0.31-10.13-4.96-10.42-5.43c-0.37-0.34-6.49-4.67-7.39-6.09c-0.94-1.38-0.74-2.72-0.71-3.42c0-0.1,0.04-0.22,0.11-0.36
				c0.61,0.15,1.32,0.45,1.96,1.08c1.51,1.51,5.42,3.78,6.14,4.67c0.63,1.03,10.68,7.11,12.51,7.86c1.74,0.9,4.76,2.79,6.28,3.43
				c1.46,0.75,10.4,4.29,11.58,4.71c1.14,0.51,2.4,1.16,3.32,1.51c0.92,0.34,1.46,0.37,2.7,1.21c-0.27-0.03-0.58-0.07-0.97-0.11
				C86.95,85,86.46,84.39,84.54,83.88z"/>
		</g>
		<g>
			<path class="st5" d="M90.84,84.29c-0.46-0.13-1.84-1-2.62-1.44c-0.8-0.44-2.3-2.14-2.4-2.38c-0.14-0.18-7.33-3.45-9.19-5.18
				c-1.92-1.63-7.18-3.77-8.47-4.95c-1.32-1.09-7.81-4.73-9.81-5.79c-2.05-0.98-5.94-4.87-7.05-6.02c-0.36-0.35-0.56-0.78-0.66-1.2
				c0.91-0.32,1.87-0.16,2.96,0.31c1.48,0.69,6.51,5.2,7.31,5.7c0.74,0.56,5.02,3.71,5.77,4.32c0.49,0.91,15.22,10.51,16.06,10.68
				c0.6,0.46,3.57,1.9,3.58,1.89c-0.01,0.01,2.73,1.39,3.04,1.82c0.29,0.44,2.43,1.87,2.89,2.26c0.06,0.05,0.12,0.1,0.19,0.14
				C91.63,84.7,91.22,84.41,90.84,84.29z"/>
		</g>
	</g>
	<g>
		<path class="st0" d="M46.97,58.15c-0.61-0.03-3.65-0.97-4.4-1.35c-0.74-0.37-1.25-1.31-1.29-0.44s0.39,1.41,0.62,2.17
			c0.23,0.76,0.47,1.27-0.18,1.18c-0.65-0.09-1.09-0.66-1.43-0.53c-0.34,0.13-0.86-0.3-1.27,0.13c-0.41,0.43,0.38,0.86,0.01,2.02
			c-0.36,1.16-0.85,2.39-1.22,1.53c-0.38-0.86,0.13-1.12-0.19-1.62s-1.04-1.73-1.16-0.48c-0.12,1.25,0.45,1.49-0.53,1.94
			c-0.98,0.45-1.81,0.47-1.57-0.35s0.33-0.8-0.14-1.43c-0.48-0.62,0.12-1.68-1.18-0.94c-1.3,0.74-1.11,1.71-1.74,1.11
			c-0.64-0.61-0.33-1.31-0.99-1.56c-0.67-0.25-0.05-0.48-1.63,0.36c-1.58,0.83-2.2,1.98-2.22,0.48c-0.02-1.5-0.22-0.87,0.9-2.17
			c1.12-1.3,2.75-1.91,1.17-2.01c-1.58-0.1-1.8,0.22-3.46,0.93c-1.66,0.71-3.94,0.3-4.25,0.08c-0.31-0.22,0.3-1.12,0.68-1.19
			s1.27-0.53,1.67-1.09c0.4-0.56-1.32-1.49-2.03-1.38c-0.71,0.11-2.79,0.42-3.47,0.01c-0.68-0.41-0.41-1.18-0.84-1.32
			c-0.43-0.15-0.99,0.04-1.13-0.72s-0.39-1.02-0.39-1.02s0.2-0.72-1.01-1.05c-1.21-0.33-2.47-0.46-2.47-0.46s0.03-1.02-0.24-1.32
			c-0.27-0.3-0.34-0.67-1.2-0.97c-0.86-0.3-0.79-0.18-1.62,0.1c-0.84,0.28-1.9,0.19-1.32-0.35c0.59-0.54,0.98-1.38,1.86-1.18
			c0.88,0.2,1.21,0.58,1.63,0.31c0.42-0.27,1.28,0.03,0.36-0.9c-0.93-0.93-1.86-0.93-2.53-1.86s-1.08-1.84,0.08-1.74
			C10,41.19,9.77,41.5,10,41.19c0.22-0.31-1.17-1.45-1.08-2.1c0.09-0.65,0.13-0.59,0.4-1.1c0.27-0.51,0.26-1.93,1.06-1.43
			s1.18,1.11,1.92,0.81c0.74-0.3,0.87-1.56,1.71-1.17c0.84,0.39,0.77,0.95,1.55,1.12c0.79,0.18,1.2-1.52,0.95-1.61
			c-0.25-0.09-1.75-0.41-0.38-0.6c1.37-0.19,2.01-0.77,2.44,0.56s-0.03,2.21,0.51,3.47c0.54,1.26-0.06,1.55,1.02,2.22
			s2.14,1.43,1.94,0.71c-0.2-0.72-1.25-2.24-1.42-2.9c-0.16-0.66-0.3-1.41,0.51-1.59c0.81-0.18,1.27,0.54,1.53-0.38
			s1.65-1.38,1.55-0.48c-0.1,0.91-0.55,1.53-0.04,2.47c0.51,0.94,1.12,1.23,1.2,1.77c0.09,0.54,0.8,0.59,0.8,0.59
			s-0.65-1.69-0.08-2.39c0.57-0.7,0.64-1.66,1.42-1.61c0.79,0.04,1.23-0.99,0.25,1.06c-0.98,2.05-1.03,2.76-0.95,3.3
			s0.42,1.59,0.67,1.85c0.25,0.26,0.99,0.76,1.2,0.56s0.38-1.4,0.38-1.4s1.12,0.3,0.99-0.29c-0.12-0.6-0.96-0.32-0.43-1.08
			s1.16,0.11,0.96-0.61c-0.2-0.72-0.5-1.45-0.5-1.45s0.44-1.29,0.96-0.61s0.92,0.26,0.76,1.46c-0.17,1.2-0.74,1.09-0.12,2.07
			c0.62,0.98,0.39,1.95,0.62,2.45c0.23,0.5,0.08,0.93,0.7,0.7c0.62-0.22,0.54-0.61,0.8-1.66c0.27-1.04,0.54-1.81,1.13-1.68
			c0.59,0.13,1.65,0.87,1.34,0.11c-0.31-0.76-0.49-0.9-0.6-1.34c-0.11-0.44-0.81-2.61-0.12-1.78c0.69,0.83,0.53,1.1,1.45,2.29
			c0.92,1.19,1.58,1.95,2.02,3.11c0.43,1.16,0.74,1.38,0.64,2.29c-0.1,0.91,0.46,1.39-0.14,1.78c-0.6,0.38,0.12,2.45,0.51,2.54
			c0.39,0.09,0.58-0.28,1.56,0.19c0.98,0.48,3.83,2.04,4.64,2.54s1.91,1.15,2.24,1.53s0.23,1.03,0.16,1.58
			C48.59,57.63,46.97,58.15,46.97,58.15z"/>
		<path class="st1" d="M40.02,56.49c-0.87,0.22-5.44,0.33-6.7-0.06c-1.26-0.38-3.3-1.62-4.62-1.96c-1.32-0.35-6.8-3.28-7.64-3.93
			s-3.78-3.08-3.78-3.08s9.59,5.05,10.78,5.73s5.43,2.04,6.33,2.14c0.91,0.1,4.67-0.09,4.94,0.07c0.27,0.16,1.4-0.05,1.28,0.29
			S40.02,56.49,40.02,56.49z"/>
		<path class="st1" d="M46.46,57.21c-0.57-0.23-2.71-0.81-3.04-0.94s-1.71-0.43-1.09-0.91c0.62-0.48,1.21-0.35,1.84-0.16
			c0.63,0.19,0.8,0.33,1.41,0.63C46.19,56.12,46.46,57.21,46.46,57.21z"/>
		<path class="st1" d="M43.51,54.27c-0.64-0.35-2.47-0.04-2.97-0.56s-0.72-1.4-0.95-1.5c-0.23-0.1-1.15,0.14-0.95,0.27
			c0.19,0.13,0.19,1.14,0.92,1.44c0.72,0.3,1.02,1.04,1.58,0.85s3-0.05,3.46,0c0.45,0.05,1.89,0.32,2.1,0.52
			c0.21,0.2-1.08-1.17-1.51-1.32C44.74,53.83,43.51,54.27,43.51,54.27z"/>
		<path class="st2" d="M26.53,50.11c-0.53-0.17-1.26-1.06-1.84-1.7c-0.58-0.65-0.58-0.65-1.72-0.85c-1.14-0.2-1.6,0.93-2.19-0.13
			c-0.59-1.06,0.12-0.75-1.02-2.14c-1.13-1.39-1.15-1.54-2.12-1.48c-0.97,0.06-1.94,0.85-2.58,0.15s-0.75-1.8-0.13-2.96
			c0.62-1.15,0.76-2.25,1.68-1.07c0.92,1.19-0.06,1.39,1.09,2.26s1.54,0.96,2.76,2.21c1.22,1.25,0.81,1.68,1.86,1.6
			c1.05-0.07,0.62-0.22,1.52-0.12c0.91,0.1,2.07,1.14,1.62,0.16c-0.45-0.98-1.11-1.49-1.41-2.23c-0.3-0.74-0.66-1.58,0.27-1.04
			c0.93,0.54,1.81,1.92,2.57,3.12c0.76,1.2,1.59,2.11,2.17,1.83c0.58-0.28,0.09-0.65,0.07-1.48c-0.02-0.83,1.34-1.48,1.48-0.2
			c0.14,1.28,0.11,3.24,0.53,3.9c0.42,0.66,0.51,1.87,1.1,1.07c0.59-0.8,0.42-2.12,0.95-1.95s1.04,1.78,1.19,0.68
			c0.14-1.1,0.18-2.81,0.6-2.66c0.42,0.15,1.34,0.49,1.31,1.73c-0.03,1.25-1.53,0.6-0.37,2.31c1.17,1.71,0.75,2.39-0.41,2.28
			c-1.16-0.11-2.18-0.39-2.82-0.32c-0.63,0.06-1.12,0.37-1.58,0.16s-1.93-0.12-2.07-0.88c-0.14-0.75,0.62-1.15,0.17-1.46
			c-0.45-0.31-0.28-0.83-0.79-0.18s-0.59,1.47-0.89,0.73c-0.3-0.74,0.74-0.8-0.15-1.09C26.53,50.11,26.53,50.11,26.53,50.11z"/>
		<path class="st1" d="M13.71,47.44c-0.84-0.39-1.78-0.14-1.59-1.18c0.18-1.04,0.25-0.67-0.2-1.64s-0.89-1.8,0.01-1.44
			c0.9,0.36,1.77,0.39,1.74,1.42c-0.02,1.03-0.13,0.6,0.54,1.39s0.94,0.29,0.67,0.79C14.62,47.28,13.71,47.44,13.71,47.44z"/>
		<path class="st7" d="M97.38,74.35c-1-0.38-2.51-0.77-3.81-1.21c-1.29-0.44-10.94-4.62-12.58-5.35c-1.64-0.73-5.41-1.88-7.39-2.74
			c-1.98-0.86-13.94-5.76-15.2-5.88c-1.26-0.13-5.72-2.36-7.97-2.99c-0.95-0.26-1.65-0.75-2.14-1.22c-0.58,0.76-1.23,2.78-1.43,3.85
			c-0.08,0.42-0.07,0.8,0.01,1.17c0.47-0.1,1-0.11,1.54,0.04c1.73,0.5,7.75,2.01,9.95,3.22c2.2,1.22,9.85,4.63,11.78,5.01
			c1.93,0.38,7.58,3.29,10.43,3.68c2.85,0.38,11.1,3.42,11.38,3.33c0.28-0.09,2.85-0.29,3.84-0.07c0.98,0.22,2.77,0.51,3.24,0.72
			c0.4,0.18,0.95,0.22,1.39,0.99c0.62,0.06,1.27,0.25,1.01-0.4c-0.27-0.66,0.95,0.08-0.96-1.22C98.83,75.09,98.38,74.73,97.38,74.35
			z"/>
		<path class="st8" d="M93.79,71.74c-1.89-0.99-7.2-4.04-8.55-4.45c-1.35-0.41-10.64-4.55-11.66-5.09
			c-1.02-0.54-11.04-5.31-11.59-5.39c-0.55-0.07-8.15-3.01-9.93-3.15c-1.78-0.14-2.86,0.68-3.48,1.03
			c-0.09,0.05-0.18,0.14-0.27,0.26c0.49,0.47,1.19,0.96,2.14,1.22c2.25,0.63,6.7,2.86,7.97,2.99c1.26,0.13,13.22,5.03,15.2,5.88
			c1.98,0.86,5.74,2.01,7.39,2.74c1.64,0.73,11.29,4.9,12.58,5.35c1.29,0.44,2.81,0.84,3.81,1.21c1,0.38,1.45,0.74,3.1,0.93
			c-0.24-0.16-0.52-0.35-0.86-0.58C96.53,72.61,95.68,72.73,93.79,71.74z"/>
		<path class="st9" d="M99.04,75.91c-0.47-0.21-2.26-0.5-3.24-0.72c-0.98-0.22-3.56-0.02-3.84,0.07c-0.28,0.09-8.53-2.94-11.38-3.33
			c-2.85-0.38-8.5-3.3-10.43-3.68c-1.93-0.38-9.57-3.8-11.78-5.01c-2.2-1.22-8.22-2.72-9.95-3.22c-0.55-0.16-1.07-0.15-1.54-0.04
			c0.2,0.94,0.89,1.73,1.97,2.49c1.51,1.05,8.97,3.24,9.96,3.61c1,0.38,6.76,2.29,7.85,2.53c1.08,0.24,20.28,5.78,21.12,5.92
			s4.36,1.29,4.36,1.29s3.3,0.95,3.89,0.82c0.6-0.12,3.45,0.26,4.12,0.25c0.09,0,0.17,0,0.26,0.01
			C99.99,76.13,99.44,76.09,99.04,75.91z"/>
	</g>
</g>
</svg>
