<?xml version="1.0" encoding="utf-8"?>
<!-- Generator: Adobe Illustrator 23.1.1, SVG Export Plug-In . SVG Version: 6.00 Build 0)  -->
<svg version="1.1" id="Layer_1" xmlns="http://www.w3.org/2000/svg" xmlns:xlink="http://www.w3.org/1999/xlink" x="0px" y="0px"
	 viewBox="0 0 108 108" style="enable-background:new 0 0 108 108;" xml:space="preserve">
<style type="text/css">
	.st0{fill:#94BB5B;}
	.st1{fill:#6A9940;}
	.st2{fill:#5F8C3D;}
	.st3{fill:#ABC379;}
	.st4{fill:#7BA347;}
	.st5{fill:#81A05F;}
</style>
<g>
	
		<ellipse transform="matrix(0.3498 -0.9368 0.9368 0.3498 -21.1801 86.8311)" class="st0" cx="51.96" cy="58.67" rx="18.78" ry="19.19"/>
	<path class="st1" d="M74.61,71.65c0.07,0.37,1.63,4.89,0.66,6.69c-0.97,1.8-1.94,3.68-2.68,4.42s-0.67,0.8-2.92,0.74
		c-2.25-0.06-0.24,0.61-5.12-0.43c-4.88-1.04-3.88-0.49-5.79-1.41c-1.91-0.92-1.91,1.44-3.43-3.37c-1.52-4.81-3.68-4.29-0.92-7.06
		c2.76-2.76-0.61-1.82,4.15-3.62c4.75-1.79,1.66-4.19,6.18-2.34c4.52,1.85,3.62,0.47,6.15,2.85C73.41,70.49,74.61,71.65,74.61,71.65
		z"/>
	<path class="st2" d="M65.13,28.84c0.81-0.98,1.54-1.34,2.9-1.9c1.36-0.56,1.16-0.73,3.03,0.68c1.87,1.41,2.25,1.65,3.69,2.33
		c1.44,0.67,2.08,1.41,3.04,3.01c0.96,1.6,1.47,2.21,0.93,4.17c-0.53,1.96,0.34,1.78-0.94,3.93s-1.14,1.55-1.75,3.41
		c-0.61,1.86-1.39,4.04-1.75,5.04s-2.29,2.22-2.87,2.84c-0.57,0.61-2.13,1.15-2.7,0.6s-3.49-5.69-4.87-5.57
		c-1.38,0.12-5.75-0.12-6.56,0c-0.81,0.12-2.88-0.96-2.38-3c0.5-2.04,2.46-4.19,3.98-7.25c1.51-3.07,2.05-4.79,3.28-6.07
		C63.4,29.76,65.13,28.84,65.13,28.84z"/>
	<path class="st1" d="M48.62,28.51c-0.67-0.86-1.96-1.75-3.44-2.17c-1.48-0.42-2.2,0-3.08,0c-0.88,0-2.1,1.23-4.42,2.17
		s-3.55,1.72-4.18,3.44c-0.63,1.72-0.54,3.16,0.07,4.81c0.61,1.65,2.69,4.16,3.06,5.1c0.38,0.93,1.65,3.09,1.8,3.73
		c0.16,0.65-0.02,3.37,0.84,2.94s3.97-8.11,4.76-9.04c0.79-0.93,4.51-5.96,4.65-6.6c0.14-0.65,0.42-1.08,0.42-1.44
		C49.09,31.09,48.62,28.51,48.62,28.51z"/>
	<path class="st3" d="M53.18,30.06c0.12-0.25,1.47-2.15,2.39-2.76s4.72-1.47,5.72-1.41s1.43,0.06,2.43,0c1-0.06,1.53,0.31,2.21,0.62
		s1.68,1.03,1.69,1.47c0.01,0.43-2.85,5.89-3.13,7.55c-0.29,1.66-1.88,3.93-2.86,4.72c-0.99,0.8-4.71,2.21-4.71,2.21
		s-2.69-4.72-2.83-5.71s-0.92-3.44-0.87-4.05C53.27,32.08,53.18,30.06,53.18,30.06z"/>
	<path class="st1" d="M74.25,42.45c0.44,0.31,3.57,1.04,4.39,1.96c0.82,0.92,2.91,2.82,3.36,3.74s1.4,2.02,1.36,3.19
		c-0.05,1.17-0.55,5.15-2.03,6.44c-1.48,1.29-3.15,2.09-4.01,2.76c-0.86,0.67-4.65,1.78-5.9,1.84s-4-0.43-5.81-0.61
		c-1.81-0.18-5.31-0.86-5.32-1.66c-0.01-0.8,0.94-4.29,0.92-5.21s1.46-6.56,2.08-7.42c0.61-0.86-0.21-1.6,2.27-2.64
		c2.48-1.04,2.46-1.1,4.05-1.47C71.2,43,74.25,42.45,74.25,42.45z"/>
	<path class="st2" d="M60.98,69.81c1.07,0.31,4.17,1.6,5.6,2.21c1.43,0.61,3.19,1.66,4.68,1.41c1.49-0.25,2.5,0.06,3.61-0.31
		c1.12-0.37,1.62,0.06,2.73-0.92c1.11-0.98,2.35-1.66,2.95-3.01c0.6-1.35,0.86-1.23,0.89-3.07c0.04-1.84,0.02-2.87,0.69-3.74
		s1.11-1.23,1.35-1.85c0.24-0.61,0.36-0.8-0.82-0.74c-1.18,0.06-1.59,0.35-2.62-0.01s-3.75-0.6-5.31-0.97s-2.82-0.74-4.19-0.67
		c-1.37,0.06-1.93,0.06-2.48,0.67c-0.55,0.61-1.73,2.28-2.93,2.89c-1.2,0.61-2.83,0.24-3.75,1.04c-0.92,0.8-0.69,0-1.03,1.84
		C60,66.44,60.98,69.81,60.98,69.81z"/>
	<path class="st0" d="M59.33,71.41c0.44,0.43,3.73,3.31,3.99,3.93c0.26,0.61,0.09,2.09,0.04,2.7c-0.05,0.61-0.17,1.23-0.73,1.17
		s-2.62,0.13-3.49,0c-0.87-0.13-2.88-0.92-3.26-1.17c-0.38-0.25-2.12-3.85-2.06-4.56s-0.41-1.75-0.04-2.61
		c0.37-0.86-0.52-1.53,0.98-1.47S59.33,71.41,59.33,71.41z"/>
	<path class="st1" d="M33.45,67.99c-0.49,0.49-1.73,1.23-2.38,3.25c-0.66,2.02-1.41,1.41-0.89,3.44s2.42,4.79,2.42,6.26
		c0,1.47,1.58,2.64,1.64,2.94c0.07,0.31,1.56,0.18,2.49,0s4.72-1.6,5.21-1.66c0.5-0.06,4.15-1.74,4.64-2.39
		c0.49-0.65,0.91-5.77,0.91-5.77s0.07-3.87-1.13-4.66c-1.2-0.8-1.64-1.23-2.89-1.72s-4.37-0.67-5.81-0.43
		C36.25,67.5,33.45,67.99,33.45,67.99z"/>
	<path class="st4" d="M38.59,34.84c-0.62,0.18-1.1,1.23-2.6,1.47c-1.49,0.25-2.37,0-3.23,0.74c-0.86,0.74-1.6,1.6-1.72,2.09
		c-0.12,0.49-0.24,0.61,0.03,1.9s4.1,3.01,5.04,3.5c0.94,0.49,5.71,1.9,6.23,1.35s-0.01-3.19-0.05-3.44
		c-0.04-0.25-0.55-1.17-0.88-2.64c-0.33-1.47-0.52-1.78-1.04-2.82C39.86,35.94,38.59,34.84,38.59,34.84z"/>
	<path class="st2" d="M40.98,44.72c-1.33-1.17-2.1-2.7-3.78-3.01s-3.3,0.18-4.37-0.37c-1.07-0.55-1.1-1.29-2.56-1.72
		s-1.23-0.55-2.5-0.43c-1.27,0.12-2.69,0.92-3.3,1.72c-0.61,0.8-1.47,1.8-1.7,3.11c-0.23,1.31,0.17,3.34,0.82,5.18
		c0.65,1.84,2.17,3.56,3.38,4.91c1.2,1.35,0.65,1.9,2.85,2.76c2.19,0.86,3.45,1.53,5.62,0.86c2.17-0.67,3.05-0.55,4.02-1.96
		c0.98-1.41,1.2-3.07,1.62-4.72c0.41-1.66,0.68-0.51,0.4-2.46C41.2,46.62,40.98,44.72,40.98,44.72z"/>
	<path class="st3" d="M36.22,56.37c-1.62,0-3.13-0.61-4.75-0.61c-1.62,0-4.68-0.12-6.04,0.61c-1.36,0.74-3.65,2.27-3.45,2.64
		c0.19,0.37,2.7,1.53,2.18,4.11c-0.52,2.58-1.53,4.42-1.12,5.34c0.4,0.92,1.23,2.94,2.97,3.8c1.73,0.86,4.08,1.89,5.41,2.05
		c1.33,0.16,2.59,0.94,4.07,0c1.48-0.94,3.46-2.23,4.31-3.64c0.85-1.41,0.53-1.87,1.09-2.56c0.55-0.69,1.72-1.94,1.74-2.85
		s-0.82-2.87-1.15-3.79c-0.33-0.92-2.72-2.89-3.17-3.47S36.22,56.37,36.22,56.37z"/>
	<path class="st2" d="M50.53,63.55c0.07,0.31,0.72,2.7-0.7,3.68c-1.42,0.98-0.07,1.67-3.15,1.84c-3.08,0.17-2.69-1.23-4.2,0.3
		c-1.51,1.54-1.56,2.27-1.42,3.5c0.14,1.23,2.69,6.56,3.41,8.04c0.72,1.47,2.44,4.29,3.95,4.97s2.72,1.41,3.87,1.53
		c1.14,0.12,2.26-0.18,2.88-0.43c0.62-0.25,2.06-0.12,2.78-1.96c0.72-1.84,0.88-4.62,0.79-6.08c-0.09-1.47-0.03-5.94-0.6-6.8
		c-0.57-0.86-1.33-1.23-2.4-2.27c-1.08-1.04-2.46-2.27-2.46-2.27s-0.08-1.23-0.71-1.47s-0.48-0.39-0.59-0.87
		c-0.11-0.48-0.18-0.97-0.31-1.34S50.53,63.55,50.53,63.55z"/>
	<path class="st5" d="M46.15,26.93c0.48-0.13,2.87,0.31,3.8,0c0.93-0.31,1.98-1.1,2.61-0.37c0.63,0.74,2.05,3.87,2.5,4.54
		c0.45,0.67,1.21,1.89,1.54,3.06c0.33,1.17,0.74,1.48,0.92,2.4c0.18,0.92,0.86,2.27,0.51,2.94c-0.35,0.67-0.57,1.42-1.47,2.33
		c-0.9,0.92-2.48,1.67-4.27,2.18s-4.75,0.35-5.39,0s-4.16-1.76-4.39-2.74c-0.23-0.98-0.18-2.27-0.3-3.8
		c-0.12-1.53,1.06-1.84,1.78-3.68c0.72-1.84,1.21-2.88,1.13-4.05C45.05,28.58,45.22,27.17,46.15,26.93z"/>
	<path class="st5" d="M64.86,57.36c0.76,0.67,5.9,2.76,6.56,5.03c0.66,2.27-0.78,6.13-1.77,6.99c-0.99,0.86-1.1,1.66-2.16,1.54
		c-1.06-0.12-2-0.43-2.45-1.23c-0.45-0.8-0.83-1.29-1.09-2.21c-0.26-0.92-0.46-1.69-0.65-1.67c-0.19,0.02-0.06,0.26,0.02,1.37
		c0.08,1.1,0.42,3.09-0.26,3.75s-0.86,1.28-2.04,1.4c-1.18,0.12-0.84,0.76-2.4,0c-1.56-0.76-3.33-1.35-4.04-1.66
		c-0.71-0.31-2.76-1.29-2.76-1.29s-0.94-0.61-0.76-0.92c0.18-0.31,0.58-1.08,1.53-1.37s1.39,0.02,1.5-1.02
		c0.11-1.04,0.11-1.35,0.09-2.21c-0.01-0.86,0.74-0.73-0.02-1.47s-1.45-1.29-1.45-1.29l0.49-0.8c0,0,1.24-0.74,1.55-0.67
		c0.31,0.06,1.18-0.25,1.74-0.49c0.56-0.25,0.71-0.55,1.38-0.55c0.67,0,2.59-1.04,3.33-1.23c0.75-0.18,1.68-0.25,1.68-0.25
		L64.86,57.36z"/>
	<path class="st0" d="M48.08,44.02c-0.52-1.7-0.66-2.8-1.85-3.23c-1.19-0.43-1.79-1.21-2.94,0c-1.16,1.21-4.4,5.21-5.02,5.95
		s-1.28,1.7-0.77,3.12s0.17,3.08,1.93,4.24s2.26,1.4,3.05,1.65c0.79,0.25,1.79,0.38,2.28,0.25s1.56,0.28,1.93,0.05
		c0.37-0.23,1.36-1.15,1.97-2.07c0.61-0.92,0.77-2.72,0.69-4.12c-0.08-1.4-0.18-2.01-0.49-3.12C48.54,45.64,48.08,44.02,48.08,44.02
		z"/>
	<path class="st3" d="M50.33,53.18c-1.82-1.1-2.02-1.98-2.6-3.32s-1.6-4.52-0.82-5.84s0.27-2.06,2.76-2.25s4.93-0.06,5.49,0
		c0.56,0.06,2.82,0.67,3.47,2.82c0.65,2.15,1.84,2.15,0.87,4.29c-0.97,2.15-0.36,2.91-2.13,3.53c-1.77,0.62-2.18,0.46-3.04,0.76
		s-2.36,0.37-2.86,0.31C50.96,53.43,50.33,53.18,50.33,53.18z"/>
	<path class="st4" d="M48.1,58.15c-2.89-1.28-5.63-2.19-6.81-2.89c-1.18-0.71-2.06-2.15-3.3-1.74c-1.24,0.41-2.17,0.65-2.47,1.39
		s-0.79,1.29-0.08,2.82s1.9,4.11,2.08,5.03s1.5,3.03,2.8,3.74c1.3,0.71,2.53,0.86,3.34,0.61c0.82-0.25,0.94-0.83,1.99-1.3
		s2.47-1.21,3.09-1.95c0.61-0.74,1.36-0.79,1.29-1.47c-0.07-0.68-0.01-1.35-0.02-1.85c-0.01-0.49,0.42-1.23-0.02-1.35
		c-0.44-0.12-0.72-0.43-0.96-0.49C48.79,58.64,48.1,58.15,48.1,58.15z"/>
	<path class="st1" d="M48.53,53.51c-0.45-0.63-1.53-2.29-2.21-1.86c-0.68,0.43-0.28,2.47,0.05,3.44c0.33,0.97,2.17,3.19,2.23,3.56
		c0.07,0.37,0.4,0.67,0.89,0.61c0.49-0.06,1.12,0.31,0.91-0.67c-0.2-0.98,0.44-1.6-0.27-2.46S48.53,53.51,48.53,53.51z"/>
	<path class="st1" d="M51.46,53.49c-0.68,0.25-2.38,0.86-2.48,1.53c-0.1,0.67,0.92,2.58,0.92,2.58s0.76,0.06,0.97,0
		c0.21-0.06,1.01-0.8,1-1.23c-0.01-0.43,0.11-1.04-0.02-1.47C51.72,54.47,51.46,53.49,51.46,53.49z"/>
	<path class="st2" d="M53.49,51.58c0,0-1.95,1.73-2.28,2.77s-0.42,2.88-0.33,3.25s0.72,1.66,1.09,1.17
		c0.37-0.49,1.33-2.78,1.57-3.54c0.24-0.76,0.66-2.35,0.59-2.81C54.06,51.96,53.49,51.58,53.49,51.58z"/>
	<path class="st0" d="M53.42,57.66c0.53-0.25,3-1.84,2.93-2.27s-1.25,0-0.84-1.96c0.41-1.96,1.1-4.11,2.17-6.01
		c1.08-1.9,1.74-3.68,3.28-4.97s2.72-1.96,4.34-2.02c1.62-0.06,3.54-0.67,3.74,0c0.2,0.67,0.25-0.25,1.11,3.25s0.96,6.13,0.68,7.91
		c-0.29,1.78,0.23,3.14-1.99,4.97c-2.21,1.83-3.14,2.76-4.26,2.88c-1.12,0.12-2.81,0.31-3.74,0c-0.94-0.31-2.01-0.24-2.42-0.98
		c-0.41-0.74-0.78-0.61-0.98-1.35c-0.2-0.74-0.69-0.61-0.69-0.61s-0.24,0.61-0.8,0.98c-0.56,0.37-0.99,0.54-1.24,0.67
		c-0.25,0.13-1.29,0.4-1.29,0.4L53.42,57.66z"/>
	<path class="st2" d="M53.16,58.15c0,0,0.8-0.79,2.78-0.67c1.98,0.12,2.12-0.12,4.07,0.15c1.95,0.27-0.19,0.77-0.43,1.14
		c-0.24,0.37-2.71,0.15-3.43,0.11s-3.96,2.16-5.14,3.2S49.3,61.72,50,61.35c0.58-0.31,1.15-1.46,2.27-2.59L53.16,58.15z"/>
</g>
</svg>
