<?xml version="1.0" encoding="utf-8"?>
<!-- Generator: Adobe Illustrator 23.1.1, SVG Export Plug-In . SVG Version: 6.00 Build 0)  -->
<svg version="1.1" id="Layer_1" xmlns="http://www.w3.org/2000/svg" xmlns:xlink="http://www.w3.org/1999/xlink" x="0px" y="0px"
	 viewBox="0 0 108 108" style="enable-background:new 0 0 108 108;" xml:space="preserve">
<style type="text/css">
	.st0{fill:#72933C;}
	.st1{fill:#A4C839;}
	.st2{fill:#F6CB18;}
	.st3{fill:#91B93F;}
	.st4{fill:#78652B;}
</style>
<g>
	<path class="st0" d="M56.13,17.75L54.25,11v6.12c0,0-0.62-2-2.12-2.75c-1.5-0.75-0.62,1.75-0.62,1.75s1.5-0.75-1.37,0.37
		c-2.87,1.12-4.12,3.5-4,4.37c0.12,0.87,0.48,2-0.01,2.87c-0.49,0.87-0.87,1.75-1.37,2.5c-0.5,0.75-1.62,3.37-1.87,4.5
		c-0.25,1.12,0,3,0,3s1.25-4.75,2.5-5.87c1.25-1.12,1.75-1.37,2.62-2.12s1.44-1.5,1.44-1.5s0.69,1.5,0,2.12
		c-0.69,0.62-2.07,1.37-2.44,2.12c-0.37,0.75-1.75,1.37-1.75,3.5s0,3.37,0.5,4.5s0.62-1,0.62-2.5s0.5-3.37,1.12-3.87
		c0.62-0.5,1.94-0.87,1.94-0.87s0.07,2.62,0,3.25c-0.07,0.62,1.18,0.37,1.56-0.37c0.37-0.75-0.12-1.5,0.37-0.75
		c0.5,0.75,1.25,1.5,1.62,1.87s0.87,1-0.5,1.12c-1.37,0.12-3.5,0.12-4,0.75c-0.5,0.62-2.12,1.62-2.5,3s-1.5,3.37-1.5,3.37
		s3-1.75,4.25-3.25c1.25-1.5,1.62-1.75,2.62-2.25c1-0.5,2.25-0.5,2.37,0.12c0.12,0.62,0.75,3.75,0.75,4.37c0,0.62,1.98,7.5,0.93,8
		c-1.05,0.5-5.54,0.62-5.98,1.25c-0.44,0.62-2.07,4.62-2.57,5.37c-0.5,0.75-1.62,3.37-2.25,4.12s-2.31,1-2.59,2.5
		c-0.28,1.5,0.41,2.87,0,3c-0.41,0.12,0.22-1,1.09-2c0.87-1,3.87-2.62,4.12-4.12c0.25-1.5,1.12-3.75,2.37-4.5
		c1.25-0.75,1.87-1.5,2.87-2.37c1-0.87,1.75-1,1.75-1s-0.25,1.5,0,2.75c0.25,1.25,2.37,2.75,0.37,2.75s-2-0.5-3.25-0.25
		s-3.59,0.75-2.36,1.12s0.61-0.12,2.73,0.5c2.12,0.62,2.87,1.25,3,1.62s-0.5,3.25-0.87,3.75c-0.37,0.5-1-0.25-2.62-0.87
		c-1.62-0.62-3.25-1.75-4.12-0.25c-0.87,1.5-0.37,0.64-2,2.88c-1.62,2.24-3.25,3.99-1.62,2.99c1.62-1,4.25-1.5,5-2.62
		c0.75-1.12,0.87-0.75,1.12,0.12c0.25,0.87-0.97,3.12-0.61,3.87s0.99,4.86,1.11,6.31c0.12,1.44,0.87,2.94,1.12,1.82
		c0.25-1.12-0.12-3.37,0.75-5.5c0.87-2.12,1.62-4.12,1.62-4.12s0.87,0.37,0.87,1.87s-0.25,3.87-0.37,5
		c-0.12,1.12-0.25,1.91-0.25,3.14c0,1.23,0.62,0.36,0.5,1.86s-0.12,2.62-0.25,4.37C54,85.61,54,86.36,54,86.36s-0.62-0.62-1.87-1.12
		c-1.25-0.5-3.25-0.75-4-0.5c-0.75,0.25-0.87,1.37-2,1.62c-1.12,0.25-2.5,0.62-2.5,0.62s2.62,0.37,3.62,0c1-0.37,1.5-0.62,2.87-0.5
		C51.5,86.61,53,87.16,53,87.16s1.12-1.08,1.12,0s-0.25,1.46-0.12,1.96c0.12,0.5-0.12,3.37-0.12,3.37l0.25,0.75
		c0,0,1.75-2.75,2-3.12c0.25-0.37,0.12-5.37,0-6c-0.12-0.62,0.14-3.87,0.14-3.87s3.11-1.37,3.98-1.37c0.87,0,2.62-0.37,3.25,0.25
		s2.5,0.5,1-0.5c-1.5-1-2.25-1.62-3.5-1.62s-2.5-0.25-3,0s-0.94-0.12-0.94-0.12s-0.56-4.12-0.56-4.62s1-2.12,2.5-4.5
		c1.5-2.37,2.25-5.62,2.87-5.87c0.62-0.25,2.14-2.37,3.19-0.12c1.06,2.25,2.56,3.62,2.56,3.62s1-0.37,0-2.25
		c-1-1.87-1.75-3.5-3.25-3.5s-1.62-0.25-3.37,0.62c-1.75,0.87-1.5,1.12-2.25,1.62c-0.75,0.5-1.5,1.12-1.69-0.37
		c-0.19-1.5-0.19-3.75,0.56-4.5c0.75-0.75,1.25-0.37,1-2.5c-0.25-2.12-1.5-5.5-1.56-7.37c-0.06-1.87-0.06-4.5,0-5.5
		c0.06-1-0.19-1.62,1.31-2s2.87-1,4.37,0.25c1.5,1.25,4.12,3.12,4.37,4c0.25,0.87,0.64,3.62,0.94,3.25c0.31-0.37,0.31-5-0.57-6.25
		c-0.87-1.25-3.25-3.5-4.87-3.75C61,36.87,59,37.24,58.38,37.37c-0.62,0.12-2-0.37-2-0.75s0.12-0.75,0.69-2.62
		c0.56-1.87,1.06-4.12,1.06-4.12s0.12,3.12,1,3.87s2.62,2.5,2.62,2.12c0-0.37-1.25-2.37-1.12-4.5c0.12-2.12,0.25-2.62,0.37-4
		c0.12-1.37-1.12-2.75,0.12-1.37s2.75,3,3,4.62c0.25,1.62,1.99,4.37,1.99,4.37s-0.49-5-1.36-7.25c-0.87-2.25-3.5-4.12-3.5-4.12
		s-0.62-1.5-1.75-2.5c-1.12-1-1.12-0.37-1.12-1s-1.5-0.5-0.12-2.62c1.37-2.12,1.87-3.87,3-2.87s2.5,1.62,2.12,2.5
		C63,18,64,15.37,62.5,14.12s-4-1.87-4.5-0.87S56.13,17.75,56.13,17.75z"/>
	<g>
		<path class="st1" d="M47.89,38.39c0,0-0.79-0.97-1.1-1.29s-1.03-0.8-1.03-0.8s-0.38,0.62-0.39,0.69s0.28,0.72,0.28,0.72l0.85,1.68
			c0,0,0.46-0.08,0.54-0.15C47.11,39.17,47.89,38.39,47.89,38.39z"/>
		<path class="st2" d="M48.74,38.94c-0.55-0.55-0.73-0.9-1.36-0.76s-0.97,0.08-1.18,1.01c-0.21,0.93-0.92,1.77,0.77,4.49
			s3.17,5.16,4.06,6.33c0.89,1.17,2.07,2.82,2.64,3.44c0.58,0.63,2.4,1.34,2.5,0.28c0.09-1.06-0.22-3.14-1.06-4.97
			c-0.84-1.82-2.28-5.21-2.73-5.84c-0.45-0.62-2.01-2.6-2.21-2.89C49.96,39.75,48.74,38.94,48.74,38.94z"/>
		<path class="st1" d="M54.43,52.12c-0.2-0.8-2.52-3.41-3.72-4.84s-3.39-4.05-3.52-4.5c-0.13-0.45-1.23-3.11-1.42-3.44
			c-0.19-0.33-0.47-0.72-0.86-1.39c-0.39-0.67-0.59-1.12-0.64-1.04c-0.05,0.09,0.07,1.86,0.21,2.28s3.24,7.46,3.35,7.67
			s3.01,7.33,3.39,7.88s0.73,1.01,1.36,1.37c0.64,0.35,0.85,0.32,1.3,0.73c0.46,0.41,1.06,0.82,1.13,1.24s0.24,0.89,0.52,1.2
			c0.28,0.31,0.39,0.37,0.66,0.1c0.26-0.27,0.34,0,0.44-0.78c0.09-0.78-0.18-2.26-0.02-3.37c0.16-1.11,0.44-1.75,0.43-2.4
			s-1.17-3-1.43-3.9c-0.26-0.9-2.66-5.65-2.98-6.02s-1.82-2.53-2.31-3.14c-0.49-0.62-1.48-1.7-1.66-1.99
			c-0.18-0.29-0.82-1.25-0.82-1.25l0.02,1.45c0,0,2.22,2,2.58,2.46s1.51,2.66,1.69,3.14c0.19,0.48,1.97,6.06,2.34,6.5
			c0.37,0.43,0.77,1.75,0.76,1.9s-0.01,0.98-0.01,0.98L54.43,52.12z"/>
	</g>
	<g>
		<path class="st1" d="M61.37,58.76c0,0,0.71-1.08,1-1.44c0.29-0.37,0.98-0.93,0.98-0.93s0.46,0.6,0.47,0.67
			c0.01,0.08-0.21,0.77-0.21,0.77l-0.69,1.82c0,0-0.48-0.04-0.57-0.1C62.25,59.48,61.37,58.76,61.37,58.76z"/>
		<path class="st2" d="M60.56,59.42c0.51-0.63,0.66-1,1.32-0.92s1-0.02,1.31,0.91c0.31,0.93,1.13,1.72-0.32,4.69
			s-2.73,5.62-3.52,6.92c-0.79,1.3-1.83,3.1-2.36,3.81c-0.53,0.7-2.33,1.62-2.53,0.54s-0.1-3.25,0.57-5.21
			c0.67-1.96,1.8-5.59,2.2-6.27c0.4-0.69,1.79-2.87,1.97-3.2S60.56,59.42,60.56,59.42z"/>
		<path class="st1" d="M56.07,73.53c0.13-0.84,2.24-3.76,3.33-5.35c1.09-1.59,3.06-4.5,3.15-4.98c0.09-0.48,0.94-3.32,1.1-3.68
			c0.16-0.36,0.41-0.79,0.74-1.51c0.33-0.73,0.49-1.21,0.55-1.13c0.06,0.08,0.12,1.91,0.02,2.36c-0.1,0.45-2.56,7.99-2.65,8.22
			c-0.09,0.23-2.34,7.83-2.67,8.44c-0.33,0.6-0.64,1.11-1.26,1.54c-0.62,0.43-0.84,0.41-1.26,0.88c-0.43,0.46-1.01,0.95-1.03,1.39
			c-0.03,0.44-0.15,0.94-0.41,1.28c-0.25,0.34-0.37,0.42-0.67,0.17c-0.3-0.25-0.35,0.04-0.53-0.76s-0.04-2.34-0.32-3.46
			c-0.28-1.12-0.63-1.75-0.69-2.42s0.89-3.2,1.06-4.16s2.15-6.07,2.44-6.49c0.3-0.41,1.6-2.78,2.05-3.46
			c0.44-0.68,1.35-1.9,1.5-2.21c0.15-0.32,0.71-1.37,0.71-1.37l0.12,1.5c0,0-2.08,2.28-2.4,2.8c-0.32,0.52-1.27,2.88-1.42,3.4
			c-0.14,0.51-1.4,6.43-1.73,6.91c-0.33,0.48-0.61,1.88-0.59,2.03c0.02,0.15,0.11,1,0.11,1L56.07,73.53z"/>
	</g>
	<g>
		<path class="st1" d="M58.81,19.21c0,0,0.49-1.02,0.7-1.37c0.21-0.35,0.74-0.92,0.74-0.92s0.47,0.47,0.48,0.53
			c0.02,0.06-0.1,0.69-0.1,0.69l-0.4,1.66c0,0-0.43,0.02-0.51-0.02C59.65,19.74,58.81,19.21,58.81,19.21z"/>
		<path class="st2" d="M58.17,19.88c0.37-0.6,0.46-0.94,1.04-0.95c0.59-0.01,0.87-0.13,1.24,0.65c0.38,0.78,1.17,1.37,0.25,4.11
			s-1.73,5.19-2.27,6.4c-0.54,1.21-1.24,2.9-1.62,3.57c-0.38,0.67-1.84,1.67-2.14,0.76c-0.3-0.91-0.45-2.81-0.09-4.59
			c0.36-1.77,0.93-5.06,1.2-5.7c0.27-0.64,1.23-2.7,1.35-3S58.17,19.88,58.17,19.88z"/>
		<path class="st1" d="M55.87,32.64c0.01-0.74,1.52-3.52,2.28-5.03c0.77-1.5,2.15-4.26,2.17-4.68s0.44-2.99,0.54-3.32
			c0.1-0.33,0.27-0.73,0.47-1.4c0.2-0.67,0.29-1.11,0.35-1.04c0.06,0.07,0.32,1.65,0.28,2.05s-1.32,7.23-1.37,7.44
			c-0.05,0.21-1.14,7.07-1.36,7.63c-0.22,0.56-0.43,1.04-0.92,1.48s-0.68,0.45-1,0.91c-0.32,0.45-0.77,0.94-0.74,1.32
			c0.02,0.38-0.03,0.83-0.21,1.16c-0.18,0.33-0.27,0.41-0.56,0.22c-0.29-0.18-0.3,0.07-0.54-0.6s-0.3-2.02-0.67-2.97
			c-0.37-0.94-0.75-1.45-0.87-2.03c-0.12-0.58,0.41-2.88,0.45-3.73c0.04-0.85,1.18-5.52,1.39-5.91c0.21-0.39,1.08-2.6,1.39-3.24
			c0.31-0.64,0.96-1.8,1.05-2.09c0.1-0.29,0.46-1.27,0.46-1.27l0.28,1.29c0,0-1.55,2.21-1.77,2.7c-0.22,0.49-0.78,2.65-0.85,3.11
			s-0.49,5.74-0.72,6.2c-0.23,0.46-0.31,1.7-0.28,1.83s0.21,0.86,0.21,0.86L55.87,32.64z"/>
	</g>
	<path class="st3" d="M52.97,21.65c0,0-1.04-0.18-1.25,0.55s-1.04,2.01-1.04,2.01c0.64,0.55,1.65,0.18,1.83,0
		c0.18-0.18-0.27,1.01-0.69,1.65s-0.37,1.01-0.48,1.83s0.48,2.38,0.48,2.38s1.42-1.74,1.14-2.2c-0.27-0.46,0.83-3.94,0.74-4.21
		c-0.09-0.27-0.72-2.15,0.01-2.03C54.43,21.74,53.33,22.29,52.97,21.65z"/>
	<path class="st3" d="M50.65,64.26c0.34,0.28,2.81,1.28,2.81,1.28s-0.89-0.09-1.41,0.37c-0.51,0.46-1.03,0.92-1.03,0.92L50.65,64.26
		z"/>
	<path class="st4" d="M55.52,90.05c-5.52,0-10.13,1.7-11.26,3.96h22.51C65.65,91.75,61.04,90.05,55.52,90.05z"/>
</g>
</svg>
