<?xml version="1.0" encoding="utf-8"?>
<!-- Generator: Adobe Illustrator 23.1.1, SVG Export Plug-In . SVG Version: 6.00 Build 0)  -->
<svg version="1.1" id="Layer_1" xmlns="http://www.w3.org/2000/svg" xmlns:xlink="http://www.w3.org/1999/xlink" x="0px" y="0px"
	 viewBox="0 0 108 108" style="enable-background:new 0 0 108 108;" xml:space="preserve">
<style type="text/css">
	.st0{fill:#9DB561;}
	.st1{fill:none;stroke:#A7BE65;stroke-width:1.5765;stroke-miterlimit:10;}
	.st2{fill:none;stroke:#B5C265;stroke-width:1.5765;stroke-miterlimit:10;}
	.st3{fill:#5F8C3D;}
	.st4{fill:#BDCA8A;}
	.st5{fill:#ABC379;}
	.st6{fill:#9BBD62;}
	.st7{fill:#7BA347;}
	.st8{fill:#7E9D3D;}
	.st9{fill:#94BB5B;}
	.st10{fill:#8DAF40;}
</style>
<g>
	<ellipse transform="matrix(0.9996 -0.028 0.028 0.9996 -2.547 1.3748)" class="st0" cx="47.76" cy="91.52" rx="6.02" ry="2.68"/>
	<g>
		<g>
			<path class="st1" d="M30.66,64.59c0,0,10.21,18.68,12.26,27.89"/>
			<path class="st1" d="M51.51,92.48c1.64-4.16,8.75-6.42,16.27-12.35"/>
			<path class="st1" d="M65.26,62.3c0,0-12.37,27.81-12.33,28.72"/>
			<path class="st1" d="M51.87,89.99c0.21-0.31,5.55-15.83,5.55-15.83"/>
			<line class="st1" x1="61.38" y1="54.59" x2="58.54" y2="61.57"/>
			<line class="st1" x1="55.56" y1="51.81" x2="55.96" y2="60.24"/>
			<line class="st1" x1="52.93" y1="52.98" x2="51.87" y2="59.78"/>
			<path class="st1" d="M44.16,80.6c0.49,1.97,3.21,9.78,3.22,11.49"/>
			<path class="st1" d="M49.97,76.17c0,0-0.72,13.68-0.97,14.86"/>
			<line class="st1" x1="49.97" y1="91.02" x2="50.38" y2="75.23"/>
			<path class="st2" d="M51.19,76.17c0.08,0.23,1.37,12.96,1.37,12.96"/>
			<path class="st1" d="M51.19,81.16c-0.16,0.55,0.32,10.3,0.32,10.3"/>
			<line class="st1" x1="43.67" y1="79.19" x2="44.18" y2="92.12"/>
		</g>
		<line class="st2" x1="47.38" y1="77.18" x2="48.26" y2="91.02"/>
	</g>
	<path class="st3" d="M32.27,67.97c0-1.01,0.73-2.19,0.73-2.73c0-0.55-0.73-1.87-0.73-1.87s0.65-1.8,0.73-2.42
		c0.08-0.62,0.4-1.33,0-2.26c-0.4-0.94,0.08-1.8-0.73-2.5c-0.81-0.7-0.65-0.31-1.94-0.7c-1.29-0.39-1.21-0.55-2.34-1.17
		s-2.34-0.16-4.2,0s-1.94-0.16-3.15,0.23c-1.21,0.39-1.54,1.17-2.51,1.33c-0.97,0.16-1.62,1.01-1.37,1.48
		c0.24,0.47,0.81,1.41,2.43,2.03s4.37,1.09,4.85,1.6c0.49,0.51-1.05,0.57-0.16,1.32c0.89,0.75,0.4-0.03,2.26,1.14
		c1.86,1.17,2.75,1.56,3.48,2.03c0.73,0.47,1.13,1.17,1.37,1.64C31.22,67.58,32.27,67.97,32.27,67.97z"/>
	<path class="st4" d="M29.52,42.68c-0.73,0.31-2.43-0.23-2.51,1.17c-0.08,1.41-0.16,2.11,0.81,2.81c0.97,0.7,2.18,0.23,1.05,1.25
		s-2.35,0.16-1.9,1.56c0.45,1.41,1.02,2.89,2.07,3.43c1.05,0.55,1.13,1.16,2.34,1.09c1.21-0.07,1.45,0.47,1.82,0.71
		c0.37,0.23,0.69-0.08,1.9,0c1.21,0.08,2.83,0,3.31-0.23c0.49-0.23,0.97-0.23,1.62-0.94c0.65-0.7,3.64-1.56,2.1-3.67
		s-1.54-3.67-4.69-4.68c-3.15-1.01-2.43-0.86-3.72-1.25C32.43,43.54,29.52,42.68,29.52,42.68z"/>
	<path class="st5" d="M35.51,35.11c-0.32,0.16-6.06,3.83-6.31,4.53c-0.24,0.7,0.41,1.68,0,2.42s-3.02,0.15-2,1.21
		c1.02,1.06,1.19,1.21,2.72,1.91c1.54,0.7,1.94,0.62,2.26,0.55c0.32-0.08,0.94-0.12,2.53-1.47c1.59-1.34,3.13-2.2,3.53-2.98
		c0.4-0.78,2.67-2.19,2.59-3.2s-0.16-2.26-0.97-2.58C39.06,35.19,35.51,35.11,35.51,35.11z"/>
	<path class="st3" d="M45.05,36.44c1.05-0.86,2.02-1.25,1.62-2.58c-0.4-1.33-0.22-1.41,0.09-2.89s1.23-1.33,0-3.12
		c-1.23-1.8-2.12-2.58-3.09-3.2c-0.97-0.62-0.24-1.72-1.94-1.8c-1.7-0.08-1.05,0.78-2.83,0s-2.1-0.55-2.34-0.39s-1.73-0.4-2.4-0.16
		s-1.48,0.39-1.88,1.1c-0.4,0.7-0.57,1.17-0.73,1.41s-0.49,0.23-1.29,0.39c-0.81,0.16-1.05,0.23-1.21,0.62s0.08,0.47,0,0.7
		c-0.08,0.23,1.18-0.23-0.06,0.78c-1.24,1.01-1.72,0.87-1.48,2.04c0.24,1.16,1.37,0.23,0.81,2.33c-0.57,2.11-1.13,1.41-0.57,2.11
		c0.57,0.7,1.14-0.34,3.15,1.33c2.01,1.66,2.72,1.8,3.83,1.87c1.11,0.08,3.86-0.08,4.26,0c0.4,0.08,0.08,0.62,1.37,0.62
		s3.23,0.16,3.56,0S45.05,36.44,45.05,36.44z"/>
	<path class="st6" d="M47.69,36.67c0.27-0.55,0.92-1.09,0.67-2.26s-1.03-1.8-0.31-2.42c0.71-0.62,1.12-1.32,1.04-2.03
		c-0.08-0.71-0.32-1.56,0.65-2.03c0.97-0.47,0.97,0,1.62-1.01c0.65-1.01,0.89-1.33,2.1-1.72c1.21-0.39,1.29-1.95,4.45-1.95
		c3.15,0,6.47-0.08,8,0.94c1.54,1.01,1.13,2.34,1.78,2.34s-0.57,0.62-0.81,1.48c-0.24,0.86-0.32,3.59-1.05,4.84
		c-0.73,1.25-2.34,3.89-3.56,4.83c-1.21,0.95-1.86,3.37-2.26,5s-0.24,8.82-0.73,9.68c-0.49,0.86-2.91,2.73-3.56,3.04
		s-2.26,0.7-3.72,0.39c-1.46-0.31-3.66,0.18-4.62-1s-1.68-5.08-1.85-6.41c-0.16-1.33-0.24-3.36,0-5.31c0.24-1.95,0.24-4.53,0.4-4.84
		C46.1,37.92,47.69,36.67,47.69,36.67z"/>
	<path class="st7" d="M68.33,43.54c0.32-0.86,2.34-4.94,3.15-5.86c0.81-0.93,0.59-2.49,3.41-3.19c2.82-0.7,3.38-0.47,5.81-1.48
		s1.86-1.64,3.72-1.09c1.86,0.55,3.23,1.41,3.72,1.01c0.49-0.39,1.05-0.09,0.32-1.22c-0.73-1.12-1.13-1.12-2.43-2.22
		c-1.29-1.09,0.16-1.01-2.1-1.95c-2.26-0.94-1.54-0.78-2.67-1.48s-2-0.31-2.7-0.62c-0.7-0.31,0.92-1.09-2.15-0.47
		c-3.07,0.62-3.64,0.47-5.17,2.65c-1.54,2.19-0.65,2.11-2.1,4.29c-1.46,2.19-1.62,2.03-2.59,3.2c-0.97,1.17-1.62,1.54-1.13,2.57
		c0.49,1.02,1.29,1.14,1.37,1.9c0.08,0.76,0.08,1.23,0.24,2.09s0.16,1.01,0.4,1.41C67.68,43.46,68.33,43.54,68.33,43.54z"/>
	<path class="st5" d="M71.48,36.28c-0.32,0-2.02-0.08-2.26,0c-0.24,0.08-0.65-0.31-0.89,0.7c-0.24,1.01-0.76,1.99-0.46,2.59
		c0.3,0.61,0.62,2.09,0.62,2.09s0.4,0.63,0.54,0.34c0.14-0.29,3.03-5.33,3.03-5.33L71.48,36.28z"/>
	<path class="st8" d="M45.38,61.57c-0.33-1.09-0.98-5.99-2.35-6.78c-1.37-0.79-2.59-1.03-3.23-2.04c-0.65-1.01,0.89-1.64-0.57-1.95
		s-1.29,0.62-3.15-0.55c-1.86-1.17,0.12-0.62-2.17-2.03c-2.28-1.41-2.85-1.56-2.36-3.43s0-2.52,1.13-2.71
		c1.13-0.18,2.43,0.65,2.59,0c0.16-0.65-1.4-1.04-0.54-2.21s0.94-0.94,2-1.56c1.05-0.62,1.05-1.17,2.1-1.72s1.29-0.07,2.91-0.35
		s2.04-0.75,3.65-0.43c1.61,0.31,0.83,0,2.31,0.86c1.48,0.86,1.64,1.25,2.45,1.64c0.81,0.39,2.18,1.45,2.83,2.13
		c0.65,0.68,1.21,0.91,1.13,2.24c-0.08,1.33-0.23,1.33,0.01,2.11s0.57,1.64,0,2.89c-0.57,1.25-0.01,1.8-1.55,2.89
		c-1.53,1.09-2.1,1.33-3.15,2.19c-1.05,0.86-0.7,1.5-1.73,2.04s-1.51,0.69-1.67,1.12c-0.16,0.43,0.24,1.52,0.16,2.15
		c-0.08,0.62,0.4,2.03,0.32,2.93c-0.08,0.9,1.19,1.52,0.88,1.84s-0.63,2.11-1.04,1.72C45.94,64.15,45.38,61.57,45.38,61.57z"/>
	<path class="st3" d="M66.94,41.05c-0.46,0.08-1.36,0.48-3.38,0s-2.43-2.46-3.48-0.61c-1.05,1.85-0.73,0.81-1.54,1.64
		c-0.81,0.83,0.32,1.93,0,2.71s1.91,1.64-0.3,1.41c-2.21-0.23-1.72-1.17-2.29,0.04c-0.57,1.21-1.54,0.83-0.57,2.5
		s0.85,2.69,1.7,3.86c0.84,1.17,1.21,2.42,1.78,3.32c0.57,0.9,0,1.84,1.37,2.15c1.37,0.31,1.94-0.47,1.86,1.25
		c-0.08,1.72-0.65,1.78,0.08,3c0.73,1.22,1.21,2.03,1.21,2.29c0,0.26-2.02,4.78-2.02,4.78s0.65,0.31,0.81,0
		c0.16-0.31,1.54-3.75,2.59-4.14c1.05-0.39,2.51-1.64,3.56-1.01c1.05,0.62,1.37,1.48,2.59,0.94c1.21-0.55-0.06-1.56,1.14-1.48
		c1.2,0.08,1.77,0.7,2.5,0.31s1.13-1.5,1.05-1.69s0.08,0.13,1.05-0.5c0.97-0.62,1.46-1.56,1.54-2.11c0.08-0.55,0.4-1.01,0-1.72
		c-0.4-0.7-0.89-1.64-1.54-2.65s-0.89-1.48-1.29-2.65s-2.43-2.88-2.51-3.94c-0.08-1.06-0.22-1.98-0.8-2.96
		c-0.58-0.99-2-2.16-2.14-2.55C69.79,42.84,67.73,40.92,66.94,41.05z"/>
	<path class="st9" d="M37.93,56.42c0.89,0,0.24-0.7,0.83-1.33s1.19,0.16,1.27,0.82c0.08,0.66,1.21-0.11,1.62,0
		c0.4,0.11,1.86,1.21,2.43,1.84s0.96,2.3,1.7,3.67c0.73,1.37,0.2,2.36-0.4,3.18c-0.59,0.82-0.9,1.97-1.87,2.99s-1.46,1.01-2.1,1.93
		c-0.65,0.92-0.57,1.81-0.56,2.13s-0.24-0.94-0.65-1.8c-0.4-0.86-0.57-0.7-1.05-1.09c-0.49-0.39-0.57-0.23-1.73-1.09
		c-1.17-0.86-0.61-1.25-0.77-2.65c-0.16-1.41-1.54-1.87-1.92-3.67c-0.38-1.8-1.72-2.65-2.86-3.83c-1.13-1.17,0.08-0.7,0.4-1.33
		c0.29-0.57,2.64-0.04,4.28,0.18c0.17,0.02,0.34,0.04,0.49,0.06H37.93z"/>
	<path class="st9" d="M45.38,68.75c-1.46,0.62-5.34,1.33-6.07,1.56s-2.75,0.16-3.07,0.94s-0.65,1.25,0,2.89s-0.16,2.58,2.18,4.14
		c2.34,1.56,3.53,3.2,4.15,3.28c0.62,0.08,1.51,0.47,2.07,1.01c0.57,0.55,0.26,0.16,0.74-0.86s1.39-1.41,2.31-2.42
		c0.92-1.01,2.05-1.41,2.21-2.81c0.16-1.41,0.08-3.2-0.49-3.98c-0.57-0.78-0.4-2.69-0.89-2.98C48.04,69.22,45.38,68.75,45.38,68.75z
		"/>
	<path class="st5" d="M53.13,72.11c-0.16,0.47-1.54,1.09-1.21,2.81s0.08,3.28,0.65,3.83c0.57,0.55,2.49,3.28,2.42,2.81
		c-0.07-0.47,1.18-4.47,1.64-4.7s1.76-2.02,1.28-2.56C57.42,73.75,53.13,72.11,53.13,72.11z"/>
	<path class="st3" d="M54.42,72.11c0,0,1.7,0.78,4.29,0.86c2.59,0.08,3.64-0.23,4.77-0.43s2.1-1.13,2.59-0.43
		c0.49,0.7,1.56,0.78,0.62,1.25c-0.94,0.47-0.94-0.08-2.16,0.7c-1.21,0.78-1.7,0.62-2.99,1.33s-1.28,1.27-2.75,1.01
		c-1.47-0.26-1.1,0-2.17-0.94s-0.74-0.47-1.07-0.94S53.78,73.51,54.42,72.11z"/>
	<path class="st3" d="M49.17,75.78c0-0.71,1.29-2.11-0.65-3.13s-2.89-1.56-3.14-2.26c-0.25-0.7,0.77-0.41,0-2.42
		c-0.77-2.01-0.58-1.17-0.41-2.69c0.16-1.52,0.08-3.43,0.81-3.86s1.08-1.48,1.43-2.73c0.35-1.25-0.14-1.95,1.24-1.72
		c1.37,0.23,1.37,0.23,2.34,0.31c0.97,0.08,2.1-0.25,2.67-0.36c0.57-0.11,1.7-0.27,2.34,0.44c0.65,0.7,1.53,1.33,2.1,1.41
		c0.57,0.08,2.77,0.08,2.76,0.31c-0.01,0.23,0.74,0.93,0,1.91c-0.74,0.98-0.5,0.59-0.33,1.68c0.16,1.09,1.7,1.72-0.32,2.73
		s-2.18,1.17-2.59,1.56s0.08-0.31,0.48,0.55c0.41,0.86,1.37,1.17,0,1.64c-1.37,0.47-2.36,0.47-2.92,0.94
		c-0.56,0.47,0.66,0.86-1.12,1.25c-1.78,0.39-2.18,0.27-2.67,0.52c-0.49,0.26-1.02,0.75-1.22,1.12S49.17,75.78,49.17,75.78z"/>
	<path class="st9" d="M60.66,75.23c0,0,1.61,0.01,1.61,0.55c0,0.54-0.62,1.55-1.61,1.87c-0.98,0.31-0.9,0.39-1.79,0.94
		c-0.89,0.55-1.62,1.09-1.86,1.41c-0.24,0.31-1.93,0.85-1.82,0.48c0.11-0.38-0.7-1.98-0.21-2.55c0.49-0.58,1.64-2.45,1.64-2.45
		l1.92-0.23H60.66z"/>
	<path class="st3" d="M42.57,86.55c-0.19-0.78-2.05-2.73-3.02-4.29c-0.97-1.56-2.14-3.45-0.79-4.34s2-1.98,2.73-2.68
		s0.89-1.72,2.83-1.48c1.94,0.23,1.67-0.27,3.06,0.41s2.12,0.61,3,1.07c0.89,0.47,1.69,0.9,1.72,1.23c0.02,0.33,2.36,1.09,0,0.87
		c-2.36-0.22-2.44,0.37-3.98,0.58c-1.54,0.2-2.83,0.05-3.8,1.3s-1.51,1.87-1.4,3.12c0.11,1.25,0.29,0.62,0,1.8
		C42.62,85.3,42.57,86.55,42.57,86.55z"/>
	<path class="st10" d="M65.26,81.61c0.73-1.22,2.16-2.41,1.81-3.69c-0.35-1.28-0.35-1.36-0.88-3.07c-0.52-1.72-2.14-1.87-2.06-3.51
		s1.37-2.11,1.13-3.04c-0.24-0.94-1.38-2.5,0-2.73c1.38-0.23,2.11-0.55,3.64,0c1.54,0.55,3.31,1.09,4.37,1.8
		c1.05,0.7,2.75,2.5,2.67,3.9s-0.46,0.48-1.04,2.46c-0.58,1.99-0.34,3.14-0.66,4.2c-0.32,1.06,1.13,1.03-1.05,2.22
		c-2.18,1.19-2.43,1.14-3.15,1.48c-0.73,0.34-1.58,0.26-2.25,0.34c-0.66,0.08-1.39-0.47-1.71,0c-0.32,0.47-1.21,0.87-1.21,0.87
		L65.26,81.61z"/>
</g>
</svg>
