<svg xmlns="http://www.w3.org/2000/svg" version="1.1" xmlns:xlink="http://www.w3.org/1999/xlink" xmlns:svgjs="http://svgjs.dev/svgjs" viewBox="0 0 108 108" style="" x="0" y="0"><style type="text/css">
	.st0{fill:#ADC260;}
	.st1{fill:#9ABC62;}
	.st2{fill:#658B52;}
	.st3{fill:#99B956;}
	.st4{fill:#77AF42;}
	.st5{fill:#19502D;}
	.st6{fill:#144A28;}
	.st7{fill:#1E5631;}
	.st8{fill:#2C5B32;}
	.st9{fill:#80AA88;}
</style><g><path class="st0" d="M49.5,48.7c0,0-3.9,4.2-5.8,4.2s-1.8,2.1,0,1.6c1.8-0.4,4.4-1.6,4.4-1.6s-2.8,1.3-1.5,1.7
	c1.3,0.4,2.2,0.6,2.8,0c0.6-0.6,1.5-2.7,1.5-2.7s-0.9,2.1,1.5,2.2c2.4,0.1,4.6-0.3,4.6-0.3s-2.4-0.7-2.8-1.9s-0.8-2.5-0.8-2.5
	L49.5,48.7z"></path><path class="st1" d="M48.1,45.4c0,0-0.2,1,0,2.1s-0.9,3.3,2.3,2.5c3.1-0.7,2.5-1.6,2.4-2.2c-0.1-0.6-1.5-1.3-1.6-2.4
	c-0.1-1-0.7-4.3-0.7-4.3s-0.8-1.2,0.8-2.7c1.6-1.5,11.3-11.9,11.9-12.2s1.8-0.9,2.5-0.6s2.8,0.6,3.1,1.9c0.3,1.3-0.1,2.2,0.7,2.5
	c0.9,0.3,2.9,1.5,3.2,0c0.3-1.5,0-2.4-1-3.4c-1-1-3.4-4-5.1-4s-3.3,1.3-3.3,1.3s-1.5,0.4-3,1.8C59,27.1,47.4,40,47.4,40L31.3,61.2
	L15.7,77.6l2.5,1l14.2-15.8l10.9-13.6l3-3.9l1.9-2.2V45.4z"></path><polygon class="st1" points="53.5,45.7 49.2,51.6 50,53.1 56.4,45 56.1,43.7 "></polygon><path class="st2" d="M57.5,48.2c-0.2-1.1-1-1.6-2.1-2.6s-2.1-1.6-2.6-2.2c-0.4-0.6-0.4-1.7-1-3.2c-0.6-1.5-1-3-1-3s3.2-0.1,4.4-2.1
	s1.8-4.2,1.9-4.6c0.1-0.5,3,2.6,4.1,3.3c1.1,0.8,3.4,0.2,3.9,0.2s8-2,8-2s-2.4,4.2-3.2,5.8c-0.8,1.6-1.3,7.2,0.2,8.9
	c1.5,1.7,3.5,2.8,3.5,2.8S69.2,49.6,68,50c-1.2,0.4-4.4,2.6-4.7,3s-0.3,2.1-0.3,2.1S62,53.6,60.9,53c-1.1-0.6-2.6-2-3-2.8
	C57.5,49.3,57.6,48.8,57.5,48.2z"></path><path class="st1" d="M37.7,42.5c0,0-2.6,0.4-8.1-3.1s-9.7-4.6-9.7-4.6l0.8,1.9l10.2,5.8l7.8,1.8L37.7,42.5z"></path><path class="st3" d="M25.7,38.5c0,0,3.1,0.5,2.5,2.6s-0.8,3.5-2.1,4.9c-1.3,1.5-1.8,2.4-1.8,2.4s0.1-0.6-1.7-1c-1.9-0.3-7.9,0-7.9,0
	s1-2.1,0.6-3c-0.4-0.9,1-0.6-0.4-2.3s-4.6-5.5-5.3-5.9c-0.6-0.4-1.5-1.5-2.2-1.9C6.7,33.8,5.5,33,5.5,33s2.2-1.1,3.3-1
	c1,0.2,7.7-1.5,9.1-2.6c1.5-1.1,3.3-3.5,3.3-4.4s-0.6-1.5-0.2-1.8c0.4-0.3,0.4-0.6,1.7,0.8c1.4,1.3,3.8,4,5.9,4.5
	c2.1,0.6,2.2,0.6,2.8,0.5C32,29,31,29.3,31,30.9s0.9,3.3,0.1,4.3c-0.8,1-0.7,1.2-1.5,1.9c-0.8,0.7-1.8,0.4-2.3,0.7
	C26.8,38.1,25.7,38.5,25.7,38.5z"></path><path class="st1" d="M44.3,33.2c0,0-0.4,6.3,0,8.7c0.4,2.4,2.1,4.4,2.1,4.4l1.8-1.5c0,0-3.8-6-3.2-6.7c0.6-0.7,1.4-4,1.4-4
	L44.3,33.2z"></path><path class="st4" d="M44.2,35.2c0,0,1.4,3.1-0.9,3.7c-2.2,0.6-3.6,1.4-5.7,1c-2.1-0.3-3.2-0.2-3.2-0.2s0.6-0.3-0.2-2.1
	c-0.8-1.8-4.7-7.1-4.7-7.1s2.4-0.4,3-1.2s1.1,0.5,1.8-1.7s2.2-7.4,2.2-8.2c0-0.8,0.4-2.2,0.4-3.1s0.1-2.4,0.1-2.4s2.3,1.3,2.8,2.3
	c0.5,1,5.8,5.9,7.7,6.6c1.9,0.7,5.1,0.8,5.9,0.3c0.8-0.5,1-1.5,1.5-1.3s0.7,0,0.3,2c-0.4,2-1.2,5.7-0.5,7.9c0.7,2.2,0.8,2.3,1.2,2.8
	s-0.4-0.3-1.9,0.7c-1.5,0.9-2.4,2.8-3.7,2.6c-1.3-0.1-1.5,0.1-2.5-0.2c-1.1-0.3-1.4-1.3-2-1.6S44.2,35.2,44.2,35.2z"></path><path class="st1" d="M70.5,42.7c0,0,0-4.6,6.3-6.4c6.3-1.8,7,0.8,7,0.8l-3.6,0.3c0,0-9.3,3.3-8.7,5.8c0.6,2.5-2.4,1.2-2.4,1.2
	L70.5,42.7z"></path><path class="st1" d="M72.8,46.2c0,0-1.9,1.1,0,1.8c1.9,0.7,3.9,1.8,3.9,0.7c0-1.1-0.7-2.7-1.1-3.2s-2-0.8-4.2-2.2
	c-2.2-1.3-3.4-1.2-4.7-1.1s-4,1.1-4,1.1l-1.3,1.4l6.2-0.4c0,0,1.9,0.3,2.4,0.4C70.5,44.7,72.8,46.2,72.8,46.2z"></path><path class="st1" d="M78.2,39.3c-0.5-1.1-1.5-1.4-2.8-2.2c-1.3-0.7-2.5-1.1-3.1-1.6c-0.6-0.5-0.8-1.6-1.8-3c-1-1.4-1.7-2.8-1.7-2.8
	s3.3-0.9,4.1-3.2c0.8-2.3,0.8-4.7,0.8-5.2c0-0.5,3.7,1.9,5,2.5c1.3,0.5,3.5-0.6,4-0.7c0.4-0.2,7.7-4,7.7-4s-1.5,4.9-1.9,6.7
	c-0.4,1.9,0.4,7.7,2.3,9.1c1.9,1.4,4.2,2.1,4.2,2.1s-4.4,1-5.5,1.7c-1.1,0.7-3.9,3.7-4.1,4.2c-0.2,0.5,0.2,2.2,0.2,2.2
	s-1.5-1.2-2.7-1.6c-1.2-0.4-3.1-1.4-3.8-2.2C78.4,40.4,78.4,39.9,78.2,39.3z"></path><path class="st0" d="M73.5,48.6c0,0-3.1,3-4.2,3.2c-1.1,0.3-1.8,1.1-1.8,1.1s3.4-0.7,3.9-1.1c0.5-0.4-1.8,2.7-1.8,2.7s3-1.2,3.2-1.6
	c0.2-0.5,1.5-1.4,1.5-1.4s-0.4,2.9,1.3,2.3s4.3-0.5,4.7-0.9s1.3-1.4,1.3-1.4s-3.8,0.1-4.4-0.9c-0.7-1.1-0.7-2-0.7-2l-2-1.9
	L73.5,48.6z"></path><path class="st0" d="M58.6,29.8c0,0-1.3,1.1-2.4,0.9c-1.1-0.1-2.8-1.5-1.1-0.1c1.8,1.3,1.8,1.3,1.8,1.3s0.7,0.4-0.4,0.9
	c-1.1,0.5-3,0.8-3,0.8s1.8,1.6,3.4,1.1c1.6-0.5,2.6-2.4,2.6-2.4s-0.3,2,0.6,2.5c0.9,0.6,2.9,1.2,3.7,0.6c0.8-0.7,0-4,0-4l3.7,1.5
	c0,0-3.7-3.1-3.9-3.1s-1.9-0.5-1.9-0.5s-0.6-1.1-1.1-0.8C60,28.7,58.6,29.8,58.6,29.8z"></path><path class="st5" d="M39.5,78.3c3.7-4,10.1-10.9,10.6-12.5c0.5-1.5,0.4-0.6,1.4-5.5c1-4.9,1.1-4.9,1.4-6.9c0.2-1.4,0-4.7,0.3-7.5
	c-3-2.2-7.2-3.6-12.1-3.4c0.5,0.6,0.5,1.3,1.6,1.5c1.9,0.4,2.9,3.9,2.1,8.6c-0.8,4.7-2.9,7.6-4.1,11.3c-1.2,3.7-5.8,7.9-8.6,11.2
	c-2.8,3.3-6.7,7.6-10,11.1c-1.6,1.7-2.5,1.8-3.8,1.5c1.3,1.4,2.7,2.5,4.3,3.3c3.6-1.4,7.7-3.4,9.2-4.8
	C34.4,83.7,35.7,82.2,39.5,78.3z"></path><path class="st6" d="M51.1,75.1c7.2-9,8.4-21.9,5.2-26.3c-0.8-1.1-1.8-2.1-3-3c-0.3,2.8-0.1,6.1-0.3,7.5c-0.3,2.1-0.4,2-1.4,6.9
	c-1,4.9-1,4-1.4,5.5c-0.5,1.5-6.8,8.5-10.6,12.5c-3.7,4-5,5.4-7.7,8c-1.5,1.4-5.6,3.4-9.2,4.8c0.5,0.2,1,0.5,1.5,0.6
	C32.9,94.9,43.8,84.1,51.1,75.1z"></path><path class="st7" d="M22,86.2c3.3-3.5,7.1-7.9,10-11.1c2.8-3.3,7.4-7.6,8.6-11.2c1.2-3.7,3.3-6.5,4.1-11.3c0.8-4.7-0.1-8.2-2.1-8.6
	c-1.1-0.2-1-0.9-1.6-1.5c-1,0-1.9,0.1-2.9,0.3c-3.2,0.5-5.7,1.5-7.8,2.9c0,0.4-0.1,1,0.6,1.7c1.7,1.6,0.7,1.6,0.6,4.2
	c-0.1,2.6-1.3,4.7-3.1,9.3c-1.8,4.6-2.3,2.9-5,5.9s-3.8,4-6,5.6c-1.8,1.2-2,0.7-3.2-0.1c-1,6.5,0.9,12,4.2,15.6
	C19.6,88,20.5,87.9,22,86.2z"></path><path class="st8" d="M19,59.9c-2.8,4.3-4.4,8.5-5,12.2c1.2,0.8,1.4,1.4,3.2,0.1c2.2-1.6,3.3-2.7,6-5.6s3.2-1.2,5-5.9
	c1.8-4.6,3-6.7,3.1-9.3c0.1-2.6,1.1-2.6-0.6-4.2c-0.7-0.7-0.6-1.3-0.6-1.7C25.6,48.8,23,53.8,19,59.9z"></path><path class="st9" d="M23.1,78c0.5-0.8,0.1-0.7,1-1.1s1.1-0.7,1.7-0.2c0.6,0.5,0.5,0.1,0.4-0.4c-0.1-0.5-0.5-1,0.5-1.1
	c0.9-0.1,1.2-0.2,1.8,0.5s1.3,1,1.3,2c0,1,0.1,1-0.7,1.1c-0.8,0.1-1.2-0.5-1.2,0.6c0.1,1,0.5,2-0.1,2.3c-0.6,0.3-0.7-0.3-1.4-0.2
	s-2,1.3-1.7,1.7c0.3,0.4,1.1-0.2,1.8,0.8c0.7,1,1.6,2.1,0.5,2.5c-1.1,0.3-1.5-0.9-2.3-0.3s-1,1.1-1.6,0.4c-0.6-0.6-2.4,0.1-3-0.9
	c-0.6-1-1.8-0.9-0.9-1.9s1.9-0.7,2.5-0.5c0.6,0.3,0.4,0.8,1,0.2s1.6-0.5,0.6-1c-1-0.4-2-0.6-1.3-0.9c0.7-0.4,1-0.2,1.5-0.3
	c0.5-0.2,0.9,0,0.3-0.7s-0.7-1-1-1.2S22.7,78.7,23.1,78z"></path><path class="st9" d="M28.2,72.1c0.5-0.3,3.1,1.5,4.1,1.4s2.5,0.1,1.9,1.2c-0.6,1.1-1.8,2.1-2.6,2c-0.8,0-1.3,0-1.8-0.3
	S25.9,73.2,28.2,72.1z"></path><path class="st9" d="M29.5,69.8c-0.6,0.7-0.1,1.2,0.8,2c0.9,0.7,1.2,0.8,1.6,0.3c0.4-0.5,0.6-1,0.2-1.4c-0.4-0.4-0.8,0-0.2-1
	c0.7-0.9,0.7-1.4,0.6-1.7s0.9-0.5,1.2-0.2c0.4,0.3,1.5,1.5,2.1,1c0.5-0.5,1.2-0.5,0.9-1.3c-0.4-0.8-1.2-0.2-1.5-1.7
	c-0.2-1.5-0.1-1.9-0.7-2.5c-0.7-0.6-0.8-1.3-1.7-0.7c-0.8,0.6-0.8,0.8-0.3,1.4c0.5,0.6,1.3,1.6,0.1,1.3c-1.2-0.3-1.1-0.5-1.9,0.3
	c-0.8,0.8-1.4,0-1.8,0.8c-0.3,0.8-0.6,1.7-0.4,1.9C28.7,68.4,30,69.1,29.5,69.8z"></path><path class="st9" d="M34.1,69.5c1-0.2,2.7,0.8,2.3,1.6c-0.3,0.8-1.5,1-2.2,0.5C33.6,71.1,32.6,69.7,34.1,69.5z"></path><path class="st9" d="M33.8,59.6c0.9-0.9,1.6,0.2,1.7-0.4c0.2-0.8-0.8-1.4,0.3-1.7s2.2,0.3,2.4,0.4c0.2,0.2,0,0.5,0.6,0.1
	c0.5-0.4,1.3-0.8,2.3-0.4s1.6,0.4,1,1.2c-0.7,0.8-0.9,0.5-1.5,0.7c-0.6,0.2-0.4,0.2-0.9,0.9c-0.5,0.7-0.6,0.9-1.4,0.3
	c-0.8-0.6-1.5-0.8-1.8-0.6c-0.3,0.2,1,0.3,0.8,1.3c-0.2,1.1-0.4,1.2-1.5,1.1s-2.2-0.5-2.3-1C33.2,61.2,33.1,60.2,33.8,59.6z"></path><path class="st9" d="M37.8,53.3c1.2-1.1,1.9-1,2.9-0.2s1.4,0.9,1.6,1.5c0.2,0.7-0.8,1.1-1.9,1.2c-1.1,0-2.2-0.5-2.5-0.7
	S37.8,53.3,37.8,53.3z"></path><path class="st9" d="M42.6,51.4c-0.3,0.7-1.6,0.4-0.3,1.5c1.3,1.1,1.6,2.2,2.6,1.2s1-1.1,0.3-1.7c-0.7-0.6-1.9-0.1-1-0.9
	c1-0.8,1.6-1.4,1.7-1.7s0.1-1.1-0.4-1.3s-1.3,0-1.6,0.7c-0.3,0.7-0.5,0.9-1,0.9c-0.4,0-0.7,0.1-0.8,0.3C42,50.6,42.6,51.4,42.6,51.4
	z"></path><path class="st9" d="M15.4,81.9c0-0.9,0.7-0.8,1.2-0.3c0.5,0.6,0.2,0.4,0.6,1.1c0.5,0.6,1.2,0.8,1.2,1.5c0,0.8-0.2,1.4-0.8,1.1
	c-0.6-0.3-1-0.3-1.2-0.8S15.4,82.8,15.4,81.9z"></path><path class="st9" d="M15.2,75.6c0,0-0.8,1.8-0.3,2.6c0.4,0.8,0.5,1.2,1.3,1.8c0.8,0.6,0.8,1.2,1.3,0.8c0.5-0.5,0.5-0.6,0.3-1.3
	c-0.1-0.7-0.5-0.5,0.3-0.7c0.9-0.3,0.5,0.4,0.9-0.3c0.3-0.7,0.8-0.6,0.6-1.5c-0.2-0.9-1.2-1-1.2-2.1s-0.3-2,0.8-0.9
	c1.1,1.1,1.1,2.2,2.2,1.4c1.1-0.8,1-1.1,0.5-1.7c-0.5-0.6,0,0,0.9,0c0.9,0,2.1-0.1,1.3-1.1c-0.8-1-2-1.1-2.4-1.1s-1.6-0.3-1.7-0.5
	c-0.1-0.2,0-0.6-0.7-1.4s-0.4-1.7-1-1.2s-0.4,1.1-0.2,1.6c0.2,0.5,0.4-0.1-0.3,0.5c-0.7,0.7-0.9,0.5-1,1.5c-0.1,1,0,2.1-0.1,2.3
	S16.2,75,16,75C15.8,75.1,15.4,75.2,15.2,75.6z"></path><path class="st9" d="M19.5,64.6c0.5-0.9,0.5-3,1.6-1.4s1,2.8,1.2,3.1c0.2,0.3,1.3-0.3,1.2,0.6c0,1,0,0.8-0.1,1.7
	c-0.1,0.9,1.4,1.7-0.1,1.7c-1.4,0-2.1-0.2-2.7-0.9s-1.5-0.5-1.4-1.4c0.1-0.8,0.2-1.1,0.3-1.5s0.1-0.6,0-0.9
	C19.4,65.4,19.5,64.6,19.5,64.6z"></path><path class="st9" d="M22.2,60.7c0.2,0,1.5-0.1,2.3,1.2c0.8,1.3,0.2,1.3,1.3,1.8s1.3,0.1,1.8,1.2c0.5,1.1,2,1.6,0,1.5
	c-2-0.1-2.3,0-3-0.9s-1.9-1.6-2.2-1.7c-0.3-0.1-0.5-0.3-0.8-0.7S21.3,60.6,22.2,60.7z"></path><path class="st9" d="M23.5,57.5c0.8,0.3,2,0.3,2.5,1.7c0.5,1.4,1,1.7,0.2,1.9c-0.8,0.2-1.9,0-2.4-0.2c-0.5-0.2-1.3-0.7-1.3-1.2
	c0-0.5,0.2-1,0.4-1.2S22.7,57.3,23.5,57.5z"></path><path class="st9" d="M27.4,61.1c-0.2,0.5-0.3,1.2,0.4,1.7s2,1.3,2,0.6c0-0.7-0.4-1-0.5-1.4c-0.1-0.3-1.1-0.9-0.4-1.2
	c0.7-0.3,0.9-0.2,1.6-0.8c0.7-0.6,0.5-1.4,0.4-1.7c-0.1-0.2-2.1,0-0.5-1.1c1.6-1,2.3-1,1.8-2c-0.5-0.9-0.6-1.3-1.4-1.4
	c-0.9-0.1-1.7-1.9-1.9-0.4c-0.2,1.5,0.1,1.6,0.2,2.1c0.1,0.5,0.9,2-0.4,0.7c-1.3-1.3-1.7-2.3-2.5-2.1c-0.7,0.3-1.8,0.1-1.1,1.2
	c0.6,1,1.1,1.7,1.8,1.6s0.8,0,1.3,0.5s0.5,0,0,1s-0.3,0.6-0.3,1.4C27.9,60.7,27.4,61.1,27.4,61.1z"></path><path class="st9" d="M27.4,50.8c0.7-0.8,1.3-0.3,1.9-0.2s0.8,0.7,0.8-0.4s0.3-1.9,0.8-1.9s1.4,0.6,1.6,0.9s0.3,0.7,0.5,0.1
	c0.3-0.6,0.9-1.4,1.2-1.3c0.3,0.1,0.6,0.8,0.5-0.5c-0.1-1.4,0.6-1.6,1.1-1.4c0.5,0.2,0.4,0.1,0.9,0.9c0.5,0.8,0.9,1.5,1.3,1
	c0.4-0.6,0-1.1,0.8-0.9s2.4-0.5,1.9,0.7c-0.5,1.2-1,0.5-1.4,0.8c-0.3,0.3-0.4,1.1-0.9,1.3c-0.5,0.2-0.3,0.2-1.3-0.4
	c-1-0.6-0.9-0.9-1.5-0.4c-0.6,0.5-0.4,0.4-1.3,0.4c-0.9,0.1-1.2-0.4-1.1,0.5c0.2,0.8,1.4,1.2-0.1,1.5c-1.5,0.3-1.6-0.2-2.3-0.3
	c-0.7-0.1-1.4,0.4-1.5,0.8s0.4,1.4-0.7,0.9c-1.1-0.5-1-0.2-1.5-0.7C27,51.8,26.7,51.5,27.4,50.8z"></path><path class="st9" d="M33.5,52.6c0.8-0.1,1.4-0.6,2.2,0.3c0.8,1,1.7,1.7,0.4,2.1s-1.7,0.6-2.1,0.2c-0.4-0.4-1.5-1.4-1.5-1.4
	S32.4,52.7,33.5,52.6z"></path><path class="st9" d="M37.7,43.6c0.6-0.1,1.4-1.5,1.8-0.3c0.5,1.2,1,2,0.4,2.5c-0.6,0.5-2,0.4-2.5,0.3s-0.8-0.4-0.8-0.7
	C36.8,45,37.7,43.6,37.7,43.6z"></path><path class="st9" d="M40.9,43c0.3-0.2,1.3-0.4,1.8-0.4c0.5,0,1-0.4,1.6-0.2s1,0.2,1.4,0.6c0.4,0.4,1.4,0.4,0.8,0.8
	c-0.6,0.3-0.7-0.7-1.4-0.1s-0.9,0.9-1,1.6s-0.3,1.2-0.9,1.1c-0.6-0.1-0.5,0-1,0.3c-0.5,0.3-1.8,0.2-1.4-0.2c0.4-0.4-0.2,0,0.9-0.7
	s1.7-0.9,1.5-1.1s-0.6-0.1-0.5-0.5c0.1-0.5,0.6-0.9-0.2-0.7c-0.8,0.2-1.1,0.1-1.1,0.1S39.8,43.7,40.9,43z"></path><path class="st9" d="M14.8,74.4c0.6-0.5,0.7-1.7,0.6-2.5c-0.1-0.8-0.4-2.1,0.2-2.7s1.3-2.2,1.9-3.2c0.6-1,0.7-1.5,0.9-1.9
	c0.2-0.4,0.5-2,1-2.7c0.5-0.6,1.3-1.3,1.5-1.8c0.2-0.5,0.5-0.7,0.8-1.8c0.3-1,0.7-1.7,1.1-2.1c0.4-0.4,1.8-2.2,1.9-2.5
	c0.1-0.2,2-1.9,2.3-2.9c0.3-1.1-0.1-0.6,0.8-1.1c0.8-0.5,1-0.7,1.6-1.2c0.6-0.5,0.7-0.6,1.3-1c0.6-0.4,1.4-1.2,1.7-1.2
	s0.1,0.2,0.7-0.3c0.6-0.5,0.9-0.6,1.1-0.7c0.2-0.1,1-0.5,1.1-0.7c0-0.1,0.2-0.2,0.4-0.4c-8.3,2.4-11.1,8.5-16.3,16.5
	c-3.4,5.2-5,10.1-5.2,14.5C14.3,74.7,14.6,74.6,14.8,74.4z"></path><path class="st9" d="M29.2,91.8c-0.7,0-1.4-0.1-1.8-0.2c-0.5,0-2.2-0.6-3.1-0.6c-0.4,0-0.8,0.2-1.2,0.4c0.4,0.2,0.8,0.4,1.2,0.5
	c2.1,0.8,4.3,0.7,6.5,0.2c0,0,0-0.1-0.1-0.1C30.5,91.2,29.9,91.8,29.2,91.8z"></path><path class="st9" d="M20.2,89.6c0-0.1-0.1-0.1-0.1-0.2c-0.4-1.5-0.3-0.6-0.5-0.9c-0.2-0.3-0.5-1-1.2-2.2c-0.5-0.8-1.1-0.7-1.6-0.5
	C17.8,87.3,18.9,88.6,20.2,89.6z"></path><path class="st9" d="M51.3,75.4c7.2-9,8.4-21.9,5.2-26.3c-0.2-0.2-0.3-0.4-0.5-0.6c-0.4,0.2,0.5,1.1-0.1,1.9
	c-0.8,1.2-0.4,0.6-0.3,1.5c0.1,1,0.7,1,1,1.3c0.3,0.2-0.2,0.9-0.6,1.1c-0.4,0.2-0.6,1.6-1,2.4c-0.4,0.9,0.7,0.9,0.9,1.4
	c0.2,0.5-0.3,0.3-0.2,0.9s-0.4,1.2-1,0.7c-0.6-0.5-0.2,0.4-0.4,1.8c-0.2,1.4-0.2,0.5,0.4,2c0.7,1.5,0.3,1.1,0,1.3
	c-0.3,0.3-0.2,0.6-0.3,0.8c-0.1,0.2-1-0.1-2.2-0.2c-1.2,0-0.2,0.6,0,1.6c0.2,0.9,1.2,0.6,1.4,1.3c0.2,0.7-0.9,1.5-1.3,0.9
	c-0.4-0.6-1,0-1.3,0.3c-0.3,0.4-0.2,1.7-0.5,2.6c-0.2,0.9-1.1,0.8-1.5,2.6c-0.5,1.7-0.6,1.3-1.4,0.7c-0.7-0.6-1.5,0-1.7,0.5
	c-0.1,0.5,0.6,0.7,1.3,1.3c0.7,0.6-0.5,0.5-0.5,0.5s-0.8,1.1-1.9,0.9c-1.1-0.1-1.7,0.7-1.9,1.4c-0.2,0.7,0.1,1.3-0.4,2.3
	c-0.5,1-1.3,1.5-2.1,1.4c-0.8-0.1-0.8,0.4-1.9,1.3c-1.1,0.9,0.1,0.8,0.6,1.6c0.5,0.8-0.7,0.3-1,0.4c-0.3,0.1-0.7-0.1-1.8,0.6
	c-1.1,0.6,0.4,1-0.1,1.6c-0.5,0.6-1.3,0.5-2.9,1.1c-1.5,0.6-1.8,0.3-2,1c-0.1,0.3,0.4,0.4,0.9,0.5C39,89.2,46.1,81.8,51.3,75.4z"></path><path class="st9" d="M20.6,87.1c0,0.1,1.8-0.6,2.3,0s0.5,1.3,0.6,1.7c0.1,0.3-0.1,0.9-0.4,0.8c-0.2-0.1-0.2,0.3-0.7,0.3
	c-0.5,0-1.4-0.3-1.3-0.6s-0.2-0.8-0.2-0.9C20.8,88.2,20.6,87.1,20.6,87.1z"></path><path class="st9" d="M25.4,89c-0.3,0.5-0.9,1.4,0.2,1.5c1,0.1,1.4,0.4,2.4,0.3c0.9-0.1,0.9-0.8,1.4-0.8s1.5,0.5,2.2-0.3
	c0.8-0.8,0.6-1.4,1-1.6c0.4-0.2,1.1,0,1.7-0.8c0.7-0.8,0.5-1.3,1.1-2c0.6-0.7,1.6-1.1,1.7-1.3s0.7-1.1,0.8-1.1
	c0.1,0,0.4-0.2,0.4-0.2s1.5,0,0.2-0.7c-1.4-0.8-2.2-0.4-3.4-0.8s-1-1.1-2.1,0c-1.1,1.1-0.9,1.2-1.1,1.7s0,0.4-1.1,0.6
	s-1,0.2-1.4,0.7c-0.3,0.5-1.1,0.9-0.6,1.7c0.5,0.8,1.1,0.6,1,1.2s0.1,0.4-0.7,0.9s-1.2,1.1-1.4,1.2c-0.3,0.1,0,0.3-0.6,0.1
	S25.7,88.6,25.4,89z"></path><path class="st9" d="M34.8,78.7c0.7-0.4,1.9,0.2,0.9-0.4c-1.1-0.6-1.8-0.3-1.1-1.2c0.7-0.8,1-0.9,1.7-0.5c0.7,0.4,2,1.1,2.5,1.5
	c0.5,0.4,1.3,0.1,1.9,1.2c0.6,1.1-0.1,1.7-0.7,1.9c-0.6,0.2-2.8-0.3-3.2-0.3c-0.4-0.1-1.7-0.1-2.2-0.5S33.9,79.1,34.8,78.7z"></path><path class="st9" d="M36.7,74.8c-0.1,0.6,0.4,1.2,1.2,1.2c0.9,0,1.2-0.6,1.6,0c0.4,0.6,0.6,1.1,1,1.3c0.4,0.2,1.2,0.9,1.8,0.6
	s1.2-1.4,1.1-1.6c-0.1-0.2-0.7-0.3-0.5-0.5c0.2-0.2,0.8-0.4,0.3-0.8c-0.4-0.4-2,0.2-2.1-0.3c-0.1-0.5,0.4-1.4,0.4-1.4L41,72.8
	c0,0,0.9,0.9,1.2-0.1c0.3-1-0.3-1.9-1-2.5s-3-1.4-3.2-0.6c-0.3,0.8-0.3,1.2-0.1,1.4c0.3,0.3,1.1,0.8,1.1,0.8s-1-0.1-1.2,0.2
	s-0.7,0.6-0.5,1.2c0.2,0.6,0.3,0.5,0.6,0.8s0.5,0.9,0.5,0.9S36.9,73.9,36.7,74.8z"></path><path class="st9" d="M39.4,66.2c0.2,1.3,1,1.6,1.4,1.7c0.4,0.2,0.8,0.5,0.8,0.7s-0.2,0.6,0.4,1.1s2.7,1.6,2.5,0.8
	c-0.2-0.7-1.1-1.5-1.3-1.7c-0.3-0.2-0.6,0,0.4-0.4s1.2-0.5,1.1-1.1c-0.1-0.6,0.2-1.6,0.7-1.2c0.5,0.3,0.7,0,1.6,0.6
	c0.9,0.6,1.5,0.9,1.8,0.6s0.9-0.3,0.6-1.1c-0.3-0.8-0.8-2.4-1.8-2.1c-1,0.3-1.3,0.9-2.3,0.8c-1-0.1-1.1-0.3-1.9-0.4
	c-0.8-0.1-1.3,0.2-1,0.6c0.3,0.4,0.7,0.5,0.6,0.7c-0.2,0.2-0.9,0.3-1.5-0.2s-0.8-0.7-1.1-0.4C40,65.5,39.4,66.2,39.4,66.2z"></path><path class="st9" d="M43.1,72.6c1-0.7,1.7-1.2,2.2-0.8c0.5,0.4,1.4,0.4,1.1,1.1c-0.2,0.7-1,0.8-1.4,1c-0.3,0.2-0.1,0.6-0.6,0.8
	c-0.5,0.2-1.3,0.8-1.2,0.3c0.1-0.6,0.3-0.6,0.3-1s-0.7-0.7-0.7-0.7"></path><path class="st9" d="M45.6,68.5c0.1-0.3,1.1-0.9,1.9-0.7c0.8,0.2,2.3,0.5,2.1,1.2c-0.2,0.7-0.9,1.9-1.6,1.7
	C47.1,70.5,45,69.9,45.6,68.5z"></path><path class="st9" d="M42.9,61.9c0.7-0.1-0.4-2-0.1-1.9c0.4,0.1,1.3-0.1,1.5,0.7c0.2,0.8-0.1,1.1,0,1.5c0.1,0.5,0.7,0.8,0,1
	s-0.8,0.8-1.2,0.3C42.6,63,40.6,62.3,42.9,61.9z"></path><path class="st9" d="M46.8,58.5c1-0.2,2.1,0.7,2.4,1.1c0.3,0.5,0.1,1.1,1.4,1c1.3-0.1,1.8-1.1,2.1,0.3c0.3,1.3-0.4,2.4-0.8,2.4
	c-0.4,0-1.1-0.5-1.5-0.9c-0.3-0.3-0.6-0.3-0.8,0.2c-0.2,0.5-0.4,1.4-1.1,0.9c-0.7-0.5-1.9-0.3-2-1.3s0-1.3-0.3-1.7
	c-0.3-0.5-0.5-0.6-0.5-0.8C45.6,59.3,45.9,58.6,46.8,58.5z"></path><path class="st9" d="M46.4,53.1c0.1-0.9-0.2-1.9,0.9-1.8c1,0.1,2.5,0.8,2.8,1.2c0.3,0.4,1.7,1.7,1.5,2.2c-0.1,0.5-1.8,1.2-1.8,1.2
	S46.3,53.9,46.4,53.1z"></path><path class="st9" d="M49.9,56.8c1.3-0.4,1.5,1.1,1.7,0.5s-0.1-1,0.1-1.7c0.3-0.7,0.6-1.5,0.8-1.6c0.2-0.1,0.5-0.5-0.2-1.3
	c-0.8-0.8-2.4-0.9-2.3-1.6c0.1-0.7,0.2-1.1,0.4-1.1c0.2,0,0.8-0.3,0-1.1c-0.8-0.8-1.6-1.2-0.7-1s1.7,0.8,1.9,0.9
	c0.2,0.1,0.9-0.1,0.2-0.8c-0.7-0.7-1.6-1.6-1-1.6c0.6,0,0.7-1.1,1.5,0.1c0.8,1.2,0.6,1.5,0.7,2.3s0.4,0.6,0.8,1.8
	c0.5,1.2,1.1,1.9-0.3,0.9c-1.4-1-2.9-1.9-2.3-1c0.6,0.9,1.4,1.3,2,2.1s0.6,1,0.5,1.3s0.8,1,0.5,1.7c-0.3,0.7-0.6-0.5-0.9,0.9
	s0.3,1.4-0.3,1.8c-0.6,0.4-0.8,0.1-0.9,0.5S51.4,59.1,51,59S48.4,57.2,49.9,56.8z"></path><path class="st9" d="M46.4,46.2c0.5-0.3,0.6-0.3,0.9,0.3c0.3,0.6,1.1,0.6,0.2,0.9c-0.9,0.2-0.6,0.9-1.2,0.3
	C45.7,46.9,45.7,46.6,46.4,46.2z"></path><path class="st5" d="M77.7,77.8c-2.4-3.6-6.5-10-6.7-11.3c-0.2-1.3-0.2-0.6-0.4-4.6c-0.2-4-0.2-4-0.2-5.6c0-1.2,0.6-3.8,0.8-6
	c2.7-1.4,6.2-1.9,10-1.1c-0.5,0.4-0.6,1-1.4,1C78.2,50.4,77,53,77,56.8c0,3.8,1.3,6.4,1.7,9.5c0.5,3.1,3.5,7,5.3,10
	c1.8,3,4.3,6.9,6.4,10.1c1,1.5,1.7,1.7,2.8,1.7c-1.2,0.9-2.5,1.6-3.9,2.1c-2.6-1.6-5.6-3.7-6.6-5C81,82.8,80.2,81.5,77.7,77.8z"></path><path class="st6" d="M69,73.8c-4.5-8.1-3.8-18.4-0.6-21.5c0.8-0.8,1.7-1.4,2.8-2c-0.2,2.2-0.7,4.8-0.8,6c0,1.7,0,1.6,0.2,5.6
	c0.2,4,0.2,3.3,0.4,4.6c0.2,1.3,4.3,7.6,6.7,11.3c2.4,3.6,3.3,5,5,7.3c1,1.3,4,3.4,6.6,5c-0.4,0.1-0.8,0.2-1.3,0.3
	C80.7,91.9,73.5,81.9,69,73.8z"></path><path class="st7" d="M90.5,86.5c-2.1-3.2-4.6-7.2-6.4-10.1c-1.8-3-4.9-7-5.3-10c-0.5-3.1-1.7-5.6-1.7-9.5c0-3.8,1.2-6.5,2.8-6.5
	c0.9,0,0.9-0.6,1.4-1c0.7,0.2,1.5,0.4,2.3,0.6c2.5,0.8,4.3,2,5.8,3.3c0,0.3-0.1,0.8-0.7,1.2c-1.5,1.1-0.7,1.2-1,3.3
	c-0.3,2.1,0.4,3.9,1.2,7.8c0.8,3.9,1.4,2.6,3.2,5.3c1.8,2.7,2.5,3.7,4,5.2c1.2,1.2,1.5,0.8,2.6,0.3c-0.1,5.3-2.3,9.3-5.4,11.8
	C92.2,88.2,91.5,88,90.5,86.5z"></path><path class="st8" d="M96.3,66c1.7,3.8,2.3,7.3,2.3,10.3c-1.1,0.5-1.3,0.9-2.6-0.3c-1.5-1.5-2.2-2.5-4-5.2c-1.8-2.7-2.4-1.4-3.2-5.3
	c-0.8-3.9-1.5-5.7-1.2-7.8c0.3-2.1-0.5-2.2,1-3.3c0.6-0.4,0.7-0.9,0.7-1.2C92.6,56.3,94,60.7,96.3,66z"></path><path class="st9" d="M90.7,79.8c-0.3-0.7,0.1-0.6-0.7-1c-0.7-0.4-0.8-0.7-1.3-0.4s-0.4,0-0.3-0.4c0.1-0.4,0.5-0.7-0.2-0.9
	c-0.7-0.2-0.9-0.4-1.5,0.2s-1.2,0.6-1.3,1.4c-0.1,0.8-0.2,0.8,0.4,1c0.6,0.2,1-0.2,0.8,0.6c-0.2,0.8-0.7,1.5-0.2,1.8
	c0.5,0.4,0.6-0.2,1.1,0s1.4,1.3,1.1,1.6c-0.3,0.3-0.9-0.3-1.5,0.4c-0.6,0.7-1.6,1.5-0.7,1.9c0.9,0.4,1.3-0.5,1.9,0.1
	c0.5,0.6,0.7,1,1.2,0.6c0.5-0.4,1.9,0.4,2.5-0.3c0.6-0.7,1.6-0.5,0.9-1.4s-1.4-0.8-1.9-0.7c-0.5,0.1-0.4,0.6-0.8,0.1
	c-0.4-0.6-1.2-0.6-0.4-0.8c0.9-0.2,1.7-0.2,1.2-0.6c-0.5-0.4-0.8-0.3-1.2-0.5c-0.4-0.2-0.7-0.1-0.1-0.6s0.7-0.7,0.9-0.9
	C91,80.8,90.9,80.4,90.7,79.8z"></path><path class="st9" d="M87.5,74.5c-0.4-0.3-2.6,0.8-3.5,0.6c-0.8-0.2-2-0.2-1.7,0.7c0.3,0.9,1.1,1.9,1.8,2c0.7,0.1,1.1,0.1,1.5,0
	S89.1,75.7,87.5,74.5z"></path><path class="st9" d="M86.8,72.5c0.3,0.6-0.1,1-0.9,1.5c-0.8,0.5-1,0.5-1.3,0c-0.3-0.5-0.3-0.9,0-1.2s0.7,0.1,0.3-0.7
	c-0.4-0.8-0.3-1.2-0.3-1.4c0.1-0.2-0.6-0.5-0.9-0.4c-0.3,0.2-1.4,1-1.8,0.5s-0.9-0.6-0.5-1.1c0.4-0.6,1,0,1.4-1.2s0.3-1.5,0.9-1.8
	s0.8-0.9,1.4-0.4c0.6,0.5,0.5,0.8,0,1.2c-0.5,0.4-1.2,1.1-0.2,1c1-0.1,0.9-0.2,1.4,0.5c0.5,0.7,1.1,0.2,1.3,0.9
	c0.1,0.7,0.2,1.4,0.1,1.5S86.4,71.9,86.8,72.5z"></path><path class="st9" d="M83.2,71.6c-0.7-0.3-2.2,0.3-2.1,0.9s1.1,1,1.7,0.7C83.3,72.9,84.3,72,83.2,71.6z"></path><path class="st9" d="M84.7,63.8c-0.6-0.8-1.3-0.1-1.3-0.6c0-0.6,0.8-1,0-1.4c-0.8-0.3-1.8-0.1-2,0c-0.2,0.1-0.1,0.4-0.5,0
	s-0.9-0.8-1.8-0.6c-0.8,0.2-1.3,0.1-0.9,0.9c0.4,0.7,0.6,0.5,1.1,0.8c0.5,0.2,0.3,0.2,0.6,0.8s0.4,0.8,1.1,0.4
	c0.7-0.4,1.3-0.4,1.5-0.2s-0.8,0.1-0.8,1c0,0.9,0.2,1,1,1.1s1.8-0.1,2-0.4C84.9,65.2,85.1,64.4,84.7,63.8z"></path><path class="st9" d="M82.4,58.3c-0.8-1-1.4-1.1-2.3-0.5s-1.2,0.5-1.5,1s0.5,1,1.4,1.2c0.9,0.2,1.8-0.1,2-0.3
	C82.2,59.5,82.4,58.3,82.4,58.3z"></path><path class="st9" d="M78.8,56.2c0.1,0.6,1.2,0.5,0.1,1.2s-1.5,1.5-2.2,0.6c-0.7-0.9-0.6-1,0-1.4s1.5,0.1,0.9-0.6
	c-0.7-0.8-1.1-1.3-1.1-1.6c-0.1-0.3,0-0.9,0.5-1c0.5-0.1,1,0.2,1.2,0.8c0.2,0.6,0.3,0.8,0.6,0.8c0.3,0,0.6,0.2,0.6,0.3
	C79.4,55.6,78.8,56.2,78.8,56.2z"></path><path class="st9" d="M96.3,83.9c0.1-0.7-0.4-0.7-0.9-0.4c-0.5,0.4-0.2,0.3-0.7,0.8c-0.5,0.5-1.1,0.4-1.1,1.1c-0.1,0.6,0,1.2,0.5,1
	c0.5-0.1,0.9-0.1,1.1-0.4S96.2,84.6,96.3,83.9z"></path><path class="st9" d="M97.3,79c0,0,0.4,1.5-0.1,2.1c-0.4,0.6-0.5,0.9-1.3,1.3c-0.7,0.4-0.8,0.9-1.1,0.5c-0.3-0.4-0.3-0.5-0.1-1.1
	c0.2-0.5,0.5-0.3-0.2-0.6c-0.6-0.3-0.5,0.2-0.6-0.3c-0.2-0.6-0.6-0.6-0.2-1.2c0.3-0.6,1.1-0.6,1.3-1.5c0.2-0.9,0.5-1.5-0.5-0.8
	c-1.1,0.7-1.1,1.6-1.9,0.8c-0.8-0.8-0.6-1-0.1-1.4c0.5-0.4,0,0-0.7-0.1c-0.7-0.1-1.7-0.3-0.9-1c0.8-0.7,1.7-0.6,2.1-0.6
	c0.3,0,1.3,0,1.4-0.2c0.1-0.2,0.1-0.5,0.8-1s0.5-1.3,0.9-0.8s0.2,0.9-0.1,1.3s-0.3-0.2,0.1,0.5c0.4,0.6,0.6,0.5,0.6,1.3
	c0,0.8-0.3,1.6-0.2,1.9c0.1,0.2,0.2,0.4,0.3,0.4C96.9,78.5,97.2,78.6,97.3,79z"></path><path class="st9" d="M95.3,69.7c-0.2-0.8,0-2.5-1.1-1.3c-1,1.2-1.2,2.1-1.4,2.3s-1-0.4-1.1,0.3c-0.1,0.8-0.1,0.7-0.2,1.4
	c-0.1,0.7-1.3,1.2-0.2,1.4s1.7,0.2,2.3-0.3c0.5-0.5,1.3-0.2,1.3-0.9c0-0.7,0-0.9,0-1.2c0-0.3,0-0.5,0.1-0.7
	C95.3,70.4,95.3,69.7,95.3,69.7z"></path><path class="st9" d="M93.7,66.2c-0.2,0-1.2-0.3-2,0.6s-0.3,1-1.3,1.2c-1,0.2-1-0.1-1.6,0.7s-1.8,1-0.2,1.2s1.8,0.3,2.5-0.3
	s1.7-1,2-1c0.3,0,0.4-0.2,0.7-0.5C94.2,67.8,94.4,66.3,93.7,66.2z"></path><path class="st9" d="M93.1,63.5c-0.6,0.1-1.6,0-2.2,1c-0.6,1-1,1.2-0.4,1.4s1.5,0.3,1.9,0.1c0.4-0.1,1.1-0.4,1.2-0.8
	c0.1-0.4,0-0.8-0.1-1S93.8,63.4,93.1,63.5z"></path><path class="st9" d="M89.6,65.9c0.1,0.4,0.1,1-0.6,1.3c-0.7,0.3-1.7,0.8-1.7,0.2c0.1-0.5,0.5-0.8,0.6-1c0.1-0.3,1-0.6,0.5-0.9
	c-0.5-0.3-0.7-0.3-1.2-0.9c-0.4-0.6-0.2-1.2-0.1-1.4s1.7,0.3,0.5-0.8c-1.2-1-1.7-1.1-1.1-1.8c0.5-0.7,0.6-1,1.3-0.9
	c0.7,0,1.6-1.3,1.6-0.1c0,1.2-0.3,1.2-0.4,1.7c-0.2,0.4-0.9,1.5,0.2,0.6c1.2-0.9,1.7-1.6,2.2-1.3s1.4,0.3,0.7,1.1s-1.1,1.2-1.6,1
	c-0.5-0.1-0.6-0.1-1.1,0.2c-0.4,0.3-0.4-0.1-0.2,0.8c0.2,0.9,0.1,0.5,0,1.1C89.2,65.5,89.6,65.9,89.6,65.9z"></path><path class="st9" d="M90.9,57.7c-0.5-0.7-1-0.4-1.5-0.4c-0.5,0.1-0.7,0.4-0.6-0.5s0-1.5-0.4-1.6c-0.4-0.1-1.2,0.3-1.4,0.5
	c-0.2,0.2-0.3,0.5-0.5,0s-0.5-1.2-0.8-1.2s-0.5,0.6-0.3-0.5c0.2-1.1-0.3-1.3-0.7-1.3c-0.4,0.1-0.4,0-0.8,0.6
	c-0.5,0.6-0.9,1.1-1.1,0.6c-0.2-0.5,0.1-0.9-0.5-0.8c-0.7,0.1-1.8-0.7-1.6,0.3c0.2,1,0.8,0.5,1,0.8c0.2,0.3,0.2,0.9,0.5,1.2
	c0.3,0.2,0.2,0.2,1.1-0.1c0.8-0.3,0.9-0.6,1.2-0.1s0.3,0.3,1,0.5c0.7,0.2,1-0.1,0.8,0.5c-0.2,0.6-1.3,0.8-0.2,1.2
	c1.1,0.4,1.3,0.1,1.8,0.1c0.6,0,1,0.5,1.1,0.8c0.1,0.3-0.5,1.1,0.4,0.8c1-0.2,0.8,0,1.3-0.4C91.1,58.5,91.3,58.4,90.9,57.7z"></path><path class="st9" d="M85.9,58.3c-0.6-0.2-1.1-0.7-1.8,0c-0.7,0.7-1.6,1.1-0.6,1.6c1,0.5,1.3,0.7,1.6,0.4c0.3-0.2,1.3-0.9,1.3-0.9
	S86.7,58.6,85.9,58.3z"></path><path class="st9" d="M83.7,50.7c-0.5-0.1-0.9-1.4-1.4-0.5s-1,1.5-0.7,1.9s1.6,0.6,1.9,0.6c0.3-0.1,0.7-0.2,0.7-0.5
	C84.2,51.9,83.7,50.7,83.7,50.7z"></path><path class="st9" d="M81.2,49.8c-0.2-0.2-1-0.5-1.4-0.6c-0.4-0.1-0.8-0.4-1.3-0.4s-0.8,0-1.2,0.3c-0.4,0.2-1.2,0.2-0.7,0.5
	c0.5,0.3,0.6-0.5,1.2,0.1c0.5,0.6,0.6,0.8,0.5,1.4s0.1,1,0.6,1s0.4,0.1,0.8,0.4c0.4,0.3,1.4,0.4,1.1,0c-0.2-0.4,0.1,0-0.6-0.7
	s-1.3-1-1.1-1.1s0.5,0,0.5-0.3c0-0.4-0.3-0.8,0.2-0.5c0.6,0.3,0.9,0.2,0.9,0.2S82,50.5,81.2,49.8z"></path><path class="st9" d="M97.7,78.1c-0.4-0.5-0.3-1.5-0.1-2.1c0.2-0.6,0.6-1.6,0.2-2.2c-0.4-0.6-0.7-1.9-1.1-2.8
	c-0.3-0.9-0.3-1.3-0.4-1.6c-0.1-0.3-0.1-1.7-0.4-2.2s-0.8-1.2-0.9-1.7c-0.1-0.4-0.3-0.6-0.4-1.5c-0.1-0.9-0.3-1.4-0.6-1.8
	c-0.3-0.4-1.1-2-1.2-2.2c0-0.2-1.3-1.7-1.5-2.6c-0.1-0.9,0.1-0.5-0.5-1s-0.7-0.7-1.1-1.2c-0.4-0.5-0.4-0.6-0.9-1
	c-0.4-0.4-1-1.1-1.2-1.2c-0.2-0.1-0.1,0.1-0.5-0.3c-0.4-0.5-0.6-0.6-0.8-0.7c-0.2-0.1-0.7-0.5-0.8-0.7c0-0.1-0.1-0.2-0.2-0.4
	c6.2,3,7.6,8.2,10.7,15.2c2,4.6,2.6,8.7,2.2,12.1C98.1,78.3,97.9,78.3,97.7,78.1z"></path><path class="st9" d="M84.1,89.9c0.5,0.1,1.1,0.1,1.5,0.1c0.4,0,1.8-0.2,2.5,0c0.3,0.1,0.6,0.2,0.9,0.5c-0.3,0.1-0.7,0.2-1,0.2
	c-1.7,0.3-3.5,0-5.1-0.7c0,0,0,0,0.1-0.1C83.1,89.3,83.5,89.8,84.1,89.9z"></path><path class="st9" d="M91.5,89.4c0-0.1,0.1-0.1,0.1-0.2c0.5-1.1,0.3-0.4,0.5-0.6c0.2-0.2,0.5-0.7,1.3-1.6c0.5-0.6,0.9-0.4,1.3-0.2
	C93.7,87.9,92.6,88.7,91.5,89.4z"></path><path class="st9" d="M68.8,74c-4.5-8.1-3.8-18.4-0.6-21.5c0.2-0.2,0.3-0.3,0.5-0.4c0.3,0.2-0.5,0.8-0.2,1.5c0.5,1,0.3,0.5,0.1,1.3
	s-0.7,0.7-1,0.9c-0.2,0.2,0.1,0.7,0.3,0.9c0.3,0.2,0.2,1.3,0.4,2c0.2,0.7-0.7,0.6-0.9,1c-0.2,0.4,0.2,0.3,0,0.8
	c-0.2,0.5,0.2,1,0.7,0.7c0.5-0.3,0.1,0.3,0.1,1.5c0,1.2,0.1,0.4-0.6,1.5c-0.7,1.1-0.4,0.8-0.2,1.1c0.2,0.3,0.1,0.5,0.1,0.7
	c0,0.2,0.8,0,1.8,0.2c1,0.2,0.1,0.5-0.2,1.2c-0.3,0.7-1,0.3-1.2,0.9c-0.2,0.5,0.5,1.3,0.9,0.8c0.4-0.4,0.8,0.1,1,0.4
	c0.2,0.3,0,1.4,0,2.1c0.1,0.7,0.7,0.8,0.9,2.2c0.2,1.4,0.3,1.1,1,0.7c0.7-0.4,1.2,0.2,1.2,0.6c0,0.4-0.6,0.5-1.2,0.8
	c-0.6,0.4,0.3,0.4,0.3,0.4s0.5,0.9,1.4,1c0.9,0.1,1.3,0.8,1.3,1.3s-0.2,1.1,0,1.9c0.3,0.8,0.8,1.3,1.5,1.4c0.7,0,0.6,0.4,1.4,1.3
	c0.8,0.8-0.2,0.6-0.7,1.2s0.5,0.4,0.7,0.5c0.2,0.1,0.6,0.1,1.4,0.7c0.8,0.6-0.5,0.8-0.2,1.3c0.3,0.5,1,0.6,2.1,1.2
	c1.1,0.7,1.4,0.5,1.4,1c0,0.3-0.3,0.3-0.8,0.2C76.6,86.6,72,79.8,68.8,74z"></path><path class="st9" d="M91.5,87.4c-0.1,0.1-1.4-0.7-1.8-0.3s-0.6,1-0.7,1.2c-0.1,0.3,0,0.7,0.2,0.6s0.1,0.2,0.5,0.3
	c0.4,0.1,1.2,0,1.1-0.3c0-0.3,0.2-0.6,0.3-0.7C91.2,88.2,91.5,87.4,91.5,87.4z"></path><path class="st9" d="M87.4,88.2c0.2,0.5,0.5,1.3-0.3,1.2c-0.8-0.1-1.2,0.2-1.9-0.1c-0.7-0.2-0.6-0.8-1-0.8c-0.4-0.1-1.2,0.2-1.7-0.5
	c-0.5-0.8-0.3-1.2-0.5-1.4c-0.3-0.2-0.9-0.1-1.3-0.8C80.2,85,80.4,84.6,80,84c-0.4-0.6-1.1-1.1-1.2-1.3s-0.4-1-0.5-1
	s-0.3-0.2-0.3-0.2s-1.2-0.2,0-0.6c1.2-0.4,1.8,0,2.8-0.2s0.9-0.7,1.7,0.3s0.6,1.1,0.6,1.5S83.1,83,84,83.3c0.9,0.3,0.8,0.3,1,0.8
	c0.2,0.4,0.7,0.8,0.2,1.4s-0.9,0.3-1,0.9c0,0.5-0.1,0.3,0.5,0.8s0.8,1,1,1.2c0.2,0.1-0.1,0.2,0.4,0.2C86.6,88.4,87.2,87.8,87.4,88.2
	z"></path><path class="st9" d="M81.4,78.8c-0.5-0.4-1.5-0.1-0.6-0.4c0.9-0.4,1.5,0,1-0.8c-0.5-0.7-0.7-0.8-1.3-0.6s-1.7,0.6-2.2,0.9
	c-0.5,0.2-1-0.1-1.6,0.7c-0.6,0.8-0.2,1.4,0.3,1.6c0.5,0.2,2.3,0.2,2.6,0.2s1.4,0.1,1.8-0.1S82,79.3,81.4,78.8z"></path><path class="st9" d="M80.4,75.5c0,0.5-0.5,0.9-1.1,0.8c-0.7-0.1-0.9-0.6-1.3-0.2c-0.4,0.5-0.6,0.8-1,0.9c-0.3,0.1-1.1,0.5-1.5,0.2
	c-0.4-0.4-0.7-1.3-0.6-1.4s0.6-0.2,0.5-0.3c-0.1-0.1-0.6-0.4-0.2-0.7c0.4-0.2,1.6,0.4,1.7,0c0.2-0.4-0.1-1.1-0.1-1.1l0.5-0.4
	c0,0-0.8,0.6-0.9-0.2c-0.1-0.9,0.5-1.5,1.1-1.8c0.6-0.4,2.6-0.8,2.7-0.1c0.1,0.7,0.1,1-0.1,1.1c-0.3,0.2-0.9,0.5-0.9,0.5
	s0.8,0,0.9,0.3c0.2,0.3,0.5,0.6,0.3,1c-0.2,0.5-0.3,0.3-0.6,0.5c-0.3,0.2-0.5,0.6-0.5,0.6S80.3,74.8,80.4,75.5z"></path><path class="st9" d="M79.4,68.3c-0.3,1-1,1.1-1.3,1.2c-0.3,0.1-0.7,0.3-0.7,0.4c-0.1,0.2,0.1,0.5-0.5,0.8c-0.6,0.4-2.4,0.9-2.1,0.3
	c0.2-0.6,1-1,1.3-1.1c0.2-0.1,0.4,0.1-0.2-0.4c-0.7-0.4-0.9-0.5-0.7-1c0.2-0.5,0.1-1.3-0.4-1.1c-0.4,0.2-0.5-0.1-1.3,0.3
	c-0.8,0.4-1.3,0.5-1.5,0.3s-0.6-0.3-0.3-0.9c0.3-0.6,1-1.8,1.7-1.4s0.9,0.9,1.7,0.9s0.9-0.1,1.6-0.1c0.6,0,1,0.3,0.7,0.6
	c-0.3,0.3-0.7,0.3-0.6,0.5s0.7,0.3,1.2,0.1s0.7-0.4,0.9-0.2S79.4,68.3,79.4,68.3z"></path><path class="st9" d="M75.6,72.9c-0.7-0.6-1.2-1.2-1.6-0.9c-0.5,0.2-1.1,0.1-1,0.7c0.1,0.6,0.7,0.8,0.9,1c0.2,0.2,0,0.5,0.4,0.7
	c0.4,0.2,0.9,0.8,0.9,0.4c0-0.5-0.1-0.5-0.1-0.8s0.6-0.5,0.6-0.5"></path><path class="st9" d="M74.2,69.3c0-0.2-0.7-0.8-1.4-0.8c-0.6,0-1.9,0.1-1.8,0.7c0.1,0.6,0.4,1.6,1.1,1.6S74.4,70.5,74.2,69.3z"></path><path class="st9" d="M77.2,64.4c-0.6-0.2,0.6-1.5,0.3-1.5c-0.3,0-1-0.3-1.3,0.4c-0.3,0.6-0.1,0.9-0.2,1.2c-0.1,0.3-0.7,0.5-0.1,0.8
	c0.5,0.3,0.5,0.7,0.9,0.4C77.2,65.4,78.9,65.1,77.2,64.4z"></path><path class="st9" d="M74.6,61.2c-0.8-0.2-1.7,0.2-2,0.6c-0.3,0.3-0.2,0.8-1.2,0.6s-1.3-1.1-1.7,0c-0.4,1,0,2,0.3,2
	c0.3,0.1,1-0.3,1.3-0.5c0.3-0.2,0.5-0.2,0.6,0.3c0.1,0.4,0.1,1.2,0.8,0.8c0.6-0.3,1.5,0,1.8-0.8c0.3-0.8,0.2-1,0.5-1.3
	s0.5-0.4,0.5-0.6S75.2,61.5,74.6,61.2z"></path><path class="st9" d="M75.6,57.1c0-0.8,0.4-1.5-0.5-1.5s-2.1,0.3-2.4,0.5c-0.3,0.3-1.5,1.1-1.5,1.5c0,0.4,1.3,1.2,1.3,1.2
	S75.6,57.7,75.6,57.1z"></path><path class="st9" d="M72.3,59.5c-1-0.5-1.3,0.7-1.4,0.2c-0.1-0.5,0.2-0.8,0.1-1.3c-0.1-0.6-0.3-1.2-0.4-1.4c-0.1-0.1-0.3-0.5,0.4-1
	c0.7-0.5,2-0.4,2-0.9c0-0.6,0-0.9-0.2-0.9c-0.2-0.1-0.6-0.4,0.2-0.9c0.7-0.5,1.4-0.7,0.7-0.7c-0.7,0-1.4,0.4-1.6,0.5s-0.7-0.2,0-0.7
	c0.6-0.4,1.5-1.1,1-1.1c-0.5-0.1-0.4-1-1.2-0.1c-0.8,0.9-0.7,1.1-0.9,1.7c-0.2,0.6-0.4,0.4-0.9,1.3c-0.5,0.9-1.1,1.3,0.1,0.7
	c1.2-0.6,2.5-1.1,1.9-0.5c-0.6,0.7-1.3,0.8-1.9,1.4s-0.6,0.7-0.6,0.9c0,0.2-0.8,0.6-0.6,1.3c0.1,0.6,0.6-0.3,0.6,0.8
	c0,1.2-0.4,1.1,0,1.5c0.4,0.4,0.6,0.2,0.7,0.5c0.1,0.4,0.6,0.3,0.9,0.3C71.5,61,73.4,60,72.3,59.5z"></path><path class="st9" d="M76.4,51.6c-0.4-0.3-0.4-0.3-0.8,0.1c-0.3,0.4-0.9,0.3-0.3,0.6c0.6,0.3,0.3,0.8,0.9,0.4
	C76.9,52.2,77,52,76.4,51.6z"></path></g></svg>