<?xml version="1.0" encoding="utf-8"?>
<!-- Generator: Adobe Illustrator 23.1.1, SVG Export Plug-In . SVG Version: 6.00 Build 0)  -->
<svg version="1.1" id="Layer_1" xmlns="http://www.w3.org/2000/svg" xmlns:xlink="http://www.w3.org/1999/xlink" x="0px" y="0px"
	 viewBox="0 0 108 108" style="enable-background:new 0 0 108 108;" xml:space="preserve">
<style type="text/css">
	.st0{fill:none;stroke:#758B68;stroke-width:2.0338;stroke-linecap:round;stroke-miterlimit:10;}
	.st1{fill:#5F8C3D;}
	.st2{fill:#7E9D3D;}
	.st3{fill:#BDCA8A;}
	.st4{fill:#647B5A;}
	.st5{fill:#758B68;}
	.st6{fill:#405C31;}
</style>
<g>
	<path class="st0" d="M42.62,58.77c0,0-4.01-6.11-10.91-7.9"/>
	<path class="st0" d="M37.17,52.66c0,0,4.11-2.16,6.96-5.07"/>
	<path class="st0" d="M39.58,56.03c0,0-4.44-0.89-8.64,6.04"/>
	<path class="st1" d="M44.59,46.56c0,0-0.61,0.49-1.37,0.79c-0.77,0.3-2.41,0.15-2.97-0.38s-1.58-2.62-1.75-2.96
		c-0.17-0.35-0.44-0.55-0.53-0.75s-0.08-0.31,0.33-0.4c0.41-0.09,0.65-0.27,0.82-0.37s1.2-2.32,1.31-3s0.51-1.21,0.5-1.6
		s0.01-0.61,0.01-0.61s2.48,0.95,2.79,1.13s-0.1,0.51,0.48,0.32s5.74-2.34,6.4-2.7c0.66-0.36,1.84-1.17,1.84-1.17
		s-0.53,4.35-0.67,4.96c-0.14,0.61-0.11,4.41,0.21,4.85c0.32,0.44,1.6,1.92,2.22,2.16s1.22,0.53,1.11,0.71s-2.1,1.31-2.71,1.67
		s-2,0.98-2.37,1.37c-0.36,0.39-1.12,0.89-1.11,1.47c0.01,0.58-0.12,1.21-0.12,1.21s-2.25-1.47-2.47-1.56
		c-0.22-0.09-1.67-0.84-1.96-1.54C44.29,49.47,44.11,47.61,44.59,46.56z"/>
	<path class="st2" d="M30.26,62.69c0,0,0.24-0.74,0.25-1.57s-0.72-2.3-1.41-2.64c-0.69-0.34-3.01-0.54-3.39-0.58
		c-0.39-0.04-0.67-0.22-0.89-0.22s-0.32,0.04-0.26,0.45c0.06,0.41-0.02,0.7-0.05,0.89c-0.03,0.19-1.74,1.95-2.33,2.29
		c-0.59,0.34-0.95,0.91-1.32,1.04c-0.37,0.13-0.56,0.22-0.56,0.22s1.77,1.97,2.06,2.2c0.28,0.23,0.45-0.28,0.47,0.33
		c0.03,0.61-0.14,6.19-0.24,6.94s-0.44,2.14-0.44,2.14s3.87-2.05,4.39-2.39c0.52-0.35,4.08-1.68,4.6-1.54
		c0.53,0.14,2.37,0.81,2.81,1.31c0.44,0.5,0.94,0.95,1.06,0.79s0.47-2.43,0.59-3.13c0.12-0.7,0.2-2.22,0.43-2.7
		c0.23-0.48,0.43-1.37,0.97-1.56c0.54-0.2,1.08-0.54,1.08-0.54s-2.17-1.57-2.34-1.75s-1.39-1.26-2.14-1.28S31.06,61.87,30.26,62.69z
		"/>
	<path class="st3" d="M31.93,49.98c0,0,0.53,0.63,0.86,1.43c0.33,0.8,0.2,2.53-0.34,3.13c-0.54,0.6-2.73,1.71-3.09,1.9
		c-0.36,0.19-0.57,0.48-0.78,0.57c-0.21,0.09-0.32,0.09-0.43-0.34c-0.11-0.43-0.3-0.68-0.4-0.85s-2.46-1.22-3.18-1.32
		s-1.29-0.52-1.7-0.5c-0.41,0.01-0.64,0-0.64,0s0.96-2.62,1.14-2.96c0.19-0.33,0.54,0.09,0.33-0.51s-2.57-6-2.96-6.69
		c-0.39-0.69-1.27-1.92-1.27-1.92s4.59,0.48,5.23,0.61s4.64,0.04,5.1-0.31c0.46-0.34,2-1.72,2.23-2.38c0.24-0.66,0.54-1.3,0.73-1.19
		s1.41,2.19,1.81,2.82c0.39,0.63,1.06,2.09,1.48,2.47s0.96,1.16,1.57,1.15c0.61-0.02,1.27,0.11,1.27,0.11s-1.5,2.39-1.6,2.63
		c-0.09,0.24-0.86,1.77-1.58,2.09C35,50.24,33.04,50.46,31.93,49.98z"/>
	<g>
		<path class="st4" d="M50.77,69.69c2.99,1.16,6.16,3.16,7.18,4.15c1.02,1,1.31,1.87,4.12,3.02c2.81,1.15,8.7,4.24,9.93,5.12
			c1.22,0.88,4.58,2.89,5.33,3.01c0.75,0.12,4.04-0.13,4.87,0.24c0.76,0.35,1.74-0.51,1.71,0.23c0.27-0.17,0.49-0.33,0.64-0.49
			c0.38-0.4,0.61-1.33,0.73-2.29c-0.27-0.27-0.44-0.92-0.49-1.4c-0.06-0.67-0.8-1.76-1.5-2.44c-0.7-0.68-4.98-4.2-6.03-4.96
			c-1.05-0.76-1.59-0.74-2.18-0.81c-0.59-0.07-1.32-1.24-1.59-1.82c-0.27-0.58-1.51-0.62-2.16-0.88c-0.65-0.26-1.24-0.61-3.53-2.69
			c-2.29-2.08-2.38-1.88-5.42-3.2c-3.04-1.31-3.44-2.22-6.09-4.63c-1.72-1.56-2.21-2.3-3.36-3.36c-2.66-1.28-4.94-1.5-6.62-1.37
			c1.88,1.21,4.52,3.32,6.93,4.87c3.71,2.38,12.11,9.13,13.63,9.57c1.53,0.44,4.06,2.51,6.02,3.73c1.95,1.21,5.88,3.98,6.36,4.28
			c0.48,0.3,4.84,2.85,4.96,3.24c0.12,0.39,0.36,1.31-1.1,0.64c-1.46-0.67-6.54-4.81-9.68-6.21c-3.15-1.4-9.81-4.93-12.3-7
			s-10.24-7.83-12.03-8.65c-1.8-0.82-3.19-1.4-3.24-0.26c-0.05,1.14-0.52,2.59-1.05,2.56c-0.53-0.04-2.5-0.46-2.9-1.21
			c-0.27-0.5-0.62-1.53-0.76-2.31c-0.33,0.55-0.64,1.23-0.79,2.04c1.04,1.25,2.5,2.91,3.59,4.03
			C45.79,66.33,47.79,68.52,50.77,69.69z"/>
		<path class="st5" d="M52.99,63.52c-0.7-0.5-1.01-0.49-2.28-1.32c-1.27-0.83-0.93-1.88-2.53-1.36c-1.6,0.52-2.42,0.85-1.89,1.67
			c0.53,0.81,1,2.16,1.71,2.47c0.71,0.3,2.03,0.87,3.02,0.72S53.71,64.03,52.99,63.52z"/>
		<path class="st5" d="M56.78,65.88c-0.2-0.14-1.86-1.78-2.1-0.54c-0.24,1.24-1.18,1.51,0.8,2.23c1.98,0.72,1.73,0.53,2.74,1.08
			c1.01,0.54,1.26,0.11,1.13,1.03c-0.13,0.92-0.49,1.53,0.39,1.43c0.88-0.09,0.98-1.02,1.95-0.08c0.97,0.95,0.54,1.27,2.14,1.94
			s2.25,0.84,2.31,1.13c0.06,0.29-0.22-0.23-0.48,0.53c-0.27,0.76-0.8,1.25,0.38,1.13c1.19-0.12,1.76-0.96,2.69-0.16
			c0.92,0.79,1.81,2.2,2.14,2.3c0.34,0.1,0.31,1.47,2.21,1.66c1.9,0.18,1.83,0.21,2.91,0.53s1.89-0.11,2.1,0.59
			c0.21,0.7,0.4,2.2,1,1.95c0.6-0.25,0.96-0.02,0.41-1.23c-0.55-1.21,2.09-0.49-2.14-2.46s-4.99-2.94-6.57-4.05
			c-1.58-1.11-1.74-0.41-3.47-1.51c-1.73-1.1-1.02-1.17-2.67-1.96s-1.61-0.57-2.58-1.21c-0.97-0.64-0.43-0.72-1.47-1.64
			c-1.04-0.92-0.85-1.03-1.85-1.23c-0.99-0.2-1.25-0.38-1.43-0.6C57.13,66.53,56.78,65.88,56.78,65.88z"/>
		<path class="st5" d="M62.41,64.49c3.04,1.31,3.13,1.11,5.42,3.2c2.29,2.08,2.87,2.42,3.53,2.69c0.65,0.26,1.89,0.3,2.16,0.88
			c0.27,0.58,0.99,1.75,1.59,1.82c0.59,0.07,1.14,0.04,2.18,0.81c1.05,0.76,5.33,4.28,6.03,4.96c0.7,0.68,1.43,1.77,1.5,2.44
			c0.05,0.48,0.22,1.13,0.49,1.4c0.13-1.11,0.11-2.24-0.03-2.62c-0.26-0.69-3.32-4.21-4.67-5.1c-1.35-0.89-4.99-3.36-7.52-4.71
			c-2.54-1.35-4.71-3.36-5.95-4.16c-1.25-0.8-1.97-1.61-3.07-2.42c-1.1-0.81-2.84-1.79-8.7-5.79c-0.82-0.56-1.62-1.02-2.38-1.38
			c1.15,1.06,1.65,1.8,3.36,3.36C58.97,62.27,59.37,63.18,62.41,64.49z"/>
		<path class="st6" d="M40.35,62.47c0.56,3.37,3.68,5.84,4.67,6.71c0.99,0.88,6.09,3.44,6.52,3.69c0.43,0.25,0.76,0.46,1.56,1.13
			c0.8,0.68,1.75,1.07,2.63,1.56c0.88,0.48,1.89,0.72,2.41,1.12c0.52,0.41,1.14,0.97,1.93,1.14c0.78,0.17,4.48,2.68,5.52,3.13
			c1.05,0.45,1.92,1.35,2.43,1.62c0.51,0.26,1.94,1.12,2.17,1.33c0.23,0.21,6.66,2.24,8.6,2.69c1.59,0.37,3.89-0.39,5.12-1.14
			c0.03-0.73-0.96,0.12-1.71-0.23c-0.83-0.38-4.12-0.12-4.87-0.24c-0.75-0.12-4.11-2.14-5.33-3.01c-1.22-0.88-7.11-3.97-9.93-5.12
			c-2.81-1.15-3.1-2.02-4.12-3.02c-1.02-1-4.19-2.99-7.18-4.15c-2.99-1.16-4.99-3.36-6.81-5.23c-1.09-1.12-2.55-2.78-3.59-4.03
			C40.26,61.04,40.23,61.72,40.35,62.47z"/>
		<path class="st6" d="M44.82,61.9c0.53,0.04,1.01-1.42,1.05-2.56c0.05-1.14,1.45-0.56,3.24,0.26c1.8,0.82,9.54,6.57,12.03,8.65
			s9.16,5.6,12.3,7c3.15,1.4,8.22,5.54,9.68,6.21c1.46,0.67,1.22-0.26,1.1-0.64c-0.12-0.39-4.48-2.94-4.96-3.24
			c-0.48-0.3-4.41-3.07-6.36-4.28c-1.95-1.21-4.49-3.28-6.02-3.73c-1.53-0.44-9.92-7.19-13.63-9.57c-2.42-1.55-5.06-3.66-6.93-4.87
			c-1.28,0.1-2.21,0.41-2.68,0.6c-0.2,0.08-1.11,0.96-1.27,1.14c-0.08,0.09-0.68,0.61-1.22,1.5c0.14,0.79,0.49,1.82,0.76,2.31
			C42.33,61.44,44.29,61.87,44.82,61.9z"/>
		<path class="st5" d="M43.55,58.28c-0.21,0.32-0.74,1.02-0.75,1.44s-0.33,0.83,0.24,0.57s1.27-0.26,1.15-0.8
			C44.08,58.95,43.89,57.77,43.55,58.28z"/>
	</g>
</g>
</svg>
