<svg xmlns="http://www.w3.org/2000/svg" version="1.1" xmlns:xlink="http://www.w3.org/1999/xlink" xmlns:svgjs="http://svgjs.dev/svgjs" viewBox="0 0 108 108" style="" x="0" y="0"><style type="text/css">
	.st0{fill:#99BC46;}
	.st1{fill:#9FBE45;}
	.st2{fill:#9AB245;}
	.st3{fill:#A4BF44;}
	.st4{fill:#91B342;}
	.st5{fill:#718D30;}
	.st6{fill:#809F3A;}
	.st7{fill:#83AE49;}
	.st8{fill:#7E9D38;}
	.st9{fill:#80AC44;}
	.st10{fill:#77A13E;}
	.st11{fill:#94B347;}
	.st12{fill:#7C9A35;}
	.st13{fill:#9AB045;}
	.st14{fill:#80A03B;}
	.st15{fill:#718F33;}
	.st16{fill:#AAC475;}
</style><g><path class="st0" d="M32.9,81.7c1.3,0.1,1.7,2.4,3.2,2.1c1.6-0.3,2.4-0.2,2.2,1.5c-0.2,1.8,0,2-1.5,3.8c-1.5,1.9-1,2.8,0.3,3
	c1.3,0.2,3.3,0.8,3.9-0.4c0.6-1.2,0.8-2.3,1-1.1c0.2,1.1,0.3,0.8,0.7,1.1c0.4,0.3,1.4-0.2,1.4-0.7s-1-1.8,0.7-1.7
	c1.7,0.1,2-1.7,2.5-1.9c0.6-0.2,3.6-0.9,4.3-1.9c0.6-0.9,4.7,0,0-3.9c-4.7-3.9-4.2-1.2-5.7-5.2c-1.5-4-1.5-3.9-5.1-3.8
	c-3.6,0.1-5,0.1-5.5,1.4c-0.5,1.2-0.9,4.8-1,5.4C34.3,79.9,32.9,81.7,32.9,81.7z"></path><path class="st1" d="M88.1,40.2c0.4-0.3,0-1.5,1.8-1.2c1.9,0.2,2.1,0.4,2.7,0.6c0.7,0.2,1.1,0.1,1.4,1c0.3,1,1.6,1.1,0.6,2.1
	c-1.1,1.1,0.6,0.8-1.1,1.1c-1.7,0.2-3.4-0.3-3.8-0.7C89.4,42.7,88.1,40.2,88.1,40.2z"></path><path class="st0" d="M92.4,50.2c0.4,0.2,4.3,0.9,4.4,1.3c0.1,0.4-0.2,0.8-0.3,1.6s-0.6,2.5-0.6,2.5s-1.4,0.6-2,1.2
	c-0.6,0.6-2.5,2.1-2.3,0.6C91.8,55.8,92.4,50.2,92.4,50.2z"></path><path class="st2" d="M90.5,62.2c0.7,0.5,2.8,0.5,2.5,1.8c-0.3,1.3-1.5,2.6-1.5,2.6s2.4,1,1.9,1.6s-0.7,0.7-1,0.7s-1.3,0.9-2.7,0
	c-1.4-0.9-1.9,0.6-2-1.9c-0.1-2.5-0.7-3,0-3.5C88.4,62.9,90.5,62.2,90.5,62.2z"></path><path class="st3" d="M49,23.1c-1.6-0.8-2.3-2.7-3.8-3.3s-2.7,0.2-3.3-1.1c-0.6-1.2-0.5-2.6-1.4-2.6c-0.9-0.1-2.8-1.4-3,0
	c-0.2,1.4,0.3,2.8,0,3.9c-0.3,1.1-0.3,1.5-1.8,1.2c-1.5-0.3-1.7-0.3-1.8,0.4s0.2,0.9-0.2,1.6s-1.1,0.7-1.6,1.3
	c-0.4,0.6-0.7,0.1-0.8,1.6c-0.1,1.5-0.2,2.3,0,3.5s-0.5,3.5,2.2,3.2s1.7,0.8,4.7-0.7s6.4-2.6,6.6-3.9c0.1-1.3,1.1-1.2,2.1-2.1
	C47.9,25.2,49,23.1,49,23.1z"></path><path class="st4" d="M34.3,31.3c-0.2-0.5-2.5-0.7-3.8-3s-1.3-4.1-2.1-3.3c-0.8,0.8-1.3,1.5-2.3,0.7c-1.1-0.8-2-2.5-2.1-0.9
	s2.1,2.9,1.4,4.2c-0.7,1.2,1,2.7-1.4,1.7s-2.1-3-2.9-0.8c-0.8,2.1,0.1,2.9-1.3,3.2s-3.1,1.2-2.9,2.2s0.4,1.4,0.4,2.1
	s0.1,1.2-0.1,2.2s1,0.8,0.6,2.2c-0.4,1.4,0.1,3.1-0.5,3.8c-0.6,0.7-3.2,1.6,1.2,2.3s9.1,0.6,9.9,0s4.1-3.6,5.1-4.5
	c1-0.9,1.7-1.2,2.7-2.5c1-1.2,1.6-1.2,1.6-3.2S34.3,31.3,34.3,31.3z"></path><path class="st5" d="M44.8,77.1c0.8,1.4,2.8,3,1.7,3.8c-1,0.7-2.1,0.3-1.7,1.6c0.4,1.2,1.4,1.6,2,3.5c0.6,1.8,1,2.6,0.7,3
	c-0.2,0.4-2.1,1.7,1.5,1.4s2.5-0.1,5.1-1.5c2.6-1.4,2.9-2.1,5.2-3.2c2.3-1.1,3.8-2.7,3.9-0.4c0.1,2.4,1.5,3.5,1.9,4.3
	s-0.4,1.2,2.2,0.8c2.7-0.4,4-2.3,4.7-2.3s1.7,0.3,2.4-0.2c0.7-0.6,0.9-3.5,2-2.6s1.3,1.9,2.7,1.5s2.7-0.7,2.7-2.1
	c0-1.4-0.8-3.4,0.8-3.5c1.6-0.1,1.7,0.4,3.3,0.3c1.6-0.1,3-0.4,2.9-1.7c-0.1-1.3-0.9-3.1-0.5-3.7c0.4-0.6,2.7-1.6,2.7-3.6
	c-0.1-2.1-0.8-5.1-0.4-5.4c0.4-0.2,2.1-4.5,3.3-5.7s1-4.3,0.5-5.4c-0.4-1.2-0.6-1.8-0.5-2.8c0.1-1-0.6-3.8-0.5-4.3
	c0.1-0.5,2.3-3.2,0.3-5c-2-1.8-2.1-1.4-3.9-2.6c-1.9-1.2-3.3-1.8-2.7-3.1s1-1.8,1.9-2.9s1-3,1-3s0.2-2.5-1.4-2.1
	c-1.6,0.3-2.1,1.2-2.5-0.5c-0.4-1.6-2.1-3.5-3.3-3s-2.1-0.7-2.9-0.1c-0.8,0.6-2.1,2.7-3.3,2.4c-1.1-0.2-1-1.3-0.7-2.2
	S75,21.3,73.9,22s-2.4,2.1-3.8,1.6s-2.1-3.3-3.2-1.7c-1.1,1.6-1.2,2.8-2.3,1.5c-1.1-1.3-0.6-3.2-1.3-3.5c-0.7-0.3-1.5,1.1-1.6,1.3
	s-0.7,1.1-1,1.4c-0.2,0.3-0.6-0.1-1.9-0.6s-3.2,0.2-3.2,0.2s0.1-1.7-0.4-2.9s-2.1-1.3-2.5-1s-0.1,2.1-0.8,2.8
	c-0.7,0.7,0.3,0.7-2.6,0.7s-4.1,0.3-5.5,0.4s-2.1,0.2-2.4-0.6s-2.3,0.1-2.3,1.8s1.4,4.3,0,4.3s-2.1-0.7-3.9-0.8s-3.5,0.2-3.5,1.3
	c0,1.1,0.4,1.6,0,3.2c-0.4,1.6-1.4,3.3,0.3,4.8c1.7,1.5,3.6,2.6,2,2.6c-1.6,0-3.6,1.1-4,2.4s0.4,2.6-2.5,2.1c-2.9-0.5-3.8-1.2-5.2,0
	c-1.4,1.2-2.1,0.9-2.9,1.2s-0.7,3.9-1,4.7c-0.4,0.8,0.3,8.6,1.3,10.5s5.8,5.9,5.6,8.6c-0.1,2.6,3.9,10.2,6.4,11.1s8.3,0.9,9.1,0.5
	c0.8-0.5,0.4,1.2,0.8,1.4s1.6,0.1,1.9-0.1c0.3-0.2,0.3-0.8,0.2-1.2C43.7,79.5,44.8,77.1,44.8,77.1z"></path><path class="st0" d="M16.2,45.2c-0.2,1.4-1,0.8-1.9,1s-2.4,0.6-2.1,2.6c0.3,2,0.3,3,0,4.4c-0.3,1.4-1,4.3-0.6,5.3
	c0.4,1,0.7,3,0.7,4.1c-0.1,1.1-1.4,1.1-0.8,3c0.6,1.9,1.9,2.4,2.3,2.6c0.4,0.2,3.2,1.3,1.7,2.5s-1.3,1.2-1.3,2.7s0.6,1.6,0.7,3.1
	c0.1,1.6-1.6,1.3,0,2.9s1.6,0.3,2.8,2.3c1.3,2,1.3,3,2.5,3.2s2.4,0.9,3.4,0c1-0.9,1.6-1.4,1.8-2.4c0.2-1,0.4-4.6,0.7-5.4
	c0.3-0.7,1.4-4.3,2.9-5.2c1.4-0.9,3.3-7.6,3.2-7.8c-0.1-0.2-2.9-11-4.5-12.2s-4.9-4-6-4.3S16.2,45.2,16.2,45.2z"></path><path class="st2" d="M30.9,68.9c-2.5,0-3.3,0.1-5.5-0.6s-3.2-0.5-4.2-0.8c-1-0.3-0.4-0.7-1.1,0c-0.7,0.7-1.3,0.6-1.9,0.9
	c-0.6,0.3-0.8,1.2-1,1.4c-0.1,0.2-0.9,0.7-0.4,1.3s0.7,2.1,1.2,2.6s0.9,1.1,1.9,1.6c1,0.6,1.9,0.4,1,1.3c-0.9,0.9-1.9,1.2-1.7,1.6
	c0.1,0.5-1.1,0.1,0.7,1.2c1.8,1.1,1.3,1.2,2.7,1.1c1.3-0.1,0.4,0.4,2.2,0c1.8-0.4,2.4-1.5,2.5,0.5s-0.4,3.5,0.1,3.9
	c0.6,0.4,1.1,0.6,2.1,0.4c1-0.2,2.7-1.6,2.7-0.4s-1.5,1.4-1.6,1.8c-0.1,0.4-0.1,2.2,0.1,2.6s1.1,2.6,1.4,2.5
	c0.3-0.1,0.1-2.4,1.1-2.6c1-0.2,2.5-1.1,2.8-1.2c0.3-0.2,1.1-2.2,1.1-2.2s-2.3-0.5-2.5-1.2c-0.2-0.7-1-1.7-0.5-2.6s0.4-2.1,1-2.1
	c0.6,0,1.9,0.2,2-0.4s-0.2-0.9,0-2.4c0.2-1.6-0.3-3,0-4.2c0.3-1.2,0.6-2.5,0.9-2.8c0.3-0.3,1.3-0.9-0.3-1.4
	c-1.6-0.5-2.3-0.3-3.2-0.2S30.9,68.9,30.9,68.9z"></path><path class="st6" d="M21.7,65.5c-0.1-1.6-0.1-1.2-1.9-2.7c-1.7-1.6-3.8-1.5-2.7-3s1.3-2.1,3.3-2.3s2.1,2.2,1.9-0.2
	c-0.1-2.4-1.9-3-2.4-4.3s0-2.1-0.4-3c-0.4-0.8-0.5-1.2,0.9,0c1.3,1.2,1.3,1.6,2.7,2.4s3.4,3,4.9,3.8s2.6,1,3.5,1.2
	c0.9,0.1,2.7,0.9,2.9,1.1c0.2,0.2,1.4,1.4,0.4,2s-3.3,0.6-4.8,0.7c-1.5,0.1-3.6,0-4.5,0.6s-1.5,0.9-2.1,1.7
	C22.8,64.2,21.7,65.5,21.7,65.5z"></path><path class="st7" d="M36.9,53.1c-0.5,1-3.5,0.9-3.9,1.8s-0.4,3-1.5,3.5c-1,0.5-1,1.9-2.7,2.7s-2.4,2.5-2.4,3.2
	c0,0.7-2.2-1.2-0.4,1.2c1.7,2.3,2.9,2.3,3.4,3.4c0.5,1.1,0.8,3,2.4,4.1s0.4,2.7,2,3.2s2.6,0.2,3-0.3c0.3-0.6,2.3-2.7,3.3-1.6
	c1,1.1,1.7,1.6,2,0.7c0.3-0.9,0.8-2.7,1.2-4.5s0.1-3.9,0.8-5.6c0.7-1.6,1.2-3.3-1.2-4.8s-2.3-1-3-2.6C39.3,55.8,36.9,53.1,36.9,53.1
	z"></path><path class="st8" d="M50,63.3c-1.6,1-2.6,1.4-4.1,1.4s-2.9-1.1-3.3-0.7c-0.4,0.3-0.2,2,0,3c0.2,1,0.9,1.9-0.3,3.1
	c-1.1,1.2-0.8,1-1.4,2.6c-0.6,1.6-1.4,2.7,0,2.5c1.4-0.2,2.2,0.6,3.2,0s1-2.5,2-1.5S46,76.4,46,76.4s-2.7,1.1-0.4,1.7
	c2.3,0.6,3.8-0.2,3.5,1.2c-0.3,1.4-0.8,2.8-0.4,3.1c0.4,0.2,0.1,0.8,1.8,0.4c1.6-0.4,1.9-0.7,2.6-0.4c0.7,0.3,1.4,0.3,1.8-0.4
	c0.4-0.7,0-2.6-0.7-4c-0.7-1.4-2-3.1-2.6-4.9c-0.6-1.8-0.5-2.3-0.1-3.5c0.4-1.2-0.1-3.3,1.3-1.2s2,2.3,2.1,3.5
	c0.1,1.2,0.3,1.5,1.6,1.6c1.3,0.1,2.5,0.3,3-1.1c0.5-1.4,0-3,0.8-3.2s2-0.3,2.7-0.7c0.7-0.4,0.5-1.7,1.6-2c1.1-0.2,1.6-2.4,1.6-3.3
	c0-0.9-0.1-2.8-1-3.4s-2.4-1.8-3.6-1.5c-1.1,0.2-2.9-0.5-3.6,0c-0.7,0.5-1.4,1.6-3.4,2.9S50,63.3,50,63.3z"></path><path class="st9" d="M56.2,68.7c0,0,1.6,2.6,1.7,3.3c0.1,0.7,0.4,2.1,0,3.1s-0.9,1.1-0.7,2.4s-0.7,2.6,0.4,2.6
	c1,0.1,2.2-0.3,2.8-1.4c0.6-1.1,2.1-2.5,2.7-0.8c0.6,1.6-0.1,1.8,0.6,2.2c0.7,0.4,1.2,1.1,2.7,1.2c1.6,0.2,2.3,0.2,2.5,1
	s-1,1.7,0,2.3c1,0.6,1.5,1.4,3,0.6c1.5-0.8,3-2.6,2.7-3.7c-0.3-1.2-2.9-0.6-2.7-1.7s-0.9-2.1,1.7-1.7c2.6,0.4,2.9,1.3,3.8,0.2
	s-1.7-2.3,0.4-3.5c2.1-1.2,5.2,1.5,3.5-1.3c-1.7-2.8-2.2-2.4-3.9-2.9s-3-1-2.7-1.9c0.2-0.9,0.1-2.3,1.6-2.9c1.4-0.6,4.6-0.3,1.9-2.7
	s-3.5-2.4-3.8-0.9c-0.3,1.5,0.7,2.7-1.6,2.6c-2.2-0.1-2.8-1-3.7,0c-1,1,0,2.7-2.6,1.9c-2.7-0.7-2.4-2-3.6-1c-1.3,1-1.8,3.9-3,3.6
	C58.4,69,56.2,68.7,56.2,68.7z"></path><path class="st0" d="M75.5,58.4c0.4-0.2,1.6-0.9,3.2-1.8s1.8-1.5,2.1-2.6s2.3-2.4,2.4-1s0,2.2,2,1.7c2-0.5,2.5-2,2.8-0.5
	c0.3,1.5-1.1-0.1,0-2.4s1.4-3.4,2.3-3.6c0.9-0.2,0.7,3.8,0.7,4.7s0.4,4.2,0.4,4.2s0.8,2.1-0.5,2.6c-1.3,0.5-3.8,2.1-3.3,3.5
	c0.4,1.4,0.1,1.5,0,3.5s-1.1,2.3-1.8,3.1s-1.7,2.5-1.8,3.2s1.3,2.1-0.5,2.4c-1.8,0.3-2.9-0.4-3.7-1.2s-2.3-0.9-3.4-2.8
	c-1.2-1.9-3.2-1.9-2.9-3.8c0.3-1.9,1.3-3.9,1.2-4.4c-0.1-0.5-1.5-3.1-1.2-4S75.5,58.4,75.5,58.4z"></path><path class="st0" d="M76.4,28.8c0.7,0.3,4.5-1.8,4.6,0c0.1,1.8-0.6,3-0.3,3.9c0.3,0.9,1.8,1.5,2.9,1.3s3.4,1.6,2.7,2.6
	s-1,2.6-0.4,3.4c0.6,0.8,1.7,2.3,1.5,4.6c-0.1,2.3-0.3,2.4-0.8,4.6s-0.1,1.5-1.7,3.1c-1.6,1.6-3.2,1.5-3.6,2.6
	c-0.4,1.1-2.5,1.3-2.7,0.9s-2.1-1.4-2.1-1.4s-2.1-2.7-2.1-4.6s3.1-6.5,1-9.1c-2.1-2.6-2.5-5.6-2.2-6.8c0.3-1.2,0.9-2.1,1.6-3
	S76.4,28.8,76.4,28.8z"></path><path class="st10" d="M71.4,35.5c0.8-0.5,2.6-1.1,2.1-2.7c-0.4-1.6-0.9-4.3-2.6-4s-1.7,0-2.7,0.8c-1,0.8-2.4,0-3-0.8
	s-0.5-2.7-2.3-1.9s-2.1-0.2-3.6-1.4s-4.8-3.1-5.8-1.8s-2.3,2.6-2.5,3.7c-0.2,1.2,0.7,2.1-1.1,2.8s-1.9,0.7-3.5,0.8
	c-1.6,0.1-0.6,1.9-2.6,2.2s-3.9-1.3-3.9,1.1s2.1,3.6,0.8,4.7c-1.3,1-1.9,0.6-1.3,2.5c0.5,1.8,0.4,2.9,2.4,2.5s2.3-0.8,4-3.5
	c1.7-2.7,1.2-3,3.2-3.3c2-0.2,1.2-2.7,3.2-2.1s3.1,0.6,4.6,1.6c1.5,1.1,5.3,0,5.8,0s3,1,3.6,1.4c0.6,0.4,0.9,1.3,2.1,0.9
	c1.2-0.5,1.6-0.1,2.2-0.8s-0.1-1.1,0.4-1.9C71.4,35.5,71.4,35.5,71.4,35.5z"></path><path class="st11" d="M37.2,44c-0.2-0.1-3.3-2-4.7-1c-1.4,1.1-3.8,0.1-4.9,0.3s-3.7,1.2-3.8,2.2c-0.1,1.1-0.5,1.9,1.6,2.3
	c2,0.4,2.9,2.1,2.6,3S25,54,27.6,54.1s3.8-0.5,4,0.7c0.1,1.2-1.7,1.4,1.1,1.2c2.7-0.2,4.5-0.7,5-1.9S39,52,40.1,52s2,0.1,1.7-1
	c-0.2-1.1,1-0.6-0.7-1.8c-1.6-1.2-2.7-1.2-2.8-2.8S37.2,44,37.2,44z"></path><path class="st0" d="M40.5,55.5c0,0,2.2-1,3.6,0.5c1.4,1.5,1.9,1.2,2.8,2c0.9,0.8,1.1,3.2,0.9,4.1c-0.2,1-1.9,2.6-1,3.1
	s4.3-1.1,4.7-1.3c0.4-0.2,0.3,0.4,1.8,0.3c1.5-0.1,5.6,0.2,5.7,1.5c0.1,1.4,0.1,2.2,1.2,0.6c1-1.6,0.8-3.9,1.3-4.2
	c0.5-0.3,2.5-1.9,3.1-1c0.6,0.9,1.1,2,2.7-0.8s1.5-6.2,1.7-6.8c0.1-0.6-1.8-3.5,1.2-3.5c3,0.1,3.9-0.2,5.6-0.9
	c1.7-0.8,4.2-2.2,4.4-3.4c0.2-1.2,0.2-3.6-2.7-3.1s-4.4,0-4.4,0s0.3-1.8,1.5-3.1c1.2-1.3,1.9-2,1.1-3.3c-0.8-1.3-2.1-0.2-3,0.8
	s-2.4,3.6-3.2,1.9c-0.7-1.7,0.4-3.8-2.4-3.9c-2.7-0.2-2.4-1.5-4.1-2.2s-1.9-1.4-3.3,0c-1.5,1.4-2.6,1.4-3.5,0.8
	c-0.9-0.6-3.2-1.6-4.2-0.8s-3.4,0.8-4.1,2c-0.7,1.2-0.4,0.7-0.7,2.3c-0.3,1.6-1.6,2.2-1.3,3.3s-0.2,2.8-2.2,3.6
	c-2,0.8-1.9-0.6-4.3,1.3s-4.2,1.2-2.6,2.6c1.6,1.5,3.2,0.4,4.6,0.5c1.4,0.1,2.7,0.5,2.4,1.8c-0.4,1.2-2,3.1-2.8,3.5
	C40,53.9,40.5,55.5,40.5,55.5z"></path><path class="st12" d="M56.2,38.1c0-0.7-0.3-3.8-1.1-4s-2.1-0.7-2.8,0.9c-0.7,1.6-0.2,4-1.6,4.6c-1.3,0.6-2.7-1.2-3,1.1
	c-0.2,2.2-1.8,1.9-2.9,2.6c-1.2,0.7-2.5-1.6-2,1c0.5,2.6,0,3.7,1.4,4.2c1.4,0.5,2.9,2.3,2.4,3.4s-2.6,0.4-2.2,2.3s0.4,3.3,2.3,3.3
	c1.9,0,1.3-1.2,3.6,0.6c2.4,1.8,3.5,3.7,4.4,3.3s2.3-1.2,3.1-1.6s2.3,0.1,3.1-0.6c0.8-0.6,4.3-0.5,4.5-1.7c0.2-1.3-1.3-3.7-1-4.7
	c0.3-1,0.3-3.4,1.4-4.2c1.1-0.9,0.4-1.5,3-0.8s3.3-0.1,3.3-1.1s-2.1-3.2-1.3-3.9c0.7-0.7,5-1.8,2.1-2.5s-3.1,0.6-4.1,1.2
	c-1,0.6-2.1,1.4-2.6,0s-2.4-2.1-2.7-3.1c-0.3-1,0.4-3.9-1.8-4.7c-2.2-0.8-2.5-0.5-2.9,0.6s-0.1,3-0.8,2.9
	C57.6,37,56.2,38.1,56.2,38.1z"></path><path class="st0" d="M62.7,41.4c-0.9-0.1-2.9,1.6-3.7,0s-1.7-2.9-2.8-1.9c-1.1,0.9-0.7,2.5-2.1,1.9s-1.8-1.8-2.7,0
	c-0.9,1.8-0.4,3.2-1.6,2.5c-1.2-0.7-1.7-1.3-2.7-1.2c-0.9,0.1-1.6,2.4-0.7,3.5s0.6,3.2,0.4,4s0.2,1.2,1.6,1.5
	c1.3,0.2,3.1,0.7,3.3,2.7c0.2,2-0.5,2.5,1.5,2.2c1.9-0.3,2.8-1.1,3.3,0.1c0.5,1.2,0.6,2.2,2.8,1.3c2.2-0.9,2.4-0.3,3.3-2
	s0.7-2.6,1.9-3.4c1.2-0.7,1.7-1.9,1.3-3.4c-0.4-1.5,1-2.8,1.3-3.4s-0.4-2.3-1.2-2.6C65.1,42.8,62.7,41.4,62.7,41.4z"></path><path class="st13" d="M54.7,43.3c0.4-0.2,1.7-2.1,2.3-1.9s0.1,1.3,1.2,1.9c1.1,0.7,0.6,0.1,1.7,0c1.1-0.1,2.9,0.6,2.7,1.3
	c-0.2,0.7-1.2,1.1,0,1.5s2.1,1.6,1.5,2.3c-0.5,0.7-1.2-0.2-0.9,1.8c0.3,2-0.5,0.7-0.9,3c-0.4,2.2,0.4,3.2-1.6,2.2s-2.9-0.1-3.3,0.4
	s0,2.4-2.1,1.6c-2.2-0.8-1.9-1.8-2.2-3c-0.3-1.2,0.6-2.3-0.4-3.3s-3-0.8-3-1.9c-0.1-1,0.4-2.8,1.3-3.2s2.6-1,2.1-2.1
	c-0.4-1-0.5-1.3,0-1.3C53.7,42.7,54.7,43.3,54.7,43.3z"></path><path class="st14" d="M56.2,49.6c0.7,1.1,0.4,2.4,1.7,2.5s1.3-1,1.6-1.3c0.3-0.3,2.1,0.4,2.1-0.7s0-2.6-1-2.9
	c-1-0.3-1.3-2.1-1.7-1.7c-0.3,0.4,0,2.4-0.7,2.6c-0.6,0.2-1.1-0.1-1.2-0.9c-0.1-0.8,1.3-0.7,0.3-2s-1.6-1.2-2.3-0.7
	c-0.7,0.4-2.3,0.2-1.9,0.7c0.4,0.5,0.3,0.3,1.1,0.7c0.8,0.3,1.5,1.1,1.5,1.4C55.8,47.4,56.2,49.6,56.2,49.6z"></path><path class="st15" d="M53.1,48.2c0,0,0.7-0.9,1.2,1.4s0.3,3.5,0,3.9c-0.3,0.3,0-1.3-0.5-2.2s-1.4-1.6-1.8-1.9
	c-0.4-0.2-0.6-0.8-0.4-1.3c0.2-0.6,0.7-0.8,0.7-0.8L53.1,48.2z"></path><path class="st14" d="M83.1,40.6c0.3,0.2,2.7,1.6,1.9,3.3s-1.8,2.7-2.3,2.8s-1.2-0.3-1.3-1.9S81,42.4,81,42c0.1-0.3,1.2-1.4,1.2-1.4
	H83.1z"></path><path class="st0" d="M80.2,35.6c0,0.8-0.9,2.8,0.8,2.6c1.7-0.2,2.6,0.2,2.4-1.3s0.3-1.7-0.8-1.6S80.2,35.6,80.2,35.6z"></path><path class="st16" d="M79.4,60.7c1-0.3,3.8-1.1,4.8-2.3c1-1.2,2-1.2,3.2-1.1c1.2,0.1,2.4-0.6,2.2,0.2s-1.1,2.1-2.5,3.6
	c-1.4,1.5-3.2,2.2-4.5,2.3c-1.3,0.2-1.9,0.7-2.3-0.7C79.9,61.5,79.4,60.7,79.4,60.7z"></path></g></svg>