<?xml version="1.0" encoding="utf-8"?>
<!-- Generator: Adobe Illustrator 23.1.1, SVG Export Plug-In . SVG Version: 6.00 Build 0)  -->
<svg version="1.1" id="Layer_1" xmlns="http://www.w3.org/2000/svg" xmlns:xlink="http://www.w3.org/1999/xlink" x="0px" y="0px"
	 viewBox="0 0 108 108" style="enable-background:new 0 0 108 108;" xml:space="preserve">
<style type="text/css">
	.st0{fill:#93AA3C;}
	.st1{fill:#A8BC38;}
	.st2{fill:#6E8639;}
	.st3{fill:#EDD588;}
	.st4{fill:#C59A60;}
</style>
<g>
	<g>
		<g>
			<path class="st0" d="M26.66,36.77c0.41,0.34,2.2,2.46,3.63,4.51c1.43,2.05,2.87,6.22,2.93,6.83c0.07,0.61,1.5,2.87,1.84,3.62
				c0.34,0.75,0.89,1.3,0.89,1.3s1.09-2.87,1.3-3.07c0.2-0.2,0.48-0.89,0-1.84s-3.48-5.47-3.76-6.56s-0.61-2.53-2.46-3.48
				s-2.05-1.23-2.46-1.3C28.16,36.7,26.66,36.77,26.66,36.77z"/>
			<path class="st1" d="M36.64,48.73c0,0-0.27-2.66,0-5.47c0.27-2.8,0.96-6.76-1.37-9.16s-3.28-5.06-4.1-6.01
				c-0.82-0.96-2.66-2.46-3.07-2.66c-0.41-0.2-0.82-0.89-0.82-0.89s0.75-0.07,2.12,0.82s4.17,3.76,5.81,5.06
				c1.64,1.3,4.71,7.79,4.92,8.27c0.2,0.48,1.09,2.66,0.68,3.83c-0.41,1.16-0.82,3.21-1.16,4.03s-1.09,1.16-1.23,2.19
				c-0.14,1.02,0.48,1.79-0.48,1.78c-0.96-0.02-2.05-0.48-2.05-0.48L36.64,48.73z"/>
			<path class="st2" d="M38.41,28.71c-0.07,0.27-0.07,3.43-0.41,4.3s0.2,5.81,0,6.76s0.02,5.74,0.15,6.08s0.28,2.33,0.26,2.87
				c-0.01,0.54,1.84-0.96,1.84-0.96s1.02-1.23,1.09-2.05s-0.78-1.89-0.89-4.17c-0.11-2.27-0.34-5.94-0.41-6.29
				c-0.07-0.34-0.25-1.91-0.43-2.53C39.44,32.12,38.41,28.71,38.41,28.71z"/>
			<path class="st2" d="M43.2,35.34c0.07-0.27,0.82-2.53,1.09-2.94c0.27-0.41,0.14-0.27,0.75,0c0.61,0.27,0.96,1.31,1.3,1.34
				c0.34,0.03,0.68-0.31,0.75,0.44c0.07,0.75,0.41-0.34,0,1.57s-2.12,6.15-2.46,6.56c-0.34,0.41-1.5,3.21-2.05,3.69
				c-0.55,0.48-2.37,4.58-2.96,5.26c-0.59,0.68-1.07,3.07-1,3.62c0.07,0.55,0.06,2.73-0.01,3.01s-0.49,0.41-1.09,0.55
				c-0.61,0.14-1.63,1.37-1.84,0c-0.2-1.37-0.41-2.87-0.48-3.69c-0.07-0.82,0.14-1.91,0-2.46c-0.14-0.55,2.56-3.48,3.74-4.71
				c1.18-1.23,3.23-2.6,3.5-3.08s1.23-1.78,1.23-1.98c0-0.2,0.82-3.35,0.61-4.37c-0.2-1.02-0.27-1.5-0.41-1.91
				C43.74,35.81,43.2,35.34,43.2,35.34z"/>
			<path class="st0" d="M43.13,28.71c0,0,0.68,6.42,0.89,6.9c0.2,0.48,0.31,5.81-0.34,6.9c-0.65,1.09-2.32,3.21-2.32,3.21
				s0.18-1.37-0.11-1.5c-0.3-0.13,0.66-7.11,0.59-8.4S42.17,29.46,43.13,28.71z"/>
			<path class="st1" d="M38.82,62.63c0.07-0.71-0.2-3.58,0-4.13c0.2-0.55-1.05-2.25-0.94-2.87c0.12-0.61-1.11,1.43-1.39,1.84
				c-0.27,0.41-0.75,1.98-0.82,2.39c-0.07,0.41-0.2,1.5,0,1.98c0.2,0.48,0,0.89,0.61,1.09c0.61,0.2,0.53,0.07,0.91,0
				C37.59,62.87,38.82,62.63,38.82,62.63z"/>
			<path class="st0" d="M34.72,59.8c0,0,1.02,1.43,1.37,1.84c0.34,0.41,0.62,1,0.51,1.39c-0.1,0.39-0.87,0.94-0.93,1.14
				s-0.95,0.68-0.95,0.68S34.38,60.14,34.72,59.8z"/>
			<path class="st3" d="M37.21,61.92c0,0-2.62,2.39-2.49,2.94c0.14,0.55-0.14,2.66-0.96,3.28c-0.82,0.61-4.99,2.66-5.67,3.35
				c-0.68,0.68-2.32,3.35-2.19,4.78c0.14,1.43,1.92,5.6,4.38,5.88s2.39,0.48,3.48,0.75c1.09,0.27,3.05,0.48,4.12,0.34
				c1.07-0.14,1.97-0.07,3.02-0.55c1.05-0.48,1.78-0.41,3.26-1.78c1.48-1.37,3.73-3.42,3.12-5.19c-0.61-1.78-1.91-3.62-3.41-4.65
				c-1.5-1.02-2.39-1.91-3.28-2.39c-0.89-0.48-0.73,0-0.98-1.02c-0.25-1.02-0.25-2.05-0.39-2.8s-0.36-1.39-0.39-1.81
				C38.82,62.63,37.21,61.92,37.21,61.92z"/>
			<path class="st4" d="M27.27,74.08c0.82,1.3,1.38,3.69,3.01,3.35c1.64-0.34,0.79-2.19,3.81-1.23s3.29,1.5,4.18,1.71
				c0.89,0.2,2.66,0.82,3.48,0.61c0.82-0.2,0.75,0.07,1.5-0.55c0.75-0.61,1.37-0.68,1.64-0.89c0.27-0.2,1.09-0.34,0.82,0.41
				c-0.27,0.75-0.2,2.53-1.98,3.01s-4.46,1.91-6.23,1.98c-1.77,0.07-3.96-0.41-5.43-0.89s-2.49-0.34-3.31-0.96
				c-0.82-0.61-2.06-1.89-2.25-2.35c-0.19-0.47-0.48-2.91,0.75-3.86"/>
		</g>
		<path class="st4" d="M33.69,70.41c0,0-1.79,1.91-2.63,3.27s-0.47,3.03-0.61,3.71c-0.14,0.68,0.41,2.03,0.61,2.59
			c0.2,0.56,0.96,1.32,1,1.08s-0.08-0.68-0.28-1.39c-0.2-0.72-1.16-2.03-0.76-3.15s0.24-1.67,0.64-2.43
			c0.4-0.76,0.96-1.55,1.32-1.99s0.32-0.52,0.72-0.84c0.4-0.32,0.88-1.39,0.88-1.39L33.69,70.41z"/>
		<path class="st4" d="M37,70.89c0.08,0.24,0.2,3.71,0,4.59c-0.2,0.87-0.26,3.38-0.35,4.14c-0.09,0.76-0.02,2.67-0.02,2.67
			s0.43,0.2,0.48-0.52c0.05-0.72-0.32-1.69,0-2.95c0.32-1.26,0.17-2.43,0.41-3.34c0.24-0.92,0.37-2.63,0.37-2.63L37,70.89z"/>
		<path class="st4" d="M40.22,70.61c0.68,0.4,3.15,3.35,3.35,3.79s0.94,2.1,0.93,2.88c-0.01,0.78,0.1,1.85-0.33,2.54
			c-0.43,0.68-2.25,1.06-2.82,1.54c-0.57,0.49-0.57-0.63,0.38-1.15c0.96-0.52,1.32-1.55,1.55-1.93s0.08-1.06,0.08-1.85
			c0-0.8-0.74-2.75-1.01-3.15c-0.27-0.4-1.58-1.47-1.7-1.67S40.22,70.61,40.22,70.61z"/>
	</g>
	<g>
		<g>
			<path class="st0" d="M65.17,26.09c-0.41,0.34-2.2,2.46-3.63,4.51s-2.87,6.22-2.93,6.83c-0.07,0.61-1.5,2.87-1.84,3.62
				c-0.34,0.75-0.89,1.3-0.89,1.3s-1.09-2.87-1.3-3.07s-0.48-0.89,0-1.84s3.48-5.47,3.76-6.56c0.27-1.09,0.61-2.53,2.46-3.48
				c1.84-0.96,2.05-1.23,2.46-1.3C63.67,26.02,65.17,26.09,65.17,26.09z"/>
			<path class="st1" d="M55.2,38.05c0,0,0.27-2.66,0-5.47c-0.27-2.8-0.96-6.76,1.37-9.16c2.32-2.39,3.28-5.06,4.1-6.01
				c0.82-0.96,2.66-2.46,3.07-2.66s0.82-0.89,0.82-0.89s-0.75-0.07-2.12,0.82c-1.37,0.89-4.17,3.76-5.81,5.06
				c-1.64,1.3-4.71,7.79-4.92,8.27s-1.09,2.66-0.68,3.83c0.41,1.16,0.82,3.21,1.16,4.03s1.09,1.16,1.23,2.19
				c0.14,1.02-0.48,1.79,0.48,1.78c0.96-0.02,2.05-0.48,2.05-0.48L55.2,38.05z"/>
			<path class="st2" d="M53.42,18.03c0.07,0.27,0.07,3.43,0.41,4.3s-0.2,5.81,0,6.76s-0.02,5.74-0.15,6.08
				c-0.13,0.34-0.28,2.33-0.26,2.87c0.01,0.54-1.84-0.96-1.84-0.96s-1.02-1.23-1.09-2.05c-0.07-0.82,0.78-1.89,0.89-4.17
				s0.34-5.94,0.41-6.29c0.07-0.34,0.25-1.91,0.43-2.53C52.39,21.44,53.42,18.03,53.42,18.03z"/>
			<path class="st2" d="M48.64,24.66c-0.07-0.27-0.82-2.53-1.09-2.94c-0.27-0.41-0.14-0.27-0.75,0c-0.61,0.27-0.96,1.31-1.3,1.34
				s-0.68-0.31-0.75,0.44c-0.07,0.75-0.41-0.34,0,1.57c0.41,1.91,2.12,6.15,2.46,6.56c0.34,0.41,1.5,3.21,2.05,3.69
				c0.55,0.48,2.37,4.58,2.96,5.26c0.59,0.68,1.07,3.07,1,3.62c-0.07,0.55-0.06,2.73,0.01,3.01c0.06,0.27,0.49,0.41,1.09,0.55
				c0.61,0.14,1.63,1.37,1.84,0c0.2-1.37,0.41-2.87,0.48-3.69c0.07-0.82-0.14-1.91,0-2.46c0.14-0.55-2.56-3.48-3.74-4.71
				c-1.18-1.23-3.23-2.6-3.5-3.08c-0.27-0.48-1.23-1.78-1.23-1.98c0-0.2-0.82-3.35-0.61-4.37s0.27-1.5,0.41-1.91
				C48.09,25.13,48.64,24.66,48.64,24.66z"/>
			<path class="st0" d="M48.7,18.03c0,0-0.68,6.42-0.89,6.9c-0.2,0.48-0.31,5.81,0.34,6.9s2.32,3.21,2.32,3.21s-0.18-1.37,0.11-1.5
				c0.3-0.13-0.66-7.11-0.59-8.4C50.07,23.84,49.66,18.78,48.7,18.03z"/>
			<path class="st1" d="M53.01,51.95c-0.07-0.71,0.2-3.58,0-4.13c-0.2-0.55,1.05-2.25,0.94-2.87c-0.12-0.61,1.11,1.43,1.39,1.84
				c0.27,0.41,0.75,1.98,0.82,2.39c0.07,0.41,0.2,1.5,0,1.98c-0.2,0.48,0,0.89-0.61,1.09c-0.61,0.2-0.53,0.07-0.91,0
				C54.24,52.19,53.01,51.95,53.01,51.95z"/>
			<path class="st0" d="M57.11,49.12c0,0-1.02,1.43-1.37,1.84c-0.34,0.41-0.62,1-0.51,1.39s0.87,0.94,0.93,1.14s0.95,0.68,0.95,0.68
				S57.45,49.46,57.11,49.12z"/>
			<path class="st3" d="M54.62,51.24c0,0,2.62,2.39,2.49,2.94c-0.14,0.55,0.14,2.66,0.96,3.28s4.99,2.66,5.67,3.35
				s2.32,3.35,2.19,4.78s-1.92,5.6-4.38,5.88c-2.46,0.27-2.39,0.48-3.48,0.75s-3.05,0.48-4.12,0.34c-1.07-0.14-1.97-0.07-3.02-0.55
				c-1.05-0.48-1.78-0.41-3.26-1.78c-1.48-1.37-3.73-3.42-3.12-5.19c0.61-1.78,1.91-3.62,3.41-4.65c1.5-1.02,2.39-1.91,3.28-2.39
				c0.89-0.48,0.73,0,0.98-1.02s0.25-2.05,0.39-2.8c0.14-0.75,0.36-1.39,0.39-1.81C53.01,51.95,54.62,51.24,54.62,51.24z"/>
			<path class="st4" d="M64.56,63.4c-0.82,1.3-1.38,3.69-3.01,3.35c-1.64-0.34-0.79-2.19-3.81-1.23c-3.02,0.96-3.29,1.5-4.18,1.71
				c-0.89,0.2-2.66,0.82-3.48,0.61c-0.82-0.2-0.75,0.07-1.5-0.55c-0.75-0.61-1.37-0.68-1.64-0.89c-0.27-0.2-1.09-0.34-0.82,0.41
				s0.2,2.53,1.98,3.01s4.46,1.91,6.23,1.98s3.96-0.41,5.43-0.89s2.49-0.34,3.31-0.96c0.82-0.61,2.06-1.89,2.25-2.35
				c0.19-0.47,0.48-2.91-0.75-3.86"/>
		</g>
		<path class="st4" d="M58.14,59.73c0,0,1.79,1.91,2.63,3.27c0.84,1.35,0.47,3.03,0.61,3.71c0.14,0.68-0.41,2.03-0.61,2.59
			c-0.2,0.56-0.96,1.32-1,1.08c-0.04-0.24,0.08-0.68,0.28-1.39c0.2-0.72,1.16-2.03,0.76-3.15c-0.4-1.12-0.24-1.67-0.64-2.43
			c-0.4-0.76-0.96-1.55-1.32-1.99s-0.32-0.52-0.72-0.84c-0.4-0.32-0.88-1.39-0.88-1.39L58.14,59.73z"/>
		<path class="st4" d="M54.83,60.21c-0.08,0.24-0.2,3.71,0,4.59c0.2,0.87,0.26,3.38,0.35,4.14c0.09,0.76,0.02,2.67,0.02,2.67
			s-0.43,0.2-0.48-0.52s0.32-1.69,0-2.95c-0.32-1.26-0.17-2.43-0.41-3.34c-0.24-0.92-0.37-2.63-0.37-2.63L54.83,60.21z"/>
		<path class="st4" d="M51.61,59.93c-0.68,0.4-3.15,3.35-3.35,3.79c-0.2,0.44-0.94,2.1-0.93,2.88c0.01,0.78-0.1,1.85,0.33,2.54
			c0.43,0.68,2.25,1.06,2.82,1.54s0.57-0.63-0.38-1.15c-0.96-0.52-1.32-1.55-1.55-1.93c-0.24-0.38-0.08-1.06-0.08-1.85
			c0-0.8,0.74-2.75,1.01-3.15c0.27-0.4,1.58-1.47,1.7-1.67C51.29,60.73,51.61,59.93,51.61,59.93z"/>
	</g>
	<g>
		<g>
			<path class="st0" d="M62.2,47.24c0.4,0.29,2.16,2.06,3.58,3.77s2.83,5.2,2.89,5.71s1.48,2.4,1.82,3.03
				c0.34,0.63,0.88,1.09,0.88,1.09s1.08-2.4,1.28-2.57c0.2-0.17,0.47-0.74,0-1.54c-0.47-0.8-3.44-4.57-3.71-5.48
				s-0.61-2.11-2.43-2.91c-1.82-0.8-2.02-1.03-2.43-1.09S62.2,47.24,62.2,47.24z"/>
			<path class="st1" d="M72.04,57.24c0,0-0.27-2.23,0-4.57c0.27-2.34,0.94-5.66-1.35-7.65c-2.29-2-3.23-4.23-4.04-5.03
				s-0.61-2.8-1.02-2.97c-0.4-0.17-0.81-0.74-0.81-0.74s0.74-0.06,2.09,0.69c1.35,0.74,2.1,3.89,3.71,4.97
				c1.62,1.09,4.65,6.51,4.85,6.91c0.2,0.4,1.08,2.23,0.67,3.2c-0.4,0.97-0.81,2.68-1.15,3.37c-0.34,0.69-1.08,0.97-1.21,1.83
				s0.47,1.5-0.47,1.49s-2.02-0.4-2.02-0.4L72.04,57.24z"/>
			<path class="st2" d="M73.79,40.5c-0.07,0.23-0.07,2.87-0.4,3.6c-0.34,0.73,0.2,4.86,0,5.66c-0.2,0.8,0.02,4.8,0.15,5.08
				s0.27,1.95,0.26,2.4s1.82-0.8,1.82-0.8s1.01-1.03,1.08-1.71c0.07-0.69-0.77-1.58-0.88-3.48c-0.1-1.9-0.34-4.97-0.4-5.26
				s-0.24-1.6-0.43-2.11S73.79,40.5,73.79,40.5z"/>
			<path class="st2" d="M78.51,46.04c0.07-0.23,0.81-2.11,1.08-2.46c0.27-0.34,0.13-0.23,0.74,0s0.94,1.1,1.28,1.12
				s0.67-0.26,0.74,0.37s0.4-0.29,0,1.31c-0.4,1.6-2.09,5.14-2.43,5.48s-1.48,2.68-2.02,3.08c-0.54,0.4-2.33,3.83-2.92,4.4
				s-1.06,2.57-0.99,3.03c0.07,0.46,0.05,2.28-0.01,2.51c-0.06,0.23-0.48,0.34-1.08,0.46c-0.6,0.11-1.61,1.14-1.81,0
				s-0.4-2.4-0.47-3.08s0.13-1.6,0-2.06c-0.13-0.46,2.52-2.91,3.69-3.94s3.18-2.17,3.45-2.57s1.21-1.49,1.21-1.66
				c0-0.17,0.81-2.8,0.61-3.66c-0.2-0.86-0.27-1.26-0.4-1.6S78.51,46.04,78.51,46.04z"/>
			<path class="st0" d="M78.44,40.5c0,0,0.67,5.37,0.88,5.77s0.3,4.86-0.34,5.77c-0.64,0.91-2.29,2.68-2.29,2.68
				s0.18-1.15-0.11-1.26s0.65-5.94,0.58-7.03C77.09,45.36,77.5,41.13,78.44,40.5z"/>
			<path class="st1" d="M74.2,68.86c0.07-0.6-0.2-3,0-3.45c0.2-0.46-1.04-1.89-0.92-2.4c0.11-0.51-1.1,1.2-1.37,1.54
				c-0.27,0.34-0.74,1.66-0.81,2c-0.07,0.34-0.2,1.26,0,1.66c0.2,0.4,0,0.74,0.61,0.91s0.52,0.06,0.9,0S74.2,68.86,74.2,68.86z"/>
			<path class="st0" d="M70.15,66.49c0,0,1.01,1.2,1.35,1.54c0.34,0.34,0.61,0.83,0.51,1.16c-0.1,0.33-0.85,0.78-0.92,0.95
				c-0.06,0.17-0.94,0.57-0.94,0.57S69.82,66.78,70.15,66.49z"/>
			<path class="st3" d="M72.61,68.26c0,0-2.59,2-2.45,2.46c0.13,0.46-0.13,2.23-0.94,2.74s-4.92,2.23-5.59,2.8s-2.34,4.24-2.2,5.44
				c0.13,1.2,1.9,4.68,4.32,4.91c2.42,0.23,2.35,0.4,3.43,0.63c1.08,0.23,3.01,0.4,4.06,0.29s1.94-0.06,2.98-0.46
				s1.75-0.34,3.22-1.49s3.67-2.86,3.07-4.34c-0.6-1.49-1.83-4.47-3.31-5.32c-1.48-0.86-2.36-1.6-3.23-2s-0.72,0-0.96-0.86
				c-0.25-0.86-0.25-1.71-0.38-2.34s-0.36-1.16-0.38-1.51S72.61,68.26,72.61,68.26z"/>
			<path class="st4" d="M62.81,78.43c0.81,1.09,1.31,4.52,2.92,4.24c1.61-0.29,0.77-1.83,3.75-1.03c2.98,0.8,3.25,1.26,4.12,1.43
				c0.88,0.17,2.63,0.69,3.44,0.51c0.81-0.17,0.74,0.06,1.48-0.46c0.74-0.51,1.35-0.57,1.62-0.74c0.27-0.17,1.08-0.29,0.81,0.34
				s-0.2,2.11-1.95,2.51c-1.75,0.4-4.39,1.6-6.14,1.66s-3.91-0.34-5.35-0.74c-1.44-0.4-2.46-0.29-3.26-0.8
				c-0.81-0.51-2.03-1.58-2.22-1.97s-0.42-3.87,0.79-4.67"/>
		</g>
		<path class="st4" d="M69.14,75.37c0,0-1.77,1.6-2.59,2.73s-0.51,3.97-0.65,4.54c-0.14,0.57,0.41,1.7,0.6,2.17
			c0.2,0.47,0.94,1.1,0.98,0.9c0.04-0.2-0.08-0.57-0.28-1.17c-0.2-0.6-1.14-1.7-0.75-2.63c0.39-0.93,0.28-2.84,0.68-3.47
			s0.94-1.3,1.3-1.67s0.31-0.43,0.71-0.7s0.87-1.17,0.87-1.17L69.14,75.37z"/>
		<path class="st4" d="M72.4,75.77c0.08,0.2,0.15,4.54-0.05,5.27c-0.2,0.73-0.26,2.83-0.35,3.46s-0.02,2.23-0.02,2.23
			s0.42,0.17,0.47-0.43c0.05-0.6-0.32-1.41,0-2.47c0.32-1.05,0.17-2.03,0.4-2.8s0.41-3.64,0.41-3.64L72.4,75.77z"/>
		<path class="st4" d="M75.58,75.53c0.67,0.33,3.1,2.8,3.3,3.16c0.2,0.37,0.88,3.19,0.87,3.85c-0.01,0.66,0.1,1.55-0.33,2.12
			s-2.21,0.88-2.78,1.29s-0.56-0.53,0.38-0.96c0.94-0.43,1.3-1.3,1.53-1.61c0.24-0.32,0.08-0.88,0.08-1.55
			c0-0.67-0.68-3.74-0.95-4.07c-0.26-0.33-1.56-1.23-1.68-1.4S75.58,75.53,75.58,75.53z"/>
	</g>
</g>
</svg>
