<?xml version="1.0" encoding="utf-8"?>
<!-- Generator: Adobe Illustrator 23.1.1, SVG Export Plug-In . SVG Version: 6.00 Build 0)  -->
<svg version="1.1" id="Layer_1" xmlns="http://www.w3.org/2000/svg" xmlns:xlink="http://www.w3.org/1999/xlink" x="0px" y="0px"
	 viewBox="0 0 108 108" style="enable-background:new 0 0 108 108;" xml:space="preserve">
<style type="text/css">
	.st0{fill:#BDC768;}
	.st1{fill:#6A9940;}
	.st2{fill:#94BB5B;}
	.st3{fill:#739E3F;}
	.st4{fill:#A8BC38;}
	.st5{fill:#8DAF40;}
	.st6{fill:#ABC379;}
	.st7{fill:none;}
	.st8{fill:#C7C12E;}
	.st9{fill:#A19834;}
	.st10{fill:none;stroke:#231F20;stroke-width:0.1774;stroke-miterlimit:10;}
	.st11{fill:#ABA635;}
	.st12{fill:#E4E0A4;}
	.st13{fill:#628657;}
	.st14{fill:none;stroke:#231F20;stroke-width:0.1452;stroke-miterlimit:10;}
</style>
<g>
	<g>
		<path class="st0" d="M50.46,48.21c-0.68,0.26-1.24,0.15-1.75-0.04l-1.55-0.6c-1.03-0.39-2.05-0.83-3.07-1.25
			c-2.03-0.89-4.05-1.8-5.98-2.97l0.4-0.86c2.09,0.65,4.19,1.33,6.27,2.05c1.04,0.37,2.08,0.72,3.11,1.11l1.55,0.56
			c0.52,0.19,1,0.47,1.35,1.11L50.46,48.21z"/>
	</g>
	<g>
		<g>
			<path class="st0" d="M67.64,41.34c-0.11,1.27-0.53,2.34-0.91,3.42c-0.41,1.06-0.84,2.1-1.26,3.13c-0.87,2.05-1.7,4.1-2.36,6.18
				c-0.65,2.08-1.2,4.19-1.42,6.33c-0.09,0.53-0.08,1.07-0.12,1.6l-0.04,0.8l0.03,0.8c0.03,0.53,0,1.07,0.09,1.59l0.1,0.79
				c0.02,0.27,0.13,0.51-0.16,0.83l-1.67,0.27c-0.36-0.24-0.31-0.54-0.35-0.83l-0.09-0.88c-0.08-0.58-0.04-1.17-0.06-1.75
				l-0.01-0.88l0.07-0.87c0.06-0.58,0.06-1.16,0.17-1.73c0.3-2.3,0.91-4.54,1.68-6.68c0.77-2.15,1.71-4.21,2.66-6.24
				c0.93-2.01,2.06-4.03,2.41-6L67.64,41.34z"/>
		</g>
		<g>
			<path class="st0" d="M39.52,59.27c2.52-3.66,5.1-7.41,8.66-10.36c1.77-1.46,3.85-2.67,6.18-3.23c2.32-0.59,4.81-0.35,7.03,0.39
				l0.85,0.26l0.8,0.36c0.53,0.25,1.07,0.48,1.58,0.74c0.98,0.55,1.98,1.09,2.93,1.69c1.93,1.16,3.8,2.46,5.6,3.77
				c1.81,1.3,3.52,2.53,5.48,2.98c1.95,0.51,4.12,0.46,6.28,0.32l0.15,2.28c-2.27,0.1-4.62,0.14-6.99-0.52
				c-1.17-0.31-2.31-0.83-3.31-1.46c-1.01-0.61-1.92-1.3-2.81-1.97c-1.78-1.34-3.54-2.62-5.4-3.79c-0.92-0.6-1.87-1.14-2.82-1.69
				c-0.47-0.26-0.95-0.47-1.43-0.7L61.58,48l-0.75-0.24c-1.97-0.7-4.09-0.94-6.11-0.47c-2.03,0.44-3.92,1.48-5.6,2.81
				c-3.38,2.69-6,6.3-8.58,9.9L39.52,59.27z"/>
		</g>
	</g>
	<path class="st1" d="M68.37,45.7c0.53-0.86,0.64-1.47,1.67-1.58C71.06,44,71.54,44,71.54,44l-0.51-0.83c0,0,0.77-0.03,1.53-0.48
		c0.76-0.45,1.37-1.16,1.37-1.16s-0.22-0.23-0.46-0.37c-0.25-0.13-0.53-0.1-0.53-0.1s1.04-0.48,1.43-1.09
		c0.39-0.6,0.62-1.25,0.78-1.76c0.16-0.5,0.13-1.25,0.08-1.38c-0.05-0.13-0.06,0.05-0.46-0.1c-0.39-0.15-0.4-0.3-0.83-0.16
		s-0.8,0.01-1.16,0.37s-1.05,0.67-1.05,0.67s-0.45-0.28,0.18-0.87c0.63-0.59,1.27-0.79,1.91-1.09c0.64-0.29,1.05-0.42,1.23-1.23
		c0.17-0.81,0.09-1.23,0.13-1.61c0.04-0.38-0.06-0.28-0.28-0.27S74.15,32.7,74,32.81c-0.15,0.11-0.52,0.29-0.73,0.56
		s-0.81,0.56-0.81,0.56s0.49-0.79,0.92-1.44c0.43-0.65,0.43-1.19,0.42-1.28c-0.02-0.08-0.42-0.14-0.94-0.09
		c-0.52,0.05-0.41-0.56-1.04,0s-1.01,0.26-1.37,0.67s0.23-0.55,0.52-1.61c0.29-1.06,0.24-1.65,0.14-1.91
		c-0.1-0.27-0.28-0.42-0.29-0.33c-0.01,0.09-1.08,0.4-1.3,0.75s-0.47,0.66-0.47,0.66s0.38-0.85,0.69-1.61
		c0.31-0.76,0.44-0.71,0.17-1.29c-0.26-0.58-0.58-0.48-0.76-0.97c-0.17-0.49-0.97-0.21-1.5,0.26c-0.53,0.48-0.95,1.06-0.9,1.89
		c0.05,0.83,0.07,0.79,0.18,1.24c0.12,0.45,0.12,0.84,0.12,0.96s-0.67-0.78-0.79-1.26c-0.12-0.47-0.16-0.64-0.06-1.61
		s0.07-1.53-0.05-2.01c-0.12-0.47-0.18-0.97-0.5-1.38c-0.33-0.41-0.56-0.85-0.83-0.13c-0.27,0.72-0.41,1.19-0.39,1.51
		s-0.17,0.72-0.23,0.41c-0.06-0.31-0.09-0.55-0.42-0.65c-0.34-0.1-0.49,0.1-0.62-0.17c-0.13-0.26-0.44,0.08-0.44,0.08
		s0.1,0.12-0.01,0.64c-0.11,0.52-0.46,1.32-0.83,1.53c-0.37,0.21-0.6,0.03-0.28,0.87c0.32,0.84,0.44,0.98,0.44,0.98
		s1.13,0.4,1.76,0.77c0.64,0.37,1.1,0.77,1.24,1.2s0.22,1.07,0.35,1.01c0.13-0.05-0.2,0.69-0.77,0.02
		c-0.57-0.66-0.72-0.77-1.22-1.09c-0.5-0.32-1.07-0.11-1.64,0.04s-0.88,0.19-1,0.23c-0.11,0.04,0.44,0.83,0.44,0.83
		s-1.28,0.02-1.55,0.28c-0.26,0.26-0.65,0.87-0.78,1.42c-0.13,0.55-0.23,0.77-0.14,1.22c0.09,0.45,0.19,0.69,0.74,1.09
		c0.54,0.4,0.9,0.47,1.03,0.88c0.13,0.41,0.2,0.6,0.61,0.59c0.41-0.01,1.48,0.01,2-0.18s1.43-0.85,1.77-1.07
		c0.34-0.23,1.24-0.48,1.61-0.3c0.38,0.18,1.43,1.39,1.65,1.98s0.09,1.51-0.87,0.4s-1.22-0.64-1.55-0.81
		c-0.33-0.17-1.83,0.22-2.39,0.55c-0.56,0.33-1.61,0.57-1.92,1.06s-0.78,0.58-0.9,1.19c-0.12,0.61,0.03,1.8,0.19,2.44
		c0.16,0.64,0.57,0.78,0.62,1.73c0.05,0.95-0.18,1.62,0.25,1.55c0.42-0.07,0.63-0.47,1.13-1.11c0.5-0.64,0.42-1.04,1.19-1.31
		c0.77-0.27,1.45-0.13,1.11-0.02c-0.34,0.11-0.85,0.69-1.22,1.26c-0.37,0.57-0.4,0.16-0.73,1.2c-0.32,1.04-0.46,1.05-0.21,1.36
		c0.26,0.31,0.32,0.47,0.47,0.64s0.3-0.31,0.71-0.59c0.4-0.28,0.71-0.56,0.85-0.93c0.14-0.38,0.32-0.43,0.32-0.43
		s-0.16,0.26,0.22,0.35c0.38,0.09,0.34,0.25,1.07-0.01c0.72-0.26,1-0.47,1.21-0.62c0.21-0.16,0.35-0.17,0.42-0.19
		C68.18,45.24,68.37,45.7,68.37,45.7z"/>
	<path class="st1" d="M59.45,46.05c0.55-0.41,0.8-0.22,1.23-0.15c0.43,0.08,0.62,0.56,0.96-0.06c0.33-0.62,0.51-0.37,0.31-1.21
		c-0.2-0.84-0.13-1.24-0.58-1.39c-0.44-0.15,0.18,0.76-0.6-0.19c-0.78-0.96-0.42-1.22-0.9-1.07c-0.48,0.15-0.58,0.37-0.77,0.52
		s-0.02,1.33-0.36,0.14c-0.34-1.19,0.19-1.09-0.51-1.53c-0.7-0.44-0.51-0.26-1.03-0.64c-0.52-0.38-0.6-0.05-0.89-0.56
		c-0.3-0.51-0.22-0.5-0.42-0.74c-0.2-0.24-0.33-0.29-0.33-0.29s3.38,6.14,3.45,6.27c0.07,0.13,0.12,0.11,0.1,0.36
		c-0.02,0.25-0.06,0.41-0.07,0.5C59.05,46.09,59.45,46.05,59.45,46.05z"/>
	<path class="st2" d="M67.91,49.64c0,0,2.46-0.59,2.58-0.82c0.12-0.23,0.22-1.61,0.52-2.37c0.3-0.76,1.04-1.66,1.46-2.67
		c0.42-1.01,0.66-1.27,0.74-1.35c0.08-0.09,0.18-0.18,0.22,0.11c0.04,0.29-0.03,0.53,0.12,0.57c0.15,0.04,0.17,0.37,0.3-0.4
		c0.13-0.77,0.41-1.21,0.61-1.28s0.94-0.39,1.05-0.33c0.11,0.06,0.21,0.69,0.23,1.13c0.02,0.45,0.14,0.86,0.22,0.77
		s0.22-0.76,0.72-0.89c0.51-0.13,0.69-0.43,0.91-0.29c0.22,0.14,0.03,0.71,0.01,1.11s-0.15,0.58-0.15,0.58s0.67-0.54,0.96-0.54
		c0.29,0,0.42,0.05,0.78,0.24c0.35,0.19,0.84,0.43,0.84,0.43s0.11,0.18,0.11,0.54c0,0.36,0.17,0.49,0.03,0.84
		c-0.15,0.35-0.12-0.02-0.31,0.64c-0.18,0.66,0.05,0.71-0.17,1.17s0.02,0.33-0.26,0.75c-0.28,0.42-0.11,0.55-0.61,0.59
		s-0.78,0-0.78,0s-0.23-0.08,0.02,0.47c0.26,0.55,0.05,0.71-0.01,0.79c-0.06,0.08,1.04-0.12-0.13,0.43
		c-1.17,0.55-1.62,1.24-2.18,0.87c-0.56-0.37-0.95-0.84-0.95-0.84s-0.19,0.75-0.43,0.98s-1.01,0.62-1.33,0.24s-0.76-0.09-1.13-0.19
		s-0.73-0.31-0.86-0.72c-0.13-0.41-0.19-0.91-0.32-0.86c-0.14,0.04-2.63,0.9-2.7,0.95c-0.06,0.05-0.89,0.16-0.89,0.16L67.91,49.64z"
		/>
	<path class="st1" d="M50.62,47.76c0.43-0.02,1.09,0.92,1.57-0.29c0.48-1.21,0.34-1.07,0.21-2.66c-0.13-1.59-0.33-2.76-0.29-2.95
		c0.03-0.19,0.1-0.7-0.69-0.51s-1.66,0.77-1.99,1.42c-0.33,0.65-0.46,1.17-0.57,1.14c-0.1-0.03-0.62-0.44,0.08-1.99
		c0.7-1.55,1.03-1.65,0.74-2.68c-0.29-1.02-0.57-1.78-0.68-2.32c-0.11-0.54,0.52-0.89-0.43-0.22c-0.96,0.67-0.7,1.58-1.45,1.09
		s-0.68-0.72-0.91-0.54c-0.23,0.18-2.16,2.15-2.28,3.06c-0.13,0.92-0.01,1.51-0.4,1.6c-0.39,0.09-1.26,0.04-1.26,0.04
		s0.35,1.94,1.01,2.67c0.66,0.73,1.79,2.78,2.83,2.87s3.11,0.61,3.45,0.72s0.85,0.24,0.87,0.09C50.43,48.15,50.62,47.76,50.62,47.76
		z"/>
	<path class="st3" d="M52.8,47.42c-0.18,0.3-0.55,0.5-0.18,0.82s0.42,0.11,0.85,0.3c0.43,0.19,0.89,0.05,1.07,0.86
		s0.56,1.86,0.88,3.42s0.39,2.44,0.36,2.71c-0.03,0.26,0.06,0.81-0.43,0.8c-0.48-0.01-1.15-0.06-1.42-0.21s-0.59-0.52-0.59-0.52
		s0.13,0.63,0.39,1.28s0.62,1.19,0.21,1.65c-0.41,0.46-0.9,0.72-1.26,1.13c-0.35,0.41-0.58,0.78-0.64,0.94
		c-0.06,0.15-0.67,0.35-0.86,0.63s-0.17,0.97-1.1,0.63c-0.92-0.34-1.03-0.42-1.34-0.86c-0.31-0.45-0.37-0.84-0.6-1.44
		s-0.4-0.14-0.38-1.84s-0.15-2.21,0.17-3.02c0.32-0.81,0.28-1.18,0.72-2.02s0.39-1.4,0.73-2.11c0.34-0.71,0.82-1.32,1.25-1.68
		s0.93-0.57,1.06-0.72c0.12-0.15,0.16-0.81,0.45-0.99c0.29-0.17,0.49-0.18,0.66-0.21C52.98,46.93,52.8,47.42,52.8,47.42z"/>
	<path class="st4" d="M56.89,45.39c0,0-0.74-0.29-0.44-1.19c0.29-0.9,0.37-1.01,0.59-1.58c0.22-0.57,0.08-0.86,0.15-1.29
		c0.08-0.43-0.07-0.12,0.23-1.07c0.3-0.95,0.12-1.1,0.1-1.25c-0.02-0.16-0.15,0.19-0.08-0.88s0.11-1.19,0.27-1.95
		c0.16-0.76,0.01-1.26-0.02-1.46c-0.03-0.2,0.58-0.75-0.05-0.49c-0.63,0.26-1.14,1-1.61,1.21c-0.47,0.21-0.92,0.27-1.32,0.64
		c-0.39,0.37-0.61,0.69-0.65,0.36s0.34-1.71,0.49-2.4c0.15-0.69-0.07-1.54-0.25-1.83c-0.18-0.28-0.25-0.55-0.42-0.86
		s-0.33-0.69-0.49-0.27s-0.45,0.96-0.52,0.83s-0.6-1.14-0.85-1.02c-0.24,0.12-0.54,0.56-0.53,0.74c0,0.18-0.36-0.55-0.63-0.29
		c-0.26,0.26-0.36,0.62-0.54,0.84c-0.18,0.22-0.83,0.46-0.64,1.22c0.19,0.76,0.61,1.3,1.04,1.7c0.44,0.4,0.74,0.91,0.74,1.02
		s-0.34,0.11-0.66-0.24c-0.32-0.35-0.67-0.63-1.31-0.87s-1.42-0.18-1.64-0.12c-0.21,0.06-0.52-0.15-0.38,0.53s0.05,1.98,0.76,2.41
		c0.72,0.43,1.31,0.89,1.31,0.89s0.2,0.53-0.28,0.42c-0.47-0.11-0.89-0.24-1.33,0.03c-0.44,0.27-0.95,0.46-0.84,0.76
		s0.03,0.52,0.63,0.61c0.6,0.09,1.13,0.08,1.39,0.23c0.26,0.16,0.55,0.37,0.55,0.37s-0.64-0.06-1.08,0.09s-0.7-0.44-0.69,0.11
		c0.01,0.55,0.06,1.04,0.45,1.42c0.4,0.38,0.18,0.72,0.72,0.77c0.54,0.06,0.46-0.02,1.01-0.06c0.55-0.04,0.85,0.13,0.85,0.13
		s-0.64-0.13-0.67,0.38c-0.03,0.51-0.41,0.54,0.27,1s-0.2,0.84,1.02,0.49c1.22-0.35,0.82-0.5,1.7-0.24
		c0.88,0.26,0.93,0.39,1.46,0.22c0.53-0.17,0.88-0.29,1.12-0.19c0.23,0.09,0.32,0.07,0.49,0.36c0.17,0.29,0.6,0.5,0.6,0.5
		L56.89,45.39z"/>
	<path class="st5" d="M41.24,34.45c0.2-0.66,0.64-0.97,0.45-1.17c-0.19-0.2-0.37-0.26-0.72-0.6c-0.24-0.22-0.32-0.2-0.63,0.04
		c-0.16-0.41-0.39-0.88-1.09-1.18c0.06-0.17,0.1-0.34,0.1-0.54c-0.01-0.65-0.64-0.19-1.6-0.09s-1.18-0.51-1.85-0.63
		c-0.67-0.12-1.89-0.13-2.48,0.16c-0.15,0.07-0.26,0.18-0.36,0.3c0,0,0,0,0,0c-0.96,0.46-2.62-0.21-3.83-0.64
		c-0.09-0.15-0.18-0.3-0.3-0.48c-0.5-0.75-0.76-0.85-1.23-0.91c-0.47-0.06-0.66,0.13-1.19,0.43c-0.26,0.14-0.52,0.39-0.74,0.65
		c-0.18,0.17-0.36,0.42-0.53,0.78c-0.9,1.87-2.31,1.34-3.52,2.81c-0.27,0.33-0.5,0.58-0.7,0.79c-0.47-0.12-0.41,0.11-0.48,0.53
		c-0.2,0.24-0.32,0.47-0.39,0.8c-0.29,0.37-0.7,0.71-1.02,0.88c-0.5,0.26-0.64,0.14-0.64,0.14s-0.28,0.54,0,0.69
		c0.29,0.14,0.12,0.41,0.28,0.9c0.17,0.49,0.41,0.48,0.73,0.52c0.32,0.04-0.03,0.39-0.36,0.42c-0.33,0.03-0.77,0.34-1.44,0.87
		c-0.67,0.53-0.18,0.81,0.29,1.23c0.36,0.32,0.73,0.39,1.11,0.45c-0.28,0.76-0.22,1.46,0.99,2.17c0.13,0.08,0.25,0.14,0.38,0.2
		c-0.31,0.87-0.39,1.96,0.1,2.12c0.52,0.17,0.48,0.67,1.11,0.97c0.63,0.3,0.56,0.11,1.26-0.49c0.7-0.6,1.48-1.33,1.48-1.33
		s-0.27,0.43-0.57,0.83c-0.3,0.4-0.41,2.08-0.5,2.1c-0.09,0.02,0.1,0.26,0.39,0.37c0.29,0.11,0.89,0.08,1.89-0.56
		c0.62-0.39,1.17-0.93,1.43-1.15c0.03,0.03,0.05,0.05,0.08,0.08c-0.35,0.61,0.03,1.12-0.42,2.18c-0.44,1.06,0.14,0.78,0.2,1.58
		c0.05,0.8,0.18,1.39,0.27,1.41c0.09,0.01,0.63-0.1,1.2-0.86c0.38-0.51,0.82-1.07,1.06-1.39c0.04,0.04,0.09,0.07,0.13,0.1
		c-0.07,0.31-0.19,0.75-0.33,0.97c-0.24,0.37-0.35,0.97-0.43,1.21c-0.08,0.24-0.15,1.06-0.11,1.39c0.03,0.33-0.04,0.5,0.33,0.37
		c0.37-0.13,0.81-0.08,1.59-0.49c0.78-0.41,0.83-1.05,1-2.07c0.17-1.02,0.25-2.02,0.73-3.08c0.47-1.06,0.84-0.44,0.84-0.44
		s-0.18,1.1-0.47,1.71c-0.29,0.61-0.09,1.14-0.15,1.82c-0.06,0.68,0.09,0.66,0.32,1.23s0.04,0.62,0.18,0.67
		c0.14,0.05,0.89-0.03,1.37-0.37c0.47-0.34,1.08-0.8,1.61-1.49c0.53-0.69,0.82-2.35,0.82-2.35s0.02,0.44,0.2,0.78
		c0.18,0.35,0.45,0.63,0.45,0.63s0.59-1.04,0.9-2.27c0.31-1.22,0.19-2.39,0.19-2.39l0.93,0.62c0,0-0.09-0.73-0.17-2.29
		c-0.08-1.56,0.51-1.85,1.27-2.8c0,0-0.49-0.21-0.48-0.31c0.01-0.11,0-0.33,0.11-0.67c0.12-0.35,0.27-0.8,0.4-1.93
		c0.12-1.14-0.03-1.05-0.2-1.61c-0.16-0.56-0.39-0.27-0.39-0.27s0.02-0.29,0.37-0.57C40.81,35.62,41.03,35.11,41.24,34.45z"/>
	<path class="st5" d="M90.29,55.08c-0.65-0.69-1.45-2.41-2.64-2.16c-1.19,0.24-2.25,0.32-2.25,0.32s-0.62-0.45,0.05-0.82
		c0.67-0.38,1.27-0.67,1.63-1.48c0.35-0.81,0.85-1.6,0.51-1.85c-0.35-0.25-0.4-0.61-1.21-0.07c-0.81,0.54-1.46,1.13-1.89,1.22
		c-0.43,0.09-0.94,0.13-0.94,0.13s0.83-0.62,1.27-1.29c0.44-0.67,1.17-0.22,0.77-0.88c-0.4-0.66-0.8-1.23-1.56-1.27
		c-0.76-0.04-0.73-0.69-1.44-0.18c-0.71,0.52-0.55,0.52-1.21,1.16c-0.65,0.64-1.14,0.75-1.14,0.75s0.89-0.54,0.56-1.2
		c-0.32-0.66,0.13-1.11-1.04-0.94c-1.17,0.17-0.34-1.25-1.61,0.51c-1.27,1.76-0.66,1.51-1.94,2.13c-1.28,0.63-1.43,0.53-1.97,1.32
		c-0.54,0.79-0.9,1.31-1.25,1.45c-0.35,0.14-0.45,0.26-0.86,0.08c-0.41-0.18-1.09,0.03-1.09,0.03l0.59,0.86c0,0,1.12-0.44,1.39,1
		c0.27,1.44,0.25,1.65,0.37,2.6c0.12,0.95,0.51,1.15,0.72,1.76c0.21,0.61,0.17,0.08,0.47,1.59c0.29,1.51,0.62,1.49,0.76,1.66
		c0.13,0.17,0.05-0.4,0.71,1c0.66,1.4,0.69,1.6,1.03,2.72c0.34,1.12,0.88,1.57,1.05,1.79c0.17,0.22-0.19,1.56,0.4,0.56
		c0,0,0-0.01,0.01-0.01c0.55,0.48,1.36,0.33,2.97,0.38c2.06,0.06,3.14,1.07,4.1-0.7v0c0.27,0.11,0.48,0.11,0.42-0.38
		c-0.01-0.09-0.02-0.18-0.03-0.27c0.27-0.41,0.52-0.74,0.73-1.05c0.45,0.17,1,0.32,1.13,0.08c0.22-0.41,0.27-1.28,0.14-1.5
		c-0.13-0.22,0.84,0.28,0.98-0.32c0.14-0.6,0.02-1.16,0.08-1.62c0.06-0.46,0.7-1.46-0.07-2.21c-0.05-0.05-0.1-0.07-0.15-0.11
		c0.02-0.07,0.05-0.14,0.06-0.22c0.22-1.09,0.77-1.91,0.56-2.76c0.35-0.3,0.62-0.59,0.72-0.74C90.42,55.83,90.95,55.77,90.29,55.08z
		"/>
	<path class="st2" d="M62.88,27.03c-0.61,0.53-0.78,1.28-1.37,2.75c-0.59,1.47-0.95,1.2-1.16,1.94c-0.21,0.73-1.54,1.8,0,3.1
		c1.54,1.3,3.49,0.97,2.75,2.15s-1.97,2.12-2.15,2.3s1.4,2.79,1.47,3.1c0.08,0.31-0.43,1.46-0.08,1.84
		c0.35,0.37,0.63-1.72,1.54-0.94c0.9,0.79-1.89,2.02,1.57,0.98c3.46-1.04,6.53-2.26,7.32-3.63c0.79-1.37,3.04-2.99,2.49-4.78
		s-0.05-1.68-1.26-3.03c-1.2-1.35-1.86-1.45-2.96-2.95c-1.1-1.5,0-3.54-1.14-3.41c-1.15,0.13-2.82,0.7-3.01-0.01
		s-1.01-1.16-1.44-0.86c-0.43,0.31-1.51,1.6-1.51,1.6L62.88,27.03z"/>
	<path class="st6" d="M53.82,49.34c0,0,2.14,2.74,2.29,3.97c0.15,1.22,0.57,1.99,0.25,3.32s-0.34,1.62-1.21,2.43
		c-0.87,0.81-1.25,1.12-1.86,1.57c-0.61,0.46-3.2,1.21-3.2,1.21s-1.05-2.58-1.02-3.11c0.03-0.53-0.26-3.99,0-4.28
		s3.23-1.92,3.23-1.92L53.82,49.34z"/>
	<path class="st1" d="M49,36.93c0,0,1.47,1.31,2.04,2.15c0.57,0.84,0.95,1.58,1.06,2.77c0.11,1.19-0.95,2.38-1.48,2.78
		c-0.53,0.4-3.28,0.98-3.73,0c-0.46-0.98-1.4-2.98-0.82-3.35s0.77-0.68,1.21-1.21c0.44-0.53,1.28-3.37,1.28-3.37"/>
	<g>
		<path class="st7" d="M44.49,54.33c-0.02,0.04-0.04,0.08-0.06,0.11c-0.01-0.06-0.02-0.13-0.03-0.19
			C44.43,54.27,44.46,54.29,44.49,54.33z"/>
		<path class="st8" d="M37.67,53.58c0.65-0.07,0.43-0.79,0.39-0.92c0.06,0.16,0.42,1.16,0.52,1.23c0.11,0.08,0.38-0.23,0.87-0.64
			c0.49-0.42,0.23,0.45,0.64,1.29c0.42,0.83,0.42,0.42,0.79-0.31c0.38-0.73,0.95-0.52,1.06,0.27c0.11,0.79,0.34,0.68,1.1,1.4
			c0.76,0.72,0.64-0.08,0.98-1.29c0.1-0.36,0.22-0.44,0.37-0.35c0.01,0.06,0.02,0.13,0.03,0.19c-0.48,0.84-1.02,1.91-0.13,3.76
			c1.02,2.12,1.92,4.69,3.1,6.02c1.18,1.33,1.1,2.57,0.98,3.29c-0.11,0.72-0.23,2.67-0.15,3.33c0.03,0.28,0.03,0.52,0.01,0.77
			c-0.14,0.23-0.29,0.45-0.43,0.63c-1.06,1.4-1.14,1.51-2.04,2.23c-0.91,0.72-0.87,1.55-1.82,0.68c-0.95-0.87-0.15-1.82-1.32-0.83
			c-1.17,0.98-0.08,1.32-2.27,1.51c-2.19,0.19-1.55,0.83-2.57-0.19c-1.02-1.02-0.87-1.78-1.89-1.21c-1.02,0.57-0.64,0.64-1.66,0.68
			c-1.02,0.04-1.48,0.04-1.93-0.49c-0.45-0.53-0.38-1.1-0.87-1.66c-0.49-0.57-0.72-0.83-0.98-0.87c-0.26-0.04-0.83-0.3-0.87-0.83
			c-0.04-0.53-0.24-0.86-0.68-1.82c-0.19-0.4,0.45-1.82,0.61-2.84c0.15-1.02,1.55-2.08,1.97-3.03c0.42-0.95,1.14-1.78,1.66-2.72
			c0.53-0.95,1.63-1.93,2.17-2.99c0.54-1.06,0.55-1.7,0.74-2.95c0.04-0.23,0.03-0.43-0.01-0.59c0.13-0.2,0.26-0.39,0.39-0.58
			C36.94,54.18,37.11,53.64,37.67,53.58z"/>
		<path class="st9" d="M39.15,45.67c0.45-0.57,1.56-1.08,2.01-0.98c0.3,0.06,1.06,0.19,1.44,0.72c0.38,0.53,1.21,3.59,1.32,4.39
			c0.06,0.42,0.18,2.4,0.48,4.46c-0.15-0.09-0.27-0.01-0.37,0.35c-0.34,1.21-0.23,2.01-0.98,1.29c-0.76-0.72-0.98-0.61-1.1-1.4
			c-0.11-0.79-0.68-1-1.06-0.27c-0.38,0.73-0.38,1.14-0.79,0.31c-0.42-0.83-0.15-1.7-0.64-1.29c-0.49,0.42-0.76,0.72-0.87,0.64
			c-0.1-0.07-0.47-1.07-0.52-1.23c0-0.01-0.01-0.02-0.01-0.02s0,0.01,0.01,0.02c0.05,0.13,0.27,0.85-0.39,0.92
			c-0.56,0.06-0.73,0.6-1.25,0.15c0.7-1.07,1.21-2,1.36-2.58C38.24,49.42,38.69,46.24,39.15,45.67z"/>
		<path class="st10" d="M38.06,52.66c0-0.01-0.01-0.02-0.01-0.02S38.05,52.64,38.06,52.66z"/>
		<path class="st11" d="M28.86,70.95c-0.15-0.57,0.22-1.11,0.03-1.51c0.44,0.96,0.64,1.29,0.68,1.82c0.04,0.53,0.61,0.79,0.87,0.83
			c0.26,0.04,0.49,0.3,0.98,0.87c0.49,0.57,0.42,1.14,0.87,1.66c0.45,0.53,0.91,0.53,1.93,0.49c1.02-0.04,0.64-0.11,1.66-0.68
			c1.02-0.57,0.87,0.19,1.89,1.21c1.02,1.02,0.38,0.38,2.57,0.19c2.19-0.19,1.1-0.53,2.27-1.51c1.17-0.98,0.38-0.04,1.32,0.83
			c0.95,0.87,0.91,0.04,1.82-0.68c0.91-0.72,0.98-0.83,2.04-2.23c0.14-0.19,0.28-0.4,0.43-0.63c-0.03,0.32-0.08,0.64-0.12,1.05
			c-0.08,0.72-0.4,1.19-0.33,1.79c-1.89,3.13-5.53,6.29-10.68,5.48c-5.27-0.84-7.49-4.61-8.32-7.3c0.01-0.01,0.03-0.03,0.04-0.04
			C29.43,71.97,29.01,71.51,28.86,70.95z"/>
		<path class="st12" d="M28.74,66.7c0.46-2.22,1.33-4.72,2.69-6.34c1.39-1.67,3.25-4.04,4.61-6.04c0.04,0.16,0.04,0.36,0.01,0.59
			c-0.19,1.25-0.2,1.89-0.74,2.95c-0.54,1.06-1.64,2.04-2.17,2.99c-0.53,0.95-1.25,1.78-1.66,2.72c-0.42,0.95-1.82,2.01-1.97,3.03
			c-0.15,1.02-0.79,2.43-0.61,2.84c0.19,0.4-0.18,0.95-0.03,1.51c0.15,0.57,0.58,1.02-0.04,1.63c-0.01,0.01-0.03,0.03-0.04,0.04
			c-0.26-0.84-0.38-1.58-0.42-2.09C28.3,69.66,28.42,68.25,28.74,66.7z"/>
		<path class="st12" d="M44.42,54.44c0.27,1.73,0.68,3.48,1.3,4.36c1.19,1.67,3.42,7.01,3.52,10.76c0.02,0.66-0.03,1.27-0.16,1.8
			c-0.22,0.91-0.67,1.99-1.32,3.08c-0.07-0.59,0.26-1.07,0.33-1.79c0.04-0.41,0.1-0.73,0.12-1.05c0.02-0.24,0.02-0.48-0.01-0.77
			c-0.08-0.66,0.04-2.61,0.15-3.33c0.11-0.72,0.2-1.96-0.98-3.29c-1.18-1.33-2.08-3.9-3.1-6.02C43.4,56.35,43.94,55.28,44.42,54.44z
			"/>
		<path class="st12" d="M41.63,57.87c0.82,0.47,0.77-0.47,0.95,1.09c0.18,1.56,0.45,1.17,0.82,2.19s1.32,1.79,0.42,1.76
			s-0.56,0.35-1.24-0.35c-0.68-0.7-0.4-0.94-0.69-1.17c-0.3-0.23-0.77,0.31-1-0.31c-0.23-0.62-0.55-0.55,0-1.02
			C41.43,59.59,41.63,57.87,41.63,57.87z"/>
		<path class="st12" d="M37.47,59.9c-0.02,1.33,0.23,1.41,0.65,2.34s0.61,1.56-0.07,1.72c-0.68,0.16-0.47,0.47-1.71,0
			c-1.24-0.47-2.11-0.24-1.95-0.98c0.17-0.74-0.08-0.26,0.47-0.93c0.55-0.67-0.63-1.37,0.71-0.98c1.33,0.39,1.33,0.94,1.33,0.39
			C36.9,60.92,37.47,59.9,37.47,59.9z"/>
		<path class="st12" d="M41.33,66.54c1.12,0.62,1.68,0.31,2.18,1.02c0.5,0.7,1.69,1.02,0.66,1.17c-1.02,0.16-1.3,0.08-1.79-0.39
			c-0.49-0.47-0.64-0.7-0.76-0.08c-0.12,0.63-0.88,0.39-1.05,0.16c-0.16-0.23,0.09,0.08,0-0.47s-0.95-0.16-0.71-0.78
			S41.33,66.54,41.33,66.54z"/>
		<path class="st12" d="M37.47,70.37c-1.27-0.7-2.52-0.7-2.84-0.39s-0.85,0.7-0.85,0.7s-0.8,0.63,0.06,1.02s1.8,0.08,2.19,0
			s1.06-0.4,1.43,0.19c0.37,0.59,0.72,0.71,0.82,0.73c0.1,0.02,0.36-0.9,0.27-1.42c-0.09-0.52-0.63-0.75-0.71-0.52
			C37.76,70.92,37.47,70.37,37.47,70.37z"/>
		<path class="st12" d="M43.82,72.61c-0.28,0.18-1.15,0.02-1.3,0.57c-0.15,0.55,0.11,1.13,0.11,1.13h-1.3c0,0-0.08,0.4,0.56,1.04
			c0.64,0.64-0.11,1.37,0.69,0.85c0.81-0.52,1.68-1.16,1.59-1.46c-0.09-0.31,0-0.74,0-0.74l0.56-1.05L43.82,72.61z"/>
		<path class="st12" d="M31.91,70.13c-0.09,0.47,0.18,2.48,0.07,3.05c-0.12,0.57,1.11,1.62,0.32,1.43
			c-0.79-0.18-1.05-0.81-1.27-1.12c-0.22-0.31-1.1-1.03-0.58-1.41s0.58-0.88,0.58-0.88L31.91,70.13z"/>
		<path class="st12" d="M32.84,64.43c0.16,0.55,0.49,0.86,0.79,1.49c0.3,0.63,0.62,1.25-0.08,1.09s-1.57,0.23-1.57-0.47
			c0-0.7,0.23-1.02,0.23-1.33S32.84,64.43,32.84,64.43z"/>
		<path class="st13" d="M44.17,65.73"/>
		<path class="st12" d="M45.42,65.13c0,0-1.06-0.21-0.69,0.6c0.37,0.81,0.28,0.42,0.95,0.81s1.96,0.99,1.78,0.49
			C47.29,66.54,45.42,65.13,45.42,65.13z"/>
	</g>
	<g>
		<path class="st7" d="M60.48,55.17c0.02,0.03,0.04,0.06,0.05,0.09c0.01-0.05,0.02-0.1,0.02-0.15
			C60.53,55.12,60.51,55.14,60.48,55.17z"/>
		<path class="st8" d="M66.06,54.56c-0.53-0.06-0.35-0.65-0.32-0.76c-0.05,0.13-0.34,0.95-0.43,1c-0.09,0.06-0.31-0.19-0.71-0.53
			c-0.4-0.34-0.19,0.37-0.53,1.05c-0.34,0.68-0.34,0.34-0.65-0.25c-0.31-0.59-0.77-0.43-0.87,0.22c-0.09,0.65-0.28,0.56-0.9,1.15
			c-0.62,0.59-0.53-0.06-0.81-1.05c-0.08-0.29-0.18-0.36-0.3-0.29c-0.01,0.05-0.02,0.1-0.02,0.15c0.39,0.69,0.84,1.57,0.11,3.07
			c-0.84,1.73-1.57,3.84-2.54,4.92c-0.97,1.09-0.9,2.11-0.81,2.69c0.09,0.59,0.19,2.19,0.12,2.72c-0.03,0.23-0.02,0.43-0.01,0.63
			c0.12,0.19,0.23,0.37,0.35,0.52c0.87,1.15,0.93,1.24,1.67,1.83c0.74,0.59,0.71,1.27,1.49,0.56c0.77-0.71,0.12-1.49,1.08-0.68
			c0.96,0.81,0.06,1.08,1.86,1.24c1.8,0.15,1.27,0.68,2.11-0.15c0.84-0.84,0.71-1.46,1.55-0.99c0.84,0.46,0.53,0.53,1.36,0.56
			c0.84,0.03,1.21,0.03,1.58-0.4c0.37-0.43,0.31-0.9,0.71-1.36c0.4-0.46,0.59-0.68,0.81-0.71s0.68-0.25,0.71-0.68
			c0.03-0.43,0.19-0.7,0.56-1.49c0.15-0.33-0.37-1.49-0.5-2.32c-0.12-0.84-1.27-1.7-1.61-2.48c-0.34-0.77-0.93-1.46-1.36-2.23
			c-0.43-0.77-1.33-1.58-1.78-2.45c-0.44-0.87-0.45-1.39-0.61-2.42c-0.03-0.19-0.02-0.35,0.01-0.49c-0.11-0.16-0.21-0.32-0.32-0.47
			C66.66,55.05,66.52,54.61,66.06,54.56z"/>
		<path class="st9" d="M64.85,48.08c-0.37-0.46-1.28-0.88-1.64-0.81c-0.24,0.05-0.87,0.15-1.18,0.59c-0.31,0.43-0.99,2.94-1.08,3.59
			c-0.05,0.35-0.14,1.97-0.39,3.65c0.12-0.07,0.22-0.01,0.3,0.29c0.28,0.99,0.19,1.64,0.81,1.05c0.62-0.59,0.81-0.5,0.9-1.15
			c0.09-0.65,0.56-0.82,0.87-0.22c0.31,0.59,0.31,0.93,0.65,0.25c0.34-0.68,0.12-1.39,0.53-1.05c0.4,0.34,0.62,0.59,0.71,0.53
			c0.09-0.06,0.38-0.88,0.43-1c0-0.01,0.01-0.02,0.01-0.02s0,0.01-0.01,0.02c-0.04,0.11-0.22,0.7,0.32,0.76
			c0.46,0.05,0.6,0.49,1.02,0.12c-0.57-0.88-0.99-1.63-1.11-2.11C65.6,51.15,65.23,48.55,64.85,48.08z"/>
		<path class="st14" d="M65.75,53.8c0-0.01,0.01-0.02,0.01-0.02S65.75,53.79,65.75,53.8z"/>
		<path class="st11" d="M73.27,68.77c0.12-0.46-0.18-0.91-0.03-1.24c-0.36,0.78-0.53,1.05-0.56,1.49c-0.03,0.43-0.5,0.65-0.71,0.68
			s-0.4,0.25-0.81,0.71c-0.4,0.46-0.34,0.93-0.71,1.36c-0.37,0.43-0.74,0.43-1.58,0.4c-0.84-0.03-0.53-0.09-1.36-0.56
			c-0.84-0.46-0.71,0.15-1.55,0.99c-0.84,0.84-0.31,0.31-2.11,0.15c-1.8-0.15-0.9-0.43-1.86-1.24c-0.96-0.81-0.31-0.03-1.08,0.68
			c-0.77,0.71-0.74,0.03-1.49-0.56c-0.74-0.59-0.81-0.68-1.67-1.83c-0.11-0.15-0.23-0.33-0.35-0.52c0.02,0.26,0.07,0.52,0.1,0.86
			c0.06,0.59,0.33,0.98,0.27,1.46c1.54,2.57,4.52,5.15,8.74,4.48c4.31-0.68,6.13-3.77,6.81-5.97c-0.01-0.01-0.02-0.02-0.03-0.03
			C72.8,69.61,73.15,69.23,73.27,68.77z"/>
		<path class="st12" d="M73.37,65.29c-0.37-1.81-1.09-3.86-2.2-5.19c-1.14-1.36-2.66-3.31-3.77-4.94c-0.03,0.13-0.03,0.29-0.01,0.49
			c0.15,1.02,0.16,1.55,0.61,2.42c0.44,0.87,1.34,1.67,1.78,2.45c0.43,0.77,1.02,1.46,1.36,2.23c0.34,0.77,1.49,1.64,1.61,2.48
			c0.12,0.84,0.65,1.99,0.5,2.32c-0.15,0.33,0.15,0.77,0.03,1.24c-0.12,0.46-0.47,0.84,0.03,1.33c0.01,0.01,0.02,0.02,0.03,0.03
			c0.21-0.69,0.31-1.29,0.34-1.71C73.73,67.71,73.63,66.56,73.37,65.29z"/>
		<path class="st12" d="M60.53,55.26c-0.22,1.41-0.55,2.85-1.07,3.57c-0.97,1.37-2.8,5.74-2.88,8.81c-0.01,0.54,0.02,1.04,0.13,1.47
			c0.18,0.75,0.55,1.63,1.08,2.52c0.06-0.49-0.21-0.88-0.27-1.46c-0.04-0.34-0.08-0.6-0.1-0.86c-0.02-0.2-0.02-0.4,0.01-0.63
			c0.06-0.54-0.03-2.14-0.12-2.72c-0.09-0.59-0.16-1.61,0.81-2.69c0.97-1.09,1.7-3.19,2.54-4.92
			C61.37,56.83,60.93,55.95,60.53,55.26z"/>
		<path class="st12" d="M62.82,58.07c-0.67,0.38-0.63-0.38-0.78,0.9s-0.36,0.96-0.67,1.79c-0.31,0.83-1.08,1.47-0.34,1.44
			c0.74-0.03,0.46,0.29,1.01-0.29c0.56-0.58,0.32-0.77,0.57-0.96c0.24-0.19,0.63,0.26,0.82-0.26c0.19-0.51,0.45-0.45,0-0.83
			C62.98,59.47,62.82,58.07,62.82,58.07z"/>
		<path class="st12" d="M66.23,59.73c0.02,1.09-0.19,1.15-0.53,1.92c-0.34,0.77-0.5,1.28,0.06,1.41c0.56,0.13,0.39,0.38,1.4,0
			c1.01-0.38,1.73-0.2,1.59-0.8s0.07-0.21-0.39-0.76c-0.45-0.55,0.51-1.12-0.58-0.8c-1.09,0.32-1.09,0.77-1.09,0.32
			S66.23,59.73,66.23,59.73z"/>
		<path class="st12" d="M63.07,65.16c-0.92,0.51-1.38,0.26-1.79,0.83c-0.41,0.58-1.38,0.83-0.54,0.96c0.84,0.13,1.06,0.06,1.46-0.32
			c0.4-0.38,0.52-0.58,0.62-0.06c0.1,0.51,0.72,0.32,0.86,0.13c0.13-0.19-0.07,0.06,0-0.38s0.77-0.13,0.58-0.64
			C64.07,65.16,63.07,65.16,63.07,65.16z"/>
		<path class="st12" d="M66.23,68.3c1.04-0.58,2.06-0.58,2.32-0.32s0.69,0.58,0.69,0.58s0.66,0.51-0.05,0.83s-1.48,0.06-1.79,0
			c-0.32-0.06-0.87-0.32-1.17,0.16s-0.59,0.58-0.67,0.59c-0.08,0.02-0.3-0.74-0.22-1.16c0.08-0.42,0.51-0.61,0.58-0.42
			C65.99,68.74,66.23,68.3,66.23,68.3z"/>
		<path class="st12" d="M61.03,70.14c0.23,0.14,0.94,0.02,1.06,0.46s-0.09,0.93-0.09,0.93h1.06c0,0,0.07,0.32-0.46,0.85
			c-0.52,0.53,0.09,1.12-0.57,0.7c-0.66-0.42-1.38-0.95-1.31-1.2c0.07-0.25,0-0.6,0-0.6l-0.46-0.86L61.03,70.14z"/>
		<path class="st12" d="M70.78,68.11c0.07,0.38-0.15,2.03-0.05,2.49s-0.91,1.33-0.26,1.17c0.64-0.15,0.86-0.66,1.04-0.92
			c0.18-0.26,0.9-0.84,0.48-1.16c-0.42-0.31-0.48-0.72-0.48-0.72L70.78,68.11z"/>
		<path class="st12" d="M70.02,63.44c-0.13,0.45-0.4,0.71-0.65,1.22c-0.25,0.51-0.51,1.02,0.07,0.9c0.58-0.13,1.28,0.19,1.28-0.38
			s-0.19-0.83-0.19-1.09C70.53,63.82,70.02,63.44,70.02,63.44z"/>
		<path class="st13" d="M60.74,64.5"/>
		<path class="st12" d="M59.72,64.01c0,0,0.86-0.17,0.56,0.49c-0.3,0.66-0.23,0.34-0.78,0.66c-0.55,0.32-1.6,0.81-1.46,0.4
			C58.19,65.16,59.72,64.01,59.72,64.01z"/>
	</g>
	<path class="st1" d="M36.42,53.14c0.24-0.4,0.37-0.56,0.77-0.87c0.4-0.31,0.58,0.33,0.24-0.62c-0.34-0.95-0.37-0.73-0.45-1.49
		c-0.08-0.76,0.16-0.99-0.26-1.37c-0.42-0.38-0.41,0.04-0.88-0.5s-0.72-1.4-1.1-1.43c-0.37-0.03,0.18,0.15-0.64,0.2
		c-0.82,0.05-0.66,0.93-1.22-0.01s-1.05-0.15-1.29-0.95c-0.24-0.8-0.32-0.74-0.59-0.96c-0.26-0.22-0.13-0.39-0.31-0.3
		s-0.27,0.33-0.37,0.81s0.2,1.81,0.29,2.11s0.1,0.54,0.1,0.54s0.92,2.05,1.16,2.04c0.24-0.01,1.29,0.98,1.45,1.26
		c0.16,0.28,1.01,1.67,1.18,1.71c0.17,0.04,0.51,0.27,0.78,0.17C35.58,53.39,36.42,53.14,36.42,53.14z"/>
</g>
</svg>
