<?xml version="1.0" encoding="utf-8"?>
<!-- Generator: Adobe Illustrator 23.1.1, SVG Export Plug-In . SVG Version: 6.00 Build 0)  -->
<svg version="1.1" id="Layer_1" xmlns="http://www.w3.org/2000/svg" xmlns:xlink="http://www.w3.org/1999/xlink" x="0px" y="0px"
	 viewBox="0 0 108 108" style="enable-background:new 0 0 108 108;" xml:space="preserve">
<style type="text/css">
	.st0{fill:#6A9940;}
	.st1{fill:#6F8E3B;}
	.st2{fill:#94BB5B;}
	.st3{fill:#7E9D3D;}
	.st4{fill:#5F8C3D;}
	.st5{fill:#84B541;}
	.st6{fill:#5A7F39;}
	.st7{fill:#A4C839;}
	.st8{fill:none;stroke:#925C87;stroke-width:0.4533;stroke-linecap:round;stroke-miterlimit:10;}
</style>
<g>
	<path class="st0" d="M38.73,69.12c6.59,1.08,8.9,0.7,14.63,1.24c5.74,0.54,7.9,2.08,9.79,0.6c1.89-1.48,8.59-3.41,8.59-3.41
		s2.41-1.92,2.06-3.11s-0.85-2.57-2.64-4.66c-1.79-2.09-1.49-2.74-3.59-5.52c-2.11-2.78-6.56-5.51-9.82-5.56
		c-3.25-0.05-11.22-1.89-13.67-0.84s-4.41,4.56-4.49,5.15c-0.08,0.59-0.31,4.97-0.39,5.86C39.14,59.78,38.73,69.12,38.73,69.12z"/>
	<g>
		<path class="st1" d="M57.41,74.14c-0.23,0.84-0.48,1.49-0.73,2.67c-0.25,1.18,0.08,1.22-0.71,2.08c-0.79,0.86-1.21,1.07-1.24,1.63
			c-0.03,0.56,0.5,0.56-0.07,0.84c-0.57,0.27-1.16,0.47-1.16,0.47s-0.6,0.3-1.09,0.31c-0.49,0.01-0.83,0.18-1.28-0.07
			c-0.45-0.25-0.98-0.68-0.92-0.98c0.06-0.3,0.02-0.43-0.19-0.78c-0.21-0.35-0.52-0.23-0.51-0.74c0.01-0.51,0.17,0.01-0.12-1.39
			c-0.29-1.4-0.37-1.15-0.13-1.95c0.24-0.8,0.19-0.71,0.48-1.31c0.29-0.6,0.41-0.6,0.33-1.16c-0.08-0.56-0.26-0.93-0.15-1.17
			c0.11-0.24,0.16-0.32,0.65-1.13c0.49-0.81,0.8-1.24,1.19-2.09c0.4-0.86,1.5-2.62,1.61-2.92c0.1-0.3-0.01-2.35,0.29-2.8
			c0.3-0.45,0.66-0.7,1.37-1.21c0.71-0.51,1.24-0.98,1.61-0.75c0.38,0.23,0.54,1.68,0.92,2.34c0.38,0.66-0.11,2.42,0.24,4
			c0.35,1.58,0.33,1.81,0.53,2.82C58.55,71.84,57.41,74.14,57.41,74.14z"/>
	</g>
	<g>
		<path class="st2" d="M69.4,57.74c0.24-1.37-0.32-3.32,0.54-4.45c0.86-1.14,1.69-1.48,2.14-2.22c0.44-0.74,0.34-1.44,0.74-2.38
			c0.4-0.94,0.34-0.78,0.62-1.48c0.28-0.7,0.67,0.17,0.39-1c-0.29-1.17-0.7-0.22-0.34-1.42c0.36-1.19,0.45-1.3,0.28-2.1
			c-0.17-0.81-0.31-1.02-0.38-1.27c-0.07-0.24-0.02-0.5-0.34-0.8c-0.32-0.3-0.32-0.56-0.76-0.67c-0.43-0.11-0.82-0.17-0.99-0.37
			c-0.18-0.2-0.22-0.52-0.7-0.47c-0.48,0.04-1.34,0.62-1.97,1.12c-0.64,0.49-0.94,0.8-2.08,1.46c-1.14,0.66-1.79,0.7-2.39,1.36
			c-0.6,0.66-1.61,1.53-2.49,1.95c-0.87,0.42-0.35-0.07-1.52,1.41c-1.16,1.47-2.25,2.52-3.16,4.65c-0.91,2.11-0.72,1.62-1.21,3.34
			c-0.49,1.72-0.56,2.62-0.47,3.16c0.09,0.54,0.48,1.62,1.35,2.07c0.87,0.45,3.32,1.27,3.95,1.15c0.63-0.12,5.03-0.62,5.21-0.68
			c0.18-0.05,1.34-0.2,1.94-0.9C68.37,58.52,69.4,57.74,69.4,57.74z"/>
	</g>
	<g>
		<path class="st3" d="M44.2,48.28c-0.31-0.75-0.49-1.38-0.99-2.39c-0.5-1.01-0.79-0.84-0.67-1.95c0.12-1.11,0.33-1.52,0.02-1.95
			c-0.32-0.43-0.73-0.09-0.44-0.65c0.29-0.56,0.64-1.07,0.64-1.07s0.29-0.6,0.67-0.92c0.38-0.32,0.54-0.66,1.05-0.77
			c0.51-0.11,1.19-0.13,1.32,0.13c0.14,0.26,0.25,0.33,0.63,0.45c0.38,0.13,0.56-0.16,0.87,0.23c0.31,0.39-0.14,0.1,0.96,0.98
			c1.11,0.89,1.03,0.65,1.34,1.41c0.31,0.77,0.3,0.67,0.43,1.31c0.14,0.65,0.04,0.72,0.46,1.11c0.42,0.39,0.81,0.57,0.87,0.82
			c0.06,0.25,0.07,0.35,0.17,1.28c0.1,0.92,0.11,1.45,0.31,2.35c0.2,0.91,0.35,2.93,0.45,3.23c0.1,0.3,1.47,1.88,1.49,2.4
			c0.02,0.53-0.14,0.92-0.46,1.7c-0.32,0.78-0.49,1.44-0.97,1.45c-0.47,0.01-1.5-1.05-2.24-1.37c-0.73-0.31-1.37-1.94-2.61-2.96
			c-1.24-1.01-1.37-1.19-2.14-1.83C44.61,50.64,44.2,48.28,44.2,48.28z"/>
	</g>
	<g>
		<path class="st4" d="M43.45,44.15c-1.07-0.32-2.73-0.05-3.51-0.85c-0.78-0.8-0.92-1.5-1.45-1.92c-0.52-0.42-1.09-0.4-1.77-0.8
			c-0.67-0.4-0.56-0.34-1.07-0.62c-0.5-0.28,0.25-0.52-0.73-0.39c-0.97,0.13-0.3,0.54-1.18,0.16c-0.88-0.38-0.94-0.46-1.61-0.39
			c-0.67,0.07-0.86,0.17-1.07,0.2c-0.2,0.03-0.4-0.02-0.69,0.21c-0.3,0.23-0.51,0.21-0.67,0.54c-0.17,0.33-0.29,0.63-0.48,0.75
			c-0.19,0.12-0.45,0.13-0.51,0.51c-0.06,0.38,0.23,1.1,0.5,1.64c0.27,0.54,0.46,0.81,0.78,1.76c0.32,0.95,0.23,1.47,0.66,2
			c0.43,0.54,0.96,1.41,1.15,2.14c0.19,0.73-0.12,0.27,0.9,1.33c1.03,1.07,1.73,2.04,3.37,2.99c1.65,0.96,1.26,0.75,2.65,1.34
			c1.4,0.59,2.16,0.75,2.63,0.74c0.47-0.01,1.46-0.19,1.95-0.84c0.49-0.65,1.51-2.53,1.49-3.06c-0.02-0.53,0.13-4.15,0.11-4.3
			c-0.02-0.16,0.01-1.11-0.48-1.66C43.94,45.07,43.45,44.15,43.45,44.15z"/>
	</g>
	<g>
		<path class="st4" d="M35.08,60.39c0.47,0.44,0,0,1.34,1.14c1.34,1.15,0.41,0.4,1.41,0.83c0.99,0.42,1.85,1.39,2.43,1.83
			c0.58,0.44,1.8,1.31,2.05,1.65c0.25,0.33,0.56,0.24,1.15,0.36c0.6,0.13,0.36,0.74,0.14,1.04c-0.22,0.3-1.92,0.64-2.33,0.7
			c-0.41,0.06-2.53,0.87-3.19,1.07c-0.66,0.19-3.45,0.72-4.28,0.88c-0.83,0.16-1.34-0.18-1.88-0.73c-0.54-0.54,0.22-0.85,0.22-0.85
			s0.15-0.53-0.04-0.77c-0.18-0.23-0.99,0.08-1.85,0.41c-0.86,0.32-1.22,0.42-2.36,0.57c-1.14,0.15-0.93-0.03-1.78-0.73
			c-0.85-0.7-2.88-1.48-4.01-2.27c-1.13-0.79-1.86-1.34-2.35-2.12c-0.49-0.77-0.3-1-0.14-1.52c0.16-0.52,0.21-1.08,0.95-1.84
			c0.74-0.76,1.87-0.74,2.6-1.3c0.72-0.57,1.17-0.23,1.97-0.41c0.8-0.18,1.33-0.26,2.34-0.57c0.92-0.29,4.61,0.36,5.77,0.7
			c0.1,0.03,0.18,0.06,0.24,0.08C33.46,58.52,34.87,60.19,35.08,60.39z"/>
	</g>
	<g>
		<path class="st3" d="M45.64,56.33c-1.65-1.05-4.96-2.6-5.79-2.99c-0.83-0.38-2.1-0.18-2.48-0.74c-0.38-0.56,0.04-1.03-0.98-0.87
			c-1.02,0.16-0.78,0.54-1.87-0.01c-1.09-0.54-1.1-1.5-1.28-1.22c-0.18,0.28-0.84-0.07-2.41-0.17c-1.57-0.1-0.82-0.42-2.26-0.29
			c-1.44,0.13-1.46,0.39-2.09,0.34c-0.63-0.05-0.8-0.17-1.25-0.1c-0.46,0.07-1.17-0.11-1.57-0.05c-0.4,0.06-0.41-0.63-0.96,0.15
			c-0.55,0.78-0.78,1.07-0.56,1.66c0.21,0.59,0.66,1.42,1.22,1.83c0.56,0.41,1.28,0.9,1.58,1.46c0.29,0.56,0.33,1.43,0.44,1.98
			c0.11,0.55-0.2,0.59,0.52,0.99c0.72,0.4,0.88,0.88,1.24,1.33c0.36,0.45,0.89,0.02,1.63,0.52c0.74,0.5,0.74,0.55,1.12,1.16
			c0.38,0.6,0.81,0.7,1.47,0.71c0.66,0.01,1.28,0.37,1.58,0.67c0.3,0.29,0.22,0.51,0.8,0.58c0.59,0.07,1.46-0.1,2.05-0.03
			c0.59,0.07,1.09,0.31,1.52,0.35c0.43,0.04,1.47-0.16,1.71-0.24c0.24-0.08,0.91,0.08,1.23,0.14c0.32,0.06,0.45,0.25,1.24,0.24
			c0.79-0.01,1.08,0.01,1.44,0.06c0.37,0.05,2.16,1.05,2.16,1.05s0.2,0.6,0.98,0.91c0.78,0.31,1.56-0.21,2.19,0.23
			c0.64,0.44,1.54,0.85,1.87,0.96c0.33,0.11,0.53,0.03,0.97,0.13c0.44,0.1,1.23,0.1,1.44,0.12c0.21,0.02,0.95-0.82,0.34-1.79
			c-0.61-0.97-0.62-1.18-1.83-2.7c-1.2-1.51-1.77-2.22-2.3-2.72c-0.54-0.5-1.03-1.52-1.85-2.13C46.07,57.25,45.64,56.33,45.64,56.33
			z"/>
	</g>
	<g>
		<path class="st4" d="M53.77,54.7c-0.18-0.56-0.56-1.35-0.94-2.09c-0.38-0.73-0.38-1.89-0.8-2.71c-0.42-0.82-0.6-1.73-0.58-2.03
			c0.01-0.3,0.13-0.93,0.5-1.51c0.38-0.59,0.22-1,0.53-1.43c0.31-0.42,0.47-1.17,0.89-1.62c0.41-0.46,1-0.4,1.11-1.19
			c0.11-0.79,0.37-0.79,0.74-1.17c0.37-0.39,0.43-0.71,1-0.81c0.57-0.1,1.16,0.02,1.54,0.15c0.38,0.12,0.7,0.14,1.05,0.78
			c0.35,0.64,0.94,1.15,1.03,1.83c0.09,0.67-0.27-0.03,0.12,0.93c0.39,0.96,0.61,1.78,0.64,2.4c0.03,0.62-0.12,0.28-0.19,2.09
			c-0.07,1.81,0,2.78-0.33,3.46c-0.33,0.68,0.01,2.41-0.48,3.91c-0.49,1.5-0.58,2.35-1.19,3.33c-0.61,0.98-0.09,2.1-1.05,2.39
			c-0.97,0.28-0.65,0.71-1.59-0.04c-0.95-0.74-1.31,0.48-1.29-1.77C54.48,57.34,53.77,54.7,53.77,54.7z"/>
	</g>
	<g>
		<path class="st3" d="M65.23,59.4c0.37-0.41,1.4-1.97,1.62-2.35c0.22-0.39,0.04-1.01,0.96-1.2c0.92-0.2,1.63-0.82,1.77-0.94
			c0.14-0.12,0.33-0.76,0.6-1.11c0.27-0.35,0.67-1.4,1.29-1.83c0.63-0.43,2.48-1.06,2.63-1.08c0.15-0.03,0.29,0.26,0.76-0.13
			c0.47-0.39,0.31-0.88,1.16-1.11c0.86-0.23,1.61-0.4,1.61-0.4s0.91-0.65,1.46-0.76c0.56-0.1,0.98-0.02,1.6-0.09
			c0.62-0.06,0.3-0.12,1.25,0.05c0.96,0.17,1.67,0.46,1.85,1.01c0.18,0.55,0.07,0.89-0.13,1.77c-0.2,0.88-0.12,1.03-0.21,3.1
			c-0.09,2.07,0.1,2.73-0.76,3.71c-0.87,0.98-1.58,1.2-1.97,1.78c-0.4,0.58-0.14,0.96-1.29,1.39c-1.16,0.43-2.42,0.4-3.65,1.1
			c-1.23,0.69-0.76,0.67-2.29,1.04c-1.54,0.36-2.63,0.46-3.3,0.65c-0.66,0.19-0.75-0.14-1,0.44c-0.25,0.59,0.03,0.75-0.61,1.14
			c-0.64,0.39-1.17,0.35-1.61,0.21c-0.44-0.14-0.76-0.65-1.11-0.91c-0.35-0.26-1.54-1.4-1.54-1.4s-0.6-1.11-0.51-1.23
			c0.09-0.12,0.41-1.51,0.64-1.79C64.69,60.18,65.23,59.4,65.23,59.4z"/>
	</g>
	<g>
		<path class="st3" d="M65.17,69.11c0,0,3.7-0.6,4.25-0.88c0.54-0.28,2.24-1,2.78-1.34c0.54-0.34,1.72-0.93,2.18-1.01
			c0.46-0.07,1.28-0.2,1.48-0.24c0.2-0.03,1.77-0.41,2.28-0.95c0.51-0.54,0.97-1.39,1.89-0.66c0.92,0.73,2.6,2.09,2.98,2.6
			c0.38,0.52,1.2,1.62,1.48,2.51c0.28,0.9,1.31,1.96,0.91,3.71c-0.4,1.75,0.61,1.82-0.99,2.46c-1.61,0.64-2.51,0.65-3.22,0.43
			c-0.72-0.22-1.43-1.27-2.89-1.12c-1.46,0.15-2.37,0.47-3.11,0.52c-0.73,0.05-1.62,0.11-2.02-0.6c-0.4-0.71-1.54-1.53-2.02-1.56
			c-0.48-0.04-3.24,0.24-3.47,0.02c-0.23-0.22-0.32-0.57-0.83-0.89c-0.51-0.32-1.39-0.2-1.39-0.2l-0.79-0.5l-1.03-1.05L65.17,69.11z
			"/>
	</g>
	<g>
		<path class="st3" d="M53.25,69.49c-0.71,0.17-1.69,1.02-1.79,0.3c-0.09-0.72-0.26-0.8-1.26-0.89c-1-0.09-0.43,0.33-1.85-0.58
			c-1.42-0.91-1.52-0.94-1.99-1.33c-0.46-0.39-0.79-1.32-1.31-1.33c-0.52-0.01-1.91-0.03-2.38,0.26c-0.47,0.29-0.15,0.75-0.67,0.78
			c-0.51,0.04-0.86-0.21-1.21-0.15c-0.36,0.06-0.4-0.34-1.32,0.28c-0.92,0.61-0.9,0.31-1.86,0.98c-0.96,0.67-2.54,1.44-2.6,2.35
			c-0.05,0.91,0.35,1.56-0.24,2.41c-0.59,0.85-0.63,1-1.05,1.47c-0.42,0.46-0.29-0.21-0.98,1.05c-0.7,1.25,0.33,0.6-0.92,2.64
			c-1.25,2.02-1.45,1.7-1.7,2.78c-0.25,1.08-0.26,1.33,0.71,1.6c0.97,0.28,1.17,0.63,3.12,0.32c1.95-0.32,2.35-0.06,3.7-0.7
			c1.35-0.64,1.25-1.44,3.07-1.74c1.81-0.3,2.81-0.28,3.54-0.39c0.73-0.1,1.11,0.05,1.61-0.22c0.49-0.28,1.64-1.17,2.22-1.62
			c0.57-0.45-0.37-0.04,0.82-1.19c1.19-1.15,1.46-1.51,1.7-2.02c0.25-0.51,0.72-1.16,0.63-1.52c-0.09-0.35,0.7-1.48,0.7-1.48
			l0.88-0.83l0.53-0.35L53.25,69.49z"/>
	</g>
	<g>
		<path class="st0" d="M39.3,46.48c0.57-0.08,1.75-0.34,2.28-0.19c0.53,0.15,1.25,0.34,2.24,0.83c0.99,0.49,1.32,0.17,1.82,0.85
			c0.5,0.68,1.23,1.47,1.81,1.94c0.58,0.47,0.32,0.62,0.86,1.04c0.54,0.43,0.67,0.56,1.71,0.95c1.04,0.4,1.43,0.43,1.65,1.13
			c0.22,0.7,0.5,1.23,0.65,2c0.15,0.77,0.04,1.37-0.1,2.18c-0.14,0.81-0.13,1.08-0.11,1.49c0.02,0.42,0.58,1.71,0.57,1.92
			c-0.01,0.21,0.26,0.49,0.15,1.09c-0.11,0.6,0.41,1.37-0.55,0.5c-0.96-0.87-2.56-1.8-3.57-2.23c-1.01-0.43-2.94-1.54-3.39-1.73
			c-0.45-0.19-0.57-0.79-1.52-1.16c-0.94-0.37-1.22-0.27-1.91-1.03c-0.68-0.75-0.53-1.24-1.37-1.63c-0.83-0.39-0.28,0.36-0.83-0.39
			c-0.56-0.75-0.73-1.24-0.8-1.82c-0.07-0.59-0.33-0.34-0.44-1.33c-0.1-0.98-0.25-1.1-0.21-1.76c0.04-0.66-0.26,0.1-0.12-1.03
			C38.26,46.98,38.07,46.66,39.3,46.48z"/>
	</g>
	<g>
		<path class="st5" d="M58.39,62.43c-0.06-0.49,0.04-2.92-0.02-4.17c-0.06-1.25-0.26-3.21-0.51-3.92c-0.25-0.7-0.08-1.58,0.38-1.83
			c0.46-0.25,1.49-0.37,1.5-1.13c0.01-0.76-0.26-1,0.95-1.69c1.21-0.69,1.84-1.46,2.36-1.9c0.52-0.44,1.2-1.24,1.66-0.93
			c0.46,0.3,0.63,0.63,1.05,1.48c0.42,0.85-0.06,2.38-0.27,3.17c-0.21,0.79-0.22,1.13-0.3,2.5c-0.08,1.37,0.13,1.34-0.17,2.23
			c-0.3,0.9-0.09,0.54-1.02,1.86c-0.93,1.3-1.98,2.59-2.19,3.35c-0.22,0.76-0.92,1.43-1.43,2.01c-0.51,0.58-0.62,0.54-0.96,0.74
			c-0.34,0.2-1.07-0.06-1.09-0.26C58.3,63.75,58.39,62.43,58.39,62.43z"/>
	</g>
	<g>
		<path class="st6" d="M58.91,65.44c-0.05-0.39,0.39-2.02,0.65-3.01c0.26-1,0.91-2.44,1.01-2.91c0.1-0.48-0.72-0.31,0.79-1.23
			c1.5-0.94,2.75-1.78,2.75-1.78s0.24-0.04,0.74,0.34c0.5,0.38,0.88,2.83,0.94,3.66c0.06,0.83,0.43,3.2-0.01,3.86
			c-0.44,0.65-1.22,0.98-1.55,1.5c-0.34,0.52-1.01,1.07-1.22,1.32c-0.21,0.25-0.89,0.17-1.5,0.56c-0.61,0.39-2.24,0.45-2.24,0.45
			s-0.65-0.52-0.48-0.89c0.16-0.37,0.26-0.48,0.15-0.87C58.83,66.05,58.91,65.44,58.91,65.44z"/>
	</g>
	<g>
		<path class="st7" d="M57.14,70.31c-0.57-0.4-2.03-0.8-2.26-0.81c-0.23-0.01-0.8-0.11-1.03,0.43c-0.23,0.54-0.02,1.5-0.39,1.92
			c-0.37,0.41-0.58,0.9-0.38,1.21c0.19,0.32,1.36,0.34,1.52,0.66c0.16,0.32,1.52,0.25,0.85,1.06c-0.67,0.81-1.29,0.41-0.33,0.96
			c0.96,0.56,1.51,0.77,1.62,1.26c0.11,0.49-0.14,1.49-0.11,2.6c0.03,1.11-0.63,1.75,0.35,2.48c0.99,0.73,1.48,0.87,2.33,1.31
			c0.85,0.45,1.88,0.67,2.68,0.72c0.8,0.05,2.16-0.44,2.65-0.35c0.49,0.09,2.27-0.06,2.6-0.31c0.34-0.25,0.75-0.73,1.29-1.06
			c0.54-0.34,1.4-0.99,1.31-2.04c-0.09-1.04,0.21-1.98-0.36-2.69c-0.57-0.71-1.67-1.53-1.65-2.11c0.03-0.58,0.68-0.84-0.35-1.49
			c-1.03-0.64-1.23-0.61-1.41-1.2c-0.18-0.6-0.24-1.05-0.29-1.41c-0.05-0.36-0.29-1.26-0.64-1.76c-0.36-0.5-1.19-0.72-1.32-0.95
			c-0.13-0.23-0.24-0.49-0.61-0.85c-0.37-0.36-1.28,0.26-1.79,0.33c-0.51,0.08-1.73,0.35-1.92,0.49c-0.19,0.14-0.59,0.36-0.77,0.55
			c-0.18,0.19-0.52-0.01-0.84,0.35C57.56,69.98,57.14,70.31,57.14,70.31z"/>
	</g>
	<g>
		<path class="st4" d="M54.87,65.71c-0.17-0.08-1.5-1.18-1.7-1.65c-0.2-0.46-0.43-2.03-0.63-2.52c-0.2-0.48-0.38-1.04-0.88-1.33
			c-0.51-0.29-1.12-0.65-1.48-1.05c-0.36-0.4-0.29-0.51-0.78-0.78c-0.49-0.27-0.87-0.36-1.27-0.23c-0.4,0.12-1.21,0.78-1.9,0.64
			c-0.69-0.13-0.89-0.09-1.43,0.25c-0.53,0.34-1.38,0.68-1.38,0.68s-0.27,0.35,0.11,0.98c0.38,0.64,0.71,1.08,1.33,1.74
			c0.62,0.66,1.09,1.54,1.64,1.76c0.55,0.22,1.35,0.3,2.27,0.55c0.92,0.25,1.88,0.33,2.45,0.72c0.58,0.39,0.57,0.29,0.72,0.68
			c0.15,0.39-0.1,0.31,0.43,0.56c0.53,0.25-0.13,0.23,0.59,0.48c0.72,0.26,1.83,0.73,2.23,0.93c0.4,0.21,0.63,0.41,0.81,0.56
			c0.18,0.15,0.1,0.57,0.49,0.81c0.39,0.24-0.03,0.29,0.56-0.08c0.58-0.37,0.4-0.18,0.34-0.65c-0.06-0.47,0.06-1.09-0.51-1.42
			c-0.57-0.33-1.1-0.33-1.19-0.59C55.6,66.49,54.87,65.71,54.87,65.71z"/>
	</g>
	<g>
		<path class="st2" d="M55.83,66.22c-0.05-0.41-1.76-1.68-1.91-2.19c-0.14-0.51-0.63-2.34-0.77-2.92c-0.14-0.58-0.73-1.56-0.69-2.22
			c0.04-0.66,0.66-1.86,0.48-2.24c-0.18-0.38,1.04-1.52,0.95-1.81c-0.09-0.29,0.27-0.74,0.61-1.33c0.34-0.59,0.2-0.91,0.46-0.9
			c0.26,0.01,0.97-0.23,1.07,0.11c0.1,0.34,0.91,0.9,1.04,1.86c0.13,0.96,0.01,1.92,0.33,2.79c0.32,0.87,0.95,1.72,0.95,2.57
			c0,0.85,0.29,1.27,0.3,2.11c0.01,0.84-0.14,0.13,0.01,0.84c0.15,0.71,0.29,1.23,0.24,1.94c-0.05,0.71-0.59,0.99-0.73,1.57
			c-0.13,0.58-0.09,0.89-0.37,1.14c-0.28,0.25-0.13,0.34-0.53,0.07c-0.4-0.27-0.7-0.42-0.83-0.47
			C56.32,67.11,55.83,66.22,55.83,66.22z"/>
	</g>
	<g>
		<path class="st3" d="M55.85,65.16c0.07-0.26,0.32-0.81,0.55-1.1c0.22-0.3,0.68-0.39,0.81-0.16c0.14,0.24,0.13,0.97,0.13,1.02
			c0.01,0.05,0.55-0.09,0.08,0.25c-0.48,0.33-1.11,0.47-1.16,0.63c-0.05,0.16-0.05,0.16-0.05,0.16L55.85,65.16z"/>
	</g>
	<g>
		<path class="st3" d="M58.02,65.22c0.31,0.02,0.71,0.02,0.43,0.61c-0.28,0.58,0.1,0.7-0.33,0.82c-0.43,0.12-1.16,0.15-1.16,0.15
			l-0.03-0.22C56.94,66.58,57.18,65.17,58.02,65.22z"/>
	</g>
	<g>
		<path class="st8" d="M59.15,65.57c0.23-0.08,2.22-2.2,2.67-2.77s1.34-3.01,1.34-3.01"/>
		<g>
			<path class="st8" d="M51.08,70.44c0,0-10.05,3.71-10.33,4.06s-2.79,1.96-4.75,3.39c-1.96,1.43-3.89,3.22-3.89,3.22"/>
			<g>
				<g>
					<path class="st8" d="M22.88,51.02c6.35,2.34,19.71,10.06,20.37,10.1"/>
					<path class="st8" d="M20.92,60.37c0,0,6.63,1.68,8.92,2.21s9.38,2.87,9.38,2.87"/>
					<path class="st8" d="M57.59,69.96c0,0,0.64,3.93,2.3,5.46c1.66,1.52,4.27,3.81,4.56,4.67c0.29,0.86,2.05,2.63,2.05,2.63"/>
					<path class="st8" d="M66.33,71.16c0,0,3.93,0.51,4.64,0.66s5.06,0.26,6.03,0.39s2.45,1.3,3.08,1.25c0.63-0.05,2,0.71,2.44,0.87
						c0.44,0.15,1.03,0.39,1.03,0.39"/>
					<path class="st8" d="M66.62,62.71c0.33-0.31,10.58-6.66,10.86-6.91c0.28-0.25,5-3.72,5-3.72"/>
					<path class="st8" d="M63.44,49.7c0,0-1.94,5.85-1.96,6.18c-0.02,0.33-1.8,3.64-1.64,4.14s-0.41,1.69-0.41,1.69"/>
					<path class="st8" d="M55.47,54.27c0,0-0.54,3.83-0.17,4.41s0.71,3.4,0.85,3.69s0.33,2.47,0.33,2.47"/>
					<path class="st8" d="M44.9,60.14c0,0,3.75,1.56,4.07,1.57s2.46,0.99,3.11,1.49c0.65,0.49,1.52,1.39,1.52,1.39"/>
					<path class="st8" d="M40.7,47.74c0,0,4.38,5.49,5.11,5.98c0.72,0.48,1.49,1.86,1.67,2c0.18,0.13,1.86,1.8,1.86,1.8"/>
					<path class="st8" d="M43.8,38.81c0,0,2.74,6.34,3.2,6.84s2.42,5.21,2.42,5.21"/>
					<path class="st8" d="M56.75,41.82c0,0-0.15,3.88-0.18,4.65c-0.03,0.77,0.1,5.57,0.1,5.57"/>
					<line class="st8" x1="30.27" y1="40.63" x2="37.57" y2="46.26"/>
				</g>
				<line class="st8" x1="71.75" y1="40.68" x2="66.59" y2="47.8"/>
			</g>
		</g>
	</g>
</g>
</svg>
