<?xml version="1.0" encoding="utf-8"?>
<!-- Generator: Adobe Illustrator 23.1.1, SVG Export Plug-In . SVG Version: 6.00 Build 0)  -->
<svg version="1.1" id="Layer_1" xmlns="http://www.w3.org/2000/svg" xmlns:xlink="http://www.w3.org/1999/xlink" x="0px" y="0px"
	 viewBox="0 0 108 108" style="enable-background:new 0 0 108 108;" xml:space="preserve">
<style type="text/css">
	.st0{fill:#7CA272;}
	.st1{fill:#547E39;}
	.st2{fill:#84A361;}
	.st3{fill:#5F8C3D;}
	.st4{fill:#7E9D3D;}
	.st5{fill:#C3D666;}
	.st6{fill:#DAE083;}
	.st7{fill:none;stroke:#C6B65A;stroke-width:0.5886;stroke-linecap:round;stroke-miterlimit:10;}
	.st8{fill:none;stroke:#DCBD58;stroke-width:0.5886;stroke-linecap:round;stroke-miterlimit:10;}
	.st9{fill:none;stroke:#B6A854;stroke-width:0.5886;stroke-linecap:round;stroke-miterlimit:10;}
	.st10{fill:none;stroke:#D3BB6D;stroke-width:0.5886;stroke-linecap:round;stroke-miterlimit:10;}
</style>
<g>
	<g>
		<polygon class="st0" points="52.93,34.84 51.28,34.84 51.28,38.92 51.87,38.92 52.58,37.13 		"/>
		<polygon class="st1" points="52.62,34.04 53.84,34.61 53.84,37.36 52.62,40.61 51.75,40.61 51.28,39.61 		"/>
		<path class="st2" d="M48.69,34.84l1.73-0.63l2.75,7.36l-1.06,1.43c0,0-0.79-0.36-0.83-0.53c-0.04-0.17-3.03-6.7-3.03-6.7V35.1
			L48.69,34.84z"/>
		<path class="st0" d="M56.23,34.84l-1.61-0.4l-2.87,7.69c0,0,1.61,1.23,1.73,1.13s0.86-2.59,0.9-2.65
			c0.04-0.07,2.36-3.88,2.36-4.18C56.74,36.13,56.23,34.84,56.23,34.84z"/>
		<path class="st1" d="M44.52,34.84l3.73-1.03l4.68,9.32l-1.65,2.02c0,0-2.16-0.8-2.16-0.99s-3.54-6.03-3.61-6.27
			C45.43,37.66,44.52,34.84,44.52,34.84z"/>
		<path class="st3" d="M59.93,35.6l-4.05-1.56l-5.46,11.74c0,0,4.24,4.51,4.36,4.41c0.12-0.1,3.73-5.9,3.81-6
			c0.08-0.1,0.67-6.13,0.67-6.13L59.93,35.6z"/>
		<path class="st3" d="M43.93,33.22c0,0-1.73,0.5-1.96,0.83c-0.24,0.33-0.9,0.8-0.98,0.93c-0.08,0.13-0.28,0.6-0.28,0.6
			S46.92,52.71,47,52.91c0.08,0.2,1.85,6.37,1.73,6.5c-0.12,0.13-0.07,2.98,0.01,3.22s1.72,0.03,1.98-0.3s2.46-6.33,2.46-6.33
			s1.77-5.37,1.81-5.57c0.04-0.2-1.77-2.95-1.81-3.28c-0.04-0.33-3.65-5.14-3.97-5.77c-0.31-0.63-3.42-5.6-3.54-5.83
			s-1.14-2.32-1.14-2.32H43.93z"/>
		<path class="st4" d="M61.97,34.21c0,0-5.66,9.65-5.78,10.18c-0.12,0.53-4.2,9.91-4.44,10.11s-1.96,6.23-2.16,6.6
			c-0.2,0.36,0.16,5.6,0.28,5.74c0.12,0.13,2.19,8.39,2.17,8.52c-0.01,0.13,0,4.94,0,4.94s-0.26,3.61,0,3.55
			c0.26-0.07,3.07-0.13,3.71-0.36s1.23-0.4,1.42-0.66c0.2-0.27,0.47-0.63,0.47-0.93c0-0.3-0.08-11.93-0.04-12.3
			c0.04-0.36-0.16-8.65-0.16-9.35c0-0.7,1.41-5.97,1.73-6.6c0.31-0.63,2.44-7.96,3.03-8.92c0.59-0.96,3.42-5.64,3.69-6.12
			c0.28-0.48,1.14-2.01,1.14-2.01s-1.77-0.9-2.16-1.23s-0.79-0.53-1.02-0.53c-0.24,0-0.35,0.2-0.59,0
			C63.03,34.64,61.97,34.21,61.97,34.21z"/>
		<path class="st5" d="M49.39,63.28l-0.34-1.59c0,0,1.2-1.74,2.35-2.31c1.15-0.57,2.69-0.34,3.45-0.36
			c0.76-0.02,0.94,0.78,1.33,1.08c0.38,0.3,0.98,2.16,1.16,2.62c0.17,0.46,0,12,0,12l-0.43,6.73c0,0-1.23,1.33-1.73,1.33
			s-2.17-1.59-2.34-2.19c-0.16-0.6-1.53-7.03-1.55-8.39c-0.03-1.36-0.76-4.94-0.86-5.74S49.39,63.28,49.39,63.28z"/>
		<path class="st6" d="M49.08,61c0,0,0.92,1.07,1.11,1.58c0.19,0.51,2.62,7.37,2.86,7.74c0.24,0.36,2.91,6.43,2.99,6.56
			c0.08,0.13,0.83,4.31,0.86,4.57c0.04,0.27-0.04,1.09-0.43,1.36c-0.39,0.27-1.93,0.86-2.51,0.89c-0.59,0.04-2.09,0.1-2.56,0
			c-0.47-0.1-2.08-0.2-2.32-0.56c-0.24-0.36-0.24-0.76-0.28-1.03c-0.04-0.27-0.43-6.8-0.43-7.69s-0.43-9.08-0.24-9.58
			c0.2-0.5,0.62-2.02,0.6-2.22c-0.03-0.2-0.07-1.36-0.07-1.36L49.08,61z"/>
		<path class="st7" d="M52.62,81.95c-0.39,0.77-0.46,0.55-0.46,1.99c0,1.44,0.39,1.55,0.23,2.21s-0.37,2.46-0.31,2.63"/>
		<path class="st7" d="M52.5,81.94c-0.21,0.82-0.33,0.62,0,2.03s0.73,1.46,0.72,2.13c-0.01,0.68,0.18,2.48,0.28,2.63"/>
		<path class="st8" d="M53.38,81.9c-0.21,0.82-0.33,0.62,0,2.03s0.73,1.46,0.72,2.13c-0.01,0.68,0.18,2.48,0.28,2.63"/>
		<path class="st7" d="M54.33,81.89c-0.21,0.82-0.33,0.62,0,2.03c0.32,1.41,0.73,1.46,0.72,2.13c-0.01,0.68,0.18,2.48,0.28,2.63"/>
		<path class="st9" d="M55.24,81.76c-0.21,0.82-0.33,0.62,0,2.03c0.32,1.41,0.73,1.46,0.72,2.13c-0.01,0.68,0.18,2.48,0.28,2.63"/>
		<path class="st7" d="M55.68,81.84c-0.1,0.84-0.24,0.64,0.28,2.01c0.52,1.37,0.93,1.37,1.01,2.05s0.53,2.44,0.65,2.58"/>
		<path class="st7" d="M56.19,82c0.07,0.84-0.11,0.67,0.68,1.94c0.78,1.27,1.19,1.22,1.41,1.87c0.22,0.65,1.01,2.33,1.16,2.45"/>
		<path class="st7" d="M52.14,82.58c-0.79,0.51-0.72,0.29-1.56,1.54s-0.57,1.51-1.1,2.01c-0.53,0.51-1.77,1.98-1.81,2.15"/>
		<path class="st9" d="M51.95,81.84c0,0-1.6,1.08-1.6,1.36c0,0.28,0.11,1.28,0.18,1.82c0.07,0.54,0.47,2.93,0.47,2.93"/>
		<path class="st8" d="M51.46,81.65c0,0-2.49,2.25-2.96,3.05c-0.48,0.8-1.23,2.95-1.36,3.11c-0.12,0.16-1.06,1.21-1.08,1.34
			s-0.21,0.83-0.21,0.83"/>
		<path class="st9" d="M52.3,81.17c0,0-4.01,3.86-4.37,4.11c-0.35,0.25-1.2,1.04-1.9,1.67c-0.71,0.62-1.55,1.55-1.59,1.73
			c-0.04,0.18-0.14,1.16-0.14,1.16"/>
		<path class="st7" d="M49.37,83.66c0,0,0.04,1.1-0.26,1.9c-0.3,0.8-0.19,1.8-0.18,2.28s0.2,1.13,0.2,1.13"/>
		<path class="st10" d="M50.8,84.45c0.02,0.07,0.97,3.28,0.34,3.82c-0.63,0.54-0.73,0.6-0.8,0.81c-0.07,0.21-0.53,1.21-0.53,1.21"/>
		<path class="st8" d="M49.9,84.19c0,0,0.26,2.32,0,2.63c-0.26,0.31-0.65,0.73-0.97,1.01c-0.32,0.28-1.66,1.85-1.66,1.85"/>
		<path class="st7" d="M51.15,83.91l1.09,3.03c0,0,0.97,0.78,0.94,0.86c-0.03,0.07,0.25,0.68,0.32,0.76s0.8,0.79,0.76,0.98
			c-0.04,0.19,0.07,0.45,0.07,0.45"/>
		<path class="st7" d="M52.16,83.45c0,0,0.37,0.43,0.88,1c0.51,0.57,0.95,1.77,1.07,2.17c0.13,0.4,0.11,0.75,0.41,1.18
			c0.3,0.43,0.27,0.97,0.51,1.18c0.24,0.21,0.43,0.36,0.6,1.09"/>
		<path class="st9" d="M55.6,82.41c0.07,0.03,2.82,2.2,3.11,2.34c0.28,0.13,0.6,0.91,0.63,1.25c0.04,0.34,0.34,1.8,0.62,2.48
			c0.28,0.69,0.76,1.37,0.86,1.45"/>
		<path class="st8" d="M53.78,82.5c0,0,1.73,1.49,2.61,2.07c0.88,0.58,0.95,0.52,1.22,1.25c0.28,0.73,0.28,0.94,1.02,1.38
			c0.74,0.45,1.09,0.58,1.22,0.65c0.12,0.07,0.71,0.41,0.71,0.41"/>
		<path class="st10" d="M54.24,84.34c0.26,0.21,1.54,0.97,1.72,1.7s0.84,1.73,0.89,1.83c0.05,0.1,0.14,0.4,0.12,0.68
			c-0.02,0.28,0.19,1.03,0.39,1.13"/>
		<path class="st9" d="M53.5,82.78c0.66,0.36,1.86,0.74,2.22,1.3c0.36,0.56,1.17,1.48,1.08,1.83c-0.09,0.34,0.39,0.92,1.02,1.46
			c0.62,0.54,0.68,0.77,0.82,1.28c0.14,0.51,0.32,1.24,0.39,1.28"/>
		<path class="st7" d="M56.82,83.58c-0.16,0.31-1.17,1.67-1.18,2.01c-0.01,0.34-0.05,0.83,0,1.35c0.05,0.52,0.21,1.56,0.44,2.02
			s0.32,0.71,0.32,0.71"/>
		<path class="st9" d="M55.14,83.33c0,0-0.78,0.03-1.36,0.92s-0.87,1.35-0.88,1.82s0.19,1.34,0,1.59c-0.19,0.25-0.28,0.82-0.28,0.82
			s0.36,0.79,0.28,0.88"/>
		<path class="st7" d="M53.88,82.41c-0.41,0.25-0.62,0.67-1.81,1.18s-2.53,0.92-3.16,1.62c-0.64,0.7-0.69,1.28-0.92,1.74
			c-0.23,0.46-0.63,1.2-0.81,1.61"/>
		<path class="st8" d="M53.03,82.18c-0.12,0.15-1.01,2.1-1.08,2.71c-0.07,0.61-0.46,1.71-0.39,2.24c0.07,0.52,0.07,0.93-0.01,1.43
			c-0.08,0.49-0.13,1.12-0.27,1.37"/>
		<path class="st7" d="M50.59,81.37c-0.36,0.44-0.37,0.89-0.57,1.49c-0.2,0.6,0.09,0.82-0.2,1.33c-0.29,0.52-0.28,0.86-0.28,0.86"/>
		<path class="st7" d="M49.53,81.43c-0.16,0.29-0.21,0.65-0.23,1.15c-0.02,0.5-0.27,0.77-0.4,1.25s-0.2,1.45-0.26,1.52"/>
		<path class="st7" d="M53.03,81.17c0.38,0.23,0.87,0.32,0.76,1.01s-0.03,1.1,0.1,1.22c0.13,0.11,0.19,0.72,0.36,0.8"/>
		<path class="st8" d="M54.55,81.17c0.08,0.21,0.51,1.1,0.4,1.32c-0.11,0.22-0.36,0.38-0.19,0.59"/>
		<path class="st7" d="M61.38,81.9"/>
		<path class="st7" d="M56.6,81.07c0,0,1.15,1.01,0.81,1.62s-0.22,0.75-0.24,1.32s0.08,1.08,0.2,1.28"/>
		<path class="st10" d="M55.94,81.17c-0.04,0.1-0.5,1.13-0.62,1.41c-0.12,0.28,0.3,1.4,0.11,2.47c-0.19,1.06,0.55,1.51,0.37,2.31
			c-0.18,0.8,0.27,1.28-0.16,1.67c-0.43,0.4-0.86,0.75-0.92,1.17"/>
		<path class="st10" d="M49.09,80.91c-0.07,0.08-0.33,0.58-0.32,0.74c0.01,0.16,0.02,0.75-0.12,1.13c-0.14,0.38-0.12,0.97-0.1,1.24
			s0.27,1.1,0.35,1.34s0.71,0.58,0.47,1.27c-0.24,0.69-0.01,0.97-0.28,1.54c-0.28,0.57-0.16,1.38-0.33,1.51"/>
		<path class="st7" d="M51.46,80.91c0,0,0.54,0.5,0.86,1.27c0.33,0.79-0.62,0.43-1.07,1.81c-0.45,1.38-0.11,1.58-0.47,2.18
			c-0.37,0.6-1.13,2.29-1.12,2.47"/>
		<path class="st7" d="M53.88,85.05c0.33,0.75,1.07,1.44,1.09,1.58c0.02,0.15,0.3,0.42,0.37,1.13c0.06,0.71,0.31,1.27,0.31,1.27"/>
	</g>
	<g>
		<polygon class="st0" points="40.35,25.68 38.7,25.68 38.7,29.76 39.29,29.76 40,27.96 		"/>
		<polygon class="st1" points="40.04,24.88 41.26,25.45 41.26,28.2 40.04,31.45 39.17,31.45 38.7,30.45 		"/>
		<path class="st2" d="M36.11,25.68l1.73-0.63l2.75,7.36l-1.06,1.43c0,0-0.79-0.36-0.83-0.53s-3.03-6.7-3.03-6.7v-0.66L36.11,25.68z
			"/>
		<path class="st0" d="M43.65,25.68l-1.61-0.4l-2.87,7.69c0,0,1.61,1.23,1.73,1.13c0.12-0.1,0.86-2.59,0.9-2.65
			c0.04-0.07,2.36-3.88,2.36-4.18S43.65,25.68,43.65,25.68z"/>
		<path class="st1" d="M31.95,25.68l3.73-1.03l4.68,9.32l-1.65,2.02c0,0-2.16-0.8-2.16-0.99c0-0.2-3.54-6.03-3.61-6.27
			C32.85,28.5,31.95,25.68,31.95,25.68z"/>
		<path class="st3" d="M47.35,26.44l-4.05-1.56l-5.46,11.74c0,0,4.24,4.51,4.36,4.41s3.73-5.9,3.81-6c0.08-0.1,0.67-6.13,0.67-6.13
			L47.35,26.44z"/>
		<path class="st3" d="M31.36,24.05c0,0-1.73,0.5-1.96,0.83c-0.24,0.33-0.9,0.8-0.98,0.93c-0.08,0.13-0.28,0.6-0.28,0.6
			s6.21,17.14,6.29,17.34c0.08,0.2,1.85,6.37,1.73,6.5c-0.12,0.13-0.07,2.98,0.01,3.22c0.07,0.23,1.72,0.03,1.98-0.3
			s2.46-6.33,2.46-6.33s1.77-5.37,1.81-5.57c0.04-0.2-1.77-2.95-1.81-3.28s-3.65-5.14-3.97-5.77c-0.31-0.63-3.42-5.6-3.54-5.83
			c-0.12-0.23-1.14-2.32-1.14-2.32H31.36z"/>
		<path class="st4" d="M49.39,25.05c0,0-5.66,9.65-5.78,10.18c-0.12,0.53-4.2,9.91-4.44,10.11c-0.24,0.2-1.96,6.23-2.16,6.6
			c-0.2,0.36,0.16,5.6,0.28,5.74c0.12,0.13,2.19,8.39,2.17,8.52c-0.01,0.13,0,4.94,0,4.94s-0.26,3.61,0,3.55
			c0.26-0.07,3.07-0.13,3.71-0.36c0.64-0.23,1.23-0.4,1.42-0.66c0.2-0.27,0.47-0.63,0.47-0.93c0-0.3-0.08-11.93-0.04-12.3
			c0.04-0.36-0.16-8.65-0.16-9.35c0-0.7,1.41-5.97,1.73-6.6c0.31-0.63,2.44-7.96,3.03-8.92s3.42-5.64,3.69-6.12
			c0.28-0.48,1.14-2.01,1.14-2.01s-1.77-0.9-2.16-1.23s-0.79-0.53-1.02-0.53s-0.35,0.2-0.59,0C50.45,25.48,49.39,25.05,49.39,25.05z
			"/>
		<path class="st5" d="M36.82,54.12l-0.34-1.59c0,0,1.2-1.74,2.35-2.31c1.15-0.57,2.69-0.34,3.45-0.36
			c0.76-0.02,0.94,0.78,1.33,1.08c0.38,0.3,0.98,2.16,1.16,2.62c0.17,0.46,0,12,0,12l-0.43,6.73c0,0-1.23,1.33-1.73,1.33
			s-2.17-1.59-2.34-2.19c-0.16-0.6-1.53-7.03-1.55-8.39c-0.03-1.36-0.76-4.94-0.86-5.74S36.82,54.12,36.82,54.12z"/>
		<path class="st6" d="M36.5,51.83c0,0,0.92,1.07,1.11,1.58c0.19,0.51,2.62,7.37,2.86,7.74c0.24,0.36,2.91,6.43,2.99,6.56
			c0.08,0.13,0.83,4.31,0.86,4.57c0.04,0.27-0.04,1.09-0.43,1.36c-0.39,0.27-1.93,0.86-2.51,0.89s-2.09,0.1-2.56,0
			c-0.47-0.1-2.08-0.2-2.32-0.56c-0.24-0.36-0.24-0.76-0.28-1.03c-0.04-0.27-0.43-6.8-0.43-7.69s-0.43-9.08-0.24-9.58
			c0.2-0.5,0.62-2.02,0.6-2.22c-0.03-0.2-0.07-1.36-0.07-1.36L36.5,51.83z"/>
		<path class="st7" d="M40.04,72.79c-0.39,0.77-0.46,0.55-0.46,1.99c0,1.44,0.39,1.55,0.23,2.21c-0.16,0.66-0.37,2.46-0.31,2.63"/>
		<path class="st7" d="M39.92,72.78c-0.21,0.82-0.33,0.62,0,2.03c0.32,1.41,0.73,1.46,0.72,2.13c-0.01,0.68,0.18,2.48,0.28,2.63"/>
		<path class="st8" d="M40.81,72.74c-0.21,0.82-0.33,0.62,0,2.03s0.73,1.46,0.72,2.13c-0.01,0.68,0.18,2.48,0.28,2.63"/>
		<path class="st7" d="M41.75,72.73c-0.21,0.82-0.33,0.62,0,2.03s0.73,1.46,0.72,2.13c-0.01,0.68,0.18,2.48,0.28,2.63"/>
		<path class="st9" d="M42.67,72.6c-0.21,0.82-0.33,0.62,0,2.03s0.73,1.46,0.72,2.13c-0.01,0.68,0.18,2.48,0.28,2.63"/>
		<path class="st7" d="M43.1,72.67c-0.1,0.84-0.24,0.64,0.28,2.01c0.52,1.37,0.93,1.37,1.01,2.05c0.08,0.67,0.53,2.44,0.65,2.58"/>
		<path class="st7" d="M43.61,72.83c0.07,0.84-0.11,0.67,0.68,1.94c0.78,1.27,1.19,1.22,1.41,1.87c0.22,0.65,1.01,2.33,1.16,2.45"/>
		<path class="st7" d="M39.56,73.42c-0.79,0.51-0.72,0.29-1.56,1.54s-0.57,1.51-1.1,2.01c-0.53,0.51-1.77,1.98-1.81,2.15"/>
		<path class="st9" d="M39.37,72.67c0,0-1.6,1.08-1.6,1.36c0,0.28,0.11,1.28,0.18,1.82c0.07,0.54,0.47,2.93,0.47,2.93"/>
		<path class="st8" d="M38.88,72.49c0,0-2.49,2.25-2.96,3.05c-0.48,0.8-1.23,2.95-1.36,3.11c-0.12,0.16-1.06,1.21-1.08,1.34
			s-0.21,0.83-0.21,0.83"/>
		<path class="st9" d="M39.72,72.01c0,0-4.01,3.86-4.37,4.11c-0.35,0.25-1.2,1.04-1.9,1.67c-0.71,0.62-1.55,1.55-1.59,1.73
			c-0.04,0.18-0.14,1.16-0.14,1.16"/>
		<path class="st7" d="M36.79,74.5c0,0,0.04,1.1-0.26,1.9c-0.3,0.8-0.19,1.8-0.18,2.28s0.2,1.13,0.2,1.13"/>
		<path class="st10" d="M38.23,75.29c0.02,0.07,0.97,3.28,0.34,3.82c-0.63,0.54-0.73,0.6-0.8,0.81c-0.07,0.21-0.53,1.21-0.53,1.21"
			/>
		<path class="st8" d="M37.32,75.03c0,0,0.26,2.32,0,2.63c-0.26,0.31-0.65,0.73-0.97,1.01s-1.66,1.85-1.66,1.85"/>
		<path class="st7" d="M38.57,74.75l1.09,3.03c0,0,0.97,0.78,0.94,0.86c-0.03,0.07,0.25,0.68,0.32,0.76
			c0.07,0.08,0.8,0.79,0.76,0.98s0.07,0.45,0.07,0.45"/>
		<path class="st7" d="M39.58,74.29c0,0,0.37,0.43,0.88,1c0.51,0.57,0.95,1.77,1.07,2.17s0.11,0.75,0.41,1.18
			c0.3,0.43,0.27,0.97,0.51,1.18c0.24,0.21,0.43,0.36,0.6,1.09"/>
		<path class="st9" d="M43.02,73.25c0.07,0.03,2.82,2.2,3.11,2.34s0.6,0.91,0.63,1.25c0.04,0.34,0.34,1.8,0.62,2.48
			s0.76,1.37,0.86,1.45"/>
		<path class="st8" d="M41.2,73.34c0,0,1.73,1.49,2.61,2.07c0.88,0.58,0.95,0.52,1.22,1.25s0.28,0.94,1.02,1.38
			c0.74,0.45,1.09,0.58,1.22,0.65c0.12,0.07,0.71,0.41,0.71,0.41"/>
		<path class="st10" d="M41.66,75.18c0.26,0.21,1.54,0.97,1.72,1.7c0.17,0.73,0.84,1.73,0.89,1.83c0.05,0.1,0.14,0.4,0.12,0.68
			c-0.02,0.28,0.19,1.03,0.39,1.13"/>
		<path class="st9" d="M40.92,73.62c0.66,0.36,1.86,0.74,2.22,1.3c0.36,0.56,1.17,1.48,1.08,1.83c-0.09,0.34,0.39,0.92,1.02,1.46
			c0.62,0.54,0.68,0.77,0.82,1.28c0.14,0.51,0.32,1.24,0.39,1.28"/>
		<path class="st7" d="M44.24,74.42c-0.16,0.31-1.17,1.67-1.18,2.01s-0.05,0.83,0,1.35c0.05,0.52,0.21,1.56,0.44,2.02
			c0.23,0.46,0.32,0.71,0.32,0.71"/>
		<path class="st9" d="M42.56,74.17c0,0-0.78,0.03-1.36,0.92c-0.58,0.89-0.87,1.35-0.88,1.82c-0.01,0.46,0.19,1.34,0,1.59
			c-0.19,0.25-0.28,0.82-0.28,0.82s0.36,0.79,0.28,0.88"/>
		<path class="st7" d="M41.3,73.25c-0.41,0.25-0.62,0.67-1.81,1.18s-2.53,0.92-3.16,1.62c-0.64,0.7-0.69,1.28-0.92,1.74
			c-0.23,0.46-0.63,1.2-0.81,1.61"/>
		<path class="st8" d="M40.45,73.02c-0.12,0.15-1.01,2.1-1.08,2.71c-0.07,0.61-0.46,1.71-0.39,2.24c0.07,0.52,0.07,0.93-0.01,1.43
			s-0.13,1.12-0.27,1.37"/>
		<path class="st7" d="M38.01,72.21c-0.36,0.44-0.37,0.89-0.57,1.49c-0.2,0.6,0.09,0.82-0.2,1.33s-0.28,0.86-0.28,0.86"/>
		<path class="st7" d="M36.96,72.27c-0.16,0.29-0.21,0.65-0.23,1.15c-0.02,0.5-0.27,0.77-0.4,1.25c-0.13,0.49-0.2,1.45-0.26,1.52"/>
		<path class="st7" d="M40.45,72.01c0.38,0.23,0.87,0.32,0.76,1.01s-0.03,1.1,0.1,1.22c0.13,0.11,0.19,0.72,0.36,0.8"/>
		<path class="st8" d="M41.97,72.01c0.08,0.21,0.51,1.1,0.4,1.32s-0.36,0.38-0.19,0.59"/>
		<path class="st7" d="M48.8,72.74"/>
		<path class="st7" d="M44.02,71.91c0,0,1.15,1.01,0.81,1.62s-0.22,0.75-0.24,1.32c-0.02,0.57,0.08,1.08,0.2,1.28"/>
		<path class="st10" d="M43.36,72.01c-0.04,0.1-0.5,1.13-0.62,1.41c-0.12,0.28,0.3,1.4,0.11,2.47c-0.19,1.06,0.55,1.51,0.37,2.31
			c-0.18,0.8,0.27,1.28-0.16,1.67c-0.43,0.4-0.86,0.75-0.92,1.17"/>
		<path class="st10" d="M36.51,71.75c-0.07,0.08-0.33,0.58-0.32,0.74s0.02,0.75-0.12,1.13c-0.14,0.38-0.12,0.97-0.1,1.24
			c0.02,0.27,0.27,1.1,0.35,1.34c0.08,0.24,0.71,0.58,0.47,1.27c-0.24,0.69-0.01,0.97-0.28,1.54s-0.16,1.38-0.33,1.51"/>
		<path class="st7" d="M38.88,71.75c0,0,0.54,0.5,0.86,1.27c0.33,0.79-0.62,0.43-1.07,1.81c-0.45,1.38-0.11,1.58-0.47,2.18
			c-0.37,0.6-1.13,2.29-1.12,2.47"/>
		<path class="st7" d="M41.3,75.89c0.33,0.75,1.07,1.44,1.09,1.58c0.02,0.15,0.3,0.42,0.37,1.13c0.06,0.71,0.31,1.27,0.31,1.27"/>
	</g>
	<g>
		<polygon class="st0" points="67.9,29.6 69.55,29.6 69.55,33.68 68.96,33.68 68.25,31.89 		"/>
		<polygon class="st1" points="68.21,28.81 67,29.37 67,32.12 68.21,35.37 69.08,35.37 69.55,34.38 		"/>
		<path class="st2" d="M72.14,29.6l-1.73-0.63l-2.75,7.36l1.06,1.43c0,0,0.79-0.36,0.83-0.53s3.03-6.7,3.03-6.7v-0.66L72.14,29.6z"
			/>
		<path class="st0" d="M64.6,29.6l1.61-0.4l2.87,7.69c0,0-1.61,1.23-1.73,1.13c-0.12-0.1-0.86-2.59-0.9-2.65
			c-0.04-0.07-2.36-3.88-2.36-4.18C64.09,30.9,64.6,29.6,64.6,29.6z"/>
		<path class="st1" d="M76.31,29.6l-3.73-1.03l-4.68,9.32l1.65,2.02c0,0,2.16-0.8,2.16-0.99c0-0.2,3.54-6.03,3.61-6.27
			C75.41,32.42,76.31,29.6,76.31,29.6z"/>
		<path class="st3" d="M60.91,30.37l4.05-1.56l5.46,11.74c0,0-4.24,4.51-4.36,4.41c-0.12-0.1-3.73-5.9-3.81-6
			c-0.08-0.1-0.67-6.13-0.67-6.13L60.91,30.37z"/>
		<path class="st3" d="M76.9,27.98c0,0,1.73,0.5,1.96,0.83s0.9,0.8,0.98,0.93s0.28,0.6,0.28,0.6s-6.21,17.14-6.29,17.34
			c-0.08,0.2-1.85,6.37-1.73,6.5c0.12,0.13,0.07,2.98-0.01,3.22s-1.72,0.03-1.98-0.3s-2.46-6.33-2.46-6.33s-1.77-5.37-1.81-5.57
			c-0.04-0.2,1.77-2.95,1.81-3.28s3.65-5.14,3.97-5.77c0.31-0.63,3.42-5.6,3.54-5.83c0.12-0.23,1.14-2.32,1.14-2.32H76.9z"/>
		<path class="st4" d="M58.86,28.97c0,0,5.66,9.65,5.78,10.18c0.12,0.53,4.2,9.91,4.44,10.11c0.24,0.2,1.96,6.23,2.16,6.6
			c0.2,0.36-0.16,5.6-0.28,5.74c-0.12,0.13-2.19,8.39-2.17,8.52c0.01,0.13,0,4.94,0,4.94s0.26,3.61,0,3.55
			c-0.26-0.07-3.07-0.13-3.71-0.36s-1.23-0.4-1.42-0.66c-0.2-0.27-0.47-0.63-0.47-0.93c0-0.3,0.08-11.93,0.04-12.3
			c-0.04-0.36,0.16-8.65,0.16-9.35c0-0.7-1.41-5.97-1.73-6.6c-0.31-0.63-2.44-7.96-3.03-8.92c-0.59-0.96-3.42-5.64-3.69-6.12
			s-1.14-2.01-1.14-2.01s1.77-0.9,2.16-1.23s0.79-0.53,1.02-0.53s0.35,0.2,0.59,0S58.86,28.97,58.86,28.97z"/>
		<path class="st5" d="M71.44,58.05l0.34-1.59c0,0-1.2-1.74-2.35-2.31c-1.15-0.57-2.69-0.34-3.45-0.36
			c-0.76-0.02-0.94,0.78-1.33,1.08c-0.38,0.3-0.98,2.16-1.16,2.62c-0.17,0.46,0,12,0,12l0.43,6.73c0,0,1.23,1.33,1.73,1.33
			s2.17-1.59,2.34-2.19c0.16-0.6,1.53-7.03,1.55-8.39c0.03-1.36,0.76-4.94,0.86-5.74C70.52,60.44,71.44,58.05,71.44,58.05z"/>
		<path class="st6" d="M71.75,55.76c0,0-0.92,1.07-1.11,1.58s-2.62,7.37-2.86,7.74c-0.24,0.36-2.91,6.43-2.99,6.56
			c-0.08,0.13-0.83,4.31-0.86,4.57c-0.04,0.27,0.04,1.09,0.43,1.36c0.39,0.27,1.93,0.86,2.51,0.89s2.09,0.1,2.56,0
			c0.47-0.1,2.08-0.2,2.32-0.56s0.24-0.76,0.28-1.03c0.04-0.27,0.43-6.8,0.43-7.69s0.43-9.08,0.24-9.58c-0.2-0.5-0.62-2.02-0.6-2.22
			s0.07-1.36,0.07-1.36L71.75,55.76z"/>
		<path class="st7" d="M68.22,76.72c0.39,0.77,0.46,0.55,0.46,1.99c0,1.44-0.39,1.55-0.23,2.21s0.37,2.46,0.31,2.63"/>
		<path class="st7" d="M68.33,76.7c0.21,0.82,0.33,0.62,0,2.03s-0.73,1.46-0.72,2.13c0.01,0.68-0.18,2.48-0.28,2.63"/>
		<path class="st8" d="M67.45,76.67c0.21,0.82,0.33,0.62,0,2.03s-0.73,1.46-0.72,2.13c0.01,0.68-0.18,2.48-0.28,2.63"/>
		<path class="st7" d="M66.51,76.65c0.21,0.82,0.33,0.62,0,2.03s-0.73,1.46-0.72,2.13c0.01,0.68-0.18,2.48-0.28,2.63"/>
		<path class="st9" d="M65.59,76.53c0.21,0.82,0.33,0.62,0,2.03s-0.73,1.46-0.72,2.13c0.01,0.68-0.18,2.48-0.28,2.63"/>
		<path class="st7" d="M65.15,76.6c0.1,0.84,0.24,0.64-0.28,2.01c-0.52,1.37-0.93,1.37-1.01,2.05c-0.08,0.67-0.53,2.44-0.65,2.58"/>
		<path class="st7" d="M64.64,76.76c-0.07,0.84,0.11,0.67-0.68,1.94s-1.19,1.22-1.41,1.87c-0.22,0.65-1.01,2.33-1.16,2.45"/>
		<path class="st7" d="M68.7,77.35c0.79,0.51,0.72,0.29,1.56,1.54s0.57,1.51,1.1,2.01c0.53,0.51,1.77,1.98,1.81,2.15"/>
		<path class="st9" d="M68.88,76.6c0,0,1.6,1.08,1.6,1.36s-0.11,1.28-0.18,1.82c-0.07,0.54-0.47,2.93-0.47,2.93"/>
		<path class="st8" d="M69.38,76.42c0,0,2.49,2.25,2.96,3.05c0.48,0.8,1.23,2.95,1.36,3.11c0.12,0.16,1.06,1.21,1.08,1.34
			c0.02,0.13,0.21,0.83,0.21,0.83"/>
		<path class="st9" d="M68.54,75.94c0,0,4.01,3.86,4.37,4.11c0.35,0.25,1.2,1.04,1.9,1.67c0.71,0.62,1.55,1.55,1.59,1.73
			s0.14,1.16,0.14,1.16"/>
		<path class="st7" d="M71.46,78.42c0,0-0.04,1.1,0.26,1.9s0.19,1.8,0.18,2.28c-0.02,0.48-0.2,1.13-0.2,1.13"/>
		<path class="st10" d="M70.03,79.21c-0.02,0.07-0.97,3.28-0.34,3.82c0.63,0.54,0.73,0.6,0.8,0.81c0.07,0.21,0.53,1.21,0.53,1.21"/>
		<path class="st8" d="M70.93,78.96c0,0-0.26,2.32,0,2.63s0.65,0.73,0.97,1.01c0.32,0.28,1.66,1.85,1.66,1.85"/>
		<path class="st7" d="M69.68,78.68l-1.09,3.03c0,0-0.97,0.78-0.94,0.86c0.03,0.07-0.25,0.68-0.32,0.76
			c-0.07,0.08-0.8,0.79-0.76,0.98c0.04,0.19-0.07,0.45-0.07,0.45"/>
		<path class="st7" d="M68.67,78.22c0,0-0.37,0.43-0.88,1c-0.51,0.57-0.95,1.77-1.07,2.17s-0.11,0.75-0.41,1.18
			s-0.27,0.97-0.51,1.18c-0.24,0.21-0.43,0.36-0.6,1.09"/>
		<path class="st9" d="M65.23,77.17c-0.07,0.03-2.82,2.2-3.11,2.34c-0.28,0.13-0.6,0.91-0.63,1.25s-0.34,1.8-0.62,2.48
			c-0.28,0.69-0.76,1.37-0.86,1.45"/>
		<path class="st8" d="M67.05,77.26c0,0-1.73,1.49-2.61,2.07c-0.88,0.58-0.95,0.52-1.22,1.25s-0.28,0.94-1.02,1.38
			s-1.09,0.58-1.22,0.65c-0.12,0.07-0.71,0.41-0.71,0.41"/>
		<path class="st10" d="M66.59,79.11c-0.26,0.21-1.54,0.97-1.72,1.7s-0.84,1.73-0.89,1.83s-0.14,0.4-0.12,0.68
			c0.02,0.28-0.19,1.03-0.39,1.13"/>
		<path class="st9" d="M67.33,77.55c-0.66,0.36-1.86,0.74-2.22,1.3c-0.36,0.56-1.17,1.48-1.08,1.83c0.09,0.34-0.39,0.92-1.02,1.46
			c-0.62,0.54-0.68,0.77-0.82,1.28c-0.14,0.51-0.32,1.24-0.39,1.28"/>
		<path class="st7" d="M64.01,78.35c0.16,0.31,1.17,1.67,1.18,2.01c0.01,0.34,0.05,0.83,0,1.35c-0.05,0.52-0.21,1.56-0.44,2.02
			c-0.23,0.46-0.32,0.71-0.32,0.71"/>
		<path class="st9" d="M65.69,78.1c0,0,0.78,0.03,1.36,0.92c0.58,0.89,0.87,1.35,0.88,1.82c0.01,0.46-0.19,1.34,0,1.59
			c0.19,0.25,0.28,0.82,0.28,0.82s-0.36,0.79-0.28,0.88"/>
		<path class="st7" d="M66.95,77.17c0.41,0.25,0.62,0.67,1.81,1.18c1.19,0.51,2.53,0.92,3.16,1.62c0.64,0.7,0.69,1.28,0.92,1.74
			c0.23,0.46,0.63,1.2,0.81,1.61"/>
		<path class="st8" d="M67.81,76.94c0.12,0.15,1.01,2.1,1.08,2.71s0.46,1.71,0.39,2.24c-0.07,0.52-0.07,0.93,0.01,1.43
			c0.08,0.49,0.13,1.12,0.27,1.37"/>
		<path class="st7" d="M70.24,76.13c0.36,0.44,0.37,0.89,0.57,1.49c0.2,0.6-0.09,0.82,0.2,1.33c0.29,0.52,0.28,0.86,0.28,0.86"/>
		<path class="st7" d="M71.3,76.2c0.16,0.29,0.21,0.65,0.23,1.15c0.02,0.5,0.27,0.77,0.4,1.25c0.13,0.49,0.2,1.45,0.26,1.52"/>
		<path class="st7" d="M67.81,75.94c-0.38,0.23-0.87,0.32-0.76,1.01c0.11,0.69,0.03,1.1-0.1,1.22c-0.13,0.11-0.19,0.72-0.36,0.8"/>
		<path class="st8" d="M66.28,75.94c-0.08,0.21-0.51,1.1-0.4,1.32c0.11,0.22,0.36,0.38,0.19,0.59"/>
		<path class="st7" d="M59.45,76.67"/>
		<path class="st7" d="M64.23,75.83c0,0-1.15,1.01-0.81,1.62s0.22,0.75,0.24,1.32c0.02,0.57-0.08,1.08-0.2,1.28"/>
		<path class="st10" d="M64.89,75.94c0.04,0.1,0.5,1.13,0.62,1.41c0.12,0.28-0.3,1.4-0.11,2.47c0.19,1.06-0.55,1.51-0.37,2.31
			c0.18,0.8-0.27,1.28,0.16,1.67s0.86,0.75,0.92,1.17"/>
		<path class="st10" d="M71.74,75.67c0.07,0.08,0.33,0.58,0.32,0.74c-0.01,0.16-0.02,0.75,0.12,1.13c0.14,0.38,0.12,0.97,0.1,1.24
			s-0.27,1.1-0.35,1.34c-0.08,0.24-0.71,0.58-0.47,1.27c0.24,0.69,0.01,0.97,0.28,1.54c0.28,0.57,0.16,1.38,0.33,1.51"/>
		<path class="st7" d="M69.38,75.67c0,0-0.54,0.5-0.86,1.27c-0.33,0.79,0.62,0.43,1.07,1.81c0.45,1.38,0.11,1.58,0.47,2.18
			c0.37,0.6,1.13,2.29,1.12,2.47"/>
		<path class="st7" d="M66.95,79.82c-0.33,0.75-1.07,1.44-1.09,1.58c-0.02,0.15-0.3,0.42-0.37,1.13c-0.06,0.71-0.31,1.27-0.31,1.27"
			/>
	</g>
</g>
</svg>
