<?xml version="1.0" encoding="utf-8"?>
<!-- Generator: Adobe Illustrator 23.1.1, SVG Export Plug-In . SVG Version: 6.00 Build 0)  -->
<svg version="1.1" id="Layer_1" xmlns="http://www.w3.org/2000/svg" xmlns:xlink="http://www.w3.org/1999/xlink" x="0px" y="0px"
	 viewBox="0 0 108 108" style="enable-background:new 0 0 108 108;" xml:space="preserve">
<style type="text/css">
	.st0{fill:#7BA255;}
	.st1{fill:#497436;}
	.st2{fill:#7E9D3D;}
	.st3{fill:#76AF42;}
	.st4{fill:#9BBD62;}
	.st5{fill:#5F8C3D;}
	.st6{fill:#59883D;}
	.st7{fill:#7B9C3F;}
	.st8{fill:#A5C961;}
	.st9{fill:#AEC471;}
</style>
<g>
	<path class="st0" d="M35.41,58.92c0.2,2.87,4.9,20.08,8.91,20.78s22.65-5.37,23.72-6.37s6.5-5.02,5.49-10.53
		c-1.02-5.51-0.42-9.18-5.49-14.2s0.02-6.17-14.06-6.98c-14.09-0.81-16.23-0.01-16.87,3.87C36.47,49.36,35.41,58.92,35.41,58.92z"/>
	<path class="st1" d="M35.16,54.87c-0.6,0.45-1.2,1.63-1.65,2.95s-0.9,1.74,0,2.54c0.9,0.8,1.8,0.35,2.09,1.43
		c0.3,1.09,0.67,0.34,0,1.46c-0.67,1.12-1.42,2.02-0.6,2.77c0.82,0.75,4,2.37,4.55,1.88c0.55-0.49,1.53-2.25,1.41-4.12
		c-0.12-1.87,0.94-2.62-0.49-4.49C39.05,57.41,35.16,54.87,35.16,54.87z"/>
	<path class="st2" d="M70.76,46.42c0,0,4.11,2.54,4.94,3.67c0.82,1.12,1.79,2.32,2.58,3.07c0.79,0.75,1.31-0.07,0.79,1.94
		s-2.02,6.66-2.69,7.63c-0.67,0.97-2.85,3.95-3.29,4.56c-0.44,0.61-1.35,2.54-1.35,2.54s-0.67,1.87-2.24,2.54
		c-1.57,0.67-5.61,0.86-6.36,1.22c-0.75,0.35-4.19-4.21-2.92-8.17s2.09-10.55,3.22-12.27s1.87-2.92,2.84-3.89
		C67.25,48.29,70.76,46.42,70.76,46.42z"/>
	<path class="st3" d="M73.46,67.96c0,0,2.47,2.45,3.29,2.57s1.72-0.18,1.5,1.69s0.43,1.42-0.64,2.69c-1.08,1.27-0.07,0.67-1.73,1.72
		c-1.66,1.05-2.41,1.12-2.41,1.5s-2.24,1.35-2.62,1.12c-0.37-0.22-2.09-6.06-2.02-6.36c0.07-0.3-0.45-2.84,0.9-3.74
		c1.35-0.9,1.42-1.05,2.02-1.2C72.33,67.81,73.46,67.96,73.46,67.96z"/>
	<path class="st4" d="M44.8,75.81c0,0-2.65,0.82-2.73,1.8c-0.07,0.97-1.87,0.67,0,1.87s2.32,2.09,3.22,1.87
		c0.9-0.22,0.9-0.97,1.65,1.12c0.75,2.09-0.37,1.8,1.05,3.14s0.82,1.65,2.99,1.42c2.17-0.22,4.41-0.01,5.76,0.07
		c1.35,0.08,2.92,1.71,4.04,0c1.12-1.71-0.03-1.11,2.49-3.21c2.52-2.09,2.67-2.77,5.21-3.81s3.74-1.42,3.37-4.26
		c-0.37-2.84-0.15-5.01-1.08-5.83c-0.94-0.82,2.06-2.32-1.61-0.6c-3.67,1.72-7.7,1.42-8.6,2.24c-0.9,0.82-4.41,3.07-6.43,3.37
		c-2.02,0.3-4.34,0.37-5.39,0.52S44.8,75.81,44.8,75.81z"/>
	<path class="st3" d="M47.98,75.87c-1.35,0-4.56-0.45-5.39,0.52c-0.82,0.97-0.52,2.54-3.74,3.52c-3.22,0.97-4.71,1.35-5.76,0.67
		c-1.05-0.67-2.4-1.74-4.01-1.84c-1.6-0.1-2.28-0.78-2.58-1.67s-1.2-6-0.75-7.97c0.45-1.98,0.97-3.92,2.09-5.79
		c1.12-1.87,2.47-3.52,3.14-3.96c0.67-0.45,1.5-0.67,2.32,0c0.82,0.67,2.92,2.99,3.89,3.44c0.97,0.45,1.5,0.37,2.99,1.5
		c1.5,1.12,2.54,2.84,3.81,4.11c1.27,1.27,1.45,2.17,1.92,2.62C46.4,71.46,47.98,75.87,47.98,75.87z"/>
	<path class="st4" d="M41.79,38.71c0,0-2.74-0.22-4.54,0c-1.8,0.22-3.04,0.9-4.59,2.39c-1.55,1.5-1.77,1.94-1.85,3.14
		c-0.07,1.2,0,2.09,0,3.67s2.32,2.84,3.29,2.62c0.97-0.22,3.67-0.45,5.46-1.35c1.8-0.9,5.01-4.49,5.01-5.01s-0.6-2.39-1.27-3.29
		C42.64,39.98,41.79,38.71,41.79,38.71z"/>
	<path class="st5" d="M41.79,46.42c-0.2-0.37-0.63-5.7-0.83-6.73c-0.2-1.03-1-2.32,0.41-3.07s4.1-1.42,6.12-1.35
		c2.02,0.07,1.65,0.45,2.77-0.6s0.52-1.65,1.57-1.12s1.42,0.67,2.47,1.5c1.05,0.82,2.81,1.57,2.83,2.17s0.91,1.72,0.39,2.24
		s-0.3,0.45-2.77,1.57c-2.47,1.12,0.52-0.22-4.19,2.09S41.79,46.42,41.79,46.42z"/>
	<path class="st3" d="M56.85,38.61c0,0,2.47-0.95,3.89-0.87c1.42,0.07,2.99,0.12,3.89,0.43c0.9,0.31,3.59,0.91,4.15,2.26
		c0.56,1.35,1.76,2.32,1.69,3.67c-0.07,1.35,0.23,2.17,0,2.92c-0.23,0.75,0.08,1.12-0.86,2.32s-2.66,2.02-3.11,1.57
		c-0.45-0.45-2.54-2.24-5.09-4.04s-3.49-3.07-3.73-3.44c-0.24-0.37-2.39-2.64-2.01-2.82C56.06,40.43,56.85,38.61,56.85,38.61z"/>
	<path class="st6" d="M66.65,51.88c0.15-0.45,0.75-3.51,1.51-3.97c0.76-0.46,1.03,0.12,1.96,0.62c0.94,0.5,2.12,0.7,2.35,2.03
		c0.23,1.32,0.83,4.69,0.31,5.58c-0.52,0.9-0.15,4.11-1.12,4.71c-0.97,0.6-1.29,0.37-1.84,0.93c-0.55,0.56-0.33,0.71-1.04,1.39
		c-0.71,0.67-0.79,0.6-1.65,1.2c-0.86,0.6-0.86,0.45-1.38,1.35c-0.52,0.9-1.92,2.18-1.92,2.18l-0.73-4.72c0,0,1.39-6.88,1.46-7.41
		S66.65,51.88,66.65,51.88z"/>
	<path class="st5" d="M43.39,46.42c0,0-3.37-0.3-4.94,0c-1.57,0.3-3.81,0.95-5.46,1.87c-1.65,0.92-2.32,1.02-2.62,2.27
		c-0.3,1.25-1.42,0.95,0,2.59c1.42,1.65,2.17,2.47,2.77,2.99s2.89,0.52,3.39,2.24c0.5,1.72,0.69,2.99,1.16,3.89
		c0.47,0.9,1.21,1.42,1.74,3.44c0.52,2.02,1.65,3.07,3.07,4.26c1.42,1.2,5.46,3.61,5.46,3.61s1.5-5.69,1.5-5.7
		c0-0.01-0.32-15.87-0.32-15.87S46.3,48.81,46,48.51C45.71,48.21,43.39,46.42,43.39,46.42z"/>
	<path class="st2" d="M56.81,40.06c-0.33-0.65,0.34-2.02-1.9-2.77s-4.94-1.42-6.36-1.05c-1.42,0.37-4.19,1.65-4.71,3.14
		c-0.52,1.5-1.17,3.08-1.72,4.34c-0.55,1.26-2.57,3.81-2.56,4.64c0.02,0.82,0.73-0.45,0,1.65c-0.73,2.09-1.18,2.02-0.96,3.81
		c0.22,1.8-1.55,2.61,0.46,4c2.01,1.39,1.41,2.21,3.21,1.31c1.8-0.9,2.74-3.37,5.18-4.26c2.45-0.9,6.41-3.04,7.01-3.84
		s2.29-3.83,2.68-4.75S56.81,40.06,56.81,40.06z"/>
	<path class="st2" d="M45.37,69.61c-0.33-0.67-3.11-1.97-4.4-2.54c-1.29-0.58-3.28-1.8-3.28-1.8s0.76,4.4,1.14,5.27
		c0.37,0.87,2.84,5.31,3.52,6.03s0,1.79,1.5,1.83c1.5,0.04,2.81-0.27,3.83,0s3.05,0.04,4.02-0.41c0.97-0.45,4.89-0.67,6-1.35
		c1.11-0.67,2.72-2.73,3.43-3.07c0.71-0.33,2.71-4.04,2.71-4.04s-4.91,2.39-6.58,3.07s-6.8,2.99-8.13,2.39
		c-1.32-0.6-0.65-2.25-1.85-3.11s-1.12-0.8-1.5-1.35C45.41,69.98,45.37,69.61,45.37,69.61z"/>
	<path class="st4" d="M58.87,42.6c0-0.45,0.67-2.09-1.35-3.14c-2.02-1.05-2.84-0.5-3.89-0.85s-2.02-0.8-2.88-0.27
		s-1.66,1.18-1.63,2.01c0.02,0.83-0.32,2.86,0,3.45c0.32,0.59,0.85,2.42,1.29,2.48c0.45,0.06,2.17,0.06,2.77,0.13
		c0.6,0.07,0.84,0.7,2.45-0.13C57.25,45.45,58.87,42.6,58.87,42.6z"/>
	<path class="st5" d="M53.19,46.42c0,0,0.52-3.52-1.05-4.79c-1.57-1.27-1.2-2.14-2.69-1.74c-1.5,0.4-2.68,0.83-3.13,2.52
		c-0.46,1.69-2.7,4.91-3,6.48c-0.3,1.57-0.67,5.61-1.2,5.98c-0.52,0.37-1.77,0.22-0.88,0.9s1.31,0.95,2.61,0.82
		c1.29-0.13,4.02-1.27,5.15-2.35c1.13-1.09,2.41-3.2,2.78-3.68C52.14,50.08,53.19,46.42,53.19,46.42z"/>
	<path class="st5" d="M55.63,45.18c0.02-0.34,0.87-2.97,2.05-2.78c1.18,0.2,3.58-0.93,4.32-0.78c0.75,0.15,0.79,0.7,1.82,1.77
		s1.92,2.27,2.22,3.02c0.3,0.75,0.22,2.84,0.22,2.84s0.32,0.28,0.01,1.3c-0.31,1.02-0.98,2.22-2.85,2.59
		c-1.87,0.37-3.9,0.45-4.46,0.37s-3.07-0.52-3.34-1.2S55.63,45.18,55.63,45.18z"/>
	<path class="st3" d="M67.12,52.4c0,0,1.02-0.9,1.66,0c0.64,0.9,1.64,1.5,1.77,2.47c0.14,0.97,1.14,1.35,0,2.62
		c-1.14,1.27-0.47,1.27-1.77,2.02c-1.31,0.75-2.13,0.85-2.13,0.85s-0.31-3.7-0.23-3.73c0.08-0.03,0.31-0.63,0.38-1.75
		C66.87,53.75,67.12,52.4,67.12,52.4z"/>
	<path class="st3" d="M47.43,52c0.07-0.2,0.57-2.14,1.56-3.57c0.98-1.42,2.18-2.62,2.85-2.69s3.84-0.54,4.57,0
		c0.73,0.54,1.94,0.52,2.09,0.97c0.15,0.45,1.39,0.65,1.44,1.11c0.05,0.46-0.32,1.96-0.32,1.96s-1.74,1.35-2.37,1.57
		c-0.62,0.22-1.94,0.97-3.57,1.5C52.06,53.37,47.43,52,47.43,52z"/>
	<path class="st4" d="M57.25,51.35c0,0-2.63-2.78-1.1-3.15c1.53-0.37,3.32-0.53,4.52,0s3.22,1.79,3.67,2.35
		c0.44,0.56,1.57,0.87,1.42,1.99s-2.47,0.58-3.59,1s-2.17,0.65-2.77,0.65S57.25,51.35,57.25,51.35z"/>
	<path class="st3" d="M41.79,60.78c0,0,0.23-2.88,1.21-4.17c0.98-1.29,0.6-1.97,2.36-2.41c1.76-0.45,6.02-0.67,7.6,0.67
		c1.57,1.35,2.18,2.01,2.55,2.95c0.37,0.94,1.98,3.56,1.62,4.53c-0.36,0.97-0.66,2.32-0.96,2.92c-0.3,0.6-0.45,2.14-1.35,2.72
		c-0.9,0.57-2.74,1.04-4.07-0.09c-1.33-1.14-8.27-3.97-8.57-4.27C41.89,63.32,41.79,60.78,41.79,60.78z"/>
	<path class="st2" d="M55.67,50.56c0,0,1.28-1.36,2.02-1.33s3.73-0.05,3.88,0.66s2.09,2.84,1.87,3.26
		c-0.22,0.41-0.04,1.27,0.02,1.72c0.06,0.45-1.59,1.41-1.89,1.75c-0.3,0.34-2.33,0.7-2.59,0c-0.26-0.7-2.38-2.24-2.65-3.07
		C56.05,52.71,55.67,50.56,55.67,50.56z"/>
	<path class="st7" d="M62.76,56.62c0,0,1.88-1.33,1.8-0.85s1.07,3.03,1.21,4.17c0.14,1.14-0.26,6.15-0.26,6.15s-1.18,2.4-1.67,2.98
		s-2.79,1.06-2.86,0.76c-0.07-0.3-1.06-2.35-1.02-2.83c0.04-0.48,0.74-4.85,1.02-5.22s-0.3-3.4,0-3.63
		C61.26,57.94,62.76,56.62,62.76,56.62z"/>
	<path class="st8" d="M42.94,59.94c0.07-0.28-0.07-4.87,0.9-6.39c0.97-1.52,2.24-2.29,4.07-2.99c1.83-0.7,3.56-0.92,4.9-0.92
		c1.35,0,3.02,0.32,4.88,1.4s4.6,3.68,4.83,4.63c0.24,0.96,1.01,4.99,0.93,5.55c-0.08,0.57-3.4,4.73-3.47,5.44
		c-0.07,0.71-1.86,2.35-1.86,2.35s-2.78,0.46-3.81,0s-3.26-1.35-5.18-2.69c-1.92-1.35-3.49-1.87-4.54-2.84
		C43.54,62.5,42.94,59.94,42.94,59.94z"/>
	<path class="st9" d="M46.84,61.43c-0.01-0.5,0-2.07,0.26-2.59c0.26-0.52,0.14-1.07,0.57-1.81c0.43-0.73,0.58-1.17,0.73-1.36
		c0.15-0.2,0.8-1.02,0.59-0.79c-0.21,0.22-0.29,2.61-0.36,2.95c-0.07,0.34-0.56,0.72-0.69,1.17c-0.13,0.45-1.1,0.67-0.13,0.45
		c0.97-0.22,2.17-0.6,2.54-0.67c0.37-0.07,1.57,0.15,0.82,0.3c-0.75,0.15-1.62,0.3-2.04,0.45c-0.43,0.15-1.45,0.51-1.45,0.51v1.77
		l-1.36-0.36"/>
	<path class="st3" d="M42.34,56.18c0,0-0.52,2.21-0.07,2.96c0.45,0.75,0,1.25,1.94,2.09s1.8,1.21,3.46,1.13s1.78-0.65,3.09,0.01
		s2.52,1.49,2.51,2.01c-0.01,0.52,0.15,1.41,1.11,2.24c0.96,0.84,0.56,0.82,1.29,0.82c0.73,0,1.08-0.3,1.58,0
		c0.5,0.3,0.2,0.5,1.02,0.55c0.82,0.05,2.45-0.09,2.45-0.09s-0.13-0.46,0.25-0.91c0.37-0.45,0.42-2.02,1.27-2.92
		c0.86-0.9,0.29-1.75,0.93-1.25c0.64,0.5,0.54,2.6,0.66,2.97s1.03,1.34,0.65,2.2c-0.37,0.86-2.12,3.78-7.23,4.6
		s-5.42,3.13-7.11,2.46c-1.69-0.67-2.34-3.6-2.72-4.53c-0.37-0.93-2.17-2.65-2.84-3.17s-3.43-3.74-3.66-4.49s-0.45-1.45-0.45-2.52
		c0-1.07-0.22-1.91,0.45-2.54C41.59,57.19,41.23,56.43,42.34,56.18z"/>
</g>
</svg>
