<svg xmlns="http://www.w3.org/2000/svg" version="1.1" xmlns:xlink="http://www.w3.org/1999/xlink" xmlns:svgjs="http://svgjs.dev/svgjs" viewBox="0 0 108 108" style="" x="0" y="0"><style type="text/css">
	.st0{fill:#7FA350;}
	.st1{fill:#78B474;}
	.st2{fill:none;stroke:#889D7F;stroke-width:0.3934;stroke-miterlimit:10;}
	.st3{fill:#7A9E4C;}
	.st4{fill:#8CB972;}
	.st5{fill:none;stroke:#889D7F;stroke-width:0.2169;stroke-miterlimit:10;}
	.st6{fill:#719946;}
	.st7{fill:#8AB873;}
	.st8{fill:#99BD72;}
	.st9{fill:#759749;}
	.st10{fill:#7AB365;}
	.st11{fill:#77A147;}
	.st12{fill:#739547;}
	.st13{fill:#96BC72;}
	.st14{fill:#73A34C;}
</style><g><path class="st0" d="M71,57.8c0.9,0.3,10.4,7.9,12.4,10.7c1.9,2.7,1.5,8.5,0.7,10.8c-3.3-2.7-10.9-8.4-12.1-8.5
	C70.4,70.6,52.3,60.3,51.7,59c-0.3-0.7-1.8-2.7-3.5-4.2c0.9,0,2.4-1.5,4.4-1.5c2.2,0,8.6,0.7,10.5,0.9C65,54.3,70.1,57.5,71,57.8z"></path><path class="st1" d="M72,70.8c1.2,0.1,8.8,5.8,12.1,8.5c0,0.1-0.1,0.2-0.1,0.3c-0.8,2-3.8,3.7-7.1,3.4c-3.4-0.3-11.2-4.3-15.6-7.4
	c-4.4-3.1-6.1-3-9.8-7.7c-3.7-4.7-4.1-9.3-4.1-9.3s-1-1.5-0.5-3.5c0.5-2,0.3-0.6,1.2-0.3c0.1,0,0.2,0,0.3,0c1.7,1.5,3.1,3.6,3.5,4.2
	C52.3,60.3,70.4,70.6,72,70.8z"></path><path class="st2" d="M77.5,80c0,0-2.6-1.5-3.3-2.7c-0.7-1.2-1.9-3.3-2.3-3.9c-0.3-0.5-2.6-3.9-2.6-3.9s0.1-0.2,2-0.5
	s4.4-1.2,5.1-0.6c0.7,0.6,0.9-0.1,2.6,1.2c1.7,1.4,3.3,2.4,3.3,2.4"></path><path class="st2" d="M68.5,75.7c0,0-2.8-4.6-3.8-5.7c-0.9-1-1.8-4-1.8-4s3.2,0,4-0.5s1-0.7,2.9-0.9s2.6,0.2,2.6,0.2"></path><path class="st2" d="M64.8,76c-0.4-0.3-5.7-6-6.5-7.4c-0.7-1.4-2.6-2.9-2.8-3.8s-0.7-3.5-0.7-3.5s4.3,0.4,4.7,0.2
	c0.4-0.2,5.2-0.7,5.7-0.6c0.5,0.1,5.9,0.8,6.2,1"></path><path class="st1" d="M34.3,19.3c-1.6,1.9-2.4,5.2-2,6.8c0.4,1.6,3.9,8.2,4.9,8.9s5.6,3.3,7.5,2.5c-1-1.2-5.9-15.1-7.7-20
	C35.9,17.8,34.9,18.4,34.3,19.3z"></path><path class="st0" d="M49.4,33.1c0.7-1.5,2.7-2.1,0.8-4.6s-3.8-8.3-3.8-8.3S43,16,41,16.3c-1.1,0.2-2.6,0.5-4,1.1
	c1.8,4.9,6.7,18.8,7.7,20C46.7,36.6,48.7,34.6,49.4,33.1z"></path><path class="st3" d="M56.5,54.6c-1.3,0.1-2.7,0.4-2.7,0.4c-4.6,0.2-6,0.4-8.9,2.1c-2.9,1.7-7.7,5.3-8.8,7.9
	c-1.1,2.6-2.2,11.5-2.2,13.6c0,2,2.4,10.5,3.8,11.9s2.3,2.3,3.7,2.5c0.7,0.1,1.1,0.3,2,0.4c0.2-0.9,5.2-17.3,5.6-18.8
	C49.3,73.4,54.1,60.9,56.5,54.6z"></path><path class="st4" d="M48.5,93c5.7-0.8,8.9-3,10.7-5.1c1.8-2.1,6.1-11.3,6.6-13.7c0.4-2.4-0.6-10.3-1.2-12.3c-0.5-2-5.2-6-6-6.9
	c-0.3-0.3-1.2-0.4-2-0.4c-2.4,6.4-7.2,18.9-7.5,20c-0.4,1.5-5.4,18-5.6,18.8C44.3,93.4,45.7,93.4,48.5,93z"></path><path class="st2" d="M38.1,87.3c0-0.3-0.2-5.3,1.4-6.8c1.6-1.5,2.1-2.3,4.4-3.5s5.1-2.4,5.1-2.4s2.4,4.1,3.1,5.2
	c0.6,1.1,2.6,5.9,2.5,6.7c-0.1,0.7-1.5,3.1-1.6,3.4"></path><path class="st2" d="M36.1,79.5c0.2-0.7,0.8-5.7,2.8-7.5s2-4,4.5-3.9c2.6,0.1,4.8,0.3,5.2,0s3.3-1.3,3.3-1.3s1.1,1.3,1.5,1.9
	c0.4,0.6,2.2,3.6,2.3,4.4c0.1,0.9,0.8,2.2,0.8,2.2"></path><path class="st2" d="M39.2,66.2c0,0,4.2-0.1,6-1c1.8-0.8,2.9-2.8,4.4-3.8c1.5-1.1,5.1-2.3,5.1-2.3s1.2,4.4,1.9,5
	c0.7,0.5,3.1,9.9,3.2,11.1c0.1,1.3,0.6,5.1,0,5.9c-0.6,0.8-1.4,3.6-1.4,3.6"></path><path class="st3" d="M58.6,34c0.6,0.2,1.3,0.3,1.3,0.3c2.1,0.8,2.8,1,4.5,0.6c1.7-0.4,4.8-1.4,5.9-2.7c1.1-1.3,3.9-6.1,4.4-7.2
	c0.5-1.1,1.5-6.4,1.3-7.5s-0.5-1.8-1-2.2c-0.3-0.2-0.4-0.4-0.8-0.6c-0.3,0.5-6.7,8.8-7.3,9.5C66.6,24.8,61.3,30.9,58.6,34z"></path><path class="st4" d="M71.9,13.9c-2.8-0.7-4.7-0.1-6.1,0.7c-1.3,0.8-5.6,5.2-6.4,6.4c-0.8,1.3-2.3,6-2.6,7.2c-0.3,1.2,0.8,4.4,1,5.1
	c0.1,0.3,0.4,0.5,0.8,0.6c2.7-3.1,8-9.2,8.4-9.8c0.6-0.8,7-9.1,7.3-9.5C73.9,14.5,73.2,14.3,71.9,13.9z"></path><path class="st5" d="M75.1,19.3c-0.1,0.2-1.2,3-2.3,3.6c-1.1,0.5-1.5,0.9-2.9,1.1c-1.3,0.2-2.9,0.4-2.9,0.4s-0.1-2.8-0.1-3.5
	s0.3-3.9,0.5-4.3c0.2-0.4,1.4-1.4,1.6-1.6"></path><path class="st5" d="M74.1,24c-0.3,0.4-1.8,3.1-3.1,3.7s-1.9,1.9-3,1.3c-1.1-0.6-2.1-1.1-2.3-1c-0.3,0.1-1.8,0.1-1.8,0.1
	s-0.1-0.9-0.2-1.4c0-0.4-0.1-2.5,0.1-3c0.2-0.5,0.2-1.4,0.2-1.4"></path><path class="st5" d="M69.3,30.9c0,0-1.9-0.8-2.9-0.7c-1,0.1-2,1-2.9,1.3s-2.9,0.3-2.9,0.3s0.6-2.8,0.4-3.2s1.1-6.2,1.4-6.9
	s1-3,1.5-3.3c0.5-0.4,1.5-1.8,1.5-1.8"></path><path class="st6" d="M49.3,51.6c-0.7-1.1-1.7-2.2-1.7-2.2c-2.5-3.8-3.4-5-6.4-6.6c-2.9-1.6-8.5-3.9-11.3-3.5c-2.8,0.4-11.1,4-12.8,5
	c-1.7,1-7.8,7.5-8.2,9.3S8.1,57,8.6,58.3c0.3,0.7,0.3,1.1,0.7,1.9c0.8-0.3,17.6-4.4,19.1-4.8C29.4,55.1,42.6,52.8,49.3,51.6z"></path><path class="st7" d="M12.2,64.4c3.7,4.5,7.1,6.1,9.8,6.6c2.7,0.5,12.9-0.5,15.1-1.4c2.3-0.9,8.6-5.8,10-7.3c1.5-1.5,2.5-7.5,2.8-8.7
	c0.1-0.5-0.2-1.2-0.7-1.9c-6.7,1.2-19.9,3.5-21,3.8c-1.5,0.4-18.2,4.5-19.1,4.8C9.6,61,10.4,62.2,12.2,64.4z"></path><path class="st2" d="M11.8,52.5c0.3-0.2,4.4-2.9,6.5-2.3s3.1,0.6,5.3,2s4.7,3.1,4.7,3.1s-2.3,4.2-2.9,5.3c-0.6,1.1-3.8,5.3-4.4,5.6
	c-0.7,0.3-3.4,0.3-3.7,0.4"></path><path class="st2" d="M17.4,46.8c0.7-0.2,5.3-2.2,7.9-1.5s4.5-0.4,5.7,1.9c1.2,2.3,2.2,4.3,2.7,4.5s2.8,2.2,2.8,2.2s-0.6,1.6-0.9,2.3
	c-0.3,0.7-1.9,3.7-2.6,4.3c-0.7,0.5-1.5,1.9-1.5,1.9"></path><path class="st2" d="M30.5,42.6c0,0,2.2,3.6,3.9,4.7s3.8,1.1,5.5,1.8c1.7,0.7,4.6,3.2,4.6,3.2s-3.2,3.3-3.3,4.2
	c-0.1,0.8-6.9,7.7-7.9,8.4c-1,0.7-4,3.1-5.1,3c-1.1-0.1-3.8,0.7-3.8,0.7"></path><path class="st1" d="M63.6,44.2c1.1-1.3,15-4.9,20-7.3c3.9-1.9,14.2-7.2,18.6-9.5c-0.5-0.8-1.5-1.7-2.4-2.3
	c-1.2-0.8-8.3-2.9-13.5-3.6c-5.2-0.7-13,2.9-18.9,5.2C61.7,29,54.9,47.8,54.9,47.8s-0.3,2.9,0,4C55.3,50.3,62.6,45.4,63.6,44.2z"></path><path class="st0" d="M58.7,51.8c3.3-0.3,2.3-0.2,4.8-0.7c2.4-0.5,12.1-3.8,13.8-4.6c1.7-0.7,22.1-11.2,23.9-12.6
	c1.8-1.4,1.4-4.6,1.4-5.5c0-0.3-0.2-0.6-0.4-1c-4.4,2.3-14.7,7.6-18.6,9.5c-5,2.4-19,6-20,7.3c-1.1,1.3-8.3,6.1-8.7,7.6
	C55.2,52.9,55.5,52.1,58.7,51.8z"></path><path class="st2" d="M89,24.7c-1,0.2-9.7,3.6-11.9,5.4c-2.1,1.8-7.9,8.1-9,9.8c-1.1,1.7-2.5,3.2-2.5,3.2s1.2,2,3.7,2.3
	c2.4,0.3,3.5,0.2,4.6,0s3.3-0.6,3.5-0.8s2-1.3,2-1.3"></path><path class="st0" d="M62,25.6c0.1-1-2.6-12.8-4.3-15.8c-1.6-2.8-7.1-5-9.4-5.3c1,4.1,2.9,13.4,2.5,14.6c-0.5,1.5,1,22.3,1.9,23.4
	c0.5,0.6,1.7,2.8,2.3,4.9c0.4-0.8,2.4-1.5,3.3-3.4c1-2,3.1-8.1,3.7-9.9C62.6,32.5,61.9,26.6,62,25.6z"></path><path class="st8" d="M50.8,19.2c0.4-1.2-1.5-10.5-2.5-14.6c-0.1,0-0.2,0-0.3,0c-2.1-0.1-5,1.8-6.1,5c-1.2,3.2-1,12,0,17.3
	s0.1,6.8,2.8,12.2c2.6,5.4,6.7,7.7,6.7,7.7s1,1.6,3,2c2,0.4,0.7,0,0.7-1c0-0.1,0.1-0.2,0.1-0.2c-0.7-2.2-1.9-4.4-2.3-4.9
	C51.8,41.5,50.3,20.6,50.8,19.2z"></path><path class="st2" d="M44.8,10.3c0,0,0.2,3,1,4.1s2.2,3.2,2.5,3.7c0.3,0.5,2.4,4,2.4,4s0.2,0,1.4-1.6c1.2-1.6,3-3.5,2.7-4.3
	s0.5-0.7,0-2.9c-0.5-2.1-0.7-4-0.7-4"></path><path class="st2" d="M44.8,20.2c0,0,3,4.6,3.5,5.8c0.5,1.3,2.8,3.4,2.8,3.4s1.4-2.9,2.1-3.4c0.7-0.5,1.1-0.6,2.1-2.2
	s0.9-2.4,0.9-2.4"></path><path class="st2" d="M43,23.4c0.1,0.5,3,7.7,3.9,9c1,1.3,1.5,3.6,2.2,4.2c0.7,0.6,2.8,2.1,2.8,2.1s1.5-4,1.8-4.4
	c0.3-0.3,2.9-4.4,3-4.9c0.1-0.5,1.8-5.7,1.8-6"></path><path class="st9" d="M76.3,67.3c0.8,0.5,12.6,3.6,16,3.4c3.3-0.1,7.7-4,9-5.9c-4.1-1-13.2-3.6-14.1-4.5c-1.1-1.1-20.3-9.4-21.7-9.1
	c-0.7,0.2-3.2,0.2-5.5-0.2c0.6,0.8,0.2,2.9,1.5,4.5c1.3,1.8,5.7,6.4,7,7.8C69.9,64.7,75.5,66.8,76.3,67.3z"></path><path class="st1" d="M87.2,60.3c0.9,0.9,10,3.5,14.1,4.5c0.1-0.1,0.1-0.2,0.2-0.3c1.1-1.8,0.7-5.2-1.6-7.7
	c-2.3-2.5-10.2-6.4-15.3-7.9c-5.1-1.6-6.1-3-12.1-3.2c-6-0.1-9.9,2.4-9.9,2.4s-1.8,0.1-3.2,1.7c-1.3,1.6-0.3,0.6,0.5,1.1
	c0.1,0,0.1,0.1,0.2,0.2c2.2,0.4,4.7,0.4,5.5,0.2C66.9,51,86.1,59.2,87.2,60.3z"></path><path class="st2" d="M97.8,59.1c0,0-2.7-1.2-4.1-1c-1.4,0.2-3.8,0.5-4.4,0.5s-4.7,0.3-4.7,0.3s-0.1,0.2,0.8,2
	c0.9,1.8,1.7,4.3,2.6,4.4s0.4,0.8,2.5,1.3c2.1,0.5,3.9,1.2,3.9,1.2"></path><path class="st2" d="M89,54.5c0,0-5.4,0.6-6.8,0.4s-4.3,1-4.3,1s1.9,2.6,2,3.5c0.1,0.9,0.1,1.2,1,2.9s1.7,1.9,1.7,1.9"></path><path class="st2" d="M87,51.4c-0.5-0.1-8.2-0.9-9.8-0.7c-1.6,0.3-3.9-0.3-4.7,0c-0.9,0.4-3.2,1.6-3.2,1.6s2.9,3.2,3,3.6
	s2.6,4.5,3,4.9c0.4,0.3,4.2,4.2,4.5,4.4"></path><path class="st10" d="M43.7,50.3c0.9,0.5,5.7,1.9,8.3,3l-3.8-5.8c0,0-13.5-11.9-16.7-13.7c-3.3-1.8-7.6-3.7-11.2-4.3
	c-3.6-0.6-7.7-1.4-9.1-0.5c-0.4,0.3-0.8,0.5-1.2,0.8c4.7,3.4,16.9,12.1,20,13.6C33.6,45,42.4,49.7,43.7,50.3z"></path><path class="st0" d="M9.7,32.4c1,1.8,7.7,11.2,11.8,13.2s11.2,5.1,13.5,6.2c2.2,1.1,2.8,2.6,5.3,2.9c2.5,0.2,5.2-0.3,6.1,0
	c1,0.3,2.9,0.2,3.5,0.1c0.6-0.2,2.8-0.4,2.8-0.4l-0.6-1c-2.6-1.1-7.4-2.6-8.3-3c-1.3-0.6-10.1-5.3-13.7-7C27,41.9,14.8,33.1,10,29.7
	C9.3,30.4,9,31.2,9.7,32.4z"></path><path class="st2" d="M14.8,36.1c0.8,0.8,4.6,3.3,5.5,3.8c1,0.5,3.2,1.5,3.2,1.5l9.1,3.1c0,0-3.2-4.5-4-5.9c-0.7-1.4-3.2-3.8-4.9-4.8
	c-1.7-1-2.8-1.5-3.6-2c-0.7-0.5-2-1.6-2-1.6"></path><path class="st2" d="M29.2,47.5c0.7,0.1,3.8,1.2,5.1,1.4s3.4,0,3.4,0l2.5-0.4c0,0-0.7-1.8-1.6-2.9c-0.8-1-3.7-3.3-3.9-3.8
	s-1.8-1.9-1.8-1.9"></path><path class="st1" d="M56.2,57c-0.6-2.5-1.7-5.1-2.5-6.9c-0.3,0-0.5,0.1-0.5,0.1c-0.5,0.2-5.9,0.8-7.2,1c-1.3,0.2-1.5-0.3-1.3,1.2
	s6.1,14.2,6.4,15.2s6,5.4,7.4,5.5c0.2,0,0.3,0,0.5,0.1c-0.4-1-0.4-1.9-0.5-2.9C58.4,68.3,57.2,61.3,56.2,57z"></path><path class="st11" d="M63.4,71.8c2.3-2.2,4.9-6.3,5-10c0.1-3.7,1-7-0.4-8.9c-1.4-1.9-1.2-4.1-3.6-3.9c-2.4,0.2-1.8-0.7-4,0
	c-2.2,0.7-3.2,0.5-4.1,0.7c-0.7,0.1-1.8,0.3-2.5,0.5c0.8,1.7,1.9,4.3,2.5,6.9c1,4.3,2.2,11.3,2.3,13.2c0.1,1,0.1,2,0.5,2.9
	C60.2,73.3,61.3,73.8,63.4,71.8z"></path><path class="st2" d="M48.8,58.7c0,0,1-1.3,1.7-1.8C51.2,56.3,56,56,56,56s2.1-1.1,3.7-0.7c1.6,0.3,3.6,2,3.8,2.4
	c0.2,0.4,2.2,3.3,2.2,3.3"></path><path class="st2" d="M64.5,68c0,0-2.6-2.8-4.1-4.8c-1.5-2-3.6-3.7-3.6-3.7s-2,1.7-2,2.7s0,3,0,3l0.1,2.9"></path><path class="st12" d="M43,40.5c-2.9-2.1-8.2-7.2-10.7-9.4c-1.1,0.8-3,0.4-0.8,3.3c2.4,3.1,6,8.7,8.7,10.8c2.6,2.1,4.6,3.7,6.2,4.4
	c1.7,0.7,2.4,0.6,4.3,1.6c1.9,1.1,2.9,2,2.9,0.8C52.5,51.6,46.7,43.2,43,40.5z"></path><path class="st1" d="M46.7,37.2c-2-1.6-6.2-4.6-9.1-5.6c-2.9-1-4-1.8-5-0.8c-0.1,0.1-0.1,0.1-0.2,0.2c2.5,2.2,7.8,7.3,10.7,9.4
	c3.7,2.7,9.5,11,10.8,11.5c0-1.2-1.7-3.3-1.7-3.3C51.2,47.3,48.7,38.8,46.7,37.2z"></path><path class="st9" d="M55.3,48.9c0,0,4.6-6.9,5.9-8c1.3-1.1,11.2-4,11.9-5.8c0.7-1.8,2.3-3.5,0-4.7c-2.3-1.2-7.7-2.2-10.4-1.1
	c-2.6,1.2-6.4,2-6.6,5.3s-0.4,4.1-0.9,6.2c-0.6,2.1-0.5,2.1-0.5,3.2C54.8,45.3,55.3,48.9,55.3,48.9z"></path><path class="st13" d="M73.7,34c0,0-3.1,1.9-6.2,2.6c-3.2,0.7-9.5,4.4-10.2,5.7c-0.7,1.3-1.1,2.2-1.7,3.8c-0.6,1.6-1.4,3-0.3,2.8
	c1.1-0.1,3.9-2.9,5.6-4.4c1.7-1.5,2.8-4,4.1-4.6c1.4-0.6,5.6-1.9,6.2-2.3S73.7,34,73.7,34z"></path><path class="st14" d="M56.2,49.7c0,0,2.8-7.2,2.3-9.1s-2.8-3.9-4.8-4c-2-0.1-4.7,1.2-4.9,2.1c-0.2,0.9-1.2,1.1-1.3,3.6
	c-0.1,2.5-0.7,3.9,0.8,5.2c1.5,1.3,2.6,3.1,3.8,2.9c1.2-0.2,1.5,0.9,2.9,1.4S56.2,49.7,56.2,49.7z"></path><path class="st2" d="M93.5,26c0,0-1.5,1.1-4.5,3.4c-3,2.3-4,4.1-4.3,4.6c-0.3,0.5-1.7,3.1-1.7,3.1s1.7-1.3,4.3-1.2s4,0.1,5.3-0.1
	s3.8-1,3.8-1"></path><path class="st2" d="M11,30.4c0,0,14.8,10.4,16.5,11.4s11.4,6,12.8,6.7c1.3,0.7,4.5,2.2,4.5,2.2"></path><polyline class="st2" points="10.7,59.8 28.3,55.4 37.7,53.7 "></polyline><path class="st2" d="M101.3,27.9c0,0-16.7,8.6-18.3,9.3c-1.6,0.7-15.3,5.5-15.6,5.5c-0.3,0-7.9,4.9-7.9,4.9l-1.8,1.4"></path><path class="st2" d="M67.1,51.6c0,0,16.7,7.2,17.4,7.2c0.7,0.1,7,3.1,8.4,3.6c1.5,0.5,7.4,2.1,7.4,2.1"></path><path class="st2" d="M54.9,51.8c0,0,2.3,7.7,2.3,9.1c0,1.4,1.3,10.1,1.3,10.1"></path><path class="st2" d="M48.6,5.9c0,0,1.9,9.2,2.1,10.7c0.2,1.6-0.1,6.4,0,7.2c0.1,0.8,0.9,11.4,1,11.9"></path><path class="st2" d="M37,17.4l3.6,10c0,0-0.8,0.2-1.8,0S35,26,35,26"></path><line class="st2" x1="74.3" y1="14.7" x2="63.8" y2="28.1"></line><path class="st2" d="M51.2,68.6c0,0-2.1,5.7-2.4,6.6c-0.2,0.8-4.5,15.1-4.5,15.1L43,92.7"></path><path class="st2" d="M66.2,68.2c0,0,8.9,4.3,9.9,4.9c1,0.6,6.8,5.2,6.8,5.2"></path></g></svg>