<?xml version="1.0" encoding="utf-8"?>
<!-- Generator: Adobe Illustrator 23.1.1, SVG Export Plug-In . SVG Version: 6.00 Build 0)  -->
<svg version="1.1" id="Layer_1" xmlns="http://www.w3.org/2000/svg" xmlns:xlink="http://www.w3.org/1999/xlink" x="0px" y="0px"
	 viewBox="0 0 108 108" style="enable-background:new 0 0 108 108;" xml:space="preserve">
<style type="text/css">
	.st0{fill:none;stroke:#718537;stroke-width:0.9632;stroke-miterlimit:10;}
	.st1{fill:#A5C239;}
	.st2{fill:#84B541;}
	.st3{fill:#91BB3E;}
	.st4{fill:#AFCB36;}
	.st5{fill:#92B83F;}
	.st6{fill:#A5BE3B;}
	.st7{fill:#6A963F;}
	.st8{fill:#7CAE41;}
	.st9{fill:#9BAC3A;}
	.st10{fill:#567E39;}
	.st11{fill:#A4C839;}
	.st12{fill:#4E9B44;}
	.st13{fill:#72AA42;}
	.st14{fill:#619440;}
	.st15{fill:#B3C092;}
	.st16{fill:#7C9862;}
	.st17{fill:#93B372;}
	.st18{fill:#A1B982;}
	.st19{fill:#5B9163;}
</style>
<g>
	<g>
		<g>
			<path class="st0" d="M69.6,75.57c-0.06-2.3-0.96-6.43-1.6-9.36"/>
			<path class="st0" d="M75.69,72.6c-3.04-1.22-6.94-3.97-8.87-6.94"/>
			<path class="st0" d="M76.74,66.62c-3.46,1.67-6.32,3.59-8.7,0.13"/>
			<path class="st0" d="M62.85,60.05c-3.66-2.83-7.13-6.59-8.48-9.89"/>
			<path class="st0" d="M55.35,62.76c0.42-4.77-0.88-12.09-1.06-13.59"/>
			<path class="st0" d="M61.81,53.69c-2.83,0.89-4.44,2.27-7.23-2.44"/>
			<path class="st1" d="M64.63,80.07c-0.29-1.83-1.23-2.21,1.83-5.46c3.06-3.25,3.06-3.25,3.06-3.25s0.61,0.71,1.32,1.5
				c0.71,0.8,3.73,3.47,2.37,6.59c-1.36,3.12-2.53,4.81-3,5.3s-1.66,2.45-2,2.92"/>
			<path class="st2" d="M86.18,81c-2.23-0.93-5.43,1.08-8.14-0.82s-4.25-6.59-4.9-7.95c-0.64-1.35-1.75-0.77,0.8-0.82
				s2.7-0.91,4.92-0.38c2.22,0.53,5.29,3.84,5.49,5.21C84.56,77.62,86.18,81,86.18,81z"/>
			<path class="st3" d="M72.85,68.55c0.67,0,1.41,0.54,4.62,0.59s5.75-0.3,6.31-2.75c0.56-2.45-0.23-2.94,1.15-4.55
				c1.38-1.61,1.38-1.61,1.38-1.61s-2.77-0.09-6.62,0.01c-3.86,0.1-5.66,4-6.13,5.65C73.09,67.52,72.85,68.55,72.85,68.55z"/>
			<path class="st4" d="M71.11,68.58c0,0-1.48-1.64-4.52-1.65c-3.04-0.01-6.36-1.51-6.36-4.72c0-3.21-1.04-4.99-1.04-4.99
				s-0.06,0.46,2.58,0.25c2.64-0.21,6.4,1.61,7.45,4.24C70.28,64.33,71.11,68.58,71.11,68.58z"/>
			<path class="st5" d="M52.87,72.66c0,0,3.91-3.92,5.11-6.57c1.2-2.65,1.53-4.23-0.03-6.12s-2.12-3.4-2.12-3.4s-2.2,3.28-3.65,4.05
				c-1.45,0.76-3.04,3.45-2.27,5.04S52.87,72.66,52.87,72.66z"/>
			<path class="st6" d="M58.98,54.58c0,0.05,2.34,1.02,5.12,1.36c2.79,0.33,4.29,0.32,5.39-1.07c1.1-1.39,1.83-2.85,2.61-4.47
				c0.78-1.62,0.88-2.28,1.52-2.43c0.64-0.15-0.81,0.56-3.88-0.2c-3.07-0.76-4.54-1.6-5.82-0.6c-1.28,1-1.23,2.86-2.27,4.34
				C60.62,52.99,58.98,54.58,58.98,54.58z"/>
		</g>
		<g>
			<path class="st0" d="M29.51,73.99c2.22-0.62,5.99-2.51,8.68-3.84"/>
			<path class="st0" d="M33.88,79.17c0.44-3.25,2.15-7.7,4.56-10.3"/>
			<path class="st0" d="M39.94,78.72c-2.46-2.94-5.03-5.25-2.26-8.4"/>
			<path class="st0" d="M42.9,63.64c1.85-4.24,4.64-8.53,7.5-10.64"/>
			<path class="st0" d="M38.44,57.03c4.73-0.77,11.5-3.82,12.92-4.36"/>
			<path class="st0" d="M48.82,61.08c-1.56-2.53-3.28-3.74,0.59-7.6"/>
			<path class="st7" d="M23.93,70.28c1.71-0.73,1.84-1.73,5.74,0.44c3.9,2.17,3.9,2.17,3.9,2.17s-0.53,0.76-1.13,1.65
				c-0.6,0.89-2.45,4.47-5.81,3.91c-3.36-0.56-5.29-1.28-5.87-1.61c-0.59-0.33-2.78-1.01-3.32-1.23"/>
			<path class="st8" d="M28.31,91.39c0.35-2.39-2.38-5.01-1.2-8.09c1.17-3.09,5.35-5.74,6.5-6.7c1.16-0.96,0.31-1.89,0.99,0.58
				s1.55,2.39,1.58,4.67c0.03,2.28-2.43,6.07-3.7,6.6C31.19,88.99,28.31,91.39,28.31,91.39z"/>
			<path class="st3" d="M37.12,75.42c0.16,0.64-0.18,1.5,0.56,4.63c0.74,3.13,1.7,5.5,4.21,5.44s2.8-0.94,4.7,0
				c1.9,0.94,1.9,0.94,1.9,0.94s-0.6-2.7-1.64-6.42c-1.04-3.71-5.27-4.5-6.98-4.56C38.17,75.4,37.12,75.42,37.12,75.42z"/>
			<path class="st9" d="M36.66,73.74c0,0,1.23-1.84,0.5-4.79c-0.73-2.95-0.1-6.54,3.02-7.33c3.11-0.79,4.58-2.23,4.58-2.23
				s-0.46,0.05,0.39,2.56c0.85,2.51,0.01,6.6-2.28,8.27C40.57,71.89,36.66,73.74,36.66,73.74z"/>
			<path class="st5" d="M28.23,57.05c0,0,4.76,2.83,7.62,3.34s4.48,0.44,5.93-1.52c1.45-1.97,2.77-2.89,2.77-2.89
				s-3.72-1.33-4.82-2.54c-1.1-1.21-4.09-2.1-5.44-0.96C32.93,53.62,28.23,57.05,28.23,57.05z"/>
			<path class="st6" d="M47.26,58.55c-0.05,0.02-0.42,2.52-0.06,5.3c0.36,2.78,0.74,4.24,2.36,4.96s3.21,1.08,4.97,1.44
				c1.76,0.36,2.42,0.29,2.72,0.88c0.3,0.58-0.75-0.65-0.76-3.81c-0.01-3.16,0.44-4.79-0.84-5.79c-1.28-0.99-3.07-0.49-4.77-1.14
				S47.26,58.55,47.26,58.55z"/>
		</g>
		<g>
			<path class="st0" d="M36.15,34.71c0.73,2.19,2.81,5.86,4.27,8.48"/>
			<path class="st0" d="M31.2,39.33c3.26,0.28,7.8,1.76,10.52,4.03"/>
			<path class="st0" d="M31.95,45.35c2.81-2.61,4.99-5.29,8.28-2.68"/>
			<path class="st0" d="M47.16,47.56c4.33,1.63,8.75,4.2,11.01,6.96"/>
			<path class="st0" d="M53.53,42.77c1,4.69,4.39,11.3,5,12.68"/>
			<path class="st0" d="M50.02,53.34c2.45-1.68,3.58-3.47,7.62,0.21"/>
			<path class="st1" d="M39.58,28.94c0.82,1.67,1.82,1.76-0.15,5.76s-1.97,4-1.97,4s-0.79-0.5-1.7-1.05s-4.59-2.22-4.2-5.6
				c0.39-3.38,1.01-5.35,1.31-5.95c0.3-0.6,0.87-2.83,1.06-3.38"/>
			<path class="st10" d="M18.71,34.38c2.4,0.23,4.88-2.62,8.02-1.6c3.14,1.02,6,5.05,7.01,6.16s1.9,0.22-0.53,1.01
				s-2.31,1.66-4.59,1.81s-6.18-2.12-6.78-3.37C21.25,37.14,18.71,34.38,18.71,34.38z"/>
			<path class="st3" d="M35.1,42.37c-0.64,0.2-1.51-0.1-4.6,0.79c-3.09,0.9-5.41,1.97-5.22,4.48c0.18,2.51,1.08,2.75,0.24,4.69
				c-0.85,1.95-0.85,1.95-0.85,1.95s2.67-0.73,6.33-1.96c3.66-1.23,4.23-5.49,4.21-7.2C35.18,43.42,35.1,42.37,35.1,42.37z"/>
			<path class="st4" d="M36.76,41.83c0,0,1.9,1.13,4.81,0.26c2.91-0.88,6.53-0.42,7.47,2.65c0.94,3.07,2.46,4.46,2.46,4.46
				s-0.07-0.46-2.54,0.52c-2.47,0.97-6.59,0.34-8.37-1.86C38.8,45.65,36.76,41.83,36.76,41.83z"/>
			<path class="st5" d="M53,32.57c0,0-2.59,4.89-2.95,7.78c-0.37,2.89-0.22,4.49,1.82,5.84c2.04,1.35,3.02,2.62,3.02,2.62
				s1.14-3.78,2.3-4.94c1.16-1.16,1.9-4.19,0.69-5.49C56.67,37.1,53,32.57,53,32.57z"/>
			<path class="st6" d="M52.46,51.66c-0.02-0.05-2.53-0.29-5.3,0.21c-2.76,0.5-4.19,0.95-4.83,2.61c-0.64,1.65-0.92,3.27-1.19,5.04
				c-0.27,1.77-0.17,2.43-0.74,2.76c-0.57,0.33,0.61-0.78,3.77-0.95c3.16-0.17,4.81,0.2,5.74-1.13c0.93-1.33,0.34-3.09,0.9-4.82
				C51.37,53.65,52.46,51.66,52.46,51.66z"/>
		</g>
		<g>
			<path class="st0" d="M76.85,40.02c-2.27,0.38-6.23,1.86-9.04,2.91"/>
			<path class="st0" d="M73.05,34.41c-0.78,3.18-2.95,7.43-5.62,9.76"/>
			<path class="st0" d="M66.99,34.22c2.14,3.19,4.45,5.75,1.36,8.59"/>
			<path class="st0" d="M62.44,48.9c-2.28,4.02-5.51,7.99-8.59,9.79"/>
			<path class="st0" d="M66.19,55.94c-4.78,0.26-11.84,2.58-13.31,2.97"/>
			<path class="st0" d="M56.29,50.82c1.28,2.68,2.87,4.07-1.39,7.5"/>
			<path class="st1" d="M82.01,44.3c-1.77,0.55-2.02,1.53-5.66-1.04c-3.65-2.57-3.65-2.57-3.65-2.57s0.61-0.7,1.3-1.52
				c0.69-0.82,2.91-4.19,6.19-3.28c3.28,0.91,5.12,1.83,5.67,2.22c0.55,0.39,2.66,1.3,3.17,1.57"/>
			<path class="st11" d="M79.89,22.84c-0.61,2.34,1.83,5.23,0.34,8.18s-5.92,5.14-7.17,5.97s-0.51,1.84-0.92-0.68
				s-1.28-2.54-1.07-4.81c0.21-2.27,3.06-5.78,4.38-6.18S79.89,22.84,79.89,22.84z"/>
			<path class="st12" d="M69.44,37.79c-0.1-0.66,0.34-1.47-0.07-4.66c-0.4-3.19-1.11-5.65-3.61-5.86s-2.88,0.64-4.67-0.49
				c-1.79-1.14-1.79-1.14-1.79-1.14s0.31,2.75,0.95,6.55s4.76,5.04,6.46,5.27S69.44,37.79,69.44,37.79z"/>
			<path class="st4" d="M69.72,39.51c0,0-1.41,1.7-1,4.71c0.42,3.01-0.6,6.51-3.77,6.97c-3.18,0.45-4.79,1.74-4.79,1.74
				s0.46,0-0.12-2.59s0.69-6.56,3.14-7.98C65.63,40.94,69.72,39.51,69.72,39.51z"/>
			<path class="st5" d="M76.34,57c0,0-4.43-3.32-7.22-4.13c-2.79-0.81-4.41-0.91-6.05,0.89c-1.65,1.8-3.06,2.58-3.06,2.58
				s3.56,1.72,4.52,3.04c0.96,1.32,3.84,2.52,5.31,1.53C71.3,59.91,76.34,57,76.34,57z"/>
			<path class="st6" d="M57.57,53.5c0.05-0.01,0.68-2.46,0.62-5.26c-0.06-2.8-0.29-4.29-1.82-5.18c-1.53-0.89-3.08-1.41-4.79-1.95
				c-1.71-0.54-2.38-0.55-2.62-1.16c-0.24-0.61,0.67,0.72,0.35,3.87s-0.94,4.72,0.23,5.84c1.17,1.12,3,0.82,4.62,1.63
				C55.77,52.11,57.57,53.5,57.57,53.5z"/>
		</g>
		<g>
			<g>
				<path class="st13" d="M54.35,65.41c-0.06-2.3-0.96-6.43-1.6-9.36"/>
				<path class="st13" d="M60.44,62.44c-3.04-1.22-6.94-3.97-8.87-6.94"/>
				<path class="st13" d="M61.5,56.46c-3.46,1.67-6.32,3.59-8.7,0.13"/>
				<path class="st13" d="M47.6,49.89c-3.66-2.83-7.13-6.59-8.48-9.89"/>
				<path class="st13" d="M40.11,52.6c0.42-4.77-0.88-12.09-1.06-13.59"/>
				<path class="st13" d="M46.57,43.53c-2.83,0.89-4.44,2.27-7.23-2.44"/>
				<g>
					<path class="st14" d="M49.39,69.91c-0.29-1.83-1.23-2.21,1.83-5.46c3.06-3.25,3.06-3.25,3.06-3.25s0.61,0.71,1.32,1.5
						c0.71,0.8,3.73,3.47,2.37,6.59c-1.36,3.12-2.53,4.81-3,5.3c-0.46,0.49-1.66,2.45-2,2.92"/>
				</g>
				<g>
					<path class="st14" d="M70.93,70.84c-2.23-0.93-5.43,1.08-8.14-0.82s-4.25-6.59-4.9-7.95c-0.64-1.35-1.75-0.77,0.8-0.82
						c2.55-0.05,2.7-0.91,4.92-0.38s5.29,3.84,5.49,5.21C69.31,67.46,70.93,70.84,70.93,70.84z"/>
				</g>
				<g>
					<path class="st14" d="M57.61,58.39c0.67,0,1.41,0.54,4.62,0.59s5.75-0.3,6.31-2.75c0.56-2.45-0.23-2.94,1.15-4.55
						c1.38-1.61,1.38-1.61,1.38-1.61s-2.77-0.09-6.62,0.01c-3.86,0.1-5.66,4-6.13,5.65C57.84,57.36,57.61,58.39,57.61,58.39z"/>
				</g>
				<g>
					<path class="st14" d="M55.87,58.42c0,0-1.48-1.64-4.52-1.65c-3.04-0.01-6.36-1.51-6.36-4.72c0-3.21-1.04-4.99-1.04-4.99
						s-0.06,0.46,2.58,0.25c2.64-0.21,6.4,1.61,7.45,4.24C55.03,54.17,55.87,58.42,55.87,58.42z"/>
				</g>
				<g>
					<path class="st13" d="M37.62,62.5c0,0,3.91-3.92,5.11-6.57c1.2-2.65,1.53-4.23-0.03-6.12c-1.55-1.89-2.12-3.4-2.12-3.4
						s-2.2,3.28-3.65,4.05s-3.04,3.45-2.27,5.04C35.45,57.1,37.62,62.5,37.62,62.5z"/>
				</g>
				<g>
					<path class="st13" d="M43.74,44.41c0,0.05,2.34,1.02,5.12,1.36c2.79,0.33,4.29,0.32,5.39-1.07c1.1-1.39,1.83-2.85,2.61-4.47
						c0.78-1.62,0.88-2.28,1.52-2.43c0.64-0.15-0.81,0.56-3.88-0.2c-3.07-0.76-4.54-1.6-5.82-0.6c-1.28,1-1.23,2.86-2.27,4.34
						C45.37,42.83,43.74,44.41,43.74,44.41z"/>
				</g>
			</g>
		</g>
	</g>
	<g>
		<path class="st15" d="M50.24,94.59c1.45,0.67,3.04,1.02,4.69,0.95c6.38-0.27,11.3-6.54,10.99-14.01
			c-0.17-4.1-1.89-7.71-4.46-10.09c1.92,2.31,3.16,5.42,3.3,8.87c0.31,7.47-4.61,13.74-10.99,14.01c-1.87,0.08-3.66-0.37-5.27-1.23
			c-0.86-0.46-1.66-1.04-2.4-1.72C47.27,92.75,48.68,93.86,50.24,94.59z"/>
		<path class="st16" d="M48.51,93.08c-2.26-2.37-3.74-5.74-3.9-9.54C44.3,76.07,49.22,69.8,55.6,69.53
			c1.65-0.07,3.24,0.27,4.69,0.95c-1.89-1.35-4.13-2.09-6.49-2c-6.38,0.27-11.3,6.54-10.99,14.01c0.14,3.45,1.38,6.55,3.3,8.87
			C46.85,92.04,47.65,92.62,48.51,93.08z"/>
		<path class="st17" d="M61.47,71.44c-0.19-0.23-0.39-0.45-0.6-0.67c-0.19-0.1-0.38-0.2-0.57-0.29
			C60.7,70.77,61.09,71.09,61.47,71.44z"/>
		<path class="st18" d="M44.61,83.54c0.16,3.8,1.64,7.17,3.9,9.54c1.6,0.86,3.39,1.31,5.27,1.23c6.38-0.27,11.3-6.54,10.99-14.01
			c-0.14-3.45-1.38-6.55-3.3-8.87c-0.37-0.35-0.76-0.67-1.17-0.96c-1.45-0.67-3.04-1.02-4.69-0.95
			C49.22,69.8,44.3,76.07,44.61,83.54z"/>
		<path class="st19" d="M53.31,71.34c0.24,0.62,0.53,0.82,0.13,1.4c-0.4,0.58-0.33,0.65-0.23,1.34c0.1,0.7,0.23,0.34,0.1,0.7
			c-0.13,0.36-0.63,1.15-0.07,1.48c0.56,0.33,0.79,0.39,0.94,0.87c0.16,0.49,0.64-0.03,0.03,0.77c-0.6,0.8-1.1,1.19-1.1,1.19
			s0.08,1.59,0.54,2.42c0.46,0.82,1.51,0.64,0.77,1.51s-1.33,1.04-1.07,1.8c0.26,0.76,0.69,0.88,0.78,1.51
			c0.1,0.63-0.3,1.14-0.02,1.2c0.28,0.06,0.91-0.04,0.79,0.46c-0.12,0.5-0.25,0.78-0.73,1.08c-0.48,0.3-0.49-0.12-0.68,0.45
			c-0.19,0.57-0.74,0.66,0.05,1.12c0.79,0.46,0.87,0.81,0.87,0.81s1.05,0.94,0.51,1.74c-0.54,0.8-0.34,0.65-0.88,1.02
			c-0.55,0.37-0.86-0.24-0.71,0.87c0.02,0.12,0.03,0.22,0.03,0.31c0.52,0.06,1.04,0.08,1.58,0.06c0.14-0.01,0.27-0.02,0.41-0.03
			c0.07-0.44,0.19-0.84,0.38-1.15c0.59-0.94,0.87-1.09,0.62-2.06c-0.25-0.97-0.31-0.83-0.8-1.65c-0.49-0.82-0.43-1.04-0.07-1.68
			c0.36-0.65,0.99-0.6,0.76-1.09c-0.23-0.48-0.58-1.59-0.89-2.63c-0.31-1.04-0.75-0.95-0.08-1.82c0.68-0.87,0.83-0.95,0.76-1.48
			c-0.06-0.52,0-0.73-0.37-1.14c-0.37-0.41-1.75-0.07-1.36-0.79c0.39-0.72-0.39-0.19,0.74-1.3c1.13-1.1,0.93-1.3,0.8-1.65
			c-0.13-0.35-0.15-0.63-0.86-0.88c-0.71-0.25-1.04,0.04-0.86-0.6c0.18-0.64,0.78-1.23,0.75-2c-0.03-0.77-0.05-1.19-0.07-1.75
			c-0.02-0.56-0.92-2.07-0.92-2.07s-0.01-0.26-0.03-0.77c-0.01-0.22,0.17-0.38,0.36-0.52c-0.13,0-0.25,0-0.38,0
			c-0.16,0.01-0.32,0.02-0.48,0.03c-0.05,0.11-0.1,0.23-0.14,0.37C52.9,69.74,53.08,70.71,53.31,71.34z"/>
		<path class="st19" d="M56.94,70.13c0.41,0.83,0.22,0.76,0.44,1.04c0.22,0.27,0.52,0.75,0.88,1.86c0.36,1.11,0.91,2.35,1.01,2.84
			c0.1,0.49-0.24,1.13-0.44,1.78c-0.2,0.64-0.43,1.07-0.27,1.7c0.17,0.63,0.82,1.16,0.9,2.38s0.19,1.72,0.11,3.13
			c-0.08,1.41,0.42,1.67-0.27,4.02c-0.69,2.35,0.39,2.3,0.13,3.16c-0.14,0.45-0.07,1.26-0.03,2.19c0.42-0.23,0.83-0.5,1.23-0.79
			c0.21-0.17-0.1-0.75-0.12-1.1c-0.01-0.35-0.01-0.28-0.11-0.84c-0.09-0.56,0.12-0.43,0.39-0.79c0.27-0.36-0.12-1.12-0.06-1.47
			c0.06-0.35-0.05-1.12,0.13-2.04s-0.06-1.33,0.19-2.19c0.25-0.85-0.09-0.91-0.09-0.91s0.09-0.71-0.06-1.47
			c-0.15-0.77-0.27-0.76-0.43-1.32c-0.16-0.56-0.01-2.04,0.18-2.52s-0.02-0.44-0.02-0.44s-0.53-0.96-0.76-1.51
			c-0.22-0.55,0.24-0.78-0.06-1.26c-0.3-0.48,0.04-0.77-0.06-1.33c-0.09-0.56-0.09-0.56-0.58-1.03c-0.49-0.47-0.12-0.56-0.04-0.77
			c0.08-0.21-0.6-0.54-0.57-1.24c0.03-0.7,0.06-0.49-0.79-0.74c-0.62-0.18-0.51-0.91-0.42-1.55c-0.49-0.16-0.99-0.28-1.5-0.36
			C55.82,68.9,56.6,69.45,56.94,70.13z"/>
		<path class="st19" d="M49.78,71.27c-0.12,0.29-0.8,0.81-0.92,1.16c-0.13,0.36-0.11,0.85,0.06,1.54c0.17,0.7,0.32,0.83,0.33,1.25
			c0.02,0.42-0.33,0.58-0.34,1.14c-0.01,0.56-0.02,0.35,0.04,1.05c0.06,0.7-0.13,0.78,0.02,1.19c0.15,0.42,0.02,0.77,0.01,1.26
			c-0.01,0.49,0.54,1.94,0.76,2.25c0.22,0.31,0.93,0.42,0.19,1.3c-0.74,0.87-0.41,0.51-0.76,1.16c-0.36,0.65-0.5,0.65,0.06,1.4
			c0.56,0.75,0.65,1.1,0.65,1.1s0.46,0.96,0.06,1.4s-0.52,1.01-0.21,1.63c0.31,0.62,0.62,3.14,0.49,3.42
			c-0.12,0.28-0.62,0.61-0.58,0.67c0.45,0.25,0.92,0.46,1.4,0.64c0.06-0.39,0.07-0.73,0.32-1.01c0.4-0.44,0.27-0.15-0.04-1.05
			c-0.2-0.56-0.37-1.03-0.51-1.38c-0.09-0.22-0.16-0.38-0.21-0.49c-0.14-0.28,0.16-0.99-0.06-1.4s0.35-0.58,0.4-0.93
			c0.05-0.35-0.14-0.91-0.51-1.67c-0.37-0.76-0.13-0.84-0.1-1.33c0.03-0.49-0.17-0.55,0.37-1c0.54-0.44,0.55-1.22,0.48-1.5
			c-0.07-0.28-0.47-0.48-0.58-1c-0.1-0.52-1.14-1.11-0.44-1.56c0.7-0.45,0.57-0.3,0.9-0.81c0.33-0.51-0.06-1.33-0.06-1.33
			s-0.9-0.59-0.96-0.8c-0.07-0.21-0.38-0.05,0.38-0.93c0.76-0.87,0.72,0.04,0.32-1.14c-0.4-1.18-0.84-0.88-0.86-1.65
			c-0.02-0.77-0.74-0.46-0.05-1.19c0.69-0.73,0.42-0.44,0.74-1.01c0.33-0.58,0.33-0.58,0.33-0.58s-0.78-0.25-0.07-1.68
			c0.09-0.18,0.19-0.34,0.29-0.5c-0.33,0.11-0.65,0.23-0.97,0.37c-0.09,0.23-0.12,0.44-0.14,0.65
			C49.98,70.49,49.9,70.99,49.78,71.27z"/>
		<path class="st19" d="M44.94,76.11c0.03,0.77-0.08,1.55,0.1,2.31c0.17,0.77,0,1.19,0.02,1.97c0.02,0.77-0.43,1.23,0.09,2.19
			c0.52,0.95,1.28,1.97,0.77,2.56c-0.51,0.58-0.57,0.73-0.81,1.65s0.52,1.18,0.08,1.82c-0.38,0.56-0.24,0.98-0.08,1.25
			c0,0,0,0.01,0.01,0.01c0.01,0.01,0.01,0.02,0.02,0.03c0.28,0.45,0.59,0.87,0.92,1.27c-0.14-1.07-0.3-2.24-0.04-2.88
			c0.38-0.93,0.35-1.63,0.52-2.62c0.17-0.99-0.08-1.82-0.09-2.17c-0.01-0.35-0.46-0.34-0.41-1.22c0.04-0.88-0.53-0.71-0.07-1.65
			c0.46-0.93,0.89-0.28,0.4-1.26c-0.49-0.98-1.18-1.87-1.01-2.37c0.17-0.5-0.2-0.55-0.09-1.26c0.12-0.71,0.63-0.94,0.5-1.22
			c-0.13-0.27-0.07-1.63-0.07-1.65c-0.16,0.21-0.31,0.42-0.46,0.64C45.09,74.34,44.92,75.52,44.94,76.11z"/>
		<path class="st19" d="M61.51,72.47c-0.44,0.67-0.46,0.79-0.44,1.21c0.02,0.42,1.22,0.72,1.32,1.28c0.09,0.56,0.04,0.98,0.08,1.82
			c0.04,0.84,0.4,1.25,0.42,1.9c0.01,0.65,0.79,1.77,0.68,2.46c-0.11,0.68,0.33,1.27,0.09,2.13c-0.24,0.85,0.27,1.6,0.09,2.03
			c-0.19,0.43,0.42,1.74,0.66,2.5c0.07,0.21,0.02,0.67-0.07,1.21c0.24-0.47,0.46-0.97,0.65-1.47c0,0-0.17-1.65-0.12-2.15
			c0.05-0.49-0.07-1.75-0.07-1.75s-0.05-1.26-0.07-1.57c-0.01-0.31-0.18-0.88-0.59-1.7c-0.41-0.83-0.19-1.96-0.12-2.45
			c0.07-0.49-0.22-1.4-0.38-1.88c-0.16-0.49-0.64-1.94-0.97-2.7c-0.13-0.3-0.23-0.69-0.3-1.09c-0.24-0.27-0.49-0.53-0.76-0.78
			C61.77,71.63,61.93,71.83,61.51,72.47z"/>
	</g>
	<g>
		<path class="st15" d="M18.42,50.51c-0.84,1.36-1.37,2.9-1.5,4.55c-0.5,6.37,5.14,12.01,12.59,12.59
			c4.09,0.32,7.88-0.95,10.55-3.22c-2.53,1.63-5.75,2.48-9.2,2.21c-7.45-0.59-13.09-6.22-12.59-12.59c0.15-1.87,0.81-3.59,1.86-5.08
			c0.56-0.8,1.23-1.53,1.99-2.17C20.59,47.78,19.32,49.04,18.42,50.51z"/>
		<path class="st16" d="M20.12,48.97c2.62-1.96,6.15-3.02,9.93-2.73c7.45,0.59,13.09,6.22,12.59,12.59
			c-0.13,1.65-0.66,3.18-1.5,4.55c1.57-1.72,2.57-3.85,2.76-6.21c0.5-6.37-5.14-12.01-12.59-12.59c-3.44-0.27-6.67,0.59-9.2,2.21
			C21.35,47.44,20.68,48.17,20.12,48.97z"/>
		<path class="st17" d="M40.05,64.43c0.25-0.16,0.5-0.33,0.74-0.51c0.12-0.18,0.24-0.35,0.35-0.54
			C40.81,63.75,40.44,64.1,40.05,64.43z"/>
		<path class="st18" d="M30.06,46.24c-3.79-0.3-7.31,0.77-9.93,2.73c-1.05,1.49-1.71,3.21-1.86,5.08
			c-0.5,6.37,5.14,12.01,12.59,12.59c3.44,0.27,6.67-0.59,9.2-2.21c0.39-0.33,0.75-0.68,1.09-1.05c0.84-1.36,1.37-2.9,1.5-4.55
			C43.15,52.47,37.51,46.83,30.06,46.24z"/>
		<path class="st19" d="M41.13,56.34c-0.65,0.16-0.88,0.42-1.41-0.04c-0.53-0.46-0.6-0.41-1.31-0.39c-0.71,0.02-0.37,0.19-0.71,0.02
			c-0.34-0.17-1.07-0.76-1.46-0.24s-0.48,0.73-0.98,0.83s-0.05,0.64-0.77-0.06c-0.72-0.7-1.05-1.23-1.05-1.23s-1.59-0.11-2.47,0.25
			c-0.87,0.35-0.82,1.43-1.6,0.58c-0.78-0.84-0.87-1.45-1.66-1.28c-0.79,0.17-0.96,0.58-1.6,0.6c-0.64,0.02-1.09-0.44-1.18-0.16
			c-0.09,0.27-0.07,0.91-0.55,0.73c-0.48-0.18-0.75-0.34-0.99-0.85c-0.24-0.51,0.18-0.47-0.37-0.73c-0.54-0.26-0.57-0.82-1.12-0.09
			c-0.55,0.73-0.91,0.77-0.91,0.77s-1.06,0.93-1.78,0.29c-0.73-0.63-0.6-0.41-0.91-1c-0.31-0.59,0.35-0.83-0.78-0.81
			c-0.12,0-0.22,0-0.31-0.01c-0.12,0.51-0.21,1.03-0.25,1.56c-0.01,0.14-0.01,0.27-0.02,0.41c0.42,0.13,0.81,0.29,1.09,0.52
			c0.86,0.7,0.98,0.99,1.97,0.86c1-0.13,0.86-0.21,1.74-0.6c0.88-0.39,1.08-0.3,1.68,0.13c0.6,0.43,0.48,1.05,0.99,0.88
			c0.51-0.17,1.65-0.39,2.72-0.57c1.07-0.19,1.04-0.63,1.82,0.14c0.78,0.78,0.85,0.93,1.37,0.94c0.52,0,0.73,0.09,1.18-0.23
			c0.45-0.32,0.28-1.73,0.94-1.26c0.67,0.47,0.24-0.36,1.2,0.89c0.96,1.25,1.18,1.08,1.54,0.99c0.36-0.09,0.64-0.07,0.97-0.75
			c0.33-0.67,0.08-1.04,0.7-0.78c0.61,0.25,1.12,0.92,1.89,0.98c0.77,0.06,1.19,0.09,1.75,0.14c0.56,0.05,2.17-0.67,2.17-0.67
			s0.26,0.02,0.77,0.06c0.21,0.02,0.36,0.21,0.47,0.42c0.01-0.13,0.03-0.25,0.04-0.38c0.01-0.16,0.02-0.32,0.02-0.48
			c-0.1-0.06-0.22-0.13-0.35-0.19C42.77,56.12,41.78,56.18,41.13,56.34z"/>
		<path class="st19" d="M41.89,60.09c-0.87,0.3-0.78,0.13-1.08,0.32c-0.3,0.19-0.81,0.43-1.95,0.65c-1.14,0.22-2.44,0.62-2.94,0.66
			c-0.5,0.04-1.1-0.37-1.71-0.65c-0.61-0.27-1.01-0.56-1.65-0.47c-0.64,0.09-1.25,0.68-2.47,0.61c-1.22-0.07-1.73-0.02-3.12-0.27
			c-1.39-0.25-1.71,0.22-3.96-0.75c-2.25-0.96-2.33,0.11-3.15-0.25c-0.43-0.19-1.24-0.22-2.17-0.29c0.18,0.45,0.39,0.89,0.63,1.31
			c0.15,0.22,0.76-0.01,1.1,0.02c0.35,0.03,0.28,0.02,0.85,0c0.57-0.03,0.41,0.17,0.74,0.48c0.33,0.31,1.13,0.02,1.47,0.12
			c0.34,0.1,1.12,0.09,2.01,0.37c0.89,0.28,1.33,0.1,2.15,0.46c0.82,0.35,0.91,0.02,0.91,0.02s0.69,0.17,1.47,0.12
			c0.78-0.06,0.79-0.17,1.36-0.27c0.57-0.1,2.02,0.23,2.48,0.48c0.45,0.25,0.44,0.03,0.44,0.03s1.02-0.41,1.59-0.57
			c0.58-0.16,0.75,0.33,1.26,0.09s0.76,0.13,1.33,0.1c0.57-0.03,0.57-0.03,1.09-0.45c0.53-0.43,0.57-0.05,0.77,0.05
			s0.61-0.53,1.3-0.42c0.7,0.11,0.48,0.12,0.83-0.7c0.25-0.6,0.97-0.39,1.59-0.23c0.22-0.47,0.4-0.95,0.54-1.45
			C43.25,59.12,42.61,59.84,41.89,60.09z"/>
		<path class="st19" d="M41.62,52.85c-0.27-0.15-0.7-0.89-1.04-1.05c-0.34-0.17-0.83-0.21-1.54-0.12c-0.71,0.09-0.86,0.21-1.28,0.18
			c-0.42-0.03-0.53-0.39-1.09-0.47c-0.56-0.08-0.35-0.06-1.05-0.08c-0.7-0.02-0.76-0.22-1.19-0.12c-0.43,0.1-0.77-0.07-1.26-0.15
			c-0.49-0.07-1.99,0.3-2.32,0.49c-0.33,0.18-0.53,0.87-1.31,0.04c-0.78-0.84-0.46-0.47-1.06-0.9c-0.6-0.43-0.59-0.58-1.4-0.11
			c-0.81,0.47-1.17,0.51-1.17,0.51s-1.01,0.34-1.4-0.11c-0.39-0.45-0.94-0.64-1.59-0.41c-0.65,0.23-3.19,0.24-3.46,0.08
			c-0.26-0.16-0.53-0.69-0.6-0.66c-0.3,0.42-0.57,0.86-0.8,1.31c0.38,0.11,0.72,0.16,0.96,0.44c0.39,0.45,0.12,0.29,1.05,0.08
			c0.58-0.13,1.07-0.25,1.43-0.34c0.22-0.06,0.4-0.11,0.51-0.15c0.29-0.1,0.96,0.27,1.4,0.11c0.44-0.16,0.53,0.42,0.88,0.51
			c0.34,0.09,0.92-0.03,1.71-0.31c0.8-0.28,0.85-0.03,1.33,0.06c0.49,0.09,0.57-0.11,0.95,0.48c0.38,0.59,1.14,0.69,1.43,0.66
			c0.28-0.03,0.53-0.41,1.06-0.45s1.24-1,1.6-0.25c0.36,0.75,0.23,0.6,0.7,0.99c0.46,0.39,1.33,0.1,1.33,0.1s0.7-0.82,0.91-0.86
			s0.1-0.37,0.88,0.48c0.78,0.86-0.13,0.71,1.09,0.46c1.22-0.26,0.97-0.73,1.74-0.65s0.55-0.67,1.19,0.09
			c0.64,0.77,0.39,0.47,0.92,0.86c0.53,0.39,0.53,0.39,0.53,0.39s0.34-0.75,1.68,0.13c0.17,0.11,0.32,0.23,0.46,0.35
			c-0.07-0.34-0.15-0.68-0.26-1.01c-0.22-0.12-0.43-0.17-0.63-0.21C42.37,53.13,41.89,53,41.62,52.85z"/>
		<path class="st19" d="M37.39,47.46c-0.77-0.06-1.53-0.26-2.31-0.18c-0.78,0.08-1.19-0.15-1.95-0.22
			c-0.77-0.07-1.17-0.58-2.18-0.17c-1.01,0.41-2.11,1.03-2.63,0.46c-0.52-0.57-0.65-0.65-1.54-1c-0.89-0.35-1.24,0.37-1.82-0.14
			c-0.51-0.45-0.94-0.35-1.23-0.23c0,0-0.01,0-0.01,0c-0.01,0.01-0.02,0.01-0.04,0.02c-0.48,0.23-0.93,0.48-1.37,0.76
			c1.07-0.01,2.26-0.03,2.86,0.31c0.88,0.49,1.58,0.55,2.54,0.83c0.96,0.29,1.82,0.14,2.17,0.17c0.35,0.03,0.39-0.41,1.26-0.26
			c0.87,0.15,0.77-0.44,1.64,0.13c0.87,0.57,0.17,0.92,1.21,0.55c1.03-0.36,1.99-0.94,2.47-0.72c0.48,0.22,0.57-0.14,1.26,0.07
			c0.69,0.2,0.86,0.74,1.15,0.64c0.29-0.1,1.63,0.13,1.65,0.13c-0.19-0.18-0.38-0.36-0.58-0.53C39.14,47.82,37.98,47.51,37.39,47.46
			z"/>
		<path class="st19" d="M39.02,64.35c-0.61-0.51-0.73-0.55-1.15-0.58c-0.42-0.03-0.86,1.13-1.43,1.16
			c-0.57,0.03-0.98-0.08-1.82-0.14c-0.84-0.07-1.29,0.25-1.94,0.19c-0.65-0.07-1.86,0.57-2.52,0.38c-0.67-0.19-1.31,0.18-2.12-0.17
			c-0.82-0.34-1.63,0.08-2.03-0.16c-0.4-0.24-1.78,0.21-2.56,0.36c-0.22,0.04-0.66-0.06-1.2-0.22c0.44,0.3,0.9,0.57,1.39,0.83
			c0,0,1.66,0.03,2.15,0.14c0.48,0.11,1.75,0.14,1.75,0.14s1.26,0.1,1.57,0.12c0.31,0.02,0.89-0.07,1.76-0.38
			c0.87-0.31,1.97,0.04,2.45,0.17c0.48,0.13,1.41-0.05,1.91-0.15c0.5-0.1,2-0.41,2.8-0.64c0.31-0.09,0.71-0.15,1.12-0.17
			c0.3-0.21,0.59-0.43,0.87-0.66C39.83,64.71,39.61,64.84,39.02,64.35z"/>
	</g>
	<g>
		<path class="st15" d="M92.07,51.32c0.5-1.52,0.66-3.14,0.4-4.77c-1-6.31-7.79-10.48-15.17-9.32c-4.06,0.64-7.44,2.76-9.51,5.58
			c2.08-2.17,5.02-3.76,8.43-4.29c7.38-1.16,14.18,3.01,15.17,9.32c0.29,1.85,0.05,3.68-0.62,5.37c-0.36,0.9-0.84,1.77-1.43,2.58
			C90.59,54.48,91.53,52.95,92.07,51.32z"/>
		<path class="st16" d="M90.77,53.21c-2.09,2.51-5.27,4.37-9.03,4.96c-7.38,1.16-14.18-3.01-15.17-9.32
			c-0.26-1.63-0.1-3.25,0.4-4.77c-1.13,2.03-1.61,4.34-1.24,6.68c1,6.31,7.79,10.48,15.17,9.32c3.41-0.54,6.35-2.12,8.43-4.29
			C89.93,54.98,90.41,54.11,90.77,53.21z"/>
		<path class="st17" d="M67.79,42.81c-0.21,0.22-0.41,0.44-0.6,0.67c-0.08,0.2-0.15,0.4-0.22,0.6
			C67.22,43.65,67.49,43.22,67.79,42.81z"/>
		<path class="st18" d="M81.74,58.17c3.75-0.59,6.94-2.45,9.03-4.96c0.67-1.69,0.92-3.52,0.62-5.37c-1-6.31-7.79-10.48-15.17-9.32
			c-3.41,0.54-6.35,2.12-8.43,4.29c-0.3,0.41-0.57,0.83-0.82,1.27c-0.5,1.52-0.66,3.14-0.4,4.77
			C67.57,55.16,74.36,59.34,81.74,58.17z"/>
		<path class="st19" d="M68.62,50.92c0.59-0.31,0.76-0.62,1.38-0.29c0.62,0.33,0.68,0.25,1.36,0.07c0.68-0.18,0.31-0.27,0.68-0.18
			c0.37,0.08,1.21,0.49,1.48-0.1s0.3-0.83,0.76-1.04c0.46-0.21-0.1-0.63,0.76-0.12c0.86,0.51,1.31,0.95,1.31,0.95
			s1.57-0.27,2.34-0.81c0.77-0.55,0.46-1.58,1.42-0.94c0.95,0.64,1.19,1.21,1.91,0.86c0.73-0.35,0.8-0.78,1.41-0.95
			c0.61-0.17,1.16,0.17,1.19-0.12c0.03-0.29-0.14-0.9,0.37-0.84c0.51,0.06,0.81,0.16,1.16,0.6c0.35,0.44-0.06,0.5,0.53,0.62
			c0.59,0.12,0.74,0.66,1.11-0.18c0.37-0.84,0.7-0.96,0.7-0.96s0.81-1.15,1.67-0.7c0.85,0.45,0.68,0.26,1.11,0.76
			c0.43,0.5-0.14,0.89,0.95,0.6c0.11-0.03,0.21-0.05,0.3-0.07c0-0.52-0.04-1.05-0.12-1.57c-0.02-0.14-0.05-0.27-0.08-0.4
			c-0.44-0.02-0.86-0.09-1.18-0.25c-1-0.48-1.18-0.74-2.12-0.38c-0.94,0.36-0.79,0.4-1.55,0.99c-0.76,0.58-0.98,0.54-1.66,0.26
			c-0.68-0.28-0.71-0.91-1.17-0.63c-0.45,0.28-1.51,0.76-2.51,1.19c-1,0.43-0.86,0.86-1.8,0.28c-0.94-0.57-1.04-0.71-1.55-0.59
			c-0.51,0.12-0.73,0.09-1.09,0.5c-0.36,0.41,0.13,1.74-0.63,1.44c-0.76-0.3-0.15,0.41-1.37-0.58c-1.22-0.99-1.4-0.77-1.73-0.6
			c-0.33,0.17-0.6,0.22-0.77,0.95c-0.17,0.73,0.16,1.03-0.49,0.92c-0.66-0.1-1.31-0.63-2.07-0.52c-0.76,0.12-1.18,0.19-1.73,0.27
			c-0.56,0.08-1.95,1.15-1.95,1.15s-0.25,0.04-0.76,0.12c-0.21,0.03-0.4-0.12-0.56-0.29c0.01,0.13,0.03,0.25,0.05,0.38
			c0.02,0.16,0.06,0.31,0.09,0.47c0.12,0.04,0.24,0.07,0.38,0.1C67.08,51.52,68.03,51.23,68.62,50.92z"/>
		<path class="st19" d="M67.01,47.46c0.77-0.5,0.73-0.31,0.98-0.56c0.24-0.25,0.69-0.61,1.75-1.09c1.06-0.48,2.23-1.17,2.7-1.33
			c0.47-0.15,1.15,0.11,1.81,0.23c0.66,0.12,1.11,0.31,1.72,0.07c0.6-0.24,1.06-0.95,2.27-1.16c1.21-0.22,1.68-0.38,3.09-0.46
			c1.41-0.08,1.61-0.61,4.02-0.19c2.41,0.42,2.24-0.65,3.12-0.49c0.47,0.08,1.26-0.07,2.18-0.22c-0.28-0.4-0.59-0.77-0.92-1.13
			c-0.2-0.18-0.74,0.19-1.08,0.24c-0.35,0.05-0.28,0.04-0.82,0.2c-0.54,0.16-0.44-0.07-0.83-0.3c-0.39-0.22-1.1,0.24-1.46,0.23
			c-0.36-0.01-1.11,0.18-2.04,0.11c-0.93-0.07-1.32,0.21-2.19,0.06c-0.88-0.15-0.89,0.19-0.89,0.19s-0.71-0.01-1.46,0.23
			c-0.74,0.24-0.73,0.35-1.26,0.58c-0.53,0.23-2.02,0.25-2.52,0.11c-0.5-0.13-0.43,0.07-0.43,0.07s-0.89,0.64-1.42,0.92
			c-0.52,0.29-0.81-0.15-1.25,0.21c-0.44,0.35-0.77,0.05-1.32,0.21c-0.54,0.16-0.54,0.16-0.96,0.69c-0.41,0.54-0.54,0.18-0.76,0.13
			c-0.22-0.05-0.46,0.66-1.17,0.71c-0.7,0.05-0.5-0.01-0.64,0.87c-0.11,0.64-0.85,0.61-1.49,0.6c-0.1,0.5-0.16,1.02-0.19,1.54
			C65.92,48.71,66.38,47.87,67.01,47.46z"/>
		<path class="st19" d="M68.97,54.44c0.3,0.08,0.89,0.7,1.26,0.78c0.37,0.08,0.85,0.01,1.53-0.24c0.67-0.25,0.79-0.41,1.2-0.47
			c0.42-0.07,0.61,0.26,1.17,0.21c0.56-0.05,0.35-0.02,1.04-0.16c0.69-0.14,0.79,0.04,1.18-0.16c0.4-0.2,0.77-0.11,1.26-0.15
			s1.86-0.76,2.15-1.02c0.28-0.26,0.31-0.97,1.26-0.34c0.95,0.63,0.55,0.35,1.24,0.63c0.68,0.28,0.71,0.43,1.39-0.22
			c0.68-0.64,1.02-0.77,1.02-0.77s0.91-0.57,1.39-0.22c0.48,0.35,1.06,0.4,1.64,0.03c0.58-0.38,3.04-0.98,3.34-0.88
			c0.29,0.09,0.68,0.55,0.74,0.5c0.19-0.48,0.35-0.97,0.47-1.46c-0.4-0.02-0.74,0.02-1.04-0.2c-0.48-0.35-0.18-0.26-1.04,0.16
			c-0.53,0.26-0.98,0.49-1.31,0.67c-0.2,0.11-0.36,0.2-0.46,0.26c-0.26,0.17-1-0.04-1.39,0.22c-0.39,0.26-0.61-0.28-0.97-0.29
			c-0.36-0.01-0.89,0.24-1.6,0.7c-0.71,0.45-0.82,0.23-1.31,0.25c-0.49,0.02-0.53,0.24-1.03-0.25c-0.5-0.49-1.27-0.41-1.54-0.31
			c-0.27,0.1-0.42,0.52-0.93,0.69c-0.5,0.16-0.97,1.26-1.5,0.62c-0.53-0.64-0.37-0.53-0.91-0.8s-1.32,0.21-1.32,0.21
			s-0.49,0.96-0.69,1.05c-0.2,0.09-0.01,0.38-0.97-0.27c-0.96-0.65-0.04-0.72-1.17-0.19c-1.12,0.53-0.78,0.93-1.54,1.04
			c-0.76,0.11-0.37,0.78-1.18,0.19c-0.8-0.6-0.48-0.36-1.09-0.62c-0.61-0.26-0.61-0.26-0.61-0.26s-0.16,0.81-1.66,0.26
			c-0.19-0.07-0.36-0.15-0.53-0.23c0.15,0.32,0.31,0.62,0.48,0.92c0.24,0.07,0.46,0.07,0.66,0.06
			C68.17,54.34,68.67,54.36,68.97,54.44z"/>
		<path class="st19" d="M74.33,58.7c0.76-0.12,1.55-0.1,2.29-0.36c0.74-0.26,1.19-0.13,1.95-0.24c0.76-0.11,1.28,0.29,2.16-0.34
			c0.89-0.63,1.81-1.49,2.45-1.06c0.64,0.44,0.79,0.48,1.73,0.62s1.12-0.65,1.8-0.28c0.6,0.32,1,0.12,1.25-0.07
			c0,0,0.01,0,0.01-0.01c0.01-0.01,0.02-0.02,0.03-0.02c0.41-0.33,0.8-0.69,1.16-1.06c-1.04,0.26-2.19,0.55-2.85,0.37
			c-0.97-0.27-1.66-0.16-2.66-0.22c-1-0.05-1.8,0.28-2.15,0.34c-0.35,0.05-0.28,0.49-1.16,0.55c-0.88,0.06-0.65,0.61-1.63,0.26
			c-0.98-0.35-0.38-0.85-1.3-0.26c-0.92,0.6-1.72,1.38-2.23,1.28c-0.51-0.11-0.53,0.27-1.24,0.23c-0.72-0.04-1.01-0.52-1.26-0.36
			c-0.26,0.16-1.61,0.26-1.64,0.26c0.22,0.13,0.45,0.26,0.69,0.38C72.55,58.75,73.75,58.79,74.33,58.7z"/>
		<path class="st19" d="M68.81,42.65c0.71,0.36,0.84,0.37,1.26,0.3c0.42-0.07,0.58-1.3,1.12-1.46c0.54-0.16,0.97-0.15,1.8-0.28
			s1.19-0.54,1.84-0.63c0.65-0.09,1.67-0.99,2.36-0.96c0.69,0.03,1.23-0.47,2.1-0.33c0.88,0.14,1.56-0.46,2.01-0.32
			c0.45,0.14,1.68-0.62,2.41-0.94c0.2-0.09,0.66-0.1,1.21-0.07c-0.5-0.19-1.01-0.35-1.54-0.48c0,0-1.62,0.36-2.12,0.37
			c-0.5,0.01-1.73,0.27-1.73,0.27s-1.25,0.2-1.55,0.25c-0.31,0.05-0.85,0.28-1.62,0.78c-0.77,0.51-1.92,0.42-2.42,0.4
			c-0.5-0.01-1.36,0.38-1.83,0.59c-0.46,0.22-1.85,0.86-2.57,1.27c-0.28,0.16-0.66,0.31-1.05,0.42c-0.24,0.27-0.47,0.55-0.69,0.84
			C67.95,42.49,68.12,42.31,68.81,42.65z"/>
	</g>
	<g>
		<path class="st15" d="M49.81,15.48c-1.6-0.11-3.2,0.13-4.72,0.78c-5.87,2.51-8.25,10.12-5.32,16.99c1.61,3.78,4.5,6.54,7.74,7.86
			c-2.61-1.48-4.87-3.95-6.23-7.12c-2.94-6.87-0.56-14.48,5.32-16.99c1.72-0.74,3.56-0.95,5.36-0.71c0.97,0.13,1.92,0.38,2.85,0.76
			C53.24,16.14,51.53,15.61,49.81,15.48z"/>
		<path class="st16" d="M51.96,16.28c2.95,1.41,5.53,4.04,7.02,7.54c2.94,6.87,0.56,14.48-5.32,16.99
			c-1.52,0.65-3.13,0.89-4.72,0.78c2.25,0.59,4.6,0.5,6.78-0.43c5.87-2.51,8.25-10.12,5.32-16.99c-1.36-3.18-3.61-5.64-6.23-7.12
			C53.89,16.66,52.93,16.41,51.96,16.28z"/>
		<path class="st17" d="M47.51,41.11c0.26,0.15,0.53,0.29,0.79,0.41c0.21,0.03,0.43,0.05,0.64,0.07
			C48.46,41.46,47.99,41.3,47.51,41.11z"/>
		<path class="st18" d="M58.99,23.82c-1.49-3.49-4.07-6.12-7.02-7.54c-1.8-0.24-3.64-0.02-5.36,0.71
			c-5.87,2.51-8.25,10.12-5.32,16.99c1.36,3.18,3.61,5.64,6.23,7.12c0.47,0.19,0.95,0.35,1.43,0.48c1.6,0.11,3.2-0.13,4.72-0.78
			C59.54,38.3,61.92,30.69,58.99,23.82z"/>
		<path class="st19" d="M55.17,38.31c-0.44-0.5-0.78-0.58-0.62-1.26c0.17-0.68,0.08-0.72-0.26-1.34c-0.34-0.62-0.33-0.24-0.34-0.62
			c-0.01-0.38,0.18-1.3-0.46-1.41c-0.64-0.11-0.87-0.08-1.19-0.48s-0.59,0.25-0.3-0.71c0.28-0.96,0.61-1.5,0.61-1.5
			s-0.64-1.46-1.36-2.07c-0.72-0.61-1.64-0.06-1.26-1.14c0.38-1.08,0.88-1.44,0.36-2.06c-0.51-0.62-0.96-0.58-1.27-1.14
			c-0.31-0.55-0.12-1.17-0.4-1.13c-0.29,0.05-0.84,0.36-0.9-0.15c-0.07-0.51-0.05-0.82,0.29-1.27c0.34-0.45,0.5-0.06,0.48-0.66
			c-0.02-0.6,0.46-0.88-0.44-1.03C47.2,20.19,47,19.9,47,19.9s-1.31-0.51-1.09-1.44c0.22-0.94,0.09-0.72,0.46-1.27
			c0.38-0.54,0.89-0.08,0.35-1.07c-0.06-0.1-0.1-0.19-0.14-0.28c-0.51,0.13-1.01,0.29-1.5,0.5c-0.13,0.05-0.25,0.11-0.37,0.17
			c0.08,0.43,0.12,0.85,0.05,1.21c-0.22,1.09-0.43,1.33,0.15,2.15c0.58,0.82,0.59,0.67,1.34,1.26c0.75,0.59,0.77,0.82,0.66,1.55
			c-0.1,0.73-0.71,0.91-0.33,1.28c0.39,0.37,1.11,1.28,1.77,2.15c0.66,0.86,1.04,0.62,0.72,1.68c-0.33,1.06-0.43,1.19-0.19,1.65
			c0.24,0.47,0.26,0.69,0.75,0.94c0.49,0.25,1.66-0.56,1.55,0.25s0.43,0.04-0.23,1.47c-0.66,1.43-0.41,1.55-0.16,1.83
			c0.25,0.28,0.36,0.53,1.12,0.52c0.75-0.02,0.95-0.41,1.01,0.25s-0.29,1.42,0.01,2.14c0.3,0.71,0.47,1.1,0.69,1.61
			c0.22,0.52,1.59,1.61,1.59,1.61s0.1,0.24,0.3,0.71c0.08,0.2-0.02,0.41-0.15,0.61c0.12-0.05,0.24-0.09,0.35-0.14
			c0.15-0.06,0.29-0.13,0.43-0.2c0.01-0.12,0.01-0.25,0-0.39C56.13,39.66,55.62,38.81,55.17,38.31z"/>
		<path class="st19" d="M52.21,40.72c-0.67-0.63-0.48-0.64-0.78-0.81c-0.3-0.18-0.76-0.52-1.48-1.43c-0.73-0.91-1.69-1.88-1.95-2.3
			c-0.26-0.42-0.18-1.15-0.22-1.82c-0.04-0.67,0.03-1.16-0.35-1.68c-0.38-0.53-1.18-0.79-1.68-1.91c-0.5-1.12-0.78-1.54-1.21-2.89
			c-0.42-1.35-0.99-1.41-1.17-3.85c-0.19-2.44-1.18-2.01-1.24-2.91c-0.03-0.47-0.38-1.2-0.75-2.06c-0.31,0.37-0.6,0.76-0.87,1.17
			c-0.13,0.23,0.36,0.67,0.5,0.99c0.14,0.32,0.11,0.26,0.4,0.75c0.29,0.49,0.04,0.44-0.08,0.88c-0.12,0.43,0.51,1.01,0.58,1.36
			c0.07,0.35,0.44,1.03,0.61,1.95c0.17,0.92,0.52,1.23,0.59,2.11c0.07,0.89,0.41,0.82,0.41,0.82s0.17,0.69,0.58,1.36
			c0.41,0.66,0.52,0.62,0.87,1.08c0.35,0.46,0.74,1.9,0.73,2.42c-0.01,0.52,0.17,0.4,0.17,0.4s0.84,0.71,1.24,1.15
			c0.41,0.44,0.05,0.82,0.51,1.16s0.24,0.74,0.52,1.23c0.29,0.49,0.29,0.49,0.91,0.76c0.62,0.27,0.31,0.48,0.31,0.71
			c0,0.23,0.75,0.29,0.98,0.96c0.22,0.67,0.12,0.48,1,0.41c0.65-0.05,0.8,0.67,0.94,1.3c0.51-0.02,1.03-0.09,1.53-0.19
			C53.69,41.48,52.76,41.24,52.21,40.72z"/>
		<path class="st19" d="M58.5,37.12c0.01-0.31,0.46-1.04,0.45-1.41c-0.01-0.38-0.2-0.83-0.61-1.42c-0.41-0.59-0.59-0.66-0.75-1.05
			c-0.17-0.39,0.1-0.65-0.09-1.18c-0.19-0.53-0.11-0.34-0.41-0.97c-0.31-0.63-0.16-0.77-0.44-1.11c-0.29-0.34-0.29-0.72-0.45-1.18
			s-1.19-1.62-1.51-1.83c-0.32-0.21-1.02-0.06-0.64-1.14c0.38-1.08,0.2-0.62,0.3-1.35c0.1-0.73,0.24-0.79-0.55-1.29
			c-0.79-0.5-0.99-0.8-0.99-0.8s-0.77-0.74-0.55-1.29c0.22-0.55,0.13-1.12-0.38-1.6s-1.69-2.71-1.67-3.03
			c0.02-0.3,0.36-0.79,0.31-0.84c-0.51-0.07-1.02-0.1-1.53-0.1c0.08,0.39,0.2,0.71,0.06,1.05c-0.22,0.55-0.2,0.24,0.41,0.97
			c0.38,0.45,0.72,0.83,0.97,1.11c0.16,0.17,0.28,0.3,0.37,0.38c0.23,0.21,0.21,0.98,0.55,1.29c0.35,0.31-0.12,0.66-0.05,1.01
			c0.08,0.35,0.45,0.8,1.07,1.38c0.61,0.58,0.42,0.74,0.56,1.21c0.14,0.47,0.36,0.46,0.01,1.06c-0.35,0.61-0.08,1.33,0.08,1.57
			c0.16,0.24,0.61,0.28,0.89,0.73c0.28,0.45,1.46,0.63,0.97,1.3c-0.49,0.67-0.42,0.49-0.55,1.08c-0.13,0.59,0.52,1.23,0.52,1.23
			s1.05,0.24,1.19,0.41c0.13,0.17,0.38-0.08-0.02,1c-0.4,1.09-0.69,0.22,0.1,1.18c0.79,0.96,1.09,0.53,1.38,1.24
			c0.29,0.72,0.85,0.17,0.47,1.1c-0.38,0.93-0.23,0.56-0.34,1.21c-0.1,0.65-0.1,0.65-0.1,0.65s0.82-0.05,0.66,1.55
			c-0.02,0.2-0.05,0.39-0.09,0.57c0.27-0.22,0.53-0.45,0.78-0.69c0.01-0.25-0.05-0.46-0.1-0.66C58.59,37.92,58.49,37.43,58.5,37.12z
			"/>
		<path class="st19" d="M61.31,30.88c-0.3-0.71-0.48-1.48-0.91-2.13c-0.43-0.65-0.42-1.12-0.72-1.83c-0.3-0.71-0.03-1.31-0.86-2.01
			c-0.83-0.7-1.89-1.39-1.63-2.12c0.27-0.72,0.27-0.88,0.17-1.83c-0.1-0.95-0.9-0.92-0.72-1.68c0.16-0.66-0.12-1-0.37-1.19
			c0,0-0.01,0-0.01-0.01c-0.01-0.01-0.02-0.02-0.03-0.02c-0.42-0.32-0.86-0.6-1.31-0.86c0.51,0.95,1.07,1.99,1.05,2.68
			c-0.03,1,0.25,1.65,0.44,2.64c0.19,0.99,0.72,1.68,0.86,2c0.14,0.32,0.55,0.15,0.82,0.99c0.27,0.84,0.75,0.48,0.65,1.51
			c-0.1,1.04-0.73,0.58,0.07,1.32c0.8,0.75,1.76,1.33,1.78,1.85c0.02,0.52,0.39,0.45,0.53,1.15c0.14,0.7-0.26,1.1-0.04,1.31
			c0.22,0.21,0.64,1.5,0.65,1.52c0.07-0.25,0.14-0.5,0.2-0.76C61.8,32.59,61.54,31.42,61.31,30.88z"/>
		<path class="st19" d="M47.11,40.16c0.17-0.78,0.15-0.9-0.02-1.29c-0.17-0.39-1.4-0.24-1.69-0.73c-0.29-0.49-0.39-0.9-0.72-1.68
			c-0.33-0.77-0.82-1.02-1.06-1.63c-0.24-0.6-1.37-1.38-1.51-2.06c-0.14-0.68-0.76-1.08-0.84-1.96c-0.08-0.88-0.82-1.4-0.8-1.87
			c0.02-0.47-1.01-1.48-1.51-2.1c-0.14-0.17-0.26-0.61-0.36-1.16c-0.06,0.53-0.09,1.07-0.09,1.61c0,0,0.75,1.49,0.87,1.96
			c0.13,0.48,0.69,1.61,0.69,1.61s0.5,1.16,0.62,1.45c0.12,0.28,0.48,0.76,1.16,1.38c0.68,0.63,0.88,1.76,0.98,2.25
			c0.11,0.49,0.7,1.23,1.02,1.62c0.32,0.4,1.29,1.59,1.86,2.18c0.23,0.23,0.46,0.56,0.67,0.91c0.32,0.17,0.65,0.32,0.98,0.46
			C47.16,41.04,46.94,40.91,47.11,40.16z"/>
	</g>
</g>
</svg>
