<?xml version="1.0" encoding="utf-8"?>
<!-- Generator: Adobe Illustrator 23.1.1, SVG Export Plug-In . SVG Version: 6.00 Build 0)  -->
<svg version="1.1" id="Layer_1" xmlns="http://www.w3.org/2000/svg" xmlns:xlink="http://www.w3.org/1999/xlink" x="0px" y="0px"
	 viewBox="0 0 108 108" style="enable-background:new 0 0 108 108;" xml:space="preserve">
<style type="text/css">
	.st0{fill:#76AF42;}
	.st1{fill:#9BBD62;}
	.st2{fill:#5F8C3D;}
	.st3{fill:#7E9D3D;}
</style>
<g>
	<path class="st0" d="M52.45,51.74c0,0-4.01-1.31-4.49,0c-0.48,1.31-4.43,2.29-4.43,2.29s-1.28,1.69-0.29,2.98
		c0.99,1.28,4.73,2.74,4.96,3.47c0.23,0.74-0.12,2.82,0.46,2.99s-1.82,0.33-2.17,0.67c-0.35,0.33-0.62,0.68-0.45,1.34
		c0.17,0.66,2.22-0.14,2.18,0.48c-0.04,0.61-0.26,3.2,0.93,2.94c1.19-0.25,1.49-0.81,2.18-1.57c0.69-0.77,0.88-0.32,1.13,0.4
		c0.24,0.73,1.55,1.71,1.94,0.73c0.39-0.99,1.69-2.37,1.56-1.13c-0.13,1.24,0.74,2.24,0,2.7c-0.74,0.46-0.39,2.3,0.2,1.29
		c0.59-1,0.9-0.75,0.9-2.01s-0.06-1.64,0.47-1.99c0.53-0.35,1.34-1.16,1.18-1.61c-0.16-0.45-2.45-0.85-0.64-1.87
		c1.81-1.02,0.99-0.5,2.09-1.23c1.1-0.73,2.8,0.58,2.06-2.29s-1.56-2.26-0.42-3.32c1.14-1.06,1.67-2.45,0.98-2.42
		c-0.69,0.03-0.15-0.2-1.83,0c-1.68,0.2-1.53,0.18-2.14-1.65c-0.61-1.83,0.55-4.67-1.29-3.59s-2.76,2.53-3.21,2.64
		C53.84,52.11,52.45,51.74,52.45,51.74z"/>
	<path class="st1" d="M60.26,61.37c-0.21-0.59-1.62-4.94-1.7-5.5c-0.09-0.56-2.24-7.54-2.42-9.05s0.02-3.72-0.64-2.68
		c-0.65,1.04-0.28,2.68-1.48,1.97c-1.2-0.7-2.03-2.21-2.01-2.54c0.02-0.33-0.3-0.46-1.57-0.6c-1.27-0.14-1.31,0.18-1.33-1.14
		c-0.02-1.31,0.01-2.23-0.28-2.57c-0.29-0.33-1.6-1.63-1.6-1.63s1.44,2.34-0.11,3.14s-2.9-0.35-3.65-1.28s-1.54-1.8-2.24-2.7
		c-0.7-0.89-2.91-3.49-2.85-2.66c0.06,0.82,1.33,1.83,0.8,2.35c-0.52,0.52-0.97,0.33-1.71,0.09c-0.74-0.24-1.52-0.32-2.06-0.24
		c-0.54,0.08-2.47-1.44-2.18-0.39c0.29,1.05,0.59,1.16,1.55,2.32c0.97,1.16-0.15,1.03,2.66,2.19s2.67,0.55,3.89,1.79
		c1.22,1.24,1.71,1.65,0.79,1.3s-3.01-1.3-1.61-0.11s1.82,1.15,3.41,1.87c1.58,0.73,0.98,0.33,2.53,1.35s2.03,1.46,2.23,1.8
		c0.21,0.34,0.73,0.93-0.7,1.27s-4.33,0.47-2.51,1.07s2.93,1.33,3.86,1.07c0.93-0.25,2.3,0.13,2.54,0.29s2.33,1.88,2.1,2.34
		c-0.23,0.46-0.81,0.51-0.59,0.83c0.22,0.32,0.01,0.7,1.19,0.44c1.18-0.26,1.64-0.56,1.94-0.37c0.3,0.2,0.19-0.05,0.65,0.69
		c0.46,0.74,0.46,0.74,0.94,1.75c0.48,1.01,0.85,2.34,1.07,2.81s0.68,2.16,0.68,2.16l1.93,0.15L60.26,61.37z"/>
	<path class="st1" d="M58.04,63.84c-0.49-0.33-4.03-2.84-4.41-3.23s-5.97-4.49-6.95-5.56s-2.06-2.96-1.99-1.7
		c0.06,1.26,1.26,2.31-0.08,2.55s-2.84-0.4-3.01-0.68c-0.17-0.28-0.49-0.16-1.58,0.57c-1.09,0.73-0.94,1.01-1.68-0.02
		c-0.75-1.03-1.23-1.78-1.65-1.85c-0.42-0.07-2.17-0.22-2.17-0.22s2.45,0.89,1.66,2.56c-0.78,1.67-2.49,1.65-3.61,1.42
		s-2.23-0.4-3.28-0.64c-1.05-0.24-4.25-0.82-3.74-0.21c0.51,0.61,2.07,0.57,1.95,1.33c-0.13,0.76-0.59,0.91-1.31,1.22
		s-1.39,0.76-1.77,1.18c-0.38,0.42-2.76,0.51-1.95,1.15c0.81,0.64,1.11,0.53,2.52,0.8c1.41,0.27,0.46,0.92,3.33-0.04
		s2.42-1.35,4.08-1.18c1.66,0.17,2.27,0.17,1.35,0.51c-0.92,0.34-3.11,0.98-1.33,0.99c1.78,0.01,2.09-0.31,3.74-0.79
		c1.66-0.48,0.96-0.39,2.76-0.62c1.8-0.22,2.42-0.2,2.77-0.07s1.1,0.24,0.15,1.47c-0.95,1.23-3.17,3.27-1.39,2.52
		s3.06-0.9,3.66-1.72c0.6-0.82,1.9-1.43,2.17-1.46s2.9-0.06,2.97,0.45s-0.36,0.94-0.01,1.05c0.35,0.11,0.4,0.55,1.18-0.45
		c0.79-0.99,0.99-1.54,1.33-1.59s0.13-0.17,0.9,0.11c0.78,0.28,0.78,0.28,1.72,0.76s1.98,1.28,2.41,1.51s1.74,1.26,1.74,1.26
		l1.61-1.17L58.04,63.84z"/>
	<path class="st1" d="M54.59,66.42c-0.03-0.63-0.36-5.23-0.49-5.78c-0.13-0.55-0.76-7.89-1.16-9.34c-0.4-1.45-1.4-3.39-0.41-2.73
		c0.99,0.66,1.26,2.32,2.09,1.14c0.83-1.18,1.03-2.93,0.89-3.22c-0.15-0.29,0.1-0.55,1.21-1.25c1.1-0.7,1.26-0.42,0.79-1.63
		s-0.84-2.04-0.7-2.47c0.14-0.43,0.86-2.2,0.86-2.2s-0.45,2.78,1.26,2.82c1.71,0.04,2.51-1.61,2.86-2.8s0.74-2.33,1.04-3.46
		c0.3-1.13,1.36-4.48,1.61-3.71c0.25,0.78-0.53,2.27,0.14,2.51c0.67,0.24,1.01-0.13,1.6-0.68s1.27-0.97,1.79-1.14
		s1.72-2.42,1.85-1.33c0.13,1.09-0.11,1.32-0.56,2.81c-0.45,1.49,0.52,0.88-1.61,3.19c-2.13,2.31-2.23,1.69-2.89,3.37
		s-0.95,2.27-0.24,1.54c0.71-0.73,2.27-2.53,1.43-0.81s-1.24,1.86-2.41,3.23s-0.78,0.74-1.81,2.37c-1.03,1.62-1.31,2.24-1.37,2.64
		c-0.06,0.4-0.33,1.17,1.11,0.85c1.43-0.33,4.13-1.5,2.69-0.14c-1.44,1.36-2.18,2.52-3.13,2.7c-0.94,0.18-2.05,1.15-2.21,1.39
		s-1.43,2.76-1.05,3.07c0.38,0.31,0.93,0.1,0.85,0.49c-0.08,0.39,0.25,0.64-0.92,0.93c-1.17,0.28-1.71,0.22-1.91,0.53
		c-0.2,0.31-0.19,0.04-0.34,0.93s-0.15,0.88-0.21,2.02c-0.06,1.13,0.09,2.52,0.07,3.04c-0.02,0.53,0.18,2.28,0.18,2.28l-1.71,1
		L54.59,66.42z"/>
	<path class="st2" d="M61.51,67.67c0,0,5.02,1.41,6.04,2.68c1.02,1.26,3.12,4.24,3.26,4.53s0.41,0,1.02,0.59
		c0.61,0.59,1.09,1.19,2.17,3.49c1.09,2.3,1.35,3.57,1.73,2.9c0.38-0.67-0.1-2.3,0.51-1.19s0.95,1.34,1.63,1.93
		c0.68,0.59,0.54,0.97,1.36,0.97c0.81,0,0.07-0.97-0.41-1.86c-0.47-0.89-0.81-1.86-0.75-2.16c0.07-0.3,0.72,0.07,1.52,0.52
		c0.79,0.45,0.72,1.34,1.06,0.74c0.34-0.59-0.61-1.26-1.63-2.23c-1.02-0.97-1.22-1.34-2.1-2.3c-0.88-0.97-1.42-1.64-1.56-2.01
		s0.75-0.37,1.76-0.52c1.02-0.15,1.83-0.3,1.09-0.45c-0.75-0.15-3.94-0.3-4.55-0.74c-0.61-0.45-0.27-0.22-2.54-1.86
		c-2.27-1.64-3.16-2.01-3.97-2.38c-0.81-0.37-2.74-1.19-3.54-1.41c-0.8-0.22-2.09-0.52-2.09-0.52V67.67z"/>
	<path class="st2" d="M62.18,63.37c-0.45,0.27-7.09,0.97-8.69,0.54c-1.59-0.43-7.4-1.66-9.58-0.89c-2.18,0.77-3.24,1.65-4.38,2.75
		c-1.14,1.1-2.73,3.79-3.58,4.2c-0.85,0.4-0.85,0.4-0.85,0.4s1.2-0.95,1.68-2.34s1.29-1.91,0.94-2.5s-0.33-0.86-1.18-0.64
		c-0.85,0.22-1.09,0.67-2.19,1.24c-1.1,0.57-3.17,2.37-3.66,2.99c-0.49,0.62-1.09,2.05-1.56,2.71c-0.47,0.65-1.54,1.43-1.67,1.79
		s-1.01,0.26-1.01,0.26s0.61-0.13,1.26-1.75c0.65-1.62,0.98-2.56,1.05-2.78c0.07-0.22-1.43,0.19-1.71,1.17
		c-0.28,0.99-0.54,2.19-0.54,2.19s-0.99-0.67-0.53-1.78s0.54-1.23,1.02-2.14c0.48-0.91,0.81-1.85,1.11-2.26s1.47,0.23,0.55-0.76
		c-0.93-0.99-1.41-1.88-1.25-2.22s0.56-0.65,0.82-0.42s-0.3,1.26,1.66,1.06s3.43-0.92,4.37-1.15c0.94-0.23,1.86-0.19,1.94-0.41
		c0.07-0.22,0.22-1.14-0.96-0.83c-1.17,0.31-2.18,0.39-2.26,0.13c-0.08-0.25-0.94-0.62,0.31-0.68s3.04-0.02,3.67-0.05
		c0.63-0.03,5.73,0.31,6.07,0.32c0.34,0.01,1.84,0.08,2.35,0.04s0.71-0.45,0.51-0.71c-0.2-0.26-0.63-1.1-0.63-1.1
		s3.96,2.19,4.95,2.48s7.05,0.98,7.9,0.77c0.85-0.21,3.42-0.65,3.96-0.56c0.54,0.09,2.29,0.3,2.05,0.51S62.18,63.37,62.18,63.37z"/>
	<path class="st0" d="M54.53,60.01c0,0-1.87-4.24-2.46-4.91c-0.59-0.67-0.98-1.64-0.85-2.45s-1.36-2.3-1.36-2.3s1.56,2.16,0.41,2.45
		c-1.15,0.3-2.44,0.59-2.99-0.22c-0.54-0.82-1.9-1.56-2.37-2.23c-0.47-0.67-2.31-1.41-2.31-1.41s0.88,0.82,1.09,1.64
		c0.2,0.82,2.92,1.26,0.41,1.93c-2.51,0.67-3.53,0.67-4.07,0.52c-0.54-0.15-1.02-0.22-1.02-0.22s0.61,0.59-0.54,0.74
		c-1.15,0.15-1.83-0.45-2.17-0.3c-0.34,0.15,0.2,0.59,0.68,1.23s1.57,0.56,0.38,1.6c-1.19,1.04-5.26,5.58-6.01,5.87
		c-0.75,0.3-1.7,0.67-0.81,0.74c0.88,0.07,1.9,0.07,3.46-1.19c1.56-1.26,3.58-2.53,3.93-2.68c0.35-0.15,1.64-0.3,1.23,0.15
		c-0.41,0.45-0.68,0.37-0.95,0.74c-0.27,0.37-1.44,1.93-0.28,1.41c1.16-0.52,3.39-1.56,4.45-2.3c1.06-0.74,1.81-1.41,2.62-1.86
		c0.81-0.45,0.61-0.87,1.49-1.14c0.88-0.27,2.51-1.02,2.78-0.87c0.27,0.15,1.56-0.12,2.24,0.87c0.68,0.99,0.75,0.99,1.49,2.18
		c0.75,1.19,0.95,2.53,1.15,2.82s0.95,1.88,0.95,1.88s0.27-0.62,0.34-0.84S54.53,60.01,54.53,60.01z"/>
	<path class="st2" d="M51.91,55.44c0-0.22-5.16-6.91-7.19-8.1c-2.04-1.19-3.12-1.26-4.95-1.64c-1.83-0.37-2.37-1.56-4.41-1.19
		c-2.04,0.37-2.78,0.3-2.71-0.07c0.07-0.37,0.87-0.9,0-0.9c-0.88,0,0.14-0.52-2.44,0s-2.58,1.12-5.56,0.59
		c-2.99-0.52-3.73-0.39-3.94-0.83c-0.2-0.44-0.95-0.59,0-0.74c0.95-0.15,1.19,0,1.58-0.22c0.39-0.22-0.52-0.59,0-1.04
		c0.52-0.45,0.66-0.15,1.07-0.45c0.41-0.3,0.54,0.45,0.44-0.97c-0.1-1.41-0.98-2.01-0.1-1.41c0.88,0.59,1.63,2.53,2.78,2.08
		c1.15-0.45,0-1.41,0.61-1.93c0.61-0.52,1.36,0.15,1.63,0.37s0.68,0.21,0.54-0.75s-0.14-1.27,0.47,0c0.61,1.27-1.15,1.42,1.56,2.09
		s2.17,1.49,2.71,0.67s1.76-0.15,1.22-1.93c-0.54-1.78-1.15-2.53-1.02-3.05c0.14-0.52,0.27-0.59,0.68,0.59
		c0.41,1.19,0.68,2.97,1.76,3.2c1.09,0.22,0.81-0.3,2.04,0.37s1.23,0.37,1.94,1.34c0.71,0.97,0.64,1.41,1.73,2.16
		c1.09,0.74,2.36,1.93,3.93,2.75c1.57,0.82,4.89,5.43,5.3,5.87c0.41,0.45,1.22,2.3,1.22,2.3s0.41,0.3,0,0.82
		C52.39,55.96,51.91,55.44,51.91,55.44z"/>
	<path class="st2" d="M56.46,62.65c0-0.22,5.16-6.91,7.19-8.1c2.04-1.19,3.12-1.26,4.95-1.64c1.83-0.37,2.37-1.56,4.41-1.19
		c2.04,0.37,2.78,0.3,2.71-0.07s-0.87-0.9,0-0.9c0.88,0-0.14-0.52,2.44,0c2.58,0.52,2.58,1.12,5.56,0.59
		c2.99-0.52,3.73-0.39,3.94-0.83c0.2-0.44,0.95-0.59,0-0.74c-0.95-0.15-1.19,0-1.58-0.22c-0.39-0.22,0.52-0.59,0-1.04
		s-0.66-0.15-1.07-0.45c-0.41-0.3-0.54,0.45-0.44-0.97s0.98-2.01,0.1-1.41c-0.88,0.59-1.63,2.53-2.78,2.08s0-1.41-0.61-1.93
		c-0.61-0.52-1.36,0.15-1.63,0.37c-0.27,0.22-0.68,0.21-0.54-0.75c0.14-0.96,0.14-1.27-0.47,0c-0.61,1.27,1.15,1.42-1.56,2.09
		c-2.71,0.67-2.17,1.49-2.71,0.67s-1.76-0.15-1.22-1.93c0.54-1.78,1.15-2.53,1.02-3.05c-0.14-0.52-0.27-0.59-0.68,0.59
		c-0.41,1.19-0.68,2.97-1.76,3.2s-0.81-0.3-2.04,0.37c-1.22,0.67-1.23,0.37-1.94,1.34c-0.71,0.97-0.64,1.41-1.73,2.16
		c-1.09,0.74-2.36,1.93-3.93,2.75c-1.57,0.82-4.89,5.43-5.3,5.87c-0.41,0.45-1.22,2.3-1.22,2.3s-0.41,0.3,0,0.82
		C55.98,63.17,56.46,62.65,56.46,62.65z"/>
	<path class="st3" d="M55.41,59.94c0,0,4.2-5.65,4.27-6.54c0.07-0.89-0.2-0.74,0-2.01s0.01-1.86,0.01-1.86s0.33,1.26,0.67,0.89
		c0.34-0.37,0.41-1.26,0.54-2.38c0.14-1.12,0.61-2.3,0.88-2.75c0.27-0.45,1.09-0.97,1.09-0.97s-0.75,2.38-0.54,3.12
		c0.2,0.74-0.2,1.12,0.54,0s1.47-3.12,1.47-3.12s0.23-2.38,0.5-3.27c0.27-0.89,0.2-0.89,0.75-2.16c0.54-1.26,0.61-1.64,1.09-2.82
		c0.47-1.19,0.75-1.04,0.68-1.93c-0.07-0.89-0.18-1.26,0.01-1.64s0.79,0.82,0.79,0.82l0.01,0.59c0,0,2.24-1.41,2.58-1.48
		s1.36,0,1.36,0s0.54,0.44,0,1.19c-0.54,0.74-0.75,1.49-0.95,1.93c-0.2,0.45-0.68,1.34-0.68,1.34s0.81-0.15,1.49-0.22
		c0.68-0.07,1.49-0.45,1.36,0.07c-0.14,0.52-1.02,0.89-1.02,0.89s-0.14,0.07-0.75,0.45c-0.61,0.37-0.61,0.3-1.09,0.59
		c-0.47,0.3-1.02-0.15-1.56,0.89s-0.61,1.12-0.75,1.86c-0.14,0.74-0.07,1.51,0.75,0.57s0.88-1.76,1.49-1.68s1.09,0.15,0.68,0.45
		c-0.41,0.3-1.22,0.39-1.42,1.24c-0.2,0.84,0,0.84-0.34,1.74c-0.34,0.89-0.47,1.34-0.47,1.34s0.95-0.52,1.56-0.74
		s1.36-0.74,1.29-0.15c-0.07,0.59-0.41,0.67-1.15,1.04c-0.75,0.37-2.37,0.27-2.37,0.95c0,0.68,0.07,0.91,0.41,0.91s1.15-0.45,0.34,0
		c-0.81,0.45-1.42,0.15-2.51,1.04c-1.09,0.89-1.49,1.34-1.09,1.49c0.41,0.15,0.81,0.37,1.97,0.07c1.15-0.3,2.44-0.82,2.71-0.74
		c0.27,0.07-0.2,0.45,0.34,0.59c0.54,0.15,1.9-0.07,1.42,0.52c-0.47,0.59-1.22,1.34-1.22,1.34s0.88-0.13,1.02,0.6
		c0.14,0.74,1.29,1.48,0.14,0.74c-1.15-0.74-2.1-1.32-2.24-0.74c-0.14,0.59,0.34,1.11,0.34,1.11s0.07,0.37-0.75,0
		c-0.81-0.37-0.14-0.59-2.51-0.22c-2.37,0.37-4.07,0.82-4.95,1.12c-0.88,0.3-1.56,0.84-2.24,1.83c-0.68,0.99-2.92,4.19-3.12,4.56
		C56.02,60.75,55.41,59.94,55.41,59.94z"/>
	<path class="st1" d="M55.95,65.21c0.75,0.07,3.8-0.15,3.39,1.34c-0.41,1.49-0.61,1.71-0.81,2.01s-1.39,0.67-0.86,0.82
		s1.41-0.3,1.71-0.45c0.3-0.15,0.84-1.41,0.98,0c0.14,1.41,0.34,3.27,0,4.24c-0.34,0.97-1.76,2.53-1.15,2.38
		c0.61-0.15,1.76-1.26,2.1-1.26c0.34,0,0.81,1.34,0.81,1.93c0,0.59-0.2,1.19,0,1.56s0.68,0.37,1.09,1.12
		c0.41,0.74,0.34,2.97,0.34,3.42s0.2,2.01,0.47,0.52c0.27-1.49,0.88-4.98,0.88-5.65c0-0.67,0.41-0.15,0.54-0.97
		c0.14-0.82-0.54,0.22-0.54-1.49s-0.88-1.71,0-1.71c0.88,0,1.29,0,2.24,0.15s1.76,1.04,1.02-0.07c-0.75-1.12-2.17-2.45-2.71-2.9
		s0.54-0.3,0.07-0.82c-0.47-0.52-0.04,0.15-1.18-0.74c-1.13-0.89-1.34-1.41-1.54-1.64c-0.2-0.22,0.61-0.52,0.07-0.97
		s-0.75,0-1.7-0.22c-0.95-0.22-1.7-0.22-2.24-0.59c-0.54-0.37-1.49-0.59-1.76-0.59s-1.22,0-1.22,0V65.21z"/>
	<path class="st0" d="M54.7,64.36c0.55-0.56,2.42-3.22,3.16-1.9c0.75,1.32,0.76,1.63,0.83,2c0.07,0.36-0.46,1.58-0.01,1.25
		c0.45-0.33,0.73-1.36,0.83-1.7c0.1-0.35-0.41-1.63,0.65-0.8c1.06,0.82,2.46,1.89,2.9,2.81s0.56,3.12,0.86,2.52
		c0.3-0.6,0.3-2.29,0.53-2.56c0.22-0.28,1.45,0.22,1.86,0.61c0.41,0.39,0.68,0.95,1.07,1.03c0.39,0.08,0.7-0.31,1.48-0.15
		c0.78,0.16,2.26,1.69,2.56,1.99s1.51,1.16,0.67-0.05c-0.84-1.21-2.82-4.02-3.28-4.47s0.17-0.43-0.3-1.09s-0.21,0.59-1.38-0.54
		c-1.17-1.13-1.75-0.41-1.17-1.13c0.58-0.72,0.85-1.06,1.58-1.74c0.73-0.68,1.88-0.76,0.62-0.88s-3.12,0.16-3.78,0.31
		c-0.66,0.15,0.16-0.64-0.51-0.6c-0.67,0.05,0.07,0.13-1.29,0.47s-1.85,0.16-2.14,0.18c-0.29,0.02,0.05-0.85-0.62-0.7
		s-0.49,0.61-1.28,1.24s-1.28,1.24-1.89,1.44s-1.4,0.83-1.58,1.05c-0.18,0.22-0.81,1-0.81,1L54.7,64.36z"/>
	<path class="st0" d="M58.8,61.05c0.2-0.52,5.02-5.58,6.51-6.32c1.49-0.74,6.75-3.72,8.02-5.8c1.27-2.08,1.61-3.49,1.88-5.13
		c0.27-1.64,0-4.83,0.44-5.72c0.44-0.89,0.44-0.89,0.44-0.89s-0.41,1.56,0,2.97c0.41,1.41,0.07,2.38,0.68,2.6
		c0.61,0.22,0.75,0.45,1.29-0.3c0.54-0.74,0.47-1.26,1.02-2.45c0.54-1.19,1.15-4.01,1.19-4.83s-0.3-2.35-0.3-3.18
		c0-0.83,0.4-2.17,0.3-2.54c-0.1-0.37,0.65-0.89,0.65-0.89s-0.41,0.52,0,2.23c0.41,1.71,0.68,2.68,0.75,2.9
		c0.07,0.22,1.02-1.12,0.68-2.08s-0.81-2.08-0.81-2.08s1.15-0.15,1.42,1.04c0.27,1.19,0.27,1.34,0.41,2.38
		c0.14,1.04,0.41,2.01,0.41,2.53c0,0.52-1.29,0.82,0,0.97c1.29,0.15,2.17,0.52,2.24,0.89c0.07,0.37-0.07,0.89-0.41,0.89
		c-0.34,0-0.47-1.19-1.9,0.3c-1.42,1.49-2.17,3.05-2.78,3.87c-0.61,0.82-1.36,1.41-1.29,1.64c0.07,0.22,0.47,1.04,1.22,0
		s1.49-1.78,1.7-1.64s1.09-0.15,0.14,0.74c-0.95,0.89-2.37,2.08-2.85,2.53c-0.47,0.45-4.68,3.64-4.95,3.87
		c-0.27,0.22-1.49,1.19-1.87,1.56c-0.37,0.37-0.3,0.83,0,0.9c0.3,0.07,1.12,0.44,1.12,0.44s-4.34,0.97-5.29,1.41
		s-6.09,4.01-6.64,4.76c-0.55,0.74-2.32,2.82-2.79,3.12c-0.47,0.3-1.97,1.32-1.9,0.99C57.58,62.39,58.8,61.05,58.8,61.05z"/>
	<path class="st0" d="M59.59,65.91c-0.51-0.1-6.11-4.07-7.11-5.49s-4.85-6.34-6.99-7.22c-2.14-0.88-3.47-0.92-4.99-0.83
		c-1.52,0.09-4.29,1.11-5.19,0.84c-0.89-0.26-0.89-0.26-0.89-0.26s1.48,0.08,2.64-0.68c1.16-0.76,2.1-0.62,2.16-1.32
		s0.22-0.9-0.56-1.31s-1.23-0.22-2.41-0.52c-1.18-0.31-3.83-0.3-4.56-0.15s-2.02,0.86-2.76,1.05c-0.74,0.19-2.02,0.07-2.33,0.26
		c-0.31,0.19-0.94-0.48-0.94-0.48s0.56,0.31,1.98-0.51c1.43-0.83,2.22-1.34,2.4-1.46c0.18-0.12-1.22-0.83-2-0.25
		c-0.78,0.58-1.66,1.35-1.66,1.35s-0.4-1.2,0.6-1.76c0.99-0.56,1.13-0.6,2.02-0.98c0.89-0.38,1.69-0.9,2.15-1.01
		s1.02,1.19,0.86-0.22c-0.16-1.41-0.04-2.43,0.28-2.59c0.31-0.16,0.81-0.13,0.89,0.23c0.08,0.36-0.95,0.78,0.7,1.96
		c1.65,1.18,3.21,1.62,4.07,2.08c0.87,0.46,1.57,1.12,1.75,1c0.18-0.12,0.82-0.75-0.28-1.3c-1.1-0.56-1.93-1.18-1.84-1.43
		c0.09-0.25-0.38-1.12,0.63-0.32c1.01,0.81,2.39,2.05,2.9,2.46c0.51,0.4,4.31,4.16,4.57,4.39s1.4,1.32,1.82,1.63
		c0.42,0.31,0.81,0.13,0.8-0.21s0.13-1.29,0.13-1.29s1.86,4.41,2.47,5.32s4.96,5.57,5.75,5.99c0.79,0.42,3.04,1.82,3.41,2.26
		c0.37,0.44,1.62,1.8,1.32,1.8S59.59,65.91,59.59,65.91z"/>
	<path class="st1" d="M54.66,64.62c-0.07-0.3-3.32-2.9-5.5-2.6c-2.17,0.3-4.07,0.94-4.48,1.29c-0.41,0.35-1.83,1.39-2.31,1.91
		s-1.09,1.93-1.36,2.08c-0.27,0.15-0.75-0.22-0.81-0.74s-0.41-2.08-0.68-1.93c-0.27,0.15-1.64-0.3-1.64-0.3s-0.74,0-1.01-0.37
		s-1.29-1.31-0.54-1.17s2.37,0.88,2.92,0.65s1.49-0.27,1.29-0.65c-0.2-0.39-0.68-1.13-0.47-1.28c0.2-0.15,0.81,0.45,1.63,0.52
		c0.81,0.07,2.11-0.57,2.38-0.54c0.27,0.02,0-0.99,0-0.99s1.9-0.35,2.51,0c0.61,0.35,1.63,0.35,2.51,0.35s1.37,0.45,2.11,0.52
		c0.74,0.07,1.35,0.52,1.55,0.74s0.61,0.4,0.95,0.68c0.34,0.28,0.68-0.01,0.95,0.51c0.27,0.52,1.63,1.04,1.29,1.34
		C55.61,64.92,54.66,64.62,54.66,64.62z"/>
	<path class="st3" d="M53.51,65.96c0,0-4.34-0.82-5.29,0s-3.86,1.93-4.14,2.75c-0.27,0.82,0.48,0.89,0,1.71
		c-0.48,0.82-0.63,0.74-1.09,0c-0.47-0.74-0.94-0.17-1.22,0.59c-0.27,0.75,0.41,1.79-0.75,1.94c-1.15,0.15-1.42-0.15-1.97,0
		c-0.54,0.15-1.55,0.45-1.73,2.23c-0.17,1.78-0.31,1.64-0.31,2.9s0.14,1.78-0.41,1.19c-0.54-0.59-1.02-1.71-0.88-1.97
		c0.14-0.26,0-1-0.47-0.41c-0.47,0.59-1.09,1.71-1.42,2.08c-0.34,0.37-1.15,0.97-1.76,1.34c-0.61,0.37-2,1.26-1.92,0.52
		s0.56-1.86,1.1-2.6c0.54-0.74,0.27-1.56,0.27-1.56s0.41,0,0.88-0.67c0.47-0.67,1.29-1.19,0.47-1.34c-0.81-0.15-1.63-0.26-2.24-0.62
		s-1.22-0.43-0.75-0.69s0.68-0.11,2.51-0.41c1.83-0.3,3.94-1.41,4.27-1.86c0.34-0.45,0.62-1.34-0.61-1.49
		c-1.22-0.15-1.83-0.89-1.83-0.89s1.7,0.07,2.58,0s2.37,0,3.12-0.37s1.05-1.05,1.68-1.01s1.51-0.33,1.98-0.55
		c0.47-0.22,2.04-0.52,1.02-0.74c-1.02-0.22-1.97-0.52-0.88-0.82c1.09-0.3,1.22,0.07,1.7,0s0.81-0.01,1.49-0.12
		c0.68-0.11,1.49-0.63,1.97-0.48c0.47,0.15,0.14-0.22,1.42,0c1.29,0.22,3.19,0.37,3.19,0.37S53.78,65.29,53.51,65.96z"/>
	<path class="st3" d="M54.67,62.67c0,0-0.37-4.81-1.33-5.61c-0.96-0.8-2.68-3.61-3.47-3.69s-0.67,0.73-1.51,0.43
		c-0.84-0.3-0.81-0.48-0.28-1.16c0.54-0.68-0.09-1.04-0.82-1.14c-0.73-0.1-1.48,0.88-1.9-0.3c-0.42-1.19-0.23-1.55-0.49-2.09
		c-0.27-0.54-0.78-1.53-2.4-1.27c-1.62,0.26-1.52,0.08-2.64,0.4c-1.12,0.32-1.54,0.59-1.15-0.13s1.25-1.51,1.52-1.43
		c0.26,0.08,0.89-0.25,0.24-0.61c-0.64-0.35-1.78-0.72-2.2-0.99c-0.41-0.27-1.14-0.98-1.63-1.53c-0.48-0.55-1.62-1.8-0.94-1.9
		s1.78,0.13,2.58,0.51c0.79,0.39,1.45-0.1,1.45-0.1s0.1,0.43,0.81,0.77s1.37,1.07,1.3,0.17s-0.18-1.79-0.02-2.53s0.07-1.4,0.42-0.96
		s0.27,0.69,0.99,2.56c0.72,1.87,2.24,3.82,2.72,4.07c0.48,0.25,1.34,0.32,1.16-1.02s0.33-2.17,0.33-2.17s0.36,1.82,0.65,2.73
		c0.29,0.92,0.6,2.52,1.11,3.22c0.52,0.7,1.19,0.85,1.31,1.53c0.12,0.68,0.67,1.52,0.99,1.97c0.32,0.45,0.97,2.03,0.91,0.89
		c-0.06-1.14-0.03-2.22,0.5-1.14c0.54,1.08,0.24,1.31,0.43,1.8s0.21,0.86,0.48,1.55c0.26,0.69,0.93,1.43,0.92,1.97
		c-0.01,0.54,0.23,0.09,0.36,1.51c0.13,1.42,0.47,3.48,0.47,3.48S55.33,62.79,54.67,62.67z"/>
	<path class="st3" d="M55.94,63.82c0,0-4.01,0.6-4.63,1.6s-2.89,2.86-2.93,3.66c-0.03,0.8,0.64,0.64,0.43,1.5
		c-0.21,0.86-0.36,0.84-0.96,0.33c-0.6-0.51-0.87,0.14-0.92,0.88c-0.05,0.74,0.81,1.45-0.16,1.93c-0.97,0.48-1.29,0.3-1.72,0.6
		c-0.44,0.29-1.25,0.86-0.95,2.48c0.3,1.61,0.14,1.53,0.46,2.63s0.57,1.52-0.06,1.16c-0.63-0.36-1.32-1.19-1.27-1.46
		c0.05-0.27-0.25-0.88-0.52-0.21c-0.27,0.66-0.52,1.83-0.72,2.25c-0.2,0.43-0.77,1.2-1.21,1.71c-0.44,0.51-1.43,1.71-1.55,1.04
		s0.02-1.8,0.31-2.61c0.29-0.82-0.16-1.45-0.16-1.45s0.36-0.12,0.6-0.85s0.83-1.43,0.08-1.32c-0.75,0.12-1.49,0.26-2.12,0.14
		c-0.62-0.12-1.18,0-0.83-0.38c0.35-0.37,0.57-0.3,2.1-1.12c1.53-0.82,3.09-2.43,3.27-2.92c0.18-0.49,0.2-1.36-0.91-1.12
		c-1.11,0.24-1.83-0.23-1.83-0.23s1.5-0.45,2.26-0.78c0.75-0.33,2.08-0.72,2.64-1.27c0.56-0.55,0.66-1.24,1.22-1.39
		s1.24-0.75,1.6-1.09c0.36-0.34,1.65-1.07,0.7-0.96s-1.85,0.14-0.98-0.45c0.88-0.59,1.09-0.3,1.49-0.51
		c0.4-0.21,0.71-0.26,1.28-0.55c0.57-0.3,1.15-1,1.6-1.01s0.06-0.24,1.25-0.43c1.19-0.2,2.89-0.64,2.89-0.64
		S56.01,63.15,55.94,63.82z"/>
	<path class="st3" d="M52.06,60.32c-0.45-0.39-3.71-3.31-4.05-3.75c-0.34-0.43-5.48-5.19-6.33-6.38c-0.86-1.19-1.74-3.2-1.81-1.93
		c-0.07,1.26,1.02,2.45-0.34,2.53c-1.36,0.07-2.78-0.74-2.92-1.04c-0.14-0.3-0.47-0.22-1.63,0.37c-1.15,0.59-1.04,0.89-1.67-0.22
		s-1.04-1.92-1.45-2.04c-0.41-0.12-2.14-0.49-2.14-0.49s2.34,1.19,1.39,2.75c-0.95,1.56-2.65,1.34-3.73,0.97
		c-1.09-0.37-2.17-0.67-3.19-1.04c-1.02-0.37-4.14-1.34-3.7-0.67c0.44,0.67,2,0.82,1.8,1.56c-0.2,0.74-0.68,0.83-1.42,1.05
		c-0.75,0.21-1.46,0.59-1.88,0.96c-0.43,0.37-2.79,0.16-2.05,0.9s1.05,0.66,2.42,1.11c1.37,0.45,0.36,0.97,3.31,0.37
		s2.54-1.04,4.17-0.67c1.63,0.37,2.24,0.45,1.29,0.67s-3.19,0.59-1.42,0.82c1.76,0.22,2.1-0.05,3.8-0.32c1.7-0.27,1-0.27,2.81-0.27
		s2.42,0.1,2.76,0.27c0.34,0.17,1.07,0.38,0,1.48c-1.07,1.1-3.49,2.86-1.64,2.34c1.84-0.52,3.13-0.52,3.81-1.26
		c0.68-0.74,2.04-1.19,2.31-1.19c0.27,0,2.88,0.29,2.9,0.82c0.02,0.52-0.46,0.89-0.12,1.04c0.34,0.15,0.34,0.59,1.22-0.3
		s1.14-1.41,1.49-1.41c0.34,0,0.14-0.15,0.89,0.22c0.75,0.37,0.75,0.37,1.63,0.97c0.88,0.59,1.83,1.52,2.24,1.8
		c0.41,0.28,1.6,1.47,1.6,1.47l1.72-0.96L52.06,60.32z"/>
	<path class="st1" d="M54.51,64.94c0.45-0.39,3.71-3.31,4.05-3.75c0.34-0.43,5.48-5.19,6.33-6.38c0.86-1.19,1.74-3.2,1.81-1.93
		c0.07,1.26-1.02,2.45,0.34,2.53c1.36,0.07,2.78-0.74,2.92-1.04c0.14-0.3,0.47-0.22,1.63,0.37c1.15,0.59,1.04,0.89,1.67-0.22
		c0.64-1.12,1.04-1.92,1.45-2.04s2.14-0.49,2.14-0.49s-2.34,1.19-1.39,2.75c0.95,1.56,2.65,1.34,3.73,0.97s2.17-0.67,3.19-1.04
		c1.02-0.37,4.14-1.34,3.7-0.67c-0.44,0.67-2,0.82-1.8,1.56c0.2,0.74,0.68,0.83,1.42,1.05c0.75,0.21,1.46,0.59,1.88,0.96
		s2.79,0.16,2.05,0.9c-0.74,0.74-1.05,0.66-2.42,1.11s-0.36,0.97-3.31,0.37c-2.95-0.59-2.54-1.04-4.17-0.67
		c-1.63,0.37-2.24,0.45-1.29,0.67s3.19,0.59,1.42,0.82c-1.76,0.22-2.1-0.05-3.8-0.32s-1-0.27-2.81-0.27c-1.81,0-2.42,0.1-2.76,0.27
		c-0.34,0.17-1.07,0.38,0,1.48c1.07,1.1,3.49,2.86,1.64,2.34c-1.84-0.52-3.13-0.52-3.81-1.26c-0.68-0.74-2.04-1.19-2.31-1.19
		c-0.27,0-2.88,0.29-2.9,0.82s0.46,0.89,0.12,1.04c-0.34,0.15-0.34,0.59-1.22-0.3c-0.88-0.89-1.14-1.41-1.49-1.41
		c-0.34,0-0.14-0.15-0.89,0.22s-0.75,0.37-1.63,0.97c-0.88,0.59-1.83,1.52-2.24,1.8c-0.41,0.28-1.6,1.47-1.6,1.47l-1.72-0.96
		L54.51,64.94z"/>
	<path class="st3" d="M55.61,63.91c0.34-0.07,6.31-0.22,8.41,0c2.1,0.22,3.66,0.22,4.89,0c1.22-0.22,2.72-0.67,3.16-1.34
		s2.65-2.83,2.65-2.83s-2.31,2.83-2.33,3.13c-0.01,0.3-0.32,1.21-0.32,1.21l1.87-0.61c0,0-1.36,0.74-1.15,1.04
		c0.2,0.3,0.27,0.45,1.02,0.37s1.7,0.41,2.44,0.02s1.63-1.06,1.83-1.13s-0.68,0,0,0.97c0.68,0.97,0.41,0.67,1.63,0.89
		c1.22,0.22,2.1,1.04,2.51,1.04s-0.27-0.07-1.76,0c-1.49,0.07-2.24-0.74-2.44,0c-0.2,0.74-1.09,0.97,0.68,1.34
		c1.76,0.37,1.56-0.3,2.37,0c0.81,0.3-0.41,0.59-0.61,0.89c-0.2,0.3-0.54,0.74,0.41,1.04s1.7,0.44,2.24,0.85
		c0.54,0.41,1.56,1.56,0.68,1.21c-0.88-0.35-2.17-0.96-3.19-1.21c-1.02-0.26-1.63-0.63-1.97-0.63s-0.47,0.63-0.47,0.63
		s0.47,1.56,0.27,1.21s-1.02-1.61-1.83-2.06s-1.63-0.82-1.49-0.52s1.05,1.03,1.02,1.78c-0.03,0.76,0.07,2.08-0.27,1.86
		c-0.34-0.22-0.34-1.04-1.12-2.08c-0.78-1.04-0.85-1.86-1.8-2.6c-0.95-0.74-1.75-1.04-2.1-0.97c-0.35,0.07-1.06-0.25-0.95,0.3
		c0.11,0.55,0,2.76,0,2.38c0-0.38-1.47-1.71-1.99-2.68c-0.52-0.97-0.72-2.08-1.13-1.71s-0.25,1.3-0.25,1.3s-0.77-1.83-1.65-1.71
		c-0.88,0.12-1.22,0.4-2.37,0c-1.15-0.4-2.92-0.55-4.07-0.78c-1.15-0.22-2.24,0-2.24,0l-1.1-0.45"/>
	<path class="st1" d="M54.12,66.92c0,0-0.61,1.88-1.42,1.54c-0.81-0.35-0.88-1.15-1.02-0.75c-0.14,0.4,1.29,1.29,0,2.04
		c-1.29,0.74-1.02-0.59-1.29,0.74c-0.27,1.34-0.32,1.85-0.7,2.34c-0.38,0.49-0.38,0.49-0.38,0.49s0-0.67-0.61,0
		c-0.61,0.67-0.47,0.82-1.83,1.41c-1.36,0.59-1.7,0.52-1.9,0.74c-0.2,0.22-1.02,1.19-0.41,1.04c0.61-0.15,1.41-0.45,1.49-0.45
		c0.07,0,0.81-0.34,0,0.46c-0.81,0.8-0.61,0.06-1.08,1.17c-0.47,1.12-0.51,0.3-0.63,1.49c-0.12,1.19,0.05,1.54,0,1.92
		c-0.05,0.38-0.05,1.13,0.36,0.31c0.41-0.82-0.07-1.56,0.68-2.23c0.75-0.67,1.02-1.71,1.7-1.9c0.68-0.19,1.02-0.26,1.02,0.41
		c0,0.67-0.27,0.89-0.2,1.12c0.07,0.22,0.68,0.37,0.95-0.3c0.27-0.67,0.14-1.26,0.38-1.93c0.23-0.67-0.01-0.92,0.48-1.46
		s1.67-1.81,1.52-2.03c-0.14-0.22,0.13-0.37,0.47,0.15c0.34,0.52,0.88,1.41,0.88,0.37c0-1.04-0.75-1.34,0.14-1.93
		c0.88-0.59,1.36-1.26,1.42-1.78c0.07-0.52,0.14-1.17,0.27-1.44c0.14-0.27,0.75-1.98,0.75-1.98v-1.19L54.12,66.92z"/>
	<path class="st0" d="M54.12,58.45c0.61-0.67-1.33-9-2.06-10.56c-0.73-1.56-2.63-3.87-3.51-4.39c-0.88-0.52-1.7-0.65-1.7-1.51
		c0-0.87,0.81-0.03,1.29,0c0.47,0.03,1.15,1.39,0.95,0s-0.68-1.46-2.24-3.24c-1.56-1.78-2.23-1.34-2.57-2.68
		c-0.35-1.34-0.75-2.08-0.75-2.08s2.09,2.23,2.51,2.45c0.41,0.22,1.02,1.34,0.89,0.15c-0.14-1.19-0.27-3.48-1.29-4.19
		c-1.02-0.71-2.17-0.93-2.1-1.83c0.07-0.89,0.35-0.59,0.75-0.37c0.4,0.22,0.73,0.67,1.75,1.56s1.23,1.49,1.57,2.08
		c0.34,0.59,1.28,0.89,1.28,0.89s-0.55-0.15,0,0.74c0.55,0.89-0.19,2.01,0.83,1.34c1.01-0.67,0.88-1.93,0.95-1.64
		c0.07,0.3,0.63,2.08,0.55,3.2s-0.69,3.79,0.47,4.01c1.15,0.22,1.39-0.07,1.95-0.89c0.56-0.82,1.1-2.08,1.1-2.08
		s-0.41,0.67-0.61,2.01c-0.2,1.34-0.3,2.9-0.49,3.49c-0.19,0.59-0.02,2.9,0,3.64c0.02,0.74,0.49,3.72,0.49,4.01
		c0,0.3,0.68,3.07,0.61,3.25c-0.07,0.17,0.08,1.59,0,2.03S54.12,58.45,54.12,58.45z"/>
	<path class="st2" d="M55.41,58.45c0,0-0.2-2.45,0-3.05c0.2-0.59,0.74-2.23,0.54-1.12c-0.2,1.12-0.43,2.58,0.05,2.29
		s0.49-0.66,0.62-2c0.14-1.34,0.61-2.3,0-3.2c-0.61-0.89-0.61-1.49-0.68-2.08c-0.07-0.59,0.27,0.22,0.54,0
		c0.27-0.22,0.54-1.41,0.44-2.45s-0.91-2.6-0.98-3.27c-0.07-0.67-0.37-2.58,0.19-1.59c0.56,0.99,1.37,2.63,1.37,2.63
		c0.55-1.34,0.55-1.51,0.95-2.91c0.41-1.4,0.41-2.82,0.61-3.19c0.2-0.37,0.54-0.52,0.47,0.3s-0.47,2.33-0.54,3.17
		c-0.07,0.84-0.07,1.81-0.07,2.7s-0.34,1.35,0.41,0.97c0.75-0.38,1.97-1.46,1.97-1.46s-0.27,1.97-1.15,2.23
		c-0.88,0.26-1.09,0.19-1.42,1.45c-0.34,1.26-0.97,2.23-0.42,2.3c0.55,0.07,2.41-1.93,1.38-0.67s-0.71,0.74-1.38,2.68
		c-0.67,1.93-0.67,3.59-0.81,3.62c-0.13,0.02-0.52,1.94-0.22,1.51c0.29-0.42,1.65,0.03,1.03,0.44c-0.62,0.42-2.9,2.3-2.91,3.2
		c0,0.89-0.66-1.34-0.66-1.34L55.41,58.45z"/>
	<path class="st1" d="M49.14,33.4c0.7,0.3,3.69,2.97,3.82,3.35c0.14,0.37,0.07,4.48,0,5.25c-0.07,0.77-0.11,1.44-0.9,1.22
		c-0.79-0.22-1.2,0.04-1.2,0.04s1.67,1.46,2.18,2.42c0.51,0.96,2.16,7.58,2.09,7.87c-0.07,0.3-0.41,2.28-0.41,2.28
		s0.79,0.62,0.41,1.14c-0.38,0.52,0.14-3.85,0.27-4.97c0.13-1.12-1.63-5.15-1.29-5.55c0.34-0.4,0.36-3.43,1.3-4.45
		c0.94-1.01,2.09-2.58,2.09-2.58s-0.88,1.34-1.56,1.12s-0.88-0.82-0.81-1.41c0.07-0.59-0.2-2.6,0.27-3.12
		c0.47-0.52,1.35-0.59,1.35-0.59l-1.35-0.45c0,0,0.1-0.37,0.59-0.37s1.3-0.3,0.56-0.37s-2.1-0.82-2.1-0.82s0.34-0.73-0.34-1
		c-0.68-0.27-1.13,0.27-2.06,0c-0.93-0.27-2.54-0.91-2.38-0.4c0.16,0.51,1.99,0.88,1.99,0.88s1.05,1.19,0.39,1.04
		C51.41,33.77,49.14,33.4,49.14,33.4z"/>
</g>
</svg>
