<?xml version="1.0" encoding="utf-8"?>
<!-- Generator: Adobe Illustrator 23.1.1, SVG Export Plug-In . SVG Version: 6.00 Build 0)  -->
<svg version="1.1" id="Layer_1" xmlns="http://www.w3.org/2000/svg" xmlns:xlink="http://www.w3.org/1999/xlink" x="0px" y="0px"
	 viewBox="0 0 108 108" style="enable-background:new 0 0 108 108;" xml:space="preserve">
<style type="text/css">
	.st0{fill:#836E39;}
	.st1{fill:#73612F;}
	.st2{fill:#67572A;}
	.st3{fill:#918E43;}
	.st4{fill:#5E5024;}
	.st5{fill:#978330;}
	.st6{fill:#A57531;}
	.st7{fill:#988631;}
	.st8{fill:#8C743C;}
	.st9{fill:#9BA87B;}
	.st10{fill:#9B9B77;}
	.st11{fill:#B8A376;}
	.st12{fill:#AAAD7C;}
	.st13{fill:#B7AE48;}
	.st14{fill:#C0A775;}
	.st15{fill:#B5AA79;}
	.st16{fill:#B0A170;}
	.st17{fill:#9D9B64;}
	.st18{fill:#AEAD7B;}
	.st19{fill:#9CA279;}
	.st20{fill:#BCB281;}
	.st21{fill:#C2A976;}
	.st22{fill:#B3A577;}
	.st23{fill:#9D8A70;}
	.st24{fill:#C3B682;}
	.st25{fill:#A19D77;}
	.st26{fill:#AD9874;}
	.st27{fill:#B49B73;}
	.st28{fill:#B7A074;}
	.st29{fill:#B8A978;}
	.st30{fill:#B8A576;}
</style>
<g>
	<path class="st0" d="M68.64,75.35c-0.53,0-1.02-0.35-1.17-0.89c-1.15-4.15-3.54-38.28-3.64-39.73c-0.05-0.67,0.46-1.25,1.13-1.3
		c0.67-0.05,1.25,0.46,1.3,1.13c0.69,9.82,2.66,36.01,3.56,39.26c0.18,0.65-0.2,1.32-0.85,1.5C68.85,75.33,68.75,75.35,68.64,75.35z
		"/>
	<path class="st1" d="M61.24,81.67c-0.57,0-1.08-0.41-1.19-0.99c-0.12-0.66,0.31-1.3,0.97-1.42c1.55-0.34,8.82-7.86,10.13-9.97
		c0.65-1.08,1.59-9.33,2.09-16.34c0.05-0.67,0.64-1.17,1.3-1.13c0.67,0.05,1.17,0.63,1.13,1.3c-0.25,3.58-1.18,15.41-2.45,17.45
		c-1.11,1.79-8.9,10.55-11.75,11.09C61.39,81.66,61.31,81.67,61.24,81.67z"/>
	<path class="st2" d="M64.84,73.49c-0.16,0-0.33-0.03-0.49-0.1c-0.59-0.26-0.87-0.92-0.66-1.52c0.23-1.02,0.53-8.84,0.7-15.74
		c0.02-0.66,0.56-1.19,1.21-1.19c0.01,0,0.02,0,0.03,0c0.67,0.02,1.2,0.57,1.18,1.25c-0.25,10.25-0.55,15.82-0.87,16.57
		C65.76,73.22,65.31,73.49,64.84,73.49z M63.73,71.79c-0.01,0.02-0.02,0.04-0.02,0.06C63.71,71.83,63.72,71.81,63.73,71.79z"/>
	<path class="st3" d="M61.24,74.57c-0.61,0-1.13-0.45-1.2-1.07c-0.1-0.82-1.62-13.63-1.62-13.63l2.41-0.29c0,0,1.52,12.8,1.62,13.63
		c0.08,0.67-0.39,1.27-1.06,1.35C61.33,74.57,61.28,74.57,61.24,74.57z"/>
	<path class="st1" d="M57.56,81.67c-0.26,0-0.53-0.08-0.75-0.26c-0.53-0.42-1.78-1.4-0.75-20.74c0.04-0.67,0.62-1.19,1.28-1.15
		c0.67,0.04,1.18,0.61,1.15,1.28c-0.44,8.18-0.55,17.39,0.01,18.88c0.36,0.43,0.39,1.07,0.02,1.53
		C58.28,81.51,57.92,81.67,57.56,81.67z M58.52,79.74L58.52,79.74L58.52,79.74z M58.31,79.5C58.31,79.5,58.31,79.5,58.31,79.5
		C58.31,79.5,58.31,79.5,58.31,79.5z"/>
	<path class="st4" d="M56.81,82.32c-0.49,0-0.95-0.3-1.14-0.79c-0.71-1.88-2.84-12.9-3.08-14.15c-0.13-0.66,0.3-1.3,0.96-1.42
		c0.66-0.13,1.3,0.3,1.42,0.96c0.93,4.83,2.49,12.48,2.97,13.75c0.24,0.63-0.08,1.33-0.71,1.57C57.1,82.3,56.95,82.32,56.81,82.32z"
		/>
	<path class="st1" d="M51.55,77.58c-0.38,0-0.76-0.18-0.99-0.52c-1.2-1.7-3.45-11.36-4.12-14.28c-0.15-0.65,0.26-1.31,0.92-1.45
		c0.65-0.15,1.31,0.26,1.45,0.92c1.34,5.89,3.1,12.52,3.73,13.42c0.39,0.55,0.26,1.31-0.29,1.69C52.04,77.5,51.8,77.58,51.55,77.58z
		"/>
	<path class="st1" d="M49,79.84c-1.22,0-3.73-0.26-6-2.11c-2.9-2.35-4.86-6.37-4.94-6.54c-0.29-0.6-0.04-1.33,0.57-1.62
		c0.6-0.29,1.33-0.04,1.62,0.56c0.02,0.04,1.81,3.7,4.28,5.71c2.26,1.83,4.88,1.55,4.91,1.54c0.66-0.07,1.27,0.39,1.35,1.06
		s-0.38,1.27-1.05,1.35C49.71,79.81,49.44,79.84,49,79.84z"/>
	<path class="st1" d="M52.51,84.23c-0.67,0-1.22-0.54-1.22-1.22V77.9c0-0.67,0.54-1.22,1.22-1.22s1.22,0.54,1.22,1.22v5.12
		C53.72,83.69,53.18,84.23,52.51,84.23z"/>
	<path class="st1" d="M61.24,81.67c-0.18,0-0.36-0.04-0.53-0.12c-0.6-0.29-0.85-1.02-0.56-1.63c0.68-1.41,1.4-4.46,1.61-5.52
		c0.13-0.66,0.77-1.09,1.43-0.95c0.66,0.13,1.08,0.78,0.95,1.43c-0.03,0.17-0.85,4.12-1.81,6.09
		C62.12,81.42,61.69,81.67,61.24,81.67z"/>
	<path class="st1" d="M57.56,82.32c-0.32,0-0.65-0.13-0.88-0.38c-0.46-0.49-0.44-1.26,0.05-1.72c0.36-0.43,2.07-3.68,3.42-6.43
		c0.3-0.6,1.02-0.85,1.63-0.55c0.6,0.3,0.85,1.03,0.55,1.63c-1.43,2.9-3.27,6.5-3.93,7.12C58.16,82.21,57.86,82.32,57.56,82.32z"/>
	<path class="st5" d="M54.08,82.32c-0.63,0-1.16-0.49-1.21-1.13l-2.33-31.9c-0.05-0.67,0.45-1.25,1.12-1.3
		c0.68-0.04,1.25,0.46,1.3,1.12l2.33,31.9c0.05,0.67-0.45,1.25-1.12,1.3C54.14,82.32,54.11,82.32,54.08,82.32z"/>
	<path class="st6" d="M46.88,62.65c-0.49,0-0.96-0.3-1.14-0.79c-1.37-3.68-0.79-21.99-0.72-24.06c0.02-0.67,0.56-1.22,1.26-1.17
		c0.67,0.02,1.2,0.59,1.17,1.26c-0.27,7.96-0.34,20.69,0.57,23.13c0.23,0.63-0.09,1.33-0.71,1.56
		C47.17,62.63,47.03,62.65,46.88,62.65z"/>
	<path class="st7" d="M48.29,69.02c-0.16,0-0.32-0.03-0.47-0.1c-0.65-0.28-3.97-1.73-5.02-3.1c-0.92-1.21-6.44-12.11-7.54-14.28
		c-0.3-0.6-0.06-1.33,0.54-1.63c0.6-0.31,1.33-0.06,1.63,0.54c2.5,4.95,6.69,13.1,7.3,13.9c0.44,0.57,2.43,1.66,4.03,2.34
		c0.62,0.26,0.91,0.98,0.64,1.59C49.21,68.75,48.76,69.02,48.29,69.02z"/>
	<path class="st8" d="M42.32,68.37c-0.14,0-0.29-0.03-0.43-0.08c-3.13-1.18-13.66-10.7-14.85-11.78c-0.5-0.45-0.53-1.22-0.08-1.72
		c0.45-0.5,1.22-0.53,1.72-0.08c4.37,3.97,12.05,10.54,14.07,11.31c0.63,0.24,0.95,0.94,0.71,1.57
		C43.27,68.07,42.81,68.37,42.32,68.37z"/>
	<path class="st9" d="M47.62,33.14c-1.92-0.38-3.45-1.35-4.8,0s-3.6,2.55-4.2,3.15s-2.12,0.75-1.36,1.95c0.76,1.2,5.86,2.7,8.55,2.7
		c2.7,0,5.4,1.2,6.74,0s2.4-1.5,2.25-2.55S49.32,33.48,47.62,33.14z"/>
	<path class="st10" d="M32.15,39.44c0,0-4.09,2.16-4.89,4.01c-0.8,1.84-1.28,3.37,0,3.53c1.28,0.16,6.49-0.96,8.66-1.2
		s5.53-0.08,5.69-1.76s-1.28-3.45-2.65-4.09c-1.36-0.64-2.32-0.8-4.01-0.8S32.15,39.44,32.15,39.44z"/>
	<path class="st10" d="M29.58,53.06c-0.8,0.4-3.21,0.96-3.69,2.24c-0.48,1.28-2.63,3.13,0.57,3.13s6.32-0.48,7.12-1.52
		c0.8-1.04,1.68-0.96,1.04-2.16c-0.64-1.2-1.2-1.6-2.16-1.68C31.51,52.98,29.58,53.06,29.58,53.06z"/>
	<path class="st11" d="M74.63,47.77c-0.29,0.03-4.81,1.92-5.37,2.32c-0.56,0.4-1.92,1.36-1.92,2.4s1.92,2.85,3.29,3.23
		s6.73,0.74,7.94,0c1.2-0.74,2.28-0.74,2.46-2.03c0.18-1.28,1.02-0.8,0-2.4C80,49.7,76.8,47.53,74.63,47.77z"/>
	<path class="st12" d="M39.12,65.09c-2,0.72-4.97,2-5.45,3.61s-2.97,1.44,0,3.13s0.72,2.48,5.45,2.16s8.74-1.44,8.5-3.05
		s-0.23-3.05-1.68-3.93c-1.45-0.88-1.29-0.8-2.33-1.04C42.57,65.73,39.12,65.09,39.12,65.09z"/>
	<path class="st10" d="M47.63,59.64c-0.73,0.56-4.02,2.65-3.86,3.53s1.28,2.4,2.65,2.24c1.36-0.16,4.25-1.2,4.89-1.6
		c0.64-0.4,2.16-0.79,2.32-1.28c0.16-0.49,1.2-1.13-0.56-1.85c-1.76-0.72-2-0.96-3.21-1.04C48.66,59.56,47.63,59.64,47.63,59.64z"/>
	<path class="st13" d="M36.4,44.89c0,0-5.45,3.37-6.17,4.33c-0.72,0.96-2.12,1.08-2.08,2.74c0.03,1.66-1.33,2.47,1.66,2.63
		s5.37,0.96,7.47,0.32c2.1-0.64,2.5-2.88,3.14-1.88s0.72,1.56,2.32,1.16s3.06-0.23,3.21-1.16c0.15-0.93,0.64-2.37-0.33-3.73
		c-0.96-1.36-1.6-1.33-3.05-2.31C41.12,46.01,39.76,44.89,36.4,44.89z"/>
	<path class="st14" d="M50.9,44.89c-0.58,0.32-3.45,2.24-4.09,3.29s-2.12,1.36-0.62,2.81s3.1,2.65,4.71,2.05
		c1.6-0.61,4.01-1.41,4.65-1.73c0.64-0.32,2.4-0.72,1.92-2.65c-0.48-1.92,0.24-1.36-0.96-2.24C55.31,45.53,51.99,44.27,50.9,44.89z"
		/>
	<path class="st10" d="M58.76,46.57c1-0.56,0.88-1.28,2.73,0c1.84,1.28,4.17,2.33,4.25,3.45c0.08,1.12,2.24,0.75-0.8,1.94
		c-3.05,1.19-4.49,1.51-6.17,1.07C57.08,52.58,50.66,51.14,58.76,46.57z"/>
	<path class="st10" d="M57.56,32.45c-0.59,0.36-3.85,1.14-1.44,2.74c2.4,1.6,4.81,2.16,6.73,2.4c1.92,0.24,4.57,0.4,5.93,0
		c1.36-0.4,4.73-0.97,5.05-2.45c0.32-1.48,1.6-1.72-0.88-3.24c-2.48-1.52-3.45-2.32-5.61-2.81c-2.16-0.48-2.4-0.64-3.85,0
		S57.97,32.2,57.56,32.45z"/>
	<path class="st15" d="M64.62,53.22c-0.86,0.73-3.08,2.03-3.78,2.51c-0.7,0.48-1.4,0.48-1.19,1.34c0.22,0.86,0.32,1.97,1.94,2.53
		s7.4-0.83,8.26-1.17s1.46-0.66,1.67-1.41s0.11-1.57-1.46-2.65c-1.57-1.08-0.72-1.91-2.74-1.87C65.32,52.54,64.62,53.22,64.62,53.22
		z"/>
	<path class="st16" d="M54.82,58.69c-0.35,0.43-1.76,1.98-1.76,1.98s0.19,1.53,2.17,2.28c1.98,0.76,3.99,0.86,5.42,0.92
		c1.43,0.05,4.19,0.16,4.19-1.03c-0.01-1.19,0.91-3.29-1.19-4.16s-2.35-1.19-4.03-1.13s-2.88,0.27-3.36,0.49
		C55.77,58.26,54.82,58.69,54.82,58.69z"/>
	<path class="st17" d="M51.55,64.69c-0.63,0.6-2.21,2.16-2.32,2.92c-0.11,0.76,1.19,1.83,2.86,1.97c1.67,0.14,4.53-0.02,5.13-0.67
		s1.67-0.79,0.76-1.75s-1.57-2.78-2.38-3.24C54.8,63.45,51.94,64.32,51.55,64.69z"/>
	<path class="st18" d="M50.42,74.57c-1.01,0.41-5.34,1.62-3.89,3.19c1.46,1.57,3.39,2.12,5.02,2.12c1.62,0,4.11-0.07,4.7-0.99
		s1.4-1.51,0.81-2.48c-0.59-0.97-0.51-1.57-1.82-1.84C53.93,74.3,51.29,74.22,50.42,74.57z"/>
	<path class="st10" d="M59.92,71.54c-1.24,0.49-2.21,0.16-1.84,2.11c0.38,1.94,2.7,3.13,3.51,3.13s3.4,0.16,4.64-0.76
		c1.24-0.92,2.35-1.35,1.1-2.86c-1.26-1.51-1.31-1.4-2.77-2.21c-1.46-0.81-1.4-1.24-2.27-0.92S59.92,71.54,59.92,71.54z"/>
	<path class="st19" d="M32.67,39.99c0,0-3.21,1.38-3.81,2.1c-0.61,0.72-1.29,1.6-1,1.82s0.67,0.28,1.94,0.22
		c1.27-0.06,4.64-0.79,5.69-1.09c1.05-0.29,2.05,0.15,2.71-0.4c0.66-0.55,1.8-0.48,0.96-1.18c-0.85-0.7,0.26-0.75-1.29-0.98
		C36.32,40.27,32.67,39.99,32.67,39.99z"/>
	<path class="st20" d="M43.76,34.19c1.73-0.2,3-0.54,4.11,0.45c1.11,0.99,4.09,2.21,4.2,2.81s1.22,1.49-1.99,0.99
		c-3.21-0.5-3.32-1.11-5.25-1.11c-1.93,0-2.93,0.44-3.92,0.11s-0.5-0.4,0-1.17S42.37,34.35,43.76,34.19z"/>
	<path class="st21" d="M66.19,29.38c-0.3-1.04-3.75,1.16-4.95,1.88c-1.2,0.72-3.3,1.83-3.44,1.99c-0.14,0.16-1.91,0.6,1.6,0.71
		c3.51,0.11,4.87-0.11,6.79,0c1.91,0.11,5.07,0.39,5.67,0c0.61-0.39,2.1-0.16,0.5-1.16S67.92,35.52,66.19,29.38z"/>
	<path class="st22" d="M74.96,49.21c-0.69,0.23-3.65,1.24-4.48,1.79s-2.32,0.91-1.22,1.5c1.11,0.59,4.42,0.87,5.69,0.92
		c1.27,0.06,4.09-0.02,4.75-0.4c0.66-0.38,1.05-0.6,0.5-1.32C79.65,50.99,76.9,48.57,74.96,49.21z"/>
	<path class="st23" d="M60.14,47.23c-1.05,0.44-2.46,1.29-2.91,1.72s-0.84,1.21,0.57,1.37c1.41,0.17,4.17-0.11,4.94,0
		c0.77,0.11,1.49,0.6,1.16-0.31s-0.8-1.46-1.81-2.01C61.08,47.45,60.14,47.23,60.14,47.23z"/>
	<path class="st23" d="M51.19,46.13c0.53-0.15,3.24,0.72,4.05,0.86c0.81,0.14,2.07,1.23,0.86,1.37s-2.5,0.27-3.6,0.6
		c-1.09,0.32-2.3,0.89-2.91,0.58c-0.61-0.31-1.72-0.59-1-1.25S49.86,46.51,51.19,46.13z"/>
	<path class="st24" d="M37.65,46.51c0.95,0.34,2.38,1.38,3.54,1.82c1.16,0.44,2.76,1.84,2.38,2.22c-0.39,0.38-0.27,0.12-2.93,0
		c-2.65-0.12-2.65,0.38-4.64,1.1s-3.43,1.09-4.42,1.37c-0.99,0.29-2.1,0.67-1.77-0.32c0.33-0.99,2.43-3.13,3.15-3.75
		C33.67,48.34,36.89,46.25,37.65,46.51z"/>
	<path class="st25" d="M31.13,54.09c-0.83,0.22-3.32,0.47-3.65,1.06s-1.53,1.42-1.01,1.59s1.56-0.11,3.33-0.28
		c1.77-0.17,2.27-0.78,2.71-1.02C32.95,55.19,31.13,54.09,31.13,54.09z"/>
	<path class="st23" d="M63.24,55.61c0.88-0.75,0.94-2.38,2.65-2.17c1.71,0.2,2.82,0.84,3.21,1.08c0.39,0.23,2.71,1.47,0.66,1.6
		c-2.05,0.13-2.55,0.23-3.35,0.35c-0.81,0.11-2.81,0.49-3.46,0.33c-0.65-0.16-2.16,0-1.71-0.44C61.69,55.91,63.24,55.61,63.24,55.61
		z"/>
	<path class="st26" d="M55.72,59.17c0.36-0.1,0.69-0.92,3.33-0.74c2.64,0.19,3.05,0.42,3.9,0.97c0.84,0.54,1.51,0.62,1.34,1.33
		c-0.17,0.71-0.86,1.47-1.34,1.28c-0.48-0.19-1.12-0.53-2.29-0.58s-2.8-0.23-3.1,0c-0.3,0.23-2.32-0.33-2.32-0.33
		S54.51,59.5,55.72,59.17z"/>
	<path class="st23" d="M48.7,60.23"/>
	<path class="st23" d="M51.13,60.73c-0.78-0.13-2.43,0-2.43,0s-3.26,1.54-3.59,2.14s1.71,0.66,3.01,0.22
		c1.3-0.44,2.51-0.78,3.01-1.08S51.42,60.78,51.13,60.73z"/>
	<path class="st27" d="M37.7,67.16c-1.49,0.69-3.4,1.76-3.66,2.28c-0.26,0.52-0.6,0.74,0.29,1.23c0.88,0.5,1.44,1.49,2.98,0.61
		c1.55-0.88,1.66-1.43,3.54-1.35c1.88,0.08,3.1-0.03,3.87,0c0.77,0.03,2.68,1.18,1.62-0.53s-0.95-1.76-2.34-1.99
		s-2.32-1.04-3.48-0.71C39.36,67.02,37.7,67.16,37.7,67.16z"/>
	<path class="st28" d="M51.43,66.25c0.79-0.86,0.91-1.72,2.35-1.55c1.44,0.17,1.99,0.2,2.21,0.77s0.55,1.44,0.28,1.69
		c-0.28,0.25-1.5,0.03-2.49,0.25s-1.76,0.74-2.65,0.4S50.73,67.02,51.43,66.25z"/>
	<path class="st29" d="M59.67,72.55c1.16-0.51,2.36-0.9,2.91-0.92s2.95,0.48,3.3,0.92s0.51,0.44,0.68,1.11
		c0.17,0.66,0.35,1.21-0.68,0.99c-1.03-0.22,0.18-0.64-2.14-0.59c-2.32,0.04-2.18,0.35-3.08,0.28c-0.9-0.07-1.42,0.18-1.6-0.28
		S58.93,72.87,59.67,72.55z"/>
	<path class="st30" d="M47.63,76.79c0.8-0.45,1.67-1.06,2.62-1.09s2.97-0.5,3.83-0.39c0.87,0.11,1.2,0.36,1.64,0.73
		c0.44,0.37,1.48,0.93,0.66,1.31s-1.62,0.56-2.3,0.36c-0.68-0.2-2.34-0.36-3.11-0.17s-2.29,0.33-2.61,0.34S46.18,77.62,47.63,76.79z
		"/>
</g>
</svg>
