<?xml version="1.0" encoding="utf-8"?>
<!-- Generator: Adobe Illustrator 23.1.1, SVG Export Plug-In . SVG Version: 6.00 Build 0)  -->
<svg version="1.1" id="Layer_1" xmlns="http://www.w3.org/2000/svg" xmlns:xlink="http://www.w3.org/1999/xlink" x="0px" y="0px"
	 viewBox="0 0 108 108" style="enable-background:new 0 0 108 108;" xml:space="preserve">
<style type="text/css">
	.st0{fill:#9BBD62;}
	.st1{fill:#7E9D3D;}
	.st2{fill:#5F8C3D;}
	.st3{fill:#76AF42;}
	.st4{fill:#B2C67F;}
</style>
<g>
	<path class="st0" d="M52.15,69.09c0.15,0.37-0.07,8.91,0,9.79c0.07,0.88,0.26,3.31-0.02,3.75c-0.28,0.44-0.43,1.25-0.43,1.25
		s1.4,0.37,1.55,0c0.15-0.37,0.22-13.38,0.22-13.38L52.15,69.09z"/>
	<polygon class="st1" points="59.36,69.02 59.26,79.47 58.85,83.67 57.89,84.05 57.89,69.9 	"/>
	<polygon class="st1" points="54.59,69.83 54.59,84.05 52.61,83.74 53.47,69.37 	"/>
	<path class="st0" d="M57.89,67.99v15.75c0,0-1.25,0.52-1.25,0s0-14.72,0-14.72L57.89,67.99z"/>
	<polygon class="st2" points="55.77,68.58 55.77,83.67 57.26,83.23 56.64,67.77 	"/>
	<polygon class="st0" points="55.77,66.81 55.77,84.33 54.59,84.05 54.59,68.5 	"/>
	<path class="st1" d="M58.33,28.76c0.07-1.84,0.15-6.26,0.37-7.21s1.18-1.4,0.29-1.77c-0.88-0.37-0.74-0.96-1.55,0
		c-0.81,0.96-0.37,1.32-1.1,1.03c-0.74-0.29-0.88-0.81-1.32-0.07c-0.44,0.74,0.29,0.59-0.96,1.1c-1.25,0.52-1.18,0.59-2.06,0.52
		c-0.88-0.07-0.81-0.81-1.55-0.07c-0.74,0.74-0.74,0.81-1.84,1.18s-1.32-0.08-2.13,0.55c-0.81,0.63-1.05,1-0.38,1.14
		c0.67,0.15,1.33-0.15,2.14,0.74c0.81,0.88,1.4,1.18,2.58,2.87c1.18,1.69,1.29,2.06,1.71,3.39c0.42,1.32,1.08,3.02,2.48,2.36
		s2.28-0.07,2.72-1.32C58.18,31.92,58.33,28.76,58.33,28.76z"/>
	<path class="st2" d="M61.73,30.14c-0.07-1.77,0.15-2.43-0.59-3.83s-1.84-1.47-1.4-2.36s0.59-1.25,1.69-1.1
		c1.1,0.15,2.13,0.37,2.8,0.44c0.66,0.07,1.84-0.29,2.21,0.44s1.03,1.47,1.4,1.55c0.37,0.07,1.77,0,1.84,0.52s-0.15,0.81,0,1.4
		c0.15,0.59,1.1,1.18,1.4,1.1c0.29-0.07,2.58-0.59,2.65,0.07c0.07,0.66,0.22,2.06,0,2.43s-0.15,0.44-0.74,0.81s-1.1,0.96-1.1,0.96
		s-0.37,0.07,0.07,0.44c0.44,0.37,1.69,0.15,0.81,0.74c-0.88,0.59-0.88,0.15-2.94,0.88c-2.06,0.74-2.72,0.96-3.53,1.47
		c-0.81,0.52-2.45,1.99-2.77,1.69c-0.32-0.29-0.54-1.47-0.91-2.43c-0.37-0.96-1.03-3.09-1.1-3.53
		C61.43,31.39,61.73,30.14,61.73,30.14z"/>
	<path class="st1" d="M84.17,42.45c0,0,1.18,1.62,1.18,2.43c0,0.81,0.38,1.64-1.54,2.44c-1.92,0.8-2.21,1.61-2.21,1.61
		s0.88,1.18,0.29,1.55s-0.74,0-1.55,0c-0.81,0-1.69,0-2.13-0.52c-0.44-0.52-0.92-2.94-0.61-3.79c0.31-0.85-0.13-1.95,0.83-2.39
		C79.38,43.33,84.17,42.45,84.17,42.45z"/>
	<path class="st3" d="M75.7,33.03c0.22-0.22,1.47-1.4,1.99-0.52c0.52,0.88,0.29,1.18,0.96,1.03c0.66-0.15,2.13-0.37,2.5,0.04
		c0.37,0.41,0.52-0.03,0.44,1.07c-0.07,1.1-0.04,1.84,0.02,2.47c0.06,0.62,1.6,0.92,1.6,0.92s0.88-0.59,1.99,0.52
		c1.1,1.1,1.47,0.81,1.4,1.91c-0.07,1.1,0.75,0.96,0.01,1.77c-0.75,0.81-0.16,0.74-1.33,1.47s-0.37-0.07-2.58,1.1
		c-2.21,1.18-1.84,1.55-2.94,1.69c-1.1,0.15-1.25,2.13-2.28-0.66c-1.03-2.8-1.18-3.62-1.77-6.08S75.7,33.03,75.7,33.03z"/>
	<path class="st0" d="M75.57,44.09c0.37,0.15,1.63,1.86,2.62,1.85s0.99,0.14,1.58,0.72c0.59,0.59,0.74,1.55,1.25,1.84
		s0.79,0.96,1.1,1.55c0.3,0.59,0.58,1.18,0,2.28s-1.91,2.13-2.35,2.65c-0.44,0.52-0.53,1.32-1.59,1.4c-1.06,0.07-3.1,0-3.1,0
		s-0.09-0.23-0.6,0.03c-0.52,0.26-2.36,1.29-3.61,0.41c-1.25-0.88-2.1-3.31-2.1-3.31l-0.33-2.88l0.81-4.69c0,0,0.44-0.58,0.88-0.78
		C70.56,44.98,75.57,44.09,75.57,44.09z"/>
	<path class="st1" d="M66.36,38.77c0.21-0.37,0.29-1.77,0.58-3.31c0.29-1.55,0.66-2.06,1.69-2.06c1.03,0,1.59,0.24,2.02,0.15
		c0.44-0.09,0.55-1.02,2.1-1.35c1.55-0.34,1.62-0.84,2.28,0c0.66,0.84,2.48,1.95,2.46,2.46s0.49,0.6,0.49,0.6s1.25,0.14,1.99,1.87
		c0.74,1.73,0.06,1.86,1.21,2.64c1.15,0.78,1.52,0.93,2.03,1.22c0.52,0.29,1.47,0.22,1.62,0.88c0.15,0.66-0.72,1.4-1.02,1.55
		c-0.3,0.15-2.88,0.37-3.61,0.81c-0.74,0.44-3.8,1.47-4.59,2.06c-0.78,0.59-2.92,1.18-3.51,1.62c-0.59,0.44-2.28,1.55-2.28,1.55
		s-1.4-0.07-2.06-0.66c-0.66-0.59-1.77-1.1-1.91-1.91c-0.15-0.81-0.29-2.36,0-3.31C66.13,42.6,66.36,38.77,66.36,38.77z"/>
	<path class="st1" d="M59.66,74.1c1.03-1.03,0-1.32,0.29-2.21c0.29-0.88,0.37-1.99,1.55-1.99s1.55,0.22,2.13,0
		c0.59-0.22,0.81,0.07,0.96-0.66s1.06-0.81,1.08-1.18s0.92-1.4,0.69-1.69c-0.23-0.29-1.26-0.44-0.3-1.1
		c0.96-0.66,0.88-0.07,1.69-0.74c0.81-0.66-0.27-0.07,0.35-1.47c0.61-1.4,1.57-2.06,1.79-2.06c0.22,0,0.99,0.57,1.99-1.1
		c0.99-1.67,1.47-1.91,0.66-3.68c-0.81-1.77-1.62-3.17-1.62-3.83s0-1.07-0.22-1.75s-0.49-1.15-0.88-1.19s0.65-0.18,0.44-1.62
		c-0.21-1.44,0.15-2.28-0.29-2.36s-3.87-1.25-4.29-1.25s-1.52-1.55-3.36,0.52s-1.99,2.21-2.28,5.01s-0.44,4.12-0.37,6.62
		c0.07,2.5,0.44,3.46-0.29,5.3c-0.74,1.84-0.88,2.5-0.88,4.05s0.29,1.55,0,2.5c-0.29,0.96,0.07,2.13,0,2.72
		c-0.07,0.59,0.22,1.69,0.22,2.06S59.66,74.1,59.66,74.1z"/>
	<path class="st3" d="M45.71,30.23c-0.63,0-2.33,0-2.84,1.03c-0.52,1.03-0.81,2.21-1.47,2.21s-1.32,0.59-0.66,1.84
		c0.66,1.25-0.22,5.15,0.29,6.7c0.52,1.55,0.28,3.83,2.06,3.83c1.77,0,5.6-1.25,6.85-2.87c1.25-1.62,3.06-3.75,2.6-4.93
		c-0.46-1.18-2.08-3.24-2.01-4.56s-0.88-5.3-2.13-5.89c-1.25-0.59-1.5-1.33-1.86-0.63s-0.59,1.29-0.43,1.51
		c0.15,0.22,0.79,1.04,0.43,1.14C46.19,29.71,45.71,30.23,45.71,30.23z"/>
	<path class="st0" d="M64.22,31.11c-1.03-1.47-1.32-0.88-2.43-1.91s-0.81-0.15-1.91-0.88c-1.1-0.74-1.03-1.18-2.5-1.36
		s-1.29-0.85-2.78,0s-0.97,1.44-2.45,0.92c-1.47-0.52-1.37-1.29-1.91-0.92s-1.32,1.42-1.77,1.87s-1.18-0.5-0.88,0.79
		s0.96,1.96,0.22,2.32s-1.19,0.21-1.7,0.58s-0.35,0.59-0.39,1.32c-0.04,0.74-0.21,0.07,0.39,1.32c0.6,1.25,1.48,0.96,0.89,1.95
		c-0.59,0.99-0.75,0.99-0.89,1.43c-0.14,0.44-0.21,1.57-1.39,2.04c-1.18,0.47-1.1-0.64-1.18,0.47s-1.1,2.21,0.29,2.06
		c1.4-0.15,2.35,1.12,2.71,1.47s-0.35,10.67,0.6,12.73s1.91,3.61,2.94,4.78c1.03,1.18,1.27,0.95,2.45,1.99
		c1.18,1.04,1.43,4.12,1.63,4.64c0.19,0.52-1.75,0.81-1.55,1.55c0.2,0.74-0.16,1.47,1.05,1.47c1.21,0,4.89-0.15,5.26-0.88
		s0.07-1.25,0.44-1.84s1.62-1.18,1.62-2.13s0.37-0.88,0.74-1.69c0.37-0.81-0.44-1.55-0.29-2.43c0.15-0.88,1.6-1.03,1.72-1.84
		c0.12-0.81,0.54-2.18,0-2.04c-0.54,0.13-1.35,0.72-1.5-0.75c-0.15-1.47-0.07-1.18,0.88-1.55s1.84-0.44,2.28-0.81
		c0.44-0.37-0.07-0.22,0-1.32c0.07-1.1,0.4-1.62,0.86-1.91c0.46-0.29,0.98-0.57,1.64-1.18c0.66-0.61,0-1.55,0-1.91
		s-0.29-0.81,0.44-2.1s0.84-0.85,0.49-2.39c-0.34-1.55-1.01-2.36-0.49-3.17c0.52-0.81,0.25-1.69,0.35-2.72s-0.34-2.47-0.79-2.81
		c-0.45-0.34-1.3-1.09-1.64-1.6s-0.57-0.88-0.35-1.55S64.22,31.11,64.22,31.11z"/>
	<path class="st1" d="M38.13,35.16c-0.59,0.44-0.66,1.62-1.91,1.95c-1.25,0.33-1.18-0.04-1.84,0s-2.06,0.33-2.72,1.29
		c-0.66,0.96-0.96,0.94-1.4,1.35c-0.44,0.41-0.4,0.71-0.64,1.59c-0.24,0.88,0.31,2.28,0,2.72c-0.31,0.44-0.92-0.07-0.06,0.88
		c0.85,0.96,0.71-0.13,1.37,1.59c0.66,1.72,1.69,1.8,1.18,2.9c-0.52,1.1-0.74,0.47,0.22,1.19c0.96,0.72,2.13,0.33,1.69,1.37
		s-0.66,1.26-1.1,2.22c-0.44,0.96-1.18,0.74-0.96,1.69c0.22,0.96,0.22,2.32,0.81,2.63c0.59,0.31,0.15,0.42,2.06,0.33
		c1.91-0.09,5.01,0.24,5.89-0.33c0.88-0.57,2.21-0.53,2.21,0c0,0.53,0.44,0.68,0,1.64c-0.44,0.96-0.96,0.66-0.15,1.84
		c0.81,1.18,0.22,1.62,1.32,1.77c1.1,0.15,1.1,0.15,1.91,0c0.81-0.15,1.99-1.03,2.28-1.32s-0.37,0.44,0,1.03s0.81,1.03,1.18,1.91
		c0.37,0.88-0.59,0.59,0,1.91s0,1.25,1.03,1.84c1.03,0.59,2.13,1.1,2.21,1.69c0.07,0.59-0.1,1.47,0.61,1.32s1.23-2.58,1.16-3.46
		c-0.07-0.88,0.09-3.39,0.01-3.97s-0.82-1.18-1.55-1.77c-0.74-0.59-2.28-1.77-2.5-3.02c-0.22-1.25-2.13-2.21-0.15-2.87
		c1.99-0.66,0.88,0.66,1.55,0.66s2.05,1.62,2.68,0.15c0.63-1.47,0.71-1.62-0.62-2.65c-1.32-1.03-1.62-1.53-2.5-1.57
		c-0.88-0.04-1.03-0.93-0.52-1.08c0.52-0.15,1.25,0.2,1.62-0.6s0.66-0.25,0.29-1.37c-0.37-1.12-0.29-1.12-0.88-1.56
		c-0.59-0.44,0.15-0.74-0.59-0.44s-1.84,2.5-1.69,0.81c0.15-1.69,0.29-1.37,0.66-2.12s1.1-1.78,0.44-1.85s-1.1,0.37-1.32,0
		c-0.22-0.37-0.81-0.6-1.18-1.81c-0.37-1.21-0.35-1.87-1.72-1.5s-1.59,0.22-1.88,0.96c-0.29,0.74-0.07,0.96-1.4,1.55
		s-1.51,1.77-1.97,0.44s-0.83-2.13-0.9-3.09c-0.07-0.96-0.22-1.91,0.15-3.02s0.25-1.03,0.76-1.88c0.5-0.85,1.6-1.95,1.53-2.47
		s0.12-0.6-0.97-1.11s-1.31-1.16-1.68-1.35s-0.88-0.47-1.25,0c-0.37,0.47-0.74,0.69-0.59,1.13c0.15,0.44,0,0.81,0,0.81L38.13,35.16z
		"/>
	<path class="st4" d="M56.52,62.98c0,0-0.81-12.75-0.75-13.85s-2.47-3.6-3.23-4.04c-0.76-0.44,0.92-0.74,1.63,0.37
		c0.71,1.1,1.4,1.64,1.6,1.85c0.21,0.21,0.92,1.24,0.75,0.5c-0.17-0.74-0.88-4.49-0.75-5.37c0.13-0.88-0.57-3.09-0.59-4.64
		c-0.01-1.55,0.16,1.16,0.59,1.94s0.43,1.69,0.87,0.83s1.72-3.47,1.72-3.47s-0.62,2.86-0.77,3.47c-0.15,0.61-0.52,2.44-0.59,3.07
		s-0.22,1.07-0.07,1.81s0.15,2.65,0.33,2.43c0.18-0.22,1.73-3.83,2.54-5.45c0.81-1.62,1.84-4.12,1.84-4.12s-3.39,9.2-3.75,9.86
		s-0.52,1.58-0.63,2.45c-0.11,0.87-0.21,5.65-0.27,6.02c-0.06,0.37,0,2.94,0,2.94s0.31,1.84,0.27,2.21
		C57.23,62.17,56.52,62.98,56.52,62.98z"/>
	<path class="st0" d="M42.06,47.67c0,0,3.69,6.7,3.65,6.99c-0.04,0.29,0.6,2.06,0.39,2.21c-0.21,0.15-2,0.59-2,0.59
		s0.77-0.66-0.52-2.43s-1.24-2.87-2.33-3.75c-1.1-0.88-2.2-0.26-2.72-1.23c-0.52-0.98-0.88-1.42-0.44-1.64
		c0.44-0.22,1.03-0.22,1.62-0.22S42.06,47.67,42.06,47.67z"/>
	<path class="st0" d="M64.51,47.32c-0.66-0.01-3.9,0.65-2.87,1.17c1.03,0.52,2.06,1.1,2.43,1.25c0.37,0.15,0.52-1.18,0.37,0.15
		s-0.07,1.27-0.81,2.18s-1.91,1.42-1.25,1.94c0.66,0.52-0.15,1.25,0.66,0.52c0.81-0.74,0.88-1.03,1.47-1.95
		c0.59-0.92,1.78-1.4,1.85-1.93s0.96-0.62,0-1.5C65.4,48.26,64.51,47.32,64.51,47.32z"/>
	<path class="st1" d="M73.65,53.93c0.62-0.15,2.17-0.52,2.68,0c0.52,0.52,0.59,0.88,0.59,0.88s0.96,0.96-0.52,0.96
		c-1.47,0-2.28,0.52-2.43,0C73.83,55.25,73.65,53.93,73.65,53.93z"/>
	<path class="st0" d="M44.71,33.62c0,0,0.29,0.74,0,1.47s-1.61,1.16-1.61,1.16s0.82-0.06,0.48,0.86s-2.09,2.68-0.48,2.17
		c1.61-0.52,2.27-1.91,2.27-2.17s0-0.21,0-0.86C45.38,35.6,44.71,33.62,44.71,33.62z"/>
	<path class="st2" d="M41.25,34.28c0,0,1.11,0.29,1.11,0.96s0.22,2.06,0,2.72c-0.22,0.66-0.79,1.32-0.51,2.13
		c0.29,0.81,0.6,2.36,0.6,2.36s0.72,0.59,0.71,1.21s1.25,2.49-0.59,2.88c-1.84,0.4-3.9,1.59-4.34,0c-0.44-1.59-0.52-4.31-0.44-5.12
		c0.07-0.81,0.37-3.97,0.52-4.3c0.15-0.33,1.25-1.22,1.55-1.73C40.15,34.87,41.25,34.28,41.25,34.28z"/>
</g>
</svg>
