<?xml version="1.0" encoding="utf-8"?>
<!-- Generator: Adobe Illustrator 23.1.1, SVG Export Plug-In . SVG Version: 6.00 Build 0)  -->
<svg version="1.1" id="Layer_1" xmlns="http://www.w3.org/2000/svg" xmlns:xlink="http://www.w3.org/1999/xlink" x="0px" y="0px"
	 viewBox="0 0 108 108" style="enable-background:new 0 0 108 108;" xml:space="preserve">
<style type="text/css">
	.st0{fill:#9BBD62;}
	.st1{fill:#76AF42;}
	.st2{fill:#7E9D3D;}
	.st3{fill:#F7DEAD;}
	.st4{fill:#F1BE91;}
	.st5{fill:#E2A785;}
	.st6{fill:#F6CBA0;}
	.st7{fill:#E2B68A;}
	.st8{fill:#EFD4AB;}
	.st9{fill:#E3B78B;}
</style>
<g>
	<g>
		<path class="st0" d="M53.95,60.64c0.19-0.48-0.59-10.7-0.65-12.99c-0.06-2.29-0.81-6.48-0.41-7.63c0.4-1.15,0.41-3.13,0.41-3.13
			s-1.16,2.23-1.36,3.58c-0.2,1.35-0.4,4.74-0.55,5.54c-0.15,0.8,0.15,2.24,0,2.44c-0.15,0.2,0.89,10.42,1.27,10.87
			C53.04,59.76,53.95,60.64,53.95,60.64z"/>
		<path class="st1" d="M47.41,47.79c0,0,2.39,4.84,2.99,5.39s1.45,0.72,1.5,1.15c0.05,0.43,0.77,4.38,0.77,4.68
			c0,0.3,0.58,1.89,0.43,2.04c-0.15,0.15-2.14-3.29-2.19-3.49c-0.05-0.2-2.29-5.54-2.64-6.03C47.91,51.03,47.32,48.69,47.41,47.79z"
			/>
		<path class="st0" d="M37.68,40.31c0,0,6.58,5.93,7.48,7.48c0.9,1.55,5.14,7.03,5.39,7.43c0.25,0.4,2.27,4.45,2.34,4.71
			c0.07,0.26,0.42,1.22,0.41,1.47c-0.01,0.25-0.64,0.8-0.64,0.8s-1.21-1.29-1.31-1.57c-0.11-0.28-6.34-8.95-6.54-9.7
			s-3.29-4.79-4.29-5.88c-1-1.1-2.14-3.69-2.29-3.84C38.08,41.06,37.68,40.31,37.68,40.31z"/>
		<path class="st2" d="M48.41,38.91c0.44,0.68,3.24,7.3,4.26,11.37s1.72,9.13,1.72,9.62s0.3,1.65,0,1.8S53.54,62,53.54,62
			s-3.39-14.01-3.69-14.76s-1.89-5.83-1.85-6.28c0.05-0.45,0-1.94,0-2.04C48.01,38.81,48.06,38.37,48.41,38.91z"/>
		<path class="st0" d="M56.73,47.44c-0.45-1.55-1.15-7.03-1.2-7.13c-0.05-0.1-0.8-1.1-0.6,0.45c0.2,1.55-0.58,10.72-0.42,11.07
			c0.17,0.35,0.04,5.44-0.02,5.64s0.02,3.17,0.02,3.17s-0.7,4.71-0.54,5.06c0.16,0.35,0.86,1.35,1.01,1.25c0.15-0.1,1-1.05,1.15-1.5
			c0.15-0.45,0.5-13.76,0.6-14.19S56.73,47.44,56.73,47.44z"/>
		<path class="st0" d="M60.82,37.82c0,0-1.89,3.19-1.85,4.59c0.05,1.4-0.6,5.53-0.55,6.35c0.05,0.83-0.15,2.12-0.45,2.72
			s-1.31,1.74-1.2,1.94c0.11,0.2,0.3,5.49,0.3,5.49s1.43-3.99,1.71-4.24c0.28-0.25,1.33-5.73,1.38-6.88
			c0.05-1.15,0.1-4.69,0.05-5.49c-0.05-0.8,0-1.94,0-1.99C60.23,40.26,60.82,37.82,60.82,37.82z"/>
		<path class="st0" d="M66.41,54.43c-0.15,0.1-3.44,1.14-4.34,2.24c-0.9,1.1-3.34,4.94-3.74,5.34s-1.2,1.55-1.3,1.75
			s-1.67,2.04-1.67,2.04s-0.42,1.05,0,1.45s0.62,0.95,1.17,0.75s1.1-1.5,1.4-2.04c0.3-0.55,0.46-0.1,1.88-2.64s3.46-6.28,3.76-6.53
			c0.3-0.25,1.05-0.8,1.45-1.15c0.4-0.35,0.85-0.35,1.05-0.55S66.41,54.43,66.41,54.43z"/>
		<path class="st2" d="M56.39,65.94c0.35-0.6,3.01-7.98,3.42-8.33c0.42-0.35,4.01-7.13,4.11-8.33c0.1-1.2,1.3-5.54,1.4-6.63
			c0.1-1.1,0.1-1.91,0.25-2.75c0.15-0.84,0.55-3.02,0.55-3.02s-0.95,1.23-1.05,1.53c-0.1,0.3-1.8,4.44-1.94,5.83
			c-0.15,1.4,0.1,3.48-0.55,4.51c-0.65,1.03-2.18,2.69-2.76,3.57c-0.58,0.88-1.53,3.41-1.75,3.99c-0.22,0.58-1.71,5.16-1.74,5.89
			s-0.54,2.05-0.43,2.44c0.11,0.39-0.74,1.62-0.52,1.91S56.39,65.94,56.39,65.94z"/>
		<path class="st3" d="M52.4,61.23c0,0,0.15,4.47,0,4.96c-0.15,0.5,0.65,2.74,0,3.54c-0.65,0.8-3.99,4.14-4.39,4.59
			c-0.4,0.45-1.3,3.79-1.35,4.94c-0.05,1.15,0.9,6.08,2.34,7.23c1.45,1.15,4.14,2.24,8.53,1.05c4.39-1.2,5.14-4.99,5.34-5.98
			c0.2-1-0.65-5.54-1.55-6.48c-0.9-0.95-3.49-4.64-3.49-4.89c0-0.25-0.3-2.15-0.3-2.15s0.35-1.49,0.4-2.09
			c0.05-0.6-1.45-1.84-1.69-2.04c-0.23-0.2-0.79-2.4-0.87-2.68s-1.42-1.17-1.42-1.17L52.4,61.23z"/>
		<path class="st4" d="M53.95,67.39l2.82,1.85c0,0-3.01,2.24-3.47,2.74s-1.26,1.47-1.31,2.08s-0.57,3.8-0.73,4.35
			C51.1,78.96,51,81.5,51,81.5s0.23-6.03,0.27-6.53c0.03-0.5,1.28-3.79,1.4-3.94c0.13-0.15,0.65-1.2,0.64-1.5
			c-0.01-0.3-0.16-2.04-0.18-2.14c-0.02-0.1,0-0.78,0-0.78L53.95,67.39z"/>
		<path class="st4" d="M55.79,73.07c0,0-1.55,4.44-1.55,4.74c0,0.3,0.27,3.99,0.28,4.64c0.02,0.65,0.25,2.34,0.25,2.34
			s-1.14-1.99-1.14-2.64s0.05-5.78,0-6.28c-0.05-0.5-0.55-2.19,0-2.79c0.55-0.6,0.83-1.05,1.14-1.2c0.31-0.15,0.59-0.5,0.59-0.5
			L55.79,73.07z"/>
		<path class="st5" d="M51,73.02c0,0-2.09,1.85-2.34,2.29c-0.25,0.45-0.7,1.75-0.65,1.99c0.05,0.25,0.25,2.14,0.25,2.14
			s1.24-0.85,1.24-1.37c0-0.52,0.76-3.22,0.76-3.22s-0.91,4.79-0.76,5.04c0.15,0.25,0.72,0.75,0.76,1.05c0.04,0.3,0.62,1.45,1,1.94
			c0.38,0.5,0.38,0.9,0.63,1.2c0.25,0.29,0.85,0.8,0,1.05c-0.85,0.25-3.14,0.24-3.44-0.75c-0.3-0.99-0.91-4.03-1.05-4.88
			s0.3-3.99,1-4.84S51,73.02,51,73.02z"/>
		<path class="st5" d="M57.13,70.78c0,0,0.85,2.79,0.9,3.64c0.05,0.85-0.3,0.7-0.45,0c-0.15-0.7-0.76-2.14-0.8-1.94
			c-0.04,0.2-0.19,1.06,0.35,2.53c0.55,1.46,0.4,2.76,0.25,3.08c-0.15,0.32-0.71,0.27-0.6,0.67c0.11,0.4,0.5,1.6,0.3,2.04
			s0.1,0.9,0.3,1.6c0.2,0.7,0.76,1.35,0.65,2.19s0.01,1.89,0.01,1.89s1.66-1.61,2.39-2.1c0.73-0.49,1.38-2.19,1.33-3.58
			c-0.05-1.4,0.24-3.04-0.7-4.44c-0.94-1.4-0.59-0.88-1.54-2.31S57.13,70.78,57.13,70.78z"/>
	</g>
	<g>
		<path class="st0" d="M39.59,45.04c0.19-0.48-0.59-10.7-0.65-12.99c-0.06-2.29-0.81-6.48-0.41-7.63c0.4-1.15,0.41-3.13,0.41-3.13
			s-1.16,2.23-1.36,3.58c-0.2,1.35-0.4,4.74-0.55,5.54c-0.15,0.8,0.15,2.24,0,2.44c-0.15,0.2,0.89,10.42,1.27,10.87
			S39.59,45.04,39.59,45.04z"/>
		<path class="st1" d="M33.05,32.19c0,0,2.39,4.84,2.99,5.39s1.45,0.72,1.5,1.15c0.05,0.43,0.77,4.38,0.77,4.68s0.58,1.89,0.43,2.04
			c-0.15,0.15-2.14-3.29-2.19-3.49c-0.05-0.2-2.29-5.54-2.64-6.03C33.55,35.44,32.96,33.09,33.05,32.19z"/>
		<path class="st0" d="M23.32,24.71c0,0,6.58,5.93,7.48,7.48c0.9,1.55,5.14,7.03,5.39,7.43c0.25,0.4,2.27,4.45,2.34,4.71
			c0.07,0.26,0.42,1.22,0.41,1.47c-0.01,0.25-0.64,0.8-0.64,0.8s-1.21-1.29-1.31-1.57c-0.11-0.28-6.34-8.95-6.54-9.7
			s-3.29-4.79-4.29-5.88s-2.14-3.69-2.29-3.84S23.32,24.71,23.32,24.71z"/>
		<path class="st2" d="M34.04,23.32c0.44,0.68,3.24,7.3,4.26,11.37s1.72,9.13,1.72,9.62c0,0.5,0.3,1.65,0,1.8
			c-0.3,0.15-0.85,0.3-0.85,0.3s-3.39-14.01-3.69-14.76c-0.3-0.75-1.89-5.83-1.85-6.28c0.05-0.45,0-1.94,0-2.04
			C33.65,23.22,33.7,22.77,34.04,23.32z"/>
		<path class="st0" d="M42.37,31.85c-0.45-1.55-1.15-7.03-1.2-7.13c-0.05-0.1-0.8-1.1-0.6,0.45S40,35.88,40.16,36.23
			c0.17,0.35,0.04,5.44-0.02,5.64c-0.06,0.2,0.02,3.17,0.02,3.17s-0.7,4.71-0.54,5.06c0.16,0.35,0.86,1.35,1.01,1.25
			c0.15-0.1,1-1.05,1.15-1.5c0.15-0.45,0.5-13.76,0.6-14.19S42.37,31.85,42.37,31.85z"/>
		<path class="st0" d="M46.46,22.22c0,0-1.89,3.19-1.85,4.59c0.05,1.4-0.6,5.53-0.55,6.35c0.05,0.83-0.15,2.12-0.45,2.72
			c-0.3,0.6-1.31,1.74-1.2,1.94c0.11,0.2,0.3,5.49,0.3,5.49s1.43-3.99,1.71-4.24c0.28-0.25,1.33-5.73,1.38-6.88
			c0.05-1.15,0.1-4.69,0.05-5.49c-0.05-0.8,0-1.94,0-1.99S46.46,22.22,46.46,22.22z"/>
		<path class="st0" d="M52.05,38.83c-0.15,0.1-3.44,1.14-4.34,2.24c-0.9,1.1-3.34,4.94-3.74,5.34c-0.4,0.4-1.2,1.55-1.3,1.75
			s-1.67,2.04-1.67,2.04s-0.42,1.05,0,1.45s0.62,0.95,1.17,0.75s1.1-1.5,1.4-2.04s0.46-0.1,1.88-2.64s3.46-6.28,3.76-6.53
			c0.3-0.25,1.05-0.8,1.45-1.15s0.85-0.35,1.05-0.55S52.05,38.83,52.05,38.83z"/>
		<path class="st2" d="M42.02,50.35c0.35-0.6,3.01-7.98,3.42-8.33s4.01-7.13,4.11-8.33c0.1-1.2,1.3-5.54,1.4-6.63
			c0.1-1.1,0.1-1.91,0.25-2.75c0.15-0.84,0.55-3.02,0.55-3.02s-0.95,1.23-1.05,1.53c-0.1,0.3-1.8,4.44-1.94,5.83
			c-0.15,1.4,0.1,3.48-0.55,4.51c-0.65,1.03-2.18,2.69-2.76,3.57s-1.53,3.41-1.75,3.99s-1.71,5.16-1.74,5.89
			c-0.03,0.73-0.54,2.05-0.43,2.44s-0.74,1.62-0.52,1.91S42.02,50.35,42.02,50.35z"/>
		<path class="st6" d="M38.03,45.63c0,0,0.15,4.47,0,4.96c-0.15,0.5,0.65,2.74,0,3.54c-0.65,0.8-3.99,4.14-4.39,4.59
			c-0.4,0.45-1.3,3.79-1.35,4.94c-0.05,1.15,0.9,6.08,2.34,7.23c1.45,1.15,4.14,2.24,8.53,1.05c4.39-1.2,5.14-4.99,5.34-5.98
			s-0.65-5.54-1.55-6.48c-0.9-0.95-3.49-4.64-3.49-4.89s-0.3-2.15-0.3-2.15s0.35-1.49,0.4-2.09c0.05-0.6-1.45-1.84-1.69-2.04
			c-0.23-0.2-0.79-2.4-0.87-2.68c-0.08-0.27-1.42-1.17-1.42-1.17L38.03,45.63z"/>
		<path class="st7" d="M39.59,51.79l2.82,1.85c0,0-3.01,2.24-3.47,2.74s-1.26,1.47-1.31,2.08c-0.05,0.61-0.57,3.8-0.73,4.35
			s-0.27,3.09-0.27,3.09s0.23-6.03,0.27-6.53c0.03-0.5,1.28-3.79,1.4-3.94c0.13-0.15,0.65-1.2,0.64-1.5
			c-0.01-0.3-0.16-2.04-0.18-2.14c-0.02-0.1,0-0.78,0-0.78L39.59,51.79z"/>
		<path class="st7" d="M41.42,57.48c0,0-1.55,4.44-1.55,4.74c0,0.3,0.27,3.99,0.28,4.64c0.02,0.65,0.25,2.34,0.25,2.34
			s-1.14-1.99-1.14-2.64s0.05-5.78,0-6.28c-0.05-0.5-0.55-2.19,0-2.79c0.55-0.6,0.83-1.05,1.14-1.2c0.31-0.15,0.59-0.5,0.59-0.5
			L41.42,57.48z"/>
		<path class="st5" d="M36.64,57.43c0,0-2.09,1.85-2.34,2.29c-0.25,0.45-0.7,1.75-0.65,1.99c0.05,0.25,0.25,2.14,0.25,2.14
			s1.24-0.85,1.24-1.37c0-0.52,0.76-3.22,0.76-3.22s-0.91,4.79-0.76,5.04c0.15,0.25,0.72,0.75,0.76,1.05c0.04,0.3,0.62,1.45,1,1.94
			c0.38,0.5,0.38,0.9,0.63,1.2c0.25,0.29,0.85,0.8,0,1.05s-3.14,0.24-3.44-0.75c-0.3-0.99-0.91-4.03-1.05-4.88s0.3-3.99,1-4.84
			S36.64,57.43,36.64,57.43z"/>
		<path class="st5" d="M42.77,55.18c0,0,0.85,2.79,0.9,3.64c0.05,0.85-0.3,0.7-0.45,0c-0.15-0.7-0.76-2.14-0.8-1.94
			s-0.19,1.06,0.35,2.53c0.55,1.46,0.4,2.76,0.25,3.08s-0.71,0.27-0.6,0.67c0.11,0.4,0.5,1.6,0.3,2.04s0.1,0.9,0.3,1.6
			c0.2,0.7,0.76,1.35,0.65,2.19s0.01,1.89,0.01,1.89s1.66-1.61,2.39-2.1c0.73-0.49,1.38-2.19,1.33-3.58
			c-0.05-1.4,0.24-3.04-0.7-4.44c-0.94-1.4-0.59-0.88-1.54-2.31S42.77,55.18,42.77,55.18z"/>
	</g>
	<g>
		<path class="st0" d="M71.45,51.59c0.19-0.48-0.59-10.7-0.65-12.99c-0.06-2.29-0.81-6.48-0.41-7.63s0.41-3.13,0.41-3.13
			s-1.16,2.23-1.36,3.58c-0.2,1.35-0.4,4.74-0.55,5.54c-0.15,0.8,0.15,2.24,0,2.44c-0.15,0.2,0.89,10.42,1.27,10.87
			C70.54,50.72,71.45,51.59,71.45,51.59z"/>
		<path class="st1" d="M64.91,38.75c0,0,2.39,4.84,2.99,5.39c0.6,0.55,1.45,0.72,1.5,1.15c0.05,0.43,0.77,4.38,0.77,4.68
			s0.58,1.89,0.43,2.04c-0.15,0.15-2.14-3.29-2.19-3.49s-2.29-5.54-2.64-6.03C65.4,41.99,64.82,39.64,64.91,38.75z"/>
		<path class="st0" d="M55.18,31.27c0,0,6.58,5.93,7.48,7.48c0.9,1.55,5.14,7.03,5.39,7.43s2.27,4.45,2.34,4.71s0.42,1.22,0.41,1.47
			c-0.01,0.25-0.64,0.8-0.64,0.8s-1.21-1.29-1.31-1.57s-6.34-8.95-6.54-9.7c-0.2-0.75-3.29-4.79-4.29-5.88
			c-1-1.1-2.14-3.69-2.29-3.84C55.58,32.02,55.18,31.27,55.18,31.27z"/>
		<path class="st2" d="M65.9,29.87c0.44,0.68,3.24,7.3,4.26,11.37c1.02,4.07,1.72,9.13,1.72,9.62c0,0.5,0.3,1.65,0,1.8
			c-0.3,0.15-0.85,0.3-0.85,0.3s-3.39-14.01-3.69-14.76c-0.3-0.75-1.89-5.83-1.85-6.28s0-1.94,0-2.04
			C65.5,29.77,65.56,29.32,65.9,29.87z"/>
		<path class="st0" d="M74.23,38.4c-0.45-1.55-1.15-7.03-1.2-7.13s-0.8-1.1-0.6,0.45c0.2,1.55-0.58,10.72-0.42,11.07
			c0.17,0.35,0.04,5.44-0.02,5.64c-0.06,0.2,0.02,3.17,0.02,3.17s-0.7,4.71-0.54,5.06C71.64,57,72.34,58,72.49,57.9
			c0.15-0.1,1-1.05,1.15-1.5c0.15-0.45,0.5-13.76,0.6-14.19C74.33,41.79,74.23,38.4,74.23,38.4z"/>
		<path class="st0" d="M78.32,28.77c0,0-1.89,3.19-1.85,4.59c0.05,1.4-0.6,5.53-0.55,6.35c0.05,0.83-0.15,2.12-0.45,2.72
			c-0.3,0.6-1.31,1.74-1.2,1.94c0.11,0.2,0.3,5.49,0.3,5.49s1.43-3.99,1.71-4.24s1.33-5.73,1.38-6.88s0.1-4.69,0.05-5.49
			c-0.05-0.8,0-1.94,0-1.99S78.32,28.77,78.32,28.77z"/>
		<path class="st0" d="M83.91,45.38c-0.15,0.1-3.44,1.14-4.34,2.24c-0.9,1.1-3.34,4.94-3.74,5.34c-0.4,0.4-1.2,1.55-1.3,1.75
			c-0.1,0.2-1.67,2.04-1.67,2.04s-0.42,1.05,0,1.45s0.62,0.95,1.17,0.75c0.55-0.2,1.1-1.5,1.4-2.04c0.3-0.55,0.46-0.1,1.88-2.64
			s3.46-6.28,3.76-6.53c0.3-0.25,1.05-0.8,1.45-1.15s0.85-0.35,1.05-0.55S83.91,45.38,83.91,45.38z"/>
		<path class="st2" d="M73.88,56.9c0.35-0.6,3.01-7.98,3.42-8.33s4.01-7.13,4.11-8.33c0.1-1.2,1.3-5.54,1.4-6.63
			c0.1-1.1,0.1-1.91,0.25-2.75c0.15-0.84,0.55-3.02,0.55-3.02s-0.95,1.23-1.05,1.53c-0.1,0.3-1.8,4.44-1.94,5.83
			c-0.15,1.4,0.1,3.48-0.55,4.51c-0.65,1.03-2.18,2.69-2.76,3.57c-0.58,0.88-1.53,3.41-1.75,3.99s-1.71,5.16-1.74,5.89
			s-0.54,2.05-0.43,2.44c0.11,0.39-0.74,1.62-0.52,1.91S73.88,56.9,73.88,56.9z"/>
		<path class="st8" d="M69.89,52.18c0,0,0.15,4.47,0,4.96s0.65,2.74,0,3.54c-0.65,0.8-3.99,4.14-4.39,4.59
			c-0.4,0.45-1.3,3.79-1.35,4.94c-0.05,1.15,0.9,6.08,2.34,7.23c1.45,1.15,4.14,2.24,8.53,1.05c4.39-1.2,5.14-4.99,5.34-5.98
			c0.2-1-0.65-5.54-1.55-6.48c-0.9-0.95-3.49-4.64-3.49-4.89s-0.3-2.15-0.3-2.15s0.35-1.49,0.4-2.09c0.05-0.6-1.45-1.84-1.69-2.04
			c-0.23-0.2-0.79-2.4-0.87-2.68c-0.08-0.27-1.42-1.17-1.42-1.17L69.89,52.18z"/>
		<path class="st9" d="M71.45,58.35l2.82,1.85c0,0-3.01,2.24-3.47,2.74s-1.26,1.47-1.31,2.08s-0.57,3.8-0.73,4.35
			c-0.17,0.55-0.27,3.09-0.27,3.09s0.23-6.03,0.27-6.53s1.28-3.79,1.4-3.94c0.13-0.15,0.65-1.2,0.64-1.5
			c-0.01-0.3-0.16-2.04-0.18-2.14s0-0.78,0-0.78L71.45,58.35z"/>
		<path class="st9" d="M73.28,64.03c0,0-1.55,4.44-1.55,4.74c0,0.3,0.27,3.99,0.28,4.64c0.02,0.65,0.25,2.34,0.25,2.34
			s-1.14-1.99-1.14-2.64s0.05-5.78,0-6.28c-0.05-0.5-0.55-2.19,0-2.79c0.55-0.6,0.83-1.05,1.14-1.2c0.31-0.15,0.59-0.5,0.59-0.5
			L73.28,64.03z"/>
		<path class="st5" d="M68.5,63.98c0,0-2.09,1.85-2.34,2.29s-0.7,1.75-0.65,1.99c0.05,0.25,0.25,2.14,0.25,2.14S67,69.57,67,69.04
			c0-0.52,0.76-3.22,0.76-3.22s-0.91,4.79-0.76,5.04c0.15,0.25,0.72,0.75,0.76,1.05c0.04,0.3,0.62,1.45,1,1.94
			c0.38,0.5,0.38,0.9,0.63,1.2c0.25,0.29,0.85,0.8,0,1.05s-3.14,0.24-3.44-0.75c-0.3-0.99-0.91-4.03-1.05-4.88
			c-0.14-0.85,0.3-3.99,1-4.84S68.5,63.98,68.5,63.98z"/>
		<path class="st5" d="M74.63,61.74c0,0,0.85,2.79,0.9,3.64c0.05,0.85-0.3,0.7-0.45,0c-0.15-0.7-0.76-2.14-0.8-1.94
			c-0.04,0.2-0.19,1.06,0.35,2.53c0.55,1.46,0.4,2.76,0.25,3.08c-0.15,0.32-0.71,0.27-0.6,0.67c0.11,0.4,0.5,1.6,0.3,2.04
			s0.1,0.9,0.3,1.6c0.2,0.7,0.76,1.35,0.65,2.19s0.01,1.89,0.01,1.89s1.66-1.61,2.39-2.1c0.73-0.49,1.38-2.19,1.33-3.58
			c-0.05-1.4,0.24-3.04-0.7-4.44c-0.94-1.4-0.59-0.88-1.54-2.31C76.08,63.58,74.63,61.74,74.63,61.74z"/>
	</g>
</g>
</svg>
