<svg xmlns="http://www.w3.org/2000/svg" version="1.1" xmlns:xlink="http://www.w3.org/1999/xlink" xmlns:svgjs="http://svgjs.dev/svgjs" viewBox="0 0 108 108" style="" x="0" y="0"><style type="text/css">
	.st0{fill:#B6416E;}
	.st1{fill:#972257;}
	.st2{fill:none;stroke:#861A4C;stroke-width:0.6118;stroke-miterlimit:10;}
	.st3{fill:#86194C;}
	.st4{fill:#BF2661;}
	.st5{fill:#AA2962;}
	.st6{fill:#AD2268;}
	.st7{fill:#962256;}
	.st8{fill:none;stroke:#861A4C;stroke-width:0.6741;stroke-miterlimit:10;}
	.st9{fill:#8A1B4F;}
	.st10{fill:#AB5175;}
	.st11{fill:#A8416F;}
</style><g><path class="st0" d="M55.2,12.9c0.1-2.1,1.3-6.9,1.3-6.9c-0.3-0.1-0.5-0.1-0.7-0.1c-1.2,0.4-2.8,1.2-4.3,3s-4.6,6.4-5.3,7.9
	c-0.7,1.6-2,8.8-1.8,12.6c0.2,3.8,2.1,9.5,2.4,10.4c0.3,0.9,1.6,3.7,3.2,4.1s3.4,0.8,4.1,0.4c0.8-0.4,1-0.2,1-1.1
	c0-1-0.4-3.3-0.4-3.3c0.1-0.5,0.9-3,2.3-3c0,0,0.1,0,0.1,0c-0.7-2.3-1.8-6.6-1.8-8.5C55.3,26.1,55.1,15,55.2,12.9z"></path><path class="st1" d="M62.4,40.3c1,1.3,4.1,3.5,5,3.5s1.5-0.6,1.5-1.8c0.1-1.3-0.1-2.3,0.7-3.7c0.8-1.3,1.7-1.8,1.2-3.7
	c-0.4-2,0-4.6-0.1-6.6c-0.1-2-0.2-0.3-0.2-2.8c0-2.5,0-1.9-1.8-5c-1.7-3.1-1.1-2.7-2.9-4.5c-1.8-1.8-5.8-5.3-6.2-6.2
	c-0.3-0.7-2-2.9-3.3-3.4c0,0.1-1.2,4.8-1.3,6.9c-0.1,2.1,0.2,13.2,0.2,15.6c0,1.8,1.1,6.1,1.8,8.5C58.7,37.1,61.4,39,62.4,40.3z"></path><path class="st2" d="M57.2,37c0,0-1.9-11.2-1.9-13.5c0-2.3-0.1-7.4-0.1-9c0-1.6,0.7-6.1,0.7-6.1L56.4,6"></path><path class="st2" d="M46.7,24.2c0,0,0.4,1.6,0.7,2.2c0.3,0.6,1,0.8,1.7,1.3c0.7,0.5,1.4,0.8,1.9,1.7c0.5,0.8,1.1,1.6,1.9,2.5
	c0.7,0.9,3.5,1.3,3.5,1.3s2.2-1.2,3.5-1.8c1.3-0.6,2.9-0.9,3.5-2.6c0.6-1.7,0.4-1.8,1.1-3c0.8-1.2,1.1-1.8,1.1-1.8"></path><path class="st2" d="M49.4,17.1c0,0,0.4,2,0.9,2.5c0.5,0.5,2,0.4,2.2,0.9c0.3,0.4,2.7,3,2.7,3s1.6-2.1,2.1-3.4s1.7-1.8,1.7-3.5
	c0-1.7-0.3-3.4-0.3-3.4"></path><path class="st2" d="M50.3,40.9c0.4-0.4,2.3-2.8,3.2-4c0.9-1.3,2.7-1.4,2.7-1.4s5.3,0.8,5.8,1.2c0.5,0.4,2.8,1.6,2.8,1.6"></path><path class="st3" d="M52.2,95.2c0-0.3-2.2-15-3-16.7c-0.8-1.7-2.4-2.7-5.1-4.2c-2.7-1.5-5.4-3.4-7.1-3.4s-9.4-2.4-9.7-2.4
	s-2.6-1.2-2.6-1.2s1.9,0.7,4.3,1.1s9.9,1.9,10.9,2.2s4.7,2.7,5.1,2.9c0.4,0.2,3.4,2,3.9,2.5c0.5,0.5,0.8,1.2,0.8,1.2s-2.8-12-3-12.7
	c-0.3-0.7-4.3-18-4.4-18.5c-0.1-0.5-0.7-2.5-0.7-2.5s0.4-2.8,0.2-3.4c-0.2-0.6-1.5-7.7-2.3-8.8c-0.8-1.1-5.5-7.2-5.6-7.6
	c-0.2-0.4,2.6,2.8,3.6,3.8c1,1.1,2.8,3.7,3.4,5.3c0.6,1.6,2,7.4,2.3,8.5s0.7,5.4,1,6.8c0.3,1.4,2.4,11.8,3.4,14.3
	c1,2.6,2.9,10.8,2.9,10.8s0.5,3.9,0.7,3.4s4.1-7.5,4.1-7.5l3.8-5.6l4.5-4.9l2.5-2.9c0,0-3.2,5.2-4.5,6.3c-1.3,1.1-6.2,8.8-6.6,9.3
	c-0.4,0.5-3,5.7-3.3,6.3s0.2,5,0.2,5s1,6.8,1.2,7.1c0.2,0.3,0.8,2.9,0.8,2.9L52.2,95.2z"></path><path class="st4" d="M11.7,61.9c1,1.1,8.4,3.2,10,3.7c1.6,0.5,4.7,2.3,5.6,2.8c0.8,0.4,6.9,1.8,9.6,2.4c0,0,0,0,0,0
	s-0.1-1.3-0.5-1.6c-0.4-0.2-0.3-0.8,0-1.3c0.3-0.6,2.9-1.4,3.8-2c0.9-0.6,2.1-2.5,2-4.2c-0.1-1.7-2.8-2.1-3.1-2.3
	c-0.3-0.2-2.7-1.7-4.1-2.3c-1.4-0.6-5.1-2.8-6.6-3.2c-1.4-0.4-4.6-0.6-6.9-1.2s-5.8,0.2-7,0.6s-5.5,2-6.9,2.4
	c-0.5,0.2-0.8,0.3-1,0.5C10.2,57.7,10.7,60.8,11.7,61.9z"></path><path class="st5" d="M6.6,57.1c0.1,0.3-0.2,2.3,0.1,3.7c0.4,1.3,6.2,4.8,7.9,6c1.8,1.2,4,3.3,6.1,4.4c2.1,1.1,2.1,5.1,2.8,6.7
	c0.7,1.6,4.3,4.5,9.7,5c5.4,0.5,6.5-0.4,8.3-1.8c1.7-1.4,0.9-2.9,0.1-4.2c-0.8-1.4-4.9-3.8-5.6-4.1c-0.6-0.2,0.8-1.8,0.9-1.9
	c-2.8-0.6-8.9-2-9.6-2.4c-1-0.5-4.1-2.4-5.6-2.8c-1.6-0.5-9-2.6-10-3.7c-1-1.1-1.5-4.1-5-5.6C6.4,56.6,6.5,56.9,6.6,57.1z"></path><path class="st5" d="M55.3,28.3c-0.6-1.6-1.5-1.8-1.9-2.7c-0.4-0.9-0.3-0.7-0.6-2.2c-0.3-1.5-1.1-1.1-3-2.7c-1.9-1.6-7.2-2-8.9-2.5
	c-1.7-0.5-6.9-1.9-8.4-2.5C31,15.1,28.5,15,28.5,15s2,3.9,3.2,5.1c1.2,1.2,2.9,5.9,5,7.4c2,1.6,4.7,8.4,5,9.6c0.2,1.2,0.6,3.3,0,6.3
	c0,0,1.4-2.2,2.7-2.4c1.3-0.3,0.9,0.4,1.5,1.3c0.7,0.9,6,3.7,9.6,4.5c3.7,0.8,1.7-0.4,1.7-0.4s-0.3-1.6-0.2-2.5
	c0.1-0.9,1.1-6.8,1-8.2C57.8,34.4,55.9,29.9,55.3,28.3z"></path><path class="st0" d="M36.7,27.5c-2-1.6-3.7-6.2-5-7.4c-1.2-1.2-3.2-5.1-3.2-5.1s-3.3,2.1-4.1,3.4c-0.8,1.3,0,3.5,0.7,5.3
	c0.7,1.7,0.9,6.1,1.2,7.6c0.2,1.5-0.2,5.7-0.8,6.6c-0.6,0.9-1.3,3.8-1,4.7s2.6,4.6,2.6,4.6s2.1,2.4,3.3,2.3c1.2-0.1,5.2-3.5,6-4.1
	c0.8-0.6,1.8-2.7,2.6-3c0.7-0.4,2.7,1.1,2.7,1.1c0.6-3,0.2-5.1,0-6.3C41.4,36,38.7,29.1,36.7,27.5z"></path><path class="st6" d="M79.8,45.6c1.9-1.3,7-3.3,7-3.3c-0.1-0.3-0.2-0.5-0.4-0.7c-1.1-0.8-2.9-1.7-5.5-1.9c-2.5-0.1-8.7-0.1-10.5,0.3
	c-1.8,0.4-9.2,3.9-12.5,6.5c-3.3,2.6-7.2,8-7.8,8.8c-0.6,0.9-2.3,3.8-1.6,5.5c0.7,1.7,1.4,3.6,2.3,4c0.8,0.4,0.8,0.8,1.6,0.1
	c0.8-0.6,2.7-2.5,2.7-2.5c0.6-0.2,3.3-1.2,4.2,0.2c0,0,0,0.1,0.1,0.1c1.7-2.1,4.8-5.9,6.4-7.1C68.1,54.2,77.9,46.9,79.8,45.6z"></path><path class="st7" d="M60,69.6c-0.5,1.8-0.5,5.9,0.1,6.7c0.6,0.8,1.5,0.9,2.6,0.2c1.2-0.7,2-1.6,3.7-1.8c1.7-0.1,2.6,0.4,4.1-1.3
	c1.5-1.7,4.2-2.9,5.9-4.3c1.7-1.4,0.1-0.4,2.4-2c2.2-1.6,1.7-1.3,3.4-4.8c1.7-3.6,1.7-2.7,2.2-5.5c0.4-2.7,1-8.7,1.5-9.5
	c0.4-0.7,1.3-3.6,0.9-5.1c-0.1,0-5.1,2-7,3.3c-1.9,1.3-11.7,8.6-13.9,10.2c-1.6,1.2-4.8,5-6.4,7.1C60.4,64.3,60.5,67.9,60,69.6z"></path><path class="st8" d="M59.5,62.9c0,0,8.8-8.9,10.9-10.4c2.1-1.5,6.6-4.9,8-5.9c1.4-1,5.9-3.2,5.9-3.2l2.5-1.1"></path><path class="st8" d="M64.3,45.3c0,0-1.2,1.4-1.5,2s-0.1,1.4-0.1,2.3c0,0.9,0.1,1.8-0.3,2.8c-0.4,1-0.7,2-1.1,3.3
	c-0.3,1.3,1.1,4,1.1,4s2.5,1.2,3.8,2c1.4,0.8,2.7,2,4.6,1.5c1.9-0.5,1.9-0.8,3.4-0.9c1.5-0.1,2.3-0.2,2.3-0.2"></path><path class="st8" d="M72.4,43.1c0,0-1.5,1.6-1.6,2.4c-0.1,0.8,0.9,2,0.7,2.6c-0.2,0.5-1,4.4-1,4.4s2.9,0.1,4.4-0.3
	c1.5-0.4,2.7,0.4,4.3-0.7C80.6,50.4,82,49,82,49"></path><path class="st8" d="M29.4,37.5c0,0,2.9-0.1,5-0.1c2.1,0,3.9-0.2,4.1,0.6c0.2,0.9,1.3,1.4,1.8,1.3c0.5,0,1.4,0.7,1.4,0.7
	s2.2-3.4,2.5-4.3c0.2-0.9,0.4-3.9,1.3-4.8s1-1.4,1.8-1.9c0.8-0.4,2.7-1.4,2.7-1.4"></path><path class="st8" d="M28.5,15c0,0,5.6,9.7,6.9,11.1c1.3,1.4,2.7,3.6,4.1,5.1c1.3,1.6,2.3,6.9,2.4,7.3c0,0.4,0,1.5,0,1.5"></path><path class="st8" d="M8.8,57.6c0.1,0.4,1.9,4.5,4.1,5s7.9,2.1,9.9,3.4s9.2,4.2,9.7,4.1s2.7,0.3,2.7,0.3"></path><path class="st8" d="M26.9,22.3c0,0,1.9,1,2.1,2.6c0.3,1.6,0.1,2.1,0.7,2.6c0.6,0.4,1.2,0.9,2.2,0.9c1,0.1,3.9-0.8,4.6-0.8
	c0.8,0,1.1-1.9,1.1-2.3s-0.4-0.8,0.7-2.1c1.1-1.3,1-1.7,1-2c0-0.3-0.5-2-0.5-2"></path><path class="st8" d="M27,75.4c0,0,0.7-0.7,1.7-0.9c0.9-0.3,1.9-2,2-1.9c0.1,0,1.9-2.5,1.9-2.5s-0.6-2.2-1.4-2.8
	c-0.8-0.5-2.3-3.2-2.4-4.1c-0.1-0.8,0-1.7-0.4-2.7s-2-4.3-2-4.3"></path><path class="st8" d="M14.6,66.8c0,0,3.8,0.2,4.6,0.2s1.2,0.2,1.7,0.4c0.5,0.2,3.9-0.1,3.9-0.1s-1.8-2.7-3-4
	c-1.2-1.3-3.1-2.1-3.8-2.6c-0.6-0.5-2.4-2.3-2.7-3c-0.3-0.6-0.9-2.2-0.9-2.2"></path><path class="st8" d="M32.5,70.1c0,0,1.2,3.5,1.2,4.5s0.8,3,0.9,3.3c0.1,0.3,1.1,1,1.5,1.2"></path><path class="st8" d="M51.6,59.2c0.6,0.1,4,0.3,5.7,0.3c1.7,0,2.9,1.5,2.9,1.5s2.7,5.3,2.6,6c0,0.7,0.4,3.5,0.4,3.5"></path><path class="st8" d="M33.2,43.7c0.6-0.3,3.6-2.5,4.2-2.4c0.6,0,4.5,0.6,4.5,0.6s1.9-2.3,2.6-2.5c0.7-0.2,2.8-0.8,2.8-0.8l1.2,0.6"></path><path class="st9" d="M52.2,95.5c0-0.3,4.8-14.4,5.9-15.9c1.1-1.6,2.8-2.3,5.7-3.3c2.9-1,5.9-2.4,7.5-2.1c1.7,0.2,9.7-0.7,9.9-0.7
	c0.3,0,2.7-0.7,2.7-0.7s-2,0.3-4.5,0.4s-10.1,0.1-11.1,0.3s-5.1,1.9-5.5,1.9c-0.4,0.1-3.7,1.4-4.2,1.8c-0.5,0.4-1,1-1,1
	s4.8-11.3,5.2-11.9s7.4-17,7.6-17.5c0.2-0.5,1.1-2.3,1.1-2.3s0.1-2.8,0.4-3.4c0.3-0.6,2.9-7.3,3.8-8.3c1-1,6.6-6.2,6.9-6.5
	c0.2-0.3-3,2.3-4.2,3.1c-1.2,0.9-3.4,3.2-4.2,4.7S71,43,70.6,44c-0.4,1.1-1.6,5.2-2.1,6.5c-0.5,1.4-4.4,11.2-5.8,13.5
	c-1.5,2.4-4.7,10.1-4.7,10.1s-1.1,3.8-1.3,3.3c-0.1-0.5-2.8-8.1-2.8-8.1l-2.8-6.2l-3.6-5.6l-2-3.3c0,0,2.2,5.7,3.3,7
	c1.1,1.3,4.6,9.8,4.9,10.3s2,6.1,2.2,6.7s-1,4.9-1,4.9s-2.1,6.5-2.4,6.8c-0.2,0.2-1.3,2.7-1.3,2.7L52.2,95.5z"></path><path class="st0" d="M97.9,69.7c-1.2,0.9-8.9,1.7-10.5,1.9c-1.6,0.2-5,1.5-6.1,1.8c-0.8,0.2-7.1,0.6-9.9,0.7c0,0,0,0,0,0
	s0.3-1.3,0.8-1.4c0.4-0.2,0.4-0.7,0.3-1.3s-2.6-1.9-3.4-2.6c-0.7-0.7-1.6-2.8-1.3-4.4c0.4-1.6,3.1-1.6,3.4-1.7
	c0.3-0.1,2.9-1.2,4.4-1.5c1.5-0.3,5.6-1.9,7-2c1.5-0.1,4.7,0.2,7,0c2.3-0.2,5.7,1.2,6.8,1.8s5,2.9,6.4,3.6c0.5,0.3,0.8,0.5,0.9,0.7
	C100.1,65.9,99.1,68.9,97.9,69.7z"></path><path class="st5" d="M103.8,65.9c-0.1,0.3-0.2,2.3-0.8,3.6c-0.6,1.3-6.9,3.6-8.8,4.5c-1.9,0.9-4.5,2.6-6.8,3.3
	c-2.3,0.7-3,4.6-3.9,6.1c-0.9,1.4-5,3.7-10.4,3.2c-5.4-0.4-6.4-1.5-7.8-3.2c-1.5-1.7-0.4-3,0.6-4.2c1-1.2,5.5-2.9,6.2-3.1
	c0.7-0.1-0.5-1.9-0.6-2c2.8-0.1,9.1-0.4,9.9-0.7c1-0.3,4.4-1.6,6.1-1.8c1.6-0.2,9.3-1,10.5-1.9c1.2-0.9,2.2-3.8,5.9-4.6
	C104,65.5,103.9,65.7,103.8,65.9z"></path><path class="st4" d="M60.8,29.1c0.9-1.5,1.8-1.5,2.3-2.3c0.6-0.8,0.4-0.6,1-2.1c0.6-1.4,1.2-0.9,3.4-2.2c2.2-1.2,7.4-0.8,9.2-0.9
	c1.8-0.2,7.2-0.7,8.7-1c1.6-0.3,4.1,0,4.1,0s-2.6,3.5-4.1,4.5c-1.4,1-3.9,5.3-6.2,6.4c-2.3,1.2-6.1,7.5-6.6,8.6
	c-0.4,1.1-1.2,3.1-1.1,6.2c0,0-1.1-2.4-2.3-2.8c-1.2-0.5-0.9,0.2-1.7,1c-0.8,0.8-6.5,2.6-10.3,2.8c-3.7,0.1-1.5-0.7-1.5-0.7
	s0.6-1.5,0.7-2.4c0-0.9,0.1-6.9,0.4-8.2C57.3,34.6,59.9,30.5,60.8,29.1z"></path><path class="st10" d="M79.3,31.6c2.3-1.2,4.8-5.5,6.2-6.4c1.4-1,4.1-4.5,4.1-4.5s2.9,2.7,3.4,4.1c0.5,1.4-0.6,3.5-1.6,5.1
	c-1,1.6-2,5.8-2.5,7.3c-0.5,1.5-0.8,5.6-0.4,6.6c0.4,1,0.6,4,0.2,4.8c-0.4,0.8-3.3,4.1-3.3,4.1s-2.5,2-3.7,1.7
	c-1.1-0.3-4.5-4.4-5.2-5.1c-0.6-0.7-1.3-2.9-2-3.4c-0.7-0.5-2.8,0.7-2.8,0.7c-0.1-3.1,0.7-5.1,1.1-6.2C73.2,39.1,77,32.8,79.3,31.6z
	"></path><path class="st11" d="M33.6,41.8c-1.7-1.6-6.3-4.4-6.3-4.5c0.1-0.3,0.3-0.5,0.5-0.6c1.2-0.6,3.2-1.2,5.7-0.9
	C36,36.2,42,37.3,43.8,38c1.8,0.7,8.4,5.4,11.2,8.6c2.8,3.2,5.7,9.1,6.1,10.1c0.4,1,1.6,4.1,0.6,5.7c-1,1.6-2,3.3-2.9,3.5
	c-0.9,0.3-0.9,0.6-1.6-0.2s-2.3-2.9-2.3-2.9c-0.5-0.3-3-1.7-4.1-0.6c0,0-0.1,0.1-0.1,0.1c-1.3-2.4-3.7-6.6-5.1-8.1
	C43.7,52.3,35.3,43.4,33.6,41.8z"></path><path class="st5" d="M49,69c0.2,1.8-0.5,5.9-1.3,6.6c-0.8,0.6-1.6,0.7-2.6-0.3c-1-0.9-1.7-1.9-3.3-2.4c-1.7-0.4-2.7-0.1-3.9-2
	c-1.2-1.9-3.6-3.6-5-5.2c-1.4-1.6-0.1-0.4-2-2.4c-1.9-1.9-1.4-1.6-2.5-5.3c-1-3.8-1.2-3-1.2-5.8c0-2.8,0.5-8.7,0.1-9.6
	c-0.3-0.8-0.6-3.8,0-5.2c0.1,0,4.7,2.9,6.3,4.5c1.7,1.6,10,10.5,11.9,12.4c1.4,1.5,3.8,5.7,5.1,8.1C49.6,63.6,48.8,67.2,49,69z"></path><path class="st8" d="M50.6,62.4c0,0-7.2-10.3-8.9-12.1c-1.8-1.9-5.6-5.9-6.8-7.2c-1.2-1.2-5.3-4.2-5.3-4.2l-2.3-1.5"></path><path class="st8" d="M49,44.3c0,0,1,1.6,1.1,2.3c0.2,0.7-0.2,1.4-0.3,2.3c-0.2,0.9-0.4,1.7-0.2,2.8s0.4,2.1,0.5,3.4
	s-1.8,3.8-1.8,3.8s-2.7,0.7-4.1,1.3c-1.5,0.6-3,1.5-4.7,0.7c-1.8-0.8-1.7-1.2-3.2-1.5C34.7,59,34,58.7,34,58.7"></path><path class="st8" d="M41.4,40.7c0,0,1.2,1.8,1.2,2.7s-1.2,1.9-1.1,2.4c0.1,0.5,0.2,4.5,0.2,4.5s-2.8-0.4-4.2-1.1
	c-1.4-0.7-2.7-0.1-4.1-1.4c-1.3-1.3-2.4-2.9-2.4-2.9"></path><path class="st8" d="M84.7,42.6c0,0-2.8-0.6-4.9-1c-2.1-0.4-3.8-0.9-4.2-0.1c-0.4,0.8-1.5,1.1-2,1c-0.5-0.1-1.5,0.4-1.5,0.4
	s-1.6-3.7-1.7-4.6c-0.1-0.9,0.2-3.9-0.5-5s-0.8-1.6-1.5-2.1S66,29.4,66,29.4"></path><path class="st8" d="M89.6,20.6c0,0-7.2,8.6-8.7,9.8c-1.5,1.2-3.3,3-4.9,4.3s-3.5,6.4-3.6,6.8S72.1,43,72.1,43"></path><path class="st8" d="M101.5,66.1c-0.2,0.4-2.6,4.1-4.9,4.2c-2.3,0.1-8.1,0.7-10.3,1.6c-2.2,0.9-9.8,2.6-10.2,2.3
	c-0.4-0.2-2.7-0.1-2.7-0.1"></path><path class="st8" d="M89.8,28.1c0,0-2,0.6-2.6,2.2c-0.5,1.6-0.5,2.1-1.1,2.4c-0.7,0.3-1.4,0.6-2.4,0.5c-1-0.1-3.7-1.4-4.4-1.6
	s-0.7-2-0.7-2.5s0.5-0.7-0.3-2.2c-0.9-1.4-0.7-1.8-0.7-2.2c0-0.3,0.9-1.9,0.9-1.9"></path><path class="st8" d="M80.5,80.4c0,0-0.6-0.8-1.5-1.2s-1.5-2.3-1.6-2.3c-0.1,0-1.4-2.8-1.4-2.8s1-2.1,1.8-2.5
	c0.9-0.4,2.8-2.8,3.1-3.6s0.3-1.6,0.8-2.6c0.6-1,2.8-3.8,2.8-3.8"></path><path class="st8" d="M94.2,74c0,0-3.7-0.5-4.5-0.6s-1.2,0-1.7,0.1c-0.5,0.1-3.8-0.8-3.8-0.8s2.3-2.4,3.6-3.4c1.4-1,3.5-1.5,4.2-1.9
	c0.7-0.4,2.8-1.9,3.1-2.4s1.3-2,1.3-2"></path><path class="st8" d="M76,74.2c0,0-1.8,3.3-1.9,4.2c-0.2,0.9-1.3,2.8-1.4,3.1s-1.2,0.8-1.7,0.9"></path><path class="st8" d="M59.1,60.1c-0.6,0-3.9-0.4-5.6-0.7c-1.7-0.3-3.1,1-3.1,1s-3.5,4.7-3.6,5.5c-0.1,0.7-1,3.4-1,3.4"></path><path class="st8" d="M79.9,48.1c-0.5-0.4-3.1-3-3.7-3.1c-0.6-0.1-4.5-0.2-4.5-0.2s-1.5-2.6-2.1-2.9s-2.7-1.2-2.7-1.2L65.6,41"></path></g></svg>