<?xml version="1.0" encoding="utf-8"?>
<!-- Generator: Adobe Illustrator 23.1.1, SVG Export Plug-In . SVG Version: 6.00 Build 0)  -->
<svg version="1.1" id="Layer_1" xmlns="http://www.w3.org/2000/svg" xmlns:xlink="http://www.w3.org/1999/xlink" x="0px" y="0px"
	 viewBox="0 0 108 108" style="enable-background:new 0 0 108 108;" xml:space="preserve">
<style type="text/css">
	.st0{fill:#87AC4A;}
	.st1{fill:#AAC744;}
	.st2{fill:#778D39;}
	.st3{fill:#CFB58E;}
	.st4{fill:#E3D08C;}
	.st5{fill:#BCAE85;}
	.st6{fill:#DAC999;}
</style>
<g>
	<g>
		<g>
			<path class="st0" d="M60.49,68.15c0.33,0.04,1.82,0.54,2.14,0.72s0.39,0.56,0.62,0.23c0.23-0.33,0.12-0.57,0.17-0.87
				c0.05-0.3,0.04-0.51,0.38-0.45c0.34,0.07,0.46,0.3,0.68,0.27c0.22-0.04,0.41,0.15,0.74,0.01s-0.01-0.35,0.47-0.78
				c0.48-0.43,1.04-0.89,1.05-0.54c0.01,0.35-0.34,0.43-0.28,0.64c0.06,0.21,0.17,0.72,0.54,0.24c0.36-0.48,0.1-0.6,0.76-0.73
				c0.66-0.13,1.13-0.1,0.8,0.21c-0.33,0.31-0.38,0.3-0.26,0.56c0.12,0.26-0.46,0.64,0.44,0.42s1.03-0.61,1.24-0.35
				s-0.13,0.52,0.18,0.65c0.31,0.13-0.09,0.19,1-0.07c1.08-0.25,1.7-0.67,1.36-0.09c-0.34,0.58-0.09,0.35-1.02,0.8
				c-0.93,0.45-2,0.62-1.13,0.73c0.86,0.11,1.06,0,2.16-0.21c1.1-0.2,2.28,0.06,2.4,0.16s-0.44,0.42-0.66,0.43
				c-0.23,0.01-0.83,0.15-1.19,0.35c-0.36,0.2,0.38,0.64,0.81,0.62c0.43-0.01,1.66-0.04,1.95,0.15c0.28,0.19-0.05,0.47,0.16,0.55
				c0.21,0.08,0.56,0.03,0.46,0.33c-0.1,0.3-0.02,0.41-0.02,0.41s-0.28,0.27,0.32,0.45c0.6,0.18,1.28,0.29,1.28,0.29
				s-0.26,0.39-0.18,0.52c0.08,0.13,0.03,0.28,0.44,0.43c0.41,0.15,0.4,0.1,0.93,0.03s1.11,0.01,0.65,0.19
				c-0.46,0.18-0.88,0.49-1.33,0.38c-0.45-0.12-0.54-0.28-0.84-0.19c-0.3,0.08-0.71-0.07-0.41,0.33c0.3,0.4,0.82,0.44,0.97,0.83
				c0.16,0.39,0.17,0.76-0.46,0.67s-0.43-0.2-0.63-0.09s0.31,0.61,0.11,0.86c-0.21,0.25-0.21,0.22-0.48,0.41
				c-0.27,0.18-0.6,0.74-0.93,0.51c-0.33-0.23-0.4-0.48-0.88-0.4s-0.86,0.57-1.23,0.38s-0.21-0.4-0.6-0.5
				c-0.4-0.1-1.03,0.54-0.91,0.58c0.12,0.05,0.88,0.24,0.07,0.25c-0.81,0.01-1.31,0.21-1.23-0.33s0.54-0.86,0.54-1.37
				c-0.01-0.51,0.4-0.6-0.04-0.91s-0.86-0.65-0.92-0.36c-0.06,0.29,0.17,0.92,0.1,1.19c-0.06,0.26-0.16,0.56-0.66,0.59
				s-0.58-0.27-0.95,0.08c-0.36,0.35-1.25,0.46-0.98,0.12s0.67-0.57,0.61-0.95c-0.06-0.39-0.33-0.53-0.26-0.74
				c0.08-0.21-0.31-0.26-0.31-0.26s-0.04,0.69-0.52,0.93c-0.48,0.25-0.75,0.61-1.18,0.56c-0.43-0.05-0.92,0.33,0.11-0.42
				s1.23-1.02,1.31-1.24s0.14-0.63,0.07-0.75c-0.08-0.11-0.37-0.34-0.54-0.27c-0.17,0.07-0.54,0.52-0.54,0.52s-0.56-0.17-0.63,0.07
				s0.46,0.17-0.01,0.44c-0.48,0.27-0.63-0.09-0.68,0.19c-0.06,0.29-0.07,0.59-0.07,0.59s-0.56,0.48-0.68,0.19
				c-0.13-0.29-0.46-0.14-0.08-0.6c0.38-0.46,0.67-0.39,0.56-0.8c-0.12-0.41,0.24-0.77,0.23-0.98c-0.01-0.2,0.17-0.36-0.22-0.3
				c-0.4,0.06-0.45,0.21-0.84,0.61c-0.4,0.39-0.73,0.68-1.03,0.6c-0.3-0.08-0.72-0.41-0.72-0.1c0,0.31,0.06,0.37,0.02,0.55
				c-0.04,0.17-0.17,1.05-0.36,0.7c-0.19-0.35-0.03-0.45-0.27-0.95c-0.23-0.5-0.43-0.82-0.39-1.29c0.03-0.47-0.09-0.57,0.18-0.92
				c0.27-0.35,0.07-0.56,0.5-0.68s0.51-0.96,0.31-1.01c-0.2-0.05-0.39,0.08-0.83-0.14c-0.43-0.23-1.66-0.96-2-1.19
				c-0.34-0.23-0.8-0.53-0.89-0.69s0.11-0.41,0.29-0.62C59.47,68.28,60.49,68.15,60.49,68.15z"/>
			<path class="st1" d="M63.99,69.1c0.54-0.05,3.13,0.11,3.74,0.32s1.47,0.77,2.12,0.96c0.65,0.19,3.03,1.57,3.34,1.86
				c0.31,0.29,1.39,1.36,1.39,1.36s-4.17-2.38-4.68-2.7c-0.51-0.32-2.55-1.03-3.04-1.11c-0.48-0.08-2.63-0.17-2.75-0.25
				c-0.11-0.08-0.8-0.04-0.65-0.17C63.62,69.26,63.99,69.1,63.99,69.1z"/>
			<path class="st1" d="M60.55,68.54c0.26,0.11,1.32,0.43,1.48,0.5s0.85,0.24,0.39,0.4s-0.76,0.08-1.07-0.02s-0.37-0.17-0.64-0.3
				C60.45,68.97,60.55,68.54,60.55,68.54z"/>
			<path class="st1" d="M61.51,69.8c0.28,0.16,1.37,0.12,1.53,0.35c0.16,0.23,0.07,0.57,0.18,0.62s0.68,0,0.6-0.06
				c-0.08-0.06,0.16-0.45-0.17-0.6c-0.33-0.15-0.33-0.45-0.68-0.4s-1.69-0.11-1.94-0.15c-0.24-0.04-0.98-0.21-1.05-0.3
				s0.33,0.5,0.53,0.58S61.51,69.8,61.51,69.8z"/>
			<path class="st2" d="M70.03,72.17c0.26,0.09,0.46,0.47,0.63,0.74c0.17,0.28,0.17,0.28,0.76,0.41s1.12-0.29,1.2,0.15
				c0.08,0.44-0.24,0.28,0.06,0.87c0.31,0.59,0.28,0.65,0.84,0.67c0.56,0.02,1.29-0.24,1.48,0.05c0.19,0.3-0.01,0.73-0.63,1.15
				s-0.96,0.84-1.2,0.34c-0.23-0.5,0.36-0.53-0.07-0.92c-0.44-0.39-0.64-0.44-1.02-0.98c-0.38-0.54-0.06-0.69-0.66-0.7
				s-0.4,0.06-0.88-0.02c-0.48-0.08-0.89-0.53-0.87-0.13s0.27,0.63,0.26,0.92c-0.01,0.3,0,0.64-0.4,0.39
				c-0.39-0.25-0.56-0.82-0.7-1.32s-0.39-0.89-0.78-0.8c-0.39,0.08-0.21,0.25-0.39,0.57s-1.1,0.52-0.87,0.01s0.71-1.26,0.63-1.54
				s0.16-0.75-0.36-0.46c-0.52,0.28-0.74,0.8-1,0.71s-0.16-0.74-0.51-0.32s-0.77,1.08-0.97,1s-0.63-0.25-0.32-0.73
				c0.31-0.48,1-0.16,0.75-0.88s0.14-0.96,0.77-0.87c0.63,0.09,1.13,0.25,1.5,0.25c0.37,0,0.71-0.09,0.93,0.01
				c0.21,0.1,1.05,0.13,0.95,0.43c-0.1,0.3-0.62,0.42-0.44,0.56c0.18,0.14-0.04,0.34,0.4,0.1c0.44-0.23,0.68-0.54,0.67-0.24
				s-0.6,0.28-0.17,0.43C70.03,72.17,70.03,72.17,70.03,72.17z"/>
			<path class="st1" d="M76.58,73.77c0.38,0.19,0.96,0.13,0.61,0.53c-0.35,0.4-0.3,0.25-0.28,0.65s0.07,0.74-0.35,0.56
				c-0.42-0.18-0.9-0.23-0.64-0.63c0.26-0.4,0.21-0.23,0.03-0.56c-0.19-0.34-0.46-0.15-0.19-0.34
				C76.04,73.79,76.58,73.77,76.58,73.77z"/>
		</g>
		<g>
			<path class="st3" d="M60.43,73.58c0.17-0.13,1.19-0.89,1.59-1.48c0.4-0.59,0.44-0.65,0.37-1.36c-0.07-0.71-0.03-1.71-0.19-1.91
				c-0.16-0.21-0.35-0.74-0.77-1.3c-0.42-0.57-0.71-1.2-1.01-1.39s-0.21-0.75-1.12-0.22s-0.57,3.09-0.53,3.86
				c0.03,0.77,0.21,2.13,0.23,2.35C59.02,72.34,60.43,73.58,60.43,73.58z"/>
			<path class="st4" d="M25.3,77.98c0.7-0.34,1.77-1.11,1.77-1.11s1.25-1.23,2.05-1.53c0.79-0.3,1.26,1.2,1.26,1.2l0.22-1.46
				c0,0,0.85-0.25,1.1,0c0.25,0.25,0.65,0.99,0.65,0.99L32,74.45c0,0,1.87-0.57,2.55-0.09c0.49,0.34,0.36,0.94,0.24,1.26
				c-0.06,0.14-0.1,0.22-0.1,0.22s0.05-0.09,0.1-0.22c0.24-0.56,0.87-2.03,1.01-2.48c0.17-0.57,1.79-1.39,2.97-1.4
				s0.82,0.91,0.82,0.91s0.8-0.74,1.19-1.44c0.39-0.7,2.13-0.21,2.57,0.11c0.44,0.32,0.19,1.93,0.19,1.93s0.78-2.73,1.53-3.02
				c0.75-0.29,1.73-0.12,2.01,0.41c0.28,0.53,0.54,1.33,0.66,0.21c0.12-1.12,0.58-1.11,1.21-1.22c0.63-0.12,2.64,0.29,3.13,1.61
				c0.5,1.32,0.77-0.06,1.08-2.02c0.31-1.96,1.91-0.08,2.61,0.43c0.69,0.51,0.68,1.84,0.81,0.34c0.13-1.5,0.37-1.8,0.57-1.66
				c0.2,0.15,1.92,1.85,2.09,2.17c0.17,0.31,0.53-1.6,0.48-2.09c0,0,0.25-0.4,0.58-0.94c0.31,0.8,0.57,1.74,0.63,2.09
				c0.1,0.54-0.14,2.78-0.14,2.78c0.02,0.22,0.19,2.36-0.79,3.06c-0.98,0.7-2.8,1.27-5.33,1.19c-2.53-0.08-9.45-0.45-10.5-0.51
				c-1.05-0.06-7.15,0.27-8.98,0.67c-1.84,0.4-5.75,1.06-6.38,1.23c-0.62,0.17-2.89,1.36-3.59,1.64c-0.7,0.28-2.34,1.32-2.83,1.43
				c-0.49,0.1-1.54,0.65-1.41,0.14c0.02-0.09,0.04-0.17,0.07-0.24c0.94-0.6,1.9-1.41,2.22-1.64C23.92,78.83,24.6,78.32,25.3,77.98z"
				/>
			<path class="st5" d="M21.93,79.63c0.82-0.96,7.64-6.99,8.14-7.04c0.5-0.05,8.97-3.75,9.6-3.87c0.63-0.12,9.82-2.51,10.19-2.5
				c0.37,0.02,2.62,0.13,3.54-0.35c0.91-0.48,3.75-0.98,4.3-0.92c0.55,0.06,1.63,0.72,2.11,1.45c0.17,0.25,0.34,0.63,0.5,1.05
				c-0.33,0.54-0.58,0.94-0.58,0.94c0.05,0.49-0.31,2.41-0.48,2.09c-0.17-0.31-1.89-2.02-2.09-2.17c-0.2-0.15-0.44,0.15-0.57,1.66
				c-0.13,1.5-0.12,0.17-0.81-0.34c-0.69-0.51-2.3-2.39-2.61-0.43c-0.31,1.96-0.59,3.34-1.08,2.02c-0.5-1.32-2.5-1.72-3.13-1.61
				c-0.63,0.12-1.09,0.11-1.21,1.22c-0.12,1.12-0.38,0.32-0.66-0.21c-0.28-0.53-1.26-0.7-2.01-0.41c-0.75,0.29-1.53,3.02-1.53,3.02
				s0.25-1.61-0.19-1.93c-0.44-0.32-2.19-0.81-2.57-0.11c-0.39,0.7-1.19,1.44-1.19,1.44s0.37-0.92-0.82-0.91s-2.8,0.83-2.97,1.4
				c-0.14,0.46-0.77,1.93-1.01,2.48c0.12-0.32,0.25-0.91-0.24-1.26C33.86,73.88,32,74.45,32,74.45l0.34,1.62
				c0,0-0.39-0.73-0.65-0.99c-0.25-0.25-1.1,0-1.1,0l-0.22,1.46c0,0-0.47-1.5-1.26-1.2c-0.79,0.3-2.05,1.53-2.05,1.53
				s-1.07,0.77-1.77,1.11c-0.7,0.34-1.38,0.85-2.02,1.3c-0.32,0.22-1.28,1.04-2.22,1.64C21.15,80.6,21.26,80.42,21.93,79.63z"/>
		</g>
	</g>
	<path class="st6" d="M31.4,53.94c-0.13-0.11-0.23-0.17-0.23-0.17S31.25,53.83,31.4,53.94z"/>
	<g>
		<g>
			<path class="st0" d="M68.76,62.31c0.37-0.04,2.24,0.18,2.7,0.32c0.46,0.14,0.82,0.63,0.8,0.12c-0.02-0.51-0.3-0.78-0.48-1.2
				c-0.17-0.41-0.34-0.69,0.05-0.7s0.69,0.27,0.88,0.16s0.53,0.08,0.75-0.21c0.22-0.29-0.27-0.46-0.11-1.17
				c0.16-0.71,0.39-1.48,0.65-1.02c0.27,0.46-0.02,0.67,0.19,0.92c0.22,0.26,0.71,0.9,0.72,0.15c0.01-0.74-0.34-0.82,0.22-1.18
				c0.56-0.36,1.06-0.46,0.96,0.04c-0.1,0.5-0.16,0.5,0.16,0.81c0.32,0.31,0.01,0.99,0.76,0.42c0.74-0.57,0.58-1.11,0.99-0.83
				c0.41,0.29,0.26,0.73,0.67,0.8c0.41,0.08,0.05,0.27,0.96-0.38c0.9-0.65,1.22-1.38,1.31-0.51c0.09,0.87,0.17,0.49-0.43,1.36
				c-0.6,0.87-1.55,1.4-0.6,1.29c0.95-0.11,1.07-0.31,2.03-0.9s2.34-0.59,2.54-0.49s-0.13,0.68-0.35,0.76
				c-0.22,0.08-0.73,0.44-0.95,0.81c-0.21,0.37,0.86,0.73,1.28,0.59c0.42-0.14,1.65-0.54,2.08-0.37c0.43,0.17,0.3,0.64,0.57,0.68
				c0.27,0.04,0.59-0.12,0.71,0.3c0.12,0.42,0.28,0.55,0.28,0.55s-0.09,0.44,0.66,0.5c0.74,0.06,1.5,0.01,1.5,0.01
				s0.03,0.6,0.21,0.74s0.24,0.36,0.77,0.44c0.53,0.08,0.48,0.02,0.97-0.23c0.49-0.25,1.13-0.31,0.8,0.06
				c-0.32,0.37-0.52,0.9-1.06,0.88s-0.75-0.21-0.99-0.01s-0.77,0.12-0.17,0.56c0.6,0.44,1.16,0.35,1.6,0.81s0.74,0.96,0.04,1.02
				c-0.7,0.06-0.58-0.14-0.7,0.06c-0.12,0.2,0.77,0.72,0.75,1.11s-0.05,0.36-0.19,0.68c-0.14,0.32-0.06,1.15-0.56,0.94
				s-0.76-0.52-1.19-0.27c-0.43,0.25-0.44,1-0.96,0.86c-0.52-0.14-0.51-0.47-0.99-0.49s-0.64,1.01-0.49,1.04s1.07,0.05,0.26,0.31
				c-0.81,0.26-1.17,0.66-1.49-0.07c-0.32-0.73-0.09-1.29-0.48-1.96s-0.04-0.91-0.72-1.19c-0.67-0.28-1.35-0.6-1.2-0.21
				s0.86,1.17,0.99,1.54c0.13,0.36,0.25,0.79-0.23,0.98c-0.48,0.19-0.79-0.18-0.9,0.38s-0.92,0.98-0.91,0.44s0.25-0.95-0.1-1.44
				c-0.35-0.49-0.73-0.6-0.81-0.9c-0.08-0.3-0.51-0.26-0.51-0.26s0.47,0.92,0.17,1.38c-0.31,0.47-0.3,1.03-0.77,1.09
				c-0.47,0.06-0.68,0.71-0.2-0.59c0.48-1.29,0.48-1.71,0.4-2.01c-0.08-0.3-0.33-0.88-0.49-1.01c-0.16-0.13-0.63-0.34-0.75-0.2
				c-0.12,0.14-0.16,0.85-0.16,0.85s-0.69-0.06-0.58,0.27s0.59,0.08,0.31,0.58c-0.28,0.5-0.7,0.06-0.55,0.46
				c0.16,0.39,0.37,0.79,0.37,0.79s-0.2,0.8-0.55,0.46c-0.34-0.34-0.57-0.05-0.53-0.77c0.04-0.72,0.39-0.71-0.03-1.22
				c-0.42-0.5-0.33-1.09-0.49-1.36s-0.09-0.53-0.45-0.34s-0.29,0.41-0.4,1.05c-0.11,0.63-0.23,1.11-0.59,1.09
				c-0.36-0.01-1.03-0.34-0.81,0.07s0.34,0.47,0.42,0.72s0.61,1.43,0.16,1.02s-0.37-0.58-0.98-1.18c-0.61-0.59-1.05-0.97-1.36-1.59
				c-0.32-0.63-0.51-0.73-0.5-1.26c0.01-0.54-0.35-0.76,0-1.05s-0.19-1.41-0.43-1.42c-0.24-0.01-0.33,0.23-0.94,0.05
				c-0.61-0.17-2.39-0.79-2.91-0.99s-1.2-0.47-1.42-0.66c-0.21-0.19-0.19-0.58-0.17-0.9C67.82,62.78,68.76,62.31,68.76,62.31z"/>
			<path class="st1" d="M73,62.55c0.51-0.22,3.24-0.76,4.01-0.67c0.77,0.09,2.06,0.59,2.86,0.66c0.8,0.06,4.23,1.19,4.77,1.48
				s2.42,1.39,2.42,1.39s-5.99-1.93-6.74-2.2c-0.75-0.27-3.35-0.62-3.9-0.58c-0.55,0.04-2.79,0.54-2.96,0.47s-0.84,0.17-0.78-0.03
				C72.75,62.86,73,62.55,73,62.55z"/>
			<path class="st1" d="M69.11,62.8c0.35,0.07,1.66,0.19,1.87,0.23c0.21,0.04,1.04,0.07,0.7,0.42c-0.35,0.34-0.71,0.33-1.09,0.28
				c-0.39-0.05-0.5-0.11-0.87-0.22C69.33,63.41,69.11,62.8,69.11,62.8z"/>
			<path class="st1" d="M71.03,64.2c0.4,0.14,1.48-0.24,1.81,0.02c0.33,0.25,0.5,0.74,0.65,0.77c0.15,0.04,0.68-0.2,0.56-0.26
				c-0.12-0.06-0.17-0.64-0.62-0.74s-0.66-0.5-0.99-0.33c-0.32,0.17-1.8,0.34-2.07,0.36c-0.27,0.02-1.15,0.01-1.28-0.08
				c-0.14-0.1,0.7,0.57,0.97,0.61C70.31,64.58,71.03,64.2,71.03,64.2z"/>
			<path class="st2" d="M81.4,64.84c0.33,0.04,0.81,0.48,1.18,0.8c0.38,0.31,0.38,0.31,1.07,0.31c0.69,0,0.91-0.71,1.32-0.15
				c0.4,0.55-0.03,0.45,0.72,1.14c0.75,0.69,0.76,0.78,1.34,0.64c0.58-0.14,1.12-0.7,1.54-0.36c0.41,0.34,0.54,0.97,0.22,1.7
				c-0.31,0.73-0.35,1.39-0.96,0.8c-0.61-0.59-0.03-0.81-0.76-1.2c-0.73-0.39-0.97-0.4-1.76-1c-0.79-0.6-0.57-0.89-1.19-0.74
				c-0.62,0.15-0.36,0.19-0.91,0.23c-0.55,0.04-1.29-0.44-0.97,0.08s0.74,0.75,0.96,1.15c0.21,0.4,0.47,0.85-0.11,0.63
				c-0.58-0.21-1.18-0.93-1.69-1.54c-0.52-0.62-1.06-1.06-1.39-0.83c-0.33,0.23-0.02,0.39,0.03,0.87c0.05,0.48-0.73,1-0.87,0.27
				c-0.15-0.73-0.23-1.87-0.51-2.21s-0.4-1.03-0.71-0.51s-0.15,1.28-0.47,1.24c-0.33-0.04-0.71-0.93-0.75-0.27
				c-0.03,0.66,0.03,1.65-0.23,1.61s-0.82-0.14-0.87-0.87c-0.05-0.73,0.89-0.51,0.1-1.38s-0.57-1.31,0.13-1.37
				c0.7-0.06,1.33,0,1.7-0.11s0.65-0.33,0.94-0.26s1.16-0.13,1.29,0.29c0.12,0.42-0.31,0.73-0.03,0.87
				c0.28,0.13,0.21,0.46,0.48,0.02c0.27-0.44,0.28-0.91,0.49-0.52c0.22,0.4-0.4,0.54,0.14,0.62C81.4,64.84,81.4,64.84,81.4,64.84z"
				/>
			<path class="st1" d="M89.2,65.04c0.52,0.14,1.07-0.1,1.01,0.52c-0.06,0.63-0.12,0.41,0.2,0.93c0.32,0.52,0.62,0.95,0.06,0.84
				c-0.56-0.11-1.08-0.04-1.11-0.64c-0.04-0.6,0.05-0.36-0.4-0.75c-0.44-0.39-0.58-0.07-0.44-0.39S89.2,65.04,89.2,65.04z"/>
		</g>
		<g>
			<path class="st3" d="M68.87,60.22c0.26,0.06,1.35,0.94,1.65,1.65s0.61,1.19,0.1,1.81c-0.51,0.62-0.83,1.05-1.3,1.5
				c-0.47,0.45-0.67,0.72-1.28,0.81c-0.62,0.09-1.6-0.04-1.52-0.39s0.33-0.78,0.69-1.63c0.37-0.84,0.14-0.55,0.45-1.57
				C67.97,61.39,68.87,60.22,68.87,60.22z"/>
			<path class="st4" d="M68.02,58.88c-1.18-1.27-3.58-2.68-6.84-2.33c-3.26,0.34-15.47-0.01-16.68,0.16
				c-1.21,0.17-4.71,1.04-6.32,1.46c-1.61,0.42-7.04,1.54-8.26,1.87c-1.22,0.32-3.03,1.02-4.67,1.61c-1.65,0.59-3.15,1.54-4.82,1.85
				c-1.67,0.32-2.47,0.72-3.42,1.34c-0.96,0.62-1.8,1.3-1.89,1.51s-0.92,0.8-0.35,0.74c0.57-0.05,2.93-0.35,4.29-0.92
				c1.37-0.57,5.24-2.5,8.02-2.61c0.27-0.01,0.59-0.02,0.95-0.03c0.25-0.41,0.42-0.69,0.42-0.69c0.28-0.1,1.22-0.63,1.42-0.9
				c0.2-0.28,0.36-0.38,0.63,0.05c0.27,0.43,0.58,0.91,0.98,0.73c0.41-0.18,0.39-0.32,1.12-0.71c0.73-0.39,0.47-1.38,1.03-0.63
				c0.55,0.75,0.29,1.29,0.8,1.27c0.51-0.02,0.64,0.42,1.13-0.34c0.49-0.76,0.63-1.37,0.94-1.12c0.31,0.25,0.67,0.7,0.91,0.85
				c0.24,0.15-0.01,0.1,0.66-0.15c0.67-0.24,0.65-0.75,0.95-0.87c0.3-0.12,0.73-0.69,1.1-0.02c0.36,0.67,0.44,1.37,0.87,0.87
				c0.43-0.5,0.98-2.12,0.98-2.12l-0.05,1.57c0,0,0.01,0.48,0.82,0.34c0.81-0.14,0.09-0.21,0.81-0.14c0.72,0.07,1.16-0.66,1.27-1.18
				c0.12-0.52,0.25,0.74,0.2,1.15c-0.04,0.4,0.33,0.99,1.09,0.66c0.76-0.33,1.65-3.07,1.65-3.07s-0.27,2.27-0.1,2.61
				c0.17,0.34,0.68,0.32,1.83,0.11c1.15-0.2,2.74-0.76,3.21-0.38c0.47,0.38,1,0.87,1.48,0.56c0.48-0.31,0.74-0.02,0.74-1.07
				c0.01-1.05,0.26-2.27,0.26-2.27s0.17,0.94,0.29,1.24c0.12,0.3-0.17,2.5-0.17,2.5s0.51,0.65,0.74,0.65
				c0.23,0.01,0.6-0.23,0.86-0.17c0.26,0.06,0.84-0.09,1.21-1.29c0.31-1.02,0.36-1.5,0.37-1.62l0-0.04c0,0,0,0.02,0,0.04l-0.15,2.2
				c0,0-0.14,0.72,0.64,0.9c0.79,0.18,0.86,0.88,1.41-0.14c0.55-1.02,0.72-0.52,0.87-0.29c0.15,0.24-0.56,0.77,0.24,1.08
				c0.8,0.32,1.69,0.65,1.77,0.08c0.08-0.58,0.21-0.73,0.75-0.47c0.54,0.26-0.23,1.05,0.61,0.96c0.85-0.09,1.07-0.3,1.17-0.44
				c0.1-0.14,0.59-0.2,1.09-0.24c0.25-0.02,1.05,0.26,1.69,0.74c0.25-0.48,0.51-1.04,0.78-1.69C69.75,61.65,69.21,60.15,68.02,58.88
				z"/>
			<path class="st5" d="M66.88,63.58c-0.5,0.04-0.99,0.1-1.09,0.24c-0.1,0.14-0.33,0.36-1.17,0.44c-0.84,0.09-0.07-0.7-0.61-0.96
				c-0.54-0.26-0.67-0.1-0.75,0.47c-0.08,0.58-0.97,0.24-1.77-0.08c-0.8-0.32-0.09-0.85-0.24-1.08c-0.15-0.24-0.32-0.74-0.87,0.29
				c-0.55,1.02-0.62,0.32-1.41,0.14c-0.79-0.18-0.64-0.9-0.64-0.9l0.15-2.2c-0.01,0.13-0.06,0.6-0.37,1.62
				c-0.36,1.2-0.94,1.35-1.21,1.29c-0.26-0.06-0.64,0.18-0.86,0.17c-0.23-0.01-0.74-0.65-0.74-0.65s0.28-2.2,0.17-2.5
				c-0.12-0.3-0.29-1.24-0.29-1.24s-0.26,1.21-0.26,2.27c-0.01,1.05-0.26,0.77-0.74,1.07c-0.48,0.31-1.01-0.18-1.48-0.56
				c-0.47-0.38-2.06,0.18-3.21,0.38c-1.15,0.2-1.66,0.23-1.83-0.11c-0.17-0.34,0.1-2.61,0.1-2.61s-0.89,2.74-1.65,3.07
				c-0.76,0.33-1.14-0.25-1.09-0.66c0.04-0.4-0.08-1.67-0.2-1.15c-0.12,0.52-0.56,1.25-1.27,1.18c-0.72-0.07,0,0-0.81,0.14
				c-0.81,0.14-0.82-0.34-0.82-0.34l0.05-1.57c0,0-0.55,1.62-0.98,2.12c-0.43,0.5-0.5-0.2-0.87-0.87c-0.36-0.67-0.8-0.09-1.1,0.02
				c-0.3,0.12-0.28,0.63-0.95,0.87c-0.67,0.24-0.41,0.29-0.66,0.15c-0.24-0.15-0.6-0.59-0.91-0.85c-0.31-0.25-0.45,0.36-0.94,1.12
				c-0.49,0.76-0.62,0.32-1.13,0.34c-0.51,0.02-0.25-0.52-0.8-1.27c-0.55-0.75-0.3,0.24-1.03,0.63c-0.73,0.39-0.71,0.53-1.12,0.71
				c-0.41,0.18-0.71-0.3-0.98-0.73c-0.27-0.43-0.43-0.33-0.63-0.05c-0.2,0.28-1.14,0.8-1.42,0.9c0,0-0.17,0.27-0.42,0.69
				c3.39-0.08,10.45-0.1,12.57-0.29c2.34-0.21,8.15,0.08,9.48,0.29c1.33,0.21,9.4,3.48,11.24,3.66c1.84,0.18,3.85,0.75,4.57,0.35
				c0.59-0.33,1.51-0.9,2.7-3.22C67.93,63.84,67.13,63.56,66.88,63.58z"/>
		</g>
	</g>
	<path class="st6" d="M51.55,66.03c0.01-0.02,0.01-0.04,0.01-0.04L51.55,66.03z"/>
	<g>
		<g>
			<path class="st0" d="M65.86,49.42c0.4-0.18,2.58-0.61,3.14-0.62c0.57-0.01,1.13,0.42,0.94-0.15c-0.19-0.57-0.61-0.77-0.94-1.18
				c-0.33-0.41-0.62-0.65-0.18-0.81s0.86,0.05,1.05-0.14c0.18-0.2,0.63-0.1,0.78-0.51s-0.46-0.42-0.52-1.28
				c-0.06-0.86-0.06-1.81,0.39-1.39c0.46,0.42,0.2,0.76,0.53,0.97c0.33,0.21,1.1,0.75,0.86-0.09c-0.24-0.84-0.66-0.8-0.15-1.41
				c0.51-0.62,1.04-0.91,1.09-0.3s-0.01,0.62,0.45,0.86c0.46,0.24,0.35,1.11,0.99,0.2s0.27-1.46,0.83-1.29s0.54,0.73,1.03,0.66
				c0.49-0.06,0.15,0.29,0.95-0.77c0.8-1.06,0.9-2,1.3-1.05c0.39,0.95,0.36,0.48-0.03,1.69c-0.39,1.2-1.27,2.14-0.24,1.67
				c1.03-0.47,1.1-0.74,1.97-1.75c0.88-1.01,2.44-1.52,2.69-1.48s0.09,0.82-0.13,0.99c-0.22,0.17-0.67,0.76-0.79,1.26
				s1.22,0.51,1.64,0.2c0.43-0.31,1.68-1.21,2.22-1.17c0.54,0.03,0.56,0.61,0.87,0.56s0.62-0.36,0.9,0.08
				c0.28,0.43,0.51,0.52,0.51,0.52s0.05,0.53,0.91,0.33c0.86-0.2,1.69-0.54,1.69-0.54s0.24,0.66,0.49,0.76
				c0.25,0.1,0.39,0.31,1.01,0.21c0.63-0.1,0.55-0.15,1.01-0.61s1.16-0.76,0.93-0.22c-0.24,0.54-0.28,1.21-0.89,1.38
				c-0.61,0.17-0.92,0.04-1.12,0.35c-0.2,0.31-0.83,0.41,0,0.69c0.83,0.28,1.42-0.03,2.08,0.34c0.66,0.36,1.16,0.81,0.39,1.13
				c-0.77,0.32-0.7,0.05-0.77,0.32s1.11,0.53,1.22,0.98c0.1,0.45,0.06,0.42,0.02,0.83s0.32,1.32-0.31,1.27s-1.03-0.31-1.43,0.13
				s-0.16,1.29-0.8,1.32s-0.73-0.35-1.28-0.19s-0.38,1.37-0.2,1.35c0.19-0.03,1.22-0.33,0.39,0.26c-0.82,0.58-1.09,1.17-1.7,0.46
				c-0.61-0.71-0.54-1.42-1.2-2.04c-0.66-0.62-0.36-1.01-1.21-1.08c-0.85-0.07-1.73-0.19-1.42,0.2c0.31,0.39,1.36,1.01,1.63,1.37
				c0.27,0.36,0.55,0.8,0.07,1.18c-0.47,0.39-0.95,0.08-0.88,0.76c0.07,0.67-0.71,1.44-0.87,0.83c-0.16-0.61-0.03-1.16-0.6-1.59
				c-0.56-0.43-1.02-0.41-1.21-0.72c-0.19-0.31-0.66-0.11-0.66-0.11s0.84,0.86,0.66,1.5c-0.19,0.64,0.01,1.27-0.5,1.51
				c-0.51,0.24-0.53,1.04-0.43-0.59S83,53.31,82.81,53s-0.67-0.87-0.89-0.96c-0.23-0.08-0.82-0.15-0.91,0.04
				c-0.09,0.2,0.11,1.02,0.11,1.02s-0.79,0.18-0.56,0.52c0.23,0.34,0.69-0.12,0.55,0.54c-0.15,0.66-0.77,0.32-0.46,0.71
				c0.31,0.39,0.69,0.76,0.69,0.76s0.04,0.97-0.46,0.71c-0.5-0.26-0.65,0.15-0.85-0.68c-0.2-0.82,0.2-0.95-0.45-1.36
				c-0.64-0.42-0.74-1.11-1.01-1.35c-0.27-0.24-0.29-0.56-0.62-0.21c-0.34,0.35-0.19,0.57-0.1,1.33c0.09,0.76,0.11,1.33-0.3,1.45
				c-0.41,0.11-1.27,0-0.88,0.38s0.54,0.41,0.72,0.65c0.18,0.24,1.17,1.39,0.52,1.1c-0.65-0.29-0.61-0.52-1.5-0.97
				s-1.5-0.71-2.07-1.3c-0.57-0.59-0.82-0.63-0.99-1.24c-0.16-0.61-0.65-0.73-0.36-1.18c0.29-0.45-0.7-1.52-0.97-1.45
				c-0.27,0.08-0.3,0.38-1.04,0.4s-2.96-0.02-3.6-0.06s-1.51-0.09-1.81-0.23c-0.31-0.13-0.41-0.58-0.5-0.96
				C64.96,50.29,65.86,49.42,65.86,49.42z"/>
			<path class="st1" d="M70.72,48.14c0.5-0.43,3.39-2.04,4.29-2.21s2.51-0.08,3.44-0.3c0.93-0.22,5.17-0.19,5.86-0.06
				s3.19,0.69,3.19,0.69s-7.39,0-8.32-0.03c-0.93-0.03-3.98,0.52-4.58,0.76s-2.95,1.62-3.17,1.61c-0.22-0.01-0.88,0.5-0.89,0.25
				C70.54,48.6,70.72,48.14,70.72,48.14z"/>
			<path class="st1" d="M66.42,49.85c0.42-0.04,1.93-0.39,2.18-0.42c0.24-0.03,1.2-0.3,0.92,0.22c-0.28,0.52-0.69,0.63-1.14,0.72
				s-0.6,0.06-1.06,0.07S66.42,49.85,66.42,49.85z"/>
			<path class="st1" d="M69.05,50.73c0.5,0.01,1.59-0.81,2.04-0.64c0.45,0.17,0.81,0.65,0.99,0.64c0.18-0.01,0.7-0.47,0.54-0.49
				c-0.16-0.02-0.41-0.66-0.95-0.61c-0.54,0.05-0.91-0.32-1.22-0.01c-0.31,0.31-1.91,1.04-2.21,1.16s-1.29,0.43-1.47,0.37
				c-0.19-0.06,0.98,0.38,1.3,0.33C68.37,51.43,69.05,50.73,69.05,50.73z"/>
			<path class="st2" d="M80.93,47.68c0.38-0.07,1.07,0.25,1.6,0.47c0.53,0.22,0.53,0.22,1.31-0.04c0.78-0.25,0.79-1.13,1.43-0.65
				c0.64,0.48,0.11,0.52,1.19,1.02s1.12,0.6,1.72,0.23c0.6-0.37,1.03-1.19,1.61-0.96c0.58,0.23,0.93,0.9,0.83,1.84
				s0.08,1.69-0.81,1.25s-0.31-0.9-1.27-1.08c-0.95-0.17-1.23-0.09-2.32-0.49c-1.09-0.39-0.94-0.8-1.59-0.4
				c-0.65,0.4-0.34,0.35-0.94,0.59c-0.6,0.24-1.6-0.03-1.07,0.44c0.53,0.47,1.08,0.57,1.46,0.95c0.38,0.37,0.82,0.78,0.09,0.75
				s-1.64-0.62-2.43-1.13s-1.55-0.81-1.85-0.44c-0.3,0.38,0.1,0.45,0.33,0.97c0.22,0.52-0.48,1.39-0.89,0.62
				c-0.41-0.77-0.89-2.03-1.32-2.31c-0.43-0.28-0.8-1.02-0.97-0.31c-0.18,0.71,0.26,1.5-0.12,1.57c-0.38,0.07-1.12-0.78-0.93-0.03
				s0.59,1.85,0.28,1.9s-0.98,0.14-1.27-0.66c-0.3-0.8,0.83-0.9-0.35-1.59s-1.08-1.27-0.31-1.59c0.77-0.32,1.49-0.49,1.88-0.74
				c0.39-0.25,0.62-0.61,0.97-0.63c0.35-0.02,1.27-0.57,1.55-0.14s-0.11,0.94,0.26,0.99c0.36,0.05,0.39,0.44,0.55-0.15
				c0.16-0.59,0-1.13,0.38-0.76c0.38,0.37-0.27,0.76,0.37,0.64C80.93,47.68,80.93,47.68,80.93,47.68z"/>
			<path class="st1" d="M89.79,45.07c0.64-0.03,1.17-0.51,1.31,0.22s0.01,0.51,0.54,0.98c0.53,0.47,1.02,0.85,0.35,0.92
				c-0.66,0.08-1.23,0.34-1.47-0.32c-0.25-0.66-0.07-0.42-0.7-0.7s-0.67,0.13-0.63-0.28S89.79,45.07,89.79,45.07z"/>
		</g>
		<g>
			<path class="st3" d="M65.49,46.65c0.27,0.08,1.89,0.59,2.62,1.11c0.73,0.52,0.8,0.58,0.93,1.39c0.13,0.81,0.5,1.91,0.36,2.19
				c-0.15,0.28-0.23,0.94-0.62,1.7c-0.39,0.77-0.58,1.57-0.91,1.88c-0.33,0.31-0.04,0.91-1.44,0.62c-1.39-0.29-1.75-3.24-1.95-4.11
				s-0.4-2.44-0.44-2.69C64,48.5,65.49,46.65,65.49,46.65z"/>
			<path class="st4" d="M16.77,53.51c1.05,0.15,2.74,0.64,2.74,0.64s2.08,0.94,3.24,1.01c1.17,0.07,1.32-1.75,1.32-1.75l0.77,1.54
				c0,0,1.22-0.01,1.48-0.37c0.26-0.36,0.56-1.31,0.56-1.31l0.06,1.92c0,0,2.7,0.01,3.47-0.76c0.55-0.54,0.18-1.16-0.08-1.48
				c-0.12-0.13-0.2-0.21-0.2-0.21s0.09,0.08,0.2,0.21c0.5,0.54,1.82,1.96,2.16,2.42c0.41,0.57,2.85,0.95,4.45,0.56
				c1.6-0.39,0.82-1.29,0.82-1.29s1.31,0.56,2.06,1.2c0.75,0.65,2.94-0.48,3.43-0.99c0.49-0.51-0.36-2.21-0.36-2.21
				s1.93,2.76,3.03,2.84c1.1,0.08,2.36-0.45,2.57-1.13c0.21-0.68,0.31-1.65,0.82-0.45c0.52,1.2,1.13,1.03,2.02,0.95
				c0.88-0.08,3.46-1.21,3.71-2.83c0.25-1.63,1.06-0.19,2.1,1.88c1.04,2.07,2.6-0.55,3.37-1.35c0.77-0.8,0.34-2.27,0.99-0.64
				c0.65,1.63,1.08,1.88,1.3,1.65c0.22-0.23,2-2.7,2.12-3.1c0.13-0.41,1.22,1.6,1.31,2.16c0,0,0.46,0.36,1.08,0.86
				c0.16-1,0.21-2.12,0.19-2.54c-0.04-0.64-1.08-3.03-1.08-3.03c-0.04-0.25-0.5-2.68-2.05-3.13s-4.18-0.47-7.56,0.46
				c-3.38,0.94-12.59,3.66-13.98,4.08c-1.39,0.42-9.71,2.09-12.31,2.26s-8.09,0.75-8.98,0.77c-0.9,0.02-4.32-0.54-5.36-0.61
				c-1.04-0.07-3.58-0.69-4.27-0.64c-0.7,0.05-2.28-0.21-1.94,0.32c0.06,0.1,0.11,0.18,0.17,0.25c1.46,0.35,3.01,0.93,3.51,1.08
				C14.64,53.03,15.72,53.36,16.77,53.51z"/>
			<path class="st5" d="M11.72,52.8c1.41,0.8,12.52,5.2,13.21,5.09s13.28,1.17,14.16,1.09c0.88-0.08,14.03-0.49,14.52-0.64
				c0.49-0.14,3.49-1.02,4.87-0.79c1.38,0.22,5.36-0.17,6.09-0.42s1.96-1.35,2.38-2.31c0.14-0.33,0.25-0.81,0.34-1.33
				c-0.62-0.49-1.08-0.86-1.08-0.86c-0.09-0.56-1.19-2.56-1.31-2.16c-0.13,0.41-1.9,2.88-2.12,3.1c-0.22,0.23-0.65-0.02-1.3-1.65
				c-0.65-1.63-0.22-0.15-0.99,0.64c-0.77,0.8-2.33,3.42-3.37,1.35c-1.04-2.07-1.86-3.51-2.1-1.88c-0.25,1.63-2.82,2.75-3.71,2.83
				c-0.88,0.08-1.5,0.25-2.02-0.95c-0.52-1.2-0.61-0.22-0.82,0.45c-0.21,0.68-1.47,1.2-2.57,1.13c-1.1-0.08-3.03-2.84-3.03-2.84
				s0.86,1.7,0.36,2.21c-0.49,0.51-2.68,1.63-3.43,0.99c-0.75-0.65-2.06-1.2-2.06-1.2s0.79,0.9-0.82,1.29
				c-1.6,0.39-4.04,0.02-4.45-0.56c-0.33-0.46-1.65-1.88-2.16-2.42c0.26,0.32,0.62,0.93,0.08,1.48c-0.77,0.77-3.47,0.76-3.47,0.76
				l-0.06-1.92c0,0-0.29,0.95-0.56,1.31c-0.26,0.36-1.48,0.37-1.48,0.37l-0.77-1.54c0,0-0.15,1.82-1.32,1.75
				c-1.17-0.07-3.24-1.01-3.24-1.01s-1.68-0.49-2.74-0.64c-1.05-0.15-2.13-0.49-3.14-0.77c-0.5-0.14-2.06-0.72-3.51-1.08
				C10.34,51.99,10.56,52.15,11.72,52.8z"/>
		</g>
	</g>
</g>
</svg>
