<?xml version="1.0" encoding="utf-8"?>
<!-- Generator: Adobe Illustrator 23.1.1, SVG Export Plug-In . SVG Version: 6.00 Build 0)  -->
<svg version="1.1" id="Layer_1" xmlns="http://www.w3.org/2000/svg" xmlns:xlink="http://www.w3.org/1999/xlink" x="0px" y="0px"
	 viewBox="0 0 108 108" style="enable-background:new 0 0 108 108;" xml:space="preserve">
<style type="text/css">
	.st0{fill:#9BBD62;}
	.st1{fill:#76AF42;}
	.st2{fill:#ADC260;}
</style>
<g>
	<path class="st0" d="M65.89,37.8c0,0-0.01-2.97,4.08-4.18s4.58,0.55,4.58,0.55l-2.34,0.22c0,0-6.06,2.12-5.66,3.77
		c0.4,1.64-1.58,0.77-1.58,0.77L65.89,37.8z"/>
	<polygon class="st0" points="38.58,40.86 43.54,40.45 44.01,39.36 36.93,39.69 36.4,40.45 	"/>
	<path class="st0" d="M32.27,54.01c0,0,0.98,1.23,0.75,5.08s0.45,6.3,0.45,6.3l0.75-0.95v-6.91l-1.35-4.51L32.27,54.01z"/>
	<path class="st0" d="M50.44,23.59c0,0-0.23,3.3,0,4.58s1.09,2.33,1.09,2.33l0.94-0.77c0,0-2-3.13-1.68-3.51
		c0.33-0.38,0.74-2.1,0.74-2.1L50.44,23.59z"/>
	<path class="st0" d="M67.43,40.1c0,0-1.23,0.7,0,1.14c1.23,0.44,2.55,1.14,2.55,0.44c0-0.7-0.44-1.76-0.7-2.11
		s-1.32-0.55-2.72-1.42s-2.19-0.78-3.07-0.69c-0.88,0.09-2.63,0.69-2.63,0.69l-0.88,0.89L64,38.78c0,0,1.23,0.18,1.58,0.26
		C65.93,39.13,67.43,40.1,67.43,40.1z"/>
	<path class="st1" d="M75.5,73.36c-0.61-0.7-4.39-14.31-5.53-17.73c-0.65-1.95-0.98-7.83-1.15-12.55c-0.33-0.06-0.6-0.09-0.6-0.09
		s-1.67,3.16-1.67,4.65c0,1.49,2.72,15.18,2.72,16.32c0,1.14,3.95,14.39,5.53,15.97c1.58,1.58,5.04,4.04,6.58,3.95
		c0.51-0.03,0.89-0.1,1.17-0.2C78.86,80.45,76.05,73.98,75.5,73.36z"/>
	<path class="st0" d="M82.92,82.75c-0.4-0.61-3.12-5.79-3.39-7.2c-0.26-1.4-3.95-12.64-4.12-13.25c-0.18-0.61-4.04-15.18-4.3-16.06
		c-0.26-0.88-1.05-2.55-1.23-2.81c-0.1-0.15-0.63-0.27-1.07-0.35c0.17,4.72,0.51,10.6,1.15,12.55c1.14,3.42,4.91,17.03,5.53,17.73
		c0.54,0.62,3.36,7.09,7.05,10.33C83.1,83.49,83.19,83.16,82.92,82.75z"/>
	<path class="st1" d="M33.68,61.29c0,0-0.63-1.76,0.62-2.02c1.26-0.25,2.02-0.61,3.15-0.35c1.13,0.26,1.75,0.26,1.75,0.26
		s-0.36,0.11,0.01,1.16c0.37,1.05,2.28,4.08,2.28,4.08s-1.34,0.1-1.71,0.55c-0.36,0.44-0.61-0.31-1.05,0.87
		c-0.44,1.18-1.5,3.97-1.52,4.42s-0.32,1.18-0.36,1.66c-0.04,0.48-0.13,1.31-0.13,1.31s-1.22-0.83-1.43-1.39
		c-0.21-0.56-2.97-3.51-3.96-3.95c-1-0.44-2.78-0.67-3.22-0.4c-0.45,0.27-0.6,0.77-0.88,0.63c-0.28-0.13-0.4-0.03-0.11-1.12
		s0.92-3.11,0.62-4.34c-0.3-1.22-0.36-1.32-0.55-1.59c-0.19-0.27,0.22,0.17,1.08-0.28c0.87-0.46,1.43-1.41,2.17-1.3
		s0.81,0,1.38,0.22c0.57,0.22,0.71,0.78,1.02,0.96C33.14,60.85,33.68,61.29,33.68,61.29z"/>
	<path class="st1" d="M50.42,24.67c0,0,0.72,1.63-0.45,1.95c-1.17,0.33-1.87,0.71-2.96,0.55c-1.09-0.17-1.67-0.12-1.67-0.12
		s0.34-0.13-0.09-1.1c-0.42-0.96-2.45-3.7-2.45-3.7s1.26-0.19,1.58-0.64c0.31-0.45,0.6,0.25,0.93-0.89
		c0.34-1.14,1.14-3.87,1.13-4.29c-0.01-0.42,0.22-1.14,0.23-1.6c0.01-0.46,0.03-1.25,0.03-1.25s1.21,0.7,1.45,1.22
		c0.24,0.52,3.06,3.11,4.03,3.46c0.97,0.34,2.68,0.44,3.08,0.16c0.4-0.29,0.51-0.77,0.78-0.66s0.38,0,0.18,1.05
		c-0.2,1.05-0.65,3.01-0.28,4.15c0.37,1.14,0.44,1.22,0.63,1.46c0.2,0.24-0.22-0.15-1.01,0.34s-1.26,1.44-1.96,1.38
		c-0.7-0.06-0.77,0.06-1.32-0.11c-0.55-0.17-0.73-0.69-1.03-0.84S50.42,24.67,50.42,24.67z"/>
	<path class="st0" d="M38.08,37.7c-0.48,0.6-0.38,1.27-0.41,2.26c-0.03,0.99,0.15,1.79,0.03,2.29c-0.12,0.5-0.67,0.97-1.2,1.97
		c-0.53,1-1.08,1.84-1.08,1.84s-1.5-1.64-3.06-1.37c-1.56,0.27-2.96,0.96-3.26,1.1s-0.01-2.71-0.1-3.6
		c-0.09-0.89-1.4-1.87-1.64-2.08c-0.24-0.2-4.64-3.23-4.64-3.23s3.25-0.63,4.45-0.96c1.2-0.33,4.32-2.58,4.55-4.11
		c0.23-1.53-0.09-3.08-0.09-3.08s1.91,2.26,2.65,2.67c0.75,0.41,3.33,1.12,3.66,1.08c0.33-0.04,1.19-0.81,1.19-0.81
		s-0.27,1.22-0.1,2.05c0.17,0.83,0.15,2.21-0.11,2.84S38.34,37.37,38.08,37.7z"/>
	<path class="st0" d="M70.93,35.62c-0.31-0.7-0.95-0.93-1.81-1.42c-0.86-0.49-1.65-0.71-2.04-1.04c-0.39-0.34-0.55-1.05-1.18-1.98
		c-0.64-0.93-1.13-1.82-1.13-1.82s2.15-0.56,2.64-2.06c0.5-1.51,0.54-3.06,0.55-3.4c0.01-0.33,2.4,1.26,3.23,1.6
		c0.83,0.34,2.31-0.36,2.6-0.48c0.29-0.12,5.03-2.59,5.03-2.59s-0.96,3.16-1.23,4.38c-0.27,1.22,0.26,5.03,1.51,5.94
		c1.24,0.91,2.76,1.36,2.76,1.36s-2.89,0.63-3.6,1.1s-2.55,2.42-2.67,2.73c-0.12,0.31,0.16,1.43,0.16,1.43s-0.95-0.81-1.76-1.04
		c-0.81-0.23-2.03-0.9-2.46-1.43C71.09,36.36,71.1,36,70.93,35.62z"/>
	<path class="st0" d="M46.66,85.18c0.18-0.53-0.09-11.32,0-12.73c0.09-1.4,1.14-7.46,1.43-8.07c0.29-0.61-0.55-9.3-0.64-11.23
		c-0.06-1.4-0.04-7.2-0.01-10.31c-0.37,0.67-0.94,1.66-1.21,2.06c-0.44,0.61-1.23,2.81-1.4,3.69s0,2.37,0,3.34s0.35,4.83,0.35,5.27
		c0,0.44-1.14,3.25-1.32,4.21s-0.26,4.04,0,5c0.26,0.97,0.7,4.12,0.7,5.09c0,0.97-0.95,4.74-0.87,5.18c0.08,0.44-0.35,3.95,0,4.65
		c0.35,0.7,0.79,2.98,0.87,3.34c0.09,0.35,0.7,2.55,0.7,3.16c0,0.61,0.42,2.37,0.42,2.37s0.46-0.68,1.05-1.58
		C46.7,87.41,46.53,85.56,46.66,85.18z"/>
	<path class="st1" d="M49.91,78.33c0-0.7-0.09-5.18,0-6.49c0.09-1.32,0.88-5.79,0.88-7.02c0-1.23-0.44-5.62-0.44-6.32
		s0.53-2.28,0.44-2.63c-0.09-0.35-0.35-8.07-0.35-8.86s-0.44-1.93-0.79-2.55c-0.35-0.61-1.84-2.28-1.84-2.28s-0.15,0.28-0.37,0.67
		c-0.02,3.1-0.05,8.91,0.01,10.31c0.09,1.93,0.93,10.62,0.64,11.23c-0.29,0.61-1.34,6.67-1.43,8.07c-0.09,1.4,0.18,12.2,0,12.73
		c-0.13,0.38,0.04,2.23,0.06,3.42c0.87-1.33,2.03-3.13,2.4-3.86C49.73,83.51,49.91,79.04,49.91,78.33z"/>
	<g>
		<path class="st0" d="M59.58,64.48c0.7-2.9,0-11.15,0-11.46c0-0.32-0.88-12.15-0.92-13.9c-0.04-1.76,0-8.09,0-8.09
			c-0.49,0.92-1.08,2.13-1.28,3C57.04,35.61,58,45.79,58,45.79s-1.03,22.2-0.69,22.73c0.34,0.53,0.52,2.98,0.43,3.6
			s0.35,1.58,0,2.19c-0.35,0.61-0.47,1.14-0.5,1.49c-0.01,0.15,0.11,0.31,0.28,0.41c0.34-0.77,0.98-2.27,1.13-3.04
			C58.86,72.12,58.88,67.38,59.58,64.48z"/>
		<path class="st1" d="M58.33,76.07c0.38-0.53,2.84-5.18,3.01-5.7c0.18-0.53,1.84-13.87,2.11-16.06c0.26-2.19-2.28-17.11-2.02-17.99
			c0.26-0.88-0.53-3.51-0.53-3.95c0-0.44-1.49-2.63-1.49-2.63s-0.34,0.55-0.74,1.3c0,0-0.04,6.34,0,8.09
			c0.04,1.76,0.92,13.58,0.92,13.9c0,0.32,0.7,8.57,0,11.46c-0.7,2.9-0.72,7.64-0.93,8.69c-0.15,0.77-0.79,2.27-1.13,3.04
			C57.76,76.35,58.1,76.38,58.33,76.07z"/>
	</g>
	<path class="st2" d="M67.87,41.68c0,0-2.02,1.94-2.72,2.11c-0.7,0.17-1.14,0.7-1.14,0.7s2.19-0.44,2.55-0.7
		c0.35-0.27-1.14,1.75-1.14,1.75s1.96-0.76,2.09-1.05c0.13-0.29,0.98-0.88,0.98-0.88s-0.26,1.91,0.88,1.49
		c1.14-0.42,2.81-0.34,3.07-0.61c0.26-0.27,0.88-0.88,0.88-0.88s-2.46,0.09-2.9-0.61s-0.44-1.32-0.44-1.32l-1.32-1.23L67.87,41.68z"
		/>
	<path class="st2" d="M47.05,41.23c0,0-2.28,2.46-3.42,2.46c-1.14,0-1.05,1.23,0,0.97c1.05-0.26,2.62-0.97,2.62-0.97
		s-1.65,0.75-0.86,1s1.29,0.36,1.67,0s0.88-1.61,0.88-1.61s-0.53,1.22,0.88,1.31c1.4,0.09,2.72-0.18,2.72-0.18s-1.38-0.43-1.66-1.14
		c-0.27-0.71-0.45-1.5-0.45-1.5L47.05,41.23z"/>
	<path class="st0" d="M46.25,39.3c0,0-0.11,0.61,0,1.23c0.11,0.61-0.51,1.93,1.33,1.49c1.84-0.44,1.49-0.97,1.4-1.32
		s-0.88-0.79-0.97-1.4c-0.09-0.61-0.38-2.56-0.38-2.56s-0.49-0.69,0.47-1.57c0.97-0.88,6.67-7.02,7.02-7.2
		c0.35-0.18,1.05-0.53,1.49-0.35s1.67,0.35,1.84,1.14c0.18,0.79-0.09,1.32,0.44,1.49s1.72,0.88,1.91,0c0.2-0.88,0.02-1.4-0.59-2.02
		s-2.02-2.36-2.98-2.36s-1.93,0.78-1.93,0.78s-0.89,0.26-1.76,1.05c-0.87,0.79-7.72,8.43-7.72,8.43L36.35,48.6l-9.22,9.65l1.49,0.61
		l8.34-9.3l6.41-7.99l1.76-2.28l1.12-1.32V39.3z"/>
	<path class="st2" d="M58.2,29.41c0,0-0.88,0.7-1.58,0.61s-1.84-0.97-0.7-0.09c1.14,0.88,1.14,0.88,1.14,0.88s0.48,0.26-0.24,0.61
		s-1.95,0.53-1.95,0.53s1.14,1.05,2.19,0.7c1.05-0.35,1.67-1.59,1.67-1.59s-0.16,1.29,0.4,1.66c0.56,0.37,1.88,0.81,2.41,0.37
		c0.53-0.44,0-2.63,0-2.63l2.39,0.97c0,0-2.39-2.02-2.56-2.02c-0.18,0-1.23-0.35-1.23-0.35s-0.42-0.7-0.74-0.53
		S58.2,29.41,58.2,29.41z"/>
</g>
</svg>
