<?xml version="1.0" encoding="utf-8"?>
<!-- Generator: Adobe Illustrator 23.1.1, SVG Export Plug-In . SVG Version: 6.00 Build 0)  -->
<svg version="1.1" id="Layer_1" xmlns="http://www.w3.org/2000/svg" xmlns:xlink="http://www.w3.org/1999/xlink" x="0px" y="0px"
	 viewBox="0 0 108 108" style="enable-background:new 0 0 108 108;" xml:space="preserve">
<style type="text/css">
	.st0{fill:#A5C239;}
	.st1{fill:#A4C839;}
	.st2{fill:#567E39;}
	.st3{fill:#92B83F;}
	.st4{fill:#A5BE3B;}
	.st5{fill:#457F3C;}
	.st6{fill:#3D7639;}
	.st7{fill:#73A174;}
	.st8{fill:#6D973F;}
	.st9{fill:#CE2028;}
	.st10{fill:#F26F24;}
	.st11{fill:#DC7B5F;}
	.st12{fill:#8A1A1C;}
	.st13{fill:#F6968B;}
	.st14{fill:#5B823A;}
	.st15{fill:none;stroke:#231F20;stroke-width:0.3233;stroke-miterlimit:10;}
	.st16{fill:#5D853B;}
	.st17{fill:#F16D60;}
</style>
<g>
	<path class="st0" d="M58.59,48.91c1.15,1.77,2.29,1.74,0.6,6.52c-1.69,4.78-1.69,4.78-1.69,4.78s-0.96-0.45-2.06-0.96
		c-1.11-0.5-5.48-1.9-5.49-5.76s0.43-6.17,0.68-6.89c0.26-0.72,0.61-3.31,0.74-3.96"/>
	<path class="st1" d="M32.08,28.12c2.02,1.86,6.22,0.97,8.38,4.05c2.15,3.08,1.98,8.7,2.14,10.4c0.16,1.7,1.57,1.5-1.17,0.56
		c-2.75-0.94-3.24-0.08-5.4-1.51c-2.16-1.43-4.15-6.16-3.84-7.71C32.49,32.37,32.08,28.12,32.08,28.12z"/>
	<path class="st2" d="M66.9,61.09c0.88,0.13,1.75,1,5.98,1.7s7.64,0.75,8.86-2.37c1.23-3.12,0.28-3.93,2.42-5.78
		s2.14-1.85,2.14-1.85s-3.63-0.66-8.73-1.3s-8.26,4.16-9.21,6.23C67.41,59.79,66.9,61.09,66.9,61.09z"/>
	<path class="st3" d="M37.52,49.61c0,0-4.64-3.47-7.56-4.32s-4.61-0.96-6.33,0.93c-1.72,1.89-3.2,2.7-3.2,2.7s3.73,1.8,4.73,3.18
		s4.02,2.64,5.56,1.6C32.25,52.66,37.52,49.61,37.52,49.61z"/>
	<path class="st4" d="M65.57,31.75c0.03-0.05-1.65-2.38-4.15-4.37c-2.5-1.99-3.96-2.87-5.85-2.18s-3.48,1.67-5.19,2.77
		c-1.72,1.1-2.21,1.68-2.92,1.44c-0.71-0.24,1.12-0.06,3.63,2.51s3.44,4.26,5.27,4.05c1.83-0.21,2.9-2.03,4.79-2.85
		C63.04,32.31,65.57,31.75,65.57,31.75z"/>
	<g>
		<g>
			<path class="st5" d="M83.9,39.83c0.16-1.43,0.71-7.04,0.71-7.04l1.67-0.88c0,0,0.34-0.31,0.8-0.73
				c-0.34-1.29-0.84-2.45-1.67-2.94c-1.35-0.79-4.45-1.91-5.64-1.91c-1.19,0-3.22,0-3.22,0l-3.85,0.56c0,0-3.89,0.32-4.68,0.79
				c-0.29,0.18-0.7,0.4-1.09,0.65l0.54,0.54c0,0,2.14-0.16,2.38,0c0.24,0.16,1.03,0.83,1.03,0.83l-2.54-0.03
				c0,0-1.35,0.63-1.59,0.79c-0.1,0.07-0.61,0.45-1.2,0.89c0,0.11,0.01,0.23,0.01,0.36c0.52-0.24,1.1-0.42,1.66-0.53
				c1.27-0.24,3.25-0.4,3.65,0c0.4,0.4,0.08,0.4,1.19,0.8c1.11,0.39,1.62,0.34,2.76-0.11c1.13-0.45,1.09-0.92,2.9-1.24
				c1.81-0.32,3.4,0,3.4,0s-1.19,0.92-1.99,1.01c-0.79,0.1-1.77-0.06-1.76,0.81c0.01,0.87,1.36,1.35,1.76,1.35
				c0.4,0,0.64,0.71-0.24,0.87s-3.02-0.16-3.57,0c-0.56,0.16-0.4-1.43-0.52,1.11c-0.12,2.54-0.28,3.25,0.52,5.24
				c0.79,1.98,1.59,2.11,1.59,3.75c0,1.64-0.87,1.72-1.19,1.72c-0.32,0-0.4,0.64-0.91,0c-0.52-0.64-1.55-1.54-1.79-1.72
				c-0.24-0.18-0.56-0.02,0,0.85c0.56,0.87,1.51,2.54,2.94,2.46c1.43-0.08,2.46-0.16,3.41-0.32c0.56-0.09,1.9-0.9,2.79-1
				c0.29-0.37,0.58-0.78,0.85-1.2C82.97,45.61,83.74,41.25,83.9,39.83z"/>
			<path class="st6" d="M68.34,29.67l2.54,0.03c0,0-0.79-0.67-1.03-0.83c-0.24-0.16-2.38,0-2.38,0l-0.54-0.54
				c-0.68,0.42-1.34,0.91-1.38,1.34c-0.02,0.22-0.02,0.85,0.01,1.67c0.59-0.44,1.1-0.82,1.2-0.89
				C66.99,30.3,68.34,29.67,68.34,29.67z"/>
			<path class="st6" d="M75.96,48.08c-1.43,0.08-2.38-1.59-2.94-2.46c-0.56-0.87-0.24-1.03,0-0.85c0.24,0.18,1.27,1.09,1.79,1.72
				c0.52,0.64,0.59,0,0.91,0c0.32,0,1.19-0.08,1.19-1.72c0-1.64-0.79-1.77-1.59-3.75c-0.79-1.98-0.64-2.7-0.52-5.24
				c0.12-2.54-0.04-0.95,0.52-1.11c0.56-0.16,2.7,0.16,3.57,0s0.64-0.87,0.24-0.87c-0.4,0-1.75-0.48-1.76-1.35
				c-0.01-0.87,0.97-0.71,1.76-0.81c0.79-0.1,1.99-1.01,1.99-1.01s-1.59-0.32-3.4,0c-1.81,0.32-1.76,0.79-2.9,1.24
				c-1.13,0.45-1.65,0.5-2.76,0.11c-1.11-0.39-0.79-0.4-1.19-0.8c-0.4-0.4-2.38-0.24-3.65,0c-0.56,0.11-1.14,0.29-1.66,0.53
				c0.06,1.76,0.22,4.15,0.47,5.27c0.4,1.75,4.13,9.21,5.56,10.24c1.43,1.03,3.18,2.4,5.08,2.15c1.91-0.25,3.18-0.57,4.45-1.52
				c0.34-0.25,0.69-0.63,1.04-1.08c-0.89,0.09-2.22,0.9-2.79,1C78.42,47.92,77.39,48,75.96,48.08z"/>
			<path class="st7" d="M87.55,33.56c-0.12-0.75-0.26-1.59-0.47-2.37c-0.46,0.42-0.8,0.73-0.8,0.73l-1.67,0.88
				c0,0-0.56,5.61-0.71,7.04c-0.16,1.42-0.92,5.78-0.89,5.74c0.65-0.99,1.23-2.03,1.6-2.65C85.33,41.73,87.87,35.54,87.55,33.56z"/>
			<path class="st7" d="M82.15,29.09c0,0,1.43,0.69,1.51,1.39c0.08,0.7,0.08,1.09,0.64,0.93c0.56-0.16,1.59-0.28,1.43-0.93
				c-0.16-0.65-0.71-1.68-1.35-1.84c-0.64-0.16-1.37,0-1.37,0L82.15,29.09z"/>
			<path class="st7" d="M81.67,31.91c0,0.14,0.4,1.46,0.95,0.88s0.6-0.83,0.38-1.34s-0.7-1.43-0.86-0.97S81.67,31.91,81.67,31.91z"
				/>
		</g>
		<path class="st8" d="M46.46,67.48c0.48-0.32,8.41-6.43,10.16-7.54c1.75-1.11,5.87-5.56,5.87-5.56s1.27-7.07,1.27-8.41
			c0-1.35-0.87-15.8-0.64-16.59c0.24-0.79,0.95-4.92,1.98-5.95c1.03-1.03,3.57-2.22,5.24-1.91c1.67,0.32,3.18,1.59,3.89,2.54
			c0.71,0.95,1.27,3.1,1.59,3.57c0.32,0.48,1.24,0.56,1.65,0.71c0.41,0.16,0.48,0.71,0.09,1.03c-0.39,0.32-1.74,0.64-2.65,0.87
			c-0.91,0.24-1.39,0.4-1.95,0.32c-0.56-0.08-0.95-0.08-0.79-0.48c0.16-0.4,0.87-0.95,0.48-1.83c-0.4-0.87,0.16-3.14-1.75-3.75
			c-1.91-0.61-1.51-0.47-2.54-0.1c-1.03,0.37-2.46,1.64-2.46,2.27s-0.71,7.78-0.79,8.57s0.32,10.56,0.24,11.43
			c-0.08,0.87-0.24,4.21-0.24,4.76c0,0.56,0.48,1.91,0.56,2.38c0.08,0.48,0,2.38-0.32,2.62c-0.32,0.24-1.59,0.64-1.91,0.71
			s-8.02,6.38-8.81,6.8s-4.33,3.68-4.83,4.07C49.32,68.44,46.46,67.48,46.46,67.48z"/>
		<g>
			<path class="st9" d="M27.5,56.35c1.04-1.13,3.17-0.97,5.09-0.51c1.93,0.46,1.33,0.41,1.62,0.33c0.29-0.08,1.02-0.06,1.52-0.16
				c0.49-0.1,0.59,0.39,0.78,0.16c0.18-0.23,1.23-0.08,1.23-0.08l-0.5,0.91c0,0,0.79-0.04,1.06-0.05c0.27-0.01,1.26,0.12,1.49,0.17
				c0.23,0.05,1-0.06,1.44-0.31c0.44-0.25,0.86-0.23,1.7-0.06c0.84,0.17,2.11,0.23,3.49,0.72c1.38,0.49,3.22,1.4,3.55,2.41
				c0.03,0.08,0.05,0.22,0.06,0.4c-0.36,0.12-0.73,0.27-1.12,0.46c-1.57,0.76-3.07,1.8-3.15,3.87c-0.09,2.07-0.89,6.63-1.1,7.66
				c-0.21,1.04-0.78,3.14-1.07,4.57c-0.29,1.42-1,2.91-1.56,3.66c-0.27,0.36-0.88,0.56-1.27,0.78c-0.21,0.01-0.41,0.04-0.59,0.08
				c-0.99,0.24-2.52-0.55-3.82-0.79c-1.3-0.24-2.25-0.56-2.71-0.59c-0.09-0.01-0.21-0.02-0.35-0.05c-0.7-0.76-1.5-1.81-1.64-2.72
				c-0.26-1.67-1.49-9.48-1.49-9.48l-1.18-3.95c0,0,0.31,10.49,1.01,12.34c0.59,1.54,1.49,2.93,1.97,3.53
				c-0.29-0.07-0.57-0.13-0.77-0.17c-0.65-0.13-4-3.52-4.31-4c-0.31-0.48-1.47-9.26-1.72-11.33C24.91,62.08,26.46,57.48,27.5,56.35z
				"/>
			<path class="st10" d="M29.98,76.13c-0.7-1.84-1.01-12.34-1.01-12.34l1.18,3.95c0,0,1.23,7.81,1.49,9.48
				c0.14,0.91,0.94,1.96,1.64,2.72c-0.37-0.06-0.88-0.18-1.34-0.29C31.47,79.07,30.57,77.68,29.98,76.13z"/>
			<path class="st11" d="M41.72,60.27c0,0-2.52,4.81-2.77,6.04c-0.25,1.23-0.56,9.8-0.61,10.46S38,78.8,38.3,79
				c0.3,0.2,1.54,0.38,2-0.2c0.46-0.58,2.02-4.91,2.16-6.91s0.29-6.35,0.47-7.86S41.72,60.27,41.72,60.27z"/>
			<path class="st12" d="M42.06,80.37c0.56-0.75,1.27-2.24,1.56-3.66s0.86-3.53,1.07-4.57c0.21-1.04,1.01-5.59,1.1-7.66
				s1.58-3.11,3.15-3.87c0.38-0.19,0.76-0.34,1.12-0.46c0.21,2.15-0.15,10.88-0.64,13.57c-0.53,2.93-3.63,5.86-5.23,6.75
				c-1.3,0.72-2.48,0.62-3.41,0.68C41.18,80.92,41.8,80.72,42.06,80.37z"/>
			<path class="st13" d="M31.04,57.48l-0.87,2.25c0,0-1.07-0.36-1.88-0.39s-0.92-1-0.75-1.37c0.17-0.37,1.17-1.31,1.17-1.31
				L31.04,57.48z"/>
			<path class="st13" d="M39.42,57.85c0,0-2.46,0.03-2.95-0.2c-0.49-0.24-0.81-0.84-1.62-0.74c-0.81,0.1-2.33,0.26-2.61,0.95
				c-0.28,0.69-1.24,1.77-0.4,1.94c0.84,0.17,0.93-0.26,1.88-0.31c0.95-0.05,0.4,0.17,0.43,0.78c0.03,0.61-0.68,2.76,0.29,1.95
				s0.95-1.65,1.29-2.34c0.34-0.69,0.61-1.72,1.22-1.53c0.61,0.19,1.66,0.68,1.98,0.41C39.27,58.49,39.42,57.85,39.42,57.85z"/>
			<path class="st13" d="M45.17,58.95c-0.06-0.01-1.23,0.09-1.59,0.22c-0.36,0.13-0.25-1.06-0.25-1.06s1.3-0.07,1.62,0
				C45.27,58.17,45.17,58.95,45.17,58.95z"/>
		</g>
		<path class="st14" d="M66.95,53.35c0,0,1.83-0.4,1.98-1.75c0.16-1.35-0.95-6.35-1.98-7.22c-1.03-0.87-4.92-3.18-6.75-3.33
			c-1.83-0.16-11.75,1.27-13.73,1.98c-1.98,0.71-6.03,2.78-6.75,3.73c-0.71,0.95-1.98,1.91-2.06,3.65c-0.08,1.75-0.56,4.37,0,4.6
			c0.56,0.24-0.14,1.27,0.88,1.35s2.22-0.48,2.06,0.32c-0.16,0.79,0.32,1.75-1.03,2.14c-1.35,0.4-4.21,1.59-4.52,0.79
			s-0.64-1.11-0.32-1.91c0.32-0.79,1.19-1.75,1.27-2.54c0.08-0.79-0.71-3.71-0.56-4.71c0.16-1,2.32-5,3.1-5.66
			c0.79-0.66,4.83-2.56,7.93-3.44c3.1-0.87,9.05-2.62,10.56-2.46s7.62,2.3,8.57,2.7s4.21,3.02,4.68,5.32s0.48,4.05,0,5.32
			c-0.48,1.27-1.11,2.22-1.75,2.54c-0.64,0.32-1.35,0.71-1.59,0.4C66.71,54.86,66.95,53.35,66.95,53.35z"/>
		<g>
			<path class="st15" d="M86.4,85"/>
			<path class="st16" d="M64.69,52.37c-0.33,0.04-1.79,0.08-2.02,0.91c-0.23,0.83-0.13,1.68,0.26,2.16c0.39,0.48,1.33,0.5,1.51,1.48
				c0.18,0.98,1.11,8.65,1.13,9.31C65.58,66.9,65.9,69,65.9,69s3.21,1.21,3.5,0.84c0.29-0.37-0.71-2.58-0.41-3.34
				c0.31-0.77-1.68-9.98-1.65-10.31c0.03-0.34,0.32-1.84,0.22-2.36C67.46,53.3,64.69,52.37,64.69,52.37z"/>
			<path class="st9" d="M78.68,66.91c-0.95-1.22-3.08-1.22-5.04-0.92c-1.96,0.3-1.36,0.3-1.64,0.2c-0.28-0.1-1.02-0.14-1.5-0.28
				c-0.48-0.14-0.62,0.34-0.79,0.1c-0.16-0.25-1.22-0.18-1.22-0.18l0.42,0.95c0,0-0.79-0.1-1.06-0.14c-0.27-0.03-1.26,0.02-1.5,0.05
				s-1-0.14-1.41-0.43c-0.42-0.28-0.83-0.3-1.69-0.19c-0.85,0.1-2.12,0.06-3.54,0.43c-1.42,0.37-3.32,1.13-3.74,2.12
				c-0.03,0.08-0.07,0.22-0.1,0.4c0.35,0.15,0.71,0.33,1.08,0.55c1.5,0.88,2.91,2.04,2.83,4.12s0.34,6.68,0.47,7.73
				c0.13,1.05,0.52,3.2,0.7,4.64c0.17,1.44,0.76,2.98,1.26,3.77c0.24,0.38,0.83,0.63,1.21,0.89c0.21,0.03,0.4,0.07,0.58,0.13
				c0.97,0.32,2.55-0.34,3.87-0.47c1.32-0.13,2.28-0.37,2.75-0.36c0.09,0,0.21-0.01,0.36-0.02c0.76-0.7,1.64-1.68,1.86-2.58
				c0.4-1.65,2.26-9.32,2.26-9.32l1.5-3.84c0,0-1.16,10.43-2.01,12.21c-0.71,1.49-1.73,2.8-2.25,3.36c0.3-0.04,0.57-0.08,0.78-0.11
				c0.66-0.08,4.27-3.18,4.62-3.63c0.34-0.45,2.22-9.11,2.64-11.16C80.8,72.85,79.63,68.13,78.68,66.91z"/>
			<path class="st10" d="M74.59,86.43c0.85-1.78,2.01-12.21,2.01-12.21l-1.5,3.84c0,0-1.86,7.68-2.26,9.32
				c-0.22,0.9-1.1,1.88-1.86,2.58c0.37-0.03,0.89-0.11,1.36-0.18C72.86,89.23,73.88,87.92,74.59,86.43z"/>
			<path class="st17" d="M64.19,69.67c0,0,2.12,5,2.27,6.25c0.15,1.25-0.24,9.81-0.24,10.48c0,0.67,0.16,2.04-0.15,2.21
				c-0.31,0.17-1.57,0.26-1.97-0.36c-0.41-0.62-1.61-5.06-1.59-7.06s0.23-6.35,0.18-7.87C62.63,71.79,64.19,69.67,64.19,69.67z"/>
			<path class="st12" d="M62.21,89.66c-0.5-0.8-1.08-2.33-1.26-3.77c-0.17-1.44-0.57-3.59-0.7-4.64c-0.13-1.05-0.55-5.66-0.47-7.73
				c0.08-2.07-1.32-3.23-2.83-4.12c-0.37-0.22-0.73-0.4-1.08-0.55c-0.38,2.12-0.74,10.85-0.47,13.58c0.29,2.96,3.14,6.14,4.66,7.15
				c1.24,0.83,2.42,0.82,3.34,0.96C63.04,90.29,62.44,90.04,62.21,89.66z"/>
			<path class="st13" d="M75.06,67.75l0.68,2.31c0,0,1.1-0.27,1.9-0.23s1-0.92,0.86-1.3c-0.14-0.38-1.06-1.4-1.06-1.4L75.06,67.75z"
				/>
			<path class="st13" d="M66.67,67.44c0,0,2.45,0.24,2.96,0.04s0.87-0.77,1.67-0.6c0.8,0.17,2.3,0.45,2.52,1.16
				c0.22,0.71,1.09,1.86,0.24,1.97c-0.85,0.1-0.91-0.33-1.85-0.46c-0.95-0.13-0.42,0.14-0.49,0.75c-0.08,0.61,0.46,2.81-0.45,1.92
				s-0.81-1.72-1.09-2.44c-0.29-0.72-0.46-1.76-1.09-1.62c-0.62,0.14-1.71,0.54-2.01,0.24C66.78,68.09,66.67,67.44,66.67,67.44z"/>
			<path class="st13" d="M60.86,68.07c0.06,0,1.22,0.19,1.57,0.35c0.35,0.16,0.34-1.04,0.34-1.04s-1.29-0.18-1.61-0.14
				C60.82,67.28,60.86,68.07,60.86,68.07z"/>
		</g>
	</g>
</g>
</svg>
