<?xml version="1.0" encoding="utf-8"?>
<!-- Generator: Adobe Illustrator 23.1.1, SVG Export Plug-In . SVG Version: 6.00 Build 0)  -->
<svg version="1.1" id="Layer_1" xmlns="http://www.w3.org/2000/svg" xmlns:xlink="http://www.w3.org/1999/xlink" x="0px" y="0px"
	 viewBox="0 0 108 108" style="enable-background:new 0 0 108 108;" xml:space="preserve">
<style type="text/css">
	.st0{fill:#6E552F;}
	.st1{fill:#7F7054;}
	.st2{fill:#B89876;}
	.st3{fill:none;stroke:#718537;stroke-width:0.5731;stroke-miterlimit:10;}
	.st4{fill:#84B541;}
	.st5{fill:#A4C839;}
	.st6{fill:#91BB3E;}
	.st7{fill:#AFCB36;}
	.st8{fill:#92B83F;}
	.st9{fill:#A5BE3B;}
	.st10{fill:none;stroke:#718537;stroke-width:0.6497;stroke-miterlimit:10;}
	.st11{fill:none;stroke:#718537;stroke-width:0.6912;stroke-miterlimit:10;}
	.st12{fill:#A5C239;}
	.st13{fill:#AE9D81;}
	.st14{fill:#9E8D65;}
	.st15{fill:#DCC88C;}
	.st16{fill:#BFA97A;}
	.st17{fill:#A76F60;}
	.st18{fill:#955B50;}
</style>
<g>
	<g>
		<path class="st0" d="M53.97,48.26c1.74-0.83-0.09,3.09,2.17,1.98c1.36-0.67,2.91-2.33,3.6-2.25c0.69,0.08,1.81,2.7,3.41,4.3
			s1.78,1.27,3.79,3.69c2.01,2.43-1.99,2.54-3.48,2.86c-1.49,0.32-1.52-0.17-2.07-0.6c-0.54-0.42-3.79-0.97-3.79-0.97
			s-1.34,0.15-3.97,0.03s0,0-0.75,2.03s-2.06,1.79-4.3,2.16c-2.24,0.36-1.25-2.57-3.17-4.18c-1.92-1.6-2.24,1.8-4.79,1.92
			c-2.55,0.12-0.44-1.22-1.18-2.92s-1.63-0.83-4.58,0.21c-2.95,1.04,0.48-1.77,0.48-1.77l0.2-2.54c0,0,0.09-1.82,4.16-2.72
			s10.9-0.77,10.9-0.77L53.97,48.26z"/>
		<path class="st1" d="M42.26,51.72c-2.41,0.68-3.51,1.1-3.81,2.28c-0.3,1.18-0.61,1.64-1.46,1.94s-1.55,1.07-1.32,1.45
			c0.22,0.38,1.56,0.68,2.22,0.2c0.67-0.48,0.4-0.65,0.72-0.03s1.66,1.36,1.66,1.36s1.45-0.53,1.13,0.45
			c-0.32,0.97-0.87,0.11-1.05,1.1s0.47,4.09,2,4.13s4.8-0.77,6.29-1.65c1.49-0.88,2.94-1.33,4.61-0.81c1.67,0.52,1.8-1.33,3.32-0.94
			s3.23,0.15,4.2,0.02c0.97-0.13,1.78-1.54,1.78-1.54s1.94-1.91,0.75-3.28c-1.2-1.37-4-2.95-4.41-3.47
			c-0.42-0.52-4.82-2.14-5.27-2.09s-3.87-1.85-4.67-1.75c-0.79,0.1-1,0.28-2.2,0.46S42.26,51.72,42.26,51.72z"/>
		<path class="st2" d="M51.67,48.06"/>
	</g>
	<g>
		<path class="st3" d="M54.87,38.56c-1.04,0.89-2.6,2.86-3.71,4.26"/>
		<path class="st3" d="M51.21,36.87c0.58,1.86,0.78,4.69,0.13,6.7"/>
		<path class="st3" d="M48.06,38.63c2.07,0.97,4.03,1.56,3.33,3.96"/>
		<path class="st3" d="M50.26,47.51c0.07,2.75-0.35,5.77-1.37,7.63"/>
		<path class="st3" d="M54.32,49.95c-2.36,1.6-5.24,4.95-5.87,5.6"/>
		<path class="st3" d="M47.71,50.38c1.48,0.97,2.71,1.19,1.59,4.25"/>
		<path class="st4" d="M58.82,39.16c-0.74,0.82-0.56,1.4-3.21,1.21c-2.65-0.19-2.65-0.19-2.65-0.19s0.1-0.55,0.2-1.17
			s0.2-3.03,2.15-3.57c1.95-0.54,3.17-0.64,3.57-0.61c0.4,0.03,1.75-0.15,2.1-0.17"/>
		<path class="st5" d="M51.15,28.87c0.41,1.38,2.54,2.1,2.68,4.06c0.14,1.96-1.44,4.44-1.82,5.25c-0.38,0.81,0.31,1.1-0.68-0.06
			s-1.43-0.9-2.03-2.12c-0.59-1.22-0.22-3.88,0.34-4.49C50.19,30.89,51.15,28.87,51.15,28.87z"/>
		<path class="st6" d="M50.41,39.7c-0.25-0.31-0.28-0.85-1.47-2.36c-1.19-1.5-2.3-2.54-3.64-1.88s-1.27,1.21-2.53,1.18
			s-1.26-0.03-1.26-0.03s1,1.31,2.5,3.05c1.5,1.74,3.97,1.1,4.91,0.71S50.41,39.7,50.41,39.7z"/>
		<path class="st7" d="M51.08,40.49c0,0-0.2,1.3,0.94,2.71c1.14,1.41,1.7,3.5,0.22,4.71c-1.48,1.21-1.91,2.35-1.91,2.35
			s0.23-0.14-0.85-1.28s-1.66-3.55-0.85-5.03C49.44,42.47,51.08,40.49,51.08,40.49z"/>
		<path class="st8" d="M59.83,47.37c0,0-3.28-0.33-4.95,0.11c-1.67,0.44-2.53,0.89-2.81,2.31c-0.29,1.42-0.77,2.26-0.77,2.26
			s2.34-0.22,3.24,0.16s2.73,0.11,3.18-0.85C58.15,50.41,59.83,47.37,59.83,47.37z"/>
		<path class="st9" d="M49.18,51.35c0.02-0.02-0.41-1.46-1.3-2.87c-0.89-1.41-1.47-2.1-2.52-2.08c-1.05,0.02-2.01,0.23-3.04,0.48
			c-1.04,0.25-1.38,0.45-1.69,0.21c-0.31-0.24,0.56,0.16,1.37,1.86s0.97,2.7,1.91,2.91c0.94,0.21,1.78-0.51,2.86-0.59
			C47.84,51.19,49.18,51.35,49.18,51.35z"/>
	</g>
	<g>
		<path class="st10" d="M38.21,40.46c0.03,1.56,0.61,4.34,1.02,6.32"/>
		<path class="st10" d="M34.08,42.42c2.04,0.84,4.65,2.72,5.94,4.74"/>
		<path class="st10" d="M33.34,46.45c2.34-1.1,4.29-2.39,5.87-0.04"/>
		<path class="st10" d="M42.67,50.97c2.45,1.93,4.77,4.49,5.66,6.72"/>
		<path class="st10" d="M47.74,49.18c-0.31,3.22,0.52,8.16,0.63,9.17"/>
		<path class="st10" d="M43.33,55.27c1.92-0.58,3.01-1.5,4.86,1.69"/>
		<path class="st4" d="M41.58,37.45c0.19,1.24,0.81,1.5-1.27,3.67c-2.08,2.17-2.08,2.17-2.08,2.17s-0.41-0.48-0.88-1.02
			s-2.5-2.36-1.56-4.46c0.94-2.09,1.74-3.23,2.05-3.56c0.32-0.33,1.14-1.64,1.37-1.96"/>
		<path class="st5" d="M27.06,36.69c1.5,0.64,3.67-0.69,5.49,0.6c1.81,1.3,2.83,4.47,3.26,5.39s1.18,0.53-0.55,0.54
			c-1.72,0.02-1.82,0.6-3.32,0.23c-1.49-0.37-3.54-2.62-3.67-3.55C28.13,38.99,27.06,36.69,27.06,36.69z"/>
		<path class="st6" d="M35.97,45.18c-0.45,0-0.95-0.37-3.12-0.43c-2.17-0.05-3.88,0.17-4.27,1.82c-0.39,1.65,0.14,1.99-0.8,3.07
			c-0.94,1.08-0.94,1.08-0.94,1.08s1.87,0.07,4.47,0.03s3.84-2.67,4.17-3.77S35.97,45.18,35.97,45.18z"/>
		<path class="st7" d="M37.14,45.16c0,0,0.99,1.12,3.04,1.14s4.28,1.06,4.26,3.22c-0.02,2.17,0.67,3.37,0.67,3.37
			s0.05-0.31-1.74-0.18c-1.78,0.12-4.31-1.12-5-2.9S37.14,45.16,37.14,45.16z"/>
		<path class="st8" d="M49.48,42.52c0,0-2.66,2.62-3.48,4.4c-0.82,1.78-1.06,2.85-0.02,4.13c1.04,1.28,1.41,2.3,1.41,2.3
			s1.51-2.2,2.49-2.71c0.98-0.51,2.07-2.31,1.56-3.39C50.91,46.18,49.48,42.52,49.48,42.52z"/>
		<path class="st9" d="M45.24,54.68c0-0.03-1.57-0.7-3.45-0.95c-1.88-0.24-2.89-0.24-3.64,0.69c-0.75,0.93-1.25,1.91-1.79,3
			c-0.53,1.09-0.6,1.53-1.04,1.63c-0.43,0.1,0.55-0.38,2.62,0.16c2.07,0.53,3.05,1.11,3.92,0.44s0.85-1.92,1.56-2.91
			C44.13,55.74,45.24,54.68,45.24,54.68z"/>
	</g>
	<g>
		<path class="st11" d="M64.22,52.63c-2.12-0.16-3.47-0.86-4.65,2.88"/>
		<path class="st11" d="M66.08,36.07c0.34,1.62,0.38,4.65,0.41,6.8"/>
		<path class="st11" d="M70.82,37.15c-1.92,1.35-4.2,3.91-5.06,6.3"/>
		<path class="st11" d="M72.53,41.15c-2.69-0.6-5-1.48-6.1,1.33"/>
		<path class="st11" d="M63.9,48.02c-2.09,2.57-3.91,5.77-4.31,8.29"/>
		<path class="st11" d="M58.22,47.34c1.07,3.27,1.36,8.59,1.48,9.67"/>
		<path class="st12" d="M61.88,33.73c0.09,1.33-0.5,1.75,2.17,3.52c2.67,1.77,2.67,1.77,2.67,1.77s0.31-0.59,0.68-1.27
			c0.37-0.67,2.04-3.04,0.58-4.99s-2.56-2.95-2.96-3.21c-0.4-0.27-1.56-1.44-1.88-1.71"/>
		<path class="st4" d="M76.78,29.56c-1.41,1.01-3.97,0.14-5.56,1.9c-1.58,1.77-1.9,5.3-2.12,6.35s-1.1,0.82,0.69,0.44
			c1.79-0.38,2.03,0.2,3.5-0.53c1.46-0.73,3.07-3.55,2.99-4.54S76.78,29.56,76.78,29.56z"/>
		<path class="st6" d="M69.5,40.44c0.47-0.11,0.9-0.61,3.13-1.17c2.24-0.56,4.06-0.73,4.86,0.89c0.79,1.62,0.32,2.09,1.55,3
			c1.23,0.9,1.23,0.9,1.23,0.9s-1.92,0.51-4.63,1.07c-2.71,0.56-4.61-1.87-5.21-2.94C69.83,41.12,69.5,40.44,69.5,40.44z"/>
		<path class="st7" d="M68.28,40.7c0,0-0.77,1.39-2.89,1.89c-2.12,0.51-4.2,2.09-3.68,4.34s0.09,3.65,0.09,3.65s-0.12-0.31,1.76-0.6
			c1.88-0.29,4.21-2.17,4.52-4.18C68.39,43.81,68.28,40.7,68.28,40.7z"/>
		<path class="st8" d="M54.87,40.83c0,0,3.37,2.1,4.64,3.76s1.76,2.71,0.98,4.28c-0.78,1.57-0.93,2.72-0.93,2.72
			s-2.07-1.93-3.21-2.23c-1.13-0.3-2.69-1.91-2.41-3.15C54.23,44.96,54.87,40.83,54.87,40.83z"/>
		<path class="st9" d="M62.09,52.47c-0.01-0.04,1.47-1.1,3.36-1.78c1.89-0.69,2.95-0.92,3.94-0.13c0.99,0.79,1.75,1.69,2.55,2.7
			c0.81,1,0.98,1.45,1.46,1.45c0.47,0-0.66-0.26-2.68,0.77c-2.02,1.04-2.91,1.86-3.97,1.37s-1.33-1.79-2.3-2.66
			C63.49,53.31,62.09,52.47,62.09,52.47z"/>
	</g>
	<g>
		<path class="st13" d="M25.76,70.51c0.92,0.14,0.39,0.17,1.1,0.26c0.71,0.09,1.29,0.06,1.99-0.61c0.7-0.67,0.58-0.25,2.09-0.46
			c1.51-0.21,0.56,0.05,2.34-0.26c1.78-0.31,0.73-0.32,2.15-1.45c1.42-1.13,0.44-1.6,0.43-2.91c-0.02-1.31,0.55-1.66,1.87-2.04
			c1.31-0.38,1.71-1.02,1.98-1.85c0.28-0.83-0.47-0.76-0.77-1.89c-0.3-1.13,0.16-1.02,0.8-1.68c0.64-0.66,0.13-1.6-0.02-2.32
			c-0.15-0.73-1.33-0.92-2.31-1.24c-0.98-0.31-1.25-1.27-2.62-2.34c-1.04-0.8-1.56-0.68-3.49-0.77c-3.02,1-4.8,3.57-5.74,4.62
			c-1.3,1.47-2.99,10.41-2.17,14.15C24.36,69.77,25.11,70.41,25.76,70.51z"/>
		<path class="st14" d="M23.86,70.93c1.77,2.36,8.95,1.57,12.35-0.65c3.4-2.23,5.62-7.68,6.35-10.77c0.73-3.09-4.54-8.06-4.54-8.06
			c-2.73-1.14-4.95-1.09-6.74-0.5c1.93,0.09,2.45-0.03,3.49,0.77c1.38,1.07,1.64,2.02,2.62,2.34c0.98,0.31,2.16,0.51,2.31,1.24
			c0.15,0.73,0.66,1.66,0.02,2.32c-0.64,0.66-1.11,0.55-0.8,1.68c0.3,1.13,1.05,1.06,0.77,1.89c-0.28,0.83-0.67,1.47-1.98,1.85
			c-1.31,0.38-1.88,0.73-1.87,2.04c0.02,1.31,0.99,1.77-0.43,2.91c-1.42,1.13-0.37,1.14-2.15,1.45c-1.78,0.31-0.83,0.05-2.34,0.26
			c-1.51,0.21-1.39-0.21-2.09,0.46c-0.7,0.67-1.27,0.7-1.99,0.61c-0.71-0.09-0.17-0.12-1.1-0.26c-0.65-0.1-1.4-0.74-2.38-0.79
			C23.49,70.23,23.65,70.65,23.86,70.93z"/>
	</g>
	<g>
		<path class="st15" d="M41.1,80.17c0.46,0.02,0.63,1.12,1.25,1.5s0.68,0.19,1.79-0.85c1.12-1.04,1.32,0.04,2.45,0.45
			c1.12,0.41,2.5-0.08,4.11-0.61s0.96-0.53,2.23-2c1.27-1.47,0.27-0.92,1.02-2.84c0.74-1.93,1.19-0.64,2.36-1.83
			c1.17-1.18,0.31-1.17,0.44-2.57c0.13-1.4-0.25-1.34,0.09-2.8c0.34-1.46,0.98-1.25,1.82-1.97c0.84-0.71,0.01-2.13-0.47-3.32
			c-0.48-1.19-0.64-3.01-0.83-4.41c-0.19-1.4-1.99-5.04-3.53-6.12c-1.13-0.8-2.42-1.43-4.56-1.58c-1.43,0.57-3.72,2.01-5,2.98
			c-1.33,1-3.84,6.18-4.78,7.83l-0.41,0.2c0,0-1.3,4.45-2.01,8.02c-0.44,2.22,0.32,5.71,1.6,8.61c0.4,0.19,0.75,0.42,0.85,0.57
			C39.78,79.85,40.63,80.15,41.1,80.17z"/>
		<path class="st16" d="M41.4,83.07c2.65,2.43,10.3,1.43,13.36-0.84c3.06-2.27,5.94-12.21,6.23-13.03c0.29-0.82,0.59-4.79,0.83-7.91
			c0.25-3.12-1.7-5.96-2.37-6.9c-0.67-0.94-3.78-2.9-4.53-3.22c-0.75-0.32-4.09-0.54-5.5-0.03c-0.05,0.02-0.11,0.05-0.17,0.07
			c2.14,0.15,3.43,0.78,4.56,1.58c1.54,1.08,3.34,4.72,3.53,6.12c0.19,1.4,0.35,3.22,0.83,4.41c0.48,1.19,1.31,2.61,0.47,3.32
			c-0.84,0.71-1.49,0.51-1.82,1.97c-0.34,1.46,0.03,1.4-0.09,2.8c-0.13,1.4,0.73,1.38-0.44,2.57c-1.17,1.18-1.62-0.1-2.36,1.83
			c-0.74,1.93,0.26,1.37-1.02,2.84c-1.27,1.47-0.62,1.47-2.23,2s-2.98,1.02-4.11,0.61c-1.12-0.41-1.33-1.49-2.45-0.45
			c-1.12,1.04-1.18,1.23-1.79,0.85s-0.78-1.48-1.25-1.5c-0.46-0.02-1.31-0.32-1.59-0.74c-0.1-0.16-0.45-0.38-0.85-0.57
			C39.43,80.61,40.4,82.15,41.4,83.07z"/>
	</g>
	<g>
		<path class="st17" d="M68.34,77.88c0.63,0,0.51,0.08,0.96,0.12c0.45,0.04,0.9,0.33,1.39,0.84c0.48,0.5,1.64,0.23,1.8,0.15
			c0.16-0.08,0.46-1.25,0.98-1.25c0.52,0,1.13-0.48,1.48-0.79c0.35-0.32,0.56-1.02,0.7-2.66c0.15-1.64-0.94-0.28-1.14-0.71
			c-0.21-0.43-0.74-0.46,0.13-1.36c0.88-0.9,0.68-1.08,0.43-2.85c-0.25-1.76-0.38-0.92-1.29-1.89c-0.91-0.97-0.56-0.35-1.01-0.78
			c-0.44-0.43-0.38-1.42-0.06-2.96s-0.21-1.32-0.73-2.4c-0.52-1.08-1.15-0.83-1.68-1.88c-0.54-1.05-1.21-0.99-1.55-1.84
			c-0.34-0.85-0.9-0.08-1.25-0.23c-0.36-0.14-1.83-0.03-2.48-0.4c-0.64-0.36-0.85,0.22-1.71,0.33c-0.86,0.1-0.88-0.23-1.67-0.25
			c-0.78-0.01-0.36,0.57-1.07,1.71c-0.71,1.14-0.44,0.2-1.68-0.1c-0.31-0.08-0.61-0.04-0.9,0.06c-0.32,0.55-0.6,1.12-0.79,1.66
			c-0.07,0.21-0.13,0.42-0.17,0.62c-0.4,2.1-0.2,5.54,1.09,8.09c1.29,2.54,5.4,7.6,8.28,8.93c0.26,0.12,0.53,0.22,0.8,0.33
			C67.58,78.13,67.99,77.88,68.34,77.88z"/>
		<path class="st18" d="M73.18,79.33c0.37-0.23,3.19-0.15,4.49-3.57c1.29-3.42-0.48-10.04-1.52-12.5c-1.04-2.46-4.9-7.43-7.36-8.59
			c-2.46-1.15-6.35-0.25-8.39,0.97c-0.3,0.18-1.51,1.58-2.4,3.11c0.29-0.1,0.59-0.13,0.9-0.06c1.24,0.3,0.97,1.24,1.68,0.1
			c0.71-1.14,0.28-1.73,1.07-1.71c0.78,0.01,0.81,0.35,1.67,0.25c0.86-0.1,1.06-0.69,1.71-0.33c0.64,0.36,2.12,0.25,2.48,0.4
			c0.36,0.14,0.91-0.62,1.25,0.23c0.34,0.85,1.01,0.79,1.55,1.84c0.54,1.05,1.17,0.8,1.68,1.88c0.52,1.08,1.05,0.86,0.73,2.4
			s-0.39,2.53,0.06,2.96c0.44,0.43,0.09-0.18,1.01,0.78c0.91,0.97,1.04,0.12,1.29,1.89c0.25,1.76,0.45,1.95-0.43,2.85
			c-0.88,0.9-0.34,0.92-0.13,1.36c0.21,0.43,1.29-0.93,1.14,0.71c-0.15,1.64-0.35,2.34-0.7,2.66c-0.35,0.32-0.97,0.79-1.48,0.79
			c-0.52,0-0.82,1.17-0.98,1.25c-0.16,0.08-1.32,0.35-1.8-0.15c-0.48-0.5-0.93-0.8-1.39-0.84c-0.45-0.04-0.32-0.12-0.96-0.12
			c-0.35,0-0.76,0.25-1.14,0.5c0.44,0.17,0.88,0.32,1.32,0.44C70.79,79.45,72.9,79.5,73.18,79.33z"/>
	</g>
</g>
</svg>
