<?xml version="1.0" encoding="utf-8"?>
<!-- Generator: Adobe Illustrator 23.1.1, SVG Export Plug-In . SVG Version: 6.00 Build 0)  -->
<svg version="1.1" id="Layer_1" xmlns="http://www.w3.org/2000/svg" xmlns:xlink="http://www.w3.org/1999/xlink" x="0px" y="0px"
	 viewBox="0 0 108 108" style="enable-background:new 0 0 108 108;" xml:space="preserve">
<style type="text/css">
	.st0{fill:#76AF42;}
	.st1{fill:#9BBD62;}
	.st2{fill:none;stroke:#231F20;stroke-width:0.1576;stroke-miterlimit:10;}
	.st3{fill:none;}
	.st4{fill:#EB7A3F;}
	.st5{fill:#E75B25;}
	.st6{fill:#EB7033;}
	.st7{fill:#5F8C3D;}
	.st8{fill:#7E9D3D;}
	.st9{fill:#DE5926;}
</style>
<g>
	<path class="st0" d="M57.96,35.9c0,0,2.57,2.18,2.3,3.76c-0.27,1.58-0.44,3.54-0.44,3.54h1.82c0,0,0.02-0.25,0-2.16
		c-0.02-1.91-1.67-3.45-1.38-3.88C60.55,36.74,57.96,35.9,57.96,35.9z"/>
	<path class="st0" d="M69.53,51.78c0.7-0.74,1.38-3.68,4.83-4.73c3.45-1.05,5.97-0.63,5.97-0.63s-1.12,0.32-2.1,0.72
		s-3.24,1.47-4.15,1.92c-0.9,0.45-2.45,2.72-2.45,2.72l-2.1,2.14V51.78z"/>
	<path class="st0" d="M40.25,41.51c0,0,7.14,1.62,10.12,2.85s1.22,2.77,1.22,2.77s-6.38-3.05-7.95-3.24
		C42.06,43.71,40.25,41.51,40.25,41.51z"/>
	<path class="st1" d="M48.66,45.9c0.49-0.03,0.77-0.78,1.7-1.53c0.94-0.75,3.7-2.76,6.08-2.85c2.38-0.1,7.81,1.91,8.86,2.19
		c1.05,0.29,5.01,3.24,4.84,5.24c-0.17,2,1.13,7.91,0.01,11.05s-4.37,6.38-4.37,6.38l-1.14-2.29c0,0,3.47-3.72,3.55-4.57
		c0.07-0.86-0.26-4.94,0-6.05c0.26-1.1,0.74-5.2-0.97-6.63c-1.72-1.43-3.82-2.4-5.58-2.49c-1.76-0.09-4.43,0.83-5.29,0.75
		c-0.86-0.08-2.09-0.4-3.14,1s-2.64,2.55-3.13,2.55C49.59,48.66,48.66,45.9,48.66,45.9z"/>
	<path class="st2" d="M62.3,63.18c0,0,0.04,0.04,0.11,0.12C62.37,63.25,62.33,63.21,62.3,63.18z"/>
	<path class="st3" d="M62.3,63.18c0,0,0.04,0.04,0.11,0.12C62.37,63.25,62.33,63.21,62.3,63.18z"/>
	<path class="st4" d="M39.94,84.39c-0.72-0.87,0,0-0.67-0.97c-0.67-0.97,0.16-2.1-0.25-3.17c-0.41-1.07-0.72-4.4-1.33-5.42
		c-0.61-1.02-0.1-0.82-0.18-1.59c-0.08-0.77-0.13-1.79,0.02-2.71c0.15-0.92-0.1-0.82,0-1.47c0.1-0.65,0.31-2.22,1.13-4.78
		c0.55-1.7,4.7-6.98,7.42-10.34c-0.67-0.13-1.29-0.25-1.29-0.25s-3.53-0.51-5.42-0.36c-1.89,0.15-9.11,2.61-12.54,8.08
		c-3.43,5.48-2.3,16.78,0,20.21c1.04,1.55,3.05,3.22,5.06,4.58c0.41,0.28,0.81,0.54,1.21,0.79c1.92,1.19,3.65,2,4.3,2.05
		c0.02,0,0.05,0.01,0.06,0.01c0.51,0,0.99,0.05,1.41,0.1c0.68,0.09,1.23,0.21,1.61,0.21c0.32,0,0.55,0.06,0.84,0.13
		c0.2,0.05,0.43,0.11,0.75,0.17c0.1,0.02,0.2,0.04,0.31,0.05c0.23,0.03,0.49,0.06,0.77,0.08c-0.25-0.43-0.83-1.26-1.04-1.82
		C41.92,87.41,40.65,85.26,39.94,84.39z M38.71,56.22c-0.43,0.34-1.08,0.88-1.84,1.6C37.63,57.09,38.28,56.55,38.71,56.22z"/>
	<path class="st5" d="M64.96,67.45c-0.67-1.18-1.18-4.25-1.84-4.96c-0.67-0.72-2.35-3.43-3.94-4.14c-1.59-0.72-4.81-3.84-5.63-4.09
		C52.73,54,51.14,54,50.37,53.92c-0.1,0.04-0.2,0.06-0.29,0.08c-0.67,0.1-1.9,0.2-2.31,0.2c-0.21,0-0.98-0.13-1.68-0.26
		c-2.73,3.36-6.87,8.65-7.42,10.34c-0.83,2.56-1.03,4.13-1.13,4.78c-0.1,0.65,0.15,0.55,0,1.47c-0.15,0.92-0.1,1.94-0.02,2.71
		c0.08,0.77-0.44,0.56,0.18,1.59c0.61,1.02,0.92,4.35,1.33,5.42c0.41,1.07-0.42,2.2,0.25,3.17c0.67,0.97-0.05,0.1,0.67,0.97
		c0.72,0.87,1.98,3.02,2.19,3.58c0.21,0.56,0.79,1.39,1.04,1.82c0.52,0.04,1.08,0.04,1.52,0.03c0.37-0.02,0.66-0.05,0.77-0.1
		c0.11-0.05,0.4-0.05,0.74-0.02c0.62,0.05,1.42,0.17,1.71,0.13c0.07-0.01,0.18-0.02,0.31-0.04c0.42-0.04,1.1-0.1,1.65-0.15
		c0.36-0.03,0.67-0.06,0.81-0.08c0.41-0.05,1.79-0.46,2-0.41c0.05,0.01,0.16,0.02,0.3,0.03c0.17,0.01,0.4,0.01,0.64,0.01
		c0.45,0,0.95-0.01,1.31-0.04c0.23-0.02,0.56-0.05,0.92-0.09c0.3-0.03,0.62-0.07,0.9-0.1c0.43-0.05,0.79-0.1,0.89-0.12
		c0.12-0.02,0.6-0.13,1.24-0.31c0.06-0.77,1.27-1.79,1.73-2.51c0.46-0.72,3.22-3.43,3.83-4.5c0.61-1.07,0.93-3.68,0.98-5.36
		c0.05-1.67,0.41-3.49,0.36-4.98C65.73,69.71,65.63,68.63,64.96,67.45z M56.47,58.35c0.04,0.03,0.09,0.09,0.16,0.16
		C56.52,58.41,56.47,58.35,56.47,58.35z"/>
	<path class="st6" d="M65.42,58.81c-3.58-3.22-7.47-5.38-9.42-5.5c-1.94-0.12-3.48-0.38-3.94-0.28c-0.4,0.09-1.09,0.67-1.7,0.89
		c0.78,0.08,2.36,0.08,3.18,0.33c0.82,0.26,4.04,3.38,5.63,4.09c1.59,0.72,3.27,3.43,3.94,4.14c0.67,0.72,1.18,3.79,1.84,4.96
		c0.67,1.18,0.77,2.25,0.82,3.74c0.05,1.48-0.31,3.3-0.36,4.98c-0.05,1.67-0.37,4.28-0.98,5.36c-0.61,1.07-3.37,3.79-3.83,4.5
		c-0.46,0.72-1.66,1.74-1.73,2.51c0.14-0.04,0.3-0.08,0.45-0.13c0.14-0.04,0.29-0.09,0.44-0.13c0.56-0.17,1.16-0.38,1.71-0.61
		c1.59-0.67,8.44-6.65,8.65-12.95C70.33,68.43,69,62.03,65.42,58.81z"/>
	<path class="st1" d="M45.52,51.49c0.31-0.61,1.03-2.3,1.44-2.66c0.29-0.26,2.66-2.28,3.98-3.4c-0.58-0.25-0.55-0.37-0.86-0.29
		c-0.37,0.1-1.65,1.43-2.31,2.05c-0.67,0.61-1.54,1.64-1.56,1.89c0,0-1.25,1.89-1.3,2.15c-0.01,0.06-0.02,0.15-0.03,0.26
		c-0.03,0.35-0.13,0.9-0.79,1.17c-0.87,0.36-2.41,0.92-2.56,0.97c-0.15,0.05-1.74,0.15,0,0.61c1.07,0.28,1.6,0.5,2.16,0.66
		c0.32-0.36,0.59-0.69,0.61-0.77C44.34,53.95,45.21,52.1,45.52,51.49z"/>
	<path class="st1" d="M51.4,45.6c-0.06-0.02-0.11-0.04-0.17-0.06c-0.33,0.51-0.75,1.08-1.37,1.64c-1.02,0.92-2.6,2.58-2.83,2.98
		c-0.24,0.4-0.9,2.4-1.21,2.83s-0.56,1-0.77,1.15c-0.09,0.07-0.57,0.44-1.08,0.85c0.26,0.07,0.55,0.12,0.92,0.17
		c0.31,0.04,0.6,0.05,0.88,0.06c0.25-0.53,0.56-1.17,0.76-1.58c0.36-0.72,1.13-1.79,1.43-2.51c0.15-0.34,0.32-0.53,0.43-0.64
		c0.03-0.06,0.06-0.1,0.08-0.11c0.11-0.01,0.05,0-0.08,0.11c-0.23,0.51-0.64,2.74-0.64,2.74s0.46,0.86,0.46,0.68
		c0-0.18,0.46-1.25,0.72-1.76c0.26-0.51,1.13-1.54,1.13-1.54s-0.86,1.43-0.66,2.68c0.1,0.67,0.3,1.15,0.45,1.55
		c0.56-0.15,1.29-0.4,1.02-0.65c-0.28-0.26-1.33-0.1-1.07-0.97c0.26-0.87,0.22-1.84,1.13-2.92c0.91-1.07,1.73-2.1,1.89-2.71
		c0.15-0.61,0.51-2,0.51-2S52.47,45.96,51.4,45.6z"/>
	<path class="st0" d="M45.82,53c0.31-0.43,0.97-2.43,1.21-2.83c0.24-0.4,1.81-2.06,2.83-2.98c0.62-0.56,1.04-1.14,1.37-1.64
		c-0.12-0.04-0.21-0.08-0.3-0.12c-1.32,1.12-3.69,3.14-3.98,3.4c-0.41,0.36-1.13,2.05-1.44,2.66c-0.31,0.61-1.18,2.46-1.23,2.66
		c-0.02,0.08-0.29,0.41-0.61,0.77c0.1,0.03,0.2,0.06,0.3,0.08c0.51-0.4,0.99-0.78,1.08-0.85C45.26,54,45.52,53.43,45.82,53z"/>
	<path class="st0" d="M50.08,50.62c0,0-0.88,1.02-1.13,1.54c-0.26,0.51-0.72,1.59-0.72,1.76c0,0.18-0.46-0.68-0.46-0.68
		s0.4-2.23,0.64-2.74c-0.12,0.1-0.29,0.29-0.43,0.64c-0.31,0.72-1.07,1.79-1.43,2.51c-0.2,0.41-0.51,1.05-0.76,1.58
		c0.89,0.01,1.59-0.11,2.14-0.06c0.72,0.06,1.33-0.14,1.89-0.3c0.02,0,0.04-0.01,0.05-0.01c-0.15-0.4-0.35-0.88-0.45-1.55
		C49.22,52.05,50.08,50.62,50.08,50.62z"/>
	<path class="st1" d="M48.48,50.39c-0.02,0-0.05,0.04-0.08,0.11C48.53,50.38,48.59,50.38,48.48,50.39z"/>
	<path class="st7" d="M74.85,47.68c0,0-1.49,3.16-1.42,3.65s-0.41,1.94,0.4,2.83c0.82,0.89,4.62,2.54,5.81,2.5
		c1.19-0.04,4.42-0.63,4.42-0.63l-1.42-1.2c0,0,2.54-0.2,3.07-0.44c0.53-0.24,0.46-2.05,0.46-2.05s2.08-3.46,2.34-3.83
		c0.26-0.37,0.1-1.47,0.1-1.47l-0.43-0.38c0,0,2.49-0.1,2.94-1.8s0.76-4,0.76-4s-3.81-2.47-5.06-2.42s-3.01,0.43-3.01,0.43
		s-0.42-1.63-0.65-2.35c-0.23-0.72-2.14-0.51-2.82-0.41s-4.41,1.19-4.73,1.55c-0.33,0.36-1.22,0.68-1.22,0.68s-2.67,1.38-2.85,1.97
		s-0.9,2.57-0.8,3.69c0.1,1.11,0.39,1.45,0.62,1.73c0.23,0.28,1.19,0.9,1.4,1.05S74.85,47.68,74.85,47.68z"/>
	<path class="st8" d="M68.56,61.43c0,0-0.76-2.83-1.07-3.11c-0.31-0.28-0.79-1.46-1.79-1.59c-1-0.12-4.33,0.89-5.07,1.56
		c-0.73,0.67-2.49,2.8-2.49,2.8l1.56-0.01c0,0-1.52,1.5-1.73,1.95s0.82,1.56,0.82,1.56s0.55,3.34,0.58,3.72c0.03,0.38,0.73,1,0.73,1
		l0.48,0.01c0,0-1.54,1.42-0.9,2.74c0.63,1.33,1.68,2.97,1.68,2.97s3.77-0.49,4.54-1.2c0.77-0.71,1.69-1.91,1.69-1.91
		s1.15,0.82,1.69,1.15s1.65-0.84,2.02-1.26c0.38-0.43,2.17-3.15,2.18-3.56s0.41-1.09,0.41-1.09s0.96-2.33,0.75-2.81
		c-0.21-0.47-0.82-2.13-1.49-2.79c-0.67-0.66-1.04-0.71-1.34-0.77s-1.25,0.08-1.47,0.09C70.15,60.89,68.56,61.43,68.56,61.43z"/>
	<path class="st7" d="M44.22,43.1c0,0,1.94-1.87,1.98-4.11c0.04-2.24-1.37-5.11-2.6-5.59c-1.23-0.49-2.85-1.07-4.03-1.43
		c-1.19-0.36-2.51-0.49-2.98-0.6c-0.47-0.11-1.14-0.11-1.14-0.11l-0.17,1.68c0,0-3.25,0.35-4.32,0.72c-1.07,0.38-2.61,1.2-3.27,1.74
		c-0.66,0.54-1.91,2.12-1.91,2.12s0.81,4.08,1.21,4.97c0.4,0.89,1.79,2.78,2.11,3.18s1.71,1.14,1.71,1.14s-0.95,1.06-1,1.54
		c-0.05,0.48,2.8,2.34,3.5,2.65s4.89,1.45,6.71,0.24c1.82-1.21,3.68-3.46,3.94-4.22c0.26-0.76,0.44-1.96,0.4-2.2
		C44.32,44.56,44.22,43.1,44.22,43.1z"/>
	<path class="st1" d="M60.56,38.75c0,0,2,0.98,3.76,0.38c1.75-0.6,3.58-2.51,3.61-3.6s0.03-2.52-0.03-3.54
		c-0.06-1.02-0.33-2.09-0.38-2.49s-0.24-0.92-0.24-0.92l-1.35,0.35c0,0-1.19-2.43-1.79-3.15c-0.6-0.72-1.67-1.69-2.28-2.05
		c-0.61-0.36-2.18-0.88-2.18-0.88s-2.94,1.78-3.52,2.34c-0.58,0.56-1.66,2.18-1.87,2.54c-0.22,0.36-0.4,1.65-0.4,1.65
		s-1.09-0.44-1.48-0.34c-0.39,0.1-1.02,2.84-1.07,3.47c-0.04,0.63,0.25,4.21,1.71,5.28c1.46,1.07,3.73,1.88,4.39,1.86
		s1.65-0.22,1.83-0.31C59.45,39.24,60.56,38.75,60.56,38.75z"/>
	<path class="st9" d="M39.36,55.81c0,0-7.5,3.57-8.55,6.96s-1.83,6.39-1.83,9.46s1.96,8.81,3.72,11.09
		c1.76,2.28,3.61,3.85,4.68,4.04s1.98,0.39,1.98,0.39s-4.83-4.37-5.55-5.87s-2.54-8.1-2.74-8.94s0.11-6.39,0.55-7.37
		s2.72-4.57,3.43-5.68c0.72-1.11,4.3-4.37,4.3-4.37"/>
	<path class="st4" d="M46.93,56.66c0,0,1.76,5.27,2.09,8.2c0.33,2.94,1.08,11.22,1.06,13.05c-0.02,1.83,0.11,7.5-0.35,8.68
		c-0.46,1.17-0.78,2.35-0.78,2.35s3.24-1.5,3.15-3.52c-0.09-2.02-0.04-7.24,0-7.89c0.04-0.65-1.46-12.4-1.46-13.11
		c0-0.72-0.69-4.37-1.13-5.02C49.08,58.73,46.93,56.66,46.93,56.66z"/>
</g>
</svg>
