<svg xmlns="http://www.w3.org/2000/svg" version="1.1" xmlns:xlink="http://www.w3.org/1999/xlink" xmlns:svgjs="http://svgjs.dev/svgjs" viewBox="0 0 108 108" style="" x="0" y="0"><style type="text/css">
	.st0{fill:#8BB34B;}
	.st1{fill:#75AD28;}
	.st2{fill:#7A9E40;}
	.st3{fill:#639638;}
	.st4{fill:#6CA23D;}
	.st5{fill:#C5CA00;}
	.st6{fill:#AEC237;}
	.st7{fill:#DAD124;}
	.st8{fill:#8CB33E;}
	.st9{fill:#66A148;}
	.st10{fill:#5C9140;}
	.st11{fill:#639D4D;}
	.st12{fill:#A1B946;}
	.st13{fill:#7CA64B;}
	.st14{fill:#9FBB7E;}
</style><g><path class="st0" d="M34.8,7.3C34.8,7.3,34.8,7.3,34.8,7.3c-2.9,0.3-5.9,5.2-6,9.1c-0.2,3.9,7.8,16.1,12.7,22.1h0.3
	c-1.9-4.8-3.5-13.7-3.7-14.5C38,23.2,35.8,12.3,34.8,7.3z"></path><path class="st1" d="M42.6,36.8c0-0.2,2.6-11.4,2.1-20.5c-0.5-9-6.9-9.3-9.8-9.1c1,5.1,3.1,15.9,3.3,16.7c0.2,0.9,1.8,9.8,3.7,14.5
	h0.5C42.3,38.5,42.6,37,42.6,36.8z"></path><path class="st2" d="M42.3,41.2c-0.2-0.8-0.4-1.5-0.5-2.1c-0.4,0.8-0.5,2-0.5,2s-3.3,8.4-3.7,13.8c-0.3,5.4,7.6,9,9.8,9
	c0.6,0,1.3,0,2-0.2c-0.7-2.7-4.3-13.1-4.7-13.4C44.4,50.1,43.2,45,42.3,41.2z"></path><path class="st1" d="M55.1,58.5c2.3-4.9-5.8-12.1-6.7-12.9c-0.9-0.8-5.5-7.4-6.1-7.2c-0.3,0.1-0.4,0.3-0.6,0.5
	c0.1,0.6,0.3,1.4,0.5,2.1c0.9,3.9,2.2,8.9,2.5,9.1c0.4,0.3,4,10.6,4.7,13.4C51.3,63.3,53.4,62.1,55.1,58.5z"></path><path class="st1" d="M16.7,41.6c2.4-0.1,17.6-1.4,25.4-1.8C42,39.6,42,39.4,42,39.3c0-0.3-1-0.7-1-0.7c-14.1-5.9-18.4-8.9-23.1-8
	c-4.1,0.8-10.2,4-9.7,10.1C11,41.1,14.7,41.7,16.7,41.6z"></path><path class="st0" d="M26.6,49.5c12.1-4,15-8.5,15.4-9c0.2-0.3,0.2-0.5,0.1-0.8c-7.7,0.4-22.9,1.7-25.4,1.8c-2,0.1-5.8-0.5-8.6-0.8
	c0.1,0.8,0.2,1.6,0.5,2.5C11.2,51.1,14.5,53.6,26.6,49.5z"></path><path class="st3" d="M44.7,39c2.3-0.1,15.5-6.1,18.8-8c2.1-1.2,5.6-3.3,8.7-5.2c-0.3-2-0.8-3.8-1.2-5.1c-1.6-4.5-8.9-1.6-12.1,0.6
	c-3.1,2.1-16.5,17.9-16.5,17.9s-0.4,0.8-0.3,1.4C42.9,39.9,42.9,39.1,44.7,39z"></path><path class="st0" d="M46.3,42c1.1,0.3,15.6-0.7,16.7-1.1c1.2-0.4,2.8-1.8,6.9-3.6c2.9-1.3,3-6.8,2.2-11.6c-3.1,1.9-6.6,4-8.7,5.2
	c-3.3,1.9-16.5,7.9-18.8,8c-1.8,0.1-1.9,0.9-2.6,1.5c0,0.2,0.1,0.4,0.3,0.6C43.1,41.6,45.2,41.7,46.3,42z"></path><path class="st4" d="M28.3,45.1c5,0.5,8.2-0.9,9.5-2.2c1.2-1.1,3.9-1.6,4-2.7c-8.2-0.3-12.7-2.4-16.2-4.3
	C24.8,38.1,23.7,44.7,28.3,45.1z"></path><path class="st0" d="M41.7,39.7c-0.8-1.6-0.8-1.6-0.8-1.6c-7.3-4.5-10.2-7.1-12.2-6.2c-2.1,0.9-2.2,2.2-2.9,3.5
	c-0.1,0.1-0.1,0.3-0.2,0.5c3.5,1.9,8,4.1,16.2,4.3C41.8,40.1,41.8,39.9,41.7,39.7z"></path><path class="st4" d="M56,19.6c-1.5,2.9-9.2,14.5-14.8,20.2c0,0,6.4-4.4,7.2-5c0.8-0.6,8-7.3,9.2-10.2C58.2,23.1,57.3,21.1,56,19.6z"></path><path class="st0" d="M56,19.6c-1-1.2-2.3-2.2-3.1-2.3c-1.8-0.4-4.9,2.6-5.9,4.6c-1,2-5.6,16.4-5.8,17.9C46.8,34.1,54.6,22.5,56,19.6
	z"></path><path class="st5" d="M42.9,39.8c-0.1-0.1-0.6-0.2-0.6-0.9c0-0.7-0.1-1.3,0.3-1.1c0.4,0.2,0.7,0.5,0.7,0.5S43,38,43.2,37.7
	c0.2-0.3,0.8,0,0.8,0s0.2,0.3,0.3,0.4c0.1,0.1,0.2,0.8,0.2,0.8s0.3-0.7,0.6-0.9c0.3-0.2,0.8-0.2,1.1-0.2c0.2,0,0.4,0.1,0.4,0.4
	c0,0.3,0,0.6,0,0.6s0.5-0.1,0.8,0.3c0.2,0.4-0.1,0.9-0.5,1.1c-0.4,0.2-0.9,0.4-0.7,0.6s0.8,0.5,0.3,0.6c-0.4,0.2-1.1,0.3-1.1,0.4
	c0,0.1,0.9,0.9,0.7,1.4s-0.3,0.8-0.7,0.7c-0.5-0.1-0.6-0.1-1-0.1s-0.6,0.6-0.7-0.1s-0.3-0.8-0.3-1.3c-0.1-0.5,0-1-0.4-0.7
	c-0.4,0.2-0.5,0.6-0.6,0.3s-0.3-0.5-0.4-0.9c-0.1-0.3-0.7-0.5-0.3-0.8c0.4-0.3,0.8-0.3,1.2-0.4S42.9,39.8,42.9,39.8z"></path><path class="st6" d="M44.8,39.3c-0.4,0-1.3,0-1.6,0.2c-0.3,0.2-0.2,1.1,0,1.6c0.2,0.4,0.2,1,0.7,1c0.5,0,1.4-0.2,1.4-0.2
	s-0.1,0,0.1-0.3c0.2-0.3,0.9-0.2,0.6-0.7c-0.3-0.6-0.1-0.2-0.3-0.7C45.4,39.6,44.8,39.3,44.8,39.3z"></path><path class="st7" d="M45.2,39.5c-0.4-0.3-0.7,0.2-0.8,0.5s-0.3,0.4-0.1,1c0.2,0.6,0.2,1.2,0.7,0.9c0.5-0.3,0-0.1,0.5-0.3
	c0.4-0.3,0.8-0.5,0.6-0.7c-0.2-0.3-0.1-0.2-0.2-0.5s-0.1-0.8-0.1-0.8L45.2,39.5z"></path><path class="st5" d="M40.2,39c0,0.1,0.4,0.5,0.1,1c-0.3,0.5-0.5,1-0.7,0.6c-0.2-0.4-0.3-0.8-0.3-0.8s0.1,0.4-0.2,0.5
	s-0.6-0.4-0.6-0.4s0-0.3-0.1-0.4s0.2-0.7,0.2-0.7s-0.6,0.3-0.9,0.3c-0.4,0-0.8-0.3-1-0.5c-0.2-0.1-0.3-0.3-0.1-0.5
	c0.2-0.2,0.3-0.5,0.3-0.5s-0.5-0.2-0.5-0.7c0-0.4,0.5-0.6,0.9-0.5c0.5,0.1,0.9,0.2,0.9,0s-0.4-0.8,0-0.7c0.4,0.1,1,0.4,1.1,0.3
	c0-0.1-0.4-1.2,0.1-1.4c0.5-0.2,0.6-0.4,0.9-0.1c0.3,0.3,0.4,0.4,0.8,0.7c0.4,0.3,0.7-0.1,0.5,0.5c-0.2,0.6-0.1,0.8-0.3,1.2
	c-0.2,0.4-0.4,0.7,0,0.8c0.4,0,0.6-0.2,0.7,0.2c0,0.3,0,0.6-0.1,0.8c-0.1,0.3,0.4,0.8-0.1,0.8c-0.5,0-0.8-0.3-1.1-0.4
	C40.2,39,40.2,39,40.2,39z"></path><path class="st6" d="M38.4,38.3c0.4,0.2,1.1,0.8,1.4,0.7c0.4,0,0.7-0.7,0.7-1.1c0-0.4,0.3-0.9-0.1-1.1c-0.4-0.3-1.2-0.7-1.2-0.7
	s0.1,0-0.2,0.1c-0.3,0.1-0.8-0.4-0.8,0.2c0,0.6,0,0.2,0,0.7S38.4,38.3,38.4,38.3z"></path><path class="st7" d="M38.2,37.9c0.2,0.4,0.6,0.3,0.9,0.1c0.3-0.2,0.5-0.1,0.5-0.7c0.1-0.5,0.4-1-0.1-1c-0.5,0-0.1,0-0.5,0
	c-0.5-0.1-0.8-0.1-0.8,0.2c0,0.3,0,0.2,0,0.5c0,0.3-0.3,0.6-0.3,0.6L38.2,37.9z"></path><path class="st0" d="M80.6,90.9C80.6,90.9,80.6,90.9,80.6,90.9c2.8-0.7,5.1-6,4.7-9.9c-0.4-3.9-9.9-14.7-15.5-20L69.4,61
	c2.5,4.4,5.3,13,5.6,13.8C75.3,75.6,78.9,86,80.6,90.9z"></path><path class="st1" d="M68.9,62.8c0,0.2-1,11.7,0.7,20.6c1.7,8.9,8.1,8.2,10.9,7.5c-1.7-4.9-5.2-15.3-5.5-16C74.7,74,72,65.5,69.4,61
	l-0.5,0.1C68.9,61.1,68.9,62.6,68.9,62.8z"></path><path class="st0" d="M68.7,58.4c0.3,0.7,0.6,1.4,0.8,2c0.3-0.8,0.2-2.1,0.2-2.1s2.2-8.8,1.8-14.2c-0.4-5.4-8.8-7.7-10.9-7.4
	c-0.6,0.1-1.3,0.2-1.9,0.5c1.1,2.6,6,12.3,6.4,12.5C65.3,50,67.2,54.8,68.7,58.4z"></path><path class="st1" d="M53.6,43.2c-1.7,5.2,7.4,11,8.4,11.7c1,0.7,6.4,6.5,7,6.2c0.2-0.1,0.4-0.3,0.5-0.6c-0.2-0.6-0.5-1.3-0.8-2
	c-1.4-3.7-3.4-8.5-3.7-8.7c-0.4-0.2-5.4-9.9-6.4-12.5C56.8,38,54.8,39.5,53.6,43.2z"></path><path class="st8" d="M93.9,54.2c-2.4,0.5-17.3,4.1-24.9,5.7c0.1,0.2,0.2,0.3,0.2,0.5c0,0.3,1.1,0.5,1.1,0.5
	c14.7,3.7,19.4,6,23.9,4.4c4-1.4,9.5-5.5,8.2-11.5C99.6,53.7,95.8,53.8,93.9,54.2z"></path><path class="st9" d="M83.1,47.8c-11.4,5.8-13.7,10.7-14,11.2c-0.2,0.3-0.1,0.6,0,0.8c7.6-1.6,22.5-5.2,24.9-5.7
	c1.9-0.4,5.8-0.4,8.6-0.5c-0.2-0.8-0.4-1.6-0.8-2.4C98,43.9,94.5,42,83.1,47.8z"></path><path class="st1" d="M66.5,60.9C64.3,61.4,52,69.4,49,71.8c-1.9,1.5-5.1,4.1-7.9,6.5c0.6,1.9,1.3,3.6,1.9,4.9
	c2.2,4.3,9.1,0.2,11.9-2.4c2.8-2.6,13.9-20.2,13.9-20.2s0.3-0.8,0.1-1.4C68.2,59.8,68.3,60.6,66.5,60.9z"></path><path class="st10" d="M64.5,58.2c-1.1-0.2-15.3,3-16.4,3.6c-1.1,0.6-2.5,2.2-6.4,4.6c-2.7,1.7-2,7.2-0.6,11.8c2.8-2.3,6-5,7.9-6.5
	c3-2.4,15.3-10.4,17.5-10.8c1.7-0.4,1.7-1.2,2.4-1.9c-0.1-0.2-0.2-0.4-0.4-0.5C67.7,58.1,65.6,58.4,64.5,58.2z"></path><path class="st4" d="M82,52.4c-5,0.3-8,2.1-9.2,3.6c-1,1.3-3.6,2.1-3.6,3.3c8.2-1,12.9,0.5,16.7,1.8C86.3,58.9,86.6,52.2,82,52.4z"></path><path class="st11" d="M69.4,59.8c1,1.4,1,1.4,1,1.4c7.9,3.4,11,5.4,12.9,4.3c1.9-1.2,1.9-2.5,2.4-3.9c0-0.1,0.1-0.3,0.1-0.5
	c-3.7-1.4-8.5-2.8-16.7-1.8C69.2,59.5,69.3,59.6,69.4,59.8z"></path><path class="st4" d="M57.9,81.9c1.1-3.1,7.2-15.7,11.9-22.2c0,0-5.8,5.3-6.4,6c-0.7,0.7-7,8.4-7.7,11.5
	C55.3,78.8,56.5,80.6,57.9,81.9z"></path><path class="st12" d="M57.9,81.9c1.2,1.1,2.5,1.8,3.4,1.8c1.8,0.1,4.5-3.3,5.2-5.5c0.7-2.1,3.3-17.1,3.3-18.6
	C65.1,66.1,59,78.8,57.9,81.9z"></path><path class="st5" d="M68.2,59.9c0.1,0.1,0.6,0.1,0.7,0.8s0.2,1.3-0.1,1.1c-0.4-0.2-0.7-0.4-0.7-0.4s0.3,0.2,0.2,0.6
	c-0.1,0.3-0.7,0.1-0.7,0.1s-0.2-0.2-0.3-0.3c-0.1-0.1-0.3-0.7-0.3-0.7s-0.2,0.7-0.5,1c-0.3,0.3-0.8,0.3-1,0.4
	c-0.2,0-0.4-0.1-0.4-0.4c0-0.3-0.1-0.6-0.1-0.6s-0.5,0.2-0.8-0.2c-0.3-0.4,0-0.9,0.4-1.2c0.4-0.3,0.8-0.5,0.6-0.7
	c-0.2-0.2-0.8-0.3-0.4-0.6c0.4-0.3,1.1-0.4,1-0.5c0-0.1-1-0.7-0.9-1.3c0.2-0.6,0.2-0.8,0.6-0.8c0.5,0,0.6,0,1,0
	c0.4-0.1,0.5-0.7,0.7,0s0.4,0.8,0.5,1.3c0.1,0.5,0.2,1,0.5,0.7c0.3-0.3,0.4-0.7,0.6-0.4c0.2,0.3,0.4,0.5,0.5,0.8
	c0.1,0.3,0.8,0.4,0.4,0.8s-0.8,0.4-1.1,0.5S68.2,59.9,68.2,59.9z"></path><path class="st6" d="M66.4,60.7c0.4-0.1,1.3-0.2,1.6-0.5c0.3-0.3,0.1-1.1-0.2-1.5c-0.3-0.4-0.4-1-0.8-0.9s-1.4,0.4-1.4,0.4
	s0.1,0-0.1,0.3c-0.2,0.3-0.9,0.3-0.5,0.8c0.4,0.5,0.1,0.2,0.4,0.7S66.4,60.7,66.4,60.7z"></path><path class="st7" d="M66,60.5c0.4,0.2,0.6-0.3,0.7-0.7s0.3-0.5,0-1c-0.3-0.5-0.4-1.2-0.8-0.8s0,0.1-0.4,0.4
	c-0.4,0.3-0.7,0.6-0.5,0.8c0.2,0.3,0.1,0.2,0.3,0.4c0.1,0.3,0.2,0.8,0.2,0.8L66,60.5z"></path><path class="st5" d="M71,60.3c0-0.1-0.5-0.4-0.2-1c0.3-0.5,0.4-1.1,0.6-0.7s0.4,0.7,0.4,0.7s-0.2-0.3,0.1-0.5
	c0.3-0.2,0.7,0.3,0.7,0.3s0.1,0.3,0.1,0.4s-0.1,0.7-0.1,0.7s0.5-0.4,0.9-0.5c0.4,0,0.8,0.2,1,0.3c0.2,0.1,0.3,0.3,0.2,0.5
	c-0.1,0.2-0.2,0.5-0.2,0.5s0.5,0.2,0.6,0.6c0.1,0.4-0.4,0.7-0.9,0.7c-0.5,0-0.9-0.1-0.8,0.2c0.1,0.2,0.5,0.7,0.1,0.7
	c-0.5,0-1.1-0.3-1.1-0.2c0,0.1,0.5,1.1,0.1,1.4c-0.4,0.3-0.5,0.5-0.9,0.2c-0.4-0.3-0.5-0.4-0.9-0.6c-0.4-0.2-0.7,0.2-0.6-0.4
	c0.1-0.6,0-0.8,0.1-1.2c0.1-0.4,0.3-0.8-0.1-0.8c-0.4,0-0.6,0.3-0.7-0.1c0-0.3-0.1-0.6,0-0.8s-0.5-0.7,0-0.8
	c0.5-0.1,0.9,0.2,1.2,0.2S71,60.3,71,60.3z"></path><path class="st6" d="M72.8,60.7c-0.4-0.2-1.2-0.6-1.5-0.5c-0.3,0.1-0.6,0.8-0.5,1.2c0,0.4-0.2,0.9,0.3,1.1c0.4,0.2,1.3,0.5,1.3,0.5
	s-0.1,0,0.2-0.2c0.3-0.1,0.9,0.3,0.8-0.3c-0.1-0.6,0-0.2-0.1-0.7S72.8,60.7,72.8,60.7z"></path><path class="st7" d="M73.1,61.1c-0.3-0.4-0.7-0.2-0.9,0.1s-0.4,0.2-0.4,0.7c0,0.6-0.3,1.1,0.3,1c0.5-0.1,0.1-0.1,0.5-0.1
	s0.8,0,0.8-0.3c0-0.3-0.1-0.2-0.1-0.5c0-0.3,0.2-0.7,0.2-0.7L73.1,61.1z"></path><path class="st0" d="M16.6,87.6C16.6,87.6,16.6,87.6,16.6,87.6c1.4,2.7,6.9,3.6,10.3,2.1c3.4-1.4,10.7-14.1,13.9-21.3l-0.1-0.3
	c-3.3,3.8-10.4,8.9-11,9.5C29,78.1,20.5,84.6,16.6,87.6z"></path><path class="st1" d="M38.9,68.1c-0.1,0.1-10.9,2.1-18.5,6.3c-7.6,4.2-5.2,10.5-3.8,13.2c3.9-3,12.4-9.5,13-10
	c0.7-0.5,7.7-5.7,11-9.5l-0.2-0.5C40.4,67.6,39,68,38.9,68.1z"></path><path class="st13" d="M42.7,66.6c-0.6,0.5-1.2,1-1.6,1.4c0.8,0.1,1.9-0.3,1.9-0.3s8.6-0.2,13.4-2.1c4.7-1.9,4.6-11,3.8-13.2
	c-0.2-0.6-0.5-1.2-1-1.9c-2.1,1.8-9.5,9.5-9.6,10C49.5,60.9,45.7,64.2,42.7,66.6z"></path><path class="st1" d="M52.5,47.1c-5.1-0.3-8,10.6-8.4,11.7c-0.4,1.2-4.1,8.3-3.7,8.8c0.2,0.2,0.4,0.3,0.7,0.4c0.5-0.4,1-0.9,1.6-1.4
	c2.9-2.5,6.8-5.7,6.9-6.1c0.1-0.5,7.5-8.2,9.6-10C58.1,48.9,56.2,47.3,52.5,47.1z"></path><path class="st1" d="M53.5,91.2c-1.1-2.3-8.4-16.5-11.9-23.8c-0.1,0.1-0.2,0.3-0.4,0.3c-0.3,0.1-0.2,1.2-0.2,1.2
	c0.6,16.1-0.2,21.5,2.5,25.7c2.4,3.7,7.6,8.3,12.7,5.3C55.4,97,54.4,93.1,53.5,91.2z"></path><path class="st0" d="M56.3,78.5c-8.4-10-13.4-11.1-14-11.3c-0.3-0.1-0.5,0-0.7,0.2c3.5,7.3,10.8,21.6,11.9,23.8
	c0.9,1.9,2,5.8,2.8,8.6c0.6-0.4,1.3-0.9,1.9-1.5C63.9,92.7,64.7,88.5,56.3,78.5z"></path><path class="st1" d="M39.9,65.1c-1-2.2-11.6-12.5-14.6-15c-1.9-1.5-5.1-4.1-8-6.3c-1.6,1.1-2.9,2.3-3.9,3.3
	c-3.3,3.4,2.3,9.3,5.4,11.5c3.1,2.1,22.1,8.7,22.1,8.7s0.8,0,1.3-0.3C41.4,66.6,40.7,66.8,39.9,65.1z"></path><path class="st14" d="M41.8,62.3c-0.2-1.2-6.9-14.8-7.7-15.8c-0.8-1-2.7-2-5.9-5.2c-2.3-2.3-7.1-0.1-10.9,2.5c2.9,2.2,6.1,4.8,8,6.3
	c3,2.5,13.5,12.8,14.6,15c0.8,1.7,1.5,1.4,2.4,1.9c0.2-0.1,0.3-0.3,0.4-0.5C42.8,65.6,42,63.5,41.8,62.3z"></path><path class="st4" d="M51.8,78.6c-1.6-5.1-4.1-7.5-5.7-8.4c-1.4-0.7-2.9-3.1-3.9-2.8c3.1,8.1,3.1,13.3,2.9,17.5
	C47.1,84.8,53.3,83.2,51.8,78.6z"></path><path class="st0" d="M41.7,67.8c-1,1.4-1,1.4-1,1.4c-0.9,8.9-1.9,12.7-0.4,14.4c1.6,1.7,2.8,1.3,4.2,1.3c0.1,0,0.3,0,0.5,0
	c0.2-4.2,0.2-9.4-2.9-17.5C42,67.5,41.8,67.6,41.7,67.8z"></path><path class="st4" d="M18.6,62c3.1,0.3,16.2,3.1,23.4,6.1c0,0-6.4-4.4-7.2-4.9c-0.9-0.5-9.5-4.8-12.5-4.7
	C20.7,58.5,19.4,60.2,18.6,62z"></path><path class="st0" d="M18.6,62c-0.6,1.5-0.9,3.1-0.7,3.9c0.4,1.9,4.2,3.7,6.4,3.8c2.1,0.2,16.4-1.3,17.8-1.6
	C34.8,65.1,21.6,62.3,18.6,62z"></path><path class="st5" d="M41.3,66.6c-0.1,0.1,0.1,0.7-0.6,0.9c-0.6,0.3-1.1,0.6-1,0.1c0.1-0.4,0.2-0.9,0.2-0.9s-0.1,0.4-0.5,0.4
	c-0.3,0-0.3-0.7-0.3-0.7s0.2-0.3,0.2-0.4c0.1-0.1,0.6-0.5,0.6-0.5s-0.7,0-1.1-0.2c-0.3-0.2-0.5-0.7-0.6-1c-0.1-0.2-0.1-0.4,0.2-0.5
	c0.3-0.1,0.6-0.3,0.6-0.3s-0.3-0.5,0-0.9c0.3-0.4,0.8-0.3,1.2,0c0.4,0.3,0.7,0.7,0.8,0.4c0.1-0.3,0.1-1,0.4-0.6
	c0.3,0.3,0.7,1,0.8,0.9s0.4-1.3,0.9-1.2c0.6,0,0.8-0.1,0.9,0.4c0.1,0.5,0.1,0.6,0.3,1c0.2,0.4,0.7,0.3,0.2,0.8s-0.6,0.6-1,0.9
	C43,65.6,42.6,65.7,43,66c0.4,0.3,0.7,0.2,0.5,0.5c-0.2,0.3-0.3,0.5-0.6,0.7c-0.2,0.2-0.1,0.9-0.6,0.6c-0.5-0.3-0.6-0.7-0.8-1
	C41.3,66.6,41.3,66.6,41.3,66.6z"></path><path class="st6" d="M40.1,65c0.2,0.4,0.5,1.3,0.9,1.5c0.3,0.2,1-0.3,1.3-0.6c0.3-0.4,0.8-0.6,0.6-1.1s-0.7-1.3-0.7-1.3
	s0.1,0.1-0.3,0s-0.5-0.8-0.9-0.3c-0.3,0.5-0.1,0.2-0.5,0.6S40.1,65,40.1,65z"></path><path class="st7" d="M40.1,64.5c-0.1,0.5,0.4,0.6,0.8,0.5s0.5,0.1,0.9-0.3s1-0.7,0.5-1c-0.5-0.3-0.1,0-0.5-0.3
	c-0.4-0.3-0.7-0.5-0.9-0.3s-0.1,0.2-0.3,0.4c-0.2,0.2-0.6,0.4-0.6,0.4L40.1,64.5z"></path><path class="st5" d="M41.7,69.5c0.1-0.1,0.3-0.6,0.8-0.5c0.6,0.1,1.1,0.1,0.8,0.4c-0.3,0.3-0.5,0.6-0.5,0.6s0.3-0.3,0.5,0
	c0.2,0.2-0.1,0.8-0.1,0.8S42.9,71,42.8,71c-0.1,0-0.7,0.1-0.7,0.1s0.5,0.4,0.7,0.8c0.1,0.4,0,0.9,0,1.1c0,0.2-0.2,0.4-0.4,0.3
	s-0.5-0.1-0.5-0.1s0,0.6-0.4,0.7c-0.4,0.2-0.7-0.2-0.8-0.7s-0.2-1-0.4-0.8c-0.2,0.2-0.5,0.7-0.6,0.3c-0.1-0.5,0-1.2-0.1-1.2
	c-0.1,0-0.9,0.8-1.2,0.5c-0.4-0.3-0.6-0.4-0.4-0.8s0.2-0.6,0.3-1c0.1-0.5-0.4-0.7,0.2-0.7c0.6-0.1,0.7-0.2,1.1-0.2
	c0.4,0,0.8,0.1,0.7-0.3s-0.4-0.6-0.1-0.7c0.3-0.1,0.5-0.3,0.8-0.3c0.3,0,0.5-0.7,0.7-0.2c0.2,0.5,0.1,0.9,0.1,1.3
	S41.7,69.5,41.7,69.5z"></path><path class="st6" d="M41.8,71.5c0-0.4,0.2-1.4,0.1-1.7c-0.2-0.3-0.9-0.4-1.3-0.2c-0.4,0.2-0.9,0.1-0.9,0.6s-0.1,1.5-0.1,1.5
	s0-0.1,0.2,0.2s0,1,0.5,0.7s0.2-0.1,0.7-0.3S41.8,71.5,41.8,71.5z"></path><path class="st7" d="M41.5,71.9c0.3-0.4,0-0.7-0.3-0.9c-0.3-0.2-0.3-0.4-0.8-0.3c-0.5,0.1-1,0-0.8,0.6c0.2,0.5,0.1,0,0.2,0.5
	c0.1,0.5,0.2,0.8,0.5,0.7c0.3-0.1,0.2-0.1,0.4-0.2c0.2-0.1,0.6,0,0.6,0L41.5,71.9z"></path><path class="st0" d="M55.4,17.2C55.4,17.2,55.4,17.2,55.4,17.2c2.5-1.7,7.6,0.4,10,3.4c2.3,3,3,17.8,2.5,25.8l-0.3,0.2
	c-1.2-5-5-13.1-5.3-13.9C61.9,31.9,57.5,21.8,55.4,17.2z"></path><path class="st1" d="M66,45.7c-0.1-0.1-8.5-7.4-13.3-15c-4.7-7.5,0.2-11.9,2.7-13.5c2.1,4.7,6.6,14.7,6.8,15.4
	c0.3,0.8,4.1,8.9,5.3,13.9l-0.4,0.3C67.1,46.9,66.1,45.8,66,45.7z"></path><path class="st0" d="M68.7,48.9c-0.3-0.7-0.6-1.4-0.8-2c0.8,0.3,1.5,1.3,1.5,1.3s7.5,4.6,10.8,8.7c3.3,4.1-1,12.1-2.7,13.5
	c-0.5,0.4-1,0.8-1.7,1.1c-1-2.6-4-13.2-3.9-13.6C72.1,57.5,70.2,52.6,68.7,48.9z"></path><path class="st1" d="M68.4,71c-4.6-2.4-2.2-13.3-2-14.6c0.2-1.2,0.2-9.4,0.8-9.6c0.2-0.1,0.5-0.1,0.8,0c0.2,0.6,0.5,1.3,0.8,2
	c1.5,3.7,3.3,8.5,3.2,8.8c-0.1,0.5,2.9,11,3.9,13.6C74.1,72.3,71.7,72.8,68.4,71z"></path><path class="st1" d="M89.3,32.9c-2,1.4-14.8,10.2-21.3,14.8c-0.1-0.2-0.1-0.3-0.2-0.5c-0.2-0.3,0.4-1.2,0.4-1.2
	c7.8-13.8,9.6-18.9,13.9-21.2c3.8-2,10.4-3.4,13.5,1.9C93.7,28.9,91,31.7,89.3,32.9z"></path><path class="st0" d="M86,45.5c-11.9,4.5-16.8,2.8-17.4,2.7c-0.3-0.1-0.5-0.3-0.5-0.5c6.4-4.6,19.3-13.3,21.3-14.8
	c1.6-1.2,4.3-4.1,6.4-6.1c0.4,0.7,0.7,1.4,1,2.3C99.1,37,97.9,41,86,45.5z"></path><path class="st1" d="M65.6,48.8c-1.9,1.4-15.8,5-19.6,5.6c-2.3,0.4-6.4,1-9.9,1.4c-0.9-1.8-1.5-3.5-1.9-4.9c-1.3-4.6,6.2-7,9.9-7.3
	c3.7-0.3,23.3,3.7,23.3,3.7s0.7,0.4,1,0.9C67.5,48.3,67,47.8,65.6,48.8z"></path><path class="st0" d="M66,52.2c-0.7,1-12.8,9.4-13.9,9.9c-1.2,0.4-3.3,0.3-7.6,1.5c-3.1,0.8-6.3-3.5-8.4-7.8c3.5-0.5,7.5-1,9.9-1.4
	c3.7-0.6,17.7-4.2,19.6-5.6c1.5-1.1,2-0.5,2.9-0.4c0.1,0.2,0.2,0.4,0.1,0.6C68.3,49.9,66.7,51.3,66,52.2z"></path><path class="st4" d="M82.1,43.1c-3.7,3.6-7,4.5-8.8,4.4c-1.6-0.1-4,1.2-4.7,0.4c6.4-5.5,8.8-10.1,10.5-13.9
	C80.9,35.3,85.5,39.8,82.1,43.1z"></path><path class="st0" d="M68.3,47.4c-0.2-1.8-0.2-1.8-0.2-1.8c3.3-8.3,4.1-12.1,6.2-12.8c2.1-0.6,3,0.3,4.3,1c0.1,0.1,0.3,0.1,0.4,0.3
	c-1.7,3.8-4.1,8.4-10.5,13.9C68.4,47.8,68.4,47.6,68.3,47.4z"></path><path class="st4" d="M45.5,40.6c2.8,1.3,15.6,5.6,23.3,6.6c0,0-7.6,0.6-8.6,0.6c-1,0-10.5-0.6-13.1-2.2
	C45.7,44.7,45.3,42.6,45.5,40.6z"></path><path class="st0" d="M45.5,40.6c0.1-1.6,0.6-3.2,1.1-3.8c1.2-1.4,5.4-1,7.3-0.1c2,0.9,13.8,9.5,14.8,10.5
	C61.1,46.2,48.3,41.9,45.5,40.6z"></path><path class="st5" d="M67.4,48.2c0-0.2,0.4-0.6-0.1-1.1c-0.4-0.5-0.7-1.1-0.8-0.7c-0.1,0.4-0.2,0.8-0.2,0.8s0.1-0.4-0.2-0.5
	s-0.6,0.5-0.6,0.5s0,0.3,0,0.5s0.3,0.8,0.3,0.8s-0.6-0.4-1-0.3c-0.4,0-0.8,0.4-1,0.5c-0.2,0.1-0.3,0.4-0.1,0.6
	c0.2,0.2,0.4,0.5,0.4,0.5s-0.5,0.3-0.4,0.7c0,0.5,0.6,0.7,1.1,0.6c0.5-0.1,0.9-0.2,0.9,0c0,0.3-0.4,0.9,0.1,0.7s1-0.5,1.1-0.4
	c0,0.1-0.3,1.3,0.3,1.5s0.6,0.4,1,0.1s0.4-0.5,0.7-0.8c0.3-0.3,0.8,0.1,0.5-0.6c-0.3-0.7-0.2-0.8-0.5-1.3s-0.5-0.8-0.1-0.9
	c0.4,0,0.7,0.2,0.7-0.2s-0.1-0.6-0.2-0.9c-0.1-0.3,0.3-0.9-0.2-0.9c-0.5,0-0.8,0.3-1.1,0.5C67.4,48.2,67.4,48.2,67.4,48.2z"></path><path class="st6" d="M65.6,49c0.3-0.2,1-0.8,1.4-0.8s0.8,0.8,0.9,1.2c0.1,0.5,0.4,1,0,1.3c-0.4,0.3-1.2,0.7-1.2,0.7s0.1,0-0.3-0.1
	c-0.4-0.1-0.8,0.4-0.9-0.2c-0.1-0.6,0-0.2-0.1-0.8S65.6,49,65.6,49z"></path><path class="st7" d="M65.5,49.5c0.2-0.5,0.6-0.3,0.9-0.1c0.3,0.2,0.5,0.1,0.7,0.7s0.5,1.1,0,1.1c-0.6,0-0.1,0-0.6,0
	c-0.5,0.1-0.9,0.1-0.9-0.2s0-0.2-0.1-0.5s-0.4-0.7-0.4-0.7L65.5,49.5z"></path><path class="st5" d="M69.1,45.9c0.1,0.1,0,0.7,0.5,0.8c0.6,0.2,1,0.4,0.9,0c-0.1-0.4-0.2-0.8-0.2-0.8s0.1,0.4,0.4,0.3
	c0.3-0.1,0.3-0.7,0.3-0.7s-0.1-0.3-0.2-0.4c-0.1-0.1-0.5-0.4-0.5-0.4s0.7-0.1,0.9-0.3c0.3-0.3,0.4-0.8,0.5-1c0.1-0.2,0-0.4-0.2-0.5
	c-0.2-0.1-0.5-0.2-0.5-0.2s0.2-0.5,0-0.8S70.3,41.6,70,42s-0.6,0.7-0.7,0.5c-0.1-0.2-0.1-0.9-0.4-0.5c-0.3,0.4-0.6,1-0.6,1
	c-0.1-0.1-0.4-1.2-0.9-1.1c-0.5,0.1-0.7,0-0.8,0.5s-0.1,0.6-0.2,1c-0.1,0.4-0.6,0.4-0.1,0.8c0.5,0.4,0.5,0.5,0.9,0.7
	c0.4,0.2,0.8,0.3,0.4,0.6c-0.3,0.3-0.6,0.3-0.4,0.6c0.2,0.3,0.3,0.5,0.5,0.6c0.2,0.1,0.1,0.9,0.6,0.5s0.5-0.8,0.7-1
	C69.1,45.9,69.1,45.9,69.1,45.9z"></path><path class="st6" d="M70.1,44.2c-0.2,0.4-0.4,1.3-0.7,1.5c-0.3,0.2-0.9-0.1-1.2-0.5c-0.3-0.3-0.7-0.5-0.6-1c0.2-0.5,0.6-1.3,0.6-1.3
	s-0.1,0.1,0.3-0.1c0.3-0.1,0.4-0.8,0.8-0.4c0.3,0.5,0.1,0.2,0.5,0.6C70.1,43.5,70.1,44.2,70.1,44.2z"></path><path class="st7" d="M70,43.7c0.1,0.5-0.4,0.6-0.7,0.6c-0.3,0-0.4,0.2-0.8-0.2c-0.4-0.4-0.9-0.5-0.5-0.9c0.4-0.4,0.1,0,0.4-0.4
	c0.3-0.4,0.6-0.6,0.8-0.4s0.1,0.2,0.3,0.4c0.2,0.2,0.6,0.3,0.6,0.3L70,43.7z"></path></g></svg>