<?xml version="1.0" encoding="utf-8"?>
<!-- Generator: Adobe Illustrator 23.1.1, SVG Export Plug-In . SVG Version: 6.00 Build 0)  -->
<svg version="1.1" id="Layer_1" xmlns="http://www.w3.org/2000/svg" xmlns:xlink="http://www.w3.org/1999/xlink" x="0px" y="0px"
	 viewBox="0 0 108 108" style="enable-background:new 0 0 108 108;" xml:space="preserve">
<style type="text/css">
	.st0{fill:#DF8D90;}
	.st1{fill:#D36B74;}
	.st2{fill:#831524;}
	.st3{fill:#BA5E67;}
	.st4{fill:#87AC4A;}
	.st5{fill:#A5BE3B;}
	.st6{fill:#AFCB36;}
	.st7{fill:#A5C239;}
	.st8{fill:#778D39;}
	.st9{fill:#A4C839;}
	.st10{fill:#92B83F;}
</style>
<g>
	<g>
		<path class="st0" d="M65.18,85.52l-1.02,7.43c0,0-1,0.5-1.41,0.2c-0.4-0.31-0.79-0.5-0.79-0.5l0.97-7.08L65.18,85.52z"/>
		<path class="st1" d="M59.32,55.57c-0.04,0.29,0.09,0.57,0.32,0.73c-0.1,0.11-0.16,0.25-0.19,0.4c-0.05,0.34,0.14,0.65,0.42,0.79
			c-0.04,0.07-0.06,0.15-0.08,0.24c-0.04,0.28,0.09,0.55,0.3,0.71c-0.08,0.1-0.14,0.23-0.16,0.37c-0.04,0.32,0.11,0.61,0.37,0.77
			c-0.19,0.12-0.33,0.31-0.37,0.55c-0.04,0.26,0.06,0.51,0.25,0.67c-0.22,0.11-0.38,0.32-0.42,0.58c-0.03,0.25,0.06,0.49,0.23,0.65
			c-0.12,0.12-0.2,0.27-0.23,0.44c-0.04,0.28,0.08,0.54,0.28,0.7c-0.15,0.12-0.26,0.29-0.29,0.5c-0.06,0.42,0.23,0.8,0.64,0.86
			c-0.15,0.12-0.26,0.29-0.29,0.5c-0.06,0.42,0.24,0.81,0.66,0.87c0.11,0.01,0.22,0.01,0.31-0.02c-0.02,1.92-0.38,4.63-0.38,4.63
			c-0.42,0.06-0.71,0.45-0.65,0.87c0.03,0.18,0.12,0.34,0.24,0.45c-0.12,0.16-0.17,0.36-0.14,0.57c0.04,0.29,0.24,0.51,0.49,0.61
			c-0.29,0.2-0.41,0.58-0.27,0.92c0.01,0.03,0.03,0.06,0.04,0.08c-0.16,0.09-0.28,0.24-0.34,0.4c-0.09,0-0.19,0.02-0.28,0.06
			c-0.39,0.16-0.58,0.61-0.42,1c0.02,0.05,0.05,0.1,0.08,0.14c-0.1,0.19-0.12,0.42-0.03,0.64c0.05,0.11,0.12,0.21,0.2,0.28
			c-0.32,0.19-0.47,0.59-0.32,0.95c0.06,0.15,0.17,0.27,0.29,0.35c-0.25,0.21-0.36,0.56-0.23,0.88c0.06,0.14,0.16,0.26,0.27,0.34
			c-0.26,0.21-0.36,0.56-0.23,0.89c0.1,0.25,0.33,0.42,0.58,0.46c-0.15,0.21-0.19,0.48-0.09,0.74c0.08,0.2,0.25,0.35,0.44,0.43
			c-0.15,0.21-0.19,0.48-0.09,0.74c0.04,0.1,0.1,0.19,0.18,0.26c-0.34,0.19-0.49,0.6-0.34,0.96c0.05,0.13,0.14,0.23,0.24,0.31
			c0,0.03-0.01,0.06-0.01,0.1c-0.39,0.16-0.58,0.61-0.42,1c0,0,0,0.01,0.01,0.01c-0.37,0.17-0.54,0.6-0.39,0.98
			c0.05,0.12,0.13,0.22,0.23,0.3c-0.18,0.21-0.24,0.51-0.13,0.79c0.16,0.39,0.61,0.58,1,0.42c0.12-0.05,0.22-0.13,0.3-0.22
			c0.01,0,0.02,0.01,0.02,0.01c-0.01,0.12,0,0.25,0.05,0.38c0.16,0.39,0.61,0.58,1,0.42c0.3-0.12,0.48-0.41,0.48-0.71
			c0.15,0.04,0.32,0.03,0.48-0.03c0.15-0.06,0.28-0.17,0.36-0.3c0.21,0.21,0.54,0.28,0.83,0.16c0.09-0.04,0.16-0.09,0.23-0.15
			c0.17,0.37,0.6,0.55,0.99,0.39c0.09-0.04,0.17-0.09,0.24-0.16c0.2,0.13,0.46,0.16,0.7,0.06c0.23-0.09,0.38-0.28,0.44-0.5
			c0.06-0.01,0.12-0.02,0.18-0.05c0.27-0.11,0.43-0.35,0.47-0.61c0.15,0.04,0.31,0.03,0.47-0.03c0.27-0.11,0.44-0.36,0.47-0.63
			c0.08-0.01,0.16-0.02,0.24-0.05c0.2-0.08,0.35-0.24,0.42-0.43c0.14-0.05,0.28-0.1,0.43-0.15c0.59-0.17,0.85-0.42,0.93-0.69
			c0.27-0.14,0.44-0.43,0.41-0.74c-0.02-0.27-0.19-0.5-0.41-0.62c0.15-0.15,0.24-0.37,0.22-0.6c-0.03-0.42-0.41-0.74-0.83-0.7
			c-0.01,0-0.01,0-0.02,0c-0.06-0.2-0.12-0.4-0.19-0.56c-0.2-0.56-0.1-1.11-0.19-1.69c-0.02-0.14-0.03-0.27-0.04-0.4
			c0.27-0.14,0.45-0.43,0.43-0.75c-0.03-0.4-0.37-0.7-0.76-0.7c0.15-0.12,0.26-0.29,0.29-0.5c0.06-0.42-0.24-0.81-0.66-0.87
			c-0.08-0.01-0.15-0.01-0.23,0.01c0-0.01,0.01-0.02,0.01-0.04c0.06-0.42-0.24-0.81-0.66-0.87c-0.05-0.01-0.11-0.01-0.16-0.01
			c0.02-0.28-0.12-0.54-0.35-0.69c0.35-0.03,0.64-0.3,0.69-0.66c0.02-0.14,0-0.27-0.05-0.39c0.34-0.04,0.62-0.3,0.67-0.66
			c0.06-0.42-0.24-0.81-0.66-0.87c0.1-0.76,0.96-1.16,0.96-1.16s0,0,0.11-0.79c0.11-0.79,0,0,1.06-0.66c1.06-0.66,0,0,0.5-0.74
			c0.16-0.23,0.29-0.51,0.38-0.78c0.34-0.04,0.63-0.3,0.68-0.66c0.02-0.15-0.01-0.3-0.07-0.43c0.29-0.08,0.52-0.32,0.57-0.64
			c0.04-0.31-0.11-0.6-0.35-0.75c0.28-0.08,0.5-0.32,0.54-0.63c0.04-0.26-0.07-0.51-0.25-0.68c0.18-0.12,0.32-0.31,0.35-0.54
			c0.05-0.38-0.18-0.72-0.53-0.83c0.16-0.12,0.28-0.3,0.31-0.51c0.02-0.17-0.02-0.34-0.1-0.48c0.19-0.12,0.32-0.31,0.35-0.54
			c0.03-0.23-0.04-0.44-0.18-0.6c0.11-0.11,0.18-0.26,0.2-0.42c0.03-0.21-0.03-0.42-0.16-0.58c0.16-0.12,0.28-0.3,0.31-0.51
			c0.05-0.34-0.14-0.65-0.43-0.79c0.12-0.12,0.21-0.27,0.23-0.45c0.04-0.29-0.09-0.57-0.32-0.73c0.1-0.11,0.16-0.25,0.19-0.4
			c0.03-0.24-0.05-0.46-0.2-0.63c0.12-0.12,0.21-0.27,0.23-0.45c0.03-0.25-0.06-0.48-0.22-0.65c0.2-0.11,0.35-0.32,0.39-0.56
			c0.04-0.28-0.08-0.54-0.29-0.7c0.24-0.1,0.43-0.32,0.47-0.6c0.04-0.31-0.11-0.6-0.35-0.75c0.11-0.11,0.19-0.26,0.21-0.43
			c0.05-0.34-0.14-0.65-0.43-0.79c0.01-0.04,0.02-0.08,0.03-0.12c0.05-0.37-0.17-0.71-0.51-0.83c0.07-0.1,0.12-0.21,0.14-0.34
			c0.02-0.13,0-0.25-0.04-0.36c0.14-0.1,0.25-0.25,0.29-0.43c0.06-0.23,0-0.46-0.13-0.63c0.32-0.03,0.59-0.25,0.67-0.58
			c0.06-0.24,0-0.48-0.14-0.66c0.26-0.07,0.48-0.27,0.55-0.56c0.05-0.22,0.01-0.44-0.11-0.61c0.12-0.1,0.21-0.24,0.25-0.4
			c0.09-0.36-0.09-0.71-0.4-0.87c0.08-0.4-0.17-0.79-0.57-0.89c-0.19-0.05-0.37-0.02-0.53,0.06c-0.05-0.28-0.25-0.52-0.53-0.61
			c0.02-0.1,0.01-0.2-0.01-0.29c0.16-0.1,0.28-0.26,0.32-0.45c0.1-0.41-0.14-0.82-0.55-0.93c0.05-0.07,0.09-0.16,0.11-0.25
			c0.1-0.41-0.15-0.83-0.56-0.93c-0.03-0.01-0.06-0.01-0.09-0.01c0.05-0.09,0.09-0.19,0.1-0.29c0.04-0.28-0.08-0.55-0.3-0.71
			c0.22-0.11,0.39-0.32,0.42-0.59c0.05-0.35-0.15-0.68-0.46-0.81c0.09-0.11,0.15-0.23,0.17-0.38c0.03-0.25-0.06-0.5-0.23-0.66
			c0.13-0.12,0.23-0.28,0.25-0.47c0.03-0.23-0.05-0.45-0.19-0.61c0.33-0.05,0.61-0.3,0.66-0.65c0.03-0.24-0.05-0.47-0.21-0.63
			c0.26-0.1,0.45-0.32,0.49-0.61c0.04-0.28-0.08-0.54-0.29-0.71c0.18-0.12,0.31-0.31,0.34-0.54c0.06-0.42-0.24-0.81-0.66-0.87
			c-0.05-0.01-0.11-0.01-0.16,0c-0.11-0.21-0.32-0.36-0.57-0.4c-0.42-0.06-0.81,0.24-0.87,0.66c-0.01,0.05-0.01,0.1-0.01,0.14
			c-0.15,0-0.3,0.05-0.43,0.14c-0.25,0.18-0.37,0.48-0.31,0.77c-0.08,0.02-0.15,0.05-0.22,0.1c-0.3,0.21-0.41,0.6-0.27,0.93
			c-0.01,0-0.01,0.01-0.02,0.01c-0.26,0.18-0.37,0.48-0.31,0.77c-0.05,0.02-0.1,0.05-0.14,0.08c-0.28,0.19-0.38,0.54-0.29,0.84
			c-0.07,0.02-0.14,0.05-0.21,0.1c-0.35,0.24-0.43,0.72-0.19,1.07c-0.15,0.13-0.25,0.31-0.27,0.5c-0.09-0.03-0.19-0.05-0.29-0.04
			c-0.01-0.01-0.01-0.03-0.02-0.04c-0.24-0.35-0.72-0.43-1.07-0.19c-0.31,0.22-0.41,0.62-0.26,0.95c-0.13,0.01-0.25,0.05-0.36,0.13
			c-0.34,0.24-0.42,0.69-0.21,1.04c-0.09,0.02-0.17,0.06-0.25,0.11c-0.35,0.24-0.43,0.72-0.19,1.07c0.03,0.05,0.08,0.09,0.12,0.13
			c-0.12,0.24-0.1,0.54,0.06,0.77c0.07,0.09,0.15,0.17,0.24,0.22c-0.04,0.2-0.01,0.42,0.12,0.6c0.04,0.05,0.08,0.09,0.12,0.13
			c-0.04,0.08-0.06,0.16-0.07,0.24c-0.2-0.05-0.42-0.01-0.61,0.12c-0.08,0.06-0.15,0.13-0.2,0.21c-0.25-0.16-0.59-0.16-0.85,0.02
			c-0.3,0.21-0.4,0.59-0.27,0.91c-0.09,0.02-0.18,0.06-0.26,0.11c-0.35,0.24-0.43,0.72-0.19,1.07c0.1,0.15,0.25,0.25,0.42,0.29
			c-0.11,0.24-0.09,0.52,0.07,0.75c0.06,0.08,0.13,0.15,0.21,0.2c-0.24,0.26-0.27,0.66-0.06,0.96c0.03,0.04,0.06,0.07,0.09,0.1
			c-0.08,0.21-0.06,0.45,0.07,0.66c-0.1,0.01-0.2,0.05-0.3,0.1c-0.26-0.27-0.68-0.32-0.99-0.1c-0.16,0.11-0.26,0.28-0.31,0.46
			c-0.14,0.01-0.28,0.05-0.4,0.14c-0.35,0.24-0.43,0.72-0.19,1.07c0.1,0.14,0.24,0.24,0.4,0.29c-0.07,0.22-0.04,0.47,0.1,0.67
			c0.09,0.13,0.22,0.22,0.35,0.28c-0.05,0.21-0.02,0.44,0.11,0.63c0.05,0.07,0.12,0.13,0.19,0.18c-0.12,0.23-0.12,0.5,0.02,0.74
			c-0.14,0.12-0.24,0.29-0.27,0.48c-0.02,0.15,0.01,0.3,0.07,0.43c-0.05,0.37-0.11,0.81-0.27,1.18c-0.19,0.09-0.34,0.26-0.4,0.47
			c-0.09-0.05-0.18-0.08-0.29-0.1C59.77,54.86,59.38,55.15,59.32,55.57z M70.93,65.09c0.04,0.04,0.08,0.07,0.12,0.1
			c-0.05,0.02-0.1,0.04-0.15,0.06C70.91,65.2,70.92,65.14,70.93,65.09z M69.95,43.77c0.01,0,0.02,0.01,0.03,0.01c0,0,0,0,0,0
			C69.97,43.78,69.96,43.78,69.95,43.77z M60.63,79.08c-0.02-0.02-0.05-0.04-0.07-0.06c0.02-0.02,0.04-0.03,0.06-0.05
			C60.62,79.01,60.63,79.05,60.63,79.08z M69.42,40.67C69.42,40.67,69.42,40.67,69.42,40.67c0.01,0,0.01,0,0.02,0
			c-0.01,0.01-0.01,0.02-0.02,0.02C69.43,40.69,69.42,40.68,69.42,40.67z"/>
		<circle class="st2" cx="67.64" cy="41.74" r="1.28"/>
		<circle class="st2" cx="64.77" cy="45.91" r="1.28"/>
		<circle class="st2" cx="68.09" cy="56.09" r="1.28"/>
		<circle class="st2" cx="64.78" cy="53.06" r="1.28"/>
		<circle class="st2" cx="62.66" cy="61.35" r="1.28"/>
		<circle class="st2" cx="68.2" cy="64.69" r="1.28"/>
		<circle class="st3" cx="70.52" cy="61.14" r="1.28"/>
		<circle class="st3" cx="63.97" cy="57.27" r="1.28"/>
		<circle class="st0" cx="69.83" cy="43.33" r="1.28"/>
		<circle class="st0" cx="68.91" cy="35.12" r="1.28"/>
		<circle class="st0" cx="65.26" cy="40.11" r="1.28"/>
		<circle class="st0" cx="65.15" cy="43.13" r="1.28"/>
		<circle class="st0" cx="63.18" cy="48.08" r="1.28"/>
		<circle class="st0" cx="70.56" cy="48.16" r="1.28"/>
		<circle class="st0" cx="62.74" cy="52.78" r="1.28"/>
		<circle class="st0" cx="70.26" cy="57.4" r="1.28"/>
		<circle class="st0" cx="61.76" cy="58.46" r="1.28"/>
		<circle class="st0" cx="61.57" cy="75.81" r="1.28"/>
		<circle class="st0" cx="66.65" cy="58.77" r="1.28"/>
		<circle class="st0" cx="64.58" cy="64.16" r="1.28"/>
		<circle class="st0" cx="68.39" cy="67.69" r="1.28"/>
		<circle class="st0" cx="64.52" cy="71.89" r="1.28"/>
		<circle class="st0" cx="64.11" cy="79.56" r="1.28"/>
		<circle class="st3" cx="68.78" cy="52.64" r="1.28"/>
		<circle class="st3" cx="65.02" cy="49.62" r="1.28"/>
		<circle class="st3" cx="68.13" cy="45.45" r="1.28"/>
		<circle class="st3" cx="67.62" cy="37.77" r="1.28"/>
		<circle class="st3" cx="66.68" cy="60.88" r="1.28"/>
		<circle class="st3" cx="66.07" cy="68.93" r="1.28"/>
		<circle class="st3" cx="65.63" cy="76.71" r="1.28"/>
		<circle class="st3" cx="61.33" cy="78.31" r="1.28"/>
		<circle class="st3" cx="62.3" cy="84.49" r="1.28"/>
		<circle class="st2" cx="63.17" cy="74.46" r="1.28"/>
		<circle class="st2" cx="67.19" cy="83.51" r="1.28"/>
		<g>
			<path class="st4" d="M70.66,51.11c0-0.02,0.87-0.67,1.99-1.11c1.13-0.44,1.76-0.59,2.36-0.12c0.6,0.46,1.07,0.99,1.56,1.59
				c0.5,0.59,0.61,0.86,0.89,0.85c0.28-0.01-0.4-0.15-1.6,0.5c-1.2,0.64-1.72,1.15-2.36,0.87s-0.82-1.06-1.41-1.57
				C71.51,51.6,70.66,51.11,70.66,51.11z"/>
			<path class="st5" d="M53.75,61.16c-0.01-0.02,0.61-0.92,1.53-1.69s1.48-1.12,2.2-0.87c0.72,0.25,1.33,0.6,1.99,1
				s0.85,0.62,1.12,0.52c0.27-0.1-0.42-0.01-1.35,0.98c-0.93,0.99-1.27,1.64-1.96,1.58c-0.7-0.06-1.11-0.74-1.84-1.04
				S53.75,61.16,53.75,61.16z"/>
			<path class="st4" d="M47.89,80.27c-0.03-0.03,0.76-2.15,2.23-4.17c1.48-2.02,2.4-2.99,3.97-2.86c1.57,0.13,2.98,0.54,4.5,1.01
				c1.53,0.48,2.02,0.81,2.5,0.49c0.49-0.33-0.86,0.18-2.23,2.65s-1.72,3.94-3.15,4.16c-1.43,0.22-2.61-0.93-4.21-1.16
				C49.91,80.16,47.89,80.27,47.89,80.27z"/>
			<path class="st5" d="M78.52,74.28c0,0.03-1.36,0.93-3.09,1.48c-1.73,0.55-2.69,0.72-3.55-0.04s-1.51-1.59-2.19-2.52
				c-0.69-0.93-0.83-1.34-1.25-1.36c-0.42-0.02,0.58,0.26,2.44-0.59c1.86-0.85,2.69-1.56,3.62-1.08s1.12,1.67,1.96,2.48
				C77.3,73.47,78.52,74.28,78.52,74.28z"/>
			<path class="st4" d="M61.73,70.42c0,0.03-1.36,0.93-3.09,1.48c-1.73,0.55-2.69,0.72-3.55-0.04s-1.51-1.59-2.19-2.52
				c-0.69-0.93-0.83-1.34-1.25-1.36s0.58,0.26,2.44-0.59c1.86-0.85,2.69-1.56,3.62-1.08s1.12,1.67,1.96,2.48
				C60.51,69.61,61.73,70.42,61.73,70.42z"/>
			<path class="st6" d="M56.7,51.67c0,0,0.73,0.44,0.95,1.59c0.22,1.15,1.02,2.3,2.24,2.07c1.21-0.23,1.96,0.04,1.96,0.04
				s-0.17,0.06-0.28-0.96c-0.11-1.01-1.06-2.31-2.13-2.52C58.37,51.68,56.7,51.67,56.7,51.67z"/>
			<path class="st5" d="M76.86,63.78c0.02,0.01-0.25,1.07-0.84,2.12c-0.6,1.05-0.99,1.56-1.75,1.59c-0.76,0.02-1.46-0.1-2.21-0.24
				s-1.01-0.28-1.23-0.1c-0.22,0.18,0.4-0.13,0.93-1.39c0.52-1.26,0.61-1.98,1.28-2.16c0.67-0.18,1.3,0.31,2.08,0.33
				C75.89,63.94,76.86,63.78,76.86,63.78z"/>
			<path class="st5" d="M61.6,73.56c-0.03,0-0.88-1.4-1.36-3.14c-0.48-1.75-0.61-2.71,0.17-3.54c0.78-0.83,1.65-1.45,2.6-2.1
				c0.96-0.65,1.37-0.78,1.4-1.2s-0.28,0.57,0.5,2.46c0.78,1.89,1.46,2.75,0.94,3.66c-0.52,0.91-1.71,1.06-2.56,1.87
				C62.46,72.36,61.6,73.56,61.6,73.56z"/>
			<path class="st7" d="M66.2,47.65c-0.63,0.72-1.14,0.63-0.7,2.89c0.44,2.26,0.44,2.26,0.44,2.26s0.46-0.14,0.99-0.29
				c0.53-0.15,2.58-0.49,2.84-2.22c0.26-1.73,0.21-2.8,0.15-3.14c-0.07-0.34-0.06-1.52-0.07-1.82"/>
			<path class="st8" d="M67.47,87.15c0.14-0.25,0.1-0.64,0.78-1.85c0.67-1.21,1.35-2.08,2.39-1.76c1.04,0.32,1.05,0.72,1.95,0.55
				s0.9-0.17,0.9-0.17s-0.56,1.05-1.43,2.47c-0.87,1.42-2.72,1.25-3.43,1.07S67.47,87.15,67.47,87.15z"/>
			<path class="st9" d="M74.26,76.82c-1.43,0.34-3.15-1.18-4.96-0.32c-1.81,0.87-3.2,3.53-3.72,4.28c-0.52,0.75-1.13,0.29,0.4,0.57
				c1.53,0.28,1.53,0.81,2.91,0.72c1.38-0.1,3.55-1.78,3.81-2.58C72.95,78.69,74.26,76.82,74.26,76.82z"/>
			<path class="st10" d="M72.42,73.59c0,0-2.34-0.03-3.48-0.47s-1.71-0.83-1.8-1.85c-0.09-1.03-0.37-1.65-0.37-1.65
				s1.64,0.34,2.3,0.14c0.66-0.2,1.94,0.14,2.18,0.85C71.48,71.31,72.42,73.59,72.42,73.59z"/>
			<path class="st5" d="M53.82,85.35c-0.02-0.02,0.5-1.57,1.53-3.06c1.03-1.49,1.68-2.22,2.82-2.15c1.14,0.06,2.17,0.33,3.28,0.64
				c1.12,0.31,1.48,0.55,1.82,0.3c0.35-0.25-0.62,0.15-1.56,1.97c-0.94,1.81-1.16,2.89-2.19,3.08c-1.03,0.19-1.91-0.62-3.07-0.75
				S53.82,85.35,53.82,85.35z"/>
			<path class="st7" d="M62.54,82.75c0.05,0.64-0.24,0.84,1.05,1.7c1.29,0.85,1.29,0.85,1.29,0.85s0.15-0.29,0.33-0.61
				c0.18-0.32,0.99-1.46,0.28-2.41c-0.7-0.94-1.23-1.42-1.43-1.55c-0.19-0.13-0.75-0.69-0.91-0.83"/>
		</g>
	</g>
	<g>
		<path class="st0" d="M41.78,85.12l0.94,9.09c0,0,1.2,0.65,1.7,0.3c0.5-0.36,0.98-0.57,0.98-0.57l-0.9-8.67L41.78,85.12z"/>
		<path class="st1" d="M49.09,48.04c-0.13,0.01-0.25,0.05-0.35,0.11c-0.07-0.26-0.24-0.47-0.47-0.58c-0.18-0.46-0.24-0.99-0.28-1.44
			c0.08-0.15,0.12-0.33,0.1-0.52c-0.03-0.24-0.14-0.45-0.31-0.6c0.17-0.28,0.18-0.61,0.05-0.89c0.09-0.06,0.17-0.13,0.24-0.22
			c0.17-0.23,0.22-0.51,0.16-0.76c0.17-0.06,0.33-0.17,0.44-0.32c0.18-0.24,0.23-0.54,0.15-0.82c0.19-0.05,0.37-0.16,0.5-0.34
			c0.31-0.41,0.23-1-0.19-1.31c-0.15-0.11-0.32-0.17-0.49-0.18c-0.04-0.22-0.16-0.43-0.35-0.57c-0.38-0.28-0.89-0.24-1.22,0.08
			c-0.11-0.07-0.23-0.12-0.36-0.14c0.16-0.24,0.19-0.54,0.11-0.8c0.04-0.04,0.08-0.07,0.11-0.12c0.27-0.36,0.24-0.84-0.04-1.17
			c0.1-0.06,0.19-0.14,0.26-0.23c0.2-0.27,0.23-0.62,0.12-0.91c0.2-0.05,0.38-0.16,0.52-0.34c0.31-0.41,0.23-1-0.19-1.31
			c-0.09-0.07-0.2-0.12-0.31-0.15c0.17-0.39,0.06-0.85-0.3-1.12c-0.31-0.23-0.72-0.24-1.03-0.06c-0.06-0.1-0.14-0.19-0.23-0.26
			c-0.22-0.16-0.49-0.22-0.74-0.17c-0.01-0.1-0.04-0.2-0.08-0.29c0.06-0.05,0.11-0.1,0.15-0.16c0.16-0.22,0.21-0.48,0.17-0.73
			c0.11-0.06,0.22-0.15,0.3-0.26c0.21-0.28,0.24-0.64,0.11-0.94c0.05-0.05,0.11-0.1,0.15-0.16c0.31-0.41,0.23-1-0.19-1.31
			c-0.09-0.07-0.2-0.12-0.3-0.15c0.28-0.41,0.19-0.97-0.21-1.27c-0.13-0.1-0.28-0.15-0.44-0.17c0.2-0.4,0.09-0.89-0.28-1.16
			c-0.41-0.31-1-0.23-1.31,0.19c-0.01,0.02-0.02,0.03-0.03,0.05c-0.12-0.01-0.24,0-0.36,0.04c-0.02-0.23-0.12-0.45-0.31-0.62
			c0.31-0.41,0.22-1-0.19-1.31c-0.08-0.06-0.16-0.1-0.25-0.13c0.12-0.37,0-0.79-0.32-1.04c-0.05-0.04-0.11-0.07-0.17-0.1
			c0.08-0.35-0.05-0.73-0.35-0.95c-0.01-0.01-0.02-0.01-0.02-0.01c0.18-0.39,0.07-0.87-0.29-1.14c-0.08-0.06-0.17-0.1-0.26-0.13
			c0.08-0.35-0.05-0.72-0.35-0.95c-0.16-0.12-0.34-0.18-0.52-0.19c0-0.06,0.01-0.12,0-0.18c-0.05-0.51-0.51-0.89-1.03-0.84
			c-0.31,0.03-0.57,0.21-0.71,0.46c-0.06-0.01-0.13-0.01-0.2,0c-0.51,0.05-0.89,0.51-0.84,1.03c0.03,0.28,0.18,0.51,0.39,0.67
			c-0.26,0.19-0.42,0.51-0.38,0.85c0.04,0.35,0.27,0.64,0.58,0.77c-0.19,0.19-0.31,0.47-0.28,0.76c0.04,0.43,0.37,0.75,0.78,0.82
			c-0.18,0.19-0.29,0.46-0.26,0.74c0.02,0.23,0.13,0.43,0.29,0.58c-0.22,0.19-0.34,0.48-0.31,0.79c0.02,0.18,0.09,0.34,0.19,0.47
			c-0.38,0.15-0.64,0.54-0.59,0.97c0.03,0.32,0.23,0.59,0.49,0.73c-0.27,0.19-0.43,0.51-0.39,0.86c0.01,0.13,0.05,0.25,0.12,0.36
			c-0.04,0-0.08,0-0.12,0.01c-0.51,0.11-0.83,0.6-0.72,1.11c0.02,0.11,0.07,0.21,0.13,0.31c-0.5,0.11-0.81,0.61-0.71,1.11
			c0.05,0.24,0.19,0.44,0.38,0.57c-0.03,0.11-0.04,0.23-0.03,0.36c-0.35,0.09-0.61,0.38-0.68,0.72c-0.19-0.11-0.42-0.15-0.65-0.1
			c-0.49,0.1-0.8,0.57-0.73,1.06c-0.39,0.18-0.62,0.61-0.53,1.05c0.04,0.2,0.15,0.37,0.29,0.5c-0.15,0.21-0.22,0.47-0.16,0.74
			c0.07,0.35,0.33,0.61,0.65,0.7c-0.18,0.21-0.26,0.5-0.2,0.79c0.08,0.4,0.41,0.68,0.8,0.73c-0.16,0.21-0.24,0.49-0.18,0.77
			c0.05,0.22,0.17,0.41,0.34,0.54c-0.05,0.14-0.08,0.28-0.06,0.44c0.02,0.15,0.07,0.29,0.15,0.41c-0.42,0.13-0.7,0.54-0.65,0.99
			c0.01,0.05,0.02,0.1,0.03,0.15c-0.36,0.16-0.6,0.53-0.56,0.95c0.02,0.21,0.11,0.39,0.24,0.53c-0.31,0.18-0.5,0.53-0.46,0.9
			c0.04,0.34,0.25,0.62,0.54,0.75c-0.26,0.19-0.41,0.51-0.38,0.85c0.03,0.3,0.21,0.55,0.45,0.7c-0.21,0.19-0.33,0.47-0.29,0.78
			c0.02,0.22,0.12,0.41,0.27,0.56c-0.19,0.19-0.3,0.46-0.27,0.76c0.02,0.19,0.1,0.36,0.21,0.5c-0.28,0.19-0.45,0.51-0.42,0.87
			c0.02,0.22,0.12,0.41,0.26,0.55c-0.36,0.16-0.6,0.53-0.56,0.95c0.03,0.26,0.16,0.49,0.35,0.64c-0.16,0.19-0.24,0.44-0.22,0.7
			c0.02,0.2,0.11,0.38,0.23,0.52c-0.18,0.19-0.27,0.45-0.25,0.73c0.03,0.29,0.19,0.53,0.41,0.68c-0.1,0.17-0.16,0.37-0.14,0.58
			c0.03,0.26,0.16,0.49,0.35,0.64c-0.43,0.12-0.72,0.54-0.68,0.99c0.03,0.28,0.18,0.52,0.4,0.67c-0.23,0.19-0.36,0.49-0.33,0.81
			c0.04,0.38,0.3,0.68,0.64,0.79c-0.31,0.18-0.5,0.53-0.46,0.9c0.04,0.39,0.31,0.7,0.66,0.8c-0.08,0.16-0.12,0.33-0.1,0.52
			c0.05,0.44,0.39,0.77,0.81,0.83c0.1,0.34,0.24,0.68,0.43,0.97c0.58,0.92-0.68,0.07,0.58,0.92c1.26,0.85,1.16-0.12,1.26,0.85
			c0.1,0.97,0.1,0.97,0.1,0.97s1.03,0.52,1.12,1.45c-0.51,0.05-0.89,0.51-0.84,1.03c0.04,0.43,0.38,0.76,0.79,0.83
			c-0.06,0.14-0.1,0.31-0.08,0.48c0.05,0.44,0.39,0.78,0.81,0.83c-0.28,0.17-0.46,0.48-0.45,0.82c-0.06-0.01-0.13-0.01-0.19,0
			c-0.51,0.05-0.89,0.51-0.84,1.03c0,0.02,0.01,0.03,0.01,0.05c-0.09-0.02-0.18-0.03-0.28-0.02c-0.51,0.05-0.89,0.51-0.84,1.03
			c0.03,0.25,0.15,0.47,0.33,0.62c-0.48-0.01-0.9,0.34-0.96,0.82c-0.05,0.39,0.16,0.76,0.49,0.93c-0.02,0.16-0.04,0.32-0.07,0.48
			c-0.12,0.7-0.02,1.38-0.29,2.05c-0.08,0.2-0.17,0.43-0.25,0.67c-0.01,0-0.02,0-0.02-0.01c-0.51-0.06-0.98,0.31-1.04,0.82
			c-0.03,0.28,0.07,0.54,0.24,0.74c-0.28,0.13-0.49,0.4-0.53,0.73c-0.04,0.39,0.15,0.74,0.47,0.92c0.09,0.33,0.4,0.64,1.11,0.87
			c0.18,0.06,0.35,0.13,0.52,0.2c0.08,0.23,0.25,0.44,0.5,0.55c0.09,0.04,0.19,0.06,0.29,0.07c0.03,0.33,0.22,0.64,0.55,0.78
			c0.19,0.08,0.38,0.1,0.57,0.06c0.03,0.32,0.23,0.62,0.55,0.77c0.07,0.03,0.14,0.05,0.22,0.06c0.07,0.27,0.25,0.5,0.52,0.63
			c0.29,0.13,0.6,0.1,0.86-0.05c0.08,0.08,0.18,0.15,0.29,0.2c0.46,0.21,0.99,0.01,1.22-0.44c0.08,0.08,0.17,0.14,0.27,0.19
			c0.35,0.16,0.75,0.08,1.02-0.17c0.1,0.16,0.24,0.3,0.42,0.38c0.19,0.09,0.39,0.1,0.58,0.06c-0.01,0.37,0.2,0.72,0.55,0.88
			c0.47,0.21,1.03,0,1.24-0.47c0.07-0.15,0.09-0.31,0.07-0.46c0.01,0,0.02-0.01,0.03-0.01c0.09,0.12,0.21,0.22,0.36,0.29
			c0.47,0.21,1.03,0,1.24-0.47c0.15-0.33,0.09-0.7-0.13-0.96c0.12-0.09,0.22-0.21,0.29-0.36c0.2-0.46,0.01-0.99-0.43-1.21
			c0,0,0-0.01,0.01-0.01c0.21-0.47,0-1.03-0.47-1.24c0-0.04,0-0.08-0.01-0.12c0.13-0.09,0.23-0.21,0.3-0.37
			c0.2-0.44,0.02-0.95-0.38-1.18c0.09-0.08,0.17-0.19,0.23-0.31c0.14-0.3,0.09-0.64-0.08-0.9c0.24-0.08,0.44-0.25,0.55-0.5
			c0.14-0.31,0.09-0.64-0.08-0.9c0.31-0.04,0.59-0.24,0.73-0.54c0.17-0.39,0.06-0.83-0.25-1.09c0.15-0.09,0.27-0.23,0.35-0.4
			c0.17-0.38,0.06-0.82-0.24-1.08c0.16-0.1,0.29-0.24,0.37-0.42c0.19-0.43,0.03-0.92-0.35-1.17c0.11-0.09,0.2-0.2,0.26-0.33
			c0.12-0.26,0.1-0.54-0.01-0.78c0.04-0.05,0.07-0.11,0.1-0.17c0.21-0.47,0-1.03-0.47-1.24c-0.11-0.05-0.23-0.07-0.34-0.08
			c-0.07-0.21-0.2-0.38-0.4-0.5c0.02-0.03,0.04-0.06,0.06-0.1c0.18-0.41,0.05-0.87-0.29-1.13c0.31-0.11,0.56-0.37,0.62-0.72
			c0.04-0.25-0.02-0.5-0.15-0.7c0.16-0.14,0.27-0.32,0.31-0.54c0.09-0.51-0.25-1-0.76-1.09c0,0-0.33-3.32-0.28-5.66
			c0.12,0.04,0.25,0.05,0.38,0.04c0.51-0.05,0.89-0.51,0.84-1.03c-0.03-0.25-0.15-0.47-0.33-0.62c0.51-0.06,0.87-0.52,0.82-1.02
			c-0.03-0.25-0.15-0.47-0.33-0.62c0.25-0.19,0.4-0.5,0.37-0.84c-0.02-0.22-0.12-0.41-0.26-0.55c0.21-0.19,0.33-0.48,0.3-0.78
			c-0.03-0.32-0.22-0.59-0.49-0.73c0.23-0.19,0.36-0.49,0.33-0.81c-0.03-0.29-0.19-0.54-0.42-0.69c0.32-0.18,0.52-0.53,0.48-0.92
			c-0.02-0.17-0.08-0.33-0.18-0.46c0.27-0.19,0.43-0.51,0.39-0.86c-0.01-0.1-0.04-0.2-0.08-0.29c0.36-0.16,0.59-0.53,0.55-0.95
			c-0.02-0.19-0.1-0.36-0.21-0.5c0.28-0.19,0.45-0.51,0.42-0.87C50.06,48.36,49.6,47.99,49.09,48.04z M35.63,60.2
			c-0.06-0.03-0.12-0.06-0.18-0.08c0.06-0.03,0.11-0.07,0.15-0.11C35.61,60.07,35.62,60.13,35.63,60.2z M37.6,34.09
			C37.6,34.09,37.6,34.09,37.6,34.09c0.01-0.01,0.03-0.01,0.04-0.02C37.63,34.09,37.62,34.09,37.6,34.09z M47.6,77.33
			c0.02,0.02,0.05,0.04,0.07,0.07c-0.03,0.02-0.06,0.05-0.09,0.07C47.59,77.42,47.6,77.37,47.6,77.33z M38.41,30.35
			c-0.01-0.01-0.01-0.02-0.02-0.03c0.01,0,0.01,0,0.02,0c0,0,0,0,0,0C38.41,30.33,38.41,30.34,38.41,30.35z"/>
		<circle class="st2" cx="40.54" cy="31.69" r="1.56"/>
		<circle class="st2" cx="43.88" cy="36.89" r="1.56"/>
		<circle class="st2" cx="39.42" cy="49.16" r="1.56"/>
		<circle class="st2" cx="43.57" cy="45.6" r="1.56"/>
		<circle class="st2" cx="45.83" cy="55.78" r="1.56"/>
		<circle class="st2" cx="38.94" cy="59.62" r="1.56"/>
		<circle class="st3" cx="36.26" cy="55.2" r="1.56"/>
		<circle class="st3" cx="44.39" cy="50.75" r="1.56"/>
		<circle class="st0" cx="37.81" cy="33.54" r="1.56"/>
		<circle class="st0" cx="39.26" cy="23.58" r="1.56"/>
		<circle class="st0" cx="43.5" cy="29.81" r="1.56"/>
		<circle class="st0" cx="43.52" cy="33.48" r="1.56"/>
		<circle class="st0" cx="45.72" cy="39.59" r="1.56"/>
		<circle class="st0" cx="36.73" cy="39.39" r="1.56"/>
		<circle class="st0" cx="46.07" cy="45.34" r="1.56"/>
		<circle class="st0" cx="36.72" cy="50.67" r="1.56"/>
		<circle class="st0" cx="47.03" cy="52.29" r="1.56"/>
		<circle class="st0" cx="46.57" cy="73.43" r="1.56"/>
		<circle class="st0" cx="41.07" cy="52.48" r="1.56"/>
		<circle class="st0" cx="43.38" cy="59.13" r="1.56"/>
		<circle class="st0" cx="38.59" cy="63.27" r="1.56"/>
		<circle class="st0" cx="43.14" cy="68.54" r="1.56"/>
		<circle class="st0" cx="43.33" cy="77.9" r="1.56"/>
		<circle class="st3" cx="38.72" cy="44.93" r="1.56"/>
		<circle class="st3" cx="43.42" cy="41.39" r="1.56"/>
		<circle class="st3" cx="39.8" cy="36.19" r="1.56"/>
		<circle class="st3" cx="40.73" cy="26.86" r="1.56"/>
		<circle class="st3" cx="40.95" cy="55.05" r="1.56"/>
		<circle class="st3" cx="41.36" cy="64.88" r="1.56"/>
		<circle class="st3" cx="41.59" cy="74.37" r="1.56"/>
		<circle class="st3" cx="46.76" cy="76.5" r="1.56"/>
		<circle class="st3" cx="45.34" cy="83.98" r="1.56"/>
		<circle class="st2" cx="44.68" cy="71.73" r="1.56"/>
		<circle class="st2" cx="39.42" cy="82.6" r="1.56"/>
		<g>
			<path class="st5" d="M36.49,42.99c0.01-0.03-1.03-0.86-2.38-1.43c-1.35-0.58-2.11-0.79-2.87-0.25c-0.76,0.54-1.34,1.17-1.97,1.87
				s-0.77,1.02-1.12,1c-0.34-0.02,0.49-0.17,1.92,0.67s2.05,1.47,2.84,1.15c0.79-0.32,1.04-1.26,1.78-1.86
				C35.44,43.55,36.49,42.99,36.49,42.99z"/>
			<path class="st5" d="M56.68,55.91c0.01-0.02-0.7-1.14-1.8-2.12c-1.1-0.98-1.75-1.42-2.64-1.15c-0.89,0.27-1.64,0.68-2.46,1.14
				s-1.06,0.72-1.38,0.59c-0.32-0.13,0.52,0,1.61,1.25c1.09,1.25,1.48,2.05,2.33,2c0.85-0.05,1.39-0.86,2.28-1.19
				C55.5,56.1,56.68,55.91,56.68,55.91z"/>
			<path class="st4" d="M25.98,70.9c-0.01,0.04,1.62,1.19,3.7,1.92s3.24,0.98,4.32,0.1c1.08-0.88,1.9-1.88,2.77-2.99
				c0.87-1.11,1.06-1.6,1.58-1.6c0.52-0.01-0.72,0.3-2.95-0.82c-2.23-1.11-3.21-2.01-4.37-1.46s-1.44,1.98-2.49,2.95
				S25.98,70.9,25.98,70.9z"/>
			<path class="st5" d="M46.59,66.87c-0.01,0.04,1.62,1.19,3.7,1.92c2.08,0.73,3.24,0.98,4.32,0.1c1.08-0.88,1.9-1.88,2.77-2.99
				c0.87-1.11,1.06-1.6,1.58-1.6c0.52-0.01-0.72,0.3-2.95-0.82c-2.23-1.11-3.21-2.01-4.37-1.46c-1.15,0.55-1.44,1.98-2.49,2.95
				C48.12,65.93,46.59,66.87,46.59,66.87z"/>
			<path class="st6" d="M53.47,44.22c0,0-0.9,0.51-1.22,1.9c-0.31,1.39-1.34,2.76-2.81,2.44c-1.47-0.33-2.39-0.03-2.39-0.03
				s0.2,0.08,0.38-1.16c0.17-1.23,1.38-2.77,2.69-2.98C51.44,44.18,53.47,44.22,53.47,44.22z"/>
			<path class="st5" d="M28.43,58.17c-0.02,0.02,0.26,1.31,0.94,2.62c0.69,1.3,1.14,1.95,2.07,2c0.93,0.06,1.78-0.06,2.71-0.21
				c0.93-0.15,1.24-0.3,1.5-0.07c0.26,0.23-0.49-0.18-1.07-1.73c-0.59-1.55-0.66-2.44-1.48-2.69c-0.81-0.25-1.6,0.32-2.55,0.32
				C29.6,58.4,28.43,58.17,28.43,58.17z"/>
			<path class="st4" d="M46.62,70.69c0.04,0,1.12-1.66,1.78-3.77s0.86-3.28-0.06-4.32c-0.92-1.05-1.95-1.83-3.09-2.66
				c-1.14-0.83-1.64-1-1.66-1.52c-0.03-0.52,0.32,0.71-0.71,2.98c-1.03,2.27-1.89,3.29-1.29,4.42c0.59,1.13,2.04,1.36,3.04,2.38
				C45.63,69.2,46.62,70.69,46.62,70.69z"/>
			<path class="st4" d="M42.06,38.95c0.74,0.9,1.37,0.81,0.73,3.54s-0.63,2.73-0.63,2.73s-0.55-0.19-1.19-0.4s-3.12-0.7-3.37-2.82
				s-0.15-3.41-0.05-3.82s0.13-1.85,0.16-2.22"/>
			<path class="st8" d="M38.93,87.01c-0.17-0.31-0.1-0.79-0.87-2.29c-0.77-1.5-1.56-2.59-2.84-2.24c-1.28,0.35-1.31,0.84-2.4,0.6
				c-1.09-0.24-1.09-0.24-1.09-0.24s0.65,1.3,1.65,3.07s3.26,1.63,4.14,1.44C38.4,87.15,38.93,87.01,38.93,87.01z"/>
			<path class="st9" d="M31.07,74.16c1.73,0.47,3.88-1.32,6.05-0.19s3.76,4.43,4.36,5.36s1.36,0.39-0.51,0.68
				c-1.87,0.28-1.89,0.93-3.57,0.76c-1.68-0.17-4.25-2.31-4.54-3.29S31.07,74.16,31.07,74.16z"/>
			<path class="st10" d="M33.44,70.29c0,0,2.85,0.06,4.26-0.43c1.41-0.5,2.12-0.94,2.27-2.19c0.15-1.25,0.51-2,0.51-2
				s-2.01,0.35-2.81,0.08c-0.8-0.27-2.37,0.09-2.68,0.95C34.68,67.56,33.44,70.29,33.44,70.29z"/>
			<path class="st5" d="M55.62,85.36c0.03-0.03-0.55-1.93-1.74-3.79c-1.19-1.86-1.95-2.77-3.35-2.74c-1.39,0.03-2.65,0.31-4.02,0.65
				s-1.82,0.61-2.23,0.29c-0.41-0.31,0.75,0.21,1.82,2.46s1.3,3.56,2.55,3.84c1.25,0.27,2.35-0.68,3.77-0.79
				C53.84,85.16,55.62,85.36,55.62,85.36z"/>
			<path class="st7" d="M45.12,81.85c-0.08,0.78,0.26,1.04-1.34,2.03c-1.6,0.99-1.6,0.99-1.6,0.99S42,84.51,41.8,84.11
				s-1.14-1.82-0.25-2.94c0.9-1.12,1.56-1.68,1.8-1.83c0.24-0.15,0.95-0.81,1.14-0.97"/>
		</g>
	</g>
</g>
</svg>
