<?xml version="1.0" encoding="utf-8"?>
<!-- Generator: Adobe Illustrator 23.1.1, SVG Export Plug-In . SVG Version: 6.00 Build 0)  -->
<svg version="1.1" id="Layer_1" xmlns="http://www.w3.org/2000/svg" xmlns:xlink="http://www.w3.org/1999/xlink" x="0px" y="0px"
	 viewBox="0 0 108 108" style="enable-background:new 0 0 108 108;" xml:space="preserve">
<style type="text/css">
	.st0{fill:#6A8E3D;}
	.st1{fill:#819440;}
	.st2{fill:none;}
	.st3{fill:#C93A40;}
	.st4{fill:#B8353B;}
	.st5{fill:#5D8139;}
	.st6{fill:#D43E45;}
	.st7{fill:#AAB277;}
</style>
<g>
	<path class="st0" d="M40.59,65.47c-0.08,0.31,0.7,1.17-1.25,1.25c-1.95,0.08-2.42,0.78-2.81-0.62c-0.39-1.4,0.31-1.56-1.17-1.56
		c-1.48,0-1.17,1.64-1.87,0c-0.7-1.64-1.01-1.32-0.86-2.42c0.16-1.09,1.09-3.97,1.79-4.21c0.7-0.23,2.18,0.23,2.73,0.47
		c0.55,0.23,2.91-0.08,3.52,0.39c0.61,0.47,0.77,0.86,0.92,1.79c0.16,0.94,0.31,1.25,0,2.42C41.29,64.15,40.59,65.47,40.59,65.47z"
		/>
	<path class="st1" d="M46.61,51.84c-0.44-0.16-0.26-3.59,0-5.21c0.26-1.62-0.26-4.77-0.57-5.55c-0.31-0.78-0.31-1.56-0.94-2.42
		c-0.62-0.86,0.94-0.7,1.87-0.7c0.94,0,1.17,1.4,2.81,2.42c1.64,1.01,1.01-1.32,1.25-1.95c0.23-0.62,1.56-1.32,2.81-2.88
		c1.25-1.56,0.86-1.17,2.42-1.48c1.56-0.31,1.71-1.17,1.95-2.18c0.23-1.01,1.09-0.86,2.34-1.32c0.34-0.13,0.62-0.38,0.83-0.69
		c-0.75-2.1-0.4-1.5-0.35-2.66c0.06-1.17-0.64-2.18-0.41-3.51c0.23-1.32,0.39-2.03,1.79-2.34c1.4-0.31,1.79,0.55,2.26,1.09
		c0.47,0.55,0.7,0.94,1.32,0.47c0.62-0.47-0.39-0.44-0.31-1.63c0.08-1.18,1.01-1.49,0.16-2.51c-0.86-1.01-0.62-1.56-1.56-1.09
		c-0.94,0.47-0.94,1.87-1.87,1.01c-0.94-0.86-1.83-1.4-1.38-2.26c0.45-0.86,2.01-1.17,0.6-2.34c-1.4-1.17-2.1-2.1-3.82-1.64
		c-1.71,0.47-2.1,0.62-3.04,1.4c-0.94,0.78-2.18,1.17-2.96,0.55c-0.78-0.62-1.79-1.01-1.25,0.16c0.55,1.17,1.86,1.17,1.79,2.26
		c-0.07,1.09-0.15,1.64-0.77,2.57c-0.62,0.94-0.47,2.03-1.4,2.03c-0.94,0-1.71-1.32-2.49-1.56c-0.78-0.23-1.25-1.01-1.71-0.16
		s-0.62,2.18-0.39,2.42c0.23,0.23,0.31,1.87-0.23,2.73c-0.55,0.86-1.25,0.55-2.03,1.01c-0.78,0.47-0.99,1.17-1.16,1.25
		c-0.17,0.08-1.03-0.31-1.57,0.08c-0.55,0.39-0.47,0.78-1.87-0.31c-1.4-1.09-2.26-2.03-2.57-1.17c-0.31,0.86-0.08,1.87,0.7,2.81
		c0.78,0.94,2.03,1.4,0.86,2.96c-1.17,1.56-1.59,2.57-1.69,2.96c-0.1,0.39-0.1,2.57-1.27,3.04c-1.17,0.47-1.95-0.7-2.49-0.7
		s-1.32-0.08-1.64,1.48c-0.31,1.56-0.08,2.26-0.78,2.73c-0.7,0.47-1.09,0.78-1.79,1.32c-0.7,0.55-1.01,1.17-1.01,1.64
		c0,0.47,0.17,1.42,0.63,1.29c0.46-0.12,0.93,0.03,1.63-0.36c0.7-0.39,1.87-0.94,1.71-0.39c-0.16,0.55-1.4,1.32-1.71,1.79
		c-0.31,0.47-2.48,2.26-1.63,2.96c0.85,0.7,1.08,0.45,1.94,0.85c0.86,0.4,0.94,0.79,1.17,1.65c0.23,0.86-0.86,0.78,0.55,1.56
		c1.4,0.78,1.79,1.32,2.65,1.4c0.86,0.08,2.79,0.47,3.23,0.39c0.44-0.08,2.54,1.17,2.54,1.17s-0.06,2.11,0.44,2.3
		c0.51,0.19,0.26,1.97,0.26,1.97l0.55,2.85l1.56,1.61c0.39,0.16,0.62,0.86,2.02,0.86c1.41,0,1.25-0.47,2.03-0.86s1.55-0.08,2.41-0.7
		c0.86-0.62,1.18-4.75,1.41-5.46c0.07-0.22,1.24-2.8,2.82-6.27c-1.59-0.03-2.93-0.19-3.83-0.27C47.76,52.15,47.06,51.99,46.61,51.84
		z"/>
	<path class="st0" d="M61.4,29.93c-0.01-0.02-0.02-0.04-0.02-0.07c-0.22,0.31-0.49,0.56-0.83,0.69c-1.25,0.47-2.1,0.31-2.34,1.32
		c-0.23,1.01-0.39,1.87-1.95,2.18c-1.56,0.31-1.17-0.08-2.42,1.48c-1.25,1.56-2.57,2.26-2.81,2.88c-0.23,0.62,0.39,2.96-1.25,1.95
		c-1.64-1.01-1.87-2.42-2.81-2.42c-0.94,0-2.49-0.16-1.87,0.7c0.62,0.86,0.62,1.64,0.94,2.42c0.31,0.78,0.83,3.93,0.57,5.55
		c-0.26,1.62-0.44,5.05,0,5.21c0.44,0.16,1.15,0.31,2.78,0.47c0.9,0.09,2.25,0.24,3.83,0.27c3.55-7.8,9.18-20.07,9.18-20.07
		S62.18,32.12,61.4,29.93z"/>
	<path class="st2" d="M44.56,55.89c0.02-0.24,0.02-0.52,0.02-0.81c-0.21,0.83-0.52,1.64-0.86,2.3
		C44.09,57.03,44.51,56.49,44.56,55.89z"/>
	<path class="st2" d="M38.97,59.32c0.39,0.73,0.74,1.46,1.17,1.63c-0.09-0.27-0.25-0.55-0.56-0.86
		C39.33,59.85,39.13,59.59,38.97,59.32z"/>
	<path class="st3" d="M43.25,55.89c0.05-0.73-0.02-1.78,0.08-2.52c-0.07-0.13-0.13-0.19-0.17-0.13c-0.16,0.23-0.62,1.4-1,2.96
		c-0.18,0.74-0.14,1.14-0.07,1.47C42.48,57.36,43.19,56.68,43.25,55.89z"/>
	<path class="st3" d="M39.57,60.1c0.31,0.31,0.47,0.59,0.56,0.86c0.07,0.03,0.15,0.05,0.23,0.04c0.34-0.02,0.41-0.33,0.42-0.76
		c-0.31-0.51-0.61-1.17-0.95-1.71c-0.66-1.02-1.19-2.02-1.51-2.49c-0.31-0.47-1.14-0.94-1.14-0.94l1.06,2.34c0,0,0.1,0.65,0.47,1.41
		c0.09,0.15,0.17,0.31,0.25,0.46C39.13,59.59,39.33,59.85,39.57,60.1z"/>
	<path class="st3" d="M43.66,55.34c-0.19,0.7-0.5,2.51-0.5,2.51s0.26-0.18,0.56-0.47c0.34-0.66,0.65-1.47,0.86-2.3
		c0-0.95-0.03-2.04,0.32-2.44c-0.01-0.83-0.17-0.89-0.17-0.89s-0.55,0.39-1.08,0.82c-0.18,0.14-0.27,0.43-0.32,0.79
		C43.54,53.77,43.8,54.82,43.66,55.34z"/>
	<path class="st3" d="M41.68,61c0.7-0.04,0.26-1.29,0.48-2.23c0.12-0.49,0.01-0.75-0.07-1.1c-0.14,0.12-0.24,0.18-0.24,0.18
		s0.31-1.81,0.5-2.51c0.19-0.7-0.34-2.34-0.5-2.1c-0.16,0.23-0.62,1.4-1,2.96c-0.38,1.56,0.22,1.64,0,2.57
		c-0.11,0.48-0.05,1.03-0.06,1.47C41.06,60.69,41.35,61.02,41.68,61z"/>
	<path class="st3" d="M44.89,53.24c0.01-0.23,0.02-0.43,0.01-0.59c-0.35,0.4-0.32,1.48-0.32,2.44
		C44.74,54.45,44.85,53.82,44.89,53.24z"/>
	<path class="st3" d="M38.72,58.86c0.07,0.15,0.16,0.31,0.25,0.46C38.89,59.17,38.8,59.01,38.72,58.86z"/>
	<path class="st2" d="M53.22,74.59L53.22,74.59l0.47,3.66c0,0,0.17,0.29,0.38,0.69c0.27-2.71,0.55-4.83,0.84-5.54
		c0.48-1.18,1.08-4.81,1.58-8.3c-0.66-0.05-1.19-0.12-1.19-0.12s-0.16-0.2-0.35-0.44c-0.53,2.69-1.58,8.08-1.58,8.15
		C53.37,72.73,53.31,73.47,53.22,74.59z"/>
	<path class="st2" d="M50.71,73.27c-0.14-0.43-0.39-1.52-0.61-2.59c0.02,0.1-0.03,3.04-0.11,6.33c0.24-0.97,0.51-2.32,0.75-3.58
		C50.73,73.36,50.72,73.3,50.71,73.27z"/>
	<path class="st2" d="M50.89,65.07l0.83,3.38c0.15-1.11,0.31-2.51,0.43-3.65C51.83,65.05,51.41,65.03,50.89,65.07z"/>
	<path class="st2" d="M59.82,61.32c0,1.25,0.31,1.32,0.39,2.26c0.08,0.94-0.62,1.01-1.25,1.4c-0.04,0.03-0.09,0.05-0.16,0.07
		c-0.4,2.75-1.17,6.64-1.17,6.64l-1.87,16.99c0,0-0.01,0.08-0.01,0.21c0.19,0-0.45,0.64-0.26,0.65c0.36-1.95,1.49-4.21,1.55-4.5
		c0.16-0.78,3.97-13.59,4.68-16.58c0.7-2.99,2.34-7.62,2.42-8.89c0.08-1.27-0.16-3.22-0.16-3.45c0-0.02,0.01-0.04,0.02-0.07
		c-0.78,0.44-0.35,0.5-0.35,1.61c0,1.25-0.55,1.4-1.48,2.37c-0.94,0.96-1.17,0.21-2.34,0.05c-0.11-0.01-0.19-0.03-0.26-0.03
		c-0.02,0.09-0.04,0.18-0.06,0.27C59.64,60.52,59.82,60.84,59.82,61.32z"/>
	<path class="st4" d="M43.65,57.52c-0.64,1.17-1.12,2.91-1.31,4.88c-0.19,1.98-0.05,3.31,0,3.33c0.05,0.02,1.31,10.34,1.31,10.34
		s0.98,8.89,1.65,9.9c0.26,0.39,0.62,2.16,0.87,3.61c0.18,0,0.37-0.01,0.58-0.01c0.01-0.78-0.07-2.19-0.05-3.03
		c-0.08-0.25-0.16-0.45-0.24-0.56c-0.67-1.01-1.65-9.9-1.65-9.9s-1.26-10.32-1.31-10.34c-0.05-0.02-0.19-1.35,0-3.33
		c0.19-1.98,0.67-3.71,1.31-4.88c0.64-1.17,1.16-2.88,1.23-4.29c0.08-1.4-0.16-1.48-0.16-1.48s-0.55,0.39-1.08,0.82
		c-0.02,0.02-0.04,0.04-0.06,0.07c0,0.17,0,0.36-0.01,0.59c-0.03,0.58-0.14,1.22-0.3,1.84c0,0.29,0,0.56-0.02,0.81
		c-0.05,0.6-0.47,1.14-0.84,1.5c-0.02,0.05-0.05,0.1-0.07,0.14c-0.02,0.03-0.04,0.07-0.05,0.11c0.08-0.07,0.18-0.15,0.28-0.25
		C43.7,57.43,43.68,57.48,43.65,57.52z"/>
	<path class="st3" d="M46.02,89.58c-0.25-1.44-0.61-3.22-0.87-3.61c-0.67-1.01-1.65-9.9-1.65-9.9s-1.26-10.32-1.31-10.34
		c-0.05-0.02-0.19-1.35,0-3.33c0.18-1.92,0.64-3.61,1.25-4.77c-0.16,0.14-0.28,0.22-0.28,0.22s0.31-1.81,0.5-2.51
		c0.14-0.53-0.12-1.57-0.33-1.97c-0.11,0.74-0.03,1.78-0.08,2.52c-0.06,0.79-0.77,1.47-1.15,1.78c0.08,0.36,0.19,0.61,0.07,1.1
		c-0.22,0.94,0.22,2.18-0.48,2.23c-0.33,0.02-0.62-0.3-0.89-0.76c-0.01,0.42-0.08,0.74-0.42,0.76c-0.08,0-0.15-0.01-0.23-0.04
		c0.23,0.67,0.06,1.31,0.84,2.44c1.09,1.59,1.09,9.71,1.18,10.88c0.05,0.58,1.27,8.25,2.38,15.31
		C44.91,89.59,45.36,89.59,46.02,89.58z"/>
	<path class="st3" d="M42.19,65.74c0.05,0.02,1.31,10.34,1.31,10.34s0.98,8.89,1.65,9.9c0.26,0.39,0.62,2.17,0.87,3.61
		c0.05,0,0.1,0,0.15,0c-0.25-1.44-0.61-3.22-0.87-3.61c-0.67-1.01-1.65-9.9-1.65-9.9s-1.26-10.32-1.31-10.34
		c-0.05-0.02-0.19-1.35,0-3.33c0.19-1.98,0.67-3.71,1.31-4.88c0.02-0.04,0.05-0.09,0.07-0.14c-0.1,0.1-0.19,0.18-0.28,0.25
		c-0.61,1.17-1.07,2.86-1.25,4.77C42,64.38,42.14,65.72,42.19,65.74z"/>
	<path class="st3" d="M49.5,89.22c0.45-0.01,0.88-0.02,1.31-0.03c-0.1-3.2-0.12-6.41-0.09-6.65c0.07-0.52,0.2-7.77,0.02-9.11
		c-0.24,1.26-0.51,2.61-0.75,3.58c-0.11,3.98-0.27,8.48-0.44,9.12C49.47,86.45,49.42,87.85,49.5,89.22z"/>
	<path class="st3" d="M53.37,72.7c0-0.08,1.05-5.47,1.58-8.15c-0.2-0.26-0.42-0.57-0.49-0.73c-0.14-0.31-0.02-0.55,0-1.01
		c0.02-0.47-0.64-0.78-1.03-0.62s-0.55,1.09-0.94,2.1c-0.09,0.24-0.21,0.4-0.34,0.51c-0.12,1.14-0.28,2.55-0.43,3.65l1.51,6.15
		C53.31,73.47,53.37,72.73,53.37,72.7z"/>
	<path class="st4" d="M67.77,54.31c-0.25,0.44-0.65,0.67-1.11,0.84c-1.96,6.4-4.75,15.5-5,16.3c-0.24,0.78-3.32,10.98-4.98,18.12
		c0.42,0.01,0.84,0.02,1.24,0.03c1.64-7.1,4.65-16.97,4.89-17.73c0.28-0.89,3.68-11.99,5.62-18.3
		C68.18,53.78,67.93,54.02,67.77,54.31z"/>
	<path class="st4" d="M68.91,51.97c0.02-0.05,0.03-0.11,0.05-0.16c-0.03,0.04-0.05,0.09-0.08,0.13
		C68.89,51.94,68.9,51.96,68.91,51.97z"/>
	<path class="st3" d="M64.13,59.57c-0.08,1.27-1.71,5.9-2.42,8.89c-0.7,2.99-4.52,15.8-4.68,16.58c-0.06,0.29-1.19,2.55-1.55,4.5
		c0.4,0.01,0.8,0.02,1.19,0.03c1.65-7.14,4.73-17.34,4.98-18.12c0.25-0.8,3.04-9.89,5-16.3c-0.7,0.25-1.57,0.35-2.32,0.72
		c-0.14,0.07-0.25,0.13-0.35,0.19c-0.01,0.03-0.02,0.05-0.02,0.07C63.97,56.36,64.2,58.3,64.13,59.57z"/>
	<path class="st4" d="M53.69,78.26l-0.47-3.66v0c-0.27,3.36-0.82,10.05-0.87,10.52c-0.03,0.3-0.28,2.33-0.46,4.07
		c0.46,0,0.9,0,1.34,0c0.21-3.27,0.54-7.27,0.83-10.24C53.86,78.55,53.69,78.26,53.69,78.26z"/>
	<path class="st4" d="M50.74,73.44c0.29-1.49,0.54-2.84,0.68-3.29c0.08-0.27,0.19-0.91,0.29-1.7l-0.83-3.38
		c-0.1,0.01-0.2,0.02-0.3,0.03c-0.21,2.37-0.51,5.44-0.48,5.58c0,0,0,0,0,0c0.21,1.07,0.47,2.16,0.61,2.59
		C50.72,73.3,50.73,73.36,50.74,73.44z"/>
	<path class="st4" d="M53.22,74.59l-1.51-6.15c-0.11,0.8-0.21,1.44-0.29,1.7c-0.14,0.44-0.39,1.8-0.68,3.29
		c0.18,1.34,0.05,8.59-0.02,9.11c-0.03,0.24-0.02,3.45,0.09,6.65c0.37-0.01,0.73-0.01,1.08-0.01c0.18-1.74,0.42-3.77,0.46-4.07
		C52.4,84.65,52.95,77.95,53.22,74.59z"/>
	<path class="st4" d="M49.09,88.9c0.03,0,0.05,0,0.08,0c-0.06-4.65,0.13-10.02,0.46-10.72c0.11-0.23,0.23-0.64,0.36-1.17
		c0.09-3.29,0.13-6.23,0.11-6.33c-0.14-0.69-0.26-1.37-0.32-1.85c-0.16-1.25-0.63-2.65-0.63-2.65l0.51-0.58
		c-0.03-0.14-0.06-0.33-0.08-0.54c-0.15-0.26,0.04-0.83-0.06-1.39c-0.05-0.29-0.01-0.63,0.09-0.99c-0.02-0.76-0.04-1.42-0.01-1.66
		c0.08-0.7,0.7-1.25,0.86-1.79c0.16-0.55,0.08-2.34,0-2.73c-0.05-0.25-0.79-0.88-1.48-1.4c-0.22,1.23-1.78,19.54-2,20.9
		c-0.13,0.77-0.22,5.93-0.28,10.54c0.18,0.57,0.37,1.43,0.54,2.42C47.76,88.95,48.37,88.93,49.09,88.9z"/>
	<path class="st4" d="M49.72,65.17c0.01,0.13,0.01,0.24,0.02,0.34l0.28-0.32C49.89,65.21,49.79,65.2,49.72,65.17z"/>
	<path class="st4" d="M47.33,89.55c-0.17-0.99-0.44-2.45-0.63-3.01c-0.01,0.84,0.06,2.25,0.05,3.03
		C46.93,89.56,47.12,89.56,47.33,89.55z"/>
	<path class="st4" d="M49.55,86.13c0.17-0.64,0.33-5.14,0.44-9.12c-0.13,0.52-0.25,0.94-0.36,1.17c-0.33,0.71-0.52,6.07-0.46,10.72
		c0.13,0,0.26-0.01,0.39-0.01C49.49,87.51,49.47,86.45,49.55,86.13z"/>
	<path class="st4" d="M50.58,65.1c-0.11,0.01-0.23,0.03-0.35,0.06c-0.08,0.02-0.15,0.03-0.21,0.04l-0.28,0.32
		c0.01,0.25,0.02,0.41,0.02,0.41s-0.05-0.13-0.09-0.33l-0.51,0.58c0,0,0.47,1.4,0.63,2.65c0.06,0.49,0.18,1.17,0.32,1.85
		c0,0,0,0,0,0C50.08,70.54,50.37,67.47,50.58,65.1z"/>
	<path class="st5" d="M72.05,32.95c0.77,0.23,1.18,0.16,1.51,0.06c0.65-1.03,0.59-0.84,0.9-1.62c0.31-0.78-0.23-0.55-0.47-0.86
		c-0.23-0.31-0.55-0.47-1.56-1.69c-1.01-1.22-0.94-1.66-1.48-1.27c-0.55,0.39-1.95,1.87-2.46,2.54l0,0
		c0.22,0.08,0.47,0.17,0.74,0.26C71.27,31.08,70.5,32.49,72.05,32.95z"/>
	<path class="st5" d="M65.51,49.32c-0.45,0.96,0.69,1.03,2.06,1.72c0.13-0.14,0.3-0.3,0.49-0.46c0.72-0.62,1.68-1.31,1.68-1.31
		s-0.3,0.98-0.78,2.54c0.42-0.67,0.91-1.59,1.31-2.36c-0.53-0.15-1.23-1.02-2.66-1.37C66.05,47.69,66.05,48.15,65.51,49.32z"/>
	<path class="st5" d="M68.05,50.58c-0.06,0.19-0.12,0.4-0.19,0.62c0.2,0.11,0.4,0.24,0.6,0.38c0.17,0.13,0.3,0.24,0.41,0.35
		c0.03-0.04,0.05-0.09,0.08-0.13c0.48-1.56,0.78-2.54,0.78-2.54S68.77,49.95,68.05,50.58z"/>
	<path class="st5" d="M68.05,50.58c-0.19,0.16-0.36,0.32-0.49,0.46c0.1,0.05,0.2,0.1,0.3,0.16C67.93,50.98,68,50.77,68.05,50.58z"/>
	<path class="st0" d="M60.21,63.58c-0.08-0.94-0.39-1.01-0.39-2.26c0-0.49-0.18-0.81-0.33-1.01c-0.26,1.16-0.43,2.12-0.45,2.64
		c-0.02,0.48-0.11,1.23-0.23,2.09c0.06-0.02,0.11-0.04,0.16-0.07C59.58,64.6,60.29,64.52,60.21,63.58z"/>
	<path class="st0" d="M50.72,64.4l0.16,0.67c0.52-0.04,0.94-0.02,1.26-0.27c0.12-1.16,0.21-2.05,0.21-2.05s1.27-1.56,1.34-1.71
		c0.07-0.16,1.94,0.47,1.94,0.47l-0.39,1.56c0,0-0.12,0.59-0.29,1.49c0.18,0.24,0.35,0.44,0.35,0.44s0.53,0.07,1.19,0.12
		c0.56-3.87,0.99-7.58,0.99-7.58l0,0c-0.14,0-0.33-0.1-0.54-0.33c-0.49-0.55-0.7-1.39-1.18-2.37c-0.66-0.38-1.33-0.75-1.64-0.86
		c-0.48-0.17-1.44-0.48-1.89-0.62c-0.45,0.38,0.35,1.32,0.89,2.14c0.62,0.94,1.17,2.49,1.01,3.74c-0.15,1.2-1.75,2.19-3.33,3.31
		c-0.02,0.32-0.08,1.05-0.16,1.96L50.72,64.4z"/>
	<path class="st0" d="M47.88,54.3c-0.24-0.23-0.51-0.67-0.73-1.17C47.2,53.54,47.46,53.95,47.88,54.3z"/>
	<path class="st0" d="M78.99,40.75c-0.86-1.4-1.09-2.26-1.87-3.12c-0.59-0.65-1.26-1.55-1.56-1.97c-0.21,0.05-0.4,0.12-0.55,0.33
		c-0.39,0.55-2.73,0.86-4.68,2.1c-1.95,1.25-4.05,5.3-4.99,6.39c-0.94,1.09-1.55,4.91-2.65,5.77c-0.21,0.16-0.36,0.26-0.49,0.32
		c-0.15,0.31-0.29,0.61-0.37,0.85c-0.22,0.67-1.54,5.32-2.29,8.62c0.07,0.01,0.15,0.02,0.26,0.03c1.17,0.16,1.4,0.91,2.34-0.05
		c0.94-0.96,1.48-1.12,1.48-2.37c0-1.11-0.43-1.17,0.35-1.61c0.14-0.42,1.27-2.17,1.85-2.97c0.11-0.15,0.21-0.28,0.32-0.4
		c-1.07-0.23-2.13-0.69-2.21-1.1c-0.16-0.78-0.23-3.27,0-3.51c0.23-0.23,2.89-1.71,3.43-1.71s3.58,1.71,3.58,1.71
		s-0.3,0.6-0.69,1.37c0.05,0.01,0.1,0.03,0.15,0.03c0.55,0,1.79-0.7,2.03-0.16c0.23,0.55,0,0.78,1.48,0.08
		c1.48-0.7,2.26-0.97,2.65-1.46c0.39-0.49,1.32-1.42,1.4-1.81c0.08-0.39,0.23-1.09,0.55-2.26C78.83,42.7,79.85,42.15,78.99,40.75z"
		/>
	<path class="st0" d="M68.91,51.97c-0.15,0.49-0.31,1.02-0.49,1.6C68.99,53.05,69.53,52.64,68.91,51.97z"/>
	<path class="st0" d="M47.94,54.35c-0.01-0.01-0.03-0.02-0.04-0.04C47.91,54.33,47.93,54.34,47.94,54.35z"/>
	<path class="st0" d="M53.48,53.21c0.51,0.04,1.21,0.34,1.61,0.51c-0.8-0.98-1.72-0.72-2.58-0.51
		C52.8,53.19,53.15,53.18,53.48,53.21z"/>
	<path class="st0" d="M48.34,54.63c-0.11-0.08-0.21-0.14-0.29-0.2C48.15,54.5,48.24,54.56,48.34,54.63z"/>
	<path class="st0" d="M52.48,64.29c0.4-1.01,0.55-1.95,0.94-2.1s1.05,0.16,1.03,0.62c-0.02,0.47-0.14,0.7,0,1.01
		c0.07,0.16,0.29,0.47,0.49,0.73c0.17-0.89,0.29-1.49,0.29-1.49l0.39-1.56c0,0-1.87-0.62-1.94-0.47c-0.07,0.16-1.34,1.71-1.34,1.71
		s-0.09,0.88-0.21,2.05C52.28,64.68,52.39,64.53,52.48,64.29z"/>
	<path class="st0" d="M68.39,52.6c-0.18,0.18-0.57,0.25-1.03,0.24c-0.22,0.71-0.46,1.49-0.71,2.31c0.47-0.17,0.87-0.4,1.11-0.84
		c0.16-0.29,0.41-0.53,0.65-0.74c0.18-0.58,0.34-1.11,0.49-1.6c-0.01-0.01-0.02-0.02-0.03-0.03C68.69,52.23,68.52,52.47,68.39,52.6z
		"/>
	<path class="st0" d="M66.65,55.15c0.25-0.82,0.49-1.6,0.71-2.31c-0.37-0.01-0.78-0.06-1.2-0.15c-0.11,0.12-0.21,0.25-0.32,0.4
		c-0.58,0.8-1.71,2.55-1.85,2.97c0.1-0.06,0.21-0.12,0.35-0.19C65.09,55.49,65.95,55.4,66.65,55.15z"/>
	<path class="st0" d="M50.64,64.49c-0.02,0.2-0.04,0.4-0.05,0.61c0.1-0.01,0.21-0.02,0.3-0.03l-0.16-0.67L50.64,64.49z"/>
	<path class="st0" d="M49.67,64.04c0.02,0.42,0.04,0.81,0.05,1.13c0.07,0.03,0.17,0.04,0.29,0.03l0.62-0.71
		c0.08-0.91,0.14-1.65,0.16-1.96c-0.06,0.04-0.12,0.08-0.17,0.12C50.07,63.04,49.79,63.55,49.67,64.04z"/>
	<path class="st0" d="M49.67,64.04c-0.02-0.45-0.04-0.92-0.05-1.36c-0.1,0.36-0.14,0.7-0.09,0.99c0.1,0.56-0.09,1.13,0.06,1.39
		C49.57,64.75,49.58,64.4,49.67,64.04z"/>
	<path class="st0" d="M50.02,65.2c0.06-0.01,0.13-0.02,0.21-0.04c0.12-0.03,0.24-0.05,0.35-0.06c0.02-0.21,0.04-0.41,0.05-0.61
		L50.02,65.2z"/>
	<path class="st0" d="M67.38,46.36c-0.54,0-3.2,1.48-3.43,1.71c-0.23,0.23-0.16,2.73,0,3.51c0.08,0.41,1.14,0.87,2.21,1.1
		c0.51-0.57,0.97-0.87,1.16-1.32c0.04-0.09,0.13-0.2,0.25-0.33c-1.37-0.69-2.51-0.75-2.06-1.72c0.55-1.17,0.55-1.64,2.1-1.25
		c1.42,0.36,2.13,1.22,2.66,1.37c0.4-0.77,0.69-1.37,0.69-1.37S67.92,46.36,67.38,46.36z"/>
	<path class="st0" d="M68.39,52.6c0.13-0.13,0.3-0.36,0.49-0.66c-0.11-0.11-0.24-0.23-0.41-0.35c-0.2-0.15-0.4-0.27-0.6-0.38
		c-0.15,0.49-0.32,1.04-0.5,1.64C67.83,52.85,68.21,52.78,68.39,52.6z"/>
	<path class="st0" d="M67.86,51.2c-0.1-0.06-0.2-0.11-0.3-0.16c-0.12,0.13-0.21,0.24-0.25,0.33c-0.19,0.45-0.65,0.75-1.16,1.32
		c0.42,0.09,0.83,0.15,1.2,0.15C67.55,52.24,67.71,51.69,67.86,51.2z"/>
	<path class="st6" d="M54.91,73.41c-0.29,0.71-0.57,2.83-0.84,5.54c0.39,0.73,0.92,1.84,0.77,2.2c-0.1,0.25-0.35,3.88-0.59,7.72
		c0.12,0,0.24,0,0.35,0c0.41-6.26,1.01-13.98,1.61-15.46c0.48-1.18,1.08-4.77,1.57-8.25c-0.42,0-0.88-0.02-1.29-0.05
		C55.99,68.6,55.39,72.22,54.91,73.41z"/>
	<path class="st6" d="M54.07,78.94c-0.29,2.97-0.56,6.64-0.77,9.91c0.32,0,0.64,0.01,0.95,0.01c0.24-3.84,0.49-7.47,0.59-7.72
		C54.98,80.79,54.45,79.68,54.07,78.94z"/>
	<path class="st6" d="M58.1,55.52c0,0,0.01,0.01,0.01,0.01l-0.34-1.02C57.81,54.92,57.9,55.35,58.1,55.52z"/>
	<path class="st6" d="M57.01,53.28c-0.05,0.06-0.08,0.16-0.08,0.33c0,0.29,0.04,0.77,0.15,1.31c0.02,0.02,0.03,0.03,0.03,0.03
		C57.12,54.43,57.19,53.77,57.01,53.28z"/>
	<path class="st6" d="M57.35,55.81c-0.01-0.01-0.02-0.02-0.04-0.02c0.07,0.21,0.15,0.43,0.24,0.63c0.31,0.68,0.21,1.11-0.08,1.11
		l0,0c0,0-0.43,3.71-0.99,7.58c0.41,0.03,0.87,0.06,1.29,0.05c0.56-3.89,0.99-7.63,0.99-7.63l-0.21-0.63
		c-0.18-0.07-0.36-0.16-0.46-0.21C57.87,56.56,57.93,56.21,57.35,55.81z"/>
	<path class="st4" d="M59.49,60.32c0.02-0.09,0.04-0.18,0.06-0.27C59.16,60,59.3,60.05,59.49,60.32z"/>
	<path class="st4" d="M54.59,88.87c0.39,0.01,0.78,0.01,1.15,0.02c0.01-0.13,0.01-0.21,0.01-0.21l1.87-16.99
		c0,0,0.77-3.89,1.17-6.64c-0.24,0.07-0.61,0.1-1.02,0.11c-0.5,3.47-1.1,7.07-1.57,8.25C55.6,74.89,55,82.61,54.59,88.87z"/>
	<path class="st4" d="M61.96,50.63c-0.58,0.96-1.38,2.49-1.48,3.09c-0.12,0.69-0.75,2.47-0.75,2.47l-0.69,0.89
		c0,0-0.09-0.03-0.21-0.08c-0.02,0-0.04-0.01-0.06-0.02c-0.06-0.03-0.13-0.05-0.2-0.08l0.21,0.63c0,0-0.43,3.74-0.99,7.63
		c0.42,0,0.79-0.03,1.02-0.11c0.13-0.86,0.22-1.61,0.23-2.09c0.02-0.52,0.2-1.49,0.45-2.64c-0.19-0.26-0.33-0.32,0.06-0.27
		c0.75-3.3,2.07-7.94,2.29-8.62c0.08-0.25,0.22-0.54,0.37-0.85C62.1,50.63,62.02,50.64,61.96,50.63z"/>
	<path class="st4" d="M57.78,54.51l0.34,1.02c0.07,0.06,0.14,0.14,0.22,0.22c-0.13-0.39-0.36-0.92-0.56-1.38
		C57.77,54.42,57.78,54.47,57.78,54.51z"/>
	<path class="st1" d="M51.89,57.1c-0.14,0.61-0.39,1.69-0.61,2.73c0.37-0.49,0.54-0.76,0.82-1.62
		C52.26,57.73,52.13,57.39,51.89,57.1z"/>
	<path class="st1" d="M67.24,38.29c0,0,1-0.44,1.83-0.89c1.21-1.55,2.15-2.67,2.44-2.81c0.01-0.01,0.03-0.01,0.04-0.01
		c-0.18,0-0.37-0.03-0.59-0.09c-0.24-0.07-0.53-0.15-0.83-0.24c-0.73,0.74-1.89,1.95-1.97,2.09C68.05,36.55,67.24,38.29,67.24,38.29
		z"/>
	<path class="st1" d="M47.9,54.31c-0.01-0.01-0.01-0.01-0.02-0.02C47.89,54.3,47.89,54.31,47.9,54.31z"/>
	<path class="st1" d="M66.66,39.91c-0.18,0.3-0.38,0.83-0.57,1.41c0.62-0.83,1.24-1.66,1.83-2.44
		C67.45,39.07,67.01,39.33,66.66,39.91z"/>
	<path class="st1" d="M47.19,52.67c0.15-0.51,2.93-1.54,4.9-2.21c-0.13-0.13-0.24-0.27-0.29-0.44c-0.23-0.69-0.81-2.31-0.81-2.31
		s1.18,1.98,1.88,2.49c0.67-0.22,1.13-0.36,1.17-0.38c0.08-0.02,1.36,0.69,2.65,1.35c-0.07-0.75-0.27-1.84-0.45-2.37
		c-0.23-0.69-0.81-1.1-1.33-1.97c-0.52-0.87-1.21-2.02-1.21-2.02l2.31,2.2c0,0,0.12-0.69,0.23-1.33c0.12-0.64,0.46-2.31,0.52-3.12
		c0.06-0.81,0.36-2.08,0.36-2.08s0.08,3.3,0,4.34c-0.08,1.04-0.32,2.95,0.03,4.11c0.18,0.58,0.32,1.69,0.43,2.71
		c0.11,0.06,0.22,0.11,0.33,0.16c0.52-0.37,1.36-0.95,2.14-1.47c0.33-0.89,0.71-1.82,0.97-2.23c0.01-0.21,0.02-0.43,0.02-0.66
		c0-1.97,0.06-3.35-0.4-4.91c-0.46-1.56-1.79-3.14-1.73-3.97c0.06-0.83,0.46-0.25,0.64,0.33c0.17,0.58,0.4,1.16,0.87,1.73
		c0.46,0.58,0.41,0.98,0.64,0.87c0.23-0.12,0.58-1.04,0.92-1.79c0.35-0.75,1.1-3.76,1.1-4.16s0.58-2.66,0.58-2.66s-0.06,1.39,0,1.79
		c0.06,0.4-1.39,6.36-1.45,6.65c-0.06,0.29-0.29,0.98-0.4,1.62c-0.12,0.64-0.06,1.97-0.06,2.83c0,0.36,0.01,0.89,0.02,1.4
		c0.58-0.78,1.53-2.06,2.6-3.51c0.1-0.29,0.21-0.58,0.32-0.89c0.75-2.02,1.68-5.2,1.68-5.84c0-0.64-0.58-3.58-0.52-4.05
		c0.06-0.46,0.75,1.27,0.87,1.91c0.12,0.64,0,1.58,0,1.58s1.39-1.47,1.91-1.81c0.2-0.14,0.57-0.3,0.93-0.45
		c-1.13-0.34-2.28-0.75-2.18-1.13c0.15-0.55,1.12-2.83,1.12-2.83c-1.43-0.51-1.9-0.68-2.38-0.21c-0.55,0.55-0.47,1.25-1.17,1.4
		c-0.7,0.16-0.7-0.55-2.49-0.08c-1.79,0.47-2.57,1.09-2.49,1.79c0.08,0.7,1.48,1.05-0.16,1.46c-1.64,0.41-2.88,0.72-3.43,1.5
		c-0.55,0.78-0.86,1.25-0.7,2.1c0.16,0.86,0.86,1.95,0.55,2.42c-0.31,0.47-2.34,2.18-2.42,2.81c-0.08,0.62,0.08,0.86-0.94,0.78
		c-1.01-0.08-2.24-0.16-3.3,0.7c-1.06,0.86-1.22,1.79-1.14,2.18c0.08,0.39,1.7,1.09,0.69,2.03c-1.01,0.94-0.23,0.7-1.01,0.94
		c-0.78,0.23-1.01,0.39-1.32,1.17c-0.17,0.43,0.04,1.28,0.36,2.01C47.14,52.98,47.15,52.83,47.19,52.67z"/>
	<path class="st1" d="M50.5,55.81c-0.5-0.54-0.97-0.52-1.9-1.03c-0.09-0.05-0.17-0.1-0.25-0.15c0.19,0.13,0.41,0.29,0.64,0.47
		c0.01-0.04,0.01-0.06,0.02-0.07L50.5,55.81z"/>
	<path class="st1" d="M72.06,34.49c1.24-0.01,3.35,0.95,3.35,0.95s0.06,0.08,0.16,0.22c0.34-0.08,0.77-0.1,1.25-0.53
		c0.78-0.7,1.17,0.11,0.47-0.65c-0.7-0.76-1.71-1.23-2.65-1.54c-0.47-0.16-0.73-0.04-1.06,0.06l0,0
		C73.13,33.7,72.68,34.28,72.06,34.49z"/>
	<path class="st1" d="M48.01,54.4c0.01,0.01,0.03,0.02,0.05,0.03c-0.04-0.03-0.08-0.05-0.11-0.08
		C47.97,54.37,47.99,54.39,48.01,54.4z"/>
	<path class="st1" d="M50.46,56.49c0.08,0.39,0.16,2.18,0,2.73c-0.16,0.55-0.78,1.09-0.86,1.79c-0.03,0.24-0.02,0.9,0.01,1.66
		c0.2-0.72,0.64-1.53,1.16-2.21c0.21-0.27,0.37-0.47,0.5-0.64c0.22-1.03,0.47-2.11,0.61-2.73c-0.35-0.43-0.95-0.73-1.27-1.15
		c-0.04-0.05-0.08-0.1-0.13-0.14L49,55.03c0,0.01-0.01,0.03-0.02,0.07C49.67,55.62,50.42,56.24,50.46,56.49z"/>
	<path class="st1" d="M49.72,65.17c-0.06-0.02-0.1-0.06-0.13-0.11c0.02,0.21,0.05,0.39,0.08,0.54l0.07-0.08
		C49.74,65.41,49.73,65.3,49.72,65.17z"/>
	<path class="st1" d="M49.74,65.51l-0.07,0.08c0.05,0.2,0.09,0.33,0.09,0.33S49.75,65.77,49.74,65.51z"/>
	<path class="st1" d="M69.56,34.09c0.57-0.23,1.15-0.42,1.15-0.42s-0.24,0.25-0.58,0.59c0.3,0.09,0.59,0.17,0.83,0.24
		c0.21,0.06,0.4,0.09,0.59,0.09c0.14-0.06,0.31-0.08,0.51-0.08c0.62-0.21,1.08-0.8,1.51-1.48l0,0c-0.33,0.1-0.74,0.17-1.51-0.06
		c-1.56-0.47-0.78-1.87-2.81-2.57c-0.27-0.09-0.52-0.18-0.74-0.26c0,0-0.97,2.29-1.12,2.83C67.28,33.33,68.43,33.74,69.56,34.09z"/>
	<path class="st1" d="M61.04,48.09c-0.27,0.41-0.65,1.34-0.97,2.23c0.27-0.18,0.53-0.36,0.76-0.52C60.92,49.32,61,48.76,61.04,48.09
		z"/>
	<path class="st1" d="M57.93,51.79c-0.11-0.05-0.22-0.1-0.33-0.16c0.01,0.13,0.02,0.25,0.04,0.37
		C57.71,51.95,57.81,51.88,57.93,51.79z"/>
	<path class="st1" d="M55.76,54.82c0.48,0.98,0.69,1.82,1.18,2.37c0.21,0.23,0.4,0.34,0.54,0.33l-0.69-2.08
		C56.49,55.25,56.12,55.03,55.76,54.82z"/>
	<path class="st1" d="M72.06,34.49c-0.16,0.05-0.33,0.08-0.51,0.08c-0.01,0-0.03,0.01-0.04,0.01c-0.29,0.13-1.24,1.26-2.44,2.81
		c0.45-0.24,0.84-0.49,1.01-0.67c0.46-0.52,1.73-1.45,1.73-1.45s1.16,0.06,1.5,0c0.35-0.06-0.52,0.46-1.1,0.69
		c-0.58,0.23-2.6,2.24-3.35,2.57c-0.3,0.13-0.62,0.22-0.94,0.35c-0.59,0.78-1.22,1.61-1.83,2.44c-0.43,1.29-0.86,2.89-1.1,3.16
		c-0.25,0.29-1.31,2.72-2.08,4.38l0.34-0.09c0,0-0.12,0.19-0.28,0.47c-0.21,0.35-0.5,0.85-0.74,1.33c0.12-0.06,0.28-0.16,0.49-0.32
		c1.1-0.86,1.71-4.68,2.65-5.77c0.94-1.09,3.04-5.14,4.99-6.39c1.95-1.25,4.29-1.56,4.68-2.1c0.15-0.21,0.33-0.28,0.55-0.33
		c-0.1-0.14-0.16-0.22-0.16-0.22S73.3,34.48,72.06,34.49z"/>
	<path class="st1" d="M62.9,47.02c0.54-0.64,0.91-1.81,1.47-3.38c-1.08,1.46-2.02,2.74-2.6,3.51c0.02,0.72,0.04,1.39,0.04,1.49
		C61.8,48.81,62.27,47.77,62.9,47.02z"/>
	<path class="st5" d="M50.5,55.81l1.52,0.78c0,0-0.05,0.19-0.12,0.51c0.24,0.29,0.37,0.64,0.21,1.11c-0.29,0.86-0.45,1.13-0.82,1.62
		c-0.26,1.18-0.48,2.29-0.48,2.58c0,0.03,0,0.07,0,0.12c1.58-1.12,3.18-2.1,3.33-3.31c0.16-1.25-0.39-2.81-1.01-3.74
		c-0.55-0.82-1.35-1.76-0.89-2.14c-0.15-0.05-0.25-0.08-0.25-0.08s0.23-0.03,0.54-0.05c0.86-0.21,1.78-0.48,2.58,0.51
		c0.14,0.06,0.25,0.11,0.29,0.12c0.17,0.06,0.52,0.29,0.75,0.4c0.07,0.04,0.19,0.12,0.32,0.21L56.31,54c0,0,0.25-0.5,0.54-1
		c-0.08-0.1-0.18-0.19-0.31-0.25c-0.75-0.35-1.21-0.69-2.37-1.21c-0.88-0.4-1.66-0.66-2.08-1.07c-1.97,0.67-4.75,1.7-4.9,2.21
		c-0.05,0.15-0.05,0.3-0.03,0.45c0.22,0.5,0.49,0.95,0.73,1.17c0.01,0.01,0.01,0.01,0.02,0.02c0.02,0.01,0.03,0.02,0.04,0.04
		c0.03,0.03,0.07,0.05,0.11,0.08c0.08,0.05,0.18,0.12,0.29,0.2c0.08,0.05,0.16,0.1,0.25,0.15C49.53,55.28,50,55.26,50.5,55.81z"/>
	<path class="st1" d="M54.58,51.33c0.51-0.09,2.07,1.01,2.13,0.43c0.01-0.14,0.01-0.34-0.01-0.58c-1.29-0.67-2.58-1.37-2.65-1.35
		c-0.04,0.01-0.51,0.16-1.17,0.38c0.03,0.02,0.06,0.04,0.08,0.06C53.65,50.66,54.07,51.41,54.58,51.33z"/>
	<path class="st1" d="M50.5,55.81c0.04,0.05,0.08,0.09,0.13,0.14c0.32,0.42,0.92,0.72,1.27,1.15c0.07-0.31,0.12-0.51,0.12-0.51
		L50.5,55.81z"/>
	<path class="st1" d="M50.62,62.65c0.06-0.04,0.12-0.08,0.17-0.12c0-0.05,0-0.09,0-0.12c0-0.29,0.22-1.41,0.48-2.58
		c-0.13,0.17-0.3,0.38-0.5,0.64c-0.52,0.68-0.96,1.49-1.16,2.21c0.01,0.44,0.03,0.91,0.05,1.36C49.79,63.55,50.07,63.04,50.62,62.65
		z"/>
	<path class="st1" d="M49.72,65.17c-0.02-0.32-0.04-0.71-0.05-1.13c-0.09,0.36-0.1,0.72-0.08,1.02
		C49.62,65.11,49.66,65.14,49.72,65.17z"/>
	<path class="st1" d="M72.06,34.49c-0.19,0-0.37,0.03-0.51,0.08C71.73,34.58,71.9,34.55,72.06,34.49z"/>
	<path class="st1" d="M58.77,52.13c0.11-0.09,0.44-0.33,0.88-0.64c0.11-0.34,0.25-0.75,0.4-1.17c-0.77,0.53-1.62,1.11-2.14,1.47
		c0.3,0.15,0.58,0.27,0.82,0.37C58.75,52.15,58.76,52.14,58.77,52.13z"/>
	<path class="st1" d="M57.75,53.72c0.23-0.44,0.69-1.27,0.99-1.56c-0.23-0.09-0.51-0.22-0.82-0.37c-0.12,0.08-0.21,0.15-0.29,0.21
		C57.71,52.78,57.75,53.45,57.75,53.72z"/>
	<path class="st1" d="M56.93,53.61c0-0.17,0.03-0.27,0.08-0.33c-0.04-0.1-0.09-0.2-0.16-0.28c-0.29,0.49-0.54,1-0.54,1l0.15,0.46
		c0.24,0.17,0.53,0.39,0.63,0.46C56.98,54.38,56.93,53.9,56.93,53.61z"/>
	<path class="st1" d="M57.56,56.41c-0.09-0.2-0.17-0.42-0.24-0.63c-0.13-0.09-0.31-0.21-0.53-0.34l0.69,2.08
		C57.76,57.52,57.87,57.09,57.56,56.41z"/>
	<path class="st1" d="M62.95,49.24c0.17-0.28,0.28-0.47,0.28-0.47l-0.34,0.09c-0.1,0.22-0.2,0.42-0.29,0.61
		C62.76,49.37,62.87,49.3,62.95,49.24z"/>
	<path class="st1" d="M60.55,50.87c0.09-0.31,0.18-0.66,0.27-1.07c-0.23,0.16-0.49,0.33-0.76,0.52c-0.15,0.42-0.29,0.83-0.4,1.17
		C59.93,51.3,60.23,51.09,60.55,50.87z"/>
	<path class="st1" d="M59.43,52.28c0.02-0.11,0.1-0.41,0.23-0.79c-0.44,0.31-0.78,0.55-0.88,0.64c-0.01,0.01-0.02,0.02-0.03,0.03
		C59.15,52.32,59.41,52.39,59.43,52.28z"/>
	<path class="st1" d="M62.61,49.47c-0.17,0.35-0.32,0.63-0.42,0.78c-0.07,0.11-0.15,0.24-0.23,0.38c0.06,0.01,0.14,0,0.26-0.06
		c0.24-0.48,0.53-0.98,0.74-1.33C62.87,49.3,62.76,49.37,62.61,49.47z"/>
	<path class="st1" d="M57.77,54.37c0.2,0.46,0.43,0.99,0.56,1.38c0.28,0.32,0.56,0.68,0.7,0.23c0.17-0.58,1.16-3.76,1.39-4.63
		c0.04-0.15,0.09-0.32,0.14-0.49c-0.32,0.22-0.63,0.43-0.89,0.62c-0.12,0.38-0.21,0.68-0.23,0.79c-0.02,0.1-0.28,0.04-0.69-0.12
		c-0.3,0.29-0.76,1.12-0.99,1.56c0,0.02,0,0.05,0,0.07C57.76,53.94,57.76,54.15,57.77,54.37z"/>
	<path class="st1" d="M58.82,57c-0.02-0.01-0.04-0.01-0.06-0.02C58.78,56.99,58.8,57,58.82,57z"/>
	<path class="st7" d="M57.77,54.37c-0.05-0.12-0.1-0.23-0.14-0.33l0.15,0.47C57.78,54.47,57.77,54.42,57.77,54.37z"/>
	<path class="st7" d="M58.41,56.02c-0.02-0.08-0.05-0.17-0.08-0.27c-0.07-0.08-0.15-0.16-0.22-0.22l0.45,1.36
		c0.07,0.03,0.14,0.06,0.2,0.08C58.62,56.87,58.52,56.43,58.41,56.02z"/>
	<path class="st7" d="M70.71,33.66c0,0-0.58,0.19-1.15,0.42c0.19,0.06,0.39,0.11,0.57,0.17C70.47,33.91,70.71,33.66,70.71,33.66z"/>
	<path class="st7" d="M52.51,53.21c-0.31,0.02-0.54,0.05-0.54,0.05s0.09,0.03,0.25,0.08c0.06-0.05,0.15-0.09,0.26-0.12
		C52.49,53.22,52.5,53.21,52.51,53.21z"/>
	<path class="st7" d="M57.76,53.79c0-0.02,0-0.05,0-0.07C57.67,53.89,57.61,54,57.61,54l0.02,0.05c0.05,0.1,0.09,0.21,0.14,0.33
		C57.76,54.15,57.76,53.94,57.76,53.79z"/>
	<g>
		<path class="st7" d="M50.99,47.71c0,0,0.58,1.62,0.81,2.31c0.06,0.17,0.16,0.31,0.29,0.44c0.28-0.1,0.55-0.18,0.78-0.26
			C52.17,49.69,50.99,47.71,50.99,47.71z"/>
		<path class="st7" d="M68.86,38.54c0.75-0.33,2.78-2.33,3.35-2.57c0.58-0.23,1.45-0.75,1.1-0.69c-0.35,0.06-1.5,0-1.5,0
			s-1.27,0.93-1.73,1.45c-0.16,0.18-0.56,0.43-1.01,0.67c-0.36,0.46-0.75,0.96-1.15,1.49C68.23,38.77,68.55,38.67,68.86,38.54z"/>
		<g>
			<path class="st7" d="M55.76,54.82c-0.13-0.27-0.28-0.54-0.46-0.82c-0.07-0.1-0.14-0.19-0.2-0.28c-0.4-0.17-1.1-0.47-1.61-0.51
				c-0.33-0.03-0.68-0.02-0.96,0c-0.01,0-0.02,0-0.03,0.01c-0.12,0.03-0.2,0.07-0.26,0.12c0.45,0.14,1.42,0.44,1.89,0.62
				C54.43,54.07,55.1,54.44,55.76,54.82z"/>
			<path class="st7" d="M58.1,55.52c-0.21-0.17-0.29-0.6-0.32-1.01l-0.15-0.47c-0.1-0.22-0.18-0.41-0.22-0.52
				c-0.11-0.27-0.29-0.38-0.39-0.25c0.18,0.49,0.11,1.15,0.11,1.66c0,0-0.01-0.01-0.03-0.03c0.06,0.28,0.13,0.58,0.23,0.87
				c0.01,0.01,0.03,0.02,0.04,0.02c0.58,0.4,0.52,0.75,0.75,0.88c0.1,0.05,0.28,0.13,0.46,0.21l-0.45-1.36
				C58.11,55.53,58.11,55.52,58.1,55.52z"/>
			<path class="st7" d="M61.84,50.26c0,0-0.62,0.39-0.68,1.09c-0.06,0.7-0.8,1.01-1.03,1.49c-0.23,0.48-0.78,3.42-1.09,3.96
				c-0.08,0.15-0.15,0.2-0.22,0.19c0.12,0.05,0.21,0.08,0.21,0.08l0.69-0.89c0,0,0.64-1.77,0.75-2.47c0.1-0.61,0.91-2.14,1.48-3.09
				C61.75,50.6,61.84,50.26,61.84,50.26z"/>
			<path class="st7" d="M66.66,39.91c0.34-0.58,0.79-0.84,1.26-1.03c0.4-0.53,0.78-1.03,1.15-1.49c-0.83,0.45-1.83,0.89-1.83,0.89
				s0.81-1.73,0.93-1.95c0.08-0.14,1.24-1.35,1.97-2.09c-0.19-0.05-0.38-0.11-0.57-0.17c-0.37,0.15-0.73,0.31-0.93,0.45
				c-0.52,0.35-1.91,1.81-1.91,1.81s0.12-0.95,0-1.58c-0.12-0.64-0.81-2.37-0.87-1.91c-0.06,0.46,0.52,3.41,0.52,4.05
				c0,0.64-0.93,3.82-1.68,5.84c-0.12,0.31-0.22,0.61-0.32,0.89c0.55-0.74,1.13-1.52,1.72-2.31C66.28,40.74,66.48,40.22,66.66,39.91
				z"/>
			<path class="st7" d="M61.77,47.15c-0.01-0.51-0.02-1.04-0.02-1.4c0-0.87-0.06-2.2,0.06-2.83c0.12-0.64,0.35-1.33,0.4-1.62
				c0.06-0.29,1.5-6.24,1.45-6.65c-0.06-0.4,0-1.79,0-1.79s-0.58,2.26-0.58,2.66s-0.75,3.41-1.1,4.16
				c-0.35,0.75-0.69,1.68-0.92,1.79c-0.23,0.12-0.18-0.29-0.64-0.87c-0.46-0.58-0.69-1.16-0.87-1.73c-0.17-0.58-0.58-1.16-0.64-0.33
				c-0.06,0.83,1.27,2.41,1.73,3.97c0.46,1.56,0.4,2.95,0.4,4.91c0,0.23-0.01,0.45-0.02,0.66c0.05-0.07,0.09-0.13,0.13-0.17
				C61.23,47.86,61.44,47.58,61.77,47.15z"/>
			<path class="st7" d="M57.17,48.93c-0.35-1.16-0.11-3.06-0.03-4.11c0.08-1.04,0-4.34,0-4.34s-0.31,1.27-0.36,2.08
				c-0.06,0.81-0.4,2.49-0.52,3.12c-0.12,0.64-0.23,1.33-0.23,1.33l-2.31-2.2c0,0,0.69,1.16,1.21,2.02c0.52,0.87,1.1,1.27,1.33,1.97
				c0.18,0.53,0.38,1.62,0.45,2.37c0.3,0.16,0.61,0.31,0.9,0.45C57.5,50.62,57.35,49.51,57.17,48.93z"/>
			<path class="st7" d="M55.76,54.82c0.37,0.21,0.73,0.43,1.03,0.62l-0.33-0.99c-0.13-0.09-0.25-0.17-0.32-0.21
				c-0.23-0.12-0.58-0.35-0.75-0.4c-0.05-0.02-0.15-0.06-0.29-0.12c0.07,0.08,0.14,0.18,0.2,0.28
				C55.48,54.28,55.63,54.56,55.76,54.82z"/>
			<path class="st7" d="M57.48,52.13c0.03-0.03,0.09-0.07,0.16-0.12c-0.01-0.12-0.02-0.25-0.04-0.37c-0.29-0.14-0.59-0.3-0.9-0.45
				c0.02,0.24,0.03,0.44,0.01,0.58c-0.06,0.58-1.62-0.52-2.13-0.43c-0.51,0.09-0.93-0.66-1.63-1.07c-0.03-0.02-0.05-0.04-0.08-0.06
				c-0.24,0.08-0.5,0.17-0.78,0.26c0.42,0.41,1.2,0.67,2.08,1.07c1.16,0.52,1.62,0.87,2.37,1.21c0.13,0.06,0.23,0.15,0.31,0.25
				C57.07,52.64,57.3,52.28,57.48,52.13z"/>
			<path class="st7" d="M61.77,49.17l1.13-0.3c0.78-1.66,1.83-4.09,2.08-4.38c0.24-0.27,0.67-1.87,1.1-3.16
				c-0.59,0.79-1.17,1.57-1.72,2.31c-0.56,1.57-0.93,2.75-1.47,3.38c-0.64,0.75-1.1,1.79-1.1,1.62c0-0.1-0.02-0.77-0.04-1.49
				c-0.32,0.43-0.54,0.71-0.6,0.77c-0.04,0.04-0.08,0.1-0.13,0.17c-0.03,0.68-0.12,1.24-0.21,1.72
				C61.37,49.43,61.77,49.17,61.77,49.17z"/>
			<path class="st7" d="M57.4,53.53c0.04,0.1,0.12,0.29,0.22,0.52L57.61,54c0,0,0.06-0.11,0.15-0.28c-0.01-0.26-0.05-0.93-0.12-1.71
				c-0.07,0.05-0.13,0.1-0.16,0.12c-0.17,0.15-0.41,0.51-0.62,0.87c0.07,0.08,0.12,0.18,0.16,0.28
				C57.11,53.15,57.29,53.26,57.4,53.53z"/>
			<path class="st7" d="M60.82,49.8c-0.08,0.41-0.18,0.75-0.27,1.07c0.76-0.52,1.57-1.07,2.06-1.4c0.09-0.18,0.19-0.39,0.29-0.61
				l-1.13,0.3C61.77,49.17,61.37,49.43,60.82,49.8z"/>
			<path class="st7" d="M57.32,55.78c-0.1-0.29-0.17-0.59-0.23-0.87c-0.1-0.07-0.38-0.29-0.63-0.46l0.33,0.99
				C57.01,55.58,57.19,55.7,57.32,55.78z"/>
			<path class="st7" d="M60.42,51.36c-0.23,0.87-1.21,4.05-1.39,4.63c-0.14,0.45-0.41,0.09-0.7-0.23c0.03,0.1,0.06,0.19,0.08,0.27
				c0.1,0.41,0.2,0.85,0.35,0.95c0.02,0.01,0.04,0.02,0.06,0.02c0.06,0.01,0.14-0.05,0.22-0.19c0.31-0.55,0.86-3.48,1.09-3.96
				c0.23-0.48,0.98-0.79,1.03-1.49c0.06-0.7,0.68-1.09,0.68-1.09s-0.1,0.34,0.11,0.38c0.08-0.14,0.16-0.27,0.23-0.38
				c0.1-0.16,0.25-0.44,0.42-0.78c-0.49,0.33-1.3,0.88-2.06,1.4C60.5,51.04,60.46,51.2,60.42,51.36z"/>
		</g>
	</g>
	<path class="st5" d="M57.03,22.95c-1.28-1.12-3.06-2.15-4.52-0.56c-1.46,1.59-1.2,2.87-3.01,3.19s-2.31-0.16-2.89,0.56
		c-0.59,0.72-1.56,2.23-1.71,2.63c-0.15,0.4-2.51,0.11-1.57,1.09s1.64,0.98,2.61,1.22c0.97,0.24,2.17,0.88,3.48,0
		c1.31-0.88,1.16-0.72,1.83-2.23c0.67-1.51-0.54-3.96,1.7-2.3c2.24,1.66,4.06,2.18,3.51,0.88c-0.55-1.3-1.91-1.46-0.83-2.17
		C56.71,24.55,57.03,22.95,57.03,22.95z"/>
	<path class="st5" d="M38.14,43.64c-1.91,2.43-0.88,3.6-1.75,4.45c-0.88,0.85-4.07,1.14-1.36,2.23s2.23,1.64,3.11,0.57
		s0.05-2.81,1.42-2.02c1.37,0.79,1.33,1.01,2.23,0.22c0.9-0.79,1.06-0.85,0.9-1.38c-0.16-0.53,0.53-0.51-1.13-1.35
		c-1.66-0.85-1.88-0.93-1.41-1.65c0.47-0.72,0.58-1.04,1.64-1.08s1.95,0.76,1.94-0.67c-0.01-1.43-0.4-2.28-1.04-1.58
		s-0.84,2.24-1.9,1.15s-0.79-1.73-1.8-2.05c-1.01-0.32-1.33-0.36-2.29-0.02c-0.96,0.34-1.74-0.43-2.74,0.91
		c-1,1.34-3.23,1.57-1.36,2.25c1.87,0.68,1.87,0.36,2.75,0s0.4-0.59,1.36-0.59C37.66,43.04,38.14,43.64,38.14,43.64z"/>
	<g>
		<path class="st7" d="M49.88,49.21c0,0-0.73,1.39-1.03,1.99c-0.07,0.14-0.17,0.26-0.3,0.36c-0.19-0.13-0.36-0.25-0.52-0.36
			C48.64,50.84,49.88,49.21,49.88,49.21z"/>
		<path class="st7" d="M38.66,38.1c-0.48-0.41-1.57-2.56-1.94-2.86c-0.38-0.3-0.91-0.91-0.66-0.8c0.24,0.11,1.09,0.23,1.09,0.23
			s0.75,1.04,0.98,1.59c0.08,0.19,0.32,0.48,0.6,0.77c0.17,0.48,0.36,1,0.55,1.54C39.07,38.4,38.86,38.27,38.66,38.1z"/>
		<g>
			<path class="st7" d="M45.05,54.97c0.15-0.22,0.31-0.45,0.49-0.68c0.07-0.08,0.14-0.16,0.2-0.22c0.33-0.1,0.89-0.26,1.27-0.22
				c0.24,0.03,0.5,0.09,0.7,0.15c0.01,0,0.01,0.01,0.02,0.01c0.08,0.04,0.13,0.09,0.17,0.15c-0.36,0.06-1.11,0.19-1.49,0.27
				C46.16,54.49,45.6,54.72,45.05,54.97z"/>
			<path class="st7" d="M43.21,55.25c0.18-0.13,0.33-0.5,0.43-0.87l0.2-0.4c0.12-0.19,0.21-0.35,0.26-0.44
				c0.13-0.23,0.28-0.31,0.33-0.17c-0.23,0.42-0.3,1.03-0.4,1.5c0,0,0.01-0.01,0.03-0.02c-0.1,0.25-0.21,0.5-0.33,0.76
				c-0.01,0.01-0.02,0.01-0.03,0.02c-0.5,0.28-0.52,0.61-0.71,0.68c-0.08,0.03-0.23,0.08-0.38,0.12l0.59-1.17
				C43.2,55.25,43.21,55.25,43.21,55.25z"/>
			<path class="st7" d="M41.51,49.87c0,0,0.38,0.45,0.28,1.1c-0.09,0.65,0.39,1.05,0.46,1.52c0.08,0.48-0.09,3.24,0.03,3.78
				c0.03,0.15,0.07,0.21,0.12,0.21c-0.1,0.03-0.17,0.04-0.17,0.04l-0.33-0.91c0,0-0.12-1.72-0.07-2.37
				c0.04-0.57-0.25-2.09-0.48-3.05C41.51,50.2,41.51,49.87,41.51,49.87z"/>
			<path class="st7" d="M39.99,39.69c-0.14-0.58-0.41-0.89-0.72-1.13c-0.19-0.54-0.37-1.06-0.55-1.54c0.51,0.54,1.16,1.09,1.16,1.09
				s-0.25-1.71-0.3-1.92c-0.03-0.14-0.64-1.42-1.03-2.21c0.15-0.02,0.3-0.04,0.45-0.07c0.24,0.19,0.47,0.39,0.59,0.55
				c0.31,0.4,1.04,1.95,1.04,1.95s0.1-0.88,0.3-1.44c0.21-0.56,1.04-2.04,1-1.61c-0.05,0.43-1.03,3.04-1.16,3.62
				c-0.12,0.58-0.06,3.63,0.1,5.59c0.02,0.3,0.04,0.59,0.06,0.87c-0.26-0.76-0.53-1.57-0.8-2.37C40.11,40.5,40.07,40,39.99,39.69z"
				/>
			<path class="st7" d="M42.16,47.04c0.11-0.46,0.22-0.95,0.29-1.28c0.17-0.79,0.46-2,0.5-2.6c0.04-0.6,0-1.27,0.02-1.54
				c0.01-0.27,0.11-5.93,0.23-6.29c0.12-0.36,0.34-1.64,0.34-1.64s-0.01,2.15-0.09,2.52c-0.08,0.37-0.11,3.23,0,3.97
				c0.11,0.74,0.18,1.64,0.33,1.78c0.14,0.14,0.18-0.24,0.63-0.69c0.45-0.46,0.73-0.95,0.96-1.45c0.24-0.5,0.64-0.97,0.52-0.2
				c-0.12,0.77-1.39,2-2.02,3.36c-0.64,1.35-0.86,2.63-1.24,4.43c-0.04,0.21-0.08,0.41-0.11,0.61c-0.02-0.07-0.04-0.13-0.06-0.17
				C42.41,47.77,42.31,47.48,42.16,47.04z"/>
			<path class="st7" d="M45.16,49.37c0.48-1,0.67-2.78,0.81-3.74c0.15-0.96,0.83-3.96,0.83-3.96s-0.02,1.21-0.14,1.96
				c-0.11,0.75-0.18,2.33-0.22,2.93c-0.04,0.6-0.09,1.25-0.09,1.25l2.1-1.65c0,0-0.73,0.95-1.27,1.66
				c-0.54,0.71-1.04,0.99-1.34,1.59c-0.23,0.45-0.59,1.42-0.78,2.09c-0.25,0.1-0.5,0.19-0.74,0.28
				C44.59,50.86,44.91,49.88,45.16,49.37z"/>
			<path class="st7" d="M45.05,54.97c-0.31,0.14-0.61,0.28-0.87,0.41l0.43-0.85c0.11-0.06,0.22-0.12,0.28-0.14
				c0.19-0.07,0.49-0.23,0.62-0.25c0.04-0.01,0.12-0.03,0.24-0.07c-0.07,0.07-0.13,0.14-0.2,0.22
				C45.35,54.52,45.2,54.75,45.05,54.97z"/>
			<path class="st7" d="M44.32,52.25c-0.02-0.03-0.05-0.08-0.09-0.14c0.03-0.11,0.06-0.22,0.1-0.33c0.24-0.09,0.49-0.18,0.74-0.28
				c-0.06,0.21-0.11,0.4-0.12,0.53c-0.07,0.54,1.28-0.23,1.63-0.07c0.36,0.16,0.81-0.46,1.39-0.73c0.02-0.01,0.05-0.03,0.07-0.04
				c0.16,0.11,0.33,0.23,0.52,0.36c-0.39,0.31-1,0.43-1.72,0.65c-0.94,0.3-1.34,0.54-1.96,0.75c-0.11,0.04-0.2,0.1-0.27,0.19
				C44.52,52.77,44.42,52.41,44.32,52.25z"/>
			<path class="st7" d="M41.77,48.89l-0.77-0.45c-0.25-1.63-0.54-4.02-0.67-4.32c-0.12-0.28-0.13-1.81-0.19-3.06
				c0.27,0.81,0.55,1.61,0.8,2.37c0.1,1.52,0.15,2.65,0.42,3.31c0.32,0.78,0.45,1.8,0.49,1.65c0.02-0.09,0.16-0.7,0.31-1.36
				c0.15,0.44,0.26,0.73,0.29,0.8c0.02,0.04,0.04,0.1,0.06,0.17c-0.11,0.62-0.15,1.15-0.17,1.6C42.01,49.19,41.77,48.89,41.77,48.89
				z"/>
			<path class="st7" d="M44.1,53.54c-0.05,0.09-0.15,0.25-0.26,0.44l0.02-0.04c0,0-0.02-0.11-0.05-0.28
				c0.06-0.24,0.21-0.84,0.42-1.54c0.04,0.06,0.07,0.11,0.09,0.14c0.1,0.16,0.2,0.53,0.29,0.89c-0.06,0.07-0.12,0.14-0.17,0.23
				C44.39,53.23,44.23,53.31,44.1,53.54z"/>
			<path class="st7" d="M42.34,49.61c-0.02,0.39-0.01,0.72-0.01,1.02c-0.45-0.59-0.93-1.21-1.23-1.59c-0.03-0.18-0.06-0.39-0.09-0.6
				l0.77,0.45C41.77,48.89,42.01,49.19,42.34,49.61z"/>
			<path class="st7" d="M43.73,55.61c0.13-0.25,0.24-0.51,0.33-0.76c0.08-0.05,0.33-0.21,0.54-0.32l-0.43,0.85
				C44,55.47,43.84,55.55,43.73,55.61z"/>
			<path class="st7" d="M42.33,51.09c0,0.83,0.1,3.88,0.12,4.44c0.01,0.44,0.28,0.14,0.55-0.1c-0.04,0.09-0.08,0.17-0.11,0.24
				c-0.15,0.36-0.31,0.74-0.44,0.81c-0.02,0-0.03,0.01-0.04,0.01c-0.05,0-0.09-0.06-0.12-0.21c-0.12-0.55,0.05-3.31-0.03-3.78
				c-0.08-0.47-0.56-0.87-0.46-1.52c0.09-0.65-0.28-1.1-0.28-1.1s0,0.33-0.15,0.33c-0.03-0.14-0.07-0.27-0.1-0.38
				c-0.04-0.16-0.1-0.44-0.15-0.78c0.29,0.38,0.78,1,1.23,1.59C42.33,50.79,42.33,50.95,42.33,51.09z"/>
		</g>
	</g>
</g>
</svg>
