<?xml version="1.0" encoding="utf-8"?>
<!-- Generator: Adobe Illustrator 23.1.1, SVG Export Plug-In . SVG Version: 6.00 Build 0)  -->
<svg version="1.1" id="Layer_1" xmlns="http://www.w3.org/2000/svg" xmlns:xlink="http://www.w3.org/1999/xlink" x="0px" y="0px"
	 viewBox="0 0 108 108" style="enable-background:new 0 0 108 108;" xml:space="preserve">
<style type="text/css">
	.st0{fill:#8DB254;}
	.st1{fill:#4E7B39;}
	.st2{fill:#8AB582;}
	.st3{fill:#72966B;}
	.st4{fill:#778D39;}
	.st5{fill:#819440;}
	.st6{fill:#72AA42;}
	.st7{fill:#CCB67E;}
	.st8{fill:#F6DFA1;}
</style>
<g>
	<g>
		<g>
			<path class="st0" d="M44.54,51.02c0,0,1.79,1.45,2.75,1.69c0.96,0.24,2.68,0.92,2.68,0.92s0.69-0.02,0.79-0.52
				c0.1-0.51-0.36-0.33-0.27-1.06c0.1-0.73,0.15-1.75,0.14-1.87c-0.01-0.12-0.31-0.03-0.56,0.37c-0.24,0.4-1.03,0.42-1.48,0.13
				c-0.45-0.29-1.71-0.94-2.1-0.95c-0.4-0.01-1.45,0.03-1.45,0.03L44.54,51.02z"/>
			<path class="st0" d="M49.74,54.61c-0.19,0.74-1.38,0.92-1.38,0.92s-0.58-0.05-0.3-0.45c0.28-0.4,0.8-0.45,0.9-0.95
				c0.1-0.5-0.1-0.92,0.32-0.99c0.42-0.08,0.7-0.3,0.69,0.09s0.33,1,0.33,1L49.74,54.61z"/>
			<path class="st0" d="M40.98,51.09c-0.25,0.02-6.8-3.78-7.11-4.15s-1.67-1.52-0.49-1.29c1.18,0.24,3.62,0.73,3.98,0.93
				s4.95,2.25,5.5,2.51s1.37,1.6,1.23,1.85c-0.13,0.25-0.7,0.86-0.98,0.66C42.82,51.4,40.98,51.09,40.98,51.09z"/>
			<path class="st1" d="M33.13,41.57c-0.44-0.66-1.82-2.29-2.02-3.03c-0.2-0.74-0.77-1.39-0.81-2.6c-0.04-1.21-0.43-2.78-0.58-3.11
				s-1.18-1.77,0.08-0.64c1.26,1.13,1.67,0.93,1.67,1.74c-0.01,0.8,0.24,2.33,1.23,3.85c0.99,1.52,2.71,3.6,3.14,4.25
				c0.44,0.66,0.57,0.86,0.98,1.47c0.4,0.61,1.89,2.83,1.89,2.83s-2.86-0.62-3.42-1.32c-0.56-0.7-1.46-1.09-1.62-1.75
				C33.52,42.61,33.13,41.57,33.13,41.57z"/>
			<path class="st2" d="M41.31,46.06c0,0-4.75-6.26-6.8-8.4c-2.05-2.13-3.81-3.67-4.41-3.92c-0.61-0.25-3.15-1-3.46-0.92
				c-0.31,0.08-0.93,0.34-0.05,0.63c0.88,0.29,1.2,0.22,2.47,1.35c1.26,1.13,2.32,2.17,2.78,2.75c0.45,0.57,3.35,2.95,4.4,4.3
				c1.04,1.35,1.84,2.21,2.29,3c0.45,0.79,1.24,1.75,1.52,2.06c0.28,0.31,1.1,1.58,1.58,1.41c0.48-0.17,0.98-0.52,1.07-0.71
				C42.78,47.4,41.31,46.06,41.31,46.06z"/>
			<path class="st3" d="M41.95,42.27c-1.62-1.72-3.15-4.25-5.09-6.17c-1.94-1.92-2.19-2.63-3.22-3.62
				c-1.03-0.99-2.56-2.75-2.68-2.38c-0.12,0.37-1.01-0.86,0.98,1.9s1.16,1.63,3.13,4.04c1.97,2.41,2.8,3.76,3.01,3.98
				s1.93,2.24,2.19,2.64s0.3-0.15,0.95,0.96c0.65,1.1,0.31,1.26,0.65,1.1C42.21,44.57,41.95,42.27,41.95,42.27z"/>
			<path class="st4" d="M50.67,52.22c0,0-3.18-3.13-3.82-4.09c-0.64-0.96-1.41-4.31-1.97-5.69c-0.56-1.38-3.55-7.41-4.36-8.62
				c-0.81-1.21-1.63-3-2.36-3.54c-0.72-0.54-3.09-2.47-3.41-2.83c-0.33-0.37-2.09-1.82-2.28-1.55c-0.19,0.27-0.49,0.47,0.44,1.31
				c0.93,0.84,2.93,2.5,4.05,3.65c1.12,1.15,4.58,6.64,5.59,8.38s2.23,5.31,2.22,5.97c-0.01,0.66-0.39,1.94-0.39,1.94
				s0.02-0.52-0.34-1.82s-2.46-6.02-2.88-6.91c-0.42-0.89-2.74-5.03-3.68-6.01c-0.94-0.98-1.97-2.19-2.48-2.29
				c-0.51-0.1-1.31-0.22-1.06,0.27s3.03,3.45,3.99,5c0.96,1.55,2.61,5.56,2.91,6.45s0.35,1.52,0.5,2.51c0.15,0.99,0,1.97-0.25,2.36
				c-0.25,0.39,0.39,1.57,0.81,1.87c0.42,0.3,2.71,1.33,3.28,1.53c0.57,0.2,1.85,0.59,2.27,0.89s0.77,0.38,1.33,0.8
				C49.35,52.22,50.67,52.22,50.67,52.22z"/>
			<path class="st1" d="M47.77,54.66c-1.53,0.44-7.83-1.79-9.3-1.69s-2.12-0.56-3.27-0.3c-1.15,0.25-1.58,0.47-3.08-0.14
				s0.17-0.84-3.07-0.66c-3.23,0.18-3.8-0.33-4.97-0.34c-1.18-0.01-2.07-0.37-2.14-0.69s-0.52-0.67,0.32-0.72
				c0.84-0.05,3.32-0.26,4.06-0.09c0.74,0.17,6,0.97,7.45,1.1c1.45,0.13,5.14,0.52,5.91,0.59c0.77,0.07,4.13,1.26,5.37,1.16
				c1.25-0.1,3.03,0.39,3.54,0.71c0.51,0.32,0.88,0.22,0.77,0.72S47.77,54.66,47.77,54.66z"/>
			<path class="st5" d="M47.92,52.38c0,0-6.05-1.96-7.72-1.94c-1.67,0.02,0.51,1.41-2.58-0.25c-3.08-1.67-4.94-2.71-6.77-3.16
				c-1.83-0.45-3.5,0.22-4.12-1.48c-0.62-1.7-1.18-2.43-1.28-3.67c-0.1-1.25-0.05-1.94-0.27-2.16s-1.22,1.03-1.17,1.87
				c0.05,0.84,0.31,1.99,0.56,2.91s0.62,2.13,1.55,2.87c0.93,0.74,1.47,0.89,2.97,1.28c1.5,0.39,3.08,0.57,4.11,0.91
				c1.03,0.34,3.33,2.38,4.58,2.71s2.96,0.47,3.87,0.34s3.29,1.09,4.23,0.76c0.94-0.33,1.9,0.78,2.31,0.51s1.45-0.24,1.5-0.49
				s-0.29-0.54-0.4-0.61C49.17,52.71,47.92,52.38,47.92,52.38z"/>
			<path class="st6" d="M50.58,53.67c-0.29-0.1-4.41-3.55-6.72-4.5c-2.31-0.94-6.97-3.67-8.2-4.53c-1.23-0.86-4.92-3.22-5.51-3.77
				c-0.59-0.56-1.9-2.09-2.74-3.13c-0.84-1.04-1.72-2.36-2.73-2.56c-1.01-0.2-2.34-0.88-1.24,0.23c1.1,1.1,1.13,0.94,2.43,2.55
				s1.04,1.35,1.52,1.84c0.47,0.49,1.98,2.18,0.23,1.31c-1.76-0.87-1.51-1.26-1.76-0.87c-0.25,0.39,0.03,1.58,0.64,1.62
				c0.61,0.03,1.34,0.13,2.13,0.77c0.78,0.64,1.07,0.3,1.46,1.1c0.39,0.8-0.47,0.72-1.43,0.27s-1.89-1.08-1.62-0.46
				c0.27,0.62,0.22,0.88,2.11,1.74c1.89,0.86,4.41,1.9,4.86,2.03c0.45,0.13,2.52,0.28,3.62,0.72c1.09,0.44,1.97,0.88,2.42,1.01
				c0.45,0.13,2.26,1.05,2.47,1.34c0.22,0.29,3.6,2.63,3.94,2.7s1.9,1.31,2.51,1.08c0.61-0.24,1.34,0.1,1.34,0.1L50.58,53.67z"/>
		</g>
		<path class="st7" d="M77.06,68.78c0,0-13.99-6.94-15.21-7.25c-1.22-0.31-9.39-5.31-10.72-6.64c-1.33-1.33,0,0-1.84-1.12
			s0-1.33,0-2.25c0-0.53,0.07-0.69,0.32-0.98c-0.13,0.11-0.25,0.24-0.38,0.41c-1.02,1.33-1.22,1.12-1.22,2.04
			c0,0.92-1.84,1.12,0,2.25c1.84,1.12,0.51-0.2,1.84,1.12c1.33,1.33,9.49,6.33,10.72,6.64c1.23,0.31,15.21,7.25,15.21,7.25
			s12.66,6.94,12.96,7.15c0.31,0.2,3.47,2.04,3.98,1.63c0.51-0.41,1.12-0.41,0.51-1.12c-0.12-0.13-0.34-0.36-0.63-0.63
			c-1.08-0.46-2.39-1.22-2.58-1.35C89.72,75.72,77.06,68.78,77.06,68.78z"/>
		<path class="st8" d="M71.28,61.88c-3.68-2.96-11.54-7.35-13.99-8.58s-5.92-3.47-6.02-2.96c0,0-0.78-0.55-1.66,0.2
			c-0.25,0.29-0.32,0.45-0.32,0.98c0,0.92-1.84,1.12,0,2.25s0.51-0.2,1.84,1.12c1.33,1.33,9.49,6.33,10.72,6.64
			c1.23,0.31,15.21,7.25,15.21,7.25s12.66,6.94,12.96,7.15c0.19,0.13,1.5,0.89,2.58,1.35c-1.26-1.2-3.83-3.44-4.99-4.27
			C86.19,71.99,74.96,64.84,71.28,61.88z"/>
	</g>
	<g>
		<path class="st8" d="M85.47,76.83c-2.86,0.2-5.82,0.2-7.04,0.1c-1.23-0.1-5.61-0.41-10.11-3.57c-4.49-3.16-8.27-5.82-9.8-7.04
			c-1.53-1.23-8.68-7.35-9.6-7.86c-0.92-0.51-1.74-0.82-2.86-0.61c-1.09,0.2-1.67,0.88-1.9,1.2c0.09-0.03,0.18-0.05,0.28-0.07
			c1.12-0.2,1.94,0.1,2.86,0.61c0.92,0.51,8.06,6.64,9.6,7.86c1.53,1.23,5.31,3.88,9.8,7.04c4.49,3.16,8.88,3.47,10.11,3.57
			c1.23,0.1,4.19,0.1,7.04-0.1c0.88-0.06,1.4-0.08,1.69-0.06c0.7-0.18,1.25-0.34,1.47-0.56C87.41,76.94,88.33,76.63,85.47,76.83z"/>
		<path class="st7" d="M85.54,77.91c-0.29-0.02-0.81-0.01-1.69,0.06c-2.86,0.2-5.82,0.2-7.04,0.1c-1.23-0.1-5.61-0.41-10.11-3.57
			c-4.49-3.16-8.27-5.82-9.8-7.04c-1.53-1.23-8.68-7.35-9.6-7.86c-0.92-0.51-1.74-0.82-2.86-0.61c-0.1,0.02-0.19,0.04-0.28,0.07
			c-0.01,0.01-0.01,0.02-0.02,0.03c-0.22,0.31-0.19,3.55,0.9,4.19c0.79,0.46,9.8,5.92,12.35,8.27c2.55,2.35,11.23,6.02,11.23,6.02
			s5.23,1.33,6.9,1.94c0.5,0.18,0.86,0.41,1.14,0.64c0.64,0.54,0.82,1.09,1.25,1.09c0.61,0,0.51,1.12,0.61,0
			c0.04-0.42-0.18-0.82-0.38-1.17c1.28-0.04,2.6-0.08,3.75-0.46c1.54-0.51,3.07-0.71,3.48-1.12C85.66,78.19,86.19,77.96,85.54,77.91
			z"/>
		<g>
			<path class="st0" d="M40.94,56.29c0,0,2.2,0.68,2.93,1.35c0.73,0.66,2.25,1.72,2.25,1.72s0.36,0.58,0,0.95
				c-0.36,0.36-0.47-0.12-1.03,0.36c-0.55,0.49-1.38,1.09-1.48,1.15c-0.1,0.06-0.2-0.24,0-0.67c0.2-0.43-0.23-1.09-0.71-1.3
				c-0.49-0.21-1.73-0.9-1.96-1.22c-0.23-0.33-0.78-1.23-0.78-1.23L40.94,56.29z"/>
			<path class="st0" d="M46.82,58.63c0.51-0.57,0-1.66,0-1.66s-0.36-0.45-0.54,0c-0.17,0.45,0.07,0.92-0.29,1.28
				s-0.82,0.42-0.65,0.82c0.17,0.39,0.14,0.75,0.46,0.53c0.32-0.23,1.02-0.28,1.02-0.28V58.63z"/>
			<path class="st0" d="M39.03,53.28c-0.12-0.22-6.92-3.56-7.4-3.62c-0.48-0.05-2.2-0.55-1.35,0.3c0.85,0.85,2.61,2.61,2.98,2.79
				c0.36,0.18,4.62,2.87,5.14,3.19s2.09,0.25,2.23,0s0.33-1.06,0-1.18C40.3,54.65,39.03,53.28,39.03,53.28z"/>
			<path class="st1" d="M26.76,52.03c-0.79,0-2.92-0.24-3.64,0c-0.73,0.24-1.58,0.13-2.61,0.76s-2.55,1.18-2.91,1.24
				s-2.13,0-0.49,0.43c1.64,0.43,1.7,0.88,2.37,0.43c0.67-0.45,2.07-1.09,3.89-1.11c1.81-0.02,4.49,0.26,5.28,0.26s1.03,0,1.76,0
				s3.4,0,3.4,0s-2.1-2.04-2.99-2.11s-1.72-0.61-2.35-0.38C27.83,51.78,26.76,52.03,26.76,52.03z"/>
			<path class="st2" d="M35.03,56.35c0,0-7.84-0.48-10.76-1s-5.16-1.13-5.71-1.5c-0.55-0.36-2.57-2.06-2.68-2.37
				c-0.11-0.3-0.23-0.97,0.5-0.39s0.85,0.88,2.49,1.3c1.64,0.43,3.1,0.73,3.83,0.79s4.31,1.15,6.01,1.28s2.85,0.3,3.77,0.24
				s2.14,0.06,2.56,0.12c0.42,0.06,1.92,0.04,2.05,0.54c0.13,0.5,0.11,1.1,0,1.29C36.96,56.83,35.03,56.35,35.03,56.35z"/>
			<path class="st3" d="M32.23,58.98c-2.33-0.39-5.28-0.27-7.96-0.82s-3.4-0.36-4.8-0.67c-1.4-0.3-3.7-0.61-3.46-0.91
				c0.24-0.3-1.28-0.36,2.13-0.24c3.4,0.12,2,0.06,5.1,0.36c3.1,0.3,4.68,0.24,4.98,0.3s2.93,0.36,3.41,0.36
				c0.48,0,0.05,0.33,1.32,0.26c1.28-0.08,1.22-0.44,1.28-0.08C34.29,57.92,32.23,58.98,32.23,58.98z"/>
			<path class="st4" d="M45.34,60.72c0,0-4.37-0.91-5.53-0.91s-4.37,1.21-5.83,1.52c-1.46,0.3-8.14,1.15-9.6,1.15
				c-1.46,0-3.4,0.3-4.25,0c-0.85-0.3-3.77-1.2-4.25-1.27c-0.49-0.07-2.67-0.74-2.55-1.04c0.12-0.3,0.12-0.67,1.34-0.36
				c1.21,0.3,3.7,1.05,5.28,1.35c1.58,0.29,8.07,0.13,10.08,0c2.01-0.13,5.65-1.09,6.2-1.46c0.55-0.37,1.4-1.4,1.4-1.4
				s-0.43,0.3-1.7,0.73c-1.28,0.43-6.38,1.29-7.35,1.43c-0.97,0.15-5.71,0.51-7.04,0.27s-2.92-0.43-3.28-0.79
				c-0.36-0.36-0.91-0.97-0.36-1.03c0.55-0.06,4.55,0.61,6.38,0.55c1.82-0.06,6.07-0.91,6.98-1.15c0.91-0.24,1.46-0.55,2.37-0.97
				s1.64-1.09,1.82-1.52c0.18-0.43,1.52-0.55,2-0.36c0.49,0.18,2.61,1.52,3.1,1.88c0.49,0.36,1.52,1.21,2,1.4s0.74,0.43,1.4,0.67
				S45.34,60.72,45.34,60.72z"/>
			<path class="st1" d="M45.77,56.95c-0.49-1.52-5.83-5.53-6.56-6.8c-0.73-1.28-1.64-1.46-2.06-2.55c-0.43-1.09-0.49-1.58-1.82-2.49
				c-1.34-0.91-0.61,0.61-2.25-2.19c-1.64-2.79-2.38-2.98-3.04-3.95c-0.66-0.97-1.45-1.52-1.76-1.4s-0.85-0.06-0.43,0.67
				s1.63,2.9,2.18,3.43c0.55,0.52,4.14,4.45,5.05,5.58s3.28,3.99,3.77,4.59c0.49,0.61,3.34,2.73,3.95,3.83
				c0.61,1.09,2,2.31,2.55,2.55c0.55,0.24,0.67,0.61,1.03,0.24C46.74,58.11,45.77,56.95,45.77,56.95z"/>
			<path class="st5" d="M43.95,58.35c0,0-4.99-3.95-5.9-5.34c-0.91-1.4,1.46-0.36-1.64-2c-3.1-1.64-4.99-2.61-6.38-3.89
				s-1.76-3.04-3.52-2.61c-1.76,0.43-2.67,0.36-3.77,0.97s-1.64,1.03-1.94,0.97s0.18-1.59,0.91-2.01c0.73-0.42,1.82-0.85,2.73-1.15
				c0.91-0.3,2.12-0.67,3.25-0.3c1.13,0.36,1.55,0.73,2.71,1.76c1.15,1.03,2.19,2.25,3.04,2.92c0.85,0.67,3.83,1.46,4.8,2.31
				c0.97,0.85,2.03,2.2,2.43,3.04s2.73,2.13,2.98,3.1c0.24,0.97,1.7,1.15,1.7,1.64c0,0.49,0.61,1.34,0.43,1.52
				c-0.18,0.18-0.61,0.06-0.73,0C44.92,59.2,43.95,58.35,43.95,58.35z"/>
			<path class="st6" d="M46.5,59.85c-0.24-0.18-5.4-1.7-7.47-3.1s-6.92-3.77-8.32-4.31c-1.4-0.55-5.4-2.31-6.19-2.49
				s-2.79-0.43-4.13-0.55c-1.34-0.12-2.92-0.12-3.64-0.85s-2.03-1.46-0.5-1.15c1.53,0.3,1.41,0.43,3.47,0.61
				c2.06,0.18,1.7,0.12,2.37,0.24s2.92,0.44,1.21-0.54c-1.7-0.98-1.88-0.55-1.7-0.98c0.18-0.43,1.34-0.85,1.7-0.36
				c0.36,0.49,0.85,1.05,1.82,1.34c0.97,0.3,0.84,0.72,1.73,0.6c0.89-0.12,0.34-0.79-0.57-1.34S24.33,46,25,45.88
				s0.85-0.3,2.61,0.79c1.76,1.09,4.03,2.61,4.38,2.92c0.35,0.3,1.63,1.94,2.6,2.61s1.82,1.15,2.18,1.46
				c0.36,0.3,2.13,1.29,2.49,1.31c0.36,0.02,4.19,1.54,4.43,1.78c0.24,0.24,2.15,0.85,2.29,1.49c0.14,0.64,0.83,1.06,0.83,1.06
				L46.5,59.85z"/>
		</g>
	</g>
	<g>
		<path class="st7" d="M95.62,71.86c-0.78-0.51,0.38-1.12-0.1-1.94c-0.48-0.82-2.11-3.68-3.44-4.39c-1.33-0.71-3.88-2.04-6.74-3.47
			c-2.86-1.43-14.39-3.88-17.86-6.64c-3.47-2.76-13.99-6.84-14.9-7.35c-0.92-0.51-2.45-1.63-2.45-2.45c0-0.53,0.26-1.94,0.93-3.08
			c-1.67,0.86-2.23,3.6-2.23,4.39c0,0.82,1.53,1.94,2.45,2.45c0.92,0.51,11.43,4.59,14.9,7.35c3.47,2.76,15.01,5.21,17.86,6.64
			c2.86,1.43,5.41,2.76,6.74,3.47c1.33,0.71,2.96,3.58,3.44,4.39c0.48,0.82-0.68,1.43,0.1,1.94c0.78,0.51,2.28-0.61,2.08-1.12
			c-0.01-0.03-0.02-0.06-0.02-0.09C96.11,72.01,95.84,72,95.62,71.86z"/>
		<path class="st8" d="M96.4,69.9c-0.1-0.61-1.74-3.37-2.18-3.68c-0.44-0.31-3.84-2.86-5.68-3.98c-1.84-1.12-11.54-6.64-11.54-6.64
			s-9.19-5.31-11.13-6.43c-1.94-1.12-4.7-2.96-6.33-4.19c-1.63-1.23-3.78-2.55-4.7-2.55s-3.18-0.15-3.57,0
			c-0.08,0.03-0.15,0.07-0.22,0.11c-0.67,1.13-0.93,2.55-0.93,3.08c0,0.82,1.53,1.94,2.45,2.45c0.92,0.51,11.43,4.59,14.9,7.35
			c3.47,2.76,15.01,5.21,17.86,6.64c2.86,1.43,5.41,2.76,6.74,3.47c1.33,0.71,2.96,3.58,3.44,4.39c0.48,0.82-0.68,1.43,0.1,1.94
			c0.21,0.14,0.48,0.15,0.76,0.09C96.24,71.42,96.5,70.48,96.4,69.9z"/>
		<g>
			<path class="st0" d="M46.44,41.62c0,0,2.2,0.68,2.93,1.35c0.73,0.66,2.25,1.72,2.25,1.72s0.36,0.58,0,0.95
				C51.25,46,51.14,45.51,50.59,46c-0.55,0.49-1.38,1.09-1.48,1.15c-0.1,0.06-0.2-0.24,0-0.67c0.2-0.43-0.23-1.09-0.71-1.3
				s-1.73-0.9-1.96-1.22c-0.23-0.33-0.78-1.23-0.78-1.23L46.44,41.62z"/>
			<path class="st0" d="M52.32,43.95c0.51-0.57,0-1.66,0-1.66s-0.36-0.45-0.54,0c-0.17,0.45,0.07,0.92-0.29,1.28
				s-0.82,0.42-0.65,0.82c0.17,0.39,0.14,0.75,0.46,0.53c0.32-0.23,1.02-0.28,1.02-0.28V43.95z"/>
			<path class="st0" d="M44.52,38.61c-0.12-0.22-6.92-3.56-7.4-3.62c-0.48-0.05-2.2-0.55-1.35,0.3c0.85,0.85,2.61,2.61,2.98,2.79
				c0.36,0.18,4.62,2.87,5.14,3.19c0.52,0.32,2.09,0.25,2.23,0s0.33-1.06,0-1.18C45.8,39.97,44.52,38.61,44.52,38.61z"/>
			<path class="st1" d="M32.26,37.36c-0.79,0-2.92-0.24-3.64,0c-0.73,0.24-1.58,0.13-2.61,0.76c-1.03,0.63-2.55,1.18-2.91,1.24
				c-0.36,0.06-2.13,0-0.49,0.43c1.64,0.43,1.7,0.88,2.37,0.43c0.67-0.45,2.07-1.09,3.89-1.11c1.81-0.02,4.49,0.26,5.28,0.26
				c0.79,0,1.03,0,1.76,0s3.4,0,3.4,0s-2.1-2.04-2.99-2.11s-1.72-0.61-2.35-0.38S32.26,37.36,32.26,37.36z"/>
			<path class="st2" d="M40.52,41.68c0,0-7.84-0.48-10.76-1c-2.92-0.53-5.16-1.13-5.71-1.5c-0.55-0.36-2.57-2.06-2.68-2.37
				c-0.11-0.3-0.23-0.97,0.5-0.39c0.73,0.57,0.85,0.88,2.49,1.3c1.64,0.43,3.1,0.73,3.83,0.79c0.73,0.06,4.31,1.15,6.01,1.28
				c1.7,0.12,2.85,0.3,3.77,0.24c0.91-0.06,2.14,0.06,2.56,0.12c0.42,0.06,1.92,0.04,2.05,0.54c0.13,0.5,0.11,1.1,0,1.29
				C42.46,42.16,40.52,41.68,40.52,41.68z"/>
			<path class="st3" d="M37.72,44.31c-2.33-0.39-5.28-0.27-7.96-0.82c-2.67-0.55-3.4-0.36-4.8-0.67c-1.4-0.3-3.7-0.61-3.46-0.91
				c0.24-0.3-1.28-0.36,2.13-0.24s2,0.06,5.1,0.36c3.1,0.3,4.68,0.24,4.98,0.3c0.3,0.06,2.93,0.36,3.41,0.36
				c0.48,0,0.05,0.33,1.32,0.26s1.22-0.44,1.28-0.08C39.79,43.25,37.72,44.31,37.72,44.31z"/>
			<path class="st4" d="M50.84,46.05c0,0-4.37-0.91-5.53-0.91c-1.15,0-4.37,1.21-5.83,1.52c-1.46,0.3-8.14,1.15-9.6,1.15
				c-1.46,0-3.4,0.3-4.25,0c-0.85-0.3-3.77-1.2-4.25-1.27c-0.49-0.07-2.67-0.74-2.55-1.04c0.12-0.3,0.12-0.67,1.34-0.36
				s3.7,1.05,5.28,1.35c1.58,0.29,8.07,0.13,10.08,0c2.01-0.13,5.65-1.09,6.2-1.46c0.55-0.37,1.4-1.4,1.4-1.4s-0.43,0.3-1.7,0.73
				c-1.28,0.43-6.38,1.29-7.35,1.43c-0.97,0.15-5.71,0.51-7.04,0.27c-1.34-0.24-2.92-0.43-3.28-0.79c-0.36-0.36-0.91-0.97-0.36-1.03
				c0.55-0.06,4.55,0.61,6.38,0.55c1.82-0.06,6.07-0.91,6.98-1.15c0.91-0.24,1.46-0.55,2.37-0.97c0.91-0.43,1.64-1.09,1.82-1.52
				c0.18-0.43,1.52-0.55,2-0.36c0.49,0.18,2.61,1.52,3.1,1.88c0.49,0.36,1.52,1.21,2,1.4c0.49,0.18,0.74,0.43,1.4,0.67
				C50.11,44.95,50.84,46.05,50.84,46.05z"/>
			<path class="st1" d="M51.26,42.28c-0.49-1.52-5.83-5.53-6.56-6.8s-1.64-1.46-2.06-2.55c-0.43-1.09-0.49-1.58-1.82-2.49
				s-0.61,0.61-2.25-2.19s-2.38-2.98-3.04-3.95s-1.45-1.52-1.76-1.4c-0.3,0.12-0.85-0.06-0.43,0.67c0.43,0.73,1.63,2.9,2.18,3.43
				c0.55,0.52,4.14,4.45,5.05,5.58s3.28,3.99,3.77,4.59c0.49,0.61,3.34,2.73,3.95,3.83s2,2.31,2.55,2.55
				c0.55,0.24,0.67,0.61,1.03,0.24C52.24,43.44,51.26,42.28,51.26,42.28z"/>
			<path class="st5" d="M49.45,43.68c0,0-4.99-3.95-5.9-5.34c-0.91-1.4,1.46-0.36-1.64-2c-3.1-1.64-4.99-2.61-6.38-3.89
				c-1.39-1.28-1.76-3.04-3.52-2.61c-1.76,0.43-2.67,0.36-3.77,0.97c-1.09,0.61-1.64,1.03-1.94,0.97s0.18-1.59,0.91-2.01
				c0.73-0.42,1.82-0.85,2.73-1.15c0.91-0.3,2.12-0.67,3.25-0.3s1.55,0.73,2.71,1.76s2.19,2.25,3.04,2.92
				c0.85,0.67,3.83,1.46,4.8,2.31c0.97,0.85,2.03,2.2,2.43,3.04s2.73,2.13,2.98,3.1c0.24,0.97,1.7,1.15,1.7,1.64
				s0.61,1.34,0.43,1.52c-0.18,0.18-0.61,0.06-0.73,0C50.41,44.53,49.45,43.68,49.45,43.68z"/>
			<path class="st6" d="M51.99,45.18c-0.24-0.18-5.4-1.7-7.47-3.1c-2.06-1.4-6.92-3.77-8.32-4.31c-1.4-0.55-5.4-2.31-6.19-2.49
				c-0.79-0.18-2.79-0.43-4.13-0.55s-2.92-0.12-3.64-0.85c-0.73-0.73-2.03-1.46-0.5-1.15c1.53,0.3,1.41,0.43,3.47,0.61
				c2.06,0.18,1.7,0.12,2.37,0.24s2.92,0.44,1.21-0.54s-1.88-0.55-1.7-0.98c0.18-0.43,1.34-0.85,1.7-0.36
				c0.36,0.49,0.85,1.05,1.82,1.34c0.97,0.3,0.84,0.72,1.73,0.6c0.89-0.12,0.34-0.79-0.57-1.34c-0.91-0.55-1.94-0.97-1.28-1.09
				s0.85-0.3,2.61,0.79c1.76,1.09,4.03,2.61,4.38,2.92s1.63,1.94,2.6,2.61s1.82,1.15,2.18,1.46c0.36,0.3,2.13,1.29,2.49,1.31
				s4.19,1.54,4.43,1.78c0.24,0.24,2.15,0.85,2.29,1.49c0.14,0.64,0.83,1.06,0.83,1.06L51.99,45.18z"/>
		</g>
	</g>
</g>
</svg>
