<?xml version="1.0" encoding="utf-8"?>
<!-- Generator: Adobe Illustrator 23.1.1, SVG Export Plug-In . SVG Version: 6.00 Build 0)  -->
<svg version="1.1" id="Layer_1" xmlns="http://www.w3.org/2000/svg" xmlns:xlink="http://www.w3.org/1999/xlink" x="0px" y="0px"
	 viewBox="0 0 108 108" style="enable-background:new 0 0 108 108;" xml:space="preserve">
<style type="text/css">
	.st0{fill:#A0C15C;}
	.st1{fill:none;stroke:#D5D2BB;stroke-width:0.3971;stroke-miterlimit:10;}
	.st2{fill:none;stroke:#ACAB99;stroke-width:0.3971;stroke-miterlimit:10;}
	.st3{fill:none;stroke:#C0BD9A;stroke-width:0.3971;stroke-miterlimit:10;}
	.st4{fill:none;stroke:#939479;stroke-width:0.3971;stroke-miterlimit:10;}
	.st5{fill:#4E7B39;}
	.st6{fill:#72AA42;}
	.st7{fill:#9BBD62;}
	.st8{fill:#B1B986;}
	.st9{fill:#CCCFB3;}
	.st10{fill:#DDDFC1;}
	.st11{fill:#92B33D;}
	.st12{fill:#778D39;}
	.st13{fill:#E3E5C5;}
	.st14{fill:#ADAA8B;}
</style>
<g>
	<path class="st0" d="M57.49,36.36c0.25-0.51,1.31-9.34,1.67-9.98c0.36-0.64,0.16-2.8,0.83-3.62c0.67-0.83,0.67-1.78,0.93-0.95
		c0.25,0.83,0,3.18-0.25,3.75c-0.25,0.57-0.52,1.84-0.67,2.99s-1.48,4.7-1.26,5.28s0.42,1.21,0,1.46S57.49,36.36,57.49,36.36z"/>
	<g>
		<path class="st1" d="M45.76,84.22c-0.22,0.32-0.54,1.21-0.73,2.42c-0.19,1.21-0.19,1.59-0.83,2.1c-0.64,0.51-0.7,0.32-1.02,0.95
			c-0.32,0.64-0.85,1.02-0.65,1.27c0.2,0.25-0.04,0.95-0.04,0.95"/>
		<path class="st2" d="M46.62,84.22c0,0-0.19,1.97-0.25,3.43c-0.06,1.46-0.2,2.1-0.61,2.35c-0.41,0.25-0.79,0.44-0.66,1.08
			c0.13,0.64,0.94,1.21,0.66,1.46c-0.28,0.25-0.69,1.14-0.69,1.14"/>
		<path class="st3" d="M47.57,85.05c-0.25,0.19-2.29,0.35-2.8,1c-0.51,0.65-0.7,0.33-0.89,1.16c-0.19,0.83,0.26,0.83-0.38,1.27
			s-1.01,0.95-1.01,0.95l-0.39,0.44"/>
		<path class="st1" d="M48.5,83.14c-0.16,1.02-0.67,2.29-0.93,3.5s0.38,1.4,0,2.32s-0.19,1.05-0.57,1.56s-0.83,0.64-0.64,1.02"/>
		<path class="st2" d="M49.19,83.14c-0.12,1.51,0.03,1.4,0,2.54c-0.03,1.14-0.06,1.91-0.33,2.38s-0.56,0.54,0,1.43
			s1.19,0.76,1.19,1.53c0,0.76-0.56,1.21-0.63,1.72c-0.07,0.51-0.23,0.95-0.23,0.95"/>
		<path class="st2" d="M60.73,79.9c0.76,0.76,0.95,2.22,1.08,2.67s-0.83-0.1,0.64,1.1c1.46,1.19,1.76,1.48,2.18,2.38
			c0.42,0.91,0.36,1.61,0.62,2.02s0.44,0.79,0.7,0.89"/>
		<path class="st2" d="M59.99,81.05c0.23,0.64,0.48,0.38,0.74,2.1c0.25,1.72,0.25,2.22,0.89,2.35c0.64,0.13,0.89-0.29,1.02,0.56
			c0.13,0.84-0.25,1.16,0,2.02s0.51,1.3,0.51,1.3"/>
		<path class="st2" d="M58.11,80.6c0.78,2.67,1.14,1.88,1.15,3.83c0.01,1.95-0.07,1.76,0,3.04c0.07,1.27,0.27,3.18,0.27,3.18"/>
		<path class="st1" d="M55.09,76.6c0.68,2.67,0.74,2.99,0.43,4.45c-0.32,1.46-0.23,2.73-0.34,3.18c-0.11,0.44-0.49,0.7-0.3,1.4
			s0.39,0.7,0.38,1.4"/>
		<path class="st1" d="M51.35,81.81c-0.48,2.29-0.48,2.54-0.6,3.24c-0.13,0.7-0.32-0.44,0,1.46c0.32,1.91,0.65,1.65,0.74,2.45
			c0.09,0.79,0.59,0.54,0.34,1.24"/>
		<path class="st4" d="M52.79,88.96c0.14-0.22,0.25-0.54,0.37-0.89c0.13-0.35-0.25-0.86-0.64-1.75c-0.38-0.89,0.19-1.14,0-1.89
			c-0.19-0.75,0.14-5.16,0-3.83c-0.04,0.38-0.36,0.9-0.33,1.43c0.03,0.52-0.39,0.36-0.99,0.51c-0.6,0.15-1.07,0-1.07,0
			s0.19,0.29,0.44,0.45c0.25,0.16,1.31,0.12,1.82,0.15c0.51,0.03,0.7-1.4,0.82-2.1c0.13-0.7-0.21-1.97-0.21-1.97"/>
		<path class="st3" d="M54.1,76.34c0.14,1.08,1.02,2.48,0.39,4.26c-0.63,1.78-0.69,3.18-0.76,3.62c-0.06,0.44-0.05,1.53,0.04,1.78
			c0.09,0.25-0.09,1.21,0,1.33"/>
		<path class="st1" d="M56.61,77.46c-0.07,2.25,0.91,3.14,0.48,4.73c-0.43,1.59-0.3,2.48-0.49,2.86c-0.19,0.38-0.32,1.91-0.32,1.97"
			/>
		<path class="st1" d="M58.44,79.46c-0.06,0.7,0.25,2.73,0,3.94c-0.25,1.21-0.51,1.62-0.76,2.65c-0.26,1.03-0.13,1.99-0.19,2.02"/>
		<path class="st1" d="M59.16,81.05c0.3,0.64,1.63,2,1.57,3.39s0.13,2.46,0,3.04c-0.13,0.57,0,1.27,0,1.49s0.3,0.92,0.3,0.92"/>
		<path class="st3" d="M59.99,79.9c0.36,0.51,1.63,3.08,2.01,3.86c0.38,0.78,0.89,1.16,1.14,1.7c0.25,0.54,0.45,1.62,0.45,1.56
			c0-0.06,0.44,2.35,0.44,2.35"/>
		<path class="st2" d="M57.68,79.07c-0.45,0.44-1.21,1.84-1.4,2.35c-0.19,0.51-0.52,0.41-0.58,1.42s0.25,2.14,0,2.37
			c-0.25,0.22-0.44,0.84-0.44,0.84"/>
		<path class="st2" d="M51,80.6c0.13,0.57,0.51,3.24,0.57,4.04c0.06,0.79-0.01,1.88,0.25,2.38s0.46,0.57,0.42,1.05
			s-0.1,0.89-0.1,0.89"/>
		<path class="st3" d="M49.8,81.81c0.18,0.21,0.83,2.67,0.64,3.4c-0.19,0.73-0.25,1.68-0.38,2.13s-0.06,0.7,0,1.08
			c0.06,0.38,0.53,1.46,0.53,1.46l0.66,1.33"/>
		<path class="st1" d="M48.11,82.84c0,0,0.49,3.23,0.39,3.67c-0.1,0.44-0.15,2.03-0.19,2.45s0,2.26,0,2.26"/>
		<path class="st1" d="M47.41,84.64c-0.34,0.56-1.31,2.57-1.65,3.15c-0.35,0.57,0.5-0.06-0.69,1.18c-1.18,1.24-1.5,2.26-1.5,2.26
			v1.33"/>
		<path class="st1" d="M52.79,79.46c0.18,0.19,1.44,1.89,0.94,2.35c-0.5,0.46-0.63,1.4-0.94,1.86c-0.32,0.46-0.25,1.13,0,1.38
			s0.42,0.57,0.42,0.57s0.55-0.14,0.56,0.38"/>
		<path class="st1" d="M57.2,78.38c0,0-1.67,1.4-1.93,1.97c-0.26,0.57-0.78,0.51-0.77,1.46c0.01,0.95,0.05,1.59-0.04,2.42
			s0.15,1.18,0,1.83c-0.15,0.65-0.02,1.29-0.02,1.29"/>
		<path class="st3" d="M56.28,80.6c0,0,0.54,1.19,0.72,1.96c0.17,0.77,0.4,0.83,0,1.66c-0.4,0.83,0.14,0.64,0.09,0.99
			c-0.05,0.35,0.11,0.86,0,1.3c-0.11,0.44,0.13,0.95,0.13,0.95"/>
		<path class="st1" d="M57.22,81.05c0,0,1.3,2.51,1.32,3.39c0.03,0.87-0.73,0.87,0.19,1.57s1.56,1.33,1.56,1.33s-0.38,0.83,0,0.73"
			/>
		<path class="st3" d="M59.52,78.38c0,0,0.47,0.36,0.77,1.08c0.3,0.72,0.43,1.17,0.23,1.59c-0.2,0.42-0.71,1.21-1,1.2
			s-1.51-0.4-1.51-0.4s0.91-0.3,1.15-0.35c0.23-0.05,0.79,2.48,0.83,3.15c0.04,0.67,0.1,1.88,0.1,1.88s1.07,0.35,0.64,0.95
			c-0.44,0.6-0.44,1.49-0.44,1.49"/>
		<path class="st1" d="M59.52,80.6c0,0,2.5,4.54,2.49,5.45c-0.01,0.91,0,1.41,0,1.41"/>
		<path class="st1" d="M47.41,82.86c0.7-0.02,2.27,1.12,2.02,2.35c-0.26,1.23-0.5,1.62,0.03,2.13s0.41,0.46,0.6,1.08
			c0.19,0.62,0,0.95,0,0.95"/>
		<path class="st1" d="M45.76,83.76c0,0,0.35,2.56,0,3.26s0.75,1.76,0.61,1.94c-0.14,0.18-0.04,0.6,0.01,0.92
			c0.05,0.32,0.01-0.13,0,0.76c-0.01,0.89-0.01,0.89-0.01,0.89"/>
	</g>
	<path class="st5" d="M55.45,56.76c0.19-0.44,2.55-10.04,3.28-11.25s3.46-7.06,4.42-7.37c0.95-0.32,2.16-0.64,2.35-0.64
		s1.59,0.32,2.29,0c0.7-0.32,0.64-0.44,0-0.51c-0.64-0.06-2.42,0.19-2.92,0c-0.51-0.19-1.59-0.72-2.29-0.01
		c-0.7,0.71-1.59,1.66-1.91,2.24c-0.32,0.57-7.82,7.5-8.07,8.9c-0.25,1.4-0.51,3.43,0,3.81S55.45,56.76,55.45,56.76z"/>
	<path class="st6" d="M53.74,51.8c0,0,0.74-9.22,1.35-10.81c0.62-1.59,2.34-6.17,3.64-7.18c1.3-1.02,4.92-3.18,5.56-3.43
		c0.64-0.25,1.97-0.64,2.22-0.64s1.7-0.64,1.77,0c0.07,0.64,1.02,0.32,0.07,0.64c-0.95,0.32-1.21,0.19-2.22,0.7
		c-1.02,0.51-3.9,1.91-4.88,2.67c-0.97,0.76-2.12,2.06-2.82,2.87s-2.42,3.93-2.48,5.39c-0.06,1.46-0.73,3.89-0.87,4.68
		c-0.15,0.79-0.46,2.19-0.34,2.5C54.88,49.51,53.74,51.8,53.74,51.8z"/>
	<path class="st0" d="M47.57,35.85c0.06-0.89,0.89-7.06,0.89-7.76c0-0.7-0.83-1.53-0.44-2.29c0.38-0.76,0.19-1.14,0.44-0.51
		c0.25,0.64,0.44,1.84,0.57,2.42s0.44,1.59,0.38,3.24c-0.06,1.65-0.88,4.2-0.92,4.89s-0.29,2.67-0.29,2.67L47.57,35.85z"/>
	<path class="st0" d="M51.83,39.34c-0.06-1.08,0.89-10.93,1.46-11.82s1.44-1.4,1.8-3.05c0.36-1.65,0.81-2.92,1.25-3.37
		c0.44-0.44,0.89-1.14,0.7,0c-0.19,1.14-0.89,4.07-1.08,4.64c-0.19,0.57-1.42,3.75-1.5,4.77s-0.56,4.96-0.77,5.53
		c-0.21,0.57-0.27,2.16-0.4,2.48c-0.13,0.32-0.7,2.73-0.64,3.62c0.06,0.89-0.36,1.53-0.36,1.53L51.83,39.34z"/>
	<path class="st7" d="M49.42,24.47c0.02-0.11,0.04-0.22,0.05-0.32c0.09-0.54,0.2-0.88,0.57-0.51c0.44,0.44,0.51,0.83,0.64,1.72
		s0.51,3.95,0.57,4.1c0.06,0.16,0.32,2.61,0.32,2.61l-1.08,4.55c0,0-0.13-6.5-0.26-7.7"/>
	<path class="st5" d="M52.66,24.6c0.25-0.38-0.25,1.4-0.41,1.84c-0.16,0.44-1.43,5.85-1.37,6.23c0.06,0.38-1.08,6.17-1.08,7.18
		c0,1.02,0.83,6.56,0.7,6.84c-0.13,0.28,1.2,5.68,1.08,5.87s-0.18,1.4,0.25,1.14c0.44-0.25-0.12-13.04,0.01-14.95
		c0.14-1.91,1.01-8.82,1.2-9.3c0.19-0.48,1.71-1.72,1.42-2.39c-0.29-0.67-0.12-1.4-0.36-1.84c-0.24-0.44-0.2-1.27-0.41-1.75
		c-0.21-0.48-0.21-1.18-0.46-1.37C52.98,21.93,52.66,24.6,52.66,24.6z"/>
	<path class="st0" d="M49.8,35.97c0.19-0.19-1.91-3.82-3.37-4.23c-1.46-0.41-2.73-0.92-3.37-0.67c-0.64,0.25-2.35,0.81-1.91,0.31
		s1.21-1.01,1.84-1.07c0.64-0.06,2.29-0.25,2.99,0c0.7,0.25,1.57,0.69,2.12,1.07c0.55,0.39,1.71,1.69,1.71,1.69s0.62,0.39,0.62,0.66
		c0.01,0.26-0.13,2.62-0.13,2.62L49.8,35.97z"/>
	<path class="st0" d="M46.36,34.64c0,0,1.72,17.42,2.13,19.11c0.41,1.68-0.09,14.27,0,15.48s-0.02,3.18,0.16,2.99
		c0.18-0.19,2.34-10.43,2.66-11.95c0.32-1.53-1.9-10.93-1.9-10.93L46.36,34.64z"/>
	<path class="st8" d="M49.42,80.54c-0.01,0.32-0.71,2.03,0.37,2.54c1.08,0.51,2.48,1.02,3.05,0s1.05-2.54,0.84-3.69
		c-0.21-1.14,0.27-6.01,0-7.17c-0.27-1.16-1.36-18.48-1.36-18.48s-1.96,17.79-1.83,18.48C50.62,72.91,49.42,80.54,49.42,80.54z"/>
	<path class="st9" d="M56.18,58.47c0,0,2.17,17.36,2.98,18.51c0.81,1.14,2.12,2.22,2.1,3.11c-0.02,0.89-0.84,3.37-2.53,2.61
		c-1.69-0.76-2.39-3.37-2.55-4.39s-0.79-4.48-0.54-5.28c0.25-0.8-1.54-10.23-1.54-10.23L56.18,58.47z"/>
	<path class="st6" d="M51.58,52.57c-0.31-1.82-1.27-12.47-1.68-13.67c-0.42-1.2-4.18-11.5-4.14-12.65c0.04-1.14-0.92-2.8-0.98-3.5
		c-0.06-0.7-0.95-3.33-0.89-2.28c0.04,0.75,0.19,5.2,0.57,6.41C44.84,28.09,47.57,41,47.57,41s2.54,17.55,2.54,18.12
		c0,0.25-0.19,2.54-0.42,5.03c0.65-0.6,1.21-1.06,2.2-1.61c0.09-0.05,0.2-0.1,0.3-0.15c0.05-0.47,0.08-0.83,0.1-1.05
		C52.48,59.63,51.89,54.39,51.58,52.57z"/>
	<path class="st10" d="M52.3,58.16c0.15,0.57,0.8,8.2,0.61,9.15c-0.19,0.95-0.06,5.78,0,7.37c0.06,1.59,0.45,2.16,0.78,2.73
		c0.34,0.57,1.13,0.7,2.08,0.51c0.95-0.19,1.14-0.95,1.32-1.59c0.17-0.64-0.74-2.92-1-3.31c-0.25-0.38-1.33-8.77-1.63-9.66
		c-0.11-0.32-0.2-2.97-0.27-6.24c-0.65-0.16-1.3-0.33-1.94-0.49C52.26,57.47,52.27,58.04,52.3,58.16z"/>
	<path class="st11" d="M54.1,43.41c0.11-0.51,1.48-6.36,1.54-7.06c0.06-0.7,1.84-6.1,1.84-6.1s0.38-3.31,0.57-4.13
		c0.19-0.83-0.19-1.84-0.57-1.97c-0.38-0.13-0.32,0.76-0.4,1.27c0,0-0.3,1.65-0.49,2.1c-0.19,0.44-0.7,1.21-0.89,2.35
		c-0.19,1.14-0.57,2.16-0.89,3.5c-0.32,1.33-2.16,4.58-2.16,4.58s-0.44,7.31-0.36,8.01c0.07,0.55-0.07,7.54-0.05,10.69
		c0.65,0.16,1.3,0.33,1.94,0.49C54.08,51.4,54.03,43.74,54.1,43.41z"/>
	<path class="st12" d="M57.62,74.69c0.19-0.38-1.59-17.48-1.59-17.93s-0.37-8.19,0.8-10.07c1.17-1.88,3-6.08,3.16-7.16
		c0.17-1.08,1.16-3.69,1.27-5.21c0.11-1.53,0.23-2.73,0.74-3.94c0.51-1.21,0.7-2.86,1.14-3.56c0.45-0.7,1.65-2.54,1.46-3.31
		s-0.57-0.25-0.76,0s-0.06,1.02-0.7,1.91c-0.64,0.89-0.64,0.76-1.21,1.97s-2.22,5.85-2.42,6.67c-0.19,0.83-1.85,6.42-2.16,7.63
		c-0.31,1.21-2.25,5.85-2.27,6.36s-1.1,3.85-1.35,4.51c-0.25,0.66,0.64,7.63,0.7,8.58c0.06,0.95,1.33,5.28,1.46,5.72
		s0.44,3.05,0.57,3.24S57.62,74.69,57.62,74.69z"/>
	<path class="st9" d="M51.9,62.54c-0.47,0.26-0.84,0.5-1.17,0.74c0.06,0.06,0.09,0.1,0.08,0.13c-0.1,0.47-0.9,8.4-1.26,9.4
		c-0.36,1-2.46,9.22-2.52,9.76c-0.04,0.41,0.73,2.41,0.14,3.4c1.42-0.28,2.32-1.66,2.62-2.88c0.32-1.27,0.7-6.93,1.02-7.95
		c0.28-0.89,1.07-9.47,1.38-12.75C52.09,62.44,51.99,62.49,51.9,62.54z"/>
	<path class="st13" d="M47.03,82.56c0.05-0.53,2.15-8.76,2.52-9.76c0.36-1,1.16-8.92,1.26-9.4c0.01-0.03-0.03-0.08-0.08-0.13
		c-0.37,0.27-0.69,0.55-1.03,0.87c-0.29,3.12-0.66,6.58-0.84,6.79c-0.31,0.38-1.48,5.09-2.18,6.23c-0.7,1.14-1.84,4.64-1.91,4.83
		s-0.19,1.78,0.25,2.8c0.45,1.02,0.45,1.4,1.97,1.21c0.06-0.01,0.12-0.03,0.17-0.04C47.76,84.97,46.99,82.97,47.03,82.56z"/>
	<path class="st14" d="M45.07,83.41c0.06-0.21-0.13,0.91,0.56,1.47s1.03,0.6,1.41,0.6c0.38,0,0.45-0.14,0.73-0.41
		s0.9-0.97,1.01-1.08c0.11-0.11,0.22-0.23,0.11-0.11c-0.11,0.11-0.34,1.3-0.57,1.53s-1.18,0.5-1.69,0.49
		C46.11,85.88,44.59,84.99,45.07,83.41z"/>
	<path class="st3" d="M59.75,80.6c0.24-0.7,0-2,0-2"/>
	<path class="st14" d="M54.76,77.31c0,0,0.5,0.75,1.06,0.44c0.56-0.31,0.72-0.41,0.8-0.94c0.08-0.53,0-1.65,0-1.65
		S56.32,77.59,54.76,77.31z"/>
	<path class="st14" d="M50.98,83.02c0.46-0.16,1.09,0.02,1.62-0.42c0.53-0.45,0.62-1.15,0.67-1.51c0.04-0.36,0.25-1.1,0.26-1
		c0.01,0.1-0.29,2.74-0.55,2.94c-0.25,0.2-0.59,0.66-0.89,0.59S50.98,83.02,50.98,83.02z"/>
</g>
</svg>
