<?xml version="1.0" encoding="utf-8"?>
<!-- Generator: Adobe Illustrator 23.1.1, SVG Export Plug-In . SVG Version: 6.00 Build 0)  -->
<svg version="1.1" id="Layer_1" xmlns="http://www.w3.org/2000/svg" xmlns:xlink="http://www.w3.org/1999/xlink" x="0px" y="0px"
	 viewBox="0 0 108 108" style="enable-background:new 0 0 108 108;" xml:space="preserve">
<style type="text/css">
	.st0{fill:none;stroke:#718537;stroke-width:1.01;stroke-miterlimit:10;}
	.st1{fill:#A5C239;}
	.st2{fill:#84B541;}
	.st3{fill:#91BB3E;}
	.st4{fill:#AFCB36;}
	.st5{fill:#92B83F;}
	.st6{fill:#A5BE3B;}
	.st7{fill:#A4C839;}
	.st8{fill:#D2DC80;}
	.st9{fill:none;stroke:#718537;stroke-width:0.8845;stroke-miterlimit:10;}
	.st10{fill:#C6D0B8;}
	.st11{fill:#4E7B39;}
	.st12{fill:#819440;}
</style>
<g>
	<g>
		<path class="st0" d="M67.68,64.96c-0.06-2.42-1.01-6.74-1.68-9.81"/>
		<path class="st0" d="M74.07,61.85c-3.19-1.28-7.27-4.16-9.3-7.28"/>
		<path class="st0" d="M75.17,55.58c-3.62,1.75-6.63,3.77-9.12,0.14"/>
		<path class="st0" d="M60.6,48.69c-3.84-2.97-7.48-6.91-8.89-10.37"/>
		<path class="st0" d="M52.74,51.53c0.44-5.01-0.92-12.67-1.11-14.25"/>
		<path class="st0" d="M59.52,42.02c-2.97,0.93-4.65,2.38-7.58-2.56"/>
		<path class="st1" d="M62.47,69.69c-0.31-1.92-1.29-2.32,1.92-5.73c3.21-3.41,3.21-3.41,3.21-3.41s0.64,0.74,1.39,1.58
			c0.75,0.84,3.91,3.64,2.48,6.91c-1.43,3.27-2.66,5.05-3.14,5.56c-0.49,0.51-1.75,2.56-2.1,3.06"/>
		<path class="st2" d="M85.06,70.66c-2.34-0.98-5.7,1.13-8.54-0.86s-4.46-6.91-5.13-8.33c-0.68-1.42-1.84-0.8,0.84-0.85
			c2.68-0.05,2.83-0.96,5.16-0.4c2.33,0.56,5.54,4.03,5.76,5.46C83.37,67.11,85.06,70.66,85.06,70.66z"/>
		<path class="st3" d="M71.09,57.6c0.7,0,1.48,0.57,4.85,0.62c3.37,0.05,6.03-0.31,6.61-2.88c0.59-2.57-0.24-3.09,1.21-4.78
			s1.45-1.69,1.45-1.69s-2.9-0.09-6.94,0.01c-4.04,0.1-5.93,4.2-6.43,5.92C71.34,56.53,71.09,57.6,71.09,57.6z"/>
		<path class="st4" d="M69.27,57.63c0,0-1.55-1.72-4.74-1.74c-3.18-0.01-6.67-1.58-6.67-4.95c0-3.37-1.09-5.23-1.09-5.23
			s-0.07,0.48,2.7,0.26c2.77-0.22,6.71,1.69,7.82,4.44S69.27,57.63,69.27,57.63z"/>
		<path class="st5" d="M50.13,61.91c0,0,4.1-4.11,5.36-6.89c1.26-2.78,1.6-4.44-0.03-6.42c-1.63-1.98-2.22-3.56-2.22-3.56
			s-2.31,3.44-3.83,4.24c-1.52,0.8-3.19,3.62-2.38,5.29C47.85,56.25,50.13,61.91,50.13,61.91z"/>
		<path class="st6" d="M56.55,42.95c0,0.05,2.45,1.07,5.37,1.42c2.92,0.35,4.5,0.33,5.65-1.12c1.15-1.46,1.92-2.99,2.74-4.69
			c0.81-1.69,0.92-2.39,1.59-2.54c0.67-0.16-0.85,0.59-4.07-0.21c-3.22-0.8-4.76-1.68-6.1-0.63c-1.34,1.05-1.29,2.99-2.38,4.55
			S56.55,42.95,56.55,42.95z"/>
	</g>
	<g>
		<path class="st0" d="M29.34,57.05c2.42,0.08,6.79-0.62,9.89-1.11"/>
		<path class="st0" d="M32.07,63.61c1.46-3.11,4.57-7.02,7.8-8.87"/>
		<path class="st0" d="M38.27,65.07c-1.54-3.72-3.38-6.84,0.39-9.12"/>
		<path class="st0" d="M45.99,50.92c3.18-3.66,7.32-7.07,10.86-8.28"/>
		<path class="st0" d="M43.6,42.91c4.97,0.73,12.71-0.19,14.29-0.29"/>
		<path class="st0" d="M52.71,50.22c-0.76-3.02-2.11-4.78,2.99-7.42"/>
		<path class="st2" d="M24.92,51.58c1.94-0.2,2.39-1.15,5.61,2.25c3.22,3.4,3.22,3.4,3.22,3.4s-0.77,0.59-1.65,1.29
			c-0.88,0.7-3.86,3.7-7.04,2.08s-4.89-2.94-5.37-3.46s-2.46-1.89-2.94-2.27"/>
		<path class="st7" d="M22.65,74.08c1.11-2.28-0.8-5.75,1.35-8.47c2.15-2.72,7.16-4.05,8.61-4.65c1.46-0.59,0.91-1.79,0.8,0.89
			s0.79,2.88,0.11,5.17c-0.69,2.29-4.34,5.3-5.79,5.44C26.29,72.59,22.65,74.08,22.65,74.08z"/>
		<path class="st3" d="M36.49,60.88c-0.04,0.7-0.65,1.44-0.9,4.81c-0.25,3.36-0.03,6.03,2.5,6.77c2.53,0.74,3.09-0.06,4.7,1.48
			s1.61,1.54,1.61,1.54s0.26-2.89,0.38-6.93c0.13-4.04-3.85-6.16-5.54-6.76C37.55,61.19,36.49,60.88,36.49,60.88z"/>
		<path class="st8" d="M36.56,59.06c0,0,1.81-1.45,2-4.63c0.2-3.18,1.96-6.57,5.33-6.38c3.36,0.19,5.28-0.79,5.28-0.79
			s-0.47-0.1-0.42,2.68c0.06,2.78-2.07,6.6-4.88,7.55C41.06,58.44,36.56,59.06,36.56,59.06z"/>
		<path class="st5" d="M33.38,39.71c0,0,3.87,4.33,6.57,5.74c2.7,1.41,4.34,1.85,6.41,0.34s3.68-2.02,3.68-2.02s-3.3-2.5-4.02-4.06
			s-3.43-3.39-5.14-2.68S33.38,39.71,33.38,39.71z"/>
		<path class="st6" d="M51.95,47.2c-0.05,0-1.21,2.39-1.73,5.28c-0.52,2.9-0.59,4.47,0.8,5.7c1.39,1.23,2.88,2.09,4.52,3
			c1.64,0.91,2.33,1.05,2.45,1.73s-0.54-0.88,0.44-4.05c0.98-3.17,1.95-4.66,0.98-6.05s-2.92-1.46-4.41-2.64
			C53.51,49.01,51.95,47.2,51.95,47.2z"/>
	</g>
	<g>
		<path class="st9" d="M37.21,31.75c0.67,2.01,2.58,5.38,3.93,7.78"/>
		<path class="st9" d="M32.66,35.99c3,0.25,7.16,1.62,9.66,3.7"/>
		<path class="st9" d="M33.35,41.52c2.58-2.39,4.58-4.86,7.6-2.46"/>
		<path class="st9" d="M47.32,43.55c3.97,1.5,8.04,3.86,10.11,6.39"/>
		<path class="st9" d="M53.17,39.15c0.92,4.3,4.03,10.37,4.59,11.65"/>
		<path class="st9" d="M49.94,48.86c2.25-1.54,3.28-3.19,7,0.19"/>
		<path class="st1" d="M40.35,26.45c0.75,1.53,1.67,1.61-0.14,5.29s-1.81,3.68-1.81,3.68s-0.72-0.46-1.56-0.96
			c-0.84-0.51-4.21-2.04-3.86-5.15s0.93-4.91,1.2-5.46c0.28-0.55,0.8-2.6,0.97-3.1"/>
		<path class="st2" d="M21.19,31.44c2.21,0.22,4.48-2.41,7.37-1.47c2.89,0.94,5.51,4.64,6.44,5.66s1.75,0.2-0.48,0.93
			s-2.12,1.53-4.21,1.66s-5.68-1.95-6.23-3.09C23.52,33.98,21.19,31.44,21.19,31.44z"/>
		<path class="st3" d="M36.25,38.79c-0.58,0.18-1.38-0.1-4.22,0.73c-2.84,0.82-4.96,1.81-4.8,4.11s0.99,2.52,0.22,4.31
			c-0.78,1.79-0.78,1.79-0.78,1.79s2.45-0.67,5.81-1.8c3.36-1.13,3.89-5.04,3.86-6.61C36.32,39.75,36.25,38.79,36.25,38.79z"/>
		<path class="st4" d="M37.76,38.29c0,0,1.74,1.04,4.41,0.23c2.67-0.81,5.99-0.39,6.86,2.43c0.86,2.82,2.26,4.1,2.26,4.1
			s-0.07-0.42-2.33,0.47s-6.05,0.31-7.69-1.71C39.64,41.79,37.76,38.29,37.76,38.29z"/>
		<path class="st5" d="M52.68,29.79c0,0-2.38,4.49-2.71,7.14s-0.2,4.13,1.67,5.36s2.78,2.41,2.78,2.41s1.05-3.48,2.11-4.54
			c1.06-1.06,1.74-3.85,0.63-5.04C56.05,33.94,52.68,29.79,52.68,29.79z"/>
		<path class="st10" d="M52.19,47.31c-0.02-0.04-2.33-0.27-4.86,0.19c-2.54,0.46-3.85,0.88-4.44,2.39c-0.59,1.52-0.84,3-1.09,4.63
			c-0.25,1.63-0.16,2.23-0.68,2.54c-0.52,0.3,0.56-0.71,3.46-0.87c2.9-0.16,4.42,0.18,5.27-1.04c0.85-1.22,0.31-2.84,0.82-4.42
			C51.18,49.14,52.19,47.31,52.19,47.31z"/>
	</g>
	<g>
		<path class="st0" d="M75.12,38.59c-2.38,0.4-6.53,1.95-9.48,3.05"/>
		<path class="st0" d="M71.14,32.71c-0.82,3.34-3.09,7.79-5.89,10.24"/>
		<path class="st0" d="M64.78,32.5c2.24,3.34,4.67,6.03,1.43,9.01"/>
		<path class="st0" d="M60.01,47.9c-2.4,4.22-5.78,8.38-9.01,10.27"/>
		<path class="st0" d="M63.94,55.28c-5.02,0.27-12.42,2.71-13.95,3.11"/>
		<path class="st0" d="M53.56,49.91c1.34,2.81,3.01,4.27-1.46,7.86"/>
		<path class="st8" d="M80.53,43.08c-1.86,0.58-2.11,1.6-5.94-1.09s-3.83-2.69-3.83-2.69s0.64-0.73,1.36-1.59
			c0.72-0.86,3.05-4.39,6.49-3.44s5.37,1.92,5.95,2.33s2.79,1.37,3.33,1.65"/>
		<path class="st7" d="M78.3,20.57c-0.63,2.45,1.92,5.48,0.35,8.57s-6.21,5.39-7.52,6.26c-1.31,0.87-0.54,1.93-0.97-0.71
			c-0.43-2.65-1.35-2.66-1.13-5.05s3.2-6.06,4.59-6.48C75.03,22.76,78.3,20.57,78.3,20.57z"/>
		<path class="st2" d="M67.35,36.25c-0.1-0.69,0.35-1.54-0.07-4.89c-0.42-3.34-1.16-5.92-3.79-6.14c-2.63-0.22-3.02,0.67-4.9-0.52
			c-1.88-1.19-1.88-1.19-1.88-1.19s0.32,2.88,1,6.87c0.67,3.99,4.99,5.28,6.77,5.53S67.35,36.25,67.35,36.25z"/>
		<path class="st8" d="M67.64,38.06c0,0-1.48,1.78-1.05,4.94c0.44,3.15-0.63,6.83-3.96,7.31c-3.33,0.48-5.02,1.82-5.02,1.82
			s0.48,0-0.12-2.71c-0.61-2.71,0.72-6.88,3.29-8.37C63.35,39.55,67.64,38.06,67.64,38.06z"/>
		<path class="st5" d="M74.58,56.39c0,0-4.65-3.48-7.58-4.33c-2.93-0.85-4.62-0.96-6.35,0.93c-1.73,1.89-3.21,2.71-3.21,2.71
			s3.73,1.8,4.74,3.19c1.01,1.39,4.03,2.65,5.57,1.6C69.3,59.45,74.58,56.39,74.58,56.39z"/>
		<path class="st6" d="M54.9,52.72c0.05-0.01,0.71-2.58,0.65-5.52s-0.31-4.5-1.91-5.43s-3.23-1.48-5.03-2.05s-2.49-0.57-2.74-1.21
			s0.71,0.76,0.37,4.06c-0.34,3.3-0.99,4.95,0.24,6.13s3.15,0.86,4.84,1.71C53.02,51.26,54.9,52.72,54.9,52.72z"/>
	</g>
	<g>
		<path class="st11" d="M69.24,72.92c-0.61-0.63-4.39-12.75-5.53-15.81c-0.65-1.73-0.98-6.98-1.15-11.19
			c-0.33-0.05-0.6-0.08-0.6-0.08s-1.67,2.82-1.67,4.15c0,1.33,2.72,13.54,2.72,14.55c0,1.02,3.95,12.83,5.53,14.24
			c1.58,1.41,5.04,3.6,6.58,3.52c0.51-0.03,0.89-0.09,1.17-0.18C72.6,79.25,69.78,73.47,69.24,72.92z"/>
		<path class="st12" d="M76.66,81.29c-0.4-0.55-3.12-5.16-3.39-6.42c-0.26-1.25-3.95-11.27-4.12-11.81s-4.04-13.54-4.3-14.32
			c-0.26-0.78-1.05-2.27-1.23-2.5c-0.1-0.13-0.63-0.24-1.07-0.31c0.17,4.21,0.51,9.45,1.15,11.19c1.14,3.05,4.91,15.18,5.53,15.81
			c0.54,0.55,3.36,6.33,7.05,9.21C76.84,81.95,76.93,81.66,76.66,81.29z"/>
		<path class="st11" d="M61.6,44.67c0,0-2.02,1.73-2.72,1.88c-0.7,0.15-1.14,0.63-1.14,0.63s2.19-0.39,2.55-0.63
			s-1.14,1.56-1.14,1.56s1.96-0.67,2.09-0.94s0.98-0.79,0.98-0.79s-0.26,1.7,0.88,1.33c1.14-0.37,2.81-0.31,3.07-0.54
			s0.88-0.79,0.88-0.79s-2.46,0.08-2.9-0.55c-0.44-0.63-0.44-1.17-0.44-1.17l-1.32-1.1L61.6,44.67z"/>
	</g>
	<g>
		<path class="st12" d="M50.88,84.56c0.18-0.47-0.09-10.09,0-11.35c0.09-1.25,1.14-6.65,1.43-7.2c0.29-0.55-0.55-8.29-0.64-10.02
			c-0.06-1.25-0.04-6.42-0.01-9.19c-0.37,0.6-0.94,1.48-1.21,1.83c-0.44,0.55-1.23,2.5-1.4,3.29c-0.18,0.78,0,2.11,0,2.97
			c0,0.86,0.35,4.3,0.35,4.69c0,0.39-1.14,2.89-1.32,3.76c-0.18,0.86-0.26,3.6,0,4.46c0.26,0.86,0.7,3.68,0.7,4.54
			s-0.95,4.23-0.87,4.62c0.08,0.39-0.35,3.52,0,4.15c0.35,0.63,0.79,2.66,0.87,2.97c0.09,0.31,0.7,2.27,0.7,2.82
			c0,0.55,0.42,2.11,0.42,2.11s0.46-0.61,1.05-1.41C50.93,86.55,50.76,84.9,50.88,84.56z"/>
		<path class="st11" d="M54.13,78.46c0-0.63-0.09-4.62,0-5.79c0.09-1.17,0.88-5.16,0.88-6.26c0-1.1-0.44-5.01-0.44-5.63
			c0-0.63,0.53-2.03,0.44-2.35c-0.09-0.31-0.35-7.2-0.35-7.9s-0.44-1.72-0.79-2.27c-0.35-0.55-1.84-2.03-1.84-2.03
			s-0.15,0.25-0.37,0.59c-0.02,2.77-0.05,7.94,0.01,9.19c0.09,1.72,0.93,9.47,0.64,10.02c-0.29,0.55-1.34,5.95-1.43,7.2
			c-0.09,1.25,0.18,10.88,0,11.35c-0.13,0.34,0.04,1.99,0.06,3.05c0.87-1.19,2.03-2.79,2.4-3.44
			C53.95,83.07,54.13,79.08,54.13,78.46z"/>
		<path class="st11" d="M51.28,45.38c0,0-2.28,2.19-3.42,2.19c-1.14,0-1.05,1.1,0,0.86s2.62-0.86,2.62-0.86s-1.65,0.67-0.86,0.89
			c0.79,0.23,1.29,0.32,1.67,0s0.88-1.44,0.88-1.44s-0.53,1.09,0.88,1.17s2.72-0.16,2.72-0.16s-1.38-0.38-1.66-1.01
			c-0.27-0.63-0.45-1.33-0.45-1.33L51.28,45.38z"/>
	</g>
	<g>
		<g>
			<path class="st12" d="M35.73,72.74c1.13-2.42,1.7-9.79,1.75-10.07c0.05-0.28,0.99-10.82,1.22-12.37
				c0.23-1.55,1.23-7.11,1.23-7.11c-0.63,0.72-1.39,1.69-1.72,2.42c-0.59,1.33-1.19,10.44-1.19,10.44s-4.4,19.33-4.15,19.85
				c0.25,0.52,0.05,2.71-0.13,3.23s0.1,1.45-0.33,1.93c-0.44,0.48-0.63,0.92-0.72,1.23c-0.03,0.13,0.06,0.29,0.21,0.4
				c0.45-0.61,1.31-1.83,1.58-2.48C33.85,79.32,34.59,75.17,35.73,72.74z"/>
			<path class="st11" d="M32.72,82.7c0.45-0.4,3.59-4.06,3.84-4.5c0.25-0.43,3.93-11.86,4.52-13.75c0.59-1.88,0.36-15.42,0.76-16.15
				c0.39-0.73,0.02-3.17,0.08-3.56c0.07-0.39-1.07-2.57-1.07-2.57s-0.42,0.43-0.93,1.02c0,0-1,5.56-1.23,7.11
				c-0.23,1.55-1.17,12.09-1.22,12.37c-0.05,0.28-0.61,7.64-1.75,10.07c-1.13,2.42-1.88,6.58-2.24,7.47
				c-0.27,0.65-1.13,1.86-1.58,2.48C32.12,82.86,32.46,82.93,32.72,82.7z"/>
		</g>
		<path class="st11" d="M39.71,41.7c0,0-0.97,0.47-1.65,0.27s-1.67-1.16-0.68-0.2c0.99,0.97,0.99,0.97,0.99,0.97s0.43,0.31-0.33,0.5
			s-2,0.13-2,0.13s0.96,1.12,2.05,0.99c1.09-0.13,1.89-1.11,1.89-1.11s-0.36,1.11,0.14,1.53c0.5,0.42,1.73,1.03,2.32,0.73
			c0.59-0.3,0.4-2.31,0.4-2.31l2.21,1.26c0,0-2.05-2.18-2.22-2.21s-1.16-0.52-1.16-0.52s-0.31-0.69-0.65-0.59
			C40.68,41.23,39.71,41.7,39.71,41.7z"/>
	</g>
</g>
</svg>
