<?xml version="1.0" encoding="utf-8"?>
<!-- Generator: Adobe Illustrator 23.1.1, SVG Export Plug-In . SVG Version: 6.00 Build 0)  -->
<svg version="1.1" id="Layer_1" xmlns="http://www.w3.org/2000/svg" xmlns:xlink="http://www.w3.org/1999/xlink" x="0px" y="0px"
	 viewBox="0 0 108 108" style="enable-background:new 0 0 108 108;" xml:space="preserve">
<style type="text/css">
	.st0{fill:#72AA42;}
	.st1{fill:#778D39;}
	.st2{fill:#58883D;}
	.st3{fill:#4E7B39;}
	.st4{fill:#9BBD62;}
	.st5{fill:#81994F;}
	.st6{fill:#84A354;}
</style>
<g>
	<circle class="st0" cx="54.48" cy="53.68" r="17.34"/>
	<path class="st1" d="M42.58,35.51c0.21-0.89,0.21-5.23,0.76-6.2c0.55-0.96,2.13-1.79,3.03-2.2c0.89-0.41,1.38-0.62,2.13-0.41
		c0.76,0.21,4.75,4.06,5.58,4.82s1.03,2.41,0.55,3.37s-1.86,4.13-2.75,4.54c-0.89,0.41-2.22,1.17-3.14,0.62
		C47.81,39.5,42.58,35.51,42.58,35.51z"/>
	<path class="st2" d="M35.63,41.41c-0.96,0.37-5.03,0.83-5.96,2.13c-0.93,1.3-1.85,2.59-1.76,4.63c0.09,2.04,0,4.44,1.76,4.63
		c1.76,0.19,3.61,0.93,4.26,1.48c0.65,0.56,2.96,2.22,3.42,2.78c0.46,0.56,0.77,2.31,2.19,2.96c1.42,0.65,2.59,1.02,4.69,0.83
		s5.92-3.89,5.91-4.53c-0.01-0.65-2.51-6.11-2.51-6.11l-3.4-3.42L35.63,41.41z"/>
	<path class="st0" d="M39.31,51.96c0,0-8.92,5.3-9.47,6.26c-0.55,0.96-1.93,3.79-1.93,4.68c0,0.89-0.14,2.55,1.1,3.37
		c1.24,0.83,3.54,2.34,4.59,2.48c1.05,0.14,3.32,0.48,4.08,0c0.76-0.48,2.52-5.78,2.91-7.02c0.39-1.24,0.53-4.41,0.53-4.41
		L39.31,51.96z"/>
	<path class="st0" d="M40.1,68.14c0,0-1.51,5.85-1.79,7.02s-0.48,4.61,0.41,5.71c0.89,1.1,1.03,2.2,2.41,2.82
		c1.38,0.62,3.04,0.96,3.86,0.89c0.82-0.07,1.09-0.34,1.92-0.96c0.83-0.62,4.27-6.4,4.27-7.98c0-1.58-1.17-5.92-1.93-6.95
		c-0.76-1.03-4.05-3.65-4.26-3.51C44.78,65.31,43.33,66,43.33,66L40.1,68.14z"/>
	<path class="st2" d="M54.88,76.67c0,0,2.08,3.44,3.12,4.54s3.37,3.17,4.34,2.96c0.96-0.21,2.62-0.96,3.24-2.27
		c0.62-1.31,2.2-4.82,2.13-6.13c-0.07-1.31,0.62-4.13,0-5.02c-0.62-0.89-4.27-3.65-5.16-4.06c-0.89-0.41-4.89-0.41-4.89-0.41
		s-0.41,3.1-0.89,4.06C56.27,71.3,54.88,76.67,54.88,76.67z"/>
	<path class="st2" d="M78.44,52.37c0,0,1.38,1.74,1.51,2.83c0.14,1.09,0.14,2.81,0,3.43c-0.14,0.62-0.83,1.49-1.24,1.84
		c-0.41,0.36-2.68,0.43-3.51,0.36c-0.83-0.07-4.13-1.03-5.02-1.79c-0.89-0.76-1.93-1.45-0.83-2.82s3.24-3.58,3.99-3.85
		s1.24-0.48,1.79-0.41C75.69,52.03,78.44,52.37,78.44,52.37z"/>
	<path class="st3" d="M69.42,37.92c0,0,2.89-0.55,3.99-0.41s5.02,1.38,5.64,1.79c0.62,0.41,0.76,1.1,1.58,1.58
		c0.83,0.48,0.89,0.48,1.31,1.58c0.41,1.1-0.14,2.82,0,3.24c0.14,0.41,0.21,1.27-1.03,1.33C79.68,47.07,71,45.28,71,45.28
		l-2.55-2.55L69.42,37.92z"/>
	<path class="st0" d="M60.66,34.27c0.15-0.07,2.97,0.76,4.52,0c1.55-0.76,2.8-1.33,3.69-0.84c0.89,0.49,1.65,1.11,2.13,2.15
		c0.48,1.03,0.83,2.27,0.96,2.89c0.14,0.62,0.55,2.48,0.62,2.89c0.07,0.41,0.28,1.58-1.13,1.65c-1.41,0.07-4.92,0.14-5.54,0
		s-2.89-2.44-3.03-2.77s-1.27-2.6-1.46-3.08C61.23,36.68,60.66,34.27,60.66,34.27z"/>
	<path class="st0" d="M51.18,40.81c0,0,0.21-3.3-3.3-4.89s-5.78-2.67-8.57-2.67c-2.79-0.01-3.07-0.29-3.96,0.54
		c-0.89,0.83-1.93,1.1-2.41,2.82c-0.48,1.72,0.41,4.91,1.58,6.48c1.17,1.57,2.89,5.15,4.06,5.56c1.17,0.41,5.02,0.69,5.02,0.69
		s2.82-0.21,3.65-1.24c0.83-1.03,2.27-2.34,2.48-2.75C49.94,44.94,51.18,40.81,51.18,40.81z"/>
	<path class="st2" d="M51.18,45.76c-0.28-0.34-3.03-3.26-3.03-5.52c0-2.26,1.24-5.01,2.13-6.32s4.29-3.51,4.9-3.72
		s3.29,0.48,4.25,1.31c0.96,0.83,3.58,3.3,4.54,4.96c0.96,1.65,1.93,3.81,1.93,4.8c0,0.98-0.42,2.71-0.73,3.67
		c-0.31,0.96-1.61,2.68-2.65,3.44c-1.03,0.76-5.92,3.1-6.54,3.17c-0.62,0.07-2.27,0.41-3.1-0.41
		C52.08,50.31,51.18,45.76,51.18,45.76z"/>
	<path class="st0" d="M65.19,48.72c0.24-0.48,0.47-2.23-0.47-2.84c-0.94-0.61-2.01-0.81-3.3-0.67c-1.29,0.14-2.81,1.03-3.43,1.45
		c-0.62,0.41-1.79,0.76-2.13,2.07c-0.34,1.31,0.62,5.1,0.28,5.54c-0.34,0.45-0.83,2.79-0.07,2.86c0.76,0.07,2.82-0.89,3.58-1.58
		s0.93-2.07,1.77-2.68C62.26,52.23,65.19,48.72,65.19,48.72z"/>
	<path class="st1" d="M59.23,58.02c0.48-0.48,0.48-2.2,1.86-2.13c1.38,0.07,1.93,0.35,2.27,1.24c0.34,0.89,0.34,0.75,1.38,0.89
		c1.03,0.14,4.41,0.62,6.2,0c1.79-0.62,5.58-1.7,6.61-2.81c1.03-1.11,4.47-4.35,5.09-5.17s2.27-2.34,1.17-3.58
		c-1.1-1.24-5.3-2.87-6.2-3.36s-2.07-1.98-4.13-2.17c-2.07-0.18-3.41-0.5-4.73,0.35c-1.33,0.85-5.66,3.53-6.28,4.91
		c-0.62,1.38-0.69,2.34-1.38,3.72c-0.69,1.38-2.48,4.77-2.55,5.31c-0.07,0.54-1.17,3.64-1.17,3.64l0.76,0.96L59.23,58.02z"/>
	<path class="st4" d="M62.47,58.57c0.41-0.21,8.6-1.38,11.22-0.76s6.06,3.03,7.3,4.13c1.24,1.1,3.1,4.83,1.86,7.06
		s-3.65,4.64-6.95,4.78c-3.3,0.14-9.64-1.31-10.71-2.07c-1.06-0.76-2.92-1.86-3.06-2.13s-2.48-5.78-2.62-6.33s-0.14-1.81,0.28-2.39
		S62.47,58.57,62.47,58.57z"/>
	<path class="st1" d="M45.81,50.26c-0.41,0.19-5.47,1.13-5.99,1.42c-0.51,0.28-6.01,5.45-6,6.55c0.01,1.1-0.21,7.71,0.38,8.95
		c0.59,1.24,2.82,1.81,4.24,1.83c1.42,0.02,6.35-1.21,7.37-1.9c1.01-0.69,3.03-2,3.44-2.62s1.93-3.19,1.93-4.01
		c0-0.81-0.34-4.51-0.76-5.28s-1.45-2.01-2.27-2.9S45.81,50.26,45.81,50.26z"/>
	<path class="st4" d="M43.06,64.28c0,0-3.72,10.05-3.24,11.5c0.48,1.45,1.58,6.33,4.34,7.09s4.54,1.17,5.78,0.55
		c1.24-0.62,6.33-3.1,7.98-4.61c1.65-1.51,2.13-7.57,2.2-8.88c0.07-1.31,0.83-3.75-0.41-4.22c-1.24-0.47-3.99-1.57-6.54-1.84
		s-3.6-0.55-4.45-0.48C47.88,63.45,43.06,64.28,43.06,64.28z"/>
	<g>
		<g>
			<path class="st5" d="M54.73,46.51c0,0-0.61,1.61-0.89,2.28c-0.07,0.16-0.08,0.34-0.06,0.52c0.28,0.11,0.53,0.21,0.77,0.31
				C54.33,48.78,54.73,46.51,54.73,46.51z"/>
			<path class="st5" d="M74.26,51.15c0.78,0.24,3.63,0.03,4.22,0.23c0.59,0.2,1.59,0.37,1.29,0.19c-0.3-0.18-1.14-0.98-1.14-0.98
				s-1.57-0.12-2.26-0.03c-0.24,0.03-0.7-0.04-1.2-0.14c-0.58,0.12-1.2,0.25-1.84,0.39C73.64,50.92,73.95,51.06,74.26,51.15z"/>
			<g>
				<path class="st5" d="M53.73,55c0.07-0.29,0.14-0.59,0.19-0.92c0.02-0.12,0.02-0.24,0.03-0.35c-0.19-0.39-0.53-1.07-0.89-1.44
					c-0.23-0.23-0.51-0.46-0.74-0.62c-0.01,0-0.02-0.01-0.03-0.01c-0.11-0.05-0.2-0.08-0.28-0.08c0.25,0.4,0.79,1.26,1.04,1.7
					C53.2,53.58,53.48,54.28,53.73,55z"/>
				<path class="st5" d="M55.05,57.06c-0.05-0.27,0.17-0.64,0.41-0.97l0.19-0.46c0.07-0.24,0.13-0.43,0.17-0.54
					c0.09-0.28,0.03-0.48-0.13-0.44c-0.18,0.49-0.66,0.95-1,1.33c0,0,0-0.01-0.01-0.04c-0.14,0.25-0.27,0.52-0.39,0.81
					c0,0.01,0.01,0.03,0.01,0.04c0.18,0.68-0.09,0.91,0,1.15c0.04,0.11,0.13,0.29,0.22,0.46l0.54-1.33
					C55.06,57.07,55.05,57.07,55.05,57.06z"/>
				<path class="st5" d="M61.32,55.49c0,0-0.73-0.11-1.23,0.39c-0.5,0.5-1.27,0.25-1.76,0.46c-0.49,0.21-2.81,2.09-3.4,2.3
					c-0.16,0.06-0.25,0.05-0.29,0.01c0.06,0.12,0.1,0.2,0.1,0.2l1.1-0.22c0,0,1.64-0.93,2.18-1.39c0.47-0.39,2.08-1.03,3.14-1.39
					C61.02,55.69,61.32,55.49,61.32,55.49z"/>
				<path class="st5" d="M71.7,50.77c0.64-0.22,1.15-0.12,1.62,0.04c0.65-0.14,1.26-0.27,1.84-0.39c-0.92-0.2-1.97-0.51-1.97-0.51
					s1.74-0.79,1.97-0.88c0.15-0.06,1.82-0.22,2.85-0.31c-0.11-0.16-0.22-0.33-0.33-0.5c-0.37-0.13-0.76-0.24-1-0.27
					c-0.62-0.07-2.63,0.14-2.63,0.14s0.7-0.64,1.03-1.2c0.33-0.56,0.93-2.33,0.58-2.01c-0.34,0.31-1.82,2.93-2.24,3.41
					c-0.41,0.48-3.18,2.3-5.07,3.35c-0.29,0.16-0.56,0.32-0.83,0.47c0.9-0.21,1.85-0.42,2.81-0.64
					C70.88,51.15,71.37,50.88,71.7,50.77z"/>
				<path class="st5" d="M63.28,53.08c0.32-0.39,0.66-0.8,0.89-1.08c0.56-0.66,1.38-1.71,1.89-2.12c0.5-0.41,1.13-0.78,1.36-0.97
					c0.23-0.18,5.2-3.77,5.42-4.11c0.22-0.35,1.17-1.36,1.17-1.36s-1.91,1.34-2.17,1.64c-0.26,0.31-2.79,2.1-3.54,2.45
					c-0.75,0.35-1.62,0.82-1.87,0.76c-0.25-0.06,0.05-0.33,0.08-1.07c0.02-0.74,0.22-1.33,0.47-1.88c0.24-0.55,0.31-1.25-0.27-0.66
					c-0.58,0.59-0.6,2.66-1.26,4.14c-0.66,1.49-1.61,2.5-2.89,4c-0.15,0.18-0.3,0.34-0.44,0.49c0.08-0.02,0.15-0.04,0.21-0.04
					C62.41,53.27,62.76,53.2,63.28,53.08z"/>
				<path class="st5" d="M58.63,51.45c0.48-1.11,1.91-2.4,2.64-3.14c0.73-0.74,2.82-3.29,2.82-3.29s-1.06,0.77-1.63,1.34
					c-0.57,0.58-1.92,1.63-2.43,2.03C59.54,48.8,59,49.25,59,49.25l-0.33-3.17c0,0-0.22,1.33-0.39,2.33c-0.17,1,0.01,1.68-0.27,2.36
					c-0.21,0.51-0.76,1.48-1.2,2.09c0.13,0.32,0.26,0.63,0.39,0.93C57.78,52.94,58.39,52,58.63,51.45z"/>
				<path class="st5" d="M53.73,55c0.14,0.4,0.27,0.8,0.38,1.14l0.39-0.96c-0.04-0.16-0.08-0.3-0.11-0.37
					c-0.1-0.24-0.21-0.64-0.31-0.8c-0.02-0.04-0.07-0.15-0.14-0.29c0,0.11-0.01,0.22-0.03,0.35C53.87,54.41,53.8,54.72,53.73,55z"/>
				<path class="st5" d="M56.78,54.08c0.04,0,0.11,0,0.2,0.01c0.07-0.1,0.14-0.2,0.21-0.3c-0.13-0.3-0.26-0.61-0.39-0.93
					c-0.14,0.19-0.27,0.35-0.37,0.45c-0.42,0.4-0.89-1.45-1.34-1.72c-0.45-0.27-0.28-1.11-0.54-1.87c-0.01-0.03-0.02-0.06-0.02-0.1
					c-0.23-0.1-0.49-0.2-0.77-0.31c0.06,0.59,0.48,1.29,0.89,2.16c0.54,1.15,0.67,1.71,1.01,2.46c0.06,0.13,0.07,0.26,0.07,0.4
					C56.14,54.2,56.55,54.08,56.78,54.08z"/>
				<path class="st5" d="M61.97,54.61l1.06,0.51c1.67-0.75,4.05-1.92,4.43-1.97c0.36-0.05,1.73-0.99,2.89-1.68
					c-0.96,0.22-1.91,0.43-2.81,0.64c-1.44,0.83-2.49,1.48-3.32,1.62c-0.97,0.16-2,0.65-1.89,0.52c0.07-0.08,0.49-0.6,0.94-1.16
					c-0.52,0.12-0.87,0.19-0.96,0.19c-0.05,0-0.13,0.02-0.21,0.04c-0.46,0.49-0.89,0.87-1.28,1.17
					C61.49,54.56,61.97,54.61,61.97,54.61z"/>
				<path class="st5" d="M55.81,55.09c-0.04,0.11-0.09,0.3-0.17,0.54l0.02-0.05c0,0,0.12-0.05,0.29-0.12
					c0.17-0.2,0.57-0.74,1.02-1.38c-0.09-0.01-0.16-0.01-0.2-0.01c-0.23,0-0.64,0.12-1.04,0.26c0,0.11-0.02,0.21-0.06,0.32
					C55.84,54.61,55.91,54.82,55.81,55.09z"/>
				<path class="st5" d="M60.83,54.48c-0.33,0.25-0.63,0.46-0.9,0.64c0.91,0.1,1.89,0.21,2.47,0.28c0.19-0.08,0.4-0.17,0.62-0.27
					l-1.06-0.51C61.97,54.61,61.49,54.56,60.83,54.48z"/>
				<path class="st5" d="M54.28,56.75c0.12-0.28,0.25-0.56,0.39-0.81c-0.03-0.12-0.1-0.47-0.18-0.76l-0.39,0.96
					C54.18,56.39,54.24,56.6,54.28,56.75z"/>
				<path class="st5" d="M59.52,55.4c-0.74,0.51-3.55,2.29-4.06,2.61c-0.4,0.26-0.37-0.2-0.38-0.63c-0.04,0.1-0.08,0.19-0.11,0.26
					c-0.19,0.38-0.4,0.78-0.35,0.95c0.01,0.02,0.02,0.04,0.03,0.05c0.04,0.05,0.13,0.05,0.29-0.01c0.59-0.21,2.91-2.09,3.4-2.3
					c0.49-0.21,1.26,0.03,1.76-0.46c0.5-0.5,1.23-0.39,1.23-0.39s-0.3,0.2-0.16,0.36c0.15-0.05,0.3-0.1,0.42-0.13
					c0.18-0.05,0.47-0.17,0.83-0.32c-0.59-0.07-1.56-0.18-2.47-0.28C59.79,55.22,59.65,55.31,59.52,55.4z"/>
			</g>
		</g>
	</g>
	<g>
		<path class="st6" d="M48.36,60.72c0,0,1.45-0.61,2.06-0.88c0.15-0.07,0.3-0.09,0.45-0.09c0.06,0.22,0.12,0.42,0.17,0.61
			C50.35,60.25,48.36,60.72,48.36,60.72z"/>
		<path class="st6" d="M50.01,76.42c0.11,0.63-0.41,2.97-0.31,3.44c0.1,0.47,0.13,1.28,0.01,1.04c-0.12-0.23-0.7-0.87-0.7-0.87
			s0.08-1.28,0.24-1.85c0.06-0.2,0.05-0.57,0.02-0.97c0.17-0.48,0.35-1,0.55-1.53C49.88,75.93,49.96,76.17,50.01,76.42z"/>
		<g>
			<path class="st6" d="M55.75,59.33c-0.25,0.08-0.52,0.16-0.81,0.21c-0.11,0.02-0.2,0.04-0.3,0.04c-0.31-0.13-0.85-0.36-1.12-0.64
				c-0.17-0.17-0.33-0.39-0.45-0.56c0-0.01-0.01-0.01-0.01-0.02c-0.03-0.08-0.04-0.16-0.03-0.22c0.31,0.18,0.98,0.56,1.33,0.73
				C54.59,59,55.16,59.17,55.75,59.33z"/>
			<path class="st6" d="M57.35,60.27c-0.22-0.02-0.57,0.18-0.88,0.4l-0.41,0.18c-0.21,0.07-0.38,0.14-0.48,0.17
				c-0.25,0.1-0.41,0.06-0.36-0.08c0.44-0.18,0.89-0.61,1.26-0.91c0,0-0.01,0-0.03,0c0.23-0.13,0.48-0.26,0.74-0.38
				c0.01,0,0.02,0,0.03,0.01c0.56,0.1,0.79-0.14,0.99-0.08c0.08,0.03,0.23,0.09,0.37,0.15l-1.2,0.54
				C57.36,60.28,57.35,60.28,57.35,60.27z"/>
			<path class="st6" d="M55.26,65.52c0,0-0.01-0.59,0.48-1.03c0.48-0.44,0.36-1.06,0.61-1.47c0.24-0.42,2.12-2.45,2.37-2.95
				c0.07-0.13,0.07-0.21,0.04-0.24c0.09,0.04,0.16,0.07,0.16,0.07l-0.32,0.92c0,0-0.99,1.41-1.44,1.88
				c-0.39,0.41-1.13,1.77-1.56,2.67C55.47,65.26,55.26,65.52,55.26,65.52z"/>
			<path class="st6" d="M49.98,74.35c-0.26,0.54-0.24,0.95-0.16,1.33c-0.2,0.54-0.38,1.05-0.55,1.53c-0.06-0.74-0.2-1.58-0.2-1.58
				s-0.88,1.48-0.98,1.67c-0.07,0.13-0.4,1.51-0.6,2.36c-0.13-0.08-0.26-0.15-0.39-0.23c-0.06-0.3-0.11-0.6-0.11-0.8
				c0.01-0.5,0.43-2.16,0.43-2.16s-0.63,0.62-1.15,0.92c-0.52,0.3-2.1,0.92-1.79,0.61c0.31-0.3,2.72-1.69,3.19-2.07
				c0.46-0.37,2.34-2.77,3.47-4.38c0.17-0.25,0.34-0.48,0.5-0.71c-0.28,0.75-0.58,1.54-0.88,2.34
				C50.41,73.65,50.12,74.07,49.98,74.35z"/>
			<path class="st6" d="M52.97,67.29c-0.38,0.29-0.77,0.6-1.03,0.81c-0.63,0.51-1.62,1.25-2.03,1.69c-0.41,0.44-0.81,0.98-0.99,1.18
				c-0.18,0.2-3.84,4.52-4.16,4.72c-0.32,0.2-1.3,1.05-1.3,1.05s1.37-1.65,1.67-1.89s2.13-2.43,2.52-3.07
				c0.39-0.64,0.9-1.38,0.87-1.58c-0.02-0.2-0.29,0.07-0.93,0.14c-0.64,0.07-1.16,0.27-1.66,0.51c-0.5,0.24-1.11,0.34-0.53-0.18
				c0.58-0.52,2.34-0.67,3.69-1.32c1.35-0.65,2.33-1.49,3.76-2.64c0.17-0.14,0.33-0.27,0.47-0.4c-0.03,0.07-0.05,0.13-0.06,0.17
				C53.23,66.56,53.13,66.85,52.97,67.29z"/>
			<path class="st6" d="M52.12,63.59c-1.01,0.47-2.28,1.73-3,2.38c-0.72,0.65-3.15,2.54-3.15,2.54s0.78-0.92,1.34-1.43
				c0.56-0.51,1.62-1.69,2.03-2.13c0.41-0.44,0.86-0.91,0.86-0.91l-2.67-0.05c0,0,1.16-0.27,2.04-0.48
				c0.87-0.21,1.44-0.11,2.05-0.38c0.46-0.21,1.36-0.72,1.93-1.12c0.26,0.08,0.51,0.17,0.75,0.25
				C53.5,62.79,52.63,63.35,52.12,63.59z"/>
			<path class="st6" d="M55.75,59.33c0.33,0.09,0.65,0.17,0.93,0.23l-0.87,0.39c-0.13-0.02-0.24-0.05-0.3-0.07
				c-0.19-0.07-0.52-0.13-0.64-0.2c-0.03-0.02-0.12-0.05-0.23-0.1c0.09-0.01,0.19-0.02,0.3-0.04
				C55.23,59.48,55.49,59.41,55.75,59.33z"/>
			<path class="st6" d="M54.59,61.89c-0.01,0.03-0.01,0.09-0.02,0.16c-0.09,0.06-0.19,0.13-0.29,0.2c-0.24-0.08-0.49-0.17-0.75-0.25
				c0.18-0.13,0.33-0.24,0.43-0.33c0.39-0.37-1.13-0.63-1.31-0.98c-0.18-0.35-0.92-0.15-1.53-0.32c-0.02-0.01-0.05-0.01-0.08-0.01
				c-0.05-0.18-0.11-0.39-0.17-0.61c0.49,0.01,1.05,0.3,1.74,0.58c0.92,0.36,1.38,0.43,1.99,0.66c0.11,0.04,0.22,0.04,0.33,0.03
				C54.77,61.36,54.62,61.71,54.59,61.89z"/>
			<path class="st6" d="M54.43,66.11l0.31,0.83c-0.84,1.42-2.12,3.45-2.21,3.77c-0.09,0.3-1.05,1.48-1.79,2.49
				c0.3-0.8,0.6-1.59,0.88-2.34c0.88-1.24,1.57-2.15,1.78-2.83c0.25-0.81,0.79-1.68,0.67-1.58c-0.07,0.06-0.57,0.44-1.1,0.85
				c0.16-0.44,0.26-0.73,0.28-0.8c0.01-0.04,0.03-0.1,0.06-0.17c0.48-0.41,0.85-0.79,1.15-1.13C54.44,65.72,54.43,66.11,54.43,66.11
				z"/>
			<path class="st6" d="M55.57,61.03c0.1-0.04,0.27-0.1,0.48-0.17l-0.04,0.02c0,0-0.06,0.1-0.14,0.25c-0.19,0.15-0.7,0.52-1.3,0.93
				c0.01-0.07,0.01-0.13,0.02-0.16c0.03-0.19,0.18-0.53,0.34-0.87c0.09-0.01,0.18-0.03,0.28-0.07
				C55.16,61.09,55.33,61.13,55.57,61.03z"/>
			<path class="st6" d="M54.46,65.19c0.26-0.29,0.46-0.54,0.65-0.78c-0.03,0.74-0.05,1.53-0.06,2.01c-0.09,0.16-0.2,0.34-0.31,0.52
				l-0.31-0.83C54.43,66.11,54.44,65.72,54.46,65.19z"/>
			<path class="st6" d="M57.17,59.66c-0.26,0.12-0.51,0.24-0.74,0.38c-0.1-0.01-0.39-0.05-0.63-0.09l0.87-0.39
				C56.88,59.61,57.05,59.64,57.17,59.66z"/>
			<path class="st6" d="M55.4,64.05c0.52-0.64,2.38-3.07,2.72-3.51c0.27-0.34-0.13-0.29-0.49-0.27c0.09-0.04,0.17-0.08,0.24-0.11
				c0.34-0.18,0.71-0.38,0.85-0.35c0.01,0.01,0.03,0.01,0.04,0.02c0.03,0.03,0.03,0.11-0.04,0.24c-0.25,0.5-2.13,2.53-2.37,2.95
				c-0.24,0.42-0.12,1.03-0.61,1.47c-0.48,0.44-0.48,1.03-0.48,1.03s0.21-0.26,0.33-0.16c-0.06,0.13-0.12,0.25-0.16,0.36
				c-0.07,0.15-0.2,0.4-0.38,0.7c0.01-0.48,0.03-1.27,0.06-2.01C55.21,64.28,55.3,64.16,55.4,64.05z"/>
		</g>
	</g>
	<g>
		<path class="st5" d="M51.26,52.71c0,0,1.12,1.1,1.61,1.56c0.12,0.11,0.2,0.24,0.26,0.38c-0.18,0.14-0.34,0.27-0.49,0.4
			C52.46,54.36,51.26,52.71,51.26,52.71z"/>
		<path class="st5" d="M37.41,60.3c-0.53,0.35-2.9,0.78-3.29,1.05c-0.39,0.27-1.13,0.61-0.96,0.41c0.17-0.2,0.53-0.98,0.53-0.98
			s1.21-0.42,1.8-0.49c0.21-0.02,0.55-0.18,0.91-0.36c0.51-0.03,1.06-0.06,1.63-0.09C37.82,59.99,37.63,60.16,37.41,60.3z"/>
		<g>
			<path class="st5" d="M55.4,58.98c-0.17-0.2-0.34-0.42-0.51-0.67c-0.06-0.09-0.11-0.17-0.16-0.26c0-0.34,0-0.93,0.15-1.28
				c0.09-0.23,0.23-0.45,0.34-0.63c0.01-0.01,0.01-0.01,0.02-0.02c0.06-0.06,0.13-0.1,0.19-0.12c-0.04,0.36-0.14,1.12-0.16,1.51
				C55.26,57.78,55.32,58.37,55.4,58.98z"/>
			<path class="st5" d="M55.15,60.82c-0.07-0.21-0.39-0.45-0.71-0.66l-0.33-0.31c-0.15-0.16-0.27-0.3-0.34-0.38
				c-0.18-0.19-0.21-0.36-0.07-0.37c0.33,0.34,0.91,0.58,1.32,0.81c0,0,0-0.01-0.01-0.03c0.21,0.16,0.43,0.34,0.63,0.53
				c0,0.01,0.01,0.02,0.01,0.03c0.13,0.56,0.43,0.67,0.45,0.88c0.01,0.09,0.01,0.24,0.01,0.39l-0.96-0.9
				C55.15,60.83,55.15,60.82,55.15,60.82z"/>
			<path class="st5" d="M49.51,60.92c0,0,0.54-0.23,1.14,0.04c0.6,0.27,1.11-0.07,1.59-0.01c0.48,0.06,3.08,1.01,3.64,1.05
				c0.15,0.01,0.22-0.01,0.24-0.06c0,0.1-0.01,0.17-0.01,0.17l-0.97,0.06c0,0-1.68-0.37-2.29-0.6c-0.53-0.2-2.07-0.36-3.06-0.41
				C49.82,61.01,49.51,60.92,49.51,60.92z"/>
			<path class="st5" d="M39.32,59.48c-0.6-0.03-0.97,0.14-1.29,0.37c-0.57,0.03-1.12,0.06-1.63,0.09c0.66-0.34,1.38-0.8,1.38-0.8
				s-1.71-0.24-1.92-0.26c-0.15-0.01-1.54,0.21-2.41,0.36c0.02-0.14,0.04-0.3,0.06-0.45c0.25-0.17,0.51-0.34,0.7-0.41
				c0.47-0.19,2.16-0.44,2.16-0.44s-0.82-0.34-1.3-0.7c-0.48-0.36-1.66-1.58-1.26-1.41c0.4,0.17,2.62,1.85,3.14,2.14
				c0.52,0.28,3.46,1.09,5.38,1.5c0.3,0.06,0.58,0.13,0.85,0.19c-0.8,0.03-1.65,0.06-2.5,0.09C40.13,59.6,39.63,59.49,39.32,59.48z"
				/>
			<path class="st5" d="M46.98,59.49c-0.41-0.23-0.85-0.48-1.14-0.64c-0.71-0.39-1.78-1.01-2.35-1.22
				c-0.56-0.21-1.21-0.36-1.47-0.45c-0.26-0.09-5.66-1.79-5.97-2.01c-0.31-0.22-1.47-0.8-1.47-0.8s2.05,0.62,2.39,0.8
				s3.07,1.02,3.8,1.13c0.74,0.11,1.62,0.29,1.8,0.19c0.18-0.1-0.18-0.24-0.49-0.8c-0.31-0.56-0.7-0.97-1.12-1.34
				c-0.41-0.37-0.74-0.89-0.04-0.56c0.7,0.33,1.53,1.9,2.64,2.9c1.12,1,2.28,1.57,3.89,2.45c0.19,0.1,0.37,0.2,0.55,0.28
				c-0.07,0-0.14,0-0.18,0.01C47.75,59.46,47.45,59.47,46.98,59.49z"/>
			<path class="st5" d="M50.07,57.28c-0.82-0.74-2.48-1.43-3.36-1.84c-0.88-0.41-3.56-1.93-3.56-1.93s1.15,0.36,1.84,0.69
				c0.68,0.32,2.18,0.84,2.75,1.05c0.56,0.21,1.17,0.44,1.17,0.44l-0.99-2.49c0,0,0.7,0.97,1.23,1.69c0.53,0.72,0.66,1.28,1.14,1.74
				c0.37,0.35,1.19,0.97,1.78,1.34c0.02,0.27,0.04,0.53,0.06,0.79C51.34,58.24,50.48,57.66,50.07,57.28z"/>
			<path class="st5" d="M55.4,58.98c0.05,0.33,0.1,0.67,0.15,0.95l-0.69-0.65c-0.03-0.13-0.05-0.24-0.06-0.3
				c-0.01-0.2-0.08-0.53-0.07-0.67c0-0.04,0-0.13,0-0.25c0.05,0.08,0.1,0.17,0.16,0.26C55.06,58.55,55.23,58.77,55.4,58.98z"/>
			<path class="st5" d="M52.59,58.9c-0.03,0.01-0.09,0.03-0.16,0.05c-0.1-0.06-0.19-0.12-0.29-0.19c-0.01-0.25-0.03-0.52-0.06-0.79
				c0.19,0.12,0.35,0.21,0.47,0.27c0.49,0.22,0.15-1.29,0.4-1.58c0.25-0.3-0.22-0.9-0.3-1.54c0-0.02-0.01-0.05-0.02-0.08
				c0.15-0.12,0.32-0.25,0.49-0.4c0.18,0.46,0.13,1.08,0.14,1.83c0.02,0.99,0.14,1.44,0.16,2.09c0,0.11,0.04,0.22,0.1,0.32
				C53.15,58.86,52.77,58.85,52.59,58.9z"/>
			<path class="st5" d="M48.64,60.39l-0.65,0.61c-1.63-0.23-4.01-0.62-4.33-0.58c-0.31,0.04-1.77-0.39-2.98-0.68
				c0.85-0.03,1.7-0.07,2.5-0.09c1.49,0.33,2.58,0.61,3.3,0.54c0.84-0.08,1.86,0.08,1.72,0c-0.08-0.04-0.63-0.36-1.21-0.69
				c0.47-0.02,0.77-0.04,0.85-0.05c0.04-0.01,0.11-0.01,0.18-0.01c0.57,0.28,1.06,0.47,1.49,0.62C49,60.25,48.64,60.39,48.64,60.39z
				"/>
			<path class="st5" d="M53.76,59.48c0.07,0.07,0.2,0.21,0.34,0.38l-0.03-0.03c0,0-0.11-0.01-0.28-0.03
				c-0.21-0.12-0.75-0.45-1.36-0.84c0.07-0.02,0.12-0.04,0.16-0.05c0.18-0.05,0.56-0.04,0.94-0.02c0.05,0.08,0.1,0.16,0.17,0.23
				C53.55,59.12,53.58,59.29,53.76,59.48z"/>
			<path class="st5" d="M49.5,60.05c0.36,0.13,0.68,0.22,0.97,0.3c-0.69,0.26-1.43,0.55-1.87,0.72c-0.18-0.02-0.39-0.05-0.6-0.08
				l0.65-0.61C48.64,60.39,49,60.25,49.5,60.05z"/>
			<path class="st5" d="M55.64,60.42c-0.21-0.19-0.42-0.37-0.63-0.53c-0.03-0.09-0.1-0.38-0.16-0.61l0.69,0.65
				C55.58,60.13,55.62,60.3,55.64,60.42z"/>
			<path class="st5" d="M50.91,60.48c0.79,0.23,3.75,1,4.29,1.15c0.42,0.11,0.22-0.23,0.06-0.56c0.07,0.07,0.14,0.13,0.19,0.17
				c0.3,0.25,0.62,0.51,0.66,0.65c0,0.02,0,0.03,0,0.05c-0.02,0.04-0.09,0.07-0.24,0.06c-0.56-0.04-3.16-0.99-3.64-1.05
				c-0.48-0.06-1,0.29-1.59,0.01c-0.6-0.27-1.14-0.04-1.14-0.04s0.32,0.09,0.27,0.24c-0.14-0.01-0.28-0.01-0.39-0.01
				c-0.16,0-0.44-0.03-0.79-0.08c0.44-0.17,1.18-0.46,1.87-0.72C50.62,60.4,50.77,60.44,50.91,60.48z"/>
		</g>
	</g>
	<path class="st1" d="M52.49,59.26c-0.96,0.83-4.83,3.37-4.7,4.89c0.13,1.51-0.28,3.68,0.94,4.86s3.49,2.57,4.93,2.99
		c1.45,0.41,3.92,0.83,4.89,0.89c0.96,0.07,1.48,0.41,2.88,0c1.39-0.41,3.87-2.92,4.49-3.8s2.38-4.39,0.74-6.18
		c-1.64-1.79-4.39-4.2-4.66-4.47s-0.89-0.36-2.27-0.8c-1.38-0.44-2.96,0.03-3.24,0C56.21,57.6,52.49,59.26,52.49,59.26z"/>
	<path class="st4" d="M54.48,49.76c-0.14-0.41,0-3.59-1.58-4.58s-3.37-1.47-5.44-0.99c-2.07,0.48-3.92,1.1-4.68,1.79
		c-0.76,0.69-1.94,1.93-1.65,2.55c0.28,0.62,0.63,2.45,0.86,3.43c0.24,0.98-0.04,1.39,1.13,1.94s3.33,1.53,4.66,1.32
		c1.33-0.22,2.57-0.83,3.05-0.94c0.48-0.1,0.94-0.31,2-1.48C53.89,51.61,54.48,49.76,54.48,49.76z"/>
	<path class="st3" d="M57.38,54.27c0.21-0.59,1.21-2.3,0.74-3.58c-0.47-1.28-0.76-1.83-2.26-1.97c-1.5-0.13-2.44-0.2-3.59,1.18
		s-2.9,3.99-3.54,5.09c-0.64,1.1-1.13,3.44-0.58,4.82c0.55,1.38-0.31,1.97,1.1,2.06s2.2,0.21,2.89-0.34
		c0.69-0.55,1.33-1.68,1.51-2.27c0.19-0.59,1.47-1.58,1.53-2.13c0.06-0.55,0.88-0.9,1.09-1.17C56.48,55.68,57.38,54.27,57.38,54.27z
		"/>
	<path class="st2" d="M54.48,54.27c0,0,2,0.52,1.79,1.69c-0.21,1.17-0.05,1.65-0.61,2.41c-0.56,0.76-0.84,0.89-2.01,0.89
		s-1.72-0.48-1.86-1.24c-0.14-0.76-0.14-2.67,0-2.71s-0.07-0.11,0.48-0.59C52.83,54.23,54.48,54.27,54.48,54.27z"/>
</g>
</svg>
