<?xml version="1.0" encoding="utf-8"?>
<!-- Generator: Adobe Illustrator 23.1.1, SVG Export Plug-In . SVG Version: 6.00 Build 0)  -->
<svg version="1.1" id="Layer_1" xmlns="http://www.w3.org/2000/svg" xmlns:xlink="http://www.w3.org/1999/xlink" x="0px" y="0px"
	 viewBox="0 0 108 108" style="enable-background:new 0 0 108 108;" xml:space="preserve">
<style type="text/css">
	.st0{fill:#9BBD62;}
	.st1{fill:#76AF42;}
	.st2{fill:#CDBE67;}
	.st3{fill:#EFDC77;}
	.st4{fill:#E7DCCB;}
	.st5{fill:#F0DC50;}
	.st6{fill:#778D39;}
	.st7{fill:#C2B23A;}
	.st8{fill:#F1D62A;}
</style>
<g>
	<g>
		<path class="st0" d="M33.69,55.34c0,0-1.5-0.47-5.02,1.11c-3.52,1.58-6.05,1.82-6.05,1.82l0.62-1.04l6.46-2.46l4.7-0.34
			L33.69,55.34z"/>
		<path class="st1" d="M26.38,56.61c0,0,1.87-0.04,1.66-1.3s-0.15-2.1-0.8-3.07c-0.65-0.96-0.87-1.54-0.87-1.54s0.02,0.38-1.09,0.41
			s-4.63-0.68-4.63-0.68s0.38,1.29,0.1,1.79s0.51,0.46-0.43,1.29c-0.94,0.83-3.18,2.82-3.59,2.99c-0.41,0.18-0.99,0.72-1.42,0.93
			c-0.43,0.21-1.18,0.59-1.18,0.59s1.21,0.84,1.81,0.84s4.34,1.53,5.1,2.3c0.76,0.78,1.62,2.36,1.52,2.87s-0.5,0.83-0.28,1.04
			c0.22,0.21,0.17,0.36,1.08-0.3s2.58-1.96,3.83-2.12c1.25-0.16,1.36-0.13,1.68-0.05c0.32,0.08-0.24-0.14-0.12-1.11
			c0.12-0.97,0.81-1.84,0.44-2.49c-0.37-0.65-0.29-0.76-0.7-1.21c-0.41-0.45-0.99-0.38-1.26-0.61
			C26.99,56.96,26.38,56.61,26.38,56.61z"/>
	</g>
	<g>
		<path class="st2" d="M53.09,40.57c-1.34-0.03-1.61,0.24-1.99,1.05c-0.06,0.12-0.13,0.35-0.21,0.64c1.53,0.08,4.04,0.4,4.59,1.81
			c0.63,1.61,0.9,3.34,0.11,4.78c-0.8,1.44-1.38,3.07-1.47,7.69c-0.09,4.62,1.05,12.48,0.79,16.02c-0.27,3.55-1.25,9.94-2.24,11.54
			c-0.3,0.47-0.78,1.06-1.41,1.63c2.03-0.66,3.59-2.26,4.24-3.3c0.99-1.59,1.98-7.99,2.24-11.54c0.27-3.55-0.88-11.4-0.79-16.02
			c0.09-4.62,0.68-6.26,1.47-7.69c0.8-1.44,0.52-3.17-0.11-4.78C57.67,40.78,54.44,40.59,53.09,40.57z"/>
		<path class="st3" d="M54.9,72.56c0.27-3.55-0.88-11.4-0.79-16.02c0.09-4.62,0.68-6.26,1.47-7.69c0.8-1.44,0.52-3.17-0.11-4.78
			c-0.55-1.4-3.06-1.73-4.59-1.81c-0.49,1.72-1.38,5.88-1.46,6.17c-0.1,0.34-3.45,8.06-5.21,12.39c-1.76,4.32-2.1,10.79-1.78,16.45
			c0.33,5.66,4.32,8.23,5.23,8.51c1.28,0.39,2.49,0.3,3.57-0.05c0.63-0.56,1.12-1.15,1.41-1.63C53.65,82.5,54.64,76.11,54.9,72.56z"
			/>
		<path class="st4" d="M49.97,43.97c-0.06-0.66-0.24-1.56,0.25-2.33c0.49-0.77,1.64-1.11,2.24-1.75c0.6-0.64,1.42-1.19,1.86-1.5
			c0.44-0.3,1.22,0.07,1.56,0.17c0.34,0.1,1.07,0.94,0.47,1.63c-0.6,0.7-1.47,1.71-1.13,2.31c0.35,0.6,0.31,1.97,0.13,2.05
			c-0.18,0.08-0.08,0.16-0.67,0.21c-0.59,0.05-1.69,0.99-2.46,0.5C51.46,44.77,50.04,44.82,49.97,43.97z"/>
	</g>
	<g>
		<path class="st2" d="M32.44,50.25c-0.12,0.08-0.24,0.22-0.34,0.42c0.26,0,0.52,0.03,0.77,0.09c1.08,0.24,2.09,0.24,2.88,1.14
			c0.79,0.9,0.9,1.64,0.59,4.15c-0.31,2.51,0.19,7.68,0.26,10.17c0.07,2.49,0.36,9.81-0.15,12.86c-0.35,2.06-1.05,9.53-4.67,12.28
			c5.88-0.53,6.8-10.81,7.22-13.28c0.52-3.04,0.22-10.36,0.15-12.86c-0.07-2.49-0.57-7.66-0.26-10.17c0.31-2.51,0.2-3.25-0.59-4.15
			c-0.79-0.9-1.8-0.9-2.88-1.14C34.33,49.51,33.16,49.79,32.44,50.25z"/>
		<path class="st5" d="M36.45,79.08c0.52-3.04,0.22-10.36,0.15-12.86c-0.07-2.49-0.57-7.66-0.26-10.17c0.31-2.51,0.2-3.25-0.59-4.15
			c-0.79-0.9-1.8-0.9-2.88-1.14c-0.26-0.06-0.51-0.08-0.77-0.09c-0.52,0.93-0.86,3.03-1.29,4.66c-0.52,1.96-2.64,10.03-3.22,12.06
			c-0.58,2.03-1.91,6.06-2.93,12.74c-1.02,6.68,0.16,8.63,2.23,9.83c1.93,1.12,3.55,1.52,4.9,1.4C35.4,88.61,36.1,81.14,36.45,79.08
			z"/>
		<path class="st4" d="M31.05,51.33c0.32-0.83,0.93-1.32,1.7-2.02c0.77-0.7,2.09-2.24,2.34-2.62c0.24-0.37,0.48-1.1,1-1.01
			c0.52,0.09,2.06,1.41,2.06,1.41s-0.86,0.56-1.41,1.36s-1.06,1.71-0.72,2.18c0.33,0.47,0.37,1.3,0.32,1.59
			c-0.05,0.29-0.22,0.62-1.23,0.98c-1.01,0.36-1.7,0.64-2.16,0.21c-0.46-0.42-1.03-0.88-1.19-1.02
			C31.61,52.26,31.05,51.33,31.05,51.33z"/>
	</g>
	<path class="st0" d="M36.13,43.32c0,0-1.16-2.74-5.4-2.23c-4.23,0.51-3.99,2.31-3.99,2.31l2.24-0.73c0,0,6.4-0.44,6.68,1.22
		s1.76,0.09,1.76,0.09L36.13,43.32z"/>
	<polygon class="st0" points="62.43,35.34 57.7,36.92 56.84,36.11 63.48,33.61 64.26,34.1 	"/>
	<path class="st0" d="M44.7,24.16c0,0,1.51,2.95,1.81,4.21s-0.08,2.57-0.08,2.57l-1.17-0.34c0,0,0.6-3.67,0.15-3.89
		c-0.45-0.22-1.51-1.64-1.51-1.64L44.7,24.16z"/>
	<path class="st0" d="M35.62,46.03c0,0,1.41,0.16,0.45,1.05c-0.96,0.89-1.89,2.05-2.16,1.41c-0.28-0.64-0.29-1.79-0.19-2.21
		c0.1-0.43,0.99-1.03,1.94-2.38c0.95-1.35,1.71-1.58,2.55-1.85c0.84-0.27,2.69-0.41,2.69-0.41l1.16,0.47l-3.81,1.35
		c0,0-1.06,0.65-1.35,0.87C36.61,44.56,35.62,46.03,35.62,46.03z"/>
	<g>
		<path class="st0" d="M73.41,44.92c0,0-0.41,1.52,1.32,4.97c1.73,3.45,2.08,5.97,2.08,5.97l-1.06-0.57l-2.73-6.35l-0.54-4.68
			L73.41,44.92z"/>
		<path class="st1" d="M74.99,52.17c0,0-0.12-1.87-1.37-1.61s-2.09,0.24-3.03,0.93c-0.94,0.69-1.5,0.93-1.5,0.93
			s0.38-0.04,0.45,1.07c0.07,1.11-0.48,4.65-0.48,4.65s1.27-0.44,1.78-0.17s0.44-0.53,1.31,0.38c0.87,0.91,2.95,3.05,3.14,3.46
			c0.19,0.4,0.76,0.96,0.99,1.38c0.23,0.42,0.64,1.15,0.64,1.15s0.79-1.24,0.77-1.84c-0.03-0.6,1.34-4.4,2.08-5.19
			c0.74-0.8,2.29-1.72,2.8-1.64c0.52,0.07,0.85,0.47,1.05,0.24s0.35-0.19-0.34-1.07c-0.7-0.88-2.07-2.5-2.28-3.74
			c-0.21-1.24-0.19-1.35-0.12-1.68c0.07-0.32-0.13,0.25-1.11,0.17c-0.98-0.08-1.88-0.73-2.51-0.34c-0.63,0.4-0.75,0.32-1.18,0.75
			c-0.43,0.43-0.34,1-0.55,1.28C75.32,51.55,74.99,52.17,74.99,52.17z"/>
	</g>
	<g>
		<path class="st0" d="M65.11,41.48c0,0-1.35,0.8-2.51,4.49c-1.16,3.68-2.66,5.73-2.66,5.73l-0.37-1.15l2.45-6.46l2.87-3.74
			L65.11,41.48z"/>
		<path class="st1" d="M61.2,47.79c0,0,1.22-1.42,0.13-2.11c-1.08-0.68-1.67-1.28-2.82-1.44c-1.15-0.16-1.72-0.38-1.72-0.38
			s0.3,0.24-0.42,1.08c-0.72,0.85-3.58,3-3.58,3s1.22,0.57,1.4,1.12c0.18,0.54,0.68-0.07,0.67,1.18c-0.01,1.26-0.01,4.25-0.15,4.67
			c-0.14,0.42-0.12,1.22-0.25,1.68s-0.34,1.27-0.34,1.27s1.43-0.34,1.83-0.79c0.4-0.45,4.02-2.23,5.11-2.28
			c1.09-0.06,2.84,0.36,3.16,0.77c0.32,0.41,0.29,0.93,0.59,0.9c0.3-0.02,0.38,0.11,0.5-1.01c0.11-1.12,0.25-3.23,0.96-4.27
			c0.72-1.04,0.81-1.1,1.08-1.29c0.27-0.19-0.27,0.08-0.91-0.65c-0.65-0.74-0.84-1.83-1.56-1.99s-0.76-0.29-1.37-0.28
			c-0.61,0.01-0.94,0.48-1.29,0.54C61.86,47.57,61.2,47.79,61.2,47.79z"/>
	</g>
	<g>
		<path class="st0" d="M46.49,30.32c0,0-1.09,1.13-1.23,4.99s-1.05,6.23-1.05,6.23l-0.66-1.01l0.66-6.88l1.78-4.36L46.49,30.32z"/>
		<path class="st1" d="M44.38,37.44c0,0,0.8-1.7-0.43-2.07c-1.23-0.37-1.95-0.8-3.1-0.65s-1.76,0.09-1.76,0.09s0.35,0.15-0.12,1.15
			c-0.47,1.01-2.66,3.84-2.66,3.84s1.33,0.23,1.65,0.71s0.64-0.25,0.96,0.96s1.12,4.1,1.09,4.54c-0.03,0.45,0.2,1.21,0.2,1.69
			c0,0.48,0.01,1.31,0.01,1.31s1.29-0.71,1.56-1.25c0.27-0.54,3.29-3.21,4.32-3.55s2.83-0.4,3.25-0.09s0.52,0.82,0.81,0.72
			c0.29-0.1,0.4,0.01,0.21-1.1c-0.19-1.11-0.62-3.18-0.2-4.37c0.42-1.19,0.49-1.28,0.7-1.53c0.21-0.25-0.23,0.15-1.05-0.39
			s-1.29-1.55-2.03-1.5c-0.74,0.04-0.81-0.08-1.39,0.09c-0.58,0.17-0.78,0.71-1.1,0.86C44.97,37.05,44.38,37.44,44.38,37.44z"/>
	</g>
	<path class="st1" d="M46.04,25.94c0,0-0.02,1.78,1.18,1.62c1.2-0.16,2-0.08,2.93-0.67c0.93-0.58,1.49-0.77,1.49-0.77
		s-0.36,0.01-0.35-1.04s0.78-4.37,0.78-4.37s-1.24,0.32-1.7,0.04c-0.46-0.29-0.45,0.47-1.21-0.45c-0.76-0.92-2.58-3.1-2.73-3.49
		c-0.15-0.4-0.65-0.96-0.84-1.38s-0.52-1.13-0.52-1.13s-0.84,1.12-0.85,1.69s-1.58,4.07-2.34,4.77c-0.76,0.7-2.29,1.46-2.77,1.36
		c-0.48-0.1-0.77-0.5-0.98-0.3c-0.21,0.2-0.35,0.15,0.25,1.04c0.6,0.89,1.79,2.51,1.9,3.7c0.11,1.19,0.08,1.29,0,1.59
		s0.14-0.22,1.06-0.08c0.92,0.14,1.72,0.83,2.35,0.5s0.73-0.25,1.17-0.63s0.39-0.92,0.61-1.18C45.69,26.51,46.04,25.94,46.04,25.94z
		"/>
	<path class="st0" d="M61.63,32.23c0.68,0.37,0.85,1.02,1.27,1.92c0.42,0.9,0.57,1.71,0.88,2.12c0.3,0.42,1,0.63,1.88,1.34
		c0.88,0.71,1.72,1.27,1.72,1.27s0.73-2.09,2.27-2.47c1.54-0.37,3.1-0.29,3.43-0.27c0.33,0.01-1.06-2.49-1.33-3.34
		c-0.27-0.85,0.55-2.28,0.69-2.56c0.14-0.28,2.98-4.8,2.98-4.8s-3.23,0.71-4.47,0.88c-1.24,0.17-4.99-0.66-5.8-1.98
		c-0.81-1.31-1.13-2.86-1.13-2.86s-0.86,2.83-1.38,3.5c-0.52,0.67-2.61,2.35-2.93,2.44c-0.32,0.09-1.41-0.27-1.41-0.27
		s0.73,1.01,0.9,1.84c0.17,0.83,0.74,2.09,1.23,2.56C60.9,32.01,61.26,32.04,61.63,32.23z"/>
	<path class="st0" d="M30.64,43.3c0.01-0.77,0.5-1.23,1.1-2.02c0.6-0.79,1.24-1.3,1.47-1.77c0.22-0.46,0.09-1.18,0.3-2.29
		s0.32-2.11,0.32-2.11s-2.19,0.34-3.24-0.85c-1.05-1.19-1.7-2.6-1.84-2.9s-1.71,2.11-2.33,2.74c-0.63,0.63-2.27,0.58-2.58,0.59
		c-0.31,0.01-5.64-0.39-5.64-0.39s2.14,2.52,2.86,3.54c0.73,1.01,1.74,4.72,0.96,6.05c-0.78,1.33-2,2.34-2,2.34s2.9-0.56,3.74-0.41
		c0.84,0.15,3.3,1.21,3.53,1.45c0.23,0.24,0.42,1.37,0.42,1.37s0.56-1.12,1.21-1.65c0.65-0.53,1.5-1.63,1.69-2.28
		C30.78,44.05,30.63,43.72,30.64,43.3z"/>
	<path class="st0" d="M78.59,45.56c0.23,0.73-0.11,1.33-0.43,2.26s-0.78,1.62-0.86,2.13c-0.07,0.51,0.28,1.15,0.41,2.27
		c0.13,1.12,0.34,2.11,0.34,2.11s1.98-0.99,3.35-0.18c1.36,0.81,2.41,1.96,2.64,2.2c0.23,0.24,0.98-2.53,1.39-3.32
		c0.4-0.79,1.98-1.24,2.28-1.35s5.49-1.35,5.49-1.35s-2.8-1.75-3.81-2.5s-3.1-3.96-2.76-5.47c0.34-1.5,1.19-2.84,1.19-2.84
		s-2.59,1.42-3.43,1.53c-0.84,0.11-3.51-0.15-3.8-0.31c-0.29-0.16-0.82-1.18-0.82-1.18s-0.19,1.23-0.65,1.94s-0.94,2.01-0.92,2.69
		C78.22,44.89,78.47,45.16,78.59,45.56z"/>
	<path class="st6" d="M37.79,35.47c0.07-0.77,0.6-1.19,1.25-1.93c0.66-0.74,1.34-1.2,1.59-1.65c0.26-0.44,0.18-1.17,0.47-2.26
		s0.48-2.08,0.48-2.08s-2.21,0.17-3.17-1.09s-1.5-2.72-1.62-3.03c-0.12-0.31-1.86,1.97-2.53,2.56c-0.67,0.59-2.31,0.41-2.62,0.39
		c-0.31-0.02-5.6-0.82-5.6-0.82s1.94,2.68,2.59,3.75c0.65,1.07,1.38,4.84,0.5,6.11c-0.88,1.27-2.17,2.18-2.17,2.18
		s2.93-0.34,3.76-0.13s3.2,1.46,3.41,1.72c0.21,0.26,0.32,1.4,0.32,1.4s0.64-1.07,1.33-1.56s1.62-1.51,1.86-2.15
		C37.88,36.22,37.76,35.88,37.79,35.47z"/>
	<path class="st0" d="M54.77,36.93c0,0,0.34,0.52,0.49,1.13s1.23,1.57-0.64,1.9c-1.87,0.33-1.75-0.3-1.81-0.65
		c-0.06-0.36,0.49-1.07,0.33-1.67c-0.16-0.6-0.66-2.5-0.66-2.5s0.18-0.83-1.05-1.25c-1.23-0.42-8.9-3.81-9.29-3.84
		c-0.39-0.02-1.18-0.07-1.51,0.27c-0.33,0.33-1.39,0.98-1.24,1.78c0.15,0.79,0.6,1.17,0.19,1.54s-1.23,1.48-1.76,0.76
		c-0.53-0.73-0.57-1.28-0.25-2.09c0.32-0.81,0.92-2.97,1.81-3.35c0.89-0.38,2.08-0.04,2.08-0.04s0.92-0.11,2.03,0.27
		c1.11,0.38,10.42,4.69,10.42,4.69l13.63,7.7l12.28,5.23l-1.13,1.15L67.35,42.7l-9.04-4.81l-2.51-1.4l-1.55-0.77L54.77,36.93z"/>
	<g>
		<path class="st7" d="M73.75,92.3c1.77,0.69,3.41,0.54,4.02,0.5c1.11-0.07,4.55-3.18,5.42-5.22c0.87-2.04,1.65-6.88,0.71-12.76
			c-0.93-5.87-7.05-14.36-8.9-17.6c-1.85-3.24-3.02-8.62-3.21-10.24c-0.09-0.74-0.44-1.45-0.94-2.1c0.24,0.07,0.52,0.19,0.82,0.36
			c1.55,0.88,3.02,2.4,3.21,4.02s1.36,7,3.21,10.24s7.96,11.72,8.9,17.6c0.93,5.87,0.16,10.72-0.71,12.76
			c-0.87,2.04-4.32,5.15-5.42,5.22C79.89,95.15,76.31,95.49,73.75,92.3z"/>
		<path class="st8" d="M75.01,57.23c1.85,3.24,7.96,11.72,8.9,17.6c0.93,5.87,0.16,10.72-0.71,12.76c-0.87,2.04-4.32,5.15-5.42,5.22
			c-0.61,0.04-2.25,0.18-4.02-0.5c-0.37-0.46-0.72-0.99-1.04-1.61c-2.52-4.9-5.81-10.89-5.76-19.32c0.05-8.43-0.73-17.98-0.83-18.87
			c-0.11-0.88-0.94-3.94-0.61-4.66c0.33-0.72,1.29-1.96,1.58-2.04c0.28-0.09,2.25-0.82,2.25-0.82s0.52-0.39,1.52-0.08
			c0.5,0.64,0.85,1.36,0.94,2.1C71.99,48.61,73.16,53.99,75.01,57.23z"/>
		<path class="st4" d="M66.3,46.43c0,0,0.17-1.31,0.35-1.8c0.18-0.49,0.05-1.53,0.15-1.72c0.1-0.19,0.23-0.56,1.17-0.49
			c0.95,0.06,1.39,0.3,1.85,0.78c0.47,0.47,1.3,1.07,1.59,1.54c0.29,0.47,0.46,1.44,0.2,1.71c-0.26,0.27-1.42,0.88-1.77,0.89
			s-0.35-0.01-1.06-0.06S66.3,46.43,66.3,46.43z"/>
	</g>
</g>
</svg>
