<?xml version="1.0" encoding="utf-8"?>
<!-- Generator: Adobe Illustrator 23.1.1, SVG Export Plug-In . SVG Version: 6.00 Build 0)  -->
<svg version="1.1" id="Layer_1" xmlns="http://www.w3.org/2000/svg" xmlns:xlink="http://www.w3.org/1999/xlink" x="0px" y="0px"
	 viewBox="0 0 108 108" style="enable-background:new 0 0 108 108;" xml:space="preserve">
<style type="text/css">
	.st0{fill:#E4E4B5;}
	.st1{fill:#58883D;}
	.st2{fill:#72AA42;}
	.st3{fill:#778D39;}
	.st4{fill:#9BBD62;}
	.st5{fill:#E3E5C5;}
	.st6{fill:#CCD896;}
	.st7{fill:#C1D7AA;}
</style>
<g>
	<path class="st0" d="M45.8,89.79c0.2,1.43,2.14,6.36,3.35,6.8c1.2,0.44,3.51,1.46,5.38-0.16s3.5-3.19,3.41-4.96
		c-0.09-1.78-0.19-4.34-1.55-4.17c-1.35,0.17-2.32,1.37-4.52,1.37c-2.21,0-4.57-0.78-4.63-1.37s-2.24-1.36-2.24-1.36L45.8,89.79z"/>
	<path class="st1" d="M43.62,81.24c-0.56-1.6-0.84-4.71-3.82-6.79c-2.97-2.08-2.57-0.64-6.68-4.15s-4.12-3.35-4.51-5.91
		c-0.4-2.56,0.08-1.6-1.36-3.27c-1.44-1.68-1.92-2.08-1.12-3.03s0.56-1.68,3.91-1.36s9.42,5.35,10.22,6.47s1.6,5.11,2.08,6.87
		c0.48,1.76,0.74,5.83,0.74,5.83L43.62,81.24z"/>
	<path class="st2" d="M47.38,33.09c-1.2-1.28-2-3.11-3.75-2s-1.04,2.87-2.24,1.44c-1.2-1.44-2.56-2.05-3.19-1.78
		c-0.64,0.27-0.88,1.14-0.88,1.14s-0.34-1.75-1.85-1.75s-1.51,0-1.91,0.48c-0.4,0.48,0.56-0.8-1.6-0.08
		c-2.16,0.72-2.87,0.4-3.27,2.08c-0.4,1.68-0.16,1.6-0.48,3.67c-0.32,2.08-0.72,3.35,0,4.39s2.72,6.23,4.91,7.99
		c2.19,1.76,3.63,2.8,5.07,2.4c1.44-0.4,5.59-0.32,8.07-3.67c2.48-3.35,4.23-5.59,3.99-7.59S47.38,33.09,47.38,33.09z"/>
	<path class="st1" d="M55.92,30.69c0.8-1.28,2.56-3.67,3.91-4.39c1.36-0.72,2.95-2.48,2.95-2.48s3.22-1.52,4.33-1.68
		c1.1-0.16,1.9-0.16,2.3,0c0.4,0.16,1.52-0.16,2.32,0.32c0.8,0.48,2-0.08,2.16,2.24c0.16,2.32,0.4,3.19,0.32,3.75
		c-0.08,0.56,0.19-0.16,0.02,1.68c-0.18,1.84-0.1,2.48-0.42,3.43c-0.32,0.96-0.8,2.48-1.52,3.43c-0.72,0.96-0.48,2.4-2.16,3.64
		s-2.24,2.27-2.4,2.67c-0.16,0.4,0,1.68-0.16,3.11c-0.16,1.44-0.48,2.72-1.68,3.43c-1.2,0.72-0.88,1.76-3.83,0
		c-2.95-1.76-9.5-9.82-9.18-10.54C53.21,38.6,55.92,30.69,55.92,30.69z"/>
	<path class="st2" d="M64.79,51.86c0.72-0.48,3.51-4.07,5.35-4.07s3.11,0.8,3.75,0c0.64-0.8,1.28-1.28,1.92-2.32s0.4-1.43,2.64-2.87
		s3.91-2.72,5.03-3.12s3.35-1.04,3.35-1.04s1.36-0.24,0.56,1.6c-0.8,1.84-1.33,3.43-1.47,3.83c-0.13,0.4,0.98,0.8-0.85,2.16
		c-1.84,1.36-5.27,3.35-7.51,4.15c-2.24,0.8-9.26,4.55-10.94,6.15c-1.68,1.6-4.15,5.03-4.79,5.83c-0.64,0.8-1.2-0.24-1.2-1.04
		s0-2.08-0.48-3.51c-0.48-1.44-0.16-2.48,0.48-3.43C61.27,53.21,64.79,51.86,64.79,51.86z"/>
	<path class="st3" d="M65.98,57.69c0.4-0.24,2.72-1.36,4.39-2.08c1.68-0.72,3.78-2.24,3.91-3.11c0.13-0.88,0.56-1.72,1.36-2.06
		c0.8-0.34,2.26-1.07,2.93-0.66c0.67,0.41,1.54,2,1.54,3.04s-0.48,1.68,0.32,3.19s0,2.08,0,3.43c0,1.36,0.48,2.87-0.56,4.47
		c-1.04,1.6-1.6,2.08-2.48,3.75c-0.88,1.68,0.4,3.35-4.55,4.07c-4.95,0.72-5.99,0.72-7.67,1.76c-1.68,1.04-2.56,2.48-2.56,2.48
		s-0.32-1.76-0.72-2.8c-0.4-1.04-0.8-2.32-1.2-3.51c-0.4-1.2-2.64-3.75-2.64-3.75l-2.8-1.84c0,0-0.56-0.3,0.4-1.63
		c0.96-1.33,3.47-3.34,4.77-3.69C61.75,58.41,65.98,57.69,65.98,57.69z"/>
	<path class="st2" d="M42.35,63.36c0.32-1.68,2.24-4.87,0-8.23c-2.24-3.35-2.56-8.31-5.11-10.54c-2.56-2.24-5.03-5.05-7.51-6.16
		s-5.59-1.67-6.47-1.59c-0.88,0.08,0,0.72-2.64,0.56s-3.43-1.36-3.43,0.08c0,1.44-0.48,0.17,1.12,3.16c1.6,2.99-0.56,2.19,3.03,4.35
		c3.59,2.16,3.75,1.44,5.19,3.99s2.16,2.72,1.92,4.39c-0.24,1.68-0.72,3.43-0.08,4.71s-1.15,0.4,1.9,2.56s4.01,2.8,5.93,3.67
		c1.92,0.88,2.67,1.76,3.61,1.76s1.45-0.32,1.45-0.32L42.35,63.36z"/>
	<path class="st1" d="M43.62,71.1c0,0,1.12-0.32,1.92,1.36s1.28,4.63,2.08,4.23s1.68-2.32,0.72-3.75c-0.96-1.44-2.54-2.08-2.15-3.11
		s-0.71-3.19,0-3.75c0.71-0.56,1.03,3.35,3.66,4.55c2.64,1.2,2.4-0.18,3.51,0.75s1.68,4.91,2.64,5.36c0.96,0.44,2.81,0.68,3.92,0
		c1.11-0.68,2.87-3.14,3.35-5.14c0.48-2,2.48-6.71,0.96-9.75c-1.52-3.03-1.84-5.59-5.83-6.31s-6.47-1.36-10.22-0.72
		c-3.75,0.64-5.43,0.49-6.95,1.84c-1.52,1.35,0.08,5.38,0,6.16c-0.08,0.78,0.96,3.28,0.72,3.98S43.62,71.1,43.62,71.1z"/>
	<path class="st4" d="M52.01,67.83c-0.32-0.8,1.04-6.15-1.28-8.46s-5.03-3.91-5.27-2.71c-0.24,1.19-0.26,4.78-2.05,2.23
		c-1.78-2.55-0.75-3.03-2.43-5.03c-1.68-2-1.4-2.72-1.18-4.47c0.22-1.76,0.86-2.08,1.66-2.95s1.47-2.79,1.62-3.83
		c0.14-1.04,1.56-5.27,1.93-7.11c0.37-1.84-1.03-2.56,1.03-4.95s2.86-3.11,3.73-3.67s2-0.96,3.99,0c2,0.96,3.19,1.76,4.87,3.27
		c1.68,1.52,2.18,1.52,2.77,3.19c0.59,1.68,0.67,1.6,1.15,2.56c0.48,0.96,1.74,0.88,1.03,2.8c-0.71,1.92-0.79,2.24-0.79,3.43
		c0,1.2,1.12,4.71,1.68,5.67s-0.48,0.48,1.2,1.52c1.68,1.04,3.63,0.81,2.29,1.84c-1.33,1.03-3.09,1.83-4.93,4.15
		c-1.84,2.32-5.74,5.31-6.54,6.23c-0.8,0.92-1.6,1.51-1.76,3.11c-0.16,1.6,0.16,3.03,0,3.19C54.56,67.99,52.81,69.82,52.01,67.83z"
		/>
	<path class="st5" d="M49.77,95.7c-0.48-1.28-1.6-4.47-1.28-6.87c0.32-2.4-0.4-11.22-0.64-11.68s-0.88-1.66-0.48-1.74
		c0.4-0.08,0.43-1.12,1.13,0.56c0.7,1.68,1.31,7.6,1.76,9.39s0.89,5.84,0.8,6.68s0.45,0.81,0.01,1.98
		C50.65,95.19,49.77,95.7,49.77,95.7z"/>
	<path class="st6" d="M52.68,82.6c0.13-0.24-3.43-12.32-3.43-12.32s-1.33-4.93-2-5.16c-0.67-0.24-1.71-1.32-1.39,0.96
		c0.32,2.28,1.84,8.9,2,8.95s1.52,4.93,1.81,6.77s0.79,4.25,0.94,5.21s0.04,2.79,0.97,2.79s0.91,0.08,1.12-0.96
		S52.68,82.6,52.68,82.6z"/>
	<path class="st0" d="M53.43,88.67c0.55-1.04,2.17-11.24,3.37-13.65c1.2-2.4,3.19-10.79,3.51-11.63c0.32-0.84,1.54-3.55,1.54-3.55
		v1.68c0,0,1.45-2.32,2.31-3.51c0.86-1.2,4.29-4.15,4.85-4.63s0.64-0.32,0.56,0s0.38,0.18-2.71,3.85c-3.09,3.67-4.86,8.52-5.47,9.8
		c-0.61,1.28-3.57,10.3-3.65,11.82s-0.8,8.62-1.2,10.46c-0.4,1.84-0.32,3.35-0.8,4.55c-0.48,1.2,0.74,1.64-0.64,2.24
		c-1.38,0.59-2.02,0.72-2.24,0c-0.23-0.72-0.09-2.87-0.2-3.43C52.57,92.11,53.43,88.67,53.43,88.67z"/>
	<path class="st5" d="M50.27,96.58c0.7-0.88,1.58-13.1,1.66-15.33c0.08-2.24,2.24-18.05,0.32-21.4c-1.92-3.35-2.18-4.63-3.56-5.11
		c-1.39-0.48-3.06-1.76-2.82-1.76s4.07,0,5.11,2s1.9,2.95,2.07,2.72s-0.47-2.72-1.99-4.71c-1.52-2-2.02-2.55-3.59-3.83
		c-1.57-1.29-2.45-3.43-2.45-3.43s-0.11-0.77,2.37,1.81c2.48,2.58,2.94,2.76,4.19,3.31c1.24,0.55,2.46,2.39,2.46,2.39
		s-0.22-2.87,0-4.15c0.22-1.28-3.01-5.31-4.51-6.41c-1.5-1.1-3.58-4.23-3.58-4.22c0,0.01,1.84,0.89,2.87,2.21
		c1.04,1.32,1.59,2.11,2.75,3.15s2.46,0.96,2.46,0.96s0.37-1.26,0.3-2.15c-0.06-0.89,2.01-2.07-1.65-4.16
		c-1.48-0.85-2.32-1.46-2.82-1.92c-0.73-0.67-0.71-0.99-0.8-1.18c-0.16-0.32,2.64,0.93,2.87,1.1c0.24,0.18,0.54,0.29,0.95,0.35
		s0.76-1.32,1.14-1.51c0.38-0.19,0.62,0.13-0.73-2.98c-1.36-3.11-1.72-4.47-1.72-4.47s1.08,0.8,1.72,2.32
		c0.64,1.52,1.54,1.9,1.73,3.18s-0.06,0.89,0.1,1.77s-0.24,1.16,0,1.7c0.24,0.54-0.96,1.78,1.12,0c2.08-1.78,2.4-2.65,2.95-2.97
		c0.56-0.32,1.68,0.56-0.32,2.08c-2,1.52-2.32,1.84-2.64,2.16c-0.32,0.32-0.56,0-0.48,1.6c0.08,1.6,0.26,1.67,0.24,2.96
		c-0.02,1.29,0.16,2.55,0,3.11c-0.16,0.56,0.7,1.28,1.07-0.56c0.37-1.84,0.13-1.76,1.49-2.56s2.74-1.92,2.85-2.56
		c0.11-0.64,1.31-0.64-0.69,1.68c-2,2.32-0.88,2.8-1.76,4.31c-0.88,1.52-1.68,1.92-2.24,3.27s-0.56,1.46-0.56,2.13
		s-0.24,0.05,1.84-0.6c1.16-0.36,1.97-0.56,2.46-0.83c0.39-0.21,0.58-0.47,0.58-0.88c-0.01-0.93-2.88,2.5-3.68,3.14
		c-0.8,0.64-0.9,0.12-1.36,1.44s-0.24,2.96-0.24,2.96s0.15-0.27,1.91-1.25c1.76-0.99,2.64-1.21,3.54-1.77
		c0.91-0.55,0.96,0-1.01,1.31c-1.97,1.31-3.09,1.63-3.73,2.19c-0.64,0.56-0.24-0.24-0.72,1.2s-1.29,2.87-0.96,3.87
		c0.33,1,0.31,2.76,0.32,3.87c0,1.12-1.24,10.5-1.1,11.08c0.14,0.58-0.14,10.48,0,11.6c0.14,1.12,0.57,6.23,0,7.35
		c-0.57,1.12-1.14,2.87-1.14,2.87l-2.14-0.72L50.27,96.58z"/>
	<path class="st7" d="M61.14,67.68c0,0-0.96,9.49-1.21,10.77c-0.25,1.28-1.53,7.75-1.77,8.86s-1.76,4.15-1.76,4.15
		s-0.04-1,0.16-2.16c0.2-1.16,1.44-14.37,1.68-15.81S61.14,67.68,61.14,67.68z"/>
	<path class="st5" d="M53.43,98.97c0.73-0.64,5.12-3.83,6.16-7.51s2.64-10.7,3.51-13.34c0.88-2.64,2.4-7.51,3.27-8.54
		c0.88-1.04,2-0.79,4.15-0.83s2.15,0.51,3.75-0.36c1.6-0.88,1.75-0.61,0-0.71c-1.75-0.09-1.19-0.07-3.35,0
		c-2.16,0.07-4.2,0.41-3.82,0c0.38-0.41-0.41-1.13,2.06-3.53c2.48-2.4,3.43-3.67,3.43-3.67s0.31,0.72,1.67,0.56
		c0.6-0.07,1.37-0.37,2.05-0.69c0.85-0.4,1.55-0.82,1.55-0.82s-3.28,0.24-3.6,0c-0.32-0.24,0.04,0.24,0.66-1.6
		c0.62-1.84,2.93-6.15,2.93-6.15s-1.8,0.75-2.93,2.77s-2.82,3.46-3.69,4.97s-3.72,4.79-4.14,5.51c-0.41,0.72-0.89-0.96-0.97-1.64
		s-0.96-2.44-0.96-2.44s0.39,3.19,0.47,4.15s1.11,1.52,0,2.95c-1.11,1.44-2.49,3.94-2.64,4.31s-3.27,3.85-3.1,4.35
		c0.17,0.51-2.48,9.15-2.48,9.79S56.35,92.04,56,93.3c-0.35,1.26-1.98,2.75-2.22,3.29C53.55,97.13,53.43,98.97,53.43,98.97z"/>
	<path class="st6" d="M48.56,87.87c0.01-0.4-3.9-7.01-4.22-8.3c-0.32-1.28-0.93-2.35-0.93-2.35s-0.11,4.26,0.21,4.66
		s2.95,5.67,3.03,5.99c0.08,0.32-0.1,3.51,0.59,4.15s2.03,2.28,1.89,1.79C49,93.32,48.56,87.87,48.56,87.87z"/>
	<path class="st5" d="M49.29,98.97c0.01-1.04-4.78-6.55-4.78-8.39c0-1.84-1.4-12.78-1.42-13.02c-0.02-0.24-2.46-12.03-3.27-12.92
		c-0.82-0.89-4.95-2.01-5.12-2.49c-0.17-0.48,2.72,0.25,3.51,0s0.48-0.72-1.44-1.44c-1.92-0.72-2.95-1.84-2.95-1.84
		s2.8,1.04,3.03,0.56c0.24-0.48,0.48-1.92-1.04-3.83c-1.52-1.92-1.03-2.48-2.67-3.51s-3.8-1.66-3.8-1.66h2.24
		c0,0-0.56-1.94-2.24-3.37c-1.68-1.44-2.61-2.72-3.58-3.43c-0.97-0.72-3.85-2.99-3.85-2.99s1.12-0.12,1.92,0.6s3.51,2.87,3.99,3.19
		s0.8,0.64,0.8,0.64l-0.24-1.92c0,0,0.24,0.64,1.2,2.4c0.96,1.76,1.44,2.32,2.24,3.35c0.8,1.04,4.15,4.31,4.39,5.19
		c0.24,0.88,0.88,2,0.88,2l0.72-3.02c0,0,0.16,2.06,0.16,3.1s0.4,1.76,0.4,2c0,0.24,1.22,2.08,1.29,2.32
		c0.07,0.24,2.23,5.6,2.31,6.31c0.08,0.71,2.08,4.39,2.08,5.67c0,1.28,0.8,5.84,1.28,7.11c0.48,1.27,1.07,9.9,1.51,11.17
		s1.26,4.09,2.48,4.63c1.22,0.54,2.07,2.48,2.28,2.56s1.86,0.4,1.31,1.04c-0.55,0.64-1.1,0.72-1.62,0.8
		C50.73,99.85,49.29,98.97,49.29,98.97z"/>
</g>
</svg>
