<?xml version="1.0" encoding="utf-8"?>
<!-- Generator: Adobe Illustrator 23.1.1, SVG Export Plug-In . SVG Version: 6.00 Build 0)  -->
<svg version="1.1" id="Layer_1" xmlns="http://www.w3.org/2000/svg" xmlns:xlink="http://www.w3.org/1999/xlink" x="0px" y="0px"
	 viewBox="0 0 108 108" style="enable-background:new 0 0 108 108;" xml:space="preserve">
<style type="text/css">
	.st0{fill:#9BBD62;}
	.st1{fill:#778D39;}
	.st2{fill:#72AA42;}
	.st3{fill:#58883D;}
	.st4{fill:#4E7B39;}
</style>
<g>
	<path class="st0" d="M41.13,43.3c0.17,0.25-0.61,20.05,0.61,23.53c1.21,3.48,11.1,9.7,12.83,8.96c1.72-0.74,12.01-8.47,12.01-8.47
		s5.32-7.87,5.42-10.44c0.1-2.57-3.42-8.79-4.59-10.33c-1.18-1.54-1.04-5.09-7.15-5.51s-13.18,0.43-13.18,0.43L41.13,43.3z"/>
	<path class="st0" d="M43.73,48.86c0,0,0.26-1.59-0.57-2.06c-0.84-0.46-4.16-1.92-5.09-2.42c-0.93-0.49-1.44-1.25-1.69-2.12
		c-0.26-0.87-0.68-3.08-0.09-4.31c0.59-1.24,1.66-3.65,3.84-4.14c2.18-0.49,4.41-0.85,5.89-0.38s3.99,1.38,4.34,2.92
		c0.34,1.54-0.72,5.88-1.65,6.57s-1.61,1.5-2.17,2.31c-0.56,0.81-1.33,2.13-1.55,2.51S43.73,48.86,43.73,48.86z"/>
	<path class="st1" d="M46.19,54.85c-0.61,0.38-1.11,0.79-2.04,1.8c-0.93,1.01-0.99,3.61-2.74,4.72c-1.74,1.1-3.96,2.43-5.1,2.3
		c-1.14-0.13-2.86-0.32-4.33-2.55s-2.08-5.57-0.8-7.32c1.28-1.75,3.72-3.68,5.39-3.68s3.97-0.13,5.16,0.62
		c1.19,0.74,2.74,1.56,2.97,1.77c0.23,0.21,1.2,0.7,1.36,0.77C46.21,53.33,46.19,54.85,46.19,54.85z"/>
	<path class="st1" d="M50.46,71.21c-0.68,0.94-2.53,4.48-3.88,5.29s-3.13,1.46-5.89,0.54c-2.76-0.92-5.03-2.85-5.35-4.76
		c-0.32-1.91-0.01-4.59,0.47-5.49c0.48-0.89,1.23-2.44,3.63-2.93c2.4-0.49,3.23-1.24,4.85-0.96s4.13,1.08,4.13,1.08
		s2.85,1.72,2.77,2.03c-0.08,0.32-0.31,2.68-0.31,2.68L50.46,71.21z"/>
	<path class="st0" d="M58.52,56.33c0.08,0.19,2.42,2.24,3.17,2.28c0.75,0.04,0.27-0.69,2.87-0.91c2.59-0.22,4.41-0.97,6.33-0.26
		s5.13,3.13,5.21,4.17c0.09,1.04,0.18,4.61,0.11,5.08c-0.07,0.47-0.94,2.44-2.95,3.18c-2.01,0.74-3.08,0.92-4.99,0.54
		c-1.91-0.38-3.21-0.54-4.84-2.7c-1.63-2.15-2.21-5.38-2.37-5.9c-0.16-0.53-0.53-1.62-1.53-2.19c-1-0.57-1.13-0.76-1.13-0.76
		L58.52,56.33z"/>
	<path class="st0" d="M61.59,53.96c0.16-0.07,1.81-2.05,1.83-2.67c0.02-0.62-0.58-0.21-0.81-2.36c-0.23-2.15-0.89-3.63-0.34-5.24
		c0.55-1.6,2.5-4.31,3.35-4.4c0.86-0.09,3.82-0.24,4.21-0.19c0.39,0.05,2.04,0.73,2.69,2.39c0.65,1.65,0.82,2.54,0.54,4.13
		c-0.28,1.59-0.39,2.67-2.14,4.06c-1.75,1.39-4.41,1.94-4.84,2.08s-1.34,0.47-1.79,1.31c-0.45,0.84-0.61,0.96-0.61,0.96L61.59,53.96
		z"/>
	<path class="st2" d="M46.19,53.86c-0.09-0.19-2.53-2.11-3.28-2.11c-0.75,0-0.23,0.7-2.81,1.06c-2.58,0.35-4.35,1.2-6.3,0.59
		c-1.95-0.61-5.28-2.86-5.42-3.89c-0.14-1.03-0.42-4.6-0.38-5.07c0.05-0.47,0.81-2.49,2.78-3.33c1.97-0.84,3.03-1.08,4.96-0.8
		c1.92,0.28,3.24,0.38,4.97,2.44s2.49,5.25,2.67,5.77c0.19,0.52,0.61,1.59,1.64,2.11c1.03,0.52,1.17,0.7,1.17,0.7V53.86z"/>
	<path class="st3" d="M48.11,58.18c0,0,0-1.27-3.19-1.83c-3.19-0.56-5.02-1.22-6.71-0.33c-1.69,0.89-3.14,2.96-3,5.07
		c0.14,2.11,1.59,5.82,3.05,6.85c1.45,1.03,4.6,2.25,5.72,1.83c1.13-0.42,3.42-1.97,4.13-2.44s1.83-2.49,1.78-2.86
		c-0.05-0.38,0.1-2.2,0-2.53c-0.1-0.33-0.81-1.92-0.73-2.25S48.11,58.18,48.11,58.18z"/>
	<path class="st0" d="M52.71,66.95c-0.19,0.28-1.74,1.97-3.1,3.33c-1.36,1.36-3.75,3.38-3.89,5.25c-0.14,1.88-0.09,5.44,3.1,6.8
		c3.19,1.36,6.24,0.14,7.97-2.67c1.74-2.81,0.94-6.71,0-7.74c-0.94-1.03-1.08-1.22-1.59-1.74c-0.52-0.52-0.56-0.8-1.08-1.45
		C53.6,68.07,52.71,66.95,52.71,66.95z"/>
	<path class="st2" d="M59.37,63.19c0,0,0.23,1.59,1.17,1.78c0.94,0.19,4.55,0.56,5.58,0.75c1.03,0.19,1.75,0.75,2.26,1.5
		c0.51,0.75,1.59,2.72,1.4,4.08c-0.19,1.36-0.47,3.99-2.39,5.11s-3.94,2.16-5.49,2.16s-4.22-0.09-5.02-1.45
		c-0.8-1.36-1.1-5.82-0.43-6.76s1.08-1.92,1.36-2.86s0.62-2.44,0.71-2.86C58.62,64.23,59.37,63.19,59.37,63.19z"/>
	<path class="st3" d="M67.39,51.89c0.42-1.08,1.31-4.97,2.41-6.1s2.66-2.2,5.56-2.02s5.58,1.48,6.38,3.25s1.17,4.44,0.94,5.43
		c-0.23,0.99-0.57,2.67-2.77,3.75c-2.2,1.08-2.81,2.02-4.45,2.16s-4.27,0-4.27,0S68,57.42,68,57.1s-0.38-2.67-0.38-2.67L67.39,51.89
		z"/>
	<path class="st1" d="M54.71,35.85c-0.13-0.38-0.31-2.15-1.58-2.81s-3.01-0.56-3.97,0s-2.74,2.58-1.85,5.58
		c0.89,3,3.33,4.93,3.94,5.14c0.61,0.21,2.44,0.63,2.63,0.58c0.19-0.05,0.42-0.18,1.13-0.58c0.7-0.4,2.3-1.48,2.3-2.51
		S54.71,35.85,54.71,35.85z"/>
	<path class="st2" d="M56.89,47.02c0-0.72-0.08-1.36-0.43-2.68s-2.52-2.77-2.52-4.84s0.07-4.64,0.78-5.54s1.8-2.25,4.47-2.3
		c2.67-0.05,5.82,1.22,6.61,3.24c0.8,2.02,1.13,5.11,0.23,6.52c-0.89,1.41-2.02,3.42-3.28,4.03c-1.27,0.61-2.78,1.48-3.08,1.56
		c-0.3,0.08-1.23,0.64-1.38,0.74C58.15,47.85,56.89,47.02,56.89,47.02z"/>
	<path class="st4" d="M55.01,45.98c0-0.19,0.52-2.86-1.08-4.22s-2.56-2.67-4-2.3c-1.44,0.38-3.21,0.7-4.25,1.31
		c-1.04,0.61-2.21,1.64-2.68,2.63c-0.47,0.99-0.94,1.88-0.84,3.24c0.09,1.36,0.7,2.44,1.41,3.42c0.7,0.99,2.25,1.92,2.81,2.11
		c0.56,0.19,1.92,0.33,2.49,0.23c0.56-0.09,3.47-1.88,3.8-2.3c0.33-0.42,2.22-2.05,2.43-2.34S55.01,45.98,55.01,45.98z"/>
	<path class="st4" d="M53.93,59.86c-0.23,0.09-0.75,0.52-2.18,0.52s-2.65-0.33-3.1,1.03s-0.06,3.47,0.41,4.81
		c0.46,1.34,3.32,4.29,5.25,3.92c1.92-0.38,5.02-2.63,4.93-4.03c-0.09-1.41-0.38-3.03-0.52-3.39c-0.14-0.36-0.06-0.83-0.9-1.58
		c-0.84-0.75-0.84-1.31-1.59-1.27C55.48,59.91,53.93,59.86,53.93,59.86z"/>
	<path class="st1" d="M63.27,52.43c0.84-0.78,2.26-1.72,4.53-1.81c2.27-0.09,4.24,0.99,4.76,1.41c0.52,0.42,1.74,4.64,0,7.32
		c-1.74,2.67-4.13,4.1-7.22,3.37c-3.1-0.74-3.66-2.2-3.75-2.85c-0.09-0.65-0.52-2.77-0.38-3.66s-0.38-2.96,0.42-3.33
		S63.27,52.43,63.27,52.43z"/>
	<path class="st2" d="M51.75,54.94c-0.63-0.99-1.03-2.21-1.28-3.33c-0.25-1.13,0.12-2.11-1.31-2.06c-1.42,0.05-2.59,0.74-3.48,1.55
		c-0.9,0.8-1.13,1.46-0.99,2.44c0.14,0.99,0.48,1.54,0.99,2.98c0.51,1.43,2.18,3.83,2.52,3.92s0.85-0.1,1.42-0.57
		c0.56-0.47,1.27-1.55,1.27-1.87s0.42-1.14,0.87-1.23s1.57-0.37,1.57-0.37l-0.38-0.81L51.75,54.94z"/>
	<path class="st2" d="M58.43,56.49c0.75-0.66,2.13-1.78,2.73-1.78s1.16-0.22,1.54,0.88c0.38,1.09,0.55,3.08,0,4.28
		c-0.55,1.2-0.66,2.57-2.25,3.33c-1.59,0.77-3.78-0.19-4-1.27c-0.22-1.08-0.42-2.25-0.37-2.53c0.05-0.28,0.45-0.8,0.37-1.55
		c-0.08-0.75,0.39-1.31,0.57-1.55C57.21,56.06,58.43,56.49,58.43,56.49z"/>
	<path class="st1" d="M54.35,55.83c-0.33,0.14-2.86,0.47-3.14,0.66c-0.28,0.19-0.7,1.2-0.23,1.94c0.47,0.73,0.51,1.28,1.58,1.44
		c1.07,0.15,1.44,0.8,2.15,1.13s1.98,0.89,2.59,0.38c0.61-0.52,1.13-1.45,1.03-2.02s-0.38-1.22-0.8-1.59
		c-0.42-0.38-2.04-1.36-2.04-1.36L54.35,55.83z"/>
	<path class="st3" d="M57.31,48.28c0.14-0.56-0.44-2.86,0.51-3.52c0.95-0.66,2.17-1.02,3.1-0.42c0.94,0.61,2.96,4.12,3.14,4.73
		c0.19,0.61,0.61,2.96,0.28,3.71c-0.33,0.75-0.48,2.5-1.83,1.91c-1.35-0.6-1.45-0.87-1.97-1.11c-0.52-0.23-0.37-0.7-1.31-0.23
		c-0.94,0.47-1.41,1.45-1.93,0.84c-0.52-0.61-0.33-2.35-0.52-2.77C56.6,51,57.31,48.28,57.31,48.28z"/>
	<path class="st2" d="M58.06,52.12c0.09-0.28,1.41-1.13,1.17-2.58c-0.24-1.45-0.61-2.85-2.11-3.63s-1.34-1.2-3.28-0.22
		s-3.24,1.86-3.08,2.93s0.07,2.42,0.63,3.22s0.8,0.7,1.31,1.27c0.52,0.56,1.49,1.08,1.85,1.17c0.36,0.09,1.47,0.53,1.47,0.53
		s0.37-0.19,0.73-0.57S58.06,52.12,58.06,52.12z"/>
	<path class="st4" d="M54.21,51.7c0,0-1.56-0.89-1.83,0s0.19,2.2,0,2.63c-0.19,0.42-0.51-0.28-0.27,0.8
		c0.24,1.08,0.65,1.63,0.65,1.63s0.11,0.33,0.36,0.57s0.53,0.56,1.09,0.33c0.56-0.23,0.6-0.05,0.79,0.33s0.42,1.3,1.08,0.44
		c0.66-0.86,0.31-0.8,0.86-1.11c0.55-0.31,0.53,0.16,1.41-0.22c0.88-0.38,0.85,0.02,0.91-1.52c0.06-1.53,0.21-2.41-0.03-3.14
		c-0.24-0.73-0.77-1.68-1.42-1.35c-0.65,0.33-0.25,0.52-1.36,0.66s-1.29,0-1.29,0L54.21,51.7z"/>
</g>
</svg>
