<svg xmlns="http://www.w3.org/2000/svg" version="1.1" xmlns:xlink="http://www.w3.org/1999/xlink" xmlns:svgjs="http://svgjs.dev/svgjs" viewBox="0 0 108 108" style="" x="0" y="0"><style type="text/css">
	.st0{fill:#68782F;}
	.st1{fill:#587A36;}
	.st2{fill:#627438;}
	.st3{fill:#48591A;}
	.st4{fill:#879A2D;}
	.st5{fill:#8DBB3E;}
	.st6{fill:#CAD473;}
	.st7{fill:#9AB635;}
	.st8{fill:none;stroke:#68782F;stroke-width:1.628;stroke-miterlimit:10;}
	.st9{fill:#778B33;}
	.st10{fill:#959E38;}
	.st11{fill:#617337;}
	.st12{fill:#52632E;}
	.st13{fill:none;stroke:#48591A;stroke-width:1.3054;stroke-miterlimit:10;}
	.st14{fill:#8CAB3F;}
	.st15{fill:#9BBA37;}
	.st16{fill:#6A7C3E;}
	.st17{fill:none;stroke:#48591A;stroke-width:1.0616;stroke-miterlimit:10;}
	.st18{fill:#83B03C;}
	.st19{fill:#A3C16A;}
	.st20{fill:#68863F;}
</style><g><g>
	<path class="st0" d="M29.7,61.1c2.9-2.7,6.7-3.6,8.7-5.9c1.1-1.3,1.3-2.7,1.6-4.4c0,0,0.9-5.2,0.9-5.2c0.3-1.7,0.5-3.4,0.7-5.2
		c0.3-2.8,1.4-5.1,1.9-7.8c0.3-2.6,0.2-5.6,1.9-7.8c0,0,0.8,0.5,0.8,0.5c-2,3-0.8,6.9-2,10.2c-1.1,3.5-1.1,6.9-1.5,10.4
		c0,0-0.8,5.3-0.8,5.3c-0.3,4.6-2.5,6.9-6.3,8.9c-1.5,0.9-2.9,1.8-4,2.9L29.7,61.1L29.7,61.1z"></path>
</g><g>
	<path class="st1" d="M61.3,53.8c3.3-0.6,5.1-3.7,6.4-6.6c1.2-2.3,1.9-4.9,3.3-7.1c0.5-0.7,1-1.4,1.6-2.1l0.8,0.6
		c-0.5,0.7-1,1.4-1.5,2.1c-2.5,4.5-3,10.8-7.6,13.9c-0.8,0.5-1.6,0.9-2.7,1.2L61.3,53.8L61.3,53.8z"></path>
</g><g>
	<path class="st2" d="M81.2,60.5c-0.8-0.5-0.7-1.2-0.8-1.9c-0.3-2-0.4-3.9-0.4-5.9c0-4.5,0.2-10.9,0.1-15.4c0-2.6,0.6-5.2,0.2-7.6
		l1-0.2c0.6,2.6,0.1,5.2,0.2,7.8c0,0,0.2,7.7,0.2,7.7c0.1,4.5-0.3,8.9,0.4,13.3c0,0.6,0.4,1.1,0,1.9L81.2,60.5L81.2,60.5z"></path>
</g><g>
	<path class="st3" d="M56.2,94.6c-0.4,0.4-0.3,0.5-0.3,0.5c0,0,0,0,0-0.1c0.1-3.2-0.8-7.5-1-10.6c0,0,0-0.4,0-0.4c0,0,0,0,0,0
		c0-0.1-0.2-0.4-0.4-0.7c-2.8-4.2-6.6-8-10.5-11c-3.9-2.7-8.9-4.3-12.5-7.7c-1.3-1.2-2.1-2.8-2.7-4.4c-1.7-4.7-2.4-9.4-4-14
		c-1.2-3-2.7-5.9-3.5-9.1c-0.5-1.4-0.9-3.1-2-4.1c0,0,0.6-0.8,0.6-0.8c2.4,2.5,2.6,6.1,4,9c1.5,2.9,2.7,6,3.5,9.1
		c1.2,3.8,1.9,7.8,3.8,11.3c1.2,1.9,3.2,3.2,5.2,4.3c2.8,1.5,5.8,2.8,8.6,4.6c2.8,1.9,5.2,4.2,7.5,6.6c1.4,1.5,2.9,3.1,4,4.9
		c0.4,0.5,0.8,1.5,0.8,2.3c0.1,1.3,0.7,5.2,0.9,6.5c0.2,1.7,0.5,3.3,0.3,5c-0.1,0.2-0.1,0.5-0.6,1L56.2,94.6L56.2,94.6z"></path>
</g><g>
	<path class="st3" d="M55.3,86.2c-0.5-4.6,2.4-8.8,5.9-11.3c1.7-1.3,3.8-1.9,5.6-2.9c1.8-0.9,3.6-1.9,5.2-3c3.3-2.2,6.1-5.3,8.7-8.3
		c2-2.3,3.2-5.1,4.5-7.9c0.5-0.9,1.2-1.8,2-2.6l0.7,0.7c-1.5,1.3-2.1,3.2-2.9,5.1c-0.9,1.9-1.9,3.7-3.2,5.4
		c-2.7,3.2-5.3,6.5-8.8,8.9c-2.6,1.8-5.3,3.4-8.1,4.6c-2.6,1.2-4.9,3.4-6.2,5.7c-0.9,1.6-1.3,3.5-1.1,5.3L55.3,86.2L55.3,86.2z"></path>
</g><g>
	<path class="st3" d="M71,70.6c-2.7-4.7-5.9-9.1-9-13.6l-1.1-1.7c-1.2-1.8-1.9-4-1.9-6.1c-0.2-2.6,0-5.4-1.6-7.7
		c0,0,0.9-0.5,0.9-0.5c0.3,0.6,0.9,1.2,1.1,1.8c1.1,3.2,0.4,6.9,1.9,9.9c3.5,5.7,8.1,10.9,11.6,16.7C72.9,69.5,71,70.6,71,70.6
		L71,70.6z"></path>
</g><path class="st4" d="M32.3,32.7c-0.9,2-0.3,3-5.2,4.2c-5,1.2-5,1.2-5,1.2s-0.1-1.1-0.3-2.4c-0.2-1.3-1.3-5.9,2-8.1s5.5-3.1,6.2-3.2
	c0.8-0.2,3.1-1.3,3.8-1.5"></path><path class="st5" d="M77,35.8c-0.3,1.1,0.1,1.5-2.4,2.6c-2.5,1-2.5,1-2.5,1s-0.1-0.5-0.3-1.2c-0.2-0.6-1.1-2.9,0.4-4.3
	s2.6-2,2.9-2.2c0.4-0.1,1.5-0.9,1.8-1.1"></path><path class="st6" d="M50.2,22.2c-0.3,1.1,0.1,1.5-2.4,2.6s-2.5,1-2.5,1s-0.1-0.5-0.3-1.2c-0.2-0.6-1.1-2.9,0.4-4.3
	c1.5-1.4,2.6-2,2.9-2.2c0.4-0.1,1.5-0.9,1.8-1.1"></path><path class="st6" d="M81.6,25.1c0.5,1,1.1,1,0.1,3.5s-1,2.5-1,2.5s-0.5-0.3-1-0.6c-0.6-0.3-2.8-1.2-2.6-3.3s0.4-3.3,0.6-3.7
	s0.4-1.8,0.5-2.1"></path><path class="st4" d="M91.7,48.6c-0.4,1.1,0,1.6-2.6,2.3c-2.5,0.8-2.5,0.8-2.5,0.8s-0.1-0.6-0.2-1.2c-0.1-0.6-0.9-3,0.8-4.2
	c1.6-1.2,2.7-1.8,3.1-1.9c0.4-0.1,1.6-0.8,1.9-0.9"></path><path class="st7" d="M36.6,40.3c1.8,0.7,2.6,0.1,3.8,4.7s1.2,4.6,1.2,4.6s-0.9,0.2-2,0.4c-1.1,0.2-5,1.5-7-1.5s-2.9-5-3-5.6
	c-0.2-0.7-1.3-2.9-1.5-3.4"></path><path class="st7" d="M91,64.7c-1.8,0.5-2.1,1.5-5.7-1.4c-3.6-2.9-3.6-2.9-3.6-2.9s0.7-0.7,1.4-1.5c0.7-0.8,3.1-4.3,6.4-3.2
	c3.3,1.1,5.1,2.2,5.7,2.6c0.5,0.4,2.6,1.5,3.2,1.8"></path><path class="st7" d="M88.7,37.1c-1,1.1-0.9,1.9-4.4,1.4c-3.5-0.5-3.5-0.5-3.5-0.5s0.2-0.7,0.4-1.6s0.5-4.2,3.1-4.7
	c2.6-0.6,4.3-0.6,4.8-0.5c0.5,0.1,2.3-0.1,2.8-0.1"></path><path class="st5" d="M15,25.6c1.6,0.4,2.2-0.3,3.9,3.4s1.7,3.7,1.7,3.7s-0.8,0.3-1.7,0.6s-4,2-6.1-0.2c-2.1-2.2-3.1-3.8-3.4-4.3
	s-1.5-2.2-1.7-2.7"></path><path class="st5" d="M19,47.8c2-0.2,2.4-1.2,5.7,2.3s3.3,3.5,3.3,3.5s-0.8,0.6-1.7,1.4c-0.9,0.7-3.9,3.9-7.1,2.3
	c-3.2-1.7-5-3.1-5.5-3.6c-0.5-0.5-2.5-2-3-2.4"></path><path class="st8" d="M39.4,56.2c1.5,1.4,2.9,2.7,3.1,4c0.2,1.2,0.5,7.5,0.5,7.5"></path><path class="st4" d="M36,75.7c3.2,1.6,2.4,0.6,5.1,0.6c2.8,0,2.3,0,5.9-0.6c3.6-0.6,3.3-1,7-3.5c1-0.7,1.6-1.2,2-1.8
	c-0.4-1.3-0.9-2.5-1.9-3.1c-2.1-1.4-3.6-3.4-5.7-3.6c-2.1-0.2-6,0-6,0c-2.2,0.3-1.8,0.2-3.7,0.7c-2,0.5-4,1.4-5.3,3.2
	c-0.9,1.2-2.1,3-2.7,4.5C30.4,74.1,32.9,74.1,36,75.7z"></path><path class="st9" d="M33.6,80.4c2.4,1.4,5,3.4,8.2,3.5c3.2,0.1,8.9-1,10.5-2c1.7-1,4.4-3.7,4.3-6.6c-0.1-1.6-0.2-3.3-0.6-4.7
	c-0.4,0.5-1,1.1-2,1.8c-3.6,2.5-3.3,2.9-7,3.5c-3.6,0.6-3.2,0.7-5.9,0.6c-2.8,0-2,1-5.1-0.6c-3.1-1.6-5.6-1.6-5.3-3.6
	c-0.3,0.7-0.4,1.3-0.4,1.8C30.4,75.5,31.2,79,33.6,80.4z"></path><path class="st10" d="M42.4,65.3c-2.3,0-3.1-0.1-4.6,0.9s-4.3,2.4-4.6,3.9c-0.3,1.6-2.2,4-1.4,5.6s1.6,2.9,2.2,3.4
	c0.6,0.5,0.9,1.5,2.1,1.5c1.2,0,2.1-0.1,1-1s-2.2-1.1-2.1-3s1-3.4,1.1-4.8s1.1-2.9,1.5-3.6c0.4-0.7,1-1,1.9-1.3
	C40.3,66.6,42.4,65.3,42.4,65.3z"></path><g>
	<path class="st11" d="M41.6,65c-2.2,1.4-4.9,2.4-6.2,4.7c-1.4,2.8-3.7,6.6-1.6,9.5c0,0-0.3,0.2-0.3,0.2c-2.2-3.1,0-7,1.4-10
		c1.3-2.5,4.1-3.7,6.3-5.1C41.1,64.3,41.6,65,41.6,65L41.6,65z"></path>
</g><g>
	<path class="st3" d="M42.6,64.6c-0.2,0.3,0.1,1.2,0,1.7c0.2,1.7-0.7,3.1-1.5,4.5c-1.5,3.3-1.9,7.6,0,10.8c0,0-0.3,0.2-0.3,0.2
		c-2.6-4-1.6-9.4,0.6-13.4c0.6-1.3,0.1-2.6,0.1-3.9c0-0.3,0.2-0.7,0.5-0.8L42.6,64.6L42.6,64.6z"></path>
</g><g>
	<path class="st12" d="M44.1,65c1,4.2,3.1,8.1,3.9,12.4c0.3,1.3-0.2,3.1-0.5,4.3c0,0-0.3-0.1-0.3-0.1c0.2-1.2,0.7-2.9,0.3-4.2
		c-1-4.2-3.2-8-4.4-12.2C43.1,65.3,44.1,65,44.1,65L44.1,65z"></path>
</g><g>
	<path class="st3" d="M46,64.4c2.3,1.4,5.1,2.6,6.3,5.1c0.6,1.2,0.9,2.5,1.6,3.7c0.5,1.3,0.8,2.7,0.2,4.1c0,0-0.3-0.2-0.3-0.2
		c0.5-1.5,0-3.3-0.8-4.6c-0.9-2.1-1.7-4.4-3.9-5.5c-1.1-0.7-2.3-1.3-3.5-2L46,64.4L46,64.4z"></path>
</g><path class="st13" d="M44.3,30.5c1.4,1.3,2.6,2.5,2.8,3.6c0.2,1.1,0.5,6.9,0.5,6.9"></path><path class="st14" d="M41.3,48.5c2.9,1.5,2.2,0.6,4.7,0.6c2.5,0,2.1,0,5.4-0.6c3.4-0.6,3.1-0.9,6.4-3.2c0.9-0.6,1.5-1.1,1.8-1.6
	c-0.3-1.2-0.9-2.3-1.8-2.9c-1.9-1.3-3.4-3.1-5.3-3.3c-1.9-0.2-5.5,0-5.5,0c-2,0.3-1.6,0.2-3.4,0.7c-1.8,0.5-3.7,1.3-4.9,2.9
	c-0.8,1.1-1.9,2.7-2.4,4.1C36.1,47,38.4,47,41.3,48.5z"></path><path class="st9" d="M39,52.8c2.2,1.3,4.6,3.1,7.5,3.2c2.9,0.1,8.2-0.9,9.7-1.9c1.5-0.9,4.1-3.4,4-6.1c0-1.4-0.2-3-0.5-4.4
	c-0.4,0.5-0.9,1-1.8,1.6c-3.4,2.3-3.1,2.6-6.4,3.2c-3.4,0.6-2.9,0.6-5.4,0.6c-2.5,0-1.8,0.9-4.7-0.6c-2.9-1.5-5.1-1.5-4.9-3.3
	c-0.2,0.6-0.4,1.2-0.4,1.6C36.1,48.3,36.8,51.5,39,52.8z"></path><path class="st15" d="M47.2,38.9c-2.1,0-2.8-0.1-4.3,0.8c-1.5,0.9-4,2.2-4.3,3.6c-0.3,1.5-2,3.7-1.3,5.1s1.5,2.6,2,3.1
	s0.8,1.4,1.9,1.4c1.1,0,1.9-0.1,0.9-0.9c-1-0.8-2-1-1.9-2.7c0.1-1.7,0.9-3.1,1-4.4c0.1-1.3,1-2.6,1.4-3.3c0.4-0.7,0.9-0.9,1.7-1.2
	C45.2,40.1,47.2,38.9,47.2,38.9z"></path><g>
	<path class="st16" d="M46.4,38.6c-2.4,1.5-5.1,2.6-6.2,5.3c-1.1,2.3-2.7,5.4-1,7.8c0,0-0.3,0.2-0.3,0.2c-2.1-2.8,0-6.5,1.3-9.2
		c1.2-2.3,3.8-3.4,5.8-4.7C46,38,46.4,38.6,46.4,38.6L46.4,38.6z"></path>
</g><g>
	<path class="st3" d="M47.3,38.2c-0.2,0.3,0.1,1.1,0,1.6c0.1,1.5-0.7,2.9-1.4,4.1c-1.4,3-1.8,7,0,10c0,0-0.3,0.2-0.3,0.2
		c-2.4-3.7-1.5-8.7,0.6-12.3c0.5-1.2,0.1-2.4,0.1-3.6c0-0.3,0.2-0.6,0.5-0.7L47.3,38.2L47.3,38.2z"></path>
</g><g>
	<path class="st3" d="M48.7,38.6c1,3.9,2.8,7.5,3.6,11.4c0.3,1.2-0.2,2.8-0.5,4c0,0-0.3-0.1-0.3-0.1c0.2-1.1,0.7-2.7,0.3-3.9
		c-1-3.9-2.9-7.4-4.1-11.3C47.8,38.9,48.7,38.6,48.7,38.6L48.7,38.6z"></path>
</g><g>
	<path class="st3" d="M50.4,38c2.1,1.3,4.7,2.4,5.8,4.7c0.6,1.1,0.8,2.3,1.5,3.4c0.4,1.2,0.7,2.5,0.2,3.8c0,0-0.3-0.2-0.3-0.2
		c0.4-1.4,0-3-0.8-4.3c-0.8-2-1.6-4-3.6-5.1c-1-0.7-2.1-1.2-3.2-1.8L50.4,38L50.4,38z"></path>
</g><path class="st17" d="M66.8,52.4c1.1,1,2.1,2,2.3,3s0.4,5.6,0.4,5.6"></path><path class="st18" d="M64.3,67c2.4,1.2,1.8,0.5,3.8,0.5c2.1,0,1.7,0,4.4-0.5c2.7-0.5,2.5-0.8,5.2-2.6c0.7-0.5,1.2-0.9,1.5-1.3
	c-0.3-1-0.7-1.8-1.4-2.4c-1.5-1.1-2.7-2.5-4.3-2.7C72,57.9,69,58,69,58c-1.6,0.2-1.3,0.2-2.8,0.5c-1.5,0.4-3,1.1-4,2.4
	c-0.7,0.9-1.5,2.2-2,3.4C60.1,65.8,61.9,65.8,64.3,67z"></path><path class="st9" d="M62.4,70.5c1.8,1.1,3.8,2.5,6.1,2.6c2.4,0.1,6.6-0.8,7.9-1.5c1.3-0.8,3.3-2.8,3.2-5c0-1.2-0.1-2.4-0.4-3.5
	c-0.3,0.4-0.8,0.8-1.5,1.3c-2.7,1.8-2.5,2.1-5.2,2.6c-2.7,0.5-2.4,0.5-4.4,0.5c-2.1,0-1.5,0.7-3.8-0.5c-2.3-1.2-4.2-1.2-4-2.7
	c-0.2,0.5-0.3,1-0.3,1.3C60,66.9,60.6,69.5,62.4,70.5z"></path><path class="st19" d="M69,59.2c-1.7,0-2.3-0.1-3.5,0.7c-1.2,0.8-3.2,1.8-3.5,3c-0.2,1.2-1.6,3-1,4.2c0.6,1.1,1.2,2.1,1.6,2.5
	s0.7,1.1,1.5,1.1s1.6-0.1,0.7-0.8s-1.6-0.8-1.6-2.2c0.1-1.4,0.7-2.5,0.8-3.6s0.8-2.1,1.1-2.7c0.3-0.5,0.7-0.8,1.4-1
	C67.4,60.2,69,59.2,69,59.2z"></path><g>
	<path class="st20" d="M68.4,59c-2,1.2-4.2,2.1-5.1,4.3c-0.9,1.9-2.2,4.4-0.8,6.4c0,0-0.2,0.2-0.2,0.2c-1.5-2-0.3-4.7,0.6-6.7
		c0.8-2.3,3.2-3.4,5.1-4.6C68.1,58.5,68.4,59,68.4,59L68.4,59z"></path>
</g><g>
	<path class="st3" d="M69.2,58.7c-0.2,0.3,0.1,0.9,0,1.3c0.1,1.2-0.5,2.3-1.1,3.4c-1.1,2.5-1.4,5.7,0,8.1c0,0-0.2,0.2-0.2,0.2
		c-1.6-2.5-1.4-5.9-0.3-8.5c0.5-1,1.1-2,1-3.1c0-0.6-0.4-1.5,0.3-2C68.8,58,69.2,58.7,69.2,58.7L69.2,58.7z"></path>
</g><g>
	<path class="st3" d="M70.3,59c0.8,3.1,2.3,6.1,2.9,9.3c0.3,1-0.2,2.3-0.4,3.3c0,0-0.3-0.1-0.3-0.1c0.2-0.9,0.5-2.2,0.3-3.1
		c-0.8-3.2-2.4-6-3.3-9.2C69.6,59.2,70.3,59,70.3,59L70.3,59z"></path>
</g><g>
	<path class="st3" d="M71.7,58.5c1.7,1,3.8,1.9,4.7,3.9c0.7,1.9,2.1,3.8,1.4,5.9c0,0-0.2-0.1-0.2-0.1c0.3-0.8,0.1-2-0.3-2.8
		c-1-1.7-1.4-3.8-3.3-4.8c-0.8-0.5-1.7-1-2.6-1.5L71.7,58.5L71.7,58.5z"></path>
</g><path class="st7" d="M68.9,39.4c0.8,0.8,1.4,0.6,1.1,3.4c-0.3,2.7-0.3,2.7-0.3,2.7s-0.5-0.1-1.2-0.2c-0.6-0.1-3-0.3-3.5-2.4
	c-0.5-2-0.5-3.3-0.5-3.7s-0.1-1.8-0.1-2.2"></path><path class="st7" d="M52.4,33c-1.5,0.8-1.6,1.7-5.3-0.2s-3.7-1.9-3.7-1.9s0.5-0.7,1-1.6c0.5-0.9,2.1-4.4,5.2-4
	c3.1,0.4,4.9,1,5.5,1.3c0.6,0.3,2.6,0.9,3.1,1"></path><path class="st7" d="M75.7,53.9c-1.6,1-1.7,2-5.8,0.2c-4.1-1.8-4.1-1.8-4.1-1.8s0.5-0.8,1-1.8s2-4.9,5.4-4.7s5.4,0.7,6,1
	c0.6,0.3,2.9,0.7,3.5,0.9"></path><path class="st6" d="M41.8,25.9c1,0.4,1.5,0.1,2.2,2.7c0.7,2.6,0.7,2.6,0.7,2.6s-0.5,0.1-1.2,0.2c-0.6,0.1-2.9,0.8-4-0.9
	s-1.6-2.9-1.7-3.3c-0.1-0.4-0.7-1.7-0.8-2"></path></g></svg>