<?xml version="1.0" encoding="utf-8"?>
<!-- Generator: Adobe Illustrator 23.1.1, SVG Export Plug-In . SVG Version: 6.00 Build 0)  -->
<svg version="1.1" id="Layer_1" xmlns="http://www.w3.org/2000/svg" xmlns:xlink="http://www.w3.org/1999/xlink" x="0px" y="0px"
	 viewBox="0 0 49.1 47.5" style="enable-background:new 0 0 49.1 47.5;" xml:space="preserve">
<style type="text/css">
	.st0{fill:#F06456;}
	.st1{fill:#EF3B2C;}
	.st2{fill:#F58B4C;}
	.st3{fill:#EF5147;}
	.st4{fill:#E23A29;}
	.st5{fill:#7C8232;}
	.st6{fill:#858B2B;}
</style>
<g>
	<path class="st0" d="M19.1,19.1c1.8-1,3.7-0.7,5.7-0.3c2,0.3,4.5-0.4,5.5-0.3c1,0.1,2.6,0.7,3.6-0.6c0.5-0.8,0.7-1.8,0.9-2.8
		c-0.2-0.3-0.4-0.4-0.6-0.5c-0.5-0.3-1.6-0.6-1.9-1.1c-0.1-0.1-0.2-0.3-0.3-0.4c-0.8-0.2-1.6-0.4-1.8-0.4c-0.7-0.3-1-1-2.1-1.4
		c-1.1-0.3-3.3-0.5-4-0.3c-0.7,0.2-2.6,0.8-2.9,0.8c0.1,0,0.1,0,0.1,0c-0.1,0-0.1,0-0.1,0l0,0l0,0c-0.1,0-0.2,0-0.3,0
		c-0.8,0-1.7-0.1-2.8,0.4c-1.3,0.5-5.3,3.1-6,4.3c-0.4,0.6-1.1,1.9-1.8,3.2c0.8,0.5,1.6,1,2.5,1.2C14.7,21.2,17.3,20.1,19.1,19.1z"
		/>
	<path class="st1" d="M13,28.5c2,1.6,3.9,3.2,7.3,3c3.5-0.3,4.8-0.3,6.7-1c1.9-0.7,3.2-1,4.3-0.5c1.1,0.5,3,0.6,3.5-0.4
		c0.4-0.9,1.2-2.3,1.3-4.3s0.9-3.5,1.1-2.2c0.2,1.3-0.4,5.2,0,5.3c0.4,0.1,2.5-3.3,1.2-5.5c-1.2-2.2-2.2-5.3-2.5-6
		c-0.2-0.5-0.7-1.3-1.1-1.8c-0.2,1.1-0.4,2.1-0.9,2.8c-0.9,1.3-2.7-0.8-3.8-0.9c-1-0.1-3.3,2.1-5.3,1.8s-4-0.6-5.7,0.3
		c-1.8,1-4.4,2-6.4,1.6c-0.9-0.2-1.8-0.7-2.5-1.2c-0.6,1.3-0.9,2.5-0.8,3.4c0.2,1,0.3,2.9,0.8,4.8C10.8,27.6,11.7,27.4,13,28.5z"/>
	<path class="st2" d="M24.8,12.7c-0.9,0.3-1.7,1.2-2.6,1.1c-0.9-0.1-1.6-0.6-1.8,0.1c-0.2,0.7-0.9,1.1-1.3,1c-0.4-0.1-0.8,0.3,0,0.4
		c0.8,0.1,1.8-0.4,1.8,0c-0.1,0.4-0.8,0.3-1,1.2c-0.3,0.8-0.6,1.8,0,1.2s0.6-1.8,1.9-1.8c1.3,0.1,1.3,0.4,1.9,0.8
		c0.6,0.4,0.8-0.7,1.3-0.1c0.4,0.6,1,2.5,1.3,1.7c0.3-0.8-2.1-2.4-1.3-2.7s2.1-1,2.5-0.5c0.3,0.5,0.8,1.1,0.9,0.5
		c0.3-0.6,1.2-0.4,1.6-0.6c0.4-0.2-0.3-1.1,0-1.3c0.3-0.1,0.8-0.9-0.2-0.7c-1,0.3-2.1,0.9-2.9,0.4C26,13.1,24.8,12.7,24.8,12.7z"/>
	<path class="st2" d="M25.1,19.8c0.3,0.5,0.8,2.5,0.3,3.8c-0.4,1.3-0.9,2.6-1.3,2.2c-0.3-0.4-1.8-2.1-1.4-3.4
		c0.3-1.3,0.8-3.6,1.4-3.3C24.7,19.6,25.1,19.8,25.1,19.8z"/>
	<path class="st3" d="M12.4,19.5c-0.4,0.3-1.3,1.2-1.2,2c0.1,0.8-0.9,1.2-0.9,0.8c-0.1-0.5,0.1-0.3,0.1,0.5c0.1,0.8,0,2.8,0.9,3.2
		c0.9,0.4,1.8,1.4,2.7,1.2c0.9-0.3,1.4-1.7,2-2c0.5-0.3,1.9-0.1,2.6-0.3c0.8-0.2,1.9-0.4,1.6-1.5c-0.3-1.1,0.4-2-0.8-3.1
		c-1.1-1.1-1.4-1.3-2.5-1.1c-1.1,0.3-1.8,1.1-2.5,0.6C13.7,19.3,12.4,19.5,12.4,19.5z"/>
	<path class="st2" d="M31,13.9c0.3,0.3,3.3,1.1,3.6,1.9c0.3,0.8,0.5,3.2-0.8,2.7c-1.3-0.5-2.6-1.6-3.6-1.1c-0.9,0.5-2.6,0.6-2.7,0.3
		c-0.1-0.3-1.6-0.9-1.1-1.2c0.5-0.3,2.7-0.3,3-0.5c0.3-0.3,0.8-0.6,0.9-0.9S31,13.9,31,13.9z"/>
	<path class="st2" d="M17.7,13.4c-0.3,0.1-1.2,0.6-1.5,0.9c-0.3,0.3-1.5,0.8-1.5,0.8s-0.9,2-0.5,1.9c0.4-0.1,1.7-0.5,1.1,0.3
		c-0.6,0.8-0.7,1.6,0.3,0.9s2.5-2.1,2.5-2.3c0.1-0.1-0.9-0.3-0.9-0.7c-0.1-0.4,0.5-0.5,0.6-0.8C17.8,14.1,17.7,13.4,17.7,13.4z"/>
	<path class="st2" d="M19.1,12.7c0.3-0.3,1.1-0.6,2.1-0.8c1-0.2,2.2-1,3.3-0.8c1.1,0.2,2.6,0.2,3.1,0.4c0.6,0.3,1.8,1.1,1.6,1.2
		c-0.2-0.1-0.1,0-1.6,0.2s-3.5-0.3-5.2,0c-1.6,0.3-1.5-0.1-2.3,0.1C19.4,13.2,19.1,12.7,19.1,12.7z"/>
	<path class="st4" d="M26.3,37.5c6-0.6,9.2-3.9,10.1-4.7c0.9-0.8,3.9-8.2,3.9-9.9c0-1.6-2.8-7.6-4.3-8.6c-0.3-0.2-0.6-0.3-1-0.5
		c-0.1,0.4-0.1,0.8-0.2,1.1c0.5,0.5,1,1.3,1.1,1.8c0.3,0.8,1.2,3.8,2.5,6c1.2,2.2-0.8,5.6-1.2,5.5s0.2-4,0-5.3s-1,0.1-1.1,2.2
		c-0.1,2-0.9,3.3-1.3,4.3c-0.4,0.9-2.3,0.8-3.5,0.4c-1.1-0.5-2.5-0.1-4.3,0.5c-1.9,0.7-3.2,0.8-6.7,1c-3.5,0.3-5.4-1.3-7.3-3
		c-1.3-1.1-2.2-0.9-2.8-0.8c0.3,1.4,0.8,2.8,1.6,3.9C13.5,34.1,20.5,38.1,26.3,37.5z"/>
	<path class="st2" d="M32.3,13.5c0.3,0.5,1.4,0.8,1.9,1.1c0.2,0.1,0.4,0.3,0.6,0.5c0.1-0.4,0.1-0.8,0.2-1.1c-0.9-0.4-2-0.7-3-0.9
		C32.1,13.2,32.2,13.4,32.3,13.5z"/>
	<path class="st5" d="M21.4,16.3c-0.4-0.3-3-5.6-4.2-6s-1.2-0.8-1.2-0.8s4.6,3.6,4.8,4.2c0.3,0.5,1.2,2.3,1.4,2.1
		c0.3-0.2,1.1-0.2,1-1c-0.1-0.8,0.6-5.5,0.8-6.4c0.2-0.8,0.1,4.3,0.3,4.6c0.1,0.3,0.4,1.4,0.5,1.6c0.1,0.1,0.5,0.9,0.5,0.9
		s0.6-0.9,0.8-2.1s3.4-4.9,4.1-4.6C30.6,8.9,31,8.6,31,8.6s-1.1,1-1.6,1.8c-0.5,0.7-2.1,2.7-2.1,3s-0.3,0.4,0,0.3
		c0.3,0,1.4-2.7,2-2.8c0.6-0.1,0.1,0.7-0.3,1c-0.4,0.3-2.3,3.7-2.5,3.8c-0.1,0.1-1.3,0.6-1.9,0.9c-0.6,0.4-1.2,0.4-1.5,0.3
		C22.8,16.7,21.4,16.3,21.4,16.3z"/>
	<path class="st6" d="M21.2,15.6c-0.4-0.3-3.5-5.4-4.7-5.9c-1.2-0.4-1.3-0.8-1.3-0.8s5.2,3.5,5.4,4c0.3,0.5,1.2,2.3,1.4,2.1
		c0.3-0.2,1.1-0.2,1-1c-0.1-0.8,0.9-5.4,1.1-6.3s-0.1,4.2,0,4.5c0.1,0.3,0.4,1.5,0.6,1.6c0.1,0.1,0.5,0.9,0.5,0.9s0.6-1,0.9-2.1
		c0.3-1.1,4-4,4.3-4.2c0.3-0.2,1.3,0.1,1.3,0.1s-1.8,0.3-2.3,1c-0.6,0.7-2.2,2.6-2.2,3s-0.3,0.4,0,0.3c0.3,0,1.8-2.4,2.4-2.5
		c0.6-0.1,0.2,0.4-0.3,0.8c-0.4,0.3-2.8,3.6-2.9,3.7S25,15.6,24.4,16s-1.2,0.4-1.5,0.3C22.6,16.1,21.2,15.6,21.2,15.6z"/>
</g>
</svg>
