<?xml version="1.0" encoding="utf-8"?>
<!-- Generator: Adobe Illustrator 23.1.1, SVG Export Plug-In . SVG Version: 6.00 Build 0)  -->
<svg version="1.1" id="Layer_1" xmlns="http://www.w3.org/2000/svg" xmlns:xlink="http://www.w3.org/1999/xlink" x="0px" y="0px"
	 viewBox="0 0 108 108" style="enable-background:new 0 0 108 108;" xml:space="preserve">
<style type="text/css">
	.st0{fill:#D2B482;}
	.st1{fill:#B9A5BD;}
	.st2{fill:#DFC8DB;}
	.st3{fill:#58883D;}
	.st4{fill:#567E39;}
	.st5{fill:#778D39;}
	.st6{fill:#4E7B39;}
	.st7{fill:#9BBD62;}
</style>
<g>
	<path class="st0" d="M40.76,65.68c0,0,0.57,3.33,1.1,4.74c0.53,1.41,0.56,3.47,0.25,4.79s-0.72,2.55-1.17,4.58
		c-0.44,2.04-0.39,3.62-0.14,4.47c0.25,0.84,0.11,0.76,0.48-0.72c0.37-1.48,0.39-4.36,0.72-5.22c0.34-0.86,1.39-2.86,1.39-2.86
		s0.96,0.78,1.49,1.32c0.53,0.54,1.03,1.49,2.98,1.7c1.95,0.21,3.24,0.6,3.39,0.47c0.15-0.12-2.52-0.66-3.01-0.89
		c-0.48-0.22-1.89-1.64-2.74-2.05c-0.85-0.42-1.98-1.81-2.11-2.16c-0.13-0.35-0.74-3.97-0.74-4.49c0.01-0.52-0.22-2.38-0.29-2.56
		C42.32,66.63,40.76,65.68,40.76,65.68z"/>
	<path class="st0" d="M50.68,58.36c0,0-0.55,2.82-0.46,3.79c0.09,0.97-0.64,5.46-0.5,7.08c0.14,1.62-0.65,4.72-0.87,5.74
		s-2.16,4.62-1.77,5.21c0.39,0.59,0.29,1.23,0.77,2.06c0.48,0.82,1.28,1.73,0.93,0.79c-0.35-0.94-0.91-2.07-1.04-2.42
		c-0.13-0.35,1.2-3.59,1.64-5.1c0.44-1.5,0.25-4.17,0.65-5.06c0.4-0.89,0.05-2.36,0.48-2.12c0.43,0.24,2.74,0.89,2.73,0.51
		c-0.01-0.39-0.15-0.4-0.52-0.67c-0.37-0.26-1.74-0.89-1.79-1.21c-0.05-0.32,0.09-2.44,0.13-3.06c0.04-0.62-0.01-1.27,0.16-1.73
		c0.16-0.46,0.81-1.69,0.77-1.68c-0.03,0,0.23-0.63,0.1-0.99C51.98,59.15,50.68,58.36,50.68,58.36z"/>
	<path class="st0" d="M64.72,71.05c-0.6,1.09-0.35,0.87-0.38,2.75c-0.03,1.89,0.15,2.55,1.12,4.6c0.97,2.05,2.23,2.98,2.22,3.39
		c0,0.4-2.49-2.68-2.63-3.04c-0.13-0.35-0.93-1.55-0.93-1.55s-0.29,0.8-0.4,2.11s-0.03,1.35,0.05,2.46
		c0.08,1.11,0.61,1.38,0.08,2.51s-0.17,1.2-1.03,1.86c-0.86,0.65-1.56,1.45-1.56,1.45s0.5-0.99,0.8-1.44
		c0.3-0.45,0.51-1.53,0.86-1.93c0.35-0.4,0.18-1.01,0.14-1.39c-0.04-0.39-0.63-3.05-0.22-3.93c0.4-0.89,0.52-2,0.49-2.46
		s-0.05-1.52-0.05-1.52S62.4,75.6,62.42,76c0.01,0.4-0.28,1.58-0.61,1.77c-0.33,0.19-0.04-1.19,0.05-1.49
		c0.09-0.3-0.04-1.19,0.32-1.66s0.67-0.76,0.6-1.03c-0.07-0.27-0.18-1.61,0.19-1.88S64.72,71.05,64.72,71.05z"/>
	<path class="st1" d="M57.33,47.84c0.93,2.39,1.04,4.95,0.71,5.68c-0.64,1.45-2.77,2.97-3.88,3.52c-1.11,0.55-2.99,0.24-3.79-0.26
		c-0.81-0.5-1.1-0.86-2.77-2.98c-1.1-1.4-1.35-3.7-1.33-5.41c-0.53,0.49-0.95,0.97-1.08,1.37c-0.38,1.14-1.15,5.52,0.74,7.55
		c1.9,2.04,2.23,2.38,3.2,2.82c0.97,0.44,3.3,0.58,4.75-0.1c1.45-0.68,4.27-2.47,5.23-4.03C59.77,54.94,59.74,50.48,57.33,47.84z"/>
	<path class="st2" d="M47.6,53.81c1.67,2.12,1.96,2.48,2.77,2.98c0.81,0.5,2.68,0.81,3.79,0.26c1.11-0.55,3.23-2.08,3.88-3.52
		c0.33-0.73,0.22-3.29-0.71-5.68c-1.09-1.2-2.68-2.02-4.91-1.97c-0.49,0.01-1.91,0.04-3.02,0.46c-0.73,0.27-2.13,1.16-3.12,2.07
		C46.26,50.11,46.5,52.41,47.6,53.81z"/>
	<path class="st1" d="M71.77,59.99c-0.46-0.69-1.52-1.2-2.6-1.55c0.08,0.09,0.14,0.17,0.2,0.26c1.33,2.17,1.22,4.85,0.76,6.34
		c-0.21,0.68-1.24,2.77-4.79,4.04c-3.55,1.27-5.25-2.57-5.65-3.04c-0.46-0.53-1.9-3.85-1.9-6.38c0-0.24,0.03-0.46,0.09-0.66
		c-1.23,0.8-2.14,1.67-2.23,2.99c-0.19,3.08,1.57,7.03,2.17,7.65c0.53,0.54,2.6,5.1,7.61,3.29c5.01-1.8,6.59-4.43,6.93-5.26
		C73.1,65.81,73.45,62.55,71.77,59.99z"/>
	<path class="st2" d="M59.68,66.04c0.4,0.47,2.1,4.31,5.65,3.04c3.55-1.27,4.58-3.36,4.79-4.04c0.46-1.49,0.57-4.17-0.76-6.34
		c-0.06-0.09-0.12-0.18-0.2-0.26c-1.22-0.4-2.44-0.61-2.78-0.66c-0.64-0.1-3.19-0.48-3.19-0.48s-1.32-0.69-3.4,0.55
		c-0.67,0.4-1.33,0.77-1.92,1.15c-0.06,0.2-0.09,0.42-0.09,0.66C57.78,62.19,59.22,65.51,59.68,66.04z"/>
	<path class="st1" d="M45.6,63.13c-1.91,0.87-6.57,1.05-7.41,0.48c-0.84-0.57-2.59-3.61-2.11-5.09c0.09-0.29,0.24-0.58,0.42-0.86
		c-1.62,0.85-2.81,2.2-3.25,3.52c-0.63,1.91,1.63,5.81,2.71,6.55c1.08,0.74,7.08,0.5,9.54-0.62c2.46-1.12,2.11-4.4,1.92-5.8
		c-0.03-0.22-0.13-0.47-0.27-0.72C47.07,61.6,46.69,62.64,45.6,63.13z"/>
	<path class="st2" d="M38.88,56.87c-0.86,0.13-1.66,0.41-2.37,0.79c-0.18,0.28-0.33,0.57-0.42,0.86c-0.49,1.48,1.27,4.51,2.11,5.09
		c0.84,0.57,5.5,0.39,7.41-0.48c1.09-0.49,1.47-1.53,1.56-2.54c-0.73-1.33-2.73-2.9-3.43-3.26C42.91,56.91,39.32,56.81,38.88,56.87z
		"/>
	<g>
		<path class="st3" d="M72.26,48.35c0.25-0.03,0.42-0.28,0.93,0.19c0.51,0.47,0.78,0.95,1.78,0.98c1,0.04,1.04-0.15,1.48-0.49
			c0.43-0.34-0.15-0.62,0.61-0.79c0.76-0.17-0.74-1.53-1.08-1.8c-0.35-0.27-0.72-0.43-0.91-0.47s-1.48-0.31-1.48-0.31
			s-0.4,1.13-0.54,1.22c-0.14,0.09-0.92,0.9-0.92,0.9L72.26,48.35z"/>
		<path class="st4" d="M69.71,40.13c0-0.2,0.86-1.81,0.56-2.68c-0.31-0.87,0.08-1.77-0.16-2.54c-0.24-0.78-0.89-1.76-1.13-2.38
			s-0.36-0.8-1.24-1.03s-1.73-0.24-2.18-0.21s-0.85-0.18-1.12,0.13c-0.27,0.31-0.26,0.67-0.45,0.6c-0.19-0.08-0.45-0.58-0.93-0.4
			c-0.48,0.18-1.2,0.52-1.37,0.73c-0.16,0.21-0.5,0.87-0.58,1.05c-0.08,0.19-0.65,1.16-0.31,1.51s2.14,1.78,2.55,2.15
			c0.41,0.37,1.43,1.67,1.91,2.14c0.47,0.46,2.03,1.72,2.41,1.84C68.04,41.16,69.71,40.13,69.71,40.13z"/>
		<path class="st5" d="M68.72,41.99c0,0,1.88,1.28,2.05,1.76c0.16,0.48,0.12,1.68-0.14,2.32c-0.25,0.64-1.41,1.69-1.77,1.98
			c-0.36,0.29-0.09,0.39-0.9,0.58c-0.81,0.2-1.24,0.35-1.73,0.45c-0.49,0.1-0.96-0.2-1.35-0.28s-1.39-0.33-2.14-1.01
			c-0.75-0.68-1.62-1.55-1.83-2.49s-0.06-3.62,0.77-3.73c0.83-0.11,1.77-0.16,2.3,0.03c0.53,0.19,2.37,0.9,2.66,0.84
			S68.72,41.99,68.72,41.99z"/>
		<path class="st3" d="M70.28,50.29c0.2,0-0.13-0.37,1.34,0c1.46,0.38,1.83,0.53,1.67,0.94c-0.17,0.41-0.54,0.64-1.59,0.82
			c-1.05,0.18-1.51,0.24-1.79,0.06c-0.29-0.18-0.61-0.56-0.61-0.56L70.28,50.29z"/>
		<path class="st3" d="M68.63,52.58c0,0,0.69,0.39,0.76,0.64c0.07,0.26,0.17,0.56-0.12,0.58s-0.43-0.05-0.56-0.12
			c-0.13-0.07-0.39-0.6-0.39-0.6l0.08-0.39L68.63,52.58z"/>
		<path class="st6" d="M65.32,58.77c-0.09-0.34,0.97-2.51,1.19-3.19c0.22-0.68,2.8-3.79,3.06-4.26s2.25-2.37,2.26-2.57
			c0.02-0.2,0.98-0.58,1.19-1.39c0.21-0.81,0.56-1.93,1.18-2.17c0.62-0.24,0.97-0.16,1.59-0.24c0.62-0.07,2.42-0.55,2.42-0.55
			s1.17-0.77,1.29-1.55s0.11-1.31,0.28-2.33c0.17-1.02,0.25-1.41,0.36-1.91s0-1.38-0.23-1.99s-0.28-1.56-0.8-1.79
			c-0.52-0.23-1.34-0.56-1.86-0.39c-0.52,0.18-1.36,0.29-1.92,0.45c-0.56,0.17-1.68,0.46-2.13,0.69c-0.45,0.23-0.92,0.34-1.78,1.01
			c-0.87,0.67-0.97,1.18-0.85,1.97s0.3,1.32,0.43,1.67c0.13,0.35-0.86,0.31-1.18,0.44c-0.32,0.14-0.68,0.31-0.71,0.66
			c-0.03,0.36,0.51,0.47,0.9,0.92c0.39,0.45,1.1,0.92,1.53,1.37s1.14,0.84,1.02,1.67c-0.12,0.83-0.17,1.31-0.3,1.9
			c-0.12,0.6-0.89,1.53-1.41,1.91c-0.52,0.38-3.08,3.54-3.26,3.82c-0.18,0.28-1.44,1.8-1.51,2.07c-0.07,0.27-1.19,2.75-1.28,2.97
			c-0.09,0.22-0.36,0.98-0.31,1.51s0.44,0.62,0.58,0.53S65.32,58.77,65.32,58.77z"/>
		<path class="st3" d="M70.5,48.6c0,0-3.2,3.99-3.38,4.24s-2.05,4.49-2.19,4.81c-0.14,0.33-0.58,2.26-0.66,2.45
			c-0.08,0.19-0.14,0.34-0.36,0.13s-0.28-0.17-0.22-0.43c0.05-0.26,2.97-7.1,3.07-7.37c0.1-0.26,1.48-2.04,1.78-2.51
			c0.3-0.46,1.35-1.83,1.49-1.92s0.63-0.11,0.63-0.11l0.05,0.75"/>
		<path class="st7" d="M72.13,47.8c0,0-0.42-1.34-1.1-1.77c-0.68-0.42-1.26-1.11-1.55-0.73c-0.28,0.39-0.95,1.26-0.78,1.62
			c0.17,0.36,0.43,1.11,0.59,1.43c0.16,0.32,0.28,0.58,0.71,0.86s1.09,0.37,1.05,0.06c-0.04-0.31,0.91-0.3,0.81-0.72
			S72.13,47.8,72.13,47.8z"/>
		<path class="st3" d="M64.65,60.44c0-0.52-0.31-3.37-0.22-4.2c0.09-0.83,0.85-4.28,0.96-4.62c0.11-0.34,0.16-0.61,0.73-0.98
			c0.57-0.37,1.68-0.99,1.92-1.38c0.24-0.4,0.73-0.36,0.63-1s0.08-1-0.12-1.45c-0.2-0.45-0.09-0.59-0.7-0.79s-1.03,0.28-1.02-0.57
			c0.01-0.85-0.46-1.48,0.01-1.99c0.47-0.51-0.05-0.5,1.59-1.01c1.64-0.51,2.46-0.78,2.38-1.37c-0.08-0.59,0.56-0.94-0.33-1.12
			c-0.89-0.19-0.77-0.2-1.17-0.24c-0.39-0.04-0.33,0.25-0.35-0.44s0.94-1.02-0.17-0.93c-1.11,0.09-1.56,1.09-2.1,0.74
			c-0.53-0.35-0.8-0.61-0.45-1.15c0.35-0.53,1.55-0.57,1.23-1.53c-0.31-0.96,0.42-1.37-0.82-2.03c-1.24-0.66-2.22-0.82-2.93-0.89
			c-0.71-0.07-2.35,0.12-2.86,0.18c-0.51,0.06-2.08,0.22-2.25,0.42s-0.68,0.55-0.2,0.97c0.48,0.42,0.26,0.13,2.14,1.21
			c1.88,1.08,2.15,1.34,2.54,1.82s0.62,0.74,0.83,1.06s0.6,0.61-0.1,0.3c-0.71-0.31-1.24-1.27-1.32-0.88s-0.02,0.48-0.17,0.82
			c-0.15,0.33-0.68,0.35-0.19,0.73c0.49,0.38,0.21-0.07,0.84,0.66s1.37,0.62,1.82,1.11c0.44,0.49,0.82,0.65,0.59,0.96
			c-0.23,0.32-0.03,0.52-0.95,0.29c-0.92-0.23-1.22-0.74-1.44-0.26c-0.22,0.48-0.64,0.72-0.11,1.52s0.06,2.04,1.14,2.1
			c1.08,0.06,1.7-0.38,1.63,0.34c-0.07,0.71-0.15,0.94-0.16,1.14c0,0.2-1.24,4.81-1.24,4.81s-0.37,2.39-0.51,2.84
			c-0.14,0.46-0.24,1.53-0.18,2.03c0.06,0.5,0.42,1.1,0.31,1.24c-0.11,0.14-0.09,0.91,0.04,1.3C64.04,60.62,64.65,60.44,64.65,60.44
			z"/>
	</g>
	<g>
		<path class="st3" d="M46.59,33.73c-0.25-0.08-0.37-0.37-0.99,0c-0.62,0.37-0.99,0.8-2.03,0.63c-1.04-0.17-1.04-0.38-1.41-0.81
			c-0.37-0.44,0.29-0.6-0.46-0.93c-0.75-0.33,1.08-1.41,1.49-1.62s0.83-0.29,1.04-0.29c0.21,0,1.57,0,1.57,0s0.17,1.24,0.29,1.37
			c0.12,0.12,0.75,1.12,0.75,1.12L46.59,33.73z"/>
		<path class="st4" d="M50.93,25.86c0.04-0.21-0.5-2.03,0-2.86s0.29-1.82,0.71-2.57s1.28-1.62,1.66-2.2
			c0.37-0.58,0.54-0.75,1.49-0.79c0.95-0.04,1.82,0.12,2.28,0.25c0.46,0.12,0.91,0,1.12,0.37c0.21,0.37,0.12,0.75,0.33,0.7
			c0.21-0.04,0.58-0.5,1.04-0.21s1.12,0.79,1.24,1.04c0.12,0.25,0.33,0.99,0.37,1.2s0.41,1.33,0,1.62s-2.57,1.37-3.06,1.66
			c-0.5,0.29-1.82,1.41-2.4,1.78c-0.58,0.37-2.44,1.33-2.86,1.37C52.43,27.27,50.93,25.86,50.93,25.86z"/>
		<path class="st5" d="M51.56,27.98c0,0-2.2,0.91-2.47,1.37c-0.27,0.46-0.48,1.7-0.35,2.4s1.08,2.03,1.39,2.4s0.01,0.41,0.8,0.79
			c0.79,0.37,1.19,0.62,1.67,0.83c0.48,0.21,1.02,0,1.44,0s1.49-0.04,2.4-0.58s1.99-1.24,2.4-2.15c0.41-0.91,0.83-3.69,0-3.98
			c-0.83-0.29-1.78-0.54-2.36-0.46c-0.58,0.08-2.61,0.41-2.9,0.29S51.56,27.98,51.56,27.98z"/>
		<path class="st3" d="M48.2,36.14c-0.21-0.04,0.21-0.35-1.37-0.28s-1.99,0.16-1.91,0.61s0.41,0.77,1.45,1.17
			c1.04,0.4,1.49,0.57,1.82,0.44c0.33-0.12,0.75-0.44,0.75-0.44L48.2,36.14z"/>
		<path class="st3" d="M49.41,38.83c0,0-0.79,0.25-0.91,0.5s-0.29,0.54,0,0.62c0.29,0.08,0.45,0.04,0.6,0
			c0.15-0.04,0.52-0.54,0.52-0.54v-0.42L49.41,38.83z"/>
		<path class="st6" d="M51.48,45.87c0.17-0.33-0.46-2.77-0.54-3.52c-0.08-0.75-2.06-4.47-2.23-5.01c-0.17-0.54-1.8-2.9-1.77-3.11
			c0.03-0.21-0.88-0.8-0.93-1.67s-0.17-2.09-0.75-2.47c-0.58-0.37-0.95-0.37-1.57-0.58c-0.62-0.21-2.36-1.08-2.36-1.08
			s-1.04-1.04-0.99-1.86c0.04-0.83,0.17-1.37,0.21-2.44c0.04-1.08,0.04-1.49,0.04-2.03s0.29-1.41,0.66-1.99
			c0.37-0.58,0.62-1.53,1.2-1.66c0.58-0.12,1.49-0.29,1.99,0c0.5,0.29,1.33,0.58,1.86,0.87c0.54,0.29,1.62,0.83,2.03,1.16
			s0.87,0.54,1.61,1.41s0.75,1.41,0.46,2.2c-0.29,0.79-0.59,1.28-0.79,1.62s0.81,0.5,1.11,0.7s0.63,0.46,0.59,0.83
			s-0.62,0.37-1.12,0.74c-0.5,0.37-1.32,0.7-1.86,1.08c-0.54,0.37-1.34,0.62-1.4,1.49c-0.06,0.87-0.1,1.37-0.1,2.01
			c0,0.64,0.58,1.76,1.04,2.25c0.46,0.5,2.4,4.27,2.53,4.6c0.12,0.33,1.09,2.15,1.1,2.44c0.01,0.29,0.63,3.06,0.68,3.31
			c0.04,0.25,0.17,1.08,0,1.62c-0.17,0.54-0.58,0.54-0.7,0.41S51.48,45.87,51.48,45.87z"/>
		<path class="st3" d="M48.33,34.36c0,0,2.43,4.76,2.56,5.05c0.13,0.29,1.14,5.02,1.21,5.39s0.12,2.44,0.16,2.64
			c0.04,0.21,0.07,0.37,0.34,0.21c0.28-0.17,0.32-0.11,0.32-0.39s-1.53-7.9-1.57-8.19c-0.04-0.29-1.08-2.4-1.28-2.94
			c-0.21-0.54-0.99-2.15-1.12-2.28s-0.62-0.25-0.62-0.25l-0.21,0.75"/>
		<path class="st7" d="M46.84,33.19c0,0,0.71-1.28,1.5-1.57c0.78-0.29,1.53-0.87,1.73-0.41c0.21,0.46,0.7,1.49,0.46,1.82
			c-0.25,0.33-0.68,1.04-0.91,1.33c-0.23,0.29-0.41,0.53-0.91,0.73s-1.2,0.15-1.09-0.16c0.1-0.31-0.87-0.5-0.68-0.91
			C47.13,33.61,46.84,33.19,46.84,33.19z"/>
		<path class="st3" d="M51.81,47.72c0.11-0.54,1.04-3.38,1.12-4.25c0.08-0.87,0.04-4.56,0-4.93c-0.04-0.37-0.04-0.66-0.54-1.16
			c-0.5-0.5-1.51-1.37-1.67-1.82c-0.16-0.46-0.67-0.53-0.43-1.15s0.13-1.04,0.43-1.46s0.22-0.58,0.88-0.66s0.99,0.51,1.16-0.37
			s0.79-1.41,0.41-2.03c-0.37-0.62,0.15-0.5-1.41-1.37c-1.57-0.87-2.35-1.32-2.14-1.91c0.2-0.58-0.38-1.08,0.58-1.08
			s0.83-0.04,1.25,0c0.41,0.04,0.29,0.33,0.45-0.37c0.17-0.7-0.74-1.24,0.37-0.91s1.37,1.45,1.99,1.2c0.62-0.25,0.95-0.46,0.7-1.08
			s-1.46-0.91-0.94-1.82c0.52-0.91-0.14-1.49,1.27-1.91c1.41-0.41,2.44-0.37,3.19-0.29c0.75,0.08,2.38,0.62,2.89,0.79
			c0.51,0.17,2.08,0.66,2.21,0.91c0.12,0.25,0.58,0.7,0,1.04s-0.29,0.08-2.44,0.79c-2.15,0.7-2.49,0.91-2.98,1.33
			c-0.5,0.41-0.79,0.62-1.08,0.91c-0.29,0.29-0.75,0.5,0.04,0.33c0.79-0.17,1.53-1.04,1.53-0.62c0,0.41-0.08,0.5,0,0.87
			c0.08,0.37,0.62,0.5,0.04,0.79c-0.58,0.29-0.2-0.11-0.99,0.5c-0.79,0.61-1.54,0.35-2.09,0.75c-0.56,0.41-0.97,0.49-0.81,0.86
			c0.17,0.37-0.08,0.54,0.91,0.5c0.99-0.04,1.41-0.5,1.53,0.04s0.5,0.87-0.21,1.57c-0.7,0.7-0.5,2.07-1.62,1.91
			c-1.12-0.17-1.66-0.75-1.74,0c-0.08,0.75-0.04,0.99-0.08,1.2c-0.04,0.21,0.25,5.18,0.25,5.18s-0.12,2.52-0.08,3.02
			c0.04,0.5-0.08,1.62-0.25,2.11c-0.17,0.5-0.66,1.04-0.58,1.2s-0.1,0.95-0.32,1.33C52.39,48.02,51.81,47.72,51.81,47.72z"/>
	</g>
	<g>
		<path class="st3" d="M33.89,46.68c-0.22-0.05-0.35-0.3-0.86,0.07c-0.51,0.37-0.8,0.77-1.71,0.7c-0.91-0.07-0.93-0.25-1.28-0.6
			c-0.36-0.35,0.21-0.54-0.46-0.77c-0.67-0.23,0.83-1.3,1.17-1.51s0.7-0.31,0.88-0.33s1.36-0.12,1.36-0.12s0.24,1.06,0.35,1.16
			s0.73,0.91,0.73,0.91L33.89,46.68z"/>
		<path class="st4" d="M37.07,39.53c0.02-0.18-0.59-1.72-0.21-2.48c0.37-0.76,0.12-1.6,0.42-2.28c0.3-0.68,0.99-1.5,1.27-2.03
			c0.28-0.53,0.41-0.69,1.23-0.79c0.82-0.11,1.59-0.03,1.99,0.05c0.4,0.07,0.79-0.07,1,0.24c0.21,0.31,0.16,0.64,0.34,0.59
			c0.18-0.05,0.47-0.47,0.88-0.26c0.42,0.22,1.03,0.6,1.15,0.8s0.36,0.84,0.41,1.01c0.05,0.18,0.46,1.12,0.12,1.4
			c-0.34,0.28-2.12,1.38-2.53,1.66c-0.41,0.29-1.47,1.36-1.95,1.72c-0.47,0.37-2.02,1.33-2.37,1.4S37.07,39.53,37.07,39.53z"/>
		<path class="st5" d="M37.76,41.32c0,0-1.84,0.95-2.03,1.37c-0.2,0.41-0.29,1.51-0.13,2.11s1.09,1.68,1.38,1.98
			c0.3,0.3,0.04,0.36,0.75,0.62c0.71,0.26,1.08,0.45,1.51,0.59s0.89-0.08,1.24-0.11c0.36-0.03,1.29-0.15,2.04-0.68
			s1.63-1.23,1.92-2.05c0.29-0.82,0.44-3.26-0.3-3.45c-0.74-0.19-1.58-0.33-2.08-0.22c-0.5,0.12-2.23,0.55-2.49,0.47
			C39.33,41.87,37.76,41.32,37.76,41.32z"/>
		<path class="st3" d="M35.47,48.64c-0.18-0.02,0.15-0.32-1.21-0.14c-1.36,0.18-1.71,0.28-1.61,0.67c0.11,0.39,0.42,0.64,1.34,0.91
			c0.93,0.27,1.33,0.38,1.61,0.25s0.61-0.44,0.61-0.44L35.47,48.64z"/>
		<path class="st3" d="M36.71,50.88c0,0-0.66,0.27-0.75,0.5c-0.09,0.22-0.21,0.49,0.05,0.54c0.26,0.05,0.4,0,0.52-0.04
			c0.12-0.05,0.41-0.5,0.41-0.5l-0.03-0.36L36.71,50.88z"/>
		<path class="st6" d="M39.03,56.83c0.12-0.3-0.61-2.37-0.73-3.01c-0.12-0.64-2.12-3.72-2.31-4.18c-0.19-0.45-1.77-2.38-1.77-2.56
			s-0.82-0.62-0.93-1.38s-0.3-1.8-0.83-2.08c-0.53-0.28-0.85-0.25-1.41-0.39s-2.13-0.76-2.13-0.76s-0.97-0.82-1-1.54
			s0.04-1.2,0-2.13s-0.08-1.3-0.12-1.76s0.15-1.24,0.43-1.77s0.42-1.37,0.92-1.53c0.49-0.15,1.27-0.36,1.72-0.15s1.19,0.4,1.68,0.61
			c0.49,0.21,1.47,0.6,1.85,0.85c0.38,0.26,0.79,0.4,1.5,1.1s0.75,1.16,0.56,1.87c-0.19,0.7-0.41,1.16-0.57,1.46
			c-0.15,0.3,0.74,0.37,1.02,0.53c0.27,0.16,0.58,0.35,0.57,0.67c-0.01,0.33-0.51,0.37-0.91,0.73c-0.4,0.36-1.09,0.71-1.53,1.07
			c-0.44,0.36-1.11,0.64-1.1,1.4c0.02,0.76,0.02,1.2,0.06,1.75c0.05,0.55,0.63,1.48,1.07,1.88c0.43,0.4,2.4,3.52,2.53,3.8
			s1.11,1.78,1.14,2.03c0.03,0.25,0.78,2.61,0.83,2.82c0.05,0.21,0.22,0.92,0.12,1.4c-0.1,0.48-0.46,0.51-0.58,0.41
			C39.01,57.88,39.03,56.83,39.03,56.83z"/>
		<path class="st3" d="M35.45,47.09c0,0,2.46,3.95,2.59,4.18c0.13,0.24,1.36,4.27,1.45,4.58c0.09,0.31,0.28,2.1,0.33,2.28
			c0.05,0.18,0.09,0.32,0.31,0.15c0.23-0.16,0.27-0.12,0.25-0.36s-1.92-6.73-1.97-6.98c-0.06-0.25-1.11-2-1.33-2.45
			c-0.22-0.45-1.02-1.79-1.14-1.89c-0.12-0.1-0.55-0.17-0.55-0.17l-0.13,0.67"/>
		<path class="st7" d="M34.06,46.19c0,0,0.52-1.17,1.18-1.48c0.66-0.31,1.26-0.87,1.47-0.49c0.21,0.38,0.72,1.24,0.53,1.55
			c-0.19,0.31-0.51,0.95-0.69,1.22c-0.18,0.27-0.31,0.49-0.73,0.7c-0.42,0.21-1.03,0.22-0.96-0.06c0.07-0.28-0.79-0.37-0.66-0.74
			C34.34,46.53,34.06,46.19,34.06,46.19z"/>
		<path class="st3" d="M39.45,58.41c0.05-0.47,0.64-3.01,0.65-3.77s-0.3-3.95-0.37-4.27c-0.06-0.32-0.08-0.57-0.55-0.97
			c-0.47-0.39-1.41-1.07-1.58-1.45c-0.17-0.38-0.62-0.41-0.46-0.97c0.16-0.56,0.04-0.91,0.27-1.29c0.23-0.38,0.14-0.52,0.71-0.64
			s0.9,0.36,0.98-0.41c0.08-0.77,0.58-1.28,0.21-1.79c-0.37-0.51,0.09-0.44-1.33-1.08c-1.42-0.64-2.13-0.97-2-1.49
			c0.13-0.52-0.41-0.91,0.42-0.98c0.83-0.07,0.72-0.1,1.08-0.09c0.36,0.01,0.27,0.27,0.36-0.36c0.09-0.62-0.74-1.02,0.26-0.82
			c0.99,0.2,1.29,1.15,1.81,0.89c0.52-0.26,0.79-0.47,0.53-0.99c-0.26-0.52-1.34-0.68-0.95-1.51c0.39-0.83-0.23-1.28,0.96-1.75
			s2.09-0.51,2.74-0.49c0.65,0.02,2.1,0.36,2.56,0.47s1.86,0.42,1.98,0.62s0.56,0.57,0.08,0.9s-0.25,0.09-2.06,0.86
			c-1.81,0.77-2.09,0.98-2.49,1.37c-0.4,0.4-0.64,0.6-0.87,0.87c-0.23,0.27-0.61,0.49,0.06,0.28c0.67-0.2,1.25-1.01,1.28-0.65
			c0.03,0.36-0.03,0.44,0.06,0.75s0.58,0.38,0.09,0.68c-0.48,0.29-0.18-0.08-0.82,0.5s-1.31,0.42-1.76,0.81
			c-0.45,0.39-0.81,0.5-0.63,0.81s-0.03,0.47,0.83,0.36c0.86-0.11,1.18-0.54,1.33-0.08s0.5,0.72-0.06,1.38
			c-0.56,0.66-0.28,1.83-1.26,1.77c-0.98-0.06-1.49-0.52-1.51,0.13c-0.02,0.65,0.04,0.86,0.02,1.05c-0.02,0.18,0.6,4.47,0.6,4.47
			s0.08,2.19,0.15,2.62c0.07,0.43,0.05,1.41-0.06,1.85s-0.5,0.95-0.41,1.08c0.08,0.14-0.01,0.83-0.18,1.17S39.45,58.41,39.45,58.41z
			"/>
	</g>
</g>
</svg>
