<?xml version="1.0" encoding="utf-8"?>
<!-- Generator: Adobe Illustrator 23.1.1, SVG Export Plug-In . SVG Version: 6.00 Build 0)  -->
<svg version="1.1" id="Layer_2" xmlns="http://www.w3.org/2000/svg" xmlns:xlink="http://www.w3.org/1999/xlink" x="0px" y="0px"
	 viewBox="0 0 108 108" style="enable-background:new 0 0 108 108;" xml:space="preserve">
<style type="text/css">
	.st0{fill:#60963E;}
	.st1{fill:#1E4703;}
	.st2{fill:#7AAE3F;}
	.st3{fill:#F2EE8A;}
	.st4{fill:#DFCB7F;}
</style>
<g>
	<path class="st0" d="M22,25.9c-0.2,0.3-0.5,0.4-0.7,0.5c0.9,1.8,1.6,3.5,1.8,4.9c0.8,4.6,5.1,20.8,6.4,24.2
		c1.3,3.4,2.3,12.3,2.1,14.1c-0.2,1.7-0.2,5.1,1,6.4c1.2,1.3,1.3,1.6,3,3.9c1.7,2.3,3.2,3.8,3.7,6.3c0.4,1.8,0.7,4.1,0,6.3
		c0.5,0.2,2.6-0.6,3.3-1c0.8-0.4,1.5-0.9,2.2-1.5c0.6-0.6,1.5-1.8,1.9-3.4c0.4-1.6,0-4.6-1-7.7c-1.1-3-1.9-5.7-3.3-8.3
		c-1.4-2.7-4.2-15.3-5.6-17.1c-1.5-1.9-2-6.2-2.8-8.5c-0.8-2.3-4.2-11.3-5.8-14.7c-0.6-1.2-1.9-4-3.3-7.1c-0.1,0.1-0.3,0.2-0.5,0.3
		C22.7,24.7,22.7,25.1,22,25.9z"/>
	<path class="st1" d="M25,23.2c1.4,3.1,2.7,5.9,3.3,7.1c1.6,3.4,4.9,12.5,5.8,14.7c0.8,2.3,1.3,6.6,2.8,8.5
		c1.5,1.9,4.2,14.5,5.6,17.1c1.5,2.7,2.2,5.3,3.3,8.3c1.1,3,1.5,6.1,1,7.7c-0.4,1.6-1.2,2.8-1.9,3.4c-0.6,0.6-1.4,1.1-2.2,1.5
		c-0.8,0.3-2.8,1.1-3.3,1c0,0,0,0,0,0c0.8,0.5,1.5,0.9,2.1,1.1c2.1,0.9,7.6-2,8.9-3.3c1.3-1.3,2.8-6.5,2.1-8.6
		c-0.7-2.1-3.8-12.5-5.3-15.6c-1.5-3.2-6.2-17.9-7.4-20.9c-1.1-3-3.9-10.3-5.5-13.9c-1.1-2.5-2.6-5.1-4.3-7.4
		c-0.6-0.2-1.2-0.4-1.9-0.5C26.2,23.3,26.3,22.4,25,23.2z"/>
	<path class="st2" d="M39.3,86.2c-0.6-2.5-2.1-4-3.7-6.3c-1.6-2.3-1.8-2.6-3-3.9c-1.2-1.3-1.2-4.7-1-6.4c0.2-1.7-0.8-10.7-2.1-14.1
		c-1.3-3.4-5.7-19.6-6.4-24.2c-0.2-1.4-0.9-3.1-1.8-4.9c-0.4,0.1-0.8,0-1.1,0.5c-0.5,0.8,0.2,0-0.9,2c0.3,0.6,3.2,21.4,4,23
		c0.8,1.6,9,31.3,10.5,34.7c1.1,2.4,3.4,4.6,5.4,5.9c0,0,0,0,0.1,0C40,90.3,39.7,88,39.3,86.2z"/>
	<path class="st3" d="M27.8,21.4c-2.6-2.7-2.9-0.9-4-1.5c-0.2-0.1-0.4-0.3-0.5-0.4c-0.2-0.4-0.3-0.7-0.5-1c0-0.1,0-0.1,0-0.1
		s0,0,0,0c-0.2,0.1-1.2,0.9-1.6,1.2c-0.4,0.3-0.6,0.8-1,1.5c-0.3,0.4-0.9,0.7-1.3,0.9c-0.2,0.1-0.4,0.2-0.5,0.3
		c-0.4,0.3-0.2,1.6-0.4,2.5c-0.1,0.8,1.1,3.6,1.4,4.2c1.1-2,0.4-1.2,0.9-2c0.3-0.5,0.7-0.4,1.1-0.5c0.2-0.1,0.5-0.2,0.7-0.5
		c0.7-0.9,0.7-1.2,2.5-2.4c0.2-0.1,0.3-0.2,0.5-0.3c1.3-0.8,1.3,0.1,3.2,0.3c0.7,0.1,1.3,0.3,1.9,0.5C29.3,23,28.6,22.1,27.8,21.4z"
		/>
	<path class="st4" d="M22.2,20.1c0.2,0.4,0.9,0.8,1.1,0.9c0.2,0.2,0.2,0.4,0,0.6c-0.2,0.2-0.9,0-1,0.4c-0.2,0.4,0,0.8-0.2,1
		c-0.3,0.2-1.5-0.2-1,0.8c0.5,1,0.4,1.5-0.4,0.8c-0.7-0.7-1-1.7-1-1.2c-0.1,0.5,0.1,2.4-0.2,2.3c-0.3-0.1-0.9-1.2-0.6-1.8
		c0.2-0.5,0-1.2,0.4-1.5c0.4-0.3,0.7-0.8,1-1.3c0.3-0.5,0.4-0.9,0.9-1.1C21.5,19.8,22.2,20.1,22.2,20.1z"/>
	<path class="st0" d="M36.7,20.7c-0.1,0.4-0.3,0.6-0.6,0.7c2.4,0.9,4.5,1.9,5.7,2.9c4.6,3,18.4,15.2,20.7,18.2
		c3,2.7,6.9,10.6,7,12.2c0.3,1.6,1,4.6,2.5,5.7c1.4,1.1,1.7,1.4,3.6,3.4c2,2,3.6,3.4,4.3,5.7c0.5,1.6,0.8,3.7,0.2,5.6
		c0.5,0.2,2.4-0.4,3.1-0.6c0.7-0.2,1.5-0.7,2.1-1.1c0.6-0.4,1.4-1.4,1.8-2.8c0.4-1.4,0-4.3-1.3-7.2c-1.4-2.9-2.5-5.4-4.6-8
		c-1.7-2.6-8.3-14.2-11.1-15.6c-2.4-1.6-4.8-5.3-6.9-7.2c-1.9-2-11.1-8.9-15.6-11c-1.5-0.8-5-2.6-9.2-4.3c-0.1,0.1-0.2,0.3-0.4,0.4
		C36.8,19.4,37,19.7,36.7,20.7z"/>
	<path class="st1" d="M38.6,17.3c4.1,1.7,7.6,3.5,9.2,4.3c4.5,2.1,13.6,9,15.6,11c2.1,1.9,4.5,5.6,6.9,7.2c2.8,1.5,9.4,13,11.1,15.6
		c2,2.6,3.2,5.1,4.6,8c1.4,2.9,1.7,5.8,1.3,7.2C86.9,72,86,73,85.4,73.4c-0.6,0.4-1.4,0.9-2.1,1.1c-0.7,0.2-2.7,0.8-3.1,0.6
		c0,0,0,0,0,0c0.7,0.5,1.3,0.9,1.9,1.1c1.9,0.9,7.2-1,8.5-1.9C92,73.5,93.7,69,93,67c-0.5-2.1-4.6-12.4-7.1-15.5
		c-1.7-3.3-12-17.1-15.2-19.6c-2.6-2.7-9.9-8.8-14.3-11.3c-3-1.9-6.6-3.6-10.5-4.8c-0.9,0-1.9,0.1-2.9,0.3
		C40.3,16.8,39.8,16.2,38.6,17.3z"/>
	<path class="st2" d="M80,69.5c-0.7-2.3-2.3-3.7-4.3-5.7c-2-2-2.2-2.3-3.6-3.4c-1.4-1.1-2.2-4.1-2.5-5.7c-0.1-1.6-3.9-9.5-7-12.2
		c-2.3-3-16.1-15.3-20.7-18.2c-1.2-1-3.3-2-5.7-2.9c-0.4,0.3-1,0.4-1,0.9c-0.1,0.8,0.3-0.1,0.3,1.9C36.9,24.1,53,39.4,54,40.9
		c0.8,0.5,7.2,6.6,11.9,13.4c4.9,6.7,8.2,14.1,9,15.6c1.3,2.1,3.5,4,5.3,5.3c0,0,0,0,0.1,0C80.8,73.3,80.5,71.2,80,69.5z"/>
	<path class="st3" d="M41.1,14.7c-5.6-0.9-4.6,0.6-6.5,0.7c-0.4,0-0.7,0-1,0c-0.5-0.2-1-0.4-1.4-0.5c0,0-0.1-0.1-0.1-0.1
		c0,0,0,0,0,0c-0.1,0.2-0.9,1.3-1.2,1.7c-0.3,0.4-0.1,0.9-0.2,1.6c-0.1,0.5-0.6,0.9-1,1.3c-0.2,0.2-0.4,0.4-0.4,0.5
		c-0.2,0.4,1,1.3,1.4,1.9c0.5,0.6,4.1,2,4.8,2.3c0-2-0.3-1.1-0.3-1.9c0-0.5,0.6-0.6,1-0.9c0.3-0.1,0.5-0.3,0.6-0.7
		c0.2-1,0-1.2,1.5-3c0.1-0.2,0.3-0.3,0.4-0.4c1.2-1.1,1.7-0.5,4.4-1.1c0.9-0.2,1.9-0.3,2.9-0.3C44.3,15.3,42.7,14.9,41.1,14.7z"/>
	<path class="st4" d="M32.7,16.4c0.6,0.2,1.7,0.1,2.1,0.1c0.4,0,0.6,0.2,0.4,0.5c-0.2,0.2-1.1,0.4-1.1,0.8c0.1,0.4,0.6,0.6,0.5,0.9
		c-0.2,0.3-2.1,0.6-0.6,1.1c1.4,0.5,1.6,1,0.1,0.8c-1.5-0.2-2.6-0.8-2.2-0.4c0.3,0.4,1.9,1.7,1.4,1.7c-0.5,0-2-0.4-2.1-0.9
		c-0.1-0.5-0.9-0.8-0.7-1.3c0.3-0.4,0.2-0.9,0.3-1.4c0.1-0.5-0.1-0.8,0.3-1.3C31.4,16.5,32.7,16.4,32.7,16.4z"/>
	<path class="st0" d="M26,19.6c-0.2,0.4-0.5,0.5-0.7,0.6c1.7,1.9,3.2,3.6,3.9,5.2c2.5,5.1,13,22.9,15.7,26.7
		c2.7,3.8,6.5,14.2,6.7,16.3c0.3,2.1,1.2,6.1,3,7.5c1.8,1.4,2.1,1.8,4.8,4.4c2.7,2.6,4.9,4.3,6.3,7.3c1,2.1,2,5,1.7,7.7
		c0.7,0.2,3-1,3.9-1.5c0.9-0.5,1.7-1.3,2.3-2.1c0.6-0.8,1.3-2.3,1.4-4.4c0.1-2-1.2-5.7-3.3-9.3c-2.2-3.6-3.8-6.6-6.4-9.7
		c-2.6-3-9.6-17.6-12-19.5c-2.4-2-4.3-6.9-6.1-9.4c-1.7-2.5-8.8-12.3-11.9-15.9c-1.1-1.3-3.6-4.2-6.5-7.4c-0.1,0.1-0.3,0.2-0.5,0.4
		C26.5,18.1,26.5,18.5,26,19.6z"/>
	<path class="st1" d="M28.8,16.1c2.8,3.2,5.3,6.1,6.5,7.4c3.1,3.6,10.2,13.4,11.9,15.9c1.7,2.5,3.7,7.4,6.1,9.4
		c2.4,2,9.4,16.5,12,19.5c2.6,3,4.2,6.1,6.4,9.7c2.2,3.6,3.4,7.3,3.3,9.3c-0.1,2-0.8,3.6-1.4,4.4c-0.6,0.8-1.4,1.6-2.3,2.1
		c-0.8,0.5-3.2,1.7-3.9,1.5c0,0,0,0,0,0c1.1,0.5,2,1,2.8,1.2c2.8,0.9,8.8-3.3,10.1-5.1c1.3-1.8,1.8-8.4,0.4-10.9
		c-1.4-2.4-8-14.7-10.8-18.3C67.1,58.7,56.8,42,54.5,38.8c-2.3-3.3-8.2-11.2-11.3-14.9c-2.2-2.6-4.9-5.3-7.8-7.6
		c-0.8-0.2-1.7-0.3-2.5-0.2C30.4,16,30.2,15.1,28.8,16.1z"/>
	<path class="st2" d="M65.6,87.6c-1.3-3-3.6-4.7-6.3-7.3c-2.7-2.6-2.9-3-4.8-4.4c-1.8-1.4-2.8-5.5-3-7.5c-0.3-2.1-4.1-12.5-6.7-16.3
		c-2.7-3.8-13.2-21.6-15.7-26.7c-0.8-1.5-2.2-3.3-3.9-5.2c-0.5,0.2-0.9,0.1-1.2,0.7c-0.4,0.9,0.2,0-0.5,2.3
		c0.5,0.6,10.9,23.6,12.4,25.4c1.5,1.8,20.2,35.9,23,40c2,2.9,5.4,5.3,8.2,6.8c0,0,0.1,0,0.1,0C67.6,92.6,66.6,89.8,65.6,87.6z"/>
	<path class="st3" d="M31.8,13.7c-4.3-2.6-4-0.6-5.5-1.1c-0.3-0.1-0.6-0.2-0.8-0.3c-0.3-0.4-0.6-0.7-0.9-1.1c0-0.1,0-0.1,0-0.1
		s0,0,0,0c-0.2,0.2-1.2,1.2-1.6,1.5c-0.4,0.4-0.4,1-0.8,1.8c-0.3,0.5-0.9,0.9-1.4,1.1c-0.2,0.1-0.4,0.3-0.5,0.4
		c-0.3,0.4,0.3,1.8,0.4,2.8c0.1,0.9,2.6,3.8,3.2,4.5c0.7-2.3,0.1-1.4,0.5-2.3c0.2-0.6,0.7-0.5,1.2-0.7c0.3-0.1,0.5-0.2,0.7-0.6
		c0.6-1.1,0.5-1.4,2.3-3.1c0.2-0.2,0.3-0.3,0.5-0.4c1.4-1,1.6-0.1,4.1-0.2c0.8,0,1.7,0.1,2.5,0.2C34.2,15.3,33,14.4,31.8,13.7z"/>
	<path class="st4" d="M24.3,13.2c0.4,0.4,1.4,0.7,1.7,0.9c0.3,0.2,0.4,0.5,0.2,0.7c-0.2,0.2-1.1,0.1-1.2,0.6
		c-0.1,0.4,0.3,0.9,0.1,1.2c-0.3,0.3-1.9,0-0.9,1c1,1,1,1.6-0.2,1c-1.2-0.7-1.8-1.8-1.7-1.2c0.1,0.6,0.9,2.6,0.5,2.5
		c-0.4-0.1-1.5-1.2-1.4-1.9c0.1-0.6-0.4-1.3,0-1.7c0.4-0.4,0.5-1,0.8-1.6c0.2-0.6,0.2-1,0.7-1.4C23.2,12.9,24.3,13.2,24.3,13.2z"/>
</g>
</svg>
