<?xml version="1.0" encoding="utf-8"?>
<svg id="Layer_1" enable-background="new 0 0 512 512" viewBox="0 0 108 108" xmlns="http://www.w3.org/2000/svg">
  <g style="" transform="matrix(0.203212, 0, 0, 0.203212, 2.406756, 1.115907)">
    <path d="M 106.294 339.299 C 106.129 338.742 105.978 338.186 105.829 337.63 C 90.215 326.574 72.218 325.141 64.662 334.736 C 56.705 344.838 63.336 363.331 79.474 376.042 C 95.611 388.752 115.143 390.866 123.1 380.764 C 125.59 377.603 126.651 373.62 126.439 369.249 C 117.92 363.605 110.293 352.816 106.294 339.299 Z" fill="#bf7fe3"/>
    <path d="M 78.072 232.27 C 77.927 231.781 77.795 231.293 77.664 230.806 C 63.968 221.108 48.183 219.852 41.554 228.267 C 34.575 237.128 40.391 253.349 54.546 264.498 C 68.701 275.647 85.833 277.501 92.812 268.64 C 94.996 265.867 95.927 262.374 95.741 258.54 C 88.27 253.59 81.58 244.126 78.072 232.27 Z" fill="#bf7fe3"/>
    <path d="M 53.702 135.521 C 53.582 135.117 53.473 134.713 53.364 134.31 C 42.037 126.29 28.983 125.251 23.501 132.211 C 17.729 139.539 22.539 152.954 34.245 162.174 C 45.951 171.394 60.12 172.928 65.891 165.599 C 67.697 163.306 68.467 160.417 68.313 157.246 C 62.136 153.152 56.603 145.326 53.702 135.521 Z" fill="#bf7fe3"/>
    <path d="M 31.659 50.93 C 31.557 50.585 31.464 50.241 31.371 49.897 C 21.706 43.054 10.567 42.167 5.89 48.106 C 0.965 54.359 5.07 65.805 15.058 73.673 C 25.046 81.54 37.136 82.849 42.061 76.596 C 43.602 74.64 44.259 72.174 44.128 69.469 C 38.855 65.975 34.135 59.297 31.659 50.93 Z" fill="#bf7fe3"/>
    <path d="M 99.642 376.041 C 83.504 363.33 76.873 344.837 84.83 334.735 C 86.424 332.711 88.487 331.184 90.889 330.128 C 79.99 326.754 69.857 328.137 64.661 334.735 C 56.704 344.837 63.336 363.33 79.473 376.041 C 92.374 386.203 107.44 389.583 117.031 385.371 C 111.242 383.58 105.238 380.449 99.642 376.041 Z" fill="#b166db"/>
    <path d="M 74.715 264.498 C 60.56 253.349 54.744 237.128 61.723 228.267 C 62.889 226.787 64.351 225.622 66.022 224.734 C 55.915 221.181 46.343 222.187 41.554 228.267 C 34.574 237.128 40.391 253.349 54.546 264.498 C 66.324 273.775 80.158 276.609 88.495 272.197 C 83.879 270.572 79.151 267.992 74.715 264.498 Z" fill="#b166db"/>
    <path d="M 54.415 162.173 C 42.709 152.953 37.899 139.538 43.671 132.21 C 44.307 131.403 45.054 130.715 45.879 130.121 C 36.754 126.234 27.8 126.753 23.502 132.21 C 17.73 139.538 22.541 152.953 34.246 162.173 C 44.652 170.369 56.989 172.473 63.659 167.696 C 60.537 166.365 57.397 164.522 54.415 162.173 Z" fill="#b166db"/>
    <path d="M 35.227 73.672 C 25.239 65.805 21.134 54.358 26.059 48.105 C 26.313 47.783 26.594 47.489 26.885 47.207 C 18.466 42.959 9.856 43.07 5.89 48.105 C 0.965 54.358 5.069 65.804 15.058 73.672 C 24.525 81.128 35.868 82.681 41.221 77.501 C 39.189 76.475 37.168 75.201 35.227 73.672 Z" fill="#b166db"/>
    <path d="M 198.274 306.723 L 199.263 305.25 C 197.07 301.552 194.049 298.845 190.295 297.566 C 178.734 293.627 164.414 304.621 157.329 322.393 C 157.506 322.941 157.682 323.489 157.847 324.047 C 161.846 337.564 161.317 350.766 157.24 360.136 C 159.44 363.918 162.498 366.683 166.307 367.98 C 175.462 371.099 186.349 364.856 194.003 353.298 L 194.087 349.452 C 194.087 349.452 187.49 338.373 185.884 324.272 C 184.277 310.171 198.274 306.723 198.274 306.723 Z" fill="#bf7fe3"/>
    <path d="M 229.119 324.273 C 229.119 323.692 229.132 323.116 229.146 322.54 C 217.31 307.508 200.459 301.029 190.491 308.086 C 179.995 315.516 181.107 335.13 192.976 351.897 C 204.844 368.663 222.974 376.232 233.47 368.802 C 236.754 366.477 238.902 362.959 239.939 358.708 C 233.372 350.878 229.119 338.369 229.119 324.273 Z" fill="#bf7fe3"/>
    <path d="M 232.422 213.634 C 232.422 213.124 232.434 212.619 232.446 212.114 C 222.064 198.929 207.284 193.246 198.54 199.435 C 189.334 205.952 190.309 223.157 200.719 237.863 C 211.129 252.569 227.032 259.208 236.238 252.691 C 239.119 250.652 241.002 247.566 241.912 243.837 C 236.152 236.971 232.422 225.999 232.422 213.634 Z" fill="#bf7fe3"/>
    <path d="M 236.501 113.947 C 236.501 113.525 236.511 113.107 236.521 112.69 C 227.935 101.786 215.712 97.086 208.481 102.205 C 200.867 107.594 201.674 121.823 210.283 133.985 C 218.892 146.147 232.044 151.637 239.657 146.248 C 242.039 144.562 243.597 142.009 244.35 138.926 C 239.586 133.246 236.501 124.172 236.501 113.947 Z" fill="#bf7fe3"/>
    <path d="M 239.362 26.578 C 239.362 26.218 239.37 25.862 239.379 25.505 C 232.053 16.201 221.623 12.19 215.453 16.558 C 208.956 21.157 209.645 33.297 216.991 43.675 C 224.337 54.053 235.559 58.737 242.055 54.139 C 244.088 52.7 245.417 50.522 246.059 47.891 C 241.994 43.046 239.362 35.303 239.362 26.578 Z" fill="#bf7fe3"/>
    <path d="M 214.294 351.896 C 202.454 335.17 201.321 315.613 211.736 308.142 C 203.889 304.43 196.101 304.115 190.493 308.085 C 179.997 315.515 181.109 335.129 192.978 351.895 C 204.846 368.661 222.976 376.23 233.472 368.8 C 233.497 368.782 233.518 368.762 233.543 368.744 C 226.703 365.512 219.82 359.702 214.294 351.896 Z" fill="#b166db"/>
    <path d="M 222.037 237.864 C 212.057 223.765 210.754 207.376 218.776 200.303 C 211.362 196.301 203.842 195.683 198.541 199.436 C 189.335 205.953 190.31 223.158 200.721 237.864 C 211.131 252.57 227.034 259.209 236.24 252.692 C 236.62 252.423 236.979 252.134 237.324 251.83 C 231.859 248.884 226.454 244.104 222.037 237.864 Z" fill="#b166db"/>
    <path d="M 231.6 133.985 C 223.952 123.18 222.478 110.76 227.579 104.34 C 220.719 99.802 213.43 98.701 208.481 102.205 C 200.867 107.594 201.674 121.823 210.284 133.985 C 218.893 146.147 232.045 151.637 239.658 146.248 C 240.507 145.647 241.247 144.931 241.887 144.125 C 238.189 141.683 234.616 138.245 231.6 133.985 Z" fill="#b166db"/>
    <path d="M 238.308 43.676 C 232.354 35.264 230.776 25.697 233.85 19.924 C 227.426 14.803 220.187 13.208 215.453 16.559 C 208.956 21.158 209.645 33.298 216.991 43.676 C 224.337 54.054 235.559 58.738 242.055 54.14 C 243.285 53.269 244.254 52.124 244.972 50.775 C 242.582 48.869 240.3 46.49 238.308 43.676 Z" fill="#b166db"/>
    <path d="M 360.247 195.664 C 370.387 192.209 382.948 201.852 389.163 217.441 C 389.008 217.922 388.853 218.403 388.709 218.892 C 385.201 230.748 385.665 242.328 389.241 250.547 C 387.311 253.864 384.629 256.289 381.288 257.427 C 370.611 261.064 357.245 250.187 351.435 233.131 C 345.625 216.076 349.57 199.301 360.247 195.664 Z" fill="#bf7fe3"/>
    <path d="M 397.364 105.247 C 405.75 102.39 416.138 110.365 421.277 123.257 C 421.149 123.654 421.021 124.052 420.901 124.457 C 418 134.262 418.384 143.839 421.341 150.636 C 419.745 153.379 417.527 155.385 414.764 156.326 C 405.934 159.334 394.881 150.338 390.076 136.234 C 385.271 122.128 388.534 108.255 397.364 105.247 Z" fill="#bf7fe3"/>
    <path d="M 428.347 25.099 C 435.503 22.661 444.366 29.466 448.752 40.466 C 448.643 40.805 448.533 41.145 448.431 41.49 C 445.956 49.857 446.283 58.028 448.806 63.828 C 447.444 66.169 445.552 67.88 443.194 68.683 C 435.66 71.25 426.228 63.574 422.128 51.539 C 418.029 39.503 420.813 27.665 428.347 25.099 Z" fill="#bf7fe3"/>
    <path d="M 368.89 233.131 C 363.856 218.355 366.149 203.796 373.793 197.802 C 369.288 195.097 364.55 194.198 360.247 195.664 C 349.57 199.301 345.625 216.076 351.435 233.131 C 357.245 250.186 370.611 261.064 381.288 257.427 C 382.712 256.942 384.008 256.211 385.185 255.289 C 378.514 251.283 372.356 243.308 368.89 233.131 Z" fill="#b166db"/>
    <path d="M 407.531 136.233 C 403.664 124.882 405.026 113.686 410.305 108.177 C 406.081 105.057 401.481 103.844 397.364 105.247 C 388.534 108.255 385.271 122.128 390.076 136.233 C 394.881 150.338 405.935 159.334 414.765 156.326 C 416.488 155.739 417.998 154.738 419.279 153.403 C 414.441 149.834 410.096 143.762 407.531 136.233 Z" fill="#b166db"/>
    <path d="M 439.584 51.538 C 436.553 42.64 437.293 33.86 440.926 28.845 C 436.925 25.277 432.367 23.729 428.348 25.098 C 420.814 27.665 418.03 39.502 422.13 51.537 C 426.23 63.572 435.662 71.248 443.196 68.681 C 445.159 68.012 446.794 66.707 448.075 64.939 C 444.572 61.821 441.497 57.155 439.584 51.538 Z" fill="#b166db"/>
    <path d="M 354.154 324.047 C 354.319 323.49 354.495 322.941 354.672 322.393 C 347.587 304.621 333.267 293.627 321.706 297.566 C 317.952 298.845 314.931 301.552 312.738 305.25 L 314.095 307.294 C 314.095 307.294 326.273 311.607 325.893 321.375 C 325.512 331.143 317.52 349.411 317.52 349.411 L 317.998 353.299 C 325.652 364.857 336.539 371.099 345.694 367.981 C 349.503 366.684 352.56 363.919 354.761 360.137 C 350.684 350.766 350.155 337.564 354.154 324.047 Z" fill="#b166db"/>
    <path d="M 332.353 500.098 C 328.147 500.098 324.735 496.685 324.741 492.475 C 324.779 468.779 307.993 454.181 307.824 454.036 C 304.637 451.317 304.234 446.52 306.939 443.321 C 309.644 440.121 314.413 439.699 317.626 442.389 C 318.54 443.155 340.014 461.503 339.964 492.499 C 339.957 496.698 336.55 500.098 332.353 500.098 Z" fill="#95d6a4"/>
    <path d="M 329.357 387.171 C 330.956 387.213 332.405 389.472 331.776 390.943 C 326.256 403.858 316.034 416.096 302.016 425.086 C 287.998 434.075 272.61 438.26 258.57 437.888 C 256.971 437.846 255.522 435.587 256.151 434.116 C 261.671 421.201 271.893 408.963 285.911 399.973 C 299.929 390.983 315.317 386.799 329.357 387.171 Z" fill="#95d6a4"/>
    <path d="M 298.089 408.768 C 307.992 402.417 318.577 398.476 328.889 396.834 C 329.955 394.891 330.928 392.926 331.776 390.943 C 332.405 389.472 330.956 387.213 329.357 387.171 C 315.317 386.799 299.93 390.983 285.911 399.973 C 271.893 408.962 261.67 421.201 256.151 434.116 C 255.522 435.587 256.971 437.846 258.57 437.888 C 262.692 437.997 266.931 437.702 271.216 437.02 C 277.092 426.316 286.224 416.377 298.089 408.768 Z" fill="#78c2a4"/>
    <path d="M 433.079 422.663 C 434.571 423.241 435.174 425.856 434.087 427.029 C 424.541 437.331 410.795 445.413 394.568 449.158 C 378.341 452.902 362.443 451.661 349.349 446.583 C 347.857 446.005 347.254 443.39 348.341 442.217 C 357.887 431.915 371.633 423.833 387.86 420.088 C 404.086 416.344 419.984 417.585 433.079 422.663 Z" fill="#95d6a4"/>
    <path d="M 400.037 428.884 C 411.524 426.233 422.84 426.092 433.12 428.03 C 433.443 427.697 433.773 427.367 434.086 427.029 C 435.173 425.856 434.57 423.241 433.078 422.662 C 419.983 417.584 404.086 416.343 387.858 420.088 C 371.631 423.832 357.885 431.914 348.339 442.216 C 347.252 443.389 347.855 446.004 349.346 446.582 C 353.171 448.065 357.241 449.21 361.483 450.01 C 370.982 440.191 384.343 432.505 400.037 428.884 Z" fill="#78c2a4"/>
    <path d="M 78.921 422.663 C 77.429 423.241 76.826 425.856 77.913 427.029 C 87.459 437.331 101.205 445.413 117.432 449.158 C 133.659 452.902 149.557 451.661 162.651 446.583 C 164.143 446.005 164.746 443.39 163.659 442.217 C 154.113 431.915 140.367 423.833 124.14 420.088 C 107.914 416.344 92.016 417.585 78.921 422.663 Z" fill="#95d6a4"/>
    <path d="M 160.234 438.794 C 149.889 440.782 138.484 440.66 126.905 437.988 C 112.524 434.67 100.098 427.94 90.812 419.282 C 86.659 420.08 82.672 421.208 78.922 422.662 C 77.43 423.24 76.827 425.855 77.915 427.029 C 87.461 437.331 101.207 445.413 117.434 449.158 C 133.66 452.902 149.558 451.661 162.653 446.583 C 164.145 446.005 164.748 443.39 163.661 442.217 C 162.574 441.044 161.427 439.905 160.234 438.794 Z" fill="#78c2a4"/>
    <path d="M 182.643 410.441 C 181.044 410.483 179.595 412.742 180.224 414.213 C 185.744 427.128 195.966 439.366 209.984 448.356 C 224.002 457.345 239.39 461.53 253.43 461.158 C 255.029 461.116 256.478 458.857 255.849 457.386 C 250.329 444.471 240.107 432.232 226.089 423.243 C 212.071 414.253 196.683 410.069 182.643 410.441 Z" fill="#95d6a4"/>
    <path d="M 251.733 449.344 C 240.958 447.855 229.833 443.841 219.457 437.187 C 208.39 430.09 199.702 420.965 193.813 411.085 C 190.031 410.562 186.291 410.344 182.644 410.441 C 181.045 410.483 179.596 412.742 180.225 414.213 C 185.745 427.128 195.967 439.366 209.985 448.356 C 224.004 457.345 239.391 461.529 253.431 461.158 C 255.03 461.116 256.479 458.857 255.85 457.386 C 254.688 454.666 253.304 451.98 251.733 449.344 Z" fill="#78c2a4"/>
    <path d="M 321.508 308.085 C 311.54 301.028 294.689 307.508 282.853 322.539 C 282.867 323.115 282.88 323.691 282.88 324.272 C 282.88 338.368 278.627 350.878 272.06 358.706 C 273.097 362.957 275.245 366.475 278.529 368.8 C 289.025 376.23 307.155 368.661 319.023 351.895 C 330.892 335.129 332.004 315.515 321.508 308.085 Z" fill="#bf7fe3"/>
    <path d="M 313.46 199.436 C 304.716 193.246 289.936 198.93 279.554 212.115 C 279.566 212.62 279.578 213.125 279.578 213.635 C 279.578 225.999 275.848 236.972 270.087 243.839 C 270.997 247.568 272.88 250.654 275.761 252.693 C 284.967 259.21 300.87 252.571 311.28 237.865 C 321.691 223.157 322.667 205.953 313.46 199.436 Z" fill="#bf7fe3"/>
    <path d="M 303.52 102.204 C 296.289 97.085 284.066 101.785 275.48 112.689 C 275.49 113.107 275.5 113.524 275.5 113.946 C 275.5 124.171 272.415 133.246 267.651 138.925 C 268.403 142.009 269.961 144.561 272.344 146.247 C 279.958 151.637 293.109 146.146 301.718 133.984 C 310.327 121.822 311.133 107.594 303.52 102.204 Z" fill="#bf7fe3"/>
    <path d="M 296.547 16.559 C 290.377 12.191 279.947 16.202 272.621 25.506 C 272.63 25.862 272.638 26.219 272.638 26.579 C 272.638 35.304 270.006 43.047 265.941 47.893 C 266.583 50.524 267.912 52.702 269.945 54.141 C 276.442 58.74 287.663 54.055 295.009 43.677 C 302.355 33.298 303.044 21.157 296.547 16.559 Z" fill="#bf7fe3"/>
    <path d="M 256 511.998 C 251.796 511.998 248.389 508.591 248.389 504.387 L 248.389 46.89 C 248.389 42.686 251.797 39.279 256 39.279 C 260.203 39.279 263.611 42.686 263.611 46.89 L 263.611 504.386 C 263.611 508.591 260.204 511.998 256 511.998 Z" fill="#b3e59f"/>
    <path d="M 151.753 195.664 C 141.613 192.209 129.052 201.852 122.837 217.441 C 122.992 217.922 123.147 218.403 123.291 218.892 C 126.799 230.748 126.335 242.328 122.759 250.547 C 124.689 253.864 127.371 256.289 130.712 257.427 C 141.389 261.064 154.755 250.187 160.565 233.131 C 166.375 216.076 162.43 199.301 151.753 195.664 Z" fill="#bf7fe3"/>
    <path d="M 114.636 105.247 C 106.25 102.39 95.862 110.365 90.723 123.257 C 90.851 123.654 90.979 124.052 91.099 124.457 C 94 134.262 93.616 143.839 90.659 150.636 C 92.255 153.379 94.473 155.385 97.236 156.326 C 106.066 159.334 117.119 150.338 121.924 136.234 C 126.729 122.128 123.466 108.255 114.636 105.247 Z" fill="#bf7fe3"/>
    <path d="M 83.653 25.099 C 76.497 22.661 67.634 29.466 63.248 40.466 C 63.357 40.805 63.467 41.145 63.569 41.49 C 66.044 49.857 65.717 58.028 63.194 63.828 C 64.556 66.169 66.448 67.88 68.806 68.683 C 76.34 71.25 85.772 63.574 89.872 51.539 C 93.971 39.503 91.187 27.665 83.653 25.099 Z" fill="#bf7fe3"/>
    <path d="M 183.165 512 C 179.88 512 176.849 509.856 175.869 506.546 L 46.362 68.807 C 45.169 64.776 47.47 60.541 51.501 59.349 C 55.531 58.156 59.767 60.457 60.959 64.488 L 190.467 502.227 C 191.66 506.258 189.358 510.493 185.328 511.685 C 184.608 511.899 183.88 512 183.165 512 Z" fill="#b3e59f"/>
    <path d="M 405.706 339.299 C 405.871 338.742 406.022 338.186 406.171 337.63 C 421.785 326.574 439.782 325.141 447.338 334.736 C 455.295 344.838 448.664 363.331 432.526 376.042 C 416.389 388.752 396.857 390.866 388.9 380.764 C 386.41 377.603 385.349 373.62 385.561 369.249 C 394.08 363.605 401.707 352.816 405.706 339.299 Z" fill="#bf7fe3"/>
    <path d="M 433.928 232.27 C 434.073 231.781 434.205 231.293 434.336 230.806 C 448.032 221.108 463.817 219.852 470.446 228.267 C 477.425 237.128 471.609 253.349 457.454 264.498 C 443.299 275.647 426.167 277.501 419.188 268.64 C 417.004 265.867 416.073 262.374 416.259 258.54 C 423.73 253.59 430.42 244.126 433.928 232.27 Z" fill="#bf7fe3"/>
    <path d="M 458.298 135.521 C 458.418 135.117 458.527 134.713 458.636 134.31 C 469.963 126.29 483.017 125.251 488.499 132.211 C 494.271 139.539 489.461 152.954 477.755 162.174 C 466.049 171.394 451.88 172.928 446.109 165.599 C 444.303 163.306 443.533 160.417 443.687 157.246 C 449.864 153.152 455.397 145.326 458.298 135.521 Z" fill="#bf7fe3"/>
    <path d="M 480.341 50.93 C 480.443 50.585 480.536 50.241 480.629 49.897 C 490.294 43.054 501.433 42.167 506.11 48.106 C 511.035 54.359 506.93 65.805 496.942 73.673 C 486.954 81.54 474.864 82.849 469.939 76.596 C 468.398 74.64 467.741 72.174 467.872 69.469 C 473.145 65.975 477.865 59.297 480.341 50.93 Z" fill="#bf7fe3"/>
    <path d="M 328.835 512 C 328.12 512 327.393 511.899 326.672 511.685 C 322.641 510.493 320.34 506.258 321.533 502.227 L 451.181 64.014 C 452.374 59.983 456.606 57.677 460.639 58.875 C 464.67 60.067 466.971 64.302 465.778 68.333 L 336.13 506.546 C 335.151 509.856 332.119 512 328.835 512 Z" fill="#b3e59f"/>
    <ellipse cx="256" cy="26.578" rx="16.638" ry="26.578" fill="#cc98e9"/>
    <ellipse cx="47.614" cy="46.21" rx="16.641" ry="26.582" transform="matrix(0.958838, -0.283952, 0.283952, 0.958838, -11.143113, 15.412179)" fill="#cc98e9"/>
    <ellipse cx="464.386" cy="46.21" rx="26.582" ry="16.641" transform="matrix(0.283952, -0.958838, 0.958838, 0.283952, 288.35763, 478.333323)" fill="#cc98e9"/>
    <ellipse cx="256" cy="324.272" rx="27.388" ry="43.447" fill="#cc98e9"/>
    <ellipse cx="256" cy="213.635" rx="24.086" ry="38.171" fill="#cc98e9"/>
    <ellipse cx="256" cy="113.946" rx="20.007" ry="31.656" fill="#cc98e9"/>
    <path d="M 256.809 26.578 C 256.809 17.01 259.975 8.627 264.724 3.946 C 262.187 1.446 259.2 0 256 0 C 246.811 0 239.362 11.899 239.362 26.578 C 239.362 41.257 246.811 53.156 256 53.156 C 259.2 53.156 262.187 51.71 264.724 49.21 C 259.975 44.529 256.809 36.146 256.809 26.578 Z" fill="#bf7fe3"/>
    <path d="M 246.059 324.272 C 246.059 305.154 253.888 288.892 264.724 283.098 C 261.982 281.632 259.05 280.825 256 280.825 C 240.898 280.825 228.612 300.315 228.612 324.272 C 228.612 348.228 240.898 367.719 256 367.719 C 259.05 367.719 261.981 366.912 264.724 365.446 C 253.887 359.653 246.059 343.391 246.059 324.272 Z" fill="#bf7fe3"/>
    <path d="M 249.361 213.635 C 249.361 197.463 255.743 183.617 264.723 178.066 C 262.016 176.393 259.076 175.464 255.999 175.464 C 242.718 175.464 231.913 192.588 231.913 213.635 C 231.913 234.682 242.718 251.806 255.999 251.806 C 259.075 251.806 262.016 250.877 264.723 249.204 C 255.744 243.653 249.361 229.807 249.361 213.635 Z" fill="#bf7fe3"/>
    <path d="M 253.44 113.946 C 253.44 101.437 258.05 90.601 264.723 85.463 C 262.085 83.432 259.125 82.29 255.999 82.29 C 244.967 82.29 235.992 96.491 235.992 113.946 C 235.992 131.401 244.967 145.602 255.999 145.602 C 259.125 145.602 262.084 144.46 264.723 142.429 C 258.051 137.292 253.44 126.456 253.44 113.946 Z" fill="#bf7fe3"/>
    <path d="M 142.019 296.785 C 134.714 290.328 126.803 287.924 119.744 290.011 C 105.263 294.295 99.01 316.471 105.807 339.443 C 109.087 350.531 114.881 360.162 122.121 366.561 C 127.709 371.501 133.651 374.068 139.295 374.068 C 141.029 374.068 142.736 373.825 144.395 373.335 C 158.876 369.051 165.129 346.875 158.332 323.903 C 155.052 312.815 149.258 303.183 142.019 296.785 Z" fill="#cc98e9"/>
    <path d="M 111.511 262.184 C 117.724 260.347 122.413 254.786 124.714 246.526 C 126.991 238.35 126.659 228.485 123.778 218.748 C 120.897 209.011 115.808 200.553 109.449 194.932 C 103.025 189.254 96.066 187.14 89.852 188.978 C 83.638 190.816 78.95 196.376 76.649 204.636 C 74.372 212.812 74.705 222.677 77.585 232.414 C 80.466 242.151 85.555 250.609 91.913 256.23 C 96.826 260.572 102.052 262.831 107.018 262.831 C 108.547 262.83 110.049 262.616 111.511 262.184 Z" fill="#cc98e9"/>
    <path d="M 81.381 160.344 C 91.96 157.214 96.537 141.051 91.585 124.313 C 86.634 107.576 73.998 96.509 63.42 99.633 C 52.841 102.763 48.263 118.926 53.216 135.664 C 55.603 143.732 59.821 150.742 65.092 155.401 C 69.172 159.007 73.514 160.882 77.641 160.882 C 78.912 160.882 80.164 160.703 81.381 160.344 Z" fill="#cc98e9"/>
    <path d="M 51.229 50.93 C 48.181 40.628 49.387 30.627 53.705 24.98 C 49.419 21.134 44.529 19.406 40.074 20.724 C 31.263 23.331 27.495 36.855 31.66 50.93 C 35.824 65.006 46.343 74.303 55.155 71.696 C 57.517 70.997 59.512 69.508 61.094 67.44 C 56.902 63.678 53.288 57.89 51.229 50.93 Z" fill="#bf7fe3"/>
    <path d="M 148.02 366.561 C 140.78 360.163 134.987 350.531 131.706 339.443 C 126.154 320.677 129.313 302.449 138.548 294.065 C 132.257 289.698 125.697 288.251 119.744 290.012 C 105.263 294.296 99.01 316.472 105.807 339.444 C 109.087 350.532 114.881 360.163 122.121 366.562 C 127.709 371.502 133.651 374.069 139.295 374.069 C 141.029 374.069 142.736 373.826 144.395 373.336 C 147.045 372.552 149.416 371.164 151.485 369.286 C 150.319 368.475 149.162 367.57 148.02 366.561 Z" fill="#bf7fe3"/>
    <path d="M 117.813 256.229 C 111.454 250.609 106.365 242.151 103.484 232.413 C 100.604 222.676 100.271 212.811 102.548 204.635 C 103.78 200.213 105.702 196.574 108.17 193.856 C 102.109 188.994 95.655 187.261 89.852 188.977 C 83.639 190.814 78.95 196.375 76.649 204.635 C 74.372 212.811 74.705 222.676 77.585 232.413 C 80.466 242.15 85.555 250.608 91.913 256.229 C 96.826 260.571 102.052 262.83 107.018 262.83 C 108.545 262.83 110.048 262.616 111.51 262.184 C 114.401 261.329 116.957 259.658 119.102 257.293 C 118.671 256.947 118.24 256.606 117.813 256.229 Z" fill="#bf7fe3"/>
    <path d="M 79.115 135.664 C 75.719 124.187 76.805 112.981 81.234 106.061 C 75.768 100.532 69.28 97.904 63.42 99.634 C 52.841 102.764 48.263 118.927 53.216 135.665 C 55.603 143.733 59.821 150.743 65.092 155.402 C 69.172 159.008 73.514 160.883 77.641 160.883 C 78.913 160.883 80.164 160.705 81.381 160.345 C 84.702 159.362 87.431 157.095 89.459 153.929 C 84.907 149.322 81.264 142.931 79.115 135.664 Z" fill="#bf7fe3"/>
    <path d="M 392.256 290.011 C 385.198 287.925 377.287 290.328 369.981 296.785 C 362.741 303.183 356.947 312.815 353.667 323.903 C 346.871 346.875 353.123 369.05 367.604 373.335 C 369.264 373.826 370.97 374.068 372.705 374.068 C 378.349 374.068 384.291 371.499 389.879 366.561 C 397.119 360.163 402.912 350.531 406.193 339.443 C 412.989 316.471 406.737 294.295 392.256 290.011 Z" fill="#cc98e9"/>
    <path d="M 422.148 188.978 C 415.935 187.142 408.976 189.255 402.551 194.932 C 396.192 200.552 391.104 209.01 388.223 218.748 C 385.342 228.485 385.01 238.349 387.287 246.526 C 389.588 254.786 394.277 260.347 400.49 262.184 C 401.952 262.616 403.454 262.83 404.982 262.83 C 409.948 262.83 415.174 260.571 420.087 256.229 C 426.446 250.609 431.534 242.151 434.415 232.413 C 437.296 222.676 437.628 212.811 435.351 204.635 C 433.049 196.376 428.36 190.815 422.148 188.978 Z" fill="#cc98e9"/>
    <path d="M 448.58 99.633 C 438.002 96.51 425.366 107.575 420.415 124.313 C 415.464 141.051 420.041 157.214 430.619 160.344 C 431.837 160.704 433.088 160.882 434.359 160.882 C 438.487 160.882 442.829 159.007 446.908 155.401 C 452.179 150.742 456.397 143.732 458.784 135.664 C 463.736 118.927 459.159 102.763 448.58 99.633 Z" fill="#cc98e9"/>
    <path d="M 467.79 41.489 C 469.869 34.461 473.534 28.624 477.778 24.866 C 476.211 22.857 474.245 21.41 471.927 20.724 C 463.116 18.117 452.597 27.414 448.432 41.49 C 444.268 55.566 448.035 69.089 456.847 71.696 C 461.258 73.001 466.098 71.322 470.354 67.554 C 465.963 61.928 464.721 51.861 467.79 41.489 Z" fill="#bf7fe3"/>
    <path d="M 377.009 323.903 C 380.29 312.815 386.084 303.184 393.323 296.785 C 394.934 295.361 396.576 294.146 398.23 293.121 C 396.436 291.718 394.441 290.657 392.256 290.011 C 385.198 287.925 377.287 290.328 369.981 296.785 C 362.741 303.183 356.947 312.815 353.667 323.903 C 346.871 346.875 353.123 369.05 367.604 373.335 C 369.264 373.826 370.97 374.068 372.705 374.068 C 376.723 374.068 380.892 372.759 384.976 370.228 C 374.88 362.337 371.238 343.41 377.009 323.903 Z" fill="#bf7fe3"/>
    <path d="M 410.628 246.526 C 408.351 238.35 408.683 228.485 411.564 218.748 C 414.445 209.011 419.533 200.553 425.892 194.932 C 426.799 194.13 427.717 193.408 428.642 192.75 C 426.74 190.973 424.56 189.691 422.147 188.978 C 415.934 187.142 408.975 189.255 402.55 194.932 C 396.191 200.552 391.103 209.01 388.222 218.748 C 385.341 228.485 385.009 238.349 387.286 246.526 C 389.587 254.786 394.276 260.347 400.489 262.184 C 401.951 262.616 403.453 262.83 404.981 262.83 C 409.027 262.83 413.244 261.306 417.326 258.401 C 414.334 255.603 412.034 251.571 410.628 246.526 Z" fill="#bf7fe3"/>
    <path d="M 443.756 124.313 C 446.216 115.998 450.573 109.085 455.632 104.614 C 453.741 102.201 451.372 100.46 448.58 99.633 C 438.002 96.51 425.366 107.575 420.415 124.313 C 415.464 141.051 420.041 157.214 430.619 160.344 C 431.837 160.704 433.088 160.882 434.359 160.882 C 438.487 160.882 442.829 159.007 446.908 155.401 C 446.914 155.396 446.919 155.39 446.925 155.385 C 441.638 148.66 440.108 136.646 443.756 124.313 Z" fill="#bf7fe3"/>
  </g>
</svg>