<?xml version="1.0" encoding="utf-8"?>
<!-- Generator: Adobe Illustrator 27.4.1, SVG Export Plug-In . SVG Version: 6.00 Build 0)  -->
<svg version="1.1" id="Layer_1" xmlns="http://www.w3.org/2000/svg" xmlns:xlink="http://www.w3.org/1999/xlink" x="0px" y="0px"
	 viewBox="0 0 108 108" style="enable-background:new 0 0 108 108;" xml:space="preserve">
<style type="text/css">
	.st0{fill:#73AA3A;}
	.st1{fill:none;stroke:#708430;stroke-width:1.1623;stroke-miterlimit:10;}
	.st2{fill:#A5C239;}
	.st3{fill:#558D45;}
	.st4{fill:#90BB3A;}
	.st5{fill:#91B73E;}
	.st6{fill:#A5BD39;}
	.st7{fill:#AFCB36;}
	.st8{fill:#A4C839;}
	.st9{fill:#4A772B;}
	.st10{fill:#708825;}
	.st11{fill:#6D8523;}
	.st12{fill:#809640;}
	.st13{fill:#618429;}
	.st14{fill:#EB8B80;}
	.st15{fill:#BE8065;}
	.st16{fill:#D98664;}
	.st17{fill:#97624E;}
	.st18{fill:#C07F37;}
	.st19{fill:#AB5D56;}
	.st20{fill:#BF926B;}
	.st21{fill:#D89E92;}
	.st22{fill:#95654F;}
	.st23{fill:#CB9679;}
	.st24{fill:#B87065;}
	.st25{fill:#90624C;}
	.st26{fill:#AC6558;}
	.st27{fill:#7E5542;}
	.st28{fill:#CA8369;}
	.st29{fill:#AC745C;}
</style>
<g>
	<path class="st0" d="M69.9,44.8c0,0,2.4-0.7,5.6,1.4c3.2,2,7.5,2.7,9.2-0.5c1.7-3.2,3.7-4.3,3.7-4.3s-0.2,0.5-2.9-1.5
		c-2.7-2-7.6-2.8-10.1-0.9C73,41,69.9,44.8,69.9,44.8z"/>
	<path class="st1" d="M61.5,55.1c0.2,2.9-0.4,8.1-0.8,11.8"/>
	<path class="st1" d="M69.1,58.9c-3.4,1.5-7.7,5-9.7,8.8"/>
	<path class="st1" d="M71,66.2c-4.3-2-7.9-4.4-10.3,0"/>
	<path class="st2" d="M55.2,49.4c-0.1,2.3-1.2,2.8,2.8,7c4,4.1,4,4.1,4,4.1s0.6-0.9,1.4-1.9c0.8-1,4-4.3,2-8.3
		c-2-3.9-3.5-6.1-4.1-6.8c-0.6-0.6-2.2-3.2-2.7-3.8"/>
	<path class="st3" d="M80.4,48.7c-2.5,1.1-6.5-1.5-9.5,0.8c-3,2.3-4.3,8.2-4.9,9.8c-0.6,1.7-2,1,1,1c3,0,3.3,1.1,5.8,0.4
		c2.6-0.7,5.8-4.7,5.9-6.4C78.9,52.7,80.4,48.7,80.4,48.7z"/>
	<path class="st4" d="M66.2,63.9c0.8,0,1.6-0.7,5.4-0.8c3.8-0.1,6.8,0.3,7.8,3.3c1,3,0.1,3.6,1.9,5.5c1.8,1.9,1.8,1.9,1.8,1.9
		S79.8,74,75.2,74c-4.6,0-7.2-4.8-7.9-6.8C66.6,65.2,66.2,63.9,66.2,63.9z"/>
	<path class="st0" d="M64.1,63.9c0,0-1.6,2.1-5.2,2.2c-3.6,0.1-7.4,2.1-7,6.2c0.4,4.1-0.7,6.5-0.7,6.5s-0.1-0.6,3-0.5
		c3.2,0.1,7.4-2.4,8.4-5.7C63.6,69.3,64.1,63.9,64.1,63.9z"/>
	<path class="st5" d="M42.1,58.9c0,0,5,5,6.7,8.4c1.7,3.4,2.3,5.4,0.6,7.9c-1.6,2.5-2.2,4.5-2.2,4.5s-3-4.1-4.8-5.1
		c-1.8-0.9-4-4.4-3.2-6.5C40.1,66.1,42.1,58.9,42.1,58.9z"/>
	<path class="st4" d="M25.7,56.6c0.1-0.9-0.4-2,0.2-6.3c0.6-4.2,1.5-7.4,4.4-7.3c3,0.1,3.4,1.3,5.5,0.1c2.1-1.2,2.1-1.2,2.1-1.2
		s-0.4,3.6-1.3,8.5c-0.8,4.9-5.8,6-7.8,6.1C26.9,56.6,25.7,56.6,25.7,56.6z"/>
	<path class="st6" d="M39.4,78.7c-0.1,0-0.8-3.3-0.6-7c0.1-3.7,0.4-5.6,2.3-6.6c1.8-1,3.7-1.5,5.7-2c2-0.5,2.8-0.4,3.1-1.2
		c0.3-0.8-0.8,0.8-0.5,4.9c0.3,4.1,1,6.2-0.4,7.5c-1.4,1.3-3.6,0.8-5.5,1.7C41.6,77.1,39.4,78.7,39.4,78.7z"/>
	<path class="st1" d="M37.3,43.3c2.1,2.1,5.3,6.7,7.7,9.9"/>
	<path class="st1" d="M44.4,40.2c-1,4-1.2,10.2,0.2,14.7"/>
	<path class="st1" d="M50.8,44.6c-4,1.8-7.9,2.8-6.3,8.2"/>
	<path class="st1" d="M47.1,63.6c0,6,1.1,12.6,3.3,16.7"/>
	<path class="st2" d="M29.5,44c1.5,2,1.2,3.2,6.4,3.2c5.2,0,5.2,0,5.2,0s-0.2-1.2-0.5-2.6c-0.2-1.4-0.6-6.7-4.5-8.3
		c-3.9-1.6-6.3-2-7.1-2.1c-0.8,0-3.5-0.7-4.2-0.8"/>
	<path class="st3" d="M44,22.7c-0.7,2.9-4.9,4-5,8.4c-0.2,4.3,3.1,10.1,4,11.9c0.8,1.8-0.5,2.4,1.3,0c1.9-2.4,2.8-1.7,3.9-4.3
		c1.1-2.5,0.2-8.4-1-9.9C46,27.3,44,22.7,44,22.7z"/>
	<path class="st4" d="M46.2,46.5c0.5-0.6,0.5-1.8,2.7-4.9c2.2-3,4.4-5.1,7.1-3.4c2.7,1.7,2.6,2.8,5.1,3c2.5,0.2,2.5,0.2,2.5,0.2
		s-1.9,2.6-4.7,6c-2.8,3.5-7.8,1.8-9.7,0.8C47.3,47.2,46.2,46.5,46.2,46.5z"/>
	<path class="st0" d="M44.9,48.2c0,0,0.5,2.9-1.7,5.8c-2.2,3-3.1,7.5-0.1,10.3c3,2.8,4,5.3,4,5.3s-0.5-0.3,1.6-2.7
		c2.1-2.4,3.1-7.6,1.3-10.8C48.3,52.7,44.9,48.2,44.9,48.2z"/>
	<path class="st5" d="M28,62.5c0,0,6.5-0.5,9.9,0.7c3.4,1.1,5.1,2.2,5.8,5.3c0.7,3.1,1.7,5,1.7,5s-4.7-0.6-6.5,0.2
		c-1.8,0.8-5.5,0.1-6.4-2C31.5,69.5,28,62.5,28,62.5z"/>
	<path class="st6" d="M49.5,72c0,0,0.7-3.1,2.4-6.1c1.7-3,2.8-4.4,4.9-4.3c2.1,0.1,4,0.7,6.1,1.3c2.1,0.6,2.8,1.1,3.4,0.6
		c0.6-0.5-1.1,0.3-2.6,3.8c-1.5,3.5-1.7,5.6-3.6,6c-1.9,0.4-3.6-1.2-5.8-1.4C52.1,71.8,49.5,72,49.5,72z"/>
	<path class="st6" d="M39.5,79.1c0,0-2.7-1.7-5.1-4.4c-2.4-2.8-3.5-4.4-3-6.7c0.5-2.3,1.3-4.2,2.2-6.3c0.9-2.1,1.5-2.7,1.1-3.5
		c-0.3-0.8,0.1,1.3,3,4.1c3,2.8,4.8,3.7,4.9,5.8c0,2.1-1.7,3.5-2.4,5.7C39.7,76.2,39.5,79.1,39.5,79.1z"/>
	<path class="st1" d="M49.7,63.7c-3.7,4.4-11,9.5-12.4,10.6"/>
	<path class="st7" d="M67.8,74c0,0-2.6,0-5.2-2.9C60,68.2,56,66.3,53.3,69c-2.7,2.7-5.1,3.2-5.1,3.2s0.3-0.5,2.4,2.3
		c2,2.7,6.7,4.7,9.8,3.5C63.5,76.8,67.8,74,67.8,74z"/>
	<path class="st5" d="M55.9,53.1c0,0,0,7-1.3,10.4c-1.2,3.4-2.3,5-5.2,5.1c-2.9,0.1-4.6,0.8-4.6,0.8s0.9-5,0.4-7
		c-0.6-2.1,0.4-5.9,2.4-6.5C49.6,55.4,55.9,53.1,55.9,53.1z"/>
	<path class="st1" d="M60,39.4c4.8,3.8,10.8,11.3,12.1,12.7"/>
	<path class="st0" d="M65.6,20.2c0,0,0.5,2.8-1.6,5.4c-2.1,2.7-3.1,7-0.1,9.9c3,2.8,4,5.3,4,5.3s-0.5-0.3,1.6-2.5
		c2.1-2.1,3-7,1.3-10.3C69,24.8,65.6,20.2,65.6,20.2z"/>
	<path class="st5" d="M48.9,32.8c0,0,6.5,0,9.8,1.3c3.3,1.3,5.1,2.4,5.7,5.5c0.7,3.1,1.7,4.9,1.7,4.9s-4.7-0.9-6.4-0.2
		c-1.7,0.7-5.4-0.2-6.4-2.4C52.4,39.7,48.9,32.8,48.9,32.8z"/>
	<path class="st1" d="M33.2,52.8c2.2-1.6,6.7-3.6,9.8-5"/>
	<path class="st1" d="M31.4,43.7c3.4,2.5,8.8,4.9,12.9,4.9"/>
	<path class="st1" d="M36.2,38.3c1,5.1,1.3,9.7,6.3,9.8"/>
	<path class="st1" d="M52.5,49c5.3,2,11.4,3.1,15.4,2.3"/>
	<path class="st1" d="M55.5,59c4.1-3.8,11.8-7.4,13.3-8.3"/>
	<path class="st1" d="M59.1,45.8c1.3,3.6,1.2,6.3,7.6,6"/>
	<path class="st4" d="M37.3,44c-0.5-0.7-1.5-1.2-3.9-4.8c-2.4-3.6-3.9-6.8-2.1-9.1c1.9-2.4,2.9-1.8,3.4-4.5c0.5-2.7,0.5-2.7,0.5-2.7
		s2.1,3.1,4.8,7.6c2.7,4.4,0.5,9.1-0.7,10.8C38,43,37.3,44,37.3,44z"/>
	<path class="st7" d="M38.5,46c0,0,2.6,0.5,4.9,3.8c2.3,3.3,6.1,5.9,9.1,3.6c3-2.2,5.4-2.4,5.4-2.4s-0.4,0.4-2.1-2.6
		c-1.8-3-6.2-5.8-9.4-5.2C43.1,43.9,38.5,46,38.5,46z"/>
	<path class="st0" d="M48.2,68.8c0,0,0.7-7,2.3-10.2c1.6-3.2,2.8-4.6,5.7-4.3c2.9,0.3,4.7-0.1,4.7-0.1s-1.4,4.6-1,6.7
		c0.4,2.1-0.9,5.6-3,6C54.8,67.2,48.2,68.8,48.2,68.8z"/>
	<path class="st6" d="M60.4,49.4c0,0-2.7-1.8-5-4.6c-2.4-2.8-3.5-4.5-3-6.6c0.5-2.1,1.3-3.9,2.2-5.9c0.9-1.9,1.4-2.5,1.1-3.3
		c-0.3-0.8,0.1,1.3,3,4.1c3,2.8,4.8,3.9,4.8,5.9c0,2-1.7,3.2-2.3,5.3C60.6,46.6,60.4,49.4,60.4,49.4z"/>
	<path class="st7" d="M68.8,73.2c0,0,0.3-2.7,3.2-4.7c2.9-2,5-5.6,2.8-9c-2.2-3.4-2.5-5.9-2.5-5.9s0.4,0.4-2.3,1.9
		c-2.7,1.4-5,5.8-4.2,9.3C66.6,68.2,68.8,73.2,68.8,73.2z"/>
	<path class="st6" d="M70.6,50.6c0,0.1-1.5,2.5-4,4.6c-2.4,2.1-3.9,3.1-5.9,2.3c-2-0.8-3.7-1.9-5.6-3.2c-1.9-1.3-2.4-2-3.1-1.7
		c-0.7,0.2,1.2,0.1,3.6-2.7c2.4-2.8,3.2-4.6,5.1-4.3c1.9,0.3,3.2,2.4,5.2,3.4C67.9,49.9,70.6,50.6,70.6,50.6z"/>
	<path class="st1" d="M74.4,44.8C69,43.3,63,42.8,59.1,44"/>
	<path class="st1" d="M70.4,35.4c-3.6,4-10.8,8.4-12.2,9.4"/>
	<path class="st1" d="M68.3,48.6c-1.6-3.5-1.8-6.1-8.1-5.2"/>
	<path class="st5" d="M76.6,25.7c0,0,0,6.7-1.2,9.8c-1.2,3.1-2.2,4.6-5.1,4.5c-2.9-0.1-4.6,0.5-4.6,0.5s0.9-4.7,0.3-6.7
		c-0.6-2,0.3-5.6,2.3-6C70.3,27.4,76.6,25.7,76.6,25.7z"/>
	<path class="st6" d="M66.6,45.2c0,0,2.8,1.5,5.4,4c2.6,2.4,3.9,3.9,3.6,6c-0.2,2.1-0.8,4-1.5,6c-0.7,2-1.2,2.6-0.8,3.3
		c0.4,0.7-0.2-1.2-3.4-3.5c-3.2-2.3-5.2-3.1-5.4-5.1c-0.2-2,1.4-3.5,1.7-5.6C66.7,48,66.6,45.2,66.6,45.2z"/>
	<path class="st1" d="M59.7,57.8c2.1,2,5.4,6.3,7.7,9.3"/>
	<path class="st1" d="M66.8,54.6c-1,3.8-1.2,9.8,0.3,14"/>
	<path class="st2" d="M51.9,58.6c1.5,1.9,1.2,3.1,6.5,2.9c5.3-0.1,5.3-0.1,5.3-0.1s-0.2-1.2-0.5-2.5c-0.2-1.3-0.6-6.4-4.5-7.8
		c-3.9-1.4-6.3-1.8-7.1-1.8c-0.8,0-3.5-0.6-4.2-0.7"/>
	<path class="st3" d="M66.3,37.9c-0.7,2.8-4.9,3.9-5,8.1c-0.1,4.1,3.2,9.6,4,11.3c0.8,1.7-0.5,2.3,1.3-0.1c1.9-2.3,2.8-1.7,3.9-4.2
		c1.1-2.5,0.1-8-1-9.4C68.4,42.3,66.3,37.9,66.3,37.9z"/>
	<path class="st0" d="M67.4,62.2c0,0,0.5,2.7-1.6,5.6c-2.2,2.9-3.1,7.3-0.1,9.9c3.1,2.6,4,5,4,5s-0.5-0.3,1.6-2.7
		c2.1-2.3,3-7.3,1.3-10.4C70.9,66.5,67.4,62.2,67.4,62.2z"/>
	<path class="st4" d="M25.6,37c0.5-0.7,0.5-1.9,2.8-5.1c2.3-3.1,4.4-5.2,7.1-3.5c2.7,1.8,2.6,3,5.1,3.2c2.5,0.2,2.5,0.2,2.5,0.2
		s-1.9,2.7-4.7,6.3c-2.9,3.6-7.8,1.8-9.7,0.7C26.7,37.8,25.6,37,25.6,37z"/>
	<path class="st6" d="M28.7,63.6c0,0,0.7-3.3,2.4-6.4c1.7-3.1,2.8-4.5,4.9-4.4c2.1,0.2,4,0.7,6.1,1.4c2.1,0.7,2.8,1.2,3.4,0.7
		c0.6-0.5-1.1,0.3-2.6,3.9c-1.5,3.7-1.8,5.9-3.6,6.3c-1.9,0.4-3.6-1.3-5.7-1.5C31.4,63.4,28.7,63.6,28.7,63.6z"/>
	<path class="st1" d="M51.6,58.6c-2,1.9-6.2,4.4-9.2,6.3"/>
	<path class="st1" d="M54.2,67c-3.6-1.9-9.1-3.5-13.3-2.9"/>
	<path class="st1" d="M50,73.1c-1.5-4.8-2.3-9.2-7.2-8.6"/>
	<path class="st2" d="M51.3,49.9c-1.8,1.2-2.9,0.6-3.1,6.3C48,62,48,62,48,62s1.1,0,2.4,0c1.3,0,6,0.8,7.5-3.1
		c1.5-3.9,1.9-6.4,1.9-7.2c0-0.8,0.7-3.6,0.8-4.3"/>
	<path class="st8" d="M70.1,70.1c-2.7-1.3-3.7-6-7.5-7.1c-3.9-1.1-9.1,1.3-10.8,1.8c-1.7,0.5-2.1-1.1,0,1.5c2.1,2.5,1.5,3.4,3.8,5.1
		c2.3,1.7,7.7,1.8,9,0.9C65.9,71.3,70.1,70.1,70.1,70.1z"/>
	<path class="st3" d="M48.4,67.6c0.6,0.7,1.6,0.9,4.4,4c2.7,3,4.6,5.7,3,8.4c-1.6,2.6-2.7,2.3-2.9,5c-0.2,2.7-0.2,2.7-0.2,2.7
		s-2.4-2.5-5.5-6.3c-3.1-3.8-1.3-8.9-0.4-10.8C47.7,68.7,48.4,67.6,48.4,67.6z"/>
	<path class="st7" d="M47,65.9c0,0-2.6-0.1-5.2-3.1c-2.5-3-6.6-5.1-9.3-2.4c-2.7,2.8-5.1,3.3-5.1,3.3s0.3-0.5,2.4,2.4
		c2,2.9,6.7,5,9.8,3.8C42.7,68.7,47,65.9,47,65.9z"/>
	<path class="st1" d="M37,42.5c5.4-0.5,11-2.1,14.2-4.7"/>
	<path class="st1" d="M43.4,50.9c2.1-5.6,7.3-12.6,8.3-14.1"/>
	<path class="st1" d="M41.5,36.2c2.5,3,3.5,5.7,8.9,2.6"/>
	<path class="st0" d="M23.7,46.2c0,0,2.4-0.8,5.6,1.4c3.2,2.2,7.5,2.8,9.2-0.8c1.7-3.6,3.8-4.8,3.8-4.8s-0.2,0.5-2.8-1.6
		c-2.7-2.2-7.6-2.9-10.1-0.7C26.9,41.9,23.7,46.2,23.7,46.2z"/>
	<path class="st5" d="M40.8,63.6c0,0-2-7.1-1.9-10.9c0.2-3.8,0.7-5.8,3.3-6.8c2.6-1,4-2.2,4-2.2s0.6,5.1,1.7,7
		c1.1,1.8,1.4,5.9-0.3,7.1C46,59.1,40.8,63.6,40.8,63.6z"/>
	<path class="st6" d="M44,39.3c0,0.1-3-0.6-6.1-2.2c-3.1-1.7-4.7-2.8-5.1-5.2c-0.4-2.4-0.4-4.6-0.4-6.9c0-2.4,0.3-3.2-0.3-3.8
		c-0.6-0.7,0.5,1.2,4.2,2.8c3.6,1.5,5.6,1.7,6.4,3.7c0.8,2-0.2,4,0.1,6.4C43.1,36.3,44,39.3,44,39.3z"/>
	<path class="st1" d="M63.2,78c-2-2.1-5.1-6.5-7.2-9.7"/>
	<path class="st1" d="M55.8,81c1.3-3.9,1.8-9.9,0.6-14.3"/>
	<path class="st1" d="M54.5,58c0.3-5.9-0.4-12.4-2.3-16.7"/>
	<path class="st1" d="M62.7,53.9c-4.6-4-10.1-12-11.4-13.6"/>
	<path class="st1" d="M49.6,51.2c3-1.7,5.5-1.8,3.4-8.7"/>
	<path class="st7" d="M55.7,73.2c0,0-0.3-2.8,2-5.6c2.3-2.7,3.6-7,0.7-9.9c-2.9-2.9-3.7-5.5-3.7-5.5s0.5,0.4-1.8,2.5
		c-2.2,2.2-3.5,7.2-2,10.6C52.6,68.7,55.7,73.2,55.7,73.2z"/>
	<path class="st0" d="M73.5,60.7c0,0-6.5-0.1-9.9-1.4c-3.3-1.4-5-2.5-5.5-5.6c-0.5-3.1-1.4-5-1.4-5s4.6,1.1,6.4,0.6
		c1.8-0.5,5.4,0.6,6.3,2.7C70.3,54,73.5,60.7,73.5,60.7z"/>
	<path class="st6" d="M52.6,49.5c0,0.1-0.9,3-2.8,5.8c-1.9,2.8-3,4.2-5.1,3.9c-2.1-0.3-4-1-6-1.8c-2-0.8-2.7-1.3-3.3-0.9
		c-0.6,0.5,1.1-0.2,2.8-3.8c1.7-3.5,2.1-5.7,4-5.9c1.9-0.2,3.5,1.6,5.6,2.1C49.9,49.5,52.6,49.5,52.6,49.5z"/>
	<path class="st1" d="M58.5,37.8c-5.4-1.4-11.4-1.8-15.3-0.4"/>
	<path class="st1" d="M54.3,28.2c-3.5,4.2-10.6,8.9-12,10"/>
	<path class="st1" d="M52.4,42c-1.7-3.6-1.9-6.3-8.1-5.2"/>
	<path class="st7" d="M72.5,39.2c0,0-2.6-0.2-5.2-3.1c-2.6-3-6.7-5.1-9.3-2.6c-2.6,2.6-4.9,3-4.9,3s0.3-0.4,2.4,2.4
		c2.1,2.8,6.8,5,9.8,3.9C68.3,41.7,72.5,39.2,72.5,39.2z"/>
	<path class="st0" d="M60.2,17.9c0,0,0.2,7-1,10.3c-1.1,3.3-2.1,4.9-5,4.8c-2.9,0-4.6,0.6-4.6,0.6s0.8-4.9,0.2-7
		c-0.6-2.1,0.2-5.9,2.2-6.3C54,19.9,60.2,17.9,60.2,17.9z"/>
	<path class="st6" d="M50.7,38.4c0,0,2.8,1.5,5.5,4c2.7,2.5,3.9,3.9,3.7,6.1c-0.2,2.2-0.8,4.1-1.4,6.2c-0.7,2.1-1.1,2.7-0.7,3.5
		c0.4,0.7-0.2-1.2-3.5-3.6c-3.3-2.3-5.2-3.1-5.5-5.2c-0.3-2.1,1.3-3.6,1.6-5.9C50.8,41.4,50.7,38.4,50.7,38.4z"/>
	<path class="st1" d="M44.1,34.6c0.3,6,1.6,12.7,3.9,16.8"/>
	<path class="st1" d="M36.4,39.6c4.9,3.7,11.1,11.3,12.5,12.7"/>
	<path class="st1" d="M49.6,41.1c-2.8,2-5.2,2.4-2.5,9.2"/>
	<path class="st7" d="M41.4,18.9c0,0,0.6,2.9-1.4,5.9c-2,3-2.8,7.6,0.3,10.4c3.1,2.8,4.1,5.4,4.1,5.4s-0.5-0.3,1.5-2.7
		c2-2.4,2.7-7.6,0.9-10.9C45,23.6,41.4,18.9,41.4,18.9z"/>
	<path class="st5" d="M25.2,33.3c0,0,6.4-0.4,9.8,0.8c3.4,1.2,5.1,2.2,5.9,5.4c0.8,3.2,1.9,5,1.9,5s-4.7-0.6-6.4,0.1
		c-1.7,0.8-5.4,0.1-6.4-2.1C28.9,40.3,25.2,33.3,25.2,33.3z"/>
	<path class="st6" d="M46.8,43.1c0,0,0.6-3.2,2.1-6.2c1.5-3,2.6-4.4,4.7-4.2c2.1,0.2,4,0.7,6.1,1.4c2.1,0.7,2.8,1.1,3.4,0.7
		c0.6-0.5-1.1,0.3-2.4,3.8c-1.3,3.6-1.5,5.7-3.3,6c-1.8,0.4-3.6-1.2-5.7-1.5C49.4,42.9,46.8,43.1,46.8,43.1z"/>
	<path class="st2" d="M56.2,68c-1.8,1.3-2.9,0.8-2.9,6.5c0,5.7,0,5.7,0,5.7s1.1-0.1,2.4-0.1c1.3,0,6.1,0.4,7.5-3.6
		c1.4-3.9,1.8-6.4,1.8-7.3c0-0.8,0.6-3.6,0.7-4.3"/>
	<path class="st0" d="M40,63.2c0,0,0.1,7.3-1,10.8c-1.2,3.6-2.2,5.3-5.1,5.6c-2.9,0.2-4.6,1.1-4.6,1.1s0.8-5.2,0.2-7.3
		c-0.6-2.1,0.3-6.1,2.2-6.8C33.7,65.8,40,63.2,40,63.2z"/>
	<path class="st3" d="M22.2,64.4c0.5-0.7,0.4-2,2.6-5.4c2.1-3.4,4.2-5.7,7-4.2c2.8,1.5,2.7,2.7,5.2,2.7c2.5,0,2.5,0,2.5,0
		s-1.8,2.9-4.5,6.8c-2.7,3.9-7.8,2.6-9.7,1.7C23.4,65,22.2,64.4,22.2,64.4z"/>
	<path class="st0" d="M46.4,68.9c0,0-6.6,0.1-9.9-1.3c-3.3-1.3-5-2.5-5.5-5.8c-0.5-3.3-1.4-5.2-1.4-5.2s4.6,1.1,6.5,0.5
		c1.8-0.6,5.5,0.4,6.3,2.7C43.3,61.9,46.4,68.9,46.4,68.9z"/>
	<path class="st1" d="M49.9,38.8c-1.9,1.8-6.1,4.4-9,6.2"/>
	<path class="st1" d="M52.7,47.3c-3.6-2-9.2-3.6-13.2-3"/>
	<path class="st1" d="M48.7,53.4c-1.6-4.8-2.5-9.3-7.3-8.8"/>
	<path class="st2" d="M49.4,30.2c-1.7,1.2-2.8,0.5-2.9,6.3c0,5.8,0,5.8,0,5.8s1.1,0,2.4,0.1c1.3,0.1,6,0.8,7.4-3
		c1.4-3.9,1.7-6.4,1.7-7.2c0-0.9,0.6-3.6,0.7-4.3"/>
	<path class="st8" d="M68.5,50.6c-2.7-1.4-3.8-6.1-7.6-7.2c-3.9-1.1-9,1.2-10.7,1.7c-1.7,0.5-2.1-1.1,0,1.5c2.1,2.6,1.6,3.4,3.9,5.1
		c2.3,1.7,7.7,1.9,9,1C64.4,51.8,68.5,50.6,68.5,50.6z"/>
	<path class="st4" d="M47,47.9c0.6,0.7,1.6,0.9,4.4,4.1c2.8,3.1,4.7,5.8,3.2,8.4c-1.5,2.6-2.6,2.3-2.7,5c-0.1,2.7-0.1,2.7-0.1,2.7
		s-2.4-2.6-5.7-6.4c-3.2-3.9-1.6-9-0.6-10.9C46.3,49,47,47.9,47,47.9z"/>
	<path class="st7" d="M45.5,46.2c0,0-2.6-0.1-5.2-3.1c-2.6-3.1-6.6-5.2-9.3-2.5c-2.6,2.8-5,3.3-5,3.3s0.3-0.5,2.4,2.4
		c2.1,2.9,6.8,5.1,9.8,3.9C41.3,49,45.5,46.2,45.5,46.2z"/>
	<path class="st6" d="M43.7,77.5c0,0,0.6-3.2,2.2-6.4c1.6-3.1,2.6-4.6,4.7-4.6c2.1,0,4,0.5,6.1,1c2.1,0.5,2.8,0.9,3.4,0.4
		c0.6-0.5-1.1,0.4-2.4,4c-1.3,3.7-1.5,5.8-3.4,6.3c-1.8,0.5-3.6-1-5.8-1.1C46.3,77.1,43.7,77.5,43.7,77.5z"/>
	<path class="st1" d="M66.2,66.9c2.5,2.8,3.5,5.2,9,2"/>
	<path class="st4" d="M46.6,76.1c-0.7-0.4-1.8-0.3-5.2-2.3c-3.4-2.1-5.9-4.1-5.2-7.3c0.7-3.2,1.8-3.2,1.2-6
		c-0.6-2.8-0.6-2.8-0.6-2.8s3,1.8,7,4.5c4,2.7,3.9,8.2,3.5,10.4C46.9,74.8,46.6,76.1,46.6,76.1z"/>
	<path class="st6" d="M68.8,69.6c0,0.1-3-0.4-6.2-1.8c-3.1-1.4-4.7-2.4-5.2-4.7C57,60.9,57,58.8,57,56.6c0-2.3,0.3-3-0.3-3.6
		c-0.6-0.6,0.6,1.2,4.2,2.4c3.7,1.2,5.7,1.3,6.5,3.2c0.8,1.9-0.2,3.8,0.1,6.1C67.9,66.9,68.8,69.6,68.8,69.6z"/>
	<path class="st1" d="M58.3,46.1c2.2,2,5.6,6.2,8,9.2"/>
	<path class="st1" d="M65.3,42.8c-0.8,3.9-0.8,9.8,0.8,14.1"/>
	<path class="st1" d="M71.8,46.7c-3.9,1.9-7.7,3-5.9,8.1"/>
	<path class="st2" d="M50.6,47.1c1.6,1.8,1.3,3.1,6.5,2.8c5.2-0.2,5.2-0.2,5.2-0.2s-0.3-1.2-0.6-2.5c-0.3-1.3-0.9-6.4-4.8-7.8
		c-3.9-1.4-6.4-1.7-7.1-1.7c-0.8,0-3.5-0.5-4.2-0.6"/>
	<path class="st8" d="M64.1,25.9c-0.6,2.9-4.7,4.1-4.6,8.3c0,4.2,3.6,9.6,4.4,11.3c0.9,1.7-0.4,2.3,1.3-0.1c1.8-2.4,2.7-1.8,3.7-4.3
		c1-2.5-0.2-8.1-1.4-9.5C66.3,30.3,64.1,25.9,64.1,25.9z"/>
	<path class="st7" d="M66.1,50.4c0,0,0.6,2.7-1.4,5.7c-2,2.9-2.8,7.4,0.3,9.9c3.1,2.5,4.2,4.9,4.2,4.9s-0.5-0.3,1.5-2.7
		c2-2.4,2.7-7.4,0.9-10.4C69.7,54.6,66.1,50.4,66.1,50.4z"/>
	<path class="st5" d="M49.8,64.9c0,0,6.5-0.7,9.9,0.2c3.4,0.9,5.2,1.9,6,4.9c0.8,3,1.9,4.7,1.9,4.7s-4.7-0.4-6.4,0.5
		c-1.7,0.8-5.4,0.4-6.5-1.7C53.6,71.4,49.8,64.9,49.8,64.9z"/>
	<path class="st4" d="M48,85.4c-0.7-0.4-1.8-0.3-5.2-2.2c-3.5-2-6-4-5.2-7.2c0.7-3.2,1.8-3.2,1.2-6c-0.6-2.8-0.6-2.8-0.6-2.8
		s3,1.7,7,4.4c4,2.6,3.9,8.1,3.5,10.3C48.3,84.1,48,85.4,48,85.4z"/>
	<path class="st6" d="M70.3,78.5c0,0.1-3-0.3-6.2-1.7c-3.1-1.4-4.7-2.3-5.2-4.6c-0.4-2.2-0.4-4.3-0.4-6.6c0-2.3,0.3-3-0.3-3.6
		c-0.6-0.6,0.6,1.1,4.2,2.3c3.7,1.2,5.7,1.2,6.5,3.1c0.8,1.9-0.2,3.8,0.1,6.1C69.3,75.8,70.3,78.5,70.3,78.5z"/>
	<path class="st1" d="M59.7,55.2c2.2,1.9,5.6,6.1,8.1,9.1"/>
	<path class="st1" d="M66.7,51.8c-0.8,3.9-0.8,9.8,0.8,14"/>
	<path class="st2" d="M52,56.4c1.6,1.8,1.3,3,6.6,2.7c5.2-0.3,5.2-0.3,5.2-0.3s-0.3-1.2-0.6-2.5c-0.3-1.3-0.9-6.4-4.8-7.7
		C54.4,47.2,52,47,51.2,47c-0.8,0-3.5-0.4-4.2-0.5"/>
	<path class="st8" d="M65.6,35c-0.6,2.9-4.7,4.2-4.6,8.3c0,4.2,3.6,9.5,4.5,11.2c0.9,1.7-0.4,2.3,1.3-0.1c1.8-2.4,2.7-1.8,3.7-4.3
		c1-2.5-0.2-8.1-1.4-9.4C67.8,39.4,65.6,35,65.6,35z"/>
	<path class="st7" d="M67.6,59.4c0,0,0.6,2.7-1.4,5.7c-2,3-2.8,7.4,0.3,9.9c3.2,2.5,4.2,4.8,4.2,4.8s-0.5-0.3,1.5-2.7
		c2-2.4,2.7-7.4,0.9-10.4C71.2,63.6,67.6,59.4,67.6,59.4z"/>
	<path class="st9" d="M62.4,90c0,0-6.4-2.6-9.1-5c-2.7-2.4-3.8-4-2.9-6.7c0.9-2.8,0.8-4.7,0.8-4.7s4.2,2.7,6.3,2.9
		c2.1,0.2,5.3,2.5,5.1,4.6C62.6,83.2,62.4,90,62.4,90z"/>
	<path class="st1" d="M36.8,65.1c2.2,2,5.6,6.3,8,9.3"/>
	<path class="st1" d="M43.8,61.3C42.9,65.4,43,71.6,44.5,76"/>
	<path class="st1" d="M50.3,65.1c-4,2.1-7.8,3.5-6,8.7"/>
	<path class="st2" d="M29,66.5c1.6,1.8,1.3,3.1,6.6,2.6c5.3-0.5,5.3-0.5,5.3-0.5s-0.3-1.2-0.6-2.6c-0.3-1.4-0.8-6.7-4.8-7.9
		c-4-1.2-6.4-1.5-7.2-1.4c-0.8,0.1-3.5-0.4-4.2-0.4"/>
	<path class="st8" d="M42.8,43.7c-0.6,3-4.7,4.5-4.7,8.9c0,4.4,3.5,9.9,4.4,11.6c0.9,1.8-0.4,2.4,1.3-0.1c1.8-2.5,2.7-2,3.7-4.6
		c1-2.7-0.2-8.5-1.3-9.8C44.9,48.2,42.8,43.7,42.8,43.7z"/>
	<path class="st3" d="M45.8,67.5c0.5-0.7,0.4-1.9,2.6-5.2c2.1-3.3,4.2-5.5,6.9-4c2.8,1.4,2.7,2.6,5.2,2.6c2.5,0,2.5,0,2.5,0
		s-1.8,2.8-4.5,6.5c-2.7,3.8-7.7,2.5-9.7,1.6C47,68.1,45.8,67.5,45.8,67.5z"/>
	<path class="st0" d="M66.2,27.7c0,0-1.8,8.3-4.3,12.6c-2.5,4.4-4.3,6.6-8.2,7.6c-3.9,1-6.4,2.4-6.4,2.4s2.5-6.2,2.3-8.6
		c-0.2-2.3,2-7.2,4.8-8.4C57.2,32.1,66.2,27.7,66.2,27.7z"/>
	<path class="st0" d="M43.5,31.1c0,0-1.9,8.7-4.4,13.3c-2.5,4.6-4.4,7-8.3,8.1c-3.9,1.1-6.4,2.7-6.4,2.7s2.6-6.6,2.3-9
		c-0.2-2.4,2-7.5,4.9-8.9C34.4,36,43.5,31.1,43.5,31.1z"/>
	<path class="st2" d="M22.6,61.1c2.6-0.5,2.8-0.3,7.1-2.6c4.7-1.4,4.9-0.5,4.8-0.7c0,0-0.5-1-1.2-2.2c-0.5-0.9-3.1-6.2-9.5-4.3
		c-6.1,2.4-8.4,7.1-8.9,8.3c-0.7,1.2-2.6,6.4-2.7,8"/>
	<path class="st2" d="M75.7,63.1c-2.6-0.8-2.8-0.6-7.2-3.3c-4.7-2-4.9-1.2-4.8-1.4c0,0,0.5-0.9,1.1-1.9c0.5-0.8,3-5.2,9.4-2.4
		c6.2,3.1,8.5,7.6,9.1,8.6c0.8,1.1,2.8,5.8,2.9,7.2"/>
	<path class="st10" d="M68.9,28c-1,2.4-0.8,2.7-3.6,6.4c-2.1,4.3-1.4,4.8-1.6,4.7c0,0-0.8-0.7-1.7-1.7c-0.7-0.8-4.7-4.7-1.7-10.7
		c3.3-5.5,7.7-6.4,8.8-6.7c1.1-0.4,5.8-0.8,7.2-0.4"/>
	<path class="st11" d="M42.8,42.3c-1,2.6-0.8,2.9-3.7,6.9c-2.2,4.7-1.4,5.1-1.6,5c0,0-0.8-0.8-1.7-1.8c-0.7-0.8-4.7-4.8-1.6-11.2
		c3.4-5.9,7.8-7.1,8.9-7.4c1.1-0.5,5.9-1.1,7.2-0.8"/>
	<path class="st8" d="M55,11.4c-0.3,3.8-2.9,8.8-2.8,13.6c0.1,4.8,2.3,8,2.9,9.3c0.6,1.3-0.2,3,0.8-1.2c1.1-4.2,1.6-4.4,2.2-8.1
		c0.6-3.7-0.2-9.3-1-9.8C56.4,14.6,55,11.4,55,11.4z"/>
	<path class="st3" d="M58.4,57.8c0.8-0.1,1-1.7,5.7-1.1c4.8,0.9,10.1,5.5,11.5,11.5c1.2,5.8,0,5.1,1.2,10.5c0.8,5.5,0.4,5.6,0.5,5.5
		c0,0.2-2.3-6.7-7.3-11.8c-4.7-5-7.5-9.2-9.1-11.4C59.5,58.9,58.4,57.8,58.4,57.8z"/>
	<path class="st3" d="M43.4,45.6c0.7-0.5,0-2.2,4.2-4c4.4-1.6,10.9,0.3,15,5.4c3.7,5,2.4,4.9,6,9.5c3.3,4.8,3,5.1,3.1,5
		c0.1,0.1-5.2-5.3-11.8-7.8c-6.3-2.5-10.6-5-12.9-6.4C44.9,46.2,43.4,45.7,43.4,45.6z"/>
	<path class="st3" d="M22.5,54.8c0.5-0.7-0.4-2.3,3.3-5.3c3.9-2.9,10.5-2.6,15.3,1.7c4.6,4.3,3.3,4.5,7.7,8.4c4.2,4.2,3.9,4.5,4,4.4
		c0.1,0.1-6-4.2-12.9-5.1c-6.5-1-11.1-2.4-13.6-3.2C24,54.9,22.5,54.8,22.5,54.8z"/>
	<path class="st3" d="M62.8,46.2c0-0.9-1.6-1.5-0.6-6.2c1.1-4.7,5.9-8.7,11.7-8.2c5.7,0.7,4.9,1.6,10.2,2.2c5.4,1,5.4,1.4,5.4,1.3
		c0.2,0-6.7,0.1-12.1,3.4c-5.2,3.2-9.3,4.8-11.5,5.8C63.9,45.3,62.8,46.2,62.8,46.2z"/>
	<path class="st3" d="M40.7,69.4c-0.8-0.2-1-2-5.8-1.9c-4.8,0.3-10,4.8-11.3,11.4c-1,6.5,0.2,5.7-0.9,11.9c-0.6,6.2-0.3,6.3-0.4,6.3
		c0,0.2,2.1-7.5,7-13c4.6-5.1,7.3-9.3,8.9-11.5C39.7,70.4,40.8,69.4,40.7,69.4z"/>
	<path class="st12" d="M70.3,53.8c0-0.9,1.6-1,0.9-6c-0.9-5.1-5.5-10.7-11.3-12.4c-5.7-1.4-4.9-0.1-10.3-1.6c-5.4-1-5.4-0.6-5.4-0.7
		c-0.2,0,6.6,2.7,11.8,8.3c5,5.1,9,8.2,11.1,9.9C69.2,52.6,70.3,53.8,70.3,53.8z"/>
	<path class="st4" d="M36.8,48.1c-1.1,0.3-2.1,1.1-7.4,2.5c-5.3,1.5-9.6,2.3-11.3,0.5c-1.8-1.9-0.6-2.7-3.4-3.5
		c-2.8-0.8-2.8-0.8-2.8-0.8s4.5-1.3,10.9-2.9c6.4-1.5,10.7,1.1,12,2.3C36.1,47.3,36.8,48.1,36.8,48.1z"/>
	<path class="st4" d="M95.5,51.8c-1.1,0.2-2.1,0.8-7.3,1.9c-5.2,1.1-9.5,1.7-11.3,0c-1.8-1.7-0.7-2.3-3.5-3.1
		c-2.8-0.8-2.8-0.8-2.8-0.8s4.5-1,10.8-2.1c6.3-1.1,10.6,1.3,12,2.4C94.8,51.1,95.5,51.8,95.5,51.8z"/>
	<path class="st4" d="M85,50.7c-1.1,0.2-2.1,0.9-7.4,2.1c-5.2,1.3-9.5,2-11.3,0.3c-1.8-1.7-0.7-2.4-3.5-3.2C60,49.1,60,49.1,60,49.1
		s4.5-1.1,10.8-2.5c6.3-1.3,10.7,1.1,12,2.2C84.2,50,85,50.7,85,50.7z"/>
	<path class="st13" d="M31.2,14.8c0.8,1,2,1.8,6.1,6.6c4.1,4.8,7.2,8.7,6.8,11.1c-0.4,2.4-1.6,1.6-0.6,4.6c1,3,1,3,1,3
		s-3.6-4-8.4-9.7c-4.8-5.8-5.4-11.1-5.2-12.9C31,15.8,31.2,14.8,31.2,14.8z"/>
	<path class="st14" d="M44.6,28.2c0.8-0.3,1.6-2.4,2.6,0.5c1,2.8,2.8,3.6,1.5,5.2c-1.2,1.5-3.1,2.9-3.7,2.2c-0.7-0.7-1.5-3-2-3.5
		c-0.5-0.6-0.6-1.3-0.3-1.8C43,30.3,44.6,28.2,44.6,28.2z"/>
	<path class="st15" d="M45.6,29.5c0,0,1.4-1.9,0.8-3.9c-0.6-2-0.2-2.5-1.7-3c-1.5-0.4-1.6,0.7-2.2-1.1c-0.6-1.8-0.9-4.6-1.4-3.1
		c-0.5,1.6-0.5,1.1-0.6,3.1c-0.1,2-1,3.8-1.4,4.8c-0.4,1-1,1.3,0.4,2c1.4,0.7,1.3,0.5,3,1.3c1.7,0.9,1.8,2.2,2.2,1.9
		C45,31.2,45.6,29.5,45.6,29.5z"/>
	<path class="st16" d="M35,34.4c0,0-0.7-1.2-1.1-2.4c-0.4-1.2-0.6-1.9-0.4-2.3c0.2-0.4,0.2-1.2,0.1-1.7c-0.1-0.5-1.3,0.1-0.1-0.5
		c1.2-0.5,4.3-0.4,5.5-1.3c1.3-0.9,2.8,0.1,3,0.8c0.3,0.7,1.9,3.3,2,3.5c0.1,0.2,0.8,2.6,0.8,2.6l-4.1,0.2l-2.9,1L35,34.4z"/>
	<path class="st15" d="M29.3,36.7c0.4,0.1,1,0.9,2.8-1c1.8-1.9,2.8-2.6,4.6-3.4c1.8-0.8,2.5-0.9,3.9-0.7c1.4,0.2,2.1,0.1,2.4,0.8
		c0.3,0.7-1.7,4.1-2.4,4.7c-0.7,0.6-3.9,2.9-4.7,3c-0.8,0.1-2.8,1.1-3.9,0c-1.1-1.1-1.4-1.4-1.5-1.5C30.2,38.5,29.3,36.7,29.3,36.7z
		"/>
	<path class="st17" d="M29.9,43.1c0,0,1,1.4,2-0.5c1-1.9,2-4,3.1-4.9c1.1-0.8,5.2-4.2,6.9-4.4c1.7-0.1,2.9-0.2,2.9-0.2s-2.4,9-2.6,9
		c-0.2,0-1.6,2.5-3.6,3.3c-1.9,0.9-1.5,2-4,1.2c-2.6-0.7-3.5-1.3-3.8-1.5C30.6,44.9,30.2,43.7,29.9,43.1z"/>
	<path class="st18" d="M38,47.6c0,0-1-1.3-0.9-2.9c0-1.6,2.2-4.9,2.9-5.7c0.7-0.8,1.9-3.3,2.6-3.8c0.7-0.5,2.3-2.1,2.3-2.1
		s1.2,4.2,1.6,6.2c0.4,1.9,0.1,5.5-0.2,6.3c-0.3,0.8-0.4,2.9-1.8,3c-1.4,0.2-2.5,0.1-3.6,0c-1.1-0.1-1.2,0-1.6-0.5
		C38.9,47.8,38,47.6,38,47.6z"/>
	<path class="st19" d="M45.9,33.6c0,0-1.9,1.8-1.8,4.1c0.2,2.3,0.1,3.8,1.1,5.9c1,2,1.2,3.3,2,3.5c0.9,0.2,2,0.1,2.5-0.3
		c0.5-0.3,2.8,0.4,2.8-1.1c0-1.6,1.1-2,0-4.2c-1-2.2-2.4-5.1-3.4-6.2c-0.9-1.1-1.4-1.4-1.7-1.6C47.2,33.6,45.9,33.6,45.9,33.6z"/>
	<path class="st20" d="M46.5,30.2c0,0-1.3-2-1.4-3.7c-0.1-1.7-0.1-3.8,0.4-4.4c0.5-0.6,1.6-1.8,1.7-4.1c0.1-2.2-0.7-3.5,0.1-3.7
		c0.7-0.2,0.5,0.2,1.7,2.6c1.2,2.4,1.9,3.3,1.9,5c0.1,1.7,0.2,1.6-0.4,3.6c-0.6,2-0.7,2.6-1.2,3.8c-0.5,1.2-0.3,1.8-1.1,2.1
		C47.4,31.8,46.5,30.2,46.5,30.2z"/>
	<path class="st15" d="M41.9,34.8c0,0,0.6-3.6,1.7-4.7c1.1-1.1,4.4-3.7,5.6-4.3c1.2-0.6,2.1-1.1,2.8-2.4c0.7-1.3,0.4-4.5,1.2-4.3
		c0.8,0.2,1.3,0.6,1,3c-0.3,2.4-0.1,3.8-0.4,5.7c-0.2,2-0.1,3-1.9,4.3c-1.8,1.4-3.3,3.2-4.8,3.6c-1.6,0.4-2.7,0.2-3.1,0.4
		C43.7,36.2,41.9,34.8,41.9,34.8z"/>
	<path class="st21" d="M46.7,31.8c0,0,0.9-0.5,2.6-2.4c1.7-1.9,2.7-2.4,3.9-1.8c1.2,0.5,1.1,0.3,1.8,0.6c0.7,0.3,0.9,1.8,1.5,0.4
		c0.6-1.4,0.1-1.6,0.7-2c0.6-0.4,1.7-0.2,1.1,1.6c-0.5,1.7,0.1,4.9-0.9,6.8c-1,1.9-1.4,4.1-2.5,4.7c-1.1,0.7-1.8,3-2.3,2
		c-0.5-1-1.9-2.6-2.7-4.4c-0.7-1.8-2.2-2.6-2.5-3.4C47.3,33,46.7,31.8,46.7,31.8z"/>
	<path class="st22" d="M31.1,37.2c0,0,1.6,0,3.1-1.2c1.5-1.2,3.2-2.5,3.5-2.5c0.3,0,1.7-0.9,2.4-0.5c0.7,0.4,0,1.3-1.1,1.3
		c-1.1,0.1-3,1.6-4,2.1c-1.1,0.5-1,0.6-2.1,1.2C31.8,38.2,31.1,37.2,31.1,37.2z"/>
	<path class="st22" d="M35.3,28.8c0,0,2.7,0.4,3.5,0.9c0.8,0.5,1.7,2,1.7,2s2.4,1.5,1.9,0.3c-0.5-1.2-2.3-1.7-2.7-2.7
		c-0.3-1-1.4-1.1-2-1.2C37.2,27.9,35.3,28.8,35.3,28.8z"/>
	<path class="st22" d="M43.8,29.2c-0.1-0.5-1.4-2.8-1.7-3.3c-0.4-0.6-0.6-2.1,0.1-1.3c0.8,0.8,1.4,0.7,1.4,1.4
		c0,0.7,0.3,2.2,0.4,0.9c0.2-1.4-0.1-2-0.2-2.7c-0.1-0.8,0.2-3.3,0.9-1.4c0.7,1.9,0.8,2.2,1,3.2c0.2,1,0.3,1.1,0.1,2.4
		c-0.2,1.2-0.2,1.2-0.2,1.2L43.8,29.2z"/>
	<path class="st22" d="M47.3,26.2c0,0,0.6-1.6,0.5-3.5c-0.1-2-0.1-2.7-0.1-2.7s-1.1,2-1.1,2.5c0,1.3,0.3,2.5,0.3,2.5L47.3,26.2z"/>
	<path class="st22" d="M48.2,25.5c0-1.9-0.1-3.9,0.2-4.7c0.3-0.8,0.2-2.3,0.6-1.4c0.4,0.9,1,1.1,1,2.4c0,1.3,0,2.6,0,2.6L48.2,25.5z
		"/>
	<path class="st22" d="M46.6,29.7c0.1-1.3,1.1-2.6,1.5-2.7c0.3-0.2,2.7-1.4,3.2-1.3c0.5,0.1,1.4,0.2,1.8-0.8c0.4-1,0.9-3.2,0.8-0.6
		c-0.2,2.5,0,2.5-0.5,4.1c-0.5,1.6-1.1,1.9-1.9,2.5c-0.8,0.6-1.6,0.9-2.7,0.1c-1.1-0.8-0.4-0.7-1.1-0.8
		C46.9,30.2,46.6,29.7,46.6,29.7z"/>
	<path class="st22" d="M49.1,31c0.5-0.1,1.6-1.3,3,0c1.4,1.3,1.8,1.8,2.5,2.9c0.8,1,0.8,1.3,0.7,2c-0.1,0.7-0.5,1.6-0.7,1
		c-0.3-0.6-0.9-1.3-1.3-1.6c-0.5-0.3-0.3-0.7-1.3-1.3c-0.9-0.6-1.9-0.6-2.2-1c-0.2-0.4-0.7-1.1-0.7-1.1L49.1,31z"/>
	<path class="st22" d="M49.1,40.3c-0.8-1.5-1.1-1.9-1.8-2.8c-0.6-0.9-1.9-1.9-1.3-2.5c0.5-0.6,1.2-1.3,1.9,0.1
		c0.7,1.4,1.8,2.8,2,3.2c0.1,0.4,1.6,2,1.2,2.3C50.6,40.9,49.1,40.3,49.1,40.3z"/>
	<path class="st22" d="M49,45.9c0.1-0.1,1.4-1.3,0.5-1.7c-0.9-0.4-2.3-0.6-1.4-0.8c0.9-0.2,1.6-0.9,1.9,0c0.3,0.9,0.8,1.3,0.5,1.8
		c-0.3,0.5,0,0.7-0.4,0.9c-0.4,0.2-2.1,1.6-2.8,1.1c-0.7-0.6-1.6-1-1-1.5c0.6-0.5,0.9-0.6,0.9-0.6L49,45.9z"/>
	<path class="st22" d="M41.4,46.8c0,0-1.8-1.6-1.1-2.3c0.7-0.7,1-3.3,1.4-3.9c0.4-0.6,0.5-2.3,0.9-3.2c0.4-0.9,0.5-0.3,0.6,1.6
		c0.1,1.8,0.4,4,0.6,5.2c0.2,1.2,0.9,1.6,0.2,2C43.2,46.4,41.4,46.8,41.4,46.8z"/>
	<path class="st22" d="M32.1,44.3c0.2,0.2,1.5,0.7,2.5,0.7c1,0,0.4,0.8,1.4-0.4c1-1.2,1.1-1.2,1.5-2.1c0.4-0.9,0.5-0.9-1.1-0.1
		c-1.6,0.8-2.8,1.6-2.7,0.6c0.1-1,0.1-1.5,1-2.6c0.9-1.1,2.7-3.1,3.8-3.4c1-0.2,1.9-1.4,1.9-1.6c0-0.1-5.7,3.5-6.6,5
		c-0.9,1.5-1.2,2-1.1,2.4C32.8,43.2,32.1,44.3,32.1,44.3z"/>
	<path class="st23" d="M48.1,42.5c-0.2,0,0.2-1.1-0.7-2.1c-0.9-1-1.2-2.1-1.3-2.7c-0.1-0.5-0.7-1.7,0.3-0.9c1,0.7,1.4,1.9,1.7,3.5
		c0.3,1.6,1.2,1.8,0.6,2C48.1,42.5,48.1,42.5,48.1,42.5z"/>
	<path class="st23" d="M50.7,35.9c0.2,0.4,0.2,1.2,0.6,1c0.4-0.2,1.1,0.1,1.2,0.7c0.2,0.6,0.7,2.2,1.4,1.4c0.7-0.8,2.2-1.1,0.5-2.1
		c-1.7-1-1.8-0.4-2.5-1.1c-0.8-0.6-1.4-1.5-1.8-1.6c-0.4-0.1-0.6,0.2-0.5,0.4C49.8,34.8,50.7,35.9,50.7,35.9z"/>
	<path class="st23" d="M56.3,32.9c0.4-0.1,0.8-0.4,0.9-1.3c0.1-0.9,0.4-2.6,0.2-2.9c-0.3-0.2-0.3,1-1.3,1c-0.9,0-1.4-0.6-1.7,0
		c-0.3,0.6-0.5,1.3-0.1,1.8C54.7,32,56.3,32.9,56.3,32.9z"/>
	<path class="st23" d="M48.1,18.9c-0.1-1.5-0.8-2.5-0.4-2c0.4,0.5,0.9,1.2,0.9,1.2L48.1,18.9z"/>
	<path class="st23" d="M41.1,23.9c0.5-1.6,0.7-1.9,0.4-2.6c-0.3-0.6-1,0.3-1,0.3L41.1,23.9z"/>
	<path class="st23" d="M35.1,30.9c-0.2,0.6-0.9,1.4,0.5,0.9c1.4-0.5,2.1-0.1,2.4-0.6c0.3-0.5,0.6-1.1-0.1-0.9
		C37.3,30.5,35.1,30.9,35.1,30.9z"/>
	<path class="st23" d="M35.3,42.2c0.3-0.1,2.1,0.2,2.2-1.1c0.1-1.3,0.3-2.2-0.3-2c-0.6,0.2-1.4,1.1-1.4,1.1L35.3,42.2z"/>
	<path class="st23" d="M39.4,46.5c0,0,0.7-1.9,0.8-2.8c0.1-0.9,0.6-3.6,0.9-4.2c0.2-0.7,0.7-2,0.7-2S40.1,39,40,40
		c-0.1,1-0.4,1.9-0.5,2.8c-0.1,0.9-0.2,1.8-0.2,1.8L39.4,46.5z"/>
	<path class="st23" d="M45.4,31.2c0.9,0.1,2.5-0.1,1.5,1.2c-1,1.3,0,1.8-1,1.3c-1-0.5-0.7,1.1-1-0.5c-0.3-1.6-0.3-1.6-0.3-1.6
		L45.4,31.2z"/>
	<path class="st14" d="M75.2,42.4c0.4,1,2.4,1.6-0.4,3.3c-2.8,1.7-3.5,4.1-5.3,2.7c-1.7-1.4-3.3-3.5-2.6-4.4s3.2-2.3,3.8-3
		c0.6-0.7,1.4-1,1.8-0.6C73.1,40.7,75.2,42.4,75.2,42.4z"/>
	<path class="st15" d="M73.9,43.8c0,0,2,1.4,4,0.3c2-1.1,2.5-0.7,2.9-2.6c0.4-1.9-0.7-1.8,1.1-2.9c1.8-1.1,4.4-2,2.9-2.4
		c-1.4-0.4-1-0.4-2.9-0.1c-1.9,0.3-3.6-0.6-4.6-0.9c-1-0.3-1.2-1-2,0.8c-0.8,1.8-0.5,1.6-1.5,3.8c-0.9,2.2-2.3,2.5-1.9,3
		C72.2,43.4,73.9,43.8,73.9,43.8z"/>
	<path class="st16" d="M69.2,31.6c0,0,1.3-1,2.6-1.7c1.3-0.7,2-1,2.4-0.8s1.2,0.1,1.7-0.1c0.5-0.2,0.1-1.5,0.5-0.2s-0.1,5,0.7,6.4
		c0.8,1.4-0.2,3.4-0.9,3.8c-0.7,0.4-3.3,2.9-3.6,3.1c-0.2,0.2-2.7,1.4-2.7,1.4l-0.2-5l-0.9-3.4L69.2,31.6z"/>
	<path class="st15" d="M67.6,25.3c-0.2,0.5-1.2,1.2,0.6,3.1c1.8,1.9,2.4,2.9,3.1,5c0.7,2.1,0.7,2.8,0.4,4.6s-0.2,2.6-0.9,3
		c-0.7,0.5-4.3-1.6-5-2.3c-0.7-0.7-3-4.4-3-5.3c-0.1-0.9-0.9-3.3,0.6-4.7c1.4-1.4,1.8-1.8,2-2C65.5,26.6,67.6,25.3,67.6,25.3z"/>
	<path class="st24" d="M60.3,26.8c0,0-1.8,1.3,0.2,2.3c2.1,1,4.3,1.9,5.1,3.1s4.2,5.7,4.3,7.7c0.1,2.1,0.2,3.6,0.2,3.6
		s-10-1.9-10-2.1c0.1-0.2-2.9-1.8-3.9-4.1c-0.9-2.3-2.3-1.6-1.1-4.7s2.1-4.2,2.5-4.6C58.1,27.7,59.6,27.1,60.3,26.8z"/>
	<path class="st25" d="M53.7,36.7c0,0,1.7-1.2,3.6-1.3c1.9-0.1,5.6,2.2,6.5,2.9c0.9,0.7,3.6,1.9,4.1,2.7c0.5,0.9,2.3,2.5,2.3,2.5
		s-4.6,2.1-6.7,2.8C61.3,47,57,47,56,46.7c-1-0.3-3.6-0.3-3.9-2.1c-0.2-1.8-0.1-3.1,0-4.4c0.2-1.4,0.1-1.5,0.7-1.9
		C53.4,37.8,53.7,36.7,53.7,36.7z"/>
	<path class="st26" d="M69.7,44.9c0,0-2-2.2-4.5-1.7c-2.5,0.5-4.3,0.6-6.7,2c-2.4,1.4-4,1.7-4.2,2.9s0.1,2.5,0.6,3.2
		c0.5,0.6-0.1,3.7,1.8,3.5c1.9-0.2,2.6,1.2,5-0.4c2.3-1.6,5.4-3.8,6.4-5.1c1.1-1.4,1.4-2,1.6-2.4C69.8,46.5,69.7,44.9,69.7,44.9z"/>
	<path class="st20" d="M73.3,45.1c0,0,2-1.9,3.7-2.4c1.7-0.4,3.7-0.9,4.3-0.3c0.6,0.5,1.8,1.7,3.8,1.3c2.1-0.4,3.2-1.6,3.4-0.7
		c0.2,0.9-0.1,0.7-2.2,2.7s-2.9,3-4.5,3.5c-1.6,0.5-1.5,0.6-3.5,0.2c-2-0.4-2.7-0.4-3.9-0.9C73,48,72.5,48.4,72,47.4
		C71.6,46.5,73.3,45.1,73.3,45.1z"/>
	<path class="st15" d="M72.1,45.1c0,0,3.7,0.2,4.9,1.4c1.2,1.2,4,4.9,4.7,6.4c0.7,1.5,1.4,2.5,2.7,3.2c1.3,0.6,4.1-0.4,4,0.7
		c0,1.1-0.3,1.9-2.5,2s-3.4,0.7-5.3,0.7c-1.9,0.1-2.9,0.4-4.5-1.7c-1.7-2.1-3.8-3.7-4.5-5.7c-0.6-1.9-0.5-3.4-0.7-4
		C70.8,47.5,72.1,45.1,72.1,45.1z"/>
	<path class="st21" d="M71.7,45.6c0,0,0.6,1,2.6,2.9c2,1.8,2.6,3,2.3,4.6c-0.4,1.6-0.1,1.5-0.3,2.5c-0.1,0.9-1.7,1.5-0.2,2.1
		c1.5,0.6,1.6-0.1,2.1,0.5s0.6,2.2-1.3,1.8c-1.8-0.4-4.8,1-7,0c-2.2-1-4.7-1.3-5.7-2.6c-1-1.3-3.8-2.1-2.7-2.8
		c1.1-0.7,2.6-2.8,4.5-4c1.9-1.2,2.6-3.2,3.5-3.6C70.5,46.5,71.7,45.6,71.7,45.6z"/>
	<path class="st22" d="M66.8,27.5c0,0-0.3,1.9,0.9,3.4c1.1,1.6,2.3,3.5,2.3,3.8c0,0.4,0.9,1.9,0.4,2.8c-0.5,0.9-1.4,0.2-1.4-1.1
		c0-1.3-1.5-3.3-1.9-4.5s-0.5-1.1-1.1-2.3C65.6,28.4,66.8,27.5,66.8,27.5z"/>
	<path class="st22" d="M75.1,31.2c0,0-0.6,3.3-1.2,4.4c-0.6,1.1-2.2,2.3-2.2,2.3s-1.6,3.2-0.3,2.3c1.3-0.8,1.8-3.1,2.8-3.7
		c1-0.6,1.2-1.9,1.4-2.6C75.8,33.3,75.1,31.2,75.1,31.2z"/>
	<path class="st22" d="M74.2,41.6c0.6-0.2,2.8-2.2,3.4-2.7s2.1-1.2,1.3-0.1c-0.8,1.1-0.7,1.9-1.4,2c-0.7,0.1-2.2,0.7-0.9,0.7
		c1.3,0,1.9-0.5,2.7-0.8c0.7-0.3,3.2-0.4,1.4,0.8c-1.8,1.2-2.2,1.5-3.1,1.8c-1,0.4-1.1,0.6-2.4,0.5c-1.3,0-1.3,0-1.3,0L74.2,41.6z"
		/>
	<path class="st22" d="M77.3,45.4c0,0,1.6,0.5,3.4-0.1c1.9-0.6,2.5-0.6,2.5-0.6s-1.9-1-2.4-0.9c-1.2,0.2-2.4,0.8-2.4,0.8L77.3,45.4z
		"/>
	<path class="st22" d="M78.1,46.4c1.8-0.4,3.8-0.8,4.5-0.6s2.2-0.2,1.4,0.5c-0.8,0.6-1,1.5-2.2,1.7c-1.3,0.2-2.5,0.5-2.5,0.5
		L78.1,46.4z"/>
	<path class="st22" d="M77.6,50.1c1.2-0.2,2.6,1,2.8,1.4c0.2,0.4,1.7,3.2,1.6,3.9s0.1,1.9,1,2.2c1,0.3,3.1,0.6,0.7,0.9
		c-2.4,0.3-2.3,0.5-3.9,0.1s-2-1-2.8-2c-0.8-1-1.1-1.9-0.5-3.4s0.7-0.6,0.6-1.6C77.1,50.6,77.6,50.1,77.6,50.1z"/>
	<path class="st22" d="M72.6,48.5c0.2,0.7,1.4,1.8,0.3,3.8c-1.1,2-1.6,2.6-2.6,3.8c-0.9,1.2-1.2,1.3-2,1.2s-1.8-0.4-1.2-0.8
		s1.2-1.3,1.5-2c0.2-0.7,0.7-0.5,1.2-1.8c0.5-1.3,0.4-2.5,0.8-2.9s1.1-1.1,1.1-1.1L72.6,48.5z"/>
	<path class="st22" d="M62.6,49.8c1.6-1.2,2-1.7,3-2.6c0.9-0.9,2-2.6,2.7-2s1.5,1.3,0,2.4c-1.5,1.1-2.9,2.7-3.3,2.9
		c-0.4,0.2-2,2.3-2.5,1.8C62.1,51.7,62.6,49.8,62.6,49.8z"/>
	<path class="st22" d="M55.9,50.1c0.2,0.1,1.7,1.7,2.1,0.5c0.4-1.2,0.5-3,0.9-1.9c0.3,1.1,1.2,1.9,0.2,2.4S57.6,52.3,57,52
		c-0.7-0.3-0.9,0.1-1.2-0.5s-2.3-2.5-1.6-3.5s1.2-2.1,1.8-1.4c0.6,0.7,0.7,1.1,0.7,1.1L55.9,50.1z"/>
	<path class="st27" d="M54.6,40.7c0,0,2.1-2.3,2.9-1.5c0.8,0.8,3.9,0.9,4.6,1.3c0.7,0.4,2.6,0.4,3.5,0.8c1,0.4,0.3,0.6-1.8,0.9
		c-2.1,0.3-4.6,0.9-6,1.2s-1.9,1.2-2.4,0.4C55,42.9,54.6,40.7,54.6,40.7z"/>
	<path class="st22" d="M58.5,29.4c-0.3,0.3-1.1,1.8-1.2,3c-0.2,1.2-1,0.5,0.3,1.6s1.3,1.1,2.3,1.6c1,0.4,1,0.5,0.2-1.3
		c-0.8-1.8-1.6-3.1-0.4-3.1s1.7-0.1,2.9,0.9s3.3,2.9,3.5,4.1c0.2,1.2,1.4,2.2,1.6,2.1s-3.4-6.4-5-7.3s-2.1-1.2-2.6-1.1
		C59.7,30.1,58.5,29.4,58.5,29.4z"/>
	<path class="st23" d="M60,48.8c0-0.3,1.4,0.1,2.4-1.2s2.3-1.7,2.9-2c0.6-0.2,1.8-1.1,1,0.2c-0.8,1.3-2,2-3.8,2.6
		c-1.8,0.6-2,1.7-2.3,1C60,48.8,60,48.8,60,48.8z"/>
	<path class="st23" d="M67.6,51.3c-0.4,0.4-1.3,0.4-1.1,0.9c0.3,0.5,0.1,1.4-0.5,1.7c-0.6,0.3-2.3,1.3-1.3,2.1s1.7,2.8,2.4,0.4
		c0.7-2.3,0.1-2.4,0.7-3.5s1.4-2,1.5-2.5s-0.2-0.8-0.5-0.6C68.6,49.9,67.6,51.3,67.6,51.3z"/>
	<path class="st23" d="M71.7,58.1c0.1,0.5,0.6,1,1.5,1c0.9,0,2.7,0.1,2.9-0.3c0.2-0.4-1.1-0.3-1.2-1.5c-0.2-1.3,0.3-2-0.3-2.3
		c-0.7-0.3-1.4-0.4-1.8,0.2C72.3,55.8,71.7,58.1,71.7,58.1z"/>
	<path class="st23" d="M84.4,45c1.3-0.4,2.3-1.5,1.8-1c-0.5,0.6-1,1.4-1,1.4L84.4,45z"/>
	<path class="st23" d="M79.6,37.3c1.5,0.3,1.9,0.5,2.5,0c0.6-0.5-0.2-1.2-0.2-1.2L79.6,37.3z"/>
	<path class="st23" d="M73,31.3c-0.6-0.2-1.4-0.9-1,0.7c0.4,1.6-0.1,2.5,0.4,2.8c0.5,0.3,1.1,0.5,1-0.3S73,31.3,73,31.3z"/>
	<path class="st23" d="M60.5,33c0.1,0.3-0.4,2.5,1,2.5s2.5,0.1,2.3-0.6s-1.1-1.6-1.1-1.6L60.5,33z"/>
	<path class="st23" d="M54.9,38.3c0,0,2.3,0.7,3.3,0.8c1,0.1,4.2,0.4,4.9,0.6c0.8,0.2,2.2,0.7,2.2,0.7s-1.5-2-2.6-1.9
		c-1.1,0-2.2-0.3-3.2-0.4c-1-0.1-2.1-0.1-2.1-0.1L54.9,38.3z"/>
	<path class="st23" d="M72.2,43.9c-0.1,1.1,0.2,3.2-1.2,2.1c-1.4-1.1-1.9,0.3-1.4-1.1c0.5-1.4-1.2-0.8,0.5-1.4
		c1.7-0.6,1.7-0.6,1.7-0.6L72.2,43.9z"/>
	<path class="st14" d="M35.4,72.7c0.4,1.2-1.1,3.4,2.9,2.9c4-0.5,6.6,1.2,7.2-1.4c0.6-2.6,0.5-5.8-0.9-6.2c-1.4-0.3-4.8,0.2-6,0
		s-2.1,0.1-2.3,0.8S35.4,72.7,35.4,72.7z"/>
	<path class="st15" d="M37.7,73.1c0,0-0.8,2.9-3.6,3.3c-2.7,0.5-2.9,1.2-4.8-0.3c-1.9-1.5-0.8-2.3-3.3-2s-5.8,1.4-4.7,0
		c1.1-1.4,0.6-1.1,2.7-2.3s3.1-3.3,3.8-4.4c0.7-1,0.4-1.9,2.6-0.8s1.8,1.2,4.4,2.5c2.6,1.4,4.2,0.7,4.2,1.4
		C39.1,71.4,37.7,73.1,37.7,73.1z"/>
	<path class="st16" d="M32.9,57.9c0,0-2.1,0.1-3.9,0.4c-1.8,0.3-2.7,0.6-2.9,1.1c-0.3,0.5-1.1,1-1.8,1.2s-1.3-1.4-0.6,0.2
		c0.7,1.6,3.9,4.8,4.2,6.7s2.8,3.1,3.8,2.9c1-0.1,5.5,0.2,5.8,0.2s3.7-0.7,3.7-0.7L37.5,65l-1.7-3.9L32.9,57.9z"/>
	<path class="st15" d="M29.5,50.6c0.5,0.3,2.1,0.3,1.8,3.4c-0.3,3.1,0,4.6,0.9,7.1s1.5,3.3,3.1,4.7s2.1,2.3,3.2,2.2
		c1.1-0.1,3-4.8,3-6s-0.5-6.5-1.2-7.4c-0.7-0.9-1.7-3.8-4.1-4c-2.5-0.2-3.1-0.3-3.4-0.3C32.6,50.2,29.5,50.6,29.5,50.6z"/>
	<path class="st28" d="M37.7,46.4c0,0,2.8-0.1,1.6,2.4c-1.2,2.5-2.7,5.1-2.5,6.9c0.1,1.8,0.3,8.6,1.8,10.7s2.6,3.6,2.6,3.6
		s8.3-9.5,8-9.6s1.4-3.9,0.6-6.8c-0.8-2.9,1-3.3-2.6-5.3c-3.5-2-5.3-2.4-6-2.5C40.6,45.6,38.7,46.2,37.7,46.4z"/>
	<path class="st15" d="M51.8,50.8c0,0-2.6,0.1-4.5,1.5s-3.7,6.4-4,7.7c-0.3,1.3-2,4.5-1.8,5.8c0.2,1.2-0.3,4.2-0.3,4.2
		s6-1.4,8.6-2.5c2.6-1,6.7-4.3,7.5-5.3c0.7-1,3.3-3.1,2.1-5c-1.1-1.9-2.2-3-3.5-4.2c-1.2-1.2-1.2-1.3-2.1-1.3
		C52.9,51.6,51.8,50.8,51.8,50.8z"/>
	<path class="st29" d="M42.7,70.9c0,0,0.3-3.6,3.1-5.1c2.8-1.5,4.6-2.7,8.1-3.2c3.4-0.5,5.2-1.4,6.3-0.5s1.9,2.5,1.9,3.5
		c0,0.9,2.9,3.5,1,4.8c-1.9,1.3-1.6,3.2-5.1,3.5c-3.5,0.3-8.1,0.5-10.2,0c-2.1-0.5-2.9-0.9-3.4-1.1S42.7,70.9,42.7,70.9z"/>
	<path class="st20" d="M39.3,73.9c0,0-3.4-0.3-5.4,0.5s-4.2,2-4.4,3c-0.2,1-0.4,3-2.7,4.2s-4.3,0.9-3.8,1.9c0.5,1,0.7,0.6,4.3,0.9
		s5.1,0.7,7.1-0.1c1.9-0.8,1.9-0.5,3.5-2.5c1.6-2,2.2-2.4,3.1-3.9c0.9-1.4,1.7-1.5,1.3-2.7C42,73.9,39.3,73.9,39.3,73.9z"/>
	<path class="st15" d="M40.4,72.9c0,0-3.5,3-3.7,5s-0.1,7.7,0.4,9.7c0.4,2,0.6,3.5-0.2,5.1s-4.3,2.7-3.4,3.7c0.9,1,1.7,1.6,3.9,0
		c2.2-1.6,3.8-2,5.7-3.4c1.9-1.4,3.1-1.8,3.1-5.1c0-3.3,0.8-6.5-0.1-8.8c-0.9-2.3-2.1-3.7-2.4-4.3C43.6,74.3,40.4,72.9,40.4,72.9z"
		/>
	<path class="st21" d="M41.3,73.1c0,0,0.2,1.5-0.3,4.8c-0.5,3.3-0.2,4.9,1.4,6.2c1.6,1.2,1.3,1.4,2.2,2.2s2.8,0.2,1.7,1.9
		s-1.6,1.1-1.6,2.1c0,1.1,1.1,2.5,2.6,0.7c1.5-1.8,5.4-2.7,6.7-5.4c1.3-2.7,3.5-4.9,3.4-6.9s2.1-4.9,0.4-4.8
		c-1.6,0.1-4.7-0.7-7.5-0.3c-2.7,0.3-5-1.1-6.1-0.8C43.1,73,41.3,73.1,41.3,73.1z"/>
	<path class="st22" d="M32,52.1c0,0,1.7,1.6,1.8,4s0.4,5.1,0.7,5.5c0.3,0.3,0.6,2.5,1.8,3c1.2,0.5,1.5-0.8,0.5-2.1s-1.1-4.4-1.7-5.8
		s-0.3-1.4-0.8-3C33.9,52,32,52.1,32,52.1z"/>
	<path class="st22" d="M26.9,62c0,0,3.2,2.7,4.6,3.3c1.4,0.6,3.9,0.5,3.9,0.5s4,1.8,2.1,2c-1.9,0.2-4.1-1.6-5.6-1.3
		c-1.4,0.2-2.6-0.9-3.3-1.4C27.8,64.5,26.9,62,26.9,62z"/>
	<path class="st22" d="M35.7,71.2c-0.7,0.2-4.4,0.1-5.4,0c-1-0.1-2.9,0.5-1.4,0.9c1.6,0.4,2.2,1.3,2.9,0.8c0.7-0.5,2.7-1,1.3,0
		c-1.3,1-2.2,1-3.2,1.3c-0.9,0.3-3.4,2.1-0.7,1.9c2.7-0.2,3.2-0.3,4.4-0.7c1.2-0.4,1.5-0.3,2.7-1.3c1.2-1,1.2-1,1.2-1L35.7,71.2z"/>
	<path class="st22" d="M35.6,77.2c0,0-1.1,1.7-3.4,2.6s-2.9,1.3-2.9,1.3s1-2.4,1.6-2.7c1.4-0.7,2.9-1.1,2.9-1.1L35.6,77.2z"/>
	<path class="st22" d="M35.7,78.8c-2.1,1-4.3,2.1-4.8,2.9s-2.2,1.5-1,1.5s2.1,0.7,3.5-0.1s2.7-1.4,2.7-1.4L35.7,78.8z"/>
	<path class="st22" d="M39,81.9c-1.3,0.8-1.8,2.9-1.6,3.5c0.1,0.5,0.8,4.3,1.4,5c0.6,0.6,1.4,1.9,0.7,2.9c-0.7,1-2.5,2.9,0,1.4
		c2.5-1.5,2.6-1.3,3.9-2.9s1.2-2.6,1.2-4.1c0-1.5-0.4-2.7-2.2-3.7s-1.1-0.1-1.8-1C39.9,82.1,39,81.9,39,81.9z"/>
	<path class="st22" d="M42.6,76.6c0.4,0.8,0,2.8,2.6,3.9s3.6,1.2,5.4,1.6c1.8,0.4,2.1,0.3,2.8-0.4S54.9,80,54,80
		c-0.9,0.1-2.2-0.3-3-0.8s-1.1,0-2.6-0.8c-1.5-0.8-2.4-2.1-3.1-2.2c-0.7-0.1-1.9-0.2-1.9-0.2L42.6,76.6z"/>
	<path class="st22" d="M53.3,70.1c-2.5,0.1-3.3,0-4.9-0.2c-1.6-0.2-3.9-1-4.1,0.1s-0.4,2.4,1.8,2.3c2.3-0.1,4.9,0.4,5.4,0.3
		c0.5-0.1,3.8,0.7,3.7-0.2S53.3,70.1,53.3,70.1z"/>
	<path class="st22" d="M60,65.4c-0.1,0.2-0.4,2.9-1.6,2.1c-1.3-0.9-2.8-2.5-2.3-1.1c0.5,1.3,0.3,2.8,1.7,2.4c1.4-0.3,2.2,0,2.6-0.8
		c0.4-0.8,0.9-0.6,0.8-1.3c-0.1-0.8,0.2-4.2-1.1-4.6c-1.4-0.4-2.8-1.1-2.8,0s0.2,1.7,0.2,1.7L60,65.4z"/>
	<path class="st22" d="M54,55.3c0,0-3.8-0.6-4,0.7s-3,3.9-3.4,4.8c-0.4,0.9-2.2,2.4-2.8,3.5c-0.6,1.1,0.2,0.9,2.4-0.5
		s5.1-2.6,6.7-3.4c1.6-0.8,2.8-0.3,2.6-1.5C55.3,57.7,54,55.3,54,55.3z"/>
	<path class="st22" d="M41.5,47.5c0.5,0,2.4,0.9,3.5,2c1.1,1,1.4-0.3,0.9,1.8c-0.4,2.1-0.4,2.1-1,3.3s-0.5,1.3-1.2-1.1
		c-0.6-2.4-0.9-4.2-2.1-3.3c-1.2,0.9-1.7,1.3-2.1,3.1c-0.4,1.8-0.9,5.3-0.2,6.6c0.7,1.3,0.3,3.2,0.1,3.3c-0.2,0.1-1.7-8.7-0.9-10.8
		c0.8-2.1,1.1-2.8,1.7-3C40.9,49.1,41.5,47.5,41.5,47.5z"/>
	<path class="st23" d="M55,67.2c-0.2-0.3-1.2,1.1-3.2,0.7c-2-0.4-3.6,0.1-4.3,0.4s-2.6,0.3-0.8,1s3.5,0.4,5.7-0.4
		c2.2-0.8,3.3,0.2,3-0.8C55,67.2,55,67.2,55,67.2z"/>
	<path class="st23" d="M49.6,75.4c0.6,0.1,1.6-0.6,1.7,0.1c0.1,0.7,1,1.4,1.8,1.2c0.8-0.2,3.2-0.6,2.8,1c-0.4,1.6,0.5,3.9-2,2.3
		c-2.5-1.6-2-2.2-3.4-2.8c-1.4-0.6-3-0.8-3.4-1.3c-0.4-0.4-0.4-0.9,0-1C47.6,74.9,49.6,75.4,49.6,75.4z"/>
	<path class="st23" d="M50.9,85.1c0.2,0.6,0.3,1.4-0.6,2.1c-0.9,0.7-2.6,2.2-3,2c-0.5-0.2,0.9-1.1,0-2.4c-0.8-1.3-1.8-1.7-1.4-2.4
		c0.4-0.8,1-1.4,1.9-1.2C48.5,83.4,50.9,85.1,50.9,85.1z"/>
	<path class="st23" d="M28.6,82.2c-1.6,0.7-3.4,0.3-2.5,0.5c0.9,0.2,2.1,0.5,2.1,0.5L28.6,82.2z"/>
	<path class="st23" d="M27.2,71.2c-1.3,1.5-1.4,1.9-2.4,1.9s-0.7-1.3-0.7-1.3L27.2,71.2z"/>
	<path class="st23" d="M29,60.4c0.4-0.6,0.6-1.9,1.5-0.1s2,2.3,1.8,3c-0.2,0.7-0.7,1.3-1.1,0.5C30.7,63,29,60.4,29,60.4z"/>
	<path class="st23" d="M42.3,52.5c0.1,0.4,2.3,2,0.9,3.2c-1.4,1.1-2.3,2-2.7,1.2c-0.4-0.8-0.2-2.4-0.2-2.4L42.3,52.5z"/>
	<path class="st23" d="M51.8,53.3c0,0-1.7,2.4-2.6,3.3c-0.9,0.8-3.7,3.6-4.3,4.4s-1.6,2.3-1.6,2.3s-0.1-3,1.1-3.9
		c1.1-0.8,1.9-2,2.9-2.8c0.9-0.9,2-1.7,2-1.7L51.8,53.3z"/>
	<path class="st23" d="M39.5,71.9c1,1,2.2,3.2,2.7,1.1c0.5-2.1,2-1.1,0.5-2.1s0.6-1.7-1.5-1C39,70.6,39,70.6,39,70.6L39.5,71.9z"/>
</g>
</svg>
