<?xml version="1.0" encoding="utf-8"?>
<!-- Generator: Adobe Illustrator 23.1.1, SVG Export Plug-In . SVG Version: 6.00 Build 0)  -->
<svg version="1.1" id="Layer_1" xmlns="http://www.w3.org/2000/svg" xmlns:xlink="http://www.w3.org/1999/xlink" x="0px" y="0px"
	 viewBox="0 0 108 108" style="enable-background:new 0 0 108 108;" xml:space="preserve">
<style type="text/css">
	.st0{fill:#7BB442;}
	.st1{fill:#63AA43;}
	.st2{fill:#5A9B3C;}
	.st3{fill:#5DA13E;}
	.st4{fill:#4F9A3E;}
	.st5{fill:#619B3E;}
	.st6{fill:#6D9D3B;}
	.st7{fill:#5C9F3E;}
	.st8{fill:#ED1D24;}
	.st9{fill:none;stroke:#708530;stroke-width:1.0127;stroke-miterlimit:10;}
	.st10{fill:#A6C339;}
	.st11{fill:#84B53A;}
	.st12{fill:#91BC3A;}
	.st13{fill:#B0CC36;}
	.st14{fill:#92B83E;}
	.st15{fill:#A6BD39;}
	.st16{fill:#A5C939;}
	.st17{fill:#72AA3A;}
	.st18{fill:#004B8E;}
	.st19{fill:#7E5DA7;}
	.st20{fill:#4667B0;}
	.st21{fill:#3658ED;}
	.st22{fill:#006DB7;}
	.st23{fill:#0077C0;}
	.st24{fill:#2484C6;}
	.st25{fill:#176AB4;}
	.st26{fill:#834290;}
	.st27{fill:#3168B2;}
</style>
<g>
	<path class="st0" d="M44.1,38.5c0,4.9-3.9,8.8-8.8,8.8s-8.8-3.9-8.8-8.8c0-4.9,3.9-8.8,8.8-8.8S44.1,33.6,44.1,38.5"/>
	<path class="st0" d="M51.7,30.2c0,4.9-3.9,8.8-8.8,8.8s-8.8-3.9-8.8-8.8c0-4.9,3.9-8.8,8.8-8.8S51.7,25.4,51.7,30.2"/>
	<path class="st0" d="M67.5,40.8c0,4.9-3.9,8.8-8.8,8.8s-8.8-3.9-8.8-8.8c0-4.9,3.9-8.8,8.8-8.8S67.5,35.9,67.5,40.8"/>
	<path class="st0" d="M85.6,36.1c0,4.9-3.9,8.8-8.8,8.8c-4.9,0-8.8-3.9-8.8-8.8c0-4.9,3.9-8.8,8.8-8.8
		C81.6,27.3,85.6,31.2,85.6,36.1"/>
	<path class="st0" d="M94.1,55.8c0,4.9-3.9,8.8-8.8,8.8s-8.8-3.9-8.8-8.8c0-4.9,3.9-8.8,8.8-8.8S94.1,50.9,94.1,55.8"/>
	<path class="st0" d="M85.6,56.7c0,4.9-3.9,8.8-8.8,8.8c-4.9,0-8.8-3.9-8.8-8.8c0-4.9,3.9-8.8,8.8-8.8
		C81.6,47.9,85.6,51.8,85.6,56.7"/>
	<path class="st0" d="M92.5,65.8c0,4.9-3.9,8.8-8.8,8.8c-4.9,0-8.8-3.9-8.8-8.8c0-4.9,3.9-8.8,8.8-8.8C88.6,57,92.5,61,92.5,65.8"/>
	<path class="st0" d="M77.8,79.1c0,4.9-3.9,8.8-8.8,8.8c-4.9,0-8.8-3.9-8.8-8.8c0-4.9,3.9-8.8,8.8-8.8
		C73.8,70.3,77.8,74.3,77.8,79.1"/>
	<path class="st0" d="M62.8,80.7c0,4.9-3.9,8.8-8.8,8.8s-8.8-3.9-8.8-8.8c0-4.9,3.9-8.8,8.8-8.8S62.8,75.8,62.8,80.7"/>
	<path class="st0" d="M37.8,60.4c0,4.9-3.9,8.8-8.8,8.8s-8.8-3.9-8.8-8.8c0-4.9,3.9-8.8,8.8-8.8S37.8,55.6,37.8,60.4"/>
	<path class="st0" d="M51.1,41.4c0,4.9-3.9,8.8-8.8,8.8c-4.9,0-8.8-3.9-8.8-8.8c0-4.9,3.9-8.8,8.8-8.8
		C47.2,32.6,51.1,36.5,51.1,41.4"/>
	<path class="st0" d="M64.9,44.3c0,4.9-3.9,8.8-8.8,8.8s-8.8-3.9-8.8-8.8c0-4.9,3.9-8.8,8.8-8.8S64.9,39.4,64.9,44.3"/>
	<path class="st0" d="M77.8,48.8c0,4.9-3.9,8.8-8.8,8.8c-4.9,0-8.8-3.9-8.8-8.8c0-4.9,3.9-8.8,8.8-8.8C73.8,40,77.8,43.9,77.8,48.8"
		/>
	<path class="st0" d="M77.8,60.4c0,4.9-3.9,8.8-8.8,8.8c-4.9,0-8.8-3.9-8.8-8.8c0-4.9,3.9-8.8,8.8-8.8
		C73.8,51.6,77.8,55.6,77.8,60.4"/>
	<path class="st0" d="M67,68.3c0,4.9-3.9,8.8-8.8,8.8s-8.8-3.9-8.8-8.8c0-4.9,3.9-8.8,8.8-8.8S67,63.4,67,68.3"/>
	<path class="st0" d="M51.9,67.3c0,4.9-3.9,8.8-8.8,8.8s-8.8-3.9-8.8-8.8c0-4.9,3.9-8.8,8.8-8.8S51.9,62.4,51.9,67.3"/>
	<path class="st0" d="M54,69.2C54,74,50,78,45.2,78s-8.8-3.9-8.8-8.8c0-4.9,3.9-8.8,8.8-8.8S54,64.3,54,69.2"/>
	<path class="st0" d="M49.6,55.2c0,4.9-3.9,8.8-8.8,8.8S32,60.1,32,55.2c0-4.9,3.9-8.8,8.8-8.8S49.6,50.4,49.6,55.2"/>
	<path class="st1" d="M44.4,90.5c0.1,0,0.2-0.1,0.3-0.1c1.9-0.4,3.4-1.5,4.4-3.2c0.5-0.7,0.9-1.5,1.4-2.2c1.3-1.9,2.8-2.5,5.1-2
		c0.4,0.1,0.8,0.2,1.2,0.3c0.5-1.1,0.6-2.2,0.8-3.4c0.4,0.1,0.8,0.2,1.1,0.3c0.1,0,0.2,0.2,0.2,0.3c0.1,0.3,0.3,0.7,0.4,1
		c0.1,0.3,0.2,0.3,0.5,0.2c0.5-0.2,1.1-0.3,1.6-0.3c0.8-0.1,1.4,0.4,1.9,0.9c0.4,0.4,0.7,0.8,1,1.3c0.8,1,1.8,1.7,3.1,1.8
		c0,0,0.1,0,0.1,0c0,0.1,0,0.1,0,0.1c-1.8,1.4-3.9,2.1-6.2,1.4c-1.4-0.4-2.3-1.5-2.4-2.9c0-0.1,0-0.2,0-0.4c1.8,1.5,3.7,2.4,6.1,2.1
		c-2.9-0.2-5.1-1.5-6.6-4.1c-0.7,2.3-1.9,4.3-3.7,5.8c-1.8,1.5-3.8,2.5-6.2,2.8c1.8,0,3.5-0.5,5.1-1.3c1.6-0.8,2.9-2,4-3.6
		c0.2,1,0.2,2-0.1,2.9c-0.5,1.5-1.6,2.6-3,3.3c-1.1,0.5-2.3,0.8-3.6,0.8c-2.3,0-4.5-0.6-6.4-1.8C44.5,90.7,44.5,90.6,44.4,90.5"/>
	<path class="st2" d="M93.9,58.3c-0.6,0.6-1.2,1.2-1.8,1.8c-0.9,0.9-1.8,1.9-2.9,2.6c-1.4,0.9-3.5,1.5-4.9,1.3
		c0.1-0.6,0.1-1.3,0.3-1.9c0.4-1.9,1.6-3.3,3.2-4.4c1.6-1,3.5-1.6,5.4-1.9c1.4-0.2,2.8-0.2,4.2-0.4c0.1,0,0.3,0,0.4,0
		c0,0.1,0,0.1,0,0.1c-0.9,1-1.3,2.3-1.8,3.5c-0.5,1.4-0.9,2.8-1.5,4c-1.1,2.3-2.9,3.7-5.4,4c-1.3,0.2-2.5,0-3.6-0.6c0,0-0.1,0-0.1,0
		c-0.6-0.8-1.4-0.6-2.2-0.5c-0.6,0.1-0.8-0.1-0.8-0.8c0.5,0,1,0,1.5,0c3-0.1,5.6-1.2,7.5-3.6C92.2,60.6,93,59.4,93.9,58.3
		C93.9,58.3,93.9,58.3,93.9,58.3"/>
	<path class="st2" d="M70.5,23.3c-0.2,0.8-0.4,1.6-0.6,2.4c-0.3,1.3-0.5,2.5-1.1,3.7c-0.7,1.5-2.2,3.1-3.5,3.7
		c-0.3-0.6-0.6-1.2-0.8-1.8c-0.6-1.9-0.4-3.7,0.5-5.4c0.9-1.7,2.1-3.2,3.6-4.4c1.1-0.9,2.3-1.7,3.4-2.5c0.1-0.1,0.2-0.1,0.3-0.2
		c0,0.1,0.1,0.1,0.1,0.1c-0.3,1.3,0,2.6,0.3,3.9c0.3,1.4,0.6,2.8,0.8,4.3c0.2,2.5-0.6,4.6-2.5,6.3c-1,0.8-2.1,1.3-3.4,1.4
		c0,0-0.1,0-0.1,0c-0.9-0.3-1.5,0.2-2.2,0.7c-0.5,0.4-0.7,0.3-1.1-0.3c0.4-0.3,0.9-0.5,1.3-0.8c2.6-1.7,4.1-4,4.6-7
		C70.2,26.1,70.4,24.7,70.5,23.3C70.5,23.3,70.5,23.3,70.5,23.3"/>
	<path class="st1" d="M70.5,47.1c-0.6,0.6-1.2,1.2-1.8,1.8c-0.9,0.9-1.8,1.9-2.9,2.6c-1.4,0.9-3.5,1.5-4.9,1.3
		c0.1-0.6,0.1-1.3,0.3-1.9c0.4-1.9,1.6-3.3,3.2-4.4c1.6-1,3.5-1.6,5.4-1.9c1.4-0.2,2.8-0.2,4.2-0.4c0.1,0,0.3,0,0.4,0
		c0,0.1,0,0.1,0,0.1c-0.9,1-1.3,2.3-1.8,3.5c-0.5,1.4-0.9,2.7-1.5,4c-1.1,2.3-2.9,3.7-5.4,4c-1.3,0.2-2.5,0-3.6-0.6c0,0-0.1,0-0.1,0
		c-0.6-0.8-1.4-0.6-2.2-0.5c-0.6,0.1-0.8-0.1-0.8-0.8c0.5,0,1,0,1.5,0c3-0.1,5.6-1.2,7.5-3.6C68.8,49.3,69.6,48.2,70.5,47.1
		C70.5,47.1,70.5,47.1,70.5,47.1"/>
	<path class="st3" d="M44.1,41.2c0.7,0.5,1.4,0.9,2.1,1.4c1.1,0.7,2.2,1.3,3.1,2.3c1.2,1.1,2.2,3.1,2.3,4.5
		c-0.6,0.1-1.3,0.2-1.9,0.2c-2,0-3.6-0.8-4.9-2.2c-1.4-1.4-2.3-3-2.9-4.8c-0.5-1.3-0.8-2.7-1.2-4c0-0.1-0.1-0.3-0.1-0.4
		c0.1,0,0.1,0,0.1,0c1.2,0.7,2.5,0.8,3.8,1c1.4,0.2,2.9,0.3,4.3,0.7c2.4,0.6,4.2,2.1,5.1,4.5c0.4,1.2,0.6,2.4,0.2,3.7
		c0,0,0,0.1,0,0.1c-0.6,0.7-0.3,1.5-0.1,2.3c0.2,0.6,0,0.8-0.7,1c-0.1-0.5-0.2-1-0.3-1.5c-0.7-3-2.4-5.2-5.1-6.6
		C46.7,42.4,45.4,41.8,44.1,41.2C44.2,41.1,44.2,41.2,44.1,41.2"/>
	<path class="st4" d="M77,55.4c-0.6,0.6-1.2,1.2-1.8,1.8c-0.9,0.9-1.8,1.9-2.9,2.6c-1.4,0.9-3.5,1.5-4.9,1.3
		c0.1-0.6,0.1-1.3,0.3-1.9c0.4-1.9,1.6-3.3,3.2-4.4c1.6-1,3.5-1.6,5.4-1.9c1.4-0.2,2.8-0.2,4.2-0.4c0.1,0,0.3,0,0.4,0
		c0,0.1,0,0.1,0,0.1c-0.9,1-1.3,2.3-1.8,3.5c-0.5,1.4-0.9,2.8-1.5,4c-1.1,2.3-2.9,3.7-5.4,4c-1.3,0.2-2.5,0-3.6-0.6c0,0-0.1,0-0.1,0
		c-0.6-0.7-1.4-0.6-2.2-0.5c-0.6,0.1-0.8-0.1-0.8-0.8c0.5,0,1,0,1.5,0c3-0.1,5.6-1.2,7.5-3.6C75.3,57.6,76.1,56.5,77,55.4
		C77,55.4,77,55.4,77,55.4"/>
	<path class="st5" d="M37.2,29.1c0.7,0.5,1.4,1,2.1,1.4c1.1,0.7,2.2,1.4,3.1,2.3c1.1,1.2,2.1,3.1,2.2,4.6c-0.6,0-1.3,0.1-1.9,0.1
		c-2,0-3.6-0.9-4.9-2.3c-1.3-1.4-2.2-3.1-2.8-4.9c-0.5-1.3-0.8-2.7-1.1-4.1c0-0.1-0.1-0.3-0.1-0.4c0.1,0,0.1,0,0.1,0
		c1.2,0.7,2.5,0.9,3.8,1.1c1.4,0.2,2.9,0.4,4.3,0.8c2.4,0.7,4.2,2.2,5,4.6c0.4,1.2,0.5,2.5,0.1,3.7c0,0,0,0.1,0,0.1
		c-0.6,0.7-0.3,1.5-0.1,2.3c0.2,0.6,0,0.8-0.7,0.9c-0.1-0.5-0.2-1-0.3-1.5c-0.7-3-2.3-5.3-4.9-6.7C39.7,30.4,38.4,29.7,37.2,29.1
		C37.2,29.1,37.2,29.1,37.2,29.1"/>
	<path class="st6" d="M35.1,60.7c0.7,0.5,1.4,1,2.1,1.4c1.1,0.7,2.2,1.4,3.1,2.3c1.1,1.2,2.1,3.1,2.2,4.6c-0.6,0-1.3,0.1-1.9,0.1
		c-2,0-3.6-0.9-4.9-2.3c-1.3-1.4-2.2-3.1-2.8-4.9c-0.5-1.3-0.8-2.7-1.1-4.1c0-0.1-0.1-0.3-0.1-0.4c0.1,0,0.1,0,0.1,0
		c1.2,0.7,2.5,0.9,3.8,1.1c1.4,0.2,2.9,0.4,4.3,0.8c2.4,0.7,4.2,2.2,5,4.6c0.4,1.2,0.5,2.5,0.1,3.7c0,0,0,0.1,0,0.1
		c-0.6,0.7-0.3,1.5-0.1,2.3c0.2,0.6,0,0.8-0.7,0.9c-0.1-0.5-0.2-1-0.3-1.5c-0.7-3-2.3-5.3-4.9-6.7C37.6,62,36.3,61.4,35.1,60.7
		C35.1,60.7,35.1,60.7,35.1,60.7"/>
	<path class="st1" d="M76.2,60.9c0.7,0.5,1.4,1,2.1,1.4c1.1,0.7,2.2,1.4,3.1,2.3c1.1,1.2,2.1,3.1,2.2,4.6c-0.6,0-1.3,0.1-1.9,0.1
		c-2,0-3.6-0.9-4.9-2.3c-1.3-1.4-2.2-3.1-2.8-4.9c-0.5-1.3-0.8-2.7-1.1-4.1c0-0.1-0.1-0.3-0.1-0.4c0.1,0,0.1,0,0.1,0
		c1.2,0.7,2.5,0.9,3.8,1.1c1.4,0.2,2.9,0.4,4.3,0.8c2.4,0.7,4.2,2.2,5,4.6c0.4,1.2,0.5,2.5,0.1,3.7c0,0,0,0.1,0,0.1
		c-0.6,0.7-0.3,1.5-0.1,2.3c0.2,0.6,0,0.8-0.7,0.9c-0.1-0.5-0.2-1-0.3-1.5c-0.7-3-2.3-5.3-4.9-6.7C78.7,62.2,77.5,61.6,76.2,60.9
		C76.2,60.9,76.2,60.9,76.2,60.9"/>
	<path class="st1" d="M86.7,27.6c-0.1,0-0.3,0.1-0.4,0.1c-2.1,1-3.9,2.5-5.5,4.1c-0.4,0.4-0.7,0.8-1,1.2c-0.8,0.8-2,0.7-2.5-0.3
		c-0.4-0.7-0.3-1.4,0-2.1c0.5-1,1.3-1.7,2.1-2.4c2.6-1.8,5.4-2.6,8.5-2.4c0.3,0,0.5,0.1,0.5,0.5c0.1,3.5-0.9,6.7-3.3,9.3
		c-0.5,0.5-1,0.9-1.6,1.2c-1.2,0.6-2.2,0.3-3-0.7c0,0-0.1-0.1-0.1-0.2c-0.3,0.6-0.6,1.1-0.9,1.6c-0.3,0.5-0.3,0.5-0.8,0.3
		c-0.2,0-0.4-0.1-0.6-0.2C80.5,33.9,83,30.3,86.7,27.6C86.8,27.7,86.7,27.7,86.7,27.6"/>
	<path class="st1" d="M45,18.4c0.2,0.3,0.5,0.5,0.7,0.8c2.8,3.2,5.1,6.8,6.6,10.8c0.1,0.2,0.2,0.4,0.2,0.6c0.1,0.2,0,0.4-0.2,0.3
		c0,0,0,0,0,0c-1-0.1-1-0.1-1.3-1c-0.1-0.3-0.2-0.6-0.3-0.9c-0.5,0-1,0.1-1.5,0.1c-1.3-0.1-2.1-0.9-2.9-1.8c-1.2-1.5-2-3.1-2.6-4.9
		c-0.8-2.2-1.2-4.5-1.2-6.8c0-0.1,0-0.3,0-0.5c0.2,0.1,0.4,0.1,0.5,0.2c3.3,1.6,6.2,3.7,8.4,6.7c0.8,1,1.3,2.1,1.4,3.4
		c0.1,0.7-0.2,1.6-0.6,2.1C50.4,24.1,48.1,21,45,18.4C45.1,18.4,45.1,18.4,45,18.4"/>
	<path class="st1" d="M61.7,24.6c-0.1,0.5-0.3,0.9-0.4,1.4c-1.8,5.6-4.3,10.9-7.9,15.6c-0.2,0.3-0.4,0.5-0.6,0.7
		c-0.2,0.3-0.4,0.3-0.5-0.1c0,0,0,0,0,0C51.6,41,51.6,41,52.5,40c0.3-0.3,0.6-0.7,0.8-1c-0.4-0.6-0.9-1.1-1.1-1.7
		c-0.7-1.6-0.5-3.2,0-4.7c0.8-2.5,2.3-4.6,3.9-6.6c2-2.5,4.4-4.6,7.1-6.3c0.2-0.1,0.3-0.2,0.6-0.3c0.1,0.3,0.1,0.5,0.1,0.7
		c0.5,5,0.1,9.9-1.8,14.6c-0.6,1.6-1.6,3.1-3,4.1c-0.8,0.6-2,0.9-2.9,0.8c2.6-4.7,4.7-9.7,5.6-15C61.8,24.7,61.8,24.7,61.7,24.6"/>
	<path class="st1" d="M38,34.2c-1.8-1.6-3.9-2.3-6.2-2.3c-2,0-3.8,0.6-5.5,1.7c0.1,0,0.3-0.1,0.4-0.1c1.9-0.8,3.8-1.2,5.9-1
		c3.4,0.4,5.6,2.3,6.7,5.5c0,0.1,0,0.1,0.1,0.2c0,0,0,0.1,0,0.2c-0.4-0.1-0.7-0.1-1.1-0.2c-0.1,0-0.2-0.2-0.2-0.3
		c-0.2-0.4-0.3-0.8-0.4-1.1c-0.1-0.2-0.2-0.3-0.4-0.2c-1.2,0.1-2.4,0.3-3.6,0.4c-1.5,0.1-2.9-0.4-4.2-0.8c-0.8-0.2-1.5-0.5-2.3-0.6
		c-1.4-0.3-2.6,0-3.8,0.7c-0.1,0.1-0.2,0.1-0.3,0.2c0,0-0.1,0-0.1,0c0.2-0.5,0.4-0.9,0.6-1.3c0.8-1.7,1.9-3.3,3.5-4.3
		c1.8-1.1,3.7-1.3,5.8-0.9c1.7,0.4,3.1,1.2,4.2,2.5c0.5,0.5,0.8,1.2,1.2,1.8C38,34,38,34.1,38,34.2"/>
	<path class="st2" d="M17.7,63.5c2.4-1.2,4.9-1.7,7.6-1.7c1.5,0,3,0.2,4.4,0.6c-0.3,2-1.6,3.8-3.8,4.4c-1.8,0.4-3.6,0.2-5.3-0.3
		c-1.4-0.4-2.7-0.8-4.1-0.8c-0.6,0-1.3,0-2,0c0.2-0.3,0.3-0.6,0.5-0.9c1.2-2,2.6-4,4.5-5.5c1.4-1.1,2.9-2,4.7-2.1
		c2.7-0.1,4.8,1.8,5.4,4C25.3,60.5,21.3,61,17.7,63.5"/>
	<path class="st2" d="M29.9,71.1c0.2-0.3,0.3-0.5,0.5-0.8c0.8-1.7,1.1-3.4,0.3-5.1c0,0,0-0.1-0.1-0.1c-0.4-0.5-0.4-1-0.2-1.5
		c0.2-0.6,0.3-1.3,0.5-2c0.1,0,0.2,0.1,0.4,0.2c1,0.6,1.9,1.5,2.4,2.6c0.9,2,0.7,3.9-0.6,5.7c-1.3,1.7-3,2.8-5,3.7
		c0.5-2.3-0.8-4.1-1.4-6.1c1.2-0.4,2.2-1.1,2.9-2.2c0.7,0.8,1,1.7,1,2.8C30.5,69.2,30.2,70.2,29.9,71.1
		C29.9,71.1,29.9,71.1,29.9,71.1"/>
	<path class="st1" d="M69.3,86.8c1-2.5,2.6-4.6,4.6-6.3c1.1-1,2.4-1.8,3.7-2.4c1.1,1.7,1.3,4,0,5.8c-1.1,1.5-2.5,2.5-4.2,3.3
		c-1.3,0.6-2.6,1.2-3.7,2.1c-0.5,0.4-1,0.8-1.5,1.3c-0.1-0.3-0.2-0.6-0.2-1c-0.4-2.4-0.6-4.7-0.2-7.1c0.3-1.8,0.9-3.4,2.2-4.7
		c1.9-1.8,4.8-1.8,6.7-0.5C73.1,79.5,70.4,82.5,69.3,86.8"/>
	<path class="st1" d="M83.5,84.5c-0.1-0.3-0.1-0.6-0.2-0.9c-0.4-1.8-1.3-3.3-3.1-4.1c0,0-0.1-0.1-0.1-0.1c-0.6-0.1-0.9-0.5-1.1-1.1
		c-0.2-0.6-0.6-1.2-0.9-1.8c0.1,0,0.2-0.1,0.4-0.1c1.2-0.2,2.4-0.1,3.5,0.4c2,0.9,3.1,2.5,3.3,4.7c0.2,2.1-0.5,4.1-1.4,6
		c-1.1-2.1-3.3-2.6-5.1-3.7c0.6-1.1,0.9-2.3,0.8-3.6c1.1,0.2,1.9,0.7,2.6,1.5C82.7,82.7,83.1,83.6,83.5,84.5
		C83.4,84.6,83.5,84.5,83.5,84.5"/>
	<path class="st3" d="M73.5,37.1c-1.5,2.3-3.4,4-5.7,5.3c-1.3,0.7-2.7,1.3-4.1,1.7c-0.8-1.9-0.5-4.1,1.1-5.7c1.3-1.3,3-2,4.7-2.4
		c1.4-0.3,2.7-0.7,4-1.3c0.6-0.3,1.1-0.6,1.7-1c0,0.3,0,0.7,0,1c0,2.4-0.3,4.8-1.1,7c-0.6,1.7-1.5,3.2-3.1,4.2
		c-2.3,1.4-5,0.8-6.7-0.7C68.4,43.5,71.6,41,73.5,37.1"/>
	<path class="st3" d="M59.1,36.6c0,0.3,0,0.6,0,0.9c0.1,1.9,0.7,3.5,2.3,4.6c0,0,0.1,0.1,0.1,0.1c0.6,0.2,0.8,0.6,0.9,1.2
		c0.1,0.6,0.4,1.3,0.6,1.9c-0.1,0-0.3,0-0.4,0c-1.2,0-2.4-0.3-3.3-1c-1.8-1.3-2.6-3-2.3-5.2c0.2-2.1,1.2-3.9,2.5-5.7
		c0.7,2.2,2.7,3.2,4.3,4.6c-0.8,1-1.3,2-1.5,3.3c-1-0.4-1.7-1-2.2-1.9C59.5,38.5,59.3,37.6,59.1,36.6C59.2,36.6,59.1,36.6,59.1,36.6
		"/>
	<path class="st7" d="M55.8,79.6c0-2.7,0.7-5.2,2-7.6c0.7-1.3,1.6-2.5,2.6-3.6c1.7,1.2,2.6,3.2,2.1,5.4c-0.4,1.8-1.4,3.3-2.7,4.6
		c-1,1-2,2-2.7,3.3c-0.3,0.6-0.6,1.1-0.9,1.7c-0.2-0.3-0.4-0.5-0.5-0.8c-1.2-2-2.3-4.2-2.8-6.5c-0.4-1.7-0.4-3.5,0.4-5.1
		c1.1-2.4,3.8-3.4,6-2.9C56.7,71.4,55.3,75.2,55.8,79.6"/>
	<path class="st7" d="M68.2,72.3c-0.2-0.3-0.3-0.5-0.5-0.8c-1.1-1.5-2.5-2.6-4.4-2.6c-0.1,0-0.1,0-0.2,0c-0.6,0.2-1-0.1-1.4-0.6
		c-0.4-0.5-1-0.9-1.5-1.3c0.1-0.1,0.2-0.2,0.3-0.2c1-0.6,2.2-1,3.4-0.9c2.2,0.1,3.8,1.2,4.8,3.2c0.9,1.9,1,4,0.9,6.1
		c-1.8-1.5-4-1.2-6.1-1.6c0.2-1.2,0-2.4-0.6-3.6c1.1-0.3,2-0.1,2.9,0.4C66.8,70.9,67.5,71.6,68.2,72.3
		C68.2,72.3,68.2,72.3,68.2,72.3"/>
	<path class="st8" d="M58.1,29.9C58.1,29.9,58.1,29.9,58.1,29.9L58.1,29.9C58.1,29.9,58.1,29.9,58.1,29.9"/>
	<path class="st8" d="M58.1,29.9C58.1,29.9,58.1,29.9,58.1,29.9L58.1,29.9C58.1,29.9,58.1,29.9,58.1,29.9"/>
	<path class="st8" d="M81,36.9c-0.1-0.1-0.1-0.1-0.1-0.2c-0.1,0.1-0.1,0.1-0.2,0.2C80.8,36.9,80.9,36.9,81,36.9"/>
	<path class="st8" d="M82.2,45.8C82.3,45.8,82.3,45.8,82.2,45.8L82.2,45.8C82.3,45.8,82.2,45.8,82.2,45.8"/>
	<path class="st8" d="M82.2,45.8C82.3,45.8,82.3,45.8,82.2,45.8L82.2,45.8C82.3,45.8,82.2,45.8,82.2,45.8"/>
	<path class="st8" d="M54.9,48.9c0-0.1-0.1-0.1-0.1-0.2c-0.1,0.1-0.1,0.1-0.2,0.2C54.6,48.9,54.7,48.9,54.9,48.9"/>
	<path class="st8" d="M56.1,57.7C56.1,57.7,56.1,57.7,56.1,57.7L56.1,57.7C56.1,57.7,56.1,57.7,56.1,57.7"/>
	<path class="st8" d="M56.1,57.7C56.1,57.7,56.1,57.7,56.1,57.7L56.1,57.7C56.1,57.7,56.1,57.7,56.1,57.7"/>
	<path class="st8" d="M29.8,38.6c0-0.1-0.1-0.1-0.1-0.2c-0.1,0.1-0.1,0.1-0.2,0.2C29.6,38.6,29.7,38.6,29.8,38.6"/>
	<path class="st8" d="M31,47.5C31,47.5,31,47.4,31,47.5L31,47.5C31,47.4,31,47.5,31,47.5"/>
	<path class="st8" d="M31,47.5C31,47.5,31,47.4,31,47.5L31,47.5C31,47.4,31,47.5,31,47.5"/>
	<path class="st8" d="M39.2,71.3c0-0.1-0.1-0.1-0.1-0.2c-0.1,0.1-0.1,0.1-0.2,0.2C39,71.3,39.1,71.3,39.2,71.3"/>
	<path class="st8" d="M40.5,80.1C40.5,80.1,40.5,80.1,40.5,80.1L40.5,80.1C40.5,80.1,40.5,80.1,40.5,80.1"/>
	<path class="st8" d="M40.5,80.1C40.5,80.1,40.5,80.1,40.5,80.1L40.5,80.1C40.5,80.1,40.5,80.1,40.5,80.1"/>
	<path class="st8" d="M76.8,67.2c0-0.1-0.1-0.1-0.1-0.2c-0.1,0.1-0.1,0.1-0.2,0.2C76.5,67.1,76.7,67.2,76.8,67.2"/>
	<path class="st8" d="M78,76C78,76,78,76,78,76L78,76C78,76,78,76,78,76"/>
	<path class="st8" d="M78,76C78,76,78,76,78,76L78,76C78,76,78,76,78,76"/>
	<path class="st9" d="M71.9,76.9c-0.1-2.4-1-6.8-1.7-9.8"/>
	<path class="st9" d="M78.3,73.8c-3.2-1.3-7.3-4.2-9.3-7.3"/>
	<path class="st9" d="M79.4,67.5c-3.6,1.8-6.6,3.8-9.1,0.1"/>
	<path class="st9" d="M64.8,60.6c-3.8-3-7.5-6.9-8.9-10.4"/>
	<path class="st9" d="M56.9,63.4c0.4-5-0.9-12.7-1.1-14.3"/>
	<path class="st9" d="M63.7,53.9c-3,0.9-4.7,2.4-7.6-2.6"/>
	<path class="st10" d="M66.7,81.6c-0.3-1.9-1.3-2.3,1.9-5.7l3.2-3.4c0,0,0.6,0.7,1.4,1.6c0.8,0.8,3.9,3.7,2.5,6.9
		c-1.4,3.3-2.7,5.1-3.2,5.6c-0.5,0.5-1.8,2.6-2.1,3.1"/>
	<path class="st11" d="M89.3,82.6c-2.3-1-5.7,1.1-8.6-0.9c-2.8-2-4.5-6.9-5.1-8.4c-0.7-1.4-1.8-0.8,0.8-0.9c2.7-0.1,2.8-1,5.2-0.4
		c2.3,0.6,5.6,4,5.8,5.5C87.6,79,89.3,82.6,89.3,82.6"/>
	<path class="st12" d="M75.3,69.5c0.7,0,1.5,0.6,4.9,0.6c3.4,0.1,6-0.3,6.6-2.9c0.6-2.6-0.2-3.1,1.2-4.8l1.5-1.7c0,0-2.9-0.1-7,0
		c-4.1,0.1-5.9,4.2-6.4,5.9C75.6,68.4,75.3,69.5,75.3,69.5"/>
	<path class="st13" d="M73.5,69.5c0,0-1.6-1.7-4.8-1.7c-3.2,0-6.7-1.6-6.7-5c0-3.4-1.1-5.2-1.1-5.2s-0.1,0.5,2.7,0.3
		c2.8-0.2,6.7,1.7,7.8,4.5C72.6,65.1,73.5,69.5,73.5,69.5"/>
	<path class="st14" d="M54.3,73.8c0,0,4.1-4.1,5.4-6.9c1.3-2.8,1.6-4.5,0-6.4c-1.6-2-2.2-3.6-2.2-3.6s-2.3,3.5-3.8,4.3
		c-1.5,0.8-3.2,3.6-2.4,5.3C52,68.2,54.3,73.8,54.3,73.8"/>
	<path class="st15" d="M60.7,54.8c0,0.1,2.5,1.1,5.4,1.4c2.9,0.4,4.5,0.3,5.7-1.1c1.2-1.5,1.9-3,2.7-4.7c0.8-1.7,0.9-2.4,1.6-2.6
		c0.7-0.2-0.9,0.6-4.1-0.2c-3.2-0.8-4.8-1.7-6.1-0.6c-1.3,1.1-1.3,3-2.4,4.6C62.4,53.2,60.7,54.8,60.7,54.8"/>
	<path class="st9" d="M29.7,75.2c2.3-0.7,6.3-2.6,9.1-4"/>
	<path class="st9" d="M34.3,80.7c0.5-3.4,2.3-8.1,4.8-10.8"/>
	<path class="st9" d="M40.7,80.2c-2.6-3.1-5.3-5.5-2.4-8.8"/>
	<path class="st9" d="M43.8,64.3c1.9-4.5,4.9-9,7.9-11.2"/>
	<path class="st9" d="M39.1,57.4c5-0.8,12.1-4,13.6-4.6"/>
	<path class="st9" d="M50,61.7c-1.6-2.7-3.5-3.9,0.6-8"/>
	<path class="st11" d="M23.9,71.3c1.8-0.8,1.9-1.8,6,0.5l4.1,2.3c0,0-0.6,0.8-1.2,1.7c-0.6,0.9-2.6,4.7-6.1,4.1
		c-3.5-0.6-5.6-1.3-6.2-1.7c-0.6-0.3-2.9-1.1-3.5-1.3"/>
	<path class="st16" d="M28.5,93.5c0.4-2.5-2.5-5.3-1.3-8.5c1.2-3.2,5.6-6,6.8-7c1.2-1,0.3-2,1,0.6c0.7,2.6,1.6,2.5,1.7,4.9
		c0,2.4-2.6,6.4-3.9,6.9C31.5,91,28.5,93.5,28.5,93.5"/>
	<path class="st12" d="M37.7,76.7c0.2,0.7-0.2,1.6,0.6,4.9c0.8,3.3,1.8,5.8,4.4,5.7c2.6-0.1,2.9-1,4.9,0l2,1c0,0-0.6-2.8-1.7-6.7
		c-1.1-3.9-5.5-4.7-7.3-4.8C38.8,76.7,37.7,76.7,37.7,76.7"/>
	<path class="st13" d="M37.3,75c0,0,1.3-1.9,0.5-5c-0.8-3.1-0.1-6.9,3.2-7.7c3.3-0.8,4.8-2.3,4.8-2.3s-0.5,0.1,0.4,2.7
		c0.9,2.6,0,6.9-2.4,8.7C41.4,73,37.3,75,37.3,75"/>
	<path class="st14" d="M28.4,57.4c0,0,5,3,8,3.5c3,0.5,4.7,0.5,6.2-1.6c1.5-2.1,2.9-3,2.9-3s-3.9-1.4-5.1-2.7
		c-1.2-1.3-4.3-2.2-5.7-1C33.3,53.8,28.4,57.4,28.4,57.4"/>
	<path class="st15" d="M48.4,59c0,0-0.4,2.6-0.1,5.6c0.4,2.9,0.8,4.5,2.5,5.2c1.7,0.8,3.4,1.1,5.2,1.5c1.8,0.4,2.5,0.3,2.9,0.9
		c0.3,0.6-0.8-0.7-0.8-4c0-3.3,0.5-5-0.9-6.1c-1.4-1-3.2-0.5-5-1.2C50.4,60.3,48.4,59,48.4,59"/>
	<path class="st9" d="M36.7,33.9c0.8,2.3,3,6.2,4.5,8.9"/>
	<path class="st9" d="M31.5,38.8c3.4,0.3,8.2,1.8,11.1,4.2"/>
	<path class="st9" d="M32.3,45.1c3-2.7,5.2-5.6,8.7-2.8"/>
	<path class="st9" d="M48.3,47.4c4.6,1.7,9.2,4.4,11.6,7.3"/>
	<path class="st9" d="M55,42.4c1.1,4.9,4.6,11.9,5.3,13.3"/>
	<path class="st9" d="M51.3,53.5c2.6-1.8,3.8-3.6,8,0.2"/>
	<path class="st10" d="M40.3,27.9c0.9,1.8,1.9,1.8-0.2,6.1l-2.1,4.2c0,0-0.8-0.5-1.8-1.1c-1-0.6-4.8-2.3-4.4-5.9
		c0.4-3.6,1.1-5.6,1.4-6.3c0.3-0.6,0.9-3,1.1-3.6"/>
	<path class="st11" d="M18.4,33.6c2.5,0.2,5.1-2.8,8.4-1.7c3.3,1.1,6.3,5.3,7.4,6.5c1.1,1.2,2,0.2-0.6,1.1c-2.6,0.8-2.4,1.7-4.8,1.9
		c-2.4,0.2-6.5-2.2-7.1-3.5C21.1,36.5,18.4,33.6,18.4,33.6"/>
	<path class="st12" d="M35.6,42c-0.7,0.2-1.6-0.1-4.8,0.8c-3.2,0.9-5.7,2.1-5.5,4.7c0.2,2.6,1.1,2.9,0.2,4.9l-0.9,2
		c0,0,2.8-0.8,6.7-2.1c3.8-1.3,4.5-5.8,4.4-7.6C35.7,43.1,35.6,42,35.6,42"/>
	<path class="st13" d="M37.4,41.4c0,0,2,1.2,5.1,0.3c3.1-0.9,6.9-0.4,7.9,2.8c1,3.2,2.6,4.7,2.6,4.7s-0.1-0.5-2.7,0.5
		c-2.6,1-6.9,0.4-8.8-2C39.5,45.4,37.4,41.4,37.4,41.4"/>
	<path class="st14" d="M54.4,31.7c0,0-2.7,5.1-3.1,8.2c-0.4,3-0.2,4.7,1.9,6.1s3.2,2.8,3.2,2.8s1.2-4,2.4-5.2c1.2-1.2,2-4.4,0.7-5.8
		C58.3,36.4,54.4,31.7,54.4,31.7"/>
	<path class="st15" d="M53.9,51.7c0,0-2.7-0.3-5.6,0.2c-2.9,0.5-4.4,1-5.1,2.7c-0.7,1.7-1,3.4-1.2,5.3c-0.3,1.9-0.2,2.6-0.8,2.9
		c-0.6,0.3,0.6-0.8,4-1c3.3-0.2,5.1,0.2,6-1.2c1-1.4,0.4-3.3,0.9-5.1C52.7,53.8,53.9,51.7,53.9,51.7"/>
	<path class="st9" d="M79.5,39.5c-2.4,0.4-6.5,2-9.5,3.1"/>
	<path class="st9" d="M75.5,33.6c-0.8,3.3-3.1,7.8-5.9,10.3"/>
	<path class="st9" d="M69.1,33.4c2.2,3.3,4.7,6,1.4,9"/>
	<path class="st9" d="M64.4,48.8c-2.4,4.2-5.8,8.4-9,10.3"/>
	<path class="st9" d="M68.3,56.2c-5,0.3-12.5,2.7-14,3.1"/>
	<path class="st9" d="M57.9,50.9c1.3,2.8,3,4.3-1.5,7.9"/>
	<path class="st10" d="M85,44c-1.9,0.6-2.1,1.6-6-1.1l-3.8-2.7c0,0,0.6-0.7,1.4-1.6c0.7-0.9,3.1-4.4,6.5-3.4c3.4,1,5.4,1.9,6,2.3
		c0.6,0.4,2.8,1.4,3.3,1.7"/>
	<path class="st16" d="M82.7,21.4c-0.6,2.5,1.9,5.5,0.4,8.6c-1.6,3.1-6.2,5.4-7.5,6.3c-1.3,0.9-0.5,1.9-1-0.7
		c-0.4-2.7-1.4-2.7-1.1-5.1c0.2-2.4,3.2-6.1,4.6-6.5C79.4,23.6,82.7,21.4,82.7,21.4"/>
	<path class="st11" d="M71.7,37.2c-0.1-0.7,0.4-1.5-0.1-4.9c-0.4-3.4-1.2-5.9-3.8-6.2c-2.6-0.2-3,0.7-4.9-0.5l-1.9-1.2
		c0,0,0.3,2.9,1,6.9c0.7,4,5,5.3,6.8,5.5S71.7,37.2,71.7,37.2"/>
	<path class="st13" d="M72,39c0,0-1.5,1.8-1.1,4.9c0.4,3.2-0.6,6.9-4,7.3c-3.3,0.5-5,1.8-5,1.8s0.5,0-0.1-2.7
		c-0.6-2.7,0.7-6.9,3.3-8.4C67.7,40.5,72,39,72,39"/>
	<path class="st14" d="M79,57.4c0,0-4.7-3.5-7.6-4.3c-2.9-0.9-4.6-1-6.4,0.9c-1.7,1.9-3.2,2.7-3.2,2.7s3.7,1.8,4.8,3.2
		c1,1.4,4,2.7,5.6,1.6C73.7,60.4,79,57.4,79,57.4"/>
	<path class="st15" d="M59.2,53.7c0.1,0,0.7-2.6,0.7-5.5c-0.1-2.9-0.3-4.5-1.9-5.4c-1.6-0.9-3.2-1.5-5-2.1c-1.8-0.6-2.5-0.6-2.8-1.2
		c-0.3-0.6,0.7,0.8,0.4,4.1c-0.3,3.3-1,5,0.2,6.1c1.2,1.2,3.2,0.9,4.9,1.7C57.4,52.2,59.2,53.7,59.2,53.7"/>
	<path class="st17" d="M55.9,66.2c-0.1-2.4-1-6.8-1.7-9.8"/>
	<path class="st17" d="M62.3,63.1c-3.2-1.3-7.3-4.2-9.3-7.3"/>
	<path class="st17" d="M63.4,56.8c-3.6,1.8-6.6,3.8-9.1,0.1"/>
	<path class="st17" d="M48.8,49.9c-3.8-3-7.5-6.9-8.9-10.4"/>
	<path class="st17" d="M40.9,52.7c0.4-5-0.9-12.7-1.1-14.3"/>
	<path class="st17" d="M47.7,43.2c-3,0.9-4.7,2.4-7.6-2.6"/>
	<path class="st17" d="M50.6,70.9c-0.3-1.9-1.3-2.3,1.9-5.7l3.2-3.4c0,0,0.6,0.7,1.4,1.6c0.8,0.8,3.9,3.7,2.5,6.9
		c-1.4,3.3-2.7,5.1-3.2,5.6c-0.5,0.5-1.8,2.6-2.1,3.1"/>
	<path class="st17" d="M73.3,71.9c-2.3-1-5.7,1.1-8.6-0.9s-4.5-6.9-5.1-8.4c-0.7-1.4-1.8-0.8,0.8-0.9c2.7-0.1,2.8-1,5.2-0.4
		c2.3,0.6,5.6,4,5.8,5.5C71.6,68.4,73.3,71.9,73.3,71.9"/>
	<path class="st17" d="M59.3,58.8c0.7,0,1.5,0.6,4.9,0.6c3.4,0.1,6-0.3,6.6-2.9c0.6-2.6-0.2-3.1,1.2-4.8l1.5-1.7c0,0-2.9-0.1-7,0
		c-4.1,0.1-5.9,4.2-6.4,5.9C59.5,57.7,59.3,58.8,59.3,58.8"/>
	<path class="st17" d="M57.5,58.9c0,0-1.6-1.7-4.8-1.7c-3.2,0-6.7-1.6-6.7-5c0-3.4-1.1-5.2-1.1-5.2s-0.1,0.5,2.7,0.3
		c2.8-0.2,6.7,1.7,7.8,4.5C56.6,54.4,57.5,58.9,57.5,58.9"/>
	<path class="st17" d="M38.3,63.1c0,0,4.1-4.1,5.4-6.9c1.3-2.8,1.6-4.5,0-6.4c-1.6-2-2.2-3.6-2.2-3.6s-2.3,3.5-3.8,4.3
		c-1.5,0.8-3.2,3.6-2.4,5.3C36,57.5,38.3,63.1,38.3,63.1"/>
	<path class="st17" d="M44.7,44.1c0,0.1,2.5,1.1,5.4,1.4c2.9,0.4,4.5,0.3,5.7-1.1c1.2-1.5,1.9-3,2.7-4.7c0.8-1.7,0.9-2.4,1.6-2.6
		c0.7-0.2-0.9,0.6-4.1-0.2c-3.2-0.8-4.8-1.7-6.1-0.6c-1.3,1.1-1.3,3-2.4,4.6C46.4,42.5,44.7,44.1,44.7,44.1"/>
	<path class="st18" d="M40.4,34.8c-1.6-0.4-5.4-1.3-8.2,0.8c-2.8,2.1-4.3,2.4-8.2,5.2s-6.2,3.7-5.5,6.5c0.6,2.9,1.5,5.7,3.6,7.8
		s0.6,3.9,2.3,5.3c1.7,1.4,3.7,2.1,4.6,2c0.9-0.2,4.4-0.3,6.3-1.9c1.9-1.6,2.7-2.8,3.9-2.9c1.3-0.1,2.8-0.3,4.5-1.4s3.5-0.4,4.4-3.2
		c0.9-2.8,1.9-2.7,1-6.1s-0.9-1.4-3.1-5.5C43.8,37.2,40.4,34.8,40.4,34.8z"/>
	<path class="st19" d="M36.1,44.9c-0.3-0.3-2.8-1.2-2.8-0.4c0.1,0.8,0.6,2.4,0.3,2.8c-0.3,0.4-0.8,0.3-1.4,0.7
		c-0.6,0.4-1.1,0.8-0.5,1.4c0.6,0.5,1.4,0.2,1.6,1.4s-0.2,0.7,0.4,1.8c0.5,1.1-0.1,1.3,1.3,1.7s1,0.7,1.9,0.2c0.8-0.5,0.4-1.4,1.7-1
		c1.3,0.4,1.5,0.9,2.3,0c0.8-0.9,1.1-1.3,1.2-2.1c0.1-0.9,0.1-0.3,0.9-1.4c0.9-1.1,1.8-0.9,1-2.1c-0.8-1.2-0.8-2.2-2.1-2.1
		c-1.3,0-1.8,0.5-2.7-0.2c-0.9-0.7-1.4-1.6-1.8-1.3C37.2,44.6,36.1,44.9,36.1,44.9z"/>
	<path class="st20" d="M41.5,54.6c-0.1,0.4-0.1,1.3,0.9,2.3c1,1,1.7,1.9,1.9,2.8c0.2,0.9,0.6,7,0.8,7.5c0.3,0.6,1.2,2.3,1.4,2.7
		c0.2,0.4,1,1.8,1.4,1.9s0.7,1.1,0.8,0s-0.3-2.3-0.3-2.3s1.5,2.6,1.7,2.8c0.3,0.1,1.1,0.6,0.6-0.6c-0.5-1.2-1.4-2.9-1.2-2.6
		c0.3,0.3,2.8,2.7,3.2,2.6c0.4-0.1,0.8-0.5,0.3-1.1c-0.5-0.7-1.9-2.3-1.9-2.7c-0.1-0.4,0.1-1,0.9-0.3c0.8,0.8,3.3,1.6,3.6,1.6
		s0.9,0.9,0.8-0.5c-0.1-1.4-2.9-4.8-4.1-5.4c-1.2-0.6-4.3-1.7-5.1-2.5c-0.8-0.8-1.9-3.5-2.4-4.1c-0.5-0.6-0.8-0.9-1.5-1.4
		S41.5,54.6,41.5,54.6z"/>
	<path class="st21" d="M42.8,66.3c0.1,0.3,0.9,3.8,1.2,4.2c0.3,0.4,1.1,1.9,0.8,1.9s-3-4.1-3.1-4.5c-0.1-0.4-0.3-1.6-0.4-1.9
		c0-0.4-0.1-0.9,0.2-0.7S42.8,66.3,42.8,66.3z"/>
	<path class="st21" d="M38.5,54.2c0.3,0.4,1.4,3.1,1.5,4.2c0.1,1.2-0.3,5.5-0.5,6.3c-0.2,0.8-1,2.7-0.3,3.8s1.3,2.9,1.6,3.1
		s0.6,0.5,0.5-0.3c-0.1-0.8-1.1-3.1-1.1-3.7s0-2.1,0-1.9c0,0.2,1.5,1.9,2.5,1.9c1,0.1,1.5,0.3,1.7,0.1c0.2-0.2,1.3-1.2,1.2-1.7
		c-0.1-0.6,0.1-1,0.6-0.3s3,2.2,3.4,2.4s0.6,0.5,1.1,0.1c0.5-0.4,0.4-1-0.4-1.7c-0.7-0.7-2.6-2.9-2.7-2.9s-2.3-1-3.3-2.1
		s-1.7-1.3-2.1-2.6s-0.2-2.7-0.9-3.3s-0.9-0.7-1.3-1C39.7,54.3,38.5,54.2,38.5,54.2z"/>
	<path class="st21" d="M38.5,67.1c0.5,0.6,2.2,7.2,1.8,7.4s-0.6-0.5-1.3-1.6c-0.8-1.1-1.8-2.2-1.9-2.8s-0.2-1.1,0-1.9
		C37.3,67.4,38.5,67.1,38.5,67.1z"/>
	<path class="st21" d="M25.1,65.6c-0.5,0.6-2,3-2.1,3.4c-0.1,0.4-0.4,1.5,0,1.2c0.4-0.3,1.7-1,1.7-1s-0.6,1.2-0.7,2
		c-0.2,0.9-0.6,3.6-0.3,3.3s1.7-1.7,1.7-1.7l2.4-3.2c0,0-0.2-2.1-0.5-2.5c-0.3-0.4-0.7-0.7-1.1-0.9C25.6,66,25.1,65.6,25.1,65.6z"/>
	<path class="st22" d="M35.1,55c0.1,0.2,0.1,2.8-0.7,3.8c-0.8,1-2.3,1.9-3.3,3.1c-1,1.2-2.9,3.4-3.3,4.1c-0.4,0.7-1.9,3.7-2.1,4.2
		c-0.2,0.5-0.5,2.7-0.6,2.8c-0.1,0.1,0.2,0.5,1,0.3c0.8-0.3,1.8-0.9,2.7-2s1.1-1.6,1.8-2.4c0.7-0.7,0.9-1.5,1-1.2
		c0.1,0.3-1.8,2.5-1.5,3c0.3,0.5,0.3,2.2,1,2.7c0.7,0.4,0.4,1.4,0.6,1c0.3-0.4,0.6-1,1.4-1.7c0.8-0.7,1.4-1,1.6-2
		c0.3-1,0.5-2.2,0.5-2.1c-0.1,0.1-0.5,2.5-0.3,3.2c0.2,0.7,0.3,1,0.6,0.9c0.3-0.1,1.2-1.6,1.6-2.3c0.4-0.7,1.3-2.3,1.3-2.3l0.7,1.6
		c0,0,0.7-0.6,0.3-1.3s-1.1-2.3-1.3-3.4c-0.3-1.1-1.5-4.5-1.3-5.6c0.2-1.1,0.7-1.2,0.8-2c0.1-0.8,0.4-1.5,0.1-2
		c-0.3-0.5-0.7-1-1.1-0.9c-0.4,0.2-0.6,0.3-0.8,0.3C35.4,54.9,35.1,55,35.1,55z"/>
	<path class="st21" d="M15.5,52.5c-0.3,0.2-1.4,0.9-0.7,1.1c0.8,0.2,1.8,0.5,1.7,0.6s-2,1.8-2.5,2.7c-0.5,0.9-1,1.4-0.5,1.4
		s0.9,0.1,1.9-0.5s3.8-1.7,4-2.2s0.6-1.5-0.3-2c-0.8-0.5-0.7-0.6-1.7-0.8C16.6,52.6,15.5,52.5,15.5,52.5z"/>
	<path class="st23" d="M30.9,50.2C29.9,50,28,49.8,25,49.9c-3,0.1-4.4,1-6.6,0.9c-2.2-0.1-5.1-0.2-6.3-0.4s-2.3-1-2.5-1.2
		c-0.2-0.2-1.1-0.4-0.7-0.7s2.3-2.8,3.7-3s3.1-0.1,4.4,0.5c1.3,0.6,5.7,2.3,6.2,2.1c0.6-0.2,2.2-0.1,3,0c0.8,0.1,1.8,0.4,2.4,0.6
		C29.2,48.8,30.9,50.2,30.9,50.2z"/>
	<path class="st24" d="M30.9,52.5c-0.9,0.2-6.4,0.7-8-0.3c-1.6-0.9-3.3-2-4.5-2.3c-1.2-0.3-2.9-0.1-3.4,0c-0.6,0.1-0.6,0.2-1.6,0.3
		c-1,0.1-1.6,0.4-2.1,0.5S9.8,51,9.1,51.3c-0.7,0.3-1.9,0.9-1.2,1s2.8,0.1,3.5-0.1c0.8-0.1,2.5-0.6,2.6-0.6s1.2,0.7,1.8,1.1
		c0.7,0.4,1.5,0.9,1.9,1.1c0.5,0.2,1.6,0.3,1.9,0.4c0.3,0.1,1.7,0,1.7,0s-2.4,0.4-3,0.7c-0.6,0.3-2.9,2.6-3,3.4s0,1.6,0.3,1.6
		s1.2,0,1.2,0s-1.3,1.5-1.5,1.8c-0.2,0.3-1.5,1.2-1.4,1.6c0.1,0.4,0.8-0.3,1.3-0.8c0.5-0.5,1.5-1.8,1.1-0.8c-0.4,1-0.8,2.5-0.6,1.7
		c0.2-0.7,1-1.8,1.7-2.4c0.7-0.6,2.8-1.7,4.2-2.5s3.8-1.1,4.4-1.5s1.4-1.1,1.9-1.6c0.5-0.5,1.3-0.8,1.8-1.2s2.1-1.5,2.2-1.7
		c0.1-0.2,0-0.7-0.3-0.6C31.6,52.1,30.9,52.5,30.9,52.5z"/>
	<path class="st21" d="M22.4,63.3c-0.5,0.4-1.9,2.9-2.7,3.1c-0.8,0.3-1.7,0.7-1.6,0.4c0.2-0.3,1.4-1.4,1.7-2.2c0.3-0.8,0.9-2,0.9-2
		s-0.7,1.4-1.3,1.8s-1.4,1.2-1.6,1.3c-0.2,0.1-0.5,0.2,0-0.5c0.5-0.7,1.6-2.1,1.9-2.6c0.3-0.5,0.6-1.4,1.1-1.4
		c0.5-0.1,0.9,0.3,1.2,0.5c0.3,0.2,1.2,0.1,0.8,0.9c-0.4,0.8-0.7,0.6-0.7,0.6"/>
	<path class="st25" d="M33.5,55c-0.4,0.3-2.8,2.1-5.4,2.5c-2.7,0.4-3.7,0.2-5.3,0.8c-1.6,0.6-3.2,2.4-3.3,2.8s-0.7,1.2-0.7,1.5
		c0.1,0.3,2.6,1.5,3.3,1.4c0.8-0.1,2.2-0.7,2.2-0.7s0.6,2.9,0.3,4.1s0,2.7,0,2.7s1.5,0.5,1.6-0.3c0.1-0.8,2.3-4.7,2.9-5.4
		c0.6-0.7,1.2-3.7,1.5-4.5s2.3-2.5,2.4-2.8c0.2-0.4,0.9-1.1,1-1.2c0.1-0.2,0.3-1.2,0.3-1.2L33.5,55z"/>
	<path class="st26" d="M32.2,50.8c-0.6,0.2-1.7,0.5-2.4,0.5s-1.8,0.3-1.3,0.4s1.7,0.4,2.4,0.2c0.7-0.2,2.1-0.5,2,0.1s-1.5,2.2-2,2.3
		c-0.5,0.1-1.3,0-1.1,1c0.2,1,0.9,1.5,1.8,0.5c0.9-1,1.3-1.6,1.7-1.8c0.4-0.2,0.6,0.4,1.3,0.1s0.8-0.6,0.3-1.1c-0.5-0.5-1-0.8-1.2-1
		c-0.2-0.2,0.3,0.3-0.3-0.6C33,50.5,32.2,50.8,32.2,50.8z"/>
	<path class="st26" d="M29.1,50.8c-1.1,0-2.3-0.1-3,0s-1.5,0.5-2.2,0.4s-1.5-0.5-1,0c0.5,0.5,1.4,1.1,2.4,1.1c1,0.1,2.4,0.2,2.5,0
		c0.1-0.2,0.1-0.2,0.8-0.6c0.7-0.3,0.8-0.8,1.4-1s1.5,0.1,1.2-0.2C30.9,50.2,29.1,50.8,29.1,50.8z"/>
	<path class="st21" d="M28.7,48.6c-1.1-0.3-6.5-2.2-6.9-2.7c-0.4-0.5-2.7-2.6-5-3.3S13,42,12,42c-1-0.1-1.9,0.2-2.5,0.3
		c-0.5,0.1-1.8,0-1.4,0.5c0.4,0.5,0.4,0.7,1.6,0.8c1.2,0.1,3.3,0.3,4.2,0.6c1,0.4,1.5,1.2,2.5,1.6c1,0.4,7,2.4,8.5,2.5
		S28.7,48.6,28.7,48.6z"/>
	<path class="st21" d="M26,31.5c-1.7-1.7-3.6-2.8-4.3-3.1s-1.6-0.7-1.5,0.4c0.2,1.1,3.5,6.9,3.7,7.1c0.2,0.2-0.4,0.2-0.8,0.2
		c-0.4,0.1-2.1-0.3-1.9,0.4c0.3,0.7,3.9,4.3,4.8,4.3s2.4-0.6,2.4,0c0,0.6,0.5,3,1,3.3c0.5,0.4,1.4,1,1.9,1.1s1.5,1.1,1.8,1.5
		s0.9,0.4,1.2-0.2c0.3-0.6,1.6-2.2,0.4-3.1c-1.2-1-2.7-1.2-4.1-3.6c-1.3-2.5-1.7-4.1-2.5-5.6S26,31.5,26,31.5z"/>
	<path class="st21" d="M32.8,46.9c-0.3-0.8-1-1.5-1.5-1.7c-0.5-0.2-2.2-1.6-2.2-1.6c0,0-0.8,0.9-0.3,1.1c0.5,0.2,1.2,0.7,1.4,1.2
		c0.2,0.5,0.2,1.7,0.6,1.7s0.4,0.3,1.2,0.2C32.6,47.7,32.8,46.9,32.8,46.9z"/>
	<path class="st22" d="M32.8,48.6c-0.4-0.7-4.6-5.2-5.1-5.9c-0.4-0.7-2.6-5.2-3.1-5.8c-0.5-0.7-3-4.5-4-5.5s-2.5-1.7-3-2
		s-0.2,0.3,0,0.5c0.2,0.2,1.2,1.5,0.9,1.7c-0.3,0.2-1.2-0.6-1.4,0.1c-0.2,0.7,0.5,2.2,1.1,2.4s1.7,1,1.8,1.4
		c0.1,0.4-0.2,0.8-1.5,0.6s-2.2-0.1-3.2-0.1c-1,0.1-2-0.1-1.9,0.6s1.7,3.2,2.3,3.6c0.6,0.4-0.2,1.1-0.9,0.8
		c-0.7-0.3-2.5-0.8-3.3-1.3c-0.8-0.6-3.1-1.3-2-0.6c1.1,0.8,3.7,2.1,3.8,2.2c0.1,0.1,8.8,5.6,9.9,5.3c1-0.3,2.5-0.8,3.4-0.7
		c0.8,0.2,1.9,0.9,2.5,1.3c0.7,0.4,1.8,1,2.2,1.1C31.6,48.5,32.8,48.6,32.8,48.6z"/>
	<path class="st21" d="M33,42.7c-0.2-0.6-0.6-6-0.8-8.2c-0.3-2.2-1.2-4.7-2.1-5.7c-0.8-1.1-1.9-3.2-2-3.5c-0.1-0.3-0.8-0.4-0.8,0.3
		c-0.1,0.6,0,3.7-0.3,3.8c-0.3,0-1.1-2.1-1.5-2.7c-0.4-0.6-2.2-2.4-2-1.5s1.4,2.1,1.8,3.3c0.4,1.2,1.3,2.6,1.3,3.1
		c-0.1,0.4,1.2,3.7,2.4,5.6c1.2,1.9,2.6,4.1,2.9,4.3C32.1,41.6,33,42.7,33,42.7z"/>
	<path class="st23" d="M43.5,53.8c0,0,4.4,2.9,5.7,3.8c1.3,0.9,2,2.4,4.2,3.1c2.2,0.7,3.5,1.1,4.3,1.2c0.8,0.1,1.2-0.7,1.2-0.7
		s-4-4.2-5.5-5.2c-1.5-0.9-2.4-1.8-4.2-2.5c-1.8-0.6-1.7-0.4-3.1-0.4c-1.4,0-1.6,0.4-2.3,0c-0.7-0.4-0.9-0.4-1.2-0.5
		c-0.3-0.1-0.3,0.5-0.3,0.5L43.5,53.8z"/>
	<path class="st21" d="M45.8,57.5c0.4,0.1,4.9,3,6.7,3.2c1.8,0.2,5.1,1.8,5.7,1.8s2,0,2.2,0.3c0.2,0.4-0.2,0.9-1.4,1.2
		c-1.3,0.3-2.7,0.9-3.7,0.6s-3.2-0.8-3.9-1.2c-0.7-0.4-2.2-1.2-3.2-1.9c-1-0.7-1.4-0.9-1.8-1.8s-1.1-1.8-1.5-2.5
		c-0.3-0.7-0.9-1.5-1.6-1.9s-2.2-0.7-2.2-1.1c0-0.4-0.1-0.3,0.8,0c0.9,0.3,1.9,0.3,2.3,1C44.5,55.9,45.8,57.5,45.8,57.5z"/>
	<path class="st21" d="M58.2,64.2c0.2,0.3,2.1,1.9,1.8,1.9s-1.5-0.4-1.8-0.5c-0.3-0.1-1-0.3-1.1-0.5s-0.3-0.2,0-0.4
		C57.4,64.4,58.2,64.2,58.2,64.2z"/>
	<path class="st23" d="M58.2,30.9c-0.7,0.2-6.5,2.6-7.1,3.5c-0.6,1-4,5.4-4.4,6.1c-0.4,0.8-1.6,2.9-2.2,3.4
		c-0.5,0.5-1.1,1.1-1.4,1.5c-0.3,0.4-1.3,1.5-0.3,1.3c1-0.2,5-3.1,5.7-3.6c0.7-0.6,5-4,5.7-5c0.7-0.9,1.4-1.5,1.8-2.2
		c0.5-0.7,1.4-0.8,1.8-1.8C58.3,33.1,58.2,30.9,58.2,30.9z"/>
	<path class="st21" d="M44.9,46.6c1-0.2,4.1-1,5-1.3c0.9-0.3,6.7-1.8,7.7-1.7c1,0,3.6,0.4,4.2,0c0.6-0.4,2-1.1,1.9-1.6s-1-1-1.9-1.1
		c-0.9-0.1-1.9-0.2-1.7-0.6s1.2-3,1.4-3.9c0.2-1,0.9-1.9,0.1-2c-0.8-0.1-1.3-0.5-3.4,0.6c-2.1,1.1-6.9,6.3-8.3,7.7
		c-1.4,1.4-3.6,2.8-4.5,3c-0.8,0.2-2,1.6-2,1.6L44.9,46.6z"/>
	<path class="st27" d="M45.3,47.6c0.6-0.4,4.3-1.6,5-2.3c0.7-0.7,4.9-4.1,5.6-4.9s2.9-2.2,3.5-2.4s2.4-0.2,2.6,0s0.4,1-0.3,1.5
		s-1.6,2-2.2,2.6c-0.6,0.6-1.7,1.4-1.3,1.4c0.4,0,4-0.3,4.8,0.2c0.8,0.5,1,0.5,0.7,1.2c-0.3,0.7-2,2.8-3,3.1c-1,0.3-2.1,1.2-4.7,1.8
		c-2.6,0.7-4.3,1.4-5.7,0.9c-1.4-0.5-2.6-1.4-3.8-0.9c-1.2,0.4-0.3,0.9-2,1.1c-1.7,0.2-2.6,0.4-2.3-0.2c0.3-0.6-0.2-0.4,0.9-1.5
		C44.3,48.2,45.3,47.6,45.3,47.6z"/>
	<path class="st21" d="M43.2,51.6c0.7,0.1,4.1-0.3,5.2-0.4s4.4-1.1,5.6-1.3c1.2-0.2,4.4-0.6,5-0.4s0.7,0.2,1.2,0.4s0.8,0.8,0.3,0.9
		c-0.5,0.1-1.8,0.7-2.2,0.9c-0.4,0.1-2.6,0.2-2.4,0.4s3.7,1,3.8,1.5s0.9,1.9-0.8,2.3c-1.6,0.4-1.2,1.2-3.8,0.4s-4.1-1.4-4.8-2
		c-0.7-0.6-3.6-1.8-4.1-1.7c-0.6,0.1-3.7,0.2-3.9,0c-0.3-0.3-0.1-0.9-0.1-0.9L43.2,51.6z"/>
	<path class="st21" d="M59.7,49.1c1.1,0,2.9,0.3,3.6,0c0.7-0.3,2.2-0.1,1.7,0.3c-0.5,0.4-1.2,1.7-2.6,2c-1.4,0.3-1.9,0.9-1.6,1
		c0.4,0,1.7-0.1,0.6,0.7c-1.1,0.8-0.5,1.2-1.8,0.5c-1.4-0.7-1.6-0.7-2.5-1.2c-0.9-0.5-0.7-0.8-0.2-1.2c0.5-0.4,1.6-0.8,1.6-1
		c0-0.2-0.7-0.9-0.6-1.2s0.7-0.5,0.9-0.4C59.1,48.7,59.7,49.1,59.7,49.1z"/>
	<path class="st21" d="M42.4,22.7c0.1,0.4,0.5,2.3,0.5,2.6c0,0.3-0.3,1.6-0.5,1.6c-0.2-0.1-0.7,1.2-1,0c-0.3-1.2,0-1.8,0-2.5
		s-0.2-0.5,0.3-1s0.7-1,0.7-1"/>
	<path class="st21" d="M43.9,23.4c0.2,0.4,1.2,3.9,0.9,5.2c-0.3,1.3-2.4,10.6-3.1,11.5c-0.7,0.9-1.4,1.6-1.8,2.6
		c-0.4,1-0.9,2.1-1.2,2.2c-0.3,0.1-0.3-0.8-0.2-1.6s0.3-4.3,0.4-5.4c0.1-1.1,0.1-3.8,0.5-4.4c0.4-0.7,1.3-1.7,1.6-2.6
		c0.4-0.9,0.6-0.7,1.2-2.3c0.6-1.5-0.4-2.4,0.2-2.9s0.6-1.2,1-1.8C43.9,23.4,43.9,23.4,43.9,23.4z"/>
	<path class="st22" d="M36.4,45.3c0.1-0.5-1.9-5.8-2.2-6.1c-0.3-0.3-2.8-3.5-3.6-5s-3.4-6.2-3.4-6.9s-1.5-1.9-1.7-2.5
		s-0.9-2.1,0.5-1.1c1.4,1.1,2.8,2.4,3.3,3c0.5,0.7,1.4,2.7,1.5,2c0.1-0.7-2-3.2-1.8-3.9c0.3-0.8,0.6-0.9,0.7-1.4
		c0.1-0.5-0.2-1.5-0.1-1.3c0.1,0.2,2.3,2.2,3,2.8c0.8,0.7,1.3,2.2,1.5,2.5s0.4-0.9,0.9-2.2c0.4-1.2,2.1-3.3,2.4-3.4
		c0.3-0.1,0.5,1.7,1.1,2.5c0.6,0.8,0.9,2.9,0.7,3.5c-0.2,0.6-0.6,1,0.1,0.5c0.7-0.6,1.8-2.2,1.8-2.7s0.6-1.2,0.8-0.1
		c0.2,1.1-0.4,4.8-1,6c-0.7,1.3-1.2,4.2-1.8,5.4s-1.2,1.8-1.5,2.3s-0.4,1.4-0.5,2.7s0.5,1.7,0.4,2.2c-0.1,0.5,0.3,1.4-0.3,1.5
		C36.8,45.8,36.4,45.3,36.4,45.3z"/>
	<path class="st23" d="M47.9,33.2c0.5-1.3,1.1-1.5,1.5-3s0.6-2.6,0.4-3.4c-0.2-0.8-0.3-1.1-0.8-0.7c-0.5,0.4-3.3,1.8-4,3.5
		c-0.7,1.7-2,7-2.3,8.2c-0.4,1.2-1.7,4.6-1.9,5S40,44.5,40,44.5l3-3.5c0,0,2.2-3.4,2.6-4.2C46,36,47.9,33.2,47.9,33.2z"/>
	<path class="st21" d="M53.2,29.3c-0.5,0.2-2.2,2.3-4.4,3.5c-2.1,1.2-4.8,5.3-5.4,5.8c-0.6,0.6-2.3,2.9-2.5,3.3s-0.6,3.1-0.5,3.3
		c0.1,0.2,1.7,0.3,2,0s0.7-2.3,0.7-2.3s0.8-1.2,1.3-1.8c0.6-0.6,0.5-0.7,1.7-1.2c1.2-0.5,2.2-1.1,2.7-2.1c0.5-1.1,2.3-4,3-5
		c0.7-1.1,1.2-1.2,1.4-1.9C53.4,30.2,53.2,29.3,53.2,29.3z"/>
	<path class="st21" d="M40.7,47.6c-0.7,1.1-0.6,2.7-1.3,2.2c-0.7-0.5-0.3-0.9-1-1.1S37.7,48,37.3,48c-0.4,0.1-0.1,0.6-0.5,0.7
		c-0.4,0.2-0.8,0.1-1,0.2c-0.2,0.1-2,1-1.2,0.9c0.8,0,1.5-0.1,1.8-0.1c0.4,0-0.5,0.8-0.7,0.9s-1.1,1.3-0.6,1.2
		c0.5-0.1,1.5-1,1.9-0.8s-0.4,1.2,0.3,1.2c0.7,0,0.8-1,0.8-1.2c0-0.2,1.1,0.1,1.1,0.1s0.7-0.2,0.8-0.5s0.2-0.3,0.4-0.6
		S40.7,47.6,40.7,47.6z"/>
	<path class="st18" d="M90.8,59.9c-0.5,1.2-1.7,4-4.4,4.9c-2.7,0.8-3.5,1.7-7.2,2.9c-3.6,1.2-5.2,2.2-6.8,0.5c-1.6-1.7-3-3.6-3.3-6
		c-0.3-2.4-2.2-2.2-2.3-4c-0.1-1.7,0.4-3.4,0.9-3.9c0.5-0.5,2.2-2.7,4.2-3.1s3.1-0.4,3.7-1.2c0.6-0.8,1.5-1.7,3-2.2
		c1.6-0.6,1.9-2,4.1-1.3c2.2,0.8,2.6,0,4.4,2.2c1.8,2.2,0.5,1.3,2.1,4.6S90.8,59.9,90.8,59.9z"/>
	<path class="st19" d="M82.3,57.9c0.1,0.3-0.5,2.4-1,2c-0.5-0.4-1.3-1.5-1.6-1.5c-0.4,0-0.5,0.3-1.1,0.5c-0.6,0.2-1,0.3-1.1-0.3
		c-0.1-0.6,0.5-1-0.1-1.7c-0.6-0.7-0.5-0.2-1-1.1c-0.4-0.9-0.8-0.6-0.5-1.6c0.4-1,0-1,0.7-1.3c0.7-0.3,1.1,0.4,1.4-0.7
		c0.3-1,0.1-1.4,1.1-1.5s1.3-0.1,1.9,0.2c0.6,0.3,0.2,0.1,1.3,0.1s1.4-0.7,1.8,0.3s1,1.5,0.4,2.3c-0.6,0.8-1.1,0.9-1.1,1.8
		s0.4,1.7,0,1.8C83,57.4,82.3,57.9,82.3,57.9z"/>
	<path class="st20" d="M78.6,50c-0.3-0.1-0.9-0.5-1.1-1.6s-0.4-2-0.9-2.5c-0.5-0.6-4.2-3.6-4.4-4s-0.9-1.9-1-2.2
		c-0.1-0.3-0.7-1.5-0.6-1.8s-0.4-1,0.4-0.5c0.7,0.5,1.3,1.3,1.3,1.3s-1-2.2-1-2.4s0.1-1,0.6-0.1c0.5,0.9,1.2,2.3,1.1,2
		c0-0.3-0.4-3-0.2-3.2c0.2-0.2,0.7-0.3,0.9,0.3s0.6,2.3,0.8,2.5c0.2,0.2,0.7,0.4,0.6-0.5c-0.1-0.9,0.5-2.9,0.6-3.1s-0.2-1,0.7-0.3
		c0.9,0.7,1.7,4.1,1.5,5.2c-0.2,1.1-0.9,3.6-0.8,4.5c0.1,0.9,1.4,2.9,1.5,3.4s0.2,1,0.2,1.6C79,49.2,78.6,50,78.6,50z"/>
	<path class="st21" d="M71.8,43.6c-0.1-0.2-2-2.4-2.1-2.7c-0.1-0.4-0.7-1.6-0.8-1.4c-0.1,0.2,1.2,3.9,1.5,4.1c0.2,0.2,0.9,1,1.1,1.1
		c0.2,0.2,0.6,0.5,0.6,0.2C71.9,44.6,71.8,43.6,71.8,43.6z"/>
	<path class="st21" d="M77.5,52c-0.1-0.4-1.3-2.4-2-2.9c-0.7-0.6-3.7-2.4-4.3-2.6s-2.2-0.6-2.6-1.6s-1.3-2.2-1.2-2.5
		c0-0.3,0-0.6,0.4-0.2c0.5,0.5,1.5,2.2,1.9,2.5c0.4,0.3,1.3,1,1.2,0.9s-0.5-1.9-0.1-2.5c0.4-0.6,0.5-1.1,0.7-1.1
		c0.2,0,1.4-0.3,1.7,0.1c0.3,0.3,0.6,0.4,0.4-0.2s0-3,0.1-3.3c0.1-0.3,0-0.6,0.5-0.7c0.5-0.1,0.8,0.2,0.9,1c0.1,0.8,0.7,3,0.6,3.1
		c-0.1,0.1-0.4,2-0.2,3.1s0.1,1.7,0.7,2.5c0.6,0.8,1.6,1.4,1.7,2.1s0,0.9,0,1.3S77.5,52,77.5,52z"/>
	<path class="st21" d="M69.2,46c-0.2-0.6-3.6-4.7-3.9-4.6c-0.3,0.1,0.1,0.6,0.4,1.6c0.4,1,0.5,2.2,0.9,2.5c0.3,0.4,0.7,0.6,1.2,0.9
		C68.4,46.7,69.2,46,69.2,46z"/>
	<path class="st21" d="M63.9,55.3c-0.6,0-2.8-0.1-3.1-0.2s-1.1-0.4-0.8-0.6s1.4-0.6,1.4-0.6s-1-0.2-1.7-0.5s-2.6-1.3-2.2-1.3
		c0.3-0.1,1.9-0.3,1.9-0.3l3.2-0.1c0,0,1.2,1.1,1.4,1.5c0.1,0.4,0.1,0.8,0.1,1.2C63.9,54.8,63.9,55.3,63.9,55.3z"/>
	<path class="st22" d="M75.4,53.9c-0.1-0.1-1.8-1.3-2.8-1.3s-2.3,0.6-3.6,0.7c-1.2,0.1-3.6,0.3-4.2,0.2c-0.7-0.1-3.3-0.5-3.7-0.6
		c-0.4-0.1-1.9-0.9-2.1-0.9c-0.1,0-0.2-0.4,0.3-0.8s1.4-0.7,2.6-0.8c1.2,0,1.6,0,2.4-0.1c0.8-0.1,1.4,0.1,1.2-0.1
		c-0.2-0.2-2.4,0-2.6-0.5c-0.2-0.5-1.3-1.2-1.3-1.9c0-0.6-0.7-0.9-0.4-0.9c0.4,0,0.9,0.1,1.7-0.1c0.8-0.2,1.3-0.4,2.1-0.1
		c0.8,0.3,1.7,0.7,1.6,0.7c-0.1,0-1.8-0.9-2.2-1.3c-0.3-0.5-0.5-0.7-0.3-0.8c0.2-0.1,1.6,0,2.2,0.1c0.7,0.1,2.1,0.2,2.1,0.2
		l-0.7-1.2c0,0,0.7-0.1,1,0.4c0.2,0.6,1,1.7,1.6,2.4c0.6,0.7,2.2,3.1,3,3.5c0.8,0.4,1.1,0.1,1.7,0.4c0.5,0.3,1.1,0.4,1.3,0.9
		c0.2,0.4,0.3,0.9,0,1.1s-0.4,0.2-0.5,0.4S75.4,53.9,75.4,53.9z"/>
	<path class="st21" d="M67.8,67.6c-0.2,0.1-1.2,0.5-1-0.1s0.6-1.4,0.4-1.4c-0.2,0-2.1,0.4-2.9,0.4c-0.8-0.1-1.4,0-1.1-0.4
		c0.2-0.4,0.3-0.6,1.2-1c0.9-0.4,2.9-1.6,3.3-1.5c0.4,0.1,1.2,0.4,1.2,1.1c-0.1,0.8,0.1,0.7-0.3,1.5C68.3,66.9,67.8,67.6,67.8,67.6z
		"/>
	<path class="st23" d="M76.5,58.8c-0.3,0.7-1.1,2-2.6,3.9s-2.7,2.4-3.6,3.8c-1,1.5-2.3,3.4-2.7,4.2c-0.4,0.9-0.4,1.9-0.4,2.1
		c0.1,0.2-0.3,0.9,0.1,0.7c0.4-0.2,2.8-0.2,3.7-1s1.5-1.9,1.7-3.1c0.3-1.1,1.2-4.7,1.6-5c0.4-0.3,1.1-1.4,1.4-1.9
		c0.3-0.6,0.6-1.3,0.7-1.8C76.6,60.5,76.5,58.8,76.5,58.8z"/>
	<path class="st24" d="M75,57.7c-0.5,0.5-3.4,3.8-3.6,5.3c-0.2,1.5-0.2,3.1-0.6,4c-0.4,0.9-1.3,1.9-1.6,2.2s-0.4,0.3-0.9,0.9
		s-1,0.9-1.3,1.1c-0.2,0.3-0.9,0.8-1.3,1.1c-0.5,0.3-1.5,0.8-1.2,0.3c0.2-0.5,1.3-1.8,1.7-2.2c0.4-0.4,1.5-1.3,1.6-1.4
		c0-0.1,0.1-1.1,0.2-1.7s0.1-1.4,0.2-1.7c0.1-0.4,0.5-1.2,0.7-1.4s0.8-1.1,0.8-1.1s-1.4,1.4-1.9,1.6c-0.5,0.3-3,0.6-3.6,0.3
		c-0.6-0.3-1-0.7-0.9-0.9c0.1-0.2,0.6-0.8,0.6-0.8s-1.6,0.1-1.9,0.1c-0.3,0-1.5,0.4-1.7,0.1c-0.2-0.3,0.5-0.4,1.1-0.5
		s1.8-0.1,1.1-0.3c-0.8-0.2-1.9-0.7-1.4-0.4s1.6,0.2,2.4,0c0.7-0.2,2.4-1,3.6-1.6c1.2-0.6,2.5-1.9,3-2.1c0.5-0.1,1.4-0.4,1.9-0.4
		c0.5-0.1,1.1-0.5,1.6-0.6c0.5-0.1,2-0.6,2.1-0.6s0.4,0.3,0.2,0.4S75,57.7,75,57.7z"/>
	<path class="st21" d="M64.1,58.1c-0.5,0.2-2.7-0.1-3.3,0.3c-0.5,0.4-1.2,0.8-1,0.8s1.6-0.2,2.2,0s1.7,0.4,1.7,0.4s-1.3-0.2-1.8,0
		c-0.5,0.2-1.4,0.4-1.6,0.5c-0.2,0.1-0.4,0.2,0.3,0.2s2.1-0.1,2.5,0c0.5,0,1.2,0.2,1.4,0c0.2-0.3,0.2-0.7,0.2-1
		c0-0.3,0.5-0.8-0.2-0.9c-0.7-0.1-0.7,0.2-0.7,0.2"/>
	<path class="st25" d="M74.6,54.9c-0.4,0.1-2.6,0.8-4.1,2.3c-1.5,1.5-1.8,2.3-3,3s-3,0.9-3.3,0.8c-0.3-0.1-1.1-0.1-1.3-0.3
		c-0.1-0.2,0.2-2.3,0.7-2.8c0.4-0.4,1.5-1.1,1.5-1.1s-1.6-1.7-2.5-2.1c-0.9-0.4-1.7-1.2-1.7-1.2s0.3-1.2,0.9-0.9s4.1,0.7,4.8,0.7
		c0.7,0,2.9,1,3.6,1.1s2.6-0.3,2.9-0.2c0.3,0.1,1.1-0.1,1.3-0.1c0.1,0,0.9,0.4,0.9,0.4L74.6,54.9z"/>
	<path class="st26" d="M76.7,57.7c-0.4,0.3-1.1,0.9-1.4,1.3c-0.3,0.4-1,1-0.9,0.7c0.1-0.4,0.5-1.3,1-1.6s1.3-1.1,0.9-1.3
		c-0.4-0.2-2.1-0.1-2.4,0.2c-0.3,0.3-0.6,0.8-1.1,0.2c-0.5-0.6-0.5-1.3,0.5-1.4c1.1-0.1,1.7-0.1,2-0.3c0.3-0.2,0-0.6,0.5-0.9
		c0.5-0.3,0.7-0.3,0.8,0.3s0,1,0.1,1.3c0,0.2,0-0.3,0.2,0.4C77.2,57.3,76.7,57.7,76.7,57.7z"/>
	<path class="st26" d="M75.3,59.7c-0.5,0.7-1,1.5-1.4,1.9c-0.4,0.4-1,0.7-1.2,1.2s-0.4,1.2-0.5,0.6c-0.1-0.5,0-1.4,0.4-2
		c0.4-0.6,1-1.6,1.1-1.6c0.1,0,0.2,0,0.7-0.2c0.5-0.3,0.9-0.2,1.3-0.5c0.4-0.3,0.7-1,0.7-0.7C76.5,58.8,75.3,59.7,75.3,59.7z"/>
	<path class="st21" d="M76.5,60.9c-0.3,0.9-1.6,5.2-1.5,5.6c0.1,0.5,0.5,2.9-0.2,4.7c-0.7,1.8-1.4,2.8-1.8,3.4s-1,1.2-1.3,1.5
		c-0.3,0.3-0.8,1.1-0.9,0.7s-0.3-0.6,0.2-1.4s1.4-2.2,1.6-3s0-1.5,0.2-2.3s1.7-5.6,2.3-6.6S76.5,60.9,76.5,60.9z"/>
	<path class="st21" d="M86.2,70.7c0.3,1.9,0.1,3.6,0,4.2c-0.1,0.5-0.3,1.4-0.9,0.7c-0.6-0.6-2.8-5.4-2.8-5.6c0-0.2-0.3,0.2-0.5,0.4
		s-0.8,1.5-1.1,1c-0.3-0.5-0.9-4.5-0.5-5.1c0.4-0.5,1.5-1.3,1.1-1.5c-0.4-0.3-1.7-1.7-1.7-2.2c0-0.5,0-1.4,0.2-1.7
		c0.1-0.3,0-1.5-0.1-1.9c-0.1-0.4,0.2-0.7,0.7-0.7s2.1,0,2.2,1.2c0,1.2-0.5,2.3,0.4,4.3s1.8,3,2.4,4.2C86,69.4,86.2,70.7,86.2,70.7z
		"/>
	<path class="st21" d="M79.5,59.2c0.4,0.5,0.5,1.4,0.4,1.8s0,2.1,0,2.1c0,0-1,0.1-0.9-0.3c0.1-0.4,0.1-1.1-0.1-1.5
		c-0.2-0.4-1-0.9-0.8-1.2c0.2-0.2,0-0.4,0.4-0.8C78.9,58.9,79.5,59.2,79.5,59.2z"/>
	<path class="st22" d="M78.4,58.4c0.3,0.5,1.1,5.4,1.4,6c0.3,0.6,2.1,4.1,2.3,4.7c0.2,0.6,1.5,4,1.6,5.1c0.2,1.1-0.1,2.4-0.1,2.9
		c0,0.5-0.3,0-0.3-0.2s-0.4-1.5-0.7-1.4s-0.2,1-0.7,0.8c-0.6-0.2-1.1-1.3-1-1.8c0.1-0.5,0.2-1.6-0.1-1.8s-0.6-0.2-1.1,0.7
		c-0.5,0.9-1,1.4-1.5,2.1c-0.5,0.6-0.9,1.3-1.2,0.9s-1.2-2.6-1.2-3.2c0-0.6-0.8-0.4-0.9,0.2c-0.1,0.6-0.7,2-0.7,2.7
		c0,0.8-0.6,2.6-0.6,1.5s0.4-3.3,0.4-3.4c0-0.1,0.5-8.3,1.2-8.8c0.7-0.5,1.7-1.2,2-1.8c0.3-0.6,0.3-1.6,0.4-2.2
		c0-0.6,0.2-1.6,0.3-1.9C77.9,59.1,78.4,58.4,78.4,58.4z"/>
	<path class="st21" d="M82.3,60.9c0.3,0.4,3.6,3.2,4.9,4.4c1.3,1.2,2.4,3,2.7,4c0.3,1,1.1,2.7,1.3,2.9s-0.1,0.7-0.5,0.4
		c-0.4-0.3-2.4-1.7-2.6-1.6c-0.2,0.2,0.8,1.7,1,2.3s0.5,2.5,0,2c-0.5-0.5-0.7-1.9-1.3-2.7c-0.6-0.8-1.1-2.1-1.4-2.2
		s-1.8-2.5-2.4-4.2c-0.6-1.7-1.4-3.6-1.4-3.9S82.3,60.9,82.3,60.9z"/>
	<path class="st23" d="M80.1,49c0,0,0.2-4.2,0.2-5.4c0-1.2-0.6-2.4,0-4.1c0.6-1.7,0.9-2.8,1.2-3.3c0.3-0.5,1-0.4,1-0.4
		s0.9,4.5,0.7,6c-0.1,1.4,0.1,2.4-0.4,3.9c-0.5,1.5-0.5,1.3-1.2,2.2c-0.6,0.9-1,0.8-1.1,1.5c-0.1,0.7-0.2,0.8-0.2,1
		c-0.1,0.2-0.4,0-0.4,0L80.1,49z"/>
	<path class="st21" d="M78.8,45.9c0.1-0.3,0.4-4.5,1.1-5.8c0.7-1.2,1.3-4.1,1.5-4.5c0.3-0.4,1-1.3,0.8-1.6s-0.6-0.3-1.5,0.3
		s-1.8,1.3-2.1,2.1c-0.3,0.8-1,2.4-1,3.1s-0.2,2-0.3,2.9c-0.1,1-0.1,1.3,0.3,2c0.3,0.7,0.6,1.6,0.9,2.1c0.3,0.5,0.6,1.3,0.5,1.9
		c-0.1,0.7-0.5,1.7-0.3,1.9c0.2,0.2,0.1,0.2,0.4-0.5c0.3-0.7,0.7-1.4,0.4-1.9S78.8,45.9,78.8,45.9z"/>
	<path class="st21" d="M80.3,34.7c-0.1-0.3-0.3-2.2-0.4-2.1c-0.1,0.2-0.5,1.1-0.6,1.4c-0.1,0.2-0.3,0.7-0.2,0.9s0,0.3,0.3,0.2
		C79.8,35.1,80.3,34.7,80.3,34.7z"/>
	<path class="st23" d="M101.6,50.3c-0.4,0.3-4.7,3-5.6,2.9s-5.3,0.1-6-0.1c-0.7-0.1-2.6-0.3-3.2-0.2c-0.6,0.1-1.2,0.2-1.6,0.2
		c-0.4,0-1.6,0.1-1-0.4c0.6-0.6,4.3-1.8,5-1.9s4.9-1.3,5.8-1.3c0.9,0,1.6-0.2,2.3-0.2s1.1-0.5,2-0.3
		C100.2,49.2,101.6,50.3,101.6,50.3z"/>
	<path class="st21" d="M85.4,51.5c0.6-0.6,2.5-2.2,3.1-2.6c0.6-0.4,4.3-3.5,4.7-4.1c0.4-0.6,1.5-2.5,2-2.7c0.5-0.2,1.7-0.8,1.9-0.5
		s0.2,1.1-0.2,1.7c-0.4,0.6-0.8,1.3-0.4,1.4c0.4,0.1,2.5,0.6,3.2,0.9c0.7,0.3,1.6,0.3,1.3,0.9c-0.3,0.5-0.3,1.1-2,1.9
		c-1.7,0.8-7.2,1.5-8.8,1.7c-1.6,0.2-3.5,1-4,1.5s-2,0.5-2,0.5L85.4,51.5z"/>
	<path class="st27" d="M84.9,50.8c0.5-0.2,3-2,3.8-2.1c0.8-0.1,5-1.2,5.7-1.3c0.8,0,2.7-0.9,3.2-1.2c0.4-0.3,1.2-1.5,1.2-1.6
		s-0.5-0.7-1.1-0.6s-2.1,0.1-2.7,0.2c-0.6,0.1-1.7,0.5-1.5,0.2c0.2-0.3,2.1-2.4,2.1-3.2c0.1-0.8,0.1-0.9-0.4-1
		c-0.6-0.1-2.7,0-3.4,0.5c-0.6,0.5-1.7,0.8-3.3,2.1s-2.9,2.1-3.2,3.2c-0.3,1.1-0.3,2.3-1.2,2.8c-0.8,0.5-0.7-0.3-1.6,0.8
		c-0.9,1-1.5,1.5-1,1.6c0.5,0.1,0.1,0.3,1.4,0.1S84.9,50.8,84.9,50.8z"/>
	<path class="st21" d="M81.3,50.3c0.3-0.5,2.1-2.5,2.7-3.1c0.6-0.6,2.7-2.3,3.4-3c0.7-0.7,2.4-2.5,2.6-3c0.1-0.5,0.2-0.5,0.3-0.9
		s-0.1-0.9-0.4-0.6c-0.3,0.3-1.3,0.8-1.6,1C88.1,40.9,87,42.2,87,42s1.1-2.8,0.8-3.2c-0.3-0.4-0.8-1.5-1.9-0.6s-1.4,0.2-2,2.2
		c-0.7,2-1,3.3-1,4c0,0.7-0.5,3.1-0.8,3.4c-0.3,0.3-1.9,2.2-1.8,2.5c0,0.3,0.6,0.5,0.6,0.5L81.3,50.3z"/>
	<path class="st21" d="M90.7,40.8c0.5-0.7,1.2-2,1.7-2.3c0.5-0.3,1.1-1.3,0.6-1.2c-0.5,0.1-1.7,0-2.5,0.7c-0.8,0.8-1.5,0.8-1.3,0.5
		c0.2-0.2,0.9-1.1-0.1-0.7c-1,0.4-1-0.3-1.2,0.9c-0.2,1.2-0.3,1.3-0.4,2.2c-0.1,0.8,0.2,0.8,0.7,0.7s1.3-0.7,1.4-0.5
		s0.3,0.9,0.5,0.9c0.2,0,0.6-0.2,0.7-0.4S90.7,40.8,90.7,40.8z"/>
	<path class="st21" d="M99.5,64.3c-0.2-0.2-1.2-1.4-1.4-1.5c-0.2-0.1-1.2-0.6-1.3-0.4c-0.1,0.2-1.1-0.1-0.5,0.6
		c0.6,0.7,1.2,0.9,1.6,1.2c0.4,0.3,0.2,0.4,0.7,0.3c0.5-0.1,1,0,1,0"/>
	<path class="st21" d="M99.8,63c-0.2-0.3-1.9-2.6-2.9-3s-8-3.4-8.8-3.4s-1.7,0.2-2.5-0.1s-1.8-0.4-2-0.2c-0.2,0.2,0.4,0.6,0.9,0.8
		c0.6,0.3,2.9,1.8,3.6,2.3s2.5,1.7,3.1,1.7c0.6,0.1,1.7,0,2.4,0.2s0.7,0,2,0.3c1.3,0.3,1.4,1.4,2,1.2s1.1,0.1,1.6,0.2
		C99.8,63,99.8,63,99.8,63z"/>
	<path class="st22" d="M82.2,57.5c0.3,0.2,2.8,3.9,2.9,4.3c0.1,0.3,0.9,3.4,1.5,4.6s2.4,5.1,2.8,5.4c0.4,0.3,0.5,1.9,0.8,2.3
		s0.9,1.6,0.9,0.2s-0.2-2.9-0.4-3.5c-0.2-0.6-1.1-2.2-0.6-1.9c0.5,0.3,1.1,2.8,1.7,3c0.6,0.2,0.9,0,1.3,0.2c0.4,0.2,0.9,0.8,0.8,0.6
		c-0.1-0.1-0.3-2.5-0.4-3.3c-0.1-0.8-0.8-1.9-0.9-2.1c-0.1-0.2,0.8,0.2,1.8,0.4s3.1,0.2,3.3,0s-0.8-1.1-1.1-1.9s-1.4-2-1.9-2.1
		c-0.5-0.1-1-0.1-0.3-0.3c0.7-0.2,2.2-0.1,2.6,0.1c0.3,0.2,1,0.2,0.4-0.5c-0.6-0.6-3.2-2-4.4-2.2c-1.1-0.2-3.3-1.2-4.3-1.4
		c-1-0.2-1.7-0.1-2.2-0.1c-0.5,0-1.1-0.4-1.9-1s-0.9-1.1-1.2-1.3c-0.4-0.2-0.8-0.8-1.1-0.5C82.1,57.1,82.2,57.5,82.2,57.5z"/>
	<path class="st23" d="M95.3,55.9c1.1,0.3,1.5,0,2.6,0.5c1.1,0.4,1.9,0.9,2.3,1.4s0.5,0.7,0.1,0.9s-2.7,1.2-4.1,0.9
		c-1.4-0.3-5.4-2-6.3-2.3c-0.9-0.3-3.7-1-4.1-1.1c-0.4-0.1-1.5-0.4-1.5-0.4l3.6-0.3c0,0,3.2,0.2,3.9,0.3
		C92.7,55.8,95.3,55.9,95.3,55.9z"/>
	<path class="st21" d="M100.3,54.2c-0.4,0.2-2.5,0.3-4.3,1.2s-5.6,0.6-6.3,0.7s-2.9,0.1-3.3,0.1s-2.3-1-2.4-1.2
		c-0.1-0.2,0.6-1.2,0.9-1.3s1.8,0.6,1.8,0.6s1.1,0.1,1.8,0s0.7,0,1.5-0.5c0.9-0.5,1.7-0.9,2.6-0.7c0.9,0.2,3.6,0.4,4.6,0.4
		c1,0.1,1.3-0.2,1.9,0S100.3,54.2,100.3,54.2z"/>
	<path class="st21" d="M82.7,53.7c-1,0-2-0.9-2-0.2c0,0.7,0.5,0.6,0.2,1.1c-0.3,0.5,0.1,0.9-0.1,1.1c-0.2,0.2-0.4-0.2-0.7-0.1
		c-0.3,0.2-0.4,0.4-0.6,0.5S78,57,78.4,56.6c0.4-0.5,0.8-0.9,0.9-1.1c0.1-0.2-0.7-0.1-0.9,0s-1.3,0.1-1-0.2s1.3-0.5,1.4-0.8
		c0.1-0.3-0.9-0.3-0.6-0.7c0.3-0.4,1-0.1,1.1,0c0.1,0.1,0.4-0.7,0.4-0.7s0.5-0.3,0.7-0.3s0.3,0,0.6,0S82.7,53.7,82.7,53.7z"/>
	<path class="st18" d="M49.8,88.9c0.8,0.5,2.8,1.9,4.9,1.4c2.1-0.5,3-0.4,5.8-1.1s4.3-0.7,4.6-2.5c0.3-1.8,0.4-3.6-0.4-5.2
		c-0.8-1.7,0.5-2.3-0.2-3.5c-0.7-1.2-1.7-2-2.2-2.1c-0.5-0.1-2.6-0.8-4-0.3s-2.1,1-2.9,0.7c-0.7-0.3-1.6-0.5-2.9-0.2
		c-1.3,0.3-2.1-0.5-3.2,0.9c-1.1,1.4-1.7,1.1-1.9,3.2c-0.2,2.1,0.2,1,0.6,3.8C48.4,86.8,49.8,88.9,49.8,88.9z"/>
	<path class="st19" d="M54.4,84.2c0.1,0.2,1.3,1.3,1.5,0.8c0.1-0.5,0.2-1.5,0.4-1.6s0.5,0,0.9-0.1c0.4-0.1,0.8-0.2,0.6-0.7
		c-0.2-0.4-0.7-0.4-0.6-1.1c0.1-0.7,0.2-0.4,0.2-1.1s0.3-0.7-0.4-1.2s-0.4-0.6-1-0.5s-0.6,0.7-1.2,0.2s-0.7-0.8-1.3-0.5
		s-0.9,0.5-1.1,0.9c-0.2,0.5-0.1,0.2-0.8,0.6c-0.7,0.4-1.2,0.1-1,1c0.2,0.9,0,1.4,0.7,1.7c0.7,0.3,1.1,0.1,1.5,0.7
		c0.4,0.6,0.5,1.2,0.8,1.1S54.4,84.2,54.4,84.2z"/>
	<path class="st20" d="M53.5,77.5c0.1-0.2,0.3-0.7,0-1.5c-0.3-0.8-0.6-1.4-0.5-2c0.1-0.6,1.2-4,1.2-4.4s-0.2-1.6-0.2-1.8
		s-0.2-1.2-0.4-1.4c-0.2-0.1-0.2-0.8-0.4-0.2c-0.3,0.6-0.3,1.3-0.3,1.3s-0.3-1.8-0.4-1.9c-0.1-0.1-0.5-0.6-0.4,0.2
		c0,0.8,0.2,1.9,0.1,1.7c-0.1-0.2-1-2.1-1.3-2.1c-0.2,0-0.6,0.1-0.4,0.6c0.1,0.5,0.6,1.7,0.5,2s-0.3,0.6-0.6-0.1
		c-0.3-0.6-1.5-1.7-1.7-1.7c-0.1-0.1-0.3-0.7-0.6,0.1c-0.3,0.8,0.6,3.3,1.2,4c0.6,0.6,2.1,1.9,2.4,2.5c0.3,0.6,0.3,2.4,0.5,2.8
		c0.1,0.4,0.3,0.7,0.5,1.1C52.9,77.2,53.5,77.5,53.5,77.5z"/>
	<path class="st21" d="M55.2,70.7c0-0.2,0.3-2.3,0.2-2.6c-0.1-0.3-0.2-1.3-0.1-1.2c0.2,0.1,0.8,3,0.8,3.2s-0.1,1-0.2,1.2
		s-0.2,0.5-0.3,0.3C55.5,71.4,55.2,70.7,55.2,70.7z"/>
	<path class="st21" d="M55.1,78.4c-0.1-0.3-0.2-2,0.1-2.7s1.3-3,1.6-3.4c0.3-0.4,1.2-1.3,1-2.1c-0.2-0.8-0.1-1.9-0.2-2.1
		c-0.1-0.2-0.2-0.4-0.4,0.1c-0.1,0.5,0,2-0.2,2.4c-0.1,0.3-0.5,1.2-0.4,1.1s-0.5-1.4-1-1.6s-0.8-0.5-0.9-0.4c-0.2,0.1-1,0.4-1.1,0.7
		s-0.2,0.5-0.4,0c-0.1-0.5-1.3-1.9-1.5-2.1c-0.2-0.2-0.3-0.4-0.6-0.3s-0.4,0.5-0.2,1c0.3,0.5,0.8,2.2,0.9,2.2s1.1,1.1,1.4,1.9
		s0.7,1.1,0.6,1.9c0,0.8-0.5,1.5-0.2,2.1s0.4,0.6,0.6,0.8C54.4,78.1,55.1,78.4,55.1,78.4z"/>
	<path class="st21" d="M57.9,71.2c-0.1-0.4,0.3-4.5,0.5-4.5c0.2,0,0.2,0.4,0.4,1.2s0.6,1.6,0.5,2c0,0.4-0.2,0.7-0.4,1.1
		S57.9,71.2,57.9,71.2z"/>
	<path class="st21" d="M65.2,75c0.4-0.2,1.8-1.2,1.9-1.4s0.6-0.7,0.3-0.7c-0.3,0.1-1.2,0.2-1.2,0.2s0.6-0.5,0.9-1
		c0.3-0.4,1.1-1.9,0.9-1.8c-0.2,0.1-1.3,0.6-1.3,0.6l-2.1,1.3c0,0-0.3,1.2-0.3,1.5c0.1,0.3,0.2,0.5,0.4,0.8C65,74.7,65.2,75,65.2,75
		z"/>
	<path class="st22" d="M57.2,78.7c0-0.1,0.6-1.6,1.2-2c0.7-0.4,1.7-0.6,2.6-1c0.8-0.4,2.4-1.3,2.8-1.6c0.4-0.3,1.9-1.7,2.1-1.9
		s0.9-1.4,1-1.4s0-0.3-0.5-0.4c-0.5,0-1.2,0.1-2,0.6c-0.8,0.5-1,0.7-1.6,0.9c-0.5,0.3-0.9,0.7-0.8,0.5c0-0.2,1.6-1,1.5-1.4
		c-0.1-0.4,0.3-1.3,0-1.7c-0.3-0.4,0.1-0.9-0.1-0.7c-0.2,0.2-0.6,0.4-1.2,0.6s-1,0.3-1.4,0.8s-0.8,1.1-0.7,1.1
		c0.1-0.1,0.8-1.3,0.8-1.7c0-0.4,0-0.6-0.1-0.6c-0.2,0-1,0.6-1.4,0.9s-1.3,1-1.3,1l0-1c0,0-0.5,0.2-0.4,0.7s0.1,1.5,0,2.2
		s-0.1,2.9-0.5,3.5s-0.7,0.5-0.9,0.9s-0.6,0.7-0.5,1.1c0.1,0.4,0.2,0.7,0.5,0.7s0.4,0,0.5,0C57,78.7,57.2,78.7,57.2,78.7z"/>
	<path class="st21" d="M67.9,84.5c0.2,0,1-0.2,0.6-0.5c-0.4-0.3-1-0.7-0.8-0.7s1.5-0.6,2-0.9s0.9-0.6,0.6-0.7
		c-0.3-0.2-0.5-0.2-1.2-0.2c-0.7,0.1-2.6,0.1-2.8,0.4C66.1,82,65.6,82.6,66,83c0.4,0.5,0.3,0.5,0.8,0.8
		C67.3,84.2,67.9,84.5,67.9,84.5z"/>
	<path class="st23" d="M58.6,82.4c0.5,0.3,1.5,0.9,3.3,1.5c1.8,0.6,2.7,0.4,4,1c1.2,0.5,2.9,1.2,3.5,1.6c0.6,0.4,1.1,1.1,1.1,1.2
		c0,0.1,0.6,0.5,0.2,0.5c-0.3,0.1-1.9,1.1-2.8,0.9c-0.9-0.2-1.8-0.6-2.4-1.3c-0.6-0.6-2.8-2.5-3.1-2.6s-1.3-0.4-1.7-0.7
		c-0.4-0.2-1-0.6-1.2-0.8S58.6,82.4,58.6,82.4z"/>
	<path class="st24" d="M59.1,81.1c0.5,0.1,3.8,1,4.5,1.9c0.7,0.9,1.4,1.9,2.1,2.3s1.6,0.7,2,0.8c0.3,0.1,0.4,0,1,0.2
		c0.6,0.2,1,0.1,1.3,0.2s0.9,0.2,1.3,0.1s1.3,0,0.9-0.3c-0.4-0.2-1.6-0.6-2-0.8c-0.5-0.1-1.5-0.2-1.6-0.3c-0.1-0.1-0.5-0.7-0.8-1
		s-0.7-0.8-0.9-1c-0.2-0.2-0.8-0.5-1-0.6c-0.2-0.1-1-0.4-1-0.4s1.5,0.3,1.9,0.3s2.2-0.8,2.4-1.3c0.2-0.4,0.3-0.9,0.2-0.9
		S68.6,80,68.6,80s1.1-0.6,1.2-0.7c0.2-0.1,1.1-0.4,1.1-0.6c0-0.3-0.5,0-0.9,0.1c-0.4,0.2-1.2,0.7-0.8,0.2c0.4-0.5,1-1.2,0.7-0.8
		c-0.3,0.4-1,0.8-1.5,1c-0.5,0.2-2,0.4-3,0.4c-1,0.1-2.4-0.2-2.8-0.1c-0.4,0.1-1.1,0.3-1.4,0.5c-0.4,0.2-0.9,0.1-1.3,0.3
		c-0.4,0.1-1.5,0.4-1.6,0.5s-0.2,0.4,0,0.4C58.5,81.2,59.1,81.1,59.1,81.1z"/>
	<path class="st21" d="M66.3,76.9c0.4-0.1,1.7-1.2,2.2-1.2s1.1,0,1,0.1c-0.1,0.1-1.1,0.5-1.4,0.9s-1,0.9-1,0.9s0.7-0.6,1.2-0.7
		c0.4-0.1,1.1-0.3,1.2-0.4s0.3,0-0.1,0.3c-0.4,0.3-1.4,0.8-1.7,1s-0.7,0.6-0.9,0.6c-0.3-0.1-0.5-0.4-0.6-0.6
		c-0.1-0.2-0.6-0.3-0.2-0.7c0.4-0.3,0.5-0.2,0.5-0.2"/>
	<path class="st25" d="M58.1,79.1c0.3-0.1,2-0.6,3.6-0.2c1.6,0.4,2.1,0.7,3.2,0.7c1.1,0,2.3-0.7,2.5-0.8c0.2-0.2,0.7-0.5,0.7-0.7
		c0-0.2-1.1-1.4-1.6-1.5c-0.5-0.1-1.4-0.1-1.4-0.1s0.3-1.7,0.7-2.4c0.4-0.6,0.6-1.5,0.6-1.5s-0.7-0.6-1-0.2
		c-0.2,0.4-2.3,2.2-2.8,2.4c-0.5,0.3-1.5,1.8-1.8,2.2s-1.8,0.9-2,1c-0.2,0.2-0.8,0.4-0.9,0.5c-0.1,0.1-0.4,0.6-0.4,0.6L58.1,79.1z"
		/>
	<path class="st26" d="M57.9,81.8c0.4,0,1.1,0.1,1.5,0.2s1.1,0.3,0.9,0.1s-0.9-0.6-1.3-0.6s-1.3-0.2-1.1-0.5s1.3-0.9,1.6-0.8
		s0.7,0.3,0.8-0.3c0.1-0.6-0.2-1-0.9-0.7c-0.7,0.3-1.1,0.6-1.4,0.6c-0.3,0-0.3-0.4-0.7-0.3c-0.4,0-0.6,0.1-0.4,0.5s0.4,0.7,0.5,0.8
		c0.1,0.2-0.1-0.2,0,0.4S57.9,81.8,57.9,81.8z"/>
	<path class="st26" d="M59.7,82.5c0.6,0.2,1.3,0.6,1.7,0.7c0.4,0.1,1,0.1,1.3,0.3s0.7,0.6,0.6,0.2s-0.6-0.9-1.1-1.1
		c-0.5-0.2-1.3-0.6-1.4-0.5c-0.1,0.1-0.1,0.1-0.6,0.1s-0.6,0.2-1,0.2c-0.4,0-0.9-0.4-0.7-0.2C58.6,82.4,59.7,82.5,59.7,82.5z"/>
	<path class="st21" d="M59.5,83.8c0.6,0.4,3.2,2.6,3.3,3c0.1,0.4,0.9,2.1,2.1,2.9c1.2,0.9,2.1,1.2,2.6,1.4c0.5,0.2,1.1,0.3,1.5,0.4
		c0.3,0.1,1,0.4,0.9,0c-0.1-0.3,0-0.5-0.7-0.8c-0.7-0.3-1.8-0.9-2.3-1.3s-0.6-1-1.1-1.4c-0.5-0.4-3.5-2.9-4.3-3.3
		C60.7,84.4,59.5,83.8,59.5,83.8z"/>
	<path class="st21" d="M57.3,94c0.6,1.4,1.5,2.4,1.8,2.7c0.3,0.3,0.8,0.8,0.9,0.1c0.1-0.7-0.5-4.6-0.6-4.8c-0.1-0.2,0.2,0,0.5,0.1
		c0.3,0.1,1.2,0.6,1.1,0.2s-1.3-3.3-1.8-3.5c-0.5-0.2-1.5-0.2-1.4-0.5s0.4-1.8,0.2-2.1c-0.2-0.3-0.6-0.9-0.8-1s-0.6-1-0.7-1.2
		c-0.1-0.3-0.4-0.4-0.7-0.1s-1.4,0.9-0.9,1.7s1.3,1.3,1.5,2.9s0.1,2.7,0.2,3.7C56.9,93.1,57.3,94,57.3,94z"/>
	<path class="st21" d="M56.8,83.8c0,0.5,0.3,1.1,0.5,1.3c0.2,0.2,0.9,1.4,0.9,1.4c0,0,0.7-0.4,0.4-0.6c-0.2-0.2-0.5-0.6-0.5-1
		c0-0.3,0.2-1,0-1.1s-0.2-0.3-0.6-0.4C57,83.4,56.8,83.8,56.8,83.8z"/>
	<path class="st22" d="M57.1,82.9c0.1,0.5,1.5,3.9,1.6,4.4c0.1,0.5,0.4,3.5,0.5,4c0.1,0.5,0.8,3.2,1.1,4c0.3,0.8,1.1,1.5,1.3,1.8
		c0.2,0.3,0.2-0.1,0.1-0.3c-0.1-0.2-0.3-1.1-0.1-1.2c0.2-0.1,0.5,0.6,0.8,0.2c0.3-0.4,0.2-1.3-0.1-1.6s-0.8-1-0.7-1.2
		c0.1-0.2,0.3-0.4,1,0s1.2,0.5,1.8,0.7c0.6,0.2,1.1,0.5,1.2,0.1c0.1-0.4-0.3-2.2-0.6-2.5c-0.3-0.4,0.3-0.6,0.7-0.2
		c0.3,0.3,1.3,1,1.6,1.5s1.5,1.4,1,0.8s-1.6-2-1.7-2c-0.1-0.1-3.8-5.1-4.5-5.1c-0.7-0.1-1.6-0.1-2.1-0.4c-0.4-0.3-0.9-0.9-1.2-1.3
		c-0.3-0.4-0.8-0.9-1-1.1C57.8,83.2,57.1,82.9,57.1,82.9z"/>
	<path class="st21" d="M55.7,86.1c0,0.4-1,3.5-1.3,4.8c-0.3,1.3-0.3,2.9-0.1,3.7c0.2,0.8,0.4,2.2,0.4,2.4c0,0.2,0.4,0.4,0.5,0
		s0.8-2.1,1-2c0.2,0,0.2,1.4,0.3,1.9s0.7,1.8,0.8,1.3c0.1-0.5-0.4-1.5-0.3-2.3c0.1-0.8-0.2-1.8-0.1-2c0.1-0.2,0.1-2.3-0.2-3.7
		c-0.3-1.3-0.6-2.9-0.7-3.1C56,86.9,55.7,86.1,55.7,86.1z"/>
	<path class="st23" d="M52.1,77.6c0,0-1.9-2.6-2.4-3.4S49,72.4,48,71.5c-1.1-0.8-1.8-1.4-2.2-1.6S44.9,70,44.9,70s1.4,3.3,2,4.1
		c0.7,0.9,0.9,1.6,1.9,2.3c0.9,0.8,0.9,0.6,1.7,0.9s1,0.1,1.3,0.5c0.3,0.4,0.4,0.4,0.6,0.5s0.3-0.2,0.3-0.2L52.1,77.6z"/>
	<path class="st21" d="M51.6,75c-0.2-0.1-2.1-2.7-3.1-3.3c-1-0.5-2.5-2.1-2.9-2.3c-0.3-0.1-1.1-0.4-1.2-0.7c0-0.2,0.3-0.5,1.1-0.4
		c0.8,0.1,1.7,0.1,2.2,0.5c0.5,0.4,1.7,1.2,2,1.5c0.3,0.4,1,1.2,1.4,1.8s0.6,0.8,0.7,1.4c0.1,0.6,0.2,1.3,0.3,1.8
		c0,0.5,0.2,1,0.5,1.4c0.3,0.4,1.1,0.9,1,1.1c-0.1,0.2,0,0.2-0.5-0.2c-0.5-0.3-1-0.6-1.1-1C52,76.2,51.6,75,51.6,75z"/>
	<path class="st21" d="M46,68.5c-0.1-0.2-0.8-1.5-0.6-1.5c0.1,0.1,0.8,0.5,0.9,0.7c0.1,0.1,0.5,0.4,0.5,0.5c0,0.2,0.1,0.2-0.1,0.2
		S46,68.5,46,68.5z"/>
	<path class="st23" d="M38.8,87.2c0.4,0,4.3,0,4.8-0.4c0.5-0.4,3.5-2.1,3.8-2.5s1.6-1.3,2-1.5c0.4-0.2,0.9-0.4,1.1-0.5
		c0.2-0.2,1.1-0.6,0.5-0.7c-0.6-0.1-3.5,0.6-4,0.8c-0.5,0.2-3.7,1.2-4.3,1.5c-0.6,0.4-1.1,0.6-1.5,0.8s-1,0.1-1.4,0.6
		C39.2,85.9,38.8,87.2,38.8,87.2z"/>
	<path class="st21" d="M49.8,81.3c-0.6-0.1-2.5-0.4-3.1-0.4c-0.6,0-4.2-0.5-4.8-0.7s-2-1-2.4-0.9c-0.4,0.1-1.4,0.2-1.4,0.5
		c0,0.3,0.3,0.8,0.9,1c0.5,0.3,1.1,0.5,0.8,0.7c-0.2,0.2-1.3,1.4-1.7,1.9c-0.3,0.5-0.9,0.9-0.5,1.1s0.6,0.5,2.1,0.4s5.3-2,6.4-2.5
		c1.1-0.5,2.7-0.7,3.2-0.7c0.5,0.1,1.5-0.5,1.5-0.5L49.8,81.3z"/>
	<path class="st27" d="M49.8,80.6c-0.4,0.1-2.8-0.1-3.4,0.2c-0.6,0.3-3.7,1.2-4.2,1.5c-0.5,0.3-2.1,0.6-2.5,0.5
		c-0.4,0-1.4-0.4-1.5-0.6s0-0.6,0.5-0.8c0.5-0.2,1.4-0.8,1.8-1c0.5-0.2,1.3-0.4,1.1-0.5c-0.2-0.1-2.3-0.7-2.7-1.2
		c-0.4-0.5-0.5-0.5-0.1-0.8c0.3-0.3,1.8-1.1,2.4-1.1c0.6,0.1,1.5-0.2,3.1,0c1.6,0.2,2.8,0.1,3.4,0.7c0.7,0.6,1.2,1.3,2,1.3
		c0.8,0,0.3-0.5,1.4-0.2c1,0.3,1.6,0.4,1.3,0.6c-0.3,0.3,0.1,0.3-0.8,0.6S49.8,80.6,49.8,80.6z"/>
	<path class="st21" d="M51.8,78.9c-0.4-0.2-2.4-0.8-3.1-0.9c-0.6-0.1-2.7-0.4-3.5-0.5s-2.6-0.6-2.9-0.9c-0.3-0.3-0.3-0.3-0.6-0.5
		c-0.3-0.2-0.3-0.6,0-0.6c0.3,0,1.2,0,1.4,0c0.3,0,1.6,0.4,1.4,0.3s-1.9-1.4-1.9-1.7c0-0.3-0.1-1.3,0.9-1.1c1,0.1,1-0.4,2.3,0.6
		c1.3,1,2,1.7,2.3,2.2c0.3,0.5,1.6,1.8,2,1.9c0.3,0.1,2.2,0.7,2.3,0.9c0.1,0.2-0.2,0.5-0.2,0.5L51.8,78.9z"/>
	<path class="st21" d="M41.8,76.6c-0.6-0.2-1.6-0.8-2.1-0.8c-0.4,0-1.3-0.4-0.9-0.5c0.3-0.1,1.1-0.7,1.9-0.5
		c0.9,0.2,1.3-0.1,1.1-0.2c-0.2-0.1-1-0.3-0.2-0.5c0.8-0.2,0.5-0.6,1.2,0.1c0.6,0.7,0.8,0.7,1.2,1.2c0.4,0.5,0.2,0.6-0.2,0.7
		s-1.1,0.1-1.1,0.2c0,0.1,0.2,0.7,0.1,0.8c-0.1,0.1-0.5,0.1-0.6,0C42.1,77,41.8,76.6,41.8,76.6z"/>
	<path class="st21" d="M46,95.3c0-0.2,0.2-1.4,0.2-1.6c0.1-0.2,0.5-0.9,0.7-0.8s0.7-0.5,0.6,0.2c-0.1,0.7-0.4,1-0.5,1.4
		c-0.1,0.3,0,0.3-0.4,0.5s-0.6,0.4-0.6,0.4"/>
	<path class="st21" d="M45.3,94.6c0-0.3,0.1-2.5,0.6-3.1c0.4-0.7,3.7-5.4,4.3-5.8c0.6-0.3,1.2-0.6,1.6-1.1c0.4-0.5,1-1,1.2-1
		c0.2,0,0,0.5-0.2,0.9c-0.3,0.4-1.1,2.3-1.4,3c-0.3,0.6-0.9,2.1-1.3,2.4c-0.4,0.3-1.1,0.7-1.5,1.1c-0.4,0.4-0.5,0.3-1.2,1
		c-0.7,0.7-0.3,1.4-0.7,1.6c-0.4,0.2-0.6,0.5-1,0.8C45.3,94.6,45.3,94.6,45.3,94.6z"/>
	<path class="st22" d="M54.3,83.9c-0.1,0.3-0.1,3.7-0.1,3.9c0.1,0.2,0.9,2.6,1,3.6s0.6,4.2,0.4,4.6c-0.2,0.4,0.5,1.4,0.4,1.8
		c0,0.4,0.1,1.4-0.5,0.5c-0.6-0.9-1.1-1.9-1.2-2.4c-0.1-0.5-0.2-1.8-0.4-1.4c-0.2,0.4,0.5,2.2,0.2,2.6s-0.5,0.4-0.7,0.7
		c-0.2,0.3-0.2,0.9-0.3,0.8c0-0.1-0.8-1.7-1.1-2.2c-0.3-0.5-0.3-1.5-0.3-1.7c0-0.2-0.4,0.4-1,1s-1.9,1.4-2.1,1.4
		c-0.2,0,0.1-1.1-0.1-1.7s0.1-1.8,0.3-2.1c0.2-0.3,0.6-0.4,0.1-0.3c-0.5,0.2-1.5,0.8-1.6,1.1s-0.6,0.5-0.5-0.1s1.3-2.6,1.9-3.2
		c0.7-0.6,1.6-2.1,2.2-2.6c0.6-0.5,1.1-0.8,1.4-1s0.5-0.7,0.9-1.4c0.3-0.7,0.1-1.1,0.3-1.3s0.2-0.9,0.5-0.8
		C54.2,83.5,54.3,83.9,54.3,83.9z"/>
	<path class="st23" d="M45.2,88.2c-0.6,0.6-0.9,0.6-1.5,1.4c-0.6,0.7-0.9,1.3-0.9,1.8s0,0.7,0.3,0.6s2.3-0.3,3-1.1
		c0.8-0.8,2.7-3.5,3.1-4.1s2-2.2,2.2-2.4c0.2-0.2,0.8-0.9,0.8-0.9l-2.5,1.3c0,0-2,1.4-2.4,1.8C46.8,87,45.2,88.2,45.2,88.2z"/>
	<path class="st21" d="M41.2,89.2c0.3,0,1.8-0.8,3.3-1c1.5-0.2,3.9-1.9,4.4-2.1c0.4-0.2,1.9-1.1,2.2-1.3c0.2-0.2,1-1.6,1-1.7
		s-0.9-0.5-1.1-0.4S50,83.7,50,83.7s-0.7,0.5-1.1,0.7c-0.4,0.2-0.4,0.3-1.2,0.3c-0.8,0-1.5,0.1-2,0.6c-0.5,0.5-2.2,1.7-2.8,2.2
		s-0.9,0.4-1.2,0.8C41.3,88.6,41.2,89.2,41.2,89.2z"/>
	<path class="st21" d="M52.4,81.7c0.6-0.4,0.9-1.4,1.2-1c0.3,0.4-0.1,0.6,0.3,0.8c0.4,0.2,0.3,0.6,0.5,0.7c0.2,0.1,0.1-0.3,0.4-0.3
		c0.3,0,0.5,0.1,0.6,0.1c0.1,0,1.4-0.1,0.9-0.2c-0.4-0.1-0.9-0.3-1.1-0.4c-0.2-0.1,0.4-0.4,0.6-0.4s0.9-0.5,0.6-0.5
		c-0.3-0.1-1.1,0.2-1.2,0c-0.2-0.2,0.5-0.6,0.1-0.7c-0.4-0.2-0.7,0.4-0.7,0.5S54.1,80,54.1,80s-0.4,0-0.6,0.1
		c-0.1,0.1-0.2,0.1-0.4,0.2C52.9,80.4,52.4,81.7,52.4,81.7z"/>
</g>
</svg>
