<?xml version="1.0" encoding="utf-8"?>
<!-- Generator: Adobe Illustrator 23.1.1, SVG Export Plug-In . SVG Version: 6.00 Build 0)  -->
<svg version="1.1" id="Layer_1" xmlns="http://www.w3.org/2000/svg" xmlns:xlink="http://www.w3.org/1999/xlink" x="0px" y="0px"
	 viewBox="0 0 108 108" style="enable-background:new 0 0 108 108;" xml:space="preserve">
<style type="text/css">
	.st0{fill:#79A740;}
	.st1{fill:#A5C239;}
	.st2{fill:#7C9D3E;}
	.st3{fill:#869A3B;}
	.st4{fill:#CBD474;}
	.st5{fill:#9BB63B;}
	.st6{fill:#84B541;}
	.st7{fill:#8FB23E;}
	.st8{fill:#CAD690;}
	.st9{fill:#72AA42;}
	.st10{fill:#71913C;}
	.st11{fill:#93BA3E;}
</style>
<g>
	<g>
		<path class="st0" d="M52.86,59.2c-0.45-2.18-1.58-2.59,1.91-6.63s3.5-4.05,3.5-4.05s0.76,0.81,1.66,1.73
			c0.9,0.92,4.65,3.97,3.18,7.77s-2.79,5.89-3.32,6.5c-0.53,0.61-1.87,3.01-2.25,3.6"/>
		<circle class="st1" cx="60.53" cy="46.05" r="5.45"/>
		<path class="st2" d="M66.59,37.12c-0.17,2.18,0.79,2.88-3.61,5.76s-4.41,2.88-4.41,2.88s-0.5-0.98-1.1-2.09
			c-0.6-1.11-3.32-5.02-0.9-8.22c2.43-3.2,4.24-4.82,4.91-5.25c0.67-0.43,2.59-2.35,3.11-2.8"/>
		<path class="st3" d="M72.37,50.83c-2.09,0.71-2.35,1.88-6.77-1.05c-4.42-2.93-4.42-2.93-4.42-2.93s0.7-0.85,1.5-1.85
			s3.32-5.07,7.25-4.1c3.93,0.97,6.15,2,6.82,2.45c0.66,0.45,3.2,1.46,3.83,1.76"/>
		<path class="st4" d="M64.76,44.42c-0.45,0.58-0.31,0.95-2.06,0.94c-1.75-0.01-1.75-0.01-1.75-0.01s0.04-0.36,0.08-0.78
			s0-2,1.26-2.45s2.06-0.56,2.33-0.56s1.15-0.18,1.38-0.21"/>
		<path class="st5" d="M50.13,41.52c2.11-0.04,2.68-1.03,5.85,2.93c3.16,3.95,3.16,3.95,3.16,3.95s-0.89,0.57-1.9,1.25
			s-4.5,3.64-7.78,1.61c-3.29-2.03-5.01-3.62-5.48-4.21c-0.47-0.6-2.48-2.26-2.96-2.72"/>
		<path class="st6" d="M57.21,38.19c1.38,0.99,2.22,0.63,2.36,4.69s0.14,4.07,0.14,4.07s-0.85-0.06-1.82-0.11s-4.65,0.19-5.79-2.69
			c-1.15-2.88-1.49-4.73-1.51-5.35c-0.02-0.61-0.52-2.65-0.61-3.17"/>
		<path class="st7" d="M62.55,54.33c-1.57-0.63-2.31-0.07-3.42-3.99c-1.12-3.91-1.12-3.91-1.12-3.91s0.84-0.15,1.79-0.33
			s4.47-1.3,6.27,1.22s2.59,4.24,2.75,4.83c0.17,0.59,1.14,2.45,1.35,2.94"/>
		<path class="st8" d="M54.14,48.32c0.44-0.58,0.3-0.95,2.05-0.95s1.75,0,1.75,0s-0.04,0.36-0.07,0.78c-0.03,0.42,0.02,2-1.24,2.46
			c-1.26,0.45-2.06,0.58-2.32,0.57c-0.26,0-1.15,0.18-1.37,0.22"/>
	</g>
	<g>
		<path class="st0" d="M40.16,73.34c-1.26-1.84-2.46-1.77-0.81-6.86s1.65-5.09,1.65-5.09s1.02,0.45,2.2,0.95
			c1.18,0.5,5.82,1.85,5.95,5.92c0.12,4.08-0.28,6.51-0.53,7.28c-0.25,0.77-0.55,3.5-0.68,4.19"/>
		<circle class="st1" cx="42.12" cy="58.25" r="5.45"/>
		<path class="st2" d="M44.23,47.66c0.69,2.08,1.85,2.34-1.09,6.71s-2.94,4.37-2.94,4.37s-0.84-0.71-1.83-1.5
			c-0.98-0.79-5.01-3.33-4.02-7.22s2.03-6.09,2.48-6.75c0.45-0.66,1.47-3.17,1.78-3.78"/>
		<path class="st3" d="M54.88,58.05c-1.65,1.47-1.43,2.65-6.65,1.66c-5.21-0.98-5.21-0.98-5.21-0.98s0.32-1.06,0.66-2.29
			c0.34-1.23,1.09-5.96,5.08-6.6s6.45-0.55,7.23-0.39c0.79,0.15,3.52,0.1,4.21,0.14"/>
		<path class="st4" d="M45.38,55.09c-0.19,0.7,0.09,0.99-1.53,1.67s-1.62,0.68-1.62,0.68s-0.1-0.35-0.23-0.75s-0.78-1.84,0.21-2.74
			c0.99-0.9,1.68-1.32,1.92-1.42c0.24-0.1,0.99-0.61,1.19-0.73"/>
		<path class="st5" d="M30.77,58.11c1.93-0.85,2.07-1.99,6.52,0.43c4.45,2.41,4.45,2.41,4.45,2.41s-0.6,0.87-1.27,1.89
			c-0.67,1.02-2.73,5.1-6.54,4.51s-6.02-1.39-6.69-1.75c-0.67-0.37-3.17-1.12-3.79-1.35"/>
		<path class="st6" d="M36,52.29c1.65,0.37,2.29-0.29,4,3.41c1.71,3.69,1.71,3.69,1.71,3.69S40.91,59.66,40,60
			c-0.92,0.33-4.21,1.98-6.38-0.23c-2.18-2.21-3.22-3.78-3.47-4.34c-0.26-0.56-1.51-2.24-1.79-2.69"/>
		<path class="st9" d="M47.19,65.09c-1.69,0.03-2.15,0.83-4.7-2.34c-2.55-3.17-2.55-3.17-2.55-3.17s0.71-0.46,1.52-1
			c0.81-0.54,3.61-2.93,6.25-1.31c2.64,1.62,4.03,2.9,4.41,3.38c0.38,0.48,2,1.81,2.39,2.18"/>
		<path class="st8" d="M37.11,62.82c0.18-0.71-0.09-0.99,1.52-1.67c1.61-0.68,1.61-0.68,1.61-0.68s0.11,0.35,0.24,0.75
			s0.79,1.84-0.19,2.74c-0.98,0.91-1.67,1.33-1.92,1.43c-0.24,0.1-0.99,0.62-1.18,0.73"/>
	</g>
	<g>
		<path class="st0" d="M65.58,80.94c-1.86-1.22-2.95-0.7-3.36-6.03c-0.41-5.33-0.41-5.33-0.41-5.33s1.11,0.03,2.4,0.04
			c1.28,0.01,6.09-0.5,7.75,3.22c1.66,3.72,2.22,6.13,2.28,6.94c0.06,0.8,0.82,3.45,0.97,4.13"/>
		<circle class="st1" cx="61.66" cy="66.23" r="5.45"/>
		<path class="st10" d="M59.59,55.63c1.43,1.66,2.6,1.46,1.54,6.62c-1.06,5.16-1.06,5.16-1.06,5.16s-1.05-0.33-2.26-0.69
			c-1.21-0.36-5.9-1.18-6.46-5.15s-0.43-6.41-0.27-7.18c0.16-0.78,0.16-3.49,0.21-4.18"/>
		<path class="st3" d="M73.39,61.2c-0.97,1.99-0.32,2.99-5.51,4.07c-5.2,1.07-5.2,1.07-5.2,1.07s-0.11-1.1-0.26-2.37
			c-0.15-1.26-1.26-5.93,2.19-8.03c3.46-2.1,5.76-2.95,6.54-3.11c0.78-0.16,3.29-1.24,3.95-1.47"/>
		<path class="st4" d="M63.47,62.08c0.09,0.72,0.46,0.88-0.78,2.12c-1.24,1.24-1.24,1.24-1.24,1.24s-0.23-0.28-0.5-0.61
			s-1.42-1.41-0.85-2.62s1.05-1.86,1.24-2.05c0.19-0.19,0.68-0.94,0.82-1.12"/>
		<path class="st5" d="M51.11,70.42c1.46-1.52,1.16-2.63,6.2-2.09s5.04,0.54,5.04,0.54s-0.22,1.03-0.45,2.23
			c-0.23,1.19-0.58,5.76-4.34,6.66c-3.75,0.9-6.09,1.01-6.85,0.92c-0.76-0.09-3.35,0.17-4.02,0.19"/>
		<path class="st11" d="M53.74,63.05c1.67-0.28,2.01-1.14,5,1.63s2.99,2.77,2.99,2.77s-0.64,0.56-1.36,1.22
			c-0.72,0.66-3.14,3.43-5.99,2.21s-4.41-2.28-4.86-2.7c-0.45-0.42-2.24-1.5-2.68-1.81"/>
		<path class="st9" d="M68.95,70.64c-1.55,0.68-1.68,1.59-5.24-0.38c-3.56-1.97-3.56-1.97-3.56-1.97s0.49-0.7,1.03-1.51
			c0.54-0.81,2.22-4.09,5.29-3.59c3.06,0.5,4.83,1.15,5.36,1.45c0.54,0.3,2.54,0.92,3.04,1.11"/>
		<path class="st8" d="M58.77,72.36c-0.1-0.72-0.46-0.88,0.77-2.13s1.23-1.25,1.23-1.25s0.23,0.28,0.5,0.6
			c0.27,0.32,1.43,1.4,0.87,2.61c-0.56,1.21-1.04,1.87-1.23,2.05c-0.19,0.19-0.68,0.94-0.82,1.13"/>
	</g>
</g>
</svg>
