<?xml version="1.0" encoding="utf-8"?>
<!-- Generator: Adobe Illustrator 23.1.1, SVG Export Plug-In . SVG Version: 6.00 Build 0)  -->
<svg version="1.1" id="Layer_1" xmlns="http://www.w3.org/2000/svg" xmlns:xlink="http://www.w3.org/1999/xlink" x="0px" y="0px"
	 viewBox="0 0 108 108" style="enable-background:new 0 0 108 108;" xml:space="preserve">
<style type="text/css">
	.st0{fill:none;stroke:#708530;stroke-width:1.1117;stroke-miterlimit:10;}
	.st1{fill:#A6C339;}
	.st2{fill:#84B53A;}
	.st3{fill:#91BC3A;}
	.st4{fill:#B0CC36;}
	.st5{fill:#92B83E;}
	.st6{fill:#A6BD39;}
	.st7{fill:#A5C939;}
	.st8{fill:#72AA3A;}
	.st9{fill:#5E1F27;}
	.st10{fill:#5E1F18;}
	.st11{fill:#E40707;}
	.st12{fill:#B01419;}
	.st13{fill:#E5522B;}
	.st14{fill:#E31D39;}
	.st15{fill:#E4463C;}
	.st16{fill:#C4191F;}
	.st17{fill:#E65D25;}
</style>
<g>
<path class="st0" d="M76.5,75.7c-0.1-2.7-1.1-7.4-1.8-10.8"/>
<path class="st0" d="M83.5,72.3c-3.5-1.4-8-4.6-10.2-8"/>
<path class="st0" d="M84.7,65.4c-4,1.9-7.3,4.1-10,0.2"/>
<path class="st0" d="M68.7,57.8c-4.2-3.3-8.2-7.6-9.8-11.4"/>
<path class="st0" d="M60,60.9c0.5-5.5-1-14-1.2-15.7"/>
<path class="st0" d="M67.5,50.4c-3.3,1-5.1,2.6-8.3-2.8"/>
<path class="st1" d="M70.8,80.9c-0.3-2.1-1.4-2.6,2.1-6.3l3.5-3.8c0,0,0.7,0.8,1.5,1.7c0.8,0.9,4.3,4,2.7,7.6
	c-1.6,3.6-2.9,5.6-3.5,6.1c-0.5,0.6-1.9,2.8-2.3,3.4"/>
<path class="st2" d="M95.6,82c-2.6-1.1-6.3,1.2-9.4-0.9c-3.1-2.2-4.9-7.6-5.7-9.2c-0.7-1.6-2-0.9,0.9-0.9c2.9-0.1,3.1-1.1,5.7-0.4
	c2.6,0.6,6.1,4.4,6.3,6C93.8,78,95.6,82,95.6,82"/>
<path class="st3" d="M80.2,67.6c0.8,0,1.6,0.6,5.3,0.7c3.7,0.1,6.6-0.3,7.3-3.2c0.6-2.8-0.3-3.4,1.3-5.3l1.6-1.9c0,0-3.2-0.1-7.6,0
	c-4.5,0.1-6.5,4.6-7.1,6.5C80.5,66.4,80.2,67.6,80.2,67.6"/>
<path class="st4" d="M78.2,67.6c0,0-1.7-1.9-5.2-1.9c-3.5,0-7.3-1.7-7.3-5.5c0-3.7-1.2-5.8-1.2-5.8s-0.1,0.5,3,0.3
	c3.1-0.2,7.4,1.9,8.6,4.9C77.3,62.7,78.2,67.6,78.2,67.6"/>
<path class="st5" d="M57.2,72.3c0,0,4.5-4.5,5.9-7.6c1.4-3.1,1.8-4.9,0-7.1c-1.8-2.2-2.4-3.9-2.4-3.9s-2.5,3.8-4.2,4.7
	s-3.5,4-2.6,5.8C54.7,66.1,57.2,72.3,57.2,72.3"/>
<path class="st6" d="M64.2,51.4c0,0.1,2.7,1.2,5.9,1.6c3.2,0.4,5,0.4,6.2-1.2c1.3-1.6,2.1-3.3,3-5.2c0.9-1.9,1-2.6,1.8-2.8
	c0.7-0.2-0.9,0.7-4.5-0.2c-3.5-0.9-5.2-1.9-6.7-0.7c-1.5,1.2-1.4,3.3-2.6,5C66.1,49.6,64.2,51.4,64.2,51.4"/>
<path class="st0" d="M30.2,73.9c2.6-0.7,6.9-2.9,10-4.4"/>
<path class="st0" d="M35.3,79.8c0.5-3.7,2.5-8.9,5.3-11.9"/>
<path class="st0" d="M42.2,79.3c-2.8-3.4-5.8-6.1-2.6-9.7"/>
<path class="st0" d="M45.7,61.9c2.1-4.9,5.4-9.8,8.7-12.3"/>
<path class="st0" d="M40.5,54.3c5.5-0.9,13.3-4.4,14.9-5"/>
<path class="st0" d="M52.5,59c-1.8-2.9-3.8-4.3,0.7-8.8"/>
<path class="st2" d="M23.8,69.6c2-0.8,2.1-2,6.6,0.5l4.5,2.5c0,0-0.6,0.9-1.3,1.9c-0.7,1-2.8,5.2-6.7,4.5c-3.9-0.6-6.1-1.5-6.8-1.9
	c-0.7-0.4-3.2-1.2-3.8-1.4"/>
<path class="st7" d="M28.8,94c0.4-2.8-2.7-5.8-1.4-9.3c1.4-3.6,6.2-6.6,7.5-7.7c1.3-1.1,0.4-2.2,1.1,0.7c0.8,2.8,1.8,2.8,1.8,5.4
	c0,2.6-2.8,7-4.3,7.6C32.2,91.2,28.8,94,28.8,94"/>
<path class="st3" d="M39,75.5c0.2,0.7-0.2,1.7,0.6,5.3c0.9,3.6,2,6.3,4.9,6.3c2.9-0.1,3.2-1.1,5.4,0l2.2,1.1c0,0-0.7-3.1-1.9-7.4
	c-1.2-4.3-6.1-5.2-8.1-5.3C40.2,75.5,39,75.5,39,75.5"/>
<path class="st4" d="M38.5,73.6c0,0,1.4-2.1,0.6-5.5c-0.8-3.4-0.1-7.5,3.5-8.5s5.3-2.6,5.3-2.6s-0.5,0.1,0.4,3c1,2.9,0,7.6-2.6,9.5
	C43,71.4,38.5,73.6,38.5,73.6"/>
<path class="st5" d="M28.7,54.3c0,0,5.5,3.3,8.8,3.9c3.3,0.6,5.2,0.5,6.8-1.8c1.7-2.3,3.2-3.3,3.2-3.3s-4.3-1.5-5.6-2.9
	c-1.3-1.4-4.7-2.4-6.3-1.1C34.2,50.3,28.7,54.3,28.7,54.3"/>
<path class="st6" d="M50.7,56c-0.1,0-0.5,2.9-0.1,6.1c0.4,3.2,0.9,4.9,2.7,5.7c1.9,0.8,3.7,1.2,5.7,1.7c2,0.4,2.8,0.3,3.1,1
	c0.3,0.7-0.9-0.7-0.9-4.4c0-3.7,0.5-5.5-1-6.7c-1.5-1.1-3.5-0.6-5.5-1.3C52.9,57.4,50.7,56,50.7,56"/>
<path class="st0" d="M37.9,28.5c0.8,2.5,3.2,6.8,4.9,9.8"/>
<path class="st0" d="M32.2,33.8c3.8,0.3,9,2,12.1,4.7"/>
<path class="st0" d="M33,40.8c3.2-3,5.8-6.1,9.6-3.1"/>
<path class="st0" d="M50.6,43.3c5,1.9,10.1,4.9,12.7,8"/>
<path class="st0" d="M57.9,37.8c1.2,5.4,5.1,13,5.8,14.6"/>
<path class="st0" d="M53.9,50c2.8-1.9,4.1-4,8.8,0.2"/>
<path class="st1" d="M41.8,21.9c0.9,1.9,2.1,2-0.2,6.6l-2.3,4.6c0,0-0.9-0.6-2-1.2c-1.1-0.6-5.3-2.6-4.8-6.5
	c0.4-3.9,1.2-6.2,1.5-6.9c0.3-0.7,1-3.3,1.2-3.9"/>
<path class="st2" d="M17.7,28.1c2.8,0.3,5.6-3,9.3-1.9c3.6,1.2,6.9,5.8,8.1,7.1c1.2,1.3,2.2,0.3-0.6,1.2c-2.8,0.9-2.7,1.9-5.3,2.1
	c-2.6,0.2-7.1-2.4-7.8-3.9C20.7,31.3,17.7,28.1,17.7,28.1"/>
<path class="st3" d="M36.7,37.4c-0.7,0.2-1.7-0.1-5.3,0.9c-3.6,1-6.2,2.3-6,5.2c0.2,2.9,1.3,3.2,0.3,5.4l-1,2.2c0,0,3.1-0.8,7.3-2.3
	c4.2-1.4,4.9-6.3,4.9-8.3C36.8,38.6,36.7,37.4,36.7,37.4"/>
<path class="st4" d="M38.6,36.7c0,0,2.2,1.3,5.5,0.3c3.4-1,7.5-0.5,8.6,3.1c1.1,3.5,2.8,5.1,2.8,5.1s-0.1-0.5-2.9,0.6
	c-2.8,1.1-7.6,0.4-9.7-2.1C40.9,41.1,38.6,36.7,38.6,36.7"/>
<path class="st5" d="M57.3,26c0,0-3,5.6-3.4,9c-0.4,3.3-0.3,5.2,2.1,6.7c2.4,1.6,3.5,3,3.5,3s1.3-4.4,2.7-5.7
	c1.3-1.3,2.2-4.8,0.8-6.3C61.6,31.3,57.3,26,57.3,26"/>
<path class="st6" d="M56.7,48.1c0-0.1-2.9-0.3-6.1,0.2c-3.2,0.6-4.8,1.1-5.6,3c-0.7,1.9-1.1,3.8-1.4,5.8c-0.3,2-0.2,2.8-0.9,3.2
	c-0.7,0.4,0.7-0.9,4.3-1.1c3.6-0.2,5.6,0.2,6.6-1.3c1.1-1.5,0.4-3.6,1-5.6C55.4,50.4,56.7,48.1,56.7,48.1"/>
<path class="st0" d="M84.9,34.6c-2.6,0.4-7.2,2.2-10.4,3.4"/>
<path class="st0" d="M80.5,28.2c-0.9,3.7-3.4,8.6-6.5,11.3"/>
<path class="st0" d="M73.5,27.9c2.5,3.7,5.1,6.6,1.6,9.9"/>
<path class="st0" d="M68.2,44.9c-2.6,4.6-6.4,9.2-9.9,11.3"/>
<path class="st0" d="M72.6,53c-5.5,0.3-13.7,3-15.4,3.4"/>
<path class="st0" d="M61.1,47.1c1.5,3.1,3.3,4.7-1.6,8.7"/>
<path class="st1" d="M90.8,39.6c-2,0.6-2.3,1.8-6.5-1.2l-4.2-3c0,0,0.7-0.8,1.5-1.8c0.8-0.9,3.4-4.8,7.1-3.8c3.8,1,5.9,2.1,6.5,2.6
	c0.6,0.5,3.1,1.5,3.7,1.8"/>
<path class="st7" d="M88.4,14.8c-0.7,2.7,2.1,6,0.4,9.4c-1.7,3.4-6.8,5.9-8.3,6.9c-1.4,1-0.6,2.1-1.1-0.8c-0.5-2.9-1.5-2.9-1.2-5.6
	c0.2-2.6,3.5-6.7,5.1-7.1C84.8,17.2,88.4,14.8,88.4,14.8"/>
<path class="st2" d="M76.3,32.1c-0.1-0.8,0.4-1.7-0.1-5.4c-0.5-3.7-1.3-6.5-4.2-6.8c-2.9-0.2-3.3,0.7-5.4-0.6L64.6,18
	c0,0,0.4,3.2,1.1,7.6c0.7,4.4,5.5,5.8,7.5,6.1C75.1,32,76.3,32.1,76.3,32.1"/>
<path class="st4" d="M76.6,34.1c0,0-1.6,2-1.2,5.4c0.5,3.5-0.7,7.5-4.4,8c-3.7,0.5-5.5,2-5.5,2s0.5,0-0.1-3c-0.7-3,0.8-7.6,3.6-9.2
	C71.9,35.7,76.6,34.1,76.6,34.1"/>
<path class="st5" d="M84.3,54.2c0,0-5.1-3.8-8.3-4.8c-3.2-0.9-5.1-1.1-7,1c-1.9,2.1-3.5,3-3.5,3s4.1,2,5.2,3.5
	c1.1,1.5,4.4,2.9,6.1,1.8C78.5,57.6,84.3,54.2,84.3,54.2"/>
<path class="st6" d="M62.6,50.2c0.1,0,0.8-2.8,0.7-6.1c-0.1-3.2-0.3-5-2.1-6c-1.8-1-3.6-1.6-5.5-2.3c-2-0.6-2.7-0.6-3-1.3
	c-0.3-0.7,0.8,0.8,0.4,4.5c-0.4,3.6-1.1,5.5,0.3,6.7c1.4,1.3,3.5,0.9,5.3,1.9C60.5,48.6,62.6,50.2,62.6,50.2"/>
<path class="st8" d="M58.9,63.9c-0.1-2.7-1.1-7.4-1.8-10.8"/>
<path class="st8" d="M65.9,60.5c-3.5-1.4-8-4.6-10.2-8"/>
<path class="st8" d="M67.1,53.6c-4,1.9-7.3,4.1-10,0.2"/>
<path class="st8" d="M51.1,46c-4.2-3.3-8.2-7.6-9.8-11.4"/>
<path class="st8" d="M42.4,49.2c0.5-5.5-1-14-1.2-15.7"/>
<path class="st8" d="M49.9,38.7c-3.3,1-5.1,2.6-8.3-2.8"/>
<path class="st8" d="M53.2,69.2c-0.3-2.1-1.4-2.6,2.1-6.3l3.5-3.8c0,0,0.7,0.8,1.5,1.7c0.8,0.9,4.3,4,2.7,7.6
	c-1.6,3.6-2.9,5.6-3.5,6.1c-0.5,0.6-1.9,2.8-2.3,3.4"/>
<path class="st8" d="M78,70.2c-2.6-1.1-6.3,1.2-9.4-0.9c-3.1-2.2-4.9-7.6-5.7-9.2c-0.7-1.6-2-0.9,0.9-0.9c2.9-0.1,3.1-1.1,5.7-0.4
	c2.6,0.6,6.1,4.4,6.3,6C76.2,66.3,78,70.2,78,70.2"/>
<path class="st8" d="M62.7,55.8c0.8,0,1.6,0.6,5.3,0.7c3.7,0.1,6.6-0.3,7.3-3.2c0.6-2.8-0.3-3.4,1.3-5.3l1.6-1.9c0,0-3.2-0.1-7.6,0
	c-4.5,0.1-6.5,4.6-7.1,6.5C62.9,54.7,62.7,55.8,62.7,55.8"/>
<path class="st8" d="M60.6,55.9c0,0-1.7-1.9-5.2-1.9c-3.5,0-7.3-1.7-7.3-5.5c0-3.7-1.2-5.8-1.2-5.8s-0.1,0.5,3,0.3
	c3.1-0.2,7.4,1.9,8.6,4.9C59.7,51,60.6,55.9,60.6,55.9"/>
<path class="st8" d="M39.6,60.6c0,0,4.5-4.5,5.9-7.6c1.4-3.1,1.8-4.9,0-7.1C43.7,43.8,43,42,43,42s-2.5,3.8-4.2,4.7
	c-1.7,0.9-3.5,4-2.6,5.8C37.1,54.4,39.6,60.6,39.6,60.6"/>
<path class="st8" d="M46.6,39.7c0,0.1,2.7,1.2,5.9,1.6s5,0.4,6.2-1.2c1.3-1.6,2.1-3.3,3-5.2c0.9-1.9,1-2.6,1.8-2.8
	c0.7-0.2-0.9,0.7-4.5-0.2c-3.5-0.9-5.2-1.9-6.7-0.7c-1.5,1.2-1.4,3.3-2.6,5C48.5,37.9,46.6,39.7,46.6,39.7"/>
<path class="st0" d="M42.4,81.1c2.4-1.2,6.3-4.1,9.1-6.2"/>
<path class="st0" d="M48.4,86.1c-0.2-3.8,0.9-9.2,3.1-12.6"/>
<path class="st0" d="M55.2,84.3c-3.4-2.8-6.8-4.9-4.3-9.1"/>
<path class="st0" d="M55.4,66.6c1.2-5.2,3.5-10.6,6.3-13.6"/>
<path class="st0" d="M49,60c5.2-1.8,12.3-6.7,13.8-7.6"/>
<path class="st0" d="M61.6,62.4c-2.3-2.6-4.5-3.6-0.9-8.8"/>
<path class="st1" d="M35.2,78c1.8-1.2,1.7-2.3,6.6-0.7l4.9,1.7c0,0-0.5,1-0.9,2.1c-0.5,1.1-1.9,5.6-5.8,5.6c-3.9,0.1-6.3-0.4-7-0.6
	c-0.7-0.3-3.4-0.6-4-0.7"/>
<path class="st2" d="M44.6,101.1c-0.1-2.8-3.7-5.2-3-8.9c0.7-3.8,4.9-7.6,6-8.9c1.1-1.3,0-2.2,1.2,0.5c1.3,2.7,2.2,2.4,2.8,5
	c0.5,2.6-1.5,7.4-2.9,8.3C47.3,97.8,44.6,101.1,44.6,101.1"/>
<path class="st3" d="M51.3,81.1c0.3,0.7,0.1,1.7,1.6,5.1c1.5,3.4,3.1,5.9,5.9,5.3c2.8-0.6,3-1.6,5.3-1l2.4,0.7c0,0-1.2-2.9-3.2-7
	c-1.9-4-6.9-4-8.9-3.7C52.5,80.9,51.3,81.1,51.3,81.1"/>
<path class="st4" d="M50.4,79.3c0,0,1-2.3-0.4-5.5c-1.4-3.2-1.5-7.4,1.9-8.9c3.4-1.5,4.7-3.5,4.7-3.5s-0.5,0.1,1,2.8
	c1.5,2.7,1.4,7.5-0.9,9.9C54.5,76.4,50.4,79.3,50.4,79.3"/>
<path class="st5" d="M37.4,62.1c0,0,6,2.2,9.3,2.2c3.4,0,5.2-0.4,6.4-2.9c1.2-2.5,2.6-3.9,2.6-3.9s-4.5-0.7-6-1.9
	c-1.5-1.2-5.1-1.6-6.4,0C42,57.2,37.4,62.1,37.4,62.1"/>
<path class="st6" d="M59.3,59.9c-0.1,0,0,2.9,1,6c1,3.1,1.7,4.7,3.7,5.1c2,0.5,3.9,0.6,5.9,0.6c2.1,0,2.8-0.2,3.3,0.4
	c0.5,0.6-1-0.6-1.6-4.2c-0.7-3.6-0.5-5.5-2.1-6.4c-1.7-0.9-3.6,0.1-5.6-0.3C61.8,60.8,59.3,59.9,59.3,59.9"/>
<path class="st0" d="M24.9,38.2c1.7,2,5.5,5.1,8.2,7.3"/>
<path class="st0" d="M21.5,45.3c3.6-1.1,9.1-1.4,13-0.1"/>
<path class="st0" d="M24.9,51.4c1.9-4,3.1-7.8,7.8-6.4"/>
<path class="st0" d="M42.1,47.3c5.3-0.1,11.2,0.8,14.8,2.8"/>
<path class="st0" d="M46.9,39.5C50,44.1,56.4,49.7,57.7,51"/>
<path class="st0" d="M47.7,52.3c1.9-2.8,2.4-5.2,8.3-3"/>
<path class="st2" d="M26.1,30.5c1.6,1.4,2.7,1.1,2.3,6.2L28,41.9c0,0-1.1-0.2-2.3-0.4c-1.2-0.2-5.9-0.4-6.9-4.2
	c-1-3.8-1.2-6.2-1.1-6.9c0.1-0.8-0.3-3.4-0.3-4.1"/>
<path class="st7" d="M6,45.2c2.7-0.8,4.1-4.9,7.9-5.1c3.8-0.2,8.6,2.9,10.1,3.6c1.6,0.8,2.1-0.6-0.1,1.3c-2.3,1.9-1.8,2.8-4.2,3.9
	c-2.4,1.1-7.5,0.3-8.7-0.7C9.9,47.1,6,45.2,6,45.2"/>
<path class="st3" d="M27,46.9c-0.6,0.5-1.7,0.5-4.6,2.8c-2.9,2.3-5,4.4-3.7,7c1.3,2.6,2.3,2.5,2.2,4.9l-0.1,2.4c0,0,2.6-1.9,6-4.8
	c3.4-2.9,2.2-7.7,1.5-9.5C27.5,48,27,46.9,27,46.9"/>
<path class="st4" d="M28.5,45.6c0,0,2.5,0.4,5.3-1.8c2.7-2.2,6.8-3.2,9.1-0.3c2.3,2.9,4.5,3.7,4.5,3.7s-0.3-0.5-2.5,1.6
	C42.7,51,38,52,35.2,50.4C32.3,48.8,28.5,45.6,28.5,45.6"/>
<path class="st5" d="M42,28.7c0,0-0.7,6.4,0.1,9.6c0.8,3.3,1.7,4.9,4.4,5.5c2.8,0.6,4.4,1.5,4.4,1.5s-0.4-4.5,0.4-6.3
	c0.8-1.7,0.3-5.3-1.6-6.2C47.9,32,42,28.7,42,28.7"/>
<path class="st6" d="M49.6,49.5c0,0-2.8,0.8-5.6,2.5c-2.8,1.7-4.1,2.8-4.1,4.8c0,2,0.4,3.9,0.9,5.9c0.5,2,0.9,2.7,0.4,3.3
	c-0.5,0.6,0.3-1.1,3.6-2.6c3.3-1.5,5.2-1.8,5.7-3.7c0.4-1.8-0.9-3.5-1.1-5.5C49.2,52.1,49.6,49.5,49.6,49.5"/>
<path class="st0" d="M69.3,26.4c-1.9,1.8-4.8,5.8-6.9,8.5"/>
<path class="st0" d="M62.1,23.4c1.3,3.6,1.9,9,0.8,13"/>
<path class="st0" d="M56.1,27.1c4.1,1.7,7.9,2.7,6.8,7.4"/>
<path class="st0" d="M61.1,44.1c0.4,5.3-0.2,11.2-2.1,14.9"/>
<path class="st0" d="M69.1,48.5c-4.4,3.3-9.8,10-10.9,11.3"/>
<path class="st0" d="M56.4,49.9c2.9,1.8,5.4,2.1,3.4,8.1"/>
<path class="st1" d="M77,27.2c-1.4,1.7-1,2.8-6.1,2.6l-5.1-0.2c0,0,0.1-1.1,0.3-2.3c0.1-1.2,0.1-5.9,3.9-7.1
	c3.7-1.2,6.1-1.5,6.9-1.5c0.8,0,3.4-0.4,4.1-0.5"/>
<path class="st2" d="M61.3,7.9c0.9,2.6,5.1,3.9,5.5,7.7c0.4,3.8-2.4,8.7-3.1,10.3c-0.7,1.6,0.7,2.1-1.3-0.1c-2-2.2-2.9-1.6-4.1-4
	c-1.2-2.3-0.7-7.5,0.3-8.7C59.6,11.9,61.3,7.9,61.3,7.9"/>
<path class="st3" d="M60.8,29c-0.5-0.6-0.6-1.6-3-4.5c-2.4-2.8-4.7-4.7-7.2-3.3c-2.5,1.4-2.4,2.4-4.8,2.5l-2.4,0c0,0,2,2.5,5.1,5.7
	c3,3.3,7.8,1.8,9.6,1C59.7,29.5,60.8,29,60.8,29"/>
<path class="st4" d="M62.1,30.4c0,0-0.3,2.5,2,5.2c2.3,2.6,3.6,6.7,0.8,9.1c-2.8,2.5-3.5,4.7-3.5,4.7s0.4-0.3-1.8-2.4
	c-2.2-2.1-3.5-6.8-2-9.7C59.1,34.4,62.1,30.4,62.1,30.4"/>
<path class="st5" d="M79.6,43.1c0,0-6.4-0.4-9.6,0.6c-3.2,1-4.8,1.9-5.3,4.7s-1.3,4.4-1.3,4.4s4.5-0.6,6.3,0.1
	c1.8,0.7,5.3,0,6.1-1.9C76.6,49.1,79.6,43.1,79.6,43.1"/>
<path class="st6" d="M59.3,51.6c0,0-0.9-2.8-2.7-5.5c-1.8-2.7-3-4-5-3.8c-2,0.1-3.9,0.6-5.9,1.2c-2,0.6-2.6,1-3.3,0.5
	c-0.6-0.4,1.1,0.3,2.8,3.5c1.7,3.2,2.1,5.2,3.9,5.5c1.8,0.3,3.4-1.1,5.5-1.4C56.7,51.4,59.3,51.6,59.3,51.6"/>
<path class="st0" d="M83.2,71.7c-1.5-2.2-4.9-5.7-7.4-8.1"/>
<path class="st0" d="M87.3,65c-3.7,0.7-9.2,0.4-12.9-1.2"/>
<path class="st0" d="M84.6,58.6c-2.3,3.8-3.9,7.4-8.4,5.5"/>
<path class="st0" d="M67,60.8c-5.3-0.5-11-2-14.4-4.3"/>
<path class="st0" d="M61.4,68.1c-2.6-4.9-8.4-11.2-9.5-12.6"/>
<path class="st0" d="M62,55.3c-2.2,2.6-2.9,5-8.5,2.1"/>
<path class="st1" d="M81.1,79.2c-1.4-1.6-2.6-1.4-1.6-6.5l1-5.1c0,0,1,0.3,2.2,0.6c1.2,0.3,5.8,1.1,6.4,4.9c0.6,3.9,0.5,6.3,0.4,7
	c-0.1,0.8-0.1,3.4-0.1,4.1"/>
<path class="st7" d="M102.7,66.7c-2.7,0.5-4.6,4.4-8.4,4.3c-3.8-0.2-8.2-3.8-9.7-4.7c-1.5-0.9-2.2,0.3,0.3-1.3s2.1-2.6,4.5-3.4
	c2.5-0.9,7.5,0.5,8.6,1.7C99,64.4,102.7,66.7,102.7,66.7"/>
<path class="st2" d="M82,62.9c0.6-0.4,1.7-0.3,4.9-2.3c3.2-1.9,5.4-3.9,4.4-6.6c-1-2.7-2.1-2.7-1.7-5.1l0.3-2.4c0,0-2.7,1.6-6.4,4.1
	c-3.7,2.5-3,7.4-2.5,9.3C81.6,61.7,82,62.9,82,62.9"/>
<path class="st4" d="M80.3,64c0,0-2.5-0.7-5.4,1.2c-3,1.9-7.1,2.5-9.1-0.6c-2-3.1-4.1-4.2-4.1-4.2s0.2,0.5,2.7-1.4
	c2.4-1.8,7.2-2.4,9.9-0.5C76.9,60.4,80.3,64,80.3,64"/>
<path class="st5" d="M65.1,79.3c0,0,1.4-6.2,0.9-9.6c-0.5-3.3-1.1-5.1-3.8-5.9c-2.7-0.9-4.2-2-4.2-2s-0.1,4.6-1,6.2
	c-0.9,1.6-0.8,5.2,0.9,6.3C59.6,75.4,65.1,79.3,65.1,79.3"/>
<path class="st6" d="M59.8,57.9c0,0,2.9-0.5,5.8-1.9c2.9-1.4,4.4-2.4,4.6-4.4c0.2-2,0-3.9-0.2-6c-0.2-2.1-0.6-2.8,0-3.3
	c0.5-0.5-0.4,1.1-3.9,2.2c-3.5,1.2-5.4,1.3-6,3c-0.6,1.8,0.6,3.5,0.5,5.6C60.4,55.3,59.8,57.9,59.8,57.9"/>
<path class="st8" d="M45.7,60.2c2.4-1.2,6.3-4.1,9.1-6.2"/>
<path class="st8" d="M51.8,65.2c-0.2-3.8,0.9-9.2,3.1-12.6"/>
<path class="st8" d="M58.6,63.4c-3.4-2.8-6.8-4.9-4.3-9.1"/>
<path class="st8" d="M58.8,45.7c1.2-5.2,3.5-10.6,6.3-13.6"/>
<path class="st8" d="M52.4,39.1c5.2-1.8,12.3-6.7,13.8-7.6"/>
<path class="st8" d="M65,41.6c-2.3-2.6-4.5-3.6-0.9-8.8"/>
<path class="st8" d="M38.6,57.1c1.8-1.2,1.7-2.3,6.6-0.7l4.9,1.7c0,0-0.5,1-0.9,2.1c-0.5,1.1-1.9,5.6-5.8,5.6
	c-3.9,0.1-6.3-0.4-7-0.6c-0.7-0.3-3.4-0.6-4-0.7"/>
<path class="st8" d="M48,80.2c-0.1-2.8-3.7-5.2-3-8.9c0.7-3.8,4.9-7.6,6-8.9c1.1-1.3,0-2.2,1.2,0.5c1.3,2.7,2.2,2.4,2.8,5
	c0.5,2.6-1.5,7.4-2.9,8.3C50.7,76.9,48,80.2,48,80.2"/>
<path class="st8" d="M54.7,60.3c0.3,0.7,0.1,1.7,1.6,5.1c1.5,3.4,3.1,5.9,5.9,5.3c2.8-0.6,3-1.6,5.3-1l2.4,0.7c0,0-1.2-2.9-3.2-7
	c-1.9-4-6.9-4-8.9-3.7C55.9,60,54.7,60.3,54.7,60.3"/>
<path class="st8" d="M53.8,58.4c0,0,1-2.3-0.4-5.5c-1.4-3.2-1.5-7.4,1.9-8.9c3.4-1.5,4.7-3.5,4.7-3.5s-0.5,0.1,1,2.8
	c1.5,2.7,1.4,7.5-0.9,9.9C57.9,55.5,53.8,58.4,53.8,58.4"/>
<path class="st8" d="M40.8,41.2c0,0,6,2.2,9.3,2.2c3.4,0,5.2-0.4,6.4-2.9c1.2-2.5,2.6-3.9,2.6-3.9s-4.5-0.7-6-1.9
	c-1.5-1.2-5.1-1.6-6.4,0C45.4,36.4,40.8,41.2,40.8,41.2"/>
<path class="st8" d="M62.7,39c-0.1,0,0,2.9,1,6c1,3.1,1.7,4.7,3.7,5.1c2,0.5,3.9,0.6,5.9,0.6c2.1,0,2.8-0.2,3.3,0.4
	c0.5,0.6-1-0.6-1.6-4.2c-0.7-3.6-0.5-5.5-2.1-6.4c-1.7-0.9-3.6,0.1-5.6-0.3C65.2,40,62.7,39,62.7,39"/>
<path class="st9" d="M42.4,35.4c0,0-1.1,1.5-2.2,1.4s-1.4,0-2.1-0.2c-0.6-0.2-1.6-0.2-1.6-0.2s-0.5-0.6-1-0.3s-0.6,0.6-1,1.1
	c-0.4,0.5-0.6,0.9-1.2,1.4c-0.6,0.4-1.1,0.4-0.9,1.4c0.2,1,0.9,2-0.1,2.9c-1,0.9-1.4,1.5-1.6,2c-0.2,0.5-2.1,0.6,0,1.6
	s3.8,1.2,4.4,1.6c0.6,0.4,1.1,0.2,1.4,1.1c0.3,0.9,0.3-0.5,1,2.6c0.7,3.1,0.1,2.2,1.6,3.3c1.5,1.1,2.9,2.1,3.8,0
	c0.9-2.1,0.6-2.5,2-2.9c1.4-0.4,1.5,0.7,3.2-0.7c1.7-1.4,2,1.6,2.9-2.7c0.9-4.4,0.1-2.1,0.9-5.4c0.8-3.2,1.1-2.9,0.4-4.4
	c-0.7-1.4,0.1-1.3-1.7-1.9s-1.6-0.1-2.5-1s-1.2-0.7-2-0.9c-0.8-0.2-1.5,0.1-2.1,0C43.5,35.3,42.4,35.4,42.4,35.4z"/>
<path class="st10" d="M42.4,40c0,0-1.1,1.5-2.2,1.4s-1.4,0-2.1-0.2c-0.6-0.2-1.6-0.2-1.6-0.2s-0.5-0.6-1-0.3s-0.6,0.6-1,1.1
	c-0.4,0.5-0.6,0.9-1.2,1.4c-0.6,0.4-1.1,0.4-0.9,1.4c0.2,1,0.9,2-0.1,2.9c-1,0.9-1.4,1.5-1.6,2c-0.2,0.5-2.1,0.6,0,1.6
	s3.8,1.2,4.4,1.6c0.6,0.4,1.1,0.2,1.4,1.1c0.3,0.9,0.3-0.5,1,2.6c0.7,3.1,0.1,2.2,1.6,3.3c1.5,1.1,2.9,2.1,3.8,0
	c0.9-2.1,0.6-2.5,2-2.9c1.4-0.4,1.5,0.7,3.2-0.7c1.7-1.4,2,1.6,2.9-2.7c0.9-4.4,0.1-2.1,0.9-5.4c0.8-3.2,1.1-2.9,0.4-4.4
	c-0.7-1.4,0.1-1.3-1.7-1.9s-1.6-0.1-2.5-1s-1.2-0.7-2-0.9c-0.8-0.2-1.5,0.1-2.1,0C43.5,39.9,42.4,40,42.4,40z"/>
<path class="st11" d="M38.2,42.3c-0.1-1.2-5.6-12.9-6.9-14.6c-1.4-1.7-4.9-4.5-5.1-6.1c-0.2-1.6-1.6-2.9-2.1-3.4
	c-0.5-0.5-1.1-0.6-0.4,0.7c0.8,1.3,2.1,4.3,2.9,5.4s2.1,6.8,3.1,8.3c1.1,1.5,3.7,4.3,4.2,5s2.3,3.2,2.6,3.6c0.3,0.5,0.3,0.4,0.7,0.9
	C37.7,42.8,38.2,42.3,38.2,42.3z"/>
<path class="st12" d="M39.5,44c0.2-0.9,0.2-5,0.4-5.9c0.2-0.9,0.4-3.2,0.6-4.4c0.2-1.2,1.4-2.1,0.7-2.5s-1.1,0.6-1.7,1.5
	c-0.6,0.9-1.8,2.5-2.3,3.4c-0.5,0.9-1.4,1.2-0.9,2.5s0.5,3.5,1,3.7c0.5,0.2,0.9,0.8,0.9,1c0.1,0.2,0.9,1.2,0.9,1.2L39.5,44z"/>
<path class="st11" d="M38.8,33.7c-0.3-1-0.7-4.1-2.1-5.8c-1.4-1.6-2.6-2.5-3.4-3.1c-0.8-0.6-1.6-1.2-1.7-0.8
	c-0.1,0.5,0.7,1.6,1.3,2.6c0.6,1,0.5,2.6,0.5,3.1c0.1,0.5-0.3,0,1,1.4c1.3,1.4,1.3,2.1,1.7,2.5c0.4,0.5,1.1,1.6,1.1,1.6
	s-0.1,0.2,0.6-0.2C38.6,34.6,38.8,33.7,38.8,33.7z"/>
<path class="st11" d="M40.7,36.2c0.4,0.2,3.5,1.7,4.2,1.9c0.8,0.2,3.4,0.6,4.6,0.8c1.2,0.1,2.5,0,2.1,0.6c-0.5,0.6-1.5,2.2-3.5,1.4
	c-2-0.9-3.4-1.2-5.1-0.9c-1.7,0.3-2.6,0.5-3,0.2s-0.3-0.9-0.3-1.5c0.1-0.6-0.4-1.8,0-2S40.7,36.2,40.7,36.2z"/>
<path class="st11" d="M44.8,37.5c0.1-0.8,1.6-7,1.9-7.6c0.3-0.6,1.4-2.5,1.2-4.5c-0.2-1.9-1.6-2.1-0.9-2.8s1.3-1.8,0.7-1.5
	c-0.6,0.3-1.1,0.9-1.3-0.1c-0.2-0.9,0.5-4.4,0.5-5.3c0.1-1-0.4-1.8-0.5-2.5c-0.1-0.8-0.2-2.2-0.4-1.9s0.2,3.5-0.1,5
	s-0.2,4.4-0.6,4.9c-0.4,0.5-1,1.4-1.2,1.7c-0.2,0.3-1,0.9-1.4,1.1c-0.4,0.2-0.4,1.5-0.6,0.5c-0.2-1.1-0.9-3.8-0.9-5.5
	s0.4-2.9,0.4-4.3S41.3,12,41.3,12s-0.8,3.6-0.8,4.2s0.1,2.3,0,3.4c-0.1,1.1,0.6,1.8,0,2c-0.6,0.2-1.9-0.4-1.9,0.7
	c-0.1,1.1,0,1.2,0.3,2c0.3,0.8,0.5,2.4,0.8,3.5c0.3,1.1,0.5,1.7,0.6,2.1c0.1,0.4,1.1,2.8,1,3.4c0,0.6,0.4,2.9,0.4,2.9s0.7,0.8,1,0.9
	s1.1,0.1,1.3,0.4S44.8,37.5,44.8,37.5z"/>
<path class="st11" d="M46.6,37.8c0.1-0.1,2.8-7.7,3.2-8.7c0.1-0.2,0.3-0.7,0.6-1.4c1.2-2.7,3.6-8.1,3.7-8.5c0.1-0.5,2.1-5.1,2.1-5.1
	s-0.8,3.2-1.1,3.8c-0.2,0.6-5.6,13.2-5.6,13.2c0,0,1.1-2.9,1.9-3.8c0.8-0.9,3-3.7,3.4-5.2s0.4-2.8,0.5-3.3s1.2-0.8,1.3-0.4
	s0.4,0.3,0.6-0.1s0.5-1,0.6-0.5c0.1,0.5-0.5,1.6-1.2,2.7s-1.9,2.8-2.1,4.6s0.1,2.5,0.1,2.5s0.4,0.6,0.6,0.9s1.1-0.8,1.8-1.1
	c0.6-0.3,0.9,0.9-0.3,1.5c-1.2,0.5-1.5,0.4-2.5,1.3s-2.8,3.3-3.5,4.4c-0.6,1.1-1.7,3.4-1.8,3.5c-0.1,0.2-0.9,0.8-1.1,0.8
	s-0.1,0-0.6-0.3C46.8,38.4,46.6,37.8,46.6,37.8z"/>
<path class="st13" d="M50.6,38.4c0.3-0.5,3.2-6,3.6-6.8c0.5-0.8,1.7-2.9,2.9-3s2.8-0.1,2.7-0.6c-0.1-0.5,1.5-0.1,1.7-0.6
	s2.1-2.9,2.5-3c0.4-0.1,1.4,0.3,1.4,0.6c0,0.3,0.5,1-0.5,1.6c-1,0.6-1.4,0.7-2.1,1.6s-0.7,1.1-1.5,2.1s-0.9,1.7-0.8,2
	c0.2,0.3,0.7,0.9,2.2,1c1.5,0.1,3.3,0.2,3.8-0.3c0.5-0.5,1.2-0.9,1.9-1.1c0.8-0.2,0.5,0.5,1.1,0.2c0.6-0.3,1.3-0.9,1.5-0.6
	c0.2,0.3,1.2,0.2,0,0.6c-1.2,0.4-0.6,0.8-2.2,1.9c-1.6,1.2-1.9,1.6-3.6,1.4s-2.9-0.9-4.2-0.4c-1.2,0.5-2,0.3-3.5,1.3
	c-1.5,1-2.4,1.8-3.7,2.7c-1.3,0.9-3.1,1.5-3.1,1.5s-0.4-0.8-0.3-1C50.7,39.2,50.6,38.4,50.6,38.4z"/>
<path class="st11" d="M49.1,42.2c0.3-0.2,8-6.3,8.8-6.4c0.8-0.1,5.1-1,5.7-0.8c0.6,0.1,3.6,0.3,4,0c0.4-0.3,2.3-0.9,2.3-0.9
	s-1.8,1.9-3.3,1.6c-1.5-0.4-2.6-0.4-3.5,0.1c-0.9,0.5-1.2,0.8-1.4,1.1c-0.2,0.3-2,1.3-0.1,0.8c1.9-0.4,6.1-2.1,7.1-2.3
	c1-0.2,4.2-0.9,5.2-0.9c1,0,2.8,0.2,2.7,0.4c-0.1,0.2-0.5,0.6-1.9,0.5c-1.4-0.1-6.3,1-7.6,1.7s-2.1,1.7-2.2,1.7
	c-0.1,0-0.8,0.3,0.9,0.7c1.8,0.4,3.5,0.6,4.4,0.6c0.8,0,1.5-0.3,1.8,0.5c0.3,0.8,0.8,1.1,1.2,1.3s0.7,0.7,0.5,0.9
	c-0.2,0.2-0.6,0.6-1.5,0.5s-2.5,0.1-4.2-0.5c-1.6-0.6-2.5-0.9-4-1.2c-1.5-0.2-5-0.2-6.1,0.5s-3.5,1.5-4.1,1.8
	c-0.6,0.2-1.7,0.8-2.1,0.9c-0.4,0.1-1.5,0.2-1.7,0s-0.8-0.4-0.9-0.7S49.1,42.2,49.1,42.2z"/>
<path class="st13" d="M59.5,44.6c0.3-0.1,4.2-0.9,4.8-0.5c0.6,0.4,1.5,1.7,2.4,2.1c0.8,0.4,2.6,0.7,2.1-0.4s0-1.7,0.4-0.8
	c0.4,1-0.1,2,0,2.1s-0.1,0.2,0.6,1c0.6,0.8,2.7,1.4,2,2.3c-0.8,0.8-0.2,1.7-1.6,0.3c-1.5-1.4-2.5-2-3.8-2.4
	c-1.4-0.4-3.1-0.6-3.4-0.6c-0.3,0,0.5,2.7,0.5,2.7s1.6,1.4,2.1,1.6s3.2,1.9,3.5,2.7c0.4,0.8-0.4,1.5-0.4,1.5s0.1,1.4-0.9,0.8
	s-2.5-1.7-3.2-2.5c-0.7-0.8-2.4-2.3-2.9-2.3s-1.9,0.3-2.3,0.4c-0.4,0.1-0.6,0.3-1.3,0c-0.7-0.3-0.9-0.8-1.2-1.4s-1.4-0.4-1.4-1.3
	c0.1-0.9-0.4-1.5,0-2.1c0.4-0.6,1.5-0.6,1.8-1.2s0.5-2,0.7-2.1c0.2-0.1,0.2,0.1,0.5-0.1C58.8,44.3,59.5,44.6,59.5,44.6z"/>
<path class="st11" d="M44.5,43.4c0.3-0.1,2.3-1.2,3.4-1.2c1.1,0,2.3-1,3-1.1c0.6-0.1,1.2,0.7,0.5,1.4c-0.6,0.8-1.4,1.5-1.2,1.5
	c0.2,0,2.9-0.2,3.6-0.4c0.7-0.3,3.4-0.6,4.1-0.6c0.6-0.1,1.5-0.3,2-0.4c0.5-0.1,0.9-1,1.6-0.4c0.8,0.5,1.6,0.3,1.3,1.1
	c-0.3,0.9,0.3,1.3-1.6,1.3c-2,0-3,0.4-2.5,0.9c0.5,0.5,1,0.5,1.3,1.2c0.3,0.8,2,2.5,0.1,1.6c-1.9-0.9-2.9-2-2.5-0.8
	c0.4,1.2,1.2,1.8,1.5,2.1c0.3,0.3,1.2,1.2-0.1,0.9s-1.8-0.5-2.4-1.3c-0.6-0.8-0.8-1.1-1.5-1.7s-1.7-1.4-1.5-0.5s0.7-0.3,0.9,1.6
	c0.2,1.9,0.8,2.8,0.6,3.1c-0.2,0.3-1,0.7-1.5,0c-0.5-0.7-1.9-2.2-1.4-0.8c0.4,1.4,1.7,1.8,2.4,1.9c0.7,0.2,0.8-1.1,2.3,0
	s1.8,0.8,2.8,1.5c0.9,0.7,3.9,3.6,4.4,3.9c0.5,0.3,2.1,1.2,2.3,1.7c0.2,0.5,0.3,1.1,0,1.4s-0.6,0.7,0.2,1.4c0.8,0.6,1.6,0.8,1.3,1.4
	c-0.3,0.6-0.1,1.7-0.9,0.6c-0.8-1.1-0.8-1.8-1.3-2.1c-0.5-0.2-0.1,1.1-1.6,0.4c-1.6-0.6-3.6-2.8-4.1-3.6S58.2,57,58.2,57
	s0.6,2.6,0,1.8s-2.5-3-4-4.2s-3.5-2.3-3.9-2.9c-0.4-0.6-1.5-2.8-2.5-3.3s-1.2,0.1-2-0.6c-0.8-0.7-1.1-1.1-1.2-1.4
	C44.5,46,44.5,43.4,44.5,43.4z"/>
<path class="st14" d="M44.5,50c0.2,0.1,2.1,0.9,2.1,1.8c0,0.9,1.1,1.4,2.3,1.6c1.3,0.3,2.4,1,3.3,2.1c0.9,1.1,3.7,4.2,4,4.9
	c0.3,0.8,1,2.2,0.3,2.2c-0.6,0.1-1,0.5-1.8-1.4c-0.8-1.9-0.9-2.2-1.8-3.1c-0.9-0.9-2-2-2-1.3s0.9,2.8,1.3,3.5
	c0.3,0.7,2.3,3.9,2.5,4.6c0.2,0.7,2.1,2.9,2.1,3.7s-0.1,2.2-0.6,1.6c-0.5-0.6-1.5-2.2-2.1-3.1c-0.5-0.8-2-3.6-2.4-4.5
	c-0.5-0.9-0.6-1-1.1-1.8c-0.5-0.8-1.2-0.4-1,0c0.2,0.4,1.7,3.1,1.6,3.7s-0.3,0.6-0.4,1.2c-0.1,0.5-0.4,1.1,0.5,2.2
	c0.9,1.1,1.6,2.4,1.8,3.1c0.1,0.7,0.2,1.5-0.5,0.9c-0.7-0.6-2.7-2.7-3-3.5c-0.4-0.8-1.8-2.2-2.2-3.5c-0.5-1.3-0.9-2.4-1.5-3.4
	c-0.6-0.9-0.7-1.6-1.1-1.7c-0.4-0.1-0.1,1.5,0.5,2.4c0.6,0.9,1.1,2.5,1.3,3.9c0.2,1.4,0.7,2.2-0.3,1.8c-1-0.4-2.5-3.1-2.8-4.4
	c-0.3-1.3,1.3-2-0.5-3.8s-1.7-0.9-1.7-2.8s0.3-2.4,1-3.1s0.9-1.2,0.7-2.1s0.1-1,0.3-1.4C43.4,50,44.5,50,44.5,50z"/>
<path class="st11" d="M39.4,47.9c0.8-0.2,1.8-0.4,2.1,0.8s0.1,3.1-0.2,3.6c-0.3,0.5-1,3.2-1.1,4.5s0.2,3.5-0.7,5.2s-0.5,2.8-1.2,2.2
	c-0.7-0.6-0.9-1.4-1.2-2.1s-0.7-1.1-0.8-0.2c-0.1,0.8-0.7,2.9-0.7,4.2c0,1.4-0.1,2.5-0.6,2.5c-0.5,0.1-0.5-2.6-0.5-3.9
	c-0.1-1.4,0-3.9,0-4.2c0-0.2-1.2-2.5-0.5-4s1.6-2.4,2.4-3.6c0.8-1.2,1.4-2.1,1.4-2.8C37.6,49.3,39.4,47.9,39.4,47.9z"/>
<path class="st11" d="M29.8,52.3c-0.6,0.2-4.7,4-5,4.9c-0.3,0.9-0.2,2.2,0,1.9s0.9-0.9,1.6-1.5c0.7-0.5,0.4,0.2-0.3,1.5
	c-0.7,1.3-1.9,3.7-2.2,4.7c-0.4,1-0.5,2.7,0,2.3c0.5-0.4,2-5.5,3.2-6.4c1.2-0.9,3.4-1.5,3.8-1.9c0.4-0.4,1.3-1.2,1.4-2.2
	c0.1-1.1,0.6-1.4,0-1.9c-0.6-0.5-0.9-1.3-0.9-1.4c0.1-0.1,1.1-1.1,1.5-1.4c0.4-0.4,0.8-1,0.4-0.9s-1.3,0.6-2,1.2
	C30.5,51.8,29.8,52.3,29.8,52.3z"/>
<path class="st15" d="M35.5,48.5c-0.9,0.3-3,2.6-3.8,3.2c-0.8,0.6-1.8,1.8-1.6,2.1c0.2,0.4,1.6,0.6,1.6,0.6s-0.4,1.2-0.5,1.8
	s-1,5.5-1.2,6.3c-0.2,0.8-0.2,2.6-0.2,2.6s1,1,1,1.2s0.5,0.6,0.5,0.6s0.5-3.8,1.3-5c0.8-1.2,2.9-5.7,3.5-6.7c0.6-1,1.5-1.8,1.7-3.4
	c0.2-1.6,0.2-2.8-0.3-3.1c-0.4-0.3-0.4,0-0.9-0.2C36.2,48.3,35.5,48.5,35.5,48.5z"/>
<path class="st13" d="M35.2,42.1c0-0.1-0.1-0.2-0.1-0.3c-0.5-1.5-2.6-6.8-3.8-8.1c-1.3-1.5-3.6-4.5-4.2-5.4
	c-0.6-0.8-0.8-0.9-0.6-1.9c0.2-0.9,0.4-1.8-0.5-2.7c-0.9-0.9-1.2-1.3-2.3-2.1s-0.6-0.2,0,0.9c0.6,1.2,1.2,1.6,1.4,2.1
	s0.9,2.1-0.1,0.9c-1.1-1.2-1.2-2-2.3-2.6c-1.1-0.6-1.6-0.1-2.5-1c-0.8-0.9-2.4-2.8-1.5-1.4c0.9,1.4,3.6,4.2,4.1,5
	c0.5,0.8,1.8,2,1.9,2.4s1.1,0.9,0.8,1.4c-0.4,0.6-0.5,1.7-1.7,0.6c-1.2-1-2.2-2-3.5-2.6c-1.4-0.6-2.6-1.8-3.2-2.2
	c-0.5-0.4-0.9-1.6-1.6-1.6c-0.7,0-1.7-0.1-0.8,0.9s0.6,0.8,1.9,1.7c1.3,0.9,1.5,0.7,2.2,1.6s1.2,1.2,1.4,1.9c0.2,0.6,1.7,1.4,1,1.6
	s-0.7,0-1.7-0.4c-1-0.3-2.1-1.2-2.5-0.7c-0.5,0.5-0.4,1.3-0.8,1.1S15,31,14.4,30.9c-0.6-0.1-0.9,0-0.4,0.3c0.5,0.3,1.3,0.6,1.9,0.8
	c0.6,0.3,0.2,0.6,0.4,0.8c0.2,0.2,0.2,0.1,0.7,0c0.5-0.1,1.8,0.4,2.3,0.8c0.5,0.4,2.4,1,2.6,1.7c0.2,0.7,1.2,2,2.1,2.5
	c0.9,0.5,3.5,2.2,3.6,2.1c0.2-0.2,0.4,0.2,1.1,1.2c0.7,1-0.2,1,2.1,2c2.3,1,3.1,1.1,3.6,1.5s1.3,1.4,1.1,0.4c-0.2-1-0.4-1-1.1-1.9
	s-0.4-0.7-1.1-1.4c-0.6-0.7-1.8-2.1-1.3-1.8s2.2,1.1,2.5,1.9c0.3,0.8,0.7,1.5,1,1.6c0.3,0.1,0.5,0.5,0.7,0"/>
<path class="st11" d="M37.2,46.9c-0.5-0.4-5.8-3.4-6.7-3.9c-1-0.5-2.6-1.1-3.5-1.9c-0.9-0.8-1-1.7-2.7-2.2c-1.7-0.5-1.8-0.8-3.4,0
	c-1.6,0.8-3,1.9-4.5,2.2c-1.5,0.3-2.6,0.8-3.6,0.7c-1-0.1-2-0.1-2.5,0.4c-0.5,0.5-0.8,1.1-1.8,1.3S6.4,44,7.8,44
	c1.5,0.1,4.1-0.3,5.1-0.4s1.1-0.3,2.7-0.4c1.6-0.1,3.2,0.1,3.5,0.3c0.4,0.2,1.3-0.2,0.6,0.4c-0.7,0.7-2.2,0.9-3.3,1.9
	c-1.1,1.1-2.3,2-3.1,2.4c-0.8,0.5-1.1,0.8-2.2,1.2s-3.4,1.6-3.4,1.6s-0.6,0.8,0.7,0.3c1.3-0.5,2.9-0.7,3.1-0.4s0.1,0.8,1.5,0.2
	s4.2-2.5,5.4-2.8c1.2-0.3,2.5-1.3,2.4-0.6c-0.1,0.7-0.1,0.4,1.6,0c1.7-0.4,2.4-1,3.4-1c1-0.1,2.9,0.2,3.9,0c1-0.2,3-0.8,3.8-0.5
	c0.8,0.2,0.9,1,1.6,1.2c0.7,0.2,0.9,0.5,1.3,0.4s2.2,0.4,1.1-0.7"/>
<path class="st16" d="M35.5,47.8c-1.4-0.8-0.6-1.5-4.7-1.3s-8.5,1.7-8.9,1.9c-0.5,0.2-1.6,0.3-2.1,0.3c-0.5,0-0.4-0.3-1.1,0.7
	c-0.7,1-1.3,1.4-1.6,1.6s-1.2,1,0,0.6c1.2-0.4,0.9-0.5,1.8-1.2c0.9-0.7,2-1.3,1.9-0.7c-0.1,0.6-0.5,1.4,0.8,0.7s2-1.4,3-1.3
	s1.9-0.9,1.5,0c-0.4,0.9-1.9,3.2-3.4,4c-1.5,0.8-4.4,3-4.5,3.8c-0.2,0.8-0.7,1.7-1.2,2.2c-0.5,0.5-1.9,1.5-0.7,1.3s1.9-1.7,2.6-1.6
	c0.7,0.1,0.2,1.8,1.6-0.4c1.4-2.2,5.4-3.4,6.2-4.1c0.8-0.7,2.6-1.5,3.3-2.1c0.7-0.5,2.7-1.5,3-1.9c0.4-0.4,1.5-0.7,1.7-1.3
	C34.8,48.5,35.5,47.8,35.5,47.8z"/>
<path class="st17" d="M42.9,45c0,0.2,0.4,0.7,1.2,1.2c0.7,0.5,0.9,1.2,0.4,1.6s-1,0.4-1.3-0.2c-0.3-0.6-0.6-0.5-0.9-0.3
	c-0.3,0.2-0.5-0.1-0.8-0.8c-0.4-0.7-0.4-0.6-0.2-1c0.2-0.4,0.1-1.1,0.4-0.8S42.9,45,42.9,45z"/>
<path class="st11" d="M40.4,42c-0.2-0.6-0.1-1.7,0.2-1.7c0.4,0,0.2,1.2,0.5,1.2s-0.1-0.7,0.7-0.9s1.3-0.2,1.4,0.1
	c0.1,0.3,0.5,0.7,0.9,0.4s1.1-0.4,1.2,0s0.5-0.2,0.8,0c0.2,0.2,0,1.3,0,1.4c0,0.2-1.5-0.6-1.9-0.8c-0.4-0.2-0.5-0.2-1.2-0.1
	s-1.1,0.8-1.3,0.5s0-0.2-0.5-0.1C40.6,42.3,40.4,42,40.4,42z"/>
<path class="st11" d="M38,46.3c0.3,0.1,1.7-0.1,1.7,0.5c0,0.6-1.1,1-1.2,1.3c-0.1,0.2-1,0.6-1.3,0.3c-0.2-0.2-1.2-0.2-1.3-0.8
	c-0.1-0.5-0.5-0.5,0-0.9c0.5-0.4,0.5-0.7,0.9-0.3C37.2,46.9,38,46.3,38,46.3z"/>
<path class="st9" d="M82.3,69.1c0,0-0.4-1.4,0.3-1.9c0.6-0.6,0.7-0.8,1.2-1c0.5-0.2,0.9-0.8,0.9-0.8s0.6,0,0.7-0.4
	c0.1-0.5,0-0.6-0.2-1.1c-0.1-0.5-0.3-0.8-0.2-1.4c0.1-0.5,0.3-0.8-0.4-1.2s-1.6-0.5-1.7-1.5c-0.1-1-0.2-1.5-0.3-1.9
	c-0.2-0.4,0.6-1.5-0.9-0.8c-1.6,0.7-2.6,1.5-3.1,1.7c-0.5,0.1-0.7,0.5-1.3,0.2c-0.7-0.3,0.1,0.4-2-0.8c-2.2-1.2-1.3-1.1-2.7-0.8
	c-1.4,0.3-2.6,0.6-1.9,2.2c0.8,1.5,1.1,1.6,0.7,2.6c-0.5,1-1.1,0.5-1.2,2.2s-1.9,0.3,0.1,3c2.1,2.7,1.2,1.1,2.7,3.2
	c1.5,2.1,1.2,2.1,2.3,2.4c1.2,0.3,0.7,0.7,1.9,0s0.9-0.9,1.8-0.9c0.9,0,1-0.3,1.5-0.7c0.5-0.4,0.7-0.9,1-1.2
	C81.8,69.7,82.3,69.1,82.3,69.1z"/>
<path class="st10" d="M79.6,66.7c0,0-0.4-1.4,0.3-1.9c0.6-0.6,0.7-0.8,1.2-1s0.9-0.8,0.9-0.8s0.6,0,0.7-0.4c0.1-0.5,0-0.6-0.2-1.1
	s-0.3-0.8-0.2-1.4c0.1-0.5,0.3-0.8-0.4-1.2s-1.6-0.5-1.7-1.5c-0.1-1-0.2-1.5-0.3-1.9s0.6-1.5-0.9-0.8s-2.6,1.5-3.1,1.7
	c-0.5,0.1-0.7,0.5-1.3,0.2c-0.7-0.3,0.1,0.4-2-0.8c-2.2-1.2-1.3-1.1-2.7-0.8c-1.4,0.3-2.6,0.6-1.9,2.2c0.8,1.5,1.1,1.6,0.7,2.6
	c-0.5,1-1.1,0.5-1.2,2.2s-1.9,0.3,0.1,3c2.1,2.7,1.2,1.1,2.7,3.2c1.5,2.1,1.2,2.1,2.3,2.4c1.2,0.3,0.7,0.7,1.9,0
	c1.2-0.7,0.9-0.9,1.8-0.9c0.9,0,1-0.3,1.5-0.7c0.5-0.4,0.7-0.9,1-1.2C79.1,67.4,79.6,66.7,79.6,66.7z"/>
<path class="st11" d="M80.3,63.2c0.7,0.5,10.2,3.4,11.9,3.5c1.7,0.1,5-0.5,6,0.2c1,0.7,2.5,0.5,3,0.5c0.5,0,0.9-0.3-0.2-0.6
	c-1.1-0.2-3.5-1-4.6-1.1c-1-0.1-5-2.3-6.4-2.5s-4.3-0.1-5-0.2s-3-0.3-3.4-0.4c-0.4-0.1-0.4,0-0.9-0.1C80.3,62.6,80.3,63.2,80.3,63.2
	z"/>
<path class="st12" d="M78.7,63.1c0.4,0.5,2.8,2.6,3.2,3.2s1.6,1.8,2.2,2.6c0.6,0.8,0.6,1.8,1.1,1.6s0.2-0.9,0-1.7
	c-0.2-0.8-0.5-2.3-0.8-3c-0.3-0.7,0-1.4-1-1.8c-1-0.5-2.3-1.5-2.6-1.3s-0.9,0.1-1,0s-1.1-0.1-1.1-0.1L78.7,63.1z"/>
<path class="st11" d="M85,67.9c0.7,0.3,2.7,1.7,4.4,1.7c1.6,0.1,2.7-0.2,3.5-0.3c0.7-0.2,1.5-0.3,1.3-0.6s-1.3-0.4-2.1-0.6
	c-0.9-0.2-1.7-1-2.1-1.3c-0.3-0.2,0.1-0.2-1.3-0.1s-1.8-0.3-2.3-0.3c-0.5,0-1.5-0.2-1.5-0.2s0-0.2-0.2,0.4
	C84.6,67.3,85,67.9,85,67.9z"/>
<path class="st11" d="M82.6,67.7c-0.3,0.1-2.7,1.1-3.2,1.4c-0.5,0.3-2.1,1.6-2.7,2.2c-0.7,0.6-1.2,1.4-1.4,0.8
	c-0.1-0.6-0.6-2,0.9-2.6c1.5-0.7,2.3-1.3,3-2.4c0.7-1.1,1-1.7,1.4-1.8s0.7,0.3,1,0.6c0.3,0.3,1.2,0.6,1.2,1
	C82.7,67.3,82.6,67.7,82.6,67.7z"/>
<path class="st11" d="M79.9,69.3c0.4,0.5,3.2,4.5,3.5,5s0.8,2.1,2,2.9c1.2,0.9,2,0.2,2.1,0.9c0.1,0.8,0.4,1.6,0.5,1.2s0-1.1,0.7-0.7
	c0.7,0.3,2.3,2.5,2.8,3c0.5,0.5,1.2,0.7,1.7,1s1.4,1,1.3,0.8c0-0.2-2.1-1.6-2.9-2.6c-0.7-0.9-2.4-2.4-2.5-2.8
	c-0.1-0.4-0.3-1.3-0.4-1.6c-0.1-0.3,0-1,0-1.3s-0.7-1,0-0.6s2.7,1.4,3.6,2.3s1.5,1.7,2.3,2.4c0.8,0.7,1.7,1.1,1.7,1.1
	s-1.7-2.3-2.1-2.6c-0.4-0.3-1.4-1.1-2-1.7c-0.6-0.6-1.4-0.6-1.2-1c0.2-0.5,1.1-0.9,0.5-1.5c-0.6-0.6-0.7-0.6-1.3-0.9
	c-0.6-0.2-1.6-0.9-2.4-1.3c-0.8-0.3-1.2-0.6-1.5-0.7c-0.2-0.1-2.2-0.8-2.5-1.1c-0.3-0.3-1.9-1.3-1.9-1.3s-0.8,0-1,0.1
	c-0.2,0.1-0.6,0.6-0.8,0.5S79.9,69.3,79.9,69.3z"/>
<path class="st11" d="M78.8,70.2c0,0.1,3.1,5.5,3.5,6.2c0.1,0.2,0.3,0.6,0.5,1.1c1,2.1,2.9,6.1,3.1,6.4c0.3,0.3,1.9,3.7,1.9,3.7
	s-1.4-2.1-1.7-2.5s-4.9-9.9-4.9-9.9s1.1,2.1,1.2,3c0.1,0.9,0.7,3.6,1.3,4.6c0.6,1,1.4,1.7,1.6,2s-0.1,1.1-0.4,0.9
	c-0.3-0.2-0.4,0.1-0.3,0.4s0.3,0.8,0,0.6c-0.3-0.2-0.7-1.1-1-2.1c-0.3-1-0.7-2.5-1.6-3.5c-0.9-1-1.5-1.2-1.5-1.2s-0.5-0.1-0.8-0.1
	c-0.3,0-0.1,1-0.3,1.5s-1,0-0.7-0.9c0.3-0.9,0.5-1,0.5-2c0-1-0.5-3.3-0.8-4.2s-1.1-2.7-1.2-2.8c-0.1-0.1,0-0.9,0.1-1s0.1,0,0.4-0.2
	C78.3,70,78.8,70.2,78.8,70.2z"/>
<path class="st13" d="M76.5,72.2c0.2,0.4,1.9,4.8,2.1,5.5s0.8,2.4,0.3,3.2c-0.5,0.8-1.3,1.6-1,1.8c0.3,0.2-0.7,0.9-0.5,1.3
	c0.2,0.4,0.7,2.6,0.5,2.9c-0.2,0.3-0.8,0.6-1,0.5s-0.8-0.2-0.7-1.1s0.3-1.2,0.1-2s-0.3-1-0.5-2c-0.2-1-0.5-1.4-0.8-1.5
	c-0.3,0-0.9,0-1.7,0.7c-0.8,0.8-1.7,1.8-1.7,2.3c0,0.5,0,1.1-0.3,1.7c-0.3,0.5-0.5,0-0.6,0.5s-0.1,1.2-0.4,1.2
	c-0.3,0-0.7,0.6-0.3-0.3c0.3-0.9-0.2-0.7-0.1-2.2s0-1.9,1-2.7c0.9-0.8,2-1.2,2.3-2.2s0.8-1.3,1-2.6c0.1-1.3,0.2-2.3,0.3-3.5
	c0.1-1.2,0.7-2.5,0.7-2.5s0.6,0.2,0.7,0.3S76.5,72.2,76.5,72.2z"/>
<path class="st11" d="M75,69.4c0,0.3-0.3,7.7-0.6,8.2c-0.3,0.5-1.9,3.4-2.3,3.6c-0.4,0.3-1.9,1.9-2,2.3c0,0.4-0.6,1.8-0.6,1.8
	s-0.3-2,0.7-2.7c1-0.7,1.5-1.3,1.6-2c0.2-0.7,0.2-1.1,0.1-1.3c-0.1-0.2,0.3-1.8-0.4-0.5c-0.7,1.3-1.8,4.5-2.2,5.2
	c-0.4,0.7-1.6,2.8-2.1,3.4c-0.5,0.6-1.5,1.5-1.6,1.3c0-0.2-0.1-0.6,0.7-1.3c0.8-0.7,2.6-4,2.8-5.1s0.1-2,0.1-2.1
	c0-0.1,0.2-0.6-0.8,0.2c-1.1,0.8-2.1,1.7-2.5,2.2c-0.4,0.5-0.6,1-1.2,0.8c-0.6-0.2-1.1-0.1-1.3,0s-0.8,0-0.7-0.2
	c0-0.2-0.1-0.6,0.4-1.1c0.5-0.5,1.2-1.5,2.4-2.1c1.2-0.6,1.8-0.9,2.7-1.7c0.9-0.7,2.6-2.8,2.7-3.7s0.8-2.7,1-3.2
	c0.2-0.5,0.4-1.4,0.5-1.6c0.1-0.3,0.6-0.9,0.9-1c0.2-0.1,0.6-0.2,0.9-0.2C74.4,68.6,75,69.4,75,69.4z"/>
<path class="st13" d="M68.5,74c-0.1,0.2-1.6,2.8-2.1,3c-0.5,0.2-1.7,0-2.4,0.3c-0.6,0.3-1.7,1.1-0.8,1.4c0.9,0.2,1,0.9,0.3,0.6
	c-0.8-0.3-1.1-1-1.2-1.1s-0.1-0.2-0.9-0.2c-0.8,0-2.2,0.8-2.3,0s-0.9-0.9,0.7-1.1c1.5-0.1,2.4-0.4,3.3-1c0.9-0.6,1.9-1.4,2-1.6
	c0.1-0.2-1.8-1.1-1.8-1.1s-1.6,0.2-2,0.3c-0.4,0.1-2.7,0.8-3.3,0.6c-0.6-0.2-0.7-1-0.7-1s-0.8-0.6,0-0.9s2.2-0.6,3-0.6
	s2.5-0.2,2.8-0.5c0.3-0.3,0.8-1.2,0.9-1.5s0.1-0.5,0.6-0.7c0.5-0.2,0.9-0.1,1.4,0s0.9-0.6,1.4-0.1s1.1,0.5,1.2,1
	c0.1,0.5-0.4,1.2-0.2,1.7c0.2,0.5,0.9,1.3,0.9,1.5c0,0.1-0.1,0-0.2,0.4C69,73.8,68.5,74,68.5,74z"/>
<path class="st11" d="M76.6,66.2c-0.1,0.2-0.4,1.9-1,2.6C75,69.4,75,70.6,74.7,71c-0.3,0.4-1,0.3-1.1-0.4c-0.1-0.8-0.2-1.6-0.3-1.5
	c-0.1,0.1-1.3,1.7-1.5,2.2s-1.3,2.2-1.6,2.6c-0.3,0.4-0.6,1-0.8,1.3s0.1,1-0.6,1.2c-0.7,0.2-0.9,0.8-1.3,0.2
	c-0.4-0.6-0.9-0.5,0.1-1.6c1-1.1,1.2-1.9,0.7-1.9c-0.5,0-0.8,0.3-1.4,0.1c-0.6-0.2-2.4-0.1-1-0.7s2.6-0.6,1.7-1
	c-0.9-0.4-1.6-0.2-1.9-0.2c-0.3,0-1.3,0.1-0.5-0.5c0.8-0.6,1.2-0.7,1.9-0.7c0.7,0.1,1,0.1,1.7,0s1.6-0.3,1-0.6s-0.2,0.5-1.4-0.3
	c-1.2-0.9-2-1-2.1-1.2c-0.1-0.3,0.1-0.9,0.7-0.8s2.2,0.1,1.2-0.4c-1-0.5-1.9,0.1-2.3,0.4c-0.5,0.3,0.3,1-1.1,1.3
	c-1.4,0.3-1.3,0.6-2.2,0.8s-4,0.3-4.5,0.5c-0.4,0.2-1.7,0.5-2.1,0.4c-0.4-0.1-0.8-0.4-0.8-0.7c0-0.3-0.1-0.7-0.9-0.6
	c-0.8,0.1-1.2,0.5-1.4,0c-0.2-0.5-0.9-0.9,0.1-0.9c1,0.1,1.5,0.5,1.8,0.3c0.4-0.1-0.6-0.6,0.6-1.1s3.4-0.7,4.1-0.5S62,67,62,67
	s-1.8-1-1-0.9c0.8,0.1,3,0.1,4.4-0.1c1.5-0.2,3.1-0.8,3.7-0.7c0.6,0.1,2.4,0.5,3.2,0.2c0.8-0.3,0.6-0.7,1.4-0.8
	c0.8-0.1,1.2-0.1,1.4,0C75.1,64.9,76.6,66.2,76.6,66.2z"/>
<path class="st14" d="M72.7,62.8c-0.2,0.1-1.6,0.7-2.1,0.3s-1.3-0.1-2.1,0.5c-0.8,0.6-1.8,0.9-2.8,0.8c-1-0.1-4.2-0.1-4.8-0.3
	c-0.6-0.2-1.7-0.5-1.5-0.9c0.3-0.4,0.2-0.8,1.7-0.3c1.5,0.5,1.7,0.6,2.7,0.6s2.1-0.1,1.7-0.5s-2.1-0.9-2.7-1.1
	c-0.6-0.2-3.4-0.7-3.9-0.9c-0.5-0.2-2.7-0.3-3.2-0.7s-1.2-1.2-0.6-1.2c0.6,0,2.1,0.3,2.8,0.4s3.1,0.7,3.8,0.9
	c0.8,0.2,0.9,0.2,1.6,0.3c0.7,0.1,0.9-0.5,0.5-0.6s-2.6-0.6-3-0.9c-0.3-0.3-0.2-0.5-0.5-0.8c-0.3-0.3-0.5-0.8-1.5-0.8
	c-1.1,0-2.2-0.3-2.7-0.6c-0.5-0.3-1-0.6-0.3-0.8s2.9-0.1,3.5,0c0.6,0.2,2.1,0.1,3.1,0.5c1,0.4,1.9,0.7,2.7,0.8
	c0.9,0.1,1.3,0.4,1.5,0.2s-0.8-0.8-1.6-0.9c-0.8-0.1-2-0.7-2.9-1.2c-0.9-0.6-1.6-0.7-0.9-1.1s3.1,0.2,4,0.6c0.9,0.5,0.5,1.7,2.5,1.6
	c2-0.1,1.4-0.5,2.5,0.4c1.1,0.9,1.2,1.4,1.3,2.1c0.1,0.7,0.3,1.2,0.8,1.4c0.6,0.3,0.5,0.6,0.7,0.9C73.3,62.2,72.7,62.8,72.7,62.8z"
	/>
<path class="st11" d="M76.5,61c-0.3,0.5-0.7,1.2-1.5,0.8c-0.8-0.5-1.8-1.6-2-1.9s-1.3-2.2-2.1-2.9c-0.7-0.8-2.1-1.7-2.7-3
	s-1.4-1.7-0.7-1.8c0.7-0.1,1.3,0.2,1.8,0.3c0.5,0.2,1,0.1,0.5-0.3c-0.4-0.5-1.3-1.9-2.1-2.5s-1.4-1.3-1.2-1.6c0.2-0.3,1.7,1,2.5,1.7
	c0.8,0.7,2.3,2,2.4,2.1c0.1,0.1,2,0.6,2.6,1.7s0.6,2.1,0.9,3.2c0.3,1.1,0.5,1.9,0.9,2.2C76.6,59.3,76.5,61,76.5,61z"/>
<path class="st11" d="M78.7,53.4c0.2-0.4,0-4.7-0.4-5.3s-1.2-1.3-1.1-1c0.1,0.3,0.1,1,0.1,1.6c0,0.7-0.3,0.1-0.7-0.9
	c-0.4-1.1-1.2-2.9-1.6-3.6c-0.4-0.7-1.3-1.6-1.3-1.2c0,0.5,2.2,3.9,2.1,5c-0.1,1.1-0.8,2.7-0.8,3.1c0,0.4,0,1.3,0.6,1.9
	c0.6,0.6,0.5,1.1,1.1,1s1.2,0.1,1.3,0.2c0,0.1,0.1,1.2,0.1,1.5c0,0.4,0.2,0.9,0.3,0.6c0.1-0.3,0.3-1,0.3-1.7
	C78.6,54,78.7,53.4,78.7,53.4z"/>
<path class="st15" d="M78.1,58.5c0.3-0.7,0-3,0-3.8c0-0.8-0.1-1.9-0.4-2c-0.3,0-1.1,0.6-1.1,0.6s-0.5-0.9-0.8-1.2
	c-0.3-0.3-2.7-3.3-3.1-3.8c-0.3-0.5-1.4-1.4-1.4-1.4s-1.1,0-1.2,0c-0.1,0-0.6,0-0.6,0s2,2.2,2.3,3.3s1.9,4.6,2.1,5.4
	c0.3,0.8,0.3,1.8,1.1,2.7s1.5,1.5,1.9,1.4c0.4-0.1,0.2-0.2,0.6-0.4C77.8,59.1,78.1,58.5,78.1,58.5z"/>
<path class="st13" d="M81.9,61.6c0,0,0.1,0,0.2,0.1c1.1,0.5,5.2,1.9,6.6,2c1.5,0,4.4,0.3,5.2,0.4c0.8,0.1,1,0,1.4,0.6
	c0.4,0.6,0.8,1.1,1.8,1.1c1,0,1.3,0,2.4-0.2s0.4-0.2-0.5-0.5c-1-0.3-1.5-0.1-1.9-0.3c-0.4-0.2-1.7-0.5-0.5-0.5c1.2,0,1.7,0.3,2.6,0
	c0.9-0.3,0.8-0.9,1.8-0.9c1,0,2.8,0,1.5-0.2s-4.3-0.1-4.9-0.2s-2.1,0-2.4-0.1c-0.3-0.1-1.1,0.2-1.2-0.3c-0.1-0.5-0.7-1.1,0.5-1.3
	c1.2-0.1,2.3-0.2,3.3-0.7c1-0.5,2.3-0.6,2.8-0.7c0.5-0.1,1.3,0.3,1.7-0.1c0.4-0.4,0.9-0.9-0.2-0.9c-1.1,0-0.8-0.1-2,0.2
	s-1.2,0.5-2,0.4c-0.8,0-1.3,0.1-1.8-0.2c-0.5-0.2-1.6,0.3-1.4-0.2c0.2-0.5,0.4-0.4,1.1-0.8c0.7-0.4,1.7-0.6,1.6-1.1
	c0-0.5-0.6-0.9-0.2-1c0.4-0.1,0.9-0.4,1.3-0.7s0.4-0.5,0-0.4c-0.4,0.1-1,0.5-1.5,0.7c-0.5,0.2-0.4-0.2-0.7-0.2
	c-0.2,0-0.2,0.1-0.3,0.4c-0.2,0.3-1.1,0.8-1.6,0.9c-0.5,0.1-1.8,0.8-2.3,0.6c-0.5-0.2-1.8-0.4-2.5-0.1c-0.7,0.3-3,0.8-3,1
	c0,0.2-0.3,0.1-1.3,0c-0.9-0.1-0.5-0.6-2.2,0.2s-2.1,1.2-2.6,1.3c-0.5,0.1-1.4,0-0.7,0.4c0.7,0.4,0.8,0.3,1.6,0.4
	c0.9,0.1,0.6,0.1,1.3,0.1c0.7,0,2.1,0.1,1.7,0.1c-0.4,0-1.8,0.7-2.3,0.5S81.2,61,81,61.1c-0.2,0.1-0.5,0-0.3,0.4"/>
<path class="st11" d="M78.1,60.3c0.5-0.1,4.8-1.5,5.6-1.8s1.9-0.9,2.8-1c0.9-0.1,1.5,0.3,2.6-0.4c1.1-0.7,1.3-0.6,1.7-1.9
	c0.4-1.3,0.4-2.6,0.9-3.6c0.5-1,0.8-1.9,1.3-2.4c0.5-0.5,1.1-1.1,1-1.6c0-0.5-0.3-1,0.1-1.7s0.8-1.5,0-0.7c-0.8,0.8-1.9,2.5-2.3,3.1
	c-0.4,0.6-0.4,0.7-1.1,1.7s-1.6,1.8-1.9,1.8c-0.3,0.1-0.5,0.9-0.5,0.1c0-0.7,0.6-1.7,0.5-2.8c-0.1-1.1,0-2.3,0.1-3s0.1-1,0.4-1.9
	c0.3-0.9,0.7-2.7,0.7-2.7s-0.2-0.7-0.5,0.2s-1,2-1.3,2s-0.5-0.4-0.8,0.7c-0.3,1.1-0.6,3.6-1,4.5c-0.4,0.8-0.5,2.1-0.8,1.7
	c-0.3-0.4-0.2-0.3-0.8,0.9c-0.6,1.2-0.6,1.9-1.1,2.5s-1.6,1.6-1.9,2.2c-0.4,0.6-1,2.1-1.6,2.4s-1,0-1.5,0.3
	c-0.5,0.3-0.7,0.3-0.9,0.5c-0.2,0.3-1.3,1-0.1,1"/>
<path class="st16" d="M78.5,58.9c1.2-0.4,1.2,0.4,3-2c1.9-2.4,3.2-5.7,3.3-6s0.6-1,0.9-1.3c0.3-0.3,0.4-0.1,0.1-1
	c-0.2-0.9-0.1-1.4-0.1-1.8c0-0.3,0-1.2-0.3-0.3c-0.3,0.9-0.1,0.7-0.2,1.6c0,0.8-0.3,1.8-0.5,1.4s-0.6-1-0.8,0.1
	c-0.2,1.1-0.2,1.8-0.7,2.4c-0.5,0.5-0.4,1.5-0.7,0.8c-0.3-0.7-0.9-2.7-0.6-3.9s0.4-4,0.1-4.5c-0.4-0.5-0.6-1.3-0.7-1.8
	c-0.1-0.5,0.1-1.8-0.4-1.1c-0.5,0.8,0.1,1.9-0.4,2.3c-0.4,0.3-1.2-0.8-0.6,1.1c0.6,1.9-0.7,4.8-0.7,5.6s-0.4,2.3-0.4,2.9
	c0,0.6-0.4,2.3-0.4,2.7c0.1,0.4-0.3,1.2-0.1,1.7C78.4,58.1,78.5,58.9,78.5,58.9z"/>
<path class="st17" d="M76.5,64.5c-0.1-0.1-0.6-0.1-1.3,0.1c-0.7,0.2-1.2-0.1-1.1-0.5c0-0.5,0.2-0.8,0.8-0.6c0.5,0.2,0.6-0.1,0.6-0.4
	c0-0.3,0.3-0.2,0.9-0.1c0.6,0.1,0.6,0.1,0.7,0.4c0.1,0.3,0.6,0.6,0.3,0.6C77,64,76.5,64.5,76.5,64.5z"/>
<path class="st11" d="M79.4,64.6c0.5,0.2,1,0.8,0.9,1s-0.8-0.5-1-0.3c-0.1,0.1,0.4,0.3,0.2,0.9c-0.2,0.6-0.5,0.8-0.7,0.7
	c-0.2-0.1-0.7-0.1-0.7,0.3c0,0.4-0.3,0.8-0.6,0.7s-0.2,0.4-0.4,0.4c-0.2,0-0.7-0.7-0.8-0.7c-0.1-0.1,1.1-0.6,1.4-0.7
	c0.3-0.1,0.4-0.2,0.6-0.6s0.1-1,0.3-1c0.3,0,0.1,0.1,0.3-0.2C79.1,64.6,79.4,64.6,79.4,64.6z"/>
<path class="st11" d="M78.1,61c-0.2,0.1-0.8,1-1.1,0.7s-0.1-1.1-0.2-1.3c-0.1-0.2,0.2-0.9,0.4-0.9c0.3,0,0.7-0.6,1.1-0.4
	c0.4,0.2,0.6,0,0.5,0.5c0,0.5,0.2,0.6-0.3,0.7C78.1,60.3,78.1,61,78.1,61z"/>
<path class="st9" d="M38.5,88.5c0,0,1-0.3,1.7,0.1c0.6,0.4,0.8,0.5,1.1,0.8c0.3,0.3,0.9,0.6,0.9,0.6s0.1,0.4,0.5,0.5
	c0.4,0.1,0.5-0.1,0.9-0.2c0.4-0.1,0.6-0.2,1.1-0.2c0.5,0,0.8,0.2,0.9-0.3c0.1-0.6,0-1.2,0.8-1.3c0.8-0.1,1.2-0.2,1.5-0.4
	s1.4,0.4,0.4-0.7s-1.9-1.9-2.1-2.3c-0.2-0.4-0.6-0.5-0.5-1c0.1-0.5-0.3,0.1,0.1-1.6s0.6-1.1,0-2.1c-0.6-1-1.2-2-2.2-1.3
	c-1.1,0.7-1,1-2,0.7c-0.9-0.3-0.7-0.8-2.1-0.8s-0.7-1.5-2.4,0.3c-1.7,1.7-0.7,1-2,2.2c-1.3,1.2-1.5,1-1.4,1.9c0,0.9-0.4,0.6,0.5,1.5
	c0.9,0.9,0.9,0.6,1.2,1.3c0.2,0.7,0.5,0.7,0.9,1.1s0.9,0.5,1.2,0.7C37.8,88.1,38.5,88.5,38.5,88.5z"/>
<path class="st10" d="M39.8,86.3c0,0,1-0.3,1.7,0.1c0.6,0.4,0.8,0.5,1.1,0.8c0.3,0.3,0.9,0.6,0.9,0.6s0.1,0.4,0.5,0.5
	c0.4,0.1,0.5-0.1,0.9-0.2c0.4-0.1,0.6-0.2,1.1-0.2c0.5,0,0.8,0.2,0.9-0.3c0.1-0.6,0-1.2,0.8-1.3s1.2-0.2,1.5-0.4
	c0.3-0.2,1.4,0.4,0.4-0.7s-1.9-1.9-2.1-2.3c-0.2-0.4-0.6-0.5-0.5-1c0.1-0.5-0.3,0.1,0.1-1.6c0.4-1.7,0.6-1.1,0-2.1s-1.2-2-2.2-1.3
	c-1.1,0.7-1,1-2,0.7c-0.9-0.3-0.7-0.8-2.1-0.8c-1.4,0.1-0.7-1.5-2.4,0.3c-1.7,1.7-0.7,1-2,2.2s-1.5,1-1.4,1.9c0,0.9-0.4,0.6,0.5,1.5
	c0.9,0.9,0.9,0.6,1.2,1.3c0.2,0.7,0.5,0.7,0.9,1.1c0.4,0.4,0.9,0.5,1.2,0.7C39.1,86,39.8,86.3,39.8,86.3z"/>
<path class="st11" d="M42.9,86.6c-0.3,0.6-0.3,8,0,9.2c0.3,1.3,1.6,3.8,1.3,4.6c-0.3,0.8,0.2,1.9,0.3,2.3c0.1,0.4,0.5,0.7,0.4-0.2
	c-0.1-0.9-0.1-2.7-0.2-3.5c-0.1-0.8,0.7-3.9,0.5-5s-1-3.3-1.1-3.8s-0.5-2.3-0.5-2.6c0-0.3-0.1-0.3-0.2-0.7S42.9,86.6,42.9,86.6z"/>
<path class="st12" d="M42.6,85.4c-0.3,0.4-1.5,2.3-1.9,2.6s-1.1,1.3-1.6,1.8c-0.5,0.5-1.4,0.5-1.1,0.9c0.3,0.4,0.8,0.1,1.4-0.1
	s1.8-0.5,2.3-0.8c0.5-0.3,1.1-0.1,1.3-0.9c0.1-0.8,0.7-1.8,0.4-2.1s-0.3-0.7-0.3-0.8c0-0.1-0.2-0.9-0.2-0.9L42.6,85.4z"/>
<path class="st11" d="M40.1,90.5c-0.1,0.6-0.7,2.2-0.4,3.4c0.3,1.2,0.8,2.1,1.1,2.6c0.3,0.6,0.6,1.1,0.8,1s0-1,0-1.7
	c-0.1-0.7,0.4-1.4,0.6-1.6c0.1-0.3,0.2,0.1-0.2-1c-0.4-1.1-0.2-1.4-0.3-1.8c-0.1-0.4-0.2-1.1-0.2-1.1s0.1,0-0.4-0.1
	C40.5,90.1,40.1,90.5,40.1,90.5z"/>
<path class="st11" d="M39.7,88.6c-0.2-0.2-1.6-2-2-2.4c-0.4-0.3-1.8-1.5-2.5-2c-0.7-0.5-1.5-0.9-1-1s1.5-0.5,2.4,0.6
	c0.9,1.1,1.7,1.7,2.7,2.2c1.1,0.5,1.7,0.7,1.8,1c0.1,0.3,0,0.6-0.3,0.8c-0.2,0.2-0.2,1-0.5,0.9C40.1,88.7,39.7,88.6,39.7,88.6z"/>
<path class="st11" d="M37.7,86.6c-0.3,0.3-2.9,2.7-3.3,2.9c-0.4,0.2-1.5,0.7-1.9,1.7c-0.4,1,0.3,1.5-0.3,1.6
	c-0.6,0.1-1.3,0.4-0.8,0.4s0.9,0,0.8,0.5s-1.5,1.9-1.8,2.3c-0.3,0.4-0.3,1-0.4,1.4c-0.1,0.4-0.5,1.1-0.3,1c0.2,0,0.8-1.7,1.4-2.3
	c0.6-0.6,1.4-2,1.7-2.1c0.3-0.1,1-0.3,1.2-0.4c0.2-0.1,0.8-0.1,1.1,0c0.3,0,0.7-0.6,0.5,0s-0.5,2.1-1,2.9c-0.5,0.8-1.1,1.2-1.4,1.9
	c-0.3,0.7-0.5,1.3-0.5,1.3s1.5-1.4,1.6-1.7c0.2-0.3,0.6-1.1,0.9-1.6c0.4-0.5,0.1-1.1,0.6-0.9s1,0.8,1.3,0.3c0.3-0.5,0.4-0.6,0.4-1
	c0-0.5,0.4-1.3,0.5-1.9c0.1-0.6,0.2-1,0.2-1.2s0.2-1.7,0.3-2s0.6-1.5,0.6-1.5s-0.2-0.6-0.3-0.8c-0.1-0.2-0.6-0.4-0.7-0.6
	C38.2,86.7,37.7,86.6,37.7,86.6z"/>
<path class="st11" d="M36.7,85.8c-0.1,0-3.8,2.6-4.3,3c-0.1,0.1-0.4,0.2-0.8,0.5c-1.5,0.8-4.4,2.5-4.5,2.7c-0.2,0.2-2.6,1.7-2.6,1.7
	s1.4-1.2,1.7-1.4c0.3-0.2,7-4.2,7-4.2s-1.5,1-2.2,1.1s-2.8,0.7-3.4,1.2c-0.6,0.5-1,1.2-1.2,1.4s-0.9,0-0.9-0.3s-0.2-0.3-0.4-0.2
	c-0.3,0.1-0.6,0.3-0.5,0c0.1-0.3,0.8-0.6,1.5-0.8c0.7-0.3,1.9-0.7,2.5-1.4c0.6-0.7,0.6-1.2,0.6-1.2s-0.1-0.4-0.1-0.6s-0.9,0-1.3-0.1
	c-0.5-0.1-0.3-0.7,0.6-0.6c0.8,0.2,1,0.3,1.8,0.3c0.8-0.1,2.6-0.5,3.3-0.8c0.7-0.3,1.9-1,2-1c0.1-0.1,0.7-0.1,0.8,0s0,0,0.3,0.3
	C36.7,85.5,36.7,85.8,36.7,85.8z"/>
<path class="st13" d="M34.5,84.2c-0.3,0.1-3.5,1.7-4,1.9s-1.8,0.8-2.6,0.4c-0.8-0.4-1.7-0.9-1.8-0.7c-0.1,0.2-0.9-0.5-1.2-0.3
	c-0.3,0.2-2,0.6-2.3,0.5c-0.3-0.1-0.7-0.6-0.6-0.7s0-0.7,0.7-0.6s1,0.1,1.7,0s0.7-0.3,1.5-0.5c0.8-0.2,1-0.5,1-0.7
	c0-0.2-0.2-0.7-1-1.2c-0.8-0.6-1.9-1.2-2.3-1.2c-0.4,0-1,0-1.5-0.2c-0.5-0.2-0.1-0.4-0.6-0.5c-0.4-0.1-1,0-1.1-0.2
	c-0.1-0.2-0.6-0.5,0.2-0.3c0.8,0.2,0.6-0.2,1.8-0.2c1.3,0,1.6-0.1,2.5,0.6c0.9,0.7,1.5,1.4,2.3,1.6c0.9,0.2,1.3,0.6,2.4,0.6
	c1.1,0,1.9,0,2.9,0c1,0,2.2,0.4,2.2,0.4s0,0.5-0.1,0.6C34.7,83.8,34.5,84.2,34.5,84.2z"/>
<path class="st11" d="M36.5,82.9c-0.2,0-6.5,0.1-7-0.1c-0.5-0.2-3.2-1.3-3.6-1.6c-0.3-0.3-2-1.4-2.3-1.4c-0.3,0-1.6-0.4-1.6-0.4
	s1.6-0.3,2.4,0.4c0.8,0.7,1.4,1.1,2.1,1.2c0.6,0.1,0.9,0.1,1.1,0c0.2-0.1,1.5,0.1,0.3-0.4s-4.2-1.1-4.8-1.4s-2.7-1.1-3.3-1.4
	c-0.6-0.3-1.6-1.1-1.5-1.1c0.1,0,0.5-0.1,1.3,0.5c0.8,0.5,4,1.7,4.9,1.9c1,0.1,1.7,0,1.8,0c0.1,0,0.6,0.1-0.4-0.6
	c-0.9-0.8-1.9-1.5-2.4-1.8c-0.5-0.3-1-0.4-0.9-0.9c0-0.5-0.2-0.8-0.3-1c-0.2-0.2-0.2-0.6,0-0.6c0.2,0,0.5-0.1,1,0.3
	c0.5,0.3,1.5,0.8,2.3,1.7s1.2,1.3,2,1.9c0.8,0.6,2.9,1.8,3.7,1.9c0.8,0.1,2.5,0.5,2.9,0.6c0.4,0.1,1.2,0.2,1.5,0.3
	c0.3,0.1,0.9,0.4,1,0.6c0.1,0.2,0.3,0.5,0.3,0.7C36.9,82.4,36.5,82.9,36.5,82.9z"/>
<path class="st13" d="M31,78.2c-0.2-0.1-2.7-1.1-3-1.4s-0.4-1.3-0.8-1.8c-0.4-0.5-1.4-1.3-1.3-0.5c0,0.7-0.5,0.8-0.5,0.2
	s0.6-0.9,0.6-1c0-0.1,0.1-0.1-0.1-0.7c-0.2-0.6-1.2-1.6-0.5-1.8c0.7-0.1,0.6-0.7,1,0.4c0.5,1.2,0.9,1.8,1.6,2.4
	c0.7,0.6,1.6,1.4,1.9,1.5c0.2,0.1,0.4-1.4,0.4-1.4s-0.6-1.2-0.8-1.5c-0.2-0.3-1.3-2-1.3-2.5c0-0.5,0.6-0.6,0.6-0.6s0.3-0.7,0.8-0.1
	c0.5,0.6,1,1.7,1.2,2.3c0.2,0.6,0.7,1.9,1.1,2.1c0.3,0.2,1.2,0.5,1.5,0.6s0.5,0.1,0.8,0.4c0.3,0.4,0.3,0.7,0.3,1.1
	c0,0.4,0.7,0.7,0.4,1.1s-0.2,0.8-0.6,1C34,78.2,33.3,77.8,33,78s-0.9,0.7-1,0.7c-0.1,0-0.1-0.1-0.3-0.1C31.4,78.6,31,78.2,31,78.2z"
	/>
<path class="st11" d="M39.5,83.9c-0.2,0-1.7-0.2-2.4-0.6c-0.7-0.4-1.7-0.3-2.1-0.5s-0.5-0.7,0.1-0.9c0.6-0.1,1.3-0.2,1.1-0.3
	c-0.1,0-1.7-0.9-2.2-1c-0.5-0.1-2.2-0.9-2.6-1.1c-0.4-0.2-1-0.4-1.3-0.5c-0.3-0.1-0.8,0.1-1.1-0.4s-0.8-0.7-0.4-1
	c0.4-0.3,0.2-0.7,1.3,0s1.9,0.8,1.7,0.5c-0.1-0.4-0.5-0.6-0.4-1s-0.5-1.9,0.4-0.8c0.9,1.1,1.2,2,1.3,1.2c0.1-0.7-0.2-1.3-0.3-1.5
	c-0.1-0.2-0.4-1,0.3-0.4c0.7,0.6,0.9,0.9,1,1.4c0.1,0.6,0.1,0.8,0.4,1.3c0.3,0.5,0.6,1.2,0.7,0.8c0.1-0.5-0.5-0.1-0.1-1.1
	s0.3-1.6,0.5-1.7c0.2-0.1,0.8,0,0.9,0.5c0.1,0.5,0.5,1.7,0.6,0.9s-0.5-1.4-0.9-1.8c-0.4-0.3-0.8,0.3-1.3-0.8c-0.6-1.1-0.9-1-1.2-1.7
	c-0.4-0.7-1.3-3.1-1.5-3.4c-0.2-0.3-0.9-1.3-0.9-1.6s0.1-0.6,0.4-0.6c0.2,0,0.5-0.1,0.3-0.7s-0.7-0.9-0.4-1.1c0.3-0.2,0.5-0.8,0.7,0
	c0.2,0.8,0,1.1,0.2,1.4c0.2,0.3,0.3-0.5,1.1,0.4c0.8,0.9,1.4,2.6,1.4,3.1c0,0.5,0.4,1.8,0.4,1.8s0.4-1.4,0.5-0.8
	c0.1,0.6,0.6,2.3,1.2,3.4s1.4,2.3,1.5,2.7c0.1,0.4,0.1,1.8,0.6,2.4s0.7,0.4,1,1s0.4,0.9,0.3,1C40.2,82.8,39.5,83.9,39.5,83.9z"/>
<path class="st14" d="M41.3,80.9c-0.1-0.1-1-1.2-0.8-1.6s-0.3-1-0.9-1.6c-0.7-0.6-1.2-1.3-1.4-2.1c-0.2-0.8-1-3.2-1-3.7
	c0-0.5,0-1.4,0.4-1.2c0.4,0.2,0.7,0.1,0.7,1.3c0,1.2-0.1,1.4,0.2,2.1s0.6,1.6,0.8,1.3c0.2-0.3,0.2-1.7,0.2-2.1c0-0.4-0.3-2.6-0.2-3
	c0.1-0.4-0.5-2.1-0.2-2.5c0.2-0.3,0.7-1,0.8-0.5c0.1,0.4,0.3,1.6,0.4,2.2c0.1,0.6,0.2,2.4,0.2,3c0,0.6,0.1,0.7,0.2,1.2
	c0.1,0.5,0.6,0.6,0.6,0.3c0-0.3-0.1-2,0.1-2.3c0.2-0.3,0.4-0.2,0.5-0.4c0.2-0.2,0.5-0.4,0.3-1.2C42,69.2,41.9,68.3,42,68
	c0.1-0.4,0.3-0.8,0.6-0.3c0.3,0.5,0.8,2.2,0.8,2.7c0,0.5,0.4,1.6,0.3,2.4s-0.2,1.4,0,2.1s0,1,0.2,1.2c0.2,0.2,0.5-0.6,0.3-1.3
	c-0.1-0.6,0-1.6,0.3-2.3c0.3-0.7,0.2-1.3,0.7-0.7s0.6,2.3,0.4,3c-0.2,0.7-1.3,0.5-0.7,2c0.6,1.5,0.7,1,0.3,1.9
	c-0.5,0.9-0.9,1-1.4,1.1s-0.9,0.3-1,0.7c-0.1,0.5-0.3,0.4-0.5,0.5C42,81.2,41.3,80.9,41.3,80.9z"/>
<path class="st11" d="M43.7,83.6c-0.5-0.2-1.2-0.4-1-1.1c0.2-0.6,0.8-1.5,1.1-1.6c0.3-0.1,1.5-1.1,1.9-1.7c0.4-0.6,0.9-1.7,1.9-2.2
	c1-0.5,1.1-1.2,1.3-0.6c0.2,0.5,0.2,1,0.2,1.4c0,0.4,0.1,0.8,0.4,0.4c0.3-0.4,1.2-1.1,1.6-1.7s0.7-1.1,1.1-1c0.3,0.2-0.4,1.4-0.8,2
	c-0.3,0.7-1.1,1.8-1.2,2c-0.1,0.1,0,1.6-0.8,2.1s-1.6,0.6-2.4,0.9c-0.8,0.3-1.4,0.5-1.6,0.8C45.2,83.6,43.7,83.6,43.7,83.6z"/>
<path class="st11" d="M50.6,84.9c0.4,0.1,3.9-0.2,4.3-0.5c0.4-0.3,0.8-1,0.5-0.9c-0.2,0.1-0.8,0.1-1.3,0.1c-0.6,0-0.2-0.2,0.6-0.6
	s2.1-1.1,2.6-1.4s1-1.1,0.6-1.1c-0.4,0-2.7,1.9-3.7,1.8c-1,0-2.4-0.5-2.7-0.4s-1.1,0.1-1.4,0.6c-0.4,0.5-0.8,0.4-0.5,0.9
	s0.2,0.9,0.1,1c-0.1,0-1,0.1-1.3,0.1c-0.3,0-0.7,0.2-0.5,0.3c0.3,0.1,0.9,0.2,1.5,0.1C50.1,84.9,50.6,84.9,50.6,84.9z"/>
<path class="st15" d="M46.2,84.7c0.6,0.2,2.5-0.2,3.2-0.2c0.7,0,1.6-0.2,1.5-0.4s-0.8-0.8-0.8-0.8s0.6-0.4,0.8-0.7s2.1-2.3,2.4-2.5
	c0.3-0.3,0.8-1.1,0.8-1.1s-0.3-0.8-0.3-0.9c0-0.1-0.1-0.5-0.1-0.5s-1.3,1.6-2.1,1.9s-3.3,1.6-3.9,1.9c-0.6,0.3-1.4,0.3-1.9,1
	c-0.5,0.7-0.9,1.2-0.7,1.5c0.2,0.3,0.3,0.1,0.5,0.4C45.7,84.6,46.2,84.7,46.2,84.7z"/>
<path class="st13" d="M44.6,87.8c0,0,0,0.1,0,0.2c-0.1,0.9-0.3,4.1,0,5.2c0.4,1.1,0.9,3.4,1,4c0.1,0.6,0.2,0.7-0.2,1.1
	c-0.4,0.3-0.7,0.7-0.5,1.4c0.3,0.7,0.3,1,0.8,1.8c0.4,0.8,0.3,0.3,0.3-0.4s-0.3-1.2-0.2-1.5s0-1.3,0.3-0.4c0.3,0.9,0.1,1.3,0.6,2
	c0.5,0.7,1,0.6,1.2,1.3s0.7,2.1,0.5,1.2s-1-3.3-1-3.8c-0.1-0.5-0.5-1.6-0.5-1.8c0-0.2-0.4-0.8,0-0.9c0.4-0.1,0.8-0.6,1.2,0.3
	c0.4,0.9,0.7,1.7,1.3,2.5c0.6,0.7,1.1,1.7,1.3,2.1c0.2,0.4,0.1,1,0.5,1.3c0.4,0.3,1,0.7,0.7-0.2s-0.2-0.6-0.7-1.5
	c-0.5-0.9-0.7-0.9-0.8-1.5c-0.2-0.6-0.4-1-0.3-1.4c0.1-0.4-0.6-1.2-0.1-1.1c0.5,0.1,0.4,0.3,0.9,0.8s0.9,1.3,1.3,1.2
	c0.4-0.1,0.6-0.5,0.8-0.2c0.2,0.3,0.6,0.7,0.9,0.9s0.5,0.3,0.3,0c-0.2-0.3-0.6-0.7-0.9-1.1c-0.3-0.4,0.1-0.3,0-0.5
	c0-0.2-0.1-0.1-0.4-0.2s-0.9-0.8-1.1-1.2c-0.2-0.3-1.1-1.3-1.1-1.7c0-0.4-0.1-1.4-0.5-1.9c-0.4-0.5-1.4-2.3-1.6-2.2s-0.2-0.2-0.3-1
	c-0.1-0.7,0.4-0.4-0.7-1.7c-1.1-1.3-1.5-1.6-1.7-2c-0.2-0.4-0.4-1.1-0.5-0.5c-0.2,0.6,0,0.6,0.1,1.3c0.1,0.7,0.1,0.5,0.2,1
	c0.2,0.6,0.4,1.6,0.3,1.3c-0.1-0.3-1-1.3-1-1.8s0-1-0.1-1.1c-0.2-0.1-0.2-0.4-0.4-0.2"/>
<path class="st11" d="M44.7,84.8c0.2,0.4,2.4,3.6,2.9,4.2s1.2,1.4,1.5,2.1c0.3,0.7,0.1,1.2,1,2c0.9,0.8,0.8,1,2,1.2s2.3,0.2,3.2,0.5
	s1.7,0.5,2.3,0.9c0.6,0.4,1.1,0.8,1.6,0.7c0.4,0,0.8-0.3,1.4,0c0.6,0.3,1.4,0.5,0.6,0c-0.8-0.6-2.5-1.3-3.1-1.6
	c-0.6-0.3-0.7-0.2-1.7-0.8s-1.9-1.1-2-1.4c-0.1-0.2-0.8-0.3-0.2-0.4s1.6,0.4,2.5,0.3s1.9-0.1,2.5,0s0.8,0,1.6,0.2s2.4,0.4,2.4,0.4
	s0.6-0.2-0.3-0.4C62,92.5,61,92.1,61,91.9c-0.1-0.2,0.2-0.4-0.8-0.6c-1-0.2-3.1-0.3-3.9-0.5s-1.8-0.3-1.6-0.5s0.2-0.2-1-0.6
	c-1.1-0.4-1.7-0.4-2.3-0.7c-0.6-0.3-1.7-1.1-2.3-1.4s-2-0.7-2.4-1.1c-0.4-0.4-0.3-0.8-0.6-1.1s-0.4-0.5-0.7-0.6
	c-0.3-0.1-1.1-1-0.8-0.1"/>
<path class="st16" d="M46,85.1c0.6,0.9-0.1,0.9,2.4,2.2c2.4,1.3,5.5,2.1,5.8,2.2c0.3,0.1,1,0.4,1.3,0.6c0.3,0.2,0.2,0.3,0.9,0.1
	s1.1-0.2,1.4-0.2c0.3,0,1-0.1,0.2-0.3c-0.8-0.2-0.7-0.1-1.4-0.1c-0.7,0-1.5-0.1-1.3-0.3c0.2-0.2,0.7-0.5-0.3-0.6
	c-1-0.1-1.6-0.1-2.1-0.4S51.5,88,52,87.8c0.5-0.3,2-0.9,3.1-0.7c1.1,0.2,3.4,0.1,3.7-0.2c0.3-0.3,0.9-0.6,1.3-0.6
	c0.4-0.1,1.5,0,0.8-0.4c-0.8-0.3-1.6,0.1-2-0.2s0.4-0.9-1-0.4c-1.4,0.5-4.1-0.3-4.8-0.3c-0.7,0-2-0.2-2.5-0.2c-0.5,0-2-0.2-2.3-0.2
	c-0.3,0.1-1.1-0.2-1.4,0C46.6,85,46,85.1,46,85.1z"/>
<path class="st17" d="M40.9,83.8c0.1-0.1-0.1-0.5-0.4-1c-0.3-0.5-0.2-0.9,0.2-0.9c0.4,0,0.7,0.1,0.7,0.5c0,0.4,0.2,0.4,0.5,0.5
	c0.2,0,0.2,0.2,0.3,0.7c0,0.4,0.1,0.4-0.1,0.5c-0.2,0.1-0.3,0.5-0.4,0.3C41.4,84.1,40.9,83.8,40.9,83.8z"/>
<path class="st11" d="M41.5,86.1c0,0.4-0.4,0.8-0.6,0.7c-0.2-0.1,0.2-0.7,0-0.7c-0.2-0.1-0.2,0.3-0.7,0.2c-0.5-0.1-0.8-0.4-0.8-0.5
	s-0.1-0.5-0.4-0.5c-0.3,0-0.8-0.2-0.7-0.4c0.1-0.2-0.4-0.1-0.4-0.3s0.4-0.6,0.4-0.7c0-0.1,0.7,0.8,0.9,1c0.2,0.2,0.3,0.3,0.7,0.4
	c0.4,0.2,0.9,0,0.9,0.2c0.1,0.2-0.1,0.1,0.3,0.2C41.5,85.8,41.5,86.1,41.5,86.1z"/>
<path class="st11" d="M44.1,84.9c-0.2-0.2-1-0.5-0.9-0.8c0.2-0.3,0.9-0.1,1-0.2c0.1-0.1,0.8,0.1,0.8,0.3c0.1,0.2,0.7,0.5,0.6,0.8
	c-0.1,0.3,0.1,0.4-0.2,0.4c-0.4,0-0.5,0.2-0.6-0.2C44.7,84.8,44.1,84.9,44.1,84.9z"/>
</g>
</svg>
