<?xml version="1.0" encoding="utf-8"?>
<!-- Generator: Adobe Illustrator 27.3.1, SVG Export Plug-In . SVG Version: 6.00 Build 0)  -->
<svg version="1.1" id="Layer_1" xmlns="http://www.w3.org/2000/svg" xmlns:xlink="http://www.w3.org/1999/xlink" x="0px" y="0px"
	 viewBox="0 0 108 108" style="enable-background:new 0 0 108 108;" xml:space="preserve">
<style type="text/css">
	.st0{fill:#73913F;}
	.st1{fill:#5F7D50;}
	.st2{fill:#568D60;}
	.st3{fill:#E8EDF3;}
	.st4{fill:#A8B58A;}
	.st5{fill:#C5C92A;}
</style>
<g>
<path class="st0" d="M44.7,29.9l-12.5-2.4c0,0,5.4,4.5,4.5,6.6s-1,2.1-1,2.1H24.8c0.7,4.5,2,9,2,9h4.3l-16.1,5.2h11.7l-10.6,7.2
	l-1.1,4.6c0,0,11.4-6,7.9-1.2s-3.4,8-3.4,8l7.2-1.6L25.1,71L23,75.7c1.8-4,9.1-11.3,8.7-5.7s0,11.2,0,11.2s6.1-0.4,6-3.4
	s0.1-8.3,0-5.6c-0.1,2.6,7,11.6,7,11.6s-1.5-9.6,1.1-8.6c5.7,2.3,7.1,6.3,7.1,6.3v-8.8l9.4,3c-3.7-6.5-3.7-6.5-3.7-6.5
	s3.7-1.1,5.6,1.1c1.9,2.3,0-0.7,1.9,2.3s1.7,5.7,1.7,5.7s11.3-5.7,10.4-7.6c-0.9-1.8-8.4-4.5-8.4-4.5s-2.8-2.9-3.2-4.1
	c-0.5-1.2,0-3,0-3l6.4,2.5c0,0,6.3-2.2,3.2-1.1c-3.2,1.1-8.6-6-8.4-6.3c0.2-0.4,12.9,0,12.9,0l4.3-1c0,0-0.6-5.4-3.5-5.7
	c-2.9-0.3-8.6-0.8-8.4-2.2c0.2-1.5,0.7-10,0.7-10c-4.2,3.7-7.2,3-5.9-0.4c1.3-3.4,0-9.1,0-9.1s-4,0.4-4.7,2
	c-0.7,1.5-4.4,1.6-4.4,1.6l-3.8-7.3c0,0-2.5-0.1-2,3s0.5,3.1,0.5,3.1L44.7,29.9z"/>
<path class="st1" d="M78.2,42l-0.8-12.7c0,0-3,6.4-5.2,6c-2.3-0.4-2.3-0.4-2.3-0.4l-2.7-10.5c-4.2,1.9-8.2,4.2-8.2,4.2l1.1,4.2
	l-9.1-14.3l2.9,11.4l-9.6-8.5l-4.7,0.1c0,0,8.7,9.5,3.1,7.4s-8.6-1.3-8.6-1.3l3.4,6.6l-4-0.7l-5-0.9c4.3,0.8,13.3,6,7.7,7
	s-10.9,2.8-10.9,2.8s1.9,5.9,4.8,5s8-1.9,5.4-1.4c-2.6,0.5-9.5,9.7-9.5,9.7s8.9-3.8,8.6-1.1c-0.8,6-4.4,8.4-4.4,8.4l8.5-2.2
	l-0.5,9.8c5.4-5.2,5.4-5.2,5.4-5.2s2,3.3,0.3,5.7s0.7-0.2-1.7,2.4c-2.4,2.6-5.1,3.1-5.1,3.1s8.4,9.5,9.9,8.2s2.2-9.2,2.2-9.2
	s2.1-3.4,3.1-4.2c1-0.8,2.9-0.8,2.9-0.8l-0.8,6.9c0,0,3.7,5.6,1.9,2.8s3.6-9.8,4-9.7c0.4,0.1,3.2,12.5,3.2,12.5l2.1,3.9
	c0,0,5.1-1.9,4.7-4.9s-1.4-8.5,0.1-8.7c1.5-0.2,9.9-1.9,9.9-1.9c-4.6-3.2-4.7-6.2-1.1-5.8c3.6,0.4,8.9-2.3,8.9-2.3s-1.4-3.8-3.1-4.1
	c-1.7-0.3-2.6-3.9-2.6-3.9l6.1-5.5c0,0-0.5-2.4-3.4-1.2s-2.9,1.3-2.9,1.3L78.2,42z"/>
<path class="st2" d="M35,44.1l-9.5,8.5c0,0,6.8-1.6,7.9,0.5c1.1,2,1.1,2,1.1,2l-6.6,8.6c4,2.1,8.3,3.9,8.3,3.9l2.6-3.4l-5.7,15.9
	l7.1-9.3l-0.8,12.8l2.9,3.7c0,0,2.1-12.7,3.9-7c1.8,5.7,4.3,7.6,4.3,7.6l3.1-6.7l1.9,3.6l2.4,4.5C56,85.3,54.6,75,58.8,78.8
	c4.2,3.8,8.9,6.8,8.9,6.8s3.4-5.1,1-6.8c-2.5-1.7-6.5-5.1-4.5-3.4c2,1.7,13.5,1.5,13.5,1.5s-8.5-4.7-6.2-6.1
	c5.2-3.1,9.3-1.7,9.3-1.7l-7-5.3l8.1-5.7C74.5,57,74.5,57,74.5,57s1.4-3.7,4.3-3.8s-0.6-0.5,2.9-0.1c3.5,0.3,5.5,2.1,5.5,2.1
	s2.4-12.5,0.4-12.9c-2-0.4-8.6,3.9-8.6,3.9s-4,0.4-5.2,0.1c-1.2-0.3-2.4-1.8-2.4-1.8l5.9-3.6c0,0,2.1-6.4,1-3.2s-10,3.2-10.1,2.8
	S76,30.4,76,30.4l1.8-4c0,0-4.6-2.8-6.7-0.7S65.3,32,64.3,31c-1.1-1.1-7.6-6.6-7.6-6.6c0.4,5.6-2,7.5-3.9,4.4s-7.3-5.6-7.3-5.6
	s-2.1,3.4-1.3,4.9c0.8,1.5-1.4,4.5-1.4,4.5l-8.1-1.4c0,0-1.6,1.9,1.2,3.4s2.8,1.5,2.8,1.5L35,44.1z"/>
<path class="st3" d="M49.5,74.8c-0.2,0.5-0.3,0.5-0.1,0.7c0.2,0.2,0.3,0.4,0.4,0.5s-0.1,0.2,0.1,0.3c0.2,0.1,0.3,0.2,0.4,0.4
	c0.1,0.1,0.3,0-0.1,0.3c-0.4,0.3-0.5,0.3-0.6,0.6c-0.1,0.3,0,0.5-0.1,0.7s0.2,0.2-0.2,0.4c-0.4,0.1-0.7,0.1-0.7,0.1S48.4,79,48,79
	c-0.4,0.1-0.9-0.5-0.9-0.5c-0.4,0.2-0.7,0.2-0.7,0c-0.1-0.2,0-0.7-0.3-0.8c-0.3,0-0.5-0.2-0.5-0.4c0-0.1,0.1-0.3-0.1-0.5
	s-0.5-0.4-0.4-0.6s0.1-0.5,0.3-0.7s0.3-0.4,0.4-0.6c0-0.2,0.2-0.4,0.3-0.6c0.1-0.2,0-0.5,0.3-0.6c0.3-0.1,0.5,0,0.6,0.1
	s0.3,0.2,0.3,0c0.1-0.2-0.2-0.5,0.2-0.6c0.4-0.1,0.3-0.3,0.6-0.1c0.2,0.1,0.3,0.2,0.4,0.4s0.2,0.3,0.4,0.3s-0.1-0.2,0.1,0
	c0.2,0.2,0.1,0.1,0.3,0.3c0.2,0.2,0.4,0.3,0.4,0.3L49.5,74.8z"/>
<path class="st4" d="M49.1,75.6c-0.1,0.1-0.5,0-0.5,0.2s-0.3-0.1-0.1,0.2c0.2,0.3,0.3,0.5,0.5,0.4c0.3-0.1,0.7-0.3,0.6,0
	c-0.1,0.2-0.2,0.7-0.5,0.6c-0.3-0.1-0.8-0.5-0.5-0.1s0.4,0.6,0.4,0.6s-0.1,0.3-0.3,0.3c-0.2,0-0.4-0.4-0.5-0.5
	c-0.1-0.1-0.2-0.1-0.1-0.1c0.1,0.1-0.2,0.7-0.2,0.9c0,0.2-0.3,0.5-0.4,0c-0.1-0.5,0-0.6-0.1-0.9S47,76.8,47,76.8s0,0.7-0.4,0.4
	s-0.4-0.5-0.1-0.6s0.7-0.3,0.7-0.3s-0.2-0.5-0.2-0.7c0-0.1,0.4,0,0.3-0.4c-0.2-0.4-0.4-0.7-0.2-0.8c0.2-0.1,0.5-0.7,0.6-0.3
	c0.1,0.4,0.1,1,0.1,1c0.2,0.3,0.2,0.3,0.2,0.3L49.1,75.6z"/>
<path class="st5" d="M48.3,76.3c-0.3,0.6-0.6,1.6-0.8,1s-0.4-1-0.4-1s0.1-0.5,0.4-0.6C47.9,75.5,48.6,75.9,48.3,76.3z"/>
<path class="st3" d="M33.1,62.8c-0.2,0.5-0.3,0.5-0.1,0.7s0.3,0.4,0.4,0.5s-0.1,0.2,0.1,0.3c0.2,0.1,0.3,0.2,0.4,0.4
	c0.1,0.1,0.3,0-0.1,0.3c-0.4,0.3-0.5,0.3-0.6,0.6c-0.1,0.3,0,0.5-0.1,0.7c0,0.2,0.2,0.2-0.2,0.4c-0.4,0.1-0.7,0.1-0.7,0.1
	S31.9,67,31.5,67c-0.4,0.1-0.9-0.5-0.9-0.5c-0.4,0.2-0.7,0.2-0.7,0s0-0.7-0.3-0.8c-0.3,0-0.5-0.2-0.5-0.4c0-0.1,0.1-0.3-0.1-0.5
	c-0.2-0.3-0.5-0.4-0.4-0.6c0.1-0.2,0.1-0.5,0.3-0.7c0.2-0.3,0.3-0.4,0.4-0.6s0.2-0.4,0.3-0.6c0.1-0.2,0-0.5,0.3-0.6s0.5,0,0.6,0.1
	s0.3,0.2,0.3,0c0.1-0.2-0.2-0.5,0.2-0.6c0.4-0.1,0.3-0.3,0.6-0.1c0.2,0.1,0.3,0.2,0.4,0.4s0.2,0.3,0.4,0.3c0.1,0-0.1-0.2,0.1,0
	c0.2,0.2,0.1,0.1,0.3,0.3c0.2,0.2,0.4,0.3,0.4,0.3L33.1,62.8z"/>
<path class="st4" d="M32.7,63.6c-0.1,0.1-0.5,0-0.5,0.2s-0.3-0.1-0.1,0.2c0.2,0.3,0.3,0.5,0.5,0.4c0.3-0.1,0.7-0.3,0.6,0
	c-0.1,0.2-0.2,0.7-0.5,0.6s-0.8-0.5-0.5-0.1s0.4,0.6,0.4,0.6s-0.1,0.3-0.3,0.3c-0.2,0-0.4-0.4-0.5-0.5c-0.1-0.1-0.2-0.1-0.1-0.1
	c0.1,0.1-0.2,0.7-0.2,0.9c0,0.2-0.3,0.5-0.4,0c-0.1-0.5,0-0.6-0.1-0.9c-0.1-0.3-0.5-0.5-0.5-0.5s0,0.7-0.4,0.4
	c-0.4-0.3-0.4-0.5-0.1-0.6c0.3-0.2,0.7-0.3,0.7-0.3s-0.2-0.5-0.2-0.7c0-0.1,0.4,0,0.3-0.4c-0.2-0.4-0.4-0.7-0.2-0.8
	c0.2-0.1,0.5-0.7,0.6-0.3s0.1,1,0.1,1c0.2,0.3,0.2,0.3,0.2,0.3L32.7,63.6z"/>
<path class="st5" d="M31.9,64.3c-0.3,0.6-0.6,1.6-0.8,1s-0.4-1-0.4-1s0.1-0.5,0.4-0.6C31.4,63.5,32.1,63.9,31.9,64.3z"/>
<path class="st3" d="M61.2,28.4c-0.2,0.5-0.3,0.5-0.1,0.7s0.3,0.4,0.4,0.5c0.1,0.1-0.1,0.2,0.1,0.3c0.2,0.1,0.3,0.2,0.4,0.4
	c0.1,0.1,0.3,0-0.1,0.3c-0.4,0.3-0.5,0.3-0.6,0.6c-0.1,0.3,0,0.5-0.1,0.7c0,0.2,0.2,0.2-0.2,0.4c-0.4,0.1-0.7,0.1-0.7,0.1
	s-0.4,0.2-0.8,0.3c-0.4,0.1-0.9-0.5-0.9-0.5c-0.4,0.2-0.7,0.2-0.7,0c-0.1-0.2,0-0.7-0.3-0.8c-0.3,0-0.5-0.2-0.5-0.4s0.1-0.3-0.1-0.5
	s-0.5-0.4-0.4-0.6s0.1-0.5,0.3-0.7c0.2-0.3,0.3-0.4,0.4-0.6c0-0.2,0.2-0.4,0.3-0.6c0.1-0.2,0-0.5,0.3-0.6c0.3-0.1,0.5,0,0.6,0.1
	c0.1,0.1,0.3,0.2,0.3,0s-0.2-0.5,0.2-0.6c0.4-0.1,0.3-0.3,0.6-0.1c0.2,0.1,0.3,0.2,0.4,0.4s0.2,0.3,0.4,0.3c0.1,0-0.1-0.2,0.1,0
	c0.2,0.2,0.1,0.1,0.3,0.3c0.2,0.2,0.4,0.3,0.4,0.3L61.2,28.4z"/>
<path class="st4" d="M60.7,29.2c-0.1,0.1-0.5,0-0.5,0.2c-0.1,0.2-0.3-0.1-0.1,0.2c0.2,0.3,0.3,0.5,0.5,0.4c0.3-0.1,0.7-0.3,0.6,0
	c-0.1,0.2-0.2,0.7-0.5,0.6c-0.3-0.1-0.8-0.5-0.5-0.1s0.4,0.6,0.4,0.6s-0.1,0.3-0.3,0.3c-0.2,0-0.4-0.4-0.5-0.5
	c-0.1-0.1-0.2-0.1-0.1-0.1c0.1,0.1-0.2,0.7-0.2,0.9c0,0.2-0.3,0.5-0.4,0s0-0.6-0.1-0.9s-0.5-0.5-0.5-0.5s0,0.7-0.4,0.4
	s-0.4-0.5-0.1-0.6c0.3-0.2,0.7-0.3,0.7-0.3s-0.2-0.5-0.2-0.7s0.4,0,0.3-0.4c-0.2-0.4-0.4-0.7-0.2-0.8c0.2-0.1,0.5-0.7,0.6-0.3
	c0.1,0.4,0.1,1,0.1,1c0.2,0.3,0.2,0.3,0.2,0.3L60.7,29.2z"/>
<path class="st5" d="M59.9,29.9c-0.3,0.6-0.6,1.6-0.8,1s-0.4-1-0.4-1s0.1-0.5,0.4-0.6S60.2,29.5,59.9,29.9z"/>
<path class="st3" d="M56.6,75.9c-0.6,0-0.6-0.1-0.7,0.2c-0.1,0.3-0.3,0.4-0.3,0.5c0,0.1-0.2,0-0.2,0.2c0,0.3-0.1,0.3-0.2,0.5
	c-0.1,0.1,0.1,0.3-0.3,0S54.3,77,54,77c-0.3,0-0.5,0.1-0.6,0.1S53.2,77.4,53,77c-0.2-0.4-0.3-0.6-0.3-0.6s-0.3-0.3-0.5-0.7
	c-0.2-0.4,0.2-1,0.2-1c-0.3-0.3-0.4-0.6-0.2-0.7c0.2-0.1,0.7-0.2,0.6-0.6c-0.1-0.3,0-0.6,0.2-0.6c0.1,0,0.3,0,0.5-0.3
	c0.2-0.3,0.2-0.6,0.4-0.6c0.2,0,0.5,0,0.8,0c0.3,0.1,0.4,0.2,0.7,0.1c0.2,0,0.4,0.1,0.6,0.1c0.2,0,0.5-0.2,0.6,0.1
	c0.2,0.2,0.2,0.5,0.1,0.6c-0.1,0.2-0.1,0.3,0.1,0.3c0.2,0,0.4-0.4,0.6,0c0.2,0.3,0.3,0.2,0.3,0.5c-0.1,0.3-0.1,0.3-0.2,0.5
	c-0.1,0.2-0.2,0.3-0.2,0.5c0,0.1,0.1-0.1,0,0.1s0,0.2-0.2,0.4c-0.1,0.3-0.1,0.4-0.1,0.4L56.6,75.9z"/>
<path class="st4" d="M55.7,75.8c-0.1,0-0.2-0.4-0.4-0.4c-0.2,0,0-0.3-0.2,0c-0.2,0.3-0.3,0.4-0.2,0.6s0.5,0.6,0.2,0.6
	c-0.3,0-0.7,0-0.7-0.3c0-0.3,0.3-0.9-0.1-0.5s-0.5,0.6-0.5,0.6s-0.3,0-0.4-0.1s0.3-0.5,0.3-0.7c0-0.1,0.1-0.2,0-0.1
	c0,0.1-0.7,0-0.9,0.1c-0.2,0.1-0.6-0.2-0.1-0.4s0.6-0.2,0.8-0.4c0.2-0.2,0.3-0.7,0.3-0.7s-0.7,0.2-0.5-0.3c0.1-0.5,0.3-0.6,0.6-0.3
	s0.5,0.5,0.5,0.5s0.4-0.4,0.6-0.4c0.1,0,0.2,0.4,0.4,0.1s0.5-0.6,0.7-0.4c0.1,0.2,0.8,0.3,0.5,0.5s-0.9,0.4-0.9,0.4
	c-0.2,0.3-0.2,0.3-0.2,0.3L55.7,75.8z"/>
<path class="st5" d="M54.8,75.2c-0.7-0.1-1.7-0.1-1.2-0.5c0.5-0.4,0.8-0.7,0.8-0.7s0.5-0.1,0.7,0.2S55.3,75.3,54.8,75.2z"/>
<path class="st3" d="M76.4,48.3c-0.6,0-0.6-0.1-0.7,0.2c-0.1,0.3-0.3,0.4-0.3,0.5c0,0.1-0.2,0-0.2,0.2c0,0.3-0.1,0.3-0.2,0.5
	s0.1,0.3-0.3,0c-0.4-0.3-0.5-0.4-0.8-0.4c-0.3,0-0.5,0.1-0.6,0.1c-0.2,0-0.2,0.3-0.4-0.1c-0.2-0.4-0.3-0.6-0.3-0.6s-0.3-0.3-0.5-0.7
	c-0.2-0.4,0.2-1,0.2-1c-0.3-0.3-0.4-0.6-0.2-0.7c0.2-0.1,0.7-0.2,0.6-0.6c-0.1-0.3,0-0.6,0.2-0.6c0.1,0,0.3,0,0.5-0.3
	s0.2-0.6,0.4-0.6s0.5,0,0.8,0s0.4,0.2,0.7,0.1c0.2,0,0.4,0.1,0.6,0.1c0.2,0,0.5-0.2,0.6,0.1s0.2,0.5,0.1,0.6
	c-0.1,0.2-0.1,0.3,0.1,0.3c0.2,0,0.4-0.4,0.6,0c0.2,0.3,0.3,0.2,0.3,0.5s-0.1,0.3-0.2,0.5C77.1,46.8,77,47,77,47.1
	c0,0.1,0.1-0.1,0,0.1c-0.1,0.3,0,0.2-0.2,0.4c-0.1,0.3-0.1,0.4-0.1,0.4L76.4,48.3z"/>
<path class="st4" d="M75.6,48.2c-0.1,0-0.2-0.4-0.4-0.4s0-0.3-0.2,0c-0.2,0.3-0.3,0.4-0.2,0.6c0.2,0.2,0.5,0.6,0.2,0.6
	c-0.3,0-0.7,0-0.7-0.3c0-0.3,0.3-0.9-0.1-0.5s-0.5,0.6-0.5,0.6s-0.3,0-0.4-0.1c-0.1-0.2,0.3-0.5,0.3-0.7c0-0.1,0.1-0.2,0-0.1
	c0,0.1-0.7,0-0.9,0.1c-0.2,0.1-0.6-0.2-0.1-0.4c0.5-0.2,0.6-0.2,0.8-0.4c0.2-0.2,0.3-0.7,0.3-0.7s-0.7,0.2-0.5-0.3
	c0.1-0.5,0.3-0.6,0.6-0.3c0.3,0.3,0.5,0.5,0.5,0.5s0.4-0.4,0.6-0.4c0.1,0,0.2,0.4,0.4,0.1s0.5-0.6,0.7-0.4c0.1,0.2,0.8,0.3,0.5,0.5
	s-0.9,0.4-0.9,0.4c-0.2,0.3-0.2,0.3-0.2,0.3L75.6,48.2z"/>
<path class="st5" d="M74.6,47.6c-0.7-0.1-1.7-0.1-1.2-0.5c0.5-0.4,0.8-0.7,0.8-0.7s0.5-0.1,0.7,0.2C75.3,46.9,75.1,47.7,74.6,47.6z"
	/>
<path class="st3" d="M63.8,74.9c0.4,0.4,0.3,0.5,0.6,0.3c0.3-0.1,0.5-0.1,0.6-0.1c0.1-0.1,0.1,0.2,0.3,0c0.2-0.2,0.3-0.2,0.5-0.2
	c0.2,0,0.1-0.3,0.3,0.2c0.1,0.5,0.1,0.6,0.3,0.8c0.2,0.2,0.4,0.2,0.6,0.3c0.1,0.1,0.3-0.1,0.2,0.3c-0.1,0.4-0.2,0.7-0.2,0.7
	s0,0.4-0.1,0.8c-0.1,0.4-0.8,0.6-0.8,0.6c0,0.4-0.1,0.7-0.3,0.6c-0.2,0-0.7-0.3-0.8,0c-0.2,0.3-0.4,0.4-0.6,0.3s-0.2-0.2-0.5-0.1
	c-0.3,0.1-0.6,0.3-0.7,0.2c-0.1-0.1-0.4-0.3-0.6-0.6c-0.2-0.3-0.2-0.4-0.4-0.6c-0.2-0.1-0.3-0.4-0.4-0.5c-0.1-0.1-0.4-0.2-0.4-0.5
	s0.2-0.5,0.3-0.5s0.3-0.2,0.1-0.3s-0.6,0-0.5-0.4c0.1-0.4-0.1-0.4,0.1-0.6c0.2-0.2,0.3-0.2,0.5-0.2s0.4-0.1,0.5-0.2
	c0.1-0.1-0.2,0,0.1-0.1c0.2-0.1,0.1-0.1,0.4-0.2c0.3-0.1,0.4-0.2,0.4-0.2L63.8,74.9z"/>
<path class="st4" d="M64.4,75.6c0.1,0.1-0.2,0.4,0,0.6c0.2,0.1-0.2,0.2,0.2,0.1s0.5-0.1,0.6-0.3c0-0.3,0.1-0.8,0.2-0.6
	c0.2,0.2,0.5,0.5,0.3,0.7c-0.2,0.2-0.8,0.5-0.3,0.4c0.5,0,0.8-0.1,0.8-0.1s0.3,0.2,0.2,0.4c-0.1,0.2-0.6,0.2-0.7,0.3
	s-0.2,0.1-0.1,0.1s0.6,0.5,0.8,0.5c0.2,0.1,0.3,0.5-0.2,0.4c-0.5-0.1-0.6-0.3-0.9-0.3s-0.7,0.3-0.7,0.3s0.6,0.3,0.2,0.6
	s-0.6,0.2-0.6-0.2s0-0.7,0-0.7s-0.6,0-0.7-0.1c-0.1-0.1,0.2-0.4-0.2-0.4s-0.8,0-0.8-0.2c0-0.2-0.4-0.8,0-0.7
	c0.4,0.1,0.9,0.3,0.9,0.3c0.4-0.1,0.4-0.1,0.4-0.1L64.4,75.6z"/>
<path class="st5" d="M64.7,76.6c0.4,0.6,1.2,1.2,0.5,1.1s-1.1,0-1.1,0s-0.4-0.3-0.4-0.7S64.4,76.2,64.7,76.6z"/>
<path class="st3" d="M57.5,71.3c0.2-0.5,0.4-0.4,0.2-0.7c-0.2-0.2-0.2-0.5-0.3-0.5c-0.1-0.1,0.1-0.2-0.1-0.3
	c-0.2-0.2-0.2-0.3-0.3-0.4c-0.1-0.2-0.3-0.1,0.1-0.3c0.5-0.3,0.6-0.3,0.7-0.5s0.1-0.5,0.2-0.6c0.1-0.2-0.2-0.3,0.3-0.3
	c0.4,0,0.7,0,0.7,0s0.4-0.1,0.8-0.1c0.4,0,0.8,0.6,0.8,0.6c0.4-0.1,0.7-0.1,0.7,0.1c0,0.2-0.1,0.7,0.2,0.8c0.3,0.1,0.5,0.3,0.5,0.5
	s-0.2,0.3,0,0.6c0.2,0.3,0.4,0.5,0.3,0.6c-0.1,0.2-0.2,0.4-0.4,0.7c-0.2,0.3-0.4,0.3-0.4,0.5c-0.1,0.2-0.3,0.4-0.4,0.5
	c-0.1,0.2-0.1,0.5-0.4,0.5c-0.3,0-0.5,0-0.6-0.2s-0.2-0.2-0.3-0.1c-0.1,0.2,0.1,0.6-0.3,0.6c-0.4,0-0.4,0.2-0.6,0s-0.2-0.2-0.3-0.4
	c-0.1-0.2-0.2-0.4-0.3-0.4s0,0.2-0.1,0c-0.2-0.2-0.1-0.1-0.3-0.3s-0.3-0.3-0.3-0.3L57.5,71.3z"/>
<path class="st4" d="M58,70.6c0.1-0.1,0.5,0,0.6-0.1c0.1-0.2,0.2,0.2,0.1-0.2s-0.2-0.5-0.5-0.5s-0.8,0.1-0.6-0.1
	c0.2-0.2,0.4-0.6,0.6-0.5c0.3,0.1,0.7,0.7,0.5,0.1c-0.2-0.5-0.3-0.7-0.3-0.7s0.1-0.3,0.3-0.3c0.2,0,0.3,0.5,0.4,0.6s0.2,0.2,0.1,0.1
	c-0.1-0.1,0.3-0.7,0.3-0.9s0.4-0.4,0.4,0.1c0,0.5-0.1,0.6,0,0.9s0.5,0.6,0.5,0.6s0.1-0.7,0.5-0.3s0.4,0.6,0,0.7s-0.7,0.2-0.7,0.2
	s0.1,0.6,0.1,0.7s-0.4-0.1-0.3,0.3c0.1,0.4,0.2,0.7,0,0.8s-0.6,0.6-0.7,0.2s0.1-1,0.1-1c-0.2-0.3-0.2-0.3-0.2-0.3L58,70.6z"/>
<path class="st5" d="M59,70c0.4-0.5,0.8-1.4,1-0.8s0.2,1.1,0.2,1.1s-0.1,0.5-0.5,0.6S58.6,70.4,59,70z"/>
<path class="st3" d="M39.5,42.9c-0.1,0.2-0.2,0.8-0.4,0.9c-0.2,0.1-0.4,0.1-0.4,0.4c0,0.3-0.2,0.5,0,0.9c0.2,0.4,0.6,0.8,0.7,1
	c0,0.2-0.1,0.1,0.1,0.6c0.2,0.4,0.3,0.6,0.5,0.7s0.2,0.3,0.5,0.2c0.3-0.1,0.3-0.6,0.6-0.3c0.3,0.3,0.6,0.4,1,0.3
	c0.4-0.1,0.5,0,0.5-0.4s0-0.8,0-1.1s0.3-0.1,0-0.6c-0.3-0.5-0.4-0.8-0.3-0.9s0.1-0.3,0-0.5s0-0.1-0.4-0.3s-0.5,0-0.7-0.2
	s-0.5-0.5-0.6-0.5c0-0.1-0.3-0.4-0.5-0.2C40,43.1,39.5,42.9,39.5,42.9z"/>
<path class="st4" d="M40.5,44c0.1,0.1,0.5,0.8,0.5,1s-0.3,0.7,0,0.7c0.3,0,0.7-0.2,0.8,0c0.1,0.2,0.3,0.6,0.2,0.7
	c-0.1,0.1-0.5,0-0.7,0c-0.2,0-0.4-0.1-0.6,0c-0.2,0.1-0.5,0.1-0.7-0.2c-0.2-0.3-0.1-0.7,0-0.9c0.1-0.2,0-0.4-0.1-0.6
	c-0.1-0.1-0.2-0.1-0.2-0.3c0-0.2,0.1-0.3,0.3-0.3S40.5,44,40.5,44z"/>
<path class="st3" d="M54.6,37.9c0-0.2,0-0.8,0.2-1c0.2-0.1,0.4-0.2,0.4-0.5c0-0.3,0.1-0.6-0.1-0.9s-0.7-0.7-0.8-0.9
	c-0.1-0.2,0.1-0.2-0.2-0.5s-0.3-0.5-0.6-0.7c-0.2-0.1-0.2-0.3-0.5-0.2c-0.3,0.1-0.2,0.6-0.6,0.4c-0.4-0.2-0.7-0.3-1-0.2
	c-0.4,0.1-0.5,0.1-0.4,0.5c0.1,0.4,0.1,0.8,0.2,1.1s-0.3,0.1,0.1,0.6s0.5,0.8,0.5,0.9c0,0.1,0,0.4,0,0.5c0.1,0.1,0,0.1,0.4,0.2
	c0.4,0.1,0.5-0.1,0.7,0.1c0.2,0.2,0.6,0.4,0.6,0.5c0.1,0.1,0.4,0.3,0.5,0.1C54.1,37.8,54.6,37.9,54.6,37.9z"/>
<path class="st4" d="M53.4,37c-0.1-0.1-0.6-0.7-0.6-0.9s0.2-0.7-0.1-0.7c-0.3,0-0.7,0.3-0.8,0.1c-0.1-0.2-0.4-0.5-0.3-0.6
	s0.5,0,0.7-0.1c0.2-0.1,0.4,0,0.6-0.1c0.2-0.1,0.5-0.2,0.7,0.1s0.2,0.6,0.1,0.9c-0.1,0.2,0.1,0.4,0.2,0.6c0.1,0.1,0.2,0.1,0.2,0.3
	c0,0.2-0.1,0.3-0.3,0.3S53.4,37,53.4,37z"/>
<path class="st3" d="M49,71.6c0-0.2,0-0.8,0.2-1s0.4-0.2,0.4-0.5c0-0.3,0.1-0.6-0.1-0.9s-0.7-0.7-0.8-0.9c-0.1-0.2,0.1-0.2-0.2-0.5
	c-0.3-0.4-0.3-0.5-0.6-0.7c-0.2-0.1-0.2-0.3-0.5-0.2c-0.3,0.1-0.2,0.6-0.6,0.4c-0.4-0.2-0.7-0.3-1-0.2s-0.5,0.1-0.4,0.5
	c0.1,0.4,0.1,0.8,0.2,1.1c0,0.3-0.3,0.1,0.1,0.6c0.4,0.5,0.5,0.8,0.5,0.9s0,0.4,0,0.5c0.1,0.1,0,0.1,0.4,0.2
	c0.4,0.1,0.5-0.1,0.7,0.1c0.2,0.2,0.6,0.4,0.6,0.5c0.1,0.1,0.4,0.3,0.5,0.1C48.5,71.5,49,71.6,49,71.6z"/>
<path class="st4" d="M47.9,70.7c-0.1-0.1-0.6-0.7-0.6-0.9c0-0.2,0.2-0.7-0.1-0.7s-0.7,0.3-0.8,0.1c-0.1-0.2-0.4-0.5-0.3-0.6
	c0.1-0.1,0.5,0,0.7-0.1c0.2-0.1,0.4,0,0.6-0.1c0.2-0.1,0.5-0.2,0.7,0.1c0.2,0.3,0.2,0.6,0.1,0.9s0.1,0.4,0.2,0.6
	c0.1,0.1,0.2,0.1,0.2,0.3c0,0.2-0.1,0.3-0.3,0.3S47.9,70.7,47.9,70.7z"/>
<path class="st3" d="M55.5,66.2c0-0.2,0-0.8,0.2-1s0.4-0.2,0.4-0.5c0-0.3,0.1-0.6-0.1-0.9s-0.7-0.7-0.8-0.9
	c-0.1-0.2,0.1-0.2-0.2-0.5c-0.3-0.4-0.3-0.5-0.6-0.7c-0.2-0.1-0.2-0.3-0.5-0.2c-0.3,0.1-0.2,0.6-0.6,0.4c-0.4-0.2-0.7-0.3-1-0.2
	s-0.5,0.1-0.4,0.5c0.1,0.4,0.1,0.8,0.2,1.1s-0.3,0.1,0.1,0.6c0.4,0.5,0.5,0.8,0.5,0.9s0,0.4,0,0.5c0.1,0.1,0,0.1,0.4,0.2
	c0.4,0.1,0.5-0.1,0.7,0.1c0.2,0.2,0.6,0.4,0.6,0.5c0.1,0.1,0.4,0.3,0.5,0.1C55.1,66.1,55.5,66.2,55.5,66.2z"/>
<path class="st4" d="M54.4,65.3c-0.1-0.1-0.6-0.7-0.6-0.9c0-0.2,0.2-0.7-0.1-0.7c-0.3,0-0.7,0.3-0.8,0.1c-0.1-0.2-0.4-0.5-0.3-0.6
	c0.1-0.1,0.5,0,0.7-0.1c0.2-0.1,0.4,0,0.6-0.1c0.2-0.1,0.5-0.2,0.7,0.1c0.2,0.3,0.2,0.6,0.1,0.9c-0.1,0.2,0.1,0.4,0.2,0.6
	c0.1,0.1,0.2,0.1,0.2,0.3c0,0.2-0.1,0.3-0.3,0.3S54.4,65.3,54.4,65.3z"/>
<path class="st3" d="M51,51.8c0-0.2,0-0.8,0.2-1c0.2-0.1,0.4-0.2,0.4-0.5c0-0.3,0.1-0.6-0.1-0.9s-0.7-0.7-0.8-0.9
	c-0.1-0.2,0.1-0.2-0.2-0.5c-0.3-0.4-0.3-0.5-0.6-0.7c-0.2-0.1-0.2-0.3-0.5-0.2c-0.3,0.1-0.2,0.6-0.6,0.4c-0.4-0.2-0.7-0.3-1-0.2
	c-0.4,0.1-0.5,0.1-0.4,0.5c0.1,0.4,0.1,0.8,0.2,1.1s-0.3,0.1,0.1,0.6c0.4,0.5,0.5,0.8,0.5,0.9s0,0.4,0,0.5c0.1,0.1,0,0.1,0.4,0.2
	c0.4,0.1,0.5-0.1,0.7,0.1s0.6,0.4,0.6,0.5c0.1,0.1,0.4,0.3,0.5,0.1C50.5,51.7,51,51.8,51,51.8z"/>
<path class="st4" d="M49.9,50.8c-0.1-0.1-0.6-0.7-0.6-0.9s0.2-0.7-0.1-0.7c-0.3,0-0.7,0.3-0.8,0.1s-0.4-0.5-0.3-0.6
	c0.1-0.1,0.5,0,0.7-0.1c0.2-0.1,0.4,0,0.6-0.1c0.2-0.1,0.5-0.2,0.7,0.1c0.2,0.3,0.2,0.6,0.1,0.9c-0.1,0.2,0.1,0.4,0.2,0.6
	c0.1,0.1,0.2,0.1,0.2,0.3c0,0.2-0.1,0.3-0.3,0.3S49.9,50.8,49.9,50.8z"/>
<path class="st3" d="M64.2,38.8c-0.2,0-0.8,0.1-1,0s-0.3-0.3-0.5-0.3s-0.6,0-0.8,0.3c-0.3,0.3-0.6,0.9-0.7,1c-0.2,0.1-0.2,0-0.5,0.3
	c-0.3,0.4-0.4,0.5-0.5,0.7s-0.2,0.3,0,0.6c0.2,0.3,0.6,0.1,0.5,0.5c-0.1,0.4-0.2,0.7,0,1c0.2,0.3,0.2,0.4,0.6,0.3
	c0.4-0.1,0.8-0.3,1.1-0.4s0.2,0.2,0.6-0.2c0.4-0.5,0.6-0.6,0.8-0.6c0.1,0,0.3-0.1,0.5-0.1c0.1-0.1,0.1-0.1,0.1-0.4s-0.2-0.5,0-0.7
	s0.3-0.6,0.3-0.7s0.2-0.4,0-0.5C64.2,39.3,64.2,38.8,64.2,38.8z"/>
<path class="st4" d="M63.5,40.1c0,0.2-0.6,0.7-0.7,0.8s-0.7,0-0.6,0.2c0.1,0.3,0.4,0.6,0.3,0.8s-0.4,0.5-0.6,0.4s-0.2-0.5-0.2-0.7
	c-0.1-0.2-0.1-0.4-0.2-0.5s-0.3-0.5-0.1-0.7c0.3-0.3,0.6-0.3,0.8-0.3c0.2,0,0.4-0.2,0.5-0.3c0.1-0.1,0-0.2,0.2-0.3
	c0.2,0,0.3,0,0.4,0.2C63.2,39.8,63.5,40.1,63.5,40.1z"/>
<path class="st3" d="M64.1,35.4c0.2,0.1,0.8,0.3,0.9,0.5c0.1,0.2,0.1,0.4,0.3,0.5c0.3,0.1,0.5,0.2,0.9,0.1s0.9-0.5,1.1-0.5
	s0.1,0.1,0.6-0.1s0.6-0.2,0.8-0.4c0.2-0.2,0.3-0.1,0.3-0.5c0-0.3-0.5-0.4-0.2-0.7c0.3-0.3,0.5-0.6,0.4-0.9c0-0.4,0-0.5-0.4-0.5
	c-0.4,0-0.8-0.1-1.1-0.1c-0.3,0-0.1-0.3-0.6-0.1c-0.6,0.2-0.9,0.3-1,0.2c-0.1,0-0.3-0.1-0.5-0.1c-0.1,0-0.1,0-0.3,0.3
	c-0.2,0.3-0.1,0.5-0.3,0.6s-0.5,0.5-0.6,0.5s-0.4,0.3-0.2,0.5C64.4,35,64.1,35.4,64.1,35.4z"/>
<path class="st4" d="M65.3,34.6c0.1-0.1,0.9-0.4,1-0.4c0.2,0,0.6,0.3,0.7,0.1s-0.1-0.8,0.1-0.8c0.2-0.1,0.6-0.2,0.7-0.1
	c0.1,0.1-0.1,0.5-0.1,0.7c0,0.2-0.1,0.4,0,0.6c0.1,0.2,0.1,0.6-0.3,0.7c-0.3,0.1-0.7,0-0.9-0.1c-0.2-0.1-0.4,0-0.6,0
	c-0.1,0-0.1,0.2-0.3,0.1c-0.2-0.1-0.3-0.2-0.2-0.3S65.3,34.6,65.3,34.6z"/>
<path class="st3" d="M74,52.2c0.2,0.1,0.8,0.3,0.9,0.5c0.1,0.2,0.1,0.4,0.3,0.5c0.3,0.1,0.5,0.2,0.9,0.1c0.4-0.1,0.9-0.5,1.1-0.5
	c0.2,0,0.1,0.1,0.6-0.1c0.5-0.2,0.6-0.2,0.8-0.4c0.2-0.2,0.3-0.1,0.3-0.5c0-0.3-0.5-0.4-0.2-0.7s0.5-0.6,0.4-0.9
	c0-0.4,0-0.5-0.4-0.5c-0.4,0-0.8-0.1-1.1-0.1s-0.1-0.3-0.6-0.1s-0.9,0.3-1,0.2c-0.1,0-0.3-0.1-0.5-0.1c-0.1,0-0.1,0-0.3,0.3
	c-0.2,0.3-0.1,0.5-0.3,0.6s-0.5,0.5-0.6,0.5c-0.1,0-0.4,0.3-0.2,0.5C74.3,51.8,74,52.2,74,52.2z"/>
<path class="st4" d="M75.2,51.4c0.1-0.1,0.9-0.4,1-0.4c0.2,0,0.6,0.3,0.7,0.1s-0.1-0.8,0.1-0.8s0.6-0.2,0.7-0.1
	c0.1,0.1-0.1,0.5-0.1,0.7s-0.1,0.4,0,0.6c0.1,0.2,0.1,0.6-0.3,0.7c-0.3,0.1-0.7,0-0.9-0.1c-0.2-0.1-0.4,0-0.6,0
	c-0.1,0-0.1,0.2-0.3,0.1c-0.2-0.1-0.3-0.2-0.2-0.3C75.4,51.7,75.2,51.4,75.2,51.4z"/>
<path class="st3" d="M64.1,64.9c0.2,0.1,0.8,0.3,0.9,0.5c0.1,0.2,0.1,0.4,0.3,0.5c0.3,0.1,0.5,0.2,0.9,0.1s0.9-0.5,1.1-0.5
	s0.1,0.1,0.6-0.1c0.5-0.2,0.6-0.2,0.8-0.4s0.3-0.1,0.3-0.5c0-0.3-0.5-0.4-0.2-0.7s0.5-0.6,0.4-0.9c0-0.4,0-0.5-0.4-0.5
	c-0.4,0-0.8-0.1-1.1-0.1s-0.1-0.3-0.6-0.1c-0.6,0.2-0.9,0.3-1,0.2c-0.1,0-0.3-0.1-0.5-0.1c-0.1,0-0.1,0-0.3,0.3
	c-0.2,0.3-0.1,0.5-0.3,0.6s-0.5,0.5-0.6,0.5s-0.4,0.3-0.2,0.5C64.4,64.5,64.1,64.9,64.1,64.9z"/>
<path class="st4" d="M65.3,64.1c0.1-0.1,0.9-0.4,1-0.4c0.2,0,0.6,0.3,0.7,0.1s-0.1-0.8,0.1-0.8s0.6-0.2,0.7-0.1
	c0.1,0.1-0.1,0.5-0.1,0.7c0,0.2-0.1,0.4,0,0.6c0.1,0.2,0.1,0.6-0.3,0.7c-0.3,0.1-0.7,0-0.9-0.1s-0.4,0-0.6,0c-0.1,0-0.1,0.2-0.3,0.1
	c-0.2-0.1-0.3-0.2-0.2-0.3C65.4,64.5,65.3,64.1,65.3,64.1z"/>
<path class="st3" d="M27.7,53.2c0.2,0.1,0.8,0.3,0.9,0.5s0.1,0.4,0.3,0.5s0.5,0.2,0.9,0.1s0.9-0.5,1.1-0.5s0.1,0.1,0.6-0.1
	s0.6-0.2,0.8-0.4c0.2-0.2,0.3-0.1,0.3-0.5c0-0.3-0.5-0.4-0.2-0.7c0.3-0.3,0.5-0.6,0.4-0.9c0-0.4,0-0.5-0.4-0.5
	c-0.4,0-0.8-0.1-1.1-0.1c-0.3,0-0.1-0.3-0.6-0.1s-0.9,0.3-1,0.2c-0.1,0-0.3-0.1-0.5-0.1c-0.1,0-0.1,0-0.3,0.3
	c-0.2,0.3-0.1,0.5-0.3,0.6s-0.5,0.5-0.6,0.5c-0.1,0-0.4,0.3-0.2,0.5C28,52.8,27.7,53.2,27.7,53.2z"/>
<path class="st4" d="M28.9,52.4c0.1-0.1,0.9-0.4,1-0.4c0.2,0,0.6,0.3,0.7,0.1s-0.1-0.8,0.1-0.8c0.2-0.1,0.6-0.2,0.7-0.1
	c0.1,0.1-0.1,0.5-0.1,0.7s-0.1,0.4,0,0.6c0.1,0.2,0.1,0.6-0.3,0.7s-0.7,0-0.9-0.1c-0.2-0.1-0.4,0-0.6,0c-0.1,0-0.1,0.2-0.3,0.1
	c-0.2-0.1-0.3-0.2-0.2-0.3C29.1,52.7,28.9,52.4,28.9,52.4z"/>
<path class="st3" d="M68.3,62.7C68,63,67.9,63.3,68,63.6c0.1,0.3,0,0.5-0.1,0.7s-0.3,0.4,0.1,0.6c0.3,0.2,0.7,0.3,0.6,0.7
	c0,0.3-0.3,0.5,0,0.7c0.3,0.2,1.4,0.3,1.4,0.3s-0.1,0.4,0.3,0.3s0.3-0.1,0.5-0.4c0.2-0.3,0.2,0,0.5-0.1s0.6,0.1,0.7-0.1
	c0.1-0.2,0.3-0.4,0.3-0.5s-0.1-0.2,0.3-0.4c0.4-0.2,0.6-0.2,0.6-0.5c0-0.3,0-0.2,0-0.5c0-0.2,0.1-0.1,0.3-0.4c0.2-0.3,0.5-0.6,0.4-1
	c-0.1-0.3-0.3-0.5-0.6-0.4c-0.3,0.1-0.7,0.5-0.7-0.2c0-0.7,0-1-0.2-1.1c-0.2-0.1-0.8,0.2-1,0.4c-0.2,0.1-0.4,0.2-0.6,0.1
	s-0.6-0.3-0.6-0.1c-0.1,0.2,0,0.4-0.4,0.3s-0.6,0-0.6,0.2c0,0.1-0.1,0.4-0.1,0.4L68.3,62.7z"/>
<path class="st4" d="M68.7,63.2c0.4,0.3,0.5,0.6,0.8,0.3c0.4-0.2,0.4-0.4,0.5-0.8s0.4-0.6,0.6-0.3c0.1,0.3,0.4,0.9,0.5,0.6
	c0.1-0.3,0.3-0.6,0.5-0.7c0.2-0.1,0.7,0,0.5,0.3c-0.2,0.3-0.6,0.4-0.4,0.7c0.2,0.3-0.1,0.2,0.1,0.6s-0.1,1.1-0.2,1.1
	c-0.1,0-0.2-0.5-0.7-0.5c-0.5,0.1-0.6,0-0.7,0.4c-0.1,0.4-0.4,0.8-0.7,0.6c-0.3-0.2-0.4-0.2-0.3-0.6c0.1-0.4,0.5-0.1,0.1-0.4
	c-0.4-0.3-0.9-0.5-0.9-0.5s0.5,0,0.7-0.1C69.4,64.1,68.7,63.2,68.7,63.2z"/>
<path class="st5" d="M70.3,63.4c0.5-0.4,1-0.5,1,0.3c0,0.8-0.1,1.5-0.6,1.5S68.9,64.4,70.3,63.4z"/>
<path class="st3" d="M37.5,60c-0.3,0.3-0.4,0.5-0.3,0.8c0.1,0.3,0,0.5-0.1,0.7c-0.1,0.2-0.3,0.4,0.1,0.6c0.3,0.2,0.7,0.3,0.6,0.7
	s-0.3,0.5,0,0.7c0.3,0.2,1.4,0.3,1.4,0.3s-0.1,0.4,0.3,0.3c0.3-0.1,0.3-0.1,0.5-0.4c0.2-0.3,0.2,0,0.5-0.1s0.6,0.1,0.7-0.1
	c0.1-0.2,0.3-0.4,0.3-0.5c0-0.1-0.1-0.2,0.3-0.4c0.4-0.2,0.6-0.2,0.6-0.5s0-0.2,0-0.5c0-0.2,0.1-0.1,0.3-0.4c0.2-0.3,0.5-0.6,0.4-1
	c-0.1-0.3-0.3-0.5-0.6-0.4c-0.3,0.1-0.7,0.5-0.7-0.2c0-0.7,0-1-0.2-1.1c-0.2-0.1-0.8,0.2-1,0.4c-0.2,0.1-0.4,0.2-0.6,0.1
	c-0.2-0.1-0.6-0.3-0.6-0.1c-0.1,0.2,0,0.4-0.4,0.3s-0.6,0-0.6,0.2c0,0.1-0.1,0.4-0.1,0.4L37.5,60z"/>
<path class="st4" d="M37.9,60.5c0.4,0.3,0.5,0.6,0.8,0.3c0.4-0.2,0.4-0.4,0.5-0.8c0.2-0.5,0.4-0.6,0.6-0.3c0.1,0.3,0.4,0.9,0.5,0.6
	c0.1-0.3,0.3-0.6,0.5-0.7s0.7,0,0.5,0.3c-0.2,0.3-0.6,0.4-0.4,0.7c0.2,0.3-0.1,0.2,0.1,0.6c0.2,0.5-0.1,1.1-0.2,1.1
	c-0.1,0-0.2-0.5-0.7-0.5s-0.6,0-0.7,0.4c-0.1,0.4-0.4,0.8-0.7,0.6c-0.3-0.2-0.4-0.2-0.3-0.6s0.5-0.1,0.1-0.4s-0.9-0.5-0.9-0.5
	s0.5,0,0.7-0.1S37.9,60.5,37.9,60.5z"/>
<path class="st5" d="M39.4,60.6c0.5-0.4,1-0.5,1,0.3s-0.1,1.5-0.6,1.5S38.1,61.6,39.4,60.6z"/>
<path class="st3" d="M72.3,53.2c-0.4-0.1-0.7,0-0.9,0.2c-0.2,0.2-0.4,0.2-0.6,0.2c-0.2,0-0.5,0-0.5,0.4s0.1,0.7-0.2,0.9
	c-0.3,0.2-0.5,0-0.5,0.4s0.5,1.3,0.5,1.3S69.7,56.8,70,57s0.3,0.2,0.6,0.2s0.1,0.2,0.3,0.4c0.2,0.2,0.2,0.5,0.5,0.5
	c0.2,0,0.5,0.1,0.6,0c0.1-0.1,0.1-0.2,0.4,0s0.5,0.4,0.7,0.2c0.2-0.1,0.2-0.1,0.4-0.3c0.2-0.1,0.1,0,0.5,0s0.8,0.1,1-0.2
	c0.2-0.2,0.3-0.5,0-0.7c-0.3-0.2-0.8-0.3-0.3-0.7c0.6-0.4,0.9-0.5,0.8-0.8c0-0.3-0.6-0.6-0.9-0.7c-0.2-0.1-0.4-0.3-0.4-0.4
	s0-0.6-0.3-0.6c-0.2,0.1-0.4,0.2-0.5-0.2s-0.4-0.5-0.5-0.4c-0.1,0.1-0.4,0.2-0.4,0.2L72.3,53.2z"/>
<path class="st4" d="M72.1,53.8c0,0.5-0.2,0.7,0.2,0.9s0.5,0.1,1,0s0.7,0,0.5,0.3c-0.2,0.3-0.5,0.8-0.2,0.8s0.7-0.1,0.9,0
	c0.2,0.1,0.3,0.6,0,0.6c-0.3,0-0.7-0.3-0.8,0c-0.2,0.3-0.2,0-0.5,0.4c-0.3,0.4-1,0.5-1,0.4c0-0.1,0.3-0.5,0-0.9
	c-0.3-0.4-0.3-0.5-0.7-0.4s-0.9,0.1-0.9-0.2s0-0.4,0.4-0.6c0.4-0.1,0.4,0.4,0.4-0.1c0.1-0.5-0.1-1-0.1-1s0.3,0.4,0.4,0.6
	C71.8,54.9,72.1,53.8,72.1,53.8z"/>
<path class="st5" d="M72.8,55.2c0.6,0.2,1,0.5,0.3,1c-0.7,0.4-1.3,0.8-1.5,0.3C71.3,56,71.2,54.6,72.8,55.2z"/>
<path class="st3" d="M80.5,62.5c0.4-0.2,0.5-0.4,0.6-0.7c0-0.3,0.2-0.4,0.3-0.6s0.4-0.3,0.1-0.6c-0.2-0.3-0.5-0.5-0.4-0.8
	c0.1-0.3,0.4-0.3,0.2-0.7s-1.3-0.7-1.3-0.7s0.2-0.4-0.2-0.4c-0.4,0-0.3,0-0.6,0.2s-0.2,0-0.5-0.1c-0.3-0.1-0.5-0.3-0.7-0.1
	c-0.2,0.1-0.4,0.3-0.5,0.4c-0.1,0.1,0.1,0.2-0.4,0.3c-0.4,0-0.6,0-0.7,0.3c-0.1,0.3,0,0.2-0.1,0.4s-0.1,0.1-0.4,0.3
	c-0.3,0.2-0.7,0.5-0.7,0.8c0,0.3,0.1,0.6,0.4,0.5c0.3,0,0.8-0.3,0.6,0.4c-0.2,0.7-0.3,1-0.1,1.1c0.2,0.2,0.8,0,1.1,0
	c0.2-0.1,0.5-0.1,0.6,0.1s0.4,0.5,0.6,0.3c0.1-0.2,0.2-0.4,0.5-0.2c0.3,0.2,0.6,0.2,0.6,0c0-0.1,0.2-0.4,0.2-0.4L80.5,62.5z"/>
<path class="st4" d="M80.3,61.9c-0.3-0.4-0.3-0.7-0.7-0.6c-0.4,0.1-0.5,0.2-0.8,0.6c-0.3,0.4-0.6,0.5-0.6,0.1c0-0.4-0.1-1-0.3-0.8
	c-0.2,0.2-0.5,0.5-0.7,0.6c-0.2,0-0.6-0.2-0.4-0.5s0.7-0.2,0.6-0.6s0.1-0.1,0.1-0.6c0-0.5,0.5-1,0.5-1c0.1,0,0,0.6,0.6,0.7
	s0.6,0.2,0.8-0.1c0.2-0.4,0.6-0.7,0.8-0.4s0.3,0.3,0,0.7c-0.3,0.4-0.5-0.1-0.3,0.4s0.7,0.7,0.7,0.7s-0.5-0.1-0.7-0.2
	S80.3,61.9,80.3,61.9z"/>
<path class="st5" d="M78.8,61.2c-0.6,0.2-1.1,0.2-0.8-0.6c0.2-0.8,0.5-1.4,1-1.2S80.5,60.7,78.8,61.2z"/>
<path class="st3" d="M51.5,59.8c-0.2-0.4-0.4-0.5-0.7-0.6s-0.4-0.2-0.6-0.3c-0.1-0.2-0.3-0.4-0.6-0.1s-0.5,0.5-0.8,0.4
	c-0.3-0.1-0.3-0.4-0.7-0.2c-0.3,0.3-0.7,1.3-0.7,1.3S47,60,47,60.4c0,0.4,0,0.3,0.2,0.6s0,0.2-0.1,0.5c-0.1,0.3-0.3,0.5-0.1,0.7
	c0.1,0.2,0.3,0.4,0.4,0.5c0.1,0.1,0.2-0.1,0.3,0.4s0,0.6,0.3,0.7c0.3,0.1,0.2,0,0.4,0.1s0.1,0.1,0.3,0.4c0.2,0.3,0.5,0.7,0.8,0.7
	c0.3,0,0.6-0.1,0.5-0.4s-0.3-0.8,0.4-0.6c0.7,0.2,1,0.3,1.1,0.1c0.2-0.2,0-0.8,0-1.1c-0.1-0.2-0.1-0.5,0.1-0.6
	c0.1-0.1,0.5-0.4,0.3-0.6s-0.4-0.2-0.2-0.5c0.2-0.3,0.2-0.6,0-0.6s-0.4-0.2-0.4-0.2L51.5,59.8z"/>
<path class="st4" d="M50.9,60c-0.4,0.3-0.7,0.3-0.6,0.7c0.1,0.4,0.2,0.5,0.6,0.7c0.4,0.3,0.5,0.6,0.1,0.6c-0.4,0-1,0.1-0.8,0.3
	c0.2,0.2,0.5,0.5,0.6,0.7c0,0.2-0.2,0.6-0.5,0.4c-0.2-0.2-0.2-0.7-0.6-0.6s-0.1-0.1-0.6-0.1c-0.5,0-1-0.5-1-0.5c0-0.1,0.6,0,0.7-0.6
	s0.2-0.6-0.1-0.8c-0.4-0.2-0.7-0.6-0.4-0.8c0.3-0.2,0.3-0.3,0.7,0c0.4,0.3,0,0.5,0.4,0.3s0.7-0.7,0.7-0.7s-0.1,0.5-0.2,0.7
	C49.8,60.4,50.9,60,50.9,60z"/>
<path class="st5" d="M50.2,61.5c0.2,0.6,0.2,1.1-0.6,0.9c-0.8-0.2-1.4-0.5-1.2-1C48.7,60.9,49.7,59.8,50.2,61.5z"/>
<path class="st3" d="M57.5,57.8c0.2-0.1,0.6-0.1,0.7,0.3c0,0.4,0.4,0,0.8,0c0.4,0,0.7-0.2,0.7,0.2s-0.3,0.9,0,0.9
	c0.3,0,0.8-0.2,0.9,0c0.2,0.2,0.7,0.1,0.5,0.5s-0.3,0.8-0.3,0.8c0.9,0.7,1.4,0.8,0.7,1.4c-0.7,0.5-1.1,0.6-1.2,0.6s0,0-0.3,0.8
	c-0.2,0.8,0,1.2-0.6,1c-0.5-0.2-0.7-0.8-0.9-0.6c-0.2,0.2-0.3,0.5-0.8,0.4c-0.4-0.2-0.6-0.9-0.6-0.9s0.3,0.2-0.4,0.3
	c-0.7,0.2-0.7,0.3-0.9-0.2c-0.2-0.4-0.2-1.2-0.7-1.2c-0.5,0-0.8-0.1-0.8-0.5c0-0.4,0.3-0.6,0.4-0.7c0-0.2-0.3-0.5,0-0.8
	s0.7-0.2,0.7-0.6c0-0.4-0.3-0.4,0.1-0.6c0.4-0.2,0.4-0.2,0.8-0.2c0.3,0,0.6,0,0.7-0.2C57.1,58.3,57.5,57.8,57.5,57.8z"/>
<path class="st4" d="M58.5,58.8c0,0-0.2,0.3,0.2,0.6c0.4,0.3,0.7,0.2,0.9,0.2c0.2,0.1,1.1,0.3,0.5,0.7C59.7,60.6,59.1,61,59,61
	c0,0,1.5,0,1.3,0.4s-0.1,1-0.7,0.9c-0.7-0.1-0.5-0.1-1.2,0s-0.8,0.2-0.9,0c-0.2-0.2-0.3-0.8-0.8-0.7c-0.5,0.1-0.8,0.1-1,0
	s-0.6-0.8-0.3-0.9c0.3-0.1,0.8-0.1,1-0.2s0.6,0,0.6-0.4c0-0.5,0-1,0-1s0.1,0.5,0.2,0.5s0.4-0.4,0.4-0.4s0,0.4,0.2,0.5
	S58.5,58.8,58.5,58.8z"/>
<path class="st5" d="M58.6,60c0.6,0.3,1,1.1,0,1.7c-1,0.6-2.1,0-1.8-0.8C57.1,60,57.7,59.5,58.6,60z"/>
<path class="st3" d="M46.5,30.5c0.2-0.1,0.5-0.1,0.6,0.2c0,0.3,0.3,0,0.7,0c0.4,0,0.6-0.2,0.6,0.1c0,0.3-0.3,0.8,0,0.8
	s0.7-0.2,0.8,0c0.1,0.2,0.6,0.1,0.4,0.5c-0.1,0.4-0.2,0.7-0.2,0.7c0.8,0.6,1.2,0.7,0.6,1.2c-0.6,0.5-1,0.5-1.1,0.5
	c-0.1,0,0,0-0.3,0.7c-0.2,0.7,0,1-0.5,0.8c-0.5-0.2-0.6-0.7-0.8-0.5s-0.3,0.5-0.7,0.3s-0.5-0.8-0.5-0.8s0.3,0.1-0.3,0.3
	c-0.6,0.2-0.6,0.2-0.8-0.1s-0.2-1-0.6-1s-0.7-0.1-0.7-0.4c0-0.3,0.3-0.5,0.3-0.6s-0.3-0.4,0-0.7c0.3-0.3,0.6-0.2,0.6-0.5
	c0-0.4-0.3-0.4,0.1-0.5s0.4-0.2,0.7-0.2c0.3,0,0.5,0,0.6-0.1C46.2,31,46.5,30.5,46.5,30.5z"/>
<path class="st4" d="M47.4,31.4c0,0-0.2,0.2,0.2,0.5c0.3,0.3,0.6,0.1,0.8,0.2c0.2,0.1,0.9,0.3,0.5,0.6c-0.5,0.3-1,0.6-1,0.6
	s1.3,0,1.2,0.4c-0.2,0.4-0.1,0.8-0.6,0.8s-0.4-0.1-1,0c-0.6,0.1-0.7,0.2-0.8,0c-0.2-0.2-0.3-0.7-0.7-0.6c-0.4,0.1-0.7,0.1-0.8,0
	c-0.1-0.1-0.5-0.7-0.3-0.8c0.3-0.1,0.7-0.1,0.8-0.2c0.1-0.1,0.5,0,0.5-0.4s0-0.8,0-0.8s0.1,0.4,0.2,0.4c0.1,0,0.4-0.3,0.4-0.3
	s0,0.4,0.2,0.4C47.1,32.2,47.4,31.4,47.4,31.4z"/>
<path class="st5" d="M47.5,32.5c0.5,0.3,0.9,1,0,1.5s-1.8,0-1.6-0.7C46.1,32.4,46.7,32.1,47.5,32.5z"/>
<path class="st3" d="M60.7,48.5c-0.1-0.1-0.2-0.5,0.1-0.6c0.3-0.1-0.1-0.3-0.2-0.7c-0.1-0.4-0.3-0.5,0-0.6s0.8,0.1,0.7-0.2
	c-0.1-0.3-0.3-0.6-0.2-0.8c0.1-0.2-0.1-0.6,0.3-0.5c0.4,0,0.7,0,0.7,0c0.4-0.9,0.4-1.3,1-0.9s0.8,0.8,0.8,0.9c0,0.1,0,0,0.7,0.1
	c0.7,0,1-0.3,0.9,0.2c-0.1,0.5-0.5,0.8-0.3,0.9c0.2,0.2,0.5,0.2,0.5,0.6c0,0.4-0.6,0.7-0.6,0.7s0.1-0.3,0.4,0.2
	c0.3,0.5,0.4,0.6,0.1,0.8c-0.3,0.2-0.9,0.4-0.9,0.8s0.1,0.7-0.2,0.8c-0.3,0.1-0.6-0.2-0.7-0.2c-0.1,0-0.3,0.4-0.7,0.1
	c-0.3-0.3-0.3-0.5-0.7-0.4c-0.4,0.1-0.3,0.4-0.5,0.1c-0.2-0.3-0.3-0.3-0.4-0.6c-0.1-0.3-0.2-0.5-0.3-0.5
	C61.2,48.7,60.7,48.5,60.7,48.5z"/>
<path class="st4" d="M61.3,47.4c0,0,0.3,0.1,0.5-0.3c0.2-0.4,0-0.6,0-0.8c0-0.2,0-1,0.4-0.6c0.4,0.4,0.8,0.8,0.8,0.8
	c0,0-0.4-1.3,0-1.2c0.4,0.1,0.8-0.2,0.9,0.4s0,0.4,0.3,1c0.2,0.5,0.3,0.6,0.2,0.8c-0.1,0.2-0.6,0.4-0.4,0.8c0.2,0.4,0.2,0.7,0.2,0.8
	s-0.5,0.7-0.7,0.5s-0.3-0.7-0.4-0.8s-0.1-0.5-0.5-0.4s-0.8,0.3-0.8,0.3s0.4-0.2,0.4-0.3S61.8,48,61.8,48s0.4-0.1,0.4-0.3
	S61.3,47.4,61.3,47.4z"/>
<path class="st5" d="M62.3,47.1c0.1-0.6,0.7-1.1,1.4-0.4c0.7,0.7,0.5,1.7-0.3,1.7C62.6,48.4,62.1,47.9,62.3,47.1z"/>
<path class="st3" d="M40.2,66.6c0.1-0.2,0.3-0.4,0.6-0.2c0.3,0.2,0.2-0.3,0.5-0.5c0.3-0.2,0.3-0.5,0.5-0.3c0.3,0.2,0.3,0.7,0.5,0.6
	c0.2-0.2,0.4-0.6,0.6-0.6c0.2,0,0.5-0.3,0.6,0c0.2,0.4,0.3,0.7,0.3,0.7c1-0.1,1.4-0.3,1.3,0.5c-0.1,0.8-0.3,1.1-0.4,1.1
	c-0.1,0.1-0.1,0,0.3,0.7c0.3,0.7,0.7,0.8,0.2,0.9c-0.5,0.2-0.9-0.1-1,0.2c0,0.3,0.1,0.5-0.3,0.7s-0.9-0.2-0.9-0.2s0.3-0.1,0,0.4
	c-0.3,0.5-0.3,0.6-0.6,0.4s-0.8-0.6-1.1-0.4c-0.3,0.3-0.6,0.4-0.8,0.1c-0.2-0.3-0.1-0.6-0.2-0.7c-0.1-0.1-0.5-0.1-0.4-0.5
	c0.1-0.4,0.3-0.5,0-0.8c-0.3-0.3-0.4-0.1-0.3-0.4c0.1-0.4,0.1-0.4,0.3-0.6s0.4-0.4,0.3-0.5C40.3,67.2,40.2,66.6,40.2,66.6z"/>
<path class="st4" d="M41.5,66.6c0,0,0,0.3,0.5,0.3c0.5,0,0.5-0.3,0.7-0.4s0.9-0.4,0.7,0.1s-0.3,1.1-0.3,1.1c0,0,1-0.9,1.1-0.5
	c0.1,0.4,0.5,0.6,0.1,1c-0.5,0.3-0.4,0.2-0.7,0.7c-0.4,0.5-0.4,0.6-0.6,0.6c-0.2,0-0.7-0.3-0.9,0S41.6,70,41.4,70
	c-0.2,0-0.9-0.1-0.8-0.4s0.4-0.6,0.5-0.7s0.4-0.3,0.1-0.6c-0.3-0.3-0.6-0.6-0.6-0.6s0.4,0.2,0.4,0.2c0.1-0.1,0-0.5,0-0.5
	s0.2,0.3,0.5,0.2C41.8,67.4,41.5,66.6,41.5,66.6z"/>
<path class="st5" d="M42.3,67.4c0.6-0.2,1.3,0.1,1,1.1c-0.3,1-1.3,1.3-1.6,0.6C41.3,68.3,41.4,67.6,42.3,67.4z"/>
<path class="st3" d="M66.9,37.4c0.1-0.2,0.3-0.4,0.6-0.2c0.3,0.2,0.2-0.3,0.5-0.5c0.3-0.2,0.3-0.5,0.5-0.3c0.3,0.2,0.3,0.7,0.5,0.6
	c0.2-0.2,0.4-0.6,0.6-0.6c0.2,0,0.5-0.3,0.6,0s0.3,0.7,0.3,0.7c1-0.1,1.4-0.3,1.3,0.5s-0.3,1.1-0.4,1.1s-0.1,0,0.3,0.7
	c0.3,0.7,0.7,0.8,0.2,0.9c-0.5,0.2-0.9-0.1-1,0.2c0,0.3,0.1,0.5-0.3,0.7s-0.9-0.2-0.9-0.2s0.3-0.1,0,0.4c-0.3,0.5-0.3,0.6-0.6,0.4
	c-0.4-0.2-0.8-0.6-1.1-0.4c-0.3,0.3-0.6,0.4-0.8,0.1C67,41.3,67.1,41,67,40.9s-0.5-0.1-0.4-0.5c0.1-0.4,0.3-0.5,0-0.8
	s-0.4-0.1-0.3-0.4s0.1-0.4,0.3-0.6S67,38.2,67,38C66.9,37.9,66.9,37.4,66.9,37.4z"/>
<path class="st4" d="M68.2,37.4c0,0,0,0.3,0.5,0.3c0.5,0,0.5-0.3,0.7-0.4s0.9-0.4,0.7,0.1s-0.3,1.1-0.3,1.1c0,0,1-0.9,1.1-0.5
	c0.1,0.4,0.5,0.6,0.1,1s-0.4,0.2-0.7,0.7c-0.4,0.5-0.4,0.6-0.6,0.6c-0.2,0-0.7-0.3-0.9,0s-0.5,0.5-0.6,0.6c-0.2,0-0.9-0.1-0.8-0.4
	c0.1-0.3,0.4-0.6,0.5-0.7s0.4-0.3,0.1-0.6c-0.3-0.3-0.6-0.6-0.6-0.6s0.4,0.2,0.4,0.2c0.1-0.1,0-0.5,0-0.5s0.2,0.3,0.5,0.2
	S68.2,37.4,68.2,37.4z"/>
<path class="st5" d="M68.9,38.1c0.6-0.2,1.3,0.1,1,1.1c-0.3,1-1.3,1.3-1.6,0.6C67.9,39,68.1,38.4,68.9,38.1z"/>
<path class="st3" d="M53.8,40.1c0.1-0.2,0.4-0.5,0.7-0.3c0.3,0.3,0.3-0.3,0.6-0.6c0.3-0.3,0.3-0.6,0.6-0.4c0.3,0.2,0.4,0.8,0.6,0.6
	c0.2-0.2,0.4-0.7,0.7-0.6c0.2,0,0.5-0.4,0.7,0s0.4,0.8,0.4,0.8c1.1-0.1,1.6-0.3,1.4,0.5c-0.1,0.9-0.4,1.2-0.5,1.3s-0.1,0,0.3,0.8
	c0.4,0.8,0.8,0.9,0.3,1.1c-0.5,0.2-1.1-0.1-1.1,0.2s0.1,0.6-0.3,0.8c-0.4,0.2-1.1-0.2-1.1-0.2s0.3-0.1,0,0.5
	c-0.4,0.6-0.3,0.7-0.7,0.5c-0.4-0.2-0.9-0.7-1.3-0.4c-0.4,0.3-0.7,0.5-0.9,0.2s-0.1-0.7-0.2-0.8c-0.1-0.1-0.6-0.1-0.5-0.6
	c0.1-0.5,0.3-0.6,0-0.9s-0.5-0.1-0.4-0.5c0.1-0.4,0.1-0.5,0.4-0.7s0.4-0.5,0.4-0.6C53.9,40.7,53.8,40.1,53.8,40.1z"/>
<path class="st4" d="M55.3,40.1c0,0,0,0.3,0.6,0.3c0.5,0,0.6-0.4,0.8-0.5c0.2-0.1,1-0.5,0.8,0.1c-0.2,0.6-0.3,1.2-0.4,1.3
	c0,0,1.1-1.1,1.2-0.6c0.1,0.5,0.6,0.7,0.1,1.1c-0.5,0.4-0.4,0.3-0.8,0.8c-0.4,0.5-0.4,0.7-0.7,0.7s-0.8-0.3-1,0
	c-0.3,0.4-0.5,0.6-0.7,0.6c-0.2,0-1-0.2-0.9-0.5c0.1-0.3,0.5-0.7,0.5-0.8s0.5-0.4,0.1-0.7c-0.3-0.3-0.7-0.7-0.7-0.7s0.4,0.3,0.5,0.2
	s0-0.6,0-0.6s0.3,0.3,0.5,0.2C55.6,41,55.3,40.1,55.3,40.1z"/>
<path class="st5" d="M56.1,41c0.7-0.2,1.5,0.1,1.2,1.2c-0.3,1.1-1.5,1.5-1.9,0.6C55,42,55.2,41.2,56.1,41z"/>
<path class="st3" d="M26.6,56.3c0.1-0.2,0.3-0.4,0.6-0.2c0.3,0.2,0.2-0.3,0.5-0.5c0.3-0.2,0.3-0.5,0.5-0.3c0.3,0.2,0.3,0.7,0.5,0.6
	c0.2-0.2,0.4-0.6,0.6-0.6c0.2,0,0.5-0.3,0.6,0c0.2,0.4,0.3,0.7,0.3,0.7c1-0.1,1.4-0.3,1.3,0.5c-0.1,0.8-0.3,1.1-0.4,1.1
	c-0.1,0.1-0.1,0,0.3,0.7s0.7,0.8,0.2,0.9c-0.5,0.2-0.9-0.1-1,0.2c0,0.3,0.1,0.5-0.3,0.7c-0.4,0.2-0.9-0.2-0.9-0.2s0.3-0.1,0,0.4
	c-0.3,0.5-0.3,0.6-0.6,0.4c-0.4-0.2-0.8-0.6-1.1-0.4c-0.3,0.3-0.6,0.4-0.8,0.1c-0.2-0.3-0.1-0.6-0.2-0.7s-0.5-0.1-0.4-0.5
	c0.1-0.4,0.3-0.5,0-0.8c-0.3-0.3-0.4-0.1-0.3-0.4c0.1-0.4,0.1-0.4,0.3-0.6c0.2-0.2,0.4-0.4,0.3-0.5C26.7,56.8,26.6,56.3,26.6,56.3z"
	/>
<path class="st4" d="M27.9,56.3c0,0,0,0.3,0.5,0.3c0.5,0,0.5-0.3,0.7-0.4s0.9-0.4,0.7,0.1s-0.3,1.1-0.3,1.1s1-0.9,1.1-0.5
	c0.1,0.4,0.5,0.6,0.1,1c-0.5,0.3-0.4,0.2-0.7,0.7c-0.4,0.5-0.4,0.6-0.6,0.6c-0.2,0-0.7-0.3-0.9,0c-0.2,0.3-0.5,0.5-0.6,0.6
	c-0.2,0-0.9-0.1-0.8-0.4c0.1-0.3,0.4-0.6,0.5-0.7s0.4-0.3,0.1-0.6c-0.3-0.3-0.6-0.6-0.6-0.6s0.4,0.2,0.4,0.2c0.1-0.1,0-0.5,0-0.5
	s0.2,0.3,0.5,0.2C28.2,57.1,27.9,56.3,27.9,56.3z"/>
<path class="st5" d="M28.6,57c0.6-0.2,1.3,0.1,1,1.1s-1.3,1.3-1.6,0.6C27.7,57.9,27.8,57.3,28.6,57z"/>
<path class="st3" d="M49.6,39.7c0.2,0,0.5,0.2,0.4,0.5c-0.1,0.3,0.3,0.1,0.6,0.3c0.3,0.2,0.6,0.1,0.5,0.4c-0.1,0.3-0.6,0.6-0.3,0.7
	c0.2,0.1,0.7,0.2,0.7,0.4c0,0.2,0.5,0.3,0.2,0.6s-0.5,0.5-0.5,0.5c0.4,0.9,0.7,1.2,0,1.3s-1.1,0-1.2,0c-0.1,0,0,0-0.5,0.5
	c-0.5,0.5-0.5,0.9-0.8,0.5c-0.3-0.4-0.2-0.9-0.5-0.8c-0.3,0.1-0.5,0.3-0.7,0c-0.3-0.3-0.1-1-0.1-1s0.2,0.2-0.4,0.1
	c-0.6-0.1-0.7-0.1-0.6-0.5c0-0.4,0.3-1,0-1.2c-0.3-0.2-0.6-0.4-0.4-0.7c0.2-0.3,0.5-0.3,0.6-0.4s-0.1-0.5,0.3-0.6
	c0.4-0.1,0.6,0.1,0.7-0.2s-0.1-0.4,0.3-0.4s0.4,0,0.7,0.1C48.6,40,48.9,40,49,40C49.1,39.9,49.6,39.7,49.6,39.7z"/>
<path class="st4" d="M50,40.9c0,0-0.3,0.1-0.1,0.6c0.2,0.4,0.5,0.4,0.6,0.5c0.1,0.2,0.7,0.7,0.2,0.7c-0.5,0-1.1,0.1-1.2,0.1
	c0,0,1.2,0.6,0.9,0.8c-0.3,0.2-0.4,0.7-0.9,0.4s-0.3-0.3-0.9-0.5c-0.6-0.2-0.7-0.1-0.7-0.4s0.1-0.7-0.3-0.8
	c-0.4-0.1-0.7-0.3-0.7-0.4s-0.2-0.9,0.1-0.8s0.7,0.2,0.8,0.2c0.1,0,0.5,0.3,0.6-0.1c0.2-0.4,0.3-0.8,0.3-0.8s-0.1,0.4,0,0.5
	s0.5-0.1,0.5-0.1s-0.2,0.3,0,0.5C49.3,41.4,50,40.9,50,40.9z"/>
<path class="st5" d="M49.5,41.8c0.3,0.5,0.4,1.3-0.7,1.3c-1,0-1.6-0.8-1.1-1.4C48.3,41.2,49,41.1,49.5,41.8z"/>
<path class="st3" d="M44.1,51.7c0.1-0.3-0.3-0.6,0.2-0.7c0.5-0.1,0.8-0.2,1,0s0.4,0.4,0.5,0.5c0.1,0,0-0.2,0.5-0.2
	c0.5,0,0.8-0.4,0.9,0s0,1,0,1s0.4-0.2,0.6,0c0.2,0.2,0.4,0.6,0.3,0.8s-0.3,0.4-0.5,0.5c-0.2,0.1-0.7,0.3-0.7,0.3
	c0.8,0.1,1.5-0.1,1.5,0.2s0.2,0.6-0.1,0.7c-0.3,0.1,0.3,0.2,0,0.6s-0.4,0.6-0.8,0.6s-0.4-0.4-0.5,0c-0.1,0.4-0.5,0.9-0.9,0.8
	c-0.4-0.1-0.5-0.4-0.7-0.3s-0.8,0.2-0.8,0c0-0.2-0.5-0.4-0.7-0.4c-0.1,0-0.3-0.3-0.3-0.4c0.1-0.1-0.3-0.2-0.6-0.4
	c-0.2-0.2-0.4-0.6-0.3-0.9c0.1-0.2,0.5-0.1,0.3-0.5s-0.6-0.4-0.6-0.8c0-0.4-0.4-0.5,0-0.7s0.4-0.4,0.8-0.3s0.6,0,0.6,0L44.1,51.7z"
	/>
<path class="st4" d="M43.5,52.5c0.2,0,0.8,0.4,1.1,0.5c0.2,0.1,0.4,0.4,0.2,0.4c-0.1,0-0.9,0-0.9,0S42.7,52.5,43.5,52.5z"/>
<path class="st4" d="M45,51.4c0.4,0.2,0.6,0.3,0.7,0.5c0.1,0.3,0.1,0.8,0,1C45.6,53,45,52.7,45,52.5s-0.3-0.6-0.3-0.6
	S44.6,51.2,45,51.4z"/>
<path class="st4" d="M46.3,52.1c0,0-0.2-0.4,0.3-0.5c0.4,0,0.5-0.1,0.5,0.2s-0.4,0.8-0.4,0.8L46.3,52.1z"/>
<path class="st5" d="M47.2,54.6c0.3,0.1,0.7,0.5,0.6,0.6c-0.1,0.1-0.9-0.5-0.9-0.3c-0.1,0.2,0.1,0.5-0.2,0.7c-0.4,0.3-0.7,0.2-0.7,0
	s-0.4-0.4-0.6-0.1c-0.2,0.3-0.6,0.3-0.5,0c0-0.3,0.1-0.8,0-0.8c-0.1,0-0.7-0.1-0.8,0c-0.1,0.1-0.6,0.3-0.4-0.1
	c0.2-0.5,0.8-0.6,1-0.6s0.5,0,0.7-0.1s0.1-0.5,0.3-0.5c0.2,0,0.3,0,0.5,0.1s0.3,0.3,0.4,0.3s0.4,0.5,0.4,0.5L47.2,54.6z"/>
<path class="st3" d="M69.8,70.1c0.1-0.3-0.3-0.6,0.2-0.7c0.5-0.1,0.8-0.2,1,0c0.2,0.2,0.4,0.4,0.5,0.5c0.1,0,0-0.2,0.5-0.2
	s0.8-0.4,0.9,0c0.1,0.4,0,1,0,1s0.4-0.2,0.6,0c0.2,0.2,0.4,0.6,0.3,0.8c-0.1,0.2-0.3,0.4-0.5,0.5c-0.2,0.1-0.7,0.3-0.7,0.3
	c0.8,0.1,1.5-0.1,1.5,0.2s0.2,0.6-0.1,0.7c-0.3,0.1,0.3,0.2,0,0.6s-0.4,0.6-0.8,0.6s-0.4-0.4-0.5,0s-0.5,0.9-0.9,0.8
	s-0.5-0.4-0.7-0.3c-0.2,0.1-0.8,0.2-0.8,0c0-0.2-0.5-0.4-0.7-0.4s-0.3-0.3-0.3-0.4c0.1-0.1-0.3-0.2-0.6-0.4
	c-0.2-0.2-0.4-0.6-0.3-0.9c0.1-0.2,0.5-0.1,0.3-0.5c-0.1-0.4-0.6-0.4-0.6-0.8s-0.4-0.5,0-0.7c0.4-0.2,0.4-0.4,0.8-0.3
	c0.4,0,0.6,0,0.6,0L69.8,70.1z"/>
<path class="st4" d="M69.1,70.9c0.2,0,0.8,0.4,1.1,0.5c0.2,0.1,0.4,0.4,0.2,0.4c-0.1,0-0.9,0-0.9,0S68.3,70.9,69.1,70.9z"/>
<path class="st4" d="M70.6,69.7c0.4,0.2,0.6,0.3,0.7,0.5s0.1,0.8,0,1c-0.1,0.1-0.7-0.2-0.7-0.3c0-0.2-0.3-0.6-0.3-0.6
	S70.2,69.6,70.6,69.7z"/>
<path class="st4" d="M72,70.5c0,0-0.2-0.4,0.3-0.5c0.4,0,0.5-0.1,0.5,0.2c-0.1,0.3-0.4,0.8-0.4,0.8L72,70.5z"/>
<path class="st5" d="M72.9,73c0.3,0.1,0.7,0.5,0.6,0.6c-0.1,0.1-0.9-0.5-0.9-0.3c-0.1,0.2,0.1,0.5-0.2,0.7c-0.4,0.3-0.7,0.2-0.7,0
	c0-0.2-0.4-0.4-0.6-0.1c-0.2,0.3-0.6,0.3-0.5,0s0.1-0.8,0-0.8c-0.1,0-0.7-0.1-0.8,0c-0.1,0.1-0.6,0.3-0.4-0.1c0.2-0.5,0.8-0.6,1-0.6
	s0.5,0,0.7-0.1c0.2-0.1,0.1-0.5,0.3-0.5s0.3,0,0.5,0.1c0.1,0.1,0.3,0.3,0.4,0.3c0.1,0.1,0.4,0.5,0.4,0.5L72.9,73z"/>
<path class="st3" d="M62.2,53.8c0.1-0.3-0.3-0.6,0.2-0.7c0.5-0.1,0.8-0.2,1,0c0.2,0.2,0.4,0.4,0.5,0.5c0.1,0,0-0.2,0.5-0.2
	c0.5,0,0.8-0.4,0.9,0c0.1,0.4,0,1,0,1s0.4-0.2,0.6,0s0.4,0.6,0.3,0.8c-0.1,0.2-0.3,0.4-0.5,0.5c-0.2,0.1-0.7,0.3-0.7,0.3
	c0.8,0.1,1.5-0.1,1.5,0.2s0.2,0.6-0.1,0.7c-0.3,0.1,0.3,0.2,0,0.6c-0.4,0.4-0.4,0.6-0.8,0.6c-0.4,0-0.4-0.4-0.5,0
	c-0.1,0.4-0.5,0.9-0.9,0.8c-0.4-0.1-0.5-0.4-0.7-0.3c-0.2,0.1-0.8,0.2-0.8,0c0-0.2-0.5-0.4-0.7-0.4c-0.1,0-0.3-0.3-0.3-0.4
	c0.1-0.1-0.3-0.2-0.6-0.4c-0.2-0.2-0.4-0.6-0.3-0.9c0.1-0.2,0.5-0.1,0.3-0.5c-0.1-0.4-0.6-0.4-0.6-0.8s-0.4-0.5,0-0.7
	c0.4-0.2,0.4-0.4,0.8-0.3c0.4,0,0.6,0,0.6,0L62.2,53.8z"/>
<path class="st4" d="M61.6,54.6c0.2,0,0.8,0.4,1.1,0.5c0.2,0.1,0.4,0.4,0.2,0.4c-0.1,0-0.9,0-0.9,0S60.7,54.6,61.6,54.6z"/>
<path class="st4" d="M63.1,53.5c0.4,0.2,0.6,0.3,0.7,0.5c0.1,0.3,0.1,0.8,0,1s-0.7-0.2-0.7-0.3S62.8,54,62.8,54S62.6,53.3,63.1,53.5
	z"/>
<path class="st4" d="M64.4,54.2c0,0-0.2-0.4,0.3-0.5c0.4,0,0.5-0.1,0.5,0.2c-0.1,0.3-0.4,0.8-0.4,0.8L64.4,54.2z"/>
<path class="st5" d="M65.3,56.7c0.3,0.1,0.7,0.5,0.6,0.6c-0.1,0.1-0.9-0.5-0.9-0.3s0.1,0.5-0.2,0.7c-0.4,0.3-0.7,0.2-0.7,0
	s-0.4-0.4-0.6-0.1c-0.2,0.3-0.6,0.3-0.5,0c0-0.3,0.1-0.8,0-0.8s-0.7-0.1-0.8,0c-0.1,0.1-0.6,0.3-0.4-0.1c0.2-0.5,0.8-0.6,1-0.6
	c0.2,0,0.5,0,0.7-0.1c0.2-0.1,0.1-0.5,0.3-0.5c0.2,0,0.3,0,0.5,0.1c0.1,0.1,0.3,0.3,0.4,0.3c0.1,0.1,0.4,0.5,0.4,0.5L65.3,56.7z"/>
<path class="st3" d="M36.6,56.9c-0.2,0.3,0,0.7-0.6,0.6c-0.6-0.1-0.9-0.2-1.1-0.5c-0.2-0.3-0.2-0.6-0.3-0.7s-0.1,0.2-0.6,0
	c-0.5-0.2-1,0-1-0.4c0-0.4,0.4-1,0.4-1s-0.5,0-0.7-0.3s-0.2-0.8,0-0.9c0.2-0.1,0.5-0.3,0.7-0.3s0.8,0,0.8,0
	c-0.8-0.5-1.6-0.5-1.5-0.9c0.1-0.4,0.1-0.7,0.5-0.6c0.3,0.1-0.2-0.4,0.3-0.6c0.6-0.2,0.7-0.4,1.1-0.2c0.4,0.2,0.3,0.6,0.6,0.2
	c0.3-0.3,0.9-0.7,1.3-0.4c0.4,0.3,0.4,0.6,0.6,0.6c0.3,0,0.9,0.1,0.9,0.3c0,0.2,0.4,0.7,0.5,0.7c0.2,0,0.2,0.5,0.1,0.6
	s0.3,0.4,0.4,0.7c0.1,0.4,0.1,0.8-0.1,1s-0.5-0.1-0.6,0.4s0.4,0.7,0.3,1.1c-0.1,0.4,0.2,0.7-0.3,0.7s-0.6,0.2-1,0
	c-0.4-0.2-0.6-0.3-0.6-0.3L36.6,56.9z"/>
<path class="st4" d="M37.7,56.4c-0.2-0.1-0.7-0.8-0.9-1c-0.2-0.2-0.2-0.6-0.1-0.5c0.1,0.1,1,0.4,1,0.4S38.5,56.7,37.7,56.4z"/>
<path class="st4" d="M35.5,56.9c-0.4-0.4-0.5-0.6-0.5-0.9c0.1-0.3,0.3-0.9,0.5-1c0.2-0.1,0.7,0.5,0.6,0.7s0,0.8,0,0.8
	S35.9,57.3,35.5,56.9z"/>
<path class="st4" d="M34.5,55.5c0,0,0,0.5-0.5,0.4s-0.6-0.1-0.4-0.5s0.8-0.7,0.8-0.7L34.5,55.5z"/>
<path class="st5" d="M34.7,52.4c-0.2-0.2-0.5-0.9-0.4-0.9c0.2,0,0.7,0.9,0.8,0.7s0.1-0.5,0.6-0.6s0.8,0.1,0.8,0.3
	c-0.1,0.2,0.2,0.6,0.6,0.4c0.4-0.2,0.7,0,0.5,0.3s-0.5,0.8-0.4,0.9c0.1,0.1,0.7,0.4,0.9,0.4s0.8-0.1,0.3,0.3
	c-0.5,0.4-1.1,0.2-1.3,0.1c-0.2-0.1-0.5-0.2-0.8-0.2c-0.2,0-0.3,0.4-0.6,0.3c-0.3-0.1-0.3-0.2-0.4-0.4c-0.1-0.2-0.2-0.5-0.2-0.5
	s-0.2-0.7-0.2-0.7L34.7,52.4z"/>
<path class="st3" d="M51,51.7c-0.3-0.2-0.7,0.1-0.6-0.5s0-0.9,0.3-1.1c0.3-0.2,0.6-0.3,0.7-0.4c0.1-0.1-0.2-0.1,0-0.6
	c0.2-0.5-0.1-1,0.3-1c0.4,0,1,0.3,1,0.3s-0.1-0.5,0.2-0.7c0.3-0.2,0.8-0.3,0.9-0.1c0.1,0.2,0.3,0.5,0.4,0.7c0,0.2,0.1,0.8,0.1,0.8
	c0.4-0.8,0.3-1.6,0.7-1.6c0.4,0,0.7,0,0.7,0.4c0,0.3,0.4-0.3,0.7,0.2c0.3,0.5,0.5,0.7,0.3,1s-0.5,0.3-0.2,0.6
	c0.3,0.3,0.8,0.8,0.6,1.2c-0.2,0.4-0.6,0.5-0.5,0.7s0,0.9-0.2,0.9c-0.2,0-0.6,0.4-0.6,0.6s-0.4,0.3-0.5,0.1
	c-0.1-0.1-0.3,0.3-0.6,0.5c-0.3,0.2-0.8,0.2-1,0c-0.2-0.2,0-0.5-0.4-0.5c-0.5,0-0.6,0.5-1,0.4c-0.4-0.1-0.6,0.2-0.7-0.2
	c-0.1-0.5-0.3-0.5-0.1-0.9c0.2-0.4,0.2-0.6,0.2-0.6L51,51.7z"/>
<path class="st4" d="M51.6,52.7c0.1-0.2,0.7-0.8,0.9-1c0.2-0.2,0.6-0.3,0.5-0.1c0,0.1-0.3,1-0.3,1S51.4,53.5,51.6,52.7z"/>
<path class="st4" d="M50.9,50.7c0.3-0.4,0.5-0.6,0.8-0.6c0.3,0,0.9,0.2,1,0.3c0.1,0.2-0.4,0.7-0.6,0.6c-0.2-0.1-0.7,0.1-0.7,0.1
	S50.6,51.1,50.9,50.7z"/>
<path class="st4" d="M52.1,49.5c0,0-0.5,0-0.4-0.4c0.1-0.5,0.1-0.6,0.4-0.4s0.8,0.7,0.8,0.7L52.1,49.5z"/>
<path class="st5" d="M55.1,49.3c0.2-0.3,0.8-0.6,0.8-0.5c0,0.2-0.8,0.8-0.6,0.9c0.2,0.1,0.5,0,0.7,0.5s0,0.8-0.2,0.8
	s-0.5,0.3-0.3,0.6c0.2,0.3,0.1,0.7-0.2,0.5s-0.8-0.4-0.9-0.3s-0.3,0.7-0.3,0.9c0.1,0.2,0.2,0.8-0.3,0.4c-0.4-0.4-0.3-1.1-0.3-1.3
	c0.1-0.2,0.2-0.6,0.1-0.8c-0.1-0.2-0.4-0.3-0.4-0.5c0-0.3,0.1-0.4,0.3-0.5c0.2-0.1,0.4-0.2,0.5-0.3c0.1-0.1,0.6-0.2,0.6-0.2
	L55.1,49.3z"/>
<path class="st3" d="M29.1,48.6c-0.3-0.2-0.6,0.1-0.6-0.4c0.1-0.5,0-0.8,0.3-1s0.5-0.3,0.6-0.4c0.1-0.1-0.2-0.1,0-0.5
	s-0.1-0.9,0.3-0.9c0.4,0,0.9,0.3,0.9,0.3s-0.1-0.4,0.2-0.6s0.7-0.2,0.8-0.1c0.1,0.2,0.3,0.4,0.3,0.6c0,0.2,0.1,0.7,0.1,0.7
	c0.3-0.7,0.3-1.4,0.6-1.4c0.3,0,0.6,0,0.6,0.3c0,0.3,0.3-0.3,0.6,0.2c0.3,0.5,0.4,0.6,0.3,0.9c-0.1,0.3-0.5,0.3-0.2,0.5
	s0.7,0.7,0.5,1.1s-0.5,0.4-0.5,0.6c0,0.2,0,0.8-0.2,0.8s-0.6,0.4-0.6,0.5c0,0.1-0.4,0.2-0.5,0.1c-0.1-0.1-0.3,0.3-0.6,0.4
	c-0.3,0.2-0.7,0.2-0.9,0c-0.2-0.2,0-0.5-0.4-0.5s-0.5,0.4-0.9,0.4c-0.4-0.1-0.6,0.2-0.7-0.2s-0.2-0.5-0.1-0.8
	c0.1-0.4,0.2-0.6,0.2-0.6L29.1,48.6z"/>
<path class="st4" d="M29.6,49.4c0.1-0.2,0.6-0.7,0.8-0.9c0.2-0.2,0.5-0.2,0.5-0.1c0,0.1-0.3,0.9-0.3,0.9S29.4,50.2,29.6,49.4z"/>
<path class="st4" d="M29,47.7c0.3-0.4,0.4-0.5,0.7-0.5c0.3,0,0.8,0.1,0.9,0.3c0.1,0.1-0.4,0.6-0.5,0.6c-0.2,0-0.7,0.1-0.7,0.1
	S28.7,48,29,47.7z"/>
<path class="st4" d="M30.1,46.6c0,0-0.5,0-0.4-0.4c0.1-0.4,0-0.5,0.4-0.4c0.3,0.2,0.7,0.6,0.7,0.6L30.1,46.6z"/>
<path class="st5" d="M32.8,46.4c0.1-0.2,0.7-0.6,0.7-0.4s-0.7,0.7-0.5,0.8s0.5,0,0.6,0.4c0.2,0.4,0,0.7-0.2,0.7
	c-0.2,0-0.5,0.2-0.3,0.5c0.2,0.3,0.1,0.6-0.2,0.5c-0.3-0.1-0.7-0.3-0.8-0.2s-0.3,0.6-0.2,0.8c0.1,0.2,0.1,0.7-0.2,0.3
	c-0.4-0.4-0.3-1-0.2-1.1s0.1-0.5,0.1-0.7c-0.1-0.2-0.4-0.2-0.4-0.5c0-0.2,0.1-0.3,0.3-0.4c0.2-0.1,0.4-0.2,0.4-0.3
	c0.1,0,0.6-0.2,0.6-0.2L32.8,46.4z"/>
<path class="st3" d="M39.7,39.1c0.3,0.1,0.5-0.3,0.7,0.2c0.1,0.5,0.3,0.8,0.1,1S40,40.7,40,40.9c0,0.1,0.2,0,0.2,0.5
	c0,0.5,0.4,0.8,0.1,0.9c-0.3,0.2-1,0.1-1,0.1s0.2,0.4,0,0.6c-0.2,0.2-0.6,0.5-0.7,0.4c-0.2-0.1-0.4-0.3-0.5-0.4
	c-0.1-0.2-0.3-0.7-0.3-0.7c0,0.8,0.2,1.5-0.1,1.5c-0.3,0.1-0.6,0.2-0.7-0.1c-0.1-0.3-0.2,0.3-0.6,0c-0.4-0.3-0.6-0.4-0.6-0.8
	c0-0.4,0.3-0.4,0-0.5s-0.9-0.4-0.9-0.8c0.1-0.4,0.3-0.6,0.2-0.8C35,40.6,34.8,40.1,35,40c0.2,0,0.4-0.6,0.4-0.7
	c0-0.1,0.3-0.4,0.4-0.3c0.1,0.1,0.2-0.3,0.4-0.6c0.2-0.2,0.6-0.4,0.9-0.3c0.2,0.1,0.1,0.5,0.5,0.3c0.4-0.2,0.3-0.6,0.7-0.7
	c0.4-0.1,0.5-0.4,0.7,0s0.4,0.3,0.4,0.7c0,0.4,0,0.6,0,0.6L39.7,39.1z"/>
<path class="st4" d="M38.8,38.5c0,0.2-0.3,0.9-0.4,1.1C38.3,39.8,38,40,38,39.8c0-0.1-0.1-0.9-0.1-0.9S38.8,37.7,38.8,38.5z"/>
<path class="st4" d="M40.1,39.9c-0.1,0.4-0.2,0.7-0.5,0.7c-0.3,0.1-0.8,0.2-1,0.1s0.1-0.7,0.3-0.7c0.2,0,0.6-0.3,0.6-0.3
	S40.2,39.5,40.1,39.9z"/>
<path class="st4" d="M39.4,41.3c0,0,0.4-0.2,0.5,0.2C40,41.9,40,42,39.7,42s-0.9-0.3-0.9-0.3L39.4,41.3z"/>
<path class="st5" d="M37,42.4c0,0.3-0.5,0.8-0.5,0.6c-0.1-0.1,0.4-0.9,0.2-1c-0.2-0.1-0.4,0.2-0.7-0.2c-0.3-0.3-0.2-0.7,0-0.7
	c0.2,0,0.4-0.4,0.1-0.6c-0.3-0.2-0.3-0.5,0-0.5c0.3,0,0.8,0.1,0.8-0.1c0-0.1,0.1-0.7-0.1-0.8c-0.1-0.1-0.4-0.6,0.1-0.4
	c0.5,0.2,0.6,0.8,0.6,1c0,0.2,0,0.5,0.2,0.7c0.1,0.2,0.5,0.1,0.5,0.3s0,0.3-0.1,0.5c-0.1,0.1-0.3,0.3-0.3,0.4c0,0.1-0.5,0.4-0.5,0.4
	L37,42.4z"/>
</g>
</svg>
