<?xml version="1.0" encoding="utf-8"?>
<!-- Generator: Adobe Illustrator 27.4.1, SVG Export Plug-In . SVG Version: 6.00 Build 0)  -->
<svg version="1.1" id="Layer_1" xmlns="http://www.w3.org/2000/svg" xmlns:xlink="http://www.w3.org/1999/xlink" x="0px" y="0px"
	 viewBox="0 0 108 108" style="enable-background:new 0 0 108 108;" xml:space="preserve">
<style type="text/css">
	.st0{fill:#3D763D;}
	.st1{fill:#536D1E;}
	.st2{fill:#415A26;}
	.st3{fill:#ADD541;}
	.st4{fill:#8CBA43;}
	.st5{fill:#AED544;}
	.st6{fill:#93BB49;}
	.st7{fill:#94BC3E;}
	.st8{fill:#C4DC7B;}
	.st9{fill:#89AC40;}
	.st10{fill:#C2DB75;}
	.st11{fill:#94B449;}
	.st12{fill:#98CC6C;}
	.st13{fill:#85BA46;}
	.st14{fill:#94C94A;}
	.st15{fill:#A3C541;}
	.st16{fill:#8DB248;}
</style>
<g>
	<path class="st0" d="M30,32.4c0.2,0.3,2.4,2.5,5,4.7c2.6,2.2,8.3,5.6,8.8,6.2c0.6,0.6,1.7,1.6,1.7,1.6s-0.3,3.2-0.4,3.7
		c0,0.4-0.3,1.4-0.3,1.4s-1.3,5.2-1.4,5.9c-0.1,0.7,0,2.3-0.1,2.7c-0.1,0.4,0.1,2.4,0.1,2.4L44,57c0,0,1.6-5.6,1.7-6.2
		s0.5-3,0.4-3.7c0-0.7,0.4-1.8,0.4-1.8l5.8,3.5l5.4,3.5l-0.9,1.7l-0.2,1.4c0,0,1-1.4,1.1-1.6c0.1-0.3,0.7-0.9,0.7-0.9l7.8,4.7
		l4.7,3.4l1.4,0.6l0.6-0.7c0,0-2.7-1.7-3.4-2.3c-0.7-0.5-4.4-2.6-5.2-3.2c-0.8-0.6-5.2-3.1-5.2-3.1l2.3-1.9l1.1-1l-0.8-0.7
		c0,0-2.3,2.1-2.5,2.3s-0.8,0.6-0.8,0.6s-7.2-4-8.1-4.9s-3.1-2.4-3.1-2.4s1.7-2.9,1.9-3.3c0.2-0.4,4.5-5.3,4.7-5.5
		c0.2-0.2,1.5-1.3,1.5-1.3l0.6-2l-0.5-0.8c0,0-3,4.2-3.6,4.9c-0.6,0.7-4.8,5.7-5.1,6.4c-0.3,0.7-0.7,0.8-0.7,0.8s-6.4-4-7.9-5.5
		s-4.7-3.9-5.5-4.9C31.9,32.1,31,31,31,31L30,32.4z"/>
	<path class="st0" d="M57.8,54.7c0,0,1.8-0.2,2.2-0.2c0.4,0,0.4,0.4,1.4,0.5c1.1,0.1,1.4,0.9,1.4,0.9l0.8,1.4c0,0-1.2-0.2-0.9,0
		c0.3,0.2,0.7,0.3,1,1.1s0.3,0.9-0.2,0.8c-0.5-0.1-1,0.2-1.6-0.1c-0.6-0.4-1.5-0.7-1.5-0.7s-0.3,0.9-0.5,0.8c-0.2-0.1-1.5-1-1.7-1.5
		S58,56,57.7,55.9c-0.4-0.1-0.7,0.9-0.7,1.2s0,0.5,0.2,0.9c0.2,0.4,2.9,0.6,3.7,1.5s1.1,1.5,0.9,1.4s-1.4-0.3-1.2,0s0.6,0.9,0.7,1.3
		c0.1,0.4,0,1.4,0,1.4s-1.2,0.3-1.7-0.1c-0.5-0.5-1.7-1.8-1.9-2c-0.2-0.2-1.3-1.4-1.1-0.9c0.2,0.5,2.5,2.7,2.9,3.5
		c0.4,0.8,0.1,1.9,0.1,1.9s-1.7-0.2-1.9-0.4c-0.2-0.2-0.7-0.9-0.7-0.9s1.1,0.3,0.9,1.8s0.4,1.6-0.1,1.5c-0.5-0.1-1.3-0.6-1.4-0.4
		c-0.1,0.2-0.1,0.9-0.3,1.6c-0.2,0.7-0.6,0.9-0.9,1.2c-0.2,0.3-0.5,0.5-0.8-0.7c-0.4-1.1-0.9-3.2-0.9-3.2s-0.8,1.7-1,0.6
		c-0.1-1.1,0.1-2,0.5-2.3C53.5,64.5,54,64,54,64s-1.4,0.2-2,0.6s-1,0.7-1,0.5c0-0.2,0.4-1.5,0.5-2.2c0.1-0.6,0.2-1,0.9-1.2
		c0.7-0.2,0.8-0.1,1.3-0.4c0.5-0.3,1-1.5,1-1.5s-1.9,1.3-2.4,1.5c-0.5,0.2-1.8,0.6-2.2,0.5s-0.3-0.5-0.3-0.9s0.3-1.6,0.3-1.6
		s0.9-0.2,1.4-0.6s2.1-0.5,2.4-0.7s0.9,0.2,1.1-0.2s0.9-1.1,0.7-1.6c-0.2-0.5-2.3,1.3-2.7,1.2c-0.4-0.1-1.7,1.1-2.3,0.6
		s-2.9,0.6-2.8,0.2C48,58,49,56,49,56s1.1-1.5,2.3-1.7c1.2-0.2,3.3-0.2,3.3-0.2l1.8-0.4l1-0.6l0.5,0.5L57.8,54.7z"/>
	<path class="st0" d="M45.7,50.8c0,0-1.7-0.6-2.7-0.1s-1.8,1.7-2.5,2.1s-2.2,0.6-2.2,0.6l0.6-1.2c0,0,0.2,0.1-0.9-0.1
		s-2.1,0.3-2.3,0.1s0.1-0.9,0.1-0.9c-2-0.8-2.6-1.7-3-1.9s-0.8-0.4-0.4-0.2c0.4,0.2,1.9-0.9,2.6-0.9s0.7,0,0.7,0s0.2-1.2,1-0.5
		c0.8,0.6,1.8,0.8,2,0.8s-1.6-1.4-0.9-1.4c0.8,0,2.6,0.8,2.9,1s2.6,1.6,3,1.5c0.4,0,1.3,0.3,1.3,0.3L45.7,50.8z"/>
	<path class="st0" d="M43.5,55.8c0,0-0.6,1.2-1.9,1s-2.3-0.3-3-0.1c-0.7,0.2-2.4,1.2-2.4,1.2l2.1,0.3c0,0-1.2,0.3-1.8,0.5
		C35.9,59,35.2,60,35.2,60l1.1-0.3c0,0-0.4,1-0.7,1.7C35.3,62,35.1,63,35.1,63s0.9,0,1.4-0.4c0.5-0.4,0.9-1.1,0.9-1.1
		c0.3,0.7,0.4,1.2,0.4,1.2s1-1,1.1-1.3c0.1-0.3,0.9-0.6,0.8-0.3c-0.1,0.3,0.1,0.4,0.5-0.1c0.4-0.4,1.1-2.1,1.6-2.3
		C42.3,58.4,44,57,44,57L43.5,55.8z"/>
	<path class="st0" d="M42.6,60.8c-0.8,0.6-2.2,1.3-2.8,1.8c-0.6,0.5-1.6,1.8-1.6,1.8c0.3,0.9,0.1,1.8,0,2.4s0,1.1,0.3,0.9
		s0.9-1.2,1.4-1.7s1.5-0.9,1.7-1.4c0.3-0.5,1.1-1,1.1-1s-1.3,2.4-2,3.2c-0.7,0.8-0.6,1.1-0.6,1.6c0,0.5,1.1-0.3,1.1-0.3
		s-0.1,0.4,0,1.2c0.1,0.8-0.4,0.2,0.1,0.8c0.6,0.6,0.6,0.6,0.8,1.3c0.2,0.8,0.4,1.7,0.5,1.6c0.1-0.1,0.2-0.9,1-1.6s1.6-1.1,1.6-1.8
		s-0.2-2-0.5-2.5c-0.3-0.5,1.2,0.2,1.2,0.5s1.3,0.9,1.3,0.9s-0.2-0.1-0.4-1.6c-0.2-1.4-1.9-3.3-2-3.6c-0.1-0.2,2.9,2.2,3.2,2.1
		s1.5-0.8,1.5-1.2c-0.1-0.5-0.5-1.3-0.9-2c-0.3-0.6-1.7-1.2-2.5-1.1c-0.7,0-1.8,0.1-1.8,0.1s-0.1-0.6-0.2-0.9
		C44.1,60,43.4,60.2,42.6,60.8z"/>
	<path class="st0" d="M43.5,55.8c0,0,2.2,1,3,0.9s1.5,0,1.8,0.2c0.3,0.2,0.3,1.1,0.3,1.1s0.8-0.9,1.5-0.4c0.6,0.5,0.9-0.1,0.6,0.5
		s-1.1,0.6-0.7,1.2c0.4,0.5,0.4,0.5,0.9,1.3c0.6,0.8,0.7,1.5,0.7,1.8c0,0.3-0.4,1.5-0.4,1.5s-1.1-1.1-1.5-1.4s-1.5-0.8-1.1-0.2
		c0.3,0.6-0.1,1-0.4,0.9c-0.3-0.2-0.6-0.2-0.7-1s1.2-0.5-0.1-0.7c-1.3-0.3-0.5,1.5-0.9,0.6s-1.1-1-1.2-1.5c-0.1-0.5,0.1,0.8-0.1-0.5
		c-0.2-1.3-0.7-0.9-0.7-1.4c0-0.6-0.3-1-0.3-1L43.5,55.8z"/>
	<path class="st0" d="M45.7,50.8c0,0,1-0.8,1.3,0.5c0.3,1.3-0.2,1.8,0.1,2.5c0.3,0.7,0.4,1.2,1,1.5S49,56,49,56l0.4-1.4
		c0,0-0.2,0.8,0.7,1.1c0.9,0.3,1.2,0.4,1.6,0.2c0.4-0.2,1.1,0.3,1.6,0.3c0.5,0,1,0.2,1.4-0.4s1-1,1-1l0.5-1
		c-0.8-0.8-1.3-1.5-2.2-1.4c-0.9,0.1-1.8,0.2-0.9,0.1c0.9-0.1,2.3-0.3,2.6-0.6c0.3-0.2-0.4-1-1.1-1.1s-1.1,0-1.9,0.1
		C51.9,51,51.9,51,51.9,51s0.3-0.5,1-1c0.6-0.5,1.2-1,1.2-1s-0.7-0.6-1.7-0.2s-2.1,0-2.9,0.4c-0.8,0.4-1.3,0.8-2.1,1.2
		s-1.5-0.7-1.5-0.7L45.7,50.8z"/>
	<path class="st0" d="M50,38.6c0,0-0.7-0.6-1.7-1.2c-1-0.6-2.9-1.3-3.8-1.7s-2.2-0.8-2.3-1s-0.6-0.8-0.6-0.8s0.5-0.6,1.5-0.4
		c1,0.2,1.7,0.5,1.7,0.5s-0.9-0.7-1.6-1.3c-0.7-0.6-1.3-1.1-1.7-1.5c-0.4-0.4-0.4-0.9-0.4-0.9s1.2,0.3,0.9,0.1s-0.8,0.1-1.3-1.7
		c-0.5-1.8-0.5-2-0.6-2.2s0.7-0.9,2.2,0.4c1.5,1.2,1.9,1.4,2,2s0.4,1.3,0.3,1.1c-0.1-0.2-0.2-1.9,0.1-2c0.3-0.1,1.2-1.3,1.5,0.3
		c0.3,1.6,1,2.1,0.8,2.7c-0.3,0.6-0.1,2.3-0.1,2.3s-0.1-3.4,0.7-2.9c0.7,0.5,1,1,1.3,2.1c0.2,1.1,0,2.2,0,2.6s-0.6,1.4-0.2,1.5
		c0.4,0.1-0.1-0.2,0.7,0.5c0.8,0.7,1.3,1.5,1.3,1.5L50,38.6z"/>
	<path class="st0" d="M61.5,49.7c-0.1-0.6,0.1-2.5,0-2.8s-0.8-1.9-0.7-2.6c0.1-0.7,0.6-2.6,0.7-3.1c0.1-0.5,0.9-2.5,0.9-2.5l1-0.3
		c0,0,0,0.8,0.3,1.2s0,0.7,0.4,0.4c0.3-0.3,0.9,0.4,0.8,0.7c-0.1,0.3-0.1,1.6-0.5,1.8c-0.3,0.3-1,1.5-0.8,1.1
		c0.1-0.4,1.9-1.9,1.8-1.4s0.4,0.9-0.3,1.9c-0.7,1-1.5,1.6-1.5,2c0,0.4-0.6,1.5-0.6,1.5s2-1.3,2.4-2.1c0.4-0.8,0.3-4.2,0.3-4.8
		c0-0.7,0.7-2,0.7-2l0.3,1.2c0,0,1-1.3,1.6-1.7s1.1-0.3,1.1-0.3s-0.1,0.9-0.2,1.7c-0.1,0.9-0.3,1.9-0.2,1.5c0,0,0.4,1.5-0.2,1.9
		s-1.1,1.1-1.1,1.1s2.3-3.8,2.7-4.7c0.4-0.9,2.1-1.7,2.1-1.7c0.5,1.1,0.6,2.2,0.3,2.2s0.9-1.9,1.6-2.1c0.6-0.2,0.6-0.2,0.6-0.2
		l0.3,1.1c0,0,0.3-0.9,1.4-1s2.5-0.1,2.5-0.1s-0.3,0.5-1.1,1.7s-1.6,1.2-1.9,1.5c-0.3,0.2,0.4,0.1,1.1,0.5c0.6,0.4,0.6,0.4-0.2,0.8
		c-0.8,0.3-2.1,0.7-2.4,0.8c-0.3,0.1-1.5,0.2-1.1,0.3c0.4,0.1,1.7,0.5,2.2,0.4c0.5-0.1,0.1,0.4-0.6,1s-1.7,1.9-2.3,1.6
		C72,46.3,71.2,46,70.2,46c-1.1,0.1-1.1,0.1-1.1,0.1s4.4,0.3,4.9,0.6s0.2,1.4-0.2,1.6c-0.4,0.2-1.1,0.7-1.7,0.5
		c-0.6-0.3-0.6,0.4-0.6,0.4s0.2,0.9-0.9,0.3s-1.6-2-3.4-2c-1.7,0-3.5,1.2-3.5,1.2s3.1-0.8,3.8-0.2c0.8,0.6-0.2,1-0.2,1s0.1-1,1-0.4
		s1,1,1.4,1.3c0.3,0.3,0.6,0.8,0.6,0.8s-0.6,0.4-1,0.6c-0.3,0.2-0.7,0.8-0.7,0.8s-0.1,0.5-0.9,0.3s-1.6-0.9-1.6-0.6
		c0.1,0.2,0.6,1.4,0.2,1.2c-0.4-0.2-2-0.8-2.6-1.8c-0.5-1-0.5-1-0.5-1L61.5,49.7z"/>
	<path class="st0" d="M50.4,39.6c0,0,0.9-0.2,1.4,0.8c0.5,1-0.1,1.5,0.7,2.4c0.7,0.9,1.3,2,2,2.2c0.7,0.2,1.4,0.5,1.4,0.5
		s-0.2,0.1-0.3-1c-0.1-1.1-0.5-1.8-0.5-1.8s1,0.9,1.7,1.5c0.7,0.6,1.4,1.2,2,1.2c0.5-0.1,0.8,0.8,0.5-0.1s-0.7-0.5-0.2-0.8
		s1.8-0.2,1.8-0.2s-0.4-1.2,1.2-0.8c1.6,0.3,1.6,0.3,1.6,0.3s-1.2-0.8-1.6-1.7c-0.4-0.9-1.7,0-1.7,0l1.3-0.9l-2.8-0.1l2.2-1.9
		c0,0-0.6,1.1-1.7,0.5c-1.1-0.6-1.7-0.4-2.2-0.3s0.3-0.2,0.6-1s1-1.3,0.3-1.2c-0.7,0-2.2-0.6-3.4,0.2c-1.2,0.9-1.8,1.8-2.3,1.7
		c-0.5-0.1-1.6-0.6-1.6-0.6L50.4,39.6z"/>
	<path class="st0" d="M55.6,31.4c0,0,1,0.2,0.7-0.9c-0.3-1.1-0.5-2.1-1-2.6c-0.4-0.5-1.8-2-1.9-2.3c-0.1-0.3-0.2-0.4-0.7-1.3
		c-0.5-0.9-0.6-0.8-1.1-1.3c-0.5-0.5-0.7-0.6-0.9-1c-0.1-0.4-0.1-0.9-0.3-1c-0.2-0.2,0.8,0,0.8,0l-0.6-1.1c0,0-0.3-0.7-0.6-2.1
		c-0.3-1.3-1-1.5,0.7-0.7c1.8,0.7,2.1,0.5,2.4,1.2s0.2,1.7,0.2,1.7s0.4-1,0.4-1.2s0.4-0.6,0.7,0.1c0.4,0.7,0.7,1.9,0.7,2.4
		c0,0.5-0.1,1.7-0.1,1.7s0.5-2,0.8-2.4s0.7-1.1,0.9-0.5c0.1,0.6,1.1,1.5,0.8,2.8c-0.3,1.3-0.4,1.1-0.7,2.3c-0.2,1.3-0.3,1.3,0,2
		s0.3,1.2,0.3,1.2s0.6-2.4,1.1-3s0.8-0.7,1-0.6c0.2,0.1,1-0.9,1-0.9l0.9-0.6c0,0,0.4,0.5,0.5,0.9s0.2,1.1-0.1,1.6s-0.7,1.2-0.5,1.1
		c0.2-0.1,1-0.4,1-0.1s-0.6,1.8-1,2c-0.4,0.2-2.7,2-3.1,2.2c-0.4,0.2-1.3,1.1-1.3,1.1l-0.9,0.9L55.6,31.4z"/>
	<path class="st0" d="M54.8,34.1c0,0,1,0.2,1.8,0.7c0.8,0.5,1.9,1.6,2.5,1.8c0.6,0.2,1.7,0.5,2,0.5s1,0,1,0s-0.2-0.9-0.8-1.3
		c-0.6-0.4-1-0.4-1-0.4s1.9,0.6,2.6,0.5c0.7-0.1,1.5-0.4,1.5-0.4l-1-0.4c0,0,1.6-0.9,1.8-1.1c0.2-0.2,0.9-0.2,0.9-0.7
		s-0.5-0.6-1.3-0.8c-0.8-0.2-2-0.2-2-0.2s-0.5-0.1-0.9-0.1c-0.4,0-2,0.5-1.6,0.2c0.4-0.2,1.2-1.2,1.1-1.4c-0.1-0.1-1-0.4-1.3-0.3
		s-1.4,1.1-2,1.3c-0.5,0.2-0.3,0.1-1.3,0.4c-1,0.3-1.6,0.9-1.6,0.9L54.8,34.1z"/>
	<path class="st0" d="M54.5,33.2c0,0-0.5,0.2-1.6-0.6c-1.1-0.8-2.8-2.3-3-2.6c-0.2-0.3-0.8-1.5-0.8-1.5l2,0.2c0,0-1.1-0.9-1.4-1.8
		c-0.3-0.9,0.1-0.7,0.2-1.3s-0.2-1-0.1-1.5c0.1-0.5,0-0.9,0.2-1c0.2-0.1,1.8-0.3,2.6,0.5c0.8,0.8,0.7,2.1,0.7,2.6
		c0.1,0.5,0.4,2.3,0.4,2.3s0.1-0.2,0.5-0.9c0.5-0.7,1-0.9,1.2-1c0.2,0,0.7-0.6,0.6,0.5c-0.1,1-0.3,1.4-0.6,2.2s-0.4,1.1-0.6,1.7
		c-0.2,0.6-0.3,1.6-0.3,1.6L54.5,33.2z"/>
	<path class="st0" d="M66.3,57.4c0.1,0.6,0.7,1.2-0.2,2.2c-0.8,1-1.6,1.4-2.2,2.2s-1.5,1.8-1.3,2.1c0.2,0.3,0.3,1,0.3,1
		s1.2,0,1.7-0.5s1.3-1.3,1.3-1.3s-1.2,1.5-1.5,2.5c-0.2,1-0.1,2.2-0.1,2.2s0.8-0.2,1.2-0.7c0.3-0.5,0.7-0.7,0.7-0.5s-1.4,0.8-1,1.8
		c0.5,1,1,1.3,1,1.3s0.3-1.3,0.2-0.6c-0.2,0.6,0.5,1.4,0.6,1.7c0.1,0.3,0.5,1.1,0.8,1.2s1.1-0.2,1.3-1.3c0.2-1.1,0.3-1.5,0.3-1.5
		s0.4,0.8,0.5,0.6s0.3-0.6-0.1-1.6c-0.4-1.1-1-2-0.7-1.8s0.9,1.4,1.3,1.5c0.4,0.1,0.8-0.5,0.5-1.6s-0.8-1.9-1.2-2.1s-0.3-0.5-0.9-1
		c-0.6-0.5-0.6-0.5-0.6-0.5s2.4,1.9,2.7,2c0.3,0,0.7,0.1,0.7,0.1s-0.3-2.1-0.7-2.6c-0.5-0.6-2.3-1.6-2.6-1.9s-0.4-0.7-0.5-1
		c-0.2-0.3-0.3-1-0.3-1L66.3,57.4z"/>
	<path class="st0" d="M67.1,57.2c0,0,2-0.4,2.2-1.1c0.2-0.6,0.9-1.4,1-2c0.1-0.6,1-2.3,1.7-3c0.7-0.7,1.6-0.8,1.8-0.8
		c0.2,0,0.8-0.1,0.7,0.4c-0.1,0.4-0.3,1.2-0.3,1.2s0.9-1.7,1.7-1.8c0.8-0.1,1.3-0.4,1.3-0.4S77,51.4,76.7,52
		c-0.3,0.6,0.8-0.6,1.6-0.7c0.8-0.2,1.3,0.1,1.3,0.1l-0.5,0.9c0,0,0.3-0.7,1.3-0.3c1,0.4,1.5,0.5,1.5,0.5s-0.7,1.4-1.4,1.6
		c-0.7,0.2-1.3,0.4-1.3,0.4s0.5,0.4,0.7,0.4c0.3,0.1-0.2,0.6-1.1,0.7c-0.9,0.1-2-0.4-1.6,0.1c0.4,0.5,1,1.1,1.1,1.3
		c0.1,0.2-0.2,0.4-0.7,0.5c-0.6,0.1-1.2,0.3-1.7,0.2c-0.4-0.1-1-0.6-1.3-0.7c-0.3-0.1-0.4-0.4,0.3,0.7c0.7,1.1,0.7,1.1,0.7,1.1
		s-1.5,1.6-2.9,0.3c-1.4-1.3-2.1-1.2-2.7-1.4c-0.6-0.2-1.7,0.1-1.8,0s-0.9,0.6-0.9,0.6L67.1,57.2z"/>
	<path class="st0" d="M71.1,60.4c0,0,1.2,0.8,1.2,1.7s-0.7,2.7-0.7,2.7s0.1,1,0.3,2.4s0.5,1.8,0.5,1.8l0.6-1.2c0,0-0.1,0.5,0.4,1.5
		s0.8,0.7,1.3,1.1c0.6,0.4,1.1,0.7,1.3,0.9c0.3,0.2,0.5,0.4,0.5,0.4s0.2-1.7,0.1-2.3c-0.2-0.6-0.2-0.8,0-0.9
		c0.2-0.1-0.2-1.4-0.5-1.6c-0.2-0.2-0.8-0.5-0.8-0.5l1.4,0.4c0,0,0-0.5-0.3-1.2c-0.3-0.7-0.4-0.8-0.9-1.2s-1.4-1.5-1.4-1.5
		s2.1,0.6,2.7,1.5c0.5,0.9,0.8,1.2,1.1,2.5c0.3,1.3,0.3,1.7,0.9,2.2c0.6,0.5,0.8,0.3,1.4,0.5s1.1,0.3,1.1,0.3S81,69,81,68.5
		c0-0.5-0.3-1.5-0.5-1.8s-1-1.1-1-1.1s1.4,0.7,2.1,1.5c0.6,0.8,0.6,0.8,1.7,1.6s1.5,0.6,1.5,0.6l-0.5-1.7c0,0,1,0.9,1.4,1.2
		c0.4,0.3,0.7,0.5,1.1,0.7s0.5,0.6,0.5,0.2c-0.1-0.5-0.7-1.2-0.7-1.2s1.3,0.3,2.1,0.4c0.8,0.1,1.9,0.1,1.9,0.1l0.7,0.1
		c0,0-0.9-0.8-1.7-1.5s-0.9-0.8-1.4-0.9c-0.5-0.1-1.5,0.2-1,0c0.5-0.1,1.4-0.8,1.4-0.8s-1.5-0.8-2.5-0.5c-1.1,0.2-1.8,0.2-1.8,0.2
		s1.5-1,2-1.3s0.3-0.6,0.1-0.6c-0.1,0-2.1-0.3-2.9,0s-2.6,0.8-2.6,0.8s3.9-1.8,4-1.9s-2-1-2.5-1.1c-0.6-0.1-3.3,1.9-4.3,1.7
		c-0.9-0.2-1.8-0.3-2-0.4s-1.4-0.7-1.4-0.7s2.1-0.1,2.7,0c0.6,0.2,1,0.1,1.3,0.1c0.3,0,0.8-0.1,0.9-0.3c0.2-0.2-0.5-0.8-0.5-0.8
		s1.3-0.4,1.9-0.3c0.5,0,0.6-0.1,0.9-0.5c0.2-0.5,1.4-1.2,1.4-1.2s-1-0.9-1.8-0.8c-0.7,0.1-1,0.6-0.7,0.1c0.3-0.4,0-0.2-0.7-0.3
		c-0.7-0.1-2.4,0.6-2.2,0.4s1.1-1.3,1.1-1.3s-2.7-0.5-3,0.7s-2.6,3-2.6,3l-0.7-0.1L71.1,60.4z"/>
	<path class="st1" d="M59.7,15.7c-0.2,0.4-1.5,3.6-2.4,7.2c-1,3.6-1.7,10.9-2.1,11.8c-0.3,0.8-0.8,2.4-0.8,2.4s-3.4,1.1-3.9,1.2
		c-0.4,0.1-1.5,0.3-1.5,0.3s-5.9,0.9-6.6,1.2c-0.7,0.2-2.3,1-2.8,1.1c-0.5,0.1-2.3,1.2-2.3,1.2l4.2-1.3c0,0,6.3-0.8,7-1
		c0.7-0.1,3.3-0.9,3.9-1.2c0.6-0.3,2-0.4,2-0.4l-0.7,7.5L52.8,53l-2.1-0.2l-1.5,0.4c0,0,1.8,0.4,2.2,0.4c0.3,0,1.2,0.4,1.2,0.4
		l-1,10l-1.2,6.3l0.1,1.7l1,0.4c0,0,0.5-3.6,0.7-4.5c0.2-1,0.5-5.6,0.7-6.7c0.2-1.1,0.7-6.7,0.7-6.7l3,1.5l1.5,0.7l0.3-1.1
		c0,0-3.2-1.5-3.5-1.6s-1-0.6-1-0.6s0.6-9.2,1.1-10.4c0.5-1.3,0.9-4.2,0.9-4.2s3.7,0.4,4.2,0.5s7.5,2.3,7.8,2.4c0.3,0.1,2,1,2,1
		l2.3-0.3l0.5-0.9c0,0-5.7-1.2-6.7-1.6s-8-2.4-8.9-2.4c-0.8,0-1.1-0.4-1.1-0.4s1-8.4,1.8-10.6c0.8-2.2,1.7-6.6,2.3-7.8
		c0.7-1.3,1.3-2.6,1.3-2.6L59.7,15.7z"/>
	<path class="st1" d="M50.2,54.1c0,0,1,1.8,1.3,2.2c0.2,0.4-0.2,0.6,0.2,1.7c0.4,1.1-0.2,1.8-0.2,1.8l-1,1.4c0,0-0.4-1.3-0.5-0.9
		c-0.1,0.4,0,0.9-0.6,1.5s-0.8,0.7-0.9,0.2c-0.1-0.6-0.7-0.9-0.6-1.7c0.1-0.8,0-1.9,0-1.9s-1,0.1-1-0.2c0-0.2,0.3-2,0.7-2.3
		c0.4-0.3,1.7-0.9,1.6-1.3c-0.1-0.4-1.2-0.3-1.5-0.1c-0.3,0.2-0.5,0.2-0.8,0.6c-0.3,0.4,0.8,3.3,0.2,4.4c-0.5,1.1-1,1.8-1,1.5
		s-0.3-1.6-0.5-1.3c-0.2,0.3-0.7,1.1-1,1.3c-0.3,0.3-1.4,0.7-1.4,0.7s-0.9-1.1-0.7-1.8c0.2-0.7,1-2.5,1.1-2.8c0.2-0.3,0.8-2,0.3-1.5
		c-0.4,0.4-1.6,3.8-2.2,4.5c-0.6,0.7-1.9,0.9-1.9,0.9s-0.6-1.8-0.4-2.1s0.6-1.1,0.6-1.1s0.2,1.2-1.4,1.7c-1.6,0.5-1.5,1.1-1.6,0.5
		c-0.1-0.6,0-1.6-0.2-1.6c-0.2,0-1,0.3-1.8,0.5c-0.8,0.1-1.2-0.3-1.6-0.4s-0.7-0.3,0.3-1.2s2.8-2.3,2.8-2.3s-2.1-0.1-1-0.7
		c1.1-0.7,2.1-0.8,2.5-0.5c0.4,0.3,1.1,0.6,1.1,0.6s-0.9-1.4-1.5-1.8c-0.6-0.5-1.2-0.7-1-0.8c0.2-0.1,1.7-0.2,2.4-0.4
		c0.7-0.2,1.1-0.2,1.6,0.4s0.5,0.7,1,1.1c0.5,0.4,2,0.3,2,0.3s-2.2-1.4-2.6-1.9c-0.4-0.5-1.4-1.6-1.5-2c-0.1-0.4,0.4-0.6,0.8-0.7
		c0.5-0.1,1.7-0.4,1.7-0.4s0.7,0.9,1.2,1.2c0.6,0.4,1.5,1.9,1.8,2.2c0.3,0.2,0.2,1,0.7,1.1c0.5,0.1,1.6,0.4,2,0
		c0.4-0.4-2.4-1.8-2.5-2.2s-1.9-1.2-1.7-2.1c0.2-0.9-2-2.8-1.6-2.8c0.4,0,2.9,0.1,2.9,0.1s2,0.4,2.7,1.6c0.7,1.2,1.7,3.3,1.7,3.3
		l1.3,1.6l1.1,0.8l-0.3,0.7L50.2,54.1z"/>
	<path class="st1" d="M48.5,39.9c0,0-0.2-2-1.1-2.8c-0.9-0.8-2.6-1.1-3.3-1.7c-0.7-0.6-1.7-2-1.7-2l1.5,0.1c0,0,0,0.2-0.4-1
		c-0.4-1.2-1.2-2-1.2-2.3c0.1-0.3,1-0.3,1-0.3c-0.1-2.5,0.5-3.5,0.5-4c0-0.5,0.1-1,0-0.5c0,0.5,1.8,1.6,2.1,2.3s0.3,0.7,0.3,0.7
		s1.2-0.3,1,0.8s0,2.2,0.2,2.4s0.7-2.3,1-1.5c0.3,0.8,0.4,3.1,0.4,3.4c0,0.4-0.4,3.4-0.1,3.8c0.2,0.4,0.3,1.5,0.3,1.5L48.5,39.9z"/>
	<path class="st1" d="M42.4,39.9c0,0-1.5,0-1.9-1.5c-0.4-1.5-0.8-2.5-1.3-3.1s-2.4-1.9-2.4-1.9l0.6,2.3c0,0-0.9-1.2-1.4-1.7
		c-0.5-0.5-1.8-0.8-1.8-0.8l0.8,1c0,0-1.2,0-2,0c-0.8,0-1.9,0.2-1.9,0.2s0.4,0.9,1,1.2s1.5,0.5,1.5,0.5c-0.6,0.6-1,1-1,1
		s1.5,0.6,1.8,0.6c0.3,0,1,0.7,0.7,0.7c-0.3,0-0.3,0.3,0.3,0.5c0.6,0.2,2.6,0.2,3.1,0.6c0.5,0.4,2.7,1.5,2.7,1.5L42.4,39.9z"/>
	<path class="st1" d="M36.9,41.2c-1-0.5-2.3-1.7-3.1-2.1c-0.8-0.4-2.5-0.8-2.5-0.8c-0.8,0.7-1.8,0.9-2.4,1.1
		c-0.6,0.2-1.1,0.5-0.8,0.7s1.7,0.4,2.4,0.7c0.7,0.3,1.6,1.1,2.2,1.2s1.6,0.6,1.6,0.6s-3-0.2-4.1-0.6c-1.1-0.4-1.4-0.1-1.9,0.1
		s0.8,1,0.8,1s-0.4,0-1.2,0.5s-0.4-0.4-0.7,0.5c-0.3,0.8-0.3,0.8-1,1.4c-0.7,0.6-1.5,1.2-1.4,1.3s1-0.2,2.1,0.4
		c1.1,0.6,1.9,1.1,2.5,0.8s1.9-1.1,2.2-1.6s0.4,1.3,0.1,1.4c-0.4,0.1-0.3,1.7-0.3,1.7s0-0.3,1.4-1.1c1.3-0.9,2.4-3.5,2.6-3.6
		c0.2-0.2-0.9,3.9-0.6,4.3c0.3,0.3,1.5,1.2,1.9,1s1.1-1.1,1.6-1.8c0.5-0.6,0.4-2.3,0-3s-0.9-1.8-0.9-1.8s0.6-0.4,0.9-0.6
		S38,41.7,36.9,41.2z"/>
	<path class="st1" d="M42.4,39.9c0,0,0.1,2.6,0.5,3.4c0.4,0.8,0.7,1.5,0.7,1.9c0,0.4-1,0.8-1,0.8s1.3,0.4,1.1,1.3
		c-0.2,0.9,0.5,0.9-0.2,0.9c-0.7,0-1.1-0.8-1.5-0.2c-0.4,0.7-0.3,0.6-0.9,1.5c-0.6,0.9-1.2,1.3-1.5,1.5s-1.7,0.3-1.7,0.3
		s0.6-1.6,0.7-2.1s0.1-1.8-0.3-1.2c-0.5,0.6-1.1,0.3-1.1,0c0-0.4-0.1-0.7,0.6-1.1c0.7-0.4,1.1,1.1,0.7-0.4c-0.3-1.5-1.7,0.2-1-0.7
		c0.7-0.8,0.5-1.6,0.9-1.9c0.4-0.3-0.8,0.4,0.4-0.3c1.2-0.8,0.5-1.1,1.1-1.4c0.6-0.3,0.9-0.7,0.9-0.7L42.4,39.9z"/>
	<path class="st1" d="M48.5,39.9c0,0,1.3,0.7,0.1,1.6c-1.2,0.9-1.9,0.6-2.5,1.3s-1,1-1,1.7c0,0.7-0.3,1.2-0.3,1.2l1.6-0.2
		c0,0-0.8,0.1-0.7,1.2c0.1,1.1,0.1,1.4,0.6,1.8c0.4,0.4,0.3,1.3,0.5,1.8s0.3,1.2,1,1.2c0.7,0.1,1.5,0.5,1.5,0.5l1.2,0.1
		c0.4-1.2,0.9-2,0.4-2.9c-0.5-0.9-1-1.7-0.5-0.9c0.5,0.9,1.4,2.2,1.8,2.4c0.4,0.2,0.8-0.8,0.6-1.6c-0.3-0.8-0.5-1.1-1-1.9
		c-0.5-0.7-0.5-0.7-0.5-0.7s0.6,0.1,1.5,0.5c0.8,0.4,1.6,0.8,1.6,0.8s0.3-1-0.6-1.9s-1-2.2-1.8-2.8c-0.8-0.6-1.4-1-2.1-1.6
		s0-1.8,0-1.8L48.5,39.9z"/>
	<path class="st1" d="M62.8,39c0,0,0.3-1,0.4-2.3c0.2-1.3,0-3.6-0.1-4.6c-0.1-1-0.3-2.6-0.1-2.8c0.1-0.2,0.6-0.9,0.6-0.9
		s0.9,0.2,1.1,1.3c0.2,1.1,0.3,2,0.3,2s0.3-1.3,0.5-2.2c0.3-0.9,0.5-1.8,0.7-2.4c0.2-0.5,0.7-0.8,0.7-0.8s0.2,1.3,0.4,1
		s-0.4-0.8,1.1-2.1s1.8-1.4,2-1.6c0.2-0.2,1.2,0.4,0.7,2.5s-0.5,2.6-1,3c-0.5,0.3-1.1,1-0.9,0.8c0.2-0.2,1.9-1,2.1-0.8
		c0.2,0.3,1.8,0.7,0.4,1.7c-1.5,1-1.6,2-2.3,2s-2.4,0.9-2.4,0.9s3.4-1.5,3.2-0.6c-0.1,0.9-0.5,1.5-1.5,2.2s-2.2,1-2.6,1.1
		c-0.4,0.1-1.7,0-1.7,0.5c0,0.4,0.2-0.2-0.1,0.9c-0.3,1.1-0.9,1.9-0.9,1.9L62.8,39z"/>
	<path class="st1" d="M57,55.7c0.6-0.4,2.6-1,2.8-1.2c0.2-0.2,1.5-1.6,2.2-1.9c0.7-0.2,2.9-0.5,3.4-0.6c0.6-0.1,2.9-0.2,2.9-0.2
		l0.7,0.9c0,0-0.8,0.3-1,0.9c-0.2,0.6-0.7,0.3-0.2,0.6c0.4,0.2,0,1.1-0.3,1.1c-0.3,0-1.6,0.5-2.1,0.3c-0.4-0.2-2-0.3-1.5-0.3
		c0.4,0,2.8,1.1,2.3,1.2c-0.5,0.1-0.7,0.8-2.1,0.5c-1.4-0.3-2.3-0.8-2.8-0.6s-1.8,0.1-1.8,0.1s2.2,1.4,3.2,1.5c1,0.1,4.4-1.5,5-1.8
		c0.6-0.3,2.3-0.2,2.3-0.2l-1,0.9c0,0,1.8,0.4,2.5,0.9c0.7,0.5,0.8,1,0.8,1s-0.9,0.3-1.8,0.6c-0.9,0.3-2,0.5-1.6,0.5
		c0,0-1.3,1.1-2,0.6s-1.6-0.6-1.6-0.6s4.9,0.7,6,0.8s2.7,1.4,2.7,1.4c-0.9,1-1.9,1.6-2.1,1.3c-0.2-0.3,2.4,0.1,2.8,0.7
		c0.5,0.6,0.5,0.6,0.5,0.6l-0.9,0.8c0,0,1.1-0.1,1.7,0.9c0.6,1,1.3,2.6,1.3,2.6s-0.7,0-2.2-0.4s-2-1.1-2.4-1.3
		c-0.4-0.2,0.1,0.5,0,1.3c-0.1,0.8-0.1,0.8-0.9,0.1c-0.7-0.7-1.7-1.9-1.9-2.2c-0.3-0.3-0.9-1.4-0.9-1c0.1,0.4,0.3,1.9,0.6,2.4
		c0.3,0.5-0.3,0.3-1.3-0.2s-2.7-0.9-2.7-1.7c0-0.8-0.1-1.7-0.6-2.7c-0.5-1.1-0.5-1.1-0.5-1.1s1.8,4.6,1.7,5.3
		c-0.1,0.7-1.4,0.8-1.7,0.5c-0.4-0.3-1.3-0.8-1.3-1.5c0-0.7-0.7-0.5-0.7-0.5s-0.8,0.6-0.7-0.8c0.1-1.5,1.2-2.5,0.4-4.3
		c-0.8-1.8-2.9-3-2.9-3s2.2,2.8,2,3.9c-0.3,1-1.1,0.2-1.1,0.2s1-0.4,0.9,0.8c-0.1,1.2-0.5,1.5-0.7,2c-0.2,0.5-0.5,1-0.5,1
		s-0.7-0.5-1.1-0.7c-0.4-0.2-1.2-0.3-1.2-0.3s-0.6,0.1-0.7-0.8s0.1-2.1-0.1-1.9c-0.2,0.2-1.2,1.2-1.2,0.7S55.3,60,56,59
		c0.8-1,0.8-1,0.8-1L57,55.7z"/>
	<path class="st1" d="M62,39.8c0,0,0.6,0.9-0.2,1.8c-0.8,0.9-1.6,0.6-2.1,1.8s-1.4,2.2-1.2,3c0.1,0.8,0.1,1.6,0.1,1.6
		s-0.2-0.2,0.9-0.7S61,46,61,46s-0.4,1.4-0.7,2.4c-0.3,1-0.6,2-0.2,2.6c0.3,0.5-0.4,1.1,0.3,0.5c0.7-0.6,0.2-1,0.7-0.6
		c0.5,0.4,1,1.7,1,1.7s1-0.9,1.4,0.8c0.4,1.7,0.4,1.7,0.4,1.7s0.2-1.6,0.9-2.4c0.7-0.8-0.8-1.8-0.8-1.8l1.5,1L64.4,49l3,1.4
		c0,0-1.4-0.1-1.3-1.5c0.1-1.4-0.3-1.9-0.8-2.4c-0.4-0.5,0.3,0.2,1.3,0.2c1,0,1.8,0.5,1.4-0.2c-0.4-0.7-0.4-2.5-1.8-3.4
		s-2.7-1.1-2.8-1.6s-0.1-1.9-0.1-1.9L62,39.8z"/>
	<path class="st1" d="M72.7,41.5c0,0,0.3,1.1,1.3,0.3s1.9-1.5,2.2-2.2c0.3-0.7,1.2-2.7,1.4-3c0.2-0.2,0.3-0.4,1-1.3
		c0.6-0.9,0.5-0.9,0.8-1.7s0.3-1,0.6-1.3s0.8-0.5,0.9-0.8c0.1-0.3,0.4,0.9,0.4,0.9l0.8-1.1c0,0,0.6-0.6,1.8-1.5s1-1.7,1.1,0.4
		s0.5,2.4-0.1,3c-0.7,0.6-1.6,1-1.6,1s1.2-0.1,1.4-0.2c0.2-0.1,0.8,0.1,0.3,0.8c-0.5,0.7-1.6,1.5-2.1,1.8C82.3,37,81,37.4,81,37.4
		s2.2-0.4,2.8-0.2c0.6,0.2,1.4,0.3,0.9,0.7c-0.6,0.4-1,1.8-2.4,2c-1.5,0.3-1.3,0-2.7,0.3c-1.4,0.3-1.4,0.3-2,0.8
		c-0.6,0.6-1,0.8-1,0.8s2.7-0.5,3.6-0.2c0.8,0.2,1.1,0.6,1.1,0.8s1.4,0.6,1.4,0.6l1,0.6c0,0-0.3,0.7-0.6,0.9c-0.3,0.2-1,0.7-1.7,0.5
		C80.6,45,79.8,45,80,45.1c0.2,0.2,0.9,0.9,0.6,1.1c-0.3,0.2-2.1,0.1-2.5-0.1c-0.4-0.3-3.3-1.9-3.6-2.2c-0.3-0.3-1.7-0.9-1.7-0.9
		l-1.3-0.5L72.7,41.5z"/>
	<path class="st1" d="M69.6,42c0,0,0.2,1.1,0.1,2.1s-0.7,2.6-0.6,3.3c0.1,0.7,0.3,1.9,0.4,2.3c0.1,0.4,0.5,1,0.5,1s0.8-0.6,0.9-1.4
		s-0.1-1.2-0.1-1.2s0.3,2.2,0.7,2.9c0.4,0.6,1.1,1.3,1.1,1.3l-0.1-1.2c0,0,1.6,1.3,2,1.4c0.4,0.1,0.7,0.9,1.1,0.6
		c0.4-0.3,0.4-0.8,0.2-1.7S75,49.5,75,49.5s-0.1-0.6-0.3-0.9c-0.2-0.4-1.4-1.9-1-1.6c0.4,0.3,1.8,0.7,1.9,0.5c0.1-0.2,0-1.2-0.3-1.5
		c-0.2-0.2-1.8-1-2.2-1.4c-0.4-0.5-0.2-0.3-1-1.1c-0.7-0.9-1.6-1.3-1.6-1.3L69.6,42z"/>
	<path class="st1" d="M70.4,41.2c0,0-0.4-0.4-0.1-1.9c0.3-1.5,1-3.9,1.2-4.2s1.2-1.4,1.2-1.4l0.8,2.2c0,0,0.4-1.5,1.2-2.3
		c0.8-0.7,0.8-0.2,1.4-0.4c0.7-0.1,0.9-0.7,1.5-0.8c0.5-0.1,0.9-0.4,1.1-0.3c0.2,0.2,1.2,1.7,0.7,2.9c-0.4,1.2-1.8,1.6-2.3,1.9
		c-0.5,0.3-2.1,1.4-2.1,1.4s0.2,0,1.1,0.2c0.9,0.2,1.4,0.6,1.6,0.8c0.1,0.1,0.9,0.5-0.2,0.8c-1.1,0.3-1.6,0.4-2.5,0.4
		c-0.9,0-1.3,0.1-2,0.1c-0.7,0-1.8,0.5-1.8,0.5L70.4,41.2z"/>
	<path class="st1" d="M51.5,64c-0.6,0.4-0.9,1.2-2.3,0.8s-2.1-1-3.2-1.3c-1.1-0.3-2.5-0.7-2.7-0.4c-0.2,0.3-0.9,0.8-0.9,0.8
		s0.5,1.2,1.2,1.5c0.7,0.3,1.9,0.8,1.9,0.8s-2.1-0.6-3.2-0.4s-2.2,0.9-2.2,0.9s0.6,0.8,1.2,0.9c0.6,0.2,1.1,0.4,0.8,0.5
		s-1.5-1.1-2.3-0.2S39,69.5,39,69.5s1.5-0.2,0.7-0.1c-0.7,0.1-1.2,1.1-1.4,1.4c-0.2,0.3-0.8,1-0.9,1.3c0,0.3,0.7,1.1,1.9,0.8
		s1.6-0.4,1.6-0.4s-0.6,0.7-0.3,0.8c0.3,0,0.7,0.1,1.6-0.8c0.9-0.9,1.5-1.9,1.4-1.5s-1,1.5-0.9,2c0.1,0.5,0.9,0.6,1.9-0.2
		c1-0.8,1.5-1.7,1.5-2.1c0-0.4,0.3-0.6,0.6-1.4c0.3-0.8,0.3-0.8,0.3-0.8s-0.8,3.3-0.7,3.6c0.1,0.3,0.3,0.7,0.3,0.7s1.9-1.2,2.3-1.9
		c0.4-0.7,0.6-3.1,0.7-3.5c0.1-0.4,0.5-0.7,0.7-1s0.9-0.8,0.9-0.8L51.5,64z"/>
	<path class="st1" d="M52.1,64.7c0,0,1.4,1.9,2.1,1.8c0.7-0.1,1.9,0.3,2.5,0.2c0.6-0.1,2.8,0,3.8,0.4s1.6,1.3,1.7,1.5
		c0.1,0.2,0.4,0.8-0.1,0.9c-0.5,0.1-1.3,0.2-1.3,0.2s2.1,0.2,2.7,1c0.5,0.8,1,1.1,1,1.1s-1.8,0.7-2.5,0.6c-0.7,0,1,0.6,1.5,1.3
		s0.5,1.4,0.5,1.4L62.8,75c0,0,0.8,0,0.9,1.2s0.2,1.8,0.2,1.8s-1.7-0.1-2.2-0.7s-1-1.2-1-1.2s-0.1,0.6-0.1,0.9
		c0,0.3-0.7,0.1-1.2-0.8c-0.5-0.9-0.5-2.3-0.8-1.6c-0.3,0.6-0.6,1.5-0.8,1.7c-0.2,0.2-0.5,0-0.9-0.5c-0.4-0.5-0.9-1.1-1-1.6
		c-0.1-0.5,0.1-1.3,0.1-1.7C56,72,56.3,71.8,55.5,73s-0.8,1.3-0.8,1.3s-2.3-0.9-1.7-2.9c0.6-2,0.2-2.6,0.1-3.4
		c-0.1-0.8-0.9-1.8-0.9-1.9c0-0.1-1-0.7-1-0.7L52.1,64.7z"/>
	<path class="st1" d="M50.8,70.2c0,0-0.2,1.6-1.1,1.9c-0.9,0.4-3.1,0.5-3.1,0.5s-1,0.6-2.3,1.3s-1.5,1.3-1.5,1.3l1.5,0
		c0,0-0.5,0.1-1.3,1.1c-0.8,1-0.4,1.1-0.5,1.9s-0.2,1.4-0.3,1.8c-0.1,0.4-0.2,0.7-0.2,0.7s1.8-0.5,2.4-1c0.5-0.4,0.8-0.6,0.9-0.4
		c0.2,0.2,1.3-0.9,1.4-1.2c0.1-0.3,0.1-1,0.1-1l0.2,1.6c0,0,0.5-0.2,1-0.8c0.5-0.6,0.6-0.8,0.8-1.5s0.8-2.1,0.8-2.1s0.4,2.5-0.3,3.4
		c-0.6,1-0.9,1.4-2,2.3c-1.1,0.9-1.6,1.1-1.8,1.9s0.1,1,0.2,1.7c0,0.7,0.2,1.2,0.2,1.2s0.7-0.8,1.2-1c0.5-0.2,1.3-1,1.5-1.3
		c0.2-0.3,0.6-1.5,0.6-1.5s0,1.8-0.5,2.8c-0.5,1-0.6,1-0.8,2.4s0.1,1.8,0.1,1.8l1.5-1.3c0,0-0.4,1.4-0.5,2c-0.1,0.5-0.2,0.9-0.2,1.5
		c0.1,0.5-0.4,0.8,0.1,0.5c0.4-0.3,0.8-1.3,0.8-1.3s0.3,1.4,0.6,2.3c0.3,0.8,0.8,2,0.8,2l0.3,0.8c0,0,0.4-1.2,0.8-2.4
		c0.4-1.2,0.4-1.3,0.3-1.8c-0.1-0.6-0.9-1.4-0.5-1c0.4,0.4,1.5,1.1,1.5,1.1s0.1-1.8-0.6-2.8c-0.7-1-1-1.8-1-1.8s1.7,1.1,2.2,1.4
		c0.5,0.3,0.7,0,0.6-0.1c0-0.1-0.7-2.2-1.4-3c-0.7-0.8-2-2.3-2-2.3s3.6,3.3,3.8,3.3s0.1-2.5,0-3.1s-3.4-2.6-3.7-3.6
		c-0.3-1-0.5-2-0.5-2.2c0-0.2,0-1.7,0-1.7s1.2,2.1,1.2,2.8c0.1,0.7,0.4,1.1,0.5,1.4s0.5,0.7,0.7,0.8c0.3,0.1,0.6-0.9,0.6-0.9
		s1,1.2,1.2,1.8c0.2,0.6,0.4,0.6,0.9,0.6c0.6,0,1.9,0.9,1.9,0.9s0.5-1.5,0-2.2c-0.5-0.7-1.1-0.8-0.5-0.7c0.6,0.1,0.2-0.1,0-0.9
		c-0.2-0.8-1.7-2.3-1.4-2.1s1.8,0.6,1.8,0.6s-0.8-3-2-2.7c-1.3,0.2-4.3-1.4-4.3-1.4l-0.2-0.7L50.8,70.2z"/>
	<path class="st1" d="M46.8,42.6c0.1,0.3,1.2,2.5,2.7,4.7c1.5,2.2,5,6.2,5.3,6.8c0.3,0.6,0.9,1.6,0.9,1.6s-1.1,2.3-1.2,2.7
		c-0.1,0.3-0.6,1-0.6,1s-2.3,3.6-2.5,4.1c-0.2,0.5-0.6,1.7-0.7,2c-0.2,0.3-0.5,1.8-0.5,1.8l1.3-2.8c0,0,2.6-3.8,2.9-4.2
		c0.3-0.4,1.1-2.2,1.3-2.7s0.8-1.3,0.8-1.3l3.7,4l3.4,3.9l-1.1,1.1l-0.5,1c0,0,1.1-0.8,1.3-1c0.1-0.2,0.8-0.5,0.8-0.5l4.9,5.4
		l2.8,3.7l0.9,0.7l0.7-0.4c0,0-1.7-2-2.1-2.5c-0.4-0.6-2.7-3-3.2-3.6c-0.5-0.6-3.2-3.6-3.2-3.6l2.2-0.9l1.1-0.5l-0.4-0.7
		c0,0-2.3,1-2.5,1.1c-0.2,0.1-0.8,0.2-0.8,0.2s-4.6-4.7-5.1-5.6s-1.8-2.5-1.8-2.5s2-1.7,2.3-2s4.8-2.9,5-3c0.2-0.1,1.5-0.6,1.5-0.6
		l0.9-1.3l-0.2-0.7c0,0-3.4,2.5-4,2.8s-5.2,3.1-5.6,3.6s-0.7,0.4-0.7,0.4s-4-4.6-4.8-6.1c-0.8-1.5-2.7-4-3.1-5c-0.4-1-0.8-2-0.8-2
		L46.8,42.6z"/>
	<path class="st1" d="M62.8,66.1c0,0,1.5,0.3,1.8,0.4c0.3,0.1,0.2,0.4,1,0.7s0.9,1,0.9,1l0.3,1.2c0,0-0.9-0.4-0.7-0.2s0.5,0.4,0.5,1
		c0,0.6,0,0.8-0.3,0.6c-0.4-0.2-0.8-0.1-1.2-0.5s-1-0.9-1-0.9s-0.4,0.6-0.6,0.5c-0.1-0.1-0.9-1.1-0.9-1.5c0-0.4,0.3-1.4,0.1-1.5
		c-0.3-0.1-0.8,0.5-0.8,0.7c-0.1,0.3-0.1,0.4,0,0.7c0.1,0.3,2.1,1.2,2.5,2c0.3,0.8,0.5,1.4,0.3,1.3c-0.2-0.2-1-0.6-1-0.3
		c0.1,0.3,0.2,0.9,0.2,1.2c0,0.3-0.3,1.1-0.3,1.1s-1,0-1.3-0.5s-0.9-1.7-1-2c-0.1-0.2-0.7-1.4-0.7-0.9c0,0.5,1.3,2.6,1.4,3.3
		c0.1,0.7-0.4,1.4-0.4,1.4s-1.3-0.6-1.3-0.8c-0.1-0.2-0.3-0.9-0.3-0.9s0.7,0.5,0.3,1.6c-0.5,1.1-0.1,1.3-0.5,1.1s-0.9-0.8-1-0.7
		S58.3,76,58,76.5c-0.3,0.5-0.7,0.5-1,0.7s-0.5,0.2-0.5-0.7c0-1,0.1-2.6,0.1-2.6s-1.1,1.1-0.9,0.2c0.2-0.9,0.6-1.5,0.9-1.6
		c0.3-0.1,0.8-0.3,0.8-0.3s-1.2-0.2-1.7-0.1c-0.5,0.1-1,0.3-0.9,0.1c0.1-0.1,0.7-1,1-1.5s0.4-0.7,1-0.7c0.6,0,0.6,0.1,1.1,0
		c0.5-0.1,1.1-0.9,1.1-0.9s-1.8,0.5-2.2,0.5s-1.5,0-1.8-0.2c-0.3-0.1-0.1-0.5,0-0.8c0.2-0.3,0.6-1.1,0.6-1.1s0.8,0,1.3-0.1
		c0.5-0.1,1.8,0.1,2,0.1c0.3,0,0.6,0.4,0.9,0.2s1-0.6,0.9-1c0-0.4-2.1,0.4-2.4,0.3c-0.3-0.2-1.6,0.4-2-0.1c-0.4-0.5-2.4-0.3-2.2-0.5
		c0.2-0.2,1.5-1.5,1.5-1.5s1.2-0.9,2.2-0.7c1,0.2,2.6,0.7,2.6,0.7l1.5,0.1l1-0.2l0.3,0.5L62.8,66.1z"/>
	<path class="st1" d="M54.4,60.2c0,0-1.2-0.9-2-0.8c-0.8,0.1-1.8,0.8-2.5,1c-0.7,0.1-1.9-0.1-1.9-0.1l0.7-0.8c0,0,0.1,0.1-0.7-0.3
		s-1.7-0.3-1.8-0.5c-0.1-0.2,0.3-0.7,0.3-0.7c-1.4-1.1-1.6-1.9-1.9-2.2c-0.3-0.3-0.5-0.5-0.3-0.3s1.7-0.2,2.2,0
		c0.5,0.2,0.5,0.2,0.5,0.2s0.4-0.8,0.9-0.2c0.5,0.7,1.2,1.1,1.4,1.1c0.2,0-0.9-1.5-0.3-1.3c0.6,0.2,1.8,1.3,2,1.4
		c0.2,0.2,1.6,1.8,1.9,1.9c0.3,0.1,1,0.5,1,0.5L54.4,60.2z"/>
	<path class="st1" d="M51.4,63.5c0,0-0.7,0.8-1.7,0.3c-1-0.5-1.7-0.8-2.3-0.8s-2.1,0.4-2.1,0.4l1.5,0.7c0,0-1-0.1-1.6-0.1
		S44,64.6,44,64.6l0.9,0c0,0-0.6,0.7-1,1.1c-0.4,0.4-0.8,1.1-0.8,1.1s0.7,0.2,1.2,0c0.5-0.2,1-0.6,1-0.6c0,0.6,0,1,0,1
		s1.1-0.5,1.2-0.7c0.1-0.2,0.8-0.2,0.7,0c-0.1,0.2,0,0.3,0.4,0.1c0.4-0.2,1.3-1.3,1.8-1.4c0.5,0,2.1-0.7,2.1-0.7L51.4,63.5z"/>
	<path class="st1" d="M49.5,67c-0.8,0.3-2,0.4-2.6,0.7c-0.6,0.2-1.7,0.9-1.7,0.9c0,0.8-0.4,1.4-0.6,1.8s-0.3,0.8,0,0.8s1-0.7,1.5-1
		c0.5-0.2,1.4-0.3,1.7-0.6c0.3-0.3,1.1-0.5,1.1-0.5s-1.6,1.5-2.3,1.9c-0.7,0.4-0.7,0.7-0.9,1s0.9,0,0.9,0s-0.2,0.2-0.3,0.9
		c-0.1,0.6-0.4,0-0.1,0.6c0.3,0.6,0.3,0.6,0.3,1.2s-0.1,1.4,0,1.4c0.1,0,0.3-0.7,1.2-0.9c0.9-0.3,1.5-0.4,1.7-1
		c0.1-0.5,0.3-1.5,0.2-2c-0.1-0.4,0.9,0.4,0.8,0.7s0.8,1,0.8,1s-0.1-0.2,0-1.3c0.2-1.1-0.7-3-0.7-3.2c0-0.2,1.7,2.4,2,2.4
		c0.3,0,1.4-0.2,1.4-0.6c0.1-0.4-0.1-1.1-0.2-1.7c-0.1-0.6-1.1-1.3-1.6-1.4s-1.4-0.4-1.4-0.4s0.1-0.5,0.1-0.7
		C50.9,66.8,50.3,66.7,49.5,67z"/>
	<path class="st1" d="M51.4,63.5c0,0,1.4,1.2,2.1,1.4c0.6,0.1,1.2,0.4,1.3,0.5c0.2,0.2,0,0.9,0,0.9s0.9-0.5,1.2,0
		c0.4,0.5,0.7,0.1,0.4,0.5s-1,0.2-0.8,0.7s0.2,0.4,0.4,1.2c0.2,0.8,0.2,1.3,0.1,1.5c-0.1,0.2-0.7,1-0.7,1s-0.6-1.1-0.8-1.4
		c-0.2-0.3-0.9-0.9-0.8-0.4c0.1,0.5-0.3,0.7-0.5,0.5c-0.2-0.2-0.4-0.3-0.3-0.9c0.1-0.6,1.1,0,0.1-0.6c-0.9-0.5-0.7,1-0.8,0.2
		c-0.1-0.8-0.6-1-0.6-1.4s-0.2,0.6,0-0.4c0.2-1-0.4-0.8-0.2-1.3c0.1-0.4,0-0.8,0-0.8L51.4,63.5z"/>
	<path class="st1" d="M54.4,60.2c0,0,1-0.3,0.9,0.7c-0.1,1.1-0.6,1.3-0.5,1.9c0,0.6,0,1,0.4,1.3c0.4,0.3,0.5,0.7,0.5,0.7l0.7-0.9
		c0,0-0.3,0.5,0.3,1c0.6,0.5,0.8,0.6,1.2,0.5s0.8,0.5,1.2,0.6c0.4,0.1,0.8,0.4,1.2,0c0.4-0.4,1-0.5,1-0.5l0.7-0.6
		c-0.4-0.8-0.7-1.5-1.4-1.6c-0.7-0.1-1.4-0.3-0.7-0.1c0.7,0.1,1.9,0.3,2.1,0.2c0.3-0.1,0-0.8-0.6-1.1c-0.6-0.3-0.8-0.3-1.5-0.4
		c-0.6-0.1-0.6-0.1-0.6-0.1s0.4-0.3,1-0.5s1.2-0.5,1.2-0.5s-0.4-0.6-1.3-0.6c-0.9,0-1.7-0.5-2.4-0.4c-0.7,0.1-1.2,0.3-1.9,0.4
		c-0.7,0.1-1-0.8-1-0.8L54.4,60.2z"/>
	<path class="st1" d="M60.7,52.1c0,0-0.4-0.6-1-1.3c-0.6-0.7-1.9-1.7-2.5-2.2c-0.6-0.5-1.5-1.1-1.6-1.3c-0.1-0.2-0.2-0.8-0.2-0.8
		s0.5-0.4,1.2,0c0.7,0.4,1.2,0.8,1.2,0.8s-0.6-0.8-0.9-1.3c-0.4-0.6-0.7-1.2-0.9-1.5c-0.2-0.4-0.1-0.8-0.1-0.8s0.8,0.5,0.7,0.3
		s-0.6-0.1-0.6-1.6s0.1-1.6,0.1-1.8c0-0.2,0.8-0.5,1.7,0.8s1.1,1.5,1.1,2c-0.1,0.4,0,1.1,0,0.9c0-0.2,0.3-1.5,0.6-1.5
		s1.3-0.6,1.1,0.6c-0.2,1.2,0.3,1.8-0.1,2.2s-0.6,1.7-0.6,1.7s0.8-2.5,1.2-2s0.6,1,0.5,1.9s-0.5,1.7-0.6,1.9S60,50,60.2,50.2
		c0.3,0.2,0-0.2,0.4,0.5c0.4,0.7,0.6,1.4,0.6,1.4L60.7,52.1z"/>
	<path class="st1" d="M66.9,63.2c0.1-0.5,0.7-1.9,0.7-2.1c0-0.2-0.1-1.6,0.1-2.1c0.2-0.5,1.1-1.8,1.3-2.1c0.2-0.4,1.3-1.6,1.3-1.6
		l0.8,0c0,0-0.2,0.6,0,1s-0.1,0.5,0.2,0.4c0.3-0.1,0.6,0.5,0.4,0.7s-0.5,1.1-0.8,1.3c-0.3,0.1-1.1,0.9-0.9,0.7s1.9-1,1.7-0.6
		c-0.2,0.3,0.1,0.8-0.7,1.4c-0.8,0.6-1.5,0.8-1.7,1.2c-0.1,0.3-0.8,1-0.8,1s1.8-0.5,2.4-1c0.5-0.5,1.3-3.1,1.4-3.6
		c0.1-0.5,1-1.3,1-1.3l0,1c0,0,1.1-0.8,1.6-0.9c0.6-0.1,0.9,0,0.9,0s-0.3,0.6-0.6,1.3c-0.3,0.6-0.7,1.3-0.5,1.1c0,0,0,1.2-0.6,1.4
		c-0.6,0.2-1.1,0.6-1.1,0.6s2.7-2.3,3.3-2.8c0.5-0.5,2-0.7,2-0.7c0.1,0.9-0.1,1.8-0.3,1.7c-0.3-0.1,1.2-1.2,1.7-1.2s0.5,0,0.5,0
		l0,0.9c0,0,0.5-0.6,1.3-0.5s2,0.6,2,0.6s-0.3,0.3-1.3,1c-0.9,0.7-1.6,0.5-1.8,0.6c-0.3,0.1,0.3,0.2,0.7,0.7
		c0.4,0.5,0.4,0.5-0.3,0.5c-0.7,0.1-1.8,0-2.1,0c-0.3,0-1.2-0.2-1,0c0.3,0.2,1.2,0.8,1.6,0.8c0.4,0.1,0,0.3-0.7,0.6
		c-0.7,0.3-1.8,1-2.2,0.7c-0.4-0.4-0.9-0.8-1.8-1c-0.8-0.2-0.8-0.2-0.8-0.2s3.3,1.2,3.6,1.6c0.3,0.4-0.2,1.1-0.6,1.2
		c-0.3,0.1-1,0.3-1.4,0c-0.4-0.3-0.6,0.1-0.6,0.1s0,0.7-0.8,0c-0.8-0.7-0.8-1.9-2.1-2.3s-3,0.1-3,0.1s2.6,0.2,3,0.8
		c0.4,0.6-0.4,0.7-0.4,0.7s0.3-0.7,0.8-0.1c0.6,0.6,0.5,1,0.7,1.3c0.2,0.3,0.3,0.8,0.3,0.8s-0.6,0.1-0.9,0.2
		c-0.3,0.1-0.7,0.5-0.7,0.5s-0.2,0.4-0.8,0c-0.6-0.4-1.1-1-1.1-0.9s0.1,1.2-0.2,1s-1.4-1.1-1.6-2C68,64.5,68,64.5,68,64.5L66.9,63.2
		z"/>
	<path class="st1" d="M60.8,53c0,0,0.8,0.1,0.9,1c0.1,0.9-0.4,1.1-0.1,2s0.5,1.8,1,2.1c0.5,0.3,0.9,0.7,0.9,0.7s-0.2,0.1,0-0.8
		c0.2-0.9,0.1-1.5,0.1-1.5s0.6,0.9,0.9,1.5c0.4,0.6,0.8,1.3,1.3,1.4c0.4,0.1,0.4,0.8,0.4,0.1s-0.4-0.6,0-0.7s1.4,0.3,1.4,0.3
		s0-1,1.1-0.4s1.1,0.6,1.1,0.6s-0.7-0.9-0.9-1.6c-0.1-0.8-1.3-0.4-1.3-0.4l1.2-0.3l-2.1-0.8l2.2-0.9c0,0-0.7,0.7-1.4,0
		c-0.7-0.7-1.2-0.7-1.7-0.7c-0.5,0,0.3-0.1,0.7-0.6s1.1-0.7,0.5-0.9c-0.6-0.1-1.5-1-2.7-0.7c-1.2,0.3-1.9,0.9-2.2,0.8
		c-0.3-0.2-1.1-0.9-1.1-0.9L60.8,53z"/>
	<path class="st1" d="M66.8,48.1c0,0,0.8,0.4,0.8-0.5s0.1-1.7-0.1-2.2c-0.2-0.5-0.9-2-0.9-2.2s0-0.4-0.2-1.1
		c-0.2-0.8-0.3-0.7-0.5-1.2c-0.2-0.5-0.4-0.6-0.4-1c0-0.3,0.1-0.7,0-0.9s0.6,0.2,0.6,0.2L66,38.2c0,0,0-0.6,0.1-1.7
		s-0.4-1.4,0.8-0.4c1.2,1,1.6,0.9,1.5,1.5c0,0.6-0.3,1.3-0.3,1.3s0.5-0.7,0.6-0.8c0.1-0.1,0.4-0.4,0.5,0.2s0,1.6-0.1,2
		s-0.5,1.3-0.5,1.3s0.8-1.4,1.2-1.6c0.4-0.3,0.8-0.6,0.8-0.2c0,0.5,0.5,1.4-0.1,2.3s-0.6,0.7-1.1,1.6c-0.5,0.9-0.5,0.9-0.5,1.5
		s0,0.9,0,0.9s1.1-1.7,1.6-2c0.5-0.3,0.8-0.3,0.9-0.2s1-0.5,1-0.5l0.8-0.2c0,0,0.2,0.5,0.2,0.8c-0.1,0.3-0.1,0.9-0.5,1.2
		s-0.9,0.7-0.7,0.7s0.9-0.1,0.8,0.2c-0.1,0.3-0.9,1.2-1.2,1.3c-0.3,0.1-2.6,0.8-2.9,0.9c-0.3,0-1.3,0.5-1.3,0.5l-0.9,0.5L66.8,48.1z
		"/>
	<path class="st1" d="M65.6,49.9c0,0,0.7,0.4,1.2,1c0.5,0.6,1.1,1.7,1.5,1.9c0.4,0.3,1.2,0.8,1.5,0.9c0.3,0.1,0.8,0.2,0.8,0.2
		s0-0.7-0.3-1.1c-0.3-0.4-0.7-0.5-0.7-0.5s1.3,0.9,1.9,1c0.6,0.1,1.3,0,1.3,0l-0.7-0.5c0,0,1.4-0.3,1.7-0.4c0.2-0.1,0.8,0.1,0.8-0.3
		c0.1-0.4-0.3-0.6-0.8-0.9s-1.5-0.6-1.5-0.6s-0.4-0.2-0.6-0.3c-0.3-0.1-1.7-0.1-1.3-0.2c0.4-0.1,1.2-0.6,1.2-0.8
		c0-0.1-0.7-0.6-0.9-0.6c-0.2,0-1.4,0.5-1.8,0.5c-0.5,0-0.2,0-1.1,0c-0.8,0-1.5,0.3-1.5,0.3L65.6,49.9z"/>
	<path class="st1" d="M65.6,49.1c0,0-0.4,0-1.1-0.8c-0.7-0.9-1.6-2.4-1.7-2.7c-0.1-0.3-0.2-1.3-0.2-1.3l1.5,0.6c0,0-0.6-1-0.6-1.7
		c0-0.8,0.2-0.5,0.5-0.9c0.2-0.4,0.1-0.8,0.3-1.2c0.2-0.4,0.2-0.7,0.4-0.7s1.5,0.2,1.9,1c0.4,0.8,0,1.8-0.1,2.2
		c-0.1,0.4-0.3,1.8-0.3,1.8s0.1-0.1,0.6-0.5c0.5-0.4,1-0.5,1.2-0.5c0.1,0,0.7-0.2,0.4,0.5c-0.4,0.8-0.5,1-1,1.5
		c-0.4,0.5-0.6,0.7-0.9,1.1c-0.3,0.4-0.6,1.2-0.6,1.2L65.6,49.1z"/>
	<path class="st1" d="M68.7,70.2c0,0.5,0.2,1-0.7,1.6c-0.9,0.6-1.6,0.7-2.2,1.1c-0.7,0.4-1.6,1-1.5,1.3c0,0.3,0,0.9,0,0.9
		s0.9,0.3,1.4,0c0.5-0.3,1.3-0.6,1.3-0.6s-1.3,0.9-1.7,1.5c-0.4,0.7-0.6,1.6-0.6,1.6s0.7,0.1,1.1-0.2s0.7-0.4,0.6-0.2
		c-0.1,0.2-1.3,0.3-1.2,1.1c0.1,0.9,0.5,1.2,0.5,1.2s0.6-0.9,0.3-0.4c-0.3,0.4,0,1.2,0,1.4s0.1,0.9,0.3,1.1c0.1,0.1,0.9,0.1,1.3-0.6
		c0.4-0.8,0.6-1.1,0.6-1.1s0.1,0.7,0.2,0.5c0.1-0.1,0.4-0.3,0.4-1.2c0-0.9-0.3-1.7-0.1-1.5c0.1,0.2,0.3,1.3,0.6,1.4
		c0.3,0.2,0.8-0.2,0.8-1.1c0-0.9-0.2-1.6-0.4-1.9c-0.2-0.2-0.1-0.5-0.5-1c-0.3-0.6-0.3-0.6-0.3-0.6s1.4,2,1.6,2.1S71,77,71,77
		s0.3-1.6,0.1-2.2s-1.4-1.8-1.6-2.1c-0.2-0.3-0.1-0.6-0.2-0.9s0-0.8,0-0.8L68.7,70.2z"/>
	<path class="st1" d="M69.4,70.2c0,0,1.7,0.2,2-0.3c0.3-0.4,1.1-0.9,1.3-1.3c0.2-0.4,1.3-1.5,2.1-1.9c0.7-0.3,1.4-0.2,1.6-0.2
		c0.1,0,0.6,0.2,0.4,0.5c-0.2,0.3-0.5,0.8-0.5,0.8s1.1-1.1,1.8-1s1.1,0,1.1,0s-0.5,1.3-0.8,1.6c-0.3,0.4,0.8-0.2,1.4-0.2
		c0.6,0.1,1,0.4,1,0.4L80,69.4c0,0,0.4-0.4,1.1,0.1c0.7,0.5,1,0.8,1,0.8s-0.9,0.9-1.5,0.8c-0.6,0-1.1,0-1.1,0s0.3,0.4,0.4,0.5
		c0.2,0.1-0.3,0.4-1,0.3c-0.7-0.2-1.5-0.8-1.3-0.3c0.2,0.5,0.5,1.1,0.6,1.3S78,73,77.6,72.9c-0.5-0.1-1-0.1-1.3-0.3
		s-0.6-0.7-0.9-0.8c-0.2-0.1-0.2-0.4,0.1,0.6c0.3,1,0.3,1,0.3,1s-1.6,0.8-2.4-0.5c-0.8-1.3-1.3-1.4-1.8-1.7
		c-0.5-0.3-1.4-0.4-1.4-0.4c-0.1-0.1-0.9,0.2-0.9,0.2L69.4,70.2z"/>
	<path class="st1" d="M71.7,73.6c0,0,0.8,0.9,0.5,1.5C72,75.8,71,77,71,77s-0.2,0.8-0.4,1.9c-0.2,1.1,0,1.4,0,1.4l0.7-0.8
		c0,0-0.2,0.3,0,1.2c0.2,0.9,0.4,0.7,0.8,1.2c0.4,0.4,0.6,0.8,0.8,1c0.2,0.2,0.3,0.5,0.3,0.5s0.6-1.2,0.6-1.7c0-0.5,0.1-0.7,0.3-0.7
		s0.2-1.1,0-1.3c-0.1-0.2-0.5-0.6-0.5-0.6l1,0.7c0,0,0.1-0.4,0-0.9c-0.1-0.6-0.1-0.7-0.4-1.1c-0.3-0.5-0.7-1.5-0.7-1.5
		s1.5,1,1.7,1.8c0.2,0.8,0.3,1.1,0.3,2.1c0,1-0.2,1.4,0.2,1.9c0.4,0.5,0.6,0.4,1,0.7c0.4,0.3,0.8,0.5,0.8,0.5s-0.1-0.8,0-1.2
		c0.1-0.4,0.1-1.2,0-1.5c-0.1-0.3-0.5-1-0.5-1s0.9,0.8,1.2,1.6c0.3,0.8,0.3,0.8,0.9,1.6s1,0.8,1,0.8l0-1.4c0,0,0.6,0.9,0.8,1.2
		c0.2,0.3,0.4,0.6,0.7,0.8c0.3,0.2,0.3,0.6,0.3,0.2c0.1-0.4-0.3-1-0.3-1s0.9,0.5,1.5,0.8s1.5,0.5,1.5,0.5l0.5,0.2
		c0,0-0.5-0.8-0.9-1.6s-0.5-0.8-0.8-1C83.1,82,82.3,82,82.7,82c0.4,0,1.3-0.3,1.3-0.3s-0.9-0.9-1.8-1c-0.9-0.1-1.5-0.3-1.5-0.3
		s1.4-0.4,1.8-0.5c0.4-0.1,0.4-0.3,0.3-0.4c-0.1,0-1.5-0.7-2.3-0.7c-0.7,0-2.2,0-2.2,0s3.5-0.4,3.6-0.5s-1.3-1.3-1.7-1.4
		c-0.4-0.2-3,0.6-3.7,0.2c-0.7-0.3-1.3-0.7-1.5-0.8c-0.1-0.1-0.9-0.8-0.9-0.8s1.7,0.4,2.1,0.7c0.4,0.3,0.8,0.3,1,0.4s0.6,0.1,0.8,0
		c0.2-0.1-0.2-0.7-0.2-0.7s1.1,0,1.5,0.2c0.4,0.1,0.5,0.1,0.8-0.2s1.4-0.6,1.4-0.6s-0.6-1-1.2-1c-0.6-0.1-0.9,0.2-0.6-0.1
		s0.1-0.2-0.5-0.4s-2-0.2-1.8-0.3c0.2-0.1,1.2-0.7,1.2-0.7s-2-1-2.5-0.2c-0.5,0.8-2.8,1.6-2.8,1.6L72.9,74L71.7,73.6z"/>
	<path class="st2" d="M79.6,41.3c-0.3,0-3.2-0.3-6.5-0.2c-3.2,0.1-9.6,1.3-10.4,1.3c-0.8-0.1-2.2-0.1-2.2-0.1s-1.4-2.7-1.6-3
		c-0.2-0.4-0.5-1.2-0.5-1.2s-1.6-4.8-1.9-5.4c-0.3-0.5-1.2-1.7-1.3-2.1c-0.2-0.4-1.3-1.7-1.3-1.7l1.7,3.3c0,0,1.6,5.2,1.8,5.8
		c0.2,0.6,1.2,2.6,1.5,3.1s0.6,1.6,0.6,1.6L53,44l-6.2,1l-0.1-1.9l-0.6-1.2c0,0-0.1,1.7-0.1,2c0.1,0.3-0.2,1.2-0.2,1.2l-8.7,1.7
		l-5.5,0.6l-1.4,0.5L30,48.7c0,0,3.1-0.5,4-0.6c0.9-0.1,4.9-1,5.8-1.1c1-0.1,5.8-1.1,5.8-1.1l-0.9,2.9l-0.4,1.5l1,0
		c0,0,0.8-3.1,0.9-3.4c0-0.3,0.4-1,0.4-1s7.9-1.8,9.1-1.7s3.7-0.3,3.7-0.3s0.1,3.3,0.1,3.7c0,0.4-0.9,7-1,7.3c0,0.3-0.6,2-0.6,2
		l0.5,1.9l0.8,0.2c0,0,0.3-5.2,0.4-6.1c0.2-0.9,1-7.5,0.9-8.2s0.2-1,0.2-1s7.3-1.2,9.3-1.1c2,0.1,5.8-0.2,7,0
		c1.2,0.2,2.4,0.5,2.4,0.5L79.6,41.3z"/>
	<path class="st2" d="M45.5,43c0,0-1.4,1.4-1.7,1.7c-0.3,0.3-0.5-0.1-1.4,0.6c-0.9,0.6-1.6,0.3-1.6,0.3L39.4,45c0,0,1.1-0.7,0.7-0.6
		s-0.8,0.3-1.3-0.2c-0.6-0.4-0.7-0.5-0.3-0.7s0.7-0.8,1.4-1c0.7-0.1,1.6-0.5,1.6-0.5s-0.2-0.8,0-0.9s1.8-0.3,2.1,0
		c0.3,0.3,1,1.2,1.4,1c0.3-0.2,0.1-1.1-0.1-1.4c-0.2-0.2-0.3-0.4-0.7-0.5c-0.4-0.1-2.7,1.5-3.8,1.3c-1-0.2-1.7-0.4-1.4-0.5
		c0.3-0.1,1.4-0.7,1-0.8c-0.3-0.1-1-0.3-1.3-0.5c-0.3-0.2-0.8-1-0.8-1s0.8-1.1,1.4-1c0.6,0,2.3,0.2,2.6,0.3s1.8,0.2,1.4-0.1
		s-3.4-0.4-4.2-0.7s-1-1.4-1-1.4s1.5-1,1.7-0.9s1,0.3,1,0.3s-1,0.5-1.7-0.8c-0.7-1.2-1.1-1-0.7-1.2s1.4-0.4,1.3-0.6
		s-0.4-0.8-0.6-1.4c-0.2-0.6,0.1-1.1,0.1-1.5s0.1-0.7,1,0c0.9,0.6,2.4,1.8,2.4,1.8s-0.2-1.8,0.5-1.1c0.7,0.8,0.9,1.6,0.8,2
		s-0.4,1.1-0.4,1.1s1.1-1.1,1.4-1.8c0.3-0.7,0.5-1.2,0.6-1.1c0.1,0.1,0.4,1.4,0.7,2c0.2,0.6,0.3,0.9-0.1,1.5
		c-0.4,0.6-0.6,0.6-0.8,1.2c-0.2,0.6,0,1.8,0,1.8s0.9-2.2,1.2-2.7c0.4-0.5,1.2-1.6,1.5-1.8c0.3-0.2,0.5,0.2,0.7,0.5
		c0.2,0.4,0.6,1.4,0.6,1.4s-0.6,0.8-0.9,1.4c-0.2,0.6-1.4,1.8-1.6,2.1c-0.2,0.3-0.8,0.4-0.8,0.9c0,0.4-0.1,1.4,0.3,1.7
		s1.2-2.5,1.6-2.7c0.4-0.2,0.8-2,1.6-2c0.8-0.1,2.1-2.4,2.2-2.1c0.1,0.3,0.3,2.5,0.3,2.5s-0.1,1.8-1,2.8c-0.9,0.9-2.6,2.3-2.6,2.3
		l-1.2,1.5l-0.5,1.2l-0.7,0L45.5,43z"/>
	<path class="st2" d="M57.4,37.9c0,0,1.7-0.7,2.3-1.7c0.5-1,0.6-2.5,1-3.3c0.4-0.8,1.5-2,1.5-2l0.2,1.3c0,0-0.2,0.1,0.8-0.6
		s1.5-1.6,1.8-1.6c0.3,0,0.4,0.7,0.4,0.7c2.1-0.7,3-0.5,3.5-0.6c0.4-0.1,0.9-0.2,0.4-0.1c-0.4,0.1-1.1,1.9-1.6,2.4
		C67,33,67,33,67,33s0.5,1-0.5,1.1c-1,0.1-1.9,0.6-2,0.8c-0.1,0.2,2.1,0,1.4,0.5c-0.6,0.5-2.6,1.1-2.9,1.2c-0.3,0.1-2.9,0.5-3.2,0.8
		s-1.2,0.7-1.2,0.7L57.4,37.9z"/>
	<path class="st2" d="M56.6,32.7c0,0-0.2-1.3,1-2s2-1.3,2.5-1.9s1.3-2.5,1.3-2.5l-1.9,1.1c0,0,0.9-1,1.2-1.6
		c0.4-0.6,0.4-1.8,0.4-1.8l-0.7,1c0,0-0.2-1-0.3-1.8c-0.1-0.7-0.4-1.5-0.4-1.5s-0.7,0.6-0.9,1.2s-0.2,1.4-0.2,1.4
		c-0.6-0.4-1-0.6-1-0.6s-0.3,1.5-0.2,1.7s-0.4,1-0.5,0.8s-0.3-0.2-0.4,0.4c-0.1,0.6,0.2,2.3-0.1,2.8c-0.3,0.5-0.9,2.7-0.9,2.7
		L56.6,32.7z"/>
	<path class="st2" d="M54.7,28.3c0.3-1,1.1-2.4,1.4-3.2c0.2-0.8,0.4-2.4,0.4-2.4c-0.7-0.5-1-1.3-1.2-1.8c-0.2-0.5-0.5-0.8-0.7-0.5
		s-0.1,1.5-0.3,2.2c-0.2,0.7-0.7,1.7-0.7,2.2c0,0.6-0.3,1.5-0.3,1.5s-0.2-2.7-0.1-3.7c0.2-1-0.1-1.2-0.3-1.6
		c-0.2-0.4-0.7,0.9-0.7,0.9s-0.1-0.4-0.6-0.9s0.2-0.4-0.5-0.5c-0.8-0.1-0.8-0.1-1.3-0.5c-0.6-0.4-1.2-1-1.3-0.9s0.4,0.8,0,1.9
		C48,22.2,47.6,23,48,23.6c0.4,0.5,1.2,1.3,1.7,1.5c0.5,0.2-1.1,0.7-1.2,0.4c-0.2-0.3-1.5,0.2-1.5,0.2s0.2,0,1.2,0.9
		c0.9,0.9,3.3,1.2,3.5,1.4c0.2,0.1-3.5,0.2-3.7,0.6c-0.3,0.3-0.8,1.6-0.6,1.9c0.3,0.3,1.1,0.6,1.7,0.9c0.6,0.3,2-0.3,2.6-0.8
		c0.6-0.5,1.4-1.3,1.4-1.3s0.4,0.4,0.6,0.6S54.4,29.3,54.7,28.3z"/>
	<path class="st2" d="M56.6,32.7c0,0-2.3,0.7-2.9,1.3c-0.6,0.6-1.2,1-1.5,1.1c-0.3,0.1-0.9-0.6-0.9-0.6s-0.2,1.2-1,1.3
		c-0.8,0.1-0.7,0.7-0.8,0.1c-0.1-0.6,0.5-1.2-0.1-1.3c-0.6-0.1-0.6-0.1-1.4-0.3c-0.9-0.2-1.3-0.7-1.5-0.9c-0.2-0.2-0.5-1.4-0.5-1.4
		s1.5,0.1,1.9,0.1c0.4,0,1.6-0.4,1-0.6c-0.6-0.2-0.4-0.9-0.1-0.9s0.6-0.3,1.1,0.3c0.4,0.5-0.8,1.2,0.4,0.5s-0.4-1.4,0.4-1
		c0.8,0.4,1.4,0,1.8,0.3c0.3,0.3-0.5-0.6,0.3,0.3c0.8,0.8,1,0.2,1.3,0.6c0.3,0.4,0.7,0.6,0.7,0.6L56.6,32.7z"/>
	<path class="st2" d="M57.4,37.9c0,0-0.4,1.3-1.3,0.5s-0.8-1.4-1.4-1.8c-0.6-0.4-1-0.6-1.6-0.4s-1,0.1-1,0.1l0.4,1.3
		c0,0-0.2-0.7-1.1-0.3s-1.2,0.5-1.4,0.9c-0.2,0.4-1.1,0.6-1.5,0.9c-0.4,0.3-1,0.5-0.9,1.2c0,0.7-0.3,1.4-0.3,1.4l0.1,1.1
		c1,0,1.9,0.3,2.5-0.4c0.7-0.7,1.3-1.3,0.7-0.7c-0.7,0.7-1.7,1.8-1.8,2.1c-0.1,0.4,0.8,0.5,1.5,0.1c0.7-0.4,0.9-0.7,1.5-1.3
		c0.6-0.6,0.6-0.6,0.6-0.6s0,0.6-0.3,1.4c-0.2,0.8-0.5,1.6-0.5,1.6s0.9,0,1.5-1c0.7-1,1.7-1.4,2.2-2.3s0.7-1.5,1.1-2.3
		c0.4-0.8,1.5-0.5,1.5-0.5L57.4,37.9z"/>
	<path class="st2" d="M60.2,50c0,0,0.9,0,2.1-0.2c1.1-0.2,3.1-1,3.9-1.3c0.9-0.3,2.2-0.9,2.4-0.8c0.2,0.1,0.9,0.2,0.9,0.2
		s-0.1,0.8-1,1.3S66.8,50,66.8,50s1.1-0.1,2-0.1s1.6,0,2.1,0c0.5,0.1,0.8,0.4,0.8,0.4s-1.1,0.5-0.8,0.6s0.6-0.6,1.9,0.4
		c1.3,1,1.4,1.2,1.6,1.3c0.2,0.1-0.2,1.2-2,1.2c-1.9,0.1-2.3,0.2-2.7-0.1s-1-0.7-0.8-0.6c0.2,0.1,1.1,1.3,0.9,1.6
		c-0.2,0.3-0.3,1.8-1.4,0.8s-1.9-0.9-2-1.5c-0.1-0.6-1.1-1.8-1.1-1.8s1.8,2.5,1,2.6c-0.8,0.1-1.4-0.1-2.1-0.7
		c-0.7-0.7-1.2-1.6-1.3-1.9c-0.1-0.3-0.2-1.5-0.6-1.3c-0.4,0.1,0.2,0.1-0.8,0.1s-1.8-0.3-1.8-0.3L60.2,50z"/>
	<path class="st2" d="M45.1,49.3c0.4,0.4,1.2,2,1.4,2.1c0.2,0.2,1.6,0.9,1.9,1.5c0.3,0.5,0.8,2.3,1,2.8c0.2,0.5,0.6,2.4,0.6,2.4
		L49.4,59c0,0-0.4-0.6-0.9-0.7c-0.5-0.1-0.4-0.5-0.5-0.1c-0.1,0.4-0.9,0.3-1,0c-0.1-0.3-0.7-1.3-0.6-1.7s0-1.8,0.1-1.4
		c0.1,0.4-0.5,2.7-0.7,2.3C45.6,57,45,57,45.1,55.7c0-1.2,0.4-2.2,0.2-2.5s-0.3-1.5-0.3-1.5S44,54,44,54.9c0.1,0.9,1.9,3.4,2.3,3.8
		c0.4,0.5,0.5,1.9,0.5,1.9L45.9,60c0,0-0.1,1.6-0.4,2.3c-0.3,0.7-0.7,0.9-0.7,0.9s-0.4-0.7-0.7-1.4c-0.4-0.7-0.7-1.6-0.7-1.2
		c0,0-1.1-0.8-0.8-1.6s0.3-1.6,0.3-1.6s0.1,4.4,0.2,5.3c0.1,0.9-0.8,2.6-0.8,2.6c-1-0.5-1.6-1.2-1.4-1.5s0.2,2.1-0.2,2.6
		c-0.4,0.5-0.4,0.5-0.4,0.5l-0.8-0.6c0,0,0.2,0.9-0.6,1.7s-2,1.7-2,1.7s-0.1-0.6,0-2c0.1-1.4,0.7-2,0.8-2.4c0.1-0.4-0.4,0.2-1.1,0.3
		s-0.7,0.1-0.2-0.7c0.5-0.8,1.4-1.9,1.6-2.2c0.2-0.3,1.1-1.2,0.8-1c-0.3,0.2-1.6,0.8-2,1.2c-0.4,0.4-0.3-0.2,0-1.2
		c0.3-1,0.4-2.6,1.1-2.8c0.7-0.2,1.4-0.5,2.3-1.3c0.8-0.7,0.8-0.7,0.8-0.7s-3.7,2.7-4.3,2.8c-0.6,0.1-0.9-1-0.7-1.4s0.5-1.3,1.1-1.5
		s0.3-0.7,0.3-0.7s-0.7-0.5,0.6-0.8c1.3-0.3,2.3,0.4,3.8-0.8s2.2-3.2,2.2-3.2s-2.1,2.7-3,2.7c-0.9,0-0.4-0.9-0.4-0.9
		s0.5,0.8-0.6,0.9c-1,0.2-1.4-0.1-1.8-0.1s-0.9-0.2-0.9-0.2s0.3-0.7,0.5-1.1c0.2-0.4,0.1-1.1,0.1-1.1s-0.2-0.5,0.6-0.8
		c0.8-0.3,1.8-0.5,1.6-0.6c-0.2-0.1-1.2-0.7-0.8-0.8c0.4-0.1,2.1-0.8,3-0.4c1,0.4,1,0.4,1,0.4L45.1,49.3z"/>
	<path class="st2" d="M59.3,49.5c0,0-0.6,0.8-1.5,0.3S57,48.6,56,48.4s-2.1-0.6-2.8-0.3c-0.7,0.3-1.4,0.5-1.4,0.5s0.1-0.2,0.7,0.6
		s1.4,1,1.4,1s-1.3,0-2.1,0c-0.9,0-1.8,0-2.2,0.4c-0.4,0.4-1-0.1-0.4,0.4c0.6,0.5,0.9-0.1,0.6,0.5c-0.2,0.6-1.3,1.3-1.3,1.3
		s0.9,0.6-0.5,1.4s-1.4,0.8-1.4,0.8s1.4-0.2,2.2,0.2c0.8,0.4,1.4-1.2,1.4-1.2l-0.6,1.5l2.3-1.7L51,56.9c0,0-0.1-1.2,1.1-1.5
		c1.2-0.3,1.6-0.8,1.9-1.3c0.4-0.5-0.1,0.3,0,1.2c0.2,0.9-0.2,1.7,0.4,1.1s2.1-1,2.7-2.4c0.6-1.5,0.6-2.6,1-2.8
		c0.4-0.3,1.6-0.6,1.6-0.6L59.3,49.5z"/>
	<path class="st2" d="M59.3,59.1c0,0-0.9,0.6-0.1,1.2c0.8,0.6,1.5,1.2,2.2,1.3c0.6,0.1,2.5,0.4,2.7,0.5c0.2,0.1,0.4,0.2,1.2,0.5
		s0.9,0.2,1.5,0.3c0.7,0.1,0.9,0,1.2,0.2c0.3,0.2,0.5,0.6,0.8,0.6c0.2,0-0.7,0.6-0.7,0.6l1,0.4c0,0,0.6,0.4,1.6,1.2s1.6,0.5-0.2,1.1
		c-1.8,0.6-2,1.1-2.6,0.7s-1-1.2-1-1.2s0.3,1,0.3,1.2c0.1,0.1,0,0.7-0.6,0.4c-0.7-0.3-1.5-1-1.8-1.4c-0.3-0.3-0.8-1.4-0.8-1.4
		s0.6,1.8,0.6,2.4s0,1.3-0.4,0.9c-0.4-0.4-1.7-0.4-2.1-1.6c-0.4-1.2-0.2-1.1-0.6-2.2c-0.5-1.1-0.4-1.2-1-1.5
		c-0.6-0.4-0.9-0.7-0.9-0.7s0.8,2.2,0.7,3s-0.3,1.1-0.5,1.1c-0.2,0.1-0.4,1.4-0.4,1.4L59,69.2c0,0-0.6-0.1-0.8-0.3
		c-0.2-0.2-0.7-0.6-0.7-1.3c0-0.7,0-1.4-0.1-1.2s-0.6,1-0.8,0.7c-0.2-0.2-0.4-1.8-0.2-2.2c0.2-0.4,1.2-3.3,1.4-3.7
		c0.2-0.4,0.5-1.7,0.5-1.7l0.2-1.2L59.3,59.1z"/>
	<path class="st2" d="M58.5,56.6c0,0-0.9,0.5-1.8,0.6c-0.9,0.1-2.3,0-2.9,0.3s-1.6,0.8-1.9,1c-0.3,0.2-0.8,0.7-0.8,0.7
		s0.6,0.5,1.3,0.4c0.7-0.1,1-0.4,1-0.4S51.5,60,51,60.5c-0.5,0.5-1,1.3-1,1.3l1-0.4c0,0-0.9,1.7-0.9,2c-0.1,0.3-0.7,0.8-0.4,1.1
		c0.3,0.3,0.8,0.1,1.5-0.2c0.7-0.4,1.7-1.1,1.7-1.1s0.5-0.3,0.8-0.5c0.3-0.2,1.4-1.7,1.2-1.2c-0.2,0.5-0.3,1.7-0.2,1.7
		s1-0.4,1.2-0.6c0.2-0.2,0.6-1.8,0.9-2.3c0.4-0.5,0.2-0.3,0.8-1.1c0.7-0.9,0.9-1.7,0.9-1.7L58.5,56.6z"/>
	<path class="st2" d="M59.3,57.1c0,0,0.3-0.5,1.6-0.6s3.4-0.1,3.8,0c0.3,0.1,1.4,0.6,1.4,0.6l-1.8,1.2c0,0,1.4,0,2.1,0.4
		c0.7,0.5,0.3,0.6,0.5,1.1s0.7,0.6,0.9,1.1c0.2,0.4,0.5,0.7,0.4,0.9c-0.1,0.2-1.3,1.5-2.4,1.4s-1.6-1.2-2-1.5s-1.5-1.5-1.5-1.5
		s0,0.2,0,1c0,0.8-0.4,1.4-0.5,1.5c-0.1,0.1-0.3,0.9-0.7,0c-0.4-0.9-0.5-1.2-0.7-2.1s-0.3-1.1-0.4-1.7c-0.1-0.6-0.6-1.4-0.6-1.4
		L59.3,57.1z"/>
	<path class="st2" d="M37.2,46.7c-0.5-0.4-1.1-0.5-1-1.8c0.2-1.3,0.5-2.1,0.6-3.1c0.1-1,0.3-2.3,0-2.5c-0.3-0.1-0.8-0.6-0.8-0.6
		s-1,0.8-1.1,1.5s-0.4,1.8-0.4,1.8s0.2-2-0.1-2.8c-0.3-0.9-1.1-1.7-1.1-1.7s-0.6,0.7-0.6,1.3s-0.2,1-0.3,0.8c-0.1-0.2,0.7-1.6-0.2-2
		c-0.9-0.4-1.5-0.3-1.5-0.3s0.4,1.2,0.2,0.6c-0.2-0.6-1.1-0.8-1.4-0.9c-0.3-0.1-1-0.5-1.2-0.4c-0.2,0.1-0.8,0.9-0.4,1.8
		c0.4,0.9,0.6,1.3,0.6,1.3s-0.7-0.3-0.7-0.1s0,0.6,0.9,1.2s1.8,0.8,1.5,0.8s-1.4-0.4-1.8-0.3C28,41.6,28,42.4,28.8,43s1.7,0.9,2,0.8
		c0.4-0.1,0.5,0.2,1.3,0.2c0.8,0,0.8,0,0.8,0s-2.9,0.1-3.2,0.3s-0.6,0.4-0.6,0.4s1.3,1.4,2,1.5s2.7-0.3,3.1-0.3
		c0.4,0,0.7,0.3,0.9,0.4c0.3,0.1,0.8,0.6,0.8,0.6L37.2,46.7z"/>
	<path class="st2" d="M36.7,47.4c0,0-1.4,1.7-1.2,2.3c0.2,0.6,0,1.7,0.2,2.2c0.2,0.5,0.4,2.4,0.2,3.4c-0.2,1-0.9,1.7-1,1.8
		c-0.2,0.1-0.6,0.6-0.8,0.2c-0.1-0.4-0.3-1.1-0.3-1.1s0.2,1.9-0.5,2.5c-0.6,0.7-0.8,1.1-0.8,1.1s-0.8-1.4-0.9-2s-0.4,1-0.9,1.6
		c-0.6,0.6-1.2,0.8-1.2,0.8l0-1c0,0,0.1,0.7-0.9,1.1S27,61,27,61s-0.1-1.5,0.3-2.1c0.4-0.6,0.9-1.2,0.9-1.2s-0.6,0-0.8,0.2
		s-0.2-0.6,0.5-1.3c0.7-0.7,1.9-1,1.3-1.2s-1.4-0.1-1.6-0.2c-0.2-0.1-0.1-0.4,0.3-0.9s0.8-1,1.3-1.2c0.4-0.2,1.1-0.2,1.4-0.4
		c0.3-0.1,0.6,0.1-0.6-0.3c-1.2-0.4-1.2-0.4-1.2-0.4s0.4-2.2,2.2-2.2c1.8,0,2.3-0.5,2.9-0.8c0.6-0.3,1.4-1.2,1.5-1.2
		c0.1,0,0.5-1.1,0.5-1.1L36.7,47.4z"/>
	<path class="st2" d="M31.8,47.7c0,0-1.4,0.2-1.8-0.5c-0.4-0.7-0.8-2.5-0.8-2.5S28.5,44,27.7,43c-0.8-0.9-1.3-1-1.3-1l0.2,1.3
		c0,0-0.1-0.4-1.1-0.8c-1-0.4-1,0-1.7,0.1c-0.7,0.1-1.2,0.2-1.6,0.2s-0.7,0-0.7,0s0.7,1.4,1.2,1.8c0.4,0.3,0.6,0.5,0.4,0.7
		c-0.1,0.2,0.9,0.9,1.2,0.9c0.3,0,0.9-0.2,0.9-0.2l-1.4,0.6c0,0,0.3,0.3,0.9,0.7s0.7,0.3,1.4,0.3c0.6,0,1.9,0.2,1.9,0.2
		s-2.1,0.9-3,0.6s-1.3-0.4-2.2-1.1c-0.9-0.7-1.1-1.1-1.9-1.1c-0.8,0-0.8,0.4-1.4,0.6c-0.6,0.2-1,0.5-1,0.5s0.8,0.4,1.1,0.8
		c0.3,0.4,1,0.9,1.3,1c0.3,0.1,1.3,0.2,1.3,0.2s-1.5,0.5-2.5,0.3c-1-0.2-0.9-0.2-2.2-0.1c-1.3,0.2-1.5,0.5-1.5,0.5l1.3,1
		c0,0-1.3,0-1.7,0s-0.8,0.1-1.3,0.2c-0.5,0.2-0.8-0.1-0.5,0.2c0.3,0.3,1.2,0.4,1.2,0.4s-1.2,0.6-1.9,1.1c-0.7,0.5-1.6,1.2-1.6,1.2
		L11,54.7c0,0,1.1,0,2.2,0c1.1,0,1.2,0,1.6-0.2c0.5-0.3,1.1-1.1,0.8-0.7c-0.3,0.4-0.7,1.6-0.7,1.6s1.6-0.4,2.3-1.3s1.4-1.4,1.4-1.4
		s-0.7,1.7-0.9,2.3c-0.2,0.5,0.1,0.6,0.2,0.5c0.1-0.1,1.8-1.1,2.4-1.9c0.5-0.8,1.7-2.3,1.7-2.3s-2.3,4-2.3,4.1
		c0,0.2,2.1-0.5,2.6-0.8c0.5-0.3,1.7-3.6,2.6-4.1s1.6-1,1.8-1c0.2-0.1,1.5-0.4,1.5-0.4s-1.7,1.5-2.3,1.8c-0.6,0.2-0.9,0.6-1.1,0.8
		c-0.2,0.2-0.6,0.6-0.6,0.8s0.8,0.2,0.8,0.2s-0.9,1.2-1.3,1.5c-0.5,0.3-0.5,0.5-0.4,1c0.1,0.5-0.5,1.9-0.5,1.9s1.3,0,1.9-0.6
		c0.5-0.6,0.5-1.1,0.5-0.6c0,0.5,0.1,0.2,0.8-0.3s1.7-2.1,1.6-1.8c-0.1,0.3-0.2,1.7-0.2,1.7s2.4-1.4,2.1-2.5c-0.4-1,0.6-4,0.6-4
		l0.6-0.4L31.8,47.7z"/>
	<path class="st3" d="M86.4,23c-0.4,0.2-0.5-0.8-4.3,1.8c-3.8,2.6-10.4,8.8-11.4,9.3c-1,0.5-2.7,1.6-2.7,1.6s-4.1-1.6-4.7-1.8
		c-0.5-0.2-1.7-0.9-1.7-0.9s-6.4-3.7-7.3-4c-0.9-0.3-3-0.9-3.6-1.1s-3.1-0.7-3.1-0.7l5,2.1c0,0,6.7,4.1,7.5,4.6
		c0.8,0.4,3.8,1.7,4.7,2S67,37,67,37l-6.7,6.4l-6.6,5.9l-1.9-1.8L50,46.6c0,0,1.4,1.8,1.7,2.1c0.3,0.2,0.9,1.3,0.9,1.3l-9,8.5
		l-6.2,4.9L36.2,65l0.7,1.1c0,0,3.3-2.9,4.3-3.7c1-0.8,5-4.8,6.1-5.6c1.1-0.9,6-5.6,6-5.6l1.6,3.7l0.9,1.8l1.2-0.8
		c0,0-1.8-3.8-2.1-4.1c-0.2-0.3-0.4-1.3-0.4-1.3s7.9-8,9.4-8.8c1.5-0.8,4.2-3.1,4.2-3.1s3.1,3.3,3.6,3.7c0.4,0.4,5.3,7.9,5.5,8.3
		c0.2,0.3,1.1,2.5,1.1,2.5l2.4,1.5l1.2-0.4c0,0-4.5-5.5-5.1-6.6c-0.7-1.1-5.8-8.5-6.5-9.1c-0.8-0.7-0.8-1.2-0.8-1.2
		s7.7-6.9,10.2-8.4c2.5-1.4,3.1-1.8,4.8-2.4c1.6-0.7,3.4-1.4,3.4-1.4L86.4,23z"/>
	<path class="st4" d="M50.4,48.2c0,0-0.4,2.5-0.6,3s-0.7,0.3-1.2,1.7c-0.5,1.3-1.7,1.5-1.7,1.5L44.8,55c0,0,0.7-1.6,0.3-1.2
		c-0.4,0.3-0.7,0.9-1.8,0.9c-1.1,0-1.3,0.1-1-0.5c0.3-0.6,0.1-1.4,0.8-2s1.5-1.8,1.5-1.8s-1-0.7-0.9-0.9c0.2-0.2,1.9-1.6,2.5-1.6
		c0.6,0,2.4,0.5,2.6,0c0.2-0.5-0.9-1.2-1.3-1.3c-0.4-0.1-0.7-0.2-1.2,0c-0.6,0.2-1.9,3.6-3.3,4.3c-1.4,0.6-2.5,0.9-2.2,0.6
		s1-1.8,0.5-1.6s-1.5,0.5-2,0.5c-0.5,0-1.9-0.5-1.9-0.5s0-1.7,0.8-2.2c0.8-0.5,3-1.6,3.3-1.7c0.4-0.2,2.3-1.2,1.6-1.2
		c-0.8,0.1-4.5,2.3-5.7,2.5s-2.5-0.6-2.5-0.6s0.9-2.1,1.2-2.3c0.3-0.1,1.5-0.5,1.5-0.5s-0.8,1.3-2.7,0.5S32.7,44,33,43.4
		c0.3-0.6,1.3-1.5,1.1-1.6s-1.2-0.5-2-0.9c-0.8-0.5-0.9-1.2-1.2-1.6c-0.3-0.4-0.4-0.8,1.2-0.9c1.7-0.1,4.5,0,4.5,0s-1.9-1.7-0.4-1.5
		c1.6,0.2,2.6,0.9,2.8,1.5c0.2,0.5,0.5,1.4,0.5,1.4s0.2-2,0-2.9c-0.2-0.9-0.5-1.6-0.3-1.5c0.2,0.1,1.9,1.1,2.6,1.5
		c0.8,0.4,1.3,0.7,1.3,1.6s-0.2,1,0.1,1.8c0.2,0.8,1.6,1.8,1.6,1.8s-1-3-1-3.7c0-0.8-0.1-2.6,0.2-3c0.2-0.5,0.8-0.2,1.3,0
		s2,0.9,2,0.9s0,1.3,0.2,2.1c0.3,0.8-0.1,3,0,3.4c0.1,0.5-0.6,1.1-0.2,1.6s1.2,1.6,1.9,1.5c0.7,0-0.9-3.5-0.6-4s-0.8-2.6,0-3.3
		c0.9-0.7,0.3-4.1,0.7-3.8c0.4,0.3,2.6,2.4,2.6,2.4s1.6,1.9,1.3,3.6c-0.2,1.6-1,4.3-1,4.3l-0.1,2.5l0.4,1.6l-0.9,0.5L50.4,48.2z"/>
	<path class="st5" d="M60,33.8c0,0,1.4-2.1,1.2-3.5c-0.2-1.4-1.5-3-1.8-4.1s0-3.1,0-3.1l1.4,1.2c0,0-0.2,0.2,0.5-1.2
		c0.6-1.4,0.4-2.8,0.7-3c0.3-0.2,1.2,0.4,1.2,0.4c1.8-2.4,3.3-2.8,3.7-3.3c0.4-0.4,0.9-0.9,0.4-0.4c-0.4,0.4,0.5,2.8,0.2,3.7
		c-0.3,0.9-0.3,0.9-0.3,0.9s1.5,0.7,0.3,1.5c-1.1,0.9-1.8,2.1-1.8,2.4c0,0.3,2.5-1.6,2.2-0.6c-0.3,1-2.1,3.1-2.4,3.5
		c-0.3,0.3-3,2.8-3.1,3.4c-0.1,0.5-0.9,1.6-0.9,1.6L60,33.8z"/>
	<path class="st6" d="M54.3,29c0,0-1.4-1.2-0.6-2.8s1.3-2.9,1.3-3.9c0-1-0.8-3.6-0.8-3.6L53,21.3c0,0,0.1-1.7,0-2.6
		c-0.1-0.9-1.1-2.1-1.1-2.1v1.6c0,0-1.2-0.9-2-1.6c-0.8-0.7-2-1.2-2-1.2s-0.3,1.2,0,2c0.3,0.8,1.1,1.6,1.1,1.6
		c-1.1,0.1-1.7,0.1-1.7,0.1s1,1.7,1.3,2c0.3,0.2,0.4,1.4,0.1,1.2c-0.3-0.2-0.5,0-0.1,0.7c0.4,0.7,2.4,2.2,2.5,2.9
		c0.1,0.8,1.4,3.5,1.4,3.5L54.3,29z"/>
	<path class="st7" d="M48,26c-0.5-1.3-0.9-3.4-1.3-4.3c-0.4-1-1.7-2.7-1.7-2.7c-1.3,0-2.4-0.5-3.1-0.9s-1.4-0.4-1.3,0
		c0.1,0.4,1.3,1.6,1.7,2.5s0.7,2.3,1.2,2.8s1,1.8,1,1.8s-2.7-2.6-3.5-3.8c-0.8-1.2-1.2-1.2-1.8-1.4s0,1.5,0,1.5s-0.4-0.3-1.5-0.4
		c-1.1-0.1-0.1-0.7-1.1-0.1s-1,0.5-2.1,0.5s-2.4-0.1-2.3,0.1c0.1,0.2,1.2,0.5,1.7,2c0.5,1.4,0.9,2.5,1.8,2.7
		c0.9,0.2,2.7,0.4,3.4,0.2c0.8-0.2-0.7,1.5-1.1,1.4c-0.4-0.2-1.7,1.4-1.7,1.4s0.3-0.2,2.2,0c2,0.2,5.1-1.3,5.4-1.3s-4,2.9-4,3.5
		s0.4,2.3,1.1,2.4c0.7,0.1,2-0.2,2.9-0.4c1-0.2,2.2-1.8,2.4-2.8c0.2-1,0.5-2.4,0.5-2.4s0.9,0.1,1.3,0.1S48.5,27.3,48,26z"/>
	<path class="st8" d="M54.3,29c0,0-2.1,2.5-2.3,3.6c-0.2,1.1-0.5,2-0.9,2.3c-0.3,0.3-1.6,0-1.6,0s0.9,1.4,0,2.1
		c-0.9,0.7-0.2,1.2-0.9,0.7s-0.4-1.6-1.3-1.3c-0.9,0.3-0.8,0.3-2.1,0.8c-1.3,0.4-2.2,0.3-2.6,0.2s-1.8-1.1-1.8-1.1s1.8-1.1,2.4-1.4
		c0.5-0.3,1.6-1.6,0.7-1.4s-1.3-0.5-1-0.9s0.5-0.7,1.5-0.5c1,0.2,0.1,1.8,1,0.2c0.8-1.6-1.8-1.2-0.5-1.4c1.3-0.2,1.7-1.1,2.4-1.1
		c0.7,0-1.1-0.2,0.7,0c1.7,0.2,1.4-0.7,2.2-0.4c0.8,0.2,1.4,0,1.4,0L54.3,29z"/>
	<path class="st9" d="M60,33.8c0,0,0.7,1.6-1.2,1.5c-1.8-0.1-2.3-0.9-3.4-0.8c-1.1,0.1-1.7,0.1-2.3,0.8C52.6,36,52,36.2,52,36.2
		l1.7,1.1c0,0-0.9-0.5-1.7,0.5c-0.8,1.1-1,1.4-0.9,2.1c0.1,0.7-0.8,1.4-1,2.1c-0.2,0.7-0.7,1.3,0,2c0.7,0.7,1,1.6,1,1.6l1.1,1.1
		c1.3-0.8,2.5-1.2,2.7-2.4c0.2-1.2,0.4-2.4,0.2-1.2c-0.2,1.2-0.4,3.1-0.2,3.6c0.2,0.4,1.4-0.1,1.8-1.1s0.4-1.4,0.5-2.5
		s0.1-1.1,0.1-1.1s0.5,0.6,1,1.6c0.4,1,0.9,2,0.9,2s1.1-0.7,0.9-2.2c-0.1-1.5,0.8-2.8,0.5-4c-0.2-1.2-0.6-2.1-0.8-3.1
		c-0.2-1.1,1.4-1.7,1.4-1.7L60,33.8z"/>
	<path class="st5" d="M74.5,44c0,0,1.1-0.7,2.3-1.8s2.8-3.4,3.6-4.3c0.8-1,1.8-2.6,2.2-2.7c0.3-0.1,1.3-0.4,1.3-0.4s0.7,0.9,0,2.1
		c-0.7,1.2-1.3,2.1-1.3,2.1s1.3-1,2.3-1.6c1-0.7,2-1.3,2.6-1.6c0.7-0.3,1.3-0.2,1.3-0.2s-0.9,1.4-0.4,1.2c0.4-0.2,0.2-1.1,2.7-1.1
		c2.5,0,2.8,0.1,3.1,0.1c0.3,0,0.9,1.3-1.3,2.8s-2.6,2-3.4,1.9s-1.8,0.1-1.5,0c0.3-0.1,2.6,0.5,2.6,0.9s1.2,2.1-1,1.8
		c-2.2-0.2-3.1,0.5-3.8,0c-0.7-0.5-3-1-3-1s4.5,1.2,3.6,1.9s-1.7,1-3.3,0.9s-2.9-0.8-3.4-1c-0.4-0.2-1.6-1.3-2-0.9
		c-0.3,0.4,0.3,0-0.9,0.8s-2.4,1.1-2.4,1.1V44z"/>
	<path class="st10" d="M55.6,55c0.9,0.1,3.3,1.1,3.7,1.1c0.4,0,2.8-0.3,3.7,0c0.9,0.3,3.1,1.7,3.8,2.1c0.7,0.3,2.9,2.1,2.9,2.1v1.4
		c0,0-1-0.3-1.7,0c-0.7,0.3-0.9-0.2-0.7,0.3c0.2,0.5-0.9,1-1.2,0.8c-0.3-0.2-2-0.8-2.3-1.3s-1.6-1.8-1.2-1.5
		c0.4,0.3,1.8,3.2,1.2,2.9c-0.6-0.3-1.3,0.2-2.4-1.1c-1.1-1.3-1.6-2.5-2.1-2.7c-0.6-0.2-1.8-1.3-1.8-1.3s0.9,3,1.9,3.9
		s5.4,2,6.3,2.2c0.9,0.2,2.3,1.6,2.3,1.6h-1.7c0,0,1.4,1.7,1.7,2.7c0.3,1,0,1.5,0,1.5s-1.1-0.4-2.2-0.9c-1.1-0.4-2.3-1.1-1.9-0.8
		c0,0-2.1,0-2.4-1s-1.1-1.8-1.1-1.8s4.1,4.5,5.1,5.3c1,0.9,1.4,3.4,1.4,3.4c-1.6,0.2-3.1,0-3-0.4c0.1-0.4,2.1,2,2.1,2.8s0,0.9,0,0.9
		h-1.5c0,0,1.1,0.8,0.9,2.2c-0.2,1.4-0.9,3.4-0.9,3.4s-0.6-0.5-1.8-2.1c-1.2-1.5-1-2.6-1.2-3c-0.2-0.4-0.3,0.5-1.1,1.2
		c-0.8,0.7-0.8,0.7-0.9-0.5s-0.1-3-0.1-3.5c0-0.4,0.3-2.1,0-1.6c-0.3,0.4-1.2,2.1-1.3,2.7c-0.1,0.7-0.5,0-1.1-1.2s-1.9-2.9-1.3-3.7
		c0.6-0.8,1.3-1.6,1.6-3c0.3-1.4,0.3-1.4,0.3-1.4s-2,5.6-2.6,6.2c-0.7,0.5-2-0.3-2.1-0.9c-0.1-0.5-0.5-1.7,0-2.4
		c0.5-0.7-0.3-1-0.3-1s-1.2,0,0-1.3s3.2-1.4,3.9-3.7c0.7-2.3-0.3-5-0.3-5s-0.1,4.3-1.2,5.1s-1.3-0.7-1.3-0.7s1.3,0.4,0.2,1.4
		c-1.1,1-1.7,1-2.3,1.3c-0.5,0.3-1.3,0.5-1.3,0.5s-0.3-1-0.5-1.5c-0.2-0.5-0.9-1.2-0.9-1.2s-0.7-0.3,0-1.3c0.7-1,1.7-1.8,1.4-1.8
		s-2.1,0.2-1.7-0.2s1.8-2.4,3.3-2.7c1.5-0.3,1.5-0.3,1.5-0.3L55.6,55z"/>
	<path class="st11" d="M73,44.2c0,0-0.1,1.3-1.6,1.5c-1.5,0.2-2-0.7-3.4,0c-1.4,0.7-3.1,1-3.6,1.8c-0.5,0.9-1.2,1.6-1.2,1.6
		s-0.1-0.3,1.4,0c1.5,0.3,2.6,0,2.6,0s-1.5,1-2.6,1.6s-2.2,1.4-2.3,2.2c-0.1,0.7-1.3,0.7-0.1,0.7s1-0.8,1.2,0
		c0.2,0.8-0.4,2.4-0.4,2.4s1.7-0.1,0.7,1.8c-1,2-1,2-1,2s1.5-1.3,2.8-1.5c1.3-0.2,0.7-2.3,0.7-2.3l0.7,2.1l1.2-3.6l1.7,3.6
		c0,0-1.2-1.2,0-2.4c1.2-1.2,1.2-2,1.2-2.8s0.1,0.4,1.1,1.2c1,0.8,1.3,1.8,1.5,0.9s1.6-2.6,1-4.6c-0.7-2-1.7-3.1-1.4-3.6
		c0.2-0.6,1.4-1.9,1.4-1.9L73,44.2z"/>
	<path class="st12" d="M81.8,54c0,0-0.6,1.3,1,1.3c1.6,0,3,0.1,3.8-0.3c0.9-0.4,3.3-1.6,3.7-1.6c0.4-0.1,0.6-0.1,1.9-0.4
		c1.3-0.4,1.3-0.5,2.1-0.9c0.9-0.4,1.1-0.8,1.6-0.8c0.5,0,1.2,0.2,1.5,0c0.3-0.2-0.3,1.1-0.3,1.1l1.6-0.3c0,0,1.1-0.1,3,0
		c1.9,0.1,2.3-0.8,0.7,1.3c-1.6,2-1.4,2.7-2.5,2.7s-2.3-0.4-2.3-0.4s1.2,0.9,1.5,0.9c0.2,0.1,0.7,0.7-0.4,0.9
		c-1.1,0.2-2.8,0.2-3.4,0s-2.3-0.8-2.3-0.8s2.4,1.3,2.9,1.9c0.5,0.6,1.2,1.4,0.3,1.3c-0.9-0.1-2.3,0.9-4,0c-1.6-0.9-1.2-1-2.8-1.8
		s-1.6-0.9-2.6-0.8c-1,0.1-1.6,0-1.6,0s3,1.7,3.6,2.5s0.5,1.3,0.4,1.6c-0.2,0.2,0.9,1.7,0.9,1.7l0.5,1.4c0,0-0.9,0.4-1.3,0.3
		c-0.5-0.1-1.5-0.1-2-0.8c-0.5-0.7-1.3-1.4-1.2-1.1c0.1,0.3,0.2,1.5-0.3,1.4c-0.5-0.1-2.1-1.5-2.3-2c-0.2-0.5-1.6-4.3-1.7-4.8
		c-0.1-0.5-0.9-2.1-0.9-2.1L79.9,54L81.8,54z"/>
	<path class="st13" d="M78.5,52c0,0-0.6,1.2-1.6,2c-1,0.9-2.8,1.9-3.3,2.6c-0.5,0.7-1.2,2-1.5,2.5c-0.2,0.5-0.3,1.3-0.3,1.3
		s1.2,0,1.9-0.6s0.8-1.1,0.8-1.1S73.1,61,73,61.9c-0.1,0.9,0,2.1,0,2.1l0.8-1.2c0,0,0.5,2.4,0.8,2.8c0.2,0.4-0.1,1.3,0.6,1.4
		c0.6,0.1,1-0.5,1.6-1.4c0.5-0.9,1-2.5,1-2.5s0.3-0.6,0.5-1.1c0.2-0.5,0.2-2.8,0.3-2.2c0.2,0.6,1.2,2,1.4,1.9
		c0.2-0.1,0.9-1.2,0.9-1.6c0-0.4-0.9-2.3-0.9-3c0-0.8,0-0.4,0-1.8c0-1.4-0.5-2.4-0.5-2.4L78.5,52z"/>
	<path class="st5" d="M79.9,52c0,0-0.1-0.7,1.4-1.8c1.5-1.2,4-2.8,4.5-3c0.5-0.2,2.3-0.4,2.3-0.4l-1,2.6c0,0,1.6-1.1,3-1.2
		c1.3-0.1,0.9,0.4,1.7,0.8c0.7,0.4,1.4,0.1,2.1,0.4S95,49.7,95,50s-0.2,2.5-1.6,3.3c-1.4,0.8-3,0.1-3.7,0c-0.7-0.1-3.1-0.3-3.1-0.3
		s0.2,0.2,0.9,1s0.9,1.7,0.9,1.9c0,0.2,0.5,1.2-0.9,0.6c-1.3-0.5-1.8-0.9-2.7-1.6c-0.9-0.7-1.3-0.9-2-1.5c-0.7-0.5-2.1-1-2.1-1
		L79.9,52z"/>
	<path class="st14" d="M43.6,58.5c-0.9,0-1.8,0.4-2.8-1.1s-1.3-2.6-2-3.7c-0.8-1.1-1.8-2.6-2.3-2.5s-1.5,0-1.5,0s-0.5,1.6,0,2.4
		c0.5,0.8,1.2,2.2,1.2,2.2s-1.6-2.2-2.7-2.8c-1.2-0.7-2.8-0.9-2.8-0.9s0,1.2,0.4,1.8c0.5,0.6,0.7,1.2,0.4,1c-0.3-0.2-0.5-2.2-2-1.9
		c-1.5,0.3-2.1,0.9-2.1,0.9s1.6,0.9,0.8,0.5c-0.8-0.5-2,0.1-2.5,0.2c-0.5,0.1-1.6,0.3-1.9,0.5c-0.2,0.2-0.2,1.6,1.2,2.2
		c1.3,0.6,1.9,0.9,1.9,0.9s-1.2,0.2-0.9,0.4s0.6,0.6,2.2,0.5c1.6-0.1,3-0.5,2.6-0.3c-0.4,0.2-2.1,0.7-2.5,1.1
		c-0.3,0.5,0.4,1.3,1.9,1.3s2.8-0.4,3.2-0.8c0.4-0.4,0.8-0.2,1.7-0.8C36,59,36,59,36,59s-3.4,2.4-3.6,2.8c-0.2,0.4-0.3,0.9-0.3,0.9
		s2.8,0.4,3.8,0c0.9-0.4,3-2.5,3.5-2.7s1.1-0.2,1.5-0.3c0.4-0.1,1.5,0,1.5,0L43.6,58.5z"/>
	<path class="st15" d="M43.6,59.5c0,0-0.2,2.8,0.6,3.3c0.8,0.4,1.6,1.7,2.3,2.1s2.7,2.2,3.3,3.3c0.6,1.2,0.5,2.4,0.4,2.6
		c-0.1,0.2-0.2,1.1-0.8,0.8c-0.5-0.3-1.4-0.9-1.4-0.9s1.9,1.8,1.8,3c-0.1,1.2,0,1.8,0,1.8s-2.2-0.8-2.9-1.3
		c-0.6-0.5,0.5,1.3,0.4,2.4c-0.1,1.1-0.7,1.7-0.7,1.7l-0.9-1c0,0,0.8,0.6-0.1,1.9c-0.9,1.2-1.2,1.8-1.2,1.8s-1.6-1.5-1.6-2.4
		c0-0.9,0-1.9,0-1.9s-0.6,0.5-0.8,0.8s-0.7-0.5-0.5-1.7c0.2-1.2,1.3-2.5,0.5-2.2s-1.8,0.9-2.1,1c-0.3,0.1-0.5-0.4-0.4-1.2
		c0.1-0.8,0.1-1.7,0.4-2.3s1.2-1.1,1.4-1.5c0.2-0.4,0.7-0.4-1,0.2s-1.8,0.5-1.8,0.5s-1.5-2.6,0.7-4c2.2-1.4,2.3-2.3,2.8-3
		s0.6-2.3,0.7-2.4s-0.4-1.4-0.4-1.4H43.6z"/>
	<path class="st16" d="M38,63.6c0,0-1.5,1.3-2.6,0.9S32,62.6,32,62.6s-1.4-0.2-3.3-0.5s-2.5,0-2.5,0l1.4,1.2c0,0-0.5-0.3-2.1,0
		s-1.2,0.7-2,1.4c-0.8,0.6-1.3,1.1-1.7,1.4c-0.4,0.3-0.8,0.5-0.8,0.5s2.2,0.9,3,0.9c0.9,0,1.2,0.1,1.2,0.4s1.9,0.2,2.3,0
		c0.4-0.2,0.9-0.8,0.9-0.8l-1.1,1.7c0,0,0.6,0.2,1.6,0c1-0.2,1.2-0.2,1.9-0.7c0.8-0.5,2.5-1.3,2.5-1.3s-1.6,2.6-3,3
		c-1.4,0.4-1.9,0.6-3.7,0.6c-1.8,0-2.4-0.2-3.3,0.4c-0.9,0.6-0.7,1-1.2,1.7c-0.5,0.7-0.8,1.3-0.8,1.3s1.4-0.2,2,0
		c0.6,0.2,2,0.2,2.5,0c0.5-0.2,1.8-0.9,1.8-0.9s-1.4,1.6-2.7,2.2c-1.3,0.5-1.3,0.5-2.7,1.6c-1.4,1.2-1.3,1.7-1.3,1.7h2.5
		c0,0-1.5,1-2.1,1.4c-0.5,0.4-0.9,0.7-1.3,1.2c-0.4,0.5-1,0.5-0.4,0.5c0.6,0.1,1.8-0.5,1.8-0.5s-0.9,1.6-1.2,2.6s-0.8,2.5-0.8,2.5
		L19.2,87c0,0,1.3-0.9,2.6-1.6s1.4-0.9,1.8-1.5c0.3-0.6,0.3-2,0.3-1.3c0,0.7,0.5,2.2,0.5,2.2s1.6-1.6,1.6-3.1
		c0.1-1.5,0.5-2.5,0.5-2.5s0.7,2.3,0.9,3c0.2,0.7,0.6,0.6,0.7,0.4s1.2-2.6,1.1-3.8S29.3,75,29.3,75s0.9,5.8,1,6
		c0.2,0.2,2.1-2.2,2.4-2.9c0.3-0.7-1.2-5.1-0.6-6.2c0.6-1.2,1.1-2.3,1.3-2.5c0.2-0.2,1.4-1.6,1.4-1.6s-0.6,2.9-1.1,3.6
		s-0.6,1.3-0.6,1.7c-0.1,0.4-0.2,1,0,1.3c0.2,0.3,1.2-0.4,1.2-0.4s0,1.9-0.2,2.6c-0.2,0.7-0.2,0.9,0.4,1.3c0.5,0.5,1.1,2.3,1.1,2.3
		s1.6-1,1.7-2c0.1-1-0.4-1.6,0.1-1c0.5,0.5,0.3,0.1,0.7-0.9c0.4-0.9,0.2-3.4,0.3-3c0.2,0.4,1.3,1.9,1.3,1.9s1.6-3.3,0.2-4.1
		c-1.4-0.8-3-4.6-3-4.6l0.4-0.9L38,63.6z"/>
</g>
</svg>
