<?xml version="1.0" encoding="utf-8"?>
<!-- Generator: Adobe Illustrator 23.1.1, SVG Export Plug-In . SVG Version: 6.00 Build 0)  -->
<svg version="1.1" id="Layer_1" xmlns="http://www.w3.org/2000/svg" xmlns:xlink="http://www.w3.org/1999/xlink" x="0px" y="0px"
	 viewBox="0 0 108 108" style="enable-background:new 0 0 108 108;" xml:space="preserve">
<style type="text/css">
	.st0{fill:#82B044;}
	.st1{fill:none;stroke:#235903;stroke-width:4.1274;stroke-linecap:round;stroke-miterlimit:10;}
	.st2{fill:#568541;}
	.st3{fill:#4E9618;}
	.st4{fill:#235903;}
	.st5{fill:#68A734;}
</style>
<g>
	<path class="st0" d="M48.5,89.5c0.1,0.4,2,4.9,2.9,5.7c0.9,0.8,1.7,1.3,3.6,1.5c1.9,0.2,5-0.1,6.2-0.6c1.2-0.5,1.2-0.5,1.9-1.9
		c0.7-1.4-0.3-8.2-0.9-8.5s-6.6-1.9-6.9-1.9c-0.4-0.1-2.7-0.3-3.4,0S48.5,90,48.5,90"/>
	<path class="st1" d="M51.8,90.6c-2.7-4.6-6.8-16.2-7-17.5"/>
	<path class="st1" d="M58.5,93.5C58.7,88,59.2,67,59.2,67"/>
	<path class="st1" d="M51.9,34.3c0,0.4-2,16.2-2.5,19.3c-0.5,3.2,0.4,17.1,1.7,21.3c1.3,4.2,3.9,13.8,3.9,15.2"/>
	<path class="st1" d="M55.9,38.7c0,0-2.3,26.1-1.2,34.7"/>
	<g>
		<path class="st0" d="M53.3,14.1c-0.5,3.3-0.4,6.7-0.3,10.1c0.1,3.4,0.3,6.8,0.6,10.2c0.2,3.4,0.5,6.8,0.7,10.2l0.2,5.2
			c0.1,1.7,0,3.5-0.3,5.2c-0.1,0.9-0.3,1.7-0.4,2.6c-0.1,0.9-0.2,1.7-0.2,2.6c-0.1,1.7-0.2,3.4-0.3,5.1c-0.2,3.4-0.3,6.8-0.4,10.2
			c-0.1,3.4-0.1,6.8-0.1,10.2l0,5.1l0,2.6l0,1.3l0,0.7l0,0.3c0,0.1,0,0.3,0,0.4c0,0.3-0.3,0.4-0.5,0.4c-0.2,0-0.4-0.2-0.4-0.5l0-0.2
			l0-1.1l0-1.3l-0.1-2.6l-0.2-5.1c-0.2-3.4-0.3-6.8-0.4-10.3c-0.1-3.4-0.2-6.9-0.3-10.3c0-1.7,0-3.4,0-5.2c0.1-1.7,0-3.4-0.3-5.1
			c-0.2-1.7-0.4-3.4-0.3-5.1l0-5.1c0-3.4,0-6.8,0-10.3c0.1-3.4,0.1-6.9,0.4-10.3c0.1-1.7,0.3-3.4,0.6-5.2c0.2-1.7,0.6-3.4,1.2-5.1
			c0.1-0.3,0.4-0.4,0.6-0.3C53.2,13.6,53.4,13.8,53.3,14.1L53.3,14.1z"/>
	</g>
	<g>
		<path class="st2" d="M61.8,15.9c-1.5,6.3-2.6,12.9-3.8,19.3c-1.2,6.5-2.3,13-3.4,19.5c-1,6.5-2.1,13-2.6,19.5
			c-0.4,6.5-0.5,13.1-0.4,19.6l0,0c0,0.3-0.2,0.5-0.5,0.5c-0.2,0-0.5-0.2-0.5-0.4c-0.7-3.3-1-6.6-1.2-9.9c-0.2-3.3-0.1-6.7,0-10
			c0.6-6.7,1.7-13.2,2.8-19.7c1.1-6.5,2.5-13,3.8-19.4c0.7-3.2,1.4-6.5,2.2-9.7c0.8-3.2,1.5-6.4,2.6-9.6c0.1-0.3,0.4-0.4,0.6-0.3
			C61.7,15.4,61.9,15.7,61.8,15.9L61.8,15.9z"/>
	</g>
	<g>
		<path class="st2" d="M55.2,15.5c-1.6,6.6-2.7,13.3-4,20C50,42.2,48.9,49,47.7,55.7c-0.5,3.4-1.1,6.7-1.5,10.1
			c-0.2,1.7-0.4,3.4-0.6,5c-0.2,1.7-0.3,3.3-0.3,4.9c0,1.6,0.3,3.2,0.7,4.8c0.4,1.6,0.9,3.1,1.6,4.6c1.3,3,3,5.9,5.1,8.5l0,0
			c0.2,0.2,0.1,0.5-0.1,0.7c-0.2,0.2-0.5,0.1-0.6,0c-2.6-2.3-4.8-5.2-6.4-8.3c-1.6-3.1-2.7-6.7-2.8-10.3c-0.1-1.8,0.1-3.6,0.3-5.3
			c0.2-1.7,0.4-3.4,0.7-5.1c0.5-3.4,1.1-6.8,1.6-10.1c1.1-6.7,2.5-13.4,3.9-20.1c0.7-3.3,1.4-6.7,2.2-10c0.8-3.3,1.6-6.6,2.7-9.9
			c0.1-0.3,0.4-0.4,0.6-0.3C55.1,15,55.2,15.2,55.2,15.5L55.2,15.5z"/>
	</g>
	<g>
		<path class="st3" d="M71.6,13.6c-0.6,3.4-0.8,6.8-1,10.3c-0.1,3.5-0.2,6.9-0.2,10.4c-0.1,6.9-0.1,13.9-0.3,20.9
			c-0.1,3.5-0.4,7.1-1,10.5c-0.6,3.5-1.3,6.9-2.2,10.3c-1.7,6.8-3.8,13.5-6.4,20l0,0c-0.1,0.3-0.4,0.4-0.6,0.3
			c-0.2-0.1-0.4-0.4-0.3-0.6c1.7-6.7,3.4-13.5,4.8-20.3c0.7-3.4,1.3-6.8,1.9-10.2c0.5-3.4,0.8-6.7,0.9-10.2
			c0.3-6.9,0.4-13.9,0.8-20.9c0.2-3.5,0.4-7,0.8-10.5c0.4-3.5,0.9-7,1.9-10.4c0.1-0.3,0.4-0.4,0.6-0.3
			C71.5,13.1,71.7,13.4,71.6,13.6L71.6,13.6z"/>
	</g>
	<g>
		<path class="st3" d="M59.8,14.9c-0.6,3.3-0.8,6.7-0.9,10.1c-0.1,3.4-0.2,6.8-0.2,10.2c-0.1,6.8-0.1,13.7-0.3,20.6
			c-0.1,3.5-0.3,6.8-0.3,10.2c0,3.4,0.1,6.8,0.2,10.2c0.1,3.4,0.3,6.8,0.5,10.2l0.2,5.1l0.1,2.6l0,1.3l0,0.7l0,0.3
			c0,0.2,0,0.3,0,0.5c0,0.2-0.2,0.4-0.5,0.4c-0.2,0-0.3-0.1-0.3-0.3l-0.1-0.4c0-0.1,0-0.1,0-0.2l0-0.3L58,95.5l-0.2-1.3l-0.4-2.5
			c-0.2-1.7-0.5-3.4-0.7-5.1c-0.4-3.4-0.8-6.8-1.1-10.3c-0.3-3.4-0.5-6.9-0.5-10.3c-0.1-3.5,0.1-7,0.3-10.3
			c0.3-6.8,0.4-13.7,0.8-20.5c0.2-3.4,0.4-6.9,0.8-10.3c0.4-3.4,0.9-6.9,1.8-10.2c0.1-0.3,0.4-0.4,0.6-0.3
			C59.7,14.4,59.8,14.7,59.8,14.9L59.8,14.9z"/>
	</g>
	<g>
		<path class="st0" d="M67,13.7c-0.8,3.3-1.2,6.7-1.4,10c-0.2,3.4-0.4,6.8-0.4,10.2c-0.1,6.8,0,13.6,0.1,20.5
			c0.1,3.4,0.2,6.9,0.1,10.3c0,3.4-0.2,6.9-0.4,10.3c-0.2,3.4-0.5,6.9-0.8,10.3c-0.2,1.7-0.4,3.4-0.6,5.1L63.2,93L63,94.2
			c-0.1,0.5-0.1,0.8-0.2,1.4c-0.1,0.3-0.3,0.4-0.6,0.4c-0.2-0.1-0.4-0.3-0.4-0.5l0-0.2l0.2-5l0.1-5.1l0.3-10.3
			c0.1-3.4,0.1-6.8,0.2-10.2c0-3.4-0.1-6.8-0.1-10.2c-0.1-6.9-0.1-13.7,0.3-20.6c0.2-3.4,0.5-6.9,1-10.3c0.5-3.4,1.1-6.9,2.3-10.1
			c0.1-0.3,0.4-0.4,0.6-0.3C67,13.1,67.1,13.4,67,13.7L67,13.7z"/>
	</g>
	<g>
		<path class="st4" d="M74.9,14.9c-0.3,3.4-0.4,6.8-0.4,10.2l0,10.2c0,3.4,0,6.8-0.1,10.3c-0.1,3.4-0.3,6.9-0.6,10.3
			c-0.7,6.9-2.4,13.7-4.3,20.3c-1.9,6.6-4.1,13.1-6.7,19.5l0,0c-0.1,0.3-0.4,0.4-0.7,0.3c-0.2-0.1-0.4-0.4-0.3-0.6
			c1.7-6.6,3.5-13.2,5.1-19.8c1.6-6.6,3.1-13.2,3.9-19.9c0.7-6.7,0.9-13.5,1.2-20.3c0.1-3.4,0.3-6.8,0.5-10.3
			c0.3-3.4,0.6-6.9,1.3-10.3c0.1-0.3,0.3-0.4,0.6-0.4C74.7,14.4,74.9,14.6,74.9,14.9L74.9,14.9z"/>
	</g>
	<g>
		<path class="st4" d="M48.9,16.7c-1,3.2-1.7,6.4-2.2,9.7c-0.5,3.3-0.9,6.6-1.1,9.9c-0.2,3.3-0.3,6.6-0.2,9.9
			c0.1,3.3,0.4,6.6,0.9,9.8c0.1,0.8,0.3,1.6,0.4,2.4l0.5,2.4l1.2,4.9c0.8,3.3,1.5,6.5,2.2,9.8c0.7,3.3,1.3,6.6,1.9,9.9
			c0.3,1.7,0.5,3.3,0.8,5l0.4,2.5c0.1,0.4,0.1,0.8,0.1,1.3l0.1,0.6l0,0.3c0,0.1,0,0.2,0,0.5c0,0.2-0.3,0.4-0.5,0.4
			c-0.2,0-0.3-0.2-0.4-0.3l-0.1-0.3l-1.1-4.6l-1.2-4.9L48,76.1l-2.4-9.7l-1.2-4.9L43.8,59c-0.2-0.8-0.3-1.7-0.4-2.5
			c-1-6.8-0.9-13.6-0.2-20.4c0.4-3.4,0.9-6.7,1.7-10c0.8-3.3,1.7-6.6,3.1-9.7c0.1-0.3,0.4-0.4,0.7-0.3C48.8,16.2,49,16.5,48.9,16.7
			L48.9,16.7z"/>
	</g>
	<g>
		<path class="st0" d="M39.5,15.5c1,3.3,1.4,6.7,1.8,10.1c0.4,3.4,0.6,6.8,0.8,10.2c0.4,6.8,0.5,13.6,0.8,20.4
			c0.1,3.4,0.3,6.7,0.9,9.9c0.6,3.3,1.3,6.5,2.2,9.8c0.9,3.2,1.9,6.5,2.9,9.7c0.5,1.6,1.1,3.2,1.6,4.8l1.7,4.8
			c0.1,0.3,0,0.5-0.3,0.6c-0.2,0.1-0.5,0-0.6-0.2l0-0.1l-1.1-2.2L49.1,91c-0.7-1.6-1.4-3.1-2.1-4.7c-1.3-3.2-2.5-6.4-3.5-9.7
			c-1-3.3-2-6.6-2.5-10c-0.3-1.7-0.6-3.4-0.7-5.2c-0.1-0.9-0.1-1.7-0.2-2.6L40,56.3c-0.2-6.8-0.2-13.6-0.3-20.4
			c0-3.4-0.1-6.8-0.2-10.1c-0.1-3.4-0.4-6.7-0.9-10l0,0c0-0.3,0.1-0.5,0.4-0.6C39.2,15.1,39.4,15.3,39.5,15.5z"/>
	</g>
	<g>
		<path class="st3" d="M45.3,14.4c1.2,3.2,1.8,6.6,2.3,10c0.5,3.4,0.8,6.8,1,10.2c0.4,6.8,0.5,13.6,0.4,20.3l-0.1,5.1
			c0,1.6,0,3.3,0.1,5c0.2,3.3,0.5,6.6,1,10c0.4,3.3,1,6.6,1.5,9.9c0.5,3.3,1.2,6.6,1.8,9.9l0,0c0.1,0.3-0.1,0.5-0.4,0.6
			c-0.3,0-0.5-0.1-0.6-0.3c-2.2-6.5-3.8-13-5-19.8c-0.6-3.4-1-6.7-1.3-10.2c-0.1-1.7-0.2-3.4-0.2-5.2c0-1.7,0.1-3.4,0.1-5.1
			l0.2-10.1c0-3.4,0-6.7,0-10.1c-0.1-3.4-0.2-6.7-0.4-10c-0.2-3.3-0.6-6.7-1.4-9.9l0,0c-0.1-0.3,0.1-0.5,0.4-0.6
			C44.9,14,45.2,14.2,45.3,14.4z"/>
	</g>
	<g>
		<path class="st0" d="M55.2,14.7c0.8,3.4,1,6.9,1.3,10.3c0.2,3.4,0.4,6.9,0.5,10.3c0.3,6.8,0.5,13.7,1.2,20.4
			c0.2,1.7,0.5,3.3,0.6,5.1c0.1,0.9,0.2,1.8,0.2,2.6c0.1,0.9,0.1,1.8,0.1,2.6c0.1,3.5-0.1,7-0.3,10.4c-0.3,3.4-0.7,6.9-1.3,10.3
			c-0.3,1.7-0.6,3.4-0.9,5.1l-0.5,2.5l-0.3,1.3l-0.1,0.6l-0.1,0.3c0,0,0,0.1-0.1,0.1l-0.2,0.4c-0.1,0.2-0.3,0.3-0.5,0.2
			c-0.1-0.1-0.2-0.2-0.2-0.3c0-0.2,0-0.3,0-0.5l0-0.4l0-0.7l0.1-1.3l0.2-2.6l0.4-5.1c0.3-3.4,0.5-6.8,0.7-10.2
			c0.2-3.4,0.2-6.8,0.1-10.1c0-0.8-0.1-1.7-0.2-2.5c0-0.8-0.1-1.7-0.3-2.5c-0.2-1.6-0.5-3.4-0.6-5.1c-0.4-3.5-0.6-6.9-0.7-10.4
			c-0.1-3.4-0.1-6.9-0.1-10.3l0-10.3c0-3.4-0.1-6.8-0.4-10.2l0,0c0-0.3,0.2-0.5,0.4-0.6C54.9,14.3,55.1,14.5,55.2,14.7z"/>
	</g>
	<g>
		<path class="st4" d="M62.8,15.8c1.4,3.1,2.3,6.4,3.1,9.7c0.8,3.3,1.3,6.7,1.7,10.1c0.7,6.8,0.8,13.7-0.3,20.5
			c-0.2,1.7-0.6,3.4-1,5.1c-0.4,1.6-0.8,3.2-1.1,4.9c-0.7,3.3-1.3,6.6-1.8,9.9c-0.6,3.3-1,6.6-1.5,10l-0.7,5l-0.3,2.5l-0.3,2.3
			l0,0.2c0,0.3-0.3,0.4-0.5,0.4c-0.2,0-0.4-0.2-0.4-0.4c-0.1-0.3,0-0.3-0.1-0.5l0-0.3l0-0.6c0-0.4,0-0.9,0-1.3l0.1-2.5
			c0.1-1.7,0.1-3.4,0.2-5.1c0.2-3.4,0.5-6.8,0.9-10.1c0.4-3.4,0.9-6.7,1.6-10.1c0.3-1.7,0.7-3.3,1.1-5c0.4-1.6,0.8-3.2,1-4.8
			c0.5-3.2,0.8-6.5,0.9-9.9c0.1-3.3,0-6.6-0.2-10c-0.2-3.3-0.6-6.6-1.1-9.9c-0.5-3.3-1.2-6.6-2.2-9.7l0,0c-0.1-0.3,0.1-0.5,0.3-0.6
			C62.4,15.4,62.7,15.6,62.8,15.8z"/>
	</g>
	<g>
		<path class="st0" d="M60.1,14.4c1,3.4,1.2,6.8,1.5,10.3c0.2,3.4,0.2,6.9,0.2,10.3c0,6.9-0.3,13.7-0.2,20.4
			c0.1,3.3,0.3,6.8,0.3,10.2c0.1,3.4,0,6.9-0.1,10.3c-0.1,3.4-0.2,6.8-0.4,10.3l-0.3,5.1l-0.4,5l0,0.2c0,0.3-0.2,0.5-0.5,0.4
			c-0.2,0-0.4-0.2-0.4-0.4c0-0.1,0-0.3-0.1-0.4l0-0.3l0-0.7l-0.1-1.3l-0.1-2.6l-0.1-5.1L59.3,76c0-3.4-0.1-6.8-0.2-10.2
			c-0.1-3.4-0.3-6.8-0.4-10.3c-0.1-3.5,0-6.9,0.2-10.3c0.1-3.4,0.3-6.8,0.5-10.2c0.2-3.4,0.3-6.8,0.4-10.2c0-3.4,0-6.8-0.6-10.1l0,0
			c0-0.3,0.1-0.5,0.4-0.6C59.8,14,60,14.2,60.1,14.4z"/>
	</g>
	<g>
		<path class="st5" d="M73.8,18c-1.3,2.9-2.1,6.1-2.8,9.3c-0.7,3.2-1.3,6.4-1.9,9.6c-0.5,3.2-1,6.5-1.5,9.7
			c-0.4,3.2-0.8,6.5-0.9,9.7c-0.1,1.6-0.1,3.2-0.1,4.8l0,4.9c0,3.3,0,6.6-0.1,9.9c-0.1,3.3-0.2,6.6-0.8,10c-0.2,0.9-0.4,1.7-0.6,2.5
			l-0.7,2.4c-0.5,1.6-1,3.2-1.6,4.7c-0.1,0.3-0.4,0.4-0.6,0.3c-0.2-0.1-0.4-0.3-0.3-0.6l0,0l0.9-4.8l0.4-2.4
			c0.1-0.8,0.3-1.6,0.3-2.4c0.2-3.2,0.2-6.5,0.1-9.7l-0.2-9.9l-0.1-4.9c0-1.6,0-3.4,0.1-5.1c0.4-6.7,1.6-13.3,3-19.7
			c0.7-3.2,1.6-6.4,2.6-9.6c0.5-1.6,1.1-3.2,1.7-4.7c0.6-1.6,1.3-3.1,2.2-4.6c0.1-0.2,0.5-0.3,0.7-0.2C73.8,17.5,73.9,17.7,73.8,18
			L73.8,18z"/>
	</g>
	<g>
		<path class="st3" d="M80.5,39.7c0.4,2.4,0.5,4.9,0,7.3c-0.5,2.4-1.3,4.7-2.4,6.9C77,56,75.6,58.1,74.2,60
			c-1.4,1.9-2.7,3.9-3.8,5.9c-2.3,4-3.9,8.3-4.8,12.8c-1,4.5-1.3,9.2-1.6,13.9c0,0.3-0.3,0.5-0.5,0.5c-0.2,0-0.4-0.2-0.5-0.4
			c-0.7-4.7-0.8-9.6,0.1-14.4c0.8-4.8,2.6-9.5,5.3-13.6c1.3-2.1,2.8-4,4.3-5.8c1.5-1.9,2.9-3.7,4-5.7c1.1-2,2.1-4.1,2.6-6.4
			c0.6-2.2,0.7-4.5,0.3-6.9c0-0.3,0.2-0.5,0.4-0.6C80.2,39.2,80.4,39.4,80.5,39.7L80.5,39.7z"/>
	</g>
	<g>
		<path class="st3" d="M35.1,32.4c1.7,5.1,3.3,10.3,4.9,15.4c1.6,5.1,3.3,10.3,5.2,15.2l1.5,3.7c0.5,1.3,1,2.5,1.5,3.8
			c0.9,2.5,1.8,5.1,2.6,7.7l2.5,7.7c0.8,2.6,1.6,5.1,2.1,7.9c0.1,0.3-0.1,0.5-0.4,0.6c-0.2,0-0.4-0.1-0.5-0.3l0-0.1
			c-1.2-2.3-2.4-4.8-3.5-7.3l-3.3-7.4c-1.1-2.5-2.2-4.9-3.2-7.4c-0.5-1.2-1-2.5-1.5-3.7l-0.7-1.9l-0.7-1.9
			c-1.8-5.2-3.2-10.5-4.4-15.8c-1.2-5.3-2.2-10.6-2.9-16c0-0.3,0.2-0.5,0.4-0.6C34.8,32,35.1,32.1,35.1,32.4z"/>
	</g>
	<g>
		<path class="st3" d="M61.6,90.3c-1.3-2.6-2.1-5.4-2.6-8.2c-0.5-2.8-0.9-5.7-1-8.6c-0.1-2.9,0-5.8,0.3-8.7c0.2-1.4,0.4-2.9,0.8-4.3
			c0.2-0.7,0.4-1.4,0.6-2.1l0.6-2c0.7-2.7,1.2-5.5,1.8-8.2c0.5-2.8,1-5.6,1.5-8.4l1.4-8.4c0.5-2.8,0.9-5.6,1.5-8.5
			c0.1-0.3,0.3-0.4,0.6-0.4c0.3,0.1,0.4,0.3,0.4,0.6l0,0.1c-0.2,1.3-0.4,2.8-0.6,4.2l-0.5,4.2L65.4,40c-0.4,2.8-0.8,5.6-1.3,8.4
			c-0.5,2.8-1,5.6-1.7,8.4L61.9,59c-0.2,0.7-0.4,1.3-0.5,2c-0.3,1.3-0.5,2.7-0.7,4.1c-0.3,2.7-0.3,5.5-0.2,8.3
			c0.2,2.8,0.5,5.6,0.9,8.3c0.5,2.8,1,5.5,1.2,8.4c0,0.3-0.2,0.5-0.5,0.5C61.9,90.6,61.7,90.5,61.6,90.3z"/>
	</g>
	<g>
		<path class="st3" d="M35,22.2c4.8,4.9,10,9.6,15,14.3l1.9,1.8c0.3,0.3,0.6,0.6,1,1c0.3,0.3,0.6,0.7,0.9,1.1c1.1,1.4,2.1,2.9,3,4.5
			c1.8,3.1,3.2,6.4,4.3,9.8c2.2,6.8,2.8,14,2.3,21.1c-0.3,3.5-0.8,7.1-1.8,10.5c-0.9,3.4-2.3,6.7-3.3,9.9l0,0
			c-0.1,0.3-0.4,0.4-0.6,0.3c-0.2-0.1-0.4-0.3-0.4-0.5c0.2-1.8,0.7-3.5,1-5.2c0.4-1.7,0.7-3.4,1-5c0.6-3.4,0.9-6.7,1-10.1
			c0.1-6.8-0.6-13.6-2.4-20C57.2,52.2,56,49,54.5,46c-0.8-1.5-1.6-2.9-2.6-4.3c-0.2-0.3-0.5-0.7-0.7-1c-0.2-0.3-0.5-0.6-0.8-0.9
			L48.5,38l-7.2-7.5c-2.4-2.5-4.8-5-7-7.7c-0.2-0.2-0.1-0.5,0.1-0.7C34.5,22,34.8,22,35,22.2L35,22.2z"/>
	</g>
	<g>
		<path class="st2" d="M42.2,15.1c0.3,1.7,0.6,3.4,1,5l1,5.1l2,10.1c0.7,3.4,1.4,6.8,2.1,10.1c0.4,1.7,0.7,3.4,1.2,4.9l1.5,4.9
			c2,6.6,3.9,13.3,5.1,20.3c0.3,1.8,0.5,3.5,0.5,5.4c0,1.7-0.1,3.5-0.2,5.2c-0.2,3.5-0.6,6.9-1.2,10.3l0,0.1c0,0.3-0.3,0.5-0.6,0.4
			c-0.2,0-0.4-0.2-0.4-0.5c-0.2-3.5-0.3-6.9-0.4-10.4L53.7,81c-0.1-1.6-0.3-3.2-0.6-4.9c-0.6-3.3-1.4-6.6-2.3-9.9
			c-0.9-3.3-1.8-6.6-2.8-9.9c-0.5-1.7-0.9-3.3-1.4-5c-0.5-1.7-0.8-3.5-1.1-5.2c-0.6-3.4-1.2-6.8-1.8-10.2
			c-1.1-6.8-2.2-13.6-2.5-20.6c0-0.3,0.2-0.5,0.5-0.5C41.9,14.6,42.1,14.8,42.2,15.1L42.2,15.1z"/>
	</g>
</g>
</svg>
