<?xml version="1.0" encoding="utf-8"?>
<!-- Generator: Adobe Illustrator 23.1.1, SVG Export Plug-In . SVG Version: 6.00 Build 0)  -->
<svg version="1.1" id="Layer_1" xmlns="http://www.w3.org/2000/svg" xmlns:xlink="http://www.w3.org/1999/xlink" x="0px" y="0px"
	 viewBox="0 0 108 108" style="enable-background:new 0 0 108 108;" xml:space="preserve">
<style type="text/css">
	.st0{fill:#BDC768;}
	.st1{fill:#6A9940;}
	.st2{fill:#507938;}
	.st3{fill:#739E3F;}
	.st4{fill:#63903E;}
</style>
<g>
	<g>
		<path class="st0" d="M51.86,51.88c-0.69,0.26-1.25,0.16-1.78-0.04l-1.57-0.6c-1.05-0.39-2.08-0.84-3.11-1.27
			c-2.05-0.9-4.1-1.82-6.06-3.01l0.4-0.87c2.12,0.66,4.24,1.35,6.35,2.07c1.05,0.38,2.11,0.73,3.15,1.12l1.57,0.57
			c0.52,0.19,1.01,0.48,1.37,1.12L51.86,51.88z"/>
	</g>
	<g>
		<g>
			<path class="st0" d="M69.26,44.93c-0.12,2.84-0.3,5.84-1.06,8.71c-0.75,2.87-1.95,5.64-3.56,8.15c-1.58,2.54-3.64,4.74-5.88,6.68
				c-0.57,0.47-1.11,0.99-1.72,1.42l-1.81,1.29c-0.59,0.45-1.24,0.81-1.87,1.19l-0.95,0.57c-0.32,0.18-0.6,0.44-1.08,0.33
				l-0.81-1.51c0.14-0.47,0.49-0.58,0.79-0.76l0.91-0.53c0.61-0.35,1.23-0.68,1.8-1.1l1.73-1.19c0.58-0.39,1.09-0.87,1.64-1.31
				c1.12-0.85,2.06-1.88,3.05-2.86l1.36-1.59c0.44-0.54,0.82-1.12,1.24-1.68c1.57-2.3,2.78-4.84,3.57-7.53
				c0.84-2.69,1.14-5.48,1.39-8.38L69.26,44.93z"/>
		</g>
		<g>
			<path class="st0" d="M40.78,63.09c2.55-3.7,5.16-7.51,8.77-10.49c1.8-1.47,3.9-2.71,6.26-3.27c2.35-0.6,4.87-0.35,7.12,0.4
				l0.86,0.27l0.81,0.37c0.53,0.25,1.08,0.49,1.6,0.75c1,0.56,2,1.1,2.97,1.71c1.96,1.18,3.85,2.5,5.67,3.82
				c1.83,1.32,3.56,2.56,5.55,3.02c1.97,0.52,4.17,0.47,6.36,0.32l0.15,2.31c-2.3,0.1-4.68,0.14-7.07-0.52
				c-1.19-0.31-2.34-0.84-3.35-1.48c-1.03-0.62-1.95-1.32-2.85-1.99c-1.8-1.36-3.58-2.66-5.47-3.84c-0.93-0.61-1.9-1.15-2.86-1.72
				c-0.48-0.26-0.96-0.47-1.44-0.71l-0.72-0.35l-0.75-0.25c-1.99-0.71-4.14-0.96-6.19-0.48c-2.05,0.44-3.97,1.5-5.67,2.84
				c-3.42,2.72-6.07,6.38-8.68,10.03L40.78,63.09z"/>
		</g>
	</g>
	<path class="st1" d="M68.24,49.34c0.53-0.87,0.65-1.49,1.69-1.6c1.03-0.11,1.53-0.12,1.53-0.12l-0.52-0.84c0,0,0.78-0.03,1.55-0.49
		c0.77-0.46,1.38-1.17,1.38-1.17s-0.22-0.24-0.47-0.37s-0.54-0.1-0.54-0.1s1.06-0.49,1.45-1.1c0.39-0.61,0.62-1.27,0.79-1.78
		c0.17-0.51,0.13-1.26,0.08-1.4c-0.05-0.14-0.06,0.05-0.46-0.1c-0.4-0.15-0.41-0.3-0.84-0.16c-0.44,0.14-0.81,0.01-1.18,0.37
		s-1.07,0.67-1.07,0.67s-0.45-0.28,0.19-0.88c0.64-0.6,1.29-0.8,1.94-1.1c0.65-0.3,1.07-0.43,1.24-1.25
		c0.18-0.82,0.09-1.25,0.13-1.63c0.04-0.38-0.06-0.29-0.28-0.28c-0.22,0.01-0.75,0.18-0.9,0.29s-0.53,0.29-0.74,0.57
		c-0.21,0.28-0.82,0.56-0.82,0.56s0.5-0.8,0.93-1.46c0.43-0.66,0.44-1.21,0.42-1.29c-0.02-0.09-0.42-0.14-0.95-0.09
		c-0.53,0.05-0.41-0.57-1.06,0c-0.64,0.57-1.03,0.26-1.38,0.68c-0.36,0.42,0.23-0.56,0.52-1.63s0.25-1.67,0.14-1.94
		c-0.11-0.27-0.28-0.43-0.29-0.34c-0.01,0.09-1.1,0.41-1.32,0.75c-0.22,0.35-0.48,0.67-0.48,0.67s0.39-0.86,0.7-1.63
		c0.31-0.77,0.44-0.72,0.17-1.31s-0.59-0.48-0.77-0.98c-0.18-0.49-0.98-0.22-1.52,0.26s-0.96,1.07-0.91,1.91
		c0.05,0.84,0.07,0.8,0.18,1.25c0.12,0.45,0.12,0.85,0.13,0.97s-0.68-0.79-0.8-1.27c-0.12-0.48-0.16-0.65-0.06-1.63
		c0.09-0.98,0.07-1.55-0.05-2.03c-0.12-0.48-0.18-0.98-0.51-1.4c-0.33-0.41-0.57-0.86-0.84-0.13c-0.27,0.73-0.42,1.2-0.4,1.53
		s-0.17,0.73-0.24,0.41c-0.06-0.32-0.09-0.55-0.43-0.66c-0.34-0.11-0.5,0.1-0.62-0.17c-0.13-0.26-0.45,0.08-0.45,0.08
		s0.1,0.12-0.01,0.65c-0.11,0.52-0.46,1.34-0.84,1.55c-0.37,0.21-0.61,0.03-0.29,0.88c0.32,0.85,0.45,0.99,0.45,0.99
		s1.14,0.4,1.78,0.78c0.64,0.38,1.12,0.78,1.26,1.22c0.14,0.44,0.22,1.08,0.36,1.03c0.14-0.05-0.2,0.69-0.78,0.02
		c-0.58-0.67-0.73-0.78-1.24-1.1c-0.51-0.33-1.08-0.12-1.66,0.04s-0.89,0.19-1.01,0.23c-0.12,0.04,0.44,0.84,0.44,0.84
		s-1.3,0.02-1.56,0.28s-0.66,0.88-0.79,1.44c-0.13,0.56-0.23,0.78-0.14,1.24c0.09,0.46,0.19,0.7,0.74,1.11
		c0.55,0.41,0.91,0.48,1.04,0.89c0.13,0.42,0.2,0.61,0.61,0.6c0.42-0.01,1.5,0.01,2.03-0.18c0.53-0.2,1.45-0.86,1.79-1.09
		s1.25-0.49,1.63-0.3c0.38,0.18,1.44,1.4,1.67,2.01c0.22,0.6,0.09,1.53-0.88,0.4c-0.97-1.13-1.24-0.65-1.57-0.82
		c-0.33-0.17-1.85,0.22-2.42,0.55c-0.57,0.33-1.63,0.58-1.94,1.07c-0.32,0.5-0.79,0.59-0.91,1.2s0.03,1.82,0.19,2.47
		c0.16,0.65,0.58,0.79,0.63,1.75c0.05,0.96-0.18,1.64,0.25,1.57s0.64-0.48,1.15-1.13c0.51-0.65,0.42-1.05,1.2-1.33
		c0.78-0.28,1.47-0.13,1.13-0.02s-0.86,0.7-1.24,1.28c-0.37,0.58-0.41,0.16-0.73,1.21c-0.33,1.05-0.47,1.07-0.21,1.38
		s0.32,0.48,0.48,0.64c0.16,0.16,0.31-0.31,0.71-0.59c0.41-0.28,0.72-0.56,0.86-0.95s0.33-0.44,0.33-0.44s-0.17,0.27,0.22,0.36
		c0.39,0.09,0.35,0.26,1.08-0.01c0.73-0.26,1.01-0.47,1.22-0.63c0.21-0.16,0.36-0.17,0.43-0.2S68.24,49.34,68.24,49.34z"/>
	<path class="st1" d="M41.93,44.85c-0.77,0.96-1.37,1.25-1.28,2.83s0.17,2.32,0.17,2.32l-0.94-0.63c0,0,0.11,1.18-0.2,2.42
		c-0.31,1.24-0.91,2.3-0.91,2.3s-0.28-0.29-0.46-0.64c-0.18-0.35-0.21-0.79-0.21-0.79s-0.29,1.68-0.83,2.38
		c-0.54,0.7-1.15,1.17-1.63,1.51c-0.48,0.34-1.24,0.43-1.39,0.37s0.04-0.1-0.19-0.68S33.7,55.69,33.76,55
		c0.06-0.69-0.14-1.22,0.15-1.84s0.47-1.73,0.47-1.73s-0.37-0.63-0.85,0.44c-0.48,1.07-0.56,2.08-0.74,3.12
		c-0.17,1.04-0.23,1.69-1.01,2.1s-1.23,0.36-1.61,0.49c-0.37,0.14-0.3-0.04-0.33-0.37c-0.03-0.33,0.03-1.16,0.11-1.41
		c0.08-0.25,0.19-0.85,0.43-1.22s0.41-1.34,0.41-1.34s-0.71,0.9-1.28,1.67c-0.57,0.77-1.13,0.88-1.21,0.87
		c-0.09-0.01-0.22-0.61-0.28-1.42c-0.05-0.81-0.65-0.52-0.2-1.6c0.45-1.08,0.07-1.6,0.42-2.21c0.35-0.61-0.52,0.45-1.53,1.09
		c-1.02,0.64-1.62,0.67-1.91,0.56c-0.29-0.11-0.48-0.35-0.39-0.38c0.09-0.02,0.2-1.73,0.5-2.13s0.58-0.84,0.58-0.84
		S24.71,49.59,24,50.2c-0.71,0.6-0.64,0.8-1.27,0.5c-0.64-0.3-0.6-0.81-1.12-0.98c-0.53-0.18-0.4-1.44-0.02-2.34
		c0.38-0.9,0.89-1.64,1.74-1.72c0.85-0.08,0.82-0.04,1.29,0.05c0.47,0.1,0.87,0.04,0.99,0.02c0.12-0.02-0.92-0.88-1.43-0.98
		c-0.5-0.1-0.68-0.12-1.64,0.2c-0.96,0.32-1.54,0.39-2.04,0.29c-0.5-0.1-1.02-0.09-1.49-0.52s-0.97-0.71-0.29-1.24
		s1.12-0.85,1.46-0.88c0.33-0.03,0.69-0.39,0.37-0.43c-0.33-0.04-0.57-0.04-0.74-0.53c-0.17-0.5,0-0.77-0.29-0.91s0-0.69,0-0.69
		s0.14,0.13,0.64-0.14c0.5-0.27,1.25-0.94,1.39-1.54c0.14-0.6-0.08-0.92,0.83-0.59c0.91,0.33,1.08,0.5,1.08,0.5s0.62,1.65,1.12,2.55
		c0.5,0.9,0.99,1.55,1.46,1.68c0.47,0.13,1.12,0.14,1.1,0.36s0.66-0.43-0.12-1.18c-0.78-0.76-0.92-0.96-1.34-1.67
		c-0.42-0.71-0.32-1.61-0.28-2.52c0.04-0.91,0.02-1.39,0.04-1.57s0.92,0.52,0.92,0.52s-0.23-1.97-0.01-2.41
		c0.22-0.45,0.76-1.15,1.29-1.44s0.73-0.49,1.21-0.43c0.48,0.06,0.74,0.17,1.25,0.92c0.51,0.76,0.65,1.29,1.09,1.42
		c0.44,0.13,0.65,0.19,0.72,0.82c0.07,0.63,0.3,2.27,0.2,3.09c-0.1,0.83-0.58,2.34-0.75,2.9c-0.17,0.56-0.25,1.98,0.01,2.52
		c0.26,0.54,1.68,1.93,2.32,2.16s1.55-0.13,0.23-1.4c-1.31-1.26-0.88-1.75-1.11-2.22c-0.23-0.47-0.13-2.83,0.09-3.75
		s0.27-2.56,0.71-3.13c0.44-0.57,0.44-1.3,1.03-1.59c0.6-0.29,1.83-0.28,2.51-0.16c0.68,0.12,0.9,0.73,1.87,0.64
		c0.97-0.1,1.61-0.56,1.62,0.09c0.01,0.66-0.36,1.05-0.91,1.93c-0.55,0.88-0.97,0.83-1.1,2.05s0.15,2.25,0.19,1.7
		c0.04-0.54,0.54-1.43,1.04-2.1c0.51-0.67,0.08-0.65,1.07-1.33c0.99-0.68,0.98-0.9,1.34-0.56c0.36,0.34,0.54,0.4,0.73,0.6
		c0.19,0.21-0.25,0.52-0.46,1.18c-0.2,0.67-0.43,1.19-0.78,1.47C41.39,39.71,41.36,40,41.36,40s0.24-0.3,0.4,0.27
		c0.16,0.57,0.32,0.48,0.2,1.63c-0.12,1.15-0.28,1.61-0.4,1.96c-0.12,0.35-0.11,0.57-0.12,0.68C41.43,44.65,41.93,44.85,41.93,44.85
		z"/>
	<path class="st1" d="M61.61,64.36c0.55-0.42,0.81-0.23,1.25-0.15c0.43,0.08,0.63,0.56,0.97-0.06c0.34-0.63,0.51-0.38,0.31-1.23
		c-0.2-0.85-0.14-1.26-0.59-1.41s0.18,0.77-0.61-0.2c-0.79-0.97-0.43-1.24-0.91-1.09c-0.48,0.15-0.59,0.37-0.78,0.52
		c-0.19,0.15-0.02,1.35-0.36,0.15s0.19-1.1-0.51-1.55c-0.71-0.45-0.52-0.26-1.04-0.65c-0.52-0.38-0.6-0.05-0.9-0.57
		c-0.3-0.52-0.23-0.51-0.42-0.75c-0.2-0.24-0.33-0.29-0.33-0.29s3.42,6.22,3.49,6.34s0.12,0.11,0.1,0.37
		c-0.02,0.25-0.06,0.42-0.07,0.51S61.61,64.36,61.61,64.36z"/>
	<path class="st2" d="M63.21,61.62c0.24-0.4,0.38-0.57,0.78-0.88c0.4-0.31,0.58,0.33,0.24-0.63c-0.34-0.96-0.37-0.74-0.46-1.5
		c-0.08-0.77,0.16-1-0.26-1.38s-0.41,0.04-0.89-0.51c-0.48-0.55-0.73-1.42-1.11-1.45s0.18,0.16-0.65,0.21
		c-0.83,0.05-0.67,0.94-1.23-0.01c-0.56-0.95-1.06-0.15-1.3-0.96s-0.33-0.75-0.59-0.97c-0.27-0.22-0.13-0.39-0.31-0.3
		c-0.18,0.09-0.27,0.33-0.37,0.82s0.2,1.83,0.29,2.14c0.09,0.31,0.1,0.55,0.1,0.55s0.94,2.08,1.18,2.07s1.31,0.99,1.47,1.28
		c0.16,0.29,1.02,1.69,1.19,1.73s0.52,0.28,0.79,0.17C62.35,61.87,63.21,61.62,63.21,61.62z"/>
	<path class="st1" d="M60.88,65.48c0,0,2.49-0.6,2.61-0.83c0.12-0.23,0.22-1.63,0.52-2.4c0.3-0.77,1.05-1.68,1.48-2.7
		c0.43-1.02,0.67-1.28,0.75-1.37c0.08-0.09,0.18-0.18,0.22,0.11c0.04,0.29-0.03,0.53,0.12,0.57c0.15,0.04,0.17,0.37,0.31-0.4
		c0.14-0.78,0.41-1.23,0.62-1.3c0.21-0.07,0.95-0.39,1.06-0.34s0.22,0.69,0.24,1.15c0.02,0.45,0.14,0.87,0.23,0.78
		c0.09-0.09,0.22-0.77,0.73-0.9c0.51-0.13,0.7-0.43,0.92-0.29c0.23,0.14,0.03,0.72,0.01,1.13s-0.15,0.59-0.15,0.59
		s0.68-0.54,0.97-0.54c0.29,0,0.43,0.05,0.79,0.24c0.36,0.19,0.85,0.43,0.85,0.43s0.11,0.18,0.11,0.54c0,0.37,0.18,0.49,0.03,0.85
		s-0.13-0.02-0.31,0.65c-0.18,0.67,0.05,0.71-0.17,1.18s0.02,0.33-0.26,0.76c-0.28,0.43-0.11,0.55-0.62,0.59
		c-0.51,0.04-0.79,0-0.79,0s-0.24-0.08,0.03,0.48c0.26,0.56,0.05,0.72-0.01,0.8c-0.06,0.08,1.06-0.12-0.13,0.44
		c-1.19,0.56-1.64,1.25-2.2,0.88s-0.96-0.86-0.96-0.86s-0.19,0.76-0.44,0.99c-0.25,0.23-1.03,0.63-1.35,0.25
		c-0.33-0.39-0.77-0.09-1.14-0.19c-0.37-0.1-0.74-0.32-0.87-0.73c-0.13-0.42-0.19-0.92-0.33-0.87s-2.67,0.91-2.73,0.96
		c-0.06,0.05-0.9,0.16-0.9,0.16L60.88,65.48z"/>
	<path class="st1" d="M52.02,51.43c0.44-0.02,1.1,0.93,1.59-0.29c0.49-1.22,0.34-1.09,0.21-2.69s-0.33-2.8-0.3-2.99
		c0.03-0.19,0.1-0.7-0.7-0.51c-0.8,0.19-1.68,0.78-2.02,1.43s-0.47,1.19-0.57,1.16s-0.63-0.44,0.08-2.01
		c0.71-1.57,1.04-1.67,0.75-2.71c-0.29-1.04-0.57-1.8-0.68-2.35c-0.11-0.54,0.53-0.9-0.44-0.23c-0.97,0.67-0.7,1.6-1.47,1.11
		c-0.76-0.49-0.69-0.73-0.92-0.55c-0.23,0.18-2.18,2.17-2.31,3.1c-0.13,0.93-0.01,1.53-0.4,1.62c-0.4,0.1-1.27,0.04-1.27,0.04
		s0.35,1.96,1.02,2.7s1.81,2.82,2.86,2.91c1.05,0.09,3.15,0.62,3.49,0.72c0.34,0.11,0.86,0.25,0.88,0.09
		C51.83,51.83,52.02,51.43,52.02,51.43z"/>
	<path class="st3" d="M52.53,51.67c-0.18,0.31-0.56,0.51-0.18,0.83c0.38,0.32,0.42,0.11,0.86,0.31c0.44,0.19,0.9,0.05,1.09,0.87
		c0.19,0.82,0.57,1.89,0.89,3.46c0.32,1.58,0.4,2.47,0.36,2.74c-0.03,0.27,0.06,0.82-0.43,0.81s-1.17-0.06-1.44-0.21
		c-0.28-0.15-0.6-0.53-0.6-0.53s0.13,0.64,0.4,1.29c0.27,0.66,0.62,1.21,0.21,1.67s-0.91,0.73-1.27,1.15
		c-0.36,0.42-0.59,0.79-0.65,0.95c-0.06,0.16-0.68,0.35-0.87,0.63c-0.19,0.28-0.18,0.98-1.11,0.63c-0.94-0.34-1.04-0.42-1.35-0.87
		c-0.31-0.45-0.37-0.85-0.61-1.46c-0.24-0.61-0.41-0.15-0.38-1.86s-0.15-2.24,0.17-3.06c0.32-0.82,0.29-1.19,0.73-2.05
		c0.44-0.86,0.4-1.42,0.74-2.13c0.34-0.71,0.83-1.34,1.27-1.7s0.95-0.58,1.07-0.73c0.12-0.15,0.16-0.82,0.46-1
		c0.3-0.18,0.49-0.18,0.67-0.21C52.72,51.17,52.53,51.67,52.53,51.67z"/>
	<path class="st3" d="M58.65,67.71c0.08,0.47-0.08,1.09,0.48,0.92s0.44-0.4,0.96-0.76s0.79-1.02,1.58-0.55
		c0.79,0.47,1.92,0.93,3.4,1.87c1.48,0.95,2.22,1.62,2.4,1.88c0.18,0.27,0.67,0.62,0.25,1.19s-1.03,1.32-1.38,1.52
		c-0.35,0.2-0.91,0.26-0.91,0.26s0.6,0.38,1.32,0.62c0.73,0.24,1.45,0.28,1.45,1.16s-0.21,1.69-0.2,2.47
		c0.02,0.77,0.11,1.37,0.18,1.56s-0.3,1.1-0.25,1.56c0.06,0.46,0.6,1.03-0.45,1.85s-1.2,0.87-1.81,0.86s-0.96-0.27-1.63-0.51
		c-0.67-0.24-0.46,0.36-1.75-1.12c-1.29-1.48-1.84-1.71-2.19-2.78c-0.35-1.07-0.67-1.34-0.95-2.59s-0.75-1.66-1.01-2.67
		c-0.26-1-0.32-2.11-0.23-2.93c0.09-0.82,0.36-1.6,0.35-1.87c-0.01-0.27-0.49-0.89-0.38-1.39c0.12-0.5,0.28-0.74,0.4-0.96
		C58.42,67.07,58.65,67.71,58.65,67.71z"/>
	<path class="st4" d="M44.34,58.79c0,0-0.21,1.23-1.2,0.87c-0.98-0.36-1.11-0.47-1.73-0.76c-0.63-0.29-0.91-0.02-1.37-0.08
		c-0.46-0.07-0.12,0.13-1.16-0.24c-1.04-0.37-1.17-0.06-1.33-0.01c-0.16,0.05,0.22,0.22-0.91,0.24s-1.26-0.04-2.08-0.2
		c-0.82-0.17-1.32,0.14-1.53,0.21c-0.21,0.07-0.86-0.85-0.51,0.14c0.35,0.98,1.19,1.73,1.47,2.46s0.4,1.46,0.84,2.05
		c0.44,0.59,0.8,0.91,0.45,1.02c-0.35,0.11-1.84-0.33-2.59-0.49c-0.75-0.16-1.61,0.3-1.89,0.63c-0.28,0.33-0.54,0.48-0.85,0.79
		c-0.31,0.31-0.69,0.61-0.22,0.83c0.46,0.22,1.06,0.61,0.94,0.74s-1.12,1.12-0.97,1.5c0.15,0.38,0.66,0.8,0.85,0.77
		c0.19-0.03-0.53,0.66-0.23,1.05c0.3,0.39,0.7,0.51,0.95,0.77s0.58,1.28,1.36,0.88s1.29-1.14,1.65-1.9
		c0.36-0.76,0.86-1.31,0.98-1.32c0.12-0.01,0.16,0.53-0.17,1.09c-0.33,0.56-0.57,1.16-0.75,2.22c-0.17,1.06-0.01,2.33,0.08,2.66
		s-0.09,0.85,0.6,0.54c0.7-0.31,2.07-0.32,2.44-1.54c0.36-1.22,0.77-2.23,0.77-2.23s0.53-0.38,0.47,0.4
		c-0.06,0.78-0.14,1.47,0.2,2.15c0.34,0.68,0.6,1.48,0.9,1.26s0.54-0.11,0.56-1.09s-0.06-1.84,0.07-2.28
		c0.13-0.44,0.32-0.93,0.32-0.93s0.02,1.04,0.23,1.73c0.22,0.69-0.37,1.19,0.2,1.1c0.57-0.09,1.09-0.22,1.44-0.91
		s0.73-0.38,0.72-1.27c-0.01-0.88-0.08-0.74-0.19-1.62c-0.11-0.88,0.03-1.39,0.03-1.39s-0.05,1.06,0.48,1.04
		c0.54-0.02,0.61,0.6,1.01-0.57c0.4-1.17,0.91,0.22,0.38-1.72s-0.63-1.26-0.46-2.72s0.29-1.56,0.05-2.4s-0.41-1.4-0.34-1.78
		c0.07-0.39,0.04-0.53,0.32-0.83c0.28-0.3,0.45-1.03,0.45-1.03L44.34,58.79z"/>
	<path class="st4" d="M55.64,39.54c0,0-0.75-0.3-0.45-1.21c0.3-0.91,0.37-1.02,0.6-1.6c0.23-0.58,0.08-0.87,0.15-1.3
		c0.08-0.43-0.07-0.13,0.24-1.09c0.31-0.96,0.12-1.11,0.1-1.27c-0.02-0.16-0.15,0.19-0.08-0.89c0.07-1.08,0.11-1.2,0.28-1.98
		s0.01-1.27-0.02-1.48c-0.03-0.2,0.59-0.76-0.05-0.5s-1.16,1.01-1.63,1.22c-0.48,0.21-0.93,0.27-1.33,0.65s-0.62,0.7-0.66,0.36
		s0.34-1.73,0.5-2.43c0.15-0.7-0.07-1.56-0.25-1.85c-0.19-0.29-0.26-0.55-0.43-0.87c-0.17-0.31-0.33-0.7-0.5-0.27
		s-0.46,0.97-0.53,0.84c-0.07-0.13-0.61-1.15-0.86-1.04s-0.54,0.57-0.54,0.75c0,0.18-0.37-0.55-0.63-0.29
		c-0.27,0.26-0.37,0.63-0.55,0.85c-0.18,0.22-0.84,0.46-0.65,1.24c0.19,0.77,0.61,1.32,1.05,1.72c0.44,0.4,0.75,0.92,0.75,1.04
		c0,0.12-0.34,0.11-0.66-0.24s-0.68-0.63-1.32-0.88s-1.44-0.18-1.66-0.12c-0.22,0.06-0.52-0.15-0.38,0.54
		c0.14,0.69,0.05,2.01,0.77,2.44c0.73,0.44,1.33,0.9,1.33,0.9s0.2,0.54-0.28,0.42c-0.48-0.11-0.9-0.24-1.35,0.03
		S45.64,33.7,45.75,34c0.11,0.3,0.03,0.53,0.64,0.62s1.15,0.08,1.41,0.24c0.26,0.16,0.56,0.38,0.56,0.38s-0.65-0.06-1.09,0.1
		c-0.45,0.16-0.71-0.44-0.69,0.11c0.01,0.55,0.06,1.05,0.46,1.44c0.4,0.38,0.18,0.73,0.73,0.78s0.46-0.02,1.02-0.06
		s0.86,0.13,0.86,0.13s-0.65-0.13-0.68,0.39c-0.03,0.51-0.42,0.54,0.28,1.01c0.69,0.47-0.2,0.85,1.04,0.49
		c1.24-0.36,0.83-0.51,1.72-0.24c0.89,0.27,0.94,0.4,1.48,0.22c0.54-0.17,0.9-0.29,1.13-0.2c0.24,0.09,0.33,0.08,0.49,0.37
		c0.17,0.29,0.6,0.51,0.6,0.51L55.64,39.54z"/>
	<path class="st4" d="M73.3,56.62c0,0,1.13-0.44,1.41,1.01s0.25,1.67,0.38,2.63c0.13,0.96,0.52,1.16,0.73,1.78
		c0.21,0.62,0.18,0.08,0.47,1.6c0.3,1.53,0.63,1.51,0.77,1.68s0.06-0.4,0.72,1.01c0.67,1.42,0.7,1.62,1.04,2.75
		c0.34,1.14,0.89,1.59,1.06,1.81s-0.19,1.58,0.41,0.57c0.6-1.01,0.72-2.51,1.17-3.28s0.97-1.35,1.2-2.26
		c0.23-0.9,0.28-1.54,0.57-1.17s0.8,2.52,1.1,3.56s1.18,1.87,1.61,2.02c0.43,0.16,0.71,0.41,1.14,0.61c0.43,0.21,0.9,0.51,0.81-0.2
		s-0.12-1.7,0.06-1.62c0.18,0.08,1.57,0.77,1.79,0.36s0.27-1.29,0.14-1.52c-0.14-0.22,0.85,0.29,0.99-0.32s0.02-1.18,0.08-1.64
		s0.71-1.48-0.07-2.23c-0.78-0.75-1.69-0.97-2.52-0.99c-0.83-0.02-1.58-0.33-1.65-0.48c-0.08-0.15,0.34-0.51,0.99-0.42
		s1.28,0.05,2.26-0.34s1.91-1.33,2.14-1.65c0.22-0.31,0.76-0.38,0.09-1.08s-1.47-2.44-2.68-2.19s-2.28,0.32-2.28,0.32
		s-0.62-0.45,0.05-0.83c0.68-0.38,1.29-0.68,1.65-1.5s0.86-1.62,0.51-1.87s-0.41-0.62-1.22-0.07s-1.48,1.15-1.91,1.24
		c-0.44,0.09-0.95,0.13-0.95,0.13s0.84-0.63,1.29-1.3c0.44-0.68,1.19-0.22,0.78-0.89c-0.41-0.67-0.81-1.24-1.58-1.28
		c-0.77-0.04-0.74-0.7-1.46-0.18c-0.72,0.52-0.56,0.53-1.22,1.18s-1.16,0.76-1.16,0.76s0.9-0.55,0.57-1.21s0.13-1.13-1.05-0.95
		c-1.19,0.17-0.35-1.27-1.63,0.51c-1.28,1.78-0.67,1.53-1.96,2.16c-1.29,0.64-1.45,0.53-1.99,1.33c-0.54,0.8-0.91,1.33-1.26,1.47
		c-0.36,0.14-0.46,0.26-0.87,0.08s-1.11,0.03-1.11,0.03L73.3,56.62z"/>
	<path class="st1" d="M53.32,70.09c-0.74,0.08-1.16,0.35-1.67-0.43s-0.72-1.18-0.72-1.18l-0.28,0.92c0,0-0.35-0.62-0.95-0.97
		c-0.6-0.36-1.28-0.44-1.28-0.44s-0.05,0.32-0.02,0.6s0.17,0.5,0.17,0.5s-0.74-0.57-1.27-0.53c-0.53,0.04-1.02,0.24-1.39,0.41
		s-0.81,0.64-0.86,0.76c-0.06,0.12,0.06,0.02,0.14,0.44c0.08,0.41,0,0.51,0.27,0.79c0.27,0.28,0.35,0.65,0.72,0.74
		s0.85,0.47,0.85,0.47s0.02,0.54-0.6,0.37s-1.03-0.58-1.48-0.93c-0.46-0.36-0.71-0.62-1.27-0.28s-0.78,0.67-1.02,0.86
		c-0.24,0.19-0.14,0.22-0.05,0.39s0.43,0.51,0.55,0.57c0.13,0.06,0.4,0.26,0.66,0.27c0.26,0.01,0.68,0.34,0.68,0.34
		s-0.69,0.06-1.26,0.1s-0.9,0.35-0.95,0.42s0.1,0.43,0.35,0.84c0.25,0.41-0.16,0.68,0.45,0.87c0.61,0.19,0.6,0.68,1,0.73
		c0.4,0.04-0.43,0.14-1.19,0.54c-0.76,0.39-1.09,0.78-1.21,1.03s-0.13,0.49-0.07,0.44c0.06-0.05,0.71,0.65,1.01,0.63
		c0.3-0.02,0.6-0.01,0.6-0.01s-0.67,0.19-1.26,0.39s-0.62,0.06-0.85,0.63c-0.23,0.57-0.03,0.77-0.25,1.21
		c-0.22,0.44,0.29,0.93,0.81,1.09c0.52,0.16,1.05,0.15,1.52-0.39c0.48-0.54,0.45-0.53,0.66-0.89c0.22-0.36,0.45-0.6,0.52-0.68
		c0.07-0.07-0.18,1.02-0.41,1.41c-0.23,0.38-0.32,0.52-0.94,1.02c-0.62,0.5-0.95,0.86-1.18,1.24c-0.23,0.38-0.51,0.73-0.61,1.24
		c-0.1,0.52-0.26,0.97,0.28,0.76c0.55-0.21,0.89-0.37,1.08-0.58c0.19-0.21,0.5-0.29,0.34-0.05c-0.16,0.24-0.29,0.4-0.21,0.74
		c0.08,0.34,0.27,0.35,0.17,0.61c-0.1,0.26,0.24,0.32,0.24,0.32s0.03-0.15,0.39-0.37c0.36-0.22,0.99-0.41,1.28-0.23
		s0.28,0.48,0.64-0.29s0.4-0.95,0.4-0.95s-0.25-1.17-0.3-1.92c-0.05-0.75-0.02-1.37,0.18-1.75c0.2-0.38,0.55-0.82,0.45-0.9
		c-0.09-0.08,0.5-0.25,0.35,0.63c-0.15,0.87-0.15,1.05-0.13,1.66c0.02,0.61,0.39,0.95,0.73,1.34s0.5,0.62,0.57,0.69
		S48,84.45,48,84.45s0.56,1.05,0.84,1.11c0.27,0.06,0.8,0.02,1.19-0.21c0.39-0.22,0.56-0.27,0.79-0.62
		c0.23-0.35,0.33-0.57,0.34-1.26c0.01-0.69-0.11-1.02,0.08-1.38c0.19-0.36,0.28-0.52,0.09-0.86S50.7,80,50.36,79.68
		c-0.34-0.31-1.13-0.68-1.41-0.82c-0.29-0.15-0.82-0.73-0.88-1.16s0.22-2.01,0.48-2.55c0.26-0.54,0.87-0.98,0.61,0.48
		c-0.25,1.46,0.15,1.4,0.19,1.77c0.04,0.37,0.92,1.38,1.36,1.65c0.44,0.27,1.04,0.99,1.47,0.95c0.43-0.04,0.68,0.3,1.1,0.03
		c0.42-0.27,1.07-1.1,1.39-1.62c0.32-0.52,0.22-0.94,0.77-1.55c0.55-0.61,1.05-0.83,0.82-1.13c-0.23-0.31-0.56-0.24-1.16-0.27
		c-0.6-0.03-0.8,0.28-1.3-0.2c-0.5-0.47-0.71-1.13-0.49-0.91c0.21,0.22,0.78,0.29,1.29,0.26c0.5-0.04,0.27,0.24,1.03-0.11
		c0.76-0.36,0.83-0.25,0.91-0.65c0.07-0.4,0.15-0.54,0.18-0.77c0.03-0.23-0.31-0.07-0.66-0.23s-0.64-0.26-0.93-0.15
		c-0.29,0.11-0.4-0.01-0.4-0.01s0.23-0.02,0.12-0.39c-0.11-0.37,0-0.44-0.47-0.88s-0.71-0.55-0.9-0.63
		c-0.19-0.08-0.26-0.19-0.3-0.23C53.13,70.52,53.32,70.09,53.32,70.09z"/>
</g>
</svg>
