<svg xmlns="http://www.w3.org/2000/svg" version="1.1" xmlns:xlink="http://www.w3.org/1999/xlink" xmlns:svgjs="http://svgjs.dev/svgjs" viewBox="0 0 108 108" style="" x="0" y="0"><style type="text/css">
	.st0{display:none;}
	.st1{display:inline;fill:none;}
	.st2{fill:#C7C403;}
	.st3{fill:#5A5618;}
	.st4{fill:#87891C;}
	.st5{fill:none;stroke:#87891C;stroke-width:1.5325;stroke-miterlimit:10;}
	.st6{fill:#B3BE35;}
	.st7{fill:#968D32;}
	.st8{fill:#B6B52A;}
	.st9{fill:#B0B336;}
	.st10{fill:#7C7F30;}
	.st11{fill:#ACBC37;}
	.st12{fill:#C5B330;}
	.st13{fill:#B5BE35;}
	.st14{fill:#C4C556;}
	.st15{fill:#A6BA4A;}
	.st16{fill:none;stroke:#87891C;stroke-width:3.0651;stroke-miterlimit:10;}
	.st17{fill:none;stroke:#87891C;stroke-width:1.2995;stroke-miterlimit:10;}
</style><g><path class="st2" d="M25,51.4c-0.9-0.1-6.6,2.9-7.3,6.1s0.3,3.3,0.5,3.6C20.1,62.9,31.5,52.2,25,51.4z"></path><path class="st3" d="M26.6,52c-2.4-2-9.5,7-8.4,9C21.1,59.6,27,53.4,26.6,52z"></path><path class="st4" d="M26.1,52.3c-2.7,0.9-6.1,4.6-7.9,8.1C21.3,57.9,24.7,54,26.1,52.3z"></path><line class="st5" x1="29.5" y1="46.5" x2="53.3" y2="62.5"></line><line class="st5" x1="34" y1="49.9" x2="26.2" y2="53.7"></line><line class="st5" x1="32.1" y1="48.5" x2="23.3" y2="49.3"></line><path class="st5" d="M30.5,46.9c-0.9-0.4-6-5-6-5"></path><line class="st5" x1="31.5" y1="47.8" x2="29" y2="39.7"></line><line class="st5" x1="33.6" y1="48.9" x2="38.1" y2="38.5"></line><path class="st6" d="M19.4,56.6c0.7,0.6,7.1,1,9.4-1.3s1.5-3,1.4-3.3C29.6,49.3,14.3,52.4,19.4,56.6z"></path><path class="st3" d="M18.4,55.2c1,2.9,11.8-1,11.8-3.3C27,51.5,18.8,53.8,18.4,55.2z"></path><path class="st7" d="M18.9,55.2c2.8,0.6,7.6-0.7,11-2.8C26,53,21,54.5,18.9,55.2z"></path><path class="st2" d="M15.9,36.5c-0.1,0.9,3.2,6.4,6.4,7s3.3-0.5,3.5-0.7C27.7,40.8,16.4,29.9,15.9,36.5z"></path><path class="st3" d="M16.5,34.9c-1.8,2.5,7.5,9.1,9.4,7.9C24.4,39.9,17.9,34.4,16.5,34.9z"></path><path class="st7" d="M16.8,35.3c1.1,2.6,4.9,5.8,8.5,7.5C22.6,39.9,18.6,36.6,16.8,35.3z"></path><path class="st2" d="M38.4,41.7c0.9-0.2,4.9-5.3,4.4-8.4s-1.6-2.9-1.9-3.1C38.5,29.2,32.1,43.5,38.4,41.7z"></path><path class="st3" d="M36.8,41.7c3,0.9,6-10.2,4.2-11.5C38.8,32.6,35.8,40.6,36.8,41.7z"></path><path class="st4" d="M37.1,41.3c2.1-1.9,3.8-6.6,4.1-10.6C39.3,34.3,37.7,39.2,37.1,41.3z"></path><path class="st8" d="M44.5,42c-0.8-0.4-7.2,0.7-8.9,3.5c-1.7,2.8-0.8,3.2-0.6,3.6C36.2,51.3,50.4,44.8,44.5,42z"></path><path class="st3" d="M45.8,43.1C44.1,40.4,34.5,46.8,35,49C38.2,48.6,45.7,44.5,45.8,43.1z"></path><path class="st7" d="M45.3,43.2c-2.8,0-7.2,2.4-10.1,5.2C38.9,47,43.4,44.4,45.3,43.2z"></path><path class="st9" d="M27.8,56.1c-0.8-0.2-5.8,2.2-6.2,5.1s0.5,3.1,0.8,3.4C24.2,66.4,33.9,57.4,27.8,56.1z"></path><path class="st3" d="M29.3,56.8c-2.3-2-8.2,5.8-7,7.7C24.9,63.5,29.8,58.1,29.3,56.8z"></path><path class="st10" d="M28.9,57c-2.4,0.6-5.2,3.8-6.6,7C24.9,61.8,27.8,58.5,28.9,57z"></path><path class="st2" d="M22.2,32.9c-0.3,0.4-0.2,3.9,1.4,4.8c1.5,1,1.9,0.5,2.1,0.4C27.2,37.5,24.4,29.8,22.2,32.9z"></path><path class="st3" d="M22.9,32.2c-1.7,0.8,1.3,6.1,2.7,5.9C25.7,36.4,23.8,32.3,22.9,32.2z"></path><path class="st4" d="M23,32.5c-0.2,1.5,0.9,3.9,2.4,5.5C24.8,36,23.6,33.5,23,32.5z"></path><path class="st2" d="M34.4,30.9c-0.7,0.2-3.5,3.6-2.8,5.8s1.4,2.1,1.7,2.2C35.3,39.6,39.2,29.8,34.4,30.9z"></path><path class="st3" d="M35.7,30.9c-2.4-0.7-3.9,7-2.4,7.9C34.8,37.2,36.5,31.7,35.7,30.9z"></path><path class="st10" d="M35.5,31.2c-1.5,1.3-2.5,4.5-2.4,7.3C34.3,36.1,35.2,32.7,35.5,31.2z"></path><path class="st11" d="M28.4,28.9c0.8,0.4,4.2,5.9,3.2,9s-1.9,2.7-2.3,2.8C26.7,41.3,22.3,26.3,28.4,28.9z"></path><path class="st3" d="M26.7,28.6c3.1-0.5,4.6,10.9,2.6,12C27.5,38,25.6,29.6,26.7,28.6z"></path><path class="st4" d="M26.9,29.1c1.8,2.2,2.9,7,2.7,11C28.2,36.4,27.2,31.3,26.9,29.1z"></path><path class="st2" d="M33.4,50.6c-0.8,0.3-3.6,5.5-3,8.6c0.3,3.2,1,2.8,1.2,3C33.2,63,39.8,48.7,33.4,50.6z"></path><path class="st3" d="M35,50.5c-2.9-0.8-4.5,10.4-3.4,11.7C33.3,59.7,36,51.6,35,50.5z"></path><path class="st4" d="M34.8,50.9c-1.8,1.9-3,6.7-3.2,10.7C33,58.1,34.3,53.1,34.8,50.9z"></path><path class="st12" d="M18.5,42.9c-0.6-0.7-6.9-2.8-9.1-1.1c-2,1.9-1.1,2.9-1,3.3C9.4,48.2,22.3,47.3,18.5,42.9z"></path><path class="st3" d="M19.2,44.3c-0.6-2.8-11.1-1.7-10.8,0.8C11.4,46.2,18.8,45.5,19.2,44.3z"></path><path class="st10" d="M18.8,44.2c-2.5-1.1-7-1-10.1,0.4C12.3,44.9,16.8,44.5,18.8,44.2z"></path><path class="st13" d="M28.8,43.9c-0.6-0.5-7-1.2-9.5,0.7s-1.7,2.5-1.7,2.8C18,49.6,33.5,47.7,28.8,43.9z"></path><path class="st3" d="M29.7,45.2c-0.7-2.5-11.8,0.3-12.1,2.2C20.8,47.8,29.2,46.3,29.7,45.2z"></path><path class="st4" d="M29.2,45.1c-2.7-0.7-7.6,0.2-11.2,1.8C22,46.7,27,45.7,29.2,45.1z"></path><path class="st2" d="M34.5,40.5c-0.7-0.3-4.5,0.7-4.9,3.6c-0.7,3.2-0.1,3.8,0.1,4.2C30.6,51.1,40.5,41.7,34.5,40.5z"></path><path class="st3" d="M35.9,41.3c-2.3-2.1-6.8,4.3-6.3,6.9C31.7,47.7,36.4,42.5,35.9,41.3z"></path><path class="st4" d="M35.5,41.4c-2.1,0.3-4.4,2.9-5.8,6.1C32,45.8,34.5,42.8,35.5,41.4z"></path><path class="st14" d="M17.5,38.9c0-0.6-1.9-2.9-4.1-2.3c-2.4,0.5-2.7,1.1-2.9,1.4C8.8,39.6,18.5,43.5,17.5,38.9z"></path><path class="st3" d="M17.3,40.1c0.7-2.3-5.1-3.4-6.8-2.2C11.5,39.3,16.6,40.9,17.3,40.1z"></path><path class="st4" d="M17.1,40c-0.9-1.4-3.4-2.2-6.1-2.1C12.9,38.8,15.9,39.7,17.1,40z"></path><path class="st15" d="M23.9,47.5c-0.7-0.6-7.1-1.4-9.5,0.7c-2.4,2.1-1.7,2.9-1.6,3.2C13.3,54.1,28.8,52,23.9,47.5z"></path><path class="st3" d="M24.8,49c-0.8-3-11.8,0.2-12,2.5C16,52.1,24.4,50.3,24.8,49z"></path><path class="st4" d="M24.3,48.9c-2.7-0.8-7.6,0.2-11.2,2.1C17.1,50.7,22.2,49.5,24.3,48.9z"></path><path class="st2" d="M76.7,43.9c0.6-0.7,0.9-7.1-1.4-9.4c-2.3-2.3-3-1.5-3.3-1.4C69.4,33.7,72.6,49,76.7,43.9z"></path><path class="st3" d="M75.4,44.9c2.9-1-1.1-11.8-3.4-11.8C71.6,36.3,74,44.5,75.4,44.9z"></path><path class="st4" d="M75.4,44.4c0.6-2.8-0.8-7.6-2.9-11C73.1,37.3,74.6,42.3,75.4,44.4z"></path><line class="st5" x1="78.6" y1="50.3" x2="52.7" y2="62.4"></line><line class="st5" x1="73.3" y1="52.3" x2="74" y2="43.7"></line><line class="st5" x1="75.5" y1="51.4" x2="79.3" y2="43.5"></line><path class="st5" d="M77.8,50.9c0.8-0.6,7.4-2.6,7.4-2.6"></path><line class="st5" x1="76.4" y1="51.3" x2="84.6" y2="53.4"></line><line class="st5" x1="74.4" y1="52.6" x2="81" y2="61.8"></line><path class="st6" d="M75.1,36.4c-0.8,0.3-4.5,5.6-3.7,8.8s1.8,2.8,2.1,2.9C76.1,48.9,81.3,34.2,75.1,36.4z"></path><path class="st3" d="M76.8,36.3c-3-0.6-5.2,10.6-3.2,11.8C75.5,45.6,77.8,37.3,76.8,36.3z"></path><path class="st7" d="M76.5,36.7c-1.9,2.1-3.3,6.9-3.3,10.9C74.8,43.9,76.1,38.9,76.5,36.7z"></path><path class="st2" d="M94.1,43.8c-0.7-0.5-7.2-0.5-9.3,1.9c-2.1,2.4-1.3,3.1-1.2,3.4C84.4,51.6,99.5,47.6,94.1,43.8z"></path><path class="st3" d="M95.2,45.1c-1.2-2.9-11.7,1.8-11.6,4C86.8,49.3,94.9,46.5,95.2,45.1z"></path><path class="st7" d="M94.7,45.1c-2.8-0.4-7.5,1.2-10.8,3.5C87.8,47.8,92.6,46,94.7,45.1z"></path><path class="st2" d="M78.1,60.4c-0.2,0.9,2,6.9,5,8.1c3,1.2,3.3,0.2,3.6-0.1C88.8,66.8,79.8,54,78.1,60.4z"></path><path class="st3" d="M78.9,58.9c-2.3,2.1,5.7,10.4,7.7,9.5C85.7,65.4,80.3,58.7,78.9,58.9z"></path><path class="st4" d="M79.1,59.4c0.5,2.8,3.7,6.7,7,9C84,65,80.7,61,79.1,59.4z"></path><path class="st8" d="M74.7,65.4c0.8-0.5,3.1-6.5,1.6-9.4c-1.5-2.9-2.4-2.3-2.7-2.3C70.9,53.5,69.2,69.1,74.7,65.4z"></path><path class="st3" d="M73.1,66c3.1-0.1,2.6-11.5,0.5-12.3C72.3,56.7,71.9,65.2,73.1,66z"></path><path class="st7" d="M73.3,65.5c1.4-2.4,1.6-7.4,0.7-11.3C73.3,58.1,73.2,63.3,73.3,65.5z"></path><path class="st9" d="M71.2,43.9c0.6-0.6,1.1-6.1-1.1-8s-2.9-1.2-3.3-1.1C64.2,35.5,67,48.4,71.2,43.9z"></path><path class="st3" d="M69.8,44.8c2.9-1-0.8-10-3-9.9C66.4,37.6,68.5,44.5,69.8,44.8z"></path><path class="st10" d="M69.9,44.4c0.7-2.4-0.6-6.4-2.6-9.3C67.8,38.4,69.1,42.6,69.9,44.4z"></path><path class="st2" d="M94,51c-0.2-0.5-3.2-2.2-4.9-1.3c-1.6,0.8-1.4,1.4-1.4,1.6C87.4,52.9,95.5,54.5,94,51z"></path><path class="st3" d="M94.2,52c0.2-1.9-5.9-2-6.5-0.7C89.2,52.2,93.7,52.7,94.2,52z"></path><path class="st4" d="M93.9,51.9c-1.2-1-3.8-1.3-5.9-0.8C90,51.6,92.7,51.8,93.9,51.9z"></path><path class="st2" d="M89.4,62.5c0.2-0.6-1.3-4.8-3.5-5.4c-2.3-0.6-2.5,0.2-2.7,0.3C81.5,58.8,87.9,67.2,89.4,62.5z"></path><path class="st3" d="M88.7,63.6c1.8-1.7-4-7-5.6-6.2C83.8,59.6,87.6,63.9,88.7,63.6z"></path><path class="st10" d="M88.6,63.3c-0.3-1.9-2.6-4.5-5-5.8C85.1,59.7,87.5,62.3,88.6,63.3z"></path><path class="st11" d="M94.3,58.3c-0.7,0.5-7.2,0.6-9.3-1.8c-2.2-2.4-1.3-3.1-1.2-3.4C84.5,50.6,99.6,54.5,94.3,58.3z"></path><path class="st3" d="M95.3,57c-1.2,2.9-11.7-1.7-11.6-3.9C86.9,52.9,95,55.6,95.3,57z"></path><path class="st4" d="M94.8,57c-2.8,0.5-7.5-1.1-10.8-3.4C87.9,54.4,92.8,56.1,94.8,57z"></path><path class="st2" d="M73.1,51.5c0.2-0.8-2.8-5.9-5.9-7c-2.9-1.3-3-0.6-3.2-0.5C62.5,44.9,71.4,57.9,73.1,51.5z"></path><path class="st3" d="M72.3,52.9c2.2-2.1-6.6-9.2-8.3-8.9C65.3,46.7,70.8,53.2,72.3,52.9z"></path><path class="st4" d="M72.1,52.5c-0.7-2.5-4.2-6-7.5-8.3C66.9,47.3,70.4,51,72.1,52.5z"></path><path class="st12" d="M87.3,42.7c0.9-0.2,6-4.4,5.6-7.2c-0.6-2.7-1.9-2.4-2.3-2.5C87.4,32.2,81.6,43.7,87.3,42.7z"></path><path class="st3" d="M85.7,42.6c2.7,1,7.2-8.6,4.9-9.7C88.1,34.9,85,41.6,85.7,42.6z"></path><path class="st10" d="M86,42.3c2.2-1.5,4.5-5.5,4.8-8.9C88.8,36.3,86.8,40.4,86,42.3z"></path><path class="st13" d="M81.1,51c0.8-0.3,4.6-5.4,4.3-8.5c-0.3-3.1-1.2-2.8-1.5-2.9C81.8,38.8,75.4,53.1,81.1,51z"></path><path class="st3" d="M79.6,51.1c2.6,0.7,5.9-10.3,4.3-11.5C81.9,42.1,78.9,50.1,79.6,51.1z"></path><path class="st4" d="M79.9,50.7c2-2,3.7-6.6,4.2-10.5C82.3,43.7,80.5,48.6,79.9,50.7z"></path><path class="st2" d="M81.2,57.6c0.6-0.5,1.7-4.2-0.5-6c-2.4-2.2-3.2-2-3.6-2.1C74.1,48.8,77,62.2,81.2,57.6z"></path><path class="st3" d="M79.8,58.4c3-0.9-0.2-8-2.7-8.9C76.4,51.6,78.4,58.2,79.8,58.4z"></path><path class="st4" d="M79.8,58.1c0.8-1.9-0.2-5.3-2.2-8.1C77.9,52.7,79.2,56.5,79.8,58.1z"></path><path class="st14" d="M91.3,43.8c0.5,0.3,3.5-0.2,4-2.3c0.8-2.3,0.4-2.9,0.3-3.2C95.2,36,86.8,42.3,91.3,43.8z"></path><path class="st3" d="M90.3,43.1c1.6,1.8,5.5-2.7,5.4-4.8C94,38.6,90,42.1,90.3,43.1z"></path><path class="st4" d="M90.5,43c1.6-0.1,3.6-1.8,5-4.1C93.7,40,91.4,42.1,90.5,43z"></path><path class="st15" d="M80.6,44.9c0.9-0.3,4.9-5.3,4.3-8.5c-0.6-3.2-1.6-2.9-1.9-3C80.4,32.4,74.2,46.8,80.6,44.9z"></path><path class="st3" d="M78.9,45c3,0.8,5.9-10.3,4-11.6C80.8,35.8,77.9,43.9,78.9,45z"></path><path class="st4" d="M79.2,44.6c2.1-1.9,3.7-6.6,4-10.6C81.4,37.5,79.7,42.4,79.2,44.6z"></path><path class="st2" d="M40.9,34.5c-0.6-0.7-6.7-2.6-9.5-0.9s-2.1,2.6-2.1,2.9C29.3,39.2,44.9,39.7,40.9,34.5z"></path><path class="st3" d="M41.6,36c-0.3-3.1-11.7-1.7-12.3,0.5C32.3,37.6,40.9,37.3,41.6,36z"></path><path class="st4" d="M41.1,35.9c-2.5-1.2-7.5-1.1-11.3,0.2C33.7,36.5,38.9,36.2,41.1,35.9z"></path><line class="st5" x1="47.6" y1="34.2" x2="53.2" y2="62.3"></line><line class="st5" x1="48.3" y1="39.8" x2="40.1" y2="37"></line><line class="st5" x1="48" y1="37.4" x2="41.1" y2="31.8"></line><path class="st5" d="M48,35.2c-0.4-0.9-0.8-7.8-0.8-7.8"></path><line class="st5" x1="48.1" y1="36.5" x2="52" y2="29"></line><line class="st5" x1="48.8" y1="38.8" x2="59.3" y2="34.6"></line><path class="st6" d="M33.3,34.3c0.1,0.9,4.4,5.7,7.6,5.7c3.2,0,3.1-1.1,3.3-1.4C45.6,36.3,32.6,27.7,33.3,34.3z"></path><path class="st3" d="M33.6,32.6c-1.3,2.8,9.1,7.6,10.7,6C42.3,36,34.8,31.9,33.6,32.6z"></path><path class="st7" d="M33.9,32.9c1.5,2.4,5.9,4.8,9.8,5.8C40.5,36.3,35.9,33.9,33.9,32.9z"></path><path class="st2" d="M45,17.6c-0.7,0.6-2.2,6.9-0.4,9.5s2.7,2,3,2C50.3,28.9,50,13.3,45,17.6z"></path><path class="st3" d="M46.5,16.8c-3.1,0.5-1.1,11.8,1.1,12.2C48.6,26,47.8,17.4,46.5,16.8z"></path><path class="st7" d="M46.4,17.3c-1.1,2.6-0.6,7.6,0.8,11.3C47.3,24.7,46.8,19.5,46.4,17.3z"></path><path class="st2" d="M57.3,37.1c0.8,0.4,7.2-0.2,9.1-2.9s1-3.2,0.8-3.5C66.1,28.3,51.5,33.9,57.3,37.1z"></path><path class="st3" d="M56.1,35.9c1.5,2.7,11.5-3,11.1-5.2C63.9,30.9,56.2,34.5,56.1,35.9z"></path><path class="st4" d="M56.6,35.9c2.8,0.1,7.3-2,10.4-4.6C63.2,32.5,58.5,34.7,56.6,35.9z"></path><path class="st8" d="M61.4,41.6c-0.3-0.8-5.6-4.6-8.7-3.8s-2.8,1.8-2.9,2.1C48.9,42.4,63.6,47.8,61.4,41.6z"></path><path class="st3" d="M61.5,43.2c0.7-3-10.6-5.3-11.8-3.4C52.3,41.9,60.5,44.2,61.5,43.2z"></path><path class="st7" d="M61.1,43c-2-2-6.8-3.3-10.8-3.4C53.9,41.2,58.9,42.5,61.1,43z"></path><path class="st9" d="M39.6,39.8c-0.5-0.7-5.7-2.5-8-0.8c-2.3,1.7-1.8,2.6-1.8,2.9C29.8,44.6,43,45,39.6,39.8z"></path><path class="st3" d="M40.2,41.4c-0.2-3.1-9.9-1.6-10.4,0.6C32.3,43,39.6,42.7,40.2,41.4z"></path><path class="st10" d="M39.8,41.3c-2.1-1.2-6.4-1-9.6,0.3C33.5,41.9,37.9,41.5,39.8,41.3z"></path><path class="st2" d="M51.9,19.4c-0.5,0.1-2.9,2.6-2.4,4.4c0.4,1.8,1,1.7,1.2,1.8C52.2,26.2,55.7,18.7,51.9,19.4z"></path><path class="st3" d="M53,19.5c-1.8-0.6-3.4,5.3-2.2,6.1C52,24.4,53.6,20.1,53,19.5z"></path><path class="st4" d="M52.8,19.7c-1.2,0.9-2.1,3.4-2.2,5.6C51.6,23.4,52.5,20.8,52.8,19.7z"></path><path class="st2" d="M62,26.6c-0.6-0.4-5,0.1-6.1,2.1s-0.4,2.5-0.3,2.7C56.5,33.4,66.2,29.2,62,26.6z"></path><path class="st3" d="M63,27.5c-1.2-2.2-7.7,2.2-7.3,3.9C57.9,31.4,63,28.7,63,27.5z"></path><path class="st10" d="M62.6,27.6c-2-0.2-4.9,1.4-6.9,3.4C58.3,30.1,61.4,28.4,62.6,27.6z"></path><path class="st11" d="M59.2,20.9c0.3,0.8-1.2,7.1-4,8.6c-2.9,1.5-3.3,0.5-3.6,0.4C49.3,28.5,56.7,14.8,59.2,20.9z"></path><path class="st3" d="M58.2,19.5c2.5,1.8-4.4,11-6.6,10.3C52.1,26.7,56.7,19.5,58.2,19.5z"></path><path class="st4" d="M58,20c-0.2,2.8-2.9,7-5.9,9.7C53.8,26.1,56.7,21.8,58,20z"></path><path class="st2" d="M47.5,39.9c-0.7-0.4-6.4,1.3-8.2,4c-2,2.5-1.3,2.7-1.2,3C38.6,48.6,53.3,43,47.5,39.9z"></path><path class="st3" d="M48.6,41c-1.5-2.7-10.6,4.2-10.6,5.9C41,46.3,48.5,42.4,48.6,41z"></path><path class="st4" d="M48.2,41.1c-2.6,0.1-6.8,2.7-9.8,5.3C41.9,44.9,46.3,42.3,48.2,41.1z"></path><path class="st12" d="M42.3,23.9c0.1-0.9-2.9-6.8-5.7-7.2c-2.8,0-2.8,1.3-3,1.7C32.1,21.3,41.9,29.7,42.3,23.9z"></path><path class="st3" d="M41.8,25.4c1.6-2.4-6.6-9-8.2-7C34.9,21.3,40.6,25.9,41.8,25.4z"></path><path class="st10" d="M41.6,25c-0.9-2.5-4.3-5.6-7.5-6.8C36.5,21,40,23.9,41.6,25z"></path><path class="st13" d="M48.9,31.9c-0.1-0.8-4.1-5.8-7.2-6.2s-3,0.5-3.1,0.8C37.2,28.3,49.6,37.9,48.9,31.9z"></path><path class="st3" d="M48.6,33.4c1.3-2.3-8.6-8.1-10.1-6.9C40.4,29,47.5,33.9,48.6,33.4z"></path><path class="st4" d="M48.3,33c-1.4-2.4-5.5-5.2-9.2-6.6C42.1,29,46.4,31.9,48.3,33z"></path><path class="st2" d="M55.3,33.4c-0.3-0.7-3.7-2.6-6-0.9c-2.7,1.8-2.7,2.6-2.9,3C45,38.2,58.7,38.6,55.3,33.4z"></path><path class="st3" d="M55.8,35c-0.2-3.1-7.8-1.7-9.3,0.5C48.3,36.6,55.2,36.3,55.8,35z"></path><path class="st4" d="M55.4,34.9c-1.7-1.2-5.2-1.1-8.4,0.2C49.8,35.4,53.8,35.1,55.4,34.9z"></path><path class="st14" d="M44.4,20.3c0.4-0.5,0.7-3.4-1.3-4.5c-2.1-1.3-2.7-1.1-3-1.1C37.7,14.7,41.8,24.4,44.4,20.3z"></path><path class="st3" d="M43.4,21.1c2.1-1.1-1.3-6-3.3-6.4C39.9,16.4,42.4,21.1,43.4,21.1z"></path><path class="st4" d="M43.4,20.8c0.3-1.6-0.9-3.9-2.8-5.8C41.2,17.1,42.7,19.8,43.4,20.8z"></path><path class="st15" d="M42.9,31c0-0.9-4-6-7.2-6.2c-3.2-0.2-3.2,0.9-3.4,1.2C30.7,28.1,43.1,37.6,42.9,31z"></path><path class="st3" d="M42.5,32.7C44,30,33.9,24.5,32.2,26C34.1,28.6,41.2,33.3,42.5,32.7z"></path><path class="st4" d="M42.2,32.3c-1.4-2.5-5.5-5.2-9.4-6.4C35.8,28.4,40.2,31.2,42.2,32.3z"></path><path class="st2" d="M72.6,39.4c0.7-0.5,7.2-0.7,9.4,1.6c2.2,2.4,1.4,3,1.3,3.4C82.5,46.9,67.3,43.3,72.6,39.4z"></path><path class="st3" d="M71.5,40.7c1.1-2.9,11.8,1.4,11.7,3.7C80,44.6,71.9,42.1,71.5,40.7z"></path><path class="st4" d="M72,40.7c2.8-0.5,7.5,1,10.9,3.1C79,43.2,74.1,41.5,72,40.7z"></path><line class="st5" x1="66.2" y1="37.3" x2="53.5" y2="63"></line><line class="st5" x1="64" y1="42.6" x2="72.7" y2="42"></line><line class="st5" x1="65" y1="40.4" x2="73.1" y2="36.8"></line><path class="st5" d="M65.6,38.2c0.6-0.8,2.8-7.3,2.8-7.3"></path><line class="st5" x1="65.1" y1="39.5" x2="63.3" y2="31.2"></line><line class="st5" x1="63.8" y1="41.4" x2="54.8" y2="34.7"></line><path class="st6" d="M80,41.1c-0.3,0.8-5.7,4.4-8.8,3.5c-3.1-0.9-2.8-1.9-2.9-2.2C67.5,39.9,82.4,35,80,41.1z"></path><path class="st3" d="M80.2,39.5c0.6,3.1-10.8,4.9-11.9,3C70.9,40.5,79.2,38.4,80.2,39.5z"></path><path class="st7" d="M79.7,39.7c-2.1,1.9-6.9,3.1-10.9,3C72.5,41.3,77.5,40.1,79.7,39.7z"></path><path class="st2" d="M73.1,22c0.5,0.7,0.4,7.2-2.1,9.3s-3.1,1.2-3.4,1.1C65,31.5,69.4,16.5,73.1,22z"></path><path class="st3" d="M71.8,20.9c2.8,1.3-2,11.7-4.3,11.5C67.4,29.1,70.4,21.1,71.8,20.9z"></path><path class="st7" d="M71.8,21.4c0.4,2.8-1.4,7.5-3.7,10.7C68.9,28.2,70.8,23.4,71.8,21.4z"></path><path class="st2" d="M56.1,37.6c-0.9,0.2-6.9-2.1-8-5.2s-0.1-3.3,0.1-3.6C49.9,26.7,62.5,36,56.1,37.6z"></path><path class="st3" d="M57.6,36.8c-2.2,2.2-10.3-5.9-9.3-8C51.3,29.8,57.8,35.4,57.6,36.8z"></path><path class="st4" d="M57.1,36.6c-2.8-0.6-6.6-3.8-8.8-7.2C51.6,31.6,55.5,35,57.1,36.6z"></path><path class="st8" d="M51,40.8c0.5-0.7,6.6-2.9,9.4-1.4c2.8,1.6,2.3,2.4,2.3,2.8C62.8,44.9,47.2,46.2,51,40.8z"></path><path class="st3" d="M50.4,42.4c0.1-3.1,11.6-2.3,12.3-0.2C59.7,43.5,51.1,43.6,50.4,42.4z"></path><path class="st7" d="M50.9,42.3c2.5-1.4,7.5-1.4,11.3-0.4C58.3,42.4,53.1,42.4,50.9,42.3z"></path><path class="st9" d="M72.4,44.9c0.6-0.6,6.1-1,7.9,1.3c1.8,2.3,1.1,3,1,3.3C80.7,52.1,67.8,49,72.4,44.9z"></path><path class="st3" d="M71.5,46.2c1-2.9,10,1,9.9,3.3C78.6,49.9,71.7,47.6,71.5,46.2z"></path><path class="st10" d="M71.9,46.2c2.4-0.6,6.4,0.7,9.2,2.8C77.8,48.4,73.7,47,71.9,46.2z"></path><path class="st2" d="M65.9,21.9c0.5,0.2,2.1,3.3,1.2,4.9c-0.9,1.6-1.4,1.4-1.7,1.4C63.8,28.4,62.4,20.3,65.9,21.9z"></path><path class="st3" d="M64.9,21.7c1.9-0.1,1.9,6,0.6,6.5C64.6,26.7,64.1,22.2,64.9,21.7z"></path><path class="st4" d="M65,21.9c0.9,1.2,1.2,3.9,0.7,6C65.2,25.9,65,23.1,65,21.9z"></path><path class="st2" d="M54.3,26.2c0.6-0.2,4.8,1.4,5.3,3.6c0.5,2.3-0.2,2.5-0.4,2.7C57.8,34.2,49.5,27.6,54.3,26.2z"></path><path class="st3" d="M53.1,26.9c1.7-1.8,6.9,4.1,6,5.7C57,31.9,52.8,28,53.1,26.9z"></path><path class="st10" d="M53.4,27c1.9,0.4,4.4,2.7,5.7,5.1C56.9,30.6,54.4,28.2,53.4,27z"></path><path class="st11" d="M58.5,21.5c-0.5,0.7-0.7,7.2,1.6,9.4s3,1.4,3.4,1.3C66.1,31.4,62.5,16.2,58.5,21.5z"></path><path class="st3" d="M59.9,20.4c-2.9,1.1,1.4,11.8,3.7,11.7C63.8,28.9,61.3,20.8,59.9,20.4z"></path><path class="st4" d="M59.9,20.9c-0.5,2.8,1,7.5,3.1,10.9C62.3,27.9,60.7,23,59.9,20.9z"></path><path class="st2" d="M64.9,42.8c0.8-0.2,5.8,3,6.9,6c1.3,2.9,0.5,3,0.4,3.2C71.2,53.6,58.4,44.4,64.9,42.8z"></path><path class="st3" d="M63.4,43.6c2.1-2.2,9.1,6.8,8.7,8.5C69.4,50.7,63.1,45,63.4,43.6z"></path><path class="st4" d="M63.8,43.8c2.5,0.8,5.9,4.4,8.1,7.7C68.9,49.1,65.3,45.5,63.8,43.8z"></path><path class="st12" d="M74,28.8c0.2-0.9,4.6-5.8,7.3-5.4c2.7,0.7,2.4,2,2.5,2.4C84.5,28.9,72.9,34.5,74,28.8z"></path><path class="st3" d="M74.1,30.4c-0.9-2.7,8.8-7,9.8-4.6C81.8,28.2,75.1,31.2,74.1,30.4z"></path><path class="st10" d="M74.4,30.1c1.6-2.2,5.6-4.3,9-4.6C80.4,27.5,76.3,29.4,74.4,30.1z"></path><path class="st13" d="M65.6,34.8c0.3-0.8,5.5-4.5,8.6-4.1c3.1,0.4,2.7,1.3,2.8,1.6C77.7,34.4,63.3,40.4,65.6,34.8z"></path><path class="st3" d="M65.4,36.3c-0.6-2.6,10.4-5.6,11.6-4C74.5,34.2,66.4,37,65.4,36.3z"></path><path class="st4" d="M65.8,36c2-1.9,6.7-3.6,10.6-4C72.9,33.8,68,35.4,65.8,36z"></path><path class="st2" d="M58.9,34.6c0.5-0.6,4.3-1.6,6,0.7c2.2,2.4,1.9,3.2,2,3.7C67.6,41.9,54.3,38.7,58.9,34.6z"></path><path class="st3" d="M58.1,36c1-2.9,8,0.4,8.9,2.9C64.9,39.5,58.3,37.3,58.1,36z"></path><path class="st4" d="M58.5,35.9c2-0.8,5.3,0.3,8.1,2.4C63.8,38,60,36.6,58.5,35.9z"></path><path class="st14" d="M73,24.8c-0.3-0.5,0.2-3.5,2.4-4c2.4-0.7,2.9-0.3,3.2-0.3C80.8,21.1,74.3,29.3,73,24.8z"></path><path class="st3" d="M73.7,25.8c-1.7-1.6,2.8-5.5,4.9-5.3C78.3,22.2,74.7,26.1,73.7,25.8z"></path><path class="st4" d="M73.8,25.6c0.1-1.6,1.9-3.6,4.3-4.9C76.9,22.5,74.7,24.7,73.8,25.6z"></path><path class="st15" d="M71.6,35.5c0.3-0.9,5.4-4.7,8.6-4.1c3.2,0.7,2.9,1.7,3,2C84.1,35.9,69.6,41.8,71.6,35.5z"></path><path class="st3" d="M71.5,37.2c-0.8-3,10.4-5.6,11.7-3.8C80.7,35.5,72.6,38.1,71.5,37.2z"></path><path class="st4" d="M71.9,36.9c2-2,6.7-3.6,10.7-3.7C79.1,34.9,74.1,36.4,71.9,36.9z"></path><path class="st16" d="M53.6,61.6c0,0-0.8,8.1,4.2,32.1"></path><path class="st2" d="M47.8,61.7c0,0.8-3.3,5.1-6,5.3c-2.7,0.2-2.7-0.7-2.9-0.9C37.5,64.3,48,56.1,47.8,61.7z"></path><path class="st3" d="M47.5,60.3c1.3,2.3-7.2,7-8.6,5.8C40.4,63.9,46.4,59.8,47.5,60.3z"></path><path class="st4" d="M47.2,60.6c-1.1,2.1-4.6,4.5-7.9,5.5C41.9,64,45.6,61.6,47.2,60.6z"></path><line class="st17" x1="50.2" y1="54.4" x2="46" y2="60.4"></line><line class="st17" x1="51.2" y1="56.2" x2="49.3" y2="63.4"></line><path class="st17" d="M52.3,57.7c0.2,0.8,3.4,5.7,3.4,5.7"></path><line class="st17" x1="51.7" y1="56.7" x2="58.1" y2="59.9"></line><line class="st17" x1="51.1" y1="54.8" x2="60.3" y2="52.4"></line><path class="st6" d="M42.7,65.7c-0.4-0.7,0.1-6.1,2.4-7.7c2.2-1.6,2.7-0.8,3-0.7C50.2,58.1,45.5,70.5,42.7,65.7z"></path><path class="st3" d="M43.7,66.7c-2.3-1.2,2.4-9.7,4.3-9.4C48,60,44.9,66.6,43.7,66.7z"></path><path class="st7" d="M43.8,66.3c-0.1-2.4,1.6-6.2,3.8-8.8C46.6,60.7,44.7,64.6,43.8,66.3z"></path><path class="st2" d="M59.1,71.3c-0.8-0.1-5-3.6-5-6.3c-0.1-2.7,0.8-2.7,1.1-2.9C57,60.9,64.6,71.7,59.1,71.3z"></path><path class="st3" d="M60.5,71c-2.3,1.2-6.6-7.5-5.3-8.9C57.3,63.7,61.1,70,60.5,71z"></path><path class="st7" d="M60.2,70.7c-2.1-1.2-4.2-4.9-5.1-8.1C57.1,65.2,59.3,69,60.2,70.7z"></path><path class="st2" d="M57.7,51.7c0.3-0.7,5.1-3.4,7.7-2.5c2.6,0.9,2.2,1.7,2.3,2C68.2,53.4,55.4,56.8,57.7,51.7z"></path><path class="st3" d="M57.5,53.2c-0.3-2.6,9.3-3.7,10.2-2C65.4,52.7,58.3,54.1,57.5,53.2z"></path><path class="st4" d="M57.8,53c1.9-1.5,6-2.3,9.4-2C64.1,52,59.7,52.7,57.8,53z"></path><path class="st8" d="M58.3,46.6c0.2,0.7-1.5,5.9-4.1,7c-2.5,1-2.8,0.2-3.1,0C49.3,52.3,56.7,41.3,58.3,46.6z"></path><path class="st3" d="M57.6,45.4c2,1.7-4.6,8.9-6.4,8.2C51.9,51,56.4,45.3,57.6,45.4z"></path><path class="st7" d="M57.4,45.8c-0.4,2.4-3,5.7-5.7,7.7C53.4,50.6,56.1,47.2,57.4,45.8z"></path><path class="st9" d="M44.3,58.7c0,0.7-2.6,4.6-5.1,4.6s-2.5-0.9-2.7-1.1C35.1,60.3,44,53.5,44.3,58.7z"></path><path class="st3" d="M43.9,57.4c1.4,2.2-6,6.1-7.4,4.8C37.7,60.1,42.8,56.8,43.9,57.4z"></path><path class="st10" d="M43.6,57.7c-0.9,1.9-3.9,3.9-6.7,4.6C39,60.4,42.2,58.4,43.6,57.7z"></path><path class="st2" d="M62.9,66.6c-0.4,0.2-3.3-0.4-3.9-1.8c-0.6-1.4-0.1-1.7,0-1.8C59.7,61.7,65.8,65.1,62.9,66.6z"></path><path class="st3" d="M63.6,66c-0.9,1.3-5-1.9-4.6-3.1C60.5,63.1,63.7,65.2,63.6,66z"></path><path class="st4" d="M63.4,65.9c-1.3,0-3.2-1.3-4.3-2.7C60.7,64,62.6,65.3,63.4,65.9z"></path><path class="st2" d="M66.2,56.6C66,57.1,62.8,59,61,58.1c-1.8-0.9-1.5-1.5-1.6-1.7C59.1,54.7,67.8,52.7,66.2,56.6z"></path><path class="st3" d="M66.4,55.5c0.2,2.1-6.4,2.4-7,1C61,55.4,65.8,54.7,66.4,55.5z"></path><path class="st10" d="M66.1,55.6c-1.3,1.1-4.1,1.5-6.4,1.1C61.9,56,64.8,55.7,66.1,55.6z"></path><path class="st11" d="M67.1,61.9c-0.2-0.7-4.3-4.3-7.1-3.9c-2.7,0.4-2.5,1.3-2.6,1.5C56.5,61.6,68.5,67.3,67.1,61.9z"></path><path class="st3" d="M67.1,63.3c0.8-2.5-8.5-5.3-9.7-3.8C59.4,61.4,66.1,64.1,67.1,63.3z"></path><path class="st4" d="M66.8,63.1c-1.6-1.8-5.5-3.4-8.9-3.7C60.8,61,64.9,62.5,66.8,63.1z"></path><path class="st2" d="M49.6,54.8c-0.3,0.6-5,2.3-7.6,1.3c-2.6-0.7-2.2-1.2-2.3-1.4C39.2,53.3,52,49.7,49.6,54.8z"></path><path class="st3" d="M49.9,53.4c0.3,2.6-9.3,2.4-10.2,1.3C42,53.6,49.1,52.5,49.9,53.4z"></path><path class="st4" d="M49.5,53.6c-1.9,1.2-6,1.6-9.4,1.3C43.3,54.1,47.6,53.7,49.5,53.6z"></path><path class="st12" d="M54,68.3c0.5,0.6,1.4,6.1-0.3,7.7c-1.9,1.4-2.6,0.5-2.9,0.4C48.4,75.2,50.9,64.5,54,68.3z"></path><path class="st3" d="M53,67.5c2.3,0.8,0,9.5-2.1,8.9C50.3,73.7,51.9,67.7,53,67.5z"></path><path class="st10" d="M53,67.9c0.6,2.2-0.1,6-1.7,8.4C51.5,73.2,52.5,69.5,53,67.9z"></path><path class="st13" d="M54.6,59.5c0.3,0.6,0.1,6-1.8,7.9s-2.3,1.1-2.5,1C48.4,67.8,52,55,54.6,59.5z"></path><path class="st3" d="M53.7,58.6c2,1-1.8,9.9-3.5,9.8C50.2,65.7,52.6,58.9,53.7,58.6z"></path><path class="st4" d="M53.6,59c0.2,2.3-1.2,6.3-3,9.1C51.4,64.9,52.9,60.8,53.6,59z"></path><path class="st2" d="M58.2,55.2c0.1,0.7-1.2,3.7-3.7,3.6c-2.7,0.2-3.2-0.4-3.5-0.6C48.8,57.1,58,50,58.2,55.2z"></path><path class="st3" d="M57.7,53.9c1.4,2.2-4.5,5.1-6.7,4.3C51.8,56.6,56.7,53.4,57.7,53.9z"></path><path class="st4" d="M57.6,54.2c-0.5,1.7-3,3.3-5.9,4.1C53.4,56.6,56.3,54.9,57.6,54.2z"></path><path class="st14" d="M57.3,69.7c0.5,0.1,2.2,2,1.4,3.7c-0.8,2-1.3,2.1-1.5,2.2C55.5,76.9,53.5,68.2,57.3,69.7z"></path><path class="st3" d="M56.2,69.6c2-0.3,2.1,4.7,0.9,6C56.1,74.6,55.5,70.1,56.2,69.6z"></path><path class="st4" d="M56.3,69.8c1,0.9,1.4,3.2,1,5.4C56.7,73.5,56.4,70.9,56.3,69.8z"></path><path class="st15" d="M50.9,63.1c0.4,0.6,0.3,6.1-1.9,7.9c-2.1,1.7-2.6,1-2.9,0.9C44,71.2,47.8,58.5,50.9,63.1z"></path><path class="st3" d="M49.8,62.2c2.4,1.1-1.8,9.9-3.7,9.7C46.1,69.2,48.6,62.4,49.8,62.2z"></path><path class="st4" d="M49.8,62.6c0.3,2.4-1.2,6.3-3.2,9.1C47.3,68.4,49,64.3,49.8,62.6z"></path></g></svg>