<?xml version="1.0" encoding="utf-8"?>
<!-- Generator: Adobe Illustrator 23.1.1, SVG Export Plug-In . SVG Version: 6.00 Build 0)  -->
<svg version="1.1" id="Layer_1" xmlns="http://www.w3.org/2000/svg" xmlns:xlink="http://www.w3.org/1999/xlink" x="0px" y="0px"
	 viewBox="0 0 108 108" style="enable-background:new 0 0 108 108;" xml:space="preserve">
<style type="text/css">
	.st0{fill:none;stroke:#68923E;stroke-width:1.1869;stroke-linecap:round;stroke-miterlimit:10;}
	.st1{fill:none;stroke:#68923E;stroke-width:0.8902;stroke-linecap:round;stroke-miterlimit:10;}
	.st2{fill:none;stroke:#68923E;stroke-width:0.8022;stroke-linecap:round;stroke-miterlimit:10;}
	.st3{fill:none;stroke:#939D39;stroke-width:0.8902;stroke-linecap:round;stroke-miterlimit:10;}
	.st4{fill:none;stroke:#81973B;stroke-width:0.8902;stroke-linecap:round;stroke-miterlimit:10;}
	.st5{fill:none;stroke:#81973B;stroke-width:0.8022;stroke-linecap:round;stroke-miterlimit:10;}
	.st6{fill:none;stroke:#A8AB36;stroke-width:0.8022;stroke-linecap:round;stroke-miterlimit:10;}
	.st7{fill:#68923E;}
	.st8{fill:none;stroke:#93A53B;stroke-width:1.1869;stroke-linecap:round;stroke-miterlimit:10;}
	.st9{fill:none;stroke:#68923E;stroke-width:0.8216;stroke-linecap:round;stroke-miterlimit:10;}
	.st10{fill:none;stroke:#68923E;stroke-width:0.5477;stroke-linecap:round;stroke-miterlimit:10;}
	.st11{fill:none;stroke:#98A751;stroke-width:1.1869;stroke-linecap:round;stroke-miterlimit:10;}
	.st12{fill:none;stroke:#81973B;stroke-width:0.8216;stroke-linecap:round;stroke-miterlimit:10;}
	.st13{fill:none;stroke:#939D39;stroke-width:0.8216;stroke-linecap:round;stroke-miterlimit:10;}
	.st14{fill:none;stroke:#738537;stroke-width:0.5477;stroke-linecap:round;stroke-miterlimit:10;}
	.st15{fill:none;stroke:#A8AB36;stroke-width:0.5477;stroke-linecap:round;stroke-miterlimit:10;}
	.st16{fill:none;stroke:#738537;stroke-width:0.8216;stroke-linecap:round;stroke-miterlimit:10;}
</style>
<g>
	<g>
		<path class="st0" d="M54.06,91.11c0,0,6.91-22.56-3.04-39.8"/>
		<path class="st0" d="M54.49,91.08c0.47-0.6,4.86-13.67,4.95-15.69c0.09-2.02-0.47-10.18-0.67-11.11c-0.2-0.92-1.33-1.86-2.04-2.9
			c-0.71-1.04-3.24-2.39-3.61-2.66"/>
		<path class="st1" d="M59.14,73.98c0,0,3.23-4.87,4.57-6.53c1.34-1.66,2.09-2.64,2.09-2.64s2.22-1,2.85-0.17
			c0.62,0.83,2.12,1.81,2.12,1.81"/>
		<path class="st2" d="M60.39,71.1c0,0,0.79-2.49,0.22-4.9c-0.58-2.41-0.9-6.49-0.9-6.49"/>
		<path class="st2" d="M58.73,73.21c0,0-1.44-2.36-3.63-4.17c-2.19-1.81-4.89-3.52-5.71-4.04"/>
		<path class="st0" d="M53.87,89.18c0.12-0.44,0.89-10.27,0.26-13.68c-0.64-3.41-0.75-8.87-2.96-13.34c-2.21-4.47-3.2-7.79-3.9-8.61
			"/>
		<path class="st2" d="M55.02,77.32c0,0,1.32-5.45,2.03-6.34c1.5-1.87,2.08-7.01,1.71-6.68"/>
		<path class="st3" d="M30.54,57.65c0,0,4.09,4.64,6.84,4.91c2.75,0.27,3.97,0.26,6.21,0.49s2.76-0.67,4.2-0.68
			c1.44-0.01,3.61,0.3,3.61,0.3"/>
		<path class="st1" d="M34.45,56.84c0.37,0.12,2.94,5.16,4.4,5.56"/>
		<path class="st2" d="M32.48,57.53c0,0,2.61,3.99,4.32,4.56"/>
		<path class="st1" d="M31.21,60.41c0,0,3.53,2.45,4.9,2.58c1.37,0.13,4.53-0.18,4.53-0.18"/>
		<path class="st1" d="M34.86,63.66c0.52,0.31-0.28,1.22,4.14,1.32c4.43,0.09,4.87,0.28,5.51,0.17c0.64-0.11,0.39,0.48,1.29-0.08
			c0.9-0.56,2.51-1.37,2.51-1.37"/>
		<path class="st2" d="M46.77,64.51c0,0-3.17,2.28-3.55,3.09c-0.38,0.81-1.35,1.52-0.8,2.21c0.54,0.69,0.9,3.04,0.9,3.04"/>
		<path class="st2" d="M45.3,65.63c0,0-0.46,3.67-0.6,4.33c-0.14,0.66-0.7,2.13-0.7,2.13"/>
		<line class="st2" x1="43.67" y1="66.71" x2="39.59" y2="66.96"/>
		<path class="st2" d="M42,65.08c0,0-2.13,0.63-2.49,0.58c-0.36-0.04-3.97-0.2-3.97-0.2"/>
		<path class="st2" d="M42.71,62.73c-0.46-0.46-2.6-1.35-2.6-1.35"/>
		<line class="st2" x1="45.39" y1="62" x2="43.27" y2="61.7"/>
		<path class="st2" d="M47,62.47c-0.23-0.4-4.04-1.54-4.99-1.7"/>
		<path class="st2" d="M46.56,60.99c0.07-0.07-2.47-1.35-2.47-1.35"/>
		<path class="st2" d="M46.95,55.44c-0.55,0.39-5.2,2.04-5.82,3.01"/>
		<path class="st2" d="M46.21,55.12c-0.65,0.04-5.06,0.81-5.46,1.34"/>
		<path class="st2" d="M43.09,51.5c0.49,0.55,3.06,3.84,3.22,5.31s2.79,3.42,3.29,3.25"/>
		<path class="st2" d="M47.68,60.43c-0.26-0.7-1.94-2.31-2.25-2.77c-0.32-0.46-1.26-1.75-1.26-1.75"/>
		<path class="st3" d="M47.49,50.16c-0.16-0.21-8.01-1.68-9.05-2.19c-1.04-0.51-4.38-1.46-4.63-1.74s-3.58-2.01-4.09-2.13
			c-0.51-0.11-2.63-0.7-2.63-0.7"/>
		<path class="st2" d="M33.19,45.83c0,0-0.52,0.69-1.38,0.74c-0.86,0.05-3.22,0.19-3.22,0.19"/>
		<polyline class="st2" points="29.38,46.72 33.34,48.28 38.44,47.97 34.56,49.21 32.34,49.34 		"/>
		<path class="st2" d="M41.53,48.79c0,0-3.71,1.16-4.13-0.11"/>
		<path class="st2" d="M41.02,48.93c0,0-0.36,1.13-1.14,1.4"/>
		<path class="st1" d="M43.15,48.86c-0.13-0.14-3.12-2.34-3.29-2.58c-0.16-0.24-3.27-2.92-3.42-2.92c-0.14,0.01-1.48-1.28-1.48-1.28
			"/>
		<path class="st2" d="M38.59,41.34c0.2,0.49,3.05,6.04,3.05,6.04"/>
		<line class="st2" x1="31.24" y1="41.79" x2="37.34" y2="47.53"/>
		<line class="st2" x1="37.62" y1="46.22" x2="39.31" y2="46.12"/>
		<path class="st2" d="M46.18,48.84c-0.23-0.31-3.7-1.9-3.7-1.9"/>
		<path class="st2" d="M45.49,45.42c-0.69-0.56-2.32-1.26-3.49-1.69"/>
		<path class="st4" d="M25.26,34.38c0,0,0.52,0.26,2.23,1.16c1.71,0.9,5.15,1.92,5.74,0.95c0.59-0.97,2.26,0.51,4.13,1.12
			c1.87,0.61,4.17,4.14,4.55,4.54c0,0,1.7,1.65,2.09,2.41c0.4,0.75,3.01,4.68,3.01,4.68s2.34,4.19,2.26,5.27"/>
		<path class="st2" d="M32.19,29.22c0,0,0.95,3.54,1.42,4.23c0.47,0.69,0.79,2.85,0.79,2.85"/>
		<path class="st2" d="M33.7,34.81c-0.09-0.28-1.87-2.4-2.78-3.21c-0.91-0.81-2.55-1.72-2.55-1.72"/>
		<path class="st2" d="M33.22,36.49c0.1-0.73-4.05-2.76-5.45-3.4c-1.41-0.64-3.1-1.4-3.1-1.4"/>
		<path class="st2" d="M32.25,36.88c0,0-1.65,1.42-2.88,1.28s-2.63-0.63-2.63-0.63"/>
		<path class="st2" d="M33.85,37.35c0,0,1.5,0.95,2.06,0.78s1.44-0.52,1.44-0.52"/>
		<path class="st2" d="M34.53,29.51c0.16,0.21,4.39,5.78,4.5,6.63c0.12,0.86,0.17,2.74,0.17,2.74"/>
		<path class="st2" d="M34.01,29.83c0,0,0.93,3.61,1.36,3.87c0.43,0.26,1.34,3.48,1.34,3.48"/>
		<path class="st2" d="M29.58,33.33c0.05,1.72-1.6-1.25-1.92-2.11"/>
		<path class="st2" d="M37.84,28.88c0,0,0.68,3.36,0.65,3.57c-0.03,0.21,0.04,2.7,0.04,2.7"/>
		<path class="st3" d="M39.16,30.02c0,0,2.02,2.4,2.28,4.32s0.82,5.34,0.35,5.8c-0.48,0.46-0.94,1.06-0.94,1.06
			s-1.18-0.07-2.69-0.27c-1.51-0.2-2.96-0.4-2.96-0.4"/>
		<path class="st2" d="M34.64,29.18c0,0,1.15,1.23,1.3,1.29c0.15,0.06,1.56,1.99,1.85,2.32c0.3,0.33,1.9,1.99,1.9,1.99
			s0.48,2.69,0.46,2.94c-0.02,0.25,0.8,1.86,0.74,2.22c0,0,1.25,4.7,2.42,7.1c1.18,2.39,3.45,4.17,3.45,4.17s3.28,2.62,2.9,4.71
			c-0.39,2.09-0.59,5.22-0.59,5.22s2.8,0.87,3.7,1.45c0.9,0.58,1.46,0.16,2.23,1.43c0.77,1.27,2.09,1.89,2.09,1.89"/>
		<line class="st2" x1="33.23" y1="31.67" x2="30.52" y2="29.75"/>
		<path class="st2" d="M41.9,31.79c0,0,1.94,6.8,2.54,7.77c0.6,0.97,3.79,6.17,3.81,6.57c0.02,0.39-0.49,1.43,0.2,3.33
			c0.69,1.9,0.92,2.25,1.22,3.02"/>
		<path class="st1" d="M50.09,51.08c0.45-0.53,2.6-5.41,2.9-7.58c0.3-2.18,0.93-4.87,0.92-5.09c-0.01-0.21-0.71-2.19-1.15-3.56"/>
		<path class="st2" d="M52.14,35.68c0,0-0.8,3.1-0.76,3.81c0.04,0.72,0.09,2.76-0.29,3.49c-0.39,0.72-0.42,1.63-0.68,3.17
			s0.22,2.27,0.19,3.17c-0.03,0.9,0,2.3,0,2.3"/>
		<path class="st1" d="M62.05,43.47c0.01,0.13-2.24,4.51-2.35,5.66c-0.12,1.16-1.19,3.92-1.44,4.35c-0.25,0.43-1.27,1.42-2.24,2.74
			c-0.96,1.32-2.16,1.82-2.16,1.82"/>
		<path class="st5" d="M47.4,31.91c0.66,0.17,1.94,3.61,1.39,5.8c-0.55,2.19,0.01,1.94-0.83,3.43c-0.85,1.49-1.3,2.31-1.27,2.74"/>
		<path class="st2" d="M45.17,32.04c-0.09,0.72-0.65,3.43-0.93,4.12s-1.09,2.83-1.07,3.18s-0.12,1.23-0.12,1.23"/>
		<path class="st2" d="M41.78,40.14c0,0,2.64,1.71,3.59,3.38c0.95,1.67,0.93,3.68,1.56,4.58c0.63,0.9,2.36,4.49,2.24,4.97
			c-0.12,0.48,1.72,3.46,1.72,3.46"/>
		<line class="st2" x1="47.46" y1="58.08" x2="51.14" y2="60.72"/>
		<path class="st2" d="M51.47,58.83c0,0-2.31,1.07-3.34,1.78c-1.04,0.71-1.97,1.39-1.97,1.39"/>
		<path class="st2" d="M58.2,64.32c0,0-2.74-1.9-4.77-1.78s-4.22,1.18-4.4,1.4c-0.18,0.22-1.09,0.77-1.09,0.77"/>
		<line class="st2" x1="48.39" y1="65.13" x2="50.11" y2="68.37"/>
		<polyline class="st2" points="53.53,69.74 51.32,71.64 52.38,73.95 		"/>
		<line class="st2" x1="52.9" y1="69.97" x2="48.73" y2="70.65"/>
		<path class="st2" d="M53.46,66.8c0,0-3.97,2.17-4.86,1.81c-0.88-0.35-1.55-1.1-1.55-1.1"/>
		<path class="st2" d="M52.4,68.39c-0.68-0.37-5.14-1.89-5.14-1.89"/>
		<path class="st2" d="M61.03,66.04c1.55-0.61,2.64-0.28,2.57-1.52"/>
		<path class="st2" d="M64.05,64.59c-0.03-1.75,0.98-1.7,1.42-2.68c0.44-0.98,1.86-2.56,1.67-3.24"/>
		<path class="st2" d="M65.75,64.09c2.27-0.14,4.09-1.06,4.3,0.05"/>
		<path class="st2" d="M66.15,65.05c0,0,1.49-0.61,2.2,0.55"/>
		<path class="st2" d="M64.52,63.02c-0.05-0.86,0.06-2.6,0.06-2.6l0.25-3.04"/>
		<path class="st2" d="M60.72,60.87"/>
		<path class="st2" d="M61.13,58.14"/>
		<path class="st2" d="M60.3,59.08c0.64-1.37,1.24-2.65,1.24-2.65l0.75-0.69"/>
		<path class="st2" d="M57.78,45.55c0.75,0.35,1.74,4.53,1.6,4.97"/>
		<path class="st2" d="M59.74,49.78c1.12-1,1.75-1.25,2.86-1.93c1.11-0.68,2.03-1.46,2.06-1.85"/>
		<path class="st2" d="M63.61,44.33c-0.18,0.56-0.03,1.88-1.07,2.46c-1.04,0.58-2.3,1.21-2.3,1.21"/>
		<path class="st2" d="M62.7,49.6c-1.31,0.87-1.95,0.98-2.57,1.45s-0.91,0.56-0.91,0.56"/>
		<path class="st2" d="M60.74,52.74c-0.75,0.69-1.71,2.71-2.63,4.16s-1.87,2.07-1.87,3.02c0,0.95,0.58,2.99,0.86,2.97"/>
		<path class="st2" d="M54.49,48.12c0.25,0.59,1.26,3.12,0.73,4.95c-0.53,1.83-0.16,2.13-0.81,3.14s-3.16,3.75-3.16,3.75"/>
		<path class="st6" d="M54.08,47.3c-0.17,0.82-1.24,2.18-0.65,3.58c0.59,1.4,0.42,1.92,0.53,2.7s0.44,2.63,0.44,2.63"/>
		<path class="st2" d="M56.05,51.3c0.12,0.78,0.48,2.52,0.22,3.73c-0.25,1.2-0.43,1.91-0.55,2.56c-0.12,0.64-0.28,5.87-0.28,5.87
			l-1.55,2.22"/>
		<path class="st2" d="M57.33,49.92c0,0-0.55,4.49-0.32,5.05c0.23,0.56,1.08,0.67,0.09,1.98c-0.99,1.31-1.06,2.05-0.42,2.25
			c0.64,0.2,1.21,2.71,0.92,3.64"/>
		<path class="st2" d="M60.89,55.25c-1.02,1-0.21,0.91-2.35,1.89c-2.14,0.98-2.9,2.14-2.9,2.14l-2.92,2.29
			c-0.09-0.28-0.79-2.25-1.68-2.81c-0.89-0.56-3.14-2.04-3.14-2.04c-0.03-0.47-1-1.92-1.67-3.1c-0.67-1.18-2.06-1.89-2.06-1.89"/>
		<path class="st2" d="M60.68,51.81c-0.76,0.48-1.56,0.63-2.42,1.67c-0.86,1.05-2.16,2.74-2.59,3.18c-0.43,0.44-3.15,2.88-3.42,1.55
			c-0.19-0.96,0.31,1.12,0.09,2.43"/>
		<path class="st2" d="M52.46,36.79c0.1,0.69-0.39,3.38-0.42,4.03c-0.03,0.65,0.22,1.25,0.13,2.1s-0.71,1.82-0.98,2.49
			s-0.4,2.15-0.37,2.66c0.03,0.52-0.27,1.83-0.23,2.98s0.16,2.08,0.32,3.36s0.89,1.58,1.01,3.12"/>
		<path class="st2" d="M58.06,39.17c0,0-0.81,2.17-2.89,2.91c-2.08,0.74-2.48,0.58-2.33,1c0.15,0.42-0.51,0.22-0.97,1.63
			c-0.45,1.41,0.08,2.53-0.09,3.58c-0.17,1.05,0.33,2.42-1.19,3.34c-1.52,0.92-1.7,0.58-1.42,1.45"/>
		<path class="st2" d="M49.79,38.25c0.01,0.19,0.88,2.66,0.66,3.75s-0.79,1.75-0.74,2.84c0.04,1.09,0.23,2.52,0.66,3.06
			c0.43,0.54,0.61,1.5,0.27,2.17s-1.54,1.07-1.47,1.22"/>
		<path class="st2" d="M47.12,37.46c0,0,1.2,2.43,1.32,3.29c0.12,0.86,0.91,1.59-0.1,2.59c-1.01,1.01-0.7,0.45-1.57,1.99
			c-0.86,1.55-0.86,1.55-0.86,1.55"/>
		<path class="st2" d="M42.93,31.09c0,0,3.25,4.42,3.92,4.91s1.79,0.61,0.58,1.67c-1.21,1.06-2.18,2.1-2.12,2.77
			s0.48,2.13,0.48,2.13l0.87,2.45"/>
		<path class="st1" d="M46.84,32.81c0,0,0.4,1.82,0.06,3.75c-0.34,1.93-0.95,2.12-1.26,3c-0.31,0.87-0.29,3.46-0.29,3.46l-0.25,1.47
			"/>
		<path class="st2" d="M55.35,36.97c-0.13,0.5,0.56,1.39-0.95,2.42c-1.52,1.03-3.26,2.1-3.18,2.51c0.08,0.4-0.51,3-1.73,3.61
			c-1.22,0.61-2.13,2.2-2.13,2.2c-0.45-0.39-3.54-1.86-3.54-1.86l-1.42-0.57"/>
		<path class="st6" d="M55.83,38.29c0.4,0.55,0.39,1.7-0.74,2.7c-1.12,1-2.27,1.04-2.94,1.92c-0.66,0.88-1.58,2.81-2.28,3.57
			c-0.7,0.76-1.43,2.96-1.43,2.96l-0.07,0.36"/>
		<path class="st2" d="M56.25,42.04c-1.14,0.82-0.83,1.31-2.05,1.38c-1.22,0.07-0.95,0.19-2.45,0.76c-1.49,0.57-2.28,1.32-2.28,1.32
			"/>
		<path class="st2" d="M52.47,48.4c-0.08,0.6-0.32,2.63,0.26,3.89c0.58,1.26,0.92,2.17,1.03,3.96c0.11,1.79-0.03,2.68-0.34,3.16"/>
		<path class="st2" d="M62.77,60.31c-1.31-0.21-2.69-0.42-3.71,0.44c-1.03,0.85-1.01,1.02-2.3,1.59s-1.77,1.77-2.13,2.28
			c-0.36,0.51-1.88,1.91-1.88,1.91"/>
		<path class="st2" d="M59.6,64.79c0.84-1.54,0.96-2.77,1.64-3.69c0.68-0.92,0.85-0.27,1.28-1.51c0.43-1.24-0.48-0.83,0.7-1.47"/>
		<path class="st2" d="M62.39,57.6c-1.03,0.85-0.66,1.54-2.39,1.83s-2.39-0.27-2.68,0.48c-0.29,0.75-0.17,0.86-0.87,1.99
			c-0.7,1.13-0.92,2.47-1.31,3.16s-0.78,0.06-0.8,1.01"/>
		<path class="st2" d="M63.28,59.23c-0.53,0.78,0.19,0.75,0.08,1.25c-0.11,0.5-0.2,0.31-0.74,0.9c-0.54,0.6-0.64,0.05-1.33,0.68
			s-1.71,4.59-1.96,3.28c-0.41-2.15-0.11-1.66-1.36-4.75c-1.26-3.09-1.06-3.68-3.15-6c-2.09-2.32-1.67-3.89-3.08-5.66
			c-1.41-1.77-3.61-2.2-4.04-3.34s-3.19-2.3-3.11-3.7c0.03-0.59,0.38-2.68,0.91-4.71c0.53-2.02,2.17-3.25,2.51-3.69"/>
		<path class="st2" d="M66.18,58.31c-0.4,0.67-0.01,1.08-1.16,2.3c-1.15,1.22-2.08,1.36-2.3,2.41s-1.14,1.44-1.48,1.65
			c-1.36,0.84,1.3-1.18,1.45-2.12"/>
		<path class="st2" d="M60.02,64.92c-0.74,0.78-0.64,1.06-1.32,1.89c-0.68,0.84-1.49,1.13-1.49,1.13s0.34-1.72-1.95-0.93
			c-2.29,0.79-2.67,0.97-2.87,1.37c-0.19,0.4-0.74,0.86-0.74,0.86"/>
		<path class="st2" d="M41.94,64.19c0.56-0.07,3.63-0.86,4.62-1.01c0.99-0.15,2.01-1.18,3.04-1.64s3.97-1.74,4.24-1.73
			s2-0.13,2-0.13"/>
		<path class="st2" d="M54.17,48.8c-0.07,0.09,0.63,2.77,0.24,3.96c-0.39,1.18-0.42,3.12-0.65,3.49c-0.24,0.37-1.51,1.96-1.51,1.96"
			/>
		<path class="st2" d="M44.77,38.96c0,0,3.28,4.56,2.93,6.66c-0.35,2.09-0.67,3.65-0.21,4.54s1.75,2.84,2.24,3.24
			c0.49,0.4,2.12,0.02,1.36,1.79c-0.75,1.77-2.05,1.92-1.17,3.6s1.73,0.81,2.25,3.48c0.52,2.67,1.36,2.11,1.72,3.41
			c0.37,1.29,1.68,1.7,1.44,2.53c-0.24,0.83,0.16,2.03,0.16,2.03"/>
		<path class="st2" d="M58.26,65.41c0.67-2.07,1.22-3.41,0.4-5.15s-1.45-2.56-1.74-3.84s-0.35-1.68-1.43-2.67s-1.12-1.49-1.67-2.61
			c-0.56-1.12-1.3-2.24-1.3-2.24"/>
		<path class="st2" d="M47.93,36.08c-0.03,0.59-1.5,2.42-1.51,3.36c-0.02,0.94-0.37,1.42,0.06,2.27c0.43,0.84,2.24,2.75,2.13,3.2
			c-0.11,0.45-0.51,2.53-0.51,2.69"/>
		<path class="st2" d="M52.63,37.58c0.02,1.48-0.18,3.55-0.47,5.34c-0.29,1.78-0.67,3.07-1.25,3.67c-0.58,0.6-1.41,1.4-1.69,2.08"/>
		<path class="st2" d="M39.86,35.06c1.12,1.32,1.3,1.92,2.6,3.8c1.3,1.88,0.98,2.48,1.44,3.53c0.46,1.05,1.26,2.66,2.15,4.19
			s2.72,3.86,2.72,3.86"/>
		<path class="st2" d="M45.31,64.17c1.28-0.37,1.89-0.14,3.43-1.12c1.55-0.98,1.4-1.58,2.57-1.83c1.17-0.25,1.83,0.03,2.22,0.08
			s1.96,0.38,2.44,0.49"/>
		<path class="st2" d="M43.94,47.84c1.32,1.09,2.64,2.73,3.71,5.04c1.07,2.31,1.49,3.89,2.89,5.44c1.4,1.54,1.99,2.18,2.51,4.81
			c0.52,2.63,0.34,4.23,0.34,4.7c0,0.46-0.36,1.35-0.36,1.35"/>
		<path class="st2" d="M42.7,36.82c0.23,0.89,3.35,6.43,6.18,9.73c2.83,3.3,4.13,3.66,3.27,5.77c-0.86,2.11-1.16,1.18-1.14,3.81
			s1.02,4.66,0.7,6.74s0.16,0.57-0.12,2.95"/>
		<path class="st2" d="M51.32,63.63c-0.93,0.67,2.14,3.18,2.14,3.18s-0.77,2.48,0.56,2.66c1.33,0.18,1.32,0.87,2.78-0.17
			c1.02-0.72-6.42-5.01-6.42-5.01"/>
		<path class="st7" d="M43.79,40.53c-0.74,0.04-0.62,1.91-0.62,1.91l1.5,3.03"/>
	</g>
	<g>
		<path class="st0" d="M53.06,92.01c0.58-0.61,0.34-23.16,4.38-42.18"/>
		<path class="st8" d="M52.63,92c0.15-0.81-1.21-14.35-1.54-16.19c0.28-2.08,0.87-10.28,0.85-11.19c0.14-0.94,1.19-2.1,1.78-3.29
			c0.6-1.17,2.9-3.2,3.23-3.58"/>
		<path class="st9" d="M51.51,74.32c0.04-0.03-2.96-4.44-4.37-5.78c-1.35-1.38-2.15-2.16-2.15-2.17c0,0-2.24-0.57-2.81,0.26
			c-0.57,0.84-2.02,1.9-2.02,1.9"/>
		<path class="st10" d="M50.41,71.6c0-0.01-0.7-2.35-0.22-4.78c0.53-2.46,0.39-6.42,0.36-6.41"/>
		<path class="st10" d="M51.98,73.48c0.01,0,1.6-2.58,3.8-4.88c2.22-2.28,4.82-4.76,5.61-5.54"/>
		<path class="st11" d="M53.91,89.88c0.24-0.52,1.87-11.08,2.56-14.72c1.02-3.74,1.21-9.4,2.87-14.54c1.71-5.19,1.83-8.9,2.31-9.97"
			/>
		<path class="st10" d="M55.35,77.21c0.06-0.03-0.8-5.52-1.57-6.27c-1.39-1.68-2.18-6.6-1.84-6.34"/>
		<path class="st9" d="M79.02,48.06c0.07,0.03-3.01,7.17-5.82,8.45c-2.72,1.33-3.95,1.74-6.17,2.73c-2.23,0.97-2.85,0.17-4.29,0.6
			c-1.44,0.43-3.57,1.36-3.58,1.35"/>
		<path class="st9" d="M74.99,48.91c-0.25,0.31-1.8,7.01-3.28,7.97"/>
		<path class="st10" d="M77.09,48.81c0.05,0.01-1.7,5.67-3.37,6.95"/>
		<path class="st12" d="M78.98,51.54c0.02,0.02-3.06,4.33-4.45,4.98c-1.36,0.69-4.57,1.47-4.57,1.47"/>
		<path class="st9" d="M75.89,56.8c-0.48,0.54,0.45,1.34-4.02,3.02c-4.47,1.62-4.9,1.9-5.55,1.99c-0.66,0.08-0.35,0.64-1.31,0.31
			c-0.95-0.33-2.65-0.72-2.65-0.72"/>
		<path class="st10" d="M63.98,61.81c0-0.01,3.39,1.5,3.81,2.3c0.43,0.79,1.44,1.29,0.89,2.22C68.15,67.26,67.74,70,67.73,70"/>
		<path class="st10" d="M65.56,62.57c0.03-0.01,0.67,3.86,0.79,4.57c0.16,0.68,0.71,2.18,0.7,2.18"/>
		<path class="st10" d="M67.28,63.26c1.39-0.32,2.78-0.66,4.17-1.01"/>
		<path class="st10" d="M68.85,60.94c0,0,2.21,0,2.57-0.18c0.36-0.15,4-1.61,4-1.63"/>
		<path class="st10" d="M67.87,58.6c0.41-0.64,2.42-2.38,2.41-2.38"/>
		<path class="st10" d="M65.09,58.72c0.7-0.34,1.39-0.68,2.09-1.03"/>
		<path class="st10" d="M63.54,59.71c0.19-0.47,3.84-2.93,4.75-3.47"/>
		<path class="st10" d="M63.79,58.02c-0.07-0.04,2.26-2.24,2.25-2.26"/>
		<path class="st10" d="M62.41,52.43c0.62,0.21,5.55,0.18,6.36,0.98"/>
		<path class="st10" d="M63.06,51.85c0.64-0.18,5.15-1.09,5.66-0.7"/>
		<path class="st10" d="M65.16,46.94c-0.28,0.78-1.94,5.12-1.84,6.66c0.15,1.58-2.17,4.45-2.69,4.41"/>
		<path class="st10" d="M62.6,57.8c0.16-0.8,1.55-3.04,1.76-3.63c0.23-0.58,0.88-2.27,0.88-2.27"/>
		<path class="st9" d="M60.53,47.39c0.12-0.17,7.17-5,7.93-6.11c0.81-1,3.58-3.67,3.68-4.09c0.13-0.39,2.46-4.02,2.86-4.45
			c0.42-0.4,2.06-2.26,2.06-2.26"/>
		<path class="st10" d="M72.56,36.43c0,0,0.76,0.45,1.58,0.05c0.82-0.4,3.07-1.54,3.07-1.55"/>
		<path class="st10" d="M76.46,35.32c-1,1.29-2.03,2.54-3.07,3.76c-1.64,0.76-3.28,1.49-4.92,2.19c1.37-0.19,2.74-0.39,4.11-0.59
			c0.72-0.32,1.43-0.64,2.15-0.97"/>
		<path class="st10" d="M65.81,43.53c0,0,3.93-0.49,3.88-2.02"/>
		<path class="st10" d="M66.34,43.44c0,0,0.71,0.99,1.54,0.91"/>
		<path class="st9" d="M64.29,44.31c0.1-0.17,2.17-3.74,2.22-4.07c0.1-0.29,1.9-4.54,2.01-4.63c0.14-0.06,0.79-2.06,0.79-2.06"/>
		<path class="st10" d="M65.66,34.73c0.13,0.59-0.36,7.44-0.44,7.44"/>
		<path class="st10" d="M72.55,31.17c-0.92,3.12-1.99,6.16-3.2,9.12"/>
		<path class="st10" d="M68.59,39.09c-0.54,0.24-1.08,0.48-1.62,0.72"/>
		<path class="st10" d="M61.38,45.57c0.13-0.38,2.9-3.45,2.89-3.47"/>
		<path class="st10" d="M60.89,41.98c0.45-0.84,1.71-2.24,2.63-3.23"/>
		<path class="st13" d="M73.72,19.98c0,0-0.27,0.61-1.19,2.6c-0.92,2.01-3.4,5.06-4.44,4.45c-1.04-0.59-1.7,1.83-3.08,3.43
			c-1.32,1.62-1.83,6.13-2.05,6.71c0.01,0.01-0.89,2.4-0.99,3.3c-0.04,0.92-1.21,5.83-1.26,5.82c0.04,0.01-1.06,4.99-0.79,6.03"/>
		<path class="st10" d="M64.71,19.56c0.03-0.01,1.4,3.86,1.35,4.8c0,0.93,0.9,3.17,0.89,3.17"/>
		<path class="st10" d="M66.76,25.71c-0.06-0.32,0.25-3.41,0.5-4.76c0.28-1.34,1.03-3.27,1.03-3.28"/>
		<path class="st10" d="M68.09,27.04c-0.45-0.62,1.98-5.11,2.72-6.69c0.79-1.54,1.69-3.44,1.69-3.44"/>
		<path class="st10" d="M69.16,26.84c0-0.01,2.21,0.43,3.21-0.46c1.01-0.89,1.94-2.26,1.94-2.27"/>
		<path class="st10" d="M68,28.24c0.01,0-0.83,1.79-1.43,1.93c-0.59,0.14-1.55,0.31-1.55,0.31"/>
		<path class="st10" d="M62.94,21.31c0.1,0.31-0.38,7.88-0.16,8.71c0.34,0.85,1.21,2.66,1.2,2.66"/>
		<path class="st10" d="M63.57,21.27c0.03-0.01,1.37,3.88,1.11,4.39c-0.2,0.49,0.71,4.04,0.68,4.05"/>
		<path class="st10" d="M69.43,21.75c0.99,1.7,0.62-2.24,0.3-3.28"/>
		<path class="st10" d="M59.77,22.79c0.02-0.01,1.39,3.37,1.52,3.55c0.16,0.16,1.43,2.48,1.42,2.49"/>
		<path class="st9" d="M59.33,24.58c0.01,0.01-0.35,3.26,0.4,5.12c0.8,1.86,1.86,5.32,2.48,5.52c0.64,0.19,1.33,0.53,1.33,0.53
			c0,0,1.05-0.66,2.34-1.64c1.29-0.98,2.5-1.98,2.5-1.98"/>
		<path class="st10" d="M62.65,21.08c0.01,0-0.22,1.82-0.31,1.96c-0.08,0.15-0.17,2.73-0.25,3.2c-0.06,0.48-0.58,2.9-0.59,2.89
			c0.02-0.01,0.95,2.74,1.07,2.97c0.15,0.22,0.16,2.16,0.37,2.48c0.04-0.01,0.93,5.12,0.59,8.01c-0.27,2.89-2,5.56-2,5.55
			c0.02,0.03-2.46,3.8-1.68,5.73c0.83,1.95,1.48,5.09,1.47,5.1c0,0.01-2.68,1.72-3.53,2.53c-0.84,0.82-1.44,0.54-2.1,2
			c-0.67,1.46-1.98,2.36-1.97,2.35"/>
		<path class="st10" d="M65.35,22.48c0.38-1.16,0.75-2.33,1.09-3.51"/>
		<path class="st10" d="M57.95,27.69c0.1-0.03,1.8,7.08,1.56,8.29c-0.04,1.2-1.03,7.47-0.99,7.84c0.11,0.38,0.96,1.15,0.87,3.26
			c-0.11,2.1-0.26,2.52-0.35,3.39"/>
		<path class="st9" d="M58.28,49.27c-0.55-0.38-4.05-4.15-5.15-5.91c-1.05-1.83-2.74-3.86-2.82-4.04c-0.07-0.19-0.26-2.15-0.5-3.49"
			/>
		<path class="st10" d="M50.75,36.24c0.01-0.01,2.11,2.25,2.35,2.92c0.26,0.64,1.01,2.47,1.64,2.96c0.63,0.49,1,1.3,1.76,2.62
			c0.76,1.33,0.51,2.21,0.8,3.04c0.29,0.84,0.64,2.2,0.64,2.2"/>
		<path class="st9" d="M44.56,46.66c0.06,0.08,3.54,3.06,3.93,4.08c0.43,0.97,2.11,3.15,2.44,3.48c0.34,0.32,1.54,0.94,2.73,1.92
			c1.18,0.98,2.44,1.14,2.44,1.13"/>
		<path class="st14" d="M53.18,30.76c-0.47,0.49,0.09,4,1.54,5.66c1.46,1.67,0.83,1.72,2.22,2.67c1.39,0.97,2.12,1.54,2.26,1.95"/>
		<path class="st14" d="M55.22,29.7c0.47,0.55,2.33,2.62,2.91,3.11c0.59,0.46,2.32,2,2.45,2.36c0.14,0.34,0.65,1.08,0.65,1.09"/>
		<path class="st10" d="M62.21,35.22c0.01,0.01-1.66,2.92-1.92,4.91c-0.24,2,0.46,3.92,0.14,5.05c-0.28,1.13-0.95,5.28-0.76,5.71
			c0.26,0.44-0.9,4-0.92,4"/>
		<path class="st10" d="M62.43,55.3c-1.06,1.31-2.14,2.6-3.24,3.84"/>
		<path class="st10" d="M58.59,57.35c0,0,2.46,0.37,3.59,0.78c1.13,0.41,2.15,0.84,2.15,0.84"/>
		<path class="st10" d="M52.51,64.52c0.01,0.01,2.59-2.47,4.61-2.9c2.03-0.41,4.34,0.06,4.55,0.24c0.2,0.18,1.16,0.5,1.16,0.5"/>
		<path class="st10" d="M62.4,62.93c-0.49,1.3-1.02,2.59-1.58,3.87"/>
		<path class="st10" d="M57.36,69c0.74,0.51,1.48,1.02,2.21,1.55c-0.38,0.89-0.78,1.78-1.19,2.67"/>
		<path class="st10" d="M58,69.11c1.41-0.05,2.82-0.12,4.24-0.2"/>
		<path class="st10" d="M57.38,65.96c0-0.01,4.08,1.33,4.97,0.74c0.89-0.6,1.54-1.59,1.54-1.59"/>
		<path class="st10" d="M58.5,67.36c0.69-0.5,5.14-3.26,5.14-3.29"/>
		<path class="st10" d="M49.77,66.75c-1.57-0.31-2.63,0.19-2.62-0.99"/>
		<path class="st10" d="M46.71,65.89c-0.07-1.64-1.08-1.42-1.59-2.24c-0.52-0.82-2.09-1.97-2-2.61"/>
		<path class="st10" d="M45,65.71c-2.25,0.24-4.08-0.35-4.23,0.67"/>
		<path class="st10" d="M44.65,66.66c0,0-1.5-0.34-2.15,0.82"/>
		<path class="st10" d="M46.14,64.51c-0.01-0.81-0.29-2.38-0.3-2.38c-0.19-0.91-0.4-1.81-0.64-2.7"/>
		<path class="st10" d="M43.64,60.18"/>
		<path class="st10" d="M42.63,58.05"/>
		<path class="st10" d="M49.9,59.96c-0.81-1.13-1.62-2.15-1.62-2.15c-0.28-0.15-0.57-0.3-0.85-0.44"/>
		<path class="st10" d="M49.28,46.96c-0.56,0.56-0.34,4.55-0.13,4.91"/>
		<path class="st10" d="M48.62,51.32c-1.34-0.54-2.02-0.56-3.27-0.81c-1.25-0.25-2.36-0.62-2.5-0.94"/>
		<path class="st10" d="M43.35,47.87c0.35,0.4,0.6,1.55,1.76,1.72c1.17,0.17,2.55,0.33,2.55,0.33"/>
		<path class="st10" d="M45.71,52.05c1.49,0.38,2.13,0.29,2.84,0.52c0.71,0.24,1.01,0.23,1.01,0.23"/>
		<path class="st10" d="M48.35,54.26c0.88,0.41,2.23,1.98,3.37,3.1c1.14,1.12,2.17,1.47,2.3,2.39c0.14,0.92-0.23,3.06-0.53,3.11"/>
		<path class="st15" d="M53.21,48.09c-0.05,0.63-0.33,3.28,0.59,4.83c0.93,1.56,0.61,1.97,1.45,2.74c0.85,0.76,3.75,2.74,3.74,2.75"
			/>
		<path class="st15" d="M53.35,47.19c0.41,0.68,1.84,1.55,1.64,3.08c-0.21,1.52,0.07,1.95,0.14,2.73c0.08,0.78,0.12,2.66,0.11,2.66"
			/>
		<path class="st10" d="M52.57,51.53c0.08,0.76,0.14,2.48,0.61,3.54c0.48,1.06,0.78,1.7,1,2.28c0.29,0.56,1.06,5.66,1.01,5.68
			c0.58,0.61,1.15,1.24,1.7,1.87"/>
		<path class="st10" d="M50.97,50.69c0.04-0.02,1.63,3.94,1.47,4.56c-0.11,0.6-0.93,0.93,0.28,1.89c1.2,0.97,1.37,1.68,0.76,2.04
			c-0.59,0.37-0.85,2.91-0.5,3.76"/>
		<path class="st10" d="M48.71,56.56c1.18,0.65,0.37,0.78,2.63,1.13c2.27,0.35,3.19,1.27,3.19,1.28c1.07,0.48,2.14,0.97,3.2,1.47
			c0.06-0.31,0.5-2.48,1.28-3.31c0.8-0.82,2.74-3.07,2.73-3.08c-0.06-0.48,0.59-2.29,0.95-3.74c0.36-1.44,1.5-2.71,1.5-2.71"/>
		<path class="st10" d="M48.2,53.41c0.85,0.21,1.66,0.11,2.73,0.82c1.07,0.71,2.66,1.93,3.16,2.23c0.5,0.28,3.59,1.9,3.64,0.51
			c0.03-1-0.1,1.2,0.27,2.45"/>
		<path class="st10" d="M50.96,37.32c0.23,0.61,1.79,2.71,2.07,3.28c0.28,0.56,0.28,1.19,0.68,1.91c0.4,0.72,1.32,1.35,1.8,1.85
			c0.49,0.5,1.08,1.83,1.21,2.33c0.13,0.5,0.81,1.62,1.08,2.74c0.26,1.12,0.38,2.06,0.52,3.37c0.12,1.31-0.53,1.84-0.37,3.4"/>
		<path class="st10" d="M46.76,41.65c0.01-0.01,1.59,1.48,3.8,1.32c2.22-0.18,2.54-0.49,2.55-0.05c0.01,0.44,0.57-0.02,1.49,1.07
			c0.92,1.1,0.76,2.35,1.24,3.26c0.48,0.92,0.37,2.39,2.08,2.73c1.71,0.34,1.8-0.05,1.75,0.9"/>
		<path class="st10" d="M54.04,37.35c0.08,0.18,0.31,2.73,0.92,3.61c0.62,0.89,1.4,1.25,1.74,2.27c0.35,1.02,0.63,2.44,0.38,3.12
			c-0.24,0.68-0.13,1.65,0.38,2.15c0.51,0.51,1.78,0.46,1.76,0.62"/>
		<path class="st10" d="M56.14,35.4c0.01,0-0.01,2.73,0.2,3.55c0.24,0.83-0.21,1.83,1.11,2.32c1.32,0.5,0.83,0.1,2.2,1.18
			c1.36,1.1,1.35,1.11,1.36,1.11"/>
		<path class="st14" d="M56.67,27.66c0.06,0.01-0.53,5.58-0.98,6.33c-0.38,0.77-1.34,1.4,0.24,1.75c1.58,0.35,2.93,0.84,3.15,1.49
			c0.23,0.64,0.43,2.2,0.43,2.2c0.05,0.9,0.09,1.79,0.12,2.69"/>
		<path class="st16" d="M54.15,31.23c0,0,0.58,1.74,1.78,3.27c1.2,1.53,1.82,1.43,2.5,2.07c0.68,0.64,1.71,3.06,1.7,3.07
			c0.27,0.42,0.53,0.85,0.8,1.28"/>
		<path class="st10" d="M48.38,38.73c0.33,0.36,0.06,1.38,1.88,1.62c1.82,0.24,3.87,0.45,3.94,0.84c0.09,0.38,1.59,2.48,2.95,2.56
			c1.37,0.06,2.76,1.19,2.76,1.2c0.32-0.54,2.73-3.3,2.72-3.32c0.38-0.4,0.75-0.8,1.13-1.21"/>
		<path class="st10" d="M48.48,40.03c-0.14,0.62,0.32,1.57,1.75,1.99c1.43,0.41,2.52-0.02,3.47,0.49c0.96,0.51,2.49,1.9,3.4,2.33
			c0.92,0.42,2.3,2.24,2.29,2.24c0.06,0.11,0.12,0.22,0.17,0.32"/>
		<path class="st10" d="M49.54,43.37c1.38,0.27,1.25,0.82,2.42,0.41c1.18-0.41,0.97-0.21,2.58-0.3c1.61-0.09,2.62,0.28,2.62,0.28"/>
		<path class="st10" d="M55.23,47.61c0.26,0.52,1.07,2.34,0.8,3.74c-0.26,1.4-0.39,2.37-0.15,4.14c0.23,1.77,0.48,2.61,0.86,2.99"/>
		<path class="st10" d="M47.61,61.66c1.26-0.47,2.6-0.98,3.72-0.41c1.11,0.58,1.11,0.75,2.45,1c1.35,0.25,1.93,1.33,2.31,1.76
			c0.4,0.43,2,1.5,2,1.51"/>
		<path class="st10" d="M51.14,65.27c-0.92-1.32-1.16-2.47-1.93-3.19c-0.78-0.71-0.86-0.07-1.43-1.13c-0.58-1.05,0.36-0.87-0.89-1.2
			"/>
		<path class="st10" d="M47.63,59.08c1.14,0.54,0.87,1.27,2.61,1.14c1.74-0.14,2.33-0.84,2.71-0.2c0.38,0.65,0.28,0.79,1.09,1.72
			c0.82,0.93,1.14,2.22,1.57,2.83c0.43,0.61,0.79-0.12,0.86,0.83"/>
		<path class="st14" d="M46.98,60.78c0.62,0.61-0.09,0.73,0.07,1.17c0.17,0.44,0.23,0.24,0.82,0.69c0.59,0.45,0.64-0.09,1.38,0.37
			c0.77,0.43,2.01,4.07,2.18,2.76c0.27-2.18,0.04-1.63,0.96-4.9c0.85-3.29,0.53-3.77,2.13-6.61c1.55-2.87,0.72-4.23,1.57-6.39
			c0.83-2.17,2.77-3.48,2.79-4.74c0.02-1.24,2.16-3.58,1.51-4.86c-0.27-0.54-1.46-2.33-2.89-3.87c-1.42-1.54-3.52-1.75-4.03-1.96"/>
		<path class="st10" d="M44.02,60.54c0.48,0.52,0.16,0.96,1.42,1.85c1.26,0.9,2.18,0.85,2.49,1.79c0.3,0.95,1.22,1.15,1.58,1.29
			c1.39,0.55-1.35-0.89-1.59-1.74"/>
		<path class="st10" d="M50.73,65.47c0.77,0.61,0.69,0.91,1.39,1.6c0.7,0.7,1.52,0.84,1.52,0.84c0.01,0-0.39-1.64,1.94-1.33
			c2.33,0.31,2.72,0.41,2.92,0.78c0.2,0.37,0.76,0.73,0.76,0.73"/>
		<path class="st10" d="M68.82,59.95c-0.58,0.11-3.75,0.25-4.75,0.38c-1.01,0.14-2.15-0.63-3.24-0.8c-1.09-0.18-4.19-0.61-4.45-0.52
			c-0.26,0.09-2,0.42-2,0.42"/>
		<path class="st15" d="M53.71,48.6c0.1,0.06,0.16,2.77,0.8,3.76c0.67,0.99,1.08,2.84,1.38,3.13c0.31,0.28,1.84,1.46,1.83,1.46"/>
		<path class="st10" d="M58.95,35.6c0.05,0.02-1.07,5.71-0.08,7.51c1.06,1.82,1.84,3.22,1.65,4.27c-0.18,1.06-0.92,3.45-1.31,4.01
			c-0.39,0.57-2.05,0.74-0.93,2.22c1.1,1.49,2.41,1.23,1.83,3.21c-0.62,1.98-1.56,1.34-1.76,4.18c-0.26,2.86-1.17,2.5-1.45,3.9
			c-0.3,1.41-1.62,2.11-1.36,2.9c0.26,0.8-0.17,2.11-0.17,2.11"/>
		<path class="st10" d="M52.51,65.6c-0.78-1.9-1.45-3.06-0.84-4.91c0.59-1.86,1.08-2.82,1.14-4.11c0.05-1.29,0.03-1.68,0.88-2.94
			c0.84-1.27,0.75-1.76,1.01-2.99c0.26-1.24,0.64-2.55,0.64-2.55"/>
		<path class="st14" d="M54.76,34.58c0.31,0.49,2.48,1.4,2.89,2.25c0.42,0.84,0.95,1.12,0.9,2.1c-0.04,0.98-1.03,3.53-0.78,3.9
			c0.27,0.37,1.35,2.16,1.39,2.32"/>
		<path class="st10" d="M51.14,38.06c0.62,1.26,1.64,2.97,2.56,4.45c0.92,1.47,1.7,2.51,2.45,2.83c0.75,0.32,1.8,0.75,2.27,1.3"/>
		<path class="st10" d="M61.49,29.49c-0.32,1.82-0.17,2.46-0.48,4.87c-0.33,2.4,0.19,2.8,0.21,4.01c0.01,1.21-0.13,3.11-0.45,4.96
			c-0.3,1.86-1.38,4.83-1.39,4.83"/>
		<path class="st10" d="M65.42,61c-1.32,0-1.91,0.41-3.56-0.16c-1.65-0.57-1.58-1.23-2.78-1.14c-1.2,0.08-1.82,0.55-2.2,0.7
			c-0.38,0.16-1.9,0.89-2.37,1.12"/>
		<path class="st10" d="M63.2,43.64c-0.89,1.65-1.63,3.8-2.09,6.48c-0.47,2.68-0.57,4.42-1.69,6.42c-1.15,1.98-1.61,2.77-1.86,5.57
			c-0.28,2.79-0.09,4.4-0.07,4.88c0.01,0.48,0.38,1.32,0.38,1.32"/>
		<path class="st10" d="M59.83,32.61c0.29,0.92-0.08,7.63-1.76,11.88c-1.64,4.25-2.85,4.98-1.47,6.71c1.33,1.74,1.44,0.74,1.96,3.32
			c0.5,2.61-0.22,4.95,0.31,6.98c0.51,2.05-0.1,0.62,0.35,3"/>
		<path class="st10" d="M59.33,62.16c1.01,0.45-1.93,3.82-1.95,3.8c0.01-0.01,0.84,2.4-0.52,2.87c-1.34,0.46-1.34,1.15-2.81,0.37
			c-0.97-0.43,6.32-6.48,6.27-6.6"/>
		<path class="st7" d="M60.54,36.57c0.7-0.32,1.38,1.49,1.38,1.49c-0.05,1.2-0.13,2.4-0.23,3.59"/>
	</g>
</g>
</svg>
