<?xml version="1.0" encoding="utf-8"?>
<!-- Generator: Adobe Illustrator 27.4.1, SVG Export Plug-In . SVG Version: 6.00 Build 0)  -->
<svg version="1.1" id="Layer_1" xmlns="http://www.w3.org/2000/svg" xmlns:xlink="http://www.w3.org/1999/xlink" x="0px" y="0px"
	 viewBox="0 0 108 108" style="enable-background:new 0 0 108 108;" xml:space="preserve">
<style type="text/css">
	.st0{fill:#73AA3A;}
	.st1{fill:none;stroke:#708430;stroke-width:1.1096;stroke-miterlimit:10;}
	.st2{fill:#A5C239;}
	.st3{fill:#558D45;}
	.st4{fill:#90BB3A;}
	.st5{fill:#91B73E;}
	.st6{fill:#A5BD39;}
	.st7{fill:#AFCB36;}
	.st8{fill:#A4C839;}
	.st9{fill:#4A772B;}
	.st10{fill:#708825;}
	.st11{fill:#6D8523;}
	.st12{fill:#809640;}
	.st13{fill:#618429;}
	.st14{fill:#544044;}
	.st15{fill:#DFA1C8;}
	.st16{fill:#CB8ABC;}
	.st17{fill:#E2B3D3;}
	.st18{fill:#F28FF9;}
	.st19{fill:#CB85B1;}
	.st20{fill:#D19BC6;}
	.st21{fill:#DD82B6;}
	.st22{fill:#CA6EA4;}
	.st23{fill:#CB92BE;}
	.st24{fill:#2B2F39;}
	.st25{fill:#FF8D01;}
	.st26{fill:#E884B6;}
	.st27{fill:#DE87B5;}
	.st28{fill:#F59FC4;}
	.st29{fill:#F7B5D2;}
	.st30{fill:#F38EB2;}
	.st31{fill:#ED89B4;}
</style>
<g>
	<path class="st0" d="M71.1,43.8c0,0,2.4-0.9,5.5,0.7c3.1,1.6,7.3,1.8,9-1.4c1.7-3.3,3.7-4.5,3.7-4.5s-0.2,0.5-2.8-1.1
		c-2.6-1.6-7.4-1.8-9.9,0.4S71.1,43.8,71.1,43.8z"/>
	<path class="st1" d="M62.8,54.1c0.1,2.7-0.5,7.5-1,10.9"/>
	<path class="st1" d="M70.1,57c-3.4,1.7-7.6,5.2-9.6,8.8"/>
	<path class="st1" d="M71.8,63.8c-4.1-1.6-7.6-3.6-10,0.6"/>
	<path class="st2" d="M56.7,49.4c-0.2,2.1-1.2,2.7,2.6,6.1c3.8,3.5,3.8,3.5,3.8,3.5s0.6-0.9,1.4-1.8c0.7-1,4-4.3,2.1-7.8
		s-3.3-5.3-3.9-5.8s-2.1-2.7-2.6-3.2"/>
	<path class="st3" d="M81.4,46.4c-2.5,1.3-6.3-0.7-9.3,1.7c-2.9,2.4-4.3,8-4.9,9.6c-0.6,1.6-1.9,1,1,0.9c2.9-0.2,3.2,0.8,5.7,0
		s5.7-4.9,5.8-6.5C79.8,50.4,81.4,46.4,81.4,46.4z"/>
	<path class="st4" d="M67.2,61.9c0.8-0.1,1.6-0.7,5.3-1.1s6.6-0.2,7.5,2.6s0,3.4,1.7,5.1c1.7,1.7,1.7,1.7,1.7,1.7s-3.2,0.3-7.6,0.6
		c-4.4,0.2-6.9-4.1-7.5-5.9C67.6,63,67.2,61.9,67.2,61.9z"/>
	<path class="st0" d="M65.2,62c0,0-1.6,2-5,2.3c-3.5,0.3-7.2,2.3-6.9,6c0.3,3.7-0.7,5.8-0.7,5.8s-0.1-0.5,2.9-0.5s7.2-2.4,8.2-5.5
		C64.6,67,65.2,62,65.2,62z"/>
	<path class="st5" d="M43.9,59c0,0,4.8,4.1,6.5,7.1c1.6,2.9,2.1,4.7,0.5,7c-1.6,2.3-2.1,4.1-2.1,4.1s-2.8-3.6-4.6-4.3
		c-1.7-0.7-3.8-3.7-3.1-5.6C41.9,65.4,43.9,59,43.9,59z"/>
	<path class="st4" d="M27.9,58c0.1-0.8-0.3-1.7,0.2-5.4c0.6-3.7,1.5-6.5,4.4-6.6s3.3,0.8,5.4-0.4c2.1-1.3,2.1-1.3,2.1-1.3
		s-0.4,3.2-1.3,7.5c-0.9,4.4-5.6,5.6-7.6,5.9S27.9,58,27.9,58z"/>
	<path class="st6" d="M41.1,76.5c-0.1,0-0.7-2.9-0.5-6.1c0.2-3.2,0.5-4.9,2.3-5.9c1.8-1,3.6-1.5,5.6-2.1c2-0.6,2.8-0.6,3.1-1.2
		s-0.8,0.8-0.5,4.4c0.3,3.6,0.9,5.5-0.5,6.7c-1.4,1.3-3.5,0.8-5.4,1.7C43.2,74.9,41.1,76.5,41.1,76.5z"/>
	<path class="st1" d="M39.3,45.7c2.1,1.7,5.2,5.4,7.4,8.1"/>
	<path class="st1" d="M46.3,42.2c-1,3.6-1.3,9.1,0,13"/>
	<path class="st1" d="M52.5,45.5c-4,2-7.7,3.2-6.3,7.8"/>
	<path class="st1" d="M48.6,62.8c0,5.3,0.9,11.1,3,14.7"/>
	<path class="st2" d="M31.7,47c1.5,1.6,1.1,2.7,6.3,2.2c5.1-0.5,5.1-0.5,5.1-0.5s-0.2-1.1-0.4-2.3c-0.2-1.2-0.5-5.9-4.3-6.8
		c-3.8-1-6.2-1.1-6.9-1c-0.8,0.1-3.4-0.2-4.1-0.2"/>
	<path class="st3" d="M46.1,26.7c-0.7,2.7-4.8,4.2-5,8s3,8.5,3.8,10.1c0.8,1.5-0.5,2.1,1.3-0.2s2.7-1.8,3.8-4.2
		c1.1-2.4,0.3-7.5-0.8-8.7C48,30.6,46.1,26.7,46.1,26.7z"/>
	<path class="st4" d="M48,47.7c0.5-0.6,0.5-1.7,2.7-4.6s4.3-5,7-3.8c2.6,1.2,2.5,2.3,5,2.2c2.4-0.1,2.4-0.1,2.4-0.1s-1.9,2.6-4.7,6
		c-2.8,3.4-7.6,2.3-9.5,1.6C49.1,48.2,48,47.7,48,47.7z"/>
	<path class="st0" d="M46.7,49.2c0,0,0.4,2.5-1.7,5.3c-2.1,2.8-3.1,6.9-0.2,9.1s3.8,4.5,3.8,4.5s-0.5-0.3,1.6-2.5
		c2.1-2.3,3.1-7,1.4-9.8C50,53,46.7,49.2,46.7,49.2z"/>
	<path class="st5" d="M30.1,62.9c0,0,6.3-0.8,9.6,0c3.3,0.8,4.9,1.6,5.5,4.4c0.6,2.7,1.6,4.3,1.6,4.3s-4.5-0.3-6.3,0.4
		c-1.7,0.8-5.3,0.3-6.2-1.5C33.5,68.7,30.1,62.9,30.1,62.9z"/>
	<path class="st6" d="M50.9,70.2c0,0,0.7-2.8,2.4-5.6s2.7-4.1,4.8-4.1c2,0,3.9,0.4,5.9,0.8s2.7,0.8,3.3,0.3c0.6-0.5-1.1,0.3-2.6,3.7
		c-1.5,3.3-1.8,5.3-3.6,5.7c-1.8,0.4-3.5-0.9-5.6-1C53.4,69.8,50.9,70.2,50.9,70.2z"/>
	<path class="st6" d="M41.1,76.8c0,0-2.6-1.4-4.9-3.7c-2.3-2.3-3.3-3.7-2.8-5.7s1.3-3.7,2.2-5.5c0.9-1.8,1.4-2.4,1.1-3.1
		c-0.3-0.7,0.1,1.1,2.9,3.4s4.7,3,4.7,4.9c0,1.9-1.7,3.1-2.3,5.1C41.4,74.2,41.1,76.8,41.1,76.8z"/>
	<path class="st1" d="M51.2,62.7c-3.6,4.2-10.7,8.9-12.1,10"/>
	<path class="st7" d="M68.6,71.1c0,0-2.5,0.1-5-2.4c-2.4-2.5-6.3-4.1-9-1.5c-2.7,2.6-5,3.1-5,3.1s0.3-0.4,2.3,1.9
		c1.9,2.4,6.4,4,9.5,2.8S68.6,71.1,68.6,71.1z"/>
	<path class="st5" d="M57.4,52.8c0,0-0.1,6.4-1.4,9.5c-1.2,3.1-2.3,4.7-5.1,4.9c-2.8,0.2-4.5,1-4.5,1s1-4.5,0.4-6.3
		c-0.5-1.8,0.4-5.3,2.4-5.9S57.4,52.8,57.4,52.8z"/>
	<path class="st1" d="M61.5,39.9c4.6,3,10.4,9.4,11.6,10.6"/>
	<path class="st0" d="M67.4,21.4c0,0,0.4,2.5-1.7,5.3s-3.1,6.9-0.2,9.1s3.8,4.5,3.8,4.5s-0.5-0.3,1.6-2.5s3.1-7,1.4-9.8
		S67.4,21.4,67.4,21.4z"/>
	<path class="st5" d="M50.8,35.1c0,0,6.3-0.8,9.6,0c3.3,0.8,4.9,1.6,5.5,4.4s1.6,4.3,1.6,4.3s-4.5-0.3-6.3,0.4
		c-1.7,0.8-5.3,0.3-6.2-1.5C54.1,40.9,50.8,35.1,50.8,35.1z"/>
	<path class="st1" d="M35.2,54.2c2.1-1.6,6.5-3.7,9.6-5.2"/>
	<path class="st1" d="M33.6,46.5c3.3,1.9,8.5,3.5,12.6,3.2"/>
	<path class="st1" d="M38.3,41.4c0.9,4.3,1.2,8.3,6,8"/>
	<path class="st1" d="M54.1,49.3c5.2,1.3,11,1.8,15,0.7"/>
	<path class="st1" d="M56.9,58.1c4-3.8,11.6-7.7,13.1-8.7"/>
	<path class="st1" d="M60.6,45.8c1.2,3.2,1.1,5.6,7.3,4.8"/>
	<path class="st4" d="M39.3,46.3c-0.5-0.6-1.5-0.9-3.8-3.8c-2.3-2.9-3.8-5.4-2-7.7c1.8-2.2,2.8-1.9,3.3-4.3s0.5-2.4,0.5-2.4
		s2,2.5,4.7,6s0.4,8-0.8,9.6C40,45.3,39.3,46.3,39.3,46.3z"/>
	<path class="st7" d="M40.5,47.9c0,0,2.5,0.2,4.7,2.9c2.2,2.8,5.9,4.7,8.8,2.4c2.9-2.3,5.3-2.6,5.3-2.6s-0.4,0.4-2.1-2.2
		s-6-4.7-9.1-3.8C44.9,45.6,40.5,47.9,40.5,47.9z"/>
	<path class="st0" d="M49.7,67.3c0,0,0.8-6.3,2.4-9.3c1.6-3,2.8-4.4,5.6-4.3c2.8,0.1,4.6-0.5,4.6-0.5s-1.4,4.3-1.1,6.2s-1,5.2-3,5.6
		C56.1,65.5,49.7,67.3,49.7,67.3z"/>
	<path class="st6" d="M61.8,49c0,0-2.6-1.4-4.9-3.7c-2.3-2.3-3.3-3.7-2.8-5.7c0.5-2,1.3-3.7,2.2-5.5c0.9-1.8,1.4-2.4,1.1-3.1
		c-0.3-0.7,0.1,1.1,2.9,3.4c2.9,2.3,4.7,3,4.7,4.9c0,1.9-1.7,3.1-2.3,5.1C62.1,46.4,61.8,49,61.8,49z"/>
	<path class="st7" d="M69.6,70.4c0,0,0.3-2.5,3.2-4.5s5-5.6,2.9-8.7c-2.1-3-2.3-5.4-2.3-5.4s0.4,0.4-2.3,1.9s-5,5.7-4.2,8.9
		C67.5,65.8,69.6,70.4,69.6,70.4z"/>
	<path class="st6" d="M71.7,49.1c0,0-1.5,2.5-3.9,4.7C65.4,56,64,56.9,62,56.4c-2-0.6-3.6-1.5-5.4-2.5c-1.8-1-2.3-1.6-3-1.3
		s1.1,0,3.5-2.8c2.4-2.7,3.2-4.5,5.1-4.4s3,1.9,5,2.6S71.7,49.1,71.7,49.1z"/>
	<path class="st1" d="M75.6,43.3c-5.3-0.8-11.2-0.7-15,0.9"/>
	<path class="st1" d="M71.8,34.9c-3.6,4.2-10.7,8.9-12.1,10"/>
	<path class="st1" d="M69.5,47.5c-1.5-3.1-1.7-5.5-7.8-4"/>
	<path class="st5" d="M78.1,25c0,0-0.1,6.4-1.4,9.5s-2.3,4.7-5.1,4.9c-2.8,0.2-4.5,1-4.5,1s1-4.5,0.4-6.3c-0.5-1.8,0.4-5.3,2.4-5.9
		C71.9,27.5,78.1,25,78.1,25z"/>
	<path class="st6" d="M68,44.5c0,0,2.7,1.1,5.2,3.2c2.5,2,3.7,3.3,3.4,5.3c-0.3,2-0.9,3.8-1.6,5.7c-0.7,1.9-1.2,2.5-0.8,3.2
		s-0.2-1.1-3.3-3.1s-5-2.5-5.1-4.3c-0.2-1.9,1.4-3.3,1.8-5.4S68,44.5,68,44.5z"/>
	<path class="st1" d="M61,56.7c2.1,1.7,5.2,5.4,7.4,8.1"/>
	<path class="st1" d="M68,53.2c-1,3.6-1.3,9.1,0,13"/>
	<path class="st2" d="M53.4,58c1.5,1.6,1.1,2.7,6.3,2.2s5.1-0.5,5.1-0.5s-0.2-1.1-0.4-2.3c-0.2-1.2-0.5-5.9-4.3-6.8
		c-3.8-1-6.2-1.1-6.9-1c-0.8,0.1-3.4-0.2-4.1-0.2"/>
	<path class="st3" d="M67.8,37.8c-0.7,2.7-4.8,4.2-5,8c-0.2,3.8,3,8.5,3.8,10.1c0.8,1.5-0.5,2.1,1.3-0.2c1.9-2.3,2.7-1.8,3.8-4.2
		s0.3-7.5-0.8-8.7C69.7,41.6,67.8,37.8,67.8,37.8z"/>
	<path class="st0" d="M68.4,60.3c0,0,0.4,2.5-1.7,5.3s-3.1,6.9-0.2,9.1c2.9,2.3,3.8,4.5,3.8,4.5s-0.5-0.3,1.6-2.5
		c2.1-2.3,3.1-7,1.4-9.8C71.7,64,68.4,60.3,68.4,60.3z"/>
	<path class="st4" d="M27.9,41.3c0.5-0.6,0.5-1.7,2.7-4.6c2.2-3,4.3-5,7-3.8c2.6,1.2,2.5,2.3,5,2.2C45,35,45,35,45,35
		s-1.9,2.6-4.7,6c-2.8,3.4-7.6,2.3-9.5,1.6C29,41.8,27.9,41.3,27.9,41.3z"/>
	<path class="st6" d="M30.8,63.8c0,0,0.7-2.8,2.4-5.6c1.7-2.8,2.7-4.1,4.8-4.1s3.9,0.4,5.9,0.8c2,0.4,2.7,0.8,3.3,0.3
		c0.6-0.5-1.1,0.3-2.6,3.7c-1.5,3.3-1.8,5.3-3.6,5.7c-1.8,0.4-3.5-0.9-5.6-1C33.4,63.5,30.8,63.8,30.8,63.8z"/>
	<path class="st1" d="M53.1,58c-2,1.8-6.1,4.3-9,6.2"/>
	<path class="st1" d="M55.5,65.4c-3.4-1.5-8.8-2.6-12.8-1.8"/>
	<path class="st1" d="M51.4,71c-1.4-4.2-2.1-8.1-6.8-7.3"/>
	<path class="st2" d="M52.9,50.3c-1.8,1.2-2.8,0.8-3.1,5.9c-0.2,5.1-0.2,5.1-0.2,5.1s1.1-0.1,2.3-0.1c1.2,0,5.9,0.3,7.4-3.3
		c1.5-3.6,2-6,2-6.7s0.7-3.3,0.8-4"/>
	<path class="st8" d="M70.9,67.4c-2.6-1.1-3.5-5.4-7.2-6.1c-3.7-0.7-8.9,1.7-10.5,2.3c-1.6,0.5-2-0.8,0,1.3c2,2.2,1.4,3,3.6,4.4
		c2.2,1.4,7.4,1.3,8.7,0.4C66.8,68.7,70.9,67.4,70.9,67.4z"/>
	<path class="st3" d="M49.9,66.3c0.5,0.6,1.6,0.7,4.2,3.4c2.6,2.6,4.3,5,2.8,7.4c-1.6,2.4-2.6,2.2-2.9,4.6c-0.2,2.4-0.2,2.4-0.2,2.4
		s-2.3-2.2-5.3-5.5c-3-3.3-1.2-7.9-0.2-9.6S49.9,66.3,49.9,66.3z"/>
	<path class="st7" d="M48.5,64.8c0,0-2.5,0.1-5-2.4c-2.4-2.5-6.3-4.1-9-1.5c-2.7,2.6-5,3.1-5,3.1s0.3-0.4,2.3,1.9s6.4,4,9.5,2.8
		C44.3,67.5,48.5,64.8,48.5,64.8z"/>
	<path class="st1" d="M39,45c5.2-1,10.8-2.9,13.9-5.6"/>
	<path class="st1" d="M45.2,51.7c2.1-5.1,7.3-11.9,8.3-13.3"/>
	<path class="st1" d="M43.4,39c2.4,2.4,3.3,4.7,8.7,1.3"/>
	<path class="st0" d="M26,49.3c0,0,2.4-0.9,5.5,0.7s7.3,1.8,9-1.4c1.7-3.3,3.7-4.5,3.7-4.5s-0.2,0.5-2.8-1.1
		c-2.6-1.6-7.4-1.8-9.9,0.4S26,49.3,26,49.3z"/>
	<path class="st5" d="M42.5,63.2c0,0-1.9-6.1-1.7-9.4c0.2-3.3,0.7-5.1,3.3-6.2c2.6-1.1,4-2.3,4-2.3s0.5,4.5,1.6,6.1
		c1.1,1.5,1.3,5.1-0.4,6.4C47.6,58.8,42.5,63.2,42.5,63.2z"/>
	<path class="st6" d="M45.9,41.4c0,0-2.9-0.2-6-1.3s-4.6-2-4.9-4c-0.4-2-0.4-3.9-0.3-6c0.1-2.1,0.3-2.8-0.3-3.3
		c-0.6-0.5,0.5,1,4.1,1.9c3.5,0.8,5.5,0.8,6.3,2.5c0.8,1.7-0.3,3.6,0,5.6S45.9,41.4,45.9,41.4z"/>
	<path class="st1" d="M64.1,75c-1.9-1.8-4.8-5.8-6.8-8.5"/>
	<path class="st1" d="M56.9,78c1.3-3.6,1.9-9,0.8-13"/>
	<path class="st1" d="M55.9,57.3c0.4-5.3-0.2-11.2-2-14.9"/>
	<path class="st1" d="M64,52.9c-4.4-3.3-9.7-10-10.9-11.3"/>
	<path class="st1" d="M51.2,51.5c2.9-1.8,5.3-2.1,3.4-8.1"/>
	<path class="st7" d="M56.9,71c0,0-0.3-2.5,2-5.2c2.3-2.6,3.6-6.6,0.8-9.1C57,54.2,56.3,52,56.3,52s0.4,0.3-1.8,2.4
		c-2.2,2.1-3.5,6.7-2.1,9.7C53.9,67,56.9,71,56.9,71z"/>
	<path class="st0" d="M74.4,58.4c0,0-6.4,0.4-9.6-0.6c-3.2-1-4.8-1.9-5.2-4.7s-1.3-4.4-1.3-4.4s4.5,0.6,6.3,0c1.8-0.7,5.3,0,6.1,1.9
		C71.4,52.4,74.4,58.4,74.4,58.4z"/>
	<path class="st6" d="M54.2,49.8c0,0-0.9,2.8-2.8,5.4s-3,3.9-5,3.8c-2-0.1-3.9-0.6-5.8-1.2s-2.6-1-3.2-0.6c-0.6,0.4,1.1-0.3,2.8-3.5
		c1.7-3.2,2.1-5.1,3.9-5.5s3.4,1.1,5.5,1.4S54.2,49.8,54.2,49.8z"/>
	<path class="st1" d="M60.1,38.6c-5.3-0.6-11.2-0.4-14.9,1.3"/>
	<path class="st1" d="M56.1,30.3c-3.5,4.3-10.5,9.2-11.8,10.3"/>
	<path class="st1" d="M54.1,43c-1.6-3-1.8-5.4-7.9-3.8"/>
	<path class="st7" d="M73.8,38.3c0,0-2.5,0.2-5-2.3s-6.4-3.9-9-1.3c-2.6,2.6-4.9,3.3-4.9,3.3s0.3-0.4,2.3,1.9c2,2.3,6.6,3.8,9.5,2.5
		S73.8,38.3,73.8,38.3z"/>
	<path class="st0" d="M62.1,20.2c0,0,0,6.4-1.1,9.5c-1.2,3.1-2.2,4.7-5,5c-2.8,0.3-4.5,1.1-4.5,1.1s0.8-4.5,0.3-6.3
		c-0.6-1.8,0.3-5.3,2.2-6C55.9,22.9,62.1,20.2,62.1,20.2z"/>
	<path class="st6" d="M52.5,40c0,0,2.7,1,5.3,3c2.6,2,3.8,3.2,3.6,5.2c-0.2,2-0.8,3.8-1.5,5.8c-0.7,2-1.1,2.6-0.7,3.2
		c0.4,0.6-0.2-1.1-3.3-3s-5-2.4-5.3-4.2s1.3-3.3,1.6-5.4C52.6,42.6,52.5,40,52.5,40z"/>
	<path class="st1" d="M46.1,37.3c0.2,5.3,1.4,11.1,3.6,14.6"/>
	<path class="st1" d="M38.5,42.5c4.8,2.8,10.7,8.9,12,10.1"/>
	<path class="st1" d="M51.3,42.5c-2.7,2.1-5.1,2.6-2.6,8.4"/>
	<path class="st7" d="M43.6,23.8c0,0,0.5,2.5-1.5,5.3s-2.8,7,0.2,9.1c3,2.2,4,4.3,4,4.3s-0.5-0.2,1.5-2.6c2-2.3,2.8-7.1,1-9.8
		S43.6,23.8,43.6,23.8z"/>
	<path class="st5" d="M27.6,38.2c0,0,6.3-1,9.6-0.4s5,1.4,5.7,4.1c0.7,2.7,1.8,4.3,1.8,4.3s-4.6-0.1-6.2,0.7
		c-1.7,0.8-5.3,0.5-6.2-1.3C31.2,43.8,27.6,38.2,27.6,38.2z"/>
	<path class="st6" d="M48.6,44.6c0,0,0.6-2.9,2.2-5.7s2.6-4.2,4.6-4.3c2-0.1,3.9,0.2,5.9,0.5s2.7,0.7,3.3,0.2
		c0.6-0.5-1.1,0.4-2.4,3.8c-1.3,3.4-1.5,5.3-3.3,5.9s-3.5-0.8-5.6-0.8C51.2,44.1,48.6,44.6,48.6,44.6z"/>
	<path class="st2" d="M57.4,66.2c-1.7,1.3-2.8,0.8-2.9,6c-0.1,5.1-0.1,5.1-0.1,5.1s1.1-0.1,2.3-0.2c1.2-0.1,5.9,0.2,7.3-3.5
		c1.4-3.7,1.8-6,1.8-6.8c0-0.8,0.6-3.4,0.7-4"/>
	<path class="st0" d="M41.8,62.8c0,0,0,6.4-1.1,9.5s-2.2,4.7-5,5c-2.8,0.3-4.5,1.1-4.5,1.1s0.8-4.5,0.3-6.3c-0.6-1.8,0.3-5.3,2.2-6
		C35.6,65.5,41.8,62.8,41.8,62.8z"/>
	<path class="st3" d="M24.5,64.8c0.4-0.6,0.4-1.7,2.5-4.7s4.1-5.2,6.8-4.1s2.6,2.2,5,2s2.4-0.2,2.4-0.2s-1.8,2.6-4.5,6.2
		c-2.7,3.5-7.5,2.6-9.4,2C25.6,65.3,24.5,64.8,24.5,64.8z"/>
	<path class="st0" d="M47.9,67.5c0,0-6.4,0.4-9.6-0.6c-3.2-1-4.8-1.9-5.2-4.7s-1.3-4.4-1.3-4.4s4.5,0.6,6.3,0s5.3,0,6.1,1.9
		C45,61.5,47.9,67.5,47.9,67.5z"/>
	<path class="st1" d="M51.7,40.4c-1.9,1.8-6,4.5-8.9,6.4"/>
	<path class="st1" d="M54.3,47.8c-3.5-1.5-8.9-2.3-12.9-1.5"/>
	<path class="st1" d="M50.3,53.6c-1.5-4.2-2.3-8.1-7-7.1"/>
	<path class="st2" d="M51.3,32.7c-1.7,1.3-2.8,0.8-2.9,6s-0.1,5.1-0.1,5.1s1.1-0.1,2.3-0.2c1.2-0.1,5.9,0.2,7.3-3.5
		c1.4-3.7,1.8-6,1.8-6.8c0-0.8,0.6-3.4,0.7-4"/>
	<path class="st8" d="M69.7,49.4c-2.6-1-3.6-5.3-7.4-5.9s-8.8,2-10.4,2.6c-1.6,0.6-2.1-0.8,0,1.3c2.1,2.1,1.5,2.9,3.7,4.3
		s7.4,1.1,8.7,0.2C65.7,50.8,69.7,49.4,69.7,49.4z"/>
	<path class="st4" d="M48.7,48.8c0.5,0.5,1.6,0.7,4.3,3.2s4.5,4.9,3,7.4c-1.5,2.5-2.6,2.2-2.7,4.7C53,66.5,53,66.5,53,66.5
		s-2.3-2.2-5.4-5.4c-3.1-3.2-1.4-7.9-0.5-9.6C48.1,49.9,48.7,48.8,48.7,48.8z"/>
	<path class="st7" d="M47.3,47.4c0,0-2.5,0.2-5-2.3c-2.5-2.4-6.4-3.9-9-1.3c-2.6,2.6-4.9,3.3-4.9,3.3s0.3-0.4,2.3,1.9
		c2,2.3,6.6,3.8,9.5,2.5S47.3,47.4,47.3,47.4z"/>
	<path class="st6" d="M45.2,75.3c0,0,0.6-2.9,2.2-5.7c1.6-2.8,2.6-4.2,4.6-4.3c2-0.1,3.9,0.2,5.9,0.5c2,0.4,2.7,0.7,3.3,0.2
		c0.6-0.5-1.1,0.4-2.4,3.8c-1.3,3.4-1.5,5.3-3.3,5.9c-1.8,0.5-3.5-0.8-5.6-0.8C47.8,74.8,45.2,75.3,45.2,75.3z"/>
	<path class="st1" d="M67.2,64.6c2.4,2.4,3.3,4.7,8.7,1.3"/>
	<path class="st4" d="M48,73.9c-0.7-0.4-1.7-0.2-5-1.8s-5.7-3.4-5-6.2c0.7-2.8,1.8-2.9,1.2-5.3c-0.6-2.4-0.6-2.4-0.6-2.4
		s2.9,1.4,6.8,3.5s3.7,7.1,3.3,9C48.3,72.8,48,73.9,48,73.9z"/>
	<path class="st6" d="M69.6,67c0,0-2.9-0.2-6-1.3c-3-1.1-4.6-2-4.9-4c-0.4-2-0.4-3.9-0.3-6c0.1-2.1,0.3-2.8-0.3-3.3
		c-0.6-0.5,0.5,1,4.1,1.9c3.5,0.8,5.5,0.8,6.3,2.5c0.8,1.7-0.3,3.6,0,5.6C68.8,64.5,69.6,67,69.6,67z"/>
	<path class="st1" d="M59.8,46.1c2.1,1.6,5.4,5.2,7.7,7.8"/>
	<path class="st1" d="M66.7,42.4c-0.9,3.7-0.9,9.2,0.6,13"/>
	<path class="st1" d="M73,45.4c-3.9,2.1-7.6,3.5-6,8.1"/>
	<path class="st2" d="M52.3,47.7c1.5,1.5,1.3,2.6,6.3,1.9c5.1-0.7,5.1-0.7,5.1-0.7s-0.3-1-0.5-2.2c-0.3-1.2-0.8-5.8-4.6-6.6
		s-6.2-0.9-7-0.7c-0.8,0.1-3.4-0.1-4.1-0.1"/>
	<path class="st8" d="M65.8,26.9c-0.6,2.7-4.7,4.4-4.7,8.2c0,3.8,3.3,8.4,4.2,9.9c0.8,1.5-0.5,2.2,1.3-0.2c1.8-2.4,2.7-1.9,3.7-4.3
		s-0.1-7.5-1.2-8.6C67.9,30.7,65.8,26.9,65.8,26.9z"/>
	<path class="st7" d="M67.4,49.4c0,0,0.5,2.5-1.5,5.3c-2,2.9-2.8,7,0.2,9.1c3,2.2,4,4.3,4,4.3s-0.5-0.2,1.5-2.6c2-2.3,2.8-7.1,1-9.8
		C70.8,53,67.4,49.4,67.4,49.4z"/>
	<path class="st5" d="M51.3,63.7c0,0,6.3-1,9.6-0.4c3.3,0.7,5,1.4,5.7,4.1c0.7,2.7,1.8,4.3,1.8,4.3s-4.6-0.1-6.2,0.7
		c-1.7,0.8-5.3,0.5-6.2-1.3C54.9,69.4,51.3,63.7,51.3,63.7z"/>
	<path class="st4" d="M49.3,82.2c-0.7-0.4-1.7-0.2-5-1.8c-3.3-1.7-5.7-3.4-5-6.2c0.7-2.8,1.8-2.9,1.2-5.3c-0.6-2.4-0.6-2.4-0.6-2.4
		s2.9,1.4,6.8,3.5s3.7,7.1,3.3,9C49.6,81,49.3,82.2,49.3,82.2z"/>
	<path class="st6" d="M70.9,75.2c0,0-2.9-0.2-6-1.3c-3-1.1-4.6-2-4.9-4c-0.4-2-0.4-3.9-0.3-6c0.1-2.1,0.3-2.8-0.3-3.3
		c-0.6-0.5,0.5,1,4.1,1.9c3.5,0.8,5.5,0.8,6.3,2.5c0.8,1.7-0.3,3.6,0,5.6C70.1,72.8,70.9,75.2,70.9,75.2z"/>
	<path class="st1" d="M61.1,54.4c2.1,1.6,5.4,5.2,7.7,7.8"/>
	<path class="st1" d="M67.9,50.6c-0.9,3.7-0.9,9.2,0.6,13"/>
	<path class="st2" d="M53.5,56c1.5,1.5,1.3,2.6,6.3,1.9s5.1-0.7,5.1-0.7s-0.3-1-0.5-2.2c-0.3-1.2-0.8-5.8-4.6-6.6
		c-3.8-0.8-6.2-0.9-7-0.7c-0.8,0.1-3.4-0.1-4.1-0.1"/>
	<path class="st8" d="M67.1,35.2c-0.6,2.7-4.7,4.4-4.7,8.2c0,3.8,3.3,8.4,4.2,9.9c0.8,1.5-0.5,2.2,1.3-0.2c1.8-2.4,2.7-1.9,3.7-4.3
		c1-2.4-0.1-7.5-1.2-8.6S67.1,35.2,67.1,35.2z"/>
	<path class="st7" d="M68.6,57.6c0,0,0.5,2.5-1.5,5.3c-2,2.9-2.8,7,0.2,9.1c3,2.2,4,4.3,4,4.3s-0.5-0.2,1.5-2.6c2-2.3,2.8-7.1,1-9.8
		C72.1,61.2,68.6,57.6,68.6,57.6z"/>
	<path class="st9" d="M64.7,64.3c0,0,0,6.4-1.1,9.5s-2.2,4.7-5,5c-2.8,0.3-4.5,1.1-4.5,1.1s0.8-4.5,0.3-6.3c-0.6-1.8,0.3-5.3,2.2-6
		C58.5,66.9,64.7,64.3,64.7,64.3z"/>
	<path class="st1" d="M38.6,64.6c2.1,1.6,5.4,5.2,7.7,7.8"/>
	<path class="st1" d="M45.5,60.9c-0.9,3.7-0.9,9.2,0.6,13"/>
	<path class="st1" d="M51.8,63.9c-3.9,2.1-7.6,3.5-6,8.1"/>
	<path class="st2" d="M31.1,66.3c1.5,1.5,1.3,2.6,6.3,1.9s5.1-0.7,5.1-0.7s-0.3-1-0.5-2.2c-0.3-1.2-0.8-5.8-4.6-6.6s-6.2-0.9-7-0.7
		c-0.8,0.1-3.4-0.1-4.1-0.1"/>
	<path class="st8" d="M44.6,45.4C44,48.2,40,49.8,40,53.6c0,3.8,3.3,8.4,4.2,9.9c0.8,1.5-0.5,2.2,1.3-0.2c1.8-2.4,2.7-1.9,3.7-4.3
		c1-2.4-0.1-7.5-1.2-8.6C46.7,49.2,44.6,45.4,44.6,45.4z"/>
	<path class="st3" d="M47.4,66.3c0.4-0.6,0.4-1.7,2.5-4.7s4.1-5.2,6.8-4.1c2.7,1.1,2.6,2.2,5,2c2.4-0.2,2.4-0.2,2.4-0.2
		s-1.8,2.6-4.5,6.2c-2.7,3.5-7.5,2.6-9.4,2C48.5,66.7,47.4,66.3,47.4,66.3z"/>
	<path class="st0" d="M67.9,28.3c0,0-1.9,7.9-4.5,12.1s-4.3,6.5-8.1,7.8c-3.8,1.2-6.3,2.7-6.3,2.7s2.5-5.8,2.3-7.8s2-6.6,4.8-8.1
		C58.9,33.5,67.9,28.3,67.9,28.3z"/>
	<path class="st0" d="M45.5,34.3c0,0-1.9,7.9-4.5,12.1s-4.3,6.5-8.1,7.8c-3.8,1.2-6.3,2.7-6.3,2.7s2.5-5.8,2.3-7.8s2-6.6,4.8-8.1
		S45.5,34.3,45.5,34.3z"/>
	<path class="st2" d="M22.3,63.1c2.5-0.6,2.7-0.4,6.9-2.6c4.5-1.5,4.8-0.7,4.7-0.9c0,0-0.5-0.9-1.1-1.8c-0.5-0.8-3-5.1-9.2-3
		c-5.9,2.5-8.2,6.5-8.7,7.5c-0.7,1-2.5,5.4-2.6,6.8"/>
	<path class="st2" d="M76.5,60.5c-2.5-0.6-2.7-0.4-6.9-2.6c-4.5-1.5-4.8-0.7-4.7-0.9c0,0,0.5-0.9,1.1-1.8c0.5-0.8,3-5.1,9.2-3
		c5.9,2.5,8.2,6.5,8.7,7.5c0.7,1,2.5,5.4,2.6,6.8"/>
	<path class="st10" d="M70.5,28.3c-1,2.4-0.8,2.6-3.6,6.4c-2.2,4.3-1.4,4.6-1.6,4.5c0,0-0.8-0.6-1.6-1.4c-0.7-0.6-4.6-3.8-1.5-9.6
		c3.4-5.5,7.7-7,8.8-7.4c1.1-0.5,5.8-1.7,7.1-1.5"/>
	<path class="st11" d="M44.7,44.3c-1,2.4-0.8,2.6-3.6,6.4c-2.2,4.3-1.4,4.6-1.6,4.5c0,0-0.8-0.6-1.6-1.4c-0.7-0.6-4.6-3.8-1.5-9.6
		c3.4-5.5,7.7-7,8.8-7.4c1.1-0.5,5.8-1.7,7.1-1.5"/>
	<path class="st8" d="M57.1,15c-0.4,3.5-2.9,8.4-2.9,12.7s2.2,7,2.7,8s-0.3,2.8,0.8-1.2c1.1-4,1.7-4.2,2.3-7.7s-0.1-8.4-0.8-8.8
		C58.4,17.7,57.1,15,57.1,15z"/>
	<path class="st3" d="M65.5,60.7c0.8-0.1,1-1.7,5.6-1.4c4.7,0.5,9.7,4.5,11,10.1c1,5.5-0.1,4.8,0.9,10c0.6,5.3,0.3,5.3,0.4,5.3
		c0,0.1-2.1-6.4-6.8-11.1c-4.5-4.5-7.1-8.2-8.7-10.2C66.6,61.7,65.5,60.7,65.5,60.7z"/>
	<path class="st3" d="M45.3,47.1c0.7-0.5,0-1.9,4.2-4c4.3-1.9,10.7-0.8,14.5,3.5c3.6,4.3,2.3,4.3,5.7,8.3c3.1,4.3,2.8,4.5,2.9,4.4
		c0.1,0.1-4.9-4.5-11.4-6.3c-6.1-1.8-10.2-3.7-12.5-4.6C46.7,47.5,45.3,47.1,45.3,47.1z"/>
	<path class="st3" d="M24.8,56.7c0.5-0.6-0.4-1.9,3.2-4.8c3.8-2.8,10.3-3.1,14.9,0.3c4.4,3.5,3.1,3.7,7.4,6.9c4,3.5,3.7,3.8,3.8,3.7
		c0.1,0.1-5.8-3.4-12.5-3.7c-6.4-0.4-10.8-1.4-13.2-1.8C26.3,56.7,24.8,56.7,24.8,56.7z"/>
	<path class="st3" d="M71,41.3c0-0.8-1.5-1.2-0.5-5.7c1.2-4.6,6-8.9,11.7-9.3c5.6-0.1,4.8,0.9,10,0.6c5.3,0.2,5.3,0.5,5.3,0.4
		c0.1,0-6.6,1.1-12,5.1c-5.2,3.7-9.2,5.8-11.4,7C72.1,40.5,71,41.4,71,41.3z"/>
	<path class="st3" d="M40,68c-0.8-0.1-1-1.7-5.6-1.4c-4.7,0.5-9.7,4.5-11,10.1c-1,5.5,0.1,4.8-0.9,10c-0.6,5.3-0.3,5.3-0.4,5.3
		c0,0.1,2.1-6.4,6.8-11.1c4.5-4.5,7.1-8.2,8.7-10.2C39,69,40,68,40,68z"/>
	<path class="st12" d="M71.3,52.1c0.1-0.8,1.6-1.1,1-5.7c-0.8-4.6-5.2-9.4-10.8-10.3c-5.6-0.6-4.8,0.4-10.1-0.3
		c-5.3-0.3-5.3,0.1-5.3,0c-0.1,0,6.5,1.7,11.5,6.1c4.8,4.2,8.7,6.6,10.7,8C70.3,51.2,71.3,52.2,71.3,52.1z"/>
	<path class="st4" d="M32.9,49.7c-1.1,0.3-2.1,1.1-7.2,2.7c-5.1,1.6-9.3,2.7-11,1.2S14,51.5,11.3,51c-2.7-0.4-2.7-0.4-2.7-0.4
		s4.4-1.4,10.6-3.3c6.2-1.9,10.4,0,11.7,0.9C32.2,49.1,32.9,49.7,32.9,49.7z"/>
	<path class="st4" d="M103.6,39.6c-1.1,0.3-2.1,1.1-7.2,2.7c-5.1,1.6-9.3,2.7-11,1.2s-0.6-2.2-3.3-2.6c-2.7-0.4-2.7-0.4-2.7-0.4
		s4.4-1.4,10.6-3.3c6.2-1.9,10.4,0,11.7,0.9S103.6,39.6,103.6,39.6z"/>
	<path class="st4" d="M85.8,47.9c-1.1,0.3-2.1,1.1-7.2,2.7c-5.1,1.6-9.3,2.7-11,1.2s-0.6-2.2-3.3-2.6c-2.7-0.4-2.7-0.4-2.7-0.4
		s4.4-1.4,10.6-3.3c6.2-1.9,10.4,0,11.7,0.9S85.8,47.9,85.8,47.9z"/>
	<path class="st13" d="M38.7,16c0.8,0.8,2,1.3,6,4.9s6.9,6.8,6.5,9c-0.4,2.2-1.6,1.6-0.6,4.2c1,2.6,1,2.6,1,2.6s-3.4-3.1-8.2-7.6
		s-5.2-9-5-10.6C38.5,16.9,38.7,16,38.7,16z"/>
	<path class="st14" d="M45,54.7L44.6,57l-0.2,0.8c-0.7,0.7-2.2,0.3-1.9,0.6c0.3,0.3-1.5,1.1-1.5,1.1s2.4,1.6,1.4,1.5
		c-1-0.1-2.1,0.5-1.8,0.6c0.3,0.1,3.8,0.4,3.8,0.4l-3.8,1l1.4,0.5l-1.4,0.8H42c0,0,0.8,1.1,0.8,1.1c0,0,1.6-0.2,1.6-0.2v1v1h1.9
		l0.3,0.7l2,0.2c1.2,0.6,2.1,0.8,2.1,0.8s0.2-0.2,1.1-0.5c0.9-0.3,1.7,0.5,2.1,0.6c0.4,0.1,1.5-0.6,1.5-0.6l2.8,0.8l0.8-1l1.6-1.1
		v-2l2.1-0.4l1.3-2.5l-0.4-1.3l-2.3-0.5l0.6-1.8l-2.6-0.1l0.6-2.1v-1.1l-0.9-1c0,0-1.5-0.8-1.9-1.2c-0.4-0.4-3.3-1.1-3.3-1.1
		s-1.6,0.5-2.5,0.5c-0.9-0.1-1.7-0.4-2.2,0C48.6,52.9,45,54.7,45,54.7z"/>
	<path class="st15" d="M45.2,58.2c0,0-7.2,2.3-8.9,3c-1.7,0.6-4.8,0.7-5.4,1.3c-0.7,0.5-1.9,1-2.3,1.3s-1.6-0.4-0.7-1.3
		c0.9-0.9,4.8-3.7,6.5-4c1.7-0.2,2.5,0,3.3-1c0.9-1,1.6-1.9,2.6-2.2c1-0.3,1.6,0.3,2.6,0c0.9-0.3,1.7-0.1,2.4-0.1
		c0.7,0,1.4,0.2,1.4,0.6C46.7,56.2,45.2,58.2,45.2,58.2z"/>
	<path class="st16" d="M61.4,54.1c0.3,0,2.8,0.6,3.3,1.1c0.5,0.6,2,3.2,2,3.2s1,2.7,0.8,3.3c-0.3,0.6,0.4,0.3-0.3,0.6
		c-0.7,0.3-2.4-2.3-3.4-2.6s-2,0-2.5-0.8s-1.2-2-1.4-2.4c-0.3-0.4-0.8-1.1-0.3-1.5C60,54.7,61.4,54.1,61.4,54.1z"/>
	<path class="st17" d="M61.7,56.6c0,0,2.9,0.8,3.7,0.8c0.7,0,6.5,2.8,6.5,2.8s1.3,1.4,1.3,1.9c0,0.5-0.1,1.1-0.5,0.9
		c-0.4-0.2-3.3-3.1-3.3-3.1L61.7,56.6z"/>
	<path class="st18" d="M61.7,55.6c0,0,4.1,0.9,4.9,0.9c0.9,0,3.1,1.3,3.5,1.6s1.8,2,1.8,2v1c0,0-10.1-4.6-11.1-4.6
		C60,56.6,61.7,55.6,61.7,55.6z"/>
	<path class="st18" d="M60.1,59.8c0.3-0.1,1.2,0.3,3.7,0c2.6-0.3,5.5,1.4,7.7,2.2c2.3,0.8,4.9,3.3,5.5,3.8c0.6,0.5,3.2,3.7,3.7,4.3
		c0.4,0.6,1,1.7,1,1.7s-3.9-3.4-5.4-4.6s-6.2-3-6.7-3.3c-0.5-0.3-7.1-2.4-7.1-2.4l-2.5-0.2V59.8z"/>
	<path class="st19" d="M40.6,61.6c0,0-3.9,0.6-4.4,0.9c-0.5,0.3,3.5-0.1,3.7-0.2c0.2-0.1-0.4,0.6-2.4,1.2c-2,0.6-4.4,2.2-4.6,2.5
		c-0.2,0.3,1.1,0.2,1.2,0c0.2-0.2,5.9-2.9,5.9-2.9l0.6-0.7V61.6z"/>
	<path class="st18" d="M43.5,60.4c0,0-3.7,0.1-6.4,1.2c-2.7,1.1-5.3,2.3-7.4,5.5c-2,3.2-3.2,7.4-3.1,8.7c0.1,1.3-0.3,2.1,0.4,2.1
		c0.7-0.1,2.4-1.5,3.2-2.8c0.9-1.3,6.5-8.3,7.9-9.2c1.4-0.8,2.4-1.9,3.1-2.2s2.5-1.5,2.8-1.5c0.3,0,0.9-0.4,0.9-0.4L43.5,60.4z"/>
	<path class="st18" d="M58.9,63.2c0.6,0,2.6-0.1,4.1,0c1.5,0.1,4.2,1.3,5.4,2.3c1.3,1,6.7,5.8,7.1,6.4c0.4,0.6,3,4,3.1,4.8
		c0.2,0.8,0.7,2.8,0.7,3.5c0,0.7-0.3,1.2-0.6,0.8c-0.3-0.4-4.2-5-4.8-5.2c-0.6-0.2-5.8-5.5-6.4-6.2s-3.7-2.8-4.7-3.3
		c-0.9-0.5-1.1-0.9-2.3-1c-1.3-0.1-0.4,0-1.8,0c-1.4,0-1,0.9-1.4,0S58.9,63.2,58.9,63.2z"/>
	<path class="st20" d="M55.8,64.3c0,0,3.9,2.3,5.4,2.7c1.4,0.4,6.2,2.6,7.2,4.1c1.1,1.4,5.3,5.9,6.4,8.9c1.1,3,2.3,7.5,2,8.9
		c-0.3,1.4-0.7,2.1-1.2,2.5c-0.5,0.4-0.9,0-1.6,0s-2.4-1.9-4.2-4.4c-1.8-2.5-6.6-8.3-7.7-11.3c-1-3-3.6-7.2-3.9-8
		C58,66.8,55.8,64.3,55.8,64.3z"/>
	<path class="st18" d="M54.3,66.5c0,0,3.9,5.3,4.1,5.6c0.2,0.3,5.4,12.8,5.6,14.9c0.3,2.1,0.8,7,0.6,8c-0.2,1-0.2,1.3-1.1,2.1
		c-0.9,0.8-3.4,1.4-4.1,0.7c-0.7-0.7-3.1-5.1-3.7-6.1c-0.6-1.1-3.4-9.7-3.7-12.9S51.7,67,52,66.2s0.7-1.5,0.7-1.5L54.3,66.5z"/>
	<path class="st18" d="M45.9,64.3c0,0-3.5,1.1-5,1.9s-7.1,5.2-8.3,8.1c-1.2,2.8-2.6,8.4-2.6,10s0,1.9,0.7,3.1
		c0.7,1.2,0.6,2.3,1.8,1.6c1.2-0.7,3.1-3.2,4-4.3c0.9-1.1,4-8.9,4.8-10c0.8-1.1,1.6-4.6,2.1-5.4c0.5-0.8,1.4-2.8,1.7-3
		c0.3-0.3,1.4-0.7,1.6-0.9C46.9,65.2,45.9,64.3,45.9,64.3z"/>
	<path class="st21" d="M48.3,64.9c0,0-3.6,2.6-5,4.3c-1.4,1.7-7.7,11.2-7.1,18.8c0.6,7.6,1.1,8,2.1,7.8c1-0.2,3.4-2.2,4.7-4.9
		c1.4-2.6,5.6-12.9,5.9-15.6c0.3-2.7,0.8-8.6,0.8-9.5c0-0.8-0.3-2-0.3-2L48.3,64.9z"/>
	<path class="st22" d="M46.9,67.3c0,0-2.3,2-2.5,2.6c-0.2,0.6,0,1.6,0,1.6s-1.9,4.3-2.3,5c-0.4,0.7-1.8,6.7-1.5,6
		c0.3-0.7,4.7-11.8,4.7-11.8l1.8-2l-0.6,3.4c0,0-4.7,11.4-4.5,11.3c0.2-0.1,5.6-13.4,5.6-13.4L48,68L46.9,67.3z"/>
	<path class="st19" d="M61.7,67.8c0.3,0.1,4.3,2.4,5,2.8c0.6,0.4,5.7,7.6,6.2,8.1c0.5,0.5,1.8,3.7,1.8,3.7s-5.3-7.4-5.7-7.9
		c-0.4-0.5-4.3-3.9-4.3-3.9s7.3,9.5,7.7,10.1c0.4,0.6,3.5,5.6,3.5,5.9s0,0.9,0,0.9S65.3,73,65,72.6c-0.3-0.3,10.2,15.3,10.1,16
		c-0.2,0.7-1,1.1-1,1.1s-6.3-10-6.5-10.6c-0.2-0.5-5.2-7.9-5.8-8.3c-0.6-0.5-1.1-1.8-1.1-1.8l-1.4-1.3L61.7,67.8z"/>
	<path class="st19" d="M64.7,64.3v1.1c0,0,11,8.8,11.2,9c0.3,0.2,3,1.4,2.8,2.2c-0.3,0.9-0.3,1.3-0.3,1.3s-1.2-0.2-1.8-1.2
		c-0.7-1-14-12.1-14-12.1l-1.8-0.1c0,0,1.4-0.7,2-0.7S64.7,64.3,64.7,64.3z"/>
	<path class="st23" d="M52.6,70.5l0.1,3.6l1.2-2l3.9,17.1l1.5,2l-3.4-16.8l0.5-1l4.4,16.3l1.1,2.9c0,0,0.6-1.7,0.8-2.1
		c0.2-0.4-1.7-7.9-1.9-9.1c-0.2-1.2-2.9-8.3-3.2-8.9c-0.3-0.6-1-1.7-1.9-2.6s-1.3-0.8-1.6-1.2c-0.3-0.4-0.6,0-0.6,0L52.6,70.5z"/>
	<path class="st19" d="M39.6,67l1.6,0.2c0,0-6,6.1-6.2,6.9s-2.1,6.2-2.3,6.4c-0.1,0.1-0.5,0.8,0,0.5s6.3-10.5,6.3-10.5l2.5-2.1
		c0,0,0,1.6,0,1.4c0-0.2,0.6-1.4,0.6-1.4l0.8-2L39.6,67z"/>
	<path class="st24" d="M45.5,52.9l-0.3,2.3L45,56c-0.6,0.7-1.9,0.3-1.6,0.6c0.3,0.3-1.3,1.1-1.3,1.1s2,1.6,1.2,1.5s-1.8,0.5-1.5,0.6
		c0.3,0.1,3.2,0.4,3.2,0.4l-3.3,1l1.2,0.5l-1.2,0.8h1.2c0,0,0.7,1.1,0.7,1.1c0,0,1.4-0.2,1.4-0.2v1v1h1.6l0.2,0.7l1.7,0.2
		c1.1,0.6,1.8,0.8,1.8,0.8s0.2-0.2,0.9-0.5c0.8-0.3,1.4,0.5,1.8,0.6s1.3-0.6,1.3-0.6l2.4,0.8l0.7-1l1.4-1.1v-2l1.8-0.4l1.1-2.5
		L61.4,59l-1.9-0.5l0.5-1.8l-2.2-0.1l0.5-2.1v-1.1l-0.8-1c0,0-1.3-0.8-1.7-1.2S53,50.2,53,50.2s-1.4,0.5-2.1,0.5
		c-0.8-0.1-1.4-0.4-1.9,0C48.6,51.1,45.5,52.9,45.5,52.9z"/>
	<path class="st25" d="M42.9,54.3c-0.2-0.7,0.5-1,0.5-1l0.3-1.3l1.2,0v-1.3h0.9l0.8-1h1.4l0.3-1.2l1.6,0.7v-1.2l1.7,1.2l0.1-1.2
		l1.4,0.7l1.7,0.2l0.9-0.2v1.1l1.7-0.5v1h0.8l0.5,1.4l0.8-0.3v1.2l1.2-0.5v1.8l1.6,0.6l-0.5,2.1l0.9,0.3v1.5l0.4,1.7l-0.5,1.2
		l-1.3,1l-0.7,0.4l-1.9-1.2l0.7-3.1L58.2,59l0.5-1.6l-1.2,0.3l-1-2l0.3-2.2l-1,0.6l-1.2-1.7l-0.8,1.1l-1.7-1.1l-0.4,1.4l-2.1-1v1.2
		l-1.5-0.8c0,0-0.2,0.8-0.1,1.2c0.1,0.4,0.4,1.2-0.5,1.2c-0.9,0-0.3,0.5-0.4,0.8c-0.1,0.4-0.9,0.9-0.9,0.9H45l-1.6-0.8l-0.6-1.4
		L42.9,54.3z"/>
	<ellipse transform="matrix(0.3148 -0.9492 0.9492 0.3148 -15.7618 92.6193)" class="st25" cx="56.3" cy="57.2" rx="1.2" ry="0.3"/>
	<ellipse class="st25" cx="53.2" cy="55.1" rx="0.3" ry="1.2"/>
	<ellipse transform="matrix(0.7878 -0.616 0.616 0.7878 -25.5792 41.1618)" class="st25" cx="46.9" cy="57.7" rx="0.3" ry="1.2"/>
	<ellipse transform="matrix(0.908 -0.419 0.419 0.908 -18.9595 26.1659)" class="st25" cx="50.1" cy="56.3" rx="0.3" ry="1.2"/>
	<ellipse transform="matrix(0.9935 -0.1139 0.1139 0.9935 -5.8829 6.1611)" class="st25" cx="51" cy="54.6" rx="0.3" ry="1.2"/>
	<ellipse transform="matrix(0.5961 -0.8029 0.8029 0.5961 -24.2252 69.9874)" class="st25" cx="57.4" cy="59.1" rx="1.2" ry="0.3"/>
	<ellipse transform="matrix(0.7739 -0.6333 0.6333 0.7739 -25.377 50.8259)" class="st25" cx="58.5" cy="61" rx="1.2" ry="0.3"/>
	<ellipse transform="matrix(0.4594 -0.8882 0.8882 0.4594 -24.0231 81.0742)" class="st25" cx="54.6" cy="60.3" rx="0.6" ry="0.2"/>
	<ellipse transform="matrix(0.4594 -0.8882 0.8882 0.4594 -31.8925 76.8463)" class="st25" cx="47.2" cy="64.6" rx="0.6" ry="0.2"/>
	<ellipse transform="matrix(0.7518 -0.6593 0.6593 0.7518 -26.4676 51.9573)" class="st25" cx="55.8" cy="61.1" rx="0.6" ry="0.2"/>
	<ellipse transform="matrix(0.7518 -0.6593 0.6593 0.7518 -30.383 45.9578)" class="st25" cx="45.9" cy="63.3" rx="0.6" ry="0.2"/>
	<ellipse transform="matrix(0.8808 -0.4735 0.4735 0.8808 -23.0739 33.6439)" class="st25" cx="55.3" cy="62.7" rx="0.7" ry="0.2"/>
	<ellipse transform="matrix(0.9655 -0.2605 0.2605 0.9655 -14.2111 17.5708)" class="st25" cx="59.2" cy="62.4" rx="1.2" ry="0.3"/>
	<ellipse transform="matrix(0.5474 -0.8368 0.8368 0.5474 -28.9017 64.6978)" class="st25" cx="45.4" cy="59.1" rx="0.3" ry="1.2"/>
	
		<ellipse transform="matrix(0.9962 -8.660328e-02 8.660328e-02 0.9962 -5.1245 4.1587)" class="st25" cx="45.4" cy="61.1" rx="1.2" ry="0.3"/>
	<ellipse transform="matrix(0.2578 -0.9662 0.9662 0.2578 -12.904 93.8988)" class="st25" cx="54.7" cy="55.3" rx="1.2" ry="0.3"/>
	<ellipse class="st25" cx="52.4" cy="57.5" rx="0.3" ry="0.8"/>
	<ellipse transform="matrix(0.7926 -0.6098 0.6098 0.7926 -26.5846 42.1798)" class="st25" cx="48.7" cy="60.2" rx="0.3" ry="0.9"/>
	<ellipse transform="matrix(0.7926 -0.6098 0.6098 0.7926 -27.2505 48.5549)" class="st25" cx="57.7" cy="64.3" rx="0.3" ry="0.9"/>
	<ellipse transform="matrix(0.9815 -0.1913 0.1913 0.9815 -10.2421 10.6606)" class="st25" cx="50.1" cy="58.4" rx="0.3" ry="0.8"/>
	<ellipse transform="matrix(0.4105 -0.9118 0.9118 0.4105 -21.4886 83.5229)" class="st25" cx="53.9" cy="58.4" rx="0.8" ry="0.3"/>
	<ellipse transform="matrix(0.4105 -0.9118 0.9118 0.4105 -30.5757 83.7252)" class="st25" cx="49.5" cy="65.5" rx="0.8" ry="0.3"/>
	<ellipse transform="matrix(0.8119 -0.5838 0.5838 0.8119 -24.0872 38.6925)" class="st25" cx="48" cy="56.7" rx="0.3" ry="1.2"/>
	<ellipse class="st25" cx="51.6" cy="60" rx="0.6" ry="0.7"/>
	<ellipse class="st25" cx="53.1" cy="61.3" rx="0.6" ry="0.5"/>
	<circle class="st25" cx="49.9" cy="61.9" r="0.6"/>
	<circle class="st25" cx="47.7" cy="62.5" r="0.6"/>
	<circle class="st25" cx="51.5" cy="64.1" r="0.6"/>
	<ellipse transform="matrix(0.2578 -0.9662 0.9662 0.2578 -21.5974 97.4558)" class="st25" cx="52.6" cy="62.8" rx="0.5" ry="0.5"/>
	<ellipse class="st25" cx="54.3" cy="64.1" rx="0.6" ry="0.4"/>
	<circle class="st25" cx="55.5" cy="65.3" r="0.6"/>
	<path class="st14" d="M27.2,31.7l0.1,1.3l0,0.5c-0.3,0.6-1.4,0.9-1.2,1c0.2,0-0.8,1-0.8,1s1.8,0,1.2,0.2c-0.7,0.3-1.3,1-1.1,0.9
		c0.2-0.1,2.6-1.1,2.6-1.1l-2.4,1.8l1-0.2l-0.8,0.9l1-0.5c0,0,0.7,0.3,0.7,0.3c0,0,1.1-0.7,1.1-0.7l0.2,0.5l0.2,0.5l1.3-0.6l0.3,0.2
		l1.4-0.6c0.9-0.1,1.6-0.3,1.6-0.3s0.1-0.2,0.7-0.6c0.5-0.5,1.2-0.3,1.5-0.4c0.3-0.1,0.9-0.8,0.9-0.8l2-0.5l0.4-0.8l0.9-1.1
		l-0.4-1.1l1.3-0.9l0.4-1.8l-0.5-0.6L39,28.8l0.1-1.2l-1.7,0.9l0-1.3l-0.2-0.6l-0.8-0.2c0,0-1.2,0.1-1.5,0.1
		c-0.3-0.1-2.3,0.6-2.3,0.6s-1,0.9-1.6,1.2c-0.6,0.3-1.2,0.4-1.4,0.8C29.2,29.5,27.2,31.7,27.2,31.7z"/>
	<path class="st15" d="M27.8,33.4c0,0-4.5,3.7-5.5,4.5c-1.1,0.9-3.1,2-3.5,2.5c-0.4,0.5-1.1,1.1-1.4,1.4c-0.3,0.3-1.1,0.4-0.6-0.4
		c0.5-0.7,2.7-3.4,3.8-4.1c1.1-0.7,1.7-0.9,2.1-1.7c0.4-0.8,0.8-1.5,1.4-2c0.6-0.5,1.1-0.4,1.7-0.9c0.6-0.5,1.1-0.6,1.6-0.9
		c0.4-0.3,0.9-0.4,1.1-0.2C28.5,31.8,27.8,33.4,27.8,33.4z"/>
	<path class="st16" d="M38,25.5c0.2-0.1,2-0.7,2.4-0.6c0.4,0.1,2,1,2,1s1.2,1.1,1.1,1.5c-0.1,0.4,0.3,0-0.1,0.4
		c-0.4,0.4-2-0.4-2.8-0.2c-0.7,0.2-1.4,0.7-1.8,0.4c-0.4-0.3-1.2-0.6-1.4-0.7c-0.2-0.1-0.7-0.3-0.5-0.7C37.2,26.3,38,25.5,38,25.5z"
		/>
	<path class="st17" d="M38.7,26.7c0,0,2.1-0.6,2.6-0.9c0.5-0.3,4.9-0.8,4.9-0.8s1.1,0.3,1.2,0.6c0.1,0.3,0.2,0.6-0.2,0.7
		c-0.3,0-2.8-0.6-2.8-0.6L38.7,26.7z"/>
	<path class="st18" d="M38.5,26.2c0,0,2.9-1,3.5-1.3c0.6-0.3,2.4-0.4,2.6-0.3c0.3,0,1.6,0.5,1.6,0.5l0.2,0.5c0,0-7.7,1-8.3,1.4
		C37.5,27.3,38.5,26.2,38.5,26.2z"/>
	<path class="st18" d="M38.2,29c0.2-0.1,0.9-0.2,2.5-1.3c1.7-1.1,3.9-1.2,5.6-1.5c1.7-0.3,4,0.2,4.5,0.3c0.5,0.1,2.9,1,3.4,1.2
		c0.4,0.2,1,0.6,1,0.6s-3.4-0.7-4.7-0.9c-1.3-0.2-4.8,0.4-5.2,0.4c-0.4,0-5.2,1.1-5.2,1.1l-1.7,0.7L38.2,29z"/>
	<path class="st19" d="M25.3,36.6c0,0-2.6,1.6-2.8,2c-0.3,0.3,2.3-1.2,2.5-1.4c0.1-0.1-0.2,0.4-1.4,1.4c-1.3,1-2.7,2.5-2.8,2.7
		c-0.1,0.2,0.8-0.3,0.8-0.4c0.1-0.1,3.6-3.4,3.6-3.4l0.3-0.5L25.3,36.6z"/>
	<path class="st18" d="M27,35c0,0-2.5,1.4-4.1,2.8c-1.6,1.4-3.2,2.9-4.2,5c-1,2.1-1.2,4.4-0.9,4.9c0.2,0.6,0.1,1,0.6,0.8
		c0.5-0.2,1.4-1.4,1.8-2.3c0.4-0.9,3.3-6,4.1-6.8c0.8-0.9,1.3-1.7,1.8-2.1c0.5-0.4,1.4-1.6,1.7-1.7c0.2-0.1,0.6-0.5,0.6-0.5L27,35z"
		/>
	<path class="st18" d="M37.9,31.2c0.4-0.2,1.7-0.9,2.8-1.4c1-0.5,3.1-0.7,4.1-0.6c1.1,0.1,5.7,1,6.1,1.2c0.4,0.2,2.9,1.4,3.1,1.8
		c0.3,0.4,1,1.4,1.2,1.8c0.1,0.4,0,0.8-0.2,0.7c-0.3-0.1-3.9-1.6-4.4-1.5c-0.5,0-5-1.3-5.6-1.4c-0.6-0.2-3.1-0.3-3.8-0.3
		c-0.7,0-0.9-0.2-1.8,0.2c-0.9,0.4-0.3,0.1-1.2,0.6c-0.9,0.5-0.5,0.8-0.9,0.5C36.9,32.3,37.9,31.2,37.9,31.2z"/>
	<path class="st20" d="M36,32.8c0,0,3.1-0.1,4.1-0.4c1.1-0.2,4.7-0.6,5.7-0.1c1,0.4,4.8,1.6,6.2,3c1.4,1.4,3.1,3.6,3.2,4.5
		c0.1,0.9-0.1,1.4-0.4,1.7c-0.3,0.4-0.6,0.2-1.1,0.4c-0.5,0.2-2.1-0.4-3.8-1.3c-1.7-0.9-6.2-2.6-7.5-3.9c-1.2-1.3-3.7-2.7-4.1-3
		C38,33.4,36,32.8,36,32.8z"/>
	<path class="st18" d="M35.4,34.4c0,0,3.6,1.5,3.8,1.6c0.2,0.1,6,5.2,6.6,6.3c0.6,1.1,1.8,3.6,1.9,4.1c0.1,0.6,0.1,0.8-0.4,1.4
		c-0.5,0.6-2.2,1.6-2.8,1.4c-0.6-0.2-3.1-1.9-3.7-2.3c-0.6-0.4-4.1-4.1-4.8-5.6c-0.8-1.5-2.2-5.8-2.1-6.4c0.1-0.5,0.2-1,0.2-1
		L35.4,34.4z"/>
	<path class="st18" d="M29.3,36.2c0,0-2.2,1.7-3.1,2.6c-0.9,0.8-4.1,4.8-4.5,6.5c-0.4,1.7-0.6,4.7-0.4,5.4c0.2,0.7,0.3,0.9,0.9,1.2
		c0.7,0.4,0.8,0.9,1.5,0.2c0.7-0.7,1.8-2.4,2.2-3.1c0.4-0.8,1.4-5.4,1.8-6.2c0.4-0.8,0.4-2.7,0.6-3.3c0.2-0.6,0.5-1.8,0.7-2
		c0.1-0.2,0.8-0.8,1-1C30.1,36.3,29.3,36.2,29.3,36.2z"/>
	<path class="st26" d="M31,35.6c0,0-2,2.5-2.7,3.8c-0.7,1.3-3.6,7.8-2,11.2c1.6,3.4,2,3.5,2.6,3.1c0.7-0.4,2.1-2,2.6-3.6
		c0.5-1.7,1.9-8,1.6-9.4c-0.3-1.4-0.9-4.6-1-5c-0.1-0.4-0.6-0.9-0.6-0.9L31,35.6z"/>
	<path class="st22" d="M30.5,37.3c0,0-1.2,1.7-1.3,2.1c-0.1,0.4,0.3,0.8,0.3,0.8s-0.7,2.7-0.8,3.1c-0.2,0.5-0.2,3.8-0.1,3.3
		c0.1-0.4,1.4-7.2,1.4-7.2l0.9-1.6l0.2,1.9c0,0-1.5,7-1.3,6.9c0.1-0.1,1.7-8.3,1.7-8.3l-0.1-1.1L30.5,37.3z"/>
	<path class="st19" d="M40.7,32.7c0.2,0,3.4-0.1,3.9-0.1c0.5,0,5.4,2.4,5.8,2.5c0.4,0.1,2,1.5,2,1.5s-5.1-2.5-5.5-2.7
		c-0.4-0.2-3.7-0.8-3.7-0.8s6.8,3,7.2,3.2c0.4,0.2,3.5,2.2,3.6,2.3c0.1,0.1,0.2,0.5,0.2,0.5s-10.2-4.9-10.4-5
		c-0.3-0.1,10.1,5.4,10.1,5.8c0,0.4-0.5,0.9-0.5,0.9s-6.4-3.8-6.6-4c-0.2-0.2-5.1-2.6-5.6-2.7c-0.5-0.1-1.1-0.6-1.1-0.6l-1.2-0.2
		L40.7,32.7z"/>
	<path class="st19" d="M42,29.8l0.2,0.6c0,0,9.2,1.3,9.4,1.4c0.2,0,2.4-0.2,2.4,0.4c0,0.6,0,0.9,0,0.9s-0.8,0.2-1.5-0.1
		c-0.7-0.4-11.9-2.2-11.9-2.2l-1.3,0.6c0,0,0.9-0.9,1.2-1.1C40.9,30,42,29.8,42,29.8z"/>
	<path class="st27" d="M34.9,37.1l0.7,1.8l0.5-1.4l5.7,7.7l1.4,0.7l-5.3-7.8l0.1-0.7l5.9,7.3l1.3,1.3c0,0,0.1-1.1,0.2-1.3
		c0-0.3-2.6-3.7-3-4.3c-0.4-0.6-3.5-3.5-3.8-3.7c-0.3-0.2-1-0.6-1.8-0.7c-0.8-0.2-1,0-1.3-0.1c-0.3-0.1-0.4,0.2-0.4,0.2L34.9,37.1z"
		/>
	<path class="st19" d="M25.5,39.6l1.2-0.4c0,0-3.2,4.8-3.2,5.3c0,0.4-0.6,3.6-0.6,3.7c-0.1,0.1-0.2,0.5,0.1,0.2
		c0.3-0.3,2.8-6.9,2.8-6.9l1.4-1.8c0,0,0.2,0.8,0.2,0.7c0-0.1,0.2-0.9,0.2-0.9l0.3-1.2L25.5,39.6z"/>
	<path class="st24" d="M27.2,30.6l0.1,1.3l0,0.5c-0.3,0.6-1.2,0.8-1,0.9c0.2,0.1-0.7,1-0.7,1s1.6,0.1,1,0.3
		c-0.6,0.2-1.1,0.9-0.9,0.8c0.2-0.1,2.2-0.9,2.2-0.9L26,36l0.9-0.2l-0.7,0.8l0.8-0.4c0,0,0.6,0.3,0.6,0.3c0,0,0.9-0.6,0.9-0.6
		l0.2,0.5l0.2,0.5l1.1-0.5l0.3,0.3l1.2-0.5c0.8,0,1.4-0.2,1.4-0.2s0.1-0.1,0.6-0.6c0.5-0.4,1.1-0.2,1.3-0.3c0.2-0.1,0.8-0.8,0.8-0.8
		l1.8-0.4l0.3-0.7l0.8-1.1l-0.4-1.1l1.1-0.8l0.3-1.7l-0.5-0.6l-1.4,0.4l0-1.1L36,28.1l0-1.3l-0.2-0.6L35,26c0,0-1,0.1-1.3,0
		c-0.3-0.1-2,0.5-2,0.5s-0.8,0.8-1.3,1c-0.5,0.3-1,0.4-1.2,0.7C28.9,28.6,27.2,30.6,27.2,30.6z"/>
	<path class="st25" d="M25.7,32.3c-0.3-0.2,0.2-0.7,0.2-0.7l0-0.8l0.8-0.4l-0.2-0.6l0.6-0.3l0.3-0.8l0.9-0.5l0-0.7l1.2-0.3l-0.2-0.6
		l1.3-0.1l-0.2-0.6l1-0.2l1.1-0.6l0.6-0.4l0.2,0.6l1-0.9l0.2,0.5l0.5-0.3l0.6,0.6l0.5-0.4l0.2,0.6l0.7-0.7l0.3,1l1.2-0.2l0,1.3
		l0.7-0.2l0.3,0.8l0.6,0.8l-0.1,0.8l-0.7,1L39,30.3l-1.5,0l-0.1-1.9l-0.7,0.7l0-1L36,28.8l-1-0.7l-0.2-1.3l-0.6,0.7l-1.1-0.4
		l-0.3,0.8L31.5,28l0,0.9L30,29.1l0.2,0.6L29,29.9c0,0,0,0.5,0.1,0.6c0.1,0.2,0.5,0.5-0.1,0.8c-0.6,0.3-0.2,0.4-0.1,0.6
		c0,0.2-0.4,0.7-0.4,0.7l-0.9,0.5l-1.2,0.2l-0.6-0.5L25.7,32.3z"/>
	<path class="st25" d="M35.3,28.9c0,0.4-0.1,0.8-0.3,0.8c-0.1,0-0.2-0.3-0.2-0.7c0-0.4,0.1-0.8,0.3-0.8
		C35.3,28.2,35.3,28.5,35.3,28.9z"/>
	<path class="st25" d="M32.9,28.8c0.1,0.3,0.1,0.7,0,0.7c-0.1,0.1-0.3-0.2-0.4-0.5c-0.1-0.3-0.1-0.7,0-0.7
		C32.6,28.3,32.8,28.5,32.9,28.8z"/>
	<path class="st25" d="M29.1,32.3c0.4,0.1,0.6,0.3,0.5,0.4c-0.1,0.1-0.4,0.1-0.8,0c-0.4-0.1-0.6-0.3-0.5-0.4
		C28.4,32.2,28.7,32.2,29.1,32.3z"/>
	<path class="st25" d="M31,30.5c0.3,0.2,0.5,0.4,0.4,0.5c-0.1,0.1-0.4,0-0.7-0.2c-0.3-0.2-0.5-0.4-0.4-0.5
		C30.4,30.2,30.7,30.3,31,30.5z"/>
	<path class="st25" d="M31.3,29.4c0.2,0.3,0.2,0.6,0.1,0.7c-0.1,0.1-0.3-0.1-0.5-0.4c-0.2-0.3-0.2-0.6-0.1-0.7
		C30.9,28.9,31.2,29.1,31.3,29.4z"/>
	<path class="st25" d="M36.4,29.5c-0.2,0.4-0.4,0.8-0.5,0.8c-0.1,0-0.1-0.3,0.1-0.8c0.2-0.4,0.4-0.8,0.5-0.8
		C36.6,28.7,36.6,29.1,36.4,29.5z"/>
	<path class="st25" d="M37.4,30.2c-0.3,0.4-0.6,0.7-0.7,0.7c-0.1,0,0.1-0.4,0.3-0.8c0.3-0.4,0.6-0.7,0.7-0.7
		C37.8,29.4,37.7,29.8,37.4,30.2z"/>
	<path class="st25" d="M34.6,31.1c0,0.2-0.1,0.4-0.2,0.4c-0.1,0-0.1-0.1-0.1-0.3c0-0.2,0.1-0.4,0.2-0.4
		C34.7,30.7,34.7,30.9,34.6,31.1z"/>
	<path class="st25" d="M30.4,35.8c0,0.2-0.1,0.4-0.2,0.4c-0.1,0-0.1-0.1,0-0.3c0-0.2,0.1-0.4,0.2-0.4C30.4,35.5,30.4,35.6,30.4,35.8
		z"/>
	<path class="st25" d="M35.6,31.1c-0.1,0.2-0.3,0.4-0.4,0.4c-0.1,0,0-0.2,0.1-0.4c0.1-0.2,0.3-0.4,0.4-0.4
		C35.8,30.8,35.7,30.9,35.6,31.1z"/>
	<path class="st25" d="M29.3,35.7c-0.1,0.2-0.3,0.4-0.4,0.4c-0.1,0,0-0.2,0.1-0.4c0.1-0.2,0.3-0.4,0.4-0.4
		C29.5,35.3,29.4,35.5,29.3,35.7z"/>
	<path class="st25" d="M35.5,32.1c-0.2,0.2-0.4,0.4-0.5,0.4c-0.1,0,0.1-0.2,0.3-0.4c0.2-0.2,0.4-0.4,0.5-0.4
		C35.8,31.7,35.7,31.9,35.5,32.1z"/>
	<path class="st25" d="M38.1,30.8c-0.4,0.3-0.8,0.5-0.8,0.4c-0.1-0.1,0.2-0.4,0.6-0.7c0.4-0.3,0.8-0.5,0.8-0.4
		C38.8,30.2,38.5,30.5,38.1,30.8z"/>
	<path class="st25" d="M28.2,33.6c0.4,0,0.8,0.1,0.7,0.2c0,0.1-0.4,0.2-0.9,0.2c-0.4,0-0.8-0.1-0.7-0.2
		C27.4,33.7,27.7,33.6,28.2,33.6z"/>
	<path class="st25" d="M28.4,34.6c0.4-0.3,0.8-0.4,0.9-0.3c0,0.1-0.3,0.3-0.7,0.6c-0.4,0.3-0.8,0.4-0.9,0.3
		C27.6,35.2,27.9,34.9,28.4,34.6z"/>
	<path class="st25" d="M33.9,28.5c0,0.4-0.1,0.7-0.2,0.8c-0.1,0-0.2-0.3-0.2-0.7c0-0.4,0.1-0.7,0.2-0.8
		C33.8,27.8,33.9,28.1,33.9,28.5z"/>
	<path class="st25" d="M32.8,30.3c0.1,0.2,0,0.4-0.1,0.5c-0.1,0.1-0.3-0.1-0.3-0.3c-0.1-0.2,0-0.4,0.1-0.5
		C32.6,30,32.7,30.1,32.8,30.3z"/>
	<path class="st25" d="M30.7,33c0.3,0.1,0.4,0.2,0.3,0.3c-0.1,0.1-0.4,0.1-0.6,0c-0.3-0.1-0.4-0.2-0.3-0.3
		C30.2,32.9,30.4,32.9,30.7,33z"/>
	<path class="st25" d="M37.5,32c0.3,0.1,0.4,0.3,0.3,0.3c-0.1,0.1-0.4,0-0.6-0.1c-0.3-0.1-0.4-0.3-0.3-0.3
		C37,31.9,37.3,31.9,37.5,32z"/>
	<path class="st25" d="M31.4,31.6c0.1,0.2,0.1,0.4,0,0.5c-0.1,0.1-0.3,0-0.4-0.2c-0.1-0.2-0.1-0.4,0-0.5
		C31.1,31.3,31.2,31.4,31.4,31.6z"/>
	<path class="st25" d="M33.9,30.3c0,0.3-0.2,0.5-0.3,0.6c-0.1,0-0.2-0.1-0.1-0.4c0-0.3,0.2-0.5,0.3-0.6
		C33.9,29.9,33.9,30.1,33.9,30.3z"/>
	<path class="st25" d="M32.1,35.5c0,0.3-0.2,0.5-0.3,0.6c-0.1,0-0.2-0.1-0.1-0.4c0-0.3,0.2-0.5,0.3-0.6C32.1,35,32.2,35.2,32.1,35.5
		z"/>
	<path class="st25" d="M29.6,31.5c0.4,0.1,0.6,0.3,0.5,0.4c-0.1,0.1-0.4,0.1-0.8-0.1c-0.4-0.1-0.6-0.3-0.5-0.4
		C28.9,31.3,29.3,31.3,29.6,31.5z"/>
	<path class="st25" d="M32.8,31.8c0.1,0.2-0.1,0.4-0.3,0.5c-0.2,0.1-0.4,0-0.5-0.2c-0.1-0.2,0.1-0.4,0.3-0.5
		C32.5,31.5,32.8,31.6,32.8,31.8z"/>
	<path class="st25" d="M34.1,31.9c0.1,0.2-0.1,0.4-0.3,0.5s-0.4,0.1-0.5-0.1s0.1-0.4,0.3-0.5C33.8,31.8,34,31.8,34.1,31.9z"/>
	<path class="st25" d="M32,33.4c0.1,0.2-0.1,0.4-0.3,0.5c-0.2,0.1-0.4,0.1-0.5-0.1s0.1-0.4,0.3-0.5S32,33.2,32,33.4z"/>
	<path class="st25" d="M30.6,34.5c0.1,0.2-0.1,0.4-0.3,0.5c-0.2,0.1-0.4,0.1-0.5-0.1c-0.1-0.2,0.1-0.4,0.3-0.5
		C30.4,34.3,30.6,34.3,30.6,34.5z"/>
	<path class="st25" d="M33.1,33.8c0.2-0.1,0.4,0,0.4,0.2c0,0.2-0.2,0.4-0.4,0.4c-0.2,0.1-0.4,0-0.4-0.2
		C32.7,34.1,32.8,33.9,33.1,33.8z"/>
	<path class="st25" d="M33.6,32.8c0.2-0.1,0.3,0,0.3,0.2c0,0.2-0.2,0.3-0.3,0.4c-0.2,0.1-0.3,0-0.3-0.2C33.3,33,33.4,32.8,33.6,32.8
		z"/>
	<path class="st25" d="M35.3,33c0,0.1-0.1,0.3-0.3,0.4s-0.4,0.1-0.5,0c0-0.1,0.1-0.3,0.3-0.4C35.1,32.9,35.3,32.9,35.3,33z"/>
	<path class="st25" d="M36.4,33.2c0.1,0.2-0.1,0.4-0.3,0.5s-0.4,0.1-0.5-0.1s0.1-0.4,0.3-0.5C36.1,33,36.3,33.1,36.4,33.2z"/>
	<path class="st14" d="M86.7,33.2l-0.1,1.3l0,0.5c0.3,0.6,1.4,0.9,1.2,1c-0.2,0,0.8,1,0.8,1s-1.8,0-1.2,0.2c0.7,0.3,1.3,1,1.1,0.9
		C88.3,38,85.9,37,85.9,37l2.4,1.8l-1-0.2l0.8,0.9l-1-0.5c0,0-0.7,0.3-0.7,0.3c0,0-1.1-0.7-1.1-0.7L85.3,39l-0.2,0.5l-1.3-0.6
		l-0.3,0.2l-1.4-0.6c-0.9-0.1-1.6-0.3-1.6-0.3s-0.1-0.2-0.7-0.6c-0.5-0.5-1.2-0.3-1.5-0.4c-0.3-0.1-0.9-0.8-0.9-0.8l-2-0.5l-0.4-0.8
		l-0.9-1.1l0.4-1.1l-1.3-0.9l-0.4-1.8l0.5-0.6l1.6,0.5l-0.1-1.2l1.7,0.9l0-1.3l0.2-0.6l0.8-0.2c0,0,1.2,0.1,1.5,0.1
		c0.3-0.1,2.3,0.6,2.3,0.6s1,0.9,1.6,1.2c0.6,0.3,1.2,0.4,1.4,0.8C84.6,31,86.7,33.2,86.7,33.2z"/>
	<path class="st15" d="M86,34.9c0,0,4.5,3.7,5.5,4.5c1.1,0.9,3.1,2,3.5,2.5c0.4,0.5,1.1,1.1,1.4,1.4c0.3,0.3,1.1,0.4,0.6-0.4
		c-0.5-0.7-2.7-3.4-3.8-4.1c-1.1-0.7-1.7-0.9-2.1-1.7c-0.4-0.8-0.8-1.5-1.4-2c-0.6-0.5-1.1-0.4-1.7-0.9c-0.6-0.5-1.1-0.6-1.6-0.9
		c-0.4-0.3-0.9-0.4-1.1-0.2C85.3,33.3,86,34.9,86,34.9z"/>
	<path class="st16" d="M75.9,27c-0.2-0.1-2-0.7-2.4-0.6c-0.4,0.1-2,1-2,1s-1.2,1.1-1.1,1.5c0.1,0.4-0.3,0,0.1,0.4
		c0.4,0.4,2-0.4,2.8-0.2c0.7,0.2,1.4,0.7,1.8,0.4c0.4-0.3,1.2-0.6,1.4-0.7c0.2-0.1,0.7-0.3,0.5-0.7C76.7,27.8,75.9,27,75.9,27z"/>
	<path class="st28" d="M75.2,28.2c0,0-2.1-0.6-2.6-0.9c-0.5-0.3-4.9-0.8-4.9-0.8s-1.1,0.3-1.2,0.6c-0.1,0.3-0.2,0.6,0.2,0.7
		c0.3,0,2.8-0.6,2.8-0.6L75.2,28.2z"/>
	<path class="st18" d="M75.4,27.6c0,0-2.9-1-3.5-1.3c-0.6-0.3-2.4-0.4-2.6-0.3c-0.3,0-1.6,0.5-1.6,0.5l-0.2,0.5c0,0,7.7,1,8.3,1.4
		C76.4,28.8,75.4,27.6,75.4,27.6z"/>
	<path class="st18" d="M75.7,30.4c-0.2-0.1-0.9-0.2-2.5-1.3c-1.7-1.1-3.9-1.2-5.6-1.5c-1.7-0.3-4,0.2-4.5,0.3
		c-0.5,0.1-2.9,1-3.4,1.2c-0.4,0.2-1,0.6-1,0.6s3.4-0.7,4.7-0.9c1.3-0.2,4.8,0.4,5.2,0.4c0.4,0,5.2,1.1,5.2,1.1l1.7,0.7L75.7,30.4z"
		/>
	<path class="st19" d="M88.6,38.1c0,0,2.6,1.6,2.8,2c0.3,0.3-2.3-1.2-2.5-1.4c-0.1-0.1,0.2,0.4,1.4,1.4c1.3,1,2.7,2.5,2.8,2.7
		c0.1,0.2-0.8-0.3-0.8-0.4c-0.1-0.1-3.6-3.4-3.6-3.4l-0.3-0.5L88.6,38.1z"/>
	<path class="st18" d="M86.8,36.5c0,0,2.5,1.4,4.1,2.8c1.6,1.4,3.2,2.9,4.2,5c1,2.1,1.2,4.4,0.9,4.9c-0.2,0.6-0.1,1-0.6,0.8
		c-0.5-0.2-1.4-1.4-1.8-2.3c-0.4-0.9-3.3-6-4.1-6.8c-0.8-0.9-1.3-1.7-1.8-2.1c-0.5-0.4-1.4-1.6-1.7-1.7c-0.2-0.1-0.6-0.5-0.6-0.5
		L86.8,36.5z"/>
	<path class="st18" d="M76,32.7c-0.4-0.2-1.7-0.9-2.8-1.4c-1-0.5-3.1-0.7-4.1-0.6c-1.1,0.1-5.7,1-6.1,1.2c-0.4,0.2-2.9,1.4-3.1,1.8
		c-0.3,0.4-1,1.4-1.2,1.8c-0.1,0.4,0,0.8,0.2,0.7c0.3-0.1,3.9-1.6,4.4-1.5c0.5,0,5-1.3,5.6-1.4c0.6-0.2,3.1-0.3,3.8-0.3
		c0.7,0,0.9-0.2,1.8,0.2c0.9,0.4,0.3,0.1,1.2,0.6c0.9,0.5,0.5,0.8,0.9,0.5C76.9,33.8,76,32.7,76,32.7z"/>
	<path class="st29" d="M77.8,34.3c0,0-3.1-0.1-4.1-0.4c-1.1-0.2-4.7-0.6-5.7-0.1c-1,0.4-4.8,1.6-6.2,3c-1.4,1.4-3.1,3.6-3.2,4.5
		c-0.1,0.9,0.1,1.4,0.4,1.7c0.3,0.4,0.6,0.2,1.1,0.4c0.5,0.2,2.1-0.4,3.8-1.3c1.7-0.9,6.2-2.6,7.5-3.9c1.2-1.3,3.7-2.7,4.1-3
		C75.9,34.8,77.8,34.3,77.8,34.3z"/>
	<path class="st18" d="M78.5,35.9c0,0-3.6,1.5-3.8,1.6c-0.2,0.1-6,5.2-6.6,6.3c-0.6,1.1-1.8,3.6-1.9,4.1c-0.1,0.6-0.1,0.8,0.4,1.4
		c0.5,0.6,2.2,1.6,2.8,1.4c0.6-0.2,3.1-1.9,3.7-2.3c0.6-0.4,4.1-4.1,4.8-5.6c0.8-1.5,2.2-5.8,2.1-6.4c-0.1-0.5-0.2-1-0.2-1
		L78.5,35.9z"/>
	<path class="st28" d="M84.6,37.6c0,0,2.2,1.7,3.1,2.6c0.9,0.8,4.1,4.8,4.5,6.5c0.4,1.7,0.6,4.7,0.4,5.4c-0.2,0.7-0.3,0.9-0.9,1.2
		c-0.7,0.4-0.8,0.9-1.5,0.2c-0.7-0.7-1.8-2.4-2.2-3.1c-0.4-0.8-1.4-5.4-1.8-6.2c-0.4-0.8-0.4-2.7-0.6-3.3c-0.2-0.6-0.5-1.8-0.7-2
		c-0.1-0.2-0.8-0.8-1-1C83.8,37.7,84.6,37.6,84.6,37.6z"/>
	<path class="st21" d="M82.8,37.1c0,0,2,2.5,2.7,3.8c0.7,1.3,3.6,7.8,2,11.2c-1.6,3.4-2,3.5-2.6,3.1c-0.7-0.4-2.1-2-2.6-3.6
		c-0.5-1.7-1.9-8-1.6-9.4c0.3-1.4,0.9-4.6,1-5c0.1-0.4,0.6-0.9,0.6-0.9L82.8,37.1z"/>
	<path class="st22" d="M83.4,38.8c0,0,1.2,1.7,1.3,2.1c0.1,0.4-0.3,0.8-0.3,0.8s0.7,2.7,0.8,3.1c0.2,0.5,0.2,3.8,0.1,3.3
		c-0.1-0.4-1.4-7.2-1.4-7.2L83,39.4l-0.2,1.9c0,0,1.5,7,1.3,6.9c-0.1-0.1-1.7-8.3-1.7-8.3l0.1-1.1L83.4,38.8z"/>
	<path class="st30" d="M73.2,34.2c-0.2,0-3.4-0.1-3.9-0.1c-0.5,0-5.4,2.4-5.8,2.5c-0.4,0.1-2,1.5-2,1.5s5.1-2.5,5.5-2.7
		c0.4-0.2,3.7-0.8,3.7-0.8s-6.8,3-7.2,3.2c-0.4,0.2-3.5,2.2-3.6,2.3c-0.1,0.1-0.2,0.5-0.2,0.5s10.2-4.9,10.4-5
		c0.3-0.1-10.1,5.4-10.1,5.8c0,0.4,0.5,0.9,0.5,0.9s6.4-3.8,6.6-4c0.2-0.2,5.1-2.6,5.6-2.7c0.5-0.1,1.1-0.6,1.1-0.6l1.2-0.2
		L73.2,34.2z"/>
	<path class="st19" d="M71.8,31.3l-0.2,0.6c0,0-9.2,1.3-9.4,1.4c-0.2,0-2.4-0.2-2.4,0.4c0,0.6,0,0.9,0,0.9s0.8,0.2,1.5-0.1
		c0.7-0.4,11.9-2.2,11.9-2.2l1.3,0.6c0,0-0.9-0.9-1.2-1.1C73,31.5,71.8,31.3,71.8,31.3z"/>
	<path class="st31" d="M79,38.5l-0.7,1.8L77.8,39l-5.7,7.7l-1.4,0.7l5.3-7.8l-0.1-0.7L70,46.1l-1.3,1.3c0,0-0.1-1.1-0.2-1.3
		c0-0.3,2.6-3.7,3-4.3c0.4-0.6,3.5-3.5,3.8-3.7c0.3-0.2,1-0.6,1.8-0.7c0.8-0.2,1,0,1.3-0.1c0.3-0.1,0.4,0.2,0.4,0.2L79,38.5z"/>
	<path class="st19" d="M88.4,41.1l-1.2-0.4c0,0,3.2,4.8,3.2,5.3c0,0.4,0.6,3.6,0.6,3.7c0.1,0.1,0.2,0.5-0.1,0.2
		c-0.3-0.3-2.8-6.9-2.8-6.9l-1.4-1.8c0,0-0.2,0.8-0.2,0.7c0-0.1-0.2-0.9-0.2-0.9L86,39.6L88.4,41.1z"/>
	<path class="st24" d="M86.7,32.1l-0.1,1.3l0,0.5c0.3,0.6,1.2,0.8,1,0.9c-0.2,0.1,0.7,1,0.7,1s-1.6,0.1-1,0.3
		c0.6,0.2,1.1,0.9,0.9,0.8c-0.2-0.1-2.2-0.9-2.2-0.9l2.1,1.6L87,37.3l0.7,0.8l-0.8-0.4c0,0-0.6,0.3-0.6,0.3c0,0-0.9-0.6-0.9-0.6
		L85.2,38L85,38.4l-1.1-0.5l-0.3,0.3l-1.2-0.5c-0.8,0-1.4-0.2-1.4-0.2s-0.1-0.1-0.6-0.6c-0.5-0.4-1.1-0.2-1.3-0.3
		c-0.2-0.1-0.8-0.8-0.8-0.8l-1.8-0.4l-0.3-0.7l-0.8-1.1l0.4-1.1l-1.1-0.8l-0.3-1.7l0.5-0.6l1.4,0.4l0-1.1l1.5,0.8l0-1.3l0.2-0.6
		l0.7-0.2c0,0,1,0.1,1.3,0c0.3-0.1,2,0.5,2,0.5s0.8,0.8,1.3,1c0.5,0.3,1,0.4,1.2,0.7C84.9,30.1,86.7,32.1,86.7,32.1z"/>
	<path class="st25" d="M88.1,33.7c0.3-0.2-0.2-0.7-0.2-0.7l0-0.8l-0.8-0.4l0.2-0.6l-0.6-0.3l-0.3-0.8l-0.9-0.5l0-0.7l-1.2-0.3
		l0.2-0.6l-1.3-0.1l0.2-0.6l-1-0.2l-1.1-0.6l-0.6-0.4l-0.2,0.6l-1-0.9l-0.2,0.5l-0.5-0.3l-0.6,0.6l-0.5-0.4l-0.2,0.6l-0.7-0.7
		l-0.3,1l-1.2-0.2l0,1.3L74.5,28l-0.3,0.8l-0.6,0.8l0.1,0.8l0.7,1l0.4,0.5l1.5,0l0.1-1.9l0.7,0.7l0-1l0.8,0.6l1-0.7l0.2-1.3l0.6,0.7
		l1.1-0.4l0.3,0.8l1.3,0.1l0,0.9l1.5,0.3l-0.2,0.6l1.1,0.2c0,0,0,0.5-0.1,0.6c-0.1,0.2-0.5,0.5,0.1,0.8c0.6,0.3,0.2,0.4,0.1,0.6
		c0,0.2,0.4,0.7,0.4,0.7l0.9,0.5l1.2,0.2l0.6-0.5L88.1,33.7z"/>
	<path class="st25" d="M78.6,30.4c0,0.4,0.1,0.8,0.3,0.8c0.1,0,0.2-0.3,0.2-0.7c0-0.4-0.1-0.8-0.3-0.8C78.6,29.7,78.5,30,78.6,30.4z
		"/>
	<path class="st25" d="M80.9,30.3c-0.1,0.3-0.1,0.7,0,0.7c0.1,0.1,0.3-0.2,0.4-0.5c0.1-0.3,0.1-0.7,0-0.7
		C81.2,29.7,81.1,30,80.9,30.3z"/>
	<path class="st25" d="M84.8,33.8c-0.4,0.1-0.6,0.3-0.5,0.4c0.1,0.1,0.4,0.1,0.8,0c0.4-0.1,0.6-0.3,0.5-0.4
		C85.5,33.7,85.2,33.7,84.8,33.8z"/>
	<path class="st25" d="M82.9,32c-0.3,0.2-0.5,0.4-0.4,0.5c0.1,0.1,0.4,0,0.7-0.2c0.3-0.2,0.5-0.4,0.4-0.5
		C83.5,31.7,83.2,31.8,82.9,32z"/>
	<path class="st25" d="M82.5,30.8c-0.2,0.3-0.2,0.6-0.1,0.7c0.1,0.1,0.3-0.1,0.5-0.4c0.2-0.3,0.2-0.6,0.1-0.7
		C82.9,30.3,82.7,30.5,82.5,30.8z"/>
	<path class="st25" d="M77.5,31c0.2,0.4,0.4,0.8,0.5,0.8c0.1,0,0.1-0.3-0.1-0.8c-0.2-0.4-0.4-0.8-0.5-0.8
		C77.2,30.2,77.3,30.6,77.5,31z"/>
	<path class="st25" d="M76.4,31.7c0.3,0.4,0.6,0.7,0.7,0.7c0.1,0-0.1-0.4-0.3-0.8c-0.3-0.4-0.6-0.7-0.7-0.7
		C76,30.9,76.2,31.3,76.4,31.7z"/>
	<path class="st25" d="M79.2,32.6c0,0.2,0.1,0.4,0.2,0.4c0.1,0,0.1-0.1,0.1-0.3c0-0.2-0.1-0.4-0.2-0.4
		C79.2,32.2,79.2,32.4,79.2,32.6z"/>
	<path class="st25" d="M83.5,37.3c0,0.2,0.1,0.4,0.2,0.4c0.1,0,0.1-0.1,0-0.3c0-0.2-0.1-0.4-0.2-0.4C83.5,37,83.4,37.1,83.5,37.3z"
		/>
	<path class="st25" d="M78.3,32.6c0.1,0.2,0.3,0.4,0.4,0.4c0.1,0,0-0.2-0.1-0.4c-0.1-0.2-0.3-0.4-0.4-0.4
		C78.1,32.2,78.1,32.4,78.3,32.6z"/>
	<path class="st25" d="M84.6,37.2c0.1,0.2,0.3,0.4,0.4,0.4c0.1,0,0-0.2-0.1-0.4c-0.1-0.2-0.3-0.4-0.4-0.4
		C84.4,36.8,84.5,36.9,84.6,37.2z"/>
	<path class="st25" d="M78.4,33.6c0.2,0.2,0.4,0.4,0.5,0.4c0.1,0-0.1-0.2-0.3-0.4c-0.2-0.2-0.4-0.4-0.5-0.4
		C78.1,33.2,78.2,33.4,78.4,33.6z"/>
	<path class="st25" d="M75.8,32.3c0.4,0.3,0.8,0.5,0.8,0.4c0.1-0.1-0.2-0.4-0.6-0.7c-0.4-0.3-0.8-0.5-0.8-0.4
		C75.1,31.6,75.4,31.9,75.8,32.3z"/>
	<path class="st25" d="M85.7,35c-0.4,0-0.8,0.1-0.7,0.2c0,0.1,0.4,0.2,0.9,0.2c0.4,0,0.8-0.1,0.7-0.2C86.5,35.2,86.1,35.1,85.7,35z"
		/>
	<path class="st25" d="M85.5,36.1c-0.4-0.3-0.8-0.4-0.9-0.3c0,0.1,0.3,0.3,0.7,0.6c0.4,0.3,0.8,0.4,0.9,0.3
		C86.3,36.6,85.9,36.4,85.5,36.1z"/>
	<path class="st25" d="M80,30c0,0.4,0.1,0.7,0.2,0.8c0.1,0,0.2-0.3,0.2-0.7c0-0.4-0.1-0.7-0.2-0.8C80,29.3,79.9,29.6,80,30z"/>
	<path class="st25" d="M81.1,31.8c-0.1,0.2,0,0.4,0.1,0.5c0.1,0.1,0.3-0.1,0.3-0.3c0.1-0.2,0-0.4-0.1-0.5
		C81.3,31.5,81.2,31.6,81.1,31.8z"/>
	<path class="st25" d="M83.2,34.5c-0.3,0.1-0.4,0.2-0.3,0.3c0.1,0.1,0.4,0.1,0.6,0c0.3-0.1,0.4-0.2,0.3-0.3
		C83.7,34.4,83.4,34.4,83.2,34.5z"/>
	<path class="st25" d="M76.4,33.5c-0.3,0.1-0.4,0.3-0.3,0.3c0.1,0.1,0.4,0,0.6-0.1c0.3-0.1,0.4-0.3,0.3-0.3
		C76.9,33.4,76.6,33.4,76.4,33.5z"/>
	<path class="st25" d="M82.5,33.1c-0.1,0.2-0.1,0.4,0,0.5c0.1,0.1,0.3,0,0.4-0.2c0.1-0.2,0.1-0.4,0-0.5
		C82.8,32.8,82.6,32.9,82.5,33.1z"/>
	<path class="st25" d="M80,31.8c0,0.3,0.2,0.5,0.3,0.6c0.1,0,0.2-0.1,0.1-0.4c0-0.3-0.2-0.5-0.3-0.6C80,31.4,79.9,31.5,80,31.8z"/>
	<path class="st25" d="M81.7,37c0,0.3,0.2,0.5,0.3,0.6c0.1,0,0.2-0.1,0.1-0.4c0-0.3-0.2-0.5-0.3-0.6C81.7,36.5,81.7,36.7,81.7,37z"
		/>
	<path class="st25" d="M84.2,33c-0.4,0.1-0.6,0.3-0.5,0.4c0.1,0.1,0.4,0.1,0.8-0.1c0.4-0.1,0.6-0.3,0.5-0.4
		C84.9,32.8,84.6,32.8,84.2,33z"/>
	<path class="st25" d="M81,33.3c-0.1,0.2,0.1,0.4,0.3,0.5c0.2,0.1,0.4,0,0.5-0.2c0.1-0.2-0.1-0.4-0.3-0.5C81.3,33,81.1,33.1,81,33.3
		z"/>
	<path class="st25" d="M79.8,33.4c-0.1,0.2,0.1,0.4,0.3,0.5c0.2,0.1,0.4,0.1,0.5-0.1c0-0.1-0.1-0.4-0.3-0.5
		C80,33.2,79.8,33.3,79.8,33.4z"/>
	<path class="st25" d="M81.9,34.9c-0.1,0.2,0.1,0.4,0.3,0.5c0.2,0.1,0.4,0.1,0.5-0.1c0.1-0.2-0.1-0.4-0.3-0.5
		C82.1,34.7,81.9,34.7,81.9,34.9z"/>
	<path class="st25" d="M83.2,35.9c-0.1,0.2,0.1,0.4,0.3,0.5c0.2,0.1,0.4,0.1,0.5-0.1c0.1-0.2-0.1-0.4-0.3-0.5
		C83.5,35.8,83.3,35.8,83.2,35.9z"/>
	<path class="st25" d="M80.8,35.3c-0.2-0.1-0.4,0-0.4,0.2c0,0.2,0.2,0.4,0.4,0.4c0.2,0.1,0.4,0,0.4-0.2C81.2,35.5,81,35.4,80.8,35.3
		z"/>
	<path class="st25" d="M80.2,34.3c-0.2-0.1-0.3,0-0.3,0.2c0,0.2,0.2,0.3,0.3,0.4c0.2,0.1,0.3,0,0.3-0.2
		C80.6,34.5,80.4,34.3,80.2,34.3z"/>
	<path class="st25" d="M78.5,34.5c0,0.1,0.1,0.3,0.3,0.4c0.2,0.1,0.4,0.1,0.5,0c0-0.1-0.1-0.3-0.3-0.4
		C78.8,34.4,78.6,34.4,78.5,34.5z"/>
	<path class="st25" d="M77.5,34.7c-0.1,0.2,0.1,0.4,0.3,0.5c0.2,0.1,0.4,0.1,0.5-0.1c0.1-0.2-0.1-0.4-0.3-0.5
		C77.8,34.5,77.5,34.6,77.5,34.7z"/>
</g>
</svg>
