<svg xmlns="http://www.w3.org/2000/svg" version="1.1" xmlns:xlink="http://www.w3.org/1999/xlink" xmlns:svgjs="http://svgjs.dev/svgjs" viewBox="0 0 108 108" style="" x="0" y="0"><style type="text/css">
	.st0{fill:#A1D143;}
	.st1{fill:#94BE3E;}
	.st2{fill:#CEE07E;}
	.st3{fill:#83AB37;}
	.st4{fill:#829F35;}
	.st5{fill:#92BB3D;}
	.st6{fill:#7DA842;}
	.st7{display:none;}
	.st8{display:inline;fill:none;}
	.st9{fill:none;stroke:#94BE3E;stroke-width:2.4562;stroke-miterlimit:10;}
	.st10{fill:#ACBF73;}
	.st11{fill:#80A636;}
	.st12{fill:#E6E9DE;}
	.st13{fill:#CADFDD;}
	.st14{fill:#E8E7CA;}
	.st15{fill:#F8EFDE;}
	.st16{fill:#97AF3E;}
	.st17{fill:#E2E4D0;}
</style><g><path class="st0" d="M38.4,27.1c-0.9,1-1.4,2-0.8,3.6c0.7,1.6,1.6,2.1,1.2,2.9c-0.3,0.8-0.7,2.2-0.3,3.4c0.3,1.2,1,2.7,1.1,3.9
	c0.1,1.2,0.3,3.7,1.3,4.4c1,0.8,10.1,8.3,11.8,10c1.7,1.7,5.8,5.2,8,4.3c0.1,0,0.1-0.1,0.1-0.1c-8.7-13.4-18.8-28.3-22-32.9
	C38.8,26.7,38.6,26.8,38.4,27.1z"></path><path class="st1" d="M56.8,39.9c-0.9-1.4-1.3-1.7-2.8-3.1c-1.4-1.4-0.2-1.9-2.1-2.7c-1.9-0.8-2.3-1.3-3.4-2.9
	c-1.1-1.6-2.1-2.1-3.4-2.6c-1.3-0.4-1-1.3-2.1-1.9c-1.1-0.6-1-0.7-2.1-0.6c-0.9,0.1-1.3,0-1.8,0.4c3.1,4.6,13.2,19.5,22,32.9
	C63,57.8,57.6,41.3,56.8,39.9z"></path><path class="st2" d="M57.7,50.7c-1.2,0.3-2.1,0.7-2.5,2.2c-0.4,1.5,0,2.4-0.7,2.7c-0.7,0.4-1.7,1.3-2.1,2.3
	c-0.4,1.1-0.7,2.5-1.3,3.4c-0.6,0.9-1.7,2.8-1.4,3.9c0.3,1.1,2.7,11.4,3,13.4c0.3,2.1,1.3,6.8,3.3,7.3c0.1,0,0.1,0,0.2,0
	c1-14.3,1.8-30.5,2.1-35.4C58.2,50.7,58,50.7,57.7,50.7z"></path><path class="st3" d="M63.9,69.6c0.1-1.5-0.1-1.9-0.3-3.7c-0.2-1.8,0.9-1.5-0.1-3c-0.9-1.6-0.9-2.2-0.9-3.9c0-1.7-0.4-2.6-1.1-3.7
	c-0.7-1,0-1.5-0.5-2.5s-0.4-1-1.2-1.5c-0.7-0.4-0.9-0.7-1.5-0.7c-0.2,5-1.1,21.1-2.1,35.4C58.7,86,63.7,71.1,63.9,69.6z"></path><path class="st0" d="M24.3,58.9c0.1,1.2,0.4,2.1,1.8,2.4c1.4,0.2,2.3-0.2,2.6,0.5c0.3,0.6,1,1.6,2,2c1,0.3,2.3,0.5,3.1,1
	c0.8,0.5,2.5,1.5,3.6,1.1c1.1-0.4,11.5-3.9,13.5-4.4c2.1-0.5,6.8-2,7.6-4.2c0-0.1,0-0.1,0-0.2c-13.8,0.3-29.4,0.9-34.2,1.2
	C24.3,58.4,24.2,58.6,24.3,58.9z"></path><path class="st4" d="M43.6,50.7c-1.5,0-1.9,0.2-3.7,0.7s-1.3-0.8-3,0.4S34.7,52.9,33,53c-1.7,0.1-2.6,0.6-3.7,1.5
	c-1.1,0.8-1.5,0.1-2.5,0.7c-1,0.6-1,0.5-1.6,1.4c-0.5,0.7-0.8,1-0.9,1.6c4.8-0.2,20.4-0.9,34.2-1.2C58.7,54.6,45,50.7,43.6,50.7z"></path><path class="st5" d="M82.9,59.8c0.1-0.9,0-1.6-0.9-2c-1-0.4-1.7-0.2-1.8-0.7c-0.1-0.5-0.5-1.3-1.2-1.7c-0.7-0.4-1.6-0.7-2.1-1.2
	c-0.5-0.5-1.6-1.5-2.5-1.3c-0.9,0.1-8.8,1.2-10.4,1.3c-1.6,0.1-5.2,0.5-6.1,2c0,0,0,0.1,0,0.1c10,1.7,21.4,3.4,24.9,3.9
	C82.9,60.1,82.9,60,82.9,59.8z"></path><path class="st1" d="M67.8,63.1c1.1,0.2,1.4,0.1,2.7,0c1.4-0.1,0.9,0.7,2.2,0.2c1.3-0.6,1.8-0.5,3-0.4c1.2,0.1,2-0.1,2.9-0.5
	c0.9-0.5,1.1,0.1,1.9-0.2c0.8-0.3,0.8-0.2,1.4-0.8c0.4-0.5,0.7-0.6,0.8-1.1c-3.5-0.5-14.9-2.2-24.9-3.9
	C57.4,58.1,66.8,62.9,67.8,63.1z"></path><path class="st0" d="M77.2,29.7c0.9,0.6,1.5,1.3,1.1,2.5c-0.5,1.2-1.2,1.8-0.8,2.3s0.9,1.6,0.7,2.5c-0.2,0.9-0.6,2.1-0.6,3
	c0,0.9,0.1,2.7-0.8,3.5c-0.8,0.7-8.5,7.5-9.8,8.9c-1.4,1.5-4.8,4.6-6.9,4.3c-0.1,0-0.1-0.1-0.1-0.1c6.6-11,14.4-23.4,16.8-27.2
	C76.8,29.5,76.9,29.6,77.2,29.7z"></path><path class="st6" d="M61.6,41.6c0.7-1.2,1.1-1.4,2.2-2.7c1.2-1.3,0-1.4,1.7-2.2c1.7-0.8,2-1.3,2.9-2.6c0.9-1.3,1.7-1.8,2.9-2.3
	c1.2-0.5,0.8-1.1,1.8-1.7c1-0.6,0.9-0.6,1.9-0.7c0.8-0.1,1.2-0.2,1.7,0.1c-2.4,3.8-10.2,16.2-16.8,27.2
	C57.7,55.6,60.9,42.7,61.6,41.6z"></path><path class="st9" d="M47.6,41.6c0,0,6.6,11.9,10,19.2"></path><path class="st0" d="M26.3,10.7c-0.9,1-1.4,2-0.8,3.6c0.7,1.6,1.6,2.1,1.2,2.9c-0.3,0.8-0.7,2.2-0.3,3.4c0.3,1.2,1,2.7,1.1,3.9
	c0.1,1.2,0.3,3.7,1.3,4.4c1,0.8,10.1,8.3,11.8,10c1.7,1.7,5.8,5.2,8,4.3c0.1,0,0.1-0.1,0.1-0.1c-8.7-13.4-18.8-28.3-22-32.9
	C26.7,10.3,26.5,10.5,26.3,10.7z"></path><path class="st1" d="M44.7,23.5c-0.9-1.4-1.3-1.7-2.8-3.1c-1.4-1.4-0.2-1.9-2.1-2.7c-1.9-0.8-2.3-1.3-3.4-2.9
	c-1.1-1.6-2.1-2.1-3.4-2.6c-1.3-0.4-1-1.3-2.1-1.9s-1-0.7-2.1-0.6c-0.9,0.1-1.3,0-1.8,0.4c3.1,4.6,13.2,19.5,22,32.9
	C50.9,41.4,45.5,24.9,44.7,23.5z"></path><path class="st0" d="M15,49.1c0.1,1.2,0.4,2.1,1.8,2.4c1.4,0.2,2.3-0.2,2.6,0.5c0.3,0.6,1,1.6,2,2c1,0.3,2.3,0.5,3.1,1
	c0.8,0.5,2.5,1.5,3.6,1.1c1.1-0.4,11.5-3.9,13.5-4.4c2.1-0.5,6.8-2,7.6-4.2c0-0.1,0-0.1,0-0.2c-13.8,0.3-29.4,0.9-34.2,1.2
	C15,48.6,15,48.8,15,49.1z"></path><path class="st1" d="M34.3,40.9c-1.5,0-1.9,0.2-3.7,0.7s-1.3-0.8-3,0.4c-1.7,1.1-2.3,1.2-3.9,1.3c-1.7,0.1-2.6,0.6-3.7,1.5
	c-1.1,0.8-1.5,0.1-2.5,0.7c-1,0.6-1,0.5-1.6,1.4c-0.5,0.7-0.8,1-0.9,1.6c4.8-0.2,20.4-0.9,34.2-1.2C49.5,44.8,35.8,40.9,34.3,40.9z"></path><path class="st0" d="M68.4,18.8c0.9,0.6,1.5,1.3,1.1,2.5c-0.5,1.2-1.2,1.8-0.8,2.3s0.9,1.6,0.7,2.5c-0.2,0.9-0.6,2.1-0.6,3
	c0,0.9,0.1,2.7-0.8,3.5c-0.8,0.7-8.5,7.5-9.8,8.9c-1.4,1.5-4.8,4.6-6.9,4.3c-0.1,0-0.1-0.1-0.1-0.1c6.6-11,14.4-23.4,16.8-27.2
	C68,18.6,68.1,18.7,68.4,18.8z"></path><path class="st1" d="M52.8,30.7c0.7-1.2,1.1-1.4,2.2-2.7c1.2-1.3,0-1.4,1.7-2.2c1.7-0.8,2-1.3,2.9-2.6c0.9-1.3,1.7-1.8,2.9-2.3
	c1.2-0.5,0.8-1.1,1.8-1.7c1-0.6,0.9-0.6,1.9-0.7c0.8-0.1,1.2-0.2,1.7,0.1C65.4,22.3,57.6,34.7,51,45.7
	C48.9,44.8,52.1,31.9,52.8,30.7z"></path><path class="st9" d="M62.5,67.8c0,0-6.7-11.8-10.1-19.2"></path><path class="st0" d="M83.9,98.6c0.9-1,1.4-2,0.8-3.6c-0.7-1.6-1.6-2.1-1.2-2.9c0.3-0.8,0.7-2.2,0.3-3.4c-0.3-1.2-1-2.7-1.1-3.9
	c-0.1-1.2-0.3-3.7-1.4-4.4c-1-0.8-10.1-8.3-11.8-10c-1.7-1.7-5.8-5.2-8-4.3c-0.1,0-0.1,0.1-0.1,0.1c8.8,13.4,19,28.3,22.1,32.8
	C83.5,99,83.7,98.8,83.9,98.6z"></path><path class="st1" d="M65.5,85.9c0.9,1.4,1.3,1.7,2.8,3.1c1.5,1.4,0.2,1.9,2.1,2.7c1.9,0.8,2.3,1.3,3.5,2.9c1.1,1.6,2.1,2.1,3.5,2.5
	c1.3,0.4,1,1.3,2.1,1.9c1.1,0.6,1,0.7,2.1,0.5c0.9-0.1,1.3,0,1.8-0.4c-3.1-4.6-13.3-19.5-22.1-32.8C59.2,68,64.6,84.5,65.5,85.9z"></path><path class="st10" d="M95,60.2c-0.1-1.2-0.4-2.1-1.8-2.4c-1.4-0.2-2.3,0.2-2.6-0.4c-0.3-0.6-1-1.6-2-1.9c-1-0.3-2.3-0.5-3.1-1
	c-0.8-0.5-2.5-1.5-3.6-1.1c-1.1,0.4-11.5,3.9-13.5,4.4c-2.1,0.5-6.8,2-7.6,4.2c0,0.1,0,0.1,0,0.2c13.8-0.3,29.4-1.1,34.2-1.3
	C95.1,60.6,95.1,60.4,95,60.2z"></path><path class="st11" d="M75.8,68.4c1.5,0,1.9-0.2,3.7-0.7c1.8-0.4,1.3,0.7,3-0.4s2.3-1.2,3.9-1.3c1.7-0.1,2.6-0.6,3.7-1.5
	c1.1-0.8,1.5-0.1,2.5-0.7s1-0.5,1.6-1.4c0.5-0.7,0.8-1,0.9-1.6c-4.8,0.2-20.4,0.9-34.2,1.3C60.6,64.6,74.3,68.4,75.8,68.4z"></path><path class="st0" d="M41.8,90.6c-0.9-0.6-1.6-1.3-1.1-2.5c0.4-1.2,1.2-1.8,0.8-2.3c-0.4-0.5-0.9-1.5-0.7-2.5c0.2-0.9,0.6-2.1,0.6-3
	c0-0.9-0.1-2.7,0.7-3.5c0.8-0.7,8.4-7.5,9.8-9c1.4-1.5,4.8-4.6,6.9-4.3c0.1,0,0.1,0.1,0.1,0.1c-6.6,11.1-14.3,23.5-16.7,27.3
	C42.2,90.8,42,90.8,41.8,90.6z"></path><path class="st1" d="M57.4,78.7c-0.7,1.2-1.1,1.4-2.2,2.7c-1.2,1.3,0,1.4-1.7,2.3c-1.7,0.8-2,1.3-2.9,2.6c-0.9,1.3-1.7,1.8-2.9,2.4
	c-1.2,0.5-0.8,1.1-1.7,1.7s-0.9,0.6-1.9,0.7c-0.8,0.1-1.2,0.2-1.7,0c2.4-3.8,10.1-16.2,16.7-27.3C61.2,64.6,58,77.5,57.4,78.7z"></path><path class="st9" d="M37.4,65.7c0,0,12.8-4.7,20.6-6.8"></path><path class="st0" d="M42.9,64.4c-0.9-0.2-1.7-0.1-2.1,1.1c-0.5,1.2-0.3,2-0.8,2.2c-0.5,0.2-1.4,0.6-1.8,1.5c-0.4,0.8-0.7,2-1.2,2.7
	c-0.5,0.7-1.4,2.2-1.2,3.2c0,1.2,2.8,10.5,3.6,12.2c0.5,1.8,2.4,5.7,4.3,6c0,0,0.1,0,0.1,0c-3.1-11.3-1.6-24.7-0.5-28.7
	C43.3,64.5,43.1,64.4,42.9,64.4z"></path><path class="st1" d="M47.3,80.7c0-1.1-0.2-1.4-0.5-2.8c-0.3-1.4,0.6-1-0.1-2.3c-0.7-1.4-0.7-1.9-0.7-3.2c0.1-1.3-0.2-2.1-0.6-3.1
	c-0.5-1,0.1-1.2-0.2-2.1c-0.3-0.9-0.2-0.9-0.7-1.6c-0.4-0.5-0.6-0.8-1-1c-1.1,4-2.7,17.4,0.5,28.7C45.4,92.8,46.9,81.7,47.3,80.7z"></path><path class="st0" d="M43.7,61.8c0.6-0.9,0.9-1.6,0-2.6c-0.9-1-1.7-1.4-1.5-2c0.2-0.6,0.3-1.8-0.1-2.8c-0.4-1-1-2.2-1.1-3.3
	c-0.1-1.1-0.3-3.2-1-3.9c-0.7-0.7-7.3-7.7-9-8.7c-1.3-1.4-5.6-3.5-7.6-2.3c0,0-0.1,0.1-0.1,0.1c10.2,8.5,14.2,25.3,20,26.1
	C43.5,62.2,43.6,62,43.7,61.8z"></path><path class="st1" d="M28.2,52.2c0.6,1.3,1,1.5,2,2.8c1.1,1.3,0.1,1.7,1.6,2.4c1.4,0.6,1.8,1.1,2.7,2.4c1,1.3,1.9,1.6,3,1.8
	c1.2,0.2,1,0.9,2.1,1.2c1.1,0.2,1,0.3,2,0.1c0.8-0.2,1.2-0.2,1.6-0.6c-5.8-0.8-9.8-17.6-20-26.1C22.8,36.9,28.2,50.3,28.2,52.2z"></path><path class="st0" d="M38.3,64.6c-0.6-1.2-1.4-2-2.9-2c-1.5,0.1-2.2,0.7-2.8,0.1c-0.6-0.6-1.9-1.4-3.2-1.5c-1.3-0.1-2.8,0.1-4.1-0.2
	c-1.3-0.3-4.1-0.5-5.1,0.1c-1.1,0.7-9.5,5.9-11.1,6.8c-1.9,0.9-5.3,3.1-4.5,5.7c0,0.1,0.1,0.1,0.1,0.2c13.9-3.1,29.1-7.3,33.9-8.7
	C38.6,65.1,38.5,64.8,38.3,64.6z"></path><path class="st1" d="M20.5,77.9c1.5-0.4,2-0.7,4-1.7c1.9-0.9,1.4,0.4,3.2-1.2c1.7-1.6,2.3-1.8,4-2.4c1.7-0.6,2.6-1.3,3.5-2.5
	c0.8-1.1,1.5-0.5,2.3-1.4c0.8-0.9,0.9-0.7,1.1-1.8c0.2-0.8,0.3-1.2,0.1-1.8c-4.8,1.4-19.9,5.6-33.9,8.7C6.8,77,18.8,78.7,20.5,77.9z
	"></path><path class="st9" d="M73.2,44.2c0,0-9.4,9.8-15.5,15.2"></path><path class="st0" d="M68.8,47.8c0.9-0.3,1.5-0.6,1.4-1.9c-0.1-1.2-0.6-1.9-0.2-2.3c0.4-0.4,1-1.2,1-2.1c0-0.9-0.2-2.1-0.1-3
	c0.1-0.9,0.3-2.6-0.4-3.4c-0.5-1-7.1-8.3-8.6-9.4c-1.3-1.4-4.7-4.1-6.5-3.5c0,0-0.1,0.1-0.1,0.1c7.8,8.8,12.2,21.6,13,25.6
	C68.4,47.9,68.6,47.9,68.8,47.8z"></path><path class="st1" d="M57.7,35c0.5,1,0.8,1.2,1.7,2.3c0.9,1.2-0.1,1.2,1.2,2c1.3,0.9,1.5,1.4,2,2.6c0.5,1.2,1.1,1.9,2,2.5
	c0.9,0.7,0.4,1.1,1.1,1.8c0.6,0.7,0.5,0.7,1.3,1.1c0.6,0.3,0.9,0.5,1.4,0.5c-0.7-4-5.2-16.8-13-25.6C54.1,23.4,57.6,34,57.7,35z"></path><path class="st0" d="M69.2,50.5c-0.2,1-0.1,1.8,1.2,2.4c1.2,0.6,2.1,0.5,2.2,1.2c0.1,0.7,0.5,1.8,1.3,2.5c0.8,0.7,1.8,1.6,2.4,2.5
	c0.6,0.9,1.7,2.8,2.7,3.1c1,0.3,9.9,3.7,11.9,3.9c1.8,0.7,6.5,0.7,7.8-1.2c0,0,0-0.1,0-0.2c-12.9-3.2-23.8-16.5-29.4-14.7
	C69.3,50.1,69.2,50.2,69.2,50.5z"></path><path class="st1" d="M87.3,52.3c-1.2-0.9-1.5-1-3.1-1.7c-1.5-0.7-0.9-1.5-2.5-1.5c-1.6,0-2.1-0.2-3.5-1c-1.4-0.7-2.4-0.6-3.5-0.3
	c-1.2,0.3-1.3-0.4-2.4-0.1c-1.1,0.3-1.1,0.2-1.8,0.8c-0.6,0.5-1,0.7-1.2,1.2c5.5-1.8,16.5,11.5,29.4,14.7C99,63.7,88.2,54,87.3,52.3
	z"></path><path class="st0" d="M72.8,45.6c1.1,0.8,2.1,1.2,3.5,0.5c1.3-0.7,1.7-1.6,2.5-1.3c0.8,0.3,2.3,0.4,3.5-0.1c1.2-0.5,2.5-1.3,3.8-1.7
	c1.3-0.3,3.9-1.4,4.5-2.4c0.7-1.1,5.9-9.5,7-11c1.3-1.7,3.4-5.1,1.5-7.1c0-0.1-0.1-0.1-0.2-0.1C87.8,31.4,76,41.8,72.3,45.2
	C72.4,45.3,72.6,45.5,72.8,45.6z"></path><path class="st1" d="M83,25.8c-1.2,1-1.5,1.6-2.8,3.2c-1.3,1.7-1.4,0.2-2.3,2.4c-0.8,2.2-1.2,2.6-2.6,3.9c-1.3,1.3-1.8,2.4-2.1,3.8
	c-0.3,1.4-1.1,1.1-1.5,2.3c-0.3,1.1-0.5,1-0.2,2.1c0.2,0.8,0.2,1.2,0.7,1.7c3.7-3.3,15.5-13.7,26.6-22.7
	C95.8,20.6,84.2,24.4,83,25.8z"></path><path class="st12" d="M73.6,51.7c0,0-1.8-0.8-2.8-1.2c-1-0.4-1.9-0.6-2.5-1.1c-0.5-0.6-0.6-1-0.6-1l2.7-0.9
	C70.5,47.4,73.5,49.1,73.6,51.7z"></path><path class="st13" d="M67.8,48.3c0,0-1.3-1.8-1.8-3.1c-0.5-1.2-1-2.9-1-2.9s3,1.3,3.5,2s1.2,1.5,1,2C69.4,46.9,67.8,48.3,67.8,48.3z
	"></path><path class="st14" d="M73.3,47c0.9-0.6,1.9-2.2,1.1-2.7c-0.8-0.5-2.5-0.5-3.2,0.2s-3.4,3.7-3.4,3.7S70.5,49,73.3,47z"></path><path class="st15" d="M71,41.4c-1.2-0.2-1,0-1.8,0.7s-1.5,6.1-1.5,6.1l4-4.4C71.8,43.9,72.8,41.7,71,41.4z"></path><path class="st16" d="M46.6,43.3c-0.4,0.5-0.7,1-0.4,1.7c0.3,0.8,0.8,1,0.6,1.4c-0.2,0.4-0.3,1.1-0.2,1.7c0.2,0.6,0.5,1.3,0.5,1.9
	c0.1,0.6,0.2,1.8,0.6,2.2c0.5,0.4,4.9,4.1,5.7,4.9c0.8,0.8,2.8,2.5,3.9,2.1c0,0,0,0,0.1-0.1c-4.2-6.5-9.2-13.8-10.7-16
	C46.8,43.1,46.7,43.2,46.6,43.3z"></path><path class="st1" d="M55.5,49.5c-0.4-0.7-0.6-0.8-1.4-1.5c-0.7-0.7-0.1-0.9-1-1.3s-1.1-0.6-1.7-1.4c-0.5-0.8-1-1-1.7-1.2
	c-0.6-0.2-0.5-0.6-1-0.9s-0.5-0.3-1-0.3c-0.4,0-0.6,0-0.9,0.2c1.5,2.2,6.4,9.5,10.7,16C58.5,58.2,55.9,50.2,55.5,49.5z"></path><path class="st0" d="M42.9,55.5c0.2,0.4,0.4,0.8,1,1c0.6,0.2,0.9,0.2,1.1,0.5c0.2,0.2,0.6,0.7,1,0.9c0.4,0.2,1,0.4,1.4,0.7
	c0.4,0.3,1.2,0.8,1.6,0.8c0.4,0,4.1,0,4.8,0.1c0.8,0.1,2.5,0.1,2.5-0.5c0,0,0,0,0-0.1c-5.4-1.5-11.5-3.1-13.4-3.6
	C42.8,55.3,42.8,55.4,42.9,55.5z"></path><path class="st1" d="M49.5,55c-0.6-0.2-0.7-0.1-1.4-0.2s-0.6-0.4-1.1-0.2c-0.5,0.2-0.8,0.1-1.4,0c-0.6-0.2-1-0.1-1.3,0.1
	c-0.3,0.1-0.6-0.1-0.9,0c-0.3,0.1-0.4,0-0.5,0.3c-0.1,0.2-0.2,0.2-0.1,0.4c1.9,0.5,8,2.1,13.4,3.6C55.9,58.1,50.1,55.2,49.5,55z"></path><path class="st0" d="M59.3,45.4c0.3,0.3,0.6,0.5,0.6,1.1c0,0.6-0.1,0.9,0.1,1.1c0.2,0.2,0.4,0.7,0.5,1.1c0.1,0.4,0.1,1,0.3,1.4
	c0.1,0.4,0.4,1.3,0.3,1.6c-0.1,0.4-1.2,3.7-1.4,4.4c-0.2,0.7-0.7,2.3-1.3,2.2c0,0,0,0-0.1,0c0.3-5.3,0.6-11.3,0.8-13.1
	C59.2,45.3,59.2,45.3,59.3,45.4z"></path><path class="st1" d="M56.7,51.4c0-0.6,0.1-0.7,0.2-1.3c0.1-0.6-0.2-0.7,0.1-1.1c0.3-0.4,0.4-0.7,0.4-1.3c0.1-0.6,0.2-0.9,0.5-1.2
	c0.3-0.3,0.1-0.5,0.2-0.8c0.2-0.3,0.1-0.3,0.4-0.4c0.2,0,0.3-0.1,0.5,0c-0.1,1.8-0.5,7.8-0.8,13.1C57.7,58,56.7,51.9,56.7,51.4z"></path><path class="st13" d="M56.8,57.6c0,0-4.2,5.8-3,7C55,65.7,56.8,64.5,56.8,57.6z"></path><path class="st15" d="M57.9,57.6c0,0,7.1,0.4,6,3.7C62.9,64.5,57.4,66.8,57.9,57.6z"></path><path class="st12" d="M58.4,55.6c2.6-2.6,3.5-1.4,5.7,0.3c2.3,1.7,2.9,1.8,2.9,1.8s-4.8,4-6.9,3.1C57.9,59.9,57,57,58.4,55.6z"></path><path class="st13" d="M49.7,46.5C49,44,48.9,43.2,47.6,43c-1.3-0.3-3.7-1.9-2.3,0c1.3,1.9,1.9,4.8,3,4.9S50.1,47.9,49.7,46.5z"></path><path class="st17" d="M50.1,46.8c-1,1.8,2.2,0.5,3.3,0c1.2-0.5,3.4-2,1.7-2.4C53.4,44.1,51,45.3,50.1,46.8z"></path><path class="st13" d="M50.5,46c-1.5,0.5,0.7-2.6,2.1-3.5c1.4-0.9,3-1.6,3-0.5C55.6,43.2,54.8,44.5,50.5,46z"></path><path class="st12" d="M48.6,38.6c1-1.5,4.2,4.1,3.1,6.4S45,44,48.6,38.6z"></path></g></svg>