<?xml version="1.0" encoding="utf-8"?>
<!-- Generator: Adobe Illustrator 27.4.1, SVG Export Plug-In . SVG Version: 6.00 Build 0)  -->
<svg version="1.1" id="Layer_1" xmlns="http://www.w3.org/2000/svg" xmlns:xlink="http://www.w3.org/1999/xlink" x="0px" y="0px"
	 viewBox="0 0 108 108" style="enable-background:new 0 0 108 108;" xml:space="preserve">
<style type="text/css">
	.st0{fill:#91B73E;}
	.st1{fill:#7C9745;}
	.st2{fill:#BAC933;}
	.st3{fill:#A5BD39;}
	.st4{fill:#6AA443;}
	.st5{fill:#87AB40;}
	.st6{fill:#7B9432;}
	.st7{fill:#A1C375;}
	.st8{fill:#90BB3A;}
	.st9{fill:#887B9E;}
	.st10{fill:#8684A3;}
	.st11{fill:#636192;}
	.st12{fill:#A993A8;}
	.st13{fill:#56447A;}
</style>
<g>
	<path class="st0" d="M53.8,84.5c-0.4,0.3,0.1,3-2.5,3.5c-2.6,0.5-4.5,0.2-5.4-0.1c-0.9-0.3,0.8-2.9,0.8-2.9s-1-0.2-3-1.4
		c-2-1.2-2.9-2.1-3.4-2.6c-0.4-0.4-2.1-3.1-2.1-3.1l3.2,1.1c0,0-1-0.8-3-2.5s-3.5-2.8-4-4c-0.5-1.1-2.7-3.8-2.7-3.8s4.5,2.7,5.5,3.5
		c1,0.8,4.5,2.7,4.5,2.7S41,73.2,39.5,72c-1.5-1.2-1.8-2.6-1.8-2.6s1.4,0.3,2.5,1.5c1.1,1.2,2.6,2.6,2.6,2.6s2.4,0.5,3.4,1.8
		c0.9,1.4,0.7-1-0.2-2.2s-1.3-2.9,0.3-1.1c1.6,1.8,3.8,4.6,5,6.5s2.2,3.1,2.7,3.8C54.4,83.2,53.8,84.5,53.8,84.5z"/>
	<path class="st1" d="M35.4,84.9c0,0,0.6-0.2,1.4-0.4c2.5-0.7,7.3-1.9,8.9-1.4c2.1,0.6,8.5,3.5,11.2,3.5c2.8,0,5-0.5,6-1
		c0.9-0.5,0.9-0.5,0.9-0.5l-2-2.3c0,0,3.8-1.2,5.3-1.2c1.5-0.1,2.5,0.7,3.8-0.2c1.3-1,1.3-1,1.3-1s-1.3-1.8-3-2.5
		c-1.7-0.8-1.8-1.1-1.2-1.7c0.6-0.6,0.7-1.8,0.7-1.8s-3.1,0.5-4.2,0.3c-1.1-0.2-2.1,0.1-2.1,0.1s0.7-1.8,0.7-2.6s-6.8,0-9.4,0.6
		c-2.6,0.6-9.8,6.4-11,6.8S35.4,84.9,35.4,84.9z"/>
	<path class="st2" d="M48.8,66.3c0.2,0.6,2.5,5.7,3.4,7.5s0.7,2.6,1.1,3.9L50,76.2c0,0-0.1,2.8-0.6,3.7c-0.5,0.9-1.1-1.2-1.1-1.2
		s-1.6,0.8-2.6,2.4c-0.9,1.7-2.4,4.1-2.4,4.1s-1.5-3.6-0.5-5.1c1-1.5,0.9-2.8,0.9-2.8s-3.2,0.3-3.7,1.3c-0.5,1.1-2.2-0.6,0.6-3
		c2.8-2.3,2.3-3.6,3.5-5c1.2-1.4,0.6-2.2,1.8-3C47.2,66.9,48.8,66.3,48.8,66.3z"/>
	<path class="st2" d="M55.8,89.3c0-0.6-0.9-6.1-1.2-8.1c-0.3-1.9,0-2.7,0-4l2.7,2.2c0,0,0.9-2.7,1.6-3.4c0.7-0.7,0.7,1.5,0.7,1.5
		s1.8-0.3,3.1-1.6c1.3-1.3,3.4-3.3,3.4-3.3s0.4,3.9-0.9,5.1c-1.3,1.2-1.6,2.4-1.6,2.4s3.1,0.6,3.9-0.3c0.7-0.9,2,1.2-1.3,2.7
		c-3.3,1.5-3.2,2.8-4.7,3.9s-1.1,1.9-2.5,2.4C57.5,89.2,55.8,89.3,55.8,89.3z"/>
	<path class="st3" d="M51.9,76.8c0.5-0.1,5.4-0.4,7.3-0.3s4,0.4,5.5,0.4s5.7-1,6.1-1.3c0.3-0.3,0.8-1.7,0.8-1.7l-2.9-0.2
		c0,0,2.8-1.3,3.2-1.7s1.3-1.4,0.8-1.6c-0.5-0.2-4.2-0.5-4.2-0.5l0.8-1.2c0,0-2.9-0.6-3.9-0.3c-1,0.3-3,1.6-3.4,2
		c-0.5,0.4-3.9,2.2-4.8,2.4c-0.9,0.2-3.8,1.5-4.3,1.7c-0.5,0.3-1.1,1.5-2.2,1.6c-1.1,0.2-2.3,0.2-2.3,0.2L51.9,76.8z"/>
	<path class="st4" d="M45,89.1c-0.2-0.6,0.3-2.1,0.2-3.1c-0.1-1-2.1-4.9-3-6.3s-1.5-2.4-1.5-2.4l-0.3,1.4c0,0-1.3-2.5-1.4-3.1
		s-0.1-1.6-0.8-2.1c-0.7-0.5-1.4,1.6-1.2,2.6c0.3,1,1.6,3.1,1.8,3.5c0.1,0.4,0.8,1.9,1.2,2.4s0.5,2,0.5,2s-3.7-3.8-4.6-4.7
		s-3.2-2.8-3.8-3.3c-0.6-0.5-1.1-1-1.7-1.2s-1.7-0.4-1.7-0.4l0.9,2.5c0,0-0.7-0.9-2-1.2s-3.1-0.3-3.4-0.3c-0.3,0,0.6,1.3,1.3,2.3
		s2,3,2.5,3.2s1.4,0.5,1.4,0.5l-2.8,0.1c0,0,0.7,1.8,2.1,2.4c1.5,0.7,3.8,1.8,4.8,2s3.4,1.1,4.4,1.4c0.9,0.3,1.5,1.2,1.5,1.2
		s0.2,0.4,1.6,0.8C42.5,89.9,45,89.1,45,89.1z"/>
	<path class="st5" d="M66.6,77.9c0,0,0.3-0.2,0.8-0.5c1.4-0.9,4.1-2.6,5.2-2.7c1.4-0.2,5.8-0.1,7.5-0.7s3-1.4,3.5-1.8
		c0.5-0.5,0.5-0.5,0.5-0.5l-1.6-0.7c0,0,2.1-1.4,3-1.8c0.9-0.4,1.6-0.2,2.3-1c0.6-0.8,0.6-0.8,0.6-0.8s-1.1-0.6-2.3-0.6
		c-1.2,0-1.3-0.2-1-0.6c0.2-0.5,0.1-1.1,0.1-1.1s-1.8,1-2.5,1.1s-1.2,0.5-1.2,0.5s0.1-1.1,0-1.5c-0.1-0.4-4.1,1.5-5.6,2.4
		c-1.5,0.9-4.8,5.5-5.5,5.9C69.4,74,66.6,77.9,66.6,77.9z"/>
	<path class="st3" d="M57.8,87.1c0.5-0.2,4.8-2.9,6.3-4.1c1.6-1.2,3.2-2.7,4.5-3.5c1.3-0.9,5.4-2.6,5.8-2.6c0.5,0.1,1.6,0.9,1.6,0.9
		l-2.3,1.9c0,0,3.1-0.6,3.6-0.5c0.5,0.1,1.8,0.4,1.6,0.8s-3.3,2.9-3.3,2.9l1.3,0.5c0,0-2.1,2.2-3.1,2.6s-3.4,0.5-3.9,0.4
		c-0.6,0-4.5,0.6-5.4,1c-0.9,0.4-4,1.1-4.6,1.2s-1.7-0.5-2.7,0c-1,0.5-2,1.2-2,1.2L57.8,87.1z"/>
	<path class="st5" d="M38.8,80.6c0,0-0.2-0.3-0.6-0.8c-1-1.3-3-3.8-4-4.3c-1.3-0.6-5.4-2-6.8-3.2c-1.4-1.2-2.4-2.3-2.6-2.9
		s-0.3-0.6-0.3-0.6l1.8-0.1c0,0-1.5-2.1-2.2-2.7c-0.7-0.7-1.5-0.7-1.8-1.7S22,63.4,22,63.4s1.2-0.2,2.4,0.2s1.2,0.3,1.2-0.2
		s0.3-1.1,0.3-1.1s1.4,1.5,2,1.9c0.6,0.3,1,0.9,1,0.9s0.3-1.1,0.5-1.4c0.3-0.3,3.4,2.8,4.5,4.2c1.1,1.4,2.7,6.8,3.2,7.4
		C37.4,76,38.8,80.6,38.8,80.6z"/>
	<path class="st6" d="M51.3,74.2c0.4-0.2,1.3,0.3,1.9,0.2c0.6-0.1,3.7-2.1,4.8-2.9c1.1-0.8,2-1.5,2-1.5l-0.8-0.3c0,0,2-1.3,2.3-1.4
		c0.3,0,1.1-0.1,1.6-0.8s-0.7-1.4-1.4-1.1C61,66.6,59.3,68,59,68.1c-0.3,0.1-1.4,0.8-1.8,1.2c-0.4,0.4-1.4,0.5-1.4,0.5
		s3.4-3.6,4.2-4.5c0.8-0.9,2.6-3.1,3.1-3.7c0.4-0.6,0.9-1.1,1.2-1.7c0.3-0.6,0.7-1.6,0.7-1.6l-1.8,0.9c0,0,0.8-0.7,1.2-2
		c0.5-1.3,1-3.1,1-3.3c0-0.3-1,0.6-1.8,1.3c-0.8,0.7-2.4,1.9-2.7,2.5c-0.3,0.5-0.7,1.4-0.7,1.4l0.6-2.7c0,0-1.3,0.7-2.1,2.1
		s-2.1,3.7-2.5,4.7s-1.6,3.4-2,4.3c-0.4,0.9-1.2,1.5-1.2,1.5s-0.3,0.2-0.9,1.6C51.5,71.8,51.3,74.2,51.3,74.2z"/>
	<path class="st7" d="M51.6,73.2c0,0-0.2-0.2-0.5-0.6c-0.8-1.1-2.4-3.2-2.5-4.1c-0.1-1.2,0.2-4.9-0.3-6.3c-0.5-1.4-1.2-2.4-1.7-2.7
		c-0.4-0.3-0.4-0.3-0.4-0.3l-0.8,1.5c0,0-1.3-1.6-1.7-2.3c-0.3-0.7-0.1-1.4-0.8-1.8c-0.8-0.4-0.8-0.4-0.8-0.4s-0.7,1-0.8,2
		s-0.2,1.1-0.7,0.9c-0.4-0.2-1.1,0.1-1.1,0.1s0.9,1.4,1,2c0.1,0.6,0.5,1,0.5,1s-1.1,0.1-1.5,0.2c-0.4,0.2,1.3,3.3,2.1,4.5
		s5.3,3.4,5.7,3.9C47.7,71.3,51.6,73.2,51.6,73.2z"/>
	<path class="st5" d="M38.3,75c0,0,0.2-0.2,0.5-0.4c0.8-0.7,2.5-1.9,3.2-1.9c0.9,0,3.9,0.7,5,0.3c1.1-0.4,1.9-0.9,2.1-1.3
		c0.3-0.4,0.3-0.4,0.3-0.4l-1.2-0.9c0,0,1.2-1.1,1.8-1.3c0.6-0.2,1.1,0,1.4-0.6s0.3-0.6,0.3-0.6s-0.8-0.7-1.6-0.9
		c-0.8-0.2-0.9-0.3-0.8-0.7c0.1-0.4-0.1-1-0.1-1S48.1,66,47.7,66s-0.8,0.3-0.8,0.3s-0.1-1-0.2-1.4c-0.1-0.4-2.6,0.9-3.5,1.5
		c-0.9,0.7-2.6,4.5-3,4.9C39.7,71.7,38.3,75,38.3,75z"/>
	<path class="st5" d="M66.6,81.4c0,0-0.1-0.3-0.3-0.7c-0.5-1.3-1.5-3.7-2-4.4c-0.7-0.9-3.1-3.3-3.9-4.6c-0.7-1.3-1.2-2.4-1.3-2.9
		C59,68.2,59,68.2,59,68.2l1.1,0.6c0,0-0.7-1.9-1.1-2.7s-0.8-1-0.9-1.8C58,63.5,58,63.5,58,63.5s0.8,0.3,1.4,1
		c0.6,0.7,0.7,0.6,0.7,0.3c0-0.4,0.3-0.6,0.3-0.6s0.7,1.5,1.1,2c0.3,0.5,0.5,1,0.5,1s0.3-0.6,0.5-0.8c0.2-0.1,1.8,3.1,2.4,4.5
		c0.5,1.3,1,5.6,1.2,6.3C66.2,77.7,66.6,81.4,66.6,81.4z"/>
	<path class="st8" d="M54.7,60.2c0,0-0.9,6.5-1.4,8.4s-1.6,11.5-2.2,13.1c-0.6,1.6-2.1,7.8-2.1,7.8l-1.4-2.3l4-20.8l1.1-5.3l0.5-1.4
		L54.7,60.2z"/>
	<path class="st9" d="M51.9,63.1h-2.3l0.6-2.2c0,0-0.9-1.2-1.2-1.2s0.6-1.3,0.6-1.3s-0.4-0.9-0.7-0.9s0.4-1.2-0.6-1.2
		c-1,0-0.7-1.9-0.7-1.9c-1.4,0.1-0.6,0.8-1.4,0.1s-0.6-2.3-0.6-2.3c1.2-0.4,2.5-0.9,2.5-0.9S47.5,50.8,47,50c-0.5-0.7-1-0.8-0.5-1.2
		c0.5-0.4,0.7,0.5,1.2,0c0.5-0.5,1.2-1.2,1-2s-0.9-1.4-1-2c-0.1-0.6-0.7-1-0.3-1.6c0.4-0.7,1.5-1,1.3-1.3s0-1.6,0-1.6l-1-1.2
		c0,0,0.1-0.7,0.3-1.7s-0.3-1.5,0.2-2.2s0.1-0.8,0.6-1.2s1.1-1.2,0.6-1.6c-0.5-0.5-0.6-1.6-0.6-1.6s-0.6-1.3-0.9-1.3
		c-0.4,0-0.5-1-0.5-1.3c0-0.4-0.3-1,0.3-1.2c0.6-0.2,0.8-0.5,1.8-0.9c1.1-0.4,2.3-1,2.5-0.6c0.2,0.4,0.2,1.5-0.4,2
		c-0.6,0.5-1,1.1-1,1.1s-0.7,0.7,0.1,0.9s1.4,0.7,1.4,0.7v1.4c0,0-0.1,0.7,0,1.1c0.1,0.4,0.1,0.5-0.4,0.7c-0.5,0.2-0.9,1.4-0.6,1.5
		c0.3,0,2.2,0.6,1.6,1.6c-0.6,1-1.5,1.5-1.5,1.5s-0.3-0.5,1.6,0.7s0.6,0.3,1.9,1.2s1.8,0.6,1.4,1.5c-0.4,1-1.2,0.9-1.4,1.8
		c-0.3,1,0.3,1.5,0,1.9s-0.1,0.6-1.2,1.1c-1.1,0.5-1.5,1.7-1.5,1.7s0.9,1.3,0.4,1.6s-0.7,0.7-0.8,0.8c-0.1,0.1,1.2,1.5,1.1,1.8
		c-0.1,0.4,0.1,0.7-0.2,1.2c-0.3,0.5-0.4,1.6-0.3,2.1c0.1,0.5,0.4,0.7,0.3,1.4c-0.1,0.8-0.2,2.7-0.1,3.2c0.1,0.5,0.4,1,0.6,1.2
		c0.2,0.3,1.6-0.6,0.3,0.8C51.9,63.1,51.9,63.1,51.9,63.1z"/>
	<path class="st10" d="M51.9,25.3c0,0-2.8,1.5-2.5,0.6s-1.5-2-1.5-2s0.4-1,0.7-1.1s2.3-1.4,2.3-1.4h-3l2-1.5c0,0-0.4-1-1.1-1
		s-0.7-0.9-0.3-1.1s1.2-0.6,1.3-1c0.2-0.4-0.9-1.2-0.7-1.5c0.2-0.3,2.7-1.9,2.7-1.9s-0.3-1.4,0-1.7c0.3-0.3,1-2.2,1-2.2l1.3-0.7
		c0,0,0.8-1.3,1.2-1.4s0.9-1.1,0.9-1.1s1.1,0.8,1,1.2c-0.1,0.4,1.2,1.7,1.4,1.8s1.1,0.6,0.6,0.9c-0.5,0.3-1,0.7-0.8,1
		c0.2,0.3,1.6,1,1.6,1s0.3,1.1,0,1.3c-0.3,0.3-0.3,0.3,0.8,1s1,1.3,0.7,1.9c-0.3,0.6,0.2,2,0.2,2s-0.2,1.2-0.9,1.4
		c-0.7,0.2-0.8-0.1-1.1,0.7c-0.3,0.8,0.8,2.8,0.7,3.2c-0.1,0.4-1,0.7-0.4,1c0.6,0.3,2.3,1.5,2.1,1.8s-1.1,0.8-1.2,1.2
		c-0.1,0.4,1.2,1.3,1.2,1.6c0,0.3,0.5,1.2,0.5,1.2s0-0.1,0.7,1.1s1.5,1.1,0.8,2s-1.1,1.4-1.5,1.7c-0.5,0.3-0.7-0.8-1.4,0.6
		c-0.8,1.3,0,1.4,0.5,2.4c0.5,1,1.5,0.9,0.5,1c-1.1,0.1-1.9,0-1.9,0l0.6,1.2c-1.2,0.9-0.9,1.4-0.6,1.6c0.3,0.2,0.3,0.8,0.8,0.7
		s-0.1,1.1,0.1,1.8c0.2,0.6,0.7,1.6-0.3,2c-1,0.4-2.3,0.5-2.3,0.9s1.2,3,1.2,3c1.1,0.7,1.2,1.5,1.6,1.9c0.5,0.5,0.9,1.9,0,2.3
		s-1.1,0.9-1.7,1.4s-1.4-1.3-0.7,0.6c0.8,1.9,1.3,2,1.2,2.5c-0.1,0.5-1.4,0.6-1.4,0.9c0,0.3,1.5,3.5,1.5,3.5s-0.9-0.3-1.2,0
		c-0.3,0.3-1.9-0.5-2.9,0c-1,0.5-2.7,0.6-2.7,0.6s0.1-1.2-0.2-1.9c-0.3-0.8-2.5-7.2-2.4-7.5c0.2-0.3-0.2-4.7,0-5.2
		c0.2-0.5,0.9-5,0.9-5s0.2-2.8,0.1-3.2c-0.1-0.4-1.2-4-1-5.2c0.2-1.2-0.5-5-0.5-5l0.2-2.4L51.9,25.3z"/>
	<path class="st11" d="M57.6,14.7c-0.7,0.3-2,1.2-2.4,1.2c-0.4,0.1-1.2,0-1.2,0.5c-0.1,0.5,1-0.3-0.1,0.5s-1,1.1-1.2,1.4
		c-0.3,0.4-1.6-0.2-1.8-0.6c-0.1-0.4-0.1-0.8,0.5-1.7c0.7-1,1.3-2.2,1.4-2.6c0.1-0.4-1-1.7-1-1.7l1-2.2c0,0-0.7-0.6-0.3-0.9
		c0.4-0.3,1.6,0.2,1.6,0.2c1.5,1,2.6,1,2.6,1s1.4,0.8,0.9,1.3c-0.6,0.6,3.6,0.7,2.5,1c-1.1,0.3-2.4,1.4-2.4,1.4L57.6,14.7z"/>
	<path class="st11" d="M57.7,19.4c-0.3,0.7-0.5,0.9,0.1,1.4c0.6,0.6,0.4,1.9,0.4,1.9s-1.2-0.1-1.3,0c-0.1,0.1-2,0-1.8-0.7
		s0.2-1.6,0-2c-0.2-0.4-0.1-0.9,0-1.1C55.1,18.8,58,18.7,57.7,19.4z"/>
	<path class="st11" d="M51.9,19.9c0.3,0.1,1.1,1.1,0.9,1.6c-0.2,0.6-0.6,1.3,0,1.7c0.6,0.4,2.5-0.4,2.1,0.8c-0.4,1.2-0.5,1.5,0,2.3
		s1.1,0.9,1.6,0.8c0.5-0.1,1.7,0,1.7,0c0.8,1.7,1.3,2.7,1.3,2.7s-0.7,1.4,0,1.8c0.7,0.4,0.7,1.4,0.7,1.4s-1.8-2.8-2.1-3.1
		s-1.3-1.2-1.7-0.6c-0.4,0.7,0.3,1.6-0.5,1.3c-0.8-0.3-1.2-1.4-1.2,0c0,1.4-0.6,3.3-0.9,2.3c-0.3-1,0.3-1.1-0.9-2.1
		c-1.1-1.1-3.6-1.5-2.6-2.6c1-1.1,0.3-3.2,0.3-3.2l0.1-1.5c0,0-0.2-0.5-0.1-0.9c0.1-0.4,0.1-1.4,0.1-1.4L51.9,19.9z"/>
	<path class="st11" d="M62.7,30.2c0,0,1.6-0.8,1.7,0s0.4,0.6,0.7,2.2s1.5,2.4,0.3,1.6c-1.2-0.8-2.3,0.2-2.7-0.7s-1.2-1.2-1.2-1.2
		c-0.1-0.1,0-0.9,0-0.9L62.7,30.2z"/>
	<path class="st11" d="M57.8,32.5c0,0,1.4,1.5,1.2,1.8c-0.3,0.4-0.8,0.9-1.5,0.7s-1.3-0.3-0.9,1c0.5,1.2,0.6,1.3,0,1.8
		c-0.6,0.5-1,1.2-1.7,0.5c-0.6-0.7-1.3-2.4-0.8-2.7s0.9,0.2,1.2-0.5c0.3-0.8,0.2-2,0.2-2s0.7-0.3,1-0.5S57.8,32.5,57.8,32.5z"/>
	<path class="st11" d="M57.5,39.3c0.5,0.2,2.4,0.5,1.5,1.2c-0.9,0.8-0.9,0.8-0.9,0.8s1.1,0.7,1.1,1.1c0,0.4-0.6,1-0.9,1.2
		c-0.3,0.2,0.6,1.1,0,1.4c-0.6,0.4-0.8,0.3-0.9,1.1c-0.1,0.8,0.7,1.6,0.7,2s-1.7,0.7-1.7,0.7s-0.1,1.2,0,1.3
		c0.1,0.1-1.1-0.2-1.3-0.8c-0.2-0.7,1.6-0.4-0.2-0.7s-3.6-0.1-3.2-1c0.5-0.8,2-0.7,1.5-1.7c-0.5-1.1,1.2-3,1.2-3s-0.9-1.3-0.3-1.5
		c0.6-0.2,2.1,0.7,1.7-0.3C55.7,40.1,57.5,39.3,57.5,39.3z"/>
	<path class="st11" d="M54.9,52.1c0.6,0.3,1,0.5,1.7,0.6c0.7,0.1,2,0.8,1.7,1.3c-0.3,0.6,0,1.1-0.9,1.3s-2-0.8-2.4,0s-0.9,0.7-1,0.4
		c-0.1-0.3-0.6-0.2-0.6-1.1s-0.4-1.1,0-1.7c0.4-0.7,0.6-1.3,0.6-1.3L54.9,52.1z"/>
	<path class="st11" d="M60.3,53.8c1,0.5,2,0,2.4,0.6c0.4,0.6,0.5,0.7,0,1.6c-0.5,0.8,0.7,1.2,0.3,1.7s-0.9,1.2-1.3,1.2
		c-0.4,0.1-1.6-0.1-1.6-0.1s-1.7-0.3-1.9-0.8s1-0.9,0.6-1.7c-0.3-0.9-1.7-2.4-0.6-2.3c1,0.1,0-1.1,1-0.7
		C60.3,53.8,60.3,53.8,60.3,53.8z"/>
	<path class="st12" d="M58.7,36.7l0.6-0.8c0,0,0.7-0.5,0.7,0s-0.3,0.5,0,0.5c0.3,0,1-0.3,1-0.3v0.7c0.1,0.9,0.1,0.9,0.1,0.9
		S60.9,38,60.5,38s-0.4,0.1-0.4,0.1s-0.9-0.6-1.1-0.5s-0.2,0.2-0.2,0.2l-0.6,0.3L58.7,36.7z"/>
	<path class="st12" d="M53.9,39c0,0-0.9-0.5-0.8-0.4c0.1,0.1,0,1.1,0,1.1l-0.6,0.8L53.9,39z"/>
	<polygon class="st12" points="60,43.6 61.4,43.6 60.7,44.7 59.6,44.7 	"/>
	<polygon class="st12" points="57.9,50.1 58.6,49.4 59,50.5 58.3,50.9 56.9,50.9 	"/>
	<path class="st12" d="M50.9,33.1c0,0-0.1,0.5-0.5,0.9c-0.4,0.4-0.7,1-0.3,1s1-0.4,1-0.4s1.1-0.3,0.9-0.5s-0.3-0.7-0.3-0.7
		L50.9,33.1z"/>
	<path class="st12" d="M51.9,44.1c0.3,0.4,0.3,1.1,0,1.3c-0.3,0.1-0.3,0.1-0.3,0.1S51.7,43.7,51.9,44.1z"/>
	<path class="st12" d="M52.5,56.1L50.4,57c0,0-0.9-1.7-0.9-1.8s0-1,0-1L52.5,56.1z"/>
	<path class="st12" d="M55.3,59.2c0,0,0.3,1-0.4,1.1s-1.4,0.5-1.4-0.2s0-1.2,0-1.2L55.3,59.2z"/>
	<path class="st12" d="M60.3,26.3c0.4-0.2,1.2-1.2,1.6-0.7s0.5,1.4,0,1.3c-0.5,0-0.8,0.4-0.8,0.4C60.3,26.3,60.3,26.3,60.3,26.3z"/>
	<path class="st12" d="M58.8,18.8c0,0,1.6-1.3,1.5-1.1c-0.1,0.2,0.2,0.1,0,1.1c-0.2,1-0.7,1.1-0.7,1.1L58.8,18.8z"/>
	<path class="st12" d="M58.3,15.5c0.2-0.2,0.6-0.7,1.3-1.2c0.7-0.4,0.7-0.4,0.7,0c0,0.4,0.3,1,0,1.2c-0.3,0.2-0.1,0-0.7,0.3
		c-0.5,0.3-0.5,0.3-0.5,0.3L58.3,15.5z"/>
	<path class="st12" d="M56.9,8.5l1.2-1l0.7-0.6c0,0-0.3,2.2-0.5,2.1C58.2,8.8,56.9,8.5,56.9,8.5z"/>
	<path class="st12" d="M56.9,9.4c0.1-0.2,0-0.9,0-0.9"/>
	<path class="st12" d="M49.8,13.5l0.6,1.6c-0.4,0.7-0.6,0.9-0.9,0.6s-0.3-0.3-0.3-0.3V14L49.8,13.5z"/>
	<path class="st12" d="M48.6,22.2c0,0,0.8,0.1,1.2,0.5c0.4,0.4,0.5,0.9,0.5,0.9h-1.1L48.6,22.2z"/>
	<path class="st12" d="M47.8,29.2l1.4,0.6c-0.1,0.8-0.5,0.7-0.5,0.7L47.8,29.2z"/>
	<path class="st12" d="M58.8,29.5h1.5v0.7c0,0-0.6-0.2-0.8,0c-0.2,0.2-1.3,0-1.3,0L58.8,29.5z"/>
	<polygon class="st12" points="53.9,26.5 55.7,25.2 55.7,26.2 54.8,27 	"/>
	<path class="st12" d="M54.4,43.6c0.2,0.1,1.1,0.2,1.3,0c0.2-0.2,0,0.6,0,0.6s0.2,1,0,1c-0.2,0-1.3,0-1.3,0L54.4,43.6z"/>
	<polygon class="st12" points="53.3,52.9 54.4,52.9 54.4,53.8 	"/>
	<path class="st12" d="M48.6,45.2c0,0-0.6-1-1-0.4c-0.4,0.6-0.1,0.8,0,1c0.1,0.2,0.8,0.4,0.8,0.4L48.6,45.2z"/>
	<path class="st12" d="M49.8,38.6c0,0-0.4-1-1.3-1.2c-0.9-0.2-0.9-0.2-0.9-0.2s-0.4,0.5-0.1,0.7c0.3,0.2,0.6,0.7,0.6,0.7H49.8z"/>
	<path class="st12" d="M48.1,34c0.6-0.2,1.1,0.7,1.1,1s0.1,0.3,0.1,0.3L48.1,35L48.1,34z"/>
	<path class="st12" d="M59.3,52.5l1.2-0.9c0,0,0.6,0.9,0.6,0.9s0,0.4,0,0.4h-0.9L59.3,52.5z"/>
	<path class="st12" d="M51.9,50.9c0,0-1,0.1-1.1,0.3c0,0.2-0.5,1-0.5,1s1.1,0.2,1.2,0c0.1-0.2,0.1-0.2,0.1-0.2L51.9,50.9z"/>
	<path class="st12" d="M50.8,47c0,0,0.6,0.6,1.1,0.8c0.4,0.3,0.6,0.7,0.6,0.7c0,0-0.8,0-0.8,0s-0.6,0.5-0.7,0S50.8,47,50.8,47z"/>
	<path class="st12" d="M47.8,52.3h-1c0,0-0.2,0.6,0,0.7c0.7,0.3,1.6,0.7,1.3,0S47.8,52.3,47.8,52.3z"/>
	<path class="st12" d="M58.8,58.4l-0.9,0.5l-1-0.3c0,0-0.7-0.6-0.3-1.1c0.3-0.5,0.8-0.6,0.8-0.6L58.8,58.4z"/>
	<path class="st12" d="M57.6,62.1l0.2,1.6c-1,0-1.7-0.6-1.7-0.6l0.3-1H57.6z"/>
	<path class="st12" d="M55.5,17c0,0,0.8-0.8,1-0.5c0.3,0.3,0.5-0.5,0.3,0.3c-0.2,0.8,0.4,0.8-0.2,0.8C56,17.6,55.5,17,55.5,17z"/>
	<path class="st12" d="M53.5,12.2c0.2-0.3,0.9-0.9,0.9-0.9l1.1,1.2L54.9,13l0.4,1"/>
	<path class="st12" d="M54.2,8.8l0.3-0.9l0-1l0.7,1c0,0,0.1,0.4,0,0.9S55,9.2,55,9.2L54.2,8.8z"/>
	<path class="st12" d="M59.6,22.7c0.6-0.3,1.4-0.8,1.4-0.8s-0.4,0.8-0.5,1c-0.1,0.2-0.9,0.5-0.9,0.5V22.7z"/>
	<path class="st12" d="M61.4,33.1c0.5-0.6,1.7-1,1.7-1v1h-0.9H61.4z"/>
	<path class="st12" d="M61.4,29.2c0.8-0.2,1.7-0.8,1.7-0.8v0.8l-0.4,1L61.4,29.2z"/>
	<polygon class="st12" points="48.5,27.4 47.6,27.2 46.7,27 	"/>
	<path class="st12" d="M52.9,37.1c0,0,0.2,0.7-0.7,0.9c-1,0.2-1.2-0.8-1.2-0.8L52.9,37.1z"/>
	<path class="st12" d="M50.9,41.2c0.4,0.1,1.5,0.4,1.3,0.7c-0.2,0.3,0.1,0.2-0.2,0.3s-1.1,0-1.1,0L50.9,41.2z"/>
	<path class="st13" d="M56.9,27.7c0.1-0.2,0.8-0.7,0.8-0.7l0.6,0.2c0,0-0.4,0.3-0.3,0.5c0.1,0.2,0.1,0.2,0.1,0.2L56.9,27.7z"/>
	<path class="st13" d="M57.8,23.6c0.3-0.2-0.2-0.9,0.3-0.2s0.8,1,0.7,1.1c-0.2,0.2-1.2,0-1.2,0S57.5,23.8,57.8,23.6z"/>
	<path class="st13" d="M60.3,15.5l1.4,0.3c0.4,0.6,0.2,0.8,0,0.6S61,16.5,61,16.5L60.3,15.5z"/>
	<polyline class="st13" points="52.9,20.8 51.8,20.8 52.9,21.4 	"/>
	<polygon class="st13" points="51.9,35 51.1,35.7 52.2,36.2 	"/>
	<line class="st13" x1="58.2" y1="40.9" x2="57.6" y2="41.2"/>
	<path class="st13" d="M54.5,47c0,0,0.3,0.6,0.2,0.8c-0.2,0.3-0.8,0.1-0.8,0.1L54.5,47z"/>
	<path class="st13" d="M58.2,54.2c0,0-0.7-0.3-0.9,0s0,0.6,0,0.6l0.5,0.3h0.7L58.2,54.2z"/>
	<path class="st13" d="M51.9,50.9l0.4,1.4c0,0,0.9,0.1,0.8-0.1c-0.1-0.2,0-0.9,0-0.9l-0.7-0.4H51.9z"/>
	<path class="st13" d="M59,50.5c0,0,0.7,0.5,1.1,0.4c0.4-0.1,0.4-0.1,0.4-0.1l0-0.7C59.7,50,59,50.5,59,50.5z"/>
	<path class="st13" d="M57.6,61.3c0,0,0.6,0,1.2,0s0.5-0.3,0.5-0.3l-0.8-0.6c0,0-0.6-0.1-0.5,0C57.9,60.6,57.6,61.3,57.6,61.3z"/>
	<path class="st13" d="M48.7,48c0,0,0.6,0.5,0.6,0.8c0,0.3-0.3,0.6-0.3,0.6s-0.8-0.1-0.8-0.6C48.1,48.4,48.7,48,48.7,48z"/>
	<path class="st13" d="M48.5,40.4c0,0,0.9-0.1,1,0c0.1,0.1,0,0.6,0,0.6H49L48.5,40.4z"/>
	<path class="st13" d="M48.5,28.2l0.8,0.7h-0.8C48.5,28.2,48.5,28.2,48.5,28.2z"/>
	<path class="st13" d="M52.5,60.5c-0.4,0.1-0.7,0.4-0.8-0.2c-0.2-0.6-0.6-0.4-0.2-0.6s0.8-0.4,1.4,0C53.5,60.1,52.8,60.4,52.5,60.5z
		"/>
	<polygon class="st13" points="50.8,62.5 50.1,63.4 49.8,62.5 	"/>
	<path class="st13" d="M57.6,15.5c0,0,0.3,0.4,0,0.5c-0.3,0.1-0.8,0-0.8-0.2s0.1-0.1,0.1-0.1L57.6,15.5z"/>
	<path class="st13" d="M56.6,6.6c0.1,0.1,0.4-0.9,0.4-0.3s0,0.9,0,0.9S56.5,6.5,56.6,6.6z"/>
	<path class="st13" d="M52.5,17l0.1,1.3c0,0-0.5,0.2-0.7,0.1c-0.2-0.1-0.7-0.9-0.5-1.1c0.2-0.2,0.2-0.2,0.2-0.2L52.5,17z"/>
	<path class="st8" d="M37.4,62.5c0,0,0.2,6.4,0.3,8.3c0.2,1.9-0.4,11.4-0.3,13.1c0.2,1.7,0,8,0,8c0.5-0.6,1.1-1.3,1.6-1.9
		c0.5-7.2,0.6-14.2,0.3-21.2c-0.1-1.8-0.2-3.5-0.4-5.3c-0.1-0.5-0.2-1-0.3-1.4C38.2,62.3,37.8,62.4,37.4,62.5z"/>
	<path class="st9" d="M39.4,65.6c0.6,0.1,1.2,0.1,1.8,0.2c-0.1-0.7-0.2-1.5-0.3-2.2c0,0,0.8-1.1,1.1-1.1c0.3,0-0.4-1.4-0.4-1.4
		c0,0,0.3-0.8,0.6-0.8c0.2,0-0.2-1.3,0.5-1.2c0.8,0,0.6-1.9,0.6-1.9c1.1,0.2,0.4,0.8,1.1,0.2C45.2,56.6,45,55,45,55
		c-0.9-0.4-2-0.9-2-0.9c0,0,0.5-0.5,0.9-1.3c0.4-0.7,0.8-0.8,0.4-1.2c-0.4-0.4-0.5,0.5-0.9,0c-0.4-0.5-0.9-1.2-0.8-2
		c0.1-0.9,0.7-1.5,0.8-2c0.1-0.6,0.5-1,0.2-1.7c-0.3-0.7-1.2-0.9-1.1-1.3c0.1-0.4-0.1-1.6-0.1-1.6c0.3-0.4,0.5-0.9,0.8-1.3
		c0,0-0.1-0.7-0.3-1.7c-0.2-1.1,0.1-1.6-0.3-2.2c-0.4-0.6-0.2-0.8-0.5-1.1c-0.4-0.4-0.9-1.1-0.6-1.6c0.3-0.5,0.3-1.7,0.3-1.7
		c0,0,0.3-1.4,0.6-1.4c0.3,0,0.3-1,0.2-1.4c0-0.4,0.1-1-0.4-1.1c-0.5-0.1-0.7-0.4-1.5-0.6c-0.9-0.3-1.9-0.7-2-0.3
		c-0.1,0.4,0,1.5,0.5,1.9c0.5,0.4,0.9,0.9,0.9,0.9c0,0,0.6,0.6,0,0.9c-0.6,0.3-1,0.8-1,0.8c0,0.5,0.1,0.9,0.1,1.4c0,0,0.1,0.7,0.1,1
		c0,0.4,0,0.5,0.4,0.6c0.4,0.1,0.8,1.3,0.6,1.4c-0.2,0.1-1.7,0.8-1.2,1.7c0.5,0.9,1.3,1.4,1.3,1.4c0,0,0.2-0.5-1.3,0.8
		c-1.5,1.2-0.4,0.3-1.5,1.2c-1,0.9-1.4,0.6-1.1,1.5c0.3,0.9,0.9,0.8,1.2,1.7c0.3,0.9-0.2,1.5,0,1.9c0.2,0.4,0.1,0.6,0.9,1
		c0.8,0.5,1.2,1.7,1.2,1.7c0,0-0.7,1.3-0.3,1.6c0.4,0.3,0.5,0.7,0.6,0.8c0.1,0.1-0.9,1.4-0.9,1.8c0.1,0.4-0.1,0.7,0.1,1.1
		c0.2,0.5,0.3,1.6,0.2,2.1c-0.1,0.5-0.3,0.6-0.3,1.4c0,0.8,0,2.7-0.1,3.1c-0.1,0.5-0.4,0.9-0.5,1.2c-0.2,0.3-1.2-0.7-0.3,0.7
		C39.4,65.6,39.4,65.6,39.4,65.6z"/>
	<path class="st10" d="M38.6,28.3c0,0,2.4,1.2,2,0.3c-0.3-0.9,0.9-2.2,0.9-2.2c0,0-0.4-0.9-0.7-1c-0.2-0.1-2-1.1-2-1.1
		c0.8-0.2,1.6-0.3,2.4-0.5c-0.6-0.4-1.2-0.8-1.8-1.2c0,0,0.1-1,0.7-1.1c0.5-0.1,0.4-1,0-1.1c-0.3-0.1-1-0.4-1.2-0.7
		c-0.2-0.3,0.4-1.4,0.2-1.6c-0.2-0.3-2.4-1.4-2.4-1.4c0,0-0.1-1.5-0.3-1.7c-0.3-0.2-1.2-1.9-1.2-1.9c-0.4-0.1-0.8-0.2-1.2-0.3
		c0,0-0.9-1.1-1.2-1.1c-0.3,0-0.9-0.8-0.9-0.8c0,0-0.7,1-0.5,1.3c0.2,0.3-0.5,1.9-0.7,2c-0.2,0.2-0.7,0.8-0.3,0.9
		c0.4,0.2,0.9,0.4,0.8,0.7c-0.1,0.3-1.1,1.2-1.1,1.2c0,0,0,1,0.2,1.2c0.3,0.2,0.3,0.2-0.4,1c-0.7,0.8-0.5,1.3-0.2,1.9
		c0.3,0.5,0.2,1.8,0.2,1.8c0,0,0.3,1.1,0.9,1.2c0.6,0.1,0.6-0.2,0.9,0.5c0.3,0.7-0.2,2.7-0.1,3c0.1,0.3,0.8,0.5,0.4,0.8
		c-0.4,0.3-1.6,1.7-1.4,1.9c0.2,0.2,0.9,0.6,1,1c0.1,0.3-0.8,1.4-0.7,1.6c0,0.3-0.3,1.1-0.3,1.1c0,0,0-0.1-0.4,1
		c-0.4,1.1-1.1,1.1-0.4,1.9c0.7,0.8,0.9,1.2,1.3,1.5c0.4,0.2,0.5-0.8,1.2,0.4c0.7,1.2,0.1,1.3-0.2,2.3c-0.3,0.9-1.2,0.9-0.3,0.9
		c0.8,0,1.5-0.1,1.5-0.1c-0.1,0.4-0.3,0.7-0.4,1.1c1,0.8,0.7,1.3,0.5,1.5c-0.2,0.2-0.2,0.7-0.6,0.7c-0.4-0.1,0.1,1,0,1.6
		c-0.1,0.6-0.5,1.5,0.3,1.8c0.8,0.3,1.8,0.4,1.8,0.8c0,0.4-0.9,2.9-0.9,2.9c-0.8,0.6-0.9,1.4-1.3,1.8c-0.4,0.4-0.7,1.8-0.1,2.1
		c0.7,0.4,0.8,0.8,1.3,1.4c0.5,0.6,1.2-1.2,0.5,0.6c-0.7,1.8-1.2,1.8-1.1,2.3c0,0.5,1.1,0.6,1.1,0.9c0,0.3-1.5,3.1-1.5,3.1
		c0,0,0.7-0.2,0.9,0.1c0.2,0.3,1.5-0.3,2.3,0.3c0.8,0.5,2.1,0.8,2.1,0.8c0,0,0-1.1,0.3-1.9c0.3-0.7,2.4-6.9,2.3-7.2
		c-0.1-0.3,0.3-4.7,0.1-5.1c-0.2-0.5-0.7-4.9-0.8-4.9c0,0-0.2-2.8-0.2-3.2c0.1-0.4,0.7-4,0.5-5.2c-0.2-1.2,0-5,0-5
		c-0.1-0.8-0.3-1.6-0.4-2.4C39.6,30.2,39.1,29.3,38.6,28.3z"/>
	<path class="st11" d="M32.5,19c0.6,0.1,1.8,0.7,2.1,0.7c0.3,0,0.9-0.2,1.1,0.2c0.2,0.4-0.8-0.1,0.2,0.4c1,0.6,0.9,0.9,1.2,1.2
		c0.3,0.3,1.2-0.5,1.3-0.9c0-0.4,0-0.8-0.7-1.6c-0.7-0.8-1.4-1.9-1.6-2.2c-0.1-0.3,0.4-1.9,0.4-1.9c-0.4-0.6-0.8-1.3-1.2-1.9
		c0,0,0.4-0.7,0-0.9c-0.4-0.2-1.2,0.5-1.2,0.5c-1,1.3-1.8,1.5-1.8,1.5c0,0-1,1-0.4,1.4c0.6,0.4-2.6,1.4-1.7,1.4
		c0.9,0,2.1,0.8,2.1,0.8C32.3,18.3,32.4,18.7,32.5,19z"/>
	<path class="st11" d="M33.2,23.5c0.3,0.6,0.5,0.7,0.2,1.4c-0.4,0.6,0,1.9,0,1.9c0,0,1-0.3,1.1-0.2c0.1,0.1,1.6-0.3,1.3-0.9
		c-0.2-0.6-0.4-1.5-0.3-1.9c0.1-0.4,0-0.8-0.2-1C35.2,22.5,32.9,22.9,33.2,23.5z"/>
	<path class="st11" d="M37.9,23.1c-0.2,0.1-0.7,1.2-0.4,1.7c0.2,0.5,0.7,1.2,0.2,1.7c-0.5,0.5-2,0-1.6,1c0.4,1.1,0.6,1.4,0.2,2.2
		c-0.3,0.8-0.8,1-1.2,0.9c-0.4,0-1.3,0.2-1.3,0.2c-0.5,1.7-0.8,2.6-0.8,2.6c0,0,0.7,1.3,0.2,1.7c-0.5,0.4-0.5,1.4-0.5,1.4
		c0,0,1.2-2.8,1.4-3.1c0.1-0.3,0.9-1.3,1.2-0.7c0.4,0.6-0.1,1.6,0.5,1.2c0.6-0.3,0.8-1.5,0.9-0.1c0.1,1.4,0.8,3.1,0.9,2.1
		c0.1-1-0.3-1,0.5-2.1c0.8-1.1,2.6-1.9,1.8-2.8c-0.9-0.9-0.6-3.1-0.6-3.1c-0.1-0.5-0.2-1-0.3-1.5c0,0,0.1-0.5-0.1-0.9
		c-0.2-0.4-0.3-1.3-0.3-1.3C38.6,23.9,38.2,23.5,37.9,23.1z"/>
	<path class="st11" d="M30.6,34.2c0,0-1.3-0.5-1.4,0.2c-0.1,0.7-0.2,0.6-0.3,2.1c-0.1,1.5-1,2.3-0.1,1.5c0.9-0.8,1.8,0,2.1-0.9
		c0.2-0.8,0.8-1.2,0.9-1.3c0.1-0.1-0.1-0.9-0.1-0.9C31.4,34.7,31,34.5,30.6,34.2z"/>
	<path class="st11" d="M34.7,35.9c0,0-1,1.5-0.8,1.8c0.3,0.3,0.7,0.7,1.3,0.5c0.6-0.2,1-0.4,0.7,0.9c-0.3,1.2-0.4,1.3,0.1,1.7
		c0.5,0.4,0.9,1.1,1.3,0.4c0.5-0.7,0.9-2.4,0.5-2.7c-0.4-0.3-0.7,0.3-1-0.4c-0.3-0.7-0.3-1.9-0.3-1.9c0,0-0.5-0.2-0.9-0.4
		C35.4,35.7,34.7,35.9,34.7,35.9z"/>
	<path class="st11" d="M35.4,42.4c-0.4,0.2-1.9,0.6-1.1,1.3c0.7,0.7,0.7,0.7,0.7,0.7c0,0-0.9,0.7-0.9,1c0,0.4,0.5,0.9,0.7,1.1
		c0.2,0.2-0.4,1,0,1.4c0.5,0.4,0.6,0.3,0.7,1c0.1,0.7-0.6,1.6-0.5,1.9c0,0.4,1.3,0.6,1.3,0.6c0,0,0.1,1.2,0,1.3
		c-0.1,0.1,0.9-0.1,1-0.8c0.1-0.6-1.2-0.4,0.1-0.6c1.4-0.3,2.9-0.1,2.5-0.9c-0.4-0.8-1.6-0.7-1.2-1.7c0.4-1-1-2.9-1-2.9
		c0,0,0.6-1.3,0.2-1.5c-0.5-0.2-1.6,0.7-1.4-0.2C36.8,43,35.4,42.4,35.4,42.4z"/>
	<path class="st11" d="M37.6,54.6c-0.5,0.3-0.8,0.4-1.3,0.5c-0.5,0.1-1.6,0.7-1.4,1.2c0.2,0.6,0,1,0.7,1.3c0.7,0.3,1.6-0.7,1.9,0.1
		c0.3,0.8,0.7,0.7,0.8,0.4c0.1-0.3,0.5-0.2,0.5-1c0-0.8,0.3-1,0.1-1.7c-0.3-0.7-0.4-1.3-0.4-1.3C38.1,54.3,37.8,54.5,37.6,54.6z"/>
	<path class="st11" d="M33.3,56.1c-0.8,0.5-1.6,0-1.9,0.5c-0.3,0.5-0.4,0.6-0.1,1.4c0.3,0.8-0.6,1.1-0.3,1.6c0.3,0.5,0.6,1.1,1,1.2
		c0.3,0.1,1.3,0,1.3,0c0,0,1.3-0.2,1.5-0.6c0.2-0.4-0.7-0.9-0.4-1.7c0.3-0.8,1.4-2.2,0.6-2.2c-0.8,0.1,0.1-1.1-0.8-0.7
		C33.3,56.1,33.3,56.1,33.3,56.1z"/>
	<path class="st12" d="M34.3,39.9c-0.2-0.2-0.3-0.5-0.5-0.7c0,0-0.6-0.5-0.5,0c0,0.5,0.3,0.5,0,0.5c-0.2,0-0.8-0.2-0.8-0.2
		c0,0.2,0,0.4,0,0.6c0,0.9,0,0.9,0,0.9c0,0,0.1,0.2,0.4,0.3c0.3,0,0.3,0,0.3,0c0,0,0.7-0.6,0.8-0.5c0.1,0.1,0.1,0.1,0.1,0.1
		c0.2,0.1,0.3,0.2,0.5,0.3C34.6,40.8,34.5,40.4,34.3,39.9z"/>
	<path class="st12" d="M38.2,41.9c0,0,0.7-0.5,0.6-0.5c-0.1,0.1,0.1,1,0.1,1c0.2,0.2,0.3,0.5,0.5,0.7C39,42.8,38.6,42.4,38.2,41.9z"
		/>
	<path class="st12" d="M33.6,46.5c-0.4,0-0.8,0-1.1,0c0.2,0.3,0.4,0.7,0.6,1c0.3,0,0.6,0,0.9,0C33.8,47.2,33.7,46.9,33.6,46.5z"/>
	<path class="st12" d="M35.3,52.6c-0.2-0.2-0.4-0.4-0.6-0.6c-0.1,0.4-0.2,0.7-0.3,1.1c0.2,0.1,0.4,0.2,0.6,0.4c0.4,0,0.8,0,1.1,0
		C35.8,53.2,35.6,52.9,35.3,52.6z"/>
	<path class="st12" d="M40.2,35.9c0,0,0.1,0.5,0.5,0.9c0.4,0.3,0.7,1,0.3,1c-0.4,0-0.8-0.4-0.8-0.4c0,0-0.9-0.2-0.7-0.5
		c0.1-0.2,0.2-0.7,0.2-0.7C39.9,36.1,40.1,36,40.2,35.9z"/>
	<path class="st12" d="M40,46.9c-0.2,0.4-0.2,1.1,0,1.2c0.3,0.1,0.3,0.1,0.3,0.1C40.3,48.3,40.2,46.5,40,46.9z"/>
	<path class="st12" d="M39.4,58.6c0.5,0.3,1.1,0.7,1.6,1c0,0,0.8-1.6,0.8-1.7c0-0.1,0-1,0-1C41,57.5,40.2,58.1,39.4,58.6z"/>
	<path class="st12" d="M37,61.5c0,0-0.3,0.9,0.2,1.1c0.5,0.1,1.1,0.6,1.1-0.1c0-0.6,0.1-1.2,0.1-1.2C37.9,61.4,37.5,61.5,37,61.5z"
		/>
	<path class="st12" d="M32.1,30.4c-0.3-0.2-1.1-0.9-1.3-0.4c-0.2,0.5-0.2,1.3,0.2,1.2c0.4-0.1,0.7,0.3,0.7,0.3
		C32.1,30.4,32.1,30.4,32.1,30.4z"/>
	<path class="st12" d="M32.3,23.2c0,0-1.5-1-1.4-0.8c0.1,0.2-0.1,0.2,0.2,1c0.3,0.9,0.7,0.9,0.7,0.9C32,23.9,32.2,23.5,32.3,23.2z"
		/>
	<path class="st12" d="M32.2,20c-0.2-0.2-0.6-0.6-1.2-0.8c-0.6-0.3-0.6-0.2-0.6,0.1c0.1,0.4-0.1,1,0.2,1.1c0.3,0.1,0.1,0,0.6,0.2
		c0.5,0.2,0.5,0.2,0.5,0.2C31.8,20.4,32,20.2,32.2,20z"/>
	<path class="st12" d="M31.9,13.1c-0.4-0.2-0.8-0.5-1.2-0.7c-0.2-0.1-0.4-0.2-0.6-0.4c0,0,0.7,1.9,0.8,1.8
		C31,13.7,31.9,13.1,31.9,13.1z"/>
	<path class="st12" d="M32.1,14c-0.1-0.2-0.2-0.9-0.2-0.9"/>
	<path class="st12" d="M38.4,16.4c0,0.6-0.1,1.1-0.1,1.7c0.4,0.6,0.6,0.8,0.8,0.4c0.2-0.4,0.2-0.4,0.2-0.4c-0.1-0.4-0.2-0.8-0.2-1.3
		C38.8,16.7,38.6,16.6,38.4,16.4z"/>
	<path class="st12" d="M40.7,24.9c0,0-0.6,0.3-0.8,0.7c-0.2,0.4-0.3,0.9-0.3,0.9c0.3-0.1,0.6-0.1,0.9-0.2
		C40.6,25.9,40.7,25.4,40.7,24.9z"/>
	<path class="st12" d="M42.3,31.8c-0.4,0.3-0.7,0.5-1.1,0.8c0.1,0.7,0.5,0.7,0.5,0.7C41.9,32.7,42.1,32.2,42.3,31.8z"/>
	<path class="st12" d="M33.7,33.2c-0.4,0.1-0.8,0.1-1.2,0.2c0,0.2,0,0.4,0.1,0.6c0,0,0.4-0.2,0.6-0.1c0.2,0.1,1-0.1,1-0.1
		C34,33.6,33.9,33.4,33.7,33.2z"/>
	<path class="st12" d="M37.2,29.7c-0.5-0.3-1-0.7-1.6-1c0,0.3,0.1,0.6,0.1,0.9c0.3,0.2,0.5,0.5,0.8,0.7C36.7,30.1,37,29.9,37.2,29.7
		z"/>
	<path class="st12" d="M38,46.4c-0.1,0.1-0.8,0.2-1,0c-0.2-0.2,0,0.6,0,0.6c0,0-0.2,1,0,1c0.2,0,1,0,1,0C38,47.4,38,46.9,38,46.4z"
		/>
	<path class="st12" d="M38.8,55.5c-0.3,0-0.6,0-0.9,0c0,0.3,0,0.5,0,0.8C38.2,56,38.5,55.8,38.8,55.5z"/>
	<path class="st12" d="M42.6,47.9c0,0,0.5-1,0.8-0.4c0.3,0.6,0.1,0.8,0,1c-0.1,0.2-0.6,0.4-0.6,0.4C42.7,48.5,42.6,48.2,42.6,47.9z"
		/>
	<path class="st12" d="M41.5,41.3c0,0,0.3-1,1-1.3c0.7-0.3,0.7-0.3,0.7-0.3c0,0,0.4,0.5,0.1,0.7c-0.2,0.3-0.4,0.8-0.4,0.8
		C42.4,41.2,41.9,41.3,41.5,41.3z"/>
	<path class="st12" d="M42.5,36.6c-0.5-0.1-0.8,0.8-0.8,1.1c0,0.3,0,0.3,0,0.3c0.3-0.1,0.6-0.2,0.9-0.4
		C42.5,37.3,42.5,36.9,42.5,36.6z"/>
	<path class="st12" d="M34.1,55c-0.3-0.3-0.6-0.6-0.9-0.9c0,0-0.5,0.8-0.5,0.9c0.1,0.1,0,0.4,0,0.4c0.2,0,0.5,0,0.7,0
		C33.7,55.2,33.9,55.1,34.1,55z"/>
	<path class="st12" d="M40,53.6c0,0,0.8,0.1,0.8,0.3c0,0.2,0.4,1,0.4,1c0,0-0.9,0.2-1,0c-0.1-0.2-0.1-0.2-0.1-0.2
		C40.1,54.3,40,54,40,53.6z"/>
	<path class="st12" d="M40.9,49.7c0,0-0.5,0.6-0.8,0.8c-0.3,0.3-0.5,0.7-0.5,0.7c0,0,0.7,0,0.7,0c0,0,0.5,0.5,0.5,0
		C40.8,50.8,40.9,49.7,40.9,49.7z"/>
	<path class="st12" d="M43.3,55c0.3,0,0.5,0,0.8,0c0,0,0.2,0.6,0,0.7c-0.6,0.3-1.3,0.6-1,0C43.3,55,43.3,55,43.3,55z"/>
	<path class="st12" d="M34.3,60.5c0.2,0.2,0.5,0.4,0.7,0.5c0.3-0.1,0.5-0.1,0.8-0.2c0,0,0.6-0.5,0.3-1c-0.3-0.5-0.6-0.6-0.6-0.6
		C35.1,59.7,34.7,60.1,34.3,60.5z"/>
	<path class="st12" d="M34.9,64.1c-0.1,0.5-0.2,1-0.3,1.5c0.8,0.1,1.4-0.4,1.4-0.4c-0.1-0.3-0.1-0.6-0.2-1
		C35.5,64.2,35.2,64.2,34.9,64.1z"/>
	<path class="st12" d="M34.6,20.9c0,0-0.7-0.7-0.9-0.3c-0.2,0.3-0.5-0.4-0.2,0.3c0.3,0.8-0.2,0.9,0.3,0.8
		C34.3,21.6,34.6,20.9,34.6,20.9z"/>
	<path class="st12" d="M35.3,15.9c-0.2-0.3-0.9-0.7-0.9-0.7c-0.2,0.4-0.4,0.9-0.6,1.3c0.2,0.2,0.4,0.3,0.6,0.5
		c-0.1,0.3-0.1,0.7-0.2,1"/>
	<path class="st12" d="M34,12.8c-0.1-0.3-0.3-0.5-0.4-0.8c-0.1-0.3-0.2-0.6-0.2-1c-0.1,0.4-0.2,0.8-0.3,1.1c0,0,0,0.4,0.2,0.8
		c0.2,0.4,0.2,0.4,0.2,0.4C33.7,13.2,33.9,13,34,12.8z"/>
	<path class="st12" d="M32.2,26.9c-0.5-0.2-1.2-0.5-1.2-0.5c0,0,0.4,0.7,0.5,0.9c0.1,0.2,0.8,0.3,0.8,0.3
		C32.3,27.4,32.3,27.2,32.2,26.9z"/>
	<path class="st12" d="M31.9,36.8c-0.5-0.6-1.4-0.7-1.4-0.7c0,0.3,0.1,0.6,0.1,0.9c0.2,0,0.5-0.1,0.7-0.1
		C31.5,36.8,31.7,36.8,31.9,36.8z"/>
	<path class="st12" d="M31.6,33.2c-0.7-0.1-1.4-0.5-1.4-0.5c0,0.2,0.1,0.5,0.1,0.7c0.1,0.3,0.3,0.6,0.4,0.8
		C31,33.9,31.3,33.6,31.6,33.2z"/>
	<path class="st12" d="M41.6,30c0.2-0.1,0.4-0.2,0.6-0.3c0.2-0.1,0.5-0.2,0.7-0.3C42.5,29.6,42,29.8,41.6,30z"/>
	<path class="st12" d="M38.9,40c0,0-0.1,0.7,0.6,0.8c0.8,0.1,0.9-0.9,0.9-0.9C39.9,40,39.4,40,38.9,40z"/>
	<path class="st12" d="M40.7,43.9c-0.3,0.1-1.2,0.4-1,0.7c0.2,0.3-0.1,0.2,0.2,0.3c0.3,0.1,0.9,0,0.9,0
		C40.8,44.6,40.8,44.3,40.7,43.9z"/>
	<path class="st13" d="M35,31.3c-0.1-0.2-0.7-0.6-0.7-0.6c-0.2,0.1-0.3,0.1-0.5,0.2c0,0,0.4,0.2,0.3,0.5c-0.1,0.2-0.1,0.2-0.1,0.2
		C34.4,31.5,34.7,31.4,35,31.3z"/>
	<path class="st13" d="M33.8,27.5c-0.2-0.2,0-0.9-0.2-0.2c-0.3,0.7-0.5,1-0.4,1.2c0.1,0.1,1-0.2,1-0.2C34.1,28.4,34,27.7,33.8,27.5z
		"/>
	<path class="st13" d="M30.6,20.3c-0.4,0.2-0.7,0.4-1.1,0.5c-0.2,0.7,0,0.7,0.1,0.6c0.1-0.2,0.6-0.1,0.6-0.1
		C30.4,21,30.5,20.7,30.6,20.3z"/>
	<path class="st13" d="M37.2,24.1c0.3-0.1,0.5-0.1,0.8-0.2c-0.2,0.3-0.5,0.5-0.7,0.8"/>
	<path class="st13" d="M39.6,37.9c0.2,0.2,0.4,0.4,0.6,0.6c-0.3,0.2-0.5,0.4-0.8,0.6C39.5,38.6,39.5,38.3,39.6,37.9z"/>
	<path class="st13" d="M34.9,43.9c0.2,0.1,0.3,0.2,0.5,0.3"/>
	<path class="st13" d="M37.9,49.7c0,0-0.2,0.5-0.1,0.8c0.1,0.3,0.6,0.1,0.6,0.1C38.3,50.3,38.1,50,37.9,49.7z"/>
	<path class="st13" d="M34.9,56.6c0,0,0.6-0.3,0.7,0c0.1,0.3,0,0.6,0,0.6c-0.1,0.1-0.3,0.1-0.4,0.2c-0.2,0-0.4,0-0.5,0
		C34.8,57.1,34.8,56.9,34.9,56.6z"/>
	<path class="st13" d="M40,53.6c-0.1,0.5-0.3,0.9-0.4,1.4c0,0-0.7,0.1-0.6-0.1c0.1-0.2,0-0.9,0-0.9c0.2-0.1,0.4-0.3,0.6-0.4
		C39.7,53.6,39.8,53.6,40,53.6z"/>
	<path class="st13" d="M34.4,53.1c0,0-0.6,0.4-0.9,0.3c-0.3-0.1-0.3-0.1-0.3-0.1c0-0.2,0-0.4,0-0.7C33.9,52.6,34.4,53.1,34.4,53.1z"
		/>
	<path class="st13" d="M35.1,63.4c0,0-0.5-0.1-1-0.1c-0.5,0-0.4-0.3-0.4-0.3c0.2-0.2,0.5-0.3,0.7-0.5c0,0,0.5-0.1,0.4,0
		C34.8,62.7,35.1,63.4,35.1,63.4z"/>
	<path class="st13" d="M42.6,50.7c0,0-0.5,0.5-0.5,0.8c0,0.3,0.2,0.6,0.2,0.6c0,0,0.6-0.1,0.7-0.6C43,51,42.6,50.7,42.6,50.7z"/>
	<path class="st13" d="M42.6,43.1c0,0-0.7,0-0.8,0c-0.1,0.1,0,0.6,0,0.6c0.1,0,0.3,0,0.4,0C42.3,43.5,42.5,43.3,42.6,43.1z"/>
	<path class="st13" d="M41.6,30.8c-0.2,0.3-0.4,0.5-0.5,0.7c0.2,0,0.4-0.1,0.6-0.1C41.6,30.8,41.6,30.8,41.6,30.8z"/>
	<path class="st13" d="M39.1,62.9c0.3,0.1,0.5,0.4,0.7-0.1c0.2-0.6,0.5-0.3,0.2-0.6c-0.3-0.3-0.6-0.5-1.1-0.1
		C38.3,62.5,38.9,62.8,39.1,62.9z"/>
	<path class="st13" d="M40.3,65.1c0.2,0.3,0.3,0.6,0.5,0.9c0.1-0.3,0.2-0.5,0.3-0.8C40.8,65.1,40.6,65.1,40.3,65.1z"/>
	<path class="st13" d="M32.7,19.8c0,0-0.2,0.4,0.1,0.5c0.3,0,0.6-0.2,0.6-0.3c-0.1-0.1-0.1-0.1-0.1-0.1
		C33.1,19.9,32.9,19.8,32.7,19.8z"/>
	<path class="st13" d="M31.7,11.3c0,0.1-0.5-0.7-0.3-0.2c0.1,0.6,0.2,0.9,0.2,0.9C31.6,12,31.8,11.2,31.7,11.3z"/>
	<path class="st13" d="M36.9,20.4c0,0.4,0.1,0.8,0.1,1.2c0,0,0.4,0.2,0.6,0c0.2-0.2,0.4-1,0.2-1.1c-0.2-0.1-0.2-0.1-0.2-0.1
		C37.3,20.4,37.1,20.4,36.9,20.4z"/>
	<path class="st8" d="M70.1,63.6c0,0-0.9,6.4-1.3,8.3c-0.4,1.9-1.4,11.2-1.9,12.9c-0.5,1.7-1.7,7.8-1.8,7.8c-0.3-0.7-0.7-1.4-1-2
		c1.1-6.8,2.1-13.6,3.4-20.4c0.3-1.7,0.7-3.5,1-5.2c0.1-0.5,0.3-1,0.4-1.4C69.3,63.5,69.7,63.6,70.1,63.6z"/>
	<path class="st9" d="M67.9,66.8c-0.6,0.1-1.2,0.1-1.8,0.1c0.2-0.7,0.4-1.4,0.5-2.2c0,0-0.6-1.1-0.9-1.2c-0.3,0,0.5-1.3,0.5-1.3
		c0,0-0.2-0.9-0.5-0.9c-0.2,0,0.4-1.2-0.3-1.3c-0.7-0.2-0.3-2.1-0.3-2.1c-1.1-0.4-0.5,0.6-1-0.4c-0.5-1.1-0.1-2.7-0.1-2.7
		c0.8,0.2,1.8,0.1,1.8,0.1c0,0-0.4-0.7-0.6-1.6c-0.2-0.9-0.5-1.3-0.2-1.4c0.4-0.2,0.4,0.8,0.8,0.4c0.4-0.3,1-0.8,1-1.7
		c0-0.9-0.4-1.7-0.4-2.3c0-0.6-0.3-1.2,0.1-1.7c0.3-0.5,1.1-0.5,1-1c-0.1-0.4,0.3-1.6,0.3-1.6c-0.2-0.5-0.3-1-0.4-1.5
		c0,0,0.2-0.6,0.5-1.6c0.3-1,0.1-1.6,0.5-2.1c0.4-0.5,0.2-0.7,0.5-1c0.3-0.3,0.9-1,0.7-1.5c-0.2-0.6,0-1.7,0-1.7c0,0,0-1.5-0.3-1.6
		c-0.2-0.1-0.1-1.1,0-1.5c0.1-0.4,0.1-1,0.4-1.1c0.4,0,0.5-0.3,1.3-0.5c0.7-0.2,1.7-0.6,1.7-0.2c0,0.4-0.3,1.5-0.7,2
		c-0.5,0.4-0.9,1-0.9,1c0,0-0.6,0.6-0.1,0.9c0.4,0.3,0.7,0.8,0.7,0.8c-0.1,0.5-0.2,1-0.3,1.4c0,0-0.2,0.7-0.2,1c0,0.4,0,0.5-0.4,0.6
		c-0.4,0.2-0.8,1.4-0.7,1.4c0.2,0.1,1.4,0.7,0.8,1.6c-0.6,1-1.3,1.5-1.3,1.5c0,0-0.1-0.4,1,0.7c1.1,1.1,0.3,0.3,1.2,1.1
		c0.8,0.8,1.2,0.4,0.8,1.4c-0.4,1-0.9,0.9-1.3,1.9c-0.3,1,0,1.5-0.2,1.9c-0.2,0.4-0.1,0.6-0.9,1.1c-0.8,0.5-1.3,1.8-1.3,1.8
		c0,0,0.5,1.3,0.1,1.6c-0.4,0.3-0.6,0.7-0.6,0.8c-0.1,0.1,0.7,1.4,0.6,1.8c-0.1,0.4,0,0.6-0.2,1.1c-0.2,0.5-0.4,1.6-0.4,2.1
		c0,0.5,0.2,0.6,0.1,1.4c-0.1,0.8-0.3,2.6-0.2,3.1c0.1,0.5,0.2,0.9,0.4,1.1c0.1,0.3,1.2-0.8,0.2,0.7C67.9,66.8,67.9,66.8,67.9,66.8z
		"/>
	<path class="st10" d="M72.7,29.6c0,0-2.2,1.2-1.7,0.2c0.4-0.9-0.4-2.3-0.4-2.3c0,0,0.5-0.9,0.7-0.9c0.2,0,1.8-1,1.9-1
		c-0.6-0.2-1.3-0.3-1.9-0.6c0.5-0.4,1.1-0.7,1.7-1.1c0,0,0.1-1-0.4-1.2c-0.4-0.1-0.1-1,0.2-1.1c0.3-0.1,0.9-0.3,1.2-0.7
		c0.2-0.3-0.1-1.4,0.1-1.7c0.2-0.2,2.4-1.2,2.4-1.2c0,0,0.4-1.4,0.7-1.6c0.3-0.2,1.5-1.8,1.5-1.7c0.4-0.1,0.8-0.1,1.1-0.2
		c0,0,1-0.9,1.3-0.9c0.3,0,1-0.6,1-0.6c0,0,0.4,1,0.2,1.3c-0.2,0.3,0.1,1.8,0.3,2c0.2,0.2,0.5,0.8,0.1,0.9c-0.4,0.1-0.9,0.2-0.9,0.5
		c0,0.3,0.8,1.4,0.8,1.4c0,0-0.1,1-0.5,1.1c-0.3,0.1-0.3,0.1,0.2,1.1c0.6,1,0.3,1.5-0.1,1.8c-0.4,0.4-0.5,1.7-0.5,1.7
		c0,0-0.5,1-1.1,0.9c-0.6-0.1-0.6-0.3-1,0.2c-0.4,0.6-0.2,2.6-0.4,2.9c-0.2,0.3-0.9,0.4-0.5,0.7c0.4,0.4,1.4,2,1.2,2.1
		c-0.2,0.1-1,0.4-1.2,0.7c-0.2,0.3,0.6,1.5,0.5,1.8c-0.1,0.2,0.1,1.1,0.1,1.2c0,0,0-0.1,0.3,1.2c0.3,1.2,1,1.6,0.2,2
		c-0.8,0.5-1.1,0.9-1.5,1c-0.4,0.1-0.4-0.9-1.2,0.2c-0.8,1.1-0.2,1.3,0,2.2c0.2,0.9,1,1.1,0.2,1c-0.8-0.1-1.4-0.2-1.4-0.2
		c0.1,0.4,0.2,0.7,0.3,1.1c-1.1,0.7-0.8,1.3-0.7,1.5c0.2,0.2,0.1,0.7,0.5,0.7c0.4-0.1-0.2,1-0.1,1.6c0.1,0.6,0.3,1.5-0.4,1.8
		c-0.7,0.3-1.7,0.5-1.8,0.9c0,0.4,0.6,2.8,0.6,2.8c0.7,0.6,0.7,1.3,1,1.8c0.3,0.5,0.4,1.8-0.2,2.1c-0.6,0.4-0.8,0.8-1.3,1.4
		c-0.5,0.6-0.9-1.1-0.5,0.6c0.4,1.7,0.8,1.8,0.7,2.2c-0.1,0.4-1,0.7-1,1c0,0.3,0.9,3.1,0.9,3.1c0,0-0.6-0.2-0.8,0.1
		c-0.2,0.3-1.3-0.2-2,0.5c-0.7,0.6-2,1-2,1c0,0,0.1-1.1-0.1-1.8c-0.2-0.6-1.5-6.7-1.4-7.1c0.1-0.3,0.2-4.6,0.5-5.1
		c0.2-0.5,1.2-4.9,1.2-4.9c0,0,0.5-2.8,0.5-3.2c0-0.4-0.2-4,0.1-5.2c0.3-1.2,0.6-5,0.6-5c0.2-0.8,0.4-1.6,0.6-2.4
		C71.6,31.6,72.2,30.6,72.7,29.6z"/>
	<path class="st11" d="M80,20.6c-0.6,0.1-1.8,0.5-2.1,0.5c-0.3,0-0.8-0.2-1,0.2c-0.2,0.4,0.8-0.1-0.2,0.4c-1,0.5-1,0.8-1.3,1.1
		c-0.3,0.3-1-0.5-1-0.9c0-0.4,0.2-0.8,0.9-1.6c0.8-0.8,1.7-1.8,1.9-2.1c0.2-0.3,0-1.8,0-1.8c0.5-0.6,1-1.2,1.5-1.7
		c0,0-0.2-0.7,0.2-0.9c0.4-0.1,1,0.7,1,0.7c0.6,1.3,1.3,1.6,1.3,1.6c0,0,0.7,1.1,0.1,1.4c-0.6,0.3,2.2,1.7,1.4,1.6
		c-0.9-0.2-2.2,0.4-2.2,0.4C80.3,20,80.1,20.3,80,20.6z"/>
	<path class="st11" d="M78.5,24.8c-0.4,0.5-0.6,0.7-0.4,1.3c0.3,0.6-0.2,1.8-0.2,1.8c0,0-0.9-0.3-1-0.2c-0.1,0.1-1.5-0.3-1.1-0.9
		c0.3-0.6,0.6-1.5,0.6-1.9c0-0.4,0.2-0.8,0.3-1C76.8,23.7,78.9,24.2,78.5,24.8z"/>
	<path class="st11" d="M74.2,24.4c0.2,0.1,0.4,1.2,0.1,1.7c-0.3,0.5-0.8,1.2-0.5,1.7c0.3,0.4,1.8-0.1,1.3,0.9
		c-0.6,1.1-0.8,1.4-0.6,2.2c0.2,0.8,0.6,0.9,1,0.8c0.4-0.1,1.2,0.2,1.2,0.2c0.2,1.7,0.4,2.6,0.4,2.6c0,0-0.8,1.2-0.4,1.7
		c0.4,0.4,0.3,1.4,0.3,1.4c0,0-0.8-2.7-0.9-3c-0.1-0.3-0.7-1.3-1.1-0.6c-0.4,0.6-0.2,1.6-0.6,1.3c-0.5-0.3-0.6-1.4-0.8,0
		c-0.3,1.4-1.1,3.2-1.1,2.2c0-0.9,0.4-1-0.2-2.1c-0.6-1-2-1.8-1.1-2.8c0.8-0.9,0.9-3.2,0.9-3.2c0.1-0.5,0.3-1,0.4-1.5
		c0,0,0-0.5,0.2-0.9c0.2-0.4,0.4-1.4,0.4-1.4C73.5,25.2,73.9,24.8,74.2,24.4z"/>
	<path class="st11" d="M79.5,35.6c0,0,1.4-0.1,1.4,0.7c0,0.7,0.2,0.7,0,2.2c-0.1,1.5,0.7,2.9-0.1,1.5c-0.8-1.3-1.8-0.9-1.9-1.7
		c-0.1-0.9-0.7-1.3-0.7-1.4c-0.1-0.1,0.2-0.8,0.2-0.8C78.7,35.9,79.1,35.7,79.5,35.6z"/>
	<path class="st11" d="M75.3,36.8c0,0,0.8,1.4,0.5,1.8c-0.3,0.3-0.7,0.8-1.3,0.6c-0.5-0.2-0.9-0.3-0.8,0.9c0.1,1.2,0.2,1.3-0.3,1.7
		c-0.5,0.5-0.9,1.2-1.3,0.6c-0.4-0.6-0.5-2.3-0.2-2.6c0.4-0.3,0.6,0.2,1-0.5c0.4-0.8,0.5-2,0.5-2c0,0,0.5-0.3,0.8-0.5
		C74.7,36.6,75.3,36.8,75.3,36.8z"/>
	<path class="st11" d="M74,43.3c0.3,0.1,1.7,0.4,0.9,1.1c-0.8,0.7-0.8,0.8-0.8,0.8c0,0,0.7,0.6,0.7,1c0,0.4-0.5,0.9-0.8,1.1
		c-0.2,0.2,0.3,1-0.2,1.4c-0.5,0.4-0.6,0.3-0.7,1.1c-0.1,0.7,0.4,1.5,0.3,1.8c-0.1,0.4-1.3,0.8-1.3,0.8c0,0-0.2,1.2-0.1,1.3
		c0.1,0.1-0.8,0-0.9-0.6c-0.1-0.6,1.2-0.6-0.1-0.6c-1.2,0-2.6,0.1-2.2-0.7c0.4-0.8,1.5-0.8,1.3-1.8c-0.2-1,1.2-3,1.2-3
		c0,0-0.4-1.2,0-1.5c0.4-0.2,1.4,0.5,1.3-0.4C72.5,44.1,74,43.3,74,43.3z"/>
	<path class="st11" d="M70.7,55.8c0.4,0.2,0.7,0.3,1.2,0.3c0.5,0,1.4,0.5,1.1,1c-0.3,0.6-0.1,1-0.7,1.4c-0.6,0.4-1.4-0.4-1.8,0.4
		c-0.4,0.8-0.7,0.8-0.8,0.5c-0.1-0.3-0.4-0.1-0.4-0.9c0.1-0.8-0.2-1,0.1-1.7c0.3-0.7,0.5-1.4,0.5-1.4C70.3,55.6,70.5,55.7,70.7,55.8
		z"/>
	<path class="st11" d="M74.5,56.8c0.6,0.4,1.4,0.1,1.6,0.7c0.2,0.6,0.3,0.7-0.1,1.4c-0.4,0.7,0.4,1.2,0.1,1.6
		c-0.3,0.4-0.7,1-0.9,1.1c-0.3,0.1-1.1-0.1-1.1-0.1c0,0-1.1-0.1-1.3-0.5c-0.1-0.4,0.7-0.9,0.5-1.7c-0.2-0.8-1-2.1-0.3-2.1
		c0.7,0,0.1-1.1,0.8-0.7C74.5,56.7,74.5,56.8,74.5,56.8z"/>
	<path class="st12" d="M75.2,40.8c0.2-0.2,0.4-0.5,0.5-0.7c0,0,0.6-0.5,0.5,0c-0.1,0.5-0.3,0.5-0.1,0.5c0.2,0,0.8-0.2,0.8-0.1
		c0,0.2-0.1,0.4-0.1,0.6c-0.1,0.8-0.1,0.8-0.1,0.8c0,0-0.1,0.2-0.4,0.2c-0.3,0-0.3,0-0.3,0c0,0-0.6-0.6-0.7-0.5
		c-0.2,0.1-0.2,0.1-0.2,0.1c-0.2,0.1-0.3,0.2-0.5,0.3C74.8,41.7,75,41.2,75.2,40.8z"/>
	<path class="st12" d="M71.4,43.2c0,0-0.5-0.5-0.5-0.4c0.1,0.1-0.2,1.1-0.2,1.1c-0.2,0.3-0.3,0.5-0.5,0.8
		C70.6,44.2,71,43.7,71.4,43.2z"/>
	<path class="st12" d="M75.2,47.2c0.4,0,0.7,0,1.1,0.1c-0.2,0.3-0.4,0.7-0.7,1c-0.3,0-0.5,0-0.8,0C74.9,47.9,75.1,47.6,75.2,47.2z"
		/>
	<path class="st12" d="M73,53.5c0.2-0.2,0.4-0.5,0.6-0.7c0.1,0.3,0.1,0.7,0.2,1c-0.2,0.1-0.4,0.3-0.6,0.4c-0.3,0.1-0.7,0.1-1,0.2
		C72.5,54.1,72.7,53.8,73,53.5z"/>
	<path class="st12" d="M70.4,37.3c0,0-0.2,0.5-0.5,0.9c-0.4,0.3-0.7,0.9-0.4,1c0.3,0,0.7-0.3,0.7-0.3c0,0,0.8-0.3,0.7-0.5
		c-0.1-0.2-0.1-0.7-0.1-0.7C70.6,37.5,70.5,37.4,70.4,37.3z"/>
	<path class="st12" d="M69.3,48.3c0.1,0.4,0.1,1.1-0.2,1.3c-0.3,0.1-0.3,0.1-0.3,0.1C68.9,49.7,69.2,47.9,69.3,48.3z"/>
	<path class="st12" d="M68.6,60c-0.5,0.4-1.1,0.7-1.6,1c0,0-0.5-1.7-0.5-1.8c0-0.1,0.1-1,0.1-1C67.2,58.9,67.9,59.5,68.6,60z"/>
	<path class="st12" d="M70.6,62.6c0,0,0.2,0.9-0.3,1.1c-0.5,0.2-1.1,0.7-1,0.1c0.1-0.6,0.1-1.1,0.1-1.1
		C69.7,62.6,70.2,62.6,70.6,62.6z"/>
	<path class="st12" d="M78.5,31.5c0.3-0.1,1.2-0.7,1.4-0.1c0.2,0.6,0,1.3-0.3,1.2c-0.4-0.2-0.7,0.1-0.7,0.1
		C78.5,31.5,78.5,31.5,78.5,31.5z"/>
	<path class="st12" d="M79.4,24.6c0,0,1.6-0.7,1.5-0.5c-0.1,0.2,0.1,0.2-0.3,0.9c-0.4,0.8-0.8,0.7-0.8,0.7
		C79.6,25.3,79.5,25,79.4,24.6z"/>
	<path class="st12" d="M80.1,21.5c0.2-0.1,0.7-0.4,1.3-0.6c0.6-0.1,0.7-0.1,0.5,0.3c-0.1,0.3-0.1,0.9-0.4,1c-0.3,0-0.1-0.1-0.6,0
		c-0.5,0.1-0.5,0.1-0.5,0.1C80.4,22,80.3,21.8,80.1,21.5z"/>
	<path class="st12" d="M81.7,15.1c0.4-0.2,0.8-0.3,1.2-0.5c0.2-0.1,0.4-0.2,0.6-0.3c0,0-1,1.7-1.1,1.6
		C82.4,15.8,81.7,15.1,81.7,15.1z"/>
	<path class="st12" d="M81.3,15.9c0.1-0.2,0.4-0.8,0.4-0.8"/>
	<path class="st12" d="M75.1,17.7c-0.1,0.6-0.2,1.1-0.2,1.7c-0.5,0.5-0.7,0.8-0.8,0.4C74,19.3,74,19.3,74,19.3
		c0.2-0.4,0.3-0.8,0.5-1.3C74.7,18,74.9,17.8,75.1,17.7z"/>
	<path class="st12" d="M71.5,26.1c0,0,0.4,0.3,0.6,0.7c0.1,0.4,0.1,1,0.1,1c-0.2-0.1-0.5-0.1-0.7-0.2C71.5,27.1,71.5,26.6,71.5,26.1
		z"/>
	<path class="st12" d="M69.3,32.9c0.2,0.3,0.5,0.6,0.7,0.9c-0.2,0.7-0.5,0.6-0.5,0.6C69.4,33.9,69.3,33.4,69.3,32.9z"/>
	<path class="st12" d="M76.6,34.2c0.4,0.1,0.8,0.1,1.2,0.2c-0.1,0.2-0.1,0.4-0.1,0.6c0,0-0.4-0.2-0.6-0.1c-0.2,0.1-1-0.1-1-0.1
		C76.3,34.6,76.4,34.4,76.6,34.2z"/>
	<path class="st12" d="M73.8,30.9c0.5-0.4,1-0.7,1.6-1.1c-0.1,0.3-0.2,0.6-0.2,0.9c-0.3,0.2-0.6,0.5-0.8,0.7
		C74.1,31.3,74,31.1,73.8,30.9z"/>
	<path class="st12" d="M71.2,47.6c0.1,0.1,0.7,0.1,0.9-0.1c0.2-0.2-0.1,0.6-0.1,0.6c0,0,0.1,1-0.1,1c-0.2,0-0.9,0.1-0.9,0.1
		C71.1,48.7,71.1,48.1,71.2,47.6z"/>
	<path class="st12" d="M69.5,56.8c0.3,0,0.6-0.1,0.8-0.1c0,0.3,0,0.5-0.1,0.8C70,57.3,69.7,57.1,69.5,56.8z"/>
	<path class="st12" d="M67,49c0,0-0.3-1.1-0.6-0.7c-0.3,0.4-0.2,0.8-0.1,1c0,0.3,0.5,0.7,0.5,0.6C66.8,49.6,66.9,49.3,67,49z"/>
	<path class="st12" d="M68.7,42.6c0,0-0.1-1-0.6-1.5c-0.5-0.5-0.5-0.5-0.5-0.5c0,0-0.3,0.3-0.2,0.7c0.1,0.3,0.2,0.9,0.2,0.9
		C68,42.4,68.3,42.6,68.7,42.6z"/>
	<path class="st12" d="M68.4,37.7c0.4,0,0.5,0.9,0.5,1.2c0,0.3,0,0.3,0,0.3c-0.2-0.2-0.4-0.3-0.6-0.5C68.3,38.4,68.4,38.1,68.4,37.7
		z"/>
	<path class="st12" d="M73.8,55.7c0.3-0.3,0.6-0.7,0.9-1c0,0,0.4,0.8,0.3,0.9C75,55.7,75,56,75,56c-0.2,0-0.4,0-0.6,0
		C74.2,55.9,74,55.8,73.8,55.7z"/>
	<path class="st12" d="M68.6,55c0,0-0.7,0.1-0.8,0.3c-0.1,0.2-0.5,1-0.5,1c0,0,0.8,0.2,0.9,0c0.1-0.2,0.1-0.2,0.1-0.2
		C68.4,55.7,68.5,55.4,68.6,55z"/>
	<path class="st12" d="M68.2,51.1c0,0,0.4,0.6,0.7,0.8c0.3,0.3,0.4,0.7,0.4,0.7c0,0-0.6,0-0.6,0c0,0-0.5,0.5-0.5,0
		C68.2,52.2,68.2,51.1,68.2,51.1z"/>
	<path class="st12" d="M65.5,55.9c-0.2-0.1-0.5-0.2-0.7-0.3c0,0-0.2,0.5-0.1,0.7c0.5,0.6,1.1,1.1,0.9,0.4
		C65.5,55.9,65.5,55.9,65.5,55.9z"/>
	<path class="st12" d="M73.1,61.3c-0.2,0.2-0.4,0.4-0.7,0.6c-0.2,0-0.5-0.1-0.7-0.1c0,0-0.4-0.5-0.2-1c0.3-0.5,0.6-0.7,0.6-0.7
		C72.5,60.5,72.8,60.9,73.1,61.3z"/>
	<path class="st12" d="M72.1,64.9c0,0.5,0,1,0.1,1.4c-0.7,0.1-1.2-0.3-1.2-0.3c0.1-0.3,0.2-0.7,0.3-1C71.6,65.1,71.9,65,72.1,64.9z"
		/>
	<path class="st12" d="M77.7,22.3c0,0,0.8-0.6,0.9-0.3c0.1,0.3,0.5-0.4,0.1,0.3c-0.4,0.7,0,0.8-0.4,0.7
		C77.8,22.9,77.7,22.3,77.7,22.3z"/>
	<path class="st12" d="M78,17.4c0.2-0.2,1-0.6,1-0.6c0.1,0.4,0.2,0.9,0.3,1.3c-0.2,0.1-0.4,0.3-0.7,0.4c0,0.3,0,0.7-0.1,1"/>
	<path class="st12" d="M79.8,14.6c0.2-0.2,0.3-0.4,0.5-0.7c0.1-0.3,0.3-0.6,0.4-0.9c0,0.4,0,0.7,0,1.1c0,0-0.1,0.4-0.3,0.7
		c-0.3,0.3-0.3,0.3-0.3,0.3C80,15,79.9,14.8,79.8,14.6z"/>
	<path class="st12" d="M78.9,28.2c0.6-0.1,1.3-0.3,1.3-0.3c0,0-0.5,0.6-0.6,0.7c-0.1,0.1-0.8,0.2-0.8,0.2
		C78.8,28.6,78.9,28.4,78.9,28.2z"/>
	<path class="st12" d="M77.9,37.8c0.5-0.5,1.5-0.4,1.5-0.4c-0.1,0.3-0.1,0.6-0.2,0.8c-0.2-0.1-0.5-0.2-0.7-0.3
		C78.3,37.9,78.1,37.8,77.9,37.8z"/>
	<path class="st12" d="M78.7,34.4c0.7,0,1.5-0.1,1.5-0.1c-0.1,0.2-0.1,0.4-0.2,0.7c-0.2,0.2-0.4,0.4-0.5,0.7
		C79.2,35.2,79,34.7,78.7,34.4z"/>
	<path class="st12" d="M70.1,31.2c-0.2-0.1-0.3-0.3-0.4-0.4c-0.2-0.2-0.3-0.3-0.5-0.5C69.5,30.7,69.8,31,70.1,31.2z"/>
	<path class="st12" d="M71,41.4c0,0,0,0.7-0.6,0.9c-0.7,0.1-0.6-0.8-0.6-0.8C70.1,41.4,70.5,41.4,71,41.4z"/>
	<path class="st12" d="M69,45.3c0.2,0.1,1,0.4,0.8,0.7c-0.2,0.3,0,0.2-0.2,0.3c-0.2,0.1-0.7,0-0.7,0C68.9,46,68.9,45.7,69,45.3z"/>
	<path class="st13" d="M75.6,32.3c0.1-0.2,0.7-0.6,0.7-0.6c0.1,0.1,0.3,0.1,0.4,0.2c0,0-0.4,0.2-0.4,0.5c0,0.2,0,0.2,0,0.2
		C76.2,32.5,75.9,32.4,75.6,32.3z"/>
	<path class="st13" d="M77.3,28.6c0.3-0.2,0.1-0.9,0.3-0.2c0.2,0.7,0.4,1,0.2,1.1c-0.2,0.1-0.9-0.2-0.9-0.2
		C76.9,29.5,77.1,28.8,77.3,28.6z"/>
	<path class="st13" d="M81.6,22.2c0.3,0.3,0.6,0.5,1,0.8c0.1,0.7-0.1,0.7-0.2,0.5c-0.1-0.2-0.6-0.2-0.6-0.2
		C81.8,22.9,81.7,22.5,81.6,22.2z"/>
	<path class="st13" d="M74.6,25.3c-0.2,0-0.5-0.1-0.7-0.1c0.2,0.3,0.3,0.5,0.5,0.8"/>
	<path class="st13" d="M70.7,39.2c-0.2,0.2-0.4,0.4-0.6,0.6c0.2,0.2,0.4,0.4,0.6,0.6C70.7,40,70.7,39.6,70.7,39.2z"/>
	<path class="st13" d="M74.2,44.7c-0.2,0.1-0.3,0.2-0.5,0.3"/>
	<path class="st13" d="M70.9,51c0,0,0.2,0.5,0,0.8c-0.1,0.3-0.6,0.2-0.6,0.2C70.5,51.6,70.7,51.3,70.9,51z"/>
	<path class="st13" d="M72.9,57.4c0,0-0.5-0.2-0.6,0.1c-0.1,0.3,0,0.6,0,0.6c0.1,0.1,0.2,0.1,0.4,0.2c0.2,0,0.3-0.1,0.5-0.1
		C73.1,57.9,73,57.6,72.9,57.4z"/>
	<path class="st13" d="M68.6,55c0.1,0.5,0.1,0.9,0.2,1.4c0,0,0.7,0.1,0.6-0.1c-0.1-0.2,0.1-0.9,0.1-0.9c-0.2-0.1-0.3-0.2-0.5-0.3
		C68.9,55,68.8,55,68.6,55z"/>
	<path class="st13" d="M73.8,53.8c0,0,0.5,0.4,0.8,0.3c0.3-0.1,0.3-0.1,0.3-0.1c0-0.2,0-0.4,0-0.7C74.3,53.3,73.8,53.8,73.8,53.8z"
		/>
	<path class="st13" d="M72.1,64.2c0,0,0.4-0.1,0.8-0.2c0.4-0.1,0.3-0.3,0.3-0.3c-0.2-0.1-0.4-0.3-0.6-0.4c0,0-0.4,0-0.4,0.1
		C72.4,63.4,72.1,64.2,72.1,64.2z"/>
	<path class="st13" d="M66.6,51.8c0,0,0.4,0.6,0.3,0.9c-0.1,0.3-0.3,0.5-0.3,0.5c0,0-0.6-0.3-0.5-0.8C66.2,52,66.6,51.8,66.6,51.8z"
		/>
	<path class="st13" d="M67.6,44.2c0,0,0.6,0.1,0.6,0.2c0.1,0.1-0.1,0.6-0.1,0.6c-0.1,0-0.2-0.1-0.3-0.1
		C67.7,44.7,67.6,44.5,67.6,44.2z"/>
	<path class="st13" d="M69.9,32c0.1,0.3,0.2,0.5,0.3,0.8c-0.2,0-0.3-0.1-0.5-0.2C69.9,32,69.9,32,69.9,32z"/>
	<path class="st13" d="M68.4,64.2c-0.3,0.2-0.5,0.5-0.6-0.1c-0.1-0.6-0.4-0.3-0.1-0.6c0.3-0.3,0.6-0.5,1.1-0.1
		C69.2,63.7,68.7,64.1,68.4,64.2z"/>
	<path class="st13" d="M67.1,66.3c-0.2,0.3-0.4,0.6-0.6,0.9c-0.1-0.3-0.1-0.5-0.2-0.8C66.5,66.4,66.8,66.4,67.1,66.3z"/>
	<path class="st13" d="M79.7,21.4c0,0,0.1,0.4-0.2,0.4c-0.3,0-0.6-0.2-0.5-0.4c0.1-0.1,0.1-0.1,0.1-0.1
		C79.3,21.3,79.5,21.3,79.7,21.4z"/>
	<path class="st13" d="M82.2,13.4c0,0.1,0.6-0.6,0.3-0.1c-0.2,0.5-0.4,0.8-0.4,0.8C82.2,14.1,82.2,13.3,82.2,13.4z"/>
	<path class="st13" d="M75.6,21.7c-0.1,0.4-0.2,0.8-0.3,1.2c0,0-0.4,0.2-0.5,0c-0.1-0.2-0.1-1,0.1-1.1c0.2-0.1,0.2-0.1,0.2-0.1
		C75.2,21.7,75.4,21.7,75.6,21.7z"/>
</g>
</svg>
