<svg xmlns="http://www.w3.org/2000/svg" version="1.1" xmlns:xlink="http://www.w3.org/1999/xlink" xmlns:svgjs="http://svgjs.dev/svgjs" viewBox="0 0 108 108" style="" x="0" y="0"><style type="text/css">
	.st0{fill:none;stroke:#B2BB87;stroke-width:2.1709;stroke-miterlimit:10;}
	.st1{fill:#BDC689;}
	.st2{fill:#9EB27E;}
	.st3{fill:#819368;}
	.st4{fill:#A6B77A;}
	.st5{fill:#778659;}
	.st6{fill:#C8D184;}
	.st7{fill:#C0C8A2;}
	.st8{fill:#94A36D;}
	.st9{fill:#BFBF79;}
	.st10{fill:#C3C297;}
	.st11{fill:#BA76B3;}
	.st12{fill:#C78DBE;}
	.st13{fill:#D29CC6;}
	.st14{fill:#CF8ABB;}
	.st15{fill:#C79EC9;}
	.st16{fill:#D698C3;}
	.st17{fill:#CF8BBC;}
	.st18{fill:#CF86B9;}
	.st19{fill:#FFFEF0;}
	.st20{display:none;}
	.st21{display:inline;fill:none;}
	.st22{fill:none;stroke:#000000;stroke-width:0.3657;stroke-miterlimit:10;}
	.st23{fill:#93976A;}
	.st24{fill:#C4C68B;}
	.st25{fill:#CCD3AF;}
	.st26{fill:#97A39B;}
</style><g><path class="st0" d="M52.9,23.6c0,0,2.2,53.1,0.6,75.9"></path><path class="st1" d="M55.2,81.4c-0.1,0.4-2.3,5.8-3.3,6.6c-1,0.8-2.3,2.3-2.3,2.3s-0.8,3.9-0.9,3.2c0.4-5.3,2-9.8,3.2-12.4
	C53.7,81.3,55.3,81.1,55.2,81.4z"></path><path class="st2" d="M48.8,92.7c0.1-2.8,0-4.1-0.7-5.9c-0.7-1.8,0.2-7.4,1.6-6.6c0.7,0.4,1.5,0.6,2.3,0.8c-1.2,2.7-2.8,7.1-3.2,12.4
	C48.7,93.3,48.7,93.1,48.8,92.7z"></path><path class="st2" d="M55.9,78.9c1.1-0.9,2.5-1.8,4.2-2.5c4.2-1.7,16.7,2.9,17,6.8c0.3,3.9-0.8,7.3,0.9,10.9c0.3,0.7,0.4,1,0.4,1
	C75.1,88.1,75.2,78.4,55.9,78.9z"></path><path class="st1" d="M73.6,89.2c-2.6-1.9-12.3-7-15.3-7.2s-5.5,0.1-5.5,0.1s1.1-1.6,3.2-3.3c19.3-0.4,19.1,9.2,22.5,16.3
	C78.3,95.4,75.7,90.8,73.6,89.2z"></path><path class="st2" d="M34.5,96c0,0,0.2-3.2-0.6-5.4c-0.7-2.2,2-9.2,4-10.6c1.9-1.4,3.4-2.6,3.9-2.7c0.6-0.2,10.6-2.1,10.9,0.4
	C35.7,80,36.1,88.9,34.5,96z"></path><path class="st3" d="M52.6,81.1c-1.3,0.4-1.3,0.4-1.3,0.4c-1.3,0.3-10.5,4.6-12.6,7.2c-2,2.7-4.2,7.2-4.2,7.2
	c1.5-7.1,1.2-16,18.2-18.3C53,80.2,53.9,80.7,52.6,81.1z"></path><path class="st4" d="M59,71.4c2.2,0,3.6,0,3.6,0s-0.7-0.8,0-1.2c0.7-0.3,0.8-0.1,1.3,0s0.6-0.8,0.6-0.8s-0.1-1.2,0-1.4
	c0.1-0.2,0.8-0.7,1.6-0.8c0.8-0.1,1.9-0.9,1.6-1.2c-0.3-0.3,0.9-0.3,1.5-0.6c0.6-0.3,0.8-1.3,0.5-1.5c-0.3-0.2,1.1-1,1.1-1
	s0.3-0.4-0.7-0.4c-1-0.1-1.9-0.2-1.8-0.8s0.5-0.8,0.7-1.5c0.2-0.6,0.9-1.2,0.2-1.5c-0.7-0.4-2.6,0-2.6,0s-0.5-0.5,0.4-1.3
	c0.9-0.8,1.2-1.6,0.5-1.5c-0.7,0.1-1.7,1.2-1.7,1.2s-4.6,2.7-3.9,1.3c0.7-1.4,1.9-3.8,1.3-4.3c-0.6-0.5-1.5-0.9-2-0.3
	c-0.5,0.6-1,0.9-1.3,0.8c-0.4-0.1-1.1-0.9-1.3-1.2c-0.2-0.2-0.4-0.5-0.6,0c-0.2,0.5-0.7,1.3-0.7,1.3s-1,0.6-1.5,0
	c-0.5-0.6-0.6-1.3-1.8-1.2c-1.2,0.1-1,0.1-1.3,0.7C52.6,55,53,55.1,52,55.3c-1,0.1-1.8-0.4-2.2-0.5c-0.4-0.1-0.7-0.5-0.8,0.4
	c-0.1,0.9,0.7,1.3-0.5,1.5s-2.8-0.2-3.8-0.2s-1.1-0.5-1.5,0.2c-0.4,0.7-0.5,0.8-0.9,1.2s-1.1,0.8-1.9,0.8c-0.8,0-0.5-0.2-1.4,0.5
	s-0.8,1.2-0.6,1.5c0.2,0.4,0.4,0.4-0.6,0.7c-1,0.2-0.6,0.7-0.5,1.1c0.1,0.3-1.5,1.2-1.3,1.8c0.2,0.5,0.5-0.2,0.2,0.5
	c-0.2,0.7,0.2,1.7,0.6,1.8c0.4,0.1-0.5,0.1-0.2,1.2s1.5,1.2,2,1.2C39,69,39.4,68.5,39,69c-0.4,0.5,1.3,2.4,1.3,2.4s2.5,1,2.7,1.4
	c0.1,0.4,1.2,1.5,1.7,1.8c0.5,0.3,1.7,0.8,2.1,0.9c0.4,0.1,0.7,0.2,1.4,0.7s1.8,0.5,2.6,0.4c0.8-0.2,1.2,0.2,2.6,0.1
	c1.4-0.1,2.1,0.1,2.7,0c0.6-0.1,1.9,0.1,2.2,0c0.3-0.1,2.4-0.5,2.6-0.7s0.5-0.2,0.4-0.7c-0.1-0.5-0.9-1.3-0.9-1.3s0.7-0.7,0.6-1
	c-0.1-0.2,0.2,0.2-0.1-0.2c-0.3-0.4,0.1-0.8,0.1-0.8L59,71.4z"></path><path class="st5" d="M58.3,73.2c-0.8-0.4-0.6-1-1.9-1.3s-1.9,0.8-2.4,0.6c-0.5-0.2-1.2-0.5-1.8-0.7s0.2-0.8-0.9,0
	c-1.2,0.8-2.5,0.5-2.5,0.5s-0.2-1-1.3,0s-1.1,1.1-1.8,0.9c-0.7-0.2-1-1.4-1.1-0.8c-0.1,0.6-1.1,1.1,0.8,1.4c1.9,0.3,3.4-0.7,4.4,0
	c0.9,0.7,0.5,1.2,2.3,1.3c1.8,0.2,2.8,0,2.8,0s0.5,0.2,1.3,0.1c0.8-0.1,1.7-0.8,1.7-0.8L58.3,73.2z"></path><path class="st6" d="M54.9,69.7c0.8-0.9,0.5-1.7,1.6-2.4c1.2-0.8,1.3-1,1.3-1.7c0-0.7,0-2.5-0.7-1.4s-1.9,2.4-2.5,2.6
	c-0.7,0.2-1-0.2-1.2,0.7c-0.2,0.8-0.2,0.8,0,1.2c0.2,0.3,0.2,0.5,0.8,0.8C54.9,69.7,54.9,69.7,54.9,69.7z"></path><path class="st7" d="M47.6,70.4c-0.4,0.3-1.3,0.5-2,0.3s-0.1-1.5-0.8-1.7c-0.7-0.2-2.8,0.5-2.8,0.5s-0.2-0.8-0.9-1.1
	s-3.4-0.5-1.3-0.7c2.1-0.2,3.4,0.4,3,0c-0.4-0.4-3.1-1.3-3.3-1.3c-0.2-0.1,1-0.8,1-0.8l-2.1-1.2c0,0,1.4-0.5,1.6-0.5
	s-0.4-1.3-0.4-1.3h2.4l-1.3-2.2c0,0,2,1,2.4,1.4s0.7,3.5,0.7,3.5s0.4-0.3,1.1,0.3c0.7,0.6-1.1,0.8,0,1.7c1.1,1,1.1-1,2,1
	C47.6,70.4,47.6,70.4,47.6,70.4z"></path><path class="st8" d="M45.4,62.3c-0.4-0.7-1.3-1.4-1.6-2.2c-0.3-0.8-0.5-2.4,0.4-1.6s2,0.5,1.8-0.2c-0.2-0.7-0.2-1.5,0.4-0.7
	s1.8,1.3,1.8,0.8s-0.1-2.1,0.3-1.1c0.4,1,0.7,2,1.3,1s0.6-2.5,0.9-1.3c0.2,1.1,1-0.6,1.3-0.4c0.4,0.2,0.5,0.8,0.3,1.6
	s0.4,0.5-0.7,1.3s-0.2,0-1,0.8c-0.8,0.8-1.9-0.4-1.9-0.4s-0.1,0.7-0.1,1.6c0,0.9,0.5,1.8,0.5,1.9c0,0.2-1.2-0.2-1.1,0.2
	c0.1,0.5,0.7,0.7,1,1.6c0.3,0.9-1.2,0.9-0.4,1.8c0.7,0.9,1.6,1.8,0.9,1.8c-0.7-0.1-1.3-1.3-1.8-2.3s-0.1-2-0.8-2.4
	S45.4,62.3,45.4,62.3z"></path><path class="st9" d="M54.1,56.8c-0.2,0.5-0.9,3.3-0.7,3.8c0.2,0.5-0.1,1-0.1,1.9c-0.1,0.9-2.5,3.2,0.9,0.7c3.3-2.5,3.8-1.8,4.2-2.8
	c0.4-1,1.5-4.6,1.2-4.4s-0.5,0.8-1.2,1c-0.7,0.2-0.6-0.1-0.8-0.4c-0.2-0.3-0.4-0.7-0.7,0S56.5,58,55.9,58c-0.6,0-0.4-1-0.4-1
	s-0.2,0.4-0.5,0.5C54.8,57.7,54.1,56.8,54.1,56.8z"></path><path class="st10" d="M60.9,61.4c2.1-0.6,3.5-1.8,2.8-0.5c-0.6,1.3-1,2.2-0.2,2c0.8-0.2,1.3-1,2.1-0.7s1,0.7,1.4,0.8
	c0.4,0.1,1.2,1.2-0.4,1.3c0,0-1.7,1-2.1,1.3c-0.4,0.3,0.1,0.7-0.4,0.7c-0.4,0-3.5-0.9-2.7,0c0.7,0.9,1.4,1.7,0.6,1.5
	s-1.4-0.1-1.9-0.4c-0.5-0.3-1.7-1-0.9-1.2c0.8-0.2,2.1-1.2,1.9-1.4c-0.2-0.2,1-1.2,0.5-1.1c-0.4,0.1-1.2,0.2-1.6,0.3
	c-0.4,0,1-2,0.2-1.4C59.5,63.1,60.9,61.4,60.9,61.4z"></path><path class="st11" d="M60.6,75.5c0,1.5,1.2,8,0,10c-1.2,2-1.8,9-2,7.2c0.1-2.3-1.5-10-3-16.5C58.2,75.4,60.6,74.5,60.6,75.5z"></path><path class="st12" d="M55.4,87.8c-2.3-1.3-6.2-11.6-3.5-11.3c1,0.1,2.3-0.2,3.7-0.5c1.4,6.5,3,14.3,3,16.5
	C58.5,90.8,57.8,89.1,55.4,87.8z"></path><path class="st11" d="M53.4,72.7c-0.1,0.4-2.3,5.8-3.3,6.6c-1,0.8-2.3,2.3-2.3,2.3s-0.8,3.9-0.9,3.2c0.4-5.3,2-9.8,3.2-12.4
	C51.9,72.5,53.4,72.4,53.4,72.7z"></path><path class="st13" d="M46.9,84c0.1-2.8,0-4.1-0.7-5.9c-0.7-1.8,0.2-7.4,1.6-6.6c0.7,0.4,1.5,0.6,2.3,0.8c-1.2,2.7-2.8,7.1-3.2,12.4
	C46.9,84.6,46.9,84.3,46.9,84z"></path><path class="st11" d="M61.9,71.2c0.8-0.3,1.4-0.6,1.6-0.7c0.6-0.3,3.1,1.1,3.6,3.1c0.5,2,1,3.8,0,5.9c-1,2.1-1.5,2.9-1.5,2.9
	C67,76,64.2,73.1,61.9,71.2z"></path><path class="st13" d="M64.7,80.2c-0.9-0.4-2.1-2.2-2.5-3.8c-0.3-1.3-1.6-3.8-3.3-3.9c0.9-0.4,2.1-0.9,3-1.3
	c2.4,1.8,5.1,4.7,3.7,11.1C65.6,82.4,65.6,80.7,64.7,80.2z"></path><path class="st11" d="M57.5,72.9c0.5-0.3,0.9-0.4,1.4-0.4C57.9,73,57.2,73.2,57.5,72.9z"></path><path class="st11" d="M64.8,73.4c0.8-0.6,1.7-1.2,2.9-1.7c2.9-1.1,11.5,2,11.7,4.7c0.2,2.7-0.5,5.1,0.6,7.5c0.2,0.5,0.3,0.7,0.3,0.7
	C78,79.8,78,73.1,64.8,73.4z"></path><path class="st14" d="M76.9,80.6c-1.8-1.3-8.5-4.9-10.6-4.9c-2.1-0.1-3.8,0.1-3.8,0.1s0.8-1.1,2.2-2.3C78,73.1,78,79.8,80.2,84.7
	C80.2,84.8,78.4,81.6,76.9,80.6z"></path><path class="st11" d="M57.4,70.9c-0.4,2.9-4.1,8.3-4.1,7.2c0,0,1.4-4.4,2.2-7.6C56.1,70.5,56.8,70.6,57.4,70.9z"></path><path class="st15" d="M53.4,70.5c0.3,0.1,1.1,0,2.1,0c-0.7,3.2-2.2,7.6-2.2,7.6c0-1.1-0.2-2.8-0.5-4.1
	C52.4,72.7,52.9,70.3,53.4,70.5z"></path><path class="st11" d="M70.8,66.2c-2.4-0.9-4.8-0.2-7.1,2c-0.3-0.4-0.6-0.9-0.6-1.2c-0.1-0.8,0.3-0.9,1-1.5c0.7-0.6,2.7-1.6,5.6-1.2
	c2.9,0.4,6.5,2.6,7.4,3.9c1,1.3,0,6.8,0,6.8C77.4,68.6,73.4,67.1,70.8,66.2z"></path><path class="st16" d="M70.9,67.9c-2.7-1.6-4.2-0.3-6.3,1.4c0,0-0.5-0.5-0.9-1.1c2.3-2.2,4.7-2.9,7.1-2c2.6,1,6.7,2.5,6.4,8.8
	c0,0-1-1.7-1.2-3C75.8,70.8,73.6,69.6,70.9,67.9z"></path><path class="st11" d="M70.3,61.4c-1.3,0-3.4,0.3-5.8,1.5c0,0,1-1.1,1.6-1.7c0.6-0.6,0.4-0.8,2.4-1c2-0.3,3.8,0.2,5.5,1
	c0.8,0.4,1.3,1.4,1.6,2.4C74.4,62,71.3,61.4,70.3,61.4z"></path><path class="st11" d="M76.1,65.8c0,0-0.1-1-0.5-2.1C76.1,64.2,76.3,64.9,76.1,65.8z"></path><path class="st17" d="M73,63.2c-1.7-0.8-3.2-1-6.8,0l-1.6-0.3c2.4-1.3,4.5-1.5,5.8-1.5c1,0,4.1,0.6,5.3,2.2c0.4,1.1,0.5,2.1,0.5,2.1
	S74.8,64,73,63.2z"></path><path class="st11" d="M66.1,59.5c0,0,1.2-3.1,2.7-3.4c1.5-0.3,2-0.4,3.7,0.3s2,1.5,3.1,2.3c1.1,0.9,1.6,1.4,1.6,1.4
	C69.9,55.8,68.8,57.4,66.1,59.5z"></path><path class="st18" d="M75.4,60.1c-1.5-0.3-2.4-1.2-4-1.1s-3,0.4-3.7,0.4c-0.8,0-1.6,0-1.6,0c2.7-2.1,3.8-3.7,11.2,0.7
	C77.3,60.1,76.8,60.4,75.4,60.1z"></path><path class="st18" d="M38.2,74.3c0,0,1.9-4.1,2.3-5c0.3-0.9,3.4-1.1,3.4-1.1s0.5,0.5,1.1,1C43.1,70.1,40.6,71.6,38.2,74.3z"></path><path class="st11" d="M43.1,71.4c-1.7-0.4-4.9,2.9-4.9,2.9c2.4-2.7,4.9-4.3,6.7-5.1c0.6,0.5,1.3,1.1,1.5,1.2
	C47,70.8,44.8,71.8,43.1,71.4z"></path><path class="st14" d="M26.9,84c0,0,1-2.5,1-4.4c0-1.9,3.9-6.6,5.8-7.2c1.8-0.6,3.3-1.1,3.7-1.1c0.5,0,8.7,1.1,8.3,3.1
	C32,71.8,29.9,78.9,26.9,84z"></path><path class="st11" d="M44.8,77.1c-1.1,0-1.1,0-1.1,0c-1-0.1-9.4,0.8-11.6,2.4C29.8,81,26.9,84,26.9,84c3-5.1,5-12.1,18.8-9.6
	C45.3,76.4,45.9,77.1,44.8,77.1z"></path><path class="st11" d="M34.1,83c0-0.1,0-0.3,0.1-0.4C34.2,82.7,34.1,82.9,34.1,83z"></path><path class="st13" d="M36.3,72.1c2-1.1,3.6-1.4,5-1c0.4,0.1,1.1,0.5,1.7,1c-2.3,0.6-4.7,1.5-5.6,2.6c-1.6,2-2.9,4.9-3.3,8
	c0,0.1-0.1,0.3-0.1,0.4c0,1-0.3-1.8-0.4-3.5C33.5,77.9,34.3,73.2,36.3,72.1z"></path><path class="st11" d="M37.7,78.1c-2.3,3-3.3,3.7-3.5,4.5c0.3-3.1,1.7-6,3.3-8c0.9-1.1,3.2-1.9,5.6-2.6c1.3,1,2.7,2.4,2.7,2.4
	C43.6,74,40.4,74.7,37.7,78.1z"></path><path class="st13" d="M30.8,73.1c-0.1-1.6,0-4.2,1-5.6c1.5-2,2.2-3.2,4.9-3.2c2.8-0.1,3.3,0.2,4.1,0.6c0.4,0.2,0.6,0.9,0.6,1.6
	C37.7,65.9,32,65.3,30.8,73.1z"></path><path class="st11" d="M40.8,68.4c-2.8,0.2-4.2-0.3-6.2,0.6c-2,0.9-2.8,0.9-3,1.8s-0.6,3.5-0.6,3.5s-0.1-0.5-0.1-1.2
	c1.2-7.8,6.8-7.2,10.6-6.6C41.5,67.3,41.3,68.1,40.8,68.4z"></path><path class="st11" d="M30,68.3c0,0,0-0.1,0-0.2C30,68.2,30,68.3,30,68.3z"></path><path class="st12" d="M30,66.2c0-0.6,0-1.3,0-1.5c0-0.6,1-3,2.3-4.6c1.3-1.5,4.8,0,6.9,1c0,0,0,0.1,0,0.3C35.4,60.9,30.9,61,30,66.2
	z"></path><path class="st11" d="M30,67.4c0,0.3,0,0.6,0,0.7c0-0.2,0-0.5,0-0.9C30,67.2,30,67.3,30,67.4z"></path><path class="st11" d="M30,66.2C30,66.2,30,66.2,30,66.2c0,0.3,0,0.6,0,0.9C29.9,66.9,29.9,66.6,30,66.2z"></path><path class="st11" d="M30,66.2c0.9-5.2,5.4-5.3,9.2-4.8c-0.1,0.6-0.4,2.2-2.4,2.1c-2.4-0.1-3.2-0.1-5,0.4c-1.3,0.3-1.6,2.3-1.7,3.5
	c0-0.1,0-0.1,0-0.2C30,66.9,30,66.5,30,66.2z"></path><path class="st11" d="M41.3,57.9c0.1,0,0.1,0.1,0.2,0.1c0,0-0.4,1.6-1,1.5c-0.6-0.1-1,0.1-2.3-0.4c-1.2-0.5-2.5-0.3-4.5-0.4
	c-2-0.1-2.9-0.6-2.9-0.6C33.3,57.7,37.9,57.8,41.3,57.9z"></path><path class="st13" d="M37.5,56.4c2.5-0.2,2.8,0.7,3.8,1.5c-3.4-0.1-8-0.2-10.5,0.1c0,0,2.5-0.4,2.9-0.8
	C34.1,56.8,34.9,56.6,37.5,56.4z"></path><circle class="st19" cx="46.9" cy="70.7" r="0.9"></circle><circle class="st19" cx="54" cy="69.7" r="0.9"></circle><circle class="st19" cx="61" cy="62.3" r="0.9"></circle><circle class="st19" cx="53.1" cy="58.2" r="0.9"></circle><circle class="st19" cx="59" cy="68.9" r="0.9"></circle><circle class="st19" cx="43" cy="59.1" r="0.9"></circle><circle class="st19" cx="50.8" cy="63.9" r="0.9"></circle><circle class="st19" cx="60.7" cy="56" r="0.9"></circle><path class="st4" d="M47.7,49.4c-1.9,0-3.1,0-3.1,0s0.6-0.7,0-1s-0.7-0.1-1.1,0s-0.5-0.7-0.5-0.7s0.1-1,0-1.2s-0.7-0.6-1.4-0.7
	s-1.6-0.8-1.3-1s-0.8-0.3-1.3-0.5s-0.7-1.1-0.5-1.2s-0.9-0.8-0.9-0.8s-0.3-0.3,0.6-0.4s1.6-0.2,1.5-0.7s-0.4-0.7-0.6-1.2
	s-0.8-1-0.2-1.3s2.2,0,2.2,0s0.4-0.4-0.4-1.1s-1-1.4-0.5-1.3s1.5,1,1.5,1s3.9,2.3,3.3,1.1s-1.7-3.2-1.1-3.7s1.3-0.8,1.7-0.3
	s0.8,0.8,1.1,0.7s0.9-0.8,1.1-1s0.3-0.4,0.5,0s0.6,1.2,0.6,1.2s0.8,0.5,1.2,0s0.5-1.1,1.5-1s0.9,0.1,1.1,0.6s-0.2,0.6,0.7,0.7
	s1.6-0.3,1.9-0.4s0.6-0.4,0.7,0.4s-0.6,1.1,0.4,1.2s2.4-0.2,3.3-0.2s0.9-0.4,1.2,0.2s0.4,0.7,0.8,1s0.9,0.7,1.6,0.7
	c0.7,0,0.5-0.2,1.2,0.5s0.7,1,0.5,1.3c-0.2,0.3-0.3,0.4,0.5,0.6s0.5,0.6,0.5,0.9c-0.1,0.3,1.3,1.1,1.1,1.5s-0.4-0.2-0.2,0.5
	s-0.2,1.5-0.5,1.6s0.4,0.1,0.2,1c-0.2,0.9-1.3,1-1.7,1s-0.7-0.4-0.4,0.1c0.3,0.5-1.1,2.1-1.1,2.1s-2.2,0.9-2.3,1.2s-1,1.2-1.5,1.5
	s-1.5,0.7-1.8,0.8s-0.6,0.2-1.2,0.6s-1.5,0.5-2.2,0.3s-1,0.2-2.2,0.1c-1.2-0.1-1.8,0.1-2.3,0s-1.7,0.1-1.9,0s-2-0.4-2.2-0.6
	s-0.4-0.2-0.4-0.6s0.8-1.1,0.8-1.1S46,50.9,46,50.7s-0.2,0.2,0.1-0.2S46,49.8,46,49.8L47.7,49.4z"></path><path class="st5" d="M48.4,50.9c0.7-0.3,0.5-0.8,1.6-1.1c1.1-0.3,1.6,0.7,2.1,0.5c0.5-0.1,1-0.4,1.5-0.6s-0.2-0.7,0.8,0
	s2.2,0.4,2.2,0.4s0.2-0.9,1.1,0c0.9,0.9,0.9,0.9,1.6,0.7s0.8-1.2,0.9-0.7s0.9,1-0.7,1.2s-2.9-0.6-3.7,0s-0.4,1-2,1.1s-2.4,0-2.4,0
	s-0.4,0.2-1.1,0.1s-1.5-0.7-1.5-0.7L48.4,50.9z"></path><path class="st6" d="M51.3,47.9c-0.7-0.8-0.4-1.4-1.4-2.1c-1-0.7-1.1-0.8-1.1-1.4s0-2.1,0.6-1.2c0.6,0.9,1.6,2,2.2,2.2
	s0.9-0.1,1,0.6c0.2,0.7,0.1,0.7,0,1c-0.1,0.3-0.1,0.4-0.7,0.7S51.3,47.9,51.3,47.9z"></path><path class="st7" d="M57.5,48.4c0.4,0.3,1.1,0.4,1.7,0.3s0.1-1.3,0.7-1.5s2.4,0.4,2.4,0.4s0.2-0.7,0.8-0.9c0.6-0.3,2.9-0.4,1.1-0.6
	s-2.9,0.3-2.5,0s2.6-1.1,2.9-1.1s-0.8-0.7-0.8-0.7l1.8-1c0,0-1.2-0.4-1.4-0.4s0.4-1.1,0.4-1.1h-2l1.1-1.9c0,0-1.7,0.9-2,1.2
	c-0.3,0.3-0.6,3-0.6,3s-0.3-0.2-0.9,0.3s0.9,0.7,0,1.5S59,45,58.3,46.7C57.5,48.4,57.5,48.4,57.5,48.4z"></path><path class="st8" d="M59.4,41.5c0.3-0.6,1.1-1.2,1.3-1.9s0.5-2-0.3-1.4c-0.8,0.6-1.7,0.4-1.5-0.2s0.2-1.3-0.3-0.6S57,38.6,57,38.1
	s0.1-1.8-0.3-0.9s-0.6,1.7-1.1,0.8s-0.5-2.1-0.7-1.1c-0.2,1-0.8-0.5-1.1-0.4s-0.4,0.7-0.3,1.4s-0.3,0.5,0.6,1.1s0.2,0,0.9,0.7
	s1.6-0.4,1.6-0.4s0.1,0.6,0.1,1.3s-0.5,1.5-0.5,1.7s1-0.2,1,0.2s-0.6,0.6-0.9,1.3s1,0.7,0.4,1.5s-1.3,1.6-0.8,1.5
	c0.6-0.1,1.1-1.1,1.6-2s0.1-1.7,0.7-2.1S59.4,41.5,59.4,41.5z"></path><path class="st9" d="M51.9,36.9c0.2,0.4,0.8,2.8,0.6,3.2c-0.1,0.4,0.1,0.9,0.1,1.6c0,0.8,2.1,2.7-0.7,0.6c-2.9-2.1-3.2-1.5-3.6-2.4
	s-1.3-3.9-1-3.7s0.5,0.7,1,0.9s0.5-0.1,0.7-0.4c0.2-0.3,0.4-0.6,0.6,0s0.3,1.1,0.8,1.1c0.5,0,0.4-0.9,0.4-0.9s0.2,0.3,0.4,0.5
	S51.9,36.9,51.9,36.9z"></path><path class="st10" d="M46.1,40.8c-1.8-0.5-3-1.6-2.4-0.4s0.9,1.9,0.2,1.7s-1.1-0.8-1.8-0.6s-0.9,0.6-1.2,0.7c-0.3,0.1-1,1.1,0.3,1.1
	c0,0,1.5,0.8,1.8,1.1s-0.1,0.6,0.3,0.6c0.4,0,3-0.8,2.3,0s-1.2,1.5-0.5,1.3s1.2-0.1,1.7-0.4s1.5-0.8,0.8-1s-1.8-1-1.6-1.2
	s-0.8-1-0.5-0.9s1,0.2,1.3,0.2s-0.9-1.7-0.2-1.2C47.3,42.3,46.1,40.8,46.1,40.8z"></path><path class="st11" d="M46.3,52.8c0,1.3-1,6.8,0,8.5s1.6,7.7,1.7,6.2c0-2,1.3-8.6,2.6-14.2C48.5,52.8,46.3,52,46.3,52.8z"></path><path class="st12" d="M50.8,63.4c2-1.1,5.3-9.9,3-9.6c-0.8,0.1-2-0.1-3.2-0.4C49.4,58.9,48,65.5,48,67.5
	C48.2,65.9,48.8,64.5,50.8,63.4z"></path><path class="st11" d="M52.6,50.4c0.1,0.4,2,5,2.8,5.6c0.8,0.7,1.9,1.9,1.9,1.9s0.7,3.4,0.8,2.7c-0.4-4.5-1.7-8.4-2.8-10.6
	C53.8,50.3,52.5,50.2,52.6,50.4z"></path><path class="st13" d="M58.1,60.1c-0.1-2.4,0-3.5,0.6-5c0.6-1.5-0.2-6.4-1.4-5.7c-0.6,0.4-1.3,0.5-2,0.7c1,2.3,2.4,6.1,2.8,10.6
	C58.1,60.6,58.1,60.4,58.1,60.1z"></path><path class="st11" d="M45.3,49.2c-0.7-0.3-1.2-0.5-1.3-0.6c-0.5-0.3-2.7,1-3.1,2.7c-0.4,1.7-0.9,3.3,0,5c0.9,1.8,1.3,2.4,1.3,2.4
	C40.9,53.3,43.3,50.8,45.3,49.2z"></path><path class="st13" d="M42.8,56.9c0.7-0.4,1.8-1.9,2.2-3.2c0.3-1.1,1.4-3.2,2.8-3.3c-0.8-0.3-1.8-0.7-2.6-1.1c-2,1.6-4.4,4-3.2,9.5
	C42.1,58.7,42.1,57.3,42.8,56.9z"></path><path class="st11" d="M49,50.7c-0.4-0.3-0.8-0.4-1.2-0.4C48.7,50.7,49.3,50.9,49,50.7z"></path><path class="st11" d="M42.8,51.1c-0.7-0.5-1.5-1.1-2.5-1.5c-2.5-1-9.9,1.7-10,4c-0.1,2.3,0.4,4.3-0.5,6.5c-0.2,0.4-0.3,0.6-0.2,0.6
	C31.5,56.5,31.4,50.8,42.8,51.1z"></path><path class="st14" d="M32.4,57.2c1.6-1.1,7.3-4.2,9-4.2c1.8-0.1,3.3,0.1,3.3,0.1s-0.7-1-1.9-2c-11.4-0.3-11.3,5.4-13.3,9.6
	C29.6,60.8,31.1,58.1,32.4,57.2z"></path><path class="st11" d="M49.1,48.9c0.3,2.5,3.5,7.1,3.5,6.2c0,0-1.2-3.8-1.8-6.5C50.2,48.6,49.6,48.6,49.1,48.9z"></path><path class="st15" d="M52.6,48.5c-0.2,0.1-0.9,0-1.8,0c0.6,2.7,1.8,6.5,1.8,6.5c0-0.9,0.1-2.4,0.4-3.5
	C53.4,50.4,52.9,48.4,52.6,48.5z"></path><path class="st11" d="M37.7,44.9c2-0.7,4.1-0.2,6.1,1.8c0.3-0.4,0.5-0.7,0.5-1c0.1-0.7-0.3-0.7-0.9-1.3c-0.6-0.5-2.3-1.4-4.8-1.1
	c-2.5,0.3-5.6,2.2-6.4,3.4s0,5.8,0,5.8C31.9,47,35.4,45.7,37.7,44.9z"></path><path class="st16" d="M37.5,46.4c2.3-1.4,3.6-0.2,5.4,1.2c0,0,0.4-0.4,0.8-0.9c-2-1.9-4-2.5-6.1-1.8c-2.2,0.8-5.7,2.1-5.5,7.6
	c0,0,0.9-1.4,1-2.5C33.4,48.8,35.2,47.8,37.5,46.4z"></path><path class="st11" d="M38,40.8c1.1,0,2.9,0.2,5,1.3c0,0-0.9-0.9-1.4-1.5c-0.5-0.5-0.4-0.7-2.1-0.9c-1.7-0.2-3.3,0.1-4.7,0.9
	c-0.7,0.3-1.1,1.2-1.4,2C34.6,41.3,37.2,40.8,38,40.8z"></path><path class="st11" d="M33.1,44.5c0,0,0.1-0.9,0.4-1.8C33.1,43.2,32.9,43.8,33.1,44.5z"></path><path class="st17" d="M35.7,42.4c1.5-0.7,2.7-0.8,5.9,0l1.4-0.3c-2.1-1.1-3.8-1.3-5-1.3c-0.8,0-3.5,0.5-4.6,1.9
	c-0.3,0.9-0.4,1.8-0.4,1.8S34.2,43,35.7,42.4z"></path><path class="st11" d="M41.7,39.1c0,0-1-2.6-2.3-2.9c-1.3-0.3-1.7-0.4-3.2,0.3c-1.5,0.7-1.7,1.3-2.7,2c-1,0.7-1.4,1.2-1.4,1.2
	C38.4,36,39.4,37.3,41.7,39.1z"></path><path class="st18" d="M33.7,39.7c1.3-0.2,2.1-1,3.4-0.9c1.3,0.1,2.5,0.4,3.2,0.3c0.7,0,1.3,0,1.3,0c-2.3-1.8-3.3-3.1-9.6,0.6
	C32.1,39.7,32.5,39.9,33.7,39.7z"></path><path class="st18" d="M65.5,51.9c0,0-1.6-3.5-1.9-4.3c-0.3-0.8-2.9-0.9-2.9-0.9s-0.4,0.4-0.9,0.8C61.4,48.2,63.5,49.5,65.5,51.9z"></path><path class="st11" d="M61.4,49.3c1.5-0.3,4.2,2.5,4.2,2.5c-2-2.3-4.2-3.7-5.7-4.4c-0.5,0.4-1.1,0.9-1.3,1.1
	C58,48.8,59.9,49.7,61.4,49.3z"></path><path class="st14" d="M75.2,60.1c0,0-0.8-2.1-0.8-3.7c0-1.6-3.4-5.6-4.9-6.2c-1.6-0.5-2.8-1-3.2-1c-0.4,0-7.5,1-7.1,2.7
	C70.9,49.7,72.6,55.7,75.2,60.1z"></path><path class="st11" d="M59.9,54.2c1,0,1,0,1,0c0.9-0.1,8,0.7,9.9,2c1.9,1.3,4.4,3.9,4.4,3.9c-2.6-4.4-4.3-10.4-16.1-8.2
	C59.5,53.6,58.9,54.2,59.9,54.2z"></path><path class="st11" d="M69,59.3c0-0.1,0-0.2,0-0.3C69,59,69,59.2,69,59.3z"></path><path class="st13" d="M67.2,49.9c-1.7-1-3.1-1.2-4.3-0.9c-0.4,0.1-0.9,0.4-1.5,0.9c2,0.5,4,1.2,4.8,2.2c1.3,1.7,2.5,4.2,2.8,6.8
	c0,0.1,0,0.2,0,0.3c0,0.9,0.2-1.6,0.4-3S68.9,50.9,67.2,49.9z"></path><path class="st11" d="M66,55.1c2,2.5,2.8,3.2,3,3.9c-0.3-2.6-1.5-5.1-2.8-6.8c-0.7-1-2.8-1.7-4.8-2.2c-1.1,0.9-2.3,2-2.3,2
	C60.9,51.6,63.7,52.1,66,55.1z"></path><path class="st13" d="M71.8,50.8c0.1-1.3,0-3.6-0.8-4.8c-1.3-1.7-1.9-2.7-4.2-2.8c-2.4-0.1-2.8,0.2-3.5,0.5
	c-0.3,0.2-0.5,0.8-0.6,1.4C66,44.6,70.9,44.1,71.8,50.8z"></path><path class="st11" d="M63.3,46.8c2.4,0.1,3.6-0.2,5.3,0.5c1.7,0.7,2.4,0.8,2.6,1.6c0.2,0.8,0.5,3,0.5,3s0.1-0.4,0.1-1
	c-1-6.7-5.9-6.2-9.1-5.6C62.7,45.8,62.9,46.5,63.3,46.8z"></path><path class="st11" d="M72.6,46.7c0,0,0-0.1,0-0.2C72.6,46.6,72.6,46.7,72.6,46.7z"></path><path class="st12" d="M72.6,44.9c0-0.6,0-1.1,0-1.3c0-0.5-0.8-2.6-1.9-3.9c-1.1-1.3-4.1,0-5.9,0.9c0,0,0,0.1,0,0.2
	C67.9,40.4,71.8,40.4,72.6,44.9z"></path><path class="st11" d="M72.5,45.9c0,0.3,0,0.5,0,0.6c0-0.2,0-0.5,0-0.8C72.6,45.8,72.6,45.8,72.5,45.9z"></path><path class="st11" d="M72.6,44.9C72.6,44.9,72.6,44.9,72.6,44.9c0,0.3,0,0.5,0,0.8C72.6,45.5,72.6,45.2,72.6,44.9z"></path><path class="st11" d="M72.6,44.9c-0.8-4.5-4.6-4.5-7.8-4.1c0.1,0.5,0.4,1.8,2.1,1.8c2.1-0.1,2.7-0.1,4.3,0.3c1.1,0.3,1.4,2,1.4,3
	c0-0.1,0-0.1,0-0.2C72.6,45.4,72.6,45.2,72.6,44.9z"></path><path class="st11" d="M62.9,37.8c0,0-0.1,0.1-0.1,0.1c0,0,0.3,1.3,0.9,1.2s0.9,0.1,1.9-0.3c1-0.4,2.1-0.3,3.9-0.4
	c1.7-0.1,2.5-0.5,2.5-0.5C69.8,37.6,65.8,37.7,62.9,37.8z"></path><path class="st13" d="M66.1,36.5c-2.1-0.1-2.4,0.6-3.2,1.3c2.9-0.1,6.9-0.1,9,0.1c0,0-2.1-0.4-2.5-0.7
	C69.1,36.8,68.4,36.7,66.1,36.5z"></path><circle class="st19" cx="58.1" cy="48.8" r="0.7"></circle><circle class="st19" cx="52" cy="47.9" r="0.7"></circle><circle class="st19" cx="46" cy="41.5" r="0.7"></circle><circle class="st19" cx="52.7" cy="38.1" r="0.7"></circle><circle class="st19" cx="47.8" cy="47.2" r="0.7"></circle><circle class="st19" cx="61.4" cy="38.8" r="0.7"></circle><circle class="st19" cx="54.8" cy="42.9" r="0.7"></circle><circle class="st19" cx="46.3" cy="36.2" r="0.7"></circle><path class="st2" d="M50.6,18.3c-0.5-0.6,0.1-7.1,1-7.6c0.6-0.8,1.6-1.9,1.6-1.9c-0.1-0.1,1.5-3.2,1.4-2.4c-2.1,4-2.5,8.5-2.2,11.5
	C51.4,18,50.6,18.6,50.6,18.3z"></path><path class="st23" d="M54.4,6.6c-1,2.4-1,3.7-0.8,5.3c0,1.6,0.7,6.4-0.1,6.2c-0.5-0.2-1-0.2-1.4-0.1c-0.2-3.1,0.3-7.8,2.5-12
	C54.6,6.1,54.5,6.3,54.4,6.6z"></path><path class="st24" d="M58.6,14c-1.7,0.5-2.6,2-2.6,4.5c-0.4-0.1-0.8-0.3-1-0.5c-0.5-0.5-0.3-0.7-0.3-1.4c0-0.7,0.5-2.3,2.3-3.3
	c1.8-1.1,4.9-1.2,6.1-0.8c1.2,0.4,3.7,4.4,3.7,4.4C63.5,12.5,60.5,13.4,58.6,14z"></path><path class="st25" d="M59.6,15c-2.3,0.2-2.4,1.8-2.5,3.8c0,0-0.6-0.1-1.1-0.3c0-2.5,0.9-4,2.6-4.5c1.9-0.6,4.9-1.4,8.3,2.8
	c0,0-1.4-0.6-2.3-1.4C63.8,14.7,62,14.9,59.6,15z"></path><path class="st24" d="M47,21.3c-0.2-1.2-1.9-6.5-1.7-8.3c0.3-1.8-0.6-7.7-0.2-6.2c0.4,1.9,2.4,8.2,4.3,13.5
	C48.2,21.1,47.1,22.1,47,21.3z"></path><path class="st26" d="M47.5,10.5c1.4,0.8,5.1,9,3.6,9c-0.5,0-1.2,0.4-1.8,0.8C47.6,15,45.5,8.7,45.1,6.8
	C45.5,8.3,46.1,9.6,47.5,10.5z"></path><path class="st4" d="M56.9,31.2c1.5,0,2.5,0,2.5,0s-0.5-0.7,0-1c0.5-0.3,0.5-0.1,0.9,0c0.3,0.1,0.4-0.7,0.4-0.7s-0.1-1,0-1.2
	c0.1-0.2,0.5-0.6,1.1-0.7s1.3-0.8,1.1-1c-0.2-0.3,0.6-0.3,1.1-0.5c0.4-0.3,0.6-1.1,0.4-1.2c-0.2-0.2,0.8-0.8,0.8-0.8
	s0.2-0.3-0.5-0.4s-1.3-0.2-1.2-0.7c0.1-0.5,0.3-0.7,0.5-1.2c0.1-0.5,0.6-1,0.1-1.3s-1.8,0-1.8,0s-0.3-0.4,0.3-1.1
	c0.6-0.7,0.8-1.4,0.4-1.3c-0.5,0.1-1.2,1-1.2,1s-3.2,2.3-2.7,1.1c0.5-1.2,1.3-3.2,0.9-3.7c-0.4-0.5-1.1-0.8-1.4-0.3
	c-0.3,0.5-0.7,0.8-0.9,0.7s-0.8-0.8-0.9-1c-0.2-0.2-0.3-0.4-0.4,0c-0.2,0.4-0.5,1.1-0.5,1.1s-0.7,0.5-1,0c-0.3-0.5-0.4-1.1-1.2-1
	s-0.7,0.1-0.9,0.6c-0.2,0.5,0.1,0.6-0.6,0.7c-0.7,0.1-1.3-0.3-1.6-0.4s-0.5-0.4-0.6,0.4c-0.1,0.8,0.5,1.1-0.3,1.2s-2-0.2-2.7-0.2
	c-0.7-0.1-0.8-0.4-1,0.2s-0.3,0.7-0.6,1s-0.8,0.7-1.3,0.7s-0.4-0.2-1,0.5c-0.6,0.6-0.5,1-0.4,1.3c0.1,0.3,0.3,0.4-0.4,0.6
	c-0.7,0.2-0.4,0.6-0.4,0.9c0,0.3-1.1,1.1-0.9,1.5c0.2,0.5,0.3-0.2,0.2,0.5c-0.2,0.6,0.2,1.4,0.4,1.5s-0.3,0.1-0.2,1s1.1,1,1.4,1
	c0.3,0.1,0.6-0.4,0.3,0.1c-0.3,0.5,0.9,2.1,0.9,2.1s1.8,0.9,1.9,1.2c0.1,0.3,0.8,1.2,1.2,1.5c0.3,0.3,1.2,0.7,1.4,0.8s0.5,0.2,1,0.6
	c0.5,0.4,1.2,0.5,1.8,0.3c0.6-0.2,0.8,0.2,1.8,0.1c1-0.1,1.4,0.1,1.8,0c0.4-0.1,1.3,0.1,1.6,0c0.2-0.1,1.6-0.4,1.8-0.6
	c0.2-0.2,0.3-0.2,0.3-0.6s-0.6-1.1-0.6-1.1s0.5-0.6,0.4-0.8c0-0.2,0.2,0.2,0-0.2c-0.2-0.4,0-0.7,0-0.7L56.9,31.2z"></path><path class="st5" d="M56.4,32.7c-0.6-0.3-0.4-0.8-1.3-1.1c-0.9-0.3-1.3,0.7-1.7,0.5c-0.4-0.1-0.8-0.4-1.2-0.6
	c-0.4-0.2,0.2-0.7-0.6,0s-1.8,0.4-1.8,0.4s-0.2-0.8-0.9,0c-0.7,0.8-0.8,0.9-1.3,0.7c-0.5-0.2-0.7-1.2-0.8-0.7
	c-0.1,0.5-0.8,1,0.5,1.2c1.3,0.3,2.4-0.6,3,0c0.6,0.6,0.3,1,1.6,1.1c1.3,0.2,2,0,2,0s0.3,0.2,0.9,0.1c0.5-0.1,1.2-0.7,1.2-0.7
	L56.4,32.7z"></path><path class="st6" d="M54.1,29.8c0.5-0.8,0.3-1.4,1.1-2.1c0.8-0.7,0.9-0.8,0.9-1.4c0-0.6,0-2.1-0.5-1.2c-0.5,0.9-1.3,2-1.8,2.2
	c-0.5,0.2-0.7-0.1-0.8,0.6c-0.1,0.7-0.1,0.7,0,1c0.1,0.3,0.1,0.4,0.6,0.7C54.1,29.8,54.1,29.8,54.1,29.8z"></path><path class="st7" d="M49,30.3c-0.3,0.3-0.9,0.4-1.4,0.3s-0.1-1.3-0.6-1.4c-0.5-0.2-2,0.4-2,0.4s-0.1-0.7-0.6-0.9s-2.4-0.4-0.9-0.6
	s2.4,0.3,2.1,0c-0.3-0.3-2.1-1.1-2.3-1.1s0.7-0.7,0.7-0.7l-1.4-1c0,0,1-0.4,1.1-0.4c0.2,0-0.3-1.1-0.3-1.1H45l-0.9-1.9
	c0,0,1.4,0.9,1.7,1.2c0.3,0.3,0.5,2.9,0.5,2.9s0.3-0.2,0.8,0.3c0.5,0.5-0.8,0.7,0,1.5c0.8,0.8,0.8-0.8,1.4,0.9
	C49,30.3,49,30.3,49,30.3z"></path><path class="st8" d="M47.5,23.4c-0.3-0.6-0.9-1.2-1.1-1.9c-0.2-0.7-0.4-2,0.3-1.4c0.6,0.6,1.4,0.4,1.2-0.2c-0.2-0.6-0.1-1.3,0.3-0.6
	c0.4,0.7,1.3,1.1,1.3,0.7c0-0.5,0-1.8,0.2-0.9s0.5,1.7,0.9,0.8c0.4-0.9,0.4-2.1,0.6-1.1c0.2,1,0.7-0.5,0.9-0.4s0.3,0.7,0.2,1.4
	c-0.1,0.7,0.3,0.5-0.5,1.1c-0.7,0.6-0.2,0-0.7,0.6s-1.3-0.4-1.3-0.4s-0.1,0.6-0.1,1.3S50,24,50,24.2s-0.8-0.2-0.8,0.2
	c0.1,0.4,0.5,0.6,0.7,1.3c0.2,0.7-0.8,0.7-0.3,1.5c0.5,0.8,1.1,1.6,0.6,1.5c-0.5-0.1-0.9-1.1-1.3-2s0-1.7-0.5-2S47.5,23.4,47.5,23.4
	z"></path><path class="st9" d="M53.5,18.8c-0.1,0.4-0.6,2.8-0.5,3.2c0.1,0.4-0.1,0.9-0.1,1.6c0,0.7-1.7,2.7,0.6,0.6c2.3-2.1,2.6-1.5,2.9-2.4
	s1.1-3.9,0.8-3.7c-0.2,0.2-0.4,0.7-0.8,0.9c-0.5,0.2-0.4-0.1-0.5-0.4c-0.1-0.3-0.3-0.6-0.5,0s-0.2,1.1-0.6,1.1
	c-0.4,0-0.3-0.9-0.3-0.9s-0.1,0.3-0.3,0.5C54,19.5,53.5,18.8,53.5,18.8z"></path><path class="st10" d="M58.2,22.7c1.4-0.5,2.4-1.5,2-0.4c-0.4,1.1-0.7,1.9-0.2,1.7s0.9-0.8,1.5-0.6s0.7,0.6,1,0.7s0.8,1-0.3,1.1
	c0,0-1.2,0.8-1.4,1.1c-0.3,0.3,0,0.6-0.2,0.6c-0.3,0-2.4-0.8-1.9,0s1,1.4,0.4,1.3c-0.5-0.2-1-0.1-1.3-0.4c-0.4-0.3-1.2-0.8-0.6-1
	s1.4-1,1.3-1.2c-0.1-0.2,0.7-1,0.4-0.9c-0.3,0.1-0.8,0.2-1.1,0.2c-0.3,0,0.7-1.7,0.2-1.2C57.3,24.1,58.2,22.7,58.2,22.7z"></path><path class="st11" d="M58.1,34.6c0,1.3,0.8,6.8,0,8.5c-0.8,1.7-1.3,7.7-1.4,6.1c0-1.9-1.1-8.5-2.1-14.1
	C56.3,34.6,58.1,33.8,58.1,34.6z"></path><path class="st12" d="M54.5,45.1c-1.6-1.1-4.3-9.9-2.4-9.6c0.7,0.1,1.6-0.1,2.6-0.4c1,5.5,2.1,12.1,2.1,14.1
	C56.6,47.6,56.1,46.2,54.5,45.1z"></path><path class="st11" d="M53,32.2c-0.1,0.4-1.6,4.9-2.3,5.6c-0.7,0.7-1.6,1.9-1.6,1.9s-0.5,3.4-0.6,2.7c0.3-4.5,1.4-8.3,2.2-10.6
	C52,32.1,53.1,32,53,32.2z"></path><path class="st13" d="M48.5,41.8c0.1-2.4,0-3.5-0.5-5c-0.5-1.5,0.2-6.3,1.1-5.6c0.5,0.4,1.1,0.5,1.6,0.7c-0.8,2.3-2,6.1-2.2,10.6
	C48.5,42.4,48.5,42.2,48.5,41.8z"></path><path class="st11" d="M58.9,31c0.5-0.3,1-0.5,1.1-0.6c0.4-0.3,2.2,1,2.5,2.6c0.4,1.7,0.7,3.2,0,5c-0.7,1.8-1,2.4-1,2.4
	C62.5,35,60.6,32.6,58.9,31z"></path><path class="st13" d="M60.9,38.6c-0.6-0.4-1.4-1.9-1.7-3.2c-0.2-1.1-1.1-3.2-2.3-3.3c0.6-0.3,1.4-0.7,2.1-1.1c1.6,1.6,3.5,4,2.6,9.5
	C61.5,40.5,61.5,39,60.9,38.6z"></path><path class="st11" d="M55.9,32.5c0.3-0.3,0.6-0.4,0.9-0.4C56.1,32.5,55.6,32.7,55.9,32.5z"></path><path class="st11" d="M60.9,32.9c0.5-0.5,1.2-1.1,2-1.4c2-1,8,1.7,8.1,4c0.1,2.3-0.4,4.3,0.4,6.4c0.2,0.4,0.2,0.6,0.2,0.6
	C70.1,38.3,70.2,32.6,60.9,32.9z"></path><path class="st14" d="M69.4,38.9c-1.3-1.1-5.9-4.1-7.3-4.2c-1.4-0.1-2.7,0.1-2.7,0.1s0.5-1,1.5-1.9c9.2-0.3,9.2,5.4,10.8,9.6
	C71.6,42.5,70.4,39.8,69.4,38.9z"></path><path class="st11" d="M55.8,30.7c-0.2,2.5-2.9,7-2.9,6.1c0,0,1-3.8,1.5-6.5C54.9,30.4,55.4,30.5,55.8,30.7z"></path><path class="st15" d="M53,30.4c0.2,0.1,0.8,0,1.4,0C54,33.1,53,36.8,53,36.8c0-0.9-0.1-2.4-0.4-3.5C52.4,32.2,52.7,30.2,53,30.4z"></path><path class="st11" d="M65.1,26.7c-1.7-0.7-3.3-0.2-4.9,1.7c-0.2-0.4-0.4-0.7-0.4-1c-0.1-0.7,0.2-0.7,0.7-1.3
	c0.5-0.5,1.9-1.4,3.9-1.1c2,0.3,4.5,2.2,5.2,3.3c0.7,1.1,0,5.8,0,5.8C69.7,28.8,66.9,27.5,65.1,26.7z"></path><path class="st16" d="M65.2,28.2c-1.9-1.4-2.9-0.2-4.4,1.2c0,0-0.3-0.4-0.7-0.9c1.6-1.9,3.3-2.5,4.9-1.7c1.8,0.8,4.6,2.1,4.5,7.5
	c0,0-0.7-1.4-0.8-2.5C68.6,30.6,67.1,29.6,65.2,28.2z"></path><path class="st11" d="M64.8,22.7c-0.9,0-2.3,0.2-4,1.3c0,0,0.7-0.9,1.1-1.4c0.4-0.5,0.3-0.7,1.7-0.9c1.4-0.2,2.6,0.1,3.8,0.9
	c0.5,0.3,0.9,1.2,1.1,2C67.6,23.2,65.5,22.7,64.8,22.7z"></path><path class="st11" d="M68.8,26.4c0,0-0.1-0.9-0.3-1.8C68.8,25,68.9,25.6,68.8,26.4z"></path><path class="st17" d="M66.7,24.2c-1.2-0.7-2.2-0.8-4.8,0L60.8,24c1.7-1.1,3.1-1.3,4-1.3c0.7,0,2.8,0.5,3.7,1.9
	c0.2,0.9,0.3,1.8,0.3,1.8S67.9,24.9,66.7,24.2z"></path><path class="st11" d="M61.9,21c0,0,0.8-2.6,1.9-2.9c1-0.3,1.4-0.4,2.6,0.3c1.2,0.7,1.4,1.3,2.2,2c0.8,0.7,1.1,1.2,1.1,1.2
	C64.5,17.9,63.7,19.2,61.9,21z"></path><path class="st18" d="M68.3,21.6c-1-0.2-1.7-1-2.8-0.9c-1.1,0.1-2.1,0.4-2.6,0.3c-0.5,0-1.1,0-1.1,0c1.9-1.8,2.7-3.1,7.8,0.6
	C69.6,21.6,69.3,21.8,68.3,21.6z"></path><path class="st18" d="M42.5,33.7c0,0,1.3-3.5,1.6-4.3c0.2-0.8,2.3-0.9,2.3-0.9s0.3,0.4,0.7,0.8C45.9,30,44.1,31.3,42.5,33.7z"></path><path class="st11" d="M45.9,31.2c-1.2-0.3-3.4,2.5-3.4,2.5c1.7-2.3,3.4-3.6,4.7-4.3c0.4,0.4,0.9,0.9,1.1,1.1
	C48.6,30.6,47.1,31.5,45.9,31.2z"></path><path class="st14" d="M34.7,41.8c0,0,0.7-2.1,0.7-3.7c0-1.6,2.7-5.6,4-6.1c1.3-0.5,2.3-1,2.6-0.9c0.3,0,6.1,0.9,5.8,2.6
	C38.2,31.5,36.7,37.5,34.7,41.8z"></path><path class="st11" d="M47.1,36c-0.8,0-0.8,0-0.8,0c-0.7-0.1-6.5,0.7-8.1,2c-1.6,1.3-3.5,3.9-3.5,3.9c2.1-4.3,3.5-10.3,13.1-8.1
	C47.4,35.4,47.8,36,47.1,36z"></path><path class="st11" d="M39.7,41c0-0.1,0-0.2,0-0.3C39.7,40.8,39.7,40.9,39.7,41z"></path><path class="st13" d="M41.2,31.7c1.4-1,2.5-1.2,3.5-0.9c0.3,0.1,0.7,0.4,1.2,0.9c-1.6,0.5-3.3,1.2-3.9,2.2c-1.1,1.7-2,4.2-2.3,6.8
	c0,0.1,0,0.2,0,0.3c0,0.9-0.2-1.5-0.3-2.9S39.8,32.7,41.2,31.7z"></path><path class="st11" d="M42.1,36.8c-1.6,2.5-2.3,3.1-2.4,3.8c0.2-2.6,1.2-5.1,2.3-6.8c0.6-0.9,2.3-1.7,3.9-2.2c0.9,0.9,1.9,2,1.9,2
	C46.2,33.4,44,33.9,42.1,36.8z"></path><path class="st13" d="M37.4,32.6c-0.1-1.3,0-3.6,0.7-4.7c1-1.7,1.5-2.7,3.4-2.7c1.9-0.1,2.3,0.2,2.8,0.5c0.3,0.2,0.4,0.7,0.4,1.3
	C42.1,26.5,38.2,26,37.4,32.6z"></path><path class="st11" d="M44.3,28.6c-1.9,0.1-2.9-0.2-4.3,0.5c-1.4,0.7-1.9,0.8-2.1,1.6s-0.4,2.9-0.4,2.9s0-0.4-0.1-1
	c0.8-6.6,4.7-6.1,7.4-5.6C44.8,27.7,44.6,28.3,44.3,28.6z"></path><path class="st11" d="M36.8,28.5c0,0,0-0.1,0-0.1C36.8,28.4,36.8,28.5,36.8,28.5z"></path><path class="st12" d="M36.8,26.7c0-0.5,0-1.1,0-1.3c0-0.5,0.7-2.6,1.6-3.9c0.9-1.3,3.3,0,4.8,0.9c0,0,0,0.1,0,0.2
	C40.5,22.2,37.4,22.3,36.8,26.7z"></path><path class="st11" d="M36.8,27.7c0,0.3,0,0.5,0,0.6c0-0.2,0-0.5,0-0.8C36.8,27.6,36.8,27.7,36.8,27.7z"></path><path class="st11" d="M36.8,26.8C36.8,26.7,36.8,26.7,36.8,26.8c0,0.3,0,0.5,0,0.8C36.7,27.3,36.7,27,36.8,26.8z"></path><path class="st11" d="M36.8,26.7c0.6-4.4,3.8-4.5,6.4-4.1c-0.1,0.5-0.3,1.8-1.7,1.8c-1.7-0.1-2.2-0.1-3.5,0.3c-0.9,0.3-1.1,2-1.2,3
	c0-0.1,0-0.1,0-0.2C36.8,27.3,36.8,27,36.8,26.7z"></path><path class="st11" d="M44.6,19.7c0,0,0.1,0.1,0.1,0.1c0,0-0.3,1.3-0.7,1.2s-0.7,0.1-1.6-0.3c-0.8-0.4-1.7-0.3-3.1-0.4
	c-1.4-0.1-2-0.5-2-0.5C39.1,19.6,42.3,19.6,44.6,19.7z"></path><path class="st13" d="M42,18.4c1.7-0.1,2,0.6,2.6,1.3c-2.4-0.1-5.6-0.1-7.3,0.1c0,0,1.7-0.4,2-0.7C39.6,18.8,40.2,18.6,42,18.4z"></path><ellipse class="st19" cx="48.5" cy="30.6" rx="0.6" ry="0.7"></ellipse><ellipse class="st19" cx="53.5" cy="29.8" rx="0.6" ry="0.7"></ellipse><ellipse class="st19" cx="58.3" cy="23.4" rx="0.6" ry="0.7"></ellipse><ellipse class="st19" cx="52.9" cy="20" rx="0.6" ry="0.7"></ellipse><ellipse class="st19" cx="56.9" cy="29" rx="0.6" ry="0.7"></ellipse><ellipse class="st19" cx="45.8" cy="20.7" rx="0.6" ry="0.7"></ellipse><ellipse class="st19" cx="51.2" cy="24.8" rx="0.6" ry="0.7"></ellipse><ellipse class="st19" cx="58.1" cy="18.1" rx="0.6" ry="0.7"></ellipse></g></svg>