<svg xmlns="http://www.w3.org/2000/svg" version="1.1" xmlns:xlink="http://www.w3.org/1999/xlink" xmlns:svgjs="http://svgjs.dev/svgjs" viewBox="0 0 108 108" style="" x="0" y="0"><style type="text/css">
	.st0{fill:#9A808E;}
	.st1{display:none;}
	.st2{display:inline;fill:none;}
	.st3{fill:#77893D;}
	.st4{fill:#879A47;}
	.st5{fill:#99AD52;}
	.st6{fill:#B3C47A;}
</style><g><path class="st0" d="M55.1,70.8c-0.5-5.1-4-15-6-18c-2-3-8.7-10.1-10.4-12c-1.7-1.9-3.8-5.2-3.8-5.2s-1.5-1.8-2.2-6.6
	c-0.7-4.8,1.6-4.8,1.6-4.8s0.7,7.1,2.7,10.2c2,3.1,5.4,6.8,6.4,7.9c1,1.1,4.2,5.3,5.7,6.8c1.5,1.5,2.7,5.2,4,7
	c1.3,1.9,2.9,6.8,3,7.7s0.7,4.2,0.7,4.2L55.1,70.8z"></path><path class="st0" d="M56.9,43.3c0,0,0.5,2.2,5.1,0.6c4.6-1.5,0.6,3.1,0.6,3.1l-6.5-1.6L56.9,43.3z"></path><path class="st3" d="M61.9,50.2l-0.5,2.9c3.2-0.7,3.8-0.5,3.8-0.5s-0.2,2.3,0,3.4c0.2,1.2,3.1,5.3,6,5.1c2.9-0.2,8.6-1.7,9-2.9
	c-2.4-2.4-8.9-5.7-13.6-7.9C65.2,50.3,61.9,50.2,61.9,50.2z"></path><path class="st4" d="M82.6,53.7c-0.4-1.6-4.3-8.5-7.3-8.4c-3.1,0.2-3.7-0.6-5.5,1.9c-1.8,2.4-1.9,3-3,3c-0.1,0-0.1,0-0.2,0
	c4.8,2.2,11.2,5.5,13.6,7.9C80.5,56.9,83,55.3,82.6,53.7z"></path><path class="st0" d="M68.4,19.9c0.9-0.4,1.8-2.2,2.7,0.1c0.9,2.3,1,1.2,1,3.4c-0.1,2.2-11.6,32-11.6,33.3
	c-0.1,1.3-10.1,40.2-10.5,41c-0.4,0.9-0.6,4.5-0.6,5.1c0,0.6-5.8,0-5.8,0s5.3-11.4,5.9-13.1s9.4-34.9,9.8-36.6s9.1-27.3,9.1-28.8
	s2.3-2.8,0.9-2.9S68.4,19.9,68.4,19.9z"></path><path class="st5" d="M49.2,75.7c-1.6-0.1-2.4-0.6-4.8-1.5c-3.4-1.3-5.1-3.2-7.2-1.2c-2.1,2-6.6,3.6-6.6,9.1c0,5.5,0.6,10.9,1.6,11.1
	c0.2,0,0.4,0.1,0.6,0.1c2.2-4.1,4.7-7.7,7.1-10.6C41.9,80.3,46.7,77.2,49.2,75.7z"></path><path class="st5" d="M57.7,73.7c-0.1,0.9-2,8.3,2.7,9.8c4.7,1.5,6.8,1.8,9.3,1.8c2.5,0,4.8,0,4.8,0C72.4,79,65.4,71,62,66.2
	C61.7,66.4,57.7,73.7,57.7,73.7z"></path><path class="st4" d="M74.5,70.4c-3.9-3.7-5.4-4.1-7.8-4.2c-2.4-0.1-4.4-0.3-4.7,0C65.4,71,72.4,79,74.5,85.3
	C74.5,85.3,78.4,74,74.5,70.4z"></path><path class="st6" d="M65.5,58.5c-2.2-0.7-2.2-0.1-5.4,2.1c0,0-0.5-0.1-1.1-0.2c0.2,1.7,0.5,3.4,0.5,5c0,1.6,0,4.5,0,6.3
	c0.3-0.1,1.3-0.5,2.6-1.2c1.6-0.9,5.6-4.3,6.2-7C68.9,60.7,67.7,59.2,65.5,58.5z"></path><path class="st5" d="M58.9,60.3c-0.6-0.1-1.2-0.3-1.4-0.4c-0.5-0.2-0.6-0.7-1.3-1.8c-0.7-1.1-1.5-0.9-2.6-0.6
	c-1.1,0.2-1.1,0.9-1.6,2.8c-0.5,2,0.8,5.5,1.5,7.3c0.7,1.8,5.9,3.9,5.9,3.9s0,0,0.1,0c0-1.7,0-4.6,0-6.3
	C59.4,63.7,59.1,62,58.9,60.3z"></path><path class="st6" d="M59.5,46.3c-1.6-1.3-0.6,0.4-1.6-1.3c-1-1.7-1-1.7-1-1.7c-2.7,2-5.3,3.9-7.7,4.9c-2.4,1-1.5,1-4.9,1.3
	c-0.2,0-0.5,0.1-0.7,0.1c0.1,0.5,0.4,0.8,1,1.1c1.8,0.9,3.6,2.3,7.8,1.6c4.3-0.7,6.2-1,7.1-2.9C60.3,47.5,61,47.7,59.5,46.3z"></path><path class="st5" d="M49.2,48.2c2.4-1,5-2.9,7.7-4.9c-0.6-4.3,0.7-6-4.8-4.8s-6.7,5-7.6,7.2c-0.6,1.5-1.2,2.9-1,3.9
	c0.2-0.1,0.5-0.1,0.7-0.1C47.7,49.2,46.8,49.2,49.2,48.2z"></path><path class="st5" d="M67.5,29.1l-2.3-1c-0.4-0.3-0.7-0.6-1-1c0.1,0.4-0.2,1-2.7,2.8c-4.8,3.5-5.6,3.4-7.5,5.9
	c-0.3,0.4-0.8,1-1.3,1.7c0.7,0.3,1.9,0.1,5.3-0.1c5.4-0.2,9,0.4,10.3-1.9C69.6,33.4,69.9,30.1,67.5,29.1z"></path><path class="st4" d="M61.4,30c2.5-1.9,2.8-2.4,2.7-2.8c-2-2.1-2.6-3.9-6.1-3.7c-4,0.2-6,1-6.6,2.3c-0.6,1.4-1.3,8.5,0,10.5
	c0.5,0.8,0.8,1.2,1.2,1.4c0.5-0.7,1-1.3,1.3-1.7C55.9,33.3,56.6,33.5,61.4,30z"></path><path class="st6" d="M71.1,9.1c-3.8-3.1-3.2-2.9-6.9-2.9c-3,0-3.1-0.5-3.8-0.3c1.4,2.7,2.4,5,4.9,7.8c3.1,3.5,3.4,3.2,3.8,7.8
	c0.6-0.1,2-1.5,2-1.5C71.8,17.6,74.9,12.2,71.1,9.1z"></path><path class="st5" d="M60.5,5.9c-0.1,0-0.3,0.1-0.5,0.3c-1.2,0.7-3.8,2.3-3.8,4.3s2,7.5,5.8,9.1c3.8,1.6,6.6,2.1,7.2,2
	c-0.4-4.6-0.7-4.4-3.8-7.8C62.8,10.9,61.9,8.6,60.5,5.9z"></path><path class="st5" d="M80.2,27.1c-3.8-1.7-6.8-0.4-10.2,1.4L68.3,31l1.1,1l2.6-2.9c0,0,0.6,0.4,1,1.3c0.4,1,1.9,2.8,3,4.7
	c1.1,1.8,6.4,2.8,11.8,2.4c2.1-0.1,3.1-0.8,3.7-1.5c-1-1.1-2-2.2-2.5-2.8C87.6,31.9,84,28.9,80.2,27.1z"></path><path class="st6" d="M92,32.6c0.1-0.9-1.5-5.1-2.8-8.6c-1.3-3.4-7.8-4.4-12.1-2.6c-4.3,1.9-3.9,3.2-5.1,4.1c-1.2,1-2,2.9-2,2.9
	c3.4-1.9,6.4-3.2,10.2-1.4c3.8,1.7,7.4,4.8,8.8,6.1c0.6,0.6,1.5,1.7,2.5,2.8C92.4,34.8,92,33.2,92,32.6z"></path><path class="st4" d="M66.6,42.4c-0.7,0.3-1.3,0.6-2.1,1.3c-2.2,1.8-5.5,2.8-0.6,6.6c4.9,3.7,6,6.5,8.3,5.6c0.1-0.1,0.2-0.1,0.4-0.2
	c-0.7-1.9-1.5-4.3-2.7-6.9C68.4,45.4,67.6,43.9,66.6,42.4z"></path><path class="st5" d="M77.1,50.2c0.5-3,1.7-4.4,0-6.4c-1.7-2.1-5.5-2.3-5.5-2.3c-2.4,0.4-3.7,0.4-4.9,0.9c1,1.6,1.7,3.1,3.3,6.4
	c1.2,2.6,2,5,2.7,6.9C74.8,54.6,76.6,53.1,77.1,50.2z"></path><path class="st6" d="M50.7,79.8c-0.2-1.6-0.8-1.2-0.2-1.6c0.6-0.4,2-0.4,2-0.4l-0.5-2.2c-1.2,0.1-2,0.1-2.7,0
	c-2.5,1.5-7.3,4.6-9.3,7c-2.4,2.8-4.9,6.4-7.1,10.6c1,0,2.5-0.3,4.3-0.7c2.2-0.5,7-1,9.1-2.4c2.1-1.5,4.9-4,4.6-6.4
	C50.5,81.4,51,81.4,50.7,79.8z"></path><path class="st4" d="M68.4,17.1c-1.7,1.3-2.6,3-1.7,4c0.9,1.1,1.8,2.4,3,2.3c1.1-0.1,1,1,3.2,0c2.2-1,3.2-2.2,3.3-2.8
	c0.1-0.6,0-2,0-2L68.4,17.1z"></path><path class="st5" d="M70.2,18.9c0.9,1.2,1.9,1.2,2.8,0.9c0.9-0.3,1.5-0.3,1.9-0.4c0.4-0.1,2.6,0.2,1.4-0.8c-1.2-1,1.7-0.9-2.1-1.4
	s-2.6-0.3-3.8-0.6c-1.3-0.3-1.9,0.6-1.9,0.6C68.8,18.2,70.2,18.9,70.2,18.9z"></path><polygon class="st0" points="51.9,75.7 55.1,74.5 54.5,77.6 51.2,78 "></polygon><path class="st0" d="M37.5,37.8c-2,1-3.9,1.4-4.7,1.8c-0.8,0.4,0.4,2.1,0.4,2.1s4.4-2,5-2.5C38.8,38.8,37.5,37.8,37.5,37.8z"></path><path class="st6" d="M38.7,44.5c-0.4-2.3-0.9-2-4.4-3.7c0,0-0.2-0.5-0.3-1c-1.4,1-2.7,2-4,2.8c-1.4,0.8-3.9,2.1-5.4,2.9
	c0.2,0.2,1,0.9,2.2,1.7c1.5,1,6.4,2.9,9,2.1C38.4,48.5,39.1,46.7,38.7,44.5z"></path><path class="st5" d="M34,39.7c-0.2-0.5-0.3-1.2-0.3-1.4c0-0.5,0.3-0.9,1-2c0.6-1.2,0.1-1.7-0.7-2.5c-0.7-0.8-1.3-0.6-3.2-0.1
	c-2,0.5-4.4,3.3-5.6,4.8c-1.2,1.5-0.6,6.9-0.6,6.9s0,0,0.1,0.1c1.5-0.8,4-2.2,5.4-2.9C31.4,41.7,32.7,40.7,34,39.7z"></path><path class="st6" d="M32.6,27.6c0.4-2-0.6-0.4,0.4-2c1.1-1.7,1.1-1.7,1.1-1.7c-3-1.4-6-2.8-7.9-4.5c-2-1.6-1.6-0.9-3.5-3.7
	c-0.1-0.2-0.3-0.4-0.5-0.6c-0.3,0.3-0.5,0.8-0.5,1.4c0.1,2-0.4,4.2,2.3,7.7c2.7,3.4,3.8,5.1,5.9,4.9C32,28.9,32.2,29.6,32.6,27.6z"></path><path class="st5" d="M26.1,19.4c2,1.6,4.9,3.1,7.9,4.5c3.5-2.6,5.6-2.2,2-6.5s-7.6-3.6-9.9-3.3c-1.6,0.2-3.2,0.3-3.9,1
	c0.2,0.2,0.3,0.4,0.5,0.6C24.6,18.6,24.2,17.8,26.1,19.4z"></path><path class="st5" d="M41.5,58.1c1.8-2.9,4.5-3.3,7.6-3.5l2.3,0.9l-0.3,1.2L48,55.8c0,0-0.3,0.5-0.1,1.4c0.2,0.8-0.1,2.8,0,4.5
	c0.1,1.7-3.1,4.7-7,6.9c-1.5,0.8-2.5,0.9-3.2,0.6c0.2-1.2,0.4-2.4,0.5-3C38.5,64.6,39.7,60.9,41.5,58.1z"></path><path class="st6" d="M35.8,67c-0.5-0.5-1.3-4.2-1.8-7.1c-0.6-2.9,3.4-6.5,7.2-7.1c3.8-0.6,4.1,0.4,5.4,0.6c1.3,0.1,2.6,1.2,2.6,1.2
	c-3.2,0.2-5.8,0.6-7.6,3.5c-1.8,2.9-3,6.6-3.3,8.1c-0.1,0.6-0.3,1.8-0.5,3C36.4,68.7,36,67.4,35.8,67z"></path><path class="st4" d="M32,22.3c-1.3,1-2,2.2-1.3,3.1c0.7,0.8,1.4,1.8,2.2,1.7s0.8,0.7,2.5,0c1.7-0.7,2.4-1.7,2.5-2.2
	c0.1-0.5,0-1.5,0-1.5L32,22.3z"></path><path class="st5" d="M33.3,23.6c0.7,0.9,1.5,0.9,2.1,0.7c0.7-0.2,1.1-0.2,1.4-0.3s2,0.2,1.1-0.6c-0.9-0.8,1.3-0.6-1.6-1.1
	s-1.9-0.2-2.9-0.5c-1-0.3-1.4,0.5-1.4,0.5C32.2,23.1,33.3,23.6,33.3,23.6z"></path></g></svg>