<?xml version="1.0" encoding="utf-8"?>
<!-- Generator: Adobe Illustrator 27.4.1, SVG Export Plug-In . SVG Version: 6.00 Build 0)  -->
<svg version="1.1" id="Layer_1" xmlns="http://www.w3.org/2000/svg" xmlns:xlink="http://www.w3.org/1999/xlink" x="0px" y="0px"
	 viewBox="0 0 108 108" style="enable-background:new 0 0 108 108;" xml:space="preserve">
<style type="text/css">
	.st0{fill:#A5BD39;}
	.st1{fill:#7B9432;}
	.st2{fill:#93AE32;}
	.st3{fill:#94943B;}
	.st4{fill:#6AA443;}
	.st5{fill:#A5C239;}
	.st6{fill:#8DA830;}
	.st7{fill:#A1C375;}
	.st8{fill:#87AB40;}
	.st9{fill:#7C9745;}
	.st10{fill:#BAC933;}
	.st11{fill:#91B73E;}
</style>
<g>
	<path class="st0" d="M60,54c0.8-0.2,8.5-0.8,11.5-0.6s6.2,0.6,8.6,0.5c2.4-0.1,9-1.7,9.6-2.2c0.5-0.5,1.2-2.9,1.2-2.9l-4.5-0.3
		c0,0,4.5-2.2,5-2.8s2.1-2.4,1.3-2.7c-0.7-0.3-6.6-0.8-6.6-0.8l1.2-2c0,0-4.5-1-6.1-0.5c-1.6,0.5-4.7,2.7-5.4,3.4
		c-0.7,0.7-6.2,3.7-7.6,4.1c-1.4,0.4-6,2.5-6.8,2.9c-0.8,0.4-1.8,2.5-3.5,2.8c-1.7,0.3-3.5,0.3-3.5,0.3L60,54z"/>
	<path class="st1" d="M53.7,50.6c-0.1,1.1-2.3,3.1-2.9,4.8s-0.6,9.6-0.4,12.6c0.2,3,0.4,5.2,0.4,5.2l1.7-1.9c0,0,0.1,5.2-0.3,6.1
		c-0.4,0.9-1.1,2.6-0.4,4.1c0.7,1.5,3.6-1.4,4.1-3.3s0-6.3,0.1-7.2c0.1-0.8,0.2-3.7,0-4.8c-0.2-1.2,0.8-3.6,0.8-3.6
		s2.8,9.3,3.5,11.3c0.7,2.1,2.8,7.2,3.3,8.5s1,2.5,1.8,3.4c0.8,0.9,2.3,2.1,2.3,2.1l0.6-4.8c0,0,0.4,2.1,2.3,3.5
		c1.9,1.5,4.8,3.2,5.2,3.3c0.4,0.2,0.1-2.6-0.2-4.8c-0.3-2.2-0.7-6.5-1.4-7.2c-0.7-0.8-1.8-2-1.8-2l4.6,2.1c0,0,0.4-3.4-1.4-5.7
		c-1.8-2.3-4.6-6-6-7.3s-4.6-4.6-5.9-5.9c-1.2-1.3-1.4-3.2-1.4-3.2s0-0.9-1.9-2.6S53.7,50.6,53.7,50.6z"/>
	<path class="st1" d="M49.6,54.1c1-0.2,3.7,1.2,5.4,1.3c1.8,0.1,9.3-2.5,12-3.6s4.8-2.1,4.8-2.1l-2.4-1c0,0,4.9-1.7,5.8-1.6
		c0.9,0.1,2.9,0.2,4-0.9c1.2-1.1-2.5-3-4.4-2.8c-1.9,0.2-6,2.1-6.8,2.2c-0.8,0.1-3.5,1-4.6,1.5c-1.1,0.5-3.7,0.4-3.7,0.4
		s7.9-5.6,9.7-6.9c1.7-1.3,6-4.9,7-5.8c1-0.9,2.1-1.7,2.7-2.8c0.6-1.1,1.3-2.9,1.3-2.9l-4.7,1c0,0,1.9-1,2.6-3.3
		c0.8-2.3,1.5-5.5,1.5-6s-2.5,0.8-4.5,1.7c-2,1-5.9,2.7-6.4,3.7c-0.5,0.9-1.3,2.4-1.3,2.4l0.5-5c0,0-3.3,0.7-4.9,3.2
		c-1.6,2.4-4.2,6.3-5,8c-0.8,1.7-2.9,5.9-3.8,7.5c-0.8,1.6-2.6,2.3-2.6,2.3S51,44.8,50,47.2C48.9,49.5,49.6,54.1,49.6,54.1z"/>
	<path class="st2" d="M60.5,50.8c-0.9,0.6-1.8,3.4-3,4.7c-1.2,1.3-8.4,4.7-11.2,5.8c-2.8,1.1-4.9,1.8-4.9,1.8l1-2.4
		c0,0-4.7,2.2-5.3,2.9c-0.6,0.7-1.9,2.1-3.5,2.1c-1.6,0-0.3-3.9,1.2-5.1c1.5-1.2,5.7-2.7,6.4-3.2c0.7-0.5,3.2-1.8,4.4-2.1
		c1.1-0.3,2.9-2.3,2.9-2.3s-9.6,1.5-11.7,1.8c-2.2,0.3-7.7,0.6-9.1,0.7c-1.3,0.1-2.7,0.2-3.9-0.2c-1.1-0.4-2.9-1.2-2.9-1.2l4.1-2.6
		c0,0-2,0.6-4.2-0.5c-2.1-1.1-4.9-3-5.3-3.3c-0.4-0.3,2.3-1.2,4.4-1.9c2.1-0.7,6.2-2.1,7.2-1.8s2.6,0.8,2.6,0.8l-3.8-3.2
		c0,0,2.9-1.8,5.7-1.2s7.4,1.6,9.2,2.3c1.8,0.7,6.2,2.2,7.9,2.8s3.5-0.2,3.5-0.2s0.8-0.4,3.2,0.5C57.7,47,60.5,50.8,60.5,50.8z"/>
	<path class="st3" d="M56,53.3c0.6-0.7,3.1-1,4.3-1.9s5.1-6.3,6.4-8.5c1.3-2.1,2.2-3.8,2.2-3.8l-2.1,0.5c0,0,2.5-3.6,3.2-4
		s2.1-1.3,2.3-2.6s-3.2-0.8-4.4,0.3c-1.2,1.1-3.1,4.4-3.5,4.9s-1.9,2.4-2.4,3.3s-2.3,2.1-2.3,2.1s2.6-7.8,3.1-9.5
		c0.5-1.8,1.6-6.3,1.9-7.4c0.2-1.1,0.6-2.2,0.4-3.2c-0.2-1-0.6-2.6-0.6-2.6l-2.7,3c0,0,0.8-1.6,0.1-3.6s-1.8-4.5-2-4.9
		c-0.2-0.3-1.3,1.8-2.2,3.4s-2.7,4.8-2.5,5.7s0.3,2.3,0.3,2.3l-2.1-3.6c0,0-1.9,2.2-1.8,4.6s0.3,6.4,0.6,8c0.3,1.6,0.9,5.5,1.2,7
		c0.2,1.5-0.6,2.9-0.6,2.9s-0.4,0.6,0,2.7C53.2,50.4,56,53.3,56,53.3z"/>
	<path class="st3" d="M52.8,51.9c-0.6,0.6-3.2,0.9-4.4,1.7c-1.3,0.8-5.4,6.1-6.8,8.2c-1.4,2.1-2.4,3.7-2.4,3.7l2.1-0.4
		c0,0-2.7,3.5-3.4,3.9c-0.7,0.4-2.1,1.2-2.4,2.5c-0.3,1.3,3.2,0.9,4.4-0.1s3.3-4.3,3.8-4.7c0.5-0.5,2-2.3,2.5-3.2
		c0.5-0.9,2.4-2,2.4-2s-3,7.6-3.6,9.4s-1.9,6.3-2.2,7.4c-0.3,1.1-0.7,2.2-0.6,3.2c0.1,1,0.5,2.6,0.5,2.6l2.8-2.9
		c0,0-0.8,1.6-0.3,3.5c0.5,2,1.6,4.6,1.8,4.9s1.4-1.7,2.3-3.3c1-1.6,2.9-4.7,2.8-5.6S52,78.3,52,78.3l2,3.7c0,0,2-2.1,2-4.5
		c0-2.4,0-6.4-0.2-8c-0.3-1.6-0.7-5.5-0.8-7c-0.2-1.5,0.8-2.9,0.8-2.9s0.5-0.6,0.1-2.7S52.8,51.9,52.8,51.9z"/>
	<path class="st4" d="M56.3,50c0.6,0.7,0.7,3.5,1.4,4.9c0.7,1.4,6.1,6.3,8.3,8s3.8,2.9,3.8,2.9l-0.3-2.3c0,0,3.6,3.2,3.9,3.9
		c0.4,0.8,1.1,2.4,2.5,2.8c1.4,0.4,1.3-3.4,0.3-4.8c-1-1.4-4.3-3.9-4.8-4.5c-0.5-0.6-2.4-2.4-3.3-3c-0.9-0.6-2-2.7-2-2.7
		s8,3.8,9.8,4.6s6.6,2.6,7.8,3c1.2,0.4,2.3,0.9,3.4,0.9c1.1,0,2.9-0.3,2.9-0.3l-2.9-3.3c0,0,1.6,1,3.8,0.6c2.2-0.4,5.1-1.3,5.5-1.5
		s-1.7-1.6-3.4-2.8c-1.7-1.2-4.8-3.5-5.8-3.5c-1,0-2.5,0-2.5,0l4.2-1.8c0,0-2.1-2.3-4.7-2.5c-2.6-0.2-6.9-0.5-8.7-0.4
		c-1.7,0.2-6,0.3-7.7,0.3c-1.7,0-3-1.1-3-1.1s-0.6-0.6-2.9-0.4S56.3,50,56.3,50z"/>
	<path class="st4" d="M56,53.9c-0.3-0.9,0.6-3.5,0.4-5.1c-0.2-1.6-3.5-8.1-5-10.4c-1.4-2.3-2.5-4-2.5-4l-0.6,2.3
		c0,0-2.2-4.2-2.3-5.1s-0.2-2.6-1.4-3.5c-1.2-0.9-2.3,2.7-1.9,4.4c0.4,1.7,2.7,5.1,3,5.9c0.2,0.7,1.4,3.1,2,4
		c0.6,0.9,0.9,3.3,0.9,3.3s-6.2-6.4-7.6-7.8c-1.4-1.4-5.3-4.7-6.2-5.5c-0.9-0.8-1.9-1.7-2.9-2c-1-0.4-2.8-0.7-2.8-0.7l1.5,4.1
		c0,0-1.2-1.5-3.3-1.9c-2.2-0.4-5.2-0.6-5.7-0.5c-0.4,0,1,2.1,2.2,3.8c1.1,1.7,3.3,5,4.2,5.3c0.9,0.3,2.3,0.9,2.3,0.9l-4.6,0.2
		c0,0,1.1,2.9,3.5,4s6.3,2.9,8,3.4c1.7,0.5,5.7,1.8,7.3,2.4c1.6,0.5,2.5,2.1,2.5,2.1s0.4,0.7,2.6,1.4C51.8,55.1,56,53.9,56,53.9z"/>
	<path class="st5" d="M54.9,54.9c0,0,0.1,0.6,0.3,1.6c0.6,2.7,1.5,7.9,0.9,9.6c-0.8,2.2-4.3,8.8-4.5,11.7s0.2,5.4,0.6,6.4
		c0.5,1,0.5,1,0.5,1l2.6-2c0,0,1,4.1,1,5.7c0,1.6-0.9,2.6,0,4c0.9,1.4,0.9,1.4,0.9,1.4s2-1.3,2.9-3c0.9-1.8,1.3-1.8,1.9-1.1
		s1.9,0.9,1.9,0.9s-0.3-3.4,0-4.5c0.3-1.1,0-2.2,0-2.2s1.9,0.9,2.7,0.9c0.8,0,0.5-7.2,0-10c-0.5-2.9-6.2-10.8-6.5-12.1
		C59.8,61.7,54.9,54.9,54.9,54.9z"/>
	<path class="st5" d="M56.3,55.8c0,0-0.2-0.6-0.4-1.5c-0.7-2.6-2-7.8-1.5-9.5c0.7-2.3,3.8-9,3.7-12c0-3-0.5-5.4-1-6.4s-0.5-1-0.5-1
		l-2.4,2.2c0,0-1.2-4-1.3-5.6s0.8-2.6-0.2-4c-1-1.4-1-1.4-1-1.4s-1.9,1.4-2.7,3.2c-0.8,1.8-1.1,1.9-1.8,1.3c-0.7-0.6-2-0.7-2-0.7
		s0.5,3.4,0.3,4.5C45,26,45.4,27,45.4,27s-2-0.7-2.8-0.7c-0.8,0,0,7.2,0.6,10s6.8,10.4,7.2,11.7C50.9,49.3,56.3,55.8,56.3,55.8z"/>
	<path class="st6" d="M54.4,47.9c0,0-0.3,0.5-0.7,1.3c-1.2,2.2-3.6,6.6-5,7.5c-1.9,1.1-8.4,3.8-10.2,5.8c-1.9,2-3.1,4-3.4,5
		s-0.3,1-0.3,1l3,0.1c0,0-1.7,3.5-2.7,4.7s-2.2,1.3-2.4,2.9c-0.2,1.6-0.2,1.6-0.2,1.6s2.2,0.2,3.9-0.5c1.7-0.7,2-0.6,2.1,0.3
		s0.9,1.8,0.9,1.8s1.8-2.6,2.7-3.3c0.9-0.6,1.3-1.6,1.3-1.6s0.9,1.8,1.4,2.3c0.6,0.5,4.6-4.9,6-7.3c1.4-2.4,2-11.5,2.5-12.6
		C53.9,55.8,54.4,47.9,54.4,47.9z"/>
	<path class="st7" d="M57.9,51.7c0,0-0.4-0.5-1-1.4c-1.8-2.3-5.1-7-5.3-8.8c-0.3-2.5,0.2-10.4-1.1-13.4c-1.2-2.9-2.6-5.1-3.6-5.9
		c-0.9-0.8-0.9-0.8-0.9-0.8l-1.5,3.1c0,0-2.8-3.5-3.5-5c-0.7-1.6-0.3-2.9-1.8-3.9s-1.6-0.9-1.6-0.9s-1.3,2.1-1.4,4.3s-0.4,2.3-1.3,2
		c-0.9-0.4-2.2,0-2.2,0s1.9,3.1,2.1,4.4c0.2,1.2,1,2.1,1,2.1s-2.2,0-3,0.4s2.8,7.2,4.6,9.7c1.8,2.5,10.9,7.6,11.8,8.7
		S57.9,51.7,57.9,51.7z"/>
	<path class="st8" d="M55.9,53c0,0,0.5-0.3,1.2-0.9c2.1-1.4,6.3-4.2,7.9-4.3c2.2-0.1,9.1,0.5,11.8-0.4c2.6-0.9,4.6-2.1,5.3-2.9
		s0.7-0.8,0.7-0.8l-2.7-1.5c0,0,3.1-2.4,4.5-2.9c1.4-0.6,2.6-0.1,3.5-1.5c0.9-1.3,0.9-1.3,0.9-1.3s-1.8-1.2-3.7-1.4
		c-1.9-0.2-2-0.4-1.7-1.2c0.3-0.8,0-2,0-2s-2.8,1.5-3.9,1.6s-1.9,0.8-1.9,0.8s0-2-0.2-2.7c-0.3-0.7-6.4,2.2-8.7,3.7
		c-2.3,1.5-7.1,9.3-8.1,10.1S55.9,53,55.9,53z"/>
	<path class="st9" d="M57.5,52.1c0,0,0.5,0.4,1.1,1c1.9,1.7,5.6,5.1,6.1,6.7c0.6,2.1,1.7,9,3.2,11.3c1.5,2.3,3.1,4,4.1,4.5
		c0.9,0.5,0.9,0.5,0.9,0.5l0.8-2.9c0,0,3,2.5,3.9,3.7c0.9,1.2,0.7,2.5,2.2,3s1.5,0.5,1.5,0.5s0.8-2.1,0.5-3.9s-0.1-2.1,0.8-1.9
		c0.9,0.1,1.9-0.4,1.9-0.4s-2.1-2.4-2.5-3.4c-0.4-1-1.2-1.7-1.2-1.7s1.9-0.4,2.5-0.8c0.6-0.4-3.7-5.7-5.6-7.6
		c-2-1.9-10.7-4.7-11.7-5.5S57.5,52.1,57.5,52.1z"/>
	<path class="st10" d="M55.7,49.3c0-0.6-0.9-6.1-1.2-8.1c-0.3-1.9,0-2.7,0-4l2.7,2.2c0,0,0.9-2.7,1.6-3.4c0.7-0.7,0.7,1.5,0.7,1.5
		s1.8-0.3,3.1-1.6s3.4-3.3,3.4-3.3s0.4,3.9-0.9,5.1c-1.3,1.2-1.6,2.4-1.6,2.4s3.1,0.6,3.9-0.3c0.7-0.9,2,1.2-1.3,2.7
		c-3.3,1.5-3.2,2.8-4.7,3.9c-1.6,1-1.1,1.9-2.5,2.4C57.4,49.1,55.7,49.3,55.7,49.3z"/>
	<path class="st10" d="M55.4,53.7c0.2,0.6,2.5,5.7,3.4,7.5s0.7,2.6,1.1,3.9l-3.2-1.4c0,0-0.1,2.8-0.6,3.7c-0.5,0.9-1.1-1.2-1.1-1.2
		s-1.6,0.8-2.6,2.4c-0.9,1.7-2.4,4.1-2.4,4.1s-1.5-3.6-0.5-5.1c1-1.5,0.9-2.8,0.9-2.8s-3.2,0.3-3.7,1.3c-0.5,1.1-2.2-0.6,0.6-3
		c2.8-2.3,2.3-3.6,3.5-5c1.2-1.4,0.6-2.2,1.8-3C53.8,54.3,55.4,53.7,55.4,53.7z"/>
	<path class="st0" d="M58.5,53.5c0.7,0.3,8.2,2.1,11.2,2.4c3,0.3,6.3,0.4,8.6,0.9s8.6,3.1,9.1,3.7c0.4,0.6,0.7,3.1,0.7,3.1l-4.5-0.4
		c0,0,4,2.9,4.5,3.6c0.4,0.7,1.6,2.7,0.9,2.9s-6.6-0.3-6.6-0.3l0.9,2.2c0,0-4.6,0.2-6.1-0.5s-4.2-3.4-4.8-4.2
		c-0.6-0.8-5.5-4.6-6.9-5.2c-1.3-0.6-5.5-3.4-6.3-4c-0.7-0.6-1.3-2.7-3-3.3c-1.6-0.6-3.4-0.9-3.4-0.9H58.5z"/>
	<path class="st0" d="M51.8,52.4c-0.8,0.3-8.3,1.7-11.3,1.8s-6.3,0.1-8.6,0.5c-2.4,0.3-8.8,2.7-9.2,3.3c-0.5,0.6-0.9,3-0.9,3
		l4.5-0.2c0,0-4.2,2.7-4.7,3.4c-0.5,0.7-1.8,2.6-1,2.8c0.7,0.2,6.6,0,6.6,0l-1,2.2c0,0,4.6,0.5,6.2-0.2c1.5-0.7,4.4-3.2,5-3.9
		c0.6-0.7,5.8-4.3,7.1-4.9c1.4-0.6,5.7-3.1,6.5-3.6c0.8-0.5,1.5-2.7,3.2-3.1s3.5-0.7,3.5-0.7L51.8,52.4z"/>
	<path class="st11" d="M55.1,52c-0.5,0.4-0.6,3.5-4.1,4.7c-3.6,1.2-6,1.3-7.2,1.2c-1.2-0.1,1.7-3.6,1.7-3.6s-1.3,0-3.7-0.9
		c-2.4-0.9-3.4-1.8-3.9-2.2S35.8,48,35.8,48l4,0.5c0,0-1.2-0.6-3.4-2.2c-2.2-1.6-4.1-2.5-4.4-3.7c-0.4-1.2-2.7-3.8-2.7-3.8
		s5.3,2.2,6.5,2.8c1.2,0.6,5.3,2.1,5.3,2.1s-0.5-2-2.1-3.1s-1.8-2.6-1.8-2.6s1.8,0,3,1.2s2.9,2.4,2.9,2.4s3.1,0,4,1.4
		c0.9,1.4,1.1-1.3,0.2-2.5c-0.9-1.2-1.1-3.1,0.6-1.3c1.7,1.7,4,4.5,5.2,6.4c1.2,1.9,2.2,3,2.7,3.8C56.2,50.3,55.1,52,55.1,52z"/>
</g>
</svg>
