<?xml version="1.0" encoding="utf-8"?>
<!-- Generator: Adobe Illustrator 27.4.1, SVG Export Plug-In . SVG Version: 6.00 Build 0)  -->
<svg version="1.1" id="Layer_1" xmlns="http://www.w3.org/2000/svg" xmlns:xlink="http://www.w3.org/1999/xlink" x="0px" y="0px"
	 viewBox="0 0 108 108" style="enable-background:new 0 0 108 108;" xml:space="preserve">
<style type="text/css">
	.st0{fill:#6A8335;}
	.st1{fill:#637C30;}
	.st2{fill:#B1C676;}
	.st3{fill:#649032;}
	.st4{fill:#82B53E;}
	.st5{fill:#829E41;}
	.st6{fill:#92BB56;}
	.st7{fill:#6C8634;}
	.st8{fill:#486E26;}
	.st9{fill:#A0BF52;}
	.st10{fill:#778844;}
	.st11{fill:#939A4F;}
	.st12{fill:#779239;}
	.st13{fill:#608139;}
	.st14{fill:#496020;}
	.st15{fill:#6C7D49;}
	.st16{fill:#678134;}
	.st17{fill:#689534;}
	.st18{fill:#557330;}
	.st19{fill:#81A74C;}
	.st20{fill:#61792D;}
	.st21{fill:#8C9F5E;}
	.st22{fill:#627731;}
	.st23{fill:#597129;}
	.st24{fill:#597834;}
	.st25{fill:#9CA53A;}
	.st26{fill:#95B34B;}
	.st27{fill:#617A30;}
	.st28{fill:#667F33;}
	.st29{fill:#738E35;}
	.st30{fill:#507733;}
	.st31{fill:#526A26;}
	.st32{fill:#728D37;}
	.st33{fill:#687845;}
	.st34{fill:#5C752B;}
	.st35{fill:#5B742B;}
	.st36{fill:#526C4A;}
	.st37{fill:#7DAC42;}
	.st38{fill:#8CAB62;}
	.st39{fill:#A5B339;}
	.st40{fill:#758F38;}
	.st41{fill:#5E774B;}
	.st42{fill:#77AB3E;}
	.st43{fill:#6F8935;}
	.st44{fill:#B8C75B;}
	.st45{fill:#79943A;}
</style>
<g>
	<path class="st0" d="M63.5,28.3c3.3-0.2,6.4,1.1,6.9,2.9c0.4,1.8-1.8,3.4-5,3.6c-3.2,0.2-6.3-1.1-6.9-2.9
		C57.9,30.1,60.1,28.5,63.5,28.3z"/>
	<path class="st1" d="M65.1,32.9c0,0,1.1,2.7,4.9,4s8.5,0.7,11,0c2.5-0.7,4.3-2.2,5.9-3.6c1.5-1.3,1.4-2.6,0.7-3.7
		c-0.7-1.1-4.8-6.5-10.8-6.3c-6.1,0.4-9.4,1.1-10.8,2.7c-1.3,1.7-3,3.5-2.7,4.3C63.6,31.2,65.1,32.9,65.1,32.9z"/>
	<path class="st2" d="M54.3,42.2c-0.3,0.5-1.3,2.2-0.4,4c0.9,1.8,4,4.7,5.4,5.2c1.4,0.4,2.9,0.7,4.3-0.2c1.4-0.9,2.6-2.6,3-3.5
		c0.5-0.8,0.9-3.5,0.4-4.2c-0.6-0.7-4.2-2.6-5.2-2.9c-1-0.4-4.1-1.3-5.1-0.9C55.7,40.1,54.3,42.2,54.3,42.2z"/>
	<path class="st3" d="M53.5,28.2c0,0-3.6-3.3-4.3-5c-0.6-1.7-1.4-6.5-0.2-7.5c1.3-0.9,2.3-2.4,4.3-2.5c2.1-0.1,2.4-1.4,5.5,0.2
		c3.1,1.6,6.1,0.5,9.2,8.1c3,7.6,1.9,8.9,1.8,9.4c-0.2,0.5-3.4,1.8-4,1.7c-0.5-0.1-4.4-1.5-5.6-1.8C59.1,30.7,53.5,28.2,53.5,28.2z"
		/>
	<path class="st4" d="M66,39.1c0,0-4.6,4.5-6.7,5.5c-2.1,1-6.5,2.8-8.9,2.4c-2.4-0.5-4.8-1.7-5.3-3.1c-0.5-1.4,0.4-5.5,3.4-7.7
		c3-2.2,4.9-3.7,6.2-4.1c1.3-0.4,3.9-2.7,6.3-1.6c2.4,1.1,4.8,2.2,4.9,3.3C66.1,34.7,66,39.1,66,39.1z"/>
	<path class="st5" d="M66.8,37.5c0,0-1.1,3.7-0.9,4.9c0.2,1.2,0.7,3.4,2.6,4.8c1.9,1.4,7,1.9,8.8,2.3c1.9,0.4,4.6,0.9,4.6,0.9
		s-0.7-2.5-1-4.3c-0.3-1.8-2.5-7.7-3.6-9.1c-1.1-1.4-4.7-3.7-6.2-3.1c-1.5,0.6-2.3,2.4-2.3,2.4L66.8,37.5z"/>
	<path class="st6" d="M60.1,35.8c-0.2,0.2-1.8,1.9-1.4,3.3c0.3,1.4,0.7,2.3,2.3,3c1.6,0.7,4,1.7,4,1.7s0.5,0.3,1.5-0.7
		c1-1.1,3.9-3.2,4-4.3c0.1-1.1-0.3-1.9-0.7-2.8c-0.4-0.9-1.3-2-2.6-2c-1.3,0-2.5,0-3.8,0.6C61.9,35.2,60.1,35.8,60.1,35.8z"/>
	<path class="st6" d="M58.4,31.9c0,0-3.4-1-5.1-3c-1.8-2-2.4-3.7-1.8-4.8c0.7-1.1,1.9-1.9,2.4-2.7c0.6-0.8,0.9-0.8,2.9-0.2
		c1.9,0.7,7.5,3.2,8.1,4.6c0.6,1.5,3.3,4.3,2.2,5.1c-1.1,0.8-1.3,1.6-1.8,1.6s-3.2,0.4-3.8,0.2C60.9,32.6,58.4,31.9,58.4,31.9z"/>
	<path class="st5" d="M63.1,35.8c0,0-0.9,1.6-2.5,1.5c-1.6-0.1-4.9-0.4-5.6-1.6c-0.7-1.2-1.7-1.2-0.9-2.5c0.9-1.3,1.7-2.6,2.8-2.6
		c1.2-0.1,2.2-0.1,3,0.2c0.8,0.2,2.3-0.1,1.9,0.9c-0.4,1,1.4,2.8,1.4,2.8L63.1,35.8z"/>
	<path class="st2" d="M63.5,36.9c0,0,0.5-0.2-0.3-1c-0.8-0.9-0.4-1-1-2c-0.6-1.1-0.3-2.1-0.3-2.1s-1.2-0.1-0.7-0.8
		c0.5-0.7,1.3-0.2,2,0.2c0.7,0.4,0.5,0.8,2.2,1.4c1.7,0.6,2.9-0.2,2.8,0.4c-0.1,0.7,0,1.1-0.8,1.6c-0.8,0.5-1.5,1.3-1.9,1.7
		C64.9,36.6,63.8,37.9,63.5,36.9z"/>
	<path class="st0" d="M58.8,35.1l2.5,0.9c0,0,0.8,1.3-1.2,0.6c-2-0.6-3.8-0.9-4.2-1.7c-0.4-0.8-1-2.3,0.2-2.9
		c1.2-0.6,1.3-0.4,2.3-0.1c1,0.3,1.5,1,1,1c-0.5,0-1,1-1,1l3.7-0.2L58.8,35.1z"/>
	<path class="st7" d="M68.1,29.8c0,0,6.6,0.7,7.6,0.8c1.1,0.1,6.9,0.4,7.6,0.5c0.7,0.1,1.1,1-0.1,1.1C82,32.3,79,32.1,78.3,32
		c-0.7-0.1,0.2,0.9,0,1.2c-0.2,0.3-0.6,1.6-2.3,0.5c-1.7-1.1-3.6-2.4-3.9-1.4c-0.3,1-0.8,2.6-1.2,2.6c-0.4,0-1.7,0.1-1.6-0.6
		c0.1-0.6-0.4-1.8-0.5-2.4C68.6,31.4,68.1,29.8,68.1,29.8z"/>
	<path class="st0" d="M72.1,40.9c0.3,0.4,3.9,3.2,4.8,4.2c0.9,1,3,3,1.2,2.3c-1.9-0.6-4.5,0-6.1-1.2c-1.6-1.2-3.5-3.2-3.2-4
		c0.2-0.9,0.7-1.8,1.2-3.2c0.5-1.4,0.5-1.5,1.1-2.1c0.6-0.6,0.8-2,1.6-1.1c0.8,0.9,1.9,1.6,1.5,1.8c-0.4,0.3-1.5,2-1.5,2L72.1,40.9z
		"/>
	<path class="st5" d="M52,45.3c-0.7,0-3.6-1-3.2-1.7c0.4-0.7,1.3-2.7,1.5-3.1c0.2-0.4,1.1-0.7,2.4-1.6c1.3-0.9,1.9-0.5,2.5-0.5
		c0.7,0.1,0.9-0.4,0.5,1.4c-0.4,1.8-1.4,3.3-1.4,3.3L52,45.3z"/>
	<path class="st8" d="M58.9,20.5c-0.2-0.8-0.8-3.2-1.3-4.1c-0.5-0.9-1.1-3.4,0.4-1.8c1.5,1.6,2.9,4.8,3.2,3.8
		c0.2-0.9-0.3-2.5-0.3-3.1c0-0.6,0.5-1.8,1.6-0.8c1.1,1,2.4,2,3.3,3c0.9,1,1.6,1.3,2.5,3.1c0.9,1.8,1.1,2.2,0.7,2.9
		c-0.3,0.7-1.5,2.1-2.7,1.3c-1.3-0.8-2.7-2.1-3.2-2.3C62.6,22.2,58.9,20.5,58.9,20.5z"/>
	<path class="st5" d="M61.6,30.3c-1.4-1.1-2.9-2.3-3.2-3.2c-0.3-0.8,0-1.6,1-0.9c0.9,0.7,2.3,2.8,2.5,2.2c0.2-0.7,0.8-1.7,1.9-1.1
		c1.1,0.6,1.6,3.1,1.8,3.2c0.1,0-0.8,1-1.2,0.7C63.8,30.7,61.6,30.3,61.6,30.3z"/>
	<path class="st5" d="M69.6,28c0,0,6.9-1.9,8.2-2.2c1.3-0.3,5,0.6,3.4,0.8c-1.6,0.2-4.8,1.3-4.8,1.3s4.9,0.1,5.6,0.4
		c0.7,0.2,1.1,1.1,0.9,1.1s-7.3-0.9-8.9-0.8c-1.6,0.1-2.5,0-2.9,0C70.8,28.7,69.6,28,69.6,28z"/>
	<path class="st0" d="M46.5,38.5c-0.9,3.2-3.2,5.7-5.1,5.5c-1.8-0.2-2.6-2.8-1.7-5.9s3.2-5.5,5.1-5.5C46.7,32.7,47.5,35.3,46.5,38.5
		z"/>
	<path class="st9" d="M41.6,38.5c0,0-2.9,0.1-5.4,3.3c-2.5,3.2-3.5,7.7-3.7,10.3c-0.2,2.6,0.6,4.8,1.4,6.7c0.7,1.9,1.9,2.2,3.3,1.9
		c1.3-0.3,7.7-2.4,9.6-8.1c1.7-5.9,2.2-9.2,1-11.1c-1.1-1.8-2.2-4-3.1-4C43.8,37.6,41.6,38.5,41.6,38.5z"/>
	<path class="st10" d="M36.6,25.2c-0.4-0.4-1.7-1.9-3.6-1.7c-2,0.2-5.8,2.1-6.7,3.3C25.4,28,24.6,29.3,25,31c0.4,1.7,1.6,3.3,2.2,4
		c0.6,0.7,3,2.1,3.8,1.7c0.8-0.3,3.8-3.1,4.5-3.9c0.7-0.8,2.6-3.4,2.5-4.5C38.1,27.3,36.6,25.2,36.6,25.2z"/>
	<path class="st4" d="M51.3,30.9c0,0,4.3-2.3,6.1-2.3c1.8,0,6.6,0.9,7.1,2.4c0.5,1.5,1.5,2.9,0.9,4.9c-0.6,2,0.5,2.7-2.1,5.1
		c-2.6,2.3-2.5,5.5-10.7,5.9c-8.2,0.2-9-1.2-9.4-1.5c-0.4-0.3-0.6-3.9-0.3-4.3c0.3-0.5,2.9-3.6,3.5-4.6
		C47.1,35.4,51.3,30.9,51.3,30.9z"/>
	<path class="st11" d="M35.6,37.3c0,0-2.7-5.8-2.9-8.2c-0.2-2.3-0.5-7.1,0.8-9.1c1.3-2.1,3.2-3.9,4.7-4c1.5-0.1,5,2.3,6.1,5.8
		c1.1,3.6,1.8,5.8,1.8,7.2c0,1.4,1.2,4.6-0.6,6.5c-1.8,1.9-3.7,3.7-4.8,3.5C39.6,38.8,35.6,37.3,35.6,37.3z"/>
	<path class="st12" d="M36.8,38.5c0,0-3.1-2.3-4.3-2.5c-1.2-0.3-3.5-0.5-5.4,0.8c-1.9,1.3-4.2,5.9-5.1,7.6c-1,1.6-2.4,4-2.4,4
		s2.6,0.2,4.4,0.5c1.8,0.4,8.1,0.2,9.8-0.4c1.6-0.6,5-3.2,5-4.8c0-1.6-1.5-3-1.5-3L36.8,38.5z"/>
	<path class="st13" d="M40.7,32.8c-0.1-0.3-1.2-2.3-2.6-2.5c-1.4-0.2-2.4-0.1-3.6,1.2c-1.2,1.2-3,3.2-3,3.2s-0.5,0.4,0.2,1.6
		c0.7,1.3,1.7,4.8,2.7,5.2c1,0.5,1.9,0.3,2.9,0.3c1-0.1,2.3-0.6,2.8-1.8c0.4-1.2,0.9-2.4,0.7-3.8C40.6,34.8,40.7,32.8,40.7,32.8z"/>
	<path class="st6" d="M44.8,32.5c0,0,2.1-2.8,4.5-3.8c2.5-1,4.3-1,5.2-0.1c0.8,1,1.2,2.4,1.7,3.2c0.6,0.8,0.5,1.1-0.8,2.7
		c-1.3,1.6-5.5,6-7.1,6c-1.6,0.1-5.1,1.7-5.5,0.4c-0.4-1.3-1-1.8-0.9-2.3c0.1-0.5,0.7-3.2,1.1-3.6C43.4,34.7,44.8,32.5,44.8,32.5z"
		/>
	<path class="st5" d="M39.6,35.7c0,0-1.2-1.4-0.6-2.9c0.7-1.4,2-4.4,3.4-4.7c1.3-0.3,1.7-1.2,2.6,0c0.9,1.3,1.8,2.4,1.5,3.6
		c-0.3,1.1-0.7,2.1-1.2,2.7c-0.5,0.7-0.7,2.2-1.5,1.5c-0.8-0.7-3.1,0.4-3.1,0.4L39.6,35.7z"/>
	<path class="st2" d="M38.5,35.6c0,0,0,0.5,1.1,0c1.1-0.5,1-0.1,2.2-0.3c1.2-0.2,2,0.5,2,0.5s0.5-1.1,1-0.4c0.5,0.7-0.3,1.3-0.8,1.8
		c-0.6,0.5-0.9,0.2-2,1.6c-1.1,1.3-0.8,2.8-1.3,2.5C40,41,39.6,41,39.4,40c-0.2-1-0.7-1.8-0.9-2.4C38.2,37.1,37.4,35.6,38.5,35.6z"
		/>
	<path class="st0" d="M41.7,31.9L40,33.9c0,0-1.5,0.3-0.2-1.4c1.3-1.7,2.1-3.3,3-3.4c0.9-0.1,2.5-0.1,2.6,1.1
		c0.1,1.3-0.1,1.4-0.7,2.2c-0.6,0.9-1.5,1.1-1.3,0.6c0.2-0.5-0.6-1.3-0.6-1.3l-1,3.5L41.7,31.9z"/>
	<path class="st14" d="M43.6,42.4c0,0-2.9,6-3.3,6.9c-0.5,1-2.7,6.3-3,6.9c-0.3,0.6-1.3,0.7-1-0.5c0.3-1.2,1.5-4,1.8-4.6
		c0.3-0.6-0.9-0.1-1.1-0.4c-0.2-0.3-1.3-1.1,0.3-2.3c1.6-1.2,3.4-2.6,2.6-3.2c-0.8-0.6-2.2-1.6-2.1-2.1c0.1-0.4,0.5-1.6,1.1-1.3
		c0.6,0.3,1.9,0.3,2.4,0.3C41.9,42.3,43.6,42.4,43.6,42.4z"/>
	<path class="st0" d="M31.8,42.4c-0.5,0.1-4.3,2.6-5.6,3.1c-1.3,0.5-3.8,1.9-2.6,0.3c1.2-1.5,1.5-4.3,3.2-5.4
		c1.7-1.1,4.2-2.2,4.9-1.7c0.7,0.5,1.5,1.2,2.6,2.2c1.2,1,1.2,1,1.6,1.7c0.3,0.8,1.7,1.4,0.5,1.9c-1.1,0.5-2.1,1.2-2.2,0.8
		c-0.1-0.5-1.4-2.1-1.4-2.1L31.8,42.4z"/>
	<path class="st5" d="M34.5,21.9c0.2-0.7,2.1-3,2.6-2.4c0.5,0.6,2.1,2.2,2.4,2.5c0.3,0.3,0.3,1.2,0.7,2.7c0.4,1.5-0.1,1.9-0.4,2.5
		c-0.3,0.6,0.1,1-1.5,0c-1.6-1-2.7-2.4-2.7-2.4L34.5,21.9z"/>
	<path class="st5" d="M55.4,36.9c0.8,0.1,3.3,0.3,4.3,0.2c1-0.1,3.5,0.1,1.5,1c-2,0.8-5.5,1.1-4.7,1.7c0.8,0.5,2.5,0.5,3.1,0.8
		c0.6,0.3,1.6,1.1,0.2,1.7c-1.3,0.7-2.7,1.5-3.9,2.1c-1.2,0.5-1.7,1.1-3.7,1.3c-2,0.2-2.4,0.3-3-0.3c-0.6-0.6-1.5-2.1-0.3-3
		c1.2-0.9,2.9-1.8,3.3-2.2C52.6,39.7,55.4,36.9,55.4,36.9z"/>
	<path class="st5" d="M45.3,36.1c1.5-0.9,3.2-1.9,4.1-1.9s1.5,0.6,0.5,1.2C49,36,46.5,36.6,47.1,37c0.5,0.4,1.3,1.3,0.4,2.1
		c-0.9,0.8-3.5,0.5-3.6,0.6c-0.1,0.1-0.7-1.1-0.2-1.4C44.1,38,45.3,36.1,45.3,36.1z"/>
	<path class="st5" d="M44.7,44.3c0,0-0.6,7.1-0.7,8.4c-0.2,1.3-2.3,4.5-1.9,2.9c0.3-1.6,0.4-4.9,0.4-4.9s-1.8,4.6-2.3,5.2
		c-0.5,0.6-1.5,0.7-1.3,0.5c0.2-0.2,3.3-6.6,3.7-8.1c0.4-1.5,0.9-2.4,1-2.7C43.7,45.3,44.7,44.3,44.7,44.3z"/>
	<ellipse transform="matrix(0.8732 -0.4874 0.4874 0.8732 -27.5686 38.21)" class="st0" cx="59.6" cy="72.1" rx="3.1" ry="5.5"/>
	<path class="st9" d="M64.9,68.2c0,0,3,0.9,6.3-0.9c3.2-1.8,5-5.4,5.6-7.7c0.6-2.3-0.1-4.8-0.6-6.9c-0.6-2.1-1.8-2.9-3.2-3
		c-1.4-0.2-8.1-0.2-10.7,4.6s-3.7,7.6-2.8,9.5c0.8,1.9,1.5,4,2.4,4.2C62.5,68.2,64.9,68.2,64.9,68.2z"/>
	<path class="st15" d="M71,80.9c0.6,0.2,2.8,0.9,4.3-0.1c1.5-0.9,3.1-4,2.8-5.4c-0.2-1.3-0.6-2.8-2.2-4c-1.6-1.2-3.8-2-4.8-2.3
		c-1-0.3-3.8-0.2-4.2,0.5s-0.7,4.2-0.6,5.1c0.1,0.9,0.4,3.7,1.2,4.4C68.3,80,71,80.9,71,80.9z"/>
	<path class="st16" d="M58.5,81c0,0-1.8,3.4-3.2,4.2s-5.8,2.3-7.1,1.6c-1.3-0.7-3.1-1.1-3.8-2.6c-0.7-1.5-2.1-1.4-1.6-4
		c0.4-2.7-1.6-4.6,4.2-9s7.4-4,7.9-3.9c0.5,0,3.1,2.4,3.2,2.8c0.1,0.5,0.3,3.9,0.5,4.9C58.7,76,58.5,81,58.5,81z"/>
	<path class="st17" d="M69.3,72.9c0,0,4.3,5.3,5,7.4c0.8,2.1,2.2,6.2,1.3,7.9c-0.9,1.7-2.7,3-4.3,2.9c-1.6-0.1-5.9-2.1-7.7-5.1
		c-1.9-2.9-3-4.8-3.3-5.9c-0.2-1.1-2.2-3.7-0.7-5.5c1.4-1.7,2.9-3.4,4-3.2S69.3,72.9,69.3,72.9z"/>
	<path class="st5" d="M60.1,69.7c0,0,1.9-2.7,1.9-3.8c0.1-1.1,0-3.1-1.6-4.9c-1.6-1.7-6.5-3.5-8.2-4.2C50.5,56,48.1,55,48.1,55
		s0.2,2.3,0.1,3.9s0.8,7,1.6,8.3c0.8,1.4,3.7,4.1,5.3,4.1c1.6,0,2.8-1.3,2.8-1.3L60.1,69.7z"/>
	<path class="st18" d="M65.4,74.9c0.3,0.2,2.6,1.2,3.8,0.7c1.3-0.5,1.9-1,1.9-2.5c0-1.5-0.1-3.9-0.1-3.9s0.1-0.5-1.4-1.2
		c-1.5-0.7-4.8-2.8-5.8-2.6c-1.1,0.2-1.7,0.7-2.3,1.3c-0.7,0.6-1.3,1.6-0.8,2.7c0.5,1.1,1,2.1,2.2,3.1
		C64.1,73.4,65.4,74.9,65.4,74.9z"/>
	<path class="st19" d="M62.4,77c0,0,0.4,2.9-0.9,4.7c-1.2,1.7-2.7,2.6-4,2.3c-1.3-0.3-2.5-1.1-3.5-1.4c-1-0.3-1.1-0.5-1.2-2.2
		c-0.1-1.6,0.2-6.5,1.3-7.4c1.1-0.8,2.7-3.7,3.9-3c1.2,0.7,2,0.8,2.3,1.2c0.2,0.4,1.7,2.6,1.7,3.1C62,74.8,62.4,77,62.4,77z"/>
	<path class="st5" d="M64.2,72.3c0,0,2,0.5,2.5,1.9c0.5,1.4,1.6,4.2,0.8,5c-0.8,0.8-0.5,1.6-2.1,1.1c-1.6-0.5-3.2-1-3.7-1.9
		c-0.5-0.9-0.9-1.8-1-2.5c-0.1-0.7-1-1.9,0.1-1.7s2.1-1.8,2.1-1.8L64.2,72.3z"/>
	<path class="st2" d="M65.1,71.8c0,0-0.4-0.4-0.9,0.5c-0.5,0.9-0.8,0.5-1.5,1.3c-0.8,0.7-1.9,0.6-1.9,0.6s0.4,1-0.5,0.7
		c-0.8-0.2-0.7-1-0.6-1.7s0.5-0.6,0.4-2.1c-0.1-1.5-1.4-2.4-0.8-2.5s1-0.3,1.8,0.3c0.9,0.6,1.8,1,2.4,1.3
		C64.2,70.6,65.9,71.3,65.1,71.8z"/>
	<path class="st12" d="M65.3,76.1l-0.2-2.3c0,0,0.9-0.9,1.1,0.9c0.2,1.8,0.7,3.4,0.1,3.8c-0.7,0.5-1.9,1.2-2.9,0.3
		c-1-0.9-0.9-1-1.1-1.9c-0.2-0.9,0.4-1.5,0.6-1.1c0.2,0.4,1.4,0.7,1.4,0.7l-1.7-3L65.3,76.1z"/>
	<path class="st5" d="M63.6,64.3c0,0,3.9-4.3,4.5-5c0.6-0.7,3.6-4.9,4.1-5.4c0.4-0.5,1.4-0.2,1,0.8c-0.4,1-2.1,3.2-2.5,3.6
		s0.9,0.4,1.1,0.7c0.2,0.3,1.2,1.5-0.6,2c-1.8,0.5-4,1.1-3.2,1.9c0.7,0.8,2,2.2,1.8,2.5c-0.2,0.3-0.8,1.2-1.3,0.8
		c-0.5-0.4-1.9-0.8-2.5-1.1C65.3,64.9,63.6,64.3,63.6,64.3z"/>
	<path class="st0" d="M55.5,65.3c-0.2-0.4-3.1-3.6-3.8-4.7c-0.7-1.1-2.3-3.2-0.7-2.2s4.4,1,5.7,2.5c1.3,1.5,2.8,3.7,2.4,4.3
		c-0.4,0.6-1,1.3-1.9,2.3c-0.8,1-0.8,1.1-1.5,1.4c-0.7,0.3-1.2,1.4-1.8,0.5s-1.5-1.8-1-1.9s1.9-1.3,1.9-1.3L55.5,65.3z"/>
	<path class="st5" d="M74.1,86.4c-0.1,0.6-1.7,2.4-2.4,1.8C71,87.7,69,86.3,68.6,86S68,85,67.3,83.7c-0.7-1.3-0.3-1.6-0.1-2.1
		c0.2-0.5-0.3-0.9,1.6,0.1c1.9,0.9,3.4,2.2,3.4,2.2L74.1,86.4z"/>
	<path class="st5" d="M51.3,78.9c-0.6,0.3-2.7,1.4-3.4,1.9s-2.8,1.6-1.8,0.1c1-1.5,3.4-3.3,2.5-3.3c-1,0.1-2.2,0.9-2.8,1
		s-1.9,0.1-1.3-1s1-2.3,1.6-3.2c0.6-0.9,0.6-1.6,1.9-2.7c1.3-1.2,1.6-1.4,2.4-1.3c0.8,0.1,2.5,0.6,2.2,1.8c-0.3,1.2-0.9,2.6-1,3.1
		S51.3,78.9,51.3,78.9z"/>
	<path class="st5" d="M59.6,74.7c-0.5,1.4-1.1,2.8-1.8,3.2c-0.7,0.4-1.5,0.3-1.2-0.6s1.8-2.4,1.1-2.5s-1.9-0.3-1.8-1.3
		s2.3-2,2.3-2.2s1.3,0.4,1.1,0.9C59.1,72.8,59.6,74.7,59.6,74.7z"/>
	<path class="st5" d="M62.8,62.2c0,0,1.7-6.1,2.1-7.3c0.4-1.1,2.9-3.5,2.3-2.1c-0.5,1.4-1.1,4.4-1.1,4.4s2.5-3.7,3-4.1
		c0.5-0.4,1.6-0.2,1.4-0.1c-0.2,0.1-4.3,5-5,6.2c-0.7,1.2-1.3,1.9-1.5,2.1S62.8,62.2,62.8,62.2z"/>
	<ellipse transform="matrix(0.2358 -0.9718 0.9718 0.2358 1.4474 81.9394)" class="st0" cx="52.8" cy="40" rx="3.1" ry="5.5"/>
	<path class="st20" d="M53.5,33.6c0,0,2.7-1.6,3.6-5.2S56.5,21,55.2,19c-1.3-2-3.6-3.2-5.5-4.2c-1.9-1-3.3-0.6-4.4,0.3
		c-1.1,0.9-5.7,5.9-3.9,11s3.1,7.8,5,8.5s3.9,1.6,4.7,1.1C51.9,35.3,53.5,33.6,53.5,33.6z"/>
	<path class="st21" d="M67,37.7c0.6-0.3,2.5-1.4,2.8-3.2c0.3-1.7-0.9-5-2-5.7c-1.1-0.8-2.5-1.4-4.5-1.1s-4,1.4-4.9,2
		s-2.7,2.6-2.5,3.4c0.2,0.7,2.6,3.3,3.3,3.9c0.7,0.6,3,2.2,4.1,2.1C64.5,39,67,37.7,67,37.7z"/>
	<path class="st4" d="M58.5,47c0,0,1.3,3.7,0.9,5.2c-0.4,1.6-2.3,5.8-3.7,6.3s-2.9,1.5-4.5,1s-2.4,0.6-4.1-1.5s-4.4-1.9-3.8-9.2
		c0.7-7.3,2.1-8.1,2.5-8.5c0.4-0.4,3.8-0.7,4.2-0.4c0.4,0.2,3.1,2.4,4,3C55.1,43.4,58.5,47,58.5,47z"/>
	<path class="st22" d="M60,33.5c0,0,6.8,0.5,8.8,1.3c2.1,0.8,6.1,2.6,6.7,4.4c0.6,1.8,0.3,4-0.8,5.1c-1.1,1.1-5.6,2.9-9,2.2
		s-5.6-1-6.6-1.6c-1-0.6-4.2-0.9-4.5-3.2c-0.3-2.2-0.5-4.4,0.4-5.1C56,36,60,33.5,60,33.5z"/>
	<path class="st23" d="M51.4,38.1c0,0-0.7-3.2-1.5-4c-0.7-0.8-2.3-2.1-4.7-2.1c-2.4,0-7,2.4-8.7,3.1c-1.7,0.8-4.1,1.8-4.1,1.8
		s1.8,1.4,3,2.6c1.1,1.2,5.7,4.1,7.2,4.5c1.5,0.4,5.6,0,6.6-1.2s1-2.9,1-2.9L51.4,38.1z"/>
	<path class="st24" d="M58.8,37.7c0.3-0.1,2.6-1.1,3.1-2.3s0.6-2.1-0.5-3.1s-2.9-2.6-2.9-2.6s-0.3-0.4-1.8,0.2s-5.3,1.6-5.9,2.5
		c-0.6,0.9-0.6,1.7-0.6,2.6c0,0.9,0.3,2.1,1.4,2.4c1.1,0.3,2.2,0.7,3.8,0.5S58.8,37.7,58.8,37.7z"/>
	<path class="st6" d="M58.3,41.4c0,0,2.4,1.7,2.8,3.8c0.4,2.1,0,3.7-1.1,4.5c-1.1,0.8-2.5,1.1-3.4,1.7s-1.2,0.5-2.4-0.6
		c-1.2-1.1-4.6-4.6-4.5-6c0.2-1.4-0.9-4.5,0.4-4.9c1.3-0.4,1.9-1,2.4-0.9c0.4,0.1,3.1,0.5,3.5,0.8S58.3,41.4,58.3,41.4z"/>
	<path class="st5" d="M56.1,36.9c0,0,1.7-1.1,3.1-0.6c1.4,0.6,4.2,1.7,4.2,2.8c0,1.2,0.9,1.5-0.6,2.3c-1.5,0.8-2.9,1.7-3.9,1.4
		c-1-0.3-1.9-0.5-2.5-0.9s-2-0.5-1.2-1.3c0.8-0.7,0.1-2.7,0.1-2.7L56.1,36.9z"/>
	<path class="st2" d="M56.3,35.9c0,0-0.5,0-0.2,1c0.3,1-0.1,0.9-0.1,2c0,1.1-0.8,1.8-0.8,1.8s1,0.4,0.2,0.8s-1.2-0.2-1.6-0.7
		c-0.4-0.5-0.1-0.8-1.2-1.7s-2.7-0.6-2.3-1.1c0.4-0.5,0.5-0.9,1.5-1.2c1-0.2,2-0.7,2.6-0.9C54.9,35.7,56.5,34.9,56.3,35.9z"/>
	<path class="st25" d="M59.6,38.6l-1.8-1.4c0,0-0.1-1.3,1.5-0.2c1.5,1.1,3,1.8,2.9,2.6c-0.1,0.8-0.4,2.2-1.7,2.3
		c-1.3,0.2-1.4,0-2.1-0.5c-0.8-0.5-0.8-1.3-0.4-1.1c0.4,0.1,1.4-0.6,1.4-0.6L56,38.8L59.6,38.6z"/>
	<path class="st26" d="M49.8,31.8c0,0-0.5-5.8-0.6-6.7c-0.1-0.9-1.1-6-1.2-6.6c0-0.6,0.8-1.2,1.3-0.2c0.4,1,0.9,3.7,0.9,4.3
		c0,0.6,0.9-0.4,1.3-0.3c0.4,0.1,1.9,0.1,1,1.8s-1.9,3.7-0.8,3.7c1.1,0,3,0,3.1,0.4c0.1,0.4,0.3,1.4-0.4,1.5
		c-0.7,0.1-1.9,0.8-2.5,1.1C51.4,31,49.8,31.8,49.8,31.8z"/>
	<path class="st27" d="M45.1,38.5c-0.4-0.2-4.8-0.2-6-0.4c-1.3-0.2-3.9-0.5-2.1-1s3.7-2.5,5.7-2.5c2,0,4.6,0.4,4.8,1.2
		c0.2,0.7,0.3,1.6,0.4,2.9s0.2,1.3,0,2.1s0.2,1.9-0.9,1.7s-2.3-0.1-2.1-0.5c0.2-0.4,0.4-2.3,0.4-2.3L45.1,38.5z"/>
	<path class="st5" d="M73.1,39.2c0.4,0.4,0.6,2.9-0.3,3c-0.9,0.1-3.3,0.7-3.8,0.8c-0.5,0.1-1.2-0.3-2.6-0.6s-1.4-0.9-1.7-1.4
		c-0.3-0.5-0.9-0.3,1.1-1.1c2-0.8,3.9-1,3.9-1L73.1,39.2z"/>
	<path class="st5" d="M52.2,50.8c-0.2,0.7-0.9,2.9-0.9,3.8c-0.1,0.9-0.7,3.1-1.1,1.4s-0.1-4.8-0.7-4c-0.6,0.7-0.9,2.2-1.2,2.7
		c-0.3,0.5-1.2,1.4-1.6,0.3c-0.4-1.1-1-2.3-1.3-3.3c-0.3-1-0.8-1.5-0.7-3.3c0.1-1.8,0-2.1,0.6-2.7c0.6-0.5,2.1-1.4,2.8-0.4
		s1.3,2.4,1.6,2.8C50,48.5,52.2,50.8,52.2,50.8z"/>
	<path class="st5" d="M54.7,41.9c0.7,1.3,1.3,2.7,1.1,3.5c-0.2,0.8-0.8,1.3-1.3,0.5s-0.6-3-1.1-2.5c-0.5,0.5-1.5,1.2-2.1,0.4
		c-0.6-0.8,0.1-3.1,0-3.2c-0.1-0.1,1.2-0.6,1.4-0.2C52.9,40.9,54.7,41.9,54.7,41.9z"/>
	<path class="st26" d="M47.7,31.1c0,0-3.3-5.4-3.9-6.5c-0.6-1-0.6-4.5,0-3.2c0.6,1.3,2.5,3.8,2.5,3.8s-1-4.3-0.9-5
		c0.1-0.7,1-1.3,0.9-1.1c0,0.2,0.8,6.5,1.2,7.9c0.4,1.3,0.5,2.2,0.6,2.5C48.2,29.9,47.7,31.1,47.7,31.1z"/>
	<ellipse transform="matrix(0.2358 -0.9718 0.9718 0.2358 -19.1937 99.2937)" class="st0" cx="53.5" cy="61.9" rx="3.1" ry="5.5"/>
	<path class="st28" d="M54.2,55.4c0,0,2.7-1.6,3.6-5.2c0.9-3.6-0.6-7.4-1.9-9.3c-1.3-2-3.6-3.2-5.5-4.2c-1.9-1-3.3-0.6-4.4,0.3
		s-5.7,5.9-3.9,11s3.1,7.8,5,8.5s3.9,1.6,4.7,1.1C52.7,57.1,54.2,55.4,54.2,55.4z"/>
	<path class="st2" d="M67.7,59.5c0.6-0.3,2.5-1.4,2.8-3.2c0.3-1.7-0.9-5-2-5.7c-1.1-0.8-2.5-1.4-4.5-1.1c-2,0.3-4,1.4-4.9,2
		c-0.9,0.5-2.7,2.6-2.5,3.4c0.2,0.7,2.6,3.3,3.3,3.9c0.7,0.6,3,2.2,4.1,2.1S67.7,59.5,67.7,59.5z"/>
	<path class="st29" d="M59.3,68.8c0,0,1.3,3.7,0.9,5.2c-0.4,1.6-2.3,5.8-3.7,6.3s-2.9,1.5-4.5,1s-2.4,0.6-4.1-1.5s-4.4-1.9-3.8-9.2
		c0.7-7.3,2.1-8.1,2.5-8.5c0.4-0.4,3.8-0.7,4.2-0.4c0.4,0.2,3.1,2.4,4,3C55.8,65.2,59.3,68.8,59.3,68.8z"/>
	<path class="st30" d="M60.7,55.3c0,0,6.8,0.5,8.8,1.3c2.1,0.8,6.1,2.6,6.7,4.4c0.6,1.8,0.3,4-0.8,5.1c-1.1,1.1-5.6,2.9-9,2.2
		c-3.4-0.6-5.6-1-6.6-1.6s-4.2-0.9-4.5-3.2c-0.3-2.2-0.5-4.4,0.4-5.1C56.7,57.8,60.7,55.3,60.7,55.3z"/>
	<path class="st31" d="M52.1,59.9c0,0-0.7-3.2-1.5-4c-0.7-0.8-2.3-2.1-4.7-2.1c-2.4,0-7,2.4-8.7,3.1c-1.7,0.8-4.1,1.8-4.1,1.8
		s1.8,1.4,3,2.6s5.7,4.1,7.2,4.5c1.5,0.4,5.6,0,6.6-1.2c1-1.2,1-2.9,1-2.9L52.1,59.9z"/>
	<path class="st32" d="M59.5,59.5c0.3-0.1,2.6-1.1,3.1-2.3s0.6-2.1-0.5-3.1s-2.9-2.6-2.9-2.6s-0.3-0.4-1.8,0.2s-5.3,1.6-5.9,2.5
		c-0.6,0.9-0.6,1.7-0.6,2.6c0,0.9,0.3,2.1,1.4,2.4c1.1,0.3,2.2,0.7,3.8,0.5C57.5,59.5,59.5,59.5,59.5,59.5z"/>
	<path class="st16" d="M59,63.2c0,0,2.4,1.7,2.8,3.8c0.4,2.1,0,3.7-1.1,4.5c-1.1,0.8-2.5,1.1-3.4,1.7c-0.9,0.5-1.2,0.5-2.4-0.6
		c-1.2-1.1-4.6-4.6-4.5-6c0.2-1.4-0.9-4.5,0.4-4.9c1.3-0.4,1.9-1,2.4-0.9c0.4,0.1,3.1,0.5,3.5,0.8C57.1,62,59,63.2,59,63.2z"/>
	<path class="st5" d="M56.8,58.7c0,0,1.7-1.1,3.1-0.6s4.2,1.7,4.2,2.8c0,1.2,0.9,1.5-0.6,2.3c-1.5,0.8-2.9,1.7-3.9,1.4
		c-1-0.3-1.9-0.5-2.5-0.9c-0.6-0.4-2-0.5-1.2-1.3c0.8-0.7,0.1-2.7,0.1-2.7L56.8,58.7z"/>
	<path class="st33" d="M57,57.7c0,0-0.5,0-0.2,1c0.3,1-0.1,0.9-0.1,2c0,1.1-0.8,1.8-0.8,1.8s1,0.4,0.2,0.8c-0.7,0.4-1.2-0.2-1.6-0.7
		c-0.4-0.5-0.1-0.8-1.2-1.7c-1.2-1-2.7-0.6-2.3-1.1c0.4-0.5,0.5-0.9,1.5-1.2s2-0.7,2.6-0.9C55.6,57.5,57.2,56.7,57,57.7z"/>
	<path class="st0" d="M60.3,60.4L58.5,59c0,0-0.1-1.3,1.5-0.2s3,1.8,2.9,2.6s-0.4,2.2-1.7,2.3c-1.3,0.2-1.4,0-2.1-0.5
		c-0.8-0.5-0.8-1.3-0.4-1.1c0.4,0.1,1.4-0.6,1.4-0.6l-3.4-0.8L60.3,60.4z"/>
	<path class="st5" d="M50.5,53.6c0,0-0.5-5.8-0.6-6.7c-0.1-0.9-1.1-6-1.2-6.6c0-0.6,0.8-1.2,1.3-0.2c0.4,1,0.9,3.7,0.9,4.3
		c0,0.6,0.9-0.4,1.3-0.3c0.4,0.1,1.9,0.1,1,1.8c-0.9,1.7-1.9,3.7-0.8,3.7c1.1,0,3,0,3.1,0.4s0.3,1.4-0.4,1.5
		c-0.7,0.1-1.9,0.8-2.5,1.1C52.1,52.8,50.5,53.6,50.5,53.6z"/>
	<path class="st0" d="M45.8,60.3c-0.4-0.2-4.8-0.2-6-0.4c-1.3-0.2-3.9-0.5-2.1-1c1.8-0.6,3.7-2.5,5.7-2.5c2,0,4.6,0.4,4.8,1.2
		c0.2,0.7,0.3,1.6,0.4,2.9c0.2,1.3,0.2,1.3,0,2.1c-0.3,0.8,0.2,1.9-0.9,1.7s-2.3-0.1-2.1-0.5c0.2-0.4,0.4-2.3,0.4-2.3L45.8,60.3z"/>
	<path class="st34" d="M73.9,61c0.4,0.4,0.6,2.9-0.3,3c-0.9,0.1-3.3,0.7-3.8,0.8c-0.5,0.1-1.2-0.3-2.6-0.6c-1.4-0.3-1.4-0.9-1.7-1.4
		c-0.3-0.5-0.9-0.3,1.1-1.1c2-0.8,3.9-1,3.9-1L73.9,61z"/>
	<path class="st35" d="M52.9,72.6c-0.2,0.7-0.9,2.9-0.9,3.8c-0.1,0.9-0.7,3.1-1.1,1.4s-0.1-4.8-0.7-4s-0.9,2.2-1.2,2.7
		c-0.3,0.5-1.2,1.4-1.6,0.3s-1-2.3-1.3-3.3c-0.3-1-0.8-1.5-0.7-3.3c0.1-1.8,0-2.1,0.6-2.7c0.6-0.5,2.1-1.4,2.8-0.4s1.3,2.4,1.6,2.8
		C50.7,70.3,52.9,72.6,52.9,72.6z"/>
	<path class="st5" d="M55.4,63.7c0.7,1.3,1.3,2.7,1.1,3.5c-0.2,0.8-0.8,1.3-1.3,0.5s-0.6-3-1.1-2.5c-0.5,0.5-1.5,1.2-2.1,0.4
		c-0.6-0.8,0.1-3.1,0-3.2c-0.1-0.1,1.2-0.6,1.4-0.2C53.6,62.7,55.4,63.7,55.4,63.7z"/>
	<path class="st5" d="M48.5,52.9c0,0-3.3-5.4-3.9-6.5c-0.6-1-0.6-4.5,0-3.2c0.6,1.3,2.5,3.8,2.5,3.8s-1-4.3-0.9-5s1-1.3,0.9-1.1
		c0,0.2,0.8,6.5,1.2,7.9s0.5,2.2,0.6,2.5C48.9,51.7,48.5,52.9,48.5,52.9z"/>
	<ellipse transform="matrix(0.386 -0.9225 0.9225 0.386 0.7214 106.3283)" class="st0" cx="80.2" cy="52.6" rx="3.1" ry="5.5"/>
	<path class="st9" d="M78.5,58.9c0,0-3,1.2-4.4,4.5c-1.4,3.4-0.6,7.4,0.4,9.5c1,2.2,3,3.7,4.7,5c1.7,1.3,3.2,1.1,4.4,0.4
		c1.2-0.7,6.5-4.9,5.6-10.3c-0.9-5.4-1.8-8.2-3.6-9.2c-1.8-1-3.6-2.2-4.5-1.9C80.4,57.4,78.5,58.9,78.5,58.9z"/>
	<path class="st36" d="M65.9,52.7c-0.6,0.3-2.7,1-3.3,2.7s0.1,5,1.1,6c1,0.9,2.2,1.8,4.2,1.8c2,0,4.2-0.8,5.2-1.2
		c1-0.4,3.1-2.2,3-2.9s-2-3.7-2.6-4.4c-0.6-0.7-2.6-2.6-3.7-2.7C68.5,51.8,65.9,52.7,65.9,52.7z"/>
	<path class="st37" d="M75.7,44.9c0,0-0.7-3.8-0.1-5.3c0.6-1.5,3.1-5.4,4.6-5.6c1.5-0.2,3.1-1,4.6-0.3c1.5,0.7,2.5-0.2,3.8,2.2
		c1.3,2.4,4.1,2.6,2.3,9.7s-3.4,7.7-3.8,8s-3.9,0-4.3-0.3c-0.4-0.3-2.7-2.9-3.5-3.6C78.6,48.9,75.7,44.9,75.7,44.9z"/>
	<path class="st38" d="M72.1,57.9c0,0-6.6-1.5-8.5-2.7c-1.9-1.2-5.6-3.5-5.9-5.4c-0.3-1.9,0.3-4,1.6-4.9c1.3-0.9,5.9-1.9,9.2-0.8
		c3.3,1.1,5.3,1.9,6.2,2.6c0.9,0.7,4,1.6,4,3.8c0,2.2-0.2,4.4-1.2,5C76.5,56.1,72.1,57.9,72.1,57.9z"/>
	<path class="st5" d="M81.4,54.8c0,0,0.2,3.3,0.8,4.2c0.6,0.9,2,2.4,4.3,2.8s7.3-1.2,9.1-1.7c1.8-0.5,4.4-1.2,4.4-1.2
		s-1.6-1.7-2.5-3c-0.9-1.3-5-5-6.4-5.6s-5.5-0.9-6.7,0.1c-1.2,1-1.4,2.7-1.4,2.7L81.4,54.8z"/>
	<path class="st6" d="M74,54c-0.3,0-2.8,0.7-3.4,1.8s-0.9,1.9,0,3.1c0.9,1.2,2.5,3,2.5,3s0.2,0.5,1.8,0.1c1.6-0.4,5.5-0.7,6.2-1.5
		c0.7-0.8,0.8-1.6,1-2.5s0.1-2.1-1-2.6c-1.1-0.5-2.1-1-3.6-1.1C75.9,54.3,74,54,74,54z"/>
	<path class="st39" d="M75,50.4c0,0-2.1-2.1-2.2-4.2c-0.1-2.1,0.6-3.7,1.8-4.3c1.2-0.6,2.7-0.7,3.6-1.1s1.2-0.3,2.3,1
		c1.1,1.2,3.9,5.2,3.5,6.6c-0.4,1.4,0.2,4.6-1.2,4.7s-2.1,0.7-2.5,0.5c-0.4-0.2-3-1-3.3-1.4C76.7,51.9,75,50.4,75,50.4z"/>
	<path class="st5" d="M76.5,55.2c0,0-1.9,0.8-3.1,0.1c-1.3-0.8-3.9-2.3-3.7-3.5c0.2-1.1-0.6-1.6,1-2.2c1.6-0.6,3.1-1.2,4.1-0.8
		c1,0.4,1.8,0.8,2.3,1.3s1.9,0.9,1,1.4c-0.9,0.6-0.5,2.7-0.5,2.7L76.5,55.2z"/>
	<path class="st2" d="M76.1,56.2c0,0,0.5,0.1,0.4-0.9s0.3-0.9,0.4-1.9c0.1-1,1.1-1.6,1.1-1.6s-0.9-0.6-0.1-0.9
		c0.8-0.3,1.2,0.4,1.5,0.9c0.3,0.6-0.1,0.8,1,1.9c1,1.1,2.6,1,2.1,1.5C82,55.6,81.9,56,80.8,56c-1,0.1-2,0.4-2.7,0.5
		S75.8,57.1,76.1,56.2z"/>
	<path class="st0" d="M73.3,53l1.6,1.7c0,0-0.1,1.3-1.5,0s-2.7-2.2-2.4-3s0.7-2.1,2.1-2c1.3,0.1,1.3,0.2,2,0.8
		c0.7,0.6,0.6,1.4,0.2,1.2c-0.4-0.2-1.5,0.4-1.5,0.4l3.2,1.3L73.3,53z"/>
	<path class="st5" d="M81.9,61.2c0,0-0.4,5.8-0.5,6.7c0,0.9,0.2,6.1,0.1,6.7s-1,1-1.3,0C80,73.6,80,70.9,80,70.3s-1,0.2-1.3,0.1
		c-0.3-0.1-1.9-0.4-0.7-2c1.1-1.6,2.4-3.3,1.4-3.5c-1.1-0.2-2.9-0.5-3-0.9c0-0.4-0.1-1.4,0.6-1.4c0.7,0,2-0.5,2.6-0.7
		C80.2,61.8,81.9,61.2,81.9,61.2z"/>
	<path class="st40" d="M87.7,55.4c0.4,0.2,4.7,0.9,5.9,1.4c1.2,0.4,3.8,1.1,1.9,1.3c-1.9,0.3-4.1,1.9-6,1.6s-4.5-1.2-4.6-1.9
		c-0.1-0.8,0-1.7,0-3c0-1.3,0-1.3,0.4-2s0.1-1.9,1.1-1.5c1.1,0.4,2.2,0.5,2,0.8c-0.3,0.4-0.7,2.2-0.7,2.2L87.7,55.4z"/>
	<path class="st5" d="M60,50.2c-0.3-0.5-0.2-2.9,0.7-2.9c0.9,0,3.3-0.1,3.8-0.2c0.5,0,1.1,0.5,2.5,1c1.4,0.5,1.2,1.1,1.4,1.6
		c0.2,0.5,0.8,0.5-1.3,0.9c-2.1,0.4-4,0.4-4,0.4L60,50.2z"/>
	<path class="st5" d="M82.6,42.1c0.3-0.6,1.3-2.8,1.5-3.6s1.2-3,1.3-1.2s-0.6,4.7,0.1,4.1c0.7-0.6,1.2-2,1.6-2.5
		c0.4-0.5,1.4-1.2,1.6-0.1c0.2,1.2,0.6,2.4,0.7,3.5s0.5,1.6,0.2,3.3c-0.3,1.8-0.4,2.1-1.1,2.5c-0.7,0.4-2.3,1.1-2.9,0
		c-0.5-1.1-0.9-2.6-1.1-3C84.4,44.8,82.6,42.1,82.6,42.1z"/>
	<path class="st5" d="M78.7,50.5c-0.4-1.4-0.9-2.9-0.6-3.6c0.3-0.7,1-1.2,1.3-0.3c0.3,0.9,0.1,3,0.7,2.6s1.7-1,2.2-0.1
		c0.5,0.9-0.6,3-0.5,3.1c0.1,0.1-1.3,0.5-1.4,0C80.3,51.7,78.7,50.5,78.7,50.5z"/>
	<path class="st5" d="M83.8,62.3c0,0,2.5,5.9,2.9,7c0.4,1.1-0.1,4.5-0.5,3.1c-0.4-1.4-1.9-4.1-1.9-4.1s0.3,4.4,0.1,5.1
		c-0.2,0.7-1.2,1.1-1.1,0.9s0.3-6.6,0.1-8c-0.2-1.4-0.2-2.2-0.2-2.6C83.2,63.4,83.8,62.3,83.8,62.3z"/>
	<ellipse transform="matrix(0.4813 -0.8766 0.8766 0.4813 3.7141 62.7029)" class="st0" cx="54.8" cy="28.2" rx="4.7" ry="2.6"/>
	<path class="st9" d="M60.1,30.2c0,0,0.7,2.6,3.5,4.2c2.8,1.5,6.2,1.2,8.2,0.5s3.5-2.2,4.7-3.6c1.3-1.4,1.3-2.6,0.7-3.7
		c-0.5-1.1-3.6-6-8.3-5.7c-4.7,0.3-7.2,0.8-8.2,2.2c-1,1.4-2.2,2.9-2,3.7C59,28.5,60.1,30.2,60.1,30.2z"/>
	<path class="st41" d="M53.6,40.5c0.2,0.5,0.6,2.4,2,3.1s4.3,0.4,5.2-0.4c0.9-0.8,1.7-1.7,1.9-3.5c0.2-1.7-0.3-3.7-0.5-4.5
		c-0.3-0.9-1.6-2.8-2.2-2.8c-0.7,0-3.3,1.4-4,1.9s-2.5,2-2.7,2.9S53.6,40.5,53.6,40.5z"/>
	<path class="st37" d="M47.8,31.4c0,0-3.3,0.2-4.6-0.4s-4.3-3.2-4.4-4.5c-0.1-1.3-0.6-2.8,0.1-4c0.7-1.2,0.1-2.1,2.2-3
		c2.1-0.9,2.6-3.3,8.5-1.1s6.2,3.6,6.5,4c0.2,0.4-0.3,3.3-0.6,3.6c-0.3,0.3-2.7,2-3.4,2.6C51.5,29.3,47.8,31.4,47.8,31.4z"/>
	<path class="st38" d="M58.6,35.6c0,0-1.9,5.5-3.1,7c-1.2,1.5-3.5,4.4-5.2,4.5c-1.6,0.1-3.4-0.6-4.1-1.8c-0.7-1.2-1.1-5.3,0.2-7.9
		c1.3-2.7,2.1-4.4,2.8-5.1c0.7-0.7,1.7-3.3,3.6-3c1.9,0.2,3.8,0.5,4.2,1.5C57.5,31.8,58.6,35.6,58.6,35.6z"/>
	<path class="st5" d="M56.8,27.5c0,0,2.8,0.1,3.7-0.3c0.8-0.4,2.3-1.5,2.8-3.4s-0.4-6.3-0.7-7.9S62,12,62,12s-1.6,1.2-2.8,1.9
		c-1.2,0.7-4.7,3.8-5.4,5c-0.6,1.2-1.3,4.6-0.5,5.7s2.2,1.5,2.2,1.5L56.8,27.5z"/>
	<path class="st6" d="M55.4,33.7c0,0.3,0.3,2.4,1.2,3.1c0.9,0.7,1.6,1,2.7,0.3s2.8-1.8,2.8-1.8s0.4-0.2,0.3-1.5
		c-0.2-1.4-0.1-4.8-0.7-5.5s-1.3-0.9-2-1.1c-0.7-0.2-1.8-0.3-2.3,0.6c-0.5,0.9-1.1,1.7-1.3,3C55.9,32.1,55.4,33.7,55.4,33.7z"/>
	<path class="st39" d="M52.5,32.5c0,0-2,1.6-3.8,1.5c-1.8-0.1-3.1-0.8-3.5-1.9c-0.4-1.1-0.4-2.4-0.6-3.2c-0.2-0.9-0.1-1.1,1-1.9
		c1.2-0.8,4.8-2.8,6-2.4s3.9,0.3,3.9,1.4c0,1.2,0.4,1.8,0.2,2.2c-0.2,0.3-1.1,2.4-1.5,2.7C53.9,31.2,52.5,32.5,52.5,32.5z"/>
	<path class="st5" d="M56.7,31.6c0,0,0.6,1.7-0.2,2.7c-0.8,1-2.3,3.1-3.3,2.9c-1-0.3-1.4,0.4-1.8-1c-0.4-1.4-0.7-2.8-0.3-3.6
		s0.9-1.5,1.3-1.8c0.5-0.4,0.9-1.6,1.3-0.7c0.4,0.9,2.2,0.7,2.2,0.7L56.7,31.6z"/>
	<path class="st2" d="M57.5,32c0,0,0.1-0.4-0.8-0.4c-0.9,0-0.7-0.3-1.6-0.5S53.8,30,53.8,30s-0.6,0.7-0.8,0c-0.2-0.7,0.4-1,0.9-1.2
		c0.5-0.2,0.6,0.1,1.7-0.6c1.1-0.8,1.1-2.1,1.4-1.7c0.4,0.4,0.7,0.6,0.6,1.5c0,0.9,0.1,1.8,0.2,2.3C58,30.9,58.2,32.4,57.5,32z"/>
	<path class="st0" d="M54.5,34.2l1.6-1.2c0,0,1.1,0.2-0.2,1.3c-1.2,1-2.1,2.1-2.8,1.8c-0.6-0.3-1.7-0.8-1.5-1.9
		c0.2-1.1,0.3-1.1,0.9-1.6c0.6-0.5,1.2-0.4,1-0.1c-0.2,0.3,0.2,1.3,0.2,1.3l1.4-2.6L54.5,34.2z"/>
	<path class="st5" d="M62.3,27.5c0,0,4.9,0.9,5.7,1c0.8,0.1,5.2,0.4,5.8,0.5c0.5,0.1,0.8,1-0.1,1.1c-0.9,0.1-3.2-0.1-3.8-0.2
		c-0.5-0.1,0.1,0.9,0,1.1c-0.2,0.3-0.5,1.6-1.8,0.5c-1.2-1.1-2.6-2.4-2.9-1.5c-0.2,0.9-0.7,2.4-1,2.4c-0.3,0-1.2,0-1.2-0.6
		c0.1-0.6-0.2-1.7-0.3-2.3C62.7,29.1,62.3,27.5,62.3,27.5z"/>
	<path class="st40" d="M57.9,22.1c0.2-0.3,1.2-3.9,1.7-4.9c0.5-1,1.3-3.2,1.3-1.5s1.2,3.6,0.8,5.3c-0.4,1.6-1.4,3.7-2,3.7
		c-0.7,0-1.4-0.2-2.5-0.3c-1.1-0.1-1.1-0.1-1.7-0.5c-0.6-0.4-1.6-0.2-1.2-1.1c0.4-0.9,0.6-1.9,0.9-1.6C55.5,21.5,57,22,57,22
		L57.9,22.1z"/>
	<path class="st5" d="M51,45.3c-0.4,0.2-2.5-0.1-2.4-0.9c0.1-0.8,0.2-2.9,0.2-3.3c0-0.4,0.5-0.9,1.1-2c0.6-1.1,1-1,1.5-1.1
		c0.4-0.1,0.5-0.6,0.7,1.2c0.2,1.8,0,3.5,0,3.5L51,45.3z"/>
	<path class="st5" d="M46,25.3c-0.5-0.3-2.2-1.4-3-1.6c-0.7-0.2-2.4-1.3-0.9-1.3c1.5,0.1,4,1,3.5,0.3c-0.5-0.7-1.6-1.2-2-1.6
		s-0.9-1.3,0.1-1.4c1-0.1,2.1-0.3,3.1-0.3c0.9,0,1.4-0.3,2.9,0.2s1.8,0.5,2.1,1.1s0.7,2.1-0.3,2.4c-1,0.4-2.3,0.5-2.7,0.7
		S46,25.3,46,25.3z"/>
	<path class="st5" d="M52.9,29.3c-1.2,0.3-2.6,0.5-3.2,0.1c-0.6-0.3-0.9-1-0.1-1.2c0.8-0.2,2.6,0.2,2.3-0.3
		c-0.3-0.5-0.7-1.5,0.1-1.9c0.8-0.3,2.5,0.8,2.6,0.7s0.3,1.1-0.1,1.2S52.9,29.3,52.9,29.3z"/>
	<path class="st5" d="M63.4,26c0,0,5.3-1.6,6.3-1.8c1-0.3,3.9,0.5,2.6,0.7c-1.2,0.2-3.7,1.3-3.7,1.3s3.8,0.1,4.3,0.3s0.8,1.1,0.7,1
		s-5.6-0.8-6.8-0.8s-1.9-0.1-2.2-0.1S63.4,26,63.4,26z"/>
	
		<ellipse transform="matrix(0.9989 -4.677621e-02 4.677621e-02 0.9989 -2.641 1.5038)" class="st0" cx="30.8" cy="57.2" rx="5.5" ry="4.2"/>
	<path class="st9" d="M32.1,66c0,0-2.1,3.1-1.9,8.2c0.2,5,2.7,9.5,4.6,11.6c1.8,2.1,4.4,2.9,6.5,3.5c2.1,0.6,3.4-0.4,4.1-2
		c0.8-1.6,3.7-9.8,0.4-16c-3.2-6.2-5.3-9.2-7.3-9.4c-2-0.2-4.3-0.7-4.8,0.2S32.1,66,32.1,66z"/>
	<path class="st2" d="M18,65.5c-0.4,0.7-2,2.8-1.8,5.2c0.2,2.4,2.3,6.2,3.6,6.8c1.3,0.6,2.8,1,4.6-0.2c1.8-1.2,3.4-3.4,4.1-4.4
		c0.7-1,1.8-4.5,1.4-5.4s-3.5-3.4-4.3-3.9s-3.5-1.8-4.6-1.3C19.9,62.8,18,65.5,18,65.5z"/>
	<path class="st42" d="M23.3,50.2c0,0-2.3-4.4-2.4-6.6c-0.1-2.2,0.4-8.5,1.7-9.6s2.3-3,4-3c1.7,0,2.1-1.7,4.3,0.5s4.8,0.9,6.3,10.7
		s0.4,11.4,0.2,12.1c-0.2,0.7-3.5,2.3-3.9,2.1c-0.5-0.2-3.7-2-4.7-2.4C27.7,53.5,23.3,50.2,23.3,50.2z"/>
	<path class="st4" d="M25.9,68.4c0,0-6.6,1.9-8.8,1.5s-6.6-1.2-7.7-3.4c-1.1-2.2-1.5-5.2-0.8-7c0.7-1.9,4.5-5.8,7.9-6.2
		s5.6-0.7,6.7-0.3c1.1,0.4,4.3-0.3,5.3,2.5c1,2.8,1.8,5.6,1.1,6.9C29,63.7,25.9,68.4,25.9,68.4z"/>
	<path class="st5" d="M32.8,59.3c0,0,1.7,4,2.6,4.7c1,0.8,2.8,1.9,5.1,1.1s6-5.7,7.4-7.3c1.4-1.6,3.4-3.9,3.4-3.9s-2.2-1.2-3.6-2.3
		c-1.4-1.1-6.7-3.3-8.2-3.3s-5.3,2-6,3.9c-0.6,2-0.1,4.2-0.1,4.2L32.8,59.3z"/>
	<path class="st6" d="M25.8,62.4c-0.3,0.2-2.2,2.4-2.3,4.2s0,2.9,1.4,3.9c1.4,0.9,3.5,2.3,3.5,2.3s0.4,0.4,1.7-0.9
		c1.2-1.3,4.6-4.1,4.9-5.5s0-2.5-0.2-3.7c-0.2-1.2-0.9-2.6-2-2.7c-1.2,0-2.3-0.1-3.7,0.7C27.7,61.7,25.8,62.4,25.8,62.4z"/>
	<path class="st6" d="M25.2,57.4c0,0-2.8-1.4-3.9-4c-1-2.6-1.1-4.9-0.3-6.3c0.9-1.4,2.1-2.4,2.8-3.4s1-1.1,2.5-0.1
		c1.5,0.9,5.8,4.3,6.1,6.2c0.3,1.9,2.2,5.6,1,6.6c-1.1,1-1.6,2-2,2c-0.5,0-3.1,0.4-3.6,0.2C27.3,58.3,25.2,57.4,25.2,57.4z"/>
	<path class="st5" d="M28.6,62.6c0,0-1.3,2.1-2.8,1.9c-1.5-0.2-4.5-0.6-4.9-2.2c-0.3-1.5-1.3-1.6-0.1-3.2c1.2-1.6,2.2-3.3,3.3-3.3
		s2,0,2.6,0.3c0.7,0.3,2.1,0,1.5,1.2s0.7,3.6,0.7,3.6L28.6,62.6z"/>
	<path class="st2" d="M28.7,63.9c0,0,0.5-0.2-0.1-1.3s-0.2-1.2-0.5-2.6c-0.3-1.4,0.2-2.7,0.2-2.7s-1.1-0.2-0.5-1s1.2-0.2,1.8,0.3
		s0.3,1,1.7,1.8c1.4,0.9,2.7-0.2,2.6,0.6c-0.2,0.8-0.2,1.4-1.1,2.1c-0.9,0.7-1.7,1.6-2.2,2.1C30.2,63.7,28.8,65.3,28.7,63.9z"/>
	<path class="st43" d="M24.8,61.6l2.1,1.2c0,0,0.4,1.7-1.3,0.8c-1.8-0.9-3.4-1.2-3.5-2.3c-0.1-1.1-0.3-3,0.9-3.7
		c1.2-0.7,1.3-0.5,2.2-0.1c0.9,0.4,1.2,1.4,0.7,1.3c-0.5,0-1.2,1.3-1.2,1.3l3.5-0.2L24.8,61.6z"/>
	<path class="st44" d="M36.2,66.9c0,0,2.2,7.5,2.6,8.7c0.4,1.2,2.9,7.5,3.1,8.3c0.2,0.8-0.5,1.9-1.2,0.7s-2-4.5-2.2-5.3
		c-0.2-0.8-0.8,0.9-1.2,0.9s-1.9,0.5-1.5-2s0.7-5.5-0.3-5.1s-2.8,1-3,0.6c-0.2-0.4-0.7-1.7-0.1-2.1c0.6-0.4,1.6-1.7,2-2.3
		C34.9,68.6,36.2,66.9,36.2,66.9z"/>
	<path class="st45" d="M38.7,56.4c0.5,0.1,4.6-1.5,5.9-1.7c1.3-0.2,3.9-0.8,2.3,0.6c-1.6,1.4-2.8,4.7-4.7,5.4
		c-1.9,0.7-4.5,1.1-4.9,0.2c-0.4-0.9-0.7-2.1-1.3-3.7s-0.6-1.6-0.6-2.7c0-1.1-0.8-2.4,0.3-2.5c1.1-0.1,2.2-0.7,2.1-0.1
		c-0.1,0.6,0.3,3.1,0.3,3.1L38.7,56.4z"/>
	<path class="st5" d="M11.6,65.8c-0.5-0.4-1.4-3.5-0.6-4s2.9-2.1,3.4-2.4s1.2,0,2.7-0.1c1.5-0.1,1.6,0.7,2,1.2s0.9,0.1-0.7,1.9
		C16.6,64,14.8,65,14.8,65L11.6,65.8z"/>
	<path class="st5" d="M28.2,42.8c0-1,0-4.2-0.3-5.4c-0.2-1.2-0.2-4.4,0.7-2.2c0.9,2.2,1.5,6.3,1.9,5c0.4-1.2,0.2-3.2,0.3-4
		c0.1-0.8,0.7-2.3,1.4-1c0.7,1.3,1.6,2.7,2.2,3.9c0.6,1.3,1.2,1.7,1.6,4s0.6,2.8,0.2,3.8c-0.4,0.9-1.6,2.6-2.6,1.6s-2-2.8-2.3-3.1
		C31,45,28.2,42.8,28.2,42.8z"/>
	<path class="st5" d="M28.5,55.4c-1-1.5-2.1-3.1-2.1-4.2c-0.1-1.1,0.4-2,1.1-1.1c0.7,0.9,1.4,3.7,1.8,2.9c0.3-0.8,1.1-2.2,1.9-1.4
		c0.8,0.8,0.8,4.1,1,4.2c0.1,0.1-0.9,1.3-1.3,0.8C30.4,56.1,28.5,55.4,28.5,55.4z"/>
	<path class="st44" d="M38.3,67.2c0,0,4.8,5.9,5.7,7.1c0.9,1.2,1.9,5.7,0.9,4.2c-1-1.5-3.6-4.1-3.6-4.1s2.2,5.3,2.4,6.2
		c0.1,0.9-0.5,2-0.6,1.8c0-0.3-2.7-8.3-3.5-9.9c-0.8-1.6-1.1-2.7-1.3-3.1C38.3,68.9,38.3,67.2,38.3,67.2z"/>
</g>
</svg>
