<svg xmlns="http://www.w3.org/2000/svg" version="1.1" xmlns:xlink="http://www.w3.org/1999/xlink" xmlns:svgjs="http://svgjs.dev/svgjs" viewBox="0 0 108 108" style="" x="0" y="0"><style type="text/css">
	.st0{fill:#93A157;}
	.st1{fill:#ABB578;}
	.st2{display:none;}
	.st3{display:inline;fill:none;}
	.st4{fill:#928F66;}
	.st5{fill:#CCC5D5;}
	.st6{fill:#DFD3DB;}
	.st7{fill:#ECDFE0;}
	.st8{fill:#E9E4E7;}
	.st9{fill:#A74D92;}
	.st10{fill:#9F327D;}
	.st11{fill:#B4307C;}
	.st12{fill:#922C73;}
	.st13{fill:#B4B6BA;}
	.st14{opacity:0.39;fill:#A5999D;}
	.st15{fill:#BF2E7C;}
</style><g><path class="st0" d="M54.4,54.5c0.2,0.1,0.6,1.4,1.8,1.7c0.6,0.2,1.5-0.7,2.3-0.6c0.7,0.1,1.3,1.2,2.1,1.3c0.7,0,1.4-1,2.2-1.1
	c0.7-0.1,1.6,0.9,2.3,0.7c1.3-0.3,2.3-1.7,3.6-2.1c1.2-0.5,2.9-0.1,4.1-0.8c1.1-0.6,1.7-2.2,2.8-3.1c1-0.8,2.7-0.8,3.8-1.8
	c0.9-0.9,1.2-2.5,2.1-3.6c1-1.1,2.8-1.8,3.8-3.3c0.9-1.4,0.7-3.3,1.5-4.8c0.7-1.5,2.4-2.6,3-4c0.7-1.7,0.3-3.6,0.8-5
	c1-2.8,2.1-2,2.5-4.4C79.5,38.8,63.3,48.6,54.1,54.5C54.3,54.4,54.4,54.4,54.4,54.5z"></path><path class="st1" d="M88.8,25.2c-1,0.3-2.6-0.2-4.2,0.4c-1.1,0.4-2,1.8-3.5,2.3c-1.2,0.4-2.8-0.1-4.2,0.4c-1.2,0.4-2.1,1.9-3.5,2.4
	c-2.1,0.7-4.3,0.5-6,1.3c-2,0.9-3.3,2.8-4.8,3.8c-1.9,1.3-4.1,1.7-5.3,3c-1.6,1.7-1.7,4-2.2,5.6c-0.7,2.1-1.8,4-1.7,5.8
	c0,0.5,1,0.4,1,1c0,0.3-1.1,0.6-1.1,0.9c0,0.3,1,0.7,1,1c0,0.3-1,0.7-1,1c0,0.3,0.4,0.4,0.7,0.4c9.2-5.8,25.3-15.7,38.8-30.9
	C93.3,21.6,92.4,24,88.8,25.2z"></path><path class="st1" d="M55.4,59.5c-0.1-0.2,0.2-1.5-0.5-2.4c-0.4-0.5-1.6-0.3-2.2-0.8c-0.5-0.4-0.4-1.7-1-2.2
	c-0.6-0.4-1.7,0.2-2.4-0.1c-0.6-0.3-0.9-1.5-1.7-1.7c-1.3-0.3-2.9,0.5-4.2,0.5c-1.3,0-2.7-0.9-4.1-0.6c-1.3,0.3-2.5,1.8-3.9,2.4
	c-1.2,0.6-2.9,0.3-4.2,1.3c-1.2,0.8-1.9,2.6-3,3.7c-1.3,1.1-3.1,1.9-4.3,3.6c-1,1.6-1.2,3.7-2,5.5c-0.8,1.7-2.4,3.2-2.9,5
	c-0.7,2-0.3,4.1-0.6,5.7c-0.7,3.3-1.7,2.8-1.8,5.5c9.6-21.8,29.4-26.7,39.1-25.2C55.5,59.6,55.4,59.6,55.4,59.5z"></path><path class="st0" d="M19.8,81.9c0.8-0.6,2.2-0.3,3.4-1.2c0.9-0.6,1.6-2.2,2.9-2.8c1-0.5,2.3,0,3.4-0.5c1-0.4,1.8-1.8,3-2.2
	c1.8-0.6,3.5,0,4.9-0.4c1.7-0.5,3-2,4.4-2.4c1.8-0.6,3.5-0.2,4.7-0.9c1.7-0.9,2.5-2.8,3.6-4c1.4-1.5,3-2.5,3.8-4
	c0.2-0.4-0.6-0.9-0.3-1.4c0.2-0.2,1.1,0.1,1.3-0.2c0.2-0.3-0.4-1.1-0.3-1.4c0.2-0.3,1.2,0,1.3-0.2c0.2-0.3-0.1-0.5-0.3-0.7
	c-9.7-1.4-29.4,3.4-39.1,25.2C16.4,87.2,16.8,84.1,19.8,81.9z"></path><g>
	<path class="st4" d="M42.3,32.1c4.8,7.3,10.1,15.2,14.1,23c2.4,4.8,4.9,10,5,15.5c0,0,0.1,2.2,0.1,2.2c0.5,8.8,1.4,18.1,1.4,27
		c0,0-5-0.2-5-0.2c0.3-5.8,0.1-11.8,0-17.7l-0.2-9c0-2.9,0.1-5.6-0.9-8.4c-3.6-11-10.3-21.4-16.3-31.4
		C40.4,33.2,42.3,32.1,42.3,32.1L42.3,32.1z"></path>
</g><path class="st5" d="M59.4,69.2c1-1.6,1-1.7,1.2-2.7c0.2-1-0.9-2.2,0.9-2.1c1.7,0.1,2.3-0.3,3.8,1.3c1.5,1.6,2.5,2.2,1.1,3.3
	c-1.4,1.1-3.5,1.2-3.9,1.1C62.1,70.1,59.4,69.2,59.4,69.2z"></path><path class="st5" d="M65.3,67.3c-2.2,0.1-4.1,0.6-6,0s-5.9-1.8-9.5-1.6c-3.6,0.2-4.9-0.6-5.5,2.2c-0.6,2.8-1,0.4-0.7,3.7
	c0.3,3.3-1.2,1.6,0.1,5c1.3,3.4,0.4,3.4,1.9,5.4s2.4,3.1,4,3.6c1.6,0.5,3.4,2.3,5.6-0.1c2.2-2.3,3.3-2.1,4.5-6.4
	c1.2-4.2,1.1-5.5,1.9-7c0.9-1.5,1.2-1.9,1.9-2.3c0.7-0.5,1.1-0.8,1.6-1.3C65.5,68.2,65.3,67.3,65.3,67.3z"></path><path class="st6" d="M65.7,70c-1.5,2-4.2,4.3-6.2,7.9s-2.6,4.2-3,7.9c-0.3,3.8-1.5,4.6,0.6,5.8c2.1,1.3,3.9,1.7,7.1,1.7
	c3.2-0.1,11.8-0.2,12.4-1.8c0.5-1.6,0.9-2,0.6-3.6c-0.3-1.6-1.9-9.1-2.8-11.1c-0.9-2-2.8-4.7-3.4-5.4c-0.6-0.6-1.3-1.9-1.9-1.9
	C68.4,69.5,65.7,70,65.7,70z"></path><path class="st7" d="M65.1,69.3c0,0-1.1-2.9-3-3.1s-2.6-0.3-4.1,0.2c-1.5,0.6-5.8,1.8-8.2,1c-2.4-0.8-3.3-1.4-3.4-4.1
	s0.3-4.5,1.9-6.1c1.6-1.6,3.2-2.9,3.5-3.8c0.3-0.9-0.4-1.2,1.4-1.5s3.3-1.1,4.5-1.4c1.3-0.3,1.6-0.6,3.6,0.2c2,0.7,2.8-1.1,3.7,2.5
	s1.5,4.5,0.3,6.5c-1.2,2-1.4,2.7-1.1,3.4c0.3,0.7,0.1,0.9,1,1.1c0.9,0.2,0-0.5,1.3,0.4c1.3,1,3.7,0.4,4.1,1.8c0.4,1.4,0,2.9-0.3,4
	c-0.3,1.1-1.1,1.5-2,1.5c-0.8,0-1.9,0.3-2.6,0.1s-2.1-1-2.1-1L65.1,69.3z"></path><path class="st8" d="M65.2,65.8c0.6-1.5,1.1-1.4,1.1-3.2c0-1.8-0.7-1.9-0.4-4.6c0.3-2.7-2-3.5,1.9-7s7.7-3.8,11.2-1.6
	c3.5,2.3,9.7,6.5,9.2,9.7c-0.5,3.1-4.1,7.2-8.4,7.5s-7.8-1.9-8.5-0.9c-0.7,0.9-1.7,1.6-2.6,1.8c-0.9,0.2-2.6,0.1-2.6,0.1L65.2,65.8z
	"></path><path class="st5" d="M68.7,67.4c1.5,0.3,11-0.5,13.7-0.8c2.7-0.3,6.6-1.2,7.7,1.8s1.8,2.9,0,6.7s-4.2,9.4-5.5,10
	c-1.3,0.7-1.1,2.4-5.2,1.1c-4.1-1.3-8.6-8.6-9.9-10.8c-1.3-2.2-2.3-4.4-2.3-4.4L68.7,67.4z"></path><circle class="st9" cx="65.6" cy="71" r="1.5"></circle><circle class="st10" cx="64.3" cy="67.8" r="1.5"></circle><circle class="st11" cx="63.4" cy="69.7" r="1.5"></circle><circle class="st11" cx="65.9" cy="72.7" r="1.5"></circle><circle class="st12" cx="68.4" cy="72.3" r="1.5"></circle><circle class="st12" cx="70.1" cy="69.8" r="1.5"></circle><circle class="st11" cx="67.7" cy="70.5" r="1.5"></circle><circle class="st12" cx="66" cy="68.7" r="1.5"></circle><circle class="st11" cx="67.1" cy="66.8" r="1.5"></circle><circle class="st9" cx="68.5" cy="68" r="1.5"></circle><circle class="st11" cx="69.1" cy="63.6" r="1.5"></circle><circle class="st13" cx="44.4" cy="34.3" r="10.7"></circle><path class="st6" d="M36.1,10.6c4.5-3.1,4.3-3.6,8.7-3.2c4.4,0.3,7.6-0.4,9.4,1.4s3.7,2.7,4,5.2c0.3,2.5,0.4,4.3-2.3,8.2
	c-2.7,3.9-4.2,3.9-5.9,6s-0.3,3.6-3.7,2.6c-3.4-1-6.2-1.4-7.8-3.2c-1.6-1.8-2.2-2.3-2.9-4.9s-1.8-5.1-1.3-6.4
	C35,15,36.1,10.6,36.1,10.6z"></path><path class="st5" d="M55.7,18.7c1.6-1.1,1.4-1.7,3.3-1s2.3,0,2.6,2.8s2.7,6.2,1.4,9.4c-1.3,3.2-3.6,9.8-5.1,11.6
	c-1.4,1.8-0.6,3.4-3.7,2.6s-4.9-1.8-5.3-3.4s0-2.6-0.6-3.6s-2.1-2.4-2.1-2.4s1.4-1.5,1.7-4s3.4-7.4,4.8-9
	C54.1,19.8,55.7,18.7,55.7,18.7z"></path><path class="st6" d="M45.2,36.1c0.9,0.3,3.5,0.7,5.5,3.2c2,2.5,4.3,4.2,3.4,6c-0.9,1.9-6.2,7-8.2,8.1c-2,1.1-2-0.2-3.9,0.2
	s-4.6,0.9-6.1,0.9c-1.5,0-2.9-0.3-3.9-0.6c-1-0.3-3.7-0.6-2.7-3.5c1-2.9,4.2-5.6,6.9-7.4s4.6-2.2,5.3-3.3c0.7-1.1,1.1-1.8,1.1-1.8
	L45.2,36.1z"></path><path class="st8" d="M42.1,36.7c0,0-1.7,1.1-2.2,2.8c-0.5,1.7-2.8,6.6-5.2,9.2c-2.4,2.6-2.8,4.2-6,3.7c-3.2-0.5-4.5-0.6-6.7-2.8
	s-2.5-3.8-3.9-5.2c-1.4-1.4-2.2-1.6-2.9-4.7c-0.7-3-0.1-4.9,1.6-6.9s1.8-4.1,5.3-3.8s6.5,0.8,7.8,1.2s5.6,1.9,6.3,2
	c0.7,0.1,2.2,0.4,3.2,0.7C40.4,33.2,42.1,36.7,42.1,36.7z"></path><path class="st7" d="M42.7,27.9c0,0-0.8-10.9-2.1-13.8c-1.3-2.9-2.7-5.3-5-5.8c-2.3-0.5-6.6,1.5-8.1,3.3s-6,6.4-6.9,8.5
	s-2.5,4.3-2.3,6c0.2,1.7-3.4,1.2,1.3,3.5s9.2,3.3,11.8,3.5c2.5,0.3,8.2-0.2,8.2-0.2L42.7,27.9z"></path><path class="st14" d="M47,21.1c2.2,2.2-0.1,0.3,3.2,2.6c3.3,2.2,4-0.1,3.9,3.5c-0.1,3.6-0.3,2.2-0.8,5.3c-0.6,3.1,0.9,2.3-0.9,3.9
	s-1.1,0.2-1.8,2.9c-0.7,2.7,1.9,2.7-1.9,3.8s-2.5,1.3-4.6,0.3c-2.1-1-1.7-1.6-3.7-0.9c-2,0.6-0.8,1.5-3.3,0.8
	c-2.5-0.7-4.6-0.7-5.5-2.8c-1-2.1-1.3-3.1-1-4.5c0.4-1.4,1.7,0,0.5-2.9c-1.2-2.9-0.8-4.2,0.3-6.2s0.8-1.9,3-3.2
	c2.2-1.3,1.2-1.1,3.7-2.2c2.4-1.1,2.2-1.5,3.7-1.1C43.4,20.7,47,21.1,47,21.1z"></path><circle class="st11" cx="47.1" cy="34" r="1.7"></circle><circle class="st10" cx="45.8" cy="29.6" r="1.7"></circle><circle class="st11" cx="43.5" cy="27.7" r="1.7"></circle><circle class="st10" cx="40.8" cy="26.7" r="1.7"></circle><circle class="st10" cx="37.8" cy="27" r="1.7"></circle><circle class="st11" cx="34.8" cy="27.9" r="1.7"></circle><circle class="st12" cx="35.1" cy="30.4" r="1.7"></circle><circle class="st9" cx="34.7" cy="32.3" r="1.7"></circle><circle class="st10" cx="37.1" cy="33.9" r="1.7"></circle><circle class="st12" cx="38.9" cy="35.5" r="1.7"></circle><circle class="st11" cx="41.2" cy="37.3" r="1.7"></circle><circle class="st10" cx="43.2" cy="37.7" r="1.7"></circle><circle class="st12" cx="44.5" cy="36.5" r="1.7"></circle><circle class="st9" cx="44.3" cy="34.6" r="1.7"></circle><circle class="st11" cx="43.7" cy="32.5" r="1.7"></circle><circle class="st10" cx="43.1" cy="30.5" r="1.7"></circle><circle class="st12" cx="40.7" cy="29.6" r="1.7"></circle><circle class="st9" cx="38.8" cy="29.2" r="1.7"></circle><circle class="st10" cx="37.7" cy="29.9" r="1.7"></circle><circle class="st10" cx="40.1" cy="31.5" r="1.7"></circle><circle class="st15" cx="38.9" cy="32.3" r="1.7"></circle><circle class="st12" cx="41.4" cy="32.6" r="1.7"></circle><circle class="st10" cx="41.3" cy="34.8" r="1.7"></circle></g></svg>