<svg xmlns="http://www.w3.org/2000/svg" version="1.1" xmlns:xlink="http://www.w3.org/1999/xlink" xmlns:svgjs="http://svgjs.dev/svgjs" viewBox="0 0 108 108" style="" x="0" y="0"><style type="text/css">
	.st0{fill:#5D802D;}
	.st1{fill:#80A93C;}
	.st2{fill:#97BB51;}
	.st3{fill:#40632D;}
	.st4{fill:#7EB140;}
	.st5{fill:#4A6F2B;}
	.st6{fill:#6E8834;}
	.st7{fill:#97B278;}
</style><g><path class="st0" d="M59.3,42c0.3-5.6,0.4-9.3,0.6-11.6c0.1-2,2.4-11.2,3.9-16.8c-2.7,0.4-7.3,10.2-7.5,13.3
	c-0.2,3.1,1.5,25,1.1,28.7C57.1,59.5,53,73.2,53,73.2l0.8,2.9c1.1-3.9,2.4-8.4,3.2-9.9C58.3,63.6,59,47.7,59.3,42z"></path><path class="st1" d="M58.2,67.9c0.1-2.4,4.1-35,5.8-41.1c1.6-6.1,2.5-13,0-13.1c-0.1,0-0.1,0-0.2,0c-1.5,5.6-3.8,14.8-3.9,16.8
	c-0.1,2.3-0.3,5.9-0.6,11.6c-0.3,5.6-1,21.6-2.2,24.2c-0.7,1.5-2.1,6-3.2,9.9l0.9,3.2C54.8,79.3,58.1,70.3,58.2,67.9z"></path><path class="st0" d="M37.5,32.5c1.6,1.4,5.1,11.1,6.8,13.7c1.2,1.9,6.2,18.6,8.7,29.2l3.3,1.8c0,0-1.2-9-3.4-10.9
	c-2.2-2-3.8-10.5-3.8-12.8c0-2.7-5.5-17.4-9-22.9c-3.4-5.5-11.1-10.7-12.1-7.7c0,0,0,0.1,0,0.1C33,28.3,36.2,31.4,37.5,32.5z"></path><path class="st2" d="M42,48.1c1.7,5.6,7.1,25.1,7.1,25.1l3.9,2.1c-2.5-10.6-7.5-27.3-8.7-29.2c-1.7-2.6-5.2-12.3-6.8-13.7
	c-1.3-1.1-4.5-4.1-9.4-9.5C26.2,29.2,40.2,41.9,42,48.1z"></path><path class="st1" d="M42,29.1c-0.6-1.5-2.5-5.4-4.1-9c0,0.1-0.1,0.1-0.1,0.2c-0.8,1.6-0.5,5.3,1,9.3c1.5,3.9,4.8,11.5,5.8,13.9
	c1,2.4,2.9,10.5,3.7,13.9c0.8,3.5,2,9.7,2.8,11c0.8,1.4,0.7,4.1,1,6.1c0.1,0.7,0.4,1.3,0.7,1.8c-0.5-6.2-1.8-23.2-2-24.8
	C50.4,49.6,42.9,31.3,42,29.1z"></path><path class="st3" d="M52.7,47.9c-4.3-14.2-9.5-24.1-11.2-26.2c-1.6-2-2.7-3-3.6-1.6c1.6,3.6,3.5,7.5,4.1,9
	c0.8,2.1,8.4,20.4,8.6,22.4c0.2,1.6,1.6,18.6,2,24.8c0.3,0.5,0.5,0.9,0.6,1.3C55.2,73.1,56.7,61.1,52.7,47.9z"></path><path class="st4" d="M29,40.8c7.1,2.7,9.9,4.4,13.2,6.8c3.3,2.4,5.8,8.4,6.8,9.9c0.8,1.3,4.9,17.1,6.3,23
	c-1.2-5.2-4.1-18.4-4.8-23.8c-0.9-6.9-4.4-11.3-13.2-16.7c-8.7-5.3-14.5-4.9-17.6-4.4c-2.1,0.4-3.2,1.8-3.2,3.5
	C21.3,39,23,38.5,29,40.8z"></path><path class="st0" d="M26.2,43.7c2.1,0.7,12.9,3.7,16.7,8.8c3.5,4.6,11.4,26.8,12.7,30.6c0.1-0.1,0.1-0.2,0.1-0.3
	c0,0-0.2-0.8-0.5-2.2c-1.4-5.9-5.5-21.7-6.3-23c-1-1.5-3.5-7.5-6.8-9.9c-3.3-2.4-6.1-4.1-13.2-6.8c-6-2.3-7.6-1.8-12.4-1.7
	c0,0.8,0.4,1.7,1,2.6C19.5,44.3,24.1,43,26.2,43.7z"></path><path class="st5" d="M54.5,45.7c-1.3-5.8-1.1-19.9-1.3-22.4c-0.1-1.2,0.5-3.4,1.1-5.4c-0.1,0-0.2-0.1-0.2-0.1
	c-11.4,1.1-1,28.6-0.5,35.4c0.5,6.9,0,27.8,0,27.8s0.2,1.2,1.2-5.7l-0.3-12.5C54.5,62.8,55.7,51.5,54.5,45.7z"></path><path class="st1" d="M54.3,17.9c-0.6,2.1-1.2,4.2-1.1,5.4c0.2,2.4,0,16.6,1.3,22.4c1.3,5.8,0,17.1,0,17.1l0.3,12.5
	c0.4-3,1-7.5,1.8-14.3C59,39.3,56.5,19,54.3,17.9z"></path><path class="st6" d="M64.2,46.6c0.7-3.4-0.7-10.6-1.3-12.8c-0.4-1.6-2.1-4.8-4.2-8.3c-0.1,0.1-0.2,0.2-0.3,0.3
	c-3.2,4.2,1.1,8.4,2.1,19.2c0.7,7.1-4.2,31.1-5.1,35.5c0.8-1.4,1.6-2.6,2.2-3.5C59.9,73.7,63.5,50,64.2,46.6z"></path><path class="st5" d="M59,79.7c0,0,8-31.3,8.6-36.1c0.6-4.8,0.2-6.8-1.3-10c-1.4-3-5.1-9.9-7.4-8c2.1,3.5,3.7,6.7,4.2,8.3
	c0.6,2.1,2,9.4,1.3,12.8c-0.7,3.4-4.3,27.1-6.6,30.5c-0.6,0.9-1.4,2.1-2.2,3.5c-0.1,0.5-0.1,0.7-0.1,0.7L59,79.7z"></path><path class="st5" d="M79.2,48.9c-6.5,2.7-15.9,7.8-17.3,11.9c-1.2,3.4-4.2,10.5-6.7,18.3c-0.4,2.1-0.7,3.5-0.7,3.5
	s7.1-16.9,10.9-21.9c3.8-5.1,14.6-8.1,16.7-8.8c2.1-0.7,6.7,0.6,8.7-1.9c0.5-0.7,0.8-1.4,1-2.1C86.2,47.5,85.8,46.2,79.2,48.9z"></path><path class="st1" d="M88.6,43.8c-3.1-0.5-8.9-0.9-17.6,4.4c-8.7,5.3-12.3,9.8-13.2,16.7C57.2,69.3,56,75.3,55.2,79
	c2.5-7.8,5.6-14.9,6.7-18.3c1.4-4.1,10.8-9.1,17.3-11.9c6.5-2.7,6.9-1.4,12.5-1.1C92,45.9,90.9,44.2,88.6,43.8z"></path><path class="st7" d="M46.3,62.8c1.8-0.1,1.3-0.4,3.5,2.3c2.3,2.7,6.3,13.2,6.8,17.3c-1-7.6-5.7-24.1-10.7-24.3
	c-5.1-0.1-11.2,4.5-15.7,8.2s-5.7,5.3-5.7,7.7c0,0.9,0.6,1.6,1.5,2c4.3-2.8,7.2-4.3,9.2-5.8C38.5,67.9,44.4,63,46.3,62.8z"></path><path class="st5" d="M33.8,75c5.3-2.7,8.5-7.2,9.9-7.8c1.5-0.6,2.2-1.1,3.5,0c1.3,1.1,3.6,1.2,4.1,3.9c0.6,2.8,0.5,8,0.8,8.4
	c0.3,0.4,4.4,2.9,4.4,2.9c-0.5-4.1-4.5-14.6-6.8-17.3c-2.3-2.7-1.7-2.4-3.5-2.3c-1.8,0.1-7.8,5.1-11,7.5c-2,1.5-4.9,3-9.2,5.8
	C27.6,76.9,30.4,76.7,33.8,75z"></path><path class="st0" d="M44.3,55.2c-1.3-0.6-3.3-3.5-5.4-5.8c-2.1-2.3-3.5,0.6-5.2,1.1c-1.7,0.5-6.2,5.5-10.3,8.4
	c-1.9,1.3-4.1,3.6-6,5.7c1.4-0.1,3.6-0.9,5.6-1.8c3.7-1.6,5.6-4.8,9.9-9.2s2.6-0.8,6.7,0c4.1,0.8,4.9,4,9,9.5
	c4.1,5.5,5.5,13,5.5,14.8v5.7l2.5-3.6L55,74.6c0,0-0.8-2.9-1.4-4.8l0,0C53.6,69.9,45.5,55.7,44.3,55.2z"></path><path class="st1" d="M50.3,59.3c-0.7-3-4.7-7.4-8.3-11.3c-3.6-3.9-5.6-2.4-9.1-0.9c-3.4,1.4-9.3,6.4-11.3,8.3
	c-2,1.9-4.1,5.5-5.4,7.8c-0.6,1.1,0,1.4,1.1,1.3c1.9-2.1,4.1-4.4,6-5.7c4.1-2.9,8.6-7.9,10.3-8.4c1.7-0.5,3.1-3.3,5.2-1.1
	c2.1,2.3,4.1,5.2,5.4,5.8c1.3,0.6,9.3,14.7,9.3,14.7l0,0c-0.2-0.6-0.4-1.1-0.6-1.4C52.3,67.4,51,62.4,50.3,59.3z"></path><path class="st1" d="M89.6,78.8c-0.8-0.3-6.2-7.1-9.8-8.7c-3.5-1.5-14.9,0-18.4,1.2c-1.6,0.5-3.5,1.5-5.4,2.7
	c-0.9,1.6-2.2,4.7-2.4,5.3C53.5,80,53,83.6,53,83.6h1.6l0.2-1.8c0.4-3.2,3.8-8,4.4-8.4c0.5-0.4,3.5-0.7,5.7-0.8
	c2.2-0.1,7.3-2.3,13.6,1.2c6.3,3.5,7.8,7.1,9.2,8c1.4,0.9,4.1,4.3,7.4,3.6C93,82.8,90.2,79,89.6,78.8z"></path><path class="st0" d="M87.6,71.7c-3.9-4-8-5.6-13.2-5.5c-5.2,0.1-9.2,1.5-12.6,2.9c-3.4,1.5-4.7,3.1-5.5,4.3
	c-0.1,0.2-0.2,0.4-0.4,0.6c1.9-1.2,3.8-2.1,5.4-2.7c3.5-1.2,14.9-2.7,18.4-1.2c3.5,1.5,8.9,8.4,9.8,8.7c0.6,0.2,3.4,3.9,5.6,6.5
	c0.1,0,0.1,0,0.2,0C98.8,84.5,91.5,75.8,87.6,71.7z"></path><path class="st5" d="M71.6,64.9c-3.4,1.2-8.5,4.3-9.8,5.3c-1.3,1.1-1.6,2.9-3.5,4.3c-2,1.4,0.5,2-3.1,5c-1.8,6.8,0.4,1.6-0.2,4.1
	c0,0,3.9-7.9,5.8-10.3c1.9-2.4,2.9-4.1,5.8-3.6c2.9,0.5,8.1-1.8,12.5-1.9c4.4-0.2,6.6,0.6,10.6-0.7c3.8-1.3,4.6-2.2,5.2-4.2
	c-1.7,0.8-1,1.4-7.4,1.5C79.7,64.4,75,63.6,71.6,64.9z"></path><path class="st1" d="M81,59.9c-5.4-0.2-12.4,1.8-19.1,6.3c-3.1,2.1-5.2,7.5-6.7,13.2c3.6-3,1.1-3.7,3.1-5c2-1.4,2.3-3.2,3.5-4.3
	c1.3-1.1,6.4-4.1,9.8-5.3c3.4-1.2,8.1-0.5,16-0.6c6.5-0.1,5.8-0.7,7.4-1.5c0-0.1,0-0.1,0.1-0.2C95.7,60.3,86.4,60.1,81,59.9z"></path><path class="st0" d="M64.4,63.5c-1.7,1.5-5.7,6.1-8.3,8.6c-0.7,3.5-0.3,8.5-2,11.5l1.1-0.6c0,0,1.5-7.1,1.2-8.5
	c-0.3-1.4,1.6-3.9,2.9-4.8c1.4-0.9,3-2.5,4.2-2.6c1.3-0.1,5.7-2.7,8.3-4c2.6-1.3,8.5-4.4,10.5-4.9c2-0.6,8.5-2.3,11.7-3.3
	c3.2-1.1,5.7-2.8,6.2-4.4c0.2-0.6,0.1-1-0.1-1.2c-6.6,3.1-20.8,7.1-24.4,8.4C71.9,59,66.4,61.7,64.4,63.5z"></path><path class="st2" d="M97.2,48.4C95,48.3,86,49.8,75,54.4C64,59,57.3,67.7,56.3,71.2c-0.1,0.3-0.1,0.6-0.2,0.8
	c2.7-2.5,6.6-7.1,8.3-8.6c2-1.7,7.5-4.4,11.3-5.9c3.6-1.4,17.8-5.3,24.4-8.4C99.7,48.6,98.6,48.5,97.2,48.4z"></path><path class="st2" d="M70.3,41.9c0.9-1.7,5.9-9.2,9.9-14.4c-2.1-1.4-8.9,3.6-12.2,8.8c-3.6,5.8-6.3,14.9-7.2,17.6
	c-0.9,2.9-2.7,13.2-4.1,18.8c-0.8,3.1-2,10.9-2,10.9H56c0.9-3.5,2.3-11.7,2.6-12.8C58.8,69.6,69.3,44,70.3,41.9z"></path><path class="st0" d="M66,54.7c2-6.5,16.9-20,14.7-26.6c-0.1-0.3-0.3-0.5-0.5-0.7c-3.9,5.2-9,12.7-9.9,14.4
	c-1,2.1-11.5,27.7-11.8,28.9c-0.2,1-1.7,9.3-2.6,12.8h2C58,83.6,64.2,60.6,66,54.7z"></path><path class="st0" d="M14.7,74.2c1.6-0.7,9.3-8.3,12.1-8.2c2.8,0.1,6.4-0.4,9.5,2c3.1,2.4,8.8,4.4,10.3,5.5c1.6,1.1,2.6,1.6,3.4,3.1
	c0.7,1.5,1.6,3.7,1.3,4.3c-0.3,0.5,0,2.7,0,2.7H53c-0.6-4.2-2.5-9.5-4.8-10.8c-3-1.7-4.7-3.6-6.2-4.4c-1.6-0.8-7.4-4.7-11.7-5.6
	c-4.3-0.9-6,1.4-10.7,2.7c-4.1,1.2-7.8,7.4-12.3,11.9C7.8,80,13.1,74.8,14.7,74.2z"></path><path class="st2" d="M20.7,65.7c4.6-2.1,5.8-3.1,10.1-2.2c4.3,0.9,9.7,4.1,11.2,4.9c1.6,0.8,3.2,2.7,6.2,4.4
	c2.4,1.3,4.2,6.6,4.8,10.8h0.2c0.6-5.2-0.8-9.5-3.2-12.4c-2.5-2.9-4.5-6.1-12.2-8.7c-7.7-2.7-15.4-5.7-21.7,0.8
	c-6.3,6.5-9.2,11.2-8.8,14c0,0,0,0,0,0.1C11.8,72.9,16.8,67.4,20.7,65.7z"></path><path class="st0" d="M46.9,35.9c0.4,6.5,4,22.6,6.7,34.3l1.3,0.6c0,0-6-28.4-5.3-36.2c1-10.6,5.1-14.8,2.3-19
	c-0.9,1.3-1.5,2.5-2.1,3.8C49.1,21.6,46.2,25.1,46.9,35.9z"></path><path class="st2" d="M44,23.1c-1.5,3.1-1.9,5.1-1.3,10c0.6,4.8,9.1,33.8,9.1,33.8l1.8,3.4c-2.7-11.7-6.3-27.8-6.7-34.3
	c-0.7-10.8,2.1-14.3,3-16.4c0.5-1.3,1.1-2.5,2.1-3.8c-0.1-0.1-0.1-0.2-0.2-0.3C49.6,12.4,45.5,20,44,23.1z"></path></g></svg>