<svg xmlns="http://www.w3.org/2000/svg" version="1.1" xmlns:xlink="http://www.w3.org/1999/xlink" xmlns:svgjs="http://svgjs.dev/svgjs" viewBox="0 0 108 108" style="" x="0" y="0"><style type="text/css">
	.st0{fill:#83B258;}
	.st1{fill:#4C8F3F;}
	.st2{fill:#73AD4E;}
	.st3{fill:#4F953F;}
	.st4{fill:#49813A;}
	.st5{fill:#649945;}
	.st6{fill:#6FA540;}
	.st7{fill:none;stroke:#000000;stroke-width:0.3703;stroke-linejoin:round;stroke-miterlimit:10;}
</style><g><path class="st0" d="M53.9,75.7c-0.2-0.7-0.1-0.8-0.3-1.4c6.3-5,13.3-8.6,21.3-9.6c0-0.1,5.2-0.6,6.1-0.5c0.9,0,1.6-1,2.2-1.5
	c0.6-0.4,0.8-1.2,2.3-1.5c1.5-0.3,1.5-0.3,1.5-0.3c0.3,0.4,0.5,0.7,0.8,1.1c0,0-0.1-0.8,1.6-0.8c1.7,0,3.2,0,3.7,0.4
	c0.5,0.3,3,1.7,3,1.7c0,0-0.5,0.9-1.4,1.1c-0.9,0.2-1.9,0.7-1.9,0.7c0-0.1,3.8-0.7,5.5,0c1.6,0.6,1.6,0.8,1.2,1.2
	c-0.5,0.4-1.4,0.4-2,0.4c-0.6,0,2.1,0.6,3.2,1c1.2,0.4,1.3,0.8,1.3,0.8c0,0,1,0.4,1.9,1.2c0.9,0.8,2.3,1.6,2.3,1.6
	C96,66.3,79.6,64.8,79,65.4C78.2,64.6,59.6,68.1,53.9,75.7z"></path><path class="st1" d="M101.2,71.3c-1.1-0.4,0.1,1.1,0.1,1.1c0,0-4-1.7-5.3-2.2c-1.3-0.6,0.3,0.9,0.3,0.8c0,0,0.7,1.1,0.3,1.6
	c-0.4,0.5-2.7-0.7-2.9-1.1c0,0-2.5-1.6-3-1.8c-0.5-0.2-2.7-1-2.7-1c0,0,1.4,1.2,2.2,1.7c0.8,0.5,2.5,1.5,2.6,2
	c0.1,0.4-1.4,0.1-1.4,0.1c0,0,2,1.5,2.4,2.5c0.4,1-0.8,0.2-0.8,0.2c-0.7-0.4-1.4-0.7-2.1-1c-0.1,0.3-0.2,0.6-0.2,0.9
	c0,0-2.6-1.5-3.1-2c-0.5-0.6-0.2,0.5-0.4,0.8C87,74.1,87,74.1,87,74.1c0,0-1.4-1.3-2.3-1.9c-0.9-0.6-1.5-2.6-1.5-2.6
	c-0.2,0.4-0.5,0.9-0.7,1.3c0,0-0.8-4.5-2-4.8c-0.8-0.3-9.7,0.2-15.9,3.2c-6.5,2.6-10.3,7.6-10.2,7.6c-0.1-0.4-0.3-0.7-0.4-1.1
	c5.7-7.7,24.3-11.2,25.1-10.4c0.7-0.6,17.1,0.9,27.2,5.8C106.1,71.1,102.2,71.6,101.2,71.3z"></path><path class="st0" d="M55.2,65.3c0.6,0.1-0.2,0.3,0.5,0.4c3.6-6.1,6.6-13,6.4-20.2c0.1,0-0.2-4.6-0.4-5.4c-0.1-0.8,0.7-1.6,1-2.1
	c0.3-0.5,0.9-0.8,1-2.2c0.1-1.4,0-1.4,0-1.4c-0.4-0.2-0.7-0.4-1.1-0.6c0,0,0.7,0,0.5-1.5c-0.2-1.5-0.4-2.8-0.8-3.2
	c-0.4-0.4-1.9-2.5-1.9-2.4c0,0-0.7,0.6-0.8,1.4c-0.1,0.8-0.3,1.7-0.3,1.7c0.1,0,0.1-3.4-0.7-4.8c-0.7-1.3-0.9-1.3-1.2-0.9
	c-0.3,0.5-0.2,1.3-0.1,1.8c0.1,0.5-0.8-1.7-1.4-2.7c-0.5-1-0.9-1-0.9-1c0,0-0.5-0.8-1.3-1.5c-0.8-0.7-1.7-1.8-1.7-1.8
	c5.8,8.3,9.4,22.5,9,23.1C61.7,42.6,61.2,59.3,55.2,65.3z"></path><path class="st1" d="M52.5,23.2c0.5,0.9-1,0.1-1,0.1c0,0,2,3.3,2.7,4.4c0.7,1-0.8-0.2-0.8-0.2c0,0-1-0.5-1.4-0.1
	c-0.4,0.4,1,2.3,1.4,2.5c0,0,1.8,2,2,2.4c0.2,0.4,1.3,2.2,1.3,2.2c0,0-1.3-1.1-1.8-1.7c-0.5-0.7-1.7-2-2.1-2c-0.4,0,0.1,1.2,0.1,1.2
	c0,0-1.6-1.6-2.5-1.8C49.4,30,50.2,31,50.2,31c0.4,0.6,0.8,1.1,1.2,1.7c-0.3,0.1-0.5,0.2-0.8,0.3c0,0,1.7,2.1,2.2,2.4
	c0.6,0.3-0.4,0.3-0.6,0.4C52,36.1,52,36.1,52,36.1c0,0,1.3,1.1,2,1.8c0.7,0.7,2.5,1,2.5,1c-0.3,0.3-0.7,0.5-1,0.7
	c0,0,4.1,0.1,4.6,1.2c0.4,0.6,1,7.4-0.7,13.3c-1.4,6-4.5,11.2-4.4,11.1c0.3,0.1,0,0,0.3,0.1c6-6,6.5-22.7,5.7-23.3
	c0.4-0.7-3.2-14.9-9-23.1C52.1,18.9,52.2,22.4,52.5,23.2z"></path><path class="st2" d="M68.5,55.5c1.5-0.3,11.7-0.5,14.1-0.1c2,0.4,6.6,1.1,9.5,1.6c-0.3-0.5-1-1.5-1.7-1.7c-1-0.3-1.5-0.6-1.5-0.6
	s1.5-0.7,1.9-1.5c0.4-0.7-2.5-1.8-3.4-1.3c-1,0.5-1-1-1-1s-4,0.5-5,1.1s2.3-1.7,3.3-3.4c1-1.7,1-2.7,1-2.7l-3.3,1.5l-0.8-2
	c0,0,0.6,1.3-2.1,3.2c-2.7,1.9-4.6,2.8-4.6,2.8s2.4-4.9,2.6-6.4c0.2-1.5,0.1-2.7,0.1-2.7s-2,2.4-2.5,2.8c-0.5,0.4-1.4,0-1.4,0
	L73.2,43c0,0-0.9,2.8-1.4,3.6c-0.5,0.8-1.5,2.9-2.1,4.2c-0.4,1-0.6,2.1-0.6,2.6c0,0.2,0,0.3,0,0.3s0-0.1,0-0.3c0.1-1,0.4-4-0.2-5.1
	c-0.7-1.3-1.9,0.5-2,0.8c-0.1,0.3-0.6,1.8-0.8,3.1c-0.3,1.3,0,2.1,0,2.1S64,55,63,54.6c-1-0.4-2.9-0.3-2.9-0.3l0.3,0.8
	c1,0.1,1.9,0.3,2.3,0.4C63.9,55.7,66.9,55.9,68.5,55.5z"></path><path class="st3" d="M67.7,57.4c0,0,0.4,3,0.6,3.7c0.2,0.7,1.2,1,1.2,1s0-1.5,0.9-2.3s0.8-0.8,0.8-0.8s1.7,3.2,2.8,3.9
	c1,0.7,4.1,2.4,4.4,2.5c0.3,0.1,1.6-1.4,1.3-2.1c-0.4-0.8-1.1-3.2-1.6-3.6c-0.5-0.4-2.7-2.2-2.7-2.2s4.4,0.9,5.1,1.9
	c0.6,1,3,1.8,3,1.8s1.2-2,0.3-2.7s1.8-0.7,3-0.6s4.6,0.5,5.1,0.1c0.5-0.5,0.5-0.5,0.5-0.5s-0.1-0.2-0.2-0.4
	c-2.9-0.6-7.4-1.3-9.5-1.6C80.2,55,70,55.2,68.5,55.5c-1.5,0.3-4.5,0.2-5.8,0c-0.5-0.1-1.4-0.3-2.3-0.4l0,0.6L67.7,57.4z"></path><path class="st4" d="M46.5,67.5c0.1,0.1,1.4,0.7,3,1.3c0.8-0.1,1.5-0.3,2.1-0.4l0-0.1c0,0-6.6-3.1-7.4-3.9c-0.8-0.8-3.8-5.9-3.8-5.9
	s-7.5-3.1-7.8-3c-0.3,0.1-5.9,2.6-5.9,2.6l-4.1-2.6l0.1,2.1c0,0-4.6-1.2-4.9-1.2c-0.3,0,1.1,1.7,1.1,1.7s-2.9-0.5-4.7-0.3
	c-1.8,0.2-2.2,0.6-2.2,0.6c1.4,0.6,12,1.8,14.2,2.8S46.2,67.1,46.5,67.5z"></path><path class="st4" d="M34.2,79.1c1.1-0.8,3.5-2.8,3.5-2.8s-2,2.8-1.8,3.8S37,84,37,84s3-1.9,3.6-3.2c0.6-1.3,0.3-3.8,0.3-3.8l1.2,1.9
	l1.8-5.5c0,0,0.7-2.5,1.5-2.8c0.8-0.2-0.8,1.1,0.1,1.6c0.9,0.5,2.1-0.5,2.1-0.5l1.5-1.5l4,1.5l-0.8-1.8l-0.6-1.4
	c-0.7,0.1-1.4,0.2-2.1,0.4c-1.9,0.4-4,0.9-6.2,1.7c-6.5,2.4-16.4,6.2-19.6,10.1c0.7,0,4.2,0.6,5.5-0.3c1.3-0.9,2.2-1.7,2.2-1.7
	l-0.9,2.5C30.5,81.2,33,79.9,34.2,79.1z"></path><path class="st5" d="M15.9,62.5c0,0,3.2,0,3.8,0.2s2.5,0.2,1.5,0.7c-1,0.5-2,1.4-1.7,1.5c0.3,0.1,4.9,0.2,4.9,0.2s-2.2,2.6-2.3,2.9
	c-0.1,0.3,2.8,3,4.5,2c1.6-1,1.3,0.7,1.3,0.7l4.2-1.9l0.6,0.9l0.9-0.6l2.5-1.7l6.3,1.4L35,69.4l1.5,1.5c0,0-2.8-0.2-3.5,0.2
	c-0.7,0.3-5.1,1.2-5.4,1.5s-1.1,1.1-1.1,1.1L29,75c0,0-2.6,0.9-3.6,2.7c-1.1,1.7-2.3,3-1.6,3c3.2-4,13.1-7.8,19.6-10.1
	c2.2-0.8,4.3-1.3,6.2-1.7c-1.6-0.6-2.9-1.2-3-1.3c-0.3-0.4-18.2-5.3-20.3-6.3S13.5,59,12,58.4c0,0,3.8,3.4,4.6,3.3
	S15.9,62.5,15.9,62.5z"></path><path class="st6" d="M23.1,51.4c3.3,0,16.8,3.6,23.6,6.8l-1.5-2.2c0,0-1.1-2.2-2.8-3.2c-1.8-1-8-5.6-8-5.6l3.7-3.2L27.9,42l-3.8,0.2
	l1.5,6.5l-5.2-2.5c0,0-3.1-2-3.2-1.2c-0.1,0.8,1.3,2.9,1.3,2.9l-4.6-1.4c0,0,0.8,1,0.2,1c-0.7-0.1-4.5,2.2-3.9,2.2
	C12.3,49.4,19.8,51.4,23.1,51.4z"></path><path class="st3" d="M14.2,53.5l6.3,0.9l-1.1,0.8c0,0,0.2,0.6,1.5,1.3c1.2,0.7,4.8-0.2,4.8-0.2l0.1,1.9c0,0,1.8,1.4,2.6,1.5
	c0.8,0.1,7.3-0.8,7.3-0.8l-2,3c0,0,1.3,0.5,2.6,1c1.3,0.5,4.4-2.8,4.4-2.8l2.4-2.7c0,0-0.5,0.8-1.1,2.2c-0.6,1.4-0.7,3.1-0.7,3.1
	s1.5-0.3,1.8-0.6c0.3-0.3,3.2-2.7,3.7-3.8c-6.8-3.3-20.3-6.8-23.6-6.8s-10.9-2-13-1.7c0.7,0.1,5,2.3,5,2.3L14.2,53.5z"></path><path class="st0" d="M57.7,81l2.8,0.1L44.9,51.5c0,0-3.1-6.6-3.6-7.5c-0.5-0.9,0.9-2.2,1.2-3.2c0.3-1,1.1-1.9,1-3.8
	C43.5,35,43.5,35,43.5,35l-1.7,0.1c0,0,1.1-0.6,0.7-2.5c-0.3-1.9-0.5-3.6-1-3.9c-0.6-0.3-2.7-2.2-2.7-2.2s-1.4,1.4-1.7,2.7
	c-0.3,1.3-0.7,2.8-0.7,2.8s0.5-5.2-0.3-6.8c-0.8-1.6-1.1-1.5-1.9-0.6c-0.7,0.9-0.8,2.1-0.7,2.8c0,0.8-1-2.2-1.6-3.4
	c-0.6-1.2-1.2-1.1-1.2-1.1s-0.5-1.1-1.7-1.6s-2.3-2.1-2.3-2.1c4.4,11.1,14.7,27.6,15.1,28.5C42,48.4,53.4,70.8,57.7,81z"></path><path class="st1" d="M25.6,26c0.6,1.2-1.9,0.7-1.9,0.7s3,4.2,4.2,5.3c1.2,1.1-1.4,0.3-1.4,0.3s-1.8,0-2.5,0.9c-0.7,0.9,1.9,3,2.5,3
	c0,0,3.2,1.8,3.7,2.3c0.5,0.5,2.6,2.4,2.6,2.4s-2.3-0.5-3.3-1.1c-1-0.6-3.2-1.8-3.8-1.5C25,38.5,26.1,40,26.1,40s-3.1-1.3-4.7-1
	c-1.6,0.3,0.1,1.3,0.1,1.3l2.6,1.8l-1.1,1.1c0,0,3.5,2,4.5,2.1c1,0.1-0.5,0.8-0.7,1.2C26.6,47,26.6,47,26.6,47s2.5,0.5,3.8,1
	c1.3,0.5,4-0.7,4-0.7l-1,2c0,0,5.4-1.5,6.7-0.6c1.5,1,4.4,7.8,5.5,9.6c1.1,1.8,3,6.5,3.7,8c0.7,1.5,4,8.4,4.7,9.9
	c0.7,1.5,1.7,4.9,1.7,4.9h2.1C53.4,70.8,42,48.4,41.7,47.8c-0.3-0.8-10.7-17.4-15.1-28.5C26.7,19.3,25,24.9,25.6,26z"></path><path class="st3" d="M50,36.8c0.4-2.4,0.9-6,1.4-9.2c-0.4,0.5-1,1.1-1.4,1.6c-0.9,1-1.5,3.3-1.5,3.3S48.2,37,48,35.3
	c-0.2-1.7-3.5-2.5-3.5-2.5s-1.1,2.3-1,4.3c0.1,1.9,2.6,4.4,2.6,4.4l-2,0.1c0,0-0.8,1.2,0.1,2.2c0.9,0.9,1.5,7.1,1.1,9.4
	c0,0,0.2,0.4,0.4,0.9l0.8-1.1C46.5,52.9,49.1,42.5,50,36.8z"></path><path class="st3" d="M52.8,60.1l1.1-0.9l2-1L55,56.4l3.3,0.4c0,0-0.4-1.5-2-3.1c-1.6-1.7-0.6-1.6-0.1-1.6c0.5,0,2.6-1,2.6-1
	c0.9,0.3,2.2-1.8,2.2-1.8l-2.5-0.7c0,0,1.3-0.2,2.5-0.7c1.2-0.5,1.7-1.6,1.7-1.6c-4-0.4-8.1,2.5-10.6,4.1c-1.4,0.8-3.9,2.8-5.9,4.5
	c0.2,0.3,1.2,1.4,1.2,1.4s1,1.9,1.2,2.2s2.3,1.3,2.9,1.6C52,60.4,52.8,60.1,52.8,60.1z"></path><path class="st2" d="M62.7,46.3c0,0-1.3-0.3-2.5-0.6c-1.2-0.4-2.7,0.6-2.7,0.6l-0.1-1.9c0,0,0,0-0.5,0.3c-0.5,0.3-2.9,2-2.9,2
	l-0.3-1.2l-2.7,3c0,0,0.4-2.8,0.9-3.4c0.5-0.6,2.4-1.5,2.4-1.5l-1.7-0.8c0,0,0.8-0.4,1.6-1c0.7-0.7,1.4-2.9,1.4-2.9
	s-0.9-0.3-1.2-0.3c-0.3,0-2.3,1.1-2.3,1.1l0-13.1c0,0-0.3,0.4-0.8,0.9c-0.5,3.3-1,6.8-1.4,9.2c-0.9,5.7-3.5,16.1-3.5,16.1L45.7,54
	c0.2,0.4,0.4,0.8,0.5,0.9c0,0,0,0,0,0c2-1.7,4.6-3.7,5.9-4.5C54.6,48.9,58.7,45.9,62.7,46.3z"></path><path class="st7" d="M63.7,71c0.1,0.2,0.1,0.3,0.1,0.3S63.8,71.2,63.7,71z"></path><path class="st4" d="M62.3,62.8c-0.2,0.1-1.4-0.1-3-0.2c-0.4-0.4-0.8-0.8-1.2-1.1c-0.2,0.3-0.5,0.1-0.5,0.1c0.1-0.2,7.4-0.1,8.3-0.1
	c1.1-0.3,6.2-1.9,6.2-1.8c0.1-0.2,6.2,3.3,6.1,3.8c0.1,0.3,1.6,5.9,1.6,5.9c1.1,0.7,2.2,1.5,3.2,2.3c-0.3,0.2-0.7,0.5-1,0.7
	c0-0.1,2.5,3.5,2.6,3.8c0.1,0.3-1.2-0.4-1.2-0.4c0,0,1.4,2.4,1.9,4.1c0.5,1.7,0.5,2.2,0.5,2.2c-0.4-1.4-5.4-10.1-7.3-11
	C77.4,69.1,63.2,61.6,62.3,62.8z"></path><path class="st4" d="M62.9,76.7c-0.3-1-0.6-3.5-0.6-3.5c0,0-0.5,2.8-1.3,3.5c-0.8,0.6-3.4,2.3-3.4,2.3c0,0-1-2.5-0.4-3.7
	c0.5-1.2,2.5-3,2.4-3c-0.7,0.3-1.5,0.7-2.2,1.1c0.9-1.6,1.7-3.3,2.6-4.9c0,0,1.3-2.2,0.9-2.7c-0.4-0.5-0.2,1.2-1.2,1.2
	c-1,0-1.1-1.2-1.1-1.2c0-0.6,0-1.2,0.1-1.8c-0.8-1.8-1.1-1-2.4-0.9c0.6-0.5-0.3,0,0.3-0.4c0.5-0.3,1-0.7,1.5-1
	c0.4,0.3,0.8,0.7,1.2,1.1c1,1,2.1,2.3,3.1,3.9c2.8,4.5,6.9,12.4,6.6,16.3c-0.4-0.4-3.1-1.8-3.5-3c-0.3-1.2-0.5-2.1-0.5-2.1
	c-0.3,0.7-0.6,1.4-1,2C64.1,79.7,63.2,77.7,62.9,76.7z"></path><path class="st5" d="M82.5,80.1c0,0-1.3-2.7-1.7-3c-0.4-0.3-1.3-1.9-1-0.9c0.2,1,0.3,2.2,0.1,2c-0.2-0.2-2.5-3.7-2.5-3.7
	c0,0-0.2,2.8-0.4,3c-0.1,0.2-3.1-0.6-3.5-2.1c-0.4-1.6-1.1-0.5-1.1-0.5c-0.5-1.2-1-2.5-1.5-3.7c-0.3,0.1-0.6,0.1-0.9,0.2
	c-0.1-0.3-0.1-0.6-0.2-0.9c-0.2-0.8-0.3-1.7-0.5-2.5c-1.6-0.9-3.3-1.7-5-2.4c1.5,1.3,3,2.8,4.5,4.3c-0.6,0-1.3,0.1-1.9,0.1
	c0,0,2,1.4,2.2,2c0.3,0.6,2.5,3.7,2.5,4.1c0,0.4,0,1.3,0,1.3c-0.8-0.3-1.6-0.5-2.4-0.7c0,0,1.1,2,0.7,3.6c-0.3,1.6-0.3,2.9-0.7,2.6
	c0.3-3.9-3.8-11.8-6.6-16.3c-0.9-1.6-2-2.9-3.1-3.9c1.6,0.1,2.8,0.2,3,0.2c0.9-1.2,15.2,6.2,16.2,8.5c1.8,0.9,6.8,9.6,7.3,11
	c0.1-0.1-2.7-2.4-3.1-3.1C82.4,78.5,82.5,80.1,82.5,80.1z"></path><path class="st0" d="M54,70l-1-1.2c0,0,4.4-11.6,7.4-16.5c3-4.9,5-6.5,5.5-7.4c0.5-0.9-0.4-2.7-0.7-3.6c-0.3-1-1.2-1.9-1.1-3.8
	c0.1-1.9,0.1-1.9,0.1-1.9l1.8,0.1c0,0-1.1-0.6-0.8-2.5c0.3-1.9,0.5-3.6,1.1-3.9c0.6-0.3,2.8-2.2,2.8-2.2s1.5,1.3,1.8,2.6
	c0.3,1.3,0.8,2.8,0.8,2.8s-0.6-5.1,0.3-6.7c0.9-1.6,1.2-1.4,2-0.5c0.8,0.9,0.8,2.1,0.8,2.8c0,0.7,1-2.1,1.6-3.3c0.6-1.2,1.3-1,1.3-1
	s0.5-1,1.8-1.6c1.3-0.6,2.4-2,2.4-2C77.2,31,66.7,46.5,66.4,47.3C66.1,48,59.6,52.5,54,70z"></path><path class="st1" d="M83,26.7c-0.6,1.1,2,0.7,2,0.7s-3.1,4.1-4.4,5.2C79.3,33.8,82,33,82,33s1.9,0,2.7,0.9c0.8,0.9-2,3-2.6,3
	c0,0-3.4,1.8-3.9,2.3c-0.5,0.5-2.7,2.3-2.7,2.3s2.4-0.5,3.5-1.1c1.1-0.6,3.4-1.8,4-1.5c0.7,0.2-0.5,1.8-0.5,1.8s3.2-1.2,4.9-0.9
	c1.7,0.3-0.1,1.3-0.1,1.3l-2.7,1.8l1.2,1.1c0,0-3.7,2-4.8,2c-1,0.1,0.5,0.8,0.7,1.2c0.2,0.4,0.2,0.4,0.2,0.4s-2.6,0.5-4,1
	s-4.2-0.7-4.2-0.7l1,2c0,0-5.6-2.5-7.2-2c-6.2,1.8-10.9,16.9-11.6,18.3c-0.7,1.5-1.6,5-1.6,5l-0.9-1.1c4.5-10,5.7-16.4,11.9-22.5
	c0.6-0.6,11.7-16.4,16.3-27.3C81.8,20.1,83.6,25.6,83,26.7z"></path></g></svg>