<svg xmlns="http://www.w3.org/2000/svg" version="1.1" xmlns:xlink="http://www.w3.org/1999/xlink" xmlns:svgjs="http://svgjs.dev/svgjs" viewBox="0 0 108 108" style="" x="0" y="0"><style type="text/css">
	.st0{fill:#427A3E;}
	.st1{fill:#4F8C49;}
	.st2{fill:#6F9F61;}
	.st3{fill:none;stroke:#000000;stroke-width:0.1965;stroke-miterlimit:10;}
	.st4{fill:#346833;}
	.st5{fill:none;}
</style><g><path class="st0" d="M40.7,68c-0.7-0.6-7-3.9-8.6-4.7c-1.6-0.7-3.3-1-3.3-1l0.9-0.5c0,0-2.4-0.4-2.7-0.6s-1.3-0.8-1.3-0.8l-1.3-0.8
	l3.6,0.7l2.5,0.4c0,0-4.7-1.8-5-2.3c-0.3-0.5-0.3-1.2-0.3-1.2s-1-0.6-1.6-1.1s2.5-0.4,2.5-0.4s-3.8-3.2-4.1-3.4
	c-0.3-0.1-1.5-1.7-1.5-1.7s5-0.1,7,1.2c2,1.3,8,4.5,8,4.5s7.7,4.3,7.8,4.5c0.1,0.2,1.4,4.3,1.4,4.3l1,5.7l-0.6,1
	c0,0-3.2-2.1-3.5-2.5S40.7,68,40.7,68z"></path><path class="st1" d="M38.4,59.1c-0.7-0.1-3.9-1.2-5.5-1.5c-1.6-0.3-2.5-0.7-2.5-0.7L30,55.7l-2-1.8l-1.2-1.5L23,50.7l-0.6-0.5
	l1.5-0.5c0,0,2-0.2,3,0.3c1,0.5,3.2,2,3.1,1.8c0-0.1-2.2-2.6-2.2-2.6s2.9,1.3,3.5,1.9c0.6,0.6,1.4,0.6,1.4,0.6l-1.5-2.2
	c0,0,2.1,0.6,2.4,0.8c0.3,0.2,0.9-0.2,1.1,0s0.8,0,1.5,1c0.6,1,1.3,2.3,1.3,2.3s-1-2.6-1-3.2s0-0.9,0-0.9s1.6,1.2,1.6,1.7
	c0.1,0.6,0.3,0.9,0.3,0.9l-0.1-1.7c0,0,0.7,1.3,1,2c0.3,0.7,2.5,5.1,2.6,5.4c0.1,0.2,0.3,1,0.3,1l-1.5,0.5L38.4,59.1z"></path><path class="st0" d="M42.2,58.9c0.6-0.1,1.9,0.2,2.3,0c0.4-0.2,0.1-0.1,1.3-0.8c1.2-0.7,1.2-0.7,1.6-0.5s1.8-0.2,1.8-0.2
	s-4.5,2.7-4.7,3S43.8,62,44,62c0.2,0.1-0.6,0.5-0.6,0.5s-1.1-1.1-1.3-1.2c-0.3-0.1-2.3-1.1-2.3-1.1L38,58.7c0,0-1.1-1.2-0.3-0.9
	s2,0.5,2.4,0.7C40.6,58.7,42.2,58.9,42.2,58.9z"></path><path class="st2" d="M45.7,71.9c0,0-1.9-8.3-2.1-8.8c-0.2-0.5-2.9-2.3-3.4-2.6c-0.5-0.2-2.2-0.6-2.7-0.8C37,59.4,34.8,59,34.8,59
	l0.9,2.7l-1.8,0.4L35,63l-0.5,0c0,0,1.3,1.5,1.5,1.6C36.2,64.5,43.9,71.6,45.7,71.9z"></path><path class="st1" d="M48.8,92.9L46.4,79l-1.1-3.5l3.3,0.5c0,0,0.2,8.3,0.2,8.7c0,0.5,1.4,9.5,1.4,9.5l1.3,5l-1.2,1.1
	c0,0-0.7-3.9-2.2-5.6c-1.5-1.7-4.5-5.7-4.7-6.3s-3.1-3.4-3.1-3.4l2.8-2.2c0,0,0.6,2.2,0.7,2.7c0.1,0.4,0.6,2.4,0.8,2.7
	c0.2,0.3,2.7,4,2.7,4l1.6,2L48.8,92.9z"></path><path class="st0" d="M56.9,30.2c-0.6,0.4-1.8,2.2-1.8,2.2c0.3-0.3,4.3-2.2,5.5-2.6c1.2-0.4,2.7-0.8,2.7-0.8l-1.7-1
	c0,0,1.4-0.2,2.7-1.1c1.3-0.9,1.2-1.8,1.2-1.8s-0.5-0.1-1.6-0.3s-4.1,1.6-4.1,1.6s2.4-2.7,4-4.2c1.6-1.5,2-3.3,2-3.3l-1.9,0.5
	c0,0,0.8-0.6,1.3-1.4c0.5-0.8,0.1-2.5,0.1-2.5s0.4-1-0.2-0.7c0,0-4.4,8-4.6,8.4C60.3,23.6,57.4,29.8,56.9,30.2z"></path><path class="st3" d="M52.7,29.3c0,0,0-0.2-0.1-0.5c0.1,0.5,0.1,0.8,0.1,0.8S52.7,29.5,52.7,29.3z"></path><path class="st0" d="M53.3,32.8c0,0-0.1-11.2,0.9-13.1c1-1.9,0.3-7.8,5.6-16.6c0,0-0.2,0.3-0.6,0.6C58.7,4.2,57.5,6,57.5,6l-0.1-1.1
	c0,0-0.3,0.3-0.6,0.9C56.4,6.4,55.9,9,55.9,9s-0.1-0.8-0.4-1.2C55.3,7.4,55,6.3,55,6.3s-1,1.6-1.4,2.5c-0.4,0.9-0.6,5.6-0.6,5.6
	s-0.5-4.3-0.6-4.9c-0.1-0.5-1.1-1.1-1.1-1.1s-0.5,0.8-0.9,1.5C50,10.6,50.3,12,50.3,12l-1.2-0.6c0,0,0,1.7-0.2,2.5
	c-0.2,0.9,2.3,7,2.3,7.2c0,0.1,0.9,5.5,1.3,7.6c0.1,0.3,0.1,0.5,0.1,0.5c0,0.3,0,0.3,0,0.3s0-0.3-0.1-0.8c-0.5-1.8-2.4-7.6-2.7-8.1
	c-0.3-0.6-1.2-2.8-1.2-2.8s-0.4-0.8-0.7-0.6c-0.3,0.2-0.7,2.3-0.7,2.3s-0.3-1.8-0.7-3.1c-0.4-1.3-0.8-1.2-0.8-1.2L45.5,16l-1.8-1.6
	c0,0,6.9,14.8,7.3,15.3C51.3,30.3,53.3,32.8,53.3,32.8z"></path><path class="st1" d="M63.6,15.8c0,0-0.5,0.4-1,0.9c-0.5,0.5-1.9,3.7-1.9,3.7l-0.1-2.7c0,0-1.8,2.9-1.9,3.1c-0.1,0.2-3.7,9.3-3.7,9.3
	s-0.2-1.1-0.1-1.7c0.1-0.6,2.4-7.7,2.8-9.1c0.5-1.4,2.2-2.9,2.6-3.2c0.4-0.4,1.7-2.2,1.7-2.2s-0.4,0.1-0.8,0.1
	c-0.4,0-2.3,0.9-2.3,0.9s0.4-0.3,0.8-0.7c0.4-0.4,1.7-2.8,1.7-2.8s-1,0.4-0.8,0.2c0.2-0.2,0.1-1.6,0.1-1.6s-1.3,0.7-1.8,1
	c-0.5,0.3-2.1,3.3-2.1,3.3s0.2-0.9,0.4-1.6c0.2-0.6,2.9-5.5,2.9-5.5s-1,0.5-0.9,0.2c0.2-0.2,0.6-4.3,0.6-4.3
	c-5.3,8.8-4.6,14.7-5.6,16.6c-1,1.9-0.9,13.1-0.9,13.1s-2-2.6-2.4-3.1c-0.4-0.5-7.3-15.3-7.3-15.3s-0.7,1.1-1.1,1.9
	c-0.4,0.8,1.9,2.7,1.9,2.7l-2.9-1.1c0,0,0.3,0.8,0.6,2c0.3,1.2,4.8,5.6,4.9,6.1c0.1,0.5-1.4-0.7-3.4-1.8c-2-1.1-4.2-0.1-4.2-0.1
	s0.3,0.9,0.4,1.2c0.1,0.4,3.3,1.5,3.3,1.5l-2,0.6c0,0,6,2.6,6.7,2.9c0.8,0.3,4.4,2.9,5,4.1c0.7,1.2,0.1,8.2,0.1,8.2l0.8,0.7l0.1-1.4
	l0.1-7.6c0,0,0.7-1.5,1-1.8c0,0,1.2-1.8,1.8-2.2c0.6-0.4,3.4-6.6,3.6-7c0.2-0.4,4.6-8.4,4.6-8.4c-0.6,0.4-1.6,2.1-1.6,2.1L63.6,15.8
	z"></path><path class="st0" d="M41.2,51.7c0.1,0.7,4.5,22.8,4.5,22.8l2.2,0.5l-4.8-21.9l-1.7-5.2l-1.3,0.4C40.1,48.4,41,50.6,41.2,51.7z"></path><path class="st2" d="M50.2,54c0-1.2,8.1-16.4,8.1-16.4s-0.2,0-1.4,0.4c-1.2,0.4-1.8,1.1-1.8,1.1s-0.4,0-0.8,0.5
	c-0.3,0.5-0.5,3.2-0.5,3.2l-1.2-1.9c0,0-0.9,2.6-1.1,2.9c-0.1,0.3-1.3-0.9-1.3-0.9l-0.1,3.8c0,0-0.2-1-0.2-1.4
	c0-0.4-1.2-1.2-1.2-1.2l-0.4,1.2l-0.8-0.8c0,0,0,0.3,0,0.9s0,2.4,0,2.4L46.2,46c0,0-0.5,0.8-0.3,1.8c0.2,1,1.3,3.4,1.3,3.4l-3.1-2.8
	c0,0,0,1.7,0,3c0,1.3,2.5,6.2,2.3,6.4c-0.1,0.2,0.8,2,0.8,2.5c0,0.5-2,4.7-2,4.7l0.5,2.2l0-1c0,0,0.6-1.6,1.2-3.4
	c0.3-0.9,0.9-1.6,1.4-2.1c-0.1-0.4-0.1-0.7-0.1-0.7S50.2,55.2,50.2,54z"></path><path class="st1" d="M53.5,59.1c1.8-0.4,4.6-0.4,4.6-0.4l-0.6-0.7c0,0,1.4-0.3,3-0.9c1.6-0.6,0.6-0.5,0.3-0.7c-0.2-0.2-2-0.4-2-0.4
	s1.2-0.2,2.5-0.6c1.3-0.4,2.4-1.2,2.4-1.2l-1.8-0.8c0,0,0.6-0.1,1-0.2c0.4-0.1,2-1.6,2-1.6s-0.5-0.4-0.3-0.5c0.2-0.1,1-1.1,1-1.1
	s-0.6-0.1-1.3-0.2c-0.7-0.1-3.6,1.4-3.6,1.4l0.6-1.1c0,0-0.8,0-1.4,0.4c-0.6,0.3-5.3,3.3-5.3,3.3s1.3-1.1,2-2
	c0.7-0.8,5.7-5.1,5.7-5.1l-2.2-0.2l2-2c0,0-0.6,0.2-0.4,0c0.2-0.2,0.3-1.3,0.3-1.3s0,0-0.8,0c-0.8,0-3.8,2.1-3.8,2.1
	s1.2-1.8,2.1-3.8c0.9-2,0.4-1.7,0.4-1.7l-1.1-0.1c0,0,0-0.3,0.1-0.9c0.1-0.6-0.4-1.2-0.4-1.2S50.2,52.7,50.2,54
	c0,1.2-2.1,6.2-2.1,6.2s0,0.3,0.1,0.7c0.5-0.5,1-0.8,1.2-0.9C49.8,59.7,51.6,59.5,53.5,59.1z"></path><path class="st0" d="M72,30.4c0,0-2.1,0.1-3.1,0.4c-1,0.2-3.3,2.5-3.5,2.8c-0.2,0.2,0.8-2.2,0.8-2.2s-3.7,3.4-3.8,3.6
	c-0.1,0.2,1-2.9,1-2.9s-2.3,2.1-2.4,2.3c-0.2,0.2,0.2-1.4,0.2-1.4s-2.7,4-2.7,4.1c0,0.1-0.5-3.1-0.5-3.1l-0.8,2.5l-0.7-1.3l-0.9,4.5
	l0.5,2.8l0,3.2c0,0,5.6-8.9,9.1-11C68.7,32.6,72,30.4,72,30.4z"></path><path class="st4" d="M63.9,40c0.1-0.1,2-1.3,2-1.3l-0.7-0.3l3.1-3.1l-1.9,0.6l5.5-5.5c0,0-3.3,2.1-6.8,4.3c-3.5,2.1-9.1,11-9.1,11
	s2.6-2,2.8-2.3C59.1,43.1,63.7,40.1,63.9,40z"></path><path class="st2" d="M85.2,38.9c-0.3,0.1-2.2,2.5-2.4,2.8c-0.1,0.3,0.1-2.3,0.1-2.3s-0.9,0.5-1.4,0.8c-0.5,0.3-1.2,2.6-2.8,4.2
	c-1.5,1.6-4.9,6.3-4.9,6.3s0.2-1.3,0.6-1.5c0.4-0.3,3.9-6.4,4.8-7.6s4.8-7.8,4.8-7.8l-1.6,0.7c0,0,0.3-0.9,0.6-1.4s-0.1-2.7-0.1-2.7
	s-0.9,0.1-1.4,0.5c-0.4,0.3-1.7,3.3-2,4c0,0.1,0,0.1-0.1,0.2c0,0,0,0,0.1-0.2c0.2-0.7,0.8-3.5,1.1-5.1c0.3-1.8-0.5-2.7-0.5-2.7
	s-1.2,1.4-1.1,0.9S78.7,25,78.7,25l-0.7,1.4c0,0,0.1-1.1-0.3-1.7s-0.6-2-0.6-2s0.9,7.1,1.1,7.6c0.2,0.6-0.4,6.9-1.3,9
	c-1,2.2-4.5,12.4-4.5,12.4s-0.3-1.3-0.6-1.8c-0.3-0.5-2.1-8.4-2-8.7c0.1-0.3-1.8-7.9-2.5-10.5c-0.1-0.5-0.2-0.8-0.2-0.8
	s-0.1,2-0.3,2.2c-0.2,0.2,0.3,3,0.3,3L66,34.6c0,0-0.3,0.7-0.4,1.9c0,1.2,3.5,7.7,3.5,7.7l-0.6-0.5c0,0-1.5-1.9-2.2-2.3
	c-0.7-0.4-2.4-0.2-2.4-0.2l0.1,1.9l2.4,1.4L64,45.4c0,0,0.9,0.3,1.8,0.5s2.4,1.7,4.2,3.2c1.8,1.5,1.4,3,1.6,3.8
	c0.2,0.8-2.6,7.3-2.7,7.6l1.1,0.6c0,0,1.2-3,1.5-3.7c0.2-0.7,1.3-3.6,2-4.2c0,0,2.2-2.4,2.7-2.7c0.4-0.2,12-12,12-12l-1.9,0.7
	C86.2,39.2,85.5,38.8,85.2,38.9z"></path><path class="st3" d="M76.1,33.1c0-0.1,0-0.4-0.1-0.7C76,33,76.1,33.3,76.1,33.1z"></path><path class="st3" d="M79.4,34.9c0,0,0-0.1,0.1-0.2C79.4,34.9,79.4,35,79.4,34.9z"></path><path class="st0" d="M69.8,41.3c-0.1,0.4,1.7,8.2,2,8.7c0.3,0.5,0.6,1.8,0.6,1.8s3.6-10.2,4.5-12.4c1-2.2,1.5-8.5,1.3-9
	c-0.2-0.6-1.1-7.6-1.1-7.6l-0.5,4L75,26.1c0,0,0.1,0.5,0.5,1.6c0.3,0.7,0.4,3.4,0.5,4.8c0.1,0.3,0.1,0.5,0.1,0.7
	c0,0.2-0.1-0.1-0.1-0.7c-0.2-1-1-2.7-1.2-3.4c-0.4-0.8-0.9-0.4-0.9-0.4s-1.3,1-1.4,1.4c-0.1,0.4,1.7,4.2,1.7,4.2L71.3,32
	c0,0,0.1,0.8,0,1.3c-0.1,0.5,1.5,1.7,1.9,3c0.4,1.3,0.5,7.3,0,9.8c-0.5,2.5-0.8,2.2-0.9,1.5c-0.1-0.7-0.1-6.3-0.2-8.2
	c-0.1-1.9,0.3-2.7,0.3-2.7l-1.2,0.7l-0.4-2.3l-0.4,3.1c0,0-0.1-1.7-0.3-3.2c-0.2-1.4-0.4-1.3-0.4-1.3s-0.9-0.9-1-1.3
	c0-0.4-1.6-2.6-1.6-2.6s0.1,0.3,0.2,0.8C68,33.3,69.9,41,69.8,41.3z"></path><path class="st0" d="M73.5,53.2c0.7-0.7,3.4-1,4.8-1.2s6.8-0.7,6.8-0.7s-0.8-1.6-0.5-1.4c0.3,0.1,2.7,0.3,2.7,0.3L87,49.4l1.1-0.6
	c0,0-0.1-0.8-0.7-1c-0.6-0.1-6,0-6,0s3.7-2,4.4-2.4c0.7-0.4,2.8-3.1,2.8-3.1s-2,0.1-1.1-0.5s0.7-2,0.7-2l0-1.3c0,0-11.5,11.8-12,12
	C75.7,50.8,73.5,53.2,73.5,53.2z"></path><path class="st1" d="M62.7,75.8c0.1-0.2,3.5-5.9,4.1-7.3c0.6-1.4,11-14.5,11-14.5s-1.5,0.7-1.9,0.6s-2,2.2-2,2.2s-1.6,0.6-2.4,0.5
	c-0.8-0.2-3.2,2.4-3.9,3.3c-0.7,1-0.4,2.5-0.4,2.5l-1.1,0l-2.2,1.9l-0.5-1.4L62.2,67L61,66c0,0-0.6,1.7-0.9,2.7
	c-0.3,1,0.7,3.6,1.5,6.1c0.8,2.5-1.2,6.8-1.2,6.8L62,81c0,0-0.1-1.2,0.8-2.6C61.5,77.1,62.5,76,62.7,75.8z"></path><path class="st0" d="M65.5,74.8c0.1-0.5,2.7-2.9,3.7-3.6c1-0.7,3-2.3,3.7-2.9s3.1-3.2,3.1-3.2l-3.6,1.2c0,0,0.7-0.7,1.4-1.5
	c0.8-0.8,2.8-4.1,2.8-4.1l-2.7,0.7c0,0,1.8-2.1,2.1-2.3s0.5-2.2,0.5-2.2l1.3-2.8c0,0-10.4,13.1-11,14.5c-0.6,1.4-4,7.1-4.1,7.3
	c-0.1,0.2-1.1,1.2,0.1,2.6C63.7,77,65.4,75.4,65.5,74.8z"></path><path class="st2" d="M86.2,57.9c3.1-0.9,6-0.4,6-0.4c-0.4-0.4-0.5-0.5-0.5-0.5s0.5-1,0.8-1.2c0.3-0.2-0.4-1.2-0.4-1.2L91,55
	c0,0,0,0-0.2-0.6c-0.2-0.6-1.3,0.4-1.3,0.4s-0.1-0.8-1-0.7s-2.3,1.8-2.3,1.8s0.7-1.8-0.2-1.7c-0.8,0.1-2.2,2-2.2,2l-0.6-1.8L81,57.1
	l0-2.5l-1.3-0.4l-2.2,2.7l0.3-2.8l-4,4.4l-0.7,3.2c0,0-1.7,4.2-1.8,4.5c3.2-2.7,7.5-5.5,8.3-6.2C80.6,59.3,83.1,58.8,86.2,57.9z"></path><path class="st2" d="M72.4,66.4c-0.5-0.1-0.8-0.1-0.9,0c0.4,0.5,2.5,1.6,2.7,1.8c0.2,0.2,3.1,2,4,2.3s2.3,1.3,2.3,1.3
	s-0.1-1.2,0.2-1c0.3,0.1,2.8,0.8,2.8,0.8s-1.2-1.7,0-1.4s3.6,0.9,3.6,0.9s-1.4-1.9-0.4-1.4s3,0.1,3,0.1s-0.8-0.9-0.1-0.7
	c0.6,0.3,1-0.3,1-0.3C88.6,67.4,74.5,66.8,72.4,66.4z"></path><path class="st2" d="M68,72.3l3.7-5c0,0-0.9-0.8-0.3-1c-0.1-0.1-0.1-0.1-0.1-0.2C68.2,68.9,68,72.3,68,72.3z"></path><path class="st0" d="M85.7,67.2l2-0.6c0,0-0.8-0.2-1.6-0.6c-0.8-0.4-6.5-0.2-6.5-0.2s3.2-0.4,4-0.3c0.9,0,6.6-1.1,6.6-1.1L88,63
	c0,0,0.6,0.2,2.5,0.3s1.9-0.6,1.9-0.6l-1.2-0.4c0,0,0.1-0.7-0.5-1c-0.6-0.3-1.1-0.8-1.7-0.9c-0.6-0.1-2.6,0.3-2.6,0.3s0,0,1.4-0.8
	c1.4-0.8,1.7-0.3,4.1-1.3c2.4-1,0.8-0.8,0.4-1.2c0,0-2.9-0.5-6,0.4c-3.1,0.9-5.6,1.4-6.5,2.1c-0.9,0.7-5.2,3.5-8.3,6.2
	c0,0,0,0.1,0.1,0.2c0.2-0.1,0.5-0.1,0.9,0c2.1,0.4,16.2,1.1,18,2.5c0,0-0.8-0.7-1.9-1.4C87.4,66.8,85.7,67.2,85.7,67.2z"></path><path class="st5" d="M66.5,89.5c-0.3,0.2-0.7,0.5-0.7,0.5l2.1,0.3l1.1,0.3l2.5-0.7c0,0,0.5-1,1.1-2.4c-0.8,0.4-1.7,0.7-1.9,0.8
	C70.3,88.3,66.8,89.3,66.5,89.5z"></path><path class="st0" d="M75.1,89.4c0,0,4.6-0.8,5.3-0.8c0.7,0,4-0.1,5.9-0.2c2-0.1,2.6-0.6,3.4-1.1c0.8-0.5-4.3-0.8-4.8-0.8
	c-0.5-0.1,0,0,1.3,0c1.3,0,4-1.3,4.8-1.6s1.7-0.6,1.6-0.9s-3-0.7-3.5-0.7c-0.5,0,0.7-0.4,0.9-0.5c0.3-0.1,3.4-0.8,4.7-1.3
	c1.4-0.5,2.5-1.5,2.5-1.5s-8.8,2.1-12.8,3.5c-4,1.4-8.4,2.8-9.1,3.2c-0.6,0.4-3.5,2.1-3.3,2.3c0.1,0.1-0.2,1-0.5,1.7
	c0.4-0.1,0.7-0.3,0.9-0.4C73.2,90.2,75.1,89.4,75.1,89.4z"></path><path class="st0" d="M69,74.8c-0.2,0.1-1.1-0.3-1.2,0.1c-0.1,0.4-1.4,1.2-2.2,1.4c-0.8,0.3-1.6,0.5-2.8,2.1
	c-1.2,1.6-6.1,4.3-6.1,4.3s0.4-1.2,0.7-2.1c0.3-0.8,3.8-4.2,4.2-5.9c0.4-1.7-0.1-1.8-0.1-2s-0.3-0.9-0.8-0.6
	c-0.5,0.3-1.3,0.2-1.3-0.1c0-0.3-0.3-1.8-0.6-1.8c-0.3,0-1.6,1.8-1.6,1.8s0.2-1.6,0.3-2.4c0.1-0.8-0.4-2.1-0.4-2.1s-1.5,1.1-1.3,0.4
	c0.2-0.7-0.8-2.4-0.8-2.4l-0.5,1.1c0,0-1.3-1.9-1.3-1.4c0,0,1.8,7.6,1.6,8.3s0.3,4.3,0.5,5.3c0.2,1,0.4,2.7,0.3,3.3
	c0,0.4,0,1.2-0.3,1.8c1,1.6-0.5,2-1,3.5c-0.6,1.8-3.5,6.9-4.7,8.4l1.4,2.9c0,0,1.7-3.4,2-3.9c0.3-0.6,3.6-8,4-8.5s2.1-2.5,3.2-3.4
	c1.1-0.8,4.6-4.1,6.4-5.4c1.8-1.3,2.6-1.3,2.4-1.8C69.1,75.3,69.2,74.7,69,74.8z"></path><path class="st2" d="M55.4,78.9c-0.2-1-0.8-4.6-0.5-5.3s-1.6-8.3-1.6-8.3c0.1,0.5,0.2,2.4,0.2,2.4l-0.9-1.8c0,0-0.6-0.5-0.7,0.2
	c0,0.7,0.5,4.6,0.5,4.6s-1.9-1.9-1.9-2.1c0-0.2-1-0.1-1.1,0.7c-0.1,0.7,0.1,2.1,0.1,2.1s-1.3-1.2-1.4-0.5c-0.2,0.7,0.3,2.5,0.1,2.3
	c-0.2-0.2-1-1-1.4,0.1c-0.5,1,1,1.8,1,1.8l-2.2-0.5c0,0,1.1,2.5,0.7,2.3c-0.5-0.2-0.5,0.8,0.7,1.9c1.2,1,5.9,2.5,7.9,4.6
	c0.2,0.3,0.4,0.5,0.5,0.7c0.3-0.7,0.2-1.5,0.3-1.8C55.8,81.6,55.7,79.9,55.4,78.9z"></path><path class="st1" d="M27.6,74.9c1.6,0.5,4.4,2.4,5.6,3.7c1.1,1.3,1-1.2,2.2,1.4c-0.4-1.1-0.5-5-0.3-5.6c0.2-0.6-0.7-3.4-0.7-3.4
	c-0.1-0.2-1-2-1-2s-0.9,2.2-1,2c-0.1-0.2-0.6-2-1.3-2.5c-0.7-0.6-1,0.3-1,0.3l0.3,1.9c0,0-2.2-2.6-2.8-2.6c-0.6,0-0.2,1.2-0.2,1.5
	c0.1,0.3-1.9-1.2-1.9-1.2l-0.9,1.1c0,0-0.8,0.4-2-0.5c-1.2-0.9-3.3-1.2-3.3-1.2l2.7,3.5c0,0-3.4-2.3-4.7-2.9c-1.3-0.5-2.2-1-2.3-0.7
	c-0.2,0.3-1.7-0.2-1.7-0.2S25.9,74.4,27.6,74.9z"></path><path class="st3" d="M35.4,80.1c0-0.1-0.1-0.1-0.1-0.2C35.3,80,35.3,80.1,35.4,80.1z"></path><path class="st2" d="M35.4,80.1c0,0-0.1-0.1-0.1-0.2c-1.1-2.5-1-0.1-2.2-1.4c-1.2-1.3-3.9-3.2-5.6-3.7c-1.6-0.5-14.4-7.3-14.4-7.3
	s0.7,2.6,0.9,2.8c0.2,0.2,1.1,0.8,1.1,0.8c-1.1,0.4-1.7,0.7-1.7,0.7s2.4,1.5,3.8,1.6c1.4,0.1,2.8,0.5,2.8,0.5s-3.1,0-4,0.4
	S14,75,14.5,75.2c0.6,0.2,2.2,1,2.2,1s-2.8,1.4-1.6,1.4c1.2,0,2.6,0.6,2.6,0.6l-0.6,0.5c0,0,2.1,0.7,2.6,0.7s3.3-0.2,3.3-0.2
	s0.3,1.1,0.6,0.9c0.4-0.1,2.1-0.4,2.6-0.5c0.4-0.1,3.9,0.8,4.3,0.8c0.3,0,3.7,1.4,5.2,2.1C35.8,81.7,35.7,80.9,35.4,80.1z"></path><path class="st3" d="M41.8,71.1C41.7,71.1,41.7,71.2,41.8,71.1C41.7,71.2,41.7,71.2,41.8,71.1z"></path><path class="st1" d="M47,71.4L45.4,73l-0.3-1.2c0,0-0.8,1.3-1.1,2.1c-0.3,0.8-0.4,1.8-0.6,1.4c-0.2-0.5-0.2-3.6-0.5-4.4
	c-0.3-0.7-0.9,0-1.1,0.3c0,0.1-0.1,0.1-0.1,0.1s0,0,0.1-0.1c0.3-0.4,1.4-1.9-0.2-1.8c-1.9,0.2-2.1,1.7-2.1,1.7s-0.9-1.4-1.6-1.6
	c-0.7-0.2-0.5,1.6-0.5,1.6s-1.2-1.6-1.9-1.8c-0.4-0.1-0.7-0.1-0.9-0.1c1.5,3.3,4.2,8.8,5,10c0.9,1.3,4.1,4.6,4.4,7.3
	c0.3-1.1,0.8-2.4,1.3-3.3c1-1.7,2.7-3,2.7-3l1.2-2.5l-0.8-4.6L47,71.4z"></path><path class="st0" d="M39.4,79.1c-0.9-1.1-3.5-6.7-5-10c-0.1,0-0.2,0-0.2,0s-0.7,1.2-1.1,2.2c-0.3,1-0.3,4-0.3,4l-1.6,3.1
	c0,0-1.2,1.4-1.9,2.3c-0.7,0.9-0.9,1.7-0.9,2.1c0,0.4,0.7,0.9,2.3,0.8s2.6-0.3,3.4-0.3s3.6,0.3,4.4,1.1c0.8,0.8,2.7,2.7,2.7,2.7
	l2,1.4c0,0,0.2-1,0.6-2.1C43.5,83.7,40.4,80.4,39.4,79.1z"></path><path class="st1" d="M39.8,47.3c-0.3-0.4-0.3-1-0.8-1.6c-0.5-0.6-5.8-7.1-6.2-7.9c-0.4-0.7-1.7-2.7-1.7-2.7L30.7,36l-1.3-1l0.6,2.4
	c0,0-0.9-1.1-1.2-1.6c-0.3-0.5-2.3-1.8-2.3-1.8s0.1,1,0,0.8c-0.1-0.2-2.6-1.5-2.6-1.5c1.9,2,15,14.2,16.3,15.4
	C40.3,48.9,40.1,47.7,39.8,47.3z"></path><path class="st2" d="M24.8,35.9c0.3,0.6,1.9,1.4,1.9,1.4l-2-0.2c0,0,0.7,1.1,1.3,1.7c0.5,0.6,5.2,3.3,5.8,3.6c0,0,0,0,0,0
	c0,0,0,0,0,0c-0.4-0.2-2.5,0-3.2,0.2c-0.8,0.3-2.4,0.4-1.6,0.8c0.9,0.4,1.8,0.7,1.8,0.7s-0.8,0.5-0.5,0.7c0.3,0.2,3.5,0,3,0.2
	s-1.2,1.5-1.2,1.5s0.7,0.1,1.5-0.2c0.9-0.3,1,0,3.2,0.2c2.2,0.2,3.7,0.7,5.6,2.3C39,47.6,25.9,35.4,24,33.4l0.3,1.4
	C24.3,34.9,24.4,35.4,24.8,35.9z"></path><path class="st1" d="M31.7,42.5C31.7,42.5,31.7,42.5,31.7,42.5C31.7,42.5,31.7,42.5,31.7,42.5z"></path><path class="st0" d="M38.9,25.7l-1.4,1.2c0,0-0.3-1.9-1.1-2.6c-0.8-0.6-0.9-0.9-0.9-0.9s-0.5,0.7-0.4,1.8c0.1,1.1,0.5,4.7,0.4,4.3
	c-0.1-0.4-3-7-3.4-7.2c-0.5-0.2-0.7,1.7-0.7,1.7s-1.4-1.3-2.5-2c-1.1-0.6-2.3-0.9-2.3-0.9c2.6,2.4,7.6,8.7,8.8,11.2
	c1.2,2.5,4.6,10.4,4.9,16.6c0.7,0.1,0.3-3.3,0.2-4c0-0.3-0.3-7-0.5-8c-0.2-1-0.8-6.1-0.7-7.9C39.4,27.1,38.9,25.7,38.9,25.7z"></path><path class="st1" d="M35.4,32.3c-1.2-2.5-6.2-8.8-8.8-11.2l1.5,3.3l-1,0.3c0,0,1.2,1.5,2.2,2.1c1,0.6,2.2,2.5,2.6,3.1
	c0.4,0.6,0.6,1.4,0.5,1.3s-3.1-3.3-3.7-3.4c-0.5-0.1-1.7-0.4-1.7-0.4l1,1.8l-1,0c0,0,1.8,1.7,2.4,2s-1.9,0.6-1.9,0.6
	s4.4,2.7,5.4,3.8c1,1.1,4.4,6.2,4.7,6.8c0.3,0.6,1.9,6.4,2.6,6.5C40,42.7,36.6,34.8,35.4,32.3z"></path><path class="st1" d="M44.9,27c0,0-1.3,1.5-1.4,1.8c0,0.3-0.7,0.3-0.7,0.3s-0.1,1.7-0.2,1.9s-0.3,1.1-0.3,1.1l-1.1-1.3
	c0,0-0.8,2.4-1,3.3c-0.1,0.9,0.3,14.2,0.3,14.3c0,0.1,1,0,1,0s1.6-6.9,1.8-7.4S44.4,30.1,44.9,27z"></path><path class="st0" d="M43.8,44.9c1.8-1.3,5.6-4.4,6.2-4.9c0.6-0.5,1.2-1.2,1.2-1.2l-2.3-0.1c0,0,2.4-1.6,2.4-1.9
	c0-0.4-0.6-0.4-0.6-0.4l0.3-1.3c0,0-3.6,1.4-4.2,1.8c-0.6,0.4-1.6,1.6-1.6,1.4c0.1-0.2,2.8-7.6,2.7-8c-0.1-0.4-0.7,0.2-1.1,0.4
	c-0.4,0.2-1.2,1.2-1.2,1c0-0.2,0.8-2.1,0.6-2.8c-0.2-0.7-0.2-0.7-0.2-0.7L44.9,27c-0.5,3.1-1.3,13.6-1.5,14.1s-1.8,7.4-1.8,7.4
	C41.9,47.6,42,46.1,43.8,44.9z"></path><path class="st1" d="M64.1,89.7c-0.1-0.3,4.2-6,4.8-7.4c0.5-1.2,3-6.7,3.7-8.1c-0.2-0.1-0.3-0.2-0.5-0.1c-0.6,0.3-0.5,1.5-0.5,1.5
	s-1-1.6-1.3-1c-0.3,0.7-1.6,3.5-1.6,3.5L68,76l-1.6,0.1L65.6,78l-1,6.7c0,0,0-2.1,0-2.3s-0.3-2.1-0.5-2.6c-0.2-0.6,0-4.4,0-4.4
	l-2.8,5.5L59,80.2c0,0,0,1.1,0.1,1.8c0.1,0.7,2.2,3.5,2.3,4.1c0.1,0.7,1.2,3.4,1.1,4.7c-0.1,1.3-0.4,1.4-2.5,2.6
	c-2.3,1.3-7.3,2.9-8.5,3.3l-1.4,2.2c0,0,0.7-0.1,1.2-0.4c0.5-0.3,3.5-1.2,4.7-2c1.3-0.7,6-3.1,7.7-3.6c0.1-0.7,0.2-1.5,0.1-1.7
	C64.1,90.8,64.1,90,64.1,89.7z"></path><path class="st2" d="M68.4,91.9c1.2-0.3,2.4-0.7,3.3-1.1c0.3-0.8,0.6-1.6,0.5-1.7c-0.2-0.2,2.6-1.9,3.3-2.3c0.6-0.4,5.1-1.8,9.1-3.2
	c4-1.4,12.8-3.5,12.8-3.5l-1.8-0.1c0,0-0.3-0.9-1.5-0.6c-1.2,0.3-4,1.1-4,1.1s1.5-1.7,0.8-1.6c-0.8,0.1-2.4,1-2.4,1s0.1-0.8-1-0.9
	s-2.5,2-2.8,1.8c-0.2-0.2-3.4,0.2-3.4,0.2l0-1.4L78,81.2c0,0,0.9-1.7,0.5-1.6s-3.1,1-3.1,1c0,0.3-0.6,1.6-1.3,3.1l0.1,0.1
	c0,0,0.5,2-0.1,2.6c-0.3,0.3-0.9,0.6-1.6,1c-0.6,1.4-1.1,2.4-1.1,2.4l-2.5,0.7l-1.1-0.3L65.8,90c0,0,0.5-0.3,0.7-0.5
	c0.3-0.2,3.8-1.1,4.2-1.3c0.2-0.1,1-0.4,1.9-0.8c0.5-1.1,1.1-2.5,1.6-3.7l-0.9-1.1L70.8,83c0,0,1-0.6,1.7-1.5c0.7-0.8,1.3-3,1.3-3
	L72.3,79l0.6-1.1l1-1.9l-1.3,0.3l0.5-1.4c0,0-0.2-0.5-0.5-0.7c-0.7,1.4-3.2,6.9-3.7,8.1c-0.6,1.4-4.9,7-4.8,7.4c0.1,0.3,0,1.1,0,1.5
	c0,0.2-0.1,1-0.1,1.7c0,0,0,0,0,0C65.7,92.3,66.7,92.4,68.4,91.9z"></path></g></svg>