<?xml version="1.0" encoding="utf-8"?>
<!-- Generator: Adobe Illustrator 27.4.1, SVG Export Plug-In . SVG Version: 6.00 Build 0)  -->
<svg version="1.1" id="Layer_1" xmlns="http://www.w3.org/2000/svg" xmlns:xlink="http://www.w3.org/1999/xlink" x="0px" y="0px"
	 viewBox="0 0 108 108" style="enable-background:new 0 0 108 108;" xml:space="preserve">
<style type="text/css">
	.st0{fill:#4D8238;}
	.st1{fill:#8FC16D;}
	.st2{fill:#51A252;}
	.st3{fill:#26632D;}
	.st4{fill:#55954D;}
	.st5{fill:#3E8541;}
	.st6{fill:#3D8440;}
	.st7{fill:#3C8240;}
	.st8{fill:#2B8643;}
	.st9{fill:#5A7D4D;}
	.st10{fill:#4E9D4F;}
	.st11{fill:#AECC7A;}
	.st12{fill:#55A854;}
	.st13{fill:#4B9B4D;}
	.st14{fill:#469248;}
	.st15{fill:#4E843C;}
	.st16{fill:#61A758;}
	.st17{fill:#4F9E4F;}
	.st18{fill:#2F8D48;}
	.st19{fill:#587C4D;}
	.st20{fill:#40AF5C;}
	.st21{fill:#5CB35B;}
	.st22{fill:#75B958;}
	.st23{fill:#A4C892;}
	.st24{fill:#92C37C;}
	.st25{fill:#85B271;}
	.st26{fill:#D0D1B2;}
	.st27{fill:#89A076;}
</style>
<g>
	<path class="st0" d="M68,71.2c-0.1,1.1,0.8,1.5,0.4,1.9s-1.7,0.7-1.7,1.4c-0.1,0.7,0.3,2.4-0.3,2.9c-0.6,0.5-0.2-1.1-0.9-0.4
		s-0.6,1.3-0.9,1.8c-0.3,0.5-0.4,1.5-1.2,1.7s-1,1.4-1.3,1.4c-0.3,0-0.9,0.4-1.2,0.2c-0.3-0.1-1,0.7-1.3,1.8c-0.3,1.1-1,1.4-1,1.4
		s-0.9,0.3-1.2,0.8S57,86.7,57,86.7s-0.9,0.2-1.7,1c-0.8,0.8-1.5,1.1-1.5,1.1l-0.2-0.8c0,0-0.1,0.9-1.7,1.2
		c-1.5,0.3-2.4,0.5-2.4,0.5l-0.2-1.2c0,0-1.9,0.6-3.6,0.9c-1.7,0.3-2.7,0-4.1,0.4c-1.4,0.5-2.1,0.6-3.3,0.7
		c-1.2,0.1-2.7-0.2-2.7-0.2s-1.1-0.8-1.2-1.1s-0.5-2.5-0.6-3c-0.1-0.5-0.3-1.3-0.3-1.7s-0.5-1.3,0.2-2c0.6-0.7,1-1.2,1.3-1.6
		c0.3-0.3,0.4-1,0-0.8c-0.4,0.1-0.8-0.6,0.2-1.3c1-0.7,2.1-1.5,2.1-1.5l-1.2-0.7c0,0,2-1.1,3-2.6c1-1.4,0.8-2.4,0.8-2.4l2.3-1
		c0,0,2.2-0.8,2-1.4c-0.2-0.6-0.9-1.3,0.1-2.1c1-0.8,1.7-1.7,1.7-1.7s-0.7-1.2,0.3-2c1-0.9,2.2-1.9,2.4-2.1c0.2-0.2-0.3-0.1,1.4-0.7
		s3.5-2.3,4.1-2.2c0.6,0,3.5-1.1,4-1.3s5.2-1.1,5.8-0.9c0.6,0.2,4.1,3.2,4.1,3.2l1.4,3.6c0,0-0.7,2.6-0.7,3
		C68.8,66.4,68,71.2,68,71.2z"/>
	<path class="st1" d="M59.7,62.6c-0.6,0.8-4.7,7.9-4.7,7.9s-0.4,0.8-0.3,2.7c0.1,1.9-0.7,8.1-1.1,9.1c-0.2,0.4-0.4,1-0.6,1.5
		c-0.3,0.6-0.5,1.2-0.9,1.4c-0.6,0.4-1,0.2-1,0.2s2.9-3.6,2.9-9c0-5.4-0.6-4.6-0.6-4.6s-1.5,1.6-2.2,3c-0.8,1.4-1.9,2.5-1.9,2.5
		s-0.7,2.1-0.7,2.4c0,0.3-1.3,4.7-1.9,5.2c-0.5,0.5-0.8,0.2-0.8,0.2s0.1-0.1,0.6-1.5c0.5-1.4,0.7-3,0.8-3.5c0.2-0.5,0.4-1.2,0.4-1.2
		s-5.3,5-6.2,5.7S36.4,88,36.4,88s5.1-4.8,5.8-5.3s3.9-3.8,4.7-4.6s2.6-2.8,3.2-3.4s1.6-2,1.6-2s-0.1-0.5-1.2,0s-2.5,1.1-3.4,1.5
		c-0.8,0.4-2.2,1-2.4,1c-0.2,0-0.1-0.8,0.7-1c0.8-0.2,6.5-2.5,7.2-2.4c0.7,0,0.9-1.2,1.1-1.5c0.2-0.3,2.2-3,2.3-3.2
		c0.1-0.2-0.6-0.4-0.8-0.4c-0.1,0-0.3,0.2-0.6,0.3c-0.7,0.4-2,1.2-2.9,1.4c-1.2,0.3-2.8,0.8-3.5,1.4c-0.7,0.6-2.6,1.9-2.5,1.7
		c0.2-0.6,4-3.5,5-3.3c1,0.2,5.8-2.3,5.8-2.3s0.9-0.7,1.2-1.1s0.8-1.4,0.9-1.9C58.7,62.6,59.7,62.6,59.7,62.6z"/>
	<path class="st2" d="M56.6,84.6c0-0.1-0.2-0.5-0.1-1c0-0.3,0.1-0.6,0.4-0.9c0.7-0.9,1.4,0.1,1.4-0.3c0.2-1.4,0.5-2.4,0.9-2.4
		c0.4,0,1,0.5,1.5,0.6s1.1-0.1,1.2-0.6c0.1-0.5,0-1,0.7-1.2s1,0.4,1.1-0.2c0.1-0.6,0-1.3,0.2-1.8c0.2-0.4,0.6-0.3,0.5-1
		c-0.1-0.7-0.7-0.6,0.2-1.6c0.9-0.9,0.9-1.2,0.6-1.5s-0.5-0.2-0.7-1.5c-0.2-1.2-0.8-4.2-0.9-4.6s-0.7-0.6-0.1-1.6s1.6-1.2,0.2-1.5
		c-1.3-0.3-2.6-0.4-3-0.2c-0.4,0.3,0,0.7-0.5,1.6c-0.5,0.9-0.4,0.8-1.2,1.7s-2,1.7-1.9,2.3c0.1,0.7,0.5,0.9,1.3,1.2
		c0.7,0.3,1.2-0.5,1.5,0.6c0.3,1.1,0.3,1,0.3,1.7c0,0.7,0.3,0.6,0,1.6c-0.2,1-0.5,1.7-0.8,1.7c-0.3,0.1-1.7,1.6-1.9,2
		s-0.6,1.5-0.1,1s0.4-1.3,1.3-1.7c0.8-0.4,1-0.4,1.7-0.5c0.7-0.1,1.3,0.1,1.1,0.7c-0.1,0.6-0.4,0.9-0.8,1.1c-0.4,0.2-0.8,0-1.2,0.4
		c-0.4,0.3-0.7,0.7-0.9,0.9c-0.2,0.2-0.9,0.9-0.9,1.1c0.1,0.2-0.2,0.5-0.4,0.8c-0.3,0.2-1.1,1.1-1.1,1.1l0.4,1.8"/>
	<path class="st3" d="M48.7,84.8c0.2-0.4,0.1-0.9,1-1.3c0.9-0.4,1.8-0.7,1.8-0.7c-0.7-0.2-1.3-0.5-1.6,0.1c-0.2,0.6-0.8,0.3-1.1,0.6
		C48.6,83.8,48.7,84.8,48.7,84.8z"/>
	<path class="st2" d="M56.8,62.2c-0.8,0.3-3.5,1.4-3.7,1.7c-0.2,0.2-0.7,0.9-1.2,1c-0.5,0.1-1.5,0-1.8,0.4s-0.3,1.5-0.5,1.7
		s-1.4,0.9-1.9,0.8c-0.6-0.1-1.7,0.4-1.9,0.5c-0.2,0.1-0.7,0.1-0.1-0.5s2.8-1.7,2.1-1.7c-0.7,0-1-0.6-1-0.8c0-0.2,0.6-1.5,0.9-0.8
		c0.3,0.6,0.3,1,1,0.7c0.7-0.3-0.3-0.1,1.2-0.8c1.6-0.7,1.8-0.6,2.5-1.1c0.7-0.4,1-1.2,1.9-1.4c0.9-0.2,1.9,0.1,1.9,0.1L56.8,62.2z"
		/>
	<path class="st3" d="M44.9,86.7c-0.8,0.5-0.6,0.8-1.1,1c-0.4,0.2-0.8,0.3-1.4,0.3c-0.6-0.1-2.1,0.8-2.1,0.5
		c0.1-1.1,0.6-1.1,1.4-1.2s0.9,0,1.2-0.2C43.3,86.9,44.9,86.7,44.9,86.7z"/>
	<path class="st4" d="M55.8,63.9c0,0-1.6,0.2-2.9,0.6c-1.3,0.4-1.4-0.4-1.4-0.4s-0.8-0.4-1.8-0.2c-1,0.2-1.4-0.3-2.2-0.9
		c-0.8-0.6-1.9-2.1-2.1-2.6s-0.2-1.2-0.2-1.2s-0.3-1.2-0.8-1.3c-0.5-0.1,0.2-1.5-0.4-1.9c-0.5-0.4-1.7-1.2-1.8-1.5
		c-0.1-0.4,0.8-0.9,0.8-0.9s-2.8-2.5-3-3.2c-0.2-0.7-0.3-1.3-0.3-1.3s-0.9-1.9-1-2.6c-0.1-0.7,0.2-1.5,0.2-1.5
		c0.1-1.7-0.4-2.9,0-3.4c0.4-0.6,1.1-0.2,1.1-0.2s-0.3-1.7,0.1-2.1c0.4-0.4,0.3-2.2,0.6-2.8c0.3-0.6,0.8-1.2,1.1-1.3
		c0.3-0.1,2.3-0.6,3.2,0c0.9,0.6,1.1,0.9,1.6,0.7c0.4-0.2,1.3-0.3,1.3-0.3s1.5,2.1,2,2.8c0.4,0.8,1.1,0.4,1.1,0.4s0.2-0.7,1.1,0.2
		c0.8,0.9,1.1,1.7,1.8,1.7s1.6,0.4,1.6,0.4l2.4,2.5c0,0,1.3,1.7,1.8,2c0.5,0.4,1.5,1.6,1.5,1.6s1,1.9,1.1,2.2c0,0.2,0.6,2.9,0.6,2.9
		s0,2.3-0.2,3s-0.8,3.2-1.3,3.5s-2.4,3.1-2.4,3.1L55.8,63.9z"/>
	<path class="st1" d="M57.4,57.6c0,0-1.2-1.1-1.4-1.3c-0.2-0.3,1.9-5.3,1.8-5.9c-0.1-0.6-0.5-1.1-0.5-1.3c0-0.2-0.2,1.9-0.2,2.4
		c0,0.5-1.9,4-1.9,4s-0.6-1.3-0.9-1.5s-0.1-0.2-0.1-0.6c0-0.1,0-0.4,0-0.8c0-0.3,0-0.7,0.1-1.1c0-0.5,0.1-0.9,0.1-1
		c0-0.1,0.1-0.7,0.3-1.3c0.2-1.1,0.4-2.5,0.3-2.5c-0.2,0-0.6,0-0.6,0L53.4,53c0,0-0.3-0.4-0.8-1c-0.5-0.6-2.1-3.9-2.3-4
		c-0.1-0.1-0.2-0.9-0.1-1.5c0-0.3,0.1-0.5,0.1-0.6c0.2-0.4,0.4-2.2,0.2-2.3c-0.1-0.1-1.1,0.5-0.9,1.1c0.2,0.6,0.1,2.3-0.4,1.6
		c-0.6-0.7-2.1-3.3-2.3-3.5c-0.2-0.3-2.8-2.9-2.8-2.9s4.7,7.4,5,8c0.4,0.5-0.8,0-1.6-0.3c-0.7-0.3-2-0.7-2-0.7s3.2,1.7,3.7,1.8
		c0.4,0.1,1.6,0.7,1.5,1.1c-0.1,0.4,1.1,1.4,1.2,2.1s-2.6,0.6-3.1,0.6c-0.5,0-2.2-0.6-2.3-0.6s-0.8,0-0.7,0.2c0.2,0.2,1.9,0.9,3,1.1
		s1.9,0.2,2.5,0.2c0.7,0,1.4,0.5,1.8,0.9c0.5,0.5,1.3,1.5,1.1,1.7s-1.7,0.4-2.3,0.4c-0.7,0-2.6-0.3-3.2-0.3s-2.3-0.2-2.3-0.2
		s-0.4,0.8,0.9,0.9c1.3,0,4.6,0.1,4.9,0.1c0.3,0.1,2.3-0.2,2.7,0c0.4,0.1,1.3,0.5,1.3,0.5l0.4,0.5L57.4,57.6z"/>
	<path class="st5" d="M52.3,56.8c-0.9,1.7-0.6,2.4-1.2,2.5c-0.6,0.1-0.7-0.1-1.3-0.5s-1.1-0.3-1.6-0.1c-0.4,0.2-0.9,0.2-1,0
		s-1.3-0.2-1.5-0.9c-0.2-0.7-2-1.2-1.2-1.8c0.8-0.6,1.1-0.6,0.6-1.4s-2-1.2-2.1-2s-0.2-1.5,0.4-1.7c0.6-0.1,1.5,0.1,1.2-0.2
		s-0.7-0.1-0.5-0.6c0.1-0.5,0.6-1.7,0.9-2c0.3-0.3,1.1-0.5,0.3-0.3c-0.8,0.2-1.3,0.5-1.5,0.9s-0.6,1.1-0.6,1.1s-0.8-0.4-0.9-0.7
		c-0.1-0.3-0.2-0.1-0.1-0.7c0.1-0.7,1.9-1.8,1.6-2.1c-0.3-0.2-1.3,1.1-1.9,1c-0.5-0.1-0.9,0.4-1.1-0.5c-0.2-0.9-1-1.5,0.1-1.9
		s1.8-0.4,1.8-0.4s-0.2-0.9-0.7-0.8c-0.5,0.1-0.9,0.1-1.3,0.5c-0.4,0.4-0.6-0.1-0.6-0.1s-0.8,0-0.7,0.6c0.1,0.6-0.1,0.3,0.2,1.1
		c0.3,0.7,0.5,1.1,0.7,1.7c0.1,0.6-0.3,0.6,0,1.5c0.3,1,0.7,1.3,1.3,1.9s0.6,0.7,0.9,1.7c0.3,1,1.3,1.8,1.3,2.1
		c0,0.2-0.8,2.3,0.4,3.2c1.2,0.8,1.5,1.3,2.5,1.5s1.1,1.4,1.1,1.4s0,1.7,0.9,2.4s3.5,0.3,3.9,0.2c0.4,0,1.1-0.3,1.8-0.4
		c0.7,0,0.3-1.2,0.5-1.6c0.2-0.5-0.4-1.3,0.5-1.4c0.8-0.1,0.7-1.1,0.7-1.1s-0.2-0.5-0.5-0.6s-0.4,0.1-0.8-0.2
		c-0.4-0.3-1.5-0.7-1.5-0.7L52.3,56.8z"/>
	<path class="st6" d="M55.9,45.8c-0.3,0.2-1.8,0.5-1.8,0c0-0.4-0.2-1.4-0.3-1.7c-0.1-0.2-1.8-0.3-1.9-0.7c-0.1-0.5,0.5-1.3-0.3-1.4
		c-0.8,0-1.6,0-1.9,0.2c-0.3,0.2-1.1-0.7-1.1-0.7s-0.8,0.4-1.1,0.2c-0.2-0.2-0.6,0.2-0.7-0.6c-0.2-0.8-0.2-1.7-1.1-2.5
		s-0.3-0.7-0.8-0.9c-0.6-0.1-0.7,0.1-1.1,0.1c-0.5,0-0.8,0.9-0.8,0.2s-0.3-1.2,0.6-1.1s1.8-0.1,2.3,0.5c0.4,0.6,1.8,1.5,1.8,2.2
		s0,1.7,0.1,0.7c0.1-1.1,0.2-1.9,0.8-0.8c0.6,1.1,0.9,1.8,1.3,1.9c0.3,0.1,0.4-0.2,0.9-0.2c0.5,0.1,0.9,0.4,1.6,0.6s1-0.2,1.3,1.1
		s1.1,1.6,1.7,1.8c0.6,0.2,2.1,0.6,2.1,0.6s2.4,0.8,2.3,1c-0.1,0.2,0.1,1.3,0.4,1.8c0.3,0.4,1.9,0.7,1.9,2.1c0,1.3,1.3,2.6,0,2.8
		c-1.3,0.2-1.9,0.3-2.4,0.5c-0.4,0.1-0.9,1.2-1.1,0.6c-0.1-0.5-0.4-0.2,0.1-0.9c0.4-0.6,1.1-0.9,1.1-1.6c0.1-0.7,0.5-1.4-0.1-2.1
		s-2.3-1.4-2-1.7c0.3-0.3,1,0.3,0.3-0.3c-0.7-0.6-0.9-0.7-1.5-1.2C55.9,45.8,55.9,45.8,55.9,45.8z"/>
	<path class="st7" d="M70.8,65.4c0,0,2.5-0.2,3.4-1.2c0.9-1.1,0.8-2.2,2.1-2c1.4,0.2,2.2,0.3,2.8,0.1s0.5-1.2,0.5-1.2
		s-0.1,0.1,1.5-0.3c1.5-0.4,2.1-0.4,2.1-0.4s-1-0.4-0.9-0.7c0.1-0.3-0.6,0.4,1.1-1s2.9-2.5,3.3-3.5c0.4-1,0.7-2,1-2.5
		s0.9-1.7,1.2-2.2c0.3-0.6,1-3.5,1.2-4.1s0.9-2.3,1.1-3.1s0.6-2,0.6-2s-1.2-0.6-1-2.3c0.1-1.6,0.1-2.8-0.1-3.4s-0.8-0.9-1.6-1.3
		s-1.3-0.3-1.3-0.3s-0.7,0.4-1.9,0.4s-1.4,0.9-2.2,0.4c-0.7-0.4,0-1.1-0.9-0.9c-0.9,0.3-0.9,0.2-2.1,0.8s-1.8,1.8-2.1,2
		c0,0-0.9-0.3-2.1,0.6s-2.3,1.9-2.3,1.9s0.1-0.6-0.9-0.2c-1,0.4-2.8,1.8-4.2,2.8c-1.4,1-2,1.5-2.5,2.3c-0.5,0.8-1.1,1.9-2.3,2.7
		c-1.2,0.8-2.8,2-2.9,2.3c-0.1,0.3-0.6,2.6-1.1,4s-0.9,4.7-1,4.9s0.3,1.9,0.6,3s3.3,2.7,3.9,2.9c0.6,0.2,3.1,0.8,3.6,0.9
		C67.9,65.2,70.8,65.4,70.8,65.4z"/>
	<path class="st1" d="M61.7,57.1c0,0,2.1-0.2,3.7-1.2c1.5-0.9,5.2-3.2,5.6-3.5c0.4-0.3,3.9-3.7,4.8-4.1c0.9-0.4,5.2-4.2,5.3-4.6
		c0.1-0.4,0.9-1.8,0.9-2c0-0.2,0.6-1.2,0.6-1.2L82,43.3c0,0,1.5-1.6,2.1-2.1c0.6-0.5,2.5-1.8,2.5-1.8s-5.7,5.5-5.9,5.7
		c-0.2,0.2-3.5,3.5-3.8,3.6c-0.3,0.2,2.6,0.9,4.1,0.2c1.5-0.7,2.4-1,3.6-1.8s1.4-0.8,2.1-1.4s-2.8,2.3-3.6,2.7s-2.7,1.1-3.7,1.3
		c-1,0.1-4.2,0.2-4.5,0.5c-0.3,0.2-1.9,1.4-2.3,1.8s-1,1-1.2,1.2c-0.2,0.1-0.9,0.8-0.3,0.7c0.6-0.1,2.7-0.7,4.2-0.3
		c1.5,0.3,1.8,0.3,2.9,0.3c1.2,0,1.4-0.4,2.5-0.5c1.1-0.1,1.7-0.2,2-0.3c0.2-0.1-2.2,0.9-3.6,1.2c-1.4,0.2-2.4,0.4-3.6,0.2
		c-1.2-0.2-2.9-0.2-3-0.1c-0.2,0-2.2-0.2-2.2-0.2l-1.3,0.3l-4,2.1c0,0-1,0.9-1.5,0.9C62.8,57.3,61.7,57.1,61.7,57.1z"/>
	<path class="st2" d="M75.1,61.5c0.4-0.6,1.3-0.3,1-1s-0.7-0.7-0.6-1.6c0.1-0.9,1.5-2.2,1.8-2.1c0.3,0.1-0.5,1-0.4,1.5
		c0.1,0.5,0.6,0.4,1.2,0.1c0.7-0.3,2.1-0.8,1.7-0.3c-0.5,0.5-2.2,0.6-2.4,0.8c-0.2,0.3-1.1,0.8-0.9,0.8c0.2,0,0.6,0.7,0.9,0.9
		c0.3,0.2,0.5,0.6,1.2,0.2c0.7-0.4,1.7-0.9,2-1.2c0.3-0.3,0.6-0.4,1.3-0.9c0.8-0.5,1-0.8,1-1.2c0-0.4,0.8-1.9,1-2c0.2,0-1,0.8,0.2,0
		c1.3-0.8,1-0.7,1.1-1.7s-0.6-1,0.1-1.8c0.7-0.8,1.1-0.6,1.4-1.2c0.3-0.5,0.6-2,0.6-2s-0.9,0.2-0.9-0.1c0-0.2-0.1,0.3,0.5-0.5
		c0.6-0.7,0.6-1.1,1-1.4c0.3-0.2,0.9-1.2,1-0.6c0.1,0.6-0.1,0.3-0.5,2s-1.1,2.9-1.5,3.7c-0.4,0.8-1.5,2.8-1.9,3.5
		c-0.4,0.7-2.6,4.1-2.6,4.1s-1.5,1.6-2.6,1.4s-2.2,0.4-2.2,0.4s-0.3-0.3-0.8-0.3S75.1,61.5,75.1,61.5z"/>
	<path class="st2" d="M63.7,55.7c0.4-0.2,1.9-1,2.8-1.5c0.9-0.5,1.4-0.8,1.9-1.2c0.5-0.4,0.5-0.9,0.9-1.6c0.4-0.7,0.4-1.5,0.9-1.6
		c0.5-0.1-0.2-0.9-0.5,0.1c-0.2,1-1.6,1.7-1.6,1.7s-0.7,1.4-1,1.5s-0.7,0.6-1.1,0.6s-0.6,0.2-0.8-0.1s-0.7-0.9-0.3-1.3
		c0.4-0.4,1-1.2,1-1.2s-1.9,0.1-2.1,1c-0.2,0.8,0.1,1.3,0,2s-0.3,0.9-0.8-0.3c-0.5-1.1-1.2-1.2-0.4-2.1s1.1-1.6,2.3-1.9
		c1.1-0.3,1.8-0.1,1.9-1.1c0.1-1-0.2-1.6,0.9-2.1c1.1-0.6,1.7-0.7,2.2-0.4c0.4,0.3,1,1.4,1.3,0.2c0.3-1.2-0.9-1.4,0.5-1.8
		s1.1,0.1,2,0.2s1,0.6,1.8-1c0.8-1.5,0.6-1.6,1.6-1.5s1.1,0,1.3,0.2c0.2,0.3,1.3-0.3,1.3-1.2c0-0.9-0.2-1.7,0.6-2.3
		c0.8-0.6-0.2-1.2,0.7-1.6c1-0.4,0-0.6,2.1-0.4s1.8,1.1,2.5,0.4c0.7-0.6,0.9-1.9,1.4-1.5c0.6,0.4,1.1-0.6,0.5-0.3
		c-0.5,0.3-3.8,0.4-4.5,0.5c-0.7,0.1-2.2,0.6-2.7,1.2c-0.6,0.6-0.2,1-0.7,1.5c-0.5,0.5-0.4,0.4-2.9,0.6c-2.6,0.2-2.8,0-3.1,0.9
		s-0.1,0.9,0,1.4c0.1,0.4,1.4-0.2-0.4,0.6c-1.8,0.8-2.4,1-2.9,1.6s-1.1,0.9-1.7,1.4c-0.6,0.5-0.5,0.7-1.6,1.5c-1,0.8-1,0.9-1.5,1.5
		c-0.4,0.6-0.9,0.7-2,1.3c-1.1,0.6-1.3,0.2-1.6,1.2c-0.4,1.1-0.7,2.1-0.6,2.4s0.4,0.7,0.3,1.6c-0.2,0.9-0.8,0.7-0.2,0.9
		s0.7,0.5,1,0.4C62.7,55.8,63.7,55.7,63.7,55.7z"/>
	<path class="st8" d="M59.5,76.9c0.1,0.4,0.5,1.5,0.9,2.3c0.4,0.8,0.5,0,0.7,0.2c2,2.1,2.9,2.2,2.9,2.2s0-0.8,0.3-0.9
		c0.3-0.1,1.3,0.6,1.7,1.2c0.4,0.6,0.5,1.4,0.9,1.4s1.7,0.2,2.2,1.1c0.5,0.9-0.2,0.8,0.5,0.9c0.7,0.1,1.5-0.8,1.6-0.3
		c0.2,0.4,0.1,0.2,1.5,1.1c1.3,1,1.4,1.6,1.7,1.5s0.5-0.6,0.5-0.6s1,1.3,1.5,1.5s1.1,0.3,1.1,0.3s0.9-0.8,0.9-1.1c0-0.3,0-0.3,0-0.3
		s0.9,0.3,1.7,0.9s1.8,0.7,1.8,0.7l0.1-1.6c0,0,0.8,0.3,2.7-0.1c1.9-0.4,2.4-0.3,2.7-1.7c0.3-1.4,0.2-2.7,0-3.3
		c-0.2-0.6-0.7-1.5-0.7-1.5s0.9-2.9-0.3-3.4c-1.2-0.5-1.2-0.5-1.2-0.5l1.3-0.8c0,0-0.9-1.5-1.9-1.7c-1-0.2-1.7-0.7-1.5-1.1
		c0.1-0.4,0.8-1.2,0.8-1.2s-0.4-0.2-1.2-0.7c-0.8-0.5-2-1.1-2.5-1.9c-0.5-0.8-1.5-1.7-1.6-2s0.4-0.1-0.2-0.3s-2-0.2-2.1-0.5
		c-0.1-0.4,0.5-0.6-0.5-1.3c-1-0.7-0.9-1.3-2-1.5c-1.1-0.3-1.9-0.5-2.8-0.5c-0.9,0.1-1.4,0.3-2.4,0.2c-1,0-4.2,0.5-5.1,1.3
		c-1,0.7-3,3.3-3.2,3.6s-0.4,2.2-0.6,2.8C59.7,71.6,59.5,76.9,59.5,76.9z"/>
	<path class="st1" d="M63.6,69.6c0.3,0.4-0.6,2.3,0.1,3.9c0.7,1.6,1,4.1,1.6,4.6c0.6,0.5,2.6,2.8,2.6,2.8s-1.6-2.3-2-2.9
		c-0.4-0.6-1.2-2.8-1.3-3.1c-0.1-0.3-0.6-2.8-0.6-2.9c0-0.2,0.4-1.5,0.4-1.5l2.6,1.6c0,0,1,3.4,1.5,5s2.2,3.9,2.5,4.4
		s1.9,2.1,1.9,2.1s-1.8-2.5-2.1-3.6c-0.3-1-1.9-2.6-2.3-4.9s-0.8-3-0.8-3s3,1.6,3.5,2.4c0.5,0.8,1.5,1.5,1.6,2.2s1.8,4.3,2.6,5.2
		s2.4,2.3,2.4,2.3s-3-4-3.6-5.7c-0.6-1.7-0.1-1.8-0.1-1.8s2.9,1.9,3.6,2.5c0.7,0.6,2.1,2.1,2.1,2.1l2.1,1.4c0,0-2.4-3-2.3-2.5
		c0.1,1.1-2.5-1.5-4.3-3.5c-0.8-0.9-2.5-1.5-2.5-1.5s1.9-0.3,2.5-0.3c0.5,0,4.4,0.1,4.9,0.3c0.5,0.3,2.4,0.7,2.4,0.7S81.6,75,81,75
		c-0.6,0-3.6-0.7-4.2-0.6c-0.7,0-2.1-0.3-3-0.1c-0.8,0.3-1.5,0.3-1.5,0.3l-1.7-1c0,0-1.8-1.4-2-1.5c-0.2-0.1-1.2-0.7-1.2-0.7
		s4.3-0.6,4.8-0.5c0.5,0,3.5,0.2,3.9,0.3c0.4,0.1,2.5,0.9,2.5,0.9l0.9,0c0,0-3.2-1.5-3.9-1.5c-0.7,0-6.1-0.1-6.6,0
		c-0.5,0.1-2.2,0.4-2.2,0.4l-1.8-1L63.9,69c0,0,2.1-0.7,3.3-0.9s1.8-0.7,3.1-0.6s3.2-0.2,3.5,0C74.1,67.6,75,68,75,68
		s-2.2-1.2-2.7-1.1c-0.5,0.1-3.5,0.2-4.1,0.3s-3,0.5-3.5,0.7s-1.3,0.6-1.3,0.6l-0.7,0L63.6,69.6z"/>
	<path class="st2" d="M84.9,80.6c0,0-1.2-1.2-1.8-1.2c-0.6-0.1-1.8,0-2,0c-0.3-0.1-1.3-0.1-1-0.3c0.2-0.2,1.3-0.1,1.6-0.3
		c0.3-0.2,0.3-0.5,0.4-1.1s-0.9-0.8-0.2-1.2c0.6-0.4,0.4,0.7,0.9,0.9c0.5,0.1,1.7-0.3,1.7,0.3c0,0.6,0.7,0.6,0,0.6s-1.8,0-1.2,0.3
		s0.7,0,1.4,0.6c0.7,0.6,1.2,1,1.2,1L84.9,80.6z"/>
	<path class="st2" d="M63.9,79.2c0,0-0.8-0.9-0.7-1.3c0.1-0.4-0.1-0.7,0.2-1.1c0.3-0.4,0.9-1.3,0.4-0.9c-0.5,0.4-1.1,1.4-1.1,1.4
		s-0.4,0.1-0.8,0.2s-1.6,0.3-0.4,0.5c1.2,0.2,0.9-0.3,1.2,0.2C62.9,78.4,63.9,79.2,63.9,79.2z"/>
	<path class="st2" d="M81.9,85.9c-0.4-0.1-1.3-1.4-2.4-1.1c-1.1,0.3-1.2,0.5-1.8,0.7S77,86,76.1,85.4c-0.9-0.6-1.8-1-2.4-1.1
		c-0.6-0.1-1.4-0.5-1.8-0.7c-0.4-0.2-0.5-1.1-1.2-0.9c-0.6,0.2-0.5,0.5-0.7,0.8c-0.2,0.3,0,0.4,0.7,0.8s2.1,1.6,2.1,1.6
		s1.8,0.4,2.5,0.4c0.7,0,1.6,0.4,1.8,0.5c0.3,0.1,0.7-0.1,1.4-0.3s1.3-0.3,1.4-0.2c0.2,0-0.3,0.7,0.7,0.2S81.9,85.9,81.9,85.9z"/>
	<path class="st2" d="M67.2,77.3c-0.4,0-1.3-0.1-1.1-0.8c0.2-0.7,0.6-0.9,0.2-1.3c-0.4-0.3-0.9-0.4-1-0.9s-0.5-1.1,0.4-1.2
		c1-0.1,0.6-0.1,0.8,0.5c0.2,0.6,0.4,0.9,0.5,1.4c0.2,0.5,0.4,0.9,0.2,1.2C67.1,76.5,67.2,77.3,67.2,77.3z"/>
	<path class="st2" d="M70.9,78.8c-0.1,1.1,0.3,1,0.7,1.2c0.4,0.1,0.6,0,1.1,0.1c0.4,0.1,0.7,0.4,0.7,0.4s0.4-1.2-0.2-0.8
		c-0.5,0.4-0.7,0.5-1.1-0.3C71.8,78.6,71.1,77.7,70.9,78.8z"/>
	<path class="st2" d="M72,72.2c1.2-0.2,2.6,0.3,3.1,0.4c0.6,0.1,1.6,0.5,1.9,0.5c0.2,0,0.9,0.1,1.3,0.3c0.4,0.1,0.3,0.6,0.4,0.1
		c0.1-0.4-0.9-0.7-1.2-0.9c-0.2-0.2-2.1-1.4-2.5-1.2C74.7,71.6,72,72.2,72,72.2z"/>
	<path class="st2" d="M75.9,67.2c-0.3-0.2-1.3-0.6-2.1-1.1s-1.1-0.7-1.5-0.7c-0.4,0-0.9,0.7-1.1,0.2c-0.2-0.5,0.4-1-0.3-0.8
		c-0.8,0.2-1.1,0.1-1.5,0.5c-0.3,0.4-0.3,0.6-0.6,0.8c-0.2,0.2,0-0.4-0.6-0.2c-0.6,0.2-1.6,0.6-1.2,0.2c0.4-0.4,1.3-0.9,1.5-1.2
		c0.3-0.3,1-0.9,1.6-0.5c0.6,0.4,0.7-0.5,1.4,0.2s1.2-0.1,1.8,0.2c0.6,0.3,0.4,0,0.9,0.6C74.7,66.2,75.9,67.2,75.9,67.2z"/>
	<path class="st9" d="M62.3,67.5c0.8,0.1,1,1.3,1.4,1c0.4-0.3,0.9-0.9,1.6-1c0.7-0.1,2-1.1,2.1-1.1c0.1,0,0.4-0.2,1.1-0.6
		c0.7-0.3,1.4-1,1.4-1l-0.8-0.1c0,0,0.3,0.1,1.3-0.7s0.5-0.9,0.5-0.9s-0.1,0,1-1.1c1-1.1,0.5-1.1,0.5-1.1S73,60,73,59
		c0-1-0.5-3.7-0.8-4.1c-0.3-0.4-1-1-1-1s-0.6,0.2-1.3,0c-0.6-0.2-1.4-0.9-1.4-0.9s-0.3,0.7-1,0.9c-0.6,0.2-0.8,0-1-0.2
		c-0.2-0.3-0.7-0.2-0.7-0.2s-0.7,1.1-1.3,1.5c-0.6,0.5-1.1,0-1.1,0s-0.1,0.8-0.9,1.4s-0.6,1.9-0.7,1.3c-0.1-0.7-0.6-0.5-0.8-0.1
		c-0.2,0.5,0.3,0.7-0.4,0.8s-0.8,0-1.3,0.4c-0.5,0.5-0.2,0.5-0.7,0.9C58,60.2,58,60.2,58,60.2s-0.5,2-0.2,3.2c0.3,1.2,2,1.8,2.3,2.3
		c0.3,0.5,1.3,1.4,1.3,1.4L62.3,67.5z"/>
	<path class="st10" d="M61.4,67.1c0,0,0.1,0.1,1.1-0.2c1-0.3,0.8-0.7,0.8-0.7s-0.2-0.2-0.2-0.9c0-0.7,0.6-1.1-0.3-1.3
		c-0.8-0.2-1.3-0.5-1.6-0.6c-0.3-0.1-1.2,0.1-1.2,0.1l-0.2,1.2c0,0-0.3,0.5-0.3,0.9c0,0.4-0.1,0.5,0.1,0.7c0.2,0.2,0.5,0.4,0.8,0.5
		S61.4,67.1,61.4,67.1z"/>
	<path class="st11" d="M61.8,63.2l1.7-0.9c0,0-1.1-1-0.8-1.6s0.4-2.1,0.7-2.4s1.1-0.8,1.1-0.8s-1.2,3.1-0.8,2.3c0,0,0.1,1.1,0,1.5
		c-0.1,0.3,0.2,0.6,0.2,0.6s1.5-1.2,1.5-1.3c0.1-0.1,0-1.2-0.1-1.7c0-0.5,0.6-1.4,0.8-1.6c0.1-0.2,1.8-1.4,1.6-1.4
		c-0.2,0-1.9,2-1.9,2.9s1,0.9,1.5,0.3c0.6-0.6,1.4-1.1,1.7-1.4c0.3-0.4,1.2-0.8,1.2-0.8s-5.3,5-4.6,4.9c0.7-0.1,1.9-0.1,2.7-0.4
		c0.9-0.3,2.3-2.1,2.3-2.1s-2,2.8-2.6,2.9c-0.6,0-1.5,0.4-1.9,0.4c-0.4,0-0.9,0.1-1.2,0.2c-0.3,0.1-1.6,0.3-1.6,0.3l-0.6,0.4
		L61.8,63.2z"/>
	<path class="st2" d="M66.9,63.2c0,0,0.1,0,1.1-0.2c0.9-0.2,1.9,0,2.2-0.4s0.7-0.8,0.8-1.4c0.1-0.6,0.8-1.4,1-0.8s0.7,0.6-0.3,1.7
		c-1,1.1-1.5,1.2-1.9,1.2c-0.4,0.1-1.2,0.1-1.6,0.3c-0.4,0.3-1.3,0-0.8,0.4c0.5,0.4,1.2,0.5,0.9,0.8c-0.3,0.4,0.6,0.3-0.7,0.6
		c-1.2,0.3-1.4,0.9-1.9,0.8c-0.4,0-1.3,0.5-1.4-0.2c-0.1-0.6-0.6-1.2-0.3-1.4c0.3-0.2,0.9-0.1,1.3-0.2s0.5-0.8,0.7-0.8
		C66.3,63.6,66.9,63.2,66.9,63.2z"/>
	<path class="st12" d="M61.6,66c-0.1,0.1,1.5,1.9,1.6,3.2c0.1,1.3,0,2.5,0,2.5s-0.3,1-0.8,1.9s-0.8,1.2-0.8,1.2s-0.6,0.3-1.2,1
		c-0.6,0.7-1,0.7-1,0.7s-0.1,0.1-1.3,0.7c-1.2,0.5-1.8,0.6-1.8,0.6s0.2-0.1-1.2-0.1c-1.5,0-2.1-0.5-2.1-0.5s-0.9-0.9-0.8-1.4
		c0.1-0.6-0.5-1.4-0.4-1.8c0.1-0.3-0.6-0.8-0.3-1.4s0.4-2.2,0.4-2.7c0-0.5-0.3-1-0.3-1.2s1-2.3,1.1-2.7c0.1-0.4,0.2-1,0.2-1l1.2-0.9
		c0,0-0.8-0.7-0.4-1.1c0.5-0.5,1.4-1.1,1.4-1.1s0.4-0.8,0.7-0.7c0.2,0,0.4,0.8,0.5,1.1c0.2,0.2,1.5,0.6,1.5,0.6l1.7,0.6l0.9,0.8
		L61.6,66z"/>
	<path class="st1" d="M57.7,65.9c0.1,0.5,0.3,3.2-0.3,4c-0.5,0.7-1.8,2.7-1.8,2.7s-1.9-0.2-1.4,0.3c0.4,0.4,1.3,0.7,1.3,0.7l-2,2.5
		c0,0,2.4-2,2.6-2.4c0.2-0.4,1-1.7,1.3-2s1.2-0.7,1.2-0.7s0-0.9-0.2-1c-0.2-0.2-0.6-1.4-0.3-1.7c0.3-0.3,0.2-0.8,0.4-1
		c0.1-0.2-0.2-0.6-0.2-0.8c0.1-0.2-0.9-1.2-0.9-1.2L57.7,65.9z"/>
	<path class="st13" d="M56.3,75.9c0,0,0.5-2,1.1-2.5c0.6-0.5,1.5-0.5,1.6-0.9c0.1-0.3,1.3-0.9,0.9-1.5s-1-1.8-1-2.1
		c0-0.3-0.2,0.2,0-0.3c0.1-0.5-0.3-1.5-0.3-1.5s0-0.2,0.5-0.4c0.5-0.2,1.6,0.6,1.6,0.6s-1.4-0.4-0.9,0.5s0.3,0.3,1.1,0.8
		c0.9,0.4,1.8,0.5,1.7,0.9c-0.1,0.4,0.8,1.4-0.2,0.9s-0.9-1-1.5-0.9c-0.7,0.1-0.8,0.6-0.8,0.6s1.4,0,1.3,0.5
		c-0.1,0.5,0.2,0.5-0.1,0.9C61,71.9,61,72.2,61,72.2s0.1,1.1-0.4,1c-0.4-0.1-1.1-0.1-1,0.2c0.1,0.3,1.1,0.7,0.9,0.9
		c-0.2,0.3-0.2,0.8-0.9,0.7c-0.7-0.1-0.8-0.4-0.8-0.4l-1,1.5L57,76.4c0,0,0.8-0.6,0.8-0.8c0-0.2,0.5-1.8,0.1-1.7
		C57.5,74,56.3,75.9,56.3,75.9z"/>
	<path class="st14" d="M53.5,72.1c0,0-0.1-1.1,0.6-1.6s1.7-0.6,1.6-0.9c-0.1-0.3,0-0.8,0.8-1c0.8-0.2,0.9,0.4,0.8-0.2
		s-0.5-0.7-1-0.4c-0.5,0.3-0.7,0.7-1.2,0.7c-0.5,0-1.5,0.1-1.3-0.1c0.1-0.2,0.3-0.3,0.3-0.5c0.1-0.5,1.8-1.1,1.6-1.6S54,65,55.1,65
		s1.8-1.3,0.9-0.7c-0.9,0.7-1.6,1.1-1.7,1.3c-0.1,0.3,0.5,0.6,0.2,1.1c-0.3,0.5-1.6,3.2-1.4,3.4C53.2,70.3,53,71,53,71L53.5,72.1z"
		/>
	<path class="st15" d="M59.3,34.5c0.6,0.4,1.2,0,1.3,0.4c0.1,0.4-0.1,1.3,0.3,1.5c0.4,0.3,1.6,0.6,1.7,1.1c0.1,0.5-0.8-0.2-0.5,0.5
		c0.2,0.7,0.6,0.8,0.8,1.1c0.2,0.3,0.8,0.7,0.7,1.3s0.6,1.1,0.5,1.3c-0.1,0.2,0,0.7-0.2,0.8c-0.2,0.2,0.1,0.9,0.7,1.4
		c0.6,0.6,0.6,1.1,0.6,1.1s-0.1,0.6,0.1,1s0.2,0.4,0.2,0.4s-0.2,0.6,0.1,1.4c0.3,0.8,0.2,1.3,0.2,1.3l-0.6-0.2c0,0,0.5,0.4,0.2,1.4
		c-0.3,1.1-0.5,1.7-0.5,1.7L64.1,52c0,0-0.3,1.4-0.6,2.6c-0.3,1.2-0.9,1.7-1.1,2.7c-0.2,1.1-0.3,1.5-0.6,2.3c-0.3,0.8-1,1.6-1,1.6
		s-0.9,0.4-1.1,0.4s-1.7-0.5-2.1-0.6s-0.9-0.3-1.2-0.3s-1-0.1-1.2-0.8c-0.2-0.6-0.5-1-0.6-1.3c-0.1-0.3-0.5-0.6-0.5-0.3
		s-0.7,0.3-0.8-0.6s-0.3-1.8-0.3-1.8l-0.9,0.5c0,0-0.1-1.6-0.6-2.7c-0.6-1.1-1.3-1.3-1.3-1.3l0.1-1.8c0,0,0.2-1.7-0.2-1.7
		c-0.5-0.1-1.1,0.2-1.3-0.7c-0.2-0.9-0.5-1.7-0.5-1.7s-1,0.1-1.2-0.8c-0.2-0.9-0.5-2-0.5-2.2s-0.1,0.2,0-1.1c0.1-1.3-0.3-3-0.1-3.3
		c0.2-0.4,0.4-2.6,0.5-3c0-0.4,1-3.6,1.3-4c0.3-0.3,3.4-1.5,3.4-1.5l2.8,0.3c0,0,1.4,1.3,1.7,1.4C56.5,32.5,59.3,34.5,59.3,34.5z"/>
	<path class="st1" d="M51,37c0.3,0.6,3.5,5.6,3.5,5.6s0.4,0.5,1.6,1.1c1.2,0.6,4.9,3.1,5.4,3.7c0.2,0.3,0.5,0.6,0.8,0.9
		c0.3,0.4,0.6,0.7,0.6,1c0,0.5-0.2,0.7-0.2,0.7s-1.3-3-4.7-4.8c-3.4-1.8-3.1-1.1-3.1-1.1s0.5,1.5,1.2,2.4c0.6,0.9,1,2,1,2
		s1.1,1.2,1.3,1.3c0.2,0.1,2.5,2.4,2.7,2.9s-0.1,0.6-0.1,0.6s0-0.1-0.7-0.8s-1.7-1.4-1.9-1.7c-0.2-0.2-0.6-0.6-0.6-0.6
		s1.4,5,1.6,5.8c0.2,0.8,0.4,4.3,0.4,4.3s-1.4-4.8-1.5-5.4c-0.1-0.6-1.1-3.7-1.3-4.5s-1-2.6-1.1-3.1c-0.1-0.6-0.8-1.7-0.8-1.7
		s-0.3-0.1-0.4,0.7c-0.1,0.8-0.1,2-0.1,2.6c0,0.7-0.1,1.7-0.1,1.9c-0.1,0.2-0.6-0.2-0.4-0.7c0.2-0.5,0.6-4.9,0.8-5.4s-0.4-1-0.6-1.2
		c-0.2-0.2-1.2-2.4-1.3-2.5c-0.1-0.1-0.5,0.2-0.5,0.4c0,0.1,0,0.2,0,0.5c0,0.6,0.1,1.6-0.1,2.3c-0.2,0.9-0.4,2-0.3,2.7
		c0.1,0.7,0.4,2.3,0.2,2.1c-0.3-0.4-0.9-3.7-0.4-4.2c0.5-0.6,0.5-4.4,0.5-4.4s-0.2-0.8-0.3-1.1c-0.2-0.3-0.7-1-0.9-1.2S51,37,51,37z
		"/>
	<path class="st2" d="M64,46.2c-0.1-0.1-0.4-0.1-0.7-0.3c-0.2-0.1-0.3-0.3-0.4-0.5c-0.3-0.7,0.5-0.8,0.3-1c-0.8-0.6-1.3-1.1-1.2-1.3
		s0.7-0.4,0.9-0.8s0.3-0.7,0-0.9c-0.3-0.2-0.7-0.3-0.5-0.8c0.1-0.5,0.6-0.5,0.2-0.7c-0.4-0.2-0.9-0.4-1-0.7s0-0.5-0.5-0.7
		s-0.6,0.2-0.9-0.7c-0.3-0.9-0.5-0.9-0.8-0.9c-0.3,0-0.3,0.3-1.2,0c-0.8-0.3-2.9-0.8-3.2-0.9c-0.3-0.1-0.6,0.2-1-0.5
		c-0.4-0.7-0.2-1.4-0.8-0.6c-0.6,0.8-1.1,1.5-1.1,1.9c0,0.3,0.5,0.3,0.9,0.9s0.4,0.5,0.7,1.3c0.3,0.8,0.4,1.8,0.8,2
		c0.4,0.2,0.7-0.1,1.2-0.4s0.1-0.9,0.9-0.7s0.7,0.1,1.2,0.3c0.5,0.2,0.5,0,1,0.5s0.9,0.9,0.8,1.1c-0.1,0.2,0.4,1.6,0.6,1.9
		c0.2,0.3,0.7,0.9,0.6,0.4s-0.7-0.7-0.6-1.4c0.1-0.7,0.1-0.8,0.2-1.3c0.1-0.5,0.5-0.8,0.8-0.5c0.3,0.3,0.4,0.6,0.4,0.9
		c0,0.3-0.2,0.5-0.2,0.8c0.1,0.3,0.2,0.7,0.3,0.9c0.1,0.2,0.3,0.9,0.4,0.9c0.1,0,0.3,0.3,0.3,0.5c0.1,0.2,0.3,1,0.3,1L64,46.2"/>
	<path class="st2" d="M61.5,51.2c-0.2-0.2-0.6-0.3-0.5-1s0.2-1.4,0.2-1.4c-0.4,0.4-0.8,0.7-0.5,1s-0.1,0.6,0,0.9
		S61.5,51.2,61.5,51.2z"/>
	<path class="st2" d="M49.9,38.7c0,0.6-0.3,2.7-0.2,2.9c0.1,0.2,0.3,0.7,0.2,1.1s-0.5,0.9-0.4,1.2c0.1,0.3,0.9,0.7,0.9,0.8
		c0,0.1,0.1,1.1-0.1,1.5c-0.2,0.3-0.3,1.2-0.3,1.4c0,0.1-0.2,0.5-0.4-0.1c-0.2-0.6-0.1-2.4-0.4-1.9s-0.7,0.4-0.8,0.3
		c-0.1-0.1-0.7-0.8-0.2-0.8c0.5,0,0.7,0.1,0.8-0.4c0-0.5-0.2,0.2-0.1-1.1s0.2-1.4,0.2-2s-0.4-1.1-0.2-1.7c0.2-0.6,0.7-1.2,0.7-1.2
		L49.9,38.7z"/>
	<path class="st2" d="M61.5,54.3c0.1,0.7,0.3,0.7,0.3,1c0,0.4,0,0.6-0.3,0.9c-0.2,0.3-0.2,1.6-0.4,1.5c-0.6-0.4-0.5-0.8-0.3-1.3
		c0.2-0.5,0.3-0.6,0.2-0.9C61.1,55.3,61.5,54.3,61.5,54.3z"/>
	<path class="st16" d="M48.9,35.9c0,0-1.1-0.3-2.1-0.5c-1-0.2-0.8-0.7-0.8-0.7s-0.4-0.5-1.1-0.7c-0.7-0.2-0.8-0.6-1.1-1.2
		c-0.3-0.6-0.6-1.9-0.6-2.3c0-0.4,0.2-0.8,0.2-0.8s0.1-0.8-0.2-1.1c-0.3-0.2,0.6-0.9,0.3-1.3c-0.2-0.4-0.8-1.3-0.7-1.5
		c0.1-0.3,0.8-0.3,0.8-0.3s-1.1-2.4-1-3c0.1-0.5,0.2-0.9,0.2-0.9s0-1.5,0.1-2s0.5-0.9,0.5-0.9c0.6-1.1,0.6-2,1-2.2
		c0.4-0.2,0.8,0.2,0.8,0.2s0.3-1.2,0.7-1.3c0.4-0.1,0.8-1.3,1.2-1.6c0.3-0.3,0.9-0.5,1.1-0.6s1.7,0.3,2.1,1s0.5,0.9,0.8,0.9
		c0.3,0,0.9,0.1,0.9,0.1s0.4,1.8,0.5,2.4c0.1,0.6,0.6,0.6,0.6,0.6s0.4-0.4,0.6,0.4s0.2,1.4,0.6,1.6s0.9,0.8,0.9,0.8l0.8,2.3
		c0,0,0.3,1.5,0.6,1.8c0.2,0.4,0.5,1.5,0.5,1.5s0.1,1.6,0.1,1.7c0,0.2-0.5,2-0.5,2s-0.7,1.5-1,1.9c-0.3,0.4-1.5,1.8-1.9,1.9
		c-0.4,0.1-2.5,1.3-2.5,1.3L48.9,35.9z"/>
	<path class="st1" d="M51.8,32.3c0,0-0.5-1.1-0.5-1.3s2.8-2.9,2.9-3.3c0.1-0.5,0-0.9,0-1s-0.7,1.2-0.9,1.5c-0.2,0.3-2.4,2-2.4,2
		s0-1-0.1-1.3c-0.1-0.3,0-0.2,0.1-0.4c0-0.1,0.1-0.3,0.2-0.5c0.1-0.2,0.2-0.5,0.4-0.7c0.2-0.3,0.3-0.5,0.4-0.6
		c0.1-0.1,0.3-0.4,0.6-0.8c0.4-0.7,1-1.5,0.9-1.5c-0.1-0.1-0.4-0.2-0.4-0.2l-2.4,3.9c0,0,0-0.4-0.2-0.9c-0.1-0.5-0.2-3.1-0.3-3.3
		c-0.1-0.1,0.2-0.6,0.4-1c0.1-0.2,0.2-0.3,0.3-0.4c0.2-0.2,0.9-1.3,0.8-1.4s-0.9,0-0.9,0.5c-0.1,0.4-0.6,1.5-0.8,0.9
		c-0.2-0.6-0.4-2.7-0.5-3c-0.1-0.2-0.9-2.7-0.9-2.7s0.8,6.2,0.9,6.6c0.1,0.5-0.6-0.2-0.9-0.7c-0.4-0.4-1.1-1.1-1.1-1.1
		s1.6,2.1,1.8,2.3c0.3,0.2,0.8,0.9,0.6,1.2c-0.2,0.2,0.3,1.3,0.2,1.7s-1.9-0.3-2.2-0.5c-0.3-0.2-1.3-1-1.3-1.1
		c-0.1-0.1-0.6-0.2-0.5-0.1c0.1,0.1,1,1.2,1.7,1.6c0.7,0.4,1.2,0.7,1.6,0.9c0.4,0.2,0.8,0.7,0.9,1.1s0.4,1.3,0.2,1.5
		c-0.2,0.1-1.2-0.2-1.6-0.4c-0.4-0.2-1.6-1-2-1.2c-0.4-0.2-1.4-0.8-1.4-0.8s-0.5,0.4,0.3,0.8c0.8,0.4,2.9,1.4,3.1,1.5
		c0.2,0.1,1.5,0.6,1.8,0.8c0.2,0.2,0.7,0.7,0.7,0.7l0.1,0.5L51.8,32.3z"/>
	<path class="st2" d="M48.8,30.2c-1.1,0.8-1.1,1.4-1.5,1.3c-0.4-0.1-0.4-0.3-0.7-0.7c-0.3-0.4-0.6-0.5-1-0.5c-0.4,0-0.7-0.1-0.7-0.3
		c0-0.2-0.8-0.5-0.7-1c0.1-0.5-1-1.4-0.3-1.5s0.9-0.1,0.8-0.7c-0.1-0.7-0.9-1.4-0.7-1.9c0.2-0.5,0.3-1.1,0.8-1
		c0.5,0.1,1,0.5,0.8,0.2s-0.4-0.3-0.1-0.6c0.2-0.3,0.9-0.9,1.2-1c0.3-0.1,0.8,0,0.3-0.1c-0.6-0.1-1,0-1.2,0.1S45,23,45,23
		s-0.4-0.5-0.4-0.7c0.1-0.2-0.1-0.1,0.1-0.5c0.2-0.4,1.8-0.6,1.6-0.9c-0.1-0.3-1.2,0.3-1.5,0.1s-0.7,0-0.5-0.6
		c0.1-0.6-0.2-1.3,0.6-1.2c0.9,0.1,1.3,0.3,1.3,0.3s0.1-0.6-0.2-0.7c-0.3-0.1-0.6-0.2-1-0.1c-0.4,0.2-0.4-0.3-0.4-0.3
		s-0.5-0.2-0.7,0.2s-0.2,0.2-0.2,0.8s0,0.8-0.1,1.3s-0.4,0.3-0.5,1s0,1.1,0.3,1.6c0.3,0.5,0.1,0.6,0.1,1.4c-0.1,0.7,0.3,1.6,0.3,1.7
		c-0.1,0.2-1.2,1.3-0.7,2.2s0.6,1.3,1.2,1.7c0.6,0.4,0.3,1.2,0.3,1.2s-0.5,1.1-0.1,1.8c0.4,0.7,2.2,1.2,2.5,1.3
		c0.3,0.1,0.8,0.1,1.3,0.3s0.6-0.7,0.8-0.9c0.2-0.3,0.1-0.9,0.7-0.8c0.6,0.2,0.7-0.5,0.7-0.5s0-0.4-0.1-0.6
		c-0.2-0.2-0.2-0.1-0.4-0.4c-0.2-0.3-0.8-0.9-0.8-0.9L48.8,30.2z"/>
	<path class="st2" d="M54.3,24.1c-0.3,0-1.3-0.2-1.2-0.5c0.1-0.3,0.3-1,0.3-1.2c0-0.2-1.1-0.7-1-1c0.1-0.3,0.7-0.7,0.2-1
		c-0.5-0.3-1-0.5-1.3-0.5c-0.3,0-0.5-0.8-0.5-0.8s-0.7,0-0.8-0.2c-0.1-0.2-0.4-0.1-0.3-0.6c0.1-0.5,0.4-1.2,0.1-2
		c-0.3-0.8,0-0.6-0.3-0.8c-0.3-0.3-0.4-0.1-0.8-0.3c-0.3-0.1-0.8,0.3-0.6-0.1c0.2-0.5,0.2-0.8,0.7-0.5s1.2,0.5,1.3,1s0.7,1.5,0.6,2
		c-0.1,0.4-0.5,1.1-0.1,0.4c0.4-0.7,0.7-1.2,0.8-0.3c0,0.9,0.1,1.4,0.3,1.6s0.3,0,0.6,0.1c0.3,0.2,0.5,0.5,0.9,0.9
		c0.4,0.3,0.7,0.2,0.5,1.1c-0.2,0.9,0.3,1.3,0.6,1.7c0.3,0.3,1.2,1,1.2,1s1.3,1.2,1.2,1.3s-0.4,0.9-0.3,1.3s1,1,0.6,1.9
		s0.1,2.1-0.8,1.8c-0.9-0.2-1.4-0.4-1.7-0.4c-0.3,0-1,0.5-0.9,0.1c0.1-0.4-0.2-0.3,0.3-0.5c0.5-0.3,1-0.3,1.2-0.7s0.7-0.8,0.6-1.4
		c-0.2-0.6-1.1-1.6-0.8-1.7c0.3-0.1,0.6,0.5,0.3-0.1c-0.3-0.6-0.4-0.7-0.6-1.2C54.3,24.1,54.3,24.1,54.3,24.1z"/>
	<path class="st17" d="M59.3,40.5c0,0,1.6,0.7,2.6,0.4s1.2-1.2,2-0.6s1.3,0.9,1.7,1c0.4,0,0.7-0.6,0.7-0.6s-0.1,0.1,1,0.3
		c1.1,0.2,1.5,0.4,1.5,0.4s-0.5-0.6-0.3-0.7c0.2-0.2-0.5,0,1-0.3c1.5-0.3,2.7-0.6,3.2-1.2c0.6-0.5,1.1-1,1.5-1.2s1.1-0.7,1.5-1
		c0.4-0.3,1.8-1.9,2.1-2.2c0.3-0.3,1.3-1.1,1.7-1.6c0.4-0.4,1.1-1.1,1.1-1.1s-0.5-0.8,0.1-1.8c0.6-1,1-1.7,1.1-2.2
		c0.1-0.5-0.2-0.8-0.6-1.3c-0.3-0.5-0.7-0.6-0.7-0.6s-0.6,0-1.3-0.4s-1.2,0.1-1.5-0.5c-0.3-0.5,0.4-0.7-0.3-0.8
		c-0.7-0.1-0.6-0.2-1.6-0.2c-1,0-1.7,0.5-2,0.6c0,0-0.5-0.5-1.6-0.3C71,25,70,25.2,70,25.2s0.2-0.3-0.5-0.4
		c-0.7-0.1-2.3,0.2-3.6,0.4c-1.2,0.2-1.7,0.3-2.3,0.6c-0.6,0.3-1.4,0.8-2.4,1c-1,0.1-2.4,0.3-2.6,0.5c-0.2,0.2-1.2,1.4-2,2.2
		s-2.1,2.7-2.3,2.8c-0.2,0.1-0.5,1.3-0.6,2.1c-0.2,0.8,1.2,2.8,1.5,3.1c0.3,0.3,1.7,1.5,2,1.7C57.4,39.4,59.3,40.5,59.3,40.5z"/>
	<path class="st1" d="M56.2,32.3c0,0,1.4,0.6,2.7,0.5c1.3-0.1,4.3-0.3,4.7-0.4s3.7-1.1,4.4-1s4.7-0.9,4.9-1.1s1.1-0.8,1.2-0.9
		s0.8-0.6,0.8-0.6l-1.3,1.5c0,0,1.4-0.5,2-0.6c0.6-0.1,2.2-0.3,2.2-0.3s-5.4,1.6-5.6,1.6c-0.2,0-3.3,1-3.6,1c-0.2,0,1.3,1.4,2.5,1.5
		c1.2,0.1,1.8,0.2,2.8,0.1c1-0.1,1.2,0,1.8-0.2c0.6-0.2-2.5,0.5-3.2,0.5c-0.7,0-2.1-0.2-2.7-0.4s-2.7-1.2-3-1.2s-1.7,0.2-2.1,0.3
		c-0.4,0.1-1,0.3-1.1,0.3c-0.2,0-0.8,0.2-0.4,0.4c0.4,0.1,1.9,0.5,2.8,1.2c0.8,0.7,1,0.8,1.7,1.2c0.7,0.4,1,0.2,1.7,0.5
		s1.2,0.4,1.3,0.5c0.2,0-1.7-0.1-2.7-0.5c-1-0.3-1.6-0.6-2.3-1.1C65.1,34.6,64,34,63.9,34c-0.1,0-1.3-0.8-1.3-0.8l-0.9-0.3l-3.2,0
		c0,0-0.9,0.3-1.3,0.1C56.9,32.8,56.2,32.3,56.2,32.3z"/>
	<path class="st2" d="M63.2,39.5c0.5-0.3,0.9,0.2,0.9-0.3c0-0.5-0.2-0.6,0.1-1.2c0.3-0.5,1.6-0.9,1.8-0.7s-0.7,0.5-0.7,0.8
		c-0.1,0.3,0.2,0.5,0.8,0.5c0.5,0,1.6,0.2,1.2,0.3c-0.4,0.2-1.6-0.4-1.8-0.3s-0.9,0.1-0.8,0.2c0.1,0.1,0.1,0.6,0.3,0.9
		c0.2,0.2,0.1,0.5,0.7,0.5c0.6,0,1.4,0,1.7-0.1s0.5-0.1,1.2-0.1c0.6-0.1,0.9-0.2,1.1-0.4c0.2-0.2,1.1-1,1.3-0.9s-0.9,0.1,0.2,0.1
		c1.1-0.1,0.9-0.1,1.2-0.7c0.4-0.6-0.1-0.9,0.6-1.1c0.7-0.2,0.9,0,1.3-0.3s1-1.1,1-1.1s-0.6-0.2-0.5-0.3c0.1-0.2-0.2,0.1,0.4-0.1
		c0.6-0.3,0.8-0.5,1.1-0.5c0.3-0.1,1-0.4,0.8,0c-0.2,0.4-0.1,0.2-1,1.1c-0.8,0.9-1.6,1.5-2.2,1.9s-1.9,1.3-2.3,1.6
		c-0.5,0.3-3,1.7-3,1.7s-1.5,0.5-2.1,0c-0.7-0.5-1.5-0.5-1.5-0.5s-0.1-0.3-0.4-0.4C64.1,39.7,63.2,39.5,63.2,39.5z"/>
	<path class="st2" d="M58,32c0.3,0,1.6,0,2.3,0c0.7,0,1.1,0,1.6-0.1s0.6-0.4,1.1-0.7c0.5-0.3,0.8-0.8,1.1-0.7
		c0.3,0.1,0.2-0.7-0.3-0.1c-0.5,0.6-1.6,0.5-1.6,0.5s-0.9,0.7-1.1,0.6s-0.6,0.2-0.9,0c-0.3-0.2-0.5-0.1-0.5-0.4
		c0-0.3-0.1-0.8,0.3-0.9s1.1-0.4,1.1-0.4s-1.2-0.5-1.7-0.1c-0.4,0.5-0.4,0.8-0.7,1.2c-0.3,0.4-0.5,0.4-0.4-0.4
		c0.1-0.9-0.3-1.1,0.4-1.4c0.8-0.3,1.2-0.6,2.1-0.5c0.8,0.2,1.2,0.6,1.6,0c0.4-0.6,0.4-1,1.3-1s1.3,0.1,1.5,0.4s0.2,1.2,0.8,0.5
		c0.6-0.7-0.1-1.2,0.9-1c1,0.2,0.6,0.4,1.2,0.8c0.6,0.3,0.5,0.7,1.5,0c1-0.7,0.9-0.8,1.5-0.4c0.5,0.4,0.7,0.3,0.7,0.6s1,0.2,1.3-0.3
		s0.5-1.2,1.2-1.3c0.7-0.1,0.3-0.9,1-0.8c0.7,0.1,0.2-0.3,1.4,0.4c1.2,0.8,0.8,1.3,1.4,1.1c0.6-0.2,1.2-0.9,1.4-0.5
		c0.2,0.4,0.9,0,0.5,0c-0.5,0-2.5-1-3-1.1c-0.5-0.1-1.5-0.4-2.1-0.2c-0.5,0.2-0.4,0.6-0.9,0.8s-0.4,0.1-2.1-0.6
		c-1.7-0.7-1.8-1-2.3-0.5S69,26,68.9,26.3c-0.1,0.3,0.9,0.3-0.5,0.3c-1.4-0.1-1.9-0.1-2.4,0.1s-1,0.2-1.5,0.3
		c-0.5,0.1-0.6,0.2-1.5,0.4c-0.9,0.2-1,0.3-1.4,0.5C61.2,28.1,60.9,28,60,28s-0.9-0.3-1.4,0.2c-0.6,0.5-1.2,1.1-1.2,1.3
		c0,0.2,0,0.6-0.4,1.1c-0.4,0.5-0.7,0.2-0.4,0.5s0.3,0.6,0.5,0.6C57.3,31.8,58,32,58,32z"/>
	<path class="st18" d="M47.4,33.1c-0.2-0.1-1-0.5-1.6-0.6c-0.6-0.1-0.2,0.3-0.5,0.3c-2.1,0.1-2.5,0.5-2.5,0.5s0.4,0.4,0.3,0.6
		s-1,0.4-1.5,0.4c-0.5-0.1-1-0.4-1.2-0.2c-0.2,0.2-1,0.8-1.6,0.6s-0.3-0.5-0.7-0.2c-0.4,0.3-0.3,1.1-0.6,1c-0.3-0.1-0.1,0-1.3,0.2
		s-1.5-0.1-1.6,0.2s0,0.6,0,0.6s-1.2-0.1-1.5,0.1c-0.3,0.2-0.7,0.4-0.7,0.4s0,0.9,0.2,1c0.1,0.2,0.1,0.2,0.1,0.2s-0.6,0.3-1.3,0.5
		s-1.2,0.6-1.2,0.6L31,40c0,0-0.6,0.3-1.3,1.5c-0.7,1.2-1,1.4-0.4,2.2c0.6,0.8,1.3,1.4,1.7,1.6c0.4,0.2,1.1,0.4,1.1,0.4
		s1.1,1.9,2,1.5s0.8-0.4,0.8-0.4l-0.2,1.1c0,0,1.2,0.3,1.8-0.2s1.2-0.5,1.3-0.3s0.2,1,0.2,1s0.3-0.1,1-0.3c0.6-0.2,1.5-0.6,2.2-0.4
		c0.7,0.1,1.6,0.1,1.9,0.1s-0.1,0.2,0.2,0.1c0.3-0.2,1.1-1,1.3-0.8c0.2,0.1,0.1,0.5,0.9,0.3c0.8-0.2,1.1,0.1,1.8-0.3
		s1.2-0.7,1.6-1.3c0.4-0.5,0.5-0.9,1-1.4s1.7-2.4,1.8-3.3c0.1-0.9-0.3-3.2-0.4-3.4c-0.1-0.2-1-1.3-1.2-1.6
		C50.1,35.7,47.4,33.1,47.4,33.1z"/>
	<path class="st1" d="M49.3,38.7c-0.4,0-0.9-1.4-2.1-1.8s-2.7-1.4-3.2-1.4c-0.5,0.1-2.7,0-2.7,0s2,0.3,2.5,0.4
		c0.5,0.1,2.1,0.7,2.2,0.8c0.2,0.1,1.7,1,1.8,1.1c0.1,0.1,0.6,0.9,0.6,0.9l-2.1,0.6c0,0-2.3-1.1-3.3-1.6c-1.1-0.5-3.1-0.7-3.5-0.8
		c-0.4-0.1-2,0-2,0s2.2,0.3,2.9,0.6s2.3,0.2,3.7,1.1s2,1,2,1s-2.3,0.8-2.9,0.7s-1.5,0-1.9-0.2c-0.4-0.2-3.1-1.1-4-1.1
		c-0.9,0-2.4,0.1-2.4,0.1s3.5,0.3,4.8,0.8s1,0.8,1,0.8s-2.4,0.7-3,0.7c-0.6,0.1-2.1,0.1-2.1,0.1L33.7,42c0,0,2.7,0.2,2.4,0
		c-0.6-0.5,2-0.6,3.9-0.6c0.9,0,2-0.6,2-0.6s-0.8,1.1-1,1.4c-0.2,0.3-2.2,2.3-2.5,2.4c-0.4,0.1-1.5,0.9-1.5,0.9s0.9,0,1.1-0.3
		c0.3-0.3,2.1-1.6,2.4-1.9c0.3-0.4,1.2-1,1.5-1.5c0.3-0.5,0.6-1,0.6-1l1.4-0.4c0,0,1.6-0.2,1.7-0.3s1-0.3,1-0.3s-1.8,2.5-2,2.8
		s-1.8,1.7-2.1,1.9c-0.3,0.2-1.7,0.9-1.7,0.9L40.4,46c0,0,2.3-1,2.7-1.3c0.4-0.4,3-3.1,3.2-3.5c0.2-0.3,0.8-1.4,0.8-1.4l1.4-0.5
		l1-0.2c0,0-0.6,1.4-1.1,2.2c-0.5,0.8-0.5,1.2-1.2,1.9s-1.4,1.8-1.7,1.8c-0.2,0.1-0.9,0.4-0.9,0.4s1.7-0.6,1.9-0.9
		c0.2-0.3,1.6-1.9,1.8-2.3s1.1-1.8,1.3-2.2c0.2-0.4,0.3-1,0.3-1l0.3-0.4L49.3,38.7z"/>
	<path class="st2" d="M33.2,44.7c0,0,1.2-0.1,1.5-0.4c0.3-0.3,0.8-1,1-1.1s0.7-0.6,0.7-0.4c0,0.2-0.6,0.7-0.6,1s0.2,0.4,0.4,0.7
		c0.2,0.3,0.8-0.1,0.8,0.5c-0.1,0.5-0.6-0.1-0.9,0.1c-0.3,0.2-0.7,1-1,0.7s-0.7,0.1-0.3-0.3c0.3-0.4,0.9-1,0.4-0.8
		c-0.5,0.2-0.3,0.4-1,0.5c-0.6,0.1-1.1,0.2-1.1,0.2L33.2,44.7z"/>
	<path class="st2" d="M44.1,34.3c0,0,0.8,0,1,0.3c0.2,0.3,0.4,0.3,0.5,0.7s0.3,1.1,0.3,0.6c0-0.5-0.2-1.2-0.2-1.2s0.2-0.2,0.3-0.5
		c0.1-0.3,0.6-1-0.1-0.4c-0.7,0.6-0.3,0.6-0.7,0.6C45,34.1,44.1,34.3,44.1,34.3z"/>
	<path class="st2" d="M31.9,40.5c0.2-0.2,1.4,0,1.7-0.7s0.3-0.9,0.5-1.3s0.1-0.6,0.8-0.8c0.7-0.2,1.4-0.4,1.7-0.7
		c0.3-0.3,0.9-0.5,1.2-0.6c0.3-0.1,0.8,0.2,1-0.2c0.2-0.4,0-0.5-0.1-0.7s-0.2-0.2-0.8-0.1c-0.5,0.1-1.8,0.3-1.8,0.3
		s-1.1,0.8-1.4,1.2c-0.4,0.4-1,0.6-1.1,0.7s-0.3,0.5-0.5,0.9c-0.3,0.4-0.5,0.8-0.6,0.9s-0.2-0.5-0.4,0.3
		C31.9,40.5,31.9,40.5,31.9,40.5z"/>
	<path class="st2" d="M43.5,36.9c0.2-0.2,0.7-0.6,1-0.2c0.3,0.4,0.2,0.8,0.6,0.7c0.4,0,0.7-0.3,1-0.1c0.3,0.2,0.9,0.3,0.4,0.8
		c-0.4,0.5-0.2,0.4-0.6,0.2c-0.4-0.2-0.6-0.2-1-0.4S44,37.7,44,37.4C44,37.2,43.5,36.9,43.5,36.9z"/>
	<path class="st2" d="M40.9,38.2c-0.5-0.6-0.7-0.3-0.9-0.2c-0.2,0.1-0.3,0.3-0.6,0.5c-0.3,0.2-0.5,0.2-0.5,0.2s0.4,0.8,0.5,0.3
		s0.1-0.6,0.7-0.4C40.6,38.7,41.4,38.8,40.9,38.2z"/>
	<path class="st2" d="M43.8,41.9c-0.5,0.8-1.4,1.2-1.7,1.4c-0.3,0.3-1,0.6-1.2,0.8c-0.1,0.1-0.5,0.4-0.8,0.6s-0.5-0.1-0.3,0.2
		c0.2,0.3,0.8-0.2,1-0.2c0.2,0,1.7-0.4,1.8-0.7C42.9,43.6,43.8,41.9,43.8,41.9z"/>
	<path class="st2" d="M44.7,46.4c0.3-0.1,0.9-0.4,1.6-0.5c0.7-0.1,0.9-0.2,1.1-0.5s0.1-0.8,0.4-0.7c0.4,0.2,0.3,0.7,0.6,0.2
		c0.3-0.5,0.5-0.6,0.4-1c-0.1-0.4-0.2-0.5-0.1-0.7c0-0.2,0.3,0.2,0.4-0.2c0.2-0.4,0.4-1.1,0.4-0.7s-0.1,1.1-0.1,1.4
		c0,0.3,0,0.9-0.5,1.1s-0.1,0.6-0.8,0.6s-0.5,0.7-1,0.8c-0.4,0.1-0.2,0.2-0.8,0.1C45.8,46.2,44.7,46.4,44.7,46.4z"/>
	<path class="st19" d="M52.6,35.7c-0.5-0.3-0.2-1.1-0.6-1.1s-0.9,0.3-1.3,0.2c-0.4-0.2-1.7,0.1-1.7,0.1c0-0.1-0.3,0-0.9,0
		c-0.6,0-1.2,0.3-1.2,0.3l0.5,0.3c0,0-0.2-0.1-1.1,0.1c-0.9,0.2-0.6,0.5-0.6,0.5s0,0-0.9,0.4c-1,0.4-0.7,0.6-0.7,0.6s-0.7,0.4-1,1
		c-0.3,0.7-0.8,2.6-0.7,2.9s0.3,1,0.3,1s0.5,0.1,0.8,0.4c0.4,0.3,0.7,1,0.7,1s0.4-0.4,0.9-0.3s0.6,0.2,0.6,0.4
		c0,0.2,0.4,0.3,0.4,0.3s0.8-0.5,1.3-0.6c0.5-0.1,0.7,0.3,0.7,0.3s0.3-0.5,1-0.6c0.7-0.1,1-1.1,0.9-0.6c-0.1,0.5,0.3,0.5,0.5,0.3
		c0.2-0.3,0-0.5,0.5-0.4c0.5,0.1,0.5,0.2,1,0.1c0.5-0.1,0.3-0.2,0.7-0.4s0.4-0.1,0.4-0.1s0.9-1.2,1-2c0.2-0.8-0.8-1.8-0.8-2.2
		c0-0.4-0.4-1.3-0.4-1.3L52.6,35.7z"/>
	<path class="st10" d="M53,36.2c0,0-0.1-0.1-0.8-0.2c-0.7-0.1-0.7,0.2-0.7,0.2s0.1,0.2-0.1,0.6c-0.2,0.5-0.7,0.6-0.2,0.9
		c0.5,0.4,0.7,0.7,0.9,0.9c0.2,0.1,0.8,0.3,0.8,0.3l0.5-0.7c0,0,0.4-0.2,0.5-0.5s0.2-0.3,0.1-0.5c-0.1-0.2-0.2-0.4-0.4-0.5
		C53.4,36.5,53,36.2,53,36.2z"/>
	<path class="st11" d="M51.6,38.6l-1.3,0.1c0,0,0.4,0.9,0,1.2c-0.4,0.3-0.9,1.2-1.1,1.4c-0.2,0.1-0.9,0.2-0.9,0.2s1.7-1.7,1.2-1.2
		c0,0,0.3-0.8,0.4-1c0.1-0.2,0-0.4,0-0.4s-1.3,0.4-1.4,0.4c-0.1,0-0.3,0.8-0.4,1.1c-0.1,0.3-0.8,0.7-1,0.8c-0.2,0.1-1.6,0.4-1.5,0.4
		c0.1,0,1.8-0.8,2.1-1.3c0.3-0.6-0.4-0.9-0.9-0.6s-1.2,0.3-1.5,0.5c-0.3,0.2-1,0.2-1,0.2s4.9-1.7,4.4-1.8S47.5,38,46.8,38
		c-0.6-0.1-2.1,0.7-2.1,0.7s2.1-1.3,2.5-1.1c0.4,0.2,1.1,0.2,1.4,0.3s0.6,0.2,0.8,0.2s1.1,0.3,1.1,0.3l0.5-0.1L51.6,38.6z"/>
	<path class="st2" d="M48.3,37.1c0,0-0.1,0-0.8-0.2c-0.7-0.2-1.2-0.6-1.6-0.4s-0.7,0.3-0.9,0.7c-0.3,0.4-0.9,0.7-0.9,0.2
		c0-0.4-0.3-0.6,0.7-1s1.3-0.3,1.6-0.2c0.3,0.1,0.8,0.3,1.1,0.3c0.3-0.1,0.9,0.4,0.6,0c-0.2-0.4-0.7-0.7-0.4-0.8
		c0.3-0.2-0.3-0.3,0.6-0.2s1.2-0.1,1.5,0c0.3,0.2,1,0.1,0.9,0.5c-0.1,0.4,0,0.9-0.2,1c-0.2,0-0.6-0.2-0.9-0.2S49,37.1,48.9,37
		S48.3,37.1,48.3,37.1z"/>
	<path class="st12" d="M52.6,36.8c0.1,0-0.4-1.7-0.1-2.5c0.3-0.8,0.7-1.6,0.7-1.6s0.5-0.6,1-1c0.5-0.4,0.9-0.6,0.9-0.6
		s0.5,0,1.1-0.3c0.6-0.3,0.9-0.2,0.9-0.2s0.1-0.1,1-0.1c0.9,0,1.3,0.1,1.3,0.1s-0.2,0,0.8,0.4c1,0.4,1.2,0.9,1.2,0.9
		s0.3,0.8,0.1,1.2c-0.2,0.3-0.1,1.1-0.3,1.3c-0.2,0.2,0.1,0.7-0.2,1c-0.3,0.3-0.9,1.3-1,1.7c-0.2,0.3-0.1,0.7-0.2,0.8
		c-0.1,0.1-1.3,1.2-1.5,1.4S58,40,58,40l-1.1,0.3c0,0,0.3,0.7-0.1,0.8c-0.4,0.2-1.2,0.3-1.2,0.3s-0.5,0.4-0.6,0.3
		c-0.2-0.1,0-0.7,0-0.8c0-0.2-0.8-0.8-0.8-0.8l-0.9-0.9l-0.4-0.8L52.6,36.8z"/>
	<path class="st1" d="M55.1,38c0.1-0.4,0.8-2.2,1.3-2.5c0.6-0.3,2-1.2,2-1.2s1.2,0.7,1,0.2c-0.1-0.4-0.6-0.8-0.6-0.8l2-1.1
		c0,0-2.2,0.6-2.4,0.8s-1.2,0.8-1.5,0.9c-0.3,0.1-1,0.1-1,0.1s-0.2,0.6-0.2,0.7s0,1.1-0.3,1.2c-0.3,0.1-0.4,0.5-0.5,0.6
		c-0.1,0.1,0,0.5-0.1,0.6c-0.1,0.1,0.2,1.1,0.2,1.1L55.1,38z"/>
	<path class="st13" d="M58.9,32c0,0-0.9,1.2-1.4,1.3s-1.1-0.1-1.3,0.1c-0.2,0.2-1.1,0.2-1,0.7c0.1,0.5,0.1,1.4,0,1.7
		c-0.1,0.2,0.2-0.1-0.1,0.2c-0.2,0.3-0.2,1.1-0.2,1.1s0,0.1-0.4,0.1c-0.4,0-0.9-0.8-0.9-0.8s0.8,0.7,0.7-0.1
		c-0.1-0.8-0.1-0.3-0.5-0.8c-0.4-0.5-1-0.8-0.9-1.1c0.2-0.3-0.1-1.2,0.4-0.5s0.3,0.9,0.7,1c0.5,0.1,0.7-0.2,0.7-0.2
		s-0.9-0.4-0.7-0.7c0.2-0.3,0-0.4,0.3-0.6c0.3-0.2,0.4-0.4,0.4-0.4s0.3-0.7,0.5-0.5c0.3,0.2,0.7,0.4,0.7,0.2c0-0.2-0.5-0.7-0.3-0.9
		c0.2-0.1,0.4-0.5,0.8-0.2c0.4,0.3,0.4,0.5,0.4,0.5l1.1-0.7l0.7,0.2c0,0-0.7,0.1-0.8,0.3c0,0.2-0.9,1-0.6,1.1
		C57.6,32.8,58.9,32,58.9,32z"/>
	<path class="st14" d="M59.7,35.2c0,0-0.3,0.8-0.9,0.9s-1.3-0.1-1.3,0.1c0,0.2-0.2,0.5-0.8,0.4s-0.5-0.5-0.5-0.1
		c-0.1,0.4,0.1,0.6,0.5,0.6c0.4,0,0.7-0.3,1-0.1s1,0.4,0.8,0.5c-0.1,0.1-0.3,0.1-0.4,0.2c-0.2,0.3-1.5,0.2-1.5,0.6
		c0,0.4,0.6,1.5-0.1,1.2c-0.7-0.3-1.6,0.3-0.8,0.2c0.8-0.2,1.4-0.2,1.5-0.4c0.1-0.1-0.1-0.5,0.2-0.8s2-1.6,1.9-1.8
		c-0.1-0.1,0.3-0.5,0.3-0.5L59.7,35.2z"/>
	<path class="st20" d="M52.6,47.5c0-0.4-0.2-1.6-0.5-2.4c-0.3-0.8-0.5-0.1-0.6-0.4c-1.6-2.4-2.4-2.7-2.4-2.7s-0.2,0.7-0.5,0.8
		c-0.3,0.1-1.2-0.8-1.5-1.5c-0.3-0.6-0.2-1.5-0.6-1.6c-0.5-0.1-1.7-0.6-1.9-1.5c-0.3-0.9,0.4-0.7-0.3-0.9s-1.6,0.5-1.7,0
		c-0.1-0.5-0.1-0.2-1.2-1.4c-1.1-1.2-1-1.9-1.4-1.9s-0.6,0.5-0.6,0.5s-0.7-1.5-1.2-1.8c-0.5-0.3-1-0.6-1-0.6s-1,0.6-1.1,0.9
		c-0.1,0.3-0.1,0.3-0.1,0.3s-0.8-0.5-1.5-1.2c-0.6-0.7-1.7-1-1.7-1l-0.4,1.6c0,0-0.7-0.5-2.7-0.5s-2.4-0.2-3,1.1s-0.7,2.6-0.6,3.2
		c0.1,0.6,0.4,1.6,0.4,1.6S25,41,26,41.8c1,0.7,1,0.7,1,0.7l-1.4,0.6c0,0,0.6,1.7,1.5,2c0.9,0.4,1.5,1,1.3,1.4c-0.2,0.4-1,1-1,1
		s0.4,0.3,1,1c0.6,0.6,1.8,1.4,2.1,2.3c0.4,0.9,1.1,2,1.2,2.3c0.1,0.3-0.4,0.1,0.1,0.3c0.5,0.3,1.9,0.6,1.9,0.9
		c0,0.4-0.6,0.5,0.3,1.3c0.8,0.9,0.6,1.4,1.7,1.9c1,0.5,1.8,0.9,2.7,1c0.9,0.1,1.4,0,2.4,0.2c1,0.2,4.2,0.3,5.3-0.2s3.6-2.7,3.8-2.9
		c0.2-0.2,0.8-2.1,1.1-2.6C51.3,52.6,52.6,47.5,52.6,47.5z"/>
	<path class="st21" d="M40.9,58.9c0,0-2.5-0.3-3.6,0.5c-1.1,0.9-1.2,2-2.5,1.6s-2.1-0.7-2.7-0.6c-0.6,0.1-0.7,1.1-0.7,1.1
		s0.1-0.1-1.5,0c-1.6,0.1-2.1,0-2.1,0s0.9,0.6,0.7,0.9c-0.2,0.3,0.6-0.2-1.3,0.8c-1.9,1-3.3,1.9-3.9,2.8c-0.6,0.9-1,1.8-1.5,2.2
		s-1.2,1.4-1.6,2c-0.4,0.5-1.7,3.3-1.9,3.7c-0.3,0.5-1.3,2-1.7,2.8c-0.4,0.7-1,1.9-1,1.9s1,0.8,0.6,2.4c-0.5,1.6-0.6,2.7-0.6,3.3
		c0.1,0.6,0.6,1,1.3,1.5s1.2,0.5,1.2,0.5s0.7-0.3,1.9,0s1.6-0.6,2.2,0s-0.2,1.1,0.7,1c0.9-0.1,0.9,0,2.2-0.4
		c1.3-0.4,2.1-1.4,2.5-1.6c0,0,0.8,0.5,2.2-0.2c1.4-0.6,2.6-1.4,2.6-1.4s-0.2,0.6,0.8,0.4c1-0.2,3.1-1.2,4.6-1.9
		c1.6-0.7,2.2-1.1,2.9-1.8c0.6-0.6,1.5-1.7,2.8-2.2s3.2-1.4,3.3-1.7s1.1-2.4,1.9-3.7c0.7-1.4,1.8-4.4,1.9-4.6c0.2-0.2,0.1-2,0-3
		s-2.7-3.3-3.2-3.6c-0.6-0.3-2.9-1.4-3.3-1.5S40.9,58.9,40.9,58.9z"/>
	<path class="st22" d="M57.4,47.5c0.3-1-0.5-1.7,0-1.9c0.5-0.3,1.8-0.4,1.9-1c0.2-0.6,0.2-2.4,0.8-2.8c0.6-0.4,0,1.1,0.8,0.6
		c0.8-0.6,0.8-1.1,1.2-1.6c0.4-0.5,0.6-1.4,1.5-1.5c0.8-0.1,1.3-1.2,1.6-1.1c0.3,0.1,0.9-0.2,1.2,0c0.3,0.2,1.1-0.5,1.7-1.5
		c0.6-1,1.2-1.2,1.2-1.2s0.9-0.1,1.4-0.6c0.5-0.5,0.5-0.5,0.5-0.5s0.9,0,1.9-0.6c0.9-0.6,1.7-0.8,1.7-0.8v0.8c0,0,0.3-0.8,1.9-0.8
		c1.6,0,2.4,0,2.4,0v1.2c0,0,1.9-0.2,3.7-0.2s2.6,0.6,4.1,0.4c1.5-0.2,2.1-0.2,3.3-0.1c1.2,0.1,2.6,0.7,2.6,0.7s0.9,1,0.9,1.3
		s0,2.5,0,3.1c0,0.6,0,1.3,0,1.8c0,0.5,0.2,1.4-0.6,1.9c-0.7,0.6-1.2,1-1.6,1.3c-0.4,0.3-0.6,0.9-0.2,0.8c0.4-0.1,0.6,0.8-0.5,1.2
		c-1.1,0.5-2.3,1.1-2.3,1.1l1,1c0,0-2.1,0.7-3.4,1.9c-1.3,1.2-1.3,2.2-1.3,2.2l-2.4,0.5c0,0-2.3,0.3-2.2,1s0.6,1.5-0.5,2
		c-1.1,0.6-2,1.3-2,1.3s0.5,1.3-0.6,1.9c-1.1,0.7-2.5,1.4-2.8,1.6c-0.3,0.2,0.3,0.1-1.5,0.4s-3.9,1.5-4.5,1.4s-3.6,0.4-4.2,0.5
		c-0.6,0.1-5.3,0-5.8-0.3c-0.6-0.3-3.3-4-3.3-4l-0.6-3.8c0,0,1.2-2.4,1.3-2.8C55.7,52.1,57.4,47.5,57.4,47.5z"/>
	<path class="st16" d="M57.1,57.5c0,0,1.6,0.1,3,0c1.4-0.1,1.3,0.6,1.3,0.6s0.7,0.5,1.8,0.5s1.3,0.6,1.9,1.3
		c0.6,0.7,1.5,2.5,1.6,2.9c0.1,0.5,0,1.2,0,1.2s0.1,1.2,0.6,1.4c0.5,0.2-0.5,1.4,0,1.9c0.5,0.5,1.5,1.5,1.5,1.9S67.8,70,67.8,70
		s2.2,3,2.3,3.7s0,1.3,0,1.3s0.5,2,0.5,2.8s-0.5,1.4-0.5,1.4c-0.5,1.7-0.2,2.9-0.7,3.3s-1.2,0-1.2,0s0,1.8-0.5,2
		c-0.5,0.3-0.7,2.1-1.1,2.6s-1,1-1.3,1.1c-0.3,0.1-2.4,0.1-3.2-0.6c-0.7-0.7-0.9-1.1-1.4-1s-1.3,0.1-1.3,0.1s-1.1-2.3-1.4-3.2
		s-1-0.6-1-0.6s-0.4,0.6-1-0.4s-0.7-1.9-1.4-2c-0.6-0.2-1.5-0.7-1.5-0.7l-1.9-2.9c0,0-0.9-1.9-1.4-2.3c-0.5-0.5-1.1-1.9-1.1-1.9
		s-0.6-2.1-0.6-2.3s0-2.9,0-2.9s0.5-2.2,0.7-2.9c0.3-0.6,1.4-2.9,2-3.2c0.5-0.2,3-2.5,3-2.5L57.1,57.5z"/>
	<path class="st23" d="M48.7,56.8c0.1-0.1-1.1-2.2-0.9-3.4s0.4-2.5,0.4-2.5s0.5-1,1.1-1.7c0.6-0.7,1-1.1,1-1.1s0.7-0.2,1.4-0.8
		s1.1-0.5,1.1-0.5s0.1-0.1,1.4-0.4s1.9-0.2,1.9-0.2s-0.2,0.1,1.2,0.3c1.4,0.3,2,0.9,2,0.9s0.7,1,0.5,1.6c-0.2,0.5,0.2,1.5,0,1.8
		c-0.1,0.3,0.4,0.9,0,1.4c-0.4,0.5-0.8,2.1-0.9,2.6s0.1,1,0.1,1.2s-1.4,2-1.6,2.4s-0.4,1-0.4,1l-1.4,0.7c0,0,0.7,0.8,0.1,1.2
		c-0.5,0.4-1.6,0.8-1.6,0.8s-0.5,0.7-0.8,0.6c-0.2-0.1-0.2-0.9-0.3-1.1c-0.1-0.2-1.3-0.8-1.3-0.8l-1.5-0.9l-0.7-0.9L48.7,56.8z"/>
	<path class="st24" d="M49.5,57.1c-0.8-0.3-0.7-1.5-1.2-1.3c-0.5,0.2-1.1,0.7-1.7,0.6c-0.7-0.1-2.2,0.7-2.3,0.7s-0.4,0.1-1.2,0.3
		c-0.8,0.2-1.6,0.7-1.6,0.7l0.8,0.2c0,0-0.2-0.1-1.4,0.5c-1.2,0.6-0.6,0.8-0.6,0.8s0,0.1-1.1,0.9s-0.7,1-0.7,1s-0.8,0.7-1,1.7
		c-0.2,1-0.2,3.7,0,4.2s0.8,1.2,0.8,1.2s0.7-0.1,1.3,0.2c0.6,0.3,1.2,1.1,1.2,1.1s0.5-0.7,1.1-0.7c0.7-0.1,0.8,0.1,1,0.4
		c0.1,0.3,0.6,0.3,0.6,0.3s0.9-0.9,1.6-1.3c0.7-0.4,1.1,0.2,1.1,0.2s0.2-0.8,1.2-1.2c1-0.4,1-1.8,1-1.1s0.5,0.7,0.8,0.2
		c0.2-0.4-0.2-0.7,0.5-0.7c0.7,0,0.7,0.2,1.4-0.2s0.3-0.4,0.9-0.7s0.5-0.3,0.5-0.3s0.8-1.9,0.8-3.1s-1.6-2.2-1.8-2.7
		c-0.2-0.5-1-1.6-1-1.6L49.5,57.1z"/>
	<path class="st25" d="M50.3,57.7c0,0-0.1-0.1-1.1,0c-1,0.1-1,0.5-1,0.5s0.1,0.2,0,0.9c-0.1,0.7-0.8,1,0,1.3
		c0.8,0.4,1.2,0.8,1.5,0.9c0.3,0.1,1.2,0.1,1.2,0.1l0.5-1.1c0,0,0.4-0.4,0.5-0.8s0.2-0.5,0-0.7c-0.2-0.3-0.4-0.4-0.7-0.6
		C50.9,58,50.3,57.7,50.3,57.7z"/>
	<path class="st1" d="M63.9,57.7c0.7-0.7,6.1-6.9,6.1-6.9s0.5-0.8,0.8-2.6s2.3-7.8,2.9-8.7c0.3-0.4,0.6-0.9,0.9-1.4
		c0.4-0.6,0.7-1,1.1-1.2c0.7-0.2,1,0,1,0s-3.5,3-4.6,8.2c-1.1,5.2-0.3,4.6-0.3,4.6s1.7-1.3,2.8-2.5c1-1.2,2.3-2.1,2.3-2.1
		s1.1-1.9,1.2-2.2s2.2-4.3,2.8-4.7c0.6-0.4,0.8-0.1,0.8-0.1s-0.1,0.1-0.8,1.3s-1.3,2.8-1.5,3.2c-0.2,0.4-0.6,1.1-0.6,1.1
		s6.1-3.8,7.2-4.4c1.1-0.5,5.6-2.2,5.6-2.2s-5.9,3.7-6.7,4.1c-0.8,0.4-4.6,2.9-5.5,3.5c-1,0.6-3.1,2.3-3.8,2.7s-2,1.7-2,1.7
		s0,0.5,1.1,0.2c1.1-0.2,2.7-0.6,3.6-0.8s2.3-0.6,2.6-0.5S80.9,49,80.1,49c-0.8,0-6.9,1.1-7.6,1c-0.7-0.2-1.1,1-1.4,1.3
		s-2.8,2.5-2.9,2.7s0.5,0.5,0.7,0.5c0.1,0,0.3-0.1,0.7-0.2c0.8-0.3,2.2-0.7,3.1-0.8c1.3-0.1,2.9-0.2,3.7-0.7
		c0.8-0.4,2.9-1.4,2.8-1.1c-0.4,0.5-4.6,2.6-5.5,2.2c-1-0.4-6.1,1.1-6.1,1.1s-1,0.5-1.4,0.9c-0.4,0.3-1,1.3-1.2,1.6
		C64.8,57.8,63.9,57.7,63.9,57.7z"/>
	<path class="st1" d="M47.2,53.9c-0.2-0.5,1-2.1,0.6-3.8s-0.2-4.2-0.7-4.8c-0.4-0.6-2-3.2-2-3.2s1.1,2.6,1.4,3.2
		c0.2,0.7,0.7,3,0.7,3.3c0,0.3,0,2.8,0,3s-0.7,1.4-0.7,1.4l-2.3-2.1c0,0-0.3-3.5-0.5-5.2c-0.2-1.6-1.4-4.3-1.6-4.8
		c-0.2-0.5-1.4-2.4-1.4-2.4s1.3,2.8,1.4,3.9c0.1,1.1,1.4,2.9,1.3,5.2s0.2,3.1,0.2,3.1s-2.6-2.2-2.9-3c-0.4-0.8-1.1-1.8-1.1-2.4
		c0-0.6-0.9-4.6-1.6-5.6c-0.7-1-1.9-2.8-1.9-2.8s2.2,4.5,2.5,6.3c0.3,1.8-0.2,1.7-0.2,1.7s-2.5-2.4-3.1-3.1
		c-0.5-0.7-1.7-2.5-1.7-2.5l-1.7-1.7c0,0,1.7,3.4,1.8,2.9c0.1-1.1,2.2,2,3.5,4.3c0.6,1,2.2,1.9,2.2,1.9s-1.9-0.1-2.5-0.2
		c-0.5-0.1-4.3-0.9-4.8-1.3C31.8,44.8,30,44,30,44s0.6,1.1,1.1,1.2c0.5,0.1,3.4,1.3,4,1.5c0.7,0.1,2,0.7,2.9,0.6
		c0.8-0.1,1.6,0,1.6,0l1.4,1.4c0,0,1.4,1.7,1.6,1.9c0.2,0.1,1.1,1,1.1,1s-4.3-0.3-4.8-0.4c-0.5-0.1-3.4-0.9-3.8-1.1
		s-2.3-1.3-2.3-1.3l-0.9-0.2c0,0,2.8,2,3.5,2.2c0.7,0.2,6,1.3,6.5,1.3c0.5,0,2.2,0,2.2,0l1.6,1.3l1,1.1c0,0-2.2,0.3-3.4,0.3
		s-1.9,0.3-3.2,0s-3.2-0.4-3.4-0.7c-0.2-0.2-1.1-0.8-1.1-0.8s1.9,1.7,2.4,1.6c0.5,0,3.5,0.5,4.1,0.5c0.6,0,3,0.1,3.5,0
		c0.5-0.1,1.4-0.4,1.4-0.4l0.7,0.1L47.2,53.9z"/>
	<path class="st1" d="M48.2,68.8c0,0-2.1-0.2-3.8,0.4c-1.7,0.6-5.7,2.2-6.2,2.3c-0.5,0.2-4.5,2.9-5.5,3.1c-1,0.2-6,3.1-6.1,3.4
		s-1.2,1.6-1.3,1.7s-0.8,1.1-0.8,1.1l1.1-2.5c0,0-1.7,1.3-2.5,1.6c-0.7,0.4-2.8,1.3-2.8,1.3s6.7-4.3,6.9-4.4
		c0.2-0.1,4.1-2.7,4.4-2.8c0.3-0.1-2.3-1.4-4-1c-1.6,0.4-2.5,0.5-3.8,1c-1.3,0.5-1.6,0.5-2.3,1c-0.7,0.5,3.2-1.7,4.1-2
		c0.9-0.3,2.8-0.6,3.8-0.5s4.1,0.6,4.5,0.4c0.4-0.2,2.2-1,2.6-1.3c0.5-0.3,1.1-0.8,1.4-0.9c0.2-0.1,1-0.7,0.4-0.7
		c-0.6,0-2.8,0.1-4.2-0.5c-1.4-0.6-1.7-0.7-2.8-0.9s-1.4,0.1-2.5,0s-1.7-0.1-2-0.1c-0.2,0,2.3-0.5,3.8-0.4c1.4,0.1,2.4,0.1,3.5,0.5
		s2.8,0.7,2.9,0.7c0.2,0,2.1,0.6,2.1,0.6h1.3l4.3-1.3c0,0,1.2-0.7,1.7-0.6S48.2,68.8,48.2,68.8z"/>
	<path class="st1" d="M54.3,63.3c0,0,1,1.3,1.1,1.6s-2.9,4.8-2.9,5.5s0.3,1.2,0.3,1.4c-0.1,0.2,0.6-1.9,0.7-2.3
		c0.1-0.5,2.6-3.5,2.6-3.5s0.3,1.4,0.5,1.7c0.2,0.3,0.1,0.2,0,0.6c0,0.1-0.1,0.4-0.2,0.8c-0.1,0.3-0.2,0.7-0.3,1.1
		c-0.1,0.4-0.3,0.8-0.3,1c-0.1,0.1-0.3,0.6-0.5,1.2c-0.4,1-0.9,2.3-0.7,2.4c0.2,0.1,0.6,0.1,0.6,0.1l2-6.1c0,0,0.2,0.5,0.5,1.1
		c0.4,0.7,1.3,4.2,1.5,4.4c0.1,0.1,0,0.9-0.2,1.4c-0.1,0.3-0.2,0.5-0.2,0.6c-0.2,0.4-0.8,2.1-0.7,2.2c0.1,0.1,1.2-0.3,1.1-0.9
		s0.3-2.3,0.7-1.5c0.4,0.8,1.4,3.6,1.6,3.9s2.2,3.4,2.2,3.4s-3.1-8.2-3.4-8.8s0.8,0.1,1.5,0.6c0.7,0.5,1.9,1.1,1.9,1.1
		s-2.8-2.3-3.2-2.5c-0.4-0.2-1.4-1-1.3-1.4s-0.8-1.6-0.8-2.3s2.6-0.1,3.1,0c0.5,0.1,2,1,2.2,1.1s0.8,0.1,0.7-0.1s-1.7-1.3-2.8-1.6
		c-1.1-0.4-1.8-0.5-2.5-0.7c-0.7-0.1-1.3-0.7-1.6-1.3s-1-1.7-0.7-1.9c0.3-0.2,1.7-0.1,2.4,0.1c0.7,0.1,2.5,0.8,3.1,1
		c0.6,0.1,2.2,0.6,2.2,0.6s0.5-0.7-0.7-1c-1.3-0.3-4.5-1-4.8-1.1s-2.3-0.3-2.6-0.5s-1.1-0.8-1.1-0.8L55,63.3L54.3,63.3z"/>
	<path class="st11" d="M49.1,61.4L47.3,62c0,0,0.9,1.1,0.5,1.7s-0.8,2-1.1,2.2c-0.3,0.2-1.2,0.5-1.2,0.5s1.7-2.8,1.3-2
		c0,0,0.1-1.1,0.2-1.4c0.1-0.3-0.1-0.6-0.1-0.6s-1.7,0.9-1.7,1c-0.1,0.1-0.2,1.2-0.3,1.7s-0.9,1.3-1.1,1.4s-2,1-1.9,1
		s2.2-1.6,2.4-2.5c0.2-0.8-0.8-1-1.4-0.6c-0.7,0.5-1.6,0.8-1.9,1.1s-1.3,0.6-1.3,0.6s6.2-3.9,5.5-3.9s-1.9-0.2-2.8-0.1
		s-2.7,1.6-2.7,1.6s2.5-2.4,3.1-2.3c0.6,0.1,1.6-0.1,2,0c0.4,0.1,0.9,0,1.2,0s1.6,0,1.6,0l0.6-0.3L49.1,61.4z"/>
	<path class="st26" d="M52.6,57.7c0-0.5,0.4-3.2,1-3.8c0.7-0.6,2.3-2.3,2.3-2.3s1.8,0.5,1.4,0c-0.3-0.5-1.1-0.9-1.1-0.9l2.4-2.1
		c0,0-2.8,1.5-3,1.9c-0.3,0.4-1.3,1.5-1.7,1.7c-0.4,0.2-1.3,0.4-1.3,0.4s-0.1,0.8,0,1s0.3,1.5-0.1,1.8c-0.3,0.3-0.4,0.8-0.6,0.9
		c-0.2,0.2,0.1,0.7,0,0.8c-0.1,0.2,0.6,1.4,0.6,1.4L52.6,57.7z"/>
	<path class="st2" d="M71.2,36.6c0,0.1,0,0.6-0.1,1c-0.1,0.3-0.3,0.5-0.5,0.8c-0.8,0.7-1.3-0.4-1.4,0c-0.4,1.3-0.9,2.2-1.3,2.2
		c-0.4-0.1-0.8-0.7-1.4-0.8c-0.5-0.1-1.1-0.1-1.3,0.4c-0.2,0.5-0.2,1-0.9,1s-0.9-0.6-1.1,0c-0.2,0.6-0.2,1.3-0.5,1.7
		s-0.7,0.2-0.7,0.9c-0.1,0.7,0.5,0.8-0.5,1.5s-1.1,1-0.9,1.4s0.5,0.3,0.4,1.6s0,4.3,0,4.7c0,0.4,0.5,0.7-0.2,1.6
		c-0.8,0.9-1.8,0.9-0.5,1.4c1.2,0.5,2.5,0.9,2.9,0.8c0.4-0.2,0.2-0.7,0.8-1.5c0.7-0.8,0.6-0.7,1.5-1.5c0.9-0.8,2.3-1.2,2.4-1.9
		c0.1-0.7-0.4-1-1-1.4c-0.7-0.4-1.2,0.2-1.3-0.9c-0.1-1.1-0.1-1,0-1.7c0.1-0.7-0.2-0.6,0.3-1.5c0.4-0.9,0.8-1.5,1.1-1.5
		s1.9-1.2,2.3-1.6s0.9-1.3,0.3-1c-0.6,0.4-0.7,1.2-1.6,1.4c-0.9,0.2-1.1,0.2-1.8,0.2s-1.2-0.4-1-0.9c0.2-0.5,0.6-0.8,1-0.9
		s0.8,0.1,1.2-0.1c0.4-0.2,0.8-0.5,1.1-0.7c0.2-0.2,1.1-0.7,1.1-0.9s0.3-0.5,0.6-0.7c0.3-0.2,1.3-0.8,1.3-0.8l0-1.9"/>
	<path class="st2" d="M79,38c-0.2,0.4-0.2,0.9-1.2,1.1c-1,0.2-1.9,0.3-1.9,0.3c0.7,0.4,1.2,0.8,1.6,0.2c0.4-0.5,0.8-0.1,1.1-0.4
		S79,38,79,38z"/>
	<path class="st2" d="M66.6,58.5c0.8-0.2,3.7-0.7,4-0.9c0.2-0.2,0.8-0.7,1.4-0.7c0.5,0,1.4,0.3,1.8,0c0.4-0.3,0.6-1.5,0.8-1.5
		c0.2-0.1,1.5-0.6,2-0.4c0.5,0.2,1.7-0.1,1.9-0.2c0.2-0.1,0.7,0,0,0.5c-0.7,0.5-3.1,1.1-2.4,1.3c0.7,0.2,0.8,0.8,0.8,1
		s-0.8,1.3-1,0.7c-0.2-0.7-0.1-1.1-0.8-0.9c-0.7,0.2,0.3,0.2-1.4,0.6c-1.7,0.4-1.9,0.2-2.7,0.5s-1.3,1-2.2,1s-1.9-0.5-1.9-0.5
		L66.6,58.5z"/>
	<path class="st2" d="M83.1,36.9c0.8-0.4,0.8-0.7,1.3-0.8c0.5-0.1,0.8-0.2,1.4,0c0.5,0.2,2.2-0.4,2.2-0.1c-0.3,1-0.8,0.9-1.6,0.9
		c-0.7,0-0.9-0.2-1.3,0C84.7,37,83.1,36.9,83.1,36.9z"/>
	<path class="st2" d="M28.4,38.9c0,0,1,1.4,1.6,1.6s1.7,0.3,2,0.4c0.2,0.1,1.2,0.4,1,0.5s-1.3-0.2-1.6,0c-0.3,0.2-0.4,0.5-0.6,1
		c-0.2,0.5,0.7,1,0,1.3c-0.7,0.3-0.2-0.8-0.7-1c-0.5-0.2-1.7-0.1-1.6-0.7c0.1-0.6-0.6-0.7,0.1-0.6s1.8,0.3,1.2-0.1s-0.7-0.1-1.3-0.8
		s-1-1.2-1-1.2L28.4,38.9z"/>
	<path class="st2" d="M48.7,44.4c0,0,0.6,1,0.4,1.4c-0.2,0.4-0.1,0.7-0.4,1.1c-0.4,0.4-1.1,1.1-0.5,0.8s1.4-1.1,1.4-1.1s0.4,0,0.8,0
		c0.4,0,1.7,0,0.5-0.4c-1.2-0.4-1,0.1-1.2-0.4C49.6,45.3,48.7,44.4,48.7,44.4z"/>
	<path class="st2" d="M32.4,34.3c0.4,0.2,1,1.6,2.1,1.6s1.3-0.3,1.9-0.4c0.7-0.1,0.8-0.4,1.6,0.4c0.8,0.7,1.6,1.4,2.1,1.6
		c0.5,0.2,1.3,0.7,1.6,1c0.4,0.3,0.3,1.1,1,1.1c0.7-0.1,0.6-0.3,0.8-0.6s0-0.4-0.5-0.9c-0.5-0.6-1.7-1.9-1.7-1.9s-1.7-0.7-2.4-0.9
		c-0.7-0.2-1.5-0.7-1.7-0.8s-0.7,0-1.5,0c-0.7,0-1.3,0-1.5-0.1s0.4-0.7-0.7-0.3C32.4,34.3,32.4,34.3,32.4,34.3z"/>
	<path class="st2" d="M35.9,61.9c-0.5,0.5-1.3,0.1-1.1,0.8s0.5,0.8,0.3,1.7s-1.8,1.8-2.1,1.7c-0.3-0.1,0.7-0.9,0.7-1.4
		c0-0.5-0.5-0.5-1.2-0.3c-0.7,0.2-2.2,0.4-1.7,0c0.5-0.4,2.2-0.1,2.5-0.4s1.2-0.6,1.1-0.6s-0.4-0.8-0.7-1.1s-0.4-0.7-1.1-0.4
		s-1.9,0.5-2.2,0.8c-0.3,0.2-0.7,0.3-1.5,0.7c-0.8,0.4-1.1,0.6-1.3,1C27.3,64.7,26.3,66,26,66c-0.2,0,1.1-0.6-0.2,0
		c-1.4,0.5-1.1,0.5-1.4,1.4c-0.2,1,0.4,1.1-0.4,1.7c-0.8,0.6-1.2,0.4-1.6,0.9c-0.4,0.5-1,1.9-1,1.9s0.9,0,0.8,0.2s0.2-0.2-0.5,0.4
		s-0.8,1-1.2,1.1s-1.1,1-1.1,0.4c0.1-0.6,0.1-0.3,0.8-1.9c0.7-1.6,1.6-2.6,2.2-3.4c0.6-0.7,2-2.5,2.5-3.1c0.5-0.6,3.4-3.5,3.4-3.5
		s1.8-1.3,2.9-0.9s2.2,0,2.2,0s0.3,0.4,0.7,0.4C34.7,61.9,35.9,61.9,35.9,61.9z"/>
	<path class="st2" d="M46,69.8c-0.4,0.1-2.1,0.6-3.1,0.9c-1,0.3-1.5,0.5-2,0.8c-0.5,0.3-0.7,0.8-1.2,1.4c-0.5,0.6-0.7,1.4-1.2,1.4
		c-0.5,0,0,1,0.5,0c0.4-1,1.9-1.4,1.9-1.4s1-1.3,1.3-1.3c0.2,0,0.8-0.5,1.2-0.4s0.7-0.1,0.8,0.3c0.1,0.4,0.5,1,0,1.3
		c-0.5,0.3-1.3,1-1.3,1s1.9,0.2,2.3-0.5s0.2-1.3,0.4-1.9c0.2-0.7,0.5-0.8,0.7,0.4c0.2,1.2,0.9,1.4,0,2.1c-0.9,0.7-1.4,1.3-2.6,1.4
		c-1.2,0.1-1.8-0.3-2.1,0.7c-0.3,1-0.1,1.6-1.3,1.9s-1.8,0.4-2.2,0s-0.7-1.6-1.3-0.4c-0.5,1.1,0.6,1.5-0.8,1.7s-1-0.3-1.9-0.5
		c-0.9-0.2-0.9-0.8-2,0.6c-1.1,1.3-0.9,1.5-1.8,1.2c-0.9-0.3-1.1-0.2-1.2-0.5s-1.4,0.1-1.6,1c-0.2,0.9-0.2,1.7-1.1,2.2
		c-0.9,0.4,0,1.3-1,1.4s-0.1,0.5-2.1,0s-1.6-1.4-2.3-0.9c-0.8,0.5-1.2,1.7-1.7,1.2S18,85.2,18.6,85c0.6-0.2,3.8,0.3,4.5,0.3
		s2.2-0.1,2.9-0.6s0.4-1,1-1.4c0.6-0.4,0.4-0.3,3,0c2.6,0.3,2.8,0.6,3.3-0.2c0.5-0.8,0.3-0.9,0.3-1.3s-1.4-0.1,0.5-0.5
		c1.9-0.5,2.6-0.5,3.1-1c0.6-0.5,1.2-0.7,1.9-1c0.7-0.4,0.7-0.5,1.8-1.1s1.2-0.7,1.7-1.2c0.5-0.5,1-0.5,2.2-0.8s1.3,0.1,1.8-0.9
		s1.1-1.9,1.1-2.2c0-0.3-0.3-0.7,0.1-1.6c0.3-0.9,0.9-0.5,0.3-0.9c-0.6-0.4-0.6-0.7-0.9-0.6S46,69.8,46,69.8z"/>
	<path class="st2" d="M59.1,65.2c1.2-1.4,1-2.2,1.6-2.2c0.6,0,0.7,0.2,1.1,0.7c0.5,0.5,1,0.6,1.5,0.4c0.5-0.2,1,0,1,0.2
		s1.3,0.5,1.3,1.2s1.7,1.6,0.8,2c-0.9,0.4-1.2,0.4-0.9,1.3c0.3,0.9,1.7,1.6,1.6,2.3c-0.1,0.8-0.1,1.6-0.7,1.6s-1.5-0.4-1.2,0
		c0.3,0.4,0.6,0.2,0.4,0.7s-0.9,1.5-1.3,1.7s-1.1,0.3-0.4,0.2s1.4-0.3,1.6-0.6c0.2-0.3,0.8-1,0.8-1s0.7,0.5,0.7,0.8
		c0,0.3,0.2,0.1,0,0.7c-0.2,0.6-2.2,1.4-1.9,1.7c0.3,0.3,1.5-0.8,2-0.7c0.5,0.2,0.9-0.2,0.9,0.7s0.7,1.6-0.5,1.8
		c-1.2,0.2-1.8,0-1.8,0s0.1,0.9,0.5,0.9s0.9,0.1,1.4-0.2s0.6,0.3,0.6,0.3s0.8,0.2,0.8-0.4c0-0.6,0.2-0.3,0-1.1
		c-0.2-0.8-0.3-1.1-0.3-1.8c0-0.7,0.4-0.5,0.3-1.5c-0.1-1-0.4-1.5-0.9-2.1c-0.5-0.7-0.4-0.8-0.5-1.9c-0.1-1-1-2-0.9-2.3
		s1.3-2.1,0.2-3.2c-1-1.1-1.2-1.5-2.1-1.9c-0.9-0.4-0.8-1.6-0.8-1.6s0.3-1.7-0.4-2.6c-0.7-0.9-3.3-0.9-3.8-1s-1.2,0.1-1.9,0
		c-0.7-0.1-0.5,1.1-0.8,1.5c-0.2,0.4,0.1,1.3-0.7,1.3c-0.9-0.1-0.9,0.9-0.9,0.9s0.1,0.5,0.4,0.7c0.3,0.2,0.4,0,0.7,0.4
		c0.4,0.4,1.4,1,1.4,1L59.1,65.2z"/>
	<path class="st2" d="M53.5,75.2c0.4-0.1,1.8-0.1,1.7,0.3s-0.1,1.4,0,1.7s1.7,0.6,1.7,1.1s-0.8,1.2,0,1.4c0.8,0.2,1.6,0.3,1.9,0.2
		s1,0.9,1,0.9s0.9-0.2,1.1,0c0.2,0.2,0.6-0.1,0.6,0.7c0,0.8-0.1,1.7,0.5,2.7c0.7,1,0.1,0.8,0.7,1c0.5,0.2,0.7,0.1,1.1,0.1
		s1-0.7,0.8,0c-0.1,0.7,0.1,1.2-0.8,1c-0.9-0.2-1.8-0.2-2.1-1c-0.3-0.7-1.4-1.9-1.4-2.5s0.4-1.7,0.1-0.7c-0.3,1-0.6,1.9-0.9,0.7
		c-0.3-1.2-0.6-1.9-0.9-2.1c-0.3-0.1-0.4,0.1-0.9,0c-0.5-0.1-0.8-0.6-1.4-0.9c-0.7-0.3-1,0-1-1.4c0-1.3-0.8-1.7-1.4-2.1
		c-0.5-0.4-2-1-2-1s-2.2-1.3-2.1-1.4c0.2-0.2,0.2-1.3,0-1.8c-0.2-0.5-1.7-1.1-1.4-2.4S47.7,67,49,67s2,0.1,2.4,0
		c0.5-0.1,1.2-1,1.2-0.4c0,0.5,0.3,0.3-0.2,0.8c-0.5,0.5-1.2,0.7-1.4,1.3c-0.2,0.7-0.7,1.3-0.3,2s2,1.9,1.6,2.1
		c-0.4,0.2-1-0.5-0.4,0.2c0.6,0.7,0.7,0.8,1.2,1.4C53.5,75.2,53.5,75.2,53.5,75.2z"/>
	<path class="st25" d="M44.1,60.4c0,0-0.1,0-1.1,0c-1,0-1.9-0.4-2.3,0c-0.4,0.4-0.8,0.6-1.1,1.2c-0.2,0.6-1,1.2-1.1,0.6
		c-0.1-0.6-0.6-0.7,0.6-1.6s1.7-0.8,2.1-0.8s1.2,0.2,1.6,0c0.4-0.2,1.3,0.3,0.8-0.2c-0.5-0.5-1.1-0.7-0.8-1c0.4-0.3-0.5-0.4,0.8-0.4
		c1.3-0.1,1.6-0.6,2-0.4s1.3-0.2,1.3,0.4c0,0.6,0.3,1.3,0,1.4c-0.3,0.1-0.9-0.1-1.3,0s-0.7,0.7-0.8,0.6
		C44.8,60.1,44.1,60.4,44.1,60.4z"/>
	<path class="st2" d="M45.1,45.6c0.3,0.1,1.3,0.3,0.9,1s-0.8,0.8-0.4,1.2c0.3,0.4,0.8,0.6,0.8,1.1s0.3,1.2-0.7,1.1
		c-1-0.1-0.6,0-0.7-0.7c-0.1-0.7-0.2-0.9-0.3-1.5s-0.2-1,0-1.2C45.1,46.4,45.1,45.6,45.1,45.6z"/>
	<path class="st2" d="M41.7,43.4c0.4-1.1-0.1-1.1-0.5-1.3C41,42,40.7,42,40.2,41.8c-0.4-0.2-0.6-0.5-0.6-0.5s-0.6,1.1,0,0.8
		c0.6-0.3,0.8-0.3,1,0.5C40.8,43.4,41.4,44.5,41.7,43.4z"/>
	<path class="st2" d="M39.4,49.6c-1.2,0-2.4-0.8-3-1c-0.5-0.2-1.5-0.8-1.7-0.8s-0.9-0.3-1.3-0.5c-0.4-0.2-0.2-0.6-0.4-0.2
		c-0.2,0.4,0.8,0.9,1,1.1c0.2,0.2,1.8,1.8,2.2,1.7C36.6,49.7,39.4,49.6,39.4,49.6z"/>
	<path class="st2" d="M34.6,53.9c0.3,0.2,1.1,0.8,1.8,1.5c0.7,0.7,0.9,0.9,1.3,0.9c0.4,0.1,1.1-0.5,1.1,0c0.1,0.5-0.6,0.9,0.2,0.9
		c0.8,0,1.1,0.1,1.5-0.3c0.4-0.4,0.5-0.5,0.7-0.7s0,0.4,0.5,0.3c0.6-0.1,1.7-0.3,1.2,0c-0.5,0.3-1.4,0.6-1.7,0.8
		c-0.3,0.2-1.1,0.7-1.7,0.2c-0.5-0.5-0.8,0.4-1.3-0.5c-0.5-0.9-1.2-0.2-1.7-0.6c-0.5-0.4-0.4-0.1-0.7-0.8
		C35.6,55.1,34.6,53.9,34.6,53.9z"/>
	<path class="st27" d="M55.9,48.2c0,0-0.8,1.9-1.6,2.2c-0.7,0.4-1.6,0.2-1.8,0.5c-0.2,0.3-1.5,0.6-1.2,1.3c0.3,0.7,0.6,1.9,0.6,2.2
		c0,0.3,0.2-0.1,0,0.3s0,1.6,0,1.6s0,0.2-0.6,0.3c-0.6,0.1-1.4-0.9-1.4-0.9s1.3,0.7,0.9-0.4c-0.4-1-0.2-0.4-0.9-1
		c-0.8-0.6-1.7-0.8-1.5-1.2c0.2-0.4-0.6-1.6,0.4-0.8c1,0.8,0.6,1.2,1.3,1.2c0.7,0,0.9-0.5,0.9-0.5s-1.4-0.2-1.2-0.7
		c0.2-0.5-0.1-0.5,0.3-0.9c0.4-0.4,0.4-0.7,0.4-0.7s0.1-1.1,0.5-0.9c0.4,0.2,1,0.3,1,0c-0.1-0.3-0.9-0.9-0.7-1.1
		c0.2-0.2,0.3-0.8,1-0.5c0.6,0.3,0.7,0.5,0.7,0.5l1.3-1.3h0.9c0,0-0.9,0.4-0.9,0.6c0,0.2-0.9,1.7-0.4,1.7
		C54.4,49.8,55.9,48.2,55.9,48.2z"/>
	<path class="st27" d="M57.9,52.4c0,0-0.1,1.1-0.9,1.4c-0.8,0.3-1.8,0.2-1.8,0.6c0.1,0.3-0.2,0.8-0.9,0.8s-0.8-0.6-0.8,0
		c0.1,0.6,0.3,0.8,0.9,0.6c0.6-0.2,0.8-0.6,1.3-0.5c0.5,0.1,1.5,0.2,1.2,0.4c-0.2,0.1-0.3,0.3-0.4,0.4c-0.2,0.4-1.9,0.7-1.8,1.2
		c0.1,0.5,1.3,1.8,0.3,1.6s-2,0.9-1,0.5c1-0.5,1.8-0.7,1.9-1c0.1-0.2-0.4-0.7,0-1.1c0.4-0.4,2.2-2.9,2-3c-0.1-0.1,0.2-0.8,0.2-0.8
		L57.9,52.4z"/>
</g>
</svg>
