<svg xmlns="http://www.w3.org/2000/svg" version="1.1" xmlns:xlink="http://www.w3.org/1999/xlink" xmlns:svgjs="http://svgjs.dev/svgjs" viewBox="0 0 108 108" style="" x="0" y="0"><style type="text/css">
	.st0{fill:none;stroke:#3D8464;stroke-width:1.5055;stroke-miterlimit:10;}
	.st1{fill:none;stroke:#3D8464;stroke-width:3.011;stroke-miterlimit:10;}
	.st2{fill:none;stroke:#3D8464;stroke-width:2.5594;stroke-miterlimit:10;}
	.st3{fill:none;stroke:#327357;stroke-width:1.5055;stroke-miterlimit:10;}
	.st4{fill:none;stroke:#648B50;stroke-width:2;stroke-miterlimit:10;}
	.st5{fill:none;stroke:#000000;stroke-width:0.3764;stroke-linejoin:round;stroke-miterlimit:10;}
	.st6{fill:#F8D640;}
	.st7{fill:#F7CA11;}
	.st8{fill:#F2A900;}
	.st9{fill:#C28A16;}
	.st10{fill:none;}
	.st11{fill:#3D8464;}
	.st12{fill:#327357;}
	.st13{fill:none;stroke:#000000;stroke-width:0.3258;stroke-linejoin:round;stroke-miterlimit:10;}
</style><g><path class="st0" d="M44.6,101.6c0.2-5.1-7-39.5-8-45.3c-1-5.9-4.6-24-8.6-30.4S22.2,15,22.2,15"></path><path class="st1" d="M46.3,101.9c0,0-1.8-29.3-1.3-33.8c0.5-4.5,3.1-17.2,1.7-21.2c-1.4-4-4.6-17.5-4.6-17.5"></path><path class="st2" d="M48.8,97.9c0.3-0.5,3.4-21,5.4-24.1c1.9-3.1,7.2-16.5,7.8-20.8s-1.1-19.7-0.3-20.1"></path><path class="st3" d="M59.6,64c-0.6-1.1,7.4-6.3,8.9-7.6s13.7-11.5,14.3-12.6s6-5.4,6-5.4"></path><path class="st4" d="M46.1,98.3c0,0,6.3-35,4.5-39.7s-8.6-29.2-8.6-29.2"></path><path class="st5" d="M83.4,32.1C83.4,32.1,83.4,32,83.4,32.1C83.3,32.1,83.2,32.4,83.4,32.1z"></path><path class="st6" d="M89.3,39.8c-0.1,0.3,1.5,4.9,2.5,7.6c0.2-0.2,0.3-0.6,0.4-0.8c0.2-0.2,0.1-1.4-0.2-2.5c-0.3-1-2-6.3-2-6.3
	l-1-0.2l-0.1,0.2C89.1,38.6,89.3,39.5,89.3,39.8z"></path><path class="st7" d="M89.7,44.9c0.3,0.8,1.4,2.2,1.8,2.5c0.1,0.1,0.2,0.1,0.3,0c-0.9-2.7-2.6-7.3-2.5-7.6c0.1-0.2-0.2-1.1-0.4-2
	l-0.6,1.5C88.2,39.3,89.4,44.1,89.7,44.9z"></path><path class="st6" d="M92.2,41.5c0.8,1.3,2,2.4,3.5,4.4c0.3,0,0.1-1-0.1-1.6c-0.2-0.6-0.8-1.3-1.8-2.2s-3-4.5-3-4.5l-1.1-0.9l0.1,1
	l0.9,1.2C90.7,38.8,91.4,40.2,92.2,41.5z"></path><path class="st7" d="M91.1,41.6c0.3,1.3,2.5,2.8,3.2,3.5c0.7,0.7,1,0.7,1.4,0.7c-1.5-2-2.7-3.1-3.5-4.4c-0.8-1.3-1.5-2.7-1.5-2.7
	l-0.9-1.2l0,0.2C89.9,37.8,90.8,40.3,91.1,41.6z"></path><path class="st6" d="M94.7,38.6c1.1,0.6,3.6,0.7,4.4,0.9c0,0-0.5-0.9-0.8-1.1c-0.3-0.2-3-1.3-3.9-1.4c-1-0.1-3.7-1.3-3.7-1.3
	L90.3,36c0.7,0.3,1.8,0.8,2.3,1.1C93.2,37.5,93.6,38,94.7,38.6z"></path><path class="st7" d="M91.8,37.9c0,0,2.2,1.5,3,1.9s4.3-0.4,4.3-0.4c-0.8-0.2-3.4-0.3-4.4-0.9c-1.1-0.6-1.5-1.1-2.1-1.5
	c-0.5-0.3-1.6-0.8-2.3-1.1l-0.5,0.6L91.8,37.9z"></path><path class="st7" d="M97.9,34.5c0,0-1,0.8-2,0.8c-1,0.1-4.1,0.4-5.4-0.2c0,0,2.4,1.3,3.4,1.7s3.1-0.7,3.7-1
	C98,35.7,98,34.6,97.9,34.5z"></path><path class="st6" d="M95.8,35.4c1-0.1,2-0.8,2-0.8c-0.1-0.1-0.8-0.4-2.1-0.5c-1.3-0.1-4.9,0.7-4.9,0.7l-0.4,0.5
	C91.7,35.7,94.8,35.4,95.8,35.4z"></path><path class="st7" d="M92.8,30.7c0.5-0.9,0.3-2.2,0.3-2.2s-2.4,3.3-3.7,4.8l0.9,0.8c0,0,0.6-0.9,0.8-0.9
	C91.3,33.3,92.3,31.6,92.8,30.7z"></path><path class="st6" d="M91,29.1c-1.1,0.5-2.2,2.4-2.5,2.8l0.2,0.8l0.7,0.6c1.3-1.5,3.7-4.8,3.7-4.8S92.1,28.6,91,29.1z"></path><path class="st7" d="M86.9,31.2l0.2,2.7l0.8-1.8c0.2-1.1,0.4-2.2,0.2-3c-0.2-0.8-0.7-1.5-0.7-1.5l-0.7-0.6
	C87.3,27.5,86.9,31.2,86.9,31.2z"></path><path class="st6" d="M85.8,31.1c0.4,0.9,1.3,2.7,1.3,2.7l-0.2-2.7c0,0,0.5-3.6-0.2-4.2C86.6,26.9,85.4,30.3,85.8,31.1z"></path><path class="st7" d="M84,28.7c0.2,0.8,0.2,1.7,1.6,3.9c0.1-0.5-0.2-2.3-0.4-3.2c-0.2-0.9-0.6-2.3-0.5-2.8c0.1-0.5-0.6-2.1-0.6-2.1
	C84.3,25.6,83.9,27.9,84,28.7z"></path><path class="st6" d="M83.3,25.7c-0.2,0.8-0.8,3-0.4,3.8c0.3,0.8,1.2,2.1,1.5,2.3c0.2,0.3,1.2,0.7,1.2,0.7c-1.4-2.2-1.5-3.1-1.6-3.9
	c-0.2-0.8,0.2-3,0.2-4.3C84.2,24.4,83.5,24.9,83.3,25.7z"></path><path class="st6" d="M78.1,25.4c-0.2,0.4,0.5,1.2,0.8,1.6c0.3,0.5,1.3,2.9,2.2,3.8c1,0.9,1.8,1.6,2.1,1.9c0.3,0.2,1,1,1,1l0.4-0.3
	c-2.5-2.7-2.7-3.5-3.4-4.7C80.6,27.5,79.6,26.9,78.1,25.4z"></path><path class="st7" d="M81.9,28.4c-0.4-0.5-1.7-1.9-2.2-2.2c-0.5-0.3-1.3-1.2-1.6-0.8c1.5,1.6,2.4,2.1,3.1,3.4
	c0.7,1.2,0.9,1.9,3.4,4.7l0.5-0.3C83.5,30.3,82.3,28.9,81.9,28.4z"></path><path class="st6" d="M84.5,33.8c-1.2-0.3-3.1-0.7-3.3-0.6c-0.3,0-3.8-1.2-6.2-1.6c0.1,0.1,1.7,0.8,2.5,1.2c0.8,0.4,2.6,0.9,3.1,1
	c0.5,0.1,3,0.5,3.8,0.8c0,0,1.5,0.7,1.5,0.5C86,34.9,85.4,34.3,84.5,33.8z"></path><path class="st7" d="M84.5,33.8c-0.1,0-0.1-0.1-0.2-0.1c-1.1-0.5-1-1-1-1s-2.8-0.6-3.6-0.9c-0.8-0.3-3.6-0.8-4.2-0.8
	c-0.6,0-0.5,0.4-0.4,0.5c2.3,0.3,5.9,1.6,6.2,1.6C81.4,33.1,83.2,33.5,84.5,33.8z"></path><path class="st6" d="M81.4,37.7c-0.3,0.4-1.7,0.3-3.3,1.9c0.5,0.1,2.8-0.4,4.2-1c1.4-0.6,2.9-2.3,2.9-2.3l-0.6-0.5
	C83.4,36.4,81.6,37.4,81.4,37.7z"></path><path class="st7" d="M84.7,35.8l-0.6-0.5c0,0-1.3,0.6-1.8,0.7c-0.5,0.1-3.5,1.8-3.9,2.1c-0.4,0.4-0.8,1.4-0.3,1.5
	c1.6-1.6,3-1.5,3.3-1.9C81.6,37.4,83.4,36.4,84.7,35.8z"></path><path class="st6" d="M86.6,36.2l-0.3-0.5c-0.6,1.2-1.8,3.3-2.2,3.8c-0.6,0.7-0.8,1.1-3.2,2.9c0.2,0.4,1.6-0.1,2.1-0.4
	c0.5-0.3,1.3-0.8,1.6-1.1C84.9,40.4,86.5,37,86.6,36.2z"></path><path class="st7" d="M84,39.5c0.4-0.5,1.6-2.6,2.2-3.8L86,35.1l-0.7,1.2c0,0-3.6,3.8-4.1,4.3c-0.5,0.6-0.5,1.3-0.3,1.7
	C83.2,40.6,83.5,40.2,84,39.5z"></path><path class="st7" d="M87.1,37.9c-0.7,0.7-2.6,4.9-2.4,6.2c0.2,1.3,0.5,2.1,0.9,2.5c0.5-3.8,1.5-6.6,2.6-9L87.1,37.9z"></path><path class="st6" d="M87.6,45.2c0.3-0.6,0.6-5.4,0.7-6c0-0.6,0-1.8,0-1.8l0,0c-1.1,2.5-2,5.2-2.6,9C85.9,46.9,87.3,45.9,87.6,45.2z"></path><path class="st7" d="M85.2,35.3L85,34.8c0,0-1.1-0.4-1.8-0.6c-0.7-0.2-7.5-1.1-7.5-1.1s-1.1,0.1-1,0.4c0,0,4.9,0.8,5.3,0.8
	C80.4,34.4,84.3,35,85.2,35.3z"></path><path class="st6" d="M76.9,34.6c0.9,0.5,1.9,0.7,2.6,0.9c0.7,0.2,3.2,0,3.5,0c0.3-0.1,0.8-0.3,1-0.2l1.1,0.1c-0.9-0.3-4.8-0.9-5.3-1
	c-0.5,0-5.3-0.8-5.3-0.8C74.7,33.9,76,34.1,76.9,34.6z"></path><path class="st8" d="M84.5,34.6l1.5,0.5c0,0-0.4,0.6-0.2,0.7c0.1,0.1,0.8,0.4,0.8,0.4l0.3-0.3c0,0,0.2,0.4,0.9,0.8
	c0,0,0.2-0.4,0.7-0.4c0.5,0,0,0,0.2,0.4c0.2,0.4,0.4,0.1,0.6,0c0.2-0.1,0.7,0,1.3-0.2c0.3-0.1,0.6,0,1,0.2l0-0.6l0.4-0.4
	c0,0,0-0.5,0-0.8c0-0.3-0.5-0.4-0.5-0.4s-0.1-0.5-0.3-1c0,0-0.7-0.5-0.8-0.7c-0.1-0.2-0.2-0.3-0.3-0.3c-0.1,0-0.2-0.1-0.5,0
	c-0.3,0.1-0.9-0.3-0.5-0.6c0.4-0.2-0.6-0.5-1.4-0.7l-0.7,0.2L86.3,31l-0.5,0.1L85.1,31c0,0,0,0-0.1,0.1c-0.1,0.1-0.9,0.1-0.9,0.1
	c0,0,0,0.1-0.1,0.3c0.1,0.4,0.2,0.8,0.2,0.8S84.1,34.1,84.5,34.6z"></path><path class="st9" d="M83.4,32.1c0,0.1-0.1,0.6-0.1,0.6s0,0-0.1,0.5c-0.1,0.5-0.4,0.4-0.6,0.7c-0.2,0.3,0.6,0.4,0.6,0.4l-0.2,0.4
	c0,0,0,0,0,0.2c0,0.2,0.1,0.7,0.1,0.7s1-0.2,1.2,0.7c0.2,0.9,0,0,0.2,0.6c0.2,0.6,0.2,0.2,0.8,0.5l1.8,0.7c0,0,0.6,0.7,0.9,0.8
	c0.3,0.1,0.2,0.6,0.6,0.3c0.4-0.3,0,0,0.2-0.1c0.2-0.1,0.6-0.5,0.6-0.5s0,0,0.4-0.6c0.4-0.6,1-0.2,1-0.2c0.5,0.2,0.5-0.6,0.5-0.6
	l0-0.4c-0.4-0.1-0.7-0.3-1-0.2c-0.6,0.2-1.1,0.1-1.3,0.2c-0.2,0.1-0.4,0.4-0.6,0c-0.2-0.4,0.3-0.4-0.2-0.4c-0.5,0-0.7,0.4-0.7,0.4
	c-0.7-0.4-0.9-0.8-0.9-0.8l-0.3,0.3c0,0-0.7-0.4-0.8-0.4c-0.1-0.1,0.2-0.7,0.2-0.7l-1.5-0.5c-0.4-0.5-0.4-2.3-0.4-2.3
	s-0.1-0.4-0.2-0.8C83.8,31.7,83.6,31.8,83.4,32.1C83.4,32.1,83.4,32.1,83.4,32.1z"></path><path class="st5" d="M72.4,48.6C72.5,48.6,72.5,48.6,72.4,48.6C72.4,48.6,72.2,48.9,72.4,48.6z"></path><path class="st6" d="M77.6,56.8c-0.1,0.3,1.1,5.1,1.8,7.8c0.2-0.2,0.4-0.6,0.5-0.7c0.2-0.2,0.2-1.4,0-2.5c-0.2-1.1-1.4-6.5-1.4-6.5
	l-0.9-0.2l-0.1,0.2C77.5,55.7,77.6,56.6,77.6,56.8z"></path><path class="st7" d="M77.5,62c0.3,0.8,1.2,2.3,1.5,2.6c0.1,0.1,0.2,0.1,0.3,0c-0.7-2.7-1.9-7.5-1.8-7.8c0.1-0.2-0.1-1.2-0.2-2
	l-0.8,1.4C76.6,56.2,77.2,61.2,77.5,62z"></path><path class="st6" d="M80.3,58.8c0.7,1.3,1.8,2.6,3.1,4.7c0.3,0,0.2-1,0.1-1.6c-0.1-0.6-0.7-1.4-1.5-2.3c-0.9-0.9-2.5-4.8-2.5-4.8
	l-1-1l0,1l0.7,1.3C79.1,56,79.6,57.4,80.3,58.8z"></path><path class="st7" d="M79.3,58.8c0.2,1.3,2.2,3.1,2.8,3.8c0.6,0.7,1,0.8,1.3,0.8c-1.3-2.1-2.4-3.3-3.1-4.7c-0.7-1.3-1.2-2.8-1.2-2.8
	l-0.7-1.3l0,0.2C78.4,54.9,79.1,57.5,79.3,58.8z"></path><path class="st6" d="M83.1,56.1c1,0.7,3.5,1,4.3,1.3c0,0-0.4-0.9-0.7-1.2c-0.3-0.2-2.8-1.6-3.8-1.7c-0.9-0.2-3.5-1.7-3.5-1.7
	L79,53.2c0.6,0.4,1.7,0.9,2.2,1.3C81.7,54.9,82.1,55.4,83.1,56.1z"></path><path class="st7" d="M80.3,55.2c0,0,2,1.7,2.8,2.1c0.8,0.4,4.3,0,4.3,0c-0.8-0.2-3.3-0.6-4.3-1.3c-1-0.7-1.3-1.2-1.9-1.7
	c-0.4-0.3-1.5-0.9-2.2-1.3l-0.6,0.5L80.3,55.2z"></path><path class="st7" d="M86.6,52.4c0,0-1.1,0.7-2.1,0.6c-1,0-4.2,0-5.4-0.7c0,0,2.3,1.5,3.2,2s3.2-0.4,3.7-0.6
	C86.6,53.5,86.7,52.5,86.6,52.4z"></path><path class="st6" d="M84.5,53c1,0,2.1-0.6,2.1-0.6c-0.1-0.1-0.8-0.5-2-0.7c-1.2-0.3-5,0.2-5,0.2l-0.5,0.5C80.4,53,83.5,53,84.5,53z"></path><path class="st7" d="M82,48.2c0.6-0.8,0.5-2.2,0.5-2.2s-2.7,3.1-4.2,4.5l0.9,0.9c0,0,0.7-0.8,0.9-0.8S81.4,49,82,48.2z"></path><path class="st6" d="M80.3,46.4c-1.2,0.4-2.4,2.2-2.7,2.6l0.1,0.8l0.6,0.7c1.4-1.4,4.2-4.5,4.2-4.5S81.5,46,80.3,46.4z"></path><path class="st7" d="M76,48l0,2.7l0.9-1.7c0.3-1.1,0.6-2.1,0.5-3s-0.6-1.5-0.6-1.5l-0.6-0.7C76.8,44.5,76,48,76,48z"></path><path class="st6" d="M74.9,47.9c0.3,0.9,1,2.8,1,2.8l0-2.7c0,0,0.8-3.6,0.2-4.2C76.2,43.8,74.7,47,74.9,47.9z"></path><path class="st7" d="M73.4,45.3c0.1,0.8,0,1.7,1.2,4c0.1-0.5,0-2.3-0.1-3.2c-0.1-0.9-0.4-2.4-0.2-2.9C74.5,42.7,74,41,74,41
	C73.9,42.3,73.3,44.5,73.4,45.3z"></path><path class="st6" d="M73,42.3c-0.2,0.8-1,2.9-0.8,3.7c0.3,0.8,1,2.2,1.2,2.5c0.2,0.3,1.2,0.8,1.2,0.8c-1.2-2.4-1.2-3.3-1.2-4
	c-0.1-0.8,0.5-3,0.6-4.2C74,41,73.2,41.5,73,42.3z"></path><path class="st6" d="M67.8,41.4c-0.3,0.4,0.4,1.2,0.6,1.7c0.2,0.5,1,3,1.9,4c0.9,1,1.6,1.8,1.9,2c0.3,0.3,0.9,1,0.9,1l0.4-0.2
	c-2.2-2.9-2.4-3.7-3-5C70.1,43.8,69.2,43.1,67.8,41.4z"></path><path class="st7" d="M71.3,44.8c-0.4-0.5-1.5-2.1-2-2.4c-0.5-0.3-1.2-1.4-1.5-1c1.3,1.7,2.2,2.3,2.8,3.6c0.6,1.3,0.7,2,3,5l0.5-0.3
	C72.8,46.9,71.7,45.3,71.3,44.8z"></path><path class="st6" d="M73.4,50.4c-1.2-0.4-3-0.9-3.2-0.9c-0.3,0-3.7-1.6-6-2.1c0.1,0.1,1.6,0.9,2.3,1.4c0.8,0.5,2.5,1.2,3,1.3
	c0.5,0.1,3,0.8,3.7,1.2c0,0,1.4,0.9,1.5,0.6C74.7,51.6,74.2,51,73.4,50.4z"></path><path class="st7" d="M73.4,50.4c-0.1,0-0.1-0.1-0.2-0.1c-1-0.6-0.9-1-0.9-1s-2.7-0.9-3.5-1.2c-0.8-0.4-3.5-1.1-4.1-1.2
	c-0.5-0.1-0.6,0.3-0.5,0.5c2.3,0.5,5.7,2.1,6,2.1C70.4,49.4,72.1,50,73.4,50.4z"></path><path class="st6" d="M69.9,54c-0.4,0.4-1.7,0.2-3.4,1.6c0.5,0.2,2.8-0.2,4.3-0.6c1.5-0.4,3.1-2,3.1-2l-0.5-0.6
	C72.1,52.9,70.2,53.8,69.9,54z"></path><path class="st7" d="M73.4,52.4l-0.5-0.6c0,0-1.4,0.5-1.9,0.6c-0.5,0.1-3.6,1.4-4.1,1.8c-0.4,0.3-0.9,1.3-0.4,1.5
	c1.7-1.4,3.1-1.2,3.4-1.6C70.2,53.8,72.1,52.9,73.4,52.4z"></path><path class="st6" d="M75.2,53L75,52.4c-0.7,1.2-2.1,3.1-2.6,3.6c-0.6,0.7-0.9,1-3.4,2.6c0.2,0.4,1.7,0,2.1-0.2
	c0.5-0.2,1.3-0.7,1.7-1C73.2,57.1,75.1,53.8,75.2,53z"></path><path class="st7" d="M72.4,56c0.5-0.5,1.9-2.4,2.6-3.6l-0.2-0.6L73.9,53c0,0-3.9,3.4-4.5,3.9c-0.6,0.5-0.7,1.3-0.5,1.7
	C71.5,57,71.8,56.7,72.4,56z"></path><path class="st7" d="M75.6,54.7c-0.8,0.6-3,4.6-2.9,5.9c0.1,1.3,0.3,2.2,0.6,2.6c0.9-3.7,2.1-6.4,3.4-8.7L75.6,54.7z"></path><path class="st6" d="M75.3,62.1c0.3-0.6,1.2-5.3,1.2-5.9c0.1-0.6,0.2-1.8,0.2-1.8l0,0c-1.3,2.4-2.5,5-3.4,8.7
	C73.6,63.6,75,62.7,75.3,62.1z"></path><path class="st7" d="M74,52l-0.2-0.5c0,0-1.1-0.5-1.8-0.8c-0.7-0.3-7.3-1.8-7.3-1.8s-1.1,0-1.1,0.3c0,0,4.8,1.3,5.2,1.3
	C69.3,50.6,73.1,51.6,74,52z"></path><path class="st6" d="M65.8,50.5c0.8,0.6,1.8,0.9,2.5,1.1c0.7,0.2,3.2,0.4,3.5,0.3c0.3,0,0.8-0.2,1.1-0.1L74,52
	c-0.8-0.4-4.7-1.4-5.2-1.4c-0.5-0.1-5.2-1.3-5.2-1.3C63.6,49.6,64.9,49.9,65.8,50.5z"></path><path class="st8" d="M73.3,51.2l1.5,0.6c0,0-0.4,0.6-0.3,0.7c0.1,0.1,0.8,0.5,0.8,0.5l0.3-0.3c0,0,0.2,0.5,0.8,0.9
	c0,0,0.3-0.4,0.7-0.3c0.5,0.1,0,0,0.1,0.4c0.1,0.4,0.4,0.1,0.6,0s0.7,0.1,1.3-0.1c0.3-0.1,0.6,0.1,1,0.3l0.1-0.6l0.4-0.4
	c0,0,0.1-0.5,0.1-0.8c0-0.3-0.4-0.5-0.4-0.5s0-0.5-0.2-1.1c0,0-0.6-0.5-0.8-0.8c-0.1-0.3-0.2-0.3-0.3-0.3c-0.1-0.1-0.2-0.1-0.5-0.1
	c-0.3,0-0.9-0.4-0.5-0.6c0.4-0.2-0.6-0.6-1.3-0.8L76,48l-0.5-0.2l-0.6,0.1l-0.7-0.2c0,0,0,0-0.1,0.1c-0.1,0.1-0.9,0-0.9,0.1
	c0,0-0.1,0.1-0.2,0.2c0.1,0.4,0.1,0.8,0.1,0.8S73,50.6,73.3,51.2z"></path><path class="st9" d="M72.4,48.6c0,0.1-0.2,0.6-0.2,0.6s0,0-0.2,0.5c-0.2,0.5-0.4,0.3-0.7,0.6c-0.2,0.3,0.6,0.4,0.6,0.4l-0.2,0.4
	c0,0,0,0,0,0.2c0,0.2,0,0.7,0,0.7s1.1-0.1,1.1,0.8c0.1,0.9,0,0,0.2,0.6c0.2,0.6,0.1,0.2,0.7,0.5l1.7,0.9c0,0,0.6,0.8,0.8,0.9
	c0.3,0.1,0.2,0.6,0.6,0.3c0.4-0.3,0,0,0.2-0.1c0.2-0.1,0.6-0.5,0.6-0.5s0,0,0.5-0.5c0.5-0.5,1-0.1,1-0.1c0.5,0.3,0.6-0.6,0.6-0.6
	l0-0.4c-0.4-0.2-0.7-0.4-1-0.3c-0.6,0.2-1.1,0-1.3,0.1s-0.5,0.4-0.6,0c-0.1-0.4,0.3-0.3-0.1-0.4c-0.5-0.1-0.7,0.3-0.7,0.3
	c-0.6-0.4-0.8-0.9-0.8-0.9L75.2,53c0,0-0.7-0.4-0.8-0.5c-0.1-0.1,0.3-0.7,0.3-0.7l-1.5-0.6c-0.3-0.6-0.2-2.3-0.2-2.3s0-0.4-0.1-0.8
	C72.9,48.2,72.7,48.4,72.4,48.6C72.5,48.6,72.5,48.6,72.4,48.6z"></path><path class="st10" d="M29.2,17.1c0,0,0,0-0.1-0.4l0,0C29.1,16.8,29.2,17,29.2,17.1z"></path><path class="st7" d="M28.4,8.5c-0.1-0.3-0.6-0.6-1-0.8c-0.3,2.2-1,6.8-1.2,7c-0.1,0.1-0.3,0.7-0.5,1.2l0.2,0.3c0,0,0.6-0.3,1.1-0.9
	c0.6-0.5,1.5-5.3,1.6-5.8C28.7,8.9,28.5,8.7,28.4,8.5z"></path><path class="st6" d="M27.3,7.6C27.3,7.6,27.3,7.6,27.3,7.6C26.9,7.4,26.5,8,25.9,9c-0.6,1-1,5.7-1,5.7l0.7,1.2
	c0.2-0.5,0.5-1,0.5-1.2C26.3,14.4,27,9.8,27.3,7.6z"></path><path class="st6" d="M28.8,15.2c0.5-0.4,1.8-1.7,2.3-2.3c0.4-0.4,2-1.4,3.1-2.1c-0.1-0.1-0.2-0.2-0.4-0.3c-0.5-0.3-3.5,1.3-4.4,2.1
	c-1,0.8-2.5,3.7-2.9,4.3l0.8,0c0,0,0.1-0.1,0.1-0.1C27.5,16.7,28.3,15.6,28.8,15.2z"></path><path class="st7" d="M30.3,15.5c0.7-0.6,4-3.5,4.1-4c0.1-0.3,0-0.5-0.3-0.7c-1.1,0.7-2.7,1.7-3.1,2.1c-0.6,0.5-1.9,1.9-2.3,2.3
	c-0.5,0.4-1.3,1.5-1.5,1.6c0,0-0.1,0-0.1,0.1l1-0.1C28.2,16.8,29.6,16.1,30.3,15.5z"></path><path class="st6" d="M34.8,16l2-0.4c0-0.1,0.1-0.2,0.1-0.3c0-0.6-0.5-0.6-1.2-0.4c-0.8,0.2-2.5,0.6-4.5,1c-2,0.4-4,2-4,2
	s0.2,0.1,0.5,0.2c1.6-0.6,3.8-1.4,4.4-1.5C32.8,16.5,34.8,16,34.8,16z"></path><path class="st7" d="M30.4,17.8c0.1,0,3.2-0.9,4.6-1.2c1.2-0.3,1.7-0.6,1.9-1.1l-2,0.4c0,0-2,0.4-2.8,0.6c-0.5,0.1-2.7,0.9-4.4,1.5
	c0.3,0.1,0.7,0.2,1.1,0C29.4,17.9,30.4,17.8,30.4,17.8z"></path><path class="st6" d="M35.1,20.3c0.7-0.2,2.1-0.1,2.1-0.1c0.1-0.2,0.1-0.3,0.2-0.5c0.1-0.8-0.2-0.3-1.1-0.3c-0.9,0-1.2-0.3-2.1-0.2
	c-0.9,0.1-2-0.2-3.3-0.4c-1.4-0.1-4.6,0.2-5.1,0.1c0,0,0.1,0.2,0.3,0.4c2.1,0.4,5.5,0.9,6.2,1C33.2,20.2,34.5,20.5,35.1,20.3z"></path><path class="st7" d="M30.5,21.2c1.9,0.7,4.4,0,5.5-0.1c0.8-0.1,1.2-0.4,1.4-0.8c0,0-1.4-0.1-2.1,0.1c-0.7,0.2-1.9-0.1-2.9-0.2
	c-0.7,0-4.1-0.6-6.2-1c0.3,0.4,0.8,0.9,0.9,1C27.2,20.2,28.6,20.4,30.5,21.2z"></path><path class="st7" d="M29.8,22.6c-0.7-0.4-4.7-3-4.7-3s1.1,1.3,1.3,1.3c0.2,0,2.2,2.1,2.6,2.6s4,3.2,4.9,3.6c0.8,0.3,1.8,0.1,2.1-0.3
	c-0.2,0-0.3,0-0.4,0C35.2,26.9,30.5,23,29.8,22.6z"></path><path class="st6" d="M33.6,23.3c-0.9-0.8-6-3-6.7-3.1l-2-0.5c0,0,4.1,2.6,4.7,3c0.7,0.4,5.4,4.3,5.9,4.1c0.1,0,0.2,0,0.4,0
	c0-0.1,0.1-0.1,0.1-0.2C36.2,26.1,34.5,24,33.6,23.3z"></path><path class="st6" d="M28.8,26.3c0.2,0.3-0.6,0.1,3,3.1c0-0.4-1.6-1.8-1.7-2.5c-0.1-0.7-0.5-0.9-0.5-1.8c-0.1-0.8-3-3.8-3.4-4.6
	c0.3,0.7,1.3,3.2,1.5,3.7C27.8,24.7,28.6,26,28.8,26.3z"></path><path class="st5" d="M26.2,20.3L26.2,20.3C26.2,20.2,26.2,20.2,26.2,20.3z"></path><path class="st5" d="M26.2,20.3c0,0,0,0.1,0.1,0.2C26.3,20.4,26.2,20.3,26.2,20.3z"></path><path class="st7" d="M25.9,21.3c0,0,0.2,3.6,0.9,4.3c0.7,0.7,2.8,3.8,4,4c1.2,0.2,1.2,0.1,1.2-0.3c-3.6-3-2.8-2.9-3-3.1
	c-0.2-0.3-1-1.6-1.2-2.1c-0.1-0.5-1.2-3-1.5-3.7c0-0.1-0.1-0.1-0.1-0.2l0,0C26.1,20.5,25.9,21.3,25.9,21.3z"></path><path class="st7" d="M23.9,20.8c0,1.7-0.1,6.4-0.1,6.9c0.1,0.6-0.1,2.7,0.8,4c0.3-0.1,0.4-1,0.2-2c-0.2-0.9,0.5-1.8,0.7-2.4
	c0.1-0.6-0.7-6-1.1-6.5L23.9,20.8z"></path><path class="st6" d="M23.9,27.7c-0.1-0.5,0-5.2,0.1-6.9l-0.2,0c0,0-0.1,1.9-0.4,2.2c-0.2,0.3-0.8,3.4-0.9,3.8c0,0.4,0.4,1.8,0.5,2.6
	c0.1,0.8,1.4,2.5,1.7,2.4C23.8,30.4,23.9,28.3,23.9,27.7z"></path><path class="st7" d="M20.8,26c-0.4,0.5-1.3,2.8-1,5c0.3-0.3,0.8-2.4,1.2-3c0.4-0.6,1.3-2.2,1.8-2.5c0.5-0.3,0.6-3.1,0.6-3.2
	c0-0.1-0.2-0.8-0.5-1.5C22.2,22.8,21,25.7,20.8,26z"></path><path class="st6" d="M23,20.9c-0.2-0.5-0.4-1-0.4-1l-0.1,0.8c-0.2,0.4-2.4,4.3-2.7,4.9c-0.4,0.6-0.9,4.1-0.7,4.7
	c0.2,0.6,0.5,1.1,0.7,0.7c-0.4-2.2,0.6-4.6,1-5C21,25.7,22.2,22.8,23,20.9z"></path><path class="st7" d="M18.7,23.8c-0.5,0.7-1.9,2-2.3,2.5s-0.8,1-1.8,1.7c0.2,0.1,0.8,0,1.7-0.8c0.9-0.8,2.6-2.2,3.3-2.8
	c0.7-0.6,1.2-2.6,1.7-3.2c0.2-0.3,0.3-0.6,0.4-0.9C20.6,21.6,19,23.3,18.7,23.8z"></path><path class="st6" d="M18.7,23.8c0.3-0.5,1.9-2.2,3.1-3.4c0.1-0.4,0-0.7,0-0.7l-1.2,0.7c-0.9,1-2.6,2.5-3,3.1
	c-0.4,0.6-2.6,3.3-2.8,3.7c-0.2,0.4-0.4,0.8-0.2,0.9c1-0.7,1.4-1.2,1.8-1.7S18.2,24.5,18.7,23.8z"></path><path class="st7" d="M11.6,22.2c-0.2,0.1-0.6,0.2-1,0.2c0.1,0.1,0.2,0.1,0.4,0.2c0.7,0.2,2.4,0.2,3.6-0.2c1.2-0.4,3.9-1.2,4.6-1.8
	c0.7-0.5,2.3-1.8,2.3-1.8l-0.1,0c-1.2,0.5-3.2,1.2-4.7,1.5C14.8,20.6,12.3,21.9,11.6,22.2z"></path><path class="st6" d="M14.4,20c-1.1,0.2-3.3,1.2-3.7,1.5c-0.2,0.2-0.4,0.6-0.1,0.8c0.4,0,0.8,0,1-0.2c0.7-0.4,3.2-1.6,5.1-1.9
	c1.4-0.3,3.4-1,4.7-1.5l-1-0.6C19.6,18.4,15.5,19.8,14.4,20z"></path><path class="st7" d="M10.9,17.5c-0.2,0.1-0.3,0.4,0,0.4c0.4,0,2.9,0.9,3.6,1c0.7,0,0.9,0.1,2.7,0c1.8-0.1,3.5-0.4,4.1-0.6
	c0.6-0.2,1.1-0.5,1.2-0.5c-1.3,0-4.8,0-6,0.1C15,17.8,13.2,17.6,10.9,17.5z"></path><path class="st6" d="M21.2,16.8c-3-0.3-6.9,0.7-8.2,0.6c-1.2-0.1-1.6,0-1.9,0c-0.1,0-0.2,0.1-0.2,0.1c2.3,0,4.1,0.3,5.5,0.3
	c1.2,0,4.7-0.1,6-0.1c0,0,0,0,0,0L21.2,16.8z"></path><path class="st6" d="M22.2,15.1c-0.9-0.5-3.9-1.2-4.7-1.4c-0.8-0.2-2.3-0.4-2.7-0.4c-0.2,0-0.6,0.1-0.7,0.4c1.4,0.2,9,3,9,3
	C23.2,16.6,22.2,15.1,22.2,15.1z"></path><path class="st7" d="M14.2,14.2c0.5,0.5,2.7,1.2,3.4,1.5c0.7,0.3,3,1.1,3.6,1c0.6,0,1.7,0,1.8-0.1c0,0-7.6-2.8-9-3
	C14,13.9,14.1,14,14.2,14.2z"></path><path class="st7" d="M23.3,10.1c-0.6,1.8-1.7,2.2,0.2,5.7l0-1c0-0.4,0.2-1.4,0.3-2c0.1-0.6,0.2-2.3-0.3-2.7
	C23.4,10.1,23.4,10.1,23.3,10.1z"></path><path class="st6" d="M23.3,10.1c-0.4,0-0.6,0.6-1.1,1.1c-0.5,0.5-1,1.1-1,1.9c0,0.9,0.4,1.2,0.4,1.8c0,0.6,1.3,0.7,1.3,0.7l0.6,0.1
	C21.6,12.3,22.7,11.9,23.3,10.1z"></path><path class="st8" d="M21.4,18.8l0.4,0.8c0,0-0.4,0.1,0.1,0.6c0.6,0.5,0-0.4,0.7-0.4c0.7,0,0.7-0.4,1.1-0.2c0.3,0.2,0,1.5,0.7,1.2
	c0.7-0.3,0.9-0.4,1.8-0.6c0.9-0.2,0.1-1,0.2-1c0,0-0.3-0.4,0-0.6c0.3-0.2,0.8-0.7,0.8-0.7s1.1,0.6,0.8,0.1c-0.3-0.5-0.7-0.2-0.3-0.5
	c0.4-0.3,0.6-0.4,1-0.6c0.2-0.1,0.4,0.1,0.5,0.2c-0.1-0.2-0.1-0.3-0.1-0.4c-0.3-0.8-0.8-1.2-0.8-1.2c-0.5-0.4-0.3-0.1-0.4-0.4
	c-0.1-0.3-0.1-0.5-0.1-0.5s-0.5-0.2-1-0.5c-0.5-0.3-0.5-0.3-0.8-0.3c-0.3-0.1-0.5,0-0.8,0.2c-0.3,0.1-0.8,0.1-1-0.2
	c-0.2-0.4-0.6,0.1-1.2,0.2c-0.6,0.2-0.4,0.6-0.4,0.6s-0.3-0.3-0.8-0.1c-0.5,0.2-0.2,0.5-1.3,1.5l-0.7,1l-0.4,0.4c0,0,0,0.5,0.1,0.7
	c0.2,0.2-0.2,0.6-0.3,0.6c-0.1,0,0.1,0.5,0.2,0.8C20.4,19.7,21.4,18.8,21.4,18.8z"></path><path class="st9" d="M20.1,20.8c0,0,0.5,0.2,0.7,0.7c0.3,0.6,0.2,0.2,0.5,0.3c0.3,0.1,0.7,0.3,1,0.4c0.3,0.1,0.9,0.7,0.9,0.7
	s0.2-0.6,1.1-0.3c0.9,0.3,1.1-0.1,1.4-0.3c0.4-0.3,0.6-0.1,0.8-0.2c0.2-0.1,0.3-0.2,0.7-0.3c0.4-0.2,0.2-0.3,0.6-0.6
	c0.3-0.3,0.5-0.3,0.7-0.5c0.2-0.3,0.6-0.7,0.7-0.9c0.1-0.2,0.2-1.1,0.4-1.6c0.1-0.5-0.1-0.2-0.4-1c0,0,0,0,0-0.1
	c-0.1,0-0.3-0.3-0.5-0.2c-0.4,0.2-0.6,0.4-1,0.6c-0.4,0.3,0,0,0.3,0.5c0.3,0.5-0.8-0.1-0.8-0.1s-0.5,0.5-0.8,0.7
	c-0.3,0.2,0,0.6,0,0.6c0,0,0.7,0.8-0.2,1c-0.9,0.2-1.1,0.3-1.8,0.6c-0.7,0.3-0.4-1-0.7-1.2c-0.3-0.2-0.4,0.2-1.1,0.2
	c-0.7,0-0.1,0.8-0.7,0.4c-0.6-0.5-0.1-0.6-0.1-0.6l-0.4-0.8c0,0-1,0.8-2,0.4c0.1,0.2,0.5,0.8,0.5,0.8S20.1,20.8,20.1,20.8z"></path><path class="st10" d="M56.2,35.7c0,0,0,0-0.1-0.4l0,0C56.1,35.4,56.1,35.5,56.2,35.7z"></path><path class="st7" d="M51.7,28.1c-0.1-0.3,0.1-0.9,0.4-1.3c1.5,1.6,4.9,4.9,5.1,5c0.1,0.1,0.7,0.4,1.1,0.6l0,0.3c0,0-0.7,0.1-1.4,0
	c-0.8-0.1-4.4-3.4-4.8-3.7S51.8,28.5,51.7,28.1z"></path><path class="st6" d="M52.1,26.9C52.1,26.8,52.1,26.8,52.1,26.9c0.2-0.4,0.9-0.2,2,0.2c1.1,0.4,4.2,4,4.2,4l0.1,1.4
	c-0.5-0.3-1-0.6-1.1-0.6C57,31.7,53.6,28.4,52.1,26.9z"></path><path class="st6" d="M55.4,33.8c-0.6-0.1-2.4-0.3-3.2-0.4c-0.5-0.1-2.4,0-3.7,0.1c0-0.1,0.1-0.3,0.1-0.4c0.2-0.6,3.6-1,4.8-1
	c1.2,0,4.2,1.5,4.9,1.7l-0.6,0.4c-0.1,0-0.1,0-0.1,0C57.3,34.3,56,33.9,55.4,33.8z"></path><path class="st7" d="M54.3,35c-0.9-0.1-5.3-0.5-5.7-0.8c-0.3-0.2-0.3-0.4-0.2-0.8c1.3-0.1,3.2-0.2,3.7-0.1c0.8,0.1,2.6,0.4,3.2,0.4
	c0.6,0.1,1.9,0.5,2.2,0.4c0,0,0.1,0,0.1,0l-0.9,0.6C56.8,34.8,55.2,35.1,54.3,35z"></path><path class="st6" d="M51.1,38.1l-1.9,0.8c-0.1-0.1-0.2-0.1-0.2-0.2c-0.3-0.5,0.1-0.7,0.8-1c0.7-0.3,2.3-1,4.2-1.9
	c1.8-0.8,4.4-0.8,4.4-0.8s-0.1,0.2-0.3,0.4c-1.7,0.5-4,1.1-4.4,1.3C52.9,37.2,51.1,38.1,51.1,38.1z"></path><path class="st7" d="M55.6,36.9c0,0-3.1,1.2-4.4,1.8c-1.1,0.5-1.7,0.5-2.1,0.3l1.9-0.8c0,0,1.9-0.8,2.6-1.2c0.5-0.2,2.7-0.9,4.4-1.3
	c-0.2,0.3-0.5,0.6-0.9,0.7C56.5,36.4,55.7,36.9,55.6,36.9z"></path><path class="st6" d="M53.3,41.7c-0.7,0.3-1.7,1.1-1.7,1.1c-0.1-0.1-0.3-0.2-0.4-0.3c-0.6-0.6,0-0.3,0.7-0.9c0.7-0.6,0.8-1,1.6-1.5
	c0.8-0.5,1.4-1.3,2.5-2.3c1-0.9,3.8-2.6,4.1-3c0,0,0,0.2,0,0.5c-1.5,1.6-3.8,4-4.4,4.4C54.8,40.5,53.9,41.5,53.3,41.7z"></path><path class="st7" d="M57.5,39.7c-1.1,1.7-3.5,2.6-4.5,3.1c-0.7,0.4-1.2,0.4-1.6,0.1c0,0,1.1-0.9,1.7-1.1c0.7-0.3,1.5-1.2,2.2-1.8
	c0.5-0.5,2.9-2.9,4.4-4.4c0,0.5-0.1,1.2-0.1,1.3C59.7,36.9,58.7,37.9,57.5,39.7z"></path><path class="st7" d="M59,40.4c0.3-0.7,2-5.3,2-5.3s-0.2,1.7-0.3,1.8c-0.1,0.1-0.5,3-0.5,3.6c0,0.6-1.3,4.9-1.9,5.8
	c-0.5,0.8-1.4,1.2-1.9,1c0.1-0.1,0.2-0.2,0.3-0.2C57.2,47.1,58.7,41.1,59,40.4z"></path><path class="st6" d="M56.3,43.2c0.3-1.2,3.1-6,3.5-6.5l1.3-1.6c0,0-1.7,4.5-2,5.3c-0.3,0.7-1.8,6.6-2.3,6.8c-0.1,0-0.2,0.1-0.3,0.2
	c-0.1,0-0.2,0-0.2-0.1C55.8,47,56,44.3,56.3,43.2z"></path><path class="st6" d="M61.9,42.8c0,0.3,0.6-0.3-0.6,4.3c-0.2-0.3,0.2-2.4-0.1-3c-0.3-0.6-0.2-1-0.6-1.8c-0.4-0.7,0.1-4.8,0-5.7
	c0.2,0.7,0.8,3.4,1,3.8C61.8,40.9,61.9,42.4,61.9,42.8z"></path><path class="st5" d="M60.5,36.4L60.5,36.4C60.4,36.4,60.4,36.4,60.5,36.4z"></path><path class="st5" d="M60.5,36.4c0,0,0,0.1,0,0.2C60.5,36.5,60.5,36.4,60.5,36.4z"></path><path class="st7" d="M61.4,37c0,0,2,3,1.8,4c-0.2,1,0,4.7-0.8,5.5c-0.9,0.9-0.9,0.8-1.1,0.5c1.1-4.6,0.5-4,0.6-4.3
	c0-0.3-0.1-1.9-0.3-2.4c-0.2-0.5-0.8-3.1-1-3.8c0-0.1,0-0.1,0-0.2l0,0C60.7,36.5,61.4,37,61.4,37z"></path><path class="st7" d="M62.6,35.5c1,1.3,3.9,5.1,4.1,5.5c0.3,0.5,1.6,2.1,1.7,3.7c-0.3,0.1-1-0.6-1.3-1.4c-0.4-0.9-1.5-1.1-1.9-1.5
	c-0.5-0.4-3-5.3-3-5.9L62.6,35.5z"></path><path class="st6" d="M66.8,41c-0.2-0.4-3.1-4.2-4.1-5.5l0.2-0.2c0,0,1.2,1.4,1.6,1.5c0.4,0.1,2.7,2.3,2.9,2.5
	c0.2,0.3,0.7,1.7,1.1,2.4c0.4,0.7,0.4,2.8,0.1,2.9C68.4,43.1,67.1,41.5,66.8,41z"></path><path class="st7" d="M68.2,37.8c0.6,0.1,2.7,1.5,3.7,3.5c-0.4-0.1-2.1-1.4-2.8-1.7c-0.7-0.3-2.3-1-2.9-0.9c-0.6,0-2.3-2.1-2.4-2.2
	c-0.1-0.1-0.3-0.8-0.5-1.4C65.1,36.1,67.9,37.7,68.2,37.8z"></path><path class="st6" d="M63.4,35c-0.2-0.5-0.3-1-0.3-1l0.6,0.6c0.4,0.2,4.5,2.1,5.1,2.3c0.6,0.2,3.2,2.7,3.4,3.4c0.2,0.7,0.2,1.1-0.2,1
	c-1-2-3.2-3.3-3.7-3.5C67.9,37.7,65.1,36.1,63.4,35z"></path><path class="st7" d="M68.6,34.8c0.8,0.3,2.7,0.5,3.3,0.7c0.6,0.2,1.2,0.3,2.4,0.3c-0.1,0.2-0.6,0.5-1.9,0.4
	c-1.2-0.1-3.4-0.2-4.3-0.3c-0.9-0.1-2.6-1.4-3.3-1.6c-0.3-0.1-0.6-0.3-0.8-0.5C65.7,34.1,68,34.6,68.6,34.8z"></path><path class="st6" d="M68.6,34.8c-0.5-0.2-2.8-0.6-4.5-1c-0.3-0.3-0.4-0.5-0.4-0.5l1.3-0.2c1.3,0.3,3.5,0.4,4.3,0.7
	c0.7,0.2,4,1.1,4.4,1.3c0.4,0.2,0.8,0.4,0.7,0.6c-1.2,0-1.8-0.1-2.4-0.3C71.3,35.2,69.4,35.1,68.6,34.8z"></path><path class="st7" d="M73.3,29.3c0.3,0,0.6-0.2,0.9-0.5c0,0.1-0.1,0.2-0.2,0.4c-0.5,0.6-1.8,1.6-3,2c-1.2,0.4-3.9,1.3-4.7,1.3
	c-0.9,0-2.9-0.1-2.9-0.1l0-0.1c1.3-0.3,3.3-0.9,4.6-1.6C69.8,29.9,72.6,29.4,73.3,29.3z"></path><path class="st6" d="M69.8,29.2c1-0.5,3.4-1,3.8-1c0.3,0,0.7,0.2,0.6,0.6c-0.3,0.2-0.7,0.4-0.9,0.5c-0.7,0.1-3.5,0.6-5.2,1.5
	c-1.3,0.6-3.3,1.3-4.6,1.6l0.4-1.1C64.7,30.9,68.8,29.7,69.8,29.2z"></path><path class="st7" d="M71.1,25.1c0.3,0,0.5,0.1,0.3,0.3c-0.3,0.3-1.8,2.5-2.3,2.9c-0.5,0.4-0.7,0.6-2.1,1.6c-1.5,1-3.1,1.8-3.7,1.9
	c-0.6,0.2-1.1,0.3-1.2,0.3c1.1-0.8,3.9-2.8,4.9-3.5C68,27.8,69.4,26.5,71.1,25.1z"></path><path class="st6" d="M62.4,30.6c2.3-2.1,6-3.6,6.9-4.3s1.3-1,1.5-1.1c0.1,0,0.2,0,0.3-0.1c-1.8,1.4-3.1,2.7-4.3,3.5
	c-1,0.7-3.8,2.7-4.9,3.5c0,0,0,0,0,0L62.4,30.6z"></path><path class="st6" d="M60.6,29.9c0.4-0.9,2.4-3.3,3-3.9c0.6-0.6,1.6-1.7,1.9-1.9c0.2-0.2,0.6-0.2,0.8-0.1c-1,1-5.5,7.7-5.5,7.7
	C60.7,31.7,60.6,29.9,60.6,29.9z"></path><path class="st7" d="M66.5,24.4c-0.1,0.7-1.4,2.6-1.8,3.2c-0.4,0.6-1.8,2.6-2.3,3c-0.5,0.4-1.4,1-1.5,1c0,0,4.5-6.7,5.5-7.7
	C66.5,24,66.6,24.2,66.5,24.4z"></path><path class="st7" d="M56.8,26.5c1.6,1.1,2.7,0.8,3.2,4.7l-0.6-0.8c-0.3-0.3-1-1-1.4-1.4c-0.4-0.4-1.6-1.7-1.4-2.4
	C56.7,26.6,56.7,26.5,56.8,26.5z"></path><path class="st6" d="M56.8,26.5c0.3-0.3,0.9,0.1,1.5,0.2c0.7,0.1,1.4,0.3,2,1c0.5,0.7,0.4,1.2,0.8,1.7c0.4,0.5-0.6,1.4-0.6,1.4
	L60,31.2C59.5,27.3,58.4,27.6,56.8,26.5z"></path><path class="st8" d="M63.5,32.4l0.2,0.9c0,0,0.4-0.2,0.3,0.6c-0.2,0.7-0.2-0.3-0.8,0.1c-0.5,0.4-0.9,0.1-1,0.5
	c-0.2,0.4,0.9,1.3,0.2,1.4c-0.7,0.2-1,0.2-1.8,0.6c-0.8,0.4-0.7-0.7-0.7-0.7c0,0,0-0.5-0.4-0.5c-0.4,0.1-1.1-0.1-1.1-0.1
	s-0.5,1.1-0.6,0.6c-0.1-0.6,0.4-0.6-0.1-0.6c-0.5,0-0.7,0-1.1,0.1c-0.2,0-0.3,0.4-0.3,0.4c0-0.2-0.1-0.3-0.1-0.4
	c-0.2-0.9-0.1-1.4-0.1-1.4c0.1-0.6,0.2-0.3,0.1-0.6c-0.1-0.3-0.2-0.5-0.2-0.5s0.3-0.5,0.5-1c0.2-0.5,0.3-0.5,0.5-0.8
	c0.2-0.2,0.4-0.3,0.7-0.3s0.7-0.3,0.7-0.8c0-0.5,0.5-0.3,1.1-0.5c0.6-0.2,0.7,0.2,0.7,0.2s0.1-0.4,0.6-0.6c0.5-0.1,0.5,0.3,1.9,0.4
	l1.1,0.4l0.6,0c0,0,0.3,0.4,0.3,0.6c0,0.3,0.5,0.4,0.6,0.3c0.1,0,0.3,0.5,0.3,0.7C64.8,32.5,63.5,32.4,63.5,32.4z"></path><path class="st9" d="M65.7,33.3c0,0-0.3,0.4-0.2,1c0.1,0.6-0.1,0.3-0.2,0.6c-0.1,0.3-0.4,0.6-0.6,0.9c-0.2,0.2-0.3,1.1-0.3,1.1
	s-0.5-0.4-1.1,0.4c-0.5,0.7-0.9,0.6-1.4,0.6c-0.5,0-0.5,0.3-0.8,0.3c-0.2,0-0.4,0.1-0.8,0.2c-0.4,0.1-0.4-0.1-0.8-0.1
	c-0.4-0.1-0.5,0.1-0.9,0c-0.3-0.1-0.9-0.2-1.1-0.3c-0.2-0.1-0.9-0.8-1.2-1.1c-0.4-0.3-0.1-0.2-0.3-1c0,0,0,0,0-0.1
	c0-0.1,0-0.4,0.3-0.4c0.4-0.1,0.7-0.1,1.1-0.1c0.5,0,0,0,0.1,0.6c0.1,0.6,0.6-0.6,0.6-0.6s0.7,0.1,1.1,0.1c0.4-0.1,0.4,0.5,0.4,0.5
	c0,0-0.1,1.1,0.7,0.7c0.8-0.4,1.1-0.4,1.8-0.6c0.7-0.2-0.3-1.1-0.2-1.4c0.2-0.4,0.5,0,1-0.5c0.5-0.4,0.6,0.6,0.8-0.1
	c0.2-0.7-0.3-0.6-0.3-0.6l-0.2-0.9c0,0,1.3,0,1.9-0.9c0.1,0.2,0,0.9,0.1,0.9S65.7,33.3,65.7,33.3z"></path><path class="st11" d="M61.9,68.2c-0.8-0.7-1.7-1.3-2-1.5c-0.3-0.2-0.9-0.5-1.1-0.7c-0.2-0.2-0.5-0.3-0.7-0.5l-0.1,0.3l0.4,0.2
	c0.4,0.2,0.9,0.5,1.1,0.7s0.3,0.6,0.1,0.6c-0.2,0.1-0.4-0.1-0.5,0c-0.1,0.1-0.3,0.4-0.4,0.5c-0.1,0.1-0.3,0.2-0.4,0.3
	c-0.1,0.1-0.4,0.1-0.2,0.3s0.5,0.3,0.3,0.6c-0.2,0.2-0.4,0.3-0.4,0.5c0,0.2,0.3,0.2,0.2,0.5c0,0.3-0.1,0.4,0,0.4
	c0.2,0,0.1,0.2,0.4-0.1s0.5-0.3,0.7-0.2c0.2,0.1,0.4,0,0.4-0.3c0-0.2-0.3-0.2-0.1-0.4c0.2-0.2,0.1-0.2,0.3-0.3s0.2-0.1,0.2-0.3
	c0-0.2-0.4-0.3,0.1-0.4c0.5-0.1,0.4-0.6,0.7-0.5s0.5,0.4,0.2,0.5c-0.3,0.2-0.5,0-0.7,0.3s-0.6,0.4-0.3,0.6c0.3,0.2,0.5,0.2,0.4,0.4
	c-0.1,0.2-0.2,0.1-0.3,0.3c-0.1,0.2-0.1,0.4-0.1,0.6c0,0.1-0.4,0.1-0.3,0.5c0.2,0.4,0.3,0.3,0.2,0.6c-0.1,0.3-0.1,0.5,0.1,0.6
	c0.2,0.1,0.4,0.2,0.4,0.2c0,0.1,0.1,0,0.3-0.1c0.1-0.1,0.4-0.1,0.5-0.4s0-0.4,0.3-0.6c0.1-0.1,0.3-0.1,0.4-0.2
	c-0.1-0.2-0.2-0.2-0.2-0.4c0-0.1,0-0.1,0.1-0.1c-0.1-0.2-0.2-0.3-0.2-0.4c-0.1-0.1-0.1-0.4,0.3-0.4c0.3,0.1,0.5-0.2,0.5-0.2
	c0.1,0.1,0.1,0.5,0,0.6c-0.1,0.1-0.4,0.1-0.5,0.3c0,0.1,0.1,0.1,0.1,0.2c0.1,0.2,0,0.3,0,0.3c0,0.1,0,0.2,0,0.3
	c-0.2,0.5-0.4,0.7-0.6,0.9c-0.1,0.2-0.1,0.7-0.2,0.7c0,0.1,0.2-0.2,0.6-0.1c0.5,0.1,0.6-0.1,0.6,0.3c-0.1,0.4-0.1,0.5,0,0.6
	c0.1,0.2,0.1,0.2,0.2,0.3c0.1,0.1,0.3,0.2,0.4,0.2c0.1,0,0.3-0.3,0.5-0.4c0.1-0.1,0.3-0.2,0.3-0.5c-0.1-0.3-0.1-0.6,0-0.7
	c0.1-0.1,0-0.5,0.2-0.5c0.2,0,0.3,0.3,0.3,0.5c0,0.2,0,0,0,0.7c0,0.6-0.2,0.8,0.3,0.9s0.6,0,0.9,0c0.3,0,0.4,0.1,0.5,0.2
	c0,0.1,0.1,0.2,0.4,0.1c0.3-0.1,0.4-0.2,0.6-0.1c0.2,0.1,0.2,0.2,0.4,0.2c0,0,0.1-0.1,0.2-0.1c-0.8-1-2.1-2-3.1-3.4
	C63.2,70,62.7,68.8,61.9,68.2z"></path><path class="st12" d="M67.4,74.5c0-0.3,0.2-0.5,0.2-0.9c0-0.4,0.4-0.8,0-1.1c-0.4-0.3-0.5-0.5-0.3-0.8c0.1-0.1,0.1-0.2,0.1-0.3
	c0,0-0.1-0.1-0.2-0.1c-0.2-0.1-0.3,0.1-0.5,0.2c-0.2,0.1-0.5,0.1-0.6,0c-0.1-0.1-0.2-0.5,0-0.4c0.2,0,0.5,0,0.8,0
	c0.3,0,0.9-0.4,0.8-0.4c-0.2,0-0.4,0-0.2-0.1s0.2-0.2,0.3-0.4c0.1-0.3,0.1-0.3-0.1-0.4s-0.2,0.2-0.2-0.2s-0.1-0.3-0.1-0.5
	c0-0.2,0-0.4-0.2-0.5c-0.2-0.1-0.5,0-0.6,0.2c-0.1,0.2-0.6,0.7-0.7,0.8c-0.2,0.1-0.4,0.2-0.7,0.2c-0.2,0-0.3-0.2-0.4-0.2
	c-0.1-0.1-0.4,0-0.3-0.1c0.1-0.1,0.5-0.3,0.8-0.3c0.4,0,0.7-0.1,0.9-0.3s0.4-0.4,0.5-0.5c0.1-0.1,0.1-0.3,0-0.3
	c-0.1,0-0.6,0.1-0.8,0c-0.2-0.1-0.5,0.2-0.6,0.4c-0.1,0.2-0.4,0.1-0.2-0.1c0.1-0.1,0.1-0.2,0.2-0.3c0,0,0,0,0-0.1
	c-0.2,0-0.3,0.1-0.5,0.1c0,0-0.1,0.1-0.1,0.1c-0.1,0.1-0.2,0.2-0.2,0.3c-0.1,0-0.4-0.1-0.5,0.1c-0.1,0.2-0.1,0.5-0.3,0.5
	c-0.2,0-0.3-0.1-0.4-0.2s-0.3-0.2,0-0.4c0.3-0.2,0.5-0.4,0.7-0.3c0.1,0,0.4,0,0.8,0c0.1-0.1,0.2-0.2,0.3-0.2c0.2-0.1,0.2,0,0.2,0.1
	c0.3-0.1,0.5-0.2,0.5-0.3c-0.1-0.4-0.3-0.4-0.1-0.6c0.2-0.2,0.5-0.2,0.5-0.4c0-0.2-0.2-0.5-0.3-0.6c-0.2-0.1-0.4-0.1-0.4-0.2
	c-0.1-0.1-0.6-0.6-0.6-0.6s-0.2,0.3-0.2,0.6c-0.1,0.3-0.4,0.6-0.5,0.6c-0.2,0-0.4-0.5-0.2-0.6s0.5-0.1,0.6-0.3
	c0-0.2,0.1-0.4-0.3-0.2c-0.5,0.1-0.6,0.1-0.8,0.4s-0.1,0.5-0.2,0.7c-0.1,0.2-0.4,0.4-0.5,0c0-0.3-0.2-0.6-0.2-0.6s-0.2,0.2-0.4,0.3
	c-0.2,0.1-0.3,0-0.3,0.3c0,0.3,0.1,0.9-0.1,0.9c-0.3,0-0.8-0.3-0.9-0.4c0-0.1-0.1-0.1,0.1-0.4s-0.1-0.5,0.3-0.8
	c0.4-0.3,0.5-0.2,0.6-0.4c0.1-0.2,0.3-0.5,0.4-1c0-0.5,0.2-0.7,0.1-0.9s-0.7-0.5-0.8-0.4c-0.1,0-0.3,0.1-0.5,0.4
	c-0.2,0.3-0.2,0.6-0.4,0.5c-0.2-0.1-0.1-0.3-0.4-0.1c-0.3,0.2-0.6,0.9-0.3,1s0.6,0,0.5,0.2s-0.3,0-0.4,0.3c0,0.2,0.1,0.5,0.1,0.7
	c0,0.2-0.1,0.4-0.2,0.4s-0.2,0.2-0.4,0c-0.3-0.2-0.5-0.3-0.7-0.4c-0.2-0.1-0.5-0.3-0.5-0.3l-0.3-0.1l-0.1,0.1
	c0.2,0.2,0.5,0.3,0.7,0.5c0.2,0.2,0.8,0.5,1.1,0.7c0.3,0.2,1.2,0.8,2,1.5c0.8,0.7,1.3,1.9,2.3,3.3c1,1.4,2.3,2.4,3.1,3.4
	C67.3,74.8,67.4,74.7,67.4,74.5z"></path><path class="st11" d="M56.7,86.9c-1.9,0.3-3.9,0.5-4.5,0.6c-0.7,0.1-1.8,0.1-2.4,0.3c-0.4,0.1-1,0.1-1.5,0.2l0-0.4l0.9,0
	c0.8,0,1.9-0.1,2.4-0.2c0.5-0.2,1-0.4,0.7-0.6c-0.3-0.1-0.8-0.1-0.9-0.3c-0.1-0.2-0.2-0.5-0.4-0.7c-0.2-0.1-0.3-0.4-0.4-0.4
	c-0.1-0.1-0.6-0.3,0-0.4c0.6-0.1,1-0.1,0.9-0.4c-0.1-0.3-0.4-0.4-0.2-0.6c0.2-0.2,0.6-0.1,0.8-0.4c0.2-0.3,0-0.4,0.4-0.4
	c0.3,0,0.3-0.1,0.6,0.3c0.2,0.4,0.6,0.5,0.9,0.5c0.3,0,0.6,0.2,0.4,0.4c-0.2,0.2-0.6,0.1-0.5,0.4c0.1,0.3,0.1,0.2,0.2,0.5
	c0.1,0.2,0.3,0.2,0.1,0.4c-0.2,0.2-0.9,0.1-0.2,0.5c0.6,0.4,0.1,0.8,0.7,0.9c0.6,0.1,1.1-0.2,0.8-0.4c-0.3-0.3-0.7-0.3-0.8-0.6
	c-0.1-0.4-0.7-0.6,0-0.7c0.6-0.1,1,0,1-0.2c0-0.2-0.2-0.2-0.3-0.5c-0.1-0.3,0.1-0.5,0.2-0.6s-0.6-0.3,0-0.6c0.6-0.3,0.7-0.2,0.8-0.6
	c0.1-0.3,0.2-0.6,0.7-0.6s0.7,0,0.8,0c0.1,0,0.2,0.1,0.3,0.3c0.1,0.2,0.6,0.3,0.6,0.6c0,0.3-0.3,0.4,0,0.7c0.2,0.1,0.3,0.3,0.4,0.4
	C59,84,58.7,84,58.7,84.2c0,0.1,0,0.1,0,0.2c-0.3,0.2-0.6,0.2-0.7,0.3c-0.2,0.1-0.4,0.4,0.1,0.5c0.6,0.1,0.5,0.5,0.7,0.4
	c0.2-0.1,0.5-0.5,0.5-0.6c0-0.2-0.5-0.3-0.6-0.5c0.1,0,0.2-0.1,0.3-0.2c0.2-0.1,0.3-0.2,0.2-0.4c0.1-0.1,0.2-0.2,0.2-0.4
	c0.1-0.6-0.2-0.9-0.2-1.2c0-0.3,0.3-0.8,0.3-0.8s0.1,0.3,1,0.4c0.9,0.1,1,0.4,1.1,0c0.2-0.4,0.1-0.5,0.4-0.7
	c0.3-0.1,0.3-0.1,0.6-0.2c0.3-0.1,0.7-0.1,0.8,0c0.1,0,0.3,0.5,0.4,0.6c0.2,0.1,0.4,0.3,0,0.6s-0.6,0.6-0.6,0.7c0,0.2-0.3,0.5,0,0.6
	c0.3,0.1,0.7-0.2,0.8-0.4c0.1-0.2,0-0.1,0.5-0.7c0.6-0.6,0.3-0.9,1.2-0.8c0.9,0.1,1,0.2,1.5,0.4c0.5,0.1,0.8,0.1,0.9,0
	c0.1,0,0.3-0.2,0.7,0s0.4,0.4,0.8,0.4s0.6-0.1,0.7,0c0.1,0,0.1,0.1,0.2,0.2c-2.1,0.7-5,1.1-7.8,2.1C60.4,85.6,58.6,86.6,56.7,86.9z"></path><path class="st12" d="M71,82.9c-0.2,0.3,0,0.6-0.4,1c-0.4,0.4,0.1,1-0.9,1.1s-1.2,0.3-1.2,0.7c0,0.2,0,0.3-0.1,0.3
	c-0.1,0-0.2,0-0.4,0c-0.4,0-0.4-0.3-0.6-0.4c-0.2-0.2-0.8-0.3-1-0.2c-0.2,0.1-0.7,0.4-0.3,0.5c0.4,0.1,0.8,0.2,1.3,0.3
	c0.5,0.1,1.2,0.8,0.9,0.7c-0.3,0-0.6-0.2-0.5,0s0.1,0.3,0.1,0.6c0,0.3-0.1,0.4-0.6,0.4c-0.5,0-0.1-0.3-0.4,0.2
	c-0.4,0.5-0.4,0.3-0.5,0.5c-0.1,0.2-0.3,0.4-0.7,0.5c-0.4,0-0.8-0.3-0.9-0.5c-0.1-0.2-0.3-1-0.5-1.2c-0.2-0.2-0.5-0.4-0.9-0.5
	c-0.4,0-0.5,0-0.8,0s-0.7-0.2-0.5,0c0.1,0.2,0.5,0.5,1.2,0.7s1,0.4,1.2,0.7c0.2,0.3,0.3,0.6,0.3,0.8c0.1,0.2-0.2,0.4-0.3,0.3
	c-0.1,0-0.9-0.3-1.4-0.3c-0.4,0-0.6-0.4-0.6-0.6c0-0.3-0.5-0.3-0.5,0c0,0.1,0,0.3,0,0.4c0,0,0,0,0,0.1c-0.2-0.1-0.5-0.2-0.8-0.3
	c0,0-0.1-0.1-0.1-0.1c-0.1-0.2-0.1-0.3-0.2-0.4c-0.2-0.1-0.7-0.1-0.7-0.3c0-0.2,0.3-0.6,0-0.6c-0.3,0-0.7,0-0.8,0
	c-0.2,0-0.7,0.1-0.3,0.4c0.3,0.3,0.5,0.6,0.9,0.7c0.2,0,0.7,0.2,1.2,0.4c0.1,0.1,0.2,0.2,0.3,0.3c0.3,0.2,0.4,0.1,0.4,0
	c0.4,0.2,0.7,0.4,0.5,0.6c-0.5,0.4-0.8,0.3-0.6,0.5c0.2,0.2,0.7,0.4,0.5,0.6c-0.2,0.2-0.7,0.4-1.1,0.5s-0.7-0.1-0.9,0
	c-0.2,0.1-1.4,0.4-1.4,0.4s0-0.4,0.1-0.8c0.2-0.4-0.1-0.8-0.4-0.9c-0.3-0.1-1,0.3-0.7,0.5c0.2,0.2,0.8,0.3,0.7,0.5s-0.1,0.4-0.7,0.1
	s-1-0.4-1-0.7c0-0.3,0.2-0.5,0.2-0.8c0-0.2-0.4-0.6-0.7-0.2c-0.3,0.3-0.8,0.6-0.8,0.6s-0.2-0.3-0.3-0.5c-0.2-0.2-0.5-0.1-0.3-0.4
	c0.2-0.3,1-0.9,0.5-1c-0.4-0.1-1.6,0-1.7,0.1c-0.1,0.1-0.2,0.1-0.2,0.5c0,0.3-0.5,0.5-0.2,1c0.4,0.5,0.6,0.5,0.7,0.7
	s0.2,0.6-0.2,1.1c-0.4,0.5-0.1,0.8-0.5,0.9c-0.4,0.2-1.6,0.2-1.7,0.1c-0.1-0.1-0.4-0.3-0.5-0.7c-0.1-0.4,0.1-0.7-0.3-0.7
	s-0.5,0.3-0.7-0.1c-0.2-0.3-0.3-1.2,0.4-1.2c0.7,0.1,1,0.2,0.9,0c-0.1-0.2-0.5-0.2-0.4-0.4c0.1-0.3,0.7-0.5,0.8-0.7
	c0.1-0.2,0.1-0.4,0-0.5s-0.1-0.2-0.7-0.2c-0.5,0-1.1,0.1-1.5,0.1c-0.4,0-1.1,0.1-1.1,0.1l-0.6,0l0-0.2c0.5-0.1,1.1-0.1,1.5-0.2
	c0.5-0.1,1.7-0.2,2.4-0.3c0.7-0.1,2.7-0.3,4.5-0.6c1.9-0.3,3.7-1.3,6.4-2.3c2.8-1,5.7-1.4,7.8-2.1C71,82.5,71.1,82.7,71,82.9z"></path><path class="st5" d="M45.2,26.6C45.2,26.6,45.2,26.5,45.2,26.6C45.3,26.5,45.4,26.9,45.2,26.6z"></path><path class="st6" d="M37.8,32.8c0,0.3-2.6,4.5-4.1,6.9c-0.1-0.2-0.1-0.7-0.2-0.8c-0.1-0.2,0.2-1.4,0.8-2.4c0.5-1,3.3-5.8,3.3-5.8
	l1,0.1l0,0.2C38.2,31.7,37.8,32.6,37.8,32.8z"></path><path class="st7" d="M36.3,37.8c-0.5,0.7-1.9,1.8-2.3,2c-0.1,0.1-0.2,0-0.3-0.1c1.5-2.4,4.1-6.6,4.1-6.9c0-0.2,0.4-1.1,0.8-1.9
	l0.3,1.6C38.9,32.5,36.8,37.1,36.3,37.8z"></path><path class="st6" d="M34.6,33.8c-1.1,1.1-2.5,1.9-4.3,3.5c-0.3-0.1,0.1-1,0.4-1.5c0.3-0.5,1.1-1.1,2.2-1.7c1.1-0.6,3.9-3.8,3.9-3.8
	l1.3-0.7l-0.3,0.9l-1.1,1C36.6,31.5,35.7,32.8,34.6,33.8z"></path><path class="st7" d="M35.6,34.2c-0.6,1.2-3.1,2.2-3.9,2.7c-0.8,0.5-1.2,0.5-1.5,0.4c1.9-1.6,3.3-2.5,4.3-3.5c1.1-1.1,2-2.3,2-2.3
	l1.1-1l-0.1,0.2C37.6,30.7,36.2,33,35.6,34.2z"></path><path class="st6" d="M32.8,30.5c-1.2,0.4-3.7-0.1-4.5-0.1c0,0,0.7-0.8,1.1-0.9c0.3-0.1,3.2-0.6,4.1-0.5c1,0.1,3.9-0.5,3.9-0.5
	l0.3,0.5c-0.7,0.2-1.9,0.4-2.4,0.6C34.4,29.7,34,30.1,32.8,30.5z"></path><path class="st7" d="M35.7,30.5c0,0-2.5,1-3.3,1.2c-0.9,0.2-4.1-1.3-4.1-1.3c0.8,0,3.3,0.5,4.5,0.1c1.2-0.4,1.6-0.7,2.3-1
	c0.5-0.2,1.7-0.4,2.4-0.6l0.4,0.7L35.7,30.5z"></path><path class="st7" d="M30.5,25.9c0,0,0.8,1,1.8,1.2c1,0.3,4,1.3,5.3,1c0,0-2.6,0.7-3.7,0.9c-1.1,0.2-2.9-1.4-3.4-1.7
	C30.2,26.9,30.4,25.9,30.5,25.9z"></path><path class="st6" d="M32.4,27.1c-1-0.3-1.8-1.2-1.8-1.2c0.1-0.1,0.9-0.2,2.2-0.1c1.3,0.1,4.7,1.7,4.7,1.7l0.3,0.6
	C36.3,28.4,33.3,27.4,32.4,27.1z"></path><path class="st7" d="M36.3,23.2c-0.3-1,0.2-2.2,0.2-2.2s1.6,3.8,2.6,5.5L38,27.1c0,0-0.4-1-0.6-1C37.2,26,36.6,24.2,36.3,23.2z"></path><path class="st6" d="M38.4,22c1,0.7,1.6,2.8,1.8,3.3l-0.3,0.8l-0.8,0.4c-1-1.7-2.6-5.5-2.6-5.5S37.4,21.3,38.4,22z"></path><path class="st7" d="M42,24.9l-0.8,2.6l-0.4-1.9c0-1.1,0.1-2.2,0.4-3c0.3-0.8,1-1.3,1-1.3l0.8-0.5C42.3,21.3,42,24.9,42,24.9z"></path><path class="st6" d="M43.1,25.1c-0.5,0.8-1.8,2.4-1.8,2.4l0.8-2.6c0,0,0.3-3.6,1.1-4.1C43.1,20.8,43.6,24.3,43.1,25.1z"></path><path class="st7" d="M45.3,23.1c-0.3,0.7-0.5,1.6-2.4,3.5c0-0.5,0.7-2.2,1-3.1c0.4-0.9,1.1-2.1,1.1-2.7s1.1-1.9,1.1-1.9
	C45.7,20.1,45.6,22.4,45.3,23.1z"></path><path class="st6" d="M46.6,20.4c0,0.8,0.1,3.1-0.4,3.8c-0.5,0.7-1.6,1.7-1.9,2c-0.3,0.2-1.4,0.5-1.4,0.5c1.9-1.9,2.1-2.8,2.4-3.5
	c0.3-0.7,0.4-3,0.8-4.2C46.1,18.9,46.6,19.5,46.6,20.4z"></path><path class="st6" d="M51.8,21.1c0.1,0.5-0.7,1.1-1.1,1.4c-0.4,0.4-1.8,2.6-3,3.3c-1.2,0.7-2.1,1.2-2.5,1.4c-0.4,0.2-1.2,0.7-1.2,0.7
	l-0.3-0.3c3-2.1,3.4-2.8,4.3-3.8C49,22.7,50,22.3,51.8,21.1z"></path><path class="st7" d="M47.4,23.3c0.5-0.4,2.1-1.5,2.6-1.7c0.6-0.2,1.6-0.9,1.7-0.5C50,22.3,49,22.7,48,23.7c-0.9,1-1.3,1.7-4.3,3.8
	l-0.4-0.4C45.4,24.8,47,23.7,47.4,23.3z"></path><path class="st6" d="M43.8,28c1.3,0,3.1,0,3.3,0.1c0.3,0.1,4-0.4,6.4-0.2c-0.1,0.1-1.8,0.4-2.7,0.6c-0.9,0.2-2.8,0.3-3.3,0.3
	c-0.5,0-3.1-0.2-3.9,0c0,0-1.6,0.4-1.6,0.2C42.1,28.7,42.8,28.3,43.8,28z"></path><path class="st7" d="M43.8,28c0.1,0,0.1,0,0.2-0.1c1.1-0.3,1.2-0.7,1.2-0.7s2.9,0,3.7-0.1c0.8-0.1,3.7,0,4.2,0.1
	c0.5,0.1,0.4,0.5,0.3,0.6c-2.4-0.2-6.1,0.3-6.4,0.2C46.9,28,45.1,28,43.8,28z"></path><path class="st6" d="M45.9,32.5c0.2,0.5,1.6,0.7,2.8,2.6c-0.5,0-2.6-1-3.9-1.9c-1.3-0.8-2.4-2.9-2.4-2.9l0.7-0.4
	C44.2,30.8,45.8,32.2,45.9,32.5z"></path><path class="st7" d="M43.1,29.9l0.7-0.4c0,0,1.2,0.9,1.6,1.1c0.5,0.2,3,2.5,3.3,2.9c0.3,0.4,0.5,1.5-0.1,1.5
	c-1.2-1.9-2.6-2.1-2.8-2.6C45.8,32.2,44.2,30.8,43.1,29.9z"></path><path class="st6" d="M41.2,29.9l0.4-0.5c0.3,1.3,1.1,3.6,1.4,4.2c0.4,0.9,0.5,1.2,2.5,3.5c-0.3,0.4-1.6-0.5-2-0.9
	c-0.4-0.4-1.1-1.1-1.3-1.5C41.9,34.4,41.1,30.7,41.2,29.9z"></path><path class="st7" d="M43,33.6c-0.3-0.6-1-2.9-1.4-4.2l0.4-0.5l0.4,1.3c0,0,2.7,4.4,3.1,5.1c0.4,0.7,0.3,1.4-0.1,1.8
	C43.5,34.9,43.4,34.5,43,33.6z"></path><path class="st7" d="M40.3,31.4c0.6,0.8,1.5,5.3,1,6.5c-0.5,1.2-1,2-1.4,2.2c0.3-3.8-0.1-6.7-0.6-9.4L40.3,31.4z"></path><path class="st6" d="M38.3,38.5c-0.1-0.7,0.5-5.4,0.6-6c0.1-0.6,0.4-1.8,0.4-1.8l0,0c0.5,2.6,0.9,5.6,0.6,9.4
	C39.6,40.5,38.5,39.2,38.3,38.5z"></path><path class="st7" d="M42.7,29.3l0.4-0.4c0,0,1.2-0.2,1.9-0.2c0.8,0,7.5,0.6,7.5,0.6s1.1,0.3,0.9,0.6c0,0-4.9-0.2-5.4-0.3
	C47.6,29.4,43.6,29.2,42.7,29.3z"></path><path class="st6" d="M51,30.4c-1,0.3-2,0.3-2.7,0.3c-0.8,0-3.1-0.6-3.5-0.8c-0.3-0.1-0.7-0.4-1-0.5l-1.1-0.2
	c0.9-0.1,4.9,0.1,5.4,0.2c0.5,0.1,5.4,0.3,5.4,0.3C53.3,30.2,51.9,30.1,51,30.4z"></path><path class="st8" d="M43.6,28.8L42,28.9c0,0,0.2,0.7,0.1,0.7c-0.1,0-0.9,0.2-0.9,0.2L41,29.5c0,0-0.3,0.4-1,0.6c0,0-0.1-0.4-0.6-0.5
	c-0.5-0.1,0,0-0.2,0.3c-0.2,0.3-0.4,0-0.6-0.2c-0.1-0.2-0.7-0.1-1.2-0.5c-0.3-0.2-0.6-0.1-1,0l0.1-0.6l-0.3-0.5c0,0,0.1-0.5,0.2-0.8
	c0.1-0.2,0.5-0.3,0.5-0.3s0.2-0.5,0.5-1c0,0,0.8-0.3,1-0.5c0.2-0.2,0.2-0.2,0.4-0.2c0.1,0,0.2,0,0.5,0.1c0.2,0.1,1-0.1,0.6-0.5
	c-0.4-0.3,0.7-0.4,1.5-0.4l0.6,0.3l0.6-0.1l0.5,0.3l0.7,0.1c0,0,0,0,0.1,0.1c0.1,0.1,0.9,0.3,0.8,0.3c0,0,0,0.1,0.1,0.3
	c-0.2,0.4-0.3,0.7-0.3,0.7S44.1,28.3,43.6,28.8z"></path><path class="st9" d="M45.2,26.6c0,0.1,0,0.6,0,0.6s0,0,0,0.5c0,0.5,0.3,0.4,0.4,0.8S45,28.7,45,28.7l0.1,0.4c0,0,0,0-0.1,0.2
	c-0.1,0.2-0.2,0.6-0.2,0.6s-1-0.5-1.3,0.4c-0.4,0.9,0,0-0.4,0.5c-0.4,0.5-0.2,0.2-0.9,0.3l-1.9,0.3c0,0-0.8,0.5-1,0.6
	c-0.3,0-0.3,0.5-0.7,0.1c-0.3-0.4,0,0-0.2-0.1c-0.2-0.1-0.5-0.6-0.5-0.6s0,0-0.3-0.7c-0.3-0.7-0.9-0.4-0.9-0.4
	c-0.6,0.1-0.4-0.7-0.4-0.7l0.1-0.4c0.4,0,0.7-0.1,1,0c0.5,0.3,1.1,0.3,1.2,0.5c0.1,0.2,0.3,0.5,0.6,0.2c0.2-0.3-0.2-0.4,0.2-0.3
	c0.5,0.1,0.6,0.5,0.6,0.5c0.7-0.2,1-0.6,1-0.6l0.2,0.4c0,0,0.7-0.2,0.9-0.2c0.1,0-0.1-0.7-0.1-0.7l1.6-0.2c0.5-0.4,0.9-2.2,0.9-2.2
	s0.2-0.4,0.3-0.7C44.9,26.1,45,26.3,45.2,26.6C45.2,26.5,45.2,26.6,45.2,26.6z"></path><path class="st10" d="M43.4,54.4c0,0,0,0,0,0.3l0,0C43.4,54.6,43.4,54.5,43.4,54.4z"></path><path class="st7" d="M41,61.5c0,0.3,0.3,0.7,0.5,1c1-1.6,3.2-5,3.4-5.1c0.1-0.1,0.5-0.4,0.9-0.7l0-0.3c0,0-0.6,0.1-1.2,0.3
	c-0.6,0.2-3.1,3.6-3.4,4C40.9,61,41,61.2,41,61.5z"></path><path class="st6" d="M41.5,62.5C41.5,62.6,41.5,62.6,41.5,62.5c0.3,0.3,0.8,0,1.6-0.6c0.9-0.5,2.8-4.1,2.8-4.1l-0.1-1.2
	c-0.4,0.3-0.7,0.7-0.9,0.7C44.8,57.6,42.5,61,41.5,62.5z"></path><path class="st6" d="M43.1,56.1c-0.5,0.2-2,0.7-2.6,1c-0.4,0.1-2,0.4-3.2,0.6c0,0.1,0.1,0.2,0.2,0.3c0.3,0.5,3.2,0.2,4.2,0
	c1-0.3,3.3-2.1,3.8-2.3l-0.6-0.2c0,0-0.1,0-0.1,0C44.6,55.3,43.6,55.9,43.1,56.1z"></path><path class="st7" d="M42,55.2c-0.7,0.2-4.4,1.4-4.7,1.7c-0.2,0.2-0.2,0.4-0.1,0.7c1.1-0.2,2.7-0.4,3.2-0.6c0.6-0.2,2.1-0.8,2.6-1
	c0.5-0.2,1.5-0.7,1.7-0.7c0,0,0.1,0,0.1,0L44.1,55C44.1,55,42.7,55,42,55.2z"></path><path class="st6" d="M38.6,53.2l-1.7-0.4c-0.1,0.1-0.1,0.1-0.1,0.2c-0.2,0.5,0.2,0.6,0.8,0.7c0.7,0.1,2.2,0.4,3.9,0.8
	c1.7,0.4,3.9-0.2,3.9-0.2s-0.1-0.2-0.3-0.3c-1.5-0.1-3.5-0.2-4-0.3C40.4,53.6,38.6,53.2,38.6,53.2z"></path><path class="st7" d="M42.7,53.4c0,0-2.8-0.4-4-0.7c-1-0.2-1.6-0.1-1.9,0.2l1.7,0.4c0,0,1.7,0.4,2.4,0.5c0.4,0.1,2.5,0.2,4,0.3
	c-0.2-0.2-0.5-0.4-0.8-0.4C43.5,53.6,42.7,53.4,42.7,53.4z"></path><path class="st6" d="M39.9,49.7c-0.6-0.1-1.7-0.6-1.7-0.7c-0.1,0.1-0.2,0.2-0.3,0.4c-0.4,0.6,0,0.3,0.7,0.6c0.7,0.3,0.9,0.7,1.6,1
	c0.7,0.3,1.5,0.9,2.5,1.5c1,0.6,3.7,1.5,4,1.8c0,0-0.1-0.2-0.1-0.4c-1.5-1.1-4-2.7-4.5-3C41.3,50.5,40.5,49.8,39.9,49.7z"></path><path class="st7" d="M43.8,50.7c-1.2-1.2-3.5-1.6-4.3-1.8c-0.7-0.2-1.1-0.1-1.4,0.2c0,0,1.1,0.5,1.7,0.7c0.6,0.1,1.5,0.8,2.2,1.2
	c0.5,0.3,3,1.9,4.5,3c-0.1-0.4-0.3-1-0.3-1.1C46.1,52.7,45.1,52,43.8,50.7z"></path><path class="st7" d="M44.9,49.8c0.4,0.5,2.6,4.1,2.6,4.1s-0.4-1.4-0.5-1.5c-0.1-0.1-1-2.5-1.1-3c-0.1-0.5-2-4-2.6-4.6
	c-0.5-0.6-1.4-0.7-1.8-0.5c0.1,0.1,0.2,0.1,0.3,0.1C42.2,44.5,44.5,49.3,44.9,49.8z"></path><path class="st6" d="M42.1,48c0.4,0.9,3.7,4.5,4.1,4.8l1.4,1.1c0,0-2.3-3.5-2.6-4.1c-0.4-0.5-2.7-5.3-3.1-5.4
	c-0.1,0-0.2-0.1-0.3-0.1c-0.1,0-0.1,0-0.2,0.1C41.1,44.8,41.7,47,42.1,48z"></path><path class="st6" d="M47,47.3c-0.1-0.3,0.5,0.1-1.2-3.5c-0.1,0.3,0.6,2,0.4,2.6c-0.2,0.6,0,0.9-0.2,1.6c-0.2,0.7,1,4.1,1.1,4.9
	c0-0.6,0.1-3,0.1-3.4C47.2,48.9,47,47.6,47,47.3z"></path><path class="st13" d="M46.9,53L46.9,53C46.9,53,46.9,53,46.9,53z"></path><path class="st13" d="M46.9,52.9c0,0,0-0.1,0-0.1C46.9,52.9,46.9,52.9,46.9,52.9z"></path><path class="st7" d="M47.6,52.2c0,0,1.2-2.9,0.8-3.8c-0.3-0.8-0.8-4-1.7-4.5c-0.9-0.6-0.9-0.5-1.1-0.2c1.8,3.7,1.2,3.3,1.2,3.5
	c0.1,0.3,0.2,1.6,0.2,2.1c-0.1,0.4-0.1,2.8-0.1,3.4c0,0.1,0,0.1,0,0.1l0,0C47.1,52.9,47.6,52.2,47.6,52.2z"></path><path class="st7" d="M48.9,53.4c0.6-1.3,2.4-5,2.5-5.4c0.2-0.5,1-2.1,0.8-3.4c-0.3,0-0.7,0.7-0.9,1.5c-0.2,0.8-1,1.2-1.4,1.6
	c-0.3,0.4-1.6,5-1.5,5.5L48.9,53.4z"></path><path class="st6" d="M51.4,47.9c-0.1,0.4-1.9,4.1-2.5,5.4l0.2,0.1c0,0,0.8-1.4,1.1-1.6c0.3-0.2,1.9-2.4,2-2.7
	c0.2-0.3,0.3-1.5,0.5-2.2c0.2-0.7-0.2-2.4-0.5-2.5C52.4,45.9,51.6,47.4,51.4,47.9z"></path><path class="st7" d="M53.2,50.4c0.5-0.2,2-1.8,2.6-3.6c-0.3,0.2-1.5,1.6-2,1.9c-0.5,0.3-1.8,1.2-2.3,1.3c-0.5,0.1-1.6,2.2-1.6,2.3
	c0,0.1-0.1,0.7-0.1,1.3C50.9,52.4,52.9,50.5,53.2,50.4z"></path><path class="st6" d="M49.6,53.6c0,0.5-0.1,0.9-0.1,0.9l0.4-0.6c0.3-0.2,3.4-2.5,3.9-2.9s2.2-2.9,2.2-3.5c0-0.6,0-1-0.3-0.9
	c-0.5,1.9-2.1,3.4-2.6,3.6C52.9,50.5,50.9,52.4,49.6,53.6z"></path><path class="st7" d="M54,52.9c0.6-0.4,2.2-0.9,2.7-1.2c0.5-0.3,1-0.5,2-0.7c-0.1-0.2-0.6-0.3-1.7,0c-1,0.3-2.8,0.8-3.6,1
	c-0.7,0.2-1.9,1.6-2.5,1.9c-0.3,0.1-0.5,0.4-0.6,0.6C51.8,53.9,53.6,53.1,54,52.9z"></path><path class="st6" d="M54,52.9c-0.4,0.3-2.3,1-3.7,1.6c-0.2,0.3-0.3,0.5-0.3,0.5l1.2-0.1c1.1-0.5,2.9-1,3.5-1.3
	c0.6-0.3,3.2-1.7,3.5-1.9c0.3-0.3,0.6-0.5,0.5-0.6c-1,0.2-1.5,0.4-2,0.7C56.3,52,54.7,52.5,54,52.9z"></path><path class="st7" d="M59.1,56.6c0.2,0,0.6,0.1,0.9,0.2c0-0.1-0.1-0.2-0.2-0.3c-0.5-0.4-1.8-1-2.9-1.2c-1.1-0.1-3.5-0.4-4.2-0.2
	c-0.7,0.2-2.4,0.6-2.4,0.6l0,0c1.1,0,3,0.2,4.2,0.5C56,56.7,58.4,56.7,59.1,56.6z"></path><path class="st6" d="M56.1,57.4c0.9,0.2,3.1,0.2,3.4,0.1c0.3-0.1,0.5-0.3,0.4-0.6c-0.3-0.1-0.6-0.2-0.9-0.2c-0.6,0-3.1,0.1-4.7-0.3
	c-1.2-0.3-3.1-0.5-4.2-0.5l0.6,0.9C51.5,56.8,55.2,57.2,56.1,57.4z"></path><path class="st7" d="M58,60.6c0.2,0,0.4-0.2,0.2-0.3c-0.3-0.2-2-1.8-2.5-2c-0.5-0.3-0.7-0.4-2.1-1c-1.4-0.6-2.9-0.9-3.5-1
	c-0.5,0-1,0-1.1,0c1,0.5,3.8,1.7,4.8,2.1C54.8,58.9,56.2,59.7,58,60.6z"></path><path class="st6" d="M49.6,57.5c2.3,1.3,5.7,1.9,6.6,2.4c1,0.5,1.2,0.6,1.5,0.7c0.1,0,0.2,0,0.2,0c-1.8-0.8-3.1-1.7-4.3-2.2
	c-1-0.4-3.7-1.6-4.8-2.1c0,0,0,0,0,0L49.6,57.5z"></path><path class="st6" d="M48.2,58.5c0.5,0.7,2.7,2.4,3.2,2.8c0.6,0.4,1.7,1.1,2,1.3c0.2,0.1,0.5,0.1,0.7-0.1c-1-0.6-6-5.5-6-5.5
	C47.9,56.9,48.2,58.5,48.2,58.5z"></path><path class="st7" d="M54.2,62c-0.2-0.6-1.7-2-2.1-2.4c-0.4-0.5-2-1.9-2.5-2.1c-0.5-0.2-1.3-0.6-1.5-0.6c0,0,5,4.9,6,5.5
	C54.2,62.4,54.2,62.2,54.2,62z"></path><path class="st7" d="M45.6,62c1.1-1.2,2.1-1.2,1.9-4.6l-0.3,0.8c-0.2,0.3-0.7,1-1,1.4c-0.3,0.4-1,1.8-0.7,2.2
	C45.5,62,45.5,62,45.6,62z"></path><path class="st6" d="M45.6,62c0.3,0.2,0.7-0.3,1.2-0.5c0.6-0.2,1.2-0.5,1.5-1.2c0.3-0.7,0.1-1.1,0.4-1.6c0.2-0.5-0.7-1-0.7-1
	l-0.4-0.3C47.7,60.9,46.7,60.8,45.6,62z"></path><path class="st8" d="M50.1,55.8l0-0.8c0,0,0.4,0.1,0.1-0.5c-0.3-0.6-0.1,0.3-0.7,0c-0.5-0.3-0.7,0.1-0.9-0.2
	c-0.2-0.3,0.5-1.2-0.1-1.2c-0.6,0-0.9,0-1.6-0.2c-0.7-0.2-0.5,0.7-0.5,0.7c0,0,0.1,0.5-0.2,0.5c-0.3,0-0.9,0.3-0.9,0.3
	s-0.6-0.9-0.6-0.4c0,0.5,0.4,0.4,0,0.5c-0.4,0.1-0.6,0.1-1,0.1c-0.2,0-0.3-0.3-0.3-0.3c0,0.2,0,0.3,0,0.3c0,0.8,0.2,1.2,0.2,1.2
	c0.2,0.5,0.2,0.2,0.2,0.5c0,0.3-0.1,0.5-0.1,0.5s0.3,0.3,0.6,0.7c0.3,0.4,0.3,0.4,0.5,0.6c0.2,0.2,0.4,0.1,0.7,0.1
	c0.3,0,0.7,0.2,0.7,0.5c0.1,0.4,0.5,0.2,1,0.2c0.5,0.1,0.6-0.3,0.6-0.3s0.1,0.4,0.6,0.4c0.5,0,0.4-0.3,1.5-0.7l0.9-0.5l0.5-0.1
	c0,0,0.2-0.4,0.1-0.6c0-0.2,0.4-0.4,0.4-0.4c0.1,0,0.1-0.4,0.1-0.7C51.3,55.5,50.1,55.8,50.1,55.8z"></path><path class="st9" d="M51.9,54.7c0,0-0.3-0.3-0.3-0.8c0-0.6-0.1-0.3-0.3-0.4c-0.2-0.2-0.5-0.5-0.7-0.6c-0.2-0.2-0.5-0.8-0.5-0.8
	s-0.4,0.4-1-0.1c-0.6-0.5-0.9-0.3-1.3-0.3c-0.4,0.1-0.5-0.2-0.7-0.2c-0.2,0-0.3,0-0.7,0c-0.4,0-0.3,0.1-0.6,0.3
	c-0.4,0.2-0.5,0-0.7,0.2c-0.3,0.1-0.7,0.3-0.8,0.4c-0.1,0.1-0.6,0.8-0.9,1.1c-0.3,0.4,0,0.2-0.1,0.9c0,0,0,0,0,0.1
	c0,0,0.1,0.3,0.3,0.3c0.3,0,0.6-0.1,1-0.1c0.4-0.1,0,0,0-0.5c0-0.5,0.6,0.4,0.6,0.4s0.6-0.2,0.9-0.3c0.3,0,0.2-0.5,0.2-0.5
	c0,0-0.3-0.9,0.5-0.7c0.7,0.2,1,0.2,1.6,0.2c0.6,0-0.1,1,0.1,1.2c0.2,0.3,0.4,0,0.9,0.2c0.5,0.3,0.4-0.6,0.7,0
	c0.3,0.6-0.1,0.5-0.1,0.5l0,0.8c0,0,1.1-0.3,1.7,0.4c0-0.2-0.1-0.8-0.1-0.8C51.8,55.4,51.9,54.7,51.9,54.7z"></path><path class="st0" d="M40,73.6c-1.2-6.1-13.6-30.7-14.8-32.8"></path><path class="st5" d="M29.2,39.7C29.2,39.7,29.2,39.7,29.2,39.7C29.3,39.7,29.4,40,29.2,39.7z"></path><path class="st6" d="M22.1,46.3c0,0.3-2.3,4.6-3.7,7.1c-0.1-0.2-0.2-0.7-0.3-0.8c-0.1-0.2,0.1-1.4,0.6-2.4c0.5-1,3.1-5.9,3.1-5.9
	l1,0l0,0.2C22.5,45.2,22.1,46.1,22.1,46.3z"></path><path class="st7" d="M20.9,51.3c-0.5,0.7-1.8,1.9-2.2,2.1c-0.1,0.1-0.2,0-0.3-0.1c1.4-2.5,3.7-6.8,3.7-7.1c0-0.2,0.4-1.1,0.7-1.9
	l0.4,1.6C23.2,46,21.3,50.6,20.9,51.3z"></path><path class="st6" d="M19,47.5c-1,1.1-2.4,2-4.2,3.7c-0.3,0,0-1,0.3-1.5c0.3-0.5,1-1.2,2.1-1.8c1.1-0.7,3.7-4,3.7-4l1.2-0.8l-0.2,1
	l-1,1C20.8,45.1,20,46.4,19,47.5z"></path><path class="st7" d="M20,47.8c-0.5,1.2-2.9,2.4-3.7,2.9c-0.8,0.5-1.1,0.5-1.5,0.5c1.8-1.7,3.1-2.6,4.2-3.7c1-1.1,1.9-2.4,1.9-2.4
	l1-1l0,0.2C21.8,44.2,20.5,46.6,20,47.8z"></path><path class="st6" d="M17,44.2c-1.2,0.4-3.7,0.1-4.5,0.1c0,0,0.7-0.8,1-0.9c0.3-0.1,3.1-0.8,4.1-0.7c1,0.1,3.8-0.7,3.8-0.7l0.3,0.5
	c-0.7,0.2-1.9,0.4-2.4,0.7C18.6,43.4,18.2,43.8,17,44.2z"></path><path class="st7" d="M19.9,44.1c0,0-2.4,1.1-3.3,1.3s-4.2-1.1-4.2-1.1c0.8,0,3.4,0.3,4.5-0.1c1.2-0.4,1.6-0.8,2.3-1.1
	c0.5-0.2,1.7-0.5,2.4-0.7l0.4,0.6L19.9,44.1z"></path><path class="st7" d="M14.5,39.7c0,0,0.9,0.9,1.9,1.2c1,0.2,4,1.1,5.4,0.7c0,0-2.6,0.9-3.6,1.1c-1,0.2-3-1.2-3.5-1.5
	C14.2,40.8,14.4,39.8,14.5,39.7z"></path><path class="st6" d="M16.4,40.9c-1-0.2-1.9-1.2-1.9-1.2c0.1-0.1,0.9-0.2,2.2-0.2c1.3,0.1,4.7,1.5,4.7,1.5l0.4,0.6
	C20.4,41.9,17.4,41.1,16.4,40.9z"></path><path class="st7" d="M20.1,36.8c-0.3-0.9,0.1-2.2,0.1-2.2s1.8,3.7,2.9,5.4L22,40.6c0,0-0.4-1-0.6-1S20.5,37.8,20.1,36.8z"></path><path class="st6" d="M22.2,35.5c1,0.7,1.8,2.8,2,3.2l-0.3,0.8L23.1,40c-1-1.7-2.9-5.4-2.9-5.4S21.1,34.8,22.2,35.5z"></path><path class="st7" d="M25.9,38.2l-0.6,2.6l-0.5-1.9c0-1.1,0-2.2,0.3-3c0.3-0.8,0.9-1.3,0.9-1.3l0.8-0.5C26,34.6,25.9,38.2,25.9,38.2z
	"></path><path class="st6" d="M27,38.3c-0.5,0.8-1.7,2.5-1.7,2.5l0.6-2.6c0,0,0.1-3.6,0.9-4.1C26.8,34.1,27.5,37.6,27,38.3z"></path><path class="st7" d="M29.1,36.2c-0.3,0.7-0.5,1.6-2.2,3.6c0-0.5,0.6-2.2,0.9-3.1c0.3-0.9,1-2.2,0.9-2.7c0-0.5,1-2,1-2
	C29.4,33.2,29.4,35.5,29.1,36.2z"></path><path class="st6" d="M30.3,33.4c0,0.8,0.3,3.1-0.2,3.8c-0.5,0.7-1.6,1.8-1.8,2.1c-0.3,0.2-1.3,0.5-1.3,0.5c1.8-2,2-2.9,2.2-3.6
	c0.3-0.7,0.3-3,0.5-4.2C29.7,32,30.3,32.6,30.3,33.4z"></path><path class="st6" d="M35.5,33.9c0.2,0.5-0.7,1.1-1,1.5c-0.4,0.4-1.7,2.6-2.8,3.4c-1.1,0.8-2,1.3-2.4,1.5c-0.4,0.2-1.2,0.8-1.2,0.8
	l-0.4-0.3c2.9-2.3,3.3-3,4.1-4C32.8,35.6,33.8,35.2,35.5,33.9z"></path><path class="st7" d="M31.3,36.3c0.5-0.4,2-1.6,2.5-1.8c0.5-0.2,1.5-1,1.7-0.5c-1.7,1.3-2.7,1.7-3.6,2.8c-0.9,1.1-1.2,1.8-4.1,4
	l-0.4-0.4C29.4,37.9,30.8,36.7,31.3,36.3z"></path><path class="st6" d="M27.9,41.2c1.3-0.1,3.1-0.1,3.3-0.1c0.3,0.1,4-0.6,6.3-0.5c-0.1,0.1-1.8,0.5-2.6,0.8c-0.9,0.3-2.8,0.5-3.3,0.5
	c-0.5,0-3.1,0-3.9,0.2c0,0-1.6,0.5-1.6,0.2C26.2,42,26.9,41.5,27.9,41.2z"></path><path class="st7" d="M27.9,41.2c0.1,0,0.1-0.1,0.2-0.1c1.1-0.3,1.2-0.8,1.2-0.8s2.9-0.1,3.7-0.3c0.8-0.1,3.7-0.2,4.2-0.1
	c0.5,0.1,0.5,0.4,0.4,0.6c-2.4-0.1-6.1,0.6-6.3,0.5C31,41,29.1,41.1,27.9,41.2z"></path><path class="st6" d="M30.2,45.6c0.2,0.5,1.6,0.6,2.9,2.4c-0.5,0-2.7-0.9-4-1.7c-1.3-0.8-2.5-2.8-2.5-2.8l0.7-0.4
	C28.5,44,30.1,45.3,30.2,45.6z"></path><path class="st7" d="M27.3,43.1l0.7-0.4c0,0,1.2,0.8,1.7,1c0.5,0.2,3.2,2.3,3.5,2.7c0.3,0.4,0.6,1.5,0,1.5c-1.3-1.8-2.7-1.9-2.9-2.4
	C30.1,45.3,28.5,44,27.3,43.1z"></path><path class="st6" d="M25.4,43.2l0.4-0.5c0.4,1.3,1.3,3.5,1.6,4.1c0.4,0.8,0.6,1.2,2.7,3.4c-0.3,0.4-1.6-0.4-2-0.8
	c-0.4-0.4-1.1-1-1.4-1.4C26.3,47.7,25.3,44,25.4,43.2z"></path><path class="st7" d="M27.3,46.9c-0.3-0.6-1.2-2.8-1.6-4.1l0.4-0.5l0.5,1.3c0,0,2.9,4.3,3.4,4.9c0.4,0.6,0.3,1.4,0,1.8
	C27.9,48.1,27.8,47.7,27.3,46.9z"></path><path class="st7" d="M24.6,44.8c0.6,0.8,1.7,5.2,1.3,6.5c-0.4,1.2-0.9,2-1.3,2.3c0.1-3.8-0.4-6.7-1.1-9.3L24.6,44.8z"></path><path class="st6" d="M22.9,52c-0.2-0.7,0.3-5.4,0.3-6c0.1-0.6,0.3-1.8,0.3-1.8l0,0c0.6,2.6,1.1,5.5,1.1,9.3
	C24.3,53.8,23.1,52.7,22.9,52z"></path><path class="st7" d="M26.8,42.6l0.3-0.5c0,0,1.2-0.2,1.9-0.3c0.8-0.1,7.6,0.2,7.6,0.2s1.1,0.3,1,0.6c0,0-4.9,0-5.4-0.1
	C31.8,42.5,27.8,42.4,26.8,42.6z"></path><path class="st6" d="M35.2,43.2c-0.9,0.3-1.9,0.4-2.7,0.5c-0.8,0-3.2-0.5-3.5-0.6c-0.3-0.1-0.7-0.4-1-0.4l-1.1-0.1
	c0.9-0.2,4.9-0.1,5.4-0.1c0.5,0.1,5.4,0.1,5.4,0.1C37.5,42.9,36.1,42.9,35.2,43.2z"></path><path class="st8" d="M27.7,42l-1.6,0.2c0,0,0.2,0.7,0.1,0.7c-0.1,0-0.9,0.3-0.9,0.3l-0.2-0.4c0,0-0.3,0.4-1,0.6c0,0-0.2-0.4-0.6-0.5
	c-0.5-0.1,0,0-0.2,0.3c-0.2,0.3-0.4,0-0.6-0.1s-0.7-0.1-1.2-0.4c-0.3-0.2-0.6-0.1-1,0l0.1-0.6l-0.3-0.5c0,0,0-0.5,0.1-0.8
	c0.1-0.3,0.5-0.3,0.5-0.3s0.2-0.5,0.4-1c0,0,0.8-0.3,0.9-0.6c0.2-0.2,0.2-0.2,0.4-0.2c0.1,0,0.2,0,0.5,0c0.2,0.1,1-0.2,0.6-0.5
	c-0.4-0.3,0.7-0.4,1.5-0.5l0.7,0.3l0.6-0.1l0.5,0.2l0.7,0c0,0,0,0,0.1,0.1c0.1,0.1,0.9,0.2,0.9,0.3c0,0,0,0.1,0.1,0.3
	c-0.1,0.4-0.3,0.7-0.3,0.7S28.2,41.5,27.7,42z"></path><path class="st9" d="M29.2,39.7c0,0.1,0.1,0.6,0.1,0.6s0,0,0.1,0.5c0.1,0.5,0.3,0.4,0.5,0.8c0.1,0.3-0.7,0.3-0.7,0.3l0.1,0.4
	c0,0,0,0-0.1,0.2c-0.1,0.2-0.2,0.7-0.2,0.7s-1-0.4-1.3,0.5s0,0-0.3,0.5c-0.3,0.5-0.2,0.2-0.8,0.3l-1.9,0.4c0,0-0.7,0.6-1,0.6
	c-0.3,0-0.3,0.6-0.7,0.2c-0.4-0.4,0,0-0.2-0.1c-0.2-0.1-0.5-0.6-0.5-0.6s0,0-0.3-0.6c-0.3-0.6-0.9-0.4-0.9-0.4
	c-0.5,0.2-0.4-0.7-0.4-0.7l0.1-0.4c0.4-0.1,0.7-0.2,1,0c0.6,0.3,1.1,0.3,1.2,0.4s0.3,0.5,0.6,0.1c0.2-0.3-0.2-0.4,0.2-0.3
	c0.5,0.1,0.6,0.5,0.6,0.5c0.7-0.2,1-0.6,1-0.6l0.2,0.4c0,0,0.7-0.2,0.9-0.3c0.1,0-0.1-0.7-0.1-0.7l1.6-0.2c0.4-0.5,0.8-2.2,0.8-2.2
	s0.1-0.4,0.3-0.7C28.9,39.2,29,39.4,29.2,39.7C29.2,39.7,29.2,39.7,29.2,39.7z"></path><path class="st11" d="M32.3,62.1c1.3,0.9,2.7,1.8,3.2,2.1c0.5,0.3,1.3,0.8,1.7,1.1c0.3,0.2,0.7,0.5,1.1,0.7l0.1-0.4l-0.6-0.3
	c-0.6-0.3-1.4-0.7-1.7-1c-0.3-0.3-0.6-0.8-0.3-0.8c0.3,0,0.6,0.2,0.8,0.1c0.2-0.1,0.4-0.4,0.6-0.5c0.2-0.1,0.4-0.2,0.5-0.3
	c0.1-0.1,0.6-0.1,0.2-0.3c-0.4-0.3-0.7-0.4-0.5-0.7c0.2-0.3,0.5-0.3,0.5-0.6c-0.1-0.3-0.4-0.3-0.4-0.7c0-0.4,0.2-0.4-0.1-0.5
	c-0.2-0.1-0.2-0.2-0.5,0.1c-0.4,0.3-0.7,0.3-0.9,0.1c-0.3-0.1-0.6,0-0.5,0.3c0.1,0.3,0.4,0.3,0.2,0.6c-0.2,0.3-0.2,0.2-0.4,0.4
	c-0.2,0.2-0.3,0.1-0.2,0.4c0,0.3,0.6,0.4,0,0.5c-0.6,0.1-0.5,0.7-0.9,0.6c-0.5-0.1-0.8-0.5-0.4-0.7c0.4-0.2,0.7,0,0.9-0.3
	c0.2-0.3,0.8-0.4,0.4-0.7c-0.5-0.3-0.7-0.4-0.7-0.5c0.1-0.2,0.3-0.1,0.4-0.4c0.2-0.3,0.1-0.5,0.1-0.7s0.6-0.1,0.3-0.6
	c-0.3-0.5-0.4-0.5-0.4-0.8c0.1-0.4,0.1-0.6-0.2-0.8C34,57,33.8,57,33.7,56.9c-0.1-0.1-0.2,0-0.4,0.1c-0.2,0.1-0.6,0.1-0.7,0.4
	c-0.1,0.3,0,0.5-0.3,0.7c-0.2,0.1-0.4,0.1-0.5,0.2c0.1,0.2,0.3,0.3,0.3,0.5c0,0.1-0.1,0.1-0.1,0.2c0.2,0.3,0.3,0.4,0.4,0.5
	c0.1,0.2,0.1,0.5-0.3,0.4c-0.5-0.1-0.6,0.3-0.7,0.1c-0.1-0.1-0.2-0.6-0.1-0.8c0.1-0.1,0.5-0.1,0.7-0.3c-0.1-0.1-0.1-0.2-0.2-0.3
	c-0.1-0.2-0.1-0.3,0-0.4c-0.1-0.1-0.1-0.2,0-0.4c0.2-0.6,0.5-0.8,0.7-1.1c0.2-0.3,0.1-0.8,0.1-0.9c0-0.1-0.2,0.2-0.9,0
	c-0.7-0.2-0.9,0-0.8-0.4c0.1-0.5,0.1-0.6,0-0.8c-0.2-0.2-0.2-0.2-0.4-0.4c-0.2-0.2-0.5-0.3-0.6-0.3c-0.1,0-0.4,0.4-0.6,0.4
	c-0.2,0.1-0.4,0.2-0.3,0.6c0.1,0.4,0.2,0.8,0.1,0.9c-0.1,0.1,0,0.6-0.3,0.5c-0.3,0-0.4-0.4-0.4-0.7c0-0.2,0.1,0-0.1-0.8
	s0.2-0.9-0.5-1.1c-0.7-0.2-0.9-0.1-1.3-0.2c-0.5,0-0.7-0.2-0.7-0.3c-0.1-0.1-0.1-0.3-0.5-0.2c-0.4,0.1-0.5,0.2-0.8,0.1
	c-0.3-0.1-0.4-0.3-0.5-0.3c-0.1,0-0.1,0.1-0.2,0.1c1.3,1.4,3.3,2.8,4.9,4.7C30.1,59.6,31,61.1,32.3,62.1z"></path><path class="st12" d="M23.4,53.3c0,0.4-0.3,0.6-0.1,1.1c0.1,0.5-0.5,1,0.2,1.4c0.7,0.4,0.7,0.7,0.6,1c-0.1,0.2-0.1,0.3-0.1,0.3
	c0,0.1,0.1,0.1,0.3,0.1c0.3,0.1,0.4-0.1,0.7-0.2c0.3-0.1,0.8,0,0.9,0.1c0.1,0.1,0.3,0.6,0,0.6c-0.3-0.1-0.7,0-1.2-0.1
	c-0.4-0.1-1.3,0.3-1.1,0.4c0.2,0.1,0.5,0,0.4,0.2c-0.2,0.2-0.2,0.2-0.4,0.5c-0.1,0.3-0.1,0.4,0.2,0.6c0.4,0.2,0.2-0.2,0.3,0.3
	c0.1,0.6,0.2,0.4,0.2,0.7c0,0.2,0,0.5,0.3,0.7c0.3,0.2,0.7,0,0.9-0.2c0.2-0.2,0.7-0.8,1-1c0.3-0.1,0.6-0.2,0.9-0.1
	c0.3,0.1,0.4,0.2,0.6,0.3c0.2,0.1,0.6,0.1,0.4,0.2c-0.2,0.1-0.6,0.3-1.2,0.2s-1,0-1.2,0.3c-0.3,0.2-0.5,0.5-0.6,0.6s0,0.4,0.1,0.4
	c0.1,0,0.9,0,1.2,0.1c0.3,0.1,0.6-0.1,0.8-0.4c0.1-0.3,0.5-0.1,0.3,0.2c-0.1,0.1-0.2,0.3-0.2,0.4c0,0,0,0,0,0.1c0.2,0,0.5,0,0.7,0
	c0,0,0.1-0.1,0.1-0.1c0.1-0.1,0.2-0.3,0.3-0.3c0.2,0,0.6,0.1,0.7-0.1c0.1-0.2,0-0.7,0.3-0.6c0.3,0.1,0.5,0.2,0.6,0.3
	c0.1,0.1,0.5,0.3,0.1,0.5c-0.4,0.2-0.7,0.4-1,0.3c-0.1,0-0.6-0.1-1.1-0.1c-0.1,0.1-0.2,0.2-0.4,0.2c-0.3,0.1-0.3,0-0.3-0.2
	c-0.4,0.1-0.7,0.2-0.6,0.4c0.2,0.5,0.4,0.5,0.2,0.7c-0.2,0.2-0.7,0.1-0.6,0.5c0,0.3,0.3,0.7,0.6,0.8c0.2,0.2,0.5,0.1,0.7,0.3
	c0.1,0.1,0.9,0.8,0.9,0.8s0.2-0.4,0.3-0.8s0.4-0.8,0.7-0.7c0.3,0,0.6,0.6,0.3,0.8c-0.3,0.1-0.8,0-0.8,0.2c0,0.2-0.1,0.4,0.5,0.3
	s0.9-0.1,1.1-0.4s0.1-0.6,0.2-0.8c0.1-0.2,0.6-0.4,0.7,0c0.1,0.4,0.3,0.8,0.3,0.8s0.2-0.2,0.5-0.4c0.2-0.2,0.5,0.1,0.4-0.3
	c0-0.4-0.3-1.2,0.1-1.1c0.4,0.1,1.2,0.5,1.3,0.6c0.1,0.1,0.1,0.2-0.1,0.5c-0.2,0.3,0.2,0.6-0.3,1c-0.5,0.4-0.7,0.2-0.9,0.5
	c-0.2,0.2-0.4,0.5-0.4,1.2c0,0.6-0.3,0.8-0.1,1.1c0.2,0.3,1.1,0.7,1.2,0.7c0.1,0,0.4-0.1,0.6-0.5c0.2-0.3,0.3-0.7,0.5-0.6
	c0.2,0.2,0.2,0.4,0.6,0.2c0.3-0.2,0.8-1.1,0.3-1.2s-0.9-0.1-0.7-0.3s0.5,0,0.5-0.3c0-0.3-0.3-0.7-0.3-0.9c0-0.2,0.2-0.5,0.2-0.5
	c0.1,0,0.2-0.2,0.6,0.1s0.8,0.5,1,0.6c0.3,0.2,0.8,0.5,0.8,0.5l0.4,0.2l0.1-0.2c-0.3-0.2-0.8-0.5-1.1-0.7c-0.4-0.3-1.2-0.8-1.7-1.1
	c-0.5-0.3-1.9-1.2-3.2-2.1c-1.3-0.9-2.1-2.5-3.8-4.4c-1.6-1.9-3.6-3.3-4.9-4.7C23.5,53,23.4,53.1,23.4,53.3z"></path></g></svg>