<?xml version="1.0" encoding="utf-8"?>
<!-- Generator: Adobe Illustrator 23.1.1, SVG Export Plug-In . SVG Version: 6.00 Build 0)  -->
<svg version="1.1" id="Layer_1" xmlns="http://www.w3.org/2000/svg" xmlns:xlink="http://www.w3.org/1999/xlink" x="0px" y="0px"
	 viewBox="0 0 108 108" style="enable-background:new 0 0 108 108;" xml:space="preserve">
<style type="text/css">
	.st0{fill:#5C9072;}
	.st1{fill:none;stroke:#568541;stroke-linecap:round;stroke-miterlimit:10;}
	.st2{fill:#9FBF81;}
	.st3{fill:none;stroke:#6E954B;stroke-linecap:round;stroke-miterlimit:10;}
	.st4{fill:#8BAE7D;}
	.st5{fill:#A0B579;}
	.st6{fill:#568541;}
	.st7{fill:none;stroke:#A5C68F;stroke-linecap:round;stroke-miterlimit:10;}
	.st8{fill:#69842C;}
	.st9{fill:#A5C68F;}
	.st10{fill:#8BAB86;}
	.st11{fill:#6D9168;}
	.st12{fill:#729C6F;}
	.st13{fill:none;stroke:#759D7B;stroke-linecap:round;stroke-miterlimit:10;}
	.st14{fill:#A6B789;}
	.st15{fill:none;stroke:#9FBF81;stroke-linecap:round;stroke-miterlimit:10;}
	.st16{fill:none;stroke:#A0B579;stroke-linecap:round;stroke-miterlimit:10;}
	.st17{fill:none;stroke:#69842C;stroke-linecap:round;stroke-miterlimit:10;}
</style>
<g>
	<g>
		<path class="st0" d="M53,68.7c1.1-1.7,2.3-3.3,3.8-4.7c0.4-0.3,0.8-0.7,1.2-1l1.2-0.8c0.4-0.3,0.8-0.6,1-0.8
			c0.1-0.1,0.2-0.3,0.3-0.5c0.1-0.2,0.3-0.5,0.5-0.7c2.4-3.2,4.8-6.3,7.2-9.4c0.2-0.2,0.5-0.3,0.7-0.1c0.2,0.2,0.3,0.5,0.1,0.7
			L65.5,56c-1.2,1.6-2.4,3.2-3.5,4.8c-0.1,0.2-0.3,0.4-0.4,0.6c-0.1,0.2-0.2,0.5-0.4,0.7c-0.4,0.5-0.8,0.8-1.2,1.1L58.7,64
			c-0.4,0.3-0.7,0.6-1.1,0.9c-1.4,1.3-2.6,2.8-3.9,4.3l0,0c-0.2,0.2-0.5,0.2-0.7,0.1C52.9,69.1,52.8,68.9,53,68.7z"/>
	</g>
	<path class="st1" d="M62.9,48c0,0-1.2,10.7-0.9,11.7"/>
	<path class="st1" d="M67.1,46.3c-0.1,0.3-4.6,10.8-4.6,10.8"/>
	<g>
		<path class="st2" d="M63.9,55c0.5-0.6,0.7-1.5,0.7-2.4c0.1-0.9,0-1.9-0.2-2.8c-0.2-0.9-0.4-1.9-0.7-2.8c-0.1-0.5-0.3-0.9-0.5-1.4
			L63,44.9l-0.1-0.3l-0.1-0.1l0,0c0,0,0,0,0,0c0,0,0,0,0.1,0.1c0,0,0,0,0.1,0c0.1,0,0.3,0,0.4-0.1c-0.2,0.2-0.5,0.1-0.7-0.1
			c-0.2-0.2-0.1-0.5,0.1-0.7c0.1-0.1,0.3-0.1,0.4-0.1c0.1,0,0.1,0,0.1,0.1c0.1,0.1,0.1,0.1,0.1,0.1c0,0,0.1,0.1,0.1,0.1l0.1,0.1
			l0.1,0.2c0.1,0.1,0.1,0.2,0.2,0.4c0.1,0.2,0.2,0.5,0.3,0.7c0.2,0.5,0.4,0.9,0.6,1.4c0.3,1,0.7,1.9,0.8,3c0.2,1,0.3,2.1,0.3,3.2
			c-0.1,1.1-0.4,2.3-1.4,3c-0.2,0.2-0.5,0.1-0.7-0.1C63.7,55.5,63.7,55.2,63.9,55L63.9,55z"/>
	</g>
	<path class="st3" d="M64.1,55.8c0.8-0.4,3.8-2.5,3.8-2.5"/>
	<path class="st3" d="M65.3,56.7c2-0.4,9-3.6,9.8-4.2"/>
	<g>
		<path class="st4" d="M66,56.7c2.4-0.7,4.9-1.3,7.3-1.9c0.6-0.2,1.2-0.3,1.8-0.5c0.1,0,0.3-0.1,0.4-0.1l0.4-0.2l0.9-0.4
			c1.2-0.5,2.3-1,3.5-1.6c0.3-0.1,0.5,0,0.7,0.3c0.1,0.2,0,0.5-0.2,0.6l0,0c-1.1,0.6-2.2,1.2-3.3,1.8l-0.8,0.4
			c-0.1,0.1-0.3,0.2-0.5,0.2c-0.2,0.1-0.3,0.1-0.5,0.2c-0.6,0.2-1.2,0.4-1.9,0.6c-1.2,0.3-2.5,0.6-3.7,0.9c-1.2,0.2-2.5,0.5-3.8,0.6
			c-0.3,0-0.5-0.2-0.6-0.4C65.6,57,65.7,56.7,66,56.7z"/>
	</g>
	<g>
		<path class="st5" d="M64.7,55.2c0.1-0.1,0.3-0.3,0.3-0.3l0.2-0.2l0.5-0.2c0.3-0.1,0.6-0.3,0.9-0.4c0.6-0.2,1.3-0.4,1.9-0.6
			c1.3-0.4,2.6-0.7,3.9-0.8c0.7-0.1,1.4-0.1,2.1,0c0.7,0.1,1.4,0.3,2,0.6c1.3,0.5,2.4,1.1,3.6,1.8c0.2,0.1,0.3,0.5,0.2,0.7
			c-0.1,0.2-0.4,0.3-0.6,0.2l0,0c-1.2-0.5-2.4-1-3.5-1.3c-0.6-0.2-1.2-0.3-1.8-0.4c-0.5-0.1-1.1,0-1.7,0.1c-1.2,0.2-2.5,0.4-3.7,0.7
			c-0.6,0.1-1.2,0.3-1.9,0.5c-0.3,0.1-0.6,0.2-0.9,0.3l-0.4,0.1l-0.2,0.1c-0.1,0,0,0-0.1,0l-0.7-0.2c-0.1,0-0.2-0.2-0.2-0.3
			C64.7,55.3,64.7,55.3,64.7,55.2z"/>
	</g>
	<g>
		<path class="st4" d="M70.9,43.7c-0.1,0.3-0.2,0.5-0.2,0.7L70.4,45l-0.5,1.1l-1.1,2.2l-2.2,4.5l0,0l-0.9,1.8l0-2
			c0-0.9,0.1-1.6,0.3-2.4c0.1-0.8,0.3-1.5,0.5-2.3c0.3-1.5,0.7-3.1,1.1-4.6c0.1-0.3,0.3-0.4,0.6-0.4c0.3,0.1,0.4,0.3,0.4,0.6l0,0
			c-0.4,1.5-0.7,3-1.1,4.5c-0.2,0.8-0.3,1.5-0.4,2.3c-0.1,0.7-0.3,1.5-0.3,2.2l-0.9-0.2l0,0l2.2-4.4l1.1-2.2l0.5-1.1l0.2-0.6
			c0.1-0.2,0.2-0.4,0.2-0.5l0-0.1c0.1-0.3,0.4-0.4,0.6-0.3C70.8,43.2,70.9,43.5,70.9,43.7z"/>
	</g>
	<g>
		<path class="st6" d="M77.7,47.8c-0.9,0.2-1.9,0.3-2.8,0.6c-0.5,0.1-0.9,0.3-1.3,0.4c-0.4,0.2-0.9,0.4-1,0.6l0,0l0,0.1l-0.1,0.1
			c-0.8,0.5-1.6,1-2.4,1.4c-0.8,0.4-1.6,0.8-2.5,1.2c-0.3,0.1-0.5,0-0.7-0.2c-0.1-0.2,0-0.5,0.2-0.6c0.8-0.5,1.6-1,2.4-1.4
			c0.8-0.5,1.6-0.9,2.5-1.2l-0.2,0.1l0,0c0.5-0.6,1-0.7,1.4-0.9c0.5-0.2,1-0.3,1.4-0.5c1-0.3,1.9-0.5,2.9-0.6c0.3,0,0.5,0.1,0.6,0.4
			C78.2,47.5,78,47.7,77.7,47.8L77.7,47.8L77.7,47.8z"/>
	</g>
	<path class="st7" d="M69.7,51.4c-0.1,0.6-3.8,2.3-3.8,2.3"/>
	<line class="st7" x1="71.7" y1="52.5" x2="66.2" y2="54.2"/>
	<line class="st7" x1="69.7" y1="48.3" x2="66.1" y2="52.9"/>
	<g>
		<path class="st8" d="M54.8,83.2c0.3-0.3,0.4-0.3,0.6-0.4l0.5-0.3c0.3-0.2,0.7-0.3,1-0.5c0.7-0.3,1.4-0.6,2.1-0.8
			c1.4-0.5,2.8-0.9,4.3-1.2c0.3,0,0.5,0.1,0.6,0.4c0,0.2-0.1,0.4-0.3,0.5c-1.3,0.7-2.7,1.3-4.1,1.8c-0.7,0.3-1.4,0.5-2.1,0.7
			c-0.4,0.1-0.7,0.2-1.1,0.3l-0.5,0.1c-0.2,0-0.4,0.1-0.4,0.1c-0.2,0.2-0.5,0.2-0.7,0C54.6,83.7,54.6,83.3,54.8,83.2z"/>
	</g>
	<g>
		<path class="st4" d="M48,41.6c0.1-0.5,0.1-0.5,0.2-0.6l0.1-0.4l0.3-0.7c0.2-0.5,0.4-0.9,0.6-1.4c0.4-0.9,0.7-1.8,0.9-2.7
			c0.2-0.9,0.4-1.9,0.5-2.8c0-0.9-0.1-1.8-0.4-2.7l0,0c-0.1-0.3,0-0.5,0.3-0.6c0.2-0.1,0.5,0,0.6,0.2c0.6,0.9,0.9,2.1,0.9,3.1
			c0.1,1.1-0.1,2.2-0.4,3.2c-0.3,1-0.6,2-1.1,2.9c-0.2,0.5-0.5,0.9-0.7,1.4c-0.1,0.2-0.3,0.4-0.4,0.7l-0.2,0.3
			c-0.1,0.1-0.1,0.3-0.1,0c0,0.3-0.2,0.5-0.4,0.5C48.3,42.1,48.1,41.9,48,41.6z"/>
	</g>
	<g>
		<path class="st8" d="M48.2,70.8c0.1-0.1,0.3-0.6,0.6-1c0.3-0.4,0.7-0.8,1.2-1.1c0.5-0.2,1-0.3,1.5-0.3l0.7,0c0.2,0,0.4,0,0.6,0
			c1.7-0.1,3.4-0.4,5-0.8c0.8-0.2,1.7-0.4,2.4-0.6l0.2-0.1c0,0,0,0,0,0l0,0l0.1-0.1c0.1-0.1,0.3-0.2,0.4-0.2
			c0.1-0.1,0.2-0.1,0.3-0.2c0.4-0.2,0.8-0.4,1.2-0.5c1.6-0.7,3.2-1.3,4.9-1.9c0.3-0.1,0.5,0.1,0.6,0.3c0.1,0.2,0,0.5-0.3,0.6
			l-4.7,2.2L62,67.8c-0.1,0-0.2,0.1-0.3,0.1c-0.1,0-0.2,0.1-0.2,0.1l-0.2,0.1c-0.1,0-0.2,0.1-0.2,0.1l-0.4,0.2
			c-0.9,0.3-1.8,0.5-2.6,0.7c-1.7,0.3-3.5,0.6-5.3,0.7c-0.2,0-0.5,0-0.7,0l-0.6,0c-0.4,0-0.7,0-1,0.1c-0.3,0.1-0.6,0.3-0.8,0.6
			c-0.3,0.3-0.4,0.7-1,1.1c-0.2,0.2-0.5,0.1-0.7-0.1C47.9,71.3,48,71,48.2,70.8L48.2,70.8z"/>
	</g>
	<g>
		<path class="st9" d="M38.8,15c1.7,1.7,3.5,3.3,5.2,4.9c0.9,0.8,1.8,1.6,2.7,2.3c0.5,0.4,0.9,0.8,1.3,1.2c0.4,0.5,1,0.7,0.6,1.9
			c-0.1,0.4-0.4,0.6-0.7,0.7c-1.2,0.3-1.4-0.3-1.8-0.7c-0.4-0.4-0.8-0.9-1.1-1.4c-0.7-1-1.4-1.9-2.2-2.8c-1.6-1.8-3.1-3.6-4.7-5.4
			c-0.2-0.2-0.2-0.5,0-0.7C38.3,14.9,38.6,14.9,38.8,15z"/>
	</g>
	<g>
		<path class="st10" d="M48.2,10.7c-0.2,1.5-0.2,3.1-0.2,4.7c0,1.6,0.1,3.2,0.2,4.7l0.2,2.4l0.1,1.2c0,0.2,0.1,0.4,0.1,0.5
			c0,0,0,0,0-0.1c0,0,0-0.1-0.1-0.1C48.5,24,48.4,24,48.3,24c-0.1,0-0.2,0-0.3,0.1c-0.1,0.1-0.1,0.1-0.1,0.1c0,0,0,0,0,0
			c0,0,0,0.1,0,0.1l0,0c0-0.1,0-0.1,0-0.2c-0.4-1.5-1-3-1.6-4.4l0,0c-0.1-0.3,0-0.5,0.3-0.7c0.3-0.1,0.5,0,0.7,0.3c0,0,0,0,0,0
			c0.6,1.5,1.1,3,1.6,4.6c0,0.1,0.1,0.2,0.1,0.4l0,0.1c0,0.1,0,0.2,0,0.2c0,0,0,0.1,0,0.1c0,0,0,0-0.1,0.1c-0.1,0.1-0.2,0.1-0.3,0.1
			c-0.1,0-0.2,0-0.2-0.1c-0.1-0.1-0.1-0.1-0.1-0.1c-0.1-0.1-0.1-0.2-0.1-0.2c-0.1-0.3-0.1-0.4-0.1-0.7l-0.1-1.2l-0.2-2.4
			c-0.1-1.6-0.2-3.2-0.2-4.8c0-1.6-0.1-3.2,0-4.8c0-0.3,0.3-0.5,0.5-0.5C48.1,10.1,48.3,10.4,48.2,10.7
			C48.3,10.7,48.3,10.7,48.2,10.7L48.2,10.7z"/>
	</g>
	<g>
		<path class="st6" d="M51.7,6.3c-0.1,1.5-0.2,3-0.4,4.6c-0.2,1.5-0.4,3-0.6,4.5c-0.4,3-0.8,6-1.3,9.1c0,0.3-0.3,0.5-0.6,0.4
			c-0.3,0-0.4-0.3-0.4-0.5c0.3-3,0.6-6.1,0.9-9.1c0.2-1.5,0.3-3,0.5-4.5c0.2-1.5,0.4-3,0.7-4.5c0.1-0.3,0.3-0.5,0.6-0.4
			C51.5,5.8,51.7,6.1,51.7,6.3z"/>
	</g>
	<g>
		<path class="st6" d="M53.8,10.9c-0.7,1.4-1.3,2.9-2,4.4c-0.6,1.5-1.3,2.9-1.8,4.4c-0.1,0.3-0.4,0.4-0.6,0.3
			c-0.3-0.1-0.4-0.4-0.3-0.6c0,0,0,0,0,0c0.7-1.4,1.3-2.9,2-4.4c0.6-1.5,1.3-2.9,1.8-4.4c0.1-0.3,0.4-0.4,0.6-0.3
			C53.8,10.3,53.9,10.6,53.8,10.9C53.8,10.8,53.8,10.8,53.8,10.9z"/>
	</g>
	<g>
		<path class="st11" d="M49.1,92.5c-0.2-0.7-0.4-1.5-0.5-2.3c-0.1-0.7-0.2-1.5-0.4-2.1l0-0.1l0-0.2l-0.1-0.4c0-0.3,0-0.4-0.1-0.6
			L48,85.6l-0.1-2.3l-0.2-4.6l-0.1-2.3c0-0.4,0-0.8,0-1.2l0.1-0.6c0-0.2,0-0.4,0-0.6l-0.1-18.5l0-4.6c0-0.8,0-1.5,0-2.3l0.1-2.3
			L48,37l0.4-9.2l0.3-9.2c0-0.3,0.2-0.5,0.5-0.5c0.3,0,0.5,0.2,0.5,0.5l-0.2,9.2l-0.2,9.2l-0.2,9.2l0,2.3c0,0.7,0,1.5,0,2.3l0.1,4.6
			L49.6,74c0,0.2,0,0.4,0,0.6l0.1,0.6c0,0.4,0,0.8,0,1.2l0,2.3l0,4.6l0,2.3l0,1.1c0,0.2,0,0.4,0,0.5l0,0.2c0,0,0,0.1,0,0.1l0,0.2
			c0.2,0.9,0.2,1.6,0.3,2.4c0.1,0.8,0.1,1.6,0,2.3c0,0.3-0.3,0.5-0.6,0.4C49.3,92.8,49.1,92.7,49.1,92.5L49.1,92.5z"/>
	</g>
	<g>
		<path class="st6" d="M47.5,35.2c-0.1-0.3-0.4-0.7-0.5-1l-0.6-1.1L45.2,31c-0.8-1.5-1.6-2.9-2.3-4.4c-0.1-0.2,0-0.5,0.2-0.7
			c0.2-0.1,0.5,0,0.6,0.2c0.9,1.4,1.7,2.9,2.5,4.3c0.4,0.7,0.8,1.5,1.2,2.2c0.4,0.8,0.7,1.4,1,2.4c0.1,0.3-0.1,0.5-0.3,0.6
			C47.9,35.7,47.7,35.5,47.5,35.2L47.5,35.2z"/>
	</g>
	<g>
		<path class="st9" d="M47.2,41.5l-0.8-2.2c-0.3-0.8-0.6-1.6-0.8-2.4c-0.5-1.6-1.1-3.2-1.5-4.9c-0.1-0.3,0.1-0.5,0.3-0.6
			c0.2-0.1,0.5,0.1,0.6,0.3c0.7,1.5,1.4,3.1,2,4.7c0.3,0.8,0.6,1.6,0.8,2.4c0.1,0.4,0.2,0.8,0.3,1.3c0,0.2,0.1,0.4,0.1,0.7l0,0.4
			c0,0.1,0,0.3,0,0.5c0,0.3-0.2,0.5-0.5,0.4c-0.2,0-0.3-0.1-0.4-0.3L47.2,41.5z"/>
	</g>
	<g>
		<path class="st10" d="M40.4,27.7c0.5,1.3,1.3,2.6,2,3.9l2.2,3.9c1.5,2.6,2.9,5.3,4.1,8.1L48,43.5c0.2-0.1,0.5-0.6,0.7-0.9
			c0.2-0.3,0.5-0.7,0.7-1c0.5-0.7,0.9-1.4,1.3-2.2c0.4-0.7,0.8-1.5,1.2-2.2c0.4-0.7,0.8-1.5,1-2.2l0,0c0.1-0.3,0.4-0.4,0.6-0.3
			c0.3,0.1,0.4,0.4,0.3,0.6l0,0c-0.3,0.9-0.7,1.7-1,2.5c-0.4,0.8-0.8,1.5-1.2,2.3c-0.4,0.7-0.9,1.5-1.3,2.2
			c-0.2,0.4-0.5,0.7-0.7,1.1c-0.3,0.4-0.4,0.7-0.9,1.1l-0.3,0.3l-0.4-0.5c-2-2.4-3.5-5-4.9-7.7c-0.7-1.3-1.4-2.7-2-4.1
			c-0.6-1.4-1.2-2.8-1.5-4.5c0-0.3,0.1-0.5,0.4-0.6C40.1,27.3,40.3,27.4,40.4,27.7L40.4,27.7z"/>
	</g>
	<g>
		<path class="st6" d="M48,40.6c0-0.1,0-0.2,0.1-0.4l0.1-0.3c0.1-0.2,0.1-0.3,0.2-0.5l0.4-0.9c0.2-0.6,0.5-1.2,0.8-1.8
			c0.5-1.2,1.1-2.4,1.6-3.6c1.1-2.4,2.3-4.8,3.6-7c0.1-0.2,0.4-0.3,0.7-0.2c0.2,0.1,0.3,0.4,0.2,0.6c-1,2.4-2.2,4.8-3.3,7.1
			l-1.7,3.5L49.7,39l-0.4,0.9c-0.1,0.1-0.1,0.3-0.2,0.4l-0.1,0.2c0,0,0,0.1,0,0.1l-0.1,0.3c-0.1,0.2-0.4,0.3-0.6,0.2
			C48.1,41,48,40.8,48,40.6z"/>
	</g>
	<g>
		<path class="st4" d="M48,44.9c1.8-2.9,3.7-5.9,5.5-8.8c0.9-1.5,1.7-3,2.6-4.5c0.8-1.5,1.6-3.1,2-4.6l0,0c0.1-0.3,0.4-0.4,0.6-0.3
			c0.2,0.1,0.4,0.3,0.4,0.6c-0.3,1.8-1,3.5-1.8,5.1c-0.8,1.6-1.6,3.1-2.5,4.6c-0.9,1.5-1.8,3-2.8,4.4c-1,1.4-2,2.9-3.1,4.2
			c-0.2,0.2-0.5,0.2-0.7,0.1C47.9,45.4,47.9,45.1,48,44.9L48,44.9z"/>
	</g>
	<path class="st7" d="M51.5,40.7c0,0,7.2-7.9,8.2-10.6"/>
	<g>
		<path class="st12" d="M49.1,43.5c1.2-1.2,2.7-1.9,4.2-2.5c1.5-0.6,3.1-1.1,4.7-1.6c1.6-0.5,3.2-0.9,4.8-1.2
			c1.6-0.3,3.3-0.5,4.9-0.5c0.3,0,0.5,0.2,0.5,0.5c0,0.3-0.2,0.5-0.5,0.5l0,0l0,0c-1.6,0-3.2,0.2-4.7,0.6c-1.6,0.3-3.1,0.8-4.6,1.3
			c-1.5,0.5-3,1.2-4.4,2c-1.4,0.7-2.8,1.5-4.4,1.9l0,0c-0.3,0.1-0.6-0.1-0.6-0.4C48.9,43.8,48.9,43.6,49.1,43.5z"/>
	</g>
	<g>
		<path class="st4" d="M48.6,59c-1.3-1.3-1.9-2.7-2.5-4.2c-0.5-1.5-0.9-3.1-1.1-4.7c-0.2-1.6-0.3-3.2-0.2-4.8c0-0.8,0.1-1.6,0.1-2.4
			l0.3-2.3c0-0.3,0.3-0.5,0.6-0.4c0.3,0,0.5,0.3,0.4,0.5l0,0l-0.1,2.3l0,2.3c0.1,1.5,0.1,3.1,0.3,4.6c0.2,1.5,0.5,3,1,4.4
			c0.2,0.7,0.5,1.4,0.8,2.1c0.3,0.7,0.7,1.3,1.1,1.8l0,0.1c0.2,0.2,0.2,0.5,0,0.7C49.1,59.2,48.8,59.2,48.6,59z"/>
	</g>
	<g>
		<path class="st9" d="M47.9,60.1c-1.2-1.5-2.1-3.1-3-4.8c-0.9-1.6-1.7-3.3-2.3-5.1c-0.7-1.7-1.2-3.6-1.6-5.4
			c-0.4-1.8-0.6-3.7-0.5-5.6c0-0.3,0.2-0.5,0.5-0.5c0.2,0,0.4,0.2,0.5,0.4l0,0c0.3,1.8,0.7,3.5,1.2,5.3c0.5,1.7,1,3.4,1.7,5.1
			c0.6,1.7,1.3,3.4,2.1,5c0.8,1.6,1.6,3.3,2.4,4.9l0,0.1c0.1,0.2,0,0.5-0.2,0.7C48.3,60.3,48.1,60.2,47.9,60.1z"/>
	</g>
	<g>
		<path class="st6" d="M48,58.9c-1.1-1.2-2-2.5-3-3.8c-1-1.3-1.9-2.6-2.8-4c-0.9-1.4-1.8-2.7-2.6-4.1c-0.8-1.4-1.6-2.8-2.2-4.4
			c-0.1-0.3,0-0.5,0.3-0.6c0.2-0.1,0.5,0,0.6,0.2l0,0c0.8,1.3,1.7,2.7,2.6,4c0.9,1.3,1.8,2.7,2.7,4c0.9,1.3,1.8,2.7,2.7,4
			c0.9,1.4,1.7,2.7,2.5,4.1c0.1,0.2,0.1,0.5-0.2,0.7C48.4,59.2,48.1,59.1,48,58.9z"/>
	</g>
	<path class="st13" d="M47.2,56.5c-0.2-1,2.9-9.1,4-10.3"/>
	<g>
		<path class="st10" d="M47.8,60.5c0-0.1,0-0.2,0.1-0.3l0.1-0.1C48,60,48,60,48.1,59.9c0.1-0.1,0.2-0.2,0.3-0.3
			c0.2-0.2,0.4-0.4,0.6-0.6c0.4-0.4,0.8-0.7,1.1-1c0.8-0.7,1.6-1.3,2.4-1.9c1.6-1.2,3.3-2.4,5.2-3.4c1.9-0.9,3.8-1.5,5.6-2.3
			c0.4-0.2,0.9-0.4,1.3-0.7c0.2-0.1,0.4-0.3,0.5-0.4l0.1-0.1l0.1-0.2c0.1-0.1,0.2-0.2,0.3-0.3c0.8-0.8,1.7-1.3,2.7-1.8
			c0.2-0.1,0.5,0,0.7,0.2c0.1,0.2,0,0.5-0.2,0.7l0,0c-0.8,0.5-1.7,1-2.3,1.7c-0.1,0.1-0.1,0.2-0.2,0.2L66,49.8L65.8,50
			c-0.2,0.3-0.5,0.4-0.7,0.6c-0.5,0.3-0.9,0.6-1.4,0.8c-1.8,0.9-3.8,1.6-5.6,2.4c-1.7,0.9-3.4,2.1-5,3.2c-0.8,0.6-1.6,1.2-2.4,1.8
			c-0.4,0.3-0.8,0.6-1.1,0.9c-0.2,0.2-0.4,0.3-0.5,0.5c-0.1,0.1-0.2,0.2-0.2,0.2l-0.1,0.1l0,0c0,0,0-0.1,0-0.1
			c0,0.3-0.2,0.5-0.5,0.5S47.8,60.8,47.8,60.5z"/>
	</g>
	<path class="st7" d="M50.6,57.6c0-1,3.8-9.9,3.4-13.3"/>
	<g>
		<path class="st6" d="M52.4,56.4c0.4-2.9,0.9-5.8,1.4-8.7l0.8-4.3c0.3-1.4,0.6-2.9,0.8-4.3l0,0c0-0.3,0.3-0.5,0.6-0.4
			c0.3,0,0.4,0.3,0.4,0.5c-0.1,1.5-0.3,2.9-0.5,4.4c-0.2,1.5-0.5,2.9-0.7,4.3c-0.5,2.9-1.1,5.8-1.8,8.6c-0.1,0.3-0.3,0.4-0.6,0.4
			C52.5,56.8,52.4,56.6,52.4,56.4z"/>
	</g>
	<g>
		<path class="st14" d="M48.5,27.8c0.1-1,0.5-1.5,0.8-2.2c0.3-0.6,0.7-1.3,1.1-1.9c0.8-1.2,1.7-2.3,2.6-3.4c0.9-1.1,1.9-2.1,3-3.1
			c1.1-0.9,2.3-1.9,3.7-2.3c0.3-0.1,0.5,0.1,0.6,0.3c0.1,0.2,0,0.5-0.2,0.6l0,0c-1.1,0.6-2.2,1.5-3.2,2.4c-1,0.9-2,1.9-2.9,3
			c-0.9,1-1.8,2.1-2.6,3.2c-0.4,0.6-0.8,1.1-1.1,1.7c-0.3,0.6-0.7,1.2-0.8,1.7l0,0.1c0,0.3-0.3,0.5-0.5,0.4
			C48.7,28.3,48.5,28.1,48.5,27.8z"/>
	</g>
	<path class="st15" d="M50.6,23.5c0.1-0.1,1.2-5.4,1.2-5.4"/>
	<g>
		<path class="st5" d="M51.4,68.8c0.1-0.1,0.2-0.2,0.3-0.3l0.3-0.2l0.6-0.4c0.4-0.3,0.8-0.5,1.1-0.7l2.3-1.4c1.5-0.9,3-1.9,4.5-2.9
			c1.5-1,2.9-2,4.4-3.1c1.4-1.1,2.8-2.2,3.9-3.6l0,0c0.2-0.2,0.5-0.2,0.7-0.1c0.2,0.2,0.2,0.5,0.1,0.7c-1.1,1.5-2.4,2.8-3.8,4
			c-1.4,1.2-2.9,2.2-4.4,3.3c-1.5,1-3.1,2-4.6,2.9l-2.4,1.3l-1.2,0.6l-0.6,0.3l-0.3,0.2c-0.1,0-0.1,0.1-0.2,0.1L52,69.5
			c-0.2,0.1-0.5,0-0.6-0.2C51.3,69.2,51.3,68.9,51.4,68.8z"/>
	</g>
	<g>
		<path class="st2" d="M49.6,69.2c-0.1,0-0.2,0.1-0.2,0.1l0-0.1c0-0.1,0-0.2,0-0.3c0-0.2,0-0.4,0-0.5c0-0.4,0-0.7,0.1-1.1
			c0.1-0.7,0.3-1.4,0.4-2.1c0.3-1.4,0.6-2.8,1.1-4.2c0.1-0.3,0.4-0.4,0.6-0.3c0.2,0.1,0.4,0.3,0.4,0.5c0,1.5-0.2,2.9-0.4,4.3
			c-0.1,0.7-0.2,1.4-0.4,2.1c-0.1,0.4-0.2,0.7-0.3,1.1c-0.1,0.2-0.1,0.3-0.2,0.5c0,0.1-0.1,0.2-0.1,0.3l-0.1,0.1
			c0,0.1-0.2,0.3-0.3,0.4c-0.2,0.2-0.5,0.1-0.7-0.1C49.3,69.6,49.4,69.3,49.6,69.2z"/>
	</g>
	<line class="st7" x1="51.2" y1="69.1" x2="53.5" y2="61.5"/>
	<g>
		<path class="st4" d="M51.9,67.6c0.5-1.3,1.2-2.6,1.8-3.9c0.6-1.3,1.3-2.5,2-3.7c0.7-1.2,1.4-2.4,2.1-3.6c0.7-1.2,1.5-2.4,2.3-3.5
			l0,0c0.2-0.2,0.5-0.3,0.7-0.1c0.2,0.1,0.3,0.4,0.2,0.6c-0.6,1.3-1.2,2.6-1.8,3.9c-0.6,1.3-1.3,2.5-2,3.8c-0.7,1.2-1.4,2.5-2.1,3.7
			c-0.7,1.2-1.5,2.4-2.3,3.6c-0.2,0.2-0.5,0.3-0.7,0.1C51.9,68.1,51.8,67.9,51.9,67.6L51.9,67.6z"/>
	</g>
	<path class="st7" d="M53.8,66.8c0.3-0.4,9.7-10.3,9.7-10.3"/>
	<g>
		<path class="st0" d="M49.6,86.9c2.8-2.2,5.7-4.3,8.5-6.3l4.3-3.1c1.4-1,2.8-2,4.2-3.1c1.4-1.1,2.8-2.2,4.1-3.3
			c0.7-0.6,1.3-1.1,2-1.7l0.2-0.2l0.1-0.1l0.1-0.1c0,0,0.1-0.2,0.2-0.3l0.2-0.3l0.8-1.1c2.1-2.8,4.3-5.6,6.5-8.4
			c0.2-0.2,0.5-0.3,0.7-0.1c0.2,0.2,0.3,0.5,0.1,0.7l-6.3,8.5L74.4,69l-0.4,0.5l-0.2,0.2l-0.1,0.1l-0.3,0.3c-0.7,0.6-1.3,1.2-2,1.8
			c-1.3,1.2-2.7,2.3-4.1,3.4c-1.4,1.1-2.8,2.2-4.3,3.2l-4.3,3.1c-2.9,2.1-5.8,4.1-8.7,6.1l0,0c-0.2,0.2-0.5,0.1-0.7-0.1
			C49.3,87.3,49.4,87,49.6,86.9z"/>
	</g>
	<g>
		<path class="st10" d="M48.2,73.4c-0.2-0.3-0.7-0.7-1.1-1c-0.4-0.3-0.9-0.6-1.3-0.9C44.9,71,43.9,70.5,43,70
			c-1-0.4-1.9-0.8-2.9-1.1c-0.9-0.2-2.1-0.4-3.2-0.6c-4.4-0.7-8.7-1.6-13-2.6c-0.3-0.1-0.4-0.3-0.4-0.6c0.1-0.2,0.3-0.4,0.5-0.4l0,0
			c4.4,0.4,8.8,1,13.1,1.7c1.1,0.2,2.1,0.3,3.3,0.6c1.2,0.3,2.2,0.8,3.3,1.3c1,0.5,2,1.2,2.9,1.9c0.5,0.3,0.9,0.7,1.3,1.2
			c0.4,0.4,0.8,0.8,1.1,1.5c0.1,0.2,0,0.5-0.2,0.7c-0.2,0.1-0.4,0-0.6-0.1L48.2,73.4z"/>
	</g>
	<g>
		<path class="st4" d="M47.3,72.5c-0.1-0.1-0.1-0.2-0.2-0.3C47.1,72.1,47,72.1,47,72c-0.1-0.1-0.1-0.3-0.2-0.4l-0.4-0.7l-0.7-1.4
			c-0.4-1-0.9-1.9-1.4-2.8c-0.5-0.9-1-1.8-1.5-2.6c-0.1-0.2-0.3-0.4-0.4-0.5l-0.2-0.2l-0.3-0.2c-0.4-0.3-0.9-0.5-1.3-0.7
			c-0.9-0.4-1.9-0.8-2.7-0.8c-0.2,0-0.4,0-0.6,0.1c-0.2,0.1-0.5,0.2-0.8,0.3c-0.5,0.2-1.1,0.3-1.6,0.4c-2.1,0.4-4.4,0.6-6.6-0.2
			c-0.3-0.1-0.4-0.4-0.3-0.6c0.1-0.3,0.4-0.4,0.6-0.3l0,0c0.9,0.3,1.9,0.3,2.9,0.3c1,0,2-0.2,3-0.4c0.5-0.1,1-0.2,1.5-0.4
			c0.3-0.1,0.4-0.1,0.7-0.2c0.3-0.1,0.7-0.1,1-0.2c1.3,0,2.3,0.4,3.3,0.9c0.5,0.2,1,0.5,1.4,0.8l0.3,0.2c0.1,0.1,0.3,0.2,0.4,0.3
			c0.2,0.2,0.4,0.5,0.6,0.7c0.7,0.9,1.2,1.9,1.6,2.9c0.5,1,0.9,1.9,1.3,2.9l0.6,1.5l0.3,0.7c0.1,0.1,0.1,0.2,0.2,0.3l0.1,0.1
			c0,0,0,0,0,0.1l0.1,0.4c0,0.2-0.1,0.5-0.3,0.5C47.6,72.6,47.4,72.6,47.3,72.5z"/>
	</g>
	<g>
		<path class="st9" d="M44.7,67c0,0,0,0.1,0,0.1c0,0-0.1,0-0.1,0c-0.1,0-0.2-0.1-0.3-0.1l-0.7-0.2l-1.4-0.4
			c-0.9-0.3-1.8-0.6-2.8-0.9c-0.9-0.3-1.8-0.6-2.8-1c-0.9-0.4-1.8-0.7-2.7-1.2c-0.2-0.1-0.3-0.4-0.2-0.7c0.1-0.2,0.4-0.3,0.6-0.2
			l0.1,0c0.8,0.3,1.8,0.6,2.7,0.9c0.9,0.3,1.9,0.6,2.8,0.9c0.9,0.3,1.9,0.6,2.8,0.9c0.5,0.2,0.9,0.4,1.4,0.6
			c0.2,0.1,0.5,0.2,0.7,0.3c0.1,0.1,0.2,0.1,0.4,0.2c0.1,0,0.1,0.1,0.2,0.1c0.1,0.1,0.2,0.2,0.3,0.3c0.1,0.2,0,0.5-0.2,0.7
			S44.8,67.3,44.7,67z"/>
	</g>
	<g>
		<path class="st4" d="M45.6,69.7c-0.1-0.4-0.7-0.9-1.3-1.3c-0.6-0.4-1.3-0.6-2-0.8c-0.7-0.2-1.4-0.4-2.1-0.5
			c-0.8-0.1-1.5-0.3-2.2-0.5c-1.5-0.3-2.9-0.7-4.4-1.1l-1.1-0.3c-0.4-0.1-0.8-0.2-1.1-0.4c-0.7-0.3-1.4-0.5-2.1-0.8
			C29,64,28.9,63.7,29,63.4c0.1-0.3,0.4-0.4,0.7-0.3l0,0c0.7,0.3,1.4,0.6,2.1,0.8c0.3,0.1,0.7,0.2,1,0.3l1.1,0.2
			c1.5,0.4,2.9,0.7,4.4,1c0.7,0.2,1.5,0.3,2.2,0.4c0.8,0.1,1.5,0.3,2.3,0.6c0.7,0.3,1.5,0.6,2.2,1c0.3,0.2,0.7,0.4,1,0.8
			c0.3,0.3,0.6,0.7,0.7,1.2c0.1,0.3-0.1,0.5-0.4,0.6C45.9,70.1,45.6,69.9,45.6,69.7L45.6,69.7z"/>
	</g>
	<path class="st7" d="M46.7,71.2c-0.6-1.6,0-11.4,0-11.4"/>
	<path class="st7" d="M44.1,64.8c0.1-1.2,0.5-13.5,0.5-13.5"/>
	<g>
		<path class="st6" d="M41,61.6l-1.7-3.3c-0.6-1.2-1.1-2.4-1.7-3.6l-1.7-3.6c-0.6-1.2-1.1-2.4-1.5-3.7c-0.1-0.3,0-0.5,0.3-0.6
			c0.3-0.1,0.5,0,0.6,0.3l0,0c0.5,1.2,1.1,2.4,1.6,3.5l1.7,3.5c0.6,1.2,1.2,2.3,1.7,3.5c0.3,0.6,0.6,1.2,0.8,1.8
			c0.1,0.3,0.3,0.6,0.4,0.9l0.2,0.5l0.1,0.2c0,0.1,0.1,0.3,0.1,0.4c0,0.3-0.1,0.5-0.4,0.5c-0.2,0-0.4-0.1-0.5-0.2L41,61.6z"/>
	</g>
	<path class="st1" d="M39,61.1c-0.1,0-6.6-9.8-6.6-9.8"/>
	<g>
		<path class="st6" d="M40,66.8c-1-1-1.9-2-2.9-3.1c-0.9-1-1.8-2.2-2.7-3.3c-0.9-1.1-1.7-2.3-2.4-3.5c-0.7-1.2-1.5-2.4-2-3.8
			c-0.1-0.3,0-0.6,0.3-0.7c0.2-0.1,0.5,0,0.6,0.2l0,0c0.8,1.1,1.6,2.3,2.4,3.4c0.8,1.1,1.6,2.2,2.5,3.3l2.5,3.3
			c0.8,1.1,1.7,2.2,2.5,3.3c0.2,0.2,0.1,0.5-0.1,0.7C40.5,67,40.2,67,40,66.8z"/>
	</g>
	<g>
		<path class="st10" d="M48,86c-0.1,0-0.1-0.1-0.2-0.1l-0.2-0.2c-0.2-0.1-0.3-0.2-0.5-0.4l-1-0.7L44,83.3l-4.1-2.8
			c-1.4-1-2.7-1.9-4.1-3c-0.2-0.1-0.3-0.3-0.5-0.5l-0.4-0.5l-0.8-1l-1.6-1.9l0,0c-0.2-0.2-0.1-0.5,0.1-0.7c0.2-0.2,0.5-0.1,0.7,0.1
			l1.7,1.9l0.8,0.9l0.4,0.5c0.1,0.1,0.2,0.2,0.4,0.4c1.2,1,2.6,2,4,2.9l4.1,2.9l2,1.5l1,0.8c0.2,0.1,0.3,0.3,0.5,0.4l0.3,0.2
			l0.3,0.3c0.2,0.2,0.2,0.5,0,0.7c-0.2,0.2-0.4,0.2-0.6,0L48,86z"/>
	</g>
	<g>
		<path class="st6" d="M43,74.4c0.8,1.4,1.6,2.8,2.4,4.1c0.8,1.4,1.5,2.8,2.4,4.1c0.2,0.3,0.4,0.7,0.6,0.9c0.1,0.1,0.1,0.1,0.1,0.1
			c0,0,0,0-0.1,0c-0.1,0-0.3-0.1-0.4,0c0,0,0,0,0,0c0.1,0,0.2-0.1,0.3-0.2c0.5-0.4,1.1-1,1.6-1.6c1-1.2,2-2.4,2.9-3.7l0,0
			c0.2-0.2,0.5-0.3,0.7-0.1c0.2,0.2,0.3,0.5,0.1,0.7c-0.9,1.4-1.8,2.7-2.8,4c-0.5,0.6-1,1.3-1.7,1.9c-0.2,0.1-0.4,0.3-0.7,0.4
			c0,0,0,0-0.1,0.1c-0.2,0-0.4,0-0.5,0c-0.1,0-0.3-0.1-0.3-0.2c-0.1-0.1-0.2-0.2-0.3-0.3c-0.3-0.4-0.5-0.7-0.8-1
			c-0.9-1.4-1.7-2.8-2.4-4.2c-0.7-1.4-1.4-2.9-2-4.4c-0.1-0.3,0-0.5,0.3-0.7C42.6,74.1,42.9,74.2,43,74.4z"/>
	</g>
	<path class="st16" d="M47.5,85C46.9,83.8,39,73.2,39,73.2"/>
	<g>
		<path class="st6" d="M47,84c-0.4-0.2-0.6-0.3-0.8-0.5L45.7,83l-1.1-1l-2.2-2l-4.4-4c-0.2-0.2-0.2-0.5,0-0.7s0.5-0.2,0.7,0
			c0,0,0,0,0,0l0,0c1.5,1.4,2.9,2.7,4.4,4l2.2,2l1.1,0.9l0.6,0.5c0.2,0.1,0.4,0.3,0.5,0.3l0.2,0.1c0.2,0.2,0.3,0.5,0.1,0.7
			C47.5,84,47.2,84.1,47,84z"/>
	</g>
	<g>
		<path class="st5" d="M46.9,84.8c-1.1,0.7-2.2,1.3-3.4,1.7c-1.2,0.4-2.4,0.8-3.7,1c-1.2,0.2-2.5,0.3-3.8,0.2
			c-1.3,0-2.5-0.3-3.8-0.6c-0.3-0.1-0.4-0.3-0.4-0.6c0.1-0.3,0.3-0.4,0.6-0.4l0,0c1.2,0.2,2.3,0.4,3.5,0.4c1.2,0,2.4-0.1,3.5-0.3
			c1.2-0.2,2.3-0.5,3.4-0.9c1.1-0.4,2.3-0.8,3.3-1.3l0,0c0.2-0.1,0.5,0,0.7,0.2C47.2,84.4,47.1,84.7,46.9,84.8z"/>
	</g>
	<g>
		<path class="st2" d="M52.4,84.3c0-0.6,0.2-1.1,0.3-1.6c0.1-0.5,0.3-1,0.4-1.4l0.9-2.8c0.3-0.9,0.6-1.8,0.9-2.8
			c0.3-1,0.7-1.9,1.2-2.8c0.1-0.2,0.4-0.3,0.7-0.2c0.2,0.1,0.3,0.4,0.2,0.7l0,0c-0.4,0.8-0.8,1.7-1.1,2.6c-0.2,0.9-0.5,1.9-0.8,2.8
			l-0.8,2.8c-0.3,0.9-0.6,1.9-0.7,2.7l0,0.1c0,0.3-0.3,0.5-0.6,0.4C52.6,84.8,52.4,84.6,52.4,84.3z"/>
	</g>
	<g>
		<path class="st4" d="M54,83.5c0-0.6,0.2-1,0.4-1.5c0.2-0.4,0.4-0.9,0.6-1.3c0.4-0.8,0.9-1.6,1.4-2.4c0.9-1.5,1.9-3,3-4.5
			c0.2-0.2,0.5-0.3,0.7-0.1c0.2,0.2,0.3,0.4,0.1,0.7l-2.7,4.6c-0.4,0.8-0.9,1.5-1.3,2.3c-0.4,0.8-0.9,1.6-1.2,2.2l-0.1,0.1
			c-0.1,0.2-0.4,0.4-0.7,0.2C54.1,83.9,54,83.7,54,83.5z"/>
	</g>
	<path class="st7" d="M57.1,82.1c0.2-0.1,4.2-5,4.2-5"/>
	<g>
		<path class="st9" d="M52.4,85.8c-0.1-0.2,0.1-0.4,0.1-0.5c0.1-0.1,0.2-0.2,0.3-0.2c0.1,0,0.2,0,0.2,0c0.1,0,0.2,0,0.3,0
			c0.2,0,0.3,0,0.4,0l0.8,0.1c0.6,0.1,1.1,0.1,1.7,0.1c1.1,0,2.2,0,3.3-0.1c2.2-0.3,4.3-1,6.2-2.2c0.2-0.1,0.5-0.1,0.7,0.2
			c0.1,0.2,0.1,0.5-0.2,0.7c-2,1.2-4.3,2-6.6,2.3c-1.2,0.2-2.3,0.2-3.5,0.2c-0.6,0-1.2-0.1-1.7-0.1l-0.8-0.1l-0.4,0l-0.2,0
			c0,0,0,0,0,0c0,0,0.1-0.1,0.2-0.1c0.1,0,0.2-0.3,0.1-0.4c0.1,0.3-0.1,0.5-0.4,0.6C52.7,86.3,52.5,86.1,52.4,85.8z"/>
	</g>
	<g>
		<path class="st2" d="M63.5,77.8c1.2-0.1,2.2,0.1,3.2,0.4c1,0.3,2,0.8,2.9,1.1c1.9,0.7,3.8,1.3,5.8,1.5l0,0c0.3,0,0.5,0.3,0.4,0.6
			c0,0.3-0.3,0.4-0.5,0.4c-2.1-0.1-4.2-0.5-6.2-1.2c-1-0.4-1.9-0.8-2.9-1.1c-0.9-0.3-1.9-0.6-2.8-0.8l-0.1,0
			c-0.3-0.1-0.4-0.3-0.4-0.6C63.1,78,63.3,77.9,63.5,77.8z"/>
	</g>
	<g>
		<path class="st4" d="M63.8,76.6c0.1-0.1,0.2-0.1,0.3-0.1l0.1,0l0.1,0l0.1,0l0.3,0l0.5,0c0.4,0,0.7,0,1,0c0.7,0,1.4,0.1,2.1,0.2
			c0.3,0.1,0.7,0.1,1.1,0.2c0.3,0.1,0.6,0.1,1,0.2c0.7,0.1,1.3,0.2,2,0.3c1.3,0.1,2.7,0.3,4.1,0.3c0.2,0,0.3,0,0.5,0l0.5,0
			c0.4,0,0.7,0,1.1,0c0.7,0,1.4,0.1,2.1,0.2c0.3,0,0.5,0.3,0.4,0.6c0,0.3-0.2,0.4-0.5,0.4l-2,0.1l-1,0.1L77,79c-0.2,0-0.4,0-0.6,0
			c-1.4,0-2.8,0-4.2-0.2c-0.7-0.1-1.4-0.1-2.1-0.2c-0.4,0-0.7-0.1-1.1-0.2c-0.3-0.1-0.6-0.1-1-0.2l-2-0.4c-0.3-0.1-0.7-0.1-1-0.2
			l-0.5-0.1l-0.2,0l-0.1,0l-0.1,0c0,0-0.1,0,0,0c0.1,0,0.2,0,0.2-0.1c-0.2,0.2-0.5,0.1-0.7-0.1S63.6,76.8,63.8,76.6z"/>
	</g>
	<g>
		<path class="st5" d="M75,74c-0.7,0.1-1.3,0.3-1.9,0.6l0.1,0c-1.1,0.6-2.2,1.3-3.3,1.9c-1.1,0.7-2.3,1.1-3.5,1.5
			c-0.6,0.2-1.2,0.4-1.9,0.6c-0.3,0.1-0.7,0.2-1,0.2c-0.2,0-0.4,0-0.6,0c-0.1,0-0.3,0-0.5-0.1c-0.1,0-0.2-0.1-0.4-0.2
			c-0.2-0.1-0.4-0.3-0.4-0.6c0-0.1-0.1-0.2-0.1-0.3c0-0.1,0-0.1,0-0.1l0-0.2l0-0.3l0.1-0.5l0.1-0.9l0.3-1.9l1.2-7.5l0.6-3.7l0.3-1.9
			l0.2-0.9c0.1-0.3,0.1-0.6,0.3-1c0.1-0.3,0.4-0.4,0.7-0.3c0.2,0.1,0.4,0.4,0.3,0.6l0,0.1c-0.1,0.1-0.1,0.5-0.2,0.8L65.1,61
			c-0.1,0.6-0.2,1.2-0.3,1.9l-0.5,3.7c-0.3,2.5-0.5,5-0.7,7.5L63.5,76l-0.1,0.9l0,0.5l0,0.2l0,0.1c0,0,0,0.1,0,0c0-0.1,0-0.1,0-0.2
			c-0.1-0.2-0.2-0.3-0.3-0.4c-0.1-0.1-0.2-0.1-0.2-0.1c-0.1,0-0.1,0,0,0c0.1,0,0.2,0,0.3,0c0.2-0.1,0.5-0.1,0.8-0.2
			c0.6-0.2,1.1-0.4,1.7-0.6c1.2-0.4,2.3-0.9,3.5-1.2c1.2-0.3,2.5-0.6,3.6-1.1l0.1,0l0,0c0.7-0.1,1.3-0.3,1.9-0.6
			c0.2-0.1,0.6-0.1,0.7,0.2s0.1,0.6-0.2,0.7C75.1,74,75.1,74,75,74z"/>
	</g>
	<g>
		<path class="st9" d="M62,76.9c-0.4-0.4-0.5-0.6-0.7-0.9c-0.1-0.3-0.2-0.6-0.3-0.9l-0.4-1.8c-0.1-0.6-0.2-1.2-0.3-1.8
			c-0.1-0.6-0.2-1.2-0.2-1.9c0-0.3,0.2-0.5,0.5-0.5c0.2,0,0.4,0.1,0.5,0.4l0,0l0.5,1.7c0.2,0.6,0.4,1.2,0.5,1.7l0.5,1.7
			c0.1,0.3,0.2,0.6,0.2,0.9c0,0.3,0.1,0.6,0,0.8l-0.4,0.6C62.3,77,62.2,77,62,76.9C62,76.9,62,76.9,62,76.9z"/>
	</g>
	<path class="st15" d="M62.9,76.6c0.3-1.3,6.4-14.6,6.8-15"/>
	<line class="st17" x1="66.9" y1="62.3" x2="63.5" y2="77.5"/>
	<path class="st7" d="M71.4,64.8c0,0-5.5,12.3-7.3,12.9"/>
	<line class="st15" x1="71.4" y1="69.1" x2="63.5" y2="76.6"/>
	<g>
		<path class="st10" d="M73.5,51.8c-0.1,2.7-0.2,5.3-0.3,8c-0.1,2.6-0.3,5.4,0,7.9c0,0.3,0.1,0.6,0.2,0.8c0.1,0.3,0,0.1,0.4,0.4
			l1.6,1.2c1.1,0.8,2.1,1.6,3.2,2.3c1.1,0.7,2.3,1.4,3.4,1.9c1.2,0.5,2.4,0.9,3.6,0.9l0,0c0.3,0,0.5,0.2,0.5,0.5
			c0,0.3-0.2,0.5-0.5,0.5c-1.5,0.1-2.9-0.3-4.1-0.8c-1.3-0.5-2.5-1.1-3.7-1.8c-1.2-0.7-2.3-1.5-3.4-2.3c-0.6-0.4-1.1-0.8-1.6-1.2
			l-0.2-0.2l-0.1-0.1c-0.1-0.1-0.1-0.1-0.2-0.2c-0.1-0.1-0.2-0.2-0.2-0.4C72,69.2,72,69.1,72,69c-0.1-0.4-0.2-0.8-0.3-1.1
			c-0.2-1.4-0.2-2.8-0.2-4.1c0-1.4,0-2.7,0.1-4.1c0.2-2.7,0.4-5.4,0.9-8c0-0.3,0.3-0.5,0.6-0.4C73.3,51.3,73.5,51.5,73.5,51.8z"/>
	</g>
	<path class="st1" d="M75.4,56.2c0,0-1.2,10.7-0.9,11.7"/>
	<path class="st1" d="M79.6,54.5c-0.1,0.3-4.6,10.8-4.6,10.8"/>
	<g>
		<path class="st2" d="M78.4,61.9c0.5-0.6,0.7-1.5,0.7-2.4c0.1-0.9,0-1.9-0.2-2.8c-0.2-0.9-0.4-1.9-0.7-2.8
			c-0.1-0.5-0.3-0.9-0.5-1.4l-0.3-0.7l-0.1-0.3l-0.1-0.1l0,0c0,0,0,0,0,0c0,0,0,0,0.1,0.1c0,0,0,0,0.1,0c0.1,0,0.3,0,0.4-0.1
			c-0.2,0.2-0.5,0.1-0.7-0.1c-0.2-0.2-0.1-0.5,0.1-0.7c0.1-0.1,0.3-0.1,0.4-0.1c0.1,0,0.1,0,0.1,0.1c0.1,0.1,0.1,0.1,0.1,0.1
			c0,0,0.1,0.1,0.1,0.1l0.1,0.1l0.1,0.2c0.1,0.1,0.1,0.2,0.2,0.4c0.1,0.2,0.2,0.5,0.3,0.7c0.2,0.5,0.4,0.9,0.6,1.4
			c0.3,1,0.7,1.9,0.8,3c0.2,1,0.3,2.1,0.3,3.2c-0.1,1.1-0.4,2.3-1.4,3c-0.2,0.2-0.5,0.1-0.7-0.1C78.2,62.4,78.2,62.1,78.4,61.9
			L78.4,61.9z"/>
	</g>
	<path class="st3" d="M73.8,69.9c0.8-0.4,3.8-2.5,3.8-2.5"/>
	<path class="st3" d="M74.9,70.8c2-0.4,9-3.6,9.8-4.2"/>
	<g>
		<path class="st4" d="M75.6,70.7c2.4-0.7,4.9-1.3,7.3-1.9c0.6-0.2,1.2-0.3,1.8-0.5c0.1,0,0.3-0.1,0.4-0.1l0.4-0.2l0.9-0.4
			c1.2-0.5,2.3-1,3.5-1.6c0.3-0.1,0.5,0,0.7,0.3c0.1,0.2,0,0.5-0.2,0.6l0,0c-1.1,0.6-2.2,1.2-3.3,1.8l-0.8,0.4
			c-0.1,0.1-0.3,0.2-0.5,0.2c-0.2,0.1-0.3,0.1-0.5,0.2c-0.6,0.2-1.2,0.4-1.9,0.6c-1.2,0.3-2.5,0.6-3.7,0.9c-1.2,0.2-2.5,0.5-3.8,0.6
			c-0.3,0-0.5-0.2-0.6-0.4C75.2,71,75.3,70.8,75.6,70.7z"/>
	</g>
	<g>
		<path class="st9" d="M84.2,71.7c-0.7,0.3-1.2,0.3-1.8,0.4c-0.6,0.1-1.2,0.2-1.8,0.2c-1.2,0.1-2.3,0.2-3.5,0.3l0,0l0-1
			c1.7,0,3.3,0.2,5,0.3c1.7,0.2,3.3,0.4,4.9,0.8c0.3,0.1,0.4,0.3,0.4,0.6c-0.1,0.2-0.3,0.4-0.5,0.4c-1.7,0-3.3-0.1-5-0.3
			c-1.7-0.2-3.3-0.4-4.9-0.8l-0.1,0c-0.3-0.1-0.4-0.3-0.4-0.6c0-0.2,0.3-0.4,0.5-0.4h0c1.2-0.1,2.3-0.2,3.5-0.3
			c0.6-0.1,1.2-0.1,1.7-0.2c0.6-0.1,1.2-0.2,1.6-0.4l0.1,0c0.3-0.1,0.5,0,0.6,0.3C84.6,71.3,84.4,71.6,84.2,71.7L84.2,71.7z"/>
	</g>
	<g>
		<path class="st5" d="M77.2,63.4c0.1-0.1,0.3-0.3,0.4-0.3l0.3-0.1l0.5-0.2c0.3-0.1,0.6-0.2,0.9-0.3c0.6-0.2,1.3-0.3,1.9-0.4
			c1.3-0.2,2.5-0.4,3.8-0.5c0.7,0,1.3-0.1,2,0c0.7,0.1,1.3,0.2,1.9,0.4c1.3,0.3,2.5,0.7,3.7,1.2c0.3,0.1,0.4,0.4,0.3,0.7
			c-0.1,0.2-0.3,0.4-0.6,0.3l0,0c-1.2-0.3-2.4-0.6-3.6-0.8c-0.6-0.1-1.2-0.2-1.8-0.3c-0.5,0-1.2,0-1.8,0c-1.2,0.1-2.5,0.2-3.7,0.4
			c-0.6,0.1-1.2,0.2-1.8,0.3c-0.3,0.1-0.6,0.1-0.9,0.2L78.2,64L78,64c-0.1,0,0,0,0,0L77.2,63.4C77.2,63.5,77.2,63.4,77.2,63.4
			C77.2,63.4,77.2,63.4,77.2,63.4z"/>
	</g>
	<g>
		<path class="st4" d="M86.8,49.8c-0.1,0.3-0.2,0.5-0.2,0.7L86.3,51l-0.5,1.1l-1.1,2.2l-2.2,4.5l0,0l-0.9,1.8l0-2
			c0-0.9,0.1-1.6,0.3-2.4c0.1-0.8,0.3-1.5,0.5-2.3c0.3-1.5,0.7-3.1,1.1-4.6c0.1-0.3,0.3-0.4,0.6-0.4c0.3,0.1,0.4,0.3,0.4,0.6l0,0
			c-0.4,1.5-0.7,3-1.1,4.5c-0.2,0.8-0.3,1.5-0.4,2.3c-0.1,0.7-0.3,1.5-0.3,2.2l-0.9-0.2l0,0l2.2-4.4l1.1-2.2l0.5-1.1l0.2-0.6
			c0.1-0.2,0.2-0.4,0.2-0.5l0-0.1c0.1-0.3,0.4-0.4,0.6-0.3C86.7,49.3,86.8,49.5,86.8,49.8z"/>
	</g>
	<g>
		<path class="st6" d="M89.5,53.3c-1.2,1.5-2.4,3.1-3.5,4.6l0,0L86,58l-0.2,0.1c-0.9,0.5-1.9,0.8-2.9,1.2c-1,0.4-1.9,0.7-2.9,1
			c-0.3,0.1-0.5-0.1-0.6-0.3c-0.1-0.2,0-0.5,0.3-0.6c0.9-0.4,1.9-0.8,2.9-1.2c1-0.4,1.9-0.8,2.9-1l-0.2,0.2l0,0
			c1.2-1.6,2.3-3.1,3.5-4.6c0.2-0.2,0.5-0.3,0.7-0.1C89.7,52.8,89.7,53.1,89.5,53.3L89.5,53.3z"/>
	</g>
	<path class="st7" d="M83.4,59.1c-0.1,0.6-2.3,3.2-2.3,3.2"/>
	<line class="st7" x1="84.1" y1="60.7" x2="82.9" y2="62"/>
	<line class="st7" x1="85.6" y1="54.1" x2="82" y2="58.7"/>
	<g>
		<path class="st0" d="M45.1,80.5c0.6,0,1.2,0.1,1.7,0.1c0.1,0,0.3,0,0.4,0c0,0,0.1,0,0.1,0c0,0-0.2,0-0.2,0.3c0,0.1,0,0.2,0,0.3
			c0,0,0,0.1,0,0c0,0,0,0-0.1-0.1c-0.1-0.1-0.2-0.2-0.3-0.2c-1-0.7-2-1.5-3-2.2c-1.9-1.5-3.8-3.1-5.7-4.7c-0.5-0.4-0.9-0.8-1.4-1.3
			c-0.1-0.1-0.3-0.3-0.4-0.5l-0.2-0.3L35.5,71l-2.2-3l-4.4-5.9c-0.2-0.2-0.1-0.5,0.1-0.7c0.2-0.2,0.5-0.1,0.7,0.1l4.5,5.8l2.2,3
			l0.5,0.8c0.1,0.1,0.2,0.3,0.3,0.4c0.1,0.1,0.1,0.1,0.2,0.2c0.4,0.4,0.9,0.8,1.3,1.2c1.8,1.6,3.8,3.1,5.7,4.6
			c1,0.8,1.9,1.5,2.9,2.2c0.1,0.1,0.3,0.2,0.4,0.3c0.1,0.1,0.2,0.2,0.2,0.3c0,0,0.1,0.2,0.1,0.3c0,0.1,0.1,0.3,0,0.5
			c-0.1,0.4-0.4,0.6-0.6,0.6c-0.2,0.1-0.3,0.1-0.4,0.1c-0.2,0-0.4,0-0.6,0c-0.7,0-1.3-0.2-1.9-0.4c-0.3-0.1-0.4-0.4-0.3-0.6
			C44.6,80.6,44.9,80.5,45.1,80.5L45.1,80.5z"/>
	</g>
	<g>
		<path class="st5" d="M35.8,75.8c0.6,0.3,1.2,0.5,1.9,0.6l0,0l0.1,0c1.2,0.5,2.4,0.7,3.6,1.1c1.2,0.3,2.4,0.8,3.5,1.2
			c0.6,0.2,1.1,0.4,1.7,0.6c0.3,0.1,0.6,0.2,0.8,0.2c0.1,0,0.2,0,0.3,0c0,0,0,0,0,0c0,0-0.1,0-0.2,0.1c-0.1,0.1-0.2,0.2-0.3,0.4
			c0,0.1,0,0.2,0,0.2c0,0.1,0,0,0,0l0-0.1l0-0.2l0-0.5L47,78.7l-0.1-1.9c-0.2-2.5-0.4-5-0.7-7.5l-0.5-3.7c-0.1-0.6-0.2-1.2-0.3-1.9
			l-0.2-0.9c-0.1-0.3-0.1-0.6-0.2-0.8l0-0.1c-0.1-0.3,0-0.5,0.3-0.6c0.2-0.1,0.5,0,0.6,0.3c0.2,0.4,0.2,0.7,0.3,1l0.2,0.9l0.3,1.9
			l0.6,3.7l1.2,7.5l0.3,1.9l0.1,0.9l0.1,0.5l0,0.3l0,0.2c0,0,0,0,0,0.1c0,0.1,0,0.2-0.1,0.3c-0.1,0.3-0.3,0.5-0.4,0.6
			c-0.2,0.1-0.3,0.2-0.4,0.2c-0.2,0.1-0.4,0.1-0.5,0.1c-0.3,0-0.5,0-0.6,0c-0.4-0.1-0.7-0.1-1-0.2c-0.6-0.2-1.3-0.4-1.9-0.6
			c-1.2-0.4-2.4-0.9-3.5-1.5c-1.1-0.6-2.2-1.4-3.3-1.9l0.1,0c-0.6-0.3-1.2-0.5-1.9-0.6c-0.3,0-0.5-0.3-0.5-0.6
			c0-0.3,0.3-0.5,0.6-0.5C35.6,75.8,35.7,75.8,35.8,75.8z"/>
	</g>
	<path class="st7" d="M39,67.5c0,0,5.5,12.3,7.3,12.9"/>
	<line class="st15" x1="39" y1="71.8" x2="47" y2="79.3"/>
	<g>
		<path class="st10" d="M38,54.4c0.4,2.7,0.7,5.3,0.9,8c0.1,1.3,0.1,2.7,0.1,4.1c0,1.4,0,2.7-0.2,4.1c-0.1,0.4-0.1,0.7-0.3,1.1
			c0,0.1-0.1,0.2-0.1,0.3c-0.1,0.1-0.1,0.2-0.2,0.4c-0.1,0.1-0.1,0.1-0.2,0.2l-0.1,0.1l-0.2,0.2c-0.5,0.4-1.1,0.8-1.6,1.2
			c-1.1,0.8-2.2,1.6-3.4,2.3c-1.2,0.7-2.4,1.3-3.7,1.8c-1.3,0.5-2.7,0.9-4.1,0.8c-0.3,0-0.5-0.2-0.5-0.5c0-0.3,0.2-0.5,0.5-0.5l0,0
			c1.2,0,2.5-0.4,3.6-0.9c1.2-0.5,2.3-1.2,3.4-1.9c1.1-0.7,2.2-1.5,3.2-2.3l1.6-1.2c0.4-0.3,0.2-0.2,0.4-0.4
			c0.1-0.2,0.1-0.5,0.2-0.8c0.3-2.5,0.1-5.2,0-7.9c-0.1-2.7-0.3-5.3-0.3-8c0-0.3,0.2-0.5,0.5-0.5C37.7,53.9,37.9,54.1,38,54.4z"/>
	</g>
	<path class="st1" d="M35.1,58.9c0,0,1.2,10.7,0.9,11.7"/>
	<path class="st1" d="M30.9,57.2C31,57.5,35.5,68,35.5,68"/>
	<g>
		<path class="st2" d="M31.4,65.4c-1-0.7-1.4-2-1.4-3c-0.1-1.1,0.1-2.1,0.3-3.2c0.2-1,0.5-2,0.8-3c0.2-0.5,0.4-1,0.6-1.4
			c0.1-0.2,0.2-0.5,0.3-0.7c0.1-0.1,0.1-0.2,0.2-0.4l0.1-0.2l0.1-0.1c0,0,0,0,0.1-0.1c0,0,0,0,0.1-0.1c0,0,0,0,0.1-0.1
			c0.1,0,0.3,0,0.4,0.1c0.2,0.2,0.3,0.5,0.1,0.7s-0.5,0.3-0.7,0.1c0.1,0.1,0.3,0.1,0.4,0.1c0.1,0,0.1,0,0.1,0c0.1,0,0.1-0.1,0.1-0.1
			c0,0,0,0,0,0l0,0l-0.1,0.1L33,54.6l-0.3,0.7c-0.2,0.5-0.3,0.9-0.5,1.4c-0.3,0.9-0.5,1.9-0.7,2.8c-0.2,0.9-0.3,1.9-0.2,2.8
			c0.1,0.9,0.2,1.7,0.7,2.4l0,0c0.2,0.2,0.1,0.5-0.1,0.7C31.8,65.5,31.6,65.5,31.4,65.4z"/>
	</g>
	<path class="st3" d="M36.7,72.6c-0.8-0.4-3.8-2.5-3.8-2.5"/>
	<path class="st3" d="M35.5,73.5c-2-0.4-9-3.6-9.8-4.2"/>
	<g>
		<path class="st4" d="M34.7,74.4c-1.3-0.2-2.5-0.4-3.8-0.6c-1.2-0.3-2.5-0.5-3.7-0.9c-0.6-0.2-1.2-0.3-1.9-0.6
			c-0.2-0.1-0.3-0.1-0.5-0.2c-0.2-0.1-0.4-0.2-0.5-0.2l-0.8-0.4c-1.1-0.6-2.2-1.2-3.3-1.8l0,0C20,69.5,19.9,69.2,20,69
			c0.1-0.2,0.4-0.3,0.6-0.2c1.2,0.5,2.3,1,3.5,1.6l0.9,0.4l0.4,0.2c0.1,0.1,0.3,0.1,0.4,0.1c0.6,0.2,1.2,0.4,1.8,0.5
			c2.4,0.6,4.9,1.2,7.3,1.9c0.3,0.1,0.4,0.4,0.3,0.6C35.1,74.3,34.9,74.4,34.7,74.4z"/>
	</g>
	<g>
		<path class="st9" d="M26.7,73.5c0.4,0.2,1,0.3,1.6,0.4c0.6,0.1,1.1,0.2,1.7,0.2c1.2,0.1,2.3,0.2,3.5,0.3h0c0.3,0,0.5,0.2,0.5,0.5
			c0,0.2-0.2,0.4-0.4,0.5l-0.1,0c-1.6,0.3-3.3,0.6-4.9,0.8c-1.7,0.2-3.3,0.4-5,0.3c-0.3,0-0.5-0.2-0.5-0.5c0-0.2,0.2-0.4,0.4-0.5
			c1.6-0.4,3.3-0.6,4.9-0.8c1.7-0.2,3.3-0.3,5-0.3l0,1l0,0c-1.2-0.1-2.3-0.2-3.5-0.3c-0.6-0.1-1.2-0.1-1.8-0.2
			c-0.6-0.1-1.2-0.2-1.8-0.4C26,74.3,25.9,74,26,73.7S26.4,73.4,26.7,73.5L26.7,73.5L26.7,73.5z"/>
	</g>
	<g>
		<path class="st5" d="M32.4,66.7C32.4,66.8,32.5,66.8,32.4,66.7l-0.2,0l-0.4-0.1c-0.3-0.1-0.6-0.1-0.9-0.2
			c-0.6-0.1-1.2-0.2-1.8-0.3c-1.2-0.2-2.5-0.3-3.7-0.4c-0.6,0-1.2-0.1-1.8,0c-0.6,0.1-1.2,0.2-1.8,0.3c-1.2,0.2-2.4,0.5-3.6,0.8l0,0
			c-0.3,0.1-0.5-0.1-0.6-0.4c-0.1-0.2,0.1-0.5,0.3-0.6c1.2-0.5,2.4-0.9,3.7-1.2c0.6-0.2,1.3-0.3,1.9-0.4c0.7-0.1,1.4,0,2,0
			c1.3,0.1,2.6,0.3,3.8,0.5c0.6,0.1,1.3,0.3,1.9,0.4c0.3,0.1,0.6,0.2,0.9,0.3l0.5,0.2l0.3,0.1c0.1,0,0.3,0.2,0.4,0.3
			c0,0,0,0.1,0,0.1c0,0,0,0,0,0L32.4,66.7z"/>
	</g>
	<g>
		<path class="st4" d="M24.7,52.3c0,0.1,0.1,0.3,0.2,0.5l0.2,0.6l0.5,1.1l1.1,2.2l2.2,4.4l0,0L28,61.3c0-0.7-0.1-1.5-0.3-2.2
			c-0.1-0.8-0.3-1.5-0.4-2.3c-0.3-1.5-0.7-3-1.1-4.5c-0.1-0.3,0.1-0.5,0.4-0.6c0.3-0.1,0.5,0.1,0.6,0.4l0,0c0.4,1.5,0.7,3,1.1,4.6
			c0.2,0.8,0.3,1.5,0.5,2.3c0.1,0.8,0.3,1.5,0.3,2.4l0,2L28,61.6l0,0l-2.2-4.5l-1.1-2.2l-0.5-1.1l-0.3-0.6c-0.1-0.2-0.2-0.4-0.2-0.7
			c-0.1-0.3,0.1-0.5,0.4-0.6c0.2-0.1,0.5,0.1,0.6,0.3L24.7,52.3z"/>
	</g>
	<g>
		<path class="st6" d="M21.7,55.5c1.2,1.5,2.4,3,3.5,4.6l0,0L25,59.9c1,0.3,2,0.6,2.9,1c1,0.4,1.9,0.8,2.9,1.2
			c0.3,0.1,0.4,0.4,0.3,0.7c-0.1,0.2-0.4,0.3-0.6,0.3c-1-0.3-2-0.7-2.9-1c-1-0.4-1.9-0.7-2.9-1.2l-0.2-0.1l-0.1-0.1l0,0
			c-1.1-1.5-2.3-3.1-3.5-4.6c-0.2-0.2-0.1-0.5,0.1-0.7C21.2,55.2,21.5,55.2,21.7,55.5L21.7,55.5z"/>
	</g>
	<path class="st7" d="M27,61.8c0.1,0.6,2.3,3.2,2.3,3.2"/>
	<line class="st7" x1="26.3" y1="63.4" x2="27.6" y2="64.7"/>
	<line class="st7" x1="24.8" y1="56.8" x2="28.5" y2="61.4"/>
	<line class="st7" x1="48.3" y1="82.5" x2="51.5" y2="74.2"/>
	<path class="st7" d="M49,85.7c-0.1-0.7-1.7-9.2-3.3-12.5"/>
	<g>
		<path class="st9" d="M49.2,58.7c1.2-1.5,2.5-3,3.9-4.4c1.3-1.4,2.7-2.8,4.2-4.2c1.4-1.4,3-2.6,4.6-3.8c0.8-0.6,1.8-1.1,2.6-1.5
			l1.3-0.7c0.2-0.1,0.5-0.2,0.6-0.3c0,0,0,0,0,0c0,0-0.1,0.1-0.1,0.2c-0.1,0.2,0,0.4,0.1,0.5c0.1,0.1,0.2,0.2,0.4,0.3
			c0.1,0,0.2,0,0.2,0c0.1,0,0,0,0,0c0,0,0,0,0,0c0,0-0.1,0-0.2,0L66.5,45l0,0c-0.3,0.1-0.5-0.1-0.6-0.3c-0.1-0.2,0-0.5,0.2-0.6
			l0.3-0.2c0.1,0,0.1-0.1,0.2-0.1c0,0,0.1,0,0.2-0.1c0,0,0,0,0.1,0c0.1,0,0.2,0,0.2,0c0.2,0,0.3,0.2,0.4,0.3c0.1,0.1,0.1,0.3,0,0.5
			c0,0.1-0.1,0.2-0.1,0.2l0,0c-0.3,0.3-0.4,0.4-0.7,0.6c-0.4,0.3-0.8,0.6-1.2,0.9c-0.8,0.6-1.6,1.1-2.3,1.7
			c-1.5,1.2-2.9,2.5-4.4,3.8l-4.3,3.9c-1.5,1.3-2.9,2.6-4.5,3.9c-0.2,0.2-0.5,0.1-0.7-0.1C49,59.2,49.1,59,49.2,58.7L49.2,58.7z"/>
	</g>
</g>
</svg>
