<?xml version="1.0" encoding="utf-8"?>
<!-- Generator: Adobe Illustrator 23.1.1, SVG Export Plug-In . SVG Version: 6.00 Build 0)  -->
<svg version="1.1" id="Layer_1" xmlns="http://www.w3.org/2000/svg" xmlns:xlink="http://www.w3.org/1999/xlink" x="0px" y="0px"
	 viewBox="0 0 108 108" style="enable-background:new 0 0 108 108;" xml:space="preserve">
<style type="text/css">
	.st0{fill:#8BA356;stroke:#9BAB91;stroke-width:0.5396;stroke-miterlimit:10;}
	.st1{fill:#649153;stroke:#9BAB91;stroke-width:0.5396;stroke-miterlimit:10;}
	.st2{fill:#90B48E;}
	.st3{fill:#5E9B65;stroke:#9BAB91;stroke-width:0.5396;stroke-miterlimit:10;}
	.st4{fill:#79A153;stroke:#9BAB91;stroke-width:0.5396;stroke-miterlimit:10;}
	.st5{fill:#638257;stroke:#9BAB91;stroke-width:0.5396;stroke-miterlimit:10;}
	.st6{fill:#4F8454;stroke:#9BAB91;stroke-width:0.5396;stroke-miterlimit:10;}
	.st7{fill:#608B4F;stroke:#9BAB91;stroke-width:0.5396;stroke-miterlimit:10;}
	.st8{fill:#5E7948;}
	.st9{fill:#879B74;stroke:#9BAB91;stroke-width:0.5396;stroke-miterlimit:10;}
	.st10{fill:#81A582;}
	.st11{fill:#608D5D;}
</style>
<g>
	<path class="st0" d="M48,74.9c0.2,0.5,5.8,6.2,5.9,6.4c0.1,0.2,2.9,8.6,3,9.5c0.1,0.9,0.9,5,0.9,5s2-1.1,1.8-1.4s0.2-2.7,0.5-3.3
		c0.3-0.6,0.9-8.4,2.4-10.3c1.5-1.9,4.3-4.2,4.3-4.2l-0.6-0.9c0,0-4.1,3.1-4.1,2.9c0-0.2,2.2-8,2.2-8l-2.2-1.4c0,0-1,9.4-1.3,9.8
		c-0.4,0.4-2.9-0.1-2.9-0.1l-1.5-0.7L53,73.7l-0.1,2.4l2.9,4.6l0.7,3c0,0-4.2-7-4.7-7.7s-3-3.5-3.4-3.8c-0.4-0.4-2.2-0.4-2.1-0.2
		C46.4,72.3,48,74.9,48,74.9z"/>
	<path class="st1" d="M45.3,52.8c0.1,0.3,0.4,2.3,0.6,3.6c0.1,1.3,1.1,4.7,1.1,4.7s-2.9-0.4-3-0.7s-3.6-9.2-3.6-9.2s2,0.3,2.1,0.7
		c0.1,0.4,1.9,4.6,1.9,4.6l-0.1-3.9L45.3,52.8z"/>
	<path class="st2" d="M34.9,62.8c0,0.3,0,0.6,0.5,0.6c0.5-0.1,0.5,0.5,0.4,0.6c-0.6,0.7,0.1,0.8,0.4,1l0,0c-0.4,0.5-1,0.6-1.5,0.9
		c0,0,0,0-0.1,0.1c-0.6,0-1.1,0-1.6,0c-0.3,0-0.3,0.4-0.3,0.5c-0.1,0.3,0.2,0.1,0.3,0.2l0,0c0.1,0.3,0.6,0.4,0.2,0.8
		c0.1,0.1,0.3,0.2,0.4,0.1c0.2-0.1,0.4-0.1,0.6,0C33.7,68,33.5,68,33,67.6c-0.1-0.1-0.3-0.1-0.4-0.2c-0.1-0.1-0.2-0.1-0.4,0
		c0,0-0.1,0.1-0.1,0.2c0,0.2,0.2,0.1,0.3,0.1c0.1,0,0.1,0.1,0.2,0.1c-0.4,0.3-0.8,0.3-1.1,0.7c-0.1,0.1-0.1,0.1-0.3,0
		c-0.3-0.3-0.7-0.2-1-0.2c-0.3,0-0.8,0.3-0.7-0.4c-0.3,0-0.3-0.6-0.7-0.4c-0.7,0.3-1.2-0.1-1.5-0.6c-0.3-0.3-0.4-0.4-0.8-0.2
		c-0.2,0.2-0.4,0.2-0.7,0c-0.1-0.1-0.3-0.1-0.3-0.3c0-0.2,0.2-0.3,0.3-0.3c0.5,0,0.9-0.3,1.4,0.1c0.3,0.2,0.8,0.4,1.1-0.2
		c0.1-0.2,0.2,0,0.4-0.1c0.7,0,1.4-0.2,1.9-0.7c0.1-0.1,0.2-0.2,0.4-0.1c0.9,0.5,1.6-0.5,2.4-0.5c0.2,0,0.1-0.2,0-0.4
		c-0.3-0.3-0.7-0.7-0.9,0.2c-0.2-0.5-0.2-1-0.6-1.2c0.3,0,0.5-0.6,0.9,0c0.1,0.2,0.6,0.4,0.8,0.7c0.3,0.4,0.5,0.5,0.8,0.2
		c0.3-0.3,0.2,0,0.2,0.1c0.1,0.2,0.4,0.2,0.5,0.2c0.1,0,0.2,0,0.2-0.2c-0.1-0.3-0.9-0.6-1.2-0.5c-0.1,0-0.2,0-0.2,0
		c-0.1-0.3,0-0.7-0.6-0.7c-0.1,0,0.1-0.6,0.2-0.9c0-0.1-0.1-0.2,0.1-0.3C33.7,62.8,34.3,62.8,34.9,62.8L34.9,62.8z M33.7,62.7
		L33.7,62.7L33.7,62.7L33.7,62.7z"/>
	<path class="st3" d="M54.4,13.5c0,0-5.2,2.1-7.6,6.7s-4.1,11.8-4,14c0.1,2.1,3.5,15.4,4.2,15.9c0.7,0.5,2.9,2.7,3.4,3.3
		c0.5,0.6,3.1,1.2,4.4-1.6c1.3-2.8,8.4-18.1,7.3-22.5C61,24.7,57.4,15.5,54.4,13.5z"/>
	<path class="st1" d="M61.6,27.4c-3.3-1.6-11.8,10.7-10.8,18c1.1,7.3,3.3,12.4,3.5,12.8s8.1-5.7,8.6-6.5c0.5-0.8,4.5-11.8,3.8-15
		C66,33.5,65.8,29.5,61.6,27.4z"/>
	<path class="st4" d="M66.8,42.2c0.6-0.6,7-4.3,10.3-4.3c3.3,0,10.4,2.1,12.5,3c2.1,1,3,2.6,3,2.6s-3.1,6.2-4.7,7.2
		c-1.6,0.9-9.6,5.7-11.4,6.6s-7.7-0.4-7.7-0.4s-2.4-7.5-2.3-8.1S66.8,42.2,66.8,42.2z"/>
	<path class="st5" d="M56.5,49.4c0,0,3.6-9.6,5.7-12c2.1-2.5,5.3-5,6.1-5.3c0.8-0.3,2.4,0.8,2.9,1.6c0.5,0.8,6.2,11,6.1,15.3
		s-0.2,8.6-0.9,10.6c-0.7,1.9-9.4,14.2-10.1,14.6c-0.6,0.4-1.9-0.2-2.3-0.7c-0.4-0.5-1.2,0.2-1.9-0.4c-0.7-0.6-3.3-2.2-3.9-3.9
		C57.7,67.5,56.5,49.4,56.5,49.4z"/>
	<path class="st1" d="M36.6,41.6c2.1,3.2,3.8,10.6,3.7,12.8c-0.1,2.2-1.7,5-2.8,4.9c-1.1-0.1-8.2-4.8-10-5.9
		c-1.8-1.1-10.1-10.4-11-12.3c-0.9-1.8,0.6-3.5,3.2-4.5c2.5-1,3.6-1.1,9.8,1.2c0.1,0,0.3,0.1,0.4,0.1C29.9,37.9,35.3,39.6,36.6,41.6
		z"/>
	<path class="st6" d="M26.9,33.3c0.1-1.7,2.1-2.7,5.5-2.6c3.4,0.1,9.3,2.1,11.1,3.4c1.8,1.3,4.8,6.2,5.4,8.1
		c0.6,1.9,2.2,8.3,1.2,8.6c-1,0.3-1.4,0.7-1.4,0.7s0.1,1.1-0.2,1.8c-0.3,0.7-0.1,1.3-1.6,1.3c-1.4,0-4.4,0.4-8.6-3.3
		C34,47.7,26.7,40,26.9,33.3z"/>
	<path class="st7" d="M56.5,45.9c-2.6-1.4-8.1,7.6-7.7,13.3s3.4,14,5.1,15.9c1.7,1.8,4,2.1,4.9,1.8c0.9-0.4,4.3-4.8,4.5-5.9
		c0.3-1.1,1.8-15.4,0-18.6C61.5,49.3,58.9,47.3,56.5,45.9z"/>
	<path class="st7" d="M18.6,54.7c0.5-4.8,12.7-3.7,16.8-2s10.4,7.3,11.8,8.7c1.3,1.5,2.8,7.5,2.8,8.5s-0.9,5.8-1.2,6.5
		c-0.3,0.7-2.7,1.8-3.9,2.1c-1.3,0.2-5.6-0.3-7.8-1.5c-2.2-1.2-13.4-9.2-15-11.2C20.6,63.8,18.4,57.4,18.6,54.7z"/>
	<path class="st1" d="M65.1,75.5c-1.2-0.6-2.2,0.3-1.6-2.3c0.6-2.6,4.5-11.2,6.3-12.1s8.9-4.3,10.9-4.5c2-0.3,7.9-0.1,9.1,1.1
		s3.4,3.2,4,3.8s0.4,1.1-0.6,2.7c-1,1.6-11.3,12-13,13c-1.8,1-9.3,3.8-11.1,3.8s-5.1-0.4-5.1-1.4s-0.4-2.6,0-2.8
		C64.6,76.4,65.1,75.5,65.1,75.5z"/>
	<path class="st8" d="M56.5,75.4c0.5-0.5,1.4-0.7,2.3,0c0.9,0.7,1.5,2.6,1.4,3.2c-0.1,0.6,0,4.4,0,4.4s-0.8,6.4-0.9,6.8
		c-0.1,0.4-0.9,2.9-0.9,2.9s-1.8-5.5-1.8-6.7c0-1.3,1-4.5,0.5-6.3s-0.5-4.7-0.5-4.7"/>
	<path class="st9" d="M41.2,68.2c0.6,0.2,8,3.4,9.2,4.1s6.3,3.9,7,4.3c0.6,0.4,2.3,1.7,2.3,2.3c-0.1,0.6-1.3,0.9-2.6,0
		c-1.2-0.9-4.6-3.1-6.7-4s-4.9-1.9-6.3-2.7s-3-1.2-3.3-1.6C40.6,70.2,38.7,67.2,41.2,68.2z"/>
	<path class="st10" d="M64.5,79.5c0.2-0.4-0.3-0.6-0.4-0.9c-0.1-0.1-0.3,0.2-0.4,0.4c-0.7,0.8-1.2,1.9-2,2.7
		c-0.7,0.7-0.9,1.6-1.5,2.5c-0.2-0.6-0.1-0.9,0.1-1.3c0.2-0.5,0.2-1.2,0.2-1.8c0.3,0,0.3-0.3,0.3-0.5c0.4-1.9,0.8-3.7,1.1-5.6
		c0-0.2,0.1-0.4-0.2-0.5c0-0.1,0-0.2,0.1-0.2c1.2-0.7,1.7-1.9,2.1-3.1c0.1-0.3,0.3-0.6,0.3-1c0-0.1,0.1-0.3,0.3-0.3
		c0.1,0,0.2,0,0.2,0.1c0.2,0.2-0.1,0.2-0.2,0.3c0,0,0,0,0,0.1c-0.2,0.6-0.2,1.2-0.5,1.8c-0.1,0.2,0,0.4,0.2,0.6
		c0-0.7,0.7-1.1,0.8-1.8c0.1-0.3,0.3,0,0.3,0.2c0,0.1,0,0.1,0.1,0.2c0.5-0.3,0.4-0.7,0.3-1.1c-0.3-0.6-0.3-1,0.6-0.9
		c0.2,0,0.5,0,0.4-0.4c0-0.1,0.1-0.2,0.2-0.3c0,0,0,0,0,0c0.1,0,0.1-0.1,0-0.1l0,0c-0.2-0.7,0.7-0.6,0.6-1.2
		c-0.3,0.1-0.6,0.3-1.1,0.3c0.3-0.3,0.2-0.7,0.6-0.8c0,0.2,0.1,0.4,0.3,0.3c0.2-0.1,0.5-0.3,0.3-0.7c-0.2,0.1-0.3,0.4-0.6,0.4
		c0.4-0.6,0.5-1.3,0.7-2c0.3-0.8,0.7-1.5,1.4-2c0.2-0.2,0.4-0.5,0.7-0.6c0.2-0.1,0-0.3-0.1-0.5c-0.1-0.1-0.2-0.1-0.3-0.1
		c-0.3-0.2-0.5-0.5-0.5-0.8c0.1-0.4,0.5-0.2,0.8-0.2c0.5,0.1,0.9,0.5,1.5,0.2c0.1-0.1,0.3,0.2,0.1,0.3c-0.1,0.1-0.2,0.2-0.1,0.4
		c0.2-0.1,0.4-0.3,0.6-0.3c0.6-0.1,0.6-0.5,0.4-0.8c-0.2-0.3-0.2-0.5,0.2-0.7c-0.7,0.1-1.4,0.1-1.8,0.7c-0.4,0.6-0.8,0-1.1-0.1
		c-0.2-0.1,0.1-0.4,0.2-0.6c0,0,0,0,0,0c0.5-1,1.3-1.2,2.3-0.9c0.2,0.1,0.5,0,0.7,0c0.2,0,0.3-0.3,0.2-0.4c-0.2-0.3-0.2,0-0.3,0.1
		c-0.2,0.1-0.2-0.1-0.3-0.1c-0.2-0.1-0.4-0.5-0.7,0.1c-0.1,0.2-0.3,0-0.5-0.1c-0.2-0.2,0-0.3,0.1-0.4c0.4-0.5,1.1-0.7,1.4-1.3
		c0.1-0.1,0.3-0.1,0.3,0c0,0.8,0.6,0.5,1,0.6c0.3,0.1,0.6,0,0.6,0.4c0,0.3,0,0.6-0.5,0.4c-0.3-0.1-0.5,0-0.7,0.2
		c-0.1,0.1-0.1,0.3,0,0.3c0.3,0,0.5,0.5,0.9,0.2c0.3-0.3,0.7-0.5,0.8-0.9c0.1-0.4,0.4-0.8,0.7-1.2c-0.4-0.3-0.5,0.4-1,0.2
		c-0.3-0.1-0.8,0.2-1-0.3c0-0.1-0.1-0.1-0.2,0c-0.1,0.2-0.2,0.4-0.4,0.1c-0.1-0.2-0.1-0.4,0.1-0.6c0.2-0.2,0.4-0.2,0.6-0.4
		c0.2-0.1,0.5-0.2,0.3-0.5c-0.1-0.1-0.1-0.3,0.1-0.3c0.2,0,0.1,0.2,0.2,0.3c0.1,0.3,0.3,0.5,0.6,0.4c0.1-0.1,0.1-0.5,0.1-0.7
		c-0.1-0.4-0.5-0.7-0.9-0.7c-0.4,0-0.6,0.3-0.7,0.7c-0.3,0.8-1,1.3-1.5,1.8c-0.3,0.3-0.8,0.4-1,0.9c-0.2-0.3-0.1-0.5-0.1-0.7
		c0-0.2,0.3-0.3,0.1-0.5c-0.3-0.2-0.4,0.1-0.6,0.2c-0.1,0-0.1,0.1-0.1,0.1c-0.6-0.4-0.2-0.8-0.1-1.2c-0.3-0.1-0.3,0.1-0.3,0.2
		c-0.1,0.1-0.2,0.5-0.4,0.3c-0.2-0.2,0-0.4,0.1-0.5c0.5-0.5,1-1,1.6-1.4c0.5-0.3,0.8-0.7,1.5-0.5c0.3,0.1,0.3-0.2,0.5-0.3
		c-0.1-0.2-0.2-0.2-0.3-0.2c-0.1,0-0.3,0-0.3-0.2c0-0.1,0.2-0.2,0.3-0.2c0.5,0.2,0.9-0.4,1.4-0.4c0.1,0,0.2-0.1,0.3-0.1
		c0.3,0,0.6,0,0.7,0.2c0.1,0.2-0.1,0.5-0.3,0.5c-0.3,0.1-0.3,0.4-0.3,0.6c-0.4,0-0.7-0.3-1.2-0.2c0.4,0.4,0.9,0.5,1.2,0.2
		c0.5-0.2,1-0.4,1.5-0.6c0.7-0.2-0.3-0.5,0.1-0.7c-0.3,0.1-0.3,0.5-0.6,0.3c-0.1,0-0.1-0.1-0.1-0.2c0.2-0.2,0.3-0.5,0.6-0.6
		c0.2,0,0.3,0.2,0.5-0.1c0.1-0.1,0-0.2-0.1-0.2c-0.3,0-0.4-0.4-0.7-0.2c-0.3,0.2-0.7,0.3-1,0.4c-0.3,0.1-0.6-0.4-0.9,0.1
		c-0.1-0.1-0.2-0.1-0.3-0.2c-0.1-0.1,0-0.2,0-0.2c0.4-0.4,0.7-1,1.5-0.6c0.3,0.1,0.6-0.1,0.8-0.4c0.2-0.4,0.4-0.8,0.9-0.8
		c0.1,0,0.2-0.1,0.2-0.3c0-0.2-0.2-0.2-0.3-0.2c-0.6,0.1-1.4,0-1.7,0.9c-0.1,0.3-0.4,0.5-0.8,0.2c-0.4-0.3-0.6-0.2-0.8,0.3
		c-0.2,0.6-0.3,1.2-1.2,0.9c-0.1-0.1-0.3,0.1-0.2,0.3c0.1,0.1,0.3,0.3,0.1,0.4c-0.2,0.1-0.4,0-0.4-0.1c-0.1-0.2-0.4-0.4-0.1-0.7
		c0.1-0.1,0.2-0.2,0.3-0.2c0.2-0.1,0.4-0.3,0.2-0.5c-0.2-0.2-0.4-0.3-0.7-0.1c-0.2,0.1-0.2,0.5-0.6,0.2c-0.3-0.3,0-0.5,0.1-0.7
		c0.5-0.6,1.2-0.8,1.9-0.6c0,0,0.1,0.1,0.1,0.1c0.2,0.5,0.3,0.6,0.7,0.1c0.1-0.1,0.1-0.2,0.1-0.2c0.7,0.4,1-0.3,1.5-0.5
		c0.1-0.1,0.3-0.4,0.4-0.1c0.2,0.3,0.3,0,0.5-0.1c0.3-0.1,0.3-0.6,0.6-0.7c0.1,0,0.2-0.3,0.1-0.5c-0.2-0.2-0.3,0-0.4,0.1
		c-0.1,0.1-0.2,0.1-0.2,0.2c-0.1,0.3-0.3,0.2-0.4,0.1c-0.2-0.1-0.2-0.3,0-0.5c0.1-0.1,0.3-0.3,0.4-0.4c0.2-0.2,0.5-0.4,0.3-0.8
		c-0.1-0.1,0-0.3,0.2-0.3c0.1,0,0.3,0,0.3,0.1c0,0.5,0.7,0.9,0.3,1.6c0.5-0.2,1-0.3,1.3-0.8c0.1-0.2,0.2-0.2,0.4-0.1
		c0.1,0,0.1,0.1,0,0.5c0.3,0,0.5-0.4,0.9-0.3c0-0.2-0.3-0.1-0.3-0.3c0.3,0,0.7-0.2,0.8,0.3c0,0.4-0.4,0.5-0.8,0.6
		c-0.4,0.1-1-0.1-1.2,0.5c0,0.1-0.1,0.2-0.2,0.1c-0.6-0.4-0.5,0.2-0.6,0.5c0.3-0.2,0.6,0.4,0.9-0.1c0.2-0.3,0.5-0.3,0.8-0.3
		c0,0.2-0.1,0.1-0.2,0.2c-0.6,0.6-0.6,0.7,0.2,1.1c0.5,0.2,0.9,0.5,1.3,0.8c0.4,0.2,0.7,0,0.8-0.2c0.2-0.3-0.2-0.4-0.4-0.4
		c-0.1,0-0.3,0-0.2-0.2c0.1-0.1,0.2-0.2,0.3-0.1c0.3,0.2,0.6,0.3,0.9-0.1c0,0,0.3,0.1,0.5,0.3c-0.6-0.1-0.9,0.5-0.8,0.8
		c0.1,0.3,0.1,1.1,0.9,0.7c0,0,0.4,0,0.3,0.2c-0.1,0.2-0.2,0.3,0.1,0.3c0.2,0,0.5,0.2,0.7-0.2c0.1-0.2-0.1-0.4-0.2-0.5
		c-0.8-0.2-0.9-0.8-1-1.4c0.3,0,0.5-0.1,0.5-0.3c0-0.3-0.3-0.3-0.5-0.4l0,0c0-0.1,0-0.3,0-0.4c0.1,0,0.3,0,0.3-0.2
		c0-0.1-0.1-0.1-0.2-0.1c-0.3,0-0.1,0.2-0.1,0.3c-0.2,0-0.4,0.1-0.3-0.3c0.1-0.3,0.2-0.6,0.5-0.6c0.3,0,0.5,0,0.7,0.3
		c0.3,0.4,0.7,0.8,1.3,0.8c0.3,0,0.6,0.2,0.8,0.4c0.3,0.2,0.5,0.2,0.8,0.2c0.2,0,0.4,0,0.4,0.2c0,0.2-0.2,0.2-0.4,0.2
		c-0.5-0.3-0.6,0.5-1,0.5c0.4,0.3-0.4,1,0.4,1.2c0.1,0,0.2,0.2,0.3,0.3c0-0.1,0.1-0.1,0.1-0.2c-0.1-0.8,0.7-0.9,1.1-1.2
		c0.4-0.2,0.9-0.3,0.5-1c-0.2-0.3,0-0.5,0.3-0.6c0.4-0.2,0.8-0.5,1.2-0.6c0.5-0.1,1-0.5,1.6-0.3c-0.5,0.7-1,1.5-1.5,2.2
		c-0.4,0.6-0.8,1-1.4,1.3c0-0.3-0.1-0.4-0.4-0.3c-0.2,0.1-0.3,0.2-0.3,0.4c0.1,0.3,0.3,0,0.5,0.1c-0.3,0.6-0.9,0.8-1.3,1.2
		c-0.5,0.5-1.2,1-1.9,1.2c-0.1-0.4-0.4-0.6-0.7-0.6c0.3-0.3,0.6-0.5,0.8-0.8c0-0.1,0.1-0.1,0.1-0.2c0,0,0,0-0.1,0
		c0,0.1,0,0.1-0.1,0.2c-0.1,0-0.2,0-0.2,0c-0.4-0.3-0.7-1-1.1,0c0,0.1-0.2,0-0.3-0.1c-0.4-0.1-0.8,0.5-1.2,0c0,0,0,0.1-0.1,0.1
		c-0.4,0.5-0.7,0.5-1.2,0.3c0,0-0.1,0-0.2,0c-0.6-0.1-1.2-0.2-1.6-0.8c0-0.2,0.4,0,0.4-0.3c-0.6-0.3-0.9,0.3-1.2,0.5
		c-0.2,0.1-0.1,0.5,0.2,0.8c0.2,0.2,0.3,0.8,0.2,0.8c-0.8,0.1-0.4,0.8-0.7,1.2c-0.1-0.1-0.2-0.1-0.2-0.2c-0.1-0.1-0.3-0.3-0.5-0.1
		c-0.1,0.1-0.2,0.2-0.1,0.4c0.1,0.3,0.3,0.1,0.4,0.1c0.3,0,0.3,0.1,0.3,0.4c0.1,0.6-0.3,1.1-0.3,1.7c0,0-0.1,0.1-0.1,0.1
		c-0.3,0-0.6,0-0.8,0.3c-0.1,0.1,0,0.3,0.1,0.4c0.2,0.3,0.4-0.2,0.6-0.1c1.1-0.2,2.2-0.3,3.3-0.7c0.5-0.2,1,0,1.5-0.1
		c0.7-0.1,1.4-0.1,2-0.3c0.9-0.3,1.9,0.1,2.8,0.2c1.7,0.2,3.2,0.9,4.5,1.9c1,0.8,1.9,2,2.8,3c0.9,1,0.6,1.2,0,2.1
		c-0.6,0.9-1.1,2-1.7,2.9c-0.8,1.2-1.7,2.3-2.6,3.4c-0.2,0.2-0.4,0.3-0.6,0.5c-0.1,0-0.1-0.2-0.2,0c0,0,0,0,0,0
		c-0.5,0-0.7-0.1-0.4-0.7c-0.7,0.1-1,0.7-1.7,0.8c0.1-0.2,0.1-0.4,0.2-0.6c0.1,0,0.2,0,0.2-0.2c0,0,0,0,0,0c-0.2,0-0.2,0.1-0.2,0.2
		c-0.4,0-0.8,0.3-1.3,0c-0.2-0.2-0.3-0.3-0.4-0.5c-0.1-0.4,0.2-0.3,0.4-0.3c0.2,0,0.5,0,0.7-0.1c0.1,0,0.1-0.1,0.2-0.2
		c0,0-0.1-0.1-0.1-0.1c-0.4,0.2-0.6-0.3-1-0.2c-0.4,0.1-0.7-0.1-0.5-0.7c-0.3,0.4-0.3,0.8-0.8,0.5c-0.1,0-0.4,0.4-0.6,0.5
		C83.4,69,83,68.8,83,69.1c0,0.3,0.4,0.2,0.6,0.2c0.2,0,0.2,0.3,0.5,0.2c0.3-0.1,0.6,0,0.8,0.3c0.2,0.3,0,0.6-0.2,0.8
		c0.2,0.3,0.4-0.2,0.6,0.1c0,0,0,0.2-0.1,0.2c-0.2,0.2-0.3,0.4-0.6,0.3c-0.2,0-0.2-0.1-0.3-0.2c-0.1-0.2-0.3-0.4-0.2,0.1
		c0,0.1-0.1,0.2-0.1,0.1c-0.3-0.3-0.4-0.1-0.5,0.2c-0.1,0.1-0.2,0-0.2-0.1c0-0.2-0.1-0.2-0.2-0.1c-0.3,0.2-0.3,0.5-0.5,0.7l0,0
		c-0.6,0.2-1.1-0.3-1.6-0.2c-0.1,0-0.1-0.1-0.1-0.2c0-0.1,0-0.2-0.1-0.2c-0.1,0-0.2,0.1-0.3,0.2c-0.1,0.1,0,0.3-0.3,0.3
		c-0.1-0.1,0-0.3-0.3-0.3c-0.1,0.4-0.1,0.4,0.2,0.6c0.2,0.1,0.2,0.2,0.3,0.3c0,0.1,0.1,0.2,0.2,0.1c0.5-0.4,0.9,0,1.4,0.1
		c0.1,0,0.2,0.2,0,0.3c-0.3,0.3-0.1,0.6,0.1,0.7c0.3,0.2,0.1,0.4,0,0.5c-0.2,0.3-0.2,0.1-0.4-0.1c-0.1-0.2-0.3-0.2-0.4,0
		c-0.2,0.5-0.3,0.4-0.5,0c0-0.1-0.2-0.2-0.2-0.2c-0.9,0.4-0.7-0.2-0.7-0.7c0,0-0.1-0.1-0.1-0.1c-0.1,0-0.2,0-0.2,0.1
		c0,0.2-0.2,0.3-0.1,0.5c0.3,0.9,0.2,0.9-0.8,1c0-0.6,0-0.6-0.6-0.6c-0.1,0-0.2,0-0.3,0c-0.5-0.2-0.8-0.2-1.1,0.3
		c-0.1,0.2-0.3,0.3-0.4-0.1c0-0.1-0.1-0.3-0.2-0.4c-0.1,0-0.1,0.1-0.1,0.1c-0.1,0.2,0.1,0.6-0.3,0.7c-0.2,0-0.5-0.1-0.7-0.3
		c-0.2-0.3-0.4-0.9-1.1-0.5c-0.3,0.2-0.5,0.5-0.9,0.5c-0.1,0-0.2,0.3,0,0.5c0.5,0.5,0.8-0.2,1.2-0.3c0.1,0.2,0.3,0.4,0.5,0.6
		c0.1,0.1,0.3,0.3,0.5,0.1c0.6-0.6,1.3-0.4,2-0.5c0.5-0.1,0.4,0.2,0.3,0.5c0.3,0,0.4-0.1,0.5-0.3c0.2-0.3,0.4-0.2,0.6,0
		c0.1,0.1,0.5,0,0.5,0.4c-0.1,0.3-0.4,0.2-0.5,0.2c-0.4,0-0.8-0.1-1.1,0.5c0.6-0.4,0.4,0.2,0.6,0.3c0.2,0.2,0,0.3-0.2,0.3
		c-0.3,0.1-0.7,0.4-1.1,0.1c-0.3-0.3,0.4-0.4,0.3-0.8c-0.4-0.1-0.7,0-0.6,0.5c0,0.2,0,0.3-0.1,0.4c-0.5,0.5-1,1.1-1.7,1.3
		c0-0.1,0.1-0.3-0.2-0.4c0,0-0.1,0.1-0.1,0.1c0,0.2,0.2,0.2,0.3,0.2c-0.2,0.2-0.5,0.3-0.4,0.7c0.1,0.2-0.1,0.6-0.3,0.4
		c-0.7-0.5-0.6,0.4-1,0.4c-0.1,0-0.2,0.3-0.3,0.3c-0.3,0-0.6-0.2-0.9-0.2c-0.3-0.1-0.1,0.7-0.6,0.6c-0.3-0.1-0.2,0.2-0.2,0.4
		c-0.2,0.1-0.4,0.2-0.6,0c0-0.1,0-0.3,0-0.4c-0.1-0.3-0.2-0.6-0.5-0.5c-0.5,0.1-0.9,0.4-0.8,1.1c-1.2,0-2.4-0.2-3.6-0.5
		C65,80.4,64.8,79.9,64.5,79.5z M84.5,61.6c0.1,0.1,0.2,0.1,0.3,0c0.2-0.1,0.4,0.2,0.7,0c-0.2-0.3-0.4-0.5-0.7,0
		C84.7,61.6,84.6,61.6,84.5,61.6c0-0.1,0-0.2-0.2-0.2c0,0,0,0,0,0C84.3,61.6,84.4,61.6,84.5,61.6z M88.3,50.3
		c-0.2,0-0.4-0.1-0.4,0.2c0,0.1,0.2,0.2,0.3,0.2C88.5,50.6,88.3,50.5,88.3,50.3c0.1,0,0.2,0,0.2-0.2c0,0-0.1-0.1-0.1-0.1
		C88.3,50.1,88.4,50.2,88.3,50.3z M68.4,70.3c0.1-0.3,0.3-0.5,0-0.8c-0.1-0.4,0.2-0.7,0.3-1c-0.6,0-0.4,0.6-0.7,0.8
		c-0.1,0.1,0.3,0.1,0.4,0.2C68.2,69.7,68.2,70,68.4,70.3c-0.1,0-0.1,0.1,0,0.1c-0.1,0.4-0.2,0.9-0.5,1.2c-0.2,0.3-0.4,0.5-0.2,0.8
		c0,0-0.1,0.1-0.1,0.1c0,0,0.1,0,0.1,0.1c0-0.1,0-0.1,0-0.2c0.3,0,0.5-0.2,0.8,0c0,0.1,0,0.2,0.1,0.2c0,0,0.1-0.1,0.1-0.1
		c0-0.1-0.1-0.1-0.2-0.1c0.1-0.2,0.1-0.4,0.1-0.5l0,0c0.2,0,0.3-0.1,0.4-0.4c0.1-0.6-0.4-0.8-0.7-1.2C68.4,70.4,68.4,70.3,68.4,70.3
		z M67.7,76.5C67.7,76.5,67.7,76.4,67.7,76.5C67.7,76.4,67.7,76.4,67.7,76.5C67.7,76.4,67.7,76.4,67.7,76.5c0,0.2,0.1,0.3,0.3,0.2
		c0.2-0.1,0.2-0.3,0.2-0.4c0-0.1,0-0.2-0.2-0.2C67.8,76,67.9,76.4,67.7,76.5z M84.9,64.2C84.9,64.2,84.9,64.2,84.9,64.2
		C84.9,64.2,84.9,64.2,84.9,64.2c0.3,0.7,0.4,0.7,1,0C85.5,64.4,85.2,64.3,84.9,64.2z M75.5,70.6c0-0.1,0-0.2,0-0.2
		c0.3-0.4,1.1-0.8-0.2-0.8c-0.1,0-0.1-0.3-0.4-0.2c0.3,0.8-0.4,0.8-0.8,1C74.6,70.9,75,71,75.5,70.6c0,0.2,0,0.4,0,0.7
		c0.4-0.3,0.8-0.2,1.2-0.1c0.3,0.1,0.6,0,0.6-0.3c0.1-0.4-0.2-0.4-0.5-0.6C76.4,70,76,70.7,75.5,70.6z M65.8,77.7L65.8,77.7
		c0,0.1,0,0.2,0,0.3c-0.1,0-0.1,0-0.2,0.1c0,0,0,0,0.1,0.1c0,0,0.1-0.1,0.1-0.1c0.8-0.1,0.9-1,1.6-1.2c-0.2-0.2-0.4-0.3-0.6-0.5
		c-0.1-0.1-0.3-0.2-0.3,0c-0.1,0.3-0.4,0.4-0.7,0.6C65.6,77.1,65.4,77.4,65.8,77.7z M63.2,78.2c0.2,0.1,0.3,0.1,0.4-0.1
		c0.4-0.6,0.8-1.1,1.2-1.7c0.3-0.4,0.3-0.7-0.4-0.7c-0.2,0-0.3-0.1-0.5-0.2c0-0.3,0.1-0.6-0.1-0.9c-0.7,0-0.4,0.6-0.6,0.9
		c-0.4,1-0.5,2.2-0.8,3.3c0,0.1-0.1,0.4,0.1,0.4c0.2,0.1,0.2-0.2,0.3-0.3C63.1,78.8,63,78.4,63.2,78.2z M68.7,64.8
		c0.1,0,0.2,0.1,0.3,0c0.5,0.6,0.6,0.1,0.7-0.3c0.1-0.3,0.3-0.1,0.4-0.1c0.1-0.3-0.5-0.2-0.3-0.5c0.3-0.4,0-1.2,0.9-1.2
		c0.1,0,0.1-0.2,0.1-0.3c0-0.3,0.1-0.6,0.3-0.8c-0.4,0-0.5,0.1-0.5,0.4c0,0.1,0,0.2-0.1,0.2c-0.6,0.1-0.9,0.6-1.4,0.9
		c-0.4,0.3-0.5,0.8-0.8,1.2C68.1,64.4,68.6,64.5,68.7,64.8c-0.2,0-0.3,0.1-0.5,0.1c-0.3,0-0.4,0.1-0.4,0.4c0,0.2,0.1,0.3,0.3,0.3
		c0.1,0,0.2,0.1,0.3,0.2c-0.1,0-0.2,0.1-0.2,0.1c-0.4,0.2,0.4,0.4,0,0.6c0.1,0.1,0.3,0,0.3-0.1c0-0.4,0.8-0.7,0.2-1.3
		C68.6,65.1,68.7,64.9,68.7,64.8z M91.1,60.5c-0.2-0.1-0.7,0.1-0.6-0.5c0,0-0.3-0.2-0.3-0.2c-0.4,0.4-0.9-0.2-1.3,0.2
		c-0.1,0.1-0.5,0-0.5,0.3c0,0.3-0.2,0.7-0.5,0.7c-0.3,0-0.2-0.5-0.5-0.7c-0.3,0.4-0.8,0.5-1.2,0.8c0.2,0.2,0.6-0.1,0.6,0.3
		c0,0.2-0.4,0.2-0.6,0.1c-0.1,0-0.2,0-0.3,0c-0.2,0.1-0.4,0.2-0.3,0.5c0.2,0.5,0.2,0.8,0,1.5c0,0.1,0,0.2,0,0.2
		c0.5,0.2,0.8,0.8,1.4,0.6c0.4-0.1,0.8-0.1,1.1,0.2c0.2,0.1,0.4,0.1,0.5-0.1c0.3-0.6,0.8-0.8,1.5-0.7c0.3,0,0.7,0,1-0.2
		c-0.2-0.2-0.4-0.5-0.8-0.2c-0.1,0.1-0.3,0-0.4-0.1c-0.8-0.6-1.5-0.5-2.3,0.2c-0.1,0.1-0.2,0.2-0.3,0c-0.1-0.1-0.2-0.3-0.1-0.3
		c0.5-0.1,0.2-0.5,0.3-0.8c0.1-0.4,0.3-0.8,0.7-0.8c0.3,0,0.6,0,0.8,0.4c0,0.2,0.3,0.4,0.5,0.2C90,61.6,90.5,61.1,91.1,60.5
		C91.1,60.5,91.1,60.5,91.1,60.5C91.1,60.5,91.1,60.5,91.1,60.5z M84.7,62c-0.5,0.1-0.9,0.3-1.4,0.2c-0.3,0-0.9,0-0.9,0.6
		c0,0.4-0.3,0.4-0.5,0.5c-0.1,0-0.2,0.1-0.3,0.1c0.3,0.5-0.4,0.8-0.2,1.3c0.2,0.1,0.4-0.3,0.7,0c-0.2,0.1-0.5,0.3-0.5,0.6
		c0,0.2,0.1,0.4,0.2,0.3c0.6-0.5,1.3-0.3,2-0.6c0.3-0.1,0.5-0.5,0.5-0.6C84.1,63.5,84.7,62.8,84.7,62z M66.8,74.8
		c-0.2-0.1-0.4-0.2-0.2-0.4c0.5-0.4-0.3-0.2-0.2-0.5c-0.2,0.2-0.7,0.2-0.6,0.6c0.1,0.4-0.1,0.6-0.3,0.9c-0.1,0.1-0.2,0.3-0.2,0.5
		c0,0.2-0.1,0.4,0.1,0.5c0.2,0.1,0.3-0.1,0.4-0.2c0.4-0.4,0.9-0.7,1.3-1c0.4-0.2,0.7-0.6,0.9-1c0-0.1,0.1-0.2,0-0.2
		c0-0.1-0.2-0.1-0.2,0c-0.1,0.2-0.5,0-0.5,0.4C67.4,74.8,66.8,74.5,66.8,74.8z M68.8,70.4c0.4,0.4,0.7,0.2,0.9-0.1
		c0.2-0.3-0.1-0.7-0.2-0.9c-0.3-0.3-0.4,0.3-0.7,0.3c-0.1,0-0.1,0.1-0.1,0.2c0.1,0.1,0.1,0.1,0.2,0c0.1-0.1,0.2-0.2,0.3,0
		C69.3,70.3,69,70.2,68.8,70.4z M73.2,69.4c-0.4,0.5-0.9,0.4-1.2,0.8C73,70.3,73.1,70.3,73.2,69.4z M67.7,73.5c0,0.4,0.5,0.4,1,0.1
		c0.1-0.1,0.3-0.2,0.2-0.3c-0.1-0.3-0.2,0-0.4,0c-0.2,0-0.5,0.1-0.7,0.1C67.7,73.3,67.7,73.3,67.7,73.5z M64.7,75.2
		c0.2-0.2,0.5-0.3,0.6-0.6c0-0.2-0.2-0.3-0.3-0.3c-0.3,0-0.4,0.4-0.5,0.6C64.4,75,64.5,75.2,64.7,75.2z M75.8,76.6
		c-0.5,0.2-0.2,0.7-0.6,0.8c-0.2,0-0.2,0.2-0.1,0.3c0.1,0.1,0.3,0,0.4-0.1C75.7,77.4,75.7,77.1,75.8,76.6z M69.8,76.9
		c-0.4-0.2-0.7-0.3-1.1-0.1c-0.1,0.1-0.2,0.2-0.1,0.3c0,0.1,0.1,0.2,0.2,0.1C69.1,76.9,69.4,77.1,69.8,76.9z M74.4,77.7
		c-0.4-0.1-0.8,0-1.1,0.4C73.7,78.1,74,77.9,74.4,77.7z M72.7,77.7c0.3,0,0.6-0.1,0.6-0.5c0-0.1-0.1-0.2-0.1-0.2
		C72.9,77.2,72.9,77.5,72.7,77.7z M70.4,63.4c0.2,0,0.4,0.2,0.6,0.2c0.4,0.1,0.3-0.2,0.2-0.3C70.9,63,70.6,63.3,70.4,63.4z
		 M69.8,65.1c0.3,0.1,0.5,0.2,0.8,0.3C70.5,64.9,70.2,64.8,69.8,65.1z M67.6,69.7c-0.1,0.3-0.1,0.5,0.1,0.6c0.1,0.1,0.2,0,0.2-0.1
		C68,70,67.9,69.8,67.6,69.7z M64.5,73.8c0,0.3-0.4,0.2-0.4,0.5C64.4,74.4,64.8,74.5,64.5,73.8z M69,66.7c-0.5,0.1-0.5,0.1-0.1,0.7
		C68.9,67.2,69,67,69,66.7z M77.2,50.7c-0.1,0-0.2,0-0.3,0.2c0,0.1,0.1,0.2,0.2,0.2c0.1,0,0.3-0.1,0.3-0.2
		C77.4,50.8,77.3,50.8,77.2,50.7z M77.4,52.5c0-0.1-0.1-0.1-0.2-0.1c-0.1,0-0.2,0-0.2,0.1c0,0.1,0.1,0.1,0.2,0.1
		C77.3,52.6,77.4,52.6,77.4,52.5z M84.4,69.7c-0.1,0.1-0.1,0.1-0.1,0.2c0,0.1,0,0.2,0.1,0.2c0.1,0,0.2,0,0.2-0.1
		C84.5,69.9,84.5,69.8,84.4,69.7z M84.8,51c0,0,0.1,0,0.1-0.1c0,0-0.1-0.1-0.1-0.1c0,0-0.1,0.1-0.1,0.1C84.8,51,84.8,51,84.8,51z
		 M76.4,50.7C76.4,50.7,76.4,50.6,76.4,50.7C76.4,50.6,76.4,50.6,76.4,50.7C76.4,50.7,76.4,50.7,76.4,50.7
		C76.4,50.7,76.4,50.7,76.4,50.7z M73,55.2C73,55.3,73,55.3,73,55.2C73,55.4,73,55.4,73,55.2C73,55.3,73,55.3,73,55.2
		C73,55.2,73,55.2,73,55.2z"/>
	<path class="st2" d="M63.6,29.5c-0.3,0.1-0.3-0.2-0.4-0.3c-0.2-0.4-0.5-0.7-1-0.7l0,0c-0.3-0.5-0.8-0.3-1.2-0.3
		c-0.2,0-0.3,0.1-0.5,0.1c-0.2,0-0.3-0.2-0.3-0.3c-0.1-0.1,0-0.2,0.1-0.2c0.2-0.1,0.7,0,0.7-0.2c0-0.4-0.1-0.9-0.3-1.2
		c-0.1-0.2-0.1-0.4-0.1-0.6c0-0.1,0.2-0.3-0.1-0.4c-0.2-0.1-0.4,0-0.5,0.2c-0.1,0.1-0.3,0.1-0.2,0.4c0.2,0.5-0.4,0.7-0.5,1.1
		c0,0.1-0.3,0-0.2-0.1c0.2-0.5-0.2-0.7-0.6-0.9c0.1,0.5-0.3,0.7-0.4,1.1c-0.1,0.1-0.2,0.5-0.4,0.3c-0.2-0.1-0.5-0.4-0.6-0.6
		c-0.1-0.1,0.1-0.3,0.2-0.2c0.7,0.3,0.6-0.6,1-0.7c0.1,0,0-0.2,0-0.2c-0.4,0-0.5-0.6-0.9-0.5C57,25.1,57,24.9,57,24.7
		c0-0.2,0.1-0.3,0.4-0.3c0.2,0.1,0.3,0.1,0.5,0c-0.4-0.6-1.2-0.5-1.6,0.2c-0.2,0.5-0.4,0.7-0.9,0.3c-0.3-0.3-0.7,0-0.8,0.2
		c-0.4,0.7-1.1,0.4-1.6,0.3c-0.3,0-0.2-0.7-0.2-1.1c0.1-0.9,0.8-1.1,1.4-1.4c0.6-0.4,1.1-0.9,1.7-1.4c0.1-0.1,0.3-0.2,0.1-0.4
		c-0.1-0.1-0.3-0.2-0.4-0.1c-0.3,0.3-0.9,0.2-1,0.7c-0.1,0.4-0.5,0-0.7,0.2c-0.1,0.3,0.6,0.2,0.3,0.6c-0.2-0.1-0.6,0-0.7-0.3
		c-0.1-0.4,0.2-0.7,0.5-1c0.2-0.2,0.5-0.2,0-0.4c-0.1,0,0-0.2,0.1-0.4c0-0.3,0.3-0.6,0.2-1c-0.1-0.2,0.2-0.3,0.3-0.4
		c0.2-0.1,0.5-0.2,0.7-0.3c0.2-0.1,0.6-0.2,0.5,0.3c-0.1,0.2,0,0.4,0.2,0.4c0.2,0,0.4,0,0.5-0.2c0.4-0.5,0.3-0.9-0.4-1.7
		c1,0.2,0.7-0.7,0.9-1.1c0.1-0.1,0-0.3-0.2-0.4c-0.2,0-0.2,0.1-0.3,0.2c-0.6,0.6-0.8,1.4-1.5,1.9c-0.2,0.2-0.4,0.3-0.6,0
		c-0.2-0.3-0.3-0.6,0.1-0.7c0.1,0,0.3-0.1,0.2-0.2c-0.5-0.6,0.2-0.6,0.4-0.8c0.2-0.2,0.8-0.5,0.1-0.8c-0.2-0.1-0.1-0.2,0-0.3
		c0.4-0.5-0.3-0.8-0.1-1.2c-0.4-0.1-0.9-0.6-1.3-0.3c-0.5,0.3-1.1,0.3-1.5,0.7c-0.7,0.7-1.8,1-2.1,2.1c-0.1,0.3-0.3,0-0.5,0.2
		c0.3,0.6,0.4,1-0.5,1c0,0-0.1,0-0.1,0c-0.2,0.9-1.4,0.9-1.7,1.9c-0.1,0.5-0.5,1.1-0.7,1.6c-0.1,0.4-0.6,0.7-1.1,0.9
		c1-2,2.2-3.9,3.7-5.6c0.8-1,1.7-1.9,2.7-2.6c0.7-0.5,1.5-0.9,2.5-0.9c0.8,0.1,1.2,0.7,1.6,1.2c1,1.3,2,2.7,2.6,4.2
		c0.2,0.5,0.5,1,0.4,1.6c-0.3,0-0.5,0.1-0.4,0.4c0,0.1,0.1,0.2,0.2,0.2c0.3-0.1,0.1-0.3,0.1-0.5c0,0,0-0.1,0-0.1
		c0.6,1.1,1.1,2.2,1.5,3.4c0.4,1.2,0.8,2.4,1.1,3.7c0,0.2,0.2,0.3,0.4,0.3C62.9,28,63.4,28.6,63.6,29.5z M57.5,23.4
		c0-0.4,0.2-0.6,0.4-0.8c0.2-0.2,1.1-0.4,0.1-0.8c-0.1,0-0.2-0.2-0.1-0.3c0.3-0.5-0.3-0.9-0.1-1.3c0.1-0.1-0.1-0.4-0.3-0.4
		c-0.3,0-0.3,0.2-0.3,0.4c0,0.5-0.2,0.9-0.5,1.3c-0.1,0.1-0.1,0.2-0.1,0.4c0.2,0.3,0.6,0.4,0.8,0.6C57.7,22.7,57.1,23,57.5,23.4z
		 M59.4,23.1c0.1-0.2,0.6-0.1,0.5-0.5c0-0.1-0.2-0.2-0.3-0.2C59.2,22.5,59.4,22.8,59.4,23.1z M58.6,24.8
		C58.6,24.8,58.6,24.7,58.6,24.8c-0.1-0.1-0.1-0.1-0.2-0.1C58.5,24.8,58.5,24.8,58.6,24.8C58.6,24.9,58.6,24.8,58.6,24.8z"/>
	<path class="st2" d="M78.1,37.4c-0.1,0.1-0.1,0.2-0.2,0.2c-0.8,0.1-1.5,0.4-2.2,0.6c-0.4,0.1-1,0-1.5-0.1c0.7,1.5,1.1,3,1.5,4.5
		c0.1,0.3,0.2,0.4,0.4,0.6c0.1,0.2,0.1,0.4-0.1,0.5c-0.2,0.1-0.3-0.1-0.3-0.3c0-0.1,0-0.2-0.1-0.2c-0.9-0.2-0.4-0.9-0.5-1.4
		c-0.3-0.9-0.2-2-1-2.8c-0.1-0.1-0.1-0.3-0.4-0.2c-0.3,0.2-0.2-0.2-0.2-0.3c0-0.2,0.1-0.4-0.2-0.5c-0.2-0.1-0.3,0.1-0.4,0.3
		c0,0.1-0.1,0.2-0.3,0.2c-0.2,0-0.3-0.2-0.2-0.4c0-0.2,0.1-0.4,0.1-0.6c0.1-0.3,0.2-0.6,0.4-0.8c-0.3-0.1-0.3-0.5-0.4-0.6
		c-0.6-1.1-1.2-2.2-2.3-2.8c-0.3-0.2-0.6-0.4-0.8-0.7c-0.3-0.4-1.6-0.7-1.8-0.3c-0.3,0.7-1.2,1-1.2,1.8c0,0.2,0.1,0.3,0.2,0.4
		c0.2,0.3,0.4,0.6,0.7,0.9c-0.2,0.2-0.5-0.2-0.6,0.2c0,0.3,0.2,0.5,0.5,0.6c0.4,0.1,0.3,0.4,0.2,0.6c-0.1,0.4-0.3,0.2-0.6,0.1
		c-0.4-0.2-0.6-0.5-0.6-1c0-0.9-0.4-1.1-1.3-0.6c0.1,0.2,0.3,0.1,0.4,0.2c0.2,0,0.3,0.2,0.3,0.4c0,0.2-0.1,0.3-0.3,0.3
		c-0.5,0.3-0.7,0.9-0.5,1.4c0.1,0.2,0.2,0.3,0.4,0.3c0.2,0,0.3-0.1,0.3-0.4c0-0.2,0-0.4,0.3-0.4c0.3,0,0.4,0,0.5,0.4
		c0.1,0.3,0.5,0.2,0.7,0.4c0.2,0.2,0.3,0.3,0,0.5c-0.4,0.3,0.2,0.5,0.1,0.8c-0.2,0.3-0.7-0.2-0.8,0.1c-0.2,0.3,0.1,0.6,0.3,0.8
		c0.3,0.2,0.6,0.4,0.6,0.9c0,0.1-0.1,0.2-0.2,0.2c-0.3-0.2-0.7-0.2-0.9-0.6c-0.2-0.4-0.7-0.7-1.3-0.7c-0.2,0-0.3-0.2-0.4-0.1
		c0,0.5,0.5,0.8,0.7,1.2c0.3,0.4,0.4,1,0.9,1.3c0.1,0.1,0.2,0.2,0.1,0.3c-0.4,0.5,0.2,0.5,0.3,0.5c0.7-0.2,0.8,0.3,0.8,0.8
		c0.1,0.7-0.1,1.3-0.3,2.1c-0.4-0.6-1.1-0.6-1.6-0.9c-0.1,0-0.2,0-0.2-0.1c-0.1-0.7-0.6-0.8-1.1-0.7c-0.2,0-0.3,0-0.4-0.2
		c-0.2-0.8-0.6-1.3-1.4-1.6c-0.1,0-0.2-0.1-0.2-0.1c-0.1-0.1-0.2-0.3-0.4-0.2c-0.2,0.2-0.2,0.4-0.1,0.6c0,0.3,0.3,0.3,0.5,0.2
		c0.3-0.1,0.6-0.1,0.7,0.3c0.1,0.2,0,0.5-0.2,0.5c-0.4-0.1-0.7,0-1,0.1c-0.4,0.1-0.9,0-0.5-0.6c0.2-0.3-0.1-0.4-0.3-0.5
		c-0.3-0.1-0.7-0.2-0.8,0.2c-0.2,0.6-0.5,0.5-0.9,0.3c-0.2-0.1-0.5-0.2-0.6,0.2c-0.1,0.4-1,1.7-1.4,2.1c0.4,0.1,0.7,0.2,1.1,0.3
		c0.2,0.1,0.6,0,0.4,0.3c-0.1,0.2-0.4,0.4-0.7,0.2c-0.4-0.3-0.9-0.3-1.3-0.4c-0.5,0-0.9,0.2-1.4,0.5c-0.9,0.6-1.6,1.4-2.4,2.2
		c-0.4,0.4-0.6,0.7-0.8,1.2c-0.1,0.4-0.5,1-0.9,1.4c-0.3,0.3-0.2,1-0.8,1.1c-0.1,0-0.1-0.1-0.1-0.1c0.1-0.5,0.4-1,0.3-1.6
		c-0.1-0.3,0.2-0.8-0.2-0.7c-0.3,0-0.1,0.5-0.2,0.8c-0.4,0.1-0.7-0.2-1.1,0c-0.1-0.4-0.4-0.7-0.3-1.2c0.1-0.3-0.2-0.6-0.5-0.5
		c-0.6,0.1-0.8-0.3-1.2-0.6c0.1-0.2,0.5-0.4,0.3-0.4c-0.6-0.1-0.8-0.7-1.2-0.9c-0.1,0.2,0,0.3,0.1,0.4c0.5,1.2,1.5,2.1,2.1,3.1
		c0.3,0.4,0.4,0.3,0.7,0.1c0.2,0.9,0.6,1.7,1.1,2.5c-0.3,0.7,0,1.4,0,2.1c0,0.4-0.1,0.9-0.8,0.9c0.3-0.5,0.1-0.9-0.1-1.4
		c0.5-0.4,0.3-0.9,0.3-1.4c0-0.2-0.1-0.6-0.4-0.5c-0.2,0.1-0.3,0.4-0.3,0.7c0,0.3,0.4,0.6,0.3,0.9c-1,0.5-2,1.4-3.3,0.7
		c-0.3-0.3-0.6-0.5-0.8-1c-0.2,1.3,0.1,2.3,0.1,3.4c0,0.2,0.3,0.6-0.1,0.7c-0.2,0-0.5-0.2-0.6-0.4c-0.4-0.8-1.1-1.3-1.6-2
		c-0.2-0.3-0.7-0.1-0.8-0.6c0.2,0,0.4,0.1,0.4,0c0.1-0.1,0-0.3-0.1-0.5c-0.3-0.7-0.7-1.3-0.9-2c0.3,0,0.7,0.1,0.9,0.3
		c0.3,0.2,0.5,0.4,0.8,0.2c0.3-0.1,0.1-0.5,0.2-0.8c-0.3,0.2-0.4,0.7-0.8,0.1c-0.1-0.2-0.7-0.1-0.9-0.4c-0.1-0.1-0.1-0.2-0.2-0.2
		c-0.9-0.1-0.8-0.9-0.9-1.5c-0.1-0.4,0.1-0.8-0.6-0.8c-0.3,0-0.6-0.4-0.6-0.9c0-0.2,0-0.4-0.3-0.5c-0.4-0.1-0.3,0.2-0.4,0.3
		c-0.4,0.4-0.5-0.2-0.8-0.1c0.2-0.4,1-0.3,0.6-0.9l0,0c0.2-0.2,0.1-0.7-0.2-0.9c-0.1-0.1-0.2-0.1-0.2-0.2c0-0.1-0.1-0.2-0.1-0.4
		c-0.1,0.3-0.2,0.7-0.6,0.4c-0.3-0.3-0.4-0.5-0.1-0.8c0.2-0.2,0.4-0.6-0.2-0.7c-0.2,0-0.2-0.2-0.2-0.4c0.1-0.2,0-0.5,0.4-0.4
		c0.3,0.1,0.3-0.2,0.3-0.3c-0.1-0.3-0.2,0-0.2,0c-0.3,0-0.1-0.4-0.4-0.5c-0.2,0.4-0.4,0.7-0.9,0.4c-0.1-0.1-0.4,0.1-0.6,0
		c-0.3,0.7-0.9,0.4-1.3,0.5c-0.1,0-0.2,0.2-0.4,0c-0.1-0.2,0-0.3,0-0.5c0.1-0.3,0.2-0.1,0.4-0.1c0.2,0,0.3,0.1,0.5,0
		c0.1-0.1,0.2-0.2,0.1-0.3c0-0.1-0.1-0.1-0.2-0.1c0,0-0.1,0.1-0.1,0.1c-0.5,0.1-0.3-0.4-0.5-0.5c-0.2,0.3-0.5,0.3-0.7,0.1
		c-0.2-0.2,0.3-0.4,0.1-0.7c-0.1-0.1,0.1-0.1,0.2-0.1c0.1,0,0.3,0.2,0.3-0.1c0-0.1,0-0.5-0.2-0.4c-0.2,0-0.3-0.3-0.5,0
		c-0.4,0.5-0.9,0.5-1.3,0c-0.2-0.3-0.5-0.6-0.9-0.9c0,0.3,0.4,0.7-0.2,0.8c-0.3,0,0,0.4,0,0.5c0.1,0.2,0.3,0.3,0.5,0.2
		c0.6-0.3,1,0,1.5,0.3c-0.4,0.1-0.7,0.3-1,0.1c-0.3-0.1-0.5,0-0.4,0.4l0,0c-0.3-0.1-0.7,0.3-0.9-0.1l0,0c-0.1-0.2,0.1-0.4,0.2-0.5
		c-0.1-0.2-1.1,0.2-0.4-0.6c0.2-0.3-0.4-0.8-0.6-1.3c-0.2-0.5-0.9-0.8-0.6-1.5c0.1-0.2-0.1-0.4-0.2-0.6c-0.2-0.3-0.5-0.6-0.6-1
		c-0.1-0.3-0.4-0.3-0.7-0.2l0,0c0-0.1,0-0.3-0.2-0.3c-0.6,0.1-1.1-0.6-1.7-0.1c-0.1,0.1-0.1-0.1-0.2-0.1c-0.2-0.2-0.5-0.6-0.8-0.2
		c-0.1,0.1-0.2,0-0.3-0.1c-0.1-0.1-0.2-0.1-0.3-0.2c-0.4-0.2-0.4,0.4-0.5,0.3c-0.2-0.1-0.3-0.5-0.6-0.1c-0.1,0.2-0.3,0-0.3,0
		c-0.3-0.4-0.6-0.2-0.9,0c-0.2,0.2-0.3,0.3-0.4-0.1c-0.1-0.2-0.3-0.2-0.4-0.1c-0.4,0.3-0.7,0.5-1.3,0.4c-0.3,0-0.7,0.4-1.1,0.6
		c-0.4,0.2-0.7,0.3-0.6,0.9c0,0.2-0.4,0.5,0,0.8c0,0,0,0,0,0c-1,0.2,0,0.7-0.1,1c-0.2,0.4-0.1,0.9-0.1,1.3c0,0.2,0.1,0.5,0.2,0.6
		c0.7,0.3,0.1,0.4-0.1,0.6c-0.3-0.1-0.4-0.4-0.4-0.6c-0.3-1-0.2-2-0.3-3.1c0-0.5,0.2-1,0.6-1.4c1.7-1.4,3.6-1.9,5.8-1.6
		c1.4,0.2,2.8,0.6,4.2,1c0.5,0.1,0.5,0.1,0.5-0.4c-0.1-0.6-0.4-1.2-0.6-1.8c-0.3-1-0.2-1.3,0.7-1.8c0.9-0.5,1.7-1.2,2.6-1.7
		c0.8-0.4,1.8-0.6,2.7-0.7c1.7-0.2,3.4,0.3,5,0.9c0.5,0.2,1.2,0.1,1.6,0.4c0.6,0.4,1.3,0.6,1.9,1c0.3,0.2,0.6,0.3,0.9,0.2
		c0,0,0,0.1,0,0.1c0,0.2,0.2,0.3,0.3,0.4c0,0,0.1-0.2,0.2-0.2c0.2-0.3-0.1-0.3-0.2-0.4c-0.2-0.1-0.1-0.3,0-0.4
		c0.1-0.3-0.1-0.3-0.3-0.3c0-2,0.4-4,1.2-5.9c0,0,0.1,0,0.1-0.1c0.1,0,0.2,0,0.3,0l0,0c0,0.3,0.5,0.4,0.4,0.7
		c-0.1,0.6,0.3,0.7,0.8,0.8c0.5,0,0.7,0.4,0.9,0.7c0.1,0.1,0.1,0.3,0,0.4c-0.1,0.1-0.2,0.1-0.4,0c-0.4-0.2-0.7-0.3-1.1-0.5
		c-0.2-0.1-0.3-0.4-0.5-0.2c-0.2,0.2,0.1,0.4,0.2,0.5c0.1,0.1,0.2,0.2,0,0.4c-0.1,0.1-0.2,0.1-0.3,0c-0.1-0.4-0.3-0.1-0.3,0
		c-0.2,0.2-0.1,0.3,0.1,0.4c0.3,0.2,0.7,0.3,1,0.6c0-0.1,0.1-0.2,0.1-0.3c-0.1-0.2-0.4-0.5-0.2-0.7c0.3-0.3,0.6-0.1,0.9,0.1
		c0.1,0.1,0.2,0.1,0.3,0.1c0.6,0.3,0.9,0.8,1.2,1.4c0.2,0.4-0.3,0.6-0.3,0.9c0,0,0,0.1,0.1,0.1c0.1,0,0.2,0,0.2-0.1
		c0.1-0.1,0.1-0.2,0.2-0.3c0.1-0.2,0.3-0.2,0.4,0c0.5,0.6,1,1.3,1.7,1.8c0.2,0.1,0.5,0.3,0.4,0.6c-0.2,0.5,0.1,0.5,0.6,0.5
		c-0.4,0.2-0.7,0.2-0.9,0.4c-0.4,0.4-0.7,0-0.8-0.2c-0.3-0.7-1-0.7-1.5-1.2c0.1,0.6,0.1,0.9-0.1,1.1c0-0.7-0.7-0.8-1-1.2
		c-0.1-0.4-0.1-0.4-0.5-0.3c-0.5,0.2-1.1,0.6-1.6-0.1C44.4,32,44.2,32,44,32.1c-0.3,0.1,0.1,0.2,0.1,0.4c0,0.2,0.1,0.5,0.2,0.7
		c0.1,0.3-0.1,0.2-0.3,0.3c0,0,0,0,0,0c0,0,0,0,0,0c0.4,0.4,0.7,0.7,1.1,1.1c0,0-0.1,0.2,0.1,0.1c0,0-0.1-0.1-0.1-0.1
		c0-0.1,0-0.2,0.1-0.2c0.5,0.3,0.8,0.2,1-0.4c0-0.1,0.3-0.1,0.3-0.4c-0.5,0.2-1,0.2-1.5,0c-0.4-0.1-0.1-0.5-0.3-0.7
		c0.1-0.1,0.2-0.2,0.3-0.1c0.6,0.5,1.1,0.2,1.6-0.2c0,0.6,0.5,0.9,0.7,1.4c0,0.1,0.4,0.3,0.1,0.4c-0.2,0.1-0.4,0.1-0.5-0.1
		c-0.1-0.2-0.2-0.3-0.4-0.2c-0.2,0.1-0.3,0.2-0.3,0.4c0,0.3,0.3,0.2,0.4,0.2c0.9-0.1,1.4,0.2,1.7,1.1c0.1,0.3,0.1,0.8,0.6,1
		c0.1,0,0,0.2-0.1,0.3c-0.2,0.6-0.9,0.4-1.2,0.8c0.7,0.3,1.7,2.2,1.5,2.9c-0.1,0.4,0,0.8,0.1,1.1c0.1,0.4,0.2,0.7,0.2,1.1l0,0
		c-0.2-0.1-0.4-0.3-0.6,0c-0.2,0.3,0.2,0.2,0.3,0.3c0,0,0,0.2,0,0.2c-0.7,0.1,0.3,1-0.5,1c0,0.1,0,0.1,0,0.2
		c0.4-0.1,0.2,0.2,0.2,0.4c0.2,0.3,0.1,0.7,0.5,0.9l0,0c0,0.2,0.1,0.3,0.3,0.4c0.5,0.2,0.6,0.8,0.3,1.1c-0.3,0.3-0.1,0.6,0,0.9
		c0,0.1,0.2,0.1,0.3,0.1c0.1,0,0.1-0.1,0.1-0.1c0-0.2-0.4-0.2-0.3-0.5c0.1-0.3,0.3,0.2,0.5,0c0,0,0-0.1,0-0.1c0.1-0.5,0.1-1.1,0-1.6
		c0-0.1-0.1-0.1-0.2-0.2c-0.1-0.2-0.1-0.3,0.2-0.2c0.2,0.1,0.2,0.3,0.2,0.5c0,0.5,0,1,0.1,1.5c0.1,0.5,0.1,1.2,0.8,1.7
		c-0.3-0.7,0-1.3-0.3-1.9c-0.2-0.4,0.1-0.7-0.1-1.1c-0.1-0.1-0.1-0.3,0.1-0.3c0.9-0.1,0.9-0.6,0.6-1.2C52,44.5,52,44.3,52,44.1
		c0.3,0.1,0.4,0.4,0.7,0.3c0.1,0,0.1-0.4,0.4-0.2c0.2,0.2-0.1,0.3-0.2,0.5c-0.1,0.1-0.1,0.3-0.2,0.5c0,0,0,0.1-0.1,0.1
		c0,0,0.1,0,0.1-0.1c0.3,0,0.5-0.3,0.7,0.3c0.2,1.1,0.5,1.1,1.4,0.3c0.4-0.4,0.9-0.6,1.4-0.6c0.4,0,0.6-0.2,0.7-0.5
		c0.3-0.5,0.8-1,0.9-1.6c0.1-0.5,0.7-0.6,0.7-1.1c0.7-0.1,0.7-0.6,0.7-1.1c0.2-0.9,0.8-1.5,1.6-1.9c0,0.1,0,0.2,0,0.3
		c0,0.2,0.1,0.3,0.3,0.3c0.1,0,0.2,0,0.2-0.1c0-0.2-0.1-0.3-0.2-0.3c-0.1,0-0.2,0-0.3-0.1c-0.1-0.2,0-0.4,0.1-0.6
		c1-1.6,2-3.1,3.5-4.4c0.3-0.3,1.2-0.5,0.5-1.3c-0.1-0.1,0-0.3,0.2-0.4c0.4,0.7,0.4,0.7,1.2,0.2c0.4-0.2,0.7-0.6,1.1-0.8
		c1.3-0.7,1.7-0.2,2.8,0.6c1.6,1.2,2.5,2.9,3.3,4.7c0.3,0.8,1,0.9,1.8,0.7C76.2,37.4,77.1,37.1,78.1,37.4z M47.8,40.4
		c0,0-0.1-0.1-0.1-0.1c0.2-0.2,0.3-0.3,0.6-0.2c0,0.4,0,0.7,0,1.1c0,0.1,0.2,0.1,0.2,0.1c0.1-0.2,0.7-0.2,0.2-0.6
		c-0.1-0.1-0.2-0.2-0.1-0.3c0.3-0.4,0.1-0.4-0.3-0.5c-0.2,0-0.4,0-0.6,0c-0.1,0-0.2-0.3-0.2-0.1c0,0.1-0.4,0.5,0.2,0.5
		C47.7,40.3,47.7,40.4,47.8,40.4C47.8,40.4,47.8,40.5,47.8,40.4C47.8,40.5,47.8,40.5,47.8,40.4C47.8,40.5,47.8,40.4,47.8,40.4z
		 M47.1,40.8c0-0.1,0-0.1,0-0.2c0-0.1,0.2-0.2,0-0.3c0,0-0.1,0-0.1,0c-0.1,0.1,0,0.2,0,0.3C47,40.7,47,40.8,47.1,40.8
		c-0.1,0.4,0.2,0.3,0.4,0.3c0.2,0,0.2-0.2,0.2-0.3c-0.1-0.3-0.3,0-0.4,0C47.2,40.8,47.2,40.8,47.1,40.8z M44.7,53.7
		c0-0.5-0.5-0.3-0.8-0.5c-0.2-0.1-0.2,0.2-0.2,0.3c0,0-0.1,0-0.1,0c-0.2,0-0.4-0.2-0.5,0c-0.2,0.2,0,0.4,0.1,0.5
		c0.2,0.3,0.4,0.7,0.5,1c0.1,0.3,0.1,0.8,0.6,0.6c0.3-0.1-0.2-0.5-0.2-0.8c0.3,0,0.3-0.2,0.2-0.4c0-0.4,0.1-0.5,0.4-0.7
		c0.8,0,0.5-0.4,0.3-0.9C45,53.3,45.1,53.6,44.7,53.7L44.7,53.7z M46.8,46.9c0.1,0,0.2-0.1,0.2-0.1c0.2-0.1,0.3,0.5,0.6,0.2
		c0.2-0.2-0.1-0.5-0.2-0.8c-0.1-0.3-0.3-0.4-0.3-0.8c-0.2,0-0.3-0.7-0.6-0.2c-0.2,0-0.4-0.1-0.5,0.2c0.3,0.1,0.4,0,0.5-0.2
		C46.7,45.8,46.6,46.4,46.8,46.9C46.8,46.9,46.8,46.9,46.8,46.9C46.8,47,46.8,47,46.8,46.9C46.8,47,46.8,47,46.8,46.9z M34.2,36
		L34.2,36c0-0.3,0.4-0.6,0.1-1c-0.3-0.3-0.2-0.5,0.5-0.5c-0.6-0.2-1.2-1-1.4-1.5c-0.3,0.4-0.5,0.4-0.6-0.1c-0.1-0.5-0.7-0.8-1-0.8
		c-0.4-0.1-1-0.1-1.3,0.4c0.2,0.1,0.6,0.1,0.3,0.6c-0.2,0.5-0.5,0.3-0.7,0.2c-0.3-0.1-0.7-0.3-0.6-0.8c0-0.1-0.1-0.3-0.2-0.3
		c-0.2-0.1-0.1,0.2-0.2,0.2c-0.1,0.1-0.2,0.1-0.3,0.2c-0.2,0.2-0.8,0.4-0.1,0.8c0.2,0.1,0.2,0.3,0.3,0.5c0.4,0.7,0.8,1.3,1.7,1.3
		c0.5,0,0.8,0.6,0.4,1c0.4-0.2,0.6,0.2,0.9,0c0.4-0.2,0.6-0.2,1,0.1c0.3,0.2,0.6,0.3,0.8-0.2c0.1,0.3,0.1,0.5,0.3,0.6
		c0.3,0.3,0.5,0.2,0.7-0.1c0.2-0.3,0-0.5-0.2-0.6C34.6,36.1,34.4,36,34.2,36z M36.9,37.6c0.5-0.2,1-0.4,0.4-0.9
		c-0.2-0.1-0.1-0.3,0-0.5c0.2-0.5-0.1-0.8-0.5-0.8c-0.3-0.1-0.6,0-0.8-0.1c-0.8-0.3-0.5,0.4-0.4,0.5c0.2,0.3,0.1,0.5-0.1,0.7
		c-0.4,0.6-0.2,0.9,0.5,1.1c0.5,0.1,1,0.3,1.2,0.9C37.3,38.1,37.4,37.8,36.9,37.6z M62.5,41.7c0.4-0.1,0.5-0.3,0.4-0.6
		c-0.1-0.4,0-0.5,0.4-0.7c0.5-0.2,1-0.5,0.6-1.3c-0.2-0.3-0.2-0.7-0.1-1.1c0-0.1,0.1-0.3-0.1-0.4c-0.2-0.1-0.3,0.1-0.4,0.2
		c-0.2,0.4-0.3,0.9-0.4,1.4c-0.1,0.4-0.3,0.5-0.6,0.5c-0.1,0-0.4-0.1-0.4,0.1c0,0.2,0,0.4,0.2,0.5C62.5,40.6,62.7,41,62.5,41.7z
		 M39.9,46.5c-0.1,0.2-0.2,0.2-0.2,0.3c-0.2,0.4-0.4-0.1-0.6,0.1c-0.1,0.1-0.2-0.1-0.2-0.3c0.1-0.1,0.3-0.3,0-0.3
		c-0.2,0-0.3,0.1-0.3,0.3c-0.1,0.3,0.1,0.4,0.4,0.5c0.4,0.1,0.9,0.1,1.3,0.5c0,0,0.2,0.4,0.4,0c0.1-0.2,0.2-0.5-0.1-0.5
		C40.1,47.1,40.1,46.8,39.9,46.5z M32.2,39.9c0.4,0.7,0.5,0.7,1.7,1.2c0.1-0.4-0.3-0.6-0.4-0.9C33,40.5,32.7,40.1,32.2,39.9z
		 M41.2,46.8c0,0.2,0.6,0,0.3,0.5c-0.2,0.2,0.6,0.7,0.9,0.6c0.2-0.1,0.1-0.3,0.1-0.4c0.1-0.1,0-0.2-0.1-0.2
		c-0.4,0.3-0.3-0.2-0.4-0.3C41.8,47,41.7,46.5,41.2,46.8z M48.5,39.6c-0.2-0.4-0.7-0.5-0.5-1.1c0.1-0.1-0.2-0.2-0.4-0.1
		c-0.2,0.1-0.3,0.2-0.1,0.3c0.1,0.1,0.2,0.1,0,0.2c-0.3,0.2-0.2,0.3,0.1,0.4C47.9,39.4,48.2,39.5,48.5,39.6z M46.6,53.9
		c0.2,0,0.4,0.3,0.5,0.1c0.1-0.2,0.1-0.5,0.1-0.8c0-0.2-0.3-0.2-0.4-0.1c-0.1,0-0.1,0.1-0.1,0.3C46.9,53.6,46.9,53.6,46.6,53.9z
		 M47.5,36.5c-0.2-0.2-0.2-0.6-0.6-0.6c-0.1,0-0.2,0.1-0.2,0.2c0.2,0.2,0.1,0.7,0.5,0.7C47.4,36.8,47.5,36.7,47.5,36.5z M47.5,50.2
		c0,0.3-0.4,0.6-0.1,0.9c0.1,0.1,0.3,0,0.4-0.1C48.1,50.6,47.6,50.5,47.5,50.2z M48.8,32.5c0,0.2-0.2,0.5,0.1,0.6
		c0.2,0.1,0.5,0,0.6-0.2C49.5,32.5,49,32.8,48.8,32.5z M60.6,40.6c-0.1-0.3,0.2-0.5-0.2-0.7c-0.1,0-0.3,0-0.3,0.2
		C60.1,40.4,60.2,40.6,60.6,40.6z M41.2,41.2c0.2,0.3,0.6,0.2,0.8,0.5c0.1-0.2,0.3-0.4,0.1-0.7C41.9,41.3,41.5,41.2,41.2,41.2z
		 M45.9,30.8c-0.3,0.1-0.2,0.3-0.2,0.5c0,0.2-0.1,0.4,0.2,0.4c0.2,0,0.3-0.2,0.2-0.3C46,31.3,46.2,31,45.9,30.8z M49.5,50.3
		c0.3-0.7,0.2-1-0.5-1C49.4,49.5,49.4,49.8,49.5,50.3z M45.9,38.6c-0.2,0-0.6-0.2-0.7,0.2c0,0.1,0,0.2,0.1,0.2
		C45.6,39.1,45.6,38.7,45.9,38.6z M46,36.2c0,0.1-0.1,0.3,0.1,0.3c0.2,0,0.2-0.2,0.2-0.3c0-0.1,0-0.3-0.2-0.3
		C45.9,35.9,45.9,36,46,36.2z M44.2,27.3c0-0.1-0.1-0.3-0.2-0.2c-0.1,0-0.1,0.1-0.1,0.2c0,0.1,0.1,0.3,0.2,0.3
		C44.2,27.5,44.2,27.4,44.2,27.3z M43.1,47.7c0-0.1-0.1-0.2-0.2-0.2c0,0-0.1,0.1-0.1,0.1c0,0.1,0.1,0.2,0.2,0.2
		C43,47.9,43.1,47.8,43.1,47.7z M46.2,43c-0.1,0-0.1,0-0.1,0.1c0,0.1,0.1,0.2,0.1,0.2c0.1,0,0.2,0,0.2-0.1
		C46.4,43.1,46.3,43.1,46.2,43z M43.6,28.3c0,0.1-0.1,0.1-0.1,0.2c0,0.1,0.1,0.1,0.2,0.1c0.1,0,0.2,0,0.2-0.1
		C43.8,28.5,43.7,28.4,43.6,28.3z M45.7,52.9c0-0.1-0.1-0.2-0.2-0.1c-0.1,0-0.1,0.1-0.1,0.1c0,0.1,0.1,0.2,0.1,0.2
		C45.7,53.1,45.7,53,45.7,52.9z M47.1,43.2c-0.2-0.1-0.2-0.1-0.3-0.1c0,0-0.1,0.1-0.1,0.1c0,0,0.1,0.1,0.1,0.1
		C46.9,43.3,46.9,43.3,47.1,43.2z M46.2,53.1c0,0-0.1,0.1,0,0.1c0,0,0.1,0,0.1,0.1c0,0,0.1-0.1,0-0.1C46.3,53.1,46.3,53.1,46.2,53.1
		z M35.2,43.4c0,0,0-0.1-0.1-0.1c0,0-0.1,0-0.1,0c0,0,0,0.1,0.1,0.1C35.1,43.5,35.1,43.4,35.2,43.4z M46.1,42.4c0,0,0-0.1,0-0.1
		C46.1,42.3,46,42.4,46.1,42.4C46,42.4,46,42.5,46.1,42.4C46.1,42.5,46.1,42.4,46.1,42.4z M48.5,43.1C48.5,43.1,48.5,43,48.5,43.1
		c-0.1,0-0.1,0-0.1,0c0,0,0,0,0,0C48.4,43.1,48.5,43.1,48.5,43.1z M53,45.4L53,45.4L53,45.4L53,45.4z"/>
	<path class="st2" d="M23.3,59.4c-0.1,0.4-0.5,0.4-0.6,0.8c-0.1,0.2-0.4,0.2-0.3,0.5c0.1,0.3,0.5,0.4,0.6,0.7
		c0.3-0.3,0.3,0.1,0.4,0.2c0.1,0.2,0.2,0.4,0.4,0.4c0.3,0.1,0.4,0.2,0.3,0.5c-0.2,0.5,0.1,0.6,0.5,0.4c0.4-0.1,0.7-0.3,1.1,0
		c-0.4,0.4-0.9,0.9-0.2,1.5c0.1,0.1,0,0.3,0,0.4l0,0c-0.4,0-0.8-0.2-1.2,0c-0.2-0.1-0.4-0.3-0.5-0.4c-0.4-0.6-0.8-1.2-1.3-1.8
		c0.3,0,0.7,0,1-0.2c-0.4-0.2-0.7-0.8-1.2-0.4c-0.5-0.3-0.8-0.8-1-1.3c-0.3-0.8-0.7-1.6-0.8-2.5c0.3,0,0.7,0,0.9,0.2
		c0.1,0.1,0.3,0.2,0.3,0.3c0.1,0.5,0.4,0.7,1,0.7c-0.1-0.2-0.3-0.2-0.4-0.4C22.6,58.9,22.9,59.6,23.3,59.4L23.3,59.4z M24.5,64.2
		C24.4,64,24.2,64,24,63.9c-0.1-0.1-0.3,0.1-0.3,0.2c0,0.3,0.3,0.3,0.5,0.3C24.4,64.5,24.5,64.4,24.5,64.2z M23.1,61.8
		c0,0,0-0.1-0.1-0.1c0,0-0.1,0-0.1,0c0,0,0,0.1,0.1,0.1C23,61.8,23.1,61.8,23.1,61.8z"/>
	<path class="st2" d="M27.1,67.8c0.4,0,0.8,0.1,1.1-0.3c-0.3-0.1-0.7-0.3-1-0.5c-0.1-0.1-0.4,0-0.3-0.2c0-0.1,0.1-0.3,0.3-0.4
		c0.1-0.1,0.3,0,0.4,0.1c0.1,0.1,0.1,0.2,0.2,0.2c0.4,0.5,0.6,0.5,1-0.1c0.1-0.1,0.1-0.4,0.4-0.3c0.2,0.1,0.1,0.3,0.1,0.5
		c-0.1,0.3,0.2,0.6,0.2,0.9c0,0.6-0.5,0.2-0.7,0.2c-0.3,0-0.6,0.2-0.9,0.1c-0.1,0-0.2,0-0.3,0C27.4,68.1,27.2,67.9,27.1,67.8z"/>
	<path class="st2" d="M25.4,64.9c0.6-0.2,0.5,0.7,0.9,0.7c0,0,0,0,0,0.1c0.2,0.2,0,0.7-0.2,0.8c-0.1,0.1-0.1,0.2-0.2,0.3
		c-0.3-0.1-0.5-0.4-0.7-0.6c0.1,0,0.2,0,0.3,0c0.2,0,0.4-0.1,0.4-0.3c0-0.1,0-0.2-0.1-0.2c-0.2-0.1-0.3,0-0.5,0.1
		c-0.1,0.1-0.2,0.1-0.3,0.1c-0.3,0-0.4-0.2-0.5-0.4C24.9,65.2,25.5,65.5,25.4,64.9L25.4,64.9z"/>
	<path class="st11" d="M25.4,64.9c0.2,0.7-0.5,0.4-0.7,0.6c-0.2-0.2-0.5-0.2-0.6-0.5C24.6,64.7,25,64.8,25.4,64.9z"/>
	<path class="st11" d="M22.1,62.1c0.6-0.4,0.9,0.1,1.2,0.4c-0.3,0.2-0.6,0.2-1,0.2c0-0.1-0.1-0.2-0.1-0.3c0,0-0.1-0.1-0.1-0.1
		C22.1,62.2,22.1,62.2,22.1,62.1z"/>
	<path class="st11" d="M25.2,65.8c0.1,0,0.2-0.1,0.3-0.1c0.2-0.1,0.3-0.2,0.5-0.1c0.1,0,0.1,0.2,0.1,0.2c-0.1,0.2-0.2,0.3-0.4,0.3
		c-0.1,0-0.2,0-0.3,0C25.2,66.1,25.2,66,25.2,65.8z"/>
	<path class="st2" d="M22.1,62.3c0,0,0.1,0.1,0.1,0.1C22.2,62.3,22.2,62.3,22.1,62.3z"/>
	<path class="st2" d="M20.1,58.3C20.1,58.3,20.2,58.3,20.1,58.3C20.1,58.4,20.1,58.3,20.1,58.3z"/>
	<path class="st2" d="M26.5,67.2c0.1,0,0.1,0.1,0.2,0.1C26.6,67.3,26.5,67.2,26.5,67.2z"/>
	<path class="st2" d="M26.7,67.3c0,0,0.1,0.1,0.1,0.1C26.7,67.5,26.7,67.4,26.7,67.3z"/>
	<path class="st2" d="M34.5,60.5c0,0.3,0,0.6,0.5,0.6c0.5-0.1,0.5,0.5,0.4,0.6c-0.6,0.7,0.1,0.8,0.4,1l0,0c-0.4,0.5-1,0.6-1.5,0.9
		c0,0,0,0-0.1,0.1c-0.6,0-1.1,0-1.6,0c-0.3,0-0.3,0.4-0.3,0.5c-0.1,0.3,0.2,0.1,0.3,0.2l0,0c0.1,0.3,0.6,0.4,0.2,0.8
		c0.1,0.1,0.3,0.2,0.4,0.1c0.2-0.1,0.4-0.1,0.6,0c-0.7,0.3-0.9,0.3-1.4-0.2c-0.1-0.1-0.3-0.1-0.4-0.2c-0.1-0.1-0.2-0.1-0.4,0
		c0,0-0.1,0.1-0.1,0.2c0,0.2,0.2,0.1,0.3,0.1c0.1,0,0.1,0.1,0.2,0.1c-0.4,0.3-0.8,0.3-1.1,0.7c-0.1,0.1-0.1,0.1-0.3,0
		c-0.3-0.3-0.7-0.2-1-0.2c-0.3,0-0.8,0.3-0.7-0.4c-0.3,0-0.3-0.6-0.7-0.4c-0.7,0.3-1.2-0.1-1.5-0.6c-0.3-0.3-0.4-0.4-0.8-0.2
		c-0.2,0.2-0.4,0.2-0.7,0c-0.1-0.1-0.3-0.1-0.3-0.3c0-0.2,0.2-0.3,0.3-0.3c0.5,0,0.9-0.3,1.4,0.1c0.3,0.2,0.8,0.4,1.1-0.2
		c0.1-0.2,0.2,0,0.4-0.1c0.7,0,1.4-0.2,1.9-0.7c0.1-0.1,0.2-0.2,0.4-0.1c0.9,0.5,1.6-0.5,2.4-0.5c0.2,0,0.1-0.2,0-0.4
		c-0.3-0.3-0.7-0.7-0.9,0.2c-0.2-0.5-0.2-1-0.6-1.2c0.3,0,0.5-0.6,0.9,0c0.1,0.2,0.6,0.4,0.8,0.7c0.3,0.4,0.5,0.5,0.8,0.2
		c0.3-0.3,0.2,0,0.2,0.1c0.1,0.2,0.4,0.2,0.5,0.2c0.1,0,0.2,0,0.2-0.2c-0.1-0.3-0.9-0.6-1.2-0.5c-0.1,0-0.2,0-0.2,0
		c-0.1-0.3,0-0.7-0.6-0.7c-0.1,0,0.1-0.6,0.2-0.9c0-0.1-0.1-0.2,0.1-0.3C33.3,60.5,33.9,60.4,34.5,60.5L34.5,60.5z M33.3,60.4
		L33.3,60.4L33.3,60.4L33.3,60.4z"/>
	<path class="st2" d="M33.1,66.6c0.3,0.2,0.8-0.2,1.1,0.2c0.2,0.2,0.3,0.4,0.2,0.6c-0.1,0.3-0.2,0-0.4-0.1c-0.2-0.1-0.2,0.1-0.2,0.2
		c-0.2,0.3-0.5,0.5-0.6,0.8c0,0,0.1,0,0.1,0c0.2,0,0.4,0.1,0.4,0.4c0,0.1-0.1,0.1-0.1,0.1c-0.2,0-0.5,0-0.6-0.2
		c-0.3-0.4-0.6-0.6-0.9,0c-0.1,0.1-0.2,0.1-0.4,0.1c-0.2-0.1-0.1-0.3,0-0.3c0.3-0.5,0.7-0.9,0.7-1.6C32.4,66.3,32.8,66.6,33.1,66.6z
		"/>
	<path class="st2" d="M26.6,60.8c-0.4,0.2-0.8,0.4-1.1,0.6c-0.2,0.2-0.5,0.2-0.7,0.1c-0.2-0.2,0.1-0.5,0.1-0.7
		c0.1-0.3,0.3-0.4,0.5-0.3C25.9,60.6,26.2,60.7,26.6,60.8z"/>
	<path class="st2" d="M28.1,60.3c0.3-0.6,0.6,0.2,0.9-0.1c-0.2-0.4-0.6-0.5-1-0.4c0.3-0.5,0.7-0.5,1.1-0.3c0.4,0.2,0,0.6,0.3,0.8
		C29,61,28.6,60.5,28.1,60.3z"/>
	<path class="st2" d="M28.5,61.4c0.2,0,0.4,0,0.5-0.1c0.1,0,0.2,0,0.3,0c0.1,0.7,0.6,0.4,1,0.5c0.1,0,0.3,0.1,0.3,0.3
		c0,0.2-0.2,0.1-0.3,0.1C29.5,62.5,29.1,61.8,28.5,61.4L28.5,61.4z"/>
	<path class="st2" d="M27.8,59.1c-0.4,0-0.4,0-0.7,0.3c0,0-0.1,0-0.2,0c-0.1,0-0.2-0.1-0.2-0.2c0-0.2,0.1-0.3,0.2-0.5
		c-0.3-0.2-0.4,0.1-0.7,0.1c-0.1,0-0.2,0.3-0.4,0.2c-0.1,0-0.1-0.2-0.1-0.2c0.3,0.1,0.2-0.2,0.5-0.3C27,58.3,27.3,58.9,27.8,59.1z"
		/>
	<path class="st2" d="M23.1,60.2c0.4,0.1,0.8,0.2,1.2,0.3c0.1,0,0.2,0.1,0.2,0.2c0,0.2-0.2,0.1-0.3,0.1c-0.5,0-0.8-0.3-1.2-0.4
		C23.1,60.4,23.1,60.3,23.1,60.2z"/>
	<path class="st2" d="M27.7,60.8c0.2,0,0.2,0.1,0.3,0.3c0.1,0.2,0.1,0.3-0.1,0.3c-0.2,0-0.3,0.2-0.4,0.2c-0.2,0.1-0.3,0-0.3-0.2
		c-0.1-0.2,0-0.2,0.1-0.2C27.7,61.3,27.4,60.6,27.7,60.8z"/>
	<path class="st2" d="M30.6,60.6c-0.2,0.3-0.5,0.3-0.5,0.6c0,0.3-0.1,0.1-0.2,0c-0.1,0-0.2,0-0.1-0.2C29.9,60.6,30.1,60.4,30.6,60.6
		z"/>
	<path class="st2" d="M32.2,66.7c-0.4,0.3-0.6,0.4-1,0.4c-0.1,0-0.1-0.2,0-0.3C31.5,66.5,31.8,66.7,32.2,66.7z"/>
	<path class="st2" d="M31.1,59.5c-0.3-0.2-0.5,0.1-0.7-0.1c0,0,0-0.1,0.1-0.2C30.7,59.1,30.9,59,31.1,59.5z"/>
	<path class="st2" d="M23.3,59.4c0-0.1-0.1-0.3,0.2-0.4c0.1,0,0.2,0.1,0.2,0.2C23.7,59.4,23.5,59.4,23.3,59.4
		C23.3,59.4,23.3,59.4,23.3,59.4z"/>
	<path class="st2" d="M33.9,59.9c0,0.1-0.1,0.1-0.1,0.2c-0.1,0.1-0.1,0-0.1-0.1c0-0.1,0-0.1,0.1-0.2C33.8,59.9,33.8,59.9,33.9,59.9z
		"/>
	<path class="st2" d="M26.3,67c0-0.1,0-0.2,0.1-0.2c0,0,0,0,0,0C26.5,67,26.4,66.9,26.3,67C26.3,66.9,26.3,67,26.3,67z"/>
	<path class="st2" d="M28,61.7C28,61.7,27.9,61.7,28,61.7C27.9,61.8,27.9,61.7,28,61.7C27.9,61.7,27.9,61.7,28,61.7
		C27.9,61.7,28,61.7,28,61.7z"/>
	<path class="st2" d="M28.5,61.4C28.5,61.4,28.5,61.4,28.5,61.4C28.5,61.4,28.5,61.4,28.5,61.4C28.5,61.4,28.5,61.4,28.5,61.4
		C28.5,61.4,28.5,61.4,28.5,61.4z"/>
	<path class="st2" d="M32.7,64.5C32.7,64.4,32.7,64.4,32.7,64.5C32.7,64.4,32.7,64.4,32.7,64.5C32.7,64.4,32.7,64.5,32.7,64.5
		L32.7,64.5z"/>
	<path class="st11" d="M24.5,64.2c0,0.2-0.1,0.2-0.3,0.2c-0.2,0-0.5,0-0.5-0.3c0-0.2,0.1-0.3,0.3-0.2C24.2,64,24.4,64,24.5,64.2z"/>
	<path class="st11" d="M23.1,61.8c0,0-0.1,0-0.1,0c0,0,0-0.1-0.1-0.1c0,0,0.1,0,0.1,0C23.1,61.7,23.1,61.7,23.1,61.8z"/>
	<polygon class="st11" points="33.3,60.4 33.3,60.4 33.3,60.4 	"/>
	<path class="st2" d="M58.7,66.1c0.5,0.1,0.8-0.3,1.1-0.6c0.2-0.2,0.1-0.5-0.2-0.6c-0.4-0.2-0.4-0.7-0.6-1c0.1-0.1,0.2-0.1,0.3,0
		c0.3,0.8,0.8,0.3,1.3,0.2c0.1,0,0.3-0.3,0.4-0.1c0.2,0.2-0.2,0.2-0.2,0.4c0,0,0,0,0,0.1c-0.4,0.1-1.1,0.2-0.1,0.7
		c0.2,0.1,0,0.3-0.2,0.4c-0.4,0.2-0.6,0.4,0,0.7c0.2,0.1,0.2,0.3,0,0.4c-0.8,0.3-1.1,1.1-1.6,1.7c-0.3,0.3-0.7,0.5-1,0.8
		c-0.7,0.7-0.9-0.2-1.2-0.4c-0.3-0.1-0.1-0.5,0.1-0.6c0.3-0.2,0.5-0.4,0.8-0.5c0.1-0.1,0.6,0,0.1-0.4c-0.1-0.1,0.1-0.2,0.3-0.3
		C58.2,66.7,58.4,66.4,58.7,66.1L58.7,66.1z"/>
	<path class="st2" d="M61.2,53.7c-0.2,0.4-0.7,0.7-0.3,1.3c0,0-0.7,0.7-0.7,0.7c-0.2-0.2-0.5-0.1-0.7-0.3c-0.3-0.4,0-1.3,0.6-1.5
		C60.4,53.7,60.8,53.6,61.2,53.7z M60.1,55.1L60.1,55.1L60.1,55.1L60.1,55.1z"/>
	<path class="st2" d="M58.6,59.3c0.4-0.3,0.6-0.7,0.8-1.2c0-0.1,0-0.3,0.2-0.3c0.2,0,0.3,0.1,0.3,0.3c0.1,0.2,0.1,0.5,0.5,0.6
		c0.1,0,0.2,0.1,0.1,0.3c-0.1,0.1-0.2,0.2-0.3,0.1c-0.4-0.5-0.6,0-0.9,0.2C59.1,59.5,58.9,59.6,58.6,59.3z"/>
	<path class="st2" d="M58.2,55.5c0.6,0.2,1,0.4,1.6,0.6C59.2,56.2,58.7,56.2,58.2,55.5z"/>
	<path class="st2" d="M59,52.4c0,0.2-0.1,0.3-0.1,0.4c0.1-0.3-0.4-0.2-0.4-0.5c0-0.2,0.2-0.3,0.3-0.3C59,52.1,59,52.3,59,52.4z"/>
	<path class="st2" d="M57.8,53c0.5-0.1,0.8-0.1,1,0.2c0.1,0.1-0.1,0.1-0.2,0.2C58.2,53.6,58.2,53.1,57.8,53z"/>
	<path class="st2" d="M57.7,54c-0.1,0-0.2,0-0.2-0.1c0-0.1,0-0.1,0.1-0.1C57.7,53.8,57.7,53.9,57.7,54L57.7,54z"/>
	<path class="st2" d="M59.2,55.5C59.2,55.5,59.3,55.5,59.2,55.5C59.3,55.5,59.2,55.6,59.2,55.5C59.2,55.6,59.2,55.5,59.2,55.5
		C59.2,55.5,59.2,55.5,59.2,55.5z"/>
	<path class="st2" d="M57.7,54C57.7,54,57.7,54,57.7,54C57.8,54,57.8,54,57.7,54C57.8,54,57.7,54,57.7,54C57.7,54,57.7,54,57.7,54z"
		/>
	<polygon class="st11" points="60.1,55.1 60.1,55.1 60.1,55.1 	"/>
	<path class="st2" d="M43.3,67.9c0.3,0.4,0.7,0.7,1.2,0.8c1.2,0.2,2.2,0.7,3.4,1.1c0.5,0.2,0.9,0.7,1.6,0.4c0.1-0.1,0.1,0.2,0.2,0.4
		c0.3,0.5,1,0.8,1.5,0.6c-0.1,0.4,0,0.7,0.4,1c1,0.7,2.1,1.2,3.2,1.8c0.2,0.1,0.5,0.4,0.8,0.3c1.2,0.8,2.6,1.3,3.8,2.2
		c0.2,0.2,0.5,0.2,0.7,0.2c0.9,0.1,1,0.3,1.1,1.1c0,0.4,0.1,0.8,0.7,0.8c0.2,0.2,0.2,0.4,0.1,0.7c-0.7,0.1-1.3-0.2-1.9-0.6
		c-0.5-0.4-1-0.7-1.6-1c-1.6-0.9-3.2-1.7-4.8-2.7c-0.8-0.5-1.7-0.6-2.6-0.9c-1-0.4-2-0.8-3-1.1c-0.6-0.2-1.2-0.4-1.8-0.7
		c-1.3-0.6-2.8-0.8-3.9-1.9c-0.2-0.2-0.7,0.1-0.8-0.5c-0.2-0.8-1.1-0.9-1.8-1.1l0,0c-0.2-0.4-0.7-0.1-1-0.4c0.6,0,1.1-0.4,1.8-0.2
		c0.3,0.1,0.5,0.1,0.8,0C41.7,67.8,42.9,67.8,43.3,67.9L43.3,67.9z"/>
</g>
</svg>
