<svg xmlns="http://www.w3.org/2000/svg" version="1.1" xmlns:xlink="http://www.w3.org/1999/xlink" xmlns:svgjs="http://svgjs.dev/svgjs" viewBox="0 0 108 108" style="" x="0" y="0"><style type="text/css">
	.st0{fill:none;stroke:#B8BA59;stroke-width:1.5725;stroke-miterlimit:10;}
	.st1{fill:#74965B;}
	.st2{fill:#8BB36D;}
	.st3{fill:none;stroke:#000000;stroke-width:0.3931;stroke-miterlimit:10;}
	.st4{fill:#73A25E;}
	.st5{fill:#65854F;}
</style><g><path class="st0" d="M74.2,56.5c-2.1,1-9.8,7.5-12.7,10.7c-2.9,3.3-6.6,7.8-7.7,8.7c-1.1,0.8,0,0,0,0"></path><path class="st0" d="M58,59.4c0.3,0.6,2,5,2.2,6.6s0.2,2.5,0.2,2.5s7.4,3.3,8.1,3.8"></path><path class="st1" d="M63.9,68c-0.4,0.3-0.6,0.5-0.7,0.7c-0.1,0.2-0.6,0.8-0.6,0.8c0,0.1,0,0.1-0.1,0.1c3.9,1,14.2,3.9,17.9,5.5
	c4.6,2.1,11.2,4.7,12.7,5.7L92,79.6c0,0,1.4,0,1.8-0.3c0.5-0.3,1.1-1,1.1-1s-1.1-0.5-1.4-1c-0.3-0.5-1.3-0.8-1.3-0.8
	s0.6-0.2,0.8-0.9c0.2-0.7,0.2-1.3,0.2-1.3s-1.8-0.1-2.2-0.4c-0.5-0.3-1.5-0.3-1.5-0.3s0.3-0.9,0.4-1.5c0.1-0.6,0.1-1,0.1-1
	s-1.9,0.2-2.3,0C87.3,71,85.2,71,85,71.1c-0.2,0.1,0.6-0.5,0.3-1.6c-0.2-1.1-0.2-1.1-0.2-1.1s-1.8,0.8-2.2,0.9
	c-0.5,0-2.5,0.2-2.5,0.2l-0.3-1.4c0,0-2.6,0.7-3.1,0.8c-0.5,0.1-1.7,0.2-1.7,0.2L75,68.1c0,0-1.6,0.4-2.4,0.6
	c-0.8,0.2-1.8,0.2-1.8,0.2l0.1-1.6c0,0-2.2,0.6-2.6,0.5c-0.4,0-1.6,0.1-1.6,0.1l-0.3-1.4C66.5,66.6,64.3,67.8,63.9,68z"></path><path class="st2" d="M62.5,69.7c-0.3,0.8-0.4,0.9,0.1,2.6c0.5,1.8,1.3,3.5,1.3,3.5s1.3,0.1,1.4-0.3c0.2-0.4,0.7,0,0.7,0l1.9,3.2
	c0,0,1-0.5,1.1-0.9c0.2-0.3,0.2-0.6,0.2-0.6s1.9,3,2.2,3.4c0.3,0.4,0.7-0.5,0.8-0.5c0.2-0.1,0.5-1.2,0.5-1.2l3.9,3.9
	c0,0,1.4-0.9,1.5-1.4c0-0.6,3.6,3.2,3.6,3.2s1.5-1.3,1.5-1.6c0-0.2-0.1-0.7-0.1-0.7s1.2,1.7,1.9,2.2c0.7,0.5,1.5,0.6,1.7,0.9
	c0.2,0.3,1.2-0.2,1.2-0.8c0-0.6-0.2-1.8-0.2-1.8s0.8,0.7,1.5,0.8c0.7,0.1,2.4,0.4,2.4,0.4s-0.1-1.5-0.2-1.9
	c-0.1-0.4-0.9-1.7-0.9-1.7s1.5,0.7,1.7,0.7c0.2,0,1-0.2,1-0.2c-1.6-1-8.1-3.6-12.7-5.7C76.7,73.5,66.4,70.7,62.5,69.7z"></path><path class="st2" d="M68.2,60c-0.1,0.6-0.2,1.3-0.2,2.3c0.1,1.4,1.1,3.1,1.1,3.1l0.8-2.1c0,0,2.9,2.4,3.5,2.8
	c0.6,0.5,2.2,1.4,2.2,1.4L75.6,64c0,0,2.7,1.3,3.5,1.8c0.8,0.5,1.8,0.6,1.8,0.6s0.2-1.4,0.2-2c0-0.6-0.6-2.3-0.6-2.3
	s2.5,1.6,3.5,1.6s1.9,0.1,1.9,0.1s0.3-2.4,0.2-3c-0.1-0.6-0.6-1.3-0.6-1.3s3.5,1.1,4,1.3c0.5,0.2,2,0.5,2.2,0.5
	c0.2,0,0.1-1.1,0.1-1.9c0-0.8-0.2-2.1-0.2-2.1s2.7,0.2,3.1,0.2c0.3,0,2.5-0.4,2.4-0.7c-0.1-0.3-0.8-2.4-0.9-2.8
	c-0.1-0.3-1.2-1.2-1.2-1.2s3-0.9,3.7-1.5c0.7-0.6,1.5-0.8,1.5-0.8s-1.2-1.9-1.3-2.1c-0.1-0.2-1.2-0.8-1.2-0.8s2.5-2.3,3-3.2
	c0.5-0.8,1-2.5,1-2.5s-1.3-0.3-1.8-0.3c-0.5,0-1.5-0.1-1.5-0.1C95.8,42.9,77.9,54,77,54.6C76.5,55,71.8,58.1,68.2,60z"></path><path class="st1" d="M98.3,37.3c0,0-4.1,2-4.4,2.4s-0.7,0.5-0.7,0.5l-2.1-1.7c0,0-3.2,2.8-3.5,3.2c-0.2,0.4-2.8-1.2-2.8-1.2
	s-0.6,2-1.3,2.7c-0.7,0.7-1.8,2-1.8,2L78,43.9c0,0-0.6,1.4-1,2.3c-0.4,0.9-1,1.6-1,1.6s-2.4-0.4-2.8-0.3s-0.2,0.5-0.4,1
	C72.7,49,72,50.4,72,50.6c0,0.3,0,0.7,0,0.7s-2.3-0.1-2.6,0c-0.2,0.1,0,1.9,0,2.3S69,55.3,69,55.3s-1.3,0-1.8-0.2
	c-0.5-0.2-1.2-0.5-1.2-0.5s-0.1,1,0.2,1.9c0.2,0.9,0.3,1.7,0.3,1.7l-2.2-0.7c0,0,1.2,2.2,1.5,2.3c0.3,0,0.8-0.2,1.1-0.2
	c0.3,0,1.4-0.1,1.4-0.1c0,0.2-0.1,0.4-0.1,0.6c3.6-2,8.3-5.1,8.9-5.5c0.9-0.6,18.8-11.7,21.4-12.8c0,0,0.6-1.4,0.4-2.5
	C98.7,38.2,98.3,37.3,98.3,37.3z"></path><path class="st3" d="M4.5,40.6C4.5,40.6,4.5,40.5,4.5,40.6L4.5,40.6z"></path><path class="st0" d="M55.3,75.8c-0.2-1.8,0.4-1.2-2.2-7.2S45,55.7,44,54.3s-9-9-10.3-10c-1.4-0.9-8.2-6.7-8.2-6.7"></path><path class="st0" d="M44,54.3c0,0,3.5-6.7,4.2-10.2c0.7-3.5,1.9-8.3,5.7-10.3"></path><path class="st0" d="M53.1,68.6c-5.3-3.3-13.7-4.9-16.3-4.9c-2.5,0-11.1,0.3-11.8,0.4"></path><path class="st4" d="M15.3,69.4c1.6-0.7,4.8-2,7.1-2.9c2.3-0.9,10.4-1.9,13.1-2.4c2.2-0.4,4.1-0.4,6.1-0.2c0.1-0.2,0.3-0.5,0.4-0.9
	c0.3-0.8-1-2.3-1.6-3.2c-0.6-0.9-2.7-1.4-2.7-1.4s-0.5,0-0.9-0.2c-0.4-0.1-1.5-1-2.3-1.5c-0.7-0.4-0.3-1.4-0.8-0.7
	c-0.6,0.7-0.4,2-0.4,2s-1-0.9-1.8-1.1c-0.8-0.2-3-1.3-3-1.3l0.8,2.5c0,0-1.1-1-2.4-1.2c-1.3-0.2-2.6-0.9-2.6-0.9s0.9,1.9,0.5,2
	c-0.4,0.1-1-0.5-1.9-0.5c-0.8,0-1.7-0.8-2.1-0.4c-0.4,0.3,0.8,2.2-0.4,2c-1.2-0.2-2.6-0.5-2.6-0.5s-0.6,1.3-0.8,1.5
	c-0.2,0.2-1.6,0.6-2.6,0.7c-1,0.1,0.2,1.3,0.4,1.8c0.3,0.5-1.1,1.7-1.8,1.3c-0.7-0.4-2.7,1.3-2.7,1.3s0.8,1.2,1.6,1.7
	c0.8,0.5,0.9,1.4,0.4,1.8c-0.5,0.4-1.1,1.4-2.6,2.3C12.3,69.2,13.7,70.1,15.3,69.4z"></path><path class="st5" d="M11.2,72.6c0.3,0.2,2,0.3,2,0.3l-0.4,2.9c0,0,1.6-0.1,3.9-0.6c2-0.5,2.2-0.9,2.2-1.1l0,0c0,0,0,0,0,0l0.3,3.5
	c0,0,0.7-0.4,1.6-0.8c0.9-0.4,2.1-0.7,3.1-1.1c1-0.4,0.5,0,1-0.5c0.5-0.6,1.5-2.1,2.3-3.6c0.8-1.4,1.7-1.7,1.7-1.7l1,0.9
	c0,0,1.2-1.2,1.9-2.7c0.7-1.4,1.6-0.8,1.6-0.8s0.9,1,3.1-0.4c2.2-1.4,1.2-0.9,1.4-0.7c0.2,0.2,0.7,1,1.8,0.7
	c1.2-0.3,0.1-0.7,2.3-1.1l-0.6-1.6c0,0,0.1-0.2,0.2-0.4c-2-0.2-3.8-0.2-6.1,0.2c-2.7,0.4-10.9,1.4-13.1,2.4
	c-2.3,0.9-5.5,2.2-7.1,2.9c-1.6,0.7-2.9-0.1-5.5,1.6C8.3,71.9,10.9,72.4,11.2,72.6z"></path><path class="st2" d="M9.9,40.9c0.7,0,1.2,0.3,1.2,0.3s-0.9,2.2-0.8,2.6c0.1,0.4,2.6,1.3,2.6,1.3l1.3,0.6l-0.5,2.4l5.2-0.6l0.1,2.7
	l4.2-1.7c0,0,0.7,2.2,1,2.5c0.3,0.4,2.7-1.4,2.7-1.4l1.1,1.9l3.5-2.2c0,0,0.8,1.5,1.1,1.1c0.3-0.4,2.9-2.3,3.1-3.1
	c0.1-0.3,0.4-1,0.7-1.7c-2.4-0.7-5.2-1.6-5.8-2.2c-1-1.1-9-7-16.2-10.8c-0.7,0-2.1,0.1-3.1,0.4c-1.3,0.4-1.9,0.8-1.9,0.8
	s0.7,2,1.2,2.4c0.5,0.4-1.4,0.5-1.9,1.3c-0.5,0.8-0.8,1.7-0.8,1.7S9.2,40.9,9.9,40.9z"></path><path class="st1" d="M36.3,45.5c0.6-1.2,1.3-2.6,1.6-2.9c0.5-0.4-1.6-0.3-1.6-0.3s2.3-2.6,2.2-3.6c-0.1-1-1.7-0.1-1.7-0.1
	s1-2.2,0.9-2.7c0-0.5-1.6-1.3-2.5-0.9c-0.9,0.4-1.3,0.7-1.3,0.7s0.3-3.3-0.2-3.8c-0.5-0.6-2.5,0.1-2.5,0.1s-0.3-1.5-0.9-2.3
	c-0.6-0.8-0.6-1.6-1.1-1.5c-0.4,0.1-2.2,1.1-2.2,1.1s-1.8-3.4-2.9-3.5c-1-0.1-1.1,0.6-1.1,0.6l-1,1.5c0,0-0.9-1.4-1.8-1.4
	c-0.9,0-2.7,1.4-2.7,1.4s-1.2,0.2-1.7,0.1c-0.4-0.1-1.6,0.8-1.6,0.8l0.4,3.5c0,0-0.2,0-0.4,0c7.2,3.8,15.2,9.6,16.2,10.8
	C31.2,44,33.9,44.9,36.3,45.5z"></path><path class="st1" d="M47.1,48c-0.5,0-1.2,0.1-2,0c-1.2-0.2-2.6-1.2-2.6-1.2l1.9-0.6c0,0-1.8-2.7-2.2-3.3c-0.4-0.6-1-2.1-1-2.1
	l3.1,0.4c0,0-0.9-2.5-1.3-3.2c-0.4-0.8-0.4-1.6-0.4-1.6s1.3-0.1,1.8,0c0.5,0,2,0.7,2,0.7s-1.2-2.4-1.1-3.2c0.1-0.9,0.1-1.7,0.1-1.7
	s2.1-0.1,2.7,0.1c0.5,0.1,1,0.7,1,0.7s-0.7-3.2-0.8-3.7c-0.1-0.5-0.3-1.8-0.3-1.9c0-0.2,1,0,1.7,0.1c0.7,0.1,1.8,0.3,1.8,0.3
	s0-2.4,0.1-2.7c0.1-0.3,0.6-2.2,0.8-2.1c0.2,0.1,2.1,0.9,2.3,1c0.3,0.1,1,1.1,1,1.1s1-2.6,1.6-3.2c0.6-0.6,0.8-1.2,0.8-1.2
	s1.6,1.2,1.7,1.3c0.1,0.1,0.6,1.1,0.6,1.1s2.2-2,3-2.3c0.8-0.4,2.3-0.7,2.3-0.7s0.1,1.1,0.1,1.6c0,0.5,0,1.3,0,1.3
	c-1.2,2.2-12.5,17-13,17.7C52.3,41.1,49.1,44.9,47.1,48z"></path><path class="st2" d="M69.5,23.4c0,0-2.1,3.5-2.5,3.7s-0.5,0.6-0.5,0.6l1.3,2c0,0-2.7,2.6-3.1,2.8c-0.4,0.2,0.8,2.6,0.8,2.6
	s-1.8,0.3-2.5,0.9c-0.7,0.6-1.9,1.4-1.9,1.4l0.9,3.4c0,0-1.3,0.4-2.1,0.7c-0.8,0.3-1.5,0.7-1.5,0.7s0.1,2.2,0.1,2.4
	c-0.1,0.3-0.4,0.2-0.9,0.2c-0.5,0.1-1.7,0.6-1.9,0.6c-0.2,0-0.6-0.1-0.6-0.1s-0.1,2.1-0.2,2.2c-0.1,0.2-1.6-0.2-2-0.2
	c-0.4,0-1.6,0.3-1.6,0.3s-0.1,1.1,0.1,1.6c0.2,0.5,0.4,1.1,0.4,1.1s-0.9,0-1.6-0.3c-0.8-0.3-1.5-0.4-1.5-0.4l0.4,2
	c0,0-1.9-1.2-1.9-1.5c0-0.3,0.3-0.7,0.3-1c0-0.3,0.2-1.2,0.2-1.2c-0.1,0-0.3,0-0.5,0c2-3,5.1-6.9,5.5-7.3c0.6-0.7,11.8-15.5,13-17.7
	c0,0,1.3-0.4,2.2-0.2S69.5,23.4,69.5,23.4z"></path><path class="st1" d="M56.1,77.4c0.2-1.6,1.3-8.3,1.3-8.3l-2.3,1l-2.5-5.5c0,0-1.9,1.6-1.8,1.8c0,0.3-3-2.3-3.3-1.9
	c-0.3,0.5-0.6,2.4-0.6,2.4s-1.7-1.9-2.5-2.6c-0.8-0.6-1.5-1.1-1.5-1.1s-0.6,1.5-0.7,2.3c-0.1,0.8-0.2,1.4-0.2,1.4s-2.1-2.7-2.6-2.7
	c-0.4-0.1-1.5,3.7-1.5,3.7s-1.5-0.6-2.2-0.7c-0.7-0.1-1.9-0.3-1.9-0.3s0.2,2.3,0.3,2.9c0.2,0.6-1.2,1-1.5,1s-1.2,0.4-1.2,0.4
	s-1.1,3-0.6,3.7s3.3,1.9,4.2,2c0.9,0.1,6.9-1.1,8.3-0.9s5.6,0.2,6.4,0.3c0.8,0.1,3,0.3,3,0.3s1.6,0.1,1.9,0.2S56.1,77.4,56.1,77.4z"></path><path class="st2" d="M54.7,77c0,0,1-0.5-0.5-1.9c-1.4-1.4-5-3-6.8-3.8c-1.8-0.7-3.6-2-3.6-2s-0.5,1.9-0.4,2.5
	c0.1,0.6,0.9,1.3,0.9,1.3s-0.5-1.2-2.8-1.8c-2.3-0.6-3.8-0.7-3.8-0.7s-0.1,2,0.4,2.4c0.5,0.3,1.5,1.5,1.5,1.5s-2.2-1.8-4-2
	c-1.8-0.2-2.1-0.2-2.1-0.2s-0.2,1.4,0.6,2.1c0.8,0.6,1.2,1.2,1.2,1.2s-2.4-1.6-3-1.6c-0.6,0-3.5-0.1-3.5-0.1s0.4,1.6,0.9,1.9
	c0.5,0.3,0.8,1,0.8,1s-3.6,0.5-4.2,0.5s-0.1,1.1,0.5,1.4c0.6,0.3,1.6,0.8,1.6,0.8l-3.2,0.6l2.9,0.9c0,0-2,2.2-2,2.2
	c-0.1,0,0.5,0.3,0.5,0.3s5.3-0.9,5.7-1.3c0.5-0.4,6.6-3.4,7.9-3.7c1.3-0.4,7-0.9,8.7-1.2c1.6-0.3,2.9,0.1,3.6-0.3S54.7,77,54.7,77z"></path><path class="st0" d="M63.3,64.9c0,0-0.9-9.3,1.4-13.4c2.3-4,6.9-13.2,8.7-16.3c1.8-3.1,5.2-6.2,5.2-6.2"></path><path class="st2" d="M87.5,29.7C86,30.6,83,32.5,81,33.8c-2.1,1.3-7.6,7.4-9.5,9.3c-1.6,1.6-2.7,3.1-3.7,4.8c-0.3,0-0.6-0.1-1-0.2
	c-0.8-0.2-1.3-2.2-1.7-3.2c-0.4-1,0.4-3,0.4-3s0.3-0.5,0.4-0.8c0.1-0.4,0-1.9,0.1-2.7c0.1-0.9-1-1-0.1-1.1c0.9-0.1,1.9,0.8,1.9,0.8
	s-0.2-1.3,0.1-2.1c0.3-0.8,0.6-3.2,0.6-3.2l1.6,2.1c0,0-0.2-1.4,0.4-2.7c0.6-1.2,0.7-2.6,0.7-2.6s1,1.8,1.3,1.5
	c0.4-0.3,0.2-1.1,0.7-1.8c0.5-0.7,0.4-1.8,0.9-2c0.5-0.2,1.3,1.9,1.9,0.8c0.5-1.1,1.1-2.4,1.1-2.4s1.5,0.2,1.7,0.2
	c0.3,0,1.4-1,2.1-1.7c0.6-0.7,1,0.9,1.3,1.4c0.3,0.5,2,0.1,2.1-0.7c0.1-0.8,2.6-1.4,2.6-1.4s0.5,1.4,0.5,2.3c0,0.9,0.6,1.5,1.2,1.4
	c0.6-0.1,1.8,0,3.3-0.8C89.1,27.3,89,28.9,87.5,29.7z"></path><path class="st1" d="M92.4,28.3c0,0.4-0.9,1.8-0.9,1.8l2.6,1.4c0,0-1,1.2-2.8,2.8c-1.6,1.4-2,1.2-2.1,1.2l0,0c0,0,0,0,0,0l2.7,2.3
	c0,0-0.7,0.4-1.6,0.8s-1.8,1.3-2.7,1.8c-0.9,0.6-0.3,0.5-1,0.6c-0.8,0.1-2.6-0.1-4.2-0.2c-1.6-0.2-2.4,0.4-2.4,0.4l0.2,1.3
	c0,0-1.7,0.3-3.3,0c-1.6-0.3-1.6,0.8-1.6,0.8s0.3,1.4-2.1,2.4c-2.4,1-1.4,0.4-1.4,0.7c0,0.3,0.4,1.1-0.5,1.9
	c-0.9,0.8-0.6-0.4-2.2,1.2l-1-1.4c0,0-0.2,0-0.5-0.1c1-1.7,2.1-3.2,3.7-4.8c1.9-1.9,7.5-8,9.5-9.3c2.1-1.3,5-3.2,6.5-4.1
	c1.5-0.9,1.6-2.5,4.5-3.5C93.5,25.5,92.4,27.9,92.4,28.3z"></path><path class="st1" d="M59.1,62c-1.4,0.1-7.5,0.7-7.5,0.7l1.1-2l-4.8-2.6c0,0,1.5-1.6,1.7-1.5s-1.9-2.8-1.5-3.1
	c0.4-0.2,2.2-0.4,2.2-0.4s-1.6-1.6-2.1-2.4s-0.9-1.4-0.9-1.4s1.4-0.4,2.1-0.5c0.7-0.1,1.3-0.1,1.3-0.1s-2.2-2.1-2.3-2.5
	s3.4-1.1,3.4-1.1s-0.4-1.4-0.5-2s-0.2-1.7-0.2-1.7s2,0.3,2.5,0.5c0.5,0.2,1-1,1-1.3c0-0.3,0.4-1.1,0.4-1.1s2.7-0.8,3.3-0.3
	s1.5,3,1.5,3.8c0,0.8-1.4,6.1-1.3,7.4s-0.2,5-0.1,5.7c0.1,0.7,0.1,2.7,0.1,2.7s0,1.4,0.1,1.7S59.1,62,59.1,62z"></path><path class="st2" d="M58.8,60.7c0,0-0.5,0.8-1.6-0.5c-1.1-1.4-2.4-4.7-2.9-6.3s-1.5-3.3-1.5-3.3s1.7-0.3,2.3-0.2s1.1,0.9,1.1,0.9
	s-1-0.5-1.4-2.6c-0.4-2.1-0.4-3.4-0.4-3.4s1.8,0.1,2.1,0.5s1.2,1.4,1.2,1.4s-1.4-2.1-1.5-3.7C56,41.7,56,41.4,56,41.4
	s1.3-0.1,1.8,0.6c0.5,0.7,1,1.1,1,1.1s-1.3-2.2-1.2-2.8s0.1-3.1,0.1-3.1s1.4,0.5,1.7,0.9c0.3,0.4,0.9,0.8,0.9,0.8s0.7-3.2,0.7-3.7
	c0-0.5,1,0,1.2,0.5c0.2,0.5,0.6,1.5,0.6,1.5l0.8-2.9l0.6,2.7c0,0,2.1-1.6,2.1-1.7c0-0.1,0.3,0.4,0.3,0.4s-1.1,4.6-1.5,5
	c-0.4,0.4-3.4,5.6-3.8,6.8c-0.4,1.2-1.3,6.2-1.6,7.7s0,2.6-0.5,3.2C58.7,59,58.8,60.7,58.8,60.7z"></path></g></svg>