<svg xmlns="http://www.w3.org/2000/svg" version="1.1" xmlns:xlink="http://www.w3.org/1999/xlink" xmlns:svgjs="http://svgjs.dev/svgjs" viewBox="0 0 108 108" style="" x="0" y="0"><style type="text/css">
	.st0{fill:#7BAC2F;}
	.st1{fill:#4C732D;}
	.st2{fill:#62000F;}
	.st3{fill:#6A9738;}
	.st4{fill:#578034;}
	.st5{fill:#5A8435;}
	.st6{fill:#5B8536;}
	.st7{fill:#8AB03E;}
</style><g><path class="st0" d="M39.3,60.2c-1.7,3.7-0.3,4.2,0.4,6.3c0.7,2.1,0.1,4.6-0.8,5.8c-1,1.2-3.1,1.4-5.1,4.1c-2,2.7,0.1,8.3,0.8,10.9
	c0.7,2.5,1.1,3.9,2.2,4.7c1.2-2.9,3.3-8.5,4.5-10.6c1.5-2.6,11.6-21.9,11.9-22.5c0.2-0.6,6.7-11.9,10.2-15.7c-0.4,0-0.9,0-1.2,0.4
	c-0.8,0.9-1.4,0.7-3.1,1.4c-1.6,0.7-3.4,0.9-5.9,1.4c-2.5,0.5-4.7,2.4-8.2,5.4C41.6,54.9,41,56.5,39.3,60.2z"></path><path class="st1" d="M53.2,58.9c-0.3,0.6-10.5,19.9-11.9,22.5c-1.2,2.1-3.3,7.8-4.5,10.6c0,0,0.1,0.1,0.1,0.1
	c1.3,0.8,3.1-0.7,3.9-1.3c0.8-0.6,5.4-3.6,7.4-4.8c2-1.3,2.8-3.6,3.9-5.2c1.1-1.6,1.8-6.5,3.7-8.3c1.9-1.8,4.9-2.9,5.8-3.9
	c0.9-1,2-1.9,1.5-4.2c-0.4-2.2-0.1-3,0.9-4.1s1.8-2.2,1.9-4.4c0.1-2.2-1.9-2.9-2.7-5.7c-0.7-2.8,0.8-4.8,1.4-6.6
	c0,0-0.5-0.3-1.1-0.4C59.9,47,53.4,58.3,53.2,58.9z"></path><g>
	<path class="st2" d="M37.6,89.3c1.8-7.6,5.4-14.6,8.9-21.5c3.2-6,6.7-11.8,10.4-17.5c0,0,0.8-1.2,0.8-1.2c0.3-0.4,0.4-0.9,1.3-0.9
		c0,0,0.1,0.3,0.1,0.3c-0.3,0.3-0.4,0.2-0.5,0.1c-0.1-0.1-0.2-0.1-0.3-0.2c-0.2-0.2-0.4-0.3-0.6-0.7c-0.1-0.2-0.1-0.3-0.2-0.5
		c0,0-0.3-0.6-0.3-0.6c-0.1-0.1,0.1-0.3,0.2-0.2c0.4,0.2,0.9,0.6,1,1c0,0.1,0.4,0.3,0.6,0.4c0.1,0.1,0.2,0,0.1,0.4l0.1,0.3
		c0.3,0.8-0.1,1.1-0.4,1.5l-0.8,1.2c-5.8,8.9-11.3,18-15.9,27.5c-1.7,3.5-3.2,7-4.3,10.7C37.8,89.6,37.5,89.5,37.6,89.3L37.6,89.3z"></path>
</g><g>
	<path class="st2" d="M63.4,59.7c0-0.5,0.2-1.8,0.2-2.3c-0.2-1-0.9-2.6-1.6-3.3c-0.7-0.7-1.3-1.7-1.9-2.4c-0.7-0.8-1.7-1-2.5-1.8
		c0,0,0.2,0.1,0.2,0.1c-0.6-0.2-3.9-1.2-4.4-1.3c-0.9-0.1-1.8,0-2.7,0.1c-0.1,0-0.2,0-0.2-0.1c0-0.1,0-0.2,0.1-0.2
		c0.6-0.1,1.2-0.3,1.8-0.4c0.6-0.1,1.4,0,1.9,0.1c0,0,3.6,0.8,3.6,0.8c0.1,0,0.1,0,0.2,0.1c0.6,0.6,1.7,1.1,2.5,2
		c0.6,0.9,1,1.8,1.8,2.6c0.7,0.8,0.9,1.9,1.4,2.9c0.1,0.3,0.2,0.6,0.2,0.9c0,0.6-0.3,1.8-0.3,2.4C63.7,59.9,63.4,59.9,63.4,59.7
		L63.4,59.7z"></path>
</g><g>
	<path class="st2" d="M61.5,65c0.1-1,0.5-2,0.4-3c0,0-0.2-0.4-0.2-0.4C61.3,61,61,60.2,61,59.5c0-0.4-0.3-0.6-0.6-1
		c-1.3-1.7-4.1-3.7-5.2-4.6c0,0-2.6-1.2-2.6-1.2c-0.9-0.5-1.5-0.8-2.6-0.9c-0.1,0-1.6-0.2-1.6-0.2c-1.2,0.4-2.4,1.2-3.5,1.7
		c-0.2,0.1-0.4-0.2-0.2-0.3c0.8-0.5,1.6-1,2.5-1.5c0.5-0.2,0.9-0.6,1.5-0.6c0.9,0.1,2,0,3,0.2c0.8,0.4,3.1,1.3,4,1.6
		c0.1,0,0.1,0,0.2,0.1c0.8,0.9,1.7,1.7,2.6,2.5c1.2,0.9,2.3,2.1,3.1,3.4c0.2,0.3,0.1,0.7,0.1,1c0.1,0.5,0.3,1.1,0.5,1.6
		c0.1,0.3,0.3,0.7,0.2,0.9c-0.1,0.9-0.3,1.8-0.5,2.7C61.8,65.3,61.4,65.3,61.5,65L61.5,65z"></path>
</g><g>
	<path class="st2" d="M54.3,57c1.4,1.3,3.1,2.5,3.9,4.3c0.5,1.1,1.2,2.1,1.4,3.3c0.2,0.6,0.6,1.4,0.2,2.2c-0.7,1.1-1.3,2.1-1.3,3.4
		c0,0.2-0.4,0.2-0.3,0c0.1-0.6,0.1-1.3,0.3-1.9c0.3-0.6,0.6-1.1,0.9-1.7c0.3-0.6-0.1-1.2-0.3-1.9c-0.1-1-1-2.2-1.4-3.1
		c-0.8-1.7-2.4-2.7-3.8-3.9C53.2,57.3,53.8,56.5,54.3,57L54.3,57z"></path>
</g><g>
	<path class="st2" d="M52.8,59.2c0.6,0.4,1.2,0.9,1.7,1.4c0.5,0.6,0.7,1.3,1.2,1.8c0.1,0.1,0.1,0.2,0,0.2c-0.1,0.1-0.2,0-0.2,0
		c-0.5-0.5-0.8-1.3-1.3-1.7c-0.5-0.5-1.1-0.9-1.7-1.2C52.1,59.6,52.4,59,52.8,59.2L52.8,59.2z"></path>
</g><g>
	<path class="st2" d="M51.5,61.6c1.1,1.8,2.6,3.5,2.9,5.6c0.1,1.6,0,3.2-0.4,4.7c-0.1,0.4-0.4,1.2-0.6,1.4c0,0-0.6,2.8-0.6,2.8
		c0,0.2-0.4,0.1-0.3-0.1c0,0,0.5-2.8,0.5-2.8c0.9-1.9,0.9-4,0.8-6c-0.4-2-1.9-3.6-3-5.2C50.5,61.7,51.2,61.1,51.5,61.6L51.5,61.6z"></path>
</g><g>
	<path class="st2" d="M48.7,66c0.3-0.1,0.3,0,0.4,0.1c0.4,0.6,0.9,1.2,1.2,1.9c0,0.1,0,0.2-0.1,0.2c-0.1,0-0.1,0-0.2,0
		c-0.6-0.5-1.1-1.1-1.6-1.7C48.2,66.5,48.4,66.1,48.7,66L48.7,66z"></path>
</g><g>
	<path class="st2" d="M47.3,82.4c0.1-0.8,0.5-1.5,0.8-2.2c0.2-0.3,0.3-0.8,0.6-1c0.1-0.9,0.1-2.6-0.1-3.5c-0.5-2-1.6-4-2.5-5.9
		c0,0,0.5,0.3,0.5,0.3c0,0-3.2,0-3.2,0c-0.7,0-1.5,0.1-2,0.5c-0.1,0.1,0,0.4,0,0.6c0,1.3-1.1,2.1-1.9,2.8c-0.9,0.8-2.1,0.9-3.1,1.1
		c-0.2,0-0.3-0.3-0.1-0.3c1-0.2,2.1-0.4,2.9-1.1c0.9-0.8,1.8-1.7,1.5-2.8c-0.1-0.2,0-0.5,0.1-0.7c0.7-0.7,1.6-0.9,2.5-0.9
		c0,0,3.3-0.1,3.3-0.1c0,0,0.3,0,0.3,0c0,0,0.1,0.3,0.1,0.3c0.9,2,1.8,4,2.3,6.2c0.1,1.3,0.1,2.5-0.2,3.8c0,0.1,0,0.2-0.2,0.3
		c-0.5,0.6-0.8,1.6-1.1,2.2c0,0-0.2,0.7-0.2,0.7C47.6,82.7,47.2,82.6,47.3,82.4L47.3,82.4z"></path>
</g><g>
	<path class="st2" d="M40.8,80c0.3-0.3,0.3-0.1,0.4-0.1c0.8,0.4,1.6,1.1,1.7,2c0.1,0.3,0.5,3.6-0.1,2.8c-0.4-1.5-0.3-3.4-1.9-4.1
		c-0.1-0.1-0.2,0-0.2-0.4C40.7,80.2,40.7,80,40.8,80L40.8,80z"></path>
</g><g>
	<path class="st2" d="M42.4,77.9c-1-0.2-2.1-0.3-3.2-0.2c-0.7,0.1-1.2,0.7-1.7,1.1c-0.3,0.2-0.5,0.4-0.8,0.7
		c-0.5,0.5-0.9,1.1-1.3,1.7c-0.1,0.2-0.4,0-0.3-0.2c1.1-1.3,2.5-3,4-3.7c1.1-0.2,2.2-0.2,3.3-0.4c0.3,0,0.5,0.1,0.5,0.4
		C43,77.7,42.7,77.9,42.4,77.9L42.4,77.9z"></path>
</g><g>
	<path class="st2" d="M49.9,63.5c-1.1-0.3-2.3-0.9-3.4-0.9c-0.2,0.3-0.5,0.8-1,0.9c-0.7,0.1-1.5-0.6-2-0.3c-0.2,0.1-0.3,0.3-0.5,0.5
		c-0.6,0.6-1.5,0.4-2.1,0.8c0,0-1.4,0.6-1.4,0.6c-0.2,0.1-0.4-0.2-0.2-0.3c0.8-0.4,1.9-1,2.8-1.1c0.5-0.1,0.7-0.6,1.1-0.9
		c0.3-0.2,0.6-0.2,0.9-0.2c0.5,0,1.4,0.6,1.6,0c0-0.1,0.1-0.2,0.2-0.4c0.1-0.2,0.4-0.3,0.6-0.3c1.3,0,2.5,0.5,3.7,0.9
		C50.7,62.9,50.4,63.7,49.9,63.5L49.9,63.5z"></path>
</g><g>
	<path class="st2" d="M53.8,56.9c-1.8-0.1-3.5,0.2-5.3,0.2c-0.6,0-1.2-0.1-1.7,0c-1,0.5-2.4,0.5-3.3,1.1c-0.6,0.3-1,0.3-1.6,0.7
		c-0.5,0.3-1,0.6-1.5,0.9c-0.2,0.1-0.4-0.2-0.2-0.3c0.9-0.7,2-1.3,3.1-1.8c0.2-0.2,0.6-0.4,0.9-0.4c0.9-0.2,1.7-0.4,2.5-0.8
		c1.3-0.3,2.3,0.1,3.6-0.2c1.2-0.2,2.4-0.2,3.6-0.3c0.2,0,0.4,0.2,0.5,0.4C54.2,56.7,54,56.9,53.8,56.9L53.8,56.9z"></path>
</g><g>
	<path class="st2" d="M63.5,50.6c-0.7-0.1-1.5-0.3-2.3-0.5c-0.1-0.3,0,0.7,0.2-0.6l0,0c0,0,0,0,0,0c0.1,0,0.3,0.1,0.4,0.1
		c0,0,0.1,0,0,0c-0.1,0-0.1,0-0.3,0.1c-0.1,0.2-0.1,0.3,0,0.4c0,0,0,0,0,0.1c0,0,0,0,0,0c-0.4-0.2-1.5-0.8-1.9-1
		c-0.2-0.1-0.5-0.1-0.5-0.6c0-0.1,0.1-0.2,0.2-0.3c0.4-0.2,0.5,0,0.8,0.1c0.7,0.4,1.4,0.8,2,1.2c0,0,0.1,0.1,0.1,0.1
		c0,0.1,0.1,0.2,0,0.4c-0.2,0.2-0.2,0.1-0.3,0.1c-0.2,0-0.4-0.1-0.6-0.2c0,0,0,0,0,0c0.2-1.3,0.3-0.3,0.2-0.6
		c0.7,0.2,1.5,0.5,2.2,0.9C63.8,50.3,63.7,50.6,63.5,50.6L63.5,50.6z"></path>
</g><path class="st0" d="M27.6,39.4c4.3,2.3,5.2,2.8,13.1,8c5.5,3.6,8.9,5.8,13.8,9.2c0,0-0.1,0-0.1,0l0,0.9c0.3,1.2,0.8,2.8-1,2.4
	c-1.8-0.4-6.1-0.8-7.2-1c-1.1-0.3-2.6-0.6-3.5-1c-0.8-0.5-2.3-1.5-3.1-2.1c-0.9-0.6-2.2-1.3-2.9-1.7c-0.7-0.5-4-3.3-5-4.5
	c-1.1-1.1-2.2-2.2-2.6-2.4c-0.4-0.2-1.8-0.5-3.8-2.1s-5.2-4.7-6.2-5.8c-1-1.1-3.3-3.9-3.7-4.5c-0.3-0.4-0.5-0.7-0.4-1.1
	c3,1.2,1.7,0.4,4.2,1.5C21.7,36.3,23.3,37.1,27.6,39.4z"></path><path class="st3" d="M22,31.5c2.4,0.1,9.4,2,11.2,2.7c1.8,0.6,4.2,1.3,5.1,2.1c0.9,0.8,3.1,2.9,4.3,3.6c1.2,0.7,4.9,3.4,5.7,4.7
	c0.7,1.3-0.2,1.4,1.2,2.4c1.4,1,3.2,2.1,4,2.9c0.8,0.8,1.2,1.1,1.7,2.4c0.6,1.3,0.7,2.3,0.5,2.8c-0.2,0.5,0.2,1-0.4,1.2
	c-0.4,0.1-0.7,0.2-0.9,0.3c-4.9-3.4-8.3-5.6-13.8-9.2c-7.9-5.2-8.8-5.7-13.1-8c-4.3-2.3-5.8-3.1-8.4-4.2c-2.5-1.1-1.1-0.3-4.2-1.5
	c0-0.2,0.1-0.4,0.2-0.6C15.7,32.4,19.6,31.4,22,31.5z"></path><g>
	<path class="st2" d="M17.5,34.4c11.8,4.9,22.7,12.2,33.3,19.3c0,0,1.1,0.7,1.1,0.7c0.3,0.3,0.8,0.4,0.8,1.1l-0.2,0.1
		c-0.3-0.2-0.2-0.2-0.1-0.4c0.2-0.3,0.4-0.5,0.8-0.5c0.3-0.1,0.6-0.3,0.8-0.5c0.1-0.1,0.2,0.1,0.2,0.2c-0.3,0.4-0.6,0.8-1.1,0.9
		c0.1,0,0,0,0,0c0,0-0.1,0.1-0.1,0.1c-0.1,0.1,0,0.2-0.3,0.1c0,0-0.2,0.1-0.2,0.1c-0.7,0.2-0.9-0.2-1.3-0.4l-1-0.7
		C42.5,49.2,34.6,44,26.5,39.4c-3-1.7-5.9-3.4-9.1-4.7C17.3,34.6,17.4,34.4,17.5,34.4L17.5,34.4z"></path>
</g><g>
	<path class="st2" d="M44.9,56.8c1,0.2,1.8,0.7,2.8,0.4c0.7-0.1,1.1-0.3,1.7-0.8c0.6-0.4,1.2-0.4,1.4-1.1c0.2-0.3,0.2-0.6,0.5-1
		l-0.1,0.3c0-1.2,0.4-2.4-0.1-3.6c-0.1-0.4-0.3-0.8-0.4-1.2c0.1-0.8,0.9,1.4,1,1.6c0.2,1,0.1,2.1,0.1,3.1c0,0.2,0,0.1-0.1,0.3
		c-0.3,0.2-0.5,1.2-1.3,1.6c-0.8,0.2-1,0.6-1.7,1c-0.4,0.1-0.7,0.1-1,0.2c-1,0.3-2-0.3-3-0.5C44.7,57,44.8,56.8,44.9,56.8L44.9,56.8
		z"></path>
</g><g>
	<path class="st2" d="M40.8,55.3c0.6,0.2,1.2,0.5,1.7,0.6c0.8-0.2,1.6-0.4,2.3-0.8c1.2-0.5,2.2-2.1,3-3.1c0,0-0.1,0.1-0.1,0.1
		c0.1-0.8,0.4-1.6,0.6-2.4c0-0.6-0.2-1.3-0.3-1.9c0,0-0.2-0.3-0.2-0.3c-0.4-0.5-1.4-1.9-1.8-2.5c0-0.1,0-0.1,0-0.2c0,0,0.1,0,0.2,0
		c0.4,0.5,1.6,1.8,2,2.3c0.1,0.2,0.2,0.2,0.3,0.5c0.2,0.7,0.4,1.3,0.4,2.1c-0.2,0.9-0.3,1.8-0.7,2.7c-0.9,1-2,2.6-3.3,3.1
		c-0.8,0.3-1.6,0.5-2.4,0.7c-0.3,0-0.6-0.1-0.9-0.2c-0.3-0.1-0.7-0.3-1-0.4c-0.1,0-0.1-0.1-0.1-0.2C40.7,55.3,40.7,55.3,40.8,55.3
		L40.8,55.3z"></path>
</g><g>
	<path class="st2" d="M45.1,50.9c-0.6,0.7-1.1,1.4-1.9,1.9c-0.9,0.3-1.7,0.5-2.6,0.7c-0.1,0-0.3,0-0.4,0c-0.3,0-0.7,0.1-1,0.1
		c-1.3-0.4-1.9-1.4-3.5-1.7c-0.4-0.5,0.9,0,1.3,0.2c0.8,0.3,1.5,1,2.2,1.1c0.3,0.1,0.6-0.1,0.9-0.1c0.8,0,1.9-0.4,2.6-0.7
		c0.6-0.4,1.2-1.1,1.6-1.8C44.8,50.1,45.4,50.5,45.1,50.9L45.1,50.9z"></path>
</g><g>
	<path class="st2" d="M43.1,49.5c-0.3,0.5-0.6,1-1.1,1.2c-0.3,0.1-0.6,0.2-0.8,0.3c-0.1,0-0.1,0-0.2,0c0-0.1,0-0.1,0-0.2
		c0.3-0.2,0.6-0.3,0.9-0.4c0.4-0.2,0.6-0.7,0.8-1.1C42.8,49,43.3,49.2,43.1,49.5L43.1,49.5z"></path>
</g><g>
	<path class="st2" d="M41,48.3c-1.3,0.6-2.8,1.5-4.4,1c-1.4-0.3-3-0.8-4.2-1.5c0,0-2.2-0.9-2.2-0.9c-0.1-0.1-0.1-0.3,0.1-0.2
		c0,0,2.2,0.8,2.2,0.8c1.3,0.7,2.7,1.1,4.2,1.4c1.4,0.4,2.7-0.5,4-1.1C41.1,47.6,41.3,48.1,41,48.3L41,48.3z"></path>
</g><g>
	<path class="st2" d="M37.2,45.7c0.1,0.2-0.1,0.2-0.2,0.3c-0.3,0.2-0.7,0.3-1,0.4c-0.1,0-0.1,0-0.2-0.1c0-0.3,0.7-0.6,0.9-0.8
		c0,0,0.2-0.1,0.2-0.1C36.9,45.3,37.2,45.5,37.2,45.7L37.2,45.7z"></path>
</g><g>
	<path class="st2" d="M24.6,42.2c0.9,0.4,1.8,0.8,2.6,1.4c0.5,0.2,1.6,0.4,2.2,0.5c1.5,0.2,3.1-0.4,4.5-0.8c0,0-0.2,0.4-0.2,0.4
		l-0.7-2.4c-0.2-0.5-1.1-1.4-1.5-1.9c-0.9-1.2-2.4-2.6-3.6-3.5c-0.1,0-0.1-0.1,0-0.2c0,0,0.1-0.1,0.2,0l2,1.6c1,0.8,1.8,1.9,2.7,2.8
		c0.3,0.3,0.6,0.6,0.8,1.1c0.1,0.2,0.9,2.7,0.9,2.8c-1.7,0.4-3.4,1-5.2,0.6c0,0-1.2-0.3-1.2-0.3c-1.2-0.2-2.1-1.2-3.2-1.6
		c0,0-0.5-0.2-0.5-0.2C24.4,42.3,24.5,42.1,24.6,42.2L24.6,42.2z"></path>
</g><g>
	<path class="st2" d="M25.1,38.1c0.3,0.1,0.1,0.2,0.1,0.3c-0.1,0.5-0.5,0.9-1,0.9c-0.8,0-1.5-0.1-2.3-0.3c-0.1,0-0.1-0.2,0-0.2
		c0.7,0,1.5,0,2.2,0c0.3,0,0.4-0.3,0.5-0.5c0-0.1-0.1-0.1,0.2-0.1C25,38,25.1,38,25.1,38.1L25.1,38.1z"></path>
</g><g>
	<path class="st2" d="M27.1,39.7c-0.2-1.1-0.3-2.4-1.3-3.2c-0.8-0.9-1.7-1.6-2.7-2.3c-0.1,0-0.1-0.1,0-0.2c0-0.1,0.1-0.1,0.2,0
		l1.4,1.1c0.8,0.8,2,1.6,2.4,2.7c0,0,0.7,1.7,0.7,1.7C27.9,40,27.1,40.2,27.1,39.7L27.1,39.7z"></path>
</g><g>
	<path class="st2" d="M39.4,47c0.1-0.7,0.2-1.5,0.1-2.1c-0.4-1-1-2.1-1.5-3c-0.3-0.6-0.2-1.3-0.6-1.7c-0.3-0.4-0.8-0.5-1.2-0.8
		c-0.7-0.8-1.2-1.7-1.9-2.3c0,0-0.9-0.8-0.9-0.8c-0.1-0.1,0-0.3,0.2-0.2c1.2,0.8,2,2,2.9,3c0.4,0.3,0.9,0.5,1.3,0.8
		c0.4,0.4,0.5,1,0.6,1.5c0.5,1.1,1.3,2.2,1.7,3.4c0.2,0.8,0.1,1.6,0,2.4c0,0.2-0.2,0.3-0.3,0.3C39.5,47.4,39.4,47.2,39.4,47L39.4,47
		z"></path>
</g><g>
	<path class="st2" d="M45.1,50.7c-0.5-1.6-1.1-3.3-1.5-4.9c-0.4-0.6-0.8-1.3-1.1-1.9c-0.8-1.4-1-2.6-2.3-3.7
		c-0.1-0.1,0.1-0.3,0.2-0.2c0.8,0.6,1.4,1.5,1.8,2.4c0.5,1.1,1.1,2.2,1.8,3.2c0.5,1.7,1.2,3.3,1.7,4.9
		C45.8,50.9,45.2,51.1,45.1,50.7L45.1,50.7z"></path>
</g><g>
	<path class="st2" d="M51.8,58.3c0-0.5-0.1-1.1,0-1.5c0.1-0.2,0.3-0.8,0.4-1c0.1-0.5,0.8-0.2,0.5,0.2c-0.1,0.3-0.4,0.9-0.5,1.2
		C52.2,57.4,52.1,58.8,51.8,58.3L51.8,58.3z"></path>
</g><path class="st0" d="M71,37.3c3.7-0.5,3.8,0.8,5.4,2c1.7,1.1,4,1.3,5.3,0.7c1.2-0.5,2-2.3,4.8-3.3c2.9-1,7.3,2.1,9.3,3.4
	c2,1.2,3.1,1.9,3.5,3.1c-2.8,0.3-8.3,0.7-10.4,1.2c-2.6,0.6-22,4.5-22.6,4.6c-0.5,0.1-12.1,2.8-16.3,4.8c0.1-0.4,0.2-0.8,0.7-0.9
	c1-0.5,0.9-1.1,2-2.3c1-1.2,1.7-2.7,2.7-4.7c1-2,3.2-3.5,6.8-5.6C65.9,37.9,67.4,37.8,71,37.3z"></path><path class="st4" d="M66.5,48.8c0.6-0.1,19.9-4,22.6-4.6c2.1-0.5,7.6-0.9,10.4-1.2c0,0,0,0.1,0.1,0.1c0.4,1.3-1.4,2.5-2.1,3
	c-0.7,0.5-4.4,3.7-6,5.1c-1.6,1.4-3.9,1.5-5.5,2c-1.6,0.5-6.1-0.1-8.1,1.1c-2.1,1.2-3.7,3.5-4.9,4c-1.1,0.5-2.2,1.2-4,0.3
	c-1.9-0.9-2.6-0.8-3.8-0.3c-1.2,0.5-2.4,1-4.3,0.5c-2-0.5-2.1-2.4-4.3-3.7c-2.2-1.3-4.4-0.5-6.1-0.5c0,0-0.1-0.5,0-1
	C54.4,51.6,65.9,48.9,66.5,48.8z"></path><g>
	<path class="st2" d="M96.8,43.3c-7,0.1-13.9,1.5-20.7,3c-5.9,1.4-11.9,2.9-17.7,4.7c0,0-1.2,0.4-1.2,0.4c-0.4,0.1-0.7,0.5-1.4-0.1
		l-0.2-0.1c-0.4,0-0.3-0.1-0.4-0.2c0-0.1-0.2-0.5-0.2-0.6c-0.3-0.2-0.6-0.7-0.6-1.1c0-0.1,0.2-0.2,0.3-0.1c0,0,0.4,0.4,0.4,0.4
		c0.1,0.1,0.2,0.2,0.4,0.3c0.3,0.2,0.4,0.4,0.5,0.7c0.1,0.3,0.3,0.5-0.1,0.7c0,0-0.2-0.1-0.2-0.1c0.2-0.8,0.7-0.7,1.1-0.9
		c0.8-0.3,3-0.9,3.8-1.1c8.4-2.4,17-4.4,25.7-5.5c3.5-0.4,7-0.7,10.5-0.5C97,43,97,43.3,96.8,43.3L96.8,43.3z"></path>
</g><g>
	<path class="st2" d="M64.5,58c-0.5-0.1-1.6-0.2-2.1-0.3c-0.7-0.2-1.2-0.8-1.8-1.2c-0.4-0.3-0.8-0.6-1.1-1.1
		c-0.5-0.9-1.2-1.4-1.8-2.2c-0.6-0.9-0.8-2-1.2-2.7c0,0,0-0.1,0-0.1l0.2-3.2c0-0.5,0.1-1.2,0.4-1.7c0.2-0.5,0.5-1,0.8-1.5
		c0.1-0.2,0.3,0,0.3,0.1c-0.3,0.7-0.7,1.5-0.8,2.2c0,0.4,0.1,3.5,0.1,4.1c0,0-0.1-0.2-0.1-0.2c0.6,1.1,0.5,2.3,1.4,3.1
		c0.5,0.5,0.9,1.2,1.3,1.8c0.5,0.8,1.3,1.3,2,1.9c0.5,0.5,1.9,0.5,2.6,0.7C64.8,57.8,64.7,58.1,64.5,58L64.5,58z"></path>
</g><g>
	<path class="st2" d="M69.7,57.7c-1-0.1-2,0-2.9-0.4c-0.5-0.4-1-0.9-1.6-1.1c-0.2-0.1-0.5-0.1-0.8-0.3c-1.8-1.8-2.4-4.2-3.8-6.3
		c0,0,0-0.1,0-0.2c-0.1-0.9-0.3-3-0.4-3.8c0-0.9,0.3-1.8,0.5-2.6c0.1-0.3,0.2-0.5,0.4-0.7c0.7-0.8,1.6-1.5,2.4-2.2
		c0.1-0.1,0.2-0.1,0.2,0c0.1,0.1,0,0.2,0,0.2c-0.6,0.6-1.2,1.2-1.8,1.8c-0.1,0.2-0.6,0.7-0.6,0.7c0,0,0,0.2,0,0.2
		c-0.1,0.7-0.4,1.8-0.4,2.4c0.1,0.3,0.2,0.8,0.2,1.2l0.4,2.5l0-0.2c0.9,2.2,1.7,4.5,3.2,6.3c0.1,0.1,0.4,0.2,0.7,0.3
		c0.7,0.3,1.1,0.8,1.7,1.2c0.8,0.3,1.8,0.3,2.7,0.4C69.9,57.4,69.9,57.7,69.7,57.7L69.7,57.7z"></path>
</g><g>
	<path class="st2" d="M65.3,48.9c0.8,2.2,1.9,4,3.7,5.4c0.4,0.3,0.7,0.7,1.2,0.8c0.5,0.4,1,0.9,1.5,0.7c0.5-0.1,1.1-0.3,1.7-0.3
		c0.6,0,1.2,0.1,1.7,0.2c0.1,0,0.1,0.1,0.1,0.2c0,0.1-0.1,0.1-0.2,0.1c-1.2-0.3-2.1-0.1-3.3,0.3c-0.7,0.2-1.3-0.3-1.7-0.6
		c-0.1-0.1-0.2-0.1-0.3-0.2c-1.3-0.9-2.7-1.9-3.6-3.3c-0.6-1-1.1-2-1.6-3.1c-0.1-0.2,0-0.5,0.2-0.6C64.9,48.6,65.2,48.7,65.3,48.9
		L65.3,48.9z"></path>
</g><g>
	<path class="st2" d="M67.4,48.4c0.3,0.9,0.5,1.8,1.2,2.5c0.1,0.2,0.8,0.8,0.6,1c-0.1,0-0.2,0-0.2-0.1c-0.4-0.6-0.9-0.9-1.3-1.5
		c-0.4-0.6-0.6-1.2-0.8-1.8c-0.1-0.2,0-0.3,0.2-0.4C67.2,48.1,67.4,48.2,67.4,48.4L67.4,48.4z"></path>
</g><g>
	<path class="st2" d="M69.8,47.6c1.2,1.3,2.3,3.1,3.8,3.8c1.7,0.6,3.6,1.1,5.4,0.8c0,0,2.6,0.2,2.6,0.2c0.2,0,0.2,0.3,0,0.3
		c0,0-2.6-0.2-2.6-0.2l0,0c-0.9,0.1-1.9,0.2-2.9,0c-1.4-0.3-3-0.5-4.1-1.5c-1.1-1-2-2-2.9-3.1c-0.1-0.2-0.1-0.4,0-0.5
		C69.4,47.4,69.7,47.4,69.8,47.6L69.8,47.6z"></path>
</g><g>
	<path class="st2" d="M74,46.6c0.3-0.1,0.3,0.1,0.5,0.3c0.3,0.5,0.7,1,0.9,1.5c0,0.1,0,0.2-0.1,0.2c-0.1,0-0.1,0-0.2,0
		c-0.4-0.4-0.9-0.8-1.2-1.3l-0.2-0.2C73.6,47,73.8,46.6,74,46.6L74,46.6z"></path>
</g><g>
	<path class="st2" d="M88.4,49.9c-0.9,0-1.8,0.1-2.7,0.4c0,0-0.1,0-0.1,0c-0.2,0.1-0.2,0.1-0.3,0.1c-0.7,0-1.3-0.2-1.9-0.4
		c-2.6-0.5-4.5-2.6-6.5-4.1c0,0,0.1-0.3,0.1-0.3c0.4-1,0.9-3.3,1.7-4.1c0.2-0.3,0.9-0.8,1.3-0.5c0.9,0.5,1.9-0.1,2.8-0.6
		c0.8-0.4,1.3-1.4,1.7-2.1c0.1-0.2,0.4,0,0.3,0.1c-0.5,0.9-0.8,1.9-1.7,2.4c-0.8,0.5-1.8,1.2-2.9,0.9c-0.2,0-0.4-0.2-0.5-0.2
		c-0.5,0.3-0.8,1-1,1.6c0,0-0.8,2.8-0.8,2.8l-0.1-0.5c1.8,1.5,3.5,3.5,5.8,4.1c0.5,0.2,1.3,0.4,1.7,0.5c0.7-0.4,1.7-0.3,2.5-0.4
		c0,0,0.6,0,0.6,0C88.6,49.6,88.6,49.9,88.4,49.9L88.4,49.9z"></path>
</g><g>
	<path class="st2" d="M88.2,43.5c0.3,0.1,0.2,0.2,0.3,0.2c0.1,1.6,1.9,1.9,3.1,2.7c0.2,0.1,0.1,0.3-0.1,0.3
		c-1.5-0.4-3.5-0.9-3.7-2.8c0-0.1-0.1-0.2,0.2-0.4C88,43.4,88.1,43.4,88.2,43.5L88.2,43.5z"></path>
</g><g>
	<path class="st2" d="M84.9,44.1c0.6-1.1,0.8-2.7,1.9-3.4c1.1-0.7,2.2-1.3,3.4-1.8c0.1,0,0.2,0,0.2,0.1c0,0.1,0,0.2-0.1,0.2
		c-0.9,0.3-1.9,0.6-2.6,1.2c-0.5,0.4-1.1,0.6-1.4,1.2c-0.4,0.9-0.6,1.8-0.7,2.8C85.6,45,84.6,44.7,84.9,44.1L84.9,44.1z"></path>
</g><g>
	<path class="st2" d="M70.5,47.2c0-1.2-0.2-2.3,0.2-3.4c0.1-0.3,0.5-0.5,0.8-0.5c0.3,0,0.3-0.2,0.3-0.7c0-0.5,0-1.1,0.4-1.4
		c0.3-0.3,0.8-0.3,1-0.7c0.3-0.7,1.1-1.5,1.6-2.1c0.1-0.2,0.4,0.1,0.3,0.2c0,0-0.8,1-0.8,1c-0.5,0.5-0.6,1.3-1.2,1.6
		c-0.2,0.1-0.4,0.2-0.5,0.3c-0.4,0.4,0.1,1.2-0.2,1.8c-0.1,0.4-0.7,0.6-1,0.6c-0.3,0.9,0,2.1,0,3.2c0,0.2-0.2,0.4-0.4,0.4
		C70.7,47.6,70.5,47.4,70.5,47.2L70.5,47.2z"></path>
</g><g>
	<path class="st2" d="M63.9,48.6c0.4-1.5,1.2-2.9,1.7-4.4c0.1-0.5,0.2-1,0.5-1.6c0.5-0.6,0.9-1.3,1.3-2c0.2-0.4,0.6-0.6,0.8-0.9
		c0.5-0.8,1.4-1.3,2.1-1.9c0.1-0.1,0.3,0.1,0.2,0.2c-0.4,0.3-0.8,0.7-1.2,1c-0.5,0.4-0.7,0.8-1.1,1.2c-0.7,0.7-1,1.8-1.7,2.6
		c-0.2,0.4-0.3,0.9-0.4,1.4c-0.4,1.6-1.1,2.9-1.5,4.5C64.5,49.3,63.7,49.1,63.9,48.6L63.9,48.6z"></path>
</g><g>
	<path class="st2" d="M56.3,55.5c-0.1-0.7-0.2-1.4-0.2-2.1c0-0.1,0,0,0-0.2c0.4-0.4,0.7,0.2,0.6,0.1c0,0.1,0,0.3,0,0.5
		c0,0,0,0.1,0,0.2c0,0-0.1,0.2-0.3,0.2c-0.2,0-0.2-0.1-0.3-0.1c0,0-0.1-0.1-0.1-0.1c-0.2-0.7-0.4-1.4-0.6-2c0-0.2-0.2-0.4,0.1-0.7
		c0.1-0.1,0.2-0.1,0.3-0.1c0.4,0.1,0.3,0.4,0.4,0.6c0.1,0.4,0.3,1.5,0.4,2c0,0,0,0,0,0c-0.1-0.1-0.1-0.1-0.3-0.1
		c-0.2,0-0.2,0.2-0.3,0.2c0,0.1,0,0.1,0,0l0-0.2c0,0,0-0.2,0-0.2c0,0,0,0,0,0l0,0c-0.1-0.1,0.2,0.5,0.6,0.1c0.1-0.2,0-0.1,0-0.1
		c0,0.7-0.1,1.4-0.1,2C56.6,55.7,56.3,55.7,56.3,55.5L56.3,55.5z"></path>
</g><path class="st0" d="M59.8,20.2c-1.2,4.8-1.5,5.8-2.9,15.1c-1,6.5-1.6,10.5-2.2,16.4c0.1,0,0.1,0,0.1,0l1,0.6c1,1,2.3,2.4,3.5,0.7
	c1.2-1.6,4.4-5.1,5.1-6.1c0.7-1,1.7-2.4,1.9-3.3c0.2-0.9,0.3-2.7,0.5-3.7c0.1-1,0.6-2.5,0.7-3.3c0.1-0.8-0.1-5.2-0.4-6.7
	c-0.3-1.5-0.4-3-0.3-3.5c0.1-0.4,1.1-1.7,1-4.2c0-2.5-0.5-6.9-0.8-8.4c-0.3-1.4-1.2-5-1.6-5.7c-0.2-0.5-0.4-0.8-0.8-1
	c-1.4,3.1-1,1.5-2.1,4.1C61.5,13.8,61,15.5,59.8,20.2z"></path><path class="st5" d="M56.2,10.9c-1.9,1.9-6,8.5-6.9,10.3c-0.9,1.8-2.2,4.1-2.2,5.3c0,1.2,0.4,4.2,0,5.6c-0.3,1.4-0.7,5.9,0,7.3
	c0.7,1.4,1.7,0.8,1.6,2.4c-0.1,1.7-0.5,3.8-0.4,4.9c0.1,1.1,0.2,1.6,1.1,2.9c0.9,1.3,1.9,2,2.6,2.2c0.7,0.2,0.9,0.8,1.6,0.4
	c0.5-0.2,0.9-0.4,1-0.5c0.6-5.9,1.3-9.9,2.2-16.4c1.4-9.3,1.6-10.3,2.9-15.1c1.2-4.8,1.7-6.4,2.8-9.1c1-2.6,0.7-1,2.1-4.1
	c-0.2-0.1-0.4-0.2-0.8-0.2C62.6,6.7,58.2,9.1,56.2,10.9z"></path><g>
	<path class="st2" d="M63.5,9.5c-4.2,12.1-5.8,25-7.5,37.7c0,0-0.1,1.3-0.1,1.3c-0.1,0.4,0.1,0.8-0.6,1.2l-0.2,0.1
		C55.1,50,55,50,55,50c0,0-0.1,0-0.1,0c-0.1,0-0.4,0-0.4-0.1c-0.6,0.3-1.2,0.2-1.8,0.2c-0.1,0-0.2-0.2,0-0.3
		c0.4-0.1,0.9-0.3,1.3-0.4c0.5-0.3,0.6-0.3,1.1-0.3c0.2,0,0.3,0,0.3,0.3c0,0-0.2,0.1-0.2,0.1c-0.6-0.5-0.3-0.9-0.3-1.3l0.1-1.3
		c1.1-9.4,2.7-18.7,5.1-27.9c0.9-3.3,1.9-6.6,3.3-9.8C63.3,9.2,63.6,9.3,63.5,9.5L63.5,9.5z"></path>
</g><g>
	<path class="st2" d="M63.4,44.6l-0.6,1.1c-0.2,0.3-0.4,0.8-0.7,1.1c-0.8,0.5-1.3,1-2.2,1.2c-0.6,0.1-1.2,0.2-1.7,0.5
		c-0.9,0.5-2.4,0.1-3.1,0.1c-0.1,0-0.1,0-0.2-0.1c0,0-2.4-1.6-2.4-1.6c-0.1-0.1-0.4-0.2-0.5-0.3c-0.3-0.2-0.5-0.5-0.6-0.7
		c-0.3-0.4-0.5-0.8-0.8-1.2c0-0.1,0-0.1,0-0.2c0.1,0,0.1,0,0.2,0c0.3,0.4,0.6,0.8,0.9,1.1c0.2,0.2,0.4,0.4,0.6,0.6
		c0.1,0,0.4,0.2,0.4,0.2c0,0,2.6,1.4,2.6,1.4L55,47.8c0.9-0.1,1.6,0.4,2.4,0.2c0.7-0.2,1.6-0.5,2.4-0.5c0.7-0.1,1.5-0.7,2.1-1
		c0.3-0.2,0.5-0.6,0.7-0.9c0,0,0.6-1,0.6-1C63.3,44.4,63.5,44.5,63.4,44.6L63.4,44.6z"></path>
</g><g>
	<path class="st2" d="M65.4,40.5c-0.3,0.7-0.4,1.4-1,1.9c0,0-0.6,0.3-0.6,0.3c-0.8,0.4-1.6,0.9-2.6,1.2c-1.8,0.6-3.8,0.3-5.6,0.5
		c0,0-0.1,0-0.1,0l-0.1,0c-1-0.3-2-0.8-3-1.1c-0.7-0.3-1.1-0.9-1.7-1.4c-0.1-0.1-0.3-0.3-0.4-0.4c-0.5-1.1-0.7-2.3-1-3.5
		c0-0.2,0.2-0.2,0.3-0.1c0.4,1.1,0.7,2.2,1.2,3.2c0,0,0.8,0.7,0.8,0.7c0.3,0.3,0.7,0.6,1,0.8c0.2,0.1,0.7,0.2,0.8,0.3
		c0.7,0.3,1.5,0.5,2.2,0.7l-0.2,0c1.9,0.1,3.7,0.3,5.5-0.1c1.1-0.3,2.1-0.8,3.1-1.3c0.5-0.4,0.7-1.2,0.9-1.7
		C65.2,40.3,65.5,40.4,65.4,40.5L65.4,40.5z"></path>
</g><g>
	<path class="st2" d="M56.8,40.2c1.2,0,2.5,0.2,3.6-0.2c0.9-0.4,1.9-0.8,2.6-1.3c0,0,0.1-0.1,0.1-0.1c0.1-0.2,0.4-0.3,0.5-0.4
		c0.4-0.2,0.6-0.6,0.7-1.1c0.1-1,0.5-2,1-2.9c0.1-0.2,0.3,0,0.2,0.1c-0.6,0.9-0.8,1.8-0.9,2.8c0,0.5-0.4,1.1-0.9,1.4
		c-0.1,0.1-0.4,0.2-0.5,0.3c-0.8,0.7-1.9,1.1-2.8,1.6C59.4,41.1,58,41,56.7,41c-0.2,0-0.4-0.2-0.4-0.4
		C56.4,40.4,56.6,40.2,56.8,40.2L56.8,40.2z"></path>
</g><g>
	<path class="st2" d="M57.1,38c0.8,0.2,1.5,0.3,2.3,0c0.2,0,0.9-0.4,1-0.1c0,0.1,0,0.1-0.1,0.2c-0.6,0.1-1,0.5-1.5,0.6
		c-0.6,0.1-1.1,0-1.7-0.1c-0.1,0-0.2-0.2-0.2-0.3C56.8,38.1,56.9,38,57.1,38L57.1,38z"></path>
</g><g>
	<path class="st2" d="M57.3,35.5c1.2-0.4,2.4-0.7,3.5-1.3c1-0.6,1.6-1.8,2.3-2.8c0.5-0.7,0.7-1.5,0.9-2.3c0,0,1.1-2.2,1.1-2.2
		c0.1-0.2,0.3,0,0.2,0.1c0,0-1.1,2.3-1,2.2c-0.4,1.7-1.3,3.2-2.3,4.6c-0.5,0.7-1.4,1.1-2.2,1.5c-0.8,0.3-1.6,0.6-2.4,0.9
		c-0.2,0.1-0.4,0-0.4-0.2C57,35.8,57.1,35.6,57.3,35.5L57.3,35.5z"></path>
</g><g>
	<path class="st2" d="M58,31.3c0-0.3,0.2-0.2,0.4-0.3c0.5-0.1,1-0.2,1.5-0.2c0.1,0,0.1,0.1,0.1,0.1c0,0.1,0,0.1-0.1,0.1
		c-0.4,0.2-0.9,0.4-1.4,0.5c0,0-0.2,0.1-0.2,0.1C58.2,31.8,58,31.5,58,31.3L58,31.3z"></path>
</g><g>
	<path class="st2" d="M65.6,19.8c-0.3,0.8-0.6,1.8-0.6,2.7c0,0.3-0.1,0.3-0.1,0.5c-0.5,0.8-1,1.5-1.5,2.3c-1.4,1.4-3.1,2.2-4.8,3.2
		c0,0-0.2-0.2-0.2-0.2c-0.2-0.2-1.9-2.2-2-2.3c-0.9-2.4-1.2-5-1-7.6c0-0.1,0.1-0.1,0.1-0.1c0.1,0,0.1,0.1,0.1,0.1
		c0,0.9,0,1.8,0.1,2.6c0.2,1.4,0.6,3,1.1,4.4c0.1,0.2,0.1,0.3,0.3,0.4l1.8,1.9l-0.5-0.1c0.8-0.4,1.6-0.8,2.3-1.2
		c1.6-0.8,2.7-2.1,3.7-3.5c0.1-0.1,0.1-0.2,0.1-0.2c0-0.4,0.1-0.7,0.2-1.1c0.2-0.6,0.3-1.3,0.6-1.8C65.4,19.5,65.6,19.6,65.6,19.8
		L65.6,19.8z"></path>
</g><g>
	<path class="st2" d="M60.6,17.3c0.2-0.3,0.2-0.1,0.3-0.1c1.3,0.5,2.1-1,3-1.6c0.8-0.2-1,1.7-1.2,1.9c-0.4,0.5-1.2,0.7-1.8,0.5
		c-0.1,0-0.2,0-0.3-0.1c-0.1-0.1-0.2,0-0.2-0.3C60.5,17.4,60.5,17.4,60.6,17.3L60.6,17.3z"></path>
</g><g>
	<path class="st2" d="M59.9,20.5c-0.4-0.6-1.4-1.7-1.7-2.3c-0.4-1.4-0.4-3.2-0.4-4.7c0-0.2,0.3-0.2,0.3,0c-0.2,1.5-0.1,3.1,0.4,4.5
		c0.5,0.7,1.2,1.4,2,1.9c0.2,0.1,0.2,0.4,0.1,0.5C60.3,20.7,60,20.7,59.9,20.5L59.9,20.5z"></path>
</g><g>
	<path class="st2" d="M57.2,34.7c-1-0.5-2.2-0.9-2.8-1.9c-0.6-0.9-1.1-1.9-1.6-2.8c-0.3-0.4-0.8-0.7-1.1-1.3
		c-0.3-0.6-0.1-1.3,0.1-1.7c0-0.9-0.7-2.1-0.7-3.1c0,0,0-1.2,0-1.2c0-0.2,0.3-0.2,0.3,0c0,0,0,1.2,0,1.1c0.1,1.2,0.8,2,0.8,3.2
		c-0.1,0.5-0.3,1-0.1,1.5c0.2,0.4,0.7,0.7,1.1,1.2c0.8,1.2,1.2,2.4,2.2,3.3c0.7,0.4,1.4,0.8,2.1,1.1c0.2,0.1,0.3,0.3,0.2,0.5
		C57.6,34.7,57.4,34.8,57.2,34.7L57.2,34.7z"></path>
</g><g>
	<path class="st2" d="M56,41.2c-1.3-1.4-2.2-3-3.6-4.3c-0.5-1-0.9-1.9-1.5-2.8c-0.2-0.4-0.6-0.9-0.9-1.3c-0.5-0.6-0.6-1.6-0.7-2.3
		c0-0.2,0.3-0.2,0.3,0c0.1,0.8,0.1,1.5,0.7,2.2c0,0,0.5,0.6,0.5,0.6c0.8,1.1,1.4,2.2,2,3.4c1.4,1.2,2.4,2.8,3.7,4.1
		C56.8,41.1,56.3,41.6,56,41.2L56,41.2z"></path>
</g><g>
	<path class="st2" d="M58.6,50.9c-0.4-0.1-0.9-0.3-1.3-0.5c-0.2-0.1-1-0.2-1.3-0.3c0,0-0.5-0.1-0.5-0.1c-0.1,0-0.3,0-0.4-0.3
		c0-0.1,0-0.2,0.1-0.3c0.2-0.2,0.3-0.1,0.5-0.1l0.5,0.1l0.9,0.2c0.3,0,0.7,0.3,0.9,0.4C58.2,50.3,59.2,50.9,58.6,50.9L58.6,50.9z"></path>
</g><path class="st0" d="M76.3,30.1c-3.4,3.7-4.1,4.5-9.5,12.3c-3.8,5.4-6.2,8.7-9.3,13.8c0.1,0,0.1,0,0.1,0l0.8,1
	c0.7,1.4,1.5,3.3,3.5,2.4c2-0.9,7-2.4,8.2-3c1.2-0.6,2.9-1.3,3.5-2.1c0.6-0.7,1.5-2.3,2.1-3.2c0.6-0.9,1.6-2,2.2-2.7
	c0.5-0.7,2.1-4.7,2.4-6.3c0.3-1.5,0.9-3,1.1-3.3c0.3-0.4,1.9-1,2.9-3.3c1.1-2.3,2.4-6.5,2.7-8c0.3-1.5,0.7-5.1,0.6-5.9
	c-0.1-0.6-0.1-0.9-0.5-1.4c-2.8,2.1-1.8,0.9-4,2.7C80.9,25.1,79.7,26.4,76.3,30.1z"></path><path class="st3" d="M76.4,19.9c-2.9,0.8-10.2,4.8-11.9,5.9c-1.8,1.2-4.2,2.6-4.7,3.7c-0.5,1.1-1.4,4-2.3,5.1c-1,1.1-3.2,5.1-3,6.6
	c0.2,1.6,1.6,1.5,0.7,3c-0.9,1.5-2.2,3.2-2.5,4.3c-0.3,1.1-0.5,1.5,0,3.1c0.5,1.6,1.2,2.8,1.9,3.3s0.7,1.1,1.6,1.2
	c0.7,0,1.1,0.1,1.3,0.1c3.2-5.1,5.6-8.4,9.3-13.8c5.4-7.8,6.2-8.6,9.5-12.3c3.4-3.7,4.6-5,6.9-6.9c2.2-1.8,1.2-0.6,4-2.7
	c-0.2-0.2-0.4-0.4-0.8-0.6C85.1,19.2,79.2,19.2,76.4,19.9z"></path><g>
	<path class="st2" d="M84.9,22.2c-5.2,4.6-9.5,10.1-13.7,15.6c-3.6,4.9-7.1,9.8-10.4,14.9c0,0-0.7,1.1-0.7,1.1
		c-0.3,0.3-0.3,0.8-1.1,0.9l-0.2,0.1c-0.2,0.2-0.3,0.2-0.3,0.1c0,0-0.2-0.1-0.2-0.1c-0.1-0.1-0.4-0.2-0.5-0.3c-0.8,0-1.4-0.4-2-0.8
		c-0.5-0.6,1.4,0,1.7,0c0.6,0,0.8,0,1.3,0.3c0.2,0.1,0.3,0.1,0.2,0.5c0,0-0.2,0.1-0.2,0.1c-0.4-0.7,0.1-1,0.2-1.4
		c0.4-0.7,1.7-2.6,2.1-3.3c4.9-7.2,10.1-14.3,15.9-20.7c2.4-2.5,4.8-5.1,7.7-7.1C84.9,21.8,85.1,22.1,84.9,22.2L84.9,22.2z"></path>
</g><g>
	<path class="st2" d="M70,54.1c-0.5,0.3-1.4,0.9-1.8,1.1c-1,0.3-2.7,0.4-3.7,0.2c-0.9-0.3-1.8-0.3-2.8-0.5c-1.1-0.3-1.9-1-2.7-1.3
		L59,53.5l-2-2.6c-0.3-0.4-0.7-1-0.8-1.5c-0.2-0.5-0.3-1.1-0.4-1.6c0-0.2,0.2-0.3,0.3-0.1c0.2,0.7,0.5,1.6,0.9,2.2
		c0.3,0.3,2.4,2.6,2.7,3c0,0-0.2-0.1-0.2-0.1c1.2,0.5,1.8,1.4,3.1,1.5c0.7,0.1,1.5,0.3,2.1,0.5c0.9,0.3,1.8,0.1,2.7,0.2
		c0.7,0,1.8-0.8,2.5-1.1C70,53.8,70.2,54,70,54.1L70,54.1z"></path>
</g><g>
	<path class="st2" d="M74,51.4c-0.6,0.5-1.3,1.3-2.2,1.2c0,0-0.8,0-0.8,0c-3.4,0.3-6.4-1.4-9.5-2.5c-0.7-0.6-2.3-2.1-2.9-2.7
		c-0.6-0.7-0.9-1.6-1.3-2.3c-0.3-0.4-0.1-1-0.1-1.4c0.1-0.9,0.2-1.7,0.3-2.6c0-0.2,0.3-0.2,0.3,0c0,1.2-0.2,2.4-0.1,3.5
		c0,0,0-0.1,0,0l0.1,0.2c0.3,0.6,0.9,1.6,1.3,2.1c0,0,1,0.8,1,0.8l2,1.6l-0.1-0.1c1.9,1,3.8,2.1,5.9,2.6c1.3,0.3,2.7,0.4,4,0.4
		c0.8,0,1.4-0.7,2-1.1C73.9,51,74.1,51.3,74,51.4L74,51.4z"></path>
</g><g>
	<path class="st2" d="M64.6,46.8c1.5,0.7,3,1.6,4.7,1.7c1,0,2.2,0.2,3.1,0c0.6-0.1,1.3,0,1.7-0.4c0.4-0.4,0.6-0.9,1.1-1.4
		c0.5-0.4,1-0.7,1.5-1c0.1,0,0.2,0,0.2,0.1c0,0.1,0,0.2-0.1,0.2c-1.1,0.6-1.7,1.3-2.4,2.4c-0.4,0.6-1.2,0.6-1.7,0.6
		c-0.1,0-0.1,0-0.2,0C72.3,49,72,49,71.8,49c-1.5,0-3,0.2-4.4-0.2c-1.1-0.3-2.2-0.8-3.2-1.3c-0.2-0.1-0.3-0.4-0.2-0.6
		C64.1,46.7,64.4,46.6,64.6,46.8L64.6,46.8z"></path>
</g><g>
	<path class="st2" d="M65.8,45c0.8,0.5,1.6,1.1,2.6,1.1c0.3,0,0.7,0.1,1,0.2c0.1,0,0.1,0.1,0.1,0.2c0,0.1-0.1,0.1-0.2,0.1
		c-0.6-0.2-1.3-0.1-2-0.3c-0.7-0.2-1.2-0.5-1.8-0.9c-0.1-0.1-0.2-0.3-0.1-0.4C65.5,44.9,65.7,44.9,65.8,45L65.8,45z"></path>
</g><g>
	<path class="st2" d="M67.1,42.8c1.7,0.2,3.7,0.9,5.4,0.5c1.7-0.6,3.4-1.5,4.7-2.9c0,0,2.1-1.5,2.1-1.5c0.2-0.1,0.3,0.1,0.2,0.2
		c0,0-2.1,1.5-2.1,1.5l0,0c-1.3,1.5-3,2.4-4.8,3.1c-0.9,0.4-2,0.2-2.9,0.1c-0.9-0.1-1.9-0.2-2.8-0.4c-0.2,0-0.3-0.2-0.3-0.4
		C66.7,42.9,66.9,42.7,67.1,42.8L67.1,42.8z"></path>
</g><g>
	<path class="st2" d="M69.7,39.3c0.2-0.3,0.3-0.1,0.6-0.1c0.6,0.1,1.1,0.3,1.7,0.6c0.4,0.5-1,0.2-1.2,0.2c-0.2,0-0.7-0.1-0.9-0.2
		C69.6,39.9,69.5,39.5,69.7,39.3L69.7,39.3z"></path>
</g><g>
	<path class="st2" d="M82.8,32.6c-0.7,0.6-1.3,1.3-1.8,2c0,0,0,0.1,0,0.1c0,0,0-0.1,0,0.1c-0.3,0.6-1.3,0.8-1.9,1.2
		c-2.3,1.3-5.1,0.9-7.6,1c0,0-0.1-0.3-0.1-0.3c-0.1-0.2-1.1-2.8-1.2-2.9c-0.3-0.8,0.1-1.7,0.2-2.5c0.2-1.8,0.9-3.6,1.8-5.2
		c0.1-0.2,0.4,0,0.3,0.1c-1.1,2-1.5,4.2-1.7,6.4c0,0.3-0.1,0.6,0.1,0.8c0,0,1.2,2.6,1.3,2.7c0,0-0.4-0.3-0.4-0.3
		c3.1,0.1,6,0.3,8.7-1.4c0,0,0.1-0.1,0,0c0,0.1,0-0.1,0-0.1c0.5-0.8,1.3-1.6,2.1-2.2C82.8,32.3,83,32.5,82.8,32.6L82.8,32.6z"></path>
</g><g>
	<path class="st2" d="M78.4,27.8c0.3-0.2,0.3,0,0.4,0c1.1,1.1,2.7,0.3,4.1,0.1c0.2,0,0.3,0.2,0.1,0.3c-1.4,0.7-3.3,1.5-4.7,0.2
		c-0.1-0.1-0.2-0.1-0.1-0.4C78.3,27.9,78.3,27.9,78.4,27.8L78.4,27.8z"></path>
</g><g>
	<path class="st2" d="M76.3,30.5c-0.3-1.3-1.2-2.5-0.8-3.8c0.3-1.3,0.8-2.4,1.4-3.6c0-0.1,0.1-0.1,0.2-0.1c0.1,0,0.1,0.1,0.1,0.2
		c-0.3,0.6-0.6,1.1-0.9,1.7c-0.3,0.6-0.3,1.2-0.5,1.8c-0.2,0.6,0,1.2,0.3,1.8c0.3,0.6,0.6,1.1,1,1.7c0.1,0.2,0.1,0.5-0.1,0.6
		C76.7,30.9,76.4,30.7,76.3,30.5L76.3,30.5z"></path>
</g><g>
	<path class="st2" d="M67.4,42c-0.7-0.8-1.4-1.5-2-2.4c-0.5-1.3-0.6-2.6-0.8-4c-0.1-0.7-1.1-1.7-0.5-2.6c0.1-0.3,0.4-0.6,0.6-0.7
		c0.3-0.3,0.2-0.9,0.3-1.5c0-0.6,0.1-1.2,0.3-1.8c0,0,0.5-1,0.5-1c0.1-0.2,0.4-0.1,0.3,0.1c0,0-0.5,1.1-0.5,1.1
		c-0.2,0.7-0.2,1.7-0.2,2.5c0.1,0.7-0.6,1-0.8,1.6c-0.2,0.5,0.1,1,0.3,1.4c0.7,1.2,0.6,2.9,1.1,4.3c0.4,0.9,1.4,1.8,2.1,2.5
		c0.2,0.2,0.2,0.4,0,0.6C67.8,42.2,67.6,42.2,67.4,42L67.4,42z"></path>
</g><g>
	<path class="st2" d="M63.3,47.4c-0.7-1.5-1-3.2-1.8-4.7c-0.2-0.4-0.4-0.8-0.5-1.3c0-1-0.2-1.9-0.3-2.9c-0.1-0.8-0.5-1.6-0.6-2.5
		c0.1-0.6,0.2-1.1,0.4-1.7c0.1-0.2,0.4-0.1,0.3,0.1c-0.2,0.5-0.3,1.1-0.3,1.6c0.1,0.7,0.5,1.6,0.7,2.4c0.1,0.9,0.4,1.6,0.4,2.5
		c0,0.3,0,0.5,0.1,0.7c1,1.7,1.5,3.7,2.3,5.4C64.2,47.6,63.5,47.9,63.3,47.4L63.3,47.4z"></path>
</g><g>
	<path class="st2" d="M62.1,57.5c-0.4-0.3-0.8-0.7-1.2-1.1c-0.3-0.2-1-0.7-1.3-0.9c0,0-0.5-0.3-0.5-0.3c-0.1-0.1-0.3-0.2-0.3-0.5
		c0-0.1,0.1-0.2,0.2-0.2c0.3-0.1,0.4,0,0.6,0.1l0.4,0.3l0.9,0.7c0.3,0.2,0.6,0.6,0.8,0.8C61.8,56.6,62.8,57.7,62.1,57.5L62.1,57.5z"></path>
</g><path class="st0" d="M21.2,62.5C26,61,27,60.7,36.4,59C43,57.8,47,57,53,56.2c0,0.1,0,0.1,0,0.1l0.6,1.2c1,1.2,2.4,2.7,0.8,4.2
	c-1.6,1.4-5.1,5.3-6.2,6.2c-1,0.8-2.4,2-3.3,2.3c-0.9,0.3-2.7,0.4-3.8,0.6c-1,0.2-2.5,0.7-3.3,0.8c-0.9,0.2-5.2-0.1-6.8-0.4
	c-1.5-0.3-3.1-0.4-3.5-0.3c-0.4,0.1-1.7,1.3-4.3,1.3s-7-0.5-8.5-0.8c-1.5-0.3-5.1-1.4-5.7-1.9c-0.5-0.3-0.8-0.4-1.1-1
	c3.1-1.7,1.6-1.3,4.1-2.5C14.7,64.7,16.4,64.1,21.2,62.5z"></path><path class="st3" d="M11.8,58.4c1.9-2.3,8.6-7.2,10.4-8.3c1.8-1.1,4.1-2.7,5.3-2.7c1.2,0,4.3,0.4,5.7,0c1.4-0.4,6-0.8,7.4,0
	c1.4,0.8,0.8,2,2.5,1.9c1.7-0.2,3.9-0.7,5-0.5c1.1,0.2,1.6,0.2,2.9,1.3c1.3,1.1,2.1,2.2,2.2,3c0.2,0.8,0.8,1.1,0.4,1.9
	c-0.2,0.6-0.4,1-0.5,1.2C47,57,43,57.8,36.4,59C27,60.7,26,61,21.2,62.5c-4.8,1.5-6.5,2.1-9.2,3.4c-2.6,1.2-1.1,0.8-4.1,2.5
	c-0.1-0.2-0.2-0.5-0.2-1C7.5,66,9.9,60.7,11.8,58.4z"></path><g>
	<path class="st2" d="M10.2,66.8c11.8-5.8,25.1-8.1,38-10.2c0,0,1.3-0.2,1.3-0.2c0.4,0,0.9-0.3,1.4,0.4l-0.1,0.2
		c-0.4,0-0.3-0.1-0.4-0.4c-0.1-0.5,0-0.8,0.3-1.3c0.1-0.5,0.3-1,0.4-1.5c0-0.2,0.3-0.1,0.3,0c0,0.7,0.2,1.4-0.1,2.2
		c0,0,0,0.4,0.1,0.5c0,0.2,0.1,0.2-0.2,0.4c0,0-0.1,0.2-0.1,0.2c-0.4,0.7-0.8,0.5-1.2,0.6l-1.3,0.2c-9.5,1.4-19,3.2-28.2,5.7
		c-3.4,0.9-6.7,2-9.9,3.5C10.2,67.1,10,66.8,10.2,66.8L10.2,66.8z"></path>
</g><g>
	<path class="st2" d="M45.7,66.5c0.4-0.3,1.3-0.9,1.7-1.2c0.5-0.7,1.2-2.2,1.3-3c0-0.9,0.3-1.9,0.5-2.8c0.1-1-0.3-1.7-0.2-2.8
		c0-0.1,0,0.2,0,0.2c0,0-1.4-3-1.4-3c-0.4-1.1-1.2-1.7-2-2.4c-0.1-0.1-0.1-0.1,0-0.2c0.1-0.1,0.1-0.1,0.2,0c0.5,0.3,0.9,0.7,1.3,1
		c0.4,0.3,0.8,0.9,1.1,1.4c0,0,1.6,2.9,1.6,2.9c0.1,0.1,0,0.1,0,0.2c0,0.7,0.3,1.8,0.1,2.8c-0.1,0.5-0.3,0.9-0.4,1.4
		c-0.2,0.9-0.2,2-0.8,2.8c-0.5,0.8-0.8,1.8-1.8,2.2c0,0-1.2,0.8-1.2,0.8C45.7,66.8,45.6,66.6,45.7,66.5L45.7,66.5z"></path>
</g><g>
	<path class="st2" d="M41.6,68.9c0.6-0.4,1.5-0.6,1.8-1.3c0.5-1.2,1.1-2.5,1.3-3.8c0.4-2.1,0.2-4.3,0-6.4c0,0,0,0.2,0,0.2
		c-0.2-0.8-0.8-2.9-1-3.7c-0.2-0.6-1-1.5-1.4-2c0,0-0.1-0.1-0.1-0.1c0.1,0.1,0,0,0,0c-1-0.5-2.2-0.9-3.2-1.3
		c-0.2-0.1-0.1-0.3,0.1-0.3c0.8,0.2,1.7,0.5,2.5,0.7c0.4,0.2,0.9,0.2,1.3,0.7c0.5,0.7,1.2,1.3,1.6,2.1c0.3,0.8,1,2.9,1.3,3.8
		c-0.3,2.2,0.1,4.4-0.5,6.6c-0.3,1.4-0.9,2.6-1.5,3.8c-0.3,0.8-1.3,1.1-2,1.4C41.6,69.2,41.4,69,41.6,68.9L41.6,68.9z"></path>
</g><g>
	<path class="st2" d="M42.2,58.8c0,1.7,0.1,3.6-0.7,5.2c-0.5,0.9-0.8,2.1-1.5,2.9c-0.3,0.5-0.6,1.3-1.4,1.5
		c-1.2,0.2-2.2,0.4-3.1,1.1c-0.2,0.1-0.3-0.1-0.2-0.2c0.5-0.3,0.9-0.7,1.5-0.9c0.6-0.2,1.1-0.2,1.7-0.4c0.6-0.1,0.8-0.8,1.1-1.3
		c0.6-0.6,0.9-2,1.3-2.8c0.7-1.6,0.5-3.2,0.4-4.9C41.3,58.2,42.1,58.2,42.2,58.8L42.2,58.8z"></path>
</g><g>
	<path class="st2" d="M39.7,59.1c0.1,0.7,0.1,1.3,0.1,2c-0.1,0.7-0.5,1.2-0.6,1.9c0,0.1-0.1,0.1-0.2,0.1c-0.1,0-0.1-0.1-0.1-0.2
		c0-0.7,0.4-1.3,0.4-1.9c0-0.6-0.1-1.3-0.2-1.9C39.1,58.8,39.7,58.7,39.7,59.1L39.7,59.1z"></path>
</g><g>
	<path class="st2" d="M37.3,59.7c-0.6,1.8-0.9,3.8-2.1,5.3c-1.1,1-2.2,1.9-3.5,2.5c-0.4,0.2-1,0.4-1.3,0.5c0,0-2.2,1.2-2.2,1.2
		C28,69.2,27.8,69,28,68.9c0,0,2.2-1.3,2.2-1.3c1.8-0.5,3.3-1.7,4.5-3c1.1-1.4,1.3-3.4,1.8-5.1C36.7,59,37.4,59.2,37.3,59.7
		L37.3,59.7z"></path>
</g><g>
	<path class="st2" d="M32.7,60.4c0.3,0.2,0.1,0.3,0.1,0.6c-0.1,0.6-0.3,1.1-0.6,1.7c0,0.1-0.1,0.1-0.2,0.1c-0.1,0-0.1-0.1-0.1-0.1
		c0-0.6,0.1-1.2,0.2-1.7l0-0.3C32.1,60.3,32.4,60.3,32.7,60.4L32.7,60.4z"></path>
</g><g>
	<path class="st2" d="M20.7,69.2l0.6-0.3l0,0l0,0c0.8-0.2,1.6-0.7,2.4-0.7c-0.1,0,0,0,0,0c0.1,0,0.2-0.1,0.3-0.2
		c0.7-0.6,1.5-1.3,2.1-1.9c1-1.5,1.8-3.4,2.5-5.2c0,0,0.1,0.5,0.1,0.5c-0.1-0.1-2-2.3-2-2.3c-0.2-0.2-0.5-0.3-0.8-0.4
		c-1.3-0.4-2.6-0.9-3.9-1.1c-0.9-0.1-1.8-0.1-2.7-0.1c-0.1,0-0.2-0.1-0.2-0.1c0-0.1,0.1-0.1,0.1-0.2c1.8-0.2,3.7-0.1,5.5,0.5
		c0.8,0.2,1.8,0.3,2.4,0.9c0,0,2.1,2.1,2.2,2.2c0,0,0.2,0.2,0.2,0.2l-0.1,0.3c-0.9,1.8-1.6,3.6-2.9,5.2c-0.8,0.8-1.5,1.3-2.3,1.9
		c-0.2,0.1-0.4,0.3-0.7,0.2c-0.7,0.1-1.5,0.3-2.1,0.6c0.1,0-0.6,0.3-0.5,0.3C20.6,69.5,20.5,69.3,20.7,69.2L20.7,69.2z"></path>
</g><g>
	<path class="st2" d="M18.5,63.4c0.4,0,0.3,0.1,0.3,0.2c0.6,1.8-1,3.1-2.1,4.1c-0.1,0.1-0.3-0.1-0.2-0.2c0.5-0.7,1-1.3,1.4-2
		c0.4-0.6,0.4-1.1,0.2-1.7c0-0.1-0.2-0.1,0.1-0.3C18.3,63.4,18.4,63.4,18.5,63.4L18.5,63.4z"></path>
</g><g>
	<path class="st2" d="M20.9,63.2c-0.5-0.8-1.1-1.6-1.8-2.2c-0.5-0.4-1.2-0.3-1.8-0.5c-0.3-0.1-0.6-0.1-0.9-0.1c-0.6,0-1.3,0-1.9,0.1
		c-0.2,0-0.2-0.3,0-0.3c1.6,0,3.3-0.1,4.9,0.5c0.8,0.6,1.5,1.3,2.2,1.9c0.2,0.2,0.2,0.4,0,0.6C21.3,63.5,21,63.5,20.9,63.2
		L20.9,63.2z"></path>
</g><g>
	<path class="st2" d="M35.1,59.7c-0.4-0.9-0.8-2.3-1.5-3c-0.9-0.7-1.8-1.4-2.8-2c-0.7-0.5-0.9-1.5-1.8-1.6c-0.6,0-1.2,0.4-1.8,0.1
		c-0.7-0.3-1.7-0.7-2.4-0.8c0,0-1.2,0-1.2,0c-0.2,0-0.2-0.3,0-0.3c0,0,1.2,0,1.2,0c0.6,0.1,1.2,0.2,1.8,0.4c0.6,0.2,1.1,0.5,1.5,0.4
		c0.6-0.3,1.4-0.4,1.9,0.1c0.5,0.4,0.8,1,1.2,1.2c1.1,0.7,2.3,1.4,3.3,2.4c0.6,0.9,1,1.9,1.4,2.8c0.1,0.2,0,0.4-0.2,0.5
		C35.4,60,35.1,59.9,35.1,59.7L35.1,59.7z"></path>
</g><g>
	<path class="st2" d="M41.9,58.4c-1.1-1.3-2.5-2.4-3.5-3.7c-0.3-0.3-0.5-0.7-0.8-0.9c-0.8-0.3-1.5-0.9-2.1-1.4
		c-0.8-0.5-1.6-1.4-2.3-1.8c-0.5-0.2-1.1-0.3-1.6-0.4c-0.2,0-0.2-0.3,0-0.3c0.8,0.1,1.9,0.2,2.5,0.8c0,0,0.7,0.5,0.7,0.5
		c0.9,0.7,2,1.4,3,1.9c1,0.5,1.4,1.6,2.4,2.2c0.9,0.7,1.7,1.6,2.5,2.4c0.2,0.2,0.1,0.4,0,0.5C42.3,58.6,42,58.6,41.9,58.4L41.9,58.4
		z"></path>
</g><g>
	<path class="st2" d="M52,61.1c-0.4-0.6-0.9-1.3-1-2c-0.1-0.4-0.3-1.3-0.3-1.6c-0.1-0.3,0-0.7,0.4-0.6c0.3,0.1,0.3,0.3,0.3,0.5
		l0.1,0.5c0.1,0.3,0.2,1.2,0.3,1.6c0.2,0.5,0.4,1,0.5,1.5C52.3,61.2,52.1,61.3,52,61.1L52,61.1z"></path>
</g><path class="st0" d="M64.9,80.6c-0.7-4-0.9-4.8-3.4-11.9c-1.8-4.9-2.8-8-4.7-12.3c-0.1,0.1-0.1,0.1-0.1,0.1l-1.3,0.2
	c-1.4,0-3.3-0.1-3.9,1.7c-0.5,1.8-2.4,6.2-2.6,7.4c-0.3,1.1-0.7,2.7-0.5,3.4c0.2,0.8,0.8,2,1.1,2.8c0.3,0.8,0.5,2,0.7,2.6
	c0.2,0.7,2.3,3.4,3.2,4.2c0.9,0.8,1.7,1.8,1.8,2.1c0.1,0.3-0.4,1.8,0.7,3.5s3.4,4.3,4.3,5.1c0.9,0.8,3.4,2.5,4,2.7
	c0.5,0.2,0.7,0.3,1.3,0.2c0.1-2.9,0.4-1.7,0.4-4.1C65.8,86,65.6,84.5,64.9,80.6z"></path><path class="st6" d="M72.4,84.5c1.1-2.5,2.5-9.5,2.7-11.3c0.2-1.8,0.6-4.2,0.1-4.9c-0.5-0.8-2.2-2.6-2.4-3.7
	c-0.2-1.1-1.8-4.4-3.1-4.8c-1.3-0.4-2.1,0.6-2.6-0.6c-0.6-1.2-1.1-2.9-1.7-3.5c-0.6-0.6-0.8-1-2.3-1.2c-1.5-0.2-2.7-0.2-3.5,0.2
	c-0.8,0.3-1.3,0.1-1.8,0.8c-0.4,0.5-0.7,0.8-0.9,1c1.9,4.3,2.9,7.4,4.7,12.3c2.6,7.1,2.7,7.9,3.4,11.9c0.7,4,1,5.4,1,7.8
	c0,2.4-0.2,1.1-0.4,4.1c0.2-0.1,0.5-0.2,0.9-0.4C67.7,91.4,71.2,87,72.4,84.5z"></path><g>
	<path class="st2" d="M65.7,90.1c-0.7-10.3-4.5-20.3-8.3-29.9c0,0-0.4-0.9-0.4-0.9c-0.1-0.3-0.4-0.5,0-1.1l0.1-0.2
		c-0.1-0.4,0-0.3,0.2-0.4l0.3-0.2c0.1,0,0.2-0.1,0.2-0.1c0.5-0.6,1.1-0.9,1.7-1.2c0.1,0,0.1,0,0.2,0.1c0,0.1,0,0.1,0,0.2l-1.1,1.1
		c-0.4,0.5-0.6,0.7-1.1,1c-0.1,0-0.1,0-0.3-0.2c0,0,0.1-0.2,0.1-0.2c0.7,0,0.7,0.5,0.9,0.8l0.4,1c2.9,7.1,5.3,14.4,6.7,22
		c0.5,2.8,0.9,5.5,0.8,8.3C65.9,90.2,65.7,90.2,65.7,90.1L65.7,90.1z"></path>
</g><g>
	<path class="st2" d="M50.8,66.6c0.1-0.5,0.1-1.6,0.3-2.1c0.6-1,1.2-2,2.1-2.7c0.8-0.6,1.2-1.2,2-1.9c0.7-0.6,1.7-0.9,2.3-1.4
		l0.1-0.1l0.1,0c0.6-0.1,3.3-0.5,3.8-0.6c0.8,0,1.6,0.2,2.4,0.4c0.2,0,0.1,0.3-0.1,0.3c-0.7-0.1-1.5-0.2-2.2-0.2
		c-0.4,0.1-3.2,0.8-3.8,0.9c0,0,0.2-0.1,0.2-0.1c-0.8,0.6-1.6,0.7-2.4,1.3c-1.5,1.4-2.6,2-3.8,3.7c-0.6,0.6-0.6,1.7-0.7,2.5
		C51.1,66.8,50.8,66.8,50.8,66.6L50.8,66.6z"></path>
</g><g>
	<path class="st2" d="M50.5,70.7c0-0.8-0.1-1.8,0.5-2.3c0,0,0.5-0.6,0.5-0.6c1.3-1.7,2.9-3.2,4.7-4.3c0.8-0.5,1.8-1.3,2.6-1.8
		c0,0,0.1,0,0.1,0c0,0,2.2-0.7,2.2-0.7l1.1-0.4c0.8-0.3,1.6-0.2,2.4-0.2c0.3,0,0.4,0,0.7,0c0.2,0.1,0.4,0.2,0.6,0.3
		c0.7,0.4,1.3,0.9,1.9,1.4c0.1,0,0.1,0.1,0,0.2c0,0.1-0.1,0.1-0.2,0c-0.8-0.5-1.6-1-2.5-1.4c-0.5,0-1.1,0-1.7,0.1
		c-0.7,0-1.5,0.4-2.2,0.6c0,0-2.2,0.8-2.2,0.8l0.1,0c-0.4,0.3-0.9,0.5-1.4,0.8c-1.3,0.8-2.8,1.6-3.9,2.6c-1,0.8-1.8,1.8-2.7,2.8
		c-0.6,0.6-0.5,1.3-0.5,2.1C50.8,70.8,50.5,70.8,50.5,70.7L50.5,70.7z"></path>
</g><g>
	<path class="st2" d="M59.5,65.4c-1.3,0.8-2.8,1.5-3.8,2.7c-0.6,0.7-1.5,1.7-2,2.4c-0.1,0.3-0.2,0.4-0.4,0.7c-0.6,0.6-0.2,1.3,0,2.1
		c0.1,0.6,0,1.1-0.1,1.6c0,0.2-0.3,0.1-0.3,0c0.1-0.5,0.2-1.1,0.1-1.5c-0.1-0.5-0.5-1-0.4-1.6c0.1-0.6,0.6-1,0.7-1.5
		c0.3-0.5,0.6-0.9,1-1.3c0.6-0.7,1.4-1.9,2.2-2.4c0.9-0.7,1.8-1.2,2.7-1.8c0.2-0.1,0.4-0.1,0.5,0.1C59.8,65.1,59.7,65.3,59.5,65.4
		L59.5,65.4z"></path>
</g><g>
	<path class="st2" d="M60.1,67c-0.9,0.4-1.7,0.8-2.4,1.5c-0.2,0.2-0.5,0.5-0.7,0.7c-0.1,0-0.1,0-0.2,0c0-0.1,0-0.1,0-0.2
		c0.9-1,1.8-1.9,3.1-2.4C60.2,66.4,60.4,66.9,60.1,67L60.1,67z"></path>
</g><g>
	<path class="st2" d="M60.9,68.9c-1.2,1.1-2.6,2.3-3.4,3.6c-0.6,1.5-1.1,3.3-0.8,4.9c0,0-0.2,2.1-0.2,2.1c0,0.2-0.3,0.2-0.3,0
		c0,0,0.1-2.1,0.1-2.1c-0.4-1.5,0-3.5,0.7-5.1c0.9-1.6,2.2-2.6,3.4-3.9C60.8,68.1,61.2,68.6,60.9,68.9L60.9,68.9z"></path>
</g><g>
	<path class="st2" d="M62,72.1c0.1,0.2,0,0.3-0.1,0.3c-0.1,0.1-0.5,0.4-0.7,0.6c-1.3,1.1-1.6,0.8-0.4-0.4c0.1-0.1,0.5-0.5,0.6-0.6
		C61.6,71.7,61.9,71.8,62,72.1L62,72.1z"></path>
</g><g>
	<path class="st2" d="M59.2,84.5c0-0.7-0.2-1.5-0.4-2.2c-0.2-0.2-0.1-0.7-0.1-0.9c0.4-2.7,2.2-4.8,3.8-7c0,0,0.1-0.2,0.1-0.2l0.2,0
		c0.4,0,2.5,0.2,2.8,0.2c0.7,0.1,1.1,0.6,1.6,1c1.2,0.9,2.3,2.1,2.9,3.5c0,0.1,0,0.1,0,0.2c-0.1,0-0.1,0-0.2,0
		c-0.4-0.6-0.8-1.3-1.3-1.8c-0.9-0.7-2-1.7-3.1-2.1c-0.4,0-2.4-0.1-2.8-0.1c0,0,0.3-0.1,0.3-0.1c-0.6,0.7-1.1,1.3-1.7,2
		c-0.6,0.8-1.4,1.7-1.8,2.6c-0.2,0.8-0.6,1.7-0.7,2.4c0,0,0,0,0,0c0.2,0.2,0.2,0.4,0.3,0.7c0.1,0.6,0.2,1.2,0.2,1.9
		C59.4,84.7,59.2,84.7,59.2,84.5L59.2,84.5z"></path>
</g><g>
	<path class="st2" d="M65.3,83c0,0.3-0.1,0.2-0.2,0.3c-0.6,0.2-1.1,0.5-1.4,1c-0.4,0.6-0.7,1.3-1.1,2c0,0.1-0.1,0.1-0.2,0.1
		c-0.1,0-0.1-0.1-0.1-0.2c0.4-1.3,0.8-3,2.3-3.5c0,0,0.3-0.1,0.3-0.1c0.1,0,0.2-0.2,0.4,0.1C65.3,82.9,65.3,83,65.3,83L65.3,83z"></path>
</g><g>
	<path class="st2" d="M64.5,80.4c1.1,0.3,2.3,0.1,3.2,0.8c0.8,0.8,1.5,1.6,2,2.6c0,0.1,0,0.1,0,0.2c-0.1,0-0.1,0-0.2,0
		c-0.4-0.7-0.7-1.5-1.3-2c-0.2-0.2-0.4-0.4-0.6-0.6c-0.8-0.6-2.1-0.3-3.1-0.2C63.9,81.2,63.9,80.3,64.5,80.4L64.5,80.4z"></path>
</g><g>
	<path class="st2" d="M61.2,69.3c1-0.2,1.9-0.5,3.1-0.6c1.1,0.2,2,0.5,3,0.8c0.8,0.4,1.5-0.1,2.3,0.4c0.3,0.2,0.4,0.5,0.4,0.8
		c0,0.3,0,0.4,0.2,0.6c0.6,0.4,1.4,0.8,1.9,1.4c0,0,0.5,0.8,0.5,0.8c0.1,0.1-0.1,0.3-0.2,0.1c0,0-0.5-0.8-0.5-0.8
		c-0.3-0.3-0.8-0.6-1.2-0.8c-0.3-0.2-0.8-0.3-1-0.8c-0.1-0.4-0.1-0.7-0.4-0.9C69,70,68.5,70.1,68,70.1c-1.2-0.1-2.5-0.7-3.7-0.8
		c-0.9,0.1-1.9,0.4-2.9,0.7C61,70.1,60.8,69.4,61.2,69.3L61.2,69.3z"></path>
</g><g>
	<path class="st2" d="M59.7,64.1c1.5,0,3,0.4,4.4,0.5c0.5,0,1-0.1,1.6,0.2c0.5,0.3,1.1,0.4,1.7,0.6c0.8,0.3,1.6,0.4,2.5,0.6
		c0.5,0.3,0.8,0.6,1.2,1c0.1,0.1-0.1,0.3-0.2,0.2c-0.8-1.2-2-1-3.3-1.3c-0.7-0.3-1.4-0.3-2.2-0.7c-0.3-0.2-0.8-0.1-1.3-0.1
		c-1.5,0-3-0.3-4.5-0.3C59.2,64.8,59.2,64.1,59.7,64.1L59.7,64.1z"></path>
</g><g>
	<path class="st2" d="M53,59.4c0.5-0.2,1-0.4,1.5-0.5c0.3-0.1,1.1-0.5,1.4-0.7c0,0,0.5-0.2,0.5-0.2c0.2-0.1,0.3-0.2,0.6,0
		c0.1,0.1,0.1,0.2,0.1,0.2c-0.1,0.3-0.2,0.3-0.4,0.4l-0.5,0.2c-0.4,0.2-1.1,0.5-1.5,0.6C54.5,59.4,52.4,59.9,53,59.4L53,59.4z"></path>
</g><path class="st0" d="M52.6,27.9c-2.2-3-3.2-2-5.2-2.4c-2-0.4-3.7-1.9-4.2-3.2c-0.5-1.2,0.3-3-1-5.7c-1.3-2.8-6.6-3.6-9-4.2
	c-2.3-0.6-3.5-0.9-4.7-0.3c1.8,2.2,5.3,6.3,6.5,8.1c1.4,2.3,12.3,18.6,12.6,19.1c0.3,0.4,6.5,10.4,8,14.8c0.2-0.3,0.4-0.7,0.2-1.1
	c-0.4-1,0.1-1.4,0.3-3c0.1-1.6,0.8-3.1,1.5-5.2c0.7-2.1,0.2-4.7-0.8-8.7C55.8,32,54.8,30.8,52.6,27.9z"></path><path class="st6" d="M47.6,39.2c-0.4-0.5-11.2-16.8-12.6-19.1c-1.2-1.8-4.7-5.9-6.5-8.1c0,0-0.1,0-0.1,0.1c-1.2,0.6-0.8,2.7-0.6,3.6
	c0.2,0.9,0.5,5.7,0.6,7.9c0.1,2.1,1.7,3.8,2.4,5.3c0.8,1.5,4.3,4.2,5,6.5c0.6,2.3,0.1,5.1,0.6,6.2s0.7,2.4,2.6,3
	c2,0.6,2.4,1.2,2.9,2.5s0.9,2.4,2.7,3.4c1.8,1,3.2-0.2,5.7,0.4c2.5,0.6,3.5,2.7,4.6,3.9c0,0,0.5-0.3,0.8-0.7
	C54.1,49.6,47.9,39.6,47.6,39.2z"></path><g>
	<path class="st2" d="M30.3,13.8c5.2,4.7,9.2,10.5,13.1,16.3c3.4,5.1,6.5,10.4,9.4,15.7c0,0,0.6,1.2,0.6,1.2
		c0.2,0.4,0.6,0.7,0.1,1.4c0,0-0.2-0.1-0.2-0.1c-0.1-0.4,0-0.4,0.1-0.4c0.4-0.2,0.8-0.4,1.3-0.2c0.2,0,0.6,0,0.8,0.1
		c0.1,0,0.2,0.1,0.2,0.2c-0.1,0.3-1,0.6-1.3,0.5c-0.1,0-0.5,0.2-0.6,0.3c-0.1,0-0.1,0.1-0.4-0.1l-0.2-0.1c-0.8-0.1-0.8-0.6-1-0.9
		l-0.6-1.2C47.1,38,42.2,29.8,36.7,22c-2-2.8-4.2-5.5-6.6-8C29.9,13.9,30.1,13.7,30.3,13.8L30.3,13.8z"></path>
</g><g>
	<path class="st2" d="M42.5,46.8c0.6,0.4,1.7,1.3,2.4,1.3c0.9,0,1.8,0.3,2.7,0.1c0.4-0.1,0.9-0.2,1.4-0.3c0.9,0,1.8-0.1,2.6-0.6
		c0.4-0.2,0.8-0.5,1.4-0.7l-0.2,0.1l2.4-2.3c0.9-0.7,1.2-1.7,1.6-2.7c0-0.1,0.1-0.1,0.2-0.1c0.1,0,0.1,0.1,0.1,0.2
		c-0.2,0.5-0.3,1.1-0.5,1.6c-0.2,0.5-0.6,1.1-1,1.4c0,0-2.2,2.4-2.2,2.4c-0.1,0.1-0.1,0.1-0.2,0.1c-0.7,0.2-1.6,0.9-2.6,1.1
		c-1,0.1-1.9,0-2.8,0.3c-1,0.2-2.7-0.1-3.7-0.4c-0.5-0.3-1.3-1-1.7-1.3C42.1,47,42.3,46.7,42.5,46.8L42.5,46.8z"></path>
</g><g>
	<path class="st2" d="M39.1,42.9c0.7,0.5,1.4,1.2,2.2,1.6c0,0,0.4,0,0.4,0c0.5,0,1.1,0.1,1.7,0.3c0.3,0.1,0.5,0.3,0.7,0.2
		c0.2,0,0.5-0.1,0.7-0.1c1.9-0.2,4.7-1.6,5.9-2c0,0,2.1-1.5,2.1-1.5c0.3-0.2,0.7-0.5,1.1-0.7c0.5-0.4,1.1-1.4,1.5-2
		c0,0,0.1-0.1,0.1-0.1c0-0.1,0,0,0,0c0.2-1.1,0.1-2.4,0.2-3.5c0-0.2,0.3-0.2,0.3,0c0,0.9,0.1,1.7,0.1,2.6c0,0.5,0.1,1-0.2,1.4
		c-0.5,0.7-0.9,1.6-1.5,2.2c-0.7,0.5-2.4,1.8-3,2.4c0,0-0.1,0.1-0.1,0.1c-1.1,0.2-2.1,0.6-3.1,0.9c-1.3,0.5-2.7,0.8-4.1,0.9
		c-0.9-0.2-1.1-0.6-2.3-0.7c-0.3,0-0.7-0.1-0.8-0.2c-0.7-0.5-1.3-1-1.9-1.5C38.7,43,38.9,42.8,39.1,42.9L39.1,42.9z"></path>
</g><g>
	<path class="st2" d="M48.6,40.9c-1.4,0.5-2.8,1-4.2,1.2c-1.4-0.1-2.8,0-4.1-0.4c-0.6-0.1-1.4-0.1-1.9-0.8c-0.6-1.1-1.1-1.9-2.2-2.5
		c-0.2-0.1,0-0.4,0.2-0.2c0.5,0.3,1,0.6,1.4,1.1c0.7,0.9,0.9,2,2.3,1.9c0.1,0,0.3,0.1,0.4,0.1c0.1,0,0.3,0.1,0.4,0.1
		c1.4,0.1,2.8,0.3,4.2,0c1.1-0.3,2.1-0.7,3.2-1.1C48.8,39.9,49.1,40.7,48.6,40.9L48.6,40.9z"></path>
</g><g>
	<path class="st2" d="M47.5,38.8c-0.6,0.3-1.2,0.6-1.9,0.7c-0.7,0.2-1.3,0-2,0.1c-0.1,0-0.2,0-0.2-0.1c0-0.1,0-0.2,0.1-0.2
		c0.3-0.1,0.7-0.1,1-0.1c1,0,1.8-0.4,2.6-0.9C47.5,38,47.8,38.6,47.5,38.8L47.5,38.8z"></path>
</g><g>
	<path class="st2" d="M46.2,36.7c-1.9,0-3.9,0.5-5.7-0.2c-1.7-0.9-3.4-1.9-4.5-3.5c0.1,0.1-1.9-1.7-1.9-1.7c-0.1-0.1,0-0.4,0.2-0.2
		c0,0,2,1.6,2,1.6c1.1,1.5,2.8,2.5,4.4,3.2c1.7,0.6,3.7,0.1,5.4,0C46.6,35.9,46.6,36.7,46.2,36.7L46.2,36.7z"></path>
</g><g>
	<path class="st2" d="M43.9,32.6c-0.1,0.3-0.3,0.2-0.6,0.3c-0.6,0.1-1.2,0.1-1.8,0c-0.6-0.3,0.9-0.5,1.1-0.6c0.2,0,0.7-0.1,0.9-0.2
		C43.7,32.1,43.9,32.4,43.9,32.6L43.9,32.6z"></path>
</g><g>
	<path class="st2" d="M31.5,24.4c0.5,0.4,1,1,1.4,1.6c0.2,0.2,0.5,0.6,0.5,0.9c0.7,0.5,2,1.2,2.8,1.5c1.8,0.4,3.8,0.5,5.7,0.6
		c0,0-0.4,0.2-0.4,0.2l1.4-2.5c0.3-0.5,0.5-1.2,0.4-1.8c-0.1-0.1-0.3-0.1-0.5-0.2c-1-0.6-1.2-1.7-1.4-2.7c-0.2-1,0.2-2,0.5-2.9
		c0.1-0.2,0.3-0.1,0.3,0.1C42.1,20,41.8,21,42,21.9c0.2,0.9,0.5,1.9,1.2,2.3c0.3,0.1,0.6,0.2,0.7,0.5c0.3,0.8,0,1.6-0.3,2.4
		c-0.1,0.2-1.4,2.8-1.4,2.9c0,0-0.3,0-0.3,0c-3.2-0.3-6.3-0.5-8.8-2.7c-0.1-0.1-0.1-0.1-0.2-0.3c-0.2-0.6-0.8-1.3-1.3-1.9
		c0.1,0.1-0.4-0.4-0.4-0.4C31.2,24.5,31.4,24.2,31.5,24.4L31.5,24.4z"></path>
</g><g>
	<path class="st2" d="M36.3,20.4c0.1,0.3,0,0.3-0.1,0.4c-0.6,0.5-1.6,0.7-2.3,0.4c-0.3-0.1-3.1-1.1-2.2-1.3c1.3,0.3,2.9,1.3,4.1,0.3
		c0.1,0,0.1-0.2,0.4,0C36.1,20.2,36.2,20.3,36.3,20.4L36.3,20.4z"></path>
</g><g>
	<path class="st2" d="M37.2,22.6c0.6-0.7,1.1-1.5,1.5-2.4c0.2-0.6-0.1-1.2-0.1-1.8c0-0.3-0.1-0.6-0.2-0.9c-0.2-0.6-0.5-1.2-0.8-1.8
		c-0.1-0.2,0.2-0.3,0.3-0.1c0.6,1.5,1.3,3.1,1.1,4.7c-0.3,1-0.8,1.8-1.1,2.7c-0.1,0.2-0.3,0.3-0.5,0.2C37.1,23.1,37,22.8,37.2,22.6
		L37.2,22.6z"></path>
</g><g>
	<path class="st2" d="M45.3,34.6c0.7-0.7,1.7-1.4,2.2-2.2c-0.2-0.3-0.5-0.7-0.3-1.1c0.2-0.6,1.1-0.9,1.2-1.4
		c-0.1-0.4-0.3-0.9-0.2-1.3c0.1-0.4,0.2-0.8,0.3-1.2l0.1-1.3c0-0.2,0.4-0.2,0.3,0c0,0.8-0.1,1.9-0.3,2.6c-0.1,0.4,0.2,0.8,0.2,1.2
		c0,0.6-0.5,1-0.8,1.3c-0.3,0.3-0.4,0.5-0.2,0.7c0,0.1,0.1,0.2,0.2,0.4c0.1,0.2,0,0.4,0,0.6c-0.6,1-1.5,1.7-2.3,2.5
		C45.5,35.6,44.9,35,45.3,34.6L45.3,34.6z"></path>
</g><g>
	<path class="st2" d="M48.9,40.5c0.8-1.4,1.3-2.8,2.1-4.3c0.3-0.5,0.6-0.9,0.7-1.3c0-1,0.6-2.1,0.6-3c0.2-1.1,0.1-2.1,0-3.2
		c0-0.2,0.3-0.2,0.3,0c0.1,1,0.2,2.2,0.1,3.2c0,0.3,0,0.6,0,0.9c-0.2,0.8-0.4,1.5-0.5,2.3c-0.4,1.1-1.1,1.7-1.4,2.9
		c-0.4,1-0.9,2-1.3,2.9c-0.1,0.2-0.3,0.3-0.5,0.2C48.8,41,48.7,40.7,48.9,40.5L48.9,40.5z"></path>
</g><g>
	<path class="st2" d="M49.7,50.8c0.4-0.5,0.9-1.1,1.4-1.5l0,0c0.1,0.1-0.2-0.1,0.1,0.5c0.4,0.1,0.2,0,0.3,0c0.1-0.1-0.2,0.2-0.2,0.3
		c0.2-0.2,0-0.6-0.3-0.5c0,0,0,0,0,0l1.1-0.7l0.6-0.4c0.2-0.1,0.3-0.3,0.7-0.2c0.1,0,0.2,0.1,0.2,0.3c0,0.4-0.3,0.4-0.4,0.5
		c-0.6,0.4-1.2,0.8-1.9,1.1c-0.3,0.1-0.5-0.2-0.4-0.5c0.1-0.1,0.1-0.1,0.2-0.2c0.1,0,0.2-0.1,0.2-0.2c0.1,0-0.1-0.1,0.3,0
		c0.3,0.6,0,0.4,0.1,0.5l0,0c-0.5,0.4-1.1,0.9-1.6,1.3C49.7,51.2,49.6,51,49.7,50.8L49.7,50.8z"></path>
</g><path class="st7" d="M91.2,76.3c1.6-1.5,1.6-3.3,0.7-7.1C91,65.5,88.8,59,86.7,56.7c-2.1-2.3-6.8-5.6-10.5-6.1
	c-3.7-0.5-9.5-0.3-10.6,0c-1,0.3-2.1,0.1-2.3,1c-0.2,0.9-0.6,3.1-0.6,3.1c-0.5,0.1-1,0.1-1.6,0C69.3,59.3,84.9,70.3,91.2,76.3z"></path><path class="st3" d="M58.1,56.8c-0.5,3.2,0.6,7.7,1.9,8.9c1.3,1.2,3.7,0.8,5.7,0.8c2,0.1,5.5,4,9.5,6.4c4.1,2.4,6.9,3.1,9.6,3.1
	c2.7,0,4.7,1.9,6.4,0.3c-6.4-6-21.9-17.1-30.1-21.7C59.8,54.6,58.5,54.5,58.1,56.8z"></path><g>
	<path class="st2" d="M89.7,75.5c-7.4-7.3-16.4-12.8-25.2-18.2c0,0-0.9-0.5-0.9-0.5c-0.3-0.2-0.7-0.2-0.7-0.8l0-0.2
		c-0.1-0.2-0.1-0.2-0.1-0.2c0-0.1,0.2-0.2,0.2-0.3c0.1-0.2,0-0.3,0.1-0.5c0.1-0.4,0.3-0.8,0.5-1.1c0-0.1,0.1-0.1,0.2,0
		c0.1,0.3-0.1,0.9-0.1,1.3c0.1,0.4,0,0.6-0.2,1c-0.1,0.2-0.1,0.2-0.4,0.1c0,0,0-0.2,0-0.2c0.6-0.3,0.8,0,1.1,0.2l0.9,0.5
		c6.6,4,12.9,8.2,18.9,13.1c2.1,1.8,4.2,3.7,6,5.8C90,75.4,89.8,75.6,89.7,75.5L89.7,75.5z"></path>
</g><g>
	<path class="st2" d="M63.7,64c-0.3-0.5-1.1-1.3-1.1-1.8c-0.2-1.3-0.2-1.9,0.1-3.2c0.1-0.4,0-0.7,0.1-1.1c0.2-0.8,0.7-1.4,0.9-1.9
		c0-0.1,0-0.1,0.1-0.2c0.9-0.6,2.4-1.9,3.2-2c0.4-0.1,0.8-0.2,1.2-0.2c0.1,0,0.1,0,0.1,0.1c0,0.1,0,0.1-0.1,0.1
		c-0.8,0.2-1.6,0.4-2.2,0.9c0,0-1.9,1.6-1.9,1.6l0.1-0.2c-0.4,0.9-1.1,1.3-1.1,2.3c0,0.9-0.6,1.7-0.4,2.5c0,0,0.1,1,0.1,1
		c0.1,0.5,0.7,1.3,1,1.7C64,64,63.8,64.1,63.7,64L63.7,64z"></path>
</g><g>
	<path class="st2" d="M66.1,65.8c-0.4-0.8-1-1.5-1.1-2.4c0-0.7,0.1-1.4,0.2-2.1c0.4-1.2,1.1-2.2,1.4-3.4c0.1-0.2,1.6-1.7,1.8-1.9
		c0.5-0.6,1.5-0.9,2.2-1.3c0.3-0.1,0.4,0,0.6,0c0.8,0.1,1.6,0.2,2.5,0.3c0.1,0,0.1,0.1,0.1,0.1c0,0.1-0.1,0.1-0.1,0.1
		c-0.7,0-1.3-0.1-2-0.1c-0.2,0-0.7,0-0.8,0c-0.5,0.3-1.3,0.6-1.7,1c-0.6,0.7-1.3,1.5-1.9,2.2c0,0,0.1-0.1,0.1-0.1
		c-0.5,1.1-1.1,2.2-1.6,3.2c0,0-0.1,0.5-0.1,0.5c-0.1,0.6-0.4,1.3-0.1,2c0.3,0.6,0.6,1.3,0.9,1.9C66.4,65.8,66.2,65.9,66.1,65.8
		L66.1,65.8z"></path>
</g><g>
	<path class="st2" d="M69.4,60.2c-0.5,0.9-1,1.9-1.1,2.9c0,0.9-0.1,1.8,0,2.7c0,0,0,0.1,0.1,0.1c0,0.2,0,0.3,0,0.4
		c0,1,0.9,1.2,1.5,1.7c0.2,0.2,1.2,1.5,0.6,1.2c-0.2-0.3-0.5-0.7-0.8-1c-0.7-0.5-1.8-0.9-1.7-1.9c0-0.1,0-0.2-0.1-0.3
		c-0.1-0.1-0.1-0.2-0.1-0.3c-0.1-0.9-0.1-1.7-0.1-2.6c0.1-1.1,0.6-2.1,1.1-3.1c0.1-0.2,0.3-0.2,0.4-0.2C69.4,59.8,69.5,60,69.4,60.2
		L69.4,60.2z"></path>
</g><g>
	<path class="st2" d="M70.9,61.1c-0.4,0.6-0.8,1.1-0.8,1.8c-0.1,0.2,0,0.8-0.3,0.8c-0.1,0-0.1-0.1-0.1-0.1c0.1-0.5,0-0.9,0.1-1.4
		c0.1-0.5,0.4-0.9,0.6-1.3c0.1-0.1,0.2-0.1,0.3-0.1C70.9,60.8,70.9,61,70.9,61.1L70.9,61.1z"></path>
</g><g>
	<path class="st2" d="M72.7,62.1c-0.2,1-0.3,2.1-0.3,3.1c0.2,1.7,1.4,3.2,2.6,4.3c0,0,1.2,1.6,1.2,1.6c0.1,0.1-0.1,0.3-0.2,0.1
		c0,0-1.4-1.6-1.3-1.5c-1.6-1.3-3.2-3.4-2.9-5.6c0-0.7,0.1-1.4,0.2-2.1c0-0.2,0.2-0.3,0.3-0.2C72.6,61.8,72.7,61.9,72.7,62.1
		L72.7,62.1z"></path>
</g><g>
	<path class="st2" d="M75.5,64c0.2,0.1,0.1,0.3,0.1,0.4c-0.1,0.4-0.2,0.8-0.4,1.2c0,0.1-0.1,0.1-0.2,0.1c-0.2-0.2,0-1.1,0-1.4
		c0,0,0-0.2,0-0.2C75.1,64,75.3,63.9,75.5,64L75.5,64z"></path>
</g><g>
	<path class="st2" d="M81.3,73.8c-0.4-0.5-1.3-1.2-1.9-1.4c-1.7-1.8-1.9-4.4-2-6.7c0,0,0-0.2,0-0.2c0,0,2.2-0.8,2.3-0.8
		c0.4-0.2,0.8-0.1,1.2-0.1c1.8,0.3,3.6,0.7,5.2,1.6c0.1,0,0.1,0.1,0.1,0.2c0,0.1-0.1,0.1-0.2,0.1c-0.7-0.3-1.3-0.6-2-0.8
		c-1.2-0.3-2.6-0.5-3.8-0.5c0,0-2.1,0.9-2.2,0.9c0,0,0.2-0.3,0.2-0.3c0,2.2,0,4.6,1.5,6.4c0.2,0,0.5,0.3,0.7,0.5
		c0.4,0.3,0.8,0.7,1.2,1.1C81.6,73.7,81.4,73.9,81.3,73.8L81.3,73.8z"></path>
</g><g>
	<path class="st2" d="M85,70.6c0.1,0.2,0,0.2,0,0.3c-0.8,0.8-0.1,2,0.1,3c0,0.1,0,0.1-0.1,0.1c-0.4-0.1-0.7-1.3-0.9-1.8
		c-0.2-0.5-0.1-1.1,0.3-1.5c0-0.1,0.1-0.1,0.2-0.2c0.1-0.1,0.1-0.2,0.3-0.1C84.9,70.5,85,70.5,85,70.6L85,70.6z"></path>
</g><g>
	<path class="st2" d="M82.8,69c0.6-0.1,1.7-0.5,2.3-0.6c1.2,0.1,2.6,0.7,3.7,1.2c0.1,0.1,0,0.3-0.1,0.2c-1.1-0.6-2.3-1.1-3.5-1.2
		c-0.7,0.2-1.4,0.6-2,0.9c-0.2,0.1-0.3,0-0.4-0.1C82.5,69.3,82.6,69.1,82.8,69L82.8,69z"></path>
</g><g>
	<path class="st2" d="M73.3,62.3c0.7-0.6,1.4-1.4,2.3-1.6c0.9-0.2,1.8-0.3,2.7-0.4c0.3-0.1,0.8-0.4,1.3-0.5c0.6-0.1,1,0.3,1.3,0.6
		c0.7,0.3,1.8,0.1,2.6,0.5c0,0,0.9,0.4,0.9,0.4c0.1,0.1,0,0.3-0.1,0.2c-0.7-0.3-1.4-0.5-2.2-0.5c-0.4-0.1-0.9,0.1-1.4-0.2
		c-0.4-0.3-0.7-0.5-1.1-0.5c-0.4,0.1-0.7,0.4-1.3,0.5c-0.9,0.1-1.8,0.3-2.7,0.5c-0.8,0.2-1.4,1-2,1.5c-0.1,0.1-0.3,0.1-0.4,0
		C73.1,62.6,73.2,62.4,73.3,62.3L73.3,62.3z"></path>
</g><g>
	<path class="st2" d="M68.9,59.2c1.5-0.6,3-0.8,4.4-1.5c0.7-0.1,1.4-0.1,2.4-0.2c1.3-0.2,2.3-0.7,3.6-0.1c0.1,0,0.1,0.3-0.1,0.2
		c-0.4-0.1-0.9-0.2-1.3-0.3c-0.7,0.1-1.5,0.4-2.3,0.5C75.1,57.9,74.6,58,74,58c-0.3,0-0.4,0-0.6,0.1c-1.4,0.7-2.9,1-4.3,1.6
		C68.7,59.9,68.5,59.3,68.9,59.2L68.9,59.2z"></path>
</g><g>
	<path class="st2" d="M60.7,58.2c0.3-0.3,0.5-0.6,0.8-0.9c0.3-0.4,0.7-0.9,0.9-1.3c0.1-0.2,0.4-0.4,0.6-0.1c0.2,0.3-0.2,0.5-0.3,0.8
		c-0.2,0.3-0.5,0.8-0.8,1C61.8,57.7,60.5,58.8,60.7,58.2L60.7,58.2z"></path>
</g></g></svg>