<svg xmlns="http://www.w3.org/2000/svg" version="1.1" xmlns:xlink="http://www.w3.org/1999/xlink" xmlns:svgjs="http://svgjs.dev/svgjs" viewBox="0 0 108 108" style="" x="0" y="0"><style type="text/css">
	.st0{fill:#29552B;}
	.st1{fill:#779C4D;}
	.st2{fill:#40733F;}
	.st3{fill:#7B9F63;}
	.st4{fill:#3D703D;}
	.st5{fill:#467E43;}
	.st6{fill:#5C954C;}
	.st7{fill:#497543;}
	.st8{fill:#63A955;}
	.st9{fill:#508C45;}
	.st10{fill:#83B364;}
	.st11{fill:#7BB05D;}
	.st12{fill:#5A884D;}
	.st13{fill:#98BB64;}
	.st14{fill:#6F9A4D;}
	.st15{fill:#305B2B;}
	.st16{fill:#3A6B3A;}
	.st17{fill:#6E994E;}
</style><g><path class="st0" d="M42.4,33.2c-4.6,2.5-9.7,10.4-10.8,14.9c-1.1,4.5-6.2,14.7-2.6,18.2c3.6,3.5,4,6.1,12.3,7s14.9,4.4,23,0.4
	S80.5,62,82.2,58.9c1.7-3,4.9-7.8,3.5-11.6S77.2,38.5,69,34.5s-12.6-5.7-15.6-5.4C50.3,29.3,42.4,33.2,42.4,33.2z"></path><path class="st1" d="M55.6,6.6c0,0,1.4,0.6,1.5,0.8c0.1,0.2,1.1,0.5,1.2,0.7C58.4,8.2,59,8.2,59,8.2s0.5,0.1,1,0.3
	c0.6,0.2,1.1,1.6,1.1,1.6s0.2-0.4,0.8-0.4c0.6,0,0.7,1.3,1.2,2s0.6,1.6,0.6,1.6l0.9-0.2l1.3,3.4c0,0,0.4,0.3,0.7,0.8
	s-0.4,1.6-0.4,1.6l0.5-0.4c0,0,0.1,1,0.4,1.5c0.3,0.5-0.2,1.9-0.2,1.9l0.6-0.4c0,0,0.4,2.1,0.1,3.6c-0.3,1.5-2.1,3.8-4.1,7
	c0,0-0.9,1.1-1.5,1.5s-0.4,0.4-0.7,0.5c-0.3,0.1-0.7,0.3-0.7,0.3s-1.2,0.5-1.5,0.5C61.4,26.3,57.5,12.9,55.6,6.6z"></path><path class="st2" d="M55.6,31.1c-0.3-0.3-1.3-0.7-2.2-1.7c-0.9-1-3-6-3-6l0.6-0.4c0,0-0.4-0.6-0.7-0.9C49.9,21.8,50,20.5,50,20
	c0-0.5-0.4-1.3-0.4-1.6c0-0.3,0.4-1.2,0.8-1.9c0.4-0.7,0.1-1.3,0.1-1.3l0.4,0.9c0,0,0.1-1,0.2-1.6s0.3-1,0.5-1.7
	c0.1-0.7,0.5-1.1,0.8-1.6c0.4-0.4,0.6-0.9,0.6-0.9l0.2,0.6c0,0,0.7-1.2,1.5-2.3c0.7-1.1,1-2,1-2c1.9,6.4,5.7,19.8,3.4,28.1
	c-0.3,0-1.3-0.9-1.9-1.2C56.6,33.2,55.9,31.4,55.6,31.1z"></path><path class="st3" d="M30,57.9c0.9-0.6,2.2-1.3,3.1-1.8c0.2,0.9,0.3,1.4,0.3,2c0,0.6,0.1,1.7,0.1,1.7s-0.4,0.4-0.5,3.1
	c-0.1,2.7-0.2,3.3-0.2,3.6c-0.1,0.2-0.6-0.2-0.6-0.2s0.4,0.5-0.1,1.4c-0.5,0.9-1.4,1.7-1.7,2.1c-0.4,0.4-1,1.1-1.2,1.3
	c-0.3,0.1-0.7-0.4-0.7-0.4s-0.5,0.6-0.9,1.2c-0.3,0.5-0.6,0.8-0.9,1c-0.5,0.1-2.8,0.6-3.2,0.8c-0.4,0.3-3.1,0-3.9,0.4
	c-0.8,0.4-0.8-0.2-0.8-0.2s-1,0.5-1.3,0.7c-0.3,0.1-0.8,0.5-1.4,0.6c-0.6,0.1-2,0-2,0l-1.3-0.4c2.3-2.9,6.1-6.7,8.1-9
	C22.9,63.4,28.8,58.7,30,57.9z"></path><path class="st4" d="M12.6,70.8c0-0.3,0.6-1,0.5-1.5c-0.2-0.5-0.9-0.3-0.9-0.3s0-1.1,0.1-1.7s0.2-1.7,0.3-2.2
	c0.1-0.5,1.4-3.1,1.4-3.1s0.7-1.1,1.3-1.5c0.6-0.4,0.9-0.2,0.8-0.4C16,59.9,16,59.4,16,59.4s1.1,0.2,1.6-0.4c0.5-0.6,2-1.7,2.3-1.8
	c0.4-0.1,0.7-0.5,0.7-0.5l0.7-0.6c0,0,2.2-0.7,2.8-1s1.2-0.4,2-0.5c0.8-0.1,3.4,0.5,4,0.5c0.5,0,1.6-0.1,1.9,0.1
	c0.3,0.2,0.7-0.5,1,0.6c0,0.1,0,0.1,0,0.2c-0.9,0.5-2.3,1.2-3.1,1.8c-1.2,0.8-7.2,5.5-9.1,7.7c-1.9,2.2-5.8,6.1-8.1,9
	c0,0-0.6-1.6-0.5-2C12.4,72.3,12.6,71.1,12.6,70.8z"></path><path class="st1" d="M99.3,46.1c0,0-1.1,1.1-1.3,1.1c-0.2,0-0.9,0.8-1.1,0.8s-0.4,0.5-0.4,0.5s-0.2,0.4-0.6,0.9
	c-0.4,0.4-1.9,0.4-1.9,0.4s0.3,0.3,0,0.9c-0.3,0.6-1.4,0.1-2.3,0.3c-0.8,0.2-1.7,0-1.7,0l-0.1,0.9l-3.6-0.1c0,0-0.4,0.3-1,0.3
	s-1.3-1-1.3-1l0.2,0.6c0,0-1-0.3-1.5-0.3c-0.6,0-1.7-0.9-1.7-0.9l0.2,0.7c0,0-2.1-0.4-3.3-1.3c-1.3-0.9-2.7-3.4-4.9-6.4
	c0,0-0.7-1.3-0.8-2c-0.1-0.7-0.2-0.5-0.2-0.8c0-0.3,0-0.7,0-0.7s0-1.3,0.1-1.5C78.9,43.8,92.7,45.4,99.3,46.1z"></path><path class="st5" d="M76.7,36.6c0.4-0.2,1.1-1,2.4-1.4c1.3-0.4,6.7-0.5,6.7-0.5l0.2,0.7c0,0,0.7-0.2,1.1-0.3c0.4-0.2,1.5,0.4,2,0.6
	c0.5,0.2,1.3,0.1,1.6,0.3c0.3,0.1,0.9,0.8,1.4,1.5c0.5,0.6,1.2,0.6,1.2,0.6l-0.9,0c0,0,0.8,0.5,1.4,0.8c0.5,0.3,0.8,0.7,1.4,1.1
	c0.6,0.4,0.9,0.9,1.1,1.4c0.2,0.5,0.6,0.9,0.6,0.9l-0.6,0c0,0,0.8,1.1,1.6,2.2c0.7,1.1,1.5,1.7,1.5,1.7c-6.6-0.7-20.4-2.3-27.3-7.6
	c0.1-0.3,1.3-0.9,1.9-1.3C74.4,36.8,76.3,36.8,76.7,36.6z"></path><path class="st6" d="M78.1,15.4c0.3-0.8,2.8-4.4,3.1-5.6c0,0,0.5,1.6,0.9,2.3c0.4,0.7,0.1,0.9,0.4,1.6c0.3,0.7,0.4,1.3,0.7,2.6
	c0.3,1.2,0.1,1.7,0.2,2.7c0.1,1-0.4,1.9-0.4,2.4c0,0.5,0.3,0.7,0.3,1.2c0.1,0.5-0.6,0.4-1.2,1c-0.7,0.6-0.8,1-0.8,1s0.5,0.5,0.2,0.9
	c-0.3,0.4-1.3,0.5-1.4,1.1c-0.1,0.6,0.2,0.8,0.2,0.8s0.7,0.3,0.7,0.7s-1.1,0.9-1.1,0.9s0.2,0.3,0.6,0.5c0.4,0.2,0,0.2-0.3,1.4
	c-0.3,1.2-0.5,0.8-1.8,2c0,0-1.2,0.5-1.8,0.8c-0.6,0.2-2.2,1.1-2.7,1.3c-0.4,0.2-3.2,1.1-4.1,1.4c0.9-2.4,3.1-6.5,3.6-8.5
	C74.1,25.5,77.8,16.2,78.1,15.4z"></path><path class="st5" d="M69,34.5c-0.1-0.5-0.7-1.7-1-2.3c-0.2-0.7-0.3-1.5-0.3-2.1c0-0.6-0.7-2.4-0.8-2.9c-0.1-0.5,0.1-1.7,0.1-1.7
	s-0.1-2,0-2.2c0.1-0.2,0.2-0.6,0.3-0.9c0.1-0.3-0.5-1.7-0.5-1.7s0.7,0.6,0.7,0.2s1.1-1.6,1.1-1.6l0.1-0.4l0.2-0.5l0.1-1.5l0.5-0.1
	c0,0,0.4-0.5,0.5-0.5c0.1,0,1.4-1.6,1.8-2s1.1-0.6,1.5-0.9c0.4-0.3,1.7-1.3,2.1-1.7c0.4-0.4,1.5-1.3,1.5-1.3l-0.5,1.1
	c0,0,0.7-0.7,1.1-0.7c0.4-0.1,2.4-0.7,2.8-0.8s0.9-0.2,0.9-0.2c-0.3,1.2-2.8,4.8-3.1,5.6c-0.3,0.8-4,10.1-4.6,12.4
	c-0.5,1.9-2.7,6-3.6,8.5c-0.2,0.1-0.3,0.1-0.3,0.1S69.1,35,69,34.5z"></path><path class="st6" d="M69,39c0.4-0.9,1.2-2.3,1.6-3.2c0.7,0.7,1,1,1.3,1.5c0.4,0.5,1,1.4,1,1.4s-0.1,0.6,1.3,2.8
	c1.4,2.3,1.7,2.9,1.8,3.1s-0.7,0.2-0.7,0.2S76,45,76.1,46c0.1,1-0.2,2.2-0.3,2.7c-0.1,0.5-0.2,1.5-0.3,1.7c-0.1,0.2-0.8,0-0.8,0
	s-0.1,0.8-0.1,1.5c0,0.6-0.1,1-0.2,1.3c-0.3,0.3-2,2-2.2,2.5c-0.2,0.5-2.6,1.7-3,2.4c-0.4,0.7-0.8,0.2-0.8,0.2s-0.6,1-0.7,1.2
	c-0.1,0.2-0.4,0.8-0.9,1.2c-0.5,0.4-1.6,1.1-1.6,1.1l-1.3,0.4c0.3-3.7,1.4-9,1.8-11.9C66,47.5,68.4,40.3,69,39z"></path><path class="st4" d="M61.5,59.3c-0.2-0.2,0-1.2-0.4-1.5c-0.4-0.3-0.9,0.2-0.9,0.2s-0.6-0.9-0.8-1.4c-0.2-0.5-0.8-1.6-1-2
	c-0.2-0.5-0.5-3.4-0.5-3.4s0-1.3,0.2-1.9c0.3-0.7,0.6-0.7,0.5-0.8c-0.2-0.1-0.5-0.5-0.5-0.5s1-0.4,1.1-1.2c0.1-0.8,0.7-2.5,0.9-2.8
	c0.2-0.3,0.4-0.8,0.4-0.8l0.3-0.9c0,0,1.5-1.8,1.8-2.4c0.3-0.6,0.8-1,1.4-1.6c0.6-0.5,3.1-1.5,3.6-1.8c0.4-0.3,1.3-0.9,1.7-0.9
	c0.4,0,0.3-0.8,1.2,0c0.1,0.1,0.1,0.1,0.2,0.1C70.1,36.7,69.4,38,69,39c-0.6,1.3-3,8.5-3.3,11.4c-0.4,2.9-1.5,8.3-1.8,11.9
	c0,0-1.4-1-1.5-1.4S61.7,59.5,61.5,59.3z"></path><path class="st6" d="M52.9,25.4c0.7,0.2,1.6,0.2,1.6,0.2s1.7,0.2,2,0.2s0.1-0.3,1,0.1c0.9,0.4,2.8,1.2,3.5,1.6
	c0.7,0.4,1.7,1.1,1.9,1.3s1.1,1.5,1.9,2.3c0.8,0.8,2.5,3.7,2.5,3.7s0,0.1,0.2,0.6c0.2,0.5,0,2.4,0,2.4c-3.3-1.4-8.5-4.2-9.5-4.4
	c-0.9-0.2-7.6-2.8-14-2.9c0,0,2-1.6,2.4-2c0.4-0.4,1.3-1.2,1.5-1.3c0.1,0,2.6-0.5,2.8-0.8c0.1-0.3,0.7-0.8,0.8-0.8
	C51.5,25.8,52.2,25.3,52.9,25.4z"></path><path class="st7" d="M67.4,38c0,0-4.1,3.5-5,3.8c-0.9,0.3-1.8,0.5-2.1,0.6c-0.4,0.1-3,0.5-3,0.5c0-0.1-1.1-0.5-1.1-0.5
	s-1.8-0.5-2.3-0.6c-0.5-0.1-2.3-1.3-3-1.6c-0.7-0.3-1.4-0.9-1.6-0.8c-0.1,0-0.4,0.3-0.4,0.1c0-0.2,0-0.8,0-0.8s-1.6-0.5-2-0.9
	c-0.5-0.4-1-1.3-1-1.3s-0.6-0.4-0.6-0.6s-0.3-1.1-0.5-1.6c-0.2-0.5-0.2-0.5-0.3-1.1c-0.1-0.7-0.4-2.5-0.4-2.5c6.4,0,13.1,2.6,14,2.9
	C58.8,33.8,64.1,36.6,67.4,38z"></path><path class="st8" d="M60.1,25.3c0.2-0.1,2,0.3,2,0.3s0.8-0.2,1.3-0.1c0.5,0.1,0.9,0.6,0.9,0.6S64.8,26,65,26c0.2,0,1.8,1.2,1.8,1.2
	l-0.4-0.5c0,0,0.4,0.5,1.1,0.9c0.7,0.4,0.9,0.8,1.5,1.3c0.6,0.5,1.5,1.9,2,3c0,0,0.8,2.1,0.7,2.4c-0.1,0.3-0.4,1.4-0.9,2.1
	c-1.8-1.3-5.1-3.8-6.4-4.6c-1.9-1.2-7.7-2.7-11-2.7l1.1-1c0,0,1.3-1.4,1.6-1.6C56.4,26.2,59.8,25.5,60.1,25.3z"></path><path class="st9" d="M64.3,31.8c1.4,0.9,4.7,3.3,6.4,4.6c0,0-0.1,0.1-0.1,0.1c-0.5,0.7-1.2,1.1-1.2,1.1c0,0-2.6,1-2.9,1.1
	S65,38.9,64,38.4c-1-0.5-2.5-0.4-3-0.6c-0.6-0.2-0.6-0.7-0.6-0.7l-2-0.5c0,0-0.7-0.5-1.4-0.7c-0.7-0.2-1.1-1-1.4-1.6
	c-0.3-0.6-1.2-1.7-1.4-2.1c-0.2-0.4-0.2-0.5-0.3-1c-0.1-0.6-0.6-2-0.6-2C56.6,29,62.4,30.5,64.3,31.8z"></path><path class="st9" d="M77.2,31c0.3,0,1.9,0.6,2,0.5c0.1-0.1,1.4,0.3,1.4,0.3s2,0.5,2.2,0.9c0.2,0.4-0.1,0.4-0.1,0.4s0.7,0.3,1.6,0.7
	c0.6,0.3,1.1,0.6,1.4,0.8c0,0.1,0.1,0.3,0.4,0.8c0.7,1.4,0.9,2.4,0.9,2.4s0.1,0.3,0.3,1.2c0.2,0.8,0.3,1.2,0.3,1.2
	c-2.6-0.9-11.9-5-17.1-4.6c0,0,0.7-0.9,1.6-2c0.4-0.5,1-0.6,2.5-1.4C76.2,31.4,76.8,31,77.2,31z"></path><path class="st8" d="M86.7,41.3c-0.2,0.2-0.8,0.6-0.8,0.6s-0.4,0.5-0.6,0.6c-0.2,0.1-1.2,0.9-1.2,0.9s-1.1,0.6-1.5,0.7
	c-0.4,0.1-1.8,0.2-1.8,0.2l-0.4,0.4c0,0-1.1-0.1-1.4-0.3c-0.3-0.2-1-0.1-1-0.1s-0.5-0.3-1-0.4c-0.5-0.1-1.9-0.9-2.1-1.1
	c-0.1-0.2-1.8-0.8-1.8-0.8S72.5,40.6,72,40c-0.5-0.6-1.4-2-1.3-2.7c0.1-0.8-0.2-1.7-0.2-1.7c5.2-0.5,14.6,3.7,17.1,4.6
	C87.6,40.2,87,41.1,86.7,41.3z"></path><path class="st9" d="M71.4,35.2c0,0-3.2,4.6-3.2,6.7l-0.6-1.5c0,0-0.6-0.6-0.7-0.9s-0.2-0.1-0.3-0.7c0-0.6,0.1-1.8,0.3-1.9
	c0.2-0.1,1.2-1.2,1.2-1.2l-0.3-0.4c0,0,1.6-0.5,2.1-0.6C70.3,34.7,70.6,34.7,71.4,35.2z"></path><path class="st10" d="M71.4,35.2c0.8,0.5,0.8,0.5,0.8,0.5c0.5,0.4,1.4,0.7,1.7,1.5c0.3,0.8,0.5,1.9,0.5,1.9l-0.6,0
	c0,0-0.4,0.2-0.5,0.6c-0.1,0.4-0.2,0.7-0.7,1.3c-0.5,0.6-0.5,0.6-0.5,0.6s-0.4,0-1,0.3s-1.3,0.4-1.3,0.4c-0.6-0.2-1.7-0.4-1.7-0.4
	C68.2,39.8,71.4,35.2,71.4,35.2z"></path><path class="st11" d="M73.2,32.4c0.3-0.4,0.5-1.3,0.6-2.2c0.3,0.2,0.9,0.7,1.3,1c0.5,0.3,0.9,1.2,0.9,1.2s0,0.6-0.2,0.9
	c-0.2,0.3-0.3,1.4-0.3,1.4l0.6-0.2c0,0-0.8,1-0.9,1.2c-0.1,0.2-0.9,0.5-1.3,0.7c-0.4,0.2-2.2,0-2.2,0l-1.2,0.1L70,36.3
	c0,0,0-0.1-0.1-0.2l1.7-1.8C71.7,34.3,72.7,33.1,73.2,32.4z"></path><path class="st9" d="M68.8,32.7l0.1-1.5l0.5,0.6l0.1-1.5l0.8,0.3c0,0,0.3-0.1,0.9-0.3c0.6-0.2,1.2,0,1.6,0.1c0.4,0,0.9-0.3,0.9-0.3
	s0,0,0.1,0.1c-0.2,0.9-0.4,1.8-0.6,2.2c-0.6,0.7-1.6,1.9-1.6,1.9l-1.7,1.8c-0.2-0.4-0.7-1.3-1-1.6C68.6,34.1,68.8,32.7,68.8,32.7z"></path><path class="st12" d="M70.9,37.6c0.2-0.2,0.4-0.4,0.5-0.7s0.2-1.2,0.2-1.2s-0.3,0.1-0.6,0.2s-0.6-0.4-0.6,0.2
	C70.5,36.5,70.9,37.6,70.9,37.6z"></path><path class="st13" d="M71.1,35.9c0-0.6-0.4-1.4-0.6-1.2c-0.2,0.2-0.7,1.1-0.7,1.1L69.7,37l0.6,0.8l0.3-1L71.1,35.9z"></path><path class="st1" d="M27.2,94.1c0,0-0.7-1.4-0.7-1.6c0-0.2-0.5-1.1-0.5-1.3c0-0.2-0.4-0.5-0.4-0.5s-0.4-0.4-0.7-0.9
	c-0.3-0.5,0.1-2,0.1-2s-0.4,0.2-0.9-0.2c-0.5-0.4,0.3-1.4,0.3-2.3c0.1-0.9,0.5-1.6,0.5-1.6l-0.8-0.4l1.1-3.5c0,0-0.2-0.5,0-1.1
	c0.2-0.6,1.3-1,1.3-1h-0.7c0,0,0.6-0.9,0.7-1.4c0.1-0.6,1.4-1.4,1.4-1.4h-0.7c0,0,1-1.9,2.2-2.9c1.2-1,4.1-1.7,7.7-3
	c0,0,1.4-0.3,2.2-0.2c0.7,0.1,0.6-0.1,0.9,0c0.3,0.1,0.7,0.2,0.7,0.2s1.2,0.3,1.5,0.5C35.1,74.7,29.7,87.8,27.2,94.1z"></path><path class="st5" d="M42.7,74.5c0.1,0.4,0.6,1.4,0.7,2.7c0.1,1.3-1.3,6.7-1.3,6.7h-0.7c0,0-0.1,0.8,0,1.2c0.1,0.4-0.8,1.4-1.1,1.8
	c-0.3,0.4-0.5,1.3-0.7,1.5c-0.2,0.3-1.1,0.7-1.9,1c-0.8,0.3-0.9,1-0.9,1l0.3-0.9c0,0-0.7,0.7-1.1,1.1c-0.4,0.5-0.9,0.6-1.4,1.1
	c-0.6,0.5-1.1,0.6-1.6,0.7c-0.6,0.1-1,0.3-1,0.3l0.2-0.6c0,0-1.3,0.5-2.6,0.9c-1.3,0.4-2.1,1-2.1,1c2.5-6.3,7.9-19.4,15-24.7
	c0.3,0.2,0.5,1.5,0.7,2.2S42.7,74.1,42.7,74.5z"></path><path class="st14" d="M63.1,81.7c0.7,0.5,3.6,3.9,4.6,4.6c0,0-1.7,0.1-2.5,0.2c-0.8,0.2-0.9-0.2-1.7-0.1c-0.8,0.1-1.4,0.1-2.7,0
	c-1.3-0.1-1.6-0.4-2.7-0.5c-1-0.2-1.8-0.9-2.3-1c-0.5-0.1-0.8,0.1-1.2,0c-0.5-0.1-0.3-0.7-0.6-1.5c-0.4-0.8-0.7-1.1-0.7-1.1
	s-0.6,0.4-0.9,0c-0.3-0.4-0.2-1.4-0.7-1.7s-0.9,0-0.9,0s-0.5,0.6-0.8,0.5c-0.3-0.2-0.6-1.3-0.6-1.3S49,80,48.8,80.3
	s-0.2-0.1-1.3-0.7c-1.1-0.6-0.6-0.7-1.5-2.3c0,0-0.2-1.3-0.2-2c-0.1-0.6-0.5-2.5-0.5-3c0-0.5-0.2-3.4-0.3-4.4
	c2.1,1.6,5.5,4.9,7.3,5.9C54.4,75,62.5,81.2,63.1,81.7z"></path><path class="st5" d="M47,67.5c0.5,0,1.9-0.3,2.6-0.3c0.7-0.1,1.6,0.1,2.2,0.3c0.6,0.2,2.6-0.1,3,0c0.5,0.1,1.6,0.6,1.6,0.6
	s2,0.4,2.2,0.6c0.2,0.2,0.5,0.4,0.8,0.5c0.3,0.2,1.8,0,1.8,0s-0.8,0.5-0.4,0.6c0.4,0.1,1.3,1.5,1.3,1.5l0.4,0.2l0.4,0.3l1.4,0.5v0.5
	c0,0,0.3,0.5,0.3,0.7c0,0.2,1.2,1.8,1.4,2.3s0.3,1.3,0.4,1.8c0.2,0.5,0.8,2.1,1.1,2.5c0.3,0.5,0.8,1.8,0.8,1.8l-1-0.8
	c0,0,0.5,0.9,0.4,1.3c-0.1,0.4,0.1,2.6,0,3c-0.1,0.4,0,0.9,0,0.9c-1.1-0.7-4-4.1-4.6-4.6c-0.7-0.5-8.8-6.7-10.9-8
	c-1.8-1-5.2-4.3-7.3-5.9c0-0.2,0-0.3,0-0.3S46.5,67.5,47,67.5z"></path><path class="st6" d="M42.6,66.2c0.8,0.7,1.9,1.8,2.7,2.5c-0.8,0.5-1.3,0.7-1.9,0.9c-0.6,0.2-1.7,0.6-1.7,0.6s-0.5-0.3-3.1,0.5
	s-3.3,0.9-3.6,0.9s0-0.7,0-0.7s-0.4,0.5-1.4,0.3c-1-0.2-2.1-0.8-2.6-1c-0.5-0.2-1.4-0.6-1.6-0.8c-0.2-0.2,0.2-0.8,0.2-0.8
	s-0.8-0.3-1.4-0.5c-0.5-0.2-1-0.4-1.2-0.5c-0.2-0.4-1.4-2.6-1.8-2.9c-0.4-0.3-0.9-3-1.5-3.7c-0.6-0.6,0-0.8,0-0.8s-0.8-0.8-1-1
	c-0.2-0.2-0.7-0.6-1-1.2c-0.3-0.6-0.6-1.9-0.6-1.9v-1.3c3.6,1.3,8.5,3.9,11.2,5C35.1,61,41.5,65.3,42.6,66.2z"></path><path class="st4" d="M24.7,53.3c0.3-0.1,1.2,0.3,1.6,0c0.4-0.3,0-0.9,0-0.9s1.1-0.4,1.6-0.4c0.6-0.1,1.8-0.4,2.3-0.4
	c0.5-0.1,3.5,0.4,3.5,0.4s1.2,0.3,1.8,0.8c0.6,0.5,0.5,0.8,0.7,0.7s0.6-0.3,0.6-0.3s0.1,1.1,0.9,1.4c0.8,0.3,2.3,1.4,2.5,1.7
	c0.2,0.3,0.7,0.6,0.7,0.6l0.8,0.5c0,0,1.3,2,1.9,2.4c0.5,0.5,0.8,1.1,1.1,1.8s0.6,3.5,0.8,4c0.2,0.5,0.6,1.5,0.5,1.9
	c-0.1,0.4,0.7,0.6-0.3,1.2c-0.1,0-0.1,0.1-0.2,0.1c-0.8-0.7-1.9-1.8-2.7-2.5c-1.1-0.9-7.5-5.3-10.3-6.4c-2.8-1.2-7.7-3.8-11.2-5
	c0,0,1.4-1.1,1.8-1.1C23.2,53.6,24.4,53.4,24.7,53.3z"></path><path class="st15" d="M60.3,54.3c-0.4,0.6-0.7,1.5-0.7,1.5s-0.7,1.6-0.8,1.9c-0.1,0.3,0.2,0.2-0.4,1c-0.6,0.8-2,2.4-2.5,3
	c-0.6,0.6-1.5,1.3-1.8,1.5c-0.3,0.2-1.8,0.7-2.8,1.2c-1,0.5-4.3,1.4-4.3,1.4s-0.1-0.1-0.7,0C45.8,65.7,44,65,44,65
	c2.3-2.8,6.5-7.2,7-8c0.5-0.8,4.9-6.7,6.7-13c0,0,1,2.4,1.3,2.9c0.3,0.5,0.8,1.6,0.8,1.8s-0.2,2.7,0,2.9c0.2,0.2,0.6,0.9,0.6,1
	S60.7,53.6,60.3,54.3z"></path><path class="st5" d="M44,65c0,0-2.3-5-2.4-6c-0.1-1,0-1.9,0-2.3c0-0.4,0.3-3.1,0.4-3.1c0.1,0,0.8-1,0.8-1s1-1.6,1.2-2.1
	c0.2-0.5,2-1.9,2.4-2.5c0.5-0.6,1.2-1.2,1.2-1.3c0-0.2-0.2-0.5,0-0.5c0.2,0.1,0.8,0.3,0.8,0.3s0.9-1.4,1.4-1.8
	c0.5-0.4,1.5-0.7,1.5-0.7s0.5-0.5,0.8-0.5s1.1,0.1,1.7,0c0.6-0.1,0.5-0.1,1.2,0c0.7,0.1,2.6,0.3,2.6,0.3c-1.8,6.3-6.2,12.2-6.7,13
	C50.5,57.7,46.2,62.1,44,65z"></path><path class="st8" d="M58.4,61.3c0.1,0.3-0.8,1.9-0.8,1.9s-0.1,0.8-0.3,1.3s-0.9,0.7-0.9,0.7s0.1,0.6,0,0.8c-0.1,0.2-1.6,1.4-1.6,1.4
	l0.6-0.3c0,0-0.6,0.3-1.2,0.8c-0.6,0.5-1,0.7-1.6,1.1c-0.6,0.5-2.3,1-3.5,1.1c0,0-2.3,0.2-2.6,0c-0.2-0.1-1.2-0.8-1.8-1.5
	c1.8-1.4,5.1-3.9,6.3-5c1.7-1.5,4.8-6.8,5.7-10l0.6,1.3c0,0,1,1.6,1.1,2.1C58.6,57.5,58.4,61,58.4,61.3z"></path><path class="st9" d="M50.9,63.7c-1.3,1.1-4.6,3.7-6.3,5c0,0-0.1-0.1-0.1-0.1c-0.6-0.7-0.8-1.5-0.8-1.5c0,0-0.3-2.9-0.3-3.1
	c-0.1-0.3,0.4-1.6,1.1-2.4c0.8-0.9,1.1-2.3,1.4-2.8c0.3-0.5,0.9-0.4,0.9-0.4l1-1.8c0,0,0.7-0.6,1.1-1.2c0.4-0.6,1.3-0.8,2-0.9
	c0.7-0.2,2-0.7,2.4-0.8c0.4-0.1,0.5-0.1,1.1,0c0.6,0.1,2.1,0,2.1,0C55.8,56.9,52.7,62.2,50.9,63.7z"></path><path class="st9" d="M48.1,76.5C48,76.8,47,78.1,47,78.3c0.1,0.2-0.7,1.3-0.7,1.3s-1,1.8-1.4,1.9c-0.4,0.1-0.4-0.2-0.4-0.2
	s-0.5,0.6-1.1,1.3c-0.5,0.5-0.9,0.9-1.2,1.1c-0.1,0-0.3,0-0.9,0.1c-1.5,0.3-2.6,0.3-2.6,0.3s-0.4,0-1.2,0c-0.9,0-1.2,0-1.2,0
	c1.6-2.3,8.2-10.3,9.2-15.5c0,0,0.7,0.9,1.5,2.1c0.4,0.5,0.4,1.1,0.7,2.9C48,75.4,48.2,76.2,48.1,76.5z"></path><path class="st8" d="M35.4,83c-0.1-0.3-0.4-0.9-0.4-0.9s-0.4-0.5-0.5-0.8C34.5,81.1,34,80,34,80s-0.3-1.2-0.3-1.6
	c0-0.4,0.3-1.8,0.3-1.8L33.7,76c0,0,0.4-1.1,0.7-1.3s0.4-0.9,0.4-0.9s0.5-0.4,0.7-0.9c0.2-0.5,1.5-1.6,1.7-1.7
	c0.2-0.1,1.3-1.6,1.3-1.6s1.7-0.4,2.4-0.7c0.7-0.3,2.3-0.8,3-0.5c0.7,0.3,1.7,0.3,1.7,0.3c-1,5.2-7.6,13.3-9.2,15.5
	C36.2,84.2,35.5,83.3,35.4,83z"></path><path class="st9" d="M45.6,69.7c0,0-3.6-4.4-5.7-5l1.6-0.2c0,0,0.8-0.4,1.1-0.4s0.2-0.2,0.8-0.1c0.6,0.2,1.7,0.6,1.8,0.8
	c0,0.2,0.8,1.5,0.8,1.5l0.5-0.2c0,0,0.1,1.7,0,2.2C46.5,68.7,46.3,69.1,45.6,69.7z"></path><path class="st10" d="M45.6,69.7c-0.7,0.6-0.7,0.6-0.7,0.6c-0.5,0.4-1,1.2-2,1.3c-0.9,0.1-2.1,0-2.1,0l0.2-0.6c0,0-0.1-0.4-0.4-0.7
	c-0.4-0.2-0.6-0.4-1.1-1c-0.4-0.6-0.4-0.6-0.4-0.6s0.2-0.4,0-1.1c-0.2-0.7,0-1.3,0-1.3c0.4-0.6,0.8-1.5,0.8-1.5
	C42,65.3,45.6,69.7,45.6,69.7z"></path><path class="st11" d="M47.8,72.3c0.3,0.4,1.1,0.8,1.9,1.2c-0.3,0.2-1,0.7-1.3,1C48,74.9,47,75.1,47,75.1s-0.6-0.2-0.8-0.5
	c-0.2-0.3-1.3-0.7-1.3-0.7v0.7c0,0-0.7-1-0.9-1.2c-0.2-0.2-0.2-1-0.3-1.4c-0.1-0.5,0.6-2.2,0.6-2.2l0.2-1.2l0.4-0.6c0,0,0.1,0,0.2,0
	l1.3,2.2C46.4,70.2,47.3,71.5,47.8,72.3z"></path><path class="st9" d="M48.8,67.8l1.5,0.5l-0.8,0.4l1.4,0.5l-0.5,0.7c0,0,0,0.3,0,1c0,0.6-0.4,1.2-0.5,1.5c-0.2,0.4,0,1,0,1
	s-0.1,0-0.1,0.1c-0.8-0.4-1.7-0.8-1.9-1.2c-0.5-0.7-1.4-2.1-1.4-2.1L45.1,68c0.4-0.1,1.5-0.4,1.8-0.5C47.4,67.3,48.8,67.8,48.8,67.8
	z"></path><path class="st12" d="M43.4,68.6c0.1,0.2,0.3,0.5,0.6,0.7s1.1,0.6,1.1,0.6s0-0.4,0-0.6c0-0.3,0.5-0.5,0-0.6
	C44.5,68.4,43.4,68.6,43.4,68.6z"></path><path class="st13" d="M45.1,69.2c0.6,0.2,1.5,0,1.3-0.3c-0.2-0.3-0.9-1-0.9-1l-1.2-0.4l-0.9,0.4l0.9,0.6L45.1,69.2z"></path><path class="st8" d="M92.6,73.2c0.7,0.5,3.5,3.9,4.5,4.5c0,0-1.7,0.1-2.5,0.2c-0.8,0.2-0.9-0.2-1.7-0.1s-1.4,0.1-2.7,0
	c-1.3-0.1-1.6-0.4-2.6-0.5c-1-0.2-1.8-0.9-2.2-1c-0.5-0.1-0.8,0.1-1.2,0c-0.5-0.1-0.3-0.7-0.6-1.5c-0.4-0.8-0.7-1.1-0.7-1.1
	s-0.6,0.4-0.9,0c-0.3-0.4-0.2-1.4-0.7-1.7s-0.9,0-0.9,0s-0.5,0.6-0.8,0.5s-0.6-1.3-0.6-1.3s-0.4,0.2-0.6,0.5
	c-0.3,0.3-0.2-0.1-1.3-0.7c-1.1-0.6-0.6-0.7-1.5-2.3c0,0-0.2-1.3-0.2-1.9c-0.1-0.6-0.5-2.4-0.5-3c0-0.5-0.2-3.4-0.3-4.3
	c2.1,1.5,5.4,4.8,7.2,5.8C84,66.6,91.9,72.7,92.6,73.2z"></path><path class="st16" d="M76.7,59.2c0.5,0,1.8-0.3,2.5-0.3c0.7-0.1,1.6,0.1,2.1,0.3s2.5-0.1,3,0c0.5,0.1,1.6,0.6,1.6,0.6s2,0.4,2.1,0.6
	c0.2,0.2,0.5,0.4,0.8,0.5c0.3,0.2,1.7,0,1.7,0s-0.8,0.5-0.4,0.6c0.4,0.1,1.3,1.5,1.3,1.5l0.3,0.2l0.4,0.3l1.4,0.5v0.5
	c0,0,0.3,0.5,0.3,0.6s1.1,1.8,1.4,2.3s0.3,1.3,0.4,1.7c0.2,0.5,0.8,2,1.1,2.5c0.3,0.5,0.8,1.8,0.8,1.8l-1-0.8c0,0,0.5,0.9,0.4,1.3
	c-0.1,0.4,0.1,2.5,0,2.9c-0.1,0.4,0,0.9,0,0.9c-1.1-0.7-3.9-4-4.5-4.5c-0.7-0.5-8.6-6.6-10.7-7.8c-1.7-1-5.1-4.2-7.2-5.8
	c0-0.2,0-0.3,0-0.3S76.2,59.2,76.7,59.2z"></path><path class="st6" d="M25.2,34.5c0.6,0.3,1.5,0.6,1.5,0.6s1.6,0.6,1.8,0.7c0.3,0.1,0.2-0.2,1,0.4c0.8,0.6,2.4,1.8,3,2.4
	c0.6,0.5,1.3,1.5,1.5,1.7c0.2,0.2,0.7,1.7,1.3,2.7c0.5,1,1.5,4.2,1.5,4.2s0,0.1,0,0.7c0.1,0.6-0.6,2.3-0.6,2.3
	C33.5,48,29,44,28.2,43.6c-0.8-0.4-6.7-4.5-13-6.1c0,0,2.3-1,2.8-1.4c0.5-0.3,1.6-0.9,1.7-0.9c0.2,0,2.7,0.1,2.9-0.1
	c0.2-0.2,0.8-0.6,1-0.6C23.7,34.6,24.6,34.2,25.2,34.5z"></path><path class="st5" d="M36.3,50.1c0,0-4.8,2.5-5.8,2.5c-1,0.1-1.8,0.1-2.2,0.1s-3.1-0.2-3.1-0.2c0-0.1-1-0.8-1-0.8s-1.7-0.9-2.1-1.1
	c-0.5-0.2-1.9-1.8-2.5-2.3c-0.6-0.4-1.2-1.2-1.4-1.2c-0.2,0-0.5,0.2-0.5,0c0-0.2,0.2-0.8,0.2-0.8s-1.4-0.9-1.8-1.3s-0.7-1.5-0.7-1.5
	s-0.5-0.5-0.5-0.7c0-0.3,0-1.1-0.1-1.7s-0.1-0.5,0-1.2c0.1-0.7,0.2-2.5,0.2-2.5c6.2,1.5,12.1,5.7,13,6.1C29,44,33.5,48,36.3,50.1z"></path><path class="st1" d="M19.3,15.5c0,0,1.3-0.3,1.5-0.2c0.2,0.1,1.1-0.2,1.2-0.1c0.1,0,0.5-0.2,0.5-0.2s0.4-0.2,0.9-0.4
	c0.5-0.1,1.7,0.6,1.7,0.6s-0.1-0.4,0.4-0.7c0.5-0.3,1.2,0.6,1.9,0.8s1.3,0.8,1.3,0.8l0.5-0.6l2.7,1.7c0,0,0.4,0,0.9,0.3
	c0.5,0.3,0.6,1.3,0.6,1.3l0.2-0.6c0,0,0.6,0.7,1.1,0.9c0.4,0.2,0.9,1.5,0.9,1.5l0.2-0.6c0,0,1.4,1.3,1.9,2.5
	c0.6,1.2,0.5,3.8,0.7,7.1c0,0-0.1,1.3-0.3,1.9c-0.3,0.6,0,0.5-0.2,0.7c-0.2,0.2-0.4,0.6-0.4,0.6s-0.6,1-0.8,1.1
	C33.8,26.7,24,19.1,19.3,15.5z"></path><path class="st5" d="M32.2,33.2c-0.4-0.1-1.3,0.2-2.5-0.1c-1.1-0.3-5.3-2.7-5.3-2.7l0.2-0.6c0,0-0.6-0.2-1-0.3s-1-1-1.3-1.4
	c-0.3-0.4-1-0.7-1.1-1c-0.2-0.2-0.3-1.1-0.4-1.8c-0.1-0.7-0.6-1-0.6-1l0.7,0.4c0,0-0.4-0.8-0.7-1.2c-0.3-0.5-0.3-0.9-0.6-1.5
	c-0.3-0.6-0.3-1.1-0.2-1.6s0-0.9,0-0.9l0.4,0.3c0,0-0.1-1.2-0.2-2.4c0-1.2-0.3-2-0.3-2c4.7,3.6,14.5,11.2,17.2,18.4
	c-0.2,0.2-1.4,0-2,0.1C34,34.1,32.5,33.2,32.2,33.2z"></path><path class="st14" d="M21.3,48.6c-0.6,0.4-4.1,2.1-5,2.8c0,0,0.4-1.4,0.4-2.2c0.1-0.7,0.4-0.7,0.4-1.4c0.1-0.7,0.3-1.2,0.6-2.3
	c0.3-1.1,0.7-1.3,1.1-2.1c0.4-0.8,1.2-1.3,1.4-1.7c0.2-0.4,0.1-0.7,0.3-1c0.2-0.4,0.6-0.1,1.4-0.2c0.8-0.1,1.1-0.4,1.1-0.4
	s-0.2-0.6,0.2-0.8s1.2,0.2,1.6-0.2c0.3-0.4,0.2-0.7,0.2-0.7s-0.4-0.6-0.2-0.8c0.2-0.2,1.3-0.2,1.3-0.2s0-0.3-0.2-0.6
	c-0.2-0.3,0.1-0.2,0.9-0.9c0.8-0.8,0.7-0.4,2.3-0.7c0,0,1.2,0.2,1.7,0.3s2.2,0.2,2.7,0.3c0.4,0.1,2.9,0.6,3.7,0.8
	c-1.8,1.4-5.4,3.5-6.6,4.8C29,42.8,21.9,48.2,21.3,48.6z"></path><path class="st5" d="M37,38.4c-0.1,0.4-0.2,1.6-0.3,2.2c-0.1,0.6-0.5,1.3-0.7,1.8c-0.3,0.4-0.6,2.2-0.7,2.6
	c-0.2,0.4-0.9,1.2-0.9,1.2s-0.8,1.6-1,1.7c-0.2,0.1-0.4,0.3-0.7,0.6c-0.2,0.2-0.4,1.5-0.4,1.5s-0.3-0.8-0.4-0.5
	c-0.2,0.3-1.6,0.7-1.6,0.7L30,50.3l-0.3,0.3l-0.7,1.1l-0.4-0.1c0,0-0.5,0.2-0.6,0.1c-0.1,0-1.8,0.5-2.3,0.6s-1.1-0.1-1.6-0.1
	c-0.4,0-1.9,0.2-2.4,0.4c-0.5,0.2-1.7,0.3-1.7,0.3l0.9-0.6c0,0-0.8,0.2-1.2,0s-2.2-0.6-2.5-0.7c-0.3-0.1-0.8-0.2-0.8-0.2
	c0.8-0.8,4.4-2.4,5-2.8c0.6-0.4,7.7-5.8,9.2-7.3c1.3-1.3,4.8-3.3,6.6-4.8c0.2,0,0.3,0.1,0.3,0.1S37.2,37.9,37,38.4z"></path><path class="st6" d="M39.1,35c-0.7,0.5-1.9,1.2-2.7,1.7c-0.2-0.8-0.3-1.3-0.3-1.8c0-0.6-0.1-1.5-0.1-1.5s0.3-0.4,0.3-2.7
	c0-2.4,0-3,0.1-3.2c0.1-0.2,0.6,0.2,0.6,0.2s-0.4-0.4,0-1.3c0.4-0.8,1.2-1.5,1.5-1.9c0.3-0.4,0.8-1,1-1.2c0.2-0.1,0.6,0.4,0.6,0.4
	s0.5-0.6,0.8-1.1c0.3-0.4,0.5-0.7,0.7-0.9c0.4-0.1,2.5-0.6,2.8-0.9c0.4-0.3,2.8-0.1,3.4-0.4c0.7-0.4,0.7,0.2,0.7,0.2
	s0.9-0.5,1.1-0.6c0.2-0.1,0.7-0.5,1.2-0.5c0.5-0.1,1.7-0.1,1.7-0.1l1.1,0.3c-1.9,2.7-5.2,6.2-6.9,8.3C45.3,29.9,40.2,34.2,39.1,35z"></path><path class="st4" d="M54.2,22.9c0,0.2-0.5,0.9-0.4,1.3s0.8,0.2,0.8,0.2s0,1,0,1.5s-0.1,1.6-0.2,2c-0.1,0.4-1.2,2.8-1.2,2.8
	s-0.6,1-1.1,1.3c-0.5,0.4-0.8,0.2-0.7,0.4c0.1,0.2,0.1,0.6,0.1,0.6s-1-0.2-1.4,0.4c-0.4,0.6-1.7,1.6-2,1.7c-0.3,0.1-0.6,0.4-0.6,0.4
	l-0.6,0.5c0,0-2,0.7-2.5,1s-1.1,0.4-1.8,0.5c-0.7,0.1-3.1-0.3-3.5-0.3c-0.5,0-1.4,0.1-1.7-0.1s-0.6,0.4-0.9-0.5c0-0.1,0-0.1,0-0.2
	c0.8-0.5,2-1.2,2.7-1.7c1-0.7,6.2-5.1,7.8-7.1c1.6-2.1,5-5.6,6.9-8.3c0,0,0.6,1.4,0.5,1.7C54.3,21.6,54.1,22.7,54.2,22.9z"></path><path class="st6" d="M45,52.7c-0.5-0.5-1.1-0.9-1.1-0.9s-1.2-0.9-1.4-1.1c-0.2-0.1-0.2,0.1-0.7-0.6c-0.5-0.7-1.5-2.2-1.9-2.8
	s-0.7-1.6-0.8-1.9c-0.1-0.3-0.2-1.6-0.3-2.6c-0.2-1-0.2-4-0.2-4s0.1-0.1,0.2-0.6c0.1-0.5,1.1-1.8,1.1-1.8c1.9,2.6,4.5,7.1,5.1,7.7
	c0.6,0.6,4.5,5.7,9.3,8.7c0,0-2.2,0.3-2.7,0.4c-0.5,0.1-1.6,0.3-1.7,0.3c-0.1,0-2.2-0.8-2.5-0.7c-0.2,0.1-0.9,0.3-1,0.2
	C46.3,53,45.5,53.1,45,52.7z"></path><path class="st8" d="M39.9,36.4c0,0,4.7-0.8,5.6-0.6c0.8,0.2,1.6,0.4,1.9,0.5c0.3,0.1,2.5,1,2.5,1c0,0,0.6,0.9,0.6,0.9
	s1.2,1.2,1.5,1.5c0.3,0.3,1.1,2.1,1.5,2.6c0.4,0.5,0.7,1.3,0.8,1.4s0.5-0.1,0.4,0.1c-0.1,0.2-0.4,0.6-0.4,0.6s1,1.1,1.1,1.6
	c0.2,0.5,0.2,1.5,0.2,1.5s0.3,0.5,0.2,0.8c-0.1,0.2-0.3,0.9-0.4,1.4c-0.1,0.5,0,0.5-0.3,1c-0.2,0.5-0.9,2.1-0.9,2.1
	c-4.9-3-8.7-8.1-9.3-8.7C44.4,43.6,41.7,39,39.9,36.4z"></path><path class="st8" d="M39.6,49.4c-0.2,0-1.4-1.1-1.4-1.1s-0.7-0.2-1-0.6c-0.3-0.3-0.4-0.9-0.4-0.9s-0.5,0-0.6-0.2
	c-0.1-0.1-0.8-1.7-0.8-1.7l0.1,0.5c0,0-0.1-0.5-0.4-1.2c-0.3-0.6-0.3-1-0.6-1.7c-0.2-0.6-0.3-2.1-0.1-3.2c0,0,0.4-2,0.6-2.2
	c0.2-0.2,1-0.8,1.7-1.2c0.7,1.8,2.1,5.2,2.7,6.5c0.9,1.8,4.6,5.7,7.1,7.1l-1.3,0.2c0,0-1.6,0.4-2,0.5C42.7,50.4,39.8,49.4,39.6,49.4
	z"></path><path class="st9" d="M39.3,42.6c-0.6-1.3-2-4.7-2.7-6.5c0,0,0.1,0,0.1-0.1c0.7-0.3,1.5-0.3,1.4-0.3c0,0,2.5,0.5,2.7,0.5
	c0.2,0,1.3,0.7,1.8,1.5c0.5,0.8,1.7,1.4,2,1.9c0.4,0.4,0.1,0.8,0.1,0.8l1.3,1.3c0,0,0.3,0.7,0.7,1.2c0.4,0.5,0.3,1.3,0.3,1.9
	c0,0.6,0.1,1.9,0.1,2.2c-0.1,0.4,0,0.5-0.3,0.9c-0.2,0.5-0.5,1.8-0.5,1.8C43.9,48.2,40.2,44.4,39.3,42.6z"></path><path class="st9" d="M29.2,37.2c-0.2-0.2-1.1-1.3-1.3-1.3c-0.1,0-1-0.9-1-0.9s-1.3-1.3-1.3-1.7c0-0.4,0.2-0.3,0.2-0.3
	s-0.4-0.5-0.9-1.3c-0.3-0.5-0.5-1-0.7-1.2c0-0.1,0.1-0.3,0.1-0.8c0.1-1.4,0.4-2.3,0.4-2.3s0.1-0.3,0.3-1c0.2-0.7,0.3-1,0.3-1
	c1.5,1.9,6.7,9.3,10.9,11.4c0,0-0.9,0.4-2.2,0.8c-0.5,0.2-1,0-2.6-0.1C30.1,37.4,29.4,37.4,29.2,37.2z"></path><path class="st8" d="M26.7,25c0.2,0,0.9-0.1,0.9-0.1s0.5-0.2,0.7-0.2c0.2,0,1.3-0.1,1.3-0.1s1.1,0.1,1.5,0.1
	c0.4,0.1,1.5,0.6,1.5,0.6l0.5-0.1c0,0,0.8,0.6,0.9,0.9c0.1,0.3,0.7,0.5,0.7,0.5s0.3,0.5,0.6,0.8c0.4,0.3,1,1.6,1,1.8
	c0,0.2,1,1.4,1,1.4s-0.1,1.5,0,2.2c0.1,0.7,0.1,2.1-0.3,2.7c-0.4,0.5-0.6,1.4-0.6,1.4c-4.2-2-9.4-9.5-10.9-11.4
	C25.5,25.5,26.5,25,26.7,25z"></path><path class="st9" d="M35.5,36.7c0,0,4.5-2,5.5-3.6l-0.2,1.4c0,0,0.2,0.8,0.1,1c-0.1,0.2,0.1,0.2-0.1,0.7s-0.9,1.3-1.1,1.3
	c-0.2,0-1.4,0.3-1.4,0.3l0,0.5c0,0-1.5-0.4-1.8-0.5C36.1,37.6,35.9,37.5,35.5,36.7z"></path><path class="st10" d="M35.5,36.7C35.2,36,35.2,36,35.2,36c-0.2-0.5-0.7-1.1-0.6-1.9c0.1-0.8,0.5-1.7,0.5-1.7l0.5,0.3
	c0,0,0.4,0,0.7-0.2c0.3-0.3,0.5-0.4,1.1-0.7c0.6-0.2,0.6-0.2,0.6-0.2s0.3,0.2,0.9,0.3c0.6,0,1.1,0.3,1.1,0.3
	c0.4,0.5,1.1,1.1,1.1,1.1C40.1,34.7,35.5,36.7,35.5,36.7z"></path><path class="st11" d="M32.8,38c-0.4,0.1-1,0.7-1.5,1.3c-0.1-0.3-0.4-1-0.5-1.3c-0.2-0.5-0.1-1.3-0.1-1.3s0.3-0.5,0.6-0.6
	c0.3-0.1,0.9-0.9,0.9-0.9L31.6,35c0,0,1-0.4,1.2-0.5c0.2-0.1,0.9,0.1,1.3,0.1c0.4,0,1.7,1,1.7,1l0.9,0.4l0.4,0.5c0,0,0,0.1,0,0.2
	l-2.1,0.5C34.9,37.2,33.6,37.7,32.8,38z"></path><path class="st9" d="M36.4,39.9L35.6,41l-0.1-0.7l-0.8,1l-0.5-0.6c0,0-0.3-0.1-0.8-0.2c-0.5-0.1-0.9-0.6-1.2-0.8
	c-0.3-0.2-0.8-0.2-0.8-0.2s0-0.1,0-0.1c0.5-0.6,1.1-1.2,1.5-1.3c0.7-0.3,2.1-0.7,2.1-0.7l2.1-0.5c0,0.4,0,1.3,0,1.7
	C37.1,38.8,36.4,39.9,36.4,39.9z"></path><path class="st12" d="M37,35.1c-0.2,0-0.5,0.2-0.7,0.3s-0.7,0.8-0.7,0.8s0.3,0.1,0.5,0.1c0.2,0.1,0.3,0.5,0.5,0.1
	C36.8,36.1,37,35.1,37,35.1z"></path><path class="st13" d="M36.1,36.4c-0.3,0.5-0.3,1.3-0.1,1.2C36.2,37.5,37,37,37,37l0.6-0.9l-0.1-0.9l-0.7,0.6L36.1,36.4z"></path><path class="st17" d="M44.5,46.8c0,0-0.5,1.6-0.5,1.8c0.1,0.2-0.4,1.3-0.3,1.5c0,0.2-0.3,0.6-0.3,0.6s-0.3,0.4-0.6,1
	c-0.2,0.6,0.5,2.1,0.5,2.1s-0.4-0.2-0.9,0.4c-0.5,0.5,0.5,1.5,0.7,2.4c0.2,0.9,0.8,1.7,0.8,1.7L43,58.7l1.7,3.5c0,0-0.1,0.5,0.2,1.1
	c0.3,0.6,1.6,0.9,1.6,0.9l-0.7,0.1c0,0,0.7,0.8,1,1.4c0.2,0.6,1.7,1.3,1.7,1.3l-0.8,0.1c0,0,1.4,1.8,2.8,2.7
	c1.4,0.8,4.6,1.1,8.6,1.8c0,0,1.6,0.1,2.3-0.1s0.6,0,0.9-0.1c0.3-0.2,0.7-0.4,0.7-0.4s1.2-0.6,1.5-0.8C56.2,65.9,48.2,53,44.5,46.8z
	"></path><path class="st5" d="M64.2,64.8c0-0.4,0.4-1.6,0.2-3c-0.2-1.4-2.6-6.8-2.6-6.8l-0.8,0.1c0,0-0.2-0.8-0.2-1.3c0-0.4-1.1-1.3-1.5-1.7
	c-0.4-0.4-0.8-1.3-1-1.5c-0.3-0.2-1.3-0.5-2.1-0.7c-0.9-0.2-1.1-0.9-1.1-0.9l0.4,0.9c0,0-0.9-0.6-1.4-1c-0.5-0.4-1-0.4-1.7-0.9
	c-0.7-0.4-1.2-0.5-1.9-0.5c-0.6,0-1.1-0.2-1.1-0.2l0.3,0.6c0,0-1.5-0.3-2.9-0.5c-1.4-0.2-2.4-0.7-2.4-0.7
	c3.7,6.2,11.7,19.2,20.1,23.5c0.2-0.2,0.2-1.7,0.4-2.4C65.1,67.2,64.3,65.2,64.2,64.8z"></path><path class="st14" d="M84.6,53.7c0.6-0.6,3.1-4.8,4.1-5.7c0,0-1.8,0.2-2.7,0.2c-0.9,0-1,0.3-1.8,0.4c-0.8,0-1.5,0.2-2.9,0.5
	c-1.4,0.3-1.7,0.7-2.7,1c-1.1,0.3-1.7,1.3-2.2,1.5c-0.5,0.2-0.8,0.1-1.3,0.2c-0.5,0.1-0.2,0.8-0.4,1.7c-0.2,0.9-0.6,1.3-0.6,1.3
	s-0.7-0.3-1,0.2c-0.3,0.4,0.1,1.6-0.4,1.9c-0.5,0.4-0.9,0.1-0.9,0.1s-0.7-0.6-1-0.3c-0.3,0.2-0.4,1.5-0.4,1.5s-0.4-0.1-0.7-0.4
	c-0.3-0.3-0.2,0.1-1.2,0.9c-1,0.8-0.5,0.8-1.2,2.7c0,0,0,1.4,0.1,2.1s-0.1,2.7,0,3.3c0,0.5,0.3,3.7,0.4,4.7c2-2,5-6.1,6.7-7.4
	C76.5,62.3,83.9,54.3,84.6,53.7z"></path><path class="st5" d="M69.9,71.5c0.5-0.1,2,0,2.8-0.1c0.8-0.1,1.7-0.4,2.2-0.6c0.6-0.3,2.7-0.4,3.2-0.5c0.5-0.1,1.6-0.9,1.6-0.9
	s2.1-0.8,2.2-1c0.1-0.2,0.5-0.5,0.8-0.7c0.3-0.2,1.9-0.3,1.9-0.3s-0.9-0.4-0.5-0.6s1.1-1.9,1.1-1.9l0.3-0.3l0.4-0.4l1.4-0.7
	l-0.1-0.6c0,0,0.3-0.6,0.2-0.8c0-0.2,0.9-2.1,1.1-2.7s0.1-1.4,0.1-1.9c0.1-0.5,0.5-2.3,0.8-2.9c0.2-0.5,0.6-2.1,0.6-2.1l-0.9,1
	c0,0,0.3-1,0.2-1.4S89,49.4,88.8,49c-0.1-0.4-0.2-1-0.2-1c-1,0.9-3.5,5-4.1,5.7c-0.6,0.6-8.1,8.6-10.2,10.3
	c-1.7,1.4-4.7,5.4-6.7,7.4c0,0.2,0,0.3,0,0.3S69.4,71.6,69.9,71.5z"></path><path class="st6" d="M65.5,73.5c0.7-0.8,1.7-2.2,2.4-3.1c-1-0.4-1.5-0.5-2.1-0.6c-0.7-0.1-1.8-0.4-1.8-0.4s-0.5,0.4-3.4,0
	c-2.9-0.3-3.6-0.4-3.9-0.3s0.1,0.7,0.1,0.7s-0.5-0.5-1.5-0.1c-1,0.4-2,1.2-2.5,1.5s-1.4,0.8-1.6,1.1c-0.2,0.3,0.4,0.8,0.4,0.8
	S50.7,73.7,50,74c-0.5,0.3-1,0.6-1.2,0.8c-0.2,0.5-1.1,3-1.4,3.3c-0.4,0.4-0.5,3.4-1,4.1c-0.5,0.8,0.1,0.9,0.1,0.9s-0.7,1-0.9,1.3
	c-0.2,0.3-0.7,0.8-0.8,1.4c-0.2,0.6-0.3,2.1-0.3,2.1l0.2,1.4c3.5-2,8.3-5.5,11-7.2C58.4,80.4,64.5,74.7,65.5,73.5z"></path><path class="st4" d="M48.8,90.3c0.3,0.1,1.2-0.5,1.7-0.3c0.5,0.3,0.2,1,0.2,1s1.2,0.2,1.8,0.2s1.9,0.1,2.5,0c0.6,0,3.6-1,3.6-1
	s1.3-0.5,1.8-1.1c0.5-0.6,0.4-1,0.6-0.8c0.2,0.1,0.7,0.2,0.7,0.2s-0.1-1.2,0.7-1.7c0.8-0.5,2.2-1.9,2.3-2.2c0.2-0.4,0.6-0.7,0.6-0.7
	l0.7-0.7c0,0,1.1-2.3,1.5-2.9s0.6-1.3,0.9-2.1c0.3-0.9,0.1-3.8,0.1-4.4c0.1-0.6,0.3-1.7,0.2-2.1c-0.2-0.4,0.6-0.7-0.5-1.2
	c-0.1,0-0.1-0.1-0.2-0.1c-0.7,0.9-1.7,2.3-2.4,3.1c-1,1.2-7.1,6.8-9.8,8.6c-2.7,1.7-7.5,5.3-11,7.2c0,0,1.7,0.9,2,0.9
	C47.1,90.2,48.5,90.2,48.8,90.3z"></path><path class="st6" d="M86.3,83.2c-0.5-0.6-1-1.5-1-1.5s-1-1.6-1.1-1.8s0.2-0.3-0.6-1c-0.8-0.7-2.5-2.2-3.2-2.7
	c-0.7-0.5-1.9-1.1-2.2-1.2s-2-0.4-3.1-0.8c-1.2-0.4-4.8-0.7-4.8-0.7s-0.1,0.1-0.7,0.1c-0.6,0-2.4,1.1-2.4,1.1
	c2.9,2.6,8.1,6.5,8.7,7.3c0.6,0.8,6.3,6.2,9.3,12.6c0,0,0.6-2.7,0.9-3.3c0.2-0.6,0.6-1.9,0.6-2s-0.7-2.8-0.5-3.1
	c0.2-0.3,0.4-1,0.4-1.2C86.5,84.8,86.8,83.8,86.3,83.2z"></path><path class="st5" d="M67.2,74.6c0,0-1.6,5.7-1.5,6.7c0.1,1,0.3,2,0.4,2.4S66.9,87,67,87c0.1,0,1,0.9,1,0.9s1.3,1.6,1.6,2
	c0.3,0.5,2.4,1.7,3,2.2c0.6,0.5,1.5,1,1.5,1.2c0,0.2-0.1,0.6,0.1,0.5c0.2-0.1,0.8-0.4,0.8-0.4s1.2,1.3,1.8,1.6s1.7,0.4,1.7,0.4
	s0.6,0.4,0.9,0.4c0.3,0,1.2-0.2,1.8-0.3c0.6,0,0.6,0,1.3-0.2c0.7-0.2,2.7-0.8,2.7-0.8c-3-6.3-8.7-11.8-9.3-12.6
	C75.3,81.2,70.1,77.3,67.2,74.6z"></path><path class="st8" d="M83.1,76c0-0.3-1.2-1.9-1.2-1.9s-0.2-0.9-0.5-1.3c-0.4-0.4-1-0.6-1-0.6s0-0.6-0.1-0.8c-0.1-0.2-2-1.2-2-1.2
	l0.6,0.2c0,0-0.6-0.2-1.4-0.6c-0.7-0.4-1.2-0.5-1.9-0.9c-0.7-0.4-2.6-0.6-3.9-0.6c0,0-2.5,0.2-2.7,0.4c-0.2,0.2-1.2,1.1-1.7,1.9
	c2.1,1.1,6.1,3.3,7.6,4.2c2.1,1.3,6.3,6.4,7.7,9.6l0.5-1.5c0,0,0.8-1.9,0.8-2.4S83,76.3,83.1,76z"></path><path class="st9" d="M74.7,74.8c-1.5-1-5.4-3.1-7.6-4.2c0,0-0.1,0.1-0.1,0.1c-0.5,0.8-0.6,1.7-0.6,1.7c0,0,0.2,3.1,0.2,3.4
	s0.7,1.6,1.6,2.4c1,0.8,1.5,2.2,2,2.7c0.5,0.5,1,0.3,1,0.3l1.4,1.7c0,0,0.8,0.5,1.3,1.1c0.5,0.6,1.5,0.6,2.3,0.6
	c0.8,0,2.2,0.4,2.7,0.4c0.4,0,0.6,0,1.1-0.2c0.6-0.2,2.3-0.4,2.3-0.4C81,81.2,76.9,76.1,74.7,74.8z"></path><path class="st9" d="M69.6,61.7c-0.2-0.3-1.5-1.5-1.5-1.7s-0.9-1.3-0.9-1.3S65.8,57,65.3,57S65,57.2,65,57.2s-0.6-0.6-1.4-1.2
	c-0.6-0.5-1.1-0.8-1.4-1c-0.1,0-0.4,0-1,0c-1.7-0.1-2.8,0.2-2.8,0.2S58,55.3,57,55.4c-0.9,0.2-1.3,0.2-1.3,0.2
	c2.1,2.1,10.5,9.5,12.4,14.8c0,0,0.6-1.1,1.3-2.5c0.3-0.6,0.2-1.3,0.2-3.2C69.6,62.9,69.7,62.1,69.6,61.7z"></path><path class="st8" d="M55,57c-0.1,0.3-0.2,1-0.2,1s-0.4,0.6-0.4,0.9c0,0.3-0.4,1.6-0.4,1.6S54,61.9,54,62.3c0,0.4,0.6,1.9,0.6,1.9
	l-0.2,0.6c0,0,0.6,1.1,0.9,1.2s0.5,0.9,0.5,0.9s0.6,0.4,0.9,0.9c0.3,0.5,1.8,1.5,2.1,1.5c0.2,0,1.6,1.4,1.6,1.4s1.9,0.1,2.7,0.3
	c0.8,0.2,2.6,0.5,3.3,0c0.7-0.4,1.7-0.6,1.7-0.6c-1.9-5.4-10.3-12.7-12.4-14.8C55.7,55.7,55.1,56.7,55,57z"></path><path class="st9" d="M68.1,69.4c0,0-3.1,5.3-5.1,6.2l1.8-0.1c0,0,0.9,0.3,1.2,0.3s0.2,0.2,0.8-0.1s1.7-0.9,1.7-1.1
	c0-0.2,0.6-1.7,0.6-1.7l0.6,0.1c0,0-0.2-1.8-0.4-2.3C69.2,70.3,69,69.9,68.1,69.4z"></path><path class="st10" d="M68.1,69.4c-0.9-0.5-0.9-0.5-0.9-0.5c-0.6-0.3-1.3-1.1-2.3-1c-1,0-2.2,0.4-2.2,0.4l0.3,0.6c0,0,0,0.5-0.4,0.8
	c-0.4,0.3-0.6,0.5-1,1.2c-0.4,0.7-0.4,0.7-0.4,0.7s0.2,0.4,0.2,1.1c0,0.7,0.2,1.4,0.2,1.4c0.5,0.5,1.1,1.5,1.1,1.5
	C65.1,74.6,68.1,69.4,68.1,69.4z"></path><path class="st11" d="M70,66.3c0.2-0.5,1-1.1,1.8-1.6c-0.3-0.2-1.1-0.6-1.6-0.8c-0.6-0.3-1.6-0.4-1.6-0.4s-0.6,0.3-0.8,0.6
	c-0.2,0.4-1.2,0.9-1.2,0.9l-0.1-0.7c0,0-0.6,1.2-0.8,1.4c-0.2,0.2,0,1.1-0.1,1.6s1,2.2,1,2.2l0.4,1.2l0.6,0.5c0,0,0.1,0,0.2,0
	l0.9-2.5C68.8,68.7,69.6,67.1,70,66.3z"></path><path class="st9" d="M71.8,70.8l1.5-0.8l-0.9-0.3l1.4-0.8l-0.7-0.7c0,0-0.1-0.4-0.2-1s-0.6-1.2-0.8-1.5s-0.2-1-0.2-1s-0.1,0-0.2-0.1
	c-0.8,0.6-1.6,1.2-1.8,1.6c-0.4,0.9-1.2,2.4-1.2,2.4l-0.9,2.5c0.5,0,1.6,0.1,2,0.2C70.4,71.6,71.8,70.8,71.8,70.8z"></path><path class="st12" d="M66,70.9c0.1-0.2,0.2-0.5,0.5-0.8c0.2-0.3,1-0.8,1-0.8s0.1,0.4,0.1,0.7c0,0.3,0.6,0.4,0.1,0.7
	C67.2,70.9,66,70.9,66,70.9z"></path><path class="st13" d="M67.6,70c0.6-0.3,1.6-0.3,1.5,0s-0.7,1.2-0.7,1.2l-1.2,0.6l-1.1-0.3l0.9-0.8L67.6,70z"></path></g></svg>