<?xml version="1.0" encoding="utf-8"?>
<!-- Generator: Adobe Illustrator 27.4.1, SVG Export Plug-In . SVG Version: 6.00 Build 0)  -->
<svg version="1.1" id="Layer_1" xmlns="http://www.w3.org/2000/svg" xmlns:xlink="http://www.w3.org/1999/xlink" x="0px" y="0px"
	 viewBox="0 0 108 108" style="enable-background:new 0 0 108 108;" xml:space="preserve">
<style type="text/css">
	.st0{fill:#C3CA2F;}
	.st1{fill:#91B234;}
	.st2{fill:#88A831;}
	.st3{fill:#8BAC32;}
	.st4{fill:#D4E165;}
	.st5{fill:#8EAF33;}
	.st6{fill:#9ABC37;}
	.st7{fill:#A3B63A;}
	.st8{fill:#C6D936;}
	.st9{fill:#ACD43C;}
	.st10{fill:#96B736;}
	.st11{fill:#8FC745;}
	.st12{fill:#A4BA3E;}
	.st13{fill:#C3D838;}
</style>
<g>
	<path class="st0" d="M50.6,96.3c0-1-0.1-2.9,0-5c0.1-2.2,1.6-3.2,1.6-3.2h1.6l5.2-0.9l1.9,3L59,91.7c0,0-1.1,2.4-1.1,2.8
		s-0.6,0.6-1.1,1s-1.4,0.7-1.4,0.7H50.6z"/>
	<path class="st1" d="M46.2,17.5c-0.6-1.4-2.2-4.5-2.1-5.2c0.1-0.7-1.3-2.7-1-0.6s-0.5,4.2,0,5.2c0.5,1,2.5,3.6,1,3.2
		c-1.5-0.4-3.1-2.9-3.7-3.2c-0.6-0.3-1.1,1.4,0,2.4c1.1,1,3.8,3.2,3.7,4.5s2.1,3.5,2.1,3.5s1-2.7,1.5-3.5s0.5-1.4,0-3
		C47.3,19.4,46.2,17.5,46.2,17.5z"/>
	<path class="st1" d="M39.5,47.5c-0.6-1.4-2.2-4.5-2.1-5.2c0.1-0.7-1.3-2.7-1-0.6c0.3,2.2-0.5,4.2,0,5.2c0.5,1,2.5,3.6,1,3.2
		s-3.1-2.9-3.7-3.2c-0.6-0.3-1.1,1.4,0,2.4c1.1,1,3.8,3.2,3.7,4.5s2.1,3.5,2.1,3.5s1-2.7,1.5-3.5c0.5-0.9,0.5-1.4,0-3
		C40.6,49.4,39.5,47.5,39.5,47.5z"/>
	<path class="st2" d="M59,87.2c0,0,6.9-8.5,7.2-9.4s-1-6.3-1-6.3s2.4-7.2,1-8.6s-4-2.8-5.2-3.7c-1.2-0.9-1.5-2.9-1.5-2.9
		s-2.7-5-3.6-2.6s-1.3-0.8-2.7-2.8s-1.9-5.5-1.9-8.6c0-3.2-1.4-7-2.2-7.4s-1.7,4.1-2.9,4.9c-1.2,0.9-3.4,1.9-3.8,5
		c-0.4,3.2-0.8,6.3,0.7,7.8c1.5,1.4,4.2,2.6,4.2,5.3c0,2.7,0.8,5.9-2.3,5.1c-3.1-0.8-8.7-4.5-5.3-0.5c3.4,4.1,5.3,6.4,5.5,7.5
		c0.2,1.1,1.5,3.8-0.9,4.4c-2.4,0.6-3.7-1.1-1.2,2.2c2.5,3.3,7.2,5.7,7.2,5.7s-1.7,0.6-0.8,2c0.9,1.5,1.1,3,2.7,3.7
		c3.8,1.7,2.5,3.1,3.8,1.7C57.2,88.5,59,87.2,59,87.2z"/>
	<path class="st3" d="M54.3,24.5c0.5-0.4,3.8-7.1,4-8.4s2.2-3.2,2.1-3.7c-0.1-0.6,1.8-1.1,1.8-1.1s-3.6,10.2-4,11.2
		c-0.3,1-0.8,3-1.1,3.6s-0.3,0.6-0.3,0.6L54.3,24.5z"/>
	<path class="st4" d="M59.1,28.3c0,0,1.3-3.7,2.5-5.5c1.2-1.7,0.2-2.9,1.2-1.7c1,1.1,0.3,3.9,0,5s-2.5,3.4-1.2,3.7s-0.2-2.3,2.3-1.3
		c1.3,0.5,0.7,2.7,1.3,0.5c0.6-2.2,1-3.8,1-3.8s0.4,3.1,0.6,2.2c0.1-0.9-0.2-5.4,0.1-3.7s0,5.7-0.1,7.2c-0.1,1.6,0.1,6.2,0.1,6.2
		s-1.7,3.3-0.7,5c1,1.7-0.2,1.7-0.5,4.4c-0.3,2.7-1.5,2.3-1.5,2.3s-2.9-6.3-3-7s-0.3-3.1-1.5-5c-1.1-1.9-0.7-5.6-0.7-5.6V28.3z"/>
	<path class="st5" d="M52.1,94.5c0,0-2.2-3.6-4.3-4.5s-6.2-3.2-8.1-4.3c-1.9-1.1-4.5-2.4-5.6-3.4c-1.1-1-2.7-2.3-4.7-2.4
		s-4.5,0.4-5.3,0s-1.9-1.4-1.9-1.4s7.2-1.4,7.2,0s5,1,5.7,1.1c0.7,0.1,2.9,0.4,3.4,0.6c0.6,0.1,3,2,4.2,2.6c1.1,0.6,3.3,3.7,4.3,4.2
		c1,0.4,2.9,1.4,3.7,2.2c0.9,0.7,0.6-0.3,0.9,0.7s0.1,1.7,0.4,2.3C52.4,92.7,52.1,94.5,52.1,94.5z"/>
	<path class="st6" d="M52.1,94.5c1.7-1,7.2-4.3,8.8-4.3s4.6,0.1,5.7-0.9s5.9-4.3,7.9-5c2-0.7,4-3.3,4.7-3.9s3.2-4.9,3.4-5.5
		c0.3-0.6,0.9-3.4,0.9-3.4s-1.6,1.6-4,3c-2.4,1.4-3,1.9-4.9,3.2c-1.9,1.4-6.5,3.4-6.8,3.9s-2.5,2.9-3.9,3.7
		c-1.4,0.9-3.6,1.1-4.9,1.7c-1.3,0.6-2.6,2.2-3,2.6s-1.6,1.3-1.6,1.3L52.1,94.5z"/>
	<path class="st7" d="M55.4,88.9c0,0-4.7-6.9-6.6-8.2c-1.9-1.3-4.2-1.3-6.6-2.1s-3.6-1.9-5.7-3.2c-2.2-1.3-6.3-4.2-7.2-4.7
		c-0.9-0.6-3.3-4-3.9-4.9s-6.3-12.9-6.3-13.4s-0.3-2.9,0-2.4s4.6,7.6,6.3,8.9s6.9,9,7.8,10.5s0,4.1,2.6,4.3c2.6,0.1,4.3,1.1,5.7,1.9
		c1.4,0.7,3.7,2.7,5.3,3.1c1.6,0.4,3.7,1.6,4.2,2.1s1.7,0.3,2.6,2.4C54.4,85.3,55.4,88.9,55.4,88.9z"/>
	<path class="st8" d="M68.4,71.6c1.1-1.1,7-7.3,7.9-8s6.2-5.5,7.2-6.2c1-0.7,6.2-4.3,7.2-4.5c1-0.1,4.9-0.6,4.3,0
		c-0.6,0.6-2,1.3-3.7,2.4c-1.7,1.1-6.5,5.3-7.8,7c-1.3,1.7-4,5.5-5.9,7.5c-2,2-6.3,5.3-8,6.9c-1.7,1.6-3.2,3.3-3.9,4.5
		c-0.7,1.1-2.3,2.4-3.2,3.2C61.7,85.1,67.3,72.7,68.4,71.6z"/>
	<path class="st9" d="M53.3,89.4c0.2-0.9-4.8-6-7.7-6.3c-2.9-0.3-3.7-1.8-5-1.6c-1.3,0.2-3.6-0.9-3.4,0c0.2,0.9,1.5,1.9,3.5,1.6
		c2-0.3,2.7-1.2,4.5,1.3s2.7,1.2,3.1,1.8c0.4,0.6,1.6,2.2,2.4,2.9C51.6,89.8,53.3,89.4,53.3,89.4z"/>
	<path class="st9" d="M55.4,86.2c0.6,0,2.6-5.9,2.6-6.3s-1.3-10.2-1.3-10.2s-1.3-10.5,0-11.2s3.7-6.3,4.7-9.4c1-3.1-1.4-16-2.3-20.8
		c-0.9-4.7-3.9-8.5-3.7-9.5c0.1-1-1.4-3.7-2.1-3.4c-0.7,0.3-0.1,3.7,0,6.2s2.7,19.8,2.5,21.1s-1.7,11.6-1.7,12.1s-1.3,3.4-0.8,4.7
		s0.9,6.2,0.9,6.2s0.1,4.9,0.1,5.3s0.6,7.8,0.6,7.8s-2,5.2-1.6,5.6c0.4,0.4,2.1,3.7,0.5,3.7s-1.7,4-1.7,4L55.4,86.2z"/>
	<path class="st10" d="M53.9,94.5l2.9-9.3c0,0-0.2-3.7,1.1-5.4c1.3-1.7,6-6.8,7.2-8.3c1.1-1.6,1-6.9,1.7-10.3
		c0.7-3.4-1.7-20-2.6-22.3c-0.9-2.3-1-4-1.8-4c-0.8,0-2.6,0.9-2.6,2.2c0,1.3,0.4,16.2,0.6,17.7s1.4,12.2,1.2,12.9
		c-0.2,0.7-1.5,6.5-2,7.2c-0.4,0.7-5.4,6.8-5.7,7.3c-0.4,0.6-1.9,9.9-1.9,9.9L53.9,94.5z"/>
	<path class="st9" d="M52.1,81c0-0.6,0.3-12,0-12.6s-0.1-7.8-0.9-9.1c-0.7-1.3-2.7-11.6-2.7-13.8c0-2.2-0.3-14.4,0-15.5
		c0.3-1.1,0.1-7.8-0.7-9c-0.7-1.3-3.6,2.7-3.8,4.3c-0.1,1.6-1.1,6.8-0.9,10.8s3.3,9.2,2.7,11.8c-0.6,2.6-1.1,6,0,8.5
		c1.1,2.4,1.9,6.9,1.9,6.9s-0.8,3.4,0,6c0.8,2.6,2.4,7.5,2.4,7.9S52.1,81,52.1,81z"/>
	<path class="st9" d="M55.9,89.8c0,0-7.8-14.7-8.2-15.2s-3.5-14.5-4.1-16.5c-0.6-2-2.6-4.2-3-5.5c-0.4-1.3-4.2-3.5-4.2-3.5
		s1.3,3.6,2.2,5.8c0.9,2.2,2.7,5.3,3.2,7.3c0.4,2,1,8,2,9.3s3.1,5.2,3.9,5.7s2.6,5.1,3,6.3s1.4,4.5,1.4,4.5l1.1,1.3L55.9,89.8z"/>
	<path class="st11" d="M44.3,74.4c-0.3-1.1-4-5.9-4.7-5.8s-2-0.1-2.4,0c-0.4,0.1-1.4,0.4-3.8-2c-2.4-2.4-2.4-2.8-4.5-4.2
		c-2-1.4-5.2-2.7-4.7-2c0.6,0.7,3.2,4.3,4.4,6.3c1.2,2,4.3,2.5,5.6,3.7s1.3,2.4,2.9,2.7c1.7,0.3,3.7,1,4.7,2c1,1-0.3,0.7,1.7,2.8
		c2,2.1,4.2,2.1,4.2,2.1L44.3,74.4z"/>
	<path class="st6" d="M44.3,69.8c-0.5-1.4-1.2-4.5-3.6-6c-2.4-1.5-6.4-5.9-7.1-7.7s-6-11.4-6.4-12.6c-0.3-1.1-0.6-2.2-0.3-1.1
		s3.4,5.2,4.8,7.1c1.5,2,4.8,4.3,5.7,6c0.8,1.7,1.2,4.4,1.1,3.4s-3.6-7-3.8-8.4c-0.2-1.4-2.5-4.4-0.2-1.4c2.3,2.9,6.9,10.8,6.9,10.8
		s-1.8-7.9-1.6-8.3S39.5,46,39.2,43c-0.3-3-2.8-14.2-2.4-15.3c0.4-1.1,0.5-1.5,1.3-0.2s3.2,14.6,4.4,17.4c1.2,2.7,1.3,5.5,2,7
		c0.7,1.5-0.1,5.7,0.9,8.1c1,2.4,1,8,0.6,8.6C45.6,69.1,44.3,69.8,44.3,69.8z"/>
	<path class="st9" d="M59.5,82c0,0,7.5-6,7.3-7.8c-0.1-1.8,2-7.6,2.7-8.3s6.5-6.9,7.3-8.9c0.9-2,1.5-6.9,1.9-8.8
		c0.3-1.9-0.4-6.6,0-8.2c0.4-1.6,1.9-5.3,0-7c-1.9-1.7-3.1-3.2-3.4-4c-0.3-0.9-0.3,1.9,0.3,3.3c0.6,1.4,1.9,8.6,1.1,11.8
		c-0.7,3.2-3.3,8.9-3.3,9.6s-1,3.6-2,5.3s-6.6,9.4-6.5,11c0.1,1.5-1.7,5-1.7,5.4C63.3,75.9,59.5,82,59.5,82z"/>
	<path class="st9" d="M58.4,85.3c0.5-0.2,1.2-0.6,2-1c2.6-1.3,6.2-3.2,7.1-3.7c1.1-0.6,2.3-7,3.3-9.1c1-2,7.9-10.8,8.8-11.4
		c0.9-0.7,1.7-1.3,0.9-0.7s-7.2,13.9-7.9,15.2c-0.7,1.3-4,7.2-4.5,7.3s-3.3,0.9-4,1.5C63.4,84.2,58.4,85.3,58.4,85.3z"/>
	<path class="st9" d="M68.4,59.2c0,0,0.6-8.5,1.2-9.5c0.6-1,2.6-12.8,2.1-14.1c-0.5-1.3-0.5-6.6-1-8.6s-1.5-3.6-0.6-5.6
		s-0.6,1.4-0.9,2c-0.3,0.6,0.9,12.2,0.4,13.1c-0.5,0.9-3.6,8.3-1.8,10.8c1.8,2.4,0,6.5,0,6.5L67,57.9l-0.1,3.3L68.4,59.2z"/>
	<path class="st12" d="M53.3,52c-0.2-0.9-3.5-12.2-3.5-12.7s-3.8-18.2-2-20.5s1.6-6,2.5-7.6s3.1-5,3-3.2s0,8.5,0,8.5s-0.2,4,0,6.2
		s2,15.9,2.2,17.5c0.2,1.6-1,6.7-1.1,7.5S53.3,52,53.3,52z"/>
	<path class="st11" d="M50,56.3c0.7-1.1,1.2-8.8,1.2-10.5c0-1.7-0.2-6.9,0-8.5c0.2-1.6-0.9-6.4-1.2-7.9c-0.3-1.5-0.6-2.9-0.3-1.5
		c0.3,1.5,4.7,5.4,4.4,7.7c-0.3,2.3,1.8,3.9,0.3,7.8c-1.4,3.9-2.5,8.2-2.5,8.2s0.5,4.6-0.7,4.6S50,56.3,50,56.3z"/>
	<path class="st11" d="M52.2,88.1c0,0,0.4-1.7,0.9-3.8c0.8-3.2,1.7-7.5,1.7-8.2c-0.1-1.1,3.2-5.8,3.5-6.7s1.4-4.8,1.2-5.9
		s0.1-4.6,0.1-5.9c0-1.3,4-4.9,2.9-6.7c-1.1-1.8,1-3.3,0.6-4.5c-0.4-1.2,1.2,2.7,1.2,2.7s-1,1.8-0.9,4.6c0.1,2.9,0.9,4.9,0,7.5
		c-0.9,2.6-2.6,8.2-2.9,8.6s-2.5,4-2.3,5.3c0.2,1.3-2.8,6.9-2.8,6.9L52.2,88.1z"/>
	<path class="st13" d="M54.9,78.7c0,0-1.6-4.1-5.3-7.2s-5.3-5.6-6.5-7.5s0-0.3-3.4-1.5c-3.4-1.2-7.2-2.2-7.6-3.3
		c-0.4-1.2-3.9-3.8-3.9-3.8s1.7,4.5,3.4,5.8c1.7,1.3,3.7,2.7,4.9,3.5s2.3,2.6,5,3.9c2.7,1.2,3,2.9,4.2,3.7s2.9,5.1,4.4,4.9
		c1.6-0.1,2.9,0.6,2.4,1.6c-0.5,1-0.5,2.3-0.5,2.3l1,3.3L54.9,78.7z"/>
</g>
</svg>
