<?xml version="1.0" encoding="utf-8"?>
<!-- Generator: Adobe Illustrator 23.1.1, SVG Export Plug-In . SVG Version: 6.00 Build 0)  -->
<svg version="1.1" id="Layer_1" xmlns="http://www.w3.org/2000/svg" xmlns:xlink="http://www.w3.org/1999/xlink" x="0px" y="0px"
	 viewBox="0 0 108 108" style="enable-background:new 0 0 108 108;" xml:space="preserve">
<style type="text/css">
	.st0{fill:#529643;}
	.st1{fill:#69BD46;}
	.st2{fill:#2B703D;}
	.st3{fill:#67BD47;}
</style>
<g>
	<path class="st0" d="M58.64,46.06c-2.04-0.42-2.51-1.08-4.12-0.42c-1.61,0.66-4.06,3.81-4.06,3.81s-3.4,6.23,3.58,7.28
		c6.98,1.06,5.38,1.58,8.19,0.21c2.82-1.36,3.6-0.51,4.19-2.85s1.65-2.96,2.84-5.41c1.19-2.45,1.77-3.09,2.29-6.18
		c0.52-3.09,1.21-4.65,4.16-5.62c2.95-0.96,5.04-2.69,5.97-4.93c0.93-2.24,1.69-3.41,1.69-3.41l1.36-1.07c0,0-6.77-4.56-8.78-4.89
		c-2.01-0.33-5.47-1.27-5.47-1.27s-1.71,1.52-5.81,2.85c-4.1,1.33-6.22,2.14-6.22,2.14s-3.31,2.99-4.61,5.64
		c-1.31,2.65-2.67,5.15-3.15,6.57c-0.49,1.41-0.78,3.23,0.05,4.37c0.83,1.14,0.02,1.96,3.07,1.77c3.05-0.18,3.53-0.24,4.12,0.35
		C58.51,45.59,59.3,46.19,58.64,46.06"/>
	<path class="st1" d="M82.93,27.39c-0.3,0.01-0.59,0.08-0.88,0.13l-0.86,0.17l-0.86,0.17c-0.29,0.05-0.58,0.12-0.87,0.2
		c-0.67,0.19-1.31,0.46-1.95,0.76c0.09-0.18,0.17-0.36,0.26-0.54c0.16-0.31,0.32-0.62,0.49-0.92c0.17-0.3,0.35-0.59,0.55-0.86
		c0.2-0.26,0.41-0.53,0.67-0.67l0.01,0c0.02-0.01,0.03-0.04,0.02-0.07c-0.01-0.03-0.04-0.05-0.06-0.04
		c-0.15,0.06-0.3,0.14-0.43,0.25c-0.07,0.05-0.13,0.11-0.19,0.16c-0.06,0.06-0.12,0.11-0.18,0.18c-0.23,0.24-0.45,0.51-0.66,0.78
		c-0.21,0.27-0.41,0.55-0.6,0.84c-0.19,0.29-0.38,0.58-0.56,0.89c-0.01,0.01-0.01,0.03-0.02,0.04c-0.03,0.06-0.04,0.13-0.03,0.2
		l-0.03-0.01l-0.01,0l-0.03,0c-0.02,0-0.04-0.01-0.06-0.01c-0.17,0-0.31,0.16-0.32,0.36c-0.06,0.03-0.11,0.05-0.16,0.08
		c-0.27,0.13-0.53,0.26-0.8,0.37l-0.2,0.08c-0.06,0.02-0.15,0.07-0.22,0.11c-0.04,0.02-0.07,0.04-0.11,0.07l-0.1,0.07
		c-0.07,0.05-0.13,0.1-0.19,0.15c-0.32,0.26-0.63,0.54-0.93,0.82c0-0.03,0.01-0.05,0.01-0.08l0.12-0.97
		c0.08-0.65,0.16-1.29,0.25-1.92c0.1-0.64,0.2-1.27,0.35-1.88c0.07-0.31,0.16-0.61,0.26-0.9c0.1-0.29,0.23-0.57,0.4-0.79l0,0
		c0.02-0.02,0.02-0.06,0-0.08c-0.02-0.02-0.05-0.03-0.07-0.01c-0.2,0.22-0.35,0.5-0.47,0.79c-0.13,0.29-0.23,0.59-0.32,0.89
		c-0.19,0.61-0.34,1.24-0.48,1.87c-0.14,0.63-0.26,1.27-0.38,1.9l-0.18,0.95c-0.06,0.29-0.11,0.58-0.18,0.85
		c-0.02-0.01-0.05-0.02-0.07-0.02l0,0l-0.01,0c-0.12-0.04-0.23,0.05-0.25,0.2c-0.01,0.07,0,0.13,0.03,0.19
		c-0.72,0.7-1.43,1.42-2.13,2.15c-0.1,0.1-0.19,0.2-0.29,0.3c0.02-0.17,0.04-0.33,0.06-0.5c0.06-0.56,0.11-1.13,0.14-1.69
		c0.03-0.57,0.05-1.13,0.06-1.7c0.01-0.56,0.01-1.12,0-1.68c0.06-0.47,0.14-0.94,0.22-1.4c0.09-0.47,0.19-0.94,0.3-1.4
		c0.12-0.46,0.25-0.91,0.42-1.33c0.08-0.21,0.18-0.42,0.29-0.61c0.11-0.19,0.24-0.37,0.39-0.49v0c0.02-0.02,0.03-0.05,0.01-0.08
		c-0.02-0.03-0.05-0.04-0.07-0.02c-0.18,0.13-0.32,0.3-0.44,0.5c-0.12,0.19-0.23,0.4-0.32,0.61c-0.19,0.43-0.34,0.88-0.48,1.33
		c-0.14,0.46-0.25,0.92-0.36,1.39c-0.11,0.47-0.2,0.94-0.28,1.43l0,0.01v0.02c-0.01,0.56-0.03,1.12-0.06,1.67
		c-0.03,0.56-0.07,1.11-0.12,1.66c-0.05,0.55-0.11,1.1-0.19,1.64c-0.07,0.47-0.16,0.93-0.28,1.36c-0.87,0.9-1.73,1.81-2.59,2.72
		c0,0,0-0.01,0-0.01c-0.02-0.29-0.04-0.57-0.06-0.86l-0.14-1.7l-0.29-3.4c-0.05-0.57-0.09-1.13-0.13-1.69
		c-0.04-0.56-0.07-1.13-0.1-1.69c-0.02-0.56-0.04-1.13-0.02-1.68c0.01-0.28,0.03-0.55,0.08-0.82c0.04-0.27,0.11-0.53,0.21-0.76
		c0.01-0.03,0-0.06-0.02-0.08c-0.02-0.02-0.05-0.01-0.07,0.01c-0.13,0.24-0.21,0.51-0.27,0.78c-0.06,0.27-0.1,0.55-0.13,0.84
		c-0.06,0.57-0.07,1.13-0.08,1.7c-0.01,0.57-0.01,1.13,0,1.7c0.01,0.57,0.03,1.14,0.04,1.7l0.1,3.4l0.05,1.7
		c0.01,0.28,0.01,0.56,0.02,0.84c0,0.14,0,0.28,0,0.42c0,0.14,0,0.27-0.01,0.39l0,0.03v0.03c0,0.01,0,0.01,0,0.02
		c-0.28,0.29-0.55,0.59-0.83,0.88l-1.25,1.35c-0.03-0.42-0.08-0.84-0.13-1.25c-0.08-0.65-0.19-1.29-0.3-1.94
		c-0.06-0.32-0.12-0.64-0.18-0.96l-0.19-0.95c-0.13-0.63-0.25-1.25-0.38-1.88c-0.12-0.63-0.24-1.26-0.35-1.89
		c-0.05-0.31-0.1-0.63-0.15-0.94l-0.03-0.23l-0.02-0.22c0-0.15-0.01-0.31,0-0.46c0.01-0.63,0.04-1.26,0.07-1.9
		c0.04-0.63,0.07-1.27,0.14-1.89v0c0-0.03-0.01-0.06-0.04-0.07c-0.03-0.01-0.05,0.01-0.06,0.04c-0.1,0.62-0.18,1.25-0.26,1.87
		c-0.08,0.63-0.15,1.25-0.2,1.89c-0.01,0.16-0.02,0.32-0.03,0.49l0,0.26l0.02,0.25c0.02,0.33,0.05,0.65,0.09,0.97
		c0.07,0.64,0.15,1.28,0.23,1.92c0.08,0.64,0.17,1.28,0.26,1.91l0.13,0.95c0.04,0.31,0.08,0.63,0.11,0.94
		c0.07,0.63,0.13,1.26,0.17,1.88c0.04,0.62,0.06,1.25,0.04,1.82v0.01c0,0.02,0,0.04,0,0.05c0,0.12,0.03,0.23,0.08,0.34l-1.06,1.14
		l-0.01-0.03l-0.31-0.77l-0.62-1.54c-0.41-1.01-0.82-2.02-1.24-3.03l-0.95-4.81l-0.23-1.22c-0.07-0.4-0.13-0.81-0.19-1.22
		c-0.12-0.82-0.23-1.64-0.34-2.47c0-0.03-0.02-0.05-0.05-0.06c-0.03,0-0.05,0.02-0.05,0.06c0.02,0.83,0.05,1.66,0.1,2.49
		c0.03,0.42,0.06,0.83,0.1,1.25c0.04,0.42,0.1,0.83,0.16,1.24c0.11,0.82,0.23,1.65,0.36,2.47c0.13,0.82,0.26,1.64,0.4,2.46
		l0.01,0.05l0.02,0.06c0.4,1.04,0.8,2.07,1.2,3.11l0.61,1.55l0.31,0.77l0.12,0.3L61,44.33l-0.31-0.5l-0.4-0.66l-0.8-1.32
		c-0.53-0.88-1.06-1.77-1.59-2.66c-0.26-0.44-0.53-0.89-0.78-1.34c-0.26-0.44-0.49-0.9-0.72-1.37c-0.45-0.94-0.84-1.92-1.24-2.9
		c-0.01-0.03-0.04-0.04-0.06-0.03c-0.03,0.01-0.04,0.05-0.03,0.08l0,0c0.35,1,0.7,2.01,1.11,2.99c0.2,0.49,0.43,0.98,0.67,1.44
		c0.24,0.47,0.48,0.93,0.72,1.39c0.48,0.92,0.97,1.84,1.46,2.76l0.74,1.38l0.09,0.17c-0.32-0.28-0.65-0.56-0.97-0.83
		c-0.73-0.62-1.47-1.22-2.19-1.85c-0.36-0.31-0.71-0.63-1.05-0.97c-0.17-0.17-0.33-0.34-0.48-0.53c-0.08-0.09-0.14-0.18-0.21-0.29
		c-0.07-0.1-0.14-0.2-0.21-0.31c-0.27-0.42-0.53-0.86-0.77-1.31c-0.24-0.45-0.47-0.92-0.68-1.39l0,0c-0.01-0.03-0.04-0.04-0.06-0.03
		c-0.02,0.01-0.04,0.05-0.02,0.08c0.17,0.5,0.37,0.99,0.58,1.48c0.21,0.48,0.44,0.96,0.69,1.42c0.06,0.12,0.13,0.23,0.19,0.34
		c0.06,0.11,0.14,0.23,0.22,0.34c0.15,0.22,0.32,0.42,0.48,0.61c0.33,0.38,0.67,0.74,1.02,1.09c0.69,0.7,1.4,1.36,2.1,2.03
		c0.23,0.22,0.45,0.44,0.67,0.65l-3.89-1.85l-0.01-0.01l0,0c-0.52-0.18-1.05-0.37-1.56-0.58c-0.26-0.11-0.52-0.21-0.77-0.34
		c-0.13-0.06-0.25-0.13-0.37-0.2c-0.06-0.04-0.12-0.07-0.18-0.12c-0.03-0.02-0.06-0.04-0.08-0.07c-0.02-0.02-0.04-0.05-0.05-0.07
		l0-0.01c-0.01-0.03-0.04-0.05-0.06-0.04c-0.03,0.01-0.04,0.04-0.03,0.07c0.02,0.06,0.05,0.1,0.08,0.13
		c0.03,0.03,0.06,0.06,0.09,0.09c0.06,0.05,0.12,0.1,0.18,0.14c0.12,0.09,0.25,0.17,0.37,0.24c0.25,0.15,0.5,0.28,0.76,0.42
		c0.51,0.26,1.02,0.5,1.54,0.73l-0.02-0.01l4.81,2.7c-0.04,0.14-0.05,0.29-0.01,0.44c-0.08,0.08-0.13,0.18-0.15,0.29
		c-0.65,0.26-1.38,0.37-2.1,0.53c-0.38,0.09-0.77,0.19-1.14,0.35c-0.09,0.04-0.19,0.09-0.27,0.13c-0.09,0.05-0.17,0.09-0.26,0.13
		l-0.53,0.26c-0.18,0.09-0.36,0.19-0.53,0.31c-0.17,0.12-0.33,0.27-0.48,0.42c-0.15,0.16-0.28,0.33-0.4,0.51
		c-0.12,0.18-0.24,0.36-0.36,0.55c-0.23,0.36-0.47,0.72-0.7,1.1c-0.23,0.37-0.43,0.78-0.55,1.24c-0.01,0.03,0.01,0.06,0.03,0.08
		c0.03,0.01,0.05,0,0.06-0.03c0.13-0.43,0.34-0.81,0.58-1.16c0.24-0.36,0.49-0.7,0.74-1.05c0.12-0.17,0.25-0.35,0.37-0.51
		c0.13-0.16,0.26-0.32,0.4-0.46c0.28-0.28,0.61-0.47,0.96-0.62l0.54-0.22c0.09-0.04,0.18-0.08,0.27-0.12
		c0.09-0.04,0.17-0.07,0.26-0.11c0.1-0.04,0.2-0.07,0.31-0.1c-0.02,0.01-0.03,0.03-0.05,0.04c-0.08,0.07-0.16,0.15-0.24,0.23
		c-0.07,0.08-0.15,0.18-0.21,0.26l-0.37,0.51c-0.25,0.34-0.5,0.68-0.74,1.05c-0.23,0.37-0.44,0.8-0.54,1.28
		c-0.05,0.24-0.08,0.47-0.1,0.71c-0.02,0.24-0.04,0.47-0.05,0.71c-0.02,0.47-0.03,0.95-0.02,1.42v0.01l0,0.01
		c0.08,0.35,0.16,0.69,0.25,1.04c0.04,0.17,0.09,0.34,0.15,0.51c0.03,0.09,0.06,0.17,0.09,0.25c0.02,0.04,0.04,0.08,0.06,0.13
		c0.01,0.02,0.02,0.04,0.04,0.06c0.01,0.01,0.02,0.02,0.03,0.03c0.02,0.01,0.04,0.02,0.06,0.01c0.03-0.01,0.04-0.04,0.03-0.07
		c-0.01-0.03-0.03-0.05-0.05-0.05c0,0,0,0-0.01-0.01c-0.01-0.01-0.02-0.03-0.03-0.04c-0.02-0.03-0.03-0.07-0.05-0.11
		c-0.03-0.08-0.06-0.16-0.08-0.24c-0.05-0.17-0.1-0.34-0.14-0.51c-0.09-0.34-0.17-0.68-0.24-1.02c0.04-0.46,0.08-0.92,0.14-1.38
		c0.03-0.23,0.06-0.46,0.1-0.68c0.04-0.22,0.08-0.45,0.13-0.65c0.23-0.83,0.79-1.43,1.3-2.09l0.39-0.5
		c0.07-0.09,0.12-0.16,0.18-0.23c0.06-0.07,0.13-0.13,0.2-0.19c0.28-0.24,0.61-0.41,0.96-0.55c0.34-0.13,0.71-0.23,1.07-0.31
		c0.18-0.04,0.37-0.07,0.56-0.1l0.09-0.02l0.62,2.53l0,0.02c0.23,0.66,0.47,1.31,0.74,1.95c0.13,0.32,0.27,0.64,0.42,0.95
		c0.15,0.31,0.31,0.62,0.5,0.9c0.02,0.03,0.05,0.03,0.07,0.01c0.02-0.02,0.02-0.06,0-0.09h0c-0.18-0.27-0.34-0.58-0.49-0.88
		c-0.15-0.31-0.29-0.62-0.42-0.94c-0.27-0.63-0.51-1.28-0.74-1.93l0.19-2.99c0-0.05,0-0.09,0-0.14c0.03-0.02,0.06-0.05,0.09-0.08
		l0.96-1.11l0.09,0.14c0.08,0.13,0.16,0.25,0.25,0.38c0.17,0.25,0.34,0.49,0.53,0.72c0.19,0.23,0.38,0.45,0.58,0.65
		c0.1,0.1,0.21,0.2,0.32,0.29c0.05,0.05,0.11,0.09,0.17,0.14c0.06,0.04,0.11,0.08,0.18,0.12l1.48,1.42l0.64,1.8
		c0.01,0.03,0.04,0.05,0.07,0.04c0.02-0.01,0.04-0.05,0.02-0.08l-0.65-1.82l0-0.01l-0.01-0.01l-1.32-1.72l-0.04-0.04
		c-0.03-0.03-0.09-0.08-0.13-0.12c-0.04-0.05-0.09-0.09-0.13-0.15c-0.09-0.1-0.17-0.21-0.25-0.31c-0.16-0.22-0.31-0.45-0.45-0.69
		c-0.14-0.24-0.27-0.49-0.4-0.74c-0.06-0.13-0.12-0.26-0.18-0.38l-0.14-0.33l1.53-1.78c0.02,0.18,0.11,0.35,0.25,0.45l0.09,0.06
		l0.08,0.05l0.14,0.09l0.28,0.16l0.56,0.31l1.12,0.6l-0.04-0.03l1.34,1.02c0.19,0.14,0.37,0.38,0.5,0.63
		c0.13,0.26,0.21,0.55,0.24,0.86v0c0,0.03,0.02,0.05,0.05,0.06c0.03,0,0.05-0.02,0.05-0.06c0.01-0.32-0.04-0.66-0.15-0.97
		c-0.06-0.16-0.12-0.31-0.21-0.45c-0.08-0.14-0.18-0.28-0.3-0.39l-1.22-1.25l-0.04-0.03l-1.03-0.8l-0.51-0.4l-0.25-0.2
		c-0.04-0.03-0.08-0.07-0.12-0.1l-0.06-0.05l-0.04-0.04l-0.01-0.01c-0.02-0.02-0.04-0.04-0.06-0.05c-0.05-0.03-0.1-0.05-0.15-0.06
		l1.38-1.6c0.29-0.34,0.58-0.67,0.87-1c0.04,0.07,0.11,0.13,0.18,0.14h0c0.06,0.01,0.14,0.03,0.21,0.05
		c0.08,0.02,0.15,0.04,0.23,0.07c0.15,0.05,0.31,0.1,0.46,0.16c0.31,0.11,0.61,0.24,0.91,0.38c0.3,0.14,0.59,0.3,0.87,0.49
		c0.14,0.09,0.28,0.2,0.4,0.31c0.13,0.12,0.24,0.25,0.32,0.41l0,0c0.01,0.03,0.04,0.04,0.06,0.03c0.02-0.01,0.03-0.05,0.02-0.08
		c-0.08-0.2-0.2-0.35-0.32-0.49c-0.13-0.14-0.26-0.26-0.4-0.38c-0.28-0.23-0.57-0.42-0.87-0.61c-0.3-0.18-0.6-0.35-0.9-0.5
		c-0.15-0.08-0.31-0.15-0.46-0.22c-0.08-0.04-0.16-0.07-0.24-0.1c-0.05-0.02-0.1-0.04-0.15-0.05c0.86-0.99,1.73-1.98,2.6-2.96
		c0.06,0.15,0.19,0.25,0.32,0.25c0.06,0,0.14,0.01,0.22,0.03c0.08,0.02,0.17,0.04,0.25,0.06c0.17,0.05,0.34,0.1,0.52,0.15
		c0.17,0.06,0.34,0.12,0.51,0.19c0.17,0.07,0.34,0.14,0.49,0.24l0,0c0.02,0.01,0.04,0.01,0.06-0.01c0.02-0.02,0.02-0.06-0.01-0.09
		c-0.15-0.16-0.3-0.29-0.46-0.41c-0.16-0.12-0.32-0.24-0.48-0.35c-0.16-0.11-0.33-0.22-0.5-0.33c-0.08-0.05-0.17-0.1-0.26-0.15
		c-0.07-0.04-0.14-0.07-0.22-0.11c0.25-0.28,0.5-0.57,0.76-0.85c0.76-0.84,1.52-1.67,2.29-2.49c0.15,0.03,0.3,0.06,0.45,0.09
		c0.29,0.05,0.57,0.1,0.86,0.14c0.57,0.08,1.15,0.16,1.72,0.22l0.01,0h0c0.38,0.01,0.76,0,1.14-0.02c0.19-0.01,0.38-0.03,0.57-0.05
		c0.19-0.03,0.38-0.06,0.56-0.12c0.02-0.01,0.04-0.04,0.03-0.07c-0.01-0.03-0.04-0.05-0.06-0.05h0c-0.18,0.05-0.36,0.07-0.55,0.08
		c-0.19,0.01-0.38,0.01-0.57,0.01c-0.38,0-0.75-0.03-1.13-0.06c-0.57-0.11-1.14-0.22-1.7-0.35c-0.28-0.06-0.57-0.13-0.85-0.2
		c-0.03-0.01-0.07-0.02-0.1-0.03c0.4-0.41,0.8-0.82,1.22-1.18c0.06-0.05,0.11-0.1,0.17-0.14l0.09-0.07
		c0.03-0.02,0.06-0.05,0.08-0.06c0.09-0.06,0.25-0.12,0.38-0.19c0.27-0.13,0.54-0.27,0.81-0.41c0.05-0.03,0.11-0.06,0.16-0.09
		c0.05,0.05,0.12,0.08,0.18,0.08c0,0,0,0,0,0l0.01,0l0.02,0l0.06,0.01l0.13,0.03l0.27,0.06l0.55,0.12c0.37,0.08,0.73,0.15,1.1,0.22
		c0.37,0.07,0.74,0.13,1.11,0.18c0.18,0.02,0.37,0.04,0.56,0.05c0.09,0,0.19,0.01,0.28,0c0.09-0.01,0.19-0.01,0.29-0.06
		c0.02-0.01,0.03-0.04,0.03-0.07c-0.01-0.03-0.04-0.05-0.06-0.04l0,0c-0.07,0.02-0.17,0.02-0.25,0.01
		c-0.09-0.01-0.18-0.03-0.27-0.05c-0.18-0.04-0.36-0.09-0.54-0.14c-0.36-0.11-0.72-0.23-1.07-0.35c-0.36-0.13-0.71-0.26-1.07-0.39
		l-0.4-0.15c0.69-0.37,1.39-0.72,2.12-0.96c0.28-0.09,0.56-0.17,0.84-0.23l0.86-0.21l0.86-0.21c0.29-0.07,0.57-0.14,0.86-0.17
		c0.03,0,0.05-0.03,0.04-0.06C82.98,27.41,82.96,27.38,82.93,27.39 M55.33,55.66C55.33,55.66,55.33,55.66,55.33,55.66
		C55.33,55.66,55.33,55.66,55.33,55.66"/>
	<path class="st1" d="M76.7,29.87c-0.01,0-0.02,0-0.03,0c0,0,0,0,0.01,0C76.69,29.87,76.7,29.87,76.7,29.87"/>
	<path class="st2" d="M50.98,37.18c0.37,1.64,2.86,1.99,5.23,1.35c2.37-0.64,3.75-1.61,3.24-4.7c-0.51-3.09-2.16-5.13-3.67-7.44
		c-1.5-2.31-0.36-2.83-4.66-6.14c-4.31-3.32-5.6-3.59-7.34-4.65c-1.74-1.06-1.73-1.72-2.79-2.12c-1.06-0.4-1.74-1.42-0.91,0.31
		c0.82,1.73,1.59,0.94,1.72,3.44c0.13,2.49,1.03,4.14,0.63,7.29c-0.4,3.15-0.25,2.95-0.66,6.3c-0.41,3.34-0.66,6.75-0.37,8.33
		c0.29,1.58,0.81,3.09,2.79,3.24c1.98,0.15,4.68,0.76,5.31-0.68c0.63-1.44,1.09-0.98,1.02-2.29c-0.06-1.31-0.21-1.71-0.13-2.5
		C50.46,36.12,50.84,36.52,50.98,37.18"/>
	<path class="st3" d="M47.26,40.23c0.08-0.26,0.14-0.52,0.2-0.78l0.17-0.78c0.06-0.26,0.12-0.51,0.21-0.76
		c0.09-0.25,0.19-0.48,0.33-0.72c0.13-0.23,0.28-0.45,0.45-0.66c0.08-0.11,0.17-0.21,0.27-0.3c0.03-0.03,0.06-0.06,0.08-0.08
		c0,0.01,0,0.02,0.01,0.03l0.04,0.15c0.06,0.2,0.29,0.32,0.52,0.28c0.24-0.04,0.39-0.25,0.34-0.45l-0.02-0.07
		c-0.01-0.03-0.01-0.05-0.02-0.08c0-0.01-0.01-0.03-0.01-0.05l-0.01-0.05c-0.01-0.06-0.03-0.12-0.04-0.18l0.33,0.05
		c0.34,0.05,0.68,0.11,1.02,0.19c0.08,0.02,0.17,0.04,0.25,0.06c0.04,0.01,0.08,0.02,0.13,0.03l0.14,0.03
		c0.09,0.02,0.18,0.03,0.27,0.05l0.13,0.02l0.13,0.01l0.27,0.03l0.27,0.02c0.18,0.02,0.35,0.02,0.53,0.03
		c0.71,0.04,1.41,0.05,2.12,0.06c0.35,0,0.71,0,1.06,0c0.36,0,0.7,0,1.06-0.02l-0.01-0.07c-0.35,0-0.7-0.01-1.05-0.02
		c-0.35-0.01-0.7-0.02-1.06-0.04c-0.7-0.03-1.41-0.07-2.11-0.13c-0.17-0.02-0.35-0.03-0.52-0.05l-0.26-0.03l-0.26-0.04l-0.13-0.02
		l-0.13-0.02c-0.08-0.02-0.17-0.03-0.25-0.05l-0.12-0.03c-0.04-0.01-0.08-0.03-0.13-0.04c-0.09-0.03-0.17-0.05-0.26-0.07
		c-0.34-0.09-0.69-0.17-1.04-0.24l-0.49-0.09l-0.03-0.12l-0.01-0.05c0.13-0.02,0.26-0.05,0.38-0.08c0.29-0.07,0.57-0.14,0.85-0.22
		c0.56-0.16,1.11-0.33,1.66-0.51l0.03-0.01l0.02-0.01l2.49-1.75l1.24-0.88l0.62-0.44l0.31-0.22l0.15-0.11l0.08-0.06l0.04-0.03
		l0.02-0.02c0.01-0.01,0.02-0.02,0.03-0.03l-0.07-0.02c0,0-0.01,0-0.01,0l-0.02,0.01l-0.04,0.03l-0.08,0.06L57.2,31l-0.32,0.21
		l-0.63,0.42l-1.27,0.84l-2.53,1.66c-0.55,0.13-1.11,0.26-1.67,0.37c-0.28,0.06-0.57,0.11-0.85,0.15c-0.12,0.02-0.24,0.04-0.36,0.05
		l-0.08-0.37l-0.11-0.57c0.35-0.04,0.68-0.15,0.97-0.28c0.4-0.18,0.75-0.4,1.07-0.64c0.65-0.48,1.19-1.03,1.7-1.6
		c0.5-0.57,0.96-1.17,1.39-1.78c0.21-0.31,0.42-0.62,0.62-0.93c0.2-0.31,0.39-0.63,0.56-0.96l-0.07-0.03
		c-0.19,0.31-0.4,0.62-0.62,0.92c-0.22,0.3-0.45,0.6-0.68,0.89c-0.47,0.58-0.97,1.14-1.5,1.68c-0.53,0.53-1.11,1.03-1.74,1.45
		c-0.32,0.2-0.65,0.39-1,0.52c-0.27,0.1-0.55,0.17-0.82,0.18l-0.13-0.64l-0.2-1c0.35-0.14,0.68-0.3,1-0.48
		c0.33-0.19,0.65-0.41,0.94-0.65c0.29-0.24,0.56-0.5,0.78-0.8c0.22-0.3,0.39-0.6,0.55-0.91c0.32-0.62,0.58-1.25,0.84-1.88
		c0.26-0.63,0.5-1.27,0.72-1.91l-0.07-0.02c-0.26,0.63-0.54,1.25-0.83,1.87c-0.29,0.62-0.6,1.23-0.94,1.82
		c-0.17,0.29-0.36,0.59-0.57,0.85c-0.22,0.26-0.48,0.49-0.76,0.7c-0.28,0.21-0.59,0.4-0.91,0.56c-0.27,0.14-0.55,0.26-0.83,0.36
		l-0.06-0.32l-0.09-0.45l-0.05-0.23c-0.01-0.05-0.02-0.08-0.03-0.12l-0.03-0.11l-0.25-0.89l-0.39-1.4l0.1,0.01l0.04-0.16l0.06-0.18
		c0.04-0.12,0.09-0.24,0.14-0.36c0.1-0.24,0.21-0.48,0.31-0.71c0.22-0.48,0.44-0.95,0.67-1.42c0.45-0.95,0.92-1.89,1.39-2.83
		l-0.07-0.03c-0.53,0.91-1.06,1.83-1.58,2.75c-0.26,0.46-0.51,0.92-0.76,1.39c-0.13,0.23-0.25,0.47-0.36,0.71
		c-0.04,0.07-0.07,0.15-0.11,0.22c-0.15-0.53-0.3-1.06-0.45-1.58l-0.34-1.16h0.07c0-0.04,0-0.08,0-0.12l0.02-0.01
		c0-0.01-0.01-0.01-0.02-0.02c0.01-0.11,0.04-0.23,0.07-0.35c0.04-0.17,0.1-0.34,0.16-0.52c0.12-0.34,0.27-0.69,0.42-1.03
		c0.31-0.68,0.66-1.35,1.02-2.01l-0.07-0.03c-0.43,0.64-0.83,1.28-1.21,1.95c-0.19,0.33-0.37,0.67-0.53,1.01
		c-0.06,0.13-0.11,0.25-0.16,0.38l-0.49-1.66l0-0.01l0,0l-0.63-1.61l-0.02-0.06c0.06-0.02,0.09-0.04,0.11-0.06
		c0.01-0.02,0.01-0.04,0.02-0.06l0.03-0.06c0.04-0.08,0.08-0.16,0.12-0.24c0.09-0.16,0.2-0.33,0.31-0.49
		c0.11-0.16,0.22-0.33,0.34-0.49c0.11-0.17,0.23-0.33,0.35-0.5l-0.06-0.04c-0.19,0.12-0.35,0.26-0.51,0.4
		c-0.16,0.14-0.31,0.29-0.45,0.45c-0.14,0.16-0.27,0.32-0.39,0.5c-0.02,0.03-0.04,0.07-0.06,0.11l-0.1-0.25
		c-0.11-0.27-0.22-0.54-0.35-0.8c-0.11-0.24-0.24-0.47-0.36-0.7c0.05-0.03,0.08-0.07,0.11-0.1c0.03-0.04,0.06-0.09,0.08-0.13
		c0.04-0.09,0.07-0.17,0.09-0.25c0.05-0.17,0.08-0.33,0.11-0.5l-0.08-0.02c-0.07,0.15-0.15,0.3-0.24,0.44
		c-0.04,0.07-0.09,0.14-0.15,0.2c-0.03,0.03-0.05,0.06-0.08,0.08c0,0,0,0,0,0c-0.11-0.19-0.22-0.37-0.33-0.56
		c-0.16-0.25-0.35-0.49-0.54-0.72c-0.1-0.11-0.2-0.23-0.31-0.33c-0.11-0.11-0.22-0.21-0.36-0.3c-0.02-0.01-0.04-0.01-0.05,0.01
		c-0.01,0.01-0.01,0.04,0.01,0.05l0,0c0.12,0.09,0.23,0.19,0.33,0.3c0.1,0.11,0.19,0.23,0.29,0.34c0.18,0.23,0.35,0.48,0.49,0.73
		c0.11,0.21,0.22,0.42,0.32,0.63c-0.11,0-0.23,0-0.35-0.01c-0.19-0.02-0.38-0.04-0.58-0.07c-0.19-0.03-0.39-0.06-0.58-0.1
		l-0.29-0.06l-0.28-0.06l-0.04,0.06l0.14,0.06l0.14,0.05l0.27,0.11c0.18,0.07,0.37,0.13,0.56,0.19c0.19,0.06,0.38,0.12,0.58,0.17
		c0.2,0.05,0.39,0.09,0.64,0.1c0.08,0.16,0.15,0.33,0.22,0.49c0.11,0.27,0.21,0.53,0.3,0.8l0.18,0.53
		c-0.08-0.03-0.17-0.06-0.25-0.09l-0.6-0.22c-0.4-0.15-0.8-0.3-1.21-0.44l-0.03,0.06c0.38,0.19,0.74,0.39,1.11,0.59l0.55,0.3
		c0.09,0.05,0.19,0.1,0.28,0.15c0.05,0.02,0.1,0.05,0.15,0.07l0.08,0.04c0.02,0.01,0.05,0.02,0.08,0.03l0.48,1.42l0.47,1.88
		c-0.06-0.01-0.13-0.01-0.19-0.02c-0.28-0.02-0.55-0.02-0.82-0.02c-0.27,0-0.54,0-0.81,0c-0.27,0-0.53-0.01-0.8-0.04l-0.02,0.06
		c0.26,0.07,0.53,0.11,0.8,0.16c0.27,0.04,0.53,0.08,0.8,0.11c0.26,0.04,0.53,0.08,0.78,0.13c0.13,0.03,0.25,0.05,0.36,0.09
		c0.01,0,0.01,0.01,0.02,0.01l0.94,3.77c-0.06,0-0.11,0-0.17-0.01c-0.2,0-0.38,0.01-0.57,0.03c-0.37,0.04-0.73,0.1-1.09,0.18
		c-0.36,0.08-0.71,0.16-1.06,0.27c-0.35,0.11-0.69,0.22-1.01,0.38l0.04,0.06c0.32-0.13,0.67-0.22,1.02-0.3
		c0.35-0.08,0.7-0.14,1.06-0.18c0.35-0.05,0.71-0.08,1.06-0.09c0.18,0,0.35,0,0.52,0.01c0.08,0.01,0.17,0.02,0.24,0.03
		c0.02,0,0.03,0.01,0.05,0.01l0.15,0.62l0.22,0.89l0.03,0.11c0.01,0.04,0.02,0.08,0.02,0.11l0.04,0.22l0.08,0.45l0.12,0.67
		c-0.02,0.01-0.04,0.02-0.05,0.02L48,31.54l-0.08,0.04l-0.16,0.09l-0.32,0.17c-0.21,0.12-0.43,0.23-0.64,0.34
		c-0.43,0.22-0.87,0.44-1.31,0.64c-0.44,0.2-0.89,0.39-1.36,0.56c-0.23,0.08-0.47,0.16-0.7,0.22c-0.24,0.06-0.48,0.11-0.73,0.12
		l0,0.07c0.26,0.01,0.51-0.02,0.76-0.07c0.25-0.04,0.5-0.1,0.74-0.17c0.49-0.13,0.96-0.3,1.43-0.47c0.47-0.17,0.93-0.36,1.38-0.56
		c0.23-0.1,0.45-0.2,0.68-0.3l0.34-0.15L48.18,32l0.11,0.64c0.05,0.27,0.1,0.54,0.15,0.82c-0.39,0.39-0.78,0.77-1.17,1.16
		c-0.22,0.21-0.44,0.43-0.66,0.64l-0.33,0.31c-0.06,0.05-0.11,0.11-0.17,0.15c-0.06,0.04-0.11,0.09-0.17,0.13
		c-0.24,0.17-0.52,0.31-0.81,0.44c-0.29,0.13-0.59,0.24-0.89,0.35c-0.3,0.1-0.61,0.19-0.93,0.27c-0.31,0.08-0.63,0.14-0.96,0.17
		l0,0.07c0.33-0.01,0.66-0.06,0.99-0.13c0.32-0.06,0.64-0.14,0.96-0.23c0.63-0.19,1.25-0.4,1.81-0.74c0.07-0.04,0.14-0.09,0.2-0.14
		c0.07-0.05,0.12-0.1,0.18-0.15l0.36-0.3c0.23-0.2,0.47-0.4,0.7-0.61c0.33-0.29,0.66-0.58,0.98-0.87c0.03,0.16,0.06,0.33,0.09,0.49
		l0.1,0.54l-1.08,0.83l-0.03,0.02h0c-0.17,0.16-0.32,0.32-0.48,0.48c-0.16,0.16-0.31,0.33-0.46,0.5l-0.9,0.99
		c-0.24,0.2-0.49,0.4-0.74,0.59c-0.25,0.19-0.51,0.38-0.78,0.57c-0.27,0.18-0.54,0.36-0.82,0.52c-0.14,0.08-0.29,0.16-0.44,0.22
		c-0.15,0.07-0.3,0.12-0.47,0.16l0.02,0.06c0.17-0.03,0.34-0.08,0.49-0.14c0.16-0.06,0.31-0.13,0.46-0.21
		c0.3-0.15,0.58-0.32,0.86-0.49c0.28-0.17,0.55-0.36,0.82-0.54c0.27-0.19,0.53-0.38,0.78-0.58l0,0l0.01-0.01l0.94-0.97
		c0.16-0.16,0.31-0.33,0.46-0.49c0.15-0.16,0.29-0.32,0.43-0.49l1.05-0.4c0,0.02,0.01,0.04,0.01,0.07l-0.03-0.03
		c-0.07,0.06-0.12,0.11-0.18,0.17c-0.05,0.06-0.1,0.11-0.15,0.17c-0.09,0.11-0.18,0.23-0.27,0.34c-0.17,0.23-0.31,0.48-0.43,0.73
		c-0.12,0.25-0.22,0.51-0.3,0.78c-0.07,0.27-0.12,0.53-0.16,0.8l-0.12,0.79c-0.04,0.26-0.09,0.52-0.15,0.78
		c-0.12,0.52-0.28,1.03-0.47,1.53l0.07,0.02C46.91,41.25,47.11,40.75,47.26,40.23"/>
	<path class="st0" d="M53.52,48.43c1.96,1.56,4.74-0.14,6.44-2.86c1.7-2.72,2.11-4.99-1.4-8.08c-3.5-3.09-7.11-4.01-10.83-5.38
		c-3.72-1.37-3.1-2.92-10.55-3.07c-7.45-0.15-8.98,0.63-11.72,0.89c-2.74,0.25-3.37-0.5-4.81-0.06c-1.43,0.44-3.08-0.15-0.6,1.12
		c2.49,1.27,2.48-0.26,5.03,2.46c2.56,2.73,5.04,3.85,7.71,7.77c2.66,3.92,2.62,3.57,5.48,7.72c2.85,4.15,5.92,8.25,7.74,9.8
		c1.82,1.55,3.8,2.83,5.88,1.34c2.08-1.5,5.32-3.08,4.55-5.25c-0.78-2.17,0.12-2.03-1.23-3.47c-1.34-1.44-1.87-1.76-2.56-2.73
		C51.98,47.67,52.73,47.81,53.52,48.43"/>
	<path class="st3" d="M52.83,55.04c-0.18-0.36-0.37-0.71-0.56-1.06l-0.6-1.03c-0.2-0.34-0.38-0.69-0.54-1.04
		c-0.16-0.35-0.28-0.72-0.38-1.09c-0.1-0.37-0.16-0.75-0.2-1.13c-0.02-0.19-0.03-0.38-0.04-0.57c0-0.06,0-0.11,0-0.17
		c0.01,0.01,0.03,0.02,0.04,0.03l0.19,0.13c0.25,0.18,0.6,0.12,0.79-0.12c0.19-0.25,0.15-0.61-0.11-0.81l-0.09-0.07
		c-0.03-0.02-0.06-0.05-0.09-0.07c-0.01-0.01-0.04-0.03-0.06-0.04l-0.06-0.05c-0.07-0.06-0.14-0.11-0.22-0.17l0.38-0.23
		c0.39-0.23,0.78-0.45,1.19-0.64c0.1-0.05,0.2-0.09,0.3-0.14c0.05-0.02,0.1-0.04,0.16-0.07l0.17-0.08c0.11-0.05,0.21-0.11,0.31-0.18
		l0.15-0.09l0.15-0.1l0.29-0.19l0.28-0.2c0.19-0.13,0.37-0.27,0.55-0.41c0.73-0.56,1.44-1.14,2.13-1.72
		c0.35-0.29,0.7-0.59,1.04-0.89c0.34-0.3,0.69-0.6,1.02-0.92l-0.07-0.07c-0.34,0.3-0.7,0.58-1.05,0.87
		c-0.36,0.28-0.71,0.57-1.07,0.84c-0.72,0.56-1.45,1.1-2.19,1.63c-0.19,0.13-0.37,0.26-0.56,0.38l-0.28,0.19l-0.29,0.18l-0.14,0.09
		l-0.15,0.08c-0.1,0.05-0.19,0.11-0.29,0.15l-0.14,0.06c-0.05,0.02-0.11,0.04-0.16,0.06c-0.11,0.04-0.22,0.09-0.32,0.13
		c-0.43,0.18-0.84,0.39-1.25,0.61l-0.57,0.31l-0.15-0.12l-0.06-0.05c0.1-0.14,0.2-0.27,0.29-0.41c0.22-0.32,0.42-0.64,0.62-0.97
		c0.39-0.65,0.77-1.31,1.13-1.98l0.02-0.03l0-0.03l0.74-4.08l0.36-2.04l0.18-1.02l0.08-0.51l0.04-0.26l0.02-0.13l0.01-0.07l0-0.03
		c0-0.02,0-0.04,0-0.05l-0.09,0.04c0,0,0,0.01,0,0.01l0,0.03l-0.01,0.06l-0.02,0.13l-0.05,0.25l-0.1,0.51l-0.21,1.02l-0.43,2.03
		l-0.87,4.02c-0.42,0.62-0.84,1.23-1.28,1.82c-0.22,0.3-0.45,0.6-0.68,0.88c-0.1,0.12-0.21,0.24-0.31,0.36l-0.43-0.35l-0.67-0.55
		c0.3-0.34,0.52-0.74,0.68-1.13c0.22-0.54,0.35-1.08,0.43-1.63c0.16-1.09,0.16-2.18,0.1-3.26c-0.06-1.08-0.2-2.14-0.37-3.2
		c-0.09-0.53-0.19-1.05-0.3-1.58c-0.11-0.52-0.23-1.04-0.39-1.56l-0.09,0.03c0.12,0.51,0.2,1.04,0.28,1.57
		c0.08,0.53,0.14,1.05,0.19,1.58c0.11,1.06,0.17,2.12,0.16,3.17C49.3,40.94,49.23,42,49.01,43c-0.11,0.5-0.26,0.99-0.47,1.43
		c-0.17,0.34-0.38,0.65-0.63,0.89l-0.75-0.62l-1.17-0.97c0.21-0.46,0.38-0.92,0.51-1.39c0.14-0.5,0.24-1.01,0.3-1.53
		c0.05-0.52,0.06-1.04-0.01-1.56c-0.07-0.52-0.21-1.01-0.35-1.5c-0.29-0.97-0.64-1.91-1.01-2.85c-0.36-0.94-0.75-1.86-1.15-2.78
		l-0.09,0.04c0.35,0.94,0.69,1.88,1.01,2.83c0.31,0.95,0.61,1.91,0.85,2.87c0.12,0.48,0.23,0.97,0.27,1.44
		c0.04,0.48,0.01,0.96-0.06,1.44c-0.08,0.48-0.19,0.95-0.35,1.41c-0.13,0.38-0.29,0.76-0.46,1.11l-0.38-0.31l-0.53-0.44l-0.27-0.22
		c-0.05-0.05-0.1-0.08-0.15-0.11l-0.14-0.1l-1.12-0.81l-1.74-1.26l0.11-0.07l-0.11-0.21l-0.11-0.25c-0.07-0.17-0.14-0.35-0.21-0.53
		c-0.13-0.36-0.26-0.71-0.39-1.08c-0.25-0.72-0.49-1.45-0.73-2.18c-0.47-1.46-0.93-2.92-1.38-4.39l-0.1,0.03
		c0.36,1.49,0.74,2.98,1.13,4.47c0.19,0.74,0.4,1.48,0.61,2.22c0.1,0.37,0.21,0.74,0.33,1.11c0.04,0.11,0.07,0.23,0.11,0.34
		c-0.66-0.48-1.32-0.96-1.99-1.42l-1.46-1.03l0.07-0.06c-0.04-0.04-0.07-0.09-0.11-0.14l0.01-0.03c-0.01,0-0.02-0.01-0.04-0.01
		c-0.1-0.14-0.19-0.29-0.27-0.45c-0.12-0.23-0.24-0.48-0.34-0.73c-0.21-0.5-0.4-1.01-0.58-1.53c-0.36-1.03-0.67-2.09-0.96-3.15
		l-0.1,0.02c0.2,1.08,0.43,2.16,0.71,3.23c0.14,0.53,0.29,1.07,0.47,1.6c0.07,0.19,0.14,0.38,0.21,0.57l-2.1-1.48l-0.01-0.01l0,0
		l-2.19-1.3l-0.07-0.04c0.04-0.08,0.05-0.11,0.04-0.16c-0.01-0.03-0.03-0.05-0.04-0.08l-0.03-0.09c-0.04-0.12-0.08-0.25-0.12-0.38
		c-0.07-0.27-0.12-0.54-0.18-0.82c-0.05-0.28-0.1-0.56-0.15-0.85c-0.05-0.28-0.09-0.57-0.15-0.86l-0.1,0
		c-0.07,0.29-0.09,0.59-0.12,0.88c-0.02,0.3-0.02,0.59,0,0.89c0.02,0.3,0.05,0.6,0.11,0.9c0.01,0.06,0.03,0.11,0.04,0.17l-0.33-0.2
		c-0.36-0.22-0.74-0.43-1.12-0.62c-0.34-0.17-0.69-0.33-1.03-0.49c0.02-0.08,0.01-0.15,0.01-0.21c-0.01-0.08-0.03-0.15-0.05-0.21
		c-0.04-0.13-0.1-0.25-0.15-0.36c-0.11-0.23-0.24-0.44-0.38-0.65l-0.09,0.04c0.08,0.23,0.14,0.47,0.19,0.71
		c0.02,0.12,0.04,0.24,0.05,0.35c0,0.05,0,0.11,0,0.15c0,0,0,0,0,0.01c-0.29-0.12-0.58-0.24-0.87-0.36
		c-0.4-0.15-0.82-0.27-1.23-0.36c-0.21-0.05-0.42-0.09-0.63-0.12c-0.21-0.03-0.43-0.05-0.65-0.03c-0.03,0-0.05,0.02-0.04,0.05
		c0,0.03,0.02,0.05,0.05,0.05h0c0.2,0,0.41,0.03,0.62,0.07c0.21,0.04,0.41,0.09,0.61,0.15c0.4,0.11,0.8,0.25,1.18,0.42
		c0.31,0.14,0.62,0.29,0.93,0.44c-0.1,0.1-0.23,0.19-0.35,0.28c-0.2,0.14-0.41,0.28-0.63,0.41c-0.22,0.13-0.44,0.25-0.66,0.37
		l-0.34,0.18l-0.33,0.17l0.01,0.1l0.2-0.05l0.19-0.05l0.37-0.11c0.25-0.08,0.49-0.16,0.74-0.25c0.25-0.09,0.49-0.18,0.73-0.29
		c0.24-0.11,0.48-0.22,0.72-0.42c0.23,0.12,0.46,0.25,0.69,0.37c0.37,0.21,0.72,0.42,1.08,0.66l0.69,0.45
		c-0.11,0.04-0.22,0.07-0.33,0.11l-0.81,0.25c-0.54,0.17-1.08,0.33-1.61,0.52l0.03,0.1c0.55-0.11,1.11-0.18,1.66-0.26l0.84-0.12
		c0.14-0.02,0.28-0.04,0.42-0.07c0.07-0.01,0.14-0.03,0.22-0.04l0.11-0.03c0.03-0.01,0.07-0.02,0.11-0.03l1.85,1.21l2.29,1.75
		c-0.07,0.05-0.13,0.09-0.2,0.14c-0.29,0.22-0.56,0.44-0.82,0.67c-0.27,0.23-0.53,0.46-0.79,0.68c-0.27,0.22-0.53,0.44-0.82,0.62
		l0.05,0.09c0.33-0.14,0.63-0.32,0.93-0.49c0.3-0.18,0.6-0.36,0.89-0.54c0.3-0.18,0.59-0.36,0.89-0.51c0.15-0.08,0.3-0.15,0.44-0.2
		c0.01,0,0.02-0.01,0.03-0.01l4.59,3.51c-0.06,0.04-0.12,0.09-0.17,0.14c-0.19,0.16-0.36,0.34-0.53,0.51
		c-0.33,0.36-0.62,0.73-0.9,1.12c-0.28,0.39-0.54,0.78-0.77,1.2c-0.24,0.41-0.46,0.83-0.61,1.29l0.09,0.04
		c0.19-0.42,0.44-0.82,0.71-1.2c0.27-0.38,0.56-0.75,0.86-1.1c0.3-0.35,0.62-0.69,0.96-1c0.17-0.15,0.34-0.3,0.52-0.43
		c0.09-0.06,0.18-0.12,0.27-0.17c0.02-0.01,0.04-0.02,0.06-0.03l0.75,0.57l1.09,0.83l0.14,0.1c0.04,0.03,0.1,0.07,0.13,0.1
		l0.25,0.22l0.52,0.45l0.76,0.66c-0.01,0.02-0.02,0.05-0.02,0.06l-0.02,0.06l-0.04,0.12l-0.07,0.23l-0.14,0.47
		c-0.1,0.31-0.19,0.62-0.3,0.93c-0.2,0.62-0.42,1.23-0.65,1.83c-0.24,0.6-0.49,1.2-0.78,1.78c-0.15,0.29-0.3,0.57-0.48,0.84
		c-0.18,0.27-0.37,0.53-0.61,0.75l0.06,0.08c0.26-0.21,0.48-0.46,0.69-0.72c0.2-0.26,0.39-0.54,0.56-0.82
		c0.35-0.56,0.65-1.15,0.94-1.74c0.29-0.59,0.55-1.19,0.81-1.8c0.13-0.3,0.25-0.61,0.37-0.91l0.18-0.46l0.08-0.21l0.73,0.63
		c0.31,0.27,0.62,0.54,0.94,0.81c0,0.77-0.01,1.53-0.02,2.3c-0.01,0.43-0.02,0.85-0.03,1.28l-0.02,0.64
		c-0.01,0.1-0.01,0.21-0.02,0.31c-0.01,0.1-0.02,0.2-0.04,0.3c-0.07,0.4-0.21,0.8-0.36,1.19c-0.16,0.39-0.34,0.77-0.54,1.14
		s-0.41,0.74-0.65,1.09c-0.23,0.35-0.48,0.7-0.78,1l0.07,0.07c0.32-0.3,0.59-0.63,0.84-0.98c0.26-0.34,0.49-0.7,0.71-1.07
		c0.44-0.74,0.84-1.51,1.06-2.37c0.03-0.11,0.04-0.22,0.06-0.33c0.02-0.11,0.02-0.22,0.04-0.32l0.06-0.64
		c0.03-0.43,0.06-0.85,0.09-1.28c0.04-0.61,0.08-1.22,0.11-1.82c0.19,0.16,0.38,0.32,0.57,0.48l0.63,0.53l-0.26,1.86l-0.01,0.05v0
		c-0.01,0.32-0.01,0.63,0,0.95c0.01,0.32,0.02,0.63,0.03,0.95l0.09,1.89c-0.04,0.43-0.1,0.87-0.16,1.3
		c-0.06,0.44-0.13,0.87-0.22,1.3c-0.09,0.43-0.18,0.86-0.3,1.28c-0.06,0.21-0.13,0.42-0.21,0.62c-0.08,0.2-0.18,0.4-0.3,0.57
		l0.08,0.06c0.14-0.18,0.25-0.38,0.34-0.58c0.1-0.2,0.18-0.41,0.25-0.62c0.15-0.42,0.26-0.85,0.37-1.28
		c0.1-0.43,0.19-0.87,0.27-1.31c0.08-0.44,0.15-0.88,0.2-1.32l0-0.01v-0.01l-0.03-1.9c0-0.32-0.01-0.63-0.02-0.95
		c-0.01-0.3-0.03-0.61-0.06-0.91l0.65-1.34c0.03,0.02,0.05,0.04,0.08,0.06l-0.06-0.01c-0.01,0.12-0.01,0.23-0.01,0.34
		c0,0.11,0.01,0.21,0.02,0.32c0.02,0.21,0.04,0.41,0.08,0.62c0.07,0.41,0.16,0.81,0.29,1.2c0.13,0.39,0.28,0.77,0.47,1.14
		c0.19,0.36,0.4,0.71,0.62,1.04l0.65,1c0.21,0.33,0.42,0.67,0.62,1.01c0.39,0.69,0.73,1.4,1.03,2.14l0.09-0.03
		C53.49,56.5,53.19,55.76,52.83,55.04"/>
	<path class="st2" d="M60.33,44.64c-2.7-0.99-2.69-4.72-1.05-8.01c1.65-3.29,3.62-5.04,8.74-3.46c5.11,1.58,8.17,4.56,11.73,7.39
		c3.56,2.83,4.71,1.29,9.3,8.49c4.59,7.2,4.75,9.16,6.13,12c1.39,2.83,2.5,3.01,2.93,4.67c0.43,1.66,1.99,2.93-0.74,1.25
		c-2.73-1.67-1.22-2.58-5.42-3.45c-4.2-0.87-6.77-2.64-12.2-2.9c-5.43-0.26-5.06-0.44-10.82-0.75c-5.76-0.32-11.6-0.87-14.21-1.73
		c-2.6-0.86-5.04-2.03-4.82-4.96c0.22-2.93-0.17-7.05,2.42-7.58c2.59-0.54,1.91-1.32,4.12-0.87c2.21,0.45,2.84,0.78,4.2,0.87
		C61.99,45.69,61.41,45.03,60.33,44.64"/>
	<path class="st3" d="M54.27,49.25c0.46-0.04,0.91-0.07,1.37-0.08l1.37-0.03c0.45-0.01,0.9-0.04,1.34-0.1
		c0.44-0.06,0.87-0.15,1.29-0.28c0.42-0.13,0.83-0.29,1.23-0.48c0.2-0.09,0.39-0.2,0.58-0.3c0.06-0.03,0.11-0.07,0.16-0.1
		c-0.02-0.01-0.03-0.01-0.05-0.02l-0.24-0.1c-0.32-0.14-0.48-0.51-0.35-0.84c0.13-0.34,0.51-0.51,0.85-0.38l0.12,0.05
		c0.04,0.02,0.08,0.03,0.12,0.05c0.02,0.01,0.05,0.02,0.08,0.03l0.09,0.03c0.1,0.04,0.19,0.07,0.29,0.11l0-0.5
		c-0.01-0.52-0.03-1.03-0.08-1.54c-0.01-0.13-0.03-0.25-0.05-0.38c-0.01-0.06-0.02-0.12-0.03-0.19l-0.02-0.21
		c-0.02-0.14-0.01-0.27-0.01-0.41l0-0.2l0.01-0.2l0.02-0.4l0.03-0.39c0.02-0.26,0.05-0.52,0.07-0.79c0.11-1.04,0.25-2.08,0.41-3.12
		c0.08-0.52,0.16-1.03,0.25-1.55c0.09-0.52,0.17-1.03,0.29-1.55l0.11,0.03c-0.09,0.51-0.15,1.03-0.22,1.55
		c-0.07,0.52-0.13,1.04-0.19,1.56c-0.11,1.04-0.22,2.08-0.28,3.12c-0.01,0.26-0.03,0.52-0.04,0.78l-0.01,0.39l0,0.39v0.19l0.01,0.19
		c0.01,0.13,0.01,0.26,0.03,0.37l0.02,0.18c0.01,0.06,0.02,0.13,0.04,0.19c0.02,0.13,0.05,0.26,0.06,0.4
		c0.08,0.53,0.12,1.06,0.15,1.58l0.04,0.74l0.2,0.07l0.09,0.03c0.07-0.18,0.15-0.36,0.23-0.53c0.18-0.4,0.38-0.8,0.58-1.18
		c0.4-0.78,0.82-1.53,1.26-2.29l0.02-0.04l0.03-0.02l3.55-3.17l1.78-1.58l0.89-0.78l0.45-0.39l0.23-0.19l0.11-0.09l0.06-0.05
		l0.03-0.02c0.02-0.01,0.04-0.02,0.06-0.03l0.02,0.11c0,0,0,0.01-0.01,0.01l-0.03,0.02l-0.06,0.05l-0.11,0.1l-0.22,0.2l-0.44,0.4
		l-0.87,0.81l-1.73,1.63l-3.41,3.25c-0.36,0.77-0.7,1.56-1.02,2.34c-0.16,0.4-0.32,0.8-0.46,1.2c-0.06,0.17-0.12,0.35-0.17,0.52
		l0.61,0.21l0.94,0.32c0.15-0.5,0.41-0.95,0.7-1.35c0.39-0.53,0.85-0.99,1.34-1.39c0.97-0.81,2.04-1.46,3.13-2.05
		c1.09-0.58,2.21-1.09,3.35-1.55c0.57-0.23,1.14-0.44,1.72-0.65c0.58-0.2,1.16-0.4,1.76-0.55l0.03,0.11
		c-0.57,0.19-1.14,0.42-1.7,0.66c-0.56,0.24-1.12,0.49-1.66,0.75c-1.1,0.53-2.17,1.1-3.2,1.73c-1.03,0.64-2.01,1.34-2.87,2.15
		c-0.42,0.41-0.81,0.84-1.11,1.32c-0.24,0.37-0.41,0.76-0.49,1.15l1.05,0.36l1.65,0.56c0.32-0.48,0.67-0.92,1.06-1.33
		c0.4-0.44,0.84-0.84,1.32-1.2c0.47-0.36,0.99-0.68,1.54-0.92c0.56-0.24,1.12-0.4,1.68-0.55c1.12-0.29,2.26-0.51,3.39-0.72
		c1.13-0.2,2.27-0.38,3.41-0.53l0.02,0.11c-1.13,0.21-2.25,0.45-3.37,0.71c-1.12,0.26-2.23,0.54-3.32,0.88
		c-0.54,0.17-1.08,0.36-1.57,0.6c-0.49,0.25-0.95,0.56-1.37,0.92c-0.42,0.36-0.81,0.76-1.17,1.18c-0.3,0.36-0.57,0.73-0.81,1.12
		l0.53,0.18l0.74,0.25l0.38,0.13c0.08,0.02,0.13,0.05,0.19,0.08l0.18,0.08l1.45,0.61l2.27,0.96v-0.14l0.28-0.02l0.31-0.04
		c0.21-0.03,0.43-0.07,0.64-0.11c0.43-0.08,0.86-0.17,1.28-0.26c0.86-0.19,1.71-0.38,2.57-0.59c1.71-0.41,3.42-0.83,5.12-1.27
		l0.03,0.11c-1.68,0.53-3.36,1.06-5.04,1.56c-0.84,0.25-1.69,0.5-2.54,0.74c-0.43,0.12-0.85,0.23-1.28,0.34
		c-0.13,0.03-0.27,0.06-0.4,0.1c0.86,0.36,1.72,0.72,2.58,1.09l1.88,0.81l0.02-0.1c0.06,0.01,0.13,0.02,0.2,0.03l0.02-0.03
		c0.01,0.01,0.02,0.02,0.03,0.03c0.19,0.01,0.4,0.01,0.61,0c0.3-0.02,0.61-0.05,0.92-0.1c0.61-0.09,1.23-0.21,1.84-0.34
		c1.22-0.27,2.44-0.59,3.65-0.94l0.04,0.11c-1.18,0.45-2.37,0.87-3.58,1.24c-0.61,0.18-1.22,0.35-1.84,0.5
		c-0.23,0.05-0.46,0.09-0.69,0.13l2.7,1.17l0.02,0.01l0,0l2.58,1.37l0.09,0.05c0.05-0.09,0.08-0.12,0.13-0.14
		c0.03-0.01,0.07-0.01,0.1-0.01l0.11-0.02c0.14-0.03,0.29-0.07,0.44-0.11c0.3-0.09,0.61-0.21,0.91-0.32
		c0.3-0.12,0.61-0.24,0.92-0.36c0.31-0.12,0.62-0.25,0.93-0.37l0.06,0.1c-0.25,0.24-0.52,0.44-0.79,0.64
		c-0.28,0.19-0.57,0.37-0.87,0.53c-0.3,0.16-0.61,0.31-0.94,0.43c-0.06,0.02-0.13,0.04-0.19,0.06l0.39,0.21
		c0.43,0.23,0.86,0.47,1.27,0.73c0.37,0.23,0.74,0.47,1.1,0.72c0.07-0.07,0.14-0.1,0.2-0.13c0.08-0.04,0.16-0.06,0.24-0.08
		c0.15-0.04,0.3-0.05,0.45-0.07c0.29-0.03,0.58-0.03,0.87-0.02l0.01,0.11c-0.27,0.06-0.55,0.14-0.81,0.23
		c-0.13,0.05-0.25,0.1-0.37,0.16c-0.06,0.03-0.11,0.06-0.14,0.1c0,0,0,0-0.01,0.01c0.29,0.21,0.58,0.42,0.87,0.64
		c0.39,0.3,0.75,0.64,1.09,0.99c0.17,0.18,0.33,0.36,0.49,0.55c0.15,0.19,0.3,0.39,0.42,0.61c0.01,0.03,0,0.06-0.02,0.07
		c-0.03,0.02-0.06,0.01-0.08-0.02l0,0c-0.12-0.2-0.28-0.38-0.44-0.56c-0.16-0.18-0.34-0.34-0.51-0.51
		c-0.35-0.33-0.72-0.64-1.11-0.91c-0.33-0.22-0.66-0.43-0.99-0.64c-0.03,0.16-0.05,0.34-0.06,0.51c-0.02,0.28-0.03,0.57-0.02,0.86
		c0,0.29,0.01,0.58,0.03,0.87l0.03,0.44l0.03,0.43l-0.1,0.04l-0.07-0.22l-0.06-0.21l-0.11-0.43c-0.07-0.29-0.14-0.58-0.2-0.87
		c-0.06-0.29-0.11-0.59-0.15-0.89c-0.03-0.3-0.06-0.6-0.02-0.96c-0.26-0.15-0.52-0.31-0.78-0.45c-0.42-0.24-0.84-0.46-1.28-0.66
		l-0.86-0.41c0.03,0.13,0.06,0.26,0.09,0.39l0.24,0.94c0.16,0.63,0.32,1.25,0.46,1.89l-0.11,0.03c-0.23-0.6-0.48-1.19-0.74-1.79
		l-0.38-0.89c-0.06-0.15-0.12-0.3-0.18-0.45c-0.03-0.08-0.06-0.16-0.09-0.24l-0.04-0.13c-0.01-0.04-0.02-0.08-0.03-0.12l-2.28-1.09
		l-3.08-1.2c-0.01,0.09-0.01,0.19-0.02,0.28c-0.04,0.41-0.1,0.81-0.17,1.21c-0.06,0.4-0.13,0.79-0.19,1.18
		c-0.06,0.39-0.11,0.78-0.12,1.18l-0.11,0.01c-0.06-0.4-0.07-0.81-0.07-1.21c-0.01-0.4,0-0.8,0-1.2c0-0.4,0-0.79-0.03-1.18
		c-0.01-0.19-0.03-0.38-0.07-0.55c0-0.01-0.01-0.02-0.01-0.04l-6.17-2.4c-0.01,0.08-0.02,0.17-0.03,0.25
		c-0.04,0.29-0.11,0.56-0.19,0.82c-0.15,0.53-0.35,1.04-0.56,1.55c-0.21,0.5-0.45,0.99-0.71,1.47c-0.26,0.48-0.54,0.95-0.89,1.37
		l-0.09-0.07c0.3-0.44,0.53-0.92,0.75-1.41c0.21-0.49,0.4-0.99,0.56-1.5c0.16-0.51,0.3-1.02,0.4-1.53c0.05-0.26,0.09-0.51,0.11-0.76
		c0.01-0.12,0.01-0.25,0-0.36c0-0.02,0-0.05-0.01-0.07l-1.01-0.39l-1.46-0.57l-0.18-0.07c-0.06-0.02-0.13-0.05-0.17-0.06l-0.37-0.12
		l-0.75-0.24l-1.1-0.35c-0.02,0.02-0.04,0.05-0.05,0.06l-0.05,0.06l-0.09,0.11l-0.19,0.21l-0.37,0.42
		c-0.25,0.28-0.49,0.56-0.73,0.84c-0.48,0.57-0.95,1.14-1.4,1.73c-0.45,0.59-0.88,1.2-1.27,1.83c-0.19,0.32-0.38,0.64-0.53,0.97
		c-0.16,0.33-0.3,0.68-0.37,1.04l-0.11-0.02c0.05-0.38,0.16-0.75,0.29-1.1c0.13-0.35,0.29-0.7,0.47-1.04
		c0.34-0.67,0.73-1.32,1.14-1.96c0.41-0.63,0.84-1.25,1.28-1.87c0.22-0.31,0.44-0.61,0.67-0.91l0.34-0.45l0.15-0.2l-1.06-0.34
		c-0.45-0.14-0.9-0.29-1.35-0.44c-0.75,0.46-1.5,0.93-2.24,1.39c-0.41,0.26-0.82,0.52-1.23,0.79l-0.61,0.4
		c-0.1,0.07-0.21,0.13-0.29,0.2c-0.09,0.07-0.18,0.13-0.27,0.22c-0.35,0.31-0.66,0.68-0.95,1.06c-0.29,0.39-0.55,0.79-0.8,1.21
		c-0.25,0.42-0.48,0.85-0.68,1.28c-0.2,0.44-0.39,0.89-0.51,1.36l-0.11-0.02c0.1-0.49,0.27-0.95,0.45-1.41
		c0.19-0.46,0.4-0.9,0.63-1.34c0.46-0.87,0.98-1.72,1.69-2.45c0.09-0.09,0.19-0.17,0.29-0.26c0.1-0.09,0.2-0.15,0.3-0.23l0.59-0.44
		c0.4-0.29,0.8-0.57,1.2-0.86c0.57-0.4,1.14-0.8,1.72-1.2c-0.27-0.09-0.54-0.18-0.81-0.27l-0.89-0.3l-1.66,1.36l-0.04,0.04l0,0
		c-0.3,0.2-0.62,0.38-0.93,0.57c-0.31,0.18-0.63,0.36-0.95,0.53l-1.9,1.04c-0.4,0.3-0.79,0.61-1.18,0.93
		c-0.39,0.32-0.77,0.65-1.14,0.99c-0.37,0.34-0.73,0.69-1.07,1.06c-0.17,0.19-0.33,0.38-0.48,0.58c-0.15,0.2-0.29,0.41-0.38,0.64
		l-0.11-0.04c0.09-0.25,0.22-0.47,0.36-0.68c0.14-0.21,0.3-0.42,0.46-0.62c0.32-0.4,0.68-0.77,1.04-1.12
		c0.36-0.36,0.74-0.7,1.12-1.04c0.38-0.34,0.77-0.67,1.17-0.99l0.01-0.01l0.01-0.01l1.88-1.1c0.31-0.18,0.63-0.37,0.94-0.54
		c0.31-0.17,0.61-0.34,0.93-0.49l0.93-1.43l-0.11-0.04l0.04,0.05c-0.11,0.09-0.22,0.15-0.32,0.21c-0.11,0.06-0.21,0.12-0.32,0.17
		c-0.21,0.11-0.43,0.21-0.65,0.29c-0.44,0.18-0.89,0.32-1.34,0.43c-0.46,0.11-0.92,0.19-1.39,0.22c-0.47,0.03-0.93,0.03-1.39,0.02
		l-1.37-0.04c-0.45-0.01-0.91-0.01-1.36,0c-0.91,0.03-1.81,0.12-2.71,0.27l-0.02-0.11C52.45,49.48,53.36,49.34,54.27,49.25"/>
	<path class="st0" d="M46.03,66.66c0.28-1.78,3.87-2.71,7.44-2.59c3.57,0.11,7.29,1.34,5.47,4.1c-1.82,2.77-2.37,5.78-4.21,8.51
		c-1.84,2.73-0.08,3-5.87,7.41c-5.79,4.41-7.64,4.98-10.02,6.48c-2.38,1.5-2.27,2.17-3.76,2.83c-1.49,0.66-2.32,1.86-1.39-0.11
		c0.94-1.97,2.18-1.34,1.99-3.94c-0.19-2.6,0.87-4.51-0.22-7.66c-1.08-3.15-0.83-2.98-1.94-6.34c-1.12-3.35-2.02-6.81-1.84-8.51
		c0.18-1.69,0.71-3.37,3.58-3.98c2.87-0.6,6.73-1.85,7.88-0.52c1.15,1.34,1.74,0.76,1.85,2.13c0.11,1.37-0.05,1.81,0.19,2.6
		C45.42,67.86,45.91,67.37,46.03,66.66"/>
	<path class="st3" d="M40.1,64.36c0.15,0.25,0.29,0.5,0.42,0.76l0.37,0.77c0.12,0.25,0.26,0.5,0.42,0.74
		c0.16,0.23,0.36,0.46,0.59,0.66c0.23,0.21,0.48,0.4,0.76,0.58c0.14,0.09,0.28,0.17,0.44,0.25c0.05,0.02,0.09,0.05,0.14,0.07
		c0-0.01,0-0.02,0.01-0.04L43.28,68c0.06-0.22,0.37-0.4,0.72-0.41c0.36-0.01,0.62,0.16,0.57,0.39l-0.01,0.08
		c-0.01,0.03-0.01,0.06-0.02,0.08c0,0.01-0.01,0.03-0.01,0.05l-0.01,0.06c-0.01,0.06-0.02,0.13-0.03,0.19l0.48-0.13
		c0.49-0.13,0.99-0.28,1.46-0.43c0.12-0.04,0.24-0.08,0.35-0.12c0.06-0.02,0.11-0.04,0.18-0.06l0.2-0.06
		c0.13-0.05,0.26-0.08,0.39-0.11l0.19-0.05l0.19-0.04l0.39-0.09l0.39-0.08c0.26-0.06,0.52-0.1,0.77-0.15
		c1.03-0.2,2.06-0.37,3.1-0.54c0.52-0.08,1.03-0.17,1.55-0.24c0.52-0.08,1.03-0.16,1.56-0.22l0,0.07c-0.51,0.08-1.03,0.17-1.54,0.26
		c-0.51,0.09-1.03,0.19-1.54,0.28c-1.03,0.19-2.05,0.4-3.06,0.62c-0.25,0.06-0.51,0.11-0.76,0.17l-0.38,0.09l-0.37,0.1l-0.19,0.05
		l-0.18,0.05c-0.12,0.04-0.24,0.07-0.35,0.11l-0.17,0.06c-0.06,0.02-0.12,0.05-0.18,0.07c-0.12,0.05-0.24,0.09-0.36,0.13
		c-0.49,0.17-0.99,0.33-1.48,0.48l-0.7,0.2l-0.02,0.13l-0.01,0.06c0.19-0.01,0.38-0.01,0.57,0c0.43,0,0.86,0.02,1.28,0.03
		c0.84,0.04,1.68,0.09,2.51,0.14l0.04,0l0.03,0.01l3.92,1.23l1.95,0.62l0.97,0.31l0.48,0.16l0.24,0.08l0.12,0.04l0.06,0.02
		l0.03,0.01c0.02,0.01,0.03,0.02,0.04,0.02l-0.1,0.04c-0.01,0-0.01,0-0.01,0l-0.03-0.01l-0.06-0.02l-0.12-0.04l-0.25-0.08
		l-0.49-0.15l-0.99-0.29l-1.99-0.57l-3.96-1.13c-0.83-0.01-1.67-0.01-2.5,0c-0.42,0.01-0.84,0.02-1.26,0.04
		c-0.18,0.01-0.36,0.02-0.54,0.04l-0.05,0.4l-0.08,0.61c0.52-0.04,1.02,0,1.47,0.06c0.61,0.09,1.16,0.24,1.67,0.41
		c1.02,0.35,1.91,0.79,2.73,1.27c0.83,0.47,1.59,0.99,2.31,1.52c0.36,0.27,0.71,0.54,1.05,0.82c0.34,0.28,0.67,0.56,0.96,0.86
		l-0.1,0.04c-0.32-0.28-0.69-0.54-1.05-0.8c-0.37-0.26-0.74-0.51-1.13-0.76c-0.78-0.49-1.59-0.96-2.45-1.39
		c-0.86-0.42-1.78-0.81-2.77-1.09c-0.5-0.14-1.01-0.25-1.54-0.3c-0.41-0.04-0.83-0.04-1.23,0l-0.09,0.69l-0.14,1.08
		c0.54,0.06,1.05,0.15,1.54,0.27c0.52,0.12,1.01,0.27,1.48,0.45c0.46,0.18,0.89,0.39,1.26,0.64c0.37,0.26,0.66,0.53,0.94,0.82
		c0.56,0.57,1.05,1.15,1.53,1.75c0.47,0.59,0.92,1.2,1.35,1.81l-0.1,0.04c-0.48-0.59-0.99-1.17-1.51-1.74
		c-0.53-0.57-1.07-1.14-1.67-1.67c-0.3-0.26-0.61-0.53-0.97-0.74c-0.36-0.22-0.78-0.4-1.22-0.55c-0.45-0.15-0.93-0.27-1.42-0.37
		c-0.41-0.08-0.84-0.14-1.27-0.18l-0.04,0.35l-0.06,0.49l-0.03,0.25c0,0.05-0.02,0.09-0.03,0.13l-0.03,0.12l-0.23,0.98l-0.36,1.53
		l0.14-0.04l0.09,0.15l0.12,0.17c0.08,0.11,0.18,0.22,0.26,0.33c0.18,0.22,0.37,0.44,0.57,0.67c0.39,0.44,0.79,0.88,1.2,1.31
		c0.81,0.87,1.64,1.73,2.48,2.59l-0.1,0.04c-0.93-0.82-1.84-1.64-2.74-2.48c-0.45-0.42-0.9-0.84-1.33-1.26
		c-0.22-0.21-0.43-0.43-0.64-0.64c-0.06-0.07-0.13-0.14-0.19-0.21c-0.14,0.58-0.27,1.16-0.42,1.74l-0.32,1.27l0.1-0.02
		c0,0.04,0.01,0.08,0.02,0.12l0.03,0c-0.01,0.01-0.01,0.02-0.02,0.02c0.03,0.11,0.09,0.23,0.15,0.34c0.09,0.17,0.2,0.33,0.32,0.5
		c0.24,0.33,0.5,0.65,0.78,0.96c0.56,0.63,1.17,1.24,1.81,1.84l-0.09,0.05c-0.72-0.56-1.42-1.13-2.07-1.73
		c-0.32-0.3-0.64-0.6-0.93-0.92c-0.1-0.12-0.2-0.24-0.3-0.36l-0.46,1.83l0,0.01l0,0l-0.68,1.81l-0.02,0.06
		c0.1,0.01,0.13,0.02,0.16,0.04c0.01,0.02,0.02,0.04,0.04,0.06l0.05,0.06c0.06,0.07,0.14,0.15,0.22,0.22
		c0.16,0.15,0.35,0.29,0.53,0.44c0.19,0.14,0.38,0.29,0.57,0.43c0.19,0.15,0.39,0.29,0.58,0.44l-0.08,0.06
		c-0.29-0.08-0.55-0.18-0.81-0.29c-0.26-0.11-0.5-0.23-0.73-0.36c-0.23-0.13-0.45-0.27-0.65-0.43c-0.04-0.03-0.07-0.06-0.11-0.09
		l-0.1,0.27c-0.11,0.3-0.24,0.61-0.39,0.91c-0.13,0.27-0.27,0.54-0.42,0.8c0.08,0.02,0.13,0.05,0.17,0.08
		c0.06,0.04,0.1,0.08,0.13,0.12c0.07,0.08,0.13,0.16,0.18,0.24c0.1,0.16,0.17,0.32,0.23,0.49l-0.11,0.03
		c-0.13-0.14-0.27-0.28-0.42-0.4c-0.08-0.06-0.16-0.12-0.24-0.17c-0.04-0.02-0.09-0.04-0.13-0.06c0,0-0.01,0-0.01,0
		c-0.13,0.22-0.26,0.44-0.4,0.65c-0.19,0.3-0.43,0.59-0.68,0.87c-0.13,0.14-0.26,0.28-0.41,0.42c-0.15,0.14-0.3,0.27-0.49,0.39
		c-0.02,0.01-0.06,0.02-0.08,0.01c-0.02-0.01-0.02-0.03,0-0.05l0,0c0.16-0.12,0.3-0.25,0.43-0.39c0.13-0.14,0.25-0.28,0.36-0.42
		c0.23-0.28,0.44-0.57,0.6-0.86c0.13-0.24,0.26-0.48,0.38-0.72c-0.16,0.02-0.34,0.06-0.51,0.09c-0.28,0.06-0.55,0.13-0.83,0.2
		c-0.28,0.08-0.56,0.15-0.83,0.23l-0.41,0.13l-0.4,0.13l-0.07-0.05l0.2-0.09l0.19-0.09l0.38-0.17c0.26-0.11,0.52-0.22,0.78-0.33
		c0.27-0.11,0.54-0.21,0.82-0.31c0.28-0.09,0.56-0.19,0.92-0.25c0.09-0.19,0.17-0.37,0.25-0.56c0.12-0.3,0.23-0.59,0.32-0.89
		l0.18-0.59c-0.12,0.05-0.23,0.1-0.35,0.15l-0.84,0.37c-0.56,0.25-1.12,0.5-1.7,0.73l-0.06-0.06c0.52-0.28,1.03-0.57,1.53-0.86
		l0.76-0.44c0.13-0.07,0.26-0.15,0.39-0.22c0.07-0.04,0.14-0.07,0.2-0.11l0.11-0.06c0.03-0.02,0.07-0.03,0.11-0.05l0.48-1.57
		l0.39-2.05c-0.09,0.02-0.18,0.04-0.27,0.06c-0.41,0.08-0.8,0.14-1.2,0.21c-0.4,0.06-0.79,0.12-1.18,0.18
		c-0.39,0.06-0.78,0.13-1.16,0.23l-0.04-0.06c0.37-0.13,0.76-0.24,1.14-0.34c0.38-0.1,0.77-0.2,1.15-0.3
		c0.38-0.1,0.76-0.2,1.12-0.31c0.18-0.06,0.36-0.11,0.51-0.17c0.01,0,0.02-0.01,0.03-0.01l0.79-4.11c-0.08,0.02-0.17,0.03-0.25,0.04
		c-0.29,0.05-0.56,0.08-0.84,0.1c-0.55,0.05-1.09,0.06-1.62,0.07c-0.53,0-1.06-0.01-1.59-0.04c-0.52-0.03-1.04-0.07-1.53-0.17
		l0.05-0.07c0.49,0.06,1.02,0.07,1.54,0.07c0.52,0,1.05-0.02,1.58-0.05c0.53-0.03,1.06-0.08,1.58-0.15
		c0.26-0.04,0.52-0.08,0.76-0.13c0.12-0.03,0.24-0.06,0.35-0.09c0.02-0.01,0.05-0.01,0.07-0.02l0.13-0.67l0.18-0.97l0.02-0.12
		c0.01-0.04,0.02-0.08,0.02-0.11l0.02-0.24l0.05-0.49l0.07-0.72c-0.03,0-0.05-0.01-0.07-0.01l-0.07-0.01l-0.13-0.03l-0.25-0.06
		l-0.49-0.11c-0.33-0.07-0.66-0.14-0.99-0.21c-0.66-0.13-1.33-0.26-2.01-0.36c-0.68-0.11-1.37-0.2-2.07-0.27
		c-0.35-0.03-0.71-0.05-1.07-0.06c-0.36-0.01-0.72,0-1.09,0.05l-0.01-0.07c0.38-0.07,0.76-0.1,1.13-0.11
		c0.37-0.01,0.74-0.01,1.11,0.01c0.73,0.03,1.45,0.09,2.16,0.16c0.71,0.07,1.41,0.16,2.11,0.26c0.35,0.05,0.69,0.1,1.04,0.15
		l0.52,0.08l0.23,0.04l0.06-0.69c0.03-0.29,0.06-0.58,0.09-0.88c-0.63-0.31-1.26-0.62-1.89-0.92c-0.35-0.17-0.71-0.34-1.06-0.5
		l-0.54-0.25c-0.09-0.04-0.18-0.08-0.27-0.12c-0.09-0.03-0.17-0.07-0.27-0.1c-0.38-0.12-0.82-0.2-1.26-0.27
		c-0.44-0.07-0.9-0.12-1.36-0.15c-0.46-0.04-0.93-0.06-1.4-0.07c-0.47-0.01-0.95,0-1.43,0.05l0-0.07c0.49-0.06,0.98-0.08,1.46-0.09
		c0.48-0.01,0.96,0,1.44,0.02c0.95,0.05,1.89,0.13,2.77,0.35c0.11,0.02,0.21,0.06,0.32,0.1c0.11,0.04,0.19,0.07,0.29,0.11l0.57,0.23
		c0.38,0.15,0.75,0.31,1.12,0.47c0.53,0.22,1.05,0.45,1.57,0.68c0.02-0.18,0.04-0.35,0.06-0.53l0.07-0.58l-1.72-0.61l-0.05-0.02h0
		c-0.27-0.12-0.52-0.25-0.78-0.39c-0.25-0.13-0.5-0.27-0.74-0.41l-1.47-0.82c-0.38-0.15-0.78-0.3-1.18-0.44
		c-0.4-0.14-0.81-0.28-1.23-0.4c-0.42-0.13-0.85-0.24-1.29-0.34c-0.22-0.05-0.44-0.09-0.67-0.13c-0.23-0.03-0.47-0.06-0.71-0.06
		l0.01-0.07c0.26-0.01,0.51,0.01,0.75,0.04c0.24,0.03,0.48,0.07,0.7,0.11c0.46,0.09,0.9,0.19,1.34,0.31
		c0.43,0.12,0.86,0.24,1.28,0.38c0.42,0.13,0.83,0.27,1.24,0.42l0.01,0l0.01,0.01l1.52,0.79c0.25,0.13,0.51,0.26,0.75,0.4
		c0.24,0.13,0.47,0.27,0.7,0.41l1.61,0.17c0-0.02,0.01-0.05,0.01-0.07l-0.04,0.04c-0.11-0.04-0.2-0.09-0.28-0.13
		c-0.09-0.04-0.17-0.09-0.25-0.14c-0.16-0.09-0.3-0.19-0.44-0.29c-0.28-0.2-0.53-0.42-0.75-0.66c-0.22-0.23-0.41-0.48-0.55-0.74
		c-0.15-0.26-0.26-0.52-0.36-0.79l-0.29-0.79c-0.1-0.26-0.21-0.52-0.34-0.77c-0.25-0.51-0.56-1-0.93-1.47l0.1-0.04
		C39.43,63.39,39.79,63.86,40.1,64.36"/>
	<path class="st2" d="M62.5,61.52c-2.31,0.95-3,2.65-2.94,4.85c0.06,2.19-0.57,2.64,0.86,4.25c1.42,1.61,5.52,3.86,8.3,4.27
		c2.79,0.42,7.35,1.27,8.65,1.2c1.3-0.07,8.16,0.01,8.75,0.05c0.59,0.03,0.94-0.02,0.87-0.21c-0.08-0.19-1.1-2.83-1.1-2.83
		s-1.54-2.52-1.89-4.09c-0.35-1.57-3.19-5.17-3.48-5.82c-0.3-0.65-3.54-5.11-4.49-6.43c-0.95-1.31-3.97-2.99-5.52-3.38
		c-1.55-0.39-3.58-0.59-4.71,0.04c-1.14,0.64-1.34,1.03-1.58,3.08c-0.24,2.05-0.39,1.76-0.19,2.26c0.19,0.5,0.58,1.55,0.58,1.55
		s0.02,0.94-0.1,1.01C64.36,61.38,62.5,61.52,62.5,61.52"/>
	<path class="st1" d="M66.55,54.81c-0.04,0.16-0.07,0.33-0.1,0.49s-0.06,0.33-0.09,0.49l-0.04,0.25l-0.02,0.13l-0.01,0.13l-0.1,0.99
		c-0.03,0.33-0.06,0.66-0.09,1c0,0.04-0.01,0.08-0.01,0.13l0,0.07c0,0.02,0,0.03,0,0.05c0,0.03-0.01,0.07-0.01,0.11
		c0,0.04-0.01,0.08-0.02,0.12c-0.02,0.16-0.05,0.32-0.08,0.49c-0.06,0.32-0.11,0.65-0.17,0.98c-0.06,0.31-0.11,0.61-0.17,0.92
		c-0.15,0.03-0.29,0.11-0.39,0.23c-0.1,0.12-0.16,0.27-0.17,0.42c-0.01,0.01-0.02,0.01-0.03,0.02c-0.01,0.01-0.02,0.01-0.03,0.02
		l-0.01,0.01L65,61.85l-0.05,0.05l-0.1,0.09l-0.2,0.18l-0.39,0.36c-0.26,0.24-0.51,0.48-0.77,0.72c-0.51,0.49-1,0.99-1.48,1.5
		c-0.24,0.26-0.47,0.52-0.7,0.8c-0.11,0.14-0.22,0.28-0.32,0.42c-0.1,0.15-0.2,0.3-0.27,0.47l-0.03,0.06l-0.02,0.06l-0.04,0.12
		c-0.03,0.08-0.05,0.17-0.08,0.25c-0.05,0.17-0.1,0.34-0.14,0.5c-0.08,0.34-0.15,0.68-0.2,1.02l0.05,0.01
		c0.06-0.34,0.16-0.67,0.26-1c0.05-0.16,0.11-0.33,0.17-0.49c0.03-0.08,0.06-0.16,0.09-0.24l0.05-0.12l0.02-0.06l0.03-0.05
		c0.07-0.14,0.17-0.28,0.28-0.42c0.11-0.13,0.22-0.26,0.34-0.39c0.23-0.25,0.48-0.5,0.73-0.74c0.5-0.48,1.03-0.94,1.56-1.39
		c0.27-0.23,0.53-0.45,0.8-0.67L65,62.57l0.2-0.16l0.1-0.08l0,0c0.01,0.01,0.02,0.02,0.03,0.03l0.08,0.07l-0.01,0.02
		c-0.04,0.08-0.08,0.16-0.12,0.24c-0.08,0.16-0.16,0.32-0.23,0.48c-0.15,0.32-0.3,0.64-0.44,0.96c-0.15,0.32-0.29,0.64-0.43,0.96
		c-0.14,0.32-0.28,0.64-0.42,0.97l-0.01,0.02l0,0.01c-0.07,0.24-0.14,0.47-0.2,0.71c-0.06,0.23-0.13,0.47-0.19,0.71
		c-0.06,0.24-0.12,0.47-0.17,0.71c-0.05,0.24-0.1,0.48-0.15,0.72c-0.05,0.24-0.09,0.48-0.12,0.73c-0.03,0.25-0.06,0.49-0.05,0.75
		c0,0.03,0,0.06,0,0.1c0,0.03,0.01,0.07,0.01,0.1c0.01,0.04,0.02,0.07,0.02,0.1l0.03,0.09l0.11,0.35c0.07,0.23,0.15,0.46,0.23,0.69
		l0.05-0.01c-0.04-0.24-0.07-0.48-0.11-0.72l-0.06-0.36l-0.02-0.09c0-0.03,0-0.05-0.01-0.08l0-0.08c0-0.03,0-0.06,0.01-0.08
		c0.02-0.23,0.08-0.46,0.13-0.69c0.06-0.23,0.12-0.46,0.19-0.69c0.13-0.46,0.28-0.92,0.43-1.38c0.15-0.45,0.3-0.9,0.46-1.35
		l0.9-1.88l0.45-0.94c0.08-0.16,0.15-0.31,0.23-0.47c0.02-0.05,0.05-0.09,0.07-0.14c0.1,0.07,0.2,0.14,0.3,0.21
		c0.32,0.21,0.63,0.42,0.95,0.63c0.18,0.11,0.36,0.23,0.53,0.34c0.01,0.06,0.02,0.13,0.03,0.2c0.01,0.08,0.02,0.15,0.03,0.24
		c0.02,0.16,0.03,0.32,0.04,0.48c0.02,0.32,0.04,0.65,0.05,0.98c0.03,0.65,0.05,1.31,0.06,1.96l0,0.25l0,0.12l0,0.12L68,68.89
		l-0.02,0.98l-0.04,1.97v0l0,0l0.38,1.63l0.05-0.01l-0.38-1.63l0.17-1.96l0.08-0.98l0.04-0.49l0.01-0.12l0.01-0.13l0.01-0.25
		c0.03-0.66,0.05-1.31,0.07-1.97c0.01-0.33,0.01-0.66,0.01-0.99c0-0.17,0-0.33-0.01-0.5c0-0.01,0-0.02,0-0.03
		c0.26,0.16,0.52,0.33,0.78,0.49c1.03,0.65,2.07,1.3,3.11,1.94c0,0.04,0.01,0.08,0.01,0.13c0.01,0.11,0.01,0.21,0.02,0.32
		c0.01,0.22,0.01,0.44,0.02,0.66c0.01,0.44,0.01,0.88,0.02,1.32c0,0.88,0,1.77,0,2.65v0.05L72.34,72c0.19,0.45,0.38,0.89,0.58,1.33
		c0.1,0.22,0.2,0.44,0.31,0.66c0.05,0.11,0.11,0.22,0.17,0.32c0.03,0.05,0.06,0.11,0.09,0.16c0.03,0.05,0.06,0.1,0.11,0.15
		l0.04-0.03c-0.03-0.04-0.06-0.1-0.08-0.15c-0.03-0.05-0.05-0.11-0.07-0.16c-0.04-0.11-0.09-0.23-0.13-0.34
		c-0.08-0.23-0.16-0.46-0.23-0.68c-0.14-0.44-0.28-0.89-0.41-1.34c0.09-0.87,0.17-1.74,0.25-2.62c0.04-0.44,0.08-0.88,0.11-1.33
		c0.02-0.2,0.03-0.41,0.04-0.62l2.1,1.08c0.01,0.03,0.02,0.06,0.02,0.08c0.02,0.07,0.03,0.13,0.05,0.2c0.02,0.07,0.03,0.13,0.05,0.2
		c0.06,0.27,0.12,0.55,0.17,0.82c0.11,0.55,0.21,1.1,0.31,1.66l0,0.01l0,0l0.85,2.44l0,0l0,0l0.6,0.95l0.04-0.03l-0.6-0.95
		l-0.67-2.48c-0.06-0.56-0.12-1.12-0.19-1.68c-0.04-0.28-0.07-0.56-0.11-0.84c-0.01-0.05-0.02-0.1-0.02-0.15l1.59,0.82l-0.04,0.02
		c0.12,0.25,0.24,0.52,0.35,0.78c0.11,0.26,0.21,0.53,0.31,0.8c0.2,0.54,0.38,1.08,0.55,1.63l0,0l0,0c0.1,0.17,0.21,0.34,0.31,0.51
		c0.11,0.17,0.22,0.34,0.34,0.5c0.06,0.08,0.12,0.16,0.18,0.24c0.07,0.08,0.14,0.15,0.2,0.22l0.41,0.44l0.04-0.03l-0.41-0.45
		c-0.07-0.07-0.14-0.15-0.2-0.22c-0.06-0.08-0.12-0.16-0.18-0.24c-0.12-0.16-0.23-0.33-0.33-0.5c-0.11-0.17-0.21-0.34-0.31-0.51
		c-0.11-0.56-0.23-1.12-0.37-1.68c-0.07-0.28-0.14-0.56-0.22-0.84c-0.04-0.14-0.08-0.29-0.13-0.43l2.02,1.04
		c0.16,0.41,0.33,0.8,0.51,1.19c0.09,0.2,0.18,0.39,0.28,0.59c0.1,0.2,0.19,0.39,0.29,0.58l0.02,0.03l0.01,0.01l1.24,1.36l0.01,0.01
		l0,0l0.8,0.65l0.03-0.04l-0.7-0.73l-1.04-1.47c-0.08-0.19-0.15-0.39-0.22-0.59c-0.07-0.2-0.14-0.4-0.21-0.6
		c-0.07-0.19-0.13-0.39-0.19-0.58l1.72,0.88l2.28,1.67l1.15,0.84c0.38,0.28,0.77,0.56,1.14,0.85l0,0c0.01,0.01,0.02,0.01,0.03,0
		c0.01-0.01,0.01-0.02,0-0.03c-0.36-0.31-0.73-0.61-1.09-0.91l-1.1-0.9l-2.14-1.76c0.08-0.02,0.15-0.03,0.23-0.05
		c0.13-0.03,0.26-0.08,0.39-0.13c0.13-0.05,0.25-0.11,0.38-0.18l0.82,0.24l0.02-0.05l-0.83-0.24l-0.01,0
		c-0.14-0.04-0.28-0.06-0.42-0.07c-0.14-0.01-0.28-0.01-0.41-0.01c-0.14,0.01-0.27,0.02-0.4,0.03c-0.1,0.01-0.2,0.03-0.28,0.13
		l-1.15-0.67c0.02,0,0.04-0.01,0.07-0.01c0.06-0.01,0.13-0.02,0.19-0.03c0.06-0.01,0.13-0.03,0.19-0.05l0.1-0.03l0.1-0.03
		c0.03-0.01,0.07-0.03,0.1-0.04l0.05-0.02l0.05-0.03l0.05-0.03c0.02-0.01,0.04-0.02,0.05-0.04l0.05-0.04
		c0.01-0.01,0.01-0.01,0.02-0.02c0.03-0.02,0.06-0.04,0.11-0.05c0.09-0.03,0.21-0.04,0.32-0.04c0.12,0,0.24,0.01,0.37,0.02
		l0.19,0.02c0.03,0,0.06,0,0.1,0.01c0.03,0,0.06,0,0.1,0l0-0.05c-0.05-0.02-0.11-0.04-0.17-0.07c-0.06-0.02-0.12-0.05-0.18-0.07
		c-0.12-0.05-0.24-0.09-0.38-0.11c-0.13-0.03-0.27-0.04-0.43-0.02c-0.08,0.01-0.16,0.03-0.24,0.08c-0.02,0.01-0.04,0.03-0.06,0.04
		l-0.03,0.01c-0.01,0-0.02,0.01-0.03,0.01l-0.04,0.01c-0.09,0.04-0.21,0.07-0.32,0.09c-0.12,0.02-0.23,0.05-0.35,0.06
		c-0.12,0.02-0.24,0.04-0.36,0.08c-0.04,0.02-0.09,0.03-0.13,0.05l-0.01-0.01v0h0l-1.69-0.98c0.04-0.01,0.08-0.01,0.12-0.02
		c0.16-0.03,0.32-0.08,0.47-0.15c0.16-0.07,0.31-0.15,0.46-0.29l0.01,0c0.23-0.08,0.45-0.15,0.68-0.22
		c0.23-0.07,0.46-0.14,0.69-0.19c0.03,0,0.06-0.01,0.09-0.02l0.04,0l0.05,0l0.18-0.01l0.36-0.02l0.72-0.04l0-0.05l-0.72,0.04
		l-0.36,0.02l-0.18,0.01l-0.05,0l-0.05,0c-0.03,0-0.06,0.01-0.09,0.02c-0.23,0.05-0.46,0.12-0.69,0.19
		c-0.23,0.07-0.45,0.14-0.68,0.22c-0.17-0.12-0.33-0.19-0.49-0.24c-0.16-0.05-0.32-0.08-0.48-0.09c-0.08-0.01-0.16-0.01-0.24-0.01
		c-0.04,0-0.08,0-0.12,0.01c-0.04,0-0.08,0.01-0.12,0.03c-0.08,0.03-0.16,0.07-0.23,0.13c-0.06,0.05-0.12,0.11-0.18,0.2l-2.16-1.26
		c0.26,0,0.52-0.02,0.78-0.03l0.11-0.01c0.04,0,0.08-0.01,0.12-0.02c0.04-0.01,0.08-0.01,0.12-0.02l0.06-0.02
		c0.01,0,0.02,0,0.03-0.01l0.04-0.01c0.02-0.01,0.05-0.02,0.07-0.03c0.01,0,0.01,0,0.01-0.01l0.01,0l0.02-0.01
		c0.03-0.01,0.06-0.03,0.09-0.04c0.06-0.03,0.13-0.06,0.19-0.08c0.26-0.11,0.51-0.22,0.77-0.32c0.26-0.11,0.52-0.21,0.78-0.3
		c0.26-0.09,0.53-0.19,0.79-0.26l0.1-0.02c0.03-0.01,0.07-0.01,0.1-0.02c0.07-0.01,0.14-0.02,0.21-0.03
		c0.14-0.02,0.28-0.04,0.42-0.06c0.14-0.02,0.28-0.04,0.42-0.05l0.42-0.05v-0.05c-0.29-0.03-0.57-0.04-0.86-0.05
		c-0.14,0-0.29,0-0.43,0c-0.15,0-0.28,0.01-0.44,0.03c-0.07,0.01-0.15,0.02-0.22,0.04c-0.07,0.02-0.14,0.03-0.21,0.05
		c-0.14,0.03-0.28,0.07-0.42,0.11c-0.28,0.08-0.55,0.16-0.82,0.25c-0.27,0.09-0.54,0.19-0.81,0.29c-0.07,0.03-0.13,0.05-0.2,0.08
		c-0.03,0.01-0.07,0.03-0.1,0.04l-0.03,0.01l-0.01,0.01c0,0-0.01,0-0.01,0c-0.01,0-0.02,0-0.03,0.01L76.9,67.3c0,0-0.01,0-0.02,0
		l-0.04,0.01c-0.02,0.01-0.06,0.01-0.09,0.01c-0.03,0-0.06,0.01-0.1,0.01l-0.1,0.01c-0.27,0.02-0.55,0.02-0.83,0.02
		c-0.14,0-0.28,0.02-0.43,0.05c-0.06,0.02-0.12,0.03-0.19,0.06l-1.62-0.94c-0.18-0.12-0.35-0.25-0.53-0.37
		c0.04-0.01,0.08-0.03,0.13-0.04c0.32-0.1,0.64-0.2,0.95-0.3l0.06-0.02c0,0,0.01,0,0.02-0.01l0.02-0.01l0.03-0.01l0.12-0.05
		l0.23-0.09l0.46-0.19c0.31-0.13,0.61-0.26,0.91-0.4c0.15-0.07,0.3-0.14,0.46-0.22c0.08-0.04,0.15-0.08,0.24-0.14l0.09-0.06
		c0.03-0.02,0.06-0.03,0.1-0.05c0.14-0.07,0.29-0.13,0.44-0.18c0.15-0.06,0.31-0.11,0.46-0.17l0.94-0.32
		c0.04-0.02,0.08-0.03,0.12-0.05l0.05-0.02c0.02-0.01,0.04-0.01,0.05-0.02c0.07-0.02,0.15-0.03,0.23-0.04
		c0.16-0.02,0.33-0.04,0.49-0.05l0-0.05c-0.17-0.02-0.33-0.04-0.5-0.05c-0.09,0-0.17,0-0.26,0.01c-0.02,0-0.04,0-0.07,0.01
		l-0.07,0.01c-0.04,0.01-0.08,0.02-0.12,0.02c-0.32,0.07-0.65,0.13-0.98,0.2c-0.16,0.04-0.33,0.08-0.49,0.12
		c-0.16,0.05-0.33,0.09-0.49,0.16c-0.04,0.02-0.08,0.04-0.13,0.06l-0.13,0.06c-0.06,0.03-0.13,0.06-0.2,0.1
		c-0.15,0.06-0.3,0.12-0.45,0.18c-0.3,0.12-0.61,0.23-0.92,0.35l-0.46,0.17l-0.23,0.09l-0.12,0.04l-0.03,0.01l-0.01,0
		c0,0-0.01,0-0.01,0l-0.06,0.02c-0.32,0.09-0.63,0.19-0.95,0.29c-0.08,0.02-0.16,0.05-0.23,0.08c-0.08,0.03-0.15,0.07-0.22,0.11
		c-0.02,0.01-0.03,0.02-0.05,0.03c-0.85-0.6-1.71-1.2-2.55-1.8c-0.44-0.31-0.87-0.62-1.3-0.94c0.03-0.01,0.06-0.02,0.09-0.03
		c0.03-0.01,0.06-0.03,0.09-0.04l0.17-0.08l0.7-0.34l0.69-0.34l0.69-0.35l0.02-0.01L71,61.82l1.12-0.73
		c0.37-0.24,0.75-0.49,1.12-0.71l0.58-0.33c0.19-0.11,0.38-0.22,0.58-0.33c0.39-0.21,0.79-0.39,1.24-0.44v-0.05
		c-0.06,0-0.11-0.01-0.17-0.01c-0.06,0-0.11,0-0.17,0.01c-0.11,0.01-0.23,0.03-0.34,0.05c-0.23,0.05-0.45,0.11-0.66,0.19
		c-0.22,0.08-0.42,0.17-0.63,0.26l-0.31,0.14l-0.15,0.07L73.03,60c-0.41,0.2-0.81,0.41-1.2,0.63c-0.39,0.21-0.77,0.43-1.15,0.66
		l-0.7,0.32l-0.7,0.33l-0.7,0.33l-0.17,0.08c-0.03,0.01-0.06,0.03-0.09,0.04c-0.03,0.02-0.06,0.03-0.08,0.06
		c-0.05,0.04-0.1,0.1-0.13,0.17c-0.01,0.02-0.02,0.05-0.03,0.07l-0.05-0.03c-0.3-0.22-0.6-0.44-0.89-0.66
		c-0.15-0.11-0.29-0.22-0.43-0.34c-0.02-0.02-0.04-0.04-0.06-0.05c0.01,0,0.01-0.01,0.02-0.01c0.1-0.06,0.19-0.12,0.27-0.18
		c0.16-0.13,0.29-0.29,0.4-0.46l0.31-0.51c0.1-0.16,0.19-0.32,0.29-0.48l0.29-0.34l0.31-0.38c0.21-0.25,0.41-0.51,0.62-0.76
		c0.2-0.26,0.4-0.51,0.6-0.77c0.1-0.13,0.2-0.26,0.3-0.39c0.1-0.13,0.19-0.26,0.29-0.39c0.05-0.05,0.11-0.1,0.16-0.14
		c0.07-0.06,0.13-0.11,0.2-0.17c0.14-0.11,0.28-0.22,0.43-0.31c0.15-0.1,0.3-0.19,0.46-0.27c0.16-0.08,0.32-0.14,0.5-0.17l0-0.05
		l-0.14-0.01c-0.05,0-0.09,0-0.14,0c-0.05,0-0.09,0.01-0.14,0.02l-0.07,0.01c-0.02,0-0.05,0.01-0.07,0.02
		c-0.19,0.04-0.37,0.1-0.54,0.17c-0.18,0.07-0.35,0.15-0.51,0.24c-0.08,0.04-0.17,0.09-0.25,0.14c-0.08,0.05-0.16,0.1-0.24,0.15h0
		l-0.03,0.03c-0.12,0.11-0.23,0.23-0.35,0.34c-0.12,0.11-0.23,0.23-0.35,0.35c-0.23,0.23-0.46,0.47-0.68,0.7
		c-0.22,0.24-0.45,0.47-0.67,0.71l-0.33,0.36l-0.33,0.36l-0.02,0.02l-0.02,0.04l-0.63,0.99c-0.06,0.1-0.11,0.2-0.16,0.3
		c0.01-0.16,0.03-0.33,0.04-0.49c0.03-0.33,0.05-0.66,0.08-1c0.01-0.17,0.02-0.33,0.03-0.5c0-0.04,0-0.09,0-0.13
		c0-0.04,0-0.08,0-0.14c0-0.02,0-0.05,0-0.07l0-0.05c0-0.04,0-0.08-0.01-0.12c-0.01-0.32-0.01-0.66-0.01-0.99l0.01-0.99l0-0.12
		l0.01-0.12l0.02-0.25c0.01-0.16,0.02-0.33,0.04-0.49c0.01-0.16,0.03-0.33,0.05-0.49c0.02-0.16,0.04-0.33,0.09-0.48l-0.05-0.02
		C66.63,54.48,66.59,54.65,66.55,54.81 M79.83,69.11"/>
	<path class="st0" d="M42.5,49.49c1.84-1.69,1.9-3.53,1.08-5.57c-0.82-2.04-0.39-2.67-2.28-3.69c-1.89-1.01-6.51-1.7-9.27-1.12
		c-2.76,0.58-7.34,1.36-8.53,1.88c-1.19,0.52-7.66,2.82-8.22,2.99c-0.56,0.17-0.88,0.35-0.74,0.5c0.14,0.15,2.02,2.27,2.02,2.27
		s2.32,1.83,3.19,3.18c0.87,1.35,4.78,3.74,5.28,4.25c0.5,0.51,5.09,3.57,6.44,4.47c1.35,0.9,4.76,1.43,6.35,1.25
		c1.59-0.17,3.56-0.68,4.4-1.68c0.84-0.99,0.9-1.43,0.41-3.44c-0.49-2.01-0.25-1.78-0.6-2.18c-0.35-0.4-1.08-1.25-1.08-1.25
		s-0.35-0.87-0.25-0.98C40.81,50.27,42.5,49.49,42.5,49.49"/>
	<path class="st1" d="M41.03,57.2c-0.02-0.17-0.05-0.33-0.08-0.49c-0.03-0.16-0.06-0.33-0.09-0.49l-0.05-0.24l-0.03-0.12l-0.03-0.12
		l-0.25-0.96c-0.09-0.32-0.17-0.64-0.27-0.97c-0.01-0.04-0.02-0.08-0.04-0.12l-0.02-0.07c-0.01-0.02-0.01-0.03-0.01-0.05
		c-0.01-0.03-0.02-0.07-0.03-0.11c-0.01-0.04-0.02-0.08-0.03-0.12c-0.03-0.16-0.06-0.32-0.1-0.48c-0.06-0.32-0.12-0.65-0.18-0.97
		c-0.05-0.31-0.11-0.61-0.16-0.92c0.13-0.08,0.23-0.2,0.29-0.36c0.06-0.15,0.06-0.31,0.01-0.45c0.01-0.01,0.02-0.02,0.02-0.03
		c0.01-0.01,0.02-0.02,0.02-0.03l0-0.01l0.02-0.03l0.04-0.06l0.07-0.12l0.12-0.24l0.24-0.47c0.16-0.31,0.32-0.63,0.47-0.95
		c0.3-0.63,0.6-1.27,0.87-1.92c0.13-0.32,0.26-0.65,0.38-0.99c0.06-0.17,0.11-0.34,0.16-0.51c0.04-0.17,0.08-0.35,0.09-0.53l0-0.07
		l0-0.07l0-0.13c0-0.09-0.01-0.17-0.01-0.26c-0.01-0.17-0.02-0.35-0.04-0.52c-0.04-0.35-0.09-0.69-0.17-1.03L42.2,42.2
		c0.06,0.34,0.09,0.68,0.1,1.03c0.01,0.17,0.01,0.34,0.01,0.52c0,0.09,0,0.17,0,0.26l0,0.13l0,0.06l-0.01,0.06
		c-0.02,0.16-0.07,0.32-0.12,0.49c-0.06,0.16-0.11,0.32-0.18,0.48c-0.13,0.32-0.28,0.63-0.43,0.95c-0.31,0.62-0.64,1.24-0.98,1.85
		c-0.17,0.3-0.34,0.61-0.52,0.91l-0.27,0.45l-0.14,0.22l-0.07,0.11l0,0c-0.02-0.01-0.03-0.01-0.04-0.02l-0.1-0.03l0-0.02
		c0.01-0.09,0.02-0.18,0.03-0.27c0.02-0.18,0.04-0.35,0.05-0.53c0.03-0.35,0.06-0.7,0.08-1.05c0.03-0.35,0.05-0.7,0.07-1.05
		c0.02-0.35,0.04-0.7,0.05-1.05l0-0.02l0-0.01c-0.02-0.25-0.04-0.49-0.06-0.73c-0.02-0.24-0.04-0.49-0.07-0.73
		c-0.03-0.24-0.05-0.48-0.09-0.73c-0.03-0.24-0.07-0.48-0.11-0.72c-0.04-0.24-0.08-0.48-0.14-0.72c-0.06-0.24-0.11-0.48-0.21-0.72
		c-0.01-0.03-0.03-0.06-0.04-0.09c-0.02-0.03-0.03-0.06-0.05-0.09c-0.02-0.03-0.04-0.06-0.06-0.09l-0.06-0.07l-0.22-0.29
		c-0.15-0.19-0.3-0.38-0.45-0.57l-0.04,0.03c0.12,0.21,0.23,0.42,0.35,0.64l0.18,0.32l0.05,0.08c0.02,0.03,0.02,0.05,0.03,0.07
		l0.03,0.08c0.01,0.03,0.02,0.06,0.02,0.08c0.06,0.22,0.09,0.46,0.12,0.69c0.03,0.24,0.05,0.48,0.06,0.72
		c0.03,0.48,0.06,0.96,0.08,1.44c0.02,0.47,0.03,0.95,0.04,1.42l-0.19,2.08l-0.1,1.04c-0.02,0.17-0.04,0.34-0.05,0.52
		c-0.01,0.05-0.01,0.1-0.02,0.16c-0.12-0.03-0.24-0.06-0.36-0.09c-0.37-0.09-0.74-0.18-1.1-0.26c-0.21-0.05-0.41-0.09-0.62-0.14
		c-0.03-0.06-0.07-0.11-0.1-0.18c-0.04-0.07-0.07-0.14-0.11-0.21c-0.07-0.14-0.14-0.29-0.2-0.44c-0.13-0.3-0.26-0.6-0.39-0.9
		c-0.25-0.6-0.5-1.21-0.74-1.82l-0.09-0.23l-0.04-0.11l-0.04-0.12l-0.16-0.47l-0.32-0.93l-0.65-1.86l0,0l0,0l-0.92-1.4l-0.04,0.03
		l0.92,1.4l0.52,1.9l0.26,0.95l0.13,0.48l0.03,0.12l0.04,0.12l0.08,0.23c0.2,0.63,0.41,1.25,0.62,1.87
		c0.11,0.31,0.22,0.62,0.33,0.93c0.06,0.15,0.12,0.31,0.18,0.47l0.01,0.03c-0.3-0.06-0.6-0.13-0.9-0.19
		c-1.2-0.25-2.39-0.5-3.59-0.74c-0.02-0.04-0.04-0.08-0.05-0.12c-0.04-0.1-0.08-0.2-0.13-0.3c-0.08-0.2-0.16-0.4-0.25-0.61
		c-0.16-0.41-0.32-0.82-0.47-1.23c-0.31-0.83-0.62-1.65-0.92-2.48l-0.02-0.04l-0.02-0.02c-0.33-0.35-0.67-0.7-1.01-1.05
		c-0.17-0.17-0.34-0.34-0.52-0.51c-0.09-0.08-0.18-0.17-0.27-0.25c-0.05-0.04-0.09-0.08-0.14-0.12c-0.05-0.04-0.1-0.08-0.15-0.11
		l-0.02,0.04c0.05,0.03,0.09,0.07,0.13,0.11c0.04,0.04,0.08,0.09,0.12,0.13c0.08,0.09,0.16,0.18,0.24,0.27
		c0.15,0.18,0.3,0.37,0.45,0.56c0.29,0.37,0.57,0.74,0.85,1.11c0.22,0.85,0.45,1.69,0.68,2.54c0.12,0.43,0.24,0.85,0.36,1.28
		c0.06,0.2,0.11,0.4,0.17,0.59l-2.34-0.28c-0.02-0.02-0.03-0.05-0.05-0.07c-0.04-0.06-0.08-0.11-0.12-0.17
		c-0.04-0.06-0.08-0.12-0.12-0.17c-0.15-0.23-0.3-0.47-0.45-0.71c-0.29-0.48-0.58-0.96-0.87-1.45l-0.01-0.01l0,0l-1.65-2l0,0l0,0
		l-0.9-0.68l-0.03,0.04l0.89,0.68l1.48,2.1c0.25,0.51,0.5,1.01,0.76,1.51c0.13,0.25,0.26,0.5,0.4,0.75
		c0.02,0.04,0.05,0.09,0.07,0.13l-1.78-0.22l0.03-0.03c-0.2-0.2-0.4-0.4-0.59-0.61c-0.19-0.21-0.38-0.42-0.57-0.64
		c-0.37-0.44-0.74-0.88-1.08-1.34l0,0l0,0c-0.16-0.13-0.31-0.25-0.47-0.37c-0.16-0.12-0.32-0.24-0.49-0.35
		c-0.08-0.06-0.17-0.11-0.26-0.16c-0.09-0.05-0.18-0.09-0.27-0.14l-0.54-0.28l-0.02,0.04l0.54,0.28c0.09,0.05,0.18,0.09,0.27,0.14
		c0.09,0.05,0.17,0.1,0.25,0.16c0.17,0.11,0.33,0.23,0.49,0.35c0.16,0.12,0.32,0.24,0.47,0.37c0.3,0.49,0.61,0.97,0.93,1.45
		c0.16,0.24,0.33,0.48,0.5,0.71c0.09,0.12,0.18,0.24,0.27,0.36l-2.26-0.27c-0.29-0.33-0.59-0.64-0.89-0.94
		c-0.15-0.15-0.31-0.3-0.47-0.46c-0.16-0.15-0.32-0.3-0.48-0.45l-0.03-0.02l-0.01-0.01l-1.64-0.85l-0.01-0.01h0l-0.97-0.33
		l-0.02,0.04l0.91,0.44l1.49,1.01c0.14,0.16,0.28,0.32,0.41,0.48c0.14,0.16,0.27,0.33,0.41,0.49c0.13,0.16,0.25,0.32,0.38,0.48
		l-1.92-0.23l-2.72-0.78l-1.37-0.39c-0.46-0.13-0.91-0.26-1.36-0.4l0,0c-0.01,0-0.03,0-0.03,0.01c0,0.01,0,0.03,0.01,0.03
		c0.45,0.17,0.89,0.32,1.34,0.48l1.34,0.47l2.62,0.9c-0.07,0.04-0.13,0.08-0.2,0.13c-0.11,0.08-0.22,0.16-0.32,0.25
		c-0.1,0.09-0.2,0.19-0.29,0.3l-0.85,0.06l0,0.05l0.86-0.06l0.01,0c0.15-0.01,0.28-0.05,0.42-0.08c0.13-0.04,0.26-0.08,0.39-0.14
		c0.13-0.05,0.25-0.11,0.37-0.17c0.09-0.04,0.18-0.09,0.22-0.22l1.31,0.23c-0.02,0.01-0.04,0.02-0.06,0.03
		c-0.06,0.03-0.11,0.07-0.17,0.1c-0.06,0.04-0.11,0.07-0.17,0.11l-0.08,0.06l-0.08,0.06c-0.03,0.02-0.05,0.05-0.08,0.07l-0.04,0.04
		l-0.04,0.04l-0.04,0.04c-0.01,0.01-0.02,0.03-0.04,0.05l-0.04,0.05c-0.01,0.01-0.01,0.02-0.01,0.02c-0.02,0.03-0.05,0.06-0.08,0.09
		c-0.08,0.06-0.18,0.11-0.29,0.15c-0.11,0.04-0.23,0.07-0.35,0.11l-0.18,0.05c-0.03,0.01-0.06,0.02-0.09,0.03
		c-0.03,0.01-0.06,0.02-0.1,0.04l0.02,0.04c0.05,0,0.12,0,0.18,0.01c0.06,0,0.13,0.01,0.19,0.01c0.13,0,0.26,0,0.39-0.02
		c0.13-0.02,0.27-0.05,0.41-0.12c0.07-0.04,0.14-0.09,0.2-0.16c0.01-0.02,0.03-0.04,0.04-0.05l0.02-0.02
		c0.01-0.01,0.01-0.02,0.02-0.02l0.03-0.02c0.07-0.07,0.17-0.13,0.27-0.2c0.1-0.06,0.2-0.12,0.31-0.18c0.11-0.06,0.21-0.12,0.31-0.2
		c0.04-0.03,0.07-0.06,0.11-0.09l0.01,0c0,0,0,0,0,0l0,0l1.92,0.34c-0.04,0.02-0.07,0.04-0.1,0.06c-0.14,0.08-0.27,0.18-0.39,0.3
		c-0.12,0.12-0.24,0.25-0.33,0.44l-0.01,0c-0.19,0.15-0.37,0.3-0.56,0.44c-0.19,0.15-0.38,0.29-0.58,0.42
		c-0.02,0.01-0.05,0.03-0.08,0.04l-0.04,0.02l-0.04,0.02l-0.16,0.07l-0.33,0.14l-0.66,0.29l0.02,0.04l0.66-0.29l0.33-0.14l0.16-0.07
		l0.04-0.02l0.04-0.02c0.03-0.01,0.05-0.03,0.08-0.05c0.2-0.13,0.39-0.28,0.58-0.42c0.19-0.14,0.37-0.29,0.56-0.44
		c0.2,0.06,0.37,0.06,0.54,0.05c0.17-0.01,0.33-0.04,0.49-0.08c0.08-0.02,0.15-0.05,0.23-0.08c0.04-0.02,0.07-0.03,0.11-0.05
		c0.04-0.02,0.07-0.04,0.1-0.07c0.06-0.05,0.12-0.12,0.17-0.21c0.04-0.07,0.07-0.15,0.1-0.25l2.46,0.43
		c-0.24,0.08-0.48,0.2-0.72,0.3l-0.1,0.05c-0.03,0.02-0.07,0.04-0.1,0.06c-0.04,0.02-0.07,0.04-0.11,0.06l-0.05,0.04
		c-0.01,0.01-0.02,0.01-0.03,0.02l-0.03,0.02c-0.02,0.02-0.04,0.03-0.06,0.05c0,0-0.01,0.01-0.01,0.01l-0.01,0.01l-0.02,0.02
		c-0.02,0.02-0.05,0.05-0.07,0.07c-0.05,0.05-0.1,0.1-0.15,0.15c-0.2,0.19-0.41,0.38-0.61,0.57c-0.21,0.19-0.42,0.38-0.63,0.56
		c-0.21,0.18-0.43,0.36-0.65,0.51l-0.08,0.05c-0.03,0.02-0.06,0.04-0.09,0.05c-0.06,0.04-0.12,0.07-0.18,0.1
		c-0.12,0.07-0.25,0.13-0.37,0.2c-0.12,0.07-0.25,0.13-0.38,0.19l-0.38,0.19l0.02,0.04c0.28-0.07,0.55-0.16,0.82-0.25
		c0.13-0.05,0.27-0.1,0.4-0.15c0.13-0.05,0.26-0.11,0.4-0.18c0.07-0.04,0.13-0.07,0.19-0.11c0.06-0.04,0.13-0.08,0.19-0.12
		c0.12-0.08,0.24-0.16,0.36-0.25c0.23-0.17,0.46-0.34,0.68-0.52c0.22-0.18,0.44-0.36,0.65-0.55c0.05-0.05,0.11-0.1,0.16-0.15
		c0.03-0.02,0.05-0.05,0.08-0.08l0.02-0.02l0.01-0.01c0,0,0.01-0.01,0.01-0.01c0.01-0.01,0.02-0.01,0.02-0.02L27,49.07
		c0,0,0.01-0.01,0.02-0.01l0.03-0.02c0.02-0.02,0.05-0.03,0.08-0.04c0.03-0.01,0.05-0.03,0.09-0.04l0.09-0.04
		c0.25-0.11,0.51-0.21,0.77-0.3c0.13-0.05,0.26-0.12,0.38-0.2c0.05-0.04,0.1-0.08,0.15-0.12l1.85,0.32
		c0.21,0.05,0.42,0.11,0.63,0.16c-0.04,0.03-0.07,0.05-0.1,0.08c-0.26,0.2-0.53,0.41-0.79,0.61l-0.05,0.04c0,0-0.01,0.01-0.01,0.01
		l-0.02,0.02l-0.02,0.02l-0.09,0.08L29.8,49.8l-0.37,0.34c-0.24,0.23-0.48,0.46-0.72,0.7c-0.12,0.12-0.23,0.24-0.35,0.37
		c-0.06,0.07-0.11,0.13-0.17,0.21l-0.07,0.08c-0.02,0.03-0.05,0.05-0.07,0.08c-0.11,0.11-0.23,0.22-0.35,0.32
		c-0.12,0.11-0.25,0.21-0.37,0.32l-0.77,0.63c-0.03,0.03-0.06,0.05-0.1,0.08l-0.04,0.04c-0.01,0.01-0.03,0.02-0.04,0.03
		c-0.06,0.04-0.13,0.08-0.21,0.12c-0.14,0.08-0.29,0.15-0.45,0.21l0.02,0.05c0.16-0.03,0.32-0.08,0.49-0.13
		c0.08-0.03,0.16-0.06,0.24-0.1c0.02-0.01,0.04-0.02,0.06-0.03l0.06-0.04c0.03-0.02,0.07-0.04,0.1-0.06
		c0.28-0.17,0.57-0.34,0.85-0.53c0.14-0.09,0.28-0.19,0.42-0.28c0.14-0.1,0.27-0.2,0.41-0.32c0.03-0.03,0.07-0.06,0.1-0.1l0.1-0.1
		c0.04-0.05,0.1-0.1,0.16-0.16c0.11-0.11,0.24-0.22,0.36-0.33c0.24-0.22,0.49-0.43,0.74-0.65l0.37-0.32l0.19-0.16L30.48,50
		l0.02-0.02l0.01-0.01c0,0,0,0,0.01-0.01l0.05-0.04c0.27-0.2,0.53-0.4,0.79-0.6c0.07-0.05,0.13-0.1,0.19-0.15
		c0.06-0.06,0.12-0.11,0.17-0.18c0.01-0.01,0.02-0.03,0.03-0.04c1.01,0.27,2.02,0.53,3.02,0.81c0.52,0.14,1.03,0.28,1.55,0.43
		c-0.03,0.02-0.05,0.03-0.07,0.05c-0.02,0.02-0.05,0.05-0.07,0.07l-0.13,0.14l-0.54,0.56l-0.53,0.56l-0.53,0.57l-0.02,0.02
		l-0.01,0.01l-0.8,1.07c-0.27,0.36-0.53,0.71-0.81,1.06L32.4,54.8c-0.14,0.17-0.28,0.34-0.43,0.51c-0.29,0.33-0.61,0.64-1,0.85
		l0.02,0.04c0.05-0.02,0.11-0.03,0.16-0.05c0.05-0.02,0.11-0.04,0.16-0.07c0.11-0.05,0.21-0.1,0.3-0.17
		c0.2-0.12,0.38-0.26,0.55-0.41c0.17-0.15,0.34-0.3,0.5-0.46l0.24-0.23l0.12-0.11l0.12-0.12c0.32-0.33,0.62-0.66,0.91-1.01
		c0.29-0.33,0.57-0.67,0.85-1.02l0.54-0.54L36,51.46l0.54-0.55l0.13-0.14c0.02-0.02,0.05-0.05,0.07-0.07
		c0.02-0.02,0.04-0.05,0.06-0.08c0.03-0.06,0.06-0.12,0.07-0.2c0-0.03,0.01-0.05,0.01-0.08c0.02,0,0.04,0.01,0.06,0.02
		c0.36,0.1,0.71,0.21,1.06,0.31c0.18,0.05,0.35,0.11,0.52,0.17c0.03,0.01,0.05,0.02,0.08,0.03c0,0.01-0.01,0.01-0.02,0.02
		c-0.08,0.09-0.14,0.18-0.19,0.27c-0.11,0.18-0.17,0.37-0.21,0.57l-0.12,0.58c-0.04,0.18-0.07,0.37-0.1,0.55l-0.15,0.42l-0.16,0.46
		c-0.11,0.31-0.21,0.62-0.31,0.92c-0.1,0.31-0.2,0.62-0.3,0.93c-0.05,0.16-0.1,0.31-0.14,0.47c-0.05,0.15-0.09,0.31-0.14,0.47
		c-0.03,0.06-0.07,0.13-0.1,0.19c-0.04,0.08-0.09,0.15-0.13,0.23c-0.09,0.15-0.19,0.3-0.29,0.44c-0.1,0.14-0.21,0.28-0.34,0.41
		c-0.12,0.13-0.26,0.24-0.41,0.33l0.02,0.05l0.14-0.04c0.05-0.01,0.09-0.04,0.13-0.05s0.09-0.04,0.13-0.06l0.06-0.03
		c0.02-0.01,0.04-0.02,0.06-0.04c0.16-0.1,0.31-0.22,0.45-0.35c0.14-0.13,0.27-0.26,0.4-0.4c0.06-0.07,0.12-0.14,0.18-0.22
		c0.06-0.07,0.12-0.15,0.17-0.23h0l0.02-0.04c0.07-0.15,0.14-0.3,0.21-0.44c0.07-0.15,0.14-0.3,0.2-0.45c0.13-0.3,0.27-0.6,0.4-0.9
		c0.13-0.3,0.26-0.6,0.38-0.9l0.19-0.45l0.18-0.45l0.01-0.03l0.01-0.04l0.24-1.15c0.02-0.11,0.04-0.23,0.04-0.34
		c0.04,0.16,0.09,0.32,0.13,0.47c0.09,0.32,0.18,0.64,0.27,0.96c0.05,0.16,0.1,0.32,0.15,0.48c0.01,0.04,0.03,0.08,0.04,0.12
		c0.01,0.04,0.03,0.08,0.05,0.13c0.01,0.02,0.02,0.05,0.03,0.07l0.02,0.05c0.02,0.03,0.03,0.07,0.05,0.11
		c0.12,0.3,0.24,0.61,0.35,0.92l0.34,0.93l0.04,0.11l0.04,0.12l0.07,0.24c0.05,0.16,0.09,0.32,0.14,0.48
		c0.04,0.16,0.09,0.32,0.12,0.48c0.04,0.16,0.08,0.32,0.09,0.48l0.05,0C41.07,57.53,41.05,57.36,41.03,57.2 M23.62,48.39"/>
	<path class="st2" d="M45.27,46.47c-1.36-3.84-4.12-5.12-7.76-5.23c-3.64-0.11-4.33-1.16-7.13,1c-2.8,2.17-6.92,8.61-7.87,13.09
		c-0.95,4.49-2.8,11.83-2.8,13.94c0,2.11-0.79,13.25-0.9,14.2c-0.11,0.95-0.05,1.53,0.26,1.42c0.32-0.11,4.8-1.53,4.8-1.53
		s4.33-2.27,6.97-2.69c2.64-0.42,8.87-4.7,9.98-5.12c1.11-0.42,8.82-5.28,11.09-6.71c2.27-1.42,5.33-6.18,6.12-8.66
		c0.79-2.48,1.32-5.75,0.37-7.66c-0.95-1.9-1.58-2.27-4.96-2.85c-3.38-0.58-2.88-0.79-3.73-0.52c-0.84,0.26-2.62,0.8-2.62,0.8
		s-1.56-0.05-1.66-0.26C45.33,49.5,45.27,46.47,45.27,46.47"/>
	<path class="st1" d="M56.02,53.67c-0.27-0.08-0.53-0.14-0.8-0.21c-0.27-0.06-0.54-0.12-0.81-0.18l-0.41-0.09l-0.21-0.04l-0.21-0.03
		l-1.63-0.26c-0.55-0.08-1.09-0.16-1.65-0.23c-0.07-0.01-0.14-0.02-0.22-0.02l-0.12-0.01c-0.03,0-0.05-0.01-0.08-0.01
		c-0.04-0.01-0.11-0.02-0.18-0.03c-0.06-0.01-0.13-0.02-0.2-0.04c-0.26-0.05-0.53-0.11-0.8-0.17c-0.53-0.12-1.07-0.24-1.6-0.37
		c-0.5-0.12-1-0.24-1.51-0.36c-0.04-0.24-0.16-0.48-0.35-0.66c-0.19-0.18-0.43-0.28-0.68-0.31c-0.01-0.02-0.01-0.03-0.02-0.05
		c-0.01-0.02-0.02-0.04-0.03-0.04l-0.01-0.01l-0.04-0.05l-0.07-0.09l-0.14-0.17l-0.28-0.34l-0.55-0.67
		c-0.37-0.44-0.75-0.88-1.13-1.31c-0.76-0.87-1.54-1.72-2.35-2.55c-0.41-0.41-0.82-0.82-1.25-1.2c-0.22-0.19-0.44-0.38-0.67-0.56
		c-0.23-0.18-0.47-0.35-0.75-0.49l-0.11-0.05l-0.1-0.04l-0.2-0.08c-0.14-0.05-0.27-0.1-0.41-0.15c-0.27-0.1-0.55-0.19-0.82-0.27
		c-0.55-0.17-1.11-0.31-1.68-0.42l-0.02,0.08c0.55,0.14,1.1,0.32,1.63,0.52c0.27,0.1,0.53,0.21,0.79,0.32
		c0.13,0.06,0.26,0.12,0.39,0.17l0.19,0.09l0.1,0.04l0.09,0.05c0.23,0.13,0.45,0.31,0.66,0.49c0.21,0.19,0.42,0.38,0.61,0.59
		c0.4,0.4,0.78,0.83,1.16,1.26c0.75,0.86,1.46,1.76,2.16,2.66c0.35,0.45,0.7,0.91,1.04,1.37l0.5,0.69l0.25,0.35l0.12,0.17l0,0
		c-0.02,0.02-0.04,0.03-0.05,0.05l-0.12,0.12l-0.03-0.02c-0.13-0.08-0.26-0.15-0.39-0.22c-0.26-0.14-0.51-0.28-0.77-0.42
		c-0.51-0.28-1.03-0.54-1.55-0.81c-0.51-0.27-1.04-0.52-1.55-0.78c-0.52-0.26-1.04-0.51-1.56-0.76l-0.03-0.02l-0.02-0.01
		c-0.38-0.14-0.77-0.26-1.15-0.39c-0.38-0.13-0.77-0.25-1.16-0.37c-0.39-0.12-0.77-0.23-1.16-0.34c-0.39-0.11-0.78-0.21-1.18-0.31
		c-0.39-0.1-0.79-0.19-1.19-0.26c-0.4-0.07-0.81-0.14-1.23-0.15c-0.05,0-0.11,0-0.16,0c-0.06,0-0.11,0.01-0.17,0.01
		c-0.06,0.01-0.12,0.02-0.17,0.03l-0.15,0.04l-0.59,0.14c-0.39,0.1-0.78,0.2-1.17,0.3l0.01,0.08c0.4-0.03,0.8-0.07,1.2-0.11
		l0.6-0.06l0.15-0.02c0.05,0,0.09,0,0.13-0.01l0.13,0.01c0.04,0,0.09,0.01,0.14,0.02c0.37,0.06,0.76,0.17,1.14,0.28
		c0.38,0.11,0.76,0.24,1.13,0.37c0.75,0.26,1.5,0.54,2.25,0.83c0.73,0.28,1.47,0.57,2.19,0.87l3.04,1.64l1.52,0.82
		c0.25,0.14,0.5,0.28,0.75,0.42c0.07,0.04,0.15,0.08,0.22,0.13c-0.13,0.16-0.25,0.32-0.38,0.47c-0.38,0.49-0.76,0.99-1.13,1.48
		c-0.21,0.28-0.42,0.56-0.62,0.83c-0.11,0.01-0.21,0.03-0.34,0.03c-0.13,0.01-0.26,0.02-0.39,0.02c-0.27,0.01-0.54,0.01-0.81,0.02
		c-0.54,0-1.08,0-1.63-0.01c-1.09-0.02-2.18-0.04-3.27-0.08l-0.41-0.01l-0.2-0.01l-0.2-0.02l-0.82-0.06L30.9,54.6l-3.26-0.24
		l-0.01,0l0,0l-2.75,0.47l0.01,0.08l2.74-0.46l3.24,0.45l1.62,0.23l0.81,0.11l0.2,0.03l0.21,0.02l0.41,0.04
		c1.09,0.11,2.17,0.21,3.27,0.29c0.55,0.04,1.09,0.08,1.64,0.11c0.28,0.01,0.55,0.03,0.83,0.04c0.02,0,0.03,0,0.05,0
		c-0.3,0.41-0.6,0.81-0.89,1.22c-1.18,1.62-2.35,3.24-3.51,4.87c-0.07,0-0.14,0-0.21,0c-0.18,0-0.36,0-0.54,0
		c-0.36-0.01-0.72-0.02-1.09-0.03c-0.73-0.03-1.46-0.06-2.19-0.1c-1.46-0.07-2.93-0.15-4.39-0.24l-0.08,0l-0.04,0.02
		c-0.76,0.27-1.51,0.54-2.26,0.82c-0.38,0.14-0.75,0.29-1.12,0.44c-0.19,0.08-0.37,0.16-0.55,0.24c-0.09,0.04-0.18,0.08-0.27,0.13
		c-0.09,0.05-0.18,0.09-0.27,0.16l0.05,0.06c0.08-0.05,0.17-0.09,0.26-0.12c0.09-0.04,0.19-0.07,0.28-0.1
		c0.19-0.06,0.38-0.12,0.57-0.17c0.38-0.11,0.77-0.21,1.16-0.31c0.75-0.19,1.5-0.37,2.26-0.54c1.44,0.22,2.87,0.44,4.32,0.64
		c0.73,0.1,1.46,0.2,2.19,0.3c0.34,0.04,0.68,0.08,1.02,0.12l-1.99,3.31c-0.05,0.01-0.1,0.02-0.14,0.03
		c-0.11,0.02-0.22,0.04-0.34,0.06c-0.11,0.02-0.23,0.04-0.34,0.06c-0.46,0.08-0.92,0.14-1.38,0.21c-0.92,0.13-1.85,0.25-2.78,0.36
		l-0.02,0l-0.01,0l-4.13,1.16h0l0,0l0,0l-1.64,0.89l0.04,0.07l1.63-0.89l4.18-0.85c0.94-0.04,1.87-0.09,2.8-0.15
		c0.47-0.03,0.94-0.07,1.41-0.11c0.08-0.01,0.16-0.02,0.24-0.02l-1.51,2.51l-0.02-0.07c-0.43,0.17-0.88,0.34-1.33,0.49
		c-0.45,0.15-0.9,0.3-1.35,0.43c-0.91,0.27-1.83,0.53-2.75,0.75l-0.01,0l0,0c-0.3,0.15-0.59,0.3-0.88,0.46
		c-0.29,0.16-0.58,0.32-0.86,0.5c-0.14,0.09-0.28,0.18-0.42,0.28c-0.13,0.1-0.26,0.21-0.39,0.31l-0.78,0.62l0.05,0.06l0.78-0.62
		c0.13-0.1,0.26-0.21,0.39-0.31c0.13-0.1,0.27-0.19,0.41-0.27c0.28-0.17,0.57-0.34,0.86-0.49c0.29-0.16,0.58-0.31,0.87-0.46
		c0.95-0.12,1.89-0.27,2.83-0.44c0.47-0.09,0.94-0.18,1.41-0.28c0.24-0.05,0.48-0.11,0.73-0.17l-1.91,3.19
		c-0.69,0.22-1.36,0.46-2.03,0.72c-0.34,0.13-0.67,0.26-1,0.4c-0.33,0.14-0.66,0.28-1,0.42l-0.05,0.02l-0.02,0.02l-2.38,1.89
		l-0.02,0.01l0,0l-1.14,1.23l0.06,0.06l1.27-1.08l2.53-1.56c0.33-0.1,0.66-0.21,1-0.3c0.34-0.1,0.68-0.2,1.02-0.29
		c0.32-0.09,0.65-0.17,0.98-0.25l-1.63,2.71l-2.99,3.55l-1.51,1.79c-0.5,0.59-1.01,1.19-1.52,1.77l0,0c-0.01,0.02-0.01,0.04,0,0.06
		c0.02,0.02,0.04,0.02,0.06,0c0.55-0.56,1.08-1.13,1.61-1.69l1.6-1.7l3.12-3.32c0.02,0.13,0.04,0.25,0.07,0.38
		c0.05,0.22,0.1,0.43,0.17,0.65c0.07,0.21,0.15,0.42,0.27,0.63l-0.47,1.31l0.08,0.03l0.48-1.32l0-0.02
		c0.08-0.23,0.12-0.45,0.15-0.68c0.03-0.22,0.04-0.45,0.05-0.67c0-0.22,0-0.44-0.02-0.66c-0.01-0.16-0.03-0.32-0.19-0.47l1.22-1.8
		c0,0.04,0,0.07,0.01,0.11c0.01,0.1,0.03,0.21,0.04,0.32c0.02,0.11,0.03,0.21,0.06,0.32l0.03,0.16l0.05,0.16
		c0.01,0.05,0.04,0.11,0.05,0.16l0.03,0.08l0.04,0.08l0.04,0.08c0.01,0.03,0.04,0.06,0.05,0.09l0.06,0.09
		c0.01,0.02,0.02,0.02,0.03,0.04c0.03,0.04,0.06,0.11,0.08,0.18c0.04,0.15,0.04,0.34,0.03,0.53c-0.01,0.19-0.04,0.39-0.07,0.59
		l-0.04,0.31c-0.01,0.05-0.01,0.1-0.02,0.16c0,0.05-0.01,0.11,0,0.17l0.08,0c0.03-0.08,0.08-0.18,0.13-0.27
		c0.05-0.09,0.09-0.18,0.14-0.28c0.09-0.19,0.17-0.39,0.23-0.6c0.06-0.21,0.1-0.44,0.08-0.69c-0.01-0.13-0.04-0.26-0.11-0.4
		c-0.02-0.03-0.04-0.07-0.06-0.09l-0.02-0.04c-0.01-0.02-0.02-0.03-0.02-0.05l-0.02-0.06c-0.05-0.16-0.09-0.34-0.12-0.53
		c-0.03-0.19-0.05-0.38-0.07-0.58c-0.02-0.2-0.04-0.39-0.1-0.59c-0.02-0.07-0.04-0.15-0.07-0.22l0.01-0.01c0,0,0,0,0,0v0l1.79-2.65
		c0.01,0.06,0.01,0.13,0.02,0.19c0.04,0.26,0.1,0.52,0.2,0.78c0.1,0.26,0.23,0.52,0.44,0.78l0,0.01c0.1,0.37,0.21,0.75,0.3,1.13
		c0.09,0.38,0.19,0.75,0.25,1.13c0.01,0.05,0.02,0.09,0.02,0.14l0,0.07v0.07v0.29v0.58v1.17h0.08v-1.17v-0.58v-0.29v-0.07
		l-0.01-0.08c0-0.05-0.01-0.1-0.02-0.15c-0.07-0.39-0.16-0.76-0.26-1.14c-0.1-0.37-0.2-0.75-0.3-1.12c0.22-0.26,0.34-0.52,0.44-0.78
		c0.1-0.26,0.16-0.52,0.2-0.78c0.02-0.13,0.03-0.26,0.03-0.39c0-0.06,0-0.13,0-0.19c0-0.07-0.02-0.13-0.03-0.19
		c-0.04-0.13-0.1-0.26-0.2-0.39c-0.08-0.1-0.18-0.21-0.32-0.31l2.29-3.39c-0.03,0.42-0.02,0.84-0.02,1.27l0.01,0.19
		c0,0.06,0.01,0.12,0.02,0.19c0.01,0.07,0.01,0.13,0.03,0.2l0.02,0.1c0,0.02,0.01,0.03,0.01,0.05l0.02,0.06
		c0.01,0.04,0.03,0.08,0.04,0.12c0,0.01,0.01,0.02,0.01,0.02l0.01,0.02l0.02,0.04c0.02,0.05,0.04,0.1,0.06,0.15
		c0.04,0.1,0.08,0.21,0.12,0.32c0.16,0.43,0.32,0.85,0.46,1.29c0.15,0.43,0.3,0.86,0.43,1.3c0.13,0.43,0.27,0.87,0.35,1.3l0.03,0.16
		c0.01,0.05,0.01,0.11,0.02,0.17c0.02,0.11,0.03,0.23,0.04,0.34c0.02,0.23,0.04,0.46,0.06,0.68c0.02,0.23,0.03,0.46,0.05,0.69
		l0.04,0.69l0.08,0c0.07-0.46,0.12-0.92,0.16-1.38c0.02-0.23,0.03-0.46,0.04-0.7c0-0.24,0.01-0.46-0.01-0.71
		c-0.01-0.12-0.02-0.24-0.04-0.36c-0.02-0.12-0.03-0.24-0.06-0.35c-0.04-0.23-0.09-0.46-0.14-0.69c-0.1-0.46-0.22-0.91-0.34-1.36
		c-0.13-0.45-0.26-0.89-0.41-1.33c-0.04-0.11-0.08-0.22-0.12-0.33c-0.02-0.06-0.04-0.11-0.06-0.17l-0.02-0.04l-0.01-0.02
		c0-0.01-0.01-0.01-0.01-0.02c0-0.02-0.01-0.03-0.01-0.04l-0.01-0.02c0-0.01,0-0.02-0.01-0.03l-0.01-0.07
		c-0.01-0.04-0.01-0.1-0.02-0.14c0-0.05-0.01-0.1-0.01-0.15l0-0.16c0-0.44,0.02-0.89,0.05-1.35c0.01-0.23,0-0.46-0.05-0.7
		c-0.02-0.1-0.05-0.2-0.08-0.31l1.72-2.54c0.22-0.28,0.44-0.55,0.66-0.83c0.02,0.07,0.04,0.14,0.05,0.21
		c0.14,0.52,0.27,1.05,0.41,1.57l0.03,0.1c0,0.01,0,0.02,0.01,0.03l0.01,0.03l0.02,0.05l0.07,0.19l0.13,0.38l0.27,0.77
		c0.18,0.51,0.38,1.02,0.58,1.52c0.1,0.25,0.21,0.51,0.33,0.76c0.06,0.13,0.12,0.25,0.2,0.4l0.09,0.15
		c0.03,0.05,0.05,0.11,0.08,0.16c0.1,0.23,0.18,0.48,0.26,0.73c0.08,0.25,0.16,0.51,0.23,0.76l0.45,1.56
		c0.02,0.07,0.04,0.13,0.06,0.2l0.03,0.09c0.01,0.03,0.01,0.06,0.02,0.09c0.02,0.12,0.04,0.25,0.05,0.39
		c0.02,0.27,0.03,0.53,0.03,0.8l0.08,0.01c0.06-0.27,0.1-0.54,0.13-0.81c0.01-0.14,0.02-0.28,0.02-0.42c0-0.04,0-0.07-0.01-0.11
		l-0.02-0.11c-0.01-0.06-0.02-0.13-0.03-0.19c-0.08-0.53-0.15-1.07-0.24-1.61c-0.05-0.27-0.1-0.54-0.15-0.81
		c-0.06-0.27-0.12-0.54-0.21-0.82c-0.03-0.07-0.05-0.14-0.08-0.21l-0.1-0.21c-0.05-0.1-0.09-0.22-0.14-0.34
		c-0.09-0.24-0.18-0.49-0.26-0.75c-0.17-0.5-0.33-1.02-0.5-1.53l-0.24-0.77l-0.12-0.38l-0.06-0.19l-0.01-0.05l0-0.01
		c0,0,0-0.01,0-0.02l-0.02-0.1c-0.12-0.52-0.26-1.04-0.39-1.56c-0.03-0.13-0.06-0.26-0.11-0.39c-0.04-0.13-0.1-0.25-0.16-0.37
		c-0.01-0.03-0.03-0.05-0.05-0.08c1.07-1.33,2.15-2.66,3.23-3.98c0.56-0.68,1.12-1.36,1.68-2.03c0.01,0.05,0.02,0.1,0.04,0.14
		c0.02,0.05,0.04,0.1,0.06,0.15l0.12,0.29l0.49,1.16l0.5,1.16l0.51,1.16l0.02,0.04l0.01,0.02l1.11,1.88
		c0.36,0.63,0.73,1.26,1.07,1.89l0.5,0.97c0.17,0.32,0.33,0.64,0.49,0.97c0.3,0.65,0.57,1.32,0.62,2.05l0.08,0
		c0.01-0.09,0.02-0.19,0.03-0.28c0-0.09,0.01-0.19,0-0.28c0-0.19-0.02-0.38-0.05-0.56c-0.06-0.37-0.15-0.74-0.26-1.09
		c-0.11-0.36-0.24-0.7-0.37-1.05L47,64.23l-0.1-0.25l-0.1-0.26c-0.29-0.69-0.6-1.35-0.93-2.01c-0.32-0.65-0.65-1.28-0.99-1.92
		l-0.46-1.16l-0.47-1.17l-0.48-1.17l-0.12-0.29c-0.02-0.05-0.04-0.1-0.06-0.15c-0.02-0.05-0.05-0.09-0.08-0.14
		c-0.06-0.09-0.15-0.17-0.26-0.23c-0.04-0.02-0.08-0.04-0.12-0.06c0.02-0.02,0.04-0.05,0.06-0.07c0.39-0.47,0.79-0.93,1.19-1.38
		c0.2-0.23,0.4-0.45,0.6-0.67c0.03-0.03,0.06-0.07,0.09-0.1c0,0.01,0.01,0.02,0.01,0.03c0.08,0.17,0.18,0.32,0.28,0.46
		c0.21,0.28,0.45,0.5,0.72,0.69l0.81,0.55c0.26,0.17,0.51,0.34,0.77,0.51l0.54,0.5l0.6,0.54c0.4,0.36,0.8,0.71,1.2,1.07
		c0.4,0.35,0.81,0.7,1.22,1.05c0.2,0.17,0.41,0.35,0.62,0.52c0.21,0.17,0.41,0.34,0.62,0.51c0.07,0.09,0.15,0.18,0.22,0.28
		c0.09,0.11,0.17,0.23,0.26,0.34c0.17,0.23,0.33,0.47,0.48,0.72c0.15,0.25,0.29,0.5,0.4,0.76c0.11,0.26,0.2,0.54,0.23,0.83
		l0.08,0.01l0.04-0.23c0.01-0.08,0.01-0.15,0.01-0.23c0-0.08-0.01-0.15-0.01-0.23l-0.01-0.12c0-0.04-0.01-0.08-0.02-0.11
		c-0.04-0.31-0.13-0.61-0.23-0.9c-0.1-0.29-0.22-0.58-0.35-0.85c-0.07-0.14-0.13-0.28-0.21-0.41c-0.07-0.14-0.15-0.27-0.23-0.41l0,0
		l-0.05-0.06c-0.18-0.2-0.36-0.4-0.54-0.6c-0.18-0.2-0.36-0.4-0.54-0.59c-0.36-0.4-0.73-0.78-1.1-1.17
		c-0.37-0.38-0.74-0.77-1.12-1.15l-0.57-0.57l-0.57-0.57l-0.04-0.04l-0.06-0.04l-1.59-1.11c-0.15-0.11-0.32-0.2-0.49-0.28
		c0.27,0.04,0.54,0.08,0.81,0.11c0.55,0.08,1.09,0.15,1.64,0.22c0.27,0.03,0.55,0.07,0.83,0.1c0.07,0.01,0.14,0.01,0.21,0.02
		c0.07,0.01,0.14,0.01,0.23,0.02c0.04,0,0.09,0,0.12,0l0.09,0c0.06,0,0.13,0,0.2,0c0.54,0.01,1.09,0.04,1.64,0.07l1.65,0.1l0.2,0.01
		l0.2,0.02l0.41,0.05c0.27,0.03,0.55,0.07,0.82,0.11c0.27,0.04,0.54,0.08,0.81,0.13c0.27,0.05,0.54,0.1,0.79,0.18l0.03-0.07
		C56.56,53.82,56.29,53.74,56.02,53.67"/>
	<path class="st0" d="M54.95,57.92c0.7-2.34,1.4-2.79,1-4.81c-0.4-2.03-3.05-5.51-3.05-5.51s-5.45-5.16-7.47,2.94
		c-2.02,8.1-2.28,6.1-1.39,9.69c0.89,3.59-0.04,4.36,2.12,5.49c2.15,1.12,2.59,2.5,4.75,4.35c2.17,1.85,2.69,2.66,5.56,3.83
		c2.87,1.17,4.27,2.27,4.76,5.95c0.49,3.68,1.84,6.47,3.84,7.97c2,1.5,3.01,2.62,3.01,2.62l0.83,1.81c0,0,5.33-7.22,5.94-9.55
		c0.61-2.33,2.01-6.27,2.01-6.27s-1.2-2.31-1.88-7.41c-0.67-5.11-1.14-7.77-1.14-7.77s-2.37-4.46-4.71-6.49
		c-2.34-2.03-4.53-4.1-5.81-4.93c-1.28-0.83-2.97-1.51-4.18-0.72c-1.21,0.78-1.87-0.33-2.14,3.32c-0.26,3.66-0.29,4.24-0.93,4.83
		C55.42,57.85,54.73,58.68,54.95,57.92"/>
	<path class="st1" d="M69.25,90.12c0.03-0.36,0.01-0.71,0-1.06L69.22,88l-0.03-1.06c-0.01-0.35-0.03-0.71-0.06-1.06
		c-0.08-0.83-0.25-1.64-0.44-2.45c0.16,0.13,0.32,0.27,0.48,0.41c0.27,0.24,0.54,0.49,0.8,0.75c0.26,0.26,0.51,0.52,0.74,0.81
		c0.22,0.28,0.44,0.58,0.54,0.92l0,0.01c0.01,0.03,0.04,0.05,0.07,0.04c0.03,0,0.05-0.04,0.05-0.07c-0.03-0.19-0.09-0.38-0.17-0.55
		c-0.04-0.09-0.08-0.17-0.13-0.25c-0.04-0.08-0.09-0.17-0.14-0.25c-0.2-0.32-0.42-0.63-0.65-0.93c-0.23-0.3-0.47-0.58-0.72-0.87
		c-0.25-0.28-0.5-0.56-0.77-0.83c-0.01-0.01-0.02-0.02-0.03-0.03c-0.06-0.04-0.12-0.07-0.19-0.07l0.01-0.04l0-0.01l0.01-0.03
		c0.01-0.02,0.01-0.04,0.01-0.07c0.02-0.21-0.11-0.39-0.3-0.44c-0.02-0.07-0.04-0.14-0.05-0.21c-0.09-0.34-0.17-0.68-0.24-1.02
		l-0.05-0.25c-0.01-0.08-0.04-0.18-0.07-0.29c-0.01-0.05-0.03-0.09-0.05-0.14l-0.05-0.13c-0.03-0.09-0.07-0.17-0.11-0.25
		c-0.2-0.43-0.42-0.85-0.65-1.26c0.02,0.01,0.05,0.02,0.08,0.03l0.91,0.31c0.6,0.21,1.21,0.42,1.8,0.65
		c0.59,0.23,1.18,0.47,1.75,0.75c0.28,0.14,0.56,0.3,0.82,0.47c0.26,0.17,0.51,0.37,0.7,0.62l0,0c0.02,0.02,0.05,0.03,0.08,0.01
		c0.03-0.02,0.03-0.06,0.02-0.08c-0.18-0.28-0.43-0.5-0.68-0.7c-0.26-0.2-0.53-0.38-0.81-0.55c-0.55-0.33-1.13-0.62-1.71-0.9
		c-0.58-0.28-1.17-0.53-1.76-0.79l-0.88-0.38c-0.27-0.12-0.54-0.24-0.78-0.36c0.01-0.03,0.02-0.05,0.03-0.08l0,0c0,0,0-0.01,0-0.01
		c0.05-0.14-0.02-0.29-0.15-0.34c-0.06-0.02-0.13-0.02-0.19,0c-0.57-0.98-1.15-1.95-1.74-2.92c-0.08-0.13-0.16-0.26-0.24-0.39
		c0.15,0.06,0.31,0.11,0.46,0.17c0.53,0.18,1.06,0.33,1.6,0.47c0.53,0.14,1.07,0.26,1.61,0.37c0.53,0.11,1.07,0.21,1.61,0.3
		c0.44,0.16,0.88,0.33,1.31,0.52c0.44,0.19,0.87,0.39,1.29,0.61c0.42,0.22,0.83,0.46,1.21,0.74c0.19,0.14,0.37,0.29,0.54,0.45
		c0.16,0.16,0.31,0.35,0.41,0.55l0,0c0.01,0.03,0.05,0.04,0.08,0.03c0.03-0.01,0.04-0.05,0.03-0.08c-0.09-0.23-0.24-0.43-0.41-0.61
		c-0.17-0.18-0.35-0.34-0.54-0.49c-0.38-0.3-0.79-0.57-1.2-0.81c-0.42-0.24-0.84-0.47-1.28-0.68c-0.43-0.21-0.87-0.41-1.32-0.59
		l-0.01,0l-0.02,0c-0.53-0.11-1.06-0.24-1.59-0.37c-0.53-0.13-1.05-0.28-1.57-0.44c-0.52-0.16-1.03-0.33-1.53-0.52
		c-0.44-0.17-0.86-0.36-1.26-0.57c-0.74-1.19-1.48-2.38-2.22-3.56l0.01,0c0.28,0.03,0.55,0.06,0.83,0.08l1.64,0.14l3.28,0.27
		c0.55,0.05,1.09,0.09,1.64,0.15c0.54,0.05,1.09,0.12,1.63,0.19c0.54,0.07,1.08,0.15,1.61,0.28c0.26,0.06,0.52,0.14,0.77,0.24
		c0.25,0.1,0.49,0.22,0.7,0.39c0.02,0.02,0.06,0.02,0.08,0c0.02-0.02,0.02-0.06,0-0.08c-0.21-0.19-0.45-0.34-0.7-0.46
		c-0.25-0.12-0.52-0.22-0.78-0.3c-0.53-0.17-1.07-0.29-1.61-0.4c-0.54-0.11-1.08-0.21-1.63-0.3c-0.54-0.09-1.09-0.17-1.63-0.26
		l-3.26-0.49l-1.62-0.25c-0.27-0.04-0.54-0.09-0.81-0.13c-0.13-0.02-0.27-0.05-0.4-0.07c-0.13-0.02-0.25-0.05-0.38-0.08l-0.03-0.01
		c-0.01,0-0.02,0-0.03-0.01c-0.01,0-0.01,0-0.02,0c-0.24-0.38-0.48-0.76-0.72-1.14l-1.1-1.73c0.41,0.04,0.81,0.06,1.21,0.07
		c0.63,0.02,1.26,0.01,1.89-0.01c0.31-0.01,0.63-0.02,0.94-0.04l0.93-0.06c0.62-0.04,1.23-0.07,1.85-0.11
		c0.62-0.03,1.23-0.06,1.85-0.07c0.31-0.01,0.61-0.01,0.92,0l0.23,0.01l0.21,0.02c0.15,0.02,0.3,0.05,0.45,0.08
		c0.6,0.12,1.2,0.27,1.8,0.43c0.6,0.16,1.2,0.32,1.78,0.5l0,0c0.03,0.01,0.06-0.01,0.07-0.04c0.01-0.03,0-0.06-0.03-0.08
		c-0.58-0.24-1.16-0.44-1.75-0.64c-0.59-0.2-1.17-0.4-1.78-0.57c-0.15-0.04-0.3-0.08-0.46-0.12l-0.25-0.04l-0.24-0.03
		c-0.32-0.03-0.63-0.05-0.94-0.07c-0.62-0.03-1.24-0.06-1.86-0.07c-0.62-0.02-1.24-0.03-1.86-0.04l-0.93-0.01
		c-0.31-0.01-0.61-0.02-0.92-0.03c-0.61-0.03-1.22-0.07-1.82-0.13c-0.6-0.07-1.2-0.15-1.74-0.29l-0.01,0
		c-0.02,0-0.03-0.01-0.05-0.01c-0.12-0.02-0.23,0-0.33,0.04l-0.93-1.46l0.03-0.01l0.78-0.23l1.56-0.46c1.03-0.3,2.05-0.62,3.07-0.93
		l4.73-0.26l1.19-0.05c0.39-0.02,0.79-0.01,1.19-0.01c0.8,0.01,1.6,0.03,2.4,0.04c0.03,0,0.06-0.02,0.06-0.05
		c0.01-0.03-0.02-0.06-0.05-0.07c-0.79-0.13-1.59-0.24-2.39-0.33c-0.4-0.04-0.8-0.08-1.21-0.11c-0.4-0.02-0.81-0.03-1.21-0.04
		c-0.8-0.02-1.61-0.02-2.41-0.02c-0.8,0-1.6,0.01-2.41,0.03l-0.05,0l-0.06,0.02c-1.05,0.29-2.09,0.57-3.14,0.87l-1.57,0.45
		l-0.78,0.23l-0.31,0.09l-0.34-0.53l0.52-0.27l0.69-0.36l1.38-0.71c0.92-0.47,1.84-0.94,2.76-1.41c0.46-0.23,0.92-0.46,1.39-0.69
		c0.46-0.23,0.93-0.43,1.41-0.61c0.96-0.36,1.95-0.65,2.94-0.95c0.03-0.01,0.05-0.04,0.04-0.07c-0.01-0.03-0.04-0.05-0.07-0.04h0
		c-1.01,0.24-2.02,0.47-3.01,0.78c-0.5,0.15-0.99,0.33-1.47,0.53c-0.48,0.2-0.96,0.4-1.43,0.61c-0.95,0.41-1.9,0.83-2.85,1.24
		l-1.42,0.63l-0.18,0.08c0.32-0.33,0.63-0.67,0.93-1c0.7-0.76,1.38-1.53,2.08-2.27c0.35-0.37,0.71-0.73,1.08-1.07
		c0.19-0.17,0.38-0.33,0.57-0.47c0.1-0.07,0.2-0.13,0.31-0.2c0.11-0.07,0.21-0.13,0.32-0.19c0.44-0.25,0.89-0.48,1.36-0.68
		c0.47-0.21,0.94-0.39,1.43-0.55l0,0c0.03-0.01,0.04-0.04,0.04-0.07c-0.01-0.03-0.04-0.05-0.07-0.04c-0.5,0.12-1,0.26-1.49,0.42
		c-0.49,0.16-0.98,0.35-1.45,0.56c-0.12,0.05-0.24,0.11-0.36,0.17c-0.12,0.06-0.24,0.13-0.35,0.2c-0.23,0.14-0.44,0.3-0.65,0.46
		c-0.41,0.32-0.8,0.67-1.19,1.02c-0.76,0.7-1.5,1.42-2.24,2.13c-0.24,0.23-0.48,0.45-0.72,0.68l2.33-4.29l0.01-0.02l0,0
		c0.25-0.59,0.51-1.18,0.78-1.75c0.14-0.29,0.28-0.57,0.43-0.85c0.08-0.14,0.16-0.28,0.24-0.41c0.04-0.07,0.09-0.13,0.14-0.19
		c0.02-0.03,0.05-0.06,0.08-0.08c0.03-0.02,0.06-0.04,0.07-0.05l0.01,0c0.03-0.01,0.05-0.04,0.04-0.06c0-0.03-0.04-0.06-0.07-0.05
		c-0.06,0.01-0.1,0.04-0.14,0.07c-0.04,0.03-0.07,0.06-0.1,0.09c-0.06,0.06-0.11,0.12-0.16,0.19c-0.1,0.13-0.19,0.26-0.28,0.4
		c-0.18,0.27-0.34,0.55-0.51,0.83c-0.32,0.56-0.63,1.13-0.92,1.7l0.01-0.02l-3.27,5.22c-0.12-0.07-0.27-0.11-0.41-0.09
		c-0.06-0.1-0.15-0.19-0.26-0.24c-0.15-0.82-0.15-1.7-0.21-2.59c-0.03-0.47-0.07-0.94-0.17-1.42c-0.03-0.12-0.06-0.24-0.09-0.35
		c-0.03-0.11-0.06-0.22-0.09-0.33l-0.17-0.68c-0.06-0.23-0.13-0.46-0.22-0.68c-0.09-0.23-0.21-0.44-0.34-0.64
		c-0.13-0.2-0.28-0.39-0.43-0.57c-0.16-0.18-0.31-0.35-0.47-0.52c-0.31-0.34-0.62-0.69-0.95-1.03c-0.32-0.33-0.68-0.66-1.1-0.87
		c-0.03-0.01-0.06,0-0.08,0.02c-0.02,0.03-0.01,0.06,0.02,0.08c0.4,0.23,0.72,0.55,1.03,0.9c0.3,0.35,0.6,0.71,0.89,1.07
		c0.15,0.18,0.3,0.36,0.44,0.54c0.14,0.18,0.27,0.37,0.38,0.56c0.23,0.39,0.36,0.8,0.45,1.25l0.14,0.68
		c0.02,0.11,0.05,0.23,0.08,0.35c0.02,0.11,0.04,0.22,0.06,0.33c0.02,0.13,0.04,0.25,0.05,0.38c-0.01-0.02-0.02-0.05-0.03-0.07
		c-0.06-0.11-0.12-0.22-0.19-0.32c-0.07-0.1-0.15-0.21-0.22-0.29l-0.43-0.53c-0.28-0.36-0.57-0.72-0.89-1.06
		c-0.32-0.35-0.7-0.67-1.14-0.88c-0.22-0.1-0.44-0.18-0.66-0.25c-0.22-0.07-0.44-0.13-0.67-0.19c-0.45-0.11-0.9-0.21-1.35-0.28
		l-0.01,0l-0.01,0c-0.34,0.03-0.68,0.06-1.02,0.11c-0.17,0.02-0.34,0.05-0.51,0.08c-0.08,0.02-0.17,0.04-0.25,0.06
		c-0.04,0.01-0.09,0.03-0.13,0.05c-0.02,0.01-0.04,0.02-0.07,0.04c-0.01,0.01-0.02,0.02-0.04,0.03c-0.01,0.02-0.02,0.04-0.02,0.07
		c0,0.03,0.03,0.06,0.07,0.05c0.03,0,0.05-0.03,0.05-0.05c0,0,0,0,0.01-0.01c0.01-0.01,0.03-0.02,0.05-0.02
		c0.03-0.02,0.07-0.03,0.11-0.04c0.08-0.02,0.16-0.04,0.25-0.06c0.17-0.03,0.33-0.06,0.5-0.08c0.33-0.04,0.67-0.08,1.01-0.11
		c0.44,0.13,0.87,0.26,1.3,0.41c0.21,0.08,0.43,0.15,0.64,0.24c0.21,0.09,0.42,0.17,0.61,0.27c0.76,0.42,1.25,1.19,1.81,1.92
		l0.42,0.55c0.07,0.1,0.13,0.17,0.19,0.26c0.06,0.09,0.11,0.18,0.15,0.27c0.19,0.38,0.3,0.8,0.38,1.24
		c0.08,0.43,0.12,0.88,0.14,1.33c0.01,0.23,0.02,0.45,0.02,0.68l0,0.11l-2.51,0.28l-0.02,0c-0.66,0.15-1.32,0.33-1.97,0.53
		c-0.32,0.1-0.65,0.21-0.97,0.33c-0.32,0.12-0.63,0.26-0.93,0.43c-0.03,0.02-0.04,0.05-0.02,0.08c0.02,0.03,0.05,0.04,0.08,0.02
		c0.29-0.17,0.6-0.3,0.91-0.42c0.31-0.12,0.63-0.23,0.96-0.33c0.64-0.2,1.29-0.37,1.95-0.52l2.82,0.76
		c0.04,0.01,0.09,0.02,0.13,0.02c0.02,0.04,0.04,0.08,0.07,0.12l0.92,1.34l-0.15,0.08c-0.13,0.08-0.26,0.15-0.39,0.23
		c-0.26,0.16-0.51,0.32-0.76,0.5c-0.25,0.18-0.48,0.37-0.71,0.58c-0.11,0.1-0.22,0.21-0.33,0.32c-0.05,0.06-0.1,0.12-0.15,0.17
		c-0.05,0.06-0.09,0.11-0.14,0.19l-1.57,1.5l-1.81,0.44c-0.03,0.01-0.05,0.04-0.04,0.07c0.01,0.03,0.04,0.05,0.07,0.04l1.83-0.44
		l0.01,0l0.01-0.01l1.84-1.26l0.04-0.04c0.03-0.03,0.09-0.09,0.14-0.13c0.05-0.04,0.1-0.09,0.16-0.13c0.11-0.08,0.22-0.16,0.34-0.24
		c0.23-0.15,0.47-0.29,0.72-0.42c0.25-0.13,0.51-0.24,0.76-0.34c0.13-0.05,0.26-0.1,0.39-0.15l0.34-0.11l1.47,2.14
		c-0.18-0.01-0.35,0.07-0.47,0.22l-0.07,0.09l-0.06,0.08l-0.1,0.16l-0.19,0.3l-0.38,0.61l-0.74,1.22l0.03-0.04l-1.17,1.41
		c-0.16,0.21-0.41,0.37-0.67,0.48c-0.26,0.11-0.56,0.15-0.86,0.13h0c-0.03,0-0.05,0.02-0.06,0.05c-0.01,0.03,0.01,0.06,0.05,0.07
		c0.31,0.06,0.63,0.07,0.95-0.01c0.16-0.04,0.31-0.09,0.46-0.17c0.15-0.07,0.29-0.16,0.42-0.28l1.37-1.22l0.03-0.04l0.91-1.08
		l0.46-0.54l0.23-0.26c0.04-0.04,0.08-0.09,0.11-0.12l0.05-0.06l0.04-0.04l0.01-0.01c0.02-0.02,0.04-0.04,0.06-0.06
		c0.04-0.05,0.06-0.11,0.08-0.17l1.33,1.93c0.28,0.4,0.56,0.81,0.83,1.21c-0.08,0.03-0.14,0.1-0.16,0.19v0
		c-0.02,0.07-0.05,0.16-0.08,0.24c-0.03,0.09-0.06,0.17-0.1,0.26c-0.07,0.17-0.14,0.34-0.22,0.52c-0.15,0.34-0.32,0.68-0.5,1.01
		c-0.18,0.33-0.37,0.65-0.59,0.95c-0.11,0.15-0.23,0.29-0.36,0.42c-0.13,0.13-0.27,0.25-0.44,0.31l0,0
		c-0.03,0.01-0.04,0.04-0.03,0.07c0.01,0.03,0.04,0.05,0.07,0.04c0.2-0.06,0.37-0.17,0.52-0.3c0.15-0.12,0.29-0.26,0.42-0.41
		c0.26-0.29,0.49-0.6,0.7-0.92c0.22-0.32,0.42-0.65,0.61-0.98c0.09-0.17,0.19-0.34,0.28-0.51c0.04-0.09,0.09-0.17,0.13-0.26
		c0.03-0.05,0.05-0.11,0.07-0.16c0.82,1.2,1.64,2.4,2.45,3.61c-0.15,0.05-0.26,0.18-0.28,0.34c-0.01,0.07-0.03,0.17-0.06,0.26
		c-0.03,0.1-0.06,0.19-0.09,0.29c-0.07,0.2-0.14,0.39-0.22,0.59c-0.08,0.19-0.16,0.39-0.25,0.58c-0.09,0.19-0.18,0.38-0.3,0.54l0,0
		c-0.02,0.02-0.02,0.05,0,0.07c0.02,0.02,0.06,0.03,0.08,0.01c0.17-0.14,0.32-0.31,0.46-0.47c0.14-0.17,0.28-0.34,0.41-0.51
		c0.13-0.17,0.26-0.35,0.38-0.53c0.06-0.09,0.12-0.18,0.18-0.28c0.05-0.08,0.09-0.15,0.13-0.24c0.23,0.35,0.47,0.7,0.7,1.05
		c0.69,1.05,1.38,2.1,2.04,3.17c-0.05,0.17-0.1,0.34-0.15,0.51c-0.09,0.33-0.18,0.67-0.26,1c-0.16,0.67-0.32,1.33-0.46,2l0,0.01v0
		c-0.06,0.46-0.11,0.91-0.14,1.36c-0.02,0.23-0.03,0.46-0.03,0.69c0,0.23,0,0.46,0.04,0.69c0,0.03,0.03,0.05,0.06,0.05
		c0.03,0,0.06-0.03,0.05-0.06l0,0c-0.02-0.22-0.01-0.45,0.01-0.67c0.02-0.23,0.04-0.45,0.07-0.67c0.06-0.44,0.13-0.89,0.22-1.33
		c0.18-0.66,0.37-1.31,0.58-1.96c0.1-0.33,0.21-0.65,0.31-0.97c0.01-0.04,0.03-0.08,0.04-0.11c0.33,0.55,0.66,1.1,0.95,1.66
		c0.04,0.08,0.08,0.15,0.11,0.23l0.05,0.11c0.02,0.04,0.04,0.08,0.04,0.11c0.05,0.12,0.08,0.32,0.12,0.49
		c0.08,0.35,0.18,0.69,0.28,1.03c0.02,0.07,0.04,0.14,0.06,0.21c-0.05,0.05-0.09,0.12-0.11,0.2c0,0,0,0,0,0l0,0.01l-0.01,0.03
		l-0.02,0.07l-0.04,0.15l-0.09,0.31l-0.19,0.63c-0.13,0.42-0.25,0.84-0.37,1.27c-0.12,0.42-0.23,0.85-0.33,1.28
		c-0.05,0.22-0.09,0.43-0.13,0.65c-0.02,0.11-0.03,0.22-0.04,0.33c-0.01,0.11-0.02,0.23,0.02,0.35c0.01,0.03,0.03,0.05,0.06,0.04
		c0.03,0,0.06-0.03,0.05-0.07l0-0.01c-0.01-0.09,0.01-0.2,0.03-0.3c0.02-0.1,0.05-0.21,0.08-0.31c0.06-0.21,0.13-0.41,0.21-0.61
		c0.15-0.41,0.32-0.81,0.49-1.21c0.17-0.4,0.35-0.8,0.53-1.2l0.2-0.45c0.25,0.89,0.48,1.78,0.61,2.69c0.05,0.35,0.08,0.69,0.1,1.04
		l0.07,1.05l0.08,1.06c0.02,0.35,0.05,0.7,0.04,1.05c0,0.03,0.02,0.06,0.05,0.06C69.22,90.18,69.25,90.16,69.25,90.12 M46.27,52.26
		c0,0,0-0.01,0-0.01C46.27,52.26,46.27,52.26,46.27,52.26"/>
	<path class="st1" d="M67.78,82.28c0-0.01,0-0.02,0.01-0.03c0,0,0,0.01,0,0.01C67.78,82.26,67.78,82.27,67.78,82.28"/>
</g>
</svg>
