<svg id="Layer_1" data-name="Layer 1" xmlns="http://www.w3.org/2000/svg" viewBox="0 0 108 108">
  <defs>
    <style>
      .cls-1 {
        fill: #1da575;
      }

      .cls-2 {
        fill: #3cb56c;
      }

      .cls-3 {
        fill: #5cc563;
      }

      .cls-4 {
        fill: #adcb74;
      }
    </style>
  </defs>
  <g>
    <path class="cls-1" d="M55.83,18.34l-1,65.16A67.37,67.37,0,0,0,63.74,50a67.24,67.24,0,0,0-7.91-31.68Z"/>
    <path class="cls-2" d="M59.29,50a140.66,140.66,0,0,0-3.46-31.68h-1L50.41,50,54.85,83.5A123,123,0,0,0,59.29,50Z"/>
    <path class="cls-3" d="M53.87,18.34a67.44,67.44,0,0,0,1,65.16V18.34Z"/>
    <path class="cls-4" d="M57.18,89.75A16.56,16.56,0,0,1,56,83.5V18.86a1.11,1.11,0,0,0-2.22,0V83.5a18.68,18.68,0,0,0,1.38,7.08,1.11,1.11,0,0,0,1,.7,1.06,1.06,0,0,0,.42-.09,1.11,1.11,0,0,0,.61-1.44Z"/>
    <path class="cls-1" d="M33.62,18.34l-1,65.16A67.37,67.37,0,0,0,41.52,50,67.35,67.35,0,0,0,33.62,18.34Z"/>
    <path class="cls-2" d="M37.08,50a141.24,141.24,0,0,0-3.46-31.68h-1L28.19,50,32.63,83.5A123,123,0,0,0,37.08,50Z"/>
    <path class="cls-3" d="M31.65,18.34a67.51,67.51,0,0,0,1,65.16V18.34Z"/>
    <path class="cls-4" d="M35,89.75a16.56,16.56,0,0,1-1.22-6.25V18.86a1.11,1.11,0,0,0-2.22,0V83.5a18.87,18.87,0,0,0,1.38,7.08,1.12,1.12,0,0,0,1,.7,1.06,1.06,0,0,0,.42-.09A1.1,1.1,0,0,0,35,89.75Z"/>
    <path class="cls-1" d="M78.05,18.34l-1,65.16a67.44,67.44,0,0,0,1-65.16Z"/>
    <path class="cls-2" d="M81.51,50a140.66,140.66,0,0,0-3.46-31.68h-1L72.63,50,77.07,83.5A123.41,123.41,0,0,0,81.51,50Z"/>
    <path class="cls-3" d="M76.09,18.34a67.44,67.44,0,0,0,1,65.16V18.34Z"/>
    <path class="cls-4" d="M79.4,89.75a16.56,16.56,0,0,1-1.22-6.25V18.86a1.11,1.11,0,1,0-2.22,0V83.5a18.68,18.68,0,0,0,1.38,7.08,1.11,1.11,0,0,0,1,.7,1,1,0,0,0,.41-.09,1.11,1.11,0,0,0,.62-1.44Z"/>
  </g>
</svg>
