<?xml version="1.0" encoding="utf-8"?>
<!-- Generator: Adobe Illustrator 23.1.1, SVG Export Plug-In . SVG Version: 6.00 Build 0)  -->
<svg version="1.1" id="Layer_1" xmlns="http://www.w3.org/2000/svg" xmlns:xlink="http://www.w3.org/1999/xlink" x="0px" y="0px"
	 viewBox="0 0 108 108" style="enable-background:new 0 0 108 108;" xml:space="preserve">
<style type="text/css">
	.st0{fill:none;stroke:#718638;stroke-width:1.0127;stroke-miterlimit:10;}
	.st1{fill:#A6C339;}
	.st2{fill:#85B541;}
	.st3{fill:#91BC3E;}
	.st4{fill:#B0CC37;}
	.st5{fill:#93B93F;}
	.st6{fill:#A6BD3A;}
	.st7{fill:#A5C939;}
	.st8{fill:#72AA42;}
	.st9{fill:none;stroke:#624B43;stroke-width:2.7512;stroke-miterlimit:10;}
	.st10{fill:#CC4E64;}
	.st11{fill:#C84A5F;}
	.st12{fill:#A93742;}
	.st13{fill:#E9969F;}
	.st14{fill:#C6586C;}
	.st15{clip-path:url(#SVGID_2_);fill:#9F1F27;}
	.st16{fill:#6A1312;}
	.st17{fill:none;stroke:#CD636A;stroke-width:0.2422;stroke-miterlimit:10;}
	.st18{fill:#D11F49;}
	.st19{fill:#FAF6E1;}
	.st20{fill:#F9E3AA;}
	.st21{clip-path:url(#SVGID_4_);fill:#9F1F27;}
	.st22{fill:none;stroke:#CD636A;stroke-width:0.2955;stroke-miterlimit:10;}
	.st23{clip-path:url(#SVGID_6_);fill:#9F1F27;}
	.st24{clip-path:url(#SVGID_8_);fill:#9F1F27;}
	.st25{fill:none;stroke:#CD636A;stroke-width:0.2907;stroke-miterlimit:10;}
</style>
<g>
	<path class="st0" d="M69.5,74.83c-0.06-2.42-1.01-6.76-1.68-9.84"/>
	<path class="st0" d="M75.91,71.71c-3.2-1.29-7.29-4.18-9.33-7.3"/>
	<path class="st0" d="M77.01,65.42c-3.63,1.75-6.65,3.78-9.15,0.14"/>
	<path class="st0" d="M62.4,58.51c-3.85-2.98-7.5-6.93-8.92-10.39"/>
	<path class="st0" d="M54.52,61.36c0.44-5.02-0.93-12.71-1.11-14.29"/>
	<path class="st0" d="M61.32,51.82c-2.98,0.93-4.66,2.38-7.6-2.56"/>
	<path class="st1" d="M64.28,79.57c-0.31-1.93-1.29-2.33,1.93-5.74l3.22-3.42c0,0,0.64,0.74,1.39,1.58
		c0.75,0.84,3.93,3.65,2.49,6.93c-1.43,3.28-2.67,5.06-3.15,5.57s-1.75,2.57-2.11,3.07"/>
	<path class="st2" d="M86.94,80.54c-2.35-0.98-5.72,1.13-8.56-0.86c-2.85-2-4.47-6.93-5.15-8.36c-0.68-1.43-1.84-0.81,0.84-0.86
		c2.69-0.05,2.84-0.96,5.17-0.4c2.33,0.56,5.56,4.04,5.78,5.48C85.24,76.98,86.94,80.54,86.94,80.54"/>
	<path class="st3" d="M72.93,67.44c0.7,0,1.48,0.57,4.86,0.62c3.38,0.05,6.04-0.31,6.63-2.89c0.59-2.58-0.24-3.09,1.21-4.79
		l1.45-1.7c0,0-2.91-0.09-6.96,0.02c-4.05,0.1-5.95,4.21-6.45,5.94C73.17,66.37,72.93,67.44,72.93,67.44"/>
	<path class="st4" d="M71.1,67.48c0,0-1.56-1.73-4.75-1.74c-3.19-0.02-6.69-1.59-6.69-4.97c0-3.38-1.09-5.24-1.09-5.24
		s-0.07,0.48,2.71,0.26c2.78-0.22,6.73,1.69,7.84,4.45C70.22,63.01,71.1,67.48,71.1,67.48"/>
	<path class="st5" d="M51.91,71.77c0,0,4.11-4.12,5.37-6.91c1.26-2.79,1.61-4.45-0.03-6.44c-1.63-1.98-2.23-3.57-2.23-3.57
		s-2.32,3.45-3.84,4.26c-1.52,0.8-3.2,3.63-2.38,5.3C49.62,66.09,51.91,71.77,51.91,71.77"/>
	<path class="st6" d="M58.34,52.75c0,0.05,2.46,1.07,5.39,1.43c2.93,0.35,4.51,0.33,5.66-1.13c1.15-1.46,1.93-3,2.75-4.7
		c0.82-1.7,0.92-2.39,1.6-2.55c0.67-0.16-0.85,0.59-4.08-0.21c-3.23-0.8-4.77-1.69-6.12-0.63c-1.34,1.05-1.3,3-2.39,4.56
		C60.06,51.09,58.34,52.75,58.34,52.75"/>
	<path class="st0" d="M27.35,73.16c2.34-0.65,6.31-2.64,9.13-4.04"/>
	<path class="st0" d="M31.94,78.61c0.46-3.41,2.26-8.09,4.79-10.83"/>
	<path class="st0" d="M38.31,78.14c-2.59-3.09-5.29-5.52-2.38-8.84"/>
	<path class="st0" d="M41.43,62.28c1.94-4.46,4.88-8.97,7.89-11.19"/>
	<path class="st0" d="M36.73,55.34c4.97-0.8,12.09-4.02,13.58-4.58"/>
	<path class="st0" d="M47.65,59.59c-1.64-2.66-3.46-3.94,0.62-8"/>
	<path class="st2" d="M21.47,69.27c1.79-0.77,1.94-1.82,6.04,0.46l4.1,2.28c0,0-0.56,0.8-1.19,1.73c-0.63,0.93-2.58,4.7-6.11,4.12
		c-3.53-0.59-5.56-1.34-6.18-1.69c-0.62-0.35-2.92-1.07-3.49-1.29"/>
	<path class="st7" d="M26.08,91.47c0.37-2.51-2.5-5.26-1.26-8.51c1.24-3.25,5.62-6.04,6.84-7.04c1.21-1.01,0.33-1.98,1.04,0.61
		c0.71,2.59,1.63,2.51,1.66,4.91c0.03,2.4-2.55,6.38-3.9,6.95C29.12,88.95,26.08,91.47,26.08,91.47"/>
	<path class="st3" d="M35.35,74.67c0.17,0.68-0.19,1.58,0.59,4.87c0.78,3.29,1.79,5.78,4.43,5.72c2.64-0.06,2.94-0.99,4.94,0l2,0.99
		c0,0-0.63-2.84-1.72-6.75c-1.1-3.9-5.54-4.74-7.34-4.8C36.45,74.65,35.35,74.67,35.35,74.67"/>
	<path class="st4" d="M34.86,72.91c0,0,1.29-1.93,0.52-5.03c-0.77-3.1-0.1-6.88,3.17-7.71c3.27-0.83,4.81-2.35,4.81-2.35
		s-0.48,0.05,0.41,2.69c0.89,2.64,0.01,6.94-2.4,8.69C38.98,70.96,34.86,72.91,34.86,72.91"/>
	<path class="st5" d="M26,55.36c0,0,5,2.98,8.02,3.51c3.01,0.54,4.71,0.46,6.23-1.6c1.52-2.07,2.92-3.04,2.92-3.04
		s-3.91-1.4-5.07-2.68c-1.15-1.28-4.3-2.21-5.73-1.01C30.94,51.75,26,55.36,26,55.36"/>
	<path class="st6" d="M46.01,56.93c-0.05,0.02-0.44,2.65-0.06,5.57c0.38,2.93,0.78,4.46,2.48,5.21c1.7,0.76,3.38,1.14,5.23,1.51
		c1.85,0.38,2.55,0.31,2.86,0.92c0.32,0.61-0.78-0.68-0.8-4.01c-0.01-3.33,0.46-5.04-0.89-6.08c-1.35-1.04-3.23-0.52-5.01-1.2
		C48.05,58.19,46.01,56.93,46.01,56.93"/>
	<path class="st0" d="M34.33,31.86c0.77,2.3,2.95,6.16,4.49,8.91"/>
	<path class="st0" d="M29.13,36.72c3.43,0.29,8.2,1.85,11.06,4.24"/>
	<path class="st0" d="M29.91,43.05c2.96-2.74,5.25-5.56,8.71-2.82"/>
	<path class="st0" d="M45.91,45.37c4.55,1.72,9.2,4.42,11.57,7.32"/>
	<path class="st0" d="M52.61,40.33c1.05,4.93,4.62,11.88,5.26,13.34"/>
	<path class="st0" d="M48.91,51.45c2.57-1.77,3.76-3.65,8.02,0.22"/>
	<path class="st1" d="M37.94,25.79c0.86,1.75,1.92,1.85-0.16,6.06l-2.07,4.21c0,0-0.83-0.52-1.79-1.1
		c-0.97-0.58-4.83-2.34-4.42-5.89c0.41-3.55,1.06-5.62,1.38-6.25c0.32-0.63,0.92-2.97,1.11-3.55"/>
	<path class="st2" d="M15.99,31.51c2.53,0.25,5.13-2.76,8.44-1.69c3.31,1.07,6.31,5.31,7.38,6.48c1.06,1.16,2,0.23-0.56,1.07
		c-2.55,0.84-2.43,1.75-4.83,1.9c-2.39,0.15-6.5-2.23-7.13-3.54C18.66,34.41,15.99,31.51,15.99,31.51"/>
	<path class="st3" d="M33.23,39.92c-0.67,0.21-1.58-0.11-4.83,0.83c-3.25,0.94-5.68,2.07-5.49,4.71c0.19,2.64,1.14,2.89,0.25,4.93
		l-0.89,2.05c0,0,2.81-0.77,6.65-2.06c3.85-1.29,4.45-5.77,4.42-7.57C33.31,41.02,33.23,39.92,33.23,39.92"/>
	<path class="st4" d="M34.97,39.35c0,0,2,1.19,5.05,0.27c3.06-0.92,6.87-0.45,7.86,2.78c0.99,3.23,2.59,4.69,2.59,4.69
		s-0.08-0.48-2.67,0.55c-2.59,1.02-6.93,0.36-8.8-1.96C37.12,43.36,34.97,39.35,34.97,39.35"/>
	<path class="st5" d="M52.05,29.61c0,0-2.72,5.14-3.11,8.18c-0.39,3.04-0.23,4.73,1.91,6.14c2.14,1.42,3.18,2.76,3.18,2.76
		s1.2-3.98,2.42-5.19c1.22-1.22,1.99-4.41,0.72-5.77C55.91,34.37,52.05,29.61,52.05,29.61"/>
	<path class="st6" d="M51.48,49.68c-0.02-0.05-2.67-0.31-5.57,0.22c-2.9,0.52-4.41,1-5.08,2.74c-0.67,1.73-0.97,3.43-1.25,5.3
		c-0.28,1.86-0.18,2.56-0.78,2.91c-0.6,0.35,0.64-0.82,3.96-1c3.32-0.18,5.06,0.21,6.03-1.19c0.97-1.4,0.36-3.25,0.94-5.06
		C50.33,51.78,51.48,49.68,51.48,49.68"/>
	<path class="st0" d="M77.13,37.45c-2.39,0.4-6.55,1.96-9.5,3.06"/>
	<path class="st0" d="M73.14,31.55c-0.82,3.35-3.1,7.81-5.91,10.27"/>
	<path class="st0" d="M66.76,31.34c2.25,3.35,4.68,6.05,1.43,9.04"/>
	<path class="st0" d="M61.98,46.78c-2.4,4.23-5.8,8.41-9.03,10.3"/>
	<path class="st0" d="M65.92,54.18c-5.03,0.27-12.45,2.71-13.99,3.12"/>
	<path class="st0" d="M55.51,48.8c1.35,2.82,3.02,4.28-1.47,7.89"/>
	<path class="st1" d="M82.56,41.95c-1.87,0.58-2.12,1.6-5.96-1.1l-3.84-2.7c0,0,0.64-0.74,1.37-1.6c0.72-0.86,3.06-4.4,6.51-3.45
		c3.45,0.96,5.39,1.92,5.97,2.33c0.58,0.41,2.79,1.37,3.34,1.65"/>
	<path class="st7" d="M80.33,19.38c-0.64,2.46,1.93,5.5,0.36,8.6c-1.57,3.1-6.23,5.41-7.54,6.28c-1.31,0.87-0.54,1.94-0.97-0.71
		c-0.43-2.65-1.35-2.67-1.13-5.06c0.22-2.39,3.21-6.07,4.61-6.49C77.04,21.57,80.33,19.38,80.33,19.38"/>
	<path class="st2" d="M69.34,35.1c-0.1-0.69,0.36-1.55-0.07-4.9c-0.42-3.35-1.16-5.94-3.8-6.16c-2.64-0.22-3.03,0.68-4.91-0.52
		l-1.88-1.2c0,0,0.32,2.89,1,6.89c0.68,4,5.01,5.3,6.79,5.55C68.24,35.01,69.34,35.1,69.34,35.1"/>
	<path class="st4" d="M69.63,36.91c0,0-1.49,1.79-1.05,4.95c0.44,3.16-0.63,6.85-3.97,7.33c-3.34,0.48-5.04,1.82-5.04,1.82
		s0.49,0-0.12-2.72c-0.61-2.72,0.72-6.9,3.3-8.39C65.33,38.41,69.63,36.91,69.63,36.91"/>
	<path class="st5" d="M76.59,55.3c0,0-4.66-3.49-7.6-4.34c-2.94-0.85-4.63-0.96-6.37,0.93c-1.73,1.9-3.22,2.71-3.22,2.71
		s3.74,1.81,4.76,3.2c1.01,1.39,4.04,2.66,5.59,1.61C71.3,58.36,76.59,55.3,76.59,55.3"/>
	<path class="st6" d="M56.86,51.62c0.05-0.01,0.72-2.59,0.65-5.53c-0.07-2.95-0.31-4.51-1.92-5.45c-1.61-0.93-3.24-1.49-5.04-2.05
		c-1.8-0.57-2.5-0.57-2.75-1.22c-0.25-0.65,0.71,0.76,0.37,4.07c-0.34,3.31-0.99,4.97,0.24,6.14c1.23,1.18,3.16,0.86,4.86,1.72
		C54.97,50.15,56.86,51.62,56.86,51.62"/>
	<path class="st8" d="M53.47,64.14c-0.06-2.42-1.01-6.76-1.68-9.84"/>
	<path class="st8" d="M59.88,61.02c-3.2-1.29-7.29-4.18-9.33-7.3"/>
	<path class="st8" d="M60.98,54.74c-3.63,1.75-6.65,3.78-9.15,0.14"/>
	<path class="st8" d="M46.37,47.82c-3.85-2.98-7.5-6.93-8.91-10.39"/>
	<path class="st8" d="M38.49,50.67c0.44-5.02-0.93-12.71-1.11-14.29"/>
	<path class="st8" d="M45.29,41.13c-2.98,0.93-4.66,2.38-7.6-2.56"/>
	<path class="st8" d="M48.25,68.88c-0.31-1.93-1.29-2.33,1.93-5.74l3.22-3.42c0,0,0.64,0.74,1.39,1.58
		c0.75,0.84,3.92,3.65,2.49,6.93c-1.43,3.28-2.67,5.06-3.15,5.57c-0.49,0.51-1.75,2.57-2.11,3.07"/>
	<path class="st8" d="M70.91,69.86c-2.34-0.98-5.72,1.13-8.56-0.86c-2.85-2-4.47-6.93-5.15-8.36c-0.68-1.43-1.84-0.81,0.84-0.86
		c2.69-0.05,2.84-0.96,5.17-0.4c2.33,0.56,5.56,4.04,5.78,5.48C69.21,66.3,70.91,69.86,70.91,69.86"/>
	<path class="st8" d="M56.89,56.76c0.7,0,1.48,0.57,4.86,0.62c3.38,0.05,6.04-0.31,6.63-2.89c0.59-2.58-0.24-3.09,1.21-4.79
		l1.45-1.7c0,0-2.91-0.09-6.96,0.02c-4.05,0.1-5.95,4.21-6.45,5.94C57.14,55.68,56.89,56.76,56.89,56.76"/>
	<path class="st8" d="M55.06,56.79c0,0-1.56-1.73-4.75-1.74c-3.19-0.02-6.69-1.59-6.69-4.97c0-3.38-1.09-5.24-1.09-5.24
		s-0.07,0.48,2.71,0.26c2.78-0.22,6.73,1.69,7.84,4.45C54.19,52.33,55.06,56.79,55.06,56.79"/>
	<path class="st8" d="M35.88,61.09c0,0,4.11-4.12,5.37-6.91c1.26-2.79,1.61-4.45-0.03-6.44c-1.63-1.98-2.23-3.57-2.23-3.57
		s-2.32,3.45-3.84,4.26c-1.52,0.8-3.2,3.63-2.38,5.3C33.59,55.41,35.88,61.09,35.88,61.09"/>
	<path class="st8" d="M42.31,42.07c0,0.05,2.46,1.07,5.39,1.43c2.93,0.35,4.51,0.33,5.66-1.13c1.15-1.46,1.93-3,2.75-4.7
		c0.82-1.7,0.92-2.39,1.6-2.55c0.67-0.16-0.85,0.59-4.08-0.21c-3.23-0.8-4.77-1.69-6.12-0.63c-1.34,1.05-1.3,3-2.39,4.56
		C44.03,40.4,42.31,42.07,42.31,42.07"/>
	<line class="st9" x1="51.35" y1="50.36" x2="38.69" y2="46.9"/>
	<line class="st9" x1="43.08" y1="66.68" x2="29.48" y2="70.62"/>
	<path class="st9" d="M44.19,79.72c0,0-1.57-8.1-0.99-16.25c0.58-8.15,13.32-16.02,13.32-16.02l8.21-2.44L60.4,32.99"/>
	<path class="st9" d="M47.93,54.32c0,0,0.11,4.59,3.02,4.72c2.91,0.13,18.77,10.09,18.77,10.09"/>
	<path class="st10" d="M44.45,45.09c0.21-1.44,0.96-1.25,0.39-2.14c-0.57-0.89-1.63-1.87-2.57-2.33c-0.95-0.47-4.59-0.15-5.26,0.86
		c-0.67,1.01-1.56,2.08-2,2.09c-0.45,0.02-0.67,0.47-0.65,0.62c0.02,0.15,1.86,3.53,2.28,4.24c0.41,0.71,1.54,0.72,3.09,0.56
		c1.55-0.16,2.53-0.67,3.25-1.42c0.73-0.75,0.89-0.82,1.01-1.24C44.11,45.91,44.45,45.09,44.45,45.09"/>
	<path class="st11" d="M33.06,45.63c0.01,0.2-1.05,4.18-1.62,4.86s-2.73,2.6-4.73,3.32c-2,0.72-5.63,0.16-6.49-0.25
		c-0.86-0.4-1.36-0.1-0.8-0.74c0.56-0.63,2.25-3.47,2.83-4.2c0.58-0.73,1.83-2.22,2.3-2.63c0.47-0.41,1.85-1.28,1.85-1.28l2.91-0.31
		L33.06,45.63z"/>
	<path class="st12" d="M33.52,39.33c-0.06-0.21-2.04-3.66-2.9-4.6c-0.86-0.94-4.94-2.81-6.39-2.68c-1.45,0.13-2.5-0.31-2.75,0.83
		c-0.25,1.13,1.35,3.93,1.96,4.92c0.6,0.99,1.73,3.16,1.73,3.16l2.9,1.9l3.2-0.3l1.84-0.94L33.52,39.33z"/>
	<path class="st13" d="M33.39,43.82c0,0,1.74,0.92,2.46,0.23c0.71-0.69,1.95-1.79,2.82-2.27c0.87-0.48,2.35-1.29,2.82-2.83
		c0.47-1.53,0.44-3.21,0.18-4.24c-0.26-1.03-0.89-2.67-1.65-3.34c-0.76-0.68-0.81-1.23-1.83-0.73c-1.02,0.5-3.57,1.51-4.22,2.67
		c-0.65,1.16-1.2,2.37-1.11,3.33c0.09,0.96-0.3,2.07-0.47,2.57c-0.17,0.51-0.39,0.62-0.57,1.32c-0.18,0.7,0.01,1.72,0.01,1.72
		L33.39,43.82z"/>
	<path class="st14" d="M33.9,44.5c0.14,0.03,1.36-0.19,1.66,0.3c0.3,0.5,1.49,2.33,2.02,2.92c0.53,0.59,1.65,2.07,1.79,3.17
		c0.13,1.11-0.85,4.37-1.46,5.29c-0.61,0.92-1.43,1.9-2.44,1.82c-1.02-0.09-2.22,0.04-3.05-1.34c-0.83-1.38-1.32-2.2-1.44-3.45
		c-0.12-1.25,0.13-1.5,0.26-3.29c0.13-1.79,0.07-1.46,0.03-2.35c-0.04-0.89,0.35-1.95,0.35-1.95L33.9,44.5z"/>
	<g>
		<defs>
			<rect id="SVGID_1_" x="25.59" y="36.69" width="15.29" height="14.2"/>
		</defs>
		<clipPath id="SVGID_2_">
			<use xlink:href="#SVGID_1_"  style="overflow:visible;"/>
		</clipPath>
		<path class="st15" d="M38.18,43.37c0.06-1.35-0.1-1.16-1.04-2.31c-0.94-1.15-0.29-0.84-1.07-1.69c-0.78-0.85-0.31,0.3-2.13-0.67
			c-1.82-0.97-1.32-0.88-2.26-1.35c-0.95-0.47-0.25-0.86-1.53-0.55c-1.28,0.31-1.45-0.54-1.64,0.68c-0.19,1.22,0.12,0.43-0.42,2.83
			c-0.53,2.4,0.59,2.37-0.74,4.05c-1.33,1.68-2.1,1.65-1.61,3.1c0.49,1.45,0.41,2.19,1.6,2.41c1.18,0.21,0.4,0.78,2.27,0.2
			c1.87-0.58,1.27-0.98,2.43-0.26c1.16,0.72-0.26,1.46,1.64,0.88c1.9-0.59,1.59,0.03,2.78-1.43c1.19-1.47,1.77-2.28,1.77-2.28
			l1.67-1.13c0,0,1.03-0.79,0.97-1.45c-0.06-0.66-0.49-0.88-0.49-0.88L38.18,43.37z"/>
	</g>
	<path class="st16" d="M33.83,42.9c0.08-0.01,0.86-0.11,1.35-0.11s0.77,0.22,0.55-0.2c-0.22-0.42-0.78-0.55-1.65-1.06
		c-0.87-0.51-3.17-1.53-3.55-1.38c-0.38,0.15-0.21,0.56-0.53,0.07c-0.32-0.49-0.81-0.93-1.26-0.99c-0.45-0.06-2.41,1.14-2.41,1.14
		s-0.93,0.27-1.17,0.58c-0.24,0.31-0.69,1.46-0.69,1.46l0.13,1.37l0.78,1.6l1.29,1.66l1.81,0.33l0.99-0.34c0,0,0.36,0.39,0.78,0.17
		c0.42-0.22,0.69-0.06,0.69-0.06s0.2,0.49,0.93,0.36c0.74-0.13,1.99-0.72,1.99-0.72l0.93-0.54c0,0,0.56-0.11,0.61-0.35
		c0.04-0.24-0.61-0.08-0.61-0.08s-0.38-0.02-0.71-0.18c-0.33-0.17-0.73-0.22-0.96-0.72c-0.24-0.5-0.49-0.25-0.26-0.82
		C33.08,43.51,33.83,42.9,33.83,42.9"/>
	<path class="st17" d="M33.83,42.9c0.08-0.01,0.86-0.11,1.35-0.11s0.77,0.22,0.55-0.2c-0.22-0.42-0.78-0.55-1.65-1.06
		c-0.87-0.51-3.17-1.53-3.55-1.38c-0.38,0.15-0.21,0.56-0.53,0.07c-0.32-0.49-0.81-0.93-1.26-0.99c-0.45-0.06-2.41,1.14-2.41,1.14
		s-0.93,0.27-1.17,0.58c-0.24,0.31-0.69,1.46-0.69,1.46l0.13,1.37l0.78,1.6l1.29,1.66l1.81,0.33l0.99-0.34c0,0,0.36,0.39,0.78,0.17
		c0.42-0.22,0.69-0.06,0.69-0.06s0.2,0.49,0.93,0.36c0.74-0.13,1.99-0.72,1.99-0.72l0.93-0.54c0,0,0.56-0.11,0.61-0.35
		c0.04-0.24-0.61-0.08-0.61-0.08s-0.38-0.02-0.71-0.18c-0.33-0.17-0.73-0.22-0.96-0.72c-0.24-0.5-0.49-0.25-0.26-0.82
		C33.08,43.51,33.83,42.9,33.83,42.9z"/>
	<path class="st18" d="M34.09,44.9c0.12-0.06,0.57-0.24,0.72-0.42c0.15-0.18-0.12-1.1-0.12-1.1l-0.75-1.22l-0.71-0.29
		c0,0-0.66,0.39-1.12,0.66c-0.46,0.27-0.61,0.05-0.65,0.72s-0.01,0.71,0,1.06c0.01,0.35-0.01,0.45,0.2,0.69
		c0.21,0.24,0.53,0.64,0.53,0.64l0.62,0c0,0,0.42-0.14,0.71-0.3C33.83,45.18,34.09,44.9,34.09,44.9"/>
	<path class="st19" d="M32.25,43.83c0.07-0.22,0.31-0.84,0.31-0.84l-0.52-0.09l-0.13,0.72c0,0-0.44,0.65-0.17,0.92
		c0.27,0.27,0.42,0.68,0.57,0.42C32.48,44.69,32.25,43.83,32.25,43.83"/>
	<path class="st20" d="M31.95,41.64c-0.2-0.19-1.1-0.42-1.1-0.42s-0.69-0.53-1.56-0.53c-0.87,0-0.86,0.25-1.51,0.68
		c-0.65,0.43-1.05,1.03-1.05,1.03l0.02,1.54l0.9,1.15l0.86,1.46l1.25,0.04l1.04,0.13c0,0,0.5-0.04,0.32-0.59
		c-0.18-0.55-0.05-0.65-0.07-1.41c-0.03-0.75,0-0.44,0.1-1.31c0.1-0.87,0.31-0.97,0.31-0.97L31.95,41.64z"/>
	<path class="st10" d="M67.49,51.33c-1.77,0.06-1.71-0.88-2.65,0c-0.94,0.88-1.88,2.36-2.24,3.59c-0.35,1.24,0.82,5.53,2.18,6.12
		c1.35,0.59,2.83,1.41,2.94,1.94c0.12,0.53,0.71,0.71,0.88,0.65c0.18-0.06,3.82-3,4.59-3.65c0.76-0.65,0.53-2,0-3.82
		c-0.53-1.82-1.35-2.88-2.41-3.59c-1.06-0.71-1.18-0.88-1.71-0.94C68.55,51.57,67.49,51.33,67.49,51.33"/>
	<path class="st11" d="M70.61,64.87c0.23-0.06,5.24,0.35,6.18,0.88c0.94,0.53,3.71,2.71,5,4.94c1.29,2.24,1.41,6.71,1.12,7.83
		c-0.29,1.12,0.18,1.65-0.71,1.12c-0.88-0.53-4.65-1.94-5.65-2.47c-1-0.53-3.06-1.71-3.65-2.18c-0.59-0.47-1.94-1.94-1.94-1.94
		l-1-3.41L70.61,64.87z"/>
	<path class="st12" d="M62.96,65.69c-0.24,0.12-3.94,3.24-4.88,4.47c-0.94,1.24-2.3,6.53-1.82,8.24c0.47,1.71,0.18,3.06,1.59,3.12
		c1.41,0.06,4.41-2.47,5.47-3.41c1.06-0.94,3.41-2.77,3.41-2.77l1.65-3.88l-1.06-3.77l-1.53-2H62.96z"/>
	<path class="st13" d="M68.38,64.86c0,0,0.72-2.29-0.26-3c-0.98-0.71-2.57-1.94-3.33-2.88c-0.77-0.94-2.06-2.53-4-2.77
		c-1.94-0.24-3.94,0.18-5.12,0.71c-1.18,0.53-3,1.65-3.65,2.71c-0.65,1.06-1.29,1.24-0.47,2.35c0.82,1.12,2.59,3.94,4.12,4.47
		c1.53,0.53,3.1,0.93,4.23,0.61c1.13-0.32,2.54-0.1,3.19,0c0.65,0.1,0.82,0.33,1.71,0.39c0.88,0.06,2.05-0.39,2.05-0.39L68.38,64.86
		z"/>
	<path class="st14" d="M69.08,64.1c0-0.18-0.53-1.59,0-2.06c0.53-0.47,2.47-2.3,3.06-3.06c0.59-0.76,2.12-2.43,3.41-2.83
		c1.29-0.4,5.41,0.07,6.65,0.6c1.24,0.53,2.59,1.29,2.71,2.53c0.12,1.24,0.53,2.65-0.94,3.94c-1.47,1.3-2.36,2.06-3.83,2.47
		c-1.47,0.41-1.82,0.18-4,0.41c-2.18,0.24-1.77,0.24-2.83,0.47c-1.06,0.24-2.41,0-2.41,0L69.08,64.1z"/>
	<g>
		<defs>
			<rect id="SVGID_3_" x="60.39" y="55.75" width="16.86" height="17.85"/>
		</defs>
		<clipPath id="SVGID_4_">
			<use xlink:href="#SVGID_3_"  style="overflow:visible;"/>
		</clipPath>
		<path class="st21" d="M66.79,59.23c-1.63,0.23-1.37,0.37-2.54,1.75c-1.17,1.38-0.94,0.53-1.79,1.65c-0.85,1.12,0.42,0.31-0.34,2.7
			c-0.76,2.39-0.76,1.77-1.12,3.01c-0.36,1.24-0.98,0.49-0.32,1.95c0.65,1.46-0.33,1.85,1.17,1.82c1.5-0.03,0.49-0.24,3.48-0.12
			c2.99,0.12,2.71-1.22,5.01,0c2.31,1.22,2.44,2.16,4.06,1.25c1.63-0.91,2.54-0.97,2.54-2.44c0-1.46,0.85-0.65-0.26-2.76
			c-1.11-2.11-1.46-1.31-0.84-2.85c0.61-1.54,1.81-0.01,0.69-2.16c-1.12-2.15-0.31-1.92-2.32-3.02c-2.02-1.11-3.12-1.63-3.12-1.63
			l-1.72-1.76c0,0-1.17-1.06-1.95-0.84c-0.78,0.22-0.94,0.77-0.94,0.77L66.79,59.23z"/>
	</g>
	<path class="st16" d="M67.18,64.53c-0.03-0.1-0.32-1.01-0.42-1.59s0.1-0.97-0.36-0.62c-0.46,0.36-0.49,1.06-0.91,2.21
		c-0.42,1.16-1.14,4.13-0.88,4.55c0.26,0.42,0.72,0.13,0.2,0.62c-0.52,0.49-0.94,1.17-0.91,1.72c0.03,0.55,1.89,2.63,1.89,2.63
		s0.53,1.06,0.95,1.28c0.42,0.22,1.9,0.51,1.9,0.51l1.61-0.46l1.74-1.29l1.71-1.9v-2.24l-0.62-1.11c0,0,0.39-0.52,0.03-0.98
		c-0.36-0.45-0.23-0.82-0.23-0.82s0.55-0.35,0.23-1.2c-0.32-0.85-1.3-2.23-1.3-2.23l-0.85-0.99c0,0-0.26-0.65-0.55-0.65
		c-0.29,0,0.03,0.75,0.03,0.75s0.06,0.46-0.07,0.9c-0.13,0.44-0.11,0.92-0.66,1.31c-0.55,0.39-0.2,0.64-0.92,0.49
		C68.07,65.3,67.18,64.53,67.18,64.53"/>
	<path class="st22" d="M67.18,64.53c-0.03-0.1-0.32-1.01-0.42-1.59s0.1-0.97-0.36-0.62c-0.46,0.36-0.49,1.06-0.91,2.21
		c-0.42,1.16-1.14,4.13-0.88,4.55c0.26,0.42,0.72,0.13,0.2,0.62c-0.52,0.49-0.94,1.17-0.91,1.72c0.03,0.55,1.89,2.63,1.89,2.63
		s0.53,1.06,0.95,1.28c0.42,0.22,1.9,0.51,1.9,0.51l1.61-0.46l1.74-1.29l1.71-1.9v-2.24l-0.62-1.11c0,0,0.39-0.52,0.03-0.98
		c-0.36-0.45-0.23-0.82-0.23-0.82s0.55-0.35,0.23-1.2c-0.32-0.85-1.3-2.23-1.3-2.23l-0.85-0.99c0,0-0.26-0.65-0.55-0.65
		c-0.29,0,0.03,0.75,0.03,0.75s0.06,0.46-0.07,0.9c-0.13,0.44-0.11,0.92-0.66,1.31c-0.55,0.39-0.2,0.64-0.92,0.49
		C68.07,65.3,67.18,64.53,67.18,64.53z"/>
	<path class="st18" d="M69.52,63.79c-0.1-0.13-0.41-0.63-0.66-0.77c-0.25-0.14-1.29,0.39-1.29,0.39l-1.3,1.17l-0.19,0.91
		c0,0,0.61,0.71,1.04,1.2c0.43,0.49,0.19,0.72,1.01,0.62c0.82-0.1,0.85-0.14,1.27-0.23c0.42-0.09,0.55-0.08,0.78-0.39
		c0.23-0.31,0.65-0.78,0.65-0.78l-0.13-0.75c0,0-0.26-0.47-0.52-0.79C69.91,64.05,69.52,63.79,69.52,63.79"/>
	<path class="st19" d="M68.63,66.22c-0.28-0.03-1.08-0.19-1.08-0.19v0.64h0.89c0,0,0.88,0.39,1.14,0c0.26-0.39,0.72-0.65,0.38-0.78
		C69.62,65.77,68.63,66.22,68.63,66.22"/>
	<path class="st20" d="M66.08,67.07c-0.18,0.28-0.26,1.4-0.26,1.4s-0.49,0.94-0.29,1.98c0.19,1.04,0.49,0.98,1.14,1.66
		c0.65,0.68,1.46,1.04,1.46,1.04l1.85-0.36l1.18-1.33l1.56-1.35l-0.23-1.51l-0.06-1.28c0,0-0.16-0.59-0.78-0.26
		c-0.62,0.33-0.77,0.2-1.67,0.4c-0.9,0.2-0.53,0.1-1.59,0.16c-1.06,0.07-1.23-0.16-1.23-0.16L66.08,67.07z"/>
	<path class="st10" d="M45.21,63.2c-1.31-1.18-0.61-1.82-1.9-1.84c-1.29-0.02-2.99,0.38-4.1,1.03c-1.11,0.64-3.25,4.55-2.69,5.91
		c0.56,1.36,1.05,2.98,0.77,3.44c-0.28,0.46,0.02,1,0.19,1.08c0.17,0.08,4.84,0.5,5.84,0.57c1,0.07,1.77-1.07,2.66-2.75
		c0.89-1.68,1.03-3.01,0.76-4.26c-0.27-1.24-0.23-1.45-0.57-1.86C45.81,64.1,45.21,63.2,45.21,63.2"/>
	<path class="st11" d="M38.05,75.1c0.21,0.12,3.52,3.89,3.83,4.93s0.79,4.52,0.16,7.03c-0.62,2.51-3.65,5.81-4.63,6.41
		c-0.99,0.6-1.02,1.31-1.28,0.31c-0.27-0.99-1.99-4.63-2.35-5.7c-0.35-1.08-1.01-3.35-1.11-4.1c-0.1-0.75-0.05-2.75-0.05-2.75
		l1.65-3.15L38.05,75.1z"/>
	<path class="st12" d="M31.97,70.38c-0.25-0.08-5.08-0.41-6.62-0.18c-1.54,0.24-6.19,3.1-7.04,4.66c-0.85,1.55-2,2.32-1.02,3.35
		c0.97,1.02,4.89,1.29,6.31,1.35c1.42,0.06,4.38,0.38,4.38,0.38l3.88-1.65l1.86-3.44l0.29-2.5L31.97,70.38z"/>
	<path class="st13" d="M36.44,73.54c0,0,2.11-1.15,1.9-2.33s-0.5-3.18-0.39-4.39c0.1-1.21,0.28-3.25-0.96-4.77
		c-1.23-1.52-2.96-2.61-4.17-3.05c-1.22-0.44-3.3-0.9-4.5-0.59c-1.2,0.31-1.79-0.01-1.97,1.37c-0.18,1.38-0.88,4.64-0.14,6.08
		c0.73,1.44,1.59,2.82,2.62,3.38c1.03,0.55,1.89,1.69,2.29,2.21c0.4,0.52,0.36,0.81,0.96,1.47c0.59,0.66,1.75,1.15,1.75,1.15
		L36.44,73.54z"/>
	<path class="st14" d="M37.48,73.49c0.12-0.13,0.72-1.51,1.43-1.48c0.71,0.03,3.37,0.07,4.33-0.08c0.95-0.14,3.21-0.28,4.42,0.33
		c1.21,0.61,3.85,3.81,4.37,5.05c0.52,1.24,0.96,2.73,0.19,3.7c-0.78,0.97-1.46,2.27-3.42,2.18c-1.96-0.09-3.12-0.15-4.47-0.88
		c-1.34-0.73-1.44-1.14-3.16-2.48c-1.73-1.34-1.43-1.06-2.36-1.62c-0.92-0.57-1.73-1.68-1.73-1.68L37.48,73.49z"/>
	<g>
		<defs>
			<rect id="SVGID_5_" x="26.21" y="66.14" width="18.14" height="18.21"/>
		</defs>
		<clipPath id="SVGID_6_">
			<use xlink:href="#SVGID_5_"  style="overflow:visible;"/>
		</clipPath>
		<path class="st23" d="M39.22,68.39c-1.33-0.97-1.24-0.68-3.04-0.51c-1.8,0.17-1.05-0.27-2.44-0.06c-1.39,0.22,0.09,0.52-2.12,1.71
			c-2.21,1.19-1.78,0.74-2.9,1.38c-1.12,0.64-1.04-0.33-1.59,1.18c-0.55,1.5-1.53,1.1-0.43,2.12c1.1,1.02,0.52,0.17,2.59,2.33
			c2.07,2.16,2.8,1,3.61,3.48c0.81,2.48,0.25,3.25,2.05,3.72c1.8,0.48,2.5,1.06,3.52,0.01c1.02-1.05,1.06,0.12,1.73-2.17
			c0.67-2.29-0.14-1.95,1.37-2.63c1.51-0.68,1.31,1.25,2-1.07c0.69-2.32,1.11-1.59,0.43-3.79c-0.68-2.2-1.12-3.34-1.12-3.34
			l-0.02-2.46c0,0-0.11-1.58-0.82-1.96c-0.72-0.38-1.22-0.1-1.22-0.1L39.22,68.39z"/>
	</g>
	<path class="st16" d="M35.81,72.48c0.04-0.09,0.47-0.95,0.8-1.44c0.34-0.49,0.75-0.63,0.17-0.69c-0.58-0.06-1.08,0.42-2.19,0.96
		c-1.11,0.54-3.69,2.18-3.8,2.66c-0.11,0.48,0.42,0.59-0.29,0.58c-0.71-0.01-1.49,0.19-1.85,0.61c-0.36,0.42-0.47,3.21-0.47,3.21
		s-0.36,1.13-0.21,1.58c0.15,0.45,1.01,1.69,1.01,1.69l1.47,0.79l2.15,0.28l2.55-0.18l1.56-1.61l0.32-1.23c0,0,0.64-0.1,0.7-0.68
		c0.06-0.58,0.41-0.75,0.41-0.75s0.63,0.13,1-0.7c0.36-0.83,0.61-2.51,0.61-2.51l0.08-1.3c0,0,0.27-0.65,0.05-0.85
		c-0.21-0.2-0.5,0.56-0.5,0.56s-0.27,0.38-0.67,0.6c-0.4,0.22-0.72,0.59-1.38,0.49c-0.67-0.1-0.59,0.32-1-0.29
		C35.92,73.64,35.81,72.48,35.81,72.48"/>
	<path class="st22" d="M35.81,72.48c0.04-0.09,0.47-0.95,0.8-1.44c0.34-0.49,0.75-0.63,0.17-0.69c-0.58-0.06-1.08,0.42-2.19,0.96
		c-1.11,0.54-3.69,2.18-3.8,2.66c-0.11,0.48,0.42,0.59-0.29,0.58c-0.71-0.01-1.49,0.19-1.85,0.61c-0.36,0.42-0.47,3.21-0.47,3.21
		s-0.36,1.13-0.21,1.58c0.15,0.45,1.01,1.69,1.01,1.69l1.47,0.79l2.15,0.28l2.55-0.18l1.56-1.61l0.32-1.23c0,0,0.64-0.1,0.7-0.68
		c0.06-0.58,0.41-0.75,0.41-0.75s0.63,0.13,1-0.7c0.36-0.83,0.61-2.51,0.61-2.51l0.08-1.3c0,0,0.27-0.65,0.05-0.85
		c-0.21-0.2-0.5,0.56-0.5,0.56s-0.27,0.38-0.67,0.6c-0.4,0.22-0.72,0.59-1.38,0.49c-0.67-0.1-0.59,0.32-1-0.29
		C35.92,73.64,35.81,72.48,35.81,72.48z"/>
	<path class="st18" d="M38.01,73.57c0.02-0.16,0.14-0.74,0.06-1.01c-0.08-0.28-1.2-0.62-1.2-0.62l-1.75-0.06l-0.77,0.52
		c0,0-0.06,0.93-0.09,1.58c-0.03,0.65-0.36,0.65,0.29,1.15c0.66,0.5,0.71,0.49,1.08,0.72c0.37,0.23,0.45,0.32,0.83,0.26
		c0.38-0.06,1.01-0.11,1.01-0.11l0.42-0.63c0,0,0.14-0.51,0.17-0.93C38.11,74.02,38.01,73.57,38.01,73.57"/>
	<path class="st19" d="M35.68,74.7c-0.18-0.22-0.65-0.88-0.65-0.88l-0.44,0.46l0.64,0.62c0,0,0.36,0.89,0.82,0.79
		c0.46-0.1,0.97,0.04,0.81-0.3C36.71,75.06,35.68,74.7,35.68,74.7"/>
	<path class="st20" d="M33.26,73.53c-0.33,0.07-1.16,0.83-1.16,0.83s-1.01,0.34-1.59,1.22c-0.58,0.88-0.33,1.04-0.33,1.98
		c-0.01,0.94,0.33,1.76,0.33,1.76l1.58,1.03l1.78-0.14l2.06,0.11l0.89-1.24l0.84-0.97c0,0,0.29-0.53-0.38-0.73
		c-0.67-0.19-0.7-0.39-1.48-0.88c-0.78-0.48-0.45-0.3-1.26-0.99c-0.81-0.69-0.77-0.97-0.77-0.97L33.26,73.53z"/>
	<path class="st10" d="M70.33,48.36c1.64-0.57,1.86,0.33,2.49-0.77c0.63-1.1,1.09-2.76,1.06-4.03c-0.03-1.27-2.38-4.96-3.83-5.13
		c-1.44-0.16-3.07-0.51-3.33-0.97C66.46,37,65.85,37,65.7,37.11c-0.15,0.11-2.73,3.94-3.26,4.77c-0.53,0.83,0.08,2.04,1.11,3.6
		c1.03,1.56,2.11,2.32,3.31,2.68c1.2,0.36,1.36,0.49,1.88,0.39C69.27,48.44,70.33,48.36,70.33,48.36"/>
	<path class="st11" d="M63.46,36.53c-0.21,0.12-5.03,1.19-6.07,0.97c-1.04-0.23-4.28-1.47-6.14-3.2c-1.87-1.73-3.28-5.9-3.33-7.04
		c-0.05-1.14-0.65-1.5,0.34-1.26c0.98,0.24,4.94,0.48,6.04,0.68c1.09,0.21,3.37,0.72,4.07,0.99c0.69,0.27,2.39,1.26,2.39,1.26
		l1.93,2.92L63.46,36.53z"/>
	<path class="st12" d="M70.42,33.53c0.19-0.18,2.77-4.19,3.3-5.63c0.53-1.44,0.26-6.81-0.68-8.28c-0.94-1.47-1.06-2.83-2.4-2.47
		c-1.35,0.36-3.44,3.61-4.16,4.8c-0.72,1.19-2.41,3.59-2.41,3.59l-0.42,4.13l2.09,3.24l2.02,1.44L70.42,33.53z"/>
	<path class="st13" d="M65.57,35.88c0,0-0.01,2.36,1.11,2.74c1.12,0.38,2.98,1.08,3.97,1.74c0.99,0.66,2.67,1.78,4.57,1.44
		c1.9-0.34,3.66-1.31,4.61-2.15c0.95-0.84,2.34-2.42,2.65-3.61c0.3-1.18,0.86-1.54-0.24-2.35c-1.1-0.81-3.58-2.96-5.18-3.01
		c-1.59-0.05-3.19,0.03-4.16,0.66c-0.97,0.63-2.36,0.83-3,0.93c-0.64,0.1-0.87-0.07-1.72,0.13c-0.85,0.2-1.82,0.96-1.82,0.96
		L65.57,35.88z"/>
	<path class="st14" d="M65.12,36.8c0.05,0.17,0.96,1.34,0.6,1.94c-0.36,0.6-1.66,2.88-1.99,3.77c-0.33,0.89-1.29,2.9-2.39,3.66
		c-1.1,0.76-5.11,1.51-6.43,1.37c-1.32-0.14-2.81-0.47-3.28-1.59c-0.47-1.13-1.27-2.34-0.26-3.98c1.01-1.65,1.62-2.62,2.88-3.44
		c1.26-0.82,1.67-0.7,3.65-1.55c1.98-0.86,1.59-0.74,2.52-1.26c0.93-0.53,2.27-0.7,2.27-0.7L65.12,36.8z"/>
	<g>
		<defs>
			<rect id="SVGID_7_" x="55.67" y="27.01" width="16.24" height="17.28"/>
		</defs>
		<clipPath id="SVGID_8_">
			<use xlink:href="#SVGID_7_"  style="overflow:visible;"/>
		</clipPath>
		<path class="st24" d="M68.69,40.72c1.46-0.69,1.18-0.75,1.88-2.38c0.7-1.63,0.73-0.77,1.2-2.07c0.47-1.3-0.49-0.17-0.46-2.64
			c0.02-2.47,0.21-1.89,0.18-3.15c-0.02-1.27,0.78-0.74-0.26-1.93C70.2,27.35,71,26.7,69.6,27.16c-1.4,0.47-0.39,0.36-3.24,1.12
			c-2.85,0.76-2.19,1.94-4.72,1.46c-2.53-0.48-2.92-1.32-4.19,0c-1.27,1.33-2.1,1.65-1.68,3.03c0.43,1.38-0.61,0.86,1.05,2.53
			c1.65,1.67,1.75,0.81,1.62,2.44c-0.13,1.63-1.7,0.54-0.02,2.23c1.68,1.69,0.85,1.72,3.07,2.17c2.22,0.45,3.41,0.62,3.41,0.62
			l2.13,1.15c0,0,1.41,0.66,2.08,0.22c0.67-0.44,0.66-1,0.66-1L68.69,40.72z"/>
	</g>
	<path class="st16" d="M66.79,35.84c0.06,0.08,0.6,0.85,0.86,1.38c0.26,0.52,0.19,0.95,0.52,0.48c0.32-0.47,0.15-1.13,0.21-2.35
		c0.06-1.21-0.13-4.22-0.5-4.54c-0.37-0.32-0.71,0.09-0.36-0.53c0.35-0.61,0.55-1.38,0.36-1.89c-0.19-0.51-2.54-1.93-2.54-1.93
		s-0.8-0.84-1.26-0.93c-0.46-0.08-1.94,0.07-1.94,0.07l-1.38,0.9l-1.26,1.72l-1.06,2.29l0.65,2.11l0.91,0.86c0,0-0.22,0.6,0.25,0.93
		c0.47,0.32,0.45,0.7,0.45,0.7s-0.41,0.48,0.13,1.19c0.55,0.71,1.87,1.72,1.87,1.72l1.08,0.69c0,0,0.43,0.54,0.71,0.45
		c0.28-0.09-0.25-0.69-0.25-0.69s-0.19-0.41-0.2-0.86c0-0.45-0.17-0.9,0.24-1.43c0.4-0.53,0-0.66,0.72-0.73
		C65.73,35.38,66.79,35.84,66.79,35.84"/>
	<path class="st25" d="M66.79,35.84c0.06,0.08,0.6,0.85,0.86,1.38c0.26,0.52,0.19,0.95,0.52,0.48c0.32-0.47,0.15-1.13,0.21-2.35
		c0.06-1.21-0.13-4.22-0.5-4.54c-0.37-0.32-0.71,0.09-0.36-0.53c0.35-0.61,0.55-1.38,0.36-1.89c-0.19-0.51-2.54-1.93-2.54-1.93
		s-0.8-0.84-1.26-0.93c-0.46-0.08-1.94,0.07-1.94,0.07l-1.38,0.9l-1.26,1.72l-1.06,2.29l0.65,2.11l0.91,0.86c0,0-0.22,0.6,0.25,0.93
		c0.47,0.32,0.45,0.7,0.45,0.7s-0.41,0.48,0.13,1.19c0.55,0.71,1.87,1.72,1.87,1.72l1.08,0.69c0,0,0.43,0.54,0.71,0.45
		c0.28-0.09-0.25-0.69-0.25-0.69s-0.19-0.41-0.2-0.86c0-0.45-0.17-0.9,0.24-1.43c0.4-0.53,0-0.66,0.72-0.73
		C65.73,35.38,66.79,35.84,66.79,35.84z"/>
	<path class="st18" d="M64.8,37.23c0.13,0.1,0.57,0.47,0.85,0.53c0.28,0.06,1.1-0.74,1.1-0.74l0.88-1.48l-0.08-0.91
		c0,0-0.78-0.49-1.32-0.83c-0.55-0.34-0.39-0.62-1.13-0.29c-0.74,0.33-0.76,0.38-1.13,0.59c-0.37,0.21-0.49,0.24-0.62,0.59
		c-0.13,0.36-0.39,0.92-0.39,0.92l0.34,0.66c0,0,0.38,0.37,0.72,0.59C64.36,37.09,64.8,37.23,64.8,37.23"/>
	<path class="st19" d="M64.93,34.67C65.2,34.62,66,34.53,66,34.53l-0.19-0.6l-0.84,0.26c0,0-0.94-0.11-1.07,0.33
		c-0.13,0.44-0.49,0.82-0.13,0.84C64.13,35.39,64.93,34.67,64.93,34.67"/>
	<path class="st20" d="M67.09,33.14c0.09-0.32-0.16-1.4-0.16-1.4s0.18-1.03-0.3-1.95c-0.49-0.92-0.74-0.78-1.55-1.23
		C64.26,28.11,63.4,28,63.4,28l-1.63,0.87l-0.73,1.6l-1.08,1.73l0.65,1.35l0.43,1.18c0,0,0.32,0.5,0.81,0.01
		c0.49-0.49,0.67-0.41,1.46-0.86c0.79-0.45,0.47-0.24,1.45-0.62c0.98-0.37,1.21-0.21,1.21-0.21L67.09,33.14z"/>
</g>
</svg>
