<svg xmlns="http://www.w3.org/2000/svg" version="1.1" xmlns:xlink="http://www.w3.org/1999/xlink" xmlns:svgjs="http://svgjs.dev/svgjs" viewBox="0 0 108 108" style="" x="0" y="0"><style type="text/css">
	.st0{fill:#ECBB36;}
	.st1{fill:#568043;}
	.st2{fill:#DABC31;}
	.st3{fill:#7B9941;}
	.st4{fill:#F3EB31;}
	.st5{fill:#627D32;}
	.st6{fill:#C4BE42;}
	.st7{fill:#EECC36;}
	.st8{fill:#ABA635;}
	.st9{fill:#CBAF3F;}
	.st10{fill:#74B843;}
	.st11{fill:#E0C032;}
	.st12{fill:#79A441;}
	.st13{fill:#648033;}
	.st14{fill:#D0B32F;}
	.st15{fill:#78A152;}
	.st16{fill:#7E833D;}
	.st17{fill:#FFD32D;}
	.st18{fill:#618D4B;}
	.st19{fill:#8AA348;}
	.st20{fill:#667C47;}
	.st21{fill:#567F42;}
</style><g><g>
	<path class="st0" d="M70.5,44.9c0-1.4,0.7-2.6,1.2-3.7l1.7-3.5c3.4-7,7.4-13.8,12.1-20c0,0,0.1,0,0.1,0
		c-3.9,6.7-7.5,13.6-10.6,20.7c0,0-1.6,3.6-1.6,3.6c-0.5,1.2-0.9,2.4-2,3.4L70.5,44.9L70.5,44.9z"></path>
</g><g>
	<path class="st1" d="M50.2,96.1c5.7-17.5,12.7-34.5,20.2-51.2c0,0,0.9,0.4,0.9,0.4c-5.3,12.7-10,25.6-14.3,38.6
		c-1.4,4.3-2.8,8.7-4,13.1L50.2,96.1L50.2,96.1z"></path>
</g><g>
	<path class="st2" d="M60.5,36.1c-0.3-1.4,0.1-2.6,0.4-3.9l0.9-3.8c1.7-7.6,4.2-15,7.3-22.1c0,0,0.1,0,0.1,0
		c-2.3,7.4-4.3,14.8-5.7,22.4c0,0-0.7,3.8-0.7,3.8c-0.2,1.3-0.4,2.5-1.2,3.7L60.5,36.1L60.5,36.1z"></path>
</g><g>
	<path class="st3" d="M52.2,90.4c1.6-18.3,4.7-36.3,8.3-54.3c0,0,1,0.2,1,0.2c-2.3,13.5-4.1,27-5.4,40.6c-0.4,4.5-0.8,9.1-1,13.6
		L52.2,90.4L52.2,90.4z"></path>
</g><g>
	<path class="st4" d="M53.7,42c-0.3-1.4,0-2.6,0.2-3.9l0.8-3.8c1.5-7.6,3.8-15.1,6.7-22.3c0,0,0.1,0,0.1,0
		c-2.1,7.4-3.9,14.9-5.1,22.6c0,0-0.6,3.8-0.6,3.8c-0.2,1.3-0.3,2.6-1.1,3.7L53.7,42L53.7,42z"></path>
</g><g>
	<path class="st5" d="M46.8,96.5c1.1-18.3,3.7-36.4,6.8-54.5c0,0,1,0.2,1,0.2c-2,13.5-3.3,27.1-4.3,40.8c-0.3,4.5-0.6,9.1-0.6,13.6
		L46.8,96.5L46.8,96.5z"></path>
</g><g>
	<path class="st6" d="M56.5,40.9c-0.2-1.4,0.1-2.6,0.4-3.9l1-3.8c1.9-7.5,4.5-14.9,7.8-21.9c0,0,0.1,0,0.1,0
		c-2.5,7.3-4.7,14.7-6.3,22.3c0,0-0.8,3.8-0.8,3.8c-0.3,1.3-0.4,2.5-1.3,3.7L56.5,40.9L56.5,40.9z"></path>
</g><g>
	<path class="st3" d="M46.8,95c2.1-18.2,5.5-36.2,9.7-54.1c0,0,1,0.2,1,0.2c-2.7,13.4-4.7,26.9-6.4,40.5c-0.5,4.5-1,9.1-1.3,13.5
		L46.8,95L46.8,95z"></path>
</g><g>
	<path class="st7" d="M60.4,41.1c-0.2-1.4,0.2-2.6,0.5-3.9l1.1-3.7c2.1-7.5,4.9-14.8,8.4-21.7c0,0,0.1,0,0.1,0
		c-2.7,7.3-5,14.6-6.8,22.1c0,0-0.9,3.8-0.9,3.8c-0.3,1.3-0.5,2.5-1.3,3.6L60.4,41.1L60.4,41.1z"></path>
</g><g>
	<path class="st3" d="M49.5,94.9c2.5-18.2,6.4-36.1,11-53.8c0,0,1,0.2,1,0.2c-3,13.3-5.4,26.8-7.4,40.4c-0.6,4.5-1.3,9-1.6,13.5
		L49.5,94.9L49.5,94.9z"></path>
</g><g>
	<path class="st7" d="M66.7,42.8c-0.2-1.4,0.3-2.6,0.6-3.9l1.2-3.7c2.3-7.4,5.2-14.7,8.9-21.5c0,0,0.1,0,0.1,0
		c-2.9,7.2-5.4,14.5-7.3,22c0,0-1,3.7-1,3.7c-0.3,1.2-0.6,2.5-1.4,3.6L66.7,42.8L66.7,42.8z"></path>
</g><g>
	<path class="st8" d="M54.4,96.4c2.9-18.1,7.3-35.9,12.3-53.6c0,0,1,0.3,1,0.3c-3.3,13.3-6,26.7-8.3,40.2c-0.7,4.5-1.5,9-2,13.5
		L54.4,96.4L54.4,96.4z"></path>
</g><g>
	<path class="st9" d="M64.5,43c-0.1-1.4,0.3-2.6,0.7-3.8l1.3-3.7c2.5-7.4,5.6-14.5,9.4-21.3c0,0,0.1,0,0.1,0
		c-3,7.1-5.7,14.3-7.9,21.8c0,0-1.1,3.7-1.1,3.7c-0.4,1.2-0.6,2.5-1.5,3.6L64.5,43L64.5,43z"></path>
</g><g>
	<path class="st10" d="M50.9,96.2c3.4-18,8.2-35.7,13.5-53.3c0,0,1,0.3,1,0.3c-3.6,13.2-6.7,26.6-9.3,40c-0.9,4.5-1.7,9-2.3,13.4
		L50.9,96.2L50.9,96.2z"></path>
</g><g>
	<path class="st11" d="M62.1,41.9c-0.1-1.4,0.4-2.6,0.8-3.8l1.3-3.7c2.6-7.3,6-14.4,9.9-21.1c0,0,0.1,0,0.1,0
		c-3.2,7.1-6.1,14.2-8.4,21.6c0,0-1.2,3.7-1.2,3.7c-0.4,1.2-0.7,2.5-1.6,3.5L62.1,41.9L62.1,41.9z"></path>
</g><g>
	<path class="st12" d="M47.2,94.8c3.8-18,9-35.5,14.8-53c0,0,1,0.3,1,0.3c-3.9,13.1-7.3,26.4-10.3,39.8c-1,4.4-1.9,8.9-2.6,13.4
		L47.2,94.8L47.2,94.8z"></path>
</g><g>
	<path class="st11" d="M58,41.7c-0.1-1.4,0.4-2.6,0.8-3.8l1.3-3.7c2.6-7.3,6-14.4,9.9-21.1c0,0,0.1,0,0.1,0
		c-3.2,7.1-6.1,14.2-8.4,21.6c0,0-1.2,3.7-1.2,3.7c-0.4,1.2-0.7,2.5-1.6,3.5L58,41.7L58,41.7z"></path>
</g><g>
	<path class="st12" d="M43.1,94.6c3.8-18,9-35.5,14.8-53c0,0,1,0.3,1,0.3C55,55.1,51.6,68.4,48.7,81.8c-1,4.4-1.9,8.9-2.6,13.4
		L43.1,94.6L43.1,94.6z"></path>
</g><g>
	<path class="st7" d="M66.6,42.7c0-1.4,0.6-2.6,1.1-3.8l1.6-3.5c3.2-7.1,7.1-13.9,11.6-20.3c0,0,0.1,0,0.1,0
		c-3.8,6.8-7.2,13.7-10.1,20.9c0,0-1.5,3.6-1.5,3.6c-0.5,1.2-0.9,2.4-1.9,3.4L66.6,42.7L66.6,42.7z"></path>
</g><g>
	<path class="st3" d="M47.6,94.4c5.2-17.6,11.8-34.8,19-51.7c0,0,0.9,0.4,0.9,0.4c-5,12.8-9.4,25.8-13.4,38.9
		c-1.3,4.4-2.6,8.8-3.7,13.1L47.6,94.4L47.6,94.4z"></path>
</g><g>
	<path class="st7" d="M68,43.1c0-1.4,0.5-2.6,1-3.8l1.5-3.6c3-7.2,6.6-14.1,10.9-20.6c0,0,0.1,0,0.1,0C78,22,74.8,29.1,72.1,36.4
		c0,0-1.4,3.6-1.4,3.6c-0.4,1.2-0.8,2.5-1.8,3.5L68,43.1L68,43.1z"></path>
</g><g>
	<path class="st13" d="M50.6,95.3C55.3,77.5,61.4,60.2,68,43.1c0,0,1,0.4,1,0.4c-4.6,12.9-8.6,26-12.2,39.3
		c-1.2,4.4-2.3,8.8-3.3,13.2L50.6,95.3L50.6,95.3z"></path>
</g><g>
	<path class="st14" d="M73.8,45.2c-0.1-1.3,0.3-2.4,0.7-3.5c1.3-3.3,2.7-6.6,4.3-9.8c2.1-4.2,4.7-8.5,7.6-12c0,0,1.5-2.3,1.5-2.3
		l0.1,0c0,0-1.2,2.4-1.2,2.5c-3.9,5.9-6.8,12.4-9.3,19c-1,2.2-1.2,4.6-2.7,6.5C74.8,45.5,73.8,45.2,73.8,45.2L73.8,45.2z"></path>
</g><g>
	<path class="st3" d="M55.2,97c5.1-17.7,11.6-34.8,18.6-51.8c0,0,0.9,0.4,0.9,0.4c-4.9,12.8-9.2,25.8-13.1,39
		c-1.3,4.4-2.6,8.8-3.6,13.2L55.2,97L55.2,97z"></path>
</g><g>
	<path class="st7" d="M64.2,37.7c-0.2-1.4,0.2-2.6,0.6-3.9l1.1-3.7c2.1-7.5,4.9-14.8,8.5-21.7c0,0,0.1,0,0.1,0
		c-2.7,7.3-5.1,14.6-6.9,22.1c0,0-0.9,3.8-0.9,3.8c-0.3,1.3-0.5,2.5-1.4,3.6L64.2,37.7L64.2,37.7z"></path>
</g><g>
	<path class="st15" d="M53,91.4c2.6-18.2,6.6-36,11.2-53.8c0,0,1,0.2,1,0.2c-3,13.3-5.5,26.8-7.5,40.3c-0.7,4.5-1.3,9-1.7,13.5
		L53,91.4L53,91.4z"></path>
</g><g>
	<path class="st7" d="M71.1,42.3c0-1.4,0.5-2.6,1-3.8l1.5-3.6c3-7.2,6.7-14.1,11.1-20.6c0,0,0.1,0,0.1,0c-3.6,6.9-6.8,13.9-9.6,21.2
		c0,0-1.4,3.6-1.4,3.6c-0.5,1.2-0.8,2.4-1.8,3.5L71.1,42.3L71.1,42.3z"></path>
</g><g>
	<path class="st16" d="M53.4,94.4c4.8-17.8,10.9-35,17.7-52.1c0,0,0.9,0.4,0.9,0.4c-4.6,12.9-8.7,26-12.4,39.2
		c-1.2,4.4-2.4,8.8-3.3,13.2L53.4,94.4L53.4,94.4z"></path>
</g><g>
	<path class="st7" d="M76.6,44.9c0.1-1.4,0.8-2.5,1.4-3.7l1.9-3.4c3.7-6.9,8-13.5,12.9-19.5c0,0,0.1,0,0.1,0
		c-4.2,6.6-8.1,13.3-11.4,20.3c0,0-1.7,3.5-1.7,3.5c-0.6,1.2-1,2.4-2.1,3.3L76.6,44.9L76.6,44.9z"></path>
</g><g>
	<path class="st3" d="M54.2,95.4c6.4-17.3,14.1-34,22.3-50.4c0,0,0.9,0.4,0.9,0.4c-5.8,12.4-11.1,25.1-15.9,38
		C60,87.7,58.4,92,57,96.3L54.2,95.4L54.2,95.4z"></path>
</g><g>
	<path class="st7" d="M77,38.5c0.1-1.4,0.8-2.5,1.5-3.6l1.9-3.4c3.8-6.8,8.3-13.3,13.3-19.2c0,0,0.1,0,0.1,0
		c-4.3,6.5-8.4,13.1-11.9,20c0,0-1.8,3.5-1.8,3.5c-0.6,1.2-1.1,2.3-2.2,3.2L77,38.5L77,38.5z"></path>
</g><g>
	<path class="st3" d="M53.4,88.4C60.2,71.3,68.3,54.8,77,38.5c0,0,0.9,0.5,0.9,0.5C71.8,51.3,66.2,63.9,61,76.6
		c-1.7,4.2-3.4,8.5-4.8,12.8L53.4,88.4L53.4,88.4z"></path>
</g><g>
	<path class="st17" d="M78.3,46.9c0.2-1.4,0.9-2.5,1.6-3.6l2-3.3c4-6.7,8.7-13.1,13.9-18.9c0,0,0.1,0,0.1,0
		c-4.5,6.3-8.7,12.9-12.5,19.7c0,0-1.9,3.4-1.9,3.4c-0.6,1.1-1.2,2.3-2.3,3.2L78.3,46.9L78.3,46.9z"></path>
</g><g>
	<path class="st18" d="M53.4,96.2c7.3-17,15.8-33.3,24.9-49.3c0,0,0.9,0.5,0.9,0.5C72.8,59.6,66.9,72,61.4,84.6
		c-1.8,4.2-3.6,8.4-5.2,12.7L53.4,96.2L53.4,96.2z"></path>
</g><g>
	<path class="st0" d="M38.7,45.1c-0.9-1.1-1.1-2.4-1.5-3.6l-1-3.7c-2-7.5-4.6-14.7-7.6-21.9c0,0,0.1,0,0.1,0
		c3.7,6.8,6.8,14,9.1,21.4c0,0,1.2,3.7,1.2,3.7c0.4,1.2,0.8,2.5,0.7,3.8L38.7,45.1L38.7,45.1z"></path>
</g><g>
	<path class="st1" d="M49.6,98.7c-2.5-18-6.4-35.9-10.9-53.6c0,0,1-0.3,1-0.3C43.6,58,47,71.3,49.9,84.7c1,4.5,1.9,9,2.6,13.5
		L49.6,98.7L49.6,98.7z"></path>
</g><g>
	<path class="st2" d="M51.3,43.8c-0.5-1.1-0.6-2.3-0.6-3.5l-0.2-3.5c-0.1-2.3-0.3-4.7-0.5-7C49.8,24,48.9,18.9,48,13.2
		c0,0,0.1,0,0.1,0l0.6,2.6c2,6.7,2.9,13.9,3.6,20.9c0.1,2.1,0.8,5,0.1,7.1C52.4,43.8,51.3,43.8,51.3,43.8L51.3,43.8z"></path>
</g><g>
	<path class="st3" d="M50,98.4c1.6-18.1,1.8-36.4,1.3-54.5c0,0,1-0.1,1-0.1c0.9,13.7,1.2,27.4,1.1,41.1c-0.1,4.6-0.1,9.1-0.5,13.8
		L50,98.4L50,98.4z"></path>
</g><g>
	<path class="st4" d="M55.7,44.3c-0.5-1.2-0.5-2.3-0.5-3.5l-0.1-3.5c-0.1-2.3-0.1-4.7-0.3-7c-0.2-5.8-0.9-11-1.6-16.7
		c0,0,0.1,0,0.1,0l0.6,2.7c1.8,6.8,2.5,13.9,3,21c0,2.1,0.7,5-0.1,7.1C56.7,44.3,55.7,44.3,55.7,44.3L55.7,44.3z"></path>
</g><g>
	<path class="st5" d="M52.9,98.8c2.1-18,2.8-36.3,2.8-54.5c0,0,1,0,1,0c0.5,13.7,0.4,27.4-0.1,41.1c-0.2,4.6-0.4,9.1-0.9,13.7
		L52.9,98.8L52.9,98.8z"></path>
</g><g>
	<path class="st6" d="M53.1,42.8c-0.6-1.1-0.6-2.3-0.7-3.5l-0.2-3.5c-0.2-2.3-0.4-4.7-0.6-7C51,23.1,50,18,49,12.3c0,0,0.1,0,0.1,0
		l0.7,2.6c2.2,6.7,3.2,13.8,4.1,20.8c0.1,2.1,0.9,5,0.3,7.1C54.1,42.8,53.1,42.8,53.1,42.8L53.1,42.8z"></path>
</g><g>
	<path class="st3" d="M53.1,97.4c1.2-18.1,0.9-36.4,0-54.6c0,0,1-0.1,1-0.1c1.2,13.7,1.9,27.4,2.1,41.1c0,4.6,0.1,9.1-0.1,13.8
		L53.1,97.4L53.1,97.4z"></path>
</g><g>
	<path class="st6" d="M53.4,39.8c-0.7-2,0-5,0.1-7.1c0,0,0.5-7,0.5-7c0.3-4.7,0.7-9.4,0.3-14.1c0,0,0.4-2.5,0.4-2.5c0,0,0.1,0,0.1,0
		l-0.1,2.5l0,0c1.3,6.7,0.7,14.4,0.5,21.2c-0.2,2,0.1,5.1-0.8,7C54.4,39.9,53.4,39.8,53.4,39.8L53.4,39.8z"></path>
</g><g>
	<polygon class="st3" points="50.1,94.2 53.4,39.8 54.4,39.9 53.1,94.2 50.1,94.2 	"></polygon>
</g><g>
	<path class="st7" d="M49.1,42.5c-0.6-1.1-0.7-2.3-0.8-3.5L48,35.6c-0.2-2.3-0.5-4.7-0.8-7c-0.6-5.8-1.8-10.9-2.9-16.5
		c0,0,0.1,0,0.1,0c0,0,0.8,2.6,0.8,2.6c2.4,6.7,3.5,13.7,4.6,20.7c0.2,2.1,1,5,0.4,7.1C50.1,42.4,49.1,42.5,49.1,42.5L49.1,42.5z"></path>
</g><g>
	<path class="st3" d="M50.4,97.1c0.7-18.1,0-36.4-1.3-54.5c0,0,1-0.1,1-0.1c1.6,13.6,2.5,27.3,3.1,41c0.2,4.6,0.3,9.1,0.2,13.8
		L50.4,97.1L50.4,97.1z"></path>
</g><g>
	<path class="st7" d="M42.7,43.4c-0.6-1.1-0.8-2.3-0.9-3.4l-0.4-3.5c-0.3-2.3-0.6-4.6-1-7c-0.8-5.8-2-10.8-3.3-16.4c0,0,0.1,0,0.1,0
		c0,0,0.8,2.6,0.8,2.6c2.5,6.6,3.9,13.6,5.1,20.6c0.2,2.1,1.2,5,0.6,7C43.7,43.3,42.7,43.4,42.7,43.4L42.7,43.4z"></path>
</g><g>
	<path class="st8" d="M45.3,97.9c0.3-18.2-0.9-36.4-2.6-54.5c0,0,1-0.1,1-0.1c1.9,13.6,3.2,27.2,4,40.9c0.3,4.6,0.5,9.1,0.5,13.8
		L45.3,97.9L45.3,97.9z"></path>
</g><g>
	<path class="st9" d="M44.8,43.9c-0.7-1.2-0.8-2.5-1-3.7l-0.6-3.8c-1.1-7.7-2.7-15.2-4.7-22.6c0.9,2.2,1.9,4.8,2.7,7.3
		c1.9,6.1,3.3,12.6,4.4,18.9c0.2,1.3,0.5,2.5,0.2,3.9L44.8,43.9L44.8,43.9z"></path>
</g><g>
	<path class="st10" d="M48.8,98.3c-0.2-18.2-1.7-36.4-3.9-54.4c0,0,1-0.1,1-0.1c2.2,13.5,3.8,27.2,5,40.8c0.4,4.6,0.7,9.1,0.9,13.8
		L48.8,98.3L48.8,98.3z"></path>
</g><g>
	<path class="st11" d="M47.4,43.2c-0.8-1.2-0.9-2.5-1.1-3.7l-0.6-3.8c-1.3-7.6-3.1-15.1-5.3-22.5c0,0,0.1,0,0.1,0
		c3,7.1,5.3,14.6,6.9,22.2c0,0,0.8,3.8,0.8,3.8c0.3,1.3,0.6,2.5,0.3,3.9L47.4,43.2L47.4,43.2z"></path>
</g><g>
	<path class="st12" d="M52.7,97.5c-0.6-18.2-2.6-36.3-5.3-54.3c0,0,1-0.2,1-0.2c2.5,13.5,4.5,27.1,6,40.7c0.5,4.6,1,9.1,1.2,13.7
		L52.7,97.5L52.7,97.5z"></path>
</g><g>
	<path class="st11" d="M49.8,42.8c-0.8-1.2-0.9-2.5-1.1-3.7L48,35.3c-1.3-7.6-3.1-15.1-5.3-22.5c0,0,0.1,0,0.1,0
		c3,7.1,5.3,14.6,6.9,22.2c0,0,0.8,3.8,0.8,3.8c0.3,1.3,0.6,2.5,0.3,3.9L49.8,42.8L49.8,42.8z"></path>
</g><g>
	<path class="st12" d="M55,97.1c-0.6-18.2-2.6-36.3-5.3-54.3c0,0,1-0.2,1-0.2c2.5,13.5,4.5,27.1,6,40.7c0.5,4.6,1,9.1,1.2,13.7
		L55,97.1L55,97.1z"></path>
</g><g>
	<path class="st7" d="M41.3,38.6c-0.8-1.1-1.1-2.4-1.4-3.6L39,31.3c-1.9-7.5-4.3-14.8-7-22.1c0,0,0.1,0,0.1,0
		c3.6,6.9,6.4,14.2,8.6,21.6c0,0,1.1,3.7,1.1,3.7c0.4,1.2,0.8,2.5,0.6,3.9L41.3,38.6L41.3,38.6z"></path>
</g><g>
	<path class="st3" d="M50.8,92.4c-2-18.1-5.5-36.1-9.6-53.8c0,0,1-0.3,1-0.3c3.6,13.2,6.6,26.6,9.2,40.1c0.8,4.5,1.7,9,2.3,13.6
		L50.8,92.4L50.8,92.4z"></path>
</g><g>
	<path class="st7" d="M41.6,47.7c-0.8-1.1-1-2.4-1.3-3.7l-0.8-3.8c-1.6-7.6-3.8-14.9-6.4-22.3c0,0,0.1,0,0.1,0
		c3.3,7,6,14.4,7.9,21.9c0,0,1,3.8,1,3.8c0.3,1.3,0.7,2.5,0.5,3.9L41.6,47.7L41.6,47.7z"></path>
</g><g>
	<path class="st13" d="M49.5,101.7c-1.5-18.1-4.4-36.2-7.9-54c0,0,1-0.2,1-0.2c3.2,13.3,5.8,26.8,8,40.4c0.7,4.5,1.4,9,1.9,13.7
		L49.5,101.7L49.5,101.7z"></path>
</g><g>
	<path class="st14" d="M35.3,44.9c-1.2-2.1-1.1-4.5-1.7-6.8c-1-4.6-2.2-9.1-3.8-13.5C29,22.3,28.1,20.1,27,18l-0.9-2.6l0.1,0
		l1.1,2.5c2.4,3.9,4.3,8.5,5.9,13c1.1,3.4,2.1,6.8,2.9,10.3c0.3,1.2,0.5,2.3,0.2,3.6L35.3,44.9L35.3,44.9z"></path>
</g><g>
	<path class="st3" d="M44.5,98.8c-1.9-18.1-5.2-36.1-9.2-53.8c0,0,1-0.2,1-0.2c3.5,13.3,6.5,26.7,9,40.2c0.8,4.5,1.6,9,2.2,13.6
		L44.5,98.8L44.5,98.8z"></path>
</g><g>
	<path class="st7" d="M44.4,36.8c-0.6-1.1-0.7-2.3-0.8-3.5l-0.3-3.5c-0.2-2.3-0.5-4.7-0.8-7c-0.6-5.8-1.8-10.9-3-16.5
		c0,0,0.1,0,0.1,0c0,0,0.8,2.6,0.8,2.6c2.4,6.7,3.6,13.7,4.6,20.7c0.2,2.1,1.1,5,0.5,7.1C45.4,36.7,44.4,36.8,44.4,36.8L44.4,36.8z"></path>
</g><g>
	<path class="st15" d="M45.9,91.4c0.7-18.1-0.1-36.4-1.5-54.5c0,0,1-0.1,1-0.1C47,50.3,48,64,48.6,77.7c0.2,4.6,0.3,9.1,0.2,13.8
		L45.9,91.4L45.9,91.4z"></path>
</g><g>
	<path class="st7" d="M38.4,42.4c-0.8-1.1-1-2.4-1.3-3.7L36.3,35c-1.7-7.6-3.9-14.9-6.5-22.2c0,0,0.1,0,0.1,0c3.4,7,6.1,14.3,8,21.8
		c0,0,1,3.7,1,3.7c0.3,1.3,0.7,2.5,0.5,3.9L38.4,42.4L38.4,42.4z"></path>
</g><g>
	<path class="st16" d="M46.6,96.4c-1.6-18.1-4.6-36.2-8.2-54c0,0,1-0.2,1-0.2c3.3,13.3,6,26.8,8.2,40.3c0.7,4.5,1.4,9,1.9,13.7
		L46.6,96.4L46.6,96.4z"></path>
</g><g>
	<path class="st7" d="M32.6,44.4c-0.9-1.1-1.2-2.3-1.6-3.5l-1.2-3.7c-2.4-7.4-5.2-14.5-8.5-21.6c0,0,0.1,0,0.1,0
		c4,6.7,7.3,13.7,10,21.1c0,0,1.4,3.6,1.4,3.6c0.4,1.2,0.9,2.4,0.8,3.8L32.6,44.4L32.6,44.4z"></path>
</g><g>
	<path class="st3" d="M45.7,97.5c-3.2-17.9-7.9-35.6-13.1-53.1c0,0,1-0.3,1-0.3c4.5,13,8.4,26.2,11.8,39.5c1.1,4.4,2.3,8.9,3.2,13.4
		L45.7,97.5L45.7,97.5z"></path>
</g><g>
	<path class="st7" d="M37,46.2c-0.9-1-1.3-2.3-1.7-3.5L34,39c-2.5-7.3-5.6-14.4-9-21.4c0,0,0.1,0,0.1,0c4.2,6.6,7.7,13.6,10.5,20.8
		c0,0,1.4,3.6,1.4,3.6c0.5,1.2,1,2.4,0.9,3.8L37,46.2L37,46.2z"></path>
</g><g>
	<path class="st3" d="M51.3,99C47.7,81.1,42.6,63.5,37,46.2c0,0,1-0.3,1-0.3c4.8,12.9,9,26,12.8,39.2c1.3,4.4,2.5,8.8,3.5,13.4
		L51.3,99L51.3,99z"></path>
</g><g>
	<path class="st17" d="M33.1,49.5c-1-1-1.3-2.2-1.8-3.5l-1.4-3.6c-2.7-7.3-6-14.3-9.6-21.2c0,0,0.1,0,0.1,0
		c4.3,6.5,8,13.4,11.1,20.6c0,0,1.5,3.6,1.5,3.6c0.5,1.2,1.1,2.4,1,3.8L33.1,49.5L33.1,49.5z"></path>
</g><g>
	<path class="st18" d="M48.8,101.9c-4.1-17.7-9.7-35.2-15.8-52.4c0,0,0.9-0.4,0.9-0.4c5.1,12.8,9.7,25.7,13.8,38.9
		c1.4,4.4,2.7,8.8,3.9,13.3L48.8,101.9L48.8,101.9z"></path>
</g><g>
	<path class="st0" d="M38.2,53.4c-0.9-0.8-1.4-1.8-1.9-2.8l-1.5-3c-3-6-6.5-11.7-10.2-17.3c1.4,1.6,2.9,3.5,4.2,5.2
		c3.3,4.5,6.2,9.4,8.9,14.3c0.5,1,1.1,1.9,1.2,3.1L38.2,53.4L38.2,53.4z"></path>
</g><g>
	<path class="st1" d="M56.6,96.8C51.4,82,45,67.5,38.2,53.4c0,0,0.8-0.4,0.8-0.4c5.6,10.5,10.7,21.1,15.5,32c1.6,3.6,3.1,7.2,4.5,11
		L56.6,96.8L56.6,96.8z"></path>
</g><g>
	<path class="st14" d="M35.3,53.7c-1.4-1.6-1.7-3.6-2.7-5.5c-1.6-3.7-3.5-7.3-5.5-10.8c-1.5-2.6-3.2-4.6-4.6-7.1c0,0,0,0,0,0
		l1.4,1.9c2.7,2.9,5.1,6.5,7.2,10c1.5,2.7,2.9,5.4,4.2,8.2c0.4,0.9,0.8,1.9,0.8,3L35.3,53.7L35.3,53.7z"></path>
</g><g>
	<path class="st3" d="M52.3,97.7c-4.7-15-10.6-29.6-17-43.9c0,0,0.8-0.4,0.8-0.4c5.2,10.6,10,21.4,14.5,32.4
		c1.5,3.7,2.9,7.3,4.2,11.1L52.3,97.7L52.3,97.7z"></path>
</g><g>
	<path class="st7" d="M37.5,51.2c-0.9-0.8-1.3-1.9-1.7-2.9l-1.4-3c-2.7-6.1-5.9-12-9.3-17.7c0,0,0.1,0,0.1,0
		c4,5.3,7.6,11.1,10.5,17.1c0,0,1.5,3,1.5,3c0.5,1,1,2,1.1,3.2L37.5,51.2L37.5,51.2z"></path>
</g><g>
	<path class="st16" d="M53.7,95.4c-4.4-15-10.1-29.8-16.2-44.2c0,0,0.8-0.4,0.8-0.4c5,10.7,9.6,21.6,13.9,32.7
		c1.4,3.7,2.8,7.4,4,11.2L53.7,95.4L53.7,95.4z"></path>
</g><g>
	<path class="st7" d="M33,53.8C32,53,31.5,52,31,51l-1.6-2.9c-3.3-5.9-6.9-11.4-10.9-16.8c1.4,1.5,3,3.3,4.4,5.1
		c3.5,4.4,6.5,9.2,9.4,13.9c0.6,1,1.2,1.9,1.4,3.1L33,53.8L33,53.8z"></path>
</g><g>
	<path class="st3" d="M53.1,96.4C47.3,81.8,40.4,67.6,33,53.8c0,0,0.8-0.4,0.8-0.4c6,10.2,11.6,20.7,16.8,31.4
		c1.7,3.6,3.4,7.1,5,10.8L53.1,96.4L53.1,96.4z"></path>
</g><g>
	<path class="st7" d="M36.9,54.6c-1-0.7-1.5-1.7-2-2.7L33.2,49c-3.4-5.8-7.2-11.3-11.3-16.6c1.5,1.5,3.1,3.3,4.5,5
		c3.6,4.3,6.8,9,9.8,13.7c0.6,0.9,1.3,1.9,1.4,3.1L36.9,54.6L36.9,54.6z"></path>
</g><g>
	<path class="st3" d="M58.1,96.8C52,82.3,44.7,68.2,36.9,54.6c0,0,0.8-0.4,0.8-0.4c6.2,10.1,12.1,20.4,17.5,31
		c1.8,3.5,3.6,7,5.2,10.7L58.1,96.8L58.1,96.8z"></path>
</g><g>
	<path class="st17" d="M34,59.4c-1-0.7-1.5-1.6-2-2.5l-1.7-2.7c-3.4-5.5-7.3-10.7-11.3-15.8c1.5,1.4,3.1,3.1,4.5,4.7
		c3.6,4.1,6.8,8.6,9.8,13c0.6,0.9,1.3,1.8,1.5,2.9L34,59.4L34,59.4z"></path>
</g><g>
	<path class="st18" d="M55.7,99.8C49.3,85.9,41.9,72.5,34,59.4c0,0,0.7-0.5,0.7-0.5c6.3,9.6,12.2,19.5,17.8,29.6
		c1.9,3.4,3.7,6.7,5.4,10.2L55.7,99.8L55.7,99.8z"></path>
</g><g>
	<path class="st0" d="M70.8,54.3c0.1-1.2,0.7-2.2,1.2-3.1l1.6-2.9c3.3-5.9,7.1-11.5,11.4-16.6c0,0,0,0,0,0C81.4,37.3,78,43,75,48.9
		c0,0-1.5,3-1.5,3c-0.5,1-0.9,2-1.9,2.8L70.8,54.3L70.8,54.3z"></path>
</g><g>
	<path class="st1" d="M50.8,97.3c5.8-14.8,12.6-29,20-43c0,0,0.8,0.4,0.8,0.4c-5.2,10.6-9.9,21.4-14.3,32.4c-1.4,3.7-2.9,7.3-4.1,11
		L50.8,97.3L50.8,97.3z"></path>
</g><g>
	<path class="st14" d="M73.7,54.8c0-1.1,0.4-2.1,0.8-3c1.3-2.8,2.7-5.6,4.2-8.2c2.1-3.5,4.4-7,7.2-10c0,0,1.4-1.9,1.4-1.9l0,0
		c0,0-1.2,2-1.2,2c-3.7,4.9-6.5,10.3-9,15.9c-0.9,1.8-1.3,3.9-2.7,5.5C74.5,55.1,73.7,54.8,73.7,54.8L73.7,54.8z"></path>
</g><g>
	<path class="st3" d="M55,98.3C60.3,83.4,66.8,69,73.7,54.7c0,0,0.8,0.4,0.8,0.4c-4.8,10.8-9.2,21.7-13.3,32.8
		c-1.3,3.7-2.6,7.4-3.7,11.1L55,98.3L55,98.3z"></path>
</g><g>
	<path class="st7" d="M71.5,52.1c0-1.2,0.6-2.2,1.1-3.2l1.5-3c3-6,6.5-11.8,10.5-17.1c0,0,0.1,0,0.1,0c-3.4,5.7-6.6,11.6-9.3,17.7
		c0,0-1.4,3-1.4,3c-0.4,1-0.8,2.1-1.7,2.9L71.5,52.1L71.5,52.1z"></path>
</g><g>
	<path class="st16" d="M53.7,96c5-15,11.2-29.5,17.9-43.9c0,0,0.8,0.4,0.8,0.4c-4.7,10.8-8.8,21.9-12.7,33
		c-1.3,3.7-2.5,7.5-3.5,11.2L53.7,96L53.7,96z"></path>
</g><g>
	<path class="st7" d="M76.1,54.7c0.1-1.2,0.8-2.1,1.4-3.1l1.8-2.9c3.5-5.7,7.5-11.2,12.1-16.1c0,0,0,0,0,0
		c-3.9,5.4-7.6,11-10.9,16.8c0,0-1.6,2.9-1.6,2.9c-0.5,1-1,2-2,2.7L76.1,54.7L76.1,54.7z"></path>
</g><g>
	<path class="st3" d="M54.3,96.9c6.4-14.5,13.8-28.5,21.8-42.2c0,0,0.8,0.4,0.8,0.4c-5.6,10.4-10.8,21-15.6,31.8
		c-1.6,3.6-3.2,7.2-4.5,10.8L54.3,96.9L54.3,96.9z"></path>
</g><g>
	<path class="st7" d="M72.1,55.5c0.2-1.2,0.8-2.1,1.4-3.1l1.8-2.8c3.6-5.7,7.8-11,12.4-15.9c0,0,0,0,0,0
		c-4.1,5.3-7.9,10.8-11.3,16.6c0,0-1.7,2.9-1.7,2.9c-0.6,1-1.1,2-2,2.7L72.1,55.5L72.1,55.5z"></path>
</g><g>
	<path class="st3" d="M49.4,97.1C56.1,82.8,63.9,69,72.1,55.5c0,0,0.8,0.4,0.8,0.4C67,66.2,61.6,76.7,56.5,87.4
		c-1.7,3.6-3.3,7.1-4.8,10.7L49.4,97.1L49.4,97.1z"></path>
</g><g>
	<path class="st17" d="M72.7,62.4c0.3-1.8,2.3-4,3.3-5.5c3.6-5.3,7.8-10.3,12.3-14.9c0,0,0,0,0,0c-4,5-7.8,10.2-11.2,15.6
		c0,0-1.7,2.7-1.7,2.7c-0.6,0.9-1.1,1.9-2,2.5L72.7,62.4L72.7,62.4z"></path>
</g><g>
	<path class="st18" d="M49.8,101.7c6.8-13.6,14.6-26.6,22.9-39.4c0,0,0.7,0.4,0.7,0.4c-5.9,9.7-11.4,19.6-16.5,29.7
		c-1.7,3.4-3.4,6.8-4.9,10.2L49.8,101.7L49.8,101.7z"></path>
</g><g>
	<path class="st19" d="M50.4,100.2C53.8,84.1,62.2,67,78.1,60.4c-3.7,1.9-7,4.4-9.8,7.4c-8.2,8.9-12.4,21.1-13.9,32.9
		C54.4,100.7,50.4,100.2,50.4,100.2L50.4,100.2z"></path>
</g><g>
	<path class="st18" d="M50.4,98.8c5.6-11.6,15-24.3,28.9-25.3c-3.2,0.5-6.3,1.7-9.1,3.4c-8.1,5.4-13.3,14.3-16.6,23.1
		C53.6,100,50.4,98.8,50.4,98.8L50.4,98.8z"></path>
</g><g>
	<path class="st19" d="M52.4,100.5c1-1.8,1.8-4.3,2.8-6.2c3.1-6.5,9.3-11,15.9-13.3c0,0,0,0.1,0,0.1c-2.1,1-4.2,2.1-6,3.5
		c-3.7,2.6-6.7,6.3-8.4,10.5c-1,2.3-1.3,4.3-2.4,6.7C54.4,101.7,52.4,100.5,52.4,100.5L52.4,100.5z"></path>
</g><g>
	<path class="st20" d="M51.6,99.6c2-2.2,3.5-5.3,5.7-7.5c5.6-6.4,14.1-9,22.3-9.8c1.6-0.1,3.2-0.2,4.9-0.3l0,0.1
		c-5.1,0.6-10.3,1.7-15.1,3.9c-5.4,2.4-9.8,6.5-12.5,11.7c-0.8,1.4-1.7,3.3-2.8,4.5C54.1,102.1,51.6,99.6,51.6,99.6L51.6,99.6z"></path>
</g><g>
	<path class="st19" d="M49,100c0.2-1.5,0.5-3.4,0.8-4.9c1.9-10.8,3.9-22.5,6.7-33c-2.2,10.7-3.4,22.5-4.7,33.3
		c-0.1,1.3-0.4,3.4-0.5,4.6C51.4,100,49,100,49,100L49,100z"></path>
</g><g>
	<path class="st21" d="M47.8,100.1c1.5-12.4,3.6-25,3.4-37.5c0.4,3.1,0.3,6.3,0.3,9.4c-0.2,9.5-0.7,18.9-1.4,28.3
		C50.2,100.3,47.8,100.1,47.8,100.1L47.8,100.1z"></path>
</g><g>
	<path class="st18" d="M50.2,100.5c3.4-14.2,7.5-28.4,9.3-43c-1,14.7-4.2,29.1-6.8,43.5C52.7,101.1,50.2,100.5,50.2,100.5
		L50.2,100.5z"></path>
</g><g>
	<path class="st18" d="M54.5,100.1c0.5-0.4,0.9-1.4,1.4-2.4c1.4-3.2,4.8-4.7,8.1-4.6c-3,0.5-5.8,2.2-6.5,5.3c-0.3,0.9-0.4,2-1.2,3.2
		L54.5,100.1L54.5,100.1z"></path>
</g><g>
	<path class="st19" d="M55.6,99.4C55.5,99.4,55.5,99.4,55.6,99.4c0.5-0.2,0.7-0.6,1.1-0.9c1.7-1.5,4.2-1.6,6.3-1.1c0,0,0,0.2,0,0.2
		l-1,0.1c-1.5,0.2-3.1,0.8-4,2.1c-0.6,0.7-0.6,1.4-1.8,1.9C56.2,101.6,55.6,99.4,55.6,99.4L55.6,99.4z"></path>
</g><g>
	<path class="st19" d="M47.5,100.5c-2-15.6-8.9-32.8-23.7-40.3c3.8,1.6,7.4,3.8,10.5,6.6c9.3,8.7,14.6,20.8,17.2,33.1
		C51.5,100,47.5,100.5,47.5,100.5L47.5,100.5z"></path>
</g><g>
	<path class="st18" d="M48.3,99.8c-3.9-10.2-10.4-21-21-25.3c-1.5-0.6-3.1-1-4.7-1.2c1.6,0.1,3.3,0.4,4.9,0.8
		c8.1,2.4,14.3,8.9,19,15.7c1.9,2.8,3.6,5.7,5,8.8L48.3,99.8L48.3,99.8z"></path>
</g><g>
	<path class="st19" d="M47.5,101.6c-1.1-2.4-1.4-4.4-2.4-6.7c-2.5-6.5-8.1-11.2-14.3-14c0,0,0-0.1,0-0.1c2.2,0.8,4.3,1.7,6.3,3
		c5.2,3,9,8,11.1,13.6c0.4,1.1,0.9,2.2,1.3,3L47.5,101.6L47.5,101.6z"></path>
</g><g>
	<path class="st20" d="M47.8,102c-1.1-1.2-2-3.1-2.8-4.5c-3.8-7.3-10.3-11.6-18.1-13.8c-1.3-0.4-3.3-0.8-4.7-1.1
		c-1.6-0.3-3.2-0.5-4.8-0.7l0-0.1c4,0.2,8.2,0.6,12.1,1.5c7.5,1.8,13.9,6,18.1,12.6c0.7,1,1.8,2.8,2.6,3.5
		C50.2,99.4,47.8,102,47.8,102L47.8,102z"></path>
</g><g>
	<path class="st19" d="M50.5,99.8c-0.2-2.6-0.7-6.7-1-9.4c-1.1-9.2-2.3-19.5-4.2-28.5c2.4,8.9,4.2,19.1,5.9,28.3
		c0.3,1.6,1,5.6,1.2,7.1c0.1,0.8,0.3,1.6,0.4,2.5C52.8,99.8,50.5,99.8,50.5,99.8L50.5,99.8z"></path>
</g><g>
	<path class="st21" d="M51.7,100.2c-0.7-12.6-2-25.2-1.1-37.8c-0.2,3.1,0.1,6.3,0.3,9.4c0.7,9.4,1.9,18.8,3.1,28.1
		C54,99.9,51.7,100.2,51.7,100.2L51.7,100.2z"></path>
</g><g>
	<path class="st18" d="M49.2,100.9c-2.6-14.4-5.8-28.9-6.8-43.5c0.3,3.7,1,7.3,1.7,10.9c2.2,10.8,4.8,21.5,7.5,32.1
		C51.7,100.3,49.2,100.9,49.2,100.9L49.2,100.9z"></path>
</g><g>
	<path class="st18" d="M45.5,101.5c-0.8-1.2-0.9-2.3-1.2-3.2c-0.7-3.1-3.5-4.8-6.5-5.3c3.3-0.1,6.7,1.5,8.1,4.6c0.5,1,0.9,2,1.4,2.4
		L45.5,101.5L45.5,101.5z"></path>
</g><g>
	<path class="st19" d="M45.6,101.5c-1.2-0.5-1.2-1.2-1.8-1.9c-1-1.6-3.2-2.1-5-2.2c0,0,0-0.2,0-0.2l1-0.2c1.8-0.2,3.8,0,5.3,1.3
		c0.3,0.2,0.6,0.5,0.8,0.7c0.2,0.2,0.4,0.3,0.3,0.2L45.6,101.5L45.6,101.5z"></path>
</g></g></svg>