<?xml version="1.0" encoding="utf-8"?>
<!-- Generator: Adobe Illustrator 23.1.1, SVG Export Plug-In . SVG Version: 6.00 Build 0)  -->
<svg version="1.1" id="Layer_1" xmlns="http://www.w3.org/2000/svg" xmlns:xlink="http://www.w3.org/1999/xlink" x="0px" y="0px"
	 viewBox="0 0 108 108" style="enable-background:new 0 0 108 108;" xml:space="preserve">
<style type="text/css">
	.st0{fill-rule:evenodd;clip-rule:evenodd;fill:#79A23F;}
	.st1{opacity:0.34;fill:#68431A;}
	.st2{fill:none;stroke:#718537;stroke-width:0.6452;stroke-miterlimit:10;}
	.st3{fill:#A5C239;}
	.st4{fill:#84B541;}
	.st5{fill:#91BB3E;}
	.st6{fill:#AFCB36;}
	.st7{fill:#92B83F;}
	.st8{fill:#A5BE3B;}
	.st9{fill:#A4C839;}
	.st10{fill:#72AA42;}
	.st11{fill:#9B1C1F;}
	.st12{fill:#FAA555;}
	.st13{fill:#C05127;}
	.st14{fill:#F27423;}
</style>
<g>
	<g>
		<path class="st0" d="M74.51,77.42c-0.09-0.04-0.1-0.08-0.14-0.13c0,0,0,0,0.02,0.02C74.42,77.36,74.49,77.38,74.51,77.42
			c3.48,2.49,10.03-3.91,3.73-6.43c-0.3,0.04-0.67-0.08-0.96-0.31h0c0.34,0.11,0.62,0.21,0.95,0.31c0.58,0.02,1.14-0.31,1.52-0.73
			c1.13,0.13,2.5-0.86,1.27-2.53c1.61,0.31,1.55-1.34,0.92-2.24c2.86-0.25,4.86-2.13,5.27-4.81c0.5-3.01-0.99-7.4-4.27-8.13
			c-0.07-0.11-0.08-0.19-0.11-0.25c1.87-0.33,2.69-1.8,1.2-3.32c1.93-0.46,1.6-3.57-1.71-1.71c3.16-0.77,3.01-5.27,0.93-6.39
			c0-0.94-0.16-1.82-0.56-2.57c-0.89-1.82-2.96-2.99-5.13-3.09c0.1-1.97-1.91-3.32-3.75-2.72c-0.56-0.94-1.4-1.71-2.36-2.09
			c0.73-2.42-3.16-4.47-4.79-1.67c0.11-1.21-0.66-1.98-1.59-2.28c-0.61-1.4-1.94-1.51-3.2-1.04c-0.16-0.11-0.35-0.15-0.53-0.25
			c-0.27-2.57-2.04-4.85-4.27-5.45c-2.73-0.79-6.14,1.04-7.09,3.95c-0.29-0.02-0.56-0.08-0.81-0.02c-2.3-2.88-9.46-1.48-6.32,3.8
			c0.2,0.17,0.35,0.44,0.48,0.69c0,0,0,0,0.02,0.02c-0.18-0.27-0.34-0.46-0.5-0.71c-1.25-0.98-3.64,0.06-3.13,1.67
			c-0.92,0.06-1.78,0.42-2.36,1.02c-2.55-2.24-5.72-2.03-7.92,0.06c-2.45,2.34-4.09,7.56-0.67,9.95c-1.95-1.84-4.2-1.23-3.88,1.3
			c-1.85-0.81-3.44,1.88,0.31,2.38c-3.85-1.65-7.18,4.93-2.81,5.93c-3.26,0.33-2.86,5.24,0.35,5.72c-2.35,1.07-2.09,3.66-0.58,4.81
			c-0.2,0.71,0,1.48,1.33,1.88c-1.15,0.54-0.81,1.4-0.13,1.94c-1.61,1.61,0.19,5.14,3,3.97c-0.78,0.88-0.65,1.98-0.07,2.78
			c-0.36,1.5,0.61,2.42,1.88,2.78c0.3,0.96,0.88,1.42,1.77,1.53c0.1,0.38,0.47,0.77,1.07,1.11c0.42,1.25,1.37,1.76,2.09,1.28
			c0.05-0.15,0.13-0.31,0.24-0.46c0.03,0,0.11,0.04,0.16,0.02c-0.13,0.17-0.25,0.35-0.4,0.44c-0.49,1.46,1.12,2.86,2.77,3.3
			c0.02,0.71,0.45,1.23,1.04,1.63c0.45,1.78,1.56,3.38,3.07,4.05c2.61,1.27,6.33,0.08,7.74-2.68c0.14-0.06,0.33,0,0.46-0.06
			c0.06,0.06,0.18,0.11,0.24,0.17c1.26,2.49,5.83,3.09,7.02,0.67c1.11,0.33,2.41,0.11,3.4-0.56c0.71-0.15,1.33-0.65,1.59-1.46
			c0.59,1.94,3.15,1.02,2.81-1.17c0.02,0.02,0.07,0.02,0.1,0c1.1,3.68,5.34,5.5,8.23,4.35C74.58,84.63,76.26,80.45,74.51,77.42z"/>
		<path class="st1" d="M81.76,60.75l-1.99-0.42l-3.97-0.91l-0.02,0l-0.15-0.01c-1.14-0.08-2.28-0.08-3.42-0.04
			c-1.07,0.04-2.15,0.11-3.21,0.39c-0.29-0.48-0.73-0.53-1.12-0.74l-1.28-0.56l-2.55-1.12c-0.95-0.4-1.9-0.79-2.85-1.18
			c0.27-1.07,0.39-2.01,0.29-2.84c1.05-0.5,2.1-1.06,3.09-1.71c0.37-0.24,0.72-0.5,1.07-0.76c0.19,0.13,0.4,0.13,0.61,0.17
			l1.09,0.18l2.17,0.37l4.36,0.67c1.46,0.21,2.91,0.41,4.38,0.59c1.47,0.16,2.93,0.35,4.41,0.48l0.25-1.16
			c-1.43-0.38-2.87-0.7-4.31-1.04c-1.44-0.32-2.89-0.63-4.34-0.93l-4.35-0.85l-2.08-0.38c0.68-0.7,1.33-1.44,1.88-2.24
			c0.72-1.03,1.3-2.14,1.78-3.28l7.64-0.76l-0.05-1.19l-6.87-0.05c0.12-0.37,0.24-0.75,0.33-1.13c0.62-2.24,0.76-4.54,0.89-6.81
			l-1.19-0.06c-0.25,2.19-0.52,4.38-1.22,6.44c-0.66,2.06-1.6,4.01-2.9,5.67c-1.29,1.67-2.93,3.01-4.77,4.05
			c-1.11,0.64-2.3,1.15-3.53,1.63c-0.58-0.31-1.15-0.56-1.4-0.77c-0.37-0.31-0.9-0.76-1.45-1.15l-0.81-12.59
			c0.06-0.05,0.13-0.11,0.19-0.16l0.65-0.51l1.36-1.02l2.77-2l5.6-3.93l-0.65-0.99l-5.81,3.65l-2.89,1.87l-1.36,0.92l-0.53-8.23
			l-1.19,0.04l0.1,9.46c-0.01,0.01-0.02,0.02-0.03,0.03l0.03,0.02l0.05,4.71c-0.03-0.03-0.05-0.05-0.08-0.08
			c-0.6-0.57-1.22-1.11-1.85-1.64c-0.09-0.07-0.18-0.13-0.27-0.21l-3.05-10.74l-1.15,0.3l2.03,8.81c-0.5-0.36-1.01-0.71-1.53-1.05
			c-1.36-0.9-2.78-1.72-4.21-2.49c-1.44-0.76-2.92-1.45-4.4-2.11l-0.49,1.08c1.44,0.69,2.87,1.41,4.26,2.2
			c1.39,0.78,2.77,1.59,4.08,2.48c1.32,0.89,2.6,1.83,3.81,2.84c0.6,0.51,1.2,1.03,1.75,1.58c0.28,0.27,0.55,0.55,0.82,0.84
			c0.1,0.1,0.19,0.21,0.29,0.32l0.06,6.02c-0.84,0.36-1.45,0.98-1.45,0.98s-0.4,0.34-0.91,0.83l-10.27-5.34
			c-0.33-0.67-0.82-1.23-1.21-1.85l-1.76-2.57c-1.21-1.69-2.41-3.39-3.68-5.04l-0.99,0.66c1.04,1.8,2.16,3.56,3.27,5.32l1.71,2.61
			c0.3,0.41,0.55,0.87,0.84,1.29c-0.66,0-1.31,0.07-1.96,0.09l-3.54,0.2c-2.36,0.17-4.71,0.35-7.07,0.61l0.06,1.19
			c2.37,0.04,4.73-0.02,7.09-0.07l3.54-0.14c0.89-0.06,1.78-0.01,2.66-0.2l2.71,1.65l-6.61,3.94l-10.94,1.78l0.19,1.17l11.04-1.8
			L37.36,54l0.11-0.05l8.62-3.54l4.12,2.51c-0.09,0.18-0.15,0.35-0.18,0.5c-0.17,1.04,0.37,2.13,0.65,3.38l-4.6,3.74l-19.87-1.1
			l-0.09,1.18l11.8,1.23l-9.12,7.06l0.69,0.97l11.74-7.68l3.95,0.41l-0.54,4.08c-0.13,0.95-0.25,1.89-0.38,2.84l-12.07,4.15
			l0.35,1.14l11.33-3.01c-0.01,0.02-0.01,0.05-0.01,0.07L41.88,82.2l1.16,0.24l2.36-10.27c0.44-1.7,0.67-3.45,0.98-5.18l0.81-4.74
			l3.9-2.34c0.17,0.2,0.47,0.34,1,0.48c0.56,0.15,1.06,0.24,1.48,0.3L55.63,73l-4.1,12.01l1.11,0.41l4.08-10.33l6.54,9.51l1-0.64
			l-6.84-11.38L56.69,60.4c0.63-0.19,1.2-0.36,1.2-0.36s1.24-0.63,2.17-1.59c1.06,0.37,2.12,0.73,3.18,1.08l2.66,0.84l1.33,0.42
			c0.19,0.04,0.38,0.12,0.57,0.18l0.78,3.93L69,67.06l0.23,1.09l0.14,0.6c0.03,0.13,0.1,0.29,0.18,0.43l0.15,0.26
			c0.79,1.28,1.6,2.49,2.41,3.73l2.44,3.67l1.01-0.63l-2.19-3.81c-0.72-1.27-1.46-2.56-2.13-3.81l-0.11-0.22
			c0-0.02-0.02-0.02-0.02-0.08l-0.08-0.48l-0.16-1.08l-0.3-2.17l-0.46-3.47c0.73,0.03,1.46-0.01,2.19-0.07
			c0.63-0.05,1.26-0.12,1.89-0.2l4.75,11.44l1.11-0.41l-3.61-11.07l3.07,0.7l2.01,0.42c0.7,0.13,1.3,0.27,2.13,0.33v-1.19
			C83.13,61.01,82.4,60.87,81.76,60.75z"/>
		<g>
			<path class="st2" d="M70.35,77.77c-0.04-1.54-0.65-4.31-1.07-6.27"/>
			<path class="st2" d="M74.43,75.79c-2.04-0.82-4.65-2.66-5.94-4.65"/>
			<path class="st2" d="M75.14,71.78c-2.32,1.12-4.24,2.41-5.83,0.09"/>
			<path class="st2" d="M65.83,67.38c-2.45-1.9-4.78-4.41-5.68-6.62"/>
			<path class="st2" d="M60.81,69.2c0.28-3.2-0.59-8.1-0.71-9.1"/>
			<path class="st2" d="M65.14,63.12c-1.9,0.6-2.97,1.52-4.84-1.63"/>
			<path class="st3" d="M67.03,80.79c-0.2-1.23-0.82-1.48,1.23-3.66c2.05-2.18,2.05-2.18,2.05-2.18s0.41,0.47,0.89,1.01
				c0.48,0.53,2.5,2.33,1.59,4.41c-0.91,2.09-1.7,3.22-2.01,3.55c-0.31,0.33-1.12,1.64-1.34,1.96"/>
			<path class="st4" d="M81.46,81.42c-1.49-0.62-3.64,0.72-5.45-0.55c-1.81-1.27-2.85-4.42-3.28-5.32
				c-0.43-0.91-1.17-0.51,0.54-0.55c1.71-0.03,1.81-0.61,3.29-0.26c1.49,0.35,3.54,2.57,3.68,3.49
				C80.38,79.15,81.46,81.42,81.46,81.42z"/>
			<path class="st5" d="M72.53,73.07c0.45,0,0.94,0.36,3.1,0.4c2.15,0.03,3.85-0.2,4.23-1.84c0.38-1.64-0.15-1.97,0.77-3.05
				s0.92-1.08,0.92-1.08s-1.85-0.06-4.44,0.01c-2.58,0.07-3.79,2.68-4.11,3.78C72.69,72.39,72.53,73.07,72.53,73.07z"/>
			<path class="st6" d="M71.37,73.1c0,0-0.99-1.1-3.03-1.11c-2.03-0.01-4.26-1.01-4.26-3.16s-0.7-3.34-0.7-3.34
				s-0.04,0.31,1.73,0.17s4.28,1.08,4.99,2.84S71.37,73.1,71.37,73.1z"/>
			<path class="st7" d="M59.15,75.83c0,0,2.62-2.62,3.42-4.4c0.8-1.78,1.02-2.84-0.02-4.1c-1.04-1.26-1.42-2.28-1.42-2.28
				s-1.48,2.2-2.44,2.71c-0.97,0.51-2.04,2.31-1.52,3.38C57.69,72.21,59.15,75.83,59.15,75.83z"/>
			<path class="st8" d="M63.24,63.71c0,0.03,1.57,0.68,3.43,0.91c1.87,0.22,2.87,0.21,3.61-0.72c0.73-0.93,1.23-1.91,1.75-2.99
				c0.52-1.08,0.59-1.52,1.02-1.63s-0.54,0.38-2.6-0.13s-3.04-1.07-3.9-0.4c-0.85,0.67-0.83,1.91-1.52,2.91
				C64.34,62.65,63.24,63.71,63.24,63.71z"/>
		</g>
		<g>
			<path class="st2" d="M36.18,78.07c1.49-0.42,4.02-1.68,5.81-2.58"/>
			<path class="st2" d="M39.11,81.54c0.29-2.17,1.44-5.16,3.05-6.9"/>
			<path class="st2" d="M43.16,81.24c-1.65-1.97-3.37-3.52-1.51-5.63"/>
			<path class="st2" d="M45.15,71.14c1.24-2.84,3.11-5.72,5.03-7.13"/>
			<path class="st2" d="M42.16,66.71c3.17-0.51,7.7-2.56,8.65-2.92"/>
			<path class="st2" d="M49.11,69.42c-1.04-1.69-2.2-2.51,0.4-5.09"/>
			<path class="st4" d="M32.44,75.59c1.14-0.49,1.24-1.16,3.85,0.29c2.61,1.45,2.61,1.45,2.61,1.45s-0.36,0.51-0.76,1.1
				c-0.4,0.59-1.64,2.99-3.89,2.62c-2.25-0.37-3.54-0.86-3.94-1.08c-0.39-0.22-1.86-0.68-2.23-0.82"/>
			<path class="st9" d="M35.37,89.73c0.24-1.6-1.59-3.35-0.8-5.42c0.79-2.07,3.58-3.84,4.36-4.49c0.77-0.64,0.21-1.26,0.66,0.39
				c0.45,1.65,1.04,1.6,1.06,3.13c0.02,1.53-1.63,4.06-2.48,4.42S35.37,89.73,35.37,89.73z"/>
			<path class="st5" d="M41.27,79.03c0.11,0.43-0.12,1,0.37,3.1c0.5,2.1,1.14,3.68,2.82,3.64c1.68-0.04,1.87-0.63,3.15,0
				s1.27,0.63,1.27,0.63s-0.4-1.81-1.1-4.3c-0.7-2.49-3.53-3.02-4.67-3.06C41.98,79.01,41.27,79.03,41.27,79.03z"/>
			<path class="st6" d="M40.97,77.91c0,0,0.82-1.23,0.33-3.21s-0.06-4.38,2.02-4.91c2.09-0.53,3.07-1.49,3.07-1.49
				s-0.31,0.03,0.26,1.72c0.57,1.68,0.01,4.42-1.53,5.54C43.59,76.67,40.97,77.91,40.97,77.91z"/>
			<path class="st7" d="M35.32,66.73c0,0,3.19,1.9,5.1,2.24c1.92,0.34,3,0.3,3.97-1.02s1.86-1.94,1.86-1.94s-2.49-0.89-3.23-1.7
				c-0.73-0.81-2.74-1.41-3.65-0.64C38.47,64.43,35.32,66.73,35.32,66.73z"/>
			<path class="st8" d="M48.07,67.73c-0.03,0.01-0.28,1.69-0.04,3.55s0.5,2.84,1.58,3.32c1.08,0.48,2.15,0.72,3.33,0.96
				c1.18,0.24,1.62,0.2,1.82,0.59s-0.5-0.43-0.51-2.55c-0.01-2.12,0.3-3.21-0.57-3.88s-2.06-0.33-3.19-0.76
				C49.36,68.53,48.07,67.73,48.07,67.73z"/>
		</g>
		<g>
			<path class="st2" d="M28.13,46.61c0.49,1.46,1.88,3.93,2.86,5.68"/>
			<path class="st2" d="M24.81,49.71c2.19,0.18,5.22,1.18,7.04,2.7"/>
			<path class="st2" d="M25.31,53.74c1.89-1.75,3.34-3.54,5.55-1.79"/>
			<path class="st2" d="M35.5,55.22c2.9,1.09,5.86,2.82,7.37,4.66"/>
			<path class="st2" d="M39.77,52.01c0.67,3.14,2.94,7.57,3.35,8.5"/>
			<path class="st2" d="M37.41,59.09c1.64-1.13,2.4-2.32,5.11,0.14"/>
			<path class="st3" d="M30.42,42.75c0.55,1.12,1.22,1.18-0.1,3.86C29,49.29,29,49.29,29,49.29s-0.53-0.33-1.14-0.7
				c-0.61-0.37-3.07-1.49-2.81-3.75c0.26-2.26,0.68-3.58,0.88-3.98c0.2-0.4,0.59-1.89,0.71-2.26"/>
			<path class="st4" d="M16.44,46.39c1.61,0.16,3.27-1.76,5.37-1.08s4.02,3.39,4.7,4.13c0.68,0.74,1.27,0.15-0.35,0.68
				s-1.55,1.11-3.07,1.21c-1.53,0.1-4.14-1.42-4.54-2.26S16.44,46.39,16.44,46.39z"/>
			<path class="st5" d="M27.43,51.75c-0.43,0.13-1.01-0.07-3.08,0.53c-2.07,0.6-3.62,1.32-3.5,3c0.12,1.68,0.73,1.84,0.16,3.14
				s-0.57,1.3-0.57,1.3s1.79-0.49,4.24-1.31s2.84-3.68,2.82-4.82C27.48,52.45,27.43,51.75,27.43,51.75z"/>
			<path class="st6" d="M28.53,51.38c0,0,1.27,0.76,3.22,0.17s4.37-0.28,5,1.77c0.63,2.06,1.65,2.99,1.65,2.99s-0.05-0.31-1.7,0.35
				s-4.41,0.23-5.61-1.25C29.9,53.94,28.53,51.38,28.53,51.38z"/>
			<path class="st7" d="M39.41,45.18c0,0-1.73,3.28-1.98,5.21c-0.25,1.93-0.15,3.01,1.22,3.91s2.03,1.76,2.03,1.76
				s0.77-2.53,1.54-3.31c0.78-0.77,1.27-2.81,0.46-3.67C41.87,48.21,39.41,45.18,39.41,45.18z"/>
			<path class="st8" d="M39.05,57.96c-0.01-0.03-1.7-0.19-3.55,0.14c-1.85,0.33-2.81,0.64-3.24,1.75c-0.43,1.11-0.61,2.19-0.79,3.37
				c-0.18,1.19-0.11,1.63-0.49,1.85s0.41-0.52,2.52-0.63s3.22,0.13,3.84-0.76c0.62-0.89,0.23-2.07,0.6-3.23
				C38.32,59.3,39.05,57.96,39.05,57.96z"/>
		</g>
		<g>
			<path class="st2" d="M52.32,83.64c0.82-1.31,1.85-3.94,2.58-5.81"/>
			<path class="st2" d="M56.82,84.25c-1.24-1.81-2.4-4.79-2.37-7.16"/>
			<path class="st2" d="M59.63,81.3c-2.55-0.35-4.86-0.34-4.9-3.15"/>
			<path class="st2" d="M54.31,72.48c-0.99-2.93-1.54-6.32-1.06-8.66"/>
			<path class="st2" d="M49.13,71.21c2-2.51,3.99-7.07,4.45-7.98"/>
			<path class="st2" d="M56.1,68.55c-1.91-0.55-3.31-0.38-3.13-4.04"/>
			<path class="st3" d="M47.88,84.32c0.52-1.13,0.14-1.69,3.05-2.37c2.91-0.68,2.91-0.68,2.91-0.68s0.08,0.62,0.18,1.33
				c0.1,0.71,0.79,3.32-1.12,4.55S49.7,88.9,49.26,89c-0.44,0.1-1.84,0.75-2.2,0.89"/>
			<path class="st4" d="M59.56,92.82c-0.9-1.35-3.43-1.42-4.24-3.48c-0.81-2.06,0.07-5.25,0.21-6.25s-0.69-1.08,0.75-0.16
				c1.44,0.92,1.84,0.49,2.88,1.61c1.04,1.12,1.53,4.1,1.13,4.94C59.91,90.33,59.56,92.82,59.56,92.82z"/>
			<path class="st5" d="M56.74,80.93c0.37,0.25,0.59,0.83,2.36,2.05c1.77,1.22,3.32,1.96,4.54,0.81s0.96-1.73,2.33-2.11
				c1.37-0.39,1.37-0.39,1.37-0.39s-1.51-1.07-3.7-2.45c-2.19-1.37-4.64,0.14-5.51,0.88C57.25,80.45,56.74,80.93,56.74,80.93z"/>
			<path class="st6" d="M55.76,80.31c0,0-0.22-1.46-1.91-2.6s-2.99-3.2-1.8-4.99s1.27-3.17,1.27-3.17s-0.21,0.23,1.35,1.1
				c1.55,0.87,2.97,3.27,2.59,5.13S55.76,80.31,55.76,80.31z"/>
			<path class="st7" d="M44.07,75.82c0,0,3.63-0.74,5.29-1.77c1.65-1.04,2.42-1.8,2.25-3.42c-0.17-1.63,0.08-2.68,0.08-2.68
				s-2.45,1.01-3.54,0.91c-1.09-0.11-2.98,0.8-3.13,1.97C44.86,72,44.07,75.82,44.07,75.82z"/>
			<path class="st8" d="M54.19,68c-0.02,0.03,0.93,1.44,2.36,2.66c1.43,1.22,2.27,1.77,3.4,1.4c1.13-0.37,2.08-0.91,3.11-1.52
				c1.03-0.61,1.33-0.94,1.75-0.79c0.41,0.15-0.66,0.02-2.09-1.55c-1.43-1.56-1.94-2.58-3.02-2.49s-1.75,1.14-2.88,1.58
				S54.19,68,54.19,68z"/>
		</g>
		<g>
			<path class="st2" d="M65.36,31.81c-1.52,0.26-4.17,1.25-6.05,1.95"/>
			<path class="st2" d="M62.81,28.05c-0.52,2.13-1.98,4.98-3.76,6.54"/>
			<path class="st2" d="M58.75,27.92c1.43,2.13,2.98,3.85,0.91,5.76"/>
			<path class="st2" d="M55.7,37.75c-1.53,2.69-3.69,5.36-5.75,6.56"/>
			<path class="st2" d="M58.21,42.47c-3.2,0.17-7.93,1.73-8.91,1.99"/>
			<path class="st2" d="M51.58,39.04c0.86,1.79,1.92,2.73-0.93,5.02"/>
			<path class="st3" d="M68.81,34.67c-1.19,0.37-1.35,1.02-3.79-0.7c-2.44-1.72-2.44-1.72-2.44-1.72s0.41-0.47,0.87-1.02
				c0.46-0.55,1.95-2.8,4.14-2.2s3.43,1.23,3.8,1.49s1.78,0.87,2.13,1.05"/>
			<path class="st9" d="M67.39,20.3c-0.41,1.57,1.23,3.5,0.23,5.48s-3.97,3.44-4.81,4c-0.84,0.56-0.34,1.23-0.62-0.45
				c-0.27-1.69-0.86-1.7-0.72-3.22c0.14-1.52,2.05-3.87,2.94-4.14C65.3,21.69,67.39,20.3,67.39,20.3z"/>
			<path class="st4" d="M60.39,30.31c-0.06-0.44,0.23-0.99-0.04-3.12s-0.74-3.78-2.42-3.92c-1.68-0.14-1.93,0.43-3.13-0.33
				c-1.2-0.76-1.2-0.76-1.2-0.76s0.21,1.84,0.64,4.39c0.43,2.55,3.19,3.37,4.32,3.53C59.69,30.25,60.39,30.31,60.39,30.31z"/>
			<path class="st6" d="M60.58,31.46c0,0-0.95,1.14-0.67,3.15s-0.4,4.36-2.53,4.67c-2.13,0.3-3.21,1.16-3.21,1.16s0.31,0-0.08-1.73
				c-0.39-1.73,0.46-4.39,2.1-5.34C57.84,32.42,60.58,31.46,60.58,31.46z"/>
			<path class="st7" d="M65.01,43.18c0,0-2.97-2.22-4.84-2.76c-1.87-0.54-2.95-0.61-4.06,0.6c-1.1,1.21-2.05,1.73-2.05,1.73
				s2.39,1.15,3.03,2.04c0.64,0.89,2.57,1.69,3.56,1.03C61.64,45.13,65.01,43.18,65.01,43.18z"/>
			<path class="st8" d="M52.44,40.83c0.03-0.01,0.46-1.65,0.41-3.53c-0.04-1.88-0.2-2.87-1.22-3.47c-1.03-0.6-2.07-0.95-3.21-1.31
				s-1.59-0.37-1.75-0.78c-0.16-0.41,0.45,0.48,0.23,2.59c-0.22,2.11-0.63,3.16,0.15,3.91c0.79,0.75,2.01,0.55,3.09,1.09
				S52.44,40.83,52.44,40.83z"/>
		</g>
		<g>
			<path class="st2" d="M35.47,32.78c-0.14,1.54,0.14,4.35,0.33,6.35"/>
			<path class="st2" d="M31.19,34.27c1.93,1.05,4.3,3.19,5.35,5.32"/>
			<path class="st2" d="M30.02,38.17c2.43-0.84,4.49-1.89,5.8,0.6"/>
			<path class="st2" d="M38.74,43.64c2.21,2.17,4.23,4.94,4.86,7.24"/>
			<path class="st2" d="M43.94,42.42c-0.65,3.14-0.37,8.11-0.37,9.13"/>
			<path class="st2" d="M38.93,47.95c1.95-0.37,3.13-1.16,4.61,2.19"/>
			<path class="st3" d="M39.13,30.17c0.05,1.24,0.64,1.57-1.65,3.49s-2.29,1.92-2.29,1.92s-0.35-0.52-0.76-1.1
				c-0.41-0.59-2.21-2.6-1.06-4.57s2.07-3,2.41-3.29s1.3-1.5,1.56-1.78"/>
			<path class="st9" d="M24.87,27.86c1.41,0.79,3.7-0.29,5.35,1.19c1.65,1.47,2.31,4.72,2.63,5.67s1.11,0.65-0.6,0.48
				c-1.7-0.17-1.87,0.39-3.3-0.13c-1.43-0.53-3.21-2.97-3.24-3.9C25.68,30.24,24.87,27.86,24.87,27.86z"/>
			<path class="st4" d="M32.76,37.19c-0.44-0.05-0.9-0.47-3.03-0.76s-3.85-0.25-4.41,1.33c-0.57,1.59-0.08,1.98-1.12,2.94
				c-1.04,0.96-1.04,0.96-1.04,0.96s1.83,0.27,4.41,0.51c2.57,0.24,4.08-2.22,4.52-3.27C32.52,37.86,32.76,37.19,32.76,37.19z"/>
			<path class="st6" d="M33.92,37.31c0,0,0.86,1.21,2.88,1.46c2.02,0.25,4.11,1.51,3.86,3.64c-0.25,2.14,0.3,3.4,0.3,3.4
				s0.08-0.3-1.7-0.37s-4.13-1.57-4.63-3.4C34.14,40.2,33.92,37.31,33.92,37.31z"/>
			<path class="st7" d="M46.37,36.03c0,0-2.91,2.3-3.91,3.97s-1.35,2.7-0.47,4.07c0.88,1.38,1.14,2.43,1.14,2.43s1.72-2.01,2.75-2.4
				s2.3-2.05,1.9-3.18C47.4,39.79,46.37,36.03,46.37,36.03z"/>
			<path class="st8" d="M40.88,47.58c0-0.03-1.47-0.86-3.3-1.31c-1.83-0.44-2.83-0.55-3.67,0.29c-0.84,0.84-1.45,1.75-2.09,2.77
				c-0.64,1.01-0.76,1.44-1.2,1.49c-0.44,0.05,0.58-0.31,2.56,0.44s2.89,1.42,3.82,0.86c0.93-0.57,1.04-1.8,1.85-2.71
				C39.67,48.5,40.88,47.58,40.88,47.58z"/>
		</g>
		<g>
			<path class="st2" d="M51.3,28.84c-1.1,1.08-2.71,3.41-3.85,5.06"/>
			<path class="st2" d="M47.06,27.21c0.79,2.05,1.23,5.21,0.66,7.52"/>
			<path class="st2" d="M43.65,29.43c2.4,0.93,4.65,1.45,4.04,4.2"/>
			<path class="st2" d="M46.78,39.24c0.29,3.08,0.04,6.5-0.96,8.67"/>
			<path class="st2" d="M51.54,41.67c-2.53,1.98-5.52,5.96-6.17,6.73"/>
			<path class="st2" d="M44.14,42.65c1.73,0.98,3.14,1.14,2.11,4.65"/>
			<path class="st3" d="M55.77,29.21c-0.76,0.98-0.52,1.61-3.51,1.6c-2.99-0.01-2.99-0.01-2.99-0.01s0.07-0.62,0.13-1.33
				c0.06-0.71-0.01-3.41,2.14-4.17c2.15-0.76,3.52-0.96,3.97-0.96s1.96-0.3,2.35-0.35"/>
			<path class="st9" d="M46.38,18.24c0.56,1.52,3.01,2.17,3.32,4.36c0.31,2.19-1.28,5.1-1.65,6.03c-0.37,0.93,0.43,1.21-0.77-0.02
				c-1.19-1.23-1.68-0.9-2.44-2.23s-0.54-4.34,0.04-5.07C45.46,20.58,46.38,18.24,46.38,18.24z"/>
			<path class="st4" d="M46.37,30.46c-0.3-0.32-0.38-0.94-1.82-2.54s-2.77-2.68-4.23-1.83s-1.34,1.46-2.76,1.52
				c-1.42,0.06-1.42,0.06-1.42,0.06s1.22,1.39,3.03,3.24s4.55,0.94,5.57,0.42C45.76,30.81,46.37,30.46,46.37,30.46z"/>
			<path class="st6" d="M47.18,31.29c0,0-0.13,1.48,1.26,2.97s2.17,3.81,0.6,5.27s-1.97,2.79-1.97,2.79s0.25-0.18-1.06-1.38
				c-1.31-1.2-2.14-3.87-1.33-5.59C45.48,33.64,47.18,31.29,47.18,31.29z"/>
			<path class="st7" d="M57.52,38.36c0,0-3.7-0.12-5.55,0.5s-2.77,1.19-2.98,2.81c-0.21,1.62-0.69,2.59-0.69,2.59
				s2.61-0.42,3.65-0.06s3.08-0.09,3.51-1.2C55.87,41.89,57.52,38.36,57.52,38.36z"/>
			<path class="st8" d="M45.87,43.63c0.02-0.02-0.57-1.61-1.68-3.13c-1.11-1.52-1.81-2.25-2.99-2.15c-1.18,0.1-2.24,0.41-3.38,0.76
				s-1.51,0.61-1.88,0.37s0.65,0.14,1.68,1.99c1.03,1.85,1.29,2.96,2.37,3.12c1.07,0.17,1.96-0.7,3.16-0.87S45.87,43.63,45.87,43.63
				z"/>
		</g>
		<g>
			<path class="st2" d="M28.09,63.82c1.43,0.57,4.21,1.11,6.18,1.49"/>
			<path class="st2" d="M28.3,68.35c1.56-1.55,4.28-3.22,6.62-3.62"/>
			<path class="st2" d="M31.7,70.58c-0.11-2.57-0.54-4.84,2.22-5.39"/>
			<path class="st2" d="M39.42,63.77c2.71-1.5,5.94-2.65,8.33-2.6"/>
			<path class="st2" d="M39.74,58.44c2.83,1.52,7.67,2.65,8.65,2.94"/>
			<path class="st2" d="M43.61,64.81c0.2-1.98-0.22-3.33,3.41-3.8"/>
			<path class="st3" d="M26.63,59.57c1.21,0.3,1.69-0.17,2.88,2.57c1.19,2.74,1.19,2.74,1.19,2.74s-0.59,0.19-1.27,0.42
				c-0.68,0.23-3.12,1.38-4.68-0.28c-1.56-1.66-2.29-2.83-2.47-3.25c-0.18-0.41-1.07-1.67-1.27-2.01"/>
			<path class="st9" d="M20.36,72.58c1.16-1.13,0.78-3.63,2.66-4.79c1.88-1.16,5.18-0.87,6.19-0.91c1-0.04,0.94-0.88,0.29,0.71
				c-0.65,1.59-0.15,1.9-1.06,3.13s-3.76,2.24-4.66,2C22.87,72.48,20.36,72.58,20.36,72.58z"/>
			<path class="st4" d="M31.55,67.68c-0.17,0.41-0.71,0.72-1.59,2.69s-1.34,3.62,0.02,4.61c1.36,0.99,1.87,0.64,2.5,1.91
				c0.63,1.28,0.63,1.28,0.63,1.28s0.78-1.68,1.74-4.08s-0.97-4.54-1.85-5.27C32.12,68.09,31.55,67.68,31.55,67.68z"/>
			<path class="st6" d="M31.99,66.6c0,0,1.4-0.48,2.21-2.34c0.81-1.87,2.61-3.52,4.59-2.67c1.98,0.85,3.34,0.68,3.34,0.68
				s-0.26-0.16-0.84,1.52s-2.68,3.51-4.58,3.47S31.99,66.6,31.99,66.6z"/>
			<path class="st7" d="M34.3,54.29c0,0,1.38,3.44,2.69,4.88s2.2,2.06,3.77,1.6c1.57-0.46,2.65-0.41,2.65-0.41s-1.44-2.22-1.53-3.32
				c-0.09-1.09-1.32-2.78-2.5-2.73C38.2,54.38,34.3,54.29,34.3,54.29z"/>
			<path class="st8" d="M43.81,62.83c-0.03-0.01-1.25,1.17-2.19,2.79c-0.94,1.63-1.33,2.56-0.76,3.6c0.57,1.04,1.27,1.88,2.06,2.79
				c0.79,0.91,1.17,1.14,1.09,1.58s-0.13-0.65,1.15-2.33s2.19-2.37,1.91-3.42c-0.28-1.05-1.43-1.51-2.07-2.55
				C44.36,64.26,43.81,62.83,43.81,62.83z"/>
		</g>
		<g>
			<path class="st2" d="M77.01,42.85c-1.5-0.38-4.32-0.53-6.33-0.65"/>
			<path class="st2" d="M76.18,38.39c-1.33,1.74-3.81,3.76-6.07,4.48"/>
			<path class="st2" d="M72.52,36.63c0.46,2.53,1.18,4.73-1.48,5.64"/>
			<path class="st2" d="M65.78,44.42c-2.48,1.85-5.53,3.42-7.9,3.7"/>
			<path class="st2" d="M66.18,49.74c-3.01-1.13-7.96-1.6-8.96-1.76"/>
			<path class="st2" d="M61.49,43.94c0.07,1.99,0.67,3.27-2.87,4.23"/>
			<path class="st3" d="M79.02,46.86c-1.24-0.14-1.65,0.39-3.2-2.16c-1.55-2.56-1.55-2.56-1.55-2.56s0.56-0.27,1.21-0.58
				c0.64-0.32,2.91-1.79,4.68-0.35c1.77,1.44,2.65,2.5,2.88,2.89c0.23,0.39,1.28,1.51,1.52,1.82"/>
			<path class="st9" d="M83.49,33.12c-1,1.27-0.28,3.7-1.99,5.11s-5.02,1.56-6.01,1.73s-0.81,0.99-0.38-0.66
				c0.43-1.66-0.1-1.9,0.64-3.24c0.74-1.34,3.43-2.72,4.35-2.61C81.01,33.56,83.49,33.12,83.49,33.12z"/>
			<path class="st4" d="M73.06,39.49c0.12-0.43,0.6-0.81,1.21-2.88c0.61-2.07,0.84-3.76-0.64-4.56c-1.48-0.8-1.94-0.38-2.73-1.56
				c-0.79-1.18-0.79-1.18-0.79-1.18s-0.55,1.77-1.18,4.28s1.57,4.37,2.54,4.97C72.44,39.15,73.06,39.49,73.06,39.49z"/>
			<path class="st6" d="M72.77,40.62c0,0-1.32,0.66-1.88,2.62c-0.55,1.96-2.12,3.84-4.19,3.26c-2.07-0.58-3.4-0.22-3.4-0.22
				s0.28,0.12,0.62-1.62c0.34-1.74,2.19-3.84,4.07-4.05C69.88,40.39,72.77,40.62,72.77,40.62z"/>
			<path class="st7" d="M72.13,53.13c0,0-1.83-3.23-3.32-4.48s-2.46-1.74-3.95-1.08c-1.5,0.66-2.57,0.76-2.57,0.76
				s1.72,2.01,1.96,3.08c0.23,1.07,1.68,2.58,2.85,2.37C68.25,53.56,72.13,53.13,72.13,53.13z"/>
			<path class="st8" d="M61.55,45.93c0.03,0.01,1.08-1.33,1.8-3.06s0.98-2.71,0.27-3.67c-0.7-0.96-1.51-1.7-2.41-2.49
				c-0.9-0.79-1.31-0.97-1.29-1.41c0.02-0.44,0.22,0.62-0.82,2.47s-1.85,2.64-1.43,3.65c0.42,1,1.62,1.31,2.39,2.24
				S61.55,45.93,61.55,45.93z"/>
		</g>
		<g>
			<path class="st2" d="M78.03,58.7c-1.02-1.16-3.26-2.88-4.85-4.11"/>
			<path class="st2" d="M79.88,54.55c-2.09,0.68-5.27,0.95-7.54,0.26"/>
			<path class="st2" d="M77.84,51.03c-1.05,2.34-1.7,4.57-4.41,3.82"/>
			<path class="st2" d="M67.88,53.65c-3.1,0.12-6.5-0.3-8.61-1.42"/>
			<path class="st2" d="M65.21,58.27c-1.84-2.63-5.66-5.82-6.4-6.52"/>
			<path class="st2" d="M64.61,50.83c-1.07,1.68-1.3,3.07-4.76,1.86"/>
			<path class="st3" d="M77.43,63.15c-0.94-0.81-1.58-0.61-1.41-3.59s0.17-2.98,0.17-2.98s0.62,0.1,1.33,0.2
				c0.71,0.1,3.41,0.17,4.05,2.36c0.64,2.19,0.77,3.56,0.75,4.01c-0.03,0.45,0.2,1.97,0.23,2.36"/>
			<path class="st9" d="M88.88,54.34c-1.54,0.48-2.32,2.89-4.53,3.09c-2.21,0.19-5.02-1.55-5.94-1.97
				c-0.91-0.42-1.23,0.36,0.06-0.76c1.29-1.13,0.99-1.63,2.36-2.31c1.37-0.68,4.37-0.31,5.06,0.31
				C86.59,53.3,88.88,54.34,88.88,54.34z"/>
			<path class="st4" d="M76.68,53.7c0.34-0.29,0.96-0.33,2.63-1.69c1.67-1.36,2.82-2.63,2.05-4.13s-1.39-1.41-1.37-2.83
				c0.01-1.42,0.01-1.42,0.01-1.42s-1.46,1.15-3.39,2.86s-1.18,4.49-0.71,5.54S76.68,53.7,76.68,53.7z"/>
			<path class="st6" d="M75.8,54.46c0,0-1.47-0.2-3.03,1.1c-1.56,1.3-3.92,1.97-5.3,0.32c-1.38-1.65-2.68-2.11-2.68-2.11
				s0.16,0.26,1.43-0.98c1.27-1.24,3.97-1.93,5.65-1.04C73.54,52.64,75.8,54.46,75.8,54.46z"/>
			<path class="st7" d="M68.2,64.42c0,0,0.32-3.69-0.21-5.57c-0.53-1.88-1.04-2.83-2.65-3.13c-1.61-0.3-2.55-0.83-2.55-0.83
				s0.28,2.63-0.13,3.65c-0.41,1.02-0.07,3.08,1.01,3.56C64.76,62.59,68.2,64.42,68.2,64.42z"/>
			<path class="st8" d="M63.54,52.51c0.02,0.02,1.64-0.48,3.21-1.51c1.57-1.03,2.34-1.68,2.3-2.87s-0.29-2.25-0.59-3.42
				c-0.3-1.16-0.53-1.54-0.27-1.9c0.26-0.35-0.17,0.64-2.08,1.57c-1.9,0.93-3.02,1.13-3.24,2.2s0.6,2,0.71,3.2
				S63.54,52.51,63.54,52.51z"/>
		</g>
		<g>
			<g>
				<path class="st10" d="M52.41,61.87c-0.04-1.54-0.65-4.31-1.07-6.27"/>
				<path class="st10" d="M56.49,59.88c-2.04-0.82-4.65-2.66-5.94-4.65"/>
				<path class="st10" d="M57.2,55.88c-2.31,1.12-4.24,2.41-5.83,0.09"/>
				<path class="st10" d="M47.89,51.47c-2.45-1.9-4.78-4.41-5.68-6.62"/>
				<path class="st10" d="M42.87,53.29c0.28-3.2-0.59-8.1-0.71-9.1"/>
				<path class="st10" d="M47.2,47.21c-1.9,0.6-2.97,1.52-4.84-1.63"/>
				<g>
					<path class="st10" d="M49.09,64.89c-0.2-1.23-0.82-1.48,1.23-3.66c2.05-2.18,2.05-2.18,2.05-2.18s0.41,0.47,0.88,1.01
						c0.48,0.53,2.5,2.33,1.59,4.41c-0.91,2.09-1.7,3.22-2.01,3.55c-0.31,0.33-1.12,1.64-1.34,1.96"/>
				</g>
				<g>
					<path class="st10" d="M63.52,65.51c-1.49-0.62-3.64,0.72-5.45-0.55c-1.81-1.27-2.85-4.42-3.28-5.32
						c-0.43-0.91-1.17-0.51,0.54-0.55c1.71-0.03,1.81-0.61,3.29-0.26s3.54,2.57,3.68,3.49C62.43,63.24,63.52,65.51,63.52,65.51z"/>
				</g>
				<g>
					<path class="st10" d="M54.59,57.17c0.45,0,0.94,0.36,3.1,0.4c2.15,0.03,3.85-0.2,4.23-1.84c0.38-1.64-0.15-1.97,0.77-3.05
						s0.92-1.08,0.92-1.08s-1.85-0.06-4.44,0.01s-3.79,2.68-4.11,3.78C54.75,56.48,54.59,57.17,54.59,57.17z"/>
				</g>
				<g>
					<path class="st10" d="M53.43,57.19c0,0-0.99-1.1-3.03-1.11c-2.03-0.01-4.26-1.01-4.26-3.16c0-2.15-0.7-3.34-0.7-3.34
						s-0.04,0.31,1.73,0.17c1.77-0.14,4.28,1.08,4.99,2.84C52.87,54.34,53.43,57.19,53.43,57.19z"/>
				</g>
				<g>
					<path class="st10" d="M41.2,59.92c0,0,2.62-2.62,3.42-4.4c0.8-1.78,1.02-2.84-0.02-4.1c-1.04-1.26-1.42-2.28-1.42-2.28
						s-1.48,2.2-2.44,2.71s-2.04,2.31-1.52,3.38C39.75,56.31,41.2,59.92,41.2,59.92z"/>
				</g>
				<g>
					<path class="st10" d="M45.3,47.81c0,0.03,1.57,0.68,3.43,0.91c1.87,0.22,2.87,0.21,3.61-0.72c0.73-0.93,1.23-1.91,1.75-2.99
						s0.59-1.52,1.02-1.63s-0.54,0.38-2.6-0.13c-2.06-0.51-3.04-1.07-3.9-0.4s-0.83,1.91-1.52,2.91
						C46.4,46.75,45.3,47.81,45.3,47.81z"/>
				</g>
			</g>
		</g>
	</g>
	<g>
		<path class="st11" d="M56.55,76.5c-0.02-0.02-0.04-0.03-0.06-0.05c0,0.01,0.01,0.01,0.01,0.02C56.52,76.48,56.53,76.49,56.55,76.5
			z"/>
		<path class="st11" d="M55.07,75.67c0.51,0.21,0.99,0.48,1.43,0.8c0-0.01-0.01-0.01-0.01-0.02c-0.39-0.36-0.82-0.68-1.28-0.94
			C55.17,75.56,55.12,75.61,55.07,75.67z"/>
		<path class="st12" d="M45.54,82.07c0-2.82,1.69-5.24,4.11-6.32c-0.21-0.19-0.37-0.41-0.47-0.64c-2.53,1.03-4.32,3.51-4.32,6.41
			c0,1.37,0.4,2.64,1.08,3.71c0.46,0.72,1.05,1.35,1.74,1.86c-0.41-0.39-0.77-0.83-1.08-1.32C45.93,84.69,45.54,83.43,45.54,82.07z"
			/>
		<path class="st13" d="M58.7,81.51c0-1.97-0.83-3.75-2.15-5.01c-0.02-0.01-0.03-0.02-0.05-0.03c0.68,1.07,1.07,2.33,1.07,3.69
			c0,3.82-3.1,6.92-6.92,6.92c-1.51,0-2.91-0.49-4.05-1.32c0.31,0.48,0.67,0.92,1.08,1.32c1.15,0.85,2.56,1.35,4.09,1.35
			C55.61,88.43,58.7,85.33,58.7,81.51z"/>
		<path class="st14" d="M52.32,76.62c-1.11,0-2.09-0.34-2.67-0.87c-2.42,1.08-4.11,3.5-4.11,6.32c0,1.36,0.4,2.62,1.07,3.69
			c1.14,0.83,2.54,1.32,4.05,1.32c3.82,0,6.92-3.1,6.92-6.92c0-1.36-0.4-2.62-1.07-3.69c-0.44-0.32-0.92-0.59-1.43-0.8
			C54.5,76.24,53.48,76.62,52.32,76.62z"/>
		<path class="st13" d="M51.79,74.59c-0.92,0-1.8,0.18-2.6,0.51c0.09,0.23,0.25,0.45,0.47,0.64c0.58,0.52,1.56,0.87,2.67,0.87
			c1.16,0,2.18-0.38,2.75-0.95c0.05-0.05,0.1-0.1,0.14-0.16C54.2,74.93,53.03,74.59,51.79,74.59z"/>
	</g>
	<g>
		<path class="st11" d="M38.26,65.16c-0.02-0.02-0.04-0.03-0.06-0.05c0,0.01,0.01,0.01,0.01,0.02
			C38.23,65.13,38.24,65.15,38.26,65.16z"/>
		<path class="st11" d="M36.78,64.32c0.51,0.21,0.99,0.48,1.43,0.8c0-0.01-0.01-0.01-0.01-0.02c-0.39-0.36-0.82-0.68-1.28-0.94
			C36.88,64.22,36.83,64.27,36.78,64.32z"/>
		<path class="st12" d="M27.24,70.72c0-2.82,1.69-5.24,4.11-6.32c-0.21-0.19-0.37-0.41-0.47-0.64c-2.53,1.03-4.32,3.51-4.32,6.41
			c0,1.37,0.4,2.64,1.08,3.71c0.46,0.72,1.05,1.35,1.74,1.86c-0.41-0.39-0.77-0.83-1.08-1.32C27.64,73.35,27.24,72.08,27.24,70.72z"
			/>
		<path class="st13" d="M40.41,70.16c0-1.97-0.83-3.75-2.15-5.01c-0.02-0.01-0.03-0.02-0.05-0.03c0.68,1.07,1.07,2.33,1.07,3.69
			c0,3.82-3.1,6.92-6.92,6.92c-1.51,0-2.91-0.49-4.05-1.32c0.31,0.48,0.67,0.92,1.08,1.32c1.15,0.85,2.56,1.35,4.09,1.35
			C37.31,77.08,40.41,73.99,40.41,70.16z"/>
		<path class="st14" d="M34.03,65.27c-1.11,0-2.09-0.34-2.67-0.87c-2.42,1.08-4.11,3.5-4.11,6.32c0,1.36,0.4,2.62,1.07,3.69
			c1.14,0.83,2.54,1.32,4.05,1.32c3.82,0,6.92-3.1,6.92-6.92c0-1.36-0.4-2.62-1.07-3.69c-0.44-0.32-0.92-0.59-1.43-0.8
			C36.21,64.89,35.19,65.27,34.03,65.27z"/>
		<path class="st13" d="M33.49,63.25c-0.92,0-1.8,0.18-2.6,0.51c0.09,0.23,0.25,0.45,0.47,0.64c0.58,0.52,1.56,0.87,2.67,0.87
			c1.16,0,2.18-0.38,2.75-0.95c0.05-0.05,0.1-0.1,0.14-0.16C35.91,63.58,34.74,63.25,33.49,63.25z"/>
	</g>
	<g>
		<path class="st11" d="M30.83,43.47c-0.02-0.02-0.04-0.03-0.06-0.05c0,0.01,0.01,0.01,0.01,0.02
			C30.8,43.44,30.82,43.45,30.83,43.47z"/>
		<path class="st11" d="M29.35,42.63c0.51,0.21,0.99,0.48,1.43,0.8c0-0.01-0.01-0.01-0.01-0.02c-0.39-0.36-0.82-0.68-1.28-0.94
			C29.45,42.53,29.41,42.58,29.35,42.63z"/>
		<path class="st12" d="M19.82,49.03c0-2.82,1.69-5.24,4.11-6.32c-0.21-0.19-0.37-0.41-0.47-0.64c-2.53,1.03-4.32,3.51-4.32,6.41
			c0,1.37,0.4,2.64,1.08,3.71c0.46,0.72,1.05,1.35,1.74,1.86c-0.41-0.39-0.77-0.83-1.08-1.32C20.22,51.65,19.82,50.39,19.82,49.03z"
			/>
		<path class="st13" d="M32.99,48.47c0-1.97-0.83-3.75-2.15-5.01c-0.02-0.01-0.03-0.02-0.05-0.03c0.68,1.07,1.07,2.33,1.07,3.69
			c0,3.82-3.1,6.92-6.92,6.92c-1.51,0-2.91-0.49-4.05-1.32c0.31,0.48,0.67,0.92,1.08,1.32c1.15,0.85,2.56,1.35,4.09,1.35
			C29.89,55.39,32.99,52.29,32.99,48.47z"/>
		<path class="st14" d="M26.6,43.58c-1.11,0-2.09-0.34-2.67-0.87c-2.42,1.08-4.11,3.5-4.11,6.32c0,1.36,0.4,2.62,1.07,3.69
			c1.14,0.83,2.54,1.32,4.05,1.32c3.82,0,6.92-3.1,6.92-6.92c0-1.36-0.4-2.62-1.07-3.69c-0.44-0.32-0.92-0.59-1.43-0.8
			C28.78,43.2,27.77,43.58,26.6,43.58z"/>
		<path class="st13" d="M26.07,41.56c-0.92,0-1.8,0.18-2.6,0.51c0.09,0.23,0.25,0.45,0.47,0.64c0.58,0.52,1.56,0.87,2.67,0.87
			c1.16,0,2.18-0.38,2.75-0.95c0.05-0.05,0.1-0.1,0.14-0.16C28.49,41.89,27.32,41.56,26.07,41.56z"/>
	</g>
	<g>
		<path class="st11" d="M45.6,28.35c-0.02-0.02-0.04-0.03-0.06-0.05c0,0.01,0.01,0.01,0.01,0.02C45.57,28.33,45.58,28.34,45.6,28.35
			z"/>
		<path class="st11" d="M44.12,27.52c0.51,0.21,0.99,0.48,1.43,0.8c0-0.01-0.01-0.01-0.01-0.02c-0.39-0.36-0.82-0.68-1.28-0.94
			C44.22,27.41,44.17,27.46,44.12,27.52z"/>
		<path class="st12" d="M34.59,33.92c0-2.82,1.69-5.24,4.11-6.32c-0.21-0.19-0.37-0.41-0.47-0.64c-2.53,1.03-4.32,3.51-4.32,6.41
			c0,1.37,0.4,2.64,1.08,3.71c0.46,0.72,1.05,1.35,1.74,1.86c-0.41-0.39-0.77-0.83-1.08-1.32C34.98,36.54,34.59,35.28,34.59,33.92z"
			/>
		<path class="st13" d="M47.75,33.36c0-1.97-0.83-3.75-2.15-5.01c-0.02-0.01-0.03-0.02-0.05-0.03c0.68,1.07,1.07,2.33,1.07,3.69
			c0,3.82-3.1,6.92-6.92,6.92c-1.51,0-2.91-0.49-4.05-1.32c0.31,0.48,0.67,0.92,1.08,1.32c1.15,0.85,2.56,1.35,4.09,1.35
			C44.66,40.28,47.75,37.18,47.75,33.36z"/>
		<path class="st14" d="M41.37,28.47c-1.11,0-2.09-0.34-2.67-0.87c-2.42,1.08-4.11,3.5-4.11,6.32c0,1.36,0.4,2.62,1.07,3.69
			c1.14,0.83,2.54,1.32,4.05,1.32c3.82,0,6.92-3.1,6.92-6.92c0-1.36-0.4-2.62-1.07-3.69c-0.44-0.32-0.92-0.59-1.43-0.8
			C43.55,28.09,42.53,28.47,41.37,28.47z"/>
		<path class="st13" d="M40.84,26.44c-0.92,0-1.8,0.18-2.6,0.51c0.09,0.23,0.25,0.45,0.47,0.64c0.58,0.52,1.56,0.87,2.67,0.87
			c1.16,0,2.18-0.38,2.75-0.95c0.05-0.05,0.1-0.1,0.14-0.16C43.25,26.78,42.08,26.44,40.84,26.44z"/>
	</g>
	<g>
		<path class="st11" d="M67.41,21.55c-0.02-0.02-0.04-0.03-0.06-0.05c0,0.01,0.01,0.01,0.01,0.02
			C67.38,21.53,67.39,21.54,67.41,21.55z"/>
		<path class="st11" d="M65.93,20.71c0.51,0.21,0.99,0.48,1.43,0.8c0-0.01-0.01-0.01-0.01-0.02c-0.39-0.36-0.82-0.68-1.28-0.94
			C66.03,20.61,65.98,20.66,65.93,20.71z"/>
		<path class="st12" d="M56.4,27.11c0-2.82,1.69-5.24,4.11-6.32c-0.21-0.19-0.37-0.41-0.47-0.64c-2.53,1.03-4.32,3.51-4.32,6.41
			c0,1.37,0.4,2.64,1.08,3.71c0.46,0.72,1.05,1.35,1.74,1.86c-0.41-0.39-0.77-0.83-1.08-1.32C56.8,29.74,56.4,28.47,56.4,27.11z"/>
		<path class="st13" d="M69.56,26.56c0-1.97-0.83-3.75-2.15-5.01c-0.02-0.01-0.03-0.02-0.05-0.03c0.68,1.07,1.07,2.33,1.07,3.69
			c0,3.82-3.1,6.92-6.92,6.92c-1.51,0-2.91-0.49-4.05-1.32c0.31,0.48,0.67,0.92,1.08,1.32c1.15,0.85,2.56,1.35,4.09,1.35
			C66.47,33.47,69.56,30.38,69.56,26.56z"/>
		<path class="st14" d="M63.18,21.66c-1.11,0-2.09-0.34-2.67-0.87c-2.42,1.08-4.11,3.5-4.11,6.32c0,1.36,0.4,2.62,1.07,3.69
			c1.14,0.83,2.54,1.32,4.05,1.32c3.82,0,6.92-3.1,6.92-6.92c0-1.36-0.4-2.62-1.07-3.69c-0.44-0.32-0.92-0.59-1.43-0.8
			C65.36,21.28,64.34,21.66,63.18,21.66z"/>
		<path class="st13" d="M62.65,19.64c-0.92,0-1.8,0.18-2.6,0.51c0.09,0.23,0.25,0.45,0.47,0.64c0.58,0.52,1.56,0.87,2.67,0.87
			c1.16,0,2.18-0.38,2.75-0.95c0.05-0.05,0.1-0.1,0.14-0.16C65.06,19.98,63.9,19.64,62.65,19.64z"/>
	</g>
	<g>
		<path class="st11" d="M78.87,36.33c-0.02-0.02-0.04-0.03-0.06-0.05c0,0.01,0.01,0.01,0.01,0.02
			C78.84,36.31,78.85,36.32,78.87,36.33z"/>
		<path class="st11" d="M77.39,35.49c0.51,0.21,0.99,0.48,1.43,0.8c0-0.01-0.01-0.01-0.01-0.02c-0.39-0.36-0.82-0.68-1.28-0.94
			C77.49,35.39,77.44,35.44,77.39,35.49z"/>
		<path class="st12" d="M67.86,41.89c0-2.82,1.69-5.24,4.11-6.32c-0.21-0.19-0.37-0.41-0.47-0.64c-2.53,1.03-4.32,3.51-4.32,6.41
			c0,1.37,0.4,2.64,1.08,3.71c0.46,0.72,1.05,1.35,1.74,1.86c-0.41-0.39-0.77-0.83-1.08-1.32C68.25,44.52,67.86,43.25,67.86,41.89z"
			/>
		<path class="st13" d="M81.02,41.34c0-1.97-0.83-3.75-2.15-5.01c-0.02-0.01-0.03-0.02-0.05-0.03c0.68,1.07,1.07,2.33,1.07,3.69
			c0,3.82-3.1,6.92-6.92,6.92c-1.51,0-2.91-0.49-4.05-1.32c0.31,0.48,0.67,0.92,1.08,1.32c1.15,0.85,2.56,1.35,4.09,1.35
			C77.92,48.25,81.02,45.16,81.02,41.34z"/>
		<path class="st14" d="M74.64,36.44c-1.11,0-2.09-0.34-2.67-0.87c-2.42,1.08-4.11,3.5-4.11,6.32c0,1.36,0.4,2.62,1.07,3.69
			c1.14,0.83,2.54,1.32,4.05,1.32c3.82,0,6.92-3.1,6.92-6.92c0-1.36-0.4-2.62-1.07-3.69c-0.44-0.32-0.92-0.59-1.43-0.8
			C76.82,36.06,75.8,36.44,74.64,36.44z"/>
		<path class="st13" d="M74.1,34.42c-0.92,0-1.8,0.18-2.6,0.51c0.09,0.23,0.25,0.45,0.47,0.64c0.58,0.52,1.56,0.87,2.67,0.87
			c1.16,0,2.18-0.38,2.75-0.95c0.05-0.05,0.1-0.1,0.14-0.16C76.52,34.76,75.35,34.42,74.1,34.42z"/>
	</g>
	<g>
		<path class="st11" d="M83.24,57.02c-0.02-0.02-0.04-0.03-0.06-0.05c0,0.01,0.01,0.01,0.01,0.02C83.21,56.99,83.22,57,83.24,57.02z
			"/>
		<path class="st11" d="M81.76,56.18c0.51,0.21,0.99,0.48,1.43,0.8c0-0.01-0.01-0.01-0.01-0.02c-0.39-0.36-0.82-0.68-1.28-0.94
			C81.86,56.08,81.81,56.13,81.76,56.18z"/>
		<path class="st12" d="M72.22,62.58c0-2.82,1.69-5.24,4.11-6.32c-0.21-0.19-0.37-0.41-0.47-0.64c-2.53,1.03-4.32,3.51-4.32,6.41
			c0,1.37,0.4,2.64,1.08,3.71c0.46,0.72,1.05,1.35,1.74,1.86c-0.41-0.39-0.77-0.83-1.08-1.32C72.62,65.2,72.22,63.94,72.22,62.58z"
			/>
		<path class="st13" d="M85.39,62.02c0-1.97-0.83-3.75-2.15-5.01c-0.02-0.01-0.03-0.02-0.05-0.03c0.68,1.07,1.07,2.33,1.07,3.69
			c0,3.82-3.1,6.92-6.92,6.92c-1.51,0-2.91-0.49-4.05-1.32c0.31,0.48,0.67,0.92,1.08,1.32c1.15,0.85,2.56,1.35,4.09,1.35
			C82.29,68.94,85.39,65.84,85.39,62.02z"/>
		<path class="st14" d="M79.01,57.13c-1.11,0-2.09-0.34-2.67-0.87c-2.42,1.08-4.11,3.5-4.11,6.32c0,1.36,0.4,2.62,1.07,3.69
			c1.14,0.83,2.54,1.32,4.05,1.32c3.82,0,6.92-3.1,6.92-6.92c0-1.36-0.4-2.62-1.07-3.69c-0.44-0.32-0.92-0.59-1.43-0.8
			C81.19,56.75,80.17,57.13,79.01,57.13z"/>
		<path class="st13" d="M78.47,55.11c-0.92,0-1.8,0.18-2.6,0.51c0.09,0.23,0.25,0.45,0.47,0.64c0.58,0.52,1.56,0.87,2.67,0.87
			c1.16,0,2.18-0.38,2.75-0.95c0.05-0.05,0.1-0.1,0.14-0.16C80.89,55.44,79.72,55.11,78.47,55.11z"/>
	</g>
	<g>
		<path class="st11" d="M57.89,51.46c-0.02-0.02-0.04-0.03-0.06-0.05c0,0.01,0.01,0.01,0.01,0.02
			C57.86,51.44,57.88,51.45,57.89,51.46z"/>
		<path class="st11" d="M56.42,50.63c0.51,0.21,0.99,0.48,1.43,0.8c0-0.01-0.01-0.01-0.01-0.02c-0.39-0.36-0.82-0.68-1.28-0.94
			C56.52,50.52,56.47,50.58,56.42,50.63z"/>
		<path class="st12" d="M46.88,57.03c0-2.82,1.69-5.24,4.11-6.32c-0.21-0.19-0.37-0.41-0.47-0.64c-2.53,1.03-4.32,3.51-4.32,6.41
			c0,1.37,0.4,2.64,1.08,3.71c0.46,0.72,1.05,1.35,1.74,1.86c-0.41-0.39-0.77-0.83-1.08-1.32C47.28,59.65,46.88,58.39,46.88,57.03z"
			/>
		<path class="st13" d="M60.05,56.47c0-1.97-0.83-3.75-2.15-5.01c-0.02-0.01-0.03-0.02-0.05-0.03c0.68,1.07,1.07,2.33,1.07,3.69
			c0,3.82-3.1,6.92-6.92,6.92c-1.51,0-2.91-0.49-4.05-1.32c0.31,0.48,0.67,0.92,1.08,1.32c1.15,0.85,2.56,1.35,4.09,1.35
			C56.95,63.39,60.05,60.29,60.05,56.47z"/>
		<path class="st14" d="M53.67,51.58c-1.11,0-2.09-0.34-2.67-0.87c-2.42,1.08-4.11,3.5-4.11,6.32c0,1.36,0.4,2.62,1.07,3.69
			c1.14,0.83,2.54,1.32,4.05,1.32c3.82,0,6.92-3.1,6.92-6.92c0-1.36-0.4-2.62-1.07-3.69c-0.44-0.32-0.92-0.59-1.43-0.8
			C55.85,51.2,54.83,51.58,53.67,51.58z"/>
		<path class="st13" d="M53.13,49.55c-0.92,0-1.8,0.18-2.6,0.51c0.09,0.23,0.25,0.45,0.47,0.64c0.58,0.52,1.56,0.87,2.67,0.87
			c1.16,0,2.18-0.38,2.75-0.95c0.05-0.05,0.1-0.1,0.14-0.16C55.55,49.89,54.38,49.55,53.13,49.55z"/>
	</g>
	<g>
		<path class="st11" d="M74.69,71.77c-0.02-0.02-0.04-0.03-0.06-0.05c0,0.01,0.01,0.01,0.01,0.02
			C74.66,71.75,74.68,71.76,74.69,71.77z"/>
		<path class="st11" d="M73.21,70.94c0.51,0.21,0.99,0.48,1.43,0.8c0-0.01-0.01-0.01-0.01-0.02c-0.39-0.36-0.82-0.68-1.28-0.94
			C73.31,70.83,73.26,70.89,73.21,70.94z"/>
		<path class="st12" d="M63.68,77.34c0-2.82,1.69-5.24,4.11-6.32c-0.21-0.19-0.37-0.41-0.47-0.64c-2.53,1.03-4.32,3.51-4.32,6.41
			c0,1.37,0.4,2.64,1.08,3.71c0.46,0.72,1.05,1.35,1.74,1.86c-0.41-0.39-0.77-0.83-1.08-1.32C64.08,79.96,63.68,78.7,63.68,77.34z"
			/>
		<path class="st13" d="M76.84,76.78c0-1.97-0.83-3.75-2.15-5.01c-0.02-0.01-0.03-0.02-0.05-0.03c0.68,1.07,1.07,2.33,1.07,3.69
			c0,3.82-3.1,6.92-6.92,6.92c-1.51,0-2.91-0.49-4.05-1.32c0.31,0.48,0.67,0.92,1.08,1.32c1.15,0.85,2.56,1.35,4.09,1.35
			C73.75,83.7,76.84,80.6,76.84,76.78z"/>
		<path class="st14" d="M70.46,71.89c-1.11,0-2.09-0.34-2.67-0.87c-2.42,1.08-4.11,3.5-4.11,6.32c0,1.36,0.4,2.62,1.07,3.69
			c1.14,0.83,2.54,1.32,4.05,1.32c3.82,0,6.92-3.1,6.92-6.92c0-1.36-0.4-2.62-1.07-3.69c-0.44-0.32-0.92-0.59-1.43-0.8
			C72.64,71.51,71.63,71.89,70.46,71.89z"/>
		<path class="st13" d="M69.93,69.87c-0.92,0-1.8,0.18-2.6,0.51c0.09,0.23,0.25,0.45,0.47,0.64c0.58,0.52,1.56,0.87,2.67,0.87
			c1.16,0,2.18-0.38,2.75-0.95c0.05-0.05,0.1-0.1,0.14-0.16C72.34,70.2,71.18,69.87,69.93,69.87z"/>
	</g>
</g>
</svg>
