<?xml version="1.0" encoding="utf-8"?>
<!-- Generator: Adobe Illustrator 23.1.1, SVG Export Plug-In . SVG Version: 6.00 Build 0)  -->
<svg version="1.1" id="Layer_1" xmlns="http://www.w3.org/2000/svg" xmlns:xlink="http://www.w3.org/1999/xlink" x="0px" y="0px"
	 viewBox="0 0 108 108" style="enable-background:new 0 0 108 108;" xml:space="preserve">
<style type="text/css">
	.st0{fill:#963951;}
	.st1{fill:#A0526C;}
	.st2{fill:#9B4157;}
	.st3{fill:#8D354C;}
	.st4{fill:#B27B18;}
	.st5{fill:#A4C839;}
	.st6{fill:#832F46;}
	.st7{fill:#84B541;}
</style>
<g>
	<path class="st0" d="M86.5,47.3c-0.4-0.8-1.5-2.2-2.3-3.7c-0.2-0.1-0.4-0.2-0.6-0.3c0.8,1.1,2.1,3,3.3,4.7
		C86.7,47.8,86.6,47.5,86.5,47.3z"/>
	<path class="st1" d="M66.3,79.2c3.5,3.1,11.5-2.2,12.9-3.3c1.4-1.1,6.6-12.8,7.2-15c0.5-2.3-4.6-14.6-5.4-16.9
		c-0.3-0.7-0.5-1.3-0.8-1.8c-2.1-0.6-3.9-0.9-4.9-1l-3.8-0.6c-0.2,0-0.4,0-0.6,0c-2.9,0.1-5.9-0.7-9.8,2c-4.2,2.9-8.5,4.9-9.9,9.7
		c-0.3,1-0.6,2.4-1,4.1c0.6,2.1,1.2,4.3,1.5,5.5C52.2,64.5,62.8,76.1,66.3,79.2z"/>
	<path class="st2" d="M51.9,70.7c2.7,4.2,4.6,8.9,7.8,10.2s9.8,7.1,12.3,6.2c2.6-0.9,7.3-3.8,10.8-8c3.6-4.2,6.6-19.2,6.5-21.1
		c-0.1-1.7-1.5-7.4-2.5-9.9c-1.2-1.7-2.5-3.5-3.3-4.7c-1.2-0.5-2.3-0.9-3.4-1.2c0.2,0.5,0.5,1.1,0.8,1.8c0.8,2.2,6,14.6,5.4,16.9
		c-0.5,2.3-5.7,14-7.2,15c-1.4,1.1-9.4,6.4-12.9,3.3c-3.5-3.1-14.1-14.8-14.7-17.1c-0.3-1.2-1-3.4-1.5-5.5c-0.5,2.8-1,6.3-1.2,9.7
		C49.9,67.7,51,69.3,51.9,70.7z"/>
	<path class="st3" d="M84.3,43.7c0,0-0.1,0-0.1,0c0.9,1.4,1.9,2.8,2.3,3.7c0.1,0.2,0.2,0.5,0.3,0.8c1,2.5,2.4,8.3,2.5,9.9
		c0.1,1.9-3,16.8-6.5,21.1c-3.6,4.2-8.3,7.2-10.8,8c-2.6,0.9-9.2-4.9-12.3-6.2s-5.1-6-7.8-10.2c-0.9-1.4-1.9-3-2.9-4.5
		c-0.1,1.7-0.1,3.3,0,4.8c0.1,2.4,0.5,4.5,1.2,5.9c2.6,5.4,11,12.1,14.1,13.4c3.1,1.4,8.1,1.4,11.3,0.4c3.2-1,15.9-10.2,17.8-20.9
		C95.2,59.2,87.8,45.3,84.3,43.7z"/>
	<path class="st1" d="M68.9,46.2c1-0.3,4.5,0.3,5.2,1.1s3.2,3.4,1.6,5.7c-1.6,2.3-5.3,5.5-6.7,5.4c-1.4-0.2-5.2-0.9-5.9-2.6
		c-0.7-1.7-2-3.8-1.9-5.5c0.1-1.7,0.5-3.4,1.8-3.9C64.3,45.9,68.9,46.2,68.9,46.2z"/>
	<path class="st4" d="M73.9,36.8c-0.6,0.4-0.5,1.3-0.6,2c-0.2,0.6,0.2,1.4-0.7,2.1c-0.9,0.7-1.8,1.1-1.4,1.4
		c0.4,0.3,2.8,0.3,3.5,0.2s2,0.4,2.5,0.4c0.5,0,1-0.2,0.5-1.2c-0.5-1-1.9-2.2-1.7-2.7c0.1-0.6,0.4-1.9,0.6-2.4
		c0.2-0.5,0.5-1.4,0.2-1.4c-0.3,0,0,0.9-0.8,1.1S73.9,36.8,73.9,36.8z"/>
	<path class="st5" d="M83.4,25.2c-2.7,1.7-3,6.6-7,8c-4.1,1.4-10.2-0.4-12.1-0.8c-1.9-0.3-2.1,1.3-0.3-1.5c1.9-2.8,1.1-3.6,3.3-5.5
		s8.1-2.7,9.7-1.9C78.6,24.4,83.4,25.2,83.4,25.2z"/>
	<path class="st5" d="M91.6,35.9c-2.1,1.3-2.3,5.1-5.5,6.3c-3.2,1.1-8-0.3-9.5-0.6c-1.5-0.3-1.7,1-0.2-1.1c1.5-2.1,0.8-2.8,2.6-4.3
		c1.7-1.5,6.3-2.1,7.6-1.5C87.9,35.2,91.6,35.9,91.6,35.9z"/>
	<path class="st0" d="M74,43.6c-0.2-1.3-0.9-3.6-1.4-5.8c-0.2-0.2-0.4-0.4-0.7-0.6c0.5,1.8,1.4,4.8,2.2,7.6
		C74.1,44.4,74.1,44,74,43.6z"/>
	<path class="st2" d="M33.2,76.2c3.1,5.6,16,2.3,18.4,1.5C54,77,66,64.1,67.7,61.3c1.7-2.7,0.6-21.2,0.5-24.5c0-1-0.1-1.9-0.2-2.7
		c-2.5-1.7-4.7-2.9-6-3.5l-4.7-2.4c-0.3-0.1-0.6-0.2-0.8-0.3c-3.8-1.2-7.5-3.5-13.7-1.8c-6.7,1.9-13.3,2.6-17.4,8.2
		c-0.9,1.2-1.9,2.9-3.1,4.9c-0.2,3-0.3,6.2-0.5,7.9C21.5,50.5,30.1,70.6,33.2,76.2z"/>
	<path class="st3" d="M18.2,58.5c1.6,6.7,2,13.7,5.5,16.8S33.3,89.1,37,89.1c3.7,0,11.2-1.7,17.8-5.6c6.5-3.9,17.3-22.1,18-24.6
		c0.7-2.2,1.4-10.3,1.3-14.1c-0.8-2.8-1.6-5.7-2.2-7.6c-1.3-1.2-2.6-2.2-3.9-3.1c0.1,0.8,0.2,1.7,0.2,2.7c0.1,3.3,1.2,21.8-0.5,24.5
		C66,64.1,54,77,51.6,77.8c-2.4,0.8-15.2,4.1-18.4-1.5c-3.1-5.6-11.7-25.7-11.4-29c0.2-1.7,0.3-4.9,0.5-7.9
		c-1.9,3.4-4.1,7.7-5.9,12.1C17.1,53.8,17.7,56.3,18.2,58.5z"/>
	<path class="st6" d="M72.7,37.9c0,0-0.1-0.1-0.1-0.1c0.5,2.2,1.2,4.6,1.4,5.8c0,0.3,0.1,0.7,0.1,1.2c0.2,3.8-0.6,11.9-1.3,14.1
		c-0.8,2.5-11.5,20.6-18,24.6c-6.5,3.9-14,5.6-17.8,5.6c-3.7,0-9.8-10.5-13.3-13.7s-3.9-10.1-5.5-16.8c-0.5-2.2-1.2-4.8-1.8-7.1
		c-0.9,2.1-1.6,4.3-2.2,6.3c-0.9,3.2-1.4,6.1-1.1,8.3c0.9,8.2,9,20.8,12.3,23.9c3.4,3.2,10,5.4,14.6,5.6c4.7,0.2,25.4-6.2,32.7-19.3
		C80,63.2,76.7,41.7,72.7,37.9z"/>
	<path class="st1" d="M51.5,34.3c1.4,0.1,5.8,2.4,6.3,3.8c0.5,1.4,2.6,5.9-0.4,8.2c-3.1,2.3-9.4,4.8-11.1,4s-6.5-3.5-6.5-6
		s-0.9-6,0-8.1c0.9-2.1,2.2-4.2,4.1-4.3C45.6,31.8,51.5,34.3,51.5,34.3z"/>
	<path class="st4" d="M62.3,24.3c-1,0.3-1.2,1.5-1.7,2.3s-0.3,1.9-1.8,2.4c-1.5,0.5-2.8,0.7-2.5,1.2c0.3,0.5,3.5,1.6,4.5,1.8
		c1,0.2,2.4,1.5,3.1,1.7c0.7,0.3,1.4,0.2,1.2-1.4s-1.5-3.7-1-4.3c0.4-0.7,1.4-2.3,1.9-2.9c0.5-0.6,1.3-1.6,0.9-1.7
		c-0.4-0.1-0.3,1.2-1.6,1.1C63.9,24.3,62.3,24.3,62.3,24.3z"/>
	<path class="st7" d="M59.5,29.8c-0.2-1.3,0.7-2.8-0.1-8.9S57.3,10,52.5,9.6s-5.5,1.2-9-0.9c-3.4-2.2-3.4-2.2-3.4-2.2
		s0.6,5.3,1.8,12.6c1.2,7.3,9.1,9.7,12.4,10.1C57.5,29.6,59.5,29.8,59.5,29.8z"/>
</g>
</svg>
