<svg xmlns="http://www.w3.org/2000/svg" version="1.1" xmlns:xlink="http://www.w3.org/1999/xlink" xmlns:svgjs="http://svgjs.dev/svgjs" viewBox="0 0 108 108" style="" x="0" y="0"><style type="text/css">
	.st0{fill:#D8AD8D;}
	.st1{fill:#EA9D52;}
	.st2{fill:#FDBB2A;}
	.st3{fill:#FFDCAA;}
	.st4{fill:#7F5F00;}
	.st5{fill:#573F00;}
	.st6{fill:none;stroke:#905D00;stroke-width:3.6478;stroke-linecap:round;stroke-linejoin:round;stroke-miterlimit:10;}
</style><g><path class="st0" d="M67.3,32.5H46c-3,0-5.4-2.4-5.4-5.4v0c0-3,2.4-5.4,5.4-5.4h21.4c3,0,5.4,2.4,5.4,5.4v0
	C72.8,30.1,70.3,32.5,67.3,32.5z"></path><path class="st1" d="M74.1,43.3H39.2c-3,0-5.4-2.4-5.4-5.4v0c0-3,2.4-5.4,5.4-5.4h34.9c3,0,5.4,2.4,5.4,5.4v0
	C79.5,40.9,77.1,43.3,74.1,43.3z"></path><path class="st2" d="M81.2,54.1h-49c-3,0-5.4-2.4-5.4-5.4v0c0-3,2.4-5.4,5.4-5.4h49c3,0,5.4,2.4,5.4,5.4v0
	C86.6,51.7,84.2,54.1,81.2,54.1z"></path><path class="st3" d="M86.1,65h-59c-3,0-5.4-2.4-5.4-5.4v0c0-3,2.4-5.4,5.4-5.4h59c3,0,5.4,2.4,5.4,5.4v0C91.6,62.5,89.1,65,86.1,65z
	"></path><path class="st2" d="M81.2,75.8h-49c-3,0-5.4-2.4-5.4-5.4v0c0-3,2.4-5.4,5.4-5.4h49c3,0,5.4,2.4,5.4,5.4v0
	C86.6,73.4,84.2,75.8,81.2,75.8z"></path><path class="st1" d="M74.1,86.6H39.2c-3,0-5.4-2.4-5.4-5.4v0c0-3,2.4-5.4,5.4-5.4h34.9c3,0,5.4,2.4,5.4,5.4v0
	C79.5,84.2,77.1,86.6,74.1,86.6z"></path><path class="st0" d="M67.3,97.5H46c-3,0-5.4-2.4-5.4-5.4v0c0-3,2.4-5.4,5.4-5.4h21.4c3,0,5.4,2.4,5.4,5.4v0
	C72.8,95,70.3,97.5,67.3,97.5z"></path><circle class="st4" cx="56.7" cy="59.6" r="9.5"></circle><path class="st5" d="M81.9,75.5c0.6,0,1,0.2,1.3,0.7c0.4,0.7,0.8,0.8,1.5,0.3c1-0.7,2.1-1.4,3.2-2c0.3-0.1,0.6-0.2,0.9-0.4
	c0.5-0.2,0.9-0.1,1.2,0.4c0.2,0.5,0.3,1.1-0.2,1.4c-0.5,0.3-0.7,0.7-0.7,1.3c0,0.5-0.3,0.8-0.8,1.1c-0.3,0.2-0.3,0.4,0,0.6
	c0.4,0.4,0.8,0.8,1.1,1.2c0.3,0.3,0.3,0.7,0.1,1c-1,1.6-2.4,2.8-3.9,3.8c-0.3,0.2-0.5,0.1-0.7-0.1c-0.5-0.4-0.9-0.7-1.3-1.1
	c-0.3-0.3-0.6-0.4-0.9,0c-0.3,0.4-0.7,0.6-1.1,0.7c-0.6,0-0.9,0.3-1.3,0.7c-0.4,0.4-0.9,0.5-1.4,0.2c-0.5-0.3-0.5-0.8-0.3-1.3
	c0.5-1.3,1.2-2.4,2-3.5c0.2-0.3,0.4-0.5,0.5-0.8c0.2-0.4,0.2-0.7-0.3-1c-0.9-0.4-1.2-1.3-0.7-2.2C80.4,76.1,81,75.5,81.9,75.5z"></path><path class="st5" d="M91.4,87.1c-1.1-1.1-2.4-0.9-3.7-0.8c-0.4,0-1,0-1.1-0.4c-0.1-0.4,0.4-0.5,0.7-0.8c1-0.9,1.9-1.8,2.7-2.9
	c0.1-0.1,0.2-0.3,0.4-0.3c0.2,0,0.2,0.2,0.3,0.4c0.2,0.6,0.3,1.3,0.1,2c-0.2,0.8,0.1,1.3,0.5,1.9C91.3,86.5,91.5,86.7,91.4,87.1z"></path><path class="st5" d="M30.4,47.4c-0.5,0.3-1,0.3-1.5,0c-0.7-0.5-1.2-0.4-1.6,0.5c-0.6,1.2-1.2,2.3-1.9,3.4c-0.2,0.3-0.4,0.5-0.7,0.8
	c-0.4,0.4-0.8,0.5-1.3,0.2c-0.5-0.3-0.8-0.8-0.5-1.4c0.3-0.5,0.3-1,0-1.5c-0.2-0.5-0.1-0.9,0.1-1.4c0.2-0.3,0.1-0.5-0.3-0.6
	c-0.6-0.1-1.1-0.4-1.7-0.6c-0.4-0.2-0.6-0.4-0.6-0.9c0.2-1.9,0.8-3.7,1.7-5.4c0.1-0.3,0.4-0.3,0.6-0.3c0.6,0.1,1.2,0.2,1.8,0.4
	c0.4,0.1,0.7,0.1,0.8-0.5c0.1-0.5,0.3-0.9,0.7-1.1c0.5-0.3,0.7-0.7,0.8-1.2c0.2-0.6,0.5-0.9,1.2-0.9c0.7,0,0.9,0.5,0.9,1
	c0.2,1.4,0.1,2.8-0.1,4.2c0,0.3-0.1,0.6-0.1,1c0,0.5,0.2,0.7,0.8,0.7c1.1-0.1,1.7,0.5,1.7,1.6C31.4,46.1,31.1,46.9,30.4,47.4z"></path><path class="st5" d="M15.9,41.5c1.6,0.4,2.6-0.4,3.8-1.1c0.3-0.2,0.9-0.5,1.2-0.2c0.3,0.3-0.1,0.7-0.3,1c-0.5,1.3-0.8,2.6-1,3.9
	c0,0.2,0,0.4-0.2,0.4c-0.2,0.1-0.3-0.1-0.4-0.2c-0.5-0.5-0.9-1.1-1.1-1.7c-0.2-0.8-0.8-1.2-1.4-1.5C16.3,42,16.1,41.9,15.9,41.5z"></path><path class="st6" d="M21.7,21.8c5.5,0.5,9.5,1.2,9.5,1.2S44,11.3,56.1,11.3S90.4,13,90.4,13"></path><line class="st6" x1="75.2" y1="11.3" x2="83.3" y2="4.2"></line><line class="st6" x1="30.2" y1="23.1" x2="34.8" y2="28.1"></line><line class="st6" x1="83.3" y1="13.4" x2="79.2" y2="19.1"></line><line class="st6" x1="56.1" y1="11.3" x2="56.1" y2="27.5"></line></g></svg>