<svg xmlns="http://www.w3.org/2000/svg" version="1.1" xmlns:xlink="http://www.w3.org/1999/xlink" xmlns:svgjs="http://svgjs.dev/svgjs" viewBox="0 0 108 108" style="" x="0" y="0"><style type="text/css">
	.st0{fill:#EEBB6D;}
	.st1{fill:#BF7726;}
	.st2{fill:none;}
	.st3{fill:none;stroke:#EC008C;stroke-width:1.2515;stroke-miterlimit:10;}
	.st4{fill:#D89528;}
	.st5{fill:none;stroke:#9E5920;stroke-width:1.8772;stroke-linecap:round;stroke-miterlimit:10;}
	.st6{fill:none;stroke:#9E5920;stroke-linecap:round;stroke-miterlimit:10;}
	.st7{fill:#8E5919;}
</style><g><path class="st0" d="M70.6,20.6c-2.9-8.9-9.6-14.7-15-13.1c-0.1,0.6-0.2,1.2-0.3,1.8c4.2,1.5,8.3,6.3,10.4,12.9
	C67,26,67.3,29.8,66.8,33c1.5,0.6,3.1,0.7,4.6,0.2C72.3,29.7,72.1,25.2,70.6,20.6z"></path><path class="st1" d="M65.7,22.2c-2.1-6.5-6.3-11.4-10.4-12.9c-0.4,3.2-0.1,7,1.1,10.8c2.1,6.5,6.3,11.4,10.4,12.9
	C67.3,29.8,67,26,65.7,22.2z"></path><path class="st0" d="M81,20.6c2.9-8.9,9.6-14.7,15-13.1c0.1,0.6,0.2,1.2,0.3,1.8c-4.2,1.5-8.3,6.3-10.4,12.9
	c-1.2,3.8-1.6,7.6-1.1,10.8c-1.5,0.6-3.1,0.7-4.6,0.2C79.3,29.7,79.5,25.2,81,20.6z"></path><path class="st1" d="M85.8,22.2c2.1-6.5,6.3-11.4,10.4-12.9c0.4,3.2,0.1,7-1.1,10.8c-2.1,6.5-6.3,11.4-10.4,12.9
	C84.3,29.8,84.6,26,85.8,22.2z"></path><path class="st2" d="M47.1,87.8c0,0,0.7,0.1,1.6,0.1c0,0,0-0.1,0-0.1C47.8,87.8,47.1,87.8,47.1,87.8z"></path><path class="st0" d="M17.5,76.5l-3.4-2.6l0.8,3.9l-4.4-3.9l1.8,3.9l-2.5-1.2c0,0-3,4.5,0,8.2c2.7,3.4,11.5,8.4,20.8,5.2
	c-1.4-0.5-3.3-1.3-6-2.5C20.2,85.5,18.4,81.2,17.5,76.5z"></path><path class="st0" d="M64.7,83.5c-0.3-1.9,0-4.8,0-4.8s-2.8,1.5-4.5,1.8c-1.6,0.3-5.1-2.5-6.2-3.9s-4.5-5.9-5.5-6.4
	c-1-0.5-3.8-3.5-7.1-3.6c-3.3-0.2-5.4-0.7-5.9,0c-0.5,0.7-3.1,2.3-3.1,2.3s11.5-1,13.7,1.5s3.6,10.2,3.3,12c-0.2,1-0.5,3.5-0.7,5.4
	c3.2,0,10.4,0,11.4-0.3c1.3-0.4,3.3-1.1,3.3-1.1S65.1,85.4,64.7,83.5z"></path><path class="st1" d="M85.5,88c-2.3-1.3-4.1-1.6-5.3-1.9c-1.2-0.3-3.1-2.5-3.1-2.5l-0.7-3c0,0,6.7-4.3,7.9-7s1.3-12.7,0.7-14
	c-0.7-1.3-1.2-6.7-3.8-9.7s-9-6.5-9-6.5c-6.4-1.5-12.5,0.1-14.3,2.8S56,48.7,56,48.7s-4.1-5.9-14.5-5.4
	c-10.4,0.5-25.8,14.1-25.2,21.9c0.3,3.5,0.4,7.5,1.1,11.3c0.9,4.7,2.7,9,7.1,11c2.7,1.2,4.6,1.9,6,2.5c2.8,1.1,3.4,1.3,3.1,2
	c-0.3,0.6-1,1.5-1.5,2.5h25.1c-0.3-1.3-0.6-2.3-0.8-2.8c-0.1-0.3-0.2-0.6-0.4-0.9c-0.5-1.4-1.1-3-2.2-2.7c-0.8,0.2-3.5,0.1-5.3,0
	c-0.9-0.1-1.6-0.1-1.6-0.1s0.6,0,1.6,0c0.2-1.9,0.5-4.3,0.7-5.4c0.3-1.8-1.2-9.6-3.3-12s-13.7-1.5-13.7-1.5s2.6-1.6,3.1-2.3
	c0.5-0.7,2.6-0.2,5.9,0c3.3,0.2,6.1,3.1,7.1,3.6c1,0.5,4.4,4.9,5.5,6.4s4.5,4.2,6.2,3.9c1.6-0.3,4.5-1.8,4.5-1.8s-0.4,2.9,0,4.8
	s-1.3,2.9-1.3,2.9s2,2.3,3.6,4c0.7,0.7,1.5,2.4,2.2,4.1h18.2C87.2,91.8,86.7,88.7,85.5,88z"></path><path class="st4" d="M76,58.8c5.2-0.2,7.4-3.3,9.3-5.4c2.5-2.9,6-8.6,6-12.6c0-8.5-9.3-12.9-15.3-13c-6,0.1-15.3,4.6-15.3,13
	c0,4,3.5,9.8,6,12.6C68.6,55.5,70.8,58.5,76,58.8z"></path><path class="st5" d="M83.1,55.3c-0.7,0.5-1.6,0.8-2.5,0.8c-2.4,0-4.3-1.9-4.3-4.3c0-2.4,1.9-4.3,4.3-4.3"></path><path class="st5" d="M68.5,55.3c0.7,0.5,1.6,0.8,2.5,0.8c2.4,0,4.3-1.9,4.3-4.3c0-2.4-1.9-4.3-4.3-4.3"></path><line class="st6" x1="67.8" y1="51.2" x2="63.6" y2="54.4"></line><line class="st6" x1="65.9" y1="48.7" x2="61.7" y2="51.8"></line><line class="st6" x1="64" y1="46.1" x2="59.8" y2="49.2"></line><line class="st6" x1="83.3" y1="51.2" x2="87.5" y2="54.4"></line><line class="st6" x1="85.2" y1="48.7" x2="89.4" y2="51.8"></line><line class="st6" x1="87.1" y1="46.1" x2="91.3" y2="49.2"></line><circle cx="68.9" cy="40.3" r="2.3"></circle><circle cx="82.9" cy="40.3" r="2.3"></circle><polygon class="st7" points="76.8,91.7 80.8,94.4 77.5,94.4 "></polygon><polygon class="st7" points="82.3,91.7 86.2,94.4 83,94.4 "></polygon><polygon class="st7" points="47.2,91.7 51.1,94.4 47.9,94.4 "></polygon><polygon class="st7" points="52.7,91.7 56.6,94.4 53.4,94.4 "></polygon></g></svg>