<svg xmlns="http://www.w3.org/2000/svg" version="1.1" xmlns:xlink="http://www.w3.org/1999/xlink" xmlns:svgjs="http://svgjs.dev/svgjs" viewBox="0 0 108 108" style="" x="0" y="0"><style type="text/css">
	.st0{fill:#E2E3E4;}
	.st1{fill:#F79431;}
	.st2{fill:#CFD1D2;}
	.st3{fill:#F3F4F4;}
	.st4{fill:#F31A27;}
</style><g><path class="st0" d="M85.9,33.2c5.8-3.3,14-2.7,20.5-0.4l0.6-1c-8.3-6.5-20.6-9.8-30.5-4.3c-1.1,0.6-2.1,1.3-3.1,2.1
	c1.1-3.3,2.5-6.4,4.4-9.2c5.8-8.7,16.4-6.7,25-2.5c0,0,0.6-1,0.6-1C94,8.5,81.9,4.6,70.9,13.4C61.5,20.9,57,31.6,51.6,41.5
	c0,0,0,0,0.1,0c-2.5,1.4-4.7,1.1-4.7,1.1C34.6,43,35.4,32.1,29.1,19.6c-1.1-2.2-2.3-3.8-3.5-5c-3.2-3-6.7-3.1-9.9-2.1
	c-0.6,0.2-1.2,0.4-1.7,0.6c-0.2,0.3-0.5,0.5-0.9,0.7l0.5,1.2l0,0c0.3-0.1,0.6-0.1,1-0.1c2.2,0,4,1.8,4,4c0,2.2-1.8,4-4,4
	c-2.5,2-0.2,3,0,4.1c0.2,0.9,0,4.2-1.9,5.5c-0.6,4.4-3.6,11.4-3.9,17.3c-0.5,8.5,3.9,19,9.9,23.4c3.3,2.4,9.4,5.2,15.2,7.6
	c-4.2-4.4-10.2-10.9-10.2-10.9c-2.5-2.6-5.7-10.9-3.6-6.5c2.1,4.4,7.1,4.6,9.3,4.6c0.9,0,2-1.4,2.9-2.9c-6.9-3.5-11.6-7.7-7.3-6.7
	C39.9,62,43.5,45.9,43.5,45.9s2.9,4.2,4.4,5c1.5,0.7,4.6,2.4,6.4,5c1.8,2.6,10.2,4.7,10.2,4.7s-1.9,2.9-7.7,5.8l1.5,4.7
	c0,0-2.3,2.5-2.8,3.1c-0.5,0.6-1.3,5.7-1.6,8c0,0.3-0.1,0.7-0.2,1.1c0.6-1.5,1.9-2.3,4.1-3.7c2.2-1.4,2.7-2.2,3.8-3.9
	c1.1-1.7,2.7-5.3,3.1-6.4c0.5-1.1,1.7-3.9,1.7-3.9l3.1,3c0,0,0.2-2.1,0.4-4.1c0.1-1.3,0.1-2.4-0.1-3.4l0.5-0.3
	c1.8,1.2,3.2,3.5,4.5,5.2c1.5,2.4,3.2,5.1,3.7,7.9l1.1,0.1c0.4-1.7,0.3-3.3,0.1-4.9c-0.6-4.3-1.4-8.8-3.6-12.6
	c5.8,2.6,7.8,7.7,10,13.9c0,0,1.1-0.2,1.1-0.2c0.4-7.9-0.2-14.1-4.9-19.7c0.7-0.4,1.5-0.7,2.4-0.8c4.7,0.4,7.8,5.3,9.8,9.3
	c0,0,1.1-0.3,1.1-0.3c-0.3-2.2-0.9-4.4-1.8-6.5c-1.9-4.7-4.9-7.5-8.6-8.5c0.5-0.2,1-0.4,1.5-0.5c4.4-1.2,9.4-1.3,13.8,0.2
	c0,0,0.6-1,0.6-1c-5.6-4-12.9-5.8-19.7-4.5C82.6,35.8,84,34.3,85.9,33.2z"></path><g>
	<path class="st1" d="M38.1,97.6c6.3,0.5,12.7,1.5,18.8,3.3c0,0-4.1,0.4-4.1,0.4c-3.5,1.4-7.3,2.5-10.2,5c-0.3,0.3-0.8,0.2-1.1-0.1
		c-0.2-0.3-0.3-0.7,0-1c1.4-1.7,3.2-2.9,5-3.7c1.9-0.9,3.8-1.5,5.9-1.7c0,0,0,1.5,0,1.5c-4.9-0.3-9.8-1.2-14.7-2.2
		C36.9,98.9,37.1,97.5,38.1,97.6L38.1,97.6z"></path>
</g><g>
	<path class="st1" d="M51.8,101.2c-6,1.1-12.1,0.8-18,2.2c-0.9,0.2-1.4-1.1-0.5-1.5c3-1.2,6.1-1.6,9.2-2c3.1-0.3,6.2-0.7,9.3-0.3
		C52.6,99.7,52.6,101,51.8,101.2L51.8,101.2z"></path>
</g><g>
	<path class="st1" d="M47.3,99.9l0.3-16.6c0.1-2.7,4.1-2.5,4,0.2c0,0-1.3,16.6-1.3,16.6C50.1,101.9,47.3,101.8,47.3,99.9L47.3,99.9z
		"></path>
</g><g>
	<path class="st1" d="M24,88.8c6.1,0.5,12.2,1.5,18.1,3.1c0,0-4,0.4-4,0.4c-3.3,1.4-7,2.4-9.7,4.8c-0.3,0.3-0.8,0.3-1.1,0
		c-0.2-0.3-0.2-0.7,0-0.9c2.7-3.1,6.6-4.7,10.5-5.2c0,0,0,1.4,0,1.4c-2.4-0.1-4.7-0.4-7.1-0.8c-2.3-0.4-4.7-0.8-7-1.3
		C22.9,90.1,23.1,88.7,24,88.8L24,88.8z"></path>
</g><g>
	<path class="st1" d="M37.1,92.3c-5.7,1.1-11.7,0.7-17.3,2.1c-0.9,0.2-1.3-1.1-0.5-1.4c2.9-1.1,5.8-1.5,8.8-1.9
		c3-0.3,5.9-0.7,8.9-0.3C37.9,90.9,37.9,92.1,37.1,92.3L37.1,92.3z"></path>
</g><g>
	<path class="st1" d="M32.8,91.1l0.3-16c0.1-2.6,4-2.4,3.8,0.2c0,0-1.2,15.9-1.2,15.9C35.5,93,32.8,92.9,32.8,91.1L32.8,91.1z"></path>
</g><path class="st2" d="M55.5,74.2c0.5-0.6,2.8-3.1,2.8-3.1l-1.5-4.7c-1.7,0.9-3.8,1.7-6.2,2.5C45.6,70.5,38.1,68,32.2,65
	c-0.9,1.5-2,2.9-2.9,2.9c-2.2,0-7.2-0.2-9.3-4.6c-2.1-4.4,1.2,3.9,3.6,6.5c0,0,6,6.4,10.2,10.9c1.3,0.5,2.5,1.1,3.7,1.6
	c6.6,2.9,6,5.2,9.6,7.1c3.6,1.9,3.3,0.2,3.9-1.3c0.6-1.4,2-3.3,2.7-4.9c0,0,0,0,0,0c0.1-0.4,0.1-0.8,0.2-1.1
	C54.1,79.9,55,74.8,55.5,74.2z"></path><path class="st3" d="M54.3,55.8c-1.8-2.6-5-4.3-6.4-5c-1.5-0.7-4.4-5-4.4-5S39.9,62,25,58.3c-4.4-1.1,0.3,3.1,7.3,6.7
	c5.9,3,13.3,5.5,18.3,3.9c2.5-0.8,4.5-1.7,6.2-2.5c5.8-2.9,7.7-5.8,7.7-5.8S56.1,58.4,54.3,55.8z"></path><path class="st1" d="M10.7,17.3c0,0-8.1,2.2-7,6.4C10,20.5,12,22,14.1,22S10.7,17.3,10.7,17.3z"></path><path class="st4" d="M22.8,8.1c-0.4,0-0.9,0.1-1.3,0.2c0.1-0.4,0.2-0.7,0.2-1.1c0-2.2-1.8-4-4-4c-2.2,0-4,1.8-4,4c0,0.2,0,0.3,0,0.5
	C13.1,7,12.1,6.5,11,6.5c-2.2,0-4,1.8-4,4c0,0.8,0.3,1.6,0.7,2.2l0,0c0,0,0,0,0,0c0,0,0,0,0,0.1c0.3,0.3,1.2,1.6,0.7,2.6
	c-0.6,1.2-2.2,1.2-1.5,2.5c0.7,1.3,3,2.4,2.9,4.1c-0.1,1.7-2.5,4.8-3,6.8s1.6,4.8,4.6,4.2c0.4-0.1,0.8-0.3,1.1-0.5
	c2-1.3,2.1-4.6,1.9-5.5c-0.2-1.1-2.5-2.1,0-4.1c2.2,0,4-1.8,4-4c0-2.2-1.8-4-4-4c-0.3,0-0.7,0.1-1,0.1l0,0l-0.5-1.2
	c0.3-0.2,0.6-0.4,0.9-0.7c0.6-0.2,1.1-0.4,1.7-0.6c3.2-1,6.7-0.9,9.9,2.1c0.7-0.7,1.1-1.6,1.1-2.6C26.6,9.8,24.9,8.1,22.8,8.1z"></path><circle cx="14.5" cy="18.9" r="1"></circle></g></svg>