<svg xmlns="http://www.w3.org/2000/svg" version="1.1" xmlns:xlink="http://www.w3.org/1999/xlink" xmlns:svgjs="http://svgjs.dev/svgjs" viewBox="0 0 108 108" style="" x="0" y="0"><style type="text/css">
	.st0{fill:#894D1D;}
	.st1{fill:none;stroke:#EC008C;stroke-width:0.5445;stroke-miterlimit:10;}
	.st2{fill:#F37575;}
	.st3{fill:none;stroke:#9E5920;stroke-width:2.1516;stroke-miterlimit:10;}
	.st4{fill:none;}
	.st5{fill:#9E5920;}
	.st6{fill:#BF7726;}
	.st7{fill:#967454;}
	.st8{fill:#B86B1F;}
	.st9{fill:#707070;}
</style><g><path class="st0" d="M46.3,63.5c-0.2,1-1.5,3.3-2.8,5.1c0.6,1.1,1.3,2.4,1.9,3.7c1.7,3.8,1.7,11.4,1.6,14.7h5.4
	c-0.1-6.3-0.3-15.6-0.5-17.5c-0.2-1.3-0.8-3.6-1.5-5.8c-1.4-0.3-2.8-0.6-4.1-0.9C46.4,63.2,46.4,63.4,46.3,63.5z"></path><path class="st0" d="M77.4,71.2c-0.4,3.5-0.9,7-1.4,8.2c-0.7,1.5-2,4.9-3.1,7.7h4.5c0.4-0.8,0.9-1.9,1.6-3.3
	c1.4-2.9,4.1-9.1,5.5-12.6C81.9,71.9,79.5,71.8,77.4,71.2z"></path><path class="st1" d="M80.2,55.8c0-1.2-0.4-2-0.4-2C79.9,54.5,80.1,55.1,80.2,55.8z"></path><path class="st2" d="M85.9,66.9c-1.1-1.5-2.3-3.2-3.3-5.1c-1-1.9-1.8-3.9-2.3-5.9c0,1-0.3,2.1-1.4,3.2c-1.7,1.7-5.5,4.1-10.4,5.3
	c2,2.6,5,5.6,9,6.8c2.1,0.6,4.5,0.7,7.1,0c1.2-0.3,2.4-0.8,3.6-1.5C87.5,68.9,86.7,68,85.9,66.9z"></path><path class="st3" d="M94.3,31.1c3.5,0,7.6,0.6,7.2,24.3"></path><ellipse cx="101.5" cy="59.4" rx="2.8" ry="4.6"></ellipse><path class="st4" d="M80.2,55.8c0-1.2-0.4-2-0.4-2C79.9,54.5,80.1,55.1,80.2,55.8z"></path><path class="st5" d="M93.6,59c-1.5-5.1-0.1-8.7,2-20.4c2.1-11.6-2.3-11.8-7.3-12.5c-2-0.3-4.2,0.2-6.7,0.8c-1.1,3.7-6,6.4-6.8,6.6
	c-1.1,0.3-3,1.2-3.7,1.5c-0.7,0.3-2.1,8.7-6,8.5c-3.9-0.2-4.2-4.3-6.6-4.5c-2.4-0.2-4,3.5-5.3,3.7c-1.3,0.3-2,0.7-4.4-2.1
	c-1.6-1.8-1.8-8.4-1.7-12.8c-1.8-0.3-3.5-0.6-5.3-0.9c-8.7-1.2-11.8,3-11.8,3l-3.2,4.2l-2.2,3.2L25,50.1c0,0,0.5,0.4,1.2,1l-3.3,0.3
	c1.1,2.1,4.5,5.6,7.1,7.7c2.6,2.1,3.7,7.3,4.2,8.2c0.4,0.9,1,5,1.1,6.9c0.1,1.2,0.1,8.1,0,12.9h4.8v-4.5c0,0,0-10.4,0.9-10.8
	c0.4-0.2,1.5-1.5,2.5-3.1c1.3-1.9,2.6-4.1,2.8-5.1c0-0.2,0-0.3,0.1-0.5c0.9,0.2,1.8,0.4,2.7,0.6c1-1,3.6-3.5,4.9-3.6
	c1.6-0.1,2.2,0,4.9-0.6c2.7-0.6,3-2.6,6.4-3.6c3.4-0.9,5.8,2.4,5.8,2.4s1.2,2.6,1.9,4.6c2.7-1.2,4.7-2.6,5.8-3.7
	c1.1-1.1,1.4-2.3,1.4-3.2c-0.2-0.7-0.3-1.4-0.4-2c0,0,0.4,0.9,0.4,2c0.5,2.1,1.3,4.1,2.3,5.9c1,1.9,2.2,3.6,3.3,5.1
	c0.8,1.1,1.6,2,2.2,2.8c1.1,1.3,1.8,2,1.8,2l-1.1,13.6l-0.2,1.8h5.2c0.8-5.3,2-13.3,2.2-16C96.5,66.8,95.1,64.1,93.6,59z"></path><path d="M48.8,40.8c2.4,2.8,3.1,2.3,4.4,2.1c1.3-0.3,2.9-3.9,5.3-3.7c2.4,0.2,2.8,4.3,6.6,4.5c3.9,0.2,5.3-8.2,6-8.5
	c0.7-0.3,2.5-1.2,3.7-1.5c0.8-0.2,5.7-3,6.8-6.6c-3.8,1-8.1,2.6-13.3,3.2c-6.9,0.8-14.1-0.9-21.2-2.2C47,32.4,47.2,39,48.8,40.8z"></path><path d="M65.3,55.8c-3.4,0.9-3.8,3-6.4,3.6C56.2,60,55.6,59.9,54,60c-1.3,0.1-3.9,2.6-4.9,3.6c0.5,0.1,0.9,0.2,1.4,0.3
	c3.9,0.7,7.9,1.3,11.1,1.3c2.4,0,4.7-0.3,6.8-0.8c1.7-0.4,3.2-1,4.5-1.6c-0.8-2-1.9-4.6-1.9-4.6S68.7,54.9,65.3,55.8z"></path><path class="st6" d="M2.1,33.2c0.5-2.4,7.2-3.9,11.7,1.9S0.4,40.6,2.1,33.2z"></path><path class="st6" d="M41.7,33.4c-0.5-2.4-7.2-3.9-11.7,1.9S43.4,40.8,41.7,33.4z"></path><path class="st7" d="M6.6,21.9c0,0,4.5,5.3,10.1,7.2s1.7,7.6,1.7,7.6S6,30.1,6.6,21.9z"></path><path class="st7" d="M37.6,21.9c0,0-4.5,5.3-10.1,7.2s-1.7,7.6-1.7,7.6S38.3,30.1,37.6,21.9z"></path><path class="st8" d="M30.2,39.5c1.6-3.7,0-13.2-8.5-12.4c-8.5-0.8-10.1,8.7-8.5,12.4c1.6,3.7,3.4,2.2,3,6.3c-0.1,1.2-0.6,3-0.8,4.6
	c1.4-1,3.7-1.7,6.3-1.7s4.9,0.7,6.3,1.7c-0.2-1.6-0.7-3.4-0.8-4.6C26.8,41.7,28.6,43.2,30.2,39.5z"></path><path d="M15.3,50.4c-0.2,1.4-0.1,2.6,0.8,3.1c1.9,1.1,5.5,0.9,5.5,0.9s3.7,0.2,5.5-0.9c0.9-0.5,1-1.7,0.8-3.1
	c-1.4-1-3.7-1.7-6.3-1.7S16.7,49.4,15.3,50.4z"></path><circle class="st9" cx="19.2" cy="51.9" r="1.2"></circle><circle class="st9" cx="24.1" cy="51.9" r="1.2"></circle><circle cx="18.4" cy="36.4" r="1.3"></circle><circle cx="24.9" cy="36.4" r="1.3"></circle></g></svg>