<svg xmlns="http://www.w3.org/2000/svg" version="1.1" xmlns:xlink="http://www.w3.org/1999/xlink" xmlns:svgjs="http://svgjs.dev/svgjs" viewBox="0 0 108 108" style="" x="0" y="0"><style type="text/css">
	.st0{fill:#684410;}
	.st1{fill:none;}
	.st2{fill:#905F22;}
	.st3{fill:#D0C3B7;}
	.st4{fill:#AEA49B;}
	.st5{fill:#BBB0A6;}
	.st6{fill:#8E5E22;}
	.st7{fill:#9E6826;}
	.st8{fill:#231F20;}
	.st9{fill:#86591F;}
</style><g><path class="st0" d="M87.8,5c4.7,2.3,8,6.9,9.8,11.7c4.9,13.5-0.4,29.1-8.1,40.1c0.7,0.2-5.5-2.3-2.9-1.2c0,0.1,0,0.1,0,0.1
	c0,0,0,0,0,0c0.6-0.8,1.2-1.6,1.9-2.4c0,0,1.2,0.5,1.2,0.5c0,1-0.1,2.4-0.3,3.3c2.6,1.1-3.6-1.3-2.9-1.2l0-0.1
	c0.8-7.4,4.3-14.2,6.2-21.2c2.5-9.7,1.9-21.1-5.6-28.6C87.1,6.1,87.8,5,87.8,5L87.8,5z"></path><path class="st1" d="M29.4,97.9c0.1,1.9,0.7,2.7,0.9,4.8c0,0.3-0.1,0.8-0.3,1.3h8.8c0-0.1,0-0.1,0-0.1c0.3-0.7,0.6-1.1,1.1-2
	c0.6-0.9,2.4-1.9,2.4-1.9s-0.4-15.1-1.4-19.4c-0.7-2.9-3.8-5.2-9-7.9c0,3.8-0.3,9.4-0.3,10.3C31.7,84.4,29.3,96,29.4,97.9z"></path><path class="st1" d="M96,98.2c1.9-1.3,1.3-1.7,1.4-4.2c0.1-2.5-6.1-9.7-8.5-12c-2.3-2.2-4.7-12.6-8-17.9c-0.3,4.9,1,9.4,1.4,10.7
	c0.6,1.6,4.6,7,5,9.3c0.4,2.3,1.4,11.5,1.7,13c0.3,1.6,0,3,0,3s-0.2,0.2-0.5,0.6h5.3C94,99.9,94.5,99.2,96,98.2z"></path><path class="st2" d="M30.3,102.7c-0.1-2.1-0.7-3-0.9-4.8c-0.1-1.9,2.3-13.5,2.3-14.8c0-0.9,0.3-6.4,0.3-10.3
	c-2.5-1.3-5.5-2.6-8.9-4.1c-2.2-0.9-3.8-1.9-5-3c0.2,2.5,0.7,5.1,1.5,7.2c2.3,5.6,4.1,22.2,4,23.6c-0.1,1.4-0.9,2.8-2.1,3.7
	c-1.3,0.9-1.4,0.4-1.6,1.6c0,0.3-0.2,1.1-0.5,2.1h10.6C30.2,103.5,30.3,103.1,30.3,102.7z"></path><path class="st3" d="M95.3,64c-2.8-0.3-3.1-1-4.3-2.4c-1.1-1.4-0.4-2-0.9-4c-0.4-2-3.7-5-4.4-6.5c-0.7-1.6-4.8-5.8-7.6-6
	c-2.7-0.1-2.3,3.6-3.7,5.4c-1.4,1.9-3.6,3.8-7.3,5c-3.7,1.1-6,5.3-7.7,7c-1.7,1.7-5.9,5.7-7.5,6.1c-1.6,0.4-3-0.4-5-2.1
	c-2-1.7-4.4-6.3-6.1-7.9c-1.7-1.7-8.5-3.7-11.5-6.4c-3-2.7-3.6-12.6-3.6-12.6s-1.6,4.9-2,6c-0.5,1.1-2.7,5.3-3.3,10
	s-0.9,8.3,2.5,13.2c3.4,1.5,6.4,2.8,8.9,4.1c5.2,2.6,8.3,5,9,7.9c1,4.3,1.4,19.4,1.4,19.4s-1.9,1-2.4,1.9c-0.6,0.9-0.9,1.3-1.1,2
	c0,0,0,0.1,0,0.1H49c-0.6-1.1-1.7-3.5-1.3-4.9c0.4-1.9,2.3-18.2,2.6-19.9s0.7-7.2,0.7-7.2s0.9-0.2,2.4-0.7c1-1.9,2.7-4.2,5.3-5.5
	c5-2.6,10.1-6.7,14.2-8.6c4.1-1.9,5.8-3.9,8.1-1.2c2.3,2.7,4.9,10.7,4.7,12.5c-0.1,1.8,0.8,8.5,0.8,8.6c0.9,2.2,1.7,4,2.5,4.8
	c2.4,2.3,8.7,9.5,8.5,12c-0.1,2.5,0.4,3-1.4,4.2c-1.5,1.1-2,1.7-2.2,2.4h10.5l-0.3-1.5c0,0-2.4-10.2-2.3-12.5c0.1-2.3,1-3.3-0.6-5.4
	c-1.3-1.8-3.8-9.6-4.2-17.2C96.3,64.1,95.7,64.1,95.3,64z"></path><path class="st4" d="M85.6,68.6c0.1-1.9-2.4-9.8-4.7-12.5c-2.3-2.7-3.9-0.7-8.1,1.2c-4.1,1.9-9.3,6-14.2,8.6
	c-2.6,1.3-4.3,3.6-5.3,5.5c2.6-0.8,6.8-2.4,11.1-5.1c1-0.6,1.9-1.2,2.8-1.7c5.5-3.4,10.1-5.4,13.1-1.2c0.2,0.3,0.4,0.6,0.6,0.9
	c2.1,3.4,3.9,9,5.5,13.1C86.4,77.1,85.5,70.4,85.6,68.6z"></path><path class="st5" d="M74.9,68.7c-1.3,2.5-2.4,5.4-3.4,7.5c0.4,0.7,0.7,1.3,1.1,1.7c3.4,4.2,9.4,12.8,9.4,14.3c0,1.4-0.7,3.1-1.7,4
	c-1,0.9-1.9,2.7-2,2.9c0,0.1,0,0.7,0,1.5h10.2c0.3-0.3,0.5-0.6,0.5-0.6s0.3-1.4,0-3c-0.3-1.6-1.3-10.7-1.7-13
	c-0.4-2.3-4.4-7.7-5-9.3c-0.4-1.2-1.6-5.4-1.4-10.2C78.1,65.8,75.7,67.2,74.9,68.7z"></path><path class="st6" d="M80.4,63.2c-3.1-4.2-7.6-2.1-13.1,1.2c1.1,3.9,2.7,8.8,4.3,11.8c1-2.1,2.1-5,3.4-7.5c0.7-1.5,3.1-2.9,6-4.2
	c0-0.2,0-0.3,0-0.5C80.7,63.7,80.5,63.4,80.4,63.2z"></path><path class="st7" d="M97,60.3c0.4-8.7,1.3-21.3-7.4-24.3c-3.8-1.3-8.6-1-13.5-0.3c-2,3.8-5.3,7.5-6.2,8.1c-1.2,0.9-7.2,2.6-13.9,1
	c-3.8-0.9-6-4.7-7.2-7.9c-4.2-0.3-7.2-0.8-9.9-2.5c-4.4-2.8-9.4-5.5-9.4-5.5L23,30.5c-3.4,6.6-8.8,20-8.3,23.8
	c0.5,3-1.2,7.4,3.3,11.4c1.2,1,2.8,2,5,3c-3.4-5-3.2-8.5-2.5-13.2s2.9-8.8,3.3-10c0.5-1.1,2-6,2-6s0.6,9.9,3.6,12.6
	c3,2.7,9.8,4.7,11.5,6.4c1.7,1.7,4.1,6.2,6.1,7.9c2,1.7,3.4,2.6,5,2.1c1.6-0.4,5.8-4.4,7.5-6.1c1.7-1.7,4-5.8,7.7-7
	c3.7-1.1,5.9-3.1,7.3-5c1.4-1.9,1-5.6,3.7-5.4c2.7,0.1,6.8,4.4,7.6,6c0.7,1.6,4,4.5,4.4,6.5c0.4,2-0.3,2.6,0.9,4
	c1.1,1.4,1.4,2.2,4.3,2.4c0.4,0,1,0,1.7,0C97,62.8,96.9,61.5,97,60.3z"></path><path class="st0" d="M56,44.8c6.7,1.6,12.7-0.1,13.9-1c0.9-0.6,4.2-4.3,6.2-8.1c-6.2,0.9-12.8,2.4-18.1,1.9
	c-3.7-0.3-6.7-0.5-9.3-0.7C49.9,40.1,52.2,43.9,56,44.8z"></path><path class="st0" d="M25.8,49.6c-0.1,0-0.1,0-0.2,0c-0.9,0-1.6-0.5-2.1-1.1c-0.3-0.3-0.5-0.6-0.7-1c-1-1.7-1.4-4.2-1.5-5.7
	c-0.1,1.6-0.5,4-1.5,5.7c-0.4,0.8-1,1.4-1.7,1.8c-0.4,0.2-0.7,0.3-1.2,0.3c-0.1,0-0.1,0-0.2,0c0,0.2-0.1,0.3-0.1,0.5
	c0,1.5,2.1,2.7,4.7,2.7c2.6,0,4.7-1.2,4.7-2.7C25.9,50,25.9,49.8,25.8,49.6z"></path><path class="st3" d="M26.2,19.6c-0.1,0.1-0.2,0.3-0.3,0.4c-1.2,2.3-0.9,3.4-2.4,4.9c-1.5,1.5,0,3.1-2.3,2.2
	c-2.3-0.9-1.4-0.7-3.7-1.3c-2.4-0.6,0.5-1.1-0.6-2.3c-1.1-1.1-0.9-2.3-0.5-4.1c-4.5,1-8.1,3.4-8.7,4.4c-0.8,1.2,1.3,9.4,2.4,11.8
	c1.1,2.4,2.7,5,3,8.8c0.2,3.7,0.7,5.2,3.5,5.2c0.1,0,0.1,0,0.2,0c0.4,0,0.8-0.1,1.2-0.3c0.7-0.4,1.2-1,1.7-1.8
	c1-1.7,1.4-4.2,1.5-5.7c0.1,1.6,0.5,4,1.5,5.7c0.2,0.4,0.4,0.7,0.7,1c0.6,0.6,1.3,1.1,2.1,1.1c0.1,0,0.1,0,0.2,0
	c2.9,0,3.3-1.5,3.5-5.2c0.2-3.8,1.9-6.4,3-8.8c1.1-2.4,3.2-10.5,2.4-11.8C34.2,23,30.7,20.6,26.2,19.6z"></path><path class="st7" d="M15.7,22.3c0.4,2.1-0.5,3,1.9,3.6c2.4,0.6,0.3,1.7,2.6,2.6c2.3,0.9,3.4-1.5,4.8-3c1.5-1.5-0.2-3.1,1-5.5
	c0.1-0.1,0.2-0.3,0.3-0.4c-1.6-0.4-3.2-0.6-4.9-0.5c-1.7-0.1-3.3,0.1-4.8,0.4C16.1,21.3,15.4,20.8,15.7,22.3z"></path><g>
	<path class="st8" d="M20.6,44.6c0.4,0.4,1,0.4,1.3,0l3-3.6c0.4-0.4,0.2-0.8-0.4-0.8h-6.6c-0.6,0-0.7,0.4-0.4,0.8L20.6,44.6z"></path>
</g><circle class="st8" cx="15.7" cy="30" r="1.9"></circle><circle class="st8" cx="26.8" cy="30" r="1.9"></circle><path class="st9" d="M9.7,20.4C5.5,22.9,1.3,25,3,28s3.7,5.2,3.9,6.3c0.2,1.1,1.1,4.2,1.7,4.6c0.6,0.4,1.3,0.1,1.7-1.6s1-13.7,1-14
	C11.3,23,12.2,18.8,9.7,20.4z"></path><path class="st9" d="M32.8,20.4c4.2,2.5,8.4,4.6,6.7,7.6s-3.7,5.2-3.9,6.3c-0.2,1.1-1.1,4.2-1.7,4.6c-0.6,0.4-1.3,0.1-1.7-1.6
	c-0.4-1.7-1-13.7-1-14C31.2,23,30.3,18.8,32.8,20.4z"></path></g></svg>