<svg xmlns="http://www.w3.org/2000/svg" version="1.1" xmlns:xlink="http://www.w3.org/1999/xlink" xmlns:svgjs="http://svgjs.dev/svgjs" viewBox="0 0 108 108" style="" x="0" y="0"><style type="text/css">
	.st0{fill:#EC6E20;}
	.st1{fill:#ED822F;}
	.st2{fill:none;stroke:#C7225B;stroke-width:1.5027;stroke-linecap:round;stroke-linejoin:round;stroke-miterlimit:10;}
	.st3{fill:none;stroke:#C7225B;stroke-width:1.3378;stroke-linecap:round;stroke-linejoin:round;stroke-miterlimit:10;}
	.st4{fill:#ECEAE6;}
	.st5{fill:#D4D7D1;}
	.st6{fill:#C3C3C1;}
	.st7{fill:#231F20;}
</style><g><path class="st0" d="M21.4,13.2L5.7,20.7c-0.4,1.8-0.4,1.8-0.4,1.8l19.8-1.9l-2.1-2.7L21.4,13.2z"></path><path class="st1" d="M37.7,91.5c0,0-1.8,3.8-4.5,4.2s2.3,3,2.9,4c0.5,1,1.6,1.2,1.6,1.2l15.5-6.8L37.7,91.5z"></path><g>
	<path class="st0" d="M35,100l16.9-7.5l0.3,2.3l-14.2-2.2c-0.4-0.1-0.7-0.4-0.6-0.9c0.1-0.4,0.4-0.7,0.8-0.6l14.3,1.2
		c1.3,0.1,1.5,1.9,0.3,2.3c0,0-17.3,6.6-17.3,6.6C34.7,101.7,34.2,100.4,35,100L35,100z"></path>
</g><g>
	<polygon class="st0" points="32.9,95.5 49.2,93.6 49.4,95.7 33,97 32.9,95.5 	"></polygon>
</g><g>
	<polygon class="st0" points="63.5,75.1 53.4,94.1 51.4,93.2 58.2,72.8 63.5,75.1 	"></polygon>
</g><path class="st1" d="M33.5,82c0,0-1.6,3.4-4,3.7s2.1,2.7,2.6,3.6c0.5,0.9,1.5,1.1,1.5,1.1l13.8-6L33.5,82z"></path><g>
	<path class="st0" d="M31.1,89.6l15-6.7l0.3,2.1l-12.6-1.9c-0.4-0.1-0.6-0.4-0.6-0.8c0.1-0.4,0.4-0.6,0.7-0.6l12.7,1.1
		c1.1,0.1,1.3,1.7,0.3,2.1c0,0-15.4,5.9-15.4,5.9C30.9,91.1,30.4,89.9,31.1,89.6L31.1,89.6z"></path>
</g><g>
	<polygon class="st0" points="29.2,85.5 43.7,83.8 43.9,85.8 29.4,86.9 29.2,85.5 	"></polygon>
</g><g>
	<polygon class="st0" points="56.4,67.4 47.5,84.3 45.7,83.5 51.7,65.3 56.4,67.4 	"></polygon>
</g><path class="st4" d="M28.3,7.1c-3.3,0.7-9.2,3.5-9.4,6.9s0.4,6.1,3.7,7.8s5.2,1.9,4.9,4.9c-0.2,3-3.5,7.2-7.6,13.5s-7.7,15-5.4,22
	s9.1,12.6,16.7,14.4c7.6,1.8,23.7-1.9,24.1-2.2s5.8-15.6,5.4-15.9c-0.4-0.4-5.6-6.3-8.4-7.7c-2.9-1.4-8.6-3.3-9.1-4.1
	c-0.5-0.8-4.6-4.7-4.6-4.7s-1.1-8.6,0.7-14s0.9-15.1-2.1-17.3S30,6.7,28.3,7.1z"></path><path class="st5" d="M37.3,43.7c0,0-6.2,1.8-10.6,7.5s-8.6,18.5-1.5,23.1c7.1,4.6,16.9,5.9,29.2,5.8s32.5-8.3,36-10
	c3.5-1.7,13.8-7.4,14.4-8.1c0.6-0.8,2.2-2,1.3-3.4S69.2,44.9,63,42.8s-15.6-3.7-18.1-3.6C42.4,39.3,37.3,43.7,37.3,43.7z"></path><path class="st4" d="M49.3,38.5c0,0-6.9-0.1-9.4,0.7c-2.5,0.9-5.4,1.5-6.7,6.4c-1.3,4.9-4.1,4.9,1.5,7.9c5.7,3,9,2.8,16.2,2.4
	S59,52,68,57.3s8.4,7.1,11.8,6.2s4.7-3,8.2-3.3c3.5-0.2,11.2-0.1,13.3-0.6c2.1-0.5,5.6-1.3,3.1-3.1c-2.4-1.8-17.5-6.8-23.5-8.9
	C74.8,45.3,51.2,39.1,49.3,38.5z"></path><path class="st6" d="M84.9,63.7l2.3,4.3c0,0,0.1-1.3,2.9-2.2s5.6-2.4,8.6-2.9s6.8-1.4,1.2-1.4c-5.6,0-5.7-0.2-7.8,0
	S84.9,63.7,84.9,63.7z"></path><circle class="st7" cx="25.8" cy="13.2" r="1.8"></circle></g></svg>