<svg xmlns="http://www.w3.org/2000/svg" version="1.1" xmlns:xlink="http://www.w3.org/1999/xlink" xmlns:svgjs="http://svgjs.dev/svgjs" viewBox="0 0 108 108" style="" x="0" y="0"><style type="text/css">
	.st0{fill:#ED822F;}
	.st1{fill:#EC6E20;}
	.st2{fill:none;stroke:#C7225B;stroke-width:1.4145;stroke-linecap:round;stroke-linejoin:round;stroke-miterlimit:10;}
	.st3{fill:#D4D7D1;}
	.st4{fill:#ECEAE6;}
</style><g><path class="st0" d="M77.5,90.3c0,0,1.7,3.6,4.2,4S79.5,97.1,79,98c-0.5,1-1.5,1.1-1.5,1.1l-14.6-6.4L77.5,90.3z"></path><g>
	<path class="st1" d="M79.4,99.6l-16.2-6.3c-1.1-0.4-0.9-2.1,0.3-2.2c0,0,13.5-1.1,13.5-1.1c0.4,0,0.7,0.3,0.8,0.6
		c0,0.4-0.2,0.7-0.6,0.8l-13.4,2l0.3-2.2l15.9,7.1C80.7,98.7,80.2,99.9,79.4,99.6L79.4,99.6z"></path>
</g><g>
	<polygon class="st1" points="81.8,95.5 66.4,94.2 66.6,92.2 81.9,94.1 81.8,95.5 	"></polygon>
</g><g>
	<polygon class="st1" points="64.3,67.2 64.6,92.2 62.6,92.3 60.5,67.3 64.3,67.2 	"></polygon>
</g><path class="st0" d="M63.4,96.7c0,0,0.9,3.9,3.3,4.8c2.4,0.9-2.8,2.3-3.5,3.1c-0.7,0.8-1.7,0.8-1.7,0.8L48.6,96L63.4,96.7z"></path><g>
	<path class="st1" d="M63.3,106.2l-14.5-9.6c-1-0.6-0.4-2.3,0.8-2.1c0,0,13.4,1.8,13.4,1.8c0.4,0.1,0.7,0.4,0.6,0.8
		c0,0.4-0.4,0.6-0.7,0.6l-13.5-0.9c0,0,0.8-2.1,0.8-2.1l14,10.3C64.8,105.6,64.1,106.7,63.3,106.2L63.3,106.2z"></path>
</g><g>
	<polygon class="st1" points="66.6,102.7 51.8,98.2 52.4,96.3 67,101.3 66.6,102.7 	"></polygon>
</g><g>
	<polygon class="st1" points="51.4,70.8 50.5,95.7 48.4,95.7 47.5,70.8 51.4,70.8 	"></polygon>
</g><path class="st3" d="M82,5.3c-3-2.1-5.5-3.2-10.6-1.5c-5.1,1.7-7.7,6.8-7.2,13.6c0.6,6.8,4.6,19.2,6.2,23.2c1.7,4,2.3,7.7,0.7,8.3
	c-1.7,0.6-4.1-0.4-10.9-1.7c-6.8-1.2-13.5-3.1-21.1,1.8c-7.6,4.9-17.4,14.5-19.3,15.2c-1.9,0.8-4.7,2.1-8.1,2.7
	c-3.4,0.6-9.9,0.6-9.9,0.6l5.1,1.3l-0.6,1.8l3.9,0.8l2.9,1.8l-0.3,1.2c0,0,5.2,0.6,5.7,0c0.4-0.6,4.8,0.5,5.2,0.2
	c0.4-0.2,9.9,1.7,14.9,2.4s13.7,1.2,16.8,0.8c0.7-0.1,2.3-0.7,4.3-1.6c-2.1-1.6-0.4-4.8-0.4-4.8s-0.6,0.2-2.5,1.4
	c-1.9,1.2-5.7,0.5-8.5,0.6c-2.8,0.1-5.4-0.4-7.4-1.3c-2-1,1.1-4.5,1.1-4.5s-5.3,2.4-6.7,3c-1.4,0.6-4.7,0.2-7.8,0
	c-3.1-0.2-5.6-1.8-5.6-1.8s1.9-1.9,4.9-2.7c3-0.8,3.3-1.9,3.3-1.9l-2.9-0.5c0,0,1.4-2,2.2-2.9c0.7-0.9,6.6-1.8,6.6-1.8
	s-5.5-0.5-5.9-0.5s0.6-1,2.8-1.2c2.2-0.2,2.5-1.3,7.2-2.7c4.7-1.4,11.6-6.3,17.5-6.5c5.9-0.2,6.9,1.3,9.7,4.9
	c1.8,2.3,5.8,9.1,8.5,13.6c1.5-1.2,2.6-2.4,3.3-3.5c3.6-5.6,4-14-1.7-24.6c-5.7-10.6-5.5-19.2-5.1-20.7c0.4-1.5-1-2.3,1.7-2.2
	c2.6,0.1,4.8,0.4,6.2,0.3c1.4-0.1,2.6-0.3,3-0.4c0.4-0.1,2.3-2.9,2.3-2.9S85,7.4,82,5.3z"></path><path class="st4" d="M57.4,48c-5.9,0.2-12.8,5.2-17.5,6.5c-4.7,1.4-5,2.4-7.2,2.7c-2.2,0.2-3.1,1.2-2.8,1.2s5.9,0.5,5.9,0.5
	s-5.9,0.9-6.6,1.8c-0.7,0.9-2.2,2.9-2.2,2.9l2.9,0.5c0,0-0.4,1-3.3,1.9c-3,0.8-4.9,2.7-4.9,2.7s2.5,1.6,5.6,1.8
	c3.1,0.2,6.3,0.6,7.8,0c1.4-0.6,6.7-3,6.7-3s-3.1,3.6-1.1,4.5c2,1,4.7,1.4,7.4,1.3c2.8-0.1,6.6,0.6,8.5-0.6c1.9-1.2,2.5-1.4,2.5-1.4
	s-1.7,3.2,0.4,4.8c4.6-2.2,11.6-6.2,15.9-9.8c-2.6-4.5-6.7-11.2-8.5-13.6C64.3,49.3,63.2,47.8,57.4,48z"></path><circle cx="77.9" cy="7.9" r="1.3"></circle><path class="st1" d="M83.2,10.1c0,0,6.1,5.4,7.2,6c1.1,0.6,2,1.7,2,1.7l-3.5,0.7l-9-2.7C79.9,15.7,83,13.5,83.2,10.1z"></path></g></svg>