<svg xmlns="http://www.w3.org/2000/svg" version="1.1" xmlns:xlink="http://www.w3.org/1999/xlink" xmlns:svgjs="http://svgjs.dev/svgjs" viewBox="0 0 108 108" style="" x="0" y="0"><style type="text/css">
	.st0{fill:#684028;}
	.st1{fill:#AE6E4C;}
	.st2{fill:#8F5A3D;}
	.st3{fill:#6E442B;}
	.st4{fill:#976041;}
	.st5{fill:#231F20;}
</style><g><path class="st0" d="M96.3,15.3c0,0-0.6,2.9-1.3,3.2c-0.8,0.2-1.4,1-1.3,1.9c0,0.9,1.3,2.2,1.3,2.2l0.5,0.2
	C95.5,22.8,97.6,17.5,96.3,15.3z"></path><path class="st1" d="M103.8,35.7c-1.8-2.4-4.3-6.4-4.7-8.2c-0.4-1.8-1.5-3.3-2.6-4.6c-1.1-1.3-1.2-3.4-4-3.7c-1.9-0.2-3-1.1-5.5-0.7
	c-0.8,0.8-1.6,1.7-2.3,2.8c-1.8,3-2.2,4.8-2.6,6.2c-0.4,1.3-1.8,5.1-1.8,5.1l-0.7-1.9c0,0-0.8,0.9-1.5,3.6c-0.7,2.7-2.5,4.3-2.6,4.7
	c-0.1,0.4-0.9,2.9-0.9,2.9l-1.4-3.4l-0.5,4l-2.1-4.1c0,0-1.5,1.2-1.6,1.3c0,0.1-1.6-2.3-1.6-2.3l-2.4,0.7l-0.8-1.7L62,38.5
	c0,0,0.7-3.4,0.3-5.5c0-0.3-0.1-0.6-0.2-0.8c-5.4,1.9-11.7,4.1-14.5,4.2c-3.6,0.1-9.2-2.7-16-3.1c-4.5-0.3-10.5,0.5-14.5,2.5
	c-2.1,1.1-3.6,2.5-4.1,4.3c-0.2,0.8-0.3,1.8-0.3,2.8c-0.1,5.6,2.3,13.3,2.4,16.8c0.1,4.1-2.5,9.8-3.6,10.5c-1.1,0.7-1,4.5-1,5.3
	c0,0.8,0.3,11.3,0,11.9c-0.3,0.6-1,1.1,0,1.6c1,0.6,1.6,0.5,1.7,1.2c0,0.1,0,0.3-0.1,0.5c0.6-0.2,1.2-0.3,1.9-0.3
	c0.4,0,0.8,0,1.2,0.1c0,0-0.1-0.1-0.1-0.1c-0.9-2.1-2.1-6.9-1.5-9.5c0.5-2.2,3.2-8,4.7-10.9c0.2-0.4,0.4-0.8,0.6-1.1
	c1.1-2,7.9-7.6,8.5-8c0.4-0.3,1.1-2.4,2.6-3.7c0-0.4,0-0.7,0-0.9c0.2-1.1,0.7-3.1,2.2-3.1c1.5,0,2.3,0.2,6.5-0.3s8.3-1.1,18.2,3.4
	c5.8,2.7,6.5,4.6,6,5.7c0.5,0.3,0.9,0.6,1.2,0.9c0.3,0.4,0.6,2.4,0.8,4.5c0.2,2.1,0.3,4.3,0,4.9c-0.5,1.3-0.3,6.9-0.3,8.9
	s-0.9,6.3,0,7.5c0.9,1.3,1.4,0.7,1.5,2.5c0,0.1,0,0.3,0,0.4c0.3,0.1,0.6,0.2,0.9,0.3c0.8-0.4,1.9-0.6,3-0.6c0,0,0,0,0,0
	c-0.9-1.4-1.7-2.9-1.8-3.7c-0.2-1.3-0.4-10.1,0.3-12.2c0.7-2.1,1.4-10.8,1.9-12.4c0.6-1.5,5.3-5.4,5.8-7.1c0.5-1.7,1.2-6.9,1.4-7.8
	c0.2-0.9,3.9-7.9,4.4-9.2c0.6-1.3,3.5-5.4,4.2-5.9c0.8-0.5,1.3-1.3,2.3,0.6c1.1,1.9,1.9,2.7,3.2,2.8c0.7,0.1,1.5,0.2,2.4,0.5h0
	c2.4-0.2,3.7-1.3,3.7-1.3v1.3l1.5,3.6c0,0,0.2,0.2,0.4,0.5c0.5,0.5,1.5,1.1,4.1,0.5C105.7,41.2,105.6,38.1,103.8,35.7z"></path><path class="st0" d="M17.1,35.8c-0.5,0-1.1,0-1.7,0.1c-4,0.6-9.3,2.1-10,6.9c-0.8,4.8-0.6,11.2,0,14.9c0.6,3.7,0.9,9.9,0.7,12.4
	c-0.2,2.5,1.8-3.7,2.4-5.3c0.6-1.6,0.7-5.2,0.7-5.2L10,65c0,0,1-5.7,1-6.9c0-1.2,0.5-6.1,0.6-7c0.1-0.8-1.2-5.9,1.1-8.3
	c0-1,0.1-1.9,0.3-2.8C13.5,38.3,15,36.9,17.1,35.8z"></path><path class="st0" d="M62,38.5l2.3-2.1l0.8,1.7l2.4-0.7c0,0,1.5,2.5,1.6,2.3c0-0.1,1.6-1.3,1.6-1.3l2.1,4.1l0.5-4l1.4,3.4
	c0,0,0.8-2.5,0.9-2.9c0.1-0.4,1.9-2,2.6-4.7c0.7-2.7,1.5-3.6,1.5-3.6l0.7,1.9c0,0,1.4-3.7,1.8-5.1c0.4-1.3,0.8-3.2,2.6-6.2
	c0.7-1.1,1.5-2,2.3-2.8c-1.1,0.1-2.5,0.5-4.4,1.3c-6.3,2.5-10.7,9-16.4,10.9c-1.2,0.4-2.6,0.9-4,1.4c0.1,0.3,0.2,0.5,0.2,0.8
	C62.7,35.1,62,38.5,62,38.5z"></path><path class="st2" d="M27.3,61c-0.6,0.4-7.4,6-8.5,8c-0.1,0.3-0.3,0.6-0.6,1.1c0,2.1,0.7,3.4,0.7,4.2c0,1.1,1.3,4.8,1.3,5.9
	c0,1.1,0.1,5.2,0.5,6.3c0.4,1.2,1.1,1.6,1.3,3.5c0,0.5,0.1,0.8,0.1,1c1-0.6,2.4-1,4-1.1c-0.8-1-2-2.8-2-3.8c0-1.4-1.4-8.4-0.7-11.5
	c0.7-3.1,2.8-8.1,4.2-10.7c0.9-1.5,2.9-5,4.5-7.5c0,0,0,0,0,0C28.9,56.5,27.9,60.6,27.3,61z"></path><path class="st2" d="M64.1,91.3c-1-1.6-2.6-5.3-2.6-6.2c0-1.1,1-9,1.2-9.6s1.8-6.5,2.1-8c0,0,0,0,0,0c-0.2-2.1-0.5-4.1-0.8-4.5
	c-0.6-0.9-2.2-1.5-4.1-1.6c0,0,0,0-0.1,0c0.2,3,0.3,6.7,0.3,7.7c-0.1,1.7-0.1,5.7-0.5,6.8c-0.4,1.1-0.4,8.8-0.8,10.1
	c-0.4,1.4-0.6,1.6,0,2.8c0.5,0.9,0.1,1.8,0.2,2.6c0.8-0.1,1.7-0.2,2.7-0.2C62.5,91.2,63.3,91.2,64.1,91.3z"></path><path class="st3" d="M59.7,94.1h5.4c-0.2-1-0.4-1.9-0.7-2.1c-0.1-0.1-0.3-0.3-0.5-0.6c-0.7-0.1-1.5-0.2-2.4-0.2
	c-1,0-1.9,0.1-2.7,0.2c0,0.2,0.1,0.4,0.2,0.6C59.5,92.4,59.6,93.2,59.7,94.1z"></path><path class="st3" d="M71.5,93.8c-0.4-0.5-0.9-1.4-1.5-2.3c0,0,0,0,0,0c-1.2,0-2.2,0.2-3,0.6c-0.3-0.1-0.6-0.2-0.9-0.3
	c0,0.4-0.1,0.7-0.1,1c-0.1,0.4-0.1,0.8,0,1.3h2.7h3.2C71.6,94,71.5,93.9,71.5,93.8z"></path><path class="st3" d="M22.4,92c0.1,0.1,0.6,0.6,1.1,1.3h4.9c-1.1-1.6-1.5-2.4-1.8-2.7c-0.1-0.1-0.3-0.3-0.6-0.7
	c-1.6,0.1-3.1,0.6-4,1.1C22.1,91.8,22.1,91.7,22.4,92z"></path><path class="st3" d="M12.1,90.7c-0.4,0.7-1.4,1.5-0.8,2.2c0.1,0.1,0.2,0.2,0.2,0.4H17c-0.8-1-1.5-2-1.9-2.8
	c-0.4-0.1-0.8-0.1-1.2-0.1C13.3,90.4,12.6,90.5,12.1,90.7z"></path><path class="st4" d="M56.7,56.3c-9.9-4.5-14-3.8-18.2-3.4s-5,0.3-6.5,0.3c-1.5,0-2,2-2.2,3.1c0,0.2,0,0.5,0,0.9
	c0.6-0.5,1.3-0.9,2.2-0.9c0,0,0,0,0,0c3.1-0.2,6,1.3,8.7,2.6c2.8,1.4,7,2.4,10.5,2.6c3.4,0.2,6.6-0.3,8.4-0.2c0,0,0,0,0.1,0
	c1.1,0.1,2.1,0.3,2.9,0.7C63.1,60.9,62.5,59,56.7,56.3z"></path><circle class="st5" cx="93.1" cy="28.3" r="0.9"></circle><path class="st4" d="M94.1,15.3c0,0-3.8,2-4.1,2.7c-0.3,0.7-0.7,3.3-1,4c-0.3,0.7-0.8,2.7,0,2.8c0.8,0.1,3.3-1.7,3.7-3.4
	C93,19.7,93.2,16.1,94.1,15.3z"></path><g id="XMLID_00000128470173818862568110000005917031013158688930_">
	<g>
		<path class="st5" d="M102.8,37.7c0.5,0,0.9,0.4,0.9,0.9c0,0.5-0.4,0.9-0.9,0.9c-0.5,0-0.9-0.4-0.9-0.9
			C101.9,38.1,102.3,37.7,102.8,37.7z"></path>
	</g>
</g><path class="st5" d="M101.7,36.5c0.2,1.3,1.4,1.2,1.6,1.5c0.2,0.3,0.1,1.4-0.1,1.4s-1.2,0-1.3-0.3C101.9,38.7,101.1,37.1,101.7,36.5
	z"></path><path class="st4" d="M99.3,40.7l-1.5-3.6v-1.3c0,0-1.3,1-3.7,1.3h0c0.6,0.2,1.3,0.6,2.1,1.1C98.1,39.6,99,40.3,99.3,40.7z"></path><path class="st5" d="M99.7,41.2c-0.2-0.3-0.4-0.5-0.4-0.5C99.4,40.8,99.5,41,99.7,41.2z"></path></g></svg>