<svg xmlns="http://www.w3.org/2000/svg" version="1.1" xmlns:xlink="http://www.w3.org/1999/xlink" xmlns:svgjs="http://svgjs.dev/svgjs" viewBox="0 0 108 108" style="" x="0" y="0"><style type="text/css">
	.st0{fill:#7D4333;}
	.st1{fill:#C66E58;}
	.st2{fill:#E98168;}
	.st3{fill:#F2B19B;}
	.st4{fill:#231F20;}
</style><g><path class="st0" d="M24.4,97.1c-0.8,1.2-1.4,2.3-1.7,3c-0.4,0.9-0.6,2.2-0.7,3.4h11.9c0.4-1.5,1-3.5,1.5-4.9c-1.2,0.6-2.8,1-4.7,1
	C27.5,99.7,25,98.6,24.4,97.1z"></path><path class="st0" d="M62.9,94.1c-1.4,1.6-2.3,3.2-2.5,4.5c-0.1,0.4-0.1,1.2-0.1,2h10.7c0.9-1.5,1.7-3,1.9-3.9
	c0.1-0.3,0.2-0.7,0.3-1.1c-1.1,0.5-2.6,0.8-4.2,0.8C66.1,96.4,63.6,95.4,62.9,94.1z"></path><path class="st0" d="M39.6,98.5c-0.4,0.5-0.8,1-1.1,1.5c-0.6,0.9-1,2.2-1.2,3.6h12.8c0.1-1.1,0.3-2.7,0.5-4.4
	c-1.3,0.3-2.8,0.5-4.6,0.5C43.2,99.7,40.9,99.2,39.6,98.5z"></path><path class="st0" d="M84.7,94.8c-0.8,2.2-1.4,4.7-1.5,5.8h13.4c0.1-1.3,0.2-2.4,0.2-3.4c0-0.5,0-1,0.1-1.5c-1.4,0.4-3.1,0.6-5.1,0.6
	C88.6,96.4,85.9,95.7,84.7,94.8z"></path><path class="st1" d="M39,79.4c-0.1-1.7-0.7-4.5-1.1-6.5c-0.2-0.2-0.4-0.3-0.6-0.5c-1.7-1.5-8.2-5.4-10.5-8.3
	c-1.3-1.6-3.7-8.6-5.7-14.7c-1,4-1.9,8.8-1.6,10.7c0.7,3.4,7.1,23.3,8.7,24.9c1.5,1.6,1.5,4.3,1,5.2c-0.2,0.4-1.3,1.9-2.6,3.8
	c-0.7,1.1-1.5,2.2-2.2,3.3c0.6,1.5,3.2,2.6,6.3,2.6c1.8,0,3.5-0.4,4.7-1c0.2-0.7,0.5-1.3,0.7-1.6c0.2-0.3,0.5-1,0.7-1.7
	c0.8-2.3,1.8-6.1,2.3-7.7C39.7,85.5,39.2,82.1,39,79.4z"></path><path class="st1" d="M78.4,72.9c-0.1-0.4-0.4-1.9-0.7-3.5c-2.8,1.4-8.2,4-11,5.3c-0.4,0.2-0.9,0.4-1.5,0.5c0.8,2,1.7,3.8,2.3,4.2
	c1.4,1,1.9,4.6,1,6.1c-0.6,1-2.1,3.6-3.5,5.7c-0.7,1.1-1.4,2.1-1.9,2.6c-0.1,0.1-0.2,0.2-0.3,0.3c0.7,1.3,3.2,2.2,6.2,2.2
	c1.6,0,3.1-0.3,4.2-0.8c0.3-1,0.6-2.4,1-3.8c0.8-3.2,1.9-6.8,2.8-8.3c1.5-2.6,3.1-4.4,2.9-6.1C79.8,75.6,78.8,74,78.4,72.9z"></path><path class="st2" d="M91,35.9c3.3-0.7,10.2-3.8,9.9-7.8c-0.1-1.8-1.8-3.6-3.6-3.1c-1.4,1.2-1.9,4.1-0.5,5.5c2.1,2.2,5.9,2.3,9,2.4
	c0.8,0,0.9,1.3,0,1.3c-3.5,0.1-7.4,0.1-10.2-2.5c-2.2-2.3-1.7-6.1,0.5-8.2c2-1.4,4.6-0.2,5.9,1.5c4.4,6.8-4.9,12.2-10.5,13.7
	C89.7,39.1,89.1,36.3,91,35.9L91,35.9z"></path><path class="st2" d="M41,64.2c-0.1-2.5,2.5-10.9,4.4-14c1.3-2.2,13.8-12.7,20.8-18.4c-2.3,0.6-5.3,1.7-9.3,1.4
	c-4.4-0.3-5.3-0.6-9-0.7c-3.7-0.1-7.7,0.6-8.7,0c-1-0.6-8.3-1.1-8.3-1.1l-12.9,8.1c0,0,1.4,4.6,3.1,9.9c2,6.2,4.5,13.2,5.7,14.7
	c2.4,2.9,8.8,6.8,10.5,8.3c0.2,0.2,0.4,0.3,0.6,0.5c1.6,1.2,3.7,2,3.8,2.6C44.4,71.6,41.1,66.7,41,64.2z"></path><path class="st3" d="M97.3,68.5c0.2-2.9,3.7-17.7,2.7-20.9s-4.4-11.9-10.2-14.3c-5.8-2.4-20.6-2.2-23-1.7c-0.2,0.1-0.5,0.1-0.7,0.2
	c-7,5.7-19.5,16.1-20.8,18.4c-1.8,3.1-4.5,11.5-4.4,14c0.1,2.5,3.5,7.4,0.7,11.3c0.2,0.7-1.2,9.8,0,11.1c1.2,1.3,2.2,3.5,1.5,6.2
	c-0.2,0.9-0.7,1.7-1.2,2.6c-0.7,1.1-1.6,2.1-2.4,3.1c1.3,0.7,3.7,1.2,6.4,1.2c1.7,0,3.3-0.2,4.6-0.5c0.1-1.2,0.3-2.5,0.5-3.5
	c0.1-0.7,0.3-1.4,0.4-1.8c0.8-2.5,1.5-9,2.3-11.9c0.9-2.9,1.9-6.5,1.9-6.5s1.1-4.1,2.2-6.1c1-2,3.1-14.3,3.1-14.3s-0.4,9.5,2.7,11.5
	c3.1,1.9,5.5,1.2,8.1,1.3c2.5,0.1,3.6-0.2,6.4-1.7c2.8-1.5,4.3-6.4,4.3-6.4v6.8c0.2-0.1,0.3-0.2,0.3-0.2s2.2,7.7,2.4,9.5
	c0.2,1.8,2.2,4.1,2.9,4.8c0.7,0.7,1.4,2.4,1.2,3.4c-0.2,1-1.4,5.6-2.9,7.7c-0.1,0.1-0.2,0.3-0.3,0.4c-0.5,0.7-0.9,1.7-1.3,2.8
	c1.2,0.9,3.9,1.5,7.1,1.5c1.9,0,3.7-0.2,5.1-0.6c0-1.3,0.1-2.6,0.1-3.9c0-2.5,0-4.8-0.1-6.5c-0.2-3,1.9-6.2,2-8.4
	C99,74.8,97.2,71.4,97.3,68.5z"></path><path class="st2" d="M78.1,66.1c-2.8,1.5-3.9,1.8-6.4,1.7c-2.5-0.1-4.9,0.7-8.1-1.3c-3.1-1.9-2.7-11.5-2.7-11.5s-2.1,12.4-3.1,14.3
	c-1,2-2.2,6.1-2.2,6.1s5.9,0.6,9.6-0.3c0.5-0.1,1-0.3,1.5-0.5c2.8-1.3,8.3-3.9,11-5.3c0.6-0.3,1.1-0.6,1.4-0.7
	c1.2-0.7,2.7-1.7,3.3-2.2v-6.8C82.4,59.7,80.9,64.6,78.1,66.1z"></path><path class="st2" d="M7.7,8c-1-1.3-1.9-1.4-1.9-3.5C4.2,3.9,3.5,3.2,3.5,3.2s3.3,8.3,3.3,12.6c0,2.7,2.8,6,5.6,8.1
	c-0.1-2.5-0.7-6.6-1.1-9.2C10.8,11.3,9,9.6,7.7,8z"></path><path class="st3" d="M10.1,8c1.9,1.2,5.4,1.3,6.5,4.6c0.8,2.5,3,8.9,4.1,12.2c3.3-1.8,7.1-4.9,7.1-4.9l-2.2-5.3
	c-2.9-4.8-2.5-6.9-7.3-8.1C13.6,5.3,12.1,6,8.5,5.3C8.1,5.2,7.8,5.2,7.5,5.1C8.2,6.2,9.2,7.4,10.1,8z"></path><path class="st1" d="M20.7,24.8c-1-3.3-3.2-9.7-4.1-12.2C15.5,9.4,12,9.3,10.1,8C9.2,7.4,8.2,6.2,7.5,5.1C6.8,4.9,6.3,4.7,5.8,4.5
	c0,2,0.9,2.2,1.9,3.5c1.2,1.6,3,3.3,3.6,6.7c0.4,2.6,1,6.7,1.1,9.2c1.6,1.2,3.2,2.1,4.3,2.3C17.6,26.3,19.1,25.7,20.7,24.8z"></path><path class="st2" d="M58.1,8c1-1.3,1.9-1.4,1.9-3.5c1.6-0.7,2.3-1.4,2.3-1.4S59,11.4,59,15.7c0,2.7-2.8,6-5.6,8.1
	c0.1-2.5,0.7-6.6,1.1-9.2C55.1,11.3,56.9,9.6,58.1,8z"></path><path class="st3" d="M55.8,8c-1.9,1.2-5.4,1.3-6.5,4.6c-0.8,2.5-3,8.9-4.1,12.2c-3.3-1.8-7.1-4.9-7.1-4.9l2.2-5.3
	c2.9-4.8,2.5-6.9,7.3-8.1c4.7-1.2,6.2-0.6,9.8-1.2c0.4-0.1,0.7-0.2,1.1-0.2C57.6,6.2,56.7,7.4,55.8,8z"></path><path class="st1" d="M45.2,24.8c1-3.3,3.2-9.7,4.1-12.2c1.1-3.3,4.6-3.4,6.5-4.6c0.9-0.6,1.9-1.8,2.6-2.9C59,4.9,59.6,4.7,60,4.5
	c0,2-0.9,2.2-1.9,3.5c-1.2,1.6-3,3.3-3.6,6.7c-0.4,2.6-1,6.7-1.1,9.2c-1.6,1.2-3.2,2.1-4.3,2.3C48.2,26.3,46.8,25.7,45.2,24.8z"></path><ellipse class="st3" cx="32.6" cy="27.7" rx="19.7" ry="21.8"></ellipse><circle class="st4" cx="21.4" cy="25.9" r="2.5"></circle><circle class="st4" cx="43.7" cy="25.9" r="2.5"></circle><circle class="st1" cx="32.6" cy="40.8" r="3.3"></circle><path class="st2" d="M34.8,32.8c-0.6-0.4-1.4-0.6-2.2-0.6c-0.8,0-1.6,0.2-2.2,0.6c-2.3,0-4.2,1.9-4.2,4.3c0,2.4,1.9,4.3,4.3,4.3
	c0.8,0,1.5-0.2,2.1-0.6c0.6,0.4,1.4,0.6,2.1,0.6c2.4,0,4.3-1.9,4.3-4.3C39,34.7,37.1,32.9,34.8,32.8z"></path><circle class="st4" cx="29.3" cy="36.8" r="1.5"></circle><circle class="st4" cx="35.9" cy="36.8" r="1.5"></circle></g></svg>