<svg xmlns="http://www.w3.org/2000/svg" version="1.1" xmlns:xlink="http://www.w3.org/1999/xlink" xmlns:svgjs="http://svgjs.dev/svgjs" viewBox="0 0 108 108" style="" x="0" y="0"><style type="text/css">
	.st0{fill:none;}
	.st1{fill:#E0E2DD;}
	.st2{fill:#A7AAAC;}
	.st3{fill:#CFD1D2;}
	.st4{fill:#E2E3E4;}
	.st5{fill:#C3C6C7;}
	.st6{fill:#F4F3F3;}
	.st7{fill:#231F20;}
	.st8{fill:#DF0A83;}
</style><g><path class="st0" d="M78.9,99.7c0.7-0.8,2.7-5.8,4.6-10.1c1-2.3,1.2-5.4,1.1-7.8c-0.9-0.5-1.6-1-2-1.6c-1.4-2-5-8.3-5-8.3
	s-9,5.8-13.2,6.1c-4.2,0.3-10.9-0.8-13.1-1.9c-2.2-1.1-2.7-2.5-2.7-2.5s-3.1,4.2-6,5.3c-0.1,0-0.2,0.1-0.2,0.1
	c-0.4,1.3-0.9,2.8-1.1,4.3c-0.6,3.7-0.6,11.7-0.5,12.3c0.1,0.6,0,1.5,0,1.5l-2.2,2.7c0,0-0.1,0.6-0.3,1.1h39.4
	C77.8,100.4,78.3,100.3,78.9,99.7z"></path><path class="st1" d="M22.3,35.6c-1.4,2.3-2.2,3-2.6,4.9s0,6.2,0,6.2l3.3-7.2c0,0-1.1,10.2-1.7,11.5c-0.7,1.3-1.5,2.3-0.8,2.4
	c0.7,0.2,2.6-0.1,3.4-0.5c0.3-0.2,0.6-0.7,0.8-1.2c0.2-1,0.4-1.7,0.4-1.7s-0.1,0.9-0.4,1.7c-0.6,2.4-1.6,6.8-1.6,8
	c0,1.7,0.7,4.2,0.7,4.2l3.4-7.2c0,0,0.2,7.2,0,8.5c-0.2,1.3-0.5,3.3,0.1,3.4C27.9,68.7,30,66,30,66s-0.3,5.5-0.4,6.3
	c-0.1,0.8,0.4,1.1,0.4,1.1l3.1-2.2c0,0-0.2,1.5-0.3,2.2c-0.2,0.7-0.3,1.9-0.3,1.9s1.3,0.1,2.2-0.4s1.5-0.8,2-1.6
	c0.5-0.8,1.4-2.4,1.4-2.4s0.5,4.2,0.5,4.5c0,0.2,0.3,0.8,1,0.5s1.9-0.2,2.3-1.3c0.4-1.2,0.6-3.3,0.6-3.3l1,2.7c0,0,4.6-7.4,4.7-8.2
	c0.2-0.8,0-4.1,0-4.1s6,7.2,6.5,7.1c0.5-0.2,1.6-2.4,1.9-1.3c0.3,1.2-1,2.1,0,2.4c1,0.3,1.6,0.4,2.1,0.3c0.6-0.1,3.1,0,3.7-0.4
	c0.6-0.4,4.3-2.2,5.6-2.4c1.3-0.3,2.1,0,2.1,0L67.1,70c0,0,3.5-0.4,5.1-0.9c1.7-0.5,3.5-1.6,4.6-3.2c1-1.6,1.8-4.7,1.8-4.7
	s1.9,8.8,2.2,9.4c0.3,0.7,0.2,1.4,0.7,0.6c0.5-0.8,1.8-3.4,1.8-3.4s-0.8,4.7,0.5,6c1.3,1.3,4,3,4.4,3c0.3,0.1,2.7,0,2.7,0
	s-2.7-4.1-2.8-5c-0.1-0.8,3.3-0.3,3.3-0.3s2.6,1,3.8-0.2s6.9-14.8,6.9-18.2c0-3.5-3.1-13.6-4.1-14.8c-1-1.2-4.4-4-7.4-6.7
	c-1-0.9-2.8-2-4.7-3.1c-8-0.2-32.1,0.7-37.5,0.2c-6.3-0.6-20.5-6.6-20.5-6.6L23,24.2C23.1,28,23.3,34,22.3,35.6z"></path><path class="st2" d="M40.7,97.2c0,0,0.1-0.9,0-1.5c-0.1-0.6-0.1-8.7,0.5-12.3c0.2-1.5,0.7-3,1.1-4.3c-2.8,1-6.5,1.2-6.5,1.2
	l-0.6,16.1L33,101h5.3c0.2-0.5,0.3-1.1,0.3-1.1L40.7,97.2z"></path><path class="st2" d="M85.2,98.4c1.1-0.8,1.5-1.4,1.5-1.4s-0.3-2.6,0-3.2c0.2-0.3,2.1-3.7,4-6.8l0.2-2.6c0,0-3.8-1.1-6.3-2.5
	c0.1,2.4,0,5.5-1.1,7.8c-1.9,4.2-3.9,9.3-4.6,10.1c-0.6,0.6-1.1,0.8-1.2,1.4h6.2C84.1,100.3,84.2,99.1,85.2,98.4z"></path><path class="st3" d="M102.8,43.4c-2-5.5-12.3-13.7-14.5-14.5c-0.3-0.1-1.2-0.2-2.5-0.2c1.8,1.1,3.6,2.2,4.7,3.1
	c3,2.7,6.4,5.5,7.4,6.7c1,1.2,4.1,11.3,4.1,14.8c0,3.5-5.7,17-6.9,18.2s-3.8,0.2-3.8,0.2S88,71,88,71.9c0.1,0.8,2.8,5,2.8,5
	s-2.4,0.1-2.7,0c-0.3-0.1-3.1-1.8-4.4-3c-1.3-1.3-0.5-6-0.5-6s-1.3,2.5-1.8,3.4c-0.5,0.8-0.3,0.1-0.7-0.6c-0.3-0.7-2.2-9.4-2.2-9.4
	s-0.8,3.1-1.8,4.7c-1,1.6-2.9,2.7-4.6,3.2c-1.7,0.5-5.1,0.9-5.1,0.9l3.1-2.8c0,0-0.8-0.3-2.1,0c-1.3,0.3-5.1,2-5.6,2.4
	c-0.6,0.4-3.1,0.3-3.7,0.4c-0.6,0.1-1.1-0.1-2.1-0.3c-1-0.3,0.3-1.2,0-2.4c-0.3-1.2-1.4,1.1-1.9,1.3c-0.5,0.2-6.5-7.1-6.5-7.1
	s0.2,3.4,0,4.1c-0.2,0.8-4.7,8.2-4.7,8.2l-1-2.7c0,0-0.2,2.1-0.6,3.3c-0.4,1.2-1.5,1.1-2.3,1.3s-1-0.3-1-0.5c0-0.2-0.5-4.5-0.5-4.5
	s-0.9,1.6-1.4,2.4c-0.5,0.8-1.1,1.1-2,1.6s-2.2,0.4-2.2,0.4s0.2-1.3,0.3-1.9c0.2-0.7,0.3-2.2,0.3-2.2L30,73.4c0,0-0.5-0.3-0.4-1.1
	C29.7,71.5,30,66,30,66s-2.1,2.7-2.7,2.6c-0.6-0.1-0.3-2.1-0.1-3.4c0.2-1.3,0-8.5,0-8.5l-3.4,7.2c0,0-0.7-2.5-0.7-4.2
	c0-1.2,1-5.6,1.6-8c-0.2,0.5-0.4,1-0.8,1.2c-0.8,0.5-2.7,0.7-3.4,0.5c-0.7-0.2,0.1-1.1,0.8-2.4c0.7-1.3,1.7-11.5,1.7-11.5l-3.3,7.2
	c0,0-0.4-4.3,0-6.2s1.2-2.6,2.6-4.9C23.3,34,23.1,28,23,24.2l-2.7,1.1L18.5,30c0,0-1.6,6-1.7,6.4c-0.2,0.5,0,7.9,0,7.9
	s0.5,8.2,0.8,10.5c0.3,2.3,2.7,2.3,2.7,2.3s-0.2,3.3,0,6.7c0.2,3.4,2.5,3.3,3.1,3.3c0.6,0,1.1,1.5,0.8,3.8c-0.3,2.3,1.1,2.6,2.7,4.9
	c1.6,2.4,1.4,1.6,2.5,2.5c0.5,0.4,0.9,1.2,1.2,2c0.5,1.2,0.9,2.4,1,2.7c0.2,0.5-2.4,14.2-2.4,14.2l-3.6,3.9H33l2.3-4.7l0.6-16.1
	c0,0,3.7-0.1,6.5-1.2c0.1,0,0.2-0.1,0.2-0.1c2.8-1.1,6-5.3,6-5.3s0.5,1.4,2.7,2.5c2.2,1.1,8.8,2.2,13.1,1.9
	c4.2-0.3,13.2-6.1,13.2-6.1s3.6,6.3,5,8.3c0.4,0.5,1.1,1.1,2,1.6c2.5,1.4,6.3,2.5,6.3,2.5l-0.2,2.6L90,96.8l-3.3,4.2h6.8l2.3-4.4
	L98,79c0,0-1.1-2.8-1.1-4.2c0-1.4,1.3-3.6,3.5-6.6C102.5,65.2,104.8,48.9,102.8,43.4z"></path><path class="st4" d="M17.7,17.5c-0.2-0.2-2.7-3.5-6-5.3s-8.2-1.9-9.1-1.7c-0.9,0.2-2.4,1.8-1.1,3.7s6.3,6.7,6.9,7.3s1.8,0.9,1.8,0.9
	l6.5-0.5l0.7-2L17.7,17.5z"></path><path class="st2" d="M15,21.3c-1.2-0.9-2.6-1.9-3.3-3.3c-0.5-0.9-0.6-1.6-1.4-2.3c-1-1-2.2-1.7-3.5-2.2c0,0,0.1-0.2,0.1-0.2
	c1,0.2,1.9,0.5,2.8,0.9c0.9,0.4,1.8,1,2.5,1.8c0.5,0.7,1,1.5,1.7,2c0.7,0.5,1.5,0.9,2.3,1.3L15,21.3L15,21.3z"></path><path class="st5" d="M26.2,40.6l4.1-0.5c0,0,2,0.5,2.5,0.5s1.8,0.1,3.5-0.8c1.7-0.8,2.2-4.2,2.2-4.2s1.2-0.8,2.1-2
	c0.8-1.2-0.1-4.2-0.1-4.2l1.4-0.4c0,0,0.8-1.6,1.2-3.3s-1.7-4.1-1.7-4.1l-1.1-6.3c0,0-2-2.8-2.3-3.5c-0.3-0.6-1.2-1.1-1.9-1.1
	C35.5,10.5,34,11,34,11s-0.2-0.8-0.4-1.2c-0.2-0.4-1.4-1.1-2.6-0.9c-1.2,0.2-2.4,1.1-2.4,1.1s-0.3-1-0.8-1.1c-0.5-0.1-0.4-1-1.6-1
	h-0.1c-1.1,0-1.1,0.9-1.6,1C24.1,9,23.7,10,23.7,10s-1.2-0.9-2.4-1.1c-1.2-0.2-2.4,0.5-2.6,0.9c-0.2,0.4-0.4,1.2-0.4,1.2
	s-1.5-0.5-2.2-0.4c-0.7,0.1-1.6,0.5-1.9,1.1C14,12.4,12,15.2,12,15.2l-1.1,6.3c0,0-2,2.5-1.7,4.1s1.2,3.3,1.2,3.3l1.4,0.4
	c0,0-0.9,3-0.1,4.2c0.8,1.2,2.1,2,2.1,2s0.5,3.3,2.2,4.2c1.7,0.8,2.9,0.8,3.5,0.8C20,40.5,22,40,22,40L26.2,40.6L26.2,40.6z"></path><path class="st4" d="M34.8,17.5c0.2-0.2,2.7-3.5,6-5.3c3.3-1.8,8.2-1.9,9.1-1.7c0.9,0.2,2.4,1.8,1.1,3.7s-6.3,6.7-6.9,7.3
	c-0.6,0.6-1.8,0.9-1.8,0.9l-6.5-0.5l-0.7-2L34.8,17.5z"></path><path class="st2" d="M37.4,21.3c1.2-0.9,2.6-1.9,3.3-3.3c0.5-0.9,0.6-1.6,1.4-2.3c1-1,2.2-1.7,3.5-2.2c0,0-0.1-0.2-0.1-0.2
	c-1,0.2-1.9,0.5-2.8,0.9c-0.9,0.4-1.8,1-2.5,1.8c-0.5,0.7-1,1.5-1.7,2c-0.7,0.5-1.5,0.9-2.3,1.3L37.4,21.3L37.4,21.3z"></path><path class="st6" d="M26.2,14.3c0,0,6.1-0.5,9.5,2.6s3,8.2,0.5,12.5s-4,8.5-4.5,10.6s-1.1,4.7-5.5,4.7h-0.1c-4.4,0-5-2.6-5.5-4.7
	c-0.5-2.1-2-6.2-4.5-10.6s-2.9-9.4,0.5-12.5S26.2,14.3,26.2,14.3"></path><path class="st7" d="M26.2,39L23,36.6c-0.2-0.1-0.4-0.1-0.5,0.1c-0.1,0.2-0.1,0.4,0.1,0.5l3.3,2.4v-0.3L26.2,39z"></path><path class="st8" d="M26.5,39.6v5c0,0,0,0,0.1,0L26.5,39.6L26.5,39.6z"></path><path class="st7" d="M26.6,39.6l3.3-2.4c0.2-0.1,0.2-0.4,0.1-0.5c-0.1-0.2-0.4-0.2-0.5-0.1L26.2,39l0.4,0.3V39.6z"></path><path class="st8" d="M25.9,39.6L25.9,39.6l-0.1,5c0,0,0,0,0.1,0V39.6z"></path><path class="st7" d="M25.9,44.7c0.1,0,0.2,0,0.3,0h0.1c0.1,0,0.2,0,0.3,0v-5l0.1-0.1v-0.3L26.2,39l-0.4,0.3v0.3l0.1,0.1V44.7z"></path><circle class="st7" cx="21.5" cy="24.8" r="1.9"></circle><circle class="st7" cx="31.2" cy="24.8" r="1.9"></circle></g></svg>