<svg id="Layer_1" data-name="Layer 1" xmlns="http://www.w3.org/2000/svg" viewBox="0 0 108 108">
  <defs>
    <style>
      .cls-1 {
        fill: #c8effe;
      }

      .cls-2 {
        fill: #99e6fc;
      }

      .cls-3 {
        fill: #eaf6ff;
      }

      .cls-4 {
        fill: #8ac9fe;
      }

      .cls-5 {
        fill: #60b7ff;
      }

      .cls-6 {
        fill: #978ecb;
      }
    </style>
  </defs>
  <g>
    <path class="cls-1" d="M49.87,47.93l-2.89,7L34.26,50.26l-5.7-2.08-4.18-1.53a16,16,0,0,1-5.73-3.6l-2.4-2.34a2.61,2.61,0,0,1,1.86-4.47l3.34,0a16,16,0,0,1,6.6,1.5l2.1,1,2.07,1,1.83.85,1,.46Z"/>
    <path class="cls-2" d="M35.05,41a1.07,1.07,0,0,0,.07.19l1.1,2.57a15.92,15.92,0,0,0,4.64,5.88,16.14,16.14,0,0,0-6.6.59L47,54.91l2.89-7Z"/>
    <path class="cls-1" d="M89.31,71l-3.34,0a16,16,0,0,1-6.6-1.5l-2-.94-2-.93-1.74-.81-16-7.47,2.89-7L78.73,59,83,60.56a16,16,0,0,1,5.73,3.6l2.39,2.34A2.6,2.6,0,0,1,89.31,71Z"/>
    <path class="cls-2" d="M91.17,66.5l-2.4-2.34A16,16,0,0,0,83,60.56L78.73,59,60.44,52.3,60,53.36l19.7,7.2c3.19,1,5.82,3.6,8.12,5.94a2.61,2.61,0,0,1-1.39,4.44l2.88,0a2.61,2.61,0,0,0,1.86-4.47Z"/>
    <path class="cls-1" d="M71.08,18l0,3.34A16.2,16.2,0,0,1,69.54,28l-1,2.18-.92,2-.52,1.13L59.39,49.77l-7-2.89,6.72-18.43,1.53-4.18a16,16,0,0,1,3.61-5.73l2.33-2.39A2.61,2.61,0,0,1,71.08,18Z"/>
    <path class="cls-2" d="M66.86,15.92a2.55,2.55,0,0,1,1,2.08c0,3.29,0,7-1.54,10l-9.63,20.7,2.7,1.12L67.6,32.11,69.54,28A16.2,16.2,0,0,0,71,21.34l0-3.34a2.61,2.61,0,0,0-4.22-2.08Z"/>
    <path class="cls-1" d="M55,60.33,48.33,78.62l-1.57,4.32a16,16,0,0,1-3.61,5.73l-2.34,2.39a2.61,2.61,0,0,1-4.47-1.85l0-3.34a16.2,16.2,0,0,1,1.5-6.61l.94-2,.94-2,.8-1.72L48,57.44Z"/>
    <path class="cls-2" d="M48,57.44l-.54,1.16,4.18,1.73c-1.14,3.11-7.26,19.89-8.26,22.61-1,3.19-3.6,5.82-5.94,8.12a1.71,1.71,0,0,1-.2.18,2.59,2.59,0,0,0,3.54-.18l2.34-2.39a16,16,0,0,0,3.61-5.73l1.57-4.32L55,60.33Z"/>
    <path class="cls-1" d="M49.87,59.28l-14.82,6.9-3,1.38-4,1.87a16,16,0,0,1-6.6,1.5l-3.34,0a2.61,2.61,0,0,1-1.86-4.47l2.4-2.34a16,16,0,0,1,5.73-3.6l2.15-.79L28.69,59l1.86-.68L34.21,57,47,52.3Z"/>
    <path class="cls-2" d="M35.12,66a1.46,1.46,0,0,0-.07.19l14.82-6.9L47,52.3,34.21,57a17,17,0,0,0,6.65.57A17.89,17.89,0,0,0,35.12,66Z"/>
    <path class="cls-1" d="M91.17,40.71l-2.4,2.34A16,16,0,0,1,83,46.65l-2.25.83-1.93.7-2.06.75-16.36,6-2.89-7L75.2,39.72l4.17-1.94a16,16,0,0,1,6.6-1.5l3.34,0a2.61,2.61,0,0,1,1.86,4.47Z"/>
    <path class="cls-2" d="M89.31,36.24l-2.88,0a2.61,2.61,0,0,1,1.39,4.44l-2.39,2.34C83,45.71,78.86,47,75.52,48.18L60,53.85l.44,1.06,18.42-6.73L83,46.65a16,16,0,0,0,5.73-3.6l2.4-2.34a2.61,2.61,0,0,0-1.86-4.47Z"/>
    <path class="cls-1" d="M55,46.88l-7,2.89L39.76,32l-1.88-4a16.2,16.2,0,0,1-1.5-6.61l0-3.34a2.61,2.61,0,0,1,4.47-1.85l2.34,2.39a16,16,0,0,1,3.61,5.73l.83,2.26.74,2.06.43,1.16h0Z"/>
    <path class="cls-2" d="M48.33,28.59l-1.57-4.32a16,16,0,0,0-3.61-5.73l-2.34-2.39A2.59,2.59,0,0,0,37.27,16a1.71,1.71,0,0,1,.2.18c2.34,2.3,4.91,4.93,5.94,8.12,1,2.72,7.12,19.5,8.26,22.61l-4.18,1.73L48,49.77l7-2.89Z"/>
    <path class="cls-1" d="M71.08,89.21a2.61,2.61,0,0,1-4.48,1.85l-2.33-2.39a16,16,0,0,1-3.61-5.73L60,81l-.82-2.25-.55-1.51L52.41,60.33l7-2.89L67.6,75.1l1.94,4.16A16.2,16.2,0,0,1,71,85.87Z"/>
    <path class="cls-2" d="M71,85.87a16.2,16.2,0,0,0-1.5-6.61L67.6,75.1,59.39,57.44,56.58,58.6c2.21,4.74,8.5,18.28,9.61,20.66,1.53,3,1.57,6.66,1.54,9.95a2.55,2.55,0,0,1-.93,2,2.61,2.61,0,0,0,4.28-2Z"/>
    <path class="cls-3" d="M58.51,23.84l-.1,2.41-.09,2.18-.06,1.24-.77,18.22H49.93l-.84-19.6-.18-4.45a16,16,0,0,1,1.14-6.67l1.24-3.1a2.6,2.6,0,0,1,4.84,0l1.24,3.1A16,16,0,0,1,58.51,23.84Z"/>
    <path class="cls-1" d="M57.37,17.17l-1.24-3.1A2.61,2.61,0,0,0,52,13a2.52,2.52,0,0,1,.74,1c1.29,3,2.66,6.43,2.39,9.77-.13,2.9-.89,20.74-1,24.05h3.35l.83-19.46.19-4.59A16,16,0,0,0,57.37,17.17Z"/>
    <path class="cls-3" d="M57.37,90l-1.24,3.1a2.6,2.6,0,0,1-4.84,0L50.05,90a16,16,0,0,1-1.14-6.67L49,81l.08-2.1.09-2.11.75-17.49h7.56l.83,19.46.19,4.59A16,16,0,0,1,57.37,90Z"/>
    <path class="cls-1" d="M58.51,83.37l-.19-4.59-.83-19.46H54.14c.14,3.31.9,21.15,1,24.05.27,3.34-1.1,6.75-2.39,9.77a2.52,2.52,0,0,1-.74,1,2.61,2.61,0,0,0,4.09-1L57.37,90a16,16,0,0,0,1.14-6.67Z"/>
    <path class="cls-3" d="M93.25,56l-3.11,1.25a16,16,0,0,1-6.67,1.14l-2.7-.12-1.89-.08-2.71-.11-16.74-.72V49.83L79,49l4.45-.19a16,16,0,0,1,6.67,1.14l3.11,1.25A2.6,2.6,0,0,1,93.25,56Z"/>
    <path class="cls-1" d="M93.25,51.19l-3.11-1.25a16,16,0,0,0-6.67-1.14L82,48.87a13.57,13.57,0,0,1,4.84,1.07l3.1,1.25a2.6,2.6,0,0,1,0,4.83,27.52,27.52,0,0,1-7.52,2.34l1.09,0a16,16,0,0,0,6.67-1.14L93.25,56a2.6,2.6,0,0,0,0-4.83Z"/>
    <path class="cls-3" d="M48,49.83v7.55l-7.32.31-12.13.52-4.59.2a16.07,16.07,0,0,1-6.68-1.14L14.17,56a2.6,2.6,0,0,1,0-4.83l3.1-1.25A16.07,16.07,0,0,1,24,48.8l2.15.09,2.3.1,1.77.08,10.52.45Z"/>
    <path class="cls-1" d="M40.69,49.52l.17.15a17.88,17.88,0,0,0-10,1.91,2.18,2.18,0,0,0,0,4.05l2.59,1a15.79,15.79,0,0,0,7.44.87l-.19.15L48,57.38V49.83Z"/>
    <path class="cls-3" d="M52.34,46.89,47,52.23,35.2,41.4,32.55,39l-3.28-3a16.06,16.06,0,0,1-3.91-5.53L24,27.36a2.6,2.6,0,0,1,3.42-3.42l3.08,1.31a16.08,16.08,0,0,1,3.87,2.35,15.22,15.22,0,0,1,1.65,1.56l1.63,1.78,1.48,1.61.84.91,6.4,7,4.82,5.25Z"/>
    <path class="cls-1" d="M51.23,45.69l-4.82-5.25a22.36,22.36,0,0,0,0,3.66A17.94,17.94,0,0,0,38,38.36a2.18,2.18,0,0,0-2.86,2.86l.08.18L47,52.23l5.34-5.34Z"/>
    <path class="cls-1" d="M51.66,46.88l-7,2.89L36.41,32c-.64-1.38-1.38-2.86-2-4.39a15.22,15.22,0,0,1,1.65,1.56l3.11,3.39L51.23,45.69C51.41,46.18,51.56,46.59,51.66,46.88Z"/>
    <path class="cls-3" d="M80,83.27,76.88,82a16.07,16.07,0,0,1-5.52-3.91l-1.29-1.41-1.73-1.87-.9-1L55.08,60.32,60.42,55,74.77,68.15l3.38,3.1a16,16,0,0,1,3.91,5.53l1.32,3.07A2.61,2.61,0,0,1,80,83.27Z"/>
    <path class="cls-1" d="M83.38,79.85l-1.32-3.07a16.06,16.06,0,0,0-3.91-5.53l-3.38-3.1L60.42,55l-1.6,1.6,16,14.67c2.55,2.17,4,5.56,5.22,8.6A2.59,2.59,0,0,1,79.21,83l.75.31a2.61,2.61,0,0,0,3.42-3.42Z"/>
    <path class="cls-3" d="M83.38,27.36l-1.32,3.07A16.06,16.06,0,0,1,78.15,36L76.26,37.7l-1.49,1.36-1.83,1.68L60.42,52.23l-5.34-5.34L68.34,32.44l3-3.28a16.07,16.07,0,0,1,5.52-3.91L80,23.94a2.61,2.61,0,0,1,3.42,3.42Z"/>
    <path class="cls-1" d="M80,23.94l-.75.31A2.59,2.59,0,0,1,80,27.36c-1.23,3-2.67,6.43-5.22,8.6l-16,14.67,1.6,1.6L74.77,39.06,78.15,36a16.06,16.06,0,0,0,3.91-5.53l1.32-3.07A2.61,2.61,0,0,0,80,23.94Z"/>
    <path class="cls-3" d="M52.34,60.32l-1.11,1.2-4.81,5.25-7.25,7.89-3.11,3.39a15.22,15.22,0,0,1-1.65,1.56A16.08,16.08,0,0,1,30.54,82l-3.08,1.31A2.6,2.6,0,0,1,24,79.85l1.32-3.07a16,16,0,0,1,3.91-5.53L31,69.63l1.52-1.39,1.6-1.47,1-1L47,55Z"/>
    <path class="cls-1" d="M47,55,35.18,65.82l-.06.17A2.18,2.18,0,0,0,38,68.85l2.57-1.1a15.92,15.92,0,0,0,5.88-4.64,15.46,15.46,0,0,0,0,3.66l4.81-5.25,1.11-1.2Z"/>
    <path class="cls-1" d="M51.66,60.33c-.1.29-.25.7-.43,1.19L39.17,74.66l-3.11,3.39a15.22,15.22,0,0,1-1.65,1.56c.62-1.53,1.36-3,2-4.39l8.28-17.78Z"/>
    <path class="cls-4" d="M73.25,51.58l-2.6-1a13.46,13.46,0,0,0-5.58-.95l-.54,0a.48.48,0,0,1-.34-.83l.39-.37a13.49,13.49,0,0,0,3.28-4.62L69,41.22a2.18,2.18,0,0,0-2.86-2.86l-2.57,1.1a13.56,13.56,0,0,0-4.62,3.27l-.36.4a.49.49,0,0,1-.84-.35l0-.54a13.5,13.5,0,0,0-1-5.58l-1-2.59a2.18,2.18,0,0,0-3.55-.76,2.37,2.37,0,0,0-.49.76l-1,2.59a13.34,13.34,0,0,0-1,5.58l0,.54a.49.49,0,0,1-.84.35l-.36-.4a13.5,13.5,0,0,0-4.63-3.27l-2.57-1.1a2.18,2.18,0,0,0-2.86,2.86l1.1,2.57a13.36,13.36,0,0,0,3.28,4.62l.39.36a.48.48,0,0,1-.35.84l-.53,0a13.46,13.46,0,0,0-5.58.95l-2.6,1a2.18,2.18,0,0,0,0,4.05l2.6,1a13.46,13.46,0,0,0,5.58.95l.53,0a.48.48,0,0,1,.35.83l-.39.37a13.36,13.36,0,0,0-3.28,4.62L38.46,66a2.18,2.18,0,0,0,2.86,2.86l2.57-1.1a13.5,13.5,0,0,0,4.63-3.27l.36-.4a.49.49,0,0,1,.84.35l0,.53a13.38,13.38,0,0,0,1,5.59l1,2.59a2.14,2.14,0,0,0,.35.59h0l.06.07.06.06,0,0a2.18,2.18,0,0,0,3.55-.75l1-2.59a13.54,13.54,0,0,0,1-5.59l0-.53a.49.49,0,0,1,.84-.35l.36.4a13.56,13.56,0,0,0,4.62,3.27l2.57,1.1A2.18,2.18,0,0,0,69,66l-1.09-2.57a13.49,13.49,0,0,0-3.28-4.62l-.39-.37a.48.48,0,0,1,.34-.83l.54,0a13.46,13.46,0,0,0,5.58-.95l2.6-1a2.18,2.18,0,0,0,0-4.05Z"/>
    <path class="cls-5" d="M56,64.48l-.36-.4a.49.49,0,0,0-.84.35l0,.54a13.53,13.53,0,0,1-1,5.58l-1,2.59a2,2,0,0,1-.59.84,2.19,2.19,0,0,0,3.46-.84l1-2.59a13.49,13.49,0,0,0,1-4.52A12.46,12.46,0,0,1,56,64.48Zm.74-27.82-1-2.59a2.19,2.19,0,0,0-3.46-.84,2,2,0,0,1,.59.84l1,2.59a13.5,13.5,0,0,1,1,5.58l0,.54a.49.49,0,0,0,.84.35l.36-.4a12.46,12.46,0,0,1,1.7-1.55,13.49,13.49,0,0,0-1-4.52ZM73.25,51.58l-2.6-1a13.46,13.46,0,0,0-5.58-.95l-.54,0a.48.48,0,0,1-.34-.84l.39-.36a13.49,13.49,0,0,0,3.28-4.62L69,41.22a2.18,2.18,0,0,0-2.86-2.86l-.67.29a2.13,2.13,0,0,1,.66,2.57L65,43.79a13.49,13.49,0,0,1-3.28,4.62l-.39.36a.48.48,0,0,0,.34.84l.54,0a13.46,13.46,0,0,1,5.58.95l2.6,1a2.18,2.18,0,0,1,0,4.05l-2.6,1a13.46,13.46,0,0,1-5.58.95l-.54,0a.48.48,0,0,0-.34.84l.39.36A13.49,13.49,0,0,1,65,63.42L66.08,66a2.13,2.13,0,0,1-.66,2.57l.67.29A2.18,2.18,0,0,0,69,66l-1.09-2.57a13.49,13.49,0,0,0-3.28-4.62l-.39-.36a.48.48,0,0,1,.34-.84l.54,0a13.46,13.46,0,0,0,5.58-.95l2.6-1a2.18,2.18,0,0,0,0-4.05Z"/>
    <path class="cls-6" d="M52.78,49.8a.39.39,0,0,0-.72.26,1.11,1.11,0,0,1-1.43,1.2.39.39,0,0,0-.38.66,1.1,1.1,0,0,1-.32,1.83.4.4,0,0,0,.13.76A1.1,1.1,0,0,1,51,56.12a.39.39,0,0,0,.59.49,1.1,1.1,0,0,1,1.74.64.39.39,0,0,0,.77,0,1.11,1.11,0,0,1,1.75-.64.39.39,0,0,0,.59-.49,1.1,1.1,0,0,1,.93-1.61.4.4,0,0,0,.13-.76,1.1,1.1,0,0,1-.32-1.83.39.39,0,0,0-.39-.66,1.1,1.1,0,0,1-1.42-1.2.39.39,0,0,0-.72-.26,1.1,1.1,0,0,1-1.86,0Z"/>
    <g>
      <path class="cls-1" d="M58.41,26.25l-.09,2.18-.06,1.24a1.22,1.22,0,0,1-1-.57l-3.42-5.43A1.24,1.24,0,0,1,56,22.35Z"/>
      <path class="cls-1" d="M53.34,85.26a1.24,1.24,0,0,1-1.72-.34L49,81l.08-2.1.09-2.11,4.5,6.73a1.23,1.23,0,0,1-.34,1.72Z"/>
      <path class="cls-1" d="M85,55.85l-4.19,2.44-1.89-.08-2.71-.11,7.47-4.35A1.24,1.24,0,1,1,85,55.85Z"/>
      <path class="cls-1" d="M30.17,49.07l-6.39,4.51a1.29,1.29,0,0,1-.69.21,1.25,1.25,0,0,1-.7-2.28l3.71-2.62,2.3.1Z"/>
      <path class="cls-1" d="M40,33.46a1.23,1.23,0,0,1-.84.33l-.28,0-6.24-1.42a1.25,1.25,0,0,1-.94-1.49,1.23,1.23,0,0,1,1.49-.93l4.49,1,1.48,1.61Z"/>
      <path class="cls-1" d="M75.83,76.25a1.23,1.23,0,0,1-1.21,1l-.25,0-4.3-.59-1.73-1.87-.9-1,7.42,1a1.23,1.23,0,0,1,1,1.46Z"/>
      <path class="cls-1" d="M77.4,33.09,76.26,37.7l-1.49,1.36-1.83,1.68,2-8.2a1.25,1.25,0,0,1,2.43.55Z"/>
      <path class="cls-1" d="M34.15,66.77l-1.63,8a1.23,1.23,0,0,1-1.21,1,1.1,1.1,0,0,1-.25,0,1.23,1.23,0,0,1-1-1.46L31,69.63l1.52-1.39Z"/>
    </g>
    <path class="cls-2" d="M34.05,40.57,26.11,42l-.21,0a1.24,1.24,0,0,1-.21-2.47l4.46-.82,2.07,1Z"/>
    <path class="cls-2" d="M81.84,67.52l-4.51,1-2-.93-1.74-.81,7.76-1.67a1.24,1.24,0,1,1,.49,2.44Z"/>
    <path class="cls-2" d="M68.52,30.13l-.92,2-.52,1.13a1.27,1.27,0,0,1-.71-.92L65.3,26a1.24,1.24,0,1,1,2.44-.42Z"/>
    <path class="cls-2" d="M41.26,82.71l-.25,0a1.25,1.25,0,0,1-1.22-1l-1-4.51.94-2,.8-1.72,1.67,7.75a1.23,1.23,0,0,1-1,1.46Z"/>
    <path class="cls-2" d="M30.55,58.3,26,64.93a1.23,1.23,0,0,1-1,.52,1.21,1.21,0,0,1-.72-.23,1.25,1.25,0,0,1-.3-1.73l2.56-3.72L28.69,59Z"/>
    <path class="cls-2" d="M83.44,43.55l-2.65,3.93-1.93.7-2.06.75,4.57-6.76a1.24,1.24,0,0,1,2.07,1.38Z"/>
    <path class="cls-2" d="M48.76,29.75a1.26,1.26,0,0,1-.43.08,1.21,1.21,0,0,1-.72-.23l-5.22-3.7a1.24,1.24,0,1,1,1.43-2l3.77,2.66.74,2.06Z"/>
    <path class="cls-2" d="M65.48,83a1.23,1.23,0,0,1-1,.56,1.24,1.24,0,0,1-.69-.21L60,81l-.82-2.25-.55-1.51,6.56,4A1.23,1.23,0,0,1,65.48,83Z"/>
  </g>
</svg>
