<svg xmlns="http://www.w3.org/2000/svg" version="1.1" xmlns:xlink="http://www.w3.org/1999/xlink" xmlns:svgjs="http://svgjs.dev/svgjs" viewBox="0 0 108 108" style="" x="0" y="0"><style type="text/css">
	.st0{fill:#6F2C52;}
	.st1{fill:#D776A0;}
	.st2{fill:#D882B1;}
	.st3{fill:#D365A2;}
	.st4{fill:#F9DA30;}
	.st5{fill:#F3CC30;}
	.st6{fill:#DFC308;}
	.st7{fill:#E4D639;}
	.st8{fill:#C4AE33;}
	.st9{fill:#B4568C;}
	.st10{fill:#CA5892;}
	.st11{fill:#E3ACCA;}
</style><g><circle class="st0" cx="53.2" cy="51.3" r="36"></circle><path class="st1" d="M68.6,13.3c-0.4-1-1.8-1.6-2.8-1.7c-1-0.1-3.3,0-4.5,0c-1.1,0-1.3,0.1-2.6,0.8c-0.4,0.2-0.6,0.5-0.8,0.7
	c2.9,2,8.2,5.6,8.7,5.8c0,0,0.1,0.1,0.2,0.1c0.9-1,1.9-2.3,1.8-2.8C68.3,15.3,69,14.2,68.6,13.3z"></path><path class="st2" d="M57.9,13.1c-0.4,0.7-0.2,1.6-0.4,3.1c-0.2,2.1,1.1,3.8,1.8,4.5c0.6,0.6,1.8,1.4,3.1,1.6
	c1.4,0.2,2.1-0.7,2.7-1.6c0,0,0.8-0.8,1.7-1.7c-0.1,0-0.1-0.1-0.2-0.1C66.1,18.7,60.8,15.1,57.9,13.1z"></path><path class="st2" d="M68.9,16c0.2-0.4,3.5-4.9,5.3-7.2C73.7,8.3,73,8,72.4,7.8c-1.2-0.4-3.2,0.2-4.8,0.8c-1.6,0.6-2.4,2.3-2.6,3.8
	c-0.2,1.6,0.7,3.5,0.7,4.1c0,0,1.3,1.2,2.3,1.9c0-0.1,0-0.2,0-0.2S68.7,16.5,68.9,16z"></path><path class="st3" d="M71.3,18.8c1.1-0.2,1.9-0.6,3.4-1.5c1.6-0.8,1-2.1,1.5-3.6c0.4-1.6,0-3-0.6-3.8c-0.3-0.4-0.8-0.8-1.3-1.2
	c-1.7,2.3-5.1,6.8-5.3,7.2c-0.3,0.6-0.9,2.3-0.9,2.3s0,0.1,0,0.2c0.4,0.3,0.8,0.5,0.9,0.4C69.4,18.5,70.1,19,71.3,18.8z"></path><path class="st3" d="M67.9,19.5c-0.3,0.2-0.5,0.3-0.5,0.3s-0.3,1.4,0,1.7c0.3,0.4,0.1,2,0,2.7c-0.1,0.7,2.1,2.3,3.2,2.6
	c1.2,0.3,3.4-1,4.2-1.9c0.2-0.2,0.5-0.5,0.8-0.9c-0.6-0.3-1.3-0.6-1.8-0.8C73,23.1,69.4,20.6,67.9,19.5z"></path><path class="st2" d="M76.3,16.9c-0.6-1.2-2.2-0.6-4,0c-1.3,0.5-3.5,1.9-4.4,2.6c1.5,1.1,5.1,3.6,6,3.9c0.5,0.2,1.2,0.5,1.8,0.8
	c0.8-0.9,1.6-2.1,1.7-3.7C77.5,18.2,76.9,18.2,76.3,16.9z"></path><path class="st3" d="M65,18.9c-1.1-0.4-1.7-0.1-2.3,0s-2.3,2.1-2.8,3.4c-0.5,1.2,0.9,1.8,1.4,2.5c0.3,0.6,1.2,1.3,2.8,2
	c0.8-1.8,2-4.6,2.8-6C66.4,20,65.6,19.1,65,18.9z"></path><path class="st2" d="M69.2,27c2.1-0.6,0.7-2.2,0.6-3.5c-0.1-1.2-2.4-1.9-2.4-1.9s-0.2-0.4-0.5-0.9c-0.7,1.4-2,4.2-2.8,6
	c0.4,0.2,0.9,0.4,1.4,0.7C68,28.5,67.1,27.5,69.2,27z"></path><path class="st4" d="M64.7,19.3c0.4,1,0.7,2.9,1.8,3c1.1,0.1,2.9-0.5,3-1.1c0.2-0.6,0.4-1.2,0.3-2.2c-0.1-1-0.6-2.4-1.2-2.5
	c-0.6,0-1.3-0.2-1.8,0s-0.6,0.3-1,0.7S64.7,19.3,64.7,19.3z"></path><circle class="st5" cx="66.6" cy="16" r="1.5"></circle><circle class="st6" cx="65.1" cy="17.4" r="1.5"></circle><circle class="st7" cx="65.4" cy="19.9" r="1.5"></circle><circle class="st6" cx="66" cy="21.3" r="1.5"></circle><circle class="st8" cx="68.4" cy="21.6" r="1.5"></circle><circle class="st6" cx="69.9" cy="19.7" r="1.5"></circle><circle class="st6" cx="69.6" cy="17.2" r="1.5"></circle><circle class="st4" cx="67.8" cy="18.7" r="1.5"></circle><path class="st9" d="M90.7,43.4c-0.4-1-1.8-1.6-2.8-1.7c-1-0.1-3.3,0-4.5,0c-1.1,0-1.3,0.1-2.6,0.8c-0.4,0.2-0.6,0.5-0.8,0.7
	c2.9,2,8.2,5.6,8.7,5.8c0,0,0.1,0.1,0.2,0.1c0.9-1,1.9-2.3,1.8-2.8C90.5,45.5,91.1,44.4,90.7,43.4z"></path><path class="st2" d="M80,43.3c-0.4,0.7-0.2,1.6-0.4,3.1c-0.2,2.1,1.1,3.8,1.8,4.5c0.6,0.6,1.8,1.4,3.1,1.6c1.4,0.2,2.1-0.7,2.7-1.6
	c0,0,0.8-0.8,1.7-1.7c-0.1,0-0.1-0.1-0.2-0.1C88.3,48.8,83,45.3,80,43.3z"></path><path class="st2" d="M91.1,46.1c0.2-0.4,3.5-4.9,5.3-7.2c-0.6-0.4-1.2-0.7-1.8-0.9c-1.2-0.4-3.2,0.2-4.8,0.8
	c-1.6,0.6-2.4,2.3-2.6,3.8c-0.2,1.6,0.7,3.5,0.7,4.1c0,0,1.3,1.2,2.3,1.9c0-0.1,0-0.2,0-0.2S90.8,46.7,91.1,46.1z"></path><path class="st3" d="M93.4,49c1.1-0.2,1.9-0.6,3.4-1.5c1.6-0.8,1-2.1,1.5-3.6c0.4-1.6,0-3-0.6-3.8c-0.3-0.4-0.8-0.8-1.3-1.2
	c-1.7,2.3-5.1,6.8-5.3,7.2c-0.3,0.6-0.9,2.3-0.9,2.3s0,0.1,0,0.2c0.4,0.3,0.8,0.5,0.9,0.4C91.5,48.7,92.2,49.2,93.4,49z"></path><path class="st3" d="M90,49.7c-0.3,0.2-0.5,0.3-0.5,0.3s-0.3,1.4,0,1.7c0.3,0.4,0.1,2,0,2.7c-0.1,0.7,2.1,2.3,3.2,2.6
	c1.2,0.3,3.4-1,4.2-1.9c0.2-0.2,0.5-0.5,0.8-0.9c-0.6-0.3-1.3-0.6-1.8-0.8C95.1,53.3,91.6,50.8,90,49.7z"></path><path class="st2" d="M98.4,47.1c-0.6-1.2-2.2-0.6-4,0C93.1,47.6,91,49,90,49.7c1.5,1.1,5.1,3.6,6,3.9c0.5,0.2,1.2,0.5,1.8,0.8
	c0.8-0.9,1.6-2.1,1.7-3.7C99.6,48.4,99,48.4,98.4,47.1z"></path><path class="st3" d="M87.1,49c-1.1-0.4-1.7-0.1-2.3,0c-0.5,0.1-2.3,2.1-2.8,3.4c-0.5,1.2,0.9,1.8,1.4,2.5c0.3,0.6,1.2,1.3,2.8,2
	c0.8-1.8,2-4.6,2.8-6C88.5,50.2,87.8,49.3,87.1,49z"></path><path class="st2" d="M91.3,57.1c2.1-0.6,0.7-2.2,0.6-3.5c-0.1-1.2-2.4-1.9-2.4-1.9s-0.2-0.4-0.5-0.9c-0.7,1.4-2,4.2-2.8,6
	c0.4,0.2,0.9,0.4,1.4,0.7C90.2,58.6,89.2,57.7,91.3,57.1z"></path><path class="st4" d="M86.9,49.5c0.4,1,0.7,2.9,1.8,3c1.1,0.1,2.9-0.5,3-1.1c0.2-0.6,0.4-1.2,0.3-2.2c-0.1-1-0.6-2.4-1.2-2.5
	c-0.6,0-1.3-0.2-1.8,0s-0.6,0.3-1,0.7C87.6,47.8,86.9,49.5,86.9,49.5z"></path><circle class="st5" cx="88.7" cy="46.1" r="1.5"></circle><circle class="st6" cx="87.2" cy="47.6" r="1.5"></circle><circle class="st7" cx="87.5" cy="50" r="1.5"></circle><circle class="st6" cx="88.2" cy="51.5" r="1.5"></circle><circle class="st8" cx="90.6" cy="51.8" r="1.5"></circle><circle class="st6" cx="92" cy="49.9" r="1.5"></circle><circle class="st6" cx="91.8" cy="47.4" r="1.5"></circle><circle class="st4" cx="89.9" cy="48.9" r="1.5"></circle><path class="st3" d="M74.4,81.3c-0.4-1-1.8-1.6-2.8-1.7c-1-0.1-3.3,0-4.5,0s-1.3,0.1-2.6,0.8c-0.4,0.2-0.6,0.5-0.8,0.7
	c2.9,2,8.2,5.6,8.7,5.8c0,0,0.1,0.1,0.2,0.1c0.9-1,1.9-2.3,1.8-2.8C74.2,83.4,74.8,82.3,74.4,81.3z"></path><path class="st2" d="M63.7,81.2c-0.4,0.7-0.2,1.6-0.4,3.1c-0.2,2.1,1.1,3.8,1.8,4.5c0.6,0.6,1.8,1.4,3.1,1.6
	c1.4,0.2,2.1-0.7,2.7-1.6c0,0,0.8-0.8,1.7-1.7c-0.1,0-0.1-0.1-0.2-0.1C72,86.8,66.7,83.2,63.7,81.2z"></path><path class="st2" d="M74.8,84c0.2-0.4,3.5-4.9,5.3-7.2c-0.6-0.4-1.2-0.7-1.8-0.9c-1.2-0.4-3.2,0.2-4.8,0.8c-1.6,0.6-2.4,2.3-2.6,3.8
	c-0.2,1.6,0.7,3.5,0.7,4.1c0,0,1.3,1.2,2.3,1.9c0-0.1,0-0.2,0-0.2S74.5,84.6,74.8,84z"></path><path class="st9" d="M77.1,86.9c1.1-0.2,1.9-0.6,3.4-1.5c1.6-0.8,1-2.1,1.5-3.6c0.4-1.6,0-3-0.6-3.8c-0.3-0.4-0.8-0.8-1.3-1.2
	c-1.7,2.3-5.1,6.8-5.3,7.2c-0.3,0.6-0.9,2.3-0.9,2.3s0,0.1,0,0.2c0.4,0.3,0.8,0.5,0.9,0.4C75.2,86.6,75.9,87.1,77.1,86.9z"></path><path class="st10" d="M73.7,87.6c-0.3,0.2-0.5,0.3-0.5,0.3s-0.3,1.4,0,1.7c0.3,0.4,0.1,2,0,2.7c-0.1,0.7,2.1,2.3,3.2,2.6
	c1.2,0.3,3.4-1,4.2-1.9c0.2-0.2,0.5-0.5,0.8-0.9c-0.6-0.3-1.3-0.6-1.8-0.8C78.8,91.2,75.3,88.7,73.7,87.6z"></path><path class="st2" d="M82.1,85c-0.6-1.2-2.2-0.6-4,0c-1.3,0.5-3.5,1.9-4.4,2.6c1.5,1.1,5.1,3.6,6,3.9c0.5,0.2,1.2,0.5,1.8,0.8
	c0.8-0.9,1.6-2.1,1.7-3.7C83.3,86.3,82.7,86.3,82.1,85z"></path><path class="st3" d="M70.8,86.9c-1.1-0.4-1.7-0.1-2.3,0c-0.5,0.1-2.3,2.1-2.8,3.4c-0.5,1.2,0.9,1.8,1.4,2.5c0.3,0.6,1.2,1.3,2.8,2
	c0.8-1.8,2-4.6,2.8-6C72.2,88.1,71.5,87.2,70.8,86.9z"></path><path class="st2" d="M75,95c2.1-0.6,0.7-2.2,0.6-3.5c-0.1-1.2-2.4-1.9-2.4-1.9s-0.2-0.4-0.5-0.9c-0.7,1.4-2,4.2-2.8,6
	c0.4,0.2,0.9,0.4,1.4,0.7C73.9,96.6,72.9,95.6,75,95z"></path><path class="st4" d="M70.6,87.4c0.4,1,0.7,2.9,1.8,3c1.1,0.1,2.9-0.5,3-1.1s0.4-1.2,0.3-2.2c-0.1-1-0.6-2.4-1.2-2.5
	c-0.6,0-1.3-0.2-1.8,0s-0.6,0.3-1,0.7S70.6,87.4,70.6,87.4z"></path><circle class="st5" cx="72.4" cy="84" r="1.5"></circle><circle class="st6" cx="70.9" cy="85.5" r="1.5"></circle><circle class="st7" cx="71.2" cy="88" r="1.5"></circle><circle class="st6" cx="71.9" cy="89.4" r="1.5"></circle><circle class="st8" cx="74.3" cy="89.7" r="1.5"></circle><circle class="st6" cx="75.7" cy="87.8" r="1.5"></circle><circle class="st6" cx="75.4" cy="85.3" r="1.5"></circle><circle class="st4" cx="73.6" cy="86.8" r="1.5"></circle><path class="st1" d="M50.9,86.9c-1,0.2-1.9,1.4-2.2,2.4c-0.3,1-0.6,3.3-0.8,4.4c-0.2,1.1-0.1,1.3,0.3,2.7c0.1,0.4,0.3,0.7,0.6,0.9
	c2.5-2.5,7-7,7.3-7.4c0,0,0.1-0.1,0.1-0.1c-0.8-1.1-1.9-2.3-2.4-2.3C52.8,87.5,51.9,86.7,50.9,86.9z"></path><path class="st2" d="M48.7,97.3c0.6,0.5,1.6,0.5,3,0.9c2,0.6,4-0.4,4.7-0.9c0.7-0.5,1.7-1.5,2.1-2.8s-0.3-2.2-1-2.9c0,0-0.6-1-1.4-2
	c-0.1,0-0.1,0.1-0.1,0.1C55.7,90.3,51.2,94.8,48.7,97.3z"></path><path class="st2" d="M53.6,87c-0.4-0.3-4.1-4.4-6.1-6.6c-0.5,0.5-0.9,1-1.3,1.6c-0.6,1.1-0.4,3.2-0.1,4.9c0.3,1.6,1.8,2.8,3.3,3.3
	c1.5,0.5,3.6,0,4.1,0.1c0,0,1.5-1.1,2.3-1.9c-0.1,0-0.2,0-0.2,0S54.1,87.4,53.6,87z"></path><path class="st3" d="M56.9,85.3c0-1.2-0.3-2-0.8-3.6c-0.5-1.7-1.8-1.4-3.3-2.1c-1.5-0.7-3-0.6-3.9-0.1c-0.4,0.2-0.9,0.6-1.4,1
	c2,2.2,5.7,6.3,6.1,6.6c0.5,0.4,2.1,1.3,2.1,1.3s0.1,0,0.2,0c0.4-0.4,0.6-0.7,0.6-0.8C56.2,87.1,56.8,86.4,56.9,85.3z"></path><path class="st3" d="M56.9,88.7c0.1,0.3,0.2,0.5,0.2,0.5s1.3,0.6,1.7,0.3c0.4-0.2,2,0.3,2.7,0.5c0.7,0.2,2.6-1.6,3.2-2.7
	c0.5-1.1-0.4-3.5-1-4.5c-0.2-0.3-0.4-0.6-0.7-1c-0.4,0.5-0.8,1.2-1.1,1.6C61.4,84.4,58.3,87.4,56.9,88.7z"></path><path class="st2" d="M56,80c-1.3,0.3-1,2.1-0.8,3.9c0.2,1.4,1.2,3.8,1.7,4.8c1.4-1.3,4.5-4.3,5-5.2c0.3-0.5,0.7-1.1,1.1-1.6
	c-0.7-0.9-1.7-1.9-3.3-2.3C57.4,79,57.3,79.7,56,80z"></path><path class="st3" d="M55.7,91.4c-0.6,1-0.4,1.7-0.4,2.2c0,0.5,1.7,2.6,2.8,3.4c1.1,0.7,1.9-0.6,2.7-0.9c0.6-0.2,1.5-1,2.5-2.4
	c-1.6-1.1-4.1-2.9-5.4-3.9C57.1,90.3,56.1,90.9,55.7,91.4z"></path><path class="st2" d="M64.5,88.9c-0.2-2.2-2.1-1.1-3.3-1.3c-1.2-0.1-2.3,2-2.3,2s-0.4,0.1-0.9,0.4c1.3,1,3.8,2.8,5.4,3.9
	c0.3-0.4,0.6-0.8,0.9-1.3C65.7,90.3,64.6,91,64.5,88.9z"></path><path class="st4" d="M56.1,91.8c1-0.2,3-0.1,3.3-1.2c0.3-1.1,0-2.9-0.5-3.2c-0.6-0.3-1.1-0.6-2.1-0.7s-2.5,0.1-2.6,0.7
	c-0.1,0.6-0.4,1.3-0.3,1.8s0.2,0.6,0.5,1.1C54.6,90.7,56.1,91.8,56.1,91.8z"></path><circle class="st5" cx="53.2" cy="89.3" r="1.5"></circle><circle class="st6" cx="54.3" cy="91" r="1.5"></circle><circle class="st7" cx="56.8" cy="91.2" r="1.5"></circle><circle class="st6" cx="58.3" cy="90.9" r="1.5"></circle><circle class="st8" cx="59.1" cy="88.6" r="1.5"></circle><circle class="st6" cx="57.5" cy="86.8" r="1.5"></circle><circle class="st6" cx="55" cy="86.6" r="1.5"></circle><circle class="st4" cx="56.1" cy="88.7" r="1.5"></circle><path class="st10" d="M32.5,89.8c-0.2,1,0.5,2.3,1.3,3c0.8,0.7,2.7,1.9,3.7,2.5c0.9,0.6,1.1,0.6,2.6,0.8c0.4,0,0.8,0,1.1-0.2
	c-1.3-3.3-3.6-9.3-3.9-9.7c0,0,0-0.1-0.1-0.2c-1.4,0.3-2.9,0.8-3.1,1.2C33.8,88.2,32.7,88.7,32.5,89.8z"></path><path class="st2" d="M41.2,96c0.7-0.4,1.1-1.2,2.1-2.4c1.4-1.6,1.2-3.8,1.1-4.7c-0.2-0.9-0.7-2.1-1.7-3.1s-2.1-0.6-3.1-0.2
	c0,0-1.1,0.2-2.3,0.5c0,0.1,0,0.1,0.1,0.2C37.6,86.7,39.9,92.7,41.2,96z"></path><path class="st2" d="M33.7,87.3c-0.4,0.2-5.7,2-8.4,2.9c0.2,0.6,0.6,1.3,1,1.8c0.8,1,2.8,1.7,4.4,2c1.6,0.4,3.3-0.5,4.3-1.7
	c1.1-1.2,1.4-3.3,1.7-3.8c0,0-0.4-1.8-0.8-2.9c0,0.1-0.1,0.1-0.1,0.1S34.3,87,33.7,87.3z"></path><path class="st3" d="M33.4,83.7c-1.1-0.5-1.9-0.5-3.7-0.7c-1.8-0.2-2,1.1-3.3,2.2c-1.2,1-1.7,2.5-1.6,3.5c0,0.5,0.2,1.1,0.4,1.7
	c2.8-0.9,8-2.7,8.4-2.9c0.6-0.3,2.1-1.4,2.1-1.4s0-0.1,0.1-0.1c-0.2-0.5-0.4-0.8-0.5-0.8C34.8,85,34.5,84.2,33.4,83.7z"></path><path class="st3" d="M36.6,85c0.4,0,0.6,0,0.6,0s1-0.9,1-1.4c0-0.5,1-1.7,1.5-2.2c0.5-0.5-0.4-3.1-1.2-4c-0.8-0.9-3.4-1.1-4.6-0.9
	c-0.3,0.1-0.7,0.1-1.2,0.3c0.3,0.6,0.7,1.2,1.1,1.7C34.4,79.2,35.9,83.2,36.6,85z"></path><path class="st2" d="M28.2,82.4c-0.2,1.3,1.5,1.8,3.3,2.3c1.4,0.4,3.9,0.4,5.1,0.4c-0.6-1.8-2.1-5.9-2.7-6.6
	c-0.3-0.4-0.7-1.1-1.1-1.7c-1.1,0.3-2.5,0.8-3.5,2.1C27.9,80.7,28.4,81,28.2,82.4z"></path><path class="st3" d="M38.6,87.2c0.7,0.9,1.4,1,1.9,1.3c0.5,0.3,3.1-0.5,4.2-1.2c1.1-0.7,0.2-2,0.3-2.8c0.1-0.7-0.3-1.8-1.2-3.3
	c-1.7,1-4.3,2.7-5.7,3.4C38.1,85.5,38.2,86.6,38.6,87.2z"></path><path class="st2" d="M39.8,78.1c-2-0.7-1.9,1.4-2.5,2.5c-0.6,1.1,0.9,2.9,0.9,2.9s0,0.4,0,1c1.4-0.8,4-2.4,5.7-3.4
	c-0.2-0.4-0.5-0.9-0.8-1.4C41.6,77.5,41.8,78.8,39.8,78.1z"></path><path class="st4" d="M39.1,87c0.2-1,1.1-2.8,0.2-3.5c-0.9-0.7-2.7-1.2-3.1-0.8c-0.5,0.4-0.9,0.7-1.5,1.6c-0.5,0.9-0.9,2.3-0.4,2.7
	c0.5,0.4,1,0.9,1.5,1c0.5,0.1,0.7,0,1.2,0C37.5,87.9,39.1,87,39.1,87z"></path><circle class="st5" cx="35.7" cy="88.7" r="1.5"></circle><circle class="st6" cx="37.7" cy="88.3" r="1.5"></circle><circle class="st7" cx="38.9" cy="86.1" r="1.5"></circle><circle class="st6" cx="39.2" cy="84.6" r="1.5"></circle><circle class="st8" cx="37.3" cy="83" r="1.5"></circle><circle class="st6" cx="35.1" cy="83.7" r="1.5"></circle><circle class="st6" cx="33.9" cy="85.9" r="1.5"></circle><circle class="st4" cx="36.2" cy="85.8" r="1.5"></circle><path class="st3" d="M27.9,74.6c1,0.3,2.4-0.4,3.1-1.1c0.7-0.7,2.1-2.6,2.8-3.5c0.7-0.9,0.7-1.1,1-2.6c0.1-0.4,0-0.8-0.1-1.1
	c-3.4,1.1-9.5,3-9.9,3.2c0,0-0.1,0-0.2,0.1c0.2,1.4,0.6,2.9,1,3.1C26.4,73.2,26.8,74.3,27.9,74.6z"></path><path class="st2" d="M34.6,66.4c-0.3-0.7-1.1-1.2-2.2-2.2c-1.5-1.5-3.7-1.5-4.6-1.4c-0.9,0.1-2.2,0.5-3.2,1.5c-1,0.9-0.7,2.1-0.4,3
	c0,0,0.1,1.1,0.3,2.4c0.1,0,0.1,0,0.2-0.1C25.1,69.4,31.2,67.4,34.6,66.4z"></path><path class="st2" d="M25.5,73.3c0.2,0.4,1.6,5.8,2.4,8.6c0.6-0.2,1.3-0.5,1.9-0.8c1.1-0.7,1.8-2.7,2.3-4.3c0.5-1.6-0.3-3.3-1.4-4.4
	c-1.1-1.1-3.2-1.6-3.6-1.9c0,0-1.8,0.3-2.9,0.6c0.1,0,0.1,0.1,0.1,0.1S25.2,72.7,25.5,73.3z"></path><path class="st9" d="M21.8,73.3c-0.5,1-0.7,1.9-1,3.6c-0.3,1.7,1,2.1,1.9,3.4c1,1.3,2.4,1.9,3.4,1.9c0.5,0,1.1-0.1,1.7-0.3
	c-0.7-2.8-2.2-8.2-2.4-8.6c-0.3-0.6-1.2-2.2-1.2-2.2s-0.1,0-0.1-0.1c-0.5,0.2-0.9,0.3-0.9,0.5C23.2,72,22.4,72.3,21.8,73.3z"></path><path class="st1" d="M23.4,70.2c0-0.4,0-0.6,0-0.6s-0.9-1.1-1.4-1.1c-0.5,0-1.6-1.2-2.1-1.7c-0.5-0.5-3.1,0.2-4,0.9
	c-1,0.7-1.3,3.3-1.2,4.5c0,0.3,0.1,0.7,0.2,1.2c0.6-0.3,1.3-0.7,1.7-1C17.4,72,21.6,70.7,23.4,70.2z"></path><path class="st2" d="M20.2,78.4c1.3,0.3,1.9-1.4,2.5-3.1c0.5-1.3,0.7-3.9,0.7-5c-1.8,0.5-6,1.7-6.8,2.3c-0.5,0.3-1.1,0.7-1.7,1
	c0.2,1.1,0.6,2.5,1.9,3.6C18.4,78.6,18.8,78.1,20.2,78.4z"></path><path class="st3" d="M25.7,68.3c1-0.6,1.1-1.3,1.4-1.8c0.3-0.4-0.2-3.1-0.9-4.3c-0.7-1.2-2-0.4-2.8-0.5c-0.7-0.1-1.8,0.2-3.3,0.9
	c0.9,1.7,2.4,4.4,3,5.9C23.9,68.7,25.1,68.7,25.7,68.3z"></path><path class="st2" d="M16.7,66.6c-0.8,2,1.3,2,2.3,2.6c1,0.7,3-0.7,3-0.7s0.4,0.1,1,0.1c-0.7-1.5-2.1-4.2-3-5.9
	c-0.4,0.2-0.9,0.4-1.4,0.7C16.3,64.8,17.6,64.6,16.7,66.6z"></path><path class="st4" d="M25.5,67.9c-1-0.3-2.7-1.2-3.5-0.4c-0.8,0.8-1.4,2.6-1,3.1c0.4,0.5,0.7,1,1.5,1.6c0.8,0.6,2.3,1,2.7,0.6
	c0.4-0.4,1-0.9,1.1-1.4s0.1-0.7,0-1.2C26.3,69.5,25.5,67.9,25.5,67.9z"></path><circle class="st5" cx="27" cy="71.4" r="1.5"></circle><circle class="st6" cx="26.7" cy="69.4" r="1.5"></circle><circle class="st7" cx="24.6" cy="68" r="1.5"></circle><circle class="st6" cx="23.1" cy="67.6" r="1.5"></circle><circle class="st8" cx="21.4" cy="69.4" r="1.5"></circle><circle class="st6" cx="22" cy="71.7" r="1.5"></circle><circle class="st6" cx="24.1" cy="73" r="1.5"></circle><circle class="st4" cx="24.1" cy="70.6" r="1.5"></circle><path class="st3" d="M12,53.9c-0.7,0.8-0.7,2.3-0.4,3.3c0.4,1,1.4,3,1.9,4c0.5,1,0.6,1.1,1.9,2c0.4,0.3,0.7,0.4,1,0.4
	c0.5-3.5,1.5-9.8,1.5-10.3c0-0.1,0-0.1,0-0.2c-1.3-0.4-2.9-0.8-3.3-0.5C13.9,53.2,12.7,53.1,12,53.9z"></path><path class="st2" d="M16.4,63.6c0.8,0,1.6-0.5,3-1c2-0.7,3-2.7,3.3-3.5c0.3-0.8,0.5-2.2,0.1-3.5c-0.4-1.3-1.5-1.6-2.5-1.7
	c0,0-1.1-0.4-2.3-0.8c0,0.1,0,0.1,0,0.2C17.9,53.8,16.9,60.1,16.4,63.6z"></path><path class="st2" d="M14.2,52.4c-0.5,0-5.9-1.1-8.8-1.7c-0.1,0.7-0.2,1.4-0.1,2.1c0.2,1.3,1.6,2.8,2.8,4c1.2,1.1,3.1,1.2,4.6,0.7
	c1.5-0.5,2.9-2.2,3.4-2.4c0,0,0.5-1.7,0.7-2.9c-0.1,0.1-0.1,0.1-0.1,0.1S14.9,52.4,14.2,52.4z"></path><path class="st1" d="M15.8,49.1c-0.7-0.9-1.4-1.4-2.8-2.5c-1.4-1.1-2.3,0-3.9,0.2c-1.6,0.3-2.7,1.3-3.2,2.2c-0.2,0.4-0.4,1-0.5,1.7
	c2.8,0.6,8.3,1.7,8.8,1.7c0.6,0,2.5-0.2,2.5-0.2s0.1,0,0.1-0.1c0.1-0.5,0.1-0.9,0-1C16.4,50.9,16.5,50,15.8,49.1z"></path><path class="st3" d="M17.9,51.8c0.3,0.2,0.5,0.3,0.5,0.3s1.4-0.3,1.6-0.7c0.2-0.4,1.8-1,2.5-1.2c0.7-0.2,1.2-2.9,1-4
	c-0.2-1.2-2.4-2.6-3.5-3c-0.3-0.1-0.7-0.2-1.1-0.4c0,0.7,0,1.4,0.1,2C19,45.7,18.2,50,17.9,51.8z"></path><path class="st2" d="M12,45.3c-0.9,1,0.4,2.3,1.7,3.6c1,1,3.2,2.3,4.2,2.9c0.3-1.9,1.1-6.1,1-7.1c-0.1-0.6-0.1-1.3-0.1-2
	c-1.1-0.3-2.5-0.6-4.1,0.1C12.6,43.7,12.9,44.3,12,45.3z"></path><path class="st3" d="M18.6,54.7c0.1,1.1,0.7,1.6,1,2c0.3,0.4,2.9,1.2,4.3,1.1c1.3-0.1,1.2-1.6,1.7-2.3c0.4-0.5,0.6-1.7,0.6-3.4
	c-2,0.1-5,0.1-6.6,0.1C19,53,18.5,54.1,18.6,54.7z"></path><path class="st2" d="M24.1,47.5c-1.4-1.6-2.3,0.3-3.4,0.9c-1.1,0.6-0.7,3-0.7,3s-0.2,0.4-0.5,0.9c1.6,0.1,4.7,0,6.6-0.1
	c0-0.5,0-1,0-1.6C25.9,47.9,25.5,49.1,24.1,47.5z"></path><path class="st4" d="M19.1,54.8c0.7-0.8,2.3-1.9,1.9-2.9c-0.4-1.1-1.7-2.4-2.3-2.3c-0.6,0.1-1.2,0.2-2.1,0.7
	c-0.9,0.5-1.9,1.6-1.7,2.1c0.2,0.6,0.4,1.3,0.8,1.7c0.4,0.4,0.6,0.4,1.1,0.6C17.2,54.8,19.1,54.8,19.1,54.8z"></path><circle class="st5" cx="15.2" cy="54.5" r="1.5"></circle><circle class="st6" cx="17.2" cy="55.2" r="1.5"></circle><circle class="st7" cx="19.3" cy="53.9" r="1.5"></circle><circle class="st6" cx="20.3" cy="52.7" r="1.5"></circle><circle class="st8" cx="19.5" cy="50.4" r="1.5"></circle><circle class="st6" cx="17.2" cy="49.9" r="1.5"></circle><circle class="st6" cx="15.1" cy="51.2" r="1.5"></circle><circle class="st4" cx="17.2" cy="52.3" r="1.5"></circle><path class="st3" d="M26.3,36.2c1.1,0,2.2-1,2.7-1.9c0.5-0.9,1.3-3.1,1.8-4.1c0.4-1,0.4-1.2,0.3-2.7c0-0.4-0.2-0.8-0.4-1
	c-3,1.9-8.4,5.4-8.7,5.7c0,0-0.1,0.1-0.2,0.1c0.6,1.3,1.3,2.7,1.8,2.8C24.5,35.2,25.2,36.2,26.3,36.2z"></path><path class="st2" d="M30.6,26.5c-0.5-0.6-1.4-0.8-2.7-1.6c-1.8-1-4-0.5-4.8-0.1c-0.8,0.3-1.9,1.1-2.7,2.2c-0.7,1.2-0.2,2.2,0.4,3.1
	c0,0,0.4,1.1,0.9,2.2c0.1,0,0.1-0.1,0.2-0.1C22.2,31.9,27.6,28.4,30.6,26.5z"></path><path class="st11" d="M23.6,35.5c0.3,0.4,3.1,5.2,4.5,7.7c0.6-0.4,1.1-0.8,1.6-1.3c0.9-1,1.1-3,1.1-4.7c0-1.7-1.2-3.1-2.5-3.9
	c-1.4-0.8-3.5-0.7-4-0.9c0,0-1.7,0.7-2.7,1.4c0.1,0,0.1,0,0.1,0S23.2,35.1,23.6,35.5z"></path><path class="st3" d="M20.1,36.5c-0.3,1.1-0.2,2,0,3.7c0.1,1.8,1.5,1.8,2.8,2.8c1.3,1,2.8,1.2,3.7,0.9c0.5-0.1,1-0.4,1.6-0.7
	c-1.4-2.5-4.2-7.3-4.5-7.7c-0.4-0.5-1.8-1.8-1.8-1.8s-0.1,0-0.1,0C21.3,34,21,34.3,21,34.4C21.1,34.9,20.3,35.4,20.1,36.5z"></path><path class="st10" d="M20.8,33.2c-0.1-0.4-0.1-0.6-0.1-0.6s-1.1-0.8-1.6-0.7c-0.5,0.1-1.9-0.7-2.5-1.1c-0.6-0.4-2.9,1-3.7,1.9
	c-0.7,0.9-0.4,3.5,0,4.6c0.1,0.3,0.3,0.7,0.5,1.1c0.5-0.4,1-1,1.4-1.4C15.5,36.4,19.2,34.1,20.8,33.2z"></path><path class="st2" d="M19.8,41.9c1.4,0,1.5-1.8,1.6-3.7c0.1-1.4-0.4-3.9-0.6-5.1c-1.6,1-5.3,3.2-6,4c-0.4,0.4-0.9,0.9-1.4,1.4
	c0.5,1,1.3,2.3,2.7,3C18.2,42.5,18.4,41.9,19.8,41.9z"></path><path class="st1" d="M22.5,30.7c0.8-0.8,0.7-1.6,0.9-2.1c0.2-0.5-1.1-2.9-2-3.9c-0.9-1-2,0.2-2.8,0.3c-0.7,0.1-1.7,0.6-3,1.8
	c1.3,1.4,3.4,3.7,4.5,4.9C20.9,31.6,22.1,31.3,22.5,30.7z"></path><path class="st2" d="M13.4,31.4c-0.3,2.1,1.8,1.5,2.9,1.9c1.2,0.4,2.7-1.5,2.7-1.5s0.4-0.1,1-0.2c-1-1.2-3.1-3.5-4.5-4.9
	c-0.4,0.3-0.7,0.7-1.2,1.1C12.5,29.8,13.7,29.3,13.4,31.4z"></path><path class="st4" d="M22.2,30.3c-1.1,0-2.9-0.5-3.5,0.5s-0.7,2.8-0.2,3.2c0.5,0.4,0.9,0.8,1.9,1.1c1,0.3,2.5,0.4,2.7-0.1
	c0.3-0.5,0.7-1.2,0.7-1.7s-0.1-0.7-0.3-1.2C23.5,31.7,22.2,30.3,22.2,30.3z"></path><circle class="st5" cx="24.6" cy="33.4" r="1.5"></circle><circle class="st6" cx="23.8" cy="31.4" r="1.5"></circle><circle class="st7" cx="21.4" cy="30.7" r="1.5"></circle><circle class="st6" cx="19.8" cy="30.7" r="1.5"></circle><circle class="st8" cx="18.6" cy="32.8" r="1.5"></circle><circle class="st6" cx="19.8" cy="34.9" r="1.5"></circle><circle class="st6" cx="22.2" cy="35.6" r="1.5"></circle><circle class="st4" cx="21.6" cy="33.4" r="1.5"></circle><path class="st3" d="M31.9,19.7c-1-0.2-2.3,0.5-3,1.3c-0.7,0.8-1.9,2.7-2.6,3.6c-0.7,0.9-0.6,1.1-0.8,2.6c-0.1,0.4,0,0.8,0.1,1.1
	c3.3-1.2,9.3-3.5,9.7-3.7c0,0,0.1,0,0.2-0.1c-0.3-1.4-0.7-2.9-1.2-3.1C33.4,21.1,32.9,20,31.9,19.7z"></path><path class="st2" d="M25.6,28.3c0.3,0.7,1.2,1.1,2.3,2.1c1.6,1.4,3.8,1.3,4.7,1.2c0.9-0.1,2.1-0.7,3.1-1.6s0.6-2.1,0.3-3.1
	c0,0-0.2-1.1-0.4-2.3c-0.1,0-0.1,0-0.2,0.1C34.9,24.8,28.9,27.1,25.6,28.3z"></path><path class="st2" d="M34.3,21c-0.2-0.4-1.9-5.7-2.8-8.5c-0.6,0.2-1.3,0.5-1.8,0.9c-1.1,0.8-1.7,2.7-2.1,4.4
	c-0.4,1.6,0.5,3.3,1.6,4.3c1.1,1.1,3.3,1.5,3.7,1.8c0,0,1.8-0.4,2.9-0.8c-0.1,0-0.1-0.1-0.1-0.1S34.6,21.5,34.3,21z"></path><path class="st1" d="M38,20.8c0.5-1.1,0.6-1.9,0.8-3.6c0.2-1.8-1.1-2.1-2.1-3.3c-1-1.2-2.5-1.8-3.5-1.7c-0.5,0-1.1,0.2-1.7,0.4
	c0.9,2.8,2.6,8.1,2.8,8.5c0.3,0.6,1.4,2.1,1.4,2.1s0.1,0,0.1,0.1c0.5-0.2,0.9-0.4,0.8-0.5C36.6,22.1,37.5,21.8,38,20.8z"></path><path class="st3" d="M36.6,23.9c0,0.4,0,0.6,0,0.6s0.9,1,1.4,1c0.5,0,1.7,1.1,2.2,1.6c0.5,0.5,3.1-0.4,4-1.1s1.1-3.4,0.9-4.5
	c-0.1-0.3-0.1-0.7-0.2-1.2c-0.6,0.3-1.2,0.7-1.7,1C42.5,21.8,38.4,23.3,36.6,23.9z"></path><path class="st2" d="M39.4,15.6C38,15.3,37.6,17,37,18.8c-0.4,1.4-0.5,3.9-0.5,5.1c1.8-0.6,5.9-2,6.7-2.6c0.4-0.3,1.1-0.7,1.7-1
	c-0.3-1.1-0.8-2.5-2-3.5C41.1,15.3,40.7,15.8,39.4,15.6z"></path><path class="st3" d="M34.4,25.9c-0.9,0.7-1,1.4-1.3,1.8c-0.3,0.5,0.4,3.1,1.1,4.2c0.7,1.1,2,0.3,2.8,0.4c0.7,0.1,1.8-0.3,3.3-1.1
	c-1-1.7-2.6-4.3-3.3-5.8C36.1,25.4,34.9,25.5,34.4,25.9z"></path><path class="st2" d="M43.4,27.2c0.7-2-1.4-1.9-2.5-2.5C39.8,24,38,25.5,38,25.5s-0.4,0-1-0.1c0.7,1.4,2.3,4.1,3.3,5.8
	c0.4-0.2,0.9-0.5,1.4-0.8C44,29,42.7,29.2,43.4,27.2z"></path><path class="st4" d="M34.6,26.3c1,0.2,2.7,1.1,3.5,0.2c0.7-0.9,1.3-2.6,0.8-3.1c-0.4-0.5-0.7-1-1.6-1.5c-0.9-0.5-2.3-0.9-2.7-0.5
	c-0.4,0.5-0.9,1-1.1,1.5c-0.1,0.5-0.1,0.7,0,1.2S34.6,26.3,34.6,26.3z"></path><circle class="st5" cx="32.9" cy="22.9" r="1.5"></circle><circle class="st6" cx="33.3" cy="24.9" r="1.5"></circle><circle class="st7" cx="35.4" cy="26.1" r="1.5"></circle><circle class="st6" cx="37" cy="26.5" r="1.5"></circle><circle class="st8" cx="38.6" cy="24.7" r="1.5"></circle><circle class="st6" cx="37.9" cy="22.4" r="1.5"></circle><circle class="st6" cx="35.7" cy="21.2" r="1.5"></circle><circle class="st4" cx="35.8" cy="23.5" r="1.5"></circle><path class="st3" d="M44.2,18.2c-0.9,0.5-1.5,1.9-1.5,2.9c0,1,0.3,3.3,0.3,4.4c0.1,1.1,0.2,1.3,1,2.5c0.2,0.4,0.5,0.6,0.8,0.7
	c1.8-3.1,4.9-8.6,5.1-9.1c0,0,0.1-0.1,0.1-0.2c-1.1-0.9-2.4-1.8-2.9-1.6C46.2,18.3,45.1,17.7,44.2,18.2z"></path><path class="st2" d="M44.8,28.9c0.7,0.3,1.6,0.1,3.1,0.1c2.1,0,3.7-1.4,4.3-2.1c0.6-0.7,1.2-1.9,1.3-3.2c0.1-1.4-0.9-2-1.8-2.5
	c0,0-0.8-0.8-1.8-1.5c0,0.1-0.1,0.1-0.1,0.2C49.8,20.2,46.6,25.8,44.8,28.9z"></path><path class="st2" d="M46.8,17.6c-0.4-0.2-5.1-3.2-7.6-4.7c-0.3,0.6-0.6,1.2-0.8,1.9c-0.3,1.3,0.5,3.2,1.2,4.7c0.7,1.5,2.5,2.2,4,2.3
	c1.6,0.1,3.5-1,4-1c0,0,1.1-1.4,1.7-2.4c-0.1,0-0.1,0-0.1,0S47.4,17.9,46.8,17.6z"></path><path class="st3" d="M49.5,15.1c-0.3-1.1-0.8-1.8-1.7-3.3c-1-1.5-2.2-0.9-3.7-1.2c-1.6-0.3-3,0.2-3.8,0.9c-0.4,0.3-0.7,0.8-1.1,1.4
	c2.5,1.6,7.2,4.5,7.6,4.7c0.6,0.2,2.4,0.7,2.4,0.7s0.1,0,0.1,0c0.3-0.4,0.4-0.8,0.3-0.9C49.3,17,49.8,16.2,49.5,15.1z"></path><path class="st3" d="M50.4,18.4c0.2,0.3,0.4,0.5,0.4,0.5s1.4,0.2,1.7-0.1c0.4-0.3,2-0.3,2.7-0.2c0.7,0,2.1-2.3,2.3-3.4
	c0.2-1.2-1.3-3.3-2.2-4.1c-0.3-0.2-0.6-0.5-0.9-0.8c-0.2,0.6-0.5,1.3-0.6,1.9C53.6,13.1,51.4,16.8,50.4,18.4z"></path><path class="st2" d="M47.2,10.2c-1.2,0.7-0.4,2.3,0.3,4c0.6,1.3,2.2,3.3,2.9,4.2c1-1.6,3.2-5.3,3.4-6.3c0.1-0.5,0.4-1.2,0.6-1.9
	c-0.9-0.7-2.2-1.4-3.8-1.4C48.4,8.9,48.4,9.6,47.2,10.2z"></path><path class="st3" d="M50,21.3c-0.3,1.1,0.1,1.7,0.2,2.2s2.3,2.1,3.6,2.5c1.3,0.4,1.7-1.1,2.4-1.5c0.6-0.4,1.2-1.3,1.8-3
	c-1.8-0.6-4.8-1.7-6.2-2.3C51.1,19.9,50.2,20.7,50,21.3z"></path><path class="st2" d="M57.8,16.5c-0.7-2-2.3-0.6-3.5-0.4c-1.2,0.2-1.7,2.5-1.7,2.5s-0.4,0.2-0.8,0.6c1.5,0.6,4.4,1.7,6.2,2.3
	c0.2-0.5,0.4-0.9,0.5-1.5C59.4,17.6,58.5,18.6,57.8,16.5z"></path><path class="st4" d="M50.5,21.6c0.9-0.5,2.8-0.9,2.8-2.1s-0.7-2.8-1.4-2.9c-0.6-0.1-1.2-0.3-2.2-0.1s-2.4,0.8-2.4,1.4
	c0,0.6-0.1,1.4,0.1,1.8c0.2,0.5,0.4,0.6,0.8,0.9C48.7,20.9,50.5,21.6,50.5,21.6z"></path><circle class="st5" cx="47" cy="20" r="1.5"></circle><circle class="st6" cx="48.6" cy="21.3" r="1.5"></circle><circle class="st7" cx="51" cy="20.9" r="1.5"></circle><circle class="st6" cx="52.4" cy="20.1" r="1.5"></circle><circle class="st8" cx="52.5" cy="17.7" r="1.5"></circle><circle class="st6" cx="50.5" cy="16.4" r="1.5"></circle><circle class="st6" cx="48" cy="16.9" r="1.5"></circle><circle class="st4" cx="49.6" cy="18.6" r="1.5"></circle><path class="st1" d="M91.9,70.4c0.9-0.5,1.5-1.9,1.5-2.9c0-1-0.3-3.3-0.4-4.4c-0.1-1.1-0.2-1.3-1-2.5c-0.2-0.4-0.5-0.6-0.8-0.7
	c-1.7,3.1-4.9,8.6-5,9.1c0,0-0.1,0.1-0.1,0.2c1.1,0.9,2.4,1.7,2.9,1.6C89.9,70.4,91,70.9,91.9,70.4z"></path><path class="st2" d="M91.2,59.8c-0.7-0.3-1.7-0.1-3.1-0.1c-2.1,0-3.7,1.4-4.3,2.1c-0.6,0.7-1.2,1.9-1.3,3.2c-0.1,1.4,0.9,2,1.8,2.5
	c0,0,0.8,0.8,1.8,1.5c0-0.1,0.1-0.1,0.1-0.2C86.3,68.5,89.5,62.9,91.2,59.8z"></path><path class="st2" d="M89.3,71c0.4,0.2,5.2,3.1,7.6,4.7c0.3-0.6,0.6-1.2,0.8-1.9c0.3-1.3-0.5-3.2-1.2-4.7c-0.7-1.5-2.5-2.2-4-2.3
	c-1.6-0.1-3.5,1-4,1.1c0,0-1.1,1.4-1.7,2.5c0.1,0,0.1,0,0.1,0S88.7,70.8,89.3,71z"></path><path class="st3" d="M86.6,73.6c0.3,1.1,0.8,1.8,1.7,3.3c1,1.5,2.2,0.9,3.7,1.2c1.6,0.3,3-0.2,3.7-0.9c0.4-0.3,0.7-0.8,1.1-1.4
	c-2.5-1.6-7.2-4.5-7.6-4.7c-0.6-0.2-2.4-0.7-2.4-0.7s-0.1,0-0.1,0c-0.3,0.4-0.4,0.8-0.3,0.9C86.8,71.7,86.3,72.5,86.6,73.6z"></path><path class="st3" d="M85.6,70.3c-0.2-0.3-0.4-0.5-0.4-0.5s-1.4-0.2-1.7,0.1c-0.4,0.3-2,0.3-2.7,0.2c-0.7,0-2.1,2.3-2.3,3.4
	c-0.2,1.2,1.3,3.3,2.2,4.1c0.3,0.2,0.6,0.5,0.9,0.8c0.2-0.6,0.5-1.3,0.6-1.9C82.5,75.6,84.7,71.9,85.6,70.3z"></path><path class="st2" d="M88.9,78.5c1.2-0.7,0.4-2.3-0.3-4c-0.6-1.3-2.2-3.3-2.9-4.2c-1,1.6-3.2,5.4-3.4,6.3c-0.1,0.5-0.4,1.2-0.6,1.9
	c0.9,0.7,2.2,1.4,3.8,1.4C87.7,79.8,87.7,79.1,88.9,78.5z"></path><path class="st3" d="M86.1,67.3c0.3-1.1-0.1-1.7-0.2-2.2s-2.3-2.1-3.6-2.5c-1.3-0.4-1.7,1.1-2.4,1.5c-0.6,0.4-1.2,1.3-1.8,3
	c1.9,0.6,4.8,1.6,6.2,2.3C85,68.8,85.9,68,86.1,67.3z"></path><path class="st2" d="M78.3,72.2c0.7,2,2.3,0.5,3.5,0.3c1.2-0.2,1.7-2.5,1.7-2.5s0.4-0.2,0.8-0.6c-1.5-0.6-4.4-1.6-6.2-2.3
	c-0.2,0.5-0.4,0.9-0.5,1.5C76.7,71.1,77.6,70.1,78.3,72.2z"></path><path class="st4" d="M85.6,67.1c-0.9,0.5-2.8,0.9-2.8,2.1c0,1.1,0.7,2.8,1.4,2.9c0.6,0.1,1.2,0.3,2.2,0.1c1-0.1,2.4-0.8,2.4-1.4
	c0-0.6,0.1-1.4-0.1-1.8c-0.2-0.5-0.4-0.6-0.8-0.9C87.3,67.7,85.6,67.1,85.6,67.1z"></path><circle class="st5" cx="89.1" cy="68.7" r="1.5"></circle><circle class="st6" cx="87.5" cy="67.4" r="1.5"></circle><circle class="st7" cx="85.1" cy="67.8" r="1.5"></circle><circle class="st6" cx="83.7" cy="68.6" r="1.5"></circle><circle class="st8" cx="83.6" cy="71" r="1.5"></circle><circle class="st6" cx="85.6" cy="72.3" r="1.5"></circle><circle class="st6" cx="88" cy="71.8" r="1.5"></circle><circle class="st4" cx="86.4" cy="70.1" r="1.5"></circle><path class="st3" d="M77.6,32.5c-0.8,0.7-0.9,2.2-0.6,3.2c0.3,1,1.2,3.1,1.6,4.2c0.4,1.1,0.6,1.1,1.7,2.1c0.3,0.3,0.6,0.4,1,0.5
	c0.8-3.4,2.2-9.7,2.2-10.2c0-0.1,0-0.1,0-0.2c-1.3-0.5-2.8-1-3.2-0.7C79.6,31.9,78.4,31.7,77.6,32.5z"></path><path class="st2" d="M81.3,42.4c0.8,0.1,1.6-0.4,3-0.8c2-0.6,3.2-2.5,3.5-3.3c0.4-0.8,0.6-2.1,0.3-3.5c-0.3-1.3-1.4-1.7-2.4-1.9
	c0,0-1-0.5-2.2-0.9c0,0.1,0,0.1,0,0.2C83.5,32.8,82.1,39,81.3,42.4z"></path><path class="st2" d="M80,31.1c-0.5,0-5.8-1.5-8.6-2.3c-0.2,0.7-0.3,1.4-0.2,2c0.1,1.3,1.4,2.9,2.5,4.2c1.1,1.2,3,1.4,4.5,1
	c1.5-0.4,3-2,3.5-2.1c0,0,0.7-1.7,0.9-2.8c-0.1,0-0.1,0.1-0.1,0.1S80.6,31.2,80,31.1z"></path><path class="st3" d="M81.8,27.9c-0.6-1-1.3-1.5-2.6-2.7c-1.3-1.2-2.3-0.2-3.9,0c-1.6,0.2-2.8,1.1-3.3,2c-0.3,0.4-0.5,1-0.6,1.6
	c2.8,0.8,8.2,2.3,8.6,2.3c0.6,0.1,2.5,0,2.5,0s0.1,0,0.1-0.1c0.1-0.5,0.2-0.9,0-1C82.2,29.8,82.4,28.9,81.8,27.9z"></path><path class="st10" d="M83.6,30.8c0.3,0.2,0.5,0.3,0.5,0.3s1.4-0.2,1.6-0.6c0.3-0.4,1.8-0.8,2.5-1c0.7-0.2,1.4-2.8,1.3-4
	s-2.2-2.8-3.3-3.3c-0.3-0.1-0.7-0.3-1.1-0.5c0,0.7-0.1,1.4,0,2C85.2,24.8,84.1,29,83.6,30.8z"></path><path class="st2" d="M78.2,23.9c-1,1,0.2,2.3,1.4,3.7c0.9,1.1,3,2.5,4,3.2c0.5-1.8,1.5-6,1.5-7c0-0.6,0-1.3,0-2
	c-1.1-0.4-2.5-0.7-4-0.2C79,22.3,79.2,22.9,78.2,23.9z"></path><path class="st3" d="M84.1,33.8c0,1.1,0.6,1.6,0.8,2.1c0.2,0.5,2.8,1.4,4.2,1.4c1.4,0,1.3-1.5,1.9-2.2c0.4-0.5,0.7-1.6,0.9-3.4
	c-2-0.1-5-0.2-6.6-0.4C84.7,32,84.1,33.1,84.1,33.8z"></path><path class="st2" d="M90.1,26.9c-1.3-1.7-2.3,0.1-3.5,0.7c-1.1,0.5-0.9,2.9-0.9,2.9s-0.3,0.3-0.6,0.8c1.6,0.2,4.7,0.3,6.6,0.4
	c0-0.5,0.1-1,0.1-1.6C92,27.4,91.4,28.7,90.1,26.9z"></path><path class="st4" d="M84.6,33.8c0.8-0.7,2.4-1.7,2.1-2.8c-0.3-1.1-1.5-2.5-2.1-2.4c-0.6,0.1-1.2,0.1-2.1,0.5c-0.9,0.4-2,1.4-1.9,2
	c0.2,0.6,0.3,1.3,0.7,1.7c0.3,0.4,0.5,0.4,1,0.6C82.8,33.7,84.6,33.8,84.6,33.8z"></path><circle class="st5" cx="80.8" cy="33.3" r="1.5"></circle><circle class="st6" cx="82.7" cy="34.2" r="1.5"></circle><circle class="st7" cx="84.9" cy="33" r="1.5"></circle><circle class="st6" cx="86" cy="31.9" r="1.5"></circle><circle class="st8" cx="85.4" cy="29.5" r="1.5"></circle><circle class="st6" cx="83.1" cy="28.9" r="1.5"></circle><circle class="st6" cx="80.9" cy="30" r="1.5"></circle><circle class="st4" cx="82.9" cy="31.2" r="1.5"></circle><path class="st3" d="M53.6,37.4c-0.8,0.7-0.9,2.2-0.6,3.2c0.3,1,1.2,3.1,1.6,4.2c0.4,1.1,0.6,1.1,1.7,2.1c0.3,0.3,0.6,0.4,1,0.5
	c0.8-3.4,2.2-9.7,2.2-10.2c0-0.1,0-0.1,0-0.2c-1.3-0.5-2.8-1-3.2-0.7C55.5,36.9,54.3,36.7,53.6,37.4z"></path><path class="st2" d="M57.3,47.4c0.8,0.1,1.6-0.4,3-0.8c2-0.6,3.2-2.5,3.5-3.3c0.4-0.8,0.6-2.1,0.3-3.5c-0.3-1.3-1.4-1.7-2.4-1.9
	c0,0-1-0.5-2.2-0.9c0,0.1,0,0.1,0,0.2C59.5,37.7,58.1,44,57.3,47.4z"></path><path class="st2" d="M55.9,36.1c-0.5,0-5.8-1.5-8.6-2.3c-0.2,0.7-0.3,1.4-0.2,2c0.1,1.3,1.4,2.9,2.5,4.2c1.1,1.2,3,1.4,4.5,1
	c1.5-0.4,3-2,3.5-2.1c0,0,0.7-1.7,0.9-2.8c-0.1,0-0.1,0.1-0.1,0.1S56.6,36.2,55.9,36.1z"></path><path class="st3" d="M57.8,32.9c-0.6-1-1.3-1.5-2.6-2.7c-1.3-1.2-2.3-0.2-3.9,0c-1.6,0.2-2.8,1.1-3.3,2c-0.3,0.4-0.5,1-0.6,1.6
	c2.8,0.8,8.2,2.3,8.6,2.3c0.6,0.1,2.5,0,2.5,0s0.1,0,0.1-0.1c0.1-0.5,0.2-0.9,0-1C58.2,34.8,58.4,33.9,57.8,32.9z"></path><path class="st3" d="M59.6,35.8c0.3,0.2,0.5,0.3,0.5,0.3s1.4-0.2,1.6-0.6c0.3-0.4,1.8-0.8,2.5-1c0.7-0.2,1.4-2.8,1.3-4
	s-2.2-2.8-3.3-3.3c-0.3-0.1-0.7-0.3-1.1-0.5c0,0.7-0.1,1.4,0,2C61.2,29.7,60.1,34,59.6,35.8z"></path><path class="st2" d="M54.2,28.9c-1,1,0.2,2.3,1.4,3.7c0.9,1.1,3,2.5,4,3.2c0.5-1.8,1.5-6,1.5-7c0-0.6,0-1.3,0-2
	c-1.1-0.4-2.5-0.7-4-0.2C54.9,27.3,55.2,27.9,54.2,28.9z"></path><path class="st3" d="M60.1,38.7c0,1.1,0.6,1.6,0.8,2.1c0.2,0.5,2.8,1.4,4.2,1.4c1.4,0,1.3-1.5,1.9-2.2c0.4-0.5,0.7-1.6,0.9-3.4
	c-2-0.1-5-0.2-6.6-0.4C60.7,37,60.1,38,60.1,38.7z"></path><path class="st2" d="M66.1,31.9c-1.3-1.7-2.3,0.1-3.5,0.7c-1.1,0.5-0.9,2.9-0.9,2.9s-0.3,0.3-0.6,0.8c1.6,0.2,4.7,0.3,6.6,0.4
	c0-0.5,0.1-1,0.1-1.6C68,32.4,67.4,33.6,66.1,31.9z"></path><path class="st4" d="M60.6,38.8c0.8-0.7,2.4-1.7,2.1-2.8c-0.3-1.1-1.5-2.5-2.1-2.4c-0.6,0.1-1.2,0.1-2.1,0.5c-0.9,0.4-2,1.4-1.9,2
	c0.2,0.6,0.3,1.3,0.7,1.7c0.3,0.4,0.5,0.4,1,0.6C58.7,38.7,60.6,38.8,60.6,38.8z"></path><circle class="st5" cx="56.8" cy="38.3" r="1.5"></circle><circle class="st6" cx="58.7" cy="39.1" r="1.5"></circle><circle class="st7" cx="60.9" cy="38" r="1.5"></circle><circle class="st6" cx="62" cy="36.9" r="1.5"></circle><circle class="st8" cx="61.4" cy="34.5" r="1.5"></circle><circle class="st6" cx="59.1" cy="33.8" r="1.5"></circle><circle class="st6" cx="56.9" cy="35" r="1.5"></circle><circle class="st4" cx="58.9" cy="36.2" r="1.5"></circle><path class="st3" d="M29.1,50.9c-0.8,0.7-0.9,2.2-0.6,3.2c0.3,1,1.2,3.1,1.6,4.2c0.4,1.1,0.6,1.1,1.7,2.1c0.3,0.3,0.6,0.4,1,0.5
	c0.8-3.4,2.2-9.7,2.2-10.2c0-0.1,0-0.1,0-0.2c-1.3-0.5-2.8-1-3.2-0.7C31.1,50.4,29.8,50.2,29.1,50.9z"></path><path class="st2" d="M32.8,60.9c0.8,0.1,1.6-0.4,3-0.8c2-0.6,3.2-2.5,3.5-3.3c0.4-0.8,0.6-2.1,0.3-3.5c-0.3-1.3-1.4-1.7-2.4-1.9
	c0,0-1-0.5-2.2-0.9c0,0.1,0,0.1,0,0.2C35,51.2,33.6,57.5,32.8,60.9z"></path><path class="st2" d="M31.5,49.6c-0.5,0-5.8-1.5-8.6-2.3c-0.2,0.7-0.3,1.4-0.2,2c0.1,1.3,1.4,2.9,2.5,4.2c1.1,1.2,3,1.4,4.5,1
	c1.5-0.4,3-2,3.5-2.1c0,0,0.7-1.7,0.9-2.8c-0.1,0-0.1,0.1-0.1,0.1S32.1,49.6,31.5,49.6z"></path><path class="st9" d="M33.3,46.4c-0.6-1-1.3-1.5-2.6-2.7c-1.3-1.2-2.3-0.2-3.9,0c-1.6,0.2-2.8,1.1-3.3,2c-0.3,0.4-0.5,1-0.6,1.6
	c2.8,0.8,8.2,2.3,8.6,2.3c0.6,0.1,2.5,0,2.5,0s0.1,0,0.1-0.1c0.1-0.5,0.2-0.9,0-1C33.7,48.3,33.9,47.4,33.3,46.4z"></path><path class="st3" d="M35.1,49.3c0.3,0.2,0.5,0.3,0.5,0.3s1.4-0.2,1.6-0.6c0.3-0.4,1.8-0.8,2.5-1c0.7-0.2,1.4-2.8,1.3-4
	c-0.1-1.2-2.2-2.8-3.3-3.3c-0.3-0.1-0.7-0.3-1.1-0.5c0,0.7-0.1,1.4,0,2C36.7,43.2,35.6,47.4,35.1,49.3z"></path><path class="st2" d="M29.7,42.4c-1,1,0.2,2.3,1.4,3.7c0.9,1.1,3,2.5,4,3.2c0.5-1.8,1.5-6,1.5-7c0-0.6,0-1.3,0-2
	c-1.1-0.4-2.5-0.7-4-0.2C30.5,40.8,30.7,41.4,29.7,42.4z"></path><path class="st1" d="M35.6,52.2c0,1.1,0.6,1.6,0.8,2.1c0.2,0.5,2.8,1.4,4.2,1.4c1.4,0,1.3-1.5,1.9-2.2c0.4-0.5,0.7-1.6,0.9-3.4
	c-2-0.1-5-0.2-6.6-0.4C36.2,50.5,35.6,51.5,35.6,52.2z"></path><path class="st2" d="M41.6,45.4c-1.3-1.7-2.3,0.1-3.5,0.7C37,46.6,37.3,49,37.3,49s-0.3,0.3-0.6,0.8c1.6,0.2,4.7,0.3,6.6,0.4
	c0-0.5,0.1-1,0.1-1.6C43.5,45.9,42.9,47.1,41.6,45.4z"></path><path class="st4" d="M36.1,52.3c0.8-0.7,2.4-1.7,2.1-2.8c-0.3-1.1-1.5-2.5-2.1-2.4s-1.2,0.1-2.1,0.5s-2,1.4-1.9,2
	c0.2,0.6,0.3,1.3,0.7,1.7c0.3,0.4,0.5,0.4,1,0.6C34.3,52.2,36.1,52.3,36.1,52.3z"></path><circle class="st5" cx="32.3" cy="51.8" r="1.5"></circle><circle class="st6" cx="34.2" cy="52.6" r="1.5"></circle><circle class="st7" cx="36.4" cy="51.5" r="1.5"></circle><circle class="st6" cx="37.5" cy="50.4" r="1.5"></circle><circle class="st8" cx="36.9" cy="48" r="1.5"></circle><circle class="st6" cx="34.6" cy="47.3" r="1.5"></circle><circle class="st6" cx="32.4" cy="48.5" r="1.5"></circle><circle class="st4" cx="34.4" cy="49.7" r="1.5"></circle><path class="st3" d="M33.5,66.5c-0.8,0.7-0.9,2.2-0.6,3.2c0.3,1,1.2,3.1,1.6,4.2c0.4,1.1,0.6,1.1,1.7,2.1c0.3,0.3,0.6,0.4,1,0.5
	c0.8-3.4,2.2-9.7,2.2-10.2c0-0.1,0-0.1,0-0.2c-1.3-0.5-2.8-1-3.2-0.7C35.5,65.9,34.3,65.7,33.5,66.5z"></path><path class="st2" d="M37.2,76.4c0.8,0.1,1.6-0.4,3-0.8c2-0.6,3.2-2.5,3.5-3.3c0.4-0.8,0.6-2.1,0.3-3.5s-1.4-1.7-2.4-1.9
	c0,0-1-0.5-2.2-0.9c0,0.1,0,0.1,0,0.2C39.4,66.8,38,73,37.2,76.4z"></path><path class="st2" d="M35.9,65.1c-0.5,0-5.8-1.5-8.6-2.3c-0.2,0.7-0.3,1.4-0.2,2c0.1,1.3,1.4,2.9,2.5,4.2c1.1,1.2,3,1.4,4.5,1
	c1.5-0.4,3-2,3.5-2.1c0,0,0.7-1.7,0.9-2.8c-0.1,0-0.1,0.1-0.1,0.1S36.5,65.2,35.9,65.1z"></path><path class="st3" d="M37.7,61.9c-0.6-1-1.3-1.5-2.6-2.7c-1.3-1.2-2.3-0.2-3.9,0c-1.6,0.2-2.8,1.1-3.3,2c-0.3,0.4-0.5,1-0.6,1.6
	c2.8,0.8,8.2,2.3,8.6,2.3c0.6,0.1,2.5,0,2.5,0s0.1,0,0.1-0.1c0.1-0.5,0.2-0.9,0-1C38.1,63.8,38.3,62.9,37.7,61.9z"></path><path class="st3" d="M39.5,64.8c0.3,0.2,0.5,0.3,0.5,0.3s1.4-0.2,1.6-0.6c0.3-0.4,1.8-0.8,2.5-1c0.7-0.2,1.4-2.8,1.3-4
	c-0.1-1.2-2.2-2.8-3.3-3.3c-0.3-0.1-0.7-0.3-1.1-0.5c0,0.7-0.1,1.4,0,2C41.1,58.8,40,63,39.5,64.8z"></path><path class="st2" d="M34.1,57.9c-1,1,0.2,2.3,1.4,3.7c0.9,1.1,3,2.5,4,3.2c0.5-1.8,1.5-6,1.5-7c0-0.6,0-1.3,0-2
	c-1.1-0.4-2.5-0.7-4-0.2C34.9,56.3,35.1,56.9,34.1,57.9z"></path><path class="st3" d="M40,67.8c0,1.1,0.6,1.6,0.8,2.1s2.8,1.4,4.2,1.4c1.4,0,1.3-1.5,1.9-2.2c0.4-0.5,0.7-1.6,0.9-3.4
	c-2-0.1-5-0.2-6.6-0.4C40.6,66,40,67.1,40,67.8z"></path><path class="st2" d="M46,60.9c-1.3-1.7-2.3,0.1-3.5,0.7c-1.1,0.5-0.9,2.9-0.9,2.9s-0.3,0.3-0.6,0.8c1.6,0.2,4.7,0.3,6.6,0.4
	c0-0.5,0.1-1,0.1-1.6C47.9,61.4,47.3,62.7,46,60.9z"></path><path class="st4" d="M40.5,67.8c0.8-0.7,2.4-1.7,2.1-2.8c-0.3-1.1-1.5-2.5-2.1-2.4c-0.6,0.1-1.2,0.1-2.1,0.5c-0.9,0.4-2,1.4-1.9,2
	c0.2,0.6,0.3,1.3,0.7,1.7c0.3,0.4,0.5,0.4,1,0.6C38.7,67.7,40.5,67.8,40.5,67.8z"></path><circle class="st5" cx="36.7" cy="67.3" r="1.5"></circle><circle class="st6" cx="38.6" cy="68.2" r="1.5"></circle><circle class="st7" cx="40.8" cy="67" r="1.5"></circle><circle class="st6" cx="41.9" cy="65.9" r="1.5"></circle><circle class="st8" cx="41.3" cy="63.5" r="1.5"></circle><circle class="st6" cx="39" cy="62.9" r="1.5"></circle><circle class="st6" cx="36.8" cy="64" r="1.5"></circle><circle class="st4" cx="38.8" cy="65.2" r="1.5"></circle><path class="st3" d="M34.9,35.8c-0.8,0.7-0.9,2.2-0.6,3.2c0.3,1,1.2,3.1,1.6,4.2c0.4,1.1,0.6,1.1,1.7,2.1c0.3,0.3,0.6,0.4,1,0.5
	c0.8-3.4,2.2-9.7,2.2-10.2c0-0.1,0-0.1,0-0.2c-1.3-0.5-2.8-1-3.2-0.7C36.9,35.3,35.7,35.1,34.9,35.8z"></path><path class="st2" d="M38.6,45.8c0.8,0.1,1.6-0.4,3-0.8c2-0.6,3.2-2.5,3.5-3.3c0.4-0.8,0.6-2.1,0.3-3.5s-1.4-1.7-2.4-1.9
	c0,0-1-0.5-2.2-0.9c0,0.1,0,0.1,0,0.2C40.9,36.2,39.4,42.4,38.6,45.8z"></path><path class="st2" d="M37.3,34.5c-0.5,0-5.8-1.5-8.6-2.3c-0.2,0.7-0.3,1.4-0.2,2c0.1,1.3,1.4,2.9,2.5,4.2c1.1,1.2,3,1.4,4.5,1
	c1.5-0.4,3-2,3.5-2.1c0,0,0.7-1.7,0.9-2.8c-0.1,0-0.1,0.1-0.1,0.1S37.9,34.6,37.3,34.5z"></path><path class="st10" d="M39.1,31.3c-0.6-1-1.3-1.5-2.6-2.7c-1.3-1.2-2.3-0.2-3.9,0c-1.6,0.2-2.8,1.1-3.3,2c-0.3,0.4-0.5,1-0.6,1.6
	c2.8,0.8,8.2,2.3,8.6,2.3c0.6,0.1,2.5,0,2.5,0s0.1,0,0.1-0.1c0.1-0.5,0.2-0.9,0-1C39.5,33.2,39.7,32.3,39.1,31.3z"></path><path class="st9" d="M41,34.2c0.3,0.2,0.5,0.3,0.5,0.3s1.4-0.2,1.6-0.6c0.3-0.4,1.8-0.8,2.5-1c0.7-0.2,1.4-2.8,1.3-4
	s-2.2-2.8-3.3-3.3c-0.3-0.1-0.7-0.3-1.1-0.5c0,0.7-0.1,1.4,0,2C42.5,28.2,41.5,32.4,41,34.2z"></path><path class="st2" d="M35.6,27.3c-1,1,0.2,2.3,1.4,3.7c0.9,1.1,3,2.5,4,3.2c0.5-1.8,1.5-6,1.5-7c0-0.6,0-1.3,0-2
	c-1.1-0.4-2.5-0.7-4-0.2C36.3,25.7,36.5,26.3,35.6,27.3z"></path><path class="st1" d="M41.4,37.1c0,1.1,0.6,1.6,0.8,2.1c0.2,0.5,2.8,1.4,4.2,1.4c1.4,0,1.3-1.5,1.9-2.2c0.4-0.5,0.7-1.6,0.9-3.4
	c-2-0.1-5-0.2-6.6-0.4C42,35.4,41.4,36.5,41.4,37.1z"></path><path class="st2" d="M47.5,30.3c-1.3-1.7-2.3,0.1-3.5,0.7c-1.1,0.5-0.9,2.9-0.9,2.9s-0.3,0.3-0.6,0.8c1.6,0.2,4.7,0.3,6.6,0.4
	c0-0.5,0.1-1,0.1-1.6C49.3,30.8,48.8,32,47.5,30.3z"></path><path class="st4" d="M41.9,37.2c0.8-0.7,2.4-1.7,2.1-2.8c-0.3-1.1-1.5-2.5-2.1-2.4c-0.6,0.1-1.2,0.1-2.1,0.5c-0.9,0.4-2,1.4-1.9,2
	c0.2,0.6,0.3,1.3,0.7,1.7c0.3,0.4,0.5,0.4,1,0.6C40.1,37.1,41.9,37.2,41.9,37.2z"></path><circle class="st5" cx="38.2" cy="36.7" r="1.5"></circle><circle class="st6" cx="40" cy="37.6" r="1.5"></circle><circle class="st7" cx="42.2" cy="36.4" r="1.5"></circle><circle class="st6" cx="43.4" cy="35.3" r="1.5"></circle><circle class="st8" cx="42.7" cy="32.9" r="1.5"></circle><circle class="st6" cx="40.5" cy="32.3" r="1.5"></circle><circle class="st6" cx="38.2" cy="33.4" r="1.5"></circle><circle class="st4" cx="40.3" cy="34.6" r="1.5"></circle><path class="st3" d="M68.2,43.2c-0.8,0.7-0.9,2.2-0.6,3.2c0.3,1,1.2,3.1,1.6,4.2c0.4,1.1,0.6,1.1,1.7,2.1c0.3,0.3,0.6,0.4,1,0.5
	c0.8-3.4,2.2-9.7,2.2-10.2c0-0.1,0-0.1,0-0.2c-1.3-0.5-2.8-1-3.2-0.7C70.2,42.6,69,42.4,68.2,43.2z"></path><path class="st2" d="M71.9,53.2c0.8,0.1,1.6-0.4,3-0.8c2-0.6,3.2-2.5,3.5-3.3c0.4-0.8,0.6-2.1,0.3-3.5c-0.3-1.3-1.4-1.7-2.4-1.9
	c0,0-1-0.5-2.2-0.9c0,0.1,0,0.1,0,0.2C74.1,43.5,72.7,49.7,71.9,53.2z"></path><path class="st2" d="M70.6,41.8c-0.5,0-5.8-1.5-8.6-2.3c-0.2,0.7-0.3,1.4-0.2,2c0.1,1.3,1.4,2.9,2.5,4.2c1.1,1.2,3,1.4,4.5,1
	c1.5-0.4,3-2,3.5-2.1c0,0,0.7-1.7,0.9-2.8c-0.1,0-0.1,0.1-0.1,0.1S71.2,41.9,70.6,41.8z"></path><path class="st1" d="M72.4,38.6c-0.6-1-1.3-1.5-2.6-2.7c-1.3-1.2-2.3-0.2-3.9,0c-1.6,0.2-2.8,1.1-3.3,2c-0.3,0.4-0.5,1-0.6,1.6
	c2.8,0.8,8.2,2.3,8.6,2.3c0.6,0.1,2.5,0,2.5,0s0.1,0,0.1-0.1c0.1-0.5,0.2-0.9,0-1C72.8,40.5,73,39.6,72.4,38.6z"></path><path class="st3" d="M74.3,41.5c0.3,0.2,0.5,0.3,0.5,0.3s1.4-0.2,1.6-0.6c0.3-0.4,1.8-0.8,2.5-1c0.7-0.2,1.4-2.8,1.3-4
	c-0.1-1.2-2.2-2.8-3.3-3.3c-0.3-0.1-0.7-0.3-1.1-0.5c0,0.7-0.1,1.4,0,2C75.8,35.5,74.7,39.7,74.3,41.5z"></path><path class="st2" d="M68.8,34.6c-1,1,0.2,2.3,1.4,3.7c0.9,1.1,3,2.5,4,3.2c0.5-1.8,1.5-6,1.5-7c0-0.6,0-1.3,0-2
	c-1.1-0.4-2.5-0.7-4-0.2C69.6,33.1,69.8,33.6,68.8,34.6z"></path><path class="st3" d="M74.7,44.5c0,1.1,0.6,1.6,0.8,2.1c0.2,0.5,2.8,1.4,4.2,1.4c1.4,0,1.3-1.5,1.9-2.2c0.4-0.5,0.7-1.6,0.9-3.4
	c-2-0.1-5-0.2-6.6-0.4C75.3,42.8,74.7,43.8,74.7,44.5z"></path><path class="st2" d="M80.8,37.6c-1.3-1.7-2.3,0.1-3.5,0.7c-1.1,0.5-0.9,2.9-0.9,2.9s-0.3,0.3-0.6,0.8c1.6,0.2,4.7,0.3,6.6,0.4
	c0-0.5,0.1-1,0.1-1.6C82.6,38.2,82.1,39.4,80.8,37.6z"></path><path class="st4" d="M75.2,44.6c0.8-0.7,2.4-1.7,2.1-2.8c-0.3-1.1-1.5-2.5-2.1-2.4c-0.6,0.1-1.2,0.1-2.1,0.5c-0.9,0.4-2,1.4-1.9,2
	c0.2,0.6,0.3,1.3,0.7,1.7c0.3,0.4,0.5,0.4,1,0.6C73.4,44.4,75.2,44.6,75.2,44.6z"></path><circle class="st5" cx="71.4" cy="44" r="1.5"></circle><circle class="st6" cx="73.3" cy="44.9" r="1.5"></circle><circle class="st7" cx="75.5" cy="43.7" r="1.5"></circle><circle class="st6" cx="76.6" cy="42.6" r="1.5"></circle><circle class="st8" cx="76" cy="40.3" r="1.5"></circle><circle class="st6" cx="73.8" cy="39.6" r="1.5"></circle><circle class="st6" cx="71.5" cy="40.7" r="1.5"></circle><circle class="st4" cx="73.6" cy="42" r="1.5"></circle><path class="st3" d="M76.1,57.7c-0.8,0.7-0.9,2.2-0.6,3.2c0.3,1,1.2,3.1,1.6,4.2c0.4,1.1,0.6,1.1,1.7,2.1c0.3,0.3,0.6,0.4,1,0.5
	c0.8-3.4,2.2-9.7,2.2-10.2c0-0.1,0-0.1,0-0.2c-1.3-0.5-2.8-1-3.2-0.7C78.1,57.1,76.9,56.9,76.1,57.7z"></path><path class="st2" d="M79.8,67.7c0.8,0.1,1.6-0.4,3-0.8c2-0.6,3.2-2.5,3.5-3.3c0.4-0.8,0.6-2.1,0.3-3.5c-0.3-1.3-1.4-1.7-2.4-1.9
	c0,0-1-0.5-2.2-0.9c0,0.1,0,0.1,0,0.2C82.1,58,80.6,64.2,79.8,67.7z"></path><path class="st2" d="M78.5,56.4c-0.5,0-5.8-1.5-8.6-2.3c-0.2,0.7-0.3,1.4-0.2,2c0.1,1.3,1.4,2.9,2.5,4.2c1.1,1.2,3,1.4,4.5,1
	c1.5-0.4,3-2,3.5-2.1c0,0,0.7-1.7,0.9-2.8c-0.1,0-0.1,0.1-0.1,0.1S79.1,56.4,78.5,56.4z"></path><path class="st1" d="M80.3,53.2c-0.6-1-1.3-1.5-2.6-2.7c-1.3-1.2-2.3-0.2-3.9,0c-1.6,0.2-2.8,1.1-3.3,2c-0.3,0.4-0.5,1-0.6,1.6
	c2.8,0.8,8.2,2.3,8.6,2.3c0.6,0.1,2.5,0,2.5,0s0.1,0,0.1-0.1c0.1-0.5,0.2-0.9,0-1C80.7,55,80.9,54.2,80.3,53.2z"></path><path class="st10" d="M82.2,56c0.3,0.2,0.5,0.3,0.5,0.3s1.4-0.2,1.6-0.6c0.3-0.4,1.8-0.8,2.5-1c0.7-0.2,1.4-2.8,1.3-4
	c-0.1-1.2-2.2-2.8-3.3-3.3c-0.3-0.1-0.7-0.3-1.1-0.5c0,0.7-0.1,1.4,0,2C83.7,50,82.7,54.2,82.2,56z"></path><path class="st2" d="M76.8,49.1c-1,1,0.2,2.3,1.4,3.7c0.9,1.1,3,2.5,4,3.2c0.5-1.8,1.5-6,1.5-7c0-0.6,0-1.3,0-2
	c-1.1-0.4-2.5-0.7-4-0.2C77.5,47.6,77.7,48.2,76.8,49.1z"></path><path class="st3" d="M82.7,59c0,1.1,0.6,1.6,0.8,2.1c0.2,0.5,2.8,1.4,4.2,1.4c1.4,0,1.3-1.5,1.9-2.2c0.4-0.5,0.7-1.6,0.9-3.4
	c-2-0.1-5-0.2-6.6-0.4C83.2,57.3,82.6,58.3,82.7,59z"></path><path class="st2" d="M88.7,52.2c-1.3-1.7-2.3,0.1-3.5,0.7c-1.1,0.5-0.9,2.9-0.9,2.9s-0.3,0.3-0.6,0.8c1.6,0.2,4.7,0.3,6.6,0.4
	c0-0.5,0.1-1,0.1-1.6C90.5,52.7,90,53.9,88.7,52.2z"></path><path class="st4" d="M83.1,59.1c0.8-0.7,2.4-1.7,2.1-2.8c-0.3-1.1-1.5-2.5-2.1-2.4c-0.6,0.1-1.2,0.1-2.1,0.5c-0.9,0.4-2,1.4-1.9,2
	c0.2,0.6,0.3,1.3,0.7,1.7c0.3,0.4,0.5,0.4,1,0.6C81.3,59,83.1,59.1,83.1,59.1z"></path><circle class="st5" cx="79.4" cy="58.6" r="1.5"></circle><circle class="st6" cx="81.2" cy="59.4" r="1.5"></circle><circle class="st7" cx="83.4" cy="58.3" r="1.5"></circle><circle class="st6" cx="84.6" cy="57.1" r="1.5"></circle><circle class="st8" cx="84" cy="54.8" r="1.5"></circle><circle class="st6" cx="81.7" cy="54.1" r="1.5"></circle><circle class="st6" cx="79.5" cy="55.3" r="1.5"></circle><circle class="st4" cx="81.5" cy="56.5" r="1.5"></circle><path class="st3" d="M62.7,33.1c-0.8,0.7-0.9,2.2-0.6,3.2c0.3,1,1.2,3.1,1.6,4.2c0.4,1.1,0.6,1.1,1.7,2.1c0.3,0.3,0.6,0.4,1,0.5
	c0.8-3.4,2.2-9.7,2.2-10.2c0-0.1,0-0.1,0-0.2c-1.3-0.5-2.8-1-3.2-0.7C64.6,32.5,63.4,32.3,62.7,33.1z"></path><path class="st2" d="M66.4,43c0.8,0.1,1.6-0.4,3-0.8c2-0.6,3.2-2.5,3.5-3.3c0.4-0.8,0.6-2.1,0.3-3.5s-1.4-1.7-2.4-1.9
	c0,0-1-0.5-2.2-0.9c0,0.1,0,0.1,0,0.2C68.6,33.4,67.2,39.6,66.4,43z"></path><path class="st2" d="M65,31.7c-0.5,0-5.8-1.5-8.6-2.3c-0.2,0.7-0.3,1.4-0.2,2c0.1,1.3,1.4,2.9,2.5,4.2c1.1,1.2,3,1.4,4.5,1
	c1.5-0.4,3-2,3.5-2.1c0,0,0.7-1.7,0.9-2.8c-0.1,0-0.1,0.1-0.1,0.1S65.7,31.8,65,31.7z"></path><path class="st1" d="M66.9,28.5c-0.6-1-1.3-1.5-2.6-2.7c-1.3-1.2-2.3-0.2-3.9,0c-1.6,0.2-2.8,1.1-3.3,2c-0.3,0.4-0.5,1-0.6,1.6
	c2.8,0.8,8.2,2.3,8.6,2.3c0.6,0.1,2.5,0,2.5,0s0.1,0,0.1-0.1c0.1-0.5,0.2-0.9,0-1C67.3,30.4,67.5,29.5,66.9,28.5z"></path><path class="st10" d="M68.7,31.4c0.3,0.2,0.5,0.3,0.5,0.3s1.4-0.2,1.6-0.6c0.3-0.4,1.8-0.8,2.5-1c0.7-0.2,1.4-2.8,1.3-4
	s-2.2-2.8-3.3-3.3c-0.3-0.1-0.7-0.3-1.1-0.5c0,0.7-0.1,1.4,0,2C70.3,25.4,69.2,29.6,68.7,31.4z"></path><path class="st2" d="M63.3,24.5c-1,1,0.2,2.3,1.4,3.7c0.9,1.1,3,2.5,4,3.2c0.5-1.8,1.5-6,1.5-7c0-0.6,0-1.3,0-2
	c-1.1-0.4-2.5-0.7-4-0.2C64,22.9,64.3,23.5,63.3,24.5z"></path><path class="st3" d="M69.2,34.4c0,1.1,0.6,1.6,0.8,2.1c0.2,0.5,2.8,1.4,4.2,1.4c1.4,0,1.3-1.5,1.9-2.2c0.4-0.5,0.7-1.6,0.9-3.4
	c-2-0.1-5-0.2-6.6-0.4C69.8,32.6,69.1,33.7,69.2,34.4z"></path><path class="st2" d="M75.2,27.5c-1.3-1.7-2.3,0.1-3.5,0.7c-1.1,0.5-0.9,2.9-0.9,2.9s-0.3,0.3-0.6,0.8c1.6,0.2,4.7,0.3,6.6,0.4
	c0-0.5,0.1-1,0.1-1.6C77,28,76.5,29.3,75.2,27.5z"></path><path class="st4" d="M69.7,34.4c0.8-0.7,2.4-1.7,2.1-2.8c-0.3-1.1-1.5-2.5-2.1-2.4c-0.6,0.1-1.2,0.1-2.1,0.5c-0.9,0.4-2,1.4-1.9,2
	c0.2,0.6,0.3,1.3,0.7,1.7c0.3,0.4,0.5,0.4,1,0.6C67.8,34.3,69.7,34.4,69.7,34.4z"></path><circle class="st5" cx="65.9" cy="33.9" r="1.5"></circle><circle class="st6" cx="67.8" cy="34.8" r="1.5"></circle><circle class="st7" cx="70" cy="33.6" r="1.5"></circle><circle class="st6" cx="71.1" cy="32.5" r="1.5"></circle><circle class="st8" cx="70.5" cy="30.1" r="1.5"></circle><circle class="st6" cx="68.2" cy="29.5" r="1.5"></circle><circle class="st6" cx="66" cy="30.6" r="1.5"></circle><circle class="st4" cx="68" cy="31.8" r="1.5"></circle><path class="st3" d="M50.4,58.3c-0.8,0.7-0.9,2.2-0.6,3.2c0.3,1,1.2,3.1,1.6,4.2c0.4,1.1,0.6,1.1,1.7,2.1c0.3,0.3,0.6,0.4,1,0.5
	c0.8-3.4,2.2-9.7,2.2-10.2c0-0.1,0-0.1,0-0.2c-1.3-0.5-2.8-1-3.2-0.7C52.4,57.7,51.2,57.5,50.4,58.3z"></path><path class="st2" d="M54.1,68.3c0.8,0.1,1.6-0.4,3-0.8c2-0.6,3.2-2.5,3.5-3.3c0.4-0.8,0.6-2.1,0.3-3.5c-0.3-1.3-1.4-1.7-2.4-1.9
	c0,0-1-0.5-2.2-0.9c0,0.1,0,0.1,0,0.2C56.3,58.6,54.9,64.8,54.1,68.3z"></path><path class="st2" d="M52.8,57c-0.5,0-5.8-1.5-8.6-2.3c-0.2,0.7-0.3,1.4-0.2,2c0.1,1.3,1.4,2.9,2.5,4.2c1.1,1.2,3,1.4,4.5,1
	c1.5-0.4,3-2,3.5-2.1c0,0,0.7-1.7,0.9-2.8c-0.1,0-0.1,0.1-0.1,0.1S53.4,57,52.8,57z"></path><path class="st3" d="M54.6,53.8c-0.6-1-1.3-1.5-2.6-2.7c-1.3-1.2-2.3-0.2-3.9,0c-1.6,0.2-2.8,1.1-3.3,2c-0.3,0.4-0.5,1-0.6,1.6
	c2.8,0.8,8.2,2.3,8.6,2.3c0.6,0.1,2.5,0,2.5,0s0.1,0,0.1-0.1c0.1-0.5,0.2-0.9,0-1C55,55.6,55.2,54.8,54.6,53.8z"></path><path class="st3" d="M56.5,56.6C56.8,56.8,57,57,57,57s1.4-0.2,1.6-0.6c0.3-0.4,1.8-0.8,2.5-1c0.7-0.2,1.4-2.8,1.3-4
	c-0.1-1.2-2.2-2.8-3.3-3.3c-0.3-0.1-0.7-0.3-1.1-0.5c0,0.7-0.1,1.4,0,2C58,50.6,56.9,54.8,56.5,56.6z"></path><path class="st2" d="M51,49.7c-1,1,0.2,2.3,1.4,3.7c0.9,1.1,3,2.5,4,3.2c0.5-1.8,1.5-6,1.5-7c0-0.6,0-1.3,0-2
	c-1.1-0.4-2.5-0.7-4-0.2C51.8,48.2,52,48.8,51,49.7z"></path><path class="st3" d="M56.9,59.6c0,1.1,0.6,1.6,0.8,2.1c0.2,0.5,2.8,1.4,4.2,1.4c1.4,0,1.3-1.5,1.9-2.2c0.4-0.5,0.7-1.6,0.9-3.4
	c-2-0.1-5-0.2-6.6-0.4C57.5,57.9,56.9,58.9,56.9,59.6z"></path><path class="st2" d="M63,52.8c-1.3-1.7-2.3,0.1-3.5,0.7c-1.1,0.5-0.9,2.9-0.9,2.9s-0.3,0.3-0.6,0.8c1.6,0.2,4.7,0.3,6.6,0.4
	c0-0.5,0.1-1,0.1-1.6C64.8,53.3,64.2,54.5,63,52.8z"></path><path class="st4" d="M57.4,59.7c0.8-0.7,2.4-1.7,2.1-2.8c-0.3-1.1-1.5-2.5-2.1-2.4c-0.6,0.1-1.2,0.1-2.1,0.5c-0.9,0.4-2,1.4-1.9,2
	c0.2,0.6,0.3,1.3,0.7,1.7c0.3,0.4,0.5,0.4,1,0.6C55.6,59.6,57.4,59.7,57.4,59.7z"></path><circle class="st5" cx="53.6" cy="59.2" r="1.5"></circle><circle class="st6" cx="55.5" cy="60" r="1.5"></circle><circle class="st7" cx="57.7" cy="58.9" r="1.5"></circle><circle class="st6" cx="58.8" cy="57.7" r="1.5"></circle><circle class="st8" cx="58.2" cy="55.4" r="1.5"></circle><circle class="st6" cx="55.9" cy="54.7" r="1.5"></circle><circle class="st6" cx="53.7" cy="55.9" r="1.5"></circle><circle class="st4" cx="55.7" cy="57.1" r="1.5"></circle><path class="st3" d="M62.4,69.2c-0.8,0.7-0.9,2.2-0.6,3.2c0.3,1,1.2,3.1,1.6,4.2s0.6,1.1,1.7,2.1c0.3,0.3,0.6,0.4,1,0.5
	c0.8-3.4,2.2-9.7,2.2-10.2c0-0.1,0-0.1,0-0.2c-1.3-0.5-2.8-1-3.2-0.7C64.3,68.7,63.1,68.5,62.4,69.2z"></path><path class="st2" d="M66,79.2c0.8,0.1,1.6-0.4,3-0.8c2-0.6,3.2-2.5,3.5-3.3c0.4-0.8,0.6-2.1,0.3-3.5c-0.3-1.3-1.4-1.7-2.4-1.9
	c0,0-1-0.5-2.2-0.9c0,0.1,0,0.1,0,0.2C68.3,69.5,66.8,75.8,66,79.2z"></path><path class="st2" d="M64.7,67.9c-0.5,0-5.8-1.5-8.6-2.3c-0.2,0.7-0.3,1.4-0.2,2c0.1,1.3,1.4,2.9,2.5,4.2c1.1,1.2,3,1.4,4.5,1
	c1.5-0.4,3-2,3.5-2.1c0,0,0.7-1.7,0.9-2.8c-0.1,0-0.1,0.1-0.1,0.1S65.3,68,64.7,67.9z"></path><path class="st9" d="M66.6,64.7c-0.6-1-1.3-1.5-2.6-2.7c-1.3-1.2-2.3-0.2-3.9,0c-1.6,0.2-2.8,1.1-3.3,2c-0.3,0.4-0.5,1-0.6,1.6
	c2.8,0.8,8.2,2.3,8.6,2.3c0.6,0.1,2.5,0,2.5,0s0.1,0,0.1-0.1c0.1-0.5,0.2-0.9,0-1C66.9,66.6,67.2,65.7,66.6,64.7z"></path><path class="st3" d="M68.4,67.6c0.3,0.2,0.5,0.3,0.5,0.3s1.4-0.2,1.6-0.6c0.3-0.4,1.8-0.8,2.5-1c0.7-0.2,1.4-2.8,1.3-4
	c-0.1-1.2-2.2-2.8-3.3-3.3c-0.3-0.1-0.7-0.3-1.1-0.5c0,0.7-0.1,1.4,0,2C69.9,61.5,68.9,65.8,68.4,67.6z"></path><path class="st2" d="M63,60.7c-1,1,0.2,2.3,1.4,3.7c0.9,1.1,3,2.5,4,3.2c0.5-1.8,1.5-6,1.5-7c0-0.6,0-1.3,0-2
	c-1.1-0.4-2.5-0.7-4-0.2C63.7,59.1,63.9,59.7,63,60.7z"></path><path class="st3" d="M68.9,70.5c0,1.1,0.6,1.6,0.8,2.1s2.8,1.4,4.2,1.4c1.4,0,1.3-1.5,1.9-2.2c0.4-0.5,0.7-1.6,0.9-3.4
	c-2-0.1-5-0.2-6.6-0.4C69.4,68.8,68.8,69.9,68.9,70.5z"></path><path class="st2" d="M74.9,63.7c-1.3-1.7-2.3,0.1-3.5,0.7c-1.1,0.5-0.9,2.9-0.9,2.9s-0.3,0.3-0.6,0.8c1.6,0.2,4.7,0.3,6.6,0.4
	c0-0.5,0.1-1,0.1-1.6C76.7,64.2,76.2,65.4,74.9,63.7z"></path><path class="st4" d="M69.4,70.6c0.8-0.7,2.4-1.7,2.1-2.8c-0.3-1.1-1.5-2.5-2.1-2.4c-0.6,0.1-1.2,0.1-2.1,0.5c-0.9,0.4-2,1.4-1.9,2
	s0.3,1.3,0.7,1.7s0.5,0.4,1,0.6C67.5,70.5,69.4,70.6,69.4,70.6z"></path><circle class="st5" cx="65.6" cy="70.1" r="1.5"></circle><circle class="st6" cx="67.5" cy="70.9" r="1.5"></circle><circle class="st7" cx="69.7" cy="69.8" r="1.5"></circle><circle class="st6" cx="70.8" cy="68.7" r="1.5"></circle><circle class="st8" cx="70.2" cy="66.3" r="1.5"></circle><circle class="st6" cx="67.9" cy="65.6" r="1.5"></circle><circle class="st6" cx="65.7" cy="66.8" r="1.5"></circle><circle class="st4" cx="67.7" cy="68" r="1.5"></circle><path class="st3" d="M47.1,74.2c-0.8,0.7-0.9,2.2-0.6,3.2c0.3,1,1.2,3.1,1.6,4.2c0.4,1.1,0.6,1.1,1.7,2.1c0.3,0.3,0.6,0.4,1,0.5
	C51.6,80.7,53,74.5,53,74c0-0.1,0-0.1,0-0.2c-1.3-0.5-2.8-1-3.2-0.7C49.1,73.7,47.9,73.5,47.1,74.2z"></path><path class="st2" d="M50.8,84.2c0.8,0.1,1.6-0.4,3-0.8c2-0.6,3.2-2.5,3.5-3.3c0.4-0.8,0.6-2.1,0.3-3.5c-0.3-1.3-1.4-1.7-2.4-1.9
	c0,0-1-0.5-2.2-0.9c0,0.1,0,0.1,0,0.2C53,74.5,51.6,80.7,50.8,84.2z"></path><path class="st2" d="M49.5,72.9c-0.5,0-5.8-1.5-8.6-2.3c-0.2,0.7-0.3,1.4-0.2,2c0.1,1.3,1.4,2.9,2.5,4.2c1.1,1.2,3,1.4,4.5,1
	c1.5-0.4,3-2,3.5-2.1c0,0,0.7-1.7,0.9-2.8c-0.1,0-0.1,0.1-0.1,0.1S50.1,72.9,49.5,72.9z"></path><path class="st3" d="M51.3,69.7c-0.6-1-1.3-1.5-2.6-2.7c-1.3-1.2-2.3-0.2-3.9,0c-1.6,0.2-2.8,1.1-3.3,2c-0.3,0.4-0.5,1-0.6,1.6
	c2.8,0.8,8.2,2.3,8.6,2.3c0.6,0.1,2.5,0,2.5,0s0.1,0,0.1-0.1c0.1-0.5,0.2-0.9,0-1C51.7,71.5,51.9,70.7,51.3,69.7z"></path><path class="st3" d="M53.1,72.6c0.3,0.2,0.5,0.3,0.5,0.3s1.4-0.2,1.6-0.6c0.3-0.4,1.8-0.8,2.5-1c0.7-0.2,1.4-2.8,1.3-4
	c-0.1-1.2-2.2-2.8-3.3-3.3c-0.3-0.1-0.7-0.3-1.1-0.5c0,0.7-0.1,1.4,0,2C54.7,66.5,53.6,70.7,53.1,72.6z"></path><path class="st2" d="M47.7,65.6c-1,1,0.2,2.3,1.4,3.7c0.9,1.1,3,2.5,4,3.2c0.5-1.8,1.5-6,1.5-7c0-0.6,0-1.3,0-2
	c-1.1-0.4-2.5-0.7-4-0.2C48.5,64.1,48.7,64.7,47.7,65.6z"></path><path class="st3" d="M53.6,75.5c0,1.1,0.6,1.6,0.8,2.1c0.2,0.5,2.8,1.4,4.2,1.4c1.4,0,1.3-1.5,1.9-2.2c0.4-0.5,0.7-1.6,0.9-3.4
	c-2-0.1-5-0.2-6.6-0.4C54.2,73.8,53.6,74.8,53.6,75.5z"></path><path class="st2" d="M59.6,68.7c-1.3-1.7-2.3,0.1-3.5,0.7c-1.1,0.5-0.9,2.9-0.9,2.9s-0.3,0.3-0.6,0.8c1.6,0.2,4.7,0.3,6.6,0.4
	c0-0.5,0.1-1,0.1-1.6C61.5,69.2,60.9,70.4,59.6,68.7z"></path><path class="st4" d="M54.1,75.6c0.8-0.7,2.4-1.7,2.1-2.8c-0.3-1.1-1.5-2.5-2.1-2.4s-1.2,0.1-2.1,0.5s-2,1.4-1.9,2
	c0.2,0.6,0.3,1.3,0.7,1.7c0.3,0.4,0.5,0.4,1,0.6S54.1,75.6,54.1,75.6z"></path><circle class="st5" cx="50.3" cy="75.1" r="1.5"></circle><circle class="st6" cx="52.2" cy="75.9" r="1.5"></circle><circle class="st7" cx="54.4" cy="74.8" r="1.5"></circle><circle class="st6" cx="55.5" cy="73.6" r="1.5"></circle><circle class="st8" cx="54.9" cy="71.3" r="1.5"></circle><circle class="st6" cx="52.6" cy="70.6" r="1.5"></circle><circle class="st6" cx="50.4" cy="71.8" r="1.5"></circle><circle class="st4" cx="52.4" cy="73" r="1.5"></circle><path class="st3" d="M59.8,50.9c-0.8,0.7-0.9,2.2-0.6,3.2c0.3,1,1.2,3.1,1.6,4.2c0.4,1.1,0.6,1.1,1.7,2.1c0.3,0.3,0.6,0.4,1,0.5
	c0.8-3.4,2.2-9.7,2.2-10.2c0-0.1,0-0.1,0-0.2c-1.3-0.5-2.8-1-3.2-0.7C61.8,50.4,60.6,50.2,59.8,50.9z"></path><path class="st11" d="M63.5,60.9c0.8,0.1,1.6-0.4,3-0.8c2-0.6,3.2-2.5,3.5-3.3c0.4-0.8,0.6-2.1,0.3-3.5S69,51.7,68,51.5
	c0,0-1-0.5-2.2-0.9c0,0.1,0,0.1,0,0.2C65.7,51.2,64.3,57.5,63.5,60.9z"></path><path class="st2" d="M62.2,49.6c-0.5,0-5.8-1.5-8.6-2.3c-0.2,0.7-0.3,1.4-0.2,2c0.1,1.3,1.4,2.9,2.5,4.2c1.1,1.2,3,1.4,4.5,1
	c1.5-0.4,3-2,3.5-2.1c0,0,0.7-1.7,0.9-2.8c-0.1,0-0.1,0.1-0.1,0.1S62.8,49.6,62.2,49.6z"></path><path class="st3" d="M64,46.4c-0.6-1-1.3-1.5-2.6-2.7c-1.3-1.2-2.3-0.2-3.9,0c-1.6,0.2-2.8,1.1-3.3,2c-0.3,0.4-0.5,1-0.6,1.6
	c2.8,0.8,8.2,2.3,8.6,2.3c0.6,0.1,2.5,0,2.5,0s0.1,0,0.1-0.1c0.1-0.5,0.2-0.9,0-1C64.4,48.3,64.6,47.4,64,46.4z"></path><path class="st10" d="M65.9,49.3c0.3,0.2,0.5,0.3,0.5,0.3s1.4-0.2,1.6-0.6c0.3-0.4,1.8-0.8,2.5-1c0.7-0.2,1.4-2.8,1.3-4
	c-0.1-1.2-2.2-2.8-3.3-3.3c-0.3-0.1-0.7-0.3-1.1-0.5c0,0.7-0.1,1.4,0,2C67.4,43.2,66.3,47.4,65.9,49.3z"></path><path class="st2" d="M60.4,42.4c-1,1,0.2,2.3,1.4,3.7c0.9,1.1,3,2.5,4,3.2c0.5-1.8,1.5-6,1.5-7c0-0.6,0-1.3,0-2
	c-1.1-0.4-2.5-0.7-4-0.2C61.2,40.8,61.4,41.4,60.4,42.4z"></path><path class="st3" d="M66.3,52.2c0,1.1,0.6,1.6,0.8,2.1c0.2,0.5,2.8,1.4,4.2,1.4c1.4,0,1.3-1.5,1.9-2.2c0.4-0.5,0.7-1.6,0.9-3.4
	c-2-0.1-5-0.2-6.6-0.4C66.9,50.5,66.3,51.5,66.3,52.2z"></path><path class="st2" d="M72.4,45.4c-1.3-1.7-2.3,0.1-3.5,0.7C67.8,46.6,68,49,68,49s-0.3,0.3-0.6,0.8c1.6,0.2,4.7,0.3,6.6,0.4
	c0-0.5,0.1-1,0.1-1.6C74.2,45.9,73.7,47.1,72.4,45.4z"></path><path class="st4" d="M66.8,52.3c0.8-0.7,2.4-1.7,2.1-2.8c-0.3-1.1-1.5-2.5-2.1-2.4c-0.6,0.1-1.2,0.1-2.1,0.5c-0.9,0.4-2,1.4-1.9,2
	s0.3,1.3,0.7,1.7c0.3,0.4,0.5,0.4,1,0.6C65,52.2,66.8,52.3,66.8,52.3z"></path><circle class="st5" cx="63" cy="51.8" r="1.5"></circle><circle class="st6" cx="64.9" cy="52.6" r="1.5"></circle><circle class="st7" cx="67.1" cy="51.5" r="1.5"></circle><circle class="st6" cx="68.2" cy="50.4" r="1.5"></circle><circle class="st8" cx="67.6" cy="48" r="1.5"></circle><circle class="st6" cx="65.4" cy="47.3" r="1.5"></circle><circle class="st6" cx="63.1" cy="48.5" r="1.5"></circle><circle class="st4" cx="65.2" cy="49.7" r="1.5"></circle><path class="st10" d="M45.1,47.6c-0.8,0.7-0.9,2.2-0.6,3.2c0.3,1,1.2,3.1,1.6,4.2c0.4,1.1,0.6,1.1,1.7,2.1c0.3,0.3,0.6,0.4,1,0.5
	c0.8-3.4,2.2-9.7,2.2-10.2c0-0.1,0-0.1,0-0.2c-1.3-0.5-2.8-1-3.2-0.7C47.1,47.1,45.9,46.9,45.1,47.6z"></path><path class="st2" d="M48.8,57.6c0.8,0.1,1.6-0.4,3-0.8c2-0.6,3.2-2.5,3.5-3.3c0.4-0.8,0.6-2.1,0.3-3.5s-1.4-1.7-2.4-1.9
	c0,0-1-0.5-2.2-0.9c0,0.1,0,0.1,0,0.2C51.1,47.9,49.6,54.2,48.8,57.6z"></path><path class="st11" d="M47.5,46.3c-0.5,0-5.8-1.5-8.6-2.3c-0.2,0.7-0.3,1.4-0.2,2c0.1,1.3,1.4,2.9,2.5,4.2c1.1,1.2,3,1.4,4.5,1
	c1.5-0.4,3-2,3.5-2.1c0,0,0.7-1.7,0.9-2.8c-0.1,0-0.1,0.1-0.1,0.1S48.1,46.4,47.5,46.3z"></path><path class="st3" d="M49.3,43.1c-0.6-1-1.3-1.5-2.6-2.7c-1.3-1.2-2.3-0.2-3.9,0c-1.6,0.2-2.8,1.1-3.3,2c-0.3,0.4-0.5,1-0.6,1.6
	c2.8,0.8,8.2,2.3,8.6,2.3c0.6,0.1,2.5,0,2.5,0s0.1,0,0.1-0.1c0.1-0.5,0.2-0.9,0-1C49.7,45,49.9,44.1,49.3,43.1z"></path><path class="st3" d="M51.2,46c0.3,0.2,0.5,0.3,0.5,0.3s1.4-0.2,1.6-0.6c0.3-0.4,1.8-0.8,2.5-1c0.7-0.2,1.4-2.8,1.3-4
	c-0.1-1.2-2.2-2.8-3.3-3.3c-0.3-0.1-0.7-0.3-1.1-0.5c0,0.7-0.1,1.4,0,2C52.7,40,51.7,44.2,51.2,46z"></path><path class="st2" d="M45.8,39.1c-1,1,0.2,2.3,1.4,3.7c0.9,1.1,3,2.5,4,3.2c0.5-1.8,1.5-6,1.5-7c0-0.6,0-1.3,0-2
	c-1.1-0.4-2.5-0.7-4-0.2C46.5,37.5,46.7,38.1,45.8,39.1z"></path><path class="st1" d="M51.7,48.9c0,1.1,0.6,1.6,0.8,2.1s2.8,1.4,4.2,1.4c1.4,0,1.3-1.5,1.9-2.2c0.4-0.5,0.7-1.6,0.9-3.4
	c-2-0.1-5-0.2-6.6-0.4C52.2,47.2,51.6,48.3,51.7,48.9z"></path><path class="st2" d="M57.7,42.1c-1.3-1.7-2.3,0.1-3.5,0.7c-1.1,0.5-0.9,2.9-0.9,2.9S53,46,52.7,46.5c1.6,0.2,4.7,0.3,6.6,0.4
	c0-0.5,0.1-1,0.1-1.6C59.5,42.6,59,43.8,57.7,42.1z"></path><path class="st4" d="M52.1,49c0.8-0.7,2.4-1.7,2.1-2.8c-0.3-1.1-1.5-2.5-2.1-2.4c-0.6,0.1-1.2,0.1-2.1,0.5c-0.9,0.4-2,1.4-1.9,2
	c0.2,0.6,0.3,1.3,0.7,1.7c0.3,0.4,0.5,0.4,1,0.6C50.3,48.9,52.1,49,52.1,49z"></path><circle class="st5" cx="48.4" cy="48.5" r="1.5"></circle><circle class="st6" cx="50.2" cy="49.3" r="1.5"></circle><circle class="st7" cx="52.4" cy="48.2" r="1.5"></circle><circle class="st6" cx="53.6" cy="47.1" r="1.5"></circle><circle class="st8" cx="52.9" cy="44.7" r="1.5"></circle><circle class="st6" cx="50.7" cy="44.1" r="1.5"></circle><circle class="st6" cx="48.5" cy="45.2" r="1.5"></circle><circle class="st4" cx="50.5" cy="46.4" r="1.5"></circle><path class="st10" d="M52.6,30.2c-0.8,0.7-0.9,2.2-0.6,3.2c0.3,1,1.2,3.1,1.6,4.2c0.4,1.1,0.6,1.1,1.7,2.1c0.3,0.3,0.6,0.4,1,0.5
	c0.8-3.4,2.2-9.7,2.2-10.2c0-0.1,0-0.1,0-0.2c-1.3-0.5-2.8-1-3.2-0.7C54.6,29.7,53.4,29.5,52.6,30.2z"></path><path class="st2" d="M56.3,40.2c0.8,0.1,1.6-0.4,3-0.8c2-0.6,3.2-2.5,3.5-3.3c0.4-0.8,0.6-2.1,0.3-3.5c-0.3-1.3-1.4-1.7-2.4-1.9
	c0,0-1-0.5-2.2-0.9c0,0.1,0,0.1,0,0.2C58.5,30.5,57.1,36.8,56.3,40.2z"></path><path class="st11" d="M55,28.9c-0.5,0-5.8-1.5-8.6-2.3c-0.2,0.7-0.3,1.4-0.2,2c0.1,1.3,1.4,2.9,2.5,4.2c1.1,1.2,3,1.4,4.5,1
	c1.5-0.4,3-2,3.5-2.1c0,0,0.7-1.7,0.9-2.8c-0.1,0-0.1,0.1-0.1,0.1S55.6,28.9,55,28.9z"></path><path class="st10" d="M56.8,25.7c-0.6-1-1.3-1.5-2.6-2.7c-1.3-1.2-2.3-0.2-3.9,0c-1.6,0.2-2.8,1.1-3.3,2c-0.3,0.4-0.5,1-0.6,1.6
	c2.8,0.8,8.2,2.3,8.6,2.3c0.6,0.1,2.5,0,2.5,0s0.1,0,0.1-0.1c0.1-0.5,0.2-0.9,0-1C57.2,27.5,57.4,26.7,56.8,25.7z"></path><path class="st3" d="M58.7,28.6c0.3,0.2,0.5,0.3,0.5,0.3s1.4-0.2,1.6-0.6c0.3-0.4,1.8-0.8,2.5-1c0.7-0.2,1.4-2.8,1.3-4
	c-0.1-1.2-2.2-2.8-3.3-3.3c-0.3-0.1-0.7-0.3-1.1-0.5c0,0.7-0.1,1.4,0,2C60.2,22.5,59.2,26.7,58.7,28.6z"></path><path class="st2" d="M53.3,21.7c-1,1,0.2,2.3,1.4,3.7c0.9,1.1,3,2.5,4,3.2c0.5-1.8,1.5-6,1.5-7c0-0.6,0-1.3,0-2
	c-1.1-0.4-2.5-0.7-4-0.2C54,20.1,54.2,20.7,53.3,21.7z"></path><path class="st3" d="M59.1,31.5c0,1.1,0.6,1.6,0.8,2.1s2.8,1.4,4.2,1.4c1.4,0,1.3-1.5,1.9-2.2c0.4-0.5,0.7-1.6,0.9-3.4
	c-2-0.1-5-0.2-6.6-0.4C59.7,29.8,59.1,30.8,59.1,31.5z"></path><path class="st2" d="M65.2,24.7c-1.3-1.7-2.3,0.1-3.5,0.7c-1.1,0.5-0.9,2.9-0.9,2.9s-0.3,0.3-0.6,0.8c1.6,0.2,4.7,0.3,6.6,0.4
	c0-0.5,0.1-1,0.1-1.6C67,25.2,66.5,26.4,65.2,24.7z"></path><path class="st4" d="M59.6,31.6c0.8-0.7,2.4-1.7,2.1-2.8c-0.3-1.1-1.5-2.5-2.1-2.4c-0.6,0.1-1.2,0.1-2.1,0.5c-0.9,0.4-2,1.4-1.9,2
	c0.2,0.6,0.3,1.3,0.7,1.7s0.5,0.4,1,0.6S59.6,31.6,59.6,31.6z"></path><circle class="st5" cx="55.8" cy="31.1" r="1.5"></circle><circle class="st6" cx="57.7" cy="31.9" r="1.5"></circle><circle class="st7" cx="59.9" cy="30.8" r="1.5"></circle><circle class="st6" cx="61.1" cy="29.7" r="1.5"></circle><circle class="st8" cx="60.4" cy="27.3" r="1.5"></circle><circle class="st6" cx="58.2" cy="26.6" r="1.5"></circle><circle class="st6" cx="55.9" cy="27.8" r="1.5"></circle><circle class="st4" cx="58" cy="29" r="1.5"></circle><path class="st10" d="M74.2,66.7c-0.8,0.7-0.9,2.2-0.6,3.2c0.3,1,1.2,3.1,1.6,4.2c0.4,1.1,0.6,1.1,1.7,2.1c0.3,0.3,0.6,0.4,1,0.5
	c0.8-3.4,2.2-9.7,2.2-10.2c0-0.1,0-0.1,0-0.2c-1.3-0.5-2.8-1-3.2-0.7C76.2,66.2,74.9,66,74.2,66.7z"></path><path class="st2" d="M77.9,76.7c0.8,0.1,1.6-0.4,3-0.8c2-0.6,3.2-2.5,3.5-3.3c0.4-0.8,0.6-2.1,0.3-3.5c-0.3-1.3-1.4-1.7-2.4-1.9
	c0,0-1-0.5-2.2-0.9c0,0.1,0,0.1,0,0.2C80.1,67,78.7,73.3,77.9,76.7z"></path><path class="st2" d="M76.6,65.4c-0.5,0-5.8-1.5-8.6-2.3c-0.2,0.7-0.3,1.4-0.2,2c0.1,1.3,1.4,2.9,2.5,4.2c1.1,1.2,3,1.4,4.5,1
	c1.5-0.4,3-2,3.5-2.1c0,0,0.7-1.7,0.9-2.8c-0.1,0-0.1,0.1-0.1,0.1S77.2,65.5,76.6,65.4z"></path><path class="st9" d="M78.4,62.2c-0.6-1-1.3-1.5-2.6-2.7c-1.3-1.2-2.3-0.2-3.9,0c-1.6,0.2-2.8,1.1-3.3,2c-0.3,0.4-0.5,1-0.6,1.6
	c2.8,0.8,8.2,2.3,8.6,2.3c0.6,0.1,2.5,0,2.5,0s0.1,0,0.1-0.1c0.1-0.5,0.2-0.9,0-1C78.8,64.1,79,63.2,78.4,62.2z"></path><path class="st3" d="M80.2,65.1c0.3,0.2,0.5,0.3,0.5,0.3s1.4-0.2,1.6-0.6c0.3-0.4,1.8-0.8,2.5-1c0.7-0.2,1.4-2.8,1.3-4
	C86,58.6,84,57,82.9,56.6c-0.3-0.1-0.7-0.3-1.1-0.5c0,0.7-0.1,1.4,0,2C81.8,59,80.7,63.3,80.2,65.1z"></path><path class="st2" d="M74.8,58.2c-1,1,0.2,2.3,1.4,3.7c0.9,1.1,3,2.5,4,3.2c0.5-1.8,1.5-6,1.5-7c0-0.6,0-1.3,0-2
	c-1.1-0.4-2.5-0.7-4-0.2C75.6,56.6,75.8,57.2,74.8,58.2z"></path><path class="st3" d="M80.7,68c0,1.1,0.6,1.6,0.8,2.1c0.2,0.5,2.8,1.4,4.2,1.4c1.4,0,1.3-1.5,1.9-2.2c0.4-0.5,0.7-1.6,0.9-3.4
	c-2-0.1-5-0.2-6.6-0.4C81.3,66.3,80.7,67.3,80.7,68z"></path><path class="st2" d="M86.7,61.2c-1.3-1.7-2.3,0.1-3.5,0.7c-1.1,0.5-0.9,2.9-0.9,2.9s-0.3,0.3-0.6,0.8c1.6,0.2,4.7,0.3,6.6,0.4
	c0-0.5,0.1-1,0.1-1.6C88.6,61.7,88,62.9,86.7,61.2z"></path><path class="st4" d="M81.2,68.1c0.8-0.7,2.4-1.7,2.1-2.8c-0.3-1.1-1.5-2.5-2.1-2.4C80.5,63,80,63,79,63.4c-0.9,0.4-2,1.4-1.9,2
	c0.2,0.6,0.3,1.3,0.7,1.7s0.5,0.4,1,0.6C79.4,68,81.2,68.1,81.2,68.1z"></path><circle class="st5" cx="77.4" cy="67.6" r="1.5"></circle><circle class="st6" cx="79.3" cy="68.4" r="1.5"></circle><circle class="st7" cx="81.5" cy="67.3" r="1.5"></circle><circle class="st6" cx="82.6" cy="66.2" r="1.5"></circle><circle class="st8" cx="82" cy="63.8" r="1.5"></circle><circle class="st6" cx="79.7" cy="63.1" r="1.5"></circle><circle class="st6" cx="77.5" cy="64.3" r="1.5"></circle><circle class="st4" cx="79.5" cy="65.5" r="1.5"></circle><path class="st3" d="M21.3,62c-0.8,0.7-0.9,2.2-0.6,3.2c0.3,1,1.2,3.1,1.6,4.2c0.4,1.1,0.6,1.1,1.7,2.1c0.3,0.3,0.6,0.4,1,0.5
	c0.8-3.4,2.2-9.7,2.2-10.2c0-0.1,0-0.1,0-0.2c-1.3-0.5-2.8-1-3.2-0.7C23.3,61.5,22.1,61.3,21.3,62z"></path><path class="st11" d="M25,72c0.8,0.1,1.6-0.4,3-0.8c2-0.6,3.2-2.5,3.5-3.3c0.4-0.8,0.6-2.1,0.3-3.5c-0.3-1.3-1.4-1.7-2.4-1.9
	c0,0-1-0.5-2.2-0.9c0,0.1,0,0.1,0,0.2C27.3,62.3,25.8,68.6,25,72z"></path><path class="st2" d="M23.7,60.7c-0.5,0-5.8-1.5-8.6-2.3c-0.2,0.7-0.3,1.4-0.2,2c0.1,1.3,1.4,2.9,2.5,4.2c1.1,1.2,3,1.4,4.5,1
	c1.5-0.4,3-2,3.5-2.1c0,0,0.7-1.7,0.9-2.8c-0.1,0-0.1,0.1-0.1,0.1S24.3,60.7,23.7,60.7z"></path><path class="st10" d="M25.5,57.5c-0.6-1-1.3-1.5-2.6-2.7c-1.3-1.2-2.3-0.2-3.9,0c-1.6,0.2-2.8,1.1-3.3,2c-0.3,0.4-0.5,1-0.6,1.6
	c2.8,0.8,8.2,2.3,8.6,2.3c0.6,0.1,2.5,0,2.5,0s0.1,0,0.1-0.1c0.1-0.5,0.2-0.9,0-1C25.9,59.4,26.2,58.5,25.5,57.5z"></path><path class="st3" d="M27.4,60.4c0.3,0.2,0.5,0.3,0.5,0.3s1.4-0.2,1.6-0.6c0.3-0.4,1.8-0.8,2.5-1c0.7-0.2,1.4-2.8,1.3-4
	c-0.1-1.2-2.2-2.8-3.3-3.3c-0.3-0.1-0.7-0.3-1.1-0.5c0,0.7-0.1,1.4,0,2C28.9,54.3,27.9,58.5,27.4,60.4z"></path><path class="st2" d="M22,53.5c-1,1,0.2,2.3,1.4,3.7c0.9,1.1,3,2.5,4,3.2c0.5-1.8,1.5-6,1.5-7c0-0.6,0-1.3,0-2
	c-1.1-0.4-2.5-0.7-4-0.2C22.7,51.9,22.9,52.5,22,53.5z"></path><path class="st3" d="M27.9,63.3c0,1.1,0.6,1.6,0.8,2.1c0.2,0.5,2.8,1.4,4.2,1.4c1.4,0,1.3-1.5,1.9-2.2c0.4-0.5,0.7-1.6,0.9-3.4
	c-2-0.1-5-0.2-6.6-0.4C28.4,61.6,27.8,62.6,27.9,63.3z"></path><path class="st2" d="M33.9,56.5c-1.3-1.7-2.3,0.1-3.5,0.7c-1.1,0.5-0.9,2.9-0.9,2.9s-0.3,0.3-0.6,0.8c1.6,0.2,4.7,0.3,6.6,0.4
	c0-0.5,0.1-1,0.1-1.6C35.7,57,35.2,58.2,33.9,56.5z"></path><path class="st4" d="M28.3,63.4c0.8-0.7,2.4-1.7,2.1-2.8c-0.3-1.1-1.5-2.5-2.1-2.4c-0.6,0.1-1.2,0.1-2.1,0.5s-2,1.4-1.9,2
	c0.2,0.6,0.3,1.3,0.7,1.7c0.3,0.4,0.5,0.4,1,0.6C26.5,63.3,28.3,63.4,28.3,63.4z"></path><circle class="st5" cx="24.6" cy="62.9" r="1.5"></circle><circle class="st6" cx="26.5" cy="63.7" r="1.5"></circle><circle class="st7" cx="28.7" cy="62.6" r="1.5"></circle><circle class="st6" cx="29.8" cy="61.5" r="1.5"></circle><circle class="st8" cx="29.2" cy="59.1" r="1.5"></circle><circle class="st6" cx="26.9" cy="58.4" r="1.5"></circle><circle class="st6" cx="24.7" cy="59.6" r="1.5"></circle><circle class="st4" cx="26.7" cy="60.8" r="1.5"></circle><path class="st3" d="M57.9,80.4c-0.8,0.7-0.9,2.2-0.6,3.2c0.3,1,1.2,3.1,1.6,4.2c0.4,1.1,0.6,1.1,1.7,2.1c0.3,0.3,0.6,0.4,1,0.5
	c0.8-3.4,2.2-9.7,2.2-10.2c0-0.1,0-0.1,0-0.2c-1.3-0.5-2.8-1-3.2-0.7C59.8,79.8,58.6,79.6,57.9,80.4z"></path><path class="st2" d="M61.6,90.4c0.8,0.1,1.6-0.4,3-0.8c2-0.6,3.2-2.5,3.5-3.3c0.4-0.8,0.6-2.1,0.3-3.5C68.2,81.5,67,81.2,66,81
	c0,0-1-0.5-2.2-0.9c0,0.1,0,0.1,0,0.2C63.8,80.7,62.4,86.9,61.6,90.4z"></path><path class="st2" d="M60.2,79.1c-0.5,0-5.8-1.5-8.6-2.3c-0.2,0.7-0.3,1.4-0.2,2c0.1,1.3,1.4,2.9,2.5,4.2c1.1,1.2,3,1.4,4.5,1
	c1.5-0.4,3-2,3.5-2.1c0,0,0.7-1.7,0.9-2.8c-0.1,0-0.1,0.1-0.1,0.1S60.9,79.1,60.2,79.1z"></path><path class="st10" d="M62.1,75.9c-0.6-1-1.3-1.5-2.6-2.7c-1.3-1.2-2.3-0.2-3.9,0c-1.6,0.2-2.8,1.1-3.3,2c-0.3,0.4-0.5,1-0.6,1.6
	c2.8,0.8,8.2,2.3,8.6,2.3c0.6,0.1,2.5,0,2.5,0s0.1,0,0.1-0.1c0.1-0.5,0.2-0.9,0-1C62.4,77.7,62.7,76.9,62.1,75.9z"></path><path class="st3" d="M63.9,78.7c0.3,0.2,0.5,0.3,0.5,0.3s1.4-0.2,1.6-0.6c0.3-0.4,1.8-0.8,2.5-1c0.7-0.2,1.4-2.8,1.3-4
	c-0.1-1.2-2.2-2.8-3.3-3.3c-0.3-0.1-0.7-0.3-1.1-0.5c0,0.7-0.1,1.4,0,2C65.4,72.7,64.4,76.9,63.9,78.7z"></path><path class="st2" d="M58.5,71.8c-1,1,0.2,2.3,1.4,3.7c0.9,1.1,3,2.5,4,3.2c0.5-1.8,1.5-6,1.5-7c0-0.6,0-1.3,0-2
	c-1.1-0.4-2.5-0.7-4-0.2C59.2,70.3,59.5,70.9,58.5,71.8z"></path><path class="st3" d="M64.4,81.7c0,1.1,0.6,1.6,0.8,2.1c0.2,0.5,2.8,1.4,4.2,1.4c1.4,0,1.3-1.5,1.9-2.2c0.4-0.5,0.7-1.6,0.9-3.4
	c-2-0.1-5-0.2-6.6-0.4C65,80,64.3,81,64.4,81.7z"></path><path class="st2" d="M70.4,74.9c-1.3-1.7-2.3,0.1-3.5,0.7c-1.1,0.5-0.9,2.9-0.9,2.9s-0.3,0.3-0.6,0.8c1.6,0.2,4.7,0.3,6.6,0.4
	c0-0.5,0.1-1,0.1-1.6C72.2,75.4,71.7,76.6,70.4,74.9z"></path><path class="st4" d="M64.9,81.8c0.8-0.7,2.4-1.7,2.1-2.8s-1.5-2.5-2.1-2.4c-0.6,0.1-1.2,0.1-2.1,0.5c-0.9,0.4-2,1.4-1.9,2
	c0.2,0.6,0.3,1.3,0.7,1.7c0.3,0.4,0.5,0.4,1,0.6S64.9,81.8,64.9,81.8z"></path><circle class="st5" cx="61.1" cy="81.3" r="1.5"></circle><circle class="st6" cx="63" cy="82.1" r="1.5"></circle><circle class="st7" cx="65.2" cy="81" r="1.5"></circle><circle class="st6" cx="66.3" cy="79.8" r="1.5"></circle><circle class="st8" cx="65.7" cy="77.5" r="1.5"></circle><circle class="st6" cx="63.4" cy="76.8" r="1.5"></circle><circle class="st6" cx="61.2" cy="78" r="1.5"></circle><circle class="st4" cx="63.2" cy="79.2" r="1.5"></circle><path class="st9" d="M37.4,78.3c-0.8,0.7-0.9,2.2-0.6,3.2c0.3,1,1.2,3.1,1.6,4.2c0.4,1.1,0.6,1.1,1.7,2.1c0.3,0.3,0.6,0.4,1,0.5
	c0.8-3.4,2.2-9.7,2.2-10.2c0-0.1,0-0.1,0-0.2c-1.3-0.5-2.8-1-3.2-0.7C39.4,77.7,38.2,77.5,37.4,78.3z"></path><path class="st2" d="M41.1,88.3c0.8,0.1,1.6-0.4,3-0.8c2-0.6,3.2-2.5,3.5-3.3c0.4-0.8,0.6-2.1,0.3-3.5s-1.4-1.7-2.4-1.9
	c0,0-1-0.5-2.2-0.9c0,0.1,0,0.1,0,0.2C43.3,78.6,41.9,84.8,41.1,88.3z"></path><path class="st11" d="M39.8,76.9c-0.5,0-5.8-1.5-8.6-2.3c-0.2,0.7-0.3,1.4-0.2,2c0.1,1.3,1.4,2.9,2.5,4.2c1.1,1.2,3,1.4,4.5,1
	c1.5-0.4,3-2,3.5-2.1c0,0,0.7-1.7,0.9-2.8c-0.1,0-0.1,0.1-0.1,0.1S40.4,77,39.8,76.9z"></path><path class="st10" d="M41.6,73.7c-0.6-1-1.3-1.5-2.6-2.7c-1.3-1.2-2.3-0.2-3.9,0c-1.6,0.2-2.8,1.1-3.3,2c-0.3,0.4-0.5,1-0.6,1.6
	c2.8,0.8,8.2,2.3,8.6,2.3c0.6,0.1,2.5,0,2.5,0s0.1,0,0.1-0.1c0.1-0.5,0.2-0.9,0-1C42,75.6,42.2,74.7,41.6,73.7z"></path><path class="st1" d="M43.4,76.6c0.3,0.2,0.5,0.3,0.5,0.3s1.4-0.2,1.6-0.6c0.3-0.4,1.8-0.8,2.5-1c0.7-0.2,1.4-2.8,1.3-4
	c-0.1-1.2-2.2-2.8-3.3-3.3c-0.3-0.1-0.7-0.3-1.1-0.5c0,0.7-0.1,1.4,0,2C45,70.6,43.9,74.8,43.4,76.6z"></path><path class="st2" d="M38,69.7c-1,1,0.2,2.3,1.4,3.7c0.9,1.1,3,2.5,4,3.2c0.5-1.8,1.5-6,1.5-7c0-0.6,0-1.3,0-2
	c-1.1-0.4-2.5-0.7-4-0.2C38.8,68.2,39,68.7,38,69.7z"></path><path class="st3" d="M43.9,79.6c0,1.1,0.6,1.6,0.8,2.1c0.2,0.5,2.8,1.4,4.2,1.4c1.4,0,1.3-1.5,1.9-2.2c0.4-0.5,0.7-1.6,0.9-3.4
	c-2-0.1-5-0.2-6.6-0.4C44.5,77.9,43.9,78.9,43.9,79.6z"></path><path class="st2" d="M49.9,72.7c-1.3-1.7-2.3,0.1-3.5,0.7c-1.1,0.5-0.9,2.9-0.9,2.9s-0.3,0.3-0.6,0.8c1.6,0.2,4.7,0.3,6.6,0.4
	c0-0.5,0.1-1,0.1-1.6C51.8,73.3,51.2,74.5,49.9,72.7z"></path><path class="st4" d="M44.4,79.7c0.8-0.7,2.4-1.7,2.1-2.8c-0.3-1.1-1.5-2.5-2.1-2.4c-0.6,0.1-1.2,0.1-2.1,0.5c-0.9,0.4-2,1.4-1.9,2
	c0.2,0.6,0.3,1.3,0.7,1.7c0.3,0.4,0.5,0.4,1,0.6C42.6,79.6,44.4,79.7,44.4,79.7z"></path><circle class="st5" cx="40.6" cy="79.1" r="1.5"></circle><circle class="st6" cx="42.5" cy="80" r="1.5"></circle><circle class="st7" cx="44.7" cy="78.8" r="1.5"></circle><circle class="st6" cx="45.8" cy="77.7" r="1.5"></circle><circle class="st8" cx="45.2" cy="75.4" r="1.5"></circle><circle class="st6" cx="42.9" cy="74.7" r="1.5"></circle><circle class="st6" cx="40.7" cy="75.8" r="1.5"></circle><circle class="st4" cx="42.7" cy="77.1" r="1.5"></circle></g></svg>