<?xml version="1.0" encoding="utf-8"?>
<!-- Generator: Adobe Illustrator 23.1.1, SVG Export Plug-In . SVG Version: 6.00 Build 0)  -->
<svg version="1.1" id="Layer_1" xmlns="http://www.w3.org/2000/svg" xmlns:xlink="http://www.w3.org/1999/xlink" x="0px" y="0px"
	 viewBox="0 0 108 108" style="enable-background:new 0 0 108 108;" xml:space="preserve">
<style type="text/css">
	.st0{fill:#7BB442;}
	.st1{fill:#63AA43;}
	.st2{fill:#5A9B3C;}
	.st3{fill:#5DA13E;}
	.st4{fill:#4F9A3E;}
	.st5{fill:#619B3E;}
	.st6{fill:#6D9D3B;}
	.st7{fill:#5C9F3E;}
	.st8{fill:#E4E3E1;stroke:#D3D5D6;stroke-width:0.1853;stroke-miterlimit:10;}
	.st9{fill:#CFCFCE;stroke:#D3D5D6;stroke-width:0.1853;stroke-miterlimit:10;}
	.st10{fill:#E2DCD7;stroke:#D3D5D6;stroke-width:0.1853;stroke-miterlimit:10;}
	.st11{fill:#FFFFFF;stroke:#D3D5D6;stroke-width:0.1853;stroke-miterlimit:10;}
	.st12{fill:#F4F3EE;stroke:#D3D5D6;stroke-width:0.1853;stroke-miterlimit:10;}
	.st13{fill:#DAD9D8;stroke:#D3D5D6;stroke-width:0.1853;stroke-miterlimit:10;}
	.st14{fill:#D8D8D6;stroke:#D3D5D6;stroke-width:0.1853;stroke-miterlimit:10;}
	.st15{fill:#EDEDEE;stroke:#D3D5D6;stroke-width:0.1853;stroke-miterlimit:10;}
	.st16{fill:#E4E3E1;}
	.st17{fill:#333132;}
	.st18{fill:#515254;}
	.st19{fill:#151618;}
	.st20{fill:#E4E3E1;stroke:#D3D5D6;stroke-width:0.1465;stroke-miterlimit:10;}
	.st21{fill:#CFCFCE;stroke:#D3D5D6;stroke-width:0.1465;stroke-miterlimit:10;}
	.st22{fill:#E2DCD7;stroke:#D3D5D6;stroke-width:0.1465;stroke-miterlimit:10;}
	.st23{fill:#FFFFFF;stroke:#D3D5D6;stroke-width:0.1465;stroke-miterlimit:10;}
	.st24{fill:#F4F3EE;stroke:#D3D5D6;stroke-width:0.1465;stroke-miterlimit:10;}
	.st25{fill:#DAD9D8;stroke:#D3D5D6;stroke-width:0.1465;stroke-miterlimit:10;}
	.st26{fill:#D8D8D6;stroke:#D3D5D6;stroke-width:0.1465;stroke-miterlimit:10;}
	.st27{fill:#EDEDEE;stroke:#D3D5D6;stroke-width:0.1465;stroke-miterlimit:10;}
	.st28{fill:#E4E3E1;stroke:#D3D5D6;stroke-width:0.1163;stroke-miterlimit:10;}
	.st29{fill:#CFCFCE;stroke:#D3D5D6;stroke-width:0.1163;stroke-miterlimit:10;}
	.st30{fill:#E2DCD7;stroke:#D3D5D6;stroke-width:0.1163;stroke-miterlimit:10;}
	.st31{fill:#FFFFFF;stroke:#D3D5D6;stroke-width:0.1163;stroke-miterlimit:10;}
	.st32{fill:#F4F3EE;stroke:#D3D5D6;stroke-width:0.1163;stroke-miterlimit:10;}
	.st33{fill:#DAD9D8;stroke:#D3D5D6;stroke-width:0.1163;stroke-miterlimit:10;}
	.st34{fill:#D8D8D6;stroke:#D3D5D6;stroke-width:0.1163;stroke-miterlimit:10;}
	.st35{fill:#EDEDEE;stroke:#D3D5D6;stroke-width:0.1163;stroke-miterlimit:10;}
</style>
<g>
	<path class="st0" d="M41.3,37.4c0,4.8-3.9,8.7-8.7,8.7c-4.8,0-8.7-3.9-8.7-8.7c0-4.8,3.9-8.7,8.7-8.7
		C37.4,28.7,41.3,32.6,41.3,37.4"/>
	<path class="st0" d="M48.9,29.3c0,4.8-3.9,8.7-8.7,8.7c-4.8,0-8.7-3.9-8.7-8.7c0-4.8,3.9-8.7,8.7-8.7C45,20.6,48.9,24.5,48.9,29.3"
		/>
	<path class="st0" d="M60,29.4c0,4.8-3.9,8.7-8.7,8.7c-4.8,0-8.7-3.9-8.7-8.7c0-4.8,3.9-8.7,8.7-8.7C56.1,20.6,60,24.5,60,29.4"/>
	<path class="st0" d="M72.6,33.2c0,4.8-3.9,8.7-8.7,8.7c-4.8,0-8.7-3.9-8.7-8.7c0-4.8,3.9-8.7,8.7-8.7
		C68.7,24.5,72.6,28.4,72.6,33.2"/>
	<path class="st0" d="M82.5,35c0,4.8-3.9,8.7-8.7,8.7c-4.8,0-8.7-3.9-8.7-8.7c0-4.8,3.9-8.7,8.7-8.7C78.6,26.3,82.5,30.2,82.5,35"/>
	<path class="st0" d="M90.9,54.6c0,4.8-3.9,8.7-8.7,8.7c-4.8,0-8.7-3.9-8.7-8.7c0-4.8,3.9-8.7,8.7-8.7C87,45.9,90.9,49.8,90.9,54.6"
		/>
	<path class="st0" d="M82.5,55.5c0,4.8-3.9,8.7-8.7,8.7c-4.8,0-8.7-3.9-8.7-8.7c0-4.8,3.9-8.7,8.7-8.7
		C78.6,46.8,82.5,50.7,82.5,55.5"/>
	<path class="st0" d="M89.3,64.5c0,4.8-3.9,8.7-8.7,8.7c-4.8,0-8.7-3.9-8.7-8.7c0-4.8,3.9-8.7,8.7-8.7
		C85.4,55.8,89.3,59.7,89.3,64.5"/>
	<path class="st0" d="M74.7,77.7c0,4.8-3.9,8.7-8.7,8.7c-4.8,0-8.7-3.9-8.7-8.7c0-4.8,3.9-8.7,8.7-8.7C70.8,69,74.7,72.9,74.7,77.7"
		/>
	<path class="st0" d="M59.9,79.3c0,4.8-3.9,8.7-8.7,8.7c-4.8,0-8.7-3.9-8.7-8.7c0-4.8,3.9-8.7,8.7-8.7C56,70.6,59.9,74.5,59.9,79.3"
		/>
	<path class="st0" d="M38.3,71.2c0,4.8-3.9,8.7-8.7,8.7c-4.8,0-8.7-3.9-8.7-8.7c0-4.8,3.9-8.7,8.7-8.7
		C34.4,62.5,38.3,66.4,38.3,71.2"/>
	<path class="st0" d="M35.1,59.2c0,4.8-3.9,8.7-8.7,8.7c-4.8,0-8.7-3.9-8.7-8.7c0-4.8,3.9-8.7,8.7-8.7
		C31.2,50.5,35.1,54.4,35.1,59.2"/>
	<path class="st0" d="M48.3,40.3c0,4.8-3.9,8.7-8.7,8.7c-4.8,0-8.7-3.9-8.7-8.7c0-4.8,3.9-8.7,8.7-8.7
		C44.4,31.6,48.3,35.5,48.3,40.3"/>
	<path class="st0" d="M62,43.2c0,4.8-3.9,8.7-8.7,8.7c-4.8,0-8.7-3.9-8.7-8.7c0-4.8,3.9-8.7,8.7-8.7C58.1,34.5,62,38.4,62,43.2"/>
	<path class="st0" d="M74.7,47.7c0,4.8-3.9,8.7-8.7,8.7c-4.8,0-8.7-3.9-8.7-8.7s3.9-8.7,8.7-8.7C70.8,38.9,74.7,42.8,74.7,47.7"/>
	<path class="st0" d="M74.7,59.2c0,4.8-3.9,8.7-8.7,8.7c-4.8,0-8.7-3.9-8.7-8.7c0-4.8,3.9-8.7,8.7-8.7
		C70.8,50.5,74.7,54.4,74.7,59.2"/>
	<path class="st0" d="M64.1,66.9c0,4.8-3.9,8.7-8.7,8.7c-4.8,0-8.7-3.9-8.7-8.7c0-4.8,3.9-8.7,8.7-8.7
		C60.2,58.2,64.1,62.1,64.1,66.9"/>
	<path class="st0" d="M49.2,66c0,4.8-3.9,8.7-8.7,8.7c-4.8,0-8.7-3.9-8.7-8.7c0-4.8,3.9-8.7,8.7-8.7C45.3,57.3,49.2,61.2,49.2,66"/>
	<path class="st0" d="M51.2,67.9c0,4.8-3.9,8.7-8.7,8.7c-4.8,0-8.7-3.9-8.7-8.7c0-4.8,3.9-8.7,8.7-8.7C47.3,59.1,51.2,63,51.2,67.9"
		/>
	<path class="st0" d="M46.9,54c0,4.8-3.9,8.7-8.7,8.7c-4.8,0-8.7-3.9-8.7-8.7c0-4.8,3.9-8.7,8.7-8.7C43,45.3,46.9,49.2,46.9,54"/>
	<path class="st1" d="M41.7,89c0.1,0,0.2-0.1,0.3-0.1c1.9-0.4,3.3-1.5,4.3-3.1c0.4-0.7,0.9-1.5,1.4-2.1c1.3-1.9,2.8-2.4,5-2
		c0.4,0.1,0.8,0.2,1.2,0.3c0.5-1.1,0.6-2.2,0.8-3.3c0.4,0.1,0.8,0.2,1.1,0.3c0.1,0,0.2,0.2,0.2,0.3c0.1,0.3,0.3,0.7,0.4,1
		c0.1,0.3,0.2,0.3,0.5,0.2c0.5-0.2,1.1-0.3,1.6-0.3c0.8-0.1,1.4,0.4,1.9,0.9c0.4,0.4,0.7,0.8,1,1.3c0.8,1,1.8,1.7,3,1.8
		c0,0,0.1,0,0.1,0c0,0,0,0.1,0,0.1c-1.8,1.4-3.8,2-6.1,1.4c-1.4-0.4-2.3-1.5-2.4-2.8c0-0.1,0-0.2,0-0.4c1.8,1.5,3.7,2.4,6,2.1
		c-2.9-0.2-5.1-1.5-6.6-4.1c-0.7,2.3-1.9,4.2-3.7,5.7c-1.8,1.5-3.8,2.4-6.1,2.8c1.8,0,3.5-0.5,5.1-1.3c1.6-0.8,2.9-2,3.9-3.6
		c0.2,1,0.2,1.9-0.1,2.9c-0.5,1.5-1.5,2.6-3,3.2c-1.1,0.5-2.3,0.8-3.5,0.8c-2.3,0-4.4-0.6-6.4-1.8C41.8,89.1,41.8,89.1,41.7,89"/>
	<path class="st2" d="M90.7,57.1c-0.6,0.6-1.2,1.2-1.8,1.8c-0.9,0.9-1.8,1.9-2.8,2.6c-1.3,0.9-3.4,1.5-4.9,1.3
		c0.1-0.6,0.1-1.3,0.3-1.9c0.4-1.9,1.5-3.3,3.2-4.3c1.6-1,3.4-1.6,5.3-1.8c1.4-0.2,2.8-0.2,4.2-0.4c0.1,0,0.3,0,0.4,0
		c0,0.1,0,0.1,0,0.1c-0.9,1-1.3,2.2-1.8,3.5c-0.5,1.3-0.9,2.7-1.5,4c-1.1,2.2-2.9,3.6-5.4,4c-1.3,0.2-2.5,0-3.6-0.6c0,0-0.1,0-0.1,0
		c-0.6-0.7-1.4-0.6-2.2-0.5c-0.6,0.1-0.8-0.1-0.8-0.8c0.5,0,1,0,1.5,0c3-0.1,5.5-1.2,7.5-3.6C89,59.3,89.9,58.2,90.7,57.1
		C90.7,57.1,90.7,57.1,90.7,57.1"/>
	<path class="st2" d="M67.6,22.4c-0.2,0.8-0.4,1.6-0.6,2.4c-0.3,1.3-0.5,2.5-1.1,3.7c-0.7,1.5-2.2,3.1-3.5,3.7
		c-0.3-0.6-0.6-1.1-0.8-1.7c-0.6-1.8-0.4-3.6,0.5-5.3c0.9-1.7,2.1-3.1,3.6-4.3c1.1-0.9,2.2-1.6,3.4-2.5c0.1-0.1,0.2-0.1,0.3-0.2
		c0,0.1,0.1,0.1,0.1,0.1c-0.3,1.3,0,2.6,0.3,3.9c0.3,1.4,0.6,2.8,0.8,4.2c0.2,2.5-0.6,4.6-2.5,6.2c-1,0.8-2.1,1.3-3.4,1.4
		c0,0-0.1,0-0.1,0c-0.9-0.3-1.5,0.2-2.2,0.7c-0.5,0.4-0.7,0.3-1.1-0.3c0.4-0.3,0.8-0.5,1.3-0.8c2.5-1.6,4.1-3.9,4.5-6.9
		C67.2,25.2,67.4,23.8,67.6,22.4C67.6,22.4,67.6,22.4,67.6,22.4"/>
	<path class="st1" d="M67.5,45.9c-0.6,0.6-1.2,1.2-1.8,1.8c-0.9,0.9-1.8,1.9-2.8,2.6c-1.3,0.9-3.4,1.5-4.9,1.3
		c0.1-0.6,0.1-1.3,0.3-1.9c0.4-1.9,1.5-3.3,3.2-4.3c1.6-1,3.4-1.6,5.3-1.8c1.4-0.2,2.8-0.2,4.2-0.4c0.1,0,0.3,0,0.4,0
		c0,0.1,0,0.1,0,0.1c-0.9,1-1.3,2.3-1.8,3.5c-0.5,1.3-0.9,2.7-1.5,4c-1.1,2.2-2.9,3.6-5.4,4c-1.3,0.2-2.5,0-3.6-0.6c0,0-0.1,0-0.1,0
		c-0.6-0.7-1.4-0.6-2.2-0.5c-0.6,0.1-0.8-0.1-0.8-0.8c0.5,0,1,0,1.5,0c3-0.1,5.5-1.2,7.5-3.6C65.8,48.2,66.7,47.1,67.5,45.9
		C67.6,46,67.5,46,67.5,45.9"/>
	<path class="st3" d="M41.4,40.1c0.7,0.5,1.4,0.9,2.1,1.4c1.1,0.7,2.2,1.3,3.1,2.2c1.1,1.1,2.2,3.1,2.3,4.5
		c-0.6,0.1-1.3,0.2-1.9,0.2c-1.9,0-3.6-0.8-4.9-2.2c-1.3-1.4-2.3-3-2.9-4.8c-0.5-1.3-0.8-2.7-1.2-4c0-0.1-0.1-0.3-0.1-0.4
		c0.1,0,0.1,0,0.1,0c1.2,0.7,2.5,0.8,3.8,1c1.4,0.2,2.9,0.3,4.2,0.7c2.4,0.6,4.2,2,5,4.4c0.4,1.2,0.6,2.4,0.2,3.7c0,0,0,0.1,0,0.1
		c-0.6,0.7-0.3,1.5-0.1,2.3c0.2,0.6,0,0.8-0.6,0.9c-0.1-0.5-0.2-1-0.3-1.4c-0.7-2.9-2.4-5.2-5-6.6C44,41.3,42.7,40.7,41.4,40.1
		L41.4,40.1z"/>
	<path class="st4" d="M74,54.2c-0.6,0.6-1.2,1.2-1.8,1.8c-0.9,0.9-1.8,1.9-2.8,2.6c-1.3,0.9-3.4,1.5-4.9,1.3
		c0.1-0.6,0.1-1.3,0.3-1.9c0.4-1.9,1.5-3.3,3.2-4.3c1.6-1,3.4-1.6,5.3-1.8c1.4-0.2,2.8-0.2,4.2-0.4c0.1,0,0.3,0,0.4,0
		c0,0.1,0,0.1,0,0.1c-0.9,1-1.3,2.3-1.8,3.5c-0.5,1.3-0.9,2.7-1.5,4c-1.1,2.2-2.9,3.6-5.4,4c-1.3,0.2-2.5,0-3.6-0.6c0,0-0.1,0-0.1,0
		c-0.6-0.7-1.4-0.6-2.2-0.5c-0.6,0.1-0.8-0.1-0.8-0.8c0.5,0,1,0,1.5,0c3-0.1,5.5-1.2,7.5-3.6C72.2,56.4,73.1,55.3,74,54.2
		C74,54.2,74,54.2,74,54.2"/>
	<path class="st5" d="M34.5,28.2c0.7,0.5,1.4,1,2.1,1.4c1.1,0.7,2.2,1.4,3.1,2.3c1.1,1.2,2.1,3.1,2.2,4.6c-0.6,0-1.3,0.1-1.9,0.1
		c-1.9,0-3.5-0.9-4.8-2.3c-1.3-1.4-2.2-3.1-2.8-4.9c-0.4-1.3-0.8-2.7-1.1-4c0-0.1-0.1-0.3-0.1-0.4c0.1,0,0.1,0,0.1,0
		c1.1,0.7,2.5,0.9,3.8,1.1c1.4,0.2,2.8,0.4,4.2,0.8c2.4,0.6,4.1,2.1,4.9,4.5c0.4,1.2,0.5,2.4,0.1,3.7c0,0,0,0.1,0,0.1
		c-0.6,0.7-0.3,1.5-0.1,2.3c0.2,0.6,0,0.8-0.7,0.9c-0.1-0.5-0.2-1-0.3-1.4c-0.6-2.9-2.2-5.2-4.9-6.7C37,29.4,35.8,28.8,34.5,28.2
		C34.5,28.1,34.5,28.1,34.5,28.2"/>
	<path class="st6" d="M32.4,59.5c0.7,0.5,1.4,1,2.1,1.4c1.1,0.7,2.2,1.4,3.1,2.3c1.1,1.2,2.1,3.1,2.2,4.6c-0.6,0-1.3,0.1-1.9,0.1
		c-1.9,0-3.5-0.9-4.8-2.3c-1.3-1.4-2.2-3.1-2.8-4.9c-0.4-1.3-0.8-2.7-1.1-4c0-0.1-0.1-0.3-0.1-0.4c0.1,0,0.1,0,0.1,0
		c1.1,0.7,2.5,0.9,3.8,1.1c1.4,0.2,2.8,0.4,4.2,0.8c2.4,0.7,4.1,2.1,4.9,4.5c0.4,1.2,0.5,2.4,0.1,3.7c0,0,0,0.1,0,0.1
		c-0.6,0.7-0.3,1.5-0.1,2.3c0.2,0.6,0,0.8-0.7,0.9c-0.1-0.5-0.2-1-0.3-1.4c-0.6-2.9-2.2-5.2-4.9-6.7C34.9,60.8,33.7,60.1,32.4,59.5
		C32.5,59.5,32.5,59.5,32.4,59.5"/>
	<path class="st1" d="M73.2,59.7c0.7,0.5,1.4,1,2.1,1.4c1.1,0.7,2.2,1.4,3.1,2.3c1.1,1.2,2.1,3.1,2.2,4.6c-0.6,0-1.3,0.1-1.9,0.1
		c-1.9,0-3.5-0.9-4.8-2.3c-1.3-1.4-2.2-3.1-2.8-4.9c-0.4-1.3-0.8-2.7-1.1-4c0-0.1-0.1-0.3-0.1-0.4c0.1,0,0.1,0,0.1,0
		c1.2,0.7,2.5,0.9,3.8,1.1c1.4,0.2,2.8,0.4,4.2,0.8c2.4,0.7,4.1,2.1,4.9,4.5c0.4,1.2,0.5,2.4,0.1,3.7c0,0,0,0.1,0,0.1
		c-0.6,0.7-0.3,1.5-0.1,2.3c0.2,0.6,0,0.8-0.7,0.9c-0.1-0.5-0.2-1-0.3-1.4c-0.6-2.9-2.2-5.2-4.9-6.7C75.7,61,74.5,60.3,73.2,59.7
		L73.2,59.7z"/>
	<path class="st1" d="M83.6,26.7c-0.1,0-0.2,0.1-0.4,0.1c-2.1,1-3.8,2.4-5.4,4.1c-0.4,0.4-0.7,0.8-1,1.2c-0.7,0.8-2,0.7-2.5-0.3
		c-0.4-0.7-0.3-1.4,0-2.1c0.5-1,1.2-1.7,2.1-2.3c2.5-1.8,5.4-2.5,8.5-2.4c0.3,0,0.5,0.1,0.5,0.5c0.1,3.5-0.9,6.6-3.2,9.3
		c-0.4,0.5-1,0.9-1.6,1.2c-1.2,0.6-2.2,0.3-3-0.7c0,0-0.1-0.1-0.1-0.2c-0.3,0.6-0.6,1.1-0.9,1.6c-0.3,0.5-0.3,0.5-0.8,0.3
		c-0.2,0-0.4-0.1-0.6-0.2C77.4,32.9,79.9,29.3,83.6,26.7C83.6,26.8,83.6,26.7,83.6,26.7"/>
	<path class="st1" d="M42.3,17.6c0.2,0.3,0.5,0.5,0.7,0.8c2.8,3.2,5,6.7,6.6,10.7c0.1,0.2,0.2,0.4,0.2,0.6c0.1,0.2,0,0.4-0.2,0.3
		c0,0,0,0,0,0c-1-0.1-1-0.1-1.2-1c-0.1-0.3-0.2-0.6-0.3-0.9c-0.5,0-1,0.1-1.5,0.1c-1.2-0.1-2.1-0.9-2.9-1.8c-1.2-1.4-2-3.1-2.6-4.9
		c-0.7-2.2-1.2-4.4-1.2-6.7c0-0.1,0-0.3,0-0.5c0.2,0.1,0.4,0.1,0.5,0.2c3.3,1.6,6.1,3.7,8.3,6.6c0.8,1,1.3,2.1,1.4,3.4
		c0.1,0.7-0.2,1.6-0.6,2.1C47.6,23.2,45.3,20.1,42.3,17.6C42.4,17.5,42.4,17.6,42.3,17.6"/>
	<path class="st1" d="M35.3,33.2c-1.8-1.6-3.8-2.3-6.1-2.3c-2,0-3.8,0.6-5.5,1.7c0.1,0,0.3-0.1,0.4-0.1c1.9-0.8,3.8-1.2,5.8-1
		c3.4,0.4,5.6,2.3,6.7,5.5c0,0.1,0,0.1,0.1,0.2c0,0,0,0.1,0,0.2c-0.4-0.1-0.7-0.1-1.1-0.2c-0.1,0-0.2-0.2-0.2-0.3
		c-0.2-0.4-0.3-0.8-0.4-1.1c-0.1-0.2-0.2-0.2-0.4-0.2c-1.2,0.1-2.4,0.3-3.5,0.4c-1.4,0.1-2.8-0.4-4.2-0.8c-0.8-0.2-1.5-0.4-2.3-0.6
		c-1.3-0.3-2.6,0-3.8,0.7c-0.1,0.1-0.2,0.1-0.3,0.2c0,0,0,0-0.1,0c0.2-0.5,0.4-0.9,0.6-1.3c0.8-1.7,1.9-3.3,3.5-4.3
		c1.8-1.1,3.7-1.3,5.7-0.9c1.6,0.4,3,1.2,4.1,2.4c0.5,0.5,0.8,1.2,1.2,1.7C35.3,33,35.3,33.1,35.3,33.2"/>
	<path class="st2" d="M15.2,62.2c2.4-1.2,4.9-1.7,7.5-1.7c1.5,0,2.9,0.2,4.3,0.6c-0.3,2-1.6,3.8-3.7,4.3c-1.8,0.4-3.5,0.2-5.3-0.3
		c-1.3-0.4-2.7-0.8-4.1-0.8c-0.6,0-1.3,0-2,0c0.2-0.3,0.3-0.6,0.5-0.9c1.2-2,2.6-3.9,4.4-5.5c1.4-1.1,2.9-2,4.7-2
		c2.6-0.1,4.7,1.8,5.3,3.9C22.8,59.3,18.8,59.8,15.2,62.2"/>
	<path class="st2" d="M27.3,69.8c0.1-0.3,0.3-0.5,0.4-0.8c0.8-1.6,1.1-3.3,0.3-5.1c0,0,0-0.1-0.1-0.1c-0.4-0.5-0.4-0.9-0.1-1.5
		c0.2-0.6,0.3-1.3,0.4-1.9c0.1,0,0.2,0.1,0.4,0.2c1,0.6,1.9,1.4,2.4,2.5c0.9,2,0.7,3.9-0.6,5.7c-1.2,1.7-3,2.7-4.9,3.6
		c0.5-2.3-0.8-4.1-1.4-6.1c1.2-0.4,2.1-1.1,2.9-2.1c0.7,0.8,1,1.7,1,2.7C27.9,67.9,27.6,68.8,27.3,69.8
		C27.3,69.7,27.3,69.8,27.3,69.8"/>
	<path class="st2" d="M23.9,49.7c2.4-1.2,4.9-1.7,7.5-1.7c1.5,0,2.9,0.2,4.3,0.6c-0.3,2-1.6,3.8-3.7,4.3c-1.8,0.4-3.5,0.2-5.3-0.3
		c-1.3-0.4-2.7-0.8-4.1-0.8c-0.6,0-1.3,0-2,0c0.2-0.3,0.3-0.6,0.5-0.9c1.2-2,2.6-3.9,4.4-5.5c1.4-1.1,2.9-2,4.7-2
		c2.6-0.1,4.7,1.8,5.3,3.9C31.5,46.8,27.5,47.3,23.9,49.7"/>
	<path class="st2" d="M36,57.3c0.2-0.3,0.3-0.5,0.4-0.8c0.8-1.6,1.1-3.3,0.3-5.1c0,0,0-0.1-0.1-0.1c-0.4-0.5-0.4-0.9-0.1-1.5
		c0.2-0.6,0.3-1.3,0.4-1.9c0.1,0,0.2,0.1,0.4,0.2c1,0.6,1.9,1.4,2.4,2.5c0.9,2,0.7,3.9-0.6,5.7c-1.2,1.7-3,2.7-4.9,3.6
		c0.5-2.3-0.8-4.1-1.4-6.1c1.2-0.4,2.1-1.1,2.9-2.1c0.7,0.8,1,1.7,1,2.7C36.6,55.4,36.3,56.3,36,57.3C35.9,57.2,36,57.3,36,57.3"/>
	<path class="st2" d="M40.9,58.4c2.4-1.2,4.9-1.7,7.5-1.7c1.5,0,2.9,0.2,4.3,0.6c-0.3,2-1.6,3.8-3.7,4.3c-1.8,0.4-3.5,0.2-5.3-0.3
		c-1.3-0.4-2.7-0.8-4.1-0.8c-0.6,0-1.3,0-2,0c0.2-0.3,0.3-0.6,0.5-0.9c1.2-2,2.6-3.9,4.4-5.5c1.4-1.1,2.9-2,4.7-2
		c2.6-0.1,4.7,1.8,5.3,3.9C48.5,55.4,44.5,56,40.9,58.4"/>
	<path class="st2" d="M53,65.9c0.1-0.3,0.3-0.5,0.4-0.8c0.8-1.6,1.1-3.3,0.3-5.1c0,0,0-0.1-0.1-0.1c-0.4-0.5-0.4-0.9-0.1-1.5
		c0.2-0.6,0.3-1.3,0.4-1.9c0.1,0,0.2,0.1,0.4,0.2c1,0.6,1.9,1.4,2.4,2.5c0.9,2,0.7,3.9-0.6,5.7c-1.2,1.7-3,2.7-4.9,3.6
		c0.5-2.3-0.8-4.1-1.4-6.1c1.2-0.4,2.2-1.1,2.9-2.1c0.7,0.8,1,1.7,1,2.7C53.6,64.1,53.3,65,53,65.9C53,65.9,53,65.9,53,65.9"/>
	<path class="st2" d="M45.8,54.5c2.4-1.2,4.9-1.7,7.5-1.7c1.5,0,2.9,0.2,4.3,0.6c-0.3,2-1.6,3.8-3.7,4.3c-1.8,0.4-3.5,0.2-5.3-0.3
		c-1.3-0.4-2.7-0.8-4.1-0.8c-0.6,0-1.3,0-2,0c0.2-0.3,0.3-0.6,0.5-0.9c1.2-2,2.6-3.9,4.4-5.5c1.4-1.1,2.9-2,4.7-2
		c2.6-0.1,4.7,1.8,5.3,3.9C53.4,51.5,49.4,52.1,45.8,54.5"/>
	<path class="st2" d="M57.9,62c0.2-0.3,0.3-0.5,0.4-0.8c0.8-1.6,1.1-3.3,0.3-5.1c0,0,0-0.1-0.1-0.1c-0.4-0.5-0.4-0.9-0.1-1.5
		c0.2-0.6,0.3-1.3,0.4-1.9c0.1,0,0.2,0.1,0.4,0.2c1,0.6,1.9,1.4,2.4,2.5c0.9,2,0.7,3.9-0.6,5.7c-1.2,1.7-3,2.7-4.9,3.6
		c0.5-2.3-0.8-4.1-1.4-6.1c1.2-0.4,2.2-1.1,2.9-2.1c0.7,0.8,1,1.7,1,2.7C58.5,60.2,58.2,61.1,57.9,62C57.9,62,57.9,62,57.9,62"/>
	<path class="st2" d="M51.8,55.1c2.4-1.2,4.9-1.7,7.5-1.7c1.5,0,2.9,0.2,4.3,0.6c-0.3,2-1.6,3.8-3.7,4.3c-1.8,0.4-3.5,0.2-5.3-0.3
		c-1.3-0.4-2.7-0.8-4.1-0.8c-0.6,0-1.3,0-2,0c0.2-0.3,0.3-0.6,0.5-0.9c1.2-2,2.6-3.9,4.4-5.5c1.4-1.1,2.9-2,4.7-2
		c2.6-0.1,4.7,1.8,5.3,3.9C59.4,52.1,55.4,52.6,51.8,55.1"/>
	<path class="st2" d="M63.9,62.6c0.1-0.3,0.3-0.5,0.4-0.8c0.8-1.6,1.1-3.3,0.3-5.1c0,0,0-0.1-0.1-0.1c-0.4-0.5-0.4-0.9-0.1-1.5
		c0.2-0.6,0.3-1.3,0.4-1.9c0.1,0,0.2,0.1,0.4,0.2c1,0.6,1.9,1.4,2.4,2.5c0.9,2,0.7,3.9-0.6,5.7c-1.2,1.7-3,2.7-4.9,3.6
		c0.5-2.3-0.8-4.1-1.4-6.1c1.2-0.4,2.1-1.1,2.9-2.1c0.7,0.8,1,1.7,1,2.7C64.5,60.7,64.2,61.7,63.9,62.6
		C63.8,62.6,63.9,62.6,63.9,62.6"/>
	<path class="st2" d="M50.7,57.8c2.4-1.2,4.9-1.7,7.5-1.7c1.5,0,2.9,0.2,4.3,0.6c-0.3,2-1.6,3.8-3.7,4.3c-1.8,0.4-3.5,0.2-5.3-0.3
		c-1.3-0.4-2.7-0.8-4.1-0.8c-0.6,0-1.3,0-2,0c0.2-0.3,0.3-0.6,0.5-0.9c1.2-2,2.6-3.9,4.4-5.5c1.4-1.1,2.9-2,4.7-2
		c2.6-0.1,4.7,1.8,5.3,3.9C58.2,54.8,54.3,55.4,50.7,57.8"/>
	<path class="st2" d="M62.8,65.3c0.2-0.3,0.3-0.5,0.4-0.8c0.8-1.6,1.1-3.3,0.3-5.1c0,0,0-0.1-0.1-0.1c-0.4-0.5-0.4-0.9-0.1-1.5
		c0.2-0.6,0.3-1.3,0.4-1.9c0.1,0,0.2,0.1,0.4,0.2c1,0.6,1.9,1.4,2.4,2.5c0.9,2,0.7,3.9-0.6,5.7c-1.2,1.7-3,2.7-4.9,3.6
		c0.5-2.3-0.8-4.1-1.4-6.1c1.2-0.4,2.1-1.1,2.9-2.1c0.7,0.8,1,1.7,1,2.7C63.3,63.5,63.1,64.4,62.8,65.3
		C62.7,65.3,62.7,65.3,62.8,65.3"/>
	<path class="st2" d="M40.9,51.3c2.4-1.2,4.9-1.7,7.5-1.7c1.5,0,2.9,0.2,4.3,0.6c-0.3,2-1.6,3.8-3.7,4.3c-1.8,0.4-3.5,0.2-5.3-0.3
		c-1.3-0.4-2.7-0.8-4.1-0.8c-0.6,0-1.3,0-2,0c0.2-0.3,0.3-0.6,0.5-0.9c1.2-2,2.6-3.9,4.4-5.5c1.4-1.1,2.9-2,4.7-2
		c2.6-0.1,4.7,1.8,5.3,3.9C48.5,48.3,44.5,48.8,40.9,51.3"/>
	<path class="st2" d="M53,58.8c0.1-0.3,0.3-0.5,0.4-0.8c0.8-1.6,1.1-3.3,0.3-5.1c0,0,0-0.1-0.1-0.1c-0.4-0.5-0.4-0.9-0.1-1.5
		c0.2-0.6,0.3-1.3,0.4-1.9c0.1,0,0.2,0.1,0.4,0.2c1,0.6,1.9,1.4,2.4,2.5c0.9,2,0.7,3.9-0.6,5.7c-1.2,1.7-3,2.7-4.9,3.6
		c0.5-2.3-0.8-4.1-1.4-6.1c1.2-0.4,2.2-1.1,2.9-2.1c0.7,0.8,1,1.7,1,2.7C53.6,56.9,53.3,57.9,53,58.8C53,58.8,53,58.8,53,58.8"/>
	<path class="st1" d="M66.3,85.3c1-2.5,2.6-4.5,4.6-6.2c1.1-1,2.4-1.8,3.7-2.4c1.1,1.7,1.3,3.9,0,5.7c-1.1,1.5-2.5,2.5-4.1,3.2
		c-1.3,0.6-2.5,1.2-3.6,2c-0.5,0.4-0.9,0.8-1.5,1.3c-0.1-0.3-0.2-0.6-0.2-1c-0.4-2.3-0.6-4.7-0.2-7c0.3-1.7,0.9-3.4,2.2-4.6
		c1.9-1.8,4.8-1.7,6.6-0.5C70.1,78.1,67.4,81.1,66.3,85.3"/>
	<path class="st1" d="M80.4,83.1c-0.1-0.3-0.1-0.6-0.2-0.9c-0.4-1.8-1.3-3.2-3.1-4c0,0-0.1-0.1-0.1-0.1c-0.6-0.1-0.9-0.5-1.1-1
		c-0.2-0.6-0.6-1.2-0.9-1.8c0.1,0,0.2-0.1,0.4-0.1c1.2-0.2,2.4-0.1,3.4,0.4c2,0.9,3.1,2.5,3.2,4.7c0.2,2.1-0.5,4-1.4,6
		c-1.1-2-3.2-2.6-5-3.7c0.6-1.1,0.9-2.2,0.8-3.5c1.1,0.2,1.9,0.7,2.5,1.4C79.6,81.3,80,82.2,80.4,83.1
		C80.3,83.1,80.4,83.1,80.4,83.1"/>
	<path class="st3" d="M70.5,36c-1.4,2.2-3.4,4-5.7,5.3c-1.3,0.7-2.6,1.3-4.1,1.6c-0.8-1.9-0.5-4.1,1.1-5.6c1.3-1.3,2.9-2,4.7-2.4
		c1.4-0.3,2.7-0.7,4-1.3c0.6-0.3,1.1-0.6,1.7-1c0,0.3,0,0.7,0,1c0,2.4-0.3,4.7-1.1,7c-0.6,1.7-1.5,3.1-3,4.1c-2.2,1.4-5,0.8-6.6-0.7
		C65.4,42.4,68.6,40,70.5,36"/>
	<path class="st3" d="M56.2,35.6c0,0.3,0,0.6,0,0.9c0.1,1.8,0.7,3.4,2.3,4.5c0,0,0.1,0.1,0.1,0.1c0.6,0.2,0.8,0.6,0.9,1.2
		c0.1,0.6,0.4,1.2,0.6,1.9c-0.1,0-0.3,0-0.4,0c-1.2,0-2.3-0.3-3.3-1c-1.8-1.3-2.5-3-2.3-5.2c0.2-2.1,1.2-3.9,2.5-5.6
		c0.7,2.2,2.7,3.1,4.3,4.5c-0.8,1-1.3,2-1.4,3.3c-1-0.4-1.7-1-2.2-1.9C56.7,37.5,56.5,36.6,56.2,35.6C56.3,35.6,56.3,35.6,56.2,35.6
		"/>
	<path class="st7" d="M53,78.2c0-2.7,0.7-5.1,2-7.5c0.7-1.3,1.5-2.5,2.6-3.6c1.7,1.2,2.6,3.2,2.1,5.3c-0.4,1.8-1.4,3.2-2.7,4.5
		c-1,1-1.9,2-2.6,3.2c-0.3,0.5-0.6,1.1-0.9,1.7c-0.2-0.3-0.4-0.5-0.5-0.8c-1.2-2-2.3-4.1-2.8-6.5c-0.4-1.7-0.4-3.5,0.4-5.1
		c1.1-2.4,3.8-3.4,6-2.9C53.9,70.1,52.5,73.9,53,78.2"/>
	<path class="st7" d="M65.3,70.9c-0.2-0.2-0.3-0.5-0.5-0.7c-1.1-1.5-2.4-2.5-4.4-2.6c-0.1,0-0.1,0-0.2,0c-0.6,0.2-1-0.1-1.4-0.6
		c-0.4-0.5-1-0.9-1.5-1.3c0.1-0.1,0.2-0.2,0.3-0.2c1-0.6,2.1-1,3.3-0.9c2.2,0.1,3.8,1.2,4.7,3.2c0.9,1.9,1,3.9,0.9,6.1
		c-1.8-1.5-4-1.2-6-1.6c0.2-1.2,0-2.4-0.6-3.6c1.1-0.2,2-0.1,2.9,0.4C63.9,69.6,64.6,70.2,65.3,70.9C65.2,71,65.3,71,65.3,70.9"/>
	<path class="st8" d="M38,26.5c-0.4-0.5-2.5-2.6-3.6-2.9c-1.1-0.3-2.5-0.4-3-0.6c-0.6-0.2-1.3-0.3-1.9,0.4c-0.6,0.6-1.9,1.3-2.4,2
		c-0.5,0.6-0.9,3.9-0.9,5.1c0,1.2-1.5,2.8,0.9,2.5s3.8-0.4,4.7-1.1c0.9-0.6,2.1-0.8,3.1-1.5c1-0.7,1.2-0.4,1.9-1.3
		C37.6,28.1,38,26.5,38,26.5z"/>
	<path class="st9" d="M32.4,30.3c-0.6-1.1-2.3-3.2-3.8-4.1s-1.4-1.4-2.8-1.4s-2.4,0.1-3,0.9c-0.6,0.8-2.9,3.4-3.7,4.7
		c-0.9,1.3-1.3,3-1.3,4c0.1,1.1,0.6,2.3,0.6,2.8c0.1,0.5,0.1,2,1.8,1.4c1.8-0.6,4.5-2.2,5.5-2.7c1-0.5,2.5-1.1,3.3-1.7
		c0.8-0.6,2.1-2.1,2.3-2.4C31.6,31.4,32.4,30.3,32.4,30.3z"/>
	<path class="st10" d="M31.3,32.9c0.1-1.2-0.9-2.7,0.6-3.4c1.5-0.7,1.5-1.4,2.6-2s1.9-1.3,3.6-1.7c1.6-0.4,3.5-0.8,4.3,0
		c0.8,0.8,1.3,0.8,1.4,1.5c0.1,0.7,0.2,1.3,0,2.2c-0.2,0.9-0.6,2.8-1.5,4c-0.9,1.2-1.3,2.5-3.2,2.6s-4.5,1-5.4,0
		C32.9,35.2,31.3,32.9,31.3,32.9z"/>
	<path class="st11" d="M22.8,60.1c0,0-2.3,3.6-2.4,4c-0.1,0.4-0.6,3.8,0,4.3s5.2,3.2,6.6,3.1s3.9,0.7,5,0.9c1.1,0.2,5.4-1.3,5.6-1.8
		c0.2-0.6,0.7-1.8,0.5-2.3c-0.1-0.6-1.2-0.7,0.3-0.9s1.4,0.3,2.8,0.8c1.4,0.5,4.2,0,5.3-1.2c1.1-1.2,0.8-5.3,0.6-6.4
		s-2.5-2.7-3.1-3.7c-0.6-1-2.8-3.1-3.7-3.1c-0.9-0.1-2.2-0.9-3.8,0c-1.6,0.9-2.6,2.8-4.1,3.1c-1.4,0.3-2,0.3-3.8,0.7
		c-1.7,0.4-2.1,0.2-2.8,0.7S22.8,60.1,22.8,60.1z"/>
	<path class="st12" d="M41.2,55.8c0,0-0.4,1.2,0,2.4c0.4,1.2,0.9,2.1,1.8,2.3s3.2,0.1,4,0s2.1,0.6,3.3,0.1c1.2-0.4,2.7-1.5,3.3-2
		c0.6-0.5,0.2-0.1,2.8,0c2.6,0.1,3.4-0.4,4.6-1.6c1.2-1.2,2.7-2.8,2.9-4.3c0.2-1.5,1.1-5.5,0-6.6c-1.1-1.1-3.5-2.3-4.3-3
		s-2-0.6-2.3-0.9c-0.4-0.3-0.4-0.9-1.7-0.6c-1.3,0.2-3,0.7-3.5,1.3c-0.5,0.6-3.1,2.4-3.5,3c-0.5,0.6-2.2,2.2-2.7,2.9
		c-0.5,0.7-1.4,1.3-1.9,2.4s-0.8,1.5-1.1,2.1C42.5,53.9,41.2,55.8,41.2,55.8z"/>
	<path class="st13" d="M48.8,35c0.4-0.4,1.6-0.9,2.3-0.6s2.6,1.5,3,1.7c0.4,0.2,0.9,0.3,1.1,1.1c0.2,0.8-1.3,7.1-2.5,8.6
		c-1.2,1.5-3.3,4-3.9,4.7c-0.6,0.7-1.9,0.9-2.2,0.8c-0.3-0.1,0.2-3.5,0.4-5.5c0.1-2.1,0.6-5.5,0.7-6.5C47.8,38.2,48.8,35,48.8,35z"
		/>
	<path class="st14" d="M17.8,39.7c-0.8,0.1-2.5,1.6-2.8,3.1s0.5,2.8-0.9,4.1s-2.3,2.6-2,3.5s1.6,4.4,2.8,5.7s5.7,4.7,6.6,4.6
		s6.7,0.8,7.7,0.8s3.8,0.6,3.6-0.5s-5.9-4.1-6.6-5c-0.7-0.9-3.4-6.5-3.7-7.7c-0.3-1.2-1.2-4.1-1.9-5C19.9,42.5,17.8,39.7,17.8,39.7z
		"/>
	<path class="st15" d="M35.6,43.5c0.2-1.3,2.4-8.1,1.4-9.5c-1-1.4-1.1-2.4-2.1-2.3c-1,0.1-1.5,0.5-2.4-0.7c-0.9-1.2-0.4-1.4-2.5-1.4
		c-2.1,0-5.9,0.9-7.1,2.1c-1.2,1.2-3.1,3.6-4.1,4.8c-1,1.2-1.4,1.8-1.7,2.8s-0.6,3.3-0.3,4.2c0.3,0.9,0,1.9-0.1,2.6s1.2,3.3,1.2,3.5
		c0,0.2,1.2,2,0.8,3.3c-0.4,1.3-2.3,2.6-2,3.5c0.3,0.9,3,2.3,3.5,2.3c0.4,0.1,2.1,0.9,2.4,1.1c0.3,0.2,1.9,0.3,3.3,0.9
		c1.4,0.6,6.2,0.4,7.1,0.3c0.9-0.1,3.5,0.4,4.4-0.3c0.9-0.7,2.7-1.3,2.2-1.9c-0.5-0.6-1.6-1.1-1.9-2c-0.3-0.9-0.8-1.9-1.6-3.5
		s-2.2-1-1.6-2.9S35.6,43.5,35.6,43.5z"/>
	<path class="st8" d="M36.3,45.4c0.1-0.1-1.1-7.3-0.5-8.8c0.6-1.5,0-4.2,1.7-4.9c1.8-0.7,4.6-1.2,5.4-1.7c0.9-0.5,0.8-1,2.1-0.4
		s2.1,1.2,2.8,2.1c0.6,0.9,1.6,1.6,2.2,3.1c0.6,1.4,1.1,2.1,1,3.3c-0.2,1.2-0.6,1.6-0.5,2.4c0.1,0.8-0.5,3.3-0.3,4.2
		s-0.4,3.7-0.7,4.2c-0.3,0.5-1.3,1.6-2.2,2.4c-0.9,0.8-2.1,2.6-2.7,3.1s-3.8,2.1-4.8,2.4s-3.2,0.9-4.2,1c-1,0.1-1.3,0.5-1.9,0
		c-0.7-0.5-2.1-1.3-1.8-1.3c0.3,0,2.5,0.7,4.6,0.1c2.1-0.6,3.8-2,4.9-2.8c1-0.9,2.3-1.1,2.1-1.7c-0.2-0.6-0.6-1.3-0.8-2.4
		s-1.1-4.5-2-4.6c-0.9-0.1-1.4,0.1-2.2,0.4S36.3,45.4,36.3,45.4z"/>
	<path class="st13" d="M45.8,54.5c0.5-0.2,2.4-1.3,4.3-1.6c1.8-0.3,3.7-0.9,5.3,0c1.6,0.9,3.5,2.1,4.2,2.3c0.7,0.2,1,0.6,1.3,0
		c0.3-0.6,0.4-1.1-0.6-1.8c-1.1-0.7-2.9-1.4-2.4-2c0.5-0.6,0.5-1.4,0.4-2.4c-0.1-1-0.1-2.1-1-2.7c-0.9-0.6-1.9-1.2-2.3-1.3
		s-0.9,0.2-1.5,0.6s-3.8,4.5-4.5,5c-0.7,0.5-2,1.2-2.3,1.6c-0.3,0.4-1,1.2-1.1,1.3C45.4,53.5,45.8,54.5,45.8,54.5z"/>
	<path class="st16" d="M25.8,62.3c-0.3,0.4-1.9,2.2-2.6,3.7c-0.7,1.5-0.9,2.8,0.5,2.9c1.3,0.1,2.2,0.8,3.3,1.1
		c1.1,0.4,4.2,0.9,5.4,0.9s3.6-0.4,3.7-1.7c0.1-1.3,1-2.9,1.4-3.6c0.3-0.7,0.5-2.6,1.2-2.7c0.7,0-0.2,1,0.8,2.3c1,1.3,2.9,2.9,4,2.1
		c1.1-0.8,3.7-1.7,3.1-3.3c-0.6-1.6-0.9-1.8-2.6-2.5s-3.2-2-3.4-2.8c-0.2-0.8-0.8-1.2-0.7,0c0.1,1.2-1.9,1.6-3.5,2.5
		c-1.6,0.9-2.4,1.8-4.3,1.7s-2.2-0.2-3.3-0.4C27.6,62.3,25.8,62.3,25.8,62.3z"/>
	<path class="st11" d="M46.5,32.9c-0.2,0.4-2,3.4-2.3,4.2c-0.4,0.9-1.7,2.9-1.4,2c0.3-0.9,1.5-5,0.7-4.1c-0.8,0.9-1.5,2.7-2.1,2.3
		s-0.9-1.5-1.2-2.3s-0.8-0.7-1.4-0.7c-0.6,0.1-1.7-0.2-2.3,0.8c-0.5,0.9,0.1,3.2,0,4.3c-0.1,1.1-0.7,3.3-0.2,4s1.6,1.5,2.8,2
		c1.1,0.5,2.8,3.8,2.9,4.3s0.1,1.8,1.1,1c1-0.8,2.3-1.5,2.4-2.3s0.9-2.3,0.7-2.7c-0.2-0.4-1.2,0.3-1.6,0.1c-0.4-0.1-0.1-1.4,0.3-2.1
		s0.9-1.6,1.8-2.5c0.9-0.9,2.1-1.8,0.7-1.6c-1.4,0.3-1.7,0.1-1.4-0.7c0.4-0.9,2.6-2.5,2.8-3.5c0.1-1,0.5-2,0.3-2.3
		c-0.2-0.3-1.7-0.9-1.7-0.9C47.3,32.3,46.5,32.9,46.5,32.9z"/>
	<path class="st8" d="M21.9,34.7c0.1,0.1,0.2,0.3,0.4,0.5c0.7,1,1.9,3.1,2.3,3.4c0.5,0.4,1.3,1.9,1.3,2.3c0,0.4-0.9,0.2-1.4-0.4
		c-0.6-0.6-1-1.3-2-1.9c-1-0.6-1.4,0-1.9-0.7s-0.8-0.6,0-1.3C21.4,35.9,21.9,34.7,21.9,34.7z"/>
	<path class="st11" d="M32.1,54.5c-0.2,0.1-2.4,1.7-3.1,2.2c-0.7,0.5-2.6-0.2-3.2-1.1c-0.6-0.9-3.8-5.7-2.8-9.1c1-3.4,2-5.4,3-5.6
		c1-0.2,2-0.2,3.3,1.1c1.3,1.3,1.3,1.8,1.9,2.7s1.3,1.1,2,2.5c0.6,1.4,1.7,1.8,1.2,3.2s-0.8,2-1.1,2.7C33,53.8,32.1,54.5,32.1,54.5z
		"/>
	<path class="st17" d="M34.5,44.8c-0.2-0.5-0.4-0.8-0.8-1.1c-0.4-0.3-0.7,0.1-0.8,0.1s0.1,0-0.4-0.1c-0.5-0.1-1.1,0.3-1,0.4
		c0,0.2,0.6,0.7,0,0.7s-0.9-0.5-1.1,0c-0.1,0.5,0,0.8,0,1c0,0.1,0.6,0.2,0.9,0.4c0.4,0.1,0.9,0.3,0.4,0.4c-0.5,0.1-0.7,0-1.2,0
		c-0.5,0-1-0.2-0.9,0.3s0,0.8,0.7,0.7c0.6-0.1,1.9,0,1.3,0.3c-0.7,0.3-0.8,0.7-1.1,0.6s-0.7-0.3-0.9-0.6c-0.2-0.2-0.7-0.4-0.5,0
		c0.2,0.4,0.4,0.3,0.6,0.6c0.1,0.2,0.6,0.3,0.2,0.8s-0.6,0.5-0.4,0.8c0.2,0.3,0.7,0.7,0.4,1.1c-0.3,0.4-0.3,0.8-0.1,0.9
		c0.2,0.1,0.2,1.1,0.9,1.2c0.7,0,0.9,0.6,0.8,0.8c0,0.2-0.2,0.7,0.1,1s0.3,0.1,0.7,0c0.4-0.1,1-0.4,1.3-0.3s0,0.1-0.3,0.5
		c-0.3,0.4-0.3,0.8-0.3,1.2s0.5,0.1,0.6,0s0.3,0.8,0.7,0.5c0.4-0.2,0.3-0.6,0.7-0.5c0.3,0.1,0.2,0.6,0.7,0.1c0.4-0.4,0.5-1.4,0.9-1
		c0.3,0.4,0.3,1.3,0.6,1c0.3-0.3,0.6-0.4,1.1-1c0.5-0.5,0.2-0.7,0.8-0.6c0.6,0,0.6,0.4,1,0.1c0.4-0.3,0.5-0.4,0.7-0.5s0-0.8,0.3-1.1
		c0.2-0.2,0.6-0.2,0.9-0.4c0.3-0.2,0.1-0.8,0.6-0.9c0.5,0,0.6,0.2,0.8-0.4s1-0.7,0.9-1.1c-0.1-0.4-1.1,0.1-1.4-0.1
		c-0.2-0.2,0.3-0.7,0.7-0.9c0.4-0.2,0.8-0.8,0.7-1.3s-0.4-0.9-0.7-1c-0.3-0.2-0.6-0.4-0.3-0.6c0.3-0.3,0.9-0.7,0.4-0.6
		c-0.6,0.1,0.1-0.6-0.4-0.7c-0.5-0.1-0.6,0-1,0s-0.7,0.1-0.5-0.1c0.2-0.2,1-0.3,0.8-0.6c-0.2-0.3-0.6-0.5-0.8-0.3
		c-0.2,0.2-0.7,0.6-0.7,0.4c0-0.2,0.8-0.9,0.4-1.1c-0.4-0.3-0.6-0.2-0.8,0c-0.3,0.2-0.7,0.3-0.7,0.3s0.4-0.3,0.2-0.9
		s-0.5-0.7-0.8-0.6c-0.2,0.1-0.5,0.3-0.3,0.6s0.4,0.7,0.3,0.9s0,0.1-0.2,0.4c-0.2,0.3-0.2,0.3-0.4,0c-0.2-0.3-0.2-0.6-0.5-0.4
		c-0.3,0.1-0.5,0.1-0.3-0.3c0.2-0.4,0.9-0.9,0.5-1.2c-0.4-0.3-1-0.2-1.1,0c-0.1,0.2-0.4,0.5-0.3,0.9c0.1,0.3,0.3,0.4,0.3,0.7
		c-0.1,0.3-0.2,0.7-0.5,0.7c-0.3,0-0.5,0-0.4-0.5s1.1-0.9,0.4-1.1c-0.7-0.2-1.2,0-1.3,0.3c-0.1,0.3,0.2,0.7,0,0.6s-0.4-0.3-0.6-0.5
		s-0.8-0.3-0.5,0.1s0.3,0.8,0.6,0.8C35,44.2,34.5,44.8,34.5,44.8z"/>
	<path class="st18" d="M33.1,46.3c-0.3,0.2,0,0.9-0.2,1c-0.2,0.2-0.5,0.6-0.7,0.8c-0.2,0.2-0.5,0.4-0.2,1.2s0.1,0.9,0.5,1.6
		c0.5,0.7,0.6,1.3,1.1,1.5s0.6,0.3,1,0.6c0.3,0.3,0.1,0.5,0.9,0.6c0.8,0.2,1.3-0.1,1.6-0.2c0.3-0.1,0.7,0.3,1.1-0.2
		c0.4-0.4,1.1-0.3,1.4-0.4s0.9,0.2,1.1-0.4c0.2-0.6,0.1-0.7,0.2-1.2s0.1-0.3,0.3-0.9c0.2-0.5,0.3-1.4,0.6-1.6c0.2-0.2,0.5-0.5,0-0.7
		c-0.5-0.2-0.1-0.2-0.6-0.6c-0.5-0.4-0.3-0.7-0.3-1.2c0-0.5,0.2-0.7-0.4-0.7S39,45.4,39,45.4s-0.6-0.3-0.8-0.4
		c-0.2-0.1-1.1,0-1.4-0.2c-0.2-0.2-0.9,0.1-1.3,0s-0.3,0-0.7,0c-0.4,0-0.4,0.4-0.7,0.3c-0.3-0.1-0.5,0-0.7,0.3
		C33.3,45.7,33.1,46.3,33.1,46.3z"/>
	<path class="st19" d="M38.7,46.2c0.2,0.2,0.7,1.4,0.9,1.6c0.3,0.2,0.4,0.3,0.4,0.6c0,0.3-0.1,0.3,0,0.9s0.5,1.2,0,1.4
		c-0.5,0.3-0.6,0.6-1.1,1s-0.3,0.8-1.2,1c-0.9,0.2-1.5,0.5-1.9,0.4c-0.4-0.1-1.7-0.6-1.8-1c-0.1-0.4-1.2-1.1-1.1-1.7s-0.1-1.3,0-2
		s0.3-1,0.4-1.6c0.1-0.6-0.3-0.6,0.4-0.9c0.7-0.4,0.3-0.4,1-0.5c0.7-0.1,0.7-0.2,1-0.3c0.3-0.1,0.4-0.1,1,0s1.1,0.4,1.1,0.4
		L38.7,46.2z"/>
	<path class="st20" d="M61.8,41c0-0.5,0-2.9,0.4-3.6s1.2-1.6,1.4-2c0.2-0.4,0.6-0.9,1.3-0.9c0.7,0,1.8-0.3,2.5-0.2
		c0.6,0.1,2.6,1.7,3.3,2.4c0.7,0.7,2.4,0.8,0.9,1.9c-1.6,1.1-2.4,1.9-3.3,2c-0.9,0.2-1.6,0.7-2.6,0.9s-0.9,0.4-1.8,0.3
		C62.9,41.6,61.8,41,61.8,41z"/>
	<path class="st21" d="M67.1,40c-0.2-0.9-0.5-3-0.2-4.4c0.3-1.4,0-1.6,0.8-2.4c0.8-0.8,1.4-1.3,2.2-1.2c0.8,0.1,3.5,0.3,4.7,0.6
		s2.4,0.9,3,1.6s0.9,1.6,1.2,1.9s1.1,1.2-0.3,1.8s-3.7,1.2-4.6,1.5c-0.9,0.3-2,0.8-2.8,0.9c-0.8,0.1-2.3,0-2.6-0.1
		C68.2,40.2,67.1,40,67.1,40z"/>
	<path class="st22" d="M69.2,40.9c-0.7-0.6-1-2-2.2-1.6c-1.2,0.5-1.7,0.1-2.5,0.3c-0.9,0.2-1.8,0.4-2.9,1S59,42.2,59,43
		c0,0.9-0.3,1.1,0,1.6c0.3,0.5,0.6,0.8,1.2,1.2c0.6,0.4,1.9,1.2,3,1.4c1.1,0.2,2.1,0.6,3.3-0.3c1.1-0.9,3.1-2,3-3
		C69.5,43,69.2,40.9,69.2,40.9z"/>
	<path class="st23" d="M89,51.5c0,0,3.3,0.8,3.6,0.9s2.4,1.8,2.4,2.4c-0.1,0.6-1.2,4.7-2,5.4c-0.8,0.7-1.8,2.5-2.3,3.3
		s-3.7,2.3-4.2,2.1c-0.4-0.2-1.4-0.6-1.6-1c-0.2-0.4,0.3-1.1-0.7-0.4s-0.6,1-1.2,2c-0.5,1.1-2.4,2.3-3.7,2.3c-1.3,0-3.4-2.6-3.9-3.3
		s-0.1-2.9-0.3-3.8c-0.2-0.9-0.1-3.3,0.3-3.8c0.4-0.5,0.8-1.7,2.1-2.1c1.4-0.4,3,0.1,4-0.5c1-0.6,1.3-0.9,2.5-1.7s1.3-1,2-1.2
		S89,51.5,89,51.5z"/>
	<path class="st24" d="M76.3,59.2c0,0,0.9,0.4,1.3,1.4s0.7,1.7,0.3,2.3s-1.7,1.9-2.2,2.2c-0.5,0.4-0.9,1.5-1.8,1.9
		c-0.9,0.4-2.3,0.7-2.9,0.7s-0.2,0.1-1.6,1.5c-1.4,1.5-2.1,1.7-3.5,1.7c-1.3,0-3-0.1-4-0.8c-0.9-0.7-3.7-2.5-3.7-3.7s0.7-3.2,0.7-4
		s0.8-1.5,0.8-1.8c0-0.4-0.2-0.7,0.6-1.3c0.8-0.6,2.1-1.3,2.7-1.2c0.6,0,3.1-0.3,3.7-0.3c0.6,0,2.5,0,3.1,0.1s1.5,0,2.4,0.3
		c0.9,0.3,1.3,0.4,1.8,0.5C74.5,58.9,76.3,59.2,76.3,59.2z"/>
	<path class="st25" d="M60.5,51.8c-0.4,0-1.4,0.3-1.6,1c-0.2,0.6-0.7,2.3-0.7,2.6c-0.1,0.3-0.4,0.7,0,1.2c0.3,0.6,4.6,3.3,6.2,3.4
		c1.5,0.1,4.1,0.4,4.8,0.4s1.6-0.5,1.7-0.8c0.1-0.2-2.1-1.8-3.3-2.9c-1.2-1.1-3.4-2.8-4-3.3C62.8,53,60.5,51.8,60.5,51.8z"/>
	<path class="st26" d="M80.5,37.2c0.6-0.4,2.3-0.5,3.3,0.2s1.3,1.8,2.8,1.8c1.5,0,2.7,0.2,3.1,0.9c0.4,0.7,1.6,3.3,1.6,4.8
		s-0.6,5.8-1.2,6.2c-0.5,0.4-3.4,4.2-3.9,4.7c-0.5,0.5-1.8,2.4-2.3,1.7s1.1-5.6,1-6.5c-0.1-0.9-1.7-5.5-2.2-6.4
		c-0.5-0.8-1.6-3-1.7-3.9C80.9,39.9,80.5,37.2,80.5,37.2z"/>
	<path class="st27" d="M72.7,49.2c-0.9-0.6-5.9-3.2-6.1-4.6s-0.7-2-0.1-2.4c0.6-0.5,1.1-0.6,1-1.8s-0.5-1,0.6-2.2s3.8-2.8,5.2-2.8
		s3.7,0.3,5,0.5s1.8,0.3,2.5,0.6s2.2,1.6,2.5,2.2c0.3,0.6,1.1,1.1,1.5,1.4c0.4,0.4,1.1,2.5,1.3,2.6s0.4,1.8,1.4,2.3
		c1,0.5,2.8,0.2,3,0.9c0.3,0.7-0.4,3-0.6,3.2c-0.2,0.3-0.7,1.7-0.7,2s-0.9,1.3-1.3,2.3c-0.4,1.1-3.2,3.7-3.8,4.1s-1.7,2.2-2.6,2.3
		C80.4,60,79.1,60.6,79,60c-0.1-0.6,0.3-1.5-0.1-2.2c-0.4-0.7-0.6-1.5-1.1-2.9c-0.4-1.3,0.7-1.8-0.8-2.5
		C75.7,51.7,72.7,49.2,72.7,49.2z"/>
	<path class="st20" d="M73.3,50.7c-0.1,0-3.5-4.7-4.6-5.2c-1.1-0.5-2.3-2.4-3.7-1.8c-1.4,0.6-3.2,1.9-4,2.1c-0.8,0.2-1-0.1-1.4,0.9
		c-0.4,1-0.5,1.9-0.4,2.7c0.2,0.9,0,1.8,0.5,2.9s0.5,1.8,1.3,2.4c0.8,0.6,1.2,0.6,1.6,1.1s2.1,1.6,2.5,2.2c0.4,0.7,2.3,1.9,2.7,2
		c0.5,0.1,1.6,0.2,2.6,0.2s2.6,0.3,3.3,0.3c0.6,0,3.3-0.9,4-1.3c0.7-0.4,2.3-1.2,2.9-1.8c0.6-0.5,1-0.4,1.1-1.1
		c0.1-0.7,0.4-1.9,0.2-1.7c-0.2,0.2-1,1.8-2.6,2.6c-1.6,0.8-3.3,1-4.3,1.1c-1,0.1-1.9,0.6-2.1,0.2c-0.2-0.4-0.4-1-0.9-1.8
		c-0.5-0.8-1.9-3.2-1.4-3.7c0.4-0.5,0.8-0.8,1.5-1C72.7,51.7,73.3,50.7,73.3,50.7z"/>
	<path class="st25" d="M73,61c-0.4,0.2-2.1,0.6-3.3,1.4c-1.2,0.9-2.6,1.5-3,2.9c-0.4,1.4-0.8,3.1-1.1,3.6c-0.3,0.5-0.2,0.9-0.7,0.7
		c-0.5-0.2-0.9-0.4-0.6-1.4s0.8-2.4,0.2-2.5c-0.6-0.1-1.1-0.5-1.6-1.1c-0.5-0.6-1.1-1.3-0.9-2s0.4-1.7,0.5-2
		c0.1-0.3,0.6-0.4,1.1-0.5c0.5-0.1,4.7,0.4,5.4,0.3s1.8-0.4,2.2-0.4c0.4,0,1.2,0.1,1.3,0.1C72.6,60.2,73,61,73,61z"/>
	<path class="st20" d="M88.5,54.3c0.4,0,2.3,0.2,3.5,0.6c1.2,0.4,2.1,1.1,1.3,1.9c-0.7,0.8-0.8,1.7-1.2,2.5
		c-0.4,0.8-1.9,2.9-2.5,3.5s-2.3,1.8-3,1.1c-0.7-0.7-2.2-1.1-2.8-1.3c-0.6-0.2-1.7-1.2-2.1-0.8s0.7,0.5,0.8,1.7s0,3.3-1.1,3.4
		s-3,1.1-3.6-0.1c-0.6-1.2-0.5-1.5,0.1-2.8c0.6-1.4,0.7-2.9,0.4-3.4c-0.3-0.6-0.2-1.1,0.4-0.4c0.6,0.7,2-0.2,3.4-0.6
		c1.4-0.4,2.4-0.3,3.4-1.5s1.2-1.3,1.6-2C87.6,55.4,88.5,54.3,88.5,54.3z"/>
	<path class="st23" d="M60.6,49.3c0.3,0.1,3,0.8,3.6,1.1c0.7,0.3,2.6,0.7,1.9,0.3s-3.6-2-2.7-1.9c0.9,0,2.4,0.7,2.4,0.1
		c0.1-0.5-0.3-1.3-0.6-2s0-0.8,0.4-1.2s0.9-1.1,1.7-0.8s1.7,1.9,2.4,2.4c0.7,0.5,2.2,1.5,2.4,2.1c0.1,0.7-0.1,1.8-0.4,2.7
		c-0.4,0.9,0.5,3.7,0.8,4.1c0.3,0.4,1,1.1-0.1,1.2c-1,0.1-2.2,0.4-2.7,0c-0.5-0.4-1.8-0.8-1.9-1.2s0.8-0.5,1-0.8
		c0.2-0.3-0.7-0.9-1.3-1c-0.6-0.2-1.4-0.4-2.4-0.4s-2.2,0.1-1.2-0.5c1-0.6,1-0.9,0.4-1.2c-0.7-0.3-2.9,0-3.5-0.5
		c-0.6-0.5-1.4-0.8-1.4-1.1c0-0.3,0.4-1.4,0.4-1.5C59.8,49.3,60.6,49.3,60.6,49.3z"/>
	<path class="st20" d="M75.4,36.7c0,0.1,0,0.3,0.1,0.5c0.2,1,0.6,2.8,0.6,3.2c0,0.5,0.3,1.8,0.5,2c0.2,0.2,0.6-0.4,0.6-1
		s-0.1-1.3,0.1-2.2c0.2-0.9,0.7-0.8,0.7-1.5c-0.1-0.7,0.1-0.8-0.7-0.8C76.4,37,75.4,36.7,75.4,36.7z"/>
	<path class="st23" d="M80.7,53.5c0.2,0,2.3-0.4,3-0.5c0.7-0.1,1.4-1.6,1.2-2.4c-0.2-0.8-1-5.3-3.5-6.6c-2.4-1.4-4.1-1.9-4.8-1.5
		c-0.7,0.4-1.2,1-1.2,2.4c0,1.4,0.3,1.7,0.4,2.6c0.2,0.9-0.2,1.3,0.3,2.5c0.4,1.2,0.1,2,1.1,2.5c1,0.5,1.5,0.7,2.1,0.9
		C79.8,53.6,80.7,53.5,80.7,53.5z"/>
	<path class="st17" d="M74,49.3c-0.2-0.4-0.3-0.7-0.2-1.1c0.1-0.4,0.4-0.3,0.5-0.4c0.1,0,0,0,0.2-0.3s0.8-0.4,0.8-0.3
		c0.1,0.1,0.1,0.7,0.4,0.4s0.3-0.8,0.6-0.6c0.3,0.2,0.5,0.4,0.5,0.5s-0.2,0.4-0.3,0.7c-0.1,0.3-0.3,0.7,0,0.4
		c0.3-0.2,0.4-0.4,0.7-0.7c0.3-0.3,0.5-0.7,0.7-0.4c0.2,0.3,0.4,0.5,0,0.7c-0.4,0.3-1.1,1-0.6,0.9c0.6-0.2,0.8,0,0.9-0.3
		c0.1-0.3,0.2-0.6,0.2-0.8c0-0.2,0.2-0.6,0.3-0.2c0.1,0.3,0,0.4,0,0.6s-0.2,0.5,0.3,0.5c0.5,0.1,0.6-0.1,0.7,0.2s0,0.7,0.4,0.8
		c0.4,0.1,0.6,0.3,0.6,0.5s0.5,0.7,0.2,1.2s-0.2,0.8,0,0.9c0.2,0.1,0.5,0.3,0.5,0.6c0,0.3-0.1,0.2-0.4,0.4c-0.3,0.2-0.8,0.4-0.9,0.5
		c-0.1,0.2,0,0,0.4,0.1c0.4,0.1,0.7,0.3,0.8,0.5c0.2,0.2-0.2,0.3-0.4,0.4c-0.2,0,0.3,0.6-0.1,0.7c-0.3,0.1-0.5-0.2-0.7,0.1
		c-0.1,0.2,0.2,0.5-0.3,0.4s-1.1-0.5-1-0.1c0.1,0.4,0.5,0.9,0.2,0.9c-0.3,0-0.6,0.1-1.1,0.1c-0.5,0-0.5-0.3-0.8,0.1S77,57.9,76.6,58
		s-0.5,0.1-0.7,0.1s-0.5-0.5-0.8-0.5c-0.3,0-0.4,0.2-0.7,0.3c-0.3,0.1-0.5-0.4-0.8-0.2c-0.3,0.2-0.2,0.5-0.7,0.2s-1,0.1-1.1-0.1
		c-0.2-0.3,0.7-0.6,0.7-0.8c0-0.3-0.5-0.2-0.9-0.1s-0.9,0-1.1-0.4c-0.2-0.3-0.2-0.7-0.2-1s0.1-0.5-0.2-0.5c-0.3,0-0.9,0.1-0.6-0.2
		c0.4-0.3-0.4-0.2-0.2-0.6c0.2-0.4,0.3-0.3,0.6-0.6c0.3-0.2,0.4-0.3,0.2-0.3c-0.2,0-0.7,0.3-0.8,0.1s0-0.6,0.3-0.6
		c0.2,0,0.8-0.1,0.6-0.2c-0.1-0.1-0.9,0-0.8-0.4c0.1-0.4,0.2-0.4,0.5-0.5c0.3-0.1,0.6-0.2,0.6-0.2s-0.4,0.1-0.6-0.4
		c-0.2-0.5-0.1-0.7,0.1-0.8c0.2-0.1,0.5-0.1,0.5,0.2s0.2,0.6,0.3,0.7c0.2,0.1,0.1,0.1,0.3,0.1c0.3,0.1,0.3,0.1,0.2-0.2
		c-0.1-0.3-0.2-0.4,0.1-0.5c0.3-0.1,0.3-0.3,0-0.4c-0.3-0.1-1,0-1-0.4c0-0.4,0.4-0.7,0.6-0.6c0.2,0.1,0.5,0.1,0.6,0.3
		c0.1,0.3,0,0.4,0.2,0.5s0.5,0.3,0.6,0.1s0.3-0.3-0.1-0.5s-1.1,0.1-0.8-0.4c0.3-0.5,0.7-0.7,0.9-0.6s0.3,0.5,0.4,0.3
		c0.1-0.2,0.1-0.4,0.1-0.6c0-0.2,0.3-0.6,0.3-0.2c0,0.4,0.3,0.7,0.1,0.8C73.4,49.2,74,49.3,74,49.3z"/>
	<path class="st18" d="M75.6,49.4c0.3,0,0.5,0.5,0.7,0.5c0.2,0,0.6,0,0.8,0.1s0.5,0,0.8,0.6c0.3,0.6,0.5,0.6,0.6,1.2
		c0.1,0.6,0.4,1.1,0.2,1.4c-0.1,0.3-0.2,0.5-0.2,0.9c0,0.4,0.2,0.3-0.2,0.8s-0.8,0.6-1,0.7c-0.2,0.1-0.2,0.5-0.7,0.5
		c-0.5,0-0.8,0.4-1,0.6c-0.2,0.1-0.4,0.6-0.8,0.4c-0.4-0.2-0.5-0.3-0.8-0.6c-0.3-0.3-0.3-0.1-0.7-0.3s-0.9-0.6-1.2-0.6
		c-0.2,0-0.6,0-0.4-0.4c0.2-0.4-0.1-0.1,0-0.7s-0.2-0.6-0.5-0.8c-0.3-0.3-0.5-0.3-0.2-0.6c0.3-0.3,0.7-0.9,0.7-0.9s0.2-0.5,0.2-0.7
		c0-0.1,0.6-0.7,0.7-0.9c0-0.2,0.5-0.4,0.7-0.7c0.2-0.3,0.2-0.2,0.4-0.4c0.2-0.2,0.4,0,0.6-0.2s0.3-0.3,0.5-0.2
		C75.1,49.2,75.6,49.4,75.6,49.4z"/>
	<path class="st19" d="M72.3,52.4c0,0.2,0.4,1.2,0.4,1.4c-0.1,0.3,0,0.4,0.1,0.6c0.2,0.2,0.2,0.1,0.5,0.5c0.3,0.4,0.4,0.9,0.8,0.8
		c0.4-0.1,0.7,0,1.2,0c0.5,0,0.6,0.3,1.2-0.1c0.7-0.4,1.1-0.6,1.3-0.9c0.2-0.3,0.7-1.3,0.5-1.6c-0.2-0.3,0.1-1.3-0.3-1.6
		s-0.7-0.8-1.1-1.1c-0.4-0.3-0.7-0.4-1.1-0.6s-0.1-0.5-0.7-0.3c-0.6,0.2-0.4-0.1-0.8,0.2s-0.5,0.3-0.7,0.4c-0.2,0.1-0.3,0.2-0.5,0.5
		c-0.3,0.4-0.4,0.9-0.4,0.9L72.3,52.4z"/>
	<path class="st28" d="M50.7,95.6c0.2,0.3,1.4,1.8,2.1,2c0.7,0.3,1.6,0.5,1.9,0.6c0.4,0.2,0.8,0.3,1.3,0c0.5-0.3,1.4-0.6,1.7-1
		c0.4-0.3,0.9-2.2,1-3s1.2-1.6-0.4-1.6c-1.6,0-2.5-0.1-3.2,0.2c-0.7,0.3-1.5,0.3-2.2,0.6c-0.7,0.3-0.8,0.1-1.3,0.6
		S50.7,95.6,50.7,95.6z"/>
	<path class="st29" d="M54.6,93.8c0.3,0.7,1.2,2.1,2.1,2.8c0.9,0.7,0.8,1,1.7,1.1c1,0.1,1.6,0.2,2-0.2c0.4-0.4,2.1-1.8,2.8-2.5
		s1.1-1.7,1.2-2.3c0-0.6-0.2-1.4-0.2-1.7c0-0.3,0.1-1.2-1.1-1c-1.2,0.2-3.1,0.9-3.8,1.1c-0.7,0.2-1.7,0.4-2.3,0.7
		c-0.6,0.3-1.5,1.1-1.7,1.2C55.3,93.3,54.6,93.8,54.6,93.8z"/>
	<path class="st30" d="M55.6,92.4c-0.1,0.7,0.4,1.7-0.7,1.9c-1,0.3-1.1,0.7-1.8,1c-0.7,0.3-1.4,0.6-2.5,0.7s-2.4,0.2-2.8-0.4
		c-0.4-0.5-0.8-0.6-0.8-1s0-0.8,0.2-1.3c0.2-0.5,0.6-1.6,1.3-2.2c0.6-0.6,1.1-1.4,2.3-1.3c1.2,0.1,3-0.2,3.5,0.5
		C54.7,90.9,55.6,92.4,55.6,92.4z"/>
	<path class="st31" d="M63.3,76.9c0,0,1.8-2,1.9-2.2c0.1-0.2,0.7-2.2,0.3-2.5c-0.3-0.3-3.2-2.4-4.1-2.4c-0.9-0.1-2.5-0.8-3.2-1
		c-0.7-0.2-3.6,0.3-3.8,0.6s-0.6,1-0.5,1.3c0,0.3,0.7,0.5-0.3,0.5c-1,0-0.9-0.3-1.8-0.7c-0.9-0.4-2.7-0.4-3.6,0.3
		c-0.8,0.6-0.9,3.1-0.9,3.7c0.1,0.7,1.4,1.8,1.7,2.4s1.6,2.1,2.1,2.2s1.4,0.7,2.4,0.3s1.9-1.4,2.9-1.5s1.4,0,2.5-0.1
		c1.2-0.1,1.4,0.1,1.9-0.2S63.3,76.9,63.3,76.9z"/>
	<path class="st32" d="M50.9,77.9c0,0,0.4-0.7,0.2-1.4s-0.4-1.3-1-1.6s-2.1-0.4-2.6-0.3s-1.3-0.5-2.2-0.4s-1.9,0.6-2.3,0.9
		s-0.1,0-1.8-0.2c-1.7-0.3-2.3-0.1-3.1,0.5c-0.9,0.6-2,1.4-2.2,2.3c-0.3,0.9-1.2,3.2-0.5,3.9c0.7,0.7,2.1,1.6,2.5,2.1
		c0.5,0.5,1.2,0.6,1.5,0.8c0.2,0.2,0.2,0.5,1.1,0.5c0.8,0,2-0.2,2.4-0.5c0.4-0.3,2.2-1.2,2.5-1.5c0.4-0.3,1.6-1.1,2-1.5
		c0.4-0.4,1-0.6,1.4-1.3c0.5-0.6,0.7-0.8,0.9-1.1C49.9,79,50.9,77.9,50.9,77.9z"/>
	<path class="st33" d="M44.3,89.6c-0.3,0.2-1.1,0.4-1.6,0.1c-0.5-0.3-1.6-1.1-1.8-1.3c-0.2-0.2-0.6-0.2-0.7-0.7s1.4-4.1,2.3-4.9
		c0.9-0.8,2.5-2.1,2.9-2.4c0.5-0.4,1.3-0.4,1.5-0.3s-0.4,2.1-0.7,3.3c-0.3,1.2-0.9,3.2-1,3.8S44.3,89.6,44.3,89.6z"/>
	<path class="st34" d="M64.9,89.5c0.6,0,1.7-0.8,2-1.6s-0.1-1.7,0.9-2.4c1-0.7,1.7-1.4,1.6-1.9c-0.1-0.6-0.7-2.7-1.4-3.7
		c-0.7-0.9-3.4-3.3-3.9-3.3c-0.6,0-4.3-1.1-4.9-1.1c-0.6-0.1-2.4-0.7-2.4,0c0,0.7,3.5,2.9,3.9,3.6c0.4,0.6,1.7,4.1,1.8,4.9
		c0.1,0.7,0.5,2.6,0.9,3.2C63.8,87.7,64.9,89.5,64.9,89.5z"/>
	<path class="st35" d="M53.6,85.7c-0.2,0.8-2.2,4.6-1.7,5.5c0.6,0.9,0.5,1.5,1.2,1.5c0.7,0,1-0.2,1.5,0.6c0.5,0.8,0.2,0.9,1.5,1
		c1.3,0.2,3.9,0,4.8-0.6s2.3-1.9,3-2.5c0.7-0.6,1-1,1.3-1.5c0.3-0.5,0.6-1.9,0.5-2.5s0.2-1.1,0.3-1.5c0.1-0.4-0.5-2-0.5-2.2
		c0-0.1-0.6-1.3-0.2-2c0.4-0.8,1.7-1.4,1.6-1.9s-1.8-1.6-2.1-1.7c-0.3-0.1-1.3-0.7-1.5-0.9c-0.2-0.2-1.2-0.4-2.1-0.8
		c-0.8-0.5-4-0.8-4.6-0.8s-2.2-0.5-2.9-0.2s-1.8,0.5-1.6,0.9s0.9,0.8,1.1,1.4c0.1,0.6,0.4,1.2,0.8,2.2c0.4,1,1.4,0.8,0.8,1.9
		C54.4,82.8,53.6,85.7,53.6,85.7z"/>
	<path class="st28" d="M53.3,84.5c-0.1,0.1,0.1,4.5-0.4,5.3s-0.3,2.5-1.5,2.8c-1.2,0.3-3.1,0.3-3.7,0.5c-0.6,0.2-0.6,0.5-1.4,0.1
		c-0.8-0.4-1.3-0.9-1.6-1.5c-0.3-0.6-0.9-1.1-1.2-2c-0.3-0.9-0.6-1.3-0.4-2c0.2-0.7,0.5-0.9,0.5-1.4c0-0.5,0.6-1.9,0.5-2.5
		c-0.1-0.6,0.5-2.2,0.8-2.4c0.2-0.3,0.9-0.9,1.6-1.3c0.7-0.4,1.6-1.3,2-1.6c0.4-0.3,2.6-0.9,3.3-1s2.1-0.3,2.8-0.2
		c0.7,0,0.9-0.2,1.3,0.2c0.4,0.4,1.2,1,1,1s-1.6-0.6-3-0.4c-1.4,0.2-2.7,0.8-3.4,1.3c-0.7,0.4-1.6,0.5-1.5,0.8s0.3,0.8,0.3,1.5
		c0,0.7,0.4,2.8,0.9,2.9s0.9,0.1,1.5-0.1C52.4,84.2,53.3,84.5,53.3,84.5z"/>
	<path class="st33" d="M47.9,78.3c-0.3,0.1-1.7,0.6-2.9,0.6c-1.2,0-2.5,0.2-3.4-0.5c-1-0.7-2.1-1.5-2.5-1.7s-0.6-0.5-0.8-0.1
		c-0.2,0.4-0.4,0.6,0.3,1.1c0.6,0.5,1.8,1.1,1.4,1.4c-0.4,0.3-0.4,0.8-0.5,1.4s-0.1,1.3,0.4,1.7c0.5,0.4,1.2,0.9,1.4,1
		c0.2,0.1,0.6,0,1-0.2c0.4-0.2,2.9-2.4,3.4-2.6c0.5-0.2,1.4-0.6,1.6-0.7c0.2-0.2,0.7-0.6,0.8-0.7C48,79,47.9,78.3,47.9,78.3z"/>
	<path class="st28" d="M61.5,75.4c0.2-0.2,1.4-1.1,2-2s0.8-1.6-0.1-1.8s-1.4-0.7-2.1-1c-0.7-0.3-2.7-0.9-3.4-1
		c-0.7-0.1-2.4-0.1-2.5,0.7s-0.9,1.6-1.2,2c-0.3,0.4-0.5,1.5-1,1.5c-0.5,0,0.2-0.6-0.3-1.4c-0.5-0.8-1.7-2-2.4-1.6s-2.5,0.7-2.3,1.7
		c0.2,1,0.4,1.1,1.5,1.7c1.1,0.6,1.9,1.5,2,1.9c0.1,0.5,0.4,0.8,0.5,0.1s1.4-0.8,2.5-1.2c1.1-0.4,1.7-0.9,3-0.6
		c1.3,0.3,1.4,0.3,2.1,0.5C60.3,75.2,61.5,75.4,61.5,75.4z"/>
	<path class="st31" d="M45.7,91.1c0.2-0.2,1.5-1.8,1.8-2.3c0.3-0.5,1.3-1.6,1.1-1.1c-0.3,0.5-1.4,2.8-0.8,2.4s1.2-1.5,1.5-1.2
		c0.3,0.3,0.5,1,0.6,1.5c0.2,0.5,0.4,0.5,0.9,0.5c0.4,0,1.1,0.3,1.5-0.3c0.4-0.5,0.2-1.9,0.3-2.5c0.2-0.6,0.7-1.9,0.5-2.4
		c-0.3-0.5-0.9-1.1-1.6-1.5c-0.7-0.4-1.6-2.5-1.6-2.8c0-0.3,0.1-1.1-0.6-0.7c-0.7,0.4-1.6,0.7-1.8,1.2s-0.8,1.3-0.6,1.5
		c0.1,0.2,0.8-0.1,1.1,0.1c0.3,0.1,0,0.9-0.4,1.2s-0.7,0.9-1.4,1.3c-0.7,0.4-1.5,0.9-0.6,0.9s1.1,0.1,0.8,0.5s-1.9,1.3-2.1,1.9
		c-0.2,0.6-0.5,1.1-0.4,1.3c0.1,0.2,1,0.7,1,0.7C45.1,91.4,45.7,91.1,45.7,91.1z"/>
	<path class="st28" d="M61.8,92.1c-0.1-0.1-0.1-0.2-0.2-0.3c-0.4-0.7-1-2-1.2-2.3c-0.3-0.3-0.7-1.2-0.7-1.5s0.6-0.1,0.9,0.4
		s0.6,0.8,1.2,1.3c0.6,0.4,0.9,0.1,1.2,0.6c0.3,0.5,0.5,0.4-0.1,0.8C62.3,91.5,61.8,92.1,61.8,92.1z"/>
	<path class="st31" d="M56.8,79.5c0.1-0.1,1.7-0.8,2.2-1c0.5-0.2,1.7,0.4,2,0.9c0.3,0.6,2,3.7,1.1,5.6c-0.9,1.9-1.7,3-2.4,3.1
		s-1.3,0-2-0.9c-0.7-0.9-0.7-1.2-1-1.8c-0.3-0.6-0.8-0.7-1.1-1.6c-0.3-0.9-1-1.2-0.5-2c0.4-0.8,0.7-1.1,0.9-1.5
		C56.1,79.8,56.8,79.5,56.8,79.5z"/>
	<path class="st17" d="M54.4,85c0.1,0.3,0.2,0.5,0.4,0.7c0.3,0.2,0.4,0,0.5,0c0.1,0,0,0,0.3,0.1c0.3,0.1,0.7-0.1,0.7-0.2
		c0-0.1-0.3-0.4,0.1-0.4s0.6,0.4,0.7,0.1c0.1-0.3,0.1-0.5,0.1-0.6c0-0.1-0.4-0.2-0.6-0.3c-0.2-0.1-0.6-0.3-0.2-0.2
		c0.3,0,0.5,0.1,0.8,0.1s0.7,0.2,0.6-0.1c0-0.3,0-0.5-0.4-0.5s-1.3-0.1-0.8-0.3s0.5-0.4,0.8-0.2s0.4,0.3,0.5,0.4
		c0.1,0.2,0.4,0.3,0.3,0c-0.1-0.3-0.2-0.2-0.3-0.4c-0.1-0.1-0.3-0.2-0.1-0.5c0.3-0.3,0.4-0.2,0.3-0.4c-0.1-0.2-0.4-0.5-0.2-0.7
		c0.2-0.2,0.3-0.4,0.1-0.6c-0.1-0.1,0-0.7-0.5-0.8c-0.5-0.1-0.5-0.4-0.5-0.5s0.2-0.4,0-0.6c-0.2-0.2-0.2-0.1-0.5-0.1
		c-0.3,0-0.7,0.1-0.9,0.1s0,0,0.2-0.3c0.2-0.2,0.3-0.5,0.3-0.7c0-0.2-0.3-0.1-0.4-0.1c-0.1,0.1-0.1-0.5-0.4-0.4
		c-0.3,0.1-0.3,0.3-0.5,0.3S55,77.8,54.7,78c-0.3,0.2-0.4,0.8-0.6,0.5c-0.2-0.3-0.1-0.8-0.3-0.6c-0.2,0.2-0.4,0.2-0.8,0.5
		c-0.3,0.3-0.2,0.4-0.6,0.3c-0.4-0.1-0.4-0.3-0.7-0.1c-0.3,0.1-0.4,0.2-0.5,0.2c-0.1,0.1-0.1,0.5-0.3,0.6c-0.2,0.1-0.4,0.1-0.6,0.2
		S50.3,80,49.9,80c-0.3,0-0.4-0.2-0.5,0.2c-0.1,0.4-0.7,0.4-0.7,0.6c0,0.2,0.8,0,0.9,0.2c0.1,0.2-0.2,0.4-0.5,0.5
		c-0.3,0.1-0.6,0.4-0.6,0.7c0,0.3,0.2,0.5,0.4,0.7c0.2,0.1,0.3,0.3,0.1,0.4c-0.2,0.1-0.7,0.4-0.3,0.3c0.4,0-0.1,0.3,0.2,0.5
		c0.3,0.1,0.4,0.1,0.6,0.1c0.3,0,0.5,0,0.3,0.1c-0.1,0.1-0.6,0.1-0.5,0.3c0.1,0.2,0.3,0.4,0.5,0.2s0.5-0.3,0.5-0.2s-0.6,0.4-0.3,0.6
		s0.4,0.2,0.6,0.1s0.5-0.1,0.5-0.1s-0.3,0.1-0.2,0.5c0.1,0.4,0.3,0.5,0.4,0.4c0.2-0.1,0.3-0.2,0.3-0.3c-0.1-0.2-0.2-0.4-0.1-0.6
		s0-0.1,0.2-0.2c0.1-0.2,0.1-0.2,0.2,0c0.1,0.2,0.1,0.4,0.3,0.3s0.4,0,0.2,0.2c-0.2,0.2-0.7,0.5-0.5,0.7c0.2,0.2,0.6,0.2,0.7,0.1
		c0.1-0.1,0.3-0.3,0.2-0.5c-0.1-0.2-0.2-0.3-0.1-0.4c0.1-0.2,0.2-0.4,0.4-0.4c0.2,0,0.3,0,0.2,0.3c-0.1,0.3-0.8,0.4-0.3,0.6
		s0.8,0.1,0.9-0.1s-0.1-0.4,0.1-0.4c0.2,0,0.2,0.2,0.4,0.4c0.1,0.1,0.5,0.2,0.3,0c-0.2-0.3-0.2-0.5-0.4-0.6
		C54.1,85.4,54.4,85,54.4,85z"/>
	<path class="st18" d="M55.5,84.3c0.2-0.1,0.1-0.5,0.2-0.6s0.4-0.3,0.5-0.4c0.1-0.1,0.4-0.2,0.2-0.7c-0.1-0.5,0-0.5-0.2-1
		c-0.2-0.5-0.3-0.8-0.6-1c-0.3-0.1-0.4-0.2-0.6-0.4c-0.2-0.2,0-0.3-0.5-0.4s-0.8,0-1,0s-0.4-0.2-0.7,0c-0.3,0.2-0.7,0.1-1,0.1
		s-0.5-0.2-0.7,0.1s-0.1,0.4-0.2,0.7c-0.1,0.3-0.1,0.2-0.3,0.5c-0.2,0.3-0.3,0.8-0.5,0.9c-0.2,0.1-0.4,0.3-0.1,0.4
		c0.3,0.2,0,0.1,0.3,0.4c0.3,0.3,0.1,0.4,0.1,0.7c0,0.3-0.2,0.4,0.2,0.5s0.9,0.2,0.9,0.2s0.4,0.2,0.5,0.3c0.1,0.1,0.7,0.1,0.9,0.2
		c0.1,0.1,0.6,0,0.8,0.1C54,85,54,85,54.2,85c0.2,0,0.3-0.2,0.5-0.1c0.2,0.1,0.3,0.1,0.5-0.1C55.3,84.6,55.5,84.3,55.5,84.3z"/>
	<path class="st19" d="M51.8,83.9c-0.1-0.2-0.3-0.9-0.5-1c-0.2-0.1-0.2-0.2-0.2-0.4c0-0.2,0.1-0.2,0.1-0.6s-0.2-0.7,0.1-0.9
		s0.4-0.3,0.8-0.5c0.4-0.2,0.2-0.4,0.9-0.5s1-0.1,1.3-0.1c0.3,0.1,1.1,0.5,1.1,0.7s0.7,0.7,0.6,1.1c-0.1,0.4,0,0.8-0.2,1.2
		c-0.1,0.4-0.3,0.6-0.4,0.9c-0.1,0.3,0.2,0.4-0.3,0.5s-0.2,0.2-0.7,0.2c-0.4,0-0.5,0.1-0.6,0.1c-0.2,0-0.3,0-0.6-0.1
		c-0.4-0.1-0.7-0.4-0.7-0.4L51.8,83.9z"/>
</g>
</svg>
