<svg xmlns="http://www.w3.org/2000/svg" version="1.1" xmlns:xlink="http://www.w3.org/1999/xlink" xmlns:svgjs="http://svgjs.dev/svgjs" viewBox="0 0 108 108" style="" x="0" y="0"><style type="text/css">
	.st0{fill:#DF5BA1;}
	.st1{fill:#89175E;}
	.st2{fill:#DA27AF;}
	.st3{fill:#59003A;}
	.st4{fill:#DE499A;}
	.st5{fill:#3C805C;}
	.st6{fill:#3C753B;}
	.st7{fill:#2B6300;}
	.st8{fill:#327357;}
	.st9{fill:none;}
	.st10{fill:#B63A8B;}
	.st11{fill:none;stroke:#327357;stroke-width:0.3008;stroke-miterlimit:10;}
	.st12{fill:none;stroke:#327357;stroke-width:0.2724;stroke-miterlimit:10;}
</style><g><path class="st0" d="M43,42.3c-0.4-0.3-2.4-1.1-1.9-2.1c0.4-1-1-2-1-2.9c0.1-0.9-0.5-2.4,0.4-2.7c0.8-0.4,5.8-0.3,6.4-0.2
	c0.6,0.1,1.8,0.3,1.9,1.6c0.1,1.3-0.2,1.9-0.7,3.1s-0.3,2.5-0.9,3c-0.6,0.5-1,0.8-1.9,0.7C44.4,42.6,43,42.3,43,42.3z"></path><path class="st1" d="M44.7,39.9c0.9-0.3,2.5,0.1,2.6-1.1c0.2-1.3,0.6-2-0.7-2.2c-1.2-0.2-1.6-1.4-2.5-0.5c-0.9,0.9-1.8,0.6-1.3,1.5
	c0.5,0.9-0.4,0.5,0.7,1.5C44.7,39.9,44.7,39.9,44.7,39.9z"></path><path class="st0" d="M32.9,33.1c-0.6,0-2-0.8-2.9,0.2s-1.2,2.7-0.8,3.1s1.6,2.9,2.8,3.5s2.7,1,3.2,0.7c0.5-0.3,1.1-0.6,1.3-1.3
	c0.2-0.7,0.5-0.8,0.8-2.1s1-1.2,0.2-2.1S36,33.7,36,33.7s-0.9-0.4-1.5-0.5C34.1,33.2,32.9,33.1,32.9,33.1z"></path><path class="st2" d="M32,33.4c-0.3-0.5-1-0.2-0.9-1.4c0.1-1.2,0.6-2.8,1.2-3.4c0.6-0.5,0.6-1.1,1.3-0.8c0.8,0.2,0.9,0.5,1.4,0.3
	c0.5-0.2,0.8,0,1.6-0.1c0.8-0.2,1.5-0.6,1.7,0.4s0.1,1-0.1,1.8c-0.2,0.8,0,2.4,0,2.8c0,0.4,0,0.8-0.3,1.5s-0.5,1.3-1.1,1.2
	c-0.6-0.1-1.7-0.7-2-0.9S32,33.4,32,33.4z"></path><path class="st1" d="M35.5,30.6c0.6,0.2,1.5,0.7,1.4,1.7c0,0.9-0.2,2.1-0.3,2.5s-0.3,0.9-1.1,0.5c-0.8-0.5-2.5,0.2-2.4-1.2
	c0.1-1.5,0.4-1.5,0.5-2.2c0.1-0.7,0.7-1.1,0.7-1.1L35.5,30.6z"></path><path class="st3" d="M35.3,31.3c0.6,0,0.8,0.6,0.9,1.1c0,0.5,0.1-0.1-0.7,0.4c-0.8,0.5-1.1,0.1-1.1-0.2c0.1-0.3,0.2-0.5,0.1-0.8
	C34.4,31.4,35.3,31.3,35.3,31.3z"></path><path class="st2" d="M42.3,49.7c-0.1-0.4,1.8-2.6,2.8-3.4c0.9-0.8,1.2-0.4,1.4,0.3c0.2,0.7,0.2,0.9,0.8,0.9s1.5-0.5,2,0.6
	c0.5,1.1,0.8,1.5,0,2.6c-0.8,1-0.3,1.1-1.4,1.4c-1.1,0.4-2.7,0.6-3.2,0.3c-0.6-0.4-1.8,0.1-1.9-0.9C42.5,50.6,42.3,49.7,42.3,49.7z"></path><path class="st4" d="M48,48.2c-0.6,0.2-1.2,1.6-2.1,1.6c-0.8-0.1-1.2-1.5-0.8-0.1c0.4,1.5,0.6,2.4,1.6,2.4c1,0,2.2,0.6,2.8-0.2
	c0.6-0.8,0.8-1.2,0.7-1.8c-0.1-0.6-0.2-0.5-0.6-1.2C49.2,48.1,48,48.2,48,48.2z"></path><path class="st2" d="M52.1,64.8c-0.1,0.5,0.5,2.3-1,1.2c-1.5-1.1-1.2-0.2-1.9-1.7c-0.7-1.5,0-1.8-0.2-2.4c-0.2-0.6-0.1-0.8-0.4-1.5
	s-0.9-1.8-0.9-1.8s0.5-1,1-2.2c0.5-1.2,1.5-1.4,2.5-1.4s2.1-0.3,1.7,1.4c-0.4,1.7-0.9,2-0.2,2.8c0.8,0.8,1,0.2,1,1.6
	c0,1.4-0.4,1.3-0.7,1.8s-0.5,0.9-0.7,1.2C52.2,64.1,52.1,64.8,52.1,64.8z"></path><path class="st4" d="M48.7,56.4c-1.4,0.7-2.8,0.6-3.2,1.1c-0.4,0.5-0.8,0.8-1.1,1.9s-0.1,1.6,0,2.3c0,0.7,0.4,1-0.1,1.7
	c-0.6,0.8-1.9,0.4-0.5,1.7c1.4,1.3-0.2,0.9,1.4,1.3s1.2,0.2,2.5,0.1s1.3,0.5,2-0.2s0.5-0.4,1-1.7c0.5-1.3-0.8-2.8-1-3.7
	c-0.3-0.8-0.3-0.7-0.1-1.5C49.6,58.5,50.2,55.7,48.7,56.4z"></path><path class="st0" d="M47.7,58.6c0,0,2-1,1.8-0.2s0.6,0.7,0.6,1.5c0.1,0.8,0.3,0.8-0.3,1.6c-0.6,0.9-1,1.5-1.5,1.8
	c-0.5,0.2-1.1,0.2-1.4-0.7s-0.3-1.7-0.4-1.9c-0.2-0.3-1.3-1.2-0.4-1.5C47,58.9,47.7,58.6,47.7,58.6z"></path><path class="st1" d="M48.2,59.6c-1.1,0.5,1.9,0,1.3,1.2C49,62,48.1,61.5,47.9,61C47.8,60.6,49.2,59.1,48.2,59.6z"></path><g>
	<path class="st5" d="M45.8,102.5c0.5-7.8,0.3-16.3,0.3-24.1c-0.1-3,0-6-0.6-8.9c-2.4-12.5-6.3-26-8.4-38.6c-1.4-8-2.8-16-3.7-24.1
		c0.4-0.3,5.1,23.8,5.3,23.8c2.7,13.1,7,26.9,9.6,40c0.7,6.7,0.5,13.3,0.5,20c-0.1,3.6-0.1,8.7-0.4,12.3
		C48.4,102.8,45.8,102.5,45.8,102.5L45.8,102.5z"></path>
</g><path class="st6" d="M41,48.5c-0.7-0.1-1.9,5.1-4.2,5.2c-2.3,0.1-3.2,0-3.9-0.3s-1.2-0.8-1-0.2c0.2,0.6,2.4,2.3,3,2.5
	c0.6,0.2,4.8,1.1,5.5,1c0.7-0.1,2-0.1,2.3-0.2s0.8-1,0.7-1.4C43.5,54.8,41,48.5,41,48.5z"></path><path class="st7" d="M40.8,47.6c-0.6-0.5-0.7-0.6-1.6-0.5s-1.5,0.1-2.2-0.2c-0.7-0.3-2.6-1.2-1,0.1s3,1.4,3.9,1.9
	c0.9,0.5,1.4,0.9,1.4,0.9s0,0.6,0.8-0.8c0.8-1.4,0.6-1.7,2-2.7c1.4-1,2.2-1.5,2-2.6s-0.3-1.9-0.7-1.9c-0.4,0,0.4,0-1.1,0.8
	c-1.6,0.9-2.1,0.9-2.4,1.6s-0.1,2.1-0.3,2.5C41.3,47.2,40.8,47.6,40.8,47.6z"></path><g>
	<path class="st8" d="M40,42.7c1.8-2.1,3.3-4.2,5.4-6c0,0,0.2,0.4,0.2,0.4c-0.4,0.4-0.8,1-1.2,1.5c-1.2,1.6-2.3,3.3-3.4,4.9
		C41,43.4,40,42.7,40,42.7L40,42.7z"></path>
</g><g>
	<path class="st8" d="M39.8,42.9c-1.9-0.3-3.7-0.9-5.6-0.8l0-0.1c0.9-0.2,1.9-0.2,2.8-0.2c0.7,0,2.1,0.1,2.7,0.1
		C39.8,41.8,39.8,42.9,39.8,42.9L39.8,42.9z"></path>
</g><g>
	<path class="st8" d="M31.9,27.7l5.6,1.6l-0.4,0.1c0.6-0.6,2.3-2.2,2.9-2.7c0.3-0.3,0.6-0.6,1-0.9l0.1,0.1c-0.3,0.3-0.6,0.7-0.9,1
		c-0.5,0.6-2,2.4-2.5,3.1c0,0-0.2,0.2-0.2,0.2L37.3,30l-5.4-2.2L31.9,27.7L31.9,27.7z"></path>
</g><path class="st6" d="M47,80.4c-0.2-0.6-0.7-1-1.8-1.7c-1.1-0.7-4.9-0.9-4.9-0.9l-3.3-1l0.4,0.6l-3.8-0.6l0.1,0.6
	c0,0-2.1-0.2-2.7-0.2c-0.6,0-1.5-1.2-1.5-1.2c0.3,1.2,1.4,1.7,1.6,1.9c0.2,0.2,1.5,0.1,3.1,0.3c1.6,0.3,5.8,1,9.2,1.6
	c3.4,0.6,3.1,2.2,3.1,2.2S47.2,81,47,80.4z"></path><path class="st7" d="M43.3,79.8c-3.4-0.6-7.6-1.3-9.2-1.6c-1.6-0.3-2.9-0.1-3.1-0.3c-0.2-0.2-1.3-0.7-1.6-1.9c0,0,0,0.8,0.6,1.8
	c0.5,0.9,0.5,0.5,2.5,1.5c2,1,4.6,0.9,9,1.3c4.4,0.4,4.9,1.4,4.9,1.4S46.7,80.4,43.3,79.8z"></path><path class="st6" d="M45.1,66.3c0,0-5.7-1-8-1.5c-2.3-0.5-3.1-0.5-3.1-0.5l0.4,0.6l-3.1-0.4c0,0-1.8-0.2-2.4-0.2
	c-0.6-0.1-2.3-0.5-2.3-0.5c3.8,2.1,4.3,1.9,9.1,2.7C40.5,67.4,41.9,66.8,45.1,66.3z"></path><path class="st7" d="M28.6,65.3c1.6,0.9,6.1,2.4,7.9,2.6c1.8,0.1,2.8,0.1,3.7,0.1c0.9,0,2.5-0.3,3.1-0.3c0.6,0,1.7-1.4,1.7-1.4
	c-3.2,0.5-4.5,1-9.4,0.3c-4.8-0.8-5.3-0.6-9.1-2.7C26.6,63.9,27,64.4,28.6,65.3z"></path><path class="st6" d="M61.3,79.6c-1.5,0.3-4.2,1.2-6.1,2c-2,0.8-5.9,3.1-6.4,3.6c-0.6,0.5-1,1.2-1.1,1.4c-0.1,0.1-0.2,0.9,0.2,1.7
	c2.4-2,9.9-7,14.2-8.8C61.9,79.5,61.7,79.5,61.3,79.6z"></path><path class="st9" d="M48.2,88.9C48.2,88.9,48.2,88.9,48.2,88.9c-0.1,0-0.2-0.1-0.3-0.1C48,88.9,48.2,88.9,48.2,88.9z"></path><path class="st9" d="M47.9,88.5c0-0.1-0.1-0.1-0.1-0.2c-0.2,0.1-0.3,0.3-0.4,0.4c0,0,0.2,0.1,0.5,0.1C47.8,88.8,47.7,88.6,47.9,88.5
	z"></path><path class="st9" d="M47.9,88.8c0.1,0,0.2,0,0.3,0.1c-0.1-0.1-0.2-0.3-0.3-0.4C47.7,88.6,47.8,88.8,47.9,88.8z"></path><path class="st7" d="M49.6,87.5c3-1.2,6.9-3.4,8.2-4.2c1.4-0.8,3-2,3.5-2.8c0.3-0.6,1-1,0.7-1c-4.4,1.8-11.8,6.7-14.2,8.8
	c0,0.1,0.1,0.1,0.1,0.2C48.1,88.2,48.6,88,49.6,87.5z"></path><path class="st9" d="M48.2,94.4c0,0,0.1,0.1,0.1,0.1l-0.2-0.2C48.1,94.3,48.1,94.4,48.2,94.4z"></path><path class="st9" d="M48.3,94.5c-0.1,0-0.1-0.1-0.1-0.1C48.2,94.5,48.3,94.5,48.3,94.5z"></path><path class="st6" d="M51,91.4c3-0.9,10-4.5,13.6-5.4c0-0.2,1-0.8-1.5-0.2s-9.7,4.3-10.4,4.5c-0.8,0.2-4.9,2.1-4.7,2.3
	c0.1,0.2-0.3,0.8-0.1,1.3C48.5,92.9,48,92.3,51,91.4z"></path><path class="st9" d="M47.9,94.1c0.1,0.1,0.1,0.2,0.2,0.3c0,0-0.1-0.1-0.1-0.1L47.9,94.1z"></path><path class="st9" d="M47.8,94L47.8,94C47.9,94.1,47.9,94,47.8,94C47.8,94,47.8,94,47.8,94z"></path><path class="st7" d="M50.9,92.2c4.1-1.6,9.1-3.1,10.7-4c1.7-0.9,3-1.9,2.9-2.2C61,86.9,54,90.6,51,91.4c-2.9,0.8-2.5,1.5-3.1,2.5
	c0,0,0,0.1,0.1,0.1l0.2,0.2C47.9,93.9,48.2,93.3,50.9,92.2z"></path><path class="st6" d="M51.2,99.4c0.4-0.2,8.3-3.2,9.1-3.4c0.8-0.2,4.1-2.5,5.4-3.1c0-0.4-0.3-0.4-1.6-0.1c-1.4,0.3-2.6,1.1-4.7,2.3
	c-2.1,1.3-4.8,2.8-8.9,3.8c-4.2,1-2.4,1.2-2.4,1.2l0,1.2c0.3-0.2,0.6-0.4,0.9-0.6C49.8,100.2,50.8,99.6,51.2,99.4z"></path><path class="st7" d="M49.3,101.7c0.9-0.8,2-1.4,3.1-2c1.1-0.6,8.6-3.1,10.4-3.9c1.9-0.8,2.9-2.6,2.9-2.9c-1.3,0.7-4.7,2.9-5.4,3.1
	c-0.8,0.2-8.7,3.2-9.1,3.4c-0.4,0.2-1.4,0.8-2.3,1.3c-0.3,0.1-0.6,0.3-0.9,0.6l0,1.3C48.1,102.6,48.4,102.5,49.3,101.7z"></path><path class="st6" d="M29.3,92.6c-2.7,0.5-3.4,0.9-5.5,1c-2.1,0.1-2.9,0.3-2.7,0.6c2.6,0.4,5.2,0.3,7.4,0.4
	c2.2,0.2,12.8-0.5,17.5,0.4l0.5-0.6C43.4,92.2,31.9,92.1,29.3,92.6z"></path><path class="st7" d="M21.1,94.2c0.3,0.3,5.1,2,7.9,1.7c2.8-0.2,7.6,0,9.8-0.2c2.2-0.2,2.1-0.2,4.3-0.4s2.9-0.2,2.9-0.2
	c-4.8-0.9-15.4-0.3-17.5-0.4C26.3,94.4,23.7,94.6,21.1,94.2z"></path><path class="st0" d="M47.6,72.7c-0.3,0.3-0.8,1.2-2.4,1.4c-1.6,0.3-2.7-0.2-2.9,1.1c-0.1,1.3,1.6,4.1,2.3,4.2c0.8,0.1,1.3-0.2,1.5,0
	s1.1,1,1.9-0.2s1.5-1.1,1.1-2.4c-0.4-1.3-0.2-1-0.5-1.9c-0.2-0.9-0.2-1.8-0.2-1.8L47.6,72.7z"></path><path class="st2" d="M49.8,72.5c-0.2,0.3-2.1,2.3-2.4,3c-0.3,0.7-0.7,1.3-0.4,2.4c0.2,1.2,0,2.9,1.9,3.1c1.9,0.2,2.3,0.3,3.5-0.3
	c1.2-0.6,2.2-1.2,2-2.2s0-0.9-0.2-2c-0.2-1.1,0.4-1.8-0.7-2.5s-1.1-0.6-1.9-0.9C50.8,72.7,49.8,72.5,49.8,72.5z"></path><path class="st2" d="M47.6,72.7c0,0-1.2-0.8-2.6-1.2c-1.4-0.4-1.5,0.2-2-1.1c-0.5-1.3,0.3-2.2,1.2-3.2c0.9-0.9,1.3-1.7,1.8-1.7
	s1.1-0.6,1.6,0.1s0.6,1.3,0.9,1.7s0.1,1.5,0.1,1.5S48,66.4,49,66.3c0.9-0.2,1.6,0.2,2.1,0.8c0.5,0.6,0.9,1,1.5,1.1
	c0.6,0.1,1,0,1.1,1s0.3,1.4-0.8,1.8c-1.1,0.4-1.2,0.2-1.8,0.6s-0.2,0.3-1.4,0.8C48.6,73.1,47.6,72.7,47.6,72.7z"></path><path class="st0" d="M50.9,72.6c0.2-0.1,2.5-1.4,2.9-1.5c0.4-0.2,0.8-1,1.4-0.5s1.1,0.3,1.1,1.6s0.1,1.8-0.6,2.9s-0.3,1.8-1.5,1.4
	c-1.2-0.3-1.5-0.9-2-1.4s-1-0.3-1.5-0.9c-0.5-0.6-0.7-1-0.7-1L50.9,72.6z"></path><path class="st1" d="M48.7,70.3c0.6,0,0.3,0.5,1.4,0.9c1.1,0.5,0.2,1,0.8,1.4c0.6,0.5,0.3,0.6-0.2,0.9c-0.4,0.2-0.2,0.3-1.1,0.8
	c-0.9,0.6-0.4,0.5-0.9,0.6c-0.5,0-0.7,0.4-1.4,0.1c-0.6-0.2-1.1-0.4-1.2-1.2C46,73,45.8,73,46,72.5s0-0.8,0.5-1.1
	S48.7,70.3,48.7,70.3z"></path><path class="st3" d="M48.8,71.2c0.4,0.1,0.4-0.2,0.7,0.5c0.3,0.7,0.9,0,0.3,0.7s-0.4,1.5-1.1,1.3s-1,0.3-1.3-0.1
	c-0.3-0.4,0.2-1,0.2-1l1,0.4c0,0,0.3-0.7,0-1c-0.3-0.3-0.7-0.1-0.7-0.3C48,71.5,48.8,71.2,48.8,71.2z"></path><path class="st10" d="M38.8,66c-0.1,0.3-0.6,1.6-1.4,2.6s-2.3,1.9-1,2.7s1.4,1.5,2.4,0.8c1-0.7,0.9-0.2,1.6,0.5
	c0.7,0.7,0.7,1.3,2,0.7c1.3-0.6,2.2-0.4,2.6-1.2c0.5-0.8,1-0.4,0.6-1.6c-0.4-1.1-0.3-0.9-0.9-1.7s-1.2,0-1.4-1.1
	c-0.2-1.1,0-0.8-0.8-1.4s-0.6-0.6-1.6-0.5C39.9,65.9,38.8,66,38.8,66z"></path><path class="st0" d="M39.6,67c0,0-2.4-0.8-2.5-2.1c-0.1-1.3-1.5-2.6-0.3-3.3c1.2-0.6,2-1.3,2.6-0.9c0.5,0.3,0,0.3,0.5,0.3
	s0.1,0,1.1-0.6c1.1-0.6,1.1-1,2-0.7c0.9,0.3,1.7,0.1,1.9,1c0.2,1,1.3,2.4,1.6,2.7c0.3,0.3,0.8,0.8,0.6,1.3c-0.2,0.5,0.1,1.2-0.4,2
	s-0.9,1.2-1.8,1.3c-0.9,0.1-1.8-0.2-3.2-0.1C40.2,68,39.6,67,39.6,67z"></path><path class="st1" d="M39.7,64.1c1-0.3,1.1-0.8,2.1-0.2c1,0.6,2,1.1,2,1.6s0.1,1.2-0.5,1.6s-0.7,0.4-1.5,0.7
	c-0.9,0.3-0.8,1.1-1.5,0.1s-0.9-1-1.2-1.5c-0.3-0.5-0.6-0.8-0.3-1.3C39,64.6,39.7,64.1,39.7,64.1z"></path><path class="st3" d="M40.6,64.3c1.2-0.4,1.8,0.1,2,0.4c0.1,0.3,1.1,1,0.6,1.3c-0.6,0.3-0.4,2-1.4,1.9c-1-0.1-2.7-0.9-2.1-0.9
	c0.6,0,1.1,0,2-0.4c0.9-0.3,2.6,0.2,0.9-0.3s-1-0.6-1.6-0.5s-0.8-0.2-0.5-0.5C40.6,65.1,40.6,64.3,40.6,64.3z"></path><path class="st0" d="M47.7,52.1c-1.4-1.4-1.5-1.8-2.4-1.8s-1.4,0-1.6,0.1s1.3-0.6-0.6-0.6c-1.9,0-2.8-0.2-2.9,0.8s-1.4,4.1-0.8,4.3
	s0.6,0.1,1.5-0.1c0.9-0.3,1.6-0.9,2.5-0.2c0.9,0.7,0.9,1,1.4,1s0.8-0.2,1.5-0.9s0.2-0.3,1-0.5C48.2,53.9,48.6,53,47.7,52.1z"></path><path class="st4" d="M45.8,54.7c0,0,0.8-0.1,1.7,0.3c0.9,0.4,0.7,0.2,1.8,0.2s1.7,0.2,1.4,1.4s0,1.7-1.1,1.8s-1.2,0.5-1.8,0.2
	c-0.6-0.3-0.4-0.3-1.1-0.4c-0.7-0.1-1.4-0.6-1.7-1.4c-0.3-0.7-0.1-1.3-0.1-1.3L45.8,54.7z"></path><path class="st2" d="M42.7,55.8l-2.1,1c0,0-1.7,0.7-1.8,1.4c-0.1,0.7-0.8,2,0.2,2.4c1,0.4,1.3,1.2,2.3,0.9c0.9-0.3,1.4-0.4,2.2-1
	s1.4-0.4,1.8-0.5s0,0.2,1-0.7c1-0.9,1,0.5,1.6-0.6c0.6-1.1,2.3-1.6,1-1.7c-1.3-0.1-2.4,0.4-2.8,0.4s-0.9,0.8-1.1-0.5
	c-0.1-1.3-1.4-1.7-1.4-1.7L42.7,55.8z"></path><path class="st1" d="M43.9,53.3c0,0,0.9-0.7,1.7,0.3c0.8,1.1,0.7,2.9,0.2,2.7c-0.4-0.1,0.3,1.2-0.9,0.6c-1.1-0.7-2.1-0.4-2.1-0.4
	s-1.1,0.4-1.1-0.4c0.1-0.7-0.7-0.9-0.1-1.6C42.2,53.9,42.7,54.1,43.9,53.3z"></path><path class="st3" d="M44.5,54.1c0.5-0.2,1.4,1.2,0.9,1.3c-0.5,0.1-0.6,1.4-1.2,0.5c-0.6-0.8-1.5-0.2-1.5-0.2s-0.7-0.4-0.3-0.8
	c0.4-0.4,1.1-0.3,1.1-0.3L44.5,54.1z"></path><path class="st2" d="M27.7,56.6c0,0.4,0,2.7,1.2,2.8s1.4,0.7,1.7-0.1c0.3-0.9-0.4-1.4,0.7-1.3c1.1,0.1,1.3,0.1,1.5-0.3
	c0.3-0.3,1.2-1.3,0.3-2c-0.9-0.7-0.4,0-1.6-0.5c-1.2-0.5-2.5-0.9-3-0.6c-0.5,0.3-1,0.6-1,0.6L27.7,56.6z"></path><path class="st2" d="M32.5,48.7c0.3-0.6,0.5-1.4,1.3-2c0.9-0.6,1.1-1.1,1.4-0.7s1.2,1,0.1,2c-1,1-1.6,1.2-2,1.4S32.5,48.7,32.5,48.7
	z"></path><path class="st0" d="M31.5,50.8c0-0.5-0.6-1.4-0.2-1.9c0.4-0.5,1.6-1.6,1.8-0.5c0.2,1.1,1.2,2.4,0.8,3.1c-0.4,0.7-0.5,1.1-0.6,2
	c-0.1,0.9,0.7,1.3-0.3,2.2c-1,0.9-1.9,1.5-2.7,1.7c-0.8,0.3-1.3,1-1.6,0.3s0-0.5-0.1-1.3s-0.2-1.3,0.4-2.1c0.6-0.8,1-1.7,1.1-1.8
	c0.1-0.1,0.9-0.7,0.9-0.7L31.5,50.8z"></path><path class="st2" d="M30.8,52.7c-0.6-0.3-1.4-0.1-2.5,0.2s-1.8,1.7-2.1,2.3c-0.3,0.6-1,1.9-0.1,1.9s1.9-0.6,2.6-1.3
	c0.7-0.7,0.8-0.7,1.1-1.1c0.3-0.4,0.2-0.6,0.6-1S30.8,52.7,30.8,52.7z"></path><path class="st1" d="M31.2,51.8c0,0,1-0.4,0.8,0.5c-0.2,0.9-0.5,1.5-1.1,1.5c-0.6,0-0.5,1.5-1.2,1c-0.6-0.4-0.5-1.2-0.4-1.4
	C29.3,53.2,31.2,51.8,31.2,51.8z"></path><line class="st3" x1="46.6" y1="60.7" x2="48.2" y2="59.6"></line><path class="st2" d="M44.9,29c0,0,0.1-1.7-1.3-2.7c-1.3-1-2.3-2-3.4-1.2c-1.1,0.9-2.5,3.8-1.5,4.4c1,0.6,1.2,0.8,2.1,0.7
	c0.9-0.1,2,0,1,0.5c-1,0.6-1.3,0.9-2,0.6c-0.7-0.3-1.4-2.2-1.6-0.3c-0.2,1.9-2,2.8-0.5,3.4c1.5,0.6,2.3,1.7,3.2,1.7
	c1,0,1.9,0.3,2.3-0.2c0.3-0.5,0.6-1.3,0.3-2c-0.3-0.6-0.4-1.9-0.2-2.2c0.3-0.2,0.5-0.6,0.6-0.8c0.1-0.2,0.2-0.7,0.2-0.7L44.9,29z"></path><path class="st2" d="M43.9,29.1c0,0,3.6,1.3,4,1.9c0.4,0.6,0.6,2.2,0.7,2.8s1.3,1.8,0.2,2.7s-1.5,1.1-2.5,1c-1-0.1-2.2,0.1-2.1-0.9
	c0-1,0.1-1.5-0.5-2c-0.6-0.5-0.7-0.1-0.9-1.5c-0.2-1.4-0.3-1.8-0.1-2.2C43,30.6,43.9,29.1,43.9,29.1z"></path><path class="st1" d="M43.4,28.5c0.5,0.6,1.4,0.2,1.5,1.3c0.1,1.1-0.3,0.9,0.3,1.8c0.6,0.8,1.9,0.8,0.9,2c-1,1.2-0.9,1.2-1.4,0.4
	c-0.5-0.7-1.1-1.1-1.7-1.6c-0.6-0.5-1-1.7-1-1.7s0.4-1.5,0.5-1.7C42.6,28.8,43.4,28.5,43.4,28.5z"></path><path class="st3" d="M43.5,29.7c0.4-0.7,0.5,0.5,0.5,1.2s1.1,1.5,1,1.9s-1.4,0.1-1.5-0.5c-0.1-0.6,0.6,0.1-0.1-0.6
	C42.8,31,43.5,29.7,43.5,29.7z"></path><path class="st2" d="M47.2,42c0,0,1.3,0.2,0.9,1.2c-0.4,1.1-0.2,2.1-1,1.6c-0.9-0.4-1.5-0.8-1.5-0.8S45.8,41.7,47.2,42z"></path><path class="st0" d="M26.7,45.2c-0.9,0.5-1.6,1.9-1.4,2.3c0.1,0.3,1.1,2.8,1.9,3.1s1.3,0.1,1.7-1.1c0.5-1.2,0.3-2.4,0.4-3
	c0.1-0.6,0.7-2.7,0.9-1.6c0.2,1.1-1.1,2.2,0,2.1c1.1,0,1.1,0.3,1.9-0.9c0.7-1.2,1.9-2.3,2-2.9c0.1-0.6,0.3-1.5-0.4-2.5
	c-0.7-1-1.8-2.5-2.4-1.5c-0.5,1-0.3,1.5-0.8,2.7S26.7,45.2,26.7,45.2z"></path><path class="st2" d="M32.8,38c-0.1-0.8-0.9-1.3-1.7-1.8c-0.4-0.2-0.6-0.2-0.8,0c0,0.2,0,0.5-0.1,0.8c-0.4,1.5-2,2.7-2.4,3.7l1.7,0.8
	c0,0,0.6-0.1,1.5-0.5c0.9-0.4,1.5-0.1,2-0.7C33.5,39.8,32.9,38.8,32.8,38z"></path><path class="st0" d="M30.3,36.2c-0.3,0.2-0.7,0.7-1.4,1.2c-1.3,0.9-1.1,3.3-1.1,3.3c0.5-1,2-2.2,2.4-3.7
	C30.3,36.7,30.3,36.4,30.3,36.2z"></path><path class="st2" d="M29.2,40.6c-0.5,0.7-1.8,1.2-2.6,2.1c-0.8,0.9-0.8,1.5-0.7,2.2c0.1,0.7-0.6,1.7,0.8,1.4s1.4-0.2,2.1-1
	c0.7-0.8,0.7-0.5,1-1.3c0.3-0.7,1.4,0,0.6-1.3S29.2,40.6,29.2,40.6z"></path><path class="st1" d="M28.3,42.9c0.1,0.5-0.1,1.3,0.6,1.5c0.7,0.2,0.1-0.4,1-0.4c0.9,0,1-0.2,1.3-0.9s0.5-0.4,0.7-1.8
	c0.2-1.3-0.7-2-0.7-2s-1.1-0.3-1.3,0.1s-0.4,2.1-0.4,2.1s0.2,0.5-0.2,0.6C28.9,42.2,28.3,42.9,28.3,42.9z"></path><path class="st3" d="M30.3,42l0.7-1c0,0,0.9-2,0.2-1.7c-0.7,0.3-1.4-0.9-1.3,0.1s0.2,1.9,0.2,1.9L30.3,42z"></path><line class="st11" x1="33.5" y1="20.5" x2="36.5" y2="23.4"></line><path class="st10" d="M33.9,19c0.2,0,0.6,0.5,0.8,1.1c0.2,0.6,0.2,1,0.1,1.3C34.7,21.6,34.4,22,34,22c-0.4,0.1-0.5,0.6-1.2-0.2
	s-0.5-0.8-0.5-1.2c0-0.4-0.4-0.4-0.1-0.8c0.4-0.4,0.1-0.8,0.5-0.7C33.1,19.2,33.9,19,33.9,19z"></path><path class="st6" d="M36.5,18.7c0,0-0.5,0.4-0.7,0.9c-0.2,0.4-0.4,0.9-0.6,1.9c-0.1,1,0.8,1.7,1,1.9C35.8,22.8,36.5,18.7,36.5,18.7z
	"></path><path class="st7" d="M37.1,20.2c-0.2-1-0.6-1.5-0.6-1.5s-0.7,4-0.3,4.7c0,0,0.6-0.9,0.6-1.2C36.8,21.9,37.3,21.3,37.1,20.2z"></path><g>
	<path class="st5" d="M38.9,14.1c-1.1,1.3-2.1,2.6-3.3,3.7c-0.3,0.1-0.4,0-0.6-0.2c0,0-2.1-1.4-2.1-1.4c-0.7-0.5-1.4-1-2.1-1.4
		l0-0.1c0.9,0.2,1.6,0.7,2.4,1.1c0.8,0.5,1.7,0.9,2.4,1.5c0,0-0.2-0.2-0.4-0.1c-0.1,0.1,0,0-0.1,0c0.5-0.5,1.1-1.1,1.6-1.6
		c0.6-0.6,1.3-1.2,2-1.7L38.9,14.1L38.9,14.1z"></path>
</g><path class="st6" d="M29.5,13.6c0.3-0.2,2.2,1.6,1.6,1.9s-1.3,0.5-1.7,0.3S27.4,14.7,29.5,13.6z"></path><path class="st0" d="M38.8,13.1c0-0.1,0.9-0.6,1.2-0.1c0.3,0.5,0,1.3,0.1,1.6s0.1,0.8-0.4,0.7c-0.5-0.1-0.8-0.2-0.8-0.2
	S38.4,14,38.8,13.1z"></path><path class="st6" d="M35,9.6c-2,1.2-1.3,2.4-1.2,2.9c0,0.5,0.9,0.7,0.9,0.7C34.5,12.7,35,9.6,35,9.6z"></path><path class="st7" d="M35.7,11.1C36,10.5,35,9.6,35,9.6s-0.4,3.1-0.4,3.6c0,0,0.5-0.7,0.6-0.8C35.3,12.3,35.4,11.8,35.7,11.1z"></path><path class="st2" d="M31.6,11.4c-0.1,0.3,0.8,1.4,0.8,1.4s0.1,0.3,0.4-0.2c0.3-0.5,0.7-0.6,0.4-1c-0.3-0.4-0.7-0.9-1-0.9
	C32,10.7,31.6,11.4,31.6,11.4z"></path><path class="st7" d="M33.4,9.8c0.3,0,0.7,0,0.9,0.4c0.2,0.4,1,0.4,0.1,0.8s-1.1,1.2-1.2,0.7C33.2,11,31.8,9.9,33.4,9.8z"></path><path class="st0" d="M34.2,6.7c0,0,0.7-0.4-0.2-0.9s-0.7-1-1.4-0.4c-0.7,0.5-0.9,0.8-0.7,1.2s0.6,0.9,0.8,0.8
	C32.9,7.2,34.2,6.7,34.2,6.7z"></path><path class="st6" d="M31.6,7.3c-1.2-0.6-2.4-1.1-3-1.1c-0.6,0-1,0.6-1,0.6c2.2-0.1,6,2.4,6,2.4S32.8,7.9,31.6,7.3z"></path><path class="st7" d="M29.6,8.2c0.9,0.4,2,0.9,2.6,1c0.6,0.1,1.3-0.1,1.3-0.1s-3.7-2.5-6-2.4C27.6,6.7,28.7,7.8,29.6,8.2z"></path><path class="st6" d="M35,7.3c-0.2,0.3-0.4,0.5-0.4,0.7c0,0.2,0,1.1,0,1.1l2.1-2.7C36.3,6.5,35.1,7,35,7.3z"></path><path class="st7" d="M37.1,6.8c0-0.4,0.1-0.7-0.4-0.5L34.6,9c0,0,0.9-0.6,1.4-1C36.6,7.6,37.1,7.2,37.1,6.8z"></path><path class="st6" d="M30.4,24.6c0.4,0,0.9,0.2,1.1,0.6c0,0,1.1,1,1,1.2c0,0.2-0.6,2.7-0.8,2.7s-0.9,0.4-1,0.4c0,0-0.5,0.2-0.5-0.1
	c0-0.3-0.4-2-0.2-2.3c0.2-0.2,0.1-0.5,0.1-1.1C30.2,25.4,30.4,24.6,30.4,24.6z"></path><path class="st2" d="M29.1,26.5c0,0-0.9,1.1-0.9,1.5c0.1,0.3,0.2,1.4,0.8,1.5c0.5,0.1,0.8-0.3,1.3-0.2c0.5,0.1,1.1-0.8,1.2-1.2
	s0-0.7-0.4-1c-0.3-0.3-0.7-0.4-0.9-0.4S29.1,26.5,29.1,26.5z"></path><path class="st0" d="M29.6,25.1c-0.3,0.1-1.4,1.1-1.4,1.5s0.4,1.5,0.4,1.5c0.1,0,0.7,0,1.3-0.1c0.6-0.1,1-0.2,1.2-0.8
	c0.1-0.6,0.3-0.7,0.1-1.3C31,25.3,31,25.5,30.7,25s-0.5-0.9-0.8-0.4C29.6,25.1,29.6,25.1,29.6,25.1z"></path><path class="st6" d="M46.7,88.4l-0.7-0.7c-0.4-0.3-6.1-5.1-8.3-5.3c-2.2-0.2-4.3-0.4-5.3-0.3c-1,0.1-2.1-0.3-1.9,0.2
	c1.9,0,3.8,0.4,5.7,1.3C38,84.5,46.7,88.4,46.7,88.4z"></path><path class="st7" d="M37,85.8c1.3,0.7,4.7,2,6.3,2.1c1.6,0.2,3.4,0.5,3.4,0.5s-8.6-3.9-10.5-4.8c-1.9-0.9-3.8-1.3-5.7-1.3
	C30.6,82.7,35.8,85.1,37,85.8z"></path><path class="st10" d="M29.5,13.6c0.2,0.1,0,0.5,0.1,0.7c0.1,0.2,0.2,0.9,0,1s-0.8,0.1-0.8,0.1s0.1,0.1-0.1-0.4
	c-0.2-0.5-0.3-0.3-0.2-0.5C28.7,14.3,29.1,13.4,29.5,13.6z"></path><path class="st0" d="M69.4,48.4c0.4-0.3,2.2-0.9,1.9-1.8c-0.3-0.9,1.1-1.7,1.1-2.5c0-0.8,0.6-2.1-0.1-2.5c-0.7-0.4-5.2-0.7-5.8-0.6
	c-0.6,0.1-1.6,0.2-1.8,1.3c-0.2,1.1,0.1,1.8,0.4,2.8c0.3,1,0.1,2.3,0.6,2.7c0.6,0.5,0.9,0.8,1.6,0.8C68.1,48.6,69.4,48.4,69.4,48.4z
	"></path><path class="st1" d="M68,46.1c-0.8-0.3-2.2,0-2.3-1.2c-0.1-1.2-0.4-1.9,0.7-2c1.1-0.1,1.5-1.2,2.3-0.3c0.8,0.9,1.6,0.7,1.1,1.4
	c-0.5,0.7,0.3,0.5-0.7,1.3S68,46.1,68,46.1z"></path><path class="st0" d="M79.2,40.8c0.5,0,1.9-0.6,2.6,0.4c0.7,1,0.9,2.5,0.5,2.9c-0.4,0.4-1.6,2.5-2.8,3s-2.5,0.8-2.9,0.4
	c-0.4-0.3-1-0.6-1.1-1.3c-0.2-0.7-0.4-0.8-0.6-1.9c-0.2-1.1-0.8-1.2-0.1-1.9c0.8-0.8,1.5-1.2,1.5-1.2s0.8-0.3,1.3-0.3
	C78.1,40.7,79.2,40.8,79.2,40.8z"></path><path class="st2" d="M80,41.1c0.3-0.4,0.9-0.1,0.9-1.2c0-1.1-0.3-2.6-0.9-3.1c-0.5-0.5-0.4-1-1.2-0.8c-0.7,0.2-0.8,0.4-1.3,0.2
	c-0.5-0.2-0.8,0-1.4-0.2c-0.7-0.2-1.4-0.6-1.6,0.2c-0.2,0.8-0.1,0.9,0,1.6c0.1,0.7-0.1,2.1-0.2,2.5c0,0.4,0,0.7,0.1,1.4
	s0.3,1.2,0.9,1.2c0.6,0,1.6-0.5,1.9-0.7C77.7,41.9,80,41.1,80,41.1z"></path><path class="st1" d="M76.9,38.4c-0.5,0.1-1.4,0.6-1.4,1.4c0,0.8,0.1,2,0.1,2.2s0.2,0.9,1,0.5c0.8-0.4,2.2,0.4,2.2-1
	c0-1.3-0.2-1.4-0.3-2c-0.1-0.6-0.6-1-0.6-1L76.9,38.4z"></path><path class="st3" d="M77.1,38.9c-0.5,0-0.8,0.5-0.9,0.9c-0.1,0.4,0-0.1,0.7,0.4c0.7,0.5,1,0.1,1-0.1c0-0.3-0.1-0.4-0.1-0.7
	S77.1,38.9,77.1,38.9z"></path><path class="st2" d="M69.6,55.2c0.1-0.3-1.5-2.5-2.3-3.3s-1.1-0.4-1.3,0.2c-0.2,0.6-0.2,0.8-0.8,0.7c-0.5-0.1-1.3-0.6-1.8,0.4
	s-0.8,1.3-0.1,2.3c0.7,1,0.2,1,1.2,1.4c1,0.4,2.4,0.8,2.9,0.5c0.5-0.3,1.7,0.2,1.8-0.6S69.6,55.2,69.6,55.2z"></path><path class="st4" d="M64.5,53.4c0.6,0.2,1,1.6,1.7,1.6s1.2-1.3,0.7,0c-0.5,1.3-0.7,2.1-1.6,2.1c-0.9-0.1-2,0.4-2.5-0.4
	c-0.5-0.8-0.7-1.2-0.5-1.7c0.1-0.5,0.2-0.4,0.6-1.1C63.5,53.3,64.5,53.4,64.5,53.4z"></path><path class="st2" d="M59.7,68.2c0.1,0.5-0.6,2.1,0.9,1.2s1.1-0.1,1.8-1.4c0.8-1.3,0.1-1.6,0.3-2.1c0.2-0.5,0.2-0.7,0.4-1.4
	c0.3-0.7,0.9-1.6,0.9-1.6s-0.4-1-0.7-2.1c-0.4-1.1-1.2-1.4-2.2-1.4c-1,0-1.9-0.4-1.7,1.2c0.2,1.5,0.7,1.9,0,2.5
	c-0.7,0.7-0.9,0.1-1,1.4c-0.1,1.2,0.3,1.2,0.5,1.7c0.2,0.5,0.4,0.8,0.6,1.1C59.6,67.5,59.7,68.2,59.7,68.2z"></path><path class="st4" d="M63.3,60.8c1.3,0.7,2.5,0.8,2.8,1.2c0.3,0.4,0.7,0.8,0.9,1.8c0.2,1,0,1.5-0.1,2.1c-0.1,0.6-0.5,0.8,0,1.6
	c0.5,0.7,1.7,0.5,0.3,1.5c-1.3,1,0.2,0.8-1.3,1c-1.5,0.3-1.1,0.1-2.3-0.1c-1.2-0.2-1.2,0.3-1.8-0.3c-0.6-0.6-0.4-0.4-0.8-1.6
	c-0.3-1.2,0.9-2.5,1.2-3.3c0.3-0.7,0.3-0.6,0.2-1.4C62.4,62.6,62.1,60,63.3,60.8z"></path><path class="st0" d="M64.1,62.8c0,0-1.7-1-1.6-0.3s-0.6,0.6-0.7,1.3c-0.1,0.7-0.3,0.7,0.1,1.5c0.5,0.8,0.8,1.5,1.3,1.7
	c0.5,0.2,1,0.2,1.3-0.6c0.3-0.8,0.3-1.5,0.5-1.7c0.2-0.2,1.2-1,0.5-1.3S64.1,62.8,64.1,62.8z"></path><path class="st1" d="M63.5,63.7c0.9,0.5-1.7-0.1-1.2,1c0.4,1.1,1.2,0.7,1.4,0.3C63.9,64.6,62.7,63.2,63.5,63.7z"></path><g>
	<path class="st5" d="M60.5,102.7c0.1-7.5,0.7-14.7,1.3-22.1c0.3-2.7,0.5-5.7,1.3-8.3c2.1-7.2,5.3-16.4,7.7-23.6
		c2.4-7,7.3-24.3,9.5-31.6c0,0,0.1,0,0.1,0c-0.7,3.6-1.5,7.2-2.4,10.8c-1.7,7.2-3.4,14.3-5.5,21.4c-2,6.2-4.7,14.9-6.5,21
		c-2.2,7-2,14.3-2.7,21.5c-0.2,3.6-0.5,7.4-0.5,10.9L60.5,102.7L60.5,102.7z"></path>
</g><path class="st6" d="M70.8,54.1c0.6,0,1.4,4.7,3.4,5s2.9,0.2,3.5,0c0.6-0.2,1.1-0.6,0.9-0.1c-0.2,0.5-2.3,1.9-2.9,2.1
	c-0.5,0.1-4.4,0.7-5,0.6s-1.8-0.2-2.1-0.3s-0.7-1-0.6-1.3C68.1,59.7,70.8,54.1,70.8,54.1z"></path><path class="st7" d="M71.1,53.4c0.6-0.5,0.6-0.5,1.5-0.4s1.3,0.2,2,0c0.7-0.2,2.4-0.9,0.9,0.1c-1.5,1.1-2.8,1-3.6,1.5
	c-0.8,0.4-1.3,0.7-1.3,0.7s-0.1,0.6-0.7-0.8S69.4,53,68.2,52c-1.2-1-1.9-1.5-1.6-2.5c0.3-0.9,0.4-1.7,0.8-1.7c0.3,0-0.4-0.1,1,0.8
	c1.3,0.9,1.8,1,2,1.6c0.2,0.7,0,1.9,0.1,2.3C70.6,52.9,71.1,53.4,71.1,53.4z"></path><g>
	<path class="st8" d="M71.1,49.6c-1.2-2-2.3-4.3-3.7-6.1c0,0,0.2-0.3,0.2-0.3c1.8,1.7,3,3.8,4.4,5.8C72.1,49,71.1,49.6,71.1,49.6
		L71.1,49.6z"></path>
</g><g>
	<path class="st8" d="M72.4,48.2c1.6,0.1,3.5,0,5,0.5l0,0.1c-1.2-0.1-2.5,0.1-3.7,0.2c-0.4,0.1-0.8,0.1-1.3,0.2L72.4,48.2L72.4,48.2
		z"></path>
</g><g>
	<polygon class="st8" points="80.4,36.1 75.4,37.7 75.2,37.8 75,37.6 72.2,33.7 72.3,33.6 75.6,37.1 75.2,37 80.4,35.9 80.4,36.1 	
		"></polygon>
</g><path class="st6" d="M63.3,82.5c0.2-0.6,0.7-0.9,1.7-1.4c1-0.6,4.5-0.5,4.5-0.5l3-0.7l-0.4,0.5l3.5-0.3l-0.1,0.5c0,0,1.9,0,2.4,0
	c0.5,0,1.5-1,1.5-1c-0.4,1-1.4,1.4-1.6,1.6c-0.2,0.2-1.4-0.1-2.8,0.1c-1.4,0.2-5.3,0.5-8.4,0.8c-3.1,0.3-2.9,1.8-2.9,1.8
	S63.1,83.1,63.3,82.5z"></path><path class="st7" d="M66.6,82.3c3.1-0.3,7-0.6,8.4-0.8c1.4-0.2,2.6,0.1,2.8-0.1c0.2-0.2,1.2-0.6,1.6-1.6c0,0-0.1,0.8-0.6,1.5
	c-0.6,0.8-0.5,0.4-2.3,1.2c-1.9,0.8-4.2,0.5-8.2,0.6c-4,0.1-4.5,0.9-4.5,0.9S63.5,82.5,66.6,82.3z"></path><path class="st6" d="M66,70c0,0,5.2-0.5,7.3-0.8c2.1-0.3,2.9-0.2,2.9-0.2l-0.4,0.5l2.8-0.2c0,0,1.6,0,2.1,0c0.5,0,2.1-0.3,2.1-0.3
	c-3.6,1.6-4,1.5-8.4,1.8S68.8,70.6,66,70z"></path><path class="st7" d="M80.9,70.2c-1.5,0.7-5.7,1.8-7.3,1.8c-1.7,0-2.6-0.1-3.4-0.2c-0.8-0.1-2.2-0.4-2.8-0.4C66.9,71.3,66,70,66,70
	c2.9,0.7,4,1.2,8.4,0.9s4.8-0.2,8.4-1.8C82.8,69,82.4,69.5,80.9,70.2z"></path><path class="st6" d="M50.4,80.9c1.4,0.4,3.7,1.4,5.4,2.2c1.7,0.9,5.1,3.2,5.6,3.7c0.5,0.5,0.9,1.2,0.9,1.3c0,0.1,0.1,0.8-0.3,1.5
	c-2.1-2-8.4-7-12.3-8.9C49.8,80.7,50,80.8,50.4,80.9z"></path><path class="st9" d="M61.6,90.2C61.6,90.1,61.6,90.1,61.6,90.2c0.1,0,0.2,0,0.3-0.1C61.8,90.1,61.6,90.2,61.6,90.2z"></path><path class="st9" d="M61.9,89.8c0,0,0.1-0.1,0.1-0.1c0.1,0.1,0.3,0.3,0.4,0.4c0,0-0.2,0-0.5,0.1C62,90,62.1,89.9,61.9,89.8z"></path><path class="st9" d="M61.9,90.1c-0.1,0-0.2,0-0.3,0.1c0.1-0.1,0.2-0.3,0.3-0.4C62.1,89.9,62,90,61.9,90.1z"></path><path class="st7" d="M60.4,88.8c-2.6-1.3-6-3.5-7.2-4.3c-1.2-0.8-2.6-2-3-2.7c-0.3-0.5-0.8-0.9-0.5-1c3.8,1.9,10.2,6.8,12.3,8.9
	c0,0-0.1,0.1-0.1,0.1C61.8,89.6,61.3,89.3,60.4,88.8z"></path><path class="st9" d="M61.3,95.1c0,0-0.1,0.1-0.1,0.1l0.2-0.2C61.4,95,61.3,95.1,61.3,95.1z"></path><path class="st9" d="M61.2,95.2c0.1,0,0.1-0.1,0.1-0.1C61.2,95.2,61.2,95.2,61.2,95.2z"></path><path class="st6" d="M59.7,92.4c-1.9-0.9-6.2-4.3-8.5-5.2c0-0.2-0.6-0.8,1-0.1c1.6,0.6,6,4.1,6.5,4.3c0.5,0.2,3,2,2.9,2.2
	c-0.1,0.1,0.1,0.7-0.1,1.2C61.3,93.8,61.6,93.2,59.7,92.4z"></path><path class="st9" d="M61.5,94.9c-0.1,0.1-0.1,0.2-0.2,0.2c0,0,0.1-0.1,0.1-0.1L61.5,94.9z"></path><path class="st9" d="M61.6,94.8L61.6,94.8C61.6,94.8,61.6,94.8,61.6,94.8C61.6,94.8,61.6,94.8,61.6,94.8z"></path><path class="st7" d="M59.7,93.1C57.1,91.5,54,90,53,89.2c-1-0.8-1.8-1.8-1.8-2c2.3,0.9,6.6,4.4,8.5,5.2c1.9,0.8,1.5,1.4,1.9,2.4
	c0,0,0,0.1-0.1,0.1L61.4,95C61.5,94.7,61.4,94.1,59.7,93.1z"></path><path class="st6" d="M58.8,100.2c-0.3-0.2-5.7-2.6-6.2-2.8c-0.5-0.2-2.8-1.9-3.7-2.4c0-0.2,0.2-0.2,1.2,0c0.9,0.3,1.8,0.8,3.2,1.8
	c1.4,1,3.2,2.1,6.1,3c2.9,0.9,1.6,0.9,1.6,0.9l-0.1,0.8c-0.2-0.2-0.4-0.3-0.6-0.4C59.8,100.8,59.1,100.4,58.8,100.2z"></path><path class="st7" d="M60.1,101.9c-0.6-0.6-1.3-1-2.1-1.5c-0.7-0.5-5.9-2.5-7.2-3.2c-1.3-0.6-1.9-1.9-1.9-2.1
	c0.9,0.5,3.2,2.2,3.7,2.4c0.5,0.2,6,2.6,6.2,2.8c0.3,0.2,1,0.6,1.5,1c0.2,0.1,0.4,0.3,0.6,0.4l-0.1,0.8
	C60.9,102.5,60.6,102.5,60.1,101.9z"></path><path class="st6" d="M74.9,94.2c1.8,0.6,2.3,0.9,3.7,1c1.4,0.1,2,0.4,1.8,0.6c-1.8,0.3-3.6,0.1-5.1,0.2c-1.5,0.1-8.8-0.8-12.2-0.2
	l-0.3-0.6C65.2,93.3,73.1,93.6,74.9,94.2z"></path><path class="st7" d="M80.4,95.8c-0.2,0.2-3.7,1.6-5.6,1.3c-1.9-0.3-5.3-0.2-6.8-0.5s-1.4-0.3-2.9-0.5s-2-0.3-2-0.3
	c3.4-0.7,10.6,0.3,12.2,0.2C76.8,95.9,78.6,96.1,80.4,95.8z"></path><path class="st0" d="M63.3,75.5c0.2,0.3,0.7,1.1,2.1,1.4c1.4,0.3,2.5,0,2.5,1.2c0,1.2-1.7,3.6-2.4,3.6s-1.1-0.3-1.4-0.1
	s-1,0.8-1.7-0.3s-1.3-1.1-0.8-2.2c0.5-1.1,0.3-0.9,0.5-1.7c0.3-0.8,0.3-1.6,0.3-1.6L63.3,75.5z"></path><path class="st2" d="M61.3,75.2c0.2,0.2,1.7,2.2,2,2.8s0.5,1.2,0.2,2.2c-0.3,1.1-0.2,2.6-1.9,2.7c-1.7,0.1-2.1,0.2-3.1-0.5
	c-1-0.7-1.9-1.2-1.7-2.1s0-0.8,0.3-1.8s-0.2-1.6,0.8-2.2s1.1-0.5,1.8-0.7S61.3,75.2,61.3,75.2z"></path><path class="st2" d="M63.3,75.5c0,0,1.1-0.6,2.4-0.9c1.3-0.2,1.3,0.3,1.8-0.9s-0.1-2-0.8-2.9c-0.7-0.9-1-1.6-1.5-1.7
	c-0.5-0.1-0.9-0.6-1.4,0c-0.5,0.6-0.7,1.1-0.9,1.5C62.6,71,62.6,72,62.6,72s0.7-2.2-0.2-2.4s-1.4,0.1-2,0.6s-0.9,0.8-1.5,0.9
	c-0.6,0.1-0.9,0-1,0.8s-0.4,1.3,0.6,1.7c1,0.4,1.1,0.3,1.5,0.7c0.4,0.4,0.1,0.2,1.2,0.8S63.3,75.5,63.3,75.5z"></path><path class="st0" d="M60.2,75.2c-0.1-0.1-2.2-1.4-2.5-1.6c-0.4-0.2-0.7-1-1.2-0.6c-0.5,0.4-1,0.2-1.1,1.4s-0.2,1.6,0.3,2.7
	c0.5,1.1,0.2,1.6,1.3,1.4s1.4-0.8,1.9-1.1c0.5-0.4,0.9-0.2,1.4-0.7c0.5-0.5,0.7-0.9,0.7-0.9L60.2,75.2z"></path><path class="st1" d="M62.4,73.3c-0.5,0-0.3,0.4-1.3,0.7c-1,0.3-0.2,0.8-0.8,1.2c-0.6,0.4-0.3,0.6,0.1,0.8c0.4,0.2,0.2,0.3,1,0.8
	s0.3,0.5,0.8,0.6s0.6,0.4,1.2,0.2c0.6-0.2,1-0.3,1.2-1s0.4-0.6,0.2-1.2c-0.2-0.5,0.1-0.7-0.4-1.1C63.8,74.1,62.4,73.3,62.4,73.3z"></path><path class="st3" d="M62.2,74.2c-0.3,0.1-0.3-0.2-0.7,0.4c-0.3,0.6-0.8-0.1-0.3,0.6s0.3,1.4,0.9,1.3c0.6-0.2,0.9,0.3,1.2,0
	s-0.2-0.9-0.2-0.9l-0.9,0.3c0,0-0.2-0.7,0.1-0.9s0.6,0,0.6-0.2S62.2,74.2,62.2,74.2z"></path><path class="st10" d="M71.6,70.1c0.1,0.3,0.4,1.5,1.1,2.5c0.7,0.9,2,1.9,0.7,2.5c-1.2,0.7-1.4,1.3-2.3,0.5s-0.8-0.2-1.5,0.4
	c-0.7,0.6-0.8,1.1-1.9,0.5S66,76,65.6,75.2c-0.4-0.8-0.8-0.5-0.4-1.4s0.3-0.8,0.9-1.5s1.1,0.1,1.4-0.9s0-0.8,0.8-1.2
	c0.8-0.5,0.6-0.5,1.5-0.3C70.7,69.9,71.6,70.1,71.6,70.1z"></path><path class="st0" d="M70.9,70.9c0,0,2.2-0.6,2.4-1.8s1.5-2.3,0.5-2.9c-1.1-0.7-1.8-1.3-2.3-1c-0.5,0.2,0,0.3-0.5,0.2
	c-0.5,0-0.1,0-1-0.6c-0.9-0.6-0.9-1-1.7-0.8c-0.8,0.2-1.5-0.1-1.8,0.8c-0.3,0.9-1.3,2.1-1.6,2.4s-0.8,0.7-0.6,1.2s-0.2,1.1,0.3,1.8
	s0.7,1.2,1.5,1.3c0.8,0.1,1.6-0.1,2.9,0.1S70.9,70.9,70.9,70.9z"></path><path class="st1" d="M71,68.3c-0.9-0.3-0.9-0.8-1.9-0.3c-1,0.5-1.8,0.8-1.9,1.3c0,0.5-0.2,1.1,0.3,1.5c0.5,0.5,0.6,0.4,1.4,0.7
	s0.7,1.1,1.3,0.2c0.7-0.9,0.9-0.9,1.1-1.3s0.6-0.7,0.4-1.2C71.5,68.8,71,68.3,71,68.3z"></path><path class="st3" d="M70.2,68.4c-1.1-0.4-1.6-0.1-1.8,0.2c-0.1,0.3-1.1,0.8-0.6,1.1c0.5,0.3,0.3,1.9,1.1,1.8s2.5-0.6,2-0.7
	c-0.6,0-1-0.1-1.8-0.5c-0.8-0.4-2.3,0-0.8-0.4c1.5-0.3,0.9-0.4,1.5-0.3c0.6,0.1,0.8-0.1,0.5-0.4C70,69.1,70.2,68.4,70.2,68.4z"></path><path class="st0" d="M64.5,57c1.4-1.1,1.5-1.5,2.3-1.5s1.3,0.1,1.4,0.2c0.1,0.1-1.1-0.7,0.6-0.5s2.6,0.1,2.6,0.9s1,3.8,0.4,4
	c-0.6,0.2-0.6,0.1-1.4-0.2c-0.8-0.3-1.4-0.9-2.2-0.4s-0.9,0.8-1.3,0.8c-0.4-0.1-0.7-0.2-1.3-0.9c-0.6-0.7-0.2-0.3-0.9-0.6
	S63.6,57.7,64.5,57z"></path><path class="st4" d="M66.1,59.4c0,0-0.7-0.1-1.5,0.2c-0.8,0.3-0.7,0.2-1.6,0.1c-1-0.1-1.5,0-1.4,1.2s-0.1,1.6,0.9,1.7
	s1.1,0.5,1.6,0.3c0.5-0.2,0.4-0.2,1-0.3c0.7-0.1,1.3-0.5,1.6-1.1c0.3-0.7,0.2-1.2,0.2-1.2L66.1,59.4z"></path><path class="st2" d="M68.8,60.6l1.9,1c0,0,1.5,0.8,1.6,1.4c0.1,0.6,0.6,1.9-0.3,2.2c-1,0.3-1.3,1-2.1,0.7c-0.8-0.3-1.3-0.5-1.9-1.1
	c-0.6-0.6-1.2-0.4-1.6-0.6s0,0.2-0.9-0.7s-1,0.4-1.4-0.6c-0.4-1-2-1.6-0.8-1.6c1.1,0,2.1,0.6,2.5,0.5s0.8,0.8,1-0.3
	C66.9,60.3,68,60,68,60L68.8,60.6z"></path><path class="st1" d="M67.9,58.2c0,0-0.8-0.7-1.6,0.2c-0.8,0.9-0.8,2.6-0.4,2.5c0.4-0.1-0.3,1.1,0.7,0.6c1-0.6,1.9-0.2,1.9-0.2
	s1,0.4,1-0.3c0-0.7,0.7-0.8,0.2-1.4C69.3,58.9,68.9,59.1,67.9,58.2z"></path><path class="st3" d="M67.3,59c-0.4-0.2-1.3,1-0.9,1.1c0.5,0.2,0.4,1.3,1,0.6c0.6-0.7,1.4-0.1,1.4-0.1s0.7-0.3,0.3-0.7
	c-0.3-0.4-1-0.4-1-0.4L67.3,59z"></path><path class="st2" d="M82.3,62.4c0,0.4-0.2,2.4-1.3,2.5s-1.3,0.6-1.5-0.2c-0.2-0.8,0.4-1.2-0.5-1.2c-1,0-1.1,0-1.4-0.4
	c-0.2-0.3-1-1.3-0.1-1.8s0.3,0.1,1.5-0.3c1.1-0.4,2.3-0.7,2.7-0.4c0.4,0.3,0.8,0.6,0.8,0.6L82.3,62.4z"></path><path class="st2" d="M78.5,54.9c-0.2-0.5-0.3-1.3-1.1-1.9c-0.7-0.6-0.9-1.1-1.2-0.7c-0.2,0.4-1.1,0.8-0.2,1.8s1.4,1.2,1.7,1.4
	S78.5,54.9,78.5,54.9z"></path><path class="st0" d="M79.3,56.8c0.1-0.4,0.6-1.2,0.3-1.7c-0.4-0.5-1.3-1.5-1.6-0.6c-0.3,0.9-1.2,2.1-0.9,2.8c0.3,0.6,0.4,1,0.4,1.9
	c0,0.9-0.7,1.1,0.1,2c0.8,0.9,1.6,1.4,2.3,1.8s1.1,1,1.4,0.4s0-0.5,0.2-1.2s0.3-1.1-0.2-1.9c-0.5-0.8-0.8-1.6-0.9-1.7
	s-0.8-0.7-0.8-0.7L79.3,56.8z"></path><path class="st2" d="M79.7,58.7c0.5-0.2,1.3,0,2.2,0.4c0.9,0.3,1.5,1.7,1.8,2.2c0.2,0.5,0.8,1.8,0,1.8c-0.8,0-1.6-0.7-2.2-1.3
	c-0.6-0.6-0.6-0.7-0.9-1.1c-0.3-0.4-0.1-0.6-0.5-0.9C79.8,59.3,79.7,58.7,79.7,58.7z"></path><path class="st1" d="M79.5,57.7c0,0-0.9-0.5-0.7,0.4c0.1,0.8,0.4,1.4,0.9,1.4c0.5,0.1,0.4,1.4,1,1c0.6-0.4,0.5-1.1,0.5-1.2
	C81,59.2,79.5,57.7,79.5,57.7z"></path><line class="st3" x1="65" y1="64.8" x2="63.5" y2="63.7"></line><path class="st2" d="M68.6,36.3c0,0,0.1-1.5,1.3-2.4s2.2-1.7,3.1-0.8c0.9,0.9,2,3.6,1,4.1c-1,0.5-1.2,0.6-2,0.5s-1.8-0.2-0.9,0.4
	s1.1,0.9,1.8,0.7c0.6-0.2,1.4-1.9,1.4-0.1c0.1,1.7,1.6,2.7,0.2,3.1s-2.1,1.4-3,1.3c-0.9-0.1-1.8,0.1-2-0.3s-0.4-1.2-0.1-1.8
	c0.3-0.6,0.5-1.7,0.3-1.9c-0.2-0.2-0.4-0.6-0.5-0.8S69,37.5,69,37.5L68.6,36.3z"></path><path class="st2" d="M69.5,36.4c0,0-3.3,0.9-3.7,1.5c-0.4,0.5-0.7,1.9-0.8,2.5c-0.1,0.6-1.3,1.6-0.4,2.5c0.9,0.9,1.3,1.1,2.2,1.1
	c0.9,0,1.9,0.3,2-0.7s0-1.3,0.6-1.7c0.6-0.4,0.6,0,0.9-1.3s0.4-1.6,0.2-2C70.2,37.8,69.5,36.4,69.5,36.4z"></path><path class="st1" d="M70,35.9c-0.5,0.5-1.3,0.1-1.4,1.1c-0.2,1,0.2,0.9-0.3,1.6s-1.7,0.6-0.9,1.7c0.8,1.1,0.8,1.1,1.2,0.5
	c0.5-0.6,1.1-0.9,1.7-1.3c0.6-0.4,1-1.5,1-1.5s-0.2-1.4-0.4-1.6C70.6,36.2,70,35.9,70,35.9z"></path><path class="st3" d="M69.8,37c-0.3-0.6-0.5,0.4-0.6,1c-0.1,0.6-1.1,1.3-1,1.7c0.1,0.4,1.3,0.2,1.4-0.3c0.1-0.5-0.6,0,0.1-0.5
	C70.4,38.2,69.8,37,69.8,37z"></path><path class="st2" d="M65.7,47.8c0,0-1.2,0.1-0.9,1.1c0.3,1,0,1.9,0.8,1.6c0.8-0.3,1.4-0.6,1.4-0.6S66.9,47.6,65.7,47.8z"></path><path class="st0" d="M84,52.1c0.7,0.5,1.3,1.8,1.1,2.1C85,54.5,84,56.7,83.2,57c-0.8,0.3-1.1,0-1.5-1.1c-0.4-1.1-0.1-2.2-0.2-2.7
	c-0.1-0.5-0.4-2.5-0.7-1.5c-0.3,1,0.9,2-0.1,1.9c-1-0.1-1.1,0.2-1.6-0.9c-0.6-1.1-1.5-2.2-1.6-2.7c-0.1-0.6-0.2-1.3,0.6-2.2
	c0.7-0.9,1.8-2.1,2.2-1.2s0.2,1.4,0.6,2.5S84,52.1,84,52.1z"></path><path class="st2" d="M78.9,45.2c0.2-0.7,0.9-1.1,1.6-1.5c0.3-0.2,0.5-0.1,0.8,0.1c0,0.2,0,0.5,0,0.7c0.3,1.4,1.6,2.6,2,3.5l-1.6,0.6
	c0,0-0.5-0.1-1.3-0.5c-0.8-0.4-1.3-0.2-1.8-0.7C78.1,46.8,78.8,45.9,78.9,45.2z"></path><path class="st0" d="M81.3,43.7c0.3,0.2,0.6,0.7,1.2,1.2c1.2,0.9,0.8,3.1,0.8,3.1c-0.3-0.9-1.7-2.1-2-3.5
	C81.3,44.2,81.3,43.9,81.3,43.7z"></path><path class="st2" d="M82,47.7c0.4,0.7,1.6,1.2,2.2,2c0.6,0.9,0.6,1.4,0.5,2.1c-0.1,0.6,0.4,1.6-0.9,1.2c-1.3-0.3-1.3-0.3-1.8-1.1
	c-0.5-0.7-0.6-0.5-0.8-1.2c-0.2-0.7-1.3-0.1-0.4-1.2C81.7,48.6,82,47.7,82,47.7z"></path><path class="st1" d="M82.7,49.9c-0.2,0.5,0,1.2-0.6,1.3s0-0.3-0.8-0.4c-0.8-0.1-0.9-0.3-1.1-0.9c-0.2-0.6-0.4-0.4-0.5-1.7
	c-0.1-1.2,0.7-1.8,0.7-1.8s1-0.2,1.2,0.2c0.2,0.4,0.2,1.9,0.2,1.9s-0.3,0.5,0.1,0.6C82.2,49.3,82.7,49.9,82.7,49.9z"></path><path class="st3" d="M80.9,49l-0.5-1c0,0-0.7-1.9-0.1-1.6s1.3-0.7,1.2,0.2c-0.2,0.9-0.3,1.7-0.3,1.7L80.9,49z"></path><line class="st12" x1="79.4" y1="29.4" x2="76.5" y2="31.7"></line><path class="st10" d="M79.2,28c-0.2,0-0.6,0.4-0.8,0.9c-0.2,0.5-0.2,0.9-0.2,1.2c0,0.3,0.2,0.6,0.6,0.7c0.4,0.1,0.4,0.6,1.1-0.1
	c0.7-0.6,0.5-0.7,0.6-1.1c0.1-0.4,0.4-0.3,0.1-0.7s-0.1-0.8-0.4-0.7C79.9,28.2,79.2,28,79.2,28z"></path><path class="st6" d="M76.8,27.6c0,0,0.4,0.4,0.6,0.8c0.2,0.4,0.3,0.8,0.4,1.8c0.1,0.9-0.8,1.5-1,1.6C77.2,31.2,76.8,27.6,76.8,27.6z
	"></path><path class="st7" d="M76.2,28.9c0.2-0.9,0.6-1.3,0.6-1.3s0.4,3.7,0,4.2c0,0-0.5-0.9-0.5-1.1C76.4,30.4,76,29.8,76.2,28.9z"></path><g>
	<path class="st5" d="M75.1,23.1c1.1,0.9,2.1,2,3,3.1c0,0,0.1,0.1-0.1,0c-0.1-0.1-0.3,0-0.3,0c0,0,0.2-0.1,0.2-0.1
		c1.4-0.8,2.7-1.5,4.3-1.9c0,0,0,0.1,0,0.1c-0.7,0.3-1.3,0.7-2,1.1l-2,1.2c-0.2,0.1-0.3,0.2-0.5,0.1c-0.2-0.2-0.5-0.6-0.7-0.8
		c-0.7-0.9-1.4-1.9-2.1-2.8L75.1,23.1L75.1,23.1z"></path>
</g><path class="st6" d="M83.5,23.4c-0.3-0.2-2.1,1.3-1.6,1.7c0.5,0.3,1.1,0.5,1.5,0.4S85.3,24.6,83.5,23.4z"></path><path class="st0" d="M75.2,22.3c0-0.1-0.8-0.6-1.1-0.2s-0.1,1.1-0.2,1.5c-0.1,0.3-0.1,0.7,0.3,0.6c0.4-0.1,0.7-0.1,0.7-0.1
	S75.5,23.2,75.2,22.3z"></path><path class="st6" d="M78.9,19.4c1.8,1.2,1,2.3,0.9,2.7c-0.1,0.4-0.8,0.6-0.8,0.6C79,22.3,78.9,19.4,78.9,19.4z"></path><path class="st7" d="M78.1,20.7c-0.3-0.6,0.8-1.3,0.8-1.3s0.2,2.8,0.1,3.3c0,0-0.4-0.6-0.5-0.8C78.4,21.8,78.3,21.4,78.1,20.7z"></path><path class="st2" d="M81.8,21.3c0.1,0.3-0.9,1.2-0.9,1.2s-0.1,0.3-0.3-0.2s-0.6-0.6-0.3-1c0.3-0.4,0.7-0.8,0.9-0.8
	C81.4,20.6,81.8,21.3,81.8,21.3z"></path><path class="st7" d="M80.3,19.7c-0.3,0-0.6-0.1-0.8,0.3c-0.2,0.4-0.9,0.3-0.2,0.7c0.7,0.3,1,1.2,1,0.7
	C80.3,20.8,81.6,19.9,80.3,19.7z"></path><path class="st0" d="M79.8,16.9c0,0-0.6-0.5,0.2-0.8c0.9-0.4,0.7-0.8,1.3-0.3c0.6,0.5,0.8,0.8,0.5,1.2c-0.3,0.4-0.6,0.8-0.8,0.6
	C80.9,17.3,79.8,16.9,79.8,16.9z"></path><path class="st6" d="M82.1,17.5c1.2-0.5,2.2-0.9,2.8-0.8c0.6,0.1,0.8,0.6,0.8,0.6c-2-0.3-5.5,1.7-5.5,1.7S80.9,18,82.1,17.5z"></path><path class="st7" d="M83.8,18.5c-0.9,0.3-1.9,0.7-2.4,0.7c-0.5,0-1.2-0.2-1.2-0.2s3.5-2,5.5-1.7C85.7,17.3,84.6,18.2,83.8,18.5z"></path><path class="st6" d="M79,17.3c0.1,0.3,0.3,0.5,0.3,0.6c0,0.2-0.1,0.9-0.1,0.9l-1.7-2.6C77.9,16.6,78.9,17,79,17.3z"></path><path class="st7" d="M77.1,16.8c0.1-0.4,0-0.6,0.4-0.4l1.7,2.6c0,0-0.7-0.6-1.2-1C77.5,17.5,77.1,17.1,77.1,16.8z"></path><path class="st6" d="M82,33.2c-0.3-0.1-0.9,0.1-1.1,0.5c0,0-1,0.9-1,1s0.4,2.4,0.5,2.5c0.2,0.1,0.8,0.4,0.9,0.5c0,0,0.5,0.2,0.5-0.1
	c0-0.3,0.5-1.8,0.3-2s-0.1-0.4,0-1C82.1,34,82,33.2,82,33.2z"></path><path class="st2" d="M83,35.1c0,0,0.8,1.1,0.7,1.4c-0.1,0.3-0.3,1.3-0.8,1.3s-0.7-0.3-1.2-0.2c-0.5,0.1-1-0.8-1-1.2s0.1-0.6,0.4-0.9
	c0.3-0.3,0.6-0.3,0.8-0.3C82.2,35.2,83,35.1,83,35.1z"></path><path class="st0" d="M82.6,33.8c0.3,0.1,1.2,1.1,1.2,1.5c0,0.4-0.4,1.3-0.5,1.3c0,0-0.6,0-1.2-0.2c-0.5-0.2-0.9-0.3-1-0.8
	c-0.1-0.5-0.3-0.6,0-1.2c0.3-0.5,0.2-0.4,0.5-0.8c0.3-0.4,0.5-0.8,0.8-0.3C82.6,33.8,82.6,33.8,82.6,33.8z"></path><path class="st6" d="M63.1,89.8l0.7-0.6c0.4-0.3,5.8-4.2,7.8-4.2c2,0,3.9-0.1,4.8,0.1c0.9,0.1,1.9-0.1,1.7,0.3
	c-1.7-0.1-3.5,0.1-5.3,0.8C71.1,86.8,63.1,89.8,63.1,89.8z"></path><path class="st7" d="M71.9,88c-1.2,0.5-4.4,1.5-5.8,1.5c-1.4,0-3.1,0.2-3.1,0.2s8-3,9.8-3.7c1.8-0.7,3.5-0.9,5.3-0.8
	C77.9,85.7,73.1,87.5,71.9,88z"></path><path class="st10" d="M83.5,23.4c-0.2,0.1,0,0.4-0.1,0.6c-0.1,0.2-0.3,0.8-0.1,0.9C83.5,25,84,25,84,25s-0.1,0,0.1-0.4
	c0.2-0.4,0.3-0.3,0.2-0.4C84.2,24.1,83.9,23.3,83.5,23.4z"></path><path class="st0" d="M71.6,81.8c0.2,0.3,0.7,1.1,2.1,1.4c1.4,0.3,2.5,0,2.5,1.2c0,1.2-1.7,3.6-2.4,3.6c-0.7,0-1.1-0.3-1.4-0.1
	c-0.2,0.2-1,0.8-1.7-0.3c-0.7-1.1-1.3-1.1-0.8-2.2c0.5-1.1,0.3-0.9,0.5-1.7c0.3-0.8,0.3-1.6,0.3-1.6L71.6,81.8z"></path><path class="st2" d="M69.6,81.4c0.2,0.2,1.7,2.2,2,2.8c0.2,0.6,0.5,1.2,0.2,2.2c-0.3,1.1-0.2,2.6-1.9,2.7c-1.7,0.1-2.1,0.2-3.1-0.5
	c-1-0.7-1.9-1.2-1.7-2.1c0.2-0.8,0-0.8,0.3-1.8c0.3-1-0.2-1.6,0.8-2.2s1.1-0.5,1.8-0.7C68.6,81.6,69.6,81.4,69.6,81.4z"></path><path class="st2" d="M71.6,81.8c0,0,1.1-0.6,2.4-0.9s1.3,0.3,1.8-0.9c0.5-1.2-0.1-2-0.8-2.9c-0.7-0.9-1-1.6-1.5-1.7s-0.9-0.6-1.4,0
	c-0.5,0.6-0.7,1.1-0.9,1.5c-0.3,0.3-0.2,1.4-0.2,1.4s0.7-2.2-0.2-2.4c-0.8-0.2-1.4,0.1-2,0.6c-0.5,0.5-0.9,0.8-1.5,0.9
	c-0.6,0.1-0.9,0-1,0.8c-0.1,0.9-0.4,1.3,0.6,1.7c1,0.4,1.1,0.3,1.5,0.7c0.4,0.4,0.1,0.2,1.2,0.8C70.7,82.1,71.6,81.8,71.6,81.8z"></path><path class="st0" d="M68.6,81.5c-0.1-0.1-2.2-1.4-2.5-1.6c-0.4-0.2-0.7-1-1.2-0.6c-0.5,0.4-1,0.2-1.1,1.4s-0.2,1.6,0.3,2.7
	c0.5,1.1,0.2,1.6,1.3,1.4c1.1-0.2,1.4-0.8,1.9-1.1c0.5-0.4,0.9-0.2,1.4-0.7c0.5-0.5,0.7-0.9,0.7-0.9L68.6,81.5z"></path><path class="st1" d="M70.7,79.5c-0.5,0-0.3,0.4-1.3,0.7c-1,0.3-0.2,0.8-0.8,1.2c-0.6,0.4-0.3,0.6,0.1,0.8s0.2,0.3,1,0.8
	c0.8,0.6,0.3,0.5,0.8,0.6s0.6,0.4,1.2,0.2c0.6-0.2,1-0.3,1.2-1s0.4-0.6,0.2-1.2c-0.2-0.5,0.1-0.7-0.4-1.1
	C72.1,80.3,70.7,79.5,70.7,79.5z"></path><path class="st3" d="M70.6,80.4c-0.3,0.1-0.3-0.2-0.7,0.4s-0.8-0.1-0.3,0.6c0.5,0.7,0.3,1.4,0.9,1.3c0.6-0.2,0.9,0.3,1.2,0
	s-0.2-0.9-0.2-0.9l-0.9,0.3c0,0-0.2-0.7,0.1-0.9c0.3-0.2,0.6,0,0.6-0.2C71.3,80.7,70.6,80.4,70.6,80.4z"></path><path class="st0" d="M77.2,49.2c0.2,0.3,0.7,1.1,2.1,1.4s2.5,0,2.5,1.2c0,1.2-1.7,3.6-2.4,3.6s-1.1-0.3-1.4-0.1
	c-0.2,0.2-1,0.8-1.7-0.3c-0.7-1.1-1.3-1.1-0.8-2.2c0.5-1.1,0.3-0.9,0.5-1.7c0.3-0.8,0.3-1.6,0.3-1.6L77.2,49.2z"></path><path class="st2" d="M75.3,48.8c0.2,0.2,1.7,2.2,2,2.8c0.2,0.6,0.5,1.2,0.2,2.2c-0.3,1.1-0.2,2.6-1.9,2.7c-1.7,0.1-2.1,0.2-3.1-0.5
	c-1-0.7-1.9-1.2-1.7-2.1c0.2-0.8,0-0.8,0.3-1.8c0.3-1-0.2-1.6,0.8-2.2s1.1-0.5,1.8-0.7C74.3,49,75.3,48.8,75.3,48.8z"></path><path class="st2" d="M77.2,49.2c0,0,1.1-0.6,2.4-0.9c1.3-0.2,1.3,0.3,1.8-0.9c0.5-1.2-0.1-2-0.8-2.9s-1-1.6-1.5-1.7s-0.9-0.6-1.4,0
	s-0.7,1.1-0.9,1.5c-0.3,0.3-0.2,1.4-0.2,1.4s0.7-2.2-0.2-2.4c-0.8-0.2-1.4,0.1-2,0.6c-0.5,0.5-0.9,0.8-1.5,0.9c-0.6,0.1-0.9,0-1,0.8
	c-0.1,0.9-0.4,1.3,0.6,1.7c1,0.4,1.1,0.3,1.5,0.7c0.4,0.4,0.1,0.2,1.2,0.8S77.2,49.2,77.2,49.2z"></path><path class="st0" d="M74.2,48.9c-0.1-0.1-2.2-1.4-2.5-1.6c-0.4-0.2-0.7-1-1.2-0.6c-0.5,0.4-1,0.2-1.1,1.4c-0.1,1.2-0.2,1.6,0.3,2.7
	c0.5,1.1,0.2,1.6,1.3,1.4c1.1-0.2,1.4-0.8,1.9-1.1c0.5-0.4,0.9-0.2,1.4-0.7c0.5-0.5,0.7-0.9,0.7-0.9L74.2,48.9z"></path><path class="st1" d="M76.4,46.9c-0.5,0-0.3,0.4-1.3,0.7c-1,0.3-0.2,0.8-0.8,1.2s-0.3,0.6,0.1,0.8c0.4,0.2,0.2,0.3,1,0.8
	c0.8,0.6,0.3,0.5,0.8,0.6s0.6,0.4,1.2,0.2c0.6-0.2,1-0.3,1.2-1c0.2-0.7,0.4-0.6,0.2-1.2c-0.2-0.5,0.1-0.7-0.4-1.1
	S76.4,46.9,76.4,46.9z"></path><path class="st3" d="M76.2,47.8c-0.3,0.1-0.3-0.2-0.7,0.4c-0.3,0.6-0.8-0.1-0.3,0.6c0.5,0.7,0.3,1.4,0.9,1.3c0.6-0.2,0.9,0.3,1.2,0
	c0.3-0.3-0.2-0.9-0.2-0.9l-0.9,0.3c0,0-0.2-0.7,0.1-0.9s0.6,0,0.6-0.2C77,48.1,76.2,47.8,76.2,47.8z"></path><path class="st0" d="M52.5,42c0.4-0.4,2.2-1.3,1.8-2.3c-0.5-0.9,0.9-2.1,0.7-3c-0.1-0.9,0.3-2.4-0.6-2.7s-5.8,0.1-6.4,0.3
	c-0.6,0.2-1.8,0.5-1.8,1.7c0,1.3,0.4,1.9,0.9,3c0.5,1.1,0.5,2.5,1.2,2.9c0.7,0.4,1.1,0.7,1.9,0.5C51.1,42.3,52.5,42,52.5,42z"></path><path class="st1" d="M50.6,39.7c-0.9-0.2-2.4,0.3-2.7-0.9c-0.3-1.3-0.8-2,0.5-2.3c1.2-0.3,1.4-1.5,2.4-0.7c1,0.8,1.9,0.5,1.4,1.4
	c-0.4,0.9,0.4,0.5-0.6,1.5C50.6,39.7,50.6,39.7,50.6,39.7z"></path><path class="st0" d="M61.8,31.9c0.6-0.1,1.9-1,2.9,0s1.4,2.6,1.1,3.1c-0.3,0.5-1.3,3.1-2.5,3.7c-1.2,0.7-2.6,1.3-3.1,1
	c-0.5-0.3-1.2-0.5-1.5-1.2c-0.3-0.7-0.5-0.8-1-2c-0.4-1.2-1.1-1.1-0.4-2.1c0.7-1,1.4-1.6,1.4-1.6s0.9-0.5,1.4-0.6
	C60.6,32.1,61.8,31.9,61.8,31.9z"></path><path class="st2" d="M62.7,32.1c0.2-0.5,1-0.3,0.8-1.5c-0.2-1.2-0.8-2.8-1.5-3.2c-0.7-0.5-0.7-1-1.4-0.7s-0.8,0.5-1.3,0.4
	s-0.8,0.1-1.6,0c-0.8-0.1-1.6-0.4-1.7,0.5s0,1,0.3,1.8s0.2,2.4,0.3,2.8c0.1,0.4,0.1,0.8,0.4,1.5c0.3,0.7,0.6,1.3,1.2,1.1
	s1.6-0.8,1.9-1.1C60.4,33.4,62.7,32.1,62.7,32.1z"></path><path class="st1" d="M58.9,29.7c-0.5,0.2-1.4,0.9-1.3,1.8c0.1,0.9,0.4,2.1,0.5,2.4s0.4,0.9,1.2,0.4c0.8-0.5,2.5,0,2.3-1.4
	c-0.2-1.4-0.5-1.5-0.7-2.1c-0.2-0.7-0.8-1-0.8-1H58.9z"></path><path class="st3" d="M59.2,30.3c-0.6,0.1-0.8,0.7-0.8,1.2c0,0.5-0.1-0.1,0.8,0.3c0.8,0.4,1.1,0,1.1-0.3c-0.1-0.3-0.2-0.5-0.2-0.8
	C60.1,30.4,59.2,30.3,59.2,30.3z"></path><path class="st2" d="M53.9,49.3c0.1-0.4-2.1-2.5-3.1-3.2s-1.3-0.3-1.3,0.5c-0.1,0.7-0.1,0.9-0.7,0.9s-1.5-0.4-1.9,0.8
	s-0.7,1.6,0.2,2.5s0.4,1,1.6,1.3c1.1,0.3,2.7,0.4,3.2,0c0.5-0.4,1.8,0,1.8-1S53.9,49.3,53.9,49.3z"></path><path class="st4" d="M48,48.3c0.7,0.1,1.4,1.5,2.2,1.4s1.1-1.6,0.8-0.1c-0.3,1.5-0.4,2.5-1.4,2.5c-1,0.1-2.1,0.8-2.8,0
	c-0.7-0.8-0.9-1.2-0.9-1.7c0-0.6,0.1-0.5,0.5-1.3S48,48.3,48,48.3z"></path><path class="st2" d="M45.3,65.2c0.2,0.5-0.3,2.4,1.1,1.1c1.4-1.2,1.1-0.3,1.7-1.9c0.6-1.6-0.1-1.8,0-2.4c0.1-0.6,0.1-0.8,0.2-1.6
	s0.7-1.9,0.7-1.9s-0.6-1-1.2-2.1c-0.6-1.2-1.6-1.3-2.6-1.2c-1.1,0.1-2.2-0.1-1.6,1.5c0.5,1.6,1.1,1.9,0.4,2.8
	c-0.7,0.8-1,0.3-0.9,1.7c0.1,1.4,0.5,1.2,0.8,1.8c0.3,0.5,0.6,0.9,0.8,1.1C45.2,64.4,45.3,65.2,45.3,65.2z"></path><path class="st4" d="M48,56.5c1.5,0.6,2.9,0.4,3.3,0.8c0.4,0.4,0.9,0.7,1.3,1.8c0.4,1,0.2,1.6,0.2,2.3c0,0.7-0.4,1,0.3,1.7
	s1.9,0.2,0.6,1.6C52.5,66,54,65.5,52.5,66c-1.6,0.5-1.1,0.3-2.5,0.3c-1.4,0-1.2,0.6-2,0c-0.7-0.6-0.6-0.4-1.2-1.6
	c-0.6-1.3,0.5-2.9,0.7-3.8c0.2-0.9,0.2-0.7,0-1.5C47.3,58.6,46.5,55.9,48,56.5z"></path><path class="st0" d="M49.2,58.6c0,0-2.1-0.8-1.8,0c0.2,0.8-0.5,0.8-0.5,1.6c0,0.8-0.3,0.8,0.4,1.6c0.7,0.8,1.1,1.5,1.7,1.6
	c0.6,0.2,1.1,0.1,1.3-0.8c0.2-0.9,0.1-1.7,0.2-2s1.2-1.3,0.3-1.5S49.2,58.6,49.2,58.6z"></path><path class="st1" d="M48.7,59.6c1.1,0.4-1.8,0.2-1.2,1.3c0.7,1.1,1.5,0.6,1.6,0.1C49.3,60.5,47.7,59.2,48.7,59.6z"></path><g>
	<path class="st5" d="M52.2,102.7c-0.5-4.2-0.2-8.2-0.1-12.4c0.2-5.8,0.6-12.3,0.9-18.2c0.3-10.1,0.2-20.2,1.1-30.3
		c1.3-8.2,3.7-27.6,4.8-36c0,0,0.2,0,0.2,0c0,2-0.2,4-0.3,6.1c-0.4,6.1-0.8,12.1-1.4,18.1C56.6,38,55.5,45.9,55.6,54
		c-0.1,8,0.1,16.3-0.4,24.3C55,84,54.5,93.8,54.6,99.4c0,1,0.1,2,0.2,2.8L52.2,102.7L52.2,102.7z"></path>
</g><path class="st6" d="M55,48c0.7-0.1,2.3,4.9,4.6,4.8c2.3-0.1,3.2-0.3,3.8-0.7c0.7-0.4,1.1-0.9,1-0.3c-0.1,0.6-2.2,2.5-2.8,2.8
	c-0.6,0.2-4.7,1.5-5.4,1.5c-0.7,0-2,0.1-2.3,0s-0.9-1-0.8-1.3C53.1,54.4,55,48,55,48z"></path><path class="st7" d="M55.2,47c0.6-0.6,0.6-0.7,1.6-0.7c1,0,1.5,0,2.2-0.4c0.7-0.4,2.5-1.4,1,0c-1.5,1.4-2.9,1.6-3.7,2.2
	s-1.3,1-1.3,1s0,0.6-0.9-0.7s-0.7-1.6-2.2-2.5c-1.5-0.8-2.3-1.3-2.2-2.4c0.1-1.1,0.2-1.9,0.5-2c0.4-0.1-0.4,0,1.2,0.7
	s2.2,0.7,2.5,1.4c0.4,0.7,0.3,2.1,0.5,2.4S55.2,47,55.2,47z"></path><g>
	<path class="st8" d="M54.5,42.9c-1.6-2-3.2-4.2-5.1-6c0,0,0.2-0.4,0.2-0.4c0.7,0.4,1.1,0.8,1.6,1.3c1.5,1.4,2.9,2.8,4.3,4.2
		C55.5,42.1,54.5,42.9,54.5,42.9L54.5,42.9z"></path>
</g><g>
	<path class="st8" d="M55.7,41.1c1.8-0.2,3.8-0.6,5.6-0.4c0,0,0,0.2,0,0.2c-1.3,0.1-2.8,0.5-4,0.9c-0.5,0.1-0.8,0.3-1.4,0.4
		L55.7,41.1L55.7,41.1z"></path>
</g><g>
	<path class="st8" d="M62.3,26.6l-5.2,2.6l-0.2,0.1c-0.7-0.7-2.3-2.3-3-3c-0.3-0.3-0.6-0.6-0.9-0.9l0.1-0.1c0.6,0.5,1.5,1.1,2.1,1.6
		c0,0,2.1,1.7,2.1,1.7l-0.4-0.1l5.5-2L62.3,26.6L62.3,26.6z"></path>
</g><path class="st6" d="M51.8,80.2c0.1-0.7,0.6-1.1,1.7-1.9c1-0.8,4.8-1.3,4.8-1.3l3.2-1.3l-0.3,0.7l3.7-0.9l-0.1,0.6
	c0,0,2-0.4,2.6-0.4c0.6-0.1,1.4-1.3,1.4-1.3c-0.2,1.2-1.3,1.8-1.4,2c-0.2,0.2-1.5,0.2-3,0.6c-1.5,0.4-5.7,1.5-9,2.3
	c-3.4,0.8-2.9,2.5-2.9,2.5S51.6,80.8,51.8,80.2z"></path><path class="st7" d="M55.3,79.3c3.4-0.8,7.5-1.9,9-2.3c1.5-0.4,2.9-0.4,3-0.6c0.2-0.2,1.2-0.8,1.4-2c0,0,0.1,0.8-0.4,1.8
	c-0.5,1-0.4,0.5-2.3,1.7s-4.5,1.3-8.8,2.1c-4.3,0.8-4.8,1.8-4.8,1.8S52,80.2,55.3,79.3z"></path><path class="st6" d="M52.5,66c0,0,5.6-1.5,7.8-2.2c2.2-0.7,3.1-0.7,3.1-0.7l-0.3,0.7l3-0.7c0,0,1.7-0.3,2.3-0.4
	c0.6-0.1,2.2-0.7,2.2-0.7c-3.6,2.4-4.1,2.3-8.8,3.5C57.1,66.7,55.7,66.3,52.5,66z"></path><path class="st7" d="M68.8,63.6c-1.5,1-5.9,2.9-7.7,3.2c-1.8,0.3-2.8,0.4-3.7,0.4c-0.9,0.1-2.5-0.1-3.1,0c-0.6,0.1-1.9-1.3-1.9-1.3
	c3.2,0.2,4.6,0.7,9.3-0.5c4.7-1.2,5.2-1.1,8.8-3.5C70.6,62,70.3,62.6,68.8,63.6z"></path><path class="st9" d="M51.3,88.8C51.3,88.8,51.3,88.8,51.3,88.8c0.1-0.1,0.2-0.1,0.3-0.1C51.4,88.8,51.3,88.8,51.3,88.8z"></path><path class="st9" d="M51.5,88.3c0-0.1,0-0.1,0.1-0.2c0.2,0.1,0.3,0.3,0.5,0.4c0,0-0.2,0.1-0.5,0.2C51.7,88.6,51.7,88.5,51.5,88.3z"></path><path class="st9" d="M51.6,88.7c-0.1,0-0.2,0.1-0.3,0.1c0.1-0.2,0.2-0.3,0.2-0.5C51.7,88.5,51.7,88.6,51.6,88.7z"></path><path class="st9" d="M51.8,94.3c0,0-0.1,0.1-0.1,0.1l0.2-0.3C51.8,94.2,51.8,94.2,51.8,94.3z"></path><path class="st9" d="M51.6,94.4c0.1,0,0.1-0.1,0.1-0.1C51.7,94.3,51.6,94.4,51.6,94.4z"></path><path class="st9" d="M52,94c0,0.1-0.1,0.2-0.2,0.3c0,0,0.1-0.1,0.1-0.1L52,94z"></path><path class="st9" d="M52.1,93.9L52.1,93.9C52,93.9,52,93.9,52.1,93.9C52.1,93.8,52.1,93.9,52.1,93.9z"></path><path class="st0" d="M50.5,72.6c0.3,0.3,0.9,1.1,2.5,1.2c1.6,0.1,2.7-0.4,2.9,0.9c0.2,1.3-1.2,4.2-2,4.4s-1.3-0.1-1.5,0.1s-1,1-2,0
	c-1-1-1.6-1-1.3-2.3c0.3-1.3,0.2-1,0.3-2c0.1-1,0-1.8,0-1.8L50.5,72.6z"></path><path class="st2" d="M48.3,72.6c0.2,0.2,2.3,2.1,2.6,2.8c0.4,0.7,0.8,1.2,0.7,2.4c-0.1,1.2,0.3,2.9-1.6,3.2c-1.9,0.4-2.3,0.5-3.5,0
	c-1.3-0.5-2.3-1-2.2-2c0.1-1-0.1-0.9,0-2c0.1-1.1-0.6-1.7,0.5-2.6c1.1-0.8,1.1-0.7,1.8-1.1C47.3,72.9,48.3,72.6,48.3,72.6z"></path><path class="st2" d="M50.5,72.6c0,0,1.1-0.9,2.5-1.4c1.4-0.5,1.5,0.1,1.9-1.3s-0.5-2.2-1.4-3c-1-0.9-1.4-1.6-2-1.6
	c-0.6,0-1.1-0.5-1.6,0.2c-0.5,0.7-0.5,1.4-0.7,1.8c-0.2,0.4,0,1.6,0,1.6s0.4-2.5-0.6-2.6c-1-0.1-1.6,0.4-2,1
	c-0.5,0.6-0.8,1.1-1.4,1.2c-0.6,0.2-1,0.1-1,1.1c0,1-0.2,1.4,0.9,1.7s1.3,0.1,1.8,0.5c0.5,0.4,0.2,0.2,1.4,0.7
	C49.5,73.1,50.5,72.6,50.5,72.6z"></path><path class="st0" d="M47.1,72.8c-0.2-0.1-2.6-1.2-3-1.3c-0.4-0.1-0.9-1-1.4-0.4c-0.5,0.5-1.1,0.4-1,1.7c0.1,1.3,0.1,1.8,0.8,2.8
	c0.8,1.1,0.4,1.7,1.6,1.3c1.2-0.4,1.4-1.1,1.9-1.5c0.5-0.5,1-0.4,1.4-1c0.4-0.6,0.6-1.1,0.6-1.1L47.1,72.8z"></path><path class="st1" d="M49.2,70.3c-0.6,0.1-0.3,0.5-1.3,1c-1,0.5-0.1,1-0.7,1.5c-0.6,0.5-0.2,0.7,0.2,0.9c0.4,0.2,0.3,0.2,1.2,0.7
	c0.9,0.5,0.5,0.5,0.9,0.5c0.5,0,0.7,0.3,1.4,0c0.6-0.3,1-0.5,1.1-1.3s0.3-0.8,0.1-1.3c-0.3-0.5,0-0.8-0.6-1.1
	C50.8,70.9,49.2,70.3,49.2,70.3z"></path><path class="st3" d="M49.2,71.3c-0.3,0.1-0.4-0.1-0.6,0.6c-0.2,0.7-0.9,0.1-0.2,0.7s0.6,1.5,1.2,1.2c0.7-0.3,1,0.2,1.3-0.2
	c0.3-0.4-0.3-1-0.3-1l-1,0.5c0,0-0.4-0.7-0.1-1s0.7-0.1,0.6-0.4C50,71.4,49.2,71.3,49.2,71.3z"></path><path class="st10" d="M58.7,65.2c0.1,0.3,0.7,1.6,1.6,2.5c0.9,0.9,2.5,1.7,1.3,2.6c-1.2,1-1.3,1.6-2.4,1c-1.1-0.7-0.9-0.1-1.5,0.7
	c-0.6,0.8-0.6,1.4-1.9,0.9s-2.2-0.2-2.7-1c-0.5-0.8-1-0.4-0.7-1.5s0.2-1,0.7-1.8c0.6-0.8,1.2-0.1,1.3-1.2c0.1-1.1-0.1-0.8,0.7-1.5
	c0.8-0.7,0.6-0.7,1.6-0.6S58.7,65.2,58.7,65.2z"></path><path class="st0" d="M58,66.2c0,0,2.3-1,2.3-2.3c0-1.3,1.3-2.8,0-3.3c-1.3-0.5-2.1-1.1-2.6-0.7c-0.5,0.4,0,0.3-0.5,0.4
	c-0.5,0.1-0.1,0-1.2-0.5c-1.1-0.5-1.2-0.9-2-0.5c-0.8,0.4-1.7,0.2-1.8,1.2s-1.1,2.5-1.4,2.9c-0.3,0.4-0.7,0.9-0.5,1.4
	c0.3,0.5,0,1.2,0.6,1.9c0.6,0.7,1,1.1,1.9,1.1c0.9,0,1.7-0.4,3.2-0.4C57.4,67.3,58,66.2,58,66.2z"></path><path class="st1" d="M57.6,63.4c-1-0.2-1.1-0.7-2.1,0c-1,0.7-1.9,1.2-1.8,1.8s0,1.2,0.6,1.6c0.7,0.4,0.7,0.3,1.6,0.6
	c0.9,0.2,0.9,1.1,1.5,0c0.6-1.1,0.8-1.1,1-1.6c0.2-0.5,0.5-0.8,0.2-1.3C58.3,63.8,57.6,63.4,57.6,63.4z"></path><path class="st3" d="M56.8,63.6c-1.2-0.2-1.8,0.2-1.9,0.5c-0.1,0.3-1,1.1-0.4,1.3s0.6,2,1.6,1.8c0.9-0.2,2.7-1.1,2-1.1
	s-1.1,0.1-2-0.2c-1-0.2-2.6,0.4-1-0.2c1.6-0.6,0.9-0.7,1.6-0.6s0.8-0.2,0.5-0.5C56.8,64.4,56.8,63.6,56.8,63.6z"></path><path class="st0" d="M48.6,52.1c1.3-1.5,1.4-1.9,2.3-2s1.4-0.1,1.6,0s-1.3-0.5,0.5-0.7c1.9-0.2,2.8-0.4,3,0.6c0.2,1,1.7,4,1.1,4.3
	c-0.6,0.3-0.6,0.2-1.5,0s-1.7-0.8-2.5,0c-0.8,0.8-0.8,1.1-1.3,1.1c-0.5,0-0.8-0.1-1.6-0.8c-0.8-0.7-0.3-0.3-1.1-0.5
	C48.3,53.9,47.8,53.1,48.6,52.1z"></path><path class="st4" d="M50.8,54.5c0,0-0.8,0-1.6,0.5c-0.8,0.5-0.7,0.3-1.8,0.4c-1.1,0.1-1.7,0.3-1.3,1.6c0.4,1.3,0.1,1.7,1.3,1.7
	c1.1,0,1.3,0.4,1.8,0c0.6-0.4,0.3-0.3,1.1-0.5c0.7-0.2,1.4-0.7,1.6-1.5c0.2-0.8,0-1.3,0-1.3L50.8,54.5z"></path><path class="st2" d="M54,55.3l2.2,0.8c0,0,1.7,0.6,2,1.3c0.2,0.7,1,1.9,0,2.4s-1.2,1.3-2.2,1.1s-1.5-0.3-2.2-0.8s-1.4-0.2-1.8-0.4
	c-0.4-0.1,0,0.2-1.1-0.6c-1.1-0.8-1,0.6-1.6-0.5s-2.4-1.4-1.2-1.6c1.3-0.2,2.4,0.2,2.8,0.1c0.4-0.1,1,0.8,1-0.5s1.2-1.8,1.2-1.8
	L54,55.3z"></path><path class="st1" d="M52.6,52.9c0,0-1-0.7-1.7,0.5c-0.7,1.1-0.4,2.9,0,2.8s-0.1,1.3,0.9,0.5c1-0.8,2-0.5,2-0.5s1.1,0.3,1-0.5
	c-0.1-0.7,0.6-0.9,0-1.6C54.2,53.4,53.7,53.6,52.6,52.9z"></path><path class="st3" d="M52,53.9c-0.5-0.2-1.3,1.3-0.8,1.4c0.5,0.1,0.7,1.3,1.2,0.4c0.5-0.9,1.5-0.4,1.5-0.4s0.7-0.5,0.3-0.8
	s-1.1-0.2-1.1-0.2L52,53.9z"></path><path class="st2" d="M69,54.9c0,0.4,0.2,2.7-1,2.9c-1.2,0.3-1.3,0.9-1.7,0c-0.3-0.9,0.3-1.4-0.8-1.2s-1.3,0.2-1.6-0.2
	c-0.3-0.3-1.3-1.2-0.4-2s0.4,0,1.5-0.6c1.2-0.6,2.4-1.1,2.9-0.9c0.5,0.2,1,0.5,1,0.5L69,54.9z"></path><path class="st2" d="M63.5,47.4c-0.3-0.5-0.6-1.4-1.5-1.9c-0.9-0.5-1.2-1-1.4-0.5s-1.1,1.1,0,2c1.1,0.9,1.7,1,2.1,1.3
	C63.1,48.5,63.5,47.4,63.5,47.4z"></path><path class="st0" d="M64.7,49.4c0-0.5,0.5-1.4,0-1.9c-0.5-0.5-1.7-1.4-1.9-0.4c-0.1,1.1-1,2.5-0.5,3.2c0.4,0.7,0.6,1,0.8,2
	c0.2,0.9-0.5,1.3,0.5,2.2c1,0.8,2,1.3,2.8,1.5c0.8,0.2,1.4,0.9,1.6,0.2c0.2-0.7-0.1-0.5,0-1.4c0.1-0.9,0.1-1.3-0.5-2.1
	c-0.7-0.8-1.2-1.6-1.3-1.7s-1-0.7-1-0.7L64.7,49.4z"></path><path class="st2" d="M65.5,51.3c0.6-0.3,1.4-0.2,2.5,0c1.1,0.2,2,1.6,2.3,2.1c0.4,0.5,1.2,1.8,0.3,1.9s-1.9-0.5-2.7-1.1
	c-0.8-0.6-0.8-0.6-1.2-1c-0.4-0.4-0.3-0.6-0.7-0.9C65.7,52,65.5,51.3,65.5,51.3z"></path><path class="st1" d="M65.1,50.3c0,0-1-0.4-0.7,0.5c0.3,0.9,0.6,1.4,1.2,1.4s0.7,1.4,1.3,0.9c0.6-0.5,0.4-1.3,0.3-1.4
	C67,51.7,65.1,50.3,65.1,50.3z"></path><line class="st3" x1="50.5" y1="60.6" x2="48.7" y2="59.6"></line><path class="st2" d="M49.4,28.8c0,0-0.2-1.7,1-2.8c1.2-1.1,2.1-2.2,3.3-1.4c1.1,0.8,2.8,3.5,1.8,4.3c-1,0.7-1.2,0.9-2.1,0.8
	c-0.9-0.1-2,0.1-0.9,0.6s1.4,0.8,2.1,0.4c0.7-0.4,1.2-2.3,1.6-0.4c0.4,1.9,2.2,2.6,0.8,3.4c-1.5,0.7-2.1,1.9-3.1,1.9
	c-1,0.1-1.9,0.4-2.3,0s-0.7-1.3-0.5-1.9c0.2-0.7,0.3-2,0-2.2c-0.3-0.2-0.5-0.6-0.7-0.8S50.2,30,50.2,30L49.4,28.8z"></path><path class="st2" d="M50.5,28.8c0,0-3.4,1.6-3.8,2.3c-0.4,0.7-0.4,2.2-0.5,2.9c0,0.7-1.1,1.9,0,2.8c1.1,0.8,1.6,1,2.5,0.8
	c1-0.2,2.2-0.1,2.1-1.1s-0.2-1.5,0.3-2c0.6-0.5,0.7-0.1,0.8-1.5c0.1-1.4,0.2-1.8-0.1-2.2S50.5,28.8,50.5,28.8z"></path><path class="st1" d="M50.9,28.2c-0.4,0.6-1.4,0.3-1.4,1.4c0,1.1,0.4,0.9-0.1,1.8c-0.5,0.9-1.8,1-0.7,2.1c1.1,1.1,1,1.1,1.4,0.3
	c0.4-0.8,1-1.2,1.6-1.7c0.6-0.6,0.8-1.8,0.8-1.8s-0.5-1.5-0.7-1.7C51.7,28.4,50.9,28.2,50.9,28.2z"></path><path class="st3" d="M50.9,29.5c-0.4-0.6-0.5,0.6-0.4,1.2s-1,1.6-0.9,2c0.2,0.4,1.4,0,1.5-0.6c0-0.6-0.6,0.2,0-0.6
	C51.8,30.7,50.9,29.5,50.9,29.5z"></path><path class="st2" d="M48.3,42c0,0-1.2,0.3-0.8,1.3s0.3,2.1,1.2,1.5c0.8-0.5,1.4-0.9,1.4-0.9S49.7,41.5,48.3,42z"></path><path class="st0" d="M69,43.4c0.9,0.4,1.7,1.8,1.6,2.1c-0.1,0.4-0.8,2.9-1.6,3.3c-0.8,0.4-1.2,0.2-1.8-1s-0.5-2.4-0.6-2.9
	c-0.2-0.5-0.9-2.6-1-1.5c-0.1,1.1,1.3,2.1,0.2,2.1c-1.1,0.1-1.1,0.4-2-0.7c-0.8-1.1-2.1-2.1-2.2-2.7s-0.4-1.4,0.2-2.5
	c0.6-1.1,1.6-2.6,2.2-1.7c0.6,0.9,0.4,1.5,1.1,2.7S69,43.4,69,43.4z"></path><path class="st2" d="M62.3,36.7c0.1-0.8,0.8-1.4,1.5-2c0.3-0.3,0.6-0.2,0.8,0c0,0.2,0,0.5,0.1,0.8c0.5,1.5,2.2,2.5,2.7,3.5l-1.7,1
	c0,0-0.6-0.1-1.5-0.4c-0.9-0.3-1.5,0-2.1-0.5C61.7,38.6,62.2,37.6,62.3,36.7z"></path><path class="st0" d="M64.6,34.7c0.3,0.2,0.7,0.6,1.5,1.1c1.4,0.8,1.4,3.2,1.4,3.2c-0.5-1-2.2-2-2.7-3.5C64.7,35.2,64.6,35,64.6,34.7
	z"></path><path class="st2" d="M66.1,39c0.5,0.7,1.9,1,2.8,1.8c0.8,0.8,0.9,1.4,0.9,2.2s0.7,1.6-0.7,1.5s-1.4-0.1-2.2-0.8
	c-0.7-0.7-0.8-0.5-1.1-1.2s-1.4,0.1-0.7-1.2C65.9,40,66.1,39,66.1,39z"></path><path class="st1" d="M67.2,41.3c-0.1,0.6,0.2,1.3-0.5,1.5c-0.7,0.2-0.1-0.4-1-0.3s-1-0.2-1.4-0.8c-0.4-0.6-0.5-0.4-0.8-1.7
	s0.5-2.1,0.5-2.1s1-0.4,1.3,0c0.3,0.4,0.5,2.1,0.5,2.1s-0.2,0.5,0.2,0.6S67.2,41.3,67.2,41.3z"></path><path class="st3" d="M65.1,40.6l-0.7-1c0,0-1.1-1.9-0.3-1.7c0.7,0.3,1.3-1,1.3,0c0,1,0,2,0,2L65.1,40.6z"></path><line class="st11" x1="60.1" y1="19.4" x2="57.4" y2="22.5"></line><path class="st10" d="M59.6,17.9c-0.2,0-0.6,0.5-0.7,1.1c-0.1,0.6-0.1,1,0,1.3c0.1,0.3,0.3,0.6,0.8,0.6c0.4,0,0.6,0.5,1.2-0.3
	c0.6-0.8,0.4-0.8,0.4-1.3c0-0.4,0.4-0.4,0-0.8c-0.4-0.4-0.2-0.8-0.6-0.7S59.6,17.9,59.6,17.9z"></path><path class="st6" d="M56.9,17.9c0,0,0.5,0.4,0.8,0.8c0.3,0.4,0.5,0.9,0.7,1.9c0.2,1-0.7,1.8-0.8,1.9C58,21.9,56.9,17.9,56.9,17.9z"></path><path class="st7" d="M56.5,19.4c0.1-1,0.4-1.5,0.4-1.5s1.1,4,0.7,4.6c0,0-0.7-0.9-0.7-1.2C56.9,21,56.4,20.5,56.5,19.4z"></path><g>
	<path class="st5" d="M54.3,13.4c1.3,0.7,3,2.1,3.8,2.9c-0.1-0.1-0.4,0.1-0.4,0.1c0,0,0.2-0.1,0.2-0.2c1.4-1.1,2.7-2.1,4.4-2.8
		c0,0,0.1,0.1,0.1,0.1c-0.7,0.5-1.3,1-2,1.6l-2,1.6c-0.2,0.1-0.3,0.3-0.6,0.2c-0.2-0.1-0.6-0.5-0.9-0.7c-0.9-0.9-1.9-1.8-2.8-2.7
		L54.3,13.4L54.3,13.4z"></path>
</g><path class="st6" d="M63.5,12.2c-0.3-0.1-2,1.8-1.4,2.1c0.6,0.3,1.3,0.3,1.7,0.2C64.2,14.3,65.6,13.2,63.5,12.2z"></path><path class="st0" d="M54.2,12.5c-0.1-0.1-1-0.6-1.2,0c-0.3,0.6,0.1,1.3,0,1.6c-0.1,0.4,0,0.8,0.5,0.6c0.5-0.2,0.8-0.3,0.8-0.3
	S54.7,13.4,54.2,12.5z"></path><path class="st6" d="M57.7,8.7c2.1,1,1.5,2.3,1.5,2.8s-0.8,0.8-0.8,0.8C58.4,11.7,57.7,8.7,57.7,8.7z"></path><path class="st7" d="M57.1,10.3c-0.4-0.6,0.6-1.6,0.6-1.6s0.7,3,0.7,3.5c0,0-0.5-0.6-0.7-0.8C57.6,11.3,57.5,10.9,57.1,10.3z"></path><path class="st2" d="M61.2,10.2c0.1,0.3-0.7,1.5-0.7,1.5s0,0.3-0.4-0.2c-0.4-0.5-0.8-0.5-0.5-1s0.6-1,0.9-1
	C60.7,9.5,61.2,10.2,61.2,10.2z"></path><path class="st7" d="M59.3,8.7c-0.3,0-0.7,0-0.8,0.4c-0.1,0.4-0.9,0.5-0.1,0.8c0.8,0.3,1.2,1.1,1.2,0.6C59.6,9.9,60.8,8.7,59.3,8.7z
	"></path><path class="st0" d="M58.3,5.8c0,0-0.8-0.4,0.1-0.9c0.9-0.6,0.6-1,1.4-0.6c0.7,0.5,1,0.7,0.8,1.2c-0.2,0.4-0.6,1-0.8,0.8
	C59.5,6.1,58.3,5.8,58.3,5.8z"></path><path class="st6" d="M60.9,6.1c1.2-0.7,2.3-1.3,2.9-1.4c0.6,0,1,0.5,1,0.5C62.5,5.2,59,8,59,8S59.7,6.8,60.9,6.1z"></path><path class="st7" d="M62.9,6.8C62,7.2,61,7.9,60.4,8C59.8,8.1,59,8,59,8s3.5-2.8,5.7-2.9C64.8,5.2,63.8,6.4,62.9,6.8z"></path><path class="st6" d="M57.5,6.4C57.7,6.7,57.9,6.8,58,7c0,0.2,0,1.1,0,1.1l-2.3-2.5C56.2,5.7,57.3,6.1,57.5,6.4z"></path><path class="st7" d="M55.4,6.1c0-0.4-0.1-0.7,0.3-0.5L58,8.1c0,0-0.9-0.5-1.5-0.9C55.9,6.8,55.4,6.5,55.4,6.1z"></path><path class="st6" d="M63.5,23.2c-0.4,0-0.9,0.3-1.1,0.7c0,0-1,1.1-0.9,1.3c0,0.2,0.8,2.6,1,2.6c0.2,0,1,0.3,1,0.3
	c0,0,0.5,0.1,0.5-0.2c0-0.3,0.2-2.1,0-2.3s-0.2-0.5-0.2-1.1S63.5,23.2,63.5,23.2z"></path><path class="st2" d="M65,25c0,0,1,1,1,1.4s-0.1,1.4-0.6,1.6s-0.8-0.2-1.3,0c-0.5,0.2-1.2-0.7-1.3-1.1s0-0.7,0.3-1s0.6-0.5,0.9-0.5
	C64.1,25.3,65,25,65,25z"></path><path class="st0" d="M64.4,23.7c0.3,0.1,1.5,1,1.5,1.4c0,0.4-0.2,1.5-0.3,1.5s-0.7,0.1-1.3,0c-0.6-0.1-1.1-0.1-1.2-0.7
	s-0.4-0.6-0.2-1.3s0.2-0.5,0.4-0.9s0.5-1,0.8-0.5S64.4,23.7,64.4,23.7z"></path><path class="st6" d="M52.8,88.2l0.7-0.8c0.4-0.4,5.6-5.6,7.8-6c2.2-0.4,4.3-0.7,5.3-0.8c1,0,2-0.5,1.9,0c-1.9,0.2-3.8,0.7-5.6,1.8
	C61,83.5,52.8,88.2,52.8,88.2z"></path><path class="st7" d="M62.1,84.7c-1.2,0.8-4.5,2.4-6.1,2.7c-1.6,0.3-3.3,0.8-3.3,0.8s8.3-4.6,10.1-5.7c1.8-1.1,3.7-1.6,5.6-1.8
	C68.3,81.1,63.3,83.9,62.1,84.7z"></path><path class="st10" d="M63.5,12.2c-0.2,0.1,0.1,0.5,0,0.7c-0.1,0.2-0.2,0.9,0,1c0.2,0,0.8,0,0.8,0s-0.1,0.1,0.1-0.4
	c0.1-0.5,0.3-0.3,0.1-0.5C64.4,12.8,63.9,12,63.5,12.2z"></path><path class="st0" d="M60.7,77.9c0.3,0.3,0.9,1.1,2.5,1.2c1.6,0.1,2.7-0.4,2.9,0.9c0.2,1.3-1.2,4.2-2,4.4c-0.8,0.2-1.3-0.1-1.5,0.1
	s-1,1-2,0c-1-1-1.6-1-1.3-2.3c0.3-1.3,0.2-1,0.3-2c0.1-1,0-1.8,0-1.8L60.7,77.9z"></path><path class="st2" d="M58.5,77.9c0.2,0.2,2.3,2.1,2.6,2.8c0.4,0.7,0.8,1.2,0.7,2.4s0.3,2.9-1.6,3.2c-1.9,0.4-2.3,0.5-3.5,0
	c-1.3-0.5-2.3-1-2.2-2c0.1-1-0.1-0.9,0-2s-0.6-1.7,0.5-2.6c1.1-0.8,1.1-0.7,1.8-1.1S58.5,77.9,58.5,77.9z"></path><path class="st2" d="M60.7,77.9c0,0,1.1-0.9,2.5-1.4c1.4-0.5,1.5,0.1,1.9-1.3c0.4-1.4-0.5-2.2-1.4-3c-1-0.9-1.4-1.6-2-1.6
	c-0.6,0-1.1-0.5-1.6,0.2c-0.5,0.7-0.5,1.4-0.7,1.8c-0.2,0.4,0,1.6,0,1.6s0.4-2.5-0.6-2.6c-1-0.1-1.6,0.4-2,1
	c-0.5,0.6-0.8,1.1-1.4,1.2s-1,0.1-1,1.1c0,1-0.2,1.4,0.9,1.7c1.1,0.3,1.3,0.1,1.8,0.5c0.5,0.4,0.2,0.2,1.4,0.7
	C59.7,78.4,60.7,77.9,60.7,77.9z"></path><path class="st0" d="M57.3,78.1c-0.2-0.1-2.6-1.2-3-1.3c-0.4-0.1-0.9-1-1.4-0.4c-0.5,0.5-1.1,0.4-1,1.7c0.1,1.3,0.1,1.8,0.8,2.8
	c0.8,1.1,0.4,1.7,1.6,1.3c1.2-0.4,1.4-1.1,1.9-1.5c0.5-0.5,1-0.4,1.4-1c0.4-0.6,0.6-1.1,0.6-1.1L57.3,78.1z"></path><path class="st1" d="M59.3,75.6c-0.6,0.1-0.3,0.5-1.3,1c-1,0.5-0.1,1-0.7,1.5c-0.6,0.5-0.2,0.7,0.2,0.9c0.4,0.2,0.3,0.2,1.2,0.7
	c0.9,0.5,0.5,0.5,0.9,0.5s0.7,0.3,1.4,0c0.6-0.3,1-0.5,1.1-1.3c0.1-0.8,0.3-0.8,0.1-1.3c-0.3-0.5,0-0.8-0.6-1.1
	C61,76.2,59.3,75.6,59.3,75.6z"></path><path class="st3" d="M59.3,76.6c-0.3,0.1-0.4-0.1-0.6,0.6c-0.2,0.7-0.9,0.1-0.2,0.7c0.7,0.6,0.6,1.5,1.2,1.2c0.7-0.3,1,0.2,1.3-0.2
	s-0.3-1-0.3-1l-1,0.5c0,0-0.4-0.7-0.1-1s0.7-0.1,0.6-0.4C60.2,76.8,59.3,76.6,59.3,76.6z"></path><path class="st0" d="M61.2,41.4c0.3,0.3,0.9,1.1,2.5,1.2c1.6,0.1,2.7-0.4,2.9,0.9c0.2,1.3-1.2,4.2-2,4.4c-0.8,0.2-1.3-0.1-1.5,0.1
	s-1,1-2,0c-1-1-1.6-1-1.3-2.3s0.2-1,0.3-2c0.1-1,0-1.8,0-1.8L61.2,41.4z"></path><path class="st2" d="M58.9,41.4c0.2,0.2,2.3,2.1,2.6,2.8c0.4,0.7,0.8,1.2,0.7,2.4c-0.1,1.2,0.3,2.9-1.6,3.2c-1.9,0.4-2.3,0.5-3.5,0
	c-1.3-0.5-2.3-1-2.2-2c0.1-1-0.1-0.9,0-2c0.1-1.1-0.6-1.7,0.5-2.6c1.1-0.8,1.1-0.7,1.8-1.1C57.9,41.8,58.9,41.4,58.9,41.4z"></path><path class="st2" d="M61.2,41.4c0,0,1.1-0.9,2.5-1.4c1.4-0.5,1.5,0.1,1.9-1.3c0.4-1.4-0.5-2.2-1.4-3c-1-0.9-1.4-1.6-2-1.6
	c-0.6,0-1.1-0.5-1.6,0.2s-0.5,1.4-0.7,1.8c-0.2,0.4,0,1.6,0,1.6s0.4-2.5-0.6-2.6c-1-0.1-1.6,0.4-2,1s-0.8,1.1-1.4,1.2
	c-0.6,0.2-1,0.1-1,1.1s-0.2,1.4,0.9,1.7c1.1,0.3,1.3,0.1,1.8,0.5c0.5,0.4,0.2,0.2,1.4,0.7C60.2,41.9,61.2,41.4,61.2,41.4z"></path><path class="st0" d="M57.8,41.6c-0.2-0.1-2.6-1.2-3-1.3c-0.4-0.1-0.9-1-1.4-0.4c-0.5,0.5-1.1,0.4-1,1.7s0.1,1.8,0.8,2.8
	c0.8,1.1,0.4,1.7,1.6,1.3c1.2-0.4,1.4-1.1,1.9-1.5c0.5-0.5,1-0.4,1.4-1c0.4-0.6,0.6-1.1,0.6-1.1L57.8,41.6z"></path><path class="st1" d="M59.8,39.1c-0.6,0.1-0.3,0.5-1.3,1c-1,0.5-0.1,1-0.7,1.5c-0.6,0.5-0.2,0.7,0.2,0.9c0.4,0.2,0.3,0.2,1.2,0.7
	c0.9,0.5,0.5,0.5,0.9,0.5c0.5,0,0.7,0.3,1.4,0c0.6-0.3,1-0.5,1.1-1.3s0.3-0.8,0.1-1.3c-0.3-0.5,0-0.8-0.6-1.1
	C61.5,39.7,59.8,39.1,59.8,39.1z"></path><path class="st3" d="M59.8,40.1c-0.3,0.1-0.4-0.1-0.6,0.6c-0.2,0.7-0.9,0.1-0.2,0.7c0.7,0.6,0.6,1.5,1.2,1.2s1,0.2,1.3-0.2
	c0.3-0.4-0.3-1-0.3-1l-1,0.5c0,0-0.4-0.7-0.1-1s0.7-0.1,0.6-0.4S59.8,40.1,59.8,40.1z"></path></g></svg>