<svg id="Layer_1" data-name="Layer 1" xmlns="http://www.w3.org/2000/svg" viewBox="0 0 108 108">
  <defs>
    <style>
      .cls-1 {
        fill: #ffdd54;
      }

      .cls-2 {
        fill: #ffcb00;
      }

      .cls-3 {
        fill: #fff48b;
      }

      .cls-4 {
        fill: #ff8e00;
      }
    </style>
  </defs>
  <g>
    <path class="cls-1" d="M92.62,44.54c-.87-3.24-5.18-3.82-6.6-4a51.22,51.22,0,0,0-11.42.13l-.36.07-8.15,2.18,2.18-8.15c0-.12,0-.24.07-.36A51.31,51.31,0,0,0,68.47,23c-.19-1.41-.77-5.72-4-6.59s-5.9,2.57-6.78,3.7a51.44,51.44,0,0,0-5.59,10,2,2,0,0,0-.13.34l-2.18,8.15-6-6a1.61,1.61,0,0,0-.28-.24,50.8,50.8,0,0,0-9.83-5.83c-1.32-.54-5.34-2.2-7.72.18s-.72,6.39-.17,7.72a51.4,51.4,0,0,0,5.83,9.83,3,3,0,0,0,.23.27l6,6-8.15,2.19a2,2,0,0,0-.34.12,51.09,51.09,0,0,0-10,5.6c-1.13.87-4.58,3.53-3.71,6.77s5.18,3.82,6.6,4a33,33,0,0,0,4.46.26c2.05,0,4.38-.13,7-.39a2.29,2.29,0,0,0,.36-.07l8.15-2.18L40,74.94a1.53,1.53,0,0,0-.07.36,51.31,51.31,0,0,0-.13,11.43c.19,1.41.76,5.73,4,6.6a4.33,4.33,0,0,0,1,.14c2.76,0,5-2.84,5.72-3.85a51.09,51.09,0,0,0,5.6-10,2,2,0,0,0,.12-.34l2.19-8.15,6,6a2,2,0,0,0,.27.23,51.4,51.4,0,0,0,9.83,5.83A12.18,12.18,0,0,0,79,84.26,4.5,4.5,0,0,0,82.31,83c2.38-2.38.72-6.4.18-7.72a50.8,50.8,0,0,0-5.83-9.83,1.61,1.61,0,0,0-.24-.28l-6-6L78.61,57l.34-.13a50.46,50.46,0,0,0,10-5.6c1.14-.87,4.58-3.52,3.71-6.77Z"/>
    <path class="cls-2" d="M92.62,44.54c-.87-3.24-5.18-3.82-6.6-4a51.22,51.22,0,0,0-11.42.13l-.36.07-8.15,2.18,2.18-8.15c0-.12,0-.24.07-.36A51.31,51.31,0,0,0,68.47,23c-.19-1.41-.77-5.72-4-6.59s-5.9,2.57-6.78,3.7a40.22,40.22,0,0,0-3.53,5.71V83.92q1-2,2.06-4.27a2,2,0,0,0,.12-.34l2.19-8.15,6,6a2,2,0,0,0,.27.23,51.4,51.4,0,0,0,9.83,5.83A12.18,12.18,0,0,0,79,84.26,4.5,4.5,0,0,0,82.31,83c2.38-2.38.72-6.4.18-7.72a50.8,50.8,0,0,0-5.83-9.83,1.61,1.61,0,0,0-.24-.28l-6-6L78.61,57l.34-.13a51,51,0,0,0,10-5.59c1.14-.88,4.58-3.53,3.71-6.78Z"/>
    <path class="cls-3" d="M87.26,57.21a77,77,0,0,0-14-6.8,4.2,4.2,0,0,1-.34-1.26,76.49,76.49,0,0,0,8.74-12.9c.85-1.69,3.42-6.82.68-9.57s-7.88-.17-9.57.68a76.49,76.49,0,0,0-12.9,8.74,4.2,4.2,0,0,1-1.26-.34,77,77,0,0,0-6.8-14c-1-1.58-4.21-6.37-7.95-5.37s-4.09,6.74-4.2,8.63a76.56,76.56,0,0,0,1.12,15.54,4.46,4.46,0,0,1-.92.92,76.65,76.65,0,0,0-15.55-1.12c-1.88.11-7.62.45-8.62,4.2s3.79,6.91,5.37,8a77,77,0,0,0,14,6.8,4.61,4.61,0,0,1,.34,1.26,76.63,76.63,0,0,0-8.75,12.9c-.84,1.69-3.41,6.83-.67,9.57a4.47,4.47,0,0,0,3.29,1.23,15.45,15.45,0,0,0,6.28-1.9,76.63,76.63,0,0,0,12.9-8.75,4.61,4.61,0,0,1,1.26.34,77,77,0,0,0,6.8,14c.94,1.43,3.63,5.51,6.92,5.51a4.18,4.18,0,0,0,1-.14c3.74-1,4.09-6.74,4.2-8.62a76.61,76.61,0,0,0-1.12-15.55,4.23,4.23,0,0,1,.92-.92,86.91,86.91,0,0,0,13.12,1.19c.86,0,1.67,0,2.42-.07,1.89-.11,7.62-.45,8.63-4.2s-3.79-6.91-5.37-7.95Z"/>
    <path class="cls-1" d="M87.26,57.21a77,77,0,0,0-14-6.8,4.2,4.2,0,0,1-.34-1.26,76.49,76.49,0,0,0,8.74-12.9c.85-1.69,3.42-6.82.68-9.57s-7.88-.17-9.57.68a76.49,76.49,0,0,0-12.9,8.74,4.2,4.2,0,0,1-1.26-.34,99.29,99.29,0,0,0-4.44-10V83.92a46.77,46.77,0,0,0,2.36,4c.94,1.43,3.63,5.51,6.92,5.51a4.18,4.18,0,0,0,1-.14c3.75-1,4.09-6.74,4.2-8.62a76.61,76.61,0,0,0-1.12-15.55,4.23,4.23,0,0,1,.92-.92,87,87,0,0,0,13.12,1.19c.86,0,1.67,0,2.42-.07,1.89-.11,7.62-.45,8.63-4.2s-3.79-6.91-5.37-7.95Z"/>
    <path class="cls-2" d="M62,59.22a2.24,2.24,0,0,1-1.75-.83l-5-6.11A2.27,2.27,0,0,1,55.69,49a28.85,28.85,0,0,1,8.76-4.11c2.91-.78,5.16-.72,6.9.2a6.38,6.38,0,0,1,3.13,4.31h0a6.38,6.38,0,0,1-.56,5.31c-1,1.66-3,2.84-5.87,3.62a29.37,29.37,0,0,1-5.92.89Z"/>
    <path class="cls-4" d="M64.38,71.91h-.22c-2-.08-3.94-1.15-6.08-3.28a28.45,28.45,0,0,1-3.72-4.69,2.26,2.26,0,0,1-.22-2l2.79-7.4a2.26,2.26,0,0,1,3-1.26,29.21,29.21,0,0,1,8,5.53c2.13,2.13,3.2,4.12,3.27,6.07a7.47,7.47,0,0,1-6.82,7Z"/>
    <path class="cls-1" d="M50.91,75.5a8.61,8.61,0,0,1-2.21-.32,6.4,6.4,0,0,1-4.32-3.13c-.91-1.73-1-4-.2-6.9a30.14,30.14,0,0,1,2.19-5.57A2.28,2.28,0,0,1,48,58.38l7.81-1.28a2.24,2.24,0,0,1,2.61,2,28.9,28.9,0,0,1-.81,9.64c-.78,2.91-2,4.83-3.62,5.88a5.71,5.71,0,0,1-3.1.87Z"/>
    <path class="cls-2" d="M53,57.43l-5-6.12a2.25,2.25,0,0,0-1.86-.83,29.26,29.26,0,0,0-5.92.89c-2.91.78-4.83,2-5.88,3.62a6.42,6.42,0,0,0-.55,5.31A6.37,6.37,0,0,0,37,64.62a6.93,6.93,0,0,0,3.28.73,14.46,14.46,0,0,0,3.62-.53,29.23,29.23,0,0,0,8.76-4.12A2.25,2.25,0,0,0,53,57.43Z"/>
    <path class="cls-1" d="M49.25,56.65a2.22,2.22,0,0,1-.94-.21,28.91,28.91,0,0,1-7.94-5.52c-2.13-2.14-3.2-4.12-3.28-6.08A6.43,6.43,0,0,1,39.26,40a6.38,6.38,0,0,1,4.88-2.17c2,.07,3.94,1.14,6.07,3.27a28.91,28.91,0,0,1,3.73,4.69,2.26,2.26,0,0,1,.22,2l-2.79,7.4a2.22,2.22,0,0,1-1.26,1.29,2.14,2.14,0,0,1-.86.18Z"/>
    <path class="cls-2" d="M54.76,50.55A2.28,2.28,0,0,1,55.69,49,29.15,29.15,0,0,1,64,45c.05-.16.09-.31.13-.47h0c.78-2.91.72-5.16-.2-6.9a6.38,6.38,0,0,0-4.31-3.13,6.38,6.38,0,0,0-5.31.56c-1.66,1-2.84,3-3.62,5.87a29,29,0,0,0-.82,9.65,2.25,2.25,0,0,0,.88,1.57,2.24,2.24,0,0,0,1.74.44l2.7-.45a2.2,2.2,0,0,1-.41-1.61Z"/>
    <path class="cls-4" d="M63.91,37.65a6.4,6.4,0,0,0-4.31-3.13,6.38,6.38,0,0,0-5.31.56l-.14.09V52.33l1-.17a2.2,2.2,0,0,1-.41-1.61A2.28,2.28,0,0,1,55.69,49,29.15,29.15,0,0,1,64,45c.05-.16.09-.31.13-.47h0c.78-2.91.72-5.16-.2-6.9Z"/>
    <path class="cls-2" d="M58.44,59.11a2.24,2.24,0,0,0-2.61-2l-1.68.27V74.53c1.58-1.06,2.72-3,3.48-5.78A28.9,28.9,0,0,0,58.44,59.11Z"/>
    <circle class="cls-3" cx="54.15" cy="54.85" r="7.18"/>
    <path class="cls-1" d="M54.15,47.67V62a7.19,7.19,0,0,0,0-14.37Z"/>
  </g>
</svg>
