<svg id="Layer_1" data-name="Layer 1" xmlns="http://www.w3.org/2000/svg" viewBox="0 0 108 108">
  <defs>
    <style>
      .cls-1 {
        fill: #cbafea;
      }

      .cls-2 {
        fill: #bc95e2;
      }

      .cls-3 {
        fill: #a586c6;
      }

      .cls-4 {
        fill: #9373b9;
      }

      .cls-5 {
        fill: #ffd064;
      }

      .cls-6 {
        fill: #e49542;
      }
    </style>
  </defs>
  <g>
    <g>
      <path class="cls-1" d="M54,54A30.74,30.74,0,0,1,34.32,19.91,30.76,30.76,0,0,1,54,54Z"/>
      <path class="cls-1" d="M73.68,88.09A30.76,30.76,0,0,1,54,54,30.74,30.74,0,0,1,73.68,88.09Z"/>
      <path class="cls-1" d="M34.32,61.12A30.81,30.81,0,0,1,14.64,54,30.76,30.76,0,0,1,54,54,30.81,30.81,0,0,1,34.32,61.12Z"/>
      <path class="cls-1" d="M73.68,61.12A30.81,30.81,0,0,1,54,54a30.76,30.76,0,0,1,39.36,0A30.81,30.81,0,0,1,73.68,61.12Z"/>
      <path class="cls-1" d="M34.32,88.09A30.74,30.74,0,0,1,54,54,30.76,30.76,0,0,1,34.32,88.09Z"/>
      <path class="cls-1" d="M54,54A30.76,30.76,0,0,1,73.68,19.91,30.74,30.74,0,0,1,54,54Z"/>
    </g>
    <path class="cls-2" d="M42.4,38A88,88,0,0,0,54,54,30.74,30.74,0,0,1,34.32,19.91,87.79,87.79,0,0,0,42.4,38Z"/>
    <path class="cls-2" d="M54,54a30.76,30.76,0,0,1-39.36,0,76.22,76.22,0,0,0,19.68,2.35A76.22,76.22,0,0,0,54,54Z"/>
    <path class="cls-2" d="M54,54A30.74,30.74,0,0,1,34.32,88.08,76.15,76.15,0,0,0,46.21,72.22,76,76,0,0,0,54,54Z"/>
    <path class="cls-2" d="M62.08,72.06a87.73,87.73,0,0,0,11.6,16A30.74,30.74,0,0,1,54,54a88.26,88.26,0,0,0,8.08,18.06Z"/>
    <path class="cls-2" d="M54,54A30.74,30.74,0,0,0,73.68,19.92a76.24,76.24,0,0,1-7.81,18.21A76.4,76.4,0,0,1,54,54Z"/>
    <path class="cls-2" d="M54,54a30.76,30.76,0,0,0,39.36,0,76.24,76.24,0,0,1-19.68,2.36A75.75,75.75,0,0,1,54,54Z"/>
    <g>
      <path class="cls-3" d="M54,54a30.76,30.76,0,0,1,0-39.36A30.76,30.76,0,0,1,54,54Z"/>
      <path class="cls-4" d="M52,34.32A87.63,87.63,0,0,0,54,54a30.76,30.76,0,0,1,0-39.36A87.63,87.63,0,0,0,52,34.32Z"/>
      <path class="cls-3" d="M54,93.36A30.76,30.76,0,0,1,54,54a30.76,30.76,0,0,1,0,39.36Z"/>
      <path class="cls-3" d="M48.74,54.45A30.77,30.77,0,0,1,19.91,34.32a31.08,31.08,0,0,1,5.27-.45A30.74,30.74,0,0,1,54,54a31,31,0,0,1-5.26.45Z"/>
      <path class="cls-4" d="M54,54A30.74,30.74,0,0,1,19.92,34.32,76,76,0,0,0,35.78,46.19,76.46,76.46,0,0,0,54,54Z"/>
      <path class="cls-3" d="M82.82,74.13A30.74,30.74,0,0,1,54,54a31,31,0,0,1,5.26-.45A30.77,30.77,0,0,1,88.09,73.68a31.08,31.08,0,0,1-5.27.45Z"/>
      <path class="cls-3" d="M25.18,74.13a31.08,31.08,0,0,1-5.27-.45A30.74,30.74,0,0,1,54,54,30.74,30.74,0,0,1,25.18,74.13Z"/>
      <path class="cls-4" d="M54,54A30.74,30.74,0,0,1,19.92,73.68a76.15,76.15,0,0,0,18.22-7.79A76.42,76.42,0,0,0,54,54Z"/>
      <path class="cls-3" d="M59.26,54.45A31,31,0,0,1,54,54,30.74,30.74,0,0,1,88.09,34.32,30.77,30.77,0,0,1,59.26,54.45Z"/>
      <g>
        <path class="cls-4" d="M52,73.68a87.63,87.63,0,0,0,2,19.68A30.76,30.76,0,0,1,54,54,87.63,87.63,0,0,0,52,73.68Z"/>
        <path class="cls-4" d="M54,54A30.74,30.74,0,0,0,88.08,34.32,76,76,0,0,1,72.22,46.19,76.46,76.46,0,0,1,54,54Z"/>
        <path class="cls-4" d="M54,54A30.74,30.74,0,0,0,88.08,73.68a76.15,76.15,0,0,1-18.22-7.79A76.42,76.42,0,0,1,54,54Z"/>
      </g>
    </g>
    <circle class="cls-5" cx="54" cy="54" r="11.8"/>
    <g>
      <path class="cls-6" d="M50.68,59.72a1.19,1.19,0,0,0-1.2,2.05,1.2,1.2,0,0,0,.6.16,1.19,1.19,0,0,0,.6-2.21Z"/>
      <path class="cls-6" d="M47.85,49.06a1.19,1.19,0,0,0-1.2,2.06,1.2,1.2,0,0,0,.6.16,1.19,1.19,0,0,0,.6-2.22Z"/>
      <path class="cls-6" d="M46.64,56.85a1.19,1.19,0,0,0-.43,1.63,1.19,1.19,0,0,0,2-1.19A1.19,1.19,0,0,0,46.64,56.85Z"/>
      <path class="cls-6" d="M60.76,51.29a1.16,1.16,0,0,0,.59-.16,1.19,1.19,0,1,0-.59.16Z"/>
      <path class="cls-6" d="M50.11,48.43a1.14,1.14,0,0,0,.59-.16,1.18,1.18,0,1,0-.59.16Z"/>
      <path class="cls-6" d="M54,47.39h0a1.19,1.19,0,1,0-1.19-1.19A1.19,1.19,0,0,0,54,47.39Z"/>
      <path class="cls-6" d="M46.2,55.17A1.19,1.19,0,1,0,45,54a1.18,1.18,0,0,0,1.19,1.19Z"/>
      <path class="cls-6" d="M58.5,46.22a1.19,1.19,0,1,0-.6,2.22,1.2,1.2,0,0,0,1-.6A1.18,1.18,0,0,0,58.5,46.22Z"/>
      <path class="cls-6" d="M61.34,56.9a1.19,1.19,0,1,0,.43,1.62A1.19,1.19,0,0,0,61.34,56.9Z"/>
      <path class="cls-6" d="M61.8,52.81A1.19,1.19,0,0,0,60.61,54v0h0a1.19,1.19,0,0,0,1.18,1.19h0A1.2,1.2,0,0,0,63,54v0a1.19,1.19,0,0,0-1.19-1.19Z"/>
      <path class="cls-6" d="M57.28,59.74a1.19,1.19,0,0,0,.6,2.22,1.16,1.16,0,0,0,.59-.16,1.19,1.19,0,1,0-1.19-2.06Z"/>
      <path class="cls-6" d="M54,60.61A1.19,1.19,0,0,0,54,63h0a1.19,1.19,0,0,0,0-2.38Z"/>
      <path class="cls-6" d="M53.79,50.82a1.18,1.18,0,0,0,.76,1.5,1.15,1.15,0,0,0,.37.06,1.19,1.19,0,1,0-1.13-1.56Z"/>
      <path class="cls-6" d="M52.57,55a1.19,1.19,0,1,0-1,1.89,1.12,1.12,0,0,0,.69-.23A1.19,1.19,0,0,0,52.57,55Z"/>
      <path class="cls-6" d="M50.65,51.56a1.19,1.19,0,0,0,.26,1.66,1.22,1.22,0,0,0,.7.23,1.19,1.19,0,1,0-1-1.89Z"/>
      <path class="cls-6" d="M54.54,55.68A1.19,1.19,0,0,0,54.9,58a1.57,1.57,0,0,0,.37,0,1.19,1.19,0,1,0-.73-2.27Z"/>
      <path class="cls-6" d="M57,55.2A1.18,1.18,0,0,0,58.14,54v0a1.19,1.19,0,1,0-2.37,0h0A1.18,1.18,0,0,0,57,55.2Z"/>
    </g>
  </g>
</svg>
