<svg xmlns="http://www.w3.org/2000/svg" version="1.1" xmlns:xlink="http://www.w3.org/1999/xlink" xmlns:svgjs="http://svgjs.dev/svgjs" viewBox="0 0 108 108" style="" x="0" y="0"><style type="text/css">
	.st0{fill:#509643;}
	.st1{fill:#568A41;}
	.st2{fill:#488A3C;}
	.st3{fill:#4D903F;}
	.st4{fill:#568D4D;}
	.st5{fill:#699B3F;}
	.st6{fill:#329245;}
	.st7{fill:#6E9C3F;}
	.st8{fill:#568941;}
	.st9{fill:#759D3E;}
	.st10{fill:#46863A;}
	.st11{fill:#4D8D3E;}
	.st12{fill:#ECEBE4;}
	.st13{fill:#F6F5EE;}
	.st14{fill:#F7F2E5;}
	.st15{fill:#E8EAE0;}
	.st16{fill:#CAC424;}
	.st17{fill:#AEA831;}
</style><g><path class="st0" d="M42,60.4c-0.5-1.5-0.8-3-1-4.6c-0.3-1.5-0.4-3.1-0.5-4.6c-0.1-1.5-0.1-3.1-0.1-4.6c0-1.5,0.1-3.1,0.1-4.6
	c0.1-3.1,0.4-6.1,0.8-9.1c0.4-3,1-6,2-8.9l0.8,0.1c0.7,3.1,1.1,6.2,1.3,9.3c0.2,3,0.2,6.1,0.1,9.1c-0.1,1.5-0.1,3-0.2,4.5
	c-0.1,1.5-0.2,3-0.4,4.5c-0.2,1.5-0.5,3-0.9,4.5c-0.4,1.5-0.8,3-1.4,4.5H42z"></path><path class="st0" d="M42,58.2c-1.1-2.9-2-5.8-2.9-8.8c-0.9-2.9-1.6-5.9-2.3-8.9c-0.7-3-1.4-6-2.1-9c-0.6-3-1.3-6-1.8-9l0.4-0.1
	c1,2.9,1.9,5.8,2.7,8.8c0.9,2.9,1.7,5.9,2.4,8.9c0.8,3,1.6,5.9,2.2,8.9c0.7,3,1.2,6,1.6,9.1L42,58.2z"></path><path class="st0" d="M42,58.3c-2-2.4-3.7-5-5.3-7.6c-1.6-2.6-3.1-5.3-4.5-8c-1.4-2.7-2.8-5.5-4.1-8.3c-1.3-2.8-2.5-5.6-3.6-8.5
	l0.4-0.2c1.9,2.5,3.5,5.1,5.2,7.7c1.6,2.6,3.2,5.3,4.7,7.9c1.5,2.7,3,5.4,4.3,8.1c1.3,2.8,2.5,5.6,3.4,8.6L42,58.3z"></path><path class="st1" d="M43.1,60c-1.8-3.2-3.9-6.1-6.3-8.8c-0.3-0.3-0.6-0.7-0.9-1c-0.3-0.3-0.6-0.6-0.9-1c-0.3-0.3-0.6-0.7-0.9-1
	l-1-0.9c-0.6-0.6-1.3-1.2-2-1.8c-0.7-0.6-1.4-1.1-2.1-1.7c-2.9-2.1-6-4-9.3-5.5c-3.3-1.5-6.7-2.8-10.3-3.8l0.1-0.4
	c3.7,0.5,7.3,1.4,10.8,2.8c3.5,1.4,6.8,3.1,9.9,5.3c0.8,0.6,1.5,1.1,2.2,1.7c0.7,0.6,1.5,1.2,2.1,1.8l1,1c0.3,0.3,0.6,0.7,1,1
	c0.3,0.3,0.6,0.7,1,1c0.3,0.4,0.6,0.7,0.9,1.1c2.3,2.9,4.2,6.3,5.3,9.8L43.1,60z"></path><path class="st0" d="M42.1,58.4c-2.8-1.3-5.5-2.8-8.1-4.4c-2.6-1.6-5.2-3.2-7.8-4.9c-1.3-0.8-2.5-1.7-3.8-2.6
	c-1.3-0.9-2.5-1.8-3.8-2.7c-2.5-1.8-4.9-3.6-7.3-5.6l0.2-0.4c2.7,1.4,5.4,2.9,8.1,4.5c1.3,0.8,2.6,1.6,3.9,2.4
	c1.3,0.8,2.6,1.6,3.9,2.4c2.6,1.7,5.1,3.3,7.6,5.1c2.5,1.8,4.9,3.6,7.2,5.7L42.1,58.4z"></path><path class="st2" d="M49.4,60.4c-2.8-1.3-5.5-2.8-8.1-4.4c-2.6-1.6-5.2-3.2-7.8-4.9c-1.3-0.9-2.5-1.7-3.8-2.6
	c-1.3-0.9-2.5-1.8-3.8-2.7c-2.5-1.8-4.9-3.6-7.3-5.6l0.2-0.4c2.7,1.4,5.4,2.9,8.1,4.5c1.3,0.8,2.6,1.6,3.9,2.4
	c1.3,0.8,2.6,1.6,3.9,2.4c2.6,1.7,5.1,3.3,7.6,5.1c2.5,1.8,4.9,3.6,7.2,5.7L49.4,60.4z"></path><path class="st3" d="M44.6,61.2c-2.7-2.1-5.8-3.7-9-4.8L34.4,56c-0.2-0.1-0.4-0.1-0.6-0.2c-0.2-0.1-0.4-0.1-0.7-0.1
	c-0.5,0-1,0.3-1.5,0.2c-0.2,0-0.4-0.1-0.6-0.2l-0.6-0.2c-0.8-0.3-1.5-0.7-2.3-0.9c-0.8-0.3-1.5-0.6-2.3-0.9
	c-0.8-0.3-1.6-0.6-2.4-0.8c-0.8-0.2-1.6-0.5-2.4-0.7c-0.8-0.2-1.6-0.4-2.5-0.6c-0.8-0.2-1.6-0.4-2.5-0.5c-3.3-0.6-6.7-1-10.2-1.2
	l0-0.4c3.4-0.7,6.9-1,10.5-1c0.9,0,1.8,0.1,2.7,0.1c0.9,0,1.8,0.1,2.7,0.2c0.9,0.1,1.8,0.3,2.6,0.4c0.9,0.1,1.8,0.3,2.6,0.5
	c0.9,0.2,1.7,0.4,2.6,0.7c0.9,0.2,1.7,0.5,2.6,0.8l0.6,0.2c0.2,0.1,0.4,0.1,0.6,0.3c0.4,0.3,0.6,0.9,0.9,1.3
	c0.2,0.2,0.3,0.3,0.5,0.4c0.2,0.1,0.4,0.2,0.6,0.4l1.1,0.7c2.9,2,5.7,4.1,8.4,6.2L44.6,61.2z"></path><path class="st0" d="M42.2,58.4c-3.1,0-6.1-0.1-9.2-0.2c-1.5-0.1-3.1-0.2-4.6-0.3l-4.6-0.4c-3.1-0.3-6.1-0.6-9.1-0.9
	c-3-0.4-6.1-0.8-9.1-1.3l0-0.4c3.1,0,6.1,0.1,9.2,0.2c3.1,0.1,6.1,0.4,9.2,0.6l4.6,0.4c1.5,0.2,3,0.3,4.6,0.5c3,0.4,6.1,0.8,9.1,1.3
	L42.2,58.4z"></path><path class="st0" d="M42.3,58.4c-2.9,1-5.9,1.8-8.9,2.5c-3,0.7-6,1.3-9,1.8c-3,0.5-6.1,1-9.1,1.3c-3.1,0.3-6.1,0.5-9.3,0.4L5.9,64
	c2.9-1.1,5.9-1.9,8.9-2.6c3-0.7,6-1.3,9-1.7c3-0.5,6.1-0.9,9.1-1.2c3.1-0.3,6.1-0.5,9.2-0.5L42.3,58.4z"></path><path class="st0" d="M42.3,58.4c-2.7,1.5-5.4,2.9-8.2,4.2c-2.8,1.3-5.6,2.6-8.4,3.8c-1.4,0.6-2.8,1.2-4.2,1.8
	c-1.4,0.6-2.8,1.2-4.3,1.7c-2.9,1.1-5.7,2.2-8.7,3.1l-0.2-0.4c2.7-1.5,5.4-2.9,8.2-4.2c1.4-0.7,2.8-1.3,4.2-1.9
	c1.4-0.6,2.8-1.3,4.2-1.9c2.8-1.2,5.6-2.4,8.5-3.5c2.9-1.1,5.7-2.2,8.7-3.2L42.3,58.4z"></path><path class="st4" d="M49.9,59.7c-3.6,0.9-7,1.8-10.4,3c-3.4,1.2-6.6,2.7-9.7,4.4c-3.1,1.7-6,3.7-8.8,6c-2.7,2.3-5.3,4.8-7.7,7.6
	L13,80.6c1.6-3.3,3.9-6.3,6.6-8.9c2.6-2.6,5.7-4.9,9-6.7c3.3-1.8,6.7-3.2,10.3-4.2c3.6-1,7.3-1.5,11-1.5L49.9,59.7z"></path><path class="st5" d="M42.4,58.3c-1.6,2.6-3.4,5.1-5.2,7.6c-0.9,1.3-1.8,2.5-2.8,3.7c-1,1.2-1.9,2.4-2.9,3.7c-2,2.4-4,4.8-6.1,7.1
	c-2.1,2.3-4.3,4.6-6.6,6.8c-0.1-0.1-0.2-0.2-0.4-0.3c1.9-2.5,3.9-4.9,5.9-7.4c2-2.4,3.9-4.8,5.9-7.3c1-1.2,2-2.4,2.9-3.6
	c1-1.2,2-2.4,2.9-3.6c2-2.4,3.9-4.8,5.9-7.1C42.2,58.1,42.3,58.2,42.4,58.3"></path><path class="st0" d="M45.3,50.1c-1.6,2.6-3.4,5.1-5.2,7.6c-0.9,1.3-1.8,2.5-2.8,3.7c-1,1.2-1.9,2.4-2.9,3.6c-2,2.4-4,4.8-6.1,7.1
	c-2.1,2.3-4.3,4.6-6.6,6.8c-0.1-0.1-0.2-0.2-0.4-0.3c1.9-2.5,3.9-4.9,5.9-7.4c2-2.4,3.9-4.8,5.9-7.3c1-1.2,2-2.4,2.9-3.6
	c1-1.2,2-2.4,2.9-3.6c2-2.4,3.9-4.8,5.9-7.1L45.3,50.1z"></path><path class="st0" d="M42.4,58.3c-0.9,3-1.9,5.8-3,8.7c-1.1,2.9-2.3,5.7-3.6,8.5c-0.6,1.4-1.3,2.8-1.9,4.2c-0.7,1.4-1.3,2.8-2,4.1
	c-1.4,2.7-2.8,5.5-4.3,8.1l-0.4-0.2c0.9-2.9,2-5.8,3.1-8.7c0.6-1.4,1.1-2.8,1.7-4.3c0.6-1.4,1.2-2.8,1.8-4.2
	c1.2-2.8,2.5-5.6,3.9-8.3c1.4-2.7,2.8-5.5,4.4-8.1L42.4,58.3z"></path><path class="st0" d="M53.1,35.3c-0.9,3-1.9,5.8-3,8.7c-1.1,2.9-2.3,5.7-3.6,8.5c-0.6,1.4-1.3,2.8-1.9,4.2c-0.7,1.4-1.3,2.8-2,4.1
	c-1.4,2.7-2.8,5.5-4.3,8.1l-0.4-0.2c0.9-2.9,2-5.8,3.1-8.7c0.6-1.4,1.1-2.8,1.7-4.3c0.6-1.4,1.2-2.8,1.8-4.2
	c1.2-2.8,2.5-5.6,3.9-8.3c1.4-2.7,2.8-5.5,4.4-8.1L53.1,35.3z"></path><path class="st6" d="M43,56.7c0.2,1.6,0.2,3.1,0.2,4.7c0,1.5-0.2,3.1-0.3,4.6c-0.2,1.5-0.4,3-0.7,4.6c-0.3,1.5-0.6,3-0.9,4.5
	c-0.6,3-1.4,6-2.3,9c-0.9,3-1.9,6-3.1,8.9c-0.2,0-0.4-0.1-0.6-0.1c0.3-3.1,0.8-6.1,1.3-9.2c0.5-3,1-6.1,1.6-9.1
	c0.3-1.5,0.6-3,0.9-4.5c0.3-1.5,0.6-3,0.9-4.5c0.3-1.5,0.7-3,1.1-4.5c0.4-1.5,0.9-3,1.5-4.4L43,56.7z"></path><path class="st1" d="M42.4,58.2c0.5,1.5,0.8,3,1.1,4.5c0.3,1.5,0.5,3,0.7,4.6c0.2,1.5,0.3,3.1,0.4,4.6c0.1,1.5,0.2,3.1,0.3,4.6
	c0.2,3.1,0.3,6.1,0.4,9.2c0.1,3.1,0.1,6.1,0,9.2l-0.4,0c-0.6-3-1-6.1-1.4-9.1c-0.4-3-0.8-6.1-1.1-9.1c-0.2-1.5-0.3-3.1-0.4-4.6
	c-0.1-1.5-0.3-3.1-0.3-4.6c-0.1-1.5-0.1-3.1,0-4.6c0.1-1.5,0.2-3.1,0.4-4.6L42.4,58.2z"></path><path class="st0" d="M42.4,58.1c1.3,2.8,2.3,5.7,3.4,8.6c1.1,2.9,2.1,5.8,3.1,8.7c0.5,1.5,1,2.9,1.6,4.4c0.5,1.5,1.1,2.9,1.6,4.4
	c1.1,2.9,2.1,5.8,3.2,8.8C55.2,93,55,93,54.9,93.1c-1.5-2.8-2.8-5.6-4.1-8.5c-0.6-1.4-1.2-2.9-1.8-4.3c-0.6-1.4-1.1-2.9-1.7-4.3
	c-1.1-2.9-2.1-5.8-3-8.7c-0.9-2.9-1.7-5.9-2.2-9C42.2,58.2,42.3,58.2,42.4,58.1"></path><path class="st7" d="M42.4,58.1c0.7,0.5,1.3,1,1.8,1.6c0.6,0.5,1.1,1.1,1.7,1.7c1.1,1.1,2.1,2.3,3,3.6c1.9,2.5,3.5,5.1,5.2,7.7
	c1.7,2.6,3.3,5.3,4.9,8c1.5,2.7,3.1,5.5,4.3,8.4c-0.1,0.1-0.3,0.2-0.4,0.2c-2.5-2.1-4.7-4.4-6.9-6.8c-2.1-2.4-4-4.8-5.9-7.4
	c-1.8-2.5-3.6-5.1-5-7.8c-0.7-1.4-1.4-2.8-1.9-4.2c-0.3-0.7-0.5-1.5-0.7-2.2c-0.2-0.8-0.4-1.5-0.5-2.4
	C42.2,58.2,42.3,58.2,42.4,58.1"></path><path class="st0" d="M33.8,59.5c0.9,0,1.9,0.1,2.8,0.2c0.9,0.1,1.8,0.3,2.8,0.4c0.9,0.1,1.8,0.4,2.7,0.6c0.5,0.1,0.9,0.2,1.4,0.4
	l1.3,0.4c3.6,1.2,7,2.9,10.1,4.9c3.1,2.1,6,4.5,8.5,7.3c2.5,2.8,4.6,6,6,9.4L69,83.3c-2-3-4.4-5.8-7-8.3c-2.6-2.5-5.4-4.7-8.5-6.6
	c-3-1.9-6.2-3.5-9.6-4.9L42.7,63c-0.4-0.2-0.8-0.3-1.3-0.5c-0.8-0.3-1.7-0.7-2.5-0.9c-0.9-0.3-1.7-0.6-2.6-0.9
	c-0.9-0.3-1.7-0.5-2.6-0.8L33.8,59.5z"></path><path class="st8" d="M42.3,58c1.5,0.5,2.9,1.1,4.3,1.7c1.4,0.6,2.8,1.3,4.2,1.9c2.8,1.3,5.5,2.8,8.1,4.3c2.7,1.5,5.3,3,7.9,4.6
	c2.6,1.6,5.2,3.3,7.7,5.1L74.4,76c-2.9-1.1-5.7-2.4-8.4-3.8c-2.8-1.3-5.5-2.7-8.2-4.2c-2.7-1.5-5.4-3-8-4.6
	c-1.3-0.8-2.6-1.6-3.9-2.5c-1.3-0.9-2.6-1.7-3.8-2.7L42.3,58z"></path><path class="st0" d="M37.5,56.8c1.5-0.1,3.1-0.1,4.6-0.1c1.5,0,3.1,0,4.6,0.1c3.1,0.1,6.1,0.3,9.2,0.6s6.1,0.6,9.1,1.1
	c3,0.4,6.1,0.9,9.1,1.6l0,0.4c-3.1,0.1-6.2,0.1-9.2-0.1c-3.1-0.1-6.1-0.3-9.2-0.6c-3.1-0.2-6.1-0.6-9.1-1c-1.5-0.2-3-0.5-4.6-0.7
	c-1.5-0.3-3-0.6-4.5-0.9L37.5,56.8z"></path><path class="st0" d="M42.3,58c3,0.6,6,1.4,9,2.1c3,0.7,6,1.5,9,2.3c3,0.8,6,1.6,9,2.4c3,0.8,6,1.6,9,2.5c0,0.1-0.1,0.3-0.1,0.4
	c-3.1-0.5-6.1-1.1-9.2-1.7c-3-0.6-6.1-1.4-9.1-2.1c-3-0.8-6-1.6-8.9-2.5c-2.9-0.9-5.9-1.8-8.8-2.9C42.2,58.3,42.2,58.1,42.3,58"></path><path class="st0" d="M42.1,58c2.9-1.2,6-2.1,9.1-2.7c3.1-0.6,6.3-0.9,9.4-0.8l2.4,0.1l2.4,0.2l2.4,0.3l2.3,0.4
	c3.1,0.6,6.1,1.5,9,2.7l-0.1,0.4c-3-0.9-6-1.7-9.1-2.2l-2.3-0.3l-2.3-0.2l-2.3-0.1l-2.3-0.1c-3.1,0-6.2,0.2-9.3,0.7
	c-3.1,0.5-6.1,1.1-9.1,2L42.1,58z"></path><path class="st9" d="M42.2,58c2.9-1,5.9-1.8,8.8-2.7c1.5-0.4,3-0.8,4.4-1.2c1.5-0.4,3-0.8,4.5-1.1c3-0.8,6-1.5,8.9-2.1
	c3-0.6,6-1.2,9.1-1.7l0.1,0.4c-2.9,1-5.8,1.9-8.8,2.7c-3,0.8-5.9,1.6-8.9,2.3c-1.5,0.4-3,0.7-4.5,1.1c-1.5,0.3-3,0.7-4.5,1
	c-3,0.6-6,1.2-9,1.7L42.2,58z"></path><path class="st0" d="M40.7,60c2.4-2,5-3.7,7.6-5.3c2.6-1.6,5.3-3,8.1-4.4c2.7-1.4,5.5-2.7,8.3-4c2.8-1.3,5.6-2.5,8.5-3.6l0.2,0.4
	c-2.5,1.8-5.1,3.5-7.7,5.1c-2.6,1.6-5.3,3.1-8,4.6c-2.7,1.5-5.4,2.9-8.2,4.2c-2.8,1.3-5.6,2.5-8.6,3.4L40.7,60z"></path><path class="st0" d="M33.6,60c2.4-2,5-3.7,7.6-5.3c2.6-1.6,5.3-3,8.1-4.4c2.7-1.4,5.5-2.7,8.3-4c2.8-1.3,5.6-2.5,8.5-3.6l0.2,0.4
	c-2.5,1.8-5.1,3.5-7.7,5.1c-2.6,1.6-5.3,3.1-8,4.6c-2.7,1.5-5.4,2.9-8.2,4.2c-2.8,1.3-5.6,2.5-8.6,3.4L33.6,60z"></path><path class="st10" d="M40.6,59.5c1.4-3.4,3.5-6.6,6.1-9.4c2.5-2.8,5.5-5.2,8.7-7.1c0.8-0.5,1.6-1,2.4-1.4c0.8-0.5,1.7-0.9,2.5-1.3
	c0.4-0.2,0.8-0.4,1.3-0.6c0.4-0.2,0.9-0.3,1.3-0.5l1.3-0.5l1.3-0.4c3.5-1.1,7.2-1.9,10.9-2.2l0.1,0.4c-3.6,0.9-7,2-10.4,3.3
	l-1.3,0.5l-1.2,0.6c-0.4,0.2-0.8,0.4-1.2,0.6c-0.4,0.2-0.8,0.4-1.2,0.6c-0.8,0.4-1.6,0.8-2.4,1.3c-0.8,0.5-1.6,0.9-2.3,1.4
	c-3,2-5.8,4.2-8.4,6.7c-2.6,2.5-4.9,5.2-7.1,8.2L40.6,59.5z"></path><path class="st0" d="M42.1,58.1c1.4-2.8,2.9-5.4,4.5-8c1.6-2.6,3.3-5.2,5-7.7l1.3-1.9l1.3-1.9c0.9-1.3,1.8-2.5,2.7-3.8
	c1.8-2.5,3.6-4.9,5.6-7.3l0.4,0.2c-1.4,2.7-3,5.4-4.6,8c-0.8,1.3-1.6,2.6-2.4,3.9l-1.2,1.9l-1.3,1.9c-1.7,2.6-3.4,5.1-5.2,7.6
	c-1.8,2.5-3.6,4.9-5.7,7.3L42.1,58.1z"></path><path class="st11" d="M42,58.1c-0.1-1.6,0.2-3.2,0.5-4.7c0.3-1.5,0.8-3,1.3-4.4c1-2.9,2.1-5.8,3.2-8.6c1.1-2.9,2.2-5.7,3.4-8.5
	c1.2-2.8,2.4-5.6,3.8-8.4l0.4,0.1c-0.7,3-1.5,6-2.3,8.9c-0.8,3-1.7,5.9-2.7,8.8c-0.9,2.9-1.9,5.8-2.9,8.7c-0.5,1.4-1,2.9-1.7,4.3
	c-0.7,1.4-1.5,2.7-2.6,4L42,58.1z"></path><path class="st0" d="M49.9,58.1c0,4.1-3.3,7.4-7.4,7.4c-4.1,0-7.4-3.3-7.4-7.4c0-4.1,3.3-7.4,7.4-7.4C46.6,50.6,49.9,54,49.9,58.1"></path><path class="st0" d="M57.5,66.4c-0.5-1.5-0.8-3-1-4.6c-0.3-1.5-0.4-3.1-0.5-4.6c-0.1-1.5-0.1-3.1-0.1-4.6c0-1.5,0.1-3.1,0.1-4.6
	c0.1-3.1,0.4-6.1,0.8-9.1c0.4-3,1-6,2-8.9l0.8,0.1c0.7,3.1,1.1,6.2,1.3,9.3c0.2,3,0.2,6.1,0.1,9.1c-0.1,1.5-0.1,3-0.2,4.5
	c-0.1,1.5-0.2,3-0.4,4.5c-0.2,1.5-0.5,3-0.9,4.5c-0.4,1.5-0.8,3-1.4,4.5H57.5z"></path><path class="st0" d="M57.5,64.3c-1.1-2.9-2-5.8-2.9-8.8c-0.9-2.9-1.6-5.9-2.3-8.9c-0.7-3-1.4-6-2.1-9c-0.6-3-1.3-6-1.8-9l0.4-0.1
	c1,2.9,1.9,5.8,2.7,8.8c0.9,2.9,1.7,5.9,2.4,8.9c0.8,3,1.6,5.9,2.2,8.9c0.7,3,1.2,6,1.6,9.1L57.5,64.3z"></path><path class="st0" d="M57.6,64.3c-2-2.4-3.7-5-5.3-7.6c-1.6-2.6-3.1-5.3-4.5-8c-1.4-2.7-2.8-5.5-4.1-8.3c-1.3-2.8-2.5-5.6-3.6-8.5
	l0.4-0.2c1.9,2.5,3.5,5.1,5.2,7.7c1.6,2.6,3.2,5.2,4.7,7.9c1.5,2.7,3,5.4,4.3,8.2c1.3,2.8,2.5,5.6,3.4,8.6L57.6,64.3z"></path><path class="st1" d="M58.7,66.1c-1.8-3.2-3.9-6.1-6.3-8.8c-0.3-0.3-0.6-0.7-0.9-1c-0.3-0.3-0.6-0.6-0.9-1c-0.3-0.3-0.6-0.7-0.9-1
	l-1-0.9c-0.6-0.6-1.3-1.2-2-1.8c-0.7-0.6-1.4-1.1-2.1-1.7c-2.9-2.1-6-4-9.3-5.5c-3.3-1.5-6.7-2.8-10.3-3.8l0.1-0.4
	c3.7,0.5,7.3,1.4,10.8,2.8c3.5,1.4,6.8,3.1,9.9,5.3c0.8,0.6,1.5,1.1,2.2,1.7c0.7,0.6,1.5,1.2,2.1,1.8l1,1c0.3,0.3,0.6,0.7,1,1
	c0.3,0.3,0.6,0.7,1,1c0.3,0.4,0.6,0.7,0.9,1.1c2.3,2.9,4.2,6.3,5.3,9.8L58.7,66.1z"></path><path class="st0" d="M57.6,64.4c-2.8-1.3-5.5-2.8-8.1-4.4c-2.6-1.6-5.2-3.2-7.8-4.9c-1.3-0.8-2.5-1.7-3.8-2.6
	c-1.3-0.9-2.5-1.8-3.8-2.7c-2.5-1.8-4.9-3.6-7.3-5.6l0.2-0.4c2.7,1.4,5.4,2.9,8.1,4.5c1.3,0.8,2.6,1.6,3.9,2.4
	c1.3,0.8,2.6,1.6,3.9,2.4c2.6,1.7,5.1,3.3,7.6,5.1c2.5,1.8,4.9,3.6,7.2,5.7L57.6,64.4z"></path><path class="st2" d="M64.9,66.5c-2.8-1.3-5.5-2.8-8.1-4.4c-2.6-1.6-5.2-3.2-7.8-4.9c-1.3-0.8-2.5-1.7-3.8-2.6
	c-1.3-0.9-2.5-1.8-3.8-2.7c-2.5-1.8-4.9-3.6-7.3-5.6l0.2-0.4c2.7,1.4,5.4,2.9,8.1,4.5c1.3,0.8,2.6,1.6,3.9,2.4
	c1.3,0.8,2.6,1.6,3.9,2.4c2.6,1.7,5.1,3.3,7.6,5.1c2.5,1.8,4.9,3.6,7.2,5.7L64.9,66.5z"></path><path class="st3" d="M60.1,67.2c-2.7-2.1-5.8-3.7-9-4.8L49.9,62c-0.2-0.1-0.4-0.1-0.6-0.2c-0.2-0.1-0.4-0.1-0.7-0.1
	c-0.5,0-1.1,0.3-1.5,0.2c-0.2,0-0.4-0.1-0.6-0.2L46,61.5c-0.8-0.3-1.5-0.7-2.3-0.9c-0.8-0.3-1.5-0.6-2.3-0.9
	c-0.8-0.3-1.6-0.6-2.4-0.8c-0.8-0.2-1.6-0.5-2.4-0.7c-0.8-0.2-1.6-0.4-2.5-0.6c-0.8-0.2-1.6-0.4-2.5-0.5c-3.3-0.6-6.7-1-10.2-1.2
	l0-0.4c3.4-0.7,6.9-1,10.5-1c0.9,0,1.8,0.1,2.7,0.1c0.9,0,1.8,0.1,2.7,0.2c0.9,0.1,1.8,0.3,2.6,0.4c0.9,0.1,1.8,0.3,2.6,0.5
	c0.9,0.2,1.7,0.4,2.6,0.7c0.9,0.2,1.7,0.5,2.6,0.8l0.6,0.2c0.2,0.1,0.4,0.1,0.6,0.3c0.4,0.3,0.6,0.9,0.9,1.3
	c0.2,0.2,0.3,0.3,0.5,0.4c0.2,0.1,0.4,0.2,0.6,0.4l1.1,0.7c2.9,2,5.7,4.1,8.4,6.2L60.1,67.2z"></path><path class="st0" d="M57.7,64.4c-3.1,0-6.1-0.1-9.2-0.2c-1.5-0.1-3.1-0.2-4.6-0.3l-4.6-0.4c-3.1-0.3-6.1-0.6-9.1-0.9
	c-3-0.4-6.1-0.8-9.1-1.3l0-0.4c3.1,0,6.1,0.1,9.2,0.2c3.1,0.1,6.1,0.4,9.2,0.6l4.6,0.4c1.5,0.2,3,0.3,4.6,0.5c3,0.4,6.1,0.8,9.1,1.3
	L57.7,64.4z"></path><path class="st0" d="M57.8,64.4c-2.9,1-5.9,1.8-8.9,2.5c-3,0.7-6,1.3-9,1.8c-3,0.5-6.1,1-9.1,1.3c-3.1,0.3-6.1,0.5-9.3,0.4L21.4,70
	c2.9-1.1,5.9-1.9,8.9-2.6c3-0.7,6-1.3,9-1.7c3-0.5,6.1-0.9,9.1-1.2c3.1-0.3,6.1-0.5,9.2-0.5L57.8,64.4z"></path><path class="st0" d="M57.8,64.4c-2.7,1.5-5.4,2.9-8.2,4.2c-2.8,1.3-5.6,2.6-8.4,3.8c-1.4,0.6-2.8,1.2-4.2,1.8
	c-1.4,0.6-2.8,1.2-4.3,1.7c-2.9,1.1-5.7,2.2-8.7,3.1L24,78.7c2.7-1.5,5.4-2.9,8.2-4.2c1.4-0.7,2.8-1.3,4.2-1.9
	c1.4-0.6,2.8-1.3,4.2-1.9c2.8-1.2,5.6-2.4,8.5-3.5c2.9-1.1,5.7-2.2,8.7-3.2L57.8,64.4z"></path><path class="st4" d="M65.4,65.8c-3.6,0.9-7,1.8-10.4,3c-3.4,1.2-6.6,2.7-9.7,4.4c-3.1,1.7-6,3.7-8.8,6c-2.7,2.3-5.3,4.8-7.7,7.6
	l-0.4-0.2c1.6-3.3,3.9-6.3,6.6-8.9c2.6-2.6,5.7-4.9,9-6.7c3.3-1.8,6.7-3.2,10.3-4.2c3.6-1,7.3-1.5,11-1.5L65.4,65.8z"></path><path class="st5" d="M57.9,64.4c-1.6,2.6-3.4,5.1-5.2,7.6c-0.9,1.3-1.8,2.5-2.8,3.7c-1,1.2-1.9,2.4-2.9,3.6c-2,2.4-4,4.8-6.1,7.1
	c-2.1,2.3-4.3,4.6-6.6,6.8c-0.1-0.1-0.2-0.2-0.4-0.3c1.9-2.5,3.9-4.9,5.9-7.4c2-2.4,3.9-4.8,5.9-7.3c1-1.2,2-2.4,2.9-3.6
	c1-1.2,2-2.4,2.9-3.6c2-2.4,3.9-4.8,5.9-7.1C57.7,64.2,57.8,64.3,57.9,64.4"></path><path class="st0" d="M60.9,56.1c-1.6,2.6-3.4,5.1-5.2,7.6c-0.9,1.3-1.8,2.5-2.8,3.7c-1,1.2-1.9,2.4-2.9,3.6c-2,2.4-4,4.8-6.1,7.1
	c-2.1,2.3-4.3,4.6-6.6,6.8c-0.1-0.1-0.2-0.2-0.4-0.3c1.9-2.5,3.9-4.9,5.9-7.4c2-2.4,3.9-4.8,5.9-7.3c1-1.2,2-2.4,2.9-3.6
	c1-1.2,2-2.4,2.9-3.6c2-2.4,3.9-4.8,5.9-7.1C60.6,55.9,60.7,56,60.9,56.1"></path><path class="st0" d="M57.9,64.3c-0.9,3-1.9,5.8-3,8.7c-1.1,2.9-2.3,5.7-3.6,8.5c-0.6,1.4-1.3,2.8-1.9,4.2c-0.7,1.4-1.3,2.8-2,4.1
	c-1.4,2.7-2.8,5.5-4.3,8.1l-0.4-0.2c0.9-2.9,2-5.8,3.1-8.7c0.6-1.4,1.1-2.8,1.7-4.3c0.6-1.4,1.2-2.8,1.8-4.2
	c1.2-2.8,2.5-5.6,3.9-8.3c1.4-2.7,2.8-5.5,4.4-8.1L57.9,64.3z"></path><path class="st0" d="M68.6,41.3c-0.9,3-1.9,5.8-3,8.7c-1.1,2.9-2.3,5.7-3.6,8.5c-0.6,1.4-1.3,2.8-1.9,4.2c-0.7,1.4-1.3,2.8-2,4.1
	c-1.4,2.7-2.8,5.5-4.3,8.1l-0.4-0.2c0.9-2.9,2-5.8,3.1-8.7c0.6-1.4,1.1-2.8,1.7-4.3c0.6-1.4,1.2-2.8,1.8-4.2
	c1.2-2.8,2.5-5.6,3.9-8.3c1.4-2.7,2.8-5.5,4.4-8.1L68.6,41.3z"></path><path class="st6" d="M58.6,62.7c0.2,1.6,0.2,3.1,0.2,4.7c0,1.5-0.2,3.1-0.3,4.6c-0.2,1.5-0.4,3-0.7,4.6c-0.3,1.5-0.6,3-0.9,4.5
	c-0.6,3-1.4,6-2.3,9c-0.9,3-1.9,6-3.1,8.9c-0.2,0-0.4-0.1-0.6-0.1c0.3-3.1,0.8-6.1,1.3-9.2c0.5-3,1-6.1,1.6-9.1
	c0.3-1.5,0.6-3,0.9-4.5c0.3-1.5,0.6-3,0.9-4.5c0.3-1.5,0.7-3,1.1-4.5c0.4-1.5,0.9-3,1.5-4.4C58.3,62.7,58.4,62.7,58.6,62.7"></path><path class="st1" d="M58,64.2c0.5,1.5,0.8,3,1.1,4.5c0.3,1.5,0.5,3,0.7,4.6c0.2,1.5,0.3,3.1,0.4,4.6c0.1,1.5,0.2,3.1,0.3,4.6
	c0.2,3.1,0.3,6.1,0.4,9.2c0.1,3.1,0.1,6.1,0,9.2l-0.4,0c-0.6-3-1-6.1-1.4-9.1c-0.4-3-0.8-6.1-1.1-9.1c-0.2-1.5-0.3-3.1-0.4-4.6
	c-0.1-1.5-0.3-3.1-0.3-4.6c-0.1-1.5-0.1-3.1,0-4.6c0.1-1.5,0.2-3.1,0.4-4.6L58,64.2z"></path><path class="st0" d="M58,64.2c1.3,2.8,2.3,5.7,3.4,8.6c1.1,2.9,2.1,5.8,3.1,8.7c0.5,1.5,1,2.9,1.6,4.4c0.5,1.5,1.1,2.9,1.6,4.4
	c1.1,2.9,2.1,5.8,3.2,8.8c-0.2,0.1-0.3,0.1-0.5,0.2c-1.5-2.8-2.8-5.6-4.1-8.5c-0.6-1.4-1.2-2.9-1.8-4.3c-0.6-1.4-1.1-2.9-1.7-4.3
	c-1.1-2.9-2.1-5.8-3-8.7c-0.9-2.9-1.7-5.9-2.2-9C57.7,64.3,57.8,64.2,58,64.2"></path><path class="st7" d="M57.9,64.1c0.7,0.5,1.3,1,1.8,1.6c0.6,0.5,1.1,1.1,1.7,1.7c1.1,1.1,2.1,2.3,3,3.6c1.9,2.5,3.5,5.1,5.2,7.7
	c1.7,2.6,3.3,5.3,4.9,8c1.5,2.7,3.1,5.5,4.3,8.4c-0.1,0.1-0.3,0.2-0.4,0.2c-2.5-2.1-4.7-4.4-6.9-6.8c-2.1-2.4-4-4.9-5.9-7.4
	c-1.8-2.5-3.6-5.1-5-7.8c-0.7-1.4-1.4-2.8-1.9-4.2c-0.3-0.7-0.5-1.5-0.7-2.2c-0.2-0.8-0.4-1.5-0.5-2.4
	C57.7,64.3,57.8,64.2,57.9,64.1"></path><path class="st0" d="M49.3,65.5c0.9,0,1.9,0.1,2.8,0.2c0.9,0.1,1.8,0.3,2.8,0.4c0.9,0.1,1.8,0.4,2.7,0.6c0.5,0.1,0.9,0.2,1.4,0.4
	l1.3,0.4c3.6,1.2,7,2.9,10.1,4.9c3.1,2.1,6,4.5,8.5,7.3c2.5,2.8,4.6,6,6,9.4l-0.4,0.2c-2-3-4.4-5.8-7-8.3c-2.6-2.5-5.4-4.7-8.5-6.6
	c-3-1.9-6.2-3.5-9.6-4.9L58.3,69c-0.4-0.2-0.8-0.3-1.3-0.5c-0.8-0.3-1.7-0.7-2.5-0.9c-0.9-0.3-1.7-0.6-2.6-0.9
	c-0.9-0.3-1.7-0.5-2.6-0.8L49.3,65.5z"></path><path class="st8" d="M57.9,64c1.5,0.5,2.9,1.1,4.3,1.7c1.4,0.6,2.8,1.3,4.2,1.9c2.8,1.3,5.5,2.8,8.1,4.3c2.7,1.5,5.3,3,7.9,4.6
	c2.6,1.6,5.2,3.3,7.7,5.1l-0.2,0.4c-2.9-1.1-5.7-2.4-8.4-3.8c-2.8-1.3-5.5-2.7-8.2-4.2c-2.7-1.5-5.4-3-8-4.6
	c-1.3-0.8-2.6-1.6-3.9-2.5c-1.3-0.9-2.5-1.7-3.8-2.7L57.9,64z"></path><path class="st0" d="M53,62.8c1.5-0.1,3.1-0.1,4.6-0.1c1.5,0,3.1,0,4.6,0.1c3.1,0.1,6.1,0.4,9.2,0.6c3,0.3,6.1,0.6,9.1,1.1
	c3,0.4,6.1,0.9,9.1,1.6l0,0.4c-3.1,0.1-6.2,0.1-9.2-0.1c-3.1-0.1-6.1-0.3-9.2-0.6c-3.1-0.2-6.1-0.6-9.1-1c-1.5-0.2-3-0.5-4.6-0.7
	c-1.5-0.3-3-0.6-4.5-0.9L53,62.8z"></path><path class="st0" d="M57.8,64c3,0.6,6,1.4,9,2.1c3,0.7,6,1.5,9,2.3c3,0.8,6,1.6,9,2.4c3,0.8,6,1.6,9,2.5c0,0.1-0.1,0.3-0.1,0.4
	c-3.1-0.5-6.1-1.1-9.2-1.7c-3-0.6-6.1-1.4-9.1-2.1c-3-0.8-6-1.6-8.9-2.5c-2.9-0.9-5.9-1.8-8.8-2.9C57.7,64.3,57.8,64.2,57.8,64"></path><path class="st0" d="M57.6,64c2.9-1.2,6-2.1,9.1-2.7c3.1-0.6,6.3-0.9,9.4-0.8l2.4,0.1l2.4,0.2l2.4,0.3l2.3,0.4
	c3.1,0.6,6.1,1.5,9,2.7l-0.1,0.4c-3-0.9-6-1.7-9.1-2.2l-2.3-0.3l-2.3-0.2l-2.3-0.1l-2.3-0.1c-3.1,0-6.2,0.2-9.3,0.7
	c-3.1,0.5-6.1,1.1-9.1,2L57.6,64z"></path><path class="st9" d="M57.7,64c2.9-1,5.9-1.8,8.8-2.7c1.5-0.4,3-0.8,4.4-1.2c1.5-0.4,3-0.8,4.5-1.1c3-0.8,6-1.5,8.9-2.1
	c3-0.6,6-1.2,9.1-1.7l0.1,0.4c-2.9,1-5.8,1.9-8.8,2.7c-3,0.8-5.9,1.6-8.9,2.3c-1.5,0.4-3,0.7-4.5,1.1c-1.5,0.3-3,0.7-4.5,1
	c-3,0.6-6,1.2-9,1.7L57.7,64z"></path><path class="st0" d="M56.3,66c2.4-2,5-3.7,7.6-5.3c2.6-1.6,5.3-3,8.1-4.4c2.7-1.4,5.5-2.7,8.3-4c2.8-1.3,5.6-2.5,8.5-3.6l0.2,0.4
	c-2.5,1.8-5.1,3.5-7.7,5.1c-2.6,1.6-5.3,3.1-8,4.6c-2.7,1.5-5.4,2.9-8.2,4.2c-2.8,1.3-5.6,2.5-8.6,3.4L56.3,66z"></path><path class="st0" d="M49.1,66c2.4-2,5-3.7,7.6-5.3c2.6-1.6,5.3-3,8.1-4.4c2.7-1.4,5.5-2.7,8.3-4c2.8-1.3,5.6-2.5,8.5-3.6l0.2,0.4
	c-2.5,1.8-5.1,3.5-7.7,5.1c-2.6,1.6-5.3,3.1-8,4.6c-2.7,1.5-5.4,2.9-8.2,4.2c-2.8,1.3-5.6,2.5-8.6,3.4L49.1,66z"></path><path class="st10" d="M56.1,65.5c1.4-3.4,3.5-6.6,6.1-9.4c2.5-2.8,5.5-5.2,8.7-7.1c0.8-0.5,1.6-1,2.4-1.4c0.8-0.5,1.7-0.9,2.5-1.3
	c0.4-0.2,0.8-0.4,1.3-0.6c0.4-0.2,0.9-0.3,1.3-0.5l1.3-0.5l1.3-0.4c3.5-1.1,7.2-1.9,10.9-2.2l0.1,0.4c-3.6,0.9-7,2-10.4,3.3
	l-1.3,0.5l-1.2,0.6c-0.4,0.2-0.8,0.4-1.2,0.6c-0.4,0.2-0.8,0.4-1.2,0.6c-0.8,0.4-1.6,0.8-2.4,1.3c-0.8,0.5-1.6,0.9-2.3,1.4
	c-3,2-5.8,4.2-8.4,6.7c-2.6,2.5-4.9,5.2-7.1,8.2L56.1,65.5z"></path><path class="st0" d="M57.6,64.1c1.4-2.8,2.9-5.4,4.5-8c1.6-2.6,3.3-5.2,5-7.7l1.3-1.9l1.3-1.9c0.9-1.3,1.8-2.5,2.7-3.8
	c1.8-2.5,3.6-4.9,5.6-7.3l0.4,0.2c-1.4,2.7-3,5.4-4.6,8c-0.8,1.3-1.6,2.6-2.4,3.9L70,47.5l-1.3,1.9c-1.7,2.6-3.4,5.1-5.2,7.6
	c-1.8,2.5-3.6,4.9-5.7,7.3L57.6,64.1z"></path><path class="st11" d="M57.5,64.2c-0.1-1.6,0.2-3.2,0.5-4.7c0.3-1.5,0.8-3,1.3-4.4c1-2.9,2.1-5.8,3.2-8.6c1.1-2.9,2.2-5.7,3.4-8.5
	c1.2-2.8,2.4-5.6,3.8-8.4l0.4,0.1c-0.7,3-1.5,6-2.3,8.9c-0.8,3-1.7,5.9-2.7,8.8c-0.9,2.9-1.9,5.8-2.9,8.7c-0.5,1.4-1,2.9-1.7,4.3
	c-0.7,1.4-1.5,2.7-2.6,4L57.5,64.2z"></path><path class="st0" d="M65.4,64.1c0,4.1-3.3,7.4-7.4,7.4c-4.1,0-7.4-3.3-7.4-7.4c0-4.1,3.3-7.4,7.4-7.4C62.1,56.7,65.4,60,65.4,64.1"></path><path class="st0" d="M62.7,47.4c-0.5-1.5-0.8-3-1-4.6c-0.3-1.5-0.4-3.1-0.5-4.6C61,36.6,61,35.1,61,33.6c0-1.5,0.1-3.1,0.1-4.6
	c0.1-3.1,0.4-6.1,0.8-9.1c0.4-3,1-6,2-8.9l0.8,0.1c0.7,3.1,1.1,6.2,1.3,9.3c0.2,3,0.2,6.1,0.1,9.1c-0.1,1.5-0.1,3-0.2,4.5
	c-0.1,1.5-0.2,3-0.4,4.5c-0.2,1.5-0.5,3-0.9,4.5c-0.4,1.5-0.8,3-1.4,4.5H62.7z"></path><path class="st0" d="M62.7,45.2c-1.1-2.9-2-5.8-2.9-8.8c-0.9-2.9-1.6-5.9-2.3-8.9c-0.7-3-1.4-6-2.1-9c-0.6-3-1.3-6-1.8-9l0.4-0.1
	c1,2.9,1.9,5.8,2.7,8.8c0.8,2.9,1.7,5.9,2.4,8.9c0.8,3,1.6,5.9,2.2,8.9c0.7,3,1.3,6,1.6,9.1L62.7,45.2z"></path><path class="st0" d="M62.7,45.3c-2-2.4-3.7-5-5.3-7.6c-1.6-2.6-3.1-5.3-4.5-8c-1.4-2.7-2.8-5.5-4.1-8.3c-1.3-2.8-2.5-5.6-3.6-8.5
	l0.4-0.2c1.9,2.5,3.5,5.1,5.2,7.7c1.6,2.6,3.2,5.2,4.7,7.9c1.5,2.7,3,5.4,4.3,8.1c1.3,2.8,2.5,5.6,3.4,8.6L62.7,45.3z"></path><path class="st1" d="M63.8,47c-1.8-3.2-3.9-6.1-6.3-8.8c-0.3-0.3-0.6-0.7-0.9-1c-0.3-0.3-0.6-0.6-0.9-1c-0.3-0.3-0.6-0.7-0.9-1
	l-1-0.9c-0.6-0.6-1.3-1.2-2-1.8c-0.7-0.6-1.4-1.1-2.1-1.7c-2.9-2.1-6-4-9.3-5.5c-3.3-1.5-6.7-2.8-10.3-3.8l0.1-0.4
	c3.7,0.5,7.3,1.4,10.8,2.8c3.5,1.4,6.8,3.1,9.9,5.3c0.8,0.6,1.5,1.1,2.2,1.7c0.7,0.6,1.5,1.2,2.1,1.8l1,1c0.3,0.3,0.6,0.7,1,1
	c0.3,0.3,0.6,0.7,1,1c0.3,0.4,0.6,0.7,0.9,1.1c2.3,2.9,4.2,6.3,5.3,9.8L63.8,47z"></path><path class="st0" d="M62.8,45.3C60,44,57.3,42.5,54.6,41c-2.6-1.6-5.2-3.2-7.8-4.9c-1.3-0.9-2.5-1.7-3.8-2.6
	c-1.3-0.9-2.5-1.8-3.8-2.7c-2.5-1.8-4.9-3.6-7.3-5.6l0.2-0.4c2.7,1.4,5.4,2.9,8.1,4.5c1.3,0.8,2.6,1.6,3.9,2.4
	c1.3,0.8,2.6,1.6,3.9,2.4c2.6,1.7,5.1,3.3,7.6,5.1c2.5,1.8,4.9,3.6,7.2,5.7L62.8,45.3z"></path><path class="st2" d="M70.1,47.4c-2.8-1.3-5.5-2.8-8.1-4.4c-2.6-1.6-5.2-3.2-7.8-4.9c-1.3-0.8-2.5-1.7-3.8-2.6
	c-1.3-0.9-2.5-1.8-3.8-2.7c-2.5-1.8-4.9-3.6-7.3-5.6l0.2-0.4c2.7,1.4,5.4,2.9,8.1,4.5c1.3,0.8,2.6,1.6,3.9,2.4
	c1.3,0.8,2.6,1.6,3.9,2.4c2.6,1.7,5.1,3.3,7.6,5.1c2.5,1.8,4.9,3.6,7.2,5.7L70.1,47.4z"></path><path class="st3" d="M65.3,48.2c-2.7-2.1-5.8-3.7-9-4.8L55,42.9c-0.2-0.1-0.4-0.1-0.6-0.2c-0.2-0.1-0.4-0.1-0.7-0.1
	c-0.5,0-1,0.3-1.5,0.2c-0.2,0-0.4-0.1-0.6-0.2l-0.6-0.2c-0.8-0.3-1.5-0.7-2.3-0.9c-0.8-0.3-1.5-0.6-2.3-0.9
	c-0.8-0.3-1.6-0.6-2.4-0.8c-0.8-0.2-1.6-0.5-2.4-0.7c-0.8-0.2-1.6-0.4-2.5-0.6c-0.8-0.2-1.6-0.4-2.5-0.5c-3.3-0.6-6.7-1-10.2-1.2
	l0-0.4c3.4-0.7,6.9-1,10.5-1c0.9,0,1.8,0.1,2.7,0.1c0.9,0,1.8,0.1,2.7,0.2c0.9,0.1,1.8,0.3,2.6,0.4c0.9,0.1,1.8,0.3,2.6,0.5
	c0.9,0.2,1.7,0.4,2.6,0.7c0.9,0.2,1.7,0.5,2.6,0.8l0.6,0.2c0.2,0.1,0.4,0.1,0.6,0.3c0.4,0.3,0.6,0.9,0.9,1.3
	c0.2,0.2,0.3,0.3,0.5,0.4c0.2,0.1,0.4,0.2,0.6,0.4l1.1,0.7c2.9,2,5.7,4.1,8.4,6.2L65.3,48.2z"></path><path class="st0" d="M62.9,45.4c-3.1,0-6.1-0.1-9.2-0.2c-1.5-0.1-3.1-0.2-4.6-0.3l-4.6-0.4c-3.1-0.3-6.1-0.6-9.1-0.9
	c-3-0.4-6.1-0.8-9.1-1.3l0-0.4c3.1,0,6.1,0.1,9.2,0.2c3.1,0.1,6.1,0.4,9.2,0.6l4.6,0.4c1.5,0.2,3,0.3,4.6,0.5c3,0.4,6.1,0.8,9.1,1.3
	L62.9,45.4z"></path><path class="st0" d="M62.9,45.4c-2.9,1-5.9,1.8-8.9,2.5c-3,0.7-6,1.3-9,1.8c-3,0.5-6.1,1-9.1,1.3c-3.1,0.3-6.1,0.5-9.3,0.4l-0.1-0.4
	c2.9-1.1,5.9-1.9,8.9-2.6c3-0.7,6-1.3,9-1.7c3-0.5,6.1-0.9,9.1-1.2c3.1-0.3,6.1-0.5,9.2-0.5L62.9,45.4z"></path><path class="st0" d="M63,45.3c-2.7,1.5-5.4,2.9-8.2,4.2c-2.8,1.3-5.6,2.6-8.4,3.8c-1.4,0.6-2.8,1.2-4.2,1.8
	c-1.4,0.6-2.8,1.2-4.3,1.7c-2.9,1.1-5.7,2.2-8.7,3.1l-0.2-0.4c2.7-1.5,5.4-2.9,8.2-4.2c1.4-0.7,2.8-1.3,4.2-1.9
	c1.4-0.6,2.8-1.3,4.2-1.9c2.8-1.2,5.6-2.4,8.5-3.5c2.9-1.1,5.7-2.2,8.7-3.2L63,45.3z"></path><path class="st4" d="M70.5,46.7c-3.6,0.9-7,1.8-10.4,3c-3.4,1.2-6.6,2.7-9.7,4.4c-3.1,1.7-6,3.7-8.8,6c-2.7,2.3-5.3,4.8-7.7,7.6
	l-0.4-0.2c1.6-3.3,3.9-6.3,6.6-8.9c2.6-2.6,5.7-4.9,9-6.7c3.3-1.8,6.7-3.2,10.3-4.2c3.6-1,7.3-1.5,11-1.5L70.5,46.7z"></path><path class="st5" d="M63.1,45.3c-1.6,2.6-3.4,5.1-5.2,7.6c-0.9,1.3-1.8,2.5-2.8,3.7c-1,1.2-1.9,2.4-2.9,3.6c-2,2.4-4,4.8-6.1,7.1
	c-2.1,2.3-4.3,4.6-6.6,6.8c-0.1-0.1-0.2-0.2-0.4-0.3c1.9-2.5,3.9-4.9,5.9-7.4c2-2.4,3.9-4.8,5.9-7.3c1-1.2,2-2.4,2.9-3.6
	c1-1.2,2-2.4,2.9-3.6c2-2.4,3.9-4.8,5.9-7.1C62.8,45.1,63,45.2,63.1,45.3"></path><path class="st0" d="M66,37c-1.6,2.6-3.4,5.1-5.2,7.6c-0.9,1.3-1.8,2.5-2.8,3.7c-1,1.2-1.9,2.4-2.9,3.6c-2,2.4-4,4.8-6.1,7.1
	c-2.1,2.3-4.3,4.6-6.6,6.8c-0.1-0.1-0.2-0.2-0.4-0.3c1.9-2.5,3.9-4.9,5.9-7.4c2-2.4,3.9-4.8,5.9-7.3c1-1.2,2-2.4,2.9-3.6
	c1-1.2,2-2.4,2.9-3.6c2-2.4,3.9-4.8,5.9-7.1C65.8,36.9,65.9,36.9,66,37"></path><path class="st0" d="M63.1,45.2c-0.9,3-1.9,5.8-3,8.7c-1.1,2.9-2.3,5.7-3.6,8.5c-0.6,1.4-1.3,2.8-1.9,4.2c-0.7,1.4-1.3,2.8-2,4.1
	c-1.4,2.7-2.8,5.5-4.3,8.1l-0.4-0.2c0.9-2.9,2-5.8,3.1-8.7c0.6-1.4,1.1-2.8,1.7-4.3c0.6-1.4,1.2-2.8,1.8-4.2
	c1.2-2.8,2.5-5.6,3.9-8.3c1.4-2.7,2.8-5.5,4.4-8.1L63.1,45.2z"></path><path class="st0" d="M73.8,22.3c-0.9,3-1.9,5.8-3,8.7c-1.1,2.9-2.3,5.7-3.6,8.5c-0.6,1.4-1.3,2.8-1.9,4.2c-0.7,1.4-1.3,2.8-2,4.1
	c-1.4,2.7-2.8,5.5-4.3,8.1l-0.4-0.2c0.9-2.9,2-5.8,3.1-8.7c0.6-1.4,1.1-2.8,1.7-4.3c0.6-1.4,1.2-2.8,1.8-4.2
	c1.2-2.8,2.5-5.6,3.9-8.3c1.4-2.7,2.8-5.5,4.4-8.1L73.8,22.3z"></path><path class="st6" d="M63.7,43.6c0.2,1.6,0.2,3.1,0.2,4.7c0,1.5-0.2,3.1-0.3,4.6c-0.2,1.5-0.4,3-0.7,4.6c-0.3,1.5-0.6,3-0.9,4.5
	c-0.6,3-1.4,6-2.3,9c-0.9,3-1.9,6-3.1,8.9c-0.2,0-0.4-0.1-0.6-0.1c0.3-3.1,0.8-6.1,1.3-9.2c0.5-3,1-6.1,1.6-9.1
	c0.3-1.5,0.6-3,0.9-4.5c0.3-1.5,0.6-3,0.9-4.5c0.3-1.5,0.7-3,1.1-4.5c0.4-1.5,0.9-3,1.5-4.4C63.4,43.6,63.6,43.6,63.7,43.6"></path><path class="st1" d="M63.1,45.1c0.5,1.5,0.8,3,1.1,4.5c0.3,1.5,0.5,3,0.7,4.6c0.2,1.5,0.3,3.1,0.4,4.6c0.1,1.5,0.2,3.1,0.3,4.6
	c0.2,3.1,0.3,6.1,0.4,9.2c0.1,3.1,0.1,6.1,0,9.2l-0.4,0c-0.6-3-1-6.1-1.4-9.1c-0.4-3-0.8-6.1-1.1-9.1c-0.2-1.5-0.3-3.1-0.4-4.6
	c-0.1-1.5-0.3-3.1-0.3-4.6c-0.1-1.5-0.1-3.1,0-4.6c0.1-1.5,0.2-3.1,0.4-4.6L63.1,45.1z"></path><path class="st0" d="M63.1,45.1c1.3,2.8,2.3,5.7,3.4,8.6c1.1,2.9,2.1,5.8,3.1,8.7c0.5,1.5,1,2.9,1.6,4.4c0.5,1.5,1.1,2.9,1.6,4.4
	C73.9,74,75,77,76,79.9c-0.2,0.1-0.3,0.1-0.5,0.2c-1.5-2.8-2.8-5.6-4.1-8.5c-0.6-1.4-1.2-2.9-1.8-4.3c-0.6-1.4-1.1-2.9-1.7-4.3
	c-1.1-2.9-2.1-5.8-3-8.7c-0.9-2.9-1.7-5.9-2.2-9C62.8,45.2,63,45.1,63.1,45.1"></path><path class="st7" d="M63.1,45c0.7,0.5,1.3,1,1.8,1.6c0.6,0.5,1.1,1.1,1.7,1.7c1.1,1.1,2.1,2.3,3,3.6c1.9,2.5,3.5,5.1,5.2,7.7
	c1.7,2.6,3.3,5.3,4.9,8c1.5,2.7,3.1,5.5,4.3,8.4c-0.1,0.1-0.3,0.2-0.4,0.2c-2.5-2.1-4.8-4.4-6.9-6.8c-2.1-2.4-4-4.8-5.9-7.4
	c-1.8-2.5-3.6-5.1-5-7.8c-0.7-1.4-1.4-2.8-1.9-4.2c-0.3-0.7-0.5-1.5-0.7-2.2c-0.2-0.8-0.4-1.5-0.5-2.4C62.8,45.2,63,45.1,63.1,45"></path><path class="st0" d="M54.5,46.4c0.9,0,1.9,0.1,2.8,0.2c0.9,0.1,1.8,0.3,2.8,0.4c0.9,0.1,1.8,0.4,2.7,0.6c0.5,0.1,0.9,0.2,1.4,0.4
	l1.3,0.4c3.6,1.2,7,2.9,10.1,4.9c3.1,2.1,6,4.5,8.5,7.3c2.5,2.8,4.6,6,6,9.4l-0.4,0.2c-2-3-4.4-5.8-7-8.3c-2.6-2.5-5.4-4.7-8.5-6.6
	c-3-1.9-6.2-3.5-9.6-4.9L63.4,50c-0.4-0.2-0.8-0.3-1.3-0.5c-0.8-0.3-1.7-0.7-2.5-0.9c-0.9-0.3-1.7-0.6-2.6-0.9
	c-0.9-0.3-1.7-0.5-2.6-0.8L54.5,46.4z"></path><path class="st8" d="M63,45c1.5,0.5,2.9,1.1,4.3,1.7c1.4,0.6,2.8,1.3,4.2,1.9c2.8,1.3,5.5,2.8,8.1,4.3c2.7,1.5,5.3,3,7.9,4.6
	c2.6,1.6,5.2,3.3,7.7,5.1L95,63c-2.9-1.1-5.7-2.4-8.4-3.8c-2.8-1.3-5.5-2.7-8.2-4.2c-2.7-1.5-5.4-3-8-4.6c-1.3-0.8-2.6-1.6-3.9-2.5
	c-1.3-0.9-2.6-1.7-3.8-2.7L63,45z"></path><path class="st0" d="M58.2,43.8c1.5-0.1,3.1-0.1,4.6-0.1c1.5,0,3.1,0,4.6,0.1c3.1,0.1,6.1,0.4,9.2,0.6c3.1,0.3,6.1,0.6,9.1,1.1
	c3,0.4,6.1,0.9,9.1,1.6l0,0.4c-3.1,0.1-6.2,0.1-9.2-0.1c-3.1-0.1-6.1-0.3-9.2-0.6c-3.1-0.3-6.1-0.6-9.1-1c-1.5-0.2-3-0.5-4.6-0.7
	c-1.5-0.3-3-0.6-4.5-0.9L58.2,43.8z"></path><path class="st0" d="M62.9,44.9c3,0.6,6,1.4,9,2.1c3,0.7,6,1.5,9,2.3c3,0.8,6,1.6,9,2.4c3,0.8,6,1.6,9,2.5c0,0.1-0.1,0.3-0.1,0.4
	c-3.1-0.5-6.1-1.1-9.2-1.7c-3-0.6-6.1-1.4-9.1-2.1c-3-0.8-6-1.6-8.9-2.5c-2.9-0.9-5.9-1.8-8.8-2.9C62.9,45.2,62.9,45.1,62.9,44.9"></path><path class="st0" d="M62.8,45c2.9-1.2,6-2.1,9.1-2.7c3.1-0.6,6.3-0.9,9.4-0.8l2.4,0.1l2.4,0.2l2.4,0.3l2.3,0.4
	c3.1,0.6,6.1,1.5,9,2.7l-0.1,0.4c-3-0.9-6-1.7-9.1-2.2l-2.3-0.3l-2.3-0.2l-2.3-0.1l-2.3-0.1c-3.1,0-6.2,0.2-9.3,0.7
	c-3.1,0.5-6.1,1.1-9.1,2L62.8,45z"></path><path class="st9" d="M62.8,44.9c2.9-1,5.9-1.8,8.8-2.7c1.5-0.4,3-0.8,4.4-1.2c1.5-0.4,3-0.8,4.5-1.1c3-0.8,6-1.5,8.9-2.1
	c3-0.6,6-1.2,9.1-1.7l0.1,0.4c-2.9,1-5.8,1.9-8.8,2.7c-3,0.8-5.9,1.6-8.9,2.3c-1.5,0.4-3,0.7-4.5,1.1c-1.5,0.3-3,0.7-4.5,1
	c-3,0.6-6,1.2-9,1.7L62.8,44.9z"></path><path class="st0" d="M61.4,46.9c2.4-2,5-3.7,7.6-5.3c2.6-1.6,5.3-3,8.1-4.4c2.7-1.4,5.5-2.7,8.3-4c2.8-1.3,5.6-2.5,8.5-3.6L94,30
	c-2.5,1.8-5.1,3.5-7.7,5.1c-2.6,1.6-5.3,3.1-8,4.6c-2.7,1.5-5.4,2.9-8.2,4.2c-2.8,1.3-5.6,2.5-8.6,3.4L61.4,46.9z"></path><path class="st0" d="M54.2,46.9c2.4-2,5-3.7,7.6-5.3c2.6-1.6,5.3-3,8.1-4.4c2.7-1.4,5.5-2.7,8.3-4c2.8-1.3,5.6-2.5,8.5-3.6l0.2,0.4
	c-2.5,1.8-5.1,3.5-7.7,5.1c-2.6,1.6-5.3,3.1-8,4.6c-2.7,1.5-5.4,2.9-8.2,4.2c-2.8,1.3-5.6,2.5-8.6,3.4L54.2,46.9z"></path><path class="st10" d="M61.3,46.4c1.4-3.4,3.5-6.6,6.1-9.4c2.5-2.8,5.5-5.2,8.7-7.1c0.8-0.5,1.6-1,2.4-1.4c0.8-0.5,1.7-0.9,2.5-1.3
	c0.4-0.2,0.8-0.4,1.3-0.6c0.4-0.2,0.9-0.3,1.3-0.5l1.3-0.5l1.3-0.4c3.5-1.1,7.2-1.9,10.9-2.2l0.1,0.4c-3.6,0.9-7,2-10.4,3.3
	l-1.3,0.5l-1.2,0.6c-0.4,0.2-0.8,0.4-1.2,0.6c-0.4,0.2-0.8,0.4-1.2,0.6c-0.8,0.4-1.6,0.8-2.4,1.3c-0.8,0.5-1.6,0.9-2.3,1.4
	c-3,2-5.8,4.2-8.4,6.7c-2.6,2.5-4.9,5.2-7.1,8.2L61.3,46.4z"></path><path class="st0" d="M62.7,45c1.4-2.8,2.9-5.4,4.5-8c1.6-2.6,3.3-5.2,5-7.7l1.3-1.9l1.3-1.9c0.9-1.3,1.8-2.5,2.7-3.8
	c1.8-2.5,3.6-4.9,5.6-7.3l0.4,0.2c-1.4,2.7-3,5.4-4.6,8c-0.8,1.3-1.6,2.6-2.4,3.9l-1.2,1.9l-1.3,1.9c-1.7,2.6-3.4,5.1-5.2,7.6
	c-1.8,2.5-3.6,4.9-5.7,7.3L62.7,45z"></path><path class="st11" d="M62.7,45.1c-0.1-1.6,0.2-3.2,0.5-4.7c0.3-1.5,0.8-3,1.3-4.4c1-2.9,2.1-5.8,3.2-8.6c1.1-2.9,2.2-5.7,3.4-8.5
	c1.2-2.8,2.4-5.6,3.8-8.4l0.4,0.1c-0.7,3-1.5,6-2.3,8.9c-0.8,3-1.7,5.9-2.7,8.8c-0.9,2.9-1.9,5.8-2.9,8.7c-0.5,1.5-1,2.9-1.7,4.3
	c-0.7,1.4-1.5,2.7-2.6,4L62.7,45.1z"></path><path class="st0" d="M70.5,45c0,4.1-3.3,7.4-7.4,7.4c-4.1,0-7.4-3.3-7.4-7.4c0-4.1,3.3-7.4,7.4-7.4C67.2,37.6,70.5,40.9,70.5,45"></path><path class="st12" d="M47.3,75.8c-2.9-2.4-2.2-1.9-2.9-2.4c-0.7-0.5-1.9-1.2-2.6-0.8c-0.6,0.4-0.7,0.8-0.3,1.2
	c0.3,0.4,0.6,0.4,0.6,0.4s-0.7,0.1-0.9,0.6s-0.6,1,0.3,1.5c0.8,0.5,2.7,0.4,2.7,0.4l3.5,0.2L47.3,75.8z"></path><path class="st13" d="M48.1,75.7c0,0,0.1-3,0-3.8c-0.1-0.8,0.1-2-0.5-2s-1.1,0.7-1.9,0.5c-0.8-0.2-1.2-0.2-1.4-0.1s-0.4,0.2-0.3,0.8
	c0.1,0.5,1,3.5,2.6,4.6S48.1,75.7,48.1,75.7z"></path><path class="st14" d="M47.3,75.8c0,0,1.1-2.2,1.6-2.7c0.5-0.5,2.3-1.8,3-2c0.7-0.2,1.5,0,1.8,0.5c0.2,0.6,0.7,2.8,0.3,3.5
	s-0.5,1-1.5,1.1c-1,0.1-2-0.2-2.9,0c-0.9,0.2-2,0.6-2,0.6L47.3,75.8z"></path><path class="st13" d="M50.5,77.6c0,0,1.8,1,1.9,1.8s-0.2,1.5-0.7,1.7c-0.5,0.1-0.7,0.1-0.9,0.6c-0.2,0.4-0.1,0.7-0.6,0.7
	c-0.5,0-1.9-1.5-2-2.1c-0.1-0.6-1.2-2.4-1.2-3c0-0.6,0-1.1,0-1.1h1.2L50.5,77.6z"></path><path class="st15" d="M44.8,77.5c-0.3,0.1-1.8,1.7-2,2.2c-0.2,0.5-0.7,1.5-0.4,1.9c0.2,0.3,0.2,0.3,0.9,0.4c0.6,0.1,0.4,0.9,1.1,0.9
	c0.7,0,1.1-0.5,1.8-1.4s0.8-2.5,0.9-2.8c0.1-0.2,0.6-2,0.6-2l-1.1-0.6L44.8,77.5z"></path><path class="st16" d="M47.3,75.1c0.7,0,1.5,0.8,1.4,1.5S48,77.7,47,77.8s-1-0.7-1.1-1.3S46,75.1,47.3,75.1z"></path><path class="st17" d="M46.8,75.9c-0.1,0.1-0.1,0.1-0.2,0.5c-0.1,0.4,0,0.6,0.2,0.7c0.2,0.1,0.4,0.1,0.6,0c0.1-0.1,0.4-0.1,0.5-0.4
	c0.1-0.3,0.1-0.1,0-0.5c-0.1-0.4-0.2-0.3-0.3-0.4c-0.2-0.2-0.7-0.2-0.3-0.3c0.4-0.1,0.6-0.1,0.9,0.3c0.3,0.3,0.3,0.7,0.1,1
	c-0.2,0.3-0.9,0.8-1.1,0.8c-0.2,0-0.8-0.3-0.8-0.5s-0.2-0.5-0.2-0.7C46.2,76.3,46.8,75.9,46.8,75.9z"></path><path class="st12" d="M62.3,66.3c-2.9-2.4-2.2-1.9-2.9-2.4c-0.7-0.5-1.9-1.2-2.6-0.8c-0.6,0.4-0.7,0.8-0.3,1.2
	c0.3,0.4,0.6,0.4,0.6,0.4s-0.7,0.1-0.9,0.6c-0.1,0.5-0.6,1,0.3,1.5s2.7,0.4,2.7,0.4l3.5,0.2L62.3,66.3z"></path><path class="st13" d="M63.1,66.3c0,0,0.1-3,0-3.8c-0.1-0.8,0.1-2-0.5-2s-1.1,0.7-1.9,0.5c-0.8-0.2-1.2-0.2-1.4-0.1
	c-0.2,0.1-0.4,0.2-0.3,0.8c0.1,0.5,1,3.5,2.6,4.6S63.1,66.3,63.1,66.3z"></path><path class="st14" d="M62.3,66.3c0,0,1.1-2.2,1.6-2.7c0.5-0.5,2.3-1.8,3-2c0.7-0.2,1.5,0,1.8,0.5c0.2,0.6,0.7,2.8,0.3,3.5
	c-0.3,0.7-0.5,1-1.5,1.1c-1,0.1-2-0.2-2.9,0c-0.9,0.2-2,0.6-2,0.6L62.3,66.3z"></path><path class="st13" d="M65.5,68.2c0,0,1.8,1,1.9,1.8c0.1,0.8-0.2,1.5-0.7,1.7c-0.5,0.1-0.7,0.1-0.9,0.6c-0.2,0.4-0.1,0.7-0.6,0.7
	c-0.5,0-1.9-1.5-2-2.1c-0.1-0.6-1.2-2.4-1.2-3c0-0.6,0-1.1,0-1.1h1.2L65.5,68.2z"></path><path class="st15" d="M59.8,68.1c-0.3,0.1-1.8,1.7-2,2.2c-0.2,0.5-0.7,1.5-0.4,1.9c0.2,0.3,0.2,0.3,0.9,0.4s0.4,0.9,1.1,0.9
	c0.7,0,1.1-0.5,1.8-1.4c0.6-0.8,0.8-2.5,0.9-2.8c0.1-0.2,0.6-2,0.6-2l-1.1-0.6L59.8,68.1z"></path><path class="st16" d="M62.3,65.7c0.7,0,1.5,0.8,1.4,1.5s-0.6,1.1-1.6,1.2S61,67.6,61,67C60.9,66.4,61,65.7,62.3,65.7z"></path><path class="st17" d="M61.9,66.5c-0.1,0.1-0.1,0.1-0.2,0.5c-0.1,0.4,0,0.6,0.2,0.7c0.2,0.1,0.4,0.1,0.6,0c0.1-0.1,0.4-0.1,0.5-0.4
	c0.1-0.3,0.1-0.1,0-0.5c-0.1-0.4-0.2-0.3-0.3-0.4c-0.2-0.2-0.7-0.2-0.3-0.3s0.6-0.1,0.9,0.3s0.3,0.7,0.1,1s-0.9,0.8-1.1,0.8
	c-0.2,0-0.8-0.3-0.8-0.5s-0.2-0.5-0.2-0.7S61.9,66.5,61.9,66.5z"></path><path class="st12" d="M72.5,54c-2.9-2.4-2.2-1.9-2.9-2.4c-0.7-0.5-1.9-1.2-2.6-0.8c-0.6,0.4-0.7,0.8-0.3,1.2
	c0.3,0.4,0.6,0.4,0.6,0.4s-0.7,0.1-0.9,0.6c-0.1,0.5-0.6,1,0.3,1.5c0.8,0.5,2.7,0.4,2.7,0.4l3.5,0.2L72.5,54z"></path><path class="st13" d="M73.3,54c0,0,0.1-3,0-3.8c-0.1-0.8,0.1-2-0.5-2c-0.6,0-1.1,0.7-1.9,0.5c-0.8-0.2-1.2-0.2-1.4-0.1
	c-0.2,0.1-0.4,0.2-0.3,0.8c0.1,0.5,1,3.5,2.6,4.6C73.5,55.1,73.3,54,73.3,54z"></path><path class="st14" d="M72.5,54c0,0,1.1-2.2,1.6-2.7c0.5-0.5,2.3-1.8,3-2c0.7-0.2,1.5,0,1.8,0.5c0.2,0.6,0.7,2.8,0.3,3.5
	c-0.3,0.7-0.5,1-1.5,1.1c-1,0.1-2-0.2-2.9,0c-0.9,0.2-2,0.6-2,0.6L72.5,54z"></path><path class="st13" d="M75.7,55.9c0,0,1.8,1,1.9,1.8c0.1,0.8-0.2,1.5-0.7,1.7c-0.5,0.1-0.7,0.1-0.9,0.6s-0.1,0.7-0.6,0.7
	c-0.5,0-1.9-1.5-2-2.1c-0.1-0.6-1.2-2.4-1.2-3c0-0.6,0-1.1,0-1.1h1.2L75.7,55.9z"></path><path class="st15" d="M69.9,55.8c-0.3,0.1-1.8,1.7-2,2.2c-0.2,0.5-0.7,1.5-0.4,1.9s0.2,0.3,0.9,0.4c0.6,0.1,0.4,0.9,1.1,0.9
	c0.7,0,1.1-0.5,1.8-1.4s0.8-2.5,0.9-2.8s0.6-2,0.6-2l-1.1-0.6L69.9,55.8z"></path><path class="st16" d="M72.5,53.4c0.7,0,1.5,0.8,1.4,1.5c-0.1,0.7-0.6,1.1-1.6,1.2c-1,0-1-0.7-1.1-1.3C71.1,54.1,71.2,53.4,72.5,53.4
	z"></path><path class="st17" d="M72,54.2c-0.1,0.1-0.1,0.1-0.2,0.5s0,0.6,0.2,0.7c0.2,0.1,0.4,0.1,0.6,0c0.1-0.1,0.4-0.1,0.5-0.4
	c0.1-0.3,0.1-0.1,0-0.5c-0.1-0.4-0.2-0.3-0.3-0.4c-0.2-0.2-0.7-0.2-0.3-0.3c0.4-0.1,0.6-0.1,0.9,0.3c0.3,0.3,0.3,0.7,0.1,1
	c-0.2,0.3-0.9,0.8-1.1,0.8s-0.8-0.3-0.8-0.5c0-0.2-0.2-0.5-0.2-0.7S72,54.2,72,54.2z"></path><path class="st12" d="M87.8,52.2c-2.9-2.4-2.2-1.9-2.9-2.4s-1.9-1.2-2.6-0.8c-0.6,0.4-0.7,0.8-0.3,1.2s0.6,0.4,0.6,0.4
	s-0.7,0.1-0.9,0.6c-0.1,0.5-0.6,1,0.3,1.5c0.8,0.5,2.7,0.4,2.7,0.4l3.5,0.2L87.8,52.2z"></path><path class="st13" d="M88.6,52.1c0,0,0.1-3,0-3.8c-0.1-0.8,0.1-2-0.5-2c-0.6,0-1.1,0.7-1.9,0.5c-0.8-0.2-1.2-0.2-1.4-0.1
	c-0.2,0.1-0.4,0.2-0.3,0.8s1,3.5,2.6,4.6C88.8,53.3,88.6,52.1,88.6,52.1z"></path><path class="st14" d="M87.8,52.2c0,0,1.1-2.2,1.6-2.7c0.5-0.5,2.3-1.8,3-2c0.7-0.2,1.5,0,1.8,0.5c0.2,0.6,0.7,2.8,0.3,3.5
	c-0.3,0.7-0.5,1-1.5,1.1c-1,0.1-2-0.2-2.9,0c-0.9,0.2-2,0.6-2,0.6L87.8,52.2z"></path><path class="st13" d="M91,54c0,0,1.8,1,1.9,1.8c0.1,0.8-0.2,1.5-0.7,1.7c-0.5,0.1-0.7,0.1-0.9,0.6s-0.1,0.7-0.6,0.7
	c-0.5,0-1.9-1.5-2-2.1c-0.1-0.6-1.2-2.4-1.2-3c0-0.6,0-1.1,0-1.1h1.2L91,54z"></path><path class="st15" d="M85.3,53.9c-0.3,0.1-1.8,1.7-2,2.2c-0.2,0.5-0.7,1.5-0.4,1.9c0.2,0.3,0.2,0.3,0.9,0.4c0.6,0.1,0.4,0.9,1.1,0.9
	s1.1-0.5,1.8-1.4s0.8-2.5,0.9-2.8c0.1-0.2,0.6-2,0.6-2L87,52.6L85.3,53.9z"></path><path class="st16" d="M87.8,51.5c0.7,0,1.5,0.8,1.4,1.5c-0.1,0.7-0.6,1.1-1.6,1.2s-1-0.7-1.1-1.3C86.4,52.2,86.5,51.6,87.8,51.5z"></path><path class="st17" d="M87.4,52.4c-0.1,0.1-0.1,0.1-0.2,0.5c-0.1,0.4,0,0.6,0.2,0.7c0.2,0.1,0.4,0.1,0.6,0c0.1-0.1,0.4-0.1,0.5-0.4
	c0.1-0.3,0.1-0.1,0-0.5c-0.1-0.4-0.2-0.3-0.3-0.4c-0.2-0.2-0.7-0.2-0.3-0.3c0.4-0.1,0.6-0.1,0.9,0.3c0.3,0.3,0.3,0.7,0.1,1
	c-0.2,0.3-0.9,0.8-1.1,0.8c-0.2,0-0.8-0.3-0.8-0.5c0-0.2-0.2-0.5-0.2-0.7C86.7,52.7,87.4,52.4,87.4,52.4z"></path><path class="st12" d="M84.2,76.7c-2.9-2.4-2.2-1.9-2.9-2.4c-0.7-0.5-1.9-1.2-2.6-0.8c-0.6,0.4-0.7,0.8-0.3,1.2S79,75,79,75
	s-0.7,0.1-0.9,0.6s-0.6,1,0.3,1.5c0.8,0.5,2.7,0.4,2.7,0.4l3.5,0.2L84.2,76.7z"></path><path class="st13" d="M85,76.6c0,0,0.1-3,0-3.8c-0.1-0.8,0.1-2-0.5-2c-0.6,0-1.1,0.7-1.9,0.5c-0.8-0.2-1.2-0.2-1.4-0.1
	C81,71.3,80.8,71.4,81,72c0.1,0.5,1,3.5,2.6,4.6S85,76.6,85,76.6z"></path><path class="st14" d="M84.2,76.7c0,0,1.1-2.2,1.6-2.7c0.5-0.5,2.3-1.8,3-2c0.7-0.2,1.5,0,1.8,0.5c0.2,0.6,0.7,2.8,0.3,3.5
	c-0.3,0.7-0.5,1-1.5,1.1c-1,0.1-2-0.2-2.9,0c-0.9,0.2-2,0.6-2,0.6L84.2,76.7z"></path><path class="st13" d="M87.4,78.5c0,0,1.8,1,1.9,1.8c0.1,0.8-0.2,1.5-0.7,1.7s-0.7,0.1-0.9,0.6c-0.2,0.4-0.1,0.7-0.6,0.7
	c-0.5,0-1.9-1.5-2-2.1c-0.1-0.6-1.2-2.4-1.2-3c0-0.6,0-1.1,0-1.1h1.2L87.4,78.5z"></path><path class="st15" d="M81.7,78.4c-0.3,0.1-1.8,1.7-2,2.2c-0.2,0.5-0.7,1.5-0.4,1.9s0.2,0.3,0.9,0.4c0.6,0.1,0.4,0.9,1.1,0.9
	c0.7,0,1.1-0.5,1.8-1.4c0.6-0.8,0.8-2.5,0.9-2.8c0.1-0.2,0.6-2,0.6-2l-1.1-0.6L81.7,78.4z"></path><path class="st16" d="M84.2,76c0.7,0,1.5,0.8,1.4,1.5c-0.1,0.7-0.6,1.1-1.6,1.2s-1-0.7-1.1-1.3C82.8,76.7,82.9,76,84.2,76z"></path><path class="st17" d="M83.8,76.8c-0.1,0.1-0.1,0.1-0.2,0.5c-0.1,0.4,0,0.6,0.2,0.7c0.2,0.1,0.4,0.1,0.6,0c0.1-0.1,0.4-0.1,0.5-0.4
	c0.1-0.3,0.1-0.1,0-0.5c-0.1-0.4-0.2-0.3-0.3-0.4c-0.2-0.2-0.7-0.2-0.3-0.3c0.4-0.1,0.6-0.1,0.9,0.3s0.3,0.7,0.1,1s-0.9,0.8-1.1,0.8
	c-0.2,0-0.8-0.3-0.8-0.5s-0.2-0.5-0.2-0.7S83.8,76.8,83.8,76.8z"></path><path class="st12" d="M69.3,85.2c-2.9-2.4-2.2-1.9-2.9-2.4s-1.9-1.2-2.6-0.8c-0.6,0.4-0.7,0.8-0.3,1.2s0.6,0.4,0.6,0.4
	s-0.7,0.1-0.9,0.6c-0.1,0.5-0.6,1,0.3,1.5c0.8,0.5,2.7,0.4,2.7,0.4l3.5,0.2L69.3,85.2z"></path><path class="st13" d="M70.1,85.1c0,0,0.1-3,0-3.8c-0.1-0.8,0.1-2-0.5-2c-0.6,0-1.1,0.7-1.9,0.5c-0.8-0.2-1.2-0.2-1.4-0.1
	S65.9,80,66,80.5s1,3.5,2.6,4.6C70.3,86.3,70.1,85.1,70.1,85.1z"></path><path class="st14" d="M69.3,85.2c0,0,1.1-2.2,1.6-2.7c0.5-0.5,2.3-1.8,3-2s1.5,0,1.8,0.5s0.7,2.8,0.3,3.5s-0.5,1-1.5,1.1
	c-1,0.1-2-0.2-2.9,0c-0.9,0.2-2,0.6-2,0.6L69.3,85.2z"></path><path class="st13" d="M72.5,87c0,0,1.8,1,1.9,1.8c0.1,0.8-0.2,1.5-0.7,1.7c-0.5,0.1-0.7,0.1-0.9,0.6c-0.2,0.4-0.1,0.7-0.6,0.7
	c-0.5,0-1.9-1.5-2-2.1c-0.1-0.6-1.2-2.4-1.2-3c0-0.6,0-1.1,0-1.1h1.2L72.5,87z"></path><path class="st15" d="M66.8,86.9c-0.3,0.1-1.8,1.7-2,2.2s-0.7,1.5-0.4,1.9c0.2,0.3,0.2,0.3,0.9,0.4c0.6,0.1,0.4,0.9,1.1,0.9
	s1.1-0.5,1.8-1.4c0.6-0.8,0.8-2.5,0.9-2.8c0.1-0.2,0.6-2,0.6-2l-1.1-0.6L66.8,86.9z"></path><path class="st16" d="M69.3,84.5c0.7,0,1.5,0.8,1.4,1.5c-0.1,0.7-0.6,1.1-1.6,1.2s-1-0.7-1.1-1.3C67.9,85.2,68,84.6,69.3,84.5z"></path><path class="st17" d="M68.9,85.4c-0.1,0.1-0.1,0.1-0.2,0.5c-0.1,0.4,0,0.6,0.2,0.7c0.2,0.1,0.4,0.1,0.6,0c0.1-0.1,0.4-0.1,0.5-0.4
	c0.1-0.3,0.1-0.1,0-0.5c-0.1-0.4-0.2-0.3-0.3-0.4c-0.2-0.2-0.7-0.2-0.3-0.3c0.4-0.1,0.6-0.1,0.9,0.3c0.3,0.3,0.3,0.7,0.1,1
	c-0.2,0.3-0.9,0.8-1.1,0.8c-0.2,0-0.8-0.3-0.8-0.5c0-0.2-0.2-0.5-0.2-0.7C68.2,85.7,68.9,85.4,68.9,85.4z"></path><path class="st12" d="M44.9,64.5c-2.9-2.4-2.2-1.9-2.9-2.4c-0.7-0.5-1.9-1.2-2.6-0.8c-0.6,0.4-0.7,0.8-0.3,1.2
	c0.3,0.4,0.6,0.4,0.6,0.4s-0.7,0.1-0.9,0.6c-0.1,0.5-0.6,1,0.3,1.5c0.8,0.5,2.7,0.4,2.7,0.4l3.5,0.2L44.9,64.5z"></path><path class="st13" d="M45.7,64.4c0,0,0.1-3,0-3.8c-0.1-0.8,0.1-2-0.5-2s-1.1,0.7-1.9,0.5c-0.8-0.2-1.2-0.2-1.4-0.1
	c-0.2,0.1-0.4,0.2-0.3,0.8s1,3.5,2.6,4.6C45.9,65.6,45.7,64.4,45.7,64.4z"></path><path class="st14" d="M44.9,64.5c0,0,1.1-2.2,1.6-2.7c0.5-0.5,2.3-1.8,3-2c0.7-0.2,1.5,0,1.8,0.5c0.2,0.6,0.7,2.8,0.3,3.5
	c-0.3,0.7-0.5,1-1.5,1.1c-1,0.1-2-0.2-2.9,0c-0.9,0.2-2,0.6-2,0.6L44.9,64.5z"></path><path class="st13" d="M48.1,66.3c0,0,1.8,1,1.9,1.8c0.1,0.8-0.2,1.5-0.7,1.7c-0.5,0.1-0.7,0.1-0.9,0.6c-0.2,0.4-0.1,0.7-0.6,0.7
	c-0.5,0-1.9-1.5-2-2.1c-0.1-0.6-1.2-2.4-1.2-3c0-0.6,0-1.1,0-1.1h1.2L48.1,66.3z"></path><path class="st15" d="M42.4,66.2c-0.3,0.1-1.8,1.7-2,2.2c-0.2,0.5-0.7,1.5-0.4,1.9c0.2,0.3,0.2,0.3,0.9,0.4s0.4,0.9,1.1,0.9
	c0.7,0,1.1-0.5,1.8-1.4c0.6-0.8,0.8-2.5,0.9-2.8c0.1-0.2,0.6-2,0.6-2L44.1,65L42.4,66.2z"></path><path class="st16" d="M44.9,63.8c0.7,0,1.5,0.8,1.4,1.5c-0.1,0.7-0.6,1.1-1.6,1.2c-1,0-1-0.7-1.1-1.3C43.5,64.5,43.6,63.9,44.9,63.8
	z"></path><path class="st17" d="M44.5,64.7c-0.1,0.1-0.1,0.1-0.2,0.5c-0.1,0.4,0,0.6,0.2,0.7c0.2,0.1,0.4,0.1,0.6,0c0.1-0.1,0.4-0.1,0.5-0.4
	c0.1-0.3,0.1-0.1,0-0.5c-0.1-0.4-0.2-0.3-0.3-0.4c-0.2-0.2-0.7-0.2-0.3-0.3s0.6-0.1,0.9,0.3c0.3,0.3,0.3,0.7,0.1,1
	c-0.2,0.3-0.9,0.8-1.1,0.8S44,66,44,65.9c0-0.2-0.2-0.5-0.2-0.7S44.5,64.7,44.5,64.7z"></path><path class="st12" d="M59.6,79.7c-1.4,3.3-1.1,2.5-1.4,3.3c-0.3,0.8-0.6,2.1,0,2.5c0.5,0.5,0.9,0.4,1.2,0c0.3-0.4,0.2-0.7,0.2-0.7
	s0.3,0.6,0.7,0.6s1,0.2,1.3-0.6c0.2-0.9-0.3-2.5-0.3-2.5l-0.7-3.2L59.6,79.7z"></path><path class="st13" d="M59.3,79c0,0-2.7,0.7-3.4,1s-1.8,0.4-1.6,1c0.2,0.6,0.9,0.8,1,1.6c0,0.8,0.1,1.1,0.3,1.3
	c0.2,0.2,0.3,0.3,0.8,0s2.8-1.8,3.4-3.6C60.3,78.5,59.3,79,59.3,79z"></path><path class="st14" d="M59.6,79.7c0,0-2.3-0.4-2.9-0.7c-0.6-0.3-2.3-1.6-2.6-2.2c-0.4-0.6-0.5-1.4,0-1.7c0.5-0.4,2.3-1.4,3.1-1.3
	s1.1,0.2,1.4,1.1c0.4,0.9,0.3,1.9,0.8,2.6c0.5,0.7,1.1,1.7,1.1,1.7L59.6,79.7z"></path><path class="st13" d="M60.4,76.4c0,0,0.4-1.9,1.1-2.2c0.7-0.3,1.4-0.2,1.7,0.2c0.3,0.4,0.3,0.6,0.8,0.6c0.5,0,0.7-0.1,0.8,0.4
	c0.2,0.4-0.8,2.1-1.3,2.3c-0.5,0.3-1.8,1.7-2.3,1.8s-1,0.3-1,0.3l-0.3-1L60.4,76.4z"></path><path class="st15" d="M61.8,81.5c0.2,0.3,2,1.2,2.5,1.2s1.6,0.2,1.8-0.1c0.2-0.3,0.2-0.3,0.2-0.9c0-0.6,0.7-0.6,0.5-1.3
	c-0.2-0.6-0.8-0.9-1.7-1.2c-0.9-0.3-2.5-0.1-2.7-0.1c-0.2,0-1.9,0-1.9,0l-0.2,1.2L61.8,81.5z"></path><path class="st16" d="M59,79.9c-0.2-0.6,0.3-1.6,1-1.6c0.7-0.1,1.2,0.2,1.5,1.1c0.3,0.9-0.4,1.1-0.9,1.4C60,81,59.4,81.1,59,79.9z"></path><path class="st17" d="M59.9,80.1c0.2,0.1,0.1,0.1,0.5,0C60.8,80,61,80,61,79.7s0-0.4-0.2-0.5c-0.1-0.1-0.2-0.4-0.5-0.4
	c-0.3,0-0.1-0.1-0.4,0.1c-0.3,0.2-0.2,0.2-0.3,0.4c-0.1,0.2,0,0.7-0.2,0.3c-0.2-0.4-0.2-0.5,0-0.8c0.2-0.3,0.5-0.5,0.8-0.4
	c0.3,0.1,0.9,0.6,1,0.8s-0.1,0.8-0.2,0.9c-0.1,0.1-0.4,0.3-0.5,0.3C60.4,80.5,59.9,80.1,59.9,80.1z"></path><path class="st12" d="M61,55.9c-1.4,3.3-1.1,2.5-1.4,3.3c-0.3,0.8-0.6,2.1,0,2.5c0.5,0.5,0.9,0.4,1.2,0c0.3-0.4,0.2-0.7,0.2-0.7
	s0.3,0.6,0.7,0.6s1,0.2,1.3-0.6s-0.3-2.5-0.3-2.5l-0.7-3.2L61,55.9z"></path><path class="st13" d="M60.7,55.2c0,0-2.7,0.7-3.4,1s-1.8,0.4-1.6,1c0.2,0.6,0.9,0.8,1,1.6c0,0.8,0.1,1.1,0.3,1.3
	c0.2,0.2,0.3,0.3,0.8,0c0.4-0.3,2.8-1.8,3.4-3.6C61.7,54.7,60.7,55.2,60.7,55.2z"></path><path class="st14" d="M61,55.9c0,0-2.3-0.4-2.9-0.7c-0.6-0.3-2.3-1.6-2.6-2.2c-0.4-0.6-0.5-1.4,0-1.7s2.3-1.4,3.1-1.3
	c0.7,0.1,1.1,0.2,1.4,1.1c0.4,0.9,0.3,1.9,0.8,2.6s1.1,1.7,1.1,1.7L61,55.9z"></path><path class="st13" d="M61.8,52.6c0,0,0.4-1.9,1.1-2.2c0.7-0.3,1.4-0.2,1.7,0.2c0.3,0.4,0.3,0.6,0.8,0.6c0.5,0,0.7-0.1,0.8,0.4
	c0.2,0.4-0.8,2.1-1.3,2.3c-0.5,0.3-1.8,1.7-2.3,1.8c-0.5,0.2-1,0.3-1,0.3l-0.3-1L61.8,52.6z"></path><path class="st15" d="M63.3,57.7c0.2,0.3,2,1.2,2.5,1.2c0.5,0,1.6,0.2,1.8-0.1c0.2-0.3,0.2-0.3,0.2-0.9c0-0.6,0.7-0.6,0.5-1.3
	c-0.2-0.6-0.8-0.9-1.7-1.2c-0.9-0.3-2.5-0.1-2.7-0.1c-0.2,0-1.9,0-1.9,0l-0.2,1.2L63.3,57.7z"></path><path class="st16" d="M60.4,56.1c-0.2-0.6,0.3-1.6,1-1.6c0.7-0.1,1.2,0.2,1.5,1.1s-0.4,1.1-0.9,1.4C61.4,57.2,60.8,57.3,60.4,56.1z"></path><path class="st17" d="M61.3,56.3c0.2,0.1,0.1,0.1,0.5,0c0.4-0.1,0.6-0.1,0.6-0.4s0-0.4-0.2-0.5c-0.1-0.1-0.2-0.4-0.5-0.4
	c-0.3,0-0.1-0.1-0.4,0.1s-0.2,0.2-0.3,0.4c-0.1,0.2,0,0.7-0.2,0.3s-0.2-0.5,0-0.8c0.2-0.3,0.5-0.5,0.8-0.4c0.3,0.1,0.9,0.6,1,0.8
	s-0.1,0.8-0.2,0.9c-0.1,0.1-0.4,0.3-0.5,0.3C61.8,56.7,61.3,56.3,61.3,56.3z"></path><path class="st12" d="M65.1,28.1c-1.4,3.3-1.1,2.5-1.4,3.3c-0.3,0.8-0.6,2.1,0,2.5c0.5,0.5,0.9,0.4,1.2,0s0.2-0.7,0.2-0.7
	s0.3,0.6,0.7,0.6s1,0.2,1.3-0.6c0.2-0.9-0.3-2.5-0.3-2.5l-0.7-3.2L65.1,28.1z"></path><path class="st13" d="M64.8,27.4c0,0-2.7,0.7-3.4,1c-0.7,0.4-1.8,0.4-1.6,1s0.9,0.8,1,1.6s0.1,1.1,0.3,1.3c0.2,0.2,0.3,0.3,0.8,0
	s2.8-1.8,3.4-3.6C65.8,26.9,64.8,27.4,64.8,27.4z"></path><path class="st14" d="M65.1,28.1c0,0-2.3-0.4-2.9-0.7s-2.3-1.6-2.6-2.2c-0.4-0.6-0.5-1.4,0-1.7c0.5-0.4,2.3-1.4,3.1-1.3
	c0.7,0.1,1.1,0.2,1.4,1.1c0.4,0.9,0.3,1.9,0.8,2.6c0.5,0.7,1.1,1.7,1.1,1.7L65.1,28.1z"></path><path class="st13" d="M65.8,24.7c0,0,0.4-1.9,1.1-2.2c0.7-0.3,1.4-0.2,1.7,0.2c0.3,0.4,0.3,0.6,0.8,0.6c0.5,0,0.7-0.1,0.8,0.4
	c0.2,0.4-0.8,2.1-1.3,2.3c-0.5,0.3-1.8,1.7-2.3,1.8c-0.5,0.2-1,0.3-1,0.3l-0.3-1L65.8,24.7z"></path><path class="st15" d="M67.3,29.9c0.2,0.3,2,1.2,2.5,1.2s1.6,0.2,1.8-0.1c0.2-0.3,0.2-0.3,0.2-0.9c0-0.6,0.7-0.6,0.5-1.3
	s-0.8-0.9-1.7-1.2c-0.9-0.3-2.5-0.1-2.7-0.1c-0.2,0-1.9,0-1.9,0l-0.2,1.2L67.3,29.9z"></path><path class="st16" d="M64.5,28.3c-0.2-0.6,0.3-1.6,1-1.6s1.2,0.2,1.5,1.1c0.3,0.9-0.4,1.1-0.9,1.4C65.5,29.3,64.9,29.4,64.5,28.3z"></path><path class="st17" d="M65.3,28.4c0.2,0.1,0.1,0.1,0.5,0c0.4-0.1,0.6-0.1,0.6-0.4c0-0.2,0-0.4-0.2-0.5c-0.1-0.1-0.2-0.4-0.5-0.4
	c-0.3,0-0.1-0.1-0.4,0.1c-0.3,0.2-0.2,0.2-0.3,0.4c-0.1,0.2,0,0.7-0.2,0.3s-0.2-0.5,0-0.8c0.2-0.3,0.5-0.5,0.8-0.4
	c0.3,0.1,0.9,0.6,1,0.8s-0.1,0.8-0.2,0.9c-0.1,0.1-0.4,0.3-0.5,0.3S65.3,28.4,65.3,28.4z"></path><path class="st12" d="M62.6,16.1c-1.4,3.3-1.1,2.5-1.4,3.3c-0.3,0.8-0.6,2.1,0,2.5c0.5,0.5,0.9,0.4,1.2,0s0.2-0.7,0.2-0.7
	s0.3,0.6,0.7,0.6c0.5,0,1,0.2,1.3-0.6c0.2-0.9-0.3-2.5-0.3-2.5l-0.7-3.2L62.6,16.1z"></path><path class="st13" d="M62.3,15.4c0,0-2.7,0.7-3.4,1s-1.8,0.4-1.6,1c0.2,0.6,0.9,0.8,1,1.6s0.1,1.1,0.3,1.3s0.3,0.3,0.8,0
	c0.4-0.3,2.8-1.8,3.4-3.6S62.3,15.4,62.3,15.4z"></path><path class="st14" d="M62.6,16.1c0,0-2.3-0.4-2.9-0.7s-2.3-1.6-2.6-2.2c-0.4-0.6-0.5-1.4,0-1.7c0.5-0.4,2.3-1.4,3.1-1.3
	c0.7,0.1,1.1,0.2,1.4,1.1c0.4,0.9,0.3,1.9,0.8,2.6s1.1,1.7,1.1,1.7L62.6,16.1z"></path><path class="st13" d="M63.4,12.8c0,0,0.4-1.9,1.1-2.2c0.7-0.3,1.4-0.2,1.7,0.2s0.3,0.6,0.8,0.6s0.7-0.1,0.8,0.4s-0.8,2.1-1.3,2.3
	c-0.5,0.3-1.8,1.7-2.3,1.8c-0.5,0.2-1,0.3-1,0.3l-0.3-1L63.4,12.8z"></path><path class="st15" d="M64.8,17.9c0.2,0.3,2,1.2,2.5,1.2c0.5,0,1.6,0.2,1.8-0.1c0.2-0.3,0.2-0.3,0.2-0.9s0.7-0.6,0.5-1.3
	c-0.2-0.6-0.8-0.9-1.7-1.2s-2.5-0.1-2.7-0.1c-0.2,0-1.9,0-1.9,0l-0.2,1.2L64.8,17.9z"></path><path class="st16" d="M62,16.3c-0.2-0.6,0.3-1.6,1-1.6c0.7-0.1,1.2,0.2,1.5,1.1c0.3,0.9-0.4,1.1-0.9,1.4C63,17.4,62.4,17.5,62,16.3z
	"></path><path class="st17" d="M62.9,16.5c0.2,0.1,0.1,0.1,0.5,0c0.4-0.1,0.6-0.1,0.6-0.4c0-0.2,0-0.4-0.2-0.5s-0.2-0.4-0.5-0.4
	s-0.1-0.1-0.4,0.1c-0.3,0.2-0.2,0.2-0.3,0.4c-0.1,0.2,0,0.7-0.2,0.3s-0.2-0.5,0-0.8c0.2-0.3,0.5-0.5,0.8-0.4c0.3,0.1,0.9,0.6,1,0.8
	c0.1,0.2-0.1,0.8-0.2,0.9s-0.4,0.3-0.5,0.3C63.4,17,62.9,16.5,62.9,16.5z"></path><path class="st12" d="M46.9,19.1c-1.4,3.3-1.1,2.5-1.4,3.3c-0.3,0.8-0.6,2.1,0,2.5c0.5,0.5,0.9,0.4,1.2,0s0.2-0.7,0.2-0.7
	s0.3,0.6,0.7,0.6c0.5,0,1,0.2,1.3-0.6c0.2-0.9-0.3-2.5-0.3-2.5l-0.7-3.2L46.9,19.1z"></path><path class="st13" d="M46.6,18.4c0,0-2.7,0.7-3.4,1s-1.8,0.4-1.6,1s0.9,0.8,1,1.6s0.1,1.1,0.3,1.3c0.2,0.2,0.3,0.3,0.8,0
	c0.4-0.3,2.8-1.8,3.4-3.6S46.6,18.4,46.6,18.4z"></path><path class="st14" d="M46.9,19.1c0,0-2.3-0.4-2.9-0.7s-2.3-1.6-2.6-2.2c-0.4-0.6-0.5-1.4,0-1.7c0.5-0.4,2.3-1.4,3.1-1.3
	c0.7,0.1,1.1,0.2,1.4,1.1c0.4,0.9,0.3,1.9,0.8,2.6c0.5,0.7,1.1,1.7,1.1,1.7L46.9,19.1z"></path><path class="st13" d="M47.7,15.8c0,0,0.4-1.9,1.1-2.2c0.7-0.3,1.4-0.2,1.7,0.2c0.3,0.4,0.3,0.6,0.8,0.6c0.5,0,0.7-0.1,0.8,0.4
	c0.2,0.4-0.8,2.1-1.3,2.3c-0.5,0.3-1.8,1.7-2.3,1.8c-0.5,0.2-1,0.3-1,0.3l-0.3-1L47.7,15.8z"></path><path class="st15" d="M49.1,20.9c0.2,0.3,2,1.2,2.5,1.2c0.5,0,1.6,0.2,1.8-0.1c0.2-0.3,0.2-0.3,0.2-0.9c0-0.6,0.7-0.6,0.5-1.3
	c-0.2-0.6-0.8-0.9-1.7-1.2c-0.9-0.3-2.5-0.1-2.7-0.1c-0.2,0-1.9,0-1.9,0l-0.2,1.2L49.1,20.9z"></path><path class="st16" d="M46.3,19.3c-0.2-0.6,0.3-1.6,1-1.6c0.7-0.1,1.2,0.2,1.5,1.1c0.3,0.9-0.4,1.1-0.9,1.4
	C47.3,20.4,46.7,20.5,46.3,19.3z"></path><path class="st17" d="M47.2,19.5c0.2,0.1,0.1,0.1,0.5,0c0.4-0.1,0.6-0.1,0.6-0.4c0-0.2,0-0.4-0.2-0.5c-0.1-0.1-0.2-0.4-0.5-0.4
	s-0.1-0.1-0.4,0.1c-0.3,0.2-0.2,0.2-0.3,0.4c-0.1,0.2,0,0.7-0.2,0.3c-0.2-0.4-0.2-0.5,0-0.8c0.2-0.3,0.5-0.5,0.8-0.4
	c0.3,0.1,0.9,0.6,1,0.8s-0.1,0.8-0.2,0.9c-0.1,0.1-0.4,0.3-0.5,0.3C47.7,19.9,47.2,19.5,47.2,19.5z"></path><path class="st12" d="M79.2,68.1c-1.4,3.3-1.1,2.5-1.4,3.3s-0.6,2.1,0,2.5c0.5,0.5,0.9,0.4,1.2,0c0.3-0.4,0.2-0.7,0.2-0.7
	s0.3,0.6,0.7,0.6c0.5,0,1,0.2,1.3-0.6c0.2-0.9-0.3-2.5-0.3-2.5L80,67.5L79.2,68.1z"></path><path class="st13" d="M78.9,67.4c0,0-2.7,0.7-3.4,1c-0.7,0.4-1.8,0.4-1.6,1c0.2,0.6,0.9,0.8,1,1.6s0.1,1.1,0.3,1.3
	c0.2,0.2,0.3,0.3,0.8,0s2.8-1.8,3.4-3.6C79.9,66.9,78.9,67.4,78.9,67.4z"></path><path class="st14" d="M79.2,68.1c0,0-2.3-0.4-2.9-0.7c-0.6-0.3-2.3-1.6-2.6-2.2c-0.4-0.6-0.5-1.4,0-1.7s2.3-1.4,3.1-1.3
	c0.7,0.1,1.1,0.2,1.4,1.1c0.4,0.9,0.3,1.9,0.8,2.6s1.1,1.7,1.1,1.7L79.2,68.1z"></path><path class="st13" d="M80,64.7c0,0,0.4-1.9,1.1-2.2c0.7-0.3,1.4-0.2,1.7,0.2c0.3,0.4,0.3,0.6,0.8,0.6c0.5,0,0.7-0.1,0.8,0.4
	c0.2,0.4-0.8,2.1-1.3,2.3c-0.5,0.3-1.8,1.7-2.3,1.8c-0.5,0.2-1,0.3-1,0.3l-0.3-1L80,64.7z"></path><path class="st15" d="M81.4,69.9c0.2,0.3,2,1.2,2.5,1.2s1.6,0.2,1.8-0.1c0.2-0.3,0.2-0.3,0.2-0.9c0-0.6,0.7-0.6,0.5-1.3
	c-0.2-0.6-0.8-0.9-1.7-1.2s-2.5-0.1-2.7-0.1c-0.2,0-1.9,0-1.9,0l-0.2,1.2L81.4,69.9z"></path><path class="st16" d="M78.6,68.3c-0.2-0.6,0.3-1.6,1-1.6s1.2,0.2,1.5,1.1c0.3,0.9-0.4,1.1-0.9,1.4C79.6,69.3,79,69.4,78.6,68.3z"></path><path class="st17" d="M79.5,68.4c0.2,0.1,0.1,0.1,0.5,0c0.4-0.1,0.6-0.1,0.6-0.4c0-0.2,0-0.4-0.2-0.5s-0.2-0.4-0.5-0.4
	c-0.3,0-0.1-0.1-0.4,0.1c-0.3,0.2-0.2,0.2-0.3,0.4c-0.1,0.2,0,0.7-0.2,0.3c-0.2-0.4-0.2-0.5,0-0.8c0.2-0.3,0.5-0.5,0.8-0.4
	c0.3,0.1,0.9,0.6,1,0.8c0.1,0.2-0.1,0.8-0.2,0.9c-0.1,0.1-0.4,0.3-0.5,0.3C80,68.9,79.5,68.4,79.5,68.4z"></path><path class="st12" d="M52.2,66.5c-1.4,3.3-1.1,2.5-1.4,3.3c-0.3,0.8-0.6,2.1,0,2.5c0.5,0.5,0.9,0.4,1.2,0s0.2-0.7,0.2-0.7
	s0.3,0.6,0.7,0.6c0.5,0,1,0.2,1.3-0.6c0.2-0.9-0.3-2.5-0.3-2.5L53,66L52.2,66.5z"></path><path class="st13" d="M51.9,65.8c0,0-2.7,0.7-3.4,1s-1.8,0.4-1.6,1s0.9,0.8,1,1.6s0.1,1.1,0.3,1.3s0.3,0.3,0.8,0
	c0.4-0.3,2.8-1.8,3.4-3.6S51.9,65.8,51.9,65.8z"></path><path class="st14" d="M52.2,66.5c0,0-2.3-0.4-2.9-0.7c-0.6-0.3-2.3-1.6-2.6-2.2c-0.4-0.6-0.5-1.4,0-1.7s2.3-1.4,3.1-1.3
	c0.7,0.1,1.1,0.2,1.4,1.1c0.4,0.9,0.3,1.9,0.8,2.6S53,66,53,66L52.2,66.5z"></path><path class="st13" d="M53,63.2c0,0,0.4-1.9,1.1-2.2c0.7-0.3,1.4-0.2,1.7,0.2c0.3,0.4,0.3,0.6,0.8,0.6c0.5,0,0.7-0.1,0.8,0.4
	c0.2,0.4-0.8,2.1-1.3,2.3c-0.5,0.3-1.8,1.7-2.3,1.8c-0.5,0.2-1,0.3-1,0.3l-0.3-1L53,63.2z"></path><path class="st15" d="M54.4,68.3c0.2,0.3,2,1.2,2.5,1.2c0.5,0,1.6,0.2,1.8-0.1c0.2-0.3,0.2-0.3,0.2-0.9c0-0.6,0.7-0.6,0.5-1.3
	c-0.2-0.6-0.8-0.9-1.7-1.2S55.2,66,55,66c-0.2,0-1.9,0-1.9,0l-0.2,1.2L54.4,68.3z"></path><path class="st16" d="M51.6,66.7c-0.2-0.6,0.3-1.6,1-1.6c0.7-0.1,1.2,0.2,1.5,1.1c0.3,0.9-0.4,1.1-0.9,1.4
	C52.6,67.8,52,67.9,51.6,66.7z"></path><path class="st17" d="M52.5,66.9c0.2,0.1,0.1,0.1,0.5,0c0.4-0.1,0.6-0.1,0.6-0.4s0-0.4-0.2-0.5s-0.2-0.4-0.5-0.4
	c-0.3,0-0.1-0.1-0.4,0.1c-0.3,0.2-0.2,0.2-0.3,0.4c-0.1,0.2,0,0.7-0.2,0.3s-0.2-0.5,0-0.8c0.2-0.3,0.5-0.5,0.8-0.4
	c0.3,0.1,0.9,0.6,1,0.8s-0.1,0.8-0.2,0.9c-0.1,0.1-0.4,0.3-0.5,0.3C53,67.3,52.5,66.9,52.5,66.9z"></path><path class="st12" d="M52.1,41.2c-1.4,3.3-1.1,2.5-1.4,3.3c-0.3,0.8-0.6,2.1,0,2.5c0.5,0.5,0.9,0.4,1.2,0s0.2-0.7,0.2-0.7
	s0.3,0.6,0.7,0.6s1,0.2,1.3-0.6c0.2-0.9-0.3-2.5-0.3-2.5l-0.7-3.2L52.1,41.2z"></path><path class="st13" d="M51.8,40.5c0,0-2.7,0.7-3.4,1s-1.8,0.4-1.6,1c0.2,0.6,0.9,0.8,1,1.6c0,0.8,0.1,1.1,0.3,1.3
	c0.2,0.2,0.3,0.3,0.8,0s2.8-1.8,3.4-3.6C52.8,40,51.8,40.5,51.8,40.5z"></path><path class="st14" d="M52.1,41.2c0,0-2.3-0.4-2.9-0.7c-0.6-0.3-2.3-1.6-2.6-2.2c-0.4-0.6-0.5-1.4,0-1.7c0.5-0.4,2.3-1.4,3.1-1.3
	c0.7,0.1,1.1,0.2,1.4,1.1c0.4,0.9,0.3,1.9,0.8,2.6c0.5,0.7,1.1,1.7,1.1,1.7L52.1,41.2z"></path><path class="st13" d="M52.9,37.8c0,0,0.4-1.9,1.1-2.2c0.7-0.3,1.4-0.2,1.7,0.2c0.3,0.4,0.3,0.6,0.8,0.6c0.5,0,0.7-0.1,0.8,0.4
	c0.2,0.4-0.8,2.1-1.3,2.3c-0.5,0.3-1.8,1.7-2.3,1.8c-0.5,0.2-1,0.3-1,0.3l-0.3-1L52.9,37.8z"></path><path class="st15" d="M54.3,43c0.2,0.3,2,1.2,2.5,1.2c0.5,0,1.6,0.2,1.8-0.1c0.2-0.3,0.2-0.3,0.2-0.9s0.7-0.6,0.5-1.3
	c-0.2-0.6-0.8-0.9-1.7-1.2c-0.9-0.3-2.5-0.1-2.7-0.1c-0.2,0-1.9,0-1.9,0l-0.2,1.2L54.3,43z"></path><path class="st16" d="M51.5,41.4c-0.2-0.6,0.3-1.6,1-1.6c0.7-0.1,1.2,0.2,1.5,1.1S53.6,42,53,42.2C52.5,42.4,51.9,42.5,51.5,41.4z"></path><path class="st17" d="M52.4,41.5c0.2,0.1,0.1,0.1,0.5,0c0.4-0.1,0.6-0.1,0.6-0.4c0-0.2,0-0.4-0.2-0.5s-0.2-0.4-0.5-0.4
	c-0.3,0-0.1-0.1-0.4,0.1c-0.3,0.2-0.2,0.2-0.3,0.4s0,0.7-0.2,0.3c-0.2-0.4-0.2-0.5,0-0.8c0.2-0.3,0.5-0.5,0.8-0.4
	c0.3,0.1,0.9,0.6,1,0.8s-0.1,0.8-0.2,0.9C53.4,41.7,53.2,42,53,42C52.9,42,52.4,41.5,52.4,41.5z"></path><path class="st12" d="M32.7,80.4c-1.4,3.3-1.1,2.5-1.4,3.3s-0.6,2.1,0,2.5c0.5,0.5,0.9,0.4,1.2,0c0.3-0.4,0.2-0.7,0.2-0.7
	s0.3,0.6,0.7,0.6c0.5,0,1,0.2,1.3-0.6c0.2-0.9-0.3-2.5-0.3-2.5l-0.7-3.2L32.7,80.4z"></path><path class="st13" d="M32.4,79.7c0,0-2.7,0.7-3.4,1s-1.8,0.4-1.6,1c0.2,0.6,0.9,0.8,1,1.6s0.1,1.1,0.3,1.3c0.2,0.2,0.3,0.3,0.8,0
	c0.4-0.3,2.8-1.8,3.4-3.6C33.4,79.2,32.4,79.7,32.4,79.7z"></path><path class="st14" d="M32.7,80.4c0,0-2.3-0.4-2.9-0.7c-0.6-0.3-2.3-1.6-2.6-2.2c-0.4-0.6-0.5-1.4,0-1.7c0.5-0.4,2.3-1.4,3.1-1.3
	s1.1,0.2,1.4,1.1c0.4,0.9,0.3,1.9,0.8,2.6s1.1,1.7,1.1,1.7L32.7,80.4z"></path><path class="st13" d="M33.5,77c0,0,0.4-1.9,1.1-2.2c0.7-0.3,1.4-0.2,1.7,0.2c0.3,0.4,0.3,0.6,0.8,0.6c0.5,0,0.7-0.1,0.8,0.4
	c0.2,0.4-0.8,2.1-1.3,2.3c-0.5,0.3-1.8,1.7-2.3,1.8c-0.5,0.2-1,0.3-1,0.3l-0.3-1L33.5,77z"></path><path class="st15" d="M34.9,82.2c0.2,0.3,2,1.2,2.5,1.2c0.5,0,1.6,0.2,1.8-0.1c0.2-0.3,0.2-0.3,0.2-0.9c0-0.6,0.7-0.6,0.5-1.3
	c-0.2-0.6-0.8-0.9-1.7-1.2c-0.9-0.3-2.5-0.1-2.7-0.1c-0.2,0-1.9,0-1.9,0L33.3,81L34.9,82.2z"></path><path class="st16" d="M32.1,80.6c-0.2-0.6,0.3-1.6,1-1.6c0.7-0.1,1.2,0.2,1.5,1.1c0.3,0.9-0.4,1.1-0.9,1.4
	C33.1,81.6,32.5,81.7,32.1,80.6z"></path><path class="st17" d="M32.9,80.8c0.2,0.1,0.1,0.1,0.5,0c0.4-0.1,0.6-0.1,0.6-0.4c0-0.2,0-0.4-0.2-0.5s-0.2-0.4-0.5-0.4
	c-0.3,0-0.1-0.1-0.4,0.1c-0.3,0.2-0.2,0.2-0.3,0.4c-0.1,0.2,0,0.7-0.2,0.3c-0.2-0.4-0.2-0.5,0-0.8c0.2-0.3,0.5-0.5,0.8-0.4
	c0.3,0.1,0.9,0.6,1,0.8c0.1,0.2-0.1,0.8-0.2,0.9c-0.1,0.1-0.4,0.3-0.5,0.3C33.5,81.2,32.9,80.8,32.9,80.8z"></path><path class="st12" d="M44.5,90.4c-1.4,3.3-1.1,2.5-1.4,3.3c-0.3,0.8-0.6,2.1,0,2.5c0.5,0.5,0.9,0.4,1.2,0s0.2-0.7,0.2-0.7
	s0.3,0.6,0.7,0.6c0.5,0,1,0.2,1.3-0.6c0.2-0.9-0.3-2.5-0.3-2.5l-0.7-3.2L44.5,90.4z"></path><path class="st13" d="M44.2,89.7c0,0-2.7,0.7-3.4,1s-1.8,0.4-1.6,1c0.2,0.6,0.9,0.8,1,1.6c0,0.8,0.1,1.1,0.3,1.3
	c0.2,0.2,0.3,0.3,0.8,0c0.4-0.3,2.8-1.8,3.4-3.6C45.2,89.2,44.2,89.7,44.2,89.7z"></path><path class="st14" d="M44.5,90.4c0,0-2.3-0.4-2.9-0.7c-0.6-0.3-2.3-1.6-2.6-2.2c-0.4-0.6-0.5-1.4,0-1.7c0.5-0.4,2.3-1.4,3.1-1.3
	c0.7,0.1,1.1,0.2,1.4,1.1c0.4,0.9,0.3,1.9,0.8,2.6c0.5,0.7,1.1,1.7,1.1,1.7L44.5,90.4z"></path><path class="st13" d="M45.3,87.1c0,0,0.4-1.9,1.1-2.2c0.7-0.3,1.4-0.2,1.7,0.2c0.3,0.4,0.3,0.6,0.8,0.6c0.5,0,0.7-0.1,0.8,0.4
	c0.2,0.4-0.8,2.1-1.3,2.3s-1.8,1.7-2.3,1.8c-0.5,0.2-1,0.3-1,0.3l-0.3-1L45.3,87.1z"></path><path class="st15" d="M46.7,92.2c0.2,0.3,2,1.2,2.5,1.2c0.5,0,1.6,0.2,1.8-0.1s0.2-0.3,0.2-0.9c0-0.6,0.7-0.6,0.5-1.3
	c-0.2-0.6-0.8-0.9-1.7-1.2c-0.9-0.3-2.5-0.1-2.7-0.1c-0.2,0-1.9,0-1.9,0l-0.2,1.2L46.7,92.2z"></path><path class="st16" d="M43.9,90.6c-0.2-0.6,0.3-1.6,1-1.6c0.7-0.1,1.2,0.2,1.5,1.1c0.3,0.9-0.4,1.1-0.9,1.4
	C44.9,91.7,44.3,91.8,43.9,90.6z"></path><path class="st17" d="M44.8,90.8c0.2,0.1,0.1,0.1,0.5,0s0.6-0.1,0.6-0.4s0-0.4-0.2-0.5c-0.1-0.1-0.2-0.4-0.5-0.4s-0.1-0.1-0.4,0.1
	c-0.3,0.2-0.2,0.2-0.3,0.4c-0.1,0.2,0,0.7-0.2,0.3s-0.2-0.5,0-0.8c0.2-0.3,0.5-0.5,0.8-0.4c0.3,0.1,0.9,0.6,1,0.8
	c0.1,0.2-0.1,0.8-0.2,0.9c-0.1,0.1-0.4,0.3-0.5,0.3C45.3,91.3,44.8,90.8,44.8,90.8z"></path><path class="st12" d="M69.3,74.8c-1.4,3.3-1.1,2.5-1.4,3.3s-0.6,2.1,0,2.5c0.5,0.5,0.9,0.4,1.2,0c0.3-0.4,0.2-0.7,0.2-0.7
	s0.3,0.6,0.7,0.6s1,0.2,1.3-0.6c0.2-0.9-0.3-2.5-0.3-2.5l-0.7-3.2L69.3,74.8z"></path><path class="st13" d="M69,74.1c0,0-2.7,0.7-3.4,1c-0.7,0.4-1.8,0.4-1.6,1c0.2,0.6,0.9,0.8,1,1.6s0.1,1.1,0.3,1.3
	c0.2,0.2,0.3,0.3,0.8,0s2.8-1.8,3.4-3.6C70,73.7,69,74.1,69,74.1z"></path><path class="st14" d="M69.3,74.8c0,0-2.3-0.4-2.9-0.7c-0.6-0.3-2.3-1.6-2.6-2.2c-0.4-0.6-0.5-1.4,0-1.7c0.5-0.4,2.3-1.4,3.1-1.3
	s1.1,0.2,1.4,1.1c0.4,0.9,0.3,1.9,0.8,2.6s1.1,1.7,1.1,1.7L69.3,74.8z"></path><path class="st13" d="M70.1,71.5c0,0,0.4-1.9,1.1-2.2c0.7-0.3,1.4-0.2,1.7,0.2s0.3,0.6,0.8,0.6c0.5,0,0.7-0.1,0.8,0.4
	c0.2,0.4-0.8,2.1-1.3,2.3c-0.5,0.3-1.8,1.7-2.3,1.8s-1,0.3-1,0.3l-0.3-1L70.1,71.5z"></path><path class="st15" d="M71.5,76.6c0.2,0.3,2,1.2,2.5,1.2c0.5,0,1.6,0.2,1.8-0.1c0.2-0.3,0.2-0.3,0.2-0.9c0-0.6,0.7-0.6,0.5-1.3
	c-0.2-0.6-0.8-0.9-1.7-1.2c-0.9-0.3-2.5-0.1-2.7-0.1c-0.2,0-1.9,0-1.9,0l-0.2,1.2L71.5,76.6z"></path><path class="st16" d="M68.7,75c-0.2-0.6,0.3-1.6,1-1.6c0.7-0.1,1.2,0.2,1.5,1.1c0.3,0.9-0.4,1.1-0.9,1.4
	C69.7,76.1,69.1,76.2,68.7,75z"></path><path class="st17" d="M69.6,75.2c0.2,0.1,0.1,0.1,0.5,0c0.4-0.1,0.6-0.1,0.6-0.4c0-0.2,0-0.4-0.2-0.5S70.4,74,70.1,74
	c-0.3,0-0.1-0.1-0.4,0.1c-0.3,0.2-0.2,0.2-0.3,0.4c-0.1,0.2,0,0.7-0.2,0.3c-0.2-0.4-0.2-0.5,0-0.8c0.2-0.3,0.5-0.5,0.8-0.4
	c0.3,0.1,0.9,0.6,1,0.8c0.1,0.2-0.1,0.8-0.2,0.9c-0.1,0.1-0.4,0.3-0.5,0.3C70.1,75.7,69.6,75.2,69.6,75.2z"></path><path class="st12" d="M73.3,45.1c-1.4,3.3-1.1,2.5-1.4,3.3c-0.3,0.8-0.6,2.1,0,2.5c0.5,0.5,0.9,0.4,1.2,0s0.2-0.7,0.2-0.7
	s0.3,0.6,0.7,0.6s1,0.2,1.3-0.6c0.2-0.9-0.3-2.5-0.3-2.5l-0.7-3.2L73.3,45.1z"></path><path class="st13" d="M73,44.4c0,0-2.7,0.7-3.4,1c-0.7,0.4-1.8,0.4-1.6,1s0.9,0.8,1,1.6s0.1,1.1,0.3,1.3s0.3,0.3,0.8,0
	s2.8-1.8,3.4-3.6S73,44.4,73,44.4z"></path><path class="st14" d="M73.3,45.1c0,0-2.3-0.4-2.9-0.7c-0.6-0.3-2.3-1.6-2.6-2.2c-0.4-0.6-0.5-1.4,0-1.7s2.3-1.4,3.1-1.3
	c0.7,0.1,1.1,0.2,1.4,1.1s0.3,1.9,0.8,2.6s1.1,1.7,1.1,1.7L73.3,45.1z"></path><path class="st13" d="M74.1,41.7c0,0,0.4-1.9,1.1-2.2c0.7-0.3,1.4-0.2,1.7,0.2c0.3,0.4,0.3,0.6,0.8,0.6c0.5,0,0.7-0.1,0.8,0.4
	c0.2,0.4-0.8,2.1-1.3,2.3c-0.5,0.3-1.8,1.7-2.3,1.8s-1,0.3-1,0.3l-0.3-1L74.1,41.7z"></path><path class="st15" d="M75.5,46.8c0.2,0.3,2,1.2,2.5,1.2c0.5,0,1.6,0.2,1.8-0.1c0.2-0.3,0.2-0.3,0.2-0.9s0.7-0.6,0.5-1.3
	c-0.2-0.6-0.8-0.9-1.7-1.2c-0.9-0.3-2.5-0.1-2.7-0.1c-0.2,0-1.9,0-1.9,0l-0.2,1.2L75.5,46.8z"></path><path class="st16" d="M72.7,45.3c-0.2-0.6,0.3-1.6,1-1.6c0.7-0.1,1.2,0.2,1.5,1.1c0.3,0.9-0.4,1.1-0.9,1.4S73.1,46.4,72.7,45.3z"></path><path class="st17" d="M73.6,45.4c0.2,0.1,0.1,0.1,0.5,0s0.6-0.1,0.6-0.4c0-0.2,0-0.4-0.2-0.5s-0.2-0.4-0.5-0.4
	c-0.3,0-0.1-0.1-0.4,0.1c-0.3,0.2-0.2,0.2-0.3,0.4c-0.1,0.2,0,0.7-0.2,0.3s-0.2-0.5,0-0.8s0.5-0.5,0.8-0.4c0.3,0.1,0.9,0.6,1,0.8
	s-0.1,0.8-0.2,0.9c-0.1,0.1-0.4,0.3-0.5,0.3C74.1,45.9,73.6,45.4,73.6,45.4z"></path><path class="st12" d="M80.4,89.1c-1.4,3.3-1.1,2.5-1.4,3.3c-0.3,0.8-0.6,2.1,0,2.5c0.5,0.5,0.9,0.4,1.2,0s0.2-0.7,0.2-0.7
	s0.3,0.6,0.7,0.6s1,0.2,1.3-0.6c0.2-0.9-0.3-2.5-0.3-2.5l-0.7-3.2L80.4,89.1z"></path><path class="st13" d="M80.2,88.4c0,0-2.7,0.7-3.4,1c-0.7,0.4-1.8,0.4-1.6,1c0.2,0.6,0.9,0.8,1,1.6c0,0.8,0.1,1.1,0.3,1.3
	c0.2,0.2,0.3,0.3,0.8,0s2.8-1.8,3.4-3.6S80.2,88.4,80.2,88.4z"></path><path class="st14" d="M80.4,89.1c0,0-2.3-0.4-2.9-0.7c-0.6-0.3-2.3-1.6-2.6-2.2c-0.4-0.6-0.5-1.4,0-1.7c0.5-0.4,2.3-1.4,3.1-1.3
	c0.7,0.1,1.1,0.2,1.4,1.1c0.4,0.9,0.3,1.9,0.8,2.6s1.1,1.7,1.1,1.7L80.4,89.1z"></path><path class="st13" d="M81.2,85.8c0,0,0.4-1.9,1.1-2.2c0.7-0.3,1.4-0.2,1.7,0.2c0.3,0.4,0.3,0.6,0.8,0.6c0.5,0,0.7-0.1,0.8,0.4
	c0.2,0.4-0.8,2.1-1.3,2.3c-0.5,0.3-1.8,1.7-2.3,1.8c-0.5,0.2-1,0.3-1,0.3l-0.3-1L81.2,85.8z"></path><path class="st15" d="M82.7,90.9c0.2,0.3,2,1.2,2.5,1.2s1.6,0.2,1.8-0.1c0.2-0.3,0.2-0.3,0.2-0.9c0-0.6,0.7-0.6,0.5-1.3
	s-0.8-0.9-1.7-1.2c-0.9-0.3-2.5-0.1-2.7-0.1s-1.9,0-1.9,0l-0.2,1.2L82.7,90.9z"></path><path class="st16" d="M79.8,89.3c-0.2-0.6,0.3-1.6,1-1.6c0.7-0.1,1.2,0.2,1.5,1.1c0.3,0.9-0.4,1.1-0.9,1.4
	C80.8,90.3,80.2,90.4,79.8,89.3z"></path><path class="st17" d="M80.7,89.5c0.2,0.1,0.1,0.1,0.5,0c0.4-0.1,0.6-0.1,0.6-0.4c0-0.2,0-0.4-0.2-0.5c-0.1-0.1-0.2-0.4-0.5-0.4
	c-0.3,0-0.1-0.1-0.4,0.1c-0.3,0.2-0.2,0.2-0.3,0.4c-0.1,0.2,0,0.7-0.2,0.3s-0.2-0.5,0-0.8c0.2-0.3,0.5-0.5,0.8-0.4
	c0.3,0.1,0.9,0.6,1,0.8c0.1,0.2-0.1,0.8-0.2,0.9c-0.1,0.1-0.4,0.3-0.5,0.3C81.2,89.9,80.7,89.5,80.7,89.5z"></path><path class="st12" d="M94,39c-1.4,3.3-1.1,2.5-1.4,3.3c-0.3,0.8-0.6,2.1,0,2.5c0.5,0.5,0.9,0.4,1.2,0s0.2-0.7,0.2-0.7
	s0.3,0.6,0.7,0.6s1,0.2,1.3-0.6c0.2-0.9-0.3-2.5-0.3-2.5l-0.7-3.2L94,39z"></path><path class="st13" d="M93.8,38.3c0,0-2.7,0.7-3.4,1c-0.7,0.4-1.8,0.4-1.6,1s0.9,0.8,1,1.6c0,0.8,0.1,1.1,0.3,1.3
	c0.2,0.2,0.3,0.3,0.8,0s2.8-1.8,3.4-3.6S93.8,38.3,93.8,38.3z"></path><path class="st14" d="M94,39c0,0-2.3-0.4-2.9-0.7c-0.6-0.3-2.3-1.6-2.6-2.2c-0.4-0.6-0.5-1.4,0-1.7s2.3-1.4,3.1-1.3
	c0.7,0.1,1.1,0.2,1.4,1.1s0.3,1.9,0.8,2.6c0.5,0.7,1.1,1.7,1.1,1.7L94,39z"></path><path class="st13" d="M94.8,35.7c0,0,0.4-1.9,1.1-2.2c0.7-0.3,1.4-0.2,1.7,0.2s0.3,0.6,0.8,0.6c0.5,0,0.7-0.1,0.8,0.4
	c0.2,0.4-0.8,2.1-1.3,2.3c-0.5,0.3-1.8,1.7-2.3,1.8c-0.5,0.2-1,0.3-1,0.3l-0.3-1L94.8,35.7z"></path><path class="st15" d="M96.3,40.8c0.2,0.3,2,1.2,2.5,1.2c0.5,0,1.6,0.2,1.8-0.1c0.2-0.3,0.2-0.3,0.2-0.9s0.7-0.6,0.5-1.3
	c-0.2-0.6-0.8-0.9-1.7-1.2c-0.9-0.3-2.5-0.1-2.7-0.1s-1.9,0-1.9,0l-0.2,1.2L96.3,40.8z"></path><path class="st16" d="M93.4,39.2c-0.2-0.6,0.3-1.6,1-1.6c0.7-0.1,1.2,0.2,1.5,1.1c0.3,0.9-0.4,1.1-0.9,1.4
	C94.4,40.3,93.8,40.4,93.4,39.2z"></path><path class="st17" d="M94.3,39.4c0.2,0.1,0.1,0.1,0.5,0c0.4-0.1,0.6-0.1,0.6-0.4c0-0.2,0-0.4-0.2-0.5s-0.2-0.4-0.5-0.4
	c-0.3,0-0.1-0.1-0.4,0.1c-0.3,0.2-0.2,0.2-0.3,0.4c-0.1,0.2,0,0.7-0.2,0.3s-0.2-0.5,0-0.8s0.5-0.5,0.8-0.4c0.3,0.1,0.9,0.6,1,0.8
	s-0.1,0.8-0.2,0.9s-0.4,0.3-0.5,0.3C94.8,39.8,94.3,39.4,94.3,39.4z"></path><path class="st12" d="M86.7,25.9c-1.4,3.3-1.1,2.5-1.4,3.3c-0.3,0.8-0.6,2.1,0,2.5c0.5,0.5,0.9,0.4,1.2,0c0.3-0.4,0.2-0.7,0.2-0.7
	s0.3,0.6,0.7,0.6s1,0.2,1.3-0.6c0.2-0.9-0.3-2.5-0.3-2.5l-0.7-3.2L86.7,25.9z"></path><path class="st13" d="M86.5,25.2c0,0-2.7,0.7-3.4,1c-0.7,0.4-1.8,0.4-1.6,1s0.9,0.8,1,1.6c0,0.8,0.1,1.1,0.3,1.3
	c0.2,0.2,0.3,0.3,0.8,0s2.8-1.8,3.4-3.6C87.4,24.7,86.5,25.2,86.5,25.2z"></path><path class="st14" d="M86.7,25.9c0,0-2.3-0.4-2.9-0.7c-0.6-0.3-2.3-1.6-2.6-2.2c-0.4-0.6-0.5-1.4,0-1.7s2.3-1.4,3.1-1.3
	s1.1,0.2,1.4,1.1c0.4,0.9,0.3,1.9,0.8,2.6c0.5,0.7,1.1,1.7,1.1,1.7L86.7,25.9z"></path><path class="st13" d="M87.5,22.5c0,0,0.4-1.9,1.1-2.2s1.4-0.2,1.7,0.2c0.3,0.4,0.3,0.6,0.8,0.6s0.7-0.1,0.8,0.4
	c0.2,0.4-0.8,2.1-1.3,2.3c-0.5,0.3-1.8,1.7-2.3,1.8c-0.5,0.2-1,0.3-1,0.3l-0.3-1L87.5,22.5z"></path><path class="st15" d="M89,27.6c0.2,0.3,2,1.2,2.5,1.2c0.5,0,1.6,0.2,1.8-0.1s0.2-0.3,0.2-0.9c0-0.6,0.7-0.6,0.5-1.3
	c-0.2-0.6-0.8-0.9-1.7-1.2c-0.9-0.3-2.5-0.1-2.7-0.1c-0.2,0-1.9,0-1.9,0l-0.2,1.2L89,27.6z"></path><path class="st16" d="M86.1,26.1c-0.2-0.6,0.3-1.6,1-1.6s1.2,0.2,1.5,1.1c0.3,0.9-0.4,1.1-0.9,1.4S86.5,27.2,86.1,26.1z"></path><path class="st17" d="M87,26.2c0.2,0.1,0.1,0.1,0.5,0c0.4-0.1,0.6-0.1,0.6-0.4c0-0.2,0-0.4-0.2-0.5S87.8,25,87.5,25
	c-0.3,0-0.1-0.1-0.4,0.1s-0.2,0.2-0.3,0.4c-0.1,0.2,0,0.7-0.2,0.3c-0.2-0.4-0.2-0.5,0-0.8c0.2-0.3,0.5-0.5,0.8-0.4
	c0.3,0.1,0.9,0.6,1,0.8c0.1,0.2-0.1,0.8-0.2,0.9s-0.4,0.3-0.5,0.3C87.5,26.7,87,26.2,87,26.2z"></path><path class="st12" d="M72.9,21.8c0,0-1.3-2-2.3-2.2c-1.1-0.2-1.7-0.6-2.2,0.5c-0.5,1.1-0.2,1.6-0.7,2.3c-0.5,0.7-0.6,1.6,0,2
	s0.7,0.7,1.9,0.5s2.4-0.3,2.8-0.3c0.4,0,1.6-0.1,1.6-0.1L72.9,21.8z"></path><path class="st13" d="M74.5,23.4c0.1,0,1.3-2.9,1.4-4.6c0.1-1.7,0.6-1.9-0.4-2.3s-1.1,0.2-2.2,0c-1.1-0.2-1.8-0.3-1.9-0.1
	s-0.2,5.1,0.9,6.4S74.5,23.4,74.5,23.4z"></path><path class="st14" d="M75.2,24.8c0,0,3.5-0.8,4-1.4c0.5-0.6,1.4-0.7,1.3-2c-0.1-1.3-0.7-1.2-0.8-1.8c-0.1-0.7,0.2-1.6-1.1-1.4
	c-1.3,0.2-1.8,0.6-2.2,1.4s-2.4,4.8-2.4,4.8L75.2,24.8z"></path><path class="st14" d="M69.5,26.8c0,1.2,1,1.1,1.8,1.4c0.8,0.3,0.5,1.1,1.3,0.9c0.8-0.3,1.4-0.4,1.4-1.4c0-0.9,0-3.3,0-3.3
	s-1.3-0.8-2.3-0.5S69.6,25,69.5,26.8z"></path><path class="st13" d="M74.1,24.3c0,0,0.3,4,0.7,4.3c0.4,0.3,0.3,0.9,1.6,0.4c1.3-0.5,0.7-0.4,1.6-0.7c1-0.3,1.4-0.5,1.1-1.3
	C78.8,26.4,77.4,24.2,74.1,24.3z"></path><path class="st15" d="M80.5,23.8c0.4,0.2,0.9,0.9,0.4,1.6c-0.5,0.7-0.3,0.7-0.8,1c-0.5,0.3-5.8-1.3-6.1-2.1
	C73.7,23.6,76.5,22.3,80.5,23.8z"></path><path class="st16" d="M75.3,23.8c0.1,0.7-0.7,1.5-1.4,1.4c-0.7-0.1-1.1-0.6-1.2-1.5s0.7-1.1,1.3-1.1C74.5,22.5,75.2,22.6,75.3,23.8z
	"></path><path class="st17" d="M74.4,23.4c-0.1-0.1-0.1-0.1-0.5-0.2c-0.4,0-0.6,0-0.7,0.2c-0.1,0.2-0.1,0.4,0,0.6c0.1,0.1,0.1,0.4,0.4,0.5
	c0.3,0.1,0.1,0.1,0.5,0s0.2-0.2,0.4-0.4s0.2-0.7,0.3-0.3s0.1,0.6-0.2,0.9c-0.3,0.3-0.6,0.3-1,0.2c-0.3-0.2-0.8-0.9-0.8-1.1
	c0-0.2,0.3-0.8,0.5-0.8c0.2,0,0.5-0.2,0.6-0.2C74,22.8,74.4,23.4,74.4,23.4z"></path><path class="st12" d="M79.8,36.2c0,0-1.3-2-2.3-2.2c-1.1-0.2-1.7-0.6-2.2,0.5s-0.2,1.6-0.7,2.3c-0.5,0.7-0.6,1.6,0,2
	c0.6,0.4,0.7,0.7,1.9,0.5c1.2-0.2,2.4-0.3,2.8-0.3s1.6-0.1,1.6-0.1L79.8,36.2z"></path><path class="st13" d="M81.4,37.8c0.1,0,1.3-2.9,1.4-4.6c0.1-1.7,0.6-1.9-0.4-2.3c-1-0.4-1.1,0.2-2.2,0c-1.1-0.2-1.8-0.3-1.9-0.1
	c-0.1,0.2-0.2,5.1,0.9,6.4C80.4,38.5,81.4,37.8,81.4,37.8z"></path><path class="st14" d="M82.1,39.2c0,0,3.5-0.8,4-1.4s1.4-0.7,1.3-2c-0.1-1.3-0.7-1.2-0.8-1.8c-0.1-0.7,0.2-1.6-1.1-1.4
	c-1.3,0.2-1.8,0.6-2.2,1.4S81,38.7,81,38.7L82.1,39.2z"></path><path class="st14" d="M76.5,41.2c0,1.2,1,1.1,1.8,1.4c0.8,0.3,0.5,1.1,1.3,0.9C80.4,43.1,81,43,81,42c0-0.9,0-3.3,0-3.3
	s-1.3-0.8-2.3-0.5C77.8,38.6,76.5,39.4,76.5,41.2z"></path><path class="st13" d="M81,38.7c0,0,0.3,4,0.7,4.3c0.4,0.3,0.3,0.9,1.6,0.4c1.3-0.5,0.7-0.4,1.6-0.7s1.4-0.5,1.1-1.3
	C85.8,40.8,84.4,38.6,81,38.7z"></path><path class="st15" d="M87.5,38.2c0.4,0.2,0.9,0.9,0.4,1.6c-0.5,0.7-0.3,0.7-0.8,1c-0.5,0.3-5.8-1.3-6.1-2.1
	C80.7,38,83.5,36.7,87.5,38.2z"></path><path class="st16" d="M82.2,38.3c0.1,0.7-0.7,1.5-1.4,1.4c-0.7-0.1-1.1-0.6-1.2-1.5c-0.1-1,0.7-1.1,1.3-1.1
	C81.5,36.9,82.1,37,82.2,38.3z"></path><path class="st17" d="M81.4,37.9c-0.1-0.1-0.1-0.1-0.5-0.2c-0.4,0-0.6,0-0.7,0.2c-0.1,0.2-0.1,0.4,0,0.6c0.1,0.1,0.1,0.4,0.4,0.5
	c0.3,0.1,0.1,0.1,0.5,0c0.4-0.1,0.2-0.2,0.4-0.4s0.2-0.7,0.3-0.3c0.1,0.4,0.1,0.6-0.2,0.9s-0.6,0.3-1,0.2c-0.3-0.2-0.8-0.9-0.8-1.1
	c0-0.2,0.3-0.8,0.5-0.8s0.5-0.2,0.6-0.2C81,37.2,81.4,37.9,81.4,37.9z"></path><path class="st12" d="M44.4,35.9c0,0-1.3-2-2.3-2.2c-1.1-0.2-1.7-0.6-2.2,0.5c-0.5,1.1-0.2,1.6-0.7,2.3c-0.5,0.7-0.6,1.6,0,2
	c0.6,0.4,0.7,0.7,1.9,0.5c1.2-0.2,2.4-0.3,2.8-0.3c0.4,0,1.6-0.1,1.6-0.1L44.4,35.9z"></path><path class="st13" d="M46,37.6c0.1,0,1.3-2.9,1.4-4.6c0.1-1.7,0.6-1.9-0.4-2.3c-1-0.4-1.1,0.2-2.2,0c-1.1-0.2-1.8-0.3-1.9-0.1
	c-0.1,0.2-0.2,5.1,0.9,6.4C45,38.2,46,37.6,46,37.6z"></path><path class="st14" d="M46.7,38.9c0,0,3.5-0.8,4-1.4c0.5-0.6,1.4-0.7,1.3-2c-0.1-1.3-0.7-1.2-0.8-1.8c-0.1-0.7,0.2-1.6-1.1-1.4
	c-1.3,0.2-1.8,0.6-2.2,1.4c-0.3,0.8-2.4,4.8-2.4,4.8L46.7,38.9z"></path><path class="st14" d="M41.1,40.9c0,1.2,1,1.1,1.8,1.4c0.8,0.3,0.5,1.1,1.3,0.9c0.8-0.3,1.4-0.4,1.4-1.4c0-0.9,0-3.3,0-3.3
	s-1.3-0.8-2.3-0.5S41.1,39.1,41.1,40.9z"></path><path class="st13" d="M45.6,38.5c0,0,0.3,4,0.7,4.3c0.4,0.3,0.3,0.9,1.6,0.4c1.3-0.5,0.7-0.4,1.6-0.7c1-0.3,1.4-0.5,1.1-1.3
	C50.4,40.5,49,38.4,45.6,38.5z"></path><path class="st15" d="M52.1,37.9c0.4,0.2,0.9,0.9,0.4,1.6c-0.5,0.7-0.3,0.7-0.8,1c-0.5,0.3-5.8-1.3-6.1-2.1S48.1,36.5,52.1,37.9z"></path><path class="st16" d="M46.9,38c0.1,0.7-0.7,1.5-1.4,1.4c-0.7-0.1-1.1-0.6-1.2-1.5c-0.1-1,0.7-1.1,1.3-1.1S46.8,36.7,46.9,38z"></path><path class="st17" d="M46,37.6c-0.1-0.1-0.1-0.1-0.5-0.2c-0.4,0-0.6,0-0.7,0.2s-0.1,0.4,0,0.6s0.1,0.4,0.4,0.5
	c0.3,0.1,0.1,0.1,0.5,0c0.4-0.1,0.2-0.2,0.4-0.4s0.2-0.7,0.3-0.3c0.1,0.4,0.1,0.6-0.2,0.9c-0.3,0.3-0.6,0.3-1,0.2s-0.8-0.9-0.8-1.1
	c0-0.2,0.3-0.8,0.5-0.8c0.2,0,0.5-0.2,0.6-0.2C45.6,37,46,37.6,46,37.6z"></path><path class="st12" d="M20.2,38.9c0,0-0.9-2.2-1.9-2.6c-1-0.4-1.6-0.9-2.2,0.1c-0.6,1-0.5,1.6-1.1,2.2c-0.6,0.6-0.8,1.5-0.3,2
	s0.6,0.8,1.8,0.8c1.2,0,2.5,0.1,2.9,0.1c0.4,0.1,1.6,0.2,1.6,0.2L20.2,38.9z"></path><path class="st13" d="M21.5,40.8c0.1,0,1.8-2.7,2.1-4.4c0.3-1.7,0.9-1.8,0-2.3c-0.9-0.5-1.1,0-2.2-0.3c-1.1-0.4-1.7-0.6-1.8-0.4
	s-1,5-0.1,6.5C20.4,41.3,21.5,40.8,21.5,40.8z"></path><path class="st14" d="M22,42.3c0,0,3.6-0.3,4.2-0.8c0.6-0.5,1.5-0.5,1.6-1.8c0.1-1.3-0.5-1.3-0.5-1.9c0-0.7,0.4-1.5-0.8-1.5
	c-1.3,0-1.9,0.3-2.4,1C23.7,38,21,41.6,21,41.6L22,42.3z"></path><path class="st14" d="M16.1,43.3c-0.2,1.2,0.9,1.2,1.6,1.6c0.7,0.4,0.3,1.2,1.1,1c0.8-0.1,1.5-0.2,1.6-1.1c0.1-0.9,0.5-3.3,0.5-3.3
	s-1.2-1-2.2-0.8C17.8,41,16.5,41.6,16.1,43.3z"></path><path class="st13" d="M21,41.6c0,0-0.4,4,0,4.4c0.3,0.4,0.2,0.9,1.5,0.6c1.3-0.3,0.7-0.3,1.7-0.4s1.4-0.3,1.3-1.1S24.3,42.1,21,41.6
	z"></path><path class="st15" d="M27.5,42.1c0.4,0.2,0.8,1,0.2,1.6c-0.6,0.6-0.4,0.6-0.9,0.9c-0.5,0.3-5.5-2.2-5.7-3
	C20.8,40.8,23.7,40,27.5,42.1z"></path><path class="st16" d="M22.3,41.4c-0.1,0.7-0.9,1.4-1.6,1.2s-1-0.7-0.9-1.7c0.1-1,0.8-0.9,1.4-0.9C21.7,39.9,22.4,40.1,22.3,41.4z"></path><path class="st17" d="M21.5,40.8c-0.1-0.1-0.1-0.2-0.5-0.3c-0.4-0.1-0.6-0.1-0.7,0.1c-0.1,0.2-0.2,0.4-0.1,0.6
	c0.1,0.2,0,0.4,0.3,0.6c0.3,0.1,0.1,0.1,0.5,0.1c0.4-0.1,0.3-0.1,0.5-0.3c0.2-0.2,0.3-0.7,0.3-0.2c0,0.4,0,0.6-0.4,0.8
	c-0.3,0.2-0.7,0.2-1,0c-0.3-0.2-0.6-1-0.6-1.2c0-0.2,0.4-0.7,0.6-0.7s0.5-0.1,0.7-0.1C21.2,40.2,21.5,40.8,21.5,40.8z"></path><path class="st12" d="M30.1,28.5c0,0-2.4,0.7-2.9,1.7c-0.5,1-1.1,1.5-0.2,2.3c0.9,0.8,1.6,0.7,2.1,1.4c0.5,0.7,1.4,1,2,0.6
	c0.6-0.5,0.9-0.5,1-1.8c0.1-1.2,0.4-2.5,0.5-2.9C32.7,29.3,33,28,33,28L30.1,28.5z"></path><path class="st13" d="M32.2,27.4c0-0.1-2.5-2.1-4.2-2.7c-1.7-0.6-1.7-1.1-2.4-0.3s-0.1,1.2-0.6,2.2c-0.5,1.1-0.9,1.7-0.7,1.8
	c0.2,0.1,5,1.6,6.6,0.9C32.6,28.6,32.2,27.4,32.2,27.4z"></path><path class="st14" d="M33.8,27c0,0,0.2-3.7-0.3-4.4c-0.5-0.7-0.3-1.7-1.6-1.9c-1.3-0.2-1.4,0.3-2.1,0.3s-1.5-0.7-1.7,0.7
	c-0.2,1.3,0.1,2,0.8,2.6C29.6,24.8,33,28,33,28L33.8,27z"></path><path class="st14" d="M34.1,33.2c1.2,0.4,1.3-0.7,1.9-1.4s1.3-0.2,1.2-1c0-0.9,0-1.6-1-1.8S33,28,33,28s-1.2,1.1-1.1,2.1
	C32,31.2,32.4,32.7,34.1,33.2z"></path><path class="st13" d="M33,28c0,0,4.1,0.9,4.5,0.6s1-0.1,0.8-1.5s-0.3-0.8-0.2-1.8s-0.1-1.5-0.9-1.5S33.9,24.6,33,28z"></path><path class="st15" d="M34.3,21.4c0.3-0.4,1.1-0.7,1.7,0c0.6,0.7,0.6,0.5,0.8,1.1c0.2,0.6-3,5.4-3.8,5.5S31.7,25,34.3,21.4z"></path><path class="st16" d="M32.9,26.7c0.7,0.2,1.3,1.1,1,1.8s-0.9,1-1.9,0.8s-0.9-1-0.8-1.6C31.3,27,31.6,26.4,32.9,26.7z"></path><path class="st17" d="M32.2,27.4c-0.1,0.1-0.2,0.1-0.3,0.5s-0.2,0.6,0,0.8c0.2,0.2,0.4,0.2,0.6,0.1c0.2-0.1,0.4,0,0.6-0.2
	c0.2-0.3,0.1-0.1,0.1-0.5c0-0.4-0.1-0.3-0.2-0.5c-0.1-0.2-0.6-0.4-0.2-0.4c0.4,0,0.6,0.1,0.8,0.5c0.2,0.4,0.2,0.7-0.1,1
	c-0.3,0.3-1.1,0.5-1.3,0.5c-0.2-0.1-0.7-0.5-0.7-0.7c0-0.2-0.1-0.5,0-0.7C31.5,27.6,32.2,27.4,32.2,27.4z"></path><path class="st12" d="M20.8,73.3c0,0,0.6-4.3,0-5.4c-0.6-1.1-1-1.8-1.7-1.5c-0.7,0.4-0.5,0.8-1.5,1.1c-1,0.3-1.1-0.2-1.4,0.3
	c-0.3,0.4-0.8,1.2,0,2c0.8,0.9,2.5,2.6,2.8,2.8C19.3,72.9,20.8,73.3,20.8,73.3z"></path><path class="st13" d="M20.8,73.3c0.2,0.6,3.9-2,4.2-2.6s1.5-2.2,0.8-2.8s-0.8-0.2-1.7-0.5c-0.9-0.4-0.4-1.3-1.4-1
	c-1,0.3-0.9-0.1-1.4,0.8C20.8,68,20.3,71.6,20.8,73.3z"></path><path class="st14" d="M23.3,75.8c0,0,0.9,0.8,1.9,0.7c1-0.1,1.5,0.2,1.6-0.7c0.2-0.9-0.1-0.8,0.5-1.6s2.1-1.7,0-2s-3.7-0.3-4.2,0
	c-0.5,0.3-2.4,1.1-2.4,1.1L23.3,75.8z"></path><path class="st13" d="M20.6,74.1c0,0-3,2.6-3.7,2.9c-0.7,0.3-1.7,0.8-2.2,0c-0.5-0.8-0.5-1.8-0.7-2.4s-0.3-1.6,0-1.8
	c0.3-0.2,0.5-0.9,1.3-0.6c0.8,0.3,1.9,0.5,1.9,0.5l3.6,0.8L20.6,74.1z"></path><path class="st15" d="M18.7,77.3c0,1-0.2,1.7,0.5,1.9s0.9,0.1,1.7,0.2c0.9,0.2,0.9,0.7,1.5,0.4c0.5-0.3,0.9,0.1,1.2-1.2
	c0.3-1.3,0.1-3.4-1.4-4.4c-1.5-1-1.5-1-1.5-1S18.8,76,18.7,77.3z"></path><path class="st16" d="M19.6,72.6c0.4-0.7,1.6-0.9,2.2-0.3c0.6,0.6,0.6,1.2,0.1,2.1c-0.6,0.9-1.3,0.5-1.9,0.2
	C19.4,74.2,18.8,73.8,19.6,72.6z"></path><path class="st17" d="M20.1,73.5c0.1,0.2,0,0.2,0.4,0.5s0.5,0.4,0.8,0.3c0.2-0.1,0.4-0.3,0.4-0.5c0-0.2,0.2-0.4,0-0.7s0-0.2-0.4-0.3
	c-0.4-0.1-0.3,0-0.6,0c-0.3,0.1-0.6,0.5-0.5,0.1c0.2-0.4,0.3-0.5,0.8-0.6c0.5-0.1,0.8,0.1,1,0.5c0.2,0.4,0.1,1.3,0,1.5
	s-0.8,0.5-0.9,0.4s-0.6-0.1-0.7-0.2C20,74.3,20.1,73.5,20.1,73.5z"></path><path class="st12" d="M34.3,63.5c0,0,0.6-4.3,0-5.4c-0.6-1.1-1-1.8-1.7-1.5s-0.5,0.8-1.5,1.1c-1,0.3-1.1-0.2-1.4,0.3
	c-0.3,0.4-0.8,1.2,0,2c0.8,0.9,2.5,2.6,2.8,2.8C32.8,63.1,34.3,63.5,34.3,63.5z"></path><path class="st13" d="M34.3,63.5c0.2,0.6,3.9-2,4.2-2.6s1.5-2.2,0.8-2.8c-0.7-0.5-0.8-0.2-1.7-0.5c-0.9-0.4-0.4-1.3-1.4-1
	s-0.9-0.1-1.4,0.8C34.3,58.1,33.8,61.8,34.3,63.5z"></path><path class="st14" d="M36.8,66c0,0,0.9,0.8,1.9,0.7c1-0.1,1.5,0.2,1.6-0.7s-0.1-0.8,0.5-1.6c0.7-0.8,2.1-1.7,0-2
	c-2.1-0.2-3.7-0.3-4.2,0c-0.5,0.3-2.4,1.1-2.4,1.1L36.8,66z"></path><path class="st13" d="M34.1,64.2c0,0-3,2.6-3.7,2.9s-1.7,0.8-2.2,0c-0.5-0.8-0.5-1.8-0.7-2.4s-0.3-1.6,0-1.8
	c0.3-0.2,0.5-0.9,1.3-0.6c0.8,0.3,1.9,0.5,1.9,0.5l3.6,0.8L34.1,64.2z"></path><path class="st15" d="M32.3,67.5c0,1-0.2,1.7,0.5,1.9c0.8,0.2,0.9,0.1,1.7,0.2c0.9,0.2,0.9,0.7,1.5,0.4c0.5-0.3,0.9,0.1,1.2-1.2
	c0.3-1.3,0.1-3.4-1.4-4.4c-1.5-1-1.5-1-1.5-1S32.3,66.1,32.3,67.5z"></path><path class="st16" d="M33.1,62.7c0.4-0.7,1.6-0.9,2.2-0.3c0.6,0.6,0.6,1.2,0.1,2.1c-0.6,0.9-1.3,0.5-1.9,0.2
	C32.9,64.4,32.4,63.9,33.1,62.7z"></path><path class="st17" d="M33.6,63.6c0.1,0.2,0,0.2,0.4,0.5c0.4,0.3,0.5,0.4,0.8,0.3s0.4-0.3,0.4-0.5s0.2-0.4,0-0.7s0-0.2-0.4-0.3
	c-0.4-0.1-0.3,0-0.6,0c-0.3,0.1-0.6,0.5-0.5,0.1c0.2-0.4,0.3-0.5,0.8-0.6c0.5-0.1,0.8,0.1,1,0.5c0.2,0.4,0.1,1.3,0,1.5
	s-0.8,0.5-0.9,0.4c-0.2-0.1-0.6-0.1-0.7-0.2C33.6,64.4,33.6,63.6,33.6,63.6z"></path><path class="st12" d="M52.7,53.3c0,0,0.6-4.3,0-5.4c-0.6-1.1-1-1.8-1.7-1.5c-0.7,0.4-0.5,0.8-1.5,1.1s-1.1-0.2-1.4,0.3s-0.8,1.2,0,2
	c0.8,0.9,2.5,2.6,2.8,2.8C51.2,52.9,52.7,53.3,52.7,53.3z"></path><path class="st13" d="M52.7,53.3c0.2,0.6,3.9-2,4.2-2.6s1.5-2.2,0.8-2.8c-0.7-0.5-0.8-0.2-1.7-0.5c-0.9-0.4-0.4-1.3-1.4-1
	c-1,0.3-0.9-0.1-1.4,0.8C52.7,47.9,52.2,51.6,52.7,53.3z"></path><path class="st14" d="M55.2,55.8c0,0,0.9,0.8,1.9,0.7c1-0.1,1.5,0.2,1.6-0.7c0.2-0.9-0.1-0.8,0.5-1.6c0.7-0.8,2.1-1.7,0-2
	c-2.1-0.2-3.7-0.3-4.2,0s-2.4,1.1-2.4,1.1L55.2,55.8z"></path><path class="st13" d="M52.5,54c0,0-3,2.6-3.7,2.9c-0.7,0.3-1.7,0.8-2.2,0C46,56.1,46,55,45.9,54.5c-0.2-0.5-0.3-1.6,0-1.8
	c0.3-0.2,0.5-0.9,1.3-0.6c0.8,0.3,1.9,0.5,1.9,0.5l3.6,0.8L52.5,54z"></path><path class="st15" d="M50.7,57.3c0,1-0.2,1.7,0.5,1.9c0.8,0.2,0.9,0.1,1.7,0.2c0.9,0.2,0.9,0.7,1.5,0.4s0.9,0.1,1.2-1.2
	s0.1-3.4-1.4-4.4s-1.5-1-1.5-1S50.7,55.9,50.7,57.3z"></path><path class="st16" d="M51.5,52.5c0.4-0.7,1.6-0.9,2.2-0.3s0.6,1.2,0.1,2.1c-0.6,0.9-1.3,0.5-1.9,0.2C51.3,54.2,50.8,53.7,51.5,52.5z
	"></path><path class="st17" d="M52,53.4c0.1,0.2,0,0.2,0.4,0.5c0.4,0.3,0.5,0.4,0.8,0.3c0.2-0.1,0.4-0.3,0.4-0.5s0.2-0.4,0-0.7s0-0.2-0.4-0.3
	c-0.4-0.1-0.3,0-0.6,0s-0.6,0.5-0.5,0.1c0.2-0.4,0.3-0.5,0.8-0.6s0.8,0.1,1,0.5c0.2,0.4,0.1,1.3,0,1.5c-0.1,0.2-0.8,0.5-0.9,0.4
	c-0.2-0.1-0.6-0.1-0.7-0.2C52,54.2,52,53.4,52,53.4z"></path><path class="st12" d="M63.7,41.7c0,0,0.6-4.3,0-5.4c-0.6-1.1-1-1.8-1.7-1.5c-0.7,0.4-0.5,0.8-1.5,1.1s-1.1-0.2-1.4,0.3s-0.8,1.2,0,2
	c0.8,0.9,2.5,2.6,2.8,2.8C62.2,41.2,63.7,41.7,63.7,41.7z"></path><path class="st13" d="M63.7,41.7c0.2,0.6,3.9-2,4.2-2.6c0.3-0.7,1.5-2.2,0.8-2.8c-0.7-0.5-0.8-0.2-1.7-0.5c-0.9-0.4-0.4-1.3-1.4-1
	c-1,0.3-0.9-0.1-1.4,0.8C63.7,36.3,63.2,39.9,63.7,41.7z"></path><path class="st14" d="M66.2,44.2c0,0,0.9,0.8,1.9,0.7c1-0.1,1.5,0.2,1.6-0.7c0.2-0.9-0.1-0.8,0.5-1.6c0.7-0.8,2.1-1.7,0-2
	c-2.1-0.2-3.7-0.3-4.2,0s-2.4,1.1-2.4,1.1L66.2,44.2z"></path><path class="st13" d="M63.5,42.4c0,0-3,2.6-3.7,2.9c-0.7,0.3-1.7,0.8-2.2,0c-0.5-0.8-0.5-1.8-0.7-2.4c-0.2-0.5-0.3-1.6,0-1.8
	c0.3-0.2,0.5-0.9,1.3-0.6c0.8,0.3,1.9,0.5,1.9,0.5l3.6,0.8L63.5,42.4z"></path><path class="st15" d="M61.7,45.7c0,1-0.2,1.7,0.5,1.9c0.8,0.2,0.9,0.1,1.7,0.2c0.9,0.2,0.9,0.7,1.5,0.4c0.5-0.3,0.9,0.1,1.2-1.2
	s0.1-3.4-1.4-4.4c-1.5-1-1.5-1-1.5-1S61.7,44.3,61.7,45.7z"></path><path class="st16" d="M62.6,40.9c0.4-0.7,1.6-0.9,2.2-0.3c0.6,0.6,0.6,1.2,0.1,2.1c-0.6,0.9-1.3,0.5-1.9,0.2
	C62.3,42.6,61.8,42.1,62.6,40.9z"></path><path class="st17" d="M63,41.8c0.1,0.2,0,0.2,0.4,0.5c0.4,0.3,0.5,0.4,0.8,0.3c0.2-0.1,0.4-0.3,0.4-0.5s0.2-0.4,0-0.7s0-0.2-0.4-0.3
	c-0.4-0.1-0.3,0-0.6,0s-0.6,0.5-0.5,0.1c0.2-0.4,0.3-0.5,0.8-0.6s0.8,0.1,1,0.5c0.2,0.4,0.1,1.3,0,1.5C64.6,42.7,64,43,63.8,43
	c-0.2-0.1-0.6-0.1-0.7-0.2C63,42.6,63,41.8,63,41.8z"></path><path class="st12" d="M18,55.7c0,0-4.7,0.9-5.7,1.9c-0.9,1-1.6,1.7-0.9,2.3s1,0.2,1.7,1.2c0.6,0.9,0.2,1.2,0.8,1.3
	c0.6,0.1,1.5,0.4,2.1-0.7c0.6-1.2,1.9-3.5,2-3.9S18,55.7,18,55.7z"></path><path class="st13" d="M18,55.7c0.6-0.4-3.4-3.4-4.2-3.5c-0.8-0.1-2.9-0.8-3.2,0.1s0.1,0.9,0,2c-0.1,1-1.2,0.9-0.6,1.8
	c0.6,0.9,0.2,0.9,1.3,1.2C12.4,57.6,16.4,56.8,18,55.7z"></path><path class="st14" d="M19.8,52.2c0,0,0.5-1.2,0.1-2.2c-0.4-1-0.3-1.6-1.3-1.5c-1,0.1-0.8,0.4-1.9,0c-1.1-0.4-2.6-1.6-2.1,0.7
	c0.5,2.2,1,4,1.5,4.4c0.5,0.4,2,2.1,2,2.1L19.8,52.2z"></path><path class="st13" d="M18.8,55.6c0,0,3.8,2.2,4.3,2.9s1.4,1.6,0.8,2.3c-0.6,0.8-1.8,1.2-2.3,1.5c-0.5,0.4-1.6,0.9-1.9,0.7
	c-0.3-0.3-1.1-0.3-1.1-1.1c0-0.9-0.1-2.2-0.1-2.2l-0.5-4L18.8,55.6z"></path><path class="st15" d="M22.9,56.4c1-0.3,1.9-0.4,1.8-1.3c0-0.9-0.2-0.9-0.4-1.9s0.4-1.2-0.1-1.7s-0.2-1-1.7-0.8s-3.6,1.1-4.1,3
	C18,55.7,18,55.7,18,55.7S21.5,56.8,22.9,56.4z"></path><path class="st16" d="M17.6,57.2c-0.9-0.2-1.5-1.4-1.1-2.2c0.4-0.8,1.1-1.1,2.2-0.8c1.2,0.3,1,1.2,0.8,1.9
	C19.4,56.8,19.1,57.5,17.6,57.2z"></path><path class="st17" d="M18.4,56.3c0.2-0.1,0.2-0.1,0.4-0.6c0.2-0.5,0.2-0.7,0-0.9s-0.5-0.3-0.7-0.2s-0.5-0.1-0.7,0.3
	c-0.2,0.3-0.2,0.1-0.1,0.5c0,0.5,0.1,0.4,0.3,0.6c0.1,0.3,0.7,0.5,0.2,0.5S17,56.4,16.8,56c-0.2-0.5-0.2-0.9,0.2-1.2
	c0.3-0.3,1.3-0.6,1.6-0.5c0.3,0.1,0.8,0.6,0.8,0.8s0.1,0.6,0,0.8C19.2,56.1,18.4,56.3,18.4,56.3z"></path><path class="st12" d="M37.4,48c0,0-4.7,0.9-5.7,1.9s-1.6,1.7-0.9,2.3c0.6,0.6,1,0.2,1.7,1.2s0.2,1.2,0.8,1.3
	c0.6,0.1,1.5,0.4,2.1-0.7c0.6-1.2,1.9-3.5,2-3.9C37.4,49.7,37.4,48,37.4,48z"></path><path class="st13" d="M37.4,48c0.6-0.4-3.4-3.4-4.2-3.5c-0.8-0.1-2.9-0.8-3.2,0.1s0.1,0.9,0,2s-1.2,0.9-0.6,1.8s0.2,0.9,1.3,1.2
	C31.7,49.9,35.7,49.1,37.4,48z"></path><path class="st14" d="M39.1,44.5c0,0,0.5-1.2,0.1-2.2c-0.4-1-0.3-1.6-1.3-1.5s-0.8,0.4-1.9,0s-2.6-1.6-2.1,0.7s1,4,1.5,4.4
	s2,2.1,2,2.1L39.1,44.5z"></path><path class="st13" d="M38.2,47.9c0,0,3.8,2.2,4.3,2.9s1.4,1.6,0.8,2.3c-0.6,0.8-1.8,1.2-2.3,1.5s-1.6,0.9-1.9,0.7
	c-0.3-0.3-1.1-0.3-1.1-1.1c0-0.9-0.1-2.2-0.1-2.2l-0.5-4L38.2,47.9z"></path><path class="st15" d="M42.3,48.7c1-0.3,1.9-0.4,1.8-1.3s-0.2-0.9-0.4-1.9s0.4-1.2-0.1-1.7c-0.5-0.5-0.2-1-1.7-0.8
	c-1.5,0.2-3.6,1.1-4.1,3C37.4,48,37.4,48,37.4,48S40.8,49.1,42.3,48.7z"></path><path class="st16" d="M36.9,49.5c-0.9-0.2-1.5-1.4-1.1-2.2c0.4-0.8,1.1-1.1,2.2-0.8c1.2,0.3,1,1.2,0.8,1.9
	C38.8,49.1,38.5,49.8,36.9,49.5z"></path><path class="st17" d="M37.7,48.6c0.2-0.1,0.2-0.1,0.4-0.6c0.2-0.5,0.2-0.7,0-0.9c-0.2-0.2-0.5-0.3-0.7-0.2c-0.2,0.1-0.5-0.1-0.7,0.3
	c-0.2,0.3-0.2,0.1-0.1,0.5c0,0.5,0.1,0.4,0.3,0.6c0.1,0.3,0.7,0.5,0.2,0.5c-0.5,0-0.7-0.1-0.9-0.6c-0.2-0.5-0.2-0.9,0.2-1.2
	c0.3-0.3,1.3-0.6,1.6-0.5c0.3,0.1,0.8,0.6,0.8,0.8s0.1,0.6,0,0.8C38.6,48.4,37.7,48.6,37.7,48.6z"></path><path class="st12" d="M55.4,27.4c0,0-4.7,0.9-5.7,1.9s-1.6,1.7-0.9,2.3c0.6,0.6,1,0.2,1.7,1.2c0.6,0.9,0.2,1.2,0.8,1.3
	c0.6,0.1,1.5,0.4,2.1-0.7c0.6-1.2,1.9-3.5,2-3.9C55.5,29.1,55.4,27.4,55.4,27.4z"></path><path class="st13" d="M55.4,27.4C56,27,52,24,51.2,23.9c-0.8-0.1-2.9-0.8-3.2,0.1c-0.3,0.9,0.1,0.9,0,2c-0.1,1-1.2,0.9-0.6,1.8
	c0.6,0.9,0.2,0.9,1.3,1.2C49.8,29.3,53.8,28.5,55.4,27.4z"></path><path class="st14" d="M57.2,23.9c0,0,0.5-1.2,0.1-2.2c-0.4-1-0.3-1.6-1.3-1.5c-1,0.1-0.8,0.4-1.9,0c-1.1-0.4-2.6-1.6-2.1,0.7
	s1,4,1.5,4.4s2,2.1,2,2.1L57.2,23.9z"></path><path class="st13" d="M56.2,27.4c0,0,3.8,2.2,4.3,2.9c0.5,0.6,1.4,1.6,0.8,2.3c-0.6,0.8-1.8,1.2-2.3,1.5c-0.5,0.4-1.6,0.9-1.9,0.7
	c-0.3-0.3-1.1-0.3-1.1-1.1c0-0.9-0.1-2.2-0.1-2.2l-0.5-4L56.2,27.4z"></path><path class="st15" d="M60.3,28.1c1-0.3,1.9-0.4,1.8-1.3s-0.2-0.9-0.4-1.9c-0.1-1,0.4-1.2-0.1-1.7c-0.5-0.5-0.2-1-1.7-0.8
	s-3.6,1.1-4.1,3c-0.5,1.9-0.5,1.9-0.5,1.9S58.9,28.5,60.3,28.1z"></path><path class="st16" d="M55,28.9c-0.9-0.2-1.5-1.4-1.1-2.2c0.4-0.8,1.1-1.1,2.2-0.8c1.2,0.3,1,1.2,0.8,1.9
	C56.8,28.5,56.5,29.2,55,28.9z"></path><path class="st17" d="M55.8,28c0.2-0.1,0.2-0.1,0.4-0.6s0.2-0.7,0-0.9c-0.2-0.2-0.5-0.3-0.7-0.2c-0.2,0.1-0.5-0.1-0.7,0.3
	s-0.2,0.1-0.1,0.5c0,0.5,0.1,0.4,0.3,0.6c0.1,0.3,0.7,0.5,0.2,0.5c-0.5,0-0.7-0.1-0.9-0.6c-0.2-0.5-0.2-0.9,0.2-1.2
	c0.3-0.3,1.3-0.6,1.6-0.5c0.3,0.1,0.8,0.6,0.8,0.8c0,0.2,0.1,0.6,0,0.8S55.8,28,55.8,28z"></path></g></svg>