<svg id="Layer_1" data-name="Layer 1" xmlns="http://www.w3.org/2000/svg" viewBox="0 0 108 108">
  <defs>
    <style>
      .cls-1 {
        fill: #6fd7a3;
      }

      .cls-2 {
        fill: #d691c6;
      }

      .cls-3 {
        fill: #cd7cbb;
      }

      .cls-4 {
        fill: #ffceec;
      }

      .cls-5 {
        fill: #ffbee6;
      }

      .cls-6 {
        fill: #ffead9;
      }

      .cls-7 {
        fill: #3ec3a4;
      }

      .cls-8 {
        fill: #c365af;
      }

      .cls-9 {
        fill: #b2529f;
      }

      .cls-10 {
        fill: #fea95c;
      }

      .cls-11 {
        fill: #fe9738;
      }
    </style>
  </defs>
  <g>
    <path class="cls-1" d="M43.48,90.5a1.1,1.1,0,0,1-1.1-1.1V83.57A7.85,7.85,0,0,0,40.05,78l-1.49-1.5a1.1,1.1,0,0,1,0-1.56,1.09,1.09,0,0,1,1.55,0l1.5,1.5a10.07,10.07,0,0,1,3,7.18V89.4a1.11,1.11,0,0,1-1.11,1.1Z"/>
    <path class="cls-1" d="M65.81,90.5a1.1,1.1,0,0,0,1.1-1.1V83.57A7.89,7.89,0,0,1,69.24,78l1.5-1.5a1.1,1.1,0,1,0-1.56-1.56l-1.49,1.5a10.07,10.07,0,0,0-3,7.18V89.4A1.1,1.1,0,0,0,65.81,90.5Z"/>
    <path class="cls-2" d="M50.59,37.67V62.5l-3.54-3.43-9.63-9.3a9,9,0,0,0-4.2-2.28L26,45.8V37.67l6.1-1.07,10.44,1.07Z"/>
    <path class="cls-3" d="M50.59,37.67V62.5l-3.54-3.43a21,21,0,0,0-2-6l-4.54-9.09a12.41,12.41,0,0,1-1.33-5.6v-.67l.8-.25,2.47.25Z"/>
    <path class="cls-4" d="M29.53,41.14v8A1.49,1.49,0,0,1,27,50.19l-2.44-2.3a7.06,7.06,0,0,1-2.21-5.13V38.24A5.12,5.12,0,0,1,29,33.37l13.45,4.3H33A3.47,3.47,0,0,0,29.53,41.14Z"/>
    <g>
      <path class="cls-5" d="M26.27,41.14v8a1.66,1.66,0,0,1,0,.33l.79.75a1.49,1.49,0,0,0,2.51-1.08v-8A3.47,3.47,0,0,1,33,37.67H29.74A3.47,3.47,0,0,0,26.27,41.14Z"/>
      <path class="cls-5" d="M29,33.37a5,5,0,0,0-3.19,0l13.37,4.27h3.27Z"/>
    </g>
    <path class="cls-2" d="M83.35,37.67V45.8l-.43.1L76.5,47.39l-.43.1a9,9,0,0,0-4.19,2.28L58.7,62.5V37.67h8.11L77.6,36.53Z"/>
    <path class="cls-4" d="M50.35,52.73a1.11,1.11,0,0,1-.86.41,1.07,1.07,0,0,1-.69-.25l-6.29-5-4.94-3.95A1.1,1.1,0,1,1,39,42.22l1.25,1,10,8a1.11,1.11,0,0,1,.16,1.55Z"/>
    <path class="cls-5" d="M50.35,52.73a1.11,1.11,0,0,1-.86.41,1.07,1.07,0,0,1-.69-.25l-6.29-5-2-3.93a6.89,6.89,0,0,1-.34-.73l10,8a1.11,1.11,0,0,1,.16,1.55Z"/>
    <path class="cls-4" d="M59.81,53.14a1.1,1.1,0,0,1-.7-2l11.22-9a1.1,1.1,0,1,1,1.39,1.7l-11.22,9a1.07,1.07,0,0,1-.69.25Z"/>
    <path class="cls-3" d="M83.35,37.67v7.17a6.53,6.53,0,0,1-.43,1.06L76.5,47.39V41.14A3.47,3.47,0,0,0,73,37.67l4.57-1.14Z"/>
    <path class="cls-4" d="M79.77,41.14v8a1.48,1.48,0,0,0,2.5,1.08l2.45-2.3a7.06,7.06,0,0,0,2.21-5.13V38.24a5.12,5.12,0,0,0-6.67-4.87l-13.45,4.3H76.3A3.47,3.47,0,0,1,79.77,41.14Z"/>
    <path class="cls-5" d="M80.26,33.37l-.08,0a5.1,5.1,0,0,1,3.48,4.84v4.52a7.06,7.06,0,0,1-2.21,5.13L79.8,49.44a1.49,1.49,0,0,0,2.47.75l2.45-2.3a7.06,7.06,0,0,0,2.21-5.13V38.24A5.12,5.12,0,0,0,80.26,33.37Z"/>
    <path class="cls-1" d="M56.11,90.5H53.18a1,1,0,0,1-1-1V67.1h4.88V89.52A1,1,0,0,1,56.11,90.5Z"/>
    <path class="cls-6" d="M43.55,34.63a1.11,1.11,0,0,1-1-.71L38.15,22.85a1.1,1.1,0,1,1,2.05-.8l4.38,11.08A1.1,1.1,0,0,1,44,34.55,1.14,1.14,0,0,1,43.55,34.63Z"/>
    <path class="cls-6" d="M43.75,40.23a1.09,1.09,0,0,1-.84-.4L34.56,29.9a1.1,1.1,0,0,1,1.7-1.41l8.34,9.93A1.1,1.1,0,0,1,44.46,40a1.08,1.08,0,0,1-.71.26Z"/>
    <path class="cls-7" d="M54.36,67.1V89.44a1.12,1.12,0,0,1-.78,1.06h2.53a1,1,0,0,0,1-1V67.1Z"/>
    <path class="cls-8" d="M66.81,31v7.34a12.53,12.53,0,0,1-1.32,5.6L60.94,53A21.17,21.17,0,0,0,58.7,62.5v7.7a3.5,3.5,0,0,1-3.49,3.5H54.09A3.38,3.38,0,0,1,53,73.53a3.49,3.49,0,0,1-2.43-3.33V62.5A21.16,21.16,0,0,0,48.36,53l-4.55-9.09a12.53,12.53,0,0,1-1.32-5.6V31l12.15-2.25,8.88,1.64Z"/>
    <path class="cls-6" d="M65.72,35.38a1.14,1.14,0,0,1-.4-.08,1.1,1.1,0,0,1-.63-1.42l4.38-11.83a1.1,1.1,0,1,1,2.05.8L66.75,34.67A1.11,1.11,0,0,1,65.72,35.38Z"/>
    <path class="cls-6" d="M65.11,40.76a1.07,1.07,0,0,1-.7-.26A1.1,1.1,0,0,1,64.27,39L73,28.49A1.1,1.1,0,1,1,74.7,29.9L66,40.36A1.08,1.08,0,0,1,65.11,40.76Z"/>
    <path class="cls-9" d="M66.81,31v7.34a12.53,12.53,0,0,1-1.32,5.6L60.94,53A21.17,21.17,0,0,0,58.7,62.5v7.7a3.5,3.5,0,0,1-3.49,3.5H54.09A3.38,3.38,0,0,1,53,73.53a3.5,3.5,0,0,0,2.42-3.33V62.5A21,21,0,0,1,57.68,53l4.54-9.09a12.54,12.54,0,0,0,1.33-5.6V31c0-.2,0-.41,0-.61Z"/>
    <path class="cls-4" d="M66.81,31l-7.23,2.38a2.51,2.51,0,0,1-2.67-.74l-.2-.23a2.5,2.5,0,0,0-3.85.08,2.48,2.48,0,0,1-2.68.84L42.49,31a7,7,0,0,1,7-7H59.81a7,7,0,0,1,7,7Z"/>
    <path class="cls-5" d="M59.81,24H56.54a7,7,0,0,1,6.87,5.63,1.54,1.54,0,0,1-1,1.76l-5,1.65a2.52,2.52,0,0,0,2.23.34L66.81,31A7,7,0,0,0,59.81,24Z"/>
    <path class="cls-8" d="M40,75l-1.64,1.63a2.05,2.05,0,0,1-2.9,0l-.75-.75a3.37,3.37,0,0,0-1.15-.75c-.44-.18-.92-.35-1.42-.52-3.23-1.12-7.51-2.41-7.86-5.78-.73-2.93-.57-4.43,1.33-6.33.22-.23.47-.45.74-.69a3.74,3.74,0,0,1,.92-.74c1.46-.82,3.33-.56,4.93-.15,3.89.39,5,6.07,6.3,9.28a3.37,3.37,0,0,0,.75,1.15l.75.74A2.06,2.06,0,0,1,40,75Z"/>
    <path class="cls-9" d="M40,75l-1.64,1.63a2.06,2.06,0,0,1-2.79.11l.12-.11L37.35,75a2.06,2.06,0,0,0,0-2.91l-.74-.74a3.39,3.39,0,0,1-.76-1.15c-1.27-3.21-2.41-8.89-6.3-9.28-.38-.1-.77-.19-1.18-.26a8.44,8.44,0,0,1,3.86.26c3.89.39,5,6.07,6.3,9.28a3.37,3.37,0,0,0,.75,1.15l.75.74A2.06,2.06,0,0,1,40,75Z"/>
    <path class="cls-8" d="M85,68.81c-.34,3.29-4.41,4.6-7.61,5.7l-.93.32a6.65,6.65,0,0,0-1.56.82,7.07,7.07,0,0,0-.78.67l-.29.29a2.06,2.06,0,0,1-2.91,0L69.27,75a2.06,2.06,0,0,1,0-2.91l.29-.29a6.41,6.41,0,0,0,1.49-2.34c1.18-3.27,2.42-8.18,6-8.54,1.58-.41,3.44-.66,4.89.13a3.62,3.62,0,0,1,1,.76c.26.23.5.45.71.66,1.92,1.92,2.09,3.41,1.35,6.36Z"/>
    <path class="cls-9" d="M85,68.81c-.37,3.62-5.26,4.84-8.54,6a6.41,6.41,0,0,0-2.34,1.49l-.29.29a2.06,2.06,0,0,1-2.86,0l0,0,.29-.29a6.41,6.41,0,0,1,2.34-1.49c3.28-1.18,8.16-2.4,8.54-6,.82-3.28.52-4.76-2.06-7a3.69,3.69,0,0,0-1.94-1.13c1.7-.3,3.52-.23,4.75,1.13,2.58,2.26,2.88,3.74,2.06,7Z"/>
    <g>
      <circle class="cls-10" cx="32.09" cy="25.27" r="1.12"/>
      <circle class="cls-10" cx="49.48" cy="18.95" r="1.12"/>
      <circle class="cls-10" cx="77.18" cy="25.27" r="1.12"/>
      <circle class="cls-10" cx="59.79" cy="18.95" r="1.12"/>
    </g>
    <path class="cls-9" d="M54.65,55.75a1.1,1.1,0,0,1-1.1-1.1V41.86a1.1,1.1,0,0,1,2.2,0V54.65A1.1,1.1,0,0,1,54.65,55.75Z"/>
    <path class="cls-9" d="M34.74,75.86a3.37,3.37,0,0,0-1.15-.75c-.44-.18-.92-.35-1.42-.52-1.57-5.36-5.49-10.75-6.53-12.11.22-.23.47-.45.74-.69a3.74,3.74,0,0,1,.92-.74c1.48,1.87,6.23,8.45,7.44,14.81Z"/>
    <path class="cls-9" d="M83.63,62.45C83,63.28,82,64.67,81,66.38a31.94,31.94,0,0,0-3.63,8.13l-.93.32a6.65,6.65,0,0,0-1.56.82c1-6,5.25-12.24,7.08-14.62a3.62,3.62,0,0,1,1,.76c.26.23.5.45.71.66Z"/>
    <circle class="cls-10" cx="38.27" cy="20.06" r="2.56"/>
    <path class="cls-11" d="M38.27,17.5a2.54,2.54,0,0,0-1.22.31,2.56,2.56,0,0,1,0,4.51,2.65,2.65,0,0,0,1.22.3,2.56,2.56,0,0,0,0-5.12Z"/>
    <circle class="cls-10" cx="71" cy="20.06" r="2.56"/>
    <path class="cls-11" d="M71,17.5a2.47,2.47,0,0,0-1.21.31,2.57,2.57,0,0,1,0,4.51A2.56,2.56,0,1,0,71,17.5Z"/>
  </g>
</svg>
