<svg id="Layer_1" data-name="Layer 1" xmlns="http://www.w3.org/2000/svg" viewBox="0 0 108 108">
  <defs>
    <style>
      .cls-1 {
        fill: #89d4a7;
      }

      .cls-2 {
        fill: #67c0a5;
      }

      .cls-3 {
        fill: #428420;
      }

      .cls-4 {
        fill: #58a12e;
      }

      .cls-5 {
        fill: #80c036;
      }

      .cls-6 {
        fill: #97d452;
      }
    </style>
  </defs>
  <g id="_129" data-name="129">
    <g>
      <path class="cls-1" d="M52.46,71.75c-4.71-6.08-11.45-6.08-16.16,0a2.48,2.48,0,0,0,0,3c4.71,6.08,11.45,6.08,16.16,0A2.51,2.51,0,0,0,52.46,71.75Z"/>
      <path class="cls-1" d="M73.7,80.84c-4.71-6.09-11.45-6.09-16.16,0a2.51,2.51,0,0,0,0,3C62.25,90,69,90,73.7,83.87A2.48,2.48,0,0,0,73.7,80.84Z"/>
      <path class="cls-1" d="M52,57.4v37a1.85,1.85,0,0,0,1.85,1.85h2.34A1.85,1.85,0,0,0,58,94.36v-37Z"/>
    </g>
    <g>
      <g>
        <path class="cls-2" d="M52.46,71.75C49.58,68,46,66.6,42.48,67.42a11.27,11.27,0,0,1,6.18,4.33,2.48,2.48,0,0,1,0,3,11.2,11.2,0,0,1-6.18,4.32c3.47.83,7.1-.6,10-4.32A2.51,2.51,0,0,0,52.46,71.75Z"/>
        <path class="cls-2" d="M73.7,80.84c-2.87-3.72-6.51-5.15-10-4.33a11.27,11.27,0,0,1,6.18,4.33,2.48,2.48,0,0,1,0,3,11.25,11.25,0,0,1-6.18,4.32c3.47.83,7.11-.61,10-4.32A2.48,2.48,0,0,0,73.7,80.84Z"/>
      </g>
      <path class="cls-2" d="M55,57.4V96.21h1.17A1.85,1.85,0,0,0,58,94.36v-37Z"/>
    </g>
    <g>
      <g>
        <path class="cls-3" d="M31.46,14.42c2.41-6.3,6.25.72,6.25.72,3.67-6.83,7.74,5.79,7.74,5.79,6-6.07,4.23,6.71,4.23,6.71,10-3.32,7,9.29,7,9.29,10.44-1.49-4.43,16.25-4.43,16.25C45.39,36.51,29.71,35.5,27.6,15.44,27.11,10.78,31.46,14.42,31.46,14.42Z"/>
        <path class="cls-4" d="M36.48,20.65a.75.75,0,0,0,.39-1c-.27-.63-.53-1.3-.77-2a.75.75,0,0,0-1.42.5c.26.72.53,1.42.81,2.08A.75.75,0,0,0,36.48,20.65Z"/>
        <path class="cls-4" d="M37.42,22.53a.76.76,0,0,1,1,.26c2.48,4.17,5.54,6.5,8.8,8.84a.74.74,0,0,1,.17,1h0a.74.74,0,0,1-1,.18c-3.27-2.34-6.59-4.87-9.22-9.29A.76.76,0,0,1,37.42,22.53Z"/>
      </g>
      <g>
        <path class="cls-4" d="M78.54,14.42c-2.41-6.3-6.25.72-6.25.72-3.67-6.83-7.74,5.79-7.74,5.79-6-6.07-4.23,6.71-4.23,6.71-10-3.32-4.64,8.8-4.64,8.8-10.44-1.49,2,16.74,2,16.74C64.61,36.51,80.29,35.5,82.4,15.44,82.89,10.78,78.54,14.42,78.54,14.42Z"/>
        <path class="cls-3" d="M82.4,15.43C80.29,35.5,64.61,36.51,57.73,53.18c0,0-.15-.21-.39-.59,6.37-17,21.72-18.12,23.18-38.75,0-.22,0-.43,0-.62C81.61,12.84,82.65,13,82.4,15.43Z"/>
        <path class="cls-5" d="M73.52,20.65a.75.75,0,0,1-.39-1c.27-.63.53-1.3.77-2a.75.75,0,0,1,1.42.5c-.26.72-.53,1.42-.81,2.08A.75.75,0,0,1,73.52,20.65Z"/>
        <path class="cls-5" d="M72.58,22.53a.76.76,0,0,0-1,.26c-2.48,4.17-5.54,6.5-8.8,8.84a.74.74,0,0,0-.17,1h0a.74.74,0,0,0,1,.18c3.27-2.34,6.59-4.87,9.22-9.29A.76.76,0,0,0,72.58,22.53Z"/>
      </g>
    </g>
    <g>
      <g>
        <g>
          <path class="cls-5" d="M51.33,45.84s1-13.22-7.33-6.74c0,0-2.59-12.64-6.22-4.91,0,0-8.06-10.53-9.24-2.86,0,0-6-5.34-6.12,1.41,0,0-5.32-2-3.3,2.25,8.49,17.75,23.08,14.1,35,26.35a1.83,1.83,0,0,0,1.07.21C56.08,57.83,59.62,41.48,51.33,45.84Z"/>
          <path class="cls-4" d="M28.57,37.88a.76.76,0,0,0,.24-1c-.36-.57-.72-1.19-1.07-1.84a.75.75,0,1,0-1.32.72c.36.67.74,1.32,1.12,1.92A.75.75,0,0,0,28.57,37.88Z"/>
        </g>
        <path class="cls-4" d="M53.64,57.22a.75.75,0,0,0,.09-1.06c-4-4.68-8.12-6.76-12.14-8.77-3.83-1.92-7.45-3.73-10.73-7.7a.75.75,0,0,0-1.06-.1.76.76,0,0,0-.1,1.06c3.49,4.21,7.42,6.18,11.22,8.08s7.89,4,11.67,8.4A.74.74,0,0,0,53.64,57.22Z"/>
      </g>
      <g>
        <g>
          <path class="cls-6" d="M87.58,32.74c-.16-6.75-6.13-1.41-6.13-1.41-1.17-7.67-9.23,2.86-9.23,2.86C68.59,26.46,66,39.1,66,39.1c-8.33-6.48-7.33,6.74-7.33,6.74-8.29-4.36-4.75,12-3.85,15.72A1.82,1.82,0,0,0,56,61.28C67.84,49.1,82.41,52.72,90.88,35,92.9,30.76,87.58,32.74,87.58,32.74Z"/>
          <path class="cls-5" d="M89.68,32.28A3.73,3.73,0,0,1,89.32,34c-7.43,18.38-22.2,14.64-33.39,27.26a1.69,1.69,0,0,1-1.11.29h0A1.82,1.82,0,0,0,56,61.28C67.84,49.1,82.41,52.72,90.88,35,92,32.68,90.89,32.22,89.68,32.28Z"/>
          <path class="cls-4" d="M81.43,37.88a.76.76,0,0,1-.24-1c.36-.57.72-1.19,1.07-1.84a.75.75,0,1,1,1.32.72c-.36.67-.74,1.32-1.12,1.92A.75.75,0,0,1,81.43,37.88Z"/>
        </g>
        <path class="cls-4" d="M56.36,57.22a.75.75,0,0,1-.09-1.06c4-4.68,8.12-6.76,12.14-8.77,3.83-1.92,7.45-3.73,10.73-7.7a.75.75,0,0,1,1.06-.1.76.76,0,0,1,.1,1.06c-3.49,4.21-7.42,6.18-11.22,8.08s-7.89,4-11.67,8.4A.74.74,0,0,1,56.36,57.22Z"/>
      </g>
    </g>
  </g>
</svg>
