<?xml version="1.0" encoding="utf-8"?>
<svg id="Layer_1" data-name="Layer 1" viewBox="0 0 108 108" xmlns="http://www.w3.org/2000/svg">
  <defs>
    <style>
      .cls-1 {
        fill: #b52c46;
      }

      .cls-2 {
        fill: #e94253;
      }

      .cls-3 {
        fill: #c12d50;
      }

      .cls-4 {
        fill: #ff6178;
      }

      .cls-5 {
        fill: #f9df4a;
      }

      .cls-6 {
        fill: #d1b737;
      }

      .cls-7 {
        fill: #c9b13d;
      }

      .cls-8 {
        fill: #af9835;
      }
    </style>
  </defs>
  <g>
    <path class="cls-1" d="M 79.25 47.43 C 83.42 47.29 87.73 48.81 91.54 53.43 C 91.715 53.65 91.684 53.968 91.47 54.15 C 91.347 54.242 91.191 54.278 91.04 54.25 C 89.285 53.894 87.507 53.657 85.72 53.54 C 78.115 52.969 70.5 54.516 63.72 58.01 C 62.8 58.49 61.89 59.01 60.97 59.6 C 60.54 59.87 60.12 60.16 59.69 60.45 C 60.493 59.404 60.9 58.107 60.84 56.79 C 60.84 56.79 69.68 47.75 79.25 47.43 Z"/>
    <path class="cls-2" d="M 85.72 53.57 C 85.72 53.57 89.9 56.29 89.54 59.27 C 89.499 59.588 89.208 59.811 88.89 59.77 C 88.81 59.762 88.731 59.738 88.66 59.7 C 87 58.69 82 56.3 72.6 56.84 C 69.629 57.006 66.674 57.393 63.76 58 C 70.54 54.506 78.155 52.959 85.76 53.53 L 85.72 53.57 Z"/>
    <path class="cls-1" d="M 72.6 56.84 C 72.88 56.84 88.47 58.12 87.6 67.97 C 87.4 70.38 84.27 66.08 77.01 62.81 C 71.984 60.559 66.515 59.472 61.01 59.63 C 61.93 59.05 62.84 58.52 63.76 58.04 C 66.673 57.42 69.628 57.019 72.6 56.84 Z"/>
    <path class="cls-2" d="M 77 62.81 C 77 62.81 83.07 69.69 81 72.81 C 80.829 73.062 80.59 73.26 80.31 73.38 C 79.494 73.754 78.526 73.458 78.06 72.69 C 76.806 70.671 75.205 68.89 73.33 67.43 C 70.526 65.287 67.368 63.653 64 62.6 C 62.35 62.05 60.658 61.639 58.94 61.37 C 59.229 61.097 59.494 60.8 59.73 60.48 L 61 59.63 C 66.505 59.472 71.974 60.559 77 62.81 Z"/>
    <path class="cls-2" d="M 77.77 43.79 C 78.47 44.4 79.88 45.89 79.25 47.43 C 69.68 47.75 60.88 56.82 60.88 56.82 C 60.81 55.816 60.464 54.85 59.88 54.03 C 59.96 53.9 64.19 47.26 70.29 44.5 C 72.377 43.504 74.707 43.133 77 43.43 C 77.285 43.468 77.55 43.594 77.76 43.79 L 77.77 43.79 Z"/>
    <path class="cls-1" d="M 73.37 67.46 C 73.37 67.46 77.19 71.38 73.65 77.2 C 73.158 77.973 72.014 77.924 71.591 77.112 C 71.539 77.014 71.502 76.909 71.48 76.8 C 70.779 74.204 69.661 71.738 68.17 69.5 C 67.158 66.992 65.75 64.662 64 62.6 C 67.384 63.657 70.556 65.303 73.37 67.46 Z"/>
    <path class="cls-1" d="M 70.34 44.5 C 64.24 47.26 60 53.9 59.93 54 C 59.679 53.634 59.387 53.299 59.06 53 C 61.96 46.53 65.72 43.37 68.41 41.86 C 68.41 41.86 70.2 42.99 70.34 44.51 L 70.34 44.5 Z"/>
    <path class="cls-2" d="M 69.7 39.29 C 70.226 39.587 70.41 40.256 70.11 40.78 C 69.995 40.981 69.82 41.142 69.61 41.24 C 69.24 41.41 68.84 41.61 68.41 41.85 C 65.72 43.36 62 46.52 59.06 53 C 58.016 52.009 56.724 51.318 55.32 51 C 55.32 51 57.32 43.07 62.78 37.74 C 63.13 37.4 63.5 37.06 63.89 36.74 C 64.249 36.443 64.755 36.399 65.16 36.63 L 69.7 39.29 Z"/>
    <path class="cls-2" d="M 68.17 69.49 C 68.988 71.399 69.225 73.507 68.85 75.55 C 68.627 76.509 67.668 77.105 66.71 76.88 C 66.56 76.843 66.415 76.785 66.28 76.71 C 64.082 75.476 62.156 73.809 60.62 71.81 C 58.903 69.606 57.478 67.189 56.38 64.62 C 56.02 63.77 55.84 63.25 55.84 63.25 L 55.84 63.19 C 57.003 62.82 58.069 62.195 58.96 61.36 C 60.671 61.633 62.357 62.048 64 62.6 C 65.749 64.659 67.157 66.985 68.17 69.49 Z"/>
    <path class="cls-3" d="M 56.15 39.13 C 56.84 37.63 57.48 36.37 57.89 35.58 C 58.061 35.277 58.443 35.165 58.75 35.33 C 58.824 35.369 58.889 35.424 58.94 35.49 C 59.895 36.696 61.263 37.505 62.78 37.76 C 57.31 43.09 55.32 51 55.32 51 C 54.462 50.801 53.58 50.72 52.7 50.76 C 52.711 49.372 52.916 47.991 53.31 46.66 C 54.039 44.067 54.99 41.541 56.15 39.11 L 56.15 39.13 Z"/>
    <path class="cls-1" d="M 60.62 71.82 C 60.62 71.96 61.99 77.02 58.34 79.71 C 58.043 79.93 57.637 79.93 57.34 79.71 C 55.911 78.464 54.995 76.732 54.77 74.85 C 55.983 71.598 56.54 68.138 56.41 64.67 C 57.508 67.239 58.933 69.656 60.65 71.86 L 60.62 71.82 Z"/>
    <path class="cls-2" d="M 56.06 30.84 C 56.478 31.219 56.699 31.768 56.66 32.33 L 56.15 39.13 C 54.99 41.561 54.039 44.087 53.31 46.68 C 53.45 41.82 51.15 35.58 50.13 33.07 C 53.64 33 54.87 29.75 56.06 30.84 Z"/>
    <path class="cls-2" d="M 56.38 64.63 C 56.51 68.098 55.953 71.558 54.74 74.81 C 54.035 76.637 52.978 78.309 51.63 79.73 C 51.274 80.087 50.696 80.087 50.34 79.73 C 48.886 78.502 48.158 76.617 48.41 74.73 C 50.135 72.991 51.169 70.685 51.32 68.24 C 51.5 66.06 51.8 64.62 52.69 63.65 C 52.92 63.65 53.15 63.65 53.38 63.65 C 54.213 63.611 55.037 63.459 55.83 63.2 L 55.83 63.26 C 55.83 63.26 56.01 63.78 56.37 64.63 L 56.38 64.63 Z"/>
    <path class="cls-1" d="M 50.13 33.07 C 51.13 35.58 53.45 41.82 53.31 46.68 C 52.916 48.011 52.711 49.392 52.7 50.78 C 52.321 50.798 51.943 50.841 51.57 50.91 C 51.57 50.91 48.43 38.55 42 34.23 C 42 34.16 43.2 32.7 46.22 32.93 C 47.054 32.985 47.889 32.834 48.65 32.49 C 49.2 32.25 49.84 32.495 50.09 33.04 L 50.13 33.07 Z"/>
    <path class="cls-1" d="M 45.46 61.5 C 46.109 61.424 46.767 61.517 47.37 61.77 C 48.874 62.985 50.747 63.651 52.68 63.66 C 51.79 64.66 51.49 66.07 51.31 68.25 C 51.159 70.695 50.125 73.001 48.4 74.74 C 46.907 76.251 45.006 77.293 42.93 77.74 C 42.728 77.782 42.525 77.678 42.44 77.49 C 40.34 72.79 40.71 69.11 41.77 66.49 C 42.534 64.528 43.808 62.806 45.46 61.5 Z"/>
    <path class="cls-2" d="M 42 34.23 C 48.4 38.55 51.54 50.91 51.54 50.91 C 50.182 51.126 48.897 51.664 47.79 52.48 C 46.423 50.004 44.872 47.634 43.15 45.39 C 40.84 42.39 37.87 39.29 34.71 37.85 C 34.198 37.638 33.956 37.051 34.17 36.54 C 34.839 34.882 36.264 33.647 38 33.22 C 38.887 33.001 39.822 33.093 40.65 33.48 C 41.117 33.698 41.568 33.949 42 34.23 Z"/>
    <path class="cls-1" d="M 47.37 61.77 C 46.767 61.517 46.109 61.424 45.46 61.5 C 44 61.59 41.72 62.29 38.78 64.88 C 35.36 67.88 33.42 69.98 31.84 71.11 C 31.256 71.589 30.573 71.93 29.84 72.11 C 29.06 72.25 28.311 71.738 28.16 70.96 C 28.155 70.873 28.155 70.787 28.16 70.7 C 28.37 59.19 39.75 57.84 39.75 57.84 C 41.823 58.209 43.84 58.845 45.75 59.73 C 46.149 60.553 46.723 61.28 47.43 61.86 L 47.37 61.77 Z"/>
    <path class="cls-1" d="M 47.82 52.48 C 47.058 53.034 46.419 53.739 45.94 54.55 C 45.82 54.4 37.25 43.7 26.03 46.15 C 25.716 44.992 25.912 43.754 26.57 42.75 C 27.887 40.682 30.353 39.652 32.75 40.17 C 37.47 41.17 43.18 45.4 43.18 45.4 C 44.902 47.644 46.453 50.014 47.82 52.49 L 47.82 52.48 Z"/>
    <path class="cls-2" d="M 45.46 61.5 C 43.817 62.789 42.544 64.49 41.77 66.43 C 38.873 68.745 36.555 71.703 35 75.07 C 34.891 75.303 34.618 75.409 34.38 75.31 C 33.57 75 32 74 31.84 71.11 C 33.42 69.98 35.36 67.89 38.78 64.88 C 41.72 62.29 44 61.59 45.46 61.5 L 45.46 61.5 Z"/>
    <path class="cls-4" d="M 45.18 57.61 C 45.223 58.303 45.396 58.981 45.69 59.61 C 43.78 58.725 41.763 58.089 39.69 57.72 C 34.81 56.86 28.25 57.4 25.28 65.19 C 25.151 65.515 24.905 65.779 24.59 65.93 L 24.48 65.98 C 23.66 66.36 22.53 65.81 22.62 64.92 C 24 51.24 36.74 52.59 36.74 52.59 C 39.844 53.718 42.707 55.421 45.18 57.61 Z"/>
    <path class="cls-2" d="M 45.94 54.55 C 45.393 55.474 45.129 56.538 45.18 57.61 C 42.706 55.428 39.842 53.732 36.74 52.61 C 30.352 50.18 23.169 51.155 17.66 55.2 C 17.285 55.466 16.764 55.377 16.5 55 C 16.351 54.795 16.307 54.532 16.38 54.29 C 17.157 52.163 18.432 50.252 20.1 48.72 C 20.164 48.659 20.234 48.605 20.31 48.56 C 22.056 47.438 23.98 46.623 26 46.15 C 37.22 43.7 45.79 54.4 45.91 54.55 L 45.94 54.55 Z"/>
    <path class="cls-5" d="M 45.63 59.66 C 45.333 59.032 45.159 58.353 45.12 57.66 C 45.063 56.578 45.327 55.502 45.88 54.57 C 46.364 53.751 47.007 53.038 47.77 52.47 C 48.893 51.655 50.191 51.114 51.56 50.89 C 51.934 50.83 52.311 50.79 52.69 50.77 C 53.58 50.721 54.472 50.799 55.34 51 C 56.753 51.318 58.054 52.009 59.11 53 C 59.444 53.298 59.743 53.634 60 54 C 60.584 54.831 60.93 55.806 61 56.82 C 61.057 58.149 60.642 59.456 59.83 60.51 C 59.597 60.832 59.332 61.13 59.04 61.4 C 58.147 62.246 57.073 62.879 55.9 63.25 C 55.097 63.509 54.263 63.661 53.42 63.7 C 53.19 63.7 52.96 63.7 52.73 63.7 C 50.78 63.681 48.892 63.009 47.37 61.79 C 46.659 61.203 46.083 60.47 45.68 59.64 L 45.63 59.66 Z"/>
    <path class="cls-6" d="M 52 61.81 C 51.286 61.225 50.709 60.492 50.31 59.66 C 49.529 58.017 49.619 56.093 50.55 54.53 C 51.038 53.711 51.684 52.997 52.45 52.43 C 53.374 51.757 54.42 51.272 55.53 51 L 55.34 51 C 54.472 50.799 53.58 50.721 52.69 50.77 C 52.311 50.79 51.934 50.83 51.56 50.89 C 50.191 51.114 48.893 51.655 47.77 52.47 C 47.007 53.038 46.364 53.751 45.88 54.57 C 45.326 55.502 45.062 56.577 45.12 57.66 C 45.159 58.353 45.333 59.032 45.63 59.66 C 46.033 60.49 46.609 61.223 47.32 61.81 C 48.842 63.029 50.73 63.701 52.68 63.72 C 52.91 63.72 53.14 63.72 53.37 63.72 C 54.001 63.692 54.628 63.598 55.24 63.44 C 54.049 63.152 52.941 62.594 52 61.81 Z"/>
    <path class="cls-7" d="M 49.3 58.55 C 49.399 58.771 49.3 59.03 49.08 59.13 C 48.862 59.236 48.6 59.141 48.5 58.92 C 48.393 58.699 48.488 58.434 48.71 58.33 C 48.931 58.229 49.192 58.322 49.3 58.54 L 49.3 58.55 Z"/>
    <path class="cls-8" d="M 57.72 56.35 C 56.782 56.399 56.142 55.415 56.568 54.578 C 56.702 54.316 56.927 54.11 57.2 54 C 58.026 53.57 59.008 54.196 58.967 55.127 C 58.946 55.605 58.645 56.025 58.2 56.2 C 58.041 56.278 57.867 56.319 57.69 56.32 L 57.72 56.35 Z"/>
    <path class="cls-8" d="M 54.41 57.79 C 53.479 57.795 52.891 56.789 53.353 55.98 C 53.479 55.76 53.67 55.585 53.9 55.48 C 54.767 55.14 55.677 55.866 55.538 56.787 C 55.48 57.17 55.243 57.502 54.9 57.68 C 54.741 57.756 54.566 57.794 54.39 57.79 L 54.41 57.79 Z"/>
    <path class="cls-8" d="M 52.42 60.31 C 51.589 60.285 51.097 59.369 51.534 58.662 C 51.646 58.482 51.808 58.339 52 58.25 C 52.77 57.896 53.634 58.508 53.556 59.352 C 53.52 59.743 53.277 60.086 52.92 60.25 C 52.776 60.317 52.619 60.352 52.46 60.35 L 52.42 60.31 Z"/>
    <path class="cls-8" d="M 51.18 56.72 C 50.696 56.717 50.257 56.437 50.05 56 C 49.759 55.379 50.028 54.639 50.65 54.35 C 51.562 54.069 52.436 54.882 52.223 55.812 C 52.148 56.142 51.941 56.427 51.65 56.6 C 51.486 56.672 51.309 56.709 51.13 56.71 L 51.18 56.72 Z"/>
    <path class="cls-8" d="M 48.9 60 C 48.422 59.997 47.987 59.722 47.78 59.29 C 47.497 58.674 47.765 57.945 48.38 57.66 C 49.209 57.219 50.205 57.842 50.172 58.78 C 50.154 59.273 49.842 59.707 49.38 59.88 C 49.222 59.959 49.047 60.001 48.87 60 L 48.9 60 Z"/>
    <path class="cls-8" d="M 57.85 60 C 57.354 59.995 56.904 59.708 56.69 59.26 C 56.393 58.622 56.671 57.864 57.31 57.57 C 58.229 57.215 59.188 57.988 59.036 58.961 C 58.974 59.356 58.732 59.7 58.38 59.89 C 58.212 59.96 58.032 59.998 57.85 60 Z"/>
    <path class="cls-8" d="M 55 61.08 C 54.276 61.084 53.82 60.303 54.178 59.675 C 54.536 59.046 55.441 59.041 55.806 59.665 C 55.822 59.693 55.837 59.721 55.85 59.75 C 56.133 60.37 55.682 61.076 55 61.08 Z"/>
    <path class="cls-8" d="M 48.23 56.59 C 47.803 56.59 47.415 56.345 47.23 55.96 C 46.87 55.193 47.475 54.325 48.319 54.397 C 49.163 54.468 49.612 55.427 49.128 56.122 C 49.017 56.281 48.866 56.408 48.69 56.49 C 48.546 56.557 48.389 56.592 48.23 56.59 Z"/>
    <path class="cls-8" d="M 53.43 54.19 C 53 54.19 52.61 53.94 52.43 53.55 C 52.174 52.993 52.433 52.334 53 52.1 C 53.55 51.844 54.203 52.081 54.46 52.63 C 54.57 52.899 54.57 53.201 54.46 53.47 C 54.31 53.895 53.911 54.182 53.46 54.19 L 53.43 54.19 Z"/>
  </g>
</svg>