<?xml version="1.0" encoding="utf-8"?>
<!-- Generator: Adobe Illustrator 27.7.0, SVG Export Plug-In . SVG Version: 6.00 Build 0)  -->
<svg version="1.1" id="Layer_1" xmlns="http://www.w3.org/2000/svg" xmlns:xlink="http://www.w3.org/1999/xlink" x="0px" y="0px"
	 viewBox="0 0 108 108" style="enable-background:new 0 0 108 108;" xml:space="preserve">
<style type="text/css">
	.st0{fill:#3C6C2C;}
	.st1{fill:#005805;}
	.st2{fill:#226031;}
	.st3{fill:#236132;}
	.st4{fill:#105A56;}
	.st5{fill:#274D29;}
	.st6{fill:#0B632F;}
	.st7{fill:#266534;}
	.st8{fill:#4B5E28;}
	.st9{fill:#3E5C2A;}
	.st10{fill:#06642F;}
	.st11{fill:#006837;}
	.st12{fill:#11602E;}
	.st13{fill:#175944;}
	.st14{fill:#236232;}
	.st15{fill:#7A2674;}
	.st16{fill:#5D1353;}
	.st17{fill:#B02FA6;}
	.st18{fill:#6E2563;}
	.st19{fill:#913282;}
	.st20{fill:#861672;}
	.st21{fill:#913289;}
	.st22{fill:#9C388D;}
	.st23{fill:#A7258F;}
	.st24{fill:#AD3993;}
	.st25{fill:#A03D8B;}
	.st26{fill:#AD5197;}
	.st27{fill:#AE3C8E;}
	.st28{fill:#902E76;}
</style>
<g>
<polygon class="st0" points="39.7,63.8 48,95 50.2,95.7 41.7,63.9 "/>
<g>
	<path class="st1" d="M43.8,80.1c1.3-2.1,3-3.8,5.1-5c0,0,0.2,0.3,0.2,0.3c-1.4,1.6-2.4,3.6-2.9,5.7C46.3,81.1,43.8,80.1,43.8,80.1
		L43.8,80.1z"/>
</g>
<g>
	<path class="st2" d="M43.6,77.2c-0.2-2.5,2.4-3.5,4.1-4.5c0,0,0.4,0.6,0.4,0.6c-0.8,0.9-1.8,1.8-2.2,2.9c-0.1,0.3,0,0.5,0.1,0.4
		L43.6,77.2L43.6,77.2z"/>
</g>
<g>
	<path class="st3" d="M41.6,72c0-0.5,0.3-0.9,0.6-1.2c0.9-1,1.9-1.9,3.2-2.3c0,0,0.3,0.5,0.3,0.5c-0.7,0.9-1.3,2-1.9,3
		c-0.2,0.3-0.4,0.7-0.8,0.8L41.6,72L41.6,72z"/>
</g>
<g>
	<polygon class="st4" points="42,70 39.1,67.6 39.1,67.6 42.7,68.6 42,70 	"/>
</g>
<g>
	<path class="st1" d="M38,68.9c1.9,1.2,3.7,2.6,5.1,4.4c0,0-1.3,0.9-1.3,0.9c-1-1.8-2.4-3.5-4-4.9L38,68.9L38,68.9z"/>
</g>
<g>
	<path class="st5" d="M36.2,74.5c2.7,0.6,5.4,1.4,8,2.5l-0.8,1.4c-2.3-1.4-4.8-2.6-7.4-3.5L36.2,74.5L36.2,74.5z"/>
</g>
<g>
	<path class="st1" d="M49.5,71.3c-2.4,1.1-4.8,2.4-6.9,3.9l-0.9-1.3c2.5-1.3,5-2.2,7.6-3L49.5,71.3L49.5,71.3z"/>
</g>
<g>
	<path class="st6" d="M55.1,87.6c-2.4,1.1-4.8,2.4-6.9,3.9l-0.9-1.3c2.5-1.3,5-2.2,7.6-3L55.1,87.6L55.1,87.6z"/>
</g>
<g>
	<path class="st7" d="M54.3,90.6c-2.4,1.1-4.8,2.4-6.9,3.9l-0.9-1.3c2.5-1.3,5-2.2,7.6-3L54.3,90.6L54.3,90.6z"/>
</g>
<g>
	<path class="st1" d="M37.2,73.7c1.8,0.3,3.8,0.4,5.6,0.6c0.4,0.1,0.6,0,1,0.3c0,0-0.9,1.3-0.9,1.3c-0.1-0.1-0.9-0.4-1.2-0.5
		C40.6,75,37.9,74.2,37.2,73.7L37.2,73.7z"/>
</g>
<g>
	<path class="st8" d="M43.5,79.2c-1.5-1.1-3.2-2.1-5-2.7c0,0,0-0.2,0-0.2c2,0.2,3.8,0.8,5.7,1.5C44.3,77.8,43.5,79.2,43.5,79.2
		L43.5,79.2z"/>
</g>
<g>
	<path class="st1" d="M43.5,81.8c0,0.1,0,0.1,0,0.1c-0.1-0.4-0.6-0.6-1-0.8c-2-0.8-4.4-0.9-6.5-1.8c2.7,0.7,5.5-0.1,8.1,1.1
		c0.5,0.3,1.1,0.9,1,1.6C45,82.1,43.5,81.8,43.5,81.8L43.5,81.8z"/>
</g>
<g>
	<path class="st1" d="M55.5,81.9c-3.1,0.9-7.2,2.3-8.1,5.6c0,0-1.5-0.5-1.5-0.5c1.5-3.8,6-4.9,9.6-5.4
		C55.4,81.6,55.5,81.9,55.5,81.9L55.5,81.9z"/>
</g>
<g>
	<path class="st1" d="M55.8,84.6c-2.2,1.4-4.5,2.8-6.5,4.6c-0.4,0.4-1.1,1.2-1.1,1.7c0,0-1.6,0-1.6,0c0.1-1.2,1-1.9,1.9-2.6
		c2.2-1.7,4.7-2.8,7.1-4C55.6,84.3,55.8,84.6,55.8,84.6L55.8,84.6z"/>
</g>
<g>
	<path class="st9" d="M53.4,84.3c-2,1.3-4.2,2.5-5.7,4.3c-0.2,0.2-0.3,0.5-0.3,0.6l-1.2,0c0.2-1,0.8-1.5,1.5-2
		c1.7-1.3,3.7-2.2,5.5-3.1C53.2,84,53.4,84.3,53.4,84.3L53.4,84.3z"/>
</g>
<g>
	<path class="st1" d="M55.1,90.6c-2,1.3-4.2,2.5-5.7,4.3c-0.2,0.2-0.3,0.5-0.3,0.6l-1.2,0c0.2-1,0.8-1.5,1.5-2
		c1.7-1.3,3.7-2.2,5.5-3.1C54.9,90.4,55.1,90.6,55.1,90.6L55.1,90.6z"/>
</g>
<g>
	<path class="st10" d="M37.2,89.9c3.6,0.3,7.3-0.1,10.6,1.6c0,0-0.8,1-0.8,1c-2.9-1.6-6.6-1.7-9.9-2.3
		C37.2,90.2,37.2,89.9,37.2,89.9L37.2,89.9z"/>
</g>
<g>
	<path class="st1" d="M37,85.1c3.6,0.3,7.3-0.1,10.6,1.6c0,0-0.8,1-0.8,1C44,86,40.2,85.9,37,85.4C37,85.4,37,85.1,37,85.1L37,85.1z
		"/>
</g>
<g>
	<path class="st1" d="M37.6,88.5c3.6,0.3,7.3-0.1,10.6,1.6c0,0-0.8,1-0.8,1c-2.9-1.6-6.6-1.7-9.9-2.3C37.6,88.8,37.6,88.5,37.6,88.5
		L37.6,88.5z"/>
</g>
<g>
	<path class="st11" d="M37.7,82.3c2.2-0.5,9.2-0.7,8.9,2.7c-0.5,0.2-1.8,0.8-2.3,0.7c-2.1-1.2-4.3-1.9-6.6-2.9
		C37.7,82.7,37.7,82.3,37.7,82.3L37.7,82.3z"/>
</g>
<g>
	<path class="st1" d="M38.6,85.7c2.8,0.3,5.6,0.4,8,2.2c0,0-1.2,1-1.2,1C43.7,87.2,40.9,86.5,38.6,85.7L38.6,85.7z"/>
</g>
<g>
	<path class="st12" d="M41,92c2.6-0.1,5.8-1,7.7,1.3c0,0-1.4,0.8-1.4,0.8c-0.4-0.9-1.7-1.3-2.7-1.5C43.5,92.3,42.1,92.4,41,92L41,92
		z"/>
</g>
<g>
	<path class="st13" d="M59.6,91.6c-2.9,0.8-5.9,1.7-8.5,3.3c-0.8,0.5-1.6,1.2-1.7,1.8l-1.5-0.5c0.2-0.3,0.3-0.6,0.6-0.8
		C51.4,92.7,55.8,92.3,59.6,91.6L59.6,91.6z"/>
</g>
<g>
	<path class="st1" d="M35.9,94.9c4-0.8,8.3-1.9,12.3-0.4c0,0-0.7,1.2-0.7,1.2C44.1,94,39.7,94.6,35.9,94.9L35.9,94.9z"/>
</g>
<g>
	<path class="st1" d="M34,82.2c4-0.8,8.3-1.9,12.3-0.4c0,0-0.7,1.2-0.7,1.2C42.1,81.3,37.8,81.9,34,82.2L34,82.2z"/>
</g>
<g>
	<path class="st1" d="M34.8,79.6c4-0.8,8.3-1.9,12.3-0.4c0,0-0.7,1.2-0.7,1.2C42.9,78.7,38.6,79.3,34.8,79.6L34.8,79.6z"/>
</g>
<g>
	<path class="st1" d="M55.3,89c-2.5,1.1-5.1,2.1-7.3,3.6c-0.2,0.2-0.4,0.3-0.6,0.5l-1.4-0.8c0.3-0.4,0.8-0.7,1.2-1
		C49.9,90.3,52.6,89.6,55.3,89L55.3,89z"/>
</g>
<g>
	<path class="st14" d="M45.2,83.6c0-1.2,0.7-2.2,1.4-3c2.1-2.6,5-4.3,8.1-5.2c0,0,0.2,0.5,0.2,0.5c-1.7,1.2-3.4,2.4-4.7,3.8
		c-1.6,1.4-2.1,3.3-3.6,4.6C46.6,84.2,45.2,83.6,45.2,83.6L45.2,83.6z"/>
</g>
<path class="st15" d="M32.4,32.6l-2.1,2l-1.1,2.3c0,0-0.9,0.9-0.9,2.2c0,1.3-0.2,3.8-0.3,4.2c-0.1,0.4-0.3-1.4,0.8,2.3
	c1,3.8,1,3.1,1.4,4.4s0.3,0.7,0.6,1.9c0.3,1.2,1.4,3.9,1.5,4.3c0,0.4,1.7,2.8,1.8,3.5c0.1,0.7-0.1,1.4,0.1,2.3s2.5,3.6,2.6,3.9
	c0.1,0.2,0.9,1.3,1.5,1.4s1.5,1.3,1.8,1.8c0.3,0.5,1.3,0.6,1.6,0.6c0.4,0,0.9-2.1,1-2.9s0.1-4,0.8-6.2s-0.3-3-0.4-4.5
	c-0.1-1.5,0.7-2.2,0.3-3.7c-0.4-1.5-1.3-4.1-1.7-5s-0.8-2.1-1.2-3.7c-0.4-1.6-0.2-1.4-1-2.9s-1.7-2.9-2-3.6s-0.6-1.3-1.1-2.4
	S34.5,32.4,32.4,32.6z"/>
<path class="st16" d="M42.6,58.9c0,0-0.3,2.6-0.6,3.2s-1.7,2-1.7,2s-0.7-0.7-1.5-0.8c-0.8-0.1-1-0.4-1.4-0.4c-0.4,0-1.2,0.4-1.4,0.5
	S34.9,64,34.9,64s0.6,1.4,0.8,2.2s0.7,2.5,1.6,1.8s2.8,1,2.8,1s0.4,1.8,0.7,1.8c0.4,0,0.7,0.6,1.3,0.4c0.6-0.2,0.7-0.9,1-2.1
	c0.3-1.2,0.9-2.6,1-3.7s-0.1-1.8-0.3-3.4c-0.2-1.5,0.8-2.5,0.8-2.5L42.6,58.9z"/>
<path class="st17" d="M36.4,41.6c0,0,1.1,2.8,1.2,3.5c0.1,0.7-2.4,3.4-2.4,3.4s0.1,2,0.7,2.1c0.6,0.1,1.6,2.2,1.6,2.2l0.4,1.2
	l-1.2,2.1c0,0-0.1,0.3,0.3,1c0.5,0.7,1.6,1.5,1.6,1.5s0.2-0.7,0.6-1.7c0.4-1,1.2-1.7,1.1-3.7c-0.1-2-0.5-2-0.2-3.2
	c0.3-1.1,1.1-1.5,0.3-2.3c-0.8-0.8-0.6,0.6-1.4-1.5c-0.7-2.1-0.6-1.5-0.7-2.1C38.3,43.6,36.4,41.6,36.4,41.6z"/>
<path class="st17" d="M33.3,36.2c0,0-1.5,0.8-1.8,1.3c-0.4,0.5-1.3,3-1.3,3l1.6,1.2c0,0,2.4,2,2.2,0.7c-0.1-1.3-0.3-2.9-0.3-2.9
	l-0.2-1.2L33.3,36.2z"/>
<polygon class="st0" points="51.7,56.7 49,95.9 47.3,96.5 50,56.5 "/>
<g>
	<path class="st1" d="M48.9,76.9c-0.7-2.6-1.8-5.2-3.3-7.5c0,0,0.3-0.3,0.3-0.3c2.2,1.9,4,4.2,5.5,6.7
		C51.3,75.9,48.9,76.9,48.9,76.9L48.9,76.9z"/>
</g>
<g>
	<path class="st2" d="M48.4,72c0.1-1.8-1.4-3.4-2.4-4.9c0,0,0.5-0.5,0.5-0.5c1.8,1.5,4,2.9,4.3,5.5C51,72,48.4,72,48.4,72L48.4,72z"
		/>
</g>
<g>
	<path class="st3" d="M50.3,67.2c-0.8-0.5-1.1-1.7-1.5-2.5c-0.4-0.9-0.9-1.7-1.4-2.6l0.4-0.4c1.4,0.8,2.4,2,3.3,3.3
		c0.3,0.4,0.6,0.9,0.6,1.4L50.3,67.2L50.3,67.2z"/>
</g>
<g>
	<polygon class="st4" points="50,62.3 52.9,61.4 53,61.4 50.8,63.7 50,62.3 	"/>
</g>
<g>
	<path class="st1" d="M54.4,63.5c-1.2,1.6-2.1,3.4-2.5,5.2l-1.5-0.5c0.9-1.9,2.2-3.6,3.7-5C54.1,63.2,54.4,63.5,54.4,63.5L54.4,63.5
		z"/>
</g>
<g>
	<path class="st5" d="M56.8,70.6c-2.1,0.7-4.1,1.7-5.7,3.1l-0.9-1.3c2.1-1.1,4.3-1.8,6.5-2.1L56.8,70.6L56.8,70.6z"/>
</g>
<g>
	<path class="st1" d="M44.8,64.1c2.6,1.4,5,3,7.3,4.8L51,70.1c-1.9-2.1-4.1-3.9-6.4-5.6L44.8,64.1L44.8,64.1z"/>
</g>
<g>
	<path class="st6" d="M42.9,83.2c2.6,1.4,5,3,7.3,4.8L49,89.2c-1.9-2.1-4.1-3.9-6.4-5.6L42.9,83.2L42.9,83.2z"/>
</g>
<g>
	<path class="st7" d="M44.1,87c2.6,1.4,5,3,7.3,4.8L50.2,93c-1.9-2.1-4.1-3.9-6.4-5.6L44.1,87L44.1,87z"/>
</g>
<g>
	<path class="st1" d="M55.7,69.2c-1.2,0.5-3.7,1.2-4.4,1.6c0,0-1.1-1.1-1.1-1.1c0.7-0.5,1-0.3,1.7-0.4
		C53.1,69.2,54.4,69.3,55.7,69.2C55.7,69.2,55.7,69.2,55.7,69.2L55.7,69.2z"/>
</g>
<g>
	<path class="st8" d="M50.2,73.4c1.5-0.7,3-1.2,4.7-1.2c0,0,0,0.2,0,0.2c-1.4,0.5-2.7,1.4-3.8,2.4C51.2,74.7,50.2,73.4,50.2,73.4
		L50.2,73.4z"/>
</g>
<g>
	<path class="st1" d="M50.3,78.5c-0.1-3.9,5.2-1.6,7.4-2.3c-1.7,0.8-3.8,0.5-5.4,1.2c-0.3,0.2-0.5,0.3-0.5,0.6c0,0,0,0.2,0,0.1
		L50.3,78.5L50.3,78.5z"/>
</g>
<g>
	<path class="st1" d="M41.4,76.3c3.8,1.4,7.6,3.9,9.3,7.9c0,0-1.5,0.5-1.5,0.5c-1.1-3.8-4.4-6.4-7.9-8.1
		C41.3,76.6,41.4,76.3,41.4,76.3L41.4,76.3z"/>
</g>
<g>
	<path class="st1" d="M41.8,79.5c2.4,1.9,5,3.8,7.1,6.1c0.8,0.9,1.5,1.7,1.8,2.9c0,0-1.6,0.2-1.6,0.2c-0.1-0.7-0.7-1.6-1.2-2.4
		c-1.8-2.4-4.1-4.5-6.4-6.7C41.5,79.8,41.8,79.5,41.8,79.5L41.8,79.5z"/>
</g>
<g>
	<path class="st9" d="M43.7,79.5c1.9,1.5,3.9,3,5.5,4.8c0.5,0.6,1.1,1.2,1.4,2.3l-1.2,0.2c-1-2.8-3.8-4.9-5.9-7
		C43.5,79.7,43.7,79.5,43.7,79.5L43.7,79.5z"/>
</g>
<g>
	<path class="st1" d="M43.4,87c1.9,1.5,3.9,3,5.5,4.8c0.5,0.6,1.1,1.2,1.4,2.3l-1.2,0.2c-1-2.8-3.8-4.9-5.9-7
		C43.2,87.3,43.4,87,43.4,87L43.4,87z"/>
</g>
<g>
	<path class="st10" d="M58.5,89.3c-2.2,0-4.3,0-6.4,0.5c-0.6,0.1-1.4,0.4-1.6,0.7l-1-0.8c0.7-0.7,1.5-0.8,2.4-0.9
		c2.2-0.2,4.4,0,6.6,0.2C58.5,89,58.5,89.3,58.5,89.3L58.5,89.3z"/>
</g>
<g>
	<path class="st1" d="M57.9,83.4c-2.2,0-4.3,0-6.4,0.5c-0.6,0.1-1.4,0.4-1.6,0.7l-1-0.8c0.7-0.7,1.5-0.8,2.4-0.9
		c2.2-0.2,4.4,0,6.6,0.2C57.9,83.1,57.9,83.4,57.9,83.4L57.9,83.4z"/>
</g>
<g>
	<path class="st1" d="M57.9,87.5c-2.2,0-4.3,0-6.4,0.5c-0.6,0.1-1.4,0.4-1.6,0.7l-1-0.8c0.7-0.7,1.5-0.8,2.4-0.9
		c2.2-0.2,4.4,0,6.6,0.2C57.9,87.3,57.9,87.5,57.9,87.5L57.9,87.5z"/>
</g>
<g>
	<path class="st11" d="M56.8,80c-1.8,0.8-3.6,1.2-5,2.2c-0.2-0.1-0.3-0.1-0.7-0.1l-1.6-0.2c-0.3-0.5-0.2-1.2,0.1-1.7
		c1.8-1.9,5-1.5,7.2-0.6C56.8,79.6,56.8,80,56.8,80L56.8,80z"/>
</g>
<g>
	<path class="st1" d="M56.5,83.6c-1.7,0.4-4.3,1.1-5.2,2.6c0,0-1.4-0.7-1.4-0.7c0.5-0.7,1.1-1,1.7-1.2
		C53.2,83.7,54.9,83.6,56.5,83.6L56.5,83.6z"/>
</g>
<g>
	<path class="st12" d="M55.6,91.1c-1.5,0.1-3.2-0.2-4.5,0.5c-0.3,0.2-0.5,0.5-0.5,0.8L49.1,92c0.3-0.7,0.9-1.3,1.6-1.5
		C52.4,90,54.1,90.6,55.6,91.1L55.6,91.1z"/>
</g>
<g>
	<path class="st13" d="M39.6,87.9c4,1.6,8.8,3.2,11,7.2c0,0-1.5,0.6-1.5,0.6C47.4,92,43,89.8,39.6,87.9L39.6,87.9z"/>
</g>
<g>
	<path class="st1" d="M60.5,95.2c-2.5-0.8-5.1-1.5-7.7-1.4c-0.8,0-1.7,0.2-2.2,0.6l-0.8-1.2c1-0.6,2.1-0.6,3-0.5
		C55.5,93,58.1,94.1,60.5,95.2L60.5,95.2z"/>
</g>
<g>
	<path class="st1" d="M59.9,80c-2.5-0.8-5.1-1.5-7.7-1.4c-0.8,0-1.7,0.2-2.2,0.6L49.2,78c1-0.6,2.1-0.6,3-0.5
		C54.9,77.8,57.5,78.8,59.9,80L59.9,80z"/>
</g>
<g>
	<path class="st1" d="M58.8,76.6c-2.5-0.8-5.1-1.5-7.7-1.4c-0.8,0-1.7,0.2-2.2,0.6l-0.8-1.2c1-0.6,2.1-0.6,3-0.5
		C53.8,74.5,56.3,75.5,58.8,76.6L58.8,76.6z"/>
</g>
<g>
	<path class="st1" d="M42.8,85.3c2.3,1.1,4.5,2.2,6.6,3.6c0.8,0.6,1.5,1,2.1,1.9c0,0-1.4,0.7-1.4,0.7C48.3,88.9,45.3,87.2,42.8,85.3
		L42.8,85.3z"/>
</g>
<g>
	<path class="st14" d="M49.2,80.7c-1-0.9-1.4-2-1.9-3c-1.7-3.2-4.1-5.9-6.6-8.5c0,0,0.4-0.5,0.4-0.5c3.2,1.9,6.2,4.6,8.2,7.8
		c0.7,1.1,1.4,2.2,1.4,3.6L49.2,80.7L49.2,80.7z"/>
</g>
<polygon class="st0" points="64.7,51.9 55.3,94.2 56.9,95.7 66.4,52.8 "/>
<g>
	<path class="st1" d="M61.3,68.3c2.1-1.3,4.4-2.1,6.8-2.3c0,0,0.1,0.4,0.1,0.4c-2,0.8-3.8,2.2-5.1,3.8
		C63.1,70.3,61.3,68.3,61.3,68.3L61.3,68.3z"/>
</g>
<g>
	<path class="st2" d="M62.3,65.6c0.9-2.4,3.6-2.1,5.6-2.2c0,0,0.1,0.7,0.1,0.7c-1.1,0.4-2.4,0.8-3.2,1.6c-0.2,0.2-0.2,0.4-0.1,0.4
		L62.3,65.6L62.3,65.6z"/>
</g>
<g>
	<path class="st3" d="M62.8,60.1c0.2-0.5,0.6-0.7,1-0.8c1.2-0.5,2.5-0.9,3.9-0.7c0,0,0.1,0.6,0.1,0.6c-1,0.5-2.1,1.2-3,1.8
		c-0.3,0.2-0.6,0.4-1.1,0.4L62.8,60.1L62.8,60.1z"/>
</g>
<g>
	<polygon class="st4" points="64.1,58.4 62.4,55 62.5,55 65.3,57.4 64.1,58.4 	"/>
</g>
<g>
	<path class="st1" d="M60.9,55.7c1.2,1.9,2.2,3.9,2.7,6.2c0,0-1.6,0.2-1.6,0.2c-0.1-2-0.7-4.2-1.5-6.2L60.9,55.7L60.9,55.7z"/>
</g>
<g>
	<path class="st5" d="M56.9,59.9c2.2,1.7,4.3,3.6,6.1,5.7l-1.3,0.9c-1.4-2.3-3.2-4.4-5.1-6.4L56.9,59.9L56.9,59.9z"/>
</g>
<g>
	<path class="st1" d="M70.2,62.9c-2.7-0.1-5.4,0-7.9,0.5l-0.2-1.6c2.8-0.1,5.5,0.1,8.2,0.6L70.2,62.9L70.2,62.9z"/>
</g>
<g>
	<path class="st6" d="M68.2,79.9c-2.7-0.1-5.4,0-7.9,0.5l-0.2-1.6c2.8-0.1,5.5,0.1,8.2,0.6L68.2,79.9L68.2,79.9z"/>
</g>
<g>
	<path class="st7" d="M66.2,82.4c-2.7-0.1-5.4,0-7.9,0.5l-0.2-1.6c2.8-0.1,5.5,0.1,8.2,0.6L66.2,82.4L66.2,82.4z"/>
</g>
<g>
	<path class="st1" d="M58.1,59.7c1.5,1,3.2,2,4.7,3c0.3,0.2,0.5,0.3,0.8,0.7c0,0-1.4,0.8-1.4,0.8c0-0.2-0.7-0.8-0.8-1
		C60.6,62.3,58.5,60.5,58.1,59.7L58.1,59.7z"/>
</g>
<g>
	<path class="st8" d="M61.4,67.4c-0.9-1.6-2-3.2-3.3-4.6c0,0,0.1-0.1,0.1-0.1c1.7,1,3.1,2.3,4.5,3.8C62.7,66.5,61.4,67.4,61.4,67.4
		L61.4,67.4z"/>
</g>
<g>
	<path class="st1" d="M60.2,69.7c-0.1,0.1-0.1,0.1,0,0.1c0.1-0.4-0.3-0.8-0.6-1.2c-1.5-1.6-3.6-2.7-5.1-4.4c2.1,1.8,5.1,2.3,6.8,4.5
		c0.3,0.5,0.6,1.3,0.1,1.9C61.5,70.7,60.2,69.7,60.2,69.7L60.2,69.7z"/>
</g>
<g>
	<path class="st1" d="M71,75c-3.2-0.5-7.5-1.1-9.8,1.5c0,0-1.2-1.1-1.2-1.1c0.8-0.7,1.7-1.2,2.7-1.5c2.8-0.7,5.7,0,8.3,0.7
		C71.1,74.7,71,75,71,75L71,75z"/>
</g>
<g>
	<path class="st1" d="M70.1,77.6c-2.6,0.3-5.3,0.6-7.8,1.4c-0.6,0.2-1.5,0.6-1.7,1c0,0-1.4-0.7-1.4-0.7c0.6-1,1.8-1.3,2.8-1.5
		c2.7-0.5,5.4-0.5,8.1-0.5C70.1,77.2,70.1,77.6,70.1,77.6L70.1,77.6z"/>
</g>
<g>
	<path class="st9" d="M68.1,76.2c-2.4,0.3-4.8,0.4-7,1.4c-0.3,0.1-0.4,0.3-0.5,0.4l-1.1-0.6c0.6-0.9,1.4-1,2.2-1.2
		c2.1-0.4,4.2-0.4,6.3-0.4C68.1,75.9,68.1,76.2,68.1,76.2L68.1,76.2z"/>
</g>
<g>
	<path class="st1" d="M66.9,82.7c-2.4,0.3-4.8,0.4-7,1.4c-0.3,0.1-0.4,0.3-0.5,0.4L58.3,84c0.6-0.9,1.4-1,2.2-1.2
		c2.1-0.4,4.2-0.4,6.3-0.4C66.9,82.4,66.9,82.7,66.9,82.7L66.9,82.7z"/>
</g>
<g>
	<path class="st10" d="M51.1,74.3c3.1,1.8,6.6,3.1,8.9,6c0,0-1.1,0.5-1.1,0.5c-1.9-2.7-5.2-4.4-7.9-6.3
		C50.9,74.5,51.1,74.3,51.1,74.3L51.1,74.3z"/>
</g>
<g>
	<path class="st1" d="M53,69.8c3.1,1.8,6.6,3.1,8.9,6c0,0-1.1,0.5-1.1,0.5c-1.9-2.7-5.2-4.4-7.9-6.3C52.8,70.1,53,69.8,53,69.8
		L53,69.8z"/>
</g>
<g>
	<path class="st1" d="M52.1,73.2c3.1,1.8,6.6,3.1,8.9,6c0,0-1.1,0.5-1.1,0.5c-1.9-2.7-5.2-4.4-7.9-6.3
		C51.9,73.5,52.1,73.2,52.1,73.2L52.1,73.2z"/>
</g>
<g>
	<path class="st11" d="M54.8,67.6c2.2,0.5,8.6,3.3,6.8,6.3c-0.6-0.1-1.9-0.1-2.4-0.4c-1.4-2-3.1-3.6-4.7-5.5
		C54.6,68,54.8,67.6,54.8,67.6L54.8,67.6z"/>
</g>
<g>
	<path class="st1" d="M54.2,71.1c2.3,1.5,4.9,2.9,6.3,5.4c0,0-1.5,0.4-1.5,0.4C58.1,74.7,55.9,72.8,54.2,71.1L54.2,71.1z"/>
</g>
<g>
	<path class="st12" d="M53.6,77.9c2.4,1.1,5.6,1.6,6.4,4.6c0,0-1.6,0.1-1.6,0.1c0.1-1-1-1.9-1.7-2.5C55.7,79.2,54.4,78.6,53.6,77.9
		L53.6,77.9z"/>
</g>
<g>
	<path class="st13" d="M70.5,85.6c-3-0.6-6.1-1-9.1-0.7c-0.9,0.1-1.9,0.4-2.4,0.9L58,84.6c0.3-0.2,0.6-0.4,0.9-0.5
		C62.7,82.9,66.8,84.5,70.5,85.6L70.5,85.6z"/>
</g>
<g>
	<path class="st1" d="M47.8,78.2c4,1,8.3,1.9,11.3,5c0,0-1.1,0.8-1.1,0.8C55.5,81,51.3,79.6,47.8,78.2L47.8,78.2z"/>
</g>
<g>
	<path class="st1" d="M51.5,65.9c4,1,8.3,1.9,11.3,5c0,0-1.1,0.8-1.1,0.8C59.2,68.7,55.1,67.3,51.5,65.9L51.5,65.9z"/>
</g>
<g>
	<path class="st1" d="M53.4,63.9c4,1,8.3,1.9,11.3,5c0,0-1.1,0.8-1.1,0.8C61.1,66.7,56.9,65.3,53.4,63.9L53.4,63.9z"/>
</g>
<g>
	<path class="st1" d="M67.8,81.3c-2.7-0.1-5.5-0.3-8.1,0.1c-0.3,0.1-0.5,0.1-0.7,0.2L58,80.3c0.5-0.3,1-0.3,1.5-0.3
		C62.3,80.1,65.1,80.7,67.8,81.3L67.8,81.3z"/>
</g>
<g>
	<path class="st14" d="M61,72.1c0.5-1.1,1.5-1.7,2.5-2.1c3-1.4,6.4-1.6,9.6-1.2c0,0,0,0.6,0,0.6c-2.1,0.3-4.1,0.7-5.9,1.4
		c-2.1,0.6-3.3,2.1-5.2,2.6C62,73.3,61,72.1,61,72.1L61,72.1z"/>
</g>
<path class="st18" d="M74.1,16.1l2.4,2.1l1.4,2.4c0,0,1,1,1.1,2.3c0.1,1.3,0.3,3.8,0.4,4.3c0.1,0.4,0.2-1.5-0.8,2.3
	c-1,3.8-1,3.1-1.4,4.4c-0.4,1.3-0.3,0.7-0.6,1.9c-0.3,1.2-1.5,3.9-1.5,4.3s-1.7,2.8-1.9,3.5s0.1,1.5-0.1,2.3
	c-0.2,0.8-2.6,3.6-2.7,3.9c-0.1,0.2-1,1.3-1.6,1.4c-0.6,0.1-1.6,1.2-2,1.8s-1.4,0.6-1.8,0.5c-0.4,0-1-2.2-1.3-3s-0.2-4.1-1.1-6.3
	c-0.9-2.2,0.2-3,0.3-4.5s-0.9-2.2-0.5-3.8c0.4-1.5,1.3-4.2,1.7-5.1c0.4-0.9,0.8-2.1,1.2-3.7c0.4-1.6,0.1-1.4,1-2.9s1.8-2.9,2.1-3.6
	c0.4-0.7,0.6-1.3,1.1-2.4C70.2,17,71.7,15.8,74.1,16.1z"/>
<path class="st19" d="M63.7,42.6c0,0,0.5,2.6,0.8,3.3c0.3,0.6,2,2.1,2,2.1s0.8-0.6,1.6-0.7c0.8-0.1,1.1-0.4,1.5-0.4
	c0.4,0,1.3,0.4,1.6,0.5c0.2,0.1,1.3,0.7,1.3,0.7s-0.6,1.4-0.8,2.2c-0.2,0.8-0.6,2.6-1.7,1.7s-3,1-3,1s-0.3,1.8-0.8,1.8
	c-0.4,0-0.8,0.6-1.4,0.3c-0.7-0.2-0.8-0.9-1.2-2.1s-1.1-2.6-1.2-3.8s0.1-1.8,0.2-3.4s-1-2.5-1-2.5L63.7,42.6z"/>
<path class="st17" d="M70,25.2c0,0-1.1,2.8-1.2,3.5s2.8,3.6,2.8,3.6s-0.1,2-0.7,2.1c-0.6,0.1-1.7,2.2-1.7,2.2l-0.4,1.2l1.4,2.1
	c0,0,0.2,0.3-0.3,1c-0.5,0.7-1.7,1.5-1.7,1.5s-0.3-0.7-0.8-1.8s-1.4-1.8-1.4-3.8c0.1-2,0.5-2,0.1-3.2c-0.4-1.2-1.2-1.5-0.4-2.3
	c0.8-0.8,0.7,0.6,1.5-1.5c0.7-2.1,0.6-1.5,0.7-2.1S70,25.2,70,25.2z"/>
<path class="st17" d="M73.3,19.8c0,0,1.7,0.9,2.1,1.4c0.5,0.5,1.6,3.1,1.6,3.1l-1.8,1.2c0,0-2.6,2-2.4,0.6s0.3-3,0.3-3l0.1-1.2
	L73.3,19.8z"/>
<path class="st15" d="M48.9,13.1l-2.7,2.1l-1.7,2.9c0,0-1.2,1-1.4,2.8s-0.8,5.2-1,5.7c-0.2,0.6,0-2.1,0.5,3.5s0.6,4.7,0.8,6.6
	s0.2,1,0.3,2.8c0.1,1.7,0.9,5.8,0.9,6.4c-0.1,0.5,1.4,4.4,1.4,5.4c0,1.1-0.3,2-0.2,3.2c0.1,1.2,2.1,5.9,2.2,6.2
	c0,0.3,0.8,2.2,1.4,2.4s1.5,2.3,1.7,3.1c0.2,0.8,1.3,1.2,1.7,1.3c0.4,0.1,1.3-2.6,1.7-3.7c0.4-1.1,0.8-5.6,2-8.4s0.2-4.2,0.3-6.4
	c0.1-2.1,1.2-2.8,1-5.1c-0.2-2.3-0.7-6.2-1-7.6c-0.3-1.4-0.5-3.1-0.7-5.5c-0.2-2.3,0.1-2-0.6-4.4s-1.4-4.5-1.6-5.6
	c-0.3-1.1-0.4-2-0.8-3.7C52.7,15.6,51.3,13.5,48.9,13.1z"/>
<path class="st16" d="M55.7,53c0,0-0.8,3.5-1.2,4.2c-0.4,0.8-2.3,2.2-2.3,2.2s-0.7-1.1-1.5-1.6c-0.8-0.4-1-0.9-1.4-1
	c-0.4-0.1-1.4,0.2-1.7,0.2s-1.4,0.5-1.4,0.5s0.4,2.1,0.5,3.4c0.1,1.2,0.3,3.7,1.5,3c1.2-0.8,2.9,2.3,2.9,2.3s0.1,2.6,0.5,2.8
	c0.4,0.2,0.7,1,1.4,0.9c0.7-0.1,0.9-1,1.4-2.6c0.5-1.6,1.4-3.3,1.7-4.9s0.2-2.6,0.3-4.8c0.1-2.2,1.4-3.2,1.4-3.2L55.7,53z"/>
<path class="st20" d="M51.7,27c0,0,0.7,4.2,0.7,5.3c0,1.1-3.3,4-3.3,4S49,39,49.6,39.4C50.3,39.7,51,43,51,43l0.2,1.7l-1.7,2.5
	c0,0-0.2,0.3,0.2,1.5c0.4,1.2,1.5,2.6,1.5,2.6s0.4-0.9,1-2.2c0.6-1.3,1.7-2,1.9-4.8c0.2-2.8-0.2-3,0.4-4.4c0.6-1.5,1.5-1.7,0.7-3
	c-0.7-1.4-0.8,0.6-1.3-2.5s-0.4-2.2-0.4-3.1C53.6,30.3,51.7,27,51.7,27z"/>
<path class="st17" d="M49.2,18.4c0,0-1.8,0.7-2.3,1.2c-0.5,0.6-2,3.8-2,3.8l1.6,2.2c0,0,2.3,3.5,2.4,1.7c0.1-1.8,0.1-4.2,0.1-4.2
	l0-1.7L49.2,18.4z"/>
<polygon class="st0" points="30.4,54.6 48.3,95.2 47.3,96.8 29.1,55.4 "/>
<g>
	<path class="st1" d="M36.3,76.9c-1.4-2-3-4-5.1-5.4c0,0,0.2-0.4,0.2-0.4c1.3,0.4,2.5,1,3.6,1.7c1.2,0.7,2.2,1.5,3.3,2.4
		C38.3,75.2,36.3,76.9,36.3,76.9L36.3,76.9z"/>
</g>
<g>
	<path class="st2" d="M34,72.1c0-0.6-0.5-1.3-1.2-1.8c-0.7-0.6-1.5-1.1-2.3-1.6l0.3-0.7c2,0.5,4.4,1.2,5.5,3.3
		C36.4,71.2,34,72.1,34,72.1L34,72.1z"/>
</g>
<g>
	<path class="st3" d="M33.5,66.1c-0.8-0.2-1.5-1.1-2-1.6c-0.6-0.6-1.3-1.2-1.9-1.7l0.2-0.6c1.5,0.2,2.7,0.9,3.9,1.7
		c0.4,0.3,0.8,0.5,0.9,1.1L33.5,66.1L33.5,66.1z"/>
</g>
<g>
	<polygon class="st4" points="31.3,61.6 33.1,58.7 33.2,58.7 32.7,62.2 31.3,61.6 	"/>
</g>
<g>
	<path class="st1" d="M35.1,60c-0.2,2.3,0,4.7,0.4,7L34,67.2c-0.1-2.5,0.2-4.9,0.7-7.3L35.1,60L35.1,60z"/>
</g>
<g>
	<path class="st5" d="M39.7,66c-1.2,2-2.1,4.2-2.7,6.5L35.5,72c1-2.3,2.3-4.3,3.8-6.2L39.7,66L39.7,66z"/>
</g>
<g>
	<path class="st1" d="M28.5,66.4c2.4,0,4.8,0.2,7.3,0.8l-0.5,1.5c-2.1-0.9-4.4-1.6-6.7-1.9L28.5,66.4L28.5,66.4z"/>
</g>
<g>
	<path class="st6" d="M34.9,87.4c2.4,0,4.8,0.2,7.3,0.8l-0.5,1.5c-2.1-0.9-4.4-1.6-6.7-1.9L34.9,87.4L34.9,87.4z"/>
</g>
<g>
	<path class="st7" d="M37.3,90.7c2.4,0,4.8,0.2,7.3,0.8L44,93c-2.1-0.9-4.4-1.6-6.7-1.9L37.3,90.7L37.3,90.7z"/>
</g>
<g>
	<path class="st1" d="M38.3,65.2c-0.6,1.2-2.1,3.3-2.4,4.2c0,0-1.6-0.3-1.6-0.3c0.2-0.6,0.6-0.9,1-1.3
		C36.3,66.9,37.4,66.1,38.3,65.2C38.3,65.2,38.3,65.2,38.3,65.2L38.3,65.2z"/>
</g>
<g>
	<path class="st8" d="M36,73c0.8-1.5,1.7-3,3-4.2c0,0,0.1,0.1,0.1,0.1c-0.9,1.4-1.3,3-1.6,4.6C37.5,73.4,36,73,36,73L36,73z"/>
</g>
<g>
	<path class="st1" d="M38,77.8c-1.4-3.5,3-4.4,4.5-6.5c-0.3,0.6-0.7,1.1-1.1,1.6c-0.8,1.1-2.9,2.5-2.1,4C39.3,76.9,38,77.8,38,77.8
		L38,77.8z"/>
</g>
<g>
	<path class="st1" d="M31,81.1c3.5-0.9,7.6,0,10,2.9c0,0-1.2,1-1.2,1c-1.9-2.9-5.4-4-8.7-3.6C31.1,81.4,31,81.1,31,81.1L31,81.1z"/>
</g>
<g>
	<path class="st1" d="M32.6,84.3c1.6,0.4,3.7,0.8,5.2,1.3c1.9,0.7,3.7,1.2,5,3c0,0-1.4,0.8-1.4,0.8c-0.7-1.3-2.5-2.1-3.9-2.8
		c-1.4-0.7-3.5-1.4-5-1.9C32.5,84.6,32.6,84.3,32.6,84.3L32.6,84.3z"/>
</g>
<g>
	<path class="st9" d="M34,83.1c2.7,0.7,6,0.9,7.9,3.3c0,0-1.1,0.6-1.1,0.6c-1.5-2.1-4.6-2.7-6.9-3.6C33.9,83.4,34,83.1,34,83.1
		L34,83.1z"/>
</g>
<g>
	<path class="st1" d="M36.8,91.1c2.7,0.7,6,0.9,7.9,3.3c0,0-1.1,0.6-1.1,0.6c-1.5-2.1-4.6-2.7-6.9-3.6
		C36.8,91.4,36.8,91.1,36.8,91.1L36.8,91.1z"/>
</g>
<g>
	<path class="st10" d="M48.5,84.3c-1.9,1.7-4.5,3.4-5.1,6c0,0-1.2-0.2-1.2-0.2c0.9-2.9,3.9-4.3,6.2-6C48.3,84.1,48.5,84.3,48.5,84.3
		L48.5,84.3z"/>
</g>
<g>
	<path class="st1" d="M45.7,78.6c-1.9,1.7-4.5,3.4-5.1,6c0,0-1.2-0.2-1.2-0.2c0.9-2.9,3.9-4.3,6.2-6C45.5,78.4,45.7,78.6,45.7,78.6
		L45.7,78.6z"/>
</g>
<g>
	<path class="st1" d="M47.4,82.9c-1.9,1.7-4.5,3.4-5.1,6c0,0-1.2-0.2-1.2-0.2c0.9-2.9,3.9-4.3,6.2-6C47.2,82.7,47.4,82.9,47.4,82.9
		L47.4,82.9z"/>
</g>
<g>
	<path class="st11" d="M43.5,75.7c-1,1.8-2.1,3.4-2.4,5.3c-0.2,0.2-0.3,0.3-0.6,0.6c0,0-1.5,0.4-1.5,0.4c-0.9-0.6-0.9-1.8-0.4-2.6
		c1-2,2.7-3.3,4.8-4C43.3,75.4,43.5,75.7,43.5,75.7L43.5,75.7z"/>
</g>
<g>
	<path class="st1" d="M44.8,79.7c-1.2,1.7-2.6,3.8-2.5,5.8c0,0-1.6,0.1-1.6,0.1C41.1,83.1,43,81.3,44.8,79.7L44.8,79.7z"/>
</g>
<g>
	<path class="st12" d="M47.2,88c-1.4,1.1-3.5,2.4-2.9,4.4c0,0-1.6,0.3-1.6,0.3c0-0.7,0.1-1.3,0.4-1.9C43.9,89.2,45.7,88.5,47.2,88
		L47.2,88z"/>
</g>
<g>
	<path class="st13" d="M34.5,94.3c3.5-0.8,8-1.6,11,1.1c0,0-1.2,1-1.2,1C41.9,93.8,37.7,94.1,34.5,94.3L34.5,94.3z"/>
</g>
<g>
	<path class="st1" d="M52.3,89.4c-2.7,0.9-6.2,2-7.2,4.9c0,0-1.3-0.4-1.3-0.4C45.3,90.6,49.2,89.9,52.3,89.4L52.3,89.4z"/>
</g>
<g>
	<path class="st1" d="M45.7,73.9c-2.7,0.9-6.2,2-7.2,4.9c0,0-1.3-0.4-1.3-0.4C38.7,75.1,42.6,74.4,45.7,73.9L45.7,73.9z"/>
</g>
<g>
	<path class="st1" d="M43.5,71.1c-2.7,0.9-6.2,2-7.2,4.9c0,0-1.3-0.4-1.3-0.4C36.5,72.4,40.4,71.6,43.5,71.1L43.5,71.1z"/>
</g>
<g>
	<path class="st1" d="M35.7,89.6c2.1-0.2,4.2-0.3,6.3-0.1c0.8,0.1,1.5,0.2,2.3,0.8c0,0-1.1,1.1-1.1,1.1C41.2,90.1,38.1,90,35.7,89.6
		L35.7,89.6z"/>
</g>
<g>
	<path class="st14" d="M38.2,80.8c-1.1-0.4-1.7-1.2-2.5-1.9c-2.3-2.2-5.1-3.7-8.1-4.8c0,0,0.1-0.6,0.1-0.6c2.2,0.1,4.5,0.7,6.5,1.7
		c1.9,1.1,4.3,2.3,5.1,4.5C39.4,79.7,38.2,80.8,38.2,80.8L38.2,80.8z"/>
</g>
<polygon class="st0" points="57.2,59.7 56.3,97.5 54.6,98.1 55.6,59.5 "/>
<g>
	<path class="st1" d="M54.4,79.9c-0.7-2.6-1.8-5.2-3.3-7.5c0,0,0.3-0.3,0.3-0.3c2.2,1.9,4,4.2,5.5,6.7
		C56.9,78.9,54.4,79.9,54.4,79.9L54.4,79.9z"/>
</g>
<g>
	<path class="st2" d="M54,75c0.1-1.8-1.4-3.4-2.4-4.9c0,0,0.5-0.5,0.5-0.5c1.8,1.5,4,2.9,4.3,5.5C56.5,75,54,75,54,75L54,75z"/>
</g>
<g>
	<path class="st3" d="M55.8,70.2c-0.8-0.5-1.1-1.7-1.5-2.5c-0.4-0.9-0.9-1.7-1.4-2.6l0.4-0.4c1.4,0.8,2.4,2,3.3,3.3
		c0.3,0.4,0.6,0.9,0.6,1.4L55.8,70.2L55.8,70.2z"/>
</g>
<g>
	<polygon class="st4" points="55.6,65.3 58.5,64.4 58.5,64.4 56.3,66.7 55.6,65.3 	"/>
</g>
<g>
	<path class="st1" d="M59.9,66.5c-1.2,1.6-2.1,3.4-2.5,5.2l-1.5-0.5c0.9-1.9,2.2-3.6,3.7-5C59.6,66.2,59.9,66.5,59.9,66.5L59.9,66.5
		z"/>
</g>
<g>
	<path class="st5" d="M62.3,73.7c-2.1,0.7-4.1,1.7-5.7,3.1l-0.9-1.3c2.1-1.1,4.3-1.8,6.5-2.1L62.3,73.7L62.3,73.7z"/>
</g>
<g>
	<path class="st1" d="M50.3,67.1c2.6,1.4,5,3,7.3,4.8l-1.1,1.2c-1.9-2.1-4.1-3.9-6.4-5.6L50.3,67.1L50.3,67.1z"/>
</g>
<g>
	<path class="st6" d="M48.4,86.2c2.6,1.4,5,3,7.3,4.8l-1.1,1.2c-1.9-2.1-4.1-3.9-6.4-5.6L48.4,86.2L48.4,86.2z"/>
</g>
<g>
	<path class="st7" d="M49.6,90c2.6,1.4,5,3,7.3,4.8L55.8,96c-1.9-2.1-4.1-3.9-6.4-5.6L49.6,90L49.6,90z"/>
</g>
<g>
	<path class="st1" d="M61.2,72.2c-1.2,0.5-3.7,1.2-4.4,1.6c0,0-1.1-1.1-1.1-1.1c0.7-0.5,1-0.3,1.7-0.4C58.6,72.2,60,72.3,61.2,72.2
		C61.2,72.2,61.2,72.2,61.2,72.2L61.2,72.2z"/>
</g>
<g>
	<path class="st8" d="M55.8,76.4c1.5-0.7,3-1.2,4.7-1.2c0,0,0,0.2,0,0.2c-1.4,0.5-2.7,1.4-3.8,2.4C56.7,77.7,55.8,76.4,55.8,76.4
		L55.8,76.4z"/>
</g>
<g>
	<path class="st1" d="M55.8,81.5c-0.1-3.9,5.2-1.6,7.4-2.3c-1.7,0.8-3.8,0.5-5.4,1.2c-0.3,0.2-0.5,0.3-0.5,0.6c0,0,0,0.2,0,0.1
		L55.8,81.5L55.8,81.5z"/>
</g>
<g>
	<path class="st1" d="M47,79.3c3.8,1.4,7.6,3.9,9.3,7.9c0,0-1.5,0.5-1.5,0.5c-1.1-3.8-4.4-6.4-7.9-8.1C46.9,79.6,47,79.3,47,79.3
		L47,79.3z"/>
</g>
<g>
	<path class="st1" d="M47.3,82.5c2.4,1.9,5,3.8,7.1,6.1c0.8,0.9,1.5,1.7,1.8,2.9c0,0-1.6,0.2-1.6,0.2c-0.1-0.7-0.7-1.6-1.2-2.4
		c-1.8-2.4-4.1-4.5-6.4-6.7C47.1,82.8,47.3,82.5,47.3,82.5L47.3,82.5z"/>
</g>
<g>
	<path class="st9" d="M49.3,82.5c1.9,1.5,3.9,3,5.5,4.8c0.5,0.6,1.1,1.2,1.4,2.3L55,89.8c-1-2.8-3.8-4.9-5.9-7
		C49.1,82.7,49.3,82.5,49.3,82.5L49.3,82.5z"/>
</g>
<g>
	<path class="st1" d="M48.9,90c1.9,1.5,3.9,3,5.5,4.8c0.5,0.6,1.1,1.2,1.4,2.3l-1.2,0.2c-1-2.8-3.8-4.9-5.9-7
		C48.7,90.3,48.9,90,48.9,90L48.9,90z"/>
</g>
<g>
	<path class="st10" d="M64.1,92.3c-2.2,0-4.3,0-6.4,0.5c-0.6,0.1-1.4,0.4-1.6,0.7l-1-0.8c0.7-0.7,1.5-0.8,2.4-0.9
		c2.2-0.2,4.4,0,6.6,0.2C64.1,92,64.1,92.3,64.1,92.3L64.1,92.3z"/>
</g>
<g>
	<path class="st1" d="M63.4,86.4c-2.2,0-4.3,0-6.4,0.5c-0.6,0.1-1.4,0.4-1.6,0.7l-1-0.8c0.7-0.7,1.5-0.8,2.4-0.9
		c2.2-0.2,4.4,0,6.6,0.2C63.4,86.1,63.4,86.4,63.4,86.4L63.4,86.4z"/>
</g>
<g>
	<path class="st1" d="M63.5,90.6c-2.2,0-4.3,0-6.4,0.5c-0.6,0.1-1.4,0.4-1.6,0.7l-1-0.8c0.7-0.7,1.5-0.8,2.4-0.9
		c2.2-0.2,4.4,0,6.6,0.2C63.5,90.3,63.5,90.6,63.5,90.6L63.5,90.6z"/>
</g>
<g>
	<path class="st11" d="M62.3,83c-1.8,0.8-3.6,1.2-5,2.2c-0.2-0.1-0.3-0.1-0.7-0.1L55,84.9c-0.3-0.5-0.2-1.2,0.1-1.7
		c1.8-1.9,5-1.5,7.2-0.6C62.3,82.6,62.3,83,62.3,83L62.3,83z"/>
</g>
<g>
	<path class="st1" d="M62.1,86.6c-1.7,0.4-4.3,1.1-5.2,2.6c0,0-1.4-0.7-1.4-0.7c0.5-0.7,1.1-1,1.7-1.2
		C58.7,86.7,60.4,86.6,62.1,86.6L62.1,86.6z"/>
</g>
<g>
	<path class="st12" d="M61.2,94.1c-1.5,0.1-3.2-0.2-4.5,0.5c-0.3,0.2-0.5,0.5-0.5,0.8L54.6,95c0.3-0.7,0.9-1.3,1.6-1.5
		C57.9,93,59.6,93.6,61.2,94.1L61.2,94.1z"/>
</g>
<g>
	<path class="st13" d="M45.1,90.9c4,1.6,8.8,3.2,11,7.2c0,0-1.5,0.6-1.5,0.6C53,95,48.6,92.8,45.1,90.9L45.1,90.9z"/>
</g>
<g>
	<path class="st1" d="M66,98.2c-2.5-0.8-5.1-1.5-7.7-1.4c-0.8,0-1.7,0.2-2.2,0.6l-0.8-1.2c1-0.6,2.1-0.6,3-0.5
		C61.1,96,63.6,97.1,66,98.2L66,98.2z"/>
</g>
<g>
	<path class="st1" d="M65.4,83c-2.5-0.8-5.1-1.5-7.7-1.4c-0.8,0-1.7,0.2-2.2,0.6L54.8,81c1-0.6,2.1-0.6,3-0.5
		C60.5,80.8,63,81.8,65.4,83L65.4,83z"/>
</g>
<g>
	<path class="st1" d="M64.3,79.6c-2.5-0.8-5.1-1.5-7.7-1.4c-0.8,0-1.7,0.2-2.2,0.6l-0.8-1.2c1-0.6,2.1-0.6,3-0.5
		C59.3,77.5,61.9,78.5,64.3,79.6L64.3,79.6z"/>
</g>
<g>
	<path class="st1" d="M48.3,88.3c2.3,1.1,4.5,2.2,6.6,3.6c0.8,0.6,1.5,1,2.1,1.9c0,0-1.4,0.7-1.4,0.7C53.8,91.9,50.8,90.2,48.3,88.3
		L48.3,88.3z"/>
</g>
<g>
	<path class="st14" d="M54.8,83.7c-1-0.9-1.4-2-1.9-3c-1.7-3.2-4.1-5.9-6.6-8.5c0,0,0.4-0.5,0.4-0.5c3.2,1.9,6.2,4.6,8.2,7.8
		c0.7,1.1,1.4,2.2,1.4,3.6L54.8,83.7L54.8,83.7z"/>
</g>
<polygon class="st0" points="44.3,61.8 49.5,93.7 51,94.4 45.7,61.9 "/>
<g>
	<path class="st1" d="M46.9,78.5c1-2,2.2-3.8,3.9-5.2c0,0,0.2,0.2,0.2,0.2c-1.1,1.7-1.7,3.6-2,5.6C49,79.1,46.9,78.5,46.9,78.5
		L46.9,78.5z"/>
</g>
<g>
	<path class="st2" d="M46.7,75.3c-0.1-2,1.7-3.2,3.1-4.3c0,0,0.4,0.4,0.4,0.4c-0.6,0.9-1.9,2.5-1.4,3.5
		C48.8,74.9,46.7,75.3,46.7,75.3L46.7,75.3z"/>
</g>
<g>
	<path class="st3" d="M45.4,70.2c0-0.5,0.1-0.8,0.4-1.1c0.7-1,1.4-1.9,2.4-2.5c0,0,0.3,0.4,0.3,0.4c-0.5,0.9-0.9,1.9-1.3,2.9
		c-0.1,0.3-0.3,0.7-0.6,0.9L45.4,70.2L45.4,70.2z"/>
</g>
<g>
	<polygon class="st4" points="45.7,67.9 43.7,65.6 43.8,65.6 46.5,66.7 45.7,67.9 	"/>
</g>
<g>
	<path class="st1" d="M43,66.9c1.4,1.3,2.7,2.8,3.7,4.6l-1.2,0.6c-0.6-1.7-1.6-3.4-2.8-4.9L43,66.9L43,66.9z"/>
</g>
<g>
	<path class="st5" d="M41.7,72.5c2,0.7,4,1.6,5.9,2.8l-0.8,1.1c-1.5-1.4-3.3-2.5-5.2-3.5L41.7,72.5L41.7,72.5z"/>
</g>
<g>
	<path class="st1" d="M51.2,69.4c-1.8,1.1-3.5,2.3-4.9,3.8l-0.9-1c1.7-1.3,3.6-2.3,5.6-3.1L51.2,69.4L51.2,69.4z"/>
</g>
<g>
	<path class="st6" d="M55.1,85.9c-1.8,1.1-3.5,2.3-4.9,3.8l-0.9-1c1.7-1.3,3.6-2.3,5.6-3.1L55.1,85.9L55.1,85.9z"/>
</g>
<g>
	<path class="st7" d="M54.6,89c-1.8,1.1-3.5,2.3-4.9,3.8l-0.9-1c1.7-1.3,3.6-2.3,5.6-3.1L54.6,89L54.6,89z"/>
</g>
<g>
	<path class="st1" d="M42.3,71.8c1.1,0.3,2.4,0.5,3.5,0.7c0.5,0.1,0.9,0.1,1.4,0.5c0,0-1,0.9-1,0.9c0.1,0.1,0,0,0,0
		c-0.2-0.2-0.5-0.3-0.7-0.4C44.7,73,42.9,72.3,42.3,71.8L42.3,71.8z"/>
</g>
<g>
	<path class="st8" d="M46.7,77.2c-1-1-2.1-2-3.4-2.6c0,0,0-0.1,0-0.1c1.5,0.3,2.9,0.9,4.2,1.7C47.6,76.1,46.7,77.2,46.7,77.2
		L46.7,77.2z"/>
</g>
<g>
	<path class="st1" d="M46.7,80.1c-0.2-1.3-2.5-1.5-3.6-1.9c-0.5-0.2-1.1-0.4-1.6-0.7c0.5,0.2,1.1,0.3,1.7,0.4c1.6,0.3,3.8,0,4.8,1.7
		c0.1,0.2,0.2,0.4,0.1,0.7L46.7,80.1L46.7,80.1z"/>
</g>
<g>
	<path class="st1" d="M55.4,80.2c-2.6,0.9-5.4,2.7-5.8,5.6c0,0-1.3-0.3-1.3-0.3c0.9-3.2,4-4.9,7-5.5C55.4,80,55.4,80.2,55.4,80.2
		L55.4,80.2z"/>
</g>
<g>
	<path class="st1" d="M55.7,82.9c-1.7,1.5-3.4,2.9-4.7,4.7c-0.4,0.6-0.7,1.2-0.7,1.7l-1.4,0c0.1-1.1,0.7-1.7,1.2-2.3
		c1.6-1.7,3.5-3,5.4-4.2C55.5,82.7,55.7,82.9,55.7,82.9L55.7,82.9z"/>
</g>
<g>
	<path class="st9" d="M53.9,82.6c-1.5,1.4-3.7,2.9-4.2,4.9c0,0-1.1,0-1.1,0c0.1-0.8,0.6-1.3,0.9-1.8c1.2-1.3,2.7-2.3,4.2-3.3
		C53.8,82.4,53.9,82.6,53.9,82.6L53.9,82.6z"/>
</g>
<g>
	<path class="st1" d="M55.1,89c-1.5,1.4-3.7,2.9-4.2,4.9c0,0-1.1,0-1.1,0c0.1-0.8,0.6-1.3,0.9-1.8c1.2-1.3,2.7-2.3,4.2-3.3
		C55,88.8,55.1,89,55.1,89L55.1,89z"/>
</g>
<g>
	<path class="st10" d="M42.3,88.2c2.6,0.3,5.5,0.1,7.7,1.8c0,0-0.8,0.7-0.8,0.7c-1.8-1.6-4.6-1.7-7-2.3
		C42.2,88.5,42.3,88.2,42.3,88.2L42.3,88.2z"/>
</g>
<g>
	<path class="st1" d="M42.1,83.3c2.6,0.3,5.5,0.1,7.7,1.8c0,0-0.8,0.7-0.8,0.7c-1.8-1.6-4.6-1.7-7-2.3
		C42.1,83.6,42.1,83.3,42.1,83.3L42.1,83.3z"/>
</g>
<g>
	<path class="st1" d="M42.6,86.8c2.6,0.3,5.5,0.1,7.7,1.8c0,0-0.8,0.7-0.8,0.7c-1.8-1.6-4.6-1.7-7-2.3
		C42.5,87.1,42.6,86.8,42.6,86.8L42.6,86.8z"/>
</g>
<g>
	<path class="st11" d="M42.7,80.5c1.8-0.5,7.3,0.1,6.5,2.9c0,0-1.3,0.3-1.3,0.3c-0.3,0-0.5,0-0.7-0.1c-1.3-1.2-2.9-1.8-4.5-2.8
		C42.6,80.8,42.7,80.5,42.7,80.5L42.7,80.5z"/>
</g>
<g>
	<path class="st1" d="M43.3,84c2.1,0.4,4.3,0.8,5.9,2.4c0,0-1.2,0.7-1.2,0.7C47,85.6,45,84.7,43.3,84L43.3,84z"/>
</g>
<g>
	<path class="st12" d="M45,90.4c1.9-0.1,4.5-0.5,5.7,1.6c0,0-1.3,0.5-1.3,0.5C48.8,90.7,46.4,90.8,45,90.4L45,90.4z"/>
</g>
<g>
	<path class="st13" d="M58.3,90.2c-2.2,0.8-4.5,1.7-6.2,3.3c-0.5,0.5-1,1.1-1.1,1.7l-1.3-0.3c0.3-1,1-1.6,1.7-2.1
		C53.5,91.3,56,90.6,58.3,90.2L58.3,90.2z"/>
</g>
<g>
	<path class="st1" d="M41.3,93.2c2.9-0.8,6.2-1.7,9-0.1c0,0-0.7,0.9-0.7,0.9C47.2,92.4,44,92.9,41.3,93.2L41.3,93.2z"/>
</g>
<g>
	<path class="st1" d="M40,80.3c2.9-0.8,6.2-1.7,9-0.1c0,0-0.7,0.9-0.7,0.9C45.9,79.5,42.7,80,40,80.3L40,80.3z"/>
</g>
<g>
	<path class="st1" d="M40.6,77.7c2.9-0.8,6.2-1.7,9-0.1c0,0-0.7,0.9-0.7,0.9C46.5,76.8,43.2,77.3,40.6,77.7L40.6,77.7z"/>
</g>
<g>
	<path class="st1" d="M55.3,87.4c-1.9,1.2-4.3,2.2-5.5,4c0,0-1.3-0.5-1.3-0.5c0.3-0.5,0.6-0.7,0.8-0.9
		C51.1,88.8,53.2,88.1,55.3,87.4L55.3,87.4z"/>
</g>
<g>
	<path class="st14" d="M47.9,82c-0.2-1,0.3-1.9,0.8-2.7c1.4-2.5,3.6-4.5,6.2-5.6c0,0,0.3,0.4,0.3,0.4c-1.3,1.2-2.6,2.5-3.5,3.9
		c-1.1,1.4-1.3,3.1-2.4,4.5C49.2,82.4,47.9,82,47.9,82L47.9,82z"/>
</g>
<polygon class="st0" points="71.5,58.1 63.2,96.2 65,98 73.5,59.2 "/>
<g>
	<path class="st1" d="M67.6,77.1c2.4-1.5,5.1-2.5,7.9-2.6c0,0,0.1,0.4,0.1,0.4c-2.3,0.9-4.4,2.6-5.9,4.5
		C69.7,79.4,67.6,77.1,67.6,77.1L67.6,77.1z"/>
</g>
<g>
	<path class="st2" d="M68.8,74c1.1-2.8,4.2-2.5,6.5-2.6c0,0,0.2,0.8,0.2,0.8c-1.3,0.5-2.8,0.9-3.7,1.9c-0.2,0.3-0.2,0.5-0.1,0.5
		L68.8,74L68.8,74z"/>
</g>
<g>
	<path class="st3" d="M69.4,67.6c0.3-0.5,0.7-0.8,1.2-1c1.4-0.6,2.9-1,4.5-0.8c0,0,0.1,0.7,0.1,0.7c-0.8,0.4-1.6,0.9-2.4,1.4
		c-0.7,0.4-1.5,1.3-2.4,1.2C70.4,69.1,69.4,67.6,69.4,67.6L69.4,67.6z"/>
</g>
<g>
	<polygon class="st4" points="70.8,65.7 68.9,61.7 69,61.7 72.2,64.5 70.8,65.7 	"/>
</g>
<g>
	<path class="st1" d="M67.1,62.5c1.4,2.2,2.5,4.6,3.1,7.2c0,0-1.8,0.2-1.8,0.2c-0.1-2.4-0.8-4.9-1.7-7.2L67.1,62.5L67.1,62.5z"/>
</g>
<g>
	<path class="st5" d="M62.5,67.4c2.6,2,5,4.1,7.1,6.7l-1.5,1.1c-1.7-2.6-3.7-5.1-6-7.4L62.5,67.4L62.5,67.4z"/>
</g>
<g>
	<path class="st1" d="M77.9,70.9c-3.1-0.1-6.2,0-9.2,0.6l-0.2-1.8c3.2-0.2,6.4,0.2,9.5,0.7L77.9,70.9L77.9,70.9z"/>
</g>
<g>
	<path class="st6" d="M75.6,90.6c-3.1-0.1-6.2,0-9.2,0.6l-0.2-1.8c3.2-0.2,6.4,0.2,9.5,0.7L75.6,90.6L75.6,90.6z"/>
</g>
<g>
	<path class="st7" d="M73.2,93.4c-3.1-0.1-6.2,0-9.2,0.6l-0.2-1.8c3.2-0.2,6.4,0.2,9.5,0.7L73.2,93.4L73.2,93.4z"/>
</g>
<g>
	<path class="st1" d="M63.8,67.1c1.7,1.2,3.7,2.3,5.5,3.5c0.4,0.3,0.6,0.3,0.9,0.8c0,0-1.6,0.9-1.6,0.9c0-0.2-0.8-0.9-1-1.1
		c0,0-1.3-1.3-1.3-1.3C65.6,69,64.4,68.1,63.8,67.1L63.8,67.1z"/>
</g>
<g>
	<path class="st8" d="M67.7,76.1c-1.1-1.9-2.3-3.8-3.8-5.3c0,0,0.1-0.1,0.1-0.1c1,0.6,1.9,1.3,2.7,2c0.9,0.7,1.7,1.5,2.5,2.4
		L67.7,76.1L67.7,76.1z"/>
</g>
<g>
	<path class="st1" d="M66.4,78.8c-0.1,0.1-0.1,0.1-0.1,0.1c0.1-0.5-0.3-0.9-0.7-1.3c-1.7-1.9-4.2-3.2-5.9-5.1
		c2.1,1.7,4.7,2.5,6.8,4.1c0.9,0.7,2,2.1,1.2,3.3C67.8,79.9,66.4,78.8,66.4,78.8L66.4,78.8z"/>
</g>
<g>
	<path class="st1" d="M78.9,84.9c-3.7-0.6-8.7-1.3-11.3,1.8c0,0-1.3-1.3-1.3-1.3c3.5-3.2,8.7-2.1,12.7-0.9
		C78.9,84.6,78.9,84.9,78.9,84.9L78.9,84.9z"/>
</g>
<g>
	<path class="st1" d="M77.8,87.9c-1.8,0.2-4.4,0.5-6.1,0.8c-1.6,0.4-3.9,0.6-5,1.9c0,0-1.6-0.8-1.6-0.8c0.5-0.8,1.1-1.1,1.7-1.3
		c2.6-0.9,5.3-0.9,7.9-1c0,0,3.1,0,3.1,0L77.8,87.9L77.8,87.9z"/>
</g>
<g>
	<path class="st9" d="M75.5,86.3c-2.4,0.3-4.8,0.5-7.1,1.2c-0.5,0.2-1.4,0.5-1.6,0.9c0,0-1.3-0.6-1.3-0.6c0.7-1,1.6-1.1,2.6-1.4
		c2.4-0.5,4.9-0.4,7.3-0.4C75.4,86,75.5,86.3,75.5,86.3L75.5,86.3z"/>
</g>
<g>
	<path class="st1" d="M74.1,93.8c-2.4,0.3-4.8,0.5-7.1,1.2c-0.5,0.2-1.4,0.5-1.6,0.9c0,0-1.3-0.6-1.3-0.6c0.7-1,1.6-1.1,2.6-1.4
		c2.4-0.5,4.9-0.4,7.3-0.4C74,93.5,74.1,93.8,74.1,93.8L74.1,93.8z"/>
</g>
<g>
	<path class="st10" d="M55.8,84.1c2.7,1.4,5.4,2.9,7.9,4.7c0.8,0.6,1.7,1.2,2.4,2.3l-1.3,0.6c-2.2-3.1-6-5.1-9.2-7.3
		C55.6,84.4,55.8,84.1,55.8,84.1L55.8,84.1z"/>
</g>
<g>
	<path class="st1" d="M57.9,78.9c2.7,1.4,5.4,2.9,7.9,4.7c0.8,0.6,1.7,1.2,2.4,2.3l-1.3,0.6c-2.2-3.1-6-5.1-9.2-7.3
		C57.7,79.2,57.9,78.9,57.9,78.9L57.9,78.9z"/>
</g>
<g>
	<path class="st1" d="M56.9,82.9c2.7,1.4,5.4,2.9,7.9,4.7c0.8,0.6,1.7,1.2,2.4,2.3l-1.3,0.6c-2.2-3.1-6-5.1-9.2-7.3
		C56.7,83.1,56.9,82.9,56.9,82.9L56.9,82.9z"/>
</g>
<g>
	<path class="st11" d="M60.1,76.4c2.5,0.5,10,3.8,7.9,7.3c-0.6-0.1-2.3-0.1-2.8-0.5c-1.6-2.3-3.6-4.1-5.4-6.4
		C59.8,76.8,60.1,76.4,60.1,76.4L60.1,76.4z"/>
</g>
<g>
	<path class="st1" d="M59.3,80.4c2,1.2,4,2.5,5.7,4.1c0.6,0.6,1.2,1.1,1.6,2.1l-1.8,0.5C63.9,84.6,61.4,82.3,59.3,80.4L59.3,80.4z"
		/>
</g>
<g>
	<path class="st12" d="M58.6,88.2c2.7,1.2,6.5,1.9,7.4,5.3c0,0-1.8,0.1-1.8,0.1c0.1-1.1-1.1-2.2-2-2.9
		C61.1,89.7,59.6,89.1,58.6,88.2L58.6,88.2z"/>
</g>
<g>
	<path class="st13" d="M78.3,97.1c-3.5-0.6-7-1.2-10.5-0.8c-1.1,0.1-2.3,0.5-2.7,1L63.7,96c0.6-0.6,1.4-0.8,2-0.9
		C70,94.5,74.2,95.9,78.3,97.1L78.3,97.1z"/>
</g>
<g>
	<path class="st1" d="M51.9,88.6c4.6,1.2,9.6,2.2,13.1,5.8c0,0-1.3,0.9-1.3,0.9C60.8,91.8,56,90.2,51.9,88.6L51.9,88.6z"/>
</g>
<g>
	<path class="st1" d="M56.2,74.4c4.6,1.2,9.6,2.2,13.1,5.8c0,0-1.3,0.9-1.3,0.9C65.2,77.6,60.4,76,56.2,74.4L56.2,74.4z"/>
</g>
<g>
	<path class="st1" d="M58.4,72c4.6,1.2,9.6,2.2,13.1,5.8c0,0-1.3,0.9-1.3,0.9C67.3,75.2,62.5,73.6,58.4,72L58.4,72z"/>
</g>
<g>
	<path class="st1" d="M75.1,92.2c-3.1-0.1-6.3-0.3-9.4,0.1c-0.3,0.1-0.6,0.1-0.9,0.3l-1.1-1.5c0.5-0.3,1.2-0.4,1.8-0.4
		C68.8,90.8,72,91.5,75.1,92.2L75.1,92.2z"/>
</g>
<g>
	<path class="st14" d="M67.3,81.5c0.6-1.3,1.8-1.9,3-2.5c3.4-1.7,7.4-1.9,11.1-1.4c0,0,0,0.7,0,0.7c-2.3,0.4-4.7,0.8-6.9,1.6
		c-1.1,0.4-2.1,0.9-3,1.4c-1,0.6-1.7,1.3-3,1.6L67.3,81.5L67.3,81.5z"/>
</g>
<path class="st19" d="M43.2,65.9c0,0,0.4-1.2-0.2-2s-0.6-2.2-1.2-2.6c-0.7-0.4-1.7-0.7-1.5-1.4c0.2-0.6,0.5-1.4-0.2-1.8
	c-0.7-0.4-1.2-1-1.2-1s1,0,0.3-1.8s-1.7-1-0.7-1.8c1-0.8,1.4-1.9,1.4-1.9s2.8-1.1,3-0.3s0.8,1.7,0.8,1.7l1.5,0.5c0,0,1.5,1.2,1,1.6
	s-1.8,0.9-1.4,1.5c0.4,0.6,1.6,0.7,1.7,1.5s-0.8,1.6-0.9,2.1c-0.1,0.5,0.7,0.7,1.1,0.2c0.5-0.5,1,0,0.1,1.2
	c-0.9,1.2-2.8,2.1-2.1,2.4c0.6,0.3,1.9,1,1.9,1c-0.8,1.8-0.6,1.6-1.8,1.9c-1.2,0.2-2.6,0.2-2.6,0.2L43.2,65.9z"/>
<path class="st17" d="M45,63.1c0,0,0.4,0.8,2-1.2s1.9-2.4,1.5-3.4s-1.1-2.4-0.7-2.8s0-1.6,0.4-2.1s-0.2-2.1-0.2-2.8
	c-0.1-0.7,0-1,1-1.8c0.9-0.8,1.8-1.1,1.2-1.8c-0.6-0.7-1.5-1.1-1.5-1.1s1-0.8,1.4-1.1c0.5-0.3,0.8-0.2,0.8-0.9
	c-0.1-0.7-0.2-2.3-0.3-3.2c-0.1-0.9-0.5-1-0.2-2.3c0.3-1.4,0.7-1.9,0.3-3.1c-0.4-1.2-0.4-0.3-0.9-2.8c-0.5-2.4-1.7-2.5-0.8-3.5
	c0.9-1.1,1.2-1.5,1-2.2c-0.3-0.7,1.1-0.7-0.1-2.2c-1.2-1.5-1.9-2.9-2.7-3.5c-0.8-0.6-3.3-0.7-3.8-1.2c-0.5-0.4-0.9-1.3-2.2-1
	s-3.3,0.2-3.8,1.1c-0.4,0.9,1.6,2.2,0.2,2.8c-1.3,0.6-2.6,0.4-2.9,1.4s-0.6,3.2-0.5,4c0.1,0.9,0.2,0.6,0.1,1.5
	c0,0.9-0.4,1.5,0.2,2.5c0.6,0.9,1.3,1.1,1.2,1.9c-0.2,0.8-1.3,1-1.1,1.7s-0.6,1,0.2,2.1c0.7,1.1,0.9,2,0.8,2.8
	c-0.2,0.8-0.9,0.5-0.7,1.2s-0.9,1.9-0.9,2.4c0,0.5-0.6,1.4,0.2,1.7c0.8,0.3,1.3,0.9,1.6,1.3c0.3,0.5,1.2,4.1,1.4,5s1.5,2.8,1.5,2.8
	c1.4-1.9,1.4-2.5,2.9-2.3c1.5,0.2-0.4,1.6,1,1.7s1.3,0.1,1.3,0.1l0.1,2.2l1.1,1.4l0.4,2.2L45,63.1z"/>
<path class="st21" d="M43.5,22.3c0,0,1.9,0.8,2,2.1s-0.6,1.9,0.3,3.2c0.9,1.3,2.2,2.3,1.1,4.1c-1.1,1.8-2.2,2.9-1.7,4.1
	s0.6,2.4,1.3,3.2c0.7,0.8,0.9,2.7,1,3.8c0.1,1.1,0.2,2-0.4,3.1c-0.6,1.2-0.7,3-0.7,3s-1,1-0.4,1.5c0.5,0.6-2,0.3-2,0.2
	s0.6-2.8-0.8-2.3c-1.4,0.5-2.2,1.9-3,0.5s-3-2.1-2.8-3.5s0.9-1.8,0.8-3.9s-0.5-4.8-0.3-6.2c0.3-1.4,0.5-3,0.1-4.2
	c-0.4-1.2-1.6-2.2-1-3.4s1.1-1.8,1.6-2c0.5-0.2,0.9-0.2,0.9-0.9c0.1-0.8,0.5-1,0.4-1.5s-0.1-0.5-0.1-0.5L43.5,22.3z"/>
<path class="st17" d="M42,24.3c0,0,1.5,1.7,1.6,2.1c0,0.4,0,1.1-0.6,1.4s-2.7,0.7-2.7,0.7l-0.1-1.4L42,24.3z"/>
<path class="st17" d="M42.3,31.8c0,0-0.3,1.6,0.2,2c0.5,0.3-0.4,2-0.4,2s-2.1,0.4-2,0.2C40.3,35.7,40,34,40,34l1.2-1L42.3,31.8z"/>
<path class="st22" d="M43,39.7c0,0,2.5,1.8,1.9,2.2c-0.6,0.4-2.2,0.8-2,1.4c0.1,0.6,0.1,1.7,0.1,1.7s-2.1-0.3-2.1-0.9
	c0.1-0.6-0.5-1.4-0.2-2.1s0-1.1,0.7-1.5C42,40,43,39.7,43,39.7z"/>
<path class="st23" d="M59.3,6.9c0,0,1.9-1.2,3.1-0.7s2.1,0.6,2.5,1.3s3.4,0.4,3.4,0.4s-0.6,1.3-0.2,2c0.4,0.7-0.3,2.1-0.3,2.7
	c0.1,0.6-0.1,3.8-0.3,4.5c-0.1,0.6,0.6,1.1,0.5,1.8c-0.1,0.7,0.4,1.3-0.2,2c-0.6,0.7,0,2,0,2l-0.6,5.9L65.8,34c0,0-0.4,1.1-0.7,1.7
	c-0.3,0.6-0.6,1.9-0.7,2.8c-0.1,0.9,0.3,2.6,0.5,3.7c0.1,1,0.6,2.4,0.6,2.4s-2.2,9.6-2.2,10.5c0,0.9-1,4-1.6,4.2
	c-0.5,0.3-1.4,1.1-1.6,1.9c-0.2,0.7,0.1,1.8-0.7,2.9c-0.7,1.2-1.1,2.1-2.2,2c-1.1,0-1.5-0.1-2.1-1.6c-0.6-1.6-0.1-2.3-1-4
	c-0.8-1.7-1.8-3.3-2.3-4.3c-0.5-1-0.4-2.5-0.3-3.6s0.3-6.1,0.4-9.5s1.2-5.8,1.2-5.8s0.6-5.9,0.1-7.7c-0.5-1.8-1.7-2-1.1-4.4
	c0.6-2.4,1.5-4.1,1.9-4.9c0.3-0.8,0.5-1.6,0.5-2.8c0-1.1,0-2.7,0-3.5s0.7-3.4,0.7-3.4C56.3,9.5,59.3,6.9,59.3,6.9z"/>
<path class="st24" d="M61.8,19c0,0,1.9,1.8,1.9,2.3c-0.1,0.5-0.5,2.2-0.8,1.9s-2.6-0.3-2.6-0.3s-0.4-1.9-0.4-2.1
	C59.9,20.7,61.8,19,61.8,19z"/>
<path class="st24" d="M61,9.5c0.4,0.1,3.7,2,3.7,2s-0.1,0.5-0.1,1.4c-0.1,0.9-2,0.8-2,0.8s-2.6-0.5-2.7-1.3S57.1,8.7,61,9.5z"/>
<path class="st24" d="M58,30.1c0.4-0.1,2.2-0.6,2.8,0.3c0.6,0.9,1.6,1.5,1.7,2.3c0,0.8,0.9,1.3-0.1,1.4c-1,0-3.8-0.4-3.8-0.4
	L58,30.1z"/>
<path class="st25" d="M55.5,37.6c0.9-0.4,3.6-0.4,3.3,1.7s-0.5,2.9-0.7,3.3c-0.1,0.4,1.4,1.6,1.1,2.7s-1.3,1.3-1.3,2.8
	c-0.1,1.5,0,3.4,0.6,4.4s-0.3,2.2-0.4,3.3c-0.1,1.1-0.4,3.4,0.7,2.5s0.6-1.3,1.7-2c1.1-0.6,2.8-0.3,2.5,0.6
	c-0.3,0.9-2.7,4.2-2.7,4.2s1.5,0.9-0.7,2.9c-2.2,2-4.3,1.9-4.3,0.4c0-1.5-3.7-8.7-3.6-10.3c0.1-1.6,0.3-6.3,0.4-8.7
	c0.1-2.4,0.8-3.7,1.1-4S55.5,37.6,55.5,37.6z"/>
<path class="st26" d="M23.1,26c0,0,1-1.2,2-1.1s1.5,0,2,0.4s2.4-0.5,2.4-0.5s-0.2,1,0.3,1.4s0.2,1.5,0.4,1.9
	c0.2,0.4,0.7,2.7,0.7,3.1c0,0.4,0.6,0.6,0.7,1.1c0.1,0.5,0.5,0.8,0.3,1.4c-0.2,0.6,0.4,1.4,0.4,1.4l0.8,4.2l0.1,3.9
	c0,0,0,0.8-0.1,1.3c-0.1,0.5,0,1.4,0.1,2.1s0.8,1.7,1.1,2.4c0.3,0.7,0.9,1.5,0.9,1.5s0.4,7,0.6,7.6c0.2,0.6,0.1,2.9-0.2,3.2
	c-0.3,0.3-0.7,1.1-0.7,1.6c0,0.5,0.4,1.2,0.1,2.1s-0.3,1.6-1.1,1.9c-0.8,0.2-1,0.3-1.8-0.7c-0.7-0.9-0.6-1.5-1.5-2.5
	c-0.9-1-1.9-1.9-2.5-2.5s-0.8-1.6-0.9-2.4s-1.1-4.2-1.7-6.6C25,49.9,25.3,48,25.3,48s-0.8-4.2-1.5-5.3c-0.7-1.1-1.6-1-1.7-2.8
	c-0.1-1.8,0.2-3.1,0.3-3.8c0.1-0.6,0-1.2-0.2-2s-0.5-1.9-0.7-2.4c-0.2-0.5-0.2-2.5-0.2-2.5C21.6,28.3,23.1,26,23.1,26z"/>
<path class="st22" d="M27.3,33.7c0,0,1.7,0.9,1.8,1.2s0.1,1.6-0.2,1.5c-0.3-0.1-1.9,0.4-1.9,0.4s-0.6-1.2-0.7-1.3
	C26.3,35.3,27.3,33.7,27.3,33.7z"/>
<path class="st22" d="M24.8,27.4c0.3,0,2.9,0.6,2.9,0.6s0.1,0.4,0.2,1c0.1,0.6-1.2,1-1.2,1s-1.9,0.2-2.1-0.4
	C24.4,29.1,22,27.6,24.8,27.4z"/>
<path class="st22" d="M27,42.1c0.2-0.1,1.4-0.9,2-0.4c0.6,0.5,1.4,0.7,1.6,1.2c0.2,0.5,0.9,0.7,0.2,1S28,44.4,28,44.4L27,42.1z"/>
<path class="st22" d="M26.8,47.8c0.5-0.5,2.4-1,2.6,0.5c0.3,1.5,0.2,2.1,0.2,2.4s1.3,0.8,1.3,1.6c0,0.8-0.6,1.2-0.3,2.2
	c0.3,1,0.7,2.3,1.3,2.9c0.6,0.6,0.2,1.6,0.4,2.4c0.2,0.8,0.4,2.4,1,1.5s0.1-1,0.7-1.7c0.6-0.7,1.9-0.8,1.8-0.1c0,0.7-1,3.4-1,3.4
	s1.2,0.3,0.1,2.1c-1.1,1.9-2.6,2.2-2.8,1.2s-4.3-5.2-4.6-6.3c-0.2-1.1-1.1-4.4-1.5-6c-0.4-1.6-0.2-2.7-0.1-3
	C26.1,50.6,26.8,47.8,26.8,47.8z"/>
<path class="st26" d="M78.9,29l2.4,2.1l1.4,2.4c0,0,1,1,1.1,2.3c0.1,1.3,0.3,3.8,0.4,4.3s0.2-1.5-0.8,2.3c-1,3.8-1,3.1-1.4,4.4
	c-0.4,1.3-0.3,0.7-0.6,1.9s-1.5,3.9-1.5,4.3c0,0.4-1.7,2.8-1.9,3.5s0.1,1.5-0.1,2.3s-2.6,3.6-2.7,3.9c-0.1,0.2-1,1.3-1.6,1.4
	s-1.6,1.2-2,1.8s-1.4,0.6-1.8,0.5c-0.4,0-1-2.2-1.3-3c-0.3-0.9-0.2-4.1-1.1-6.3c-0.9-2.2,0.2-3,0.3-4.5c0.1-1.5-0.9-2.2-0.5-3.8
	c0.4-1.5,1.3-4.2,1.7-5.1c0.4-0.9,0.8-2.1,1.2-3.7s0.1-1.4,1-2.9s1.8-2.9,2.1-3.6c0.4-0.7,0.6-1.3,1.1-2.4
	C75,29.8,76.5,28.7,78.9,29z"/>
<path class="st19" d="M68.5,55.4c0,0,0.5,2.6,0.8,3.3s2,2.1,2,2.1s0.8-0.6,1.6-0.7c0.8-0.1,1.1-0.4,1.5-0.4c0.4,0,1.3,0.4,1.6,0.5
	c0.2,0.1,1.3,0.7,1.3,0.7s-0.6,1.4-0.8,2.2s-0.6,2.6-1.7,1.7s-3,1-3,1s-0.3,1.8-0.8,1.8s-0.8,0.6-1.4,0.3c-0.7-0.2-0.8-0.9-1.2-2.1
	c-0.3-1.2-1.1-2.6-1.2-3.8c-0.1-1.2,0.1-1.8,0.2-3.4s-1-2.5-1-2.5L68.5,55.4z"/>
<path class="st17" d="M74.8,38c0,0-1.1,2.8-1.2,3.5c-0.1,0.7,2.8,3.6,2.8,3.6s-0.1,2-0.7,2.1C75,47.3,74,49.4,74,49.4l-0.4,1.2
	l1.4,2.1c0,0,0.2,0.3-0.3,1c-0.5,0.7-1.7,1.5-1.7,1.5s-0.3-0.7-0.8-1.8c-0.5-1.1-1.4-1.8-1.4-3.8c0.1-2,0.5-2,0.1-3.2
	s-1.2-1.5-0.4-2.3s0.7,0.6,1.5-1.5s0.6-1.5,0.7-2.1S74.8,38,74.8,38z"/>
<path class="st17" d="M78.1,32.6c0,0,1.7,0.9,2.1,1.4c0.5,0.5,1.6,3.1,1.6,3.1L80,38.3c0,0-2.6,2-2.4,0.6s0.3-3,0.3-3l0.1-1.2
	L78.1,32.6z"/>
<path class="st27" d="M82.4,39.7L85,41l-2.6-0.7l1.9,2l-1.9-0.7l1.9,1.9l-1.9-1l0.8,1.9l-1.8-0.9l1.3,2.4l-1.3-1.5l0.6,2.4l-1.2-0.9
	l1.4,2.5l-1.4-0.9l0.6,1l-1.3,0.7l1.7,0.8h-2.1l1.5,0.7H80l1,0.7l-1-0.2l0.8,0.9l-1.3-0.3l1.1,0.9l-1.1-0.3l0.8,1l-1-0.4l0.6,1
	L79,53.6l0.5,0.9L78.6,54l0.3,0.7l-1.2-0.2l1.2,1.3l-1-0.4l0.1,1l-0.8,0.1l1.3,0.5l0,0.4l0,0.5l-1.1,0.5l-0.3-0.8
	c0,0-0.6-1.2-0.6-1.4s0.3-2.7,0.3-2.7s0.8-1.1,1-1.7c0.2-0.6,1-2.8,1-3.1c0.1-0.3,0.2-1.8,0.2-2.2c0-0.4-0.1-1.6,0.4-1.7
	c0.5-0.1,1-0.3,0.9-0.7c0-0.5-0.2-1-0.2-1.2c0.1-0.2,0.4-1,0.4-1s0.6-0.5,0.7-0.7c0.1-0.2,0.1-0.9,0.1-0.9S81.5,39.8,82.4,39.7z"/>
<path class="st27" d="M22.8,33.8l-2.7,1.2l2.7-0.5l-2,1.8l1.9-0.6l-2,1.8l1.9-0.8l-0.9,1.8l1.9-0.7L22.1,40l1.4-1.4l-0.8,2.3
	l1.2-0.8l-1.6,2.4l1.5-0.7l-0.7,1l1.2,0.8l-1.7,0.7l2.1,0.2L23.2,45l1.2,0.1l-1,0.6l1-0.1l-0.9,0.8l1.3-0.2L23.7,47l1.1-0.2
	l-0.9,0.9l1.1-0.3l-0.7,0.9l0.8-0.3l-0.5,0.9l0.9-0.5L25.1,49l1.2-0.1L25,50.1l1.1-0.3l-0.2,1l0.8,0.2l-1.3,0.4l-0.1,0.4l-0.1,0.5
	l1,0.6l0.3-0.8c0,0,0.7-1.2,0.7-1.3c0-0.1-0.1-2.7-0.1-2.7s-0.7-1.1-0.9-1.8c-0.2-0.7-0.7-2.9-0.8-3.1c-0.1-0.3-0.1-1.8-0.1-2.2
	c0-0.4,0.2-1.6-0.3-1.7s-0.9-0.4-0.9-0.8c0.1-0.4,0.3-1,0.3-1.2s-0.3-1.1-0.3-1.1s-0.5-0.5-0.6-0.7c-0.1-0.3,0-0.9,0-0.9
	S23.7,33.9,22.8,33.8z"/>
<path class="st27" d="M55.1,22.3l-2.9,0.4l2.7,0.3l-2.4,1.2l2,0l-2.4,1.1l2.1-0.3l-1.4,1.5l2-0.2l-2.1,1.8l1.8-1l-1.4,2l1.4-0.4
	l-2.2,1.9l1.6-0.3L53,31.1l1,1.1l-1.9,0.2l2,0.7l-1.7,0.1l1.1,0.4l-1.2,0.3l1,0.2l-1.1,0.6l1.4,0.1l-1.3,0.4l1.1,0.1L52.4,36l1.1,0
	l-0.9,0.7l0.9,0l-0.8,0.7l1-0.2l-0.6,0.6l1.1,0.3l-1.6,0.7l1.1,0l-0.5,0.9l0.7,0.4l-1.4,0l-0.2,0.4l-0.2,0.4l0.8,0.8l0.5-0.6
	c0,0,1-0.9,1-1.1c0-0.1,0.7-2.6,0.7-2.6S55,36,55.1,35.3c0-0.7,0.1-3,0.1-3.2s0.4-1.8,0.5-2.2s0.6-1.5,0.2-1.7
	c-0.5-0.3-0.8-0.6-0.6-1s0.6-0.8,0.6-1.1c0-0.3,0-1.1,0-1.1s-0.4-0.6-0.4-0.9s0.2-0.8,0.2-0.8S55.9,22.7,55.1,22.3z"/>
<path class="st27" d="M33.7,45.4l2.9,0.3L33.9,46l2.5,1.2l-2,0l2.4,1.1l-2.1-0.2l1.4,1.4l-2-0.2l2.1,1.7l-1.8-0.9l1.4,2l-1.4-0.4
	l2.3,1.8l-1.7-0.3l0.9,0.8l-0.9,1.1l1.9,0.2l-2,0.8l1.7,0.1l-1.1,0.4l1.2,0.3l-1,0.2l1.1,0.6l-1.3,0.2l1.3,0.4l-1.1,0.1l1.1,0.6
	l-1.1,0l0.9,0.7l-0.9,0l0.8,0.7l-1-0.2l0.6,0.6l-1.1,0.3l1.6,0.7l-1.1,0l0.5,0.9L35.1,63l1.4,0l0.2,0.4l0.2,0.4L36,64.6L35.5,64
	c0,0-1-0.9-1.1-1c0-0.1-0.7-2.6-0.7-2.6s0.3-1.3,0.3-1.9c0-0.7-0.1-2.9-0.2-3.2c0-0.3-0.4-1.8-0.6-2.2c-0.1-0.4-0.7-1.4-0.2-1.7
	c0.5-0.3,0.8-0.6,0.6-1s-0.6-0.8-0.6-1.1c0-0.3,0-1.1,0-1.1s0.4-0.6,0.4-0.9c0-0.3-0.2-0.8-0.2-0.8S32.9,45.8,33.7,45.4z"/>
<path class="st28" d="M65.3,39.6l2.7,1.2l-2.7-0.5l2,1.9l-1.9-0.6l2,1.8l-1.9-0.9l0.9,1.8l-1.9-0.8l1.5,2.3l-1.4-1.4l0.8,2.3
	l-1.2-0.8l1.6,2.4l-1.5-0.8l0.7,1l-1.2,0.7l1.7,0.7l-2.1,0.1l1.6,0.6l-1.2,0.1l1,0.6l-1-0.1l0.8,0.9l-1.3-0.3l1.1,0.8l-1.1-0.2
	l0.8,0.9l-1.1-0.4l0.7,0.9l-0.8-0.3l0.5,0.9l-0.9-0.5l0.4,0.7l-1.2-0.1l1.3,1.2l-1.1-0.4l0.2,1l-0.8,0.2l1.3,0.4l0.1,0.4l0.1,0.5
	l-1,0.5l-0.3-0.8c0,0-0.7-1.2-0.7-1.3c0-0.1,0.1-2.7,0.1-2.7s0.7-1.1,0.9-1.8s0.8-2.8,0.8-3.1c0.1-0.3,0.1-1.8,0.1-2.2
	s-0.2-1.6,0.3-1.7c0.5-0.1,1-0.4,0.9-0.8c-0.1-0.4-0.3-1-0.2-1.2c0.1-0.3,0.4-1.1,0.4-1.1s0.5-0.5,0.6-0.7s0-0.9,0-0.9
	S64.4,39.7,65.3,39.6z"/>
</g>
</svg>
