<svg id="Layer_1" data-name="Layer 1" xmlns="http://www.w3.org/2000/svg" viewBox="0 0 108 108">
  <defs>
    <style>
      .cls-1 {
        fill: #b588bf;
      }

      .cls-2 {
        fill: #3fa07f;
      }

      .cls-3 {
        fill: #29845f;
      }

      .cls-4 {
        fill: #74699b;
      }

      .cls-5 {
        fill: #504572;
      }

      .cls-6 {
        fill: #8bcb8f;
      }
    </style>
  </defs>
  <g>
    <g>
      <path class="cls-1" d="M62,67.24a60.17,60.17,0,0,0-9.37,11.62,61.71,61.71,0,0,0-7.31,18.49H52a62.2,62.2,0,0,0,7.32-15.5c.18-.55.35-1.11.51-1.67A61.32,61.32,0,0,0,62,67.24Z"/>
      <path class="cls-1" d="M79,90.65a38,38,0,0,0-7.89,6.7H81.48a27.11,27.11,0,0,0,9-11.58A37.11,37.11,0,0,0,79,90.65Z"/>
      <path class="cls-1" d="M73.46,90.31a7.58,7.58,0,0,0,2.63-1.42c.41-.33.82-.68,1.24-1,1.6-1.31,3.17-2.56,4.26-3.38a1.79,1.79,0,0,0,.3-2.66,1.89,1.89,0,0,0-2.49-.21L76.14,84l2.18-4a1.81,1.81,0,0,0-.81-2.49,1.91,1.91,0,0,0-2.43.85l0,.1a50.21,50.21,0,0,0-.49-7.53,7.64,7.64,0,0,0,3.53-2.22l1.07-1.18c1.39-1.53,2.76-3,3.71-4a1.79,1.79,0,0,0-.08-2.67,1.88,1.88,0,0,0-2.5.15L77.38,63.8,79,59.57a1.75,1.75,0,0,0-.68-2.1c1.39-1.53,2.76-3,3.72-4a1.72,1.72,0,0,0-.09-2.56,1.81,1.81,0,0,0-2.4.15l-2.77,2.65,1.5-4.07a1.71,1.71,0,0,0-1.11-2.24,1.69,1.69,0,0,0-.92,0c1.41-1.75,2.86-3.49,3.83-4.6a1.7,1.7,0,0,0-.23-2.55,1.8,1.8,0,0,0-2.38.27l-2.62,2.8,1.28-4.14A1.73,1.73,0,0,0,74.83,37a1.57,1.57,0,0,0-.37-.05c1.09-1.33,2.14-2.6,2.91-3.46a1.59,1.59,0,0,0-.22-2.36,1.68,1.68,0,0,0-2.21.25L72.52,34l1.18-3.83a1.6,1.6,0,0,0-1.15-2,1.57,1.57,0,0,0-.86,0c1-1.47,1.8-2.54,2.19-3.06a1.35,1.35,0,0,0-.33-2,1.45,1.45,0,0,0-1.86.36l-1.88,2.36.75-3.33a1.36,1.36,0,0,0-1.1-1.64A1.41,1.41,0,0,0,67.88,22l-.23,1L66.6,18.35a1.45,1.45,0,0,0-2.86.31,1.73,1.73,0,0,0,0,.32l.61,2.68h0a.31.31,0,0,0-.13.06h0l-1.8-2.62a1.46,1.46,0,0,0-2-.38,1.44,1.44,0,0,0-.63,1.19,1.38,1.38,0,0,0,.25.8L62,23.49l-.05,0a1.37,1.37,0,0,0-2,0,1.41,1.41,0,0,0,0,1.88l2.22,2.5-2.8-1.16a1.43,1.43,0,0,0-1.71.42,1.35,1.35,0,0,0,.58,2.05c.83.29,1.74.73,2.83,1.22A1.65,1.65,0,0,0,61,32.48l2.38,3.12L60.14,34a1.67,1.67,0,0,0-2,.35,1.59,1.59,0,0,0,.5,2.46c1.12.49,2.84,1.38,4.32,2.21a1.82,1.82,0,0,0-.47.31,1.78,1.78,0,0,0-.14,2.38l2.57,3.38-3.44-1.75a1.82,1.82,0,0,0-2.2.38,1.72,1.72,0,0,0,.53,2.66c1.36.6,3.18,1.56,5,2.58h0a.6.6,0,0,0-.13.09,1.78,1.78,0,0,0-.27,2.37l2.37,3.52L63.39,53a1.82,1.82,0,0,0-2.22.26,1.7,1.7,0,0,0,.39,2.67c1.18.6,2.79,1.59,4.34,2.57h0a1.72,1.72,0,0,0-1.12.41,1.86,1.86,0,0,0-.29,2.47L67,65,63.5,63a1.9,1.9,0,0,0-2.31.27,1.77,1.77,0,0,0,.39,2.79l.69.37c1.11.59,2.41,1.38,3.74,2.22L68.08,70A7.71,7.71,0,0,0,71,71.13a51.67,51.67,0,0,1,.44,5.58,2.09,2.09,0,0,0-.56,0,1.88,1.88,0,0,0-1.68,1.84l-.11,3.88L67,78a1.82,1.82,0,0,0-2.58-.76,1.87,1.87,0,0,0-.65,2.4l1.91,4-3.14-2.49a1.88,1.88,0,0,0-2.32-.07,1.85,1.85,0,0,0-.6.85,1.72,1.72,0,0,0,.59,2c1.12.79,2.54,2,4,3.2L66,88.73a7.72,7.72,0,0,0,3.72,1.81,48.4,48.4,0,0,1-2.35,6.81h3.67a50.85,50.85,0,0,0,2.39-7Z"/>
      <path class="cls-1" d="M43.72,85l1.65-1.82c1.3-1.4,2.58-2.72,3.6-3.63a1.78,1.78,0,0,0-.34-2.8,1.89,1.89,0,0,0-2.3.34L43.5,79.9l1.44-4.17A1.86,1.86,0,0,0,44,73.42a1.8,1.8,0,0,0-2.47,1L40,79l-.55-3.85a1.89,1.89,0,0,0-1.88-1.64,1.68,1.68,0,0,0-.55.1,48.36,48.36,0,0,1-.21-5.58h0A7.47,7.47,0,0,0,39.5,66.6L41.41,65c1.48-1.19,3-2.31,4.09-3.07a1.78,1.78,0,0,0,.08-2.82,1.89,1.89,0,0,0-2.33,0L40,61.55l2-3.92a1.86,1.86,0,0,0-.57-2.42,1.82,1.82,0,0,0-1.16-.29c1.42-1.14,2.91-2.31,4-3a1.7,1.7,0,0,0,.07-2.7,1.79,1.79,0,0,0-2.23,0L39.1,51.47l2-3.76a1.79,1.79,0,0,0-.55-2.32l-.14-.08C42,44.1,43.74,42.93,45,42.18a1.7,1.7,0,0,0,.22-2.7A1.8,1.8,0,0,0,43,39.36l-3.2,2.12L42,37.83a1.78,1.78,0,0,0-.42-2.35,1.8,1.8,0,0,0-.5-.25c1.38-1,3-2.08,4-2.7a1.58,1.58,0,0,0,.2-2.5,1.7,1.7,0,0,0-2.06-.11l-3,2,2-3.38a1.64,1.64,0,0,0-.33-2.13c1-.62,1.88-1.15,2.67-1.53a1.34,1.34,0,0,0,.34-2.1,1.43,1.43,0,0,0-1.75-.23L40.52,24l1.91-2.73a1.41,1.41,0,0,0-.18-1.87,1.38,1.38,0,0,0-2,.26l0,.05,1.57-3a1.44,1.44,0,0,0-.62-1.94,1.44,1.44,0,0,0-2,.61L37.7,18.21l-.13,0h0l.29-2.74a.81.81,0,0,0,0-.15A1.45,1.45,0,0,0,35,15.12l-.5,4.73-.34-1a1.42,1.42,0,0,0-1.7-.92,1.35,1.35,0,0,0-.91,1.75l1.13,3.22-2.14-2.13a1.45,1.45,0,0,0-1.89-.14,1.36,1.36,0,0,0-.1,2c.45.46,1.34,1.44,2.53,2.78a1.47,1.47,0,0,0-.85.07,1.59,1.59,0,0,0-.91,2.13l1.63,3.68L28.21,29A1.71,1.71,0,0,0,26,29a1.6,1.6,0,0,0,.07,2.38c.85.76,2.05,1.9,3.29,3.11a1.53,1.53,0,0,0-.37.08,1.72,1.72,0,0,0-1,2.31l1.75,4-2.93-2.48a1.8,1.8,0,0,0-2.4,0A1.71,1.71,0,0,0,24.47,41c1.11,1,2.75,2.56,4.35,4.12h0a1.61,1.61,0,0,0-.91.12,1.71,1.71,0,0,0-.85,2.35l2,3.87L26,49.12a1.83,1.83,0,0,0-2.41.13,1.72,1.72,0,0,0,.22,2.55c1.06.85,2.59,2.16,4.14,3.52a1.79,1.79,0,0,0-.43,2.16l2.06,4L26.36,59.1a1.88,1.88,0,0,0-2.5.13,1.78,1.78,0,0,0,.22,2.66c1.06.85,2.59,2.16,4.15,3.51l1.21,1.06a7.7,7.7,0,0,0,3.76,1.8h0a50.2,50.2,0,0,0,.38,7.52l-.06-.08A1.89,1.89,0,0,0,31,75.13a1.79,1.79,0,0,0-.51,2.56l2.62,3.69-3.51-1.93a1.88,1.88,0,0,0-2.45.49,1.79,1.79,0,0,0,.61,2.6c1.18.69,2.88,1.77,4.62,2.88l1.34.87a7.78,7.78,0,0,0,2.79,1.11,52.26,52.26,0,0,0,3.31,6.92,37.11,37.11,0,0,0-20.74-9.49,27,27,0,0,0,6.57,7.91,27.82,27.82,0,0,0,8,4.61H45.32A58,58,0,0,1,40.23,87.2,7.76,7.76,0,0,0,43.72,85Z"/>
    </g>
    <g>
      <path class="cls-2" d="M62,67.24a61.32,61.32,0,0,1-2.22,12.94c-.16.56-.33,1.12-.51,1.67A62.2,62.2,0,0,1,52,97.35H49.08c1.52-4.44,3.28-9.19,5.34-14C56.88,77.48,59.44,72.12,62,67.24Z"/>
      <path class="cls-2" d="M39.14,97.35H33.63a27.82,27.82,0,0,1-8-4.61,27,27,0,0,1-6.57-7.91Z"/>
      <path class="cls-2" d="M90.48,85.77,75.91,97.35H71.07A38,38,0,0,1,79,90.65a37.11,37.11,0,0,1,11.52-4.88Z"/>
    </g>
    <path class="cls-3" d="M41.71,97.35H39.14l-20-12.52a37.11,37.11,0,0,1,20.74,9.49h0C40.48,95.46,41.12,96.47,41.71,97.35Z"/>
    <path class="cls-3" d="M52.63,78.86A60.17,60.17,0,0,1,62,67.24c-2.56,4.88-5.12,10.24-7.58,16.06-2.06,4.86-3.82,9.61-5.34,14H45.32a61.71,61.71,0,0,1,7.31-18.49Z"/>
    <path class="cls-3" d="M75.91,97.35,90.48,85.77a27.11,27.11,0,0,1-9,11.58Z"/>
    <path class="cls-4" d="M82.77,60.89a1.79,1.79,0,0,1,.08,2.67c-.95,1-2.32,2.43-3.71,4a2.68,2.68,0,0,0-2.23-1.15,2.53,2.53,0,0,0-1.61.71,1,1,0,0,1-1.36,0,2,2,0,0,0-1.16-.48,2.06,2.06,0,0,0-1.77.85,1,1,0,0,1-1.3.22,2.53,2.53,0,0,0-1.44-.39A2.68,2.68,0,0,0,66,68.67c-1.33-.84-2.63-1.63-3.74-2.23l-.69-.36a1.77,1.77,0,0,1-.39-2.79A1.9,1.9,0,0,1,63.5,63L67,65l-2.48-3.66a1.86,1.86,0,0,1,.29-2.47,1.72,1.72,0,0,1,1.12-.41,1.8,1.8,0,0,1,1.54.79l2.71,4-.47-3.86a1.87,1.87,0,0,1,1.39-2.06,1.81,1.81,0,0,1,2.2,1.54l.51,4.21,1.74-4.7a1.88,1.88,0,0,1,2.27-1.19,1.66,1.66,0,0,1,.48.24,1.75,1.75,0,0,1,.68,2.1L77.38,63.8,80.27,61a1.88,1.88,0,0,1,2.5-.15Z"/>
    <path class="cls-4" d="M79.8,40.27A1.7,1.7,0,0,1,80,42.82c-1,1.11-2.42,2.85-3.83,4.6a1.89,1.89,0,0,0-1.27,1.16l-1.67,4.5-.48-4a1.74,1.74,0,0,0-2.12-1.48,1.79,1.79,0,0,0-1.33,2l.45,3.7-2.6-3.84A1.73,1.73,0,0,0,64.75,49h0c-1.8-1-3.62-2-5-2.58a1.72,1.72,0,0,1-.53-2.66,1.82,1.82,0,0,1,2.2-.38l3.44,1.75L62.31,41.7a1.78,1.78,0,0,1,.14-2.38,1.82,1.82,0,0,1,.47-.31,1.75,1.75,0,0,1,2.11.53l2.81,3.7-.66-3.68a1.79,1.79,0,0,1,1.22-2.05,1.74,1.74,0,0,1,2.19,1.36l.71,4,1.42-4.59A1.85,1.85,0,0,1,74.46,37a1.57,1.57,0,0,1,.37.05,1.73,1.73,0,0,1,1.25,2.18L74.8,43.34l2.62-2.8a1.8,1.8,0,0,1,2.38-.27Z"/>
    <path class="cls-5" d="M79.14,67.52,78.07,68.7a7.79,7.79,0,0,1-10,1.3L66,68.67a2.68,2.68,0,0,1,2.26-1.42,2.53,2.53,0,0,1,1.44.39,1,1,0,0,0,1.3-.22,2.06,2.06,0,0,1,1.77-.85,2,2,0,0,1,1.16.48,1,1,0,0,0,1.36,0,2.53,2.53,0,0,1,1.61-.71A2.68,2.68,0,0,1,79.14,67.52Z"/>
    <path class="cls-5" d="M75.3,86.41a2.72,2.72,0,0,1,2,1.47c-.42.33-.83.68-1.24,1a7.8,7.8,0,0,1-6.34,1.65A7.72,7.72,0,0,1,66,88.73l-1.86-1.61A2.68,2.68,0,0,1,66.61,86a2.55,2.55,0,0,1,1.37.6,1,1,0,0,0,1.32,0A2.1,2.1,0,0,1,71.18,86a1.89,1.89,0,0,1,1.07.64,1,1,0,0,0,1.35.23,2.57,2.57,0,0,1,1.7-.48Z"/>
    <path class="cls-6" d="M74.54,70.92A50.21,50.21,0,0,1,75,78.45l-2.36,4.29.12-4.23a1.82,1.82,0,0,0-1.39-1.8A51.67,51.67,0,0,0,71,71.13a7.61,7.61,0,0,0,3.58-.21Z"/>
    <path class="cls-4" d="M73.55,23.13a1.35,1.35,0,0,1,.33,2c-.39.52-1.16,1.59-2.19,3.06a1.75,1.75,0,0,0-1.1,1.13l-1.31,4.25-.66-3.71a1.62,1.62,0,0,0-2-1.26,1.66,1.66,0,0,0-1.13,1.91l.6,3.4-2.6-3.42a1.62,1.62,0,0,0-2.38-.21l0,.05c-1.09-.49-2-.93-2.83-1.22a1.35,1.35,0,0,1-.58-2.05,1.43,1.43,0,0,1,1.71-.42l2.8,1.16-2.22-2.5a1.41,1.41,0,0,1,0-1.88,1.37,1.37,0,0,1,2,0l.05,0h0l2.38,2.68-.73-2.84a1.41,1.41,0,0,1,.65-1.6.31.31,0,0,1,.13-.06l0,0a1.37,1.37,0,0,1,1.8.94l.8,3.1L67.65,23l.23-1a1.41,1.41,0,0,1,1.58-1.11,1.36,1.36,0,0,1,1.1,1.64l-.75,3.33,1.88-2.36a1.45,1.45,0,0,1,1.86-.36Z"/>
    <path class="cls-6" d="M73.46,90.31h0a50.85,50.85,0,0,1-2.39,7H67.4a48.4,48.4,0,0,0,2.35-6.81,7.65,7.65,0,0,0,3.71-.23Z"/>
    <path class="cls-5" d="M63.61,23.33l.73,2.84L62,23.49h0l-1.9-2.78a1.38,1.38,0,0,1-.25-.8,1.44,1.44,0,0,1,.63-1.19,1.46,1.46,0,0,1,2,.38l1.8,2.62h0a1.41,1.41,0,0,0-.65,1.6Z"/>
    <path class="cls-4" d="M45.58,59.15A1.78,1.78,0,0,1,45.5,62c-1.14.76-2.61,1.88-4.09,3.07A2.67,2.67,0,0,0,39,63.9a2.62,2.62,0,0,0-1.39.55,1,1,0,0,1-1.32-.07,2.06,2.06,0,0,0-1.85-.65,2,2,0,0,0-1.1.61,1,1,0,0,1-1.35.19A2.48,2.48,0,0,0,30.31,64a2.67,2.67,0,0,0-2.08,1.39c-1.56-1.35-3.09-2.66-4.15-3.51a1.78,1.78,0,0,1-.22-2.66,1.88,1.88,0,0,1,2.5-.13l3.19,2.41-2.06-4a1.79,1.79,0,0,1,.43-2.16h0a1.7,1.7,0,0,1,.46-.29,1.87,1.87,0,0,1,2.39.92l2.28,4.47,0-4.25a1.79,1.79,0,0,1,2-1.77,1.85,1.85,0,0,1,1.61,1.89v3.88l2.22-4.28a1.85,1.85,0,0,1,1.45-1,1.88,1.88,0,0,1,1.16.29,1.86,1.86,0,0,1,.57,2.42l-2,3.92,3.22-2.4a1.89,1.89,0,0,1,2.33,0Z"/>
    <path class="cls-4" d="M45.23,39.48a1.7,1.7,0,0,1-.22,2.7c-1.27.75-3,1.92-4.64,3.13A1.75,1.75,0,0,0,38,46l-2.14,4.12,0-3.73a1.8,1.8,0,0,0-1.56-1.82,1.72,1.72,0,0,0-1.92,1.71l0,4.07L30.21,46.1a1.9,1.9,0,0,0-1.39-1h0C27.22,43.53,25.58,42,24.47,41a1.71,1.71,0,0,1-.06-2.56,1.8,1.8,0,0,1,2.4,0l2.93,2.48-1.75-4a1.72,1.72,0,0,1,1-2.31,1.53,1.53,0,0,1,.37-.08,1.85,1.85,0,0,1,1.88,1.1L33.16,40,33.4,36a1.72,1.72,0,0,1,2-1.59,1.8,1.8,0,0,1,1.45,1.89L36.64,40,39,36a1.73,1.73,0,0,1,2-.77,1.8,1.8,0,0,1,.5.25A1.78,1.78,0,0,1,42,37.83L39.8,41.48,43,39.36a1.8,1.8,0,0,1,2.23.12Z"/>
    <path class="cls-6" d="M45.32,97.35H41.71c-.59-.88-1.23-1.89-1.87-3h0a52.26,52.26,0,0,1-3.31-6.92,7.89,7.89,0,0,0,3.71-.2A58,58,0,0,0,45.32,97.35Z"/>
    <path class="cls-4" d="M44.91,22.75a1.34,1.34,0,0,1-.34,2.1c-.79.38-1.64.91-2.67,1.53a.1.1,0,0,0,0,0,1.61,1.61,0,0,0-2.34.48l-2.19,3.69.21-3.45a1.67,1.67,0,0,0-1.35-1.76,1.61,1.61,0,0,0-1.87,1.48l-.22,3.77-1.8-4.08a1.75,1.75,0,0,0-1.23-1c-1.19-1.34-2.08-2.32-2.53-2.78a1.36,1.36,0,0,1,.1-2,1.45,1.45,0,0,1,1.89.14l2.14,2.13-1.13-3.22A1.35,1.35,0,0,1,32.44,18a1.42,1.42,0,0,1,1.7.92l.34,1h0l.92,2.6.43-3.17a1.37,1.37,0,0,1,1.68-1.14l.06,0,.13,0a1.46,1.46,0,0,1,.84,1.52l-.41,2.91,2.06-2.93h0l0-.05a1.38,1.38,0,0,1,2-.26,1.41,1.41,0,0,1,.18,1.87L40.52,24l2.64-1.47A1.43,1.43,0,0,1,44.91,22.75Z"/>
    <path class="cls-5" d="M45.37,83.15,43.72,85a7.76,7.76,0,0,1-3.49,2.23,7.89,7.89,0,0,1-3.71.2,7.78,7.78,0,0,1-2.79-1.11l-1.34-.87a2.69,2.69,0,0,1,1.85-1.69A2.51,2.51,0,0,1,36,84a1,1,0,0,0,1.32-.38,1.92,1.92,0,0,1,1-.76,2.06,2.06,0,0,1,1.93.37,1,1,0,0,0,1.31-.12,2.51,2.51,0,0,1,1.3-.75,2.67,2.67,0,0,1,2.54.78Z"/>
    <path class="cls-5" d="M41.41,65,39.5,66.6a7.47,7.47,0,0,1-2.72,1.45,7.76,7.76,0,0,1-7.34-1.59L28.23,65.4A2.67,2.67,0,0,1,30.31,64a2.48,2.48,0,0,1,1.68.52,1,1,0,0,0,1.35-.19,2,2,0,0,1,1.1-.61,2.06,2.06,0,0,1,1.85.65,1,1,0,0,0,1.32.07A2.62,2.62,0,0,1,39,63.9,2.67,2.67,0,0,1,41.41,65Z"/>
    <path class="cls-5" d="M37.87,15.28a.76.76,0,0,1,0,.15l-.29,2.74h0l-.06,0a1.37,1.37,0,0,0-1.68,1.14l-.43,3.17-.92-2.6h0l.5-4.73a1.45,1.45,0,0,1,2.89.16Z"/>
    <path class="cls-6" d="M36.78,68.06A48.36,48.36,0,0,0,37,73.64a1.8,1.8,0,0,0-1.17,2l.6,4.2-2.84-4a50.2,50.2,0,0,1-.38-7.52h0a7.76,7.76,0,0,0,3.58-.21Z"/>
  </g>
</svg>
