<?xml version="1.0" encoding="utf-8"?>
<!-- Generator: Adobe Illustrator 23.1.1, SVG Export Plug-In . SVG Version: 6.00 Build 0)  -->
<svg version="1.1" id="Layer_1" xmlns="http://www.w3.org/2000/svg" xmlns:xlink="http://www.w3.org/1999/xlink" x="0px" y="0px"
	 viewBox="0 0 108 108" style="enable-background:new 0 0 108 108;" xml:space="preserve">
<style type="text/css">
	.st0{fill:none;stroke:#708530;stroke-width:1.0127;stroke-miterlimit:10;}
	.st1{fill:#72AA3A;}
	.st2{fill:#3F8133;}
	.st3{fill:#678B2B;}
	.st4{fill:#B0CC36;}
	.st5{fill:#639D3C;}
	.st6{fill:#A6BD39;}
	.st7{fill:#84B53A;}
	.st8{fill:#A5C939;}
	.st9{fill:#64791A;}
	.st10{fill:#81842A;}
	.st11{fill:#8BAC30;}
	.st12{fill:#758A27;}
	.st13{fill:#598A34;}
	.st14{fill:#406C25;}
	.st15{fill:#4F7E2E;}
	.st16{fill:#5C8E36;}
	.st17{fill:#BCC532;}
	.st18{fill:#A6BE36;}
	.st19{fill:#94B93D;}
	.st20{fill:#A0B33A;}
	.st21{fill:#6B7F22;}
	.st22{fill:none;stroke:#CCCB2B;stroke-width:0.25;stroke-miterlimit:10;}
	.st23{fill:#CACA2C;}
	.st24{fill:none;stroke:#000000;stroke-width:0.25;stroke-miterlimit:10;}
	.st25{fill:#A2C073;}
</style>
<g>
<path class="st0" d="M72.6,77.6c-0.1-2.5-1.1-7-1.8-10.3"/>
<path class="st0" d="M79.3,74.3C76,73,71.7,70,69.6,66.7"/>
<path class="st0" d="M80.4,67.8c-3.8,1.8-6.9,3.9-9.5,0.1"/>
<path class="st0" d="M65.2,60.6c-4-3.1-7.8-7.2-9.3-10.8"/>
<path class="st0" d="M57,63.5c0.5-5.2-1-13.2-1.2-14.9"/>
<path class="st0" d="M64.1,53.6c-3.1,1-4.9,2.5-7.9-2.7"/>
<path class="st1" d="M67.2,82.5c-0.3-2-1.3-2.4,2-6l3.4-3.6c0,0,0.7,0.8,1.4,1.6c0.8,0.9,4.1,3.8,2.6,7.2c-1.5,3.4-2.8,5.3-3.3,5.8
	c-0.5,0.5-1.8,2.7-2.2,3.2"/>
<path class="st2" d="M90.8,83.5c-2.4-1-6,1.2-8.9-0.9c-3-2.1-4.7-7.2-5.4-8.7c-0.7-1.5-1.9-0.8,0.9-0.9c2.8-0.1,3-1,5.4-0.4
	c2.4,0.6,5.8,4.2,6,5.7C89,79.8,90.8,83.5,90.8,83.5"/>
<path class="st3" d="M76.2,69.9c0.7,0,1.5,0.6,5.1,0.6c3.5,0.1,6.3-0.3,6.9-3c0.6-2.7-0.3-3.2,1.3-5l1.5-1.8c0,0-3-0.1-7.3,0
	c-4.2,0.1-6.2,4.4-6.7,6.2C76.4,68.8,76.2,69.9,76.2,69.9"/>
<path class="st4" d="M74.3,69.9c0,0-1.6-1.8-5-1.8c-3.3,0-7-1.7-7-5.2c0-3.5-1.1-5.5-1.1-5.5S61.1,58,64,57.7c2.9-0.2,7,1.8,8.2,4.6
	C73.4,65.3,74.3,69.9,74.3,69.9"/>
<path class="st5" d="M54.3,74.4c0,0,4.3-4.3,5.6-7.2c1.3-2.9,1.7-4.6,0-6.7c-1.7-2.1-2.3-3.7-2.3-3.7s-2.4,3.6-4,4.4
	C52,62,50.2,65,51.1,66.7C51.9,68.5,54.3,74.4,54.3,74.4"/>
<path class="st6" d="M61,54.6c0,0.1,2.6,1.1,5.6,1.5s4.7,0.3,5.9-1.2c1.2-1.5,2-3.1,2.9-4.9c0.9-1.8,1-2.5,1.7-2.7
	c0.7-0.2-0.9,0.6-4.3-0.2c-3.4-0.8-5-1.8-6.4-0.7c-1.4,1.1-1.4,3.1-2.5,4.8C62.8,52.8,61,54.6,61,54.6"/>
<path class="st0" d="M28.7,75.8c2.4-0.7,6.6-2.8,9.5-4.2"/>
<path class="st0" d="M33.5,81.5c0.5-3.6,2.4-8.4,5-11.3"/>
<path class="st0" d="M40.1,81c-2.7-3.2-5.5-5.8-2.5-9.2"/>
<path class="st0" d="M43.4,64.5c2-4.6,5.1-9.3,8.2-11.7"/>
<path class="st0" d="M38.5,57.3c5.2-0.8,12.6-4.2,14.2-4.8"/>
<path class="st0" d="M49.9,61.7c-1.7-2.8-3.6-4.1,0.6-8.3"/>
<path class="st7" d="M30.5,64.9c1.9-0.8,2-1.9,6.3,0.5l4.3,2.4c0,0-0.6,0.8-1.2,1.8c-0.7,1-2.7,4.9-6.4,4.3
	c-3.7-0.6-5.8-1.4-6.4-1.8c-0.6-0.4-3-1.1-3.6-1.3"/>
<path class="st8" d="M34.7,90.7c0.4-2.6-2.6-5.5-1.3-8.9c1.3-3.4,5.9-6.3,7.1-7.3c1.3-1,0.3-2.1,1.1,0.6c0.7,2.7,1.7,2.6,1.7,5.1
	c0,2.5-2.7,6.6-4.1,7.2C37.8,88.1,34.7,90.7,34.7,90.7"/>
<path class="st3" d="M37,77.4c0.2,0.7-0.2,1.6,0.6,5.1c0.8,3.4,1.9,6,4.6,6c2.8-0.1,3.1-1,5.1,0l2.1,1c0,0-0.7-3-1.8-7
	c-1.1-4.1-5.8-4.9-7.6-5C38.2,77.4,37,77.4,37,77.4"/>
<path class="st9" d="M36.5,75.6c0,0,1.3-2,0.5-5.2c-0.8-3.2-0.1-7.2,3.3-8c3.4-0.9,5-2.4,5-2.4s-0.5,0.1,0.4,2.8
	c0.9,2.8,0,7.2-2.5,9.1C40.8,73.5,36.5,75.6,36.5,75.6"/>
<path class="st5" d="M27.3,57.3c0,0,5.2,3.1,8.4,3.7c3.1,0.6,4.9,0.5,6.5-1.7c1.6-2.2,3-3.2,3-3.2s-4.1-1.5-5.3-2.8
	c-1.2-1.3-4.5-2.3-6-1.1C32.4,53.5,27.3,57.3,27.3,57.3"/>
<path class="st6" d="M48.1,58.9c-0.1,0-0.5,2.8-0.1,5.8c0.4,3,0.8,4.6,2.6,5.4c1.8,0.8,3.5,1.2,5.4,1.6c1.9,0.4,2.7,0.3,3,1
	c0.3,0.6-0.8-0.7-0.8-4.2c0-3.5,0.5-5.3-0.9-6.3c-1.4-1.1-3.4-0.5-5.2-1.2C50.3,60.2,48.1,58.9,48.1,58.9"/>
<path class="st0" d="M36,32.8c0.8,2.4,3.1,6.4,4.7,9.3"/>
<path class="st0" d="M30.6,37.9c3.6,0.3,8.5,1.9,11.5,4.4"/>
<path class="st0" d="M31.4,44.5c3.1-2.9,5.5-5.8,9.1-2.9"/>
<path class="st0" d="M48,46.9c4.7,1.8,9.6,4.6,12.1,7.6"/>
<path class="st0" d="M55,41.6c1.1,5.1,4.8,12.4,5.5,13.9"/>
<path class="st0" d="M51.2,53.2c2.7-1.8,3.9-3.8,8.4,0.2"/>
<path class="st1" d="M39.7,26.5c0.9,1.8,2,1.9-0.2,6.3l-2.2,4.4c0,0-0.9-0.5-1.9-1.1c-1-0.6-5-2.4-4.6-6.1c0.4-3.7,1.1-5.9,1.4-6.5
	c0.3-0.7,1-3.1,1.2-3.7"/>
<path class="st7" d="M16.9,32.4c2.6,0.3,5.3-2.9,8.8-1.8c3.4,1.1,6.6,5.5,7.7,6.7c1.1,1.2,2.1,0.2-0.6,1.1c-2.7,0.9-2.5,1.8-5,2
	c-2.5,0.2-6.8-2.3-7.4-3.7C19.6,35.5,16.9,32.4,16.9,32.4"/>
<path class="st3" d="M34.8,41.2c-0.7,0.2-1.7-0.1-5,0.9c-3.4,1-5.9,2.2-5.7,4.9c0.2,2.7,1.2,3,0.3,5.1l-0.9,2.1c0,0,2.9-0.8,6.9-2.1
	c4-1.3,4.6-6,4.6-7.9C34.9,42.3,34.8,41.2,34.8,41.2"/>
<path class="st4" d="M36.6,40.6c0,0,2.1,1.2,5.3,0.3c3.2-1,7.2-0.5,8.2,2.9c1,3.4,2.7,4.9,2.7,4.9s-0.1-0.5-2.8,0.6
	c-2.7,1.1-7.2,0.4-9.2-2C38.9,44.8,36.6,40.6,36.6,40.6"/>
<path class="st5" d="M54.4,30.5c0,0-2.8,5.4-3.2,8.5c-0.4,3.2-0.2,4.9,2,6.4c2.2,1.5,3.3,2.9,3.3,2.9s1.3-4.1,2.5-5.4
	c1.3-1.3,2.1-4.6,0.8-6C58.5,35.4,54.4,30.5,54.4,30.5"/>
<path class="st10" d="M53.8,51.4c0-0.1-2.8-0.3-5.8,0.2c-3,0.5-4.6,1-5.3,2.9c-0.7,1.8-1,3.6-1.3,5.5c-0.3,1.9-0.2,2.7-0.8,3
	c-0.6,0.4,0.7-0.9,4.1-1c3.5-0.2,5.3,0.2,6.3-1.2c1-1.5,0.4-3.4,1-5.3C52.6,53.5,53.8,51.4,53.8,51.4"/>
<path class="st0" d="M80.6,38.6c-2.5,0.4-6.8,2-9.9,3.2"/>
<path class="st0" d="M76.4,32.5c-0.9,3.5-3.2,8.1-6.2,10.7"/>
<path class="st0" d="M69.8,32.3c2.3,3.5,4.9,6.3,1.5,9.4"/>
<path class="st0" d="M64.8,48.3c-2.5,4.4-6,8.8-9.4,10.7"/>
<path class="st0" d="M68.9,56.1c-5.2,0.3-13,2.8-14.6,3.3"/>
<path class="st0" d="M58,50.4c1.4,2.9,3.1,4.5-1.5,8.2"/>
<path class="st1" d="M86.2,43.3C84.3,43.9,84,45,80,42.2l-4-2.8c0,0,0.7-0.8,1.4-1.7c0.8-0.9,3.2-4.6,6.8-3.6c3.6,1,5.6,2,6.2,2.4
	c0.6,0.4,2.9,1.4,3.5,1.7"/>
<path class="st11" d="M83.9,19.8c-0.7,2.6,2,5.7,0.4,9c-1.6,3.2-6.5,5.6-7.9,6.5c-1.4,0.9-0.6,2-1-0.7c-0.4-2.8-1.4-2.8-1.2-5.3
	c0.2-2.5,3.3-6.3,4.8-6.8C80.5,22.1,83.9,19.8,83.9,19.8"/>
<path class="st7" d="M72.4,36.2c-0.1-0.7,0.4-1.6-0.1-5.1c-0.4-3.5-1.2-6.2-4-6.4c-2.7-0.2-3.2,0.7-5.1-0.5l-2-1.2c0,0,0.3,3,1,7.2
	c0.7,4.2,5.2,5.5,7.1,5.8C71.3,36.1,72.4,36.2,72.4,36.2"/>
<path class="st4" d="M72.8,38.1c0,0-1.6,1.9-1.1,5.2c0.5,3.3-0.7,7.1-4.1,7.6c-3.5,0.5-5.2,1.9-5.2,1.9s0.5,0-0.1-2.8
	c-0.6-2.8,0.8-7.2,3.4-8.7C68.3,39.6,72.8,38.1,72.8,38.1"/>
<path class="st5" d="M80,57.2c0,0-4.9-3.6-7.9-4.5c-3.1-0.9-4.8-1-6.6,1c-1.8,2-3.4,2.8-3.4,2.8s3.9,1.9,5,3.3
	c1.1,1.5,4.2,2.8,5.8,1.7C74.5,60.4,80,57.2,80,57.2"/>
<path class="st12" d="M59.4,53.4c0.1,0,0.7-2.7,0.7-5.8c-0.1-3.1-0.3-4.7-2-5.7c-1.7-1-3.4-1.5-5.3-2.1c-1.9-0.6-2.6-0.6-2.9-1.3
	c-0.3-0.7,0.7,0.8,0.4,4.2c-0.4,3.4-1,5.2,0.2,6.4c1.3,1.2,3.3,0.9,5.1,1.8C57.5,51.9,59.4,53.4,59.4,53.4"/>
<path class="st1" d="M55.9,66.4c-0.1-2.5-1.1-7-1.8-10.3"/>
<path class="st1" d="M62.6,63.2c-3.3-1.3-7.6-4.4-9.7-7.6"/>
<path class="st1" d="M63.7,56.6c-3.8,1.8-6.9,3.9-9.5,0.1"/>
<path class="st1" d="M48.5,49.4c-4-3.1-7.8-7.2-9.3-10.8"/>
<path class="st1" d="M40.3,52.4c0.5-5.2-1-13.2-1.2-14.9"/>
<path class="st1" d="M47.4,42.5c-3.1,1-4.9,2.5-7.9-2.7"/>
<path class="st13" d="M50.5,71.4c-0.3-2-1.3-2.4,2-6l3.4-3.6c0,0,0.7,0.8,1.4,1.6c0.8,0.9,4.1,3.8,2.6,7.2c-1.5,3.4-2.8,5.3-3.3,5.8
	c-0.5,0.5-1.8,2.7-2.2,3.2"/>
<path class="st1" d="M74.1,72.4c-2.4-1-6,1.2-8.9-0.9c-3-2.1-4.7-7.2-5.4-8.7c-0.7-1.5-1.9-0.8,0.9-0.9c2.8-0.1,3-1,5.4-0.4
	c2.4,0.6,5.8,4.2,6,5.7C72.3,68.7,74.1,72.4,74.1,72.4"/>
<path class="st14" d="M59.5,58.7c0.7,0,1.5,0.6,5.1,0.6c3.5,0.1,6.3-0.3,6.9-3c0.6-2.7-0.3-3.2,1.3-5l1.5-1.8c0,0-3-0.1-7.3,0
	c-4.2,0.1-6.2,4.4-6.7,6.2C59.7,57.6,59.5,58.7,59.5,58.7"/>
<path class="st1" d="M57.6,58.8c0,0-1.6-1.8-5-1.8c-3.3,0-7-1.7-7-5.2c0-3.5-1.1-5.5-1.1-5.5s-0.1,0.5,2.8,0.3
	c2.9-0.2,7,1.8,8.2,4.6C56.7,54.1,57.6,58.8,57.6,58.8"/>
<path class="st15" d="M37.6,63.2c0,0,4.3-4.3,5.6-7.2c1.3-2.9,1.7-4.6,0-6.7c-1.7-2.1-2.3-3.7-2.3-3.7s-2.4,3.6-4,4.4
	c-1.6,0.8-3.3,3.8-2.5,5.5C35.2,57.3,37.6,63.2,37.6,63.2"/>
<path class="st16" d="M44.3,43.4c0,0.1,2.6,1.1,5.6,1.5c3.1,0.4,4.7,0.3,5.9-1.2c1.2-1.5,2-3.1,2.9-4.9c0.9-1.8,1-2.5,1.7-2.7
	c0.7-0.2-0.9,0.6-4.3-0.2c-3.4-0.8-5-1.8-6.4-0.7c-1.4,1.1-1.4,3.1-2.5,4.8C46.1,41.7,44.3,43.4,44.3,43.4"/>
<path class="st17" d="M35.4,30.9c0,0,2,0.2,3.9,0.8s3.4,1.4,3.9,2.9c0.5,1.5,0.2,3.2,0,3.9c-0.2,0.7-1.4,2.7-1.4,2.7h-3.7
	c0,0-3.5-0.5-4.4-1.4s-2.4-2.7-1.5-3.8C33,35,35.4,30.9,35.4,30.9z"/>
<path class="st18" d="M41.8,41.2c1.5-0.8,2.4-5.2,4.1-5.2c1.7,0.1,4.1,1.9,4.6,2.6c0.5,0.7-0.2,3.1,0,5.1c0.2,2,0.3,2.7-0.8,2.9
	c-1.2,0.2-3.2-0.2-4.6-0.7c-1.4-0.5-3.2-1-3.2-1V41.2z"/>
<path class="st18" d="M38.1,41.2c0,0-4.4-1.5-6.2-1.5c-1.8,0-3.8,0-4.1,1.7c-0.3,1.7-2.7,3.3-1,5.3s1.4,3,2.5,3.2s3.7-0.2,4.6-0.7
	c0.8-0.5,3.2-2.5,3.2-2.5s0.5-1.4,1-1.9S38.1,41.2,38.1,41.2z"/>
<path class="st19" d="M41.8,45c0,0,2.7,1.8,5.2,1.7c2.5,0,2.5,1.7,1.7,3.2c-0.8,1.5-0.8,3.8-3.2,4.2s-4.6-0.2-4.7-1.2
	c-0.2-1-1.5-4.4-1.5-4.4v-1.8L41.8,45z"/>
<path class="st20" d="M33.8,47.7c0,0-2.2,2.4-2.7,3.5s-0.8,4.1,0,4.9c0.8,0.8,1,1.4,2.7,1.2c1.7-0.2,4.6-0.3,5.4-1.5
	c0.8-1.2,1.6-3.2,0.8-5.2c-0.8-2.1-0.8-2.1-0.8-2.1L37,46.7L33.8,47.7z"/>
<path class="st21" d="M37.6,40.1c-0.2,0-1.8,0.9-2.1,1.3S34.9,44,34.9,44s0.9,1.5,1,2.4c0.1,0.9-1.1,1.3,0,2c1.1,0.8,2,0.9,2,0.9
	S36.2,49,36.7,50c0.5,1-0.3,1.3,0.9,1.4s2.5,0,3.1-0.4c0.6-0.4,2.1-1.9,2.1-1.9s1.4-2.2,2-2.8c0.6-0.6,1.4-1.5,1.3-2.1
	c-0.1-0.6-0.7,0.2-1.3-0.6c-0.6-0.8-0.3-0.4-1.3-1.7c-1-1.2-1.5-1.9-2.2-1.9c-0.6,0-1.7-0.2-1.7-0.2L37.6,40.1z"/>
<polyline class="st22" points="36,45 39.7,45 36,43.7 "/>
<polyline class="st22" points="41.8,43.7 39.7,45 38.7,42.5 40.4,43.7 40.9,41.2 "/>
<polyline class="st22" points="38.3,47.7 39.7,45 37,46.7 "/>
<line class="st22" x1="39.7" y1="45" x2="40.4" y2="46.7"/>
<line class="st22" x1="40.6" y1="45" x2="41.8" y2="45.8"/>
<path class="st23" d="M37.9,38c0.5,0.1,0.6,0.4,0.5,0.7s-0.2,0.4-0.5,0.6c-0.3,0.2-0.6,0.3-0.8,0c-0.3-0.3-0.3-0.3-0.3-0.3L37.9,38z
	"/>
<path class="st23" d="M40.6,38c0.1,0.1,0.7,0.1,0.8,0.3c0.1,0.2,0.6-0.1,0.3,0.5c-0.3,0.6-0.6,0.7-0.6,0.7s-1-0.1-1.2-0.3
	s-0.4-0.2-0.3-0.4C39.8,38.5,40.6,38,40.6,38z"/>
<path class="st23" d="M38.4,38.7c0.8,0.4,1.7,0.5,1.7,0.5s0.2,0.7,0,1s0.3,0.5-0.3,0.6c-0.6,0.1-1.3,0.3-1.3,0
	c0-0.3-0.1-0.9-0.1-0.9L38.4,38.7z"/>
<path class="st23" d="M35.5,39.5c0.4,0.3,0.9,0,0.9,0.7c0,0.6,0.6,0.1,0,0.6s-1.1,0.7-1.2,0.5c-0.2-0.2-0.7-0.6-0.7-0.8
	C34.6,40.2,35.5,39.5,35.5,39.5z"/>
<path class="st23" d="M34.6,42.2c0.1,0.1,0.4,1,0.2,1.2s-0.4,0.1-0.9,0.3c-0.5,0.1-1,0.6-0.9,0S33.8,41.8,34.6,42.2z"/>
<path class="st23" d="M36.7,42.1l-0.2,1c0,0-0.3,0.8-1,0.6s-1-1.5-0.2-1.6C36,42.1,36.7,42.1,36.7,42.1z"/>
<path class="st23" d="M33.9,45c0,0.2,0.4,1,0.6,0.9c0.2-0.1,1.5-0.9,1.2-1.5s-0.9-0.5-1.2-0.3C34.3,44.2,33.9,45,33.9,45z"/>
<path class="st23" d="M35.2,46.3c0.2,0,0.6,0.3,0.8,0.7c0.2,0.4,0.2,0.4-0.3,0.7c-0.4,0.4,0,0.8-0.9,0.4c-1-0.5-0.8,0.3-1-0.5
	s-0.1-1.4,0-1.3C33.9,46.4,35.2,46.3,35.2,46.3z"/>
<path class="st23" d="M36.1,46.1c0.2-0.1,0.6-0.2,1,0c0.5,0.2,0.7,0.6,0.7,0.6l-0.2,1l-0.9,0.2C36.8,47.9,35.3,46.7,36.1,46.1z"/>
<path class="st23" d="M36.4,48.5c-0.2,0-0.7,0.5-0.7,0.5s-0.3,0.7,0,0.9s1,0.4,1,0.4l0.8-0.7c0,0-0.1-0.5-0.2-0.6
	S36.9,48.5,36.4,48.5z"/>
<path class="st23" d="M38.1,48.3c0,0,0.3-0.2,0.9,0c0.5,0.2,0.8,0.1,0.8,0.8c-0.1,0.7,0.3,0.8-0.3,0.9s-1,0.2-1.1,0
	s-0.5-0.2-0.4-0.6C38,49,38.1,48.3,38.1,48.3z"/>
<path class="st23" d="M41.5,46.5c-0.1-0.1-1.5,0.1-1.2,0.7c0.2,0.6,0.1,1.1,0.6,1.1c0.5,0,0.5,0.4,0.9,0c0.4-0.4,0.6-0.3,0.5-0.6
	c-0.1-0.3,0.1-0.4-0.2-0.7S41.5,46.5,41.5,46.5z"/>
<path class="st23" d="M37.6,42.1c-0.1,0.1-0.4,0.2-0.1,0.6c0.3,0.4-0.2,0.6,0.5,0.6c0.7-0.1,0.7-0.1,1.1-0.3c0.4-0.1,1-0.2,0.8-0.6
	c-0.2-0.4-0.4-0.6-0.5-0.7s0.4-0.3-0.5-0.2C37.9,41.7,37.6,42.1,37.6,42.1z"/>
<path class="st23" d="M42.5,41.9c-0.2,0-0.9,0.2-1,0.5c-0.1,0.3-0.4,1.5,0.8,1.3c1.1-0.3,1.3-0.4,1.1-0.9
	C43.2,42.4,42.5,41.9,42.5,41.9z"/>
<path class="st23" d="M42.8,44.8c0,0-1.2,0.2-0.7,1.1c0.5,1,1.5,1.1,1.5,1c0-0.2,0.3-0.4,0.3-0.9c0-0.4,0.2-0.5,0-0.7
	C43.8,45.2,42.8,44.8,42.8,44.8z"/>
<path class="st23" d="M43.9,43.6c-0.4,0.2-0.6-0.1-0.7,0.5c-0.1,0.5-0.3,0.8,0,0.9c0.3,0.1,0.2,0.5,0.8,0.4c0.6,0,0.8,0.2,0.9-0.2
	s0.4-0.8,0.2-1.1c-0.3-0.3-0.2-0.5-0.4-0.5C44.5,43.6,43.9,43.6,43.9,43.6z"/>
<path class="st23" d="M44.4,41.2c-0.2,0.1-0.6,0.4-0.6,0.6c0,0.3-0.3,0.1,0,0.5c0.3,0.4,0.5,0.6,0.7,0.5s0.5-0.4,0.6-0.5
	c0.2-0.1,0.4-0.2,0.2-0.5c-0.2-0.3-0.1-0.4-0.4-0.6C44.7,41.2,44.4,41.2,44.4,41.2z"/>
<path class="st23" d="M42.3,39.5c0.1,0,0.9,0.6,1,0.9s0.1,0.9-0.2,0.8s-1.3,0.3-1.6-0.3s-0.2-1.4,0.6-1.4"/>
<path class="st17" d="M56.5,37.5c0,0,1.3-1.6,2.9-2.7c1.6-1.1,3-2,4.6-1.5c1.5,0.5,2.7,1.7,3.2,2.2c0.5,0.5,1.4,2.7,1.4,2.7l-2.1,3
	c0,0-2.5,2.6-3.6,2.8s-3.6,0.4-4-0.9C58.5,41.7,56.5,37.5,56.5,37.5z"/>
<path class="st18" d="M68.7,38.1c0.2-1.7-2.9-4.9-1.9-6.3c1-1.3,3.9-2.3,4.7-2.3s2.4,1.9,4.2,2.9c1.8,1,2.4,1.3,1.9,2.3
	c-0.5,1.1-2,2.5-3.2,3.3c-1.2,0.8-2.7,2-2.7,2L68.7,38.1z"/>
<path class="st18" d="M66.5,41.2c0,0-3.8,2.7-4.8,4.2c-1,1.5-2.2,3.1-1,4.4c1.2,1.3,1.2,4.1,3.8,3.9c2.6-0.2,3.2,0.6,4-0.3
	c0.8-0.9,2-3.1,2.1-4.1c0.1-1-0.2-4.1-0.2-4.1s-0.8-1.2-1-1.9S66.5,41.2,66.5,41.2z"/>
<path class="st19" d="M71.7,40.3c0,0,3-1.2,4.4-3.3s2.9-1.1,3.6,0.5c0.7,1.5,2.7,2.9,1.6,5s-2.8,3.6-3.7,3.2
	c-0.9-0.4-4.5-1.3-4.5-1.3l-1.5-1L71.7,40.3z"/>
<path class="st20" d="M69.4,48.3c0,0,0.7,3.2,1.4,4.3s2.8,3,4,2.8s1.7-0.1,2.5-1.5c0.8-1.5,2.3-3.9,1.9-5.3
	c-0.5-1.4-1.7-3.1-3.8-3.6c-2.1-0.5-2.1-0.5-2.1-0.5l-2.7,0.8L69.4,48.3z"/>
<path class="st21" d="M65.3,40.9c-0.1,0.2-0.2,2-0.1,2.5s1.8,2,1.8,2s1.7,0.1,2.5,0.6s0.4,1.6,1.7,1.2c1.3-0.5,1.9-1.1,1.9-1.1
	s-1.3,1.1-0.2,1.3c1.1,0.2,0.9,1,1.7,0.1c0.8-0.9,1.4-2,1.4-2.7c0-0.7-0.4-2.8-0.4-2.8s-1-2.4-1.1-3.2c-0.2-0.8-0.5-2-1-2.3
	c-0.6-0.3-0.2,0.7-1.3,0.7s-0.5,0-2.1,0.1c-1.6,0.1-2.4,0.2-2.8,0.7c-0.4,0.5-1.1,1.3-1.1,1.3L65.3,40.9z"/>
<polyline class="st22" points="68.4,45 70.6,41.9 67.4,44.2 "/>
<polyline class="st22" points="70.7,39.5 70.6,41.9 68,41.3 69.9,40.7 68.2,38.8 "/>
<polyline class="st22" points="72,44.7 70.6,41.9 70.4,45.1 "/>
<line class="st22" x1="70.6" y1="41.9" x2="72.3" y2="42.4"/>
<line class="st22" x1="71.1" y1="41.2" x2="72.4" y2="40.8"/>
<path class="st23" d="M63.8,39.4c0.4-0.3,0.6-0.2,0.9,0c0.2,0.2,0.2,0.4,0.2,0.7s0,0.7-0.5,0.7c-0.4,0-0.4,0-0.4,0L63.8,39.4z"/>
<path class="st23" d="M65.4,37.2c0.1-0.1,0.5-0.5,0.7-0.5c0.2,0,0.3-0.6,0.6,0c0.3,0.5,0.3,0.9,0.3,0.9s-0.7,0.8-0.9,0.8
	s-0.4,0.2-0.5,0C65.3,38.2,65.4,37.2,65.4,37.2z"/>
<path class="st23" d="M64.7,39.4c0.8-0.4,1.3-1.1,1.3-1.1s0.7,0.3,0.8,0.6s0.6,0,0.3,0.6s-0.5,1.3-0.8,1.1c-0.3-0.2-0.8-0.4-0.8-0.4
	L64.7,39.4z"/>
<path class="st23" d="M63.6,42.3c0.5-0.2,0.5-0.7,1.1-0.4c0.5,0.3,0.4-0.4,0.5,0.3c0.1,0.7,0,1.3-0.3,1.3c-0.3,0-0.9,0.2-1.1,0.1
	C63.7,43.4,63.6,42.3,63.6,42.3z"/>
<path class="st23" d="M65.3,44.6c0.1-0.1,1,0.2,1.2,0.5c0.1,0.3-0.1,0.4-0.3,0.9c-0.2,0.5-0.1,1.2-0.5,0.7S64.5,45,65.3,44.6z"/>
<path class="st23" d="M66.5,42.8l0.7,0.7c0,0,0.5,0.7-0.1,1.2s-1.8-0.1-1.4-0.7C66,43.4,66.5,42.8,66.5,42.8z"/>
<path class="st23" d="M67.2,46.7c0.2,0.1,1.1,0.2,1.1,0s0.1-1.7-0.5-1.8s-0.9,0.5-0.9,0.8S67.2,46.7,67.2,46.7z"/>
<path class="st23" d="M69.1,46.4c0.1-0.1,0.6-0.3,1-0.3c0.4,0,0.4,0.1,0.5,0.6c0,0.6,0.7,0.4-0.2,1s-0.2,0.9-0.9,0.5
	s-1.2-0.7-1.1-0.8C68.4,47.5,69.1,46.4,69.1,46.4z"/>
<path class="st23" d="M69.4,45.5c0-0.2,0.1-0.6,0.6-0.8c0.5-0.2,0.9-0.3,0.9-0.3l0.7,0.8L71.2,46C71.2,46,69.4,46.6,69.4,45.5z"/>
<path class="st23" d="M71.5,46.7c-0.1,0.2,0,0.9,0,0.9s0.4,0.6,0.8,0.5c0.4-0.1,0.8-0.6,0.8-0.6L73,46.5c0,0-0.4-0.2-0.6-0.2
	C72.2,46.2,71.8,46.2,71.5,46.7z"/>
<path class="st23" d="M72.3,45.2c0,0,0-0.4,0.5-0.7c0.5-0.3,0.6-0.6,1.1-0.2c0.5,0.4,0.8,0.3,0.5,0.8S74,45.9,73.8,46
	c-0.2,0-0.4,0.3-0.7,0S72.3,45.2,72.3,45.2z"/>
<path class="st23" d="M72.8,41.3c-0.1,0-0.8,1.2-0.2,1.4c0.6,0.2,0.9,0.5,1.2,0.1s0.6-0.2,0.5-0.7c-0.1-0.5,0.1-0.7-0.2-0.7
	s-0.2-0.3-0.6-0.2S72.8,41.3,72.8,41.3z"/>
<path class="st23" d="M67,42c0,0.2,0,0.5,0.4,0.5c0.5,0,0.4,0.6,0.7,0s0.3-0.7,0.4-1c0.1-0.4,0.3-0.9-0.1-1c-0.4-0.1-0.7,0-0.9,0
	c-0.2,0-0.1-0.5-0.5,0.3C66.8,41.6,67,42,67,42z"/>
<path class="st23" d="M69.6,37.9c-0.1,0.1-0.3,0.8-0.2,1.1s1,1.2,1.5,0.1c0.4-1.1,0.4-1.3-0.1-1.4C70.4,37.6,69.6,37.9,69.6,37.9z"
	/>
<path class="st23" d="M72.2,39.3c0,0-0.5,1.1,0.5,1.3c1.1,0.2,1.8-0.6,1.6-0.6s-0.2-0.5-0.5-0.8c-0.3-0.3-0.3-0.4-0.5-0.4
	C73.1,38.8,72.2,39.3,72.2,39.3z"/>
<path class="st23" d="M71.8,37.7c-0.1,0.4-0.4,0.4,0,0.8c0.4,0.4,0.5,0.7,0.8,0.6c0.3-0.2,0.5,0.1,0.8-0.4c0.3-0.5,0.7-0.5,0.3-0.9
	c-0.3-0.4-0.4-0.8-0.8-0.8c-0.4,0-0.5-0.1-0.6,0S71.8,37.7,71.8,37.7z"/>
<path class="st23" d="M70.2,36c-0.1,0.2-0.1,0.8,0.2,0.9c0.2,0.1-0.1,0.3,0.4,0.3s0.8,0,0.8-0.3s-0.1-0.6-0.1-0.8
	c0-0.2,0.1-0.4-0.3-0.5c-0.4-0.1-0.4-0.2-0.7,0C70.3,35.7,70.2,36,70.2,36z"/>
<path class="st23" d="M67.5,36.7c0.1-0.1,1-0.4,1.3-0.3c0.3,0.2,0.8,0.4,0.5,0.7s-0.5,1.3-1.2,1.1c-0.7-0.1-1.2-0.6-0.8-1.3"/>
<path class="st17" d="M81.1,55.7c0,0,1.8,1,3.2,2.4c1.4,1.4,2.5,2.7,2.3,4.3s-1.2,3-1.7,3.5c-0.4,0.5-2.4,1.9-2.4,1.9l-3.4-1.6
	c0,0-3-2-3.4-3.1s-1-3.5,0.3-4.1C77.2,58.3,81.1,55.7,81.1,55.7z"/>
<path class="st18" d="M82.5,67.7c1.7-0.1,4.4-3.7,5.9-2.9c1.5,0.8,2.9,3.4,3,4.3c0.2,0.9-1.5,2.7-2.2,4.6s-0.9,2.6-2,2.2
	c-1.1-0.4-2.8-1.5-3.8-2.6c-1-1-2.5-2.3-2.5-2.3L82.5,67.7z"/>
<path class="st18" d="M79.1,66.2c0,0-3.3-3.3-4.9-4c-1.6-0.8-3.4-1.7-4.5-0.3c-1,1.4-3.9,1.8-3.2,4.4c0.7,2.5-0.1,3.3,0.9,3.9
	s3.4,1.4,4.4,1.3s4-0.9,4-0.9s1-1,1.7-1.3S79.1,66.2,79.1,66.2z"/>
<path class="st19" d="M80.9,71.1c0,0,1.7,2.8,4,3.8c2.3,1,1.5,2.7,0.2,3.6c-1.4,1-2.4,3.1-4.7,2.4c-2.3-0.7-4.1-2.1-3.8-3.1
	c0.3-1,0.5-4.6,0.5-4.6l0.8-1.6L80.9,71.1z"/>
<path class="st20" d="M72.6,70.2c0,0-3,1.2-4,2.1c-1,0.9-2.5,3.3-2.1,4.4c0.4,1.1,0.3,1.7,1.9,2.2c1.6,0.6,4.3,1.6,5.5,0.9
	c1.3-0.7,2.8-2.2,2.9-4.4c0.2-2.2,0.2-2.2,0.2-2.2l-1.2-2.6L72.6,70.2z"/>
<path class="st21" d="M79.2,64.9c-0.2,0-2,0.1-2.5,0.3c-0.5,0.2-1.6,2.1-1.6,2.1s0.2,1.7-0.2,2.6s-1.6,0.7-0.9,1.8
	c0.7,1.2,1.4,1.7,1.4,1.7s-1.3-1.1-1.3,0.1c0,1.2-0.8,1,0.2,1.7c1,0.6,2.2,1.1,2.9,0.9s2.7-0.8,2.7-0.8s2.2-1.4,3-1.7
	s1.9-0.8,2.1-1.4c0.2-0.6-0.7-0.1-0.9-1.1c-0.2-1-0.1-0.5-0.4-2c-0.4-1.5-0.6-2.4-1.2-2.7c-0.6-0.3-1.5-0.9-1.5-0.9L79.2,64.9z"/>
<polyline class="st22" points="75.7,68.6 79.1,70.2 76.3,67.5 "/>
<polyline class="st22" points="81.5,70 79.1,70.2 79.2,67.6 80.2,69.4 81.7,67.4 "/>
<polyline class="st22" points="76.6,72.1 79.1,70.2 75.9,70.6 "/>
<line class="st22" x1="79.1" y1="70.2" x2="78.9" y2="72.1"/>
<line class="st22" x1="79.9" y1="70.6" x2="80.5" y2="71.9"/>
<path class="st23" d="M80.4,63.1c0.4,0.3,0.3,0.6,0.1,0.9s-0.4,0.3-0.7,0.3c-0.3,0-0.7,0.1-0.8-0.4C79,63.5,79,63.5,79,63.5
	L80.4,63.1z"/>
<path class="st23" d="M82.9,64.3c0.1,0.1,0.6,0.4,0.6,0.6s0.6,0.2,0.1,0.6c-0.5,0.4-0.8,0.4-0.8,0.4s-0.9-0.6-0.9-0.8
	c-0.1-0.2-0.2-0.3-0.1-0.5C81.9,64.4,82.9,64.3,82.9,64.3z"/>
<path class="st23" d="M80.5,64c0.5,0.7,1.3,1.1,1.3,1.1s-0.1,0.7-0.4,0.9s0.1,0.6-0.5,0.4c-0.6-0.2-1.4-0.3-1.2-0.6
	c0.1-0.3,0.3-0.9,0.3-0.9L80.5,64z"/>
<path class="st23" d="M77.6,63.4c0.3,0.4,0.8,0.4,0.6,1c-0.2,0.6,0.5,0.3-0.2,0.6c-0.7,0.2-1.3,0.2-1.3-0.1
	c-0.1-0.3-0.4-0.9-0.3-1.1C76.4,63.7,77.6,63.4,77.6,63.4z"/>
<path class="st23" d="M75.6,65.5c0.1,0.1,0,1-0.3,1.2c-0.3,0.2-0.4-0.1-0.9-0.2c-0.5-0.1-1.2,0.2-0.8-0.4S75,64.8,75.6,65.5z"/>
<path class="st23" d="M77.5,66.4l-0.6,0.8c0,0-0.6,0.6-1.2,0.1c-0.5-0.5-0.2-1.8,0.4-1.5C76.9,66,77.5,66.4,77.5,66.4z"/>
<path class="st23" d="M73.8,67.7c-0.1,0.2-0.1,1.1,0.2,1.1s1.7-0.2,1.7-0.8c0-0.7-0.6-0.8-1-0.8C74.5,67.2,73.8,67.7,73.8,67.7z"/>
<path class="st23" d="M74.4,69.6c0.1,0.1,0.4,0.5,0.4,0.9c0,0.4,0,0.4-0.6,0.6c-0.6,0.1-0.3,0.8-1-0.1c-0.7-0.8-0.9,0-0.7-0.8
	c0.2-0.8,0.5-1.3,0.6-1.2C73.2,69,74.4,69.6,74.4,69.6z"/>
<path class="st23" d="M75.3,69.7c0.2,0,0.6,0,0.9,0.4c0.3,0.4,0.4,0.9,0.4,0.9L76,71.8l-0.9-0.2C75.1,71.6,74.3,69.9,75.3,69.7z"/>
<path class="st23" d="M74.5,71.9c-0.2-0.1-0.9,0.2-0.9,0.2s-0.5,0.5-0.4,0.8c0.2,0.3,0.7,0.7,0.7,0.7l1.1-0.3c0,0,0.1-0.5,0.1-0.7
	S75,72.2,74.5,71.9z"/>
<path class="st23" d="M76.1,72.5c0,0,0.4-0.1,0.8,0.3c0.4,0.4,0.7,0.5,0.4,1c-0.3,0.6-0.1,0.9-0.7,0.6s-0.9-0.2-1-0.5
	s-0.3-0.4-0.1-0.7C75.7,73.1,76.1,72.5,76.1,72.5z"/>
<path class="st23" d="M80,72.3c0-0.1-1.3-0.6-1.4,0.1c-0.1,0.7-0.3,1,0.1,1.2c0.4,0.2,0.3,0.6,0.8,0.4c0.5-0.2,0.6-0.1,0.7-0.3
	c0-0.3,0.3-0.3,0.1-0.7C80.2,72.6,80,72.3,80,72.3z"/>
<path class="st23" d="M78.3,66.7c-0.2,0-0.5,0-0.4,0.5c0.1,0.5-0.5,0.5,0.2,0.7c0.6,0.2,0.7,0.2,1.1,0.2s1,0.2,1-0.3
	c0-0.4-0.1-0.7-0.1-0.8c-0.1-0.2,0.5-0.1-0.4-0.4C78.8,66.5,78.3,66.7,78.3,66.7z"/>
<path class="st23" d="M82.9,68.7c-0.1-0.1-0.9-0.2-1.1,0c-0.3,0.2-1,1.2,0.1,1.5s1.3,0.1,1.4-0.3S82.9,68.7,82.9,68.7z"/>
<path class="st23" d="M81.9,71.4c0,0-1.2-0.4-1.1,0.7c0,1.1,0.8,1.6,0.9,1.5c0.1-0.1,0.5-0.3,0.7-0.6c0.2-0.4,0.3-0.4,0.3-0.6
	C82.6,72.2,81.9,71.4,81.9,71.4z"/>
<path class="st23" d="M83.4,70.7c-0.4,0-0.5-0.3-0.8,0.1c-0.3,0.4-0.6,0.6-0.4,0.8c0.2,0.3,0,0.5,0.5,0.7c0.5,0.2,0.6,0.6,0.9,0.2
	s0.7-0.6,0.6-1c-0.1-0.4,0-0.5-0.1-0.6C84,71,83.4,70.7,83.4,70.7z"/>
<path class="st23" d="M84.8,68.9c-0.2,0-0.8,0.1-0.8,0.3c-0.1,0.2-0.4,0-0.2,0.5c0.1,0.5,0.1,0.8,0.4,0.8c0.3,0,0.6-0.2,0.8-0.2
	c0.2,0,0.4,0,0.4-0.4s0.1-0.4-0.1-0.7S84.8,68.9,84.8,68.9z"/>
<path class="st23" d="M83.7,66.4c0.1,0.1,0.6,0.9,0.5,1.3c-0.1,0.4-0.2,0.8-0.6,0.6c-0.3-0.2-1.3-0.3-1.3-1c0-0.7,0.4-1.3,1.2-1"/>
<path class="st17" d="M45.5,64c0,0,0.8-1.4,1.9-2.5c1.1-1.1,2.1-2,3.4-1.9s2.4,1,2.8,1.3c0.4,0.3,1.5,1.9,1.5,1.9l-1.2,2.7
	c0,0-1.6,2.4-2.5,2.7c-0.9,0.3-2.8,0.8-3.3-0.2S45.5,64,45.5,64z"/>
<path class="st18" d="M55.2,62.8c-0.1-1.4-3-3.5-2.4-4.7c0.6-1.2,2.7-2.3,3.4-2.5c0.7-0.1,2.2,1.2,3.7,1.7c1.5,0.6,2.1,0.7,1.8,1.6
	s-1.2,2.3-2,3.1c-0.8,0.8-1.8,2-1.8,2L55.2,62.8z"/>
<path class="st25" d="M53.9,65.5c0,0-2.6,2.7-3.2,4c-0.6,1.3-1.3,2.8-0.2,3.6s1.5,3.1,3.5,2.5c2-0.6,2.6,0,3.2-0.8
	c0.5-0.8,1.1-2.8,1-3.5c-0.1-0.8-0.7-3.2-0.7-3.2s-0.8-0.8-1-1.4C56.3,66.2,53.9,65.5,53.9,65.5z"/>
<path class="st19" d="M57.9,64c0,0,2.2-1.4,3-3.2s2.1-1.3,2.9-0.2s2.5,1.9,2,3.7s-1.6,3.3-2.4,3c-0.8-0.2-3.7-0.4-3.7-0.4l-1.3-0.6
	L57.9,64z"/>
<path class="st20" d="M57.2,70.7c0,0,1,2.4,1.7,3.2c0.7,0.8,2.7,2,3.6,1.6c0.9-0.3,1.3-0.3,1.8-1.6c0.4-1.3,1.3-3.4,0.7-4.4
	c-0.6-1-1.8-2.2-3.5-2.3c-1.8-0.1-1.8-0.1-1.8-0.1l-2.1,1L57.2,70.7z"/>
<path class="st21" d="M52.9,65.5c0,0.1,0.1,1.6,0.2,2s1.7,1.3,1.7,1.3s1.4-0.2,2.1,0.1c0.7,0.3,0.5,1.2,1.5,0.7s1.3-1.2,1.3-1.2
	s-0.8,1.1,0.1,1.1s0.8,0.7,1.3-0.2c0.5-0.8,0.8-1.8,0.7-2.4c-0.1-0.6-0.7-2.1-0.7-2.1s-1.1-1.8-1.4-2.4c-0.3-0.6-0.7-1.5-1.1-1.6
	c-0.5-0.1-0.1,0.5-0.9,0.7c-0.8,0.2-0.4,0.1-1.6,0.4c-1.2,0.3-1.9,0.5-2.1,0.9c-0.2,0.5-0.7,1.2-0.7,1.2L52.9,65.5z"/>
<polyline class="st22" points="56,68.2 57.2,65.5 55.1,67.8 "/>
<polyline class="st22" points="57,63.6 57.2,65.5 55.1,65.4 56.5,64.7 54.9,63.4 "/>
<polyline class="st22" points="58.7,67.5 57.2,65.5 57.6,68.1 "/>
<line class="st22" x1="57.2" y1="65.5" x2="58.7" y2="65.7"/>
<line class="st22" x1="57.5" y1="64.9" x2="58.5" y2="64.3"/>
<path class="st23" d="M51.5,64.5c0.2-0.3,0.5-0.3,0.7-0.1c0.2,0.2,0.2,0.3,0.2,0.6s0.1,0.5-0.3,0.6s-0.3,0.1-0.3,0.1L51.5,64.5z"/>
<path class="st23" d="M52.4,62.5c0.1-0.1,0.3-0.5,0.5-0.5c0.2,0,0.1-0.5,0.5-0.1s0.4,0.7,0.4,0.7s-0.4,0.7-0.6,0.7
	c-0.2,0-0.3,0.2-0.4,0.1C52.5,63.3,52.4,62.5,52.4,62.5z"/>
<path class="st23" d="M52.2,64.4c0.6-0.4,0.9-1.1,0.9-1.1s0.6,0.1,0.7,0.3c0.1,0.2,0.5,0,0.3,0.4c-0.2,0.5-0.2,1.1-0.4,1
	C53.4,65,53,64.9,53,64.9L52.2,64.4z"/>
<path class="st23" d="M51.8,66.8c0.3-0.2,0.3-0.6,0.8-0.5c0.5,0.2,0.3-0.4,0.5,0.2c0.2,0.6,0.2,1,0,1.1s-0.7,0.3-0.8,0.2
	C52,67.7,51.8,66.8,51.8,66.8z"/>
<path class="st23" d="M53.5,68.4c0.1-0.1,0.8,0,1,0.2s0,0.3-0.1,0.7c-0.1,0.4,0.1,1-0.3,0.7C53.6,69.7,52.9,68.8,53.5,68.4z"/>
<path class="st23" d="M54.1,66.8l0.6,0.5c0,0,0.5,0.5,0.1,0.9c-0.4,0.4-1.4,0.2-1.2-0.3C53.9,67.3,54.1,66.8,54.1,66.8z"/>
<path class="st23" d="M55.3,69.8c0.2,0,0.9,0,0.8-0.2c0-0.2-0.1-1.4-0.7-1.4c-0.6,0-0.7,0.5-0.6,0.8C54.8,69.2,55.3,69.8,55.3,69.8z
	"/>
<path class="st23" d="M56.7,69.3c0.1-0.1,0.4-0.3,0.7-0.4c0.3,0,0.3,0,0.5,0.4c0.1,0.4,0.6,0.3,0,0.8s0,0.7-0.7,0.6
	c-0.6-0.1-1-0.4-1-0.4S56.7,69.3,56.7,69.3z"/>
<path class="st23" d="M56.8,68.5c0-0.1,0-0.5,0.3-0.7c0.3-0.2,0.7-0.3,0.7-0.3l0.7,0.5l-0.2,0.7C58.3,68.7,57,69.3,56.8,68.5z"/>
<path class="st23" d="M58.6,69.1c-0.1,0.2,0.1,0.7,0.1,0.7s0.4,0.4,0.7,0.3c0.3-0.1,0.6-0.6,0.6-0.6l-0.2-0.8c0,0-0.4-0.1-0.5-0.1
	C59.1,68.7,58.8,68.7,58.6,69.1z"/>
<path class="st23" d="M59.1,67.8c0,0-0.1-0.3,0.3-0.6s0.4-0.6,0.8-0.3s0.7,0.1,0.5,0.5c-0.2,0.4-0.2,0.8-0.4,0.8
	c-0.2,0.1-0.3,0.3-0.5,0.1C59.6,68.2,59.1,67.8,59.1,67.8z"/>
<path class="st23" d="M58.9,64.7c-0.1,0-0.4,1.1,0.1,1.1c0.5,0,0.8,0.2,1-0.1c0.2-0.3,0.4-0.3,0.3-0.7s-0.1-0.5-0.3-0.6
	s-0.2-0.2-0.5-0.1S58.9,64.7,58.9,64.7z"/>
<path class="st23" d="M54.4,66.1c0,0.1,0,0.4,0.4,0.3c0.4-0.1,0.4,0.4,0.6-0.1c0.2-0.5,0.1-0.6,0.2-0.9c0-0.3,0.1-0.8-0.2-0.8
	c-0.3,0-0.6,0.1-0.7,0.1c-0.1,0-0.1-0.4-0.3,0.3C54.2,65.8,54.4,66.1,54.4,66.1z"/>
<path class="st23" d="M55.9,62.5c-0.1,0.1-0.1,0.7,0,0.9c0.2,0.2,1,0.8,1.2-0.1c0.2-0.9,0.1-1.1-0.3-1.1
	C56.5,62.1,55.9,62.5,55.9,62.5z"/>
<path class="st23" d="M58.1,63.2c0,0-0.3,0.9,0.6,0.9c0.9,0,1.3-0.7,1.2-0.7c-0.1-0.1-0.2-0.4-0.5-0.5c-0.3-0.2-0.3-0.3-0.5-0.2
	C58.7,62.7,58.1,63.2,58.1,63.2z"/>
<path class="st23" d="M57.6,62.1c0,0.3-0.2,0.4,0.1,0.6c0.4,0.2,0.5,0.5,0.7,0.3c0.2-0.2,0.4,0,0.6-0.4c0.2-0.4,0.4-0.5,0.1-0.7
	c-0.3-0.2-0.5-0.6-0.8-0.5c-0.3,0.1-0.4,0-0.5,0.1S57.6,62.1,57.6,62.1z"/>
<path class="st23" d="M56.1,60.9c0,0.2,0.1,0.6,0.3,0.7c0.2,0.1,0,0.3,0.4,0.2c0.4-0.1,0.6-0.1,0.6-0.4s-0.1-0.5-0.2-0.6
	c0-0.2,0-0.3-0.3-0.3c-0.3,0-0.3-0.1-0.5,0.1S56.1,60.9,56.1,60.9z"/>
<path class="st23" d="M54.1,61.8c0.1-0.1,0.7-0.5,1-0.4c0.3,0.1,0.7,0.2,0.5,0.4S55.4,63,54.8,63s-1-0.3-0.8-0.9"/>
<path class="st17" d="M37.9,66.1c0,0,1.9,0.1,3.5,0.6c1.7,0.5,3.1,1,3.5,2c0.5,1.1,0.2,2.3,0,2.7c-0.2,0.5-1.2,1.9-1.2,1.9h-3.4
	c0,0-3.2-0.4-4-1c-0.8-0.6-2.2-1.9-1.4-2.7S37.9,66.1,37.9,66.1z"/>
<path class="st18" d="M43.8,73.4c1.4-0.6,2.2-3.7,3.7-3.6s3.7,1.3,4.2,1.8c0.5,0.5-0.2,2.2,0,3.6c0.2,1.4,0.3,1.9-0.8,2
	c-1.1,0.1-2.9-0.1-4.2-0.5c-1.2-0.4-2.9-0.7-2.9-0.7V73.4z"/>
<path class="st18" d="M40.4,73.4c0,0-4-1.1-5.6-1.1s-3.5,0-3.8,1.2c-0.3,1.2-2.5,2.3-0.9,3.7c1.5,1.4,1.2,2.1,2.3,2.2
	s3.4-0.1,4.2-0.5c0.8-0.4,2.9-1.8,2.9-1.8s0.5-1,0.9-1.3C40.8,75.5,40.4,73.4,40.4,73.4z"/>
<path class="st19" d="M43.8,76c0,0,2.5,1.3,4.8,1.2s2.3,1.2,1.5,2.3c-0.8,1-0.8,2.7-2.9,3c-2.2,0.2-4.2-0.1-4.3-0.8
	c-0.2-0.7-1.4-3.1-1.4-3.1v-1.3L43.8,76z"/>
<path class="st20" d="M36.5,77.9c0,0-2,1.7-2.5,2.5c-0.5,0.8-0.8,2.9,0,3.5c0.8,0.6,0.9,1,2.5,0.8c1.5-0.1,4.2-0.2,4.9-1.1
	c0.8-0.8,1.4-2.2,0.7-3.7c-0.7-1.4-0.7-1.4-0.7-1.4l-2-1.3L36.5,77.9z"/>
<path class="st21" d="M39.9,72.6c-0.2,0-1.6,0.7-1.9,0.9c-0.3,0.3-0.5,1.9-0.5,1.9s0.8,1.1,0.9,1.7c0.1,0.7-1,0.9,0,1.4
	s1.8,0.6,1.8,0.6s-1.5-0.3-1.1,0.5c0.4,0.7-0.3,0.9,0.8,1c1.1,0.1,2.2,0,2.8-0.3c0.5-0.3,1.9-1.3,1.9-1.3s1.3-1.5,1.8-2
	c0.5-0.4,1.2-1.1,1.2-1.5C47.5,75,47,75.6,46.4,75c-0.6-0.6-0.2-0.3-1.1-1.2c-0.9-0.9-1.4-1.3-2-1.4c-0.6,0-1.5-0.1-1.5-0.1
	L39.9,72.6z"/>
<polyline class="st22" points="38.5,76 41.9,76 38.5,75.1 "/>
<polyline class="st22" points="43.8,75.1 41.9,76 41,74.3 42.5,75.2 43,73.4 "/>
<polyline class="st22" points="40.6,78 41.9,76 39.4,77.2 "/>
<line class="st22" x1="41.9" y1="76" x2="42.5" y2="77.2"/>
<line class="st22" x1="42.7" y1="76" x2="43.8" y2="76.6"/>
<path class="st23" d="M40.2,71.1c0.4,0.1,0.5,0.3,0.5,0.5c-0.1,0.2-0.2,0.3-0.5,0.4s-0.5,0.2-0.8,0c-0.3-0.2-0.3-0.2-0.3-0.2
	L40.2,71.1z"/>
<path class="st23" d="M42.7,71.1c0.1,0,0.6,0.1,0.7,0.2c0.1,0.1,0.6-0.1,0.3,0.3c-0.3,0.4-0.5,0.5-0.5,0.5s-0.9-0.1-1.1-0.2
	c-0.1-0.1-0.3-0.1-0.3-0.3C42,71.4,42.7,71.1,42.7,71.1z"/>
<path class="st23" d="M40.7,71.6c0.7,0.3,1.5,0.3,1.5,0.3s0.2,0.5,0,0.7s0.3,0.4-0.3,0.4c-0.6,0-1.2,0.2-1.2,0s-0.1-0.7-0.1-0.7
	L40.7,71.6z"/>
<path class="st23" d="M38,72.1c0.4,0.2,0.8,0,0.9,0.5s0.5,0.1,0,0.4c-0.5,0.4-1,0.5-1.1,0.4c-0.2-0.2-0.6-0.4-0.6-0.6
	S38,72.1,38,72.1z"/>
<path class="st23" d="M37.2,74.1c0.1,0.1,0.4,0.7,0.2,0.9S37,75,36.6,75.1c-0.5,0.1-0.9,0.5-0.8,0C35.8,74.7,36.4,73.8,37.2,74.1z"
	/>
<path class="st23" d="M39.1,74l-0.2,0.7c0,0-0.3,0.6-0.9,0.4c-0.6-0.2-0.9-1.1-0.2-1.1C38.5,74,39.1,74,39.1,74z"/>
<path class="st23" d="M36.6,76c0,0.2,0.4,0.7,0.6,0.6s1.3-0.6,1.1-1.1c-0.2-0.4-0.9-0.3-1.1-0.2C36.9,75.5,36.6,76,36.6,76z"/>
<path class="st23" d="M37.8,77c0.2,0,0.5,0.2,0.7,0.5c0.2,0.3,0.2,0.3-0.2,0.5c-0.4,0.3,0,0.6-0.9,0.3c-0.9-0.3-0.7,0.2-0.9-0.3
	c-0.2-0.6-0.1-1,0-0.9C36.6,77,37.8,77,37.8,77z"/>
<path class="st23" d="M38.6,76.8c0.1-0.1,0.5-0.2,0.9,0c0.4,0.2,0.7,0.4,0.7,0.4L40,78l-0.8,0.1C39.2,78.1,37.9,77.2,38.6,76.8z"/>
<path class="st23" d="M38.8,78.5c-0.2,0-0.7,0.4-0.7,0.4s-0.3,0.5,0,0.6c0.3,0.2,0.9,0.2,0.9,0.2l0.8-0.5c0,0-0.1-0.3-0.2-0.5
	S39.3,78.5,38.8,78.5z"/>
<path class="st23" d="M40.4,78.4c0,0,0.3-0.2,0.8,0c0.5,0.1,0.8,0.1,0.7,0.5s0.2,0.6-0.3,0.6c-0.5,0-0.9,0.1-1,0s-0.4-0.2-0.4-0.4
	C40.3,78.9,40.4,78.4,40.4,78.4z"/>
<path class="st23" d="M43.5,77.1c-0.1-0.1-1.3,0-1.1,0.5c0.2,0.4,0.1,0.7,0.6,0.7s0.5,0.3,0.8,0c0.3-0.3,0.5-0.2,0.4-0.4
	c-0.1-0.2,0.1-0.3-0.2-0.5C43.8,77.2,43.5,77.1,43.5,77.1z"/>
<path class="st23" d="M39.9,74c-0.1,0.1-0.4,0.2-0.1,0.4c0.2,0.3-0.2,0.5,0.4,0.4c0.6,0,0.7-0.1,1-0.2c0.3-0.1,0.9-0.2,0.7-0.5
	c-0.2-0.3-0.4-0.4-0.5-0.5c-0.1-0.1,0.3-0.2-0.5-0.1S39.9,74,39.9,74z"/>
<path class="st23" d="M44.4,73.9c-0.2,0-0.8,0.2-0.9,0.4s-0.4,1.1,0.7,0.9s1.2-0.3,1-0.6C45.1,74.2,44.4,73.9,44.4,73.9z"/>
<path class="st23" d="M44.7,75.9c0,0-1.1,0.1-0.7,0.8c0.4,0.7,1.3,0.8,1.3,0.7s0.3-0.3,0.3-0.6c0-0.3,0.1-0.3,0-0.5
	C45.6,76.2,44.7,75.9,44.7,75.9z"/>
<path class="st23" d="M45.7,75c-0.4,0.1-0.5,0-0.6,0.3c-0.1,0.4-0.3,0.6,0,0.7s0.2,0.3,0.7,0.3c0.5,0,0.7,0.2,0.8-0.2
	s0.4-0.6,0.2-0.8c-0.2-0.2-0.2-0.3-0.3-0.3S45.7,75,45.7,75z"/>
<path class="st23" d="M46.1,73.4c-0.2,0-0.6,0.3-0.6,0.5c0,0.2-0.3,0.1,0,0.4c0.3,0.3,0.4,0.4,0.7,0.4s0.4-0.3,0.6-0.4
	s0.3-0.1,0.2-0.4c-0.2-0.2-0.1-0.3-0.3-0.4C46.4,73.3,46.1,73.4,46.1,73.4z"/>
<path class="st23" d="M44.2,72.1c0.1,0,0.8,0.4,0.9,0.7c0.1,0.3,0.1,0.6-0.2,0.6c-0.3,0-1.2,0.2-1.5-0.2c-0.2-0.5-0.2-1,0.6-1"/>
</g>
</svg>
