<svg id="Layer_1" data-name="Layer 1" xmlns="http://www.w3.org/2000/svg" viewBox="0 0 108 108">
  <defs>
    <style>
      .cls-1 {
        fill: #ffd567;
      }

      .cls-2 {
        fill: #ffbe46;
      }

      .cls-3 {
        fill: #ffe7ad;
      }

      .cls-4 {
        fill: #ff8b2a;
      }

      .cls-5 {
        fill: #ffa725;
      }
    </style>
  </defs>
  <g>
    <path class="cls-1" d="M23.32,54.44a10.81,10.81,0,0,0,4.39.84l20.67,5.91V36.49H35.49a10.9,10.9,0,0,0-3.7-2.5,11.07,11.07,0,1,0-8.47,20.45Z"/>
    <path class="cls-2" d="M76.77,34a11,11,0,0,0-3.69,2.5H60.19v24.7l20.67-5.91a10.81,10.81,0,0,0,4.39-.84A11.07,11.07,0,1,0,76.77,34Z"/>
    <path class="cls-1" d="M55.13,24.32a11,11,0,0,0-.85,4.39l-5.9,19.92H60.94L73.08,36.49a10.9,10.9,0,0,0,2.5-3.7,11.07,11.07,0,0,0-20.45-8.47Z"/>
    <path class="cls-3" d="M33,32.79a10.9,10.9,0,0,0,2.5,3.7L47.63,48.63l6.65-2.76V28.71a10.81,10.81,0,0,0-.84-4.39A11.07,11.07,0,1,0,33,32.79Z"/>
    <path class="cls-2" d="M75.58,77.77a11,11,0,0,0-2.5-3.69V61.94H48.38l5.9,19.92a11.07,11.07,0,1,0,21.3-4.09Z"/>
    <path class="cls-1" d="M53.44,86.25a10.81,10.81,0,0,0,.84-4.39V61.94H35.49V74.08A11,11,0,0,0,33,77.77a11.07,11.07,0,1,0,20.45,8.48Z"/>
    <path class="cls-1" d="M85.25,56.13a11,11,0,0,0-4.39-.85H63.7l-2.76,6.66L73.08,74.08a11,11,0,0,0,3.69,2.5,11.07,11.07,0,1,0,8.48-20.45Z"/>
    <path class="cls-3" d="M31.79,76.58a10.9,10.9,0,0,0,3.7-2.5L47.63,61.94l-2.76-6.66H27.71a11.07,11.07,0,1,0,4.08,21.3Z"/>
    <path class="cls-4" d="M54.28,44.21,48.75,55.28l5.53,11.08a11.08,11.08,0,1,0,0-22.15Z"/>
    <path class="cls-5" d="M43.21,55.28A11.08,11.08,0,0,0,54.28,66.36V44.21A11.07,11.07,0,0,0,43.21,55.28Z"/>
  </g>
</svg>
