<?xml version="1.0" encoding="utf-8"?>
<!-- Generator: Adobe Illustrator 27.7.0, SVG Export Plug-In . SVG Version: 6.00 Build 0)  -->
<svg version="1.1" id="Layer_1" xmlns="http://www.w3.org/2000/svg" xmlns:xlink="http://www.w3.org/1999/xlink" x="0px" y="0px"
	 viewBox="0 0 108 108" style="enable-background:new 0 0 108 108;" xml:space="preserve">
<style type="text/css">
	.st0{fill:#257E35;}
	.st1{fill:#239645;}
	.st2{fill:#05692F;}
	.st3{fill:#00A549;}
	.st4{fill:#5B9568;}
	.st5{fill:#337239;}
	.st6{fill:#2F8D3D;}
	.st7{fill:#E8363B;}
	.st8{fill:#B31217;}
	.st9{fill:#D34627;}
	.st10{fill:#D34427;}
	.st11{fill:#D22D24;}
	.st12{fill:#A92B25;}
	.st13{fill:#B7261F;}
	.st14{fill:#DF462E;}
	.st15{fill:#E48430;}
	.st16{fill:#941B16;}
	.st17{fill:#C92B28;}
	.st18{fill:#DE2F2F;}
	.st19{fill:#DF4644;}
	.st20{fill:#CF3F29;}
	.st21{fill:#CF2C2A;}
	.st22{fill:#E26B30;}
	.st23{fill:#AE2320;}
	.st24{fill:#C62A27;}
	.st25{fill:#D12D2A;}
	.st26{fill:#BC2724;}
	.st27{fill:#B42522;}
	.st28{fill:#BD2825;}
	.st29{fill:#BD2824;}
</style>
<g>
<path class="st0" d="M18.6,70.2c-1.5-1-4.1-4.3-5.3-4.8s-0.7-5.1,1.8-6.8s6.8-8,8.1-9.1c1.3-1,3.6-4.7,5.7-3.4
	c2.2,1.3,8.1,0.7,9.2,0s5.1-6,7.8-5.6c2.7,0.5,8.1,3.4,10.1,3.3c2-0.2,5.7-0.8,8.7-0.2s6.9,0.3,9-0.6c2.1-0.9,5.9,0.5,7.8,1.5
	c2,1,9,3.2,9.8,4.1c0.8,1,4.9,2.6,4,5.6c-0.9,3-2.3,9.7-4.7,11.2s-5.3,1.6-6.5,3.5c-1.2,1.8-6,7.9-8.2,10.5
	c-2.3,2.6-8.1,5.1-12.1,5.9s-16.3-1.2-17.5-2c-1.2-0.8-12.5-3.8-12.8-4.2C33.4,78.7,18.6,70.2,18.6,70.2z"/>
<path class="st1" d="M78.9,65.1c-1.6-1.5-2.2-3.5-4.7-5.6c-2.5-2.2-2.4-3.9-5.7-3.6c-3.4,0.3-6.8,1.8-7.9,3.7c-1.1,1.8-1.5,3-3.7,4
	c-2.2,1-4.9,2-5.2,3.1c-0.3,1.2-1.8,5.2-2.1,5.9c-0.2,0.7-0.4,1.6,1.5,1.1c2-0.5,3.3-0.7,6,0.2c2.7,0.8,6.2,2.1,8,1.8
	c1.8-0.3,4.8-0.2,5.9-1.5c1.1-1.3,2.4-3.9,3.7-3.8c1.3,0.1,2.8,1.7,3.7,3c0.9,1.3,1.4,3.8,3,3.7c1.6-0.1,2.3-0.7,2.9-0.8
	c0.7-0.1,2.1-1.1,1.8-1.7c-0.2-0.7-0.3-2.3-1.5-3.6s-0.4-0.3-2-2.1S78.9,65.1,78.9,65.1z"/>
<path class="st2" d="M50.4,54.5c-1.6-1.5-2.2-3.5-4.7-5.6s-2.4-3.9-5.7-3.6c-3.4,0.3-6.8,1.8-7.9,3.7c-1.1,1.8-1.5,3-3.7,4
	s-4.9,2-5.2,3.1c-0.3,1.2-1.8,5.2-2.1,5.9c-0.2,0.7-0.4,1.6,1.5,1.1c2-0.5,3.3-0.7,6,0.2s6.2,2.1,8,1.8c1.8-0.3,4.8-0.2,5.9-1.5
	c1.1-1.3,2.4-3.9,3.7-3.8s2.8,1.7,3.7,3c0.9,1.3,1.4,3.8,3,3.7s2.3-0.7,2.9-0.8c0.7-0.1,2.1-1.1,1.8-1.7c-0.2-0.7-0.3-2.3-1.5-3.6
	s-0.4-0.3-2-2.1C52.7,56.3,50.4,54.5,50.4,54.5z"/>
<path class="st3" d="M58.5,54.2c1.6-1.5,2.2-3.5,4.7-5.6c2.5-2.2,2.4-3.9,5.7-3.6s6.8,1.8,7.9,3.7s1.5,3,3.7,4c2.2,1,4.9,2,5.2,3.1
	c0.3,1.2,1.8,5.2,2.1,5.9c0.2,0.7,0.4,1.6-1.5,1.1s-3.3-0.7-6,0.2c-2.7,0.8-6.2,2.1-8,1.8c-1.8-0.3-4.8-0.2-5.9-1.5
	s-2.4-3.9-3.7-3.8c-1.3,0.1-2.8,1.7-3.7,3c-0.9,1.3-1.4,3.8-3,3.7c-1.6-0.1-2.3-0.7-2.9-0.8c-0.7-0.1-2.1-1.1-1.8-1.7
	s0.3-2.3,1.5-3.6s0.4-0.3,2-2.1C56.3,56,58.5,54.2,58.5,54.2z"/>
<path class="st4" d="M67.9,85.4c-1.5-0.3-3.4-1-5-1.3c-1.6-0.3-3.5-1.3-4.9-0.1c-1.4,1.2-1.8,1.8-1.8,2.9c0,1.1,0.4,1.7,2,3.1
	s3.6,1.6,3.9,2.2s1.3,0,1.4-0.7c0.1-0.7-0.1-2.5,1-3.6S67.9,85.4,67.9,85.4z"/>
<path class="st5" d="M64.6,83.4c0.5-0.7,0.8-2.6,3.3-3.1s4.8-0.8,4.8-0.8s-0.2-1.3,1.2-2.5c1.4-1.2,2-3.1,4.6-3.3
	c2.6-0.1,9.7,3,10.8,4.3c1.2,1.3,4.3,7,4.3,8c0,1,0.4,4.8,0,5.3s-4.3-1.6-4.3-1.6s-2.1-0.8-4.3-1.8c-2.3-1-8-2.2-10-2.3
	c-2-0.1-4,0-5.5-0.1c-1.5-0.1-5,0.1-5.4-0.1C63.5,85.1,64.6,83.4,64.6,83.4z"/>
<path class="st6" d="M78.8,85.3c0.9,0.1,5,0.9,6.2,1.4s4.2,3,4.2,3s3,0.5,2.1,1s-4.9-0.6-6.6-1.3c-1.7-0.8-5-1.6-5.9-2
	c-0.9-0.3-5-1.3-5-1.3S77.1,85,78.8,85.3z"/>
<path class="st6" d="M39.1,70.3c-1.4-1.1-3.5-2.6-5-2.5s-5.3,0.1-6.9,1.7c-1.6,1.6-2.9,2.7-4.8,2.7s-4.2,0-4.8,0.5
	c-0.5,0.5-2.1,1-1.1,1.5c1,0.5,2.6,0.3,4.1,0.8c1.5,0.4,4.9,2.1,5.3,2.9c0.4,0.9-0.1,5.1,1,3.9c1.1-1.2,3.6-2.2,5.2-3.1
	c1.6-1,2.7-2.9,3.7-4c1-1.1,4.5-3,4.5-3L39.1,70.3z"/>
<path class="st6" d="M47.7,86.4c0,0,0.2-12.7,0-13.4c-0.2-0.7-0.3-10.7,0.1-11.2c0.4-0.5,0.6-6.2,0.6-6.2l-2,0.1
	c0,0-1.8,12.1-1.8,12.7c0,0.6,0,4.3,0,4.3l1.8,5.5l-0.5,6.1v1.6L47.7,86.4z"/>
<path class="st6" d="M65,79.6c0,0-3.1-23.4-3.3-24.5c-0.1-1.2-0.9-8.6-0.8-8.6s1-1.7,1-1.7l1,0.4c0,0-0.5,4.7,0,6.4
	c0.5,1.7,1.5,12.9,1.5,12.9l2.3,13.4v2.3L65,81.3V79.6z"/>
<path class="st6" d="M78.4,73.8c0,0,0.3-12.8,1.4-14.6c1.1-1.8,3.1-14.6,2.9-15.5S81,41.2,81,41.2l-0.5,1.3c0,0-0.8,4.9-1.2,6.6
	c-0.3,1.7-1.8,8.7-2.1,9.2c-0.2,0.5,0,6.3,0,6.3L76,70.3v3.5H78.4z"/>
<path class="st6" d="M23.3,49.5c0,0,5.9,11.3,6.2,12s2.9,6.3,2.9,6.3l1.7,0c0,0-7.1-17.8-8.4-18.7s-1.5-1.5-1.5-1.5L23.3,49.5z"/>
<path class="st6" d="M36.9,68.4c0,0-1.2-19.6-1.1-20c0.1-0.3-0.4-3.5-0.4-3.5l1.3-0.6c0,0,1.2,9.1,1.1,9.5
	C37.7,54.3,39.1,65.1,39,66c-0.1,0.9,0,4.7,0,4.7h-1.3L36.9,68.4z"/>
<path class="st7" d="M30.2,35.8c0.6,0.4,3,1.7,3.6,2.7s0.9,2,1,2.6s0.6,5.1,0.7,5.4c0.1,0.3,1.6,0.1,1.6,0.1s-0.6-6.9-0.3-7.5
	c0.3-0.6,0.5-6.1,0.5-6.4s-2.5-1.2-3.2-1.3s-3.4,0-3.6,0.1s-1.1,1.3-1.1,1.4S29.1,35,29.1,35L30.2,35.8z"/>
<path class="st8" d="M33.5,35.4c0.2-0.4,2.3-4.2,2.7-4.9s2.1-3.7,2.3-3.9s1.4,0.3,2.1,0.6s1.7,1.2,2.1,1.5c0.4,0.3,1.8,1.2,2.3,1.8
	c0.5,0.5,2,3.1,2.5,3.4c0.6,0.3,1,1.4,1.2,1.9c0.2,0.5,0.1,0.7,0.3,0.9s0.5,0.3,0.2,0.6c-0.3,0.2-0.5,0.2-0.3,0.5
	c0.2,0.4,0.4,0.5-0.1,0.7c-0.5,0.2-0.5,0.4-1,0.4s-0.6-0.1-1.3-0.5c-0.7-0.4-1.4-0.9-1.7-1.1S44,36.6,43.1,36
	c-0.9-0.6-2-0.9-2.7-1.3c-0.6-0.4-1.5-0.6-2.1-1.1c-0.6-0.4-1.2-0.9-1.8-0.8c-0.6,0-1,0.3-0.9,0.5c0.1,0.3,0.2,0.8,0.3,1.3
	c0,0.6-0.1,0.9-0.5,1.1c-0.4,0.1-1.2,0.2-1.2,0.2S33.3,35.9,33.5,35.4z"/>
<path class="st8" d="M17.4,23.5c-0.6-0.5-1.2-0.7-0.9-1s0.4,0.2,0.8,0s0.5-0.2,0.2-0.6c-0.3-0.4-0.7-0.6-0.2-0.7
	c0.6-0.1,0.8-0.2,1-0.5c0.2-0.3-0.7-0.6,0.4-0.5c1.1,0.1,1.4,0.5,1.8,0.7c0.3,0.3,0.2,0.6,0.8,0.3c0.6-0.4,0.9-0.6,1.3-1
	c0.4-0.4,0.4-0.7,1.3-1.2c0.9-0.5,1.1-0.8,1.6-0.5c0.6,0.3,0.9,0.4,1.2,0.6c0.3,0.2,0.6,0.5,0.7,0.7c0.1,0.1,0.6,0.2,0,1
	c-0.6,0.8-2.5,2.1-3,2.4c-0.5,0.3-1.5,0.8-2.2,1.1c-0.7,0.3-2.9,0.3-3,0.2S17.4,23.5,17.4,23.5z"/>
<path class="st9" d="M21.2,21.6c0,0,0.9-0.5,1.6-1c0.8-0.5,1.5-0.3,2.1-0.6c0.6-0.3,0.9-1.6,1.7-0.9c0.7,0.7,0.6,0.9,1,0.4
	s-0.1-1,0.8-0.7s1.2,0.5,1.4,0.8c0.3,0.3,0.2,0.8,0.8,0.6s0.3-0.5,1.1-0.1c0.8,0.5,0.5,0.5,1.6,0.2c1.1-0.3,1.1-0.5,1.9-0.5
	c0.8,0,0.7-0.3,1.2,0.4s0.7,1.9,0.7,2.2c0.1,0.3,0.4,0.6,0.7,0.7c0.3,0.1,0.9,0.3,1,0.6s0.7,0.8,0.6,1.1s-7.4-1-8-0.9
	s-3.5-0.2-4.4,0.1s-4.8,1.3-6.2,1.2c-1.4-0.1-2.5-0.3-2.8-0.6s-1.8-0.8-0.7-1s1.8-0.6,2.3-0.4s0.8,0.4,0.9,0.1
	c0.1-0.3,0.4-0.6,0.4-0.8S21.2,21.6,21.2,21.6z"/>
<path class="st10" d="M20.5,32.1c-0.2,0.4-0.3,1.1-0.1,1.5c0.3,0.4,0.5,1.2,0.4,1.5s0,1.3,0.6,1.8c0.6,0.5,1.4,1.3,1.8,1.6
	c0.4,0.4,0.7,0.9,1.1,0.8s0.6-0.2,0.7-0.9c0.1-0.7,0.6-1.3,0.5-2.1s-0.3-2.4-1.3-3.2c-0.9-0.9-1.4-1.4-2-1.4S20.5,32.1,20.5,32.1z"
	/>
<path class="st11" d="M31,39c0,0,0.6,1.2,0.3,1.5c-0.3,0.4-0.8,0.8-1.6,0.5c-0.9-0.3-0.9-0.3-1.2-0.7c-0.3-0.5,0-0.8-0.6-0.9
	s-1.1,0.3-1.3,0.2c-0.2-0.1-0.9-0.8-1.5-1.3c-0.6-0.5-1.7-1.9-1.7-2.4c0-0.5-0.6-1.2-0.9-1.9c-0.4-0.7-0.1-0.6-1-1.3s-1.3-1-2-1
	c-0.7,0.1-0.5,0.1-1.2,0.5c-0.7,0.3-0.9,0.6-1.6,0.4c-0.7-0.2-1.5-0.5-1.9-1.1s-0.4-1.9-0.6-2.8s-0.3-2.4-0.1-2.7
	c0.2-0.3,0.6-2,1-2.3s0.7-0.6,1.1-0.5c0.4,0.1,2.5-0.2,3.2,0.1c0.7,0.3,1.6-0.1,1.9-0.5s0.5-1.4,1.2-1.5c0.7-0.1,1.9-0.5,3-0.7
	s2.5-0.4,2.9,0.1s1.5,0.7,2,0.9s1,0.4,1.1,0c0.1-0.4-0.1-0.7,0.3-0.8c0.4-0.2,0.8,0.3,1,0.5c0.1,0.2,0.3,0.5,1.1,0.7
	c0.7,0.2,1.2,0.2,1.6,0.2c0.4,0,0.8,0.3,1.2,0.5c0.4,0.1,1.4,0,1.9,0.3s1.3,1.1,1.4,1.2s0.1,0.5,0.4,0.5s1.2-0.4,1.2,0.1
	c0,0.5,0.7,1.3-0.1,1.5c-0.7,0.2-1.4,0.1-1.6,0.3s-1.5,2.3-1.7,2.7c-0.2,0.4-1.6,1.9-1.9,2.2c-0.3,0.3-1.3,0.8-1.4,1
	c-0.1,0.2-0.6,1.1-0.7,1.2s-0.5-0.9-1-0.9c-0.6-0.1-1.3-0.2-1.7,0.1c-0.4,0.2-0.9,0.1-1,0.4c-0.1,0.3,0.2,1.5,0,2s0.3,1.4,0.5,1.8
	c0.2,0.4,0.4,1,0.5,1.1C31.3,38.3,31,39,31,39z"/>
<path class="st8" d="M33.9,32.3c-0.6-0.4-1.2-0.3-2-0.1c-0.8,0.2-1.9,0.6-2,0.9c-0.1,0.3-0.7,1.8-0.7,1.8s0.5,1.5,0.7,1.9
	c0.2,0.4,0.3,1.3,0.4,1.6s0.2,0.5,0.5,0.7c0.3,0.2,0.4,0.8,0.8,0.3c0.4-0.5,0.5-0.6,0.3-1.3s-1.1-2-1.1-2.4c0-0.4,0-1.8,0.2-2.1
	s0-1,0.5-0.8s1,0.2,1.2,0.3s0.6,0.3,0.8,0.4c0.2,0.1,0.7,0.1,0.7,0.1s0.1-0.2,0.3-0.4C34.5,33.1,33.9,32.3,33.9,32.3z"/>
<path class="st12" d="M34.6,32.1c0,0,0.4-1.2,0.7-1.7c0.3-0.4,0.7-0.7,0.8-1s0.5-0.6,0.5-0.6s0,1,0.1,1.5c0.1,0.5-0.5,0.7-0.7,0.8
	C35.8,31.3,35.7,31.6,34.6,32.1z"/>
<path class="st13" d="M31,29.4c-0.1-0.4-0.8-0.7-0.2-1.3c0.6-0.6,0.8-0.6,1-0.8c0.1-0.1,0-1.4-0.2-2c-0.2-0.6-0.5-0.9-0.1-1.4
	c0.4-0.5,0.3-0.9,0.8-0.7c0.5,0.2,1.5,1.4,1.8,1.9s1.2,1.8,1.4,2.3c0.2,0.5,0.8,1,0.8,1.5c0,0.5-0.4,0.9-0.7,1.3
	c-0.3,0.4-0.5,1.4-0.6,1.7c-0.1,0.4-0.6,0.3-0.8,0.4c-0.2,0.1-0.7-0.2-1-0.4c-0.3-0.2-1.1-0.7-1.2-1C31.8,30.5,31,29.4,31,29.4z"/>
<path class="st14" d="M31.7,31.8c-0.5-0.3-0.6-0.1-0.9-0.6c-0.4-0.5-0.7-0.6-1.1-0.9c-0.4-0.3-0.9-0.7-1.7-0.9
	c-0.8-0.2-1.2-0.4-1.9-0.3c-0.7,0.1-1.1,0.5-1.5,0.3s-1.2-0.1-1.3-0.9c-0.1-0.8-0.5-1.8,0.3-2.4c0.8-0.6,0.6-1.3,2-1
	c1.4,0.3,2.5,0.8,2.9,1.1c0.5,0.3,0.8,0.4,1.4,1.2c0.6,0.8,0.9,1.9,1.2,2c0.3,0.1,0.7,0.5,0.9,0.7c0.2,0.2,0,1.3,0,1.3L31.7,31.8z"
	/>
<path class="st15" d="M32.6,32c0,0-0.2-0.8-0.2-0.9c-0.1-0.2,0.1-0.6-0.3-0.6c-0.4,0-0.4-0.3-0.6-0.4c-0.3-0.1-0.4,0.1-0.3,0.4
	c0.1,0.2,0.1,0.6,0.3,0.6c0.1,0,0.3,0.4,0.4,0.5c0.1,0.1,0.4,0.5,0.4,0.5l0.1,0.2l0.3-0.1L32.6,32z"/>
<path class="st16" d="M77,32l5.5-0.5c0,0,6.4,0.4,7.4,0.9c1,0.5,3.4,1.6,2.9,3.7s-3,6.1-4.6,6.8c-1.6,0.7-5.6,0.8-6.3,0.9
	c-0.7,0.1-2.6-0.2-3.6-1.3C77.4,41.5,75.1,33.2,77,32z"/>
<path class="st17" d="M90.8,43.5c0,0,0.2,0.9,0.2,1.4s-0.8,1-1.2,1.2c-0.4,0.3-0.7,1-1.3,0.5c-0.5-0.4-1.7-1.5-2-2.2
	s-1.7-2.1-2.5-2.4s-2-1.2-1.9-1.3c0.1-0.1,1-0.8,1.2-1c0.2-0.1,1.7-0.8,2.3-0.9c0.6,0,1.9,0.4,2.3,0.9S90.8,43.5,90.8,43.5z"/>
<path class="st18" d="M87.8,32.3c0.1-0.2,1-1,1.7-1.3c0.7-0.3,2.1-1,2.9-1c0.8,0,3.7-0.2,4.3,0c0.6,0.2,0.8,0.6,1.2,0.8s0.5-0.2,1,0
	c0.6,0.2,1.1,0.4,1.2,0.8c0.1,0.4,0.1,1.4,0.4,1.6c0.3,0.2,1.5,1.5,0.3,2.3s-4.3,2.2-4.8,2.2c-0.5,0-1.9,0.2-2.4,0
	c-0.6-0.2-2.8-0.5-3.6-0.7s-2.2-0.9-2.5-1.1c-0.3-0.2-1.6-0.9-1.6-1c0-0.1,0.2-1.3,0.3-1.5C86.4,33.4,87.8,32.3,87.8,32.3z"/>
<path class="st19" d="M84.7,37.5c0.4-0.1,2.3,0.1,3,0c0.7-0.1,1.9,0,2.4,0.2s1.1,1.1,1.1,1.5s0.5,3.2,0.4,3.7c0,0.5-0.4,0.7-0.4,1
	c-0.1,0.3,0,1-0.3,1c-0.2,0-0.9-1.2-1.3-1.6c-0.4-0.4-1.6-2.1-2.1-2.5c-0.5-0.4-1.4-1-2-0.9c-0.6,0.1-0.5,0.4-0.9,0.5
	c-0.4,0.1-1.1,0.3-1.3,0.2c-0.2-0.1-1-0.3-0.9-0.6s0.4-1.2,0.5-1.3c0.1-0.1,0.5-0.4,0.6-0.7S84.7,37.5,84.7,37.5z"/>
<path class="st20" d="M79.4,30.8c-0.2-0.1-3.9-0.3-4.9,0c-1,0.3-3.2,1.4-3.7,2c-0.5,0.6-2.7,3.4-2.7,4.3c0,1,0.9,3.3,1.8,4
	s1.3,1.5,2.1,1.9c0.7,0.4,1.5,0.6,2,0.6c0.4,0,2-1.4,2.2-1.5c0.1-0.1,3.1-2.9,3.1-2.9l2.4-1.3c0,0,0.9-1.5,0.9-2.2
	c0-0.6,0.3-0.5-0.4-1.8C81.5,32.6,79.4,30.8,79.4,30.8z"/>
<path class="st21" d="M81.9,38.5c0-0.2,0-2.1-0.3-3.3c-0.3-1.1-1.7-2.2-2.3-3.3c-0.6-1.1-1.2-4.5-1.3-4.8c-0.1-0.3-0.9-5-0.5-5.4
	c0.4-0.4,1.5-1.1,3-0.7c1.6,0.4,3.9,0.3,4.9,1.1c1.1,0.8,1.8,1.5,2.2,2.1s1.4,1.8,1.6,2.5c0.1,0.8-0.2,3.4-0.4,4
	c-0.2,0.7-0.6,1.9-0.9,2.5c-0.3,0.5-1.6,1.9-1.9,2.4c-0.3,0.5-0.7,1.2-1.3,1.8c-0.6,0.7-1,1.2-1.2,1.5c-0.1,0.3-0.4,0.4-0.6,0.4
	C82.7,39.3,81.9,38.5,81.9,38.5z"/>
<path class="st11" d="M81.6,37.9c0,0-0.3-0.6-1.1-1.1c-0.7-0.6-1-1.3-1.6-1.1c-0.6,0.3-1.7,0.8-2.2,1.5c-0.6,0.7-1.8,2.3-2,3
	c-0.2,0.7-0.3,4.8,0.5,5.8c0.8,1,0.7,1.1,1.2,1.1c0.5,0,1.1-0.3,1.1,0c0,0.3,0.3,0.9,0.4,1.3s0.7,2.1,1,2.5c0.3,0.4,2,1.1,2.4,1.1
	s1.1-0.7,1.8-0.9c0.6-0.2,3.5-1.5,4.1-1.9c0.6-0.3,1.4-1.2,1.7-1.9s0.7-1.5,0.5-3.1s-0.4-2.6-1.7-3.4c-1.3-0.8-2.1-0.3-2.9-0.4
	c-0.9-0.1-2.7-0.2-2.6-0.7C82.1,39.2,81.6,37.9,81.6,37.9z"/>
<path class="st22" d="M84.1,37.5c0,0,1.1-0.2,1.5-0.2c0.4,0.1,0.9,0.6,1.3,0.6c0.5,0,1,0.3,1,0.6c-0.1,0.3-0.2,0.4-0.4,0.4
	s-0.5-0.5-1.2-0.3c-0.7,0.2-1.1,0.2-1.5,0.3c-0.5,0.1-1.1,0.4-1.2,0.2c-0.1-0.2-0.1-0.8-0.1-0.8S84.1,37.5,84.1,37.5z"/>
<path class="st14" d="M83.5,35.2c0.2,0.1,0.8,0.4,0.9,0.6c0.1,0.2,0.4,1,0.4,1.2c0,0.2-0.6,1.1-0.6,1.1s-1.3,1.5-1.3,1.3
	c0-0.2-0.2-0.6-0.5-0.7c-0.2-0.1-1.1-0.3-1.1-0.4c0-0.1,0.2-0.7,0.2-0.7s1.3-1.7,1.4-1.9C83.1,35.5,83.5,35.2,83.5,35.2z"/>
<path class="st23" d="M81.2,38.2c0,0.2,0.3,1,0.6,1.2c0.3,0.2,0.5,0.5,0.7,0.3c0.2-0.2,0.4-0.4,0.4-0.7c0-0.3-0.3-0.6-0.6-0.7
	C82,38.2,81.4,38,81.4,38S81.1,37.9,81.2,38.2z"/>
<path class="st24" d="M90.3,33.8c0,0,4.3-1.9,4.5-2.1c0.2-0.1,1.7-1.1,1.8-1.4c0.1-0.3,0.4-0.3,0.7,0s0.5,0.1,0.6,0.5
	s-3.8,2.6-4.5,2.9s-2.4,1-2.7,1.1c-0.4,0.1-1,0.3-1,0.3s-0.6-0.3-0.5-0.4C89.2,34.5,90.3,33.8,90.3,33.8z"/>
<path class="st15" d="M86.5,35c0,0,1.3-0.5,1.8-0.7c0.5-0.2,1-0.5,1.2-0.4c0.2,0.1,0.3,0.2,0.3,0.3c0,0.1-1.9,2.7-2,2.8
	c-0.1,0.1-0.7,0.8-1,0.9c-0.3,0.1-0.7,0-1.2,0s-1-0.4-1-0.4l1.7-2.3L86.5,35z"/>
<path class="st25" d="M89.1,35.5c0,0,1.3,0.8,1.9,0.9c0.6,0.2,2.3,0.6,2.8,0.7c0.5,0.1,1.4,1.2,1.5,1.3c0.1,0.1,0.4,1.2,0.3,1.4
	s-0.9,1.3-1,1.4s-1.2,0.6-1.8,0.5s-1.8-1.2-1.9-1.8c-0.1-0.6-0.4-1.7-0.9-2.2s-1.3-1-1.4-1.1c-0.2-0.1-0.3-0.3-0.3-0.3L89.1,35.5z"
	/>
<path class="st17" d="M93.4,36.7c0.3-0.1,2-0.7,2.5-0.8c0.4-0.1,1.8-0.6,1.8-0.9s-0.5-0.7,0-1s1.4-0.7,1.7-0.7
	c0.3,0,0.4-0.1,0.8,0.2s0.6,0.5,0.7,0.6c0.1,0.1,0.2,0.9,0,1c-0.2,0.1-2.6,2-3.3,2.1s-1.2,0.4-1.8,0.3c-0.6-0.1-0.9-0.1-1.3-0.3
	C94.2,37.2,93.4,36.7,93.4,36.7z"/>
<path class="st26" d="M78.7,32c-0.3-0.2-0.7-0.8-1.7,0c-1,0.8-1.4,0.6-2.2,2.5c-0.8,1.9-0.5,2.6-0.1,3s1,0.4,1.6-0.3
	c0.6-0.7,1.6-2.2,2.2-1.9s1.8,0.9,1.9,1c0.1,0.1,0.5,0.7,0.4-0.1s0.4-0.4-0.4-1.5C79.8,33.6,78.7,32,78.7,32z"/>
<path class="st27" d="M80.8,34.4c0,0,0.8,0.8,0.8,1.2c0,0.4,0.1,1.2,0.1,1.6c-0.1,0.3-0.6,0.3-0.7,0c-0.1-0.3-0.2-1-0.2-1L80.8,34.4
	z"/>
<path class="st28" d="M82.5,31.5c0-0.7-0.8-2.8-1.4-3.6c-0.5-0.8-1.5-1.7-1.3-2.8c0.2-1.1,0.4-2.2,1.1-2.5c0.6-0.3,1.8-0.4,2.8-0.1
	s2.3,1,2.6,1.4c0.3,0.4,1.7,2.5,1.9,3c0.2,0.5,0.2,2.5-0.1,3.3c-0.3,0.8-1.4,1.5-2,2.2c-0.6,0.8-0.9,2.1-1.3,2.3
	c-0.4,0.2-0.8,0.2-1,0.2c-0.2,0-0.6,0.1-0.6,0c0-0.1-0.1-1.4-0.2-2S82.5,31.5,82.5,31.5z"/>
<path class="st29" d="M79.1,49.5c0.6-0.4,0.7-1.1,1.4-1c0.7,0.1,1.1,0.6,1.5,0.7c0.4,0.2,0.8,0.4,1.2,0.3c0.5-0.1,1.3-0.6,1.1-0.2
	c-0.2,0.4-0.4,0.6-1.3,1c-0.9,0.5-1,0.9-1.7,0.9c-0.7,0-1.4,0-1.8-0.3C79.1,50.6,79.1,49.5,79.1,49.5z"/>
<path class="st16" d="M19.6,61.2l-3-4.6c0,0-2.6-5.9-2.7-7s-0.2-3.7,1.9-4.3s6.8-0.2,8.2,0.9s3.3,4.6,3.7,5.1s1,2.4,0.5,3.7
	C27.9,56.4,21.6,62.2,19.6,61.2z"/>
<path class="st17" d="M23.4,43.6c0,0,0.7-0.6,1.1-0.8c0.4-0.2,1.2,0.3,1.7,0.5c0.4,0.2,1.2,0.2,1.1,0.9c-0.2,0.7-0.5,2.2-1,2.8
	c-0.5,0.6-1.1,2.5-1,3.3c0.1,0.8-0.1,2.3-0.2,2.3s-1.2-0.5-1.4-0.6c-0.2-0.1-1.5-1.1-1.8-1.6c-0.3-0.5-0.5-1.8-0.3-2.5
	C21.7,47.2,23.4,43.6,23.4,43.6z"/>
<path class="st18" d="M14.9,51.5c-0.2,0-1.4-0.4-2-0.9c-0.6-0.5-1.9-1.4-2.2-2.1c-0.3-0.7-1.9-3.2-2-3.8c-0.1-0.7,0.2-1,0.2-1.5
	c0-0.5-0.4-0.3-0.5-0.9c-0.1-0.6-0.1-1.2,0.2-1.5c0.3-0.3,1.2-0.8,1.2-1.1s0.7-2,1.9-1.3c1.3,0.7,4,2.8,4.2,3.2s1,1.6,1.1,2.2
	c0.1,0.6,0.8,2.7,1,3.5c0.2,0.8,0.2,2.3,0.2,2.7s0,1.8-0.1,1.8s-1.3,0.4-1.4,0.4C16.5,52.2,14.9,51.5,14.9,51.5z"/>
<path class="st19" d="M20.9,51.8c-0.3-0.4-1-2.1-1.4-2.7c-0.4-0.6-0.9-1.7-0.9-2.2c0-0.5,0.5-1.5,0.8-1.7c0.3-0.2,2.6-1.9,3-2.1
	c0.4-0.2,0.8,0,1.1-0.1c0.3-0.1,0.9-0.4,1-0.2c0.1,0.2-0.6,1.3-0.8,1.9c-0.2,0.6-1.2,2.4-1.2,3s-0.2,1.7,0.2,2.2
	c0.4,0.5,0.6,0.3,0.9,0.6c0.3,0.3,0.8,0.8,0.8,1.1c0,0.2,0.2,1.1-0.1,1.1c-0.4,0.1-1.3,0.2-1.4,0.2c-0.1,0-0.6-0.3-0.9-0.2
	C21.5,52.7,20.9,51.8,20.9,51.8z"/>
<path class="st20" d="M17.5,59.6c0,0.2,1.6,3.6,2.3,4.4s2.7,2.2,3.5,2.3s4.2,0.8,5.1,0.3c0.8-0.5,2.5-2.3,2.7-3.4
	c0.2-1.1,0.7-1.9,0.7-2.7c0-0.8-0.1-1.7-0.4-2c-0.2-0.4-2.2-1.1-2.4-1.2c-0.2-0.1-4-1.4-4-1.4l-2.3-1.5c0,0-1.7-0.1-2.3,0.2
	s-0.6,0-1.5,1.2C18.1,56.9,17.5,59.6,17.5,59.6z"/>
<path class="st21" d="M23.2,53.8c-0.2,0.1-1.9,1-2.8,1.8c-0.9,0.8-1.2,2.5-1.8,3.6c-0.7,1-3.5,3.2-3.7,3.4s-4,3.2-4.6,3
	c-0.6-0.2-1.7-0.8-2-2.4C8,61.5,6.8,59.5,7,58.2c0.2-1.3,0.5-2.3,0.8-3c0.3-0.7,0.9-2.1,1.5-2.6c0.6-0.5,3.1-1.4,3.8-1.5
	c0.7-0.1,2-0.4,2.6-0.3c0.6,0.1,2.4,0.6,3,0.6s1.3,0.1,2.2,0.3s1.5,0.4,1.8,0.4c0.3,0,0.6,0.2,0.6,0.4
	C23.5,52.7,23.2,53.8,23.2,53.8z"/>
<path class="st11" d="M22.7,54.3c0,0-0.4,0.6-0.5,1.5c-0.1,0.9-0.7,1.5-0.2,2s1.5,1.1,2.4,1.3s2.8,0.5,3.6,0.4
	c0.8-0.1,4.3-1.9,4.9-3.1c0.5-1.2,0.7-1.2,0.4-1.6c-0.3-0.4-0.7-0.8-0.5-0.9s0.7-0.7,1-0.9c0.3-0.2,1.5-1.6,1.7-2
	c0.2-0.5,0-2.3-0.2-2.7s-1.2-0.7-1.6-1.1c-0.5-0.5-3-2.4-3.6-2.8c-0.6-0.4-1.7-0.7-2.5-0.7c-0.8,0-1.7,0.1-3,1
	c-1.3,0.9-2.1,1.6-2.2,3.1s0.7,1.9,1,2.8c0.3,0.8,1,2.5,0.6,2.7C23.6,53.3,22.7,54.3,22.7,54.3z"/>
<path class="st22" d="M21.2,52.3c0,0-0.7-0.8-0.8-1.3s0.1-1-0.1-1.4c-0.2-0.4-0.2-1,0.1-1.1s0.5,0,0.5,0.2s-0.2,0.7,0.3,1.2
	c0.5,0.5,0.7,0.8,1,1.2c0.3,0.4,0.9,0.8,0.7,1c-0.2,0.2-0.6,0.4-0.7,0.4C22.1,52.6,21.2,52.3,21.2,52.3z"/>
<path class="st14" d="M19.4,53.9c0-0.2,0-0.9,0.1-1.1s0.7-0.8,0.9-0.9c0.2-0.1,1.3,0.1,1.3,0s1.9,0.5,1.7,0.5
	C23.2,52.6,23,53,23,53.2c0,0.2,0.2,1.1,0.1,1.2c-0.1,0.1-0.7,0.1-0.7,0.1s-2.2-0.4-2.3-0.4C20,54.1,19.4,53.9,19.4,53.9z"/>
<path class="st23" d="M23.2,54.6c0.1-0.1,0.8-0.8,0.8-1.1s0.2-0.6-0.1-0.7c-0.3-0.1-0.6-0.2-0.8,0s-0.4,0.5-0.3,0.8s0.2,0.9,0.2,0.9
	S23,54.7,23.2,54.6z"/>
<path class="st24" d="M15,48.5c0,0-3.7-2.9-3.9-3c-0.2-0.1-1.7-1-2.1-1c-0.3,0.1-0.4-0.3-0.3-0.6c0.1-0.4-0.2-0.5,0.1-0.8
	c0.3-0.3,4,2.1,4.6,2.7s1.9,1.7,2.2,1.9c0.3,0.3,0.7,0.8,0.7,0.8s0,0.6-0.1,0.6C16.3,49.2,15,48.5,15,48.5z"/>
<path class="st15" d="M17.9,51.3c0,0-1-1-1.5-1.3c-0.4-0.3-0.9-0.7-0.9-0.9c0-0.2,0.1-0.4,0.1-0.4s3.3,0.4,3.4,0.4s1,0.2,1.2,0.4
	c0.2,0.2,0.4,0.6,0.6,1.1c0.2,0.5,0.1,1,0.1,1l-2.9-0.4L17.9,51.3z"/>
<path class="st25" d="M17.1,48.8c0,0,0.1-1.5,0-2.1c-0.1-0.6-0.6-2.3-0.7-2.8c-0.1-0.6,0.4-1.8,0.5-1.9c0.1-0.1,0.9-0.9,1.1-1
	c0.2-0.1,1.5,0.2,1.7,0.2c0.2,0,1,0.8,1.3,1.4s-0.2,2.1-0.7,2.5s-1.3,1.1-1.5,1.8c-0.2,0.7-0.3,1.6-0.3,1.8c0,0.2-0.1,0.4-0.1,0.4
	L17.1,48.8z"/>
<path class="st17" d="M16.2,44.4c-0.2-0.2-1.6-1.5-1.9-1.8c-0.3-0.3-1.3-1.4-1.6-1.2c-0.3,0.1-0.4,0.8-0.9,0.5
	c-0.4-0.3-1.2-0.9-1.4-1.1c-0.2-0.3-0.2-0.3-0.2-0.8s0.1-0.8,0.2-0.9s0.7-0.6,0.9-0.5c0.2,0.1,3,1.4,3.4,2s0.9,0.8,1.1,1.4
	c0.2,0.6,0.3,0.9,0.3,1.2C16.3,43.5,16.2,44.4,16.2,44.4z"/>
<path class="st26" d="M18.9,59.6c0,0.3-0.4,1,0.8,1.5c1.2,0.5,1.2,1,3.2,0.8c2-0.2,2.5-0.7,2.7-1.3c0.2-0.6-0.1-1.1-1-1.3
	c-0.9-0.2-2.7-0.4-2.7-1.1s-0.1-2,0-2.2c0-0.1,0.4-0.7-0.2-0.3c-0.7,0.5-0.5-0.1-1.1,1C19.8,57.9,18.9,59.6,18.9,59.6z"/>
<path class="st27" d="M20,56.7c0,0,0.4-1.1,0.7-1.3c0.3-0.2,1-0.7,1.3-0.8c0.3-0.1,0.5,0.4,0.3,0.6s-0.8,0.6-0.8,0.6L20,56.7z"/>
<path class="st28" d="M16.6,56.6c-0.6,0.3-2.1,2.1-2.6,2.9c-0.5,0.9-0.8,2.1-1.9,2.4s-2.1,0.6-2.7,0.2s-1.2-1.4-1.4-2.4
	c-0.2-1-0.2-2.5,0.1-2.9c0.2-0.5,1.4-2.7,1.8-3.1c0.4-0.4,2.1-1.3,2.9-1.4c0.8-0.1,1.9,0.5,2.9,0.7c1,0.2,2.2-0.2,2.7,0.1
	c0.4,0.3,0.5,0.6,0.6,0.8c0.1,0.2,0.4,0.4,0.3,0.5c-0.1,0.1-1.2,0.7-1.6,1.1C17.3,55.9,16.6,56.6,16.6,56.6z"/>
<path class="st29" d="M34.2,51.2c-0.7-0.3-1.3-0.1-1.5-0.8c-0.2-0.7,0-1.2-0.1-1.7c0-0.5,0-0.8-0.3-1.2c-0.3-0.4-1.2-0.8-0.7-0.9
	c0.4,0,0.7,0.1,1.5,0.6c0.8,0.5,1.3,0.5,1.6,1.1c0.4,0.6,0.7,1.2,0.6,1.7S34.2,51.2,34.2,51.2z"/>
<path class="st16" d="M41.3,61.7l0.4-3.1c0,0,1.1-3.5,1.5-3.9c0.4-0.5,1.3-1.6,2.4-1.1c1.1,0.5,2.9,2.5,3.1,3.4
	c0.2,0.9-0.3,3.2-0.3,3.6c0,0.4-0.4,1.4-1.2,1.8C46.6,62.8,41.7,62.9,41.3,61.7z"/>
<path class="st17" d="M49.5,55.7c0,0,0.5,0,0.8,0.1c0.2,0.1,0.4,0.6,0.5,0.8c0.1,0.2,0.4,0.5,0.1,0.8s-1.1,0.7-1.5,0.8
	c-0.4,0.1-1.4,0.6-1.6,1c-0.2,0.4-0.9,1-1,0.9c-0.1-0.1-0.3-0.7-0.4-0.8c-0.1-0.1-0.2-1.1-0.2-1.4s0.5-1,0.8-1.2
	C47.4,56.6,49.5,55.7,49.5,55.7z"/>
<path class="st18" d="M42.9,55.8c-0.1-0.1-0.4-0.7-0.5-1.1c-0.1-0.4-0.3-1.3-0.1-1.7c0.1-0.4,0.4-2,0.6-2.4c0.2-0.3,0.5-0.4,0.6-0.6
	c0.2-0.2,0-0.3,0.1-0.6c0.2-0.3,0.4-0.5,0.6-0.6c0.2,0,0.8,0.1,0.9,0c0.2-0.1,1-0.6,1.3,0.2c0.3,0.8,0.6,2.7,0.6,2.9
	s-0.1,1.1-0.3,1.3s-0.7,1.4-0.9,1.9c-0.2,0.4-0.8,1.1-0.9,1.2s-0.7,0.7-0.7,0.7c-0.1,0-0.7-0.3-0.8-0.4
	C43.4,56.7,42.9,55.8,42.9,55.8z"/>
<path class="st19" d="M45.4,58.2c0-0.3,0.4-1.3,0.4-1.7c0.1-0.4,0.2-1.1,0.4-1.3c0.2-0.2,0.8-0.4,1-0.4c0.2,0,1.8,0.2,2.1,0.2
	c0.3,0.1,0.3,0.3,0.5,0.4c0.2,0.1,0.5,0.2,0.5,0.3s-0.8,0.3-1.1,0.5s-1.4,0.6-1.7,0.8c-0.3,0.2-0.7,0.6-0.7,1c0,0.3,0.1,0.3,0.1,0.6
	s0,0.6-0.1,0.7c-0.1,0.1-0.3,0.5-0.5,0.4c-0.2-0.1-0.6-0.4-0.7-0.5c-0.1-0.1-0.1-0.3-0.3-0.4C45.3,58.8,45.4,58.2,45.4,58.2z"/>
<path class="st20" d="M41,60.2c-0.1,0.1-0.7,2.1-0.7,2.7c0,0.6,0.4,1.9,0.6,2.3c0.2,0.3,1.5,1.9,2,2c0.5,0.1,1.9-0.1,2.4-0.4
	c0.5-0.4,1-0.5,1.3-0.9c0.3-0.3,0.6-0.8,0.6-1s-0.5-1.3-0.6-1.4c0-0.1-1.2-2.1-1.2-2.1L45.2,60c0,0-0.7-0.7-1.1-0.8
	c-0.3-0.1-0.3-0.2-1.1,0C42.3,59.3,41,60.2,41,60.2z"/>
<path class="st21" d="M45.6,59.9c-0.1,0-1.2-0.3-1.8-0.3c-0.7,0-1.4,0.6-2.1,0.8s-2.6,0.1-2.8,0.1c-0.2,0-2.9-0.2-3-0.5
	c-0.2-0.3-0.4-1,0-1.8c0.5-0.8,0.7-2.1,1.3-2.6s1.1-0.8,1.4-1c0.4-0.2,1.2-0.5,1.6-0.5s1.8,0.6,2.2,0.8s1,0.6,1.2,0.8
	c0.2,0.3,0.8,1.1,1,1.4c0.2,0.2,0.5,0.5,0.8,1c0.3,0.4,0.5,0.7,0.6,0.9c0.1,0.1,0.2,0.3,0.1,0.4S45.6,59.9,45.6,59.9z"/>
<path class="st11" d="M45.2,60c0,0-0.4,0.1-0.8,0.4c-0.4,0.3-0.9,0.4-0.8,0.8c0.1,0.4,0.2,1,0.5,1.4c0.3,0.4,1,1.3,1.4,1.5
	c0.4,0.2,2.6,0.8,3.2,0.5s0.7-0.2,0.8-0.5c0-0.3,0-0.6,0.1-0.6c0.1,0,0.6,0,0.8,0c0.2,0,1.2-0.1,1.5-0.2c0.3-0.1,0.9-0.9,0.9-1.2
	c0.1-0.2-0.2-0.7-0.3-1.1c0-0.4-0.4-2.2-0.5-2.5s-0.5-0.9-0.8-1.2c-0.3-0.3-0.7-0.6-1.7-0.7c-0.9-0.1-1.5-0.1-2.1,0.5
	c-0.6,0.6-0.4,1.1-0.6,1.6s-0.5,1.4-0.7,1.3C46,59.8,45.2,60,45.2,60z"/>
<path class="st22" d="M45.3,58.5c0,0,0-0.6,0.1-0.8c0.1-0.2,0.4-0.4,0.5-0.6c0.1-0.3,0.3-0.5,0.4-0.5c0.2,0.1,0.2,0.2,0.1,0.3
	c-0.1,0.1-0.3,0.2-0.3,0.6s0,0.6-0.1,0.9c0,0.3,0.1,0.7-0.1,0.7S45.6,59,45.6,59C45.6,59,45.3,58.5,45.3,58.5z"/>
<path class="st14" d="M43.9,58.5c0.1-0.1,0.3-0.4,0.5-0.4s0.6-0.1,0.7,0s0.5,0.5,0.5,0.5c0,0,0.6,0.9,0.5,0.9c-0.1,0-0.4,0-0.5,0.2
	c-0.1,0.1-0.3,0.5-0.4,0.5c-0.1,0-0.4-0.2-0.4-0.2s-0.8-1-0.8-1S43.9,58.5,43.9,58.5z"/>
<path class="st23" d="M45.3,60.2c0.1,0,0.6,0,0.7-0.2s0.3-0.2,0.2-0.3c-0.1-0.1-0.2-0.3-0.3-0.3s-0.4,0.1-0.4,0.2
	c-0.1,0.1-0.3,0.5-0.3,0.5S45.1,60.2,45.3,60.2z"/>
<path class="st24" d="M44.1,54.6c0,0-0.5-2.6-0.5-2.7s-0.3-1.1-0.5-1.2s-0.1-0.3,0.1-0.4c0.2-0.1,0.1-0.3,0.4-0.3
	c0.3,0,0.9,2.4,1,2.9c0.1,0.5,0.2,1.4,0.2,1.6s0,0.6,0,0.6s-0.2,0.3-0.3,0.2C44.4,55.4,44.1,54.6,44.1,54.6z"/>
<path class="st15" d="M44.3,56.9c0,0-0.1-0.8-0.1-1.1s-0.1-0.6-0.1-0.7s0.2-0.1,0.2-0.1c0.1,0,1.2,1.4,1.3,1.5c0,0,0.3,0.5,0.3,0.6
	s-0.1,0.4-0.2,0.7c-0.1,0.3-0.3,0.5-0.3,0.5L44.3,56.9L44.3,56.9z"/>
<path class="st25" d="M44.9,55.5c0,0,0.6-0.6,0.8-0.9c0.2-0.3,0.6-1.2,0.8-1.4c0.2-0.3,0.8-0.6,0.9-0.6s0.7,0,0.8,0
	c0.1,0,0.6,0.6,0.6,0.7s0.2,0.7,0.1,1.1s-0.9,0.8-1.2,0.8c-0.3,0-1,0-1.3,0.2c-0.3,0.2-0.7,0.6-0.8,0.6c-0.1,0.1-0.2,0.1-0.2,0.1
	L44.9,55.5z"/>
<path class="st17" d="M46.1,53.3c0-0.2-0.1-1.2-0.1-1.5s-0.1-1.1-0.2-1.1c-0.2-0.1-0.5,0.2-0.5-0.1c-0.1-0.3-0.2-0.8-0.2-1
	c0-0.2,0-0.2,0.2-0.4c0.2-0.2,0.3-0.3,0.4-0.3c0.1,0,0.5,0,0.5,0.1s0.8,1.7,0.7,2.1c0,0.4,0.1,0.7-0.1,1s-0.2,0.5-0.3,0.7
	C46.5,53,46.1,53.3,46.1,53.3z"/>
<path class="st26" d="M41.6,60.8c-0.1,0.1-0.5,0.3-0.2,0.9c0.3,0.7,0.1,0.8,1.1,1.5s1.3,0.6,1.6,0.5s0.4-0.5,0.1-0.9
	c-0.3-0.4-1-1.2-0.8-1.5c0.2-0.3,0.7-0.9,0.8-0.9s0.5-0.1,0-0.2c-0.5-0.1-0.2-0.3-0.8,0S41.6,60.8,41.6,60.8z"/>
<path class="st27" d="M43.1,59.9c0,0,0.6-0.3,0.8-0.3c0.2,0,0.7,0.1,0.9,0.2s0.1,0.4-0.1,0.4s-0.6,0-0.6,0L43.1,59.9z"/>
<path class="st28" d="M41.8,58.6c-0.4-0.1-1.7,0.1-2.2,0.3c-0.5,0.2-1.1,0.6-1.7,0.3c-0.6-0.3-1.1-0.5-1.2-0.9s0-1.1,0.3-1.5
	c0.3-0.5,0.8-1.1,1.1-1.2c0.3-0.1,1.6-0.6,1.9-0.6c0.3,0,1.4,0.2,1.8,0.5c0.4,0.3,0.6,1,1,1.4c0.3,0.4,1,0.8,1.1,1s0,0.5,0,0.6
	c0,0.1,0,0.3-0.1,0.3c-0.1,0-0.8-0.1-1.1-0.1C42.3,58.6,41.8,58.6,41.8,58.6z"/>
<path class="st29" d="M51.2,62.9c-0.2-0.4-0.5-0.5-0.4-0.9c0.2-0.4,0.5-0.5,0.6-0.7c0.1-0.2,0.3-0.4,0.3-0.6c0-0.3-0.2-0.8,0-0.6
	c0.2,0.1,0.3,0.3,0.4,0.8s0.4,0.7,0.3,1.1c-0.1,0.4-0.2,0.8-0.4,1S51.2,62.9,51.2,62.9z"/>
<path class="st16" d="M65.6,42.9L61,42.4c0,0-5.4,0.3-6.2,0.7c-0.8,0.4-2.8,1.3-2.5,3.1c0.3,1.8,2.5,5.1,3.8,5.7
	c1.3,0.6,4.7,0.7,5.3,0.8c0.6,0.1,2.2-0.2,3-1.1C65.3,50.8,67.2,43.9,65.6,42.9z"/>
<path class="st17" d="M54.1,52.5c0,0-0.2,0.8-0.2,1.2s0.7,0.8,1,1c0.3,0.2,0.6,0.8,1.1,0.4c0.4-0.4,1.4-1.3,1.7-1.8
	c0.3-0.6,1.4-1.8,2.1-2c0.7-0.2,1.7-1,1.6-1.1c-0.1-0.1-0.9-0.7-1-0.8c-0.2-0.1-1.4-0.7-1.9-0.7c-0.5,0-1.6,0.3-1.9,0.7
	S54.1,52.5,54.1,52.5z"/>
<path class="st18" d="M56.6,43.1c-0.1-0.2-0.9-0.9-1.4-1.1c-0.6-0.3-1.8-0.8-2.4-0.8c-0.7,0-3.1-0.2-3.6,0c-0.5,0.2-0.7,0.5-1,0.7
	c-0.3,0.2-0.4-0.2-0.9,0c-0.5,0.2-0.9,0.3-1,0.7c-0.1,0.3-0.1,1.2-0.3,1.4c-0.2,0.2-1.2,1.3-0.2,1.9s3.6,1.9,4.1,1.9
	c0.4,0,1.6,0.2,2,0c0.5-0.2,2.3-0.4,3-0.6c0.7-0.2,1.8-0.8,2.1-0.9C57,46,58,45.5,58,45.4s-0.2-1.1-0.3-1.2
	C57.7,44,56.6,43.1,56.6,43.1z"/>
<path class="st19" d="M59.1,47.5c-0.4-0.1-1.9,0.1-2.5,0c-0.6-0.1-1.6,0-2,0.2s-0.9,0.9-0.9,1.3c0,0.3-0.4,2.7-0.4,3.1
	c0,0.4,0.3,0.6,0.4,0.9c0.1,0.3,0,0.8,0.2,0.8s0.7-1,1.1-1.4c0.3-0.4,1.3-1.8,1.8-2.1c0.4-0.3,1.2-0.8,1.7-0.7
	c0.5,0.1,0.4,0.3,0.8,0.4s0.9,0.3,1.1,0.2s0.9-0.3,0.8-0.5c-0.1-0.3-0.4-1-0.4-1.1c-0.1-0.1-0.4-0.3-0.5-0.6
	C60,47.5,59.1,47.5,59.1,47.5z"/>
<path class="st20" d="M63.6,41.9c0.2-0.1,3.3-0.3,4.1,0c0.8,0.3,2.7,1.2,3.1,1.7c0.4,0.5,2.3,2.8,2.2,3.6c0,0.8-0.8,2.8-1.5,3.4
	c-0.7,0.6-1.1,1.3-1.7,1.6s-1.3,0.5-1.7,0.5s-1.7-1.2-1.8-1.3c-0.1-0.1-2.6-2.4-2.6-2.4l-2-1.1c0,0-0.7-1.3-0.7-1.8
	c0-0.5-0.2-0.5,0.3-1.5C61.9,43.4,63.6,41.9,63.6,41.9z"/>
<path class="st21" d="M61.5,48.4c0-0.2,0-1.8,0.2-2.7s1.4-1.8,1.9-2.8c0.5-0.9,1-3.8,1.1-4.1c0.1-0.3,0.8-4.2,0.4-4.6
	c-0.4-0.3-1.2-0.9-2.5-0.6c-1.3,0.4-3.2,0.3-4.1,0.9c-0.9,0.7-1.5,1.3-1.9,1.8c-0.4,0.5-1.2,1.5-1.3,2.1c-0.1,0.7,0.2,2.8,0.4,3.4
	c0.2,0.6,0.5,1.6,0.8,2.1c0.3,0.4,1.4,1.6,1.6,2c0.3,0.4,0.6,1,1.1,1.5c0.5,0.6,0.9,1,1,1.2s0.3,0.3,0.5,0.3
	C60.8,49,61.5,48.4,61.5,48.4z"/>
<path class="st11" d="M61.8,47.8c0,0,0.3-0.5,0.9-1c0.6-0.5,0.8-1.1,1.4-0.9c0.5,0.2,1.4,0.7,1.9,1.3s1.5,1.9,1.7,2.5
	c0.2,0.6,0.3,4-0.4,4.8s-0.6,0.9-1,0.9c-0.4,0-0.9-0.2-0.9,0c0,0.2-0.3,0.8-0.3,1.1c0,0.3-0.6,1.7-0.8,2.1c-0.3,0.3-1.7,0.9-2,0.9
	s-0.9-0.6-1.5-0.8c-0.5-0.2-3-1.3-3.5-1.6s-1.2-1-1.5-1.6c-0.3-0.6-0.6-1.3-0.4-2.6c0.2-1.4,0.3-2.2,1.4-2.9
	c1.1-0.6,1.7-0.2,2.5-0.3c0.7-0.1,2.2-0.2,2.2-0.6S61.8,47.8,61.8,47.8z"/>
<path class="st22" d="M59.7,47.5c0,0-0.9-0.2-1.3-0.1c-0.4,0-0.7,0.5-1.1,0.5c-0.4,0-0.9,0.2-0.8,0.5s0.2,0.4,0.4,0.3
	c0.2-0.1,0.4-0.4,1-0.3c0.6,0.1,0.9,0.2,1.3,0.2s0.9,0.4,1,0.2s0.1-0.6,0.1-0.7C60.2,48,59.7,47.5,59.7,47.5z"/>
<path class="st14" d="M60.1,45.5c-0.1,0-0.7,0.3-0.8,0.5S59,46.9,59,47c0,0.2,0.5,0.9,0.5,1s1.1,1.2,1.1,1.1c0-0.2,0.2-0.5,0.4-0.6
	c0.2-0.1,0.9-0.2,0.9-0.4c0-0.1-0.2-0.6-0.2-0.6s-1.1-1.5-1.2-1.6S60.1,45.5,60.1,45.5z"/>
<path class="st23" d="M62.1,48.1c0,0.2-0.3,0.9-0.5,1s-0.4,0.4-0.6,0.2c-0.2-0.2-0.4-0.3-0.3-0.6s0.3-0.5,0.5-0.6
	c0.2-0.1,0.8-0.2,0.8-0.2S62.2,47.9,62.1,48.1z"/>
<path class="st24" d="M54.4,44.4c0,0-3.6-1.6-3.8-1.8c-0.1-0.1-1.4-0.9-1.5-1.2c-0.1-0.3-0.4-0.2-0.6,0c-0.2,0.2-0.5,0-0.5,0.4
	c-0.1,0.4,3.2,2.2,3.8,2.4s2,0.8,2.3,0.9c0.3,0.1,0.9,0.2,0.9,0.2s0.5-0.3,0.4-0.3C55.4,45,54.4,44.4,54.4,44.4z"/>
<path class="st15" d="M57.6,45.4c0,0-1.1-0.4-1.5-0.6c-0.4-0.2-0.9-0.4-1-0.3c-0.1,0.1-0.2,0.2-0.2,0.3s1.6,2.3,1.7,2.4
	s0.6,0.7,0.8,0.7c0.2,0.1,0.6,0,1,0c0.4,0,0.8-0.3,0.8-0.3l-1.4-2L57.6,45.4z"/>
<path class="st25" d="M55.4,45.8c0,0-1.1,0.7-1.6,0.8c-0.5,0.1-1.9,0.5-2.4,0.6c-0.5,0.1-1.2,1-1.2,1.1c-0.1,0.1-0.3,1-0.3,1.2
	c0,0.2,0.7,1.1,0.9,1.2c0.1,0.1,1,0.5,1.5,0.5c0.6,0,1.5-1,1.6-1.5c0.1-0.5,0.3-1.4,0.7-1.8s1.1-0.8,1.2-0.9
	c0.1-0.1,0.2-0.2,0.2-0.2L55.4,45.8z"/>
<path class="st17" d="M51.8,46.8c-0.2-0.1-1.7-0.6-2.1-0.7s-1.5-0.5-1.6-0.7c0-0.3,0.4-0.6,0-0.8s-1.1-0.6-1.4-0.6
	c-0.3,0-0.3-0.1-0.7,0.1c-0.4,0.2-0.5,0.4-0.6,0.5c-0.1,0.1-0.2,0.7,0,0.8c0.2,0.1,2.2,1.7,2.8,1.8s1,0.3,1.5,0.3
	c0.5-0.1,0.8-0.1,1.1-0.2C51.2,47.2,51.8,46.8,51.8,46.8z"/>
<path class="st26" d="M64.2,42.9c0.2-0.1,0.6-0.7,1.4,0c0.9,0.7,1.2,0.5,1.8,2.1s0.5,2.1,0.1,2.5c-0.4,0.4-0.9,0.4-1.4-0.3
	s-1.4-1.9-1.9-1.6c-0.5,0.2-1.6,0.7-1.6,0.8c-0.1,0.1-0.4,0.6-0.3-0.1c0.1-0.7-0.3-0.4,0.3-1.2C63.3,44.3,64.2,42.9,64.2,42.9z"/>
<path class="st27" d="M62.5,44.9c0,0-0.7,0.7-0.7,1c0,0.4-0.1,1-0.1,1.3c0.1,0.3,0.5,0.3,0.6,0c0.1-0.3,0.1-0.9,0.1-0.9L62.5,44.9z"
	/>
<path class="st28" d="M61,42.4c0-0.6,0.7-2.4,1.2-3c0.5-0.7,1.2-1.5,1.1-2.4c-0.2-0.9-0.4-1.8-0.9-2.1c-0.5-0.3-1.5-0.3-2.3-0.1
	s-1.9,0.8-2.2,1.2c-0.3,0.4-1.4,2.1-1.6,2.5c-0.2,0.4-0.2,2.1,0.1,2.7c0.2,0.7,1.2,1.2,1.7,1.9c0.5,0.7,0.7,1.7,1.1,1.9
	c0.4,0.2,0.7,0.1,0.9,0.1c0.2,0,0.5,0.1,0.5,0c0-0.1,0.1-1.2,0.2-1.6C60.8,43.2,61,42.4,61,42.4z"/>
<path class="st29" d="M63.9,57.6c-0.5-0.4-0.6-1-1.2-0.8c-0.6,0.1-0.9,0.5-1.3,0.6c-0.4,0.1-0.6,0.3-1,0.2s-1.1-0.5-0.9-0.2
	c0.1,0.3,0.3,0.5,1.1,0.9c0.7,0.4,0.9,0.8,1.5,0.8c0.6,0,1.2,0,1.5-0.3C63.8,58.5,63.9,57.6,63.9,57.6z"/>
<path class="st1" d="M54.2,80.3c-1.6-1.5-2.2-3.5-4.7-5.6c-2.5-2.2-2.4-3.9-5.7-3.6c-3.4,0.3-6.8,1.8-7.9,3.7c-1.1,1.8-1.5,3-3.7,4
	s-4.9,2-5.2,3.1c-0.3,1.2-1.8,5.2-2.1,5.9s-0.4,1.6,1.5,1.1s3.3-0.7,6,0.2c2.7,0.8,6.2,2.1,8,1.8c1.8-0.3,4.8-0.2,5.9-1.5
	c1.1-1.3,2.4-3.9,3.7-3.8c1.3,0.1,2.8,1.7,3.7,3c0.9,1.3,1.4,3.8,3,3.7c1.6-0.1,2.3-0.7,2.9-0.8c0.7-0.1,2.1-1.1,1.8-1.7
	s-0.3-2.3-1.5-3.6c-1.2-1.4-0.4-0.3-2-2.1C56.5,82.1,54.2,80.3,54.2,80.3z"/>
</g>
</svg>
