<?xml version="1.0" encoding="utf-8"?>
<!-- Generator: Adobe Illustrator 23.1.1, SVG Export Plug-In . SVG Version: 6.00 Build 0)  -->
<svg version="1.1" id="Layer_1" xmlns="http://www.w3.org/2000/svg" xmlns:xlink="http://www.w3.org/1999/xlink" x="0px" y="0px"
	 viewBox="0 0 108 108" style="enable-background:new 0 0 108 108;" xml:space="preserve">
<style type="text/css">
	.st0{fill:none;stroke:#1C5E13;stroke-width:2;stroke-linecap:round;stroke-miterlimit:10;}
	.st1{fill:none;stroke:#507C39;stroke-linecap:round;stroke-miterlimit:10;}
	.st2{fill:#E3E5E2;}
	.st3{fill:#B3B9AF;}
	.st4{fill:#DC9A08;}
</style>
<g>
	<path class="st0" d="M66.9,58.9c0,0-8.2,22.2-8.8,23.1c-0.6,1-3.5,13.7-3.5,13.7"/>
	<path class="st0" d="M36.4,58.3c0,0,6.1,16.6,6.6,17.6c0.5,1,6.8,6.5,7.3,7.3c0.5,0.8,2.4,12.6,2.4,12.6"/>
	<path class="st0" d="M61,28.9l-7.4,34.7c0,0,0.1,16.1,0.3,16.8C54,81.1,54,94.1,54,94.1"/>
	<path class="st1" d="M67.7,58.6c0,0-8.2,22.2-8.8,23.1c-0.6,1-3.5,13.7-3.5,13.7"/>
	<path class="st1" d="M37.3,58c0,0,6.1,16.6,6.6,17.6c0.5,1,6.8,6.5,7.3,7.3c0.5,0.8,2.4,12.6,2.4,12.6"/>
	<path class="st1" d="M61.8,28.6l-7.4,34.7c0,0,0.1,16.1,0.3,16.8c0.2,0.7,0.2,13.7,0.2,13.7"/>
	<path class="st2" d="M21.3,71.9c1-0.3,2.1-0.6,3-1.3c0.4-0.3,0.7-0.5,1.1-0.8c0,0,0.1-0.1,0.1-0.1l0,0l0,0c0.1-0.6,0.7-1,1-1.5
		c0.3-0.5,0.6-0.4,1,0.2c-0.7,1.5-0.5,3-0.4,4.5c0,0.3,0.1,0.5,0.4,0.5c1.1-1,1.7-2.3,2.1-3.7c0.1-0.3,0-0.5-0.3-0.6
		c-0.3-0.1-0.4,0.1-0.5,0.3c-0.3,0.3-0.3,0.7-0.7,1c0-0.7,0.3-1.2,0.4-1.7c0.1-0.3,0.7-0.7-0.1-1c-0.1,0,0-0.2,0.1-0.3
		c0.4-0.4,0.5,0.1,0.6,0.4c0.4-0.4,0.5-1,1.1-1.3c-0.2,0.6-0.5,0.9-0.6,1.3c-0.1,0.5,0.1,0.6,0.5,0.4c0.7-0.2,1.4-0.5,2.1-1
		c0.3-0.2,0.6-0.8,0.9-0.6c0.3,0.1,0.3,0.7,0.4,1.1c0.2,0.4,0.7,0.6,0.8,1c1,0.4,1,0.4,1.7-0.4c0.1-0.1,0.1-0.1,0.2-0.2
		c0.5-0.3,0.8-0.7,1-1.3c0.4-0.9,0.3-1.7,0.3-2.6c0-0.2-0.1-0.5,0.1-0.6c0.2-0.1,0.4,0.2,0.6,0.3c0.5,0.4,0.9,0.9,1.4,1.3
		c0.6,0.5,1.3,0.8,2.1,0.6c0.3-0.1,0.5-0.2,0.6-0.4c0.3-0.7,0.7-0.6,1.1-0.2c0.1,0,0.1,0.1,0.2,0.1c0.2,0,0.3,0.1,0.3,0.2
		c0,0,0,0,0,0c0.2-0.1,0.3,0,0.5,0.1c1.1,0.5,2.3,0.7,3.6,0.8c0.6,0,1-0.1,1.1-0.7c-0.1-0.9-0.6-1.6-1.3-2.1
		c-1.1-0.7-2.2-1.4-3.4-2.2c1-0.1,1.9-0.4,2.8-0.2c0-0.2,0.2-0.2,0.4-0.3c0.6-0.3,1.3,0.2,1.7-0.6c0,0,0.1,0,0.1,0
		c0.2-0.1,0.3-0.1,0.5-0.2c0.2-0.1,0.3-0.2,0.5-0.4c0.1-0.1,0.1-0.1,0.2-0.2c0.2-0.4,0-0.7,0-1.1c-0.1-0.1-0.1-0.1-0.2-0.2
		c0,0-0.1-0.1-0.1-0.1c-0.2-0.1-0.3-0.2-0.4-0.4c-0.1,0-0.1-0.1-0.2-0.1c-0.1,0-0.1-0.1-0.2-0.1c-0.2-0.1-0.3-0.1-0.6-0.2
		c0.3-0.2,0.6-0.4,0.9-0.4c0.1,0,0.1-0.1,0.2-0.1c0.1,0,0.1,0,0.2,0c0,0,0.1,0,0.1-0.1c0.6-0.7,1.3-1.4,2.2-1.7
		c0.3-0.1,0.7-0.3,0.5-0.7c-0.2-0.3-0.5-0.1-0.8,0c-1,0.4-2,0.9-3,1.3c-0.2,0.1-0.4,0.2-0.7,0c1-0.6,1.8-1.3,2.9-1.6
		c0.5-0.1,1.1-0.3,1.2-0.9c0-0.1-0.1-0.3,0.1-0.4c0.2,0,0.3,0.1,0.4,0.3c0.4-0.2,0.7-0.5,1.1-0.6c0.1-0.1,0.1-0.2,0.2-0.2
		c0-0.2,0-0.4,0-0.6c0,0-0.1-0.1-0.1-0.1c0,0-0.1,0-0.1-0.1c-0.4,0.1-0.8,0.1-1.3,0c-0.1,0-0.3,0-0.4,0.1c-0.5,0.1-1,0.3-1.5,0.4
		c-1.7,0.5-3.2,1.2-4.8,1.9c-0.4,0.2-0.7,0.5-1.2,0.5c-0.6,0.5-1.3,0.9-1.9,1.3l0,0c-0.1,0-0.1,0.1-0.2,0.1l0,0
		c0.1,0.3,0,0.6-0.3,0.8c-0.1,0.1-0.1,0.1-0.2,0.2c0.4,0.6,0.3,0.9-0.3,1.3c-0.3,0.3-0.8,0.5-0.9,0.9c-0.2,0.8-0.4,1.4-1.3,1.6
		c-0.8,0.2-1.5,0.4-2.2,0.8c0,0,0,0,0,0c-0.1,0-0.2,0-0.2,0c-0.1,0.1-0.2,0.2-0.3,0.3c-0.3,0.5-0.5,0.1-0.6-0.2
		c-0.8,0-1.6,0.2-2.4,0.5c-0.9,0.4-0.9,0.4-1.4-0.3c-0.1,0-0.1,0-0.2,0c-0.1,0.1-0.1,0.1-0.1,0c-0.3,0-0.5,0.2-0.8,0.1
		c-0.4-0.2-0.7-0.1-1.1,0c-0.3,0.1-0.6,0.2-0.9,0.3c-0.2,0.3-0.5,0.5-0.8,0.7c-1.3,0.9-2.1,2.1-2.2,3.8c0,0.3-0.2,0.5-0.4,0.6
		c-1.1,1.1-2.4,2.1-3.6,3.1C22.2,71,21.6,71.3,21.3,71.9z"/>
	<path class="st2" d="M46.1,53.7c-0.4,0.2-0.9,0.4-1.3,0.7c-0.7,0.3-1.3,0.7-1.9,1.1c-0.4,0.1-0.5-0.2-0.4-0.4
		c0.1-0.4-0.1-0.6-0.3-0.8c-0.5-0.5-1.1-0.9-1.6-1.3c-0.3-0.2-0.6-0.3-0.9-0.2c0.1-1,0.5-1.9,0.6-2.9c0.6-0.8,0.9-1.7,1.3-2.6
		c0.1-0.1,0.1-0.1,0.1-0.3c0.2-0.1,0.3-0.3,0.3-0.5c0,0,0-0.1,0.1-0.1c0.3-0.3,0.5-0.6,0.6-0.9l0,0c0.1,0,0.1-0.1,0.2-0.2l0,0
		c0.1-0.1,0.2-0.2,0.3-0.3c0.4,0.3,0.2,0.7-0.1,0.9c-0.7,0.9-0.9,1.9-1.4,2.9c0.9-0.7,1.1-1.8,1.9-2.5c0.2,0.1,0.2,0.2,0.1,0.3
		c0,0.2-0.1,0.4,0.1,0.6c0.3,0.1,0.4,0,0.6-0.2c0.1-0.2,0.2-0.5,0.5-0.3c0.2,0.1,0,0.5-0.1,0.6c-0.3,0.3-0.3,0.8-0.4,1.2
		c-0.1,0.2,0,0.4,0.2,0.5c0.2,0.1,0.3,0,0.5-0.1c0.6-0.4,1.2-0.9,1.9-1.4c0.1,0.3-0.2,0.4-0.2,0.6c0.1,0.1,0.1,0.1,0.2,0
		c0.3-0.1,0.6-0.4,0.8-0.1c0.2,0.3,0.2,0.7-0.1,1c-0.3,0.3-0.6,0.6-1,0.8c-0.4,0.3-0.8,0.7-1.1,1.1c-0.1,0.1-0.3,0.3-0.2,0.5
		c0.1,0.2,0.3,0,0.4,0c0,0,0.1,0,0.1,0c0.3,0.3,0.3,0.2,0.6,0c1-0.7,2-1.2,3.1-1.7c0.2-0.1,0.5-0.1,0.5-0.4c0.3-0.1,0.7-0.2,1-0.3
		c0.2,0.2,0.4,0,0.5,0c0.3,0,0.5,0,0.5,0.3l0,0c-0.4,0.1-0.8,0.3-1.1,0.6c0.5,0.1,0.9-0.1,1.2-0.4c0.1,0.1,0.4,0,0.2,0.3
		c-0.1,0.1-0.4,0.2-0.5,0.4c-0.7,0.5-1.4,0.9-2.1,1.4C48.5,52.3,47.3,53,46.1,53.7z M50.7,50C50.7,50,50.7,50,50.7,50
		C50.6,50,50.6,50,50.7,50C50.6,50,50.6,50.1,50.7,50C50.7,50.1,50.7,50,50.7,50z"/>
	<path class="st3" d="M39.3,66.1c0.3,2.2-0.1,4.4-0.7,6.5c-0.2,0.6-0.5,1.3-1.1,1.6c0.1-0.8,0.5-1.6,0.4-2.5
		c-0.6,0.8-0.7,1.8-0.8,2.7c-0.5,0.2-1,0-1.3-0.4c-0.7-0.8-1-1.7-1.3-2.7c-0.2-0.8-0.2-1.7-0.4-2.6c1,0.4,1,0.4,1.7-0.4
		c0.1-0.1,0.1-0.1,0.2-0.2c0.5-0.3,0.8-0.7,1-1.3c0.4-0.9,0.3-1.7,0.3-2.6c0-0.2-0.1-0.5,0.1-0.6c0.2-0.1,0.4,0.2,0.6,0.3
		c0.5,0.4,0.9,0.9,1.4,1.3C39.2,65.6,39.3,65.9,39.3,66.1z M36.4,71.7c-0.5,0.7,0,1.4,0,2.1C36.8,73.2,36.4,72.5,36.4,71.7z"/>
	<path class="st3" d="M44.7,43.4c-0.4,0.6-0.7,1.2-1.4,1.3c0,0.1-0.1,0.1-0.1,0.2c0.4,0.3,0.2,0.7-0.1,0.9c-0.7,0.9-0.9,1.9-1.4,2.9
		c0.9-0.7,1.1-1.8,1.9-2.5c0.2,0.1,0.2,0.2,0.1,0.3c0,0.2-0.1,0.4,0.1,0.6c0.3,0.1,0.4,0,0.6-0.2c0.1-0.2,0.2-0.5,0.5-0.3
		c0.2,0.1,0,0.5-0.1,0.6c-0.3,0.3-0.3,0.8-0.4,1.2c-0.1,0.2,0,0.4,0.2,0.5c0.2,0.1,0.3,0,0.5-0.1c0.6-0.4,1.2-0.9,1.9-1.4
		c0.1,0.3-0.2,0.4-0.2,0.6c0.1,0.1,0.1,0.1,0.2,0c0.3-0.1,0.6-0.4,0.8-0.1c0.2,0.3,0.2,0.7-0.1,1c-0.3,0.3-0.6,0.6-1,0.8
		c-0.4,0.3-0.8,0.7-1.1,1.1c-0.1,0.1-0.3,0.3-0.2,0.5c0.1,0.2,0.3,0,0.4,0c0,0,0.1,0,0.1,0c0.3,0.3,0.3,0.2,0.6,0
		c1-0.7,2-1.2,3.1-1.7c0.2-0.1,0.5-0.1,0.5-0.4c-0.1,0-0.2,0-0.3,0c-0.5,0.2-1,0.4-1.5,0.6c-0.3,0.2-0.6,0.4-1,0.4c0,0,0,0,0,0.1
		c0,0,0,0,0,0c0,0,0,0,0,0c0.3-0.4,0.7-0.7,1-1c0,0,0,0,0,0c0.1-0.2,0.3-0.5,0.5-0.6c0.1-0.1,0.2-0.3,0.3-0.4
		c0.2-0.3,0.3-0.5,0.5-0.8c0.2-0.3,0.3-0.7,0-1c0,0,0,0,0,0c-0.1,0-0.2,0-0.3-0.1c-0.1,0-0.2,0-0.3,0c-0.3,0.1-0.7,0.2-1,0.3
		c-0.5,0.3-0.5,0-0.6-0.3c-0.4-0.1-0.9,0.3-1.1,0c-0.3-0.3,0.1-0.7,0.1-1.1c0-0.3,0-0.6,0-0.9c0-1-0.2-1.2-1.2-1
		C45,43.2,44.8,43.3,44.7,43.4z"/>
	<path class="st3" d="M33.5,67.8c-0.1-0.4-0.2-1-0.4-1.1c-0.3-0.2-0.6,0.4-0.9,0.6c-0.6,0.4-1.3,0.7-2.1,1c-0.4,0.1-0.6,0.1-0.5-0.4
		c0.1-0.4,0.4-0.8,0.6-1.3c-0.6,0.3-0.7,0.9-1.1,1.3c-0.1-0.3-0.2-0.7-0.6-0.4c-0.1,0.1-0.2,0.2-0.1,0.3c0.7,0.3,0.1,0.7,0.1,1
		c-0.2,0.5-0.4,1-0.4,1.7c0.4-0.3,0.4-0.7,0.7-1c0.1-0.1,0.2-0.4,0.5-0.3c0.2,0.1,0.4,0.3,0.3,0.6c-0.4,1.4-1,2.7-2.1,3.7
		c0.1,0.6,0.5,0.1,0.7,0.1c0-0.5,0.3-0.8,0.5-1.1c0.6-0.9,1.1-1.7,1.7-2.6c0,0.8-0.4,1.4-0.9,2c-0.3,0.4-0.7,0.8-0.6,1.3
		c0.8-0.3,1.2-0.9,1.8-1.4c0.8-1.3,1.6-2.6,2.5-3.9C33.2,67.8,33.3,67.7,33.5,67.8z"/>
	<path class="st3" d="M49,65.9c-0.1,0.6-0.5,0.7-1.1,0.7c-1.3,0-2.5-0.3-3.6-0.8c-0.2-0.1-0.3-0.2-0.5-0.1c0.4,0.7,1,1.1,1.6,1.6
		c1.3,1,2.6,1.9,4.1,2.6c0.4,0.2,1,0.5,1.4,0.2c0.5-0.4,0.2-1,0-1.5C50.4,67.6,49.8,66.7,49,65.9z"/>
	<path class="st3" d="M53.1,53.4c-0.1-0.2-0.2-0.3-0.4-0.3c-0.2,0-0.1,0.2-0.1,0.4c-0.1,0.6-0.7,0.8-1.2,0.9c-1.1,0.3-1.9,1-2.9,1.6
		c0.3,0.2,0.5,0.1,0.7,0c1-0.4,2-0.9,3-1.3c0.3-0.1,0.6-0.4,0.8,0c0.2,0.4-0.2,0.6-0.5,0.7c-0.9,0.3-1.6,1-2.2,1.7
		c0.1,0,0.2,0,0.3,0c0.2-0.1,0.5-0.1,0.7-0.1c0.1,0,0.3,0,0.4-0.1c0,0,0.1,0,0.1,0c1.1-0.2,2.3-0.5,3.4-1c0.1,0,0.2-0.1,0.3-0.1
		c0.3-0.2,0.8-0.3,0.8-0.7c0-0.4-0.6-0.3-0.9-0.4c-0.1,0-0.2,0-0.2,0c0-0.1,0.1-0.1,0.2-0.2c-0.2-0.6-0.6-0.6-1.1-0.6
		C53.3,54,53.2,53.9,53.1,53.4z"/>
	<path class="st3" d="M49.3,60.6c0,0-0.1,0-0.1,0c-0.4,0.7-1.2,0.3-1.7,0.6c-0.1,0.1-0.3,0-0.4,0.3c0.7,0.5,1.5,0.7,2.3,1
		c1.2,0.5,2.3,0.9,3.5,1.3c0.2,0.1,0.4,0.3,0.6-0.1c0.2-0.3-0.1-0.5-0.3-0.7c-1.2-0.7-2.4-1.3-3.5-2C49.5,60.9,49.2,60.9,49.3,60.6z
		"/>
	<path class="st3" d="M51,48.9c0.2,0.2,0.4,0,0.5,0c0.3,0,0.5,0,0.5,0.3c0.5-0.1,1-0.2,1.5-0.4c0.1,0,0.2,0,0.3,0
		c0.2-0.1,0.3-0.2,0.5-0.1c0.1-0.2-0.1-0.3-0.3-0.4c-0.4,0-0.8,0-1.1,0c-0.2,0-0.4,0.1-0.5,0.1c-0.2,0.1-0.4,0.1-0.6,0.1
		c0,0-0.1,0-0.1,0C51.5,48.9,51.2,48.8,51,48.9z"/>
	<path class="st2" d="M37.5,74.2c0.1-0.8,0.5-1.6,0.4-2.5c-0.6,0.8-0.7,1.8-0.8,2.7C37.3,74.4,37.4,74.3,37.5,74.2z"/>
	<path class="st3" d="M54.3,51.9c0,0.2,0,0.4,0,0.6c0.1,0,0.1,0,0.2,0c0.1-0.1,0.2-0.2,0.3-0.3c0,0-0.1-0.1-0.1-0.1
		C54.6,52,54.5,51.9,54.3,51.9z"/>
	<path class="st3" d="M43.8,65.7c0-0.2-0.1-0.2-0.3-0.2C43.6,65.6,43.6,65.7,43.8,65.7z"/>
	<path class="st2" d="M20.4,71.2c0.4-0.6,0-0.7-0.4-0.6c0.4-0.6,0.7-1.4,1.1-2.1c0.5-1,1.3-1.9,2.1-2.6c0,0,0.1-0.1,0.1-0.1
		c0,0,0,0,0,0c0.2,0,0.4-0.1,0.3-0.3c0-0.1-0.2,0-0.3,0.1c-0.6,0.2-1.3,0.5-1.9,0.6c-0.3,0.1-0.7,0.2-0.7-0.3c0,0,0,0,0,0
		c0,0,0,0,0,0c-0.2,0.1-0.4,0.2-0.5,0c-0.1-0.1,0-0.3,0.1-0.4c0.1-0.1,0.2-0.2,0.2-0.3c0.1-0.1,0.2-0.3,0.1-0.4
		c-0.1-0.2-0.3,0-0.4,0c-1.1,0.3-2.2,0.6-3.3,0.8c-0.7,0.2-1.3,0.2-2,0.2c-0.5,0-0.7-0.3-0.7-0.7c0-0.5,0.1-0.8,0.4-1.2
		c0.4-0.6,1-1,1.6-1.4c-0.2-0.1-0.4-0.3-0.6-0.3c-0.2-0.1-0.5-0.3-0.5-0.5c-0.1-0.6,0.4-1.2,1-1.4c0.6-0.2,1-0.5,1.7-0.9
		c-1,0-1.8,0.2-2.7,0c0.4-0.4,0.7-0.7,1.3-0.8c1.3-0.3,2.6-0.6,4-0.9c0.3-0.1,0.6-0.2,0.9-0.2c-0.7-0.6-1.4-1.2-2.1-1.8
		c-0.2-0.2-0.3-0.4,0.1-0.5c0.4-0.1,0.1-0.2,0-0.3c-0.1-0.2-0.5-0.5-0.3-0.6c0.5-0.5,0-0.6-0.2-0.8c-0.2-0.2-0.4-0.3-0.5-0.5
		c-0.2-0.2-0.6-0.4-0.5-0.8c0.1-0.5,0.5-0.5,0.8-0.6c1.2-0.3,2.3,0,3.4,0.2c0.2,0.1,0.5,0.2,0.7,0c0.1-0.1,0.4,0,0.4-0.2
		c0-0.2-0.2-0.2-0.4-0.3c-0.7-0.5-1.6-0.7-2.2-1.4c-0.3-0.3-0.4-0.6-0.3-0.9c0.1-0.3,0.5-0.4,0.8-0.4c1.6,0,3.2,0.2,4.7,0.8
		c0.4,0.2,0.7,0.3,1.1,0.5c0,0,0.1-0.1,0.1-0.1c-0.3-0.5-0.6-1-0.9-1.5c0-0.2,0.1-0.5-0.3-0.6c0,0,0,0,0,0c0.1-0.2,0.1-0.3-0.1-0.4
		c0-0.1,0-0.1,0-0.2c0.4-0.3,0.7-0.2,0.8,0.3c0,0.2,0.1,0.4,0.3,0.4c0.2,0,0.2-0.2,0.2-0.3c0.1-0.2,0.2-0.2,0.4-0.1
		c0.4,0.2,0.8,0.2,0.6-0.4c0-0.1-0.1-0.2,0.1-0.3c0.2,0,0.3,0.1,0.4,0.2c0.2,0.2,0.3,0.6,0.6,0.1c0.8,1,1.7,2.1,2.6,3.3
		c0-1,0.1-1.7-0.2-2.5c-0.3-0.6-0.4-1.3-0.5-2c-0.2-1.2,0.2-1.7,1.4-1.6c0.1,0,0.3,0,0.4,0c0,0,0.1,0,0.1,0c0.4,0.4,0.8,0.9,1.2,1.3
		l0,0l0,0c0.3,0.4,0.6,0.8,0.9,1.2l0,0c0.2,0.5,0.4,0.9,0.6,1.4l0,0c0,0.2,0,0.3,0.1,0.5c0.7-1.2,1-2.6,1.3-3.9l0,0
		c0.2-0.4,0.4-0.8,0.7-1.1c0.1,0.3,0.1,0.5,0.2,0.8c0.4-0.1,0.2-0.4,0.4-0.7c0.2,0.4,0.3,0.8,0.8,0.6c0,0.5,0.6,0.1,0.7,0.5
		c0.1,0.3-0.1,0.6-0.2,1c-0.5,1.4-1,2.9-1.4,4.3c-0.2,0.7-0.6,1.3-0.9,2c-0.4,0.4-1.1,0.4-1.6,0.4c-0.9,0-1.2,0-1.9,0.6
		c-0.1,0.1-0.2,0.1-0.3,0c-0.3-0.5-0.7-0.2-0.9-0.1c-0.3,0.1-0.5,0.3-0.9,0.3c-0.1,0-0.2,0-0.2,0c0,0.8-1,0.6-1.2,1.2
		c-0.1,0.6-0.5,0.6-0.9,0.8c0.2,0.3,0.5,0.6-0.2,0.8c-0.3,0.1-0.4,0.6-0.4,0.9c0,0.3,0,0.4-0.2,0.6c-0.3,0.2-0.4,0.5-0.3,1
		c0.1,0.3,0,0.7,0.2,1.1c0.1,0.2-0.4,0.3-0.7,0.4c-0.8,0.2-1.5,0.3-2.3,0.5c-0.1,0-0.2,0.1-0.2,0.3c0,0.2,0.1,0.3,0.3,0.3
		c0.1,0,0.3,0,0.4,0c0.7-0.3,1.5-0.3,2.2-0.4c0.2,0,0.5,0,0.7,0.2c-0.6,0.5-1.3,0.6-2,0.9c-0.4,0.1-0.7,0.2-0.9,0.6
		c1.1-0.4,2.2-0.5,3.3-0.9c0.1,0,0.2,0,0.2,0c0.2,0,0.4,0,0.5,0.2c0.1,0.2-0.2,0.3-0.3,0.5c-0.1,0.1-0.2,0.2-0.3,0.3
		c-1.4,0.6-2.9,1.2-4.1,2.1c-0.4,0.3-0.8,0.4-1.2,0.6c-0.2,0.2-0.4,0.3-0.3,0.6c0.2,0.4,0.1,0.8-0.2,1.2c-0.2,0.3-0.3,0.4,0.2,0.4
		c0.7,0,0.7,0.3,0.3,0.9c-0.5,0.7-1.3,1.1-1.9,1.8c-0.4,0.5-1,1-1.5,1.5c-0.2,0.2-0.3,0.5-0.3,0.8c0,0,0,0,0,0c-0.1,0-0.2,0-0.3-0.1
		c0-0.1,0-0.2,0-0.3C20.4,71.6,20.3,71.3,20.4,71.2z M25.5,58.6c-1-0.5-2-0.3-3,0.1C23.5,58.8,24.5,58.5,25.5,58.6z"/>
	<path class="st3" d="M26.3,44.1c-0.1,0-0.2,0-0.2,0c-0.9,0.8-1.1,1.7-0.5,2.8c0.4-0.3,0.7-0.2,0.8,0.3c0,0.2,0.1,0.4,0.3,0.4
		c0.2,0,0.2-0.2,0.2-0.3c0.1-0.2,0.2-0.2,0.4-0.1c0.4,0.2,0.8,0.2,0.6-0.4c0-0.1-0.1-0.2,0.1-0.3c0.2,0,0.3,0.1,0.4,0.2
		c0.2,0.2,0.3,0.6,0.6,0.1C28.3,45.7,27.4,44.8,26.3,44.1z"/>
	<path class="st3" d="M20.3,71.8c0-0.2,0-0.5,0.1-0.6c0.4-0.6,0-0.7-0.4-0.6c-0.2,0.2-0.2,0.4-0.3,0.7C19.6,71.7,20,71.8,20.3,71.8z
		"/>
	<path class="st3" d="M23.3,65.7c0.2,0,0.4-0.1,0.3-0.3c0-0.1-0.2,0-0.3,0.1C23.3,65.6,23.3,65.7,23.3,65.7z"/>
	<path class="st3" d="M26.1,48.1c0-0.2,0.1-0.5-0.3-0.6C25.8,47.7,25.9,47.9,26.1,48.1z"/>
	<path class="st3" d="M25.8,47.5c0.1-0.2,0.1-0.3-0.1-0.4C25.6,47.2,25.7,47.4,25.8,47.5z"/>
	<path class="st3" d="M23.2,65.9c0,0,0.1-0.1,0.1-0.1C23.3,65.8,23.2,65.8,23.2,65.9z"/>
	<path class="st3" d="M29.5,62.3c-1.4,0.6-2.9,1.2-4.1,2.1c-0.4,0.3-0.8,0.4-1.2,0.6c-0.2,0.2-0.4,0.3-0.3,0.6
		c0.2,0.4,0.1,0.8-0.2,1.2c-0.2,0.3-0.3,0.4,0.2,0.4c0.7,0,0.7,0.3,0.3,0.9c-0.5,0.7-1.3,1.1-1.9,1.8c-0.4,0.5-1,1-1.5,1.5
		c-0.2,0.2-0.3,0.5-0.3,0.8c0.2,0,0.4,0,0.5-0.2l0,0c0,0,0.1,0,0.1-0.1c0.3-0.6,0.9-0.9,1.4-1.3c1.2-1,2.4-2,3.6-3.1
		c0.2-0.2,0.4-0.4,0.4-0.6c0.1-1.6,0.9-2.8,2.2-3.8c0.3-0.2,0.6-0.3,0.8-0.7C29.5,62.4,29.5,62.3,29.5,62.3z"/>
	<path class="st2" d="M28.9,73.2c0-0.6,0.3-0.9,0.6-1.3c0.4-0.6,0.9-1.2,0.9-2c-0.6,0.9-1.1,1.7-1.7,2.6c-0.2,0.3-0.6,0.6-0.5,1.1
		C28.5,73.7,28.7,73.4,28.9,73.2z"/>
	<path class="st3" d="M27.5,68.4c-0.4-0.6-0.7-0.7-1-0.2c-0.3,0.5-0.9,0.9-1,1.5c0.5-0.2,0.9-0.7,1.3-1C27,68.6,27.2,68.4,27.5,68.4
		z"/>
	<path class="st3" d="M20.7,72.1c-0.1,0-0.2,0-0.3-0.1C20.4,72.3,20.5,72.3,20.7,72.1z"/>
	<path class="st3" d="M25.5,69.7c0,0-0.1,0.1-0.1,0.1C25.4,69.8,25.5,69.8,25.5,69.7z"/>
	<path class="st4" d="M29.5,62.3c0,0.1,0,0.1,0,0.2c0.3-0.1,0.6-0.2,0.9-0.3c0.4-0.1,0.7-0.2,1.1,0c0.3,0.2,0.5-0.1,0.8-0.1
		c0,0,0.1,0,0.1,0c0.1,0,0.1,0,0.2,0c0.3,0,0.6,0,1,0.1c0.1-0.2,0.1-0.4,0.4-0.3c0.6,0,1.2,0.2,1.9-0.1c0.2-0.1,0.4,0,0.5,0.2
		c0.3-0.3,0.5-0.1,0.6,0.2c0.1-0.1,0.2-0.2,0.3-0.3c-0.1-0.2-0.1-0.4,0.1-0.5c0.1-0.1,0.2-0.1,0.2,0c0.1,0.2,0,0.4-0.1,0.5
		c0,0,0,0,0,0c0.7-0.4,1.4-0.7,2.2-0.8c0.9-0.2,1.2-0.8,1.3-1.6c0.1-0.4,0.6-0.6,0.9-0.9c0-0.1,0-0.2-0.1-0.3c0,0-0.1,0-0.1,0
		c-0.2-0.1-0.4-0.1-0.5-0.3c0,0,0.1-0.1,0.1-0.1c0.2,0,0.3,0.2,0.4,0.3c0,0,0,0.1,0.1,0.1c0.2-0.2,0.3-0.4,0.2-0.7
		c-0.1-0.2,0-0.3,0.2-0.4c0.1-0.1,0.1-0.1,0.2-0.2c-0.1-0.3-0.2-0.7,0.3-0.8c0,0,0,0,0,0c0.1,0,0.1-0.1,0.2-0.1c0,0,0,0,0,0
		c-0.1-0.1-0.1-0.3-0.2-0.4c-0.4,0.1-0.5-0.2-0.4-0.4c0.1-0.4-0.1-0.6-0.3-0.8c-0.5-0.5-1.1-0.9-1.6-1.3c-0.3-0.2-0.6-0.3-0.9-0.2
		c-0.2,0.1-0.3,0-0.2-0.1c0-0.3-0.2-0.3-0.4-0.4c-0.2,0-0.3,0.3-0.4-0.1c-0.4,0-0.8-0.2-1.3-0.3c-0.4,0.4-1.1,0.4-1.6,0.4
		c-0.9,0-1.2,0-1.9,0.6c-0.1,0.1-0.2,0.1-0.3,0c-0.3-0.5-0.7-0.2-0.9-0.1c-0.3,0.1-0.5,0.3-0.9,0.3c-0.1,0-0.2,0-0.2,0
		c0,0.8-1,0.6-1.2,1.2c-0.1,0.6-0.5,0.6-0.9,0.8c0.2,0.3,0.5,0.6-0.2,0.8c-0.3,0.1-0.4,0.6-0.4,0.9c0,0.3,0,0.4-0.2,0.6
		c-0.3,0.2-0.4,0.5-0.3,1c0.1,0.3,0,0.7,0.2,1.1c0.1,0.2-0.4,0.3-0.7,0.4c0.1,0.2,0.4,0.3,0.4,0.6c0.2,0,0.5,0,0.7,0.2
		c0.6-0.1,0.2,0.4,0.4,0.6c0.1,0,0.2,0,0.2,0c0.2,0,0.4,0,0.5,0.2c0.1,0.2-0.2,0.3-0.3,0.5C29.7,62.1,29.6,62.2,29.5,62.3z"/>
	<path class="st3" d="M42.9,55.5c0.1,0.1,0.1,0.3,0.2,0.4c0.6-0.4,1.3-0.8,1.9-1.3c0-0.1-0.1-0.1-0.1-0.2
		C44.1,54.7,43.5,55.2,42.9,55.5z"/>
	<path class="st3" d="M34.1,62.4c-0.2-0.1-0.3-0.2-0.5-0.3c-0.3-0.1-0.6-0.1-1-0.1C33.2,62.8,33.2,62.8,34.1,62.4z"/>
	<path class="st3" d="M42.1,58.1c0,0.1,0,0.2,0.1,0.3c0.6-0.4,0.7-0.7,0.3-1.3c-0.2,0-0.3,0.2-0.2,0.4
		C42.4,57.7,42.3,57.9,42.1,58.1C42.1,58.1,42.1,58.1,42.1,58.1z"/>
	<path class="st3" d="M42.9,56c-0.4,0.2-0.3,0.5-0.3,0.8C42.9,56.6,42.9,56.4,42.9,56z"/>
	<path class="st3" d="M32.5,62.1c0,0-0.1,0-0.1,0C32.4,62.1,32.4,62.2,32.5,62.1z"/>
	<path class="st3" d="M43,55.9c-0.1,0-0.1,0.1-0.2,0.1C42.9,56,43,55.9,43,55.9z"/>
	<path class="st3" d="M39,52.2c0.2,0,0.4,0,0.4,0.4c0,0.2,0.1,0.2,0.2,0.1c0.1-1,0.5-1.9,0.6-2.9c-0.3-0.6,0-1.2,0.2-1.8
		c0-0.1,0-0.2,0-0.4c-0.3-0.5-0.2-0.9-0.2-1.4c-0.1-0.6-0.1-1.2-0.1-1.8c0-0.1,0-0.2,0-0.2c0,0,0-0.1,0-0.1c0,0,0,0,0-0.1
		c-0.3-0.4-0.3-1-0.7-1.4c-0.1,0-0.2,0.1-0.3,0.1c-0.1,0.1-0.2,0.5-0.5,0.2c-0.2-0.3-0.4-0.1-0.6,0c0,0-0.1,0.1-0.1,0.1
		c-0.1,0.1-0.1,0.2-0.2,0.4c0.1,0.3,0.1,0.5,0.2,0.8c0.4-0.1,0.2-0.4,0.4-0.7c0.2,0.4,0.3,0.8,0.8,0.6c0,0.5,0.6,0.1,0.7,0.5
		c0.1,0.3-0.1,0.6-0.2,1c-0.5,1.4-1,2.9-1.4,4.3c-0.2,0.7-0.6,1.3-0.9,2c0.4,0.1,0.8,0.3,1.3,0.3c0-0.1,0-0.3,0-0.4
		c0-0.4,0.2-0.6,0.4-0.8c0.2-0.1,0.2,0.1,0.3,0.2c0.2,0.3,0,0.6-0.2,0.8C39.1,52.1,39,52.2,39,52.2z"/>
	<path class="st3" d="M52.1,49.5c0-0.1,0-0.1-0.1-0.2c-0.4,0.1-0.8,0.3-1.1,0.6C51.4,50,51.8,49.8,52.1,49.5z"/>
	<path class="st3" d="M50.7,50.1C50.7,50.1,50.7,50,50.7,50.1C50.7,50,50.7,50,50.7,50.1C50.6,50,50.6,50,50.7,50.1
		C50.6,50,50.6,50.1,50.7,50.1z"/>
	<path class="st2" d="M36.4,73.9c0.4-0.7,0-1.4,0-2.1C35.9,72.4,36.5,73.2,36.4,73.9z"/>
	<path class="st3" d="M28.3,60.5c0-0.3-0.3-0.4-0.4-0.6c-0.8,0.2-1.5,0.3-2.3,0.5c-0.1,0-0.2,0.1-0.2,0.3c0,0.2,0.1,0.3,0.3,0.3
		c0.1,0,0.3,0,0.4,0C26.8,60.5,27.5,60.5,28.3,60.5z"/>
	<path class="st3" d="M29.4,61.3c-0.1-0.2,0.3-0.7-0.4-0.6c-0.6,0.5-1.3,0.6-2,0.9c-0.4,0.1-0.7,0.2-0.9,0.6
		C27.1,61.8,28.3,61.6,29.4,61.3z"/>
	<path class="st3" d="M22.5,58.7c1,0.1,2-0.2,3-0.1C24.5,58.1,23.5,58.2,22.5,58.7z"/>
	<path class="st2" d="M21.2,72L21.2,72L21.2,72z"/>
	<path class="st2" d="M39,52.2c0.1-0.1,0.1-0.1,0.2-0.2c0.2-0.3,0.4-0.5,0.2-0.8c-0.1-0.1-0.1-0.4-0.3-0.2c-0.3,0.2-0.5,0.4-0.4,0.8
		c0,0.1,0,0.3,0,0.4C38.6,52.5,38.8,52.3,39,52.2z"/>
	<path class="st2" d="M58.8,19.4C58.8,19.3,58.8,19.3,58.8,19.4c0.5-1.6,1-1.8,2.5-1.1c0.2,0.1,0.6,0.3,0.7,0.5
		c0.7,1.2,1.9,1.4,3.1,1.7c0.5,0.1,0.8,0.4,1,0.9c0.2,0.8,0.7,1.6,0.5,2.7c0.7-0.7,1.3-1.2,1.9-1.7c1-0.9,2.2-1.5,3.5-1.5
		c0.8,0,1.7,0.1,2.1,0.8c0.5,0.8,0,1.6-0.4,2.4c-0.2,0.3-0.4,0.6-0.7,1c0.7-0.1,1.2-0.3,1.8-0.5c1.3-0.5,2.7-0.6,4.1-0.4
		c0.2,0,0.4,0.1,0.6,0.2c0.6,0.3,0.6,0.6,0.1,1.1c1.1,0.2,2.2,0.1,3.2,0.6c-2.3,0-4.7-0.2-7,0.5c1.4,0.7,2.8,0.7,4.2,0.8
		c1.4,0.1,2.8,0.3,4.1,0.6c0.1,0,0.3,0.1,0.4,0.2c0.6,0.3,0.6,0.7,0,1.1c1.1,0.3,1.8,1,2,2c-0.1,0.3-0.3,0.2-0.5,0.2
		c-0.8-1.2-2.2-1.3-3.4-1.5l0,0l0,0c-1.1-0.3-2.3-0.6-3.4-0.3c-0.2,0-0.4,0-0.5,0.2c0,0.3,0.3,0.2,0.4,0.3c-0.2,0.8,0,1.3,0.9,1.4
		c0.2,0,0.4,0.2,0.6,0.3c0.3,0.2,0.6,0.5,0.4,0.9c-0.2,0.4-0.5,0-0.8,0c-0.3,0-0.7-0.1-1.1-0.1c-0.5-0.1-1-0.1-1.5-0.1c0,0,0,0,0,0
		l0,0c0.5,0.8,1.3,1.3,1.8,2.1c0.1,0.3,0.2,0.6,0.3,0.9c0.2,0.7,0.7,1.3,0.8,2.1c0,0.3,0.2,0.6-0.1,0.8c-0.3,0.1-0.4-0.2-0.6-0.4
		c-0.6-0.7-1.3-1.3-1.9-2c-0.2-0.4-0.5-0.7-0.9-0.9c-0.1,0-0.1-0.1-0.2-0.1c0,0-0.1,0-0.1,0c0,0,0,0.1,0,0.1c0,0.1,0.1,0.1,0.1,0.2
		c0.2,0.4,0.6,0.8,0.9,1c0.8,1,1.7,2,2.2,3.2c0.1,0.6,0,1.3-0.1,1.9c-0.1,0.3-0.1,0.5-0.5,0.3c-0.9-0.7-2-1.2-3-1.9
		c-0.5-0.4-1-0.7-1.5-1.1c-0.2-0.1-0.3-0.2-0.5,0c-0.4,0.6-0.8,0.2-1.1,0c-0.5-0.3-0.9-0.6-1.3-1.1c-1-1-2.1-2-3.1-3
		c-0.7-0.9-1.6-1.5-2.5-2.1c-0.6-0.4-0.9-0.7-0.3-1.2c0.2,0,0.3,0,0.5-0.1c1.4-0.1,3.1,0.5,4-1.3c-1-0.1-0.5-0.7-0.4-1.3
		c0.1-0.6,1-0.5,1.3-1c-0.6-0.2-1,0.1-1.3,0.3c-0.4,0.2-0.7,0.3-1-0.2c-0.2-0.3-0.5-0.6-0.9-0.3c-0.2-0.5-0.5-0.8-1.1-0.8
		c-0.1,0-0.3,0-0.3-0.1c-0.5-0.8-1.2-1-2-0.7c-0.1,0-0.3,0.1-0.4-0.1c-0.5-0.5-1.1-0.6-1.7-0.7c0-0.2,0.1-0.6-0.3-0.6
		c-0.5-0.1-1.1-0.1-1.5,0c-0.7,0.3-1-0.1-1.3-0.5c-0.2-0.3-0.3-0.7-0.5-1c-0.2-1.1-0.3-2.1-0.5-3.2C58.8,19.6,58.8,19.5,58.8,19.4z
		 M76.5,34.7c-0.1,0-0.1-0.1-0.2-0.1c-0.1-0.8-0.7-0.7-1.2-0.9c0,0.1-0.1,0.1-0.1,0.2c0.4,0.3,0.8,0.5,1.2,0.8
		c0.1,0,0.1,0.1,0.2,0.1c0,0,0.1,0.1,0.1,0.1C76.5,34.9,76.5,34.8,76.5,34.7z"/>
	<path class="st3" d="M40.2,29.6c0.1,0,0.3,0,0.3-0.2c0.2,0,0.5,0,0.4-0.2c0-0.2-0.3-0.1-0.4,0.1c-1-0.1-1.9-0.2-2.9-0.2
		c-0.7,0-0.6-0.8-1.1-0.9c0.1-0.4,0.5-0.4,0.8-0.7c0,0,0.1,0,0.1,0l0-0.1c0.1,0,0.1-0.1,0.2-0.1c0.9-0.4,1.9-0.2,2.8-0.6
		c-0.6-0.3-1.3,0.2-1.8-0.4c0.1,0,0.2-0.1,0.3-0.1c0.2,0,0.3,0,0.4-0.1c0.2,0,0.4-0.1,0.7-0.1c0.2-0.1,0.5-0.1,0.8-0.3
		c-0.2-0.2-0.6-0.2-0.4-0.6c0.6-0.1,1.2-0.3,1.8-0.4c0.1,0,0.2-0.1,0.3-0.1c0.2,0,0.4-0.1,0.6-0.1c1,0,2-0.2,2.9-0.1
		c0.2,0.5-0.9,0.5-0.4,0.9c0.3,0.2,0.8,0.3,1.2,0.4c1.5,0.4,3,0.6,4.4,1.2c0.4,0.2,0.8,0.4,1.3,0.3c-0.1,0.4-0.1,0.8-0.4,1.1
		c-0.4-0.5-0.9-1-1.6-1.3c-1.7-0.5-3.3-1.2-5.1-1.3c-0.6,0-1.8,1.2-1.8,1.8c0,0.3,0.1,0.6,0.4,0.8c0.7,0.3,1.4,0.5,2.1,0.8
		c0.6,0.3,1.3,0.3,2,0.4c0.5,0.1,1.1,0,1.6,0.3c-0.2,0.4-0.7,0.2-0.8,0.8c0.4-0.1,0.7-0.2,1.1-0.4c1.1-0.5,2.4-0.4,3.6-0.6
		c-0.1,0.2-0.2,0.4-0.3,0.6c-1.8-0.2-3,1-4.3,1.9c-0.3,0.2-0.2,0.9-0.7,1.1c-0.2,0.1-0.5,0.3-0.3,0.6c0.2,0.3,0.5,0,0.7-0.1
		c0.7-0.5,1.4-0.8,2.1-1.1c0.1-0.1,0.3-0.2,0.4,0c0.1,0.2,0,0.3-0.1,0.4c-0.1,0.1-0.2,0.3-0.3,0.4c-0.2,0.3-0.1,0.7,0.1,0.7
		c0.5-0.1,1.1,0.4,1.5-0.3c0.1-0.2,0.4-0.2,0.6-0.2c0.2,0.1,0.2,0.3,0.1,0.5c-0.5,0.8-0.5,1.7-0.8,2.5c-1.4,0.6-2.5,1.7-3.6,2.7
		c-0.7,0.6-1.5,1.2-2.3,1.7c-0.5,0.3-1.1,0.3-1.6,0.5c-0.4,0.2-0.6-0.1-0.5-0.5c0.1-0.4,0.3-0.7,0.5-1.1c-0.6-0.1-0.9,0.4-1.3,0.6
		c-0.3,0.2-0.5,0.5-0.9,0.2c-0.4-0.2-0.2-0.6-0.2-0.9c0-0.6,0.5-0.9,0.5-1.5c0.4-0.2,0.6-0.6,1-1.2c-0.8,0.3-1.5,0.3-2,0.8
		c-0.1-0.1-0.1-0.1-0.2-0.2c0-0.1,0-0.2,0-0.3c0,0,0,0,0,0c0.3-0.2,0.6-0.5,0.7-0.9c0,0,0.1-0.1,0.1-0.1c0.3-0.2,0.5-0.5,0.7-0.9
		c0,0,0,0,0,0c0.4-0.2,0.6-0.5,0.7-0.8c0.5-1.1,1.2-2,2.2-2.7c0.3-0.2,0.7-0.4,0.8-0.9c-0.7,0-1.3,0.3-1.9,0.5
		c0-0.4-0.3-0.3-0.6-0.3c-0.3,0-0.7,0.1-0.9-0.2c-0.6-0.8-1.4-0.7-2.3-0.4c-0.7,0.2-1,0-1.1-0.7C40.2,29.8,40.2,29.7,40.2,29.6z"/>
	<path class="st2" d="M61.6,43.9c0-0.7-0.4-1.2-0.6-1.8c-0.6-1.4-0.7-2.8-0.8-4.3c0-0.9,0-1.7,0-2.6c0.4-0.7,0-1-0.6-1.2
		c-0.2-0.3-0.3-0.9-0.6-0.9c-1-0.2-0.8-1-1.1-1.6c0.5-0.3,1.2-0.5,1.8-0.4c0.3,0.1,0.7-0.5,1,0.1c-0.2,0.3-0.6,0.4-0.6,0.8
		c-0.1,0.1-0.2,0.3,0,0.4c0.3,0.1,0.7,0.2,1-0.2c0.2-0.1,0.5-0.2,0.7-0.3c0.6-0.3,1.2-0.2,1.9-0.3c0.3,0.1,0.6,0.2,0.9,0.3
		c0.3,0.6,0.9,1.2,1.4,1.5c1,0.6,0.9,1.6,0.7,2.3c-0.2,0.9-0.1,1.8,0.1,2.6c-0.4,0-0.8,0.1-0.7,0.6c0.1,1-0.4,2-0.4,3
		c-0.4,0.9-0.5,2-1,2.9l0,0c-0.1,0.1-0.2,0.2-0.3,0.3l0,0c-0.3,0.1-0.6,0.2-0.9,0.3C62.4,45.3,62,44.6,61.6,43.9z M65.3,38.4
		c0.1-0.7-0.3-1.2-0.7-1.8c-0.2-0.3-0.3-0.2-0.5,0c-0.4,0.5-0.1,1.8,0.4,2.1C65,38.9,65.3,38.9,65.3,38.4z"/>
	<path class="st2" d="M52.2,36.7c0.3-0.8,0.3-1.7,0.8-2.5c0.1-0.1,0.2-0.4-0.1-0.5c-0.2-0.1-0.5-0.1-0.6,0.2c-0.4,0.7-1,0.2-1.5,0.3
		c-0.3,0.1-0.3-0.4-0.1-0.7c0.1-0.2,0.2-0.3,0.3-0.4c0.1-0.1,0.3-0.2,0.1-0.4c-0.1-0.1-0.3-0.1-0.4,0c-0.7,0.3-1.4,0.7-2.1,1.1
		c-0.2,0.1-0.5,0.4-0.7,0.1c-0.2-0.3,0.1-0.5,0.3-0.6c0.5-0.2,0.4-0.9,0.7-1.1c1.3-1,2.5-2.1,4.3-1.9c0.2,0.1,0.4,0.1,0.7,0.2
		c0.5,0,0.8,0.5,1.2,0.6c0.7,0.1,1.5,0.2,2.2-0.1l0,0c0.2,0.3-0.1,0.3-0.2,0.4c-0.4,0-0.9,0-1.2,0.3c0,0.4,0.8-0.1,0.5,0.4
		c-0.4,0.7,0.1,1,0.4,1.4c0.1,0.2,0.4,0.4,0.6,0c0.2-0.4,0.3-0.2,0.5,0c0.7,0.7,0.3,1.5,0.5,2.3c-0.6,0.7-1.1,1.5-1.7,2.2
		c-0.3,0.4-0.6,0.8-1.1,0.9c-0.6,0.2-0.7,0.8-1.2,1.2c-0.5,0.4-0.8,0.1-1-0.1c-0.7-0.7-1.2-1.5-1.1-2.6C52.4,37.3,52.1,37,52.2,36.7
		z M51.2,33.9c-0.1-0.1-0.1-0.1-0.2-0.1c0,0-0.1,0.1-0.1,0.1c0,0.1,0,0.1,0.1,0.2C51,34,51.1,33.9,51.2,33.9z"/>
	<path class="st2" d="M52.4,27.3c-0.5,0.1-0.9-0.1-1.3-0.3c-1.4-0.6-2.9-0.8-4.4-1.2c-0.4-0.1-0.9-0.1-1.2-0.4
		c-0.5-0.5,0.6-0.5,0.4-0.9c0.8,0,1.6,0.1,2.6,0.1c-0.3-0.2-0.5-0.2-0.6-0.3c-0.1-0.1-0.2-0.2-0.4-0.1c0,0-0.1,0-0.1,0
		c0-0.3,0-0.6,0-0.9c0.4,0,0.8,0,1.2,0c0.5,0.5,1.1,0.2,1.6,0.2c0.1,0,0.2,0,0.3,0.1c0.4,0.1,0.7,0.2,1.1,0.3
		c0.2,0.1,0.4,0.1,0.6,0.2c0.5,0.3,1,0.4,1.5,0.6c0,0,0,0,0,0l0,0c-0.3-0.5-0.6-0.8-1-1.1l0,0c0,0,0,0,0,0c-0.2-0.3-0.4-0.6-0.6-0.8
		c-0.4-0.7-0.9-1.4-1.3-2c-0.3-0.4-0.4-0.9-0.4-1.4c0.1-0.1,0.1-0.2,0.2-0.3c0,0,0,0,0,0c1,0.2,2,0.3,3,0.5c0.5,0.2,0.9,0.6,1.4,0.7
		c0,0,0,0,0,0c0.1,0.1,0.2,0.1,0.3,0.2c0,0,0,0,0,0c0.6,0.5,1.1,1.2,2,1.4c0.4,0.9,1.2,1.6,1.4,2.6c0,0.2,0,0.4-0.1,0.7
		c-0.5-0.3-1-0.5-1.5-0.1c-0.2,0.2-0.7,0.2-1,0.1c-0.2,0-0.3,0-0.5,0.1C54.5,25.9,53.3,26.3,52.4,27.3z"/>
	<path class="st3" d="M58.5,36.1c-0.1-0.8,0.2-1.6-0.5-2.3c-0.2-0.2-0.3-0.4-0.5,0c-0.2,0.3-0.5,0.2-0.6,0c-0.3-0.4-0.8-0.7-0.4-1.4
		c0.3-0.5-0.5,0-0.5-0.4c0.3-0.3,0.8-0.3,1.2-0.3c0.3,0.3,0.5,0,0.7,0c0.3,0.6,0.1,1.4,1.1,1.6c0.3,0.1,0.4,0.6,0.6,0.9
		c-0.1,0.3-0.1,0.6-0.2,0.9C59.1,35.3,59,35.8,58.5,36.1z"/>
	<path class="st3" d="M58.7,24.3c-0.2-1-0.9-1.7-1.4-2.6c0.2,0,0.4,0,0.5,0.1c0,0,0.1,0.1,0.1,0c0.5,0.3,0.7,0.9,1.3,1
		c0.2,0.3,0.2,0.7,0.5,1c0.3,0.4,0.6,0.8,1.3,0.5c0.4-0.1,1-0.1,1.5,0c0.3,0.1,0.2,0.4,0.3,0.6c-0.1,0.1-0.2,0.1-0.2-0.1
		c0-0.6-0.3-0.5-0.6-0.2c-0.4,0.3-0.9,0.2-1.3,0.2C59.9,25,59.3,24.6,58.7,24.3z"/>
	<path class="st3" d="M47.5,24.2c-0.3,0-0.5,0-0.8-0.1c-1-0.2-2-0.5-3-0.2c-0.3,0.1-0.8,0.1-0.7-0.5c0,0,0,0,0,0
		c0.1,0,0.2-0.1,0.3-0.1c1.4,0,2.8,0,4.2,0C47.5,23.6,47.5,23.9,47.5,24.2z"/>
	<path class="st4" d="M58.7,24.3c0.6,0.3,1.2,0.7,1.9,0.7c0.5,0,0.9,0.1,1.3-0.2c0.3-0.3,0.6-0.4,0.6,0.2c0,0.1,0.1,0.1,0.2,0.1
		c0.6,0.1,1.2,0.2,1.7,0.7c0.1,0.1,0.3,0.1,0.4,0.1c0.9-0.3,1.5-0.1,2,0.7c0,0.1,0.2,0.1,0.3,0.1c0.6,0,0.9,0.3,1.1,0.8
		c0.5,0.3,0.5,1,1.1,1.1c-0.5,0.5-0.7,1.3-1.5,1.5c0,0-0.1,0.1-0.1,0.1c0,0.8-0.7,0.8-1.2,1.1c-0.2,0-0.3,0-0.5,0.1
		c-0.5,0-1-0.5-1.5,0.2c-0.2-0.1-0.4-0.1-0.6-0.2c-0.5-0.4-0.6,0-0.6,0.4c-0.6,0-1.3,0-1.9,0.3c-0.3-0.3-0.6-0.6-1-0.7
		c-0.3-0.6-0.7,0-1-0.1c-0.6-0.1-1.2,0-1.8,0.4c-0.2,0-0.5,0.3-0.7,0c0.1-0.1,0.4-0.1,0.2-0.4c0-0.1,0.2,0,0.2-0.1
		c-0.1,0-0.1,0.1-0.2,0.1C57.2,31,57.1,31,57,30.9c0-0.1-0.1-0.1-0.1,0c-0.2,0-0.3,0-0.5,0c0-0.8-0.4-1.1-1.1-0.9
		c-0.3-0.3-0.5,0-0.8,0.1c-0.1,0-0.1,0.2-0.3,0.2c-0.3-0.1-0.3-0.1-0.3,0.3c-0.2-0.1-0.4-0.1-0.7-0.2c0.1-0.2,0.2-0.4,0.3-0.6
		c0,0,0.1,0,0.1,0c0,0,0.1,0,0.1-0.1c0,0-0.1,0-0.1,0c-0.2-0.1-0.5-0.1-0.7-0.2c-0.4-0.2-0.1-1-0.8-1c0,0,0-0.1-0.1-0.1
		c0.3-0.3,0.2-0.8,0.4-1.1c0.9-0.9,2.1-1.4,3.2-2.1c0.2-0.1,0.3-0.1,0.5-0.1c0.4,0.1,0.8,0.1,1-0.1c0.6-0.5,1-0.2,1.5,0.1
		C58.6,24.8,58.7,24.5,58.7,24.3z"/>
	<path class="st3" d="M64.8,31.5c0.4-0.6,1-0.1,1.5-0.2c-0.6,0.6-0.3,0.8,0.3,1.2c0.9,0.6,1.8,1.2,2.5,2.1c0,0.2-0.1,0.3-0.1,0.5
		c-0.3-0.2-0.6-0.5-0.9-0.7c-0.2-0.2-0.5-0.3-0.8-0.1c-0.3,0.2-0.5,0.3-0.4,0.7c0.3,0.9,0.2,1.8,0.6,2.7c-0.5,0-0.2,0.8-0.8,0.6
		c-0.2-0.9-0.3-1.7-0.1-2.6c0.2-0.7,0.3-1.7-0.7-2.3c-0.5-0.3-1-0.9-1.4-1.5C64.7,31.9,64.8,31.7,64.8,31.5z"/>
	<path class="st3" d="M66.7,31.2c0.5-0.2,1.2-0.2,1.2-1.1c0,0,0.1-0.1,0.1-0.1c0.8-0.2,1-1,1.5-1.5c-0.6-0.1-0.6-0.8-1.1-1.1
		c0.4-0.3,0.7,0,0.9,0.3c0.3,0.5,0.6,0.5,1,0.2c0.4-0.2,0.8-0.5,1.3-0.3c-0.3,0.6-1.2,0.4-1.3,1c-0.1,0.5-0.5,1.2,0.4,1.3
		C69.8,31.8,68.1,31.2,66.7,31.2z M69.7,29.1C69.7,29.1,69.7,29.1,69.7,29.1c-0.1-0.1-0.1-0.1-0.1-0.1c0,0,0,0.1,0,0.1
		C69.6,29.1,69.6,29.1,69.7,29.1z"/>
	<path class="st3" d="M79.1,32.8c0.3,0.5,0.8,0.7,1.2,1.1c0.3,0.3,0.6,0.5,0.4,1c-0.2,0.5-0.6,0.1-0.9,0.1c-0.1,0-0.2-0.1-0.4-0.1
		c-0.5-0.8-1.2-1.4-1.8-2.1l0,0C78.1,32.6,78.6,32.6,79.1,32.8z"/>
	<path class="st3" d="M79,30.1c0.5,0.1,1,0.4,1.3,0.8c0.3,0.3,0.4,0.6,0.2,1c-0.2-0.1-0.4-0.3-0.6-0.3C79.1,31.5,78.8,30.9,79,30.1z
		"/>
	<path class="st3" d="M76.2,34.7c-0.4-0.3-0.8-0.5-1.2-0.8c0-0.1,0.1-0.1,0.1-0.2c0.4,0.2,1.1,0.1,1.2,0.9
		C76.3,34.6,76.2,34.7,76.2,34.7z"/>
	<path class="st3" d="M77.9,36.1c0,0.1,0,0.2,0,0.3c-0.4-0.3-0.7-0.6-0.9-1c0,0,0.1-0.1,0.1-0.1C77.4,35.4,77.7,35.7,77.9,36.1z"/>
	<path class="st3" d="M77,35.3c0-0.1-0.1-0.1-0.1-0.2c0,0,0,0,0.1-0.1C76.9,35.1,77,35.2,77,35.3C77,35.3,77,35.3,77,35.3z"/>
	<path class="st3" d="M76.8,35.2C76.8,35.1,76.8,35.1,76.8,35.2C76.8,35.1,76.8,35.1,76.8,35.2C76.9,35.1,76.8,35.1,76.8,35.2z"/>
	<path class="st3" d="M76.5,34.7c0.1,0.1,0.1,0.1,0,0.2c0,0-0.1,0-0.1-0.1C76.4,34.8,76.4,34.8,76.5,34.7z"/>
	<path class="st3" d="M76.3,34.9c-0.1,0-0.1-0.1-0.2-0.1c0,0,0.1-0.1,0.1-0.1c0.1,0,0.1,0.1,0.2,0.1C76.4,34.8,76.4,34.8,76.3,34.9z
		"/>
	<polygon class="st3" points="77.6,32.6 77.6,32.6 77.6,32.6 	"/>
	<path class="st2" d="M52.9,29.4c0.2,0.1,0.5,0.1,0.7,0.2c0,0,0,0.1,0,0.1c0,0,0,0-0.1,0c-1.2,0.2-2.4,0.1-3.6,0.6
		c-0.3,0.1-0.7,0.2-1.1,0.4c0.1-0.6,0.6-0.4,0.8-0.8c-0.5-0.2-1.1-0.2-1.6-0.3c-0.7-0.1-1.4-0.1-2-0.4c-0.7-0.3-1.4-0.5-2.1-0.8
		c-0.3-0.1-0.4-0.5-0.4-0.8c0-0.6,1.2-1.9,1.8-1.8c1.8,0.1,3.4,0.7,5.1,1.3c0.7,0.2,1.2,0.7,1.6,1.3c0,0,0.1,0,0.1,0.1
		C52.1,29,52.1,29.5,52.9,29.4z"/>
	<path class="st3" d="M65.3,38.4c0,0.5-0.4,0.5-0.7,0.3c-0.5-0.3-0.8-1.6-0.4-2.1c0.1-0.2,0.3-0.3,0.5,0
		C65,37.2,65.4,37.7,65.3,38.4z"/>
	<path class="st3" d="M60,32c0.3-0.1,0.6,0.2,0.9,0.2c-0.3,0.4-0.6,0.3-1,0.2C59.8,32.3,59.9,32.1,60,32z"/>
	<path class="st3" d="M51.2,33.9c-0.1,0-0.2,0.1-0.2,0.1c0,0-0.1-0.1-0.1-0.2c0,0,0.1-0.1,0.1-0.1C51,33.8,51.1,33.8,51.2,33.9z"/>
	<path class="st3" d="M48,24.3c-0.1,0-0.3,0-0.4-0.1C47.7,24.1,47.9,24.2,48,24.3z"/>
	<path class="st2" d="M67.4,37.7c-0.3-0.9-0.3-1.8-0.6-2.7c-0.1-0.4,0.1-0.5,0.4-0.7c0.3-0.2,0.5-0.1,0.8,0.1
		c0.3,0.2,0.6,0.5,0.9,0.7c0,0.9-0.3,1.8-0.9,2.5C67.8,37.9,67.7,38,67.4,37.7z"/>
	<path class="st3" d="M52.9,29.4c-0.8,0.1-0.8-0.5-0.8-1C52.8,28.4,52.5,29.2,52.9,29.4z"/>
	<path class="st3" d="M53.7,29.7c0,0,0-0.1,0-0.1C53.7,29.6,53.7,29.6,53.7,29.7C53.7,29.7,53.7,29.7,53.7,29.7z"/>
	<path class="st2" d="M69.7,29.1c0,0-0.1,0-0.1,0c0,0,0,0,0-0.1C69.6,29.1,69.6,29,69.7,29.1C69.7,29.1,69.7,29.1,69.7,29.1z"/>
	<path class="st2" d="M83.7,76.1c-1.3-0.4-2.5-0.7-3.6-1.6c-0.4-0.3-0.9-0.6-1.3-0.9c-0.1,0-0.1-0.1-0.2-0.1l0,0l0,0
		c-0.1-0.8-0.8-1.2-1.2-1.8c-0.4-0.6-0.8-0.5-1.2,0.2c0.8,1.8,0.6,3.7,0.5,5.5c0,0.3-0.1,0.6-0.5,0.6c-1.3-1.2-2.1-2.8-2.6-4.5
		c-0.1-0.4,0.1-0.6,0.3-0.8c0.3-0.2,0.4,0.1,0.6,0.3c0.3,0.3,0.3,0.9,0.9,1.2c0-0.8-0.3-1.4-0.5-2.1c-0.1-0.4-0.8-0.8,0.1-1.2
		c0.1,0,0-0.2-0.1-0.3c-0.5-0.4-0.6,0.1-0.7,0.4c-0.4-0.5-0.6-1.2-1.3-1.6c0.3,0.7,0.6,1.1,0.7,1.6c0.2,0.6-0.1,0.7-0.6,0.5
		c-0.9-0.3-1.7-0.7-2.5-1.2c-0.4-0.3-0.7-0.9-1.1-0.8c-0.3,0.1-0.4,0.8-0.5,1.3c-0.2,0.5-0.8,0.7-0.9,1.2c-1.2,0.5-1.2,0.5-2.1-0.4
		c-0.1-0.1-0.1-0.1-0.2-0.2c-0.7-0.3-0.9-0.9-1.2-1.5c-0.4-1-0.3-2.1-0.3-3.2c0-0.2,0.1-0.6-0.1-0.7c-0.3-0.1-0.5,0.2-0.7,0.4
		c-0.6,0.5-1.1,1.1-1.6,1.6c-0.7,0.6-1.5,1-2.5,0.7c-0.3-0.1-0.7-0.2-0.8-0.5c-0.3-0.9-0.8-0.7-1.4-0.3c-0.1,0.1-0.2,0.1-0.3,0.2
		c-0.2,0-0.3,0.1-0.3,0.3c0,0,0,0,0,0c-0.2-0.1-0.4,0-0.6,0.1c-1.4,0.6-2.8,0.9-4.4,1c-0.7,0-1.2-0.1-1.3-0.9c0.1-1.1,0.7-2,1.6-2.6
		c1.3-0.9,2.6-1.8,4.1-2.7c-1.2-0.1-2.3-0.5-3.4-0.2c0-0.3-0.3-0.2-0.4-0.3c-0.7-0.3-1.6,0.2-2.1-0.7c0,0-0.1,0-0.1,0
		c-0.2-0.1-0.4-0.1-0.6-0.2c-0.2-0.1-0.4-0.3-0.6-0.4c-0.1-0.1-0.2-0.2-0.2-0.2c-0.3-0.5,0-0.9,0-1.3c0.1-0.1,0.2-0.2,0.3-0.3
		c0-0.1,0.1-0.1,0.1-0.2c0.2-0.1,0.4-0.3,0.5-0.5c0.1,0,0.1-0.1,0.2-0.1c0.1-0.1,0.2-0.1,0.3-0.2c0.2-0.1,0.4-0.1,0.7-0.2
		c-0.4-0.3-0.8-0.4-1.1-0.5c-0.1,0-0.1-0.1-0.2-0.1c-0.1,0-0.2,0-0.2-0.1c-0.1,0-0.1-0.1-0.2-0.1c-0.8-0.9-1.6-1.7-2.7-2
		c-0.3-0.1-0.8-0.4-0.6-0.8c0.2-0.4,0.6-0.1,1,0c1.2,0.5,2.4,1.1,3.6,1.6c0.2,0.1,0.5,0.3,0.8,0c-1.2-0.7-2.2-1.6-3.5-1.9
		c-0.5-0.1-1.3-0.3-1.4-1.1c0-0.2,0.1-0.4-0.2-0.4c-0.2,0-0.4,0.2-0.4,0.4c-0.4-0.3-0.8-0.6-1.3-0.8c-0.1-0.1-0.1-0.2-0.2-0.3
		c0-0.3,0-0.5,0-0.8c0-0.1,0.1-0.1,0.1-0.2c0.1,0,0.1,0,0.2-0.1c0.5,0.1,1,0.1,1.5,0c0.2,0,0.3,0,0.5,0.1c0.6,0.2,1.2,0.3,1.8,0.5
		c2,0.6,3.9,1.5,5.8,2.3c0.4,0.3,0.9,0.6,1.4,0.7c0.7,0.6,1.5,1.1,2.3,1.6l0,0c0.1,0.1,0.1,0.1,0.2,0.2l0,0c-0.1,0.4,0,0.7,0.3,1
		c0.1,0.1,0.1,0.2,0.2,0.3c-0.4,0.7-0.4,1.1,0.4,1.6c0.4,0.4,1,0.6,1.1,1.1c0.2,1,0.5,1.7,1.6,1.9c0.9,0.2,1.8,0.5,2.7,1
		c0,0,0,0,0.1,0c0.1,0,0.2,0,0.3,0c0.1,0.1,0.2,0.3,0.4,0.4c0.4,0.6,0.6,0.1,0.8-0.2c1,0,1.9,0.3,2.9,0.7c1.1,0.5,1.1,0.5,1.7-0.4
		c0.1,0,0.2,0,0.3,0c0.1,0.2,0.1,0.1,0.2,0c0.3,0,0.6,0.3,1,0.1c0.5-0.3,0.9-0.2,1.3,0c0.4,0.1,0.7,0.2,1.1,0.4
		c0.2,0.4,0.6,0.6,0.9,0.8c1.5,1.1,2.5,2.6,2.6,4.6c0,0.3,0.2,0.6,0.5,0.8c1.4,1.4,2.9,2.6,4.3,3.8C82.6,75,83.3,75.4,83.7,76.1z"/>
	<path class="st2" d="M49.1,51.5c-0.8-0.6-1.7-1.1-2.5-1.7c-0.1-0.3-0.4-0.3-0.6-0.5C45.7,49,46,49,46.2,49c0.4,0.3,0.8,0.5,1.5,0.5
		c-0.5-0.4-0.9-0.6-1.4-0.7l0,0c0-0.4,0.3-0.4,0.6-0.4c0.2,0,0.4,0.2,0.6,0c0.4,0,0.8,0.2,1.2,0.3c0,0.4,0.4,0.4,0.7,0.5
		c1.3,0.6,2.6,1.2,3.8,2c0.4,0.3,0.4,0.3,0.8,0c0,0,0.1,0,0.1,0c0.2,0,0.3,0.3,0.5,0c0.1-0.2-0.1-0.4-0.3-0.6
		c-0.4-0.5-0.9-1-1.4-1.3c-0.4-0.3-0.8-0.7-1.2-1c-0.3-0.4-0.3-0.9-0.1-1.2c0.3-0.4,0.6,0,0.9,0.1c0.1,0,0.2,0.1,0.3-0.1
		c0.1-0.2-0.4-0.4-0.2-0.7c0.8,0.6,1.5,1.1,2.3,1.7c0.2,0.1,0.4,0.3,0.6,0.2c0.2-0.1,0.3-0.4,0.2-0.6c-0.2-0.5-0.2-1-0.5-1.4
		c-0.2-0.2-0.4-0.6-0.2-0.8c0.3-0.2,0.4,0.2,0.6,0.4c0.2,0.2,0.4,0.4,0.7,0.3c0.3-0.1,0.2-0.4,0.2-0.7c0-0.1-0.1-0.3,0.2-0.4
		c0.9,0.9,1.2,2.2,2.3,3c-0.6-1.2-0.8-2.5-1.6-3.5c-0.3-0.3-0.5-0.7-0.1-1.2c0.1,0.1,0.3,0.2,0.4,0.4l0,0c0,0.1,0.1,0.2,0.2,0.2l0,0
		c0.2,0.4,0.4,0.8,0.8,1.1c0,0,0.1,0.1,0.1,0.1c0.1,0.2,0.2,0.4,0.4,0.6c0,0.1,0,0.2,0.2,0.3c0.5,1.1,0.9,2.2,1.6,3.2
		c0.1,1.2,0.5,2.4,0.7,3.6c-0.4-0.1-0.8,0-1.1,0.2c-0.7,0.5-1.3,1-2,1.6c-0.2,0.2-0.5,0.5-0.4,1c0.1,0.3,0,0.6-0.5,0.5
		c-0.8-0.4-1.5-1-2.4-1.3c-0.4-0.4-1-0.7-1.5-0.9C52.1,53.1,50.6,52.3,49.1,51.5z M48,49.6C48,49.6,48,49.6,48,49.6
		C48,49.5,48,49.5,48,49.6C48,49.5,47.9,49.5,48,49.6C47.9,49.6,48,49.6,48,49.6z"/>
	<path class="st3" d="M61.6,68.3c0.5-0.5,1.1-1.1,1.6-1.6c0.2-0.2,0.4-0.5,0.7-0.4c0.3,0.1,0.1,0.5,0.1,0.7c0,1.1-0.1,2.1,0.3,3.2
		c0.3,0.6,0.5,1.2,1.2,1.5c0.1,0,0.2,0.1,0.2,0.2c0.9,1,0.9,1,2.1,0.4c-0.2,1-0.2,2.1-0.4,3.1c-0.3,1.2-0.7,2.4-1.5,3.3
		c-0.4,0.4-0.9,0.7-1.6,0.4c-0.1-1.2-0.2-2.3-0.9-3.3c-0.2,1.1,0.3,2,0.5,3.1c-0.8-0.4-1.2-1.2-1.4-2c-0.6-2.6-1.1-5.2-0.8-7.9
		C61.8,68.8,61.9,68.5,61.6,68.3z M65.3,78.5c-0.1-0.9,0.6-1.8,0-2.6C65.3,76.8,64.8,77.7,65.3,78.5z"/>
	<path class="st3" d="M55.3,41.4c0.4,0.7,0.8,1.4,1.7,1.6c0,0.1,0.1,0.2,0.1,0.3c-0.5,0.4-0.2,0.8,0.1,1.2c0.8,1.1,1.1,2.4,1.6,3.5
		c-1-0.8-1.3-2.2-2.3-3c-0.3,0.1-0.2,0.3-0.2,0.4c0.1,0.3,0.2,0.5-0.2,0.7c-0.3,0.1-0.5,0-0.7-0.3c-0.2-0.2-0.3-0.7-0.6-0.4
		c-0.2,0.2,0,0.6,0.2,0.8c0.4,0.4,0.3,1,0.5,1.4c0.1,0.2,0,0.5-0.2,0.6c-0.2,0.1-0.4-0.1-0.6-0.2c-0.7-0.5-1.5-1.1-2.3-1.7
		c-0.2,0.3,0.3,0.5,0.2,0.7c-0.1,0.1-0.2,0.1-0.3,0.1c-0.3-0.1-0.7-0.5-0.9-0.1c-0.2,0.4-0.2,0.9,0.1,1.2c0.4,0.4,0.7,0.7,1.2,1
		c0.5,0.4,1,0.9,1.4,1.3c0.2,0.2,0.4,0.4,0.3,0.6c-0.1,0.3-0.3,0-0.5,0c0,0-0.1,0-0.1,0c-0.4,0.3-0.3,0.3-0.8,0
		c-1.2-0.8-2.5-1.5-3.8-2c-0.3-0.1-0.6-0.1-0.7-0.5c0.1,0,0.2,0,0.3,0c0.6,0.3,1.2,0.5,1.9,0.8c0.4,0.2,0.8,0.5,1.2,0.4
		c0,0,0,0,0,0.1c0,0,0,0,0,0c0,0,0,0-0.1,0c-0.3-0.5-0.8-0.8-1.2-1.2c0,0,0,0,0,0c-0.2-0.3-0.3-0.6-0.6-0.7
		c-0.1-0.2-0.2-0.3-0.4-0.5c-0.2-0.3-0.4-0.7-0.6-1c-0.2-0.4-0.4-0.9,0.1-1.3c0,0,0,0,0,0c0.2,0,0.3-0.1,0.4-0.2c0.1,0,0.2,0,0.3,0
		c0.4,0.1,0.8,0.2,1.2,0.4c0.6,0.4,0.6,0.1,0.7-0.4c0.5-0.1,1,0.3,1.4-0.1c0.3-0.4-0.1-0.9-0.1-1.4c0-0.4,0-0.7,0-1.1
		c0-1.2,0.3-1.4,1.5-1.2C54.8,41.2,55.1,41.4,55.3,41.4z"/>
	<path class="st3" d="M68.8,71.1c0.2-0.5,0.2-1.2,0.5-1.3c0.4-0.2,0.7,0.5,1.1,0.8c0.8,0.5,1.6,0.9,2.5,1.2c0.5,0.2,0.7,0.1,0.6-0.5
		c-0.1-0.5-0.5-1-0.7-1.6c0.8,0.4,0.9,1.1,1.3,1.6c0.1-0.3,0.2-0.9,0.7-0.4c0.1,0.1,0.2,0.3,0.1,0.3c-0.9,0.3-0.2,0.8-0.1,1.2
		c0.2,0.7,0.5,1.3,0.5,2.1c-0.5-0.3-0.5-0.9-0.9-1.2c-0.2-0.2-0.3-0.5-0.6-0.3c-0.3,0.2-0.5,0.4-0.3,0.8c0.5,1.7,1.2,3.3,2.6,4.5
		c-0.1,0.8-0.6,0.2-0.9,0.2c0-0.6-0.4-0.9-0.7-1.3c-0.7-1.1-1.4-2.1-2.1-3.2c0,1,0.5,1.7,1,2.5c0.4,0.5,0.8,0.9,0.8,1.6
		c-0.9-0.3-1.5-1.1-2.1-1.7c-1-1.6-2-3.1-3-4.7C69.2,71.1,69.1,71,68.8,71.1z"/>
	<path class="st3" d="M50,68.8c0.2,0.7,0.6,0.9,1.3,0.9c1.5-0.1,3-0.3,4.4-1c0.2-0.1,0.4-0.2,0.6-0.1c-0.5,0.8-1.2,1.4-1.9,1.9
		c-1.5,1.3-3.2,2.3-4.9,3.2c-0.5,0.3-1.2,0.6-1.7,0.2c-0.6-0.5-0.3-1.3,0-1.9C48.3,70.9,49,69.7,50,68.8z"/>
	<path class="st3" d="M45,53.6c0.1-0.2,0.2-0.4,0.4-0.4c0.3,0,0.1,0.3,0.2,0.4c0.1,0.8,0.9,1,1.4,1.1c1.3,0.3,2.3,1.2,3.5,1.9
		c-0.4,0.2-0.6,0.1-0.8,0c-1.2-0.5-2.4-1.1-3.6-1.6c-0.3-0.1-0.7-0.4-1,0c-0.2,0.4,0.2,0.7,0.6,0.8c1.2,0.4,1.9,1.2,2.7,2
		c-0.1,0-0.2,0-0.3,0.1c-0.3-0.1-0.6-0.2-0.9-0.1c-0.2,0-0.3,0-0.5-0.1c0,0-0.1,0-0.1,0c-1.4-0.3-2.8-0.6-4.1-1.2
		c-0.1-0.1-0.2-0.1-0.4-0.2c-0.4-0.2-1-0.3-1-0.8c0-0.5,0.7-0.3,1.1-0.5c0.1,0,0.2,0.1,0.2,0c0-0.2-0.1-0.2-0.2-0.2
		c0.2-0.7,0.8-0.7,1.4-0.8C44.8,54.4,44.9,54.3,45,53.6z"/>
	<path class="st3" d="M49.6,62.4c0,0,0.1,0,0.1,0c0.5,0.9,1.4,0.4,2.1,0.7c0.2,0.1,0.4,0,0.4,0.3c-0.9,0.6-1.9,0.9-2.8,1.3
		c-1.4,0.6-2.8,1-4.3,1.5c-0.2,0.1-0.5,0.3-0.7-0.1c-0.2-0.4,0.1-0.6,0.4-0.8c1.4-0.8,2.9-1.6,4.3-2.4
		C49.4,62.7,49.8,62.8,49.6,62.4z"/>
	<path class="st3" d="M47.5,48.2c-0.2,0.2-0.4,0.1-0.6,0c-0.3,0-0.6,0-0.6,0.4c-0.6-0.1-1.2-0.3-1.9-0.4c-0.1,0-0.2,0-0.3-0.1
		c-0.2-0.1-0.4-0.2-0.6-0.1c-0.1-0.3,0.2-0.3,0.3-0.5c0.5,0,0.9,0,1.4,0.1c0.2,0,0.4,0.1,0.6,0.1c0.2,0.1,0.5,0.1,0.8,0.1
		c0,0,0.1,0,0.1,0C47,48.1,47.3,48,47.5,48.2z"/>
	<path class="st2" d="M63.9,78.9c-0.1-1-0.7-2-0.5-3.1c0.7,1,0.8,2.1,0.9,3.3C64.2,79.2,64,79.1,63.9,78.9z"/>
	<path class="st3" d="M43.5,51.8c0,0.3,0,0.5,0,0.8c-0.1,0-0.2,0-0.3-0.1c-0.1-0.1-0.2-0.3-0.3-0.4c0,0,0.1-0.1,0.1-0.1
		C43.2,51.9,43.4,51.9,43.5,51.8z"/>
	<path class="st3" d="M56.3,68.6c0-0.2,0.1-0.3,0.3-0.3C56.6,68.5,56.5,68.6,56.3,68.6z"/>
	<path class="st2" d="M84.8,76c0,0.1,0,0.3-0.1,0.4c-0.1,0-0.2,0-0.3,0.1c0,0,0,0,0,0c0.1-0.4-0.1-0.7-0.3-1
		c-0.6-0.6-1.2-1.2-1.8-1.8c-0.7-0.8-1.7-1.2-2.3-2.1c-0.5-0.7-0.4-1,0.4-1c0.6,0,0.5-0.2,0.2-0.5c-0.4-0.4-0.5-0.9-0.3-1.4
		c0.2-0.4,0-0.5-0.3-0.8c-0.4-0.3-1-0.4-1.4-0.8c-1.5-1.2-3.2-1.9-4.9-2.6c-0.1-0.1-0.3-0.2-0.4-0.3c-0.2-0.2-0.5-0.3-0.3-0.6
		c0.1-0.2,0.4-0.2,0.6-0.2c0.1,0,0.2,0,0.3,0c1.3,0.4,2.7,0.6,4,1c-0.2-0.5-0.7-0.6-1.1-0.7c-0.8-0.3-1.8-0.4-2.5-1.1
		c0.2-0.3,0.6-0.2,0.9-0.2c0.9,0,1.8,0.1,2.7,0.4c0.1,0.1,0.3,0,0.5,0c0.2,0,0.4-0.1,0.4-0.3c0-0.2-0.1-0.3-0.3-0.3
		c-0.9-0.2-1.8-0.4-2.8-0.6c-0.3-0.2-1-0.2-0.8-0.5c0.3-0.5,0.1-0.9,0.2-1.3c0.1-0.5,0-0.9-0.3-1.2c-0.2-0.2-0.3-0.4-0.2-0.7
		c0-0.4-0.1-1-0.5-1.1c-0.8-0.2-0.5-0.6-0.2-1c-0.5-0.2-1-0.3-1.1-1c-0.2-0.7-1.4-0.4-1.4-1.4c0,0-0.1-0.1-0.2-0.1
		c-0.4,0-0.7-0.3-1.1-0.4c-0.4-0.2-0.8-0.4-1.1,0.1c-0.1,0.1-0.2,0.1-0.4,0c-0.8-0.7-1.2-0.7-2.3-0.7c-0.6,0-1.4,0-1.9-0.5
		c-0.4-0.8-0.8-1.5-1.1-2.4c-0.6-1.8-1.1-3.5-1.7-5.3c-0.1-0.4-0.3-0.8-0.2-1.2c0.1-0.4,0.8,0.1,0.8-0.6c0.7,0.3,0.8-0.2,1-0.7
		c0.3,0.3,0.1,0.7,0.5,0.8c0.1-0.3,0.2-0.6,0.3-1c0.4,0.4,0.5,0.9,0.8,1.4l0,0c0.4,1.6,0.7,3.3,1.6,4.7c0.1-0.2,0.2-0.3,0.2-0.6l0,0
		c0.3-0.6,0.5-1.1,0.8-1.7l0,0c0.4-0.5,0.8-1,1.1-1.5l0,0l0,0c0.5-0.5,1-1.1,1.5-1.6c0,0,0.1,0,0.1,0c0.2,0,0.3,0,0.5,0
		c1.5-0.2,2,0.4,1.7,1.9c-0.1,0.8-0.3,1.6-0.6,2.4c-0.4,0.9-0.3,1.9-0.3,3c1.2-1.4,2.2-2.7,3.2-4c0.4,0.6,0.5,0.1,0.7-0.1
		c0.1-0.2,0.3-0.3,0.5-0.2c0.2,0,0.1,0.2,0.1,0.3c-0.3,0.8,0.1,0.8,0.7,0.5c0.2-0.1,0.4-0.1,0.5,0.1c0.1,0.2,0,0.4,0.3,0.4
		c0.2,0,0.3-0.3,0.4-0.5c0.2-0.6,0.5-0.7,1-0.3c0,0.1,0,0.1-0.1,0.2c-0.2,0.1-0.2,0.2-0.2,0.4c0,0,0,0,0,0c-0.4,0.1-0.4,0.4-0.4,0.7
		c-0.4,0.6-0.7,1.2-1.1,1.9c0,0,0.1,0.1,0.1,0.1c0.4-0.2,0.9-0.4,1.3-0.6c1.8-0.8,3.8-1.1,5.8-1c0.4,0,0.8,0.2,1,0.5
		c0.2,0.4,0,0.8-0.4,1.1c-0.8,0.8-1.8,1.1-2.7,1.6c-0.2,0.1-0.4,0.1-0.4,0.3c0,0.3,0.3,0.2,0.5,0.3c0.3,0.2,0.6,0,0.9-0.1
		c1.4-0.3,2.8-0.6,4.2-0.3c0.4,0.1,0.9,0.1,1,0.7c0.1,0.6-0.3,0.7-0.5,1c-0.2,0.2-0.4,0.4-0.7,0.6c-0.3,0.3-0.9,0.4-0.3,1
		c0.2,0.2-0.2,0.5-0.4,0.8c-0.1,0.1-0.4,0.3,0.1,0.4c0.5,0.1,0.3,0.3,0.1,0.6c-0.8,0.7-1.6,1.4-2.5,2.2c0.4,0.1,0.7,0.2,1.1,0.3
		c1.6,0.4,3.2,0.7,4.8,1c0.6,0.1,1,0.5,1.5,1c-1.1,0.2-2.1,0-3.3,0c0.7,0.5,1.3,0.9,2,1.1c0.7,0.2,1.3,1,1.2,1.7
		c0,0.3-0.3,0.6-0.6,0.6c-0.3,0.1-0.5,0.3-0.8,0.4c0.7,0.6,1.4,1,2,1.7c0.4,0.5,0.5,0.9,0.5,1.5c0,0.5-0.3,0.8-0.9,0.9
		c-0.8,0.1-1.6,0-2.4-0.2c-1.3-0.3-2.7-0.7-4-1c-0.2,0-0.4-0.2-0.5,0c-0.1,0.2,0,0.3,0.1,0.5c0.1,0.1,0.2,0.2,0.3,0.4
		c0.1,0.1,0.3,0.3,0.1,0.5c-0.2,0.3-0.4,0.1-0.6,0c0,0,0,0,0,0c0,0,0,0,0,0c0,0.7-0.5,0.5-0.8,0.4c-0.8-0.2-1.5-0.5-2.3-0.8
		c-0.1-0.1-0.3-0.2-0.4-0.1c-0.1,0.3,0.1,0.3,0.4,0.3c0,0,0,0,0,0c0,0.1,0.1,0.1,0.1,0.2c1.1,0.9,2,1.9,2.6,3.2
		c0.4,0.9,0.7,1.7,1.3,2.5c-0.6-0.1-1,0-0.5,0.7C84.8,75.4,84.8,75.7,84.8,76z M82.2,60.1c-1.2-0.6-2.4-0.8-3.7-0.1
		C79.7,59.9,81,60.2,82.2,60.1z"/>
	<path class="st3" d="M77.5,42.4c0.1,0,0.2,0,0.3,0c1.1,0.9,1.3,2.1,0.6,3.4c-0.5-0.3-0.8-0.2-1,0.3c-0.1,0.2-0.1,0.4-0.4,0.5
		c-0.3,0-0.2-0.2-0.3-0.4c-0.1-0.3-0.3-0.2-0.5-0.1c-0.5,0.2-1,0.3-0.7-0.5c0-0.1,0.1-0.3-0.1-0.3c-0.2-0.1-0.4,0.1-0.5,0.2
		c-0.2,0.2-0.3,0.7-0.7,0.1C75.2,44.3,76.2,43.2,77.5,42.4z"/>
	<path class="st3" d="M84.8,76c0-0.3,0-0.5-0.1-0.8c-0.4-0.7-0.1-0.8,0.5-0.7c0.2,0.2,0.2,0.5,0.3,0.8C85.7,75.9,85.3,75.9,84.8,76z
		"/>
	<path class="st3" d="M81.2,68.6c-0.2,0-0.5-0.1-0.4-0.3c0.1-0.2,0.3,0,0.4,0.1C81.2,68.5,81.2,68.5,81.2,68.6z"/>
	<path class="st3" d="M77.8,47.2c0-0.3-0.1-0.6,0.4-0.7C78.2,46.7,78.1,47,77.8,47.2z"/>
	<path class="st3" d="M78.2,46.4c-0.1-0.2-0.1-0.4,0.2-0.4C78.4,46.1,78.3,46.3,78.2,46.4z"/>
	<path class="st3" d="M81.4,68.8c0-0.1-0.1-0.1-0.1-0.2C81.3,68.7,81.3,68.7,81.4,68.8z"/>
	<path class="st3" d="M73.7,64.4c1.8,0.7,3.5,1.4,4.9,2.6c0.4,0.4,1,0.5,1.4,0.8c0.3,0.2,0.5,0.4,0.3,0.8c-0.2,0.5-0.1,1,0.3,1.4
		c0.3,0.3,0.4,0.5-0.2,0.5c-0.9,0-0.9,0.3-0.4,1c0.6,0.9,1.6,1.3,2.3,2.1c0.5,0.6,1.2,1.2,1.8,1.8c0.3,0.3,0.4,0.6,0.3,1
		c-0.2,0-0.4,0-0.6-0.2l0,0c-0.1,0-0.1-0.1-0.2-0.1c-0.4-0.7-1.1-1.1-1.7-1.6c-1.5-1.2-3-2.5-4.3-3.8c-0.2-0.2-0.4-0.4-0.5-0.8
		c-0.1-2-1.1-3.4-2.6-4.6c-0.3-0.2-0.7-0.4-0.9-0.8C73.6,64.5,73.7,64.5,73.7,64.4z"/>
	<path class="st2" d="M74.4,77.8c0-0.7-0.4-1.1-0.8-1.6c-0.5-0.7-1.1-1.5-1-2.5c0.7,1.1,1.4,2.1,2.1,3.2c0.3,0.4,0.7,0.8,0.7,1.3
		C74.9,78.2,74.7,78,74.4,77.8z"/>
	<path class="st3" d="M76.2,71.8c0.4-0.7,0.8-0.8,1.2-0.2c0.4,0.6,1.1,1,1.2,1.8c-0.6-0.3-1-0.8-1.6-1.2
		C76.7,72.1,76.5,71.8,76.2,71.8z"/>
	<path class="st3" d="M84.4,76.4c0.1,0,0.2,0,0.3-0.1C84.7,76.6,84.6,76.6,84.4,76.4z"/>
	<path class="st3" d="M78.5,73.5c0.1,0,0.1,0.1,0.2,0.1C78.7,73.6,78.6,73.5,78.5,73.5z"/>
	<path class="st4" d="M73.7,64.4c0,0.1,0,0.1,0,0.2c-0.4-0.1-0.7-0.2-1.1-0.4c-0.4-0.2-0.9-0.3-1.3,0c-0.3,0.2-0.6-0.1-1-0.1
		c-0.1,0-0.1,0-0.2,0c-0.1,0-0.2,0-0.3,0c-0.4-0.1-0.8,0-1.2,0.1c-0.1-0.2-0.2-0.4-0.5-0.4c-0.8,0-1.5,0.2-2.3-0.2
		c-0.2-0.1-0.5-0.1-0.6,0.2c-0.4-0.4-0.6-0.2-0.8,0.2c-0.1-0.1-0.2-0.3-0.4-0.4c0.2-0.3,0.1-0.5-0.1-0.7c-0.1-0.1-0.2-0.1-0.3,0
		c-0.1,0.2,0,0.4,0.1,0.6c0,0-0.1,0.1-0.1,0c-0.8-0.5-1.7-0.8-2.7-1c-1.1-0.2-1.4-1-1.6-1.9c-0.1-0.5-0.8-0.7-1.1-1.1
		c0-0.1,0.1-0.2,0.1-0.3c0,0,0.1,0,0.1,0c0.2-0.1,0.5-0.1,0.6-0.4c0,0-0.1-0.1-0.1-0.1c-0.3,0-0.4,0.2-0.5,0.4c0,0-0.1,0.1-0.1,0.1
		c-0.2-0.2-0.4-0.4-0.2-0.8c0.1-0.2,0-0.4-0.2-0.4c-0.1-0.1-0.1-0.2-0.2-0.3c0.1-0.4,0.2-0.8-0.3-1c0,0,0,0,0,0
		c-0.1-0.1-0.1-0.1-0.2-0.2c0,0,0,0,0,0c0.1-0.2,0.1-0.3,0.2-0.5c0.5,0.1,0.6-0.2,0.5-0.5c-0.1-0.4,0.1-0.8,0.4-1
		c0.6-0.6,1.3-1.1,2-1.6c0.3-0.2,0.7-0.3,1.1-0.2c0.2,0.1,0.3,0,0.3-0.2c0-0.4,0.2-0.4,0.5-0.4c0.2,0.1,0.4,0.3,0.5-0.1
		c0.5,0,1-0.3,1.5-0.3c0.5,0.5,1.3,0.5,1.9,0.5c1.1,0,1.4,0,2.3,0.7c0.1,0.1,0.3,0.1,0.4,0c0.3-0.5,0.8-0.3,1.1-0.1
		c0.3,0.2,0.7,0.4,1.1,0.4c0.1,0,0.2,0,0.2,0.1c0,1,1.3,0.7,1.4,1.4c0.2,0.7,0.7,0.7,1.1,1c-0.2,0.4-0.6,0.8,0.2,1
		c0.4,0.1,0.5,0.7,0.5,1.1c0,0.3,0,0.5,0.2,0.7c0.3,0.3,0.5,0.6,0.3,1.2c-0.1,0.4,0.1,0.8-0.2,1.3c-0.2,0.3,0.5,0.3,0.8,0.5
		c-0.1,0.3-0.4,0.4-0.5,0.7c-0.3,0-0.6,0-0.9,0.2c-0.8-0.1-0.3,0.5-0.4,0.8c-0.1,0-0.2,0-0.3,0c-0.2,0-0.5,0-0.6,0.2
		c-0.1,0.3,0.2,0.4,0.3,0.6C73.4,64.2,73.5,64.3,73.7,64.4z"/>
	<path class="st3" d="M57.4,56.2c-0.1,0.2-0.1,0.3-0.2,0.5c-0.8-0.5-1.6-1-2.3-1.6c0-0.1,0.1-0.1,0.1-0.2
		C55.9,55.2,56.6,55.8,57.4,56.2z"/>
	<path class="st3" d="M68.1,64.6c0.2-0.1,0.4-0.2,0.6-0.3c0.4-0.1,0.8-0.2,1.2-0.1C69.2,65,69.2,65,68.1,64.6z"/>
	<path class="st3" d="M58.4,59.4c0,0.1-0.1,0.2-0.1,0.3c-0.7-0.5-0.8-0.9-0.4-1.6c0.3,0.1,0.4,0.2,0.2,0.4
		C58,58.9,58.2,59.1,58.4,59.4C58.4,59.3,58.4,59.4,58.4,59.4z"/>
	<path class="st3" d="M57.5,56.8c0.5,0.2,0.4,0.6,0.3,1C57.4,57.6,57.4,57.2,57.5,56.8z"/>
	<path class="st3" d="M70.1,64.2c0.1,0,0.1,0,0.2,0C70.2,64.3,70.1,64.3,70.1,64.2z"/>
	<path class="st3" d="M57.3,56.7c0.1,0.1,0.1,0.1,0.2,0.2C57.4,56.8,57.3,56.7,57.3,56.7z"/>
	<path class="st3" d="M62.2,52.2c-0.2,0.1-0.5,0-0.5,0.4c0,0.2-0.1,0.3-0.3,0.2c-0.1-1.2-0.6-2.4-0.7-3.6c0.3-0.8,0-1.5-0.2-2.2
		c0-0.2,0-0.3,0-0.5c0.3-0.5,0.2-1.1,0.2-1.7c0.2-0.7,0.1-1.4,0.1-2.2c0-0.1,0-0.2,0-0.3c0,0,0-0.1,0.1-0.1c0,0,0,0,0-0.1
		c0.4-0.5,0.3-1.3,0.9-1.7c0.1,0.1,0.3,0.1,0.4,0.2c0.2,0.2,0.3,0.6,0.6,0.3c0.3-0.3,0.5-0.1,0.7,0c0.1,0.1,0.1,0.1,0.2,0.2
		c0.1,0.1,0.1,0.3,0.2,0.4c-0.1,0.3-0.2,0.6-0.3,1c-0.5-0.1-0.3-0.5-0.5-0.8c-0.2,0.5-0.4,1-1,0.7c0,0.6-0.7,0.1-0.8,0.6
		c-0.1,0.4,0.1,0.8,0.2,1.2c0.6,1.7,1.2,3.5,1.7,5.3c0.3,0.8,0.7,1.6,1.1,2.4c-0.5,0.1-1,0.4-1.5,0.3c0-0.2,0-0.3,0-0.5
		c0-0.4-0.2-0.7-0.5-1c-0.2-0.2-0.3,0.2-0.4,0.3c-0.3,0.4,0,0.7,0.2,1C62,52.1,62.1,52.1,62.2,52.2z"/>
	<path class="st3" d="M46.2,49c0-0.1,0.1-0.2,0.1-0.3c0.5,0.1,0.9,0.3,1.4,0.7C47,49.5,46.6,49.2,46.2,49z"/>
	<path class="st3" d="M48,49.6C48,49.6,47.9,49.6,48,49.6C47.9,49.5,48,49.5,48,49.6C48,49.5,48,49.5,48,49.6
		C48,49.6,48,49.6,48,49.6z"/>
	<path class="st2" d="M65.3,78.5c-0.5-0.9,0-1.7,0-2.6C65.9,76.8,65.2,77.6,65.3,78.5z"/>
	<path class="st3" d="M75.1,62.2c0-0.3,0.4-0.4,0.5-0.7c0.9,0.2,1.9,0.4,2.8,0.6c0.1,0,0.3,0.1,0.3,0.3c0,0.2-0.2,0.3-0.4,0.3
		c-0.2,0-0.3,0-0.5,0C77,62.3,76.1,62.3,75.1,62.2z"/>
	<path class="st3" d="M73.8,63.3c0.1-0.3-0.3-0.9,0.4-0.8c0.7,0.7,1.6,0.8,2.5,1.1c0.4,0.2,0.9,0.2,1.1,0.7
		C76.6,63.8,75.2,63.6,73.8,63.3z"/>
	<path class="st3" d="M82.2,60.1c-1.2,0.1-2.5-0.2-3.7-0.1C79.8,59.3,81,59.5,82.2,60.1z"/>
	<path class="st2" d="M83.8,76.2L83.8,76.2L83.8,76.2z"/>
	<path class="st2" d="M62.2,52.2C62.1,52.1,62,52.1,62,52c-0.2-0.3-0.5-0.6-0.2-1c0.1-0.1,0.1-0.4,0.4-0.3c0.3,0.2,0.6,0.5,0.5,1
		c0,0.2,0,0.3,0,0.5C62.6,52.5,62.4,52.3,62.2,52.2z"/>
</g>
</svg>
