<svg xmlns="http://www.w3.org/2000/svg" version="1.1" xmlns:xlink="http://www.w3.org/1999/xlink" xmlns:svgjs="http://svgjs.dev/svgjs" viewBox="0 0 108 108" style="" x="0" y="0"><style type="text/css">
	.st0{fill:none;stroke:#E07FB3;stroke-miterlimit:10;}
	.st1{fill:none;stroke:#B97885;stroke-miterlimit:10;}
	.st2{fill:none;stroke:#DD078C;stroke-miterlimit:10;}
	.st3{fill:#FFFFFF;}
	.st4{fill:#8F9836;}
	.st5{fill:#CC46B9;}
	.st6{fill:#EC58A0;}
	.st7{fill:#D42690;}
	.st8{fill:#B91C8D;}
	.st9{fill:#CA2787;}
	.st10{fill:#A5C239;}
	.st11{fill:#669132;}
	.st12{fill:#91B73E;}
</style><g><path class="st0" d="M14.2,81.8c7.7-21,26.9-21.4,30.2-21.6c0,0-5.4,4.1-6.7,5.4C36.3,66.9,29.2,73,27,79.1s-4,13.3-4,13.3"></path><path class="st1" d="M34.4,61.6c-0.3-0.1-2.6-0.7-4.6-0.2c-2,0.4-9.6,2.8-11.6,5.4c-2,2.5-4.7,9.7-4.7,10.2c0,0.5-0.3,4.3-0.1,4.2"></path><path class="st2" d="M51.3,72c-4.2,0-13.7,4.3-14.9,5.2c-1.2,0.9-8.3,9.4-10,11.7"></path><path class="st1" d="M32.5,65.4c-0.2,0.2-1.8,2.3-2,3.2s0.5,5.8,0.7,6.7c0.2,0.9,4,10.3,4,10.3"></path><path class="st0" d="M32.9,69.4c0,0-1.9,6.6-1.9,7.1c0,0.6,0.5,6.7,0.6,7.3s1.3,7.9,1.6,7.9"></path><path class="st2" d="M44.3,60.3c0.1,1.6,1.1,12.7,1.1,13.9s0.4,16.8,0,18.3c-0.4,1.5-0.4,3-0.4,3"></path><path class="st0" d="M45.1,60c0,0,2.5,11.6,3,17.5c0.5,5.9,0.4,8,0.4,8"></path><path class="st1" d="M52.7,72.9c0,0,6.7,3.2,11.5,11.8s6.3,15.4,6.3,15.4"></path><path class="st0" d="M60.4,65.6c-0.8,3.9-2.9,10.8-2,17s3,14.6,4.1,16.7"></path><path class="st2" d="M59.2,65.6c0,0-3.8,5-4.2,5.7c-0.5,0.8-2.6,6.9-3.1,8.8c-0.6,1.9-1.1,7.5-1.1,7.5"></path><line class="st2" x1="51.8" y1="73.2" x2="35.6" y2="66.7"></line><path class="st2" d="M61,65.2c1.5,0.9,6.3,5.6,7.4,7c1.1,1.4,6.9,7.7,8.8,13.6c1.9,5.9,2.5,11.8,2.5,11.8"></path><path class="st2" d="M77.9,72.2c0,0,2.2,6.1,2.7,7.2c0.5,1.2,0.4,8.1,0.4,8.5c0,0.4-0.9,7.9-0.9,7.9"></path><path class="st2" d="M62.5,65.1c0,0,10.9,0.9,12.9,1.7s8.4,2.6,11.3,6.4c3,3.7,6.2,8.3,6.2,8.3"></path><path class="st0" d="M79.2,72.1c0,0,2.9,7.5,3.2,8.2s0.9,6.9,0.8,9.2c0,2.2-0.6,4.5-0.8,5.9c-0.3,1.4-1.6,5-1.6,4.8"></path><path class="st0" d="M73.7,65c0.7-0.2,5-2.6,9.2-2s9.5,1,11.6,1.9s3.9,3,3.9,3"></path><path class="st1" d="M74.2,65.4c0,0,1.8-1.4,6.5-0.8s11.2,2,13.3,4.5c2.1,2.5,5.5,9,5.5,9"></path><path class="st0" d="M59.2,65.6c1.1-0.1,13.2-3.6,15.5-3.4c2.3,0.2,12,2.9,16.8,6.7"></path><path class="st2" d="M71.1,51.5c0,0,4.2,2.6,12.1,2.4c7.9-0.2,17.3,1.4,18.9,1.4"></path><path class="st3" d="M74.6,50.8c0.1,0,15.1,4.4,17.2,5c2.1,0.6,12.8,6.9,14.4,7.5c1.6,0.6,2.6,1,2.6,1"></path><path class="st0" d="M74.9,50.3c1-0.1,7.6-1,10.5,0c2.9,1,6.9,2.3,7.1,2.5c0.3,0.2,7.4,8.4,7.8,8.6"></path><path class="st2" d="M70.2,52.2c0,0,3.9,3.7,4.7,4.1c0.9,0.4,4.3,2.4,4.3,2.4"></path><path class="st1" d="M53.1,59.9c-0.7-0.3-15.3-9.5-17.5-10.4c-2.2-0.9-4.4-0.8-6.2-0.2c-1.8,0.6-10.2,1.6-12,3.9"></path><path class="st0" d="M44.5,53.8c0,0-3-4-6.1-4.7c-3-0.8-11.2-1.9-13.5-1.5c-2.4,0.4-8.7,2.2-9.7,3.9c-1,1.8-3.9,6-3.9,6.7
	c0,0.7-1.6,5.4-1.7,5.7"></path><path class="st2" d="M45.1,60c0,0-13.3-2.4-16.4-2c-3.1,0.4-9.9,2.2-11,2.8c-1.1,0.7-6.2,4.3-6.4,4.6c-0.2,0.4-2.3,1.7-2.3,1.7"></path><path class="st2" d="M30.7,21.3c-0.5-1-5.9-7.1-6.3-7.7"></path><path class="st0" d="M35.2,20.7c-0.1-0.1-6.6-13.1-6.6-13.5c0-0.3-0.8-2.6-0.8-2.6"></path><line class="st2" x1="46.9" y1="6.8" x2="47.3" y2="15.7"></line><path class="st2" d="M37.3,5.9c-0.3,1.1-0.9,1.7-0.6,3s1.7,6.8,1.7,6.8"></path><line class="st0" x1="69.7" y1="8.2" x2="63.1" y2="21.4"></line><line class="st2" x1="78.3" y1="9.9" x2="74.6" y2="18.9"></line><line class="st1" x1="92.9" y1="17.9" x2="77.3" y2="31.6"></line><path class="st2" d="M98.1,23.1C97,23.5,82.9,31.9,82.7,32"></path><path class="st0" d="M69.9,50.9c2.7-1.9,15.4-13,15.9-13.5c0.5-0.6,4.6-3.9,5.2-4.4c0.6-0.5,6-4.3,6-4.3"></path><path class="st2" d="M101.8,32.3c-1.7,1.3-11.3,7-11.5,7.2c-0.2,0.2-10.7,7.6-12,8s-6.7,2.7-6.7,2.7"></path><line class="st0" x1="74.9" y1="37" x2="55.2" y2="49.3"></line><g>
	<path class="st4" d="M57.2,30.3c-1.8,21.2-4,42.5-4.1,63.8c0,0-2.8,0-2.8,0c0.1-10.8,1.2-21.4,2.1-32.1c1-10.6,2.1-21.3,3.3-31.9
		L57.2,30.3L57.2,30.3z"></path>
</g><path class="st5" d="M26,35.3c0,0,0.5,4.3,1.2,4.9c0.6,0.6,1.8,3.6,2.1,3.8c0.3,0.2,1.5,2.4,2.5,2c1-0.4,2.4,0.7,2.5,0.8
	c0.1,0.1,1.4,1.4,1.6,1.5c0.2,0.2,1.1,2.1,1.6,2.2c0.6,0.1,1.3-0.2,0.5-1.5s-3.2-4.9-3.1-5.3s-6.6-8.4-6.6-8.6S26,35.3,26,35.3z"></path><path class="st6" d="M36.4,47.7c0,0-1.2-3.9,0.5-5.3s4.8-7.4,4.8-8c0-0.6,2-2.7,1.3-3.7s-1.9-2-2.5-1.4s-2.8,2.9-3.2,3.5
	c-0.3,0.6-1.4,2.6-1.7,3.3c-0.2,0.7-1.3,7.1-1.2,7.6c0.2,0.5,1.1,3,1,3.1c-0.1,0.2,3.3,6.5,4.1,7.1c0.7,0.5,0.8,0,0.8,0
	C40.4,53.7,37.2,50.3,36.4,47.7z"></path><path class="st5" d="M33.7,29.3c-0.6,0.3-1.9,2.9-1.8,3.4s3.4,9.8,3.5,9.9c0.1,0.1,3.6,4.7,4.5,5.7s1.7,2.6,1.7,2.6l0.9,1.5l0.4-0.7
	c0,0-2.4-5.2-2.4-6.2c0-1.1-2.1-7.2-2-7.4c0-0.2-0.6-5.1-1.4-6.1C36.4,31.2,33.7,29.3,33.7,29.3z"></path><path class="st6" d="M40.4,12.6c0.2-0.2-0.5-1.7,0.4-1.8c0.9-0.1,2,0.5,2.5,1.1c0.5,0.6,2.3,4.5,2.5,5c0.2,0.5,0.7,3.9,0.7,4.7
	c0,0.8-0.9,2.4-1.3,2.8c-0.4,0.4-2.2,0.7-2.2,0.5S42,18.8,42,18.2C42,17.6,40.4,12.6,40.4,12.6z"></path><path class="st7" d="M73.1,31.2c0,0,2.8-3.5,2.9-3.9s4.7-7.6,4.9-7.7c0.3-0.2,0.7-1.1,1.2-0.6c0.5,0.5,1.9,3.6,1.7,4.4
	c-0.2,0.8-3,6.3-3.5,7.1c-0.5,0.8-1.8,1.7-2.2,1.9c-0.4,0.2-2.8,1.6-2.8,1.6s-0.7,0.4-1,0C74.1,33.7,73.1,31.2,73.1,31.2z"></path><path class="st6" d="M67.3,65.8c0,0,2.9-6.2,3.6-7.2s4.2-8.2,4.2-8.2l2.7-3.5l4-2.9c0,0,3.5,0.7,4.1,1.3c0.7,0.6,5,2.9,4.5,3.7
	c-0.5,0.8-1.3,1.5-2.1,1.3c-0.8-0.2-5.5-1.8-6.2-2.1c-0.6-0.3-1.8-0.5-2.5-0.4s-1.6,0.1-1.8,0.6s0.6,0.2,1.3,0.2c0.6,0,1,0,0.8,0.9
	c-0.2,0.9,0.2,1.1,0.9,0.7c0.8-0.3,1.3-0.5,2.5-0.3s2.8,0.3,3.4,0.5c0.6,0.2,1.2,1.1,1.2,1.1s-2.3,2.4-2.9,3
	c-0.5,0.5-2.1,1.3-2.6,1.3c-0.5,0-2.6,0-3.3,0.1c-0.7,0.1-3.1,0.1-3.7,0.9c-0.6,0.8-4,4.8-4.4,5.3c-0.3,0.5-2.3,3.3-2.3,3.3
	l-0.7,0.7L67.3,65.8z"></path><path class="st6" d="M19.5,52.6c0,0,1.8,3,2.5,3.4s1.4,0.3-1.2,0.5S17,58.2,17,58.2c0.1,0-1.4,3.5,1.1,3.6
	c2.5,0.1,10.1,0.1,10.6-0.1c0.5-0.2,1.7-0.9,1.6-1.3c0-0.4-1.2-1.9-1.3-2.1c-0.1-0.2-1.2-2.2-1.3-2.5c-0.1-0.3-2.2-2.5-2.9-2.8
	s-2.4-0.4-3.4-0.7C20.5,51.9,19.5,52.6,19.5,52.6z"></path><path class="st8" d="M26.3,53.4c-1.1-1-3.7-2.6-6-3.7c-0.7-0.3-1.3-0.5-1.6-0.6c-1.3-0.4-2.3-1.1-3.1-1.1s-1.5-0.5-1.7,0.1
	c-0.2,0.6-0.4,0.8,0.1,1.2c0.4,0.5,1.2,1.6,2.7,2.2c1.5,0.6,3,1.8,3.6,2c0.6,0.2,1.9,1.3,2.7,1.4c0.7,0.1,2.3,1,3,1.2
	c0.7,0.2,1.9,1.1,2.7,1.6c0.7,0.4,1.8,0.7,1.5,1.1c0.3,0.1,0.6,0.2,0.6,0.2c0.2,0.2,2.7-0.1,2.7-0.1S28.1,55.1,26.3,53.4z"></path><path class="st5" d="M29.2,57.9c-0.8-0.5-2-1.4-2.7-1.6c-0.7-0.2-2.3-1.1-3-1.2c-0.7-0.1-2.1-1.2-2.7-1.4c-0.6-0.2-2.1-1.4-3.6-2
	c-1.5-0.6-2.3-1.8-2.7-2.2c-0.4-0.5-0.2-0.6-0.1-1.2c0.2-0.6,1,0,1.7-0.1s1.8,0.7,3.1,1.1c0.3,0.1,0.9,0.3,1.6,0.6
	c-1.4-0.8-2.7-1.4-3.1-1.6c-1.2-0.5-2.6-0.5-3-0.5c-0.4,0-1-0.1-1,0.6c0,0.7,0,1.5,1.1,2.3s7.3,4.8,8.4,5.4c1.1,0.5,4.1,1.9,4.6,2.1
	c0.4,0.1,2,0.6,2.9,1C31.1,58.6,29.9,58.3,29.2,57.9z"></path><path class="st8" d="M18.3,57c-0.7-0.1-1.4-0.2-2-0.2c-2,0.5-5,1.2-5.3,1.4c-0.5,0.3-0.8,0.9-0.7,1.3c0.1,0.4,0.8,1.1,1.1,1.8
	c0.3,0.7,0.2,1.8,0.8,1.9c1.2,0.1,3.4,0.3,3.8,0.2c0.4-0.1,4.8-0.5,4.8-0.5l3.4-3.4C24.2,59.5,19.8,57.2,18.3,57z"></path><path class="st5" d="M12.4,61.3c-0.3-0.7-1-1.4-1.1-1.8c-0.1-0.4,0.2-1,0.7-1.3c0.3-0.2,3.3-0.9,5.3-1.4c-0.9-0.1-1.7-0.1-2.4,0.1
	c-1.1,0.3-4.1,0.7-4.3,1.1c-0.2,0.4-1.1,0.9,0.1,2.1s1.3,2.9,2.5,3C12.6,63.1,12.7,62,12.4,61.3z"></path><path class="st6" d="M32,50.3c-0.4-0.4-6.2-3-8.3-5.2s-6.4-5.4-7.9-5.7s-2,0-3,0.7c-1,0.7-1.4,0.3-1.2,1.2c0.2,0.9,0.7,3.2,2.9,4.3
	s9.8,3.3,11.2,3.7c1.4,0.4,4.6,1.2,4.6,1.2l1.9,0.8L32,50.3z"></path><path class="st5" d="M44.3,66c0-0.3-0.9-6.7-0.9-7.1c0-0.3-0.4-0.7-1.2-1.5c-0.8-0.8-1.9-2.9-1.9-3.8c0.1-0.9,1.1-10.3,2-11.1
	c0.9-0.7,1.7-0.6,2.2-0.5c0.5,0.1,1.2,0.1,1.3,0.8c0,0.7,0,7.8-0.5,9.9c-0.5,2.1-0.8,4.5-0.9,4.9s-0.3,1.4-0.3,2.1s0.9,6.1,0.9,6.1
	L44.3,66z"></path><path class="st5" d="M45.5,63.2c0,0-6.5-1.8-8.1-1.8c-1.6,0-2.4-0.1-2.4-0.1s-1.7-2.1-3.8-2.4s-8.5-0.6-10.3-0.4
	c-1.8,0.1-6.7,1.5-7.1,1.8c-0.4,0.3-0.6,0.2-0.5,1.5c0.2,1.3,1.3,2.8,3.3,3.1s6.7-0.6,7.7-0.9c1-0.3,7.9-1.6,8.6-1.8
	s6.8,0.1,11.5,1.3S45.5,63.2,45.5,63.2z"></path><path class="st5" d="M46.5,69.3c-1,0-3.3-1.4-5.1-1.6s-7.1-2.7-8.4-3.2c-1.4-0.6-2.4-1.8-3.7-2.8c-1.3-1-0.8-1.1-0.6-1.2
	c0.2-0.1,1.5-0.1,2.8-0.1c0.8,0,4.8,0.9,7.6,1.5c-2.5-1.2-4.8-1.5-6.3-1.7c-1.9-0.2-2.9-0.4-3.9-0.5c-1-0.1-2.3-0.6-2.3,0.1
	c0,0.7,4,4,5.4,4.7c1.4,0.7,5.5,2.6,7.1,3.2c1.6,0.6,5.4,1.6,6.7,2c0.8,0.3,1.7,0.7,2.3,1.1C47.6,70.1,47.1,69.3,46.5,69.3z"></path><path class="st5" d="M47.8,70.3c0.5,0.6,2.2,1.8,3.9,4.9c1.7,3.2,2.1,4.1,2.1,4.1l0.4-0.9c0-0.2-2.3-5.3-3.9-6.9
	c-1.6-1.6-3.7-3.2-4.1-3.6c-0.3-0.5-3.5-4.5-6.7-6.5c-0.6-0.4-1.2-0.7-1.8-1C35,59.9,31,59,30.2,59c-1.2,0-2.6,0.1-2.8,0.1
	c-0.2,0.1-0.7,0.2,0.6,1.2c1.3,1,2.3,2.2,3.7,2.8c1.4,0.6,6.6,3,8.4,3.2c1.8,0.2,4.2,1.6,5.1,1.6c0.6,0,1.2,0.8,1.5,1.6
	C47.3,69.8,47.6,70,47.8,70.3z"></path><path class="st9" d="M40,57.4c-0.1-0.4-0.6-1.7-1.3-3.2c-0.4,0.2-3.3-5.6-3.5-5.9c-0.2-0.3-3.8-4.7-4.2-4.8
	c-0.4-0.2-1.2-0.6-1.5-0.9c-0.3-0.3-0.2-0.5-1.1,0.4c-0.9,0.9-0.8,3.1-0.9,3.5c-0.1,0.3,0.5,1.7,0.7,2.9c1.8,1.9,8.4,7,8.8,7.3
	c0.5,0.3,2.4,1.3,2.5,1.8s4,6.2,4.2,6.5c0.2,0.3,1,1.3,1,1.3l0.8,0C45.6,66.1,40.3,58.8,40,57.4z"></path><path class="st5" d="M28.4,47.8c0.1-0.4,0-2.6,0.9-3.5c0.9-0.9,0.8-0.7,1.1-0.4s1.1,0.7,1.5,0.9c0.4,0.2,4,4.5,4.2,4.8
	c0.2,0.3,3,6.2,3.5,5.9c-1.5-3.2-3.8-7.8-5.2-9.4c-2-2.4-3.4-2.5-4.2-2.9c-0.8-0.3-0.9-0.2-1.6,1c-0.7,1.2-0.9,4.4,0.3,5.9
	c0.1,0.1,0.2,0.2,0.3,0.4C28.9,49.6,28.3,48.1,28.4,47.8z"></path><path class="st5" d="M54.7,76.2c-1.4-0.8-3.4-1.7-5.2-1.6c-1.8,0-3.3-0.2-3.7-0.2c-0.4,0-0.7-0.4-1.9-0.6c-1.2-0.2-4.1-0.3-4.8-0.2
	c-0.6,0.1-4.8,0.7-6.4,1.5c-1.6,0.7-4.4,1.9-5.9,3c-0.7,0.5-1.4,1-1.9,1.4c-0.3,0.3,0,0.8-0.1,1.1c0,0.3-0.1,0.5,0,0.8
	s0.5,0.6,1,0.6s1.4-0.3,2-0.9c0.7-0.6,1.2-0.7,2.2-1.4c1-0.7,6-3.6,8.1-4.2s3.9-1.1,6.1-1.2c1.1,0,1.7,0.4,1.9,0.9
	c0.8,0,1.8,0,2.2,0c0.7,0,1.3,0,3.8,0.5c2.5,0.5,3.1,2,3.1,2L54.7,76.2z"></path><path class="st8" d="M44.5,74c-2.2,0.1-4.1,0.6-6.1,1.2s-7.1,3.5-8.1,4.2c-1,0.7-1.6,0.9-2.2,1.4c-0.7,0.6-1.5,0.9-2,0.9
	s-0.9-0.3-1-0.6c-0.1-0.3-0.1-0.5,0-0.8c0-0.3-0.2-0.8,0.1-1.1c-0.5,0.5-0.8,1-0.7,1.6c0.1,1.1,0.4,1.3,0.7,1.3S27,82,27.7,82
	c0.7,0,0.7-0.1,4.2-1c3.5-0.9,10.2-4.8,10.7-5.1s2.1-0.8,2.6-0.9c0.2,0,0.6-0.1,1.2-0.1C46.1,74.4,45.6,74,44.5,74z"></path><path class="st7" d="M35.8,65c0,0,0.2,4.4-0.1,5.6c-0.4,1.1-1.4,3.3-1.9,3.6c-0.5,0.3-0.4,1.2-1.3,0.3c-0.9-1-2-3.1-2.3-4.3
	s-0.1-4.3,0-4.7c0.1-0.4,0.4-0.8,0.8-0.9c0.4-0.2,1.2,0.1,1.8-0.1c0.6-0.1,0.4-0.1,1-0.1C34.3,64.3,35.8,65,35.8,65z"></path><path class="st8" d="M32.9,59.3c-0.1-0.5,1-2.4,0.2-3.5c-0.1-0.2-0.3-0.4-0.4-0.5c-0.7-0.2-1.5-0.4-2.5-0.3
	c-1.4,0.2-2.7,1.2-3.6,1.2s-1.4,0.2-1.4,0.2s-0.1,0-0.1,0.1c0.7-0.1,1.3,0,1.7,0.4c0.6,0.6,2.2,2,2.5,2s2.3,0.5,2.3,0.5l3.3,2.7
	l1.6,0.6C36.4,62.7,33,59.8,32.9,59.3z"></path><path class="st5" d="M27.2,57.2c1,0,2.2-1,3.6-1.2c1-0.1,1.8,0.1,2.5,0.3c-0.8-0.9-1.7-1.6-3.1-2.2c-1.7-0.8-3.2-0.2-4.3,0.2
	c-1.1,0.4-2.4,0.9-2.2,1.8c0.2,0.9-0.1,1.8,1,1.6c0.3-0.1,0.6-0.1,0.9-0.2c0.1,0,0.1-0.1,0.1-0.1S26.3,57.2,27.2,57.2z"></path><path class="st5" d="M70.7,77.6c0,0.1-0.1,0.1-0.2,0.2C70.6,77.7,70.7,77.6,70.7,77.6z"></path><path class="st8" d="M73.5,78.1c0.1-0.1,0.1-0.2,0.2-0.2c0.2-0.4-0.4-0.8-0.4-1.4c0-0.8-0.4-0.9-0.6-1.4c-0.2-0.4-2.1,0.1-2.6,0.1
	s-1.6,0.2-2.5,0.1s-2.6-0.5-4.2-0.7c-1.6-0.1-2.4,0.3-5.8-0.3c-1.1-0.2-1.8-0.4-2.3-0.6c-0.3,0.1-0.5,0.1-0.8,0.2
	c-1.9,0.4-5.1,1.9-5.4,2.1l-0.2,0.8c0,0,0.8-0.6,1.1-0.7c0.3-0.1,2.3-1.1,3.5-1.4c1.2-0.3,1,0,2,0c1,0,1.4,0.3,2,0.7
	c0.7,0.4,4,2,5.4,2.8c1.4,0.8,5.7,1.6,7.2,1.5c0.5,0,1-0.2,1.5-0.3C72,79,73.2,78.4,73.5,78.1z"></path><path class="st5" d="M69.9,79.6c0.9-0.4,1.5-0.9,1.9-1.4C71.4,78.6,70.2,79.2,69.9,79.6z"></path><path class="st5" d="M62.6,74.9c1.6,0.1,3.3,0.6,4.2,0.7s2-0.1,2.5-0.1s2.4-0.5,2.6-0.1c0.2,0.4,0.6,0.6,0.6,1.4
	c0,0.7,0.6,1,0.4,1.4c0.4-0.5,0.3-0.9,0.3-1.2c0-0.3-1-1.7-1.7-2.3c-0.7-0.6-7.8-1.7-10.3-1.6c-2.2,0.1-4.8,0.5-6.7,0.9
	c0.5,0.2,1.2,0.4,2.3,0.6C60.2,75.1,61,74.7,62.6,74.9z"></path><path class="st7" d="M50,63.2c-1.5-1.2-2.7-2.3-3.2-3c-0.2-0.3-0.7-0.7-1.2-1c-0.8-0.2-1.2-0.1-1.4,0.7c-0.4,1.3,0.2,1.4,0.1,1.9
	c-0.1,0.6-0.6,1.3-0.6,1.3s-1.4-0.2-1.1,0.5c0.4,0.8,3.5,3,4.4,2.9c0.9,0,1.4,0.3,2.9-0.1c1.5-0.4,1.9-0.6,2.3-1.1
	C51.4,65.3,51.5,64.4,50,63.2z"></path><path class="st5" d="M50.8,63.5c0,0-1.7-3-3.6-3.6c-0.8-0.2-1.4-0.5-1.9-0.6c0.5,0.3,1,0.7,1.2,1c0.5,0.8,1.7,1.8,3.2,3
	c1.5,1.2,1.3,2.1,2.1,2.2C52.1,65,50.8,63.5,50.8,63.5z"></path><path class="st8" d="M54.5,61.4c-1.8,1-4,3.4-4,3.4s-1.9-0.2-2.7,0.5c-0.2,0.4-0.3,0.8-0.3,1.1c0,1.6,1.7,2.7,1.7,2.7s2.8,0.1,4-0.2
	c1.2-0.3,0.8-0.7,1.9-1.8c1.1-1.1,1.7-2.8,2.4-4.1c0.6-1.3-0.3-2.2-0.9-2.9C56.1,60.5,55.3,60.9,54.5,61.4z"></path><path class="st5" d="M50.6,65.4c0,0,2.3-2.4,4-3.4c0.8-0.5,1.6-0.9,2.1-1.3c0,0,0,0,0-0.1c-0.6-0.7-1.1-0.5-3.5,0.2
	c-2,0.5-4.5,3.3-5.3,5.1C48.6,65.1,50.6,65.4,50.6,65.4z"></path><path class="st7" d="M58,67.4c-0.2-0.1-1.8-0.5-1.7-0.7c0.1-0.1,0.1-0.9-0.7-1.5c-0.7-0.1-1.5,0-2.6,0.1c-3,0.5-4.7,1.5-5,2.5
	s-0.2,2,0.1,3c0.4,0.9,0.9,2.1,1.6,2.4c0.1,0,0.3,0.2,0.6,0.3c0.3-0.1,0.6-0.2,1-0.4c1.8-0.9,3.3-2.5,4.1-3.2
	c0.8-0.7,0.9-1.2,1.3-1.6c0.4-0.3-0.5-0.6,0.7-0.5c1.3,0.1,2.3,0.5,2.5,0.3c0.2-0.2,1.3,0.2,1.3,0.2l0-0.7
	C60.3,67.5,58.2,67.5,58,67.4z"></path><path class="st5" d="M48.8,70.8c-0.4-0.9-0.5-2-0.1-3c0.3-1,2-2,5-2.5c1.2-0.2,2-0.2,2.6-0.1c-0.2-0.1-0.3-0.2-0.5-0.3
	c-1.4-0.4-2.5-0.7-3.6-0.3c-1.1,0.4-4.9,3.1-4.7,4.3s0.5,3.8,1.2,4.2c0.5,0.3,1.2,0.6,2.3,0.2c-0.3-0.2-0.5-0.3-0.6-0.3
	C49.7,72.9,49.2,71.8,48.8,70.8z"></path><path class="st5" d="M57,59.9c-0.2-0.1-1.2-1.7-1.9-2.3c-0.6-0.7-0.5-3.5-0.6-4.5s0.2-1.7,0.7-2.4s1.2-0.3,1.7-0.7
	c-0.8-0.7-1-0.6-2.1-0.2s-0.5,1.1-1.1,2.6c-0.6,1.5,0.4,5.2,1.2,6.4c0.7,1.3,2.9,4.3,2.9,4.3l1.6,8.3l0.7,0.3c0,0-1.5-7.5-1.5-8
	c0-0.2,0.1-0.4,0.2-0.6c-0.4-0.7-0.7-1.6-0.8-1.8C57.9,61,57.1,60.1,57,59.9z"></path><path class="st8" d="M60.3,60c0.2-1.4-1.3-5.5-1.7-6.5c-0.4-1-1.1-1.7-1.9-2.4c-0.5,0.4-1.3,0-1.7,0.7c-0.4,0.7-0.8,1.4-0.7,2.4
	s0,3.8,0.6,4.5c0.6,0.7,1.7,2.2,1.9,2.3c0.2,0.1,0.9,1.1,1,1.4c0.1,0.2,0.4,1.1,0.8,1.8c0.1-0.3,0.4-0.7,0.5-1
	C59.3,62.5,60.1,61.4,60.3,60z"></path><path class="st7" d="M71.6,53.3c-0.2-1-0.1-2.6-0.2-3.4c-0.1-0.8-0.5-0.6-1.9-1.2c-1.4-0.5-1.8-0.1-2.2,0.1
	c-0.3,0.1-1.5,1.1-2.6,1.9c-0.6,0.8-1.2,1.7-1.6,2.5c-1,2.1,0.4,8.4,0.4,8.6c0,0.2-5.1,8.9-5.1,8.9l0.5,0c0,0,4.9-7.6,5.1-7.7
	c0.2-0.2,3.3-1.9,4.2-2.6c0.6-0.5,1.8-2,2.8-3.3C72.3,53.9,71.8,54.3,71.6,53.3z"></path><path class="st5" d="M71.2,51.6c-0.2-0.7-0.9-1.6-1.3-2.1c-0.4-0.5-2.1-0.4-3.2,0.1c-0.7,0.3-1.8,1.5-2.8,2.8
	c1.1-0.8,2.4-1.7,2.6-1.9c0.4-0.2,0.8-0.6,2.2-0.1c1.4,0.5,1.8,0.4,1.9,1.2c0.1,0.8-0.1,2.4,0.2,3.4c0.2,1,0.7,0.6-0.6,3.8
	c0.5-0.7,0.9-1.4,1-1.7C71.5,56.1,71.4,52.3,71.2,51.6z"></path><path class="st5" d="M80.7,57.5c0-0.3,1.1-1.4,1.7-2c0.7-0.6,2.6-1.1,3.9-1.7c0.2-0.1,0.5-0.2,0.7-0.4c0.5-0.9,1.3-1,1.8-1.6
	c0.6-0.7,0.2-0.8-0.1-1.2c-0.2-0.5-1-0.1-1.6,0.3s-5.1,2.8-6.3,3.9s-4.7,7-5.1,7.4l3.7-1.3c0,0,0.5-0.2,1.1-0.4
	c0-0.2-0.1-0.4-0.1-0.5C80.4,59.4,80.6,57.8,80.7,57.5z"></path><path class="st8" d="M84.7,56.4c1.3-1.3,1.2-1.3,1.7-2.6c0.1-0.2,0.2-0.3,0.2-0.5c-0.3,0.1-0.5,0.3-0.7,0.4
	c-1.2,0.6-3.2,1.1-3.9,1.7c-0.7,0.6-1.7,1.7-1.7,2c0,0.3-0.3,1.9-0.3,2.4c0,0.1,0,0.3,0.1,0.5c0.9-0.3,1.9-0.8,2.1-0.9
	C82.5,59.3,83.4,57.7,84.7,56.4z"></path><path class="st6" d="M76.2,62.1c0,0,0.8-2.6,2.1-3.2s4.9-2.4,5.5-2.3c0.6,0.1,1.9-0.9,2.1-0.1c0.2,0.8,0.7,1.1,0.1,1.8
	c-0.7,0.7-1,1.7-1.6,2.4c-0.6,0.7-2.4,2-2.4,2s-2.9,0.5-3.3,0.5C78.2,63.3,76.2,62.1,76.2,62.1z"></path><path class="st8" d="M94.4,53.2c0,0-1.1-0.1-1.5-0.1s-1.8,0.3-2.2,0.4c-0.4,0.1-2.6,0.3-3.2,0.5c-0.7,0.2-3.6,5.6-3.8,5.9
	c-0.2,0.2-1.9,3-2.8,4.4c0.2,0.1,0.4,0.3,0.5,0.2c0.3-0.1,0.9,0.2,1.3,0.3c0.4,0.1,1.8-0.2,2.8-0.5c1-0.3,4.5-0.9,5.9-2.1
	c1.4-1.2,2.1-4.8,2.5-5.4c0.3-0.6,1.6-2.7,1.9-3.6C95,52.9,94.4,53.2,94.4,53.2z"></path><path class="st5" d="M94.2,52.7c-1.1-0.1-1.7-0.2-2-0.2c-0.3,0-2.8,0.7-4.1,1s-2.6,2.2-2.7,2.4s-5.1,8-5.1,8s0.3,0.3,0.6,0.5
	c0.9-1.3,2.6-4.1,2.8-4.4c0.3-0.3,3.2-5.7,3.8-5.9c0.7-0.2,2.9-0.4,3.2-0.5c0.4-0.1,1.8-0.5,2.2-0.4c0.4,0,1.5,0.1,1.5,0.1
	s0.6-0.2,1.3-0.2C95.9,52.2,95.3,52.8,94.2,52.7z"></path><path class="st5" d="M69.5,64.5c0.1,0,0.1-0.1,0.3-0.2C69.6,64.4,69.6,64.4,69.5,64.5z"></path><path class="st7" d="M79.7,60.2c-1.6,0.3-4.4,1.4-5.3,1.7s-1.6,0.5-2.6,1.2c-0.9,0.6-2.1,0.7-2.8,1.1c-0.1,0.1-0.2,0.1-0.3,0.2
	c0,0-0.1,0.1-0.2,0.1C66.8,65.3,57,69.7,57,69.7l-0.5,0.1l0,0.5l4.2-1.9c0,0,5.2-2.1,5.9-2.3s3.6,0,4.2,0c0.6,0,5.3-0.4,7.2-0.8
	c1.9-0.4,6.3-1.1,8-2c1.7-0.8,1.7-2.3,1.7-3c-0.2-0.1-0.4-0.1-0.6-0.2C85.6,59.7,81.3,59.8,79.7,60.2z"></path><path class="st5" d="M69.3,64.6c0.1,0,0.1-0.1,0.2-0.1C69.5,64.5,69.4,64.5,69.3,64.6z"></path><path class="st5" d="M83.4,60c-1.1-0.1-7.1,0.7-8.5,1.1c-1.3,0.4-6.1,3.1-7.5,3.9c0.7-0.3,1.9-0.4,2.8-1.1c1.1-0.7,1.8-0.9,2.6-1.2
	c0.9-0.4,3.8-1.4,5.3-1.7c1.6-0.3,5.9-0.4,7.5-0.1c0.2,0,0.4,0.1,0.6,0.2c0,0,0,0,0,0C86.3,60.4,84.4,60.1,83.4,60z"></path><path class="st8" d="M79.3,69.2c-2.2,0.5-6.3,1.9-7.4,2.5c-1.1,0.7-1.2,1.6-2.3,1.7c-0.3,0-0.6,0-0.9-0.1c-0.2,0.1-0.3,0.2-0.3,0.2
	s-1.6,0.9-2.5,1.6l-0.8,0.3l0.8,0.2c0,0,1.2-0.5,1.6-0.6c0.4-0.1,1.2-0.5,2.1-0.6s2.3,0,3.8-0.2c1.6-0.2,3.3-0.9,5.1-1.7
	c1.8-0.7,5.2-1.3,7.2-1.6s2-0.4,3-1.3c0.1-0.1,0.2-0.2,0.3-0.3c-0.3,0-0.6-0.1-0.9-0.1C85.7,69,81.4,68.7,79.3,69.2z"></path><path class="st5" d="M87.3,68.6c-0.3-0.4-2.2-0.6-4.7-0.5c-2.5,0.1-3.8,0.2-5.5,0.7c-1.5,0.4-7.7,4.1-9,4.9c0.3,0.1,0.6,0.1,0.9,0.1
	c1.2-0.1,1.3-1,2.3-1.7c1.1-0.7,5.3-2.1,7.4-2.5c2.2-0.5,6.5-0.1,8.7,0c0.3,0,0.6,0,0.9,0.1C88.8,69,87.6,68.9,87.3,68.6z"></path><path class="st7" d="M89.4,32.4c-0.2,0.8-1.8,4.6-2.9,5.6c-1.1,1-3.8,2.3-5,3.6c-1.2,1.3-0.9,1.8-2.8,3.5c-1.7,1.5-0.4,3.4-2.5,2.7
	c-2.2,3.7-5,8.2-5,8.2l0.6,0.5c0,0,3.1-5.2,3.3-5.3c0.2-0.1,4.4-5.2,5.2-5.8c0.7-0.7,7.2-5.2,8-6.5c0.8-1.3,2.9-5.9,3-6.7
	c0-0.5-0.1-0.8-0.3-1C90.1,31.5,89.4,32,89.4,32.4z"></path><path class="st5" d="M87.1,33.4c-0.2,0.2-7.9,10.1-8.6,10.9c-0.3,0.3-1.4,2.2-2.8,4.5c2,0.7,0.8-1.1,2.5-2.7
	c1.9-1.7,1.6-2.2,2.8-3.5c1.2-1.3,3.9-2.7,5-3.6c1.1-1,2.7-4.8,2.9-5.6c0.1-0.4,0.8-0.8,1.6-1.2c-0.1-0.2-0.3-0.3-0.3-0.5
	C89.9,31.2,87.3,33.3,87.1,33.4z"></path><path class="st8" d="M73.8,29c-1,0.9-1.4,1-1.6,2.1c-0.2,1.1-0.7,1.8-0.9,2.5c-0.2,0.6-0.7,0.2-0.9,1.9c-0.2,1.5-0.3,2.9-0.2,3.5
	c0.1,1.3,0.5,5.6,0.3,6.9c-0.2,1.2-1.7,7.9-1.7,7.9l-0.3,0.5l0.9,0.7l0.6-2.5l1.5-5.3c0,0,0.6-0.8,0.9-1.2c0.3-0.4,1.6-1.3,2.6-2.5
	s3-9.1,3.2-9.6c0.2-0.5,0.4-2.7,0.4-2.7s-0.2-3.4-0.6-3.9c0,0,0,0-0.1-0.1c-0.4,0.1-0.9,0.2-1.3,0.4C75.4,28.1,74.8,28.1,73.8,29z"></path><path class="st5" d="M75.9,29c-1.1,0.2-1.5,0.7-2.5,1.5c-1,0.8-1.6,1.7-2.2,2.6c-0.3,0.5-0.7,2.8-0.9,4.9c0.2-1.7,0.6-1.3,0.9-1.9
	c0.2-0.6,0.7-1.4,0.9-2.5c0.2-1.1,0.6-1.1,1.6-2.1c1-0.9,1.6-1,2.6-1.4c0.4-0.2,0.9-0.3,1.3-0.4C77.2,29.1,76.9,28.8,75.9,29z"></path><path class="st7" d="M82.8,29.9c-1.6,0.5-2.6,1.5-3.5,1.9c-0.9,0.4-1.3,1-1.7,1.7c-0.9,1.6-1.7,3.2-2.1,4.1
	c-0.8,1.8-1.4,7.7-1.6,8.2s-1,2.7-1,2.7l-4.4,8.8l0.4,0.9c0,0,4.1-7.9,4.4-8.3c0.3-0.4,1.5-2.7,2-3.2c0.6-0.4,6.1-4.9,7.8-8.6
	c1.7-3.7,1.4-6.5,1.1-7.4c-0.1-0.3,0-0.6,0.1-0.8C84,29.8,83.4,29.7,82.8,29.9z"></path><path class="st5" d="M82.4,32.4c-2-0.1-2.4-0.5-3.4,0.5c-0.5,0.5-1.5,2.1-2.4,3.7c0.4-0.7,0.8-1.3,1.7-1.7c0.9-0.4,1.9-1.4,3.5-1.9
	c0.6-0.2,1.1-0.1,1.6,0.1C83.5,32.7,83.7,32.5,82.4,32.4z"></path><path class="st5" d="M52.5,27.9c0.1-0.3-0.9-11.8-0.6-12.4s-1.4-7.7-1.6-7.9c-0.2-0.2-0.8,1.5-0.9,2c0,0.5-0.1,9.9,0,10.6
	c0.1,0.7,1.1,2.9,1.2,3.7c0.1,0.8,0.1,2.6,0.4,3.1C51.5,27.4,52.5,27.9,52.5,27.9z"></path><path class="st6" d="M58.3,28.3c0,0,0.2-6.1,0.4-7.4c0.3-1.3,0.5-11.7,0.8-12.3c0.3-0.6,0.7-1.1,0.7-1.1s1.1,0.4,1.2,1.3
	s0,8,0.1,8.3c0,0.3-0.2,5.9-0.3,6.9s-0.1,1.2-0.6,2.2S58.3,28.3,58.3,28.3z"></path><path class="st7" d="M62.8,24.6c0.2-0.4,1.2-11.5,1-11.8s-0.8-1.1-1.2-0.4c-0.4,0.7-3.3,13.2-3,13.5s0.5,2.7,0.6,3
	c0,0.3,0.6,0.7,0.8,0.5S62.8,24.6,62.8,24.6z"></path><path class="st8" d="M72.6,17.5c-0.1-0.3-1.1-3.2-1.4-3.3c-0.3,0-1.1,0.7-1.6,1.7s-2,6.9-2,9.1c0,2.2,0.6,4.2,0.6,4.2l2.4-3.3
	c0,0,2-3.5,1.9-4.1C72.5,21.3,72.6,17.5,72.6,17.5z"></path><path class="st5" d="M73.5,16.5c0,0,2.3,3.8,2.3,4.5c0,0.6-0.7,5.1-1.2,6.1c-0.4,1-0.9,1.4-1,1.2c-0.1-0.2-1.7-3.9-1.7-4.2
	c0.1-0.3,0.3-5.3,0.4-5.5S73.5,16.5,73.5,16.5z"></path><path class="st5" d="M74.4,14.1c0.4-0.2,1.2,0,0.8,1s-2.6,5.8-2.9,6.3c-0.3,0.5-1.5,6.6-1.9,6.8c-0.3,0.2-1.6,1-1.6,1l-0.7-2.7
	c0,0,1.6-6.4,2.1-7.2C70.7,18.4,73.4,14.7,74.4,14.1z"></path><path class="st5" d="M75.3,30.6c0,0-0.6-5.7-0.8-6.8s-0.8-3.4-1.3-4s-0.3-1.9-0.8-0.9c-0.5,1-1.3,3.8-1.4,4.3s0,7.8,0,8.3s1,3,1,3
	L75.3,30.6z"></path><path class="st5" d="M60.6,40.9c0.2-0.2,5-4.6,5-5.2c0-0.6,1.1-4.5,1.1-4.5s1.9-4.6,2.2-5.7c0.3-1.1,1.9-3.7,2.5-4
	c0.6-0.3,1.9-0.7,1.7-0.1c-0.2,0.6-2.6,8-3.2,9.4c-0.6,1.4-3.2,5.5-3.5,5.8s-1.6,1-2.8,2.3c-1.2,1.3-2.6,2.7-3,2.8
	c-0.4,0.2-0.8,0.4-0.8,0.4L60.6,40.9z"></path><path class="st7" d="M63.1,29.5c0.2-0.5,3.8-9.5,4.3-9.8c0.6-0.3,0.7-1.3,1.2-0.1s-2.6,10.5-3,11c-0.5,0.5-2.6,2.8-2.7,3
	c-0.1,0.2,0.1,0.9-0.1,0.2C62.6,33.2,63.1,29.5,63.1,29.5z"></path><path class="st7" d="M53.5,29.5c0,0-2.4-5.1-1.4-7.6s1-7.8,1.3-8.3s0.6-1.5,1.2-0.9s2.7,4.3,2.9,4.7s-0.1,3.6,0.1,5.4
	c0.2,1.8-0.7,6.3-0.7,6.4c0,0.1-1.6,2.2-1.7,2.4c-0.1,0.2-0.9,0.3-0.9,0.3L53.5,29.5z"></path><path class="st6" d="M62.7,22.9c0,0,1.7,2.6,2,3s2.3,6.9,2.1,7.2c-0.3,0.3-1.1,3.7-2.5,4.8c-1.4,1.1-3,1.7-3,1.7s-0.1-1.9-0.1-3.1
	c-0.1-1.2-1.3-7.5-1.1-7.8c0.1-0.3,1.2-1.7,1.3-2.1C61.4,26.3,62.7,22.9,62.7,22.9z"></path><path class="st5" d="M59.3,31.7c0.1-0.4,1.8-6.9,2.3-7.6c0.4-0.7,1-2.2,1.4-1.7c0.4,0.5,0.4,1.6,0.4,1.6s-1.8,6.2-1.9,6.5
	c-0.1,0.3-2.1,3-2.1,3L59.3,31.7z"></path><path class="st5" d="M59.6,37c-0.5,0.1-1.5,0.7-0.9-0.8c0.5-1.4,3.9-8.6,4.2-8.7c0.3-0.1,1.1,1.1,1.1,1.1s-1.3,3.4-1.4,3.7
	c0,0.3-1.3,3.8-1.4,4C61.2,36.6,59.6,37,59.6,37z"></path><path class="st5" d="M60,42.7c0-0.7,0.4-4.1,0.5-4.4c0.1-0.3,2.5-10.3,2.9-11c0.4-0.7,1.1-2,1.6-1.6c0.5,0.5,0.7,0.2,0.6,1.9
	c-0.1,1.8-1.9,10.1-2.4,10.6c-0.5,0.5-0.9,3.5-1,3.9c-0.1,0.5-1,1-1,1s-2.4,3.5-2.6,3.6c-0.2,0.1-3.8,3.5-3.8,3.5s-1.3,1.1-1.2,0.9
	c0.1-0.2-0.1-1.4-0.1-1.4s4.5-4,5.2-4.7c0.7-0.7,1.3-2,1.3-2"></path><path class="st7" d="M52.6,30.5c0-0.3-1.2-7.3-0.1-7.4c1.1-0.1,1.5,1,1.4,1.7c-0.1,0.7,0.3,6.2,0.3,6.2L52.6,30.5z"></path><path class="st8" d="M53.4,30.8c0,0-0.7-3.9-1.2-4.2s-1.5-0.6-1.4,0.1c0.1,0.6,0.4,3.4,0.5,3.4c0.1,0,1,1.4,1,1.4l1.1-0.1"></path><path class="st6" d="M56.6,29.7c0,0,1.8-6.9,1.8-7.6s-0.4-3.3-0.7-3.7c-0.3-0.4-1-0.3-1.3,0.4c-0.3,0.8-1.2,6.2-1.2,6.4
	c0,0.2-0.1,2.5,0.1,2.7c0.2,0.3,0.3,1.8,0.3,1.8L56.6,29.7z"></path><path class="st7" d="M57.9,28.5c0-0.5,0.8-2-0.7-2c-1.4,0.1-2.5,0.6-2.7,0.7c-0.2,0.2-1.1,1.1-1.1,1.9s-0.6,0.3-0.4,1.7
	c0.2,1.4,0.6,2.6,0.9,3.1c0.3,0.5,0.2,0.3,1,0.3c0.7,0,1.5,0.5,2-0.1c0.5-0.6,0.8-1.2,1-1.9S57.9,28.5,57.9,28.5z"></path><path class="st6" d="M55.8,36.8c0.2-0.8-0.5-6.7-1-7.3c-0.5-0.5-1.4-1.8-1.7-1.3c-0.3,0.4-0.8,3.2-0.8,3.5s1.4,2.4,1.6,3.1
	c0.3,0.7,0,2.3,0.7,2.5C55.4,37.6,55.8,36.8,55.8,36.8z"></path><path class="st6" d="M49.3,14.9c-0.1-0.2-0.9-1.4-1.6-0.8c-0.8,0.6-4.4,7.4-4.4,9.9s0.6,5.6,1,6c0.4,0.4,1.7,2.1,2,2.5
	c0.2,0.3,3.6,0.2,3.8,0.1c0.3-0.1,1.1-2,1.1-2S51,28.1,51,28C51.1,28,52.2,21,49.3,14.9z"></path><path class="st5" d="M43.6,32.9c0,0,0.6-3.2-0.2-4.5c-0.8-1.3-3.2-5-3.1-6.7c0.2-1.7,0-7.6-0.4-8.7c-0.5-1.1-1.4-2.9-1-3.2
	c0.4-0.3,0.7-0.5,1.8,0.4s3.2,3.6,3.3,4.8s1.1,5.3,1,5.8c-0.1,0.5-0.3,6.5-0.1,7c0.2,0.5-0.5,4.7-0.6,5.1c0,0.3-0.3,1.6-0.3,1.6
	L43.6,32.9z"></path><path class="st7" d="M47.5,28.6c0,0-2.2-11.8-2.3-12.7C45,15,45,13.6,45.4,13.4c0.4-0.2,0.7-0.6,0.8,0c0.1,0.5,2.5,8.9,2.7,9.6
	c0.1,0.7,0.3,3.9,0.2,4.3c-0.1,0.4-0.4,1.8-0.5,2C48.4,29.4,47.5,28.6,47.5,28.6z"></path><path class="st9" d="M52.7,43.6c0,0-2.9-3.3-2.9-4.2s-0.6-8.2-0.9-8.8s0.1-4.9-1-5.5c-1-0.6-1.4-2.2-2-2.1c-0.5,0-1.3,0.3-1.2,0.8
	c0,0.5,0.7,6.2,1.1,7.2c0.4,1,2.3,6.4,2.3,6.4s1.3,3.6,1.6,3.9s3.3,3.8,3.3,3.8L52.7,43.6z"></path><path class="st5" d="M53.8,46.2c0-0.1-0.5-1.2-0.5-1.2c-0.1-0.4-1.1-3.7-1-4.7S50.8,29,50.2,27.8c-0.6-1.2-2.1-3.8-2.7-4.2
	c-0.6-0.4-1.1-0.9-1.7-0.9c-0.6,0-0.6-0.5-0.5,0.7s2,7.7,1.9,8.2c-0.1,0.5,1.4,7.8,2,8.5c0.5,0.7,2.2,4.4,2,5
	c-0.2,0.6-0.6,0.6-0.5,1.2c0.2,0.6,0.8,2.8,0.7,3.4c-0.1,0.6-0.4,2.2,0.1,2.5c0.5,0.3,1,0.6,1.8,0.4c0.8-0.2,2,0.7,2.2-0.6
	s0.1-2.8-0.5-3.9c-0.2-0.4,2.2-7.1,2.2-7.6s0.9-4.9,0.9-4.9s0.5-0.9,0.7-1c0.2-0.2,2.5-7.5,2.5-8.9c0-1.3-0.1-3.8-0.7-3.8
	c-0.6,0-0.8-0.3-1.3,0.1c-0.5,0.4-2.2,2.7-2,3.2s0.1,7.4-0.2,8.1S57,35.8,57,35.8c0,0-0.3,3.5-0.4,3.8c-0.1,0.3-1.5,4.8-1.6,5.7
	c-0.1,0.9-0.7,2.6-0.7,2.6l1.2,0.8"></path><path class="st5" d="M38.8,14.8c0,0-1.7-2-2.6-2.4s-1.3-1.1-2-0.3c-0.7,0.8-0.8,5.7-0.8,7.2c0,1.5,0.8,6.5,1.7,7.5
	c0.9,1,1.3,2.6,1.9,2.9c0.6,0.3,2,1,2.3,0.7c0.3-0.3,0.2-4.1,0.1-4.5s-0.1-4.7-0.2-6C39,18.7,38.8,14.8,38.8,14.8z"></path><path class="st7" d="M49.8,40.2c-0.2-0.3-4.9-6-5.1-6.5s0.3-1.1-0.1-1.6c-0.3-0.5-2-4.2-2.2-4.6s-1.8-6.5-2.3-7.4
	c-0.5-0.9-1.6-3.4-2.1-2.9s-0.7,0.7-0.4,2.1c0.2,1.4,2.1,9.1,2.7,10c0.6,0.9,3.1,4.4,3.1,4.4l4.9,6.1l3,2.8L49.8,40.2z"></path><path class="st6" d="M53.4,48.2l-4.7-5.8c0,0-7.3-9.4-7.5-9.7c-0.2-0.3-0.4-1.1-0.5-1.5c-0.1-0.4-3-3.9-2.8-5.5
	c0.2-1.5-0.5-10.1-0.5-11.1c0-1-1.3-3.5-1.7-3.8c-0.4-0.4-0.9,2-0.9,2.9c0,0.9,0.1,7.8,0.2,8.4c0,0.7,3.1,9,3.8,9.8
	c0.6,0.8,1.8,1.6,1.8,1.6l10.2,12.7c0,0,2.2,3.1,2.3,3c0.2-0.2,0.8-0.3,0.8-0.3"></path><path class="st5" d="M35.1,24.5c0,0-5.4-6.8-6.4-7.4c-0.9-0.7-1.4-1.9-1.9-1.7c-0.5,0.1-1,1.5-0.7,2.1s1.7,5,2.4,5.6
	c0.8,0.7,3.5,4.2,4.1,5c0.6,0.8,2.6,2,2.9,2.2c0.3,0.2,1.5,0.6,1.5,0.6l-0.2-3.4L35.1,24.5z"></path><path class="st7" d="M55.4,54.4c0-0.4-12.4-8.8-12.9-9.7c-0.5-0.9-1.2-2.2-1.2-2.2s-0.7-1.4-0.8-1.6c-0.1-0.2-3.6-1.3-3.9-6.2
	s-0.8-8.2-1.3-9c-0.5-0.8-3-6.9-3.9-7.1c-0.9-0.2-0.7,1-0.6,2.1c0.1,1.1,1,7.6,1.4,8.4c0.4,0.8,3.4,5.5,3.4,7.1
	c-0.1,1.6-0.2,2.6,0.1,3.1s0.5,2.3,1.8,3.2s1.5,0.9,2.1,1.1c0.6,0.2,1.3,0.8,1.3,0.8l14.6,10.8L55.4,54.4z"></path><path class="st6" d="M25.1,22.5c0,0,2.6,1.3,2.9,1.5c0.3,0.1,1.4,1.1,1.8,1.7c0.4,0.5,0.2,3,0.2,3.7c-0.1,0.7-2.6,6.3-2.6,6.3
	s-2.3-2.2-2.6-3.2c-0.3-1-2-4.7-1.5-5.7c0.5-1,0.9-2.4,1.1-3C24.6,23,24.5,22.2,25.1,22.5z"></path><path class="st5" d="M27.7,22.6c0.1,0.1,4,2.1,4.5,2.7c0.5,0.6,2.6,3.3,2.5,4c0,0.7,0,3.1,0.2,3.7c0.2,0.6,1.5,9.4,1.5,9.4l1.3,4.1
	L36.8,46c0,0-1.8-5.7-2.3-6.1c-0.5-0.4-2-0.8-2.5-1.4c-0.5-0.6-2.6-5.4-2.6-5.6c0-0.2-2.8-6.4-2.8-7.1s-0.8-2.4-0.8-2.4
	S24.7,20.9,27.7,22.6z"></path><path class="st7" d="M37.7,49.3c0,0-4.4-7.9-4.8-8.7s-0.6-2.1-0.4-3.6c0.3-1.5,0.6-7,0-8.6c-0.6-1.5-2.1-3.3-2.8-3.9
	S28.8,23.2,28,24c-0.8,0.8-1.6,2.5-2,3.2c-0.4,0.8-2.1,7.1-0.6,8.8c1.6,1.7,1.8,3.4,3.3,4s2.4,1.2,2.9,1.4c0.5,0.2,3.5,4.6,3.6,4.8
	c0.1,0.2,2.3,3.5,2.3,3.5L37.7,49.3z"></path><path class="st5" d="M28.2,38.8c-0.1-0.2-2.3-1.4-2.9-1.5s-1.6-0.7-0.9,0.8c0.7,1.5,3.1,5,3.6,5.3c0.5,0.3,3.4,1.3,3.4,1.3
	s-0.3-1.8-0.5-2.3C30.8,41.9,28.2,38.8,28.2,38.8z"></path><path class="st10" d="M41.9,85.3c1.2,1.7,1,2.6,5,3.8s4,1.3,4,1.3s-0.2-0.9-0.4-2s-0.7-4.9-3.7-7c-3-2-4.9-2.9-5.5-3.1
	s-2.7-1.3-3.2-1.5"></path><path class="st11" d="M67.4,81.8c-2.5,0.8-6.3-0.5-9.3,1c-2.9,1.5-4.3,5-4.9,6c-0.6,1-1.9,0.6,1,0.5c2.9-0.1,3.2,0.5,5.7,0
	c2.5-0.5,5.7-3,5.8-4C65.8,84.3,67.4,81.8,67.4,81.8z"></path><path class="st12" d="M63,75.6c0,0-1.4,3.4-2.8,5.1s-2.3,2.4-4.1,2.5c-1.8,0-3,0.4-3,0.4s1.5-2.4,1.5-3.4c0-1,1.3-2.8,2.7-3.1
	S63,75.6,63,75.6z"></path></g></svg>