<?xml version="1.0" encoding="utf-8"?>
<!-- Generator: Adobe Illustrator 23.1.1, SVG Export Plug-In . SVG Version: 6.00 Build 0)  -->
<svg version="1.1" id="Layer_1" xmlns="http://www.w3.org/2000/svg" xmlns:xlink="http://www.w3.org/1999/xlink" x="0px" y="0px"
	 viewBox="0 0 108 108" style="enable-background:new 0 0 108 108;" xml:space="preserve">
<style type="text/css">
	.st0{fill:none;stroke:#708530;stroke-width:1.0127;stroke-miterlimit:10;}
	.st1{fill:#72AA3A;}
	.st2{fill:#3F8133;}
	.st3{fill:#678B2B;}
	.st4{fill:#B0CC36;}
	.st5{fill:#639D3C;}
	.st6{fill:#A6BD39;}
	.st7{fill:#84B53A;}
	.st8{fill:#A5C939;}
	.st9{fill:#64791A;}
	.st10{fill:#81842A;}
	.st11{fill:#8BAC30;}
	.st12{fill:#758A27;}
	.st13{fill:#598A34;}
	.st14{fill:#406C25;}
	.st15{fill:#4F7E2E;}
	.st16{fill:#5C8E36;}
	.st17{fill:#93000E;}
	.st18{fill:#EE2C5C;}
	.st19{fill:#E11B22;}
	.st20{fill:#F26D80;}
	.st21{fill:#EE2F2E;}
</style>
<g>
	<path class="st0" d="M74.2,76.4c-0.1-2.6-1.1-7.2-1.8-10.5"/>
	<path class="st0" d="M81,73.1c-3.4-1.4-7.8-4.5-10-7.8"/>
	<path class="st0" d="M82.2,66.4c-3.9,1.9-7.1,4-9.8,0.1"/>
	<path class="st0" d="M66.6,59c-4.1-3.2-8-7.4-9.5-11.1"/>
	<path class="st0" d="M58.2,62c0.5-5.4-1-13.6-1.2-15.3"/>
	<path class="st0" d="M65.4,51.8c-3.2,1-5,2.5-8.1-2.7"/>
	<path class="st1" d="M68.6,81.5c-0.3-2.1-1.4-2.5,2.1-6.1l3.4-3.6c0,0,0.7,0.8,1.5,1.7c0.8,0.9,4.2,3.9,2.7,7.4
		c-1.5,3.5-2.8,5.4-3.4,6c-0.5,0.5-1.9,2.7-2.3,3.3"/>
	<path class="st2" d="M92.8,82.5c-2.5-1-6.1,1.2-9.1-0.9c-3-2.1-4.8-7.4-5.5-8.9c-0.7-1.5-2-0.9,0.9-0.9c2.9-0.1,3-1,5.5-0.4
		c2.5,0.6,5.9,4.3,6.2,5.9C91,78.7,92.8,82.5,92.8,82.5"/>
	<path class="st3" d="M77.8,68.5c0.7,0,1.6,0.6,5.2,0.7c3.6,0.1,6.5-0.3,7.1-3.1c0.6-2.8-0.3-3.3,1.3-5.1l1.6-1.8c0,0-3.1-0.1-7.4,0
		c-4.3,0.1-6.4,4.5-6.9,6.3C78.1,67.4,77.8,68.5,77.8,68.5"/>
	<path class="st4" d="M75.9,68.6c0,0-1.7-1.8-5.1-1.9c-3.4,0-7.1-1.7-7.1-5.3c0-3.6-1.2-5.6-1.2-5.6s-0.1,0.5,2.9,0.3
		c3-0.2,7.2,1.8,8.4,4.8C74.9,63.8,75.9,68.6,75.9,68.6"/>
	<path class="st5" d="M55.4,73.1c0,0,4.4-4.4,5.7-7.4c1.3-3,1.7-4.8,0-6.9c-1.7-2.1-2.4-3.8-2.4-3.8s-2.5,3.7-4.1,4.5
		c-1.6,0.9-3.4,3.9-2.5,5.7C52.9,67.1,55.4,73.1,55.4,73.1"/>
	<path class="st6" d="M62.3,52.8c0,0.1,2.6,1.1,5.8,1.5c3.1,0.4,4.8,0.4,6-1.2c1.2-1.6,2.1-3.2,2.9-5c0.9-1.8,1-2.6,1.7-2.7
		c0.7-0.2-0.9,0.6-4.4-0.2c-3.4-0.9-5.1-1.8-6.5-0.7c-1.4,1.1-1.4,3.2-2.5,4.9C64.1,51.1,62.3,52.8,62.3,52.8"/>
	<path class="st0" d="M29.2,74.6c2.5-0.7,6.7-2.8,9.7-4.3"/>
	<path class="st0" d="M34.1,80.5c0.5-3.6,2.4-8.6,5.1-11.6"/>
	<path class="st0" d="M40.9,79.9c-2.8-3.3-5.7-5.9-2.5-9.4"/>
	<path class="st0" d="M44.2,63c2.1-4.8,5.2-9.6,8.4-12"/>
	<path class="st0" d="M39.2,55.6c5.3-0.9,12.9-4.3,14.5-4.9"/>
	<path class="st0" d="M50.8,60.1c-1.7-2.8-3.7-4.2,0.7-8.5"/>
	<path class="st7" d="M31,63.4c1.9-0.8,2.1-1.9,6.5,0.5l4.4,2.4c0,0-0.6,0.9-1.3,1.9c-0.7,1-2.8,5-6.5,4.4c-3.8-0.6-5.9-1.4-6.6-1.8
		c-0.7-0.4-3.1-1.1-3.7-1.4"/>
	<path class="st8" d="M35.3,89.9c0.4-2.7-2.7-5.6-1.3-9.1c1.3-3.5,6-6.4,7.3-7.5c1.3-1.1,0.4-2.1,1.1,0.6c0.8,2.8,1.7,2.7,1.8,5.2
		c0,2.6-2.7,6.8-4.2,7.4C38.5,87.2,35.3,89.9,35.3,89.9"/>
	<path class="st3" d="M37.7,76.2c0.2,0.7-0.2,1.7,0.6,5.2c0.8,3.5,1.9,6.2,4.7,6.1c2.8-0.1,3.1-1.1,5.3,0l2.1,1.1c0,0-0.7-3-1.8-7.2
		c-1.2-4.2-5.9-5.1-7.8-5.1C38.9,76.2,37.7,76.2,37.7,76.2"/>
	<path class="st9" d="M37.2,74.4c0,0,1.4-2.1,0.6-5.4c-0.8-3.3-0.1-7.3,3.4-8.2c3.5-0.9,5.1-2.5,5.1-2.5s-0.5,0.1,0.4,2.9
		c1,2.8,0,7.4-2.6,9.3C41.6,72.3,37.2,74.4,37.2,74.4"/>
	<path class="st5" d="M27.7,55.6c0,0,5.3,3.2,8.6,3.8c3.2,0.6,5,0.5,6.7-1.7c1.6-2.2,3.1-3.2,3.1-3.2s-4.2-1.5-5.4-2.9
		c-1.2-1.4-4.6-2.4-6.1-1.1C33,51.8,27.7,55.6,27.7,55.6"/>
	<path class="st6" d="M49.1,57.3c-0.1,0-0.5,2.8-0.1,6c0.4,3.1,0.8,4.8,2.7,5.6c1.8,0.8,3.6,1.2,5.6,1.6c2,0.4,2.7,0.3,3.1,1
		c0.3,0.7-0.8-0.7-0.9-4.3c0-3.6,0.5-5.4-0.9-6.5c-1.4-1.1-3.4-0.6-5.4-1.3C51.3,58.6,49.1,57.3,49.1,57.3"/>
	<path class="st0" d="M36.6,30.5c0.8,2.5,3.2,6.6,4.8,9.5"/>
	<path class="st0" d="M31.1,35.7c3.7,0.3,8.8,2,11.8,4.5"/>
	<path class="st0" d="M31.9,42.5c3.2-2.9,5.6-5.9,9.3-3"/>
	<path class="st0" d="M49,45c4.9,1.8,9.8,4.7,12.4,7.8"/>
	<path class="st0" d="M56.1,39.6c1.1,5.3,4.9,12.7,5.6,14.2"/>
	<path class="st0" d="M52.2,51.4c2.7-1.9,4-3.9,8.6,0.2"/>
	<path class="st1" d="M40.5,24c0.9,1.9,2,2-0.2,6.5L38.1,35c0,0-0.9-0.6-1.9-1.2s-5.2-2.5-4.7-6.3c0.4-3.8,1.1-6,1.5-6.7
		c0.3-0.7,1-3.2,1.2-3.8"/>
	<path class="st7" d="M17,30.1c2.7,0.3,5.5-2.9,9-1.8c3.5,1.1,6.7,5.7,7.9,6.9c1.1,1.2,2.1,0.2-0.6,1.1c-2.7,0.9-2.6,1.9-5.2,2
		c-2.6,0.2-6.9-2.4-7.6-3.8C19.9,33.2,17,30.1,17,30.1"/>
	<path class="st3" d="M35.4,39.1c-0.7,0.2-1.7-0.1-5.2,0.9c-3.5,1-6.1,2.2-5.9,5c0.2,2.8,1.2,3.1,0.3,5.3l-0.9,2.2
		c0,0,3-0.8,7.1-2.2c4.1-1.4,4.8-6.2,4.7-8.1C35.5,40.3,35.4,39.1,35.4,39.1"/>
	<path class="st4" d="M37.3,38.5c0,0,2.1,1.3,5.4,0.3c3.3-1,7.3-0.5,8.4,3c1.1,3.4,2.8,5,2.8,5s-0.1-0.5-2.9,0.6
		c-2.8,1.1-7.4,0.4-9.4-2.1C39.6,42.8,37.3,38.5,37.3,38.5"/>
	<path class="st5" d="M55.5,28.1c0,0-2.9,5.5-3.3,8.7c-0.4,3.2-0.2,5,2,6.6c2.3,1.5,3.4,2.9,3.4,2.9s1.3-4.2,2.6-5.5
		c1.3-1.3,2.1-4.7,0.8-6.2C59.7,33.2,55.5,28.1,55.5,28.1"/>
	<path class="st10" d="M54.9,49.6c0-0.1-2.8-0.3-5.9,0.2c-3.1,0.6-4.7,1.1-5.4,2.9c-0.7,1.9-1,3.7-1.3,5.7c-0.3,2-0.2,2.7-0.8,3.1
		s0.7-0.9,4.2-1.1c3.5-0.2,5.4,0.2,6.4-1.3c1-1.5,0.4-3.5,1-5.4C53.7,51.8,54.9,49.6,54.9,49.6"/>
	<path class="st0" d="M82.3,36.5c-2.6,0.4-7,2.1-10.1,3.3"/>
	<path class="st0" d="M78.1,30.2c-0.9,3.6-3.3,8.3-6.3,11"/>
	<path class="st0" d="M71.2,30c2.4,3.6,5,6.5,1.5,9.7"/>
	<path class="st0" d="M66.1,46.5c-2.6,4.5-6.2,9-9.6,11"/>
	<path class="st0" d="M70.3,54.4C65,54.7,57,57.3,55.4,57.7"/>
	<path class="st0" d="M59.2,48.6c1.4,3,3.2,4.6-1.6,8.4"/>
	<path class="st1" d="M88.1,41.3c-2,0.6-2.3,1.7-6.4-1.2l-4.1-2.9c0,0,0.7-0.8,1.5-1.7c0.8-0.9,3.3-4.7,6.9-3.7
		c3.7,1,5.8,2.1,6.4,2.5c0.6,0.4,3,1.5,3.6,1.8"/>
	<path class="st11" d="M85.7,17.2c-0.7,2.6,2.1,5.9,0.4,9.2c-1.7,3.3-6.7,5.8-8.1,6.7c-1.4,0.9-0.6,2.1-1-0.8
		c-0.5-2.8-1.4-2.9-1.2-5.4c0.2-2.6,3.4-6.5,4.9-6.9C82.2,19.5,85.7,17.2,85.7,17.2"/>
	<path class="st7" d="M74,34c-0.1-0.7,0.4-1.7-0.1-5.2c-0.5-3.6-1.2-6.3-4.1-6.6c-2.8-0.2-3.2,0.7-5.2-0.6l-2-1.3
		c0,0,0.3,3.1,1.1,7.4c0.7,4.3,5.3,5.7,7.3,5.9C72.8,33.9,74,34,74,34"/>
	<path class="st4" d="M74.3,35.9c0,0-1.6,1.9-1.1,5.3c0.5,3.4-0.7,7.3-4.2,7.8c-3.6,0.5-5.4,1.9-5.4,1.9s0.5,0-0.1-2.9
		c-0.6-2.9,0.8-7.4,3.5-9C69.7,37.5,74.3,35.9,74.3,35.9"/>
	<path class="st5" d="M81.8,55.6c0,0-5-3.7-8.1-4.6c-3.1-0.9-4.9-1-6.8,1c-1.9,2-3.4,2.9-3.4,2.9s4,1.9,5.1,3.4
		c1.1,1.5,4.3,2.8,6,1.7C76.1,58.8,81.8,55.6,81.8,55.6"/>
	<path class="st12" d="M60.7,51.6c0.1,0,0.8-2.8,0.7-5.9c-0.1-3.2-0.3-4.8-2-5.8c-1.7-1-3.5-1.6-5.4-2.2c-1.9-0.6-2.7-0.6-2.9-1.3
		c-0.3-0.7,0.8,0.8,0.4,4.3c-0.4,3.5-1.1,5.3,0.3,6.6c1.3,1.3,3.4,0.9,5.2,1.8C58.7,50.1,60.7,51.6,60.7,51.6"/>
	<path class="st1" d="M57.1,65c-0.1-2.6-1.1-7.2-1.8-10.5"/>
	<path class="st1" d="M63.9,61.7c-3.4-1.4-7.8-4.5-10-7.8"/>
	<path class="st1" d="M65.1,55c-3.9,1.9-7.1,4-9.8,0.1"/>
	<path class="st1" d="M49.5,47.6c-4.1-3.2-8-7.4-9.5-11.1"/>
	<path class="st1" d="M41.1,50.6c0.5-5.4-1-13.6-1.2-15.3"/>
	<path class="st1" d="M48.3,40.4c-3.2,1-5,2.5-8.1-2.7"/>
	<path class="st13" d="M51.5,70.1c-0.3-2.1-1.4-2.5,2.1-6.1l3.4-3.6c0,0,0.7,0.8,1.5,1.7c0.8,0.9,4.2,3.9,2.7,7.4
		c-1.5,3.5-2.8,5.4-3.4,6c-0.5,0.5-1.9,2.7-2.3,3.3"/>
	<path class="st1" d="M75.7,71.1c-2.5-1-6.1,1.2-9.1-0.9c-3-2.1-4.8-7.4-5.5-8.9c-0.7-1.5-2-0.9,0.9-0.9c2.9-0.1,3-1,5.5-0.4
		c2.5,0.6,5.9,4.3,6.2,5.9C73.9,67.3,75.7,71.1,75.7,71.1"/>
	<path class="st14" d="M60.7,57.1c0.7,0,1.6,0.6,5.2,0.7c3.6,0.1,6.5-0.3,7.1-3.1c0.6-2.8-0.3-3.3,1.3-5.1l1.6-1.8
		c0,0-3.1-0.1-7.4,0c-4.3,0.1-6.4,4.5-6.9,6.3C61,56,60.7,57.1,60.7,57.1"/>
	<path class="st1" d="M58.8,57.1c0,0-1.7-1.8-5.1-1.9c-3.4,0-7.1-1.7-7.1-5.3c0-3.6-1.2-5.6-1.2-5.6s-0.1,0.5,2.9,0.3
		c3-0.2,7.2,1.8,8.4,4.8C57.8,52.4,58.8,57.1,58.8,57.1"/>
	<path class="st15" d="M38.3,61.7c0,0,4.4-4.4,5.7-7.4c1.3-3,1.7-4.8,0-6.9c-1.7-2.1-2.4-3.8-2.4-3.8s-2.5,3.7-4.1,4.5
		c-1.6,0.9-3.4,3.9-2.5,5.7C35.8,55.7,38.3,61.7,38.3,61.7"/>
	<path class="st16" d="M45.1,41.4c0,0.1,2.6,1.1,5.8,1.5c3.1,0.4,4.8,0.4,6-1.2c1.2-1.6,2.1-3.2,2.9-5c0.9-1.8,1-2.6,1.7-2.7
		c0.7-0.2-0.9,0.6-4.4-0.2c-3.4-0.9-5.1-1.8-6.5-0.7c-1.4,1.1-1.4,3.2-2.5,4.9C47,39.6,45.1,41.4,45.1,41.4"/>
	<path class="st0" d="M73.4,36c-2.6-0.1-7.3,0.6-10.6,1"/>
	<path class="st0" d="M70.6,28.9c-1.6,3.3-5,7.4-8.5,9.4"/>
	<path class="st0" d="M64,27.3c1.6,4,3.5,7.4-0.6,9.8"/>
	<path class="st0" d="M55.5,42.3c-3.5,3.9-8,7.4-11.8,8.7"/>
	<path class="st0" d="M57.9,50.9c-5.3-0.9-13.6,0-15.3,0.1"/>
	<path class="st0" d="M48.3,42.9c0.8,3.2,2.2,5.2-3.3,7.9"/>
	<path class="st1" d="M78.1,42c-2.1,0.2-2.6,1.2-6-2.5l-3.4-3.7c0,0,0.8-0.6,1.8-1.4c1-0.7,4.2-3.9,7.6-2.1c3.4,1.8,5.2,3.2,5.7,3.8
		c0.5,0.6,2.6,2.1,3.1,2.5"/>
	<path class="st2" d="M80.9,17.9c-1.2,2.4,0.8,6.2-1.6,9.1c-2.3,2.9-7.7,4.2-9.3,4.8c-1.6,0.6-1,1.9-0.8-1c0.2-2.9-0.8-3.1,0-5.5
		c0.8-2.4,4.7-5.6,6.3-5.7C77,19.4,80.9,17.9,80.9,17.9"/>
	<path class="st3" d="M65.8,31.8c0.1-0.7,0.7-1.5,1-5.1c0.3-3.6,0.1-6.5-2.6-7.3c-2.7-0.8-3.3,0-5-1.7L57.6,16c0,0-0.3,3.1-0.5,7.4
		c-0.2,4.3,4,6.7,5.8,7.3C64.7,31.4,65.8,31.8,65.8,31.8"/>
	<path class="st4" d="M65.7,33.7c0,0-2,1.5-2.2,4.9c-0.3,3.4-2.2,7-5.8,6.7c-3.6-0.3-5.7,0.8-5.7,0.8s0.5,0.1,0.5-2.9
		c0-3,2.3-7,5.4-8C60.9,34.3,65.7,33.7,65.7,33.7"/>
	<path class="st5" d="M68.8,54.5c0,0-4.1-4.7-6.9-6.3c-2.9-1.6-4.6-2.1-6.9-0.5c-2.2,1.6-4,2.1-4,2.1s3.5,2.7,4.2,4.4
		c0.7,1.7,3.6,3.7,5.5,3C62.6,56.5,68.8,54.5,68.8,54.5"/>
	<path class="st6" d="M49,46.2c0.1,0,1.3-2.5,1.9-5.6c0.6-3.1,0.7-4.8-0.8-6.1c-1.5-1.3-3-2.3-4.8-3.3c-1.7-1-2.5-1.2-2.6-1.9
		c-0.1-0.7,0.6,1-0.5,4.3c-1.1,3.4-2.2,5-1.2,6.5c1,1.5,3.1,1.6,4.7,2.9C47.4,44.2,49,46.2,49,46.2"/>
	<path class="st0" d="M68.3,80.8c-0.5-2.5-2.3-6.9-3.6-10"/>
	<path class="st0" d="M74.5,76.3c-3.6-0.8-8.4-3-11.2-6"/>
	<path class="st0" d="M74.5,69.5c-3.5,2.5-6.3,5.2-9.6,1.8"/>
	<path class="st0" d="M57.9,64.9c-4.6-2.4-9.2-5.9-11.3-9.3"/>
	<path class="st0" d="M50.1,69.4c-0.5-5.4-3.3-13.2-3.8-14.8"/>
	<path class="st0" d="M55.5,58.1c-3,1.5-4.5,3.4-8.5-1.3"/>
	<path class="st7" d="M57.3,78.1c-0.7-2-1.8-2.2,1-6.4l2.8-4.2c0,0,0.8,0.7,1.8,1.4c0.9,0.7,4.8,3.1,3.9,6.8
		c-0.9,3.7-1.9,5.8-2.3,6.4c-0.4,0.6-1.4,3-1.6,3.6"/>
	<path class="st8" d="M84,75.8c-2.6-0.6-5.8,2.2-9.2,0.7c-3.4-1.6-6-6.5-7-7.8c-1-1.4-2.1-0.5,0.7-1.1c2.8-0.6,2.8-1.5,5.4-1.4
		c2.6,0.2,6.6,3.2,7.1,4.7C81.6,72.4,84,75.8,84,75.8"/>
	<path class="st3" d="M70.6,72.4c0.7-0.1,1.7,0.3,5.2-0.2c3.6-0.6,6.3-1.4,6.4-4.3c0.1-2.8-0.8-3.2,0.4-5.3l1.2-2.1
		c0,0-3.1,0.4-7.3,1.3c-4.2,0.9-5.5,5.5-5.7,7.4C70.6,71.2,70.6,72.4,70.6,72.4"/>
	<path class="st9" d="M68.7,72.8c0,0-2-1.5-5.3-1c-3.4,0.6-7.3-0.4-8-4c-0.6-3.6-2.1-5.3-2.1-5.3s0,0.5,2.9-0.2
		c2.9-0.7,7.4,0.5,9.1,3.2C66.9,68.2,68.7,72.8,68.7,72.8"/>
	<path class="st5" d="M49.3,80.8c0,0,3.6-5.1,4.4-8.3c0.8-3.2,0.9-5-1.2-6.8c-2.1-1.8-3-3.3-3-3.3s-1.8,4.1-3.2,5.2
		c-1.5,1.1-2.7,4.4-1.5,6C45.8,75.3,49.3,80.8,49.3,80.8"/>
	<path class="st6" d="M52.5,59.6c0,0.1,2.8,0.7,5.9,0.5c3.1-0.2,4.8-0.5,5.7-2.2c0.9-1.7,1.5-3.5,2-5.5c0.5-1.9,0.5-2.7,1.2-3
		c0.7-0.3-0.8,0.8-4.3,0.5c-3.5-0.2-5.3-0.9-6.6,0.5c-1.2,1.4-0.8,3.4-1.7,5.2C54,57.6,52.5,59.6,52.5,59.6"/>
	<path class="st0" d="M24.9,70.1c2.5-0.6,6.8-2.7,9.8-4.1"/>
	<path class="st0" d="M29.7,76c0.6-3.6,2.6-8.6,5.4-11.4"/>
	<path class="st0" d="M36.5,75.7c-2.7-3.4-5.5-6-2.3-9.5"/>
	<path class="st0" d="M40.2,58.8c2.2-4.7,5.4-9.5,8.7-11.8"/>
	<path class="st0" d="M35.4,51.3c5.3-0.7,13-4,14.6-4.6"/>
	<path class="st0" d="M46.9,56.1c-1.7-2.9-3.6-4.3,0.9-8.5"/>
	<path class="st1" d="M18.7,65.8c1.9-0.8,2.1-1.9,6.4,0.6l4.3,2.5c0,0-0.6,0.8-1.3,1.8c-0.7,1-2.9,5-6.6,4.2c-3.8-0.7-5.9-1.6-6.6-2
		c-0.7-0.4-3.1-1.2-3.7-1.5"/>
	<path class="st7" d="M23.1,89.6c0.5-2.7-2.5-5.7-1.1-9.1c1.4-3.4,6.2-6.3,7.5-7.3c1.3-1,0.4-2.1,1.1,0.7c0.7,2.8,1.7,2.7,1.6,5.3
		c0,2.6-2.9,6.7-4.3,7.3C26.4,87,23.1,89.6,23.1,89.6"/>
	<path class="st3" d="M33.4,71.9c0.2,0.7-0.2,1.7,0.5,5.2c0.7,3.5,1.8,6.2,4.6,6.2c2.8,0,3.2-1,5.3,0.1l2.1,1.1c0,0-0.6-3.1-1.7-7.2
		c-1.1-4.2-5.8-5.2-7.7-5.3C34.6,71.9,33.4,71.9,33.4,71.9"/>
	<path class="st4" d="M32.9,70c0,0,1.4-2,0.7-5.4c-0.7-3.3,0.1-7.3,3.6-8.1c3.5-0.8,5.2-2.4,5.2-2.4s-0.5,0,0.4,2.9
		c0.9,2.8-0.2,7.4-2.8,9.2C37.4,68,32.9,70,32.9,70"/>
	<path class="st5" d="M23.9,51.1c0,0,5.3,3.3,8.5,4c3.2,0.6,5,0.6,6.7-1.6s3.2-3.2,3.2-3.2s-4.1-1.6-5.3-3c-1.2-1.4-4.5-2.5-6.1-1.2
		C29.3,47.3,23.9,51.1,23.9,51.1"/>
	<path class="st10" d="M45.2,53.2c-0.1,0-0.5,2.8-0.2,5.9c0.3,3.1,0.7,4.8,2.5,5.6c1.8,0.9,3.6,1.3,5.5,1.7c2,0.4,2.7,0.4,3,1.1
		s-0.8-0.7-0.8-4.3c0.1-3.6,0.6-5.4-0.8-6.5c-1.4-1.1-3.4-0.6-5.3-1.4C47.4,54.6,45.2,53.2,45.2,53.2"/>
	<path class="st0" d="M34.2,25c0.2,2.6,1.6,7.1,2.5,10.4"/>
	<path class="st0" d="M27.6,28.8c3.5,1.1,8.1,3.9,10.5,7.1"/>
	<path class="st0" d="M26.9,35.5c3.7-2.1,6.8-4.5,9.7-0.8"/>
	<path class="st0" d="M43,41.8c4.3,2.9,8.5,6.8,10.3,10.4"/>
	<path class="st0" d="M51.2,38.2c-0.1,5.4,1.9,13.5,2.2,15.1"/>
	<path class="st0" d="M44.6,48.9c3.1-1.2,4.8-2.9,8.3,2.2"/>
	<path class="st1" d="M39.4,19.5c0.5,2,1.5,2.4-1.6,6.3l-3.2,3.9c0,0-0.7-0.7-1.6-1.6c-0.9-0.8-4.4-3.6-3.2-7.2
		c1.3-3.6,2.5-5.6,3-6.2c0.5-0.6,1.7-2.9,2-3.4"/>
	<path class="st11" d="M15.2,20.1c2.6,0.9,6-1.6,9.2,0.3c3.2,1.9,5.3,7.1,6.1,8.5c0.8,1.5,2,0.7-0.8,1c-2.9,0.3-3,1.2-5.5,0.8
		c-2.5-0.4-6.2-3.9-6.6-5.4C17.3,23.8,15.2,20.1,15.2,20.1"/>
	<path class="st7" d="M31.1,33.1c-0.7,0.1-1.6-0.5-5.2-0.3c-3.6,0.2-6.4,0.8-6.9,3.6c-0.4,2.8,0.5,3.3-0.9,5.2l-1.4,1.9
		c0,0,3.1-0.1,7.4-0.5c4.3-0.4,6-4.9,6.4-6.8S31.1,33.1,31.1,33.1"/>
	<path class="st4" d="M33,32.9c0,0,1.8,1.7,5.2,1.5c3.4-0.2,7.2,1.2,7.5,4.8c0.2,3.6,1.5,5.5,1.5,5.5s0-0.5-2.9-0.1
		c-2.9,0.4-7.3-1.3-8.7-4.2C34.3,37.6,33,32.9,33,32.9"/>
	<path class="st5" d="M53.2,26.9c0,0-4.1,4.7-5.2,7.8c-1.1,3.1-1.4,4.9,0.5,6.9c1.9,2,2.6,3.6,2.6,3.6s2.2-3.8,3.8-4.8
		c1.6-1,3.1-4.1,2.2-5.8C56,32.8,53.2,26.9,53.2,26.9"/>
	<path class="st12" d="M47.7,47.7c0-0.1-2.7-1-5.8-1.1c-3.1-0.2-4.8,0-6,1.6c-1.1,1.6-1.8,3.3-2.6,5.2c-0.7,1.9-0.8,2.6-1.5,2.8
		c-0.7,0.2,0.9-0.7,4.4-0.1c3.5,0.6,5.2,1.4,6.6,0.2c1.4-1.2,1.2-3.3,2.2-5C46,49.6,47.7,47.7,47.7,47.7"/>
	<path class="st1" d="M60.8,52.3c-2.6-0.1-7.3,0.6-10.6,1"/>
	<path class="st1" d="M58,45.2c-1.6,3.3-5,7.4-8.5,9.4"/>
	<path class="st1" d="M51.4,43.5c1.6,4,3.5,7.4-0.6,9.8"/>
	<path class="st1" d="M42.8,58.5c-3.5,3.9-8,7.4-11.8,8.7"/>
	<path class="st1" d="M45.3,67.2c-5.3-0.9-13.6,0-15.3,0.1"/>
	<path class="st1" d="M35.6,59.2c0.8,3.2,2.2,5.2-3.3,7.9"/>
	<path class="st13" d="M65.4,58.2c-2.1,0.2-2.6,1.2-6-2.5L56.1,52c0,0,0.8-0.6,1.8-1.4c1-0.7,4.2-3.9,7.6-2.1
		c3.4,1.8,5.2,3.2,5.7,3.8c0.5,0.6,2.6,2.1,3.1,2.5"/>
	<path class="st1" d="M68.2,34.1c-1.2,2.4,0.8,6.2-1.6,9.1c-2.3,2.9-7.7,4.2-9.3,4.8c-1.6,0.6-1,1.9-0.8-1c0.2-2.9-0.8-3.1,0-5.5
		c0.8-2.4,4.7-5.6,6.3-5.7C64.3,35.7,68.2,34.1,68.2,34.1"/>
	<path class="st14" d="M53.2,48c0.1-0.7,0.7-1.5,1-5.1c0.3-3.6,0.1-6.5-2.6-7.3c-2.7-0.8-3.3,0-5-1.7L45,32.3c0,0-0.3,3.1-0.5,7.4
		c-0.2,4.3,4,6.7,5.8,7.3C52.1,47.7,53.2,48,53.2,48"/>
	<path class="st1" d="M53.1,50c0,0-2,1.5-2.2,4.9c-0.3,3.4-2.2,7-5.8,6.7c-3.6-0.3-5.7,0.8-5.7,0.8s0.5,0.1,0.5-2.9c0-3,2.3-7,5.4-8
		C48.3,50.6,53.1,50,53.1,50"/>
	<path class="st15" d="M56.1,70.8c0,0-4.1-4.7-6.9-6.3c-2.9-1.6-4.6-2.1-6.9-0.5c-2.2,1.6-4,2.1-4,2.1s3.5,2.7,4.2,4.4
		c0.7,1.7,3.6,3.7,5.5,3C49.9,72.7,56.1,70.8,56.1,70.8"/>
	<path class="st16" d="M36.4,62.4c0.1,0,1.3-2.5,1.9-5.6c0.6-3.1,0.7-4.8-0.8-6.1c-1.5-1.3-3-2.3-4.8-3.3c-1.7-1-2.5-1.2-2.6-1.9
		c-0.1-0.7,0.6,1-0.5,4.3c-1.1,3.4-2.2,5-1.2,6.5c1,1.5,3.1,1.6,4.7,2.9C34.8,60.5,36.4,62.4,36.4,62.4"/>
	<path class="st17" d="M46.3,17.2c-1,0.6-0.7-0.3-2.1-0.4c-1.4-0.1-1.5-0.2-2.6,0c-1,0.2-2.3,0.3-3.9,0.6c-1.6,0.3-1.7,0.2-3.5,1
		c-1.7,0.8-2.9,1.2-4.6,1.8s-2.1,0.9-4.1,1.9c-2,1.1-3.6,3-3.6,4.5S21.4,29.3,21,30s-1.2,4.3,0,5.1c1.2,0.8,1.9,1.5,1.4,2.5
		c-0.5,1-1,1.2-0.9,2.2c0.1,1,0.6,2.5,0.8,3.6s0.6,2.4,0.5,3.6c-0.1,1.2-1.2,1.5,0,2.5c1.2,1,2.1,0.5,1.9,2.3s-1.6,1.1,0.1,2.3
		c1.7,1.2,0.8,0.9,2.1,2.1c1.3,1.2,0.5,1.7,2.4,1.7s4.3,1,5.7,1.5c1.4,0.5,3.4,1.2,4.6,0.8c1.3-0.4,1,0.3,3.2,0.1
		c2.2-0.1,2.8-0.5,4.1-1c1.3-0.5,3-1,4.5-1.6c1.5-0.6,2-3,3.2-3.5c1.3-0.4,5-2.2,6.2-3.5c1.2-1.3,3.6-2.9,3.4-4.9
		c-0.2-1.9-0.9-3-0.7-4.4s-1.4-3.5-0.8-4.5c0.6-1.1,2-1.7,0.8-3.6c-1.2-1.8-3.1-2.6-3.9-3.8s-1.6-2.5-2.4-3.8
		c-0.8-1.3-2.9-2.4-4.4-2.8s-2.4-1.4-2.7-1.8c-0.2-0.4,0.2-1.3-0.9-1.6c-1.2-0.3,0.1,0.9-1.2-0.3C46.7,17.7,46.3,17.2,46.3,17.2z"/>
	<path class="st18" d="M59.2,32.3c1.4-0.1,1.2,0.3,2.3,0c1.1-0.3,2.3-0.9,2.1,0c-0.1,0.9,2,0.7,0.6,1.4s-1.1-0.4-1.4,0.7
		c-0.3,1-0.9,0.3-0.3,1c0.6,0.8,0.3,0.7,0.2,1.4c-0.1,0.7-1.8,1-1.8,0.5c0-0.5-0.4-1.6,0.1-2.1c0.5-0.6,1-1.2,1-1.5
		c0-0.3-0.3-0.6-1-0.3c-0.7,0.3-1.8-0.5-1.7,0.4c0.1,0.9,0.9,1.6-0.4,1.3c-1.3-0.2-1-0.5-1-1.1S59.2,32.3,59.2,32.3z"/>
	<path class="st18" d="M58.8,37.4c-1,0.1-1.5,0.4-2.2,0s-0.6-1-1.1-1.6s-0.7-0.5-1.7-0.7c-1-0.2-1.6-0.9-1.2-1.3
		c0.4-0.4,1.2-0.5,2.1-0.6c1-0.1,2.2,0.1,2.3-0.7c0.1-0.7,0.8-1.1-0.2-1.6c-1-0.5-1.7-0.9-2.1-1s-2-0.4-2.3,0.3
		c-0.1,0.4-0.4,0.9-0.8,1.3c-0.3,0.3-0.8,0.5-1.3,0.3c-1-0.3-0.8-1.4-1.8-0.5c-1,0.9-2.2,2.1-1,2.4c1.2,0.3,1.9,0.2,2.6-0.3
		c0.7-0.5,2.3-2.5,3.3-2.2c1,0.3,2,0.6,0.9,1c-1.1,0.4-1.4-0.1-2.2,0.8c-0.9,0.9-1.7-0.1-0.9,1.3c0.9,1.3,0.5,0.1,1.7,1.6
		c1.1,1.6,1,2.1,1.6,2.6c0.6,0.5,1.2,0.9,1.9,0.9c0.7,0,1.6,0.3,2.1,0s1.6,0,1-0.9C58.8,37.4,58.8,37.4,58.8,37.4z"/>
	<path class="st18" d="M51.6,38.9c-0.6-0.3-1.7-0.7-2.5,0c-0.9,0.7-2.8,0.6-2.1,1.3c0.7,0.7,2.4,0.4,2.2,1.1c-0.1,0.7,1,0.9,0,1
		s-2.4-0.4-2.2,0c0.2,0.4-0.2,1.5,0.8,1.3c1-0.2,2.3-0.8,2.7-1.3s-0.3-1.6-0.3-1.6s0-0.8,0.6-0.7c0.6,0.1,0.5,0.8,1.2,1.1
		s2.6-0.3,2.6-0.3s0-0.7-0.5-0.7s-0.8,0.3-1.4,0.1S51.6,38.9,51.6,38.9z"/>
	<path class="st19" d="M35.7,39.4c-0.4,0.1-2.5,0.5-2.5,1.4c0,0.8,0.2,1-0.9,1.6c-1.1,0.7-0.9,0-1.3,1.6c-0.4,1.6-0.9,1.5,0.4,2.3
		s2.1,2.1,2.5,1.8s0.4-0.7-0.2-1.8c-0.6-1-0.9-2.5-0.6-2.5c0.3,0,0.7,1.4,1.4,2.2c0.6,0.8,1.6,1.6,1.6,0.7s-0.1-1-0.4-1.9
		c-0.3-0.8-1.1-3.2-0.4-1.9c0.7,1.3,1.2,2.4,1.2,2.4s1.2-0.7,1.7-1.2c0.5-0.5,0.8-1.1,1.5-1.1c0.7,0,1.9-1.1,0.6-1.3
		c-1.4-0.1-1.7,0.2-2.4,0.5s-1.4,0.4-1.3-0.3c0.1-0.7,0.5-2,1.6-1.5c1.1,0.5,1.7,1.1,2.2,0.6c0.6-0.5,1.4-1.2,1.4-1.7
		s-0.4-0.9,0-1.1s1.6,0.3,1.7-0.4c0.2-0.7-0.1-1.4-0.7-1.2C42.3,37,41.1,36.7,41,38c-0.1,1.3,0,2.3-0.7,1.9c-0.7-0.4-0.2-1-1.4-1.4
		C37.8,38,38,37.2,37.8,38c-0.2,0.7,0.5,1.5-0.8,1.5C35.7,39.4,35.7,39.4,35.7,39.4z"/>
	<path class="st18" d="M43.7,40.3c0,0,0.5-1.7,1.9-0.9c1.4,0.8,1.8,0.6,1.2,1.7s-2,1.1-1.9,1.3s0.3,0.5,1,1.2c0.6,0.7,0,0.9,1.2,0.9
		s1.9-0.2,2.3,0.6c0.5,0.8,1.3,1.6,0.7,1.9c-0.6,0.4-0.4,0.7-2.1,0.5c-1.7-0.2-2.2-0.1-2.9-0.7c-0.6-0.6-1.3-1.2-1.5-1.6
		c-0.1-0.4-1.7-1.3-1.3-0.5c0.3,0.8,1.4,1.1,0.9,1.9c-0.5,0.7-0.6,1-1.4,1c-0.7,0-1.7,0.3-2.5,0c-0.7-0.3-1.2-0.2-1.5-0.8
		c-0.3-0.6-0.2-1.6,0-1.5s0.3,0.4,1.1,0.7s0.8,0.4,1.4,0.2c0.6-0.2,1.6,0.3,1.1-0.5c-0.5-0.8-0.6-1.4-0.3-1.9
		c0.3-0.4,0.7-0.8,1.4-0.3c0.7,0.4,1.5,0.9,2.2,1.7s0.2,1.2,1.4,1.3c1.3,0.1,3.8,0.4,2.7-0.4c-1.1-0.8-0.8-0.4-2-0.9
		c-1.3-0.5-1.8-0.8-2.1-1.3c-0.3-0.5-1.3-1-1.2-1.6c0.1-0.6,2.3-1.5,1.8-1.7c-0.6-0.2-1.6,0.5-1.7,1.1c-0.1,0.6-1.6,1.3-1.5,0.6
		S43.7,40.3,43.7,40.3z"/>
	<path class="st19" d="M53.3,41.9c-1,0.1-3.1,0.4-3,1.3s0.8,1.5,0.8,2.5c0.1,1,0.2,1.7-0.8,2.1c-1.1,0.4-2.3-0.2-2.3-0.2
		s-2.5,0.1-3.1,0.3c-0.6,0.2-0.7,0.6-1.2,0.6c-0.5,0-1.4-1.4-1.8-0.8c-0.4,0.6-0.9,1.1,0,1.6c0.9,0.4,1,1,1.8,0.4
		c0.7-0.6,1.4-1.3,2.1-1c0.7,0.2,2,0,1.6,0.6c-0.4,0.6-2.3,0.4-2.2,0.7c0.1,0.3,0.7,1.2,1.7,1.1s2-0.6,2.1-1c0.1-0.4,0.8-0.1,1.4,0
		c0.6,0.1,2,0.4,2,0c0.1-0.4-2.5-1-2-1.2s0.4-0.5,1.3-0.7c0.9-0.2,2,0,1.7-0.6c-0.3-0.7-0.9-1-1-1.6c-0.1-0.5-0.4-1.6,0.1-2.3
		c0.5-0.6,1.4,0.3,1.4,0.3s-1.7,1.5-0.5,2.1s0.6,1,2.3,0.9c1.7-0.1,3-0.5,3-0.5s2.9-1.5,3.1-1.2c0.2,0.3,1,0.7,1.2,0.1
		c0.2-0.5,1.3-1.5,0-1.5s-3.6,1.4-5.2,1.3s-2,0-2.6-0.4c-0.6-0.4-0.9-0.7-0.6-1.3c0.3-0.6,0.2-1.1,0-1.2
		C54.4,42.3,53.3,41.9,53.3,41.9z"/>
	<path class="st18" d="M59.6,37.4c0.5,0.5,1.8,1.3,1.1,1.8c-0.7,0.5-1.3,0.1-1.6,1.1c-0.3,1-0.1,0.7-1.3,0.8s-1.9,0.1-2.2-0.6
		s-0.2-2.3-1-2.1s-2-0.6-1.7,0.2c0.2,0.8,0.4-0.2,1.6,0.9c1.2,1.1,2.1,1.9,1.2,2.5c-0.9,0.5,0.2,1.2,0.9,1.6C57,44,55.7,43.7,57,44
		c1.4,0.3,1.9,0.4,2.6,0c0.7-0.4,0.6,0.1,1.6-0.5c1-0.5,2-0.7,1.1-1.1c-0.9-0.4-2.6-1.2-2.2-1.3c0.4-0.2,0.7,0.2,1.6-0.3
		c0.9-0.5,1-1.4,1-1.4s0.3-0.1-0.7-0.9c-1-0.7-1-0.1-1-0.7C60.9,37.2,59.6,37.4,59.6,37.4z"/>
	<path class="st18" d="M55.1,34c0.9-0.4,2.5-1,2.7-0.1s-1,1.9,0,1.5c1-0.4,1.8-0.2,1.8-0.2s0.8,0.1,0.4,0.7
		c-0.5,0.7-1.2,1.4-1.7,0.9c-0.6-0.5-1.2-1.1-1.4-1.2c-0.2-0.1,0.2,0-0.6-0.4C55.3,34.7,55.1,34,55.1,34z"/>
	<path class="st18" d="M48.2,38.4c-0.9-0.7-1.7-1.3-1.2-2.1c0.5-0.8-0.1-1.6-0.5-1.7c-0.5-0.1,0.2-0.8,0-1.2s0.3-0.9,0.4-1.3
		c0-0.4-0.2-1,0.9-1.3c1.1-0.3,1-0.4,2-0.5c1-0.1,1.3-0.5,0.6-0.8c-0.7-0.3-1.1-0.2-2.5,0.3c-1.4,0.5-0.2,0.2-2.1,1
		c-1.9,0.8-2.1,0-2.9,1s0.2,1.2-1.1,1.6s-1.6-0.5-2,0.4c-0.4,1-3.1,1.1-2.1,2c1,0.9,3.4,0.5,3.7,0s1.1-1,1.4-1.2
		c0.2-0.3,0.4-0.8,0.9,0c0.5,0.8-0.6,0.4,0.4,1.2s1.6,1,1.3,1.6s-1,0.3-0.4,1.1c0.6,0.9-1.1,1.3,0.6,0.9
		C47.3,39,48.2,38.4,48.2,38.4z"/>
	<path class="st18" d="M33,39.2c-1.6-0.2-1.6,0.1-2.3-0.7c-0.7-0.7-1-1.5-2-1.1c-1,0.4-1.8,0.4-1.5,0.9c0.3,0.4,1.1,0.8,1.6,0.6
		c0.5-0.2,0.5,0,0.9,0.4s0.3,0.2,1,0.4C31.3,39.7,33,39.2,33,39.2z"/>
	<path class="st18" d="M30,40.3c-0.6,0.1-2.5-0.4-2.6-0.7c-0.1-0.3-0.2-1.4-0.2-1.4s-1.1,0.6-1.7,1.3c-0.6,0.7-1.9,0.2-0.6,0.7
		c1.3,0.5,1.4-0.6,2.1,0s0.4,0.5,1.2,0.7s0.9-0.2,1.7,0S30,40.3,30,40.3z"/>
	<path class="st18" d="M42.3,51c-0.2,0.1-0.9,0.6-1.4,0c-0.5-0.6-1.9-1.2-1.9-1.2v1.5c0,0-2-0.1-1.3,0.3c0.7,0.4,1.2,0.2,2.2,0.4
		c1.1,0.2,1.8,0.4,1.4,1c-0.4,0.6-0.8,0.9,0,1c0.8,0.1,1.6,0.1,1.7,0.6c0.1,0.4,1.5,1.3,0,0.8c-1.5-0.4-2.8-1.3-2.9-1
		s0.4,0.6,1.2,1.1c0.8,0.5,1.3,0.5,1.8,1.1c0.5,0.5,1.2,1.9,0.6,2.1c-0.6,0.1-2.4,0-2.4,0s-1.8-2.2-2.4-1.9
		c-0.6,0.4-0.1,0.9,0.3,1.5s-0.2,1.4-1,0.4c-0.8-1-1.7-1.3-1.1-2.1s1.3-1,1.9-0.8c0.6,0.2,3,2.1,3.2,2c0.3-0.1,1.1-0.5,0-1
		c-1.1-0.5-1.9-1.3-1.9-1.3s-1.8-1.2-1.5-1.6c0.2-0.4,1.6-0.7,0.6-1.1c-1-0.4-1.6-0.2-1.9-0.4C37.4,52.3,37,51,37,51
		s0.3-0.8,0.7-1.2c0.4-0.4,0.8-0.7,1.2-0.9s0.6-0.3,1,0s1.3,0.7,1.5,1s0.2-0.3,0.6,0.4C42.3,51,42.3,51,42.3,51z"/>
	<path class="st18" d="M43.7,51.5c-0.4,0.4-0.8,1.2,0.3,1.3s0.9-0.7,1.5,0c0.6,0.7,1.1,0.9,1.3,0.7c0.2-0.2,0-1.2,0-1.2
		s-0.5-0.7-1.4-0.7C44.6,51.4,43.7,51.5,43.7,51.5z"/>
	<path class="st18" d="M46.8,53.4c-0.4,0.8-1.7,1.1-1.7,1.1c-0.6,1,1,1.4,1.2,1.2c0.2-0.2,0.6-0.3,1.1-0.7c0.5-0.4,1.7-0.4,0.6-1
		C46.8,53.4,46.8,53.4,46.8,53.4z"/>
	<path class="st18" d="M61.2,48.1c-0.5-0.3-2.2-0.4-3.1-0.3s-1.2,1-2.1,0.9c-0.9-0.1-1-0.1-1.4-0.5c-0.5-0.4-0.7-1.1-0.8-0.2
		c-0.1,0.9-3.2,3.3-3.2,3.3s-1.2-0.6-1.5,0s-1.7,0.7,0,1c1.7,0.3,2.1,0.4,2.8,0c0.6-0.4,2.5-1.7,2.6-2.3s0.5,0,1.4,0
		c0.9,0,1.6-0.5,1.6-0.5l0.8-0.9c0,0,0.8,0.1,1.2,0S61.2,48.1,61.2,48.1z"/>
	<path class="st18" d="M60.1,50.2c0.7,0.4-0.1,1.8-0.9,2.3c-0.8,0.5-1.1,0.7-2.2,0.5c-1.1-0.2-0.8-0.5-2.2,0.1
		c-1.4,0.5-1.5,1-2.1,0.9c-0.6-0.1,0-1,0-1s1.4-1.2,1.9-1.3s2.1-0.3,2.1-0.3l1.5-0.4l0.7-0.3L60.1,50.2z"/>
	<path class="st19" d="M38,55.1c-0.8-0.1-1-0.3-1.4-1.1c-0.5-0.8-0.6-2.1-1.7-1.3c-1.1,0.9-2.1,1.7-2.5,1.3s0.3-1-0.4-1.3
		c-0.7-0.2-0.1-0.3-1.5,0s-1.6-0.4-1.8-1.3s0.9-1.2,0-1.7c-0.9-0.6-1.7-1.4-1.6-0.4c0.1,1,1.1,2-0.8,2.2s-1.8-1-1.8-0.4
		s0.4-0.4,0,0.6c-0.4,1-0.4,1,0.9,1.1c1.3,0.1,1.3,0,1.7-0.3c0.4-0.3,2.6,1.6,3,1.5s0.4-0.8,1,0s0.6,1.2,1.7,1.1
		c1.1-0.1,1.2-0.1,1.7-0.5c0.6-0.4,0.5-0.5,0.8,0c0.3,0.5,0.7,1.2,1.1,1.2C37,55.8,38,55.1,38,55.1z"/>
	<path class="st18" d="M35.7,57.2c0.8,0.7,2,1.6,1.3,2.1c-0.7,0.4-1.7,1.8-1.8,0.9s-0.7-1.5-1-1.9c-0.2-0.4-0.7-1.6-1.4-1
		c-0.7,0.5-0.6,0.3-1.8,0.7c-1.2,0.5-0.4,0-1.7-0.2s-3-0.5-2.7-1.1c0.3-0.6-0.1-0.5,0-1.3c0-0.8-0.3-2.5,0.7-1.8s1.1,1,1.6,1.6
		c0.5,0.6,0.2,0.9,1.3,0.7c1.1-0.3,0.5-0.5,1.1-0.3s0.4,0.3,1.2,0.3c0.8,0,2.1-0.2,2.1,0.3C34.6,56.6,35.7,57.2,35.7,57.2z"/>
	<path class="st18" d="M29.8,41.9c-0.6,0.4-1.5,1.4-1.4,1.6s1.4,0.7,1.4,0.7c-0.8,0.7-2.5,0.7-2.7,0c-0.2-0.7-0.5-1.7,0-1.8
		c0.5-0.2,1.2-0.5,1.2-0.5H29.8z"/>
	<path class="st18" d="M25.9,43.6c0.6,0.6,0.9-0.6,1.2,0.6c0.3,1.2,1.7,1.8,0.7,1.8s-0.9-0.5-1.8,0c-1,0.5-1.5,0.1-1,1.2
		c0.5,1,2,0.9,1.5,1.6c-0.5,0.7-0.7,0.9-1.7,1s-2.3-0.8-2.5-1.5c-0.2-0.6-1.1-2.4-0.3-2.5c0.8-0.1,2.3-0.6,2.3-0.6s0.9-0.5,0-1
		c-0.9-0.5-1-0.2-1.3-0.9s-0.4-1.4,0.2-1.4c0.6,0,0.9-0.7,1.2-0.7S25.3,43.1,25.9,43.6z"/>
	<path class="st20" d="M30.2,47.2c0.1,0.3,1.2,2.1,1.7,1.9s0.7-0.2,1.5,0c0.9,0.2,2.4-0.4,2.4-0.4s1.1-2.6,1.2-1.1
		c0.1,1.5,0.3,1.7,0,2.2c-0.3,0.5,0.5,0.9-0.7,1.2s-1.9,0.2-2.6,0c-0.7-0.2-0.5,0.7-1.8,0.2s-0.9-0.2-1.2-1
		c-0.3-0.8,0.6-0.8-0.5-1.4c-1-0.6-1.1-0.6-1.2-1c-0.1-0.4-0.2-0.7,0.5-0.6C30.2,47.2,30.2,47.2,30.2,47.2z"/>
	<path class="st18" d="M35.9,36.3c-0.4,0.1-5.1,4.1-5.3,4.8s-2,0-0.8,0.7c1.1,0.7,2.6,1.9,2.5,0.5c-0.1-1.4,2.9-4.4,3.2-4.6
		s1.5,0.5,1-0.5C35.9,36.3,35.9,36.3,35.9,36.3z"/>
	<path class="st18" d="M35.3,35.1c-0.6-0.1-1.6,0.3-2.3,0.7c-0.6,0.4-1.1-0.9-1.8-0.7s0.4,0.6-1,0.7c-1.4,0.1-1.2,0.3-1.9-0.3
		c-0.7-0.6,0-0.7,0-1.5c0-0.9,1.4-2.6-0.3-1.7c-1.7,0.9-2.1,0.5-2,1.7c0.1,1.2-1.1,1.9-1.1,1.9s-1.3,0.2-0.6,0.1
		c0.6-0.1,3.2-0.4,1.7,0.8c-1.5,1.2-0.3,2.5-1.9,1.6c-1.6-0.8-0.6-2-1.7-2S21,35.1,21,35.1s-0.7-1,0-1.1s2.6-0.2,2.6-0.2
		s0.4-0.4,0.6-0.9c0.2-0.5,0.2-0.5,1.3-0.8c1-0.3,1.1-0.7,2.5-0.9c1.3-0.2,2.7-1,2.7,0.3c0,1.3-0.9,1.9-0.8,2.3
		c0.1,0.4-0.4,1,0.8,0.4c1.2-0.7,1.9-1.2,2.3-0.7s0.8,1.7,1.7,1.1c0.9-0.6,1.5-1.1,1.5-1.1s0.7-0.7,0.8-1.3c0.1-0.5,0.5-0.9,1.1-0.3
		c0.6,0.6,0.6,1,1.2,0.8c0.6-0.2,0.9-0.7,1.2-0.8s1-0.3,0.5,0.5c-0.5,0.7-0.2,1.7-1.2,1.6c-1-0.2-0.3-0.5-1.3,0.2
		c-1,0.7-0.8,0-1.6,0.4C36.1,34.9,35.3,35.1,35.3,35.1z"/>
	<path class="st18" d="M47.3,26.9c-0.5,0.3-1.8,0.1-0.6,0.9c1.1,0.8,0.7,0.8,1.7,0.7c1-0.1,2.7-0.8,2.3,0.1s-2.9,1.2-2.9,1.2
		s-2.6-0.7-2.7-1.1C45,28.2,44.2,27.8,45,27c0.7-0.8,1.7-1,1.7-1s1.5-0.8,1.7-0.9C48.6,25,47.8,26.6,47.3,26.9z"/>
	<path class="st19" d="M57.6,31.3c0.6,0.6,0.2-1,0.8-0.6c0.6,0.3,1.7,0.6,1.7,0.6s1.6-0.1,1.1-0.5c-0.5-0.4-1.7-1.5-1.7-1.5
		s-2.3,2.9-2.7,1.5c-0.4-1.4-0.2-1.7,0-2.4c0.2-0.7,1.1-1.6-0.8-0.7s-4,1-3.6,0.5s0.3-2,0.3-2s0.7-0.7,0-1.2
		c-0.7-0.5-1.5-0.7-1.2-1.7s-0.2-1.2,1.1-0.7s2.8,0.4,2.4,1.1s-0.8,1.4-0.4,0.7c0.4-0.7,2.2,0.3,1.3-0.9c-1-1.2-1.3-1.7-1.7-1.9
		c-0.4-0.2-1.6-0.6-1.6-0.6s-0.5-0.1-1.2,1.1c-0.7,1.3-1.1,0.5-0.8,2.2c0.3,1.7,1.2,2,1.1,2.7c-0.2,0.7-0.7,0.9,0,1
		c0.7,0.1,2.6,2.7,2.9,1.8s0.9-0.9,0.9-0.6C55.6,29.5,57,30.6,57.6,31.3z"/>
	<path class="st18" d="M58.6,31.4c0.3,0.1,3.4,0,3.4,0l-0.8-0.6"/>
	<path class="st18" d="M59.3,26.3c-0.2-0.4-1-1.5-2.1-0.7c-1.2,0.7-2.8-0.1-2.3,0.7s0.5,0.7,1.3,1.5c0.8,0.7,0.4,1.3,1.5,0.9
		c1.2-0.4,2-0.7,2-0.7L59.3,26.3z"/>
	<path class="st20" d="M49.6,23.6c-0.5-0.3-1.2-0.4-2.2,0c-1,0.4-1.3,0.2-1.1,0.8c0.2,0.6,1.9,1.9,0.5,1.6c-1.4-0.3-2.3-0.6-2.1-1.3
		c0.2-0.7,1.2-1.5,1.7-1.8c0.5-0.3,0.5-0.4,1.4-0.7c0.9-0.3,2.6,0.1,2.6,0.4C50.4,22.8,49.6,23.6,49.6,23.6z"/>
	<path class="st21" d="M45.8,22.1c-1.4,0.8-1.5,1.6-2.2,1.7s-2.3,0-2.3,0l1.4,1.3l1.3,1.2c-0.3,1.3,1.2,1.6-0.1,2.2
		c-1.3,0.7-2,1.7-2.8,1.3c-0.9-0.4-1.6-2.3-1.6-2.3s-0.6,1.7-1.5,1.9c-0.9,0.2-1.4,0.1-1.8-0.5c-0.5-0.6-1.4-0.7-1.4-0.7
		s0.1,0.4,0,1.2s-0.2,1.6-1.1,1.6c-1,0-2.8-0.3-2.8-0.7c0-0.4-0.9-1.6-0.7-1.9c0.2-0.2-1.2-1.2,0.5-1.3c1.7-0.1,3,0.8,3.4,0
		s1-1.7,1.6-1.8s0.6,0,1.6,0c1,0,2.8,0.3,2.8-0.2c0-0.5-0.6-1,0.2-1.6c0.7-0.7-0.7-1.1,1.3-0.8c1.9,0.3,2.5,0.3,2.6,0
		c0.1-0.3,0.6-0.5,0.6-0.5H45.8z"/>
	<path class="st18" d="M43.7,29.7c0.2-0.2-4.7-0.6-5.6,0.2c-0.9,0.8-3.3,1.5-4.1,1.5s-1.6,0.2-1.8-0.3c-0.2-0.5-1.5,0.2-1.5,0.2
		s-1.2,1.6,0.6,1.2c1.8-0.4,2.1-0.8,2.5-0.3c0.3,0.5,0.7,1.1,1.1,0.7c0.4-0.4,2.9-1.7,3.7-1.8s4.4-0.3,4.4-0.3S42.2,30.8,43.7,29.7z
		"/>
	<path class="st18" d="M25.5,32c-1.3,0.8-2,0.3-2.5-0.6c-0.6-0.9,0.1-1.4,0-2.2c-0.1-0.8,1.9-1.9,1.9-1.9s1.2,1.8,1.6,1.9
		c0.4,0.1,0.5-1.5,0.4-1.9c-0.1-0.4-1.3-1.4,0.4-2.1s3-0.2,3-0.2s1.6,0.2,1.9-0.6c0.3-0.8-0.4-2.1,0.8-2.4c1.3-0.3,3.9-0.6,4.2-0.5
		c0.2,0.1,1.3,0.2,1.7,0.5c0.4,0.2,1.6,1.1,0.4,1.4C38,23.9,37,23.8,35.6,24c-1.4,0.3-1,0.4-1.7,1c-0.8,0.7-0.2,0.6-2.6,0.9
		c-2.4,0.3-3.2-0.1-2.9,1c0.3,1.1,1.3,0.6,0.6,1.8c-0.6,1.1-1.4,1.7-1.7,1.9C26.9,30.9,25.5,32,25.5,32z"/>
	<path class="st18" d="M21.6,33.1c-0.6-0.6-2.8-1.4-2-2.9c0.9-1.4,1.9-2.5,2.5-2.9c0.6-0.3,1-0.8,1-1.4c-0.1-0.6-0.7-1.2-0.4-2
		c0.3-0.8-0.3-1.2,0.9-1.3c1.1-0.1,1.7,0.1,2.4,0c0.7-0.1,1.2-0.6,1.8-0.7s-0.1-0.8,1.1-0.8c1.2,0,1.9,0.7,2,1.3
		c0.1,0.6,0.9,1.5-0.7,1.4s-1.6-1.1-3.4,0c-1.7,1.1-1.3,1-2,2c-0.6,1-2.4,1.4-2.2,2.3c0.2,0.9-0.6,0-0.8,1.4c-0.2,1.4-0.8,1.6-0.3,2
		C22,32.3,21.6,33.1,21.6,33.1z"/>
	<path class="st18" d="M47.7,21.3c0,0,2.8-1.1,2.1-1.6c-0.7-0.5-0.7-1.2-1.9-0.8c-1.2,0.4-2.1,1.1-2.1,1.1s-0.2,0.5-1.2,0
		s-0.7-0.1-1.7,0.3c-1,0.4-2.2,0.5-2.4,0.2c-0.2-0.3-1.2-1.8-0.7-0.6s0.7,2.9,1.6,2.6c0.9-0.4,2.3-1,2.3-1l1-0.3c0,0,1.3,0,1.6,0
		C46.5,21.3,47.7,21.3,47.7,21.3z"/>
	<path class="st19" d="M43.7,18.3c-0.6-0.9,0.3-1.8-1.3-1.7c-1.6,0.1-2.7-1.1-3.2,0s0.2,1.3-1.1,1.7c-1.3,0.4-1.7,0.1-2.4,0
		c-0.7-0.1-1-1-2.2-0.6c-1.2,0.4-1.7-0.2-1.7,0.8s1.7,1.3-0.3,1.4c-2,0.1-3.9-0.5-2.7,0.3c1.1,0.8,0.3,1.5,1.6,1.4s1,0.1,1.8-0.5
		c0.8-0.6,1.5-1.2,1.8-1c0.3,0.1,0.7,0,1.2,0c0.5,0,0.6,0.1,0.9-0.3c0.3-0.4,1,0.1,2.1-0.4c1.1-0.4,0.9-0.9,1.5-1.2
		c0.5-0.3,0.4-1.2,1.3-0.7c1,0.5,0.4,1,1.2,1.3c0.8,0.3,0.2,0.3,0.8,0.3C43.5,19.1,43.7,18.3,43.7,18.3z"/>
	<path class="st17" d="M76.1,32.1c0.9,0.6,0.6-0.3,1.9-0.4s1.3-0.2,2.3,0c0.9,0.2,2.1,0.3,3.5,0.6s1.6,0.2,3.1,0.9s2.6,1.1,4.1,1.8
		c1.6,0.6,1.9,0.8,3.6,1.9s3.2,2.9,3.2,4.4c0,1.5,0.5,2.5,0.8,3.1c0.3,0.6,1,4.1,0,4.9s-1.7,1.5-1.2,2.4c0.4,0.9,0.9,1.1,0.8,2.1
		c-0.1,0.9-0.5,2.4-0.7,3.4c-0.2,1-0.5,2.3-0.4,3.4c0.1,1.1,1,1.5,0,2.4c-1,0.9-1.9,0.5-1.7,2.2c0.2,1.7,1.5,1-0.1,2.2
		c-1.6,1.1-0.7,0.8-1.9,2c-1.1,1.1-0.4,1.7-2.2,1.7c-1.8,0-3.8,0.9-5.1,1.5c-1.2,0.5-3,1.1-4.1,0.7c-1.1-0.4-0.9,0.3-2.9,0.1
		c-2-0.1-2.5-0.4-3.6-1c-1.1-0.5-2.7-0.9-4-1.6s-1.8-2.9-2.9-3.3c-1.1-0.4-4.5-2.1-5.5-3.3s-3.2-2.8-3-4.7c0.2-1.9,0.8-2.9,0.6-4.2
		c-0.2-1.3,1.2-3.3,0.7-4.4c-0.5-1-1.8-1.7-0.7-3.4c1-1.8,2.8-2.5,3.5-3.6c0.7-1.1,1.5-2.4,2.2-3.6c0.7-1.2,2.6-2.3,3.9-2.7
		s2.2-1.3,2.4-1.8s-0.2-1.2,0.8-1.6s-0.1,0.8,1-0.3C75.8,32.6,76.1,32.1,76.1,32.1z"/>
	<path class="st18" d="M64.6,46.5c-1.2-0.1-1.1,0.3-2.1,0c-1-0.3-2-0.9-1.9,0s-1.7,0.7-0.5,1.3c1.2,0.6,0.9-0.4,1.2,0.6
		c0.3,1,0.8,0.3,0.3,1c-0.5,0.7-0.3,0.7-0.1,1.3c0.1,0.7,1.6,0.9,1.6,0.5c0-0.5,0.4-1.5-0.1-2.1c-0.4-0.6-0.9-1.1-0.9-1.4
		c0-0.3,0.3-0.6,0.9-0.3c0.6,0.3,1.6-0.5,1.6,0.4s-0.8,1.5,0.4,1.3c1.1-0.2,0.9-0.5,0.9-1.1S64.6,46.5,64.6,46.5z"/>
	<path class="st18" d="M64.9,51.5c0.9,0.1,1.3,0.4,2,0c0.6-0.4,0.5-1,1-1.5s0.6-0.5,1.5-0.7c0.9-0.2,1.4-0.9,1.1-1.3
		c-0.4-0.4-1.1-0.5-1.9-0.6c-0.9-0.1-2,0.1-2.1-0.6c-0.1-0.7-0.7-1.1,0.1-1.6c0.9-0.5,1.6-0.9,1.9-0.9s1.8-0.4,2,0.3
		c0.1,0.4,0.4,0.9,0.8,1.2c0.3,0.3,0.7,0.5,1.1,0.3c0.9-0.3,0.7-1.3,1.6-0.5c0.9,0.9,2,2,0.9,2.3c-1.1,0.3-1.7,0.2-2.3-0.3
		c-0.6-0.5-2.1-2.4-3-2.1c-0.9,0.3-1.8,0.6-0.8,0.9c1,0.4,1.2-0.1,2,0.8c0.8,0.9,1.6-0.1,0.8,1.2c-0.8,1.3-0.5,0.1-1.5,1.6
		c-1,1.5-0.9,2-1.4,2.4c-0.6,0.5-1.1,0.9-1.7,0.9c-0.6,0-1.4,0.3-1.8,0c-0.4-0.3-1.4,0-0.9-0.9C64.9,51.5,64.9,51.5,64.9,51.5z"/>
	<path class="st18" d="M71.3,52.9c0.5-0.3,1.5-0.6,2.3,0c0.8,0.6,2.5,0.6,1.9,1.2c-0.7,0.6-2.1,0.4-2,1.1c0.1,0.6-0.9,0.9,0,1
		c0.9,0.1,2.2-0.4,2,0c-0.2,0.4,0.2,1.4-0.7,1.2c-0.9-0.2-2.1-0.8-2.4-1.3c-0.4-0.5,0.3-1.5,0.3-1.5s0-0.8-0.6-0.7
		C71.5,54,71.6,54.7,71,55c-0.6,0.3-2.3-0.3-2.3-0.3s0-0.7,0.4-0.6c0.4,0.1,0.7,0.3,1.3,0.1C70.9,53.9,71.3,52.9,71.3,52.9z"/>
	<path class="st19" d="M85.5,53.4c0.4,0.1,2.3,0.5,2.3,1.3s-0.2,0.9,0.8,1.6c1,0.6,0.8,0,1.1,1.5c0.4,1.5,0.8,1.4-0.4,2.2
		c-1.1,0.8-1.8,2-2.3,1.7s-0.4-0.7,0.2-1.7s0.8-2.4,0.5-2.4c-0.3,0-0.7,1.3-1.2,2.1c-0.6,0.8-1.4,1.6-1.4,0.7s0.1-1,0.4-1.8
		s1-3.1,0.4-1.8C85.2,58,84.8,59,84.8,59s-1.1-0.6-1.5-1.1c-0.4-0.5-0.7-1.1-1.3-1.1s-1.7-1.1-0.5-1.2c1.2-0.1,1.6,0.2,2.1,0.5
		c0.6,0.3,1.2,0.4,1.1-0.3s-0.4-1.9-1.4-1.4c-1,0.5-1.5,1-2,0.6c-0.5-0.4-1.2-1.2-1.3-1.6s0.4-0.8,0-1c-0.4-0.2-1.4,0.2-1.6-0.4
		c-0.1-0.6,0.1-1.3,0.6-1.1c0.6,0.2,1.6-0.1,1.7,1.1c0.1,1.2,0,2.2,0.6,1.8c0.6-0.4,0.2-1,1.2-1.4c1-0.4,0.8-1.1,1-0.4
		s-0.4,1.4,0.7,1.4C85.5,53.4,85.5,53.4,85.5,53.4z"/>
	<path class="st18" d="M78.4,54.3c0,0-0.5-1.6-1.7-0.9c-1.3,0.7-1.6,0.6-1.1,1.6c0.5,1,1.8,1.1,1.7,1.3s-0.3,0.5-0.9,1.2
		c-0.6,0.7,0,0.9-1,0.9c-1,0-1.7-0.2-2.1,0.6s-1.1,1.5-0.6,1.8c0.5,0.4,0.4,0.7,1.9,0.5c1.6-0.2,2-0.1,2.6-0.6
		c0.6-0.6,1.2-1.1,1.3-1.6c0.1-0.4,1.5-1.3,1.2-0.5c-0.3,0.8-1.2,1.1-0.8,1.8s0.6,1,1.2,1c0.6,0,1.6,0.3,2.2,0s1.1-0.2,1.3-0.8
		c0.3-0.6,0.2-1.6,0-1.4s-0.3,0.4-1,0.7c-0.7,0.4-0.7,0.4-1.3,0.2c-0.6-0.2-1.4,0.3-1-0.5s0.6-1.3,0.3-1.8c-0.3-0.4-0.6-0.7-1.3-0.3
		c-0.6,0.4-1.3,0.9-2,1.7c-0.6,0.8-0.1,1.1-1.3,1.2c-1.1,0.1-3.4,0.4-2.4-0.4c1-0.8,0.7-0.4,1.8-0.9c1.1-0.5,1.6-0.8,1.9-1.3
		c0.3-0.5,1.2-1,1.1-1.6s-2.1-1.4-1.6-1.6c0.5-0.2,1.4,0.5,1.5,1.1s1.5,1.2,1.3,0.6S78.4,54.3,78.4,54.3z"/>
	<path class="st19" d="M69.8,55.8c0.9,0.1,2.8,0.4,2.7,1.2c-0.1,0.8-0.7,1.4-0.8,2.4s-0.2,1.7,0.8,2s2.1-0.2,2.1-0.2
		s2.2,0.1,2.8,0.3c0.6,0.2,0.6,0.5,1.1,0.5c0.5,0,1.2-1.4,1.6-0.8s0.8,1.1,0,1.5c-0.8,0.4-0.9,1-1.6,0.4c-0.7-0.6-1.2-1.2-1.9-1
		c-0.6,0.2-1.8,0-1.4,0.6c0.4,0.6,2.1,0.4,2,0.7s-0.6,1.2-1.5,1c-0.9-0.1-1.8-0.6-1.9-1c-0.1-0.4-0.7-0.1-1.2,0s-1.7,0.4-1.8,0
		c-0.1-0.4,2.2-0.9,1.8-1.1c-0.4-0.2-0.4-0.5-1.2-0.7c-0.8-0.2-1.8,0-1.5-0.6s0.8-1,0.9-1.5c0.1-0.5,0.4-1.6-0.1-2.2
		c-0.4-0.6-1.2,0.3-1.2,0.3s1.5,1.4,0.4,2c-1.1,0.6-0.5,0.9-2.1,0.9s-2.7-0.5-2.7-0.5s-2.6-1.4-2.8-1.1c-0.2,0.3-0.9,0.6-1.1,0.1
		s-1.1-1.4,0-1.4s3.2,1.3,4.6,1.3c1.4-0.1,1.8,0,2.3-0.4c0.5-0.4,0.8-0.7,0.5-1.2s-0.2-1,0-1.2C68.8,56.1,69.8,55.8,69.8,55.8z"/>
	<path class="st18" d="M64.2,51.5c-0.5,0.5-1.6,1.3-1,1.7c0.6,0.5,1.1,0.1,1.4,1.1s0.1,0.7,1.2,0.7c1.1,0.1,1.7,0.1,2-0.6
		c0.3-0.6,0.2-2.2,0.9-2c0.7,0.2,1.8-0.6,1.6,0.2c-0.2,0.8-0.4-0.2-1.4,0.8c-1.1,1-1.8,1.9-1.1,2.4c0.8,0.5-0.2,1.1-0.8,1.6
		c-0.6,0.4,0.6,0.1-0.6,0.4c-1.2,0.3-1.7,0.4-2.3,0c-0.6-0.4-0.6,0.1-1.4-0.4c-0.9-0.5-1.8-0.7-1-1.1s2.3-1.1,2-1.3
		s-0.6,0.2-1.4-0.3c-0.8-0.5-0.9-1.3-0.9-1.3s-0.3-0.1,0.6-0.8c0.9-0.7,0.9-0.1,0.9-0.7C63.1,51.2,64.2,51.5,64.2,51.5z"/>
	<path class="st18" d="M68.2,48.2c-0.8-0.4-2.3-1-2.4-0.1c-0.2,0.9,0.9,1.8,0,1.4c-0.9-0.4-1.6-0.2-1.6-0.2s-0.8,0.1-0.3,0.7
		c0.4,0.6,1.1,1.3,1.6,0.9c0.5-0.5,1.1-1,1.3-1.2s-0.2,0,0.6-0.4C68.1,48.9,68.2,48.2,68.2,48.2z"/>
	<path class="st18" d="M74.4,52.4c0.8-0.7,1.5-1.2,1.1-2c-0.4-0.8,0.1-1.5,0.5-1.6c0.4-0.1-0.2-0.7,0-1.2c0.2-0.4-0.3-0.9-0.3-1.3
		c0-0.4,0.2-0.9-0.8-1.2c-1-0.3-0.9-0.4-1.8-0.5c-0.9-0.1-1.2-0.5-0.5-0.8c0.7-0.3,1-0.2,2.2,0.3c1.2,0.5,0.1,0.2,1.8,1s1.9,0,2.6,1
		c0.6,1-0.1,1.2,1,1.5c1.1,0.4,1.4-0.5,1.8,0.4c0.4,0.9,2.8,1.1,1.9,1.9c-0.9,0.8-3,0.5-3.3,0c-0.3-0.5-1-0.9-1.2-1.2
		c-0.2-0.3-0.4-0.8-0.8,0s0.5,0.4-0.4,1.2c-0.9,0.8-1.4,1-1.1,1.5s0.9,0.3,0.4,1.1c-0.6,0.8,1,1.2-0.6,0.8S74.4,52.4,74.4,52.4z"/>
	<path class="st18" d="M88,53.2c1.4-0.2,1.5,0.1,2.1-0.6c0.6-0.7,0.9-1.5,1.7-1.1c0.9,0.4,1.6,0.4,1.3,0.8c-0.3,0.4-1,0.8-1.4,0.6
		c-0.4-0.2-0.4,0-0.8,0.4c-0.4,0.3-0.3,0.2-0.9,0.3C89.5,53.7,88,53.2,88,53.2z"/>
	<path class="st18" d="M90.6,54.3c0.5,0.1,2.3-0.4,2.3-0.7s0.2-1.3,0.2-1.3s1,0.6,1.6,1.3c0.6,0.7,1.7,0.2,0.6,0.7
		c-1.1,0.5-1.3-0.6-1.8,0c-0.6,0.6-0.4,0.4-1.1,0.7c-0.7,0.3-0.8-0.2-1.5,0C90.2,55.2,90.6,54.3,90.6,54.3z"/>
	<path class="st18" d="M79.6,64.5c0.2,0.1,0.8,0.6,1.3,0c0.4-0.6,1.7-1.1,1.7-1.1v1.4c0,0,1.8-0.1,1.2,0.3c-0.6,0.4-1.1,0.2-2,0.4
		c-0.9,0.2-1.6,0.4-1.3,0.9c0.3,0.6,0.7,0.9,0,1S79,67.5,79,68c-0.1,0.4-1.3,1.2,0,0.8s2.5-1.3,2.6-0.9c0.1,0.4-0.3,0.5-1.1,1
		s-1.1,0.5-1.6,1c-0.4,0.5-1.1,1.8-0.5,2c0.5,0.1,2.1,0,2.1,0s1.6-2.1,2.2-1.8c0.6,0.4,0.1,0.9-0.3,1.4c-0.4,0.6,0.2,1.3,0.9,0.4
		c0.7-0.9,1.5-1.3,0.9-2c-0.5-0.7-1.2-1-1.7-0.8c-0.6,0.2-2.6,2.1-2.9,1.9c-0.2-0.1-1-0.5,0-1c1-0.5,1.7-1.2,1.7-1.2
		s1.6-1.1,1.4-1.5s-1.4-0.7-0.6-1.1c0.9-0.4,1.4-0.2,1.7-0.4c0.2-0.2,0.6-1.4,0.6-1.4s-0.3-0.7-0.6-1.1c-0.3-0.4-0.8-0.6-1.1-0.9
		c-0.4-0.2-0.6-0.3-0.9,0c-0.3,0.3-1.2,0.7-1.3,1c-0.2,0.3-0.2-0.3-0.5,0.4C79.6,64.5,79.6,64.5,79.6,64.5z"/>
	<path class="st18" d="M78.4,64.9c0.3,0.4,0.7,1.1-0.3,1.2c-1,0.1-0.8-0.7-1.4,0c-0.6,0.7-1,0.9-1.2,0.6c-0.2-0.2,0-1.1,0-1.1
		s0.5-0.6,1.3-0.7S78.4,64.9,78.4,64.9z"/>
	<path class="st18" d="M75.6,66.8c0.3,0.8,1.6,1.1,1.6,1.1c0.5,1-0.9,1.3-1.1,1.1c-0.2-0.2-0.6-0.3-1-0.6s-1.5-0.4-0.5-1
		S75.6,66.8,75.6,66.8z"/>
	<path class="st18" d="M62.8,61.7c0.5-0.3,2-0.4,2.7-0.3c0.8,0.1,1.1,1,1.8,0.9c0.8-0.1,0.9-0.1,1.3-0.5c0.4-0.3,0.6-1,0.7-0.2
		c0.1,0.9,2.8,3.2,2.8,3.2s1.1-0.5,1.3,0s1.6,0.7,0,1s-1.9,0.4-2.5,0c-0.6-0.4-2.2-1.6-2.3-2.2s-0.4,0-1.2,0c-0.8,0-1.4-0.5-1.4-0.5
		l-0.7-0.9c0,0-0.7,0.1-1.1,0C63.8,62.2,62.8,61.7,62.8,61.7z"/>
	<path class="st18" d="M63.7,63.7c-0.6,0.3,0.1,1.7,0.8,2.2c0.7,0.5,1,0.7,2,0.5s0.7-0.5,2,0.1c1.3,0.5,1.3,1,1.9,0.9s0-0.9,0-0.9
		s-1.2-1.1-1.7-1.2c-0.5-0.1-1.8-0.3-1.8-0.3l-1.3-0.4l-0.6-0.3L63.7,63.7z"/>
	<path class="st19" d="M83.4,68.4c0.7-0.1,0.9-0.3,1.3-1.1c0.4-0.8,0.5-2,1.5-1.2c1,0.8,1.8,1.6,2.2,1.2c0.4-0.4-0.3-1,0.4-1.2
		s0.1-0.3,1.3,0c1.2,0.3,1.4-0.4,1.6-1.2c0.2-0.8-0.8-1.1,0-1.7c0.8-0.6,1.6-1.3,1.5-0.4s-1,1.9,0.7,2.1c1.6,0.2,1.6-0.9,1.6-0.4
		c0,0.6-0.3-0.4,0,0.6c0.3,1,0.3,1-0.8,1.1c-1.1,0.1-1.2,0-1.5-0.3c-0.3-0.2-2.3,1.6-2.6,1.5s-0.4-0.8-0.9,0
		C89,68.1,89,68.5,88,68.4c-1-0.1-1.1-0.1-1.6-0.5c-0.5-0.4-0.4-0.5-0.7,0s-0.6,1.1-1,1.1C84.4,69,83.4,68.4,83.4,68.4z"/>
	<path class="st18" d="M85.6,70.4c-0.7,0.7-1.8,1.6-1.1,2c0.7,0.4,1.5,1.7,1.6,0.9c0.1-0.9,0.6-1.4,0.9-1.8c0.2-0.4,0.6-1.5,1.3-1
		c0.6,0.5,0.5,0.2,1.6,0.7c1,0.4,0.4,0,1.5-0.2c1.1-0.2,2.7-0.5,2.4-1.1c-0.3-0.6,0.1-0.5,0-1.3c0-0.8,0.3-2.4-0.6-1.7s-1,1-1.4,1.5
		c-0.4,0.6-0.2,0.9-1.1,0.6s-0.4-0.5-1-0.3C89.1,69,89.3,69,88.6,69c-0.7,0-1.8-0.2-1.9,0.3C86.6,69.8,85.6,70.4,85.6,70.4z"/>
	<path class="st18" d="M90.8,55.8c0.5,0.4,1.3,1.3,1.2,1.6c-0.1,0.2-1.2,0.7-1.2,0.7c0.7,0.7,2.2,0.7,2.4,0c0.2-0.7,0.4-1.6,0-1.7
		c-0.4-0.1-1.1-0.5-1.1-0.5H90.8z"/>
	<path class="st18" d="M94.3,57.4c-0.5,0.5-0.8-0.6-1.1,0.6c-0.3,1.2-1.5,1.7-0.6,1.7c0.9,0,0.8-0.5,1.6,0c0.9,0.5,1.3,0.1,0.9,1.1
		c-0.4,1-1.8,0.9-1.4,1.5c0.4,0.6,0.6,0.9,1.5,1s2.1-0.8,2.3-1.4c0.2-0.6,1-2.3,0.3-2.4c-0.7-0.1-2.1-0.6-2.1-0.6s-0.8-0.4,0-1
		c0.8-0.5,0.9-0.2,1.1-0.9c0.3-0.7,0.4-1.4-0.2-1.4c-0.6,0-0.8-0.7-1.1-0.7C95.4,55.1,94.8,56.9,94.3,57.4z"/>
	<path class="st20" d="M90.5,60.9c-0.1,0.3-1.1,2.1-1.5,1.8c-0.4-0.2-0.6-0.2-1.4,0c-0.8,0.2-2.1-0.4-2.1-0.4s-1-2.5-1.1-1
		c-0.1,1.4-0.2,1.6,0,2.1c0.2,0.5-0.4,0.9,0.7,1.1c1.1,0.3,1.7,0.2,2.3,0c0.7-0.2,0.4,0.7,1.6,0.2c1.2-0.5,0.8-0.2,1.1-1
		c0.3-0.8-0.5-0.8,0.4-1.3c0.9-0.6,1-0.5,1.1-0.9c0.1-0.4,0.2-0.7-0.4-0.6C90.5,60.9,90.5,60.9,90.5,60.9z"/>
	<path class="st18" d="M85.4,50.4c0.4,0.1,4.6,4,4.7,4.6c0.1,0.7,1.7,0,0.8,0.7s-2.3,1.8-2.3,0.5c0.1-1.3-2.6-4.3-2.8-4.4
		c-0.3-0.1-1.3,0.4-0.9-0.5C85.4,50.4,85.4,50.4,85.4,50.4z"/>
	<path class="st18" d="M85.9,49.3c0.6-0.1,1.5,0.3,2,0.7s1-0.8,1.6-0.7s-0.3,0.6,0.9,0.7c1.3,0.1,1.1,0.2,1.7-0.3
		c0.6-0.6,0-0.6,0-1.5s-1.3-2.5,0.3-1.6s1.9,0.5,1.8,1.6s1,1.8,1,1.8s1.1,0.2,0.6,0.1c-0.6-0.1-2.9-0.4-1.5,0.8s0.2,2.4,1.7,1.6
		c1.5-0.8,0.6-2,1.5-2c0.9,0,1.2-1.2,1.2-1.2s0.7-1,0-1S96.4,48,96.4,48s-0.4-0.4-0.6-0.9c-0.2-0.5-0.2-0.5-1.1-0.8
		c-0.9-0.3-1-0.7-2.2-0.9s-2.4-0.9-2.4,0.3c0,1.2,0.8,1.8,0.8,2.2s0.3,1-0.8,0.4c-1.1-0.6-1.7-1.1-2.1-0.6c-0.4,0.5-0.7,1.6-1.5,1
		c-0.8-0.6-1.3-1-1.3-1s-0.7-0.7-0.7-1.2c-0.1-0.5-0.4-0.9-1-0.3c-0.6,0.5-0.6,1-1.1,0.7s-0.8-0.6-1.1-0.7c-0.3-0.1-0.9-0.2-0.5,0.5
		c0.4,0.7,0.1,1.6,1.1,1.5c0.9-0.1,0.3-0.4,1.1,0.2c0.9,0.6,0.7,0,1.4,0.4C85.1,49,85.9,49.3,85.9,49.3z"/>
	<path class="st18" d="M75.1,41.4c0.4,0.3,1.6,0.1,0.6,0.9c-1,0.8-0.6,0.8-1.6,0.6s-2.4-0.8-2,0.1c0.4,0.9,2.6,1.1,2.6,1.1
		s2.3-0.6,2.4-1.1c0.1-0.4,0.8-0.8,0.1-1.6s-1.6-1-1.6-1s-1.4-0.8-1.5-0.9C74,39.6,74.7,41.1,75.1,41.4z"/>
	<path class="st19" d="M66,45.6c-0.5,0.6-0.2-0.9-0.7-0.6c-0.5,0.3-1.5,0.6-1.5,0.6s-1.4-0.1-1-0.4c0.4-0.4,1.5-1.5,1.5-1.5
		s2,2.8,2.4,1.5c0.4-1.3,0.2-1.6,0-2.3c-0.2-0.6-1-1.6,0.7-0.7s3.6,1,3.2,0.5s-0.2-1.9-0.2-1.9s-0.6-0.6,0-1.1s1.3-0.7,1-1.6
		s0.2-1.1-1-0.6c-1.2,0.5-2.5,0.3-2.2,1s0.7,1.4,0.4,0.7s-2,0.3-1.1-0.9c0.9-1.1,1.1-1.6,1.5-1.8c0.4-0.2,1.4-0.6,1.4-0.6
		s0.5-0.1,1.1,1.1c0.6,1.2,0.9,0.5,0.7,2.1s-1.1,1.9-1,2.6c0.1,0.6,0.6,0.9,0,1c-0.6,0.1-2.3,2.6-2.6,1.7s-0.8-0.8-0.8-0.6
		S66.5,45,66,45.6z"/>
	<path class="st18" d="M65.1,45.8c-0.3,0.1-3,0-3,0l0.7-0.6"/>
	<path class="st18" d="M64.5,40.8c0.2-0.4,0.9-1.4,1.9-0.7c1.1,0.7,2.5-0.1,2,0.7c-0.4,0.8-0.4,0.7-1.1,1.4
		c-0.7,0.7-0.3,1.3-1.4,0.9c-1-0.4-1.8-0.7-1.8-0.7L64.5,40.8z"/>
	<path class="st20" d="M73.2,38.2c0.4-0.3,1.1-0.4,2,0c0.9,0.4,1.1,0.2,1,0.8c-0.1,0.6-1.7,1.8-0.4,1.5c1.3-0.3,2.1-0.6,1.8-1.2
		c-0.2-0.7-1.1-1.5-1.5-1.7c-0.4-0.3-0.4-0.4-1.2-0.6c-0.8-0.3-2.3,0.1-2.3,0.4C72.5,37.5,73.2,38.2,73.2,38.2z"/>
	<path class="st21" d="M76.5,36.8c1.3,0.8,1.3,1.5,1.9,1.6c0.6,0.1,2,0,2,0l-1.3,1.3l-1.1,1.1c0.3,1.2-1.1,1.5,0.1,2.1
		c1.2,0.6,1.7,1.6,2.5,1.2c0.8-0.4,1.4-2.2,1.4-2.2s0.6,1.6,1.3,1.8c0.8,0.2,1.2,0.1,1.6-0.5c0.4-0.6,1.2-0.6,1.2-0.6
		s-0.1,0.4,0,1.1c0.1,0.7,0.1,1.5,1,1.5c0.9,0,2.5-0.3,2.5-0.6c0-0.4,0.8-1.6,0.7-1.8s1.1-1.1-0.4-1.2s-2.7,0.7-3,0
		s-0.9-1.6-1.4-1.7c-0.5-0.1-0.5,0-1.4,0c-0.9,0-2.5,0.3-2.5-0.2s0.5-0.9-0.1-1.6c-0.6-0.6,0.6-1.1-1.1-0.8c-1.7,0.3-2.2,0.3-2.3,0
		c-0.1-0.3-0.6-0.5-0.6-0.5H76.5z"/>
	<path class="st18" d="M78.4,44.1c-0.2-0.2,4.2-0.6,5,0.2c0.8,0.8,2.9,1.5,3.6,1.5c0.7,0,1.4,0.2,1.6-0.3s1.4,0.2,1.4,0.2
		s1.1,1.5-0.5,1.1c-1.6-0.4-1.9-0.8-2.2-0.3c-0.3,0.5-0.6,1.1-1,0.7c-0.4-0.4-2.6-1.7-3.3-1.7c-0.7-0.1-4-0.3-4-0.3
		S79.7,45.2,78.4,44.1z"/>
	<path class="st18" d="M94.7,46.3c1.1,0.8,1.8,0.3,2.3-0.5c0.5-0.9-0.1-1.3,0-2.1s-1.7-1.8-1.7-1.8s-1.1,1.7-1.4,1.8
		c-0.3,0.1-0.4-1.4-0.3-1.8c0.1-0.4,1.1-1.3-0.3-2c-1.5-0.7-2.7-0.2-2.7-0.2s-1.5,0.2-1.7-0.6s0.4-2-0.8-2.3s-3.5-0.5-3.7-0.5
		c-0.2,0.1-1.1,0.2-1.5,0.5c-0.4,0.2-1.4,1-0.4,1.4c1.1,0.4,2,0.2,3.3,0.5c1.3,0.3,0.9,0.3,1.6,1s0.2,0.6,2.3,0.9
		c2.1,0.3,2.9,0,2.6,1s-1.1,0.6-0.5,1.7c0.6,1.1,1.3,1.6,1.5,1.8C93.4,45.2,94.7,46.3,94.7,46.3z"/>
	<path class="st18" d="M98.2,47.4c0.5-0.6,2.5-1.4,1.8-2.7c-0.8-1.3-1.7-2.4-2.3-2.7s-0.9-0.7-0.9-1.3c0.1-0.6,0.6-1.2,0.3-1.9
		s0.2-1.1-0.8-1.2s-1.5,0.1-2.1,0s-1.1-0.5-1.6-0.7s0.1-0.8-1-0.8c-1.1,0-1.7,0.7-1.8,1.3c-0.1,0.6-0.8,1.4,0.6,1.4
		c1.5-0.1,1.4-1.1,3,0s1.2,0.9,1.8,1.9c0.6,1,2.1,1.3,1.9,2.2s0.6,0,0.7,1.3c0.1,1.4,0.7,1.5,0.3,2S98.2,47.4,98.2,47.4z"/>
	<path class="st18" d="M74.8,36c0,0-2.5-1-1.9-1.5s0.6-1.1,1.7-0.8s1.9,1.1,1.9,1.1s0.2,0.4,1.1,0c0.9-0.4,0.6-0.1,1.5,0.3
		c0.9,0.4,2,0.5,2.2,0.2c0.2-0.3,1.1-1.7,0.6-0.5c-0.5,1.2-0.6,2.8-1.4,2.5c-0.8-0.4-2-1-2-1L77.6,36c0,0-1.2,0-1.4,0
		C75.9,36,74.8,36,74.8,36z"/>
	<path class="st19" d="M78.4,33.2c0.5-0.9-0.2-1.7,1.2-1.6s2.4-1.1,2.8,0c0.4,1.1-0.1,1.3,1,1.6s1.5,0.1,2.1,0s0.9-0.9,2-0.6
		c1.1,0.4,1.5-0.2,1.6,0.7c0.1,1-1.5,1.2,0.3,1.3c1.8,0.1,3.4-0.5,2.4,0.3c-1,0.8-0.3,1.4-1.5,1.3c-1.2-0.1-0.9,0.1-1.6-0.5
		s-1.3-1.1-1.6-1s-0.6,0-1.1,0c-0.4,0-0.6,0.1-0.8-0.3c-0.3-0.4-0.9,0.1-1.8-0.4c-1-0.4-0.8-0.9-1.3-1.1c-0.5-0.3-0.3-1.1-1.2-0.6
		c-0.9,0.5-0.4,0.9-1.1,1.3C79.2,34,79.7,34,79.2,34C78.6,34,78.4,33.2,78.4,33.2z"/>
	<path class="st17" d="M59.1,89.6c-1,0.1-0.2,0.6-1.1,1.5c-0.8,0.8-0.8,1-1.6,1.4s-1.6,1.1-2.9,1.8s-1.2,0.8-2.8,1.3
		c-1.5,0.5-2.5,0.8-4,1.3c-1.5,0.5-1.8,0.6-3.7,0.9c-1.9,0.4-4.1,0-5-1.1c-0.9-1-1.9-1.4-2.5-1.7s-3.3-2.3-3-3.4s0.3-2.1-0.6-2.5
		c-0.9-0.4-1.4-0.2-1.9-0.9s-1.1-2-1.6-2.9c-0.5-0.9-1.1-1.9-1.8-2.7C25.9,82,25,82.3,25.2,81c0.1-1.3,1-1.5-0.2-2.6
		s-1.7,0.2-1.3-1.6c0.4-1.8,0-1,0.1-2.5c0.1-1.5-0.7-1.4,0.5-2.5s2.1-3,2.7-4.2c0.6-1.1,1.4-2.7,2.5-3.1s0.5-0.8,2-1.9
		c1.5-1.1,2-1.2,3.2-1.6c1.1-0.3,2.5-1,3.8-1.4s3,0.9,4.1,0.5c1.1-0.4,4.4-1.3,5.9-1.1c1.5,0.2,4,0,5,1.4c1,1.4,1.2,2.6,2.2,3.4
		c1,0.8,1.2,3.1,2.2,3.5s2.3,0.1,2.6,2c0.4,1.9-0.4,3.5-0.2,4.7c0.2,1.3,0.5,2.6,0.7,3.9c0.3,1.3-0.4,3.2-1.1,4.3s-0.7,2.3-0.6,2.7
		c0.1,0.4,0.9,0.7,0.4,1.6c-0.5,0.9-0.4-0.6-0.5,0.9C59,89.1,59.1,89.6,59.1,89.6z"/>
	<path class="st18" d="M58.3,72.3c0.9-0.7,0.6-0.9,1.4-1.3c0.9-0.4,2-0.7,1.4-1.2c-0.6-0.5,0.8-1.6-0.4-1.2
		c-1.3,0.3-0.4,0.8-1.3,0.3c-0.8-0.5-0.7,0.3-0.8-0.5c-0.1-0.8-0.2-0.6-0.7-1c-0.5-0.4-1.7,0.4-1.4,0.7s0.7,1.3,1.3,1.4
		c0.7,0.1,1.3,0.3,1.5,0.4c0.2,0.2,0.2,0.6-0.5,0.8c-0.6,0.2-0.8,1.4-1.3,0.7c-0.5-0.6-0.4-1.5-1-0.7c-0.7,0.9-0.3,0.9,0.1,1.3
		C56.9,72.4,58.3,72.3,58.3,72.3z"/>
	<path class="st18" d="M54.9,69.1c-0.7,0.5-1.2,0.6-1.4,1.2c-0.2,0.7,0.2,1,0.2,1.7c0,0.7-0.1,0.7-0.6,1.4c-0.5,0.7-0.5,1.5,0,1.6
		c0.5,0.1,1.1-0.3,1.7-0.8c0.6-0.5,1.4-1.3,1.8-0.8c0.5,0.5,1.2,0.3,0.9,1.2c-0.3,0.9-0.6,1.6-0.8,1.8c-0.2,0.3-1,1.4-1.6,1.1
		c-0.3-0.2-0.8-0.4-1.3-0.4c-0.4,0-0.8,0.1-1,0.5c-0.5,0.8,0.3,1.4-0.9,1.3c-1.2,0-2.6-0.2-2.1-1s1.1-1.2,1.8-1.3
		c0.8,0,3,0.4,3.4-0.3c0.4-0.7,0.9-1.5,0-1.2c-0.9,0.4-0.8,0.8-1.9,0.7c-1.1-0.1-1.1,1-1.3-0.4c-0.2-1.4,0.3-0.4,0.1-2
		c-0.2-1.7-0.6-1.9-0.5-2.6s0.2-1.3,0.7-1.7s0.8-1.1,1.3-1.1s1-0.9,1.1,0.1C54.9,69.1,54.9,69.1,54.9,69.1z"/>
	<path class="st18" d="M49.5,72c-0.2,0.5-0.7,1.4-1.6,1.4c-0.9,0-2.1,1.2-2.1,0.3s1.2-1.6,0.7-2c-0.5-0.4,0.1-1.2-0.6-0.7
		c-0.7,0.5-1.3,1.6-1.4,1.2s-1-0.9-0.2-1.3c0.8-0.4,1.9-0.7,2.5-0.6c0.6,0.1,0.7,1.2,0.7,1.2s0.5,0.5,0.8,0.1s-0.2-0.8,0.1-1.4
		c0.3-0.6,1.8-1.2,1.8-1.2s0.4,0.5,0.1,0.7c-0.3,0.2-0.7,0.2-0.9,0.7C49.2,71.1,49.5,72,49.5,72z"/>
	<path class="st19" d="M39.3,80.5c-0.3,0.2-1.9,1.1-2.4,0.5s-0.4-0.8-1.5-0.6c-1.1,0.2-0.5,0.5-1.7-0.3c-1.2-0.8-1.4-0.5-1.1-1.8
		c0.3-1.3,0.1-2.5,0.5-2.6s0.7,0.3,0.9,1.3c0.2,1.1,0.9,2.2,1.1,2c0.2-0.2-0.4-1.3-0.5-2.2c-0.1-0.9,0-2,0.6-1.4
		c0.5,0.6,0.6,0.7,0.9,1.5c0.3,0.7,1.2,2.8,0.9,1.5c-0.3-1.2-0.7-2.3-0.7-2.3s1.1-0.2,1.8-0.1c0.6,0.1,1.2,0.3,1.6-0.1
		c0.4-0.4,1.9-0.3,1.1,0.5c-0.8,0.8-1.2,0.8-1.8,1s-1.1,0.5-0.6,0.9c0.5,0.5,1.5,1.1,1.9,0.1c0.4-1,0.4-1.6,1-1.6
		c0.6,0,1.6,0.1,1.9,0.3s0.3,0.8,0.6,0.7c0.4-0.1,0.8-1.1,1.3-0.7c0.5,0.4,0.8,1,0.3,1.2c-0.5,0.2-1.1,1.1-1.9,0.3
		c-0.8-0.8-1.4-1.5-1.6-0.9c-0.2,0.7,0.5,0.8,0,1.7s0.1,1.3-0.5,0.9s-0.6-1.3-1.4-0.5S39.3,80.5,39.3,80.5z"/>
	<path class="st18" d="M43.7,75.5c0,0,1.3,0.8,1.8-0.5c0.4-1.3,0.7-1.4-0.2-1.8c-0.9-0.4-1.9,0.4-2,0.2c0-0.2-0.1-0.5-0.1-1.3
		c0-0.8-0.5-0.6,0.2-1.3c0.7-0.6,1.3-0.9,1.1-1.7c-0.2-0.8-0.1-1.8-0.7-1.7c-0.6,0.1-0.7-0.3-1.7,0.8c-1,1.1-1.4,1.3-1.4,2
		c0,0.8-0.1,1.5,0.1,1.9s-0.3,1.8-0.5,1.1c-0.3-0.7,0.2-1.5-0.5-1.7c-0.7-0.2-1-0.3-1.5,0.1c-0.5,0.4-1.3,0.8-1.5,1.4
		s-0.6,0.8-0.5,1.4c0.2,0.6,0.8,1.2,0.9,1c0.1-0.2,0-0.4,0.3-1.1c0.3-0.7,0.2-0.7,0.8-0.9c0.5-0.2,0.8-1.1,1-0.3
		c0.2,0.8,0.4,1.3,0.9,1.4c0.5,0.1,0.9,0.1,1.1-0.6s0.4-1.5,0.4-2.4s-0.6-0.9,0.1-1.6c0.8-0.8,2.1-2.4,1.9-1.3
		c-0.2,1.2-0.3,0.7-0.7,1.7c-0.5,1-0.7,1.6-0.5,2.1s-0.2,1.4,0.2,1.8c0.4,0.3,2.4-0.3,2.1,0.2s-1.3,0.5-1.7,0.2
		c-0.4-0.3-1.8,0.1-1.3,0.4C42.1,75.2,43.7,75.5,43.7,75.5z"/>
	<path class="st19" d="M48.8,69.1c-0.6,0.5-2.2,1.4-2.6,0.8s-0.4-1.4-1-2.2c-0.6-0.7-0.9-1.3-1.8-1c-0.9,0.3-1.3,1.4-1.3,1.4
		s-1.6,1.3-2.1,1.5c-0.5,0.2-0.8,0-1.1,0.3c-0.3,0.3,0,1.7-0.6,1.6c-0.6-0.2-1.2-0.3-0.9-1.1c0.3-0.8,0-1.3,0.9-1.3
		c0.8,0,1.6,0.1,1.9-0.5c0.3-0.5,1.2-1.1,0.6-1.3s-1.7,1-1.8,0.8c-0.1-0.2-0.3-1.2,0.4-1.7c0.8-0.5,1.6-0.7,1.9-0.5
		c0.3,0.3,0.6-0.3,0.9-0.8c0.3-0.4,1-1.3,1.3-1.1c0.3,0.2-1,2-0.6,1.9c0.4-0.1,0.6,0.1,1.2-0.3c0.7-0.4,1.2-1.1,1.4-0.5
		c0.2,0.6,0.1,1.2,0.3,1.6c0.3,0.4,0.7,1.3,1.4,1.5c0.7,0.2,0.6-1,0.6-1s-1.9-0.1-1.5-1.1c0.4-1.1-0.2-1,0.9-1.9
		c1.1-0.9,2.2-1.4,2.2-1.4s2.7-0.6,2.6-0.9c0-0.3,0.3-1,0.7-0.8s1.7,0.3,0.9,1c-0.8,0.7-3.1,1.1-4,2s-1.3,1.1-1.4,1.7
		c-0.1,0.6-0.1,0.9,0.4,1.2c0.6,0.2,0.8,0.6,0.7,0.8S48.8,69.1,48.8,69.1z"/>
	<path class="st18" d="M55.5,68.6c0-0.6,0.3-1.9-0.4-1.8c-0.8,0.1-0.9,0.6-1.7,0.1c-0.8-0.5-0.5-0.4-1.3,0.2c-0.8,0.6-1.2,1-1,1.6
		s1.2,1.7,0.6,2c-0.6,0.3-0.9,1.5-1.2,0.9c-0.3-0.7,0.4-0.1,0.5-1.5c0.1-1.4,0.1-2.5-0.7-2.3c-0.9,0.1-0.5-0.9-0.4-1.6
		c0.1-0.7-0.5,0.3,0.1-0.7c0.7-0.9,1-1.3,1.6-1.4s0.4-0.4,1.3-0.6c0.9-0.2,1.7-0.6,1.4,0.1c-0.3,0.7-1,2.2-0.6,2.1
		c0.3-0.1,0.3-0.5,1.2-0.7c0.8-0.2,1.4,0.4,1.4,0.4s0.3-0.1,0.1,1c-0.2,1.1-0.6,0.6-0.2,1.1S55.5,68.6,55.5,68.6z"/>
	<path class="st18" d="M54.7,73.4c0.8-0.2,2.2-0.7,1.8-1.4c-0.4-0.7-1.7-0.7-0.9-1s1.3-0.8,1.3-0.8s0.5-0.5-0.2-0.7
		c-0.7-0.2-1.6-0.3-1.6,0.4c-0.1,0.6-0.1,1.4-0.2,1.6c-0.1,0.2,0.1-0.2-0.2,0.6C54.4,72.8,54.7,73.4,54.7,73.4z"/>
	<path class="st18" d="M47.7,74.3c-0.1,1-0.3,1.8,0.5,2.1c0.8,0.3,0.9,1.1,0.7,1.4c-0.2,0.3,0.6,0.4,0.7,0.8c0.1,0.4,0.7,0.4,1,0.7
		c0.3,0.3,0.4,0.8,1.3,0.3c0.9-0.4,0.9-0.3,1.6-0.8c0.7-0.4,1.1-0.4,0.9,0.2c-0.3,0.6-0.6,0.8-1.7,1.2c-1.2,0.4-0.2-0.1-1.9,0.4
		c-1.7,0.5-1.3,1.2-2.4,0.9c-1-0.3-0.6-0.9-1.6-0.5S46,82.5,45.1,82s-2.6,1-2.5-0.2c0.1-1.2,1.8-2.2,2.3-2c0.5,0.2,1.3,0,1.6,0.1
		c0.3,0,0.7,0.3,0.6-0.5c-0.2-0.8-0.6,0.1-0.5-1.1c0.2-1.1,0.4-1.6-0.1-1.8c-0.5-0.2-0.8,0.4-0.9-0.5c-0.1-0.9-1.5-0.3-0.1-0.9
		C46.8,74.4,47.7,74.3,47.7,74.3z"/>
	<path class="st18" d="M37.6,82.2c-0.9,1-1.1,0.9-1.1,1.8c0,0.9,0.3,1.6-0.5,1.9c-0.8,0.3-1.4,0.7-1.5,0.3s0.2-1.2,0.7-1.3
		c0.4-0.1,0.3-0.3,0.3-0.7s0.1-0.3,0.4-0.8S37.6,82.2,37.6,82.2z"/>
	<path class="st18" d="M35.1,83.1c-0.4,0.3-1.4,1.7-1.2,1.9s0.7,1,0.7,1s-1.1,0.2-1.9,0.1C31.8,86,31.3,87,31.8,86
		c0.5-1.1,1.2-0.4,1.3-1.2c0.1-0.7,0-0.5,0.3-1.2c0.3-0.6,0.7-0.3,1-0.9C34.9,82.2,35.1,83.1,35.1,83.1z"/>
	<path class="st18" d="M36.5,69.1c-0.2,0-0.9,0.1-0.9,0.8c0.1,0.7-0.5,1.9-0.5,1.9l-0.9-1c0,0-1.2,1.2-1,0.5
		c0.2-0.6,0.6-0.8,1.1-1.5s0.9-1.3,0.3-1.5s-1-0.1-0.6-0.7c0.4-0.5,0.9-1,0.7-1.3s0.2-1.7-0.5-0.5c-0.7,1.1-1,2.4-1.2,2.2
		c-0.3-0.2-0.1-0.6,0.1-1.4s0.5-1.1,0.5-1.7c0-0.6-0.4-2-0.9-1.7s-1.5,1.3-1.5,1.3s0.2,2.5-0.4,2.6c-0.6,0.1-0.6-0.6-0.7-1.2
		s-1-0.8-0.9,0.3s-0.2,1.8,0.6,2s1.4,0,1.7-0.5s0.6-3.1,0.8-3.1c0.3,0,1-0.3,0.6,0.7c-0.4,1-0.4,1.9-0.4,1.9s-0.4,1.8,0,1.9
		c0.4,0.1,1.4-0.4,1.1,0.4c-0.4,0.8-0.9,1-0.9,1.3s0.5,1.4,0.5,1.4s0.6,0.3,1.1,0.4c0.5,0.1,0.9,0,1.3-0.1c0.4-0.1,0.6-0.2,0.6-0.5
		c0-0.4,0.4-1.2,0.3-1.5s0.3,0.1,0.1-0.6C36.5,69.1,36.5,69.1,36.5,69.1z"/>
	<path class="st18" d="M37.1,68c-0.5-0.1-1.2-0.4-0.5-1s1,0,1-0.8c0-0.9,0.2-1.2,0.4-1.2c0.2,0,0.7,0.8,0.7,0.8s0.1,0.7-0.4,1.3
		C37.7,67.6,37.1,68,37.1,68z"/>
	<path class="st18" d="M37.9,65c-0.7-0.3-1.8,0.2-1.8,0.2c-1-0.4-0.2-1.5,0.1-1.5c0.3,0,0.6-0.2,1.1-0.2c0.5,0,1.3-0.7,1,0.4
		C37.9,65,37.9,65,37.9,65z"/>
	<path class="st18" d="M50.1,60.5C49.9,61,49,62,48.4,62.4c-0.6,0.4-1.4,0-1.9,0.5c-0.5,0.6-0.5,0.6-0.6,1.1
		c-0.1,0.5,0.2,1.1-0.4,0.6c-0.6-0.6-4-0.5-4-0.5s-0.4,1-0.9,0.8c-0.5-0.2-1.5,0.5-0.6-0.7s1.1-1.5,1.7-1.5c0.6-0.1,2.5-0.2,3,0.1
		c0.4,0.3,0.3-0.3,0.8-0.7c0.5-0.5,1.3-0.6,1.3-0.6l1,0.2c0,0,0.4-0.5,0.8-0.7C49.1,60.8,50.1,60.5,50.1,60.5z"/>
	<path class="st18" d="M48.2,59.7c0.2-0.6-1.1-1.2-1.9-1s-1.2,0.1-1.7,0.9s-0.2,0.7-1.4,1.2c-1.2,0.4-1.5,0.2-1.9,0.5
		s0.6,0.7,0.6,0.7s1.6,0,2-0.2c0.4-0.3,1.5-0.9,1.5-0.9l1.2-0.6l0.6-0.2L48.2,59.7z"/>
	<path class="st19" d="M31.4,68.7c-0.4,0.5-0.4,0.7-0.2,1.5s0.9,1.7-0.3,1.8c-1.2,0-2.3,0-2.3,0.5c0,0.5,0.8,0.5,0.5,1.1
		c-0.3,0.6,0.1,0.3-0.9,0.8s-0.7,1.2-0.4,1.9s1.2,0.3,1,1.2c-0.2,0.9-0.3,1.9-0.8,1.2s-0.5-1.9-1.8-1.1c-1.3,0.9-0.5,1.7-0.9,1.3
		c-0.4-0.4,0.5,0.1-0.4-0.4s-0.9-0.5-0.1-1.2c0.8-0.7,0.9-0.7,1.2-0.8c0.4,0,0.6-2.5,0.9-2.7c0.3-0.2,0.7,0.3,0.7-0.6
		c-0.1-0.9-0.3-1.1,0.4-1.7c0.7-0.6,0.8-0.6,1.4-0.6c0.6,0,0.6,0.1,0.5-0.4c-0.1-0.5-0.2-1.2,0-1.4C30.3,68.8,31.4,68.7,31.4,68.7z"
		/>
	<path class="st18" d="M28.7,68.6c0.1-0.9,0.3-2.2-0.4-2.1s-2.1-0.3-1.7,0.4c0.4,0.7,0.4,1.4,0.5,1.8c0.1,0.4,0.5,1.4-0.3,1.5
		s-0.5,0.2-1.5,0.5c-1,0.3-0.3,0.2-1,1.1c-0.7,0.9-1.6,2-1.1,2.3c0.6,0.3,0.3,0.4,0.8,0.9c0.5,0.5,1.3,1.8,1.5,0.8
		c0.2-1,0.1-1.3,0-1.9s-0.5-0.7,0.4-1.2c0.9-0.4,0.6,0.1,0.9-0.4c0.3-0.5,0.1-0.4,0.6-0.9c0.5-0.4,1.4-1,1.2-1.4
		C28.3,69.6,28.7,68.6,28.7,68.6z"/>
	<path class="st18" d="M34,82.2c-0.6,0-1.8-0.1-1.8-0.3c0-0.2,0.4-1.2,0.4-1.2c-0.9,0-2,0.9-1.7,1.5c0.3,0.6,0.7,1.4,1.1,1.2
		c0.4-0.2,1.1-0.3,1.1-0.3L34,82.2z"/>
	<path class="st18" d="M30.6,83.2c0-0.7,0.9-0.1,0.4-1.1c-0.5-1,0-2.2-0.6-1.6c-0.6,0.6-0.2,0.8-1.1,1c-0.9,0.2-1,0.7-1.4-0.2
		c-0.3-1,0.7-1.7,0-1.9c-0.7-0.2-1-0.2-1.7,0.2s-0.9,1.8-0.7,2.4c0.2,0.5,0.7,2.2,1.3,1.9c0.6-0.4,1.8-0.9,1.8-0.9s0.8-0.2,0.6,0.7
		c-0.2,0.9-0.5,0.7-0.3,1.3s0.6,1.2,1,0.8c0.4-0.4,1,0,1.2-0.2C31.3,85.5,30.6,83.8,30.6,83.2z"/>
	<path class="st20" d="M31.1,78.4c-0.1-0.3-0.5-2.1-0.1-2.2c0.4-0.1,0.5-0.2,1-0.9c0.4-0.6,1.8-1,1.8-1s2.3,1.1,1.4,0.1
		s-0.8-1.3-1.3-1.5c-0.5-0.2-0.2-0.9-1.2-0.4s-1.3,0.9-1.6,1.4c-0.3,0.6-0.7-0.2-1.2,0.9c-0.5,1.1-0.4,0.7-0.1,1.4s0.8,0.2,0.5,1.2
		c-0.3,1-0.4,1-0.2,1.3c0.2,0.3,0.3,0.6,0.7,0.2C31.1,78.4,31.1,78.4,31.1,78.4z"/>
	<path class="st18" d="M41.2,82.5c-0.3,0.1-5.7,0.1-6.2-0.3c-0.5-0.4-1.2,1.1-1,0c0.3-1.1,0.5-2.8,1.3-1.8c0.8,1,4.4,1.4,4.7,1.3
		c0.3-0.1,0.7-1.1,0.9-0.2C41.2,82.5,41.2,82.5,41.2,82.5z"/>
	<path class="st18" d="M41.5,83.7c-0.4,0.4-1.2,0.7-1.8,0.8c-0.6,0.1-0.2,1.2-0.7,1.5c-0.5,0.3-0.1-0.6-1.1,0.1
		c-0.9,0.7-0.9,0.5-1,1.2c-0.1,0.8,0.4,0.5,0.9,1c0.6,0.6,2.4,1,0.8,1.3c-1.6,0.4-1.6,0.8-2.3,0c-0.7-0.8-1.8-0.6-1.8-0.6
		s-0.9,0.6-0.5,0.3s2.3-1.5,0.6-1.5c-1.7,0-1.6-1.5-2.2,0c-0.5,1.5,0.8,1.7,0.2,2.3s-0.1,1.6-0.1,1.6s0.1,1.1,0.6,0.7
		s1.7-1.3,1.7-1.3s0.5,0,0.9,0.2c0.5,0.2,0.4,0.2,1.3-0.1c0.9-0.3,1.1-0.2,2.1-0.7c1-0.6,2.3-0.9,1.5-1.7c-0.8-0.8-1.7-0.8-1.9-1.1
		c-0.2-0.3-0.9-0.5,0.3-0.7c1.2-0.2,1.9-0.2,1.9-0.8c0-0.6-0.5-1.6,0.4-1.6c0.9-0.1,1.6-0.1,1.6-0.1s0.9,0.1,1.3,0.4
		c0.4,0.3,0.8,0.3,0.9-0.4c0.1-0.7-0.2-1,0.3-1.2c0.5-0.2,1-0.1,1.2-0.2c0.2-0.1,0.8-0.4,0-0.6c-0.7-0.2-1.1-1.1-1.7-0.4
		c-0.6,0.7,0.1,0.5-0.9,0.6c-1,0.1-0.5,0.4-1.2,0.6C42.2,83.4,41.5,83.7,41.5,83.7z"/>
	<path class="st18" d="M54,82.5c-0.5,0.1-1.1,0.9-0.9-0.2c0.2-1.2,0-0.9,0.7-1.4s2.2-0.9,1.4-1.3s-2.5,0.8-2.5,0.8s-1.2,1.9-1.1,2.3
		c0.2,0.4-0.1,1,0.9,1.2s1.7-0.3,1.7-0.3s1.4-0.3,1.6-0.4C55.9,83.1,54.5,82.4,54,82.5z"/>
	<path class="st19" d="M57.9,73.8c0-0.7,0.7,0.6,0.9,0s0.7-1.4,0.7-1.4s1-0.8,1-0.3c-0.1,0.5-0.1,1.9-0.1,1.9s-3.2-0.7-2.6,0.5
		s0.9,1.3,1.4,1.6c0.5,0.3,1.7,0.5-0.1,0.9s-3.1,1.5-2.6,1.7c0.5,0.1,1.4,1.2,1.4,1.2s0.8,0.1,0.7,0.8s-0.5,1.3,0.3,1.8
		c0.8,0.5,0.6,0.9,1.1-0.2s1.6-1.8,0.9-2.1c-0.7-0.3-1.3-0.5-0.7-0.3c0.7,0.3,1.2-1.4,1.3-0.1s0.2,1.9,0.1,2.2
		c-0.1,0.4-0.7,1.3-0.7,1.3s-0.2,0.4-1.4-0.1c-1.2-0.4-1,0.2-1.8-1.1c-0.8-1.3-0.4-2-0.9-2.4c-0.5-0.4-0.9-0.2-0.6-0.7
		s0-3.3,0.8-2.8c0.8,0.5,1.1,0.1,0.9-0.1C57.6,76.2,57.9,74.6,57.9,73.8z"/>
	<path class="st18" d="M58.4,73.2c0.1-0.3,2.1-1.9,2.1-1.9l-0.1,0.8"/>
	<path class="st18" d="M61.9,76.3c0.1,0.4,0.3,1.5-0.9,1.7c-1.2,0.2-1.7,1.6-1.9,0.8S58.9,78,59,77.1c0.1-0.9-0.6-1.1,0.4-1.5
		s1.7-0.6,1.7-0.6L61.9,76.3z"/>
	<path class="st20" d="M57.4,83.5c-0.1,0.5-0.5,0.9-1.4,1.2c-0.9,0.3-0.9,0.6-1.2,0.1s0.1-2.3-0.6-1.3c-0.7,1-1.1,1.7-0.5,2
		c0.6,0.3,1.7,0.4,2.1,0.3c0.5-0.1,0.5,0,1.3-0.3c0.7-0.3,1.5-1.5,1.4-1.7C58.4,83.6,57.4,83.5,57.4,83.5z"/>
	<path class="st21" d="M55.9,86.6c-1.4,0.2-1.9-0.2-2.4,0.1C53.1,87,52.1,88,52.1,88l0.1-1.7l0.1-1.5c-0.9-0.7-0.2-1.7-1.4-1.4
		c-1.2,0.3-2.2-0.1-2.5,0.7c-0.3,0.8,0.4,2.5,0.4,2.5s-1.4-0.8-2.1-0.4c-0.7,0.4-0.9,0.7-0.9,1.3c0.1,0.7-0.4,1.2-0.4,1.2
		s-0.2-0.3-0.7-0.8c-0.5-0.5-1-1-1.6-0.4c-0.6,0.5-1.6,1.8-1.4,2c0.2,0.3,0.4,1.6,0.6,1.7c0.2,0.1-0.1,1.5,1.1,0.6
		c1.1-0.9,1.4-2.2,2.1-1.9c0.7,0.3,1.7,0.6,2,0.3c0.4-0.3,0.4-0.3,1-0.9s1.6-1.7,1.9-1.4s0.2,1,1.1,1c0.8,0.1,0.2,1.1,1.3-0.1
		c1-1.3,1.4-1.6,1.6-1.4c0.2,0.1,0.7,0,0.7,0L55.9,86.6z"/>
	<path class="st18" d="M50,82.7c0.2,0-2.6,3-3.7,3s-3,0.8-3.5,1.2c-0.5,0.4-1.1,0.7-0.9,1.2s-1.1,0.7-1.1,0.7s-1.7-0.4-0.3-1.1
		c1.4-0.8,1.8-0.6,1.7-1.2s-0.2-1.1,0.3-1.1s2.8-0.4,3.4-0.8c0.6-0.4,3-2.2,3-2.2S48.4,82.7,50,82.7z"/>
	<path class="st18" d="M37.2,91.2c-1.3,0.1-1.4,0.9-1.3,1.8s0.9,0.9,1.3,1.5c0.4,0.6,2.3,0.2,2.3,0.2s-0.3-1.9-0.1-2.1
		c0.2-0.3,1.2,0.7,1.3,1c0.2,0.3,0,1.6,1.5,1.2s2-1.5,2-1.5s0.9-1.1,1.6-0.7s1,1.7,2,1.1c1-0.5,2.8-1.8,2.9-2
		c0.1-0.2,0.6-0.9,0.8-1.3c0.1-0.4,0.4-1.6-0.6-1.2s-1.5,1.1-2.6,1.7c-1.1,0.6-0.8,0.3-1.7,0.3s-0.5-0.3-2.2,0.8
		c-1.7,1.1-2,1.8-2.4,0.9s0.4-1.1-0.7-1.5c-1.1-0.4-1.9-0.3-2.2-0.3C38.8,91.2,37.2,91.2,37.2,91.2z"/>
	<path class="st18" d="M34.1,92.6c0,0.8-0.9,2.6,0.5,3s2.7,0.6,3.3,0.5c0.6-0.1,1.1-0.1,1.4,0.4c0.3,0.5,0.3,1.2,0.9,1.5
		s0.5,0.9,1.3,0.4c0.8-0.6,1-1,1.5-1.3c0.5-0.3,1.1-0.3,1.6-0.5c0.5-0.3,0.4,0.6,1.2-0.1c0.7-0.7,0.8-1.6,0.5-2
		c-0.3-0.4-0.3-1.5-1.3-0.6c-1,1-0.4,1.6-2.1,1.9s-1.4,0.1-2.4-0.2c-1-0.3-2.3,0.4-2.7-0.4c-0.4-0.8-0.4,0.4-1.3-0.5
		c-0.9-0.9-1.4-0.6-1.4-1.2C34.9,93,34.1,92.6,34.1,92.6z"/>
	<path class="st18" d="M57.6,86.1c0,0,2.4-0.8,2.3-0.1c-0.2,0.7,0.3,1.2-0.7,1.6c-0.9,0.4-2,0.4-2,0.4s-0.4-0.2-0.8,0.7
		c-0.3,0.9-0.4,0.4-1.3,0.7s-1.7,0.9-1.7,1.2c0.1,0.3,0.3,1.9-0.1,0.8S52,89,52.8,88.7s2.1-0.6,2.1-0.6l0.8-0.4c0,0,0.8-0.7,1-0.9
		C56.8,86.8,57.6,86.1,57.6,86.1z"/>
	<path class="st19" d="M56.8,90.3c0.2,0.9,1.2,1.1,0.2,1.9c-1.1,0.8-1,2.2-2,1.8c-1-0.5-0.7-1-1.7-0.5c-1,0.5-1.1,0.9-1.5,1.3
		c-0.4,0.4-0.1,1.2-1,1.6c-1,0.4-0.9,1.1-1.6,0.4s0.3-1.8-1-0.7c-1.3,1.1-2.1,2.5-1.9,1.3c0.2-1.2-0.7-1.2,0.2-1.8
		c0.9-0.6,0.6-0.6,1.4-0.6s1.6,0,1.7-0.3s0.4-0.4,0.7-0.7c0.3-0.3,0.4-0.4,0.8-0.3c0.4,0.1,0.6-0.6,1.5-0.9s1.1,0.1,1.6,0
		c0.5-0.1,0.9,0.6,1.2-0.3c0.3-0.9-0.3-0.9,0-1.5c0.3-0.7-0.1-0.3,0.3-0.7C56.2,89.9,56.8,90.3,56.8,90.3z"/>
</g>
</svg>
