<svg id="Layer_1" data-name="Layer 1" xmlns="http://www.w3.org/2000/svg" viewBox="0 0 108 108">
  <defs>
    <style>
      .cls-1 {
        fill: #67c0a5;
      }

      .cls-2 {
        fill: #a9e4f9;
      }

      .cls-3 {
        fill: #97dcef;
      }

      .cls-4 {
        fill: #ffef08;
      }

      .cls-5 {
        fill: #ffc903;
      }
    </style>
  </defs>
  <g id="_149" data-name="149">
    <g>
      <path class="cls-1" d="M54.27,49.34A2.35,2.35,0,0,1,51.92,47V29.11a2.35,2.35,0,1,1,4.69,0V47A2.34,2.34,0,0,1,54.27,49.34Z"/>
      <path class="cls-1" d="M54.27,23.1a2.35,2.35,0,0,1-2.35-2.35V18.49a2.35,2.35,0,0,1,4.69,0v2.26A2.35,2.35,0,0,1,54.27,23.1Z"/>
      <path class="cls-1" d="M47.26,54.43a2.21,2.21,0,0,1-.72-.11l-17-5.53A2.34,2.34,0,0,1,31,44.33l17,5.53a2.34,2.34,0,0,1-.73,4.57Z"/>
      <path class="cls-1" d="M21.57,46.21l-2.15-.7a2.34,2.34,0,0,1,1.45-4.46l2.15.7a2.34,2.34,0,1,1-1.45,4.46Z"/>
      <path class="cls-1" d="M38,76.69a2.35,2.35,0,0,1-.52-3.27L48,58.94a2.36,2.36,0,0,1,1.9-1,2.31,2.31,0,0,1,1.37.44,2.35,2.35,0,0,1,.52,3.28L41.32,76.17A2.34,2.34,0,0,1,38,76.69Z"/>
      <path class="cls-1" d="M31.8,85.28A2.34,2.34,0,0,1,31.28,82l1.33-1.83a2.35,2.35,0,1,1,3.8,2.76l-1.33,1.83A2.35,2.35,0,0,1,31.8,85.28Z"/>
      <path class="cls-1" d="M67.21,76.17,56.7,61.7a2.34,2.34,0,0,1,.52-3.27A2.27,2.27,0,0,1,58.59,58a2.36,2.36,0,0,1,1.9,1L71,73.42a2.35,2.35,0,0,1-3.8,2.75Z"/>
      <path class="cls-1" d="M73.45,84.77l-1.33-1.83a2.35,2.35,0,0,1,3.8-2.76L77.25,82a2.35,2.35,0,0,1-3.8,2.76Z"/>
      <path class="cls-1" d="M61.27,54.43a2.34,2.34,0,0,1-.73-4.57l17-5.53A2.34,2.34,0,0,1,79,48.79L62,54.32A2.21,2.21,0,0,1,61.27,54.43Z"/>
      <path class="cls-1" d="M84,44.7a2.34,2.34,0,0,1,1.51-3l2.15-.7a2.34,2.34,0,0,1,1.45,4.46l-2.15.7A2.35,2.35,0,0,1,84,44.7Z"/>
    </g>
    <g>
      <path class="cls-2" d="M44.43,94.78H64.1A2.94,2.94,0,0,0,67,91.31L61.51,60.89H47L41.53,91.31A2.94,2.94,0,0,0,44.43,94.78Z"/>
      <path class="cls-3" d="M67,91.31,61.51,60.89H57.27l5.49,30.42a2.94,2.94,0,0,1-2.9,3.47H64.1A2.94,2.94,0,0,0,67,91.31Z"/>
      <g>
        <path class="cls-3" d="M54.26,78.89h0a1.62,1.62,0,0,0,1.62-1.62V60.85a1.63,1.63,0,0,0-1.62-1.63h0a1.63,1.63,0,0,0-1.62,1.63V77.27A1.62,1.62,0,0,0,54.26,78.89Z"/>
        <path class="cls-3" d="M54.26,88.64h0A1.62,1.62,0,0,0,55.89,87V84.94a1.63,1.63,0,0,0-1.62-1.62h0a1.63,1.63,0,0,0-1.62,1.62V87A1.62,1.62,0,0,0,54.26,88.64Z"/>
      </g>
    </g>
    <g>
      <path class="cls-2" d="M89.93,76,96,57.31a3,3,0,0,0-2.4-3.84L63,49.3,58.5,63.08,85.73,77.7A3,3,0,0,0,89.93,76Z"/>
      <path class="cls-3" d="M93.61,53.47,63,49.3l-.18.55,26.57,3.62a3,3,0,0,1,2.4,3.84L85.7,76a3,3,0,0,1-.81,1.24l.84.45A3,3,0,0,0,89.93,76L96,57.31A3,3,0,0,0,93.61,53.47Z"/>
      <g>
        <path class="cls-3" d="M77.86,61.75h0a1.61,1.61,0,0,0-1-2L61.2,54.63a1.63,1.63,0,0,0-2.05,1h0a1.64,1.64,0,0,0,1,2l15.63,5.07A1.62,1.62,0,0,0,77.86,61.75Z"/>
        <path class="cls-3" d="M87.13,64.76h0a1.62,1.62,0,0,0-1-2l-2-.64a1.63,1.63,0,0,0-2.05,1h0a1.62,1.62,0,0,0,1,2l2,.64A1.61,1.61,0,0,0,87.13,64.76Z"/>
      </g>
    </g>
    <g>
      <path class="cls-2" d="M86.14,26.94,70.23,15.38a3,3,0,0,0-4.39,1.1L52.41,44.32l11.72,8.51L86.45,31.45A2.94,2.94,0,0,0,86.14,26.94Z"/>
      <path class="cls-3" d="M86.14,26.94,70.23,15.38a2.94,2.94,0,0,0-3.81.31L81.91,26.94a3,3,0,0,1,.3,4.51L61.72,51.08l2.41,1.75L86.45,31.45A2.94,2.94,0,0,0,86.14,26.94Z"/>
      <g>
        <path class="cls-3" d="M68.85,34h0a1.64,1.64,0,0,0-2.27.36L56.93,47.66a1.62,1.62,0,0,0,.36,2.27h0a1.63,1.63,0,0,0,2.26-.36l9.66-13.29A1.64,1.64,0,0,0,68.85,34Z"/>
        <path class="cls-3" d="M74.58,26.13h0a1.63,1.63,0,0,0-2.27.35l-1.22,1.68a1.64,1.64,0,0,0,.36,2.27h0a1.62,1.62,0,0,0,2.27-.36l1.22-1.68A1.63,1.63,0,0,0,74.58,26.13Z"/>
      </g>
    </g>
    <g>
      <path class="cls-2" d="M38.3,15.38,22.39,26.94a2.94,2.94,0,0,0-.31,4.51L44.4,52.83l11.72-8.51L42.69,16.48A3,3,0,0,0,38.3,15.38Z"/>
      <g>
        <path class="cls-3" d="M39.68,34h0a1.64,1.64,0,0,0-.36,2.27L49,49.57a1.63,1.63,0,0,0,2.26.36h0a1.62,1.62,0,0,0,.36-2.27L42,34.37A1.64,1.64,0,0,0,39.68,34Z"/>
        <path class="cls-3" d="M34,26.13h0a1.63,1.63,0,0,0-.36,2.26l1.22,1.68a1.62,1.62,0,0,0,2.27.36h0a1.64,1.64,0,0,0,.36-2.27l-1.22-1.68A1.63,1.63,0,0,0,34,26.13Z"/>
      </g>
    </g>
    <g>
      <path class="cls-2" d="M12.52,57.31,18.6,76a3,3,0,0,0,4.2,1.69L50,63.08,45.55,49.3,14.93,53.47A3,3,0,0,0,12.52,57.31Z"/>
      <g>
        <path class="cls-3" d="M30.67,61.75h0a1.62,1.62,0,0,0,2,1l15.63-5.07a1.64,1.64,0,0,0,1-2h0a1.62,1.62,0,0,0-2.05-1L31.71,59.71A1.61,1.61,0,0,0,30.67,61.75Z"/>
        <path class="cls-3" d="M21.4,64.76h0a1.61,1.61,0,0,0,2,1l2-.64a1.62,1.62,0,0,0,1-2h0a1.62,1.62,0,0,0-2.05-1l-2,.64A1.62,1.62,0,0,0,21.4,64.76Z"/>
      </g>
    </g>
    <g>
      <path class="cls-4" d="M64.4,59.18c1,2.62,1,4.73-.11,5.66s-3.17.56-5.63-.8a3.64,3.64,0,0,0-4.61.86c-1.83,2.14-3.61,3.24-5,2.75S47,65.19,46.94,62.37a3.65,3.65,0,0,0-3-3.58c-2.8-.51-4.62-1.49-4.87-2.94s1.08-3,3.49-4.45A3.66,3.66,0,0,0,44.12,47c-1-2.66-1-4.76.12-5.69s3.14-.57,5.62.82a3.68,3.68,0,0,0,4.61-.85c1.84-2.18,3.62-3.27,5-2.78s2.06,2.46,2.12,5.31a3.66,3.66,0,0,0,3,3.57c2.78.47,4.63,1.46,4.88,2.92s-1.08,3-3.5,4.48A3.66,3.66,0,0,0,64.4,59.18Z"/>
      <g>
        <path class="cls-5" d="M66,54.74c2.42-1.45,3.77-3.07,3.5-4.48s-2.1-2.45-4.88-2.92a4,4,0,0,1-.66-.24,2.6,2.6,0,0,1,1.27,1.63c.27,1.42-1.08,3-3.51,4.49a3.67,3.67,0,0,0-1.58,4.44c1,2.62,1,4.72-.1,5.65a2.67,2.67,0,0,1-2.09.48,3.15,3.15,0,0,1,.73.25c2.46,1.36,4.52,1.76,5.63.8s1.08-3,.11-5.66A3.66,3.66,0,0,1,66,54.74Z"/>
        <path class="cls-5" d="M54.39,62.52a3.64,3.64,0,0,0-4.61.86,11,11,0,0,1-2.36,2.14,3,3,0,0,0,1.65,2.13c1.37.49,3.15-.61,5-2.75a3.63,3.63,0,0,1,3.06-1.28A11.24,11.24,0,0,1,54.39,62.52Z"/>
        <path class="cls-5" d="M60.33,45.82a11.32,11.32,0,0,1,2.78.83,3.54,3.54,0,0,1-1.53-2.88c-.06-2.85-.75-4.83-2.12-5.31a3.05,3.05,0,0,0-2.63.61,11,11,0,0,1,.47,3.18A3.68,3.68,0,0,0,60.33,45.82Z"/>
      </g>
      <g>
        <g>
          <circle class="cls-5" cx="52.08" cy="48.46" r="1.66"/>
          <circle class="cls-5" cx="56.45" cy="57.65" r="1.66"/>
        </g>
        <g>
          <circle class="cls-5" cx="49.67" cy="55.24" r="1.66"/>
          <circle class="cls-5" cx="58.86" cy="50.87" r="1.66"/>
        </g>
      </g>
    </g>
  </g>
</svg>
