<svg xmlns="http://www.w3.org/2000/svg" version="1.1" xmlns:xlink="http://www.w3.org/1999/xlink" xmlns:svgjs="http://svgjs.dev/svgjs" viewBox="0 0 108 108" style="" x="0" y="0"><style type="text/css">
	.st0{fill:none;stroke:#74823D;stroke-width:0.9772;stroke-miterlimit:10;}
	.st1{fill:#AAC051;}
	.st2{fill:#8CB24E;}
	.st3{fill:#98B950;}
	.st4{fill:#B3C952;}
	.st5{fill:#98B551;}
	.st6{fill:#A9BB50;}
	.st7{fill:#AAC652;}
	.st8{fill:#7FA84B;}
	.st9{fill:#238FCD;}
	.st10{fill:#0BA6E0;}
	.st11{fill:#267DBF;}
	.st12{fill:#00B3EB;}
	.st13{fill:#006180;}
	.st14{fill:#4A65AB;}
	.st15{fill:#91BEE5;}
	.st16{fill:#A5C5E6;}
	.st17{fill:#304376;}
</style><g><path class="st0" d="M69.4,36.1c0.1,2.3-0.5,6.6-0.9,9.6"></path><path class="st0" d="M75.8,38.6c-3,1.5-6.7,4.6-8.4,7.7"></path><path class="st0" d="M77.3,44.6c-3.6-1.4-6.7-3.1-8.8,0.6"></path><path class="st0" d="M63.8,52.3c-3.5,3.2-6.7,7.2-7.8,10.7"></path><path class="st0" d="M56,50.2C56.8,55,56,62.5,56,64"></path><path class="st0" d="M63.2,58.9c-2.9-0.7-4.7-1.9-7.1,3"></path><path class="st1" d="M64,31.9c-0.2,1.9-1.1,2.3,2.3,5.4c3.3,3,3.3,3,3.3,3s0.6-0.8,1.2-1.6s3.5-3.8,1.9-6.9c-1.6-3-2.9-4.7-3.5-5.1
	c-0.5-0.5-1.9-2.3-2.3-2.8"></path><path class="st2" d="M85.7,29.3c-2.2,1.1-5.6-0.7-8.2,1.5c-2.6,2.1-3.8,7-4.3,8.4c-0.5,1.4-1.7,0.9,0.9,0.8c2.6-0.2,2.8,0.7,5,0
	c2.2-0.7,5-4.3,5.1-5.7C84.4,32.9,85.7,29.3,85.7,29.3z"></path><path class="st3" d="M73.2,43c0.7-0.1,1.4-0.7,4.6-1s5.8-0.2,6.6,2.3s0,3,1.5,4.5c1.5,1.5,1.5,1.5,1.5,1.5s-2.8,0.3-6.7,0.5
	c-3.9,0.2-6-3.6-6.6-5.2S73.2,43,73.2,43z"></path><path class="st4" d="M71.5,43.1c0,0-1.4,1.8-4.4,2c-3.1,0.3-6.3,2-6.1,5.3c0.3,3.2-0.7,5.1-0.7,5.1S60.2,55,62.9,55
	c2.7,0,6.3-2.1,7.2-4.9C71,47.4,71.5,43.1,71.5,43.1z"></path><path class="st5" d="M52.7,40.4c0,0,4.3,3.7,5.7,6.2c1.4,2.6,1.9,4.2,0.5,6.2c-1.4,2-1.9,3.6-1.9,3.6s-2.5-3.1-4-3.8
	c-1.5-0.7-3.3-3.2-2.7-4.9C50.9,46,52.7,40.4,52.7,40.4z"></path><path class="st6" d="M60.3,58.2c0-0.1,2.3-1.2,5.1-1.8c2.8-0.6,4.3-0.7,5.5,0.7s2.1,2.7,3,4.3c0.9,1.6,1.1,2.2,1.7,2.3
	c0.7,0.1-0.9-0.5-3.9,0.5c-3,1-4.5,2-5.8,1.1c-1.4-0.9-1.5-2.8-2.6-4.2C62.1,59.7,60.3,58.2,60.3,58.2z"></path><path class="st0" d="M69.9,23.8c0.1,2.3-0.5,6.6-0.9,9.6"></path><path class="st0" d="M76.3,26.4c-3,1.5-6.7,4.6-8.4,7.7"></path><path class="st0" d="M77.9,32.3c-3.6-1.4-6.7-3.1-8.8,0.6"></path><path class="st0" d="M64.3,40.1c-3.5,3.2-6.7,7.2-7.8,10.7"></path><path class="st0" d="M56.5,37.9c0.8,4.8,0.1,12.3,0,13.8"></path><path class="st0" d="M63.8,46.6c-2.9-0.7-4.7-1.9-7.1,3"></path><path class="st1" d="M64.6,19.7c-0.2,1.9-1.1,2.3,2.3,5.4c3.3,3,3.3,3,3.3,3s0.6-0.8,1.2-1.6c0.7-0.9,3.5-3.8,1.9-6.9
	s-2.9-4.7-3.5-5.1c-0.5-0.5-1.9-2.3-2.3-2.8"></path><path class="st2" d="M86.3,17c-2.2,1.1-5.6-0.7-8.2,1.5s-3.8,7-4.3,8.4c-0.5,1.4-1.7,0.9,0.9,0.8s2.8,0.7,5,0c2.2-0.7,5-4.3,5.1-5.7
	C84.9,20.6,86.3,17,86.3,17z"></path><path class="st3" d="M73.8,30.7c0.7-0.1,1.4-0.7,4.6-1c3.2-0.3,5.8-0.2,6.6,2.3c0.8,2.4,0,3,1.5,4.5c1.5,1.5,1.5,1.5,1.5,1.5
	s-2.8,0.3-6.7,0.5c-3.9,0.2-6-3.6-6.6-5.2C74.1,31.7,73.8,30.7,73.8,30.7z"></path><path class="st4" d="M72,30.8c0,0-1.4,1.8-4.4,2c-3.1,0.3-6.3,2-6.1,5.3c0.3,3.2-0.7,5.1-0.7,5.1s-0.1-0.5,2.6-0.5s6.3-2.1,7.2-4.9
	C71.5,35.1,72,30.8,72,30.8z"></path><path class="st5" d="M53.2,28.1c0,0,4.3,3.7,5.7,6.2c1.4,2.6,1.9,4.2,0.5,6.2c-1.4,2-1.9,3.6-1.9,3.6s-2.5-3.1-4-3.8
	s-3.3-3.2-2.7-4.9C51.5,33.7,53.2,28.1,53.2,28.1z"></path><path class="st6" d="M60.9,45.9c0-0.1,2.3-1.2,5.1-1.8c2.8-0.6,4.3-0.7,5.5,0.7c1.2,1.3,2.1,2.7,3,4.3c0.9,1.6,1.1,2.2,1.7,2.3
	c0.7,0.1-0.9-0.5-3.9,0.5s-4.5,2-5.8,1.1c-1.4-0.9-1.5-2.8-2.6-4.2C62.6,47.4,60.9,45.9,60.9,45.9z"></path><path class="st0" d="M84.9,38.2c-1.3,2-4.2,5.1-6.3,7.3"></path><path class="st0" d="M88.7,44c-3.3-0.5-8.1-0.2-11.3,1.4"></path><path class="st0" d="M86.5,49.8c-2.1-3.3-3.6-6.4-7.5-4.7"></path><path class="st0" d="M71,48.2c-4.7,0.6-9.6,2-12.5,4.2"></path><path class="st0" d="M65.9,42c-2.1,4.4-7.1,10.1-8,11.3"></path><path class="st0" d="M66.8,53.2c-2-2.3-2.7-4.3-7.6-1.6"></path><path class="st1" d="M83,31.7c-1.2,1.4-2.2,1.3-1.3,5.7s1,4.4,1,4.4s0.9-0.3,1.9-0.6s5.1-1.1,5.5-4.5s0.3-5.5,0.2-6.2
	s-0.2-3-0.2-3.6"></path><path class="st2" d="M102.2,42.2c-2.4-0.4-4.2-3.8-7.5-3.5c-3.3,0.2-7.1,3.5-8.4,4.4c-1.3,0.8-1.9-0.2,0.3,1.1s1.9,2.2,4.1,2.9
	s6.6-0.6,7.5-1.7C99,44.3,102.2,42.2,102.2,42.2z"></path><path class="st3" d="M84.1,46.1c0.6,0.3,1.5,0.3,4.3,1.9s4.8,3.3,4.1,5.7c-0.8,2.4-1.7,2.4-1.4,4.6c0.4,2.1,0.4,2.1,0.4,2.1
	S89,59,85.7,56.9s-2.8-6.4-2.4-8.1C83.8,47.1,84.1,46.1,84.1,46.1z"></path><path class="st4" d="M82.6,45.1c0,0-2.1,0.7-4.8-0.9c-2.7-1.6-6.3-2-8,0.8c-1.7,2.8-3.5,3.8-3.5,3.8s0.2-0.4,2.4,1.1
	c2.2,1.6,6.4,1.9,8.7,0.2C79.7,48.4,82.6,45.1,82.6,45.1z"></path><path class="st5" d="M68.9,32.1c0,0,1.4,5.4,1,8.4c-0.3,2.9-0.9,4.5-3.2,5.3c-2.3,0.8-3.6,1.8-3.6,1.8s-0.2-4-1.1-5.4
	c-0.9-1.4-0.8-4.6,0.7-5.6S68.9,32.1,68.9,32.1z"></path><path class="st6" d="M64.8,51c0,0,2.6,0.3,5.2,1.5c2.6,1.2,3.9,2,4.1,3.7c0.2,1.8,0.1,3.4-0.1,5.3c-0.2,1.8-0.4,2.4,0.1,2.9
	c0.5,0.5-0.4-0.9-3.5-1.8s-4.8-1-5.4-2.5s0.4-3.1,0.3-5S64.8,51,64.8,51z"></path><path class="st0" d="M88.8,58.7c-2.2,0.9-6.4,1.7-9.3,2.3"></path><path class="st0" d="M88.6,65.6c-2.4-2.3-6.5-4.8-10.1-5.4"></path><path class="st0" d="M83.4,69c0.1-3.9,0.8-7.3-3.4-8.1"></path><path class="st0" d="M71.7,58.7c-4.1-2.2-9-3.9-12.6-3.9"></path><path class="st0" d="M71.1,50.7c-4.3,2.3-11.6,4.1-13.1,4.6"></path><path class="st0" d="M65.3,60.4c-0.3-3,0.3-5-5.2-5.7"></path><path class="st1" d="M91,52.2c-1.8,0.5-2.6-0.2-4.3,3.9s-1.8,4.2-1.8,4.2s0.9,0.3,1.9,0.6c1,0.3,4.7,2.1,7.1-0.5s3.4-4.3,3.7-4.9
	s1.6-2.5,1.9-3.1"></path><path class="st2" d="M100.6,71.9c-1.8-1.7-1.2-5.5-4.1-7.2c-2.9-1.7-7.9-1.3-9.4-1.3c-1.5,0-1.4-1.3-0.4,1.1s0.3,2.9,1.6,4.7
	c1.4,1.8,5.7,3.3,7.1,3S100.6,71.9,100.6,71.9z"></path><path class="st3" d="M83.6,64.6c0.3,0.6,1.1,1.1,2.4,4.1s2.1,5.5,0,7c-2,1.5-2.8,1-3.8,2.9c-0.9,1.9-0.9,1.9-0.9,1.9
	s-1.2-2.5-2.7-6.2c-1.5-3.6,1.4-6.9,2.7-8C82.8,65.2,83.6,64.6,83.6,64.6z"></path><path class="st4" d="M83,62.9c0,0-2.1-0.7-3.4-3.5c-1.3-2.8-4-5.3-7-4c-3,1.3-5.1,1.1-5.1,1.1s0.4-0.2,1.3,2.3s4.1,5.3,7,5.2
	C78.7,63.9,83,62.9,83,62.9z"></path><path class="st5" d="M79.3,44.3c0,0-2,5.2-4,7.4s-3.3,3.1-5.7,2.5s-4-0.6-4-0.6s2.2-3.4,2.3-5s2-4.2,3.8-4.2S79.3,44.3,79.3,44.3z"></path><path class="st6" d="M65,57.4c0,0,1.9,1.8,3.3,4.2s2,3.9,1.2,5.4c-0.8,1.6-1.9,2.9-3.1,4.2c-1.2,1.4-1.8,1.7-1.6,2.4
	c0.1,0.7,0.2-1-1.8-3.5s-3.3-3.6-2.9-5.2c0.4-1.6,2.2-2.3,3.1-3.9S65,57.4,65,57.4z"></path><path class="st0" d="M80.2,77.6c-2.3-0.5-6.2-2.3-9-3.5"></path><path class="st0" d="M76,83.1c-0.6-3.3-2.5-7.7-5.1-10.2"></path><path class="st0" d="M69.8,82.9c2.4-3.1,4.9-5.5,1.9-8.6"></path><path class="st0" d="M66.1,67.7c-2.1-4.2-5.1-8.4-8.1-10.5"></path><path class="st0" d="M70.4,60.8c-4.8-0.6-11.8-3.4-13.3-3.9"></path><path class="st0" d="M60,65.4c1.5-2.6,3.2-3.9-0.9-7.7"></path><path class="st1" d="M85.7,73.6c-1.8-0.7-1.9-1.7-5.8,0.7C76,76.7,76,76.7,76,76.7s0.6,0.7,1.2,1.6c0.6,0.9,2.7,4.4,6.1,3.7
	c3.4-0.7,5.3-1.5,5.9-1.9s2.8-1.1,3.3-1.4"></path><path class="st2" d="M82.1,95.2C81.7,92.8,84.3,90,83,87c-1.3-3.1-5.7-5.6-6.9-6.5c-1.2-0.9-0.4-1.9-1,0.6c-0.6,2.5-1.5,2.5-1.4,4.8
	s2.7,6,4,6.5C79.1,92.9,82.1,95.2,82.1,95.2z"></path><path class="st3" d="M72.5,79.4c-0.1,0.7,0.2,1.5-0.4,4.7s-1.5,5.6-4,5.7c-2.6,0.1-2.9-0.8-4.8,0.2c-1.9,1-1.9,1-1.9,1
	s0.5-2.8,1.4-6.6c0.9-3.8,5.1-4.8,6.9-4.9C71.4,79.4,72.5,79.4,72.5,79.4z"></path><path class="st4" d="M72.9,77.7c0,0-1.3-1.8-0.7-4.8s-0.2-6.6-3.4-7.3c-3.2-0.7-4.7-2.1-4.7-2.1s0.5,0-0.3,2.6s0.3,6.7,2.7,8.3
	C68.9,76,72.9,77.7,72.9,77.7z"></path><path class="st5" d="M80.7,60.4c0,0-4.7,3.1-7.6,3.7c-2.9,0.6-4.5,0.6-6.1-1.3c-1.6-1.9-2.9-2.8-2.9-2.8s3.7-1.5,4.8-2.8
	C70,56,73,54.9,74.4,56C75.8,57.1,80.7,60.4,80.7,60.4z"></path><path class="st6" d="M61.5,62.7c0,0,0.5,2.5,0.3,5.4c-0.2,2.8-0.6,4.3-2.2,5.1c-1.6,0.8-3.2,1.2-5,1.7c-1.8,0.4-2.4,0.4-2.7,1
	s0.7-0.7,0.6-3.9c-0.1-3.2-0.7-4.8,0.6-5.9c1.3-1.1,3.1-0.6,4.8-1.4C59.6,64,61.5,62.7,61.5,62.7z"></path><path class="st0" d="M62.1,88c-1.5-1.8-3.7-5.4-5.3-8.1"></path><path class="st0" d="M55.5,90c1.4-3,2.4-7.7,1.8-11.3"></path><path class="st0" d="M50.6,86.3c3.7-1.1,7.2-1.7,6.6-5.9"></path><path class="st0" d="M56.4,71.8c0.8-4.6,0.8-9.8-0.5-13.2"></path><path class="st0" d="M63.9,68.7c-3.6-3.3-7.7-9.6-8.6-10.8"></path><path class="st0" d="M52.8,66.4c2.7-1.3,4.9-1.4,3.7-6.8"></path><path class="st1" d="M68.9,87.9c-1-1.6-0.6-2.5-5.1-2.8s-4.5-0.3-4.5-0.3s0,0.9,0.1,2S59,92,62.1,93.4c3.2,1.4,5.2,1.8,5.9,1.9
	c0.7,0,2.9,0.7,3.5,0.8"></path><path class="st2" d="M53.6,103.5c1-2.2,4.8-3,5.5-6.2c0.7-3.3-1.4-7.8-1.8-9.3s0.8-1.8-1.2-0.1c-1.9,1.7-2.6,1.2-3.9,3.1
	c-1.3,1.9-1.3,6.5-0.5,7.7C52.4,99.9,53.6,103.5,53.6,103.5z"></path><path class="st3" d="M54.9,85c-0.5,0.5-0.7,1.4-3,3.6s-4.5,3.7-6.6,2.3c-2.1-1.4-1.9-2.3-4-2.6c-2.1-0.2-2.1-0.2-2.1-0.2
	s2-2,4.9-4.6c2.9-2.6,7-0.9,8.5,0C54,84.4,54.9,85,54.9,85z"></path><path class="st4" d="M56.2,83.9c0,0,0-2.2,2.2-4.3c2.2-2.1,3.7-5.5,1.5-7.9c-2.2-2.4-2.7-4.4-2.7-4.4s0.4,0.3-1.7,2
	c-2.1,1.7-3.6,5.6-2.6,8.3C53.9,80.1,56.2,83.9,56.2,83.9z"></path><path class="st5" d="M72.6,74.3c0,0-5.6-0.2-8.3-1.4c-2.7-1.1-4.1-2.1-4.2-4.6c-0.1-2.5-0.8-4-0.8-4s3.9,0.9,5.5,0.5
	c1.6-0.4,4.6,0.5,5.2,2.2C70.4,68.8,72.6,74.3,72.6,74.3z"></path><path class="st6" d="M55.5,65.1c0,0-1,2.4-2.9,4.5c-1.8,2.2-3,3.2-4.7,2.9s-3.3-0.9-5-1.5c-1.7-0.7-2.2-1.1-2.8-0.8
	c-0.6,0.3,1-0.1,2.7-2.8s2.3-4.3,3.9-4.5c1.6-0.1,2.9,1.3,4.7,1.7S55.5,65.1,55.5,65.1z"></path><path class="st0" d="M41.4,86c-0.2-2.3,0.1-6.6,0.4-9.6"></path><path class="st0" d="M34.9,83.9c2.9-1.6,6.5-4.9,8-8.2"></path><path class="st0" d="M33,78c3.7,1.2,6.8,2.8,8.8-1"></path><path class="st0" d="M46.1,69.5c3.3-3.3,6.3-7.6,7.2-11.1"></path><path class="st0" d="M54,71.3C53,66.5,53.3,59,53.3,57.5"></path><path class="st0" d="M46.3,63c3,0.5,4.8,1.7,6.9-3.4"></path><path class="st1" d="M47,89.9c0.1-1.9,0.9-2.4-2.6-5.3c-3.5-2.9-3.5-2.9-3.5-2.9s-0.5,0.8-1.1,1.7s-3.3,4-1.5,6.9
	c1.8,3,3.2,4.5,3.7,4.9c0.5,0.4,2,2.2,2.4,2.7"></path><path class="st2" d="M25.4,93.7c2.1-1.2,5.6,0.4,8.1-1.9c2.5-2.3,3.4-7.2,3.9-8.6s1.7-1-0.9-0.7c-2.6,0.3-2.8-0.6-5,0.3
	c-2.2,0.8-4.8,4.6-4.8,6C26.6,90.1,25.4,93.7,25.4,93.7z"></path><path class="st3" d="M37.2,79.4c-0.7,0.1-1.3,0.7-4.6,1.2c-3.2,0.5-5.8,0.5-6.7-1.9s-0.2-3-1.8-4.4s-1.6-1.4-1.6-1.4
	s2.8-0.5,6.7-0.9s6.2,3.3,6.9,4.9C36.8,78.4,37.2,79.4,37.2,79.4z"></path><path class="st4" d="M39,79.2c0,0,1.3-1.8,4.3-2.3c3.1-0.4,6.2-2.4,5.8-5.6c-0.4-3.2,0.4-5.2,0.4-5.2s0.1,0.5-2.6,0.6
	s-6.2,2.5-6.9,5.2S39,79.2,39,79.2z"></path><path class="st5" d="M57.9,80.9c0,0-4.5-3.4-6-5.9c-1.6-2.5-2.1-4.1-0.8-6.2s1.7-3.7,1.7-3.7s2.6,3,4.2,3.6c1.6,0.6,3.5,3.1,2.9,4.8
	S57.9,80.9,57.9,80.9z"></path><path class="st6" d="M49.3,63.5c0,0.1-2.2,1.3-5,2c-2.8,0.7-4.3,0.9-5.6-0.4c-1.3-1.3-2.2-2.6-3.2-4.1c-1-1.5-1.2-2.2-1.8-2.2
	s0.9,0.5,3.9-0.7c3-1.2,4.4-2.2,5.8-1.4c1.4,0.8,1.6,2.7,2.9,4.1C47.5,62.2,49.3,63.5,49.3,63.5z"></path><path class="st0" d="M25.7,72.4c1.1-2,3.9-5.3,5.9-7.6"></path><path class="st0" d="M21.6,66.9c3.3,0.3,8.1-0.3,11.2-2"></path><path class="st0" d="M23.5,61c2.3,3.1,4,6.2,7.7,4.2"></path><path class="st0" d="M39.1,61.7c4.6-0.8,9.5-2.5,12.3-4.8"></path><path class="st0" d="M44.5,67.7c1.9-4.5,6.5-10.4,7.4-11.7"></path><path class="st0" d="M43,56.5c2.1,2.1,2.9,4.1,7.6,1.2"></path><path class="st1" d="M28,78.8c1.1-1.5,2.1-1.4,1-5.8s-1.2-4.4-1.2-4.4s-0.9,0.3-1.9,0.7c-1,0.4-5,1.3-5.3,4.8
	c-0.3,3.4,0,5.5,0.2,6.2s0.3,3,0.4,3.6"></path><path class="st2" d="M8.2,69.4c2.4,0.2,4.4,3.5,7.7,3.1s6.9-3.9,8.2-4.8c1.2-0.9,1.9,0.1-0.3-1.1s-2-2.1-4.2-2.7s-6.6,0.9-7.4,2.1
	C11.3,67.2,8.2,69.4,8.2,69.4z"></path><path class="st3" d="M26.1,64.6c-0.6-0.3-1.5-0.2-4.4-1.7c-2.9-1.5-5-3-4.4-5.5c0.7-2.5,1.6-2.5,1.1-4.6s-0.5-2.1-0.5-2.1
	s2.5,1.2,5.9,3.2c3.4,1.9,3.2,6.3,2.8,8C26.3,63.6,26.1,64.6,26.1,64.6z"></path><path class="st4" d="M27.6,65.5c0,0,2.1-0.8,4.8,0.7c2.7,1.4,6.4,1.7,7.9-1.2c1.5-2.9,3.3-4,3.3-4s-0.2,0.4-2.4-1
	c-2.3-1.4-6.5-1.6-8.7,0.3S27.6,65.5,27.6,65.5z"></path><path class="st5" d="M42,77.8c0,0-1.6-5.4-1.5-8.3c0.2-2.9,0.6-4.5,2.9-5.5c2.3-1,3.5-2,3.5-2s0.4,4,1.3,5.4
	c0.9,1.4,1.1,4.5-0.4,5.6C46.5,74,42,77.8,42,77.8z"></path><path class="st6" d="M45.1,58.7c0,0-2.6-0.2-5.2-1.2c-2.7-1-4-1.8-4.3-3.5c-0.3-1.8-0.3-3.4-0.2-5.2c0.1-1.8,0.3-2.5-0.2-2.9
	c-0.5-0.4,0.5,0.9,3.6,1.7s4.8,0.7,5.5,2.2c0.7,1.5-0.3,3.1,0,5C44.4,56.5,45.1,58.7,45.1,58.7z"></path><path class="st0" d="M20.7,52.2c2.1-1,6.3-2.1,9.2-2.8"></path><path class="st0" d="M20.6,45.4c2.5,2.2,6.8,4.5,10.3,4.9"></path><path class="st0" d="M25.5,41.7c0.1,3.9-0.4,7.4,3.8,7.9"></path><path class="st0" d="M37.8,51.3c4.2,2,9.2,3.5,12.8,3.2"></path><path class="st0" d="M38.8,59.3c4.1-2.6,11.4-4.7,12.8-5.2"></path><path class="st0" d="M44.1,49.3c0.5,3,0,5.1,5.5,5.4"></path><path class="st1" d="M18.9,58.8c1.8-0.6,2.6,0.1,4.1-4.2c1.6-4.3,1.6-4.3,1.6-4.3s-0.9-0.2-2-0.5c-1-0.3-4.8-1.8-7.1,0.9
	c-2.2,2.7-3.2,4.5-3.4,5.1s-1.5,2.6-1.7,3.1"></path><path class="st2" d="M8.2,39.7c1.9,1.6,1.5,5.4,4.5,7s7.9,0.8,9.4,0.8c1.5,0,1.5,1.2,0.4-1.1c-1.1-2.3-0.4-2.9-1.9-4.6
	c-1.5-1.8-5.9-3-7.2-2.6S8.2,39.7,8.2,39.7z"></path><path class="st3" d="M25.6,46.1c-0.3-0.6-1.1-1-2.6-3.9c-1.5-2.9-2.4-5.3-0.4-7s2.8-1.1,3.6-3.1s0.8-2,0.8-2s1.3,2.5,3,6
	s-1,7-2.3,8.1S25.6,46.1,25.6,46.1z"></path><path class="st4" d="M26.3,47.7c0,0,2.2,0.6,3.6,3.3c1.4,2.7,4.3,5.1,7.2,3.6c2.9-1.5,5-1.3,5-1.3s-0.4,0.3-1.4-2.2
	c-1-2.5-4.4-5.1-7.2-4.8C30.6,46.5,26.3,47.7,26.3,47.7z"></path><path class="st5" d="M31,66.1c0,0,1.8-5.3,3.6-7.6c1.9-2.3,3.1-3.3,5.6-2.8c2.4,0.5,4,0.4,4,0.4s-2,3.5-2,5.2c0,1.7-1.7,4.3-3.5,4.4
	C36.8,65.6,31,66.1,31,66.1z"></path><path class="st6" d="M44.6,52.3c0,0-2-1.7-3.6-4c-1.6-2.4-2.2-3.7-1.5-5.4s1.7-3,2.9-4.4c1.1-1.4,1.7-1.8,1.5-2.5
	c-0.2-0.6-0.1,1,1.9,3.4c2.1,2.4,3.5,3.4,3.2,5c-0.3,1.6-2,2.4-2.9,4C45.2,50.1,44.6,52.3,44.6,52.3z"></path><path class="st0" d="M28.4,32.9c2.3,0.4,6.3,2,9.1,3"></path><path class="st0" d="M32.3,27.2c0.8,3.2,2.9,7.6,5.6,10"></path><path class="st0" d="M38.4,27.1c-2.2,3.2-4.6,5.8-1.5,8.7"></path><path class="st0" d="M42.9,42c2.3,4.1,5.5,8.2,8.6,10"></path><path class="st0" d="M39,49.1c4.9,0.3,12,2.7,13.5,3.1"></path><path class="st0" d="M49.1,44c-1.3,2.7-3,4.1,1.3,7.6"></path><path class="st1" d="M23.1,37.2c1.8,0.6,2,1.6,5.8-1s3.7-2.6,3.7-2.6s-0.6-0.7-1.3-1.6c-0.7-0.8-2.9-4.3-6.2-3.4s-5.2,1.8-5.8,2.2
	c-0.6,0.4-2.7,1.3-3.2,1.6"></path><path class="st2" d="M25.4,15.4c0.6,2.4-1.9,5.3-0.4,8.3c1.5,3,6,5.3,7.2,6.1c1.3,0.9,0.5,1.9,0.9-0.7s1.3-2.6,1.1-4.9
	s-3-5.9-4.4-6.3C28.6,17.6,25.4,15.4,25.4,15.4z"></path><path class="st3" d="M35.9,30.7C36,30,35.6,29.2,36,26s1.2-5.7,3.7-5.9s2.9,0.7,4.7-0.5c1.8-1.1,1.8-1.1,1.8-1.1s-0.3,2.8-1,6.6
	c-0.7,3.9-4.9,5.1-6.6,5.3S35.9,30.7,35.9,30.7z"></path><path class="st4" d="M35.6,32.4c0,0,1.4,1.7,1,4.8c-0.5,3,0.5,6.6,3.8,7.1s4.8,1.8,4.8,1.8s-0.5,0,0.1-2.6c0.6-2.6-0.6-6.7-3.1-8.1
	C39.7,33.9,35.6,32.4,35.6,32.4z"></path><path class="st5" d="M28.7,50.1c0,0,4.5-3.3,7.4-4.1s4.5-0.9,6.1,1c1.7,1.8,3.1,2.6,3.1,2.6s-3.6,1.7-4.6,3c-1,1.3-3.9,2.5-5.4,1.5
	C33.8,53.1,28.7,50.1,28.7,50.1z"></path><path class="st6" d="M47.8,46.7c0,0-0.7-2.5-0.6-5.3s0.3-4.4,1.9-5.2c1.6-0.9,3.1-1.4,4.9-1.9c1.7-0.5,2.4-0.5,2.7-1.1
	c0.2-0.6-0.7,0.7-0.4,3.9c0.3,3.2,0.9,4.8-0.3,5.9s-3.1,0.8-4.7,1.6S47.8,46.7,47.8,46.7z"></path><path class="st0" d="M45.8,21.5c1.6,1.7,4,5.2,5.7,7.8"></path><path class="st0" d="M52.3,19.2c-1.3,3.1-2,7.9-1.2,11.4"></path><path class="st0" d="M57.4,22.6c-3.7,1.3-7.1,2.1-6.2,6.2"></path><path class="st0" d="M52.4,37.4c-0.5,4.7-0.2,9.8,1.2,13.2"></path><path class="st0" d="M45.1,41c3.8,3.1,8.2,9.2,9.2,10.4"></path><path class="st0" d="M56.3,42.7c-2.6,1.4-4.8,1.6-3.3,7"></path><path class="st1" d="M39,22c1.1,1.5,0.7,2.5,5.3,2.5c4.5,0.1,4.5,0.1,4.5,0.1s-0.1-0.9-0.2-2c-0.1-1.1,0.1-5.2-3.1-6.4
	s-5.3-1.5-6-1.6c-0.7,0-3-0.5-3.5-0.6"></path><path class="st2" d="M53.5,5.6c-0.9,2.3-4.6,3.2-5.1,6.5s1.8,7.8,2.3,9.2c0.5,1.4-0.7,1.8,1.2,0c1.8-1.8,2.6-1.3,3.7-3.3
	c1.2-2,0.9-6.6,0.1-7.7C54.9,9.2,53.5,5.6,53.5,5.6z"></path><path class="st3" d="M53.2,24.1c0.5-0.5,0.6-1.4,2.8-3.8c2.2-2.4,4.3-4,6.5-2.7c2.2,1.3,2,2.2,4.1,2.4c2.1,0.1,2.1,0.1,2.1,0.1
	s-1.9,2.1-4.7,4.8c-2.8,2.7-6.9,1.3-8.4,0.5S53.2,24.1,53.2,24.1z"></path><path class="st4" d="M52,25.4c0,0,0.1,2.2-2,4.5c-2.1,2.2-3.4,5.7-1.1,8c2.3,2.3,2.9,4.3,2.9,4.3s-0.4-0.3,1.6-2.1s3.3-5.8,2.2-8.4
	C54.5,29,52,25.4,52,25.4z"></path><path class="st5" d="M36.1,35.8c0,0,5.6-0.1,8.4,0.9c2.8,1,4.2,1.9,4.4,4.3c0.3,2.5,1,3.9,1,3.9s-3.9-0.7-5.5-0.2s-4.7-0.2-5.3-1.9
	S36.1,35.8,36.1,35.8z"></path><path class="st6" d="M53.6,44.1c0,0,0.9-2.4,2.6-4.7c1.7-2.3,2.8-3.4,4.6-3.2c1.8,0.2,3.4,0.7,5.1,1.3c1.7,0.6,2.3,1,2.8,0.6
	s-1,0.2-2.6,3s-2,4.4-3.7,4.7c-1.6,0.2-3-1.1-4.8-1.4C55.9,44,53.6,44.1,53.6,44.1z"></path><path class="st0" d="M29,40.9c2.3,0.5,6.3,2.1,9.1,3.2"></path><path class="st0" d="M33,35.3c0.7,3.2,2.8,7.6,5.4,10.1"></path><path class="st0" d="M39.1,35.3c-2.3,3.2-4.7,5.7-1.6,8.7"></path><path class="st0" d="M43.3,50.3c2.2,4.1,5.4,8.3,8.4,10.2"></path><path class="st0" d="M39.3,57.3c4.8,0.4,11.9,3,13.4,3.4"></path><path class="st0" d="M49.5,52.4c-1.4,2.7-3,4,1.2,7.6"></path><path class="st2" d="M23.6,45.1c1.8,0.6,2,1.6,5.8-0.9s3.8-2.5,3.8-2.5s-0.6-0.7-1.3-1.6c-0.7-0.9-2.8-4.3-6.2-3.5
	c-3.4,0.8-5.2,1.7-5.8,2.1c-0.6,0.4-2.7,1.2-3.3,1.5"></path><path class="st7" d="M26.4,23.4c0.5,2.4-2,5.3-0.6,8.3s5.9,5.4,7.1,6.3c1.2,0.9,0.5,1.9,1-0.7s1.4-2.5,1.2-4.9s-2.9-5.9-4.3-6.4
	S26.4,23.4,26.4,23.4z"></path><path class="st3" d="M36.5,38.8c0.1-0.7-0.3-1.5,0.2-4.7s1.3-5.7,3.8-5.8c2.5-0.1,2.9,0.7,4.8-0.4s1.8-1.1,1.8-1.1s-0.4,2.8-1.2,6.6
	s-5,5-6.7,5.2S36.5,38.8,36.5,38.8z"></path><path class="st4" d="M36.2,40.6c0,0,1.4,1.8,0.9,4.8c-0.5,3,0.4,6.6,3.6,7.2c3.2,0.6,4.8,1.9,4.8,1.9s-0.5,0,0.2-2.6
	c0.7-2.6-0.5-6.7-3-8.2C40.3,42.1,36.2,40.6,36.2,40.6z"></path><path class="st5" d="M29,58.1c0,0,4.6-3.2,7.4-4c2.9-0.7,4.5-0.8,6.1,1.1c1.6,1.9,3,2.7,3,2.7s-3.7,1.6-4.7,3c-1,1.3-4,2.5-5.4,1.4
	C34,61.2,29,58.1,29,58.1z"></path><path class="st6" d="M48.1,55.1c0,0-0.6-2.5-0.5-5.4s0.4-4.3,2-5.2c1.6-0.9,3.2-1.3,4.9-1.8c1.7-0.5,2.4-0.5,2.7-1.1
	c0.3-0.6-0.7,0.7-0.5,3.9s0.8,4.8-0.4,5.9c-1.2,1.1-3.1,0.7-4.7,1.5C50,53.7,48.1,55.1,48.1,55.1z"></path><path class="st0" d="M38.8,80.1c0.6-2.3,2.4-6.2,3.7-8.9"></path><path class="st0" d="M33.4,75.8c3.3-0.5,7.7-2.4,10.3-4.9"></path><path class="st0" d="M33.7,69.6c3.1,2.4,5.5,5,8.6,2.1"></path><path class="st0" d="M48.9,66.2c4.2-2,8.5-4.9,10.6-7.9"></path><path class="st0" d="M55.7,70.6c0.6-4.8,3.5-11.8,4.1-13.2"></path><path class="st0" d="M51.3,60.1c2.6,1.5,3.9,3.2,7.7-0.8"></path><path class="st1" d="M42.7,85.6c0.7-1.8,1.7-1.9-0.6-5.8s-2.3-3.9-2.3-3.9s-0.8,0.6-1.6,1.2c-0.9,0.6-4.5,2.6-3.8,6
	c0.7,3.4,1.4,5.3,1.8,5.9c0.4,0.6,1.1,2.8,1.3,3.3"></path><path class="st2" d="M21.2,81.8c2.4-0.4,5.1,2.3,8.2,1s5.7-5.6,6.6-6.8c0.9-1.2,1.9-0.4-0.6-1c-2.5-0.6-2.5-1.5-4.8-1.5
	s-6.1,2.6-6.6,3.9C23.5,78.8,21.2,81.8,21.2,81.8z"></path><path class="st3" d="M37.1,72.4c-0.7-0.1-1.5,0.2-4.7-0.4c-3.2-0.7-5.6-1.6-5.6-4.1c0-2.6,0.9-2.9-0.1-4.8c-1-1.9-1-1.9-1-1.9
	s2.8,0.5,6.6,1.5c3.8,1,4.7,5.2,4.8,6.9C37.1,71.3,37.1,72.4,37.1,72.4z"></path><path class="st4" d="M38.8,72.8c0,0,1.8-1.3,4.8-0.6s6.6-0.1,7.3-3.3c0.7-3.2,2.1-4.7,2.1-4.7s0,0.5-2.6-0.3
	c-2.6-0.8-6.7,0.2-8.3,2.5C40.6,68.8,38.8,72.8,38.8,72.8z"></path><path class="st5" d="M56,80.9c0,0-3-4.7-3.6-7.6c-0.6-2.9-0.6-4.5,1.4-6.1s2.9-2.9,2.9-2.9s1.5,3.7,2.7,4.8c1.3,1.1,2.2,4.1,1.1,5.5
	C59.3,76,56,80.9,56,80.9z"></path><path class="st6" d="M53.9,61.6c0,0-2.5,0.5-5.4,0.2c-2.8-0.3-4.3-0.6-5.1-2.3c-0.8-1.6-1.2-3.2-1.6-5c-0.4-1.8-0.4-2.4-1-2.7
	c-0.6-0.3,0.7,0.7,3.9,0.7c3.2-0.1,4.9-0.6,5.9,0.7c1,1.3,0.6,3.1,1.3,4.8C52.7,59.7,53.9,61.6,53.9,61.6z"></path><path class="st0" d="M79.5,71.5c-2.3-0.2-6.4-1.4-9.4-2.2"></path><path class="st0" d="M76.1,77.5c-1-3.2-3.6-7.3-6.5-9.4"></path><path class="st0" d="M70,78.1c1.9-3.4,4-6.2,0.7-8.8"></path><path class="st0" d="M64.2,63.7c-2.6-3.9-6.2-7.7-9.5-9.2"></path><path class="st0" d="M67.5,56.2c-4.9,0.1-12.2-1.7-13.7-2"></path><path class="st0" d="M57.9,62.2c1.1-2.8,2.6-4.3-2-7.5"></path><path class="st1" d="M84.4,66.8c-1.8-0.4-2.2-1.4-5.6,1.5s-3.5,2.9-3.5,2.9s0.7,0.7,1.4,1.4c0.8,0.8,3.3,4,6.5,2.8
	c3.2-1.2,5-2.3,5.6-2.7c0.5-0.4,2.6-1.5,3.1-1.8"></path><path class="st7" d="M83.9,88.6c-0.8-2.3,1.4-5.4-0.3-8.3s-6.4-4.7-7.7-5.5S75.3,73,75,75.6c-0.2,2.6-1.1,2.7-0.7,5
	c0.4,2.3,3.5,5.6,4.9,5.9C80.6,86.8,83.9,88.6,83.9,88.6z"></path><path class="st2" d="M72.2,74.3c0,0.7,0.5,1.5,0.3,4.7c-0.2,3.3-0.7,5.8-3.2,6.2c-2.5,0.4-3-0.4-4.7,0.9c-1.7,1.3-1.7,1.3-1.7,1.3
	s0.1-2.8,0.4-6.7s4.4-5.5,6.1-5.8C71.2,74.5,72.2,74.3,72.2,74.3z"></path><path class="st4" d="M72.3,72.6c0,0-1.6-1.6-1.4-4.7c0.2-3.1-1.1-6.5-4.4-6.8c-3.3-0.2-5-1.4-5-1.4s0.5,0,0.1,2.6
	c-0.4,2.7,1.2,6.6,3.8,7.8C68.1,71.5,72.3,72.6,72.3,72.6z"></path><path class="st5" d="M77.7,54.4c0,0-4.2,3.7-7,4.7c-2.8,1-4.4,1.3-6.2-0.4c-1.8-1.7-3.3-2.4-3.3-2.4s3.5-2,4.3-3.4
	c0.9-1.4,3.7-2.9,5.3-2S77.7,54.4,77.7,54.4z"></path><path class="st6" d="M59,59.4c0.1,0,0.9,2.4,1,5.3c0.2,2.8,0,4.4-1.4,5.4c-1.5,1-3,1.7-4.7,2.4c-1.7,0.7-2.4,0.7-2.6,1.4
	s0.6-0.8,0.1-3.9s-1.3-4.7-0.2-5.9c1.1-1.2,3-1.1,4.5-2C57.2,60.9,59,59.4,59,59.4z"></path><path class="st8" d="M54.8,47.6c0.1,2.3-0.5,6.6-0.9,9.6"></path><path class="st8" d="M61.2,50.1c-3,1.5-6.7,4.6-8.4,7.7"></path><path class="st8" d="M62.7,56.1c-3.6-1.4-6.7-3.1-8.8,0.6"></path><path class="st8" d="M49.2,63.8c-3.5,3.2-6.7,7.2-7.8,10.7"></path><path class="st8" d="M41.4,61.7c0.8,4.8,0.1,12.3,0,13.8"></path><path class="st8" d="M48.6,70.3c-2.9-0.7-4.7-1.9-7.1,3"></path><path class="st8" d="M49.4,43.4c-0.2,1.9-1.1,2.3,2.3,5.4c3.3,3,3.3,3,3.3,3s0.6-0.8,1.2-1.6s3.5-3.8,1.9-6.9
	c-1.6-3-2.9-4.7-3.5-5.1s-1.9-2.3-2.3-2.8"></path><path class="st8" d="M71.1,40.8c-2.2,1.1-5.6-0.7-8.2,1.5c-2.6,2.1-3.8,7-4.3,8.4c-0.5,1.4-1.7,0.9,0.9,0.8c2.6-0.2,2.8,0.7,5,0
	c2.2-0.7,5-4.3,5.1-5.7C69.7,44.3,71.1,40.8,71.1,40.8z"></path><path class="st8" d="M58.6,54.4c0.7-0.1,1.4-0.7,4.6-1c3.2-0.3,5.8-0.2,6.6,2.3c0.8,2.4,0,3,1.5,4.5c1.5,1.5,1.5,1.5,1.5,1.5
	s-2.8,0.3-6.7,0.5s-6-3.6-6.6-5.2C58.9,55.5,58.6,54.4,58.6,54.4z"></path><path class="st8" d="M56.8,54.5c0,0-1.4,1.8-4.4,2c-3.1,0.3-6.3,2-6.1,5.3c0.3,3.2-0.7,5.1-0.7,5.1s-0.1-0.5,2.6-0.5
	s6.3-2.1,7.2-4.9C56.3,58.9,56.8,54.5,56.8,54.5z"></path><path class="st8" d="M38.1,51.8c0,0,4.3,3.7,5.7,6.2c1.4,2.6,1.9,4.2,0.5,6.2c-1.4,2-1.9,3.6-1.9,3.6s-2.5-3.1-4-3.8
	c-1.5-0.7-3.3-3.2-2.7-4.9S38.1,51.8,38.1,51.8z"></path><path class="st8" d="M45.7,69.7c0-0.1,2.3-1.2,5.1-1.8c2.8-0.6,4.3-0.7,5.5,0.7c1.2,1.3,2.1,2.7,3,4.3c0.9,1.6,1.1,2.2,1.7,2.3
	c0.7,0.1-0.9-0.5-3.9,0.5c-3,1-4.5,2-5.8,1.1c-1.4-0.9-1.5-2.8-2.6-4.2C47.5,71.1,45.7,69.7,45.7,69.7z"></path><path class="st9" d="M57.1,57.1c0.4,0,1.2,0,2,0c0.9,0,1.4-0.2,1.2,0.4s-0.8,1.3-0.4,1.4c0.3,0.2,0.7-0.1,0.8,0.4
	c0.1,0.5-1.4,1.2,0,0.8c1.4-0.4,1.9-1.2,2.1-1s-1.8,1.5-2,2c-0.3,0.5-2.2,2.9-3.1,3.9c-0.9,1-4.1,3.2-4.7,3.6s-7.3,2.8-7.6,2.8
	c-0.3,0-1.6-0.4-1.2-0.7s6.8-6.9,6.9-7.1c0.1-0.1,2.6-3.6,3-3.8C54.4,59.8,57.1,57.1,57.1,57.1z"></path><path class="st10" d="M46.6,53c0,0-0.8-3.7-1.4-4.9s-1.7-1.9-1.7-1.9s-0.5,0.7-0.6,0.9s0,2.1,0,3c0,0.9,0.6,7.6,0.5,8
	c0,0.4-0.8,1.3-0.5,2c0.3,0.8,1.1,3.2,1.1,3.2s1.1-2.4,1.2-2.7c0.1-0.3,0.6-4.7,0.8-5S46.6,53,46.6,53z"></path><path class="st10" d="M43.5,68.6c0.6-1.2,1.7-4.5,2.3-5.7c0.6-1.3,3.6-8.7,4.5-9.7s1.8-2.7,2.4-3.1c0.6-0.3,1-0.7,1.3-0.6
	c0.2,0,0.5,0.4,0.3,0.8S53,54,52.9,54.6c-0.1,0.6-5.9,10.5-6.4,11.3s-2.2,2.9-2.5,3.3s-0.5,1.6-0.5,1.6l-1.1-0.2L43.5,68.6z"></path><path class="st9" d="M48.8,48c0.6-0.3,0.6-0.7,0.9-0.4c0.3,0.2,0.6,0.8,0.7,1.3c0.1,0.5,0.1,3.2,0,3.8c-0.1,0.6-0.5,2.1-0.8,2.7
	c-0.2,0.6-2.3,4.2-2.7,5c-0.3,0.8-2.4,5.1-2.7,5.5c-0.3,0.5-0.7,1.2-0.9,1.6s-1,1.5-0.9,1.7c0.1,0.1-0.2,1-0.2,1l-0.7-0.2
	c0,0,2-6.1,2-6.7s1.5-8.8,1.7-9.6c0.2-0.8,1.7-3.6,2.4-4.6C48.3,48.1,48.8,48,48.8,48z"></path><path class="st11" d="M44.3,67.5c0,0,3.3-4.5,4.1-4.9c0.8-0.3,4.4-2.7,5.4-3.4c1-0.7,3.7-3,4.1-3.5s0.8-1.2,0.8-1.5
	c0-0.3-0.1-1.1-0.6-1c-0.5,0-1.4,0.5-2.4,0.9c-0.9,0.4-6.2,4.3-6.4,4.5c-0.2,0.1-3.9,4.7-4,4.9c-0.1,0.1-1.6,2.9-1.8,3.5
	c-0.2,0.5-1.1,2.2-1.1,2.2l0.4,0.8L44.3,67.5z"></path><path class="st12" d="M41,67.3c0,0,0.8-3.5,1.2-4.1s4.8-5.3,5.5-5.6c0.7-0.3,2.8-1,3-1.1s0.8,0.6,0.5,0.8c-0.3,0.2-3.3,3.7-4.1,4.3
	c-0.8,0.7-2.5,2.1-2.7,2.4c-0.3,0.3-0.7,2.8-1.1,3.4c-0.3,0.6-1.1,2-1.4,2c-0.3,0-1.4,0-1.4,0L41,67.3z"></path><path class="st13" d="M44.7,69c0,0,4-4.1,4.4-4.6s2.5-4,3.1-4.2c0.6-0.2,3.7-3.4,4.2-3.7c0.6-0.3,1.5-0.7,1.5-0.7s0.1,0.7,0,1.1
	c-0.1,0.5-2.4,4.3-2.6,4.7s-3.2,3.1-3.7,3.4c-0.5,0.3-3.9,2.6-4.3,3.1c-0.5,0.5-1.4,1-1.7,1.4c-0.3,0.4-1.5,1.3-1.5,1.3L44.7,69z"></path><path class="st11" d="M57.5,64c0.4-0.3,2.5-1.6,4.1-1.7s2.8,0.1,3.1,0.3s0.8,0,0.6,0.7c-0.2,0.7-1.5,1.8-2,2.1
	c-0.5,0.3-1.4,0.8-2.3,1c-0.9,0.2-1.3,0.2-2.4,0.2s-2.3,1.1-3.1,1.1s-1.4,0.3-1.2-0.2c0.2-0.6,1-2.4,1.3-2.4
	C56,65.1,57.5,64,57.5,64z"></path><path class="st14" d="M46.9,71.5c0.5,0,2.6-2.1,3.3-2.5s3-2.8,3.5-3.8c0.5-1.1,1.5-3.2,2.7-3.6c1.2-0.4,2.4-0.7,3.4-1.4
	c1-0.8,3.5-1.7,3.5-1.7s0.3,0.4,0.2,0.7s-3.8,4.1-3.8,4.1S57.1,66,57,66.2c-0.1,0.2-0.9,0.9-1.1,0.9c-0.2,0,2.2-1.3,2.8-1.6
	c0.6-0.3,2.6-0.2,3.4,0c0.8,0.2,0.8-0.2,1.2,0c0.4,0.2,1.2,0.1,1.2,0.3c0,0.1-1.7,2-2.6,2.6c-0.9,0.6-2,1.3-4,1.2
	c-2-0.1-4.1-0.2-5,0.2c-0.9,0.4-3.6,1.7-4.2,1.8c-0.6,0.1-2.4,1.1-2.6,1.1s-0.5-0.4-0.5-0.4L46.9,71.5z"></path><path class="st10" d="M18.7,68.5c-0.3-0.3-0.7-0.9-1.3-1.6s-1-1-0.4-1.1s1.5-0.2,1.4-0.5c-0.1-0.4-0.5-0.5-0.1-0.9
	c0.3-0.4,1.8,0.4,0.6-0.5c-1.2-0.9-2.1-0.7-2-1.1c0.1-0.3,2.3,0.4,2.9,0.4c0.6-0.1,3.6-0.1,5,0.1c1.4,0.1,5.1,1.3,5.7,1.5
	c0.6,0.2,6.7,4,6.9,4.3c0.2,0.3,0.6,1.5,0.2,1.3c-0.5-0.2-9.7-1.1-9.9-1.1s-4.4,0.2-4.8,0S18.7,68.5,18.7,68.5z"></path><path class="st9" d="M22,79.4c0,0-2.4,2.9-3,4.2c-0.6,1.3-0.4,2.5-0.4,2.5s0.8,0,1-0.1c0.2-0.1,1.6-1.3,2.4-1.9
	c0.8-0.5,5.7-5.1,6-5.3c0.3-0.2,1.5-0.1,1.9-0.8c0.4-0.7,1.8-2.8,1.8-2.8s-2.6,0.6-2.9,0.7c-0.3,0.1-4.1,2.4-4.4,2.5
	C24.1,78.3,22,79.4,22,79.4z"></path><path class="st12" d="M36.1,72.2c-1.3,0.3-4.6,1.4-5.9,1.7c-1.4,0.3-9.1,2.5-10.4,2.4c-1.3,0-3.3,0.3-3.9,0
	c-0.6-0.3-1.1-0.4-1.3-0.6c-0.1-0.2,0-0.6,0.5-0.8c0.4-0.1,3.6-1.3,4.1-1.6c0.5-0.3,11.9-1.8,12.9-1.9c1,0,3.7,0,4.2-0.1
	s1.5-0.6,1.5-0.6l0.5,1L36.1,72.2z"></path><path class="st9" d="M16.6,80.7c-0.6-0.2-0.9-0.1-0.9-0.5c0-0.4,0.3-1,0.6-1.3c0.3-0.4,2.5-2.1,3-2.3c0.5-0.3,2-0.9,2.6-1.1
	s4.7-0.7,5.6-0.9s5.5-1.2,6-1.3c0.5-0.1,1.4-0.2,1.8-0.3c0.4-0.1,1.8-0.2,1.9-0.3c0.1-0.2,1-0.4,1-0.4l0.3,0.7c0,0-6,2.1-6.5,2.5
	s-7.9,4.2-8.6,4.5c-0.8,0.3-3.9,0.9-5.1,0.9C17,81,16.6,80.7,16.6,80.7z"></path><path class="st9" d="M34.8,72.2c0,0-5.6,0.2-6.4-0.2c-0.8-0.4-4.9-1.8-6-2.2c-1.1-0.4-4.7-1-5.3-1.1s-1.4,0.1-1.7,0.3
	c-0.3,0.2-0.8,0.7-0.4,1.1c0.4,0.4,1.3,0.9,2.2,1.3c0.9,0.5,7.2,2.2,7.5,2.3s6.1,0.2,6.3,0.1c0.2,0,3.3-0.5,3.9-0.7
	c0.6-0.1,2.4-0.5,2.4-0.5l0.4-0.8L34.8,72.2z"></path><path class="st12" d="M36.6,75c0,0-3.3,1.5-4,1.6s-7.1-0.6-7.8-0.9c-0.7-0.3-2.5-1.6-2.7-1.7c-0.2-0.1,0-0.9,0.3-0.8
	c0.3,0.1,4.9,0.4,6,0.6c1,0.2,3.2,0.7,3.6,0.7s2.6-1.2,3.4-1.3c0.7-0.1,2.2-0.4,2.4-0.1s0.9,1.1,0.9,1.1L36.6,75z"></path><path class="st12" d="M35.7,71c0,0-5.7-0.6-6.4-0.7s-4.7,0.5-5.2,0.2s-5-0.8-5.5-1.1c-0.6-0.3-1.5-0.8-1.5-0.8s0.4-0.5,0.9-0.7
	c0.5-0.2,4.8-0.8,5.3-0.8c0.5-0.1,4.4,0.6,4.9,0.8c0.5,0.2,4.4,1.4,5.1,1.5c0.7,0.1,1.7,0.5,2.2,0.5c0.5,0,2,0.3,2,0.3L35.7,71z"></path><path class="st12" d="M23.9,64c-0.5-0.2-2.8-0.9-3.9-2.2c-1.1-1.3-1.6-2.3-1.7-2.6s-0.5-0.7,0.2-0.9c0.7-0.2,2.3,0.1,2.9,0.3
	c0.5,0.2,1.5,0.5,2.2,1.2c0.7,0.6,1,0.9,1.6,1.7c0.7,0.8,2.2,1.1,2.8,1.7c0.5,0.6,1.1,0.9,0.5,1.1c-0.6,0.2-2.5,0.7-2.7,0.5
	C25.6,64.5,23.9,64,23.9,64z"></path><path class="st14" d="M36.3,67.7c-0.3-0.4-3.3-0.8-4-1c-0.7-0.3-4.1-0.7-5.2-0.4c-1.1,0.3-3.4,0.7-4.5,0.1c-1-0.7-2-1.5-3.2-1.8
	c-1.2-0.3-3.5-1.7-3.5-1.7s0.1-0.5,0.4-0.5c0.3,0,5.6,0.5,5.6,0.5s3.6,0.3,3.9,0.2c0.3,0,1.2,0.2,1.4,0.3c0.2,0.1-2.4-0.9-3-1.2
	s-1.8-2-2.1-2.7s-0.7-0.5-0.8-0.9c-0.1-0.4-0.6-1-0.5-1.1c0.1-0.1,2.6,0.1,3.6,0.5c1.1,0.4,2.2,0.8,3.4,2.4s2.3,3.3,3.3,3.8
	c0.9,0.5,3.6,1.8,4,2.2c0.5,0.4,2.3,1.2,2.5,1.4c0.2,0.2,0,0.6,0,0.6L36.3,67.7z"></path><path class="st11" d="M46,94.6c-0.1,0.4-0.6,1-1,1.8c-0.4,0.8-0.5,1.3-0.9,0.9c-0.4-0.5-0.7-1.3-1.1-1.1c-0.3,0.2-0.2,0.6-0.7,0.5
	c-0.5-0.2-0.4-1.8-0.7-0.4c-0.3,1.5,0.2,2.3-0.1,2.3s-0.5-2.3-0.8-2.8c-0.3-0.5-1.5-3.3-2-4.6c-0.4-1.3-0.9-5.2-0.9-5.8
	c-0.1-0.7,1-7.8,1.1-8.1c0.2-0.3,1.1-1.2,1.2-0.7c0,0.5,2.9,9.3,3,9.5c0.1,0.2,2,3.9,1.9,4.4C45,91,46,94.6,46,94.6z"></path><path class="st12" d="M54.6,87.2c0,0,3.6,1,5,1.1c1.4,0,2.4-0.6,2.4-0.6s-0.3-0.8-0.5-0.9c-0.2-0.2-1.9-0.9-2.7-1.4
	c-0.8-0.5-7-3.1-7.3-3.3c-0.3-0.2-0.7-1.3-1.5-1.4S46.7,80,46.7,80s1.6,2.1,1.9,2.4c0.2,0.2,3.9,2.7,4,3S54.6,87.2,54.6,87.2z"></path><path class="st11" d="M42.3,77.1c0.8,1.1,3.2,3.6,4,4.7c0.8,1.1,5.9,7.3,6.4,8.5s1.6,2.9,1.6,3.5s0.1,1.2-0.1,1.4s-0.6,0.2-0.9-0.1
	s-2.7-2.8-3.1-3.1c-0.4-0.3-6.5-10.1-7-11s-1.5-3.3-1.7-3.8c-0.2-0.4-1.2-1.2-1.2-1.2l0.7-0.8L42.3,77.1z"></path><path class="st12" d="M58,91.5c0,0.6,0.3,0.8-0.1,1c-0.4,0.2-1,0.1-1.5,0c-0.5-0.1-2.9-1.4-3.3-1.8s-1.6-1.5-2-1.9s-2.6-4-3.1-4.7
	c-0.5-0.7-3.3-4.5-3.6-5c-0.3-0.5-0.7-1.2-1-1.5c-0.3-0.3-0.9-1.6-1.1-1.6c-0.2,0-0.8-0.7-0.8-0.7l0.6-0.5c0,0,4.4,4.6,5,5
	c0.6,0.3,7.1,5.5,7.7,6c0.6,0.6,2.4,3.2,2.9,4.2C58.1,91,58,91.5,58,91.5z"></path><path class="st9" d="M42.9,78.4c0,0,2.4,5,2.4,5.9s0.3,5.2,0.4,6.3s0.9,4.7,1.2,5.3c0.2,0.6,0.7,1.2,0.9,1.4s1,0.4,1.2-0.1
	c0.2-0.5,0.3-1.5,0.3-2.5c0.1-1-0.9-7.5-0.9-7.7c0-0.2-2.3-5.7-2.4-5.8c-0.1-0.1-1.8-2.8-2.2-3.3c-0.4-0.5-1.4-2-1.4-2l-0.9,0
	L42.9,78.4z"></path><path class="st12" d="M44.7,75.6c0,0,2.7,2.4,3.1,3c0.4,0.6,2.4,6.8,2.3,7.5c0,0.7-0.5,3-0.5,3.2s-0.8,0.4-0.9,0.1s-1.7-4.7-1.9-5.7
	c-0.2-1-0.7-3.2-0.8-3.6c-0.2-0.4-2.1-2-2.5-2.6c-0.4-0.6-1.2-1.9-1.1-2.2c0.1-0.3,0.7-1.2,0.7-1.2L44.7,75.6z"></path><path class="st12" d="M41.4,78c0,0,1.8,5.5,2,6.1c0.2,0.6,2.4,4.1,2.3,4.7s1.3,4.9,1.3,5.5c0,0.6-0.1,1.6-0.1,1.6s-0.6-0.2-1-0.5
	c-0.3-0.3-2.7-4.1-2.9-4.5c-0.3-0.4-1.2-4.3-1.2-4.8s-0.5-4.6-0.7-5.3c-0.2-0.7-0.2-1.7-0.4-2.2s-0.5-1.9-0.5-1.9L41.4,78z"></path><path class="st12" d="M39.7,91.6c0,0.5,0.3,2.9-0.5,4.4c-0.7,1.5-1.4,2.4-1.7,2.6c-0.3,0.2-0.4,0.7-0.9,0.2
	c-0.5-0.5-0.9-2.1-0.9-2.7c-0.1-0.6-0.1-1.6,0.2-2.5c0.3-0.9,0.4-1.3,0.9-2.2c0.5-0.9,0.1-2.5,0.5-3.2c0.3-0.7,0.4-1.4,0.8-0.9
	c0.4,0.5,1.6,2,1.6,2.3C39.5,89.9,39.7,91.6,39.7,91.6z"></path><path class="st9" d="M38.2,78.8c-0.2,0.5,0.6,3.3,0.7,4.1c0.1,0.8,1,4,1.7,4.9c0.7,0.9,2.1,2.8,1.9,4.1s-0.5,2.4-0.3,3.6
	c0.2,1.2-0.2,3.9-0.2,3.9s-0.5,0.1-0.7-0.1c-0.1-0.2-1.8-5.3-1.8-5.3s-1.2-3.4-1.4-3.6C38,90,37.7,89,37.8,88.8s0.1,2.5,0.1,3.2
	c0,0.7-1.1,2.4-1.6,3c-0.6,0.6-0.2,0.8-0.5,1.1s-0.7,1-0.8,0.9s-0.9-2.4-1-3.5s-0.2-2.3,0.8-4.1c1-1.7,2.1-3.5,2.2-4.5
	c0.1-1,0.2-4,0.4-4.6c0.2-0.6,0.2-2.6,0.2-2.8c0.1-0.2,0.6-0.2,0.6-0.2L38.2,78.8z"></path><path class="st12" d="M40.8,68.3c0-0.3-0.9-3.7-0.4-5c0.5-1.3,2.3-3.4,2.5-3.9c0.2-0.5,0.8-6,0.7-7.2c-0.2-1.2-1.4-2.1-1.6-2.7
	c-0.2-0.6,0.2-1.4-0.3-1.6c-0.6-0.2-0.7,0.8-1.1,1.1s-1.6,0.1-1.9,0.6c-0.2,0.5,0,1.2-0.5,1.6s-0.9,0.5-1,1.1
	c-0.1,0.6,0.2,2.7,0.6,4.6c0.4,1.8,1.3,3.7,1.3,6c0,2.3,0.1,5,0.5,5.6s0.7,1.9,0.7,1.9C40.4,70.1,40.8,68.3,40.8,68.3z"></path><path class="st11" d="M39.2,55.1c0.1-0.3,0.6-2.3,1.6-3.2s0.7-1.1,1.7-1.2s1,0.1,1.6,0c0.6-0.1,0.8,0,0.6,0.3
	c-0.2,0.4-1.4,1.9-1.6,2.2s-1.4,2.8-1.6,3.6s-0.8,4.3-0.9,4.9s0.3,6.5,0.3,6.5l-1,0.8c0,0-0.8-8-0.9-8.5c-0.1-0.5-2.1-4.4-2.3-5.5
	C36.3,54,36,52.4,36,51.7s-0.3-1.3-0.3-1.5s0.4-0.2,1.1,0.6c0.7,0.8,1.3,1.6,1.5,2s0.1,1.3,0.3,1.5s0.5,1.7,0.5,1.7V55.1z"></path><path class="st9" d="M38.6,67.2c0-0.5,0.1-4.3,0-6.1c-0.1-1.8-1-10.2-1.8-10.9c-0.8-0.7-1.6-0.5-2.4-0.6c-0.8-0.1-2,1-2.1,1.7
	c0,0.7,0.3,2.1-0.3,2c-0.6,0-2.8-0.5-3.2-1.2c-0.4-0.7-1-1.7-1.3-1.2c-0.3,0.5-0.4,2.5-0.3,3.1c0,0.7,0.3,3,0.3,3.6
	c0,0.6-0.1,4.8,0.5,5.5c0.6,0.7,2.5,1.9,3.9,2.5c1.4,0.5,3.5,1.1,4.3,1.6c0.8,0.5,2.4,1.1,2.4,1.1s-0.7,0.2-1-0.6
	c-0.2-0.8-2.3-2.6-3-3.3c-0.7-0.8-1-1.6-0.8-2.9c0.2-1.2,0.9-2.5,0.9-2.5s0.7-0.3,1.3,1.3c0.6,1.6,0.8,4,1.1,4.6
	C37.5,65.3,38.6,67.2,38.6,67.2z"></path><path class="st12" d="M39.3,68.7l-0.7-1.5c0,0-0.8-7.9-0.7-8.7c0.1-0.7-1.3-7-1.8-7.6c-0.5-0.6-0.7-0.9-1-1.3
	c-0.3-0.4-0.7-1-1.3-1.2c-0.6-0.2-1.1-0.1-1.5,1.1s-0.5,2.1-0.4,2.7c0.1,0.6,0,1.1,0,1.1s-1-1.5-1.7-1.9s-1.8-1-2.2-1.2
	c-0.4-0.2-0.7-0.6-0.7-0.6c0-0.1,0.1,3,1.1,3.7s1.8,1.2,2.1,1.5c0.3,0.3,1.5,1.6,2,2.5c0.5,0.9,2.9,5.3,3,5.4
	c0.1,0.1,1.5,3.5,1.8,3.8c0.3,0.3,1.1,1.7,1.1,1.7l1.2,0.8"></path><path class="st10" d="M37.5,67.3c0,0-3-3-3.2-3.5s-1.8-1.5-1.5-2.3c0.3-0.8,0.4-2.4,0.5-3.3s-0.8-2.6-1.1-3.1
	c-0.3-0.6-1.4-1.4-1.4-1.4s-1,1.2-1,1.9c0,0.7,0,1.8,0,1.8s-2.2-1.7-2.6-1.9c-0.4-0.3-2-0.9-2.6-1c-0.7-0.1-1.2-0.4-1.4,0
	c-0.2,0.3-0.1,0.8,0,1.4c0.1,0.6,0.2,0.9,0.9,1.9c0.8,1.1,1.1,1.9,2.3,3c1.2,1.1,2.4,2.7,3.6,3c1.3,0.4,1.3,0.9,3.1,1.7
	s2.6,1.5,3.3,1.8s2.7,2.1,2.9,2.3C39.3,69.6,37.5,67.3,37.5,67.3z"></path><path class="st11" d="M37.1,74c-0.3,0.1-2.8,2.6-4.2,2.7c-1.4,0.1-4.1-0.5-4.6-0.4s-5.7,2-6.7,2.7c-1,0.7-1.2,2.2-1.6,2.7
	s-1.4,0.5-1.3,1c0.1,0.6,1.1,0.2,1.4,0.4c0.4,0.2,0.8,1.4,1.4,1.4c0.5,0,1.1-0.5,1.6-0.3c0.6,0.2,0.9,0.5,1.4,0.4
	c0.5-0.2,2.4-1.4,3.8-2.6c1.4-1.2,2.7-2.8,4.7-3.9s4.4-2.5,4.7-3c0.3-0.6,1.4-1.5,1.3-1.5C38.9,73.4,37.1,74,37.1,74z"></path><path class="st12" d="M26.1,81.5c-0.3,0-2.3,0.6-3.6,0.1c-1.3-0.5-1.3-0.1-1.8-1s-0.3-1-0.7-1.4c-0.4-0.5-0.4-0.7,0-0.7
	c0.4,0,2.3,0.4,2.7,0.4c0.4,0.1,3.2-0.1,4-0.2c0.8-0.2,4.2-1.3,4.8-1.5C32,77,37.1,74,37.1,74l1.2,0.5c0,0-6.7,4.4-7.1,4.8
	c-0.4,0.3-2.9,3.9-3.8,4.6s-2.1,1.7-2.7,2c-0.6,0.4-1,0.8-1.2,1c-0.2,0.1-0.4-0.3,0-1.3c0.4-1,0.8-1.9,1.1-2.3
	c0.3-0.4,1.1-0.7,1.2-1c0.1-0.3,1.2-1.2,1.2-1.2L26.1,81.5z"></path><path class="st11" d="M37.1,76.4c-0.5,0.2-3.9,1.9-5.4,2.8s-8.6,5.6-8.8,6.7c-0.2,1,0.3,1.7,0.6,2.4c0.2,0.8,1.9,1.3,2.5,1.1
	c0.6-0.3,1.7-1.3,1.9-0.7c0.2,0.6,0.8,2.7,0.5,3.4c-0.4,0.7-1,1.6-0.4,1.7c0.6,0,2.4-0.8,2.9-1.2c0.6-0.3,2.5-1.6,3.1-1.9
	c0.5-0.3,4.3-2.1,4.6-3s0.5-3.1,0.4-4.6c-0.2-1.4-0.7-3.7-0.6-4.6s-0.2-2.6-0.2-2.6s0.5,0.5-0.1,1.1c-0.6,0.6-1.2,3.2-1.6,4.2
	s-1,1.7-2.2,2.1c-1.2,0.4-2.7,0.3-2.7,0.3s-0.6-0.5,0.5-1.7s3.2-2.6,3.5-3.1C35.9,78.3,37.1,76.4,37.1,76.4z"></path><path class="st12" d="M38.1,75.1l-1,1.3c0,0-6.7,4.4-7.4,4.7c-0.7,0.3-5.6,4.4-6,5.1c-0.3,0.7-0.5,1-0.7,1.5c-0.2,0.5-0.5,1-0.4,1.7
	c0.1,0.7,0.4,1,1.7,0.8c1.2-0.2,2-0.5,2.5-0.9c0.5-0.4,0.9-0.5,0.9-0.5s-0.9,1.6-0.9,2.4s0,2,0,2.5s-0.1,0.9-0.2,0.9
	c-0.1,0,2.6-1.5,2.8-2.7c0.2-1.2,0.3-2.1,0.4-2.6s0.7-2.1,1.3-3c0.6-0.9,3.3-5,3.4-5.1c0.1-0.2,2.4-3,2.6-3.4s1-1.8,1-1.8l0.2-1.4"></path><path class="st12" d="M37.7,77.3c0,0-1.3,4-1.6,4.5c-0.3,0.5-0.5,2.3-1.3,2.4c-0.8,0.1-2.4,0.7-3.1,1.1c-0.8,0.4-1.9,1.9-2.3,2.4
	c-0.4,0.5-0.6,1.9-0.6,1.9s1.5,0.3,2.2,0c0.6-0.3,1.6-0.8,1.6-0.8S32,91.6,32,92.1s0.1,2.2,0.3,2.8s0.2,1.2,0.6,1.3s0.8-0.3,1.3-0.7
	c0.5-0.4,0.7-0.5,1.3-1.7c0.6-1.2,1.1-1.8,1.6-3.4c0.4-1.6,1.3-3.3,1-4.6c-0.2-1.3,0.2-1.6,0.1-3.5c-0.1-1.9,0.1-3,0.1-3.8
	c0-0.8,0.6-3.4,0.7-3.6C38.9,74.7,37.7,77.3,37.7,77.3z"></path><path class="st9" d="M43.2,75.5c0.2,0.2,3.6,1.4,4.3,2.6c0.7,1.2,1.4,3.9,1.7,4.3s4.3,4.2,5.4,4.8c1.1,0.6,2.5,0.1,3.2,0.3
	c0.6,0.2,1,1,1.5,0.7c0.5-0.3-0.3-1.1-0.2-1.5c0-0.4,0.9-1.4,0.7-1.8c-0.2-0.5-0.9-0.7-1-1.3c-0.1-0.6,0.1-1-0.3-1.4
	c-0.4-0.4-2.3-1.5-4-2.2s-3.7-1.2-5.6-2.5c-1.9-1.3-4.1-2.9-4.8-2.9c-0.6,0-2-0.6-2-0.5C41.9,74.1,43.2,75.5,43.2,75.5z"></path><path class="st9" d="M54.8,81.9c0.1,0.3,1.5,1.8,1.7,3.2c0.1,1.3,0.5,1.2-0.1,2.1c-0.6,0.9-0.7,0.7-0.9,1.3
	c-0.2,0.6-0.4,0.6-0.6,0.3c-0.2-0.4-0.7-2.3-0.8-2.6c-0.1-0.3-1.5-2.8-2-3.5s-3-3.2-3.4-3.7s-5.4-3.6-5.4-3.6l-0.1-1.3
	c0,0,6.9,4,7.4,4.2c0.5,0.2,4.8,0.9,5.8,1.4c1,0.5,2.4,1.2,3,1.5c0.6,0.4,1.2,0.6,1.4,0.6s-0.1,0.5-1.1,0.6s-2,0.1-2.6,0
	s-1.1-0.7-1.4-0.6c-0.3,0-1.7-0.6-1.7-0.6L54.8,81.9z"></path><path class="st9" d="M45.3,74.4c0.4,0.4,3.4,2.6,4.9,3.6c1.5,1,8.9,5.2,9.9,5c1-0.2,1.4-1,1.9-1.6c0.6-0.6,0.4-2.3-0.1-2.7
	c-0.5-0.4-1.9-1-1.5-1.4c0.4-0.5,2.1-2,2.8-1.9s1.9,0.2,1.7-0.3s-1.8-1.8-2.3-2.1s-2.6-1.5-3.1-1.9s-3.8-2.9-4.7-2.8
	s-3.1,0.9-4.3,1.7c-1.2,0.8-3,2.2-3.9,2.5c-0.9,0.3-2.3,1.3-2.3,1.3s0.3-0.7,1.1-0.4c0.8,0.3,3.4-0.3,4.5-0.4c1-0.1,1.9,0.1,2.8,1
	c0.9,0.9,1.5,2.3,1.5,2.3s-0.2,0.8-1.8,0.3c-1.6-0.5-3.7-1.7-4.3-1.8C47.6,74.6,45.3,74.4,45.3,74.4z"></path><path class="st14" d="M43.7,74l1.6,0.4c0,0,6.9,4.1,7.4,4.6c0.6,0.5,6.4,3.1,7.2,3.1s1.1,0,1.6-0.1c0.5,0,1.2,0,1.7-0.4
	c0.6-0.4,0.7-0.8,0-1.8s-1.4-1.6-1.9-1.9c-0.5-0.3-0.9-0.6-0.9-0.6s1.8,0.1,2.5-0.2s1.8-0.9,2.2-1s0.9-0.3,0.9-0.2
	c0,0.1-2.5-1.7-3.7-1.3c-1.1,0.4-2,0.7-2.5,0.8c-0.5,0.1-2.2,0.3-3.3,0.1s-5.9-0.8-6.1-0.8c-0.2,0-3.8-0.8-4.2-0.8
	c-0.4,0-2.1-0.1-2.1-0.1l-1.4,0.4"></path><path class="st10" d="M45.9,73.4c0,0,4.2-0.6,4.8-0.5c0.6,0.1,2.3-0.6,2.8,0.1c0.5,0.7,1.7,1.8,2.4,2.3c0.7,0.5,2.5,0.9,3.2,1
	c0.6,0.1,2-0.3,2-0.3s-0.4-1.5-0.9-2S58.6,73,58.6,73s2.6-0.8,3.1-1c0.5-0.2,1.9-1.1,2.4-1.5c0.5-0.5,1-0.8,0.9-1.1
	c-0.2-0.3-0.6-0.6-1.2-0.9s-0.8-0.4-2.1-0.4c-1.3,0-2.1-0.2-3.7,0.1s-3.5,0.3-4.6,1.1c-1,0.8-1.5,0.6-3.2,1.5s-2.7,1.2-3.4,1.6
	c-0.7,0.3-3.3,1-3.5,1C43,73.5,45.9,73.4,45.9,73.4z"></path><path class="st15" d="M53.5,75.8c-1.6-1.3-5.2-3.1-5.4-3.3c0,0-0.1-0.1-0.2-0.1c-0.5,0.5-0.9,1-1.2,1.7c-0.6,1.4-1.6,2.6-2.1,2.6
	c-0.6-0.1-1.5-0.4-2.1-0.1c-0.6,0.3-1.1,0.5-0.8,1.2c0.3,0.7,1.5,1.1,1.1,1.8c-0.5,0.6-0.3,1.4-1.2,0.4c-0.9-1.1-0.7-1.7-1.5-2
	c-0.8-0.3-1.2-0.5-2-0.3c-0.8,0.2-1.2,1.2-1.6,0.2c-0.3-1-0.5-2-1.4-2.1c-1-0.1-0.6-0.5-1.5,0.2c-0.2,0.2-0.5,0.4-0.9,0.7
	c0.5,0,0.7,0,1.4-0.1c1-0.1,1.3,0.4,0.9,1.4c-0.4,1-0.3,2.4-1.1,2.6c-0.8,0.2-2.1,0.5-2.7,0.6c-0.5,0.1-1.1,0.4-0.2,0.7
	c0.9,0.3,2.9,0.7,3.8,0c0.9-0.7,1.9-2.2,2.3-2.8c0.4-0.5,0.9-0.7,1.2-0.2c0.3,0.5-0.8,0.6,0.3,0.5c1.1-0.1,1.2-0.5,1.2-0.5
	s0.3,0.9,0.7,1.3c0.4,0.4,2.1,2.4,2.3,2.9c0.3,0.5,1.2,2.8,1.3,3.5c0.1,0.6-0.1,2.4,0.2,2.6c0.3,0.3,0.5,0.4,0.6,0.3
	c0.1-0.1,1.5-1.7,0.9-3.4c-0.5-1.6-2.4-4.2-2.3-5.1c0-0.8,0.2-1.5-0.1-1.9S43,78,43.1,77.8c0.1-0.1,0.4-0.2,1.1,0.1
	c0.7,0.4,2.1,0.1,2.1,0.1s-0.1-0.3,0-1.1c0.1-0.8,1.5-0.9,1.6-1.2c0.1-0.3-0.5-2.3,1-0.5c1.4,1.9,1.3,2.6,3,3.4s3.2,1.4,3.2,0.7
	C55.1,78.8,55.1,77,53.5,75.8z"></path><path class="st14" d="M35.1,75.7c1,0.1,1.1,1.1,1.4,2.1c0.3,1,0.7,0,1.6-0.2c0.8-0.2,1.2,0,2,0.3c0.8,0.3,0.6,1,1.5,2
	c0.9,1.1,0.7,0.3,1.2-0.4c0.5-0.6-0.8-1.1-1.1-1.8c-0.3-0.7,0.2-0.9,0.8-1.2c0.6-0.3,1.5,0,2.1,0.1c0.6,0.1,1.5-1.2,2.1-2.6
	c0.3-0.7,0.7-1.3,1.2-1.7c-0.5-0.3-1.6-0.9-1.7-1.4c-0.1-0.6-0.4-1.9-1.5-2.2c-1.1-0.3-1,0-1.4-0.7c-0.4-0.7-0.7-1.1-1-0.5
	c-0.2,0.6-0.3,1.3-0.8,0.8s-0.7-0.9-1.6-0.8c-0.9,0-0.6,0.1-1.1,0.3C38.3,68,38.3,68,38.3,68c0.1-0.2-0.6-1.8-0.2-2.4
	c0.4-0.6,1-0.7,1-1c0-0.3-0.4-0.8-0.9-0.4c-0.5,0.4-0.6,0.7-1.1,0.4c-0.4-0.3-0.7-1.1-1.3-0.7c-0.6,0.4-0.3,1.4-0.2,2
	c0.1,0.6-0.2,1-0.1,1.7s0.3,1.5,0,1.7c-0.3,0.2-0.6,0.7-1.4,1.1c-0.8,0.4-1,0.2-1.6,0.4c-0.6,0.2-0.3,0.8-0.3,1
	c0,0.2-0.3,1.1-0.5,1.9c-0.1,0.8-1.5,2.6,0,2.8c0.5,0.1,0.8,0.1,1.1,0.1c0.4-0.3,0.7-0.5,0.9-0.7C34.5,75.2,34.2,75.6,35.1,75.7z"></path><path class="st16" d="M36.8,71.2c-0.3,0.3-1.1,0.7-0.7,1.1c0.4,0.4,0.7,1.2,0.7,1.3c-0.1,0-0.8-0.1-1.1,0c-0.2,0.1-0.5,0.3-0.7,0.7
	c-0.2,0.4-0.5,1,0.2,1.3c0.7,0.3,1.6,0.9,1.6,0.3c0.1-0.5-0.6-0.7-0.4-0.9c0.2-0.2,1.2-1.4,1.2-1.4s0-0.4,0.4,0.2
	c0.4,0.5,0.7,0.6,1.2,0.4s2-1.3,1.9-0.8c-0.1,0.5,0,1.3,0.3,1.1c0.2-0.2,0.5-1.2,0.5-1.2s-1.1-0.9-0.7-1.4c0.4-0.5,0.7-1.6,0.7-1.6
	l-1,1.1l-1.3-1.9l0.3,1.7c0,0-0.4,0-0.6-0.3C39.1,70.6,37,70.9,36.8,71.2z"></path><path class="st16" d="M33.7,71.2c0,0,1-0.3,1,0.2c0,0.5,0,1.6,0.4,1.6s0.4-0.4,0.4-1.1c0-0.7,0.9-1.1,1.1-1.2s0.3-0.7,0-0.7
	s-0.7-0.2-0.7-0.3c0-0.1,0.5-0.7-0.4-0.4s-1.7,0.5-1.7,0.7C33.7,70.3,33.7,71.2,33.7,71.2z"></path><path class="st17" d="M35.5,70.4c0-0.2-1-2-1.4-2.4s-0.9-0.2-0.9,0s-0.1,0.7,0.3,1.1c0.3,0.4,1.1,1.7,1.3,1.8
	c0.2,0.2,0.7,0.3,0.7,0.3V70.4z"></path><path class="st17" d="M38.6,69.2c0-0.2,0.1-0.9-0.4-1.3c-0.5-0.4-0.8-0.9-0.9-0.3c-0.1,0.6-0.2,1.3,0,1.7c0.2,0.4,0.1,0.9,0.4,1.2
	c0.2,0.2,0.3,0.4,0.6,0.4c0.3-0.1,0.2-0.1,0.4-0.4C38.8,70.2,38.6,69.2,38.6,69.2z"></path><path class="st17" d="M41.1,68.4c-0.1-0.5,1.5-1.8,1.7-2.2c0.2-0.4,0.3-0.7,0.5-0.8c0.3-0.1,0.8-0.1,0.9,0.3c0,0.4-0.4,1.8-0.9,2.3
	c-0.5,0.5-1.3,1.2-1.3,1.2S41.3,69.1,41.1,68.4z"></path><path class="st17" d="M45.5,69.7c0,0,1.1-1.2,1.3-1.5c0.2-0.3,0.3-1.1,0.5-1c0.3,0.1,0.8,0.5,0.6,0.9c-0.1,0.4-0.4,1,0,0.7
	s1-0.4,1.6-0.5s1.2,0,0.7,0.4s-2,0.6-2.3,0.7c-0.3,0-1.6,0.2-1.8,0.4c-0.2,0.2-0.7,0.4-0.7,0.4V69.7z"></path><path class="st17" d="M41.1,72.9h1.3c0,0,0.2-0.1,0.2-0.5c0-0.4,0.6-0.5,0.7-0.3c0.1,0.2,0.6,0.3,0.2,0.8s-0.7,0.7-1.2,0.7
	c-0.5,0-1-0.1-1.3-0.1C40.9,73.4,40.6,72.9,41.1,72.9z"></path><path class="st17" d="M35.3,74.4c-0.1,0-1.1,0-1.8,0c-0.7,0-1.5-0.7-1.1,0c0.4,0.7,0.4,0.9,1.1,1s1.4-0.1,1.8,0
	c0.4,0.1,0.6,0.2,0.6-0.2S35.3,74.4,35.3,74.4z"></path><path class="st17" d="M37.6,76.6c0.1,0.3,0.6,2.1,0.6,2.1s-0.1,0.4,0.3,0.5c0.4,0.1,0.7,0.5,0.6-0.1c-0.1-0.6,0.2-1,0-1.3
	c-0.2-0.3-0.1-0.5-0.2-0.7s-0.4-0.1-0.6-0.2S37.6,76.6,37.6,76.6z"></path><path class="st17" d="M42.3,75.8c0,0,0.8,0.5,1.1,0.5c0.3,0,0.7,0.4,0.9,0c0.2-0.4,0-0.8,0.6-0.5s0.8,0.3,0.4,0.8
	c-0.4,0.6-0.7,0.8-1.4,0.6c-0.7-0.2-1-0.4-1.4-0.6c-0.4-0.2-0.6-0.4-0.6-0.4S41.6,75.8,42.3,75.8z"></path><path class="st17" d="M38.6,71.5c0,0,1.2,0.2,1.2,0.6c0,0.5,0.1,1.2-0.4,1.4c-0.5,0.1-1.6,0.1-1.4,0.4c0.2,0.4,0.2,0.8,0,1.2
	c-0.2,0.4-0.6,1.4-0.7,0.6c-0.2-0.8,0.4-1.5-0.2-1.6s-1,0.1-0.9-0.4c0.1-0.5,0.3-0.4,0.4-0.8c0.1-0.4,0.2-0.8,0.4-0.8
	C37,72,38.6,71.5,38.6,71.5z"></path><path class="st9" d="M66.3,18.8c0.4-0.1,1.4,0.1,2.4,0c1.1-0.1,1.7-0.2,1.4,0.4c-0.3,0.7-0.9,1.5-0.5,1.7c0.4,0.2,0.8-0.1,0.9,0.5
	s-1.7,1.4,0,0.9c1.7-0.5,2.3-1.5,2.5-1.1c0.2,0.3-2.1,1.8-2.4,2.4c-0.3,0.6-2.6,3.5-3.7,4.7s-5,3.8-5.6,4.3S52.5,36,52.1,36
	s-1.9-0.5-1.4-0.8c0.5-0.3,8.1-8.3,8.3-8.5c0.2-0.2,3.1-4.3,3.6-4.5C63,22,66.3,18.8,66.3,18.8z"></path><path class="st10" d="M53.6,13.9c0,0-0.9-4.4-1.7-5.9c-0.8-1.5-2-2.2-2-2.2s-0.6,0.8-0.7,1.1c-0.1,0.3,0.1,2.5,0,3.6
	c-0.1,1.1,0.7,9.1,0.6,9.6c-0.1,0.4-1,1.5-0.6,2.4c0.3,0.9,1.3,3.8,1.3,3.8s1.3-2.9,1.4-3.3c0.1-0.4,0.7-5.6,0.9-6
	C53.1,16.7,53.6,13.9,53.6,13.9z"></path><path class="st10" d="M50,32.5c0.7-1.4,2-5.3,2.7-6.8c0.7-1.5,4.3-10.3,5.3-11.6s2.1-3.3,2.8-3.7c0.7-0.4,1.2-0.8,1.5-0.7
	c0.3,0.1,0.6,0.5,0.4,1s-1.4,4.4-1.6,5.1s-7,12.6-7.7,13.5c-0.7,0.9-2.7,3.4-3,4c-0.3,0.5-0.6,1.9-0.6,1.9l-1.3-0.3L50,32.5z"></path><path class="st9" d="M56.3,7.9c0.7-0.4,0.7-0.8,1.1-0.5c0.4,0.3,0.7,1,0.8,1.6c0.1,0.6,0.1,3.8,0,4.5s-0.6,2.6-0.9,3.2
	c-0.3,0.7-2.8,5-3.2,5.9c-0.4,1-2.9,6-3.2,6.6c-0.3,0.6-0.9,1.4-1.1,1.9s-1.2,1.8-1.1,2c0.1,0.2-0.3,1.2-0.3,1.2l-0.9-0.3
	c0,0,2.4-7.2,2.4-8c0.1-0.8,1.8-10.5,2.1-11.5s2-4.3,2.8-5.5S56.3,7.9,56.3,7.9z"></path><path class="st11" d="M51,31.2c0,0,3.9-5.4,4.9-5.8c1-0.4,5.3-3.2,6.4-4c1.2-0.8,4.4-3.6,4.9-4.2s0.9-1.4,0.9-1.8
	c0-0.4-0.1-1.3-0.7-1.2c-0.6,0.1-1.7,0.6-2.8,1.1c-1.1,0.5-7.4,5.2-7.6,5.3c-0.2,0.2-4.7,5.6-4.7,5.8s-1.9,3.5-2.2,4.1
	c-0.3,0.6-1.3,2.6-1.3,2.6l0.4,0.9L51,31.2z"></path><path class="st12" d="M47,30.9c0,0,1-4.2,1.4-5c0.4-0.7,5.8-6.3,6.6-6.7c0.8-0.4,3.4-1.2,3.6-1.3c0.2-0.1,0.9,0.7,0.6,0.9
	c-0.3,0.3-4,4.4-4.9,5.2S51.4,26.6,51,27c-0.3,0.4-0.9,3.3-1.3,4.1s-1.3,2.4-1.7,2.4s-1.7,0-1.7,0L47,30.9z"></path><path class="st12" d="M51.4,33c0,0,4.8-5,5.3-5.5c0.5-0.6,3-4.8,3.7-5c0.7-0.3,4.4-4.1,5.1-4.4c0.7-0.3,1.8-0.8,1.8-0.8
	s0.2,0.8,0,1.3s-2.8,5.1-3.1,5.6c-0.3,0.5-3.8,3.7-4.4,4c-0.6,0.3-4.6,3.1-5.2,3.7s-1.7,1.2-2.1,1.7c-0.3,0.5-1.8,1.6-1.8,1.6
	L51.4,33z"></path><path class="st11" d="M66.7,27.1c0.5-0.3,2.9-1.9,5-2s3.3,0.1,3.7,0.3c0.4,0.2,0.9,0.1,0.7,0.8c-0.3,0.8-1.8,2.1-2.3,2.5
	c-0.6,0.4-1.6,1-2.7,1.2c-1.1,0.2-1.6,0.3-2.8,0.3s-2.7,1.3-3.7,1.3c-0.9,0.1-1.7,0.4-1.4-0.3c0.3-0.7,1.2-2.8,1.5-2.9
	C64.9,28.3,66.7,27.1,66.7,27.1z"></path><path class="st12" d="M54,36c0.6,0,3.1-2.5,3.9-3c0.8-0.5,3.6-3.3,4.2-4.6s1.8-3.8,3.2-4.3c1.4-0.5,2.8-0.8,4-1.7
	c1.2-0.9,4.2-2,4.2-2s0.4,0.5,0.2,0.8c-0.2,0.3-4.6,4.9-4.6,4.9s-2.9,3.2-3.1,3.5s-1.1,1.1-1.3,1.1c-0.2,0.1,2.6-1.6,3.3-1.9
	c0.7-0.4,3.2-0.3,4.1,0c1,0.3,0.9-0.3,1.4-0.1c0.5,0.2,1.4,0.2,1.4,0.3c0,0.2-2,2.3-3.1,3.1s-2.4,1.5-4.8,1.4
	c-2.4-0.1-4.9-0.2-6,0.3c-1.1,0.5-4.3,2-5.1,2.2c-0.7,0.2-2.8,1.3-3.1,1.3c-0.3,0.1-0.6-0.5-0.6-0.5L54,36z"></path><path class="st10" d="M20.4,32.4c-0.3-0.3-0.8-1.1-1.5-1.9c-0.7-0.8-1.2-1.2-0.5-1.4c0.7-0.2,1.8-0.2,1.7-0.7
	c-0.1-0.5-0.6-0.6-0.2-1c0.4-0.5,2.2,0.5,0.7-0.6S18,26,18.2,25.6c0.1-0.4,2.7,0.5,3.4,0.4c0.7-0.1,4.3-0.1,6,0.1
	c1.6,0.1,6,1.6,6.8,1.8c0.8,0.3,8,4.8,8.2,5.1c0.2,0.3,0.8,1.8,0.2,1.6c-0.6-0.2-11.5-1.3-11.8-1.3c-0.2,0-5.3,0.2-5.7,0
	S20.4,32.4,20.4,32.4z"></path><path class="st9" d="M24.2,45.4c0,0-2.9,3.5-3.6,5c-0.7,1.5-0.5,2.9-0.5,2.9s1,0,1.2-0.1c0.3-0.1,1.9-1.6,2.9-2.2s6.8-6.1,7.2-6.4
	c0.4-0.2,1.8-0.1,2.3-1c0.5-0.8,2.2-3.4,2.2-3.4s-3.1,0.7-3.5,0.9c-0.4,0.2-4.9,2.9-5.3,3C26.8,44.1,24.2,45.4,24.2,45.4z"></path><path class="st12" d="M41.2,36.8c-1.6,0.3-5.4,1.7-7.1,2.1c-1.6,0.4-10.8,2.9-12.4,2.9c-1.6,0-3.9,0.4-4.6,0
	c-0.8-0.3-1.4-0.5-1.5-0.7s0.1-0.7,0.5-0.9c0.5-0.2,4.4-1.6,5-1.9c0.6-0.3,14.2-2.2,15.4-2.3s4.4,0,5-0.1s1.8-0.7,1.8-0.7l0.6,1.2
	L41.2,36.8z"></path><path class="st9" d="M17.9,47c-0.7-0.3-1.1-0.1-1.1-0.6c0-0.5,0.4-1.1,0.7-1.6c0.4-0.4,3-2.4,3.6-2.8c0.6-0.3,2.4-1.1,3.1-1.3
	c0.7-0.2,5.6-0.9,6.6-1.1c1-0.3,6.6-1.4,7.2-1.5c0.6-0.1,1.7-0.2,2.2-0.4c0.5-0.2,2.2-0.2,2.2-0.4s1.1-0.5,1.1-0.5l0.3,0.9
	c0,0-7.2,2.6-7.8,3c-0.6,0.4-9.4,5.1-10.3,5.4s-4.7,1.1-6,1.1C18.4,47.4,17.9,47,17.9,47z"></path><path class="st9" d="M39.5,36.9c0,0-6.7,0.2-7.6-0.3C31,36,26.1,34.4,24.8,34c-1.3-0.4-5.6-1.2-6.3-1.3c-0.7-0.1-1.7,0.1-2,0.3
	c-0.3,0.2-0.9,0.9-0.5,1.3s1.5,1,2.6,1.6c1.1,0.6,8.6,2.7,8.9,2.7s7.3,0.2,7.5,0.2c0.2,0,3.9-0.7,4.6-0.8c0.7-0.2,2.9-0.6,2.9-0.6
	l0.5-0.9L39.5,36.9z"></path><path class="st12" d="M41.7,40.1c0,0-4,1.8-4.8,1.9c-0.8,0.1-8.5-0.7-9.3-1.1c-0.8-0.4-3-2-3.2-2.1c-0.2-0.1,0-1.1,0.4-1
	c0.4,0.1,5.9,0.4,7.1,0.7c1.2,0.2,3.8,0.8,4.3,0.8c0.5,0,3.2-1.4,4-1.5c0.9-0.1,2.7-0.5,2.9-0.2c0.3,0.3,1,1.3,1,1.3L41.7,40.1z"></path><path class="st12" d="M40.7,35.4c0,0-6.9-0.7-7.6-0.8c-0.7-0.1-5.6,0.6-6.2,0.2c-0.6-0.4-5.9-0.9-6.6-1.3c-0.7-0.3-1.7-0.9-1.7-0.9
	s0.5-0.6,1.1-0.8s5.8-0.9,6.3-1c0.6-0.1,5.3,0.8,5.9,1c0.6,0.2,5.3,1.7,6.1,1.8s2,0.6,2.6,0.6c0.6,0,2.4,0.4,2.4,0.4L40.7,35.4z"></path><path class="st12" d="M26.6,27c-0.6-0.2-3.3-1.1-4.6-2.7c-1.3-1.5-2-2.7-2-3.1s-0.5-0.8,0.2-1c0.8-0.3,2.8,0.1,3.4,0.3
	s1.8,0.7,2.6,1.4c0.9,0.7,1.2,1.1,2,2.1c0.8,1,2.7,1.4,3.3,2.1c0.6,0.7,1.3,1.1,0.6,1.3c-0.7,0.2-2.9,0.8-3.2,0.6S26.6,27,26.6,27z"></path><path class="st11" d="M41.4,31.5c-0.4-0.5-3.9-0.9-4.8-1.2s-4.8-0.8-6.2-0.5s-4.1,0.9-5.4,0.1s-2.4-1.8-3.8-2.1
	c-1.4-0.4-4.1-2.1-4.1-2.1s0.2-0.6,0.5-0.7c0.3,0,6.7,0.6,6.7,0.6s4.3,0.3,4.6,0.3c0.3,0,1.5,0.2,1.7,0.3c0.2,0.1-2.8-1.1-3.6-1.4
	c-0.8-0.3-2.1-2.3-2.5-3.2s-0.8-0.6-0.9-1.1c-0.1-0.5-0.8-1.2-0.6-1.3c0.1-0.1,3.1,0.1,4.3,0.6c1.3,0.4,2.6,0.9,4,2.9
	c1.4,2,2.8,4,3.9,4.5c1.1,0.6,4.2,2.2,4.8,2.7c0.6,0.5,2.8,1.4,3,1.6c0.2,0.2-0.1,0.7-0.1,0.7L41.4,31.5z"></path><path class="st11" d="M53,63.5c-0.2,0.4-0.7,1.2-1.2,2.2s-0.6,1.6-1,1c-0.5-0.6-0.9-1.5-1.3-1.3c-0.4,0.3-0.3,0.8-0.9,0.6
	c-0.6-0.2-0.5-2.2-0.8-0.4s0.2,2.7-0.2,2.7c-0.4,0-0.6-2.7-1-3.3c-0.4-0.6-1.8-3.9-2.3-5.5c-0.5-1.5-1-6.2-1.1-7
	c-0.1-0.8,1.2-9.3,1.4-9.6c0.2-0.3,1.3-1.4,1.4-0.8s3.5,11.1,3.6,11.3c0.1,0.2,2.3,4.7,2.3,5.3C51.7,59.2,53,63.5,53,63.5z"></path><path class="st12" d="M63.3,54.7c0,0,4.3,1.2,6,1.3c1.7,0,2.9-0.7,2.9-0.7s-0.4-0.9-0.6-1.1c-0.2-0.2-2.2-1.1-3.2-1.7
	c-1-0.6-8.4-3.7-8.7-4c-0.4-0.3-0.9-1.6-1.8-1.7c-1-0.1-4-0.7-4-0.7s1.9,2.5,2.2,2.8c0.3,0.3,4.6,3.3,4.8,3.6
	C61.1,52.9,63.3,54.7,63.3,54.7z"></path><path class="st11" d="M48.6,42.7c0.9,1.3,3.8,4.3,4.8,5.6c1,1.3,7.1,8.7,7.7,10.2c0.6,1.5,1.9,3.4,1.9,4.2s0.1,1.4-0.1,1.7
	c-0.2,0.2-0.7,0.3-1.1-0.1c-0.4-0.4-3.2-3.3-3.7-3.8c-0.5-0.4-7.8-12.1-8.3-13.1c-0.5-1-1.8-4-2.1-4.5c-0.3-0.5-1.4-1.4-1.4-1.4
	l0.8-1L48.6,42.7z"></path><path class="st12" d="M67.3,59.9c0,0.8,0.3,1-0.1,1.2s-1.2,0.1-1.7,0c-0.5-0.2-3.4-1.7-4-2.1s-2-1.8-2.4-2.3
	c-0.5-0.5-3.1-4.8-3.7-5.6s-4-5.4-4.3-6s-0.9-1.5-1.2-1.8s-1.1-1.9-1.3-1.9c-0.2,0-0.9-0.8-0.9-0.8l0.7-0.7c0,0,5.3,5.5,5.9,5.9
	s8.4,6.5,9.1,7.2c0.7,0.7,2.9,3.8,3.5,5.1S67.3,59.9,67.3,59.9z"></path><path class="st9" d="M49.3,44.2c0,0,2.9,6,2.8,7.1c-0.1,1.1,0.4,6.2,0.5,7.6c0.1,1.4,1.1,5.6,1.4,6.3c0.3,0.7,0.8,1.5,1.1,1.7
	s1.2,0.5,1.4-0.1c0.2-0.6,0.3-1.8,0.4-3c0.1-1.2-1.1-9-1.1-9.2c0-0.3-2.8-6.8-2.9-6.9c-0.1-0.2-2.2-3.3-2.6-3.9
	c-0.4-0.6-1.7-2.4-1.7-2.4l-1-0.1L49.3,44.2z"></path><path class="st12" d="M51.4,40.9c0,0,3.3,2.9,3.7,3.6c0.4,0.7,2.8,8.1,2.8,8.9c0,0.9-0.6,3.5-0.6,3.8c0,0.2-1,0.5-1.1,0.1
	c-0.1-0.4-2-5.6-2.3-6.8s-0.8-3.8-1-4.3c-0.2-0.5-2.5-2.3-3-3.1c-0.5-0.7-1.5-2.2-1.3-2.6c0.2-0.4,0.8-1.5,0.8-1.5L51.4,40.9z"></path><path class="st12" d="M47.5,43.8c0,0,2.1,6.6,2.4,7.3c0.3,0.7,2.8,4.9,2.7,5.6s1.6,5.8,1.5,6.6s-0.1,2-0.1,2s-0.8-0.2-1.2-0.6
	c-0.4-0.4-3.2-4.9-3.5-5.4s-1.4-5.1-1.5-5.8s-0.6-5.5-0.9-6.3c-0.3-0.8-0.2-2.1-0.5-2.6c-0.3-0.5-0.6-2.3-0.6-2.3L47.5,43.8z"></path><path class="st12" d="M45.5,60.1c0.1,0.6,0.3,3.5-0.6,5.3c-0.9,1.8-1.7,2.9-2,3.1s-0.5,0.8-1.1,0.2c-0.6-0.6-1-2.6-1.1-3.2
	c-0.1-0.7-0.1-1.9,0.2-3c0.3-1.1,0.5-1.5,1.1-2.6s0.2-3,0.6-3.9c0.4-0.9,0.4-1.7,0.9-1.1c0.5,0.6,1.9,2.4,1.9,2.7
	C45.2,57.9,45.5,60.1,45.5,60.1z"></path><path class="st15" d="M43.6,44.7c-0.3,0.5,0.7,3.9,0.8,4.9c0.1,0.9,1.2,4.8,2.1,5.8c0.8,1.1,2.5,3.4,2.2,4.9s-0.7,2.9-0.4,4.3
	s-0.2,4.6-0.2,4.6s-0.6,0.1-0.8-0.2c-0.2-0.3-2.2-6.3-2.2-6.3s-1.5-4.1-1.6-4.3c-0.2-0.3-0.4-1.4-0.4-1.7c0.1-0.2,0.1,3,0.1,3.9
	s-1.3,2.9-1.9,3.6c-0.7,0.7-0.2,1-0.6,1.3c-0.4,0.3-0.8,1.2-1,1.1c-0.1-0.1-1.1-2.9-1.2-4.2c-0.1-1.3-0.2-2.8,1-4.9
	c1.2-2.1,2.5-4.2,2.6-5.4c0.1-1.2,0.3-4.8,0.5-5.5c0.2-0.7,0.2-3.1,0.3-3.4c0.1-0.3,0.7-0.3,0.7-0.3L43.6,44.7z"></path><path class="st12" d="M46.7,32.1c0-0.4-1.1-4.4-0.5-6s2.7-4.1,3-4.6c0.2-0.6,1-7.2,0.8-8.6s-1.7-2.5-2-3.2C47.8,9,48.3,8,47.7,7.8
	c-0.7-0.2-0.8,1-1.3,1.3c-0.4,0.3-2,0.1-2.2,0.7s0,1.4-0.6,1.9c-0.5,0.5-1,0.6-1.1,1.3s0.2,3.3,0.7,5.5s1.5,4.4,1.6,7.1
	c0.1,2.7,0.2,6,0.6,6.6c0.4,0.6,0.8,2.3,0.9,2.2C46.3,34.3,46.7,32.1,46.7,32.1z"></path><path class="st11" d="M44.8,16.4c0.2-0.3,0.7-2.8,1.9-3.8c1.2-1.1,0.8-1.3,2.1-1.4c1.3-0.1,1.2,0.2,1.9,0s0.9-0.1,0.7,0.4
	s-1.7,2.3-1.9,2.6c-0.3,0.3-1.7,3.4-1.9,4.3c-0.3,0.9-1,5.2-1.1,5.9c-0.1,0.7,0.3,7.7,0.3,7.7l-1.2,1c0,0-1-9.6-1.1-10.1
	s-2.5-5.3-2.8-6.6s-0.6-3.2-0.7-4s-0.3-1.6-0.4-1.8s0.5-0.3,1.4,0.7s1.5,1.9,1.8,2.4s0.1,1.5,0.4,1.8c0.2,0.3,0.6,2,0.6,2V16.4z"></path><path class="st9" d="M44.2,30.8c0.1-0.6,0.1-5.2,0-7.3S43,11.3,42,10.5c-0.9-0.8-1.9-0.6-2.9-0.8c-0.9-0.2-2.4,1.2-2.5,2
	c-0.1,0.8,0.4,2.5-0.3,2.4c-0.7-0.1-3.3-0.6-3.8-1.4c-0.5-0.8-1.2-2-1.5-1.4c-0.3,0.6-0.4,2.9-0.4,3.7c0.1,0.8,0.3,3.6,0.3,4.3
	s-0.1,5.8,0.6,6.6c0.8,0.8,3,2.3,4.7,2.9c1.6,0.6,4.2,1.3,5.2,2c0.9,0.6,2.8,1.3,2.8,1.3s-0.9,0.3-1.2-0.7c-0.3-1-2.7-3.1-3.6-4
	c-0.8-0.9-1.2-1.9-1-3.4c0.2-1.5,1.1-3,1.1-3s0.9-0.4,1.6,1.5c0.7,1.9,1,4.8,1.3,5.4C42.8,28.5,44.2,30.8,44.2,30.8z"></path><path class="st12" d="M45,32.7l-0.8-1.8c0,0-0.9-9.5-0.8-10.4s-1.5-8.4-2.1-9.1c-0.6-0.7-0.8-1.1-1.2-1.5c-0.4-0.5-0.8-1.1-1.6-1.4
	c-0.8-0.3-1.3-0.1-1.8,1.3s-0.6,2.5-0.4,3.2s0.1,1.3,0.1,1.3s-1.2-1.8-2-2.3c-0.9-0.5-2.1-1.2-2.6-1.4c-0.4-0.3-0.9-0.7-0.8-0.8
	s0.2,3.6,1.3,4.5c1.2,0.8,2.1,1.4,2.5,1.8c0.4,0.4,1.8,2,2.4,3c0.6,1.1,3.4,6.3,3.5,6.4s1.8,4.2,2.2,4.6c0.3,0.3,1.4,2.1,1.4,2.1
	l1.4,1"></path><path class="st10" d="M42.8,30.9c0,0-3.6-3.6-3.9-4.2c-0.3-0.6-2.2-1.8-1.8-2.8c0.3-0.9,0.5-2.9,0.5-3.9c0-1-0.9-3.1-1.3-3.7
	c-0.3-0.7-1.7-1.7-1.7-1.7s-1.2,1.4-1.2,2.3s0,2.2,0,2.2s-2.6-2-3.1-2.3s-2.4-1.1-3.2-1.2c-0.8-0.1-1.4-0.4-1.7-0.1
	c-0.2,0.4-0.1,1,0,1.7c0.1,0.7,0.2,1,1.1,2.3c0.9,1.3,1.3,2.2,2.7,3.5s2.8,3.2,4.3,3.6s1.6,1.1,3.7,2c2.1,0.9,3.1,1.7,4,2.2
	c0.9,0.5,3.3,2.5,3.4,2.7C45,33.7,42.8,30.9,42.8,30.9z"></path><path class="st11" d="M42.3,38.9c-0.3,0.2-3.4,3.1-5.1,3.2c-1.7,0.1-4.9-0.6-5.5-0.5s-6.8,2.4-8,3.3c-1.2,0.9-1.4,2.7-2,3.2
	c-0.5,0.6-1.7,0.5-1.5,1.2c0.1,0.7,1.3,0.3,1.7,0.5c0.5,0.3,1,1.7,1.6,1.7s1.3-0.6,1.9-0.4c0.7,0.2,1,0.6,1.7,0.4
	c0.6-0.2,2.8-1.7,4.5-3.2s3.2-3.4,5.6-4.7c2.4-1.3,5.2-2.9,5.6-3.6c0.4-0.7,1.7-1.8,1.6-1.8C44.4,38.3,42.3,38.9,42.3,38.9z"></path><path class="st12" d="M29.2,47.9c-0.4,0-2.8,0.7-4.3,0.1s-1.6-0.1-2.2-1.2s-0.4-1.1-0.9-1.7s-0.5-0.8,0-0.8c0.5,0,2.8,0.4,3.2,0.5
	c0.4,0.1,3.8-0.1,4.7-0.3s5.1-1.5,5.7-1.7s6.7-3.9,6.7-3.9l1.4,0.6c0,0-8,5.3-8.5,5.7s-3.5,4.6-4.6,5.5c-1.1,0.9-2.5,2-3.2,2.4
	c-0.7,0.4-1.2,1-1.4,1.1c-0.2,0.1-0.5-0.3,0-1.5c0.4-1.2,1-2.2,1.3-2.7c0.4-0.5,1.3-0.8,1.4-1.1c0.1-0.3,1.5-1.5,1.5-1.5L29.2,47.9z
	"></path><path class="st11" d="M42.3,41.8c-0.6,0.2-4.6,2.3-6.5,3.4c-1.9,1.1-10.3,6.7-10.6,8c-0.3,1.2,0.4,2,0.7,2.9
	c0.3,0.9,2.2,1.6,2.9,1.3s2-1.5,2.3-0.8s1,3.2,0.5,4c-0.5,0.8-1.2,2-0.5,2c0.7,0,2.8-1,3.5-1.4s3-1.9,3.6-2.3
	c0.6-0.3,5.2-2.6,5.5-3.6c0.3-1,0.6-3.8,0.4-5.5c-0.2-1.7-0.8-4.4-0.7-5.5c0.1-1.1-0.2-3.1-0.2-3.1s0.6,0.7-0.1,1.4
	c-0.8,0.7-1.5,3.8-1.9,5s-1.1,2-2.6,2.5c-1.4,0.5-3.2,0.4-3.2,0.4s-0.7-0.6,0.6-2.1c1.3-1.5,3.8-3.1,4.2-3.7S42.3,41.8,42.3,41.8z"></path><path class="st12" d="M43.6,40.3l-1.2,1.5c0,0-8,5.2-8.8,5.6c-0.8,0.3-6.7,5.2-7.1,6.1s-0.6,1.2-0.8,1.8c-0.2,0.6-0.6,1.2-0.5,2.1
	s0.5,1.2,2,1c1.5-0.3,2.4-0.6,3-1.1c0.6-0.4,1.1-0.6,1.1-0.6s-1,1.9-1.1,2.9c0,1,0,2.4-0.1,2.9s-0.2,1.1-0.3,1.1
	c-0.1,0,3.1-1.8,3.3-3.2c0.2-1.4,0.3-2.5,0.5-3.1c0.2-0.5,0.9-2.5,1.6-3.6c0.7-1,4-5.9,4.1-6.1c0.1-0.2,2.9-3.6,3.1-4
	c0.2-0.4,1.2-2.2,1.2-2.2l0.2-1.7"></path><path class="st12" d="M43.1,43c0,0-1.6,4.8-2,5.4s-0.6,2.8-1.6,2.9c-1,0.1-2.8,0.9-3.7,1.3c-0.9,0.5-2.3,2.2-2.7,2.9
	c-0.4,0.6-0.7,2.3-0.7,2.3s1.8,0.4,2.6,0c0.7-0.4,1.9-1,1.9-1s-0.5,3.3-0.6,3.8c-0.1,0.6,0.1,2.6,0.4,3.4c0.3,0.7,0.3,1.5,0.7,1.5
	s0.9-0.4,1.5-0.8s0.8-0.7,1.5-2.1c0.7-1.4,1.4-2.2,1.9-4.1c0.5-1.9,1.5-4,1.2-5.5s0.2-1.9,0.1-4.2s0.1-3.5,0.1-4.5
	c0-1,0.7-4.1,0.8-4.3C44.5,39.8,43.1,43,43.1,43z"></path><path class="st9" d="M49.6,40.7c0.3,0.2,4.2,1.7,5.1,3.1c0.9,1.4,1.7,4.6,2,5.1c0.3,0.5,5.2,5,6.5,5.7c1.3,0.7,3,0.1,3.8,0.3
	c0.7,0.2,1.2,1.2,1.8,0.8c0.6-0.4-0.3-1.3-0.3-1.8c0-0.5,1.1-1.6,0.8-2.2S68.1,51,68,50.3c-0.1-0.7,0.1-1.2-0.4-1.7
	c-0.5-0.5-2.8-1.8-4.8-2.6s-4.5-1.4-6.7-3c-2.2-1.6-4.9-3.4-5.7-3.4c-0.8,0-2.3-0.7-2.3-0.6S49.6,40.7,49.6,40.7z"></path><path class="st9" d="M63.5,48.4c0.2,0.3,1.9,2.2,2,3.8c0.1,1.6,0.6,1.5-0.1,2.5c-0.7,1-0.8,0.9-1.1,1.5c-0.3,0.7-0.5,0.8-0.7,0.3
	c-0.2-0.4-0.8-2.7-1-3.1s-1.8-3.3-2.4-4.1c-0.6-0.8-3.6-3.9-4.1-4.4c-0.5-0.5-6.4-4.3-6.4-4.3l-0.1-1.5c0,0,8.3,4.8,8.8,5.1
	c0.5,0.2,5.7,1.1,7,1.7c1.2,0.6,2.9,1.4,3.6,1.8s1.4,0.7,1.6,0.8c0.2,0.1-0.1,0.6-1.3,0.7s-2.4,0.1-3,0c-0.6-0.1-1.3-0.8-1.6-0.8
	c-0.4,0-2-0.7-2-0.7L63.5,48.4z"></path><path class="st9" d="M52.2,39.4c0.5,0.4,4.1,3.1,5.9,4.3c1.8,1.2,10.6,6.2,11.8,6s1.6-1.2,2.3-1.9s0.5-2.7-0.1-3.2s-2.2-1.2-1.8-1.7
	s2.5-2.3,3.4-2.3c0.9,0.1,2.3,0.2,2-0.4c-0.3-0.6-2.1-2.1-2.8-2.5c-0.7-0.4-3.1-1.8-3.7-2.3c-0.6-0.4-4.6-3.5-5.7-3.4
	c-1.1,0.2-3.6,1.1-5.1,2c-1.5,0.9-3.6,2.6-4.6,3c-1.1,0.4-2.7,1.5-2.7,1.5s0.3-0.9,1.3-0.5c1,0.4,4.1-0.4,5.3-0.5s2.3,0.1,3.4,1.2
	s1.8,2.7,1.8,2.7s-0.2,0.9-2.1,0.4c-1.9-0.6-4.4-2.1-5.2-2.2C54.9,39.7,52.2,39.4,52.2,39.4z"></path><path class="st12" d="M50.2,39l1.9,0.4c0,0,8.2,4.9,8.9,5.5s7.7,3.7,8.6,3.7c0.9,0,1.3,0,2-0.1c0.6,0,1.4,0,2.1-0.4
	c0.7-0.5,0.9-1,0-2.2c-0.9-1.2-1.7-1.9-2.3-2.2c-0.6-0.3-1.1-0.7-1.1-0.7s2.1,0.1,3-0.3c0.9-0.4,2.2-1,2.7-1.3
	c0.5-0.2,1.1-0.3,1.1-0.2s-3-2-4.4-1.6c-1.4,0.4-2.4,0.9-3,0.9c-0.5,0.1-2.7,0.3-3.9,0.2s-7.1-1-7.3-0.9c-0.2,0-4.5-1-5-1
	s-2.5-0.1-2.5-0.1l-1.6,0.5"></path><path class="st10" d="M52.9,38.3c0,0,5-0.7,5.7-0.6c0.7,0.1,2.8-0.7,3.3,0.2c0.6,0.8,2,2.1,2.8,2.8c0.8,0.6,3,1.1,3.8,1.2
	c0.7,0.1,2.3-0.4,2.3-0.4s-0.4-1.8-1.1-2.3S68,37.8,68,37.8s3.2-1,3.7-1.2s2.3-1.3,2.9-1.8c0.5-0.6,1.2-0.9,1-1.3
	c-0.2-0.4-0.7-0.7-1.4-1c-0.6-0.3-0.9-0.5-2.5-0.4c-1.6,0-2.5-0.3-4.5,0.1c-1.9,0.4-4.2,0.4-5.5,1.4s-1.8,0.7-3.8,1.8
	c-2,1.1-3.2,1.5-4.1,1.9c-0.9,0.4-4,1.1-4.2,1.2S52.9,38.3,52.9,38.3z"></path><path class="st15" d="M61.9,41.1c-2-1.5-6.2-3.7-6.4-3.9c0,0-0.1-0.1-0.2-0.2c-0.6,0.5-1,1.2-1.4,2.1c-0.8,1.6-1.9,3.1-2.6,3.1
	c-0.7-0.1-1.8-0.4-2.5-0.1c-0.7,0.3-1.3,0.6-0.9,1.4c0.4,0.9,1.8,1.4,1.3,2.1c-0.5,0.8-0.3,1.7-1.4,0.4c-1.1-1.3-0.8-2-1.8-2.4
	c-1-0.4-1.4-0.6-2.4-0.4c-1,0.2-1.5,1.4-1.9,0.2c-0.4-1.2-0.5-2.4-1.7-2.5c-1.1-0.1-0.8-0.5-1.8,0.3c-0.2,0.2-0.6,0.5-1,0.8
	c0.6,0,0.8,0,1.6-0.1c1.2-0.1,1.5,0.5,1.1,1.7c-0.5,1.2-0.3,2.8-1.3,3.1c-1,0.2-2.6,0.6-3.2,0.7c-0.7,0.1-1.3,0.5-0.2,0.8
	c1.1,0.3,3.5,0.9,4.5,0c1-0.9,2.2-2.7,2.7-3.3c0.5-0.7,1.1-0.8,1.4-0.2c0.3,0.6-1,0.8,0.3,0.6c1.3-0.2,1.4-0.5,1.4-0.5
	s0.4,1.1,0.9,1.5c0.5,0.4,2.5,2.8,2.8,3.4c0.3,0.6,1.5,3.4,1.6,4.1c0.1,0.8-0.2,2.8,0.2,3.2c0.4,0.3,0.5,0.5,0.7,0.4s1.7-2.1,1.1-4
	c-0.7-2-2.8-5.1-2.8-6.1c0.1-1,0.3-1.8-0.2-2.2s-0.4-1.3-0.2-1.5c0.2-0.2,0.5-0.3,1.4,0.2c0.9,0.4,2.6,0.2,2.6,0.2s-0.1-0.3,0-1.3
	c0.1-1,1.7-1,1.9-1.4c0.1-0.4-0.5-2.8,1.1-0.5c1.7,2.2,1.5,3.2,3.5,4.1c2,0.9,3.8,1.7,3.8,0.9C63.8,44.7,63.9,42.6,61.9,41.1z"></path><path class="st14" d="M40,41c1.1,0.1,1.3,1.3,1.7,2.5c0.4,1.2,0.9,0,1.9-0.2c1-0.2,1.4,0,2.4,0.4c1,0.4,0.7,1.1,1.8,2.4
	c1.1,1.3,0.9,0.3,1.4-0.4c0.5-0.8-0.9-1.3-1.3-2.1c-0.4-0.9,0.2-1.1,0.9-1.4c0.7-0.3,1.8,0,2.5,0.1c0.7,0.1,1.8-1.4,2.6-3.1
	c0.4-0.9,0.8-1.5,1.4-2.1c-0.6-0.4-1.9-1.1-2.1-1.7c-0.2-0.7-0.5-2.2-1.7-2.6c-1.3-0.4-1.2,0-1.7-0.9c-0.5-0.9-0.9-1.4-1.1-0.6
	c-0.3,0.8-0.3,1.6-0.9,0.9c-0.6-0.7-0.8-1-1.9-1c-1.1,0.1-0.7,0.2-1.4,0.4c-0.7,0.2-0.7,0.2-0.7,0.2c0.1-0.3-0.7-2.1-0.3-2.9
	c0.4-0.8,1.1-0.8,1.1-1.1c0-0.3-0.5-0.9-1-0.5c-0.5,0.4-0.8,0.8-1.3,0.4c-0.5-0.4-0.8-1.3-1.5-0.8c-0.7,0.4-0.4,1.6-0.3,2.4
	c0.1,0.8-0.2,1.2-0.2,2.1c0.1,0.9,0.3,1.8,0,2.1c-0.3,0.3-0.7,0.8-1.6,1.3c-0.9,0.4-1.1,0.2-1.9,0.4c-0.8,0.2-0.4,0.9-0.4,1.2
	s-0.4,1.4-0.5,2.3c-0.2,0.9-1.8,3.1,0,3.3c0.6,0.1,1,0.1,1.3,0.1c0.4-0.3,0.8-0.6,1-0.8C39.2,40.4,38.8,40.9,40,41z"></path><path class="st16" d="M41.9,35.7c-0.3,0.4-1.3,0.8-0.8,1.3c0.5,0.5,0.9,1.5,0.8,1.5s-1-0.2-1.3,0c-0.3,0.2-0.6,0.4-0.9,0.9
	S39.2,40.6,40,41c0.8,0.4,1.9,1.1,2,0.4c0.1-0.7-0.7-0.8-0.5-1.1c0.2-0.2,1.5-1.7,1.5-1.7s0-0.4,0.5,0.2s0.8,0.8,1.5,0.4
	c0.6-0.3,2.4-1.6,2.3-1c-0.1,0.6,0.1,1.5,0.3,1.3c0.3-0.2,0.5-1.4,0.5-1.4s-1.3-1.1-0.9-1.7c0.5-0.6,0.9-1.9,0.9-1.9L46.8,36
	l-1.6-2.3l0.4,2c0,0-0.5,0-0.7-0.4C44.7,34.9,42.3,35.3,41.9,35.7z"></path><path class="st16" d="M38.3,35.7c0,0,1.2-0.4,1.2,0.3s0,1.9,0.5,1.9s0.5-0.4,0.5-1.3c0-0.9,1.1-1.4,1.3-1.5c0.2-0.1,0.4-0.9,0-0.9
	s-0.8-0.2-0.8-0.4c0-0.1,0.6-0.8-0.5-0.5s-2.1,0.5-2.1,0.9S38.3,35.7,38.3,35.7z"></path><path class="st17" d="M40.4,34.7c0-0.3-1.2-2.4-1.7-2.8c-0.5-0.4-1-0.2-1.1,0c0,0.2-0.1,0.8,0.3,1.3s1.3,2,1.6,2.2
	c0.3,0.2,0.9,0.3,0.9,0.3V34.7z"></path><path class="st17" d="M44.2,33.3c0-0.3,0.1-1-0.4-1.5s-1-1-1.1-0.4c-0.1,0.7-0.3,1.6,0,2.1s0.2,1.1,0.4,1.4c0.3,0.3,0.4,0.5,0.7,0.4
	c0.3-0.1,0.2-0.1,0.4-0.5C44.4,34.4,44.2,33.3,44.2,33.3z"></path><path class="st17" d="M47.1,32.3c-0.1-0.5,1.8-2.1,2-2.6c0.2-0.4,0.3-0.9,0.6-0.9c0.3-0.1,1-0.2,1,0.4c0,0.5-0.5,2.1-1.1,2.7
	c-0.6,0.6-1.6,1.4-1.6,1.4S47.3,33.2,47.1,32.3z"></path><path class="st17" d="M52.4,33.9c0,0,1.3-1.4,1.5-1.8c0.2-0.4,0.3-1.3,0.6-1.2c0.3,0.1,0.9,0.6,0.8,1.1c-0.2,0.5-0.5,1.3,0,0.9
	c0.6-0.4,1.2-0.5,1.9-0.5c0.6-0.1,1.5,0.1,0.9,0.5c-0.6,0.4-2.3,0.7-2.7,0.8c-0.4,0.1-1.9,0.3-2.1,0.5c-0.2,0.2-0.8,0.4-0.8,0.4
	V33.9z"></path><path class="st17" d="M47.1,37.6h1.6c0,0,0.3-0.1,0.3-0.6s0.7-0.5,0.9-0.3c0.2,0.2,0.7,0.4,0.3,0.9s-0.8,0.9-1.4,0.9
	s-1.3-0.1-1.6-0.2S46.5,37.6,47.1,37.6z"></path><path class="st17" d="M40.2,39.4c-0.1,0-1.3,0-2.2,0s-1.8-0.8-1.3,0c0.5,0.8,0.4,1,1.3,1.2c0.9,0.2,1.7-0.1,2.2,0s0.7,0.3,0.7-0.2
	C40.8,39.9,40.2,39.4,40.2,39.4z"></path><path class="st17" d="M42.9,42.1c0.1,0.3,0.8,2.5,0.8,2.5s-0.1,0.4,0.3,0.6s0.9,0.6,0.8-0.1c-0.1-0.7,0.2-1.2,0-1.5
	s-0.1-0.6-0.2-0.9c-0.1-0.2-0.5-0.2-0.7-0.3C43.7,42.4,42.9,42.1,42.9,42.1z"></path><path class="st17" d="M48.5,41.1c0,0,1,0.6,1.4,0.6s0.9,0.5,1.1,0s0-1,0.7-0.6c0.6,0.4,1,0.3,0.4,1c-0.5,0.7-0.8,0.9-1.7,0.7
	c-0.8-0.3-1.2-0.5-1.7-0.7c-0.5-0.2-0.7-0.5-0.7-0.5S47.7,41.1,48.5,41.1z"></path><path class="st17" d="M44.1,36c0,0,1.5,0.2,1.4,0.7c0,0.6,0.1,1.5-0.4,1.6c-0.5,0.1-1.9,0.1-1.7,0.5c0.2,0.4,0.3,0.9,0,1.5
	c-0.3,0.5-0.7,1.6-0.9,0.7c-0.2-1,0.5-1.7-0.3-2c-0.7-0.2-1.3,0.1-1.1-0.5c0.2-0.6,0.4-0.5,0.4-1c0.1-0.5,0.3-1,0.4-1
	C42.3,36.6,44.1,36,44.1,36z"></path><path class="st9" d="M94.2,53.9c0.3,0,1,0,1.7,0c0.7,0,1.2-0.2,1,0.3c-0.2,0.5-0.7,1.1-0.4,1.2c0.3,0.2,0.6-0.1,0.6,0.4
	s-1.2,1,0,0.6c1.2-0.4,1.6-1,1.8-0.8s-1.5,1.3-1.7,1.7c-0.2,0.4-1.8,2.4-2.6,3.3s-3.5,2.7-3.9,3s-6.1,2.3-6.4,2.3
	c-0.3,0-1.3-0.4-1-0.6c0.4-0.2,5.7-5.8,5.8-5.9s2.1-3,2.5-3.2C91.9,56,94.2,53.9,94.2,53.9z"></path><path class="st10" d="M85.3,50.4c0,0-0.7-3.1-1.2-4.1c-0.5-1.1-1.4-1.6-1.4-1.6s-0.4,0.5-0.5,0.7c0,0.2,0,1.8,0,2.5
	c0,0.8,0.5,6.4,0.4,6.7c0,0.3-0.7,1-0.4,1.7c0.2,0.6,0.9,2.7,0.9,2.7s0.9-2,1-2.3s0.5-3.9,0.6-4.2C85,52.3,85.3,50.4,85.3,50.4z"></path><path class="st10" d="M82.8,63.4c0.5-1,1.4-3.7,1.9-4.8c0.5-1.1,3-7.3,3.7-8.1c0.7-0.9,1.5-2.3,2-2.6s0.9-0.5,1.1-0.5
	c0.2,0,0.4,0.4,0.3,0.7c-0.1,0.4-1,3.1-1.1,3.5s-4.9,8.8-5.4,9.5c-0.5,0.7-1.9,2.4-2.1,2.8c-0.2,0.4-0.4,1.3-0.4,1.3l-0.9-0.2
	L82.8,63.4z"></path><path class="st9" d="M87.2,46.2c0.5-0.3,0.5-0.5,0.8-0.4c0.3,0.2,0.5,0.7,0.5,1.1c0.1,0.4,0.1,2.7,0,3.2s-0.4,1.8-0.6,2.3
	s-1.9,3.5-2.2,4.1c-0.3,0.7-2,4.2-2.3,4.6c-0.2,0.4-0.6,1-0.7,1.4c-0.1,0.4-0.8,1.3-0.7,1.4s-0.2,0.9-0.2,0.9l-0.6-0.2
	c0,0,1.7-5.1,1.7-5.6c0-0.5,1.2-7.4,1.4-8c0.2-0.7,1.4-3,2-3.8C86.8,46.3,87.2,46.2,87.2,46.2z"></path><path class="st11" d="M83.5,62.5c0,0,2.7-3.8,3.4-4.1s3.7-2.3,4.5-2.8c0.8-0.5,3.1-2.5,3.4-2.9c0.4-0.4,0.7-1,0.7-1.2
	s-0.1-0.9-0.5-0.9c-0.4,0-1.2,0.4-2,0.7s-5.2,3.6-5.3,3.7s-3.3,3.9-3.3,4.1c-0.1,0.1-1.3,2.5-1.5,2.9c-0.2,0.4-0.9,1.8-0.9,1.8
	l0.3,0.7L83.5,62.5z"></path><path class="st12" d="M80.7,62.3c0,0,0.7-3,1-3.5s4.1-4.4,4.6-4.7c0.5-0.3,2.4-0.8,2.5-0.9s0.6,0.5,0.4,0.6
	c-0.2,0.2-2.8,3.1-3.4,3.6c-0.7,0.6-2.1,1.8-2.3,2c-0.2,0.3-0.6,2.3-0.9,2.9s-0.9,1.7-1.2,1.7c-0.3,0-1.2,0-1.2,0L80.7,62.3z"></path><path class="st12" d="M83.8,63.8c0,0,3.4-3.5,3.7-3.9c0.4-0.4,2.1-3.4,2.6-3.5c0.5-0.2,3.1-2.9,3.5-3.1c0.5-0.2,1.2-0.6,1.2-0.6
	s0.1,0.5,0,0.9c-0.1,0.4-2,3.6-2.2,3.9c-0.2,0.4-2.7,2.6-3.1,2.8S86.4,62.6,86,63s-1.2,0.8-1.4,1.2c-0.2,0.3-1.2,1.1-1.2,1.1
	L83.8,63.8z"></path><path class="st11" d="M94.5,59.6c0.4-0.2,2.1-1.4,3.5-1.4s2.3,0.1,2.6,0.2c0.3,0.2,0.7,0,0.5,0.6s-1.2,1.5-1.6,1.8s-1.1,0.7-1.9,0.9
	s-1.1,0.2-2,0.2c-0.9,0-1.9,0.9-2.6,0.9c-0.7,0-1.2,0.3-1-0.2c0.2-0.5,0.8-2,1.1-2C93.3,60.5,94.5,59.6,94.5,59.6z"></path><path class="st12" d="M85.6,65.9c0.4,0,2.2-1.8,2.7-2.1s2.5-2.3,2.9-3.2s1.3-2.6,2.3-3c1-0.3,2-0.5,2.8-1.2c0.8-0.6,2.9-1.4,2.9-1.4
	s0.3,0.4,0.2,0.5c-0.1,0.2-3.2,3.5-3.2,3.5s-2,2.2-2.1,2.4c-0.1,0.2-0.7,0.7-0.9,0.8s1.8-1.1,2.3-1.4c0.5-0.3,2.2-0.2,2.9,0
	c0.7,0.2,0.7-0.2,1,0c0.4,0.2,1,0.1,1,0.2c0,0.1-1.4,1.6-2.2,2.1c-0.8,0.5-1.7,1.1-3.3,1c-1.7-0.1-3.4-0.2-4.2,0.2
	c-0.8,0.4-3,1.4-3.5,1.5c-0.5,0.1-2,0.9-2.2,0.9c-0.2,0-0.4-0.4-0.4-0.4L85.6,65.9z"></path><path class="st10" d="M62,63.3c-0.2-0.2-0.6-0.8-1.1-1.4s-0.8-0.8-0.4-1c0.5-0.1,1.2-0.1,1.2-0.5c-0.1-0.3-0.4-0.4-0.1-0.7
	s1.5,0.3,0.5-0.4c-1-0.7-1.8-0.6-1.7-0.9c0.1-0.3,1.9,0.4,2.4,0.3c0.5-0.1,3,0,4.2,0.1s4.2,1.1,4.8,1.3s5.6,3.4,5.8,3.6
	c0.2,0.2,0.5,1.3,0.1,1.1S69.7,64,69.5,64c-0.2,0-3.7,0.2-4,0C65.1,63.8,62,63.3,62,63.3z"></path><path class="st9" d="M64.7,72.5c0,0-2,2.4-2.5,3.5C61.7,77,61.9,78,61.9,78s0.7,0,0.9-0.1s1.4-1.1,2-1.6c0.6-0.4,4.8-4.3,5-4.5
	c0.3-0.2,1.2-0.1,1.6-0.7c0.4-0.6,1.5-2.4,1.5-2.4s-2.2,0.5-2.4,0.6c-0.3,0.1-3.4,2-3.7,2.1C66.5,71.6,64.7,72.5,64.7,72.5z"></path><path class="st12" d="M76.6,66.5c-1.1,0.2-3.8,1.2-5,1.4c-1.1,0.2-7.6,2.1-8.7,2c-1.1,0-2.7,0.2-3.3,0c-0.5-0.2-1-0.3-1-0.5
	s0-0.5,0.4-0.6s3.1-1.1,3.5-1.3c0.4-0.2,10-1.5,10.8-1.6s3.1,0,3.5,0c0.4,0,1.3-0.5,1.3-0.5l0.4,0.8L76.6,66.5z"></path><path class="st9" d="M60.3,73.6c-0.5-0.2-0.7-0.1-0.8-0.4c0-0.3,0.3-0.8,0.5-1.1c0.3-0.3,2.1-1.7,2.5-1.9c0.4-0.2,1.7-0.7,2.2-0.9
	c0.5-0.1,3.9-0.6,4.6-0.8c0.7-0.2,4.6-1,5-1.1c0.5-0.1,1.2-0.1,1.5-0.3c0.3-0.1,1.5-0.1,1.6-0.3s0.8-0.4,0.8-0.4l0.2,0.6
	c0,0-5,1.8-5.5,2.1c-0.5,0.3-6.6,3.5-7.2,3.8c-0.6,0.3-3.3,0.8-4.2,0.8C60.6,73.8,60.3,73.6,60.3,73.6z"></path><path class="st9" d="M75.5,66.5c0,0-4.7,0.2-5.3-0.2c-0.7-0.4-4.1-1.5-5-1.8c-0.9-0.3-3.9-0.9-4.4-0.9c-0.5,0-1.2,0.1-1.4,0.2
	s-0.7,0.6-0.4,0.9c0.3,0.3,1.1,0.7,1.8,1.1c0.8,0.4,6,1.9,6.2,1.9c0.2,0.1,5.1,0.1,5.3,0.1c0.1,0,2.8-0.5,3.2-0.6
	c0.5-0.1,2-0.4,2-0.4l0.3-0.6L75.5,66.5z"></path><path class="st12" d="M77,68.8c0,0-2.8,1.3-3.4,1.3s-6-0.5-6.5-0.7S65,68,64.9,67.9c-0.2-0.1,0-0.8,0.3-0.7c0.3,0.1,4.1,0.3,5,0.5
	c0.8,0.2,2.7,0.5,3,0.6c0.4,0,2.2-1,2.8-1.1c0.6-0.1,1.9-0.3,2-0.1c0.2,0.2,0.7,0.9,0.7,0.9L77,68.8z"></path><path class="st12" d="M76.3,65.5c0,0-4.8-0.5-5.3-0.6c-0.5,0-3.9,0.4-4.4,0.1c-0.4-0.3-4.2-0.7-4.6-0.9c-0.5-0.2-1.2-0.6-1.2-0.6
	s0.4-0.4,0.7-0.6c0.4-0.1,4-0.6,4.4-0.7s3.7,0.5,4.1,0.7c0.4,0.2,3.7,1.2,4.3,1.3c0.6,0,1.4,0.4,1.8,0.4s1.7,0.3,1.7,0.3L76.3,65.5z
	"></path><path class="st12" d="M66.4,59.6c-0.4-0.1-2.3-0.8-3.2-1.9s-1.4-1.9-1.4-2.2c0-0.3-0.4-0.5,0.2-0.7c0.6-0.2,1.9,0.1,2.4,0.2
	c0.5,0.1,1.2,0.5,1.9,1s0.8,0.7,1.4,1.4c0.6,0.7,1.9,1,2.3,1.5c0.4,0.5,0.9,0.8,0.4,0.9s-2.1,0.6-2.3,0.4S66.4,59.6,66.4,59.6z"></path><path class="st11" d="M76.8,62.7c-0.3-0.3-2.7-0.6-3.3-0.9c-0.6-0.2-3.4-0.6-4.3-0.3c-0.9,0.2-2.9,0.6-3.7,0.1
	c-0.9-0.6-1.7-1.2-2.7-1.5c-1-0.3-2.9-1.5-2.9-1.5s0.1-0.4,0.3-0.5c0.2,0,4.7,0.4,4.7,0.4s3,0.2,3.2,0.2c0.2,0,1,0.1,1.2,0.2
	c0.1,0.1-2-0.8-2.5-1c-0.5-0.2-1.5-1.6-1.8-2.3s-0.6-0.4-0.7-0.8c-0.1-0.4-0.5-0.9-0.4-0.9c0.1-0.1,2.2,0.1,3,0.4
	c0.9,0.3,1.9,0.6,2.8,2c1,1.4,2,2.8,2.7,3.2c0.8,0.4,3,1.5,3.4,1.9s1.9,1,2.1,1.1c0.2,0.1,0,0.5,0,0.5L76.8,62.7z"></path><path class="st11" d="M84.9,85.2c-0.1,0.3-0.5,0.8-0.8,1.5c-0.3,0.7-0.4,1.1-0.7,0.7c-0.3-0.4-0.6-1.1-0.9-0.9
	c-0.3,0.2-0.2,0.5-0.6,0.4c-0.4-0.1-0.3-1.5-0.6-0.3s0.2,1.9-0.1,1.9c-0.3,0-0.4-1.9-0.7-2.3c-0.3-0.4-1.3-2.8-1.6-3.8
	c-0.4-1.1-0.7-4.3-0.8-4.9C78,76.9,78.8,71,79,70.8c0.1-0.2,0.9-1,1-0.6s2.4,7.8,2.5,7.9s1.6,3.3,1.6,3.7S84.9,85.2,84.9,85.2z"></path><path class="st12" d="M92.1,79c0,0,3,0.9,4.2,0.9c1.2,0,2-0.5,2-0.5s-0.3-0.6-0.4-0.8c-0.2-0.1-1.6-0.8-2.2-1.2
	c-0.7-0.4-5.9-2.6-6.1-2.8s-0.6-1.1-1.3-1.2c-0.7-0.1-2.8-0.5-2.8-0.5s1.3,1.8,1.6,2s3.2,2.3,3.4,2.5C90.6,77.7,92.1,79,92.1,79z"></path><path class="st11" d="M81.8,70.6c0.7,0.9,2.6,3,3.3,3.9c0.7,0.9,5,6.1,5.4,7.1c0.4,1,1.3,2.4,1.3,3c0,0.6,0.1,1,0,1.2
	c-0.1,0.2-0.5,0.2-0.7-0.1c-0.3-0.3-2.2-2.3-2.6-2.6c-0.4-0.3-5.5-8.5-5.8-9.2c-0.4-0.7-1.3-2.8-1.5-3.2c-0.2-0.4-1-1-1-1l0.6-0.7
	L81.8,70.6z"></path><path class="st12" d="M94.9,82.6c0,0.5,0.2,0.7-0.1,0.9s-0.8,0.1-1.2,0c-0.4-0.1-2.4-1.2-2.8-1.5c-0.4-0.3-1.4-1.2-1.7-1.6
	c-0.3-0.4-2.1-3.4-2.6-3.9c-0.5-0.6-2.8-3.8-3-4.2c-0.2-0.4-0.6-1-0.9-1.3c-0.3-0.3-0.7-1.3-0.9-1.3S81.2,69,81.2,69l0.5-0.5
	c0,0,3.7,3.9,4.1,4.2s5.9,4.6,6.4,5.1c0.5,0.5,2,2.7,2.4,3.6C95,82.2,94.9,82.6,94.9,82.6z"></path><path class="st9" d="M82.3,71.6c0,0,2,4.2,2,5s0.3,4.3,0.4,5.3c0.1,1,0.8,3.9,1,4.4c0.2,0.5,0.5,1,0.8,1.2c0.2,0.1,0.8,0.4,1,0
	s0.2-1.2,0.3-2.1c0.1-0.9-0.8-6.3-0.8-6.5s-1.9-4.7-2-4.8c-0.1-0.1-1.5-2.3-1.8-2.7s-1.2-1.7-1.2-1.7l-0.7,0L82.3,71.6z"></path><path class="st12" d="M83.8,69.3c0,0,2.3,2,2.6,2.5c0.3,0.5,2,5.7,2,6.3c0,0.6-0.4,2.5-0.4,2.7c0,0.2-0.7,0.3-0.8,0
	c0-0.3-1.4-3.9-1.6-4.7c-0.2-0.8-0.6-2.7-0.7-3c-0.1-0.3-1.8-1.6-2.1-2.1s-1-1.6-0.9-1.8c0.1-0.2,0.6-1,0.6-1L83.8,69.3z"></path><path class="st12" d="M81,71.3c0,0,1.5,4.6,1.7,5.1c0.2,0.5,2,3.4,1.9,3.9s1.1,4.1,1.1,4.6c0,0.5-0.1,1.4-0.1,1.4s-0.5-0.2-0.8-0.4
	c-0.3-0.3-2.2-3.4-2.4-3.8c-0.2-0.3-1-3.6-1-4s-0.4-3.9-0.6-4.4c-0.2-0.5-0.2-1.5-0.4-1.8c-0.2-0.4-0.4-1.6-0.4-1.6L81,71.3z"></path><path class="st12" d="M79.6,82.7c0,0.4,0.2,2.5-0.4,3.7s-1.2,2-1.4,2.2c-0.3,0.2-0.3,0.6-0.7,0.1c-0.4-0.4-0.7-1.8-0.8-2.3
	c-0.1-0.5-0.1-1.3,0.1-2.1s0.3-1.1,0.8-1.8c0.4-0.8,0.1-2.1,0.4-2.7c0.3-0.6,0.3-1.2,0.6-0.8c0.3,0.4,1.4,1.7,1.3,1.9
	C79.5,81.2,79.6,82.7,79.6,82.7z"></path><path class="st9" d="M78.3,72c-0.2,0.4,0.5,2.8,0.6,3.4c0.1,0.6,0.9,3.3,1.5,4.1s1.7,2.4,1.6,3.4s-0.5,2-0.3,3s-0.2,3.2-0.2,3.2
	S81,89.2,80.9,89c-0.1-0.2-1.5-4.4-1.5-4.4s-1-2.8-1.1-3c-0.1-0.2-0.3-1-0.3-1.2c0-0.2,0.1,2.1,0.1,2.7c0,0.6-0.9,2-1.4,2.5
	c-0.5,0.5-0.1,0.7-0.4,0.9c-0.3,0.2-0.6,0.8-0.7,0.8c-0.1-0.1-0.8-2-0.9-2.9c-0.1-0.9-0.2-2,0.7-3.4c0.9-1.5,1.7-2.9,1.8-3.8
	c0.1-0.9,0.2-3.3,0.3-3.8c0.1-0.5,0.1-2.2,0.2-2.4c0.1-0.2,0.5-0.2,0.5-0.2L78.3,72z"></path><path class="st12" d="M80.5,63.2c0-0.3-0.8-3.1-0.3-4.2c0.5-1.1,1.9-2.8,2.1-3.2c0.1-0.4,0.7-5,0.6-6c-0.1-1-1.2-1.8-1.4-2.3
	c-0.2-0.5,0.2-1.2-0.3-1.4c-0.5-0.2-0.6,0.7-0.9,0.9c-0.3,0.2-1.4,0.1-1.6,0.5c-0.2,0.4,0,1-0.4,1.3s-0.7,0.4-0.8,0.9
	s0.1,2.3,0.5,3.8c0.4,1.5,1.1,3.1,1.1,5c0,1.9,0.1,4.2,0.4,4.7s0.6,1.6,0.6,1.6C80.2,64.7,80.5,63.2,80.5,63.2z"></path><path class="st11" d="M79.1,52.1c0.1-0.2,0.5-1.9,1.3-2.7s0.6-0.9,1.5-1s0.8,0.1,1.3,0c0.5-0.1,0.6,0,0.5,0.3s-1.2,1.6-1.4,1.8
	c-0.2,0.2-1.2,2.4-1.4,3c-0.2,0.7-0.7,3.6-0.8,4.1c-0.1,0.5,0.2,5.4,0.2,5.4l-0.8,0.7c0,0-0.7-6.7-0.8-7.1c-0.1-0.4-1.7-3.7-1.9-4.6
	c-0.2-0.9-0.4-2.2-0.5-2.8c0-0.6-0.2-1.1-0.2-1.2s0.4-0.2,0.9,0.5c0.6,0.6,1.1,1.3,1.3,1.7c0.2,0.4,0.1,1.1,0.2,1.2s0.4,1.4,0.4,1.4
	V52.1z"></path><path class="st9" d="M78.7,62.3c0-0.5,0.1-3.6,0-5.1c-0.1-1.5-0.9-8.6-1.5-9.1c-0.7-0.6-1.4-0.4-2-0.5c-0.7-0.1-1.7,0.9-1.8,1.4
	c0,0.5,0.3,1.8-0.2,1.7c-0.5,0-2.3-0.4-2.7-1s-0.8-1.4-1.1-1s-0.3,2.1-0.3,2.6s0.2,2.5,0.2,3c0,0.5-0.1,4,0.4,4.6
	c0.5,0.5,2.1,1.6,3.3,2.1s3,0.9,3.6,1.4c0.7,0.4,2,0.9,2,0.9s-0.6,0.2-0.8-0.5c-0.2-0.7-1.9-2.2-2.5-2.8c-0.6-0.6-0.9-1.4-0.7-2.4
	c0.2-1,0.8-2.1,0.8-2.1s0.6-0.3,1.1,1.1c0.5,1.3,0.7,3.4,0.9,3.8C77.7,60.6,78.7,62.3,78.7,62.3z"></path><path class="st12" d="M79.3,63.5l-0.5-1.3c0,0-0.6-6.7-0.6-7.3c0.1-0.6-1.1-5.9-1.5-6.4c-0.4-0.5-0.6-0.7-0.9-1.1s-0.6-0.8-1.1-1
	s-0.9-0.1-1.2,0.9s-0.4,1.7-0.3,2.2s0,0.9,0,0.9s-0.8-1.2-1.4-1.6s-1.5-0.8-1.8-1s-0.6-0.5-0.6-0.5c0-0.1,0.1,2.5,0.9,3.1
	c0.8,0.6,1.5,1,1.8,1.3c0.3,0.3,1.3,1.4,1.7,2.1c0.4,0.8,2.4,4.4,2.5,4.5c0.1,0.1,1.3,3,1.5,3.2s1,1.4,1,1.4l1,0.7"></path><path class="st10" d="M77.8,62.3c0,0-2.5-2.5-2.7-3c-0.2-0.4-1.5-1.3-1.3-1.9c0.2-0.7,0.4-2,0.4-2.7c0-0.7-0.7-2.2-0.9-2.6
	c-0.2-0.5-1.2-1.2-1.2-1.2s-0.9,1-0.9,1.6s0,1.5,0,1.5s-1.8-1.4-2.2-1.6s-1.7-0.8-2.2-0.9s-1-0.3-1.2,0s-0.1,0.7,0,1.2
	s0.1,0.7,0.8,1.6c0.7,0.9,0.9,1.5,1.9,2.5c1,0.9,2,2.2,3,2.5s1.1,0.7,2.6,1.4c1.4,0.7,2.2,1.2,2.8,1.5c0.6,0.3,2.3,1.8,2.4,1.9
	C79.3,64.3,77.8,62.3,77.8,62.3z"></path><path class="st11" d="M77.4,67.9c-0.2,0.1-2.4,2.1-3.5,2.2s-3.4-0.4-3.8-0.3s-4.8,1.7-5.6,2.3c-0.8,0.6-1,1.9-1.4,2.3
	c-0.4,0.4-1.2,0.4-1.1,0.9c0.1,0.5,0.9,0.2,1.2,0.4c0.3,0.2,0.7,1.2,1.1,1.2c0.4,0,0.9-0.4,1.4-0.3c0.5,0.2,0.7,0.4,1.2,0.3
	c0.5-0.1,2-1.2,3.2-2.2c1.2-1,2.3-2.4,3.9-3.3c1.7-0.9,3.7-2.1,3.9-2.5c0.2-0.5,1.2-1.3,1.1-1.3C78.9,67.5,77.4,67.9,77.4,67.9z"></path><path class="st12" d="M68.3,74.2c-0.3,0-1.9,0.5-3,0.1s-1.1-0.1-1.5-0.8c-0.4-0.8-0.3-0.8-0.6-1.2c-0.3-0.4-0.3-0.5,0-0.6
	s2,0.3,2.3,0.4c0.3,0.1,2.6-0.1,3.3-0.2c0.7-0.1,3.5-1.1,4-1.2c0.5-0.2,4.7-2.7,4.7-2.7l1,0.4c0,0-5.6,3.7-5.9,4
	c-0.3,0.3-2.5,3.3-3.2,3.9c-0.7,0.6-1.8,1.4-2.3,1.7c-0.5,0.3-0.9,0.7-1,0.8s-0.3-0.2,0-1.1c0.3-0.8,0.7-1.6,0.9-1.9s0.9-0.6,1-0.8
	c0.1-0.2,1-1,1-1L68.3,74.2z"></path><path class="st11" d="M77.4,69.9c-0.4,0.2-3.2,1.6-4.5,2.4c-1.3,0.8-7.2,4.7-7.4,5.6c-0.2,0.9,0.3,1.4,0.5,2
	c0.2,0.6,1.6,1.1,2.1,0.9c0.5-0.2,1.4-1.1,1.6-0.6c0.2,0.5,0.7,2.3,0.4,2.8s-0.9,1.4-0.4,1.4s2-0.7,2.4-1c0.5-0.3,2.1-1.4,2.6-1.6
	c0.4-0.2,3.6-1.8,3.9-2.5c0.2-0.7,0.4-2.6,0.3-3.8c-0.1-1.2-0.5-3.1-0.5-3.8c0.1-0.8-0.1-2.2-0.1-2.2s0.4,0.5-0.1,1s-1,2.7-1.3,3.5
	c-0.3,0.8-0.8,1.4-1.8,1.7c-1,0.3-2.2,0.3-2.2,0.3s-0.5-0.4,0.4-1.5c0.9-1,2.7-2.1,3-2.6C76.4,71.5,77.4,69.9,77.4,69.9z"></path><path class="st12" d="M78.3,68.9l-0.9,1.1c0,0-5.6,3.7-6.2,3.9s-4.7,3.7-5,4.3c-0.3,0.6-0.4,0.9-0.6,1.3c-0.2,0.4-0.4,0.9-0.4,1.4
	s0.4,0.9,1.4,0.7s1.7-0.5,2.1-0.8s0.8-0.4,0.8-0.4s-0.7,1.3-0.8,2c0,0.7,0,1.7,0,2.1c0,0.4-0.1,0.8-0.2,0.8c-0.1,0,2.2-1.3,2.3-2.3
	s0.2-1.8,0.3-2.2c0.1-0.4,0.6-1.8,1.1-2.5c0.5-0.7,2.8-4.2,2.8-4.3c0.1-0.1,2-2.5,2.1-2.8s0.8-1.5,0.8-1.5l0.2-1.2"></path><path class="st12" d="M77.9,70.7c0,0-1.1,3.4-1.4,3.8s-0.4,1.9-1.1,2c-0.7,0.1-2,0.6-2.6,0.9c-0.6,0.3-1.6,1.6-1.9,2
	c-0.3,0.4-0.5,1.6-0.5,1.6s1.3,0.3,1.8,0s1.3-0.7,1.3-0.7s-0.4,2.3-0.4,2.7c0,0.4,0.1,1.8,0.3,2.4c0.2,0.5,0.2,1,0.5,1.1
	s0.7-0.3,1.1-0.6s0.6-0.5,1.1-1.4c0.5-1,1-1.5,1.3-2.8c0.4-1.3,1-2.8,0.8-3.9c-0.2-1.1,0.1-1.3,0.1-2.9c-0.1-1.6,0.1-2.5,0.1-3.2
	c0-0.7,0.5-2.9,0.6-3C78.9,68.5,77.9,70.7,77.9,70.7z"></path><path class="st9" d="M82.5,69.2c0.2,0.2,3,1.2,3.6,2.2c0.6,1,1.2,3.2,1.4,3.6c0.2,0.3,3.6,3.5,4.5,4s2.1,0.1,2.6,0.2
	c0.5,0.2,0.9,0.9,1.3,0.6c0.4-0.3-0.2-0.9-0.2-1.2s0.8-1.1,0.5-1.5s-0.8-0.6-0.8-1.1s0.1-0.8-0.2-1.2c-0.3-0.3-1.9-1.2-3.4-1.9
	c-1.4-0.6-3.1-1-4.7-2.1c-1.6-1.1-3.5-2.4-4-2.4s-1.6-0.5-1.6-0.4C81.5,68,82.5,69.2,82.5,69.2z"></path><path class="st9" d="M92.2,74.6c0.1,0.2,1.3,1.5,1.4,2.7c0.1,1.1,0.4,1-0.1,1.8c-0.5,0.7-0.6,0.6-0.8,1.1c-0.2,0.5-0.3,0.5-0.5,0.2
	c-0.2-0.3-0.6-1.9-0.7-2.2c-0.1-0.3-1.2-2.3-1.7-2.9s-2.5-2.7-2.9-3.1s-4.5-3-4.5-3l-0.1-1.1c0,0,5.8,3.4,6.2,3.6
	c0.4,0.2,4,0.8,4.9,1.2c0.9,0.4,2,1,2.5,1.3s1,0.5,1.2,0.5c0.1,0.1-0.1,0.4-0.9,0.5c-0.9,0.1-1.7,0.1-2.1,0
	c-0.4-0.1-0.9-0.6-1.2-0.5s-1.4-0.5-1.4-0.5L92.2,74.6z"></path><path class="st9" d="M84.3,68.3c0.3,0.3,2.9,2.2,4.1,3s7.4,4.4,8.3,4.2s1.1-0.9,1.6-1.3c0.5-0.5,0.3-1.9-0.1-2.2
	c-0.4-0.4-1.6-0.8-1.2-1.2c0.3-0.4,1.7-1.6,2.4-1.6c0.6,0,1.6,0.2,1.4-0.3s-1.5-1.5-1.9-1.8c-0.5-0.3-2.2-1.3-2.6-1.6
	c-0.4-0.3-3.2-2.5-4-2.4s-2.6,0.8-3.6,1.4c-1,0.6-2.5,1.8-3.2,2.1c-0.7,0.3-1.9,1.1-1.9,1.1s0.2-0.6,0.9-0.3s2.9-0.3,3.7-0.4
	c0.9-0.1,1.6,0.1,2.4,0.8c0.7,0.7,1.2,1.9,1.2,1.9s-0.2,0.7-1.5,0.3c-1.3-0.4-3.1-1.4-3.6-1.5C86.2,68.4,84.3,68.3,84.3,68.3z"></path><path class="st12" d="M83,68l1.4,0.3c0,0,5.8,3.4,6.2,3.8c0.5,0.4,5.4,2.6,6,2.6c0.6,0,0.9,0,1.4-0.1s1,0,1.5-0.3
	c0.5-0.3,0.6-0.7,0-1.5c-0.6-0.8-1.2-1.3-1.6-1.6C97.3,71,97,70.7,97,70.7s1.5,0.1,2.1-0.2s1.5-0.7,1.9-0.9c0.3-0.1,0.7-0.2,0.8-0.2
	c0,0.1-2.1-1.4-3.1-1.1S97,69,96.6,69c-0.4,0.1-1.9,0.2-2.7,0.1c-0.9-0.1-5-0.7-5.1-0.7c-0.1,0-3.2-0.7-3.5-0.7
	c-0.3,0-1.7-0.1-1.7-0.1l-1.1,0.4"></path><path class="st10" d="M84.8,67.5c0,0,3.5-0.5,4-0.4c0.5,0.1,1.9-0.5,2.3,0.1c0.4,0.6,1.4,1.5,2,1.9c0.6,0.4,2.1,0.7,2.6,0.8
	c0.5,0.1,1.6-0.3,1.6-0.3s-0.3-1.3-0.8-1.6c-0.5-0.3-1.2-0.9-1.2-0.9s2.2-0.7,2.6-0.8s1.6-0.9,2-1.3c0.4-0.4,0.9-0.6,0.7-0.9
	s-0.5-0.5-1-0.7c-0.5-0.2-0.7-0.3-1.8-0.3c-1.1,0-1.8-0.2-3.1,0.1c-1.4,0.3-3,0.3-3.8,1c-0.9,0.7-1.3,0.5-2.7,1.2
	c-1.4,0.8-2.3,1-2.9,1.3c-0.6,0.3-2.8,0.8-3,0.8C82.4,67.5,84.8,67.5,84.8,67.5z"></path><path class="st15" d="M91.1,69.4c-1.4-1.1-4.3-2.6-4.5-2.8c0,0-0.1-0.1-0.1-0.1c-0.4,0.4-0.7,0.8-1,1.4c-0.5,1.1-1.3,2.2-1.8,2.1
	c-0.5,0-1.3-0.3-1.8-0.1c-0.5,0.2-0.9,0.4-0.6,1c0.3,0.6,1.3,1,0.9,1.5c-0.4,0.5-0.2,1.2-1,0.3c-0.8-0.9-0.6-1.4-1.3-1.7
	c-0.7-0.3-1-0.4-1.7-0.3c-0.7,0.2-1,1-1.3,0.2c-0.3-0.8-0.4-1.7-1.2-1.8c-0.8-0.1-0.5-0.4-1.3,0.2c-0.2,0.1-0.4,0.3-0.7,0.6
	c0.4,0,0.6,0,1.1-0.1c0.8-0.1,1.1,0.3,0.7,1.2c-0.3,0.8-0.2,2-0.9,2.1c-0.7,0.2-1.8,0.4-2.3,0.5c-0.5,0.1-0.9,0.3-0.2,0.6
	c0.8,0.2,2.4,0.6,3.1,0c0.7-0.6,1.6-1.9,1.9-2.3c0.3-0.5,0.8-0.6,1-0.2c0.2,0.4-0.7,0.5,0.2,0.4c0.9-0.1,1-0.4,1-0.4
	s0.3,0.8,0.6,1.1c0.3,0.3,1.7,2,1.9,2.4c0.2,0.4,1,2.4,1.1,2.9c0.1,0.5-0.1,2,0.2,2.2c0.3,0.2,0.4,0.3,0.5,0.3s1.2-1.5,0.8-2.8
	c-0.5-1.4-2-3.6-1.9-4.2c0-0.7,0.2-1.3-0.1-1.6s-0.3-0.9-0.2-1s0.3-0.2,1,0.1c0.6,0.3,1.8,0.1,1.8,0.1s-0.1-0.2,0-0.9
	c0.1-0.7,1.2-0.7,1.3-1c0.1-0.3-0.4-1.9,0.8-0.4c1.2,1.6,1.1,2.2,2.5,2.9c1.4,0.6,2.7,1.2,2.7,0.6C92.5,72,92.5,70.5,91.1,69.4z"></path><path class="st14" d="M75.8,69.4c0.8,0.1,0.9,0.9,1.2,1.8c0.3,0.8,0.6,0,1.3-0.2c0.7-0.2,1,0,1.7,0.3c0.7,0.3,0.5,0.8,1.3,1.7
	c0.8,0.9,0.6,0.2,1-0.3c0.4-0.5-0.6-0.9-0.9-1.5c-0.3-0.6,0.2-0.8,0.6-1c0.5-0.2,1.3,0,1.8,0.1c0.5,0,1.3-1,1.8-2.1
	c0.3-0.6,0.6-1.1,1-1.4c-0.4-0.3-1.4-0.8-1.5-1.2c-0.1-0.5-0.3-1.6-1.2-1.8c-0.9-0.3-0.8,0-1.2-0.6c-0.3-0.6-0.6-1-0.8-0.4
	c-0.2,0.5-0.2,1.1-0.6,0.6c-0.4-0.5-0.6-0.7-1.3-0.7c-0.8,0-0.5,0.1-1,0.3c-0.5,0.2-0.5,0.2-0.5,0.2c0.1-0.2-0.5-1.5-0.2-2
	c0.3-0.5,0.8-0.6,0.8-0.8c0-0.2-0.3-0.6-0.7-0.3c-0.4,0.3-0.5,0.6-0.9,0.3c-0.3-0.3-0.6-0.9-1.1-0.6c-0.5,0.3-0.3,1.1-0.2,1.7
	c0.1,0.5-0.2,0.8-0.1,1.5c0,0.6,0.2,1.3,0,1.5c-0.2,0.2-0.5,0.6-1.1,0.9c-0.6,0.3-0.8,0.2-1.3,0.3c-0.5,0.2-0.3,0.6-0.3,0.8
	s-0.3,1-0.4,1.6c-0.1,0.6-1.3,2.2,0,2.3c0.4,0,0.7,0.1,0.9,0.1c0.3-0.2,0.6-0.4,0.7-0.6C75.2,69,75,69.3,75.8,69.4z"></path><path class="st16" d="M77.1,65.7c-0.2,0.3-0.9,0.6-0.6,0.9s0.6,1,0.6,1c-0.1,0-0.7-0.1-0.9,0s-0.4,0.3-0.6,0.6s-0.4,0.8,0.1,1.1
	s1.3,0.7,1.4,0.3s-0.5-0.6-0.4-0.7c0.1-0.2,1-1.2,1-1.2s0-0.3,0.3,0.1c0.4,0.4,0.6,0.5,1,0.3s1.6-1.1,1.6-0.7s0,1.1,0.2,0.9
	c0.2-0.2,0.4-1,0.4-1s-0.9-0.8-0.6-1.2c0.3-0.4,0.6-1.4,0.6-1.4l-0.9,0.9l-1.1-1.6l0.3,1.4c0,0-0.3,0-0.5-0.3
	C79.1,65.1,77.4,65.4,77.1,65.7z"></path><path class="st16" d="M74.6,65.7c0,0,0.8-0.3,0.8,0.2c0,0.4,0,1.3,0.3,1.3c0.3,0,0.3-0.3,0.3-0.9s0.8-1,0.9-1c0.1-0.1,0.3-0.6,0-0.6
	c-0.3,0-0.6-0.2-0.6-0.3c0-0.1,0.4-0.6-0.4-0.3c-0.8,0.3-1.5,0.4-1.5,0.6C74.6,64.9,74.6,65.7,74.6,65.7z"></path><path class="st17" d="M76.1,65c0-0.2-0.8-1.7-1.2-2s-0.7-0.2-0.8,0c0,0.2-0.1,0.6,0.2,0.9c0.3,0.4,0.9,1.4,1.1,1.5
	c0.2,0.2,0.6,0.2,0.6,0.2V65z"></path><path class="st17" d="M78.7,64c0-0.2,0.1-0.7-0.3-1.1c-0.4-0.3-0.7-0.7-0.8-0.3s-0.2,1.1,0,1.4c0.2,0.3,0.1,0.8,0.3,1
	c0.2,0.2,0.3,0.4,0.5,0.3c0.2-0.1,0.2-0.1,0.3-0.3C78.9,64.8,78.7,64,78.7,64z"></path><path class="st17" d="M80.8,63.3c-0.1-0.4,1.3-1.5,1.4-1.8c0.2-0.3,0.2-0.6,0.4-0.7s0.7-0.1,0.7,0.3c0,0.4-0.3,1.5-0.7,1.9
	c-0.4,0.4-1.1,1-1.1,1S80.9,63.9,80.8,63.3z"></path><path class="st17" d="M84.5,64.4c0,0,0.9-1,1.1-1.3c0.2-0.3,0.2-0.9,0.4-0.8c0.2,0.1,0.6,0.4,0.5,0.8s-0.4,0.9,0,0.6
	s0.9-0.3,1.3-0.4c0.4-0.1,1,0,0.6,0.3c-0.4,0.3-1.6,0.5-1.9,0.6c-0.3,0-1.3,0.2-1.5,0.4c-0.2,0.1-0.6,0.3-0.6,0.3V64.4z"></path><path class="st17" d="M80.8,67h1.1c0,0,0.2-0.1,0.2-0.4c0-0.4,0.5-0.4,0.6-0.2c0.1,0.2,0.5,0.3,0.2,0.6s-0.6,0.6-1,0.6
	s-0.9-0.1-1.1-0.1S80.3,67,80.8,67z"></path><path class="st17" d="M75.9,68.3c-0.1,0-0.9,0-1.5,0c-0.6,0-1.3-0.6-0.9,0s0.3,0.7,0.9,0.8c0.6,0.1,1.2-0.1,1.5,0s0.5,0.2,0.5-0.2
	C76.4,68.6,75.9,68.3,75.9,68.3z"></path><path class="st17" d="M77.8,70.2c0.1,0.2,0.5,1.8,0.5,1.8s-0.1,0.3,0.2,0.4c0.3,0.1,0.6,0.4,0.5-0.1s0.1-0.8,0-1.1
	c-0.1-0.2-0.1-0.4-0.1-0.6c-0.1-0.2-0.4-0.1-0.5-0.2C78.4,70.3,77.8,70.2,77.8,70.2z"></path><path class="st17" d="M81.7,69.5c0,0,0.7,0.4,1,0.4c0.3,0,0.6,0.3,0.8,0c0.2-0.3,0-0.7,0.5-0.4s0.7,0.2,0.3,0.7
	c-0.4,0.5-0.6,0.7-1.2,0.5c-0.6-0.2-0.8-0.4-1.2-0.5c-0.4-0.2-0.5-0.4-0.5-0.4S81.2,69.5,81.7,69.5z"></path><path class="st17" d="M78.7,65.8c0,0,1,0.1,1,0.5c0,0.4,0.1,1-0.3,1.1c-0.4,0.1-1.3,0.1-1.2,0.4c0.1,0.3,0.2,0.7,0,1
	c-0.2,0.4-0.5,1.2-0.6,0.5c-0.2-0.7,0.3-1.2-0.2-1.4c-0.5-0.2-0.9,0.1-0.8-0.4c0.1-0.4,0.3-0.4,0.3-0.7c0.1-0.3,0.2-0.7,0.3-0.7
	S78.7,65.8,78.7,65.8z"></path></g></svg>