<?xml version="1.0" encoding="utf-8"?>
<svg id="Layer_1" data-name="Layer 1" viewBox="0 0 108 108" xmlns="http://www.w3.org/2000/svg">
  <defs>
    <style>
      .cls-1 {
        fill: #ff5fab;
      }

      .cls-2 {
        fill: #f938a2;
      }

      .cls-3 {
        fill: #ffb6e0;
      }

      .cls-4 {
        fill: #ff85c5;
      }

      .cls-5 {
        fill: #e81894;
      }

      .cls-6 {
        fill: #ffdf4a;
      }

      .cls-7 {
        fill: #ffbd48;
      }
    </style>
  </defs>
  <g>
    <path class="cls-1" d="M 66.64 33.13 C 66.647 40.46 61.956 46.969 55 49.28 C 42.575 45.17 39.259 29.152 49.03 20.447 C 50.764 18.902 52.796 17.729 55 17 C 61.949 19.309 66.639 25.808 66.64 33.13 Z"/>
    <path class="cls-2" d="M 66.64 33.13 C 66.647 40.46 61.956 46.969 55 49.28 C 54.163 49.009 53.347 48.674 52.56 48.28 C 64.196 42.291 64.984 25.951 53.979 18.869 C 53.52 18.574 53.046 18.3 52.56 18.05 C 53.346 17.639 54.161 17.288 55 17 C 61.949 19.309 66.639 25.808 66.64 33.13 Z"/>
    <path class="cls-1" d="M 66.64 74.87 C 66.647 67.54 61.956 61.031 55 58.72 C 42.575 62.83 39.259 78.848 49.03 87.553 C 50.764 89.098 52.796 90.271 55 91 C 61.949 88.691 66.639 82.192 66.64 74.87 Z"/>
    <path class="cls-2" d="M 66.64 74.87 C 66.647 67.54 61.956 61.031 55 58.72 C 54.163 58.991 53.347 59.326 52.56 59.72 C 64.196 65.709 64.984 82.049 53.979 89.131 C 53.52 89.426 53.046 89.7 52.56 89.95 C 53.346 90.361 54.161 90.712 55 91 C 61.949 88.691 66.639 82.192 66.64 74.87 Z"/>
    <path class="cls-1" d="M 75.87 65.64 C 68.54 65.647 62.031 60.956 59.72 54 C 63.83 41.575 79.848 38.259 88.553 48.03 C 90.098 49.764 91.271 51.796 92 54 C 89.691 60.949 83.192 65.639 75.87 65.64 Z"/>
    <path class="cls-2" d="M 92 54 C 89.69 60.952 83.186 65.643 75.86 65.64 C 75.1 65.643 74.342 65.589 73.59 65.48 C 80.023 64.613 85.401 60.159 87.45 54 C 85.401 47.841 80.023 43.387 73.59 42.52 C 74.342 42.411 75.1 42.357 75.86 42.36 C 83.186 42.357 89.69 47.048 92 54 Z"/>
    <path class="cls-1" d="M 34.13 42.36 C 41.46 42.353 47.969 47.044 50.28 54 C 46.17 66.425 30.152 69.741 21.447 59.97 C 19.902 58.236 18.729 56.204 18 54 C 20.309 47.051 26.808 42.361 34.13 42.36 Z"/>
    <path class="cls-3" d="M 79.15 47.14 C 73.708 52.583 65.394 53.932 58.51 50.49 C 52.32 38.205 61.749 23.826 75.483 24.607 C 77.93 24.746 80.322 25.387 82.51 26.49 C 85.961 33.378 84.606 41.702 79.15 47.14 Z"/>
    <path class="cls-4" d="M 79.15 47.14 C 73.708 52.583 65.394 53.932 58.51 50.49 C 58.109 49.658 57.774 48.795 57.51 47.91 C 70.64 52.038 83.316 40.404 80.326 26.969 C 80.213 26.46 80.077 25.957 79.92 25.46 C 80.803 25.741 81.663 26.092 82.49 26.51 C 85.936 33.388 84.59 41.7 79.15 47.14 Z"/>
    <path class="cls-3" d="M 30.85 60.86 C 36.292 55.417 44.606 54.068 51.49 57.51 C 57.68 69.795 48.251 84.174 34.517 83.393 C 32.07 83.254 29.678 82.613 27.49 81.51 C 24.039 74.622 25.394 66.298 30.85 60.86 Z"/>
    <path class="cls-4" d="M 48.14 78.15 C 42.7 83.59 34.388 84.936 27.51 81.49 C 27.106 80.68 26.772 79.837 26.51 78.97 C 39.849 82.363 51.859 70.044 48.128 56.795 C 48.069 56.586 48.007 56.377 47.94 56.17 C 49.178 56.488 50.378 56.938 51.52 57.51 C 54.954 64.4 53.593 72.715 48.14 78.15 Z"/>
    <path class="cls-3" d="M 61.86 78.15 C 56.417 72.708 55.068 64.394 58.51 57.51 C 70.795 51.32 85.174 60.749 84.393 74.483 C 84.254 76.93 83.613 79.322 82.51 81.51 C 75.622 84.961 67.298 83.606 61.86 78.15 Z"/>
    <path class="cls-4" d="M 82.49 81.49 C 81.35 82.067 80.149 82.516 78.91 82.83 C 84.619 70.314 74.637 56.312 60.944 57.626 C 60.028 57.714 59.121 57.872 58.23 58.1 C 58.32 57.9 58.41 57.7 58.51 57.51 C 70.795 51.32 85.174 60.749 84.393 74.483 C 84.254 76.93 83.613 79.322 82.51 81.51 L 82.49 81.49 Z"/>
    <path class="cls-3" d="M 48.14 29.85 C 53.583 35.292 54.932 43.606 51.49 50.49 C 39.205 56.68 24.826 47.251 25.607 33.517 C 25.746 31.07 26.387 28.678 27.49 26.49 C 34.378 23.039 42.702 24.394 48.14 29.85 Z"/>
    <path class="cls-4" d="M 48.14 29.85 C 53.583 35.292 54.932 43.606 51.49 50.49 C 50.658 50.891 49.795 51.226 48.91 51.49 C 53.038 38.36 41.404 25.684 27.969 28.674 C 27.46 28.787 26.957 28.923 26.46 29.08 C 26.741 28.197 27.092 27.337 27.51 26.51 C 34.388 23.064 42.7 24.41 48.14 29.85 Z"/>
    <path class="cls-2" d="M 71.09 63 C 65.434 62.997 60.416 59.37 58.64 54 C 61.851 44.416 74.232 41.902 80.927 49.474 C 82.092 50.792 82.981 52.331 83.54 54 C 81.764 59.37 76.746 62.997 71.09 63 Z"/>
    <path class="cls-5" d="M 83.54 54 C 81.769 59.374 76.748 63.004 71.09 63 C 70.346 63.001 69.604 62.941 68.87 62.82 C 73.64 61.984 77.566 58.596 79.09 54 C 77.556 49.415 73.633 46.04 68.87 45.21 C 69.603 45.079 70.345 45.009 71.09 45 C 76.748 44.996 81.769 48.626 83.54 54 Z"/>
    <path class="cls-2" d="M 38.91 45 C 44.566 45.003 49.584 48.63 51.36 54 C 48.149 63.584 35.768 66.098 29.073 58.526 C 27.908 57.208 27.019 55.669 26.46 54 C 28.236 48.63 33.254 45.003 38.91 45 Z"/>
    <path class="cls-2" d="M 64 70.09 C 63.991 64.436 60.366 59.421 55 57.64 C 45.416 60.851 42.902 73.232 50.474 79.927 C 51.792 81.092 53.331 81.981 55 82.54 C 60.37 80.764 63.997 75.746 64 70.09 Z"/>
    <path class="cls-5" d="M 64 70.09 C 63.991 64.436 60.366 59.421 55 57.64 C 54.353 57.855 53.724 58.122 53.12 58.44 C 62.092 63.078 62.679 75.689 54.177 81.14 C 53.834 81.36 53.481 81.563 53.12 81.75 C 53.724 82.064 54.353 82.329 55 82.54 C 60.37 80.764 63.997 75.746 64 70.09 Z"/>
    <path class="cls-2" d="M 64 37.91 C 63.991 43.564 60.366 48.579 55 50.36 C 45.416 47.149 42.902 34.768 50.474 28.073 C 51.792 26.908 53.331 26.019 55 25.46 C 60.37 27.236 63.997 32.254 64 37.91 Z"/>
    <path class="cls-5" d="M 64 37.91 C 63.991 43.564 60.366 48.579 55 50.36 C 54.353 50.145 53.724 49.878 53.12 49.56 C 62.092 44.922 62.679 32.311 54.177 26.86 C 53.834 26.64 53.481 26.437 53.12 26.25 C 53.724 25.936 54.353 25.671 55 25.46 C 60.37 27.236 63.997 32.254 64 37.91 Z"/>
    <path class="cls-4" d="M 59.26 69 C 55.879 65.616 55.042 60.449 57.18 56.17 C 64.824 52.333 73.754 58.21 73.255 66.748 C 73.167 68.259 72.77 69.737 72.09 71.09 C 67.809 73.226 62.642 72.384 59.26 69 Z"/>
    <path class="cls-1" d="M 72.09 71.09 C 71.06 71.587 69.961 71.924 68.83 72.09 C 72.324 64.284 66.058 55.622 57.551 56.499 C 57.366 56.518 57.183 56.542 57 56.57 C 57.06 56.44 57.12 56.31 57.19 56.18 C 64.841 52.359 73.76 58.253 73.244 66.79 C 73.153 68.287 72.761 69.749 72.09 71.09 Z"/>
    <path class="cls-4" d="M 50.74 39 C 54.121 42.384 54.958 47.551 52.82 51.83 C 45.176 55.667 36.246 49.79 36.745 41.252 C 36.833 39.741 37.23 38.263 37.91 36.91 C 42.191 34.774 47.358 35.616 50.74 39 Z"/>
    <path class="cls-1" d="M 50.74 39 C 54.121 42.384 54.958 47.551 52.82 51.83 C 52.305 52.09 51.77 52.308 51.22 52.48 C 53.852 44.334 46.678 36.395 38.308 38.188 C 37.941 38.267 37.578 38.364 37.22 38.48 C 37.394 37.93 37.612 37.395 37.87 36.88 C 42.168 34.732 47.358 35.587 50.74 39 Z"/>
    <path class="cls-4" d="M 40 58.26 C 43.384 54.879 48.551 54.042 52.83 56.18 C 56.667 63.824 50.79 72.754 42.252 72.255 C 40.741 72.167 39.263 71.77 37.91 71.09 C 35.774 66.809 36.616 61.642 40 58.26 Z"/>
    <path class="cls-1" d="M 50.74 69 C 47.681 72.053 43.131 73.059 39.07 71.58 C 47.081 71.18 52.041 62.682 48.45 55.51 C 48.074 55.319 47.687 55.152 47.29 55.01 C 49.202 54.915 51.107 55.314 52.82 56.17 C 54.958 60.449 54.121 65.616 50.74 69 Z"/>
    <path class="cls-4" d="M 70 49.74 C 66.616 53.121 61.449 53.958 57.17 51.82 C 53.333 44.176 59.21 35.246 67.748 35.745 C 69.259 35.833 70.737 36.23 72.09 36.91 C 74.226 41.191 73.384 46.358 70 49.74 Z"/>
    <path class="cls-1" d="M 70 49.74 C 66.616 53.121 61.449 53.958 57.17 51.82 C 56.912 51.305 56.694 50.77 56.52 50.22 C 64.654 52.864 72.599 45.711 70.821 37.345 C 70.741 36.965 70.64 36.589 70.52 36.22 C 71.07 36.394 71.605 36.612 72.12 36.87 C 74.268 41.168 73.413 46.358 70 49.74 Z"/>
    <path class="cls-6" d="M 65.72 54 C 65.72 62.252 56.787 67.41 49.64 63.284 C 42.493 59.158 42.493 48.842 49.64 44.716 C 51.27 43.775 53.118 43.28 55 43.28 C 60.92 43.28 65.72 48.08 65.72 54 Z"/>
    <path class="cls-7" d="M 64.36 48.78 C 68.388 55.982 63.11 64.844 54.858 64.732 C 52.833 64.704 50.858 64.104 49.16 63 C 57.409 62.782 62.329 53.715 58.015 46.68 C 57.18 45.318 56.051 44.16 54.71 43.29 C 58.698 43.18 62.417 45.295 64.36 48.78 Z"/>
  </g>
</svg>