<?xml version="1.0" encoding="utf-8"?>
<!-- Generator: Adobe Illustrator 23.1.1, SVG Export Plug-In . SVG Version: 6.00 Build 0)  -->
<svg version="1.1" id="Layer_1" xmlns="http://www.w3.org/2000/svg" xmlns:xlink="http://www.w3.org/1999/xlink" x="0px" y="0px"
	 viewBox="0 0 108 108" style="enable-background:new 0 0 108 108;" xml:space="preserve">
<style type="text/css">
	.st0{fill:#529643;}
	.st1{fill:#568A41;}
	.st2{fill:#498B40;}
	.st3{fill:#4E9141;}
	.st4{fill:#578E4D;}
	.st5{fill:#699B40;}
	.st6{fill:#329345;}
	.st7{fill:#6E9C40;}
	.st8{fill:#578A41;}
	.st9{fill:#759D3F;}
	.st10{fill:#46873F;}
	.st11{fill:#4E8E40;}
	.st12{fill:#F7E975;}
	.st13{fill:#F9E300;}
	.st14{fill:#F8D906;}
	.st15{fill:#EFE30C;}
	.st16{fill:#F7E969;}
	.st17{fill:#F9E84D;}
	.st18{fill:#F7E05B;}
	.st19{fill:#DBBA27;}
	.st20{fill:#AE9731;}
	.st21{fill:none;stroke:#B09931;stroke-width:0.1729;stroke-miterlimit:10;}
	.st22{fill:#B09931;}
	.st23{fill:none;stroke:#EFE880;stroke-width:0.1729;stroke-miterlimit:10;}
	.st24{fill:#EFE880;}
	.st25{fill:#F7D34D;}
	.st26{fill:#F6D647;}
</style>
<g>
	<path class="st0" d="M45.19,59.49c-0.4-1.21-0.63-2.42-0.83-3.64c-0.21-1.22-0.34-2.44-0.41-3.66c-0.08-1.22-0.08-2.44-0.06-3.65
		c0-1.22,0.04-2.43,0.09-3.64c0.1-2.42,0.3-4.83,0.62-7.23c0.35-2.39,0.82-4.75,1.6-7.07l0.6,0.08c0.59,2.49,0.87,4.93,1.03,7.35
		c0.13,2.41,0.14,4.81,0.05,7.2c-0.05,1.19-0.1,2.38-0.19,3.57c-0.08,1.19-0.17,2.38-0.35,3.56c-0.17,1.19-0.4,2.37-0.7,3.55
		c-0.29,1.19-0.62,2.38-1.11,3.58H45.19z"/>
	<path class="st0" d="M45.2,57.78c-0.9-2.28-1.62-4.61-2.29-6.95c-0.68-2.34-1.25-4.7-1.83-7.07c-0.57-2.37-1.12-4.74-1.64-7.12
		c-0.5-2.38-1-4.77-1.4-7.17l0.33-0.08c0.79,2.31,1.49,4.64,2.18,6.98c0.67,2.34,1.32,4.68,1.94,7.04c0.61,2.36,1.23,4.71,1.75,7.09
		c0.52,2.38,0.99,4.77,1.29,7.2L45.2,57.78z"/>
	<path class="st0" d="M45.21,57.82c-1.61-1.9-2.96-3.93-4.24-6c-1.29-2.07-2.43-4.22-3.56-6.37c-1.12-2.16-2.2-4.34-3.23-6.55
		c-1.01-2.22-2-4.45-2.84-6.76l0.3-0.16c1.47,1.97,2.79,4.02,4.1,6.08c1.29,2.07,2.52,4.17,3.71,6.29c1.18,2.13,2.35,4.26,3.38,6.47
		c1.03,2.21,1.99,4.46,2.7,6.84L45.21,57.82z"/>
	<path class="st1" d="M46.09,59.21c-1.47-2.53-3.13-4.87-5.04-7.01c-0.24-0.27-0.47-0.54-0.72-0.8c-0.25-0.25-0.5-0.51-0.75-0.77
		c-0.25-0.25-0.48-0.52-0.75-0.76l-0.79-0.73c-0.51-0.5-1.07-0.95-1.61-1.41c-0.54-0.48-1.12-0.88-1.69-1.32
		c-2.31-1.7-4.8-3.15-7.41-4.36c-2.61-1.22-5.35-2.18-8.15-2.98l0.07-0.33c2.92,0.39,5.79,1.15,8.56,2.22
		c2.76,1.08,5.41,2.49,7.84,4.22c0.6,0.44,1.22,0.86,1.78,1.35c0.57,0.48,1.17,0.93,1.7,1.46l0.81,0.77
		c0.28,0.25,0.51,0.54,0.77,0.81c0.26,0.27,0.51,0.55,0.76,0.83c0.25,0.28,0.47,0.58,0.7,0.87c1.85,2.34,3.37,4.97,4.24,7.8
		L46.09,59.21z"/>
	<path class="st0" d="M45.27,57.88c-2.24-1.03-4.35-2.24-6.46-3.47c-2.09-1.24-4.14-2.57-6.16-3.92c-1.01-0.67-2.01-1.36-3.01-2.06
		c-1.01-0.68-1.99-1.4-2.98-2.11c-1.97-1.43-3.93-2.89-5.81-4.45l0.19-0.28c2.18,1.11,4.3,2.32,6.4,3.55
		c1.04,0.63,2.09,1.24,3.12,1.89c1.04,0.64,2.07,1.28,3.09,1.94c2.05,1.31,4.08,2.66,6.05,4.08c1.97,1.43,3.92,2.89,5.76,4.53
		L45.27,57.88z"/>
	<path class="st2" d="M51.08,59.52c-2.24-1.03-4.35-2.24-6.46-3.47c-2.09-1.24-4.14-2.57-6.16-3.92c-1.01-0.67-2.01-1.36-3.01-2.06
		c-1.01-0.69-1.99-1.4-2.98-2.11c-1.97-1.43-3.93-2.89-5.81-4.45l0.19-0.28c2.18,1.11,4.3,2.32,6.4,3.55
		c1.05,0.62,2.09,1.24,3.12,1.89c1.04,0.64,2.07,1.28,3.09,1.94c2.05,1.31,4.08,2.66,6.05,4.08c1.97,1.43,3.92,2.89,5.76,4.53
		L51.08,59.52z"/>
	<path class="st3" d="M47.24,60.13c-2.15-1.68-4.62-2.93-7.16-3.84l-0.96-0.33c-0.16-0.05-0.32-0.11-0.48-0.16
		c-0.16-0.05-0.32-0.09-0.52-0.07c-0.38,0.03-0.83,0.25-1.16,0.19c-0.17-0.02-0.31-0.12-0.46-0.17l-0.45-0.19
		c-0.6-0.26-1.21-0.53-1.83-0.75c-0.61-0.24-1.23-0.48-1.86-0.68c-0.63-0.22-1.25-0.44-1.89-0.61c-0.64-0.19-1.27-0.38-1.92-0.53
		c-0.65-0.16-1.29-0.35-1.95-0.47c-0.65-0.13-1.31-0.29-1.97-0.39c-2.64-0.49-5.34-0.76-8.09-0.92l-0.03-0.34
		c2.71-0.59,5.51-0.83,8.32-0.79c0.7-0.01,1.4,0.06,2.11,0.09c0.7,0.03,1.41,0.12,2.11,0.2c0.7,0.07,1.4,0.2,2.1,0.32
		c0.7,0.11,1.39,0.27,2.09,0.42c0.7,0.15,1.38,0.34,2.06,0.54c0.69,0.18,1.36,0.42,2.04,0.65l0.51,0.17
		c0.17,0.06,0.34,0.1,0.49,0.22c0.3,0.22,0.47,0.71,0.72,1.01c0.12,0.16,0.27,0.25,0.42,0.34c0.15,0.09,0.3,0.19,0.45,0.29
		l0.88,0.58c2.34,1.56,4.52,3.25,6.68,4.96L47.24,60.13z"/>
	<path class="st0" d="M45.35,57.91c-2.44,0.03-4.88-0.06-7.31-0.18c-1.22-0.05-2.43-0.15-3.64-0.22l-3.64-0.29
		c-2.42-0.22-4.85-0.45-7.26-0.74c-2.42-0.29-4.83-0.61-7.24-1.04l0.03-0.34c2.44-0.02,4.88,0.07,7.31,0.19
		c2.43,0.12,4.86,0.3,7.28,0.49l3.63,0.33c1.21,0.13,2.42,0.25,3.63,0.4c2.42,0.28,4.83,0.61,7.24,1.05L45.35,57.91z"/>
	<path class="st0" d="M45.39,57.9c-2.33,0.8-4.7,1.42-7.07,1.98c-2.37,0.56-4.76,1.03-7.16,1.44c-2.4,0.42-4.81,0.77-7.23,1
		c-2.43,0.23-4.87,0.4-7.34,0.32l-0.06-0.34c2.32-0.87,4.68-1.5,7.06-2.06c2.38-0.55,4.77-0.99,7.17-1.37
		c2.4-0.37,4.82-0.69,7.24-0.93c2.43-0.23,4.87-0.4,7.33-0.39L45.39,57.9z"/>
	<path class="st0" d="M45.43,57.89c-2.14,1.19-4.32,2.27-6.51,3.33c-2.19,1.06-4.41,2.06-6.64,3.04c-1.11,0.49-2.24,0.96-3.35,1.44
		c-1.13,0.46-2.25,0.93-3.38,1.37c-2.26,0.89-4.55,1.74-6.88,2.48l-0.13-0.31c2.13-1.21,4.31-2.3,6.5-3.35
		c1.1-0.53,2.2-1.03,3.31-1.54c1.11-0.49,2.22-1,3.34-1.48c2.24-0.96,4.48-1.9,6.75-2.79c2.27-0.89,4.55-1.75,6.87-2.51L45.43,57.89
		z"/>
	<path class="st4" d="M51.44,58.96c-2.82,0.68-5.58,1.45-8.25,2.42c-2.67,0.98-5.25,2.14-7.71,3.52c-2.46,1.38-4.79,2.98-6.98,4.77
		c-2.18,1.81-4.19,3.82-6.08,6.03l-0.29-0.19c1.3-2.63,3.12-5.02,5.23-7.09c2.1-2.09,4.52-3.87,7.11-5.31
		c2.59-1.44,5.36-2.57,8.22-3.32c2.85-0.76,5.79-1.18,8.71-1.17L51.44,58.96z"/>
	<path class="st5" d="M45.51,57.84c-1.29,2.08-2.67,4.09-4.12,6.07c-0.72,1-1.47,1.97-2.21,2.95c-0.76,0.97-1.53,1.94-2.3,2.9
		c-1.57,1.91-3.17,3.81-4.85,5.65c-1.67,1.85-3.4,3.67-5.23,5.42c-0.1-0.07-0.19-0.15-0.28-0.22c1.53-1.98,3.1-3.92,4.66-5.85
		c1.56-1.93,3.13-3.85,4.69-5.77c0.79-0.95,1.56-1.91,2.34-2.87c0.79-0.95,1.55-1.91,2.34-2.85c1.56-1.9,3.11-3.78,4.7-5.63
		C45.32,57.71,45.41,57.77,45.51,57.84"/>
	<path class="st0" d="M47.83,51.28c-1.29,2.08-2.67,4.09-4.12,6.07c-0.72,1-1.47,1.97-2.21,2.95c-0.76,0.97-1.53,1.93-2.3,2.9
		c-1.57,1.91-3.17,3.81-4.85,5.65c-1.67,1.85-3.4,3.67-5.23,5.42c-0.09-0.07-0.19-0.15-0.28-0.22c1.53-1.98,3.1-3.92,4.66-5.85
		c1.56-1.93,3.13-3.85,4.69-5.77c0.78-0.95,1.56-1.91,2.33-2.87c0.79-0.95,1.55-1.91,2.34-2.85c1.56-1.9,3.11-3.79,4.71-5.63
		C47.65,51.15,47.74,51.22,47.83,51.28"/>
	<path class="st0" d="M45.52,57.81c-0.7,2.35-1.53,4.64-2.42,6.91c-0.89,2.26-1.83,4.51-2.83,6.73c-0.5,1.11-1,2.22-1.53,3.32
		c-0.52,1.1-1.04,2.2-1.59,3.29c-1.08,2.18-2.2,4.35-3.45,6.46l-0.31-0.14c0.73-2.34,1.58-4.62,2.46-6.89
		c0.44-1.14,0.9-2.26,1.37-3.39c0.46-1.13,0.94-2.24,1.43-3.36c0.97-2.23,2-4.44,3.07-6.62c1.08-2.18,2.21-4.34,3.49-6.44
		L45.52,57.81z"/>
	<path class="st0" d="M54,39.56c-0.7,2.35-1.53,4.64-2.42,6.91c-0.89,2.26-1.83,4.51-2.83,6.73c-0.5,1.11-1,2.22-1.53,3.32
		c-0.52,1.1-1.04,2.2-1.59,3.29c-1.08,2.18-2.2,4.35-3.45,6.46l-0.31-0.14c0.73-2.34,1.58-4.62,2.46-6.89
		c0.44-1.14,0.9-2.26,1.37-3.39c0.46-1.13,0.94-2.25,1.43-3.36c0.97-2.23,2-4.44,3.07-6.62c1.08-2.18,2.21-4.34,3.49-6.44L54,39.56z
		"/>
	<path class="st6" d="M46,56.54c0.15,1.25,0.17,2.48,0.15,3.71c-0.03,1.22-0.12,2.44-0.27,3.65c-0.14,1.21-0.36,2.41-0.57,3.62
		c-0.22,1.2-0.45,2.4-0.71,3.6c-0.51,2.4-1.12,4.78-1.81,7.15c-0.7,2.37-1.5,4.73-2.49,7.05c-0.15-0.02-0.3-0.05-0.45-0.07
		c0.24-2.44,0.62-4.86,1.01-7.27c0.41-2.41,0.83-4.82,1.28-7.22c0.22-1.2,0.45-2.4,0.68-3.6c0.23-1.2,0.44-2.4,0.71-3.59
		c0.27-1.19,0.57-2.38,0.91-3.56c0.35-1.18,0.73-2.35,1.22-3.51L46,56.54z"/>
	<path class="st1" d="M45.53,57.72c0.39,1.19,0.67,2.39,0.9,3.59c0.23,1.2,0.4,2.41,0.54,3.62c0.14,1.21,0.22,2.42,0.31,3.64
		c0.09,1.21,0.17,2.43,0.24,3.64c0.15,2.43,0.24,4.86,0.31,7.3c0.06,2.44,0.08,4.87,0,7.32l-0.34,0.03
		c-0.47-2.4-0.83-4.82-1.15-7.23c-0.32-2.42-0.61-4.83-0.84-7.26c-0.12-1.21-0.23-2.42-0.34-3.63c-0.1-1.21-0.21-2.42-0.26-3.64
		c-0.05-1.22-0.07-2.44-0.03-3.66c0.04-1.22,0.12-2.45,0.32-3.69L45.53,57.72z"/>
	<path class="st0" d="M45.53,57.69c1,2.24,1.87,4.52,2.71,6.82c0.84,2.3,1.63,4.62,2.48,6.92c0.41,1.16,0.83,2.31,1.26,3.46
		c0.42,1.16,0.84,2.31,1.27,3.47c0.84,2.31,1.7,4.63,2.52,6.96c-0.13,0.04-0.25,0.08-0.38,0.12c-1.17-2.22-2.22-4.47-3.22-6.74
		c-0.49-1.14-0.97-2.27-1.44-3.42c-0.46-1.14-0.91-2.29-1.35-3.44c-0.86-2.3-1.69-4.61-2.42-6.94c-0.72-2.34-1.34-4.7-1.76-7.11
		C45.31,57.76,45.42,57.72,45.53,57.69"/>
	<path class="st7" d="M45.51,57.65c0.52,0.39,1.01,0.81,1.47,1.25c0.46,0.43,0.9,0.88,1.33,1.33c0.85,0.91,1.64,1.86,2.4,2.83
		c1.5,1.95,2.81,4.02,4.15,6.09c1.32,2.08,2.62,4.18,3.85,6.34c1.22,2.16,2.43,4.34,3.44,6.66c-0.1,0.07-0.2,0.13-0.31,0.19
		c-2.02-1.68-3.77-3.52-5.45-5.4c-1.66-1.89-3.2-3.85-4.65-5.86c-1.44-2.02-2.84-4.05-3.97-6.22c-0.57-1.09-1.08-2.21-1.52-3.37
		c-0.22-0.58-0.42-1.17-0.59-1.78c-0.18-0.61-0.33-1.23-0.43-1.87C45.31,57.77,45.41,57.71,45.51,57.65"/>
	<path class="st0" d="M38.66,58.74c0.74,0.03,1.47,0.08,2.21,0.14c0.74,0.07,1.46,0.2,2.2,0.33c0.74,0.11,1.45,0.3,2.17,0.47
		c0.36,0.09,0.72,0.17,1.08,0.28l1.06,0.34c2.83,0.93,5.53,2.27,8.02,3.91c2.49,1.64,4.78,3.6,6.75,5.83
		c1.96,2.24,3.62,4.75,4.75,7.47l-0.3,0.16c-1.62-2.42-3.46-4.63-5.53-6.6c-2.05-1.98-4.31-3.73-6.72-5.24
		c-2.41-1.52-4.96-2.77-7.59-3.88l-0.99-0.42c-0.33-0.14-0.67-0.25-1-0.38c-0.67-0.24-1.34-0.53-2.02-0.74
		c-0.69-0.21-1.36-0.49-2.06-0.69c-0.69-0.21-1.39-0.43-2.09-0.67L38.66,58.74z"/>
	<path class="st8" d="M45.45,57.59c1.16,0.42,2.28,0.9,3.4,1.39c1.11,0.5,2.23,1,3.32,1.54c2.19,1.06,4.34,2.2,6.47,3.39
		c2.13,1.19,4.24,2.4,6.31,3.68c2.07,1.28,4.13,2.59,6.12,4.03l-0.16,0.3c-2.28-0.9-4.5-1.92-6.69-2.98
		c-2.2-1.05-4.36-2.18-6.5-3.33c-2.14-1.15-4.26-2.35-6.34-3.62c-1.04-0.63-2.06-1.3-3.08-1.97c-1.01-0.68-2.02-1.37-3-2.12
		L45.45,57.59z"/>
	<path class="st0" d="M41.62,56.63c1.23-0.09,2.45-0.09,3.67-0.1c1.22,0.01,2.44,0.02,3.66,0.08c2.43,0.1,4.86,0.28,7.28,0.51
		c2.42,0.23,4.84,0.5,7.25,0.84c2.41,0.34,4.82,0.72,7.22,1.24l-0.03,0.34c-2.45,0.09-4.89,0.04-7.32-0.05
		c-2.43-0.08-4.86-0.25-7.29-0.44c-2.43-0.2-4.85-0.45-7.26-0.78c-1.21-0.16-2.41-0.36-3.61-0.56c-1.2-0.22-2.4-0.44-3.6-0.74
		L41.62,56.63z"/>
	<path class="st0" d="M45.41,57.57c2.39,0.5,4.76,1.07,7.13,1.66c2.37,0.59,4.74,1.19,7.11,1.81c2.37,0.62,4.75,1.23,7.12,1.87
		c2.38,0.63,4.76,1.27,7.13,1.97c-0.03,0.11-0.05,0.22-0.08,0.33c-2.45-0.37-4.88-0.84-7.29-1.35c-2.41-0.51-4.81-1.07-7.19-1.67
		c-2.38-0.6-4.74-1.25-7.09-1.96c-2.34-0.71-4.66-1.46-6.95-2.33C45.34,57.79,45.38,57.68,45.41,57.57"/>
	<path class="st0" d="M45.25,57.59c2.31-0.97,4.73-1.68,7.2-2.15c2.47-0.46,4.99-0.68,7.5-0.65l1.88,0.06L63.72,55l1.87,0.24
		l1.85,0.33c2.46,0.49,4.88,1.21,7.18,2.18l-0.12,0.32c-2.36-0.74-4.77-1.33-7.2-1.72l-1.83-0.25l-1.84-0.19l-1.84-0.11l-1.84-0.04
		c-2.46,0-4.92,0.19-7.35,0.56c-2.43,0.37-4.85,0.9-7.23,1.59L45.25,57.59z"/>
	<path class="st9" d="M45.32,57.57c2.32-0.77,4.65-1.46,7-2.12c1.17-0.33,2.35-0.65,3.52-0.96c1.18-0.32,2.36-0.61,3.53-0.91
		c2.36-0.6,4.73-1.15,7.11-1.67c2.38-0.51,4.77-0.98,7.19-1.34l0.08,0.33c-2.31,0.81-4.64,1.5-6.99,2.16
		c-2.35,0.65-4.7,1.26-7.07,1.82c-1.18,0.29-2.36,0.57-3.55,0.84c-1.19,0.27-2.37,0.54-3.56,0.79c-2.38,0.51-4.77,0.99-7.18,1.38
		L45.32,57.57z"/>
	<path class="st0" d="M44.17,59.16c1.91-1.58,3.96-2.92,6.04-4.18c2.08-1.27,4.24-2.4,6.4-3.51c2.16-1.11,4.35-2.18,6.56-3.2
		c2.22-1,4.45-1.99,6.76-2.84l0.16,0.3c-1.99,1.44-4.05,2.75-6.12,4.03c-2.08,1.27-4.19,2.49-6.32,3.67
		c-2.13,1.17-4.27,2.33-6.48,3.35c-2.21,1.03-4.46,1.98-6.84,2.68L44.17,59.16z"/>
	<path class="st0" d="M38.48,59.16c1.91-1.58,3.96-2.92,6.04-4.18c2.08-1.27,4.24-2.4,6.4-3.51c2.16-1.11,4.35-2.18,6.56-3.2
		c2.22-1,4.45-1.99,6.76-2.84l0.16,0.3c-1.99,1.44-4.05,2.75-6.12,4.03c-2.08,1.27-4.19,2.49-6.32,3.67
		c-2.13,1.17-4.27,2.33-6.48,3.35c-2.21,1.03-4.46,1.98-6.84,2.68L38.48,59.16z"/>
	<path class="st10" d="M44.09,58.74c1.11-2.74,2.81-5.23,4.81-7.44c2-2.2,4.34-4.1,6.88-5.66c0.62-0.41,1.27-0.77,1.93-1.12
		c0.65-0.37,1.32-0.68,1.99-0.99c0.34-0.15,0.67-0.32,1.01-0.47c0.34-0.14,0.69-0.28,1.03-0.41l1.04-0.4l1.05-0.35
		c2.81-0.91,5.72-1.51,8.65-1.72l0.05,0.34c-2.83,0.71-5.59,1.55-8.24,2.64l-1,0.4l-0.97,0.46c-0.32,0.15-0.65,0.3-0.97,0.45
		c-0.32,0.15-0.64,0.33-0.95,0.49c-0.63,0.33-1.27,0.65-1.88,1.03c-0.61,0.36-1.24,0.7-1.83,1.11c-2.39,1.55-4.63,3.32-6.68,5.3
		c-2.07,1.97-3.91,4.16-5.61,6.53L44.09,58.74z"/>
	<path class="st0" d="M45.22,57.64c1.08-2.2,2.32-4.3,3.58-6.38c1.27-2.07,2.59-4.12,3.97-6.13l1.02-1.51l1.04-1.5
		c0.69-1,1.4-1.99,2.11-2.98c1.43-1.97,2.88-3.93,4.42-5.83l0.28,0.19c-1.15,2.16-2.39,4.26-3.65,6.34
		c-0.63,1.04-1.27,2.08-1.92,3.1l-0.97,1.54l-1,1.53c-1.32,2.05-2.68,4.06-4.1,6.04c-1.43,1.97-2.88,3.93-4.49,5.78L45.22,57.64z"/>
	<path class="st11" d="M45.2,57.68c-0.05-1.31,0.14-2.53,0.39-3.73c0.25-1.2,0.62-2.36,1.04-3.5c0.81-2.3,1.65-4.58,2.52-6.85
		c0.87-2.27,1.77-4.54,2.73-6.78c0.94-2.25,1.93-4.48,3.01-6.68l0.32,0.11c-0.53,2.39-1.16,4.75-1.83,7.09
		c-0.66,2.35-1.37,4.68-2.11,6.99c-0.75,2.32-1.51,4.63-2.32,6.92c-0.39,1.15-0.83,2.29-1.38,3.38c-0.55,1.09-1.18,2.17-2.03,3.15
		L45.2,57.68z"/>
	<path class="st0" d="M51.44,57.65c0,3.26-2.64,5.91-5.91,5.91c-3.26,0-5.91-2.64-5.91-5.91c0-3.26,2.65-5.91,5.91-5.91
		C48.79,51.74,51.44,54.39,51.44,57.65"/>
	<path class="st0" d="M57.52,64.29c-0.4-1.21-0.63-2.42-0.83-3.64c-0.21-1.22-0.34-2.44-0.41-3.66c-0.08-1.22-0.08-2.44-0.06-3.65
		c0-1.22,0.04-2.43,0.09-3.64c0.1-2.42,0.3-4.83,0.62-7.23c0.35-2.39,0.82-4.75,1.6-7.07l0.6,0.08c0.59,2.49,0.88,4.93,1.03,7.35
		c0.13,2.41,0.14,4.81,0.05,7.2c-0.05,1.19-0.1,2.38-0.19,3.57c-0.08,1.19-0.17,2.38-0.35,3.56c-0.17,1.18-0.4,2.37-0.7,3.55
		c-0.29,1.19-0.62,2.38-1.11,3.58H57.52z"/>
	<path class="st0" d="M57.52,62.57c-0.9-2.28-1.62-4.61-2.29-6.95c-0.68-2.34-1.25-4.7-1.83-7.07c-0.57-2.36-1.12-4.74-1.63-7.12
		c-0.5-2.38-1-4.77-1.4-7.17l0.33-0.08c0.79,2.31,1.49,4.64,2.18,6.98c0.67,2.34,1.32,4.68,1.94,7.04c0.61,2.36,1.23,4.71,1.75,7.09
		c0.52,2.38,0.99,4.77,1.29,7.2L57.52,62.57z"/>
	<path class="st0" d="M57.54,62.61c-1.61-1.9-2.96-3.93-4.24-6c-1.29-2.07-2.43-4.22-3.56-6.37c-1.12-2.16-2.21-4.34-3.23-6.55
		c-1.01-2.22-2-4.45-2.84-6.76l0.3-0.16c1.47,1.97,2.79,4.02,4.1,6.08c1.29,2.07,2.52,4.17,3.71,6.29c1.18,2.13,2.35,4.26,3.38,6.47
		c1.03,2.21,1.99,4.46,2.7,6.84L57.54,62.61z"/>
	<path class="st1" d="M58.41,64.01c-1.47-2.53-3.13-4.87-5.04-7.01c-0.24-0.27-0.47-0.54-0.72-0.8c-0.25-0.25-0.5-0.51-0.75-0.77
		c-0.25-0.25-0.49-0.53-0.75-0.76l-0.79-0.73c-0.51-0.5-1.07-0.95-1.61-1.41c-0.54-0.48-1.12-0.88-1.69-1.32
		c-2.31-1.7-4.79-3.15-7.41-4.36c-2.61-1.22-5.35-2.19-8.16-2.98l0.07-0.33c2.92,0.39,5.79,1.15,8.56,2.22
		c2.76,1.08,5.41,2.49,7.84,4.22c0.6,0.44,1.22,0.86,1.78,1.35c0.57,0.48,1.17,0.93,1.7,1.46l0.81,0.77
		c0.28,0.25,0.52,0.54,0.77,0.81c0.26,0.27,0.51,0.55,0.76,0.83c0.25,0.28,0.47,0.58,0.7,0.87c1.85,2.34,3.37,4.97,4.24,7.8
		L58.41,64.01z"/>
	<path class="st0" d="M57.59,62.67c-2.24-1.03-4.35-2.24-6.45-3.47c-2.09-1.24-4.14-2.57-6.16-3.92c-1.01-0.67-2.01-1.37-3.01-2.06
		c-1.01-0.68-1.99-1.4-2.98-2.11c-1.97-1.43-3.93-2.89-5.81-4.44l0.19-0.28c2.18,1.11,4.3,2.32,6.4,3.55
		c1.04,0.62,2.09,1.24,3.12,1.89c1.04,0.64,2.07,1.28,3.09,1.94c2.05,1.31,4.08,2.66,6.05,4.08c1.97,1.43,3.92,2.89,5.76,4.53
		L57.59,62.67z"/>
	<path class="st2" d="M63.4,64.31c-2.24-1.03-4.35-2.24-6.46-3.47c-2.09-1.24-4.14-2.57-6.16-3.92c-1.01-0.67-2.01-1.36-3.01-2.06
		c-1.01-0.69-1.99-1.4-2.98-2.11c-1.97-1.43-3.93-2.89-5.81-4.45l0.19-0.28c2.18,1.11,4.3,2.32,6.4,3.55
		c1.04,0.62,2.09,1.24,3.12,1.89c1.04,0.64,2.07,1.28,3.09,1.94c2.05,1.31,4.08,2.66,6.05,4.08c1.97,1.43,3.92,2.89,5.76,4.53
		L63.4,64.31z"/>
	<path class="st3" d="M59.57,64.93c-2.15-1.68-4.62-2.93-7.16-3.84l-0.96-0.33c-0.16-0.05-0.32-0.11-0.48-0.16
		c-0.16-0.05-0.32-0.1-0.52-0.07c-0.38,0.03-0.83,0.25-1.16,0.19c-0.17-0.02-0.31-0.12-0.46-0.17l-0.45-0.19
		c-0.6-0.26-1.21-0.53-1.83-0.75c-0.61-0.24-1.23-0.48-1.86-0.68c-0.62-0.22-1.25-0.44-1.89-0.61c-0.64-0.19-1.27-0.38-1.92-0.53
		c-0.65-0.16-1.29-0.35-1.95-0.47c-0.65-0.13-1.31-0.29-1.97-0.39c-2.64-0.49-5.34-0.76-8.09-0.92l-0.03-0.34
		c2.71-0.59,5.51-0.83,8.32-0.79c0.7-0.01,1.4,0.06,2.11,0.09c0.7,0.03,1.4,0.12,2.11,0.2c0.7,0.07,1.4,0.2,2.1,0.32
		c0.7,0.11,1.39,0.26,2.08,0.42c0.7,0.15,1.38,0.34,2.06,0.54c0.69,0.18,1.36,0.42,2.04,0.65l0.51,0.17
		c0.17,0.06,0.34,0.1,0.49,0.22c0.3,0.22,0.47,0.71,0.72,1.01c0.12,0.16,0.27,0.25,0.42,0.34c0.15,0.09,0.3,0.19,0.45,0.29
		l0.88,0.58c2.34,1.56,4.52,3.25,6.68,4.96L59.57,64.93z"/>
	<path class="st0" d="M57.67,62.7c-2.44,0.03-4.88-0.06-7.31-0.18c-1.22-0.05-2.43-0.15-3.64-0.22l-3.64-0.29
		c-2.42-0.22-4.85-0.45-7.26-0.74c-2.42-0.29-4.83-0.61-7.24-1.04l0.03-0.34c2.44-0.02,4.88,0.07,7.31,0.19
		c2.43,0.12,4.86,0.3,7.28,0.49l3.63,0.33c1.21,0.13,2.42,0.25,3.63,0.4c2.42,0.28,4.83,0.61,7.24,1.05L57.67,62.7z"/>
	<path class="st0" d="M57.71,62.7c-2.33,0.8-4.7,1.42-7.07,1.98c-2.37,0.56-4.76,1.03-7.16,1.44c-2.4,0.42-4.81,0.77-7.23,1.01
		c-2.43,0.23-4.87,0.4-7.35,0.32l-0.06-0.34c2.32-0.87,4.69-1.5,7.06-2.06c2.38-0.55,4.77-0.99,7.17-1.37
		c2.4-0.38,4.82-0.69,7.24-0.93c2.43-0.23,4.87-0.4,7.33-0.39L57.71,62.7z"/>
	<path class="st0" d="M57.75,62.69c-2.14,1.19-4.32,2.27-6.51,3.33c-2.19,1.06-4.41,2.06-6.64,3.04c-1.11,0.49-2.24,0.96-3.35,1.44
		c-1.13,0.46-2.25,0.93-3.38,1.37c-2.26,0.89-4.55,1.74-6.88,2.48l-0.14-0.31c2.13-1.21,4.31-2.3,6.5-3.35
		c1.1-0.53,2.2-1.03,3.31-1.54c1.11-0.49,2.22-1,3.34-1.48c2.24-0.96,4.48-1.9,6.75-2.79c2.27-0.89,4.55-1.75,6.87-2.51L57.75,62.69
		z"/>
	<path class="st4" d="M63.76,63.76c-2.83,0.68-5.58,1.45-8.25,2.42c-2.67,0.98-5.25,2.14-7.71,3.52c-2.46,1.38-4.79,2.98-6.98,4.77
		c-2.18,1.81-4.19,3.82-6.08,6.03l-0.28-0.19c1.3-2.63,3.12-5.02,5.23-7.09c2.11-2.09,4.52-3.87,7.11-5.31
		c2.59-1.44,5.36-2.57,8.21-3.32c2.85-0.76,5.79-1.18,8.71-1.17L63.76,63.76z"/>
	<path class="st5" d="M57.83,62.64c-1.29,2.08-2.67,4.09-4.12,6.07c-0.72,1-1.47,1.97-2.21,2.95c-0.76,0.97-1.53,1.93-2.3,2.9
		c-1.57,1.91-3.17,3.8-4.85,5.65c-1.67,1.85-3.4,3.67-5.23,5.42c-0.09-0.07-0.19-0.15-0.28-0.22c1.52-1.98,3.1-3.92,4.66-5.85
		c1.56-1.93,3.13-3.85,4.69-5.77c0.79-0.95,1.56-1.91,2.34-2.87c0.79-0.95,1.55-1.91,2.34-2.85c1.56-1.9,3.11-3.79,4.7-5.63
		C57.64,62.5,57.73,62.57,57.83,62.64"/>
	<path class="st0" d="M60.16,56.08c-1.29,2.08-2.67,4.09-4.12,6.07c-0.72,1-1.47,1.97-2.21,2.95c-0.76,0.97-1.53,1.94-2.3,2.9
		c-1.57,1.91-3.17,3.81-4.85,5.65c-1.67,1.85-3.4,3.67-5.23,5.42c-0.1-0.07-0.19-0.15-0.28-0.22c1.52-1.98,3.1-3.92,4.66-5.85
		c1.56-1.93,3.13-3.85,4.69-5.77c0.79-0.95,1.56-1.91,2.34-2.87c0.79-0.95,1.55-1.91,2.34-2.85c1.56-1.9,3.11-3.78,4.7-5.63
		C59.97,55.94,60.06,56.01,60.16,56.08"/>
	<path class="st0" d="M57.84,62.6c-0.69,2.35-1.53,4.64-2.42,6.91c-0.89,2.26-1.83,4.51-2.83,6.73c-0.5,1.11-1,2.22-1.53,3.32
		c-0.52,1.1-1.04,2.2-1.59,3.29c-1.08,2.18-2.2,4.35-3.45,6.46l-0.31-0.14c0.73-2.34,1.58-4.62,2.46-6.89
		c0.44-1.14,0.9-2.26,1.37-3.39c0.46-1.13,0.94-2.25,1.43-3.36c0.97-2.23,2-4.44,3.07-6.62c1.08-2.18,2.21-4.34,3.49-6.44
		L57.84,62.6z"/>
	<path class="st0" d="M66.33,44.35c-0.69,2.35-1.53,4.64-2.42,6.91c-0.89,2.26-1.83,4.51-2.83,6.73c-0.5,1.11-1,2.22-1.53,3.32
		c-0.52,1.1-1.04,2.2-1.59,3.29c-1.08,2.18-2.2,4.35-3.45,6.46l-0.31-0.14c0.73-2.34,1.58-4.62,2.46-6.89
		c0.44-1.14,0.9-2.26,1.37-3.39c0.46-1.13,0.94-2.25,1.43-3.36c0.97-2.23,2-4.44,3.07-6.62c1.08-2.18,2.21-4.34,3.49-6.44
		L66.33,44.35z"/>
	<path class="st6" d="M58.33,61.33c0.15,1.25,0.17,2.48,0.15,3.71c-0.03,1.22-0.12,2.44-0.27,3.65c-0.14,1.21-0.36,2.41-0.57,3.62
		c-0.22,1.2-0.45,2.4-0.71,3.6c-0.51,2.4-1.12,4.78-1.81,7.15c-0.7,2.37-1.5,4.73-2.49,7.05c-0.15-0.02-0.3-0.05-0.45-0.07
		c0.24-2.44,0.62-4.86,1.01-7.27c0.41-2.41,0.83-4.82,1.28-7.22c0.22-1.2,0.45-2.4,0.68-3.6c0.23-1.2,0.44-2.4,0.71-3.59
		c0.27-1.19,0.57-2.38,0.91-3.56c0.35-1.18,0.73-2.35,1.22-3.51C58.1,61.3,58.21,61.32,58.33,61.33"/>
	<path class="st1" d="M57.86,62.52c0.39,1.19,0.67,2.39,0.9,3.59c0.23,1.2,0.4,2.41,0.54,3.62c0.14,1.21,0.22,2.42,0.31,3.64
		c0.09,1.21,0.17,2.43,0.24,3.64c0.15,2.43,0.24,4.86,0.31,7.3c0.06,2.44,0.08,4.87,0,7.32l-0.34,0.03
		c-0.47-2.4-0.83-4.82-1.15-7.23c-0.32-2.42-0.61-4.83-0.84-7.26c-0.12-1.21-0.23-2.42-0.34-3.63c-0.1-1.21-0.21-2.42-0.26-3.64
		c-0.05-1.22-0.07-2.44-0.03-3.66c0.04-1.22,0.12-2.45,0.32-3.69L57.86,62.52z"/>
	<path class="st0" d="M57.85,62.49c1,2.24,1.87,4.52,2.71,6.82c0.84,2.3,1.63,4.62,2.48,6.92c0.41,1.16,0.83,2.31,1.26,3.46
		c0.41,1.16,0.84,2.31,1.27,3.47c0.84,2.31,1.7,4.63,2.52,6.96c-0.12,0.04-0.25,0.08-0.38,0.12c-1.17-2.22-2.22-4.47-3.22-6.74
		c-0.49-1.14-0.97-2.28-1.44-3.42c-0.46-1.14-0.91-2.29-1.35-3.44c-0.86-2.3-1.69-4.61-2.42-6.94c-0.72-2.34-1.34-4.7-1.76-7.11
		C57.63,62.55,57.74,62.52,57.85,62.49"/>
	<path class="st7" d="M57.83,62.45c0.52,0.39,1.01,0.81,1.46,1.25c0.46,0.43,0.9,0.88,1.33,1.33c0.85,0.91,1.64,1.86,2.4,2.83
		c1.5,1.95,2.81,4.02,4.15,6.09c1.33,2.08,2.62,4.18,3.86,6.33c1.22,2.16,2.43,4.34,3.44,6.66c-0.1,0.07-0.21,0.13-0.31,0.19
		c-2.02-1.68-3.77-3.52-5.45-5.4c-1.66-1.89-3.2-3.85-4.65-5.86c-1.44-2.02-2.84-4.05-3.97-6.22c-0.57-1.09-1.08-2.21-1.52-3.37
		c-0.22-0.58-0.42-1.17-0.59-1.78c-0.18-0.61-0.33-1.23-0.43-1.87C57.63,62.57,57.73,62.51,57.83,62.45"/>
	<path class="st0" d="M50.98,63.54c0.74,0.03,1.47,0.08,2.21,0.14c0.74,0.07,1.46,0.2,2.2,0.33c0.74,0.11,1.45,0.3,2.17,0.47
		c0.36,0.09,0.72,0.17,1.08,0.28l1.06,0.34c2.83,0.93,5.53,2.27,8.02,3.91c2.49,1.64,4.78,3.6,6.75,5.83
		c1.96,2.24,3.62,4.75,4.75,7.47l-0.3,0.16c-1.62-2.42-3.46-4.63-5.53-6.6c-2.05-1.98-4.31-3.73-6.72-5.24
		c-2.41-1.52-4.96-2.77-7.59-3.88l-0.99-0.42c-0.33-0.14-0.67-0.25-1-0.38c-0.67-0.24-1.34-0.53-2.02-0.74
		c-0.69-0.21-1.36-0.49-2.06-0.69c-0.69-0.21-1.39-0.43-2.08-0.67L50.98,63.54z"/>
	<path class="st8" d="M57.77,62.38c1.16,0.41,2.28,0.9,3.4,1.38c1.11,0.5,2.23,1,3.32,1.54c2.19,1.06,4.34,2.2,6.47,3.39
		c2.12,1.19,4.23,2.4,6.31,3.68c2.07,1.28,4.13,2.59,6.11,4.03l-0.16,0.3c-2.28-0.9-4.49-1.92-6.69-2.98
		c-2.2-1.05-4.36-2.18-6.5-3.33c-2.14-1.15-4.26-2.35-6.34-3.63c-1.04-0.63-2.06-1.3-3.08-1.97c-1.01-0.68-2.02-1.37-3-2.12
		L57.77,62.38z"/>
	<path class="st0" d="M53.94,61.42c1.23-0.09,2.45-0.09,3.67-0.1c1.22,0.01,2.44,0.02,3.66,0.08c2.43,0.1,4.86,0.28,7.28,0.51
		c2.42,0.23,4.84,0.5,7.25,0.84c2.41,0.34,4.82,0.72,7.22,1.24L83,64.34c-2.45,0.09-4.89,0.04-7.32-0.05
		c-2.43-0.08-4.86-0.25-7.29-0.44c-2.43-0.2-4.85-0.45-7.26-0.78c-1.21-0.16-2.41-0.36-3.61-0.56c-1.2-0.22-2.4-0.44-3.6-0.74
		L53.94,61.42z"/>
	<path class="st0" d="M57.73,62.37c2.39,0.5,4.76,1.07,7.13,1.66c2.37,0.59,4.74,1.19,7.11,1.81c2.37,0.62,4.75,1.23,7.12,1.87
		c2.38,0.64,4.76,1.27,7.13,1.97c-0.02,0.11-0.05,0.22-0.08,0.33c-2.45-0.37-4.88-0.84-7.29-1.35c-2.41-0.51-4.81-1.07-7.19-1.68
		c-2.38-0.6-4.74-1.25-7.09-1.96c-2.34-0.71-4.66-1.47-6.95-2.34C57.67,62.59,57.7,62.48,57.73,62.37"/>
	<path class="st0" d="M57.57,62.38c2.31-0.97,4.73-1.68,7.2-2.15c2.47-0.46,4.99-0.68,7.5-0.65l1.88,0.06l1.88,0.15l1.87,0.24
		l1.85,0.33c2.46,0.49,4.87,1.21,7.18,2.18l-0.12,0.32c-2.36-0.74-4.77-1.33-7.2-1.72l-1.83-0.25l-1.84-0.19l-1.84-0.11l-1.84-0.04
		c-2.46,0-4.92,0.19-7.35,0.56c-2.43,0.37-4.85,0.9-7.23,1.59L57.57,62.38z"/>
	<path class="st9" d="M57.65,62.37c2.32-0.77,4.65-1.46,7-2.12c1.17-0.33,2.35-0.65,3.52-0.96c1.18-0.32,2.36-0.62,3.53-0.91
		c2.36-0.6,4.73-1.15,7.11-1.67c2.38-0.51,4.77-0.98,7.19-1.34l0.08,0.33c-2.31,0.81-4.64,1.5-6.98,2.16
		c-2.35,0.65-4.7,1.26-7.07,1.83c-1.18,0.28-2.36,0.57-3.55,0.84c-1.18,0.28-2.37,0.54-3.56,0.79c-2.38,0.51-4.77,0.99-7.18,1.38
		L57.65,62.37z"/>
	<path class="st0" d="M56.5,63.95c1.92-1.58,3.96-2.92,6.04-4.18c2.08-1.27,4.24-2.4,6.4-3.51c2.16-1.11,4.35-2.18,6.56-3.2
		c2.22-1,4.45-1.99,6.76-2.84l0.16,0.3c-1.99,1.44-4.05,2.75-6.12,4.03c-2.08,1.27-4.19,2.49-6.32,3.67
		c-2.13,1.17-4.27,2.33-6.48,3.35c-2.21,1.03-4.46,1.98-6.84,2.69L56.5,63.95z"/>
	<path class="st0" d="M50.8,63.95c1.92-1.58,3.96-2.92,6.04-4.18c2.08-1.27,4.24-2.4,6.4-3.51c2.16-1.11,4.35-2.18,6.56-3.2
		c2.22-1,4.45-1.99,6.76-2.84l0.16,0.3c-1.99,1.44-4.05,2.75-6.12,4.03c-2.08,1.27-4.19,2.49-6.32,3.67
		c-2.13,1.17-4.27,2.33-6.48,3.35c-2.21,1.03-4.46,1.98-6.84,2.69L50.8,63.95z"/>
	<path class="st10" d="M56.41,63.54c1.11-2.74,2.81-5.23,4.81-7.44c2-2.2,4.34-4.1,6.87-5.66c0.62-0.41,1.27-0.77,1.93-1.12
		c0.65-0.37,1.32-0.68,1.99-0.99c0.34-0.15,0.67-0.32,1.01-0.47c0.34-0.14,0.69-0.28,1.03-0.41l1.03-0.4l1.06-0.35
		c2.81-0.91,5.72-1.51,8.65-1.72l0.05,0.34c-2.83,0.71-5.59,1.55-8.24,2.64l-1,0.4l-0.97,0.46c-0.32,0.15-0.65,0.3-0.97,0.45
		c-0.32,0.15-0.64,0.33-0.95,0.49c-0.63,0.33-1.27,0.65-1.88,1.03c-0.61,0.36-1.24,0.7-1.83,1.11c-2.39,1.55-4.63,3.32-6.68,5.3
		c-2.07,1.97-3.91,4.16-5.61,6.53L56.41,63.54z"/>
	<path class="st0" d="M57.54,62.44c1.08-2.2,2.32-4.3,3.58-6.38c1.27-2.08,2.59-4.12,3.97-6.13l1.02-1.51l1.04-1.5
		c0.69-1,1.4-1.99,2.11-2.98c1.43-1.97,2.88-3.93,4.42-5.83l0.28,0.19c-1.15,2.16-2.39,4.26-3.65,6.34
		c-0.64,1.04-1.27,2.08-1.92,3.1l-0.98,1.54l-1,1.53c-1.32,2.05-2.68,4.06-4.1,6.04c-1.43,1.97-2.88,3.93-4.49,5.78L57.54,62.44z"/>
	<path class="st11" d="M57.53,62.47c-0.05-1.31,0.14-2.53,0.39-3.73c0.25-1.2,0.62-2.36,1.04-3.5c0.81-2.3,1.65-4.58,2.52-6.85
		c0.87-2.27,1.77-4.54,2.73-6.78c0.94-2.25,1.93-4.48,3.01-6.68l0.32,0.11c-0.53,2.39-1.16,4.75-1.83,7.09
		c-0.66,2.35-1.37,4.68-2.11,6.99c-0.74,2.32-1.51,4.63-2.32,6.92c-0.39,1.15-0.83,2.29-1.38,3.38c-0.56,1.09-1.18,2.17-2.03,3.15
		L57.53,62.47z"/>
	<path class="st0" d="M63.76,62.45c0,3.26-2.65,5.91-5.91,5.91c-3.26,0-5.91-2.64-5.91-5.91c0-3.26,2.64-5.91,5.91-5.91
		C61.11,56.54,63.76,59.18,63.76,62.45"/>
	<path class="st0" d="M61.6,49.14c-0.4-1.21-0.63-2.42-0.83-3.64c-0.21-1.22-0.34-2.44-0.41-3.66c-0.08-1.22-0.08-2.44-0.06-3.65
		c0-1.22,0.04-2.43,0.09-3.64c0.1-2.42,0.3-4.83,0.62-7.23c0.35-2.39,0.82-4.75,1.6-7.07l0.6,0.08c0.59,2.49,0.87,4.93,1.03,7.35
		c0.13,2.41,0.14,4.81,0.05,7.2c-0.05,1.19-0.1,2.38-0.19,3.57c-0.08,1.19-0.17,2.38-0.35,3.56c-0.17,1.19-0.4,2.37-0.7,3.55
		c-0.29,1.19-0.62,2.38-1.11,3.58H61.6z"/>
	<path class="st0" d="M61.61,47.43c-0.9-2.28-1.62-4.61-2.29-6.95c-0.68-2.34-1.25-4.7-1.83-7.07c-0.57-2.36-1.12-4.74-1.64-7.12
		c-0.5-2.38-1-4.77-1.4-7.17l0.33-0.08c0.79,2.31,1.49,4.64,2.18,6.98c0.67,2.34,1.32,4.69,1.94,7.04c0.61,2.36,1.23,4.71,1.75,7.09
		c0.52,2.38,0.99,4.77,1.29,7.2L61.61,47.43z"/>
	<path class="st0" d="M61.62,47.47c-1.61-1.9-2.96-3.93-4.24-6c-1.29-2.07-2.43-4.22-3.56-6.37c-1.12-2.16-2.21-4.34-3.23-6.55
		c-1.01-2.22-2-4.45-2.84-6.76l0.3-0.16c1.47,1.97,2.79,4.02,4.1,6.08c1.29,2.07,2.52,4.17,3.71,6.29c1.18,2.13,2.35,4.26,3.38,6.47
		c1.03,2.21,1.99,4.46,2.7,6.84L61.62,47.47z"/>
	<path class="st1" d="M62.49,48.86c-1.47-2.53-3.13-4.87-5.04-7.01c-0.24-0.27-0.47-0.54-0.72-0.8c-0.25-0.25-0.5-0.51-0.75-0.77
		c-0.25-0.25-0.49-0.53-0.75-0.76l-0.79-0.73c-0.51-0.5-1.07-0.95-1.61-1.41c-0.54-0.47-1.12-0.88-1.69-1.32
		c-2.31-1.7-4.8-3.15-7.41-4.36c-2.61-1.22-5.35-2.19-8.15-2.98l0.07-0.33c2.92,0.39,5.79,1.15,8.56,2.22
		c2.76,1.08,5.41,2.49,7.84,4.22c0.6,0.44,1.22,0.86,1.78,1.35c0.57,0.48,1.17,0.93,1.7,1.46l0.81,0.77
		c0.28,0.25,0.51,0.54,0.77,0.81c0.26,0.27,0.51,0.55,0.76,0.83c0.25,0.28,0.47,0.58,0.7,0.87c1.85,2.34,3.37,4.97,4.24,7.8
		L62.49,48.86z"/>
	<path class="st0" d="M61.68,47.53c-2.24-1.03-4.35-2.24-6.46-3.47c-2.09-1.24-4.13-2.57-6.16-3.92c-1.01-0.67-2.01-1.36-3.01-2.06
		c-1.01-0.69-1.99-1.4-2.98-2.11c-1.97-1.43-3.93-2.89-5.81-4.45l0.19-0.28c2.18,1.11,4.3,2.32,6.4,3.55
		c1.04,0.62,2.09,1.24,3.12,1.89c1.04,0.64,2.07,1.28,3.09,1.94c2.05,1.31,4.08,2.66,6.05,4.08c1.97,1.43,3.92,2.89,5.76,4.53
		L61.68,47.53z"/>
	<path class="st2" d="M67.49,49.16c-2.24-1.03-4.35-2.24-6.46-3.47c-2.09-1.24-4.14-2.57-6.16-3.92c-1.01-0.67-2.01-1.36-3.01-2.06
		c-1.01-0.68-1.99-1.4-2.98-2.11c-1.97-1.43-3.93-2.89-5.81-4.45l0.19-0.28c2.18,1.11,4.3,2.32,6.4,3.55
		c1.05,0.63,2.09,1.24,3.12,1.89c1.04,0.64,2.07,1.28,3.09,1.94c2.05,1.31,4.08,2.66,6.05,4.08c1.97,1.43,3.92,2.89,5.76,4.53
		L67.49,49.16z"/>
	<path class="st3" d="M63.65,49.78c-2.15-1.68-4.62-2.93-7.16-3.84l-0.96-0.33c-0.16-0.05-0.32-0.11-0.48-0.16
		c-0.16-0.05-0.32-0.09-0.52-0.07c-0.38,0.03-0.83,0.25-1.16,0.19c-0.17-0.02-0.31-0.11-0.46-0.17l-0.45-0.19
		c-0.6-0.26-1.21-0.53-1.83-0.75c-0.61-0.24-1.23-0.48-1.86-0.68c-0.62-0.22-1.25-0.44-1.89-0.61c-0.64-0.19-1.27-0.38-1.92-0.53
		c-0.65-0.16-1.29-0.35-1.95-0.47c-0.65-0.13-1.31-0.29-1.97-0.39c-2.64-0.49-5.34-0.76-8.09-0.92l-0.03-0.34
		c2.71-0.59,5.51-0.83,8.32-0.79c0.7-0.01,1.4,0.06,2.11,0.09c0.7,0.03,1.4,0.12,2.11,0.2c0.7,0.07,1.4,0.2,2.1,0.32
		c0.7,0.11,1.39,0.27,2.08,0.42c0.7,0.15,1.38,0.34,2.06,0.54c0.69,0.18,1.36,0.42,2.04,0.65l0.51,0.17
		c0.17,0.06,0.34,0.1,0.49,0.22c0.3,0.22,0.47,0.71,0.72,1.01c0.12,0.16,0.27,0.25,0.42,0.34c0.15,0.09,0.3,0.19,0.45,0.29
		l0.88,0.58c2.34,1.56,4.52,3.25,6.67,4.96L63.65,49.78z"/>
	<path class="st0" d="M61.76,47.56c-2.44,0.03-4.88-0.06-7.31-0.18c-1.22-0.05-2.43-0.15-3.65-0.22l-3.64-0.29
		c-2.42-0.22-4.85-0.45-7.26-0.74c-2.42-0.29-4.83-0.61-7.24-1.04l0.03-0.34c2.44-0.02,4.88,0.07,7.31,0.19
		c2.43,0.12,4.86,0.3,7.28,0.49l3.63,0.33c1.21,0.13,2.42,0.25,3.63,0.4c2.42,0.28,4.83,0.61,7.24,1.05L61.76,47.56z"/>
	<path class="st0" d="M61.8,47.55c-2.33,0.8-4.7,1.42-7.07,1.98c-2.38,0.56-4.76,1.03-7.16,1.44c-2.4,0.42-4.81,0.77-7.23,1.01
		c-2.43,0.23-4.87,0.4-7.35,0.32l-0.06-0.34c2.32-0.87,4.69-1.5,7.06-2.06c2.37-0.55,4.77-0.99,7.17-1.37
		c2.4-0.38,4.82-0.69,7.24-0.93c2.43-0.23,4.87-0.4,7.33-0.39L61.8,47.55z"/>
	<path class="st0" d="M61.84,47.54c-2.14,1.19-4.32,2.27-6.51,3.33c-2.19,1.06-4.41,2.06-6.64,3.04c-1.11,0.49-2.24,0.96-3.35,1.44
		c-1.13,0.46-2.25,0.93-3.38,1.37c-2.26,0.89-4.55,1.74-6.88,2.48l-0.14-0.31c2.13-1.21,4.31-2.3,6.5-3.35
		c1.1-0.53,2.2-1.03,3.31-1.54c1.11-0.49,2.22-1,3.34-1.48c2.24-0.96,4.48-1.9,6.75-2.79c2.27-0.89,4.55-1.75,6.87-2.51L61.84,47.54
		z"/>
	<path class="st4" d="M67.84,48.61c-2.82,0.68-5.58,1.45-8.25,2.42c-2.67,0.98-5.25,2.14-7.71,3.52c-2.46,1.38-4.79,2.98-6.98,4.77
		c-2.18,1.81-4.19,3.82-6.08,6.03l-0.29-0.19c1.3-2.63,3.12-5.02,5.23-7.09c2.1-2.09,4.52-3.87,7.11-5.31
		c2.59-1.44,5.36-2.57,8.22-3.32c2.85-0.76,5.79-1.18,8.71-1.17L67.84,48.61z"/>
	<path class="st5" d="M61.91,47.49c-1.29,2.08-2.67,4.09-4.12,6.07c-0.72,1-1.47,1.97-2.21,2.95c-0.76,0.97-1.53,1.93-2.3,2.9
		c-1.57,1.91-3.17,3.81-4.85,5.65c-1.67,1.85-3.4,3.67-5.23,5.42c-0.09-0.07-0.19-0.15-0.28-0.22c1.52-1.98,3.1-3.92,4.66-5.85
		c1.56-1.93,3.13-3.85,4.69-5.77c0.79-0.95,1.56-1.91,2.34-2.87c0.79-0.95,1.55-1.91,2.34-2.85c1.56-1.9,3.11-3.79,4.7-5.63
		C61.73,47.36,61.82,47.42,61.91,47.49"/>
	<path class="st0" d="M64.24,40.93c-1.29,2.08-2.67,4.09-4.12,6.07c-0.72,1-1.47,1.97-2.21,2.95c-0.76,0.97-1.53,1.93-2.3,2.9
		c-1.57,1.91-3.17,3.81-4.85,5.65c-1.67,1.85-3.4,3.67-5.23,5.42c-0.1-0.07-0.19-0.14-0.28-0.22c1.52-1.98,3.1-3.92,4.66-5.85
		c1.56-1.93,3.13-3.85,4.69-5.77c0.79-0.95,1.56-1.91,2.33-2.87c0.79-0.95,1.55-1.91,2.34-2.85c1.56-1.9,3.11-3.79,4.71-5.63
		C64.06,40.8,64.15,40.87,64.24,40.93"/>
	<path class="st0" d="M61.93,47.45c-0.69,2.35-1.53,4.64-2.42,6.91c-0.89,2.26-1.83,4.51-2.83,6.73c-0.5,1.11-1,2.22-1.53,3.32
		c-0.52,1.1-1.04,2.2-1.59,3.29c-1.08,2.18-2.2,4.35-3.45,6.46l-0.31-0.14c0.73-2.34,1.58-4.62,2.46-6.89
		c0.44-1.14,0.9-2.26,1.37-3.39c0.46-1.13,0.94-2.24,1.43-3.36c0.97-2.23,2-4.44,3.07-6.62c1.08-2.18,2.21-4.34,3.49-6.44
		L61.93,47.45z"/>
	<path class="st0" d="M70.41,29.21c-0.69,2.35-1.53,4.64-2.42,6.91c-0.89,2.26-1.83,4.51-2.83,6.73c-0.5,1.11-1,2.22-1.53,3.32
		c-0.52,1.1-1.04,2.2-1.59,3.29c-1.08,2.18-2.2,4.35-3.45,6.46l-0.31-0.14c0.73-2.34,1.58-4.62,2.46-6.89
		c0.44-1.14,0.9-2.26,1.37-3.39c0.46-1.13,0.94-2.24,1.43-3.36c0.97-2.23,2-4.44,3.07-6.62c1.08-2.18,2.21-4.34,3.49-6.44
		L70.41,29.21z"/>
	<path class="st6" d="M62.41,46.19c0.15,1.25,0.17,2.48,0.15,3.71c-0.03,1.22-0.12,2.44-0.27,3.65c-0.14,1.21-0.36,2.41-0.57,3.62
		c-0.22,1.2-0.45,2.4-0.71,3.6c-0.51,2.4-1.12,4.78-1.81,7.15c-0.7,2.37-1.5,4.73-2.49,7.05c-0.15-0.02-0.3-0.05-0.45-0.07
		c0.24-2.44,0.62-4.86,1.01-7.27c0.41-2.41,0.83-4.82,1.28-7.22c0.22-1.2,0.45-2.4,0.68-3.6c0.23-1.2,0.44-2.4,0.71-3.59
		c0.27-1.19,0.57-2.38,0.91-3.56c0.35-1.18,0.73-2.35,1.22-3.51C62.19,46.15,62.3,46.17,62.41,46.19"/>
	<path class="st1" d="M61.94,47.37c0.39,1.19,0.67,2.39,0.9,3.59c0.23,1.2,0.4,2.41,0.54,3.62c0.14,1.21,0.22,2.42,0.31,3.64
		c0.09,1.21,0.17,2.43,0.24,3.64c0.15,2.43,0.24,4.86,0.31,7.3c0.06,2.44,0.08,4.87,0,7.32l-0.34,0.03
		c-0.47-2.4-0.83-4.82-1.15-7.23c-0.32-2.42-0.61-4.83-0.84-7.26c-0.12-1.21-0.23-2.42-0.34-3.63c-0.1-1.21-0.21-2.42-0.26-3.64
		c-0.05-1.22-0.07-2.43-0.03-3.66c0.04-1.22,0.12-2.45,0.32-3.69L61.94,47.37z"/>
	<path class="st0" d="M61.93,47.34c1,2.24,1.87,4.52,2.71,6.82c0.84,2.3,1.63,4.62,2.48,6.92c0.41,1.16,0.83,2.31,1.26,3.46
		c0.41,1.16,0.84,2.31,1.27,3.47c0.84,2.31,1.7,4.63,2.52,6.96c-0.12,0.04-0.25,0.08-0.38,0.12c-1.17-2.22-2.22-4.47-3.22-6.74
		c-0.49-1.14-0.97-2.27-1.44-3.42c-0.46-1.14-0.91-2.29-1.35-3.44c-0.86-2.3-1.69-4.61-2.42-6.94c-0.72-2.34-1.34-4.7-1.76-7.11
		C61.72,47.41,61.82,47.37,61.93,47.34"/>
	<path class="st7" d="M61.91,47.3c0.53,0.39,1.01,0.81,1.47,1.25c0.46,0.43,0.9,0.88,1.33,1.33c0.85,0.91,1.64,1.86,2.4,2.83
		c1.51,1.95,2.81,4.02,4.15,6.09c1.33,2.08,2.62,4.18,3.86,6.33c1.22,2.16,2.43,4.34,3.44,6.66c-0.1,0.07-0.21,0.13-0.31,0.19
		c-2.02-1.68-3.77-3.52-5.45-5.4c-1.66-1.89-3.21-3.85-4.65-5.86c-1.44-2.02-2.84-4.05-3.97-6.22c-0.57-1.09-1.08-2.21-1.52-3.37
		c-0.22-0.58-0.42-1.17-0.59-1.78c-0.18-0.61-0.33-1.23-0.43-1.87C61.72,47.42,61.82,47.36,61.91,47.3"/>
	<path class="st0" d="M55.07,48.39c0.74,0.03,1.47,0.08,2.21,0.14c0.74,0.07,1.46,0.2,2.2,0.32c0.74,0.11,1.45,0.3,2.17,0.48
		c0.36,0.09,0.72,0.17,1.08,0.28l1.06,0.34c2.83,0.93,5.52,2.27,8.02,3.91c2.49,1.64,4.78,3.6,6.75,5.83
		c1.96,2.24,3.62,4.75,4.75,7.47l-0.3,0.16c-1.62-2.42-3.46-4.63-5.53-6.6c-2.05-1.98-4.31-3.73-6.72-5.24
		c-2.41-1.52-4.96-2.77-7.59-3.88l-0.99-0.42c-0.33-0.14-0.67-0.25-1-0.38c-0.67-0.24-1.34-0.53-2.02-0.74
		c-0.69-0.21-1.36-0.49-2.06-0.69c-0.69-0.21-1.39-0.43-2.09-0.67L55.07,48.39z"/>
	<path class="st8" d="M61.85,47.24c1.16,0.41,2.28,0.9,3.4,1.38c1.11,0.5,2.23,1,3.32,1.54c2.19,1.06,4.34,2.2,6.47,3.39
		c2.13,1.19,4.24,2.4,6.31,3.68c2.07,1.28,4.13,2.59,6.11,4.03l-0.16,0.3c-2.28-0.9-4.5-1.92-6.69-2.98
		c-2.2-1.05-4.36-2.18-6.5-3.33c-2.14-1.15-4.26-2.35-6.34-3.62c-1.04-0.63-2.06-1.3-3.08-1.97c-1.01-0.68-2.02-1.37-3-2.12
		L61.85,47.24z"/>
	<path class="st0" d="M58.03,46.28c1.23-0.09,2.45-0.09,3.67-0.1c1.22,0.01,2.44,0.02,3.66,0.08c2.43,0.1,4.86,0.28,7.28,0.51
		c2.42,0.23,4.84,0.5,7.25,0.84c2.41,0.34,4.82,0.72,7.22,1.24l-0.03,0.34c-2.45,0.09-4.89,0.04-7.32-0.05
		c-2.43-0.08-4.86-0.25-7.29-0.44c-2.43-0.2-4.85-0.45-7.26-0.78c-1.21-0.16-2.41-0.36-3.61-0.56c-1.2-0.22-2.4-0.44-3.6-0.74
		L58.03,46.28z"/>
	<path class="st0" d="M61.81,47.22c2.39,0.5,4.76,1.07,7.13,1.66c2.37,0.59,4.74,1.19,7.11,1.81c2.37,0.62,4.75,1.23,7.12,1.87
		c2.38,0.64,4.76,1.27,7.13,1.97c-0.02,0.11-0.05,0.22-0.08,0.33c-2.45-0.37-4.88-0.84-7.29-1.35c-2.41-0.51-4.81-1.07-7.19-1.68
		c-2.38-0.6-4.74-1.25-7.09-1.96c-2.34-0.71-4.66-1.47-6.95-2.33C61.75,47.44,61.78,47.33,61.81,47.22"/>
	<path class="st0" d="M61.66,47.24c2.31-0.97,4.73-1.68,7.2-2.15c2.47-0.46,4.99-0.68,7.5-0.65l1.88,0.06l1.88,0.15l1.87,0.24
		l1.85,0.33c2.46,0.49,4.87,1.21,7.18,2.18l-0.12,0.32c-2.36-0.74-4.77-1.33-7.2-1.72l-1.83-0.25l-1.84-0.19l-1.84-0.11l-1.84-0.04
		c-2.46,0-4.92,0.19-7.35,0.56c-2.43,0.37-4.85,0.9-7.23,1.59L61.66,47.24z"/>
	<path class="st9" d="M61.73,47.22c2.32-0.77,4.65-1.46,7-2.12c1.17-0.33,2.34-0.65,3.52-0.96c1.18-0.32,2.36-0.61,3.53-0.91
		c2.36-0.6,4.73-1.15,7.11-1.67c2.38-0.51,4.77-0.98,7.19-1.34l0.08,0.33c-2.31,0.81-4.64,1.5-6.99,2.16
		c-2.35,0.65-4.7,1.26-7.07,1.82c-1.18,0.29-2.36,0.57-3.55,0.84c-1.19,0.27-2.37,0.54-3.56,0.79c-2.38,0.51-4.77,0.99-7.18,1.38
		L61.73,47.22z"/>
	<path class="st0" d="M60.58,48.81c1.92-1.58,3.96-2.92,6.04-4.18c2.08-1.27,4.24-2.4,6.4-3.51c2.16-1.11,4.35-2.18,6.56-3.2
		c2.22-1,4.45-1.99,6.76-2.84l0.16,0.3c-1.99,1.44-4.05,2.75-6.12,4.03c-2.08,1.27-4.19,2.49-6.32,3.67
		c-2.13,1.17-4.27,2.33-6.48,3.35c-2.21,1.03-4.46,1.98-6.84,2.69L60.58,48.81z"/>
	<path class="st0" d="M54.88,48.81c1.91-1.58,3.96-2.92,6.04-4.18c2.08-1.27,4.24-2.4,6.4-3.51c2.16-1.11,4.35-2.18,6.56-3.2
		c2.22-1,4.45-1.99,6.76-2.84l0.16,0.3c-1.99,1.44-4.05,2.75-6.12,4.03c-2.08,1.27-4.19,2.49-6.32,3.67
		c-2.13,1.17-4.27,2.33-6.48,3.35c-2.21,1.03-4.46,1.98-6.84,2.69L54.88,48.81z"/>
	<path class="st10" d="M60.49,48.39c1.11-2.74,2.81-5.23,4.81-7.44c2-2.2,4.34-4.1,6.87-5.66c0.62-0.41,1.27-0.77,1.93-1.12
		c0.65-0.37,1.32-0.68,1.99-0.99c0.34-0.15,0.67-0.32,1.01-0.47c0.34-0.14,0.69-0.28,1.03-0.41l1.04-0.4l1.06-0.35
		c2.81-0.91,5.72-1.51,8.65-1.72l0.05,0.34c-2.83,0.71-5.59,1.55-8.24,2.64l-1,0.4l-0.97,0.45c-0.32,0.15-0.65,0.3-0.97,0.45
		c-0.32,0.15-0.64,0.33-0.95,0.49c-0.63,0.33-1.27,0.65-1.88,1.03c-0.61,0.36-1.24,0.7-1.83,1.11c-2.39,1.55-4.63,3.32-6.68,5.29
		c-2.07,1.97-3.91,4.16-5.61,6.53L60.49,48.39z"/>
	<path class="st0" d="M61.63,47.29c1.08-2.2,2.32-4.3,3.58-6.38c1.27-2.08,2.59-4.12,3.97-6.13l1.02-1.51l1.04-1.5
		c0.69-1,1.4-1.99,2.11-2.98c1.43-1.97,2.88-3.93,4.42-5.83l0.28,0.19c-1.15,2.16-2.39,4.26-3.65,6.34
		c-0.64,1.04-1.27,2.08-1.92,3.1l-0.98,1.54l-1,1.53c-1.32,2.05-2.68,4.06-4.1,6.04c-1.43,1.97-2.88,3.93-4.49,5.78L61.63,47.29z"/>
	<path class="st11" d="M61.61,47.33c-0.05-1.31,0.14-2.53,0.39-3.73c0.25-1.2,0.62-2.36,1.04-3.5c0.81-2.3,1.65-4.58,2.52-6.85
		c0.87-2.27,1.77-4.54,2.73-6.78c0.94-2.25,1.93-4.48,3.01-6.68l0.32,0.11c-0.53,2.39-1.16,4.75-1.83,7.09
		c-0.66,2.35-1.37,4.68-2.11,6.99c-0.74,2.32-1.51,4.63-2.32,6.92c-0.39,1.15-0.83,2.29-1.38,3.38c-0.55,1.09-1.18,2.17-2.03,3.15
		L61.61,47.33z"/>
	<path class="st0" d="M67.84,47.3c0,3.26-2.64,5.91-5.91,5.91c-3.26,0-5.91-2.64-5.91-5.91c0-3.26,2.65-5.91,5.91-5.91
		C65.2,41.39,67.84,44.04,67.84,47.3"/>
	<path class="st12" d="M52.45,46.08c-1.39-1.41-3.74-2.49-5.3-2.13c-1.56,0.36-4.64,1.91-6.54,4.3c-1.9,2.39-2.86,5.4-2.84,5.73
		c0.02,0.34,1.06,2.53,1.06,2.53l1.42-0.54c0,0,3.39-2.93,4.87-4.33c1.48-1.4,5.44-3.72,5.9-3.88c0.46-0.16,0.57-0.37,0.87-0.39
		c0.3-0.02,0.66-0.08,0.75-0.21C52.74,47.04,52.45,46.08,52.45,46.08"/>
	<path class="st13" d="M32.43,48.54c-0.1-0.13-3.05-1.78-3.42-1.94c-0.37-0.16-2.46-0.83-2.57-0.81c-0.11,0.02-0.5,0.13-1.06,0.19
		c-0.55,0.06-1.04,0.11-1.35,0.47c-0.31,0.36-0.76,0.78-1.05,1.29c-0.28,0.51-0.26,1.03-0.21,1.32c0.05,0.29,0.52,0.96,0.52,0.96
		l1.91,1.58c0,0,1.55,1.46,2.02,1.52c0.47,0.06,4.06,1.33,4.06,1.33l3.13,1.2l1.71-0.58l1.26-3.21l-1.53-2.15L32.43,48.54z"/>
	<path class="st14" d="M33.5,37.33c-0.96,0.07-2.86,2.31-3.01,5.55c-0.15,3.25,1.16,9.45,3.87,12c2.71,2.55,3.84,2.75,3.84,2.75
		s2.5-4.25,2.92-6.06c0.42-1.8-0.16-8.71-1.76-10.84C37.76,38.62,34.57,37.25,33.5,37.33"/>
	<path class="st15" d="M35.91,56.59c0,0-1.56,3.23-2.06,4.83c-0.5,1.6-0.69,7.38-0.02,8.76c0.67,1.39,1.59,2.47,2.22,2.62
		c0.63,0.15,1.22,0.04,1.73-0.05c0.51-0.09,0.88-0.35,1.17-0.82c0.29-0.47,0.2-2.42,0.35-3.24c0.15-0.82-0.14-5.68,0.03-6.2
		c0.17-0.52,0.22-1.7,0.02-2.16c-0.2-0.45-0.14-2.41-0.49-2.83c-0.35-0.42-1.34-0.76-1.34-0.76L35.91,56.59z"/>
	<path class="st16" d="M37.64,53.25c0,0-4.64-1-6.52-0.99c-1.89,0.01-3.05-0.16-6.29,1.72c-3.24,1.88-4.98,4.12-5.66,5.19
		c-0.67,1.07-1.25,3.7-1.42,4.19c-0.18,0.49-0.14,0.89,0.2,1.1c0.34,0.2,1.97,0.4,3.18,0.47c1.22,0.08,5.93-0.6,6.47-0.77
		c0.53-0.17,4.44-1.31,5.13-1.7c0.68-0.39,2.98-2.21,2.98-2.21l1.96-1.98l0.6-1.65c0,0,0.43-0.66,0.32-1.2
		C38.47,54.87,37.64,53.25,37.64,53.25"/>
	<path class="st17" d="M38.47,54.87c0,0,2.19-2.52,3.6-2.93c1.41-0.41,4.99,0.37,5.88,0.89c0.89,0.52,4.02,3.98,4.69,4.54
		c0.67,0.56,1.03,2.34,1.34,2.96c0.3,0.62,0.44,1.17-0.25,1.29c-0.69,0.13-1.52,0.13-2.34,0.43c-0.81,0.3-1.75,0.32-2.89,0.53
		c-1.13,0.21-4.84-0.25-5.44-0.44c-0.6-0.19-1.7-0.82-2.22-0.8c-0.52,0.02-1.04,0.08-1.17,0.03c-0.12-0.05-0.68-0.03-1.14-0.66
		c-0.46-0.63-1.36-1.83-1.33-2.48C37.23,57.59,38.47,54.87,38.47,54.87"/>
	<path class="st18" d="M34.51,39.53c0,0,0.64,6.56,0.79,7.17c0.15,0.62,0.33,0.7,0.46,1.12c0.14,0.42,0.7,2.2,0.48,2.59
		c-0.23,0.39-0.85-1.05-0.85-1.05s-0.06-2.3-0.69-2.46c-0.63-0.17-0.29-0.27-1.65-0.02c-1.36,0.25-2.11,0.31-2.11,0.31l0.42,2.29
		c0,0,0.41,1.17,0.28,1.52c-0.14,0.35-0.46-0.56-0.76-1.07c-0.29-0.51-0.7-1.4-1.48-1.74c-0.79-0.34-1.89-0.66-2.08-0.62
		c-0.19,0.04,0.15,0.82,0.15,0.82l1.72,1.49c0,0,0.81,0.05,0.96,0.65c0.15,0.59,0.66,1.18-0.21,0.62c-0.87-0.56-2.39-1.81-2.39-1.81
		s-1.47-0.41-1.73-0.08c-0.26,0.33,0.6,1.5,0.6,1.5l1.65,0.66l0.96,0.83l-1.34-0.08l-1.75-0.56c0,0,0.07,0.83,0.99,1.02
		c0.92,0.19,2.48,0.15,2.28,0.83c-0.2,0.68-0.22,0.56-0.36,0.91c-0.14,0.35-0.19,0.72,0.46,0.76c0.65,0.04,1.7-0.39,0.94,0.31
		c-0.76,0.7-1.16,0.72-1.63,0.97c-0.48,0.26-1.37,0.62-0.5,0.78c0.87,0.16,0.84,0.21,1.63,0.1c0.78-0.1-1.05,0.19-1.05,0.19
		l-2.56,0.95c0,0-1.13,0.84-1.37,0.87c-0.24,0.03-1.03,0.1-0.24,0.03c0.79-0.06,3.05-0.92,3.05-0.92s2.32-0.71,2.83-0.76
		c0.51-0.05,1.89-0.43,1.61,0.03c-0.28,0.45-0.82,0.58-1.44,0.68c-0.63,0.1-3.9,1.1-3.9,1.1s-3.05,1.32-3.77,1.82
		c-0.71,0.49-1.44,1.35-1.44,1.35l1.75-0.52l4.5-2.43c0,0,4.58-1.08,4.9-1.14c0.31-0.06,1.01-0.43,1.44-0.26
		c0.43,0.16,0.43,1.25,0.43,1.25l-1.52,1.57l-1.97,0.64l-3.17,1.59l-2.1,0.63l0.93,0.03L29,63.17l2.42-0.81l3.02-1.52
		c0,0,0.51-1.14,1.02-1.03c0.5,0.11,0.81,0.01,0.94,0.51c0.13,0.5,0.12,0.86,0.12,0.86l0.37,0.25l0.16-1.07l0.56,0.18l-0.04,0.89
		l-0.05,0.81c0,0,0.58-0.15,0.49-0.81c-0.08-0.67-0.19-1.05-0.19-1.05l0.51-0.09c0,0,0,0.68,0.26,0.55
		c0.26-0.13,0.13-0.63,0.13-0.63l0.16-0.67c0,0,0.28,0.43,0.47-0.09c0.19-0.52,0.04-0.85,0.04-0.85l0.78-1.03l2.12,0.82l4.64,1.6
		l2.94,0.91l1.5,0.05l0.12-0.46l-4.06-1.1c0,0-4.09-1.5-5.48-1.81c-1.38-0.31-1.73-1.12-1.73-1.12l0.54-1l5.04,0.28l2.86,0.68
		l-3.17-2.35l-3.25-0.85l-0.83-0.61c0,0,1.76-1.53,2.56-2c0.8-0.47,3.96-2.09,3.96-2.09l2.35-1.2l-1.18-0.07l-4.17,2.01l-2.96,1.59
		l-0.29-0.95l1.56-2l2.63-1.43l-1.75,0.12l-3.17,2.23l-1.77-0.44c0,0,0.07-2.47-0.74-3.16c-0.81-0.7-1.03-0.79-1.36,0.02
		c-0.33,0.81-0.92,0.92-0.92,0.92l-0.51-1.67c0,0-0.38-1.62-0.44-1.73C35.13,42.67,34.63,40.15,34.51,39.53"/>
	<path class="st19" d="M31.6,53.78c-0.18,0.11,1.18,1.09,1.22,1.88c0.04,0.8,0.25,1.31,0.25,1.31s0.88,0.59,1.42,1.14
		c0.55,0.55,0.51,0.78,0.94,0.91c0.43,0.12,1.12,0.1,1.12,0.1l1.23-0.59l1.13-1.04c0,0,0.92-1.96,0.94-2.76
		c0.02-0.8,0.4-1.46,0.4-1.46l0.16-0.58l-0.48-2.62l-1.03,0.38l-1.09-1.6c0,0-0.69-0.65-2.21,0.02c-1.53,0.67-1.9,0.74-2.51,1.07
		c-0.61,0.34-0.7,0.31-0.79,0.8c-0.09,0.49-0.38,0.91-0.38,0.91l-1.12,0.1l0.31,0.92l-0.36,0.81c0,0-0.22-0.09-0.37,0.07
		c-0.15,0.16,0.02,0.78,0.02,0.78"/>
	<path class="st20" d="M33.83,54.26c-0.05,0.08-0.14,0.12-0.23,0.16c-0.28,0.12-0.59,0.19-0.02,0.76c0.77,0.76,1.05,1.44,1.52,1.46
		c0.47,0.02,0.8-0.2,1.52-0.28c0.72-0.08,1.81-0.7,1.81-0.7l0.34-1.56c0,0-0.11-0.89-0.57-1.38c-0.46-0.49-0.26-0.84-0.99-0.53
		c-0.73,0.32-0.86,0.6-1.49,0.67c-0.63,0.06-1.25,0.39-1.25,0.39l-0.11,0.86"/>
	<path class="st21" d="M37.55,53.13c0.35,0.18,0.83,0.47,0.71,0.77c-0.12,0.31-0.21,0.41-0.71,0.1c-0.51-0.3-1.92-2-2.32-3.34"/>
	<path class="st21" d="M37.9,54.3c0.04,0.24-0.11,0.96-0.73,0.64c-0.63-0.32-1.47-1.9-1.51-2.19"/>
	<path class="st21" d="M34.64,51.51c0,0,1.28,3.18,1.54,3.42c0.26,0.25,0.9,1.11,1.33,0.43"/>
	<path class="st21" d="M34.26,53.64c0,0,1.37,1.98,1.62,2.11c0.26,0.13,0.79,0.54,1.15,0.21"/>
	<path class="st21" d="M32.59,52.84c0,0,1.92,2.26,2.29,2.22c0.37-0.04,0.51-0.07,0.77-0.22c0.26-0.15,0.61-0.37,0.86-0.38"/>
	<path class="st21" d="M33.3,52.92c0,0,0.55,2.03,0.91,2.36c0.36,0.33,0.76,0.44,1.45,0.25"/>
	<path class="st21" d="M33.05,53.66c0,0,1.67,1.55,2.13,1.89c0.46,0.34,0.9,0.69,1.32,0.59"/>
	<path class="st22" d="M35.67,50.61c0.02,0.11-0.13,0.24-0.35,0.28c-0.21,0.04-0.4-0.02-0.42-0.13c-0.02-0.11,0.13-0.24,0.35-0.28
		C35.46,50.43,35.65,50.5,35.67,50.61"/>
	<path class="st22" d="M35.05,51.38c0.02,0.09-0.2,0.21-0.48,0.26c-0.28,0.05-0.52,0.02-0.54-0.07c-0.02-0.09,0.2-0.21,0.48-0.26
		C34.79,51.25,35.03,51.28,35.05,51.38"/>
	<path class="st22" d="M32.91,52.67c0.02,0.11-0.09,0.22-0.24,0.25c-0.15,0.03-0.3-0.04-0.32-0.15c-0.02-0.11,0.09-0.22,0.24-0.25
		C32.75,52.49,32.89,52.55,32.91,52.67"/>
	<path class="st22" d="M33.69,52.81c0.02,0.08-0.13,0.18-0.33,0.22c-0.2,0.04-0.37,0-0.39-0.09c-0.02-0.08,0.13-0.18,0.33-0.22
		C33.5,52.69,33.68,52.73,33.69,52.81"/>
	<path class="st22" d="M33.37,53.53c0.01,0.08-0.13,0.16-0.31,0.2c-0.19,0.03-0.35,0-0.36-0.07c-0.01-0.08,0.13-0.16,0.31-0.2
		C33.19,53.42,33.35,53.46,33.37,53.53"/>
	<path class="st22" d="M34.56,53.51c0.02,0.09-0.08,0.18-0.22,0.21c-0.14,0.02-0.26-0.03-0.28-0.12s0.08-0.18,0.22-0.21
		C34.42,53.37,34.54,53.42,34.56,53.51"/>
	<path class="st22" d="M35.93,52.6c0.02,0.12-0.09,0.23-0.25,0.26c-0.16,0.03-0.3-0.04-0.32-0.16c-0.02-0.12,0.09-0.23,0.25-0.26
		C35.76,52.41,35.91,52.48,35.93,52.6"/>
	<path class="st21" d="M37.92,53.1c0.35,0.18,0.83,0.46,0.71,0.77c-0.12,0.3-0.21,0.41-0.71,0.1c-0.51-0.31-1.92-2-2.32-3.34"/>
	<path class="st21" d="M38.28,54.27c0.04,0.24-0.11,0.96-0.73,0.64c-0.63-0.32-1.47-1.91-1.51-2.19"/>
	<path class="st21" d="M35.02,51.48c0,0,1.28,3.18,1.54,3.42c0.26,0.25,0.9,1.11,1.33,0.43"/>
	<path class="st21" d="M34.63,53.61c0,0,1.37,1.98,1.62,2.11c0.26,0.13,0.79,0.54,1.15,0.21"/>
	<path class="st21" d="M32.97,52.81c0,0,1.92,2.26,2.29,2.22c0.37-0.04,0.51-0.07,0.77-0.22c0.26-0.15,0.61-0.37,0.86-0.37"/>
	<path class="st21" d="M33.68,52.9c0,0,0.55,2.03,0.91,2.36c0.36,0.33,0.76,0.44,1.45,0.25"/>
	<path class="st21" d="M33.43,53.63c0,0,1.67,1.55,2.13,1.89c0.46,0.34,0.9,0.69,1.32,0.59"/>
	<path class="st22" d="M36.05,50.58c0.02,0.11-0.14,0.24-0.35,0.28c-0.21,0.04-0.4-0.02-0.42-0.13c-0.02-0.11,0.13-0.24,0.35-0.28
		S36.03,50.47,36.05,50.58"/>
	<path class="st22" d="M35.43,51.35c0.02,0.09-0.2,0.21-0.48,0.26c-0.28,0.05-0.53,0.02-0.54-0.07c-0.02-0.09,0.2-0.21,0.48-0.26
		C35.17,51.22,35.41,51.26,35.43,51.35"/>
	<path class="st22" d="M33.29,52.64c0.02,0.11-0.09,0.22-0.24,0.25c-0.15,0.03-0.3-0.04-0.32-0.15c-0.02-0.11,0.09-0.22,0.24-0.25
		C33.12,52.46,33.27,52.53,33.29,52.64"/>
	<path class="st22" d="M34.07,52.78c0.02,0.08-0.13,0.18-0.33,0.22c-0.2,0.04-0.37,0-0.39-0.09c-0.01-0.08,0.13-0.18,0.33-0.22
		C33.88,52.66,34.06,52.7,34.07,52.78"/>
	<path class="st22" d="M33.75,53.5c0.01,0.08-0.13,0.16-0.31,0.2c-0.19,0.03-0.35,0-0.36-0.07c-0.01-0.08,0.13-0.16,0.31-0.2
		C33.57,53.4,33.73,53.43,33.75,53.5"/>
	<path class="st22" d="M34.94,53.48c0.02,0.09-0.08,0.18-0.22,0.21c-0.13,0.02-0.26-0.03-0.28-0.12c-0.02-0.09,0.08-0.18,0.22-0.21
		C34.8,53.34,34.92,53.39,34.94,53.48"/>
	<path class="st22" d="M36.31,52.57c0.02,0.12-0.09,0.24-0.25,0.26c-0.16,0.03-0.3-0.04-0.33-0.16c-0.02-0.12,0.09-0.23,0.25-0.26
		C36.14,52.38,36.29,52.45,36.31,52.57"/>
	<path class="st21" d="M38.28,53.07c0.36,0.18,0.83,0.47,0.71,0.77c-0.12,0.31-0.21,0.41-0.71,0.1c-0.51-0.31-1.92-2-2.32-3.34"/>
	<path class="st21" d="M38.64,54.24c0.04,0.24-0.11,0.96-0.73,0.64c-0.63-0.32-1.47-1.9-1.51-2.19"/>
	<path class="st21" d="M35.37,51.46c0,0,1.28,3.18,1.54,3.42c0.26,0.25,0.9,1.11,1.33,0.43"/>
	<path class="st21" d="M34.99,53.59c0,0,1.37,1.98,1.62,2.11c0.26,0.13,0.79,0.54,1.15,0.21"/>
	<path class="st21" d="M33.33,52.79c0,0,1.92,2.26,2.28,2.22c0.37-0.04,0.51-0.07,0.77-0.22c0.26-0.15,0.61-0.37,0.86-0.38"/>
	<path class="st21" d="M34.03,52.87c0,0,0.55,2.03,0.91,2.36c0.36,0.33,0.76,0.44,1.45,0.25"/>
	<path class="st21" d="M33.78,53.6c0,0,1.67,1.55,2.13,1.89c0.46,0.34,0.9,0.69,1.32,0.59"/>
	<path class="st22" d="M36.4,50.56c0.02,0.11-0.13,0.24-0.35,0.28c-0.21,0.04-0.4-0.02-0.42-0.13c-0.02-0.11,0.13-0.24,0.35-0.28
		C36.19,50.38,36.38,50.44,36.4,50.56"/>
	<path class="st22" d="M35.79,51.32c0.02,0.09-0.2,0.21-0.48,0.26c-0.28,0.05-0.52,0.02-0.54-0.07c-0.02-0.09,0.2-0.21,0.48-0.26
		C35.53,51.2,35.77,51.23,35.79,51.32"/>
	<path class="st22" d="M33.64,52.61c0.02,0.11-0.09,0.22-0.24,0.25c-0.15,0.03-0.3-0.04-0.32-0.15c-0.02-0.11,0.09-0.22,0.24-0.25
		C33.48,52.44,33.62,52.5,33.64,52.61"/>
	<path class="st22" d="M34.43,52.76c0.02,0.08-0.13,0.18-0.33,0.22c-0.2,0.04-0.37,0-0.39-0.09c-0.02-0.08,0.13-0.18,0.33-0.22
		C34.24,52.64,34.41,52.68,34.43,52.76"/>
	<path class="st22" d="M34.1,53.48c0.01,0.08-0.13,0.16-0.31,0.2c-0.19,0.03-0.35,0-0.36-0.07c-0.01-0.08,0.13-0.16,0.31-0.2
		C33.92,53.37,34.09,53.4,34.1,53.48"/>
	<path class="st22" d="M35.29,53.45c0.02,0.09-0.08,0.18-0.22,0.21c-0.14,0.02-0.26-0.03-0.28-0.12c-0.02-0.09,0.08-0.18,0.22-0.21
		C35.16,53.31,35.28,53.36,35.29,53.45"/>
	<path class="st22" d="M36.66,52.55c0.02,0.12-0.09,0.24-0.25,0.26c-0.16,0.03-0.3-0.04-0.33-0.16c-0.02-0.12,0.09-0.24,0.25-0.26
		C36.5,52.36,36.64,52.43,36.66,52.55"/>
	<path class="st23" d="M37.23,52.74c0.35,0.18,0.83,0.47,0.71,0.77c-0.12,0.31-0.21,0.41-0.71,0.1c-0.51-0.3-1.92-2-2.32-3.34"/>
	<path class="st23" d="M37.58,53.91c0.04,0.24-0.11,0.96-0.73,0.64c-0.63-0.32-1.47-1.9-1.51-2.19"/>
	<path class="st23" d="M34.32,51.12c0,0,1.28,3.18,1.54,3.42c0.26,0.25,0.9,1.11,1.33,0.43"/>
	<path class="st23" d="M33.93,53.25c0,0,1.37,1.98,1.62,2.11c0.26,0.13,0.79,0.54,1.15,0.21"/>
	<path class="st23" d="M32.27,52.45c0,0,1.92,2.26,2.29,2.22c0.37-0.04,0.51-0.07,0.77-0.22c0.26-0.15,0.61-0.37,0.86-0.38"/>
	<path class="st23" d="M32.98,52.53c0,0,0.55,2.03,0.91,2.36c0.36,0.33,0.76,0.44,1.45,0.25"/>
	<path class="st23" d="M32.73,53.27c0,0,1.67,1.55,2.13,1.89c0.46,0.34,0.9,0.69,1.32,0.59"/>
	<path class="st24" d="M35.35,50.22c0.02,0.11-0.14,0.24-0.35,0.28c-0.21,0.04-0.4-0.02-0.42-0.13c-0.02-0.11,0.13-0.24,0.35-0.28
		C35.14,50.04,35.33,50.1,35.35,50.22"/>
	<path class="st24" d="M34.73,50.99c0.02,0.09-0.2,0.21-0.48,0.26c-0.28,0.05-0.53,0.02-0.54-0.07c-0.02-0.09,0.2-0.21,0.48-0.26
		C34.47,50.86,34.71,50.89,34.73,50.99"/>
	<path class="st24" d="M32.59,52.27c0.02,0.11-0.09,0.22-0.24,0.25c-0.15,0.03-0.3-0.04-0.32-0.15c-0.02-0.11,0.09-0.22,0.24-0.25
		C32.42,52.1,32.57,52.16,32.59,52.27"/>
	<path class="st24" d="M33.37,52.42c0.02,0.08-0.13,0.18-0.33,0.22c-0.2,0.04-0.37,0-0.39-0.09c-0.01-0.08,0.13-0.18,0.33-0.22
		C33.18,52.3,33.36,52.34,33.37,52.42"/>
	<path class="st24" d="M33.05,53.14c0.01,0.08-0.13,0.16-0.31,0.2c-0.19,0.03-0.35,0-0.36-0.07c-0.01-0.08,0.13-0.16,0.31-0.2
		C32.87,53.03,33.03,53.07,33.05,53.14"/>
	<path class="st24" d="M34.24,53.12c0.02,0.09-0.08,0.18-0.22,0.21c-0.13,0.02-0.26-0.03-0.28-0.12c-0.02-0.09,0.08-0.18,0.22-0.21
		C34.1,52.97,34.22,53.03,34.24,53.12"/>
	<path class="st24" d="M35.61,52.21c0.02,0.12-0.09,0.24-0.25,0.26c-0.16,0.03-0.3-0.04-0.33-0.16c-0.02-0.12,0.09-0.23,0.25-0.26
		C35.44,52.02,35.59,52.09,35.61,52.21"/>
	<path class="st23" d="M37.98,53.09c0.36,0.18,0.83,0.46,0.71,0.77c-0.12,0.3-0.21,0.41-0.71,0.1c-0.51-0.31-1.92-2-2.32-3.34"/>
	<path class="st23" d="M38.34,54.26c0.04,0.24-0.11,0.96-0.73,0.64c-0.63-0.32-1.47-1.91-1.51-2.19"/>
	<path class="st23" d="M35.08,51.47c0,0,1.28,3.18,1.54,3.42c0.26,0.25,0.9,1.11,1.33,0.43"/>
	<path class="st23" d="M34.69,53.6c0,0,1.37,1.98,1.62,2.11c0.26,0.13,0.79,0.54,1.15,0.21"/>
	<path class="st23" d="M33.03,52.8c0,0,1.92,2.26,2.28,2.22c0.37-0.04,0.51-0.07,0.77-0.22c0.26-0.15,0.61-0.37,0.86-0.38"/>
	<path class="st23" d="M33.74,52.89c0,0,0.55,2.03,0.91,2.36c0.36,0.33,0.76,0.44,1.45,0.25"/>
	<path class="st23" d="M33.49,53.62c0,0,1.67,1.55,2.13,1.89c0.46,0.34,0.9,0.69,1.32,0.59"/>
	<path class="st24" d="M36.11,50.57c0.02,0.11-0.13,0.24-0.35,0.28c-0.21,0.04-0.4-0.02-0.42-0.13c-0.02-0.11,0.13-0.24,0.35-0.28
		C35.9,50.4,36.09,50.46,36.11,50.57"/>
	<path class="st24" d="M35.49,51.34c0.02,0.09-0.2,0.21-0.48,0.26c-0.28,0.05-0.52,0.02-0.54-0.07c-0.02-0.09,0.2-0.21,0.48-0.26
		C35.23,51.21,35.47,51.24,35.49,51.34"/>
	<path class="st24" d="M33.34,52.63c0.02,0.11-0.09,0.22-0.24,0.25c-0.15,0.03-0.3-0.04-0.32-0.15c-0.02-0.11,0.09-0.22,0.24-0.25
		C33.18,52.45,33.32,52.52,33.34,52.63"/>
	<path class="st24" d="M34.13,52.77c0.02,0.08-0.13,0.18-0.33,0.22c-0.2,0.04-0.37,0-0.39-0.09c-0.02-0.08,0.13-0.18,0.33-0.22
		C33.94,52.65,34.12,52.69,34.13,52.77"/>
	<path class="st24" d="M33.8,53.49c0.01,0.08-0.13,0.16-0.31,0.2c-0.19,0.03-0.35,0-0.36-0.07c-0.01-0.07,0.13-0.16,0.31-0.2
		C33.63,53.38,33.79,53.42,33.8,53.49"/>
	<path class="st24" d="M35,53.47c0.02,0.09-0.08,0.18-0.22,0.21c-0.14,0.02-0.26-0.03-0.28-0.12s0.08-0.18,0.22-0.21
		C34.86,53.33,34.98,53.38,35,53.47"/>
	<path class="st24" d="M36.37,52.56c0.02,0.12-0.09,0.24-0.25,0.26c-0.16,0.03-0.3-0.04-0.32-0.16c-0.02-0.12,0.09-0.23,0.25-0.26
		C36.2,52.37,36.35,52.44,36.37,52.56"/>
	<path class="st12" d="M46.69,67.43c1.11-1.63,3.23-3.12,4.83-3.05c1.6,0.08,4.9,1.04,7.21,3.05c2.3,2.01,3.79,4.79,3.83,5.13
		c0.04,0.33-0.59,2.68-0.59,2.68l-1.5-0.27c0,0-3.86-2.27-5.57-3.38c-1.71-1.11-6.02-2.67-6.5-2.75c-0.48-0.07-0.63-0.26-0.93-0.22
		c-0.3,0.04-0.67,0.04-0.78-0.07C46.58,68.44,46.69,67.43,46.69,67.43"/>
	<path class="st13" d="M66.83,66.24c0.07-0.15,2.67-2.3,3.01-2.53c0.34-0.22,2.27-1.26,2.38-1.26s0.52,0.04,1.08,0
		s1.04-0.07,1.41,0.22c0.37,0.3,0.89,0.63,1.26,1.08c0.37,0.45,0.45,0.97,0.45,1.26c0,0.3-0.33,1.04-0.33,1.04l-1.6,1.89
		c0,0-1.26,1.72-1.71,1.86c-0.45,0.14-3.75,2.04-3.75,2.04l-2.86,1.75l-1.78-0.26l-1.82-2.93l1.11-2.39L66.83,66.24z"/>
	<path class="st14" d="M63.76,55.41c0.96-0.1,3.22,1.75,3.96,4.92c0.73,3.17,0.57,9.5-1.64,12.5c-2.21,3-3.28,3.39-3.28,3.39
		s-3.22-3.73-3.96-5.43c-0.74-1.7-1.41-8.6-0.23-10.97C59.8,57.45,62.68,55.52,63.76,55.41"/>
	<path class="st15" d="M64.86,74.79c0,0,2.12,2.9,2.9,4.38c0.78,1.49,2.01,7.13,1.6,8.62c-0.41,1.49-1.11,2.71-1.71,2.97
		c-0.59,0.26-1.19,0.26-1.71,0.26c-0.52,0-0.93-0.19-1.3-0.59c-0.37-0.41-0.63-2.34-0.93-3.12c-0.3-0.78-0.89-5.61-1.15-6.09
		c-0.26-0.48-0.52-1.63-0.41-2.12c0.11-0.48-0.3-2.39-0.03-2.87c0.27-0.47,1.18-0.99,1.18-0.99L64.86,74.79z"/>
	<path class="st16" d="M62.56,71.82c0,0,4.38-1.82,6.24-2.15c1.86-0.33,2.97-0.71,6.5,0.56c3.53,1.26,5.65,3.16,6.5,4.09
		c0.85,0.93,1.89,3.42,2.15,3.86c0.26,0.45,0.3,0.85,0,1.11c-0.3,0.26-1.86,0.74-3.05,1.04c-1.18,0.3-5.94,0.48-6.5,0.41
		c-0.56-0.07-4.61-0.48-5.35-0.74c-0.74-0.26-3.33-1.63-3.33-1.63l-2.28-1.6l-0.89-1.51c0,0-0.54-0.57-0.53-1.12
		C62.03,73.56,62.56,71.82,62.56,71.82"/>
	<path class="st17" d="M62.03,73.56c0,0-2.61-2.08-4.07-2.23c-1.46-0.15-4.84,1.26-5.62,1.93c-0.78,0.67-3.23,4.64-3.79,5.31
		c-0.56,0.67-0.59,2.49-0.78,3.16c-0.19,0.67-0.22,1.23,0.48,1.23c0.71,0,1.52-0.15,2.38,0c0.86,0.15,1.78,0,2.93,0
		s4.72-1.11,5.28-1.41c0.56-0.3,1.52-1.11,2.04-1.19c0.52-0.07,1.04-0.11,1.15-0.19c0.11-0.07,0.66-0.15,1-0.85
		c0.34-0.71,1-2.04,0.86-2.68C63.74,76.01,62.03,73.56,62.03,73.56"/>
	<path class="st25" d="M63.15,57.76c0,0,0.55,6.56,0.51,7.2s-0.2,0.75-0.26,1.18c-0.06,0.44-0.29,2.29,0,2.63
		c0.3,0.34,0.65-1.18,0.65-1.18s-0.36-2.27,0.24-2.55c0.59-0.28,0.24-0.32,1.62-0.32c1.38,0,2.13-0.08,2.13-0.08v2.33
		c0,0-0.2,1.23,0,1.54c0.2,0.32,0.36-0.63,0.55-1.19s0.44-1.5,1.15-1.98c0.71-0.47,1.74-0.99,1.94-0.99s0,0.83,0,0.83l-1.42,1.78
		c0,0-0.79,0.2-0.83,0.81c-0.04,0.61-0.44,1.28,0.32,0.57c0.75-0.71,2.02-2.22,2.02-2.22s1.37-0.67,1.69-0.39
		c0.32,0.28-0.32,1.58-0.32,1.58l-1.5,0.95l-0.79,0.99l1.3-0.32l1.62-0.87c0,0,0.08,0.83-0.79,1.19c-0.87,0.36-2.41,0.59-2.1,1.23
		c0.32,0.63,0.32,0.51,0.51,0.83s0.32,0.67-0.32,0.83c-0.63,0.16-1.74-0.08-0.87,0.47c0.87,0.55,1.27,0.49,1.78,0.66
		c0.51,0.17,1.46,0.36,0.63,0.68c-0.83,0.32-0.79,0.36-1.58,0.4c-0.79,0.04,1.07,0,1.07,0l2.69,0.47c0,0,1.27,0.62,1.5,0.61
		c0.24-0.01,1.03-0.09,0.24-0.01c-0.79,0.08-3.16-0.36-3.16-0.36s-2.41-0.28-2.93-0.24c-0.51,0.04-1.94-0.08-1.58,0.32
		c0.36,0.4,0.91,0.43,1.54,0.41c0.63-0.02,4.03,0.38,4.03,0.38s3.24,0.75,4.03,1.11c0.79,0.36,1.66,1.07,1.66,1.07l-1.82-0.2
		l-4.86-1.58c0,0-4.7-0.24-5.02-0.24c-0.32,0-1.07-0.24-1.46,0c-0.4,0.24-0.2,1.3-0.2,1.3l1.78,1.27l2.06,0.28l3.4,0.99l2.17,0.24
		l-0.91,0.2l-2.45-0.36l-2.53-0.36l-3.24-0.95c0,0-0.71-1.03-1.19-0.83c-0.47,0.2-0.79,0.16-0.83,0.67
		c-0.04,0.51,0.04,0.87,0.04,0.87l-0.32,0.32l-0.36-1.03l-0.51,0.28l0.2,0.87l0.2,0.79c0,0-0.59-0.04-0.63-0.71
		c-0.04-0.67,0-1.07,0-1.07h-0.51c0,0,0.12,0.67-0.16,0.59c-0.28-0.08-0.24-0.59-0.24-0.59l-0.28-0.63c0,0-0.2,0.47-0.48,0
		c-0.28-0.47-0.2-0.83-0.2-0.83l-0.95-0.87l-1.94,1.19l-4.27,2.41l-2.73,1.42l-1.46,0.32l-0.2-0.43l3.8-1.82
		c0,0,3.76-2.21,5.06-2.77c1.3-0.55,1.5-1.41,1.5-1.41l-0.71-0.88l-4.9,1.19l-2.69,1.19l2.69-2.89l3.04-1.42l0.71-0.75
		c0,0-2.01-1.19-2.88-1.5c-0.87-0.32-4.27-1.34-4.27-1.34l-2.53-0.75L50.23,68l4.47,1.23l3.2,1.03l0.12-0.99l-1.9-1.68l-2.85-0.93
		l1.74-0.2l3.52,1.62l1.66-0.75c0,0-0.51-2.41,0.16-3.24c0.67-0.83,0.87-0.96,1.34-0.22c0.47,0.74,1.07,0.74,1.07,0.74l0.2-1.74
		c0,0,0.08-1.66,0.12-1.78C63.12,60.96,63.15,58.39,63.15,57.76"/>
	<path class="st19" d="M68.59,71.25c0.2,0.08-0.96,1.28-0.86,2.07c0.1,0.79-0.01,1.33-0.01,1.33s-0.76,0.74-1.2,1.38
		c-0.44,0.64-0.36,0.86-0.76,1.06c-0.4,0.2-1.08,0.3-1.08,0.3l-1.32-0.36l-1.3-0.82c0,0-1.26-1.76-1.42-2.54
		c-0.16-0.78-0.66-1.36-0.66-1.36l-0.26-0.54v-2.66l1.08,0.19l0.78-1.77c0,0,0.56-0.76,2.18-0.38c1.62,0.38,2,0.38,2.66,0.6
		c0.66,0.22,0.74,0.18,0.92,0.64c0.18,0.46,0.54,0.82,0.54,0.82l1.12-0.1l-0.14,0.96l0.5,0.73c0,0,0.2-0.13,0.38,0
		c0.18,0.13,0.12,0.77,0.12,0.77"/>
	<path class="st20" d="M66.48,72.12c0.06,0.06,0.16,0.1,0.26,0.12c0.3,0.07,0.62,0.08,0.15,0.74c-0.62,0.89-0.77,1.61-1.23,1.71
		c-0.46,0.1-0.82-0.05-1.54,0c-0.72,0.05-1.9-0.36-1.9-0.36l-0.62-1.47c0,0-0.05-0.89,0.31-1.46c0.36-0.57,0.1-0.88,0.87-0.7
		c0.77,0.18,0.95,0.44,1.58,0.39c0.63-0.05,1.3,0.15,1.3,0.15l0.26,0.82"/>
	<path class="st21" d="M62.62,71.68c-0.32,0.24-0.73,0.61-0.56,0.89c0.18,0.28,0.28,0.37,0.72-0.03c0.44-0.39,1.53-2.32,1.68-3.71"
		/>
	<path class="st21" d="M62.48,72.89c0,0.24,0.28,0.92,0.84,0.49c0.56-0.43,1.1-2.14,1.09-2.43"/>
	<path class="st21" d="M65.19,69.57c0,0-0.68,3.35-0.9,3.65c-0.22,0.29-0.68,1.25-1.23,0.66"/>
	<path class="st21" d="M65.95,71.59c0,0-0.99,2.19-1.22,2.37c-0.23,0.18-0.68,0.67-1.09,0.42"/>
	<path class="st21" d="M67.45,70.5c0,0-1.48,2.57-1.85,2.59c-0.37,0.02-0.52,0.02-0.8-0.08c-0.28-0.1-0.67-0.25-0.91-0.21"/>
	<path class="st21" d="M66.76,70.71c0,0-0.18,2.09-0.47,2.48c-0.29,0.39-0.67,0.57-1.38,0.5"/>
	<path class="st21" d="M67.14,71.39c0,0-1.37,1.82-1.76,2.24c-0.39,0.42-0.76,0.84-1.19,0.82"/>
	<path class="st22" d="M64.02,68.86c0,0.12,0.18,0.21,0.39,0.21c0.22,0,0.39-0.09,0.39-0.21c0-0.12-0.17-0.21-0.39-0.21
		C64.19,68.65,64.02,68.75,64.02,68.86"/>
	<path class="st22" d="M64.76,69.51c0,0.1,0.23,0.17,0.52,0.17c0.29,0,0.52-0.08,0.52-0.17c0-0.09-0.23-0.17-0.52-0.17
		C64.99,69.34,64.76,69.41,64.76,69.51"/>
	<path class="st22" d="M67.1,70.39c0,0.11,0.13,0.2,0.28,0.2c0.16,0,0.28-0.09,0.28-0.2c0-0.11-0.13-0.2-0.28-0.2
		C67.23,70.18,67.1,70.28,67.1,70.39"/>
	<path class="st22" d="M66.36,70.67c0,0.09,0.16,0.16,0.37,0.16c0.2,0,0.37-0.07,0.37-0.16c0-0.09-0.16-0.15-0.37-0.15
		C66.52,70.52,66.36,70.59,66.36,70.67"/>
	<path class="st22" d="M66.81,71.32c0,0.08,0.15,0.14,0.34,0.14c0.19,0,0.34-0.06,0.34-0.14c0-0.08-0.16-0.14-0.34-0.14
		C66.96,71.18,66.81,71.25,66.81,71.32"/>
	<path class="st22" d="M65.63,71.51c0,0.09,0.11,0.16,0.25,0.16c0.14,0,0.25-0.07,0.25-0.16c0-0.09-0.11-0.16-0.25-0.16
		C65.74,71.35,65.63,71.42,65.63,71.51"/>
	<path class="st22" d="M64.12,70.87c0,0.12,0.13,0.22,0.29,0.22c0.16,0,0.29-0.1,0.29-0.22c0-0.12-0.13-0.22-0.29-0.22
		C64.25,70.65,64.12,70.75,64.12,70.87"/>
	<path class="st21" d="M62.25,71.72c-0.32,0.24-0.73,0.61-0.56,0.89c0.18,0.28,0.28,0.37,0.72-0.03c0.44-0.39,1.53-2.32,1.68-3.71"
		/>
	<path class="st21" d="M62.11,72.93c0,0.24,0.28,0.92,0.84,0.49c0.56-0.43,1.1-2.14,1.09-2.43"/>
	<path class="st21" d="M64.82,69.61c0,0-0.68,3.35-0.9,3.65c-0.22,0.29-0.68,1.25-1.23,0.66"/>
	<path class="st21" d="M65.57,71.63c0,0-0.99,2.19-1.21,2.37c-0.23,0.18-0.68,0.67-1.09,0.42"/>
	<path class="st21" d="M67.07,70.54c0,0-1.48,2.57-1.85,2.59c-0.37,0.02-0.52,0.02-0.8-0.08c-0.28-0.1-0.67-0.25-0.91-0.21"/>
	<path class="st21" d="M66.38,70.75c0,0-0.18,2.09-0.47,2.48c-0.29,0.39-0.67,0.57-1.38,0.51"/>
	<path class="st21" d="M66.77,71.43c0,0-1.37,1.82-1.76,2.24c-0.39,0.42-0.76,0.84-1.19,0.82"/>
	<path class="st22" d="M63.64,68.9c0,0.11,0.18,0.21,0.39,0.21s0.39-0.09,0.39-0.21c0-0.12-0.18-0.21-0.39-0.21
		S63.64,68.79,63.64,68.9"/>
	<path class="st22" d="M64.38,69.55c0,0.09,0.23,0.17,0.52,0.17s0.52-0.08,0.52-0.17c0-0.09-0.23-0.17-0.52-0.17
		S64.38,69.45,64.38,69.55"/>
	<path class="st22" d="M66.73,70.43c0,0.11,0.13,0.2,0.28,0.2c0.16,0,0.28-0.09,0.28-0.2c0-0.11-0.13-0.2-0.28-0.2
		C66.85,70.22,66.73,70.31,66.73,70.43"/>
	<path class="st22" d="M65.98,70.72c0,0.09,0.16,0.15,0.37,0.15c0.2,0,0.37-0.07,0.37-0.15c0-0.09-0.16-0.16-0.37-0.16
		C66.14,70.56,65.98,70.63,65.98,70.72"/>
	<path class="st22" d="M66.43,71.36c0,0.08,0.15,0.14,0.34,0.14c0.19,0,0.34-0.06,0.34-0.14c0-0.08-0.15-0.14-0.34-0.14
		C66.58,71.22,66.43,71.29,66.43,71.36"/>
	<path class="st22" d="M65.25,71.55c0,0.09,0.11,0.16,0.25,0.16c0.14,0,0.25-0.07,0.25-0.16c0-0.09-0.11-0.16-0.25-0.16
		C65.36,71.39,65.25,71.46,65.25,71.55"/>
	<path class="st22" d="M63.74,70.91c0,0.12,0.13,0.22,0.29,0.22c0.16,0,0.29-0.1,0.29-0.22c0-0.12-0.13-0.22-0.29-0.22
		C63.87,70.69,63.74,70.79,63.74,70.91"/>
	<path class="st21" d="M61.89,71.76c-0.32,0.24-0.73,0.61-0.56,0.89c0.18,0.28,0.28,0.37,0.72-0.03c0.44-0.39,1.53-2.32,1.68-3.71"
		/>
	<path class="st21" d="M61.75,72.97c0,0.24,0.28,0.92,0.84,0.49c0.56-0.43,1.1-2.14,1.09-2.43"/>
	<path class="st21" d="M64.46,69.65c0,0-0.68,3.35-0.9,3.65c-0.22,0.29-0.68,1.25-1.23,0.66"/>
	<path class="st21" d="M65.22,71.67c0,0-0.99,2.19-1.21,2.37c-0.23,0.18-0.68,0.67-1.09,0.42"/>
	<path class="st21" d="M66.71,70.58c0,0-1.48,2.57-1.85,2.59c-0.37,0.02-0.52,0.02-0.8-0.08c-0.28-0.1-0.67-0.25-0.91-0.21"/>
	<path class="st21" d="M66.03,70.79c0,0-0.18,2.09-0.47,2.48c-0.29,0.39-0.67,0.57-1.38,0.5"/>
	<path class="st21" d="M66.41,71.47c0,0-1.37,1.82-1.76,2.24c-0.39,0.42-0.76,0.84-1.19,0.82"/>
	<path class="st22" d="M63.28,68.94c0,0.12,0.18,0.21,0.39,0.21c0.22,0,0.39-0.09,0.39-0.21c0-0.11-0.18-0.21-0.39-0.21
		C63.46,68.73,63.28,68.83,63.28,68.94"/>
	<path class="st22" d="M64.03,69.59c0,0.1,0.23,0.17,0.52,0.17s0.52-0.08,0.52-0.17c0-0.09-0.23-0.17-0.52-0.17
		S64.03,69.49,64.03,69.59"/>
	<path class="st22" d="M66.37,70.47c0,0.11,0.13,0.2,0.28,0.2c0.16,0,0.28-0.09,0.28-0.2c0-0.11-0.13-0.2-0.28-0.2
		C66.5,70.27,66.37,70.36,66.37,70.47"/>
	<path class="st22" d="M65.63,70.75c0,0.09,0.16,0.16,0.37,0.16c0.2,0,0.37-0.07,0.37-0.16c0-0.09-0.16-0.15-0.37-0.15
		C65.79,70.6,65.63,70.67,65.63,70.75"/>
	<path class="st22" d="M66.08,71.4c0,0.08,0.15,0.14,0.34,0.14c0.19,0,0.34-0.06,0.34-0.14c0-0.08-0.15-0.14-0.34-0.14
		C66.23,71.26,66.08,71.33,66.08,71.4"/>
	<path class="st22" d="M64.9,71.59c0,0.09,0.11,0.16,0.25,0.16c0.14,0,0.25-0.07,0.25-0.16c0-0.09-0.11-0.16-0.25-0.16
		C65.01,71.43,64.9,71.5,64.9,71.59"/>
	<path class="st22" d="M63.39,70.95c0,0.12,0.13,0.22,0.29,0.22c0.16,0,0.29-0.1,0.29-0.22c0-0.12-0.13-0.22-0.29-0.22
		C63.52,70.73,63.39,70.83,63.39,70.95"/>
	<path class="st23" d="M62.87,71.24c-0.32,0.24-0.73,0.61-0.56,0.89c0.18,0.28,0.28,0.37,0.72-0.03c0.44-0.39,1.53-2.32,1.68-3.71"
		/>
	<path class="st23" d="M62.73,72.45c0,0.24,0.28,0.92,0.84,0.49c0.56-0.43,1.1-2.14,1.09-2.43"/>
	<path class="st23" d="M65.44,69.12c0,0-0.68,3.35-0.9,3.65c-0.22,0.29-0.68,1.25-1.23,0.66"/>
	<path class="st23" d="M66.2,71.15c0,0-0.99,2.19-1.22,2.37c-0.23,0.18-0.68,0.67-1.09,0.42"/>
	<path class="st23" d="M67.69,70.06c0,0-1.48,2.57-1.85,2.59c-0.37,0.02-0.52,0.02-0.8-0.08c-0.28-0.1-0.67-0.25-0.91-0.21"/>
	<path class="st23" d="M67.01,70.27c0,0-0.18,2.09-0.47,2.48c-0.29,0.39-0.67,0.57-1.38,0.5"/>
	<path class="st23" d="M67.39,70.95c0,0-1.37,1.82-1.76,2.24c-0.39,0.42-0.76,0.84-1.19,0.82"/>
	<path class="st24" d="M64.26,68.42c0,0.12,0.18,0.21,0.39,0.21c0.22,0,0.39-0.09,0.39-0.21c0-0.12-0.17-0.21-0.39-0.21
		C64.44,68.21,64.26,68.3,64.26,68.42"/>
	<path class="st24" d="M65.01,69.06c0,0.1,0.23,0.17,0.52,0.17s0.52-0.08,0.52-0.17c0-0.09-0.23-0.17-0.52-0.17
		S65.01,68.97,65.01,69.06"/>
	<path class="st24" d="M67.35,69.94c0,0.11,0.13,0.2,0.28,0.2c0.16,0,0.28-0.09,0.28-0.2c0-0.11-0.13-0.2-0.28-0.2
		C67.48,69.74,67.35,69.83,67.35,69.94"/>
	<path class="st24" d="M66.6,70.23c0,0.09,0.16,0.16,0.37,0.16c0.2,0,0.37-0.07,0.37-0.16c0-0.09-0.16-0.15-0.37-0.15
		C66.77,70.08,66.6,70.15,66.6,70.23"/>
	<path class="st24" d="M67.05,70.88c0,0.08,0.15,0.14,0.34,0.14c0.19,0,0.34-0.06,0.34-0.14c0-0.08-0.15-0.14-0.34-0.14
		C67.21,70.74,67.05,70.8,67.05,70.88"/>
	<path class="st24" d="M65.87,71.07c0,0.09,0.11,0.16,0.25,0.16c0.14,0,0.25-0.07,0.25-0.16c0-0.09-0.11-0.16-0.25-0.16
		C65.99,70.91,65.87,70.98,65.87,71.07"/>
	<path class="st24" d="M64.36,70.43c0,0.12,0.13,0.22,0.29,0.22c0.16,0,0.29-0.1,0.29-0.22s-0.13-0.22-0.29-0.22
		C64.49,70.21,64.36,70.31,64.36,70.43"/>
	<path class="st23" d="M62.19,71.72c-0.32,0.24-0.73,0.61-0.56,0.89c0.18,0.28,0.28,0.37,0.72-0.03c0.44-0.39,1.53-2.32,1.68-3.71"
		/>
	<path class="st23" d="M62.05,72.93c0,0.24,0.28,0.92,0.84,0.49s1.1-2.14,1.09-2.43"/>
	<path class="st23" d="M64.75,69.61c0,0-0.68,3.35-0.9,3.65c-0.22,0.29-0.68,1.25-1.23,0.66"/>
	<path class="st23" d="M65.51,71.63c0,0-0.99,2.19-1.22,2.37c-0.23,0.18-0.68,0.67-1.09,0.42"/>
	<path class="st23" d="M67.01,70.54c0,0-1.48,2.57-1.85,2.59c-0.37,0.02-0.52,0.02-0.8-0.08c-0.28-0.1-0.67-0.25-0.91-0.21"/>
	<path class="st23" d="M66.32,70.75c0,0-0.18,2.09-0.47,2.48c-0.29,0.39-0.67,0.57-1.38,0.5"/>
	<path class="st23" d="M66.7,71.43c0,0-1.37,1.82-1.76,2.24c-0.39,0.42-0.76,0.84-1.19,0.82"/>
	<path class="st24" d="M63.58,68.9c0,0.12,0.18,0.21,0.39,0.21c0.22,0,0.39-0.09,0.39-0.21c0-0.11-0.17-0.21-0.39-0.21
		C63.75,68.69,63.58,68.79,63.58,68.9"/>
	<path class="st24" d="M64.32,69.55c0,0.1,0.23,0.17,0.52,0.17c0.29,0,0.52-0.08,0.52-0.17c0-0.09-0.23-0.17-0.52-0.17
		C64.56,69.38,64.32,69.45,64.32,69.55"/>
	<path class="st24" d="M66.67,70.43c0,0.11,0.13,0.2,0.28,0.2c0.16,0,0.28-0.09,0.28-0.2c0-0.11-0.13-0.2-0.28-0.2
		C66.79,70.23,66.67,70.32,66.67,70.43"/>
	<path class="st24" d="M65.92,70.72c0,0.09,0.16,0.16,0.37,0.16c0.2,0,0.37-0.07,0.37-0.16c0-0.09-0.16-0.15-0.37-0.15
		C66.08,70.56,65.92,70.63,65.92,70.72"/>
	<path class="st24" d="M66.37,71.36c0,0.08,0.15,0.14,0.34,0.14c0.19,0,0.34-0.06,0.34-0.14c0-0.08-0.15-0.14-0.34-0.14
		C66.52,71.23,66.37,71.29,66.37,71.36"/>
	<path class="st24" d="M65.19,71.55c0,0.09,0.11,0.16,0.25,0.16c0.14,0,0.25-0.07,0.25-0.16c0-0.09-0.11-0.16-0.25-0.16
		C65.3,71.39,65.19,71.46,65.19,71.55"/>
	<path class="st24" d="M63.68,70.91c0,0.12,0.13,0.22,0.29,0.22c0.16,0,0.29-0.1,0.29-0.22c0-0.12-0.13-0.22-0.29-0.22
		C63.81,70.69,63.68,70.79,63.68,70.91"/>
	<path class="st12" d="M83.52,44.93c-0.11-1.98-1.16-4.34-2.56-5.1c-1.41-0.76-4.74-1.64-7.75-1.11c-3.01,0.53-5.72,2.15-5.92,2.42
		c-0.2,0.27-0.88,2.6-0.88,2.6l1.42,0.54c0,0,4.48,0.05,6.52-0.02c2.04-0.07,6.53,0.82,6.99,1c0.45,0.19,0.67,0.1,0.91,0.29
		c0.24,0.19,0.55,0.38,0.71,0.34C83.1,45.84,83.52,44.93,83.52,44.93"/>
	<path class="st13" d="M66.89,33.52c0.01-0.17-1.1-3.35-1.27-3.72c-0.17-0.36-1.29-2.25-1.38-2.31c-0.1-0.06-0.46-0.24-0.92-0.56
		c-0.46-0.32-0.85-0.6-1.32-0.54c-0.47,0.06-1.09,0.08-1.64,0.27c-0.55,0.19-0.88,0.6-1.03,0.85c-0.15,0.25-0.25,1.06-0.25,1.06
		l0.39,2.45c0,0,0.2,2.12,0.5,2.48c0.31,0.35,2.16,3.68,2.16,3.68l1.55,2.97l1.66,0.7l3.07-1.58l0.28-2.62L66.89,33.52z"/>
	<path class="st14" d="M75.12,25.82c-0.77-0.58-3.67-0.16-5.93,2.17c-2.27,2.33-5.39,7.85-5.05,11.55c0.34,3.71,1.06,4.6,1.06,4.6
		s4.69-1.53,6.19-2.61c1.51-1.07,5.65-6.63,5.86-9.28C77.46,29.61,75.98,26.48,75.12,25.82"/>
	<path class="st15" d="M64.17,41.85c0,0-3.31,1.39-4.74,2.26c-1.43,0.87-5.4,5.07-5.82,6.56c-0.42,1.48-0.45,2.9-0.07,3.43
		c0.37,0.53,0.88,0.84,1.33,1.1c0.45,0.27,0.89,0.32,1.42,0.16c0.53-0.16,1.75-1.68,2.41-2.19c0.66-0.51,3.66-4.35,4.13-4.62
		c0.47-0.28,1.29-1.13,1.44-1.6c0.15-0.47,1.49-1.9,1.5-2.44c0.01-0.55-0.5-1.45-0.5-1.45L64.17,41.85z"/>
	<path class="st16" d="M67.68,40.49c0,0-2.81-3.82-4.23-5.07c-1.42-1.25-2.18-2.14-5.86-2.88c-3.67-0.74-6.47-0.21-7.68,0.15
		c-1.21,0.35-3.39,1.95-3.84,2.2c-0.45,0.25-0.7,0.58-0.58,0.95c0.12,0.38,1.21,1.6,2.07,2.46c0.86,0.87,4.84,3.48,5.36,3.71
		c0.52,0.22,4.19,1.96,4.96,2.12c0.77,0.16,3.69,0.32,3.69,0.32l2.78-0.19l1.54-0.84c0,0,0.76-0.21,1.04-0.69
		C67.22,42.26,67.68,40.49,67.68,40.49"/>
	<path class="st17" d="M67.22,42.26c0,0,3.31-0.44,4.64,0.19c1.33,0.63,3.5,3.58,3.82,4.56c0.32,0.97,0.37,5.64,0.5,6.51
		c0.13,0.86-0.78,2.44-0.96,3.11c-0.19,0.67-0.44,1.16-1.05,0.8c-0.6-0.36-1.23-0.91-2.03-1.23c-0.81-0.31-1.53-0.92-2.51-1.51
		c-0.99-0.59-3.46-3.39-3.79-3.93c-0.32-0.54-0.73-1.74-1.14-2.07c-0.41-0.33-0.83-0.63-0.89-0.75c-0.06-0.12-0.49-0.47-0.42-1.25
		c0.08-0.78,0.19-2.27,0.65-2.73C64.49,43.48,67.22,42.26,67.22,42.26"/>
	<path class="st26" d="M74.42,28.14c0,0-3.86,5.34-4.15,5.9c-0.29,0.56-0.22,0.74-0.39,1.15c-0.17,0.41-0.93,2.11-1.36,2.25
		c-0.43,0.14,0.05-1.35,0.05-1.35s1.48-1.76,1.11-2.31c-0.37-0.54-0.04-0.39-1.23-1.11c-1.18-0.71-1.79-1.17-1.79-1.17l-1.2,2
		c0,0-0.46,1.15-0.8,1.32c-0.33,0.17,0.02-0.72,0.14-1.3c0.12-0.58,0.4-1.51,0.04-2.28c-0.36-0.77-0.98-1.74-1.15-1.85
		c-0.17-0.1-0.43,0.71-0.43,0.71l0.3,2.26c0,0,0.57,0.58,0.29,1.12c-0.28,0.54-0.29,1.32-0.57,0.33c-0.28-1-0.59-2.94-0.59-2.94
		s-0.83-1.28-1.25-1.21c-0.41,0.07-0.55,1.52-0.55,1.52l0.8,1.59l0.17,1.25l-0.95-0.94l-0.94-1.58c0,0-0.5,0.67,0.07,1.42
		c0.56,0.75,1.76,1.75,1.16,2.13c-0.6,0.38-0.54,0.28-0.87,0.45c-0.33,0.17-0.62,0.41-0.16,0.87c0.46,0.46,1.53,0.83,0.5,0.86
		c-1.03,0.02-1.34-0.23-1.87-0.35c-0.53-0.12-1.44-0.44-0.89,0.26c0.55,0.7,0.49,0.71,1.15,1.16c0.66,0.44-0.91-0.55-0.91-0.55
		l-2.55-0.98c0,0-1.4-0.12-1.6-0.26c-0.2-0.13-0.83-0.61-0.2-0.13c0.64,0.48,2.89,1.33,2.89,1.33s2.21,1.01,2.63,1.31
		c0.42,0.3,1.7,0.93,1.19,1.09c-0.51,0.15-1-0.1-1.53-0.44c-0.53-0.34-3.65-1.76-3.65-1.76s-3.16-1.03-4.03-1.13
		c-0.86-0.1-1.97,0.06-1.97,0.06l1.66,0.77l4.98,1.16c0,0,4.15,2.22,4.42,2.39c0.27,0.16,1.04,0.35,1.25,0.76
		c0.22,0.41-0.5,1.22-0.5,1.22l-2.18,0.17l-1.9-0.82l-3.42-0.91l-1.98-0.92l0.68,0.64l2.28,0.96l2.35,1l3.27,0.86
		c0,0,1.14-0.51,1.44-0.1c0.3,0.41,0.6,0.54,0.36,1c-0.23,0.46-0.48,0.72-0.48,0.72l0.11,0.44l0.84-0.7l0.3,0.5l-0.62,0.64
		l-0.58,0.57c0,0,0.53,0.27,0.91-0.28c0.38-0.55,0.55-0.91,0.55-0.91l0.44,0.27c0,0-0.45,0.51-0.17,0.59
		c0.28,0.08,0.51-0.39,0.51-0.39l0.56-0.4c0,0-0.08,0.51,0.41,0.25c0.48-0.26,0.6-0.61,0.6-0.61l1.26-0.26l1.05,2.02l2.41,4.27
		l1.6,2.63l1.09,1.03l0.39-0.27l-2.31-3.52c0,0-2.07-3.84-2.91-4.98c-0.83-1.15-0.56-1.98-0.56-1.98l1.06-0.39l3.59,3.55l1.69,2.4
		l-0.81-3.86l-1.87-2.79L70.9,42.5c0,0,2.33,0.02,3.24,0.2c0.91,0.18,4.35,1.05,4.35,1.05l2.56,0.66l-0.84-0.83l-4.46-1.26
		l-3.27-0.77l0.41-0.91l2.49-0.46l2.92,0.67l-1.39-1.07l-3.85-0.43l-1.03-1.5c0,0,1.68-1.8,1.54-2.86
		c-0.15-1.06-0.25-1.27-1.04-0.89c-0.79,0.39-1.29,0.08-1.29,0.08l0.73-1.59c0,0,0.79-1.46,0.82-1.58
		C72.8,30.91,74.09,28.68,74.42,28.14"/>
	<path class="st19" d="M62.8,36.89c-0.21-0.04,0.16,1.59-0.33,2.22c-0.49,0.63-0.68,1.14-0.68,1.14s0.26,1.02,0.31,1.8
		c0.05,0.78-0.14,0.92,0.1,1.3c0.24,0.38,0.77,0.82,0.77,0.82l1.32,0.37l1.54-0.03c0,0,1.99-0.86,2.53-1.44
		c0.54-0.59,1.27-0.82,1.27-0.82l0.5-0.33l1.37-2.28l-1.03-0.39l0.25-1.92c0,0-0.09-0.94-1.67-1.45c-1.58-0.51-1.91-0.71-2.59-0.86
		c-0.68-0.15-0.73-0.23-1.12,0.07c-0.39,0.3-0.89,0.42-0.89,0.42l-0.91-0.67l-0.38,0.9l-0.81,0.37c0,0-0.1-0.22-0.33-0.2
		c-0.22,0.02-0.5,0.6-0.5,0.6"/>
	<path class="st20" d="M64.16,38.72c-0.09,0.02-0.19,0-0.28-0.03c-0.29-0.09-0.57-0.25-0.51,0.56c0.07,1.08-0.17,1.78,0.17,2.1
		c0.34,0.33,0.73,0.38,1.32,0.8c0.59,0.42,1.82,0.67,1.82,0.67l1.29-0.94c0,0,0.51-0.74,0.49-1.41c-0.02-0.67,0.36-0.8-0.39-1.05
		c-0.76-0.24-1.04-0.12-1.56-0.49c-0.51-0.37-1.19-0.54-1.19-0.54l-0.65,0.57"/>
	<path class="st21" d="M67.69,40.34c0.15,0.37,0.32,0.9,0.02,1.05c-0.3,0.15-0.43,0.17-0.61-0.39c-0.18-0.57-0.12-2.77,0.47-4.05"/>
	<path class="st21" d="M67.18,41.45c-0.12,0.21-0.72,0.65-0.97-0.01c-0.25-0.66,0.16-2.4,0.32-2.64"/>
	<path class="st21" d="M66.58,37.2c0,0-1.15,3.23-1.11,3.59c0.03,0.36-0.06,1.43,0.71,1.2"/>
	<path class="st21" d="M64.88,38.55c0,0-0.29,2.38-0.18,2.65c0.1,0.27,0.24,0.93,0.72,0.92"/>
	<path class="st21" d="M64.17,36.84c0,0-0.06,2.96,0.24,3.18c0.3,0.21,0.43,0.29,0.72,0.34c0.29,0.06,0.7,0.13,0.89,0.29"/>
	<path class="st21" d="M64.64,37.38c0,0-0.93,1.88-0.88,2.37c0.05,0.49,0.28,0.83,0.92,1.14"/>
	<path class="st21" d="M63.97,37.76c0,0,0.23,2.27,0.35,2.83c0.12,0.56,0.22,1.11,0.6,1.31"/>
	<path class="st22" d="M67.95,37.21c-0.06,0.1-0.26,0.09-0.44-0.02c-0.19-0.11-0.29-0.28-0.23-0.38c0.06-0.1,0.26-0.09,0.44,0.02
		C67.91,36.94,68.01,37.11,67.95,37.21"/>
	<path class="st22" d="M66.98,37.38c-0.05,0.08-0.29,0.03-0.53-0.12c-0.25-0.15-0.4-0.33-0.36-0.41c0.05-0.08,0.29-0.03,0.53,0.12
		C66.87,37.11,67.03,37.3,66.98,37.38"/>
	<path class="st22" d="M64.52,36.92c-0.06,0.1-0.21,0.11-0.35,0.03c-0.13-0.08-0.2-0.22-0.14-0.32s0.21-0.11,0.35-0.03
		C64.51,36.68,64.58,36.83,64.52,36.92"/>
	<path class="st22" d="M65.01,37.55c-0.04,0.07-0.22,0.05-0.39-0.06c-0.17-0.1-0.28-0.25-0.23-0.32c0.04-0.07,0.22-0.05,0.39,0.06
		C64.95,37.34,65.05,37.48,65.01,37.55"/>
	<path class="st22" d="M64.29,37.88c-0.04,0.07-0.2,0.04-0.37-0.06c-0.16-0.1-0.26-0.23-0.22-0.3c0.04-0.06,0.2-0.04,0.37,0.06
		C64.23,37.68,64.33,37.81,64.29,37.88"/>
	<path class="st22" d="M65.2,38.65c-0.05,0.08-0.18,0.08-0.3,0.01c-0.12-0.07-0.18-0.19-0.13-0.27c0.05-0.08,0.18-0.08,0.3-0.01
		C65.19,38.45,65.25,38.57,65.2,38.65"/>
	<path class="st22" d="M66.83,38.88c-0.06,0.1-0.22,0.12-0.36,0.03c-0.14-0.08-0.2-0.23-0.14-0.33c0.06-0.1,0.22-0.12,0.36-0.03
		C66.83,38.62,66.89,38.77,66.83,38.88"/>
	<path class="st21" d="M67.99,40.57c0.15,0.37,0.31,0.9,0.02,1.05c-0.3,0.15-0.43,0.17-0.61-0.39c-0.18-0.57-0.12-2.77,0.47-4.05"/>
	<path class="st21" d="M67.48,41.68c-0.12,0.21-0.72,0.65-0.97-0.01c-0.25-0.66,0.16-2.4,0.32-2.64"/>
	<path class="st21" d="M66.88,37.43c0,0-1.15,3.23-1.11,3.59c0.03,0.36-0.06,1.43,0.71,1.2"/>
	<path class="st21" d="M65.19,38.78c0,0-0.29,2.38-0.18,2.65c0.1,0.27,0.24,0.93,0.72,0.92"/>
	<path class="st21" d="M64.47,37.07c0,0-0.06,2.96,0.24,3.18c0.3,0.21,0.43,0.29,0.72,0.34c0.29,0.06,0.7,0.13,0.89,0.29"/>
	<path class="st21" d="M64.95,37.61c0,0-0.93,1.88-0.88,2.37c0.05,0.49,0.28,0.83,0.92,1.14"/>
	<path class="st21" d="M64.27,37.99c0,0,0.23,2.27,0.35,2.83c0.12,0.56,0.22,1.11,0.6,1.31"/>
	<path class="st22" d="M68.25,37.44c-0.06,0.1-0.26,0.09-0.44-0.02c-0.19-0.11-0.29-0.28-0.23-0.38c0.06-0.1,0.26-0.09,0.44,0.02
		C68.21,37.17,68.31,37.34,68.25,37.44"/>
	<path class="st22" d="M67.28,37.61c-0.05,0.08-0.29,0.03-0.53-0.12c-0.25-0.15-0.4-0.33-0.36-0.41c0.05-0.08,0.29-0.03,0.53,0.12
		C67.17,37.34,67.33,37.53,67.28,37.61"/>
	<path class="st22" d="M64.82,37.15c-0.06,0.1-0.21,0.11-0.35,0.03c-0.13-0.08-0.2-0.22-0.14-0.32c0.06-0.09,0.21-0.11,0.35-0.03
		C64.82,36.91,64.88,37.06,64.82,37.15"/>
	<path class="st22" d="M65.31,37.78c-0.04,0.07-0.22,0.05-0.39-0.06c-0.17-0.1-0.28-0.25-0.23-0.32c0.04-0.07,0.22-0.05,0.39,0.06
		C65.25,37.57,65.36,37.71,65.31,37.78"/>
	<path class="st22" d="M64.59,38.1c-0.04,0.07-0.2,0.04-0.37-0.06c-0.16-0.1-0.26-0.23-0.22-0.3c0.04-0.06,0.2-0.04,0.37,0.06
		C64.53,37.91,64.63,38.04,64.59,38.1"/>
	<path class="st22" d="M65.5,38.88c-0.05,0.08-0.18,0.08-0.3,0.01c-0.12-0.07-0.18-0.19-0.13-0.27c0.05-0.08,0.18-0.08,0.3-0.01
		C65.49,38.68,65.55,38.8,65.5,38.88"/>
	<path class="st22" d="M67.13,39.11c-0.06,0.1-0.22,0.12-0.36,0.03c-0.14-0.08-0.2-0.23-0.14-0.33c0.06-0.1,0.22-0.12,0.36-0.03
		C67.13,38.85,67.19,39,67.13,39.11"/>
	<path class="st21" d="M68.27,40.79c0.15,0.37,0.31,0.9,0.02,1.05c-0.3,0.15-0.43,0.17-0.61-0.39c-0.18-0.57-0.12-2.77,0.47-4.05"/>
	<path class="st21" d="M67.77,41.9c-0.12,0.21-0.72,0.65-0.97-0.01c-0.26-0.66,0.16-2.4,0.32-2.64"/>
	<path class="st21" d="M67.16,37.65c0,0-1.15,3.23-1.11,3.59c0.03,0.36-0.06,1.43,0.71,1.2"/>
	<path class="st21" d="M65.47,38.99c0,0-0.29,2.39-0.18,2.65c0.1,0.27,0.24,0.93,0.72,0.92"/>
	<path class="st21" d="M64.75,37.29c0,0-0.06,2.96,0.24,3.18c0.3,0.21,0.43,0.28,0.72,0.34c0.29,0.06,0.7,0.13,0.89,0.29"/>
	<path class="st21" d="M65.23,37.82c0,0-0.93,1.88-0.88,2.37c0.05,0.49,0.28,0.83,0.92,1.14"/>
	<path class="st21" d="M64.55,38.21c0,0,0.23,2.27,0.35,2.83c0.12,0.56,0.22,1.11,0.6,1.31"/>
	<path class="st22" d="M68.54,37.66c-0.06,0.1-0.26,0.09-0.44-0.02c-0.19-0.11-0.29-0.28-0.23-0.38c0.06-0.1,0.26-0.09,0.44,0.02
		C68.49,37.39,68.59,37.56,68.54,37.66"/>
	<path class="st22" d="M67.56,37.82c-0.05,0.08-0.29,0.03-0.53-0.12c-0.25-0.15-0.4-0.33-0.36-0.41c0.05-0.08,0.29-0.03,0.53,0.12
		C67.45,37.56,67.61,37.74,67.56,37.82"/>
	<path class="st22" d="M65.1,37.37c-0.06,0.1-0.21,0.11-0.35,0.03c-0.14-0.08-0.2-0.22-0.14-0.32c0.06-0.1,0.21-0.11,0.35-0.03
		C65.1,37.13,65.16,37.27,65.1,37.37"/>
	<path class="st22" d="M65.6,38c-0.04,0.07-0.22,0.05-0.4-0.06c-0.17-0.1-0.28-0.25-0.23-0.32c0.04-0.07,0.22-0.05,0.39,0.06
		C65.53,37.78,65.64,37.93,65.6,38"/>
	<path class="st22" d="M64.87,38.32c-0.04,0.06-0.2,0.04-0.37-0.06s-0.26-0.23-0.22-0.3c0.04-0.07,0.2-0.04,0.37,0.06
		C64.81,38.12,64.91,38.26,64.87,38.32"/>
	<path class="st22" d="M65.79,39.09c-0.05,0.08-0.18,0.08-0.3,0.01c-0.12-0.07-0.18-0.19-0.13-0.27c0.05-0.08,0.18-0.08,0.3-0.01
		C65.77,38.9,65.83,39.02,65.79,39.09"/>
	<path class="st22" d="M67.41,39.32c-0.06,0.1-0.22,0.12-0.36,0.03c-0.14-0.08-0.2-0.23-0.14-0.33c0.06-0.1,0.22-0.12,0.36-0.03
		C67.41,39.07,67.47,39.22,67.41,39.32"/>
	<path class="st23" d="M67.71,39.83c0.15,0.37,0.32,0.9,0.02,1.05c-0.3,0.15-0.43,0.17-0.6-0.39c-0.18-0.57-0.12-2.77,0.47-4.05"/>
	<path class="st23" d="M67.2,40.95c-0.12,0.21-0.72,0.65-0.97-0.01c-0.26-0.66,0.16-2.4,0.32-2.64"/>
	<path class="st23" d="M66.6,36.7c0,0-1.15,3.23-1.11,3.59c0.03,0.36-0.06,1.43,0.71,1.2"/>
	<path class="st23" d="M64.9,38.04c0,0-0.28,2.39-0.18,2.65c0.1,0.27,0.24,0.93,0.72,0.92"/>
	<path class="st23" d="M64.18,36.34c0,0-0.06,2.96,0.24,3.18c0.3,0.21,0.43,0.29,0.72,0.34c0.29,0.06,0.7,0.13,0.89,0.29"/>
	<path class="st23" d="M64.66,36.87c0,0-0.93,1.88-0.88,2.37c0.05,0.49,0.28,0.83,0.92,1.14"/>
	<path class="st23" d="M63.99,37.25c0,0,0.23,2.27,0.35,2.83c0.12,0.56,0.22,1.11,0.6,1.31"/>
	<path class="st24" d="M67.97,36.7c-0.06,0.1-0.26,0.09-0.44-0.02c-0.19-0.11-0.29-0.28-0.23-0.38c0.06-0.1,0.26-0.09,0.44,0.02
		C67.93,36.43,68.03,36.61,67.97,36.7"/>
	<path class="st24" d="M67,36.87c-0.05,0.08-0.29,0.03-0.53-0.12c-0.25-0.15-0.4-0.33-0.36-0.41c0.05-0.08,0.29-0.03,0.53,0.12
		C66.89,36.61,67.05,36.79,67,36.87"/>
	<path class="st24" d="M64.54,36.42c-0.06,0.1-0.21,0.11-0.35,0.03c-0.13-0.08-0.2-0.22-0.14-0.32c0.06-0.09,0.21-0.11,0.35-0.03
		C64.53,36.18,64.59,36.32,64.54,36.42"/>
	<path class="st24" d="M65.03,37.05c-0.04,0.07-0.22,0.05-0.39-0.06c-0.17-0.1-0.28-0.25-0.23-0.32c0.04-0.07,0.22-0.05,0.39,0.06
		C64.97,36.83,65.07,36.97,65.03,37.05"/>
	<path class="st24" d="M64.31,37.37c-0.04,0.06-0.2,0.04-0.37-0.06c-0.16-0.1-0.26-0.23-0.22-0.3c0.04-0.06,0.2-0.04,0.37,0.06
		C64.25,37.17,64.35,37.31,64.31,37.37"/>
	<path class="st24" d="M65.22,38.14c-0.05,0.08-0.18,0.08-0.3,0.01c-0.12-0.07-0.18-0.19-0.13-0.27c0.05-0.08,0.18-0.08,0.3-0.01
		C65.21,37.94,65.27,38.06,65.22,38.14"/>
	<path class="st24" d="M66.85,38.37c-0.06,0.1-0.22,0.12-0.36,0.03c-0.14-0.08-0.2-0.23-0.14-0.33c0.06-0.1,0.22-0.12,0.36-0.04
		C66.85,38.12,66.91,38.27,66.85,38.37"/>
	<path class="st23" d="M68.04,40.6c0.15,0.37,0.31,0.9,0.02,1.05c-0.3,0.15-0.43,0.17-0.61-0.39c-0.18-0.57-0.12-2.77,0.47-4.05"/>
	<path class="st23" d="M67.54,41.71c-0.12,0.21-0.72,0.65-0.97-0.01c-0.25-0.66,0.16-2.4,0.32-2.64"/>
	<path class="st23" d="M66.93,37.47c0,0-1.15,3.23-1.11,3.59c0.03,0.36-0.06,1.43,0.71,1.2"/>
	<path class="st23" d="M65.24,38.81c0,0-0.29,2.39-0.18,2.65c0.1,0.27,0.24,0.93,0.72,0.92"/>
	<path class="st23" d="M64.52,37.1c0,0-0.06,2.96,0.24,3.18c0.3,0.21,0.43,0.29,0.72,0.34c0.29,0.06,0.7,0.13,0.89,0.29"/>
	<path class="st23" d="M65,37.64c0,0-0.93,1.88-0.88,2.37c0.05,0.49,0.28,0.83,0.92,1.14"/>
	<path class="st23" d="M64.32,38.02c0,0,0.23,2.27,0.35,2.83c0.12,0.56,0.22,1.11,0.6,1.31"/>
	<path class="st24" d="M68.3,37.47c-0.06,0.1-0.26,0.09-0.44-0.02c-0.19-0.11-0.29-0.28-0.23-0.38c0.06-0.1,0.26-0.09,0.44,0.02
		C68.26,37.2,68.36,37.37,68.3,37.47"/>
	<path class="st24" d="M67.33,37.64c-0.05,0.08-0.29,0.03-0.53-0.12c-0.25-0.15-0.4-0.33-0.36-0.41c0.05-0.08,0.29-0.03,0.53,0.12
		C67.22,37.37,67.38,37.56,67.33,37.64"/>
	<path class="st24" d="M64.87,37.18c-0.06,0.1-0.21,0.11-0.35,0.03c-0.13-0.08-0.2-0.22-0.14-0.32c0.06-0.1,0.21-0.11,0.35-0.03
		C64.87,36.94,64.93,37.09,64.87,37.18"/>
	<path class="st24" d="M65.36,37.81c-0.04,0.07-0.22,0.05-0.4-0.06c-0.17-0.1-0.28-0.25-0.23-0.32c0.04-0.07,0.22-0.05,0.39,0.06
		C65.3,37.6,65.41,37.74,65.36,37.81"/>
	<path class="st24" d="M64.64,38.14c-0.04,0.07-0.2,0.04-0.37-0.06c-0.16-0.1-0.26-0.23-0.22-0.3c0.04-0.06,0.2-0.04,0.37,0.06
		C64.58,37.94,64.68,38.07,64.64,38.14"/>
	<path class="st24" d="M65.55,38.91c-0.05,0.08-0.18,0.08-0.3,0.01c-0.12-0.07-0.18-0.19-0.13-0.27c0.05-0.08,0.18-0.08,0.3-0.01
		C65.54,38.71,65.6,38.83,65.55,38.91"/>
	<path class="st24" d="M67.18,39.14c-0.06,0.1-0.22,0.12-0.36,0.03c-0.14-0.08-0.2-0.23-0.14-0.33c0.06-0.1,0.22-0.12,0.36-0.03
		C67.18,38.89,67.24,39.04,67.18,39.14"/>
</g>
</svg>
