<svg xmlns="http://www.w3.org/2000/svg" version="1.1" xmlns:xlink="http://www.w3.org/1999/xlink" xmlns:svgjs="http://svgjs.dev/svgjs" viewBox="0 0 108 108" style="" x="0" y="0"><style type="text/css">
	.st0{fill:#346C2D;}
	.st1{fill:#568A41;}
	.st2{fill:#488A3C;}
	.st3{fill:#4D903F;}
	.st4{fill:#568D4D;}
	.st5{fill:#699B3F;}
	.st6{fill:#329245;}
	.st7{fill:#6E9C3F;}
	.st8{fill:#568941;}
	.st9{fill:#759D3E;}
	.st10{fill:#46863A;}
	.st11{fill:#4D8D3E;}
	.st12{fill:#F7B5D2;}
	.st13{fill:#F17DB1;}
	.st14{fill:#FC90FD;}
	.st15{fill:#DC72A2;}
	.st16{fill:#F09764;}
	.st17{fill:none;stroke:#FFDF00;stroke-width:0.2137;stroke-linecap:round;stroke-miterlimit:10;}
	.st18{fill:none;stroke:#FFDF00;stroke-width:0.2027;stroke-linecap:round;stroke-miterlimit:10;}
	.st19{fill:none;stroke:#FFDF00;stroke-width:0.294;stroke-linecap:round;stroke-miterlimit:10;}
</style><g><path class="st0" d="M43.4,59.7c-0.5-1.6-0.8-3.1-1.1-4.7c-0.3-1.6-0.4-3.1-0.5-4.7c-0.1-1.6-0.1-3.1-0.1-4.7c0-1.6,0.1-3.1,0.1-4.7
	c0.1-3.1,0.4-6.2,0.8-9.3c0.4-3.1,1.1-6.1,2.1-9.1l0.8,0.1c0.8,3.2,1.1,6.4,1.3,9.5c0.2,3.1,0.2,6.2,0.1,9.3
	c-0.1,1.5-0.1,3.1-0.3,4.6c-0.1,1.5-0.2,3.1-0.4,4.6c-0.2,1.5-0.5,3.1-0.9,4.6c-0.4,1.5-0.8,3.1-1.4,4.6H43.4z"></path><path class="st0" d="M43.4,57.4c-1.2-2.9-2.1-5.9-3-9c-0.9-3-1.6-6.1-2.4-9.1c-0.7-3.1-1.4-6.1-2.1-9.2c-0.7-3.1-1.3-6.2-1.8-9.3
	l0.4-0.1c1,3,1.9,6,2.8,9c0.9,3,1.7,6,2.5,9.1c0.8,3,1.6,6.1,2.3,9.1c0.7,3.1,1.3,6.2,1.7,9.3L43.4,57.4z"></path><path class="st0" d="M43.4,57.5c-2.1-2.4-3.8-5.1-5.5-7.7s-3.1-5.4-4.6-8.2c-1.5-2.8-2.8-5.6-4.2-8.5c-1.3-2.9-2.6-5.7-3.7-8.7
	l0.4-0.2c1.9,2.5,3.6,5.2,5.3,7.8c1.7,2.7,3.3,5.4,4.8,8.1c1.5,2.7,3,5.5,4.4,8.3c1.3,2.9,2.6,5.7,3.5,8.8L43.4,57.5z"></path><path class="st1" d="M44.5,59.3c-1.9-3.3-4-6.3-6.5-9c-0.3-0.3-0.6-0.7-0.9-1c-0.3-0.3-0.6-0.7-1-1c-0.3-0.3-0.6-0.7-1-1l-1-0.9
	c-0.7-0.6-1.4-1.2-2.1-1.8c-0.7-0.6-1.5-1.1-2.2-1.7c-3-2.2-6.2-4.1-9.6-5.6c-3.4-1.6-6.9-2.8-10.5-3.9l0.1-0.4
	c3.8,0.5,7.5,1.5,11,2.9c3.6,1.4,7,3.2,10.1,5.4c0.8,0.6,1.6,1.1,2.3,1.7c0.7,0.6,1.5,1.2,2.2,1.9l1,1c0.4,0.3,0.7,0.7,1,1
	c0.3,0.4,0.7,0.7,1,1.1c0.3,0.4,0.6,0.8,0.9,1.1c2.4,3,4.3,6.4,5.5,10.1L44.5,59.3z"></path><path class="st0" d="M43.5,57.6c-2.9-1.3-5.6-2.9-8.3-4.5c-2.7-1.6-5.3-3.3-7.9-5.1c-1.3-0.9-2.6-1.8-3.9-2.7
	c-1.3-0.9-2.6-1.8-3.8-2.7c-2.5-1.8-5.1-3.7-7.5-5.7l0.2-0.4c2.8,1.4,5.5,3,8.3,4.6c1.3,0.8,2.7,1.6,4,2.4c1.3,0.8,2.7,1.7,4,2.5
	c2.6,1.7,5.3,3.4,7.8,5.3c2.5,1.9,5.1,3.7,7.4,5.8L43.5,57.6z"></path><path class="st2" d="M51,59.7c-2.9-1.3-5.6-2.9-8.3-4.5c-2.7-1.6-5.3-3.3-7.9-5.1c-1.3-0.9-2.6-1.8-3.9-2.7
	c-1.3-0.9-2.6-1.8-3.8-2.7c-2.5-1.8-5.1-3.7-7.5-5.7l0.2-0.4c2.8,1.4,5.5,3,8.3,4.6c1.3,0.8,2.7,1.6,4,2.4c1.3,0.8,2.7,1.7,4,2.5
	c2.6,1.7,5.3,3.4,7.8,5.3c2.5,1.9,5.1,3.7,7.4,5.8L51,59.7z"></path><path class="st3" d="M46,60.5c-2.8-2.2-6-3.8-9.2-5l-1.2-0.4c-0.2-0.1-0.4-0.1-0.6-0.2c-0.2-0.1-0.4-0.1-0.7-0.1
	c-0.5,0-1.1,0.3-1.5,0.3c-0.2,0-0.4-0.1-0.6-0.2l-0.6-0.3c-0.8-0.3-1.6-0.7-2.4-1c-0.8-0.3-1.6-0.6-2.4-0.9
	c-0.8-0.3-1.6-0.6-2.4-0.8c-0.8-0.2-1.6-0.5-2.5-0.7c-0.8-0.2-1.7-0.4-2.5-0.6c-0.8-0.2-1.7-0.4-2.5-0.5c-3.4-0.6-6.9-1-10.4-1.2
	l0-0.4c3.5-0.8,7.1-1.1,10.7-1c0.9,0,1.8,0.1,2.7,0.1c0.9,0,1.8,0.2,2.7,0.3c0.9,0.1,1.8,0.3,2.7,0.4c0.9,0.1,1.8,0.3,2.7,0.5
	c0.9,0.2,1.8,0.4,2.7,0.7c0.9,0.2,1.8,0.5,2.6,0.8l0.7,0.2c0.2,0.1,0.4,0.1,0.6,0.3c0.4,0.3,0.6,0.9,0.9,1.3
	c0.2,0.2,0.4,0.3,0.5,0.4c0.2,0.1,0.4,0.2,0.6,0.4l1.1,0.8c3,2,5.8,4.2,8.6,6.4L46,60.5z"></path><path class="st0" d="M43.6,57.6c-3.2,0-6.3-0.1-9.4-0.2c-1.6-0.1-3.1-0.2-4.7-0.3l-4.7-0.4c-3.1-0.3-6.3-0.6-9.4-1
	C12.2,55.4,9.1,55,6,54.4l0-0.4c3.2,0,6.3,0.1,9.4,0.2c3.1,0.2,6.3,0.4,9.4,0.6l4.7,0.4c1.6,0.2,3.1,0.3,4.7,0.5
	c3.1,0.4,6.2,0.8,9.3,1.4L43.6,57.6z"></path><path class="st0" d="M43.6,57.6c-3,1-6.1,1.8-9.1,2.6c-3.1,0.7-6.1,1.3-9.2,1.9c-3.1,0.5-6.2,1-9.3,1.3c-3.1,0.3-6.3,0.5-9.5,0.4
	l-0.1-0.4c3-1.1,6-1.9,9.1-2.7c3.1-0.7,6.2-1.3,9.3-1.8c3.1-0.5,6.2-0.9,9.3-1.2c3.1-0.3,6.3-0.5,9.5-0.5L43.6,57.6z"></path><path class="st0" d="M43.7,57.6c-2.8,1.5-5.6,2.9-8.4,4.3c-2.8,1.4-5.7,2.7-8.6,3.9c-1.4,0.6-2.9,1.2-4.3,1.9
	c-1.5,0.6-2.9,1.2-4.4,1.8c-2.9,1.2-5.9,2.3-8.9,3.2L9,72.2c2.7-1.6,5.6-3,8.4-4.3c1.4-0.7,2.8-1.3,4.3-2c1.4-0.6,2.9-1.3,4.3-1.9
	c2.9-1.2,5.8-2.5,8.7-3.6c2.9-1.1,5.9-2.3,8.9-3.2L43.7,57.6z"></path><path class="st4" d="M51.4,59c-3.6,0.9-7.2,1.9-10.6,3.1c-3.4,1.3-6.8,2.8-9.9,4.5c-3.2,1.8-6.2,3.8-9,6.2c-2.8,2.3-5.4,4.9-7.8,7.8
	l-0.4-0.2c1.7-3.4,4-6.5,6.7-9.2c2.7-2.7,5.8-5,9.2-6.9c3.3-1.9,6.9-3.3,10.6-4.3c3.7-1,7.5-1.5,11.2-1.5L51.4,59z"></path><path class="st5" d="M43.8,57.5c-1.7,2.7-3.4,5.3-5.3,7.8c-0.9,1.3-1.9,2.5-2.9,3.8c-1,1.3-2,2.5-3,3.7c-2,2.5-4.1,4.9-6.3,7.3
	c-2.2,2.4-4.4,4.7-6.8,7c-0.1-0.1-0.2-0.2-0.4-0.3c2-2.6,4-5.1,6-7.5c2-2.5,4-5,6-7.4c1-1.2,2-2.5,3-3.7c1-1.2,2-2.5,3-3.7
	c2-2.4,4-4.9,6.1-7.3C43.5,57.4,43.6,57.4,43.8,57.5"></path><path class="st0" d="M46.8,49.1c-1.7,2.7-3.4,5.3-5.3,7.8c-0.9,1.3-1.9,2.5-2.9,3.8c-1,1.3-2,2.5-3,3.7c-2,2.5-4.1,4.9-6.3,7.3
	c-2.2,2.4-4.4,4.7-6.8,7c-0.1-0.1-0.2-0.2-0.4-0.3c2-2.6,4-5.1,6-7.5c2-2.5,4-5,6-7.4c1-1.2,2-2.5,3-3.7c1-1.2,2-2.5,3-3.7
	c2-2.4,4-4.9,6.1-7.3C46.5,48.9,46.6,49,46.8,49.1"></path><path class="st0" d="M43.8,57.5c-0.9,3-2,6-3.1,8.9c-1.2,2.9-2.4,5.8-3.7,8.7c-0.6,1.4-1.3,2.9-2,4.3c-0.7,1.4-1.3,2.8-2,4.2
	c-1.4,2.8-2.8,5.6-4.4,8.3l-0.4-0.2c0.9-3,2-6,3.2-8.9c0.6-1.5,1.2-2.9,1.8-4.4c0.6-1.5,1.2-2.9,1.8-4.3c1.2-2.9,2.6-5.7,4-8.5
	c1.4-2.8,2.9-5.6,4.5-8.3L43.8,57.5z"></path><path class="st0" d="M54.7,33.9c-0.9,3-2,6-3.1,8.9c-1.2,2.9-2.4,5.8-3.7,8.7c-0.6,1.4-1.3,2.9-2,4.3c-0.7,1.4-1.3,2.8-2,4.2
	c-1.4,2.8-2.8,5.6-4.4,8.3l-0.4-0.2c0.9-3,2-6,3.2-8.9c0.6-1.5,1.2-2.9,1.8-4.4c0.6-1.5,1.2-2.9,1.8-4.3c1.2-2.9,2.6-5.7,4-8.5
	c1.4-2.8,2.9-5.6,4.5-8.3L54.7,33.9z"></path><path class="st6" d="M44.4,55.8c0.2,1.6,0.2,3.2,0.2,4.8c0,1.6-0.2,3.2-0.3,4.7c-0.2,1.6-0.5,3.1-0.7,4.7c-0.3,1.6-0.6,3.1-0.9,4.6
	c-0.7,3.1-1.4,6.2-2.3,9.2C39.4,86.9,38.3,90,37,93c-0.2,0-0.4-0.1-0.6-0.1c0.3-3.2,0.8-6.3,1.3-9.4c0.5-3.1,1.1-6.2,1.7-9.3
	c0.3-1.6,0.6-3.1,0.9-4.6c0.3-1.5,0.6-3.1,0.9-4.6c0.3-1.5,0.7-3.1,1.2-4.6c0.4-1.5,0.9-3,1.6-4.5L44.4,55.8z"></path><path class="st1" d="M43.8,57.4c0.5,1.5,0.9,3.1,1.2,4.6c0.3,1.6,0.5,3.1,0.7,4.7c0.2,1.6,0.3,3.1,0.4,4.7c0.1,1.6,0.2,3.1,0.3,4.7
	c0.2,3.1,0.3,6.3,0.4,9.4c0.1,3.1,0.1,6.3,0,9.4l-0.4,0c-0.6-3.1-1.1-6.2-1.5-9.3c-0.4-3.1-0.8-6.2-1.1-9.4
	c-0.2-1.6-0.3-3.1-0.4-4.7C43.2,70,43,68.5,43,66.9c-0.1-1.6-0.1-3.1,0-4.7c0.1-1.6,0.2-3.2,0.4-4.8L43.8,57.4z"></path><path class="st0" d="M43.8,57.3c1.3,2.9,2.4,5.8,3.5,8.8c1.1,3,2.1,6,3.2,8.9c0.5,1.5,1.1,3,1.6,4.5c0.5,1.5,1.1,3,1.6,4.5
	c1.1,3,2.2,6,3.2,9c-0.2,0.1-0.3,0.1-0.5,0.2c-1.5-2.9-2.9-5.8-4.2-8.7c-0.6-1.5-1.3-2.9-1.9-4.4c-0.6-1.5-1.2-3-1.7-4.4
	c-1.1-3-2.2-5.9-3.1-9c-0.9-3-1.7-6.1-2.3-9.2C43.5,57.4,43.6,57.4,43.8,57.3"></path><path class="st7" d="M43.8,57.3c0.7,0.5,1.3,1,1.9,1.6c0.6,0.6,1.2,1.1,1.7,1.7c1.1,1.2,2.1,2.4,3.1,3.6c1.9,2.5,3.6,5.2,5.4,7.9
	c1.7,2.7,3.4,5.4,5,8.2c1.6,2.8,3.1,5.6,4.4,8.6C65.1,89,65,89,64.8,89.1c-2.6-2.2-4.9-4.5-7-7c-2.1-2.4-4.1-5-6-7.6
	c-1.9-2.6-3.7-5.2-5.1-8c-0.7-1.4-1.4-2.9-2-4.4c-0.3-0.7-0.5-1.5-0.8-2.3c-0.2-0.8-0.4-1.6-0.6-2.4C43.5,57.4,43.6,57.4,43.8,57.3"></path><path class="st0" d="M34.9,58.7c0.9,0,1.9,0.1,2.9,0.2c1,0.1,1.9,0.3,2.8,0.4c0.9,0.1,1.9,0.4,2.8,0.6c0.5,0.1,0.9,0.2,1.4,0.4
	l1.4,0.4c3.7,1.2,7.1,2.9,10.3,5c3.2,2.1,6.2,4.6,8.7,7.5c2.5,2.9,4.7,6.1,6.1,9.6L71,83.1c-2.1-3.1-4.5-6-7.1-8.5
	c-2.7-2.6-5.6-4.8-8.7-6.8c-3.1-2-6.4-3.6-9.8-5l-1.3-0.5c-0.4-0.2-0.9-0.3-1.3-0.5c-0.9-0.3-1.7-0.7-2.6-1
	c-0.9-0.3-1.8-0.6-2.7-0.9c-0.9-0.3-1.8-0.5-2.7-0.9L34.9,58.7z"></path><path class="st8" d="M43.7,57.2c1.5,0.5,2.9,1.2,4.4,1.8c1.4,0.6,2.9,1.3,4.3,2c2.8,1.4,5.6,2.8,8.3,4.4c2.7,1.5,5.5,3.1,8.1,4.8
	c2.7,1.6,5.3,3.3,7.9,5.2l-0.2,0.4c-2.9-1.2-5.8-2.5-8.6-3.8c-2.8-1.4-5.6-2.8-8.4-4.3c-2.8-1.5-5.5-3-8.2-4.7
	c-1.3-0.8-2.7-1.7-4-2.5c-1.3-0.9-2.6-1.8-3.9-2.7L43.7,57.2z"></path><path class="st0" d="M38.7,56c1.6-0.1,3.2-0.1,4.7-0.1c1.6,0,3.2,0,4.7,0.1c3.1,0.1,6.3,0.4,9.4,0.7c3.1,0.3,6.2,0.6,9.4,1.1
	c3.1,0.4,6.2,0.9,9.3,1.6l0,0.4c-3.2,0.1-6.3,0.1-9.4-0.1c-3.1-0.1-6.3-0.3-9.4-0.6c-3.1-0.3-6.3-0.6-9.4-1
	c-1.6-0.2-3.1-0.5-4.7-0.7c-1.6-0.3-3.1-0.6-4.6-1L38.7,56z"></path><path class="st0" d="M43.6,57.2c3.1,0.6,6.1,1.4,9.2,2.1c3.1,0.8,6.1,1.5,9.2,2.3c3.1,0.8,6.1,1.6,9.2,2.4c3.1,0.8,6.1,1.6,9.2,2.5
	c0,0.1-0.1,0.3-0.1,0.4c-3.2-0.5-6.3-1.1-9.4-1.7c-3.1-0.7-6.2-1.4-9.3-2.2c-3.1-0.8-6.1-1.6-9.1-2.5c-3-0.9-6-1.9-9-3
	C43.6,57.5,43.6,57.3,43.6,57.2"></path><path class="st0" d="M43.4,57.2c3-1.3,6.1-2.2,9.3-2.8c3.2-0.6,6.4-0.9,9.7-0.8l2.4,0.1l2.4,0.2l2.4,0.3l2.4,0.4
	c3.2,0.6,6.3,1.6,9.3,2.8l-0.2,0.4c-3.1-1-6.2-1.7-9.3-2.2l-2.4-0.3L67.1,55l-2.4-0.1l-2.4-0.1c-3.2,0-6.3,0.2-9.5,0.7
	c-3.1,0.5-6.3,1.2-9.3,2.1L43.4,57.2z"></path><path class="st9" d="M43.5,57.2c3-1,6-1.9,9-2.7c1.5-0.4,3-0.8,4.5-1.2c1.5-0.4,3-0.8,4.6-1.2c3-0.8,6.1-1.5,9.2-2.2
	c3.1-0.7,6.2-1.3,9.3-1.7l0.1,0.4c-3,1-6,1.9-9,2.8c-3,0.8-6.1,1.6-9.1,2.4c-1.5,0.4-3.1,0.7-4.6,1.1c-1.5,0.4-3.1,0.7-4.6,1
	c-3.1,0.7-6.2,1.3-9.3,1.8L43.5,57.2z"></path><path class="st0" d="M42,59.2c2.5-2,5.1-3.8,7.8-5.4c2.7-1.6,5.5-3.1,8.3-4.5c2.8-1.4,5.6-2.8,8.5-4.1c2.9-1.3,5.7-2.6,8.7-3.7
	l0.2,0.4c-2.6,1.9-5.2,3.5-7.9,5.2c-2.7,1.6-5.4,3.2-8.2,4.7c-2.8,1.5-5.5,3-8.4,4.3c-2.9,1.3-5.8,2.6-8.8,3.5L42,59.2z"></path><path class="st0" d="M34.7,59.2c2.5-2,5.1-3.8,7.8-5.4c2.7-1.6,5.5-3.1,8.3-4.5c2.8-1.4,5.6-2.8,8.5-4.1c2.9-1.3,5.7-2.6,8.7-3.7
	l0.2,0.4c-2.6,1.9-5.2,3.5-7.9,5.2c-2.7,1.6-5.4,3.2-8.2,4.7c-2.8,1.5-5.5,3-8.4,4.3c-2.9,1.3-5.8,2.6-8.8,3.5L34.7,59.2z"></path><path class="st10" d="M41.9,58.7c1.4-3.5,3.6-6.7,6.2-9.6c2.6-2.8,5.6-5.3,8.9-7.3c0.8-0.5,1.6-1,2.5-1.5c0.8-0.5,1.7-0.9,2.6-1.3
	c0.4-0.2,0.9-0.4,1.3-0.6c0.4-0.2,0.9-0.4,1.3-0.5l1.3-0.5l1.4-0.4c3.6-1.2,7.4-1.9,11.2-2.2l0.1,0.4c-3.6,0.9-7.2,2-10.6,3.4
	l-1.3,0.5l-1.3,0.6c-0.4,0.2-0.8,0.4-1.3,0.6c-0.4,0.2-0.8,0.4-1.2,0.6c-0.8,0.4-1.6,0.8-2.4,1.3c-0.8,0.5-1.6,0.9-2.4,1.4
	c-3.1,2-6,4.3-8.6,6.8c-2.7,2.5-5,5.4-7.2,8.4L41.9,58.7z"></path><path class="st0" d="M43.4,57.3c1.4-2.8,3-5.5,4.6-8.2c1.6-2.7,3.3-5.3,5.1-7.9l1.3-2l1.3-1.9c0.9-1.3,1.8-2.6,2.7-3.8
	c1.8-2.5,3.7-5.1,5.7-7.5l0.4,0.2c-1.5,2.8-3.1,5.5-4.7,8.2c-0.8,1.3-1.6,2.7-2.5,4l-1.3,2l-1.3,2c-1.7,2.6-3.5,5.2-5.3,7.8
	c-1.8,2.5-3.7,5.1-5.8,7.5L43.4,57.3z"></path><path class="st11" d="M43.4,57.3c-0.1-1.7,0.2-3.3,0.5-4.8c0.3-1.5,0.8-3,1.3-4.5c1-3,2.1-5.9,3.3-8.8c1.1-2.9,2.3-5.9,3.5-8.7
	c1.2-2.9,2.5-5.8,3.9-8.6l0.4,0.1c-0.7,3.1-1.5,6.1-2.4,9.2c-0.8,3-1.8,6-2.7,9c-1,3-2,6-3,8.9c-0.5,1.5-1.1,3-1.8,4.4
	c-0.7,1.4-1.5,2.8-2.6,4.1L43.4,57.3z"></path><path class="st0" d="M51.4,57.3c0,4.2-3.4,7.6-7.6,7.6c-4.2,0-7.6-3.4-7.6-7.6c0-4.2,3.4-7.6,7.6-7.6C48,49.7,51.4,53.1,51.4,57.3"></path><path class="st0" d="M59.3,65.8c-0.5-1.6-0.8-3.1-1.1-4.7c-0.3-1.6-0.4-3.1-0.5-4.7c-0.1-1.6-0.1-3.1-0.1-4.7c0-1.6,0.1-3.1,0.1-4.7
	c0.1-3.1,0.4-6.2,0.8-9.3c0.4-3.1,1.1-6.1,2.1-9.1l0.8,0.1c0.8,3.2,1.1,6.4,1.3,9.5c0.2,3.1,0.2,6.2,0.1,9.3
	c-0.1,1.5-0.1,3.1-0.3,4.6c-0.1,1.5-0.2,3.1-0.4,4.6c-0.2,1.5-0.5,3.1-0.9,4.6c-0.4,1.5-0.8,3.1-1.4,4.6H59.3z"></path><path class="st0" d="M59.3,63.6c-1.2-2.9-2.1-5.9-3-9c-0.9-3-1.6-6.1-2.4-9.1c-0.7-3.1-1.4-6.1-2.1-9.2c-0.7-3.1-1.3-6.2-1.8-9.3
	l0.4-0.1c1,3,1.9,6,2.8,9c0.9,3,1.7,6,2.5,9.1c0.8,3,1.6,6.1,2.3,9.1c0.7,3.1,1.3,6.2,1.7,9.3L59.3,63.6z"></path><path class="st0" d="M59.3,63.7c-2.1-2.4-3.8-5.1-5.5-7.7c-1.7-2.7-3.1-5.4-4.6-8.2c-1.5-2.8-2.8-5.6-4.2-8.5
	c-1.3-2.9-2.6-5.7-3.7-8.7l0.4-0.2c1.9,2.5,3.6,5.2,5.3,7.8c1.7,2.7,3.3,5.4,4.8,8.1c1.5,2.7,3,5.5,4.4,8.3c1.3,2.9,2.6,5.7,3.5,8.8
	L59.3,63.7z"></path><path class="st1" d="M60.4,65.5c-1.9-3.3-4-6.3-6.5-9c-0.3-0.3-0.6-0.7-0.9-1c-0.3-0.3-0.6-0.7-1-1c-0.3-0.3-0.6-0.7-1-1l-1-0.9
	c-0.7-0.6-1.4-1.2-2.1-1.8c-0.7-0.6-1.5-1.1-2.2-1.7c-3-2.2-6.2-4.1-9.6-5.6c-3.4-1.6-6.9-2.8-10.5-3.9l0.1-0.4
	c3.8,0.5,7.5,1.5,11,2.9c3.6,1.4,7,3.2,10.1,5.4c0.8,0.6,1.6,1.1,2.3,1.7c0.7,0.6,1.5,1.2,2.2,1.9l1,1c0.4,0.3,0.7,0.7,1,1
	c0.3,0.4,0.7,0.7,1,1.1c0.3,0.4,0.6,0.8,0.9,1.1c2.4,3,4.3,6.4,5.5,10.1L60.4,65.5z"></path><path class="st0" d="M59.4,63.8c-2.9-1.3-5.6-2.9-8.3-4.5c-2.7-1.6-5.3-3.3-7.9-5.1c-1.3-0.9-2.6-1.8-3.9-2.7
	c-1.3-0.9-2.6-1.8-3.8-2.7c-2.5-1.8-5.1-3.7-7.5-5.7l0.2-0.4c2.8,1.4,5.5,3,8.3,4.6c1.3,0.8,2.7,1.6,4,2.4c1.3,0.8,2.7,1.7,4,2.5
	c2.6,1.7,5.3,3.4,7.8,5.3c2.5,1.9,5.1,3.7,7.4,5.8L59.4,63.8z"></path><path class="st2" d="M66.8,65.9c-2.9-1.3-5.6-2.9-8.3-4.5c-2.7-1.6-5.3-3.3-7.9-5.1c-1.3-0.9-2.6-1.8-3.9-2.7
	c-1.3-0.9-2.6-1.8-3.8-2.7c-2.5-1.8-5.1-3.7-7.5-5.7l0.2-0.4c2.8,1.4,5.5,3,8.3,4.6c1.3,0.8,2.7,1.6,4,2.4c1.3,0.8,2.7,1.7,4,2.5
	c2.6,1.7,5.3,3.4,7.8,5.3c2.5,1.9,5.1,3.7,7.4,5.8L66.8,65.9z"></path><path class="st3" d="M61.9,66.7c-2.8-2.2-6-3.8-9.2-5l-1.2-0.4c-0.2-0.1-0.4-0.1-0.6-0.2C50.6,61,50.4,61,50.1,61
	c-0.5,0-1.1,0.3-1.5,0.2c-0.2,0-0.4-0.1-0.6-0.2l-0.6-0.3c-0.8-0.3-1.6-0.7-2.4-1c-0.8-0.3-1.6-0.6-2.4-0.9
	c-0.8-0.3-1.6-0.6-2.4-0.8c-0.8-0.2-1.6-0.5-2.5-0.7c-0.8-0.2-1.7-0.4-2.5-0.6c-0.8-0.2-1.7-0.4-2.5-0.5c-3.4-0.6-6.9-1-10.4-1.2
	l0-0.4c3.5-0.8,7.1-1.1,10.7-1c0.9,0,1.8,0.1,2.7,0.1c0.9,0,1.8,0.2,2.7,0.3c0.9,0.1,1.8,0.3,2.7,0.4c0.9,0.1,1.8,0.3,2.7,0.5
	c0.9,0.2,1.8,0.4,2.7,0.7c0.9,0.2,1.8,0.5,2.6,0.8l0.7,0.2c0.2,0.1,0.4,0.1,0.6,0.3c0.4,0.3,0.6,0.9,0.9,1.3
	c0.2,0.2,0.4,0.3,0.5,0.4c0.2,0.1,0.4,0.2,0.6,0.4l1.1,0.8c3,2,5.8,4.2,8.6,6.4L61.9,66.7z"></path><path class="st0" d="M59.5,63.8c-3.2,0-6.3-0.1-9.4-0.2c-1.6-0.1-3.1-0.2-4.7-0.3l-4.7-0.4c-3.1-0.3-6.3-0.6-9.4-1
	c-3.1-0.4-6.2-0.8-9.3-1.3l0-0.4c3.2,0,6.3,0.1,9.4,0.2c3.1,0.2,6.3,0.4,9.4,0.6l4.7,0.4c1.6,0.2,3.1,0.3,4.7,0.5
	c3.1,0.4,6.2,0.8,9.3,1.4L59.5,63.8z"></path><path class="st0" d="M59.5,63.8c-3,1-6.1,1.8-9.1,2.6c-3.1,0.7-6.1,1.3-9.2,1.9c-3.1,0.5-6.2,1-9.3,1.3c-3.1,0.3-6.3,0.5-9.5,0.4
	l-0.1-0.4c3-1.1,6-1.9,9.1-2.7c3.1-0.7,6.2-1.3,9.3-1.8c3.1-0.5,6.2-0.9,9.3-1.2c3.1-0.3,6.3-0.5,9.5-0.5L59.5,63.8z"></path><path class="st0" d="M59.6,63.8c-2.8,1.5-5.6,2.9-8.4,4.3c-2.8,1.4-5.7,2.7-8.6,3.9c-1.4,0.6-2.9,1.2-4.3,1.9
	c-1.5,0.6-2.9,1.2-4.4,1.8C31,76.8,28,77.9,25,78.8l-0.2-0.4c2.7-1.6,5.6-3,8.4-4.3c1.4-0.7,2.8-1.3,4.3-2c1.4-0.6,2.9-1.3,4.3-1.9
	c2.9-1.2,5.8-2.5,8.7-3.6c2.9-1.1,5.9-2.3,8.9-3.2L59.6,63.8z"></path><path class="st4" d="M67.3,65.2c-3.6,0.9-7.2,1.9-10.6,3.1c-3.4,1.3-6.8,2.8-9.9,4.5c-3.2,1.8-6.2,3.8-9,6.2
	c-2.8,2.3-5.4,4.9-7.8,7.8l-0.4-0.2c1.7-3.4,4-6.5,6.7-9.2c2.7-2.7,5.8-5,9.2-6.9c3.3-1.9,6.9-3.3,10.6-4.3c3.7-1,7.5-1.5,11.2-1.5
	L67.3,65.2z"></path><path class="st5" d="M59.7,63.7c-1.7,2.7-3.4,5.3-5.3,7.8c-0.9,1.3-1.9,2.5-2.9,3.8c-1,1.3-2,2.5-3,3.7c-2,2.5-4.1,4.9-6.3,7.3
	c-2.2,2.4-4.4,4.7-6.8,7c-0.1-0.1-0.2-0.2-0.4-0.3c2-2.6,4-5.1,6-7.5c2-2.5,4-5,6-7.4c1-1.2,2-2.5,3-3.7c1-1.2,2-2.5,3-3.7
	c2-2.4,4-4.9,6.1-7.3C59.4,63.5,59.5,63.6,59.7,63.7"></path><path class="st0" d="M62.7,55.2c-1.7,2.7-3.4,5.3-5.3,7.8c-0.9,1.3-1.9,2.5-2.9,3.8c-1,1.3-2,2.5-3,3.7c-2,2.5-4.1,4.9-6.3,7.3
	c-2.2,2.4-4.4,4.7-6.8,7c-0.1-0.1-0.2-0.2-0.4-0.3c2-2.6,4-5.1,6-7.5c2-2.5,4-5,6-7.4c1-1.2,2-2.5,3-3.7c1-1.2,2-2.5,3-3.7
	c2-2.4,4-4.9,6.1-7.3C62.4,55.1,62.5,55.2,62.7,55.2"></path><path class="st0" d="M59.7,63.7c-0.9,3-2,6-3.1,8.9c-1.2,2.9-2.4,5.8-3.7,8.7c-0.6,1.4-1.3,2.9-2,4.3c-0.7,1.4-1.3,2.8-2,4.2
	c-1.4,2.8-2.8,5.6-4.4,8.3L44,97.9c0.9-3,2-6,3.2-8.9c0.6-1.5,1.2-2.9,1.8-4.4c0.6-1.5,1.2-2.9,1.8-4.3c1.2-2.9,2.6-5.7,4-8.5
	c1.4-2.8,2.9-5.6,4.5-8.3L59.7,63.7z"></path><path class="st0" d="M70.6,40.1c-0.9,3-2,6-3.1,8.9c-1.2,2.9-2.4,5.8-3.7,8.7c-0.6,1.4-1.3,2.9-2,4.3c-0.7,1.4-1.3,2.8-2,4.2
	c-1.4,2.8-2.8,5.6-4.4,8.3L55,74.4c0.9-3,2-6,3.2-8.9c0.6-1.5,1.2-2.9,1.8-4.4c0.6-1.5,1.2-2.9,1.8-4.3c1.2-2.9,2.6-5.7,4-8.5
	c1.4-2.8,2.9-5.6,4.5-8.3L70.6,40.1z"></path><path class="st6" d="M60.3,62c0.2,1.6,0.2,3.2,0.2,4.8c0,1.6-0.2,3.2-0.3,4.7c-0.2,1.6-0.5,3.1-0.7,4.7c-0.3,1.6-0.6,3.1-0.9,4.6
	c-0.7,3.1-1.4,6.2-2.3,9.2c-0.9,3.1-1.9,6.1-3.2,9.1c-0.2,0-0.4-0.1-0.6-0.1c0.3-3.1,0.8-6.3,1.3-9.4c0.5-3.1,1.1-6.2,1.7-9.3
	c0.3-1.6,0.6-3.1,0.9-4.6c0.3-1.5,0.6-3.1,0.9-4.6c0.3-1.5,0.7-3.1,1.2-4.6c0.4-1.5,0.9-3,1.6-4.5C60,62,60.2,62,60.3,62"></path><path class="st1" d="M59.7,63.6c0.5,1.5,0.9,3.1,1.2,4.6c0.3,1.6,0.5,3.1,0.7,4.7c0.2,1.6,0.3,3.1,0.4,4.7c0.1,1.6,0.2,3.1,0.3,4.7
	c0.2,3.1,0.3,6.3,0.4,9.4c0.1,3.1,0.1,6.3,0,9.4l-0.4,0c-0.6-3.1-1.1-6.2-1.5-9.3c-0.4-3.1-0.8-6.2-1.1-9.4
	c-0.2-1.6-0.3-3.1-0.4-4.7c-0.1-1.6-0.3-3.1-0.3-4.7c-0.1-1.6-0.1-3.1,0-4.7c0.1-1.6,0.2-3.2,0.4-4.8L59.7,63.6z"></path><path class="st0" d="M59.7,63.5c1.3,2.9,2.4,5.8,3.5,8.8c1.1,3,2.1,6,3.2,8.9c0.5,1.5,1.1,3,1.6,4.5c0.5,1.5,1.1,3,1.6,4.5
	c1.1,3,2.2,6,3.2,9c-0.2,0.1-0.3,0.1-0.5,0.2c-1.5-2.9-2.9-5.8-4.2-8.7c-0.6-1.5-1.3-2.9-1.9-4.4c-0.6-1.5-1.2-3-1.7-4.4
	c-1.1-3-2.2-5.9-3.1-9c-0.9-3-1.7-6.1-2.3-9.2C59.4,63.6,59.5,63.6,59.7,63.5"></path><path class="st7" d="M59.7,63.5c0.7,0.5,1.3,1,1.9,1.6c0.6,0.6,1.2,1.1,1.7,1.7c1.1,1.2,2.1,2.4,3.1,3.6c1.9,2.5,3.6,5.2,5.4,7.9
	c1.7,2.7,3.4,5.4,5,8.2c1.6,2.8,3.1,5.6,4.4,8.6c-0.1,0.1-0.3,0.2-0.4,0.3c-2.6-2.2-4.9-4.5-7-7c-2.1-2.4-4.1-5-6-7.6
	c-1.9-2.6-3.7-5.2-5.1-8c-0.7-1.4-1.4-2.9-2-4.4c-0.3-0.7-0.5-1.5-0.8-2.3c-0.2-0.8-0.4-1.6-0.6-2.4C59.4,63.6,59.5,63.5,59.7,63.5"></path><path class="st0" d="M50.8,64.9c0.9,0,1.9,0.1,2.9,0.2c0.9,0.1,1.9,0.3,2.8,0.4c0.9,0.1,1.9,0.4,2.8,0.6c0.5,0.1,0.9,0.2,1.4,0.4
	l1.4,0.4c3.7,1.2,7.1,2.9,10.3,5c3.2,2.1,6.2,4.6,8.7,7.5c2.5,2.9,4.7,6.1,6.1,9.6l-0.4,0.2c-2.1-3.1-4.5-6-7.1-8.5
	c-2.6-2.6-5.6-4.8-8.7-6.8c-3.1-2-6.4-3.6-9.8-5L60,68.5c-0.4-0.2-0.9-0.3-1.3-0.5c-0.9-0.3-1.7-0.7-2.6-1c-0.9-0.3-1.8-0.6-2.7-0.9
	c-0.9-0.3-1.8-0.5-2.7-0.9L50.8,64.9z"></path><path class="st8" d="M59.6,63.4c1.5,0.5,2.9,1.2,4.4,1.8c1.4,0.6,2.9,1.3,4.3,2c2.8,1.4,5.6,2.8,8.3,4.4c2.7,1.5,5.5,3.1,8.1,4.8
	c2.7,1.6,5.3,3.3,7.9,5.2l-0.2,0.4c-2.9-1.2-5.8-2.5-8.6-3.8c-2.8-1.4-5.6-2.8-8.4-4.3c-2.8-1.5-5.5-3-8.2-4.7
	c-1.3-0.8-2.7-1.7-4-2.5c-1.3-0.9-2.6-1.8-3.9-2.7L59.6,63.4z"></path><path class="st0" d="M54.6,62.1c1.6-0.1,3.2-0.1,4.7-0.1c1.6,0,3.2,0,4.7,0.1c3.1,0.1,6.3,0.4,9.4,0.7c3.1,0.3,6.2,0.6,9.4,1.1
	c3.1,0.4,6.2,0.9,9.3,1.6l0,0.4C89,66,85.8,66,82.7,65.8c-3.1-0.1-6.3-0.3-9.4-0.6c-3.1-0.3-6.3-0.6-9.4-1c-1.6-0.2-3.1-0.5-4.7-0.7
	c-1.6-0.3-3.1-0.6-4.6-1L54.6,62.1z"></path><path class="st0" d="M59.5,63.4c3.1,0.6,6.1,1.4,9.2,2.1c3.1,0.8,6.1,1.5,9.2,2.3c3.1,0.8,6.1,1.6,9.2,2.4c3.1,0.8,6.1,1.6,9.2,2.5
	c0,0.1-0.1,0.3-0.1,0.4c-3.2-0.5-6.3-1.1-9.4-1.7c-3.1-0.7-6.2-1.4-9.3-2.2c-3.1-0.8-6.1-1.6-9.1-2.5c-3-0.9-6-1.9-9-3
	C59.4,63.6,59.5,63.5,59.5,63.4"></path><path class="st0" d="M59.3,63.4c3-1.3,6.1-2.2,9.3-2.8c3.2-0.6,6.4-0.9,9.7-0.8l2.4,0.1l2.4,0.2l2.4,0.3l2.4,0.4
	c3.2,0.6,6.3,1.6,9.3,2.8L97.1,64c-3.1-1-6.2-1.7-9.3-2.2l-2.4-0.3L83,61.2l-2.4-0.1L78.3,61c-3.2,0-6.3,0.2-9.5,0.7
	c-3.1,0.5-6.3,1.2-9.3,2.1L59.3,63.4z"></path><path class="st9" d="M59.4,63.4c3-1,6-1.9,9-2.7c1.5-0.4,3-0.8,4.5-1.2c1.5-0.4,3-0.8,4.6-1.2c3-0.8,6.1-1.5,9.2-2.2
	c3.1-0.7,6.2-1.3,9.3-1.7l0.1,0.4c-3,1-6,1.9-9,2.8c-3,0.8-6.1,1.6-9.1,2.4c-1.5,0.4-3.1,0.7-4.6,1.1c-1.5,0.4-3.1,0.7-4.6,1
	c-3.1,0.7-6.2,1.3-9.3,1.8L59.4,63.4z"></path><path class="st0" d="M57.9,65.4c2.5-2,5.1-3.8,7.8-5.4c2.7-1.6,5.5-3.1,8.3-4.5c2.8-1.4,5.6-2.8,8.5-4.1c2.9-1.3,5.7-2.6,8.7-3.7
	l0.2,0.4c-2.6,1.9-5.2,3.5-7.9,5.2c-2.7,1.6-5.4,3.2-8.2,4.7c-2.8,1.5-5.5,3-8.4,4.3c-2.9,1.3-5.8,2.6-8.8,3.5L57.9,65.4z"></path><path class="st0" d="M50.6,65.4c2.5-2,5.1-3.8,7.8-5.4c2.7-1.6,5.5-3.1,8.3-4.5c2.8-1.4,5.6-2.8,8.5-4.1c2.9-1.3,5.7-2.6,8.7-3.7
	l0.2,0.4c-2.6,1.9-5.2,3.5-7.9,5.2c-2.7,1.6-5.4,3.2-8.2,4.7c-2.8,1.5-5.5,3-8.4,4.3c-2.9,1.3-5.8,2.6-8.8,3.5L50.6,65.4z"></path><path class="st10" d="M57.8,64.9c1.4-3.5,3.6-6.7,6.2-9.6c2.6-2.8,5.6-5.3,8.9-7.3c0.8-0.5,1.6-1,2.5-1.5c0.8-0.5,1.7-0.9,2.6-1.3
	c0.4-0.2,0.9-0.4,1.3-0.6c0.4-0.2,0.9-0.4,1.3-0.5l1.3-0.5l1.4-0.4c3.6-1.2,7.4-1.9,11.2-2.2l0.1,0.4c-3.6,0.9-7.2,2-10.6,3.4
	l-1.3,0.5l-1.3,0.6c-0.4,0.2-0.8,0.4-1.3,0.6c-0.4,0.2-0.8,0.4-1.2,0.6c-0.8,0.4-1.6,0.8-2.4,1.3c-0.8,0.5-1.6,0.9-2.4,1.4
	c-3.1,2-6,4.3-8.6,6.8c-2.7,2.5-5,5.4-7.2,8.4L57.8,64.9z"></path><path class="st0" d="M59.3,63.5c1.4-2.8,3-5.5,4.6-8.2c1.6-2.7,3.3-5.3,5.1-7.9l1.3-2l1.3-1.9c0.9-1.3,1.8-2.6,2.7-3.8
	c1.8-2.5,3.7-5.1,5.7-7.5l0.4,0.2c-1.5,2.8-3.1,5.5-4.7,8.2c-0.8,1.3-1.6,2.7-2.5,4l-1.3,2l-1.3,2c-1.7,2.6-3.5,5.2-5.3,7.8
	c-1.8,2.5-3.7,5.1-5.8,7.5L59.3,63.5z"></path><path class="st11" d="M59.3,63.5c-0.1-1.7,0.2-3.3,0.5-4.8c0.3-1.5,0.8-3,1.3-4.5c1-3,2.1-5.9,3.3-8.8c1.1-2.9,2.3-5.9,3.5-8.7
	c1.2-2.9,2.5-5.8,3.9-8.6l0.4,0.1c-0.7,3.1-1.5,6.1-2.4,9.2c-0.8,3-1.8,6-2.7,9c-1,3-2,6-3,8.9c-0.5,1.5-1.1,3-1.8,4.4
	c-0.7,1.4-1.5,2.8-2.6,4.1L59.3,63.5z"></path><path class="st0" d="M67.3,63.5c0,4.2-3.4,7.6-7.6,7.6c-4.2,0-7.6-3.4-7.6-7.6c0-4.2,3.4-7.6,7.6-7.6C63.9,55.8,67.3,59.3,67.3,63.5
	"></path><path class="st0" d="M64.5,46.3c-0.5-1.6-0.8-3.1-1.1-4.7c-0.3-1.6-0.4-3.1-0.5-4.7c-0.1-1.6-0.1-3.1-0.1-4.7c0-1.6,0.1-3.1,0.1-4.7
	c0.1-3.1,0.4-6.2,0.8-9.3c0.4-3.1,1.1-6.1,2.1-9.1l0.8,0.1c0.8,3.2,1.1,6.4,1.3,9.5c0.2,3.1,0.2,6.2,0.1,9.3
	c-0.1,1.5-0.1,3.1-0.3,4.6c-0.1,1.5-0.2,3.1-0.4,4.6c-0.2,1.5-0.5,3.1-0.9,4.6c-0.4,1.5-0.8,3.1-1.4,4.6H64.5z"></path><path class="st0" d="M64.5,44.1c-1.2-2.9-2.1-5.9-3-9c-0.9-3-1.6-6.1-2.4-9.1c-0.7-3.1-1.4-6.1-2.1-9.2c-0.6-3.1-1.3-6.2-1.8-9.3
	l0.4-0.1c1,3,1.9,6,2.8,9c0.9,3,1.7,6,2.5,9.1c0.8,3,1.6,6.1,2.3,9.1c0.7,3.1,1.3,6.2,1.7,9.3L64.5,44.1z"></path><path class="st0" d="M64.6,44.1c-2.1-2.4-3.8-5.1-5.5-7.7c-1.7-2.7-3.1-5.4-4.6-8.2c-1.5-2.8-2.8-5.6-4.2-8.5
	C49,16.9,47.7,14,46.6,11l0.4-0.2c1.9,2.5,3.6,5.2,5.3,7.8c1.7,2.7,3.3,5.4,4.8,8.1c1.5,2.7,3,5.5,4.4,8.3c1.3,2.9,2.6,5.7,3.5,8.8
	L64.6,44.1z"></path><path class="st1" d="M65.7,45.9c-1.9-3.3-4-6.3-6.5-9c-0.3-0.3-0.6-0.7-0.9-1c-0.3-0.3-0.6-0.7-1-1c-0.3-0.3-0.6-0.7-1-1l-1-0.9
	c-0.7-0.6-1.4-1.2-2.1-1.8c-0.7-0.6-1.5-1.1-2.2-1.7c-3-2.2-6.2-4.1-9.6-5.6C38.1,22.2,34.6,21,31,20l0.1-0.4
	c3.8,0.5,7.5,1.5,11,2.9c3.6,1.4,7,3.2,10.1,5.4c0.8,0.6,1.6,1.1,2.3,1.7c0.7,0.6,1.5,1.2,2.2,1.9l1,1c0.4,0.3,0.7,0.7,1,1
	c0.3,0.4,0.7,0.7,1,1.1c0.3,0.4,0.6,0.8,0.9,1.1c2.4,3,4.3,6.4,5.5,10.1L65.7,45.9z"></path><path class="st0" d="M64.6,44.2c-2.9-1.3-5.6-2.9-8.3-4.5c-2.7-1.6-5.3-3.3-7.9-5.1c-1.3-0.9-2.6-1.8-3.9-2.7
	c-1.3-0.9-2.6-1.8-3.8-2.7c-2.5-1.8-5.1-3.7-7.5-5.7l0.2-0.4c2.8,1.4,5.5,3,8.3,4.6c1.3,0.8,2.7,1.6,4,2.4c1.3,0.8,2.7,1.7,4,2.5
	c2.6,1.7,5.3,3.4,7.8,5.3c2.5,1.9,5.1,3.7,7.4,5.8L64.6,44.2z"></path><path class="st2" d="M72.1,46.3c-2.9-1.3-5.6-2.9-8.3-4.5c-2.7-1.6-5.3-3.3-7.9-5.1c-1.3-0.9-2.6-1.8-3.9-2.7
	c-1.3-0.9-2.6-1.8-3.8-2.7c-2.5-1.8-5.1-3.7-7.5-5.7l0.2-0.4c2.8,1.4,5.5,3,8.3,4.6c1.3,0.8,2.7,1.6,4,2.4c1.3,0.8,2.7,1.7,4,2.5
	c2.6,1.7,5.3,3.4,7.8,5.3c2.5,1.9,5.1,3.7,7.4,5.8L72.1,46.3z"></path><path class="st3" d="M67.2,47.1c-2.8-2.2-6-3.8-9.2-5l-1.2-0.4c-0.2-0.1-0.4-0.1-0.6-0.2c-0.2-0.1-0.4-0.1-0.7-0.1
	c-0.5,0-1.1,0.3-1.5,0.2c-0.2,0-0.4-0.1-0.6-0.2l-0.6-0.3c-0.8-0.3-1.6-0.7-2.4-1c-0.8-0.3-1.6-0.6-2.4-0.9
	c-0.8-0.3-1.6-0.6-2.4-0.8c-0.8-0.2-1.6-0.5-2.5-0.7c-0.8-0.2-1.7-0.4-2.5-0.6c-0.8-0.2-1.7-0.4-2.5-0.5c-3.4-0.6-6.9-1-10.4-1.2
	l0-0.4c3.5-0.8,7.1-1.1,10.7-1c0.9,0,1.8,0.1,2.7,0.1c0.9,0,1.8,0.2,2.7,0.3c0.9,0.1,1.8,0.3,2.7,0.4c0.9,0.1,1.8,0.3,2.7,0.5
	c0.9,0.2,1.8,0.4,2.7,0.7c0.9,0.2,1.8,0.5,2.6,0.8l0.7,0.2c0.2,0.1,0.4,0.1,0.6,0.3c0.4,0.3,0.6,0.9,0.9,1.3
	c0.2,0.2,0.4,0.3,0.5,0.4c0.2,0.1,0.4,0.2,0.6,0.4l1.1,0.8c3,2,5.8,4.2,8.6,6.4L67.2,47.1z"></path><path class="st0" d="M64.7,44.3c-3.2,0-6.3-0.1-9.4-0.2c-1.6-0.1-3.1-0.2-4.7-0.3l-4.7-0.4c-3.1-0.3-6.3-0.6-9.4-1
	c-3.1-0.4-6.2-0.8-9.3-1.3l0-0.4c3.2,0,6.3,0.1,9.4,0.2c3.1,0.2,6.3,0.4,9.4,0.6l4.7,0.4c1.6,0.2,3.1,0.3,4.7,0.5
	c3.1,0.4,6.2,0.8,9.3,1.4L64.7,44.3z"></path><path class="st0" d="M64.8,44.3c-3,1-6.1,1.8-9.1,2.6c-3.1,0.7-6.1,1.3-9.2,1.9c-3.1,0.5-6.2,1-9.3,1.3c-3.1,0.3-6.3,0.5-9.5,0.4
	l-0.1-0.4c3-1.1,6-1.9,9.1-2.7c3.1-0.7,6.2-1.3,9.3-1.8c3.1-0.5,6.2-0.9,9.3-1.2c3.1-0.3,6.3-0.5,9.5-0.5L64.8,44.3z"></path><path class="st0" d="M64.8,44.2c-2.8,1.5-5.6,2.9-8.4,4.3c-2.8,1.4-5.7,2.7-8.6,3.9c-1.4,0.6-2.9,1.2-4.3,1.9
	c-1.5,0.6-2.9,1.2-4.4,1.8c-2.9,1.2-5.9,2.3-8.9,3.2l-0.2-0.4c2.7-1.6,5.6-3,8.4-4.3c1.4-0.7,2.8-1.3,4.3-2c1.4-0.6,2.9-1.3,4.3-1.9
	c2.9-1.2,5.8-2.5,8.7-3.6c2.9-1.1,5.9-2.3,8.9-3.2L64.8,44.2z"></path><path class="st4" d="M72.6,45.6c-3.6,0.9-7.2,1.9-10.6,3.1c-3.4,1.3-6.8,2.8-9.9,4.5c-3.2,1.8-6.2,3.8-9,6.2
	c-2.8,2.3-5.4,4.9-7.8,7.8L34.8,67c1.7-3.4,4-6.5,6.7-9.2c2.7-2.7,5.8-5,9.2-6.9c3.3-1.9,6.9-3.3,10.6-4.3c3.7-1,7.5-1.5,11.2-1.5
	L72.6,45.6z"></path><path class="st5" d="M64.9,44.2c-1.7,2.7-3.4,5.3-5.3,7.8c-0.9,1.3-1.9,2.5-2.9,3.8c-1,1.3-2,2.5-3,3.7c-2,2.5-4.1,4.9-6.3,7.3
	c-2.2,2.4-4.4,4.7-6.8,7c-0.1-0.1-0.2-0.2-0.4-0.3c2-2.6,4-5.1,6-7.5c2-2.5,4-5,6-7.4c1-1.2,2-2.5,3-3.7c1-1.2,2-2.5,3-3.7
	c2-2.4,4-4.9,6.1-7.3C64.7,44,64.8,44.1,64.9,44.2"></path><path class="st0" d="M67.9,35.7c-1.7,2.7-3.4,5.3-5.3,7.8c-0.9,1.3-1.9,2.5-2.9,3.8c-1,1.3-2,2.5-3,3.7c-2,2.5-4.1,4.9-6.3,7.3
	c-2.2,2.4-4.4,4.7-6.8,7c-0.1-0.1-0.2-0.2-0.4-0.3c2-2.6,4-5.1,6-7.5c2-2.5,4-5,6-7.4c1-1.2,2-2.5,3-3.7c1-1.2,2-2.5,3-3.7
	c2-2.4,4-4.9,6.1-7.3C67.7,35.5,67.8,35.6,67.9,35.7"></path><path class="st0" d="M64.9,44.1c-0.9,3-2,6-3.1,8.9c-1.2,2.9-2.4,5.8-3.7,8.7c-0.6,1.4-1.3,2.9-2,4.3c-0.7,1.4-1.3,2.8-2,4.2
	c-1.4,2.8-2.8,5.6-4.4,8.3l-0.4-0.2c0.9-3,2-6,3.2-8.9c0.6-1.5,1.2-2.9,1.8-4.4c0.6-1.5,1.2-2.9,1.8-4.3c1.2-2.9,2.6-5.7,4-8.5
	c1.4-2.8,2.9-5.6,4.5-8.3L64.9,44.1z"></path><path class="st0" d="M75.9,20.6c-0.9,3-2,6-3.1,8.9c-1.2,2.9-2.4,5.8-3.7,8.7c-0.6,1.4-1.3,2.9-2,4.3c-0.7,1.4-1.3,2.8-2,4.2
	c-1.4,2.8-2.8,5.6-4.4,8.3l-0.4-0.2c0.9-3,2-6,3.2-8.9c0.6-1.5,1.2-2.9,1.8-4.4c0.6-1.5,1.2-2.9,1.8-4.3c1.2-2.9,2.6-5.7,4-8.5
	c1.4-2.8,2.9-5.6,4.5-8.3L75.9,20.6z"></path><path class="st6" d="M65.6,42.5c0.2,1.6,0.2,3.2,0.2,4.8c0,1.6-0.2,3.2-0.3,4.7c-0.2,1.6-0.5,3.1-0.7,4.7c-0.3,1.6-0.6,3.1-0.9,4.6
	c-0.7,3.1-1.4,6.2-2.3,9.2c-0.9,3.1-1.9,6.1-3.2,9.1c-0.2,0-0.4-0.1-0.6-0.1c0.3-3.1,0.8-6.3,1.3-9.4c0.5-3.1,1.1-6.2,1.7-9.3
	c0.3-1.5,0.6-3.1,0.9-4.6c0.3-1.5,0.6-3.1,0.9-4.6c0.3-1.5,0.7-3.1,1.2-4.6c0.4-1.5,0.9-3,1.6-4.5C65.3,42.4,65.4,42.5,65.6,42.5"></path><path class="st1" d="M65,44c0.5,1.5,0.9,3.1,1.2,4.6c0.3,1.6,0.5,3.1,0.7,4.7c0.2,1.6,0.3,3.1,0.4,4.7c0.1,1.6,0.2,3.1,0.3,4.7
	c0.2,3.1,0.3,6.3,0.4,9.4c0.1,3.1,0.1,6.3,0,9.4l-0.4,0c-0.6-3.1-1.1-6.2-1.5-9.3c-0.4-3.1-0.8-6.2-1.1-9.4
	c-0.2-1.6-0.3-3.1-0.4-4.7c-0.1-1.6-0.3-3.1-0.3-4.7c-0.1-1.6-0.1-3.1,0-4.7c0.1-1.6,0.2-3.2,0.4-4.8L65,44z"></path><path class="st0" d="M65,44c1.3,2.9,2.4,5.8,3.5,8.8c1.1,3,2.1,6,3.2,8.9c0.5,1.5,1.1,3,1.6,4.5c0.5,1.5,1.1,3,1.6,4.5
	c1.1,3,2.2,6,3.2,9c-0.2,0.1-0.3,0.1-0.5,0.2c-1.5-2.9-2.9-5.8-4.2-8.7c-0.6-1.5-1.3-2.9-1.9-4.4c-0.6-1.5-1.2-3-1.7-4.4
	c-1.1-3-2.2-5.9-3.1-9c-0.9-3-1.7-6.1-2.3-9.2C64.7,44.1,64.8,44,65,44"></path><path class="st7" d="M64.9,43.9c0.7,0.5,1.3,1,1.9,1.6c0.6,0.6,1.2,1.1,1.7,1.7c1.1,1.2,2.1,2.4,3.1,3.6c1.9,2.5,3.6,5.2,5.4,7.9
	c1.7,2.7,3.4,5.4,5,8.2c1.6,2.8,3.1,5.6,4.4,8.6c-0.1,0.1-0.3,0.2-0.4,0.3c-2.6-2.2-4.9-4.5-7-7c-2.1-2.4-4.1-5-6-7.6
	c-1.9-2.6-3.7-5.2-5.1-8c-0.7-1.4-1.4-2.9-2-4.4c-0.3-0.8-0.5-1.5-0.8-2.3c-0.2-0.8-0.4-1.6-0.6-2.4C64.7,44.1,64.8,44,64.9,43.9"></path><path class="st0" d="M56.1,45.3c0.9,0,1.9,0.1,2.9,0.2c0.9,0.1,1.9,0.3,2.8,0.4c0.9,0.1,1.9,0.4,2.8,0.6c0.5,0.1,0.9,0.2,1.4,0.4
	l1.4,0.4c3.7,1.2,7.1,2.9,10.3,5c3.2,2.1,6.2,4.6,8.7,7.5c2.5,2.9,4.7,6.1,6.1,9.6l-0.4,0.2c-2.1-3.1-4.5-6-7.1-8.5
	c-2.7-2.6-5.6-4.8-8.7-6.8c-3.1-2-6.4-3.6-9.8-5L65.3,49c-0.4-0.2-0.9-0.3-1.3-0.5c-0.9-0.3-1.7-0.7-2.6-1c-0.9-0.3-1.8-0.6-2.7-0.9
	c-0.9-0.3-1.8-0.5-2.7-0.9L56.1,45.3z"></path><path class="st8" d="M64.9,43.8c1.5,0.5,2.9,1.2,4.4,1.8c1.4,0.6,2.9,1.3,4.3,2c2.8,1.4,5.6,2.8,8.3,4.4c2.7,1.5,5.5,3.1,8.1,4.8
	c2.7,1.6,5.3,3.3,7.9,5.2l-0.2,0.4c-2.9-1.2-5.8-2.5-8.6-3.8c-2.8-1.4-5.6-2.8-8.4-4.3c-2.8-1.5-5.5-3-8.2-4.7
	c-1.3-0.8-2.7-1.7-4-2.5c-1.3-0.9-2.6-1.8-3.9-2.7L64.9,43.8z"></path><path class="st0" d="M59.9,42.6c1.6-0.1,3.2-0.1,4.7-0.1c1.6,0,3.2,0,4.7,0.1c3.1,0.1,6.3,0.4,9.4,0.7c3.1,0.3,6.2,0.6,9.4,1.1
	c3.1,0.4,6.2,0.9,9.3,1.6l0,0.4c-3.2,0.1-6.3,0.1-9.4-0.1c-3.1-0.1-6.3-0.3-9.4-0.6c-3.1-0.3-6.3-0.6-9.4-1
	c-1.6-0.2-3.1-0.5-4.7-0.7c-1.6-0.3-3.1-0.6-4.6-1L59.9,42.6z"></path><path class="st0" d="M64.8,43.8c3.1,0.6,6.1,1.4,9.2,2.1c3.1,0.8,6.1,1.5,9.2,2.3c3.1,0.8,6.1,1.6,9.2,2.4c3.1,0.8,6.1,1.6,9.2,2.5
	c0,0.1-0.1,0.3-0.1,0.4c-3.2-0.5-6.3-1.1-9.4-1.7c-3.1-0.7-6.2-1.4-9.3-2.2c-3.1-0.8-6.1-1.6-9.1-2.5c-3-0.9-6-1.9-9-3
	C64.7,44.1,64.8,44,64.8,43.8"></path><path class="st0" d="M64.6,43.8c3-1.3,6.1-2.2,9.3-2.8c3.2-0.6,6.4-0.9,9.7-0.8l2.4,0.1l2.4,0.2l2.4,0.3l2.4,0.4
	c3.2,0.6,6.3,1.6,9.3,2.8l-0.2,0.4c-3.1-1-6.2-1.7-9.3-2.2l-2.4-0.3l-2.4-0.2l-2.4-0.1l-2.4-0.1c-3.2,0-6.3,0.2-9.5,0.7
	c-3.1,0.5-6.3,1.2-9.3,2.1L64.6,43.8z"></path><path class="st9" d="M64.7,43.8c3-1,6-1.9,9-2.7c1.5-0.4,3-0.8,4.5-1.2c1.5-0.4,3-0.8,4.6-1.2c3-0.8,6.1-1.5,9.2-2.2
	c3.1-0.7,6.2-1.3,9.3-1.7l0.1,0.4c-3,1-6,1.9-9,2.8c-3,0.8-6.1,1.6-9.1,2.4c-1.5,0.4-3.1,0.7-4.6,1.1c-1.5,0.4-3.1,0.7-4.6,1
	c-3.1,0.7-6.2,1.3-9.3,1.8L64.7,43.8z"></path><path class="st0" d="M63.2,45.9c2.5-2,5.1-3.8,7.8-5.4c2.7-1.6,5.5-3.1,8.3-4.5c2.8-1.4,5.6-2.8,8.5-4.1c2.9-1.3,5.7-2.6,8.7-3.7
	l0.2,0.4c-2.6,1.9-5.2,3.5-7.9,5.2c-2.7,1.6-5.4,3.2-8.2,4.7c-2.8,1.5-5.5,3-8.4,4.3c-2.9,1.3-5.8,2.6-8.8,3.5L63.2,45.9z"></path><path class="st0" d="M55.9,45.9c2.5-2,5.1-3.8,7.8-5.4c2.7-1.6,5.5-3.1,8.3-4.5c2.8-1.4,5.6-2.8,8.5-4.1c2.9-1.3,5.7-2.6,8.7-3.7
	l0.2,0.4c-2.6,1.9-5.2,3.5-7.9,5.2c-2.7,1.6-5.4,3.2-8.2,4.7c-2.7,1.5-5.5,3-8.4,4.3c-2.9,1.3-5.8,2.6-8.8,3.5L55.9,45.9z"></path><path class="st10" d="M63.1,45.3c1.4-3.5,3.6-6.7,6.2-9.6c2.6-2.8,5.6-5.3,8.9-7.3c0.8-0.5,1.6-1,2.5-1.5c0.8-0.5,1.7-0.9,2.6-1.3
	c0.4-0.2,0.9-0.4,1.3-0.6c0.4-0.2,0.9-0.4,1.3-0.5l1.3-0.5l1.4-0.4c3.6-1.2,7.4-1.9,11.2-2.2l0.1,0.4c-3.6,0.9-7.2,2-10.6,3.4
	l-1.3,0.5l-1.3,0.6c-0.4,0.2-0.8,0.4-1.3,0.6c-0.4,0.2-0.8,0.4-1.2,0.6c-0.8,0.4-1.6,0.8-2.4,1.3c-0.8,0.5-1.6,0.9-2.4,1.4
	c-3.1,2-6,4.3-8.6,6.8c-2.7,2.5-5,5.4-7.2,8.4L63.1,45.3z"></path><path class="st0" d="M64.6,43.9c1.4-2.8,3-5.5,4.6-8.2c1.6-2.7,3.3-5.3,5.1-7.9l1.3-2l1.3-1.9c0.9-1.3,1.8-2.6,2.7-3.8
	c1.8-2.5,3.7-5.1,5.7-7.5l0.4,0.2c-1.5,2.8-3.1,5.5-4.7,8.2c-0.8,1.3-1.6,2.7-2.5,4l-1.3,2l-1.3,2c-1.7,2.6-3.5,5.2-5.3,7.8
	c-1.8,2.5-3.7,5.1-5.8,7.5L64.6,43.9z"></path><path class="st11" d="M64.5,44c-0.1-1.7,0.2-3.3,0.5-4.8c0.3-1.5,0.8-3,1.3-4.5c1-3,2.1-5.9,3.3-8.8c1.1-2.9,2.3-5.9,3.5-8.7
	c1.2-2.9,2.5-5.8,3.9-8.6l0.4,0.1c-0.7,3.1-1.5,6.1-2.4,9.2c-0.8,3-1.8,6-2.7,9c-1,3-2,6-3,8.9c-0.5,1.5-1.1,3-1.8,4.4
	c-0.7,1.4-1.5,2.8-2.6,4.1L64.5,44z"></path><path class="st0" d="M72.6,43.9c0,4.2-3.4,7.6-7.6,7.6c-4.2,0-7.6-3.4-7.6-7.6c0-4.2,3.4-7.6,7.6-7.6C69.2,36.3,72.6,39.7,72.6,43.9
	"></path><path class="st12" d="M57.1,62.4c0,0,0.1-1.3,0.8-1.5c0.6-0.2,0.8-0.6,0.9,0.5c0.1,1.1-0.8,2-0.8,2.4s-0.6,1.6-0.6,1.6l-0.9,0.2
	L57.1,62.4z"></path><path class="st13" d="M56.3,66.4c0,0,1.9-3.3,2.2-3.3s1.1-0.8,1,0c-0.1,0.8-0.8,2.1-0.6,2.8c0.2,0.7-2.6,9.7-3,9.8
	c-0.5,0.1-1.8,3.5-2,3.8c-0.2,0.2-0.7,1.8-0.7,1.1S56,70.8,56,70.4C56,70,56.3,66.4,56.3,66.4z"></path><path class="st14" d="M63.8,99c0,0,1,1.9,0.6,2s-1.5,0.3-1.8,0c-0.3-0.3-2.4-2.4-2.6-3.1c-0.2-0.7-0.5-2.5-0.5-2.5s1.4-1.4,1.5-1
	c0.2,0.4,0.5,1.2,1,1.9C62.4,97,63.8,99,63.8,99z"></path><path class="st13" d="M48.5,62.7c0,0-1.4-1.7-1.8-1.8c-0.4,0-0.8,0.7-0.7,0.9c0.1,0.2,0.5,0.3,0.6,0.9c0.1,0.6,0.2,1.4,0.2,1.4
	L48.5,62.7z"></path><path class="st14" d="M53.6,79c-0.1-0.5,0.5-6.1,0-7.5c-0.5-1.4-1.4-9.5-1.7-10.1s-0.9-1.3-1.2-1.1c-0.3,0.2-0.5,0.1-0.5,0.8
	s0.2,3,0.4,3.5c0.2,0.4,1.8,5.5,1.9,6.5c0.1,1,0.4,5.2,0.4,5.7c0,0.5,0.2,2.7,0.2,2.7L53.6,79z"></path><path class="st13" d="M52.3,78.4c0,0-0.8-8.2-0.9-8.5c-0.1-0.3-1.6-6.2-1.9-6.8c-0.3-0.6-2-1.5-2-1.5S47,61.9,47,62.5s0.8,2.1,1.3,3
	c0.4,0.9,1.9,5.3,2,6c0.1,0.7,0.5,3.2,0.6,3.5S52.3,78.4,52.3,78.4z"></path><path class="st12" d="M51.3,79.2c-0.2-0.1-5.5-11.7-5.7-12.6c-0.1-0.9-0.6-3.9-0.2-4.1c0.4-0.2,1.6,0.1,1.6,0.1s0.5,1.5,0.7,1.9
	c0.2,0.4,2.1,4.9,2.4,6c0.2,1.1,0.7,4.1,0.8,4.6c0.2,0.5,0.9,2.4,0.9,2.4l0.1,1.8H51.3z"></path><path class="st14" d="M50.8,79.2c-0.1-0.4-4.6-9.5-4.9-9.9s-2.7-4.8-2.7-4.8s0.5-0.6,0.9-0.4c0.4,0.2,1.2,0.4,2,1.9
	c0.9,1.5,2.8,5.4,2.9,6.1s1.5,4.8,1.8,5.1s1.1,2,1.1,2H50.8z"></path><path class="st12" d="M41,67.5c0,0-1.9-1.6-2.3-1.8c-0.4-0.1-1.4-0.7-1.8,0c-0.4,0.7,0.4,1.5,1.1,2.2c0.7,0.7,2.4,2.5,2.7,2.9
	s1.5,1.5,2.5,2.3c1,0.8,1.5,1.4,2,1.2c0.5-0.2,0.3,0,0-0.7s-2.8-4.5-3-4.8C42,68.5,41,67.5,41,67.5z"></path><path class="st14" d="M40.7,70.8c0,0-2-1.1-3.7-1.7c-1.6-0.5-1.6-1.1-2.1-0.5c-0.5,0.5-1.9,0.4,0.2,1.8s9.9,6.8,10.8,7.3
	c0.9,0.4,2.8,1.6,3.1,1.8c0.3,0.2,2.4,1.4,2.2,1.1c-0.2-0.2-3.8-3.5-4.3-3.8C46.5,76.6,40.7,70.8,40.7,70.8z"></path><path class="st14" d="M50,77.3c-0.1-0.1-5.4-8.6-5.8-9.2c-0.5-0.6-2.4-3.2-2.9-3.6c-0.5-0.3-1.2-0.1-1.3,0c-0.1,0.1,0.1,0.3,0,0.8
	c-0.1,0.4-0.5,0.2-0.2,1c0.2,0.8,0,1,1.1,2.5s2.4,2.4,4.5,4.6c2.1,2.3,5.5,6.2,5.5,6.2l0.5-0.6L50,77.3z"></path><path class="st13" d="M51.9,79.8c0-0.6-3-3.2-3.7-3.5c-0.8-0.3-3.6-3.7-4.1-4c-0.5-0.3-3.3-2.1-3.6-2.3c-0.3-0.3-0.6-1-1.2-0.8
	c-0.6,0.2-1.3,0.1-0.9,0.8c0.4,0.7,1.8,2.5,2.9,3.2c1.1,0.7,4.4,2.4,4.8,2.8c0.4,0.3,5,2.7,4.9,3.3C50.8,79.8,51.9,79.8,51.9,79.8z"></path><path class="st14" d="M51.9,82.7c0,0-6.8-2.1-8.4-2.4s-5.2-0.3-7.1-0.5c-1.9-0.1-3.5,0.2-4.4-0.2c-0.8-0.4-1.6-0.6-1.7-1.1
	c-0.1-0.5-0.5-1.1,0.4-1.3c0.9-0.2,2.9-0.3,5.3,0s11,2.6,12,3c1,0.5,3.2,1.3,3.2,1.3L51.9,82.7z"></path><path class="st13" d="M52.7,81.8c0,0-9.7-3.8-10.6-4.1s-6.4-1.4-8.3-1.4c-1.9,0-2.2-0.1-2.3,0.3c-0.1,0.4-3,0.9,0.6,1.2
	c3.6,0.3,9.7,1.1,11.2,1.4c1.5,0.3,4.6,1.8,5.7,1.9C50,81.3,52.7,81.8,52.7,81.8z"></path><path class="st13" d="M50.2,82.4c0,0-3.4-0.3-5-0.3c-1.6,0-8.1,1.9-8.7,2s-1.9,1.4-2.4,1.5c-0.4,0.1-2.4,1.6-2.4,1.9
	s-0.3,1.4,0.4,1.2c0.7-0.2,2.6-1.6,4.5-1.9s4.8-1.4,6.4-1.7c1.6-0.3,4.3-1,4.7-1.1c0.4-0.1,1.1-0.3,2.1-0.2c1,0,2.3-0.2,2.3-0.2
	L50.2,82.4z"></path><path class="st14" d="M52.7,82.7c0,0-5.6-1.7-6.5-1.7c-0.9,0-4.6-0.1-5.9,0c-1.3,0.1-6,0.3-6.8,0.3c-0.8,0-1.4,0.2-1.8,0.5
	c-0.5,0.3-0.5,0.3-0.5,0.6c0,0.2-0.2,1,0.8,1c1,0,1.4,0.4,4.1,0s4-1.2,6.1-1.1c2.1,0,3.9-0.2,5.1,0c1.2,0.2,2.2,0,2.9,0.2
	S52.7,82.7,52.7,82.7z"></path><path class="st14" d="M49.6,84.5c0,0-8.7,2.6-9,2.8c-0.4,0.1-6.3,2.2-7.2,2.3c-0.9,0.1-1.7-0.2-1.4-0.8s0.3-1.1,2-1.8
	c1.8-0.7,7.7-2.3,9.2-2.5c1.5-0.2,4-0.9,4.8-0.9c0.8,0,3.1,0.2,3.1,0.2l0.5,0.5L49.6,84.5z"></path><path class="st13" d="M50.9,85.1c0,0-5.7,1.7-7,2.5s-6.1,3-7,3.4c-0.9,0.3-3.2,0.8-3.6,0.8s-1.3,0.3-0.9-0.5
	c0.4-0.8,1.4-1.5,2.7-2.1c1.3-0.6,7.9-2.9,9.7-3.4c1.9-0.5,4.4-1.1,4.8-1.2s2.9-0.2,2.9-0.2L50.9,85.1z"></path><path class="st14" d="M41.2,96.2c-0.2,0.2-1,1.7-0.9,2.2c0.1,0.5-0.3,1.2,0.5,1c0.7-0.2,1.3-0.9,1.7-1.6c0.3-0.7,1-1.3,1.1-2
	c0-0.7,0.2-1.6,0-1.5C43.2,94.3,41.2,96.2,41.2,96.2z"></path><path class="st14" d="M50.8,85.1c0,0-4.7,1.5-4.8,1.6c-0.1,0-5.9,4-6.8,4.5s-2,1.4-2.1,2s-1.5,2.4,0.5,1.1c2.1-1.3,5.9-4.5,6.8-5.1
	s2.3-1.3,3.2-1.7c0.9-0.4,3.6-1.1,3.7-1.3c0.2-0.2,0.6-0.8,1-1C52.6,84.9,50.8,85.1,50.8,85.1z"></path><path class="st13" d="M51.5,86.2c-0.4,0.1-6.8,6.9-6.9,7.3c-0.1,0.4-4.5,4.9-5.1,5.3c-0.5,0.4-0.9,0.7-1.6,0.7
	c-0.7,0-1.4-0.4-0.7-1.3c0.7-0.9,3-4.8,4.7-6.2c1.7-1.4,5.8-4.5,5.8-4.5s1.3-0.9,1.8-1.3c0.5-0.4,1.4-1,1.4-1L51.5,86.2z"></path><path class="st12" d="M51.1,88.1c0,0-5,5.4-5.5,6.4c-0.6,1-2.8,5.6-3.2,5.8s-0.8,0.8-1.3,0.6c-0.5-0.2-0.4-1.7,0-2.7
	s1.6-2.7,2.4-3.9c0.8-1.3,4.1-5,4.6-5.4c0.5-0.4,1.3-1.3,2.1-1.7c0.8-0.4,2.7-2,2.7-2s-0.3,0.9-0.4,1.2
	C52.3,86.5,51.1,88.1,51.1,88.1z"></path><path class="st14" d="M52.5,86.9c0,0-2.6,6-3.2,6.8s-0.6,0.6-1.2,2.2s-2.4,5.9-2.5,6.3c-0.1,0.4-1.5,1.5-1.5,1.4
	c-0.1,0-0.6-1.5-0.5-1.9c0.2-0.4,2.5-6.2,3.1-7.5c0.5-1.2,3.3-5.8,3.4-6.2c0.1-0.5,1.2-1.9,1.2-1.9l1.6-1L52.5,86.9z"></path><path class="st14" d="M54.3,86.2c0,0-0.1,4.2-0.2,6.9c-0.1,2.6,1.2,8.9,1.2,8.9s-0.1,1.3-0.6,1.1c-0.6-0.1-0.4,0.2-1-0.7
	c-0.6-0.9-1.3-9.1-1.3-10.1s0.3-4.4,0.4-4.6c0.1-0.2,0.4-1.5,0.4-1.5H54.3z"></path><path class="st13" d="M52.4,85.1c0,0-2.7,9.5-3,10.9s-0.1,7.2,0,7.6s0.9,1,1.2,0.7c0.3-0.3,1.8-3.1,1.8-3.3c0-0.3,1.5-9,1.2-10
	c-0.3-1-0.1-4.8-0.1-4.8L52.4,85.1z"></path><path class="st13" d="M53.9,86.8c-0.1,0.2,1.1,5.5,2.2,7c1.1,1.5,4.8,7.4,5.3,7.7s1.5,0.8,1.8,0.8s0.8-0.4,0.7-0.8
	c-0.1-0.3-1.2-2.7-1.8-3.2s-3.7-6-3.9-6.4c-0.2-0.4-2.7-4.5-2.7-4.7s-0.6-1.6-0.6-1.6L53.9,86.8z"></path><path class="st12" d="M55.7,85.7c0,0,3.9,6.2,4.1,6.6c0.2,0.4,2.9,3.5,3.2,4c0.4,0.5,2.5,2.4,2.7,2.7c0.2,0.3,0.6,0.8,0,0.8
	c-0.6,0-2.3-0.2-3.3-1c-1-0.8-3.9-5-4.1-5.4c-0.1-0.5-2.6-5.2-2.6-5.4c0-0.2-1.3-3-1.3-3L55.7,85.7z"></path><path class="st14" d="M56.7,85.5c0,0,4.8,6.9,5.6,7.6c0.8,0.6,3,2.3,3.5,3.1c0.5,0.8,0.8,1.1,0.5,1.3c-0.3,0.2,0.4,1.1-1.4,0
	c-1.8-1.1-4.2-4.8-4.4-4.9c-0.2-0.1-3.7-4.4-3.8-4.8c-0.1-0.5-1.4-2.5-1.4-2.5v-1.2L56.7,85.5z"></path><path class="st14" d="M69.6,89.3c0.3,0.2,2.9,1.3,3.1,1.8s0,1.4-0.4,1.5c-0.4,0.1-0.8-0.3-2.2-0.8c-1.4-0.5-4.5-2.5-5-2.5
	c-0.5,0-3.5-0.9-3.5-0.9s0-0.3,1.6-0.3s3.6,0,4,0.2C67.5,88.4,69.6,89.3,69.6,89.3z"></path><path class="st14" d="M56.7,85.5c0,0,6.3,5.3,7.5,5.9c1.2,0.6,4.2,2.2,4.3,2.5c0.1,0.3,1.1,1.2,0.7,1.5c-0.3,0.3-0.8,1.2-2.4,0
	c-1.6-1.2-4.5-3.3-4.5-3.3l-4.6-4.3l-2.1-2.1L56.7,85.5z"></path><path class="st13" d="M56.3,83.9c0,0,6.3,4.5,7.6,4.9s5,1.4,5.8,1.9c0.8,0.5,1.6,1,1.4,1.4c-0.3,0.4-1.4,1-2.6,0.5s-6.9-3.2-7.1-3.5
	c-0.3-0.3-5.8-4.1-6.3-4.1c-0.4,0-1-2.1-1-2.1L56.3,83.9z"></path><path class="st12" d="M57,83.3c0,0,3.5,3.2,5.9,3.4s6.9,1.5,7.6,1.9c0.7,0.4,1.1,0.9,1,1.1c-0.1,0.2,0.9,0.9-1.5,0.5
	s-8.2-2.5-8.7-2.8c-0.5-0.3-4.5-3-4.5-3l-2.2-2.2L57,83.3z"></path><path class="st14" d="M57.6,83.1c0,0,6.1,3.2,6.6,3.3c0.5,0.1,4.6,0.7,5.5,1s2.7,0.7,3.3,0.5c0.6-0.2,1.3-0.7,1.1-1
	c-0.1-0.3-2.1-0.9-2.6-1.1c-0.5-0.1-9.8-1.5-10.3-1.9c-0.5-0.4-3-1.1-3.1-1.3c-0.1-0.2-1.8-0.9-1.8-0.9L57.6,83.1z"></path><path class="st12" d="M58.1,82.7c0,0,2.3,0.2,4.3,0.2c2.1,0,7.5-0.1,9.1,0c1.6,0.1,2.2,0.3,2,0.7s1.3,0.9-1.1,1.1
	c-2.4,0.1-7.1-0.1-8.6-0.3s-3.4-0.5-4-0.6s-3.5-0.8-3.5-0.8L58.1,82.7z"></path><path class="st14" d="M58.2,83.4c1.6,0.2,6.6,2.8,7.9,2.7c1.3,0,3-0.4,2.5-0.7c-0.4-0.2,0.5-0.1-2.2-0.6s-5.2-0.9-5.2-0.9l-2.1-0.9
	l-3.4-0.6L58.2,83.4z"></path><path class="st13" d="M55.3,80.7l2.1-1.6c2.7-1.5,8.8-3.3,10.1-3.3s2-0.1,2.9,0s1.9,0.5,1.9,0.5s0.3,0.4-1,0.8
	c-1.3,0.4-2.5,0.6-4.2,0.6c-1.6,0-2.8,0.6-4.1,0.9c-1.3,0.3-2.6,0.1-3.1,0.5c-0.5,0.4-2.7,1.3-2.7,1.3s5.5-3.1,7.6-3.5
	c2.1-0.4,6.9-0.8,7.5-0.6c0.6,0.1,2.4-0.2,2.3,0.6c-0.1,0.8-0.2,1.5-1.5,1.4s-4.5,0.2-5.2,0.3c-0.7,0.1-4.3,0.7-5.2,0.9
	c-1,0.1-3.5,1.1-4.1,1.1c-0.6,0-0.7,0.4-1.3,0.4s-1.5,0.2-1.5,0.2c1-0.2,9.4-1.4,11.6-1.8c2.2-0.5,4.4-0.3,5-0.5
	c0.6-0.1,1,0,1.4,0.1c0.4,0.1,0.8,0.4,0,1c-0.8,0.6-3.4,1.9-5.4,2.1c-2,0.1-8.8,0.4-10.3,0.4c-1.4,0-3.6-0.5-3.6-0.5l0.9-0.8"></path><path class="st14" d="M55.3,79.1c0,0,5.4-2.7,6.2-3.5c0.8-0.8,4.3-3.4,4.7-4.4s1.9-1.9,2.4-2c0.6-0.1,1.7-0.3,1.4,0.4
	c-0.3,0.7-1.7,2.4-2.2,2.9c-0.5,0.5-5.3,3.3-5.7,3.7c-0.5,0.4-2.6,2.2-3.1,2.3s-1.7,1.6-2,1.4C56.8,79.6,55.3,79.1,55.3,79.1z"></path><path class="st13" d="M55.7,78.6c0.3-0.4,2.9-2,4.5-3.8s3.4-3.3,3.9-4c0.5-0.7,4.3-2.7,4.5-2.8c0.2-0.1,1-0.5,1.1,0
	s-0.2,1.4-0.5,1.5c-0.2,0.1-5.7,4.3-6.1,4.6c-0.4,0.3-2.2,1.3-3,2s-4.2,3.4-4.2,3.4s-0.6,0.2-1,0.3C54.8,79.9,55.7,78.6,55.7,78.6z"></path><path class="st14" d="M55,77.9c0.3-0.4,4.8-4,6.2-6.8c1.4-2.8,3.6-5.3,4-5.8c0.4-0.4,0.6-0.6,0.8-0.4c0.2,0.1,0.8,0.8,0.4,1.3
	c-0.4,0.5-4.4,5.9-4.9,6.1c-0.4,0.2-5.8,6.3-5.8,6.3l-1.5,1.2L55,77.9z"></path><path class="st12" d="M54.8,77.3c0-0.2,4.6-12,4.9-12.4s1.5-0.6,1.6-0.5s0.8,0.3,0,1.8c-0.8,1.5-3.3,7.6-3.9,8.2s-2.3,2.9-2.4,3.5
	c-0.1,0.6-0.8,1.9-0.8,1.9l-1.2-0.3L54.8,77.3z"></path><path class="st14" d="M53.1,80.1c0-0.1,2.4-12.7,2.3-13.2c-0.1-0.4,0.2-3.4,0.4-3.8c0.1-0.4,0.3-1.2,0.5-1.4c0.2-0.2,0.1-0.5,0.5,0
	c0.4,0.5,0.8,2.3,0.6,3.7s-0.8,4.6-0.9,5.4s-2.4,6.3-2.2,6.6s-0.4,3.3-0.4,3.3L53.1,80.1z"></path><path class="st14" d="M53.9,80.7c0.4-1.3,5.7-11.7,5.7-12.3c0-0.6,1.8-3,1.9-3.2c0.1-0.2,0.7-1,0.9-0.3c0.2,0.7,0.3,2.4,0,2.9
	c-0.3,0.5-3.4,4.8-3.7,5.5s-2.2,3.3-2.5,3.8c-0.3,0.5-2,3.9-2,3.9l-1.2-0.1"></path><path class="st15" d="M54.2,76.4c0.5,0.4,0,0.6,1.5,1.2s1.7,0.2,2.3,1.5c0.6,1.3,0.8,0.3,0.6,2.4c-0.1,2-0.3,2-0.5,3.2
	s0.6,1.3-0.3,2c-0.9,0.7,0.8,1.2-1.4,1.5c-2.1,0.3-2.7,0.3-3.2,0.3c-0.5,0-0.8,0.4-2.1,0c-1.3-0.4-2.7-0.9-3.1-1.4
	c-0.4-0.5-0.5-1.2-0.9-1.8s-0.7-0.5-1-1.7c-0.2-1.2-0.3-2.1-0.2-2.6s-0.4-1.1,0.8-1.9c1.2-0.8,1.3-1.3,1.9-1.6s1.7-1.3,2.5-1.3
	c0.8,0,1.1-0.1,1.5,0C53.1,76.3,54.2,76.4,54.2,76.4z"></path><path class="st16" d="M52.6,78c0.3,0.1,0.6,0.4,1,0.2c0.4-0.2,0.5-0.3,0.8-0.2s-0.1,0.6,0.4,1c0.5,0.4,0.1,0.3,0.8,0.3
	c0.7,0,0.7-0.1,0.8,0.3c0.1,0.4,0.3,1.1,0.6,1.3c0.3,0.2,0.6,0.4,0.4,0.7s-0.6,0.5-0.3,0.8c0.3,0.3,1.1,0.5,0.4,1.2
	c-0.7,0.7-1.2,0.9-1.2,1.1s0.4,0.5,0,0.8s0,0.2-0.5,0.7c-0.5,0.5-0.5,0.8-1.1,0.6c-0.6-0.1-0.9-0.1-0.9,0.3s0.3,1-0.6,0.6
	c-1-0.4-1.1-0.5-1.5-0.8c-0.4-0.2-0.3-0.6-0.8-0.2c-0.5,0.3-0.6,0.8-1,0.1c-0.4-0.6-0.3-0.9-0.2-1.3s0.5-0.8,0-0.9
	c-0.6,0,0,0.2-0.6,0s-1.3-0.4-0.7-0.6c0.5-0.2,1.5-0.3,0.8-0.6s-1.6-1.1-1.3-1.1c0.3,0,0.7,0.1,0.9-0.5s-0.3-0.3,0.2-1.3
	s0.3-0.8,0.9-1c0.5-0.2,0.4-0.4,0.9-0.8s-0.3,0,0.5-0.4C51.8,78.2,52.6,78,52.6,78z"></path><line class="st17" x1="56" y1="79.2" x2="55.8" y2="79.8"></line><line class="st17" x1="55.6" y1="79.2" x2="55.4" y2="79.5"></line><line class="st17" x1="54.6" y1="78.3" x2="54.1" y2="79.5"></line><line class="st17" x1="53.6" y1="78" x2="53.8" y2="78.9"></line><line class="st17" x1="54.1" y1="81.3" x2="55.4" y2="81.1"></line><line class="st17" x1="55.8" y1="81.5" x2="57.2" y2="81.3"></line><line class="st17" x1="56" y1="80.3" x2="56.6" y2="80.8"></line><line class="st17" x1="54.7" y1="82.1" x2="55.6" y2="81.9"></line><line class="st17" x1="55.2" y1="82.5" x2="55.8" y2="82.2"></line><line class="st17" x1="56.2" y1="82.5" x2="57.3" y2="82"></line><path class="st17" d="M55.6,83.5c0.1,0,1.1-0.4,1.1-0.4"></path><line class="st17" x1="56.8" y1="83.5" x2="57.3" y2="83.5"></line><path class="st17" d="M57.2,83.9c0,0.1-0.8,0.1-0.9,0.1c-0.1,0-0.8-0.1-0.8-0.1"></path><line class="st17" x1="55.8" y1="84.4" x2="55.9" y2="84.9"></line><path class="st17" d="M55.1,85.5l0.5,0.4l-0.3-0.7c0,0-0.5-0.6-0.6-0.5c-0.3,0.3-0.1,1.3-0.1,1.3l0.7,0.8"></path><line class="st17" x1="53.6" y1="84.1" x2="54.4" y2="84.4"></line><line class="st17" x1="53.7" y1="83.8" x2="53.2" y2="83"></line><line class="st17" x1="53.5" y1="81.5" x2="53.2" y2="82.6"></line><line class="st17" x1="54" y1="82.6" x2="54.7" y2="83"></line><line class="st17" x1="54" y1="81.9" x2="53.7" y2="82.2"></line><path class="st17" d="M53.8,79.7c-0.1,0.1-0.4,0.8-0.4,0.8"></path><polyline class="st17" points="54.3,79.8 54.6,80.8 55.9,80.8 "></polyline><path class="st17" d="M52.2,78.4c0,0.1,0,0.5,0.3,0.8c0.3,0.3,0.2,0.4,0,0.5"></path><path class="st17" d="M50.8,78.1c0.1,0.3,0.2,0.8,0.3,0.8c0,0,0.5,0.1,0.5,0.1"></path><line class="st17" x1="50.3" y1="79.5" x2="49.9" y2="78.9"></line><path class="st17" d="M49.5,80.3c0,0,0.8,0.2,0.8,0.5s0.5,0.5,0.5,0.5"></path><path class="st17" d="M49.3,80.8c-0.1-0.1-0.6-0.5-0.6-0.5"></path><line class="st17" x1="50.5" y1="84.4" x2="50.5" y2="85.3"></line><path class="st17" d="M50.8,85.6c0,0.1,0.2,0.5,0.2,0.6"></path><path class="st17" d="M51.6,85.1c0,0,0.1,0.6,0.1,0.7s0.3,0.4,0.3,0.4"></path><path class="st17" d="M52.3,84.1c0,0,0.3,1.2,0.3,1.2c0,0,0.5,0.2,0.6,0.3c0.1,0.1,0.3,0.1,0.3,0.1s-0.2-1.3-0.1-1.1
	s0.3,0.6,0.3,0.6"></path><path class="st17" d="M54.3,86.1c0.1,0.3,0.2,0.4,0.2,0.4"></path><path class="st17" d="M52.7,86.7c0.3,0.2,1,0.5,1,0.5"></path><line class="st17" x1="53" y1="87.5" x2="52.9" y2="88"></line><path class="st17" d="M50.9,87c0.2,0.1,0.8,0.5,0.8,0.5"></path><line class="st17" x1="50.7" y1="87.8" x2="51.3" y2="87"></line><path class="st17" d="M49.9,86.5c0,0-0.5,0.6-0.4,0.7"></path><line class="st17" x1="49.7" y1="84.8" x2="49.3" y2="85"></line><path class="st17" d="M50.9,83.2c0,0-0.4,0.5-0.4,0.5"></path><path class="st17" d="M50.1,83c-0.1,0.2-0.7,0.6-0.9,0.7c-0.2,0.2-0.6,0.1-0.6,0.1l-0.4,0.3"></path><line class="st17" x1="48.6" y1="82.5" x2="49" y2="82.8"></line><line class="st17" x1="48.2" y1="83.2" x2="48.9" y2="83.4"></line><path class="st17" d="M49.1,81.1c0.1,0.1,0.8,0.2,0.8,0.2"></path><path class="st17" d="M49.5,81.6c0.2,0.1,0.9,0.5,0.9,0.5"></path><path class="st17" d="M50.8,81l0.8,0.8c0,0-0.5-0.1-0.8-0.1"></path><polyline class="st17" points="51.4,80.8 52,81.4 52.2,81.7 "></polyline><path class="st17" d="M52.2,83c-0.1,0-0.2,0.7-0.2,0.7"></path><path class="st17" d="M52.5,83.6c0,0.1,0.3,0.3,0.3,0.5"></path><polyline class="st17" points="52.6,82.4 51.7,82.5 50.9,83 "></polyline><line class="st17" x1="52.6" y1="81.3" x2="52.8" y2="80.8"></line><path class="st17" d="M53.2,78.9c0,0.2,0,0.9,0,0.9l-0.3,0.3"></path><path class="st17" d="M51.7,80.1c0,0-0.3-0.4-0.3-0.4"></path><line class="st17" x1="49.3" y1="79.9" x2="48.6" y2="79.5"></line><line class="st17" x1="50.8" y1="82.4" x2="49.8" y2="82.6"></line><line class="st17" x1="49" y1="84.6" x2="50.1" y2="83.7"></line><path class="st17" d="M51.6,83.7c-0.1,0.2-0.2,0.8-0.3,1"></path><path class="st17" d="M51.2,83.7c-0.1,0.1-0.3,0.5-0.3,0.5"></path><path class="st17" d="M54.5,83.6c0.2,0.1,0.6,0.3,0.6,0.3"></path><path class="st12" d="M99.6,51.5c0,0,1.2,0,1.5-0.5c0.3-0.6,0.7-0.7-0.3-0.9c-1-0.2-2,0.5-2.3,0.5c-0.4-0.1-1.6,0.4-1.6,0.4
	l-0.3,0.8L99.6,51.5z"></path><path class="st13" d="M95.7,51.8c0,0,3.3-1.4,3.4-1.6c0.1-0.2,0.9-0.9,0.1-0.9c-0.8,0-2.1,0.5-2.7,0.2c-0.6-0.2-9.5,1.2-9.6,1.6
	c-0.2,0.4-3.5,1.2-3.8,1.4s-1.7,0.4-1.2,0.5c0.6,0.1,9.6-1.4,10-1.4C92.2,51.6,95.7,51.8,95.7,51.8z"></path><path class="st14" d="M66.1,40.5c0,0-1.6-1.1-1.8-0.8c-0.1,0.3-0.5,1.4-0.2,1.7c0.3,0.4,2,2.5,2.6,2.9c0.6,0.3,2.2,0.8,2.2,0.8
	s1.5-1.1,1.2-1.3c-0.4-0.2-1.1-0.6-1.7-1.2C67.7,42,66.1,40.5,66.1,40.5z"></path><path class="st13" d="M98.2,59.6c0,0,1.5,1.5,1.4,2c0,0.4-0.7,0.6-0.9,0.5c-0.2-0.1-0.2-0.5-0.8-0.7c-0.5-0.2-1.2-0.4-1.2-0.4
	L98.2,59.6z"></path><path class="st14" d="M83.5,52.7c0.5,0.2,5.8,0.3,7,1c1.2,0.7,8.8,2.6,9.3,3s1.1,1,0.8,1.3s-0.2,0.5-0.8,0.4
	c-0.6-0.1-2.8-0.6-3.2-0.8c-0.4-0.2-4.9-2.4-5.8-2.7c-0.9-0.3-4.8-1.1-5.3-1.2c-0.5-0.1-2.5-0.6-2.5-0.6L83.5,52.7z"></path><path class="st14" d="M83.9,54c0,0,7.6,1.8,7.9,1.9s5.6,2.3,6.1,2.7s1.1,2.1,1.1,2.1s-0.3,0.4-0.9,0.3c-0.6-0.1-1.9-1.1-2.7-1.6
	c-0.8-0.5-4.7-2.5-5.3-2.7c-0.6-0.2-2.9-0.9-3.2-1C86.5,55.6,83.9,54,83.9,54z"></path><path class="st12" d="M83,54.8c0.1,0.2,10.3,6.7,11.1,7s3.6,1.1,3.8,0.7c0.3-0.4,0.1-1.5,0.1-1.5s-1.3-0.7-1.7-0.9
	c-0.3-0.2-4.3-2.6-5.3-3s-3.8-1.2-4.3-1.4s-2.1-1.2-2.1-1.2l-1.6-0.3L83,54.8z"></path><path class="st14" d="M83,55.2c0.4,0.2,8.3,5.6,8.6,5.9c0.3,0.3,4.2,3.2,4.2,3.2s0.7-0.4,0.5-0.8c-0.1-0.4-0.3-1.1-1.5-2.2
	c-1.3-1-4.7-3.3-5.4-3.5c-0.7-0.2-4.3-2-4.6-2.3s-1.7-1.3-1.7-1.3L83,55.2z"></path><path class="st12" d="M92.7,66c0,0,1.3,2,1.4,2.4c0.1,0.4,0.5,1.4-0.2,1.7c-0.7,0.3-1.4-0.6-1.9-1.3c-0.5-0.8-2-2.5-2.3-2.9
	c-0.3-0.4-1.2-1.6-1.8-2.6c-0.6-1-1.1-1.6-0.9-2.1c0.2-0.5,0-0.3,0.7,0.1s3.9,3.2,4.1,3.5S92.7,66,92.7,66z"></path><path class="st14" d="M89.5,65.8c0,0,0.8,2.1,1.1,3.7s0.8,1.7,0.2,2.1c-0.6,0.4-0.6,1.7-1.7-0.5C88.1,68.9,84,60.9,83.7,60
	s-1.1-2.8-1.3-3.2c-0.2-0.3-1-2.4-0.8-2.2c0.2,0.2,2.8,4,3,4.5S89.5,65.8,89.5,65.8z"></path><path class="st14" d="M84.6,56.3c0.1,0.1,7.4,6.2,7.9,6.7c0.5,0.5,2.7,2.7,3,3.2c0.3,0.5,0,1.1-0.2,1.2c-0.1,0.1-0.3-0.2-0.7-0.1
	c-0.4,0.1-0.3,0.4-1,0.1c-0.7-0.3-1-0.1-2.2-1.4c-1.3-1.3-1.9-2.6-3.8-4.8s-5.1-6-5.1-6l0.6-0.4L84.6,56.3z"></path><path class="st13" d="M82.6,54.1c0.5,0.1,2.6,3.2,2.8,4c0.2,0.8,3,3.9,3.2,4.4c0.2,0.5,1.5,3.4,1.7,3.7c0.2,0.4,0.8,0.7,0.6,1.3
	s-0.2,1.2-0.9,0.8c-0.6-0.5-2.1-2-2.6-3.2c-0.5-1.2-1.7-4.4-2-4.8s-1.9-5-2.4-5C82.4,55.2,82.6,54.1,82.6,54.1z"></path><path class="st14" d="M79.8,53.7c0,0,1.1,6.7,1.2,8.2c0.1,1.5-0.4,4.9-0.5,6.7c-0.1,1.8-0.6,3.3-0.3,4.1c0.3,0.8,0.4,1.6,0.8,1.8
	c0.4,0.2,0.9,0.6,1.2-0.2s0.7-2.6,0.7-5c0-2.4-1-10.7-1.3-11.7c-0.3-1-0.8-3.1-0.8-3.1L79.8,53.7z"></path><path class="st13" d="M80.8,53.1c0,0,2.3,9.6,2.5,10.5c0.2,1,0.4,6.2,0.2,8c-0.2,1.8-0.2,2-0.6,2.1c-0.4,0.1-1.2,2.7-1-0.7
	c0.2-3.4,0.3-9.3,0.2-10.7c-0.1-1.4-1.1-4.6-1.1-5.6C80.9,55.7,80.8,53.1,80.8,53.1z"></path><path class="st13" d="M79.8,55.4c0,0-0.1,3.2-0.4,4.8c-0.3,1.5-2.8,7.3-3,7.9c-0.2,0.5-1.6,1.6-1.8,2c-0.2,0.4-1.8,2.1-2.1,2
	c-0.3,0-1.3,0.1-1-0.5s1.8-2.2,2.4-3.9s1.9-4.3,2.4-5.8c0.5-1.5,1.5-3.9,1.7-4.3c0.2-0.4,0.4-1,0.5-1.9s0.5-2.1,0.5-2.1L79.8,55.4z"></path><path class="st14" d="M79.9,53c0,0,0.9,5.4,0.7,6.3s-0.5,4.3-0.8,5.5c-0.3,1.2-1.1,5.6-1.2,6.3c-0.1,0.7-0.4,1.2-0.7,1.7
	c-0.3,0.4-0.4,0.5-0.6,0.4c-0.2,0-0.9,0.1-0.9-0.9s-0.2-1.3,0.5-3.8c0.8-2.5,1.6-3.6,1.9-5.6c0.3-2,0.7-3.6,0.7-4.8
	c0-1.1,0.3-2.1,0.2-2.7C79.7,54.9,79.9,53,79.9,53z"></path><path class="st14" d="M77.8,55.7c0,0-3.6,7.8-3.8,8.1c-0.2,0.3-2.9,5.7-3.1,6.5c-0.2,0.8,0,1.6,0.5,1.4c0.6-0.2,1.1-0.1,1.9-1.7
	s3.2-7,3.6-8.3c0.4-1.3,1.4-3.7,1.5-4.4c0.1-0.7,0.2-2.9,0.2-2.9l-0.4-0.5L77.8,55.7z"></path><path class="st13" d="M77.4,54.4c0,0-2.3,5.1-3.2,6.2c-0.9,1.1-3.7,5.3-4.1,6.1c-0.4,0.8-1.1,2.9-1.2,3.3c0,0.3-0.4,1.2,0.4,0.9
	c0.8-0.3,1.6-1.1,2.3-2.3c0.7-1.1,3.8-7,4.5-8.7c0.7-1.7,1.6-4,1.8-4.4c0.1-0.4,0.6-2.7,0.6-2.7L77.4,54.4z"></path><path class="st14" d="M65.7,62.1c-0.2,0.2-1.8,0.7-2.2,0.6c-0.4-0.2-1.2,0.1-0.8-0.6c0.3-0.7,1-1.1,1.7-1.4c0.7-0.2,1.3-0.8,2-0.7
	c0.7,0,1.5,0,1.5,0.2C67.7,60.4,65.7,62.1,65.7,62.1z"></path><path class="st14" d="M77.4,54.5c0,0-2,4.2-2.1,4.3c-0.1,0.1-4.5,5-5.2,5.8c-0.6,0.8-1.6,1.7-2.1,1.7s-2.4,1.1-0.9-0.6
	c1.5-1.8,5-4.9,5.7-5.7s1.5-2,2-2.8c0.5-0.8,1.5-3.2,1.7-3.3c0.2-0.1,0.8-0.5,1.1-0.8S77.4,54.5,77.4,54.5z"></path><path class="st13" d="M76.5,53.7c-0.2,0.4-7.4,5.5-7.8,5.5s-5.2,3.6-5.7,4.1c-0.4,0.4-0.8,0.8-0.8,1.4c0,0.6,0.2,1.4,1.1,0.8
	s4.9-2.2,6.4-3.6s5-4.9,5-4.9s1-1.1,1.5-1.5c0.5-0.4,1.1-1.2,1.1-1.2L76.5,53.7z"></path><path class="st12" d="M74.7,53.8c0,0-5.8,3.9-6.7,4.4c-1,0.4-5.6,1.9-5.9,2.2c-0.3,0.4-0.9,0.7-0.8,1.2c0.1,0.5,1.5,0.6,2.5,0.4
	c1-0.3,2.7-1.1,4-1.7c1.3-0.6,5.3-3.2,5.7-3.6s1.4-1.1,1.8-1.8c0.5-0.7,2.3-2.3,2.3-2.3s-0.9,0.2-1.1,0.3
	C76.3,52.8,74.7,53.8,74.7,53.8z"></path><path class="st14" d="M75.9,52.7c0,0-6,1.7-6.8,2.1c-0.8,0.4-0.6,0.5-2.2,0.9s-5.8,1.5-6.2,1.6c-0.4,0.1-1.6,1.2-1.5,1.3
	c0,0.1,1.3,0.8,1.7,0.7c0.4-0.1,6.2-1.6,7.4-1.9c1.2-0.3,5.8-2.3,6.3-2.4c0.5-0.1,2-0.9,2-0.9l1.2-1.4L75.9,52.7z"></path><path class="st14" d="M76.9,51c0,0-4-0.5-6.5-0.7c-2.5-0.3-8.2-2.3-8.2-2.3S61,47.9,61,48.4s-0.2,0.4,0.5,1s8.4,2.4,9.3,2.5
	c0.9,0.1,4.2,0.3,4.4,0.2c0.2-0.1,1.5-0.2,1.5-0.2L76.9,51z"></path><path class="st13" d="M77.6,53c0,0-9.3,1.3-10.6,1.4s-6.8-0.8-7.1-1c-0.3-0.2-0.8-0.9-0.5-1.2c0.3-0.2,3.1-1.3,3.4-1.3
	s8.6-0.2,9.5,0.2c0.9,0.4,4.5,0.7,4.5,0.7L77.6,53z"></path><path class="st13" d="M76.2,51.3c-0.2,0-5-1.8-6.3-3c-1.3-1.2-6.3-5.5-6.5-6s-0.5-1.5-0.5-1.8c0-0.3,0.5-0.7,0.8-0.5
	c0.3,0.1,2.3,1.5,2.8,2.1c0.5,0.7,5.2,4.3,5.5,4.5c0.4,0.2,3.8,3.1,4.1,3.1s1.5,0.8,1.5,0.8L76.2,51.3z"></path><path class="st12" d="M77.5,49.8c0,0-5.3-4.4-5.7-4.7c-0.3-0.2-2.9-3.1-3.3-3.6c-0.4-0.4-1.9-2.7-2.2-2.9c-0.2-0.2-0.7-0.7-0.8-0.1
	c-0.1,0.5-0.1,2.2,0.5,3.2s4.1,4.3,4.6,4.5c0.4,0.2,4.5,3.1,4.7,3.2C75.4,49.5,78,51,78,51L77.5,49.8z"></path><path class="st14" d="M77.8,48.9c0,0-5.9-5.5-6.4-6.3C71,41.8,69.7,39.5,69,39c-0.7-0.6-0.9-0.9-1.1-0.6c-0.2,0.3-0.9-0.5-0.2,1.3
	s4,4.5,4.1,4.8c0.1,0.2,3.6,4,4.1,4.2c0.4,0.1,2.1,1.6,2.1,1.6l1.1,0.2L77.8,48.9z"></path><path class="st14" d="M75.9,36.3c-0.1-0.3-0.8-2.8-1.3-3.1c-0.5-0.3-1.3-0.2-1.5,0.2s0.2,0.8,0.5,2.2s1.7,4.5,1.7,5.1
	c0,0.5,0.4,3.4,0.4,3.4s0.3,0,0.5-1.5c0.2-1.5,0.5-3.4,0.4-3.8C76.5,38.4,75.9,36.3,75.9,36.3z"></path><path class="st14" d="M77.8,48.9c0,0-4.2-6.6-4.6-7.9c-0.4-1.2-1.6-4.2-1.8-4.4c-0.2-0.2-1-1.2-1.3-0.9c-0.3,0.3-1.2,0.6-0.3,2.2
	c0.9,1.7,2.6,4.6,2.6,4.6l3.4,4.9l1.7,2.3L77.8,48.9z"></path><path class="st13" d="M79.2,49.4c0,0-3.4-6.5-3.6-7.8c-0.3-1.3-0.6-4.9-1-5.7c-0.4-0.8-0.7-1.7-1.1-1.5s-1.1,1.2-0.8,2.4
	s2.1,6.9,2.4,7.2c0.2,0.3,3.1,6,3,6.4c-0.1,0.4,1.9,1.2,1.9,1.2L79.2,49.4z"></path><path class="st12" d="M80,48.9c0,0-2.6-3.7-2.4-5.9c0.2-2.2-0.5-6.6-0.8-7.4s-0.7-1.2-0.9-1.1s-0.7-1-0.7,1.3c0,2.3,1.3,8.1,1.5,8.6
	s2.3,4.6,2.3,4.6l1.8,2.4L80,48.9z"></path><path class="st14" d="M80.2,48.3c0,0-2.2-6.1-2.2-6.7c0-0.5-0.1-4.5-0.2-5.3c-0.1-0.8-0.3-2.6,0-3.2s0.8-1.1,1.1-0.9
	c0.3,0.2,0.6,2,0.7,2.6c0.1,0.5,0.1,9.4,0.4,9.9s0.6,3,0.8,3.1c0.2,0.2,0.6,1.8,0.6,1.8L80.2,48.3z"></path><path class="st12" d="M80.6,47.9c0,0,0.1-2.2,0.3-4.1c0.3-2,1.1-7.1,1.2-8.6c0.1-1.5,0-2.1-0.4-1.9s-0.7-1.3-1.1,0.9
	s-0.8,6.7-0.8,8.2s0,3.2,0.1,3.8c0.1,0.6,0.3,3.4,0.3,3.4L80.6,47.9z"></path><path class="st14" d="M79.9,47.8c0-1.6-1.7-6.6-1.5-7.8c0.2-1.2,0.8-2.7,1-2.3c0.2,0.4,0.1-0.4,0.3,2.1c0.2,2.6,0.2,5,0.2,5l0.5,2.1
	l0.1,3.2L79.9,47.8z"></path><path class="st13" d="M82.2,50.8l1.8-1.7c1.7-2.4,4.2-7.9,4.4-9c0.2-1.2,0.4-1.9,0.4-2.7s-0.2-1.9-0.2-1.9s-0.4-0.4-0.9,0.8
	s-0.9,2.3-1.1,3.8s-0.9,2.6-1.4,3.8c-0.4,1.2-0.5,2.5-0.9,2.9s-1.5,2.4-1.5,2.4s3.6-4.8,4.3-6.7c0.6-2,1.6-6.4,1.6-6.9
	c-0.1-0.6,0.5-2.3-0.3-2.2c-0.8,0-1.5,0-1.5,1.3c-0.1,1.3-0.8,4.2-0.9,4.9c-0.2,0.7-1.2,3.9-1.5,4.8c-0.3,0.9-1.5,3.1-1.6,3.7
	c-0.1,0.5-0.4,0.6-0.6,1.2s-0.4,1.3-0.4,1.3c0.4-0.9,2.5-8.6,3.2-10.7c0.7-2,0.9-4.1,1.1-4.7s0.2-1,0.1-1.4s-0.3-0.8-0.9-0.1
	c-0.7,0.6-2.3,3-2.7,4.8c-0.4,1.9-1.6,8.2-1.7,9.6c-0.2,1.3,0,3.5,0,3.5l0.9-0.7"></path><path class="st14" d="M83.7,51c0,0,3.3-4.7,4.1-5.4c0.8-0.7,3.7-3.6,4.8-3.8c1-0.3,2.1-1.5,2.2-2s0.5-1.6-0.2-1.4
	c-0.7,0.2-2.5,1.3-3,1.7s-3.8,4.5-4.2,4.9c-0.4,0.4-2.4,2.2-2.5,2.6c-0.2,0.5-1.7,1.4-1.5,1.7C83.4,49.6,83.7,51,83.7,51z"></path><path class="st13" d="M84.2,50.7c0.4-0.2,2.2-2.5,4.2-3.8c1.9-1.3,3.5-2.7,4.3-3.1s3.1-3.7,3.2-3.9c0.2-0.1,0.6-0.9,0.1-1.1
	c-0.4-0.2-1.3,0-1.5,0.2c-0.2,0.2-4.8,4.8-5.1,5.1c-0.3,0.3-1.5,1.9-2.3,2.6s-3.8,3.5-3.8,3.5s-0.3,0.6-0.4,0.9
	C82.8,51.4,84.2,50.7,84.2,50.7z"></path><path class="st14" d="M84.7,51.4c0.5-0.2,4.4-4,7.2-4.9s5.5-2.7,5.9-3c0.5-0.3,0.6-0.5,0.5-0.7c-0.1-0.2-0.7-0.8-1.2-0.5
	c-0.5,0.3-6.1,3.4-6.4,3.8c-0.3,0.4-6.7,4.6-6.7,4.6l-1.3,1.2L84.7,51.4z"></path><path class="st12" d="M85.3,51.8c0.2,0,11.9-2.8,12.3-3c0.4-0.2,0.7-1.4,0.7-1.4c-0.1-0.1-0.2-0.8-1.7-0.2s-7.6,2.1-8.2,2.6
	c-0.6,0.5-3,1.8-3.6,1.8s-1.9,0.5-1.9,0.5l0.1,1.2L85.3,51.8z"></path><path class="st14" d="M82.4,53c0.1,0,12.3-0.6,12.7-0.4c0.4,0.2,3.2,0.2,3.6,0.1s1.1-0.1,1.4-0.3s0.5,0,0.1-0.5
	c-0.4-0.5-2.1-1.1-3.4-1C95.5,51,92.4,51,91.6,51c-0.8-0.1-6.2,1.4-6.5,1.2S82,52.1,82,52.1L82.4,53z"></path><path class="st14" d="M82,52.1c1.3-0.2,11.7-3.8,12.3-3.8s3.1-1.3,3.3-1.3c0.2-0.1,1-0.5,0.4-0.8s-2.2-0.5-2.7-0.4
	c-0.5,0.2-5,2.5-5.6,2.7c-0.7,0.2-3.4,1.6-3.9,1.9c-0.5,0.2-3.9,1.4-3.9,1.4l0,1.2"></path><path class="st15" d="M86,52.4c-0.3-0.6-0.6-0.1-0.9-1.6c-0.3-1.5,0-1.6-1.2-2.3c-1.1-0.7-0.2-0.8-2.1-0.9c-1.9-0.1-1.9,0-3.1,0.1
	c-1.2,0.1-1.1-0.8-1.9,0c-0.8,0.8-1-0.9-1.6,1.1c-0.6,1.9-0.7,2.4-0.7,2.9c-0.1,0.5-0.5,0.7-0.3,2c0.2,1.3,0.5,2.6,0.9,3.1
	c0.4,0.5,1,0.6,1.6,1.1c0.5,0.4,0.4,0.7,1.5,1.1c1.1,0.4,1.9,0.6,2.4,0.5c0.5-0.1,1,0.6,1.9-0.5s1.3-1.1,1.8-1.6s1.5-1.5,1.5-2.2
	s0.2-1,0.2-1.4C85.9,53.4,86,52.4,86,52.4z"></path><path class="st16" d="M84.3,53.7c-0.1-0.3-0.3-0.6-0.1-0.9c0.3-0.3,0.4-0.5,0.3-0.7c-0.1-0.3-0.6,0-0.9-0.5
	c-0.3-0.5-0.3-0.1-0.2-0.8s0.2-0.6-0.2-0.8c-0.3-0.2-1-0.5-1.1-0.8s-0.3-0.6-0.6-0.5c-0.3,0.1-0.6,0.5-0.8,0.2
	c-0.3-0.3-0.3-1.1-1.1-0.5s-1,1-1.2,1c-0.2,0-0.4-0.4-0.8-0.1c-0.4,0.4-0.2-0.1-0.7,0.4c-0.6,0.4-0.8,0.4-0.7,1
	c0.1,0.6,0,0.9-0.4,0.8c-0.5-0.1-0.9-0.4-0.6,0.5c0.3,1,0.4,1.1,0.5,1.5c0.2,0.4,0.5,0.4,0.1,0.8c-0.4,0.4-0.8,0.5-0.3,0.9
	c0.5,0.4,0.8,0.4,1.2,0.4c0.4,0,0.8-0.4,0.8,0.2s-0.2-0.1,0,0.6c0.1,0.6,0.2,1.2,0.5,0.8c0.3-0.5,0.5-1.4,0.7-0.7
	c0.2,0.7,0.8,1.7,0.8,1.4c0-0.3,0-0.7,0.5-0.8s0.3,0.3,1.3-0.1c1-0.4,0.8-0.2,1.1-0.7c0.3-0.5,0.4-0.3,0.8-0.7
	c0.4-0.4,0,0.3,0.4-0.4C84.1,54.4,84.3,53.7,84.3,53.7z"></path><line class="st18" x1="83.6" y1="50.3" x2="83" y2="50.5"></line><line class="st18" x1="83.6" y1="50.7" x2="83.2" y2="50.9"></line><line class="st18" x1="84.3" y1="51.8" x2="83.1" y2="52.1"></line><line class="st18" x1="84.5" y1="52.8" x2="83.6" y2="52.4"></line><line class="st18" x1="81.4" y1="51.8" x2="81.7" y2="50.7"></line><line class="st18" x1="81.5" y1="50.3" x2="81.8" y2="49"></line><line class="st18" x1="82.6" y1="50.2" x2="82.2" y2="49.6"></line><line class="st18" x1="80.8" y1="51.2" x2="81" y2="50.4"></line><line class="st18" x1="80.4" y1="50.7" x2="80.7" y2="50.2"></line><line class="st18" x1="80.5" y1="49.8" x2="81.2" y2="48.7"></line><path class="st18" d="M79.5,50.1c0-0.1,0.6-1,0.6-1"></path><line class="st18" x1="79.7" y1="49.1" x2="79.7" y2="48.5"></line><path class="st18" d="M79.3,48.6c-0.1,0-0.2,0.7-0.2,0.8c0,0.1,0,0.8,0,0.8"></path><line class="st18" x1="78.7" y1="49.9" x2="78.3" y2="49.7"></line><path class="st18" d="M77.6,50.4l-0.3-0.5l0.6,0.4c0,0,0.5,0.6,0.4,0.6c-0.3,0.2-1.3-0.1-1.3-0.1L76.4,50"></path><line class="st18" x1="78.7" y1="52" x2="78.5" y2="51.2"></line><line class="st18" x1="79" y1="51.9" x2="79.7" y2="52.5"></line><line class="st18" x1="81.2" y1="52.5" x2="80" y2="52.6"></line><line class="st18" x1="80.1" y1="51.8" x2="79.9" y2="51.1"></line><line class="st18" x1="80.8" y1="51.9" x2="80.5" y2="52.1"></line><path class="st18" d="M82.9,52.3c-0.1,0.1-0.8,0.3-0.8,0.3"></path><polyline class="st18" points="82.8,51.9 82,51.4 82.1,50.2 "></polyline><path class="st18" d="M83.8,54.1c-0.1,0-0.5-0.1-0.7-0.3c-0.2-0.3-0.3-0.2-0.5-0.1"></path><path class="st18" d="M84,55.4c-0.2-0.2-0.8-0.3-0.7-0.3c0,0-0.1-0.5-0.1-0.5"></path><line class="st18" x1="82.6" y1="55.7" x2="83.1" y2="56.2"></line><path class="st18" d="M81.7,56.4c0,0-0.1-0.7-0.3-0.8C81.1,55.4,81,55,81,55"></path><path class="st18" d="M81.3,56.5c0.1,0.1,0.4,0.7,0.4,0.7"></path><line class="st18" x1="78" y1="54.8" x2="77.2" y2="54.7"></line><path class="st18" d="M76.9,54.4c-0.1,0-0.5-0.3-0.5-0.3"></path><path class="st18" d="M77.5,53.8c0,0-0.5-0.2-0.7-0.2c-0.1,0-0.4-0.4-0.4-0.4"></path><path class="st18" d="M78.6,53.2c0,0-1.1-0.4-1.1-0.5s-0.1-0.5-0.2-0.6c-0.1-0.1-0.1-0.3-0.1-0.3s1.2,0.3,1,0.3
	c-0.2-0.1-0.6-0.4-0.6-0.4"></path><path class="st18" d="M76.9,51.1c-0.2-0.1-0.4-0.3-0.4-0.3"></path><path class="st18" d="M76.1,52.5c-0.1-0.3-0.3-1-0.3-1"></path><line class="st18" x1="75.4" y1="52.1" x2="74.9" y2="52.2"></line><path class="st18" d="M75.7,54.1c-0.1-0.2-0.3-0.8-0.3-0.8"></path><line class="st18" x1="74.9" y1="54.2" x2="75.7" y2="53.8"></line><path class="st18" d="M75.9,55.2c0,0-0.6,0.4-0.7,0.3"></path><line class="st18" x1="77.6" y1="55.6" x2="77.3" y2="55.9"></line><path class="st18" d="M79.2,54.6c0,0-0.5,0.3-0.5,0.3"></path><path class="st18" d="M79.3,55.4c-0.2,0.1-0.6,0.6-0.8,0.7s-0.2,0.6-0.2,0.6L78,57.1"></path><line class="st18" x1="79.6" y1="56.9" x2="79.3" y2="56.5"></line><line class="st18" x1="78.8" y1="57.2" x2="78.8" y2="56.5"></line><path class="st18" d="M80.9,56.6c-0.1-0.1-0.1-0.7-0.1-0.7"></path><path class="st18" d="M80.5,56.2c-0.1-0.2-0.3-0.9-0.3-0.9"></path><path class="st18" d="M81.2,55l-0.7-0.9c0,0,0,0.5,0,0.8"></path><polyline class="st18" points="81.6,54.5 81,53.8 80.8,53.6 "></polyline><path class="st18" d="M79.6,53.5c0,0.1-0.7,0.1-0.7,0.1"></path><path class="st18" d="M79,53.1c-0.1,0-0.2-0.3-0.4-0.4"></path><polyline class="st18" points="80.2,53.1 80,54 79.4,54.7 "></polyline><line class="st18" x1="81.2" y1="53.3" x2="81.7" y2="53.1"></line><path class="st18" d="M83.5,53.1c-0.2,0-0.9-0.1-0.9-0.1l-0.3,0.3"></path><path class="st18" d="M82.2,54.3c0,0,0.4,0.3,0.4,0.3"></path><line class="st18" x1="82.1" y1="56.6" x2="82.4" y2="57.3"></line><line class="st18" x1="80" y1="54.9" x2="79.6" y2="55.7"></line><line class="st18" x1="77.6" y1="56.3" x2="78.6" y2="55.3"></line><path class="st18" d="M78.8,54c-0.2,0.1-0.8,0.1-0.9,0.1"></path><path class="st18" d="M78.8,54.3c-0.1,0.1-0.5,0.2-0.5,0.2"></path><path class="st18" d="M79.3,51.2c-0.1-0.2-0.2-0.6-0.2-0.6"></path><path class="st12" d="M31.7,10.2c0,0-0.2-1.8-1.1-2.1c-0.9-0.3-1.1-0.9-1.2,0.7c-0.1,1.5,1.1,2.7,1.1,3.3c0,0.5,0.8,2.2,0.8,2.2
	l1.2,0.3L31.7,10.2z"></path><path class="st13" d="M32.9,15.7c0,0-2.7-4.5-3-4.5s-1.5-1.1-1.3,0c0.1,1.1,1.1,2.9,0.9,3.9C29.2,16,33,28.4,33.7,28.6
	c0.6,0.2,2.5,4.9,2.7,5.2s1,2.4,1,1.6s-4-13.6-4-14.1S32.9,15.7,32.9,15.7z"></path><path class="st14" d="M22.6,60.5c0,0-1.3,2.6-0.8,2.7c0.5,0.1,2.1,0.5,2.5,0c0.5-0.5,3.3-3.3,3.6-4.2c0.3-0.9,0.7-3.4,0.7-3.4
	s-1.9-2-2.1-1.4c-0.3,0.6-0.7,1.7-1.3,2.7C24.5,57.9,22.6,60.5,22.6,60.5z"></path><path class="st13" d="M43.6,10.6c0,0,1.9-2.4,2.5-2.5c0.6-0.1,1.1,0.9,0.9,1.2c-0.1,0.3-0.7,0.4-0.8,1.2S46,12.5,46,12.5L43.6,10.6z
	"></path><path class="st14" d="M36.7,33.1c0.1-0.7-0.7-8.5,0-10.3s1.9-13.1,2.4-13.9c0.5-0.8,1.2-1.7,1.7-1.5c0.5,0.3,0.7,0.2,0.7,1.1
	s-0.3,4.2-0.5,4.8c-0.3,0.6-2.5,7.5-2.7,8.9c-0.2,1.4-0.6,7.1-0.6,7.8s-0.3,3.7-0.3,3.7L36.7,33.1z"></path><path class="st14" d="M38.5,32.2c0,0,1.1-11.3,1.2-11.7s2.2-8.5,2.7-9.3s2.8-2.1,2.8-2.1s0.6,0.3,0.5,1.2c-0.1,0.9-1.1,2.9-1.7,4.2
	c-0.6,1.3-2.7,7.3-2.8,8.2c-0.1,0.9-0.7,4.4-0.8,4.9S38.5,32.2,38.5,32.2z"></path><path class="st12" d="M39.8,33.3c0.3-0.1,7.6-16.1,7.8-17.4c0.2-1.3,0.9-5.3,0.3-5.6c-0.6-0.3-2.2,0.1-2.2,0.1s-0.7,2.1-1,2.6
	c-0.2,0.5-2.9,6.7-3.2,8.3c-0.3,1.5-0.9,5.7-1.1,6.4c-0.2,0.7-1.3,3.2-1.3,3.2l-0.1,2.4H39.8z"></path><path class="st14" d="M40.4,33.3c0.2-0.6,6.4-13,6.7-13.6c0.4-0.5,3.8-6.7,3.8-6.7s-0.7-0.9-1.3-0.6C49.1,12.7,48,13,46.8,15
	c-1.2,2-3.9,7.4-4,8.5c-0.1,1.1-2,6.6-2.5,7.1s-1.5,2.7-1.5,2.7H40.4z"></path><path class="st12" d="M54,17.2c0,0,2.6-2.3,3.1-2.5c0.5-0.2,1.9-0.9,2.5,0c0.5,0.9-0.5,2.1-1.5,3.1c-1,0.9-3.3,3.4-3.7,4
	c-0.5,0.6-2.1,2-3.4,3.1c-1.3,1.1-2.1,1.9-2.8,1.7s-0.4,0.1,0-1s3.8-6.3,4.1-6.6S54,17.2,54,17.2z"></path><path class="st14" d="M54.3,21.7c0,0,2.8-1.6,5.1-2.3c2.3-0.7,2.3-1.5,2.9-0.7s2.6,0.5-0.3,2.5c-2.9,2-13.6,9.4-14.8,10
	c-1.2,0.6-3.8,2.2-4.3,2.5s-3.3,1.9-3.1,1.5c0.3-0.3,5.2-4.9,5.9-5.2C46.3,29.8,54.3,21.7,54.3,21.7z"></path><path class="st14" d="M41.6,30.7c0.2-0.2,7.4-11.8,8-12.6c0.7-0.8,3.4-4.5,4-4.9c0.7-0.5,1.6-0.2,1.8,0c0.1,0.2-0.2,0.5,0,1.1
	c0.2,0.6,0.7,0.3,0.3,1.4s0.1,1.4-1.5,3.4s-3.3,3.3-6.1,6.4c-2.8,3.1-7.6,8.6-7.6,8.6l-0.7-0.8L41.6,30.7z"></path><path class="st13" d="M38.9,34.1c0-0.8,4.1-4.3,5.1-4.8c1-0.5,5-5.1,5.7-5.5c0.7-0.4,4.5-2.9,5-3.2c0.5-0.4,0.9-1.3,1.7-1.1
	s1.8,0.1,1.3,1.1c-0.5,1-2.4,3.5-4,4.4c-1.6,0.9-6,3.3-6.5,3.8c-0.5,0.5-6.8,3.7-6.7,4.5C40.4,34.1,38.9,34.1,38.9,34.1z"></path><path class="st14" d="M38.9,38.1c0,0,9.4-2.9,11.5-3.3c2.1-0.5,7.1-0.5,9.8-0.7c2.7-0.2,4.9,0.3,6-0.3c1.1-0.6,2.3-0.9,2.4-1.5
	c0.1-0.7,0.7-1.5-0.6-1.7c-1.3-0.3-3.9-0.5-7.3,0C57.3,31,45.5,34,44.1,34.7c-1.4,0.7-4.3,1.7-4.3,1.7L38.9,38.1z"></path><path class="st13" d="M37.9,36.9c0,0,13.3-5.2,14.6-5.7c1.3-0.5,8.9-1.9,11.5-1.9c2.6,0,3-0.1,3.1,0.5c0.2,0.5,4.1,1.2-0.8,1.6
	s-13.4,1.5-15.4,1.9S44.6,35.8,43,36C41.5,36.2,37.9,36.9,37.9,36.9z"></path><path class="st13" d="M41.2,37.7c0,0,4.7-0.5,6.9-0.4c2.3,0.1,11.1,2.6,11.9,2.8c0.8,0.2,2.7,1.9,3.2,2.1c0.6,0.2,3.4,2.2,3.4,2.7
	c0,0.5,0.5,1.9-0.5,1.6c-1-0.3-3.5-2.2-6.1-2.7c-2.6-0.5-6.6-1.9-8.9-2.3c-2.3-0.5-5.9-1.3-6.5-1.5c-0.6-0.2-1.5-0.4-2.9-0.3
	s-3.1-0.3-3.1-0.3L41.2,37.7z"></path><path class="st14" d="M37.9,38.1c0,0,7.6-2.3,8.9-2.3c1.2,0,6.3-0.2,8.1,0c1.8,0.2,8.3,0.5,9.3,0.5c1.1,0,1.9,0.3,2.5,0.7
	s0.7,0.5,0.7,0.8s0.3,1.3-1.1,1.4c-1.3,0.1-1.9,0.6-5.6,0c-3.7-0.6-5.5-1.6-8.4-1.6c-2.9,0-5.4-0.2-7,0c-1.6,0.2-3.1,0-3.9,0.2
	C40.6,38,37.9,38.1,37.9,38.1z"></path><path class="st14" d="M42,40.6c0,0,11.9,3.6,12.4,3.8c0.5,0.2,8.7,3.1,9.9,3.2c1.2,0.1,2.3-0.3,1.9-1.1c-0.4-0.8-0.4-1.5-2.8-2.4
	s-10.6-3.2-12.6-3.5s-5.5-1.3-6.6-1.2c-1.1,0.1-4.2,0.2-4.2,0.2l-0.7,0.7L42,40.6z"></path><path class="st13" d="M40.3,41.5c0,0,7.9,2.3,9.6,3.4c1.7,1.1,8.4,4.2,9.6,4.7c1.2,0.5,4.5,1.1,4.9,1.1c0.5,0,1.8,0.4,1.2-0.7
	c-0.6-1.1-1.9-2.1-3.7-2.9c-1.8-0.8-10.8-4-13.4-4.7c-2.6-0.7-6-1.6-6.7-1.7s-3.9-0.3-3.9-0.3L40.3,41.5z"></path><path class="st14" d="M53.7,56.7c0.3,0.3,1.4,2.4,1.3,3.1c-0.1,0.7,0.4,1.7-0.6,1.3S52.5,59.9,52,59s-1.4-1.8-1.5-2.8
	c-0.1-1-0.3-2.2,0-2.1S53.7,56.7,53.7,56.7z"></path><path class="st14" d="M40.5,41.5c0,0,6.4,2.1,6.6,2.1c0.2,0.1,8.1,5.5,9.4,6.2s2.8,1.9,2.9,2.7c0.1,0.8,2.1,3.3-0.7,1.5
	c-2.9-1.8-8.1-6.3-9.3-7.1s-3.1-1.8-4.4-2.3c-1.3-0.5-4.9-1.5-5.1-1.8c-0.2-0.3-0.8-1.1-1.3-1.4C38,41.1,40.5,41.5,40.5,41.5z"></path><path class="st13" d="M39.5,42.9c0.6,0.2,9.4,9.5,9.5,10.1c0.1,0.5,6.2,6.8,7,7.3c0.7,0.5,1.3,1,2.2,0.9c0.9-0.1,1.9-0.5,1-1.7
	c-0.9-1.2-4.1-6.6-6.5-8.5c-2.4-1.9-8-6.3-8-6.3s-1.8-1.2-2.5-1.8c-0.7-0.6-1.9-1.4-1.9-1.4L39.5,42.9z"></path><path class="st12" d="M40,45.5c0,0,6.8,7.5,7.6,8.8c0.8,1.3,3.8,7.7,4.4,8s1.1,1.1,1.8,0.9c0.7-0.3,0.6-2.3,0-3.7
	c-0.6-1.4-2.2-3.7-3.3-5.4c-1.1-1.7-5.6-6.9-6.3-7.5c-0.7-0.6-1.8-1.7-2.9-2.3c-1.1-0.5-3.8-2.8-3.8-2.8s0.4,1.3,0.6,1.6
	C38.3,43.4,40,45.5,40,45.5z"></path><path class="st14" d="M38.1,43.9c0,0,3.6,8.3,4.4,9.4s0.9,0.8,1.7,3c0.8,2.2,3.3,8.1,3.5,8.7c0.2,0.6,2,2,2.1,1.9s0.9-2,0.6-2.6
	s-3.5-8.6-4.2-10.3c-0.7-1.7-4.5-7.9-4.7-8.6c-0.2-0.6-1.7-2.6-1.7-2.6l-2.2-1.4L38.1,43.9z"></path><path class="st14" d="M35.6,42.9c0,0,0.1,5.8,0.3,9.5c0.1,3.6-1.7,12.3-1.7,12.3s0.1,1.7,0.8,1.5c0.8-0.2,0.6,0.3,1.3-0.9
	c0.8-1.2,1.8-12.6,1.8-13.9s-0.5-6.1-0.6-6.3c-0.1-0.3-0.6-2.1-0.6-2.1H35.6z"></path><path class="st13" d="M38.2,41.5c0,0,3.7,13.1,4.1,15s0.2,9.9,0,10.5c-0.2,0.5-1.2,1.3-1.6,0.9c-0.4-0.4-2.5-4.2-2.5-4.6
	c0-0.4-2-12.4-1.6-13.7c0.4-1.3,0.1-6.7,0.1-6.7L38.2,41.5z"></path><path class="st13" d="M36.1,43.8c0.1,0.3-1.6,7.5-3,9.6c-1.5,2.1-6.6,10.1-7.3,10.6c-0.7,0.5-2,1.1-2.5,1.1c-0.5,0-1.1-0.6-0.9-1.1
	s1.7-3.7,2.5-4.5c0.9-0.8,5.1-8.3,5.4-8.9c0.3-0.6,3.7-6.1,3.7-6.5c-0.1-0.3,0.8-2.3,0.8-2.3L36.1,43.8z"></path><path class="st12" d="M33.7,42.3c0,0-5.3,8.5-5.6,9.1c-0.3,0.5-3.9,4.9-4.5,5.5c-0.5,0.7-3.5,3.3-3.7,3.7c-0.3,0.4-0.8,1.1,0,1.1
	s3.1-0.2,4.6-1.3c1.4-1.1,5.4-6.8,5.6-7.5s3.5-7.1,3.6-7.4c0.1-0.3,1.7-4.2,1.7-4.2L33.7,42.3z"></path><path class="st14" d="M32.3,42c0,0-6.7,9.6-7.7,10.4c-1.1,0.8-4.1,3.1-4.8,4.2c-0.7,1.1-1.1,1.5-0.7,1.7c0.5,0.3-0.6,1.5,1.9,0
	c2.5-1.5,5.7-6.6,6.1-6.8c0.3-0.2,5.1-6,5.2-6.6c0.1-0.7,1.9-3.4,1.9-3.4v-1.7L32.3,42z"></path><path class="st14" d="M14.6,47.2c-0.5,0.3-3.9,1.7-4.3,2.5c-0.3,0.8,0,1.9,0.5,2.1c0.5,0.1,1.1-0.5,3-1.1c1.9-0.7,6.2-3.4,6.9-3.5
	c0.7-0.1,4.9-1.3,4.9-1.3s-0.1-0.5-2.3-0.4s-5,0-5.5,0.2C17.5,45.9,14.6,47.2,14.6,47.2z"></path><path class="st14" d="M32.3,42c0,0-8.7,7.3-10.4,8.1c-1.7,0.8-5.7,3.1-5.9,3.4s-1.5,1.7-1,2.1c0.5,0.4,1.1,1.7,3.3,0
	c2.2-1.7,6.1-4.6,6.1-4.6l6.3-5.9l2.9-2.9L32.3,42z"></path><path class="st13" d="M32.8,39.8c0,0-8.7,6.1-10.5,6.8c-1.8,0.6-6.9,1.9-8,2.6c-1.1,0.7-2.2,1.4-1.9,1.9c0.3,0.5,1.9,1.4,3.6,0.7
	c1.7-0.7,9.5-4.5,9.8-4.8c0.4-0.4,8-5.7,8.6-5.7c0.6,0,1.4-2.9,1.4-2.9L32.8,39.8z"></path><path class="st12" d="M31.9,38.9c0,0-4.9,4.4-8.1,4.6s-9.5,2-10.5,2.6c-1,0.5-1.5,1.2-1.3,1.6s-1.3,1.2,2.1,0.7s11.3-3.4,12-3.8
	c0.7-0.4,6.2-4.2,6.2-4.2l3.1-3L31.9,38.9z"></path><path class="st14" d="M31.1,38.7c0,0-8.4,4.4-9.1,4.5s-6.4,1-7.5,1.3s-3.7,1-4.6,0.7s-1.7-1-1.5-1.4c0.2-0.4,2.8-1.3,3.6-1.5
	c0.8-0.2,13.5-2,14.2-2.6c0.7-0.6,4.1-1.5,4.3-1.7c0.2-0.3,2.5-1.2,2.5-1.2L31.1,38.7z"></path><path class="st12" d="M30.4,38.1c0,0-3.1,0.3-6,0.3s-10.4-0.2-12.5,0c-2.2,0.2-3,0.4-2.7,0.9c0.3,0.6-1.8,1.3,1.5,1.5
	c3.3,0.2,9.8-0.1,11.9-0.5c2.1-0.3,4.6-0.7,5.5-0.9c0.9-0.2,4.9-1.1,4.9-1.1L30.4,38.1z"></path><path class="st14" d="M30.3,39.1c-2.3,0.3-9.1,3.8-10.9,3.7s-4.1-0.6-3.5-0.9c0.6-0.3-0.6-0.1,3-0.9s7.1-1.3,7.1-1.3l3-1.2l4.6-0.8
	L30.3,39.1z"></path><path class="st13" d="M34.2,35.3l-2.9-2.2c-3.7-2-12.1-4.5-13.8-4.5s-2.8-0.1-3.9,0s-2.7,0.7-2.7,0.7s-0.5,0.6,1.3,1.1
	c1.8,0.5,3.5,0.8,5.7,0.9s3.9,0.8,5.7,1.2c1.8,0.4,3.6,0.2,4.3,0.7c0.7,0.5,3.7,1.7,3.7,1.7s-7.6-4.3-10.5-4.8
	c-2.9-0.5-9.5-1.1-10.3-0.9c-0.8,0.2-3.3-0.2-3.1,0.9c0.2,1.1,0.3,2.1,2.1,2s6.2,0.3,7.2,0.4c1,0.1,5.9,1,7.2,1.2
	c1.3,0.2,4.8,1.6,5.6,1.6s1,0.5,1.8,0.6c0.8,0.1,2,0.3,2,0.3c-1.4-0.3-12.9-1.9-16-2.5c-3.1-0.7-6.1-0.5-6.9-0.6
	c-0.9-0.2-1.4,0-2,0.2c-0.6,0.2-1,0.6,0,1.4s4.7,2.7,7.5,2.8c2.8,0.2,12.2,0.6,14.1,0.6c2,0,5-0.7,5-0.7l-1.2-1.1"></path><path class="st14" d="M34.2,33.1c0,0-7.4-3.8-8.5-4.8c-1.1-1.1-5.9-4.7-6.5-6.1c-0.6-1.4-2.6-2.7-3.4-2.8s-2.4-0.4-2,0.6
	c0.4,0.9,2.3,3.3,3,4c0.7,0.7,7.2,4.6,7.9,5.1c0.6,0.5,3.6,3,4.3,3.1c0.7,0.2,2.3,2.1,2.7,1.9C32.2,33.8,34.2,33.1,34.2,33.1z"></path><path class="st13" d="M33.7,32.5c-0.4-0.6-4-2.7-6.2-5.3s-4.6-4.5-5.3-5.5s-6-3.7-6.2-3.9s-1.4-0.7-1.6,0c-0.1,0.7,0.3,1.9,0.6,2.1
	c0.3,0.2,7.9,5.9,8.3,6.3c0.5,0.4,3,1.8,4.2,2.8s5.8,4.7,5.8,4.7s0.9,0.3,1.3,0.4S33.7,32.5,33.7,32.5z"></path><path class="st14" d="M34.6,31.6c-0.4-0.6-6.6-5.5-8.5-9.4s-5-7.3-5.5-7.9s-0.8-0.8-1.1-0.6c-0.3,0.2-1.1,1.1-0.5,1.8
	s6.1,8.1,6.7,8.4c0.6,0.3,8,8.7,8,8.7l2,1.7L34.6,31.6z"></path><path class="st12" d="M35,30.6c0-0.3-6.4-16.5-6.8-17.1c-0.4-0.5-2.1-0.8-2.2-0.7s-1.1,0.5,0,2.5s4.5,10.5,5.3,11.2
	c0.8,0.7,3.2,4,3.3,4.9s1,2.6,1,2.6l1.7-0.4L35,30.6z"></path><path class="st14" d="M37.3,34.5C37.3,34.3,34,17,34.2,16.4s-0.3-4.7-0.5-5.3c-0.2-0.6-0.4-1.6-0.7-1.9c-0.3-0.3-0.1-0.7-0.7,0
	c-0.6,0.7-1.2,3.2-0.8,5.1s1.1,6.3,1.2,7.5s3.3,8.7,3.1,9.1c-0.2,0.4,0.5,4.5,0.5,4.5L37.3,34.5z"></path><path class="st14" d="M36.2,35.3c-0.5-1.8-7.8-16.1-7.9-16.9c-0.1-0.8-2.4-4.1-2.6-4.4c-0.1-0.3-0.9-1.3-1.3-0.4s-0.3,3.2,0,3.9
	c0.4,0.7,4.6,6.6,5,7.5c0.4,0.9,3,4.5,3.5,5.2c0.4,0.7,2.7,5.3,2.7,5.3l1.7-0.2"></path><path class="st15" d="M35.7,29.5c-0.7,0.6,0,0.9-2.1,1.7s-2.3,0.3-3.1,2.1c-0.8,1.8-1.1,0.5-0.9,3.3s0.4,2.8,0.7,4.4
	c0.3,1.7-0.9,1.7,0.4,2.7s-1.1,1.6,1.9,2.1c2.9,0.5,3.6,0.5,4.4,0.5s1.1,0.5,2.9,0c1.8-0.5,3.6-1.2,4.2-1.9c0.6-0.7,0.7-1.6,1.3-2.5
	c0.5-0.9,1-0.7,1.3-2.3c0.3-1.7,0.5-2.9,0.3-3.6c-0.2-0.7,0.6-1.5-1.1-2.7c-1.7-1.1-1.8-1.7-2.6-2.3c-0.8-0.5-2.4-1.9-3.4-1.8
	c-1.1,0.1-1.5-0.1-2.1,0S35.7,29.5,35.7,29.5z"></path><path class="st16" d="M38,31.6c-0.5,0.2-0.8,0.6-1.3,0.3c-0.5-0.3-0.7-0.5-1.1-0.3c-0.4,0.2,0.1,0.9-0.6,1.4
	c-0.7,0.5-0.1,0.4-1.1,0.5s-0.9-0.1-1.1,0.4s-0.5,1.5-0.9,1.8s-0.8,0.6-0.5,1c0.3,0.4,0.8,0.7,0.4,1.2c-0.4,0.4-1.5,0.7-0.5,1.7
	s1.6,1.2,1.6,1.5c0,0.3-0.5,0.7,0.1,1.1c0.6,0.5-0.1,0.3,0.7,1c0.7,0.7,0.7,1.1,1.5,0.9s1.3-0.2,1.3,0.5c0,0.7-0.5,1.4,0.9,0.8
	c1.3-0.6,1.5-0.7,2.1-1.1c0.5-0.3,0.5-0.8,1.1-0.3c0.7,0.5,0.9,1.1,1.4,0.2c0.5-0.9,0.4-1.3,0.3-1.8s-0.7-1.1,0.1-1.2
	S42.1,41.4,43,41c0.9-0.3,1.7-0.5,1-0.9c-0.7-0.3-2.1-0.4-1.1-0.9c0.9-0.5,2.3-1.5,1.9-1.5s-0.9,0.2-1.2-0.6
	c-0.3-0.8,0.4-0.5-0.3-1.9c-0.7-1.4-0.5-1.1-1.2-1.4c-0.7-0.3-0.5-0.5-1.2-1.1c-0.7-0.5,0.4-0.1-0.7-0.5C39,31.9,38,31.6,38,31.6z"></path><line class="st19" x1="33.3" y1="33.3" x2="33.6" y2="34.2"></line><line class="st19" x1="33.8" y1="33.3" x2="34.2" y2="33.8"></line><line class="st19" x1="35.2" y1="32.1" x2="35.9" y2="33.8"></line><line class="st19" x1="36.6" y1="31.6" x2="36.3" y2="32.9"></line><line class="st19" x1="35.9" y1="36.2" x2="34.2" y2="36"></line><line class="st19" x1="33.6" y1="36.4" x2="31.7" y2="36.2"></line><line class="st19" x1="33.3" y1="34.8" x2="32.5" y2="35.5"></line><line class="st19" x1="35" y1="37.2" x2="33.8" y2="37"></line><line class="st19" x1="34.4" y1="37.9" x2="33.6" y2="37.5"></line><line class="st19" x1="33" y1="37.9" x2="31.5" y2="37.1"></line><path class="st19" d="M33.8,39.3c-0.2,0-1.5-0.6-1.5-0.6"></path><line class="st19" x1="32.2" y1="39.3" x2="31.5" y2="39.3"></line><path class="st19" d="M31.7,39.8c0,0.1,1.1,0.2,1.2,0.2c0.1,0,1.1-0.2,1.1-0.2"></path><line class="st19" x1="33.6" y1="40.5" x2="33.4" y2="41.1"></line><path class="st19" d="M34.5,41.9l-0.7,0.6l0.4-1c0,0,0.7-0.8,0.8-0.7c0.4,0.4,0.1,1.9,0.1,1.9l-1,1.1"></path><line class="st19" x1="36.6" y1="40" x2="35.5" y2="40.5"></line><line class="st19" x1="36.4" y1="39.6" x2="37.2" y2="38.5"></line><line class="st19" x1="36.8" y1="36.4" x2="37.2" y2="38"></line><line class="st19" x1="36" y1="38" x2="35" y2="38.5"></line><line class="st19" x1="36" y1="37" x2="36.4" y2="37.5"></line><path class="st19" d="M36.3,34c0.1,0.1,0.5,1.1,0.5,1.1"></path><polyline class="st19" points="35.7,34.2 35.2,35.5 33.4,35.5 "></polyline><path class="st19" d="M38.5,32.3c0,0.1,0,0.7-0.4,1.1s-0.2,0.5,0,0.7"></path><path class="st19" d="M40.5,31.8c-0.2,0.4-0.3,1.1-0.4,1.1s-0.7,0.2-0.7,0.2"></path><line class="st19" x1="41.1" y1="33.8" x2="41.7" y2="32.9"></line><path class="st19" d="M42.3,34.8c0,0-1.1,0.2-1.1,0.6c-0.1,0.4-0.7,0.8-0.7,0.8"></path><path class="st19" d="M42.5,35.5c0.1-0.2,0.9-0.6,0.9-0.6"></path><line class="st19" x1="40.8" y1="40.5" x2="40.8" y2="41.7"></line><path class="st19" d="M40.5,42.1c0,0.2-0.3,0.7-0.3,0.8"></path><path class="st19" d="M39.4,41.5c0,0-0.1,0.8-0.1,1c0,0.2-0.5,0.6-0.5,0.6"></path><path class="st19" d="M38.4,40c0,0-0.4,1.6-0.4,1.7s-0.6,0.3-0.8,0.4c-0.2,0.1-0.4,0.2-0.4,0.2s0.3-1.7,0.2-1.5s-0.5,0.9-0.5,0.9"></path><path class="st19" d="M35.7,42.8c-0.1,0.4-0.3,0.6-0.3,0.6"></path><path class="st19" d="M37.9,43.6c-0.4,0.2-1.3,0.7-1.3,0.7"></path><line class="st19" x1="37.5" y1="44.8" x2="37.6" y2="45.4"></line><path class="st19" d="M40.3,44c-0.3,0.1-1.1,0.6-1.1,0.6"></path><line class="st19" x1="40.6" y1="45.1" x2="39.8" y2="44"></line><path class="st19" d="M41.7,43.4c0.1,0.1,0.6,0.8,0.6,0.9"></path><line class="st19" x1="42" y1="41" x2="42.5" y2="41.3"></line><path class="st19" d="M40.3,38.8c0,0,0.5,0.7,0.5,0.7"></path><path class="st19" d="M41.4,38.5c0.2,0.2,1,0.8,1.2,1s0.9,0.1,0.9,0.1l0.6,0.4"></path><line class="st19" x1="43.5" y1="37.9" x2="43" y2="38.3"></line><line class="st19" x1="44.1" y1="38.8" x2="43.1" y2="39"></line><path class="st19" d="M42.8,36c-0.1,0.1-1,0.3-1,0.3"></path><path class="st19" d="M42.3,36.6C42,36.8,41,37.3,41,37.3"></path><path class="st19" d="M40.5,35.8l-1.1,1.1c0,0,0.7-0.1,1.1-0.1"></path><polyline class="st19" points="39.6,35.5 38.8,36.3 38.5,36.7 "></polyline><path class="st19" d="M38.5,38.5c0.1,0,0.3,0.9,0.3,0.9"></path><path class="st19" d="M38.1,39.4c0.1,0.1-0.4,0.4-0.5,0.6"></path><polyline class="st19" points="38,37.7 39.2,37.9 40.3,38.5 "></polyline><line class="st19" x1="38" y1="36.2" x2="37.7" y2="35.5"></line><path class="st19" d="M37.2,32.9c0,0.3,0,1.3,0,1.3l0.5,0.4"></path><path class="st19" d="M39.2,34.5c0.1,0,0.4-0.6,0.4-0.6"></path><line class="st19" x1="42.5" y1="34.3" x2="43.5" y2="33.7"></line><line class="st19" x1="40.5" y1="37.7" x2="41.8" y2="38"></line><line class="st19" x1="43" y1="40.8" x2="41.4" y2="39.5"></line><path class="st19" d="M39.4,39.5c0.1,0.3,0.3,1.1,0.4,1.3"></path><path class="st19" d="M39.9,39.5c0.1,0.1,0.4,0.7,0.4,0.7"></path><path class="st19" d="M35.3,39.4c-0.3,0.1-0.8,0.5-0.8,0.5"></path></g></svg>