<svg id="Layer_1" data-name="Layer 1" xmlns="http://www.w3.org/2000/svg" viewBox="0 0 108 108">
  <defs>
    <style>
      .cls-1 {
        fill: #09a76d;
      }

      .cls-2 {
        fill: #02905d;
      }

      .cls-3 {
        fill: #017b4e;
      }

      .cls-4 {
        fill: #6f3f8a;
      }

      .cls-5 {
        fill: #814ba2;
      }

      .cls-6 {
        fill: #925cb4;
      }
    </style>
  </defs>
  <g>
    <g>
      <path class="cls-1" d="M66,89.55h.74a47.51,47.51,0,0,0-1.65-15.49,46.94,46.94,0,0,0-6.41-14.37.29.29,0,0,0-.53.14,47.19,47.19,0,0,0,1.64,15.65A47.12,47.12,0,0,0,66,89.55Z"/>
      <path class="cls-2" d="M66,89.55h.74c.07-1,.1-1.93.1-2.94a51.74,51.74,0,0,1-6.16-23.69c-.64-1.15-1.31-2.23-2-3.23a.29.29,0,0,0-.53.14,47.19,47.19,0,0,0,1.64,15.65A47.12,47.12,0,0,0,66,89.55Z"/>
      <path class="cls-1" d="M78.71,89.55a47.38,47.38,0,0,0,6.21-14.07,47.19,47.19,0,0,0,1.64-15.65.29.29,0,0,0-.53-.14,46.94,46.94,0,0,0-6.41,14.37A47.24,47.24,0,0,0,78,89.55Z"/>
      <path class="cls-2" d="M78.72,89.55c.67-1,1.32-2.08,1.94-3.22a48.91,48.91,0,0,1,1.75-12.27A49.46,49.46,0,0,1,86.67,63.2c0-1.16,0-2.29-.11-3.37a.29.29,0,0,0-.53-.14,46.94,46.94,0,0,0-6.41,14.37A47,47,0,0,0,78,89.55Z"/>
    </g>
    <g>
      <path class="cls-1" d="M32.77,89.55h.74a47,47,0,0,0-1.65-15.49,46.93,46.93,0,0,0-6.4-14.37.29.29,0,0,0-.53.14,47.17,47.17,0,0,0,1.63,15.65,47.63,47.63,0,0,0,6.21,14.07Z"/>
      <path class="cls-2" d="M32.77,89.55h.74c.09-1.21.12-2.47.09-3.77a51,51,0,0,1-4-10.3,50.3,50.3,0,0,1-1.75-11.73,39.25,39.25,0,0,0-2.43-4.06.29.29,0,0,0-.53.14,47.17,47.17,0,0,0,1.63,15.65A47.63,47.63,0,0,0,32.77,89.55Z"/>
      <path class="cls-1" d="M45.52,89.55a47.37,47.37,0,0,0,6.2-14.07,46.93,46.93,0,0,0,1.64-15.65.29.29,0,0,0-.53-.14,47.18,47.18,0,0,0-6.41,14.37,47.21,47.21,0,0,0-1.64,15.49Z"/>
      <path class="cls-2" d="M45.52,89.55c.55-.82,1.08-1.69,1.6-2.6a51.66,51.66,0,0,1,6.35-23.39c0-1.29,0-2.54-.11-3.73a.29.29,0,0,0-.53-.14,46.93,46.93,0,0,0-6.4,14.37,47,47,0,0,0-1.65,15.49Z"/>
    </g>
    <path class="cls-3" d="M86,89.4H73.43v-24l-.29.23a1.36,1.36,0,0,1-1.6,0l-.29-.23v24h-31v-24l-.28.23a1.37,1.37,0,0,1-.81.26,1.34,1.34,0,0,1-.8-.26l-.29-.23v24H25.49a1.09,1.09,0,1,0,0,2.18H86a1.09,1.09,0,1,0,0-2.18Z"/>
    <g>
      <g>
        <path class="cls-4" d="M71.54,24.54a1.36,1.36,0,0,1,1.6,0,6.06,6.06,0,0,1,1.27,1.31,5.95,5.95,0,0,0-1.18-8.32,1.47,1.47,0,0,0-1.78,0,5.95,5.95,0,0,0-1.18,8.32,6.06,6.06,0,0,1,1.27-1.31Z"/>
        <g>
          <path class="cls-5" d="M70.13,32.44l.05-.08-.05-.08a5.71,5.71,0,0,1-.91-3.11,5.77,5.77,0,0,1,.57-2.51,5.87,5.87,0,0,0-4.22-1,1.47,1.47,0,0,0-1.26,1.26A5.91,5.91,0,0,0,66,32a5.85,5.85,0,0,0,3.55,1.7,5.64,5.64,0,0,1,.59-1.21Z"/>
          <path class="cls-5" d="M80.37,26.92a1.47,1.47,0,0,0-1.26-1.26,5.87,5.87,0,0,0-4.22,1,5.79,5.79,0,0,1-.34,5.62l0,.08,0,.08a6.16,6.16,0,0,1,.59,1.21A5.87,5.87,0,0,0,78.69,32a5.94,5.94,0,0,0,1.68-5Z"/>
          <path class="cls-6" d="M73.23,24.43a1.47,1.47,0,0,0-1.78,0,5.94,5.94,0,0,0,0,9.49,1.47,1.47,0,0,0,1.78,0,5.94,5.94,0,0,0,0-9.49Z"/>
        </g>
        <g>
          <path class="cls-6" d="M70.13,38.81l.05-.08-.05-.08A5.75,5.75,0,0,1,69.8,33a6,6,0,0,0-4.23-1,1.47,1.47,0,0,0-1.26,1.26,5.91,5.91,0,0,0,1.68,5A5.85,5.85,0,0,0,69.54,40a5.64,5.64,0,0,1,.59-1.21Z"/>
          <path class="cls-6" d="M80.37,33.29A1.48,1.48,0,0,0,79.11,32a5.93,5.93,0,0,0-4.23,1,5.75,5.75,0,0,1-.33,5.62l0,.08,0,.08A6.16,6.16,0,0,1,75.14,40a5.87,5.87,0,0,0,3.55-1.7A5.94,5.94,0,0,0,80.37,33.29Z"/>
          <path class="cls-4" d="M73.23,30.8a1.47,1.47,0,0,0-1.78,0,5.94,5.94,0,0,0,0,9.49,1.47,1.47,0,0,0,1.78,0,5.94,5.94,0,0,0,0-9.49Z"/>
        </g>
        <g>
          <path class="cls-5" d="M70.13,45.18l.05-.08L70.13,45a5.75,5.75,0,0,1-.33-5.62,6,6,0,0,0-4.23-1,1.48,1.48,0,0,0-1.26,1.26,5.91,5.91,0,0,0,1.68,5,5.85,5.85,0,0,0,3.55,1.7,5.64,5.64,0,0,1,.59-1.21Z"/>
          <path class="cls-5" d="M80.37,39.66a1.48,1.48,0,0,0-1.26-1.26,5.93,5.93,0,0,0-4.23,1A5.75,5.75,0,0,1,74.55,45l0,.08,0,.08a6.16,6.16,0,0,1,.59,1.21,5.87,5.87,0,0,0,3.55-1.7,5.94,5.94,0,0,0,1.68-5Z"/>
          <path class="cls-6" d="M73.23,37.17a1.47,1.47,0,0,0-1.78,0,5.94,5.94,0,0,0,0,9.49,1.47,1.47,0,0,0,1.78,0,5.94,5.94,0,0,0,0-9.49Z"/>
        </g>
        <g>
          <path class="cls-6" d="M70.13,51.55l.05-.08-.05-.08a5.75,5.75,0,0,1-.33-5.62,6,6,0,0,0-4.23-1A1.48,1.48,0,0,0,64.31,46a5.91,5.91,0,0,0,1.68,5,5.85,5.85,0,0,0,3.55,1.7,5.64,5.64,0,0,1,.59-1.21Z"/>
          <path class="cls-6" d="M80.37,46a1.48,1.48,0,0,0-1.26-1.26,5.93,5.93,0,0,0-4.23,1,5.75,5.75,0,0,1-.33,5.62l0,.08,0,.08a6.16,6.16,0,0,1,.59,1.21,5.87,5.87,0,0,0,3.55-1.7,5.94,5.94,0,0,0,1.68-5Z"/>
          <path class="cls-4" d="M73.23,43.54a1.47,1.47,0,0,0-1.78,0,5.94,5.94,0,0,0,0,9.49,1.47,1.47,0,0,0,1.78,0,5.94,5.94,0,0,0,0-9.49Z"/>
        </g>
        <g>
          <path class="cls-5" d="M70.13,57.92l.05-.08-.05-.08a5.75,5.75,0,0,1-.33-5.62,6,6,0,0,0-4.23-1,1.48,1.48,0,0,0-1.26,1.26,5.91,5.91,0,0,0,1.68,5,5.85,5.85,0,0,0,3.55,1.7,5.64,5.64,0,0,1,.59-1.21Z"/>
          <path class="cls-5" d="M80.37,52.4a1.48,1.48,0,0,0-1.26-1.26,5.93,5.93,0,0,0-4.23,1,5.75,5.75,0,0,1-.33,5.62l0,.08,0,.08a6.16,6.16,0,0,1,.59,1.21,5.87,5.87,0,0,0,3.55-1.7,5.94,5.94,0,0,0,1.68-5Z"/>
          <path class="cls-6" d="M73.23,49.91a1.47,1.47,0,0,0-1.78,0,5.94,5.94,0,0,0,0,9.49,1.47,1.47,0,0,0,1.78,0,5.94,5.94,0,0,0,0-9.49Z"/>
        </g>
        <g>
          <path class="cls-6" d="M69.22,61a5.78,5.78,0,0,1,.58-2.52,6,6,0,0,0-4.23-1,1.48,1.48,0,0,0-1.26,1.26A5.94,5.94,0,0,0,71,65.48l.23,0a5.75,5.75,0,0,1-2-4.4Z"/>
          <path class="cls-6" d="M80.37,58.77a1.48,1.48,0,0,0-1.26-1.26,5.93,5.93,0,0,0-4.23,1,5.78,5.78,0,0,1-1.45,6.92l.23,0a5.94,5.94,0,0,0,6.71-6.71Z"/>
          <path class="cls-4" d="M73.23,56.28a1.5,1.5,0,0,0-1.78,0,5.94,5.94,0,0,0,0,9.49,1.47,1.47,0,0,0,1.78,0,5.94,5.94,0,0,0,0-9.49Z"/>
        </g>
      </g>
      <g>
        <path class="cls-4" d="M40,17.53a1.47,1.47,0,0,0-1.78,0,5.93,5.93,0,0,0-1.17,8.32,5.78,5.78,0,0,1,1.26-1.31,1.34,1.34,0,0,1,.8-.26,1.37,1.37,0,0,1,.81.26,6,6,0,0,1,1.26,1.31A5.92,5.92,0,0,0,40,17.53Z"/>
        <g>
          <path class="cls-5" d="M36.93,32.44l0-.08,0-.08a5.82,5.82,0,0,1-.33-5.62,5.9,5.9,0,0,0-4.23-1,1.48,1.48,0,0,0-1.26,1.26,5.93,5.93,0,0,0,5.24,6.73,5.6,5.6,0,0,1,.58-1.21Z"/>
          <path class="cls-5" d="M47.17,26.92a1.46,1.46,0,0,0-1.26-1.26,5.87,5.87,0,0,0-4.22,1,5.82,5.82,0,0,1-.33,5.62l0,.08,0,.08a6.11,6.11,0,0,1,.58,1.21,5.91,5.91,0,0,0,5.23-6.73Z"/>
          <path class="cls-6" d="M40,24.43a1.47,1.47,0,0,0-1.78,0,5.94,5.94,0,0,0,0,9.49,1.47,1.47,0,0,0,1.78,0,5.92,5.92,0,0,0,0-9.49Z"/>
        </g>
        <g>
          <path class="cls-6" d="M36.93,38.81l0-.08,0-.08a5.78,5.78,0,0,1-.9-3.11A5.87,5.87,0,0,1,36.6,33a5.93,5.93,0,0,0-4.23-1,1.5,1.5,0,0,0-1.26,1.26A5.93,5.93,0,0,0,36.35,40a5.6,5.6,0,0,1,.58-1.21Z"/>
          <path class="cls-6" d="M47.17,33.29A1.47,1.47,0,0,0,45.91,32a6,6,0,0,0-4.23,1,5.78,5.78,0,0,1-.32,5.62l0,.08,0,.08A6.11,6.11,0,0,1,41.94,40a5.91,5.91,0,0,0,5.23-6.73Z"/>
          <path class="cls-4" d="M40,30.8a1.47,1.47,0,0,0-1.78,0,5.94,5.94,0,0,0,0,9.49,1.47,1.47,0,0,0,1.78,0,5.92,5.92,0,0,0,0-9.49Z"/>
        </g>
        <g>
          <path class="cls-4" d="M36.93,45.18l0-.08,0-.08a5.77,5.77,0,0,1-.9-3.1,5.88,5.88,0,0,1,.57-2.52,5.93,5.93,0,0,0-4.23-1,1.5,1.5,0,0,0-1.26,1.26,5.93,5.93,0,0,0,5.24,6.73,5.6,5.6,0,0,1,.58-1.21Z"/>
          <path class="cls-4" d="M47.17,39.66a1.47,1.47,0,0,0-1.26-1.26,6,6,0,0,0-4.23,1A5.78,5.78,0,0,1,41.36,45l0,.08,0,.08a6.11,6.11,0,0,1,.58,1.21,5.91,5.91,0,0,0,5.23-6.73Z"/>
          <path class="cls-6" d="M40,37.17a1.47,1.47,0,0,0-1.78,0,5.94,5.94,0,0,0,0,9.49,1.47,1.47,0,0,0,1.78,0,5.92,5.92,0,0,0,0-9.49Z"/>
        </g>
        <g>
          <path class="cls-6" d="M36.93,51.55l0-.08,0-.08a5.77,5.77,0,0,1-.9-3.1,5.88,5.88,0,0,1,.57-2.52,5.93,5.93,0,0,0-4.23-1A1.5,1.5,0,0,0,31.11,46a5.93,5.93,0,0,0,5.24,6.73,5.6,5.6,0,0,1,.58-1.21Z"/>
          <path class="cls-6" d="M47.17,46a1.47,1.47,0,0,0-1.26-1.26,6,6,0,0,0-4.23,1,5.78,5.78,0,0,1-.32,5.62l0,.08,0,.08a6.11,6.11,0,0,1,.58,1.21A5.91,5.91,0,0,0,47.17,46Z"/>
          <path class="cls-4" d="M40,43.54a1.47,1.47,0,0,0-1.78,0,5.94,5.94,0,0,0,0,9.49A1.47,1.47,0,0,0,40,53a5.92,5.92,0,0,0,0-9.49Z"/>
        </g>
        <g>
          <path class="cls-4" d="M36.93,57.92l0-.08,0-.08a5.77,5.77,0,0,1-.9-3.1,5.88,5.88,0,0,1,.57-2.52,5.93,5.93,0,0,0-4.23-1,1.5,1.5,0,0,0-1.26,1.26,5.93,5.93,0,0,0,5.24,6.73A5.6,5.6,0,0,1,36.93,57.92Z"/>
          <path class="cls-4" d="M47.17,52.4a1.47,1.47,0,0,0-1.26-1.26,6,6,0,0,0-4.23,1,5.78,5.78,0,0,1-.32,5.62l0,.08,0,.08a6.11,6.11,0,0,1,.58,1.21,5.91,5.91,0,0,0,5.23-6.73Z"/>
          <path class="cls-6" d="M40,49.91a1.47,1.47,0,0,0-1.78,0,5.94,5.94,0,0,0,0,9.49,1.47,1.47,0,0,0,1.78,0,5.92,5.92,0,0,0,0-9.49Z"/>
        </g>
        <g>
          <path class="cls-6" d="M36,61a5.92,5.92,0,0,1,.57-2.52,5.93,5.93,0,0,0-4.23-1,1.5,1.5,0,0,0-1.26,1.26,5.94,5.94,0,0,0,6.72,6.71l.23,0A5.72,5.72,0,0,1,36,61Z"/>
          <path class="cls-6" d="M47.17,58.77a1.47,1.47,0,0,0-1.26-1.26,6,6,0,0,0-4.23,1A5.78,5.78,0,0,1,42.26,61a5.72,5.72,0,0,1-2,4.4l.23,0a5.93,5.93,0,0,0,6.71-6.71Z"/>
          <path class="cls-4" d="M40,56.28a1.5,1.5,0,0,0-1.78,0,5.94,5.94,0,0,0,0,9.49,1.47,1.47,0,0,0,1.78,0,5.92,5.92,0,0,0,0-9.49Z"/>
        </g>
      </g>
    </g>
  </g>
</svg>
