<svg xmlns="http://www.w3.org/2000/svg" version="1.1" xmlns:xlink="http://www.w3.org/1999/xlink" xmlns:svgjs="http://svgjs.dev/svgjs" viewBox="0 0 108 108" style="" x="0" y="0"><style type="text/css">
	.st0{fill:#509643;}
	.st1{fill:#568A41;}
	.st2{fill:#488A3C;}
	.st3{fill:#4D903F;}
	.st4{fill:#568D4D;}
	.st5{fill:#699B3F;}
	.st6{fill:#329245;}
	.st7{fill:#6E9C3F;}
	.st8{fill:#568941;}
	.st9{fill:#759D3E;}
	.st10{fill:#46863A;}
	.st11{fill:#4D8D3E;}
	.st12{fill:#C4C8D0;}
	.st13{fill:#D91570;}
	.st14{fill:#B61A39;}
	.st15{fill:#FD047A;}
	.st16{fill:#DFE9F3;}
	.st17{fill:#D9CFC0;}
	.st18{fill:#E74784;}
	.st19{fill:#E2E7D8;}
	.st20{fill:#EE4483;}
</style><g><path class="st0" d="M47.7,64.5c-1-1.1-1.8-2.4-2.6-3.6c-0.8-1.2-1.5-2.5-2.1-3.8c-0.7-1.3-1.2-2.6-1.8-4c-0.6-1.3-1.1-2.7-1.6-4
	c-1-2.7-1.9-5.4-2.7-8.2c-0.7-2.8-1.3-5.6-1.5-8.5l0.7-0.2c1.8,2.4,3.2,5,4.5,7.6c1.3,2.6,2.4,5.2,3.4,7.8c0.5,1.3,1,2.7,1.4,4
	c0.5,1.3,0.9,2.7,1.3,4.1c0.4,1.4,0.7,2.8,0.9,4.2c0.2,1.4,0.4,2.9,0.4,4.4L47.7,64.5z"></path><path class="st0" d="M46.9,62.6c-2-2.1-3.9-4.3-5.7-6.5c-1.8-2.2-3.5-4.6-5.3-6.9c-1.7-2.3-3.4-4.7-5.1-7c-1.7-2.4-3.3-4.7-4.8-7.2
	l0.3-0.2c1.9,2.2,3.8,4.4,5.6,6.6c1.8,2.2,3.6,4.5,5.4,6.8c1.8,2.3,3.5,4.6,5.2,6.9c1.7,2.4,3.3,4.8,4.7,7.3L46.9,62.6z"></path><path class="st0" d="M46.9,62.7c-2.6-1.3-5.1-2.9-7.4-4.6c-2.4-1.7-4.6-3.5-6.8-5.3c-2.2-1.8-4.4-3.7-6.6-5.7
	c-2.1-2-4.2-3.9-6.2-6.1l0.3-0.3c2.5,1.5,4.9,3.1,7.3,4.8c2.4,1.7,4.7,3.4,7,5.2c2.3,1.8,4.5,3.6,6.7,5.5c2.1,1.9,4.2,3.9,6.1,6.2
	L46.9,62.7z"></path><path class="st1" d="M48.5,63.8c-2.8-2.1-5.7-3.9-8.7-5.3c-0.4-0.2-0.8-0.4-1.2-0.5c-0.4-0.2-0.8-0.3-1.2-0.5
	c-0.4-0.2-0.8-0.3-1.2-0.5l-1.2-0.4c-0.8-0.3-1.6-0.5-2.4-0.8c-0.8-0.3-1.6-0.4-2.5-0.7c-3.3-0.8-6.7-1.2-10.1-1.3
	c-3.4-0.1-6.9,0.1-10.3,0.5l-0.1-0.4c3.4-0.9,6.9-1.4,10.4-1.5c3.5-0.1,7.1,0.2,10.5,1c0.9,0.2,1.7,0.4,2.6,0.7
	c0.8,0.3,1.7,0.5,2.5,0.8l1.2,0.5c0.4,0.1,0.8,0.4,1.2,0.5c0.4,0.2,0.8,0.4,1.2,0.6c0.4,0.2,0.8,0.4,1.2,0.6c3.1,1.7,6,3.9,8.2,6.6
	L48.5,63.8z"></path><path class="st0" d="M47,62.7c-2.9-0.1-5.8-0.4-8.7-0.8c-2.9-0.4-5.7-0.9-8.5-1.4c-1.4-0.3-2.8-0.6-4.2-0.9
	c-1.4-0.3-2.8-0.6-4.2-0.9c-2.8-0.7-5.6-1.3-8.4-2.2l0.1-0.4c2.9,0.2,5.8,0.5,8.6,0.9c1.4,0.2,2.9,0.4,4.3,0.6
	c1.4,0.2,2.9,0.4,4.3,0.7c2.8,0.5,5.7,1,8.5,1.7c2.8,0.7,5.6,1.3,8.4,2.3L47,62.7z"></path><path class="st2" d="M54.1,61.8c-2.9-0.1-5.8-0.4-8.7-0.8c-2.9-0.4-5.7-0.9-8.5-1.4c-1.4-0.3-2.8-0.6-4.2-0.9
	c-1.4-0.3-2.8-0.6-4.2-0.9c-2.8-0.7-5.6-1.3-8.4-2.2l0.1-0.4c2.9,0.2,5.8,0.5,8.6,0.9c1.4,0.2,2.9,0.4,4.3,0.6
	c1.4,0.2,2.9,0.4,4.3,0.7c2.8,0.5,5.7,1,8.5,1.7c2.8,0.7,5.6,1.3,8.4,2.3L54.1,61.8z"></path><path class="st3" d="M50.2,64.3c-3.1-0.8-6.4-1.1-9.6-0.9l-1.2,0.1c-0.2,0-0.4,0-0.6,0.1c-0.2,0-0.4,0-0.6,0.2
	c-0.4,0.2-0.8,0.7-1.2,0.7c-0.2,0.1-0.4,0-0.6,0l-0.6,0c-0.8,0-1.6,0-2.3,0c-0.8,0-1.6,0-2.3,0.1c-0.8,0.1-1.6,0.1-2.3,0.2
	c-0.8,0.1-1.6,0.2-2.3,0.3c-0.8,0.1-1.6,0.2-2.3,0.4c-0.8,0.2-1.6,0.3-2.3,0.5c-3.1,0.7-6.2,1.6-9.3,2.7l-0.2-0.4
	c2.7-1.9,5.6-3.5,8.7-4.7c0.8-0.3,1.6-0.6,2.3-0.9c0.8-0.3,1.6-0.5,2.4-0.8c0.8-0.2,1.6-0.4,2.4-0.6c0.8-0.2,1.6-0.4,2.5-0.5
	c0.8-0.2,1.7-0.3,2.5-0.4c0.8-0.1,1.7-0.2,2.5-0.2l0.6,0c0.2,0,0.4,0,0.6,0c0.4,0.1,0.8,0.6,1.3,0.8c0.2,0.1,0.4,0.1,0.6,0.2
	c0.2,0,0.4,0.1,0.6,0.1l1.2,0.2c3.3,0.6,6.4,1.5,9.6,2.3L50.2,64.3z"></path><path class="st0" d="M47.1,62.7c-2.7,1.2-5.4,2.2-8.1,3.2c-1.4,0.5-2.7,1-4.1,1.4l-4.1,1.4c-2.7,0.9-5.5,1.8-8.3,2.5
	c-2.8,0.8-5.6,1.6-8.4,2.2L14,73.1c2.7-1.1,5.4-2.2,8.1-3.2c2.7-1,5.4-1.9,8.2-2.8l4.1-1.3c1.4-0.4,2.8-0.9,4.2-1.2
	c2.8-0.8,5.6-1.6,8.4-2.2L47.1,62.7z"></path><path class="st0" d="M47.1,62.7c-2.2,2-4.5,3.7-6.8,5.4c-2.3,1.7-4.7,3.3-7.2,4.9c-2.4,1.6-4.9,3.1-7.4,4.4
	c-2.5,1.4-5.1,2.7-7.9,3.7l-0.2-0.3c2.1-2,4.4-3.8,6.8-5.5c2.3-1.7,4.7-3.3,7.2-4.8c2.5-1.5,4.9-3,7.5-4.4c2.5-1.4,5.1-2.7,7.8-3.8
	L47.1,62.7z"></path><path class="st0" d="M47.2,62.6c-1.8,2.3-3.7,4.5-5.6,6.6c-1.9,2.2-3.9,4.3-5.8,6.4c-1,1.1-2,2.1-3,3.1c-1,1-2,2.1-3.1,3.1
	c-2.1,2-4.2,4-6.4,5.9L23,87.5c1.8-2.3,3.6-4.5,5.6-6.7c1-1.1,1.9-2.1,2.9-3.2c1-1.1,2-2.1,3-3.2c2-2.1,4-4.2,6.1-6.2
	c2.1-2,4.2-4,6.3-5.9L47.2,62.6z"></path><path class="st4" d="M54.2,61c-2.8,2.1-5.4,4.2-7.9,6.5c-2.5,2.3-4.7,4.8-6.8,7.4c-2,2.6-3.9,5.5-5.4,8.4c-1.5,3-2.8,6.1-3.9,9.4
	l-0.4-0.1c0.2-3.5,1.1-6.9,2.4-10.2c1.3-3.3,3.1-6.3,5.3-9.1c2.2-2.8,4.7-5.3,7.4-7.4c2.8-2.2,5.8-4,9-5.3L54.2,61z"></path><path class="st5" d="M47.2,62.6c-0.4,2.9-1,5.7-1.7,8.5c-0.3,1.4-0.7,2.8-1.1,4.2c-0.4,1.4-0.8,2.8-1.2,4.2
	c-0.8,2.8-1.7,5.6-2.7,8.3c-1,2.8-2.1,5.5-3.3,8.2c-0.2,0-0.3-0.1-0.5-0.1c0.8-2.8,1.6-5.6,2.4-8.4c0.8-2.8,1.7-5.6,2.5-8.4
	c0.4-1.4,0.9-2.8,1.3-4.2c0.4-1.4,0.8-2.8,1.3-4.2c0.8-2.8,1.7-5.5,2.6-8.3C47,62.5,47.1,62.5,47.2,62.6"></path><path class="st0" d="M46.7,54.3c-0.4,2.9-1,5.7-1.7,8.5c-0.3,1.4-0.7,2.8-1.1,4.2c-0.4,1.4-0.8,2.8-1.2,4.2
	c-0.8,2.8-1.7,5.6-2.7,8.3c-1,2.8-2.1,5.5-3.3,8.2c-0.2,0-0.3-0.1-0.5-0.1c0.8-2.8,1.6-5.6,2.4-8.4c0.8-2.8,1.7-5.6,2.5-8.4
	c0.4-1.4,0.9-2.8,1.3-4.2c0.4-1.4,0.8-2.8,1.3-4.2c0.8-2.8,1.7-5.5,2.6-8.3C46.5,54.3,46.6,54.3,46.7,54.3"></path><path class="st0" d="M47.2,62.5c0.3,2.9,0.5,5.8,0.6,8.7c0.1,2.9,0.1,5.8,0,8.7c0,1.4-0.1,2.9-0.1,4.3c-0.1,1.4-0.1,2.9-0.2,4.3
	c-0.2,2.9-0.4,5.8-0.8,8.6l-0.4,0c-0.3-2.9-0.4-5.8-0.5-8.7c0-1.4-0.1-2.9-0.1-4.3c0-1.4,0-2.9,0-4.3c0-2.9,0.1-5.8,0.3-8.7
	c0.2-2.9,0.4-5.8,0.8-8.6L47.2,62.5z"></path><path class="st0" d="M48.1,38.6c0.3,2.9,0.5,5.8,0.5,8.7c0.1,2.9,0.1,5.8,0,8.7c0,1.4-0.1,2.9-0.1,4.3c-0.1,1.4-0.1,2.9-0.2,4.3
	c-0.2,2.9-0.4,5.8-0.8,8.6l-0.4,0c-0.3-2.9-0.4-5.8-0.5-8.7c0-1.4-0.1-2.9-0.1-4.3c0-1.4,0-2.9,0-4.3c0-2.9,0.1-5.8,0.3-8.7
	c0.2-2.9,0.4-5.8,0.8-8.6L48.1,38.6z"></path><path class="st6" d="M47.2,60.9c0.7,1.3,1.2,2.7,1.7,4.1c0.5,1.4,0.9,2.8,1.3,4.2c0.4,1.4,0.7,2.8,1.1,4.2c0.4,1.4,0.7,2.8,1.1,4.2
	c0.7,2.8,1.4,5.6,2.1,8.5c0.7,2.8,1.3,5.7,1.8,8.6c-0.2,0-0.3,0.1-0.5,0.1c-1.3-2.7-2.4-5.4-3.4-8.2c-1-2.8-1.9-5.5-2.7-8.4
	c-0.4-1.4-0.8-2.8-1.1-4.2c-0.3-1.4-0.7-2.8-1-4.2c-0.3-1.4-0.5-2.9-0.6-4.3c-0.1-1.4-0.2-2.9-0.1-4.4C46.9,61,47,60.9,47.2,60.9"></path><path class="st1" d="M47.2,62.4c1,1.1,1.8,2.3,2.6,3.5c0.8,1.2,1.6,2.4,2.3,3.7c0.7,1.3,1.4,2.5,2,3.8c0.7,1.3,1.3,2.6,1.9,3.9
	c1.3,2.6,2.5,5.2,3.7,7.8c1.2,2.6,2.3,5.3,3.4,8l-0.4,0.2c-1.6-2.4-3.1-4.9-4.6-7.4c-1.5-2.5-2.9-5-4.3-7.5c-0.7-1.3-1.4-2.5-2-3.8
	c-0.7-1.3-1.4-2.6-2-3.9c-0.6-1.3-1.2-2.6-1.7-4c-0.5-1.4-1-2.7-1.4-4.2L47.2,62.4z"></path><path class="st0" d="M47.2,62.4c2.1,2,4.1,4.1,6.1,6.2c2,2.1,3.9,4.3,5.9,6.5c1,1.1,2,2.2,3,3.3c1,1.1,2,2.2,3,3.3
	c2,2.2,4,4.4,6,6.6c-0.1,0.1-0.2,0.2-0.3,0.3c-2.3-2-4.4-4-6.6-6.1c-1.1-1-2.1-2.1-3.1-3.1c-1-1.1-2-2.1-3.1-3.2
	c-2-2.1-4-4.3-5.8-6.5c-1.9-2.2-3.6-4.5-5.2-7C47,62.6,47.1,62.5,47.2,62.4"></path><path class="st7" d="M47.2,62.3c0.8,0.2,1.5,0.4,2.2,0.7c0.7,0.3,1.4,0.5,2.1,0.9c1.3,0.6,2.6,1.3,3.9,2c2.5,1.5,4.9,3.1,7.3,4.8
	c2.4,1.7,4.7,3.4,7.1,5.3c2.3,1.8,4.6,3.7,6.8,5.8c-0.1,0.1-0.2,0.2-0.2,0.3c-2.9-1-5.6-2.2-8.3-3.6c-2.7-1.3-5.2-2.8-7.7-4.4
	c-2.5-1.6-5-3.2-7.2-5c-1.1-0.9-2.2-1.9-3.2-3c-0.5-0.5-1-1.1-1.5-1.7c-0.5-0.6-0.9-1.2-1.3-1.8C47,62.6,47.1,62.5,47.2,62.3"></path><path class="st0" d="M40.2,66.7c0.8-0.3,1.6-0.6,2.5-0.9c0.8-0.3,1.7-0.5,2.5-0.7c0.9-0.2,1.7-0.3,2.6-0.5c0.4-0.1,0.9-0.1,1.3-0.2
	l1.3-0.1C54,64.1,57.5,64.3,61,65c3.5,0.6,6.9,1.7,10.1,3.3c3.2,1.5,6.2,3.5,8.6,6l-0.3,0.3c-2.9-1.9-5.9-3.5-9.1-4.7
	c-3.2-1.2-6.4-2.1-9.8-2.6c-3.3-0.5-6.7-0.7-10.1-0.7l-1.3,0c-0.4,0-0.8,0-1.3,0.1c-0.8,0-1.7,0-2.6,0.1c-0.8,0.1-1.7,0.1-2.6,0.2
	C42,67,41.1,67,40.3,67.1L40.2,66.7z"></path><path class="st8" d="M47.1,62.3c1.5-0.1,2.9-0.1,4.4-0.1c1.4,0,2.9,0.1,4.3,0.1c2.9,0.2,5.8,0.4,8.6,0.7c2.9,0.3,5.7,0.7,8.6,1.1
	c2.9,0.4,5.7,0.9,8.5,1.6l0,0.4c-2.9,0.1-5.8,0-8.7-0.2c-2.9-0.1-5.8-0.4-8.6-0.6c-2.9-0.3-5.7-0.6-8.6-1c-1.4-0.2-2.9-0.5-4.3-0.7
	c-1.4-0.3-2.8-0.6-4.3-0.9L47.1,62.3z"></path><path class="st0" d="M42.4,63c1.3-0.7,2.6-1.2,4-1.8c1.3-0.6,2.7-1.1,4-1.6c2.7-1,5.4-1.9,8.2-2.8c2.8-0.9,5.5-1.7,8.3-2.4
	c2.8-0.7,5.6-1.4,8.5-2l0.1,0.4c-2.6,1.2-5.3,2.3-8,3.3c-2.7,1-5.4,2-8.2,2.9c-2.7,0.9-5.5,1.8-8.3,2.5c-1.4,0.4-2.8,0.7-4.2,1.1
	c-1.4,0.3-2.8,0.6-4.3,0.9L42.4,63z"></path><path class="st0" d="M46.8,62.3c2.9-0.6,5.7-1,8.6-1.5c2.9-0.4,5.7-0.9,8.6-1.3c2.9-0.4,5.7-0.8,8.6-1.2c2.9-0.4,5.7-0.8,8.6-1.1
	c0,0.1,0,0.3,0.1,0.4c-2.8,0.7-5.6,1.3-8.5,1.8c-2.8,0.6-5.7,1-8.6,1.5c-2.9,0.4-5.8,0.8-8.7,1.1c-2.9,0.3-5.8,0.5-8.7,0.7
	C46.9,62.6,46.9,62.4,46.8,62.3"></path><path class="st0" d="M46.8,62.4c2.1-2.1,4.4-4,6.9-5.7c2.5-1.6,5.1-3.1,7.9-4.2l2.1-0.8l2.1-0.7l2.2-0.6l2.2-0.5
	C73.1,49.3,76,49,79,49l0,0.4c-2.9,0.3-5.8,0.8-8.7,1.5l-2.1,0.6l-2.1,0.6l-2.1,0.7l-2,0.8c-2.7,1.1-5.3,2.5-7.8,4
	c-2.5,1.5-4.9,3.2-7.2,5.1L46.8,62.4z"></path><path class="st9" d="M46.9,62.3c2.2-1.9,4.4-3.7,6.7-5.5c1.1-0.9,2.3-1.8,3.4-2.7c1.1-0.9,2.3-1.8,3.4-2.6c2.3-1.8,4.6-3.4,7-5.1
	c2.4-1.7,4.8-3.3,7.2-4.8l0.2,0.3c-2.1,2-4.4,3.8-6.6,5.6c-2.3,1.8-4.6,3.6-6.9,5.3c-1.2,0.9-2.3,1.7-3.5,2.6
	c-1.2,0.8-2.3,1.7-3.5,2.5c-2.4,1.7-4.8,3.3-7.2,4.8L46.9,62.3z"></path><path class="st0" d="M46.4,64.6c1.4-2.6,3-5,4.7-7.4c1.7-2.3,3.5-4.6,5.4-6.8c1.9-2.2,3.7-4.4,5.7-6.5c2-2.1,3.9-4.2,6.1-6.2
	l0.3,0.3c-1.5,2.5-3.2,4.9-4.8,7.2c-1.7,2.3-3.4,4.7-5.2,6.9c-1.8,2.3-3.6,4.5-5.5,6.7c-1.9,2.1-4,4.2-6.2,6.1L46.4,64.6z"></path><path class="st0" d="M40.2,67.2c1.4-2.6,3-5,4.7-7.4c1.7-2.3,3.5-4.6,5.4-6.8c1.9-2.2,3.7-4.4,5.7-6.5c2-2.1,3.9-4.2,6.1-6.2
	l0.3,0.3c-1.5,2.5-3.2,4.9-4.8,7.2c-1.7,2.4-3.4,4.7-5.2,6.9c-1.8,2.3-3.6,4.5-5.5,6.7c-1.9,2.1-4,4.2-6.2,6.1L40.2,67.2z"></path><path class="st10" d="M46.1,64.2c-0.1-3.5,0.7-7,1.8-10.3c1.2-3.3,2.9-6.5,4.9-9.4c0.5-0.7,1-1.4,1.6-2.1c0.5-0.7,1.1-1.4,1.7-2
	c0.3-0.3,0.6-0.7,0.9-1c0.3-0.3,0.6-0.6,0.9-0.9l0.9-0.9l1-0.9c2.7-2.3,5.6-4.3,8.7-5.9l0.2,0.3c-2.8,2.1-5.4,4.3-7.8,6.7l-0.9,0.9
	l-0.9,0.9c-0.3,0.3-0.6,0.6-0.9,0.9c-0.3,0.3-0.5,0.7-0.8,1c-0.5,0.7-1.1,1.3-1.6,2c-0.5,0.7-1,1.3-1.5,2.1
	c-1.9,2.8-3.5,5.8-4.9,8.9c-1.3,3.1-2.3,6.4-3.1,9.7L46.1,64.2z"></path><path class="st0" d="M46.8,62.5c0.2-2.9,0.5-5.8,1-8.6c0.4-2.9,0.9-5.7,1.5-8.5l0.4-2.1l0.4-2.1c0.3-1.4,0.6-2.8,0.9-4.2
	c0.6-2.8,1.3-5.6,2.1-8.4l0.4,0.1c-0.3,2.9-0.6,5.8-1.1,8.6c-0.2,1.4-0.4,2.9-0.7,4.3l-0.4,2.1l-0.4,2.1c-0.5,2.8-1.1,5.7-1.7,8.5
	c-0.7,2.8-1.3,5.6-2.2,8.4L46.8,62.5z"></path><path class="st11" d="M46.8,62.5c-0.7-1.4-1-2.8-1.3-4.3c-0.3-1.4-0.4-2.9-0.5-4.3c-0.2-2.9-0.3-5.8-0.4-8.6
	c-0.1-2.9-0.2-5.8-0.2-8.7c0-2.9,0-5.8,0.2-8.7l0.4,0c0.5,2.9,0.9,5.7,1.3,8.6c0.4,2.9,0.7,5.7,0.9,8.6c0.3,2.9,0.5,5.8,0.7,8.6
	c0.1,1.4,0.1,2.9,0.1,4.3c-0.1,1.5-0.3,2.9-0.8,4.4L46.8,62.5z"></path><path class="st0" d="M53.6,59.6c1.5,3.6-0.2,7.7-3.7,9.2c-3.6,1.5-7.7-0.2-9.2-3.7c-1.5-3.6,0.2-7.7,3.7-9.2
	C48,54.4,52.1,56,53.6,59.6"></path><path class="st0" d="M43.2,49.6c-1-1.1-1.8-2.4-2.6-3.6c-0.8-1.2-1.5-2.5-2.1-3.8c-0.7-1.3-1.2-2.6-1.8-4c-0.6-1.3-1.1-2.7-1.6-4
	c-1-2.7-1.9-5.4-2.7-8.2c-0.7-2.8-1.3-5.6-1.5-8.5l0.7-0.2c1.8,2.4,3.2,5,4.5,7.6c1.3,2.6,2.4,5.2,3.4,7.8c0.5,1.3,1,2.7,1.4,4
	c0.5,1.3,0.9,2.7,1.3,4.1c0.4,1.4,0.7,2.8,0.9,4.2c0.2,1.4,0.4,2.9,0.4,4.4L43.2,49.6z"></path><path class="st0" d="M42.4,47.7c-2-2.1-3.9-4.3-5.7-6.5c-1.8-2.2-3.5-4.6-5.3-6.9c-1.7-2.3-3.4-4.7-5.1-7c-1.7-2.4-3.3-4.7-4.8-7.2
	l0.3-0.2c1.9,2.2,3.8,4.4,5.6,6.6c1.8,2.2,3.6,4.5,5.4,6.8c1.8,2.3,3.5,4.6,5.2,6.9c1.7,2.4,3.3,4.8,4.7,7.3L42.4,47.7z"></path><path class="st0" d="M42.4,47.7c-2.6-1.3-5.1-2.9-7.4-4.6c-2.4-1.7-4.6-3.5-6.8-5.3c-2.2-1.8-4.4-3.7-6.6-5.7
	c-2.1-2-4.2-3.9-6.2-6.1l0.3-0.3c2.5,1.5,4.9,3.1,7.3,4.8c2.4,1.7,4.7,3.4,7,5.2c2.3,1.8,4.5,3.6,6.7,5.5c2.1,1.9,4.2,3.9,6.1,6.2
	L42.4,47.7z"></path><path class="st1" d="M44,48.8c-2.8-2.1-5.7-3.9-8.7-5.3c-0.4-0.2-0.8-0.4-1.1-0.5c-0.4-0.2-0.8-0.3-1.2-0.5
	c-0.4-0.2-0.8-0.3-1.2-0.5l-1.2-0.4c-0.8-0.3-1.6-0.5-2.4-0.8c-0.8-0.3-1.6-0.4-2.5-0.7c-3.3-0.8-6.7-1.2-10.1-1.3
	c-3.4-0.1-6.9,0.1-10.3,0.5l-0.1-0.4c3.4-0.9,6.9-1.4,10.4-1.5c3.5-0.1,7.1,0.2,10.5,1c0.9,0.2,1.7,0.4,2.6,0.7
	c0.8,0.3,1.7,0.5,2.5,0.8l1.2,0.5c0.4,0.1,0.8,0.4,1.2,0.5c0.4,0.2,0.8,0.4,1.2,0.6c0.4,0.2,0.8,0.4,1.2,0.6c3.1,1.7,6,3.9,8.2,6.6
	L44,48.8z"></path><path class="st0" d="M42.5,47.8c-2.9-0.1-5.8-0.4-8.7-0.8c-2.9-0.4-5.7-0.9-8.5-1.4c-1.4-0.3-2.8-0.6-4.2-0.9
	c-1.4-0.3-2.8-0.6-4.2-0.9c-2.8-0.7-5.6-1.3-8.4-2.2l0.1-0.4c2.9,0.2,5.8,0.5,8.6,0.9c1.4,0.2,2.9,0.4,4.3,0.6
	c1.4,0.2,2.9,0.4,4.3,0.7c2.8,0.5,5.7,1,8.5,1.7c2.8,0.7,5.6,1.3,8.4,2.3L42.5,47.8z"></path><path class="st2" d="M49.6,46.9c-2.9-0.1-5.8-0.4-8.7-0.8c-2.9-0.4-5.7-0.9-8.5-1.4c-1.4-0.3-2.8-0.6-4.2-0.9
	c-1.4-0.3-2.8-0.6-4.2-0.9c-2.8-0.7-5.6-1.3-8.4-2.2l0.1-0.4c2.9,0.2,5.8,0.5,8.6,0.9c1.4,0.2,2.9,0.4,4.3,0.6
	c1.4,0.2,2.9,0.4,4.3,0.7c2.8,0.5,5.7,1,8.5,1.7c2.8,0.7,5.6,1.3,8.4,2.3L49.6,46.9z"></path><path class="st3" d="M45.7,49.3c-3.1-0.8-6.4-1.1-9.6-0.9l-1.2,0.1c-0.2,0-0.4,0-0.6,0.1c-0.2,0-0.4,0-0.6,0.2
	c-0.4,0.2-0.8,0.7-1.2,0.8c-0.2,0.1-0.4,0-0.6,0l-0.6,0c-0.8,0-1.6,0-2.3,0c-0.8,0-1.6,0-2.3,0.1c-0.8,0.1-1.6,0.1-2.3,0.2
	c-0.8,0.1-1.6,0.2-2.3,0.3c-0.8,0.1-1.6,0.2-2.3,0.4c-0.8,0.2-1.6,0.3-2.3,0.5c-3.1,0.7-6.2,1.6-9.3,2.7l-0.2-0.4
	c2.7-1.9,5.6-3.5,8.7-4.7c0.8-0.3,1.6-0.6,2.3-0.9c0.8-0.3,1.6-0.5,2.4-0.8c0.8-0.2,1.6-0.4,2.4-0.6c0.8-0.2,1.6-0.4,2.5-0.5
	c0.8-0.2,1.7-0.3,2.5-0.4c0.8-0.1,1.7-0.2,2.5-0.2l0.6,0c0.2,0,0.4,0,0.6,0c0.4,0.1,0.8,0.6,1.3,0.8c0.2,0.1,0.4,0.1,0.6,0.2
	c0.2,0,0.4,0.1,0.6,0.1l1.2,0.2c3.3,0.6,6.4,1.5,9.6,2.3L45.7,49.3z"></path><path class="st0" d="M42.6,47.8c-2.7,1.2-5.4,2.2-8.1,3.2c-1.4,0.5-2.7,1-4.1,1.4l-4.1,1.4c-2.7,0.9-5.5,1.8-8.3,2.5
	c-2.8,0.8-5.6,1.6-8.4,2.2l-0.1-0.4c2.7-1.1,5.4-2.2,8.1-3.2c2.7-1,5.4-1.9,8.2-2.8l4.1-1.3c1.4-0.4,2.8-0.8,4.1-1.2
	c2.8-0.8,5.6-1.6,8.4-2.2L42.6,47.8z"></path><path class="st0" d="M42.7,47.7c-2.2,2-4.5,3.7-6.8,5.4c-2.3,1.7-4.7,3.3-7.2,4.9c-2.4,1.6-4.9,3.1-7.4,4.4
	c-2.5,1.4-5.1,2.7-7.9,3.7l-0.2-0.3c2.1-2,4.4-3.8,6.8-5.5c2.3-1.7,4.8-3.3,7.2-4.8c2.5-1.5,4.9-3,7.5-4.4c2.5-1.4,5.1-2.7,7.8-3.8
	L42.7,47.7z"></path><path class="st0" d="M42.7,47.7c-1.8,2.3-3.7,4.5-5.6,6.6c-1.9,2.2-3.9,4.3-5.8,6.4c-1,1.1-2,2.1-3,3.1c-1,1-2,2.1-3.1,3.1
	c-2.1,2-4.2,4-6.4,5.9l-0.3-0.3c1.8-2.3,3.6-4.5,5.6-6.7c1-1.1,1.9-2.1,2.9-3.2c1-1.1,2-2.1,3-3.2c2-2.1,4-4.2,6.1-6.2
	c2.1-2,4.2-4,6.3-5.9L42.7,47.7z"></path><path class="st4" d="M49.7,46.1c-2.8,2.1-5.4,4.2-7.9,6.5c-2.5,2.3-4.7,4.8-6.8,7.4c-2,2.6-3.9,5.5-5.4,8.4c-1.5,3-2.8,6.1-3.9,9.4
	l-0.4-0.1c0.2-3.5,1.1-6.9,2.4-10.2c1.3-3.3,3.1-6.3,5.3-9.1c2.2-2.8,4.7-5.3,7.4-7.4c2.8-2.2,5.8-4,9-5.3L49.7,46.1z"></path><path class="st5" d="M42.7,47.6c-0.4,2.9-1,5.7-1.7,8.5c-0.3,1.4-0.7,2.8-1.1,4.2c-0.4,1.4-0.8,2.8-1.2,4.2
	c-0.8,2.8-1.7,5.6-2.7,8.3c-1,2.8-2.1,5.5-3.3,8.2c-0.2,0-0.3-0.1-0.5-0.1c0.8-2.8,1.6-5.6,2.4-8.4c0.8-2.8,1.7-5.6,2.5-8.4
	c0.4-1.4,0.9-2.8,1.3-4.2c0.4-1.4,0.8-2.8,1.3-4.2c0.8-2.8,1.7-5.5,2.6-8.3C42.5,47.6,42.6,47.6,42.7,47.6"></path><path class="st0" d="M42.3,39.4c-0.4,2.9-1,5.7-1.7,8.5c-0.3,1.4-0.7,2.8-1.1,4.2c-0.4,1.4-0.8,2.8-1.2,4.2
	c-0.8,2.8-1.7,5.6-2.7,8.3c-1,2.8-2.1,5.5-3.3,8.2c-0.2,0-0.3-0.1-0.5-0.1c0.8-2.8,1.6-5.6,2.4-8.4c0.8-2.8,1.7-5.6,2.5-8.4
	c0.4-1.4,0.9-2.8,1.3-4.2c0.4-1.4,0.8-2.8,1.3-4.2c0.8-2.8,1.7-5.5,2.6-8.3C42,39.3,42.1,39.3,42.3,39.4"></path><path class="st0" d="M42.7,47.6c0.3,2.9,0.5,5.8,0.6,8.7c0.1,2.9,0.1,5.8,0,8.7c0,1.4-0.1,2.9-0.1,4.3c-0.1,1.4-0.1,2.9-0.2,4.3
	c-0.2,2.9-0.4,5.8-0.8,8.6l-0.4,0c-0.3-2.9-0.4-5.8-0.5-8.7c0-1.4-0.1-2.9-0.1-4.3c0-1.4,0-2.9,0-4.3c0-2.9,0.1-5.8,0.3-8.7
	c0.2-2.9,0.4-5.8,0.8-8.6L42.7,47.6z"></path><path class="st0" d="M43.6,23.7c0.3,2.9,0.5,5.8,0.6,8.7c0.1,2.9,0.1,5.8,0,8.7c0,1.4-0.1,2.9-0.1,4.3c-0.1,1.4-0.1,2.9-0.2,4.3
	c-0.2,2.9-0.4,5.8-0.8,8.6l-0.4,0c-0.3-2.9-0.4-5.8-0.5-8.7c0-1.4-0.1-2.9-0.1-4.3c0-1.4,0-2.9,0-4.3c0-2.9,0.1-5.8,0.3-8.7
	c0.2-2.9,0.4-5.8,0.8-8.6L43.6,23.7z"></path><path class="st6" d="M42.7,46c0.7,1.3,1.2,2.7,1.7,4.1c0.5,1.4,0.9,2.8,1.3,4.2c0.4,1.4,0.7,2.8,1.1,4.2c0.4,1.4,0.7,2.8,1.1,4.2
	c0.7,2.8,1.4,5.6,2.1,8.5c0.7,2.8,1.3,5.7,1.8,8.6c-0.2,0-0.3,0.1-0.5,0.1c-1.3-2.7-2.4-5.4-3.4-8.2c-1-2.8-1.9-5.5-2.7-8.4
	c-0.4-1.4-0.8-2.8-1.1-4.2c-0.3-1.4-0.7-2.8-1-4.2c-0.3-1.4-0.5-2.9-0.6-4.3c-0.1-1.4-0.2-2.9-0.1-4.4C42.4,46,42.6,46,42.7,46"></path><path class="st1" d="M42.7,47.5c1,1.1,1.8,2.3,2.6,3.5c0.8,1.2,1.6,2.4,2.3,3.7c0.7,1.3,1.4,2.5,2,3.8c0.7,1.3,1.3,2.6,1.9,3.9
	c1.3,2.6,2.5,5.2,3.7,7.8c1.2,2.6,2.3,5.3,3.4,8l-0.4,0.2c-1.6-2.4-3.1-4.9-4.6-7.4c-1.5-2.5-2.9-5-4.3-7.5c-0.7-1.3-1.4-2.5-2-3.8
	c-0.7-1.3-1.4-2.6-2-3.9c-0.6-1.3-1.2-2.6-1.7-4c-0.5-1.4-1-2.7-1.4-4.2L42.7,47.5z"></path><path class="st0" d="M42.7,47.4c2.1,2,4.1,4.1,6.1,6.2c2,2.1,3.9,4.3,5.9,6.5c1,1.1,2,2.2,3,3.3c1,1.1,2,2.2,3,3.3
	c2,2.2,4,4.4,6,6.6c-0.1,0.1-0.2,0.2-0.3,0.3c-2.3-2-4.4-4-6.6-6.1c-1.1-1-2.1-2.1-3.1-3.1c-1-1.1-2-2.1-3.1-3.2
	c-2-2.1-4-4.3-5.8-6.5c-1.9-2.2-3.6-4.5-5.2-7C42.5,47.6,42.6,47.5,42.7,47.4"></path><path class="st7" d="M42.7,47.4c0.8,0.2,1.5,0.4,2.2,0.7c0.7,0.3,1.4,0.5,2.1,0.8c1.3,0.6,2.6,1.3,3.9,2c2.5,1.5,4.9,3.1,7.3,4.8
	c2.4,1.7,4.7,3.4,7.1,5.3c2.3,1.8,4.6,3.7,6.8,5.8c-0.1,0.1-0.1,0.2-0.2,0.3c-2.9-1-5.6-2.2-8.3-3.6c-2.7-1.3-5.2-2.8-7.7-4.4
	c-2.5-1.6-5-3.2-7.2-5c-1.1-0.9-2.2-1.9-3.2-3c-0.5-0.5-1-1.1-1.5-1.7c-0.5-0.6-0.9-1.2-1.3-1.8C42.5,47.6,42.6,47.5,42.7,47.4"></path><path class="st0" d="M35.7,51.8c0.8-0.3,1.6-0.6,2.5-0.9c0.8-0.3,1.7-0.5,2.5-0.7c0.9-0.2,1.7-0.3,2.6-0.5c0.4-0.1,0.9-0.1,1.3-0.2
	l1.3-0.1c3.5-0.3,7.1-0.1,10.6,0.6c3.5,0.6,6.9,1.7,10.1,3.3c3.2,1.5,6.2,3.5,8.6,6L75,59.5c-2.9-1.9-5.9-3.5-9.1-4.7
	c-3.2-1.2-6.4-2.1-9.8-2.6c-3.3-0.5-6.7-0.7-10.1-0.7l-1.3,0c-0.4,0-0.8,0-1.3,0.1c-0.8,0.1-1.7,0-2.6,0.1c-0.8,0.1-1.7,0.1-2.6,0.2
	c-0.9,0.1-1.7,0.2-2.6,0.2L35.7,51.8z"></path><path class="st8" d="M42.6,47.4c1.5-0.1,2.9-0.1,4.4-0.1c1.4,0,2.9,0.1,4.3,0.1c2.9,0.2,5.8,0.4,8.6,0.7c2.9,0.3,5.7,0.7,8.6,1.1
	c2.9,0.4,5.7,0.9,8.5,1.6l0,0.4c-2.9,0.1-5.8,0-8.7-0.2c-2.9-0.1-5.8-0.4-8.6-0.6c-2.9-0.3-5.7-0.6-8.6-1c-1.4-0.2-2.9-0.5-4.3-0.7
	c-1.4-0.3-2.8-0.6-4.3-0.9L42.6,47.4z"></path><path class="st0" d="M37.9,48.1c1.3-0.7,2.6-1.2,4-1.8c1.3-0.6,2.7-1.1,4-1.6c2.7-1,5.4-1.9,8.2-2.8c2.8-0.9,5.5-1.7,8.3-2.4
	c2.8-0.7,5.6-1.4,8.5-2l0.1,0.4c-2.6,1.2-5.3,2.3-8,3.3c-2.7,1-5.4,2-8.2,2.9c-2.7,0.9-5.5,1.8-8.3,2.5c-1.4,0.4-2.8,0.7-4.2,1.1
	c-1.4,0.3-2.8,0.6-4.3,0.9L37.9,48.1z"></path><path class="st0" d="M42.4,47.4c2.9-0.6,5.7-1,8.6-1.5c2.9-0.4,5.7-0.9,8.6-1.3c2.9-0.4,5.7-0.8,8.6-1.2c2.9-0.4,5.7-0.8,8.6-1.1
	c0,0.1,0,0.3,0.1,0.4c-2.8,0.7-5.6,1.3-8.5,1.8c-2.8,0.5-5.7,1-8.6,1.5c-2.9,0.4-5.8,0.8-8.7,1.1c-2.9,0.3-5.8,0.5-8.7,0.7
	C42.4,47.6,42.4,47.5,42.4,47.4"></path><path class="st0" d="M42.4,47.5c2.1-2.1,4.4-4,6.9-5.7c2.5-1.6,5.1-3.1,7.9-4.2l2.1-0.8l2.1-0.7l2.2-0.6l2.2-0.5
	c2.9-0.6,5.9-0.9,8.9-0.9l0,0.4c-2.9,0.3-5.8,0.8-8.7,1.5l-2.1,0.6l-2.1,0.6l-2.1,0.7l-2,0.8c-2.7,1.1-5.3,2.5-7.8,4
	c-2.5,1.5-4.9,3.2-7.2,5.1L42.4,47.5z"></path><path class="st9" d="M42.4,47.4c2.2-1.9,4.4-3.7,6.7-5.5c1.1-0.9,2.3-1.8,3.4-2.7c1.1-0.9,2.3-1.8,3.4-2.6c2.3-1.7,4.6-3.4,7-5.1
	c2.4-1.7,4.8-3.3,7.2-4.8l0.2,0.3c-2.1,2-4.4,3.8-6.6,5.6c-2.3,1.8-4.6,3.6-6.9,5.3c-1.2,0.9-2.3,1.7-3.5,2.6
	c-1.2,0.8-2.3,1.7-3.5,2.5c-2.4,1.7-4.8,3.3-7.2,4.8L42.4,47.4z"></path><path class="st0" d="M41.9,49.7c1.4-2.6,3-5,4.7-7.4c1.7-2.3,3.5-4.6,5.4-6.8c1.8-2.2,3.7-4.4,5.7-6.5c2-2.1,3.9-4.2,6.1-6.2L64,23
	c-1.5,2.5-3.2,4.9-4.8,7.2c-1.7,2.4-3.4,4.7-5.2,6.9c-1.8,2.3-3.6,4.5-5.5,6.7c-1.9,2.1-4,4.2-6.2,6.1L41.9,49.7z"></path><path class="st0" d="M35.7,52.3c1.4-2.6,3-5,4.7-7.4c1.7-2.3,3.5-4.6,5.4-6.8c1.8-2.2,3.7-4.4,5.7-6.5c2-2.1,3.9-4.2,6.1-6.2
	l0.3,0.3c-1.5,2.5-3.2,4.9-4.8,7.2c-1.7,2.4-3.4,4.7-5.2,6.9c-1.8,2.3-3.6,4.5-5.5,6.7c-1.9,2.1-4,4.2-6.2,6.1L35.7,52.3z"></path><path class="st10" d="M41.6,49.3c-0.1-3.5,0.7-7,1.8-10.3c1.2-3.3,2.9-6.5,4.9-9.4c0.5-0.7,1-1.4,1.6-2.1c0.5-0.7,1.1-1.4,1.7-2
	c0.3-0.3,0.6-0.7,0.9-1c0.3-0.3,0.6-0.6,0.9-0.9l0.9-0.9l1-0.9c2.7-2.3,5.6-4.3,8.7-5.9l0.2,0.3c-2.8,2.1-5.4,4.3-7.8,6.7l-0.9,0.9
	l-0.9,0.9c-0.3,0.3-0.6,0.6-0.9,0.9c-0.3,0.3-0.5,0.7-0.8,1c-0.5,0.7-1.1,1.3-1.6,2c-0.5,0.7-1,1.3-1.5,2.1
	c-1.9,2.8-3.5,5.8-4.9,8.9c-1.3,3.1-2.3,6.4-3.1,9.7L41.6,49.3z"></path><path class="st0" d="M42.3,47.5c0.2-2.9,0.5-5.8,1-8.6c0.4-2.9,0.9-5.7,1.5-8.5l0.4-2.1l0.4-2.1c0.3-1.4,0.6-2.8,0.9-4.2
	c0.6-2.8,1.3-5.6,2.1-8.4l0.4,0.1c-0.3,2.9-0.6,5.8-1.1,8.6c-0.2,1.4-0.4,2.9-0.7,4.3L47,28.6l-0.4,2.1c-0.5,2.8-1.1,5.7-1.7,8.5
	c-0.7,2.8-1.3,5.6-2.2,8.4L42.3,47.5z"></path><path class="st11" d="M42.3,47.6c-0.7-1.4-1-2.8-1.3-4.3c-0.3-1.4-0.4-2.9-0.5-4.3c-0.2-2.9-0.3-5.8-0.4-8.7
	C40,27.5,40,24.6,40,21.7c0-2.9,0-5.8,0.2-8.7l0.4,0c0.5,2.9,0.9,5.7,1.3,8.6c0.4,2.9,0.7,5.7,0.9,8.6c0.3,2.9,0.5,5.8,0.7,8.6
	c0.1,1.4,0.1,2.9,0.1,4.3c-0.1,1.5-0.3,2.9-0.8,4.4L42.3,47.6z"></path><path class="st0" d="M49.1,44.7c1.5,3.6-0.2,7.7-3.7,9.2c-3.6,1.5-7.7-0.2-9.2-3.7c-1.5-3.6,0.2-7.7,3.7-9.2
	C43.5,39.4,47.6,41.1,49.1,44.7"></path><path class="st0" d="M63.3,64c-1-1.1-1.8-2.4-2.6-3.6c-0.8-1.2-1.5-2.5-2.1-3.8c-0.7-1.3-1.2-2.6-1.8-4c-0.6-1.3-1.1-2.7-1.6-4
	c-1-2.7-1.9-5.4-2.7-8.2c-0.7-2.8-1.3-5.6-1.5-8.5l0.7-0.2c1.8,2.4,3.2,5,4.5,7.6c1.3,2.6,2.4,5.2,3.4,7.8c0.5,1.3,1,2.7,1.4,4
	c0.5,1.3,0.9,2.7,1.3,4c0.4,1.4,0.7,2.8,0.9,4.2c0.2,1.4,0.4,2.9,0.4,4.4L63.3,64z"></path><path class="st0" d="M62.6,62.2c-2-2.1-3.9-4.3-5.7-6.5c-1.8-2.2-3.5-4.6-5.3-6.9c-1.7-2.3-3.4-4.7-5.1-7c-1.7-2.4-3.3-4.7-4.8-7.2
	l0.3-0.2c1.9,2.2,3.8,4.4,5.6,6.6c1.8,2.2,3.6,4.5,5.4,6.8c1.8,2.3,3.5,4.6,5.2,6.9c1.7,2.4,3.3,4.8,4.7,7.3L62.6,62.2z"></path><path class="st0" d="M62.6,62.2c-2.6-1.3-5.1-2.9-7.4-4.6c-2.4-1.7-4.6-3.5-6.8-5.3c-2.2-1.8-4.4-3.7-6.6-5.7
	c-2.1-2-4.2-3.9-6.2-6.1l0.3-0.3c2.5,1.5,4.9,3.1,7.3,4.8c2.4,1.7,4.7,3.4,7,5.2c2.3,1.8,4.5,3.6,6.7,5.5c2.1,1.9,4.2,3.9,6.1,6.2
	L62.6,62.2z"></path><path class="st1" d="M64.2,63.3c-2.8-2.1-5.7-3.9-8.7-5.3c-0.4-0.2-0.8-0.4-1.1-0.5c-0.4-0.2-0.8-0.3-1.2-0.5
	c-0.4-0.2-0.8-0.3-1.2-0.5l-1.2-0.4c-0.8-0.3-1.6-0.5-2.4-0.8c-0.8-0.3-1.6-0.4-2.5-0.7c-3.3-0.8-6.7-1.2-10.1-1.3
	c-3.4-0.1-6.9,0.1-10.3,0.5l-0.1-0.4c3.4-0.9,6.9-1.4,10.4-1.5c3.5-0.1,7.1,0.2,10.5,1c0.9,0.2,1.7,0.4,2.6,0.7
	c0.8,0.3,1.7,0.5,2.5,0.8l1.2,0.5c0.4,0.1,0.8,0.4,1.2,0.5c0.4,0.2,0.8,0.4,1.2,0.6c0.4,0.2,0.8,0.4,1.2,0.6c3.1,1.7,6,3.9,8.2,6.6
	L64.2,63.3z"></path><path class="st0" d="M62.7,62.2c-2.9-0.1-5.8-0.4-8.7-0.8c-2.9-0.4-5.7-0.9-8.5-1.4c-1.4-0.3-2.8-0.6-4.2-0.9
	c-1.4-0.3-2.8-0.6-4.2-0.9c-2.8-0.7-5.6-1.3-8.4-2.2l0.1-0.4c2.9,0.2,5.8,0.5,8.6,0.9c1.4,0.2,2.9,0.4,4.3,0.6
	c1.4,0.2,2.9,0.4,4.3,0.7c2.8,0.5,5.7,1,8.5,1.7c2.8,0.7,5.6,1.3,8.4,2.3L62.7,62.2z"></path><path class="st2" d="M69.8,61.4c-2.9-0.1-5.8-0.4-8.7-0.8c-2.9-0.4-5.7-0.9-8.5-1.4c-1.4-0.3-2.8-0.6-4.2-0.9
	c-1.4-0.3-2.8-0.6-4.2-0.9c-2.8-0.7-5.6-1.3-8.4-2.2l0.1-0.4c2.9,0.2,5.8,0.5,8.6,0.9c1.4,0.2,2.9,0.4,4.3,0.6
	c1.4,0.2,2.9,0.4,4.3,0.7c2.8,0.5,5.7,1,8.5,1.7c2.8,0.7,5.6,1.3,8.4,2.3L69.8,61.4z"></path><path class="st3" d="M65.9,63.8c-3.1-0.8-6.4-1.1-9.6-0.9L55.1,63c-0.2,0-0.4,0-0.6,0.1c-0.2,0-0.4,0-0.6,0.2
	c-0.4,0.2-0.8,0.7-1.2,0.8c-0.2,0.1-0.4,0-0.6,0l-0.6,0c-0.8,0-1.6,0-2.3,0c-0.8,0-1.6,0-2.3,0.1c-0.8,0.1-1.6,0.1-2.3,0.2
	c-0.8,0.1-1.6,0.2-2.3,0.3c-0.8,0.1-1.6,0.2-2.3,0.4c-0.8,0.2-1.6,0.3-2.3,0.5c-3.1,0.7-6.2,1.6-9.3,2.7L28,67.9
	c2.7-1.9,5.6-3.5,8.7-4.7c0.8-0.3,1.6-0.6,2.3-0.9c0.8-0.3,1.6-0.5,2.4-0.8c0.8-0.2,1.6-0.4,2.4-0.6c0.8-0.2,1.6-0.4,2.5-0.5
	c0.8-0.2,1.7-0.3,2.5-0.4c0.8-0.1,1.7-0.2,2.5-0.2l0.6,0c0.2,0,0.4,0,0.6,0c0.4,0.1,0.8,0.6,1.3,0.8c0.2,0.1,0.4,0.1,0.6,0.2
	c0.2,0,0.4,0.1,0.6,0.1l1.2,0.2c3.3,0.6,6.4,1.5,9.6,2.3L65.9,63.8z"></path><path class="st0" d="M62.8,62.2c-2.7,1.2-5.4,2.2-8.1,3.2c-1.4,0.5-2.7,1-4.1,1.4l-4.1,1.4c-2.7,0.9-5.5,1.8-8.3,2.5
	c-2.8,0.8-5.6,1.6-8.4,2.2l-0.1-0.4c2.7-1.1,5.4-2.2,8.1-3.2c2.7-1,5.4-1.9,8.2-2.8l4.1-1.3c1.4-0.4,2.8-0.8,4.2-1.2
	c2.8-0.8,5.6-1.6,8.4-2.2L62.8,62.2z"></path><path class="st0" d="M62.8,62.2c-2.2,2-4.5,3.7-6.8,5.4c-2.3,1.7-4.7,3.3-7.2,4.9c-2.4,1.6-4.9,3.1-7.4,4.4
	c-2.5,1.4-5.1,2.7-7.9,3.7l-0.2-0.3c2.1-2,4.4-3.8,6.8-5.5c2.3-1.7,4.7-3.3,7.2-4.8c2.5-1.5,4.9-3,7.5-4.4c2.5-1.4,5.1-2.7,7.8-3.8
	L62.8,62.2z"></path><path class="st0" d="M62.9,62.2c-1.8,2.3-3.7,4.5-5.6,6.6c-1.9,2.2-3.9,4.3-5.8,6.4c-1,1.1-2,2.1-3,3.1c-1,1-2,2.1-3.1,3.1
	c-2.1,2-4.2,4-6.4,5.9L38.7,87c1.8-2.3,3.6-4.5,5.6-6.7c1-1.1,1.9-2.1,2.9-3.2c1-1,2-2.1,3-3.2c2-2.1,4-4.2,6.1-6.2
	c2.1-2,4.2-4,6.3-5.9L62.9,62.2z"></path><path class="st4" d="M69.9,60.6c-2.8,2.1-5.4,4.2-7.9,6.5c-2.5,2.3-4.7,4.8-6.8,7.4c-2,2.6-3.9,5.5-5.4,8.4c-1.5,3-2.8,6.1-3.9,9.4
	l-0.4-0.1c0.2-3.5,1.1-6.9,2.4-10.2c1.3-3.3,3.1-6.3,5.3-9.1c2.2-2.8,4.7-5.3,7.4-7.4c2.8-2.2,5.8-4,9-5.3L69.9,60.6z"></path><path class="st5" d="M62.9,62.1c-0.4,2.9-1,5.7-1.7,8.5c-0.3,1.4-0.7,2.8-1.1,4.2c-0.4,1.4-0.8,2.8-1.2,4.2
	c-0.8,2.8-1.7,5.6-2.7,8.3c-1,2.8-2.1,5.5-3.3,8.2c-0.2,0-0.3-0.1-0.5-0.1c0.8-2.8,1.6-5.6,2.4-8.4c0.8-2.8,1.7-5.6,2.5-8.4
	c0.4-1.4,0.9-2.8,1.3-4.2c0.4-1.4,0.8-2.8,1.3-4.2c0.8-2.8,1.7-5.5,2.6-8.3C62.7,62,62.8,62.1,62.9,62.1"></path><path class="st0" d="M62.4,53.9c-0.4,2.9-1,5.7-1.7,8.5c-0.3,1.4-0.7,2.8-1.1,4.2c-0.4,1.4-0.8,2.8-1.2,4.2
	c-0.8,2.8-1.7,5.6-2.7,8.3c-1,2.8-2.1,5.5-3.3,8.2c-0.2,0-0.3-0.1-0.5-0.1c0.8-2.8,1.6-5.6,2.4-8.4c0.8-2.8,1.7-5.6,2.5-8.4
	c0.4-1.4,0.9-2.8,1.3-4.2c0.4-1.4,0.8-2.8,1.3-4.2c0.8-2.8,1.7-5.5,2.6-8.3C62.2,53.8,62.3,53.8,62.4,53.9"></path><path class="st0" d="M62.9,62.1c0.3,2.9,0.5,5.8,0.6,8.7c0.1,2.9,0.1,5.8,0,8.7c0,1.4-0.1,2.9-0.1,4.3c-0.1,1.4-0.1,2.9-0.2,4.3
	c-0.2,2.9-0.4,5.8-0.8,8.6l-0.4,0c-0.3-2.9-0.4-5.8-0.5-8.7c0-1.4-0.1-2.9-0.1-4.3c0-1.4,0-2.9,0-4.3c0-2.9,0.1-5.8,0.3-8.7
	c0.2-2.9,0.4-5.8,0.8-8.6L62.9,62.1z"></path><path class="st0" d="M63.8,38.2c0.3,2.9,0.5,5.8,0.6,8.7c0.1,2.9,0.1,5.8,0,8.7c0,1.4-0.1,2.9-0.1,4.3c-0.1,1.4-0.1,2.9-0.2,4.3
	c-0.2,2.9-0.4,5.8-0.8,8.6l-0.4,0c-0.3-2.9-0.4-5.8-0.5-8.7c0-1.4-0.1-2.9-0.1-4.3c0-1.4,0-2.9,0-4.3c0-2.9,0.1-5.8,0.3-8.7
	c0.2-2.9,0.4-5.8,0.8-8.6L63.8,38.2z"></path><path class="st6" d="M62.9,60.5c0.7,1.3,1.2,2.7,1.7,4.1c0.5,1.4,0.9,2.8,1.3,4.2c0.4,1.4,0.7,2.8,1.1,4.2c0.4,1.4,0.7,2.8,1.1,4.2
	c0.7,2.8,1.4,5.6,2.1,8.5c0.7,2.8,1.3,5.7,1.8,8.6c-0.2,0-0.3,0.1-0.5,0.1c-1.3-2.7-2.4-5.4-3.4-8.2c-1-2.8-1.9-5.5-2.7-8.4
	c-0.4-1.4-0.8-2.8-1.1-4.2c-0.3-1.4-0.7-2.8-1-4.2c-0.3-1.4-0.5-2.9-0.6-4.3c-0.1-1.4-0.2-2.9-0.1-4.4
	C62.6,60.5,62.7,60.5,62.9,60.5"></path><path class="st1" d="M62.9,62c1,1.1,1.8,2.3,2.6,3.5c0.8,1.2,1.6,2.4,2.3,3.7c0.7,1.3,1.4,2.5,2,3.8c0.7,1.3,1.3,2.6,1.9,3.9
	c1.3,2.6,2.5,5.2,3.7,7.8c1.2,2.6,2.3,5.3,3.4,8l-0.4,0.2c-1.6-2.4-3.1-4.9-4.6-7.4c-1.5-2.5-2.9-5-4.3-7.5c-0.7-1.3-1.4-2.5-2-3.8
	c-0.7-1.3-1.4-2.6-2-3.9c-0.6-1.3-1.2-2.6-1.7-4c-0.5-1.4-1-2.7-1.4-4.2L62.9,62z"></path><path class="st0" d="M62.9,61.9c2.1,2,4.1,4.1,6.1,6.2c2,2.1,3.9,4.3,5.9,6.5c1,1.1,2,2.2,3,3.3c1,1.1,2,2.2,3,3.3
	c2,2.2,4,4.4,6,6.6c-0.1,0.1-0.2,0.2-0.3,0.3c-2.3-2-4.4-4-6.6-6.1c-1.1-1-2.1-2.1-3.1-3.1c-1-1.1-2-2.1-3.1-3.2
	c-2-2.2-4-4.3-5.8-6.5c-1.9-2.2-3.6-4.5-5.2-7C62.7,62.1,62.8,62,62.9,61.9"></path><path class="st7" d="M62.8,61.9c0.8,0.2,1.5,0.4,2.2,0.7c0.7,0.3,1.4,0.5,2.1,0.9c1.3,0.6,2.6,1.3,3.9,2c2.5,1.5,4.9,3.1,7.3,4.8
	c2.4,1.7,4.7,3.4,7.1,5.3c2.3,1.8,4.6,3.7,6.8,5.8c-0.1,0.1-0.1,0.2-0.2,0.3c-2.9-1-5.6-2.2-8.3-3.6c-2.7-1.3-5.2-2.8-7.7-4.4
	c-2.5-1.6-5-3.2-7.2-5c-1.1-0.9-2.2-1.9-3.2-3c-0.5-0.5-1-1.1-1.5-1.7c-0.5-0.6-0.9-1.2-1.3-1.8C62.7,62.1,62.8,62,62.8,61.9"></path><path class="st0" d="M55.9,66.3c0.8-0.3,1.6-0.6,2.5-0.9c0.8-0.3,1.7-0.5,2.5-0.7c0.9-0.2,1.7-0.3,2.6-0.5c0.4-0.1,0.9-0.1,1.3-0.2
	l1.3-0.1c3.5-0.3,7.1-0.1,10.6,0.6c3.5,0.6,6.9,1.7,10.1,3.3c3.2,1.5,6.2,3.5,8.6,6L95.1,74c-2.9-1.9-5.9-3.5-9.1-4.7
	c-3.2-1.2-6.4-2.1-9.8-2.6C73,66.2,69.6,66,66.2,66l-1.3,0c-0.4,0-0.8,0-1.3,0.1c-0.8,0-1.7,0-2.6,0.1c-0.8,0.1-1.7,0.1-2.6,0.2
	c-0.9,0.1-1.7,0.2-2.6,0.2L55.9,66.3z"></path><path class="st8" d="M62.7,61.8c1.5-0.1,2.9-0.1,4.4-0.1c1.4,0,2.9,0.1,4.3,0.1c2.9,0.2,5.8,0.4,8.6,0.7c2.9,0.3,5.7,0.7,8.6,1.1
	c2.9,0.4,5.7,0.9,8.5,1.6l0,0.4c-2.9,0.1-5.8,0-8.7-0.2c-2.9-0.1-5.8-0.4-8.6-0.6c-2.9-0.3-5.7-0.6-8.6-1c-1.4-0.2-2.9-0.5-4.3-0.7
	c-1.4-0.3-2.8-0.6-4.3-0.9L62.7,61.8z"></path><path class="st0" d="M58.1,62.6c1.3-0.7,2.6-1.2,4-1.8c1.3-0.6,2.7-1.1,4-1.6c2.7-1,5.4-1.9,8.2-2.8c2.8-0.9,5.5-1.7,8.3-2.4
	c2.8-0.7,5.6-1.4,8.5-2l0.1,0.4c-2.6,1.2-5.3,2.3-8,3.3c-2.7,1-5.4,2-8.2,2.9c-2.7,0.9-5.5,1.8-8.3,2.5c-1.4,0.4-2.8,0.7-4.2,1.1
	c-1.4,0.3-2.8,0.6-4.3,0.9L58.1,62.6z"></path><path class="st0" d="M62.5,61.8c2.9-0.6,5.7-1,8.6-1.5c2.9-0.4,5.7-0.9,8.6-1.3c2.9-0.4,5.7-0.8,8.6-1.2c2.9-0.4,5.7-0.8,8.6-1.1
	c0,0.1,0,0.3,0.1,0.4c-2.8,0.7-5.6,1.3-8.5,1.8c-2.8,0.5-5.7,1-8.6,1.5c-2.9,0.4-5.8,0.8-8.7,1.1c-2.9,0.3-5.8,0.5-8.7,0.7
	C62.6,62.1,62.5,62,62.5,61.8"></path><path class="st0" d="M62.5,61.9c2.1-2.1,4.4-4,6.9-5.7c2.5-1.6,5.1-3.1,7.9-4.2l2.1-0.8l2.1-0.7l2.2-0.6l2.2-0.5
	c2.9-0.6,5.9-0.9,8.9-0.9l0,0.4c-2.9,0.3-5.8,0.8-8.7,1.5L83.9,51l-2.1,0.6l-2.1,0.7l-2,0.8c-2.7,1.1-5.3,2.5-7.8,4
	c-2.5,1.5-4.9,3.2-7.2,5.1L62.5,61.9z"></path><path class="st9" d="M62.6,61.9c2.2-1.9,4.4-3.7,6.7-5.5c1.1-0.9,2.3-1.8,3.4-2.7c1.1-0.9,2.3-1.8,3.4-2.6c2.3-1.8,4.6-3.4,7-5.1
	c2.4-1.7,4.8-3.3,7.2-4.8l0.2,0.3c-2.1,2-4.4,3.8-6.6,5.6c-2.3,1.8-4.6,3.6-6.9,5.3c-1.2,0.9-2.3,1.7-3.5,2.6
	c-1.2,0.8-2.3,1.7-3.5,2.5c-2.4,1.7-4.8,3.3-7.2,4.8L62.6,61.9z"></path><path class="st0" d="M62.1,64.2c1.4-2.6,3-5,4.7-7.4c1.7-2.3,3.5-4.6,5.4-6.8c1.8-2.2,3.7-4.4,5.7-6.5c2-2.1,3.9-4.2,6.1-6.2
	l0.3,0.3c-1.5,2.5-3.2,4.9-4.8,7.2c-1.7,2.4-3.4,4.7-5.2,6.9c-1.8,2.3-3.6,4.5-5.5,6.7c-1.9,2.1-4,4.2-6.2,6.1L62.1,64.2z"></path><path class="st0" d="M55.8,66.8c1.4-2.6,3-5,4.7-7.4c1.7-2.3,3.5-4.6,5.4-6.8c1.8-2.2,3.7-4.4,5.7-6.5c2-2.1,3.9-4.2,6.1-6.2
	l0.3,0.3c-1.5,2.5-3.2,4.9-4.8,7.2c-1.7,2.4-3.4,4.7-5.2,6.9c-1.8,2.3-3.6,4.5-5.5,6.7c-1.9,2.1-4,4.2-6.2,6.1L55.8,66.8z"></path><path class="st10" d="M61.8,63.7c-0.1-3.5,0.7-7,1.8-10.3c1.2-3.3,2.9-6.5,4.9-9.4c0.5-0.7,1-1.4,1.6-2.1c0.5-0.7,1.1-1.4,1.7-2
	c0.3-0.3,0.6-0.7,0.9-1c0.3-0.3,0.6-0.6,0.9-0.9l0.9-0.9l1-0.9c2.7-2.3,5.6-4.3,8.7-5.9l0.2,0.3c-2.8,2.1-5.4,4.3-7.8,6.7l-0.9,0.9
	l-0.9,0.9c-0.3,0.3-0.6,0.6-0.9,0.9c-0.3,0.3-0.5,0.7-0.8,1c-0.5,0.7-1.1,1.3-1.6,2c-0.5,0.7-1,1.3-1.5,2.1
	c-1.9,2.8-3.5,5.8-4.9,8.9c-1.3,3.1-2.3,6.4-3.1,9.7L61.8,63.7z"></path><path class="st0" d="M62.5,62c0.2-2.9,0.5-5.8,1-8.6c0.4-2.9,0.9-5.7,1.5-8.5l0.4-2.1l0.4-2.1c0.3-1.4,0.6-2.8,0.9-4.2
	c0.6-2.8,1.3-5.6,2.1-8.4l0.4,0.1c-0.3,2.9-0.6,5.8-1.1,8.6c-0.2,1.4-0.4,2.9-0.7,4.3l-0.4,2.1l-0.4,2.1c-0.5,2.8-1.1,5.7-1.7,8.5
	c-0.7,2.8-1.3,5.6-2.2,8.4L62.5,62z"></path><path class="st11" d="M62.5,62.1c-0.7-1.4-1-2.8-1.3-4.3c-0.3-1.4-0.4-2.9-0.5-4.3c-0.2-2.9-0.3-5.8-0.4-8.7
	c-0.1-2.9-0.2-5.8-0.2-8.7c0-2.9,0-5.8,0.2-8.7l0.4,0c0.5,2.9,0.9,5.7,1.3,8.6c0.4,2.9,0.7,5.7,0.9,8.6c0.3,2.9,0.5,5.8,0.7,8.6
	c0.1,1.4,0.1,2.9,0.1,4.3c-0.1,1.5-0.3,2.9-0.8,4.4L62.5,62.1z"></path><path class="st0" d="M69.3,59.2c1.5,3.6-0.2,7.7-3.7,9.2c-3.6,1.5-7.7-0.2-9.2-3.7c-1.5-3.6,0.2-7.7,3.7-9.2
	C63.7,53.9,67.8,55.6,69.3,59.2"></path><path class="st0" d="M60.8,45.6c-1-1.1-1.8-2.4-2.6-3.6c-0.8-1.2-1.5-2.5-2.1-3.8c-0.7-1.3-1.2-2.6-1.8-4c-0.6-1.3-1.1-2.7-1.6-4
	c-1-2.7-1.9-5.4-2.7-8.2c-0.7-2.8-1.3-5.6-1.5-8.5l0.7-0.2c1.8,2.4,3.2,5,4.5,7.6c1.3,2.6,2.4,5.2,3.4,7.8c0.5,1.3,1,2.7,1.4,4
	c0.5,1.3,0.9,2.7,1.3,4.1c0.4,1.4,0.7,2.8,0.9,4.2c0.2,1.4,0.4,2.9,0.4,4.4L60.8,45.6z"></path><path class="st0" d="M60,43.7c-2-2.1-3.9-4.3-5.7-6.5c-1.8-2.2-3.5-4.6-5.3-6.9c-1.7-2.3-3.4-4.7-5.1-7c-1.7-2.4-3.3-4.7-4.8-7.2
	l0.3-0.2c1.9,2.2,3.8,4.4,5.6,6.6c1.8,2.2,3.6,4.5,5.4,6.8c1.8,2.3,3.5,4.6,5.2,6.9c1.7,2.4,3.3,4.8,4.7,7.3L60,43.7z"></path><path class="st0" d="M60.1,43.8c-2.6-1.3-5.1-2.9-7.4-4.6c-2.4-1.7-4.6-3.5-6.8-5.3c-2.2-1.8-4.4-3.7-6.6-5.7
	c-2.1-2-4.2-3.9-6.2-6.1l0.3-0.3c2.5,1.5,4.9,3.1,7.3,4.8c2.4,1.7,4.7,3.4,7,5.2c2.3,1.8,4.5,3.6,6.7,5.5c2.1,1.9,4.2,3.9,6.1,6.2
	L60.1,43.8z"></path><path class="st1" d="M61.6,44.9c-2.8-2.1-5.7-3.9-8.7-5.3c-0.4-0.2-0.8-0.4-1.1-0.5c-0.4-0.2-0.8-0.3-1.2-0.5
	c-0.4-0.2-0.8-0.3-1.2-0.5l-1.2-0.4c-0.8-0.3-1.6-0.5-2.4-0.8c-0.8-0.3-1.6-0.4-2.5-0.7c-3.3-0.8-6.7-1.2-10.1-1.3
	c-3.4-0.1-6.9,0.1-10.3,0.5l-0.1-0.4c3.4-0.9,6.9-1.4,10.4-1.5c3.5-0.1,7.1,0.2,10.5,1c0.9,0.2,1.7,0.4,2.6,0.7
	c0.8,0.3,1.7,0.5,2.5,0.8l1.2,0.5c0.4,0.1,0.8,0.4,1.2,0.5c0.4,0.2,0.8,0.4,1.2,0.6c0.4,0.2,0.8,0.4,1.2,0.6c3.1,1.7,6,3.9,8.2,6.6
	L61.6,44.9z"></path><path class="st0" d="M60.1,43.8c-2.9-0.1-5.8-0.4-8.7-0.8c-2.9-0.4-5.7-0.9-8.5-1.4c-1.4-0.3-2.8-0.6-4.2-0.9
	c-1.4-0.3-2.8-0.6-4.2-0.9c-2.8-0.7-5.6-1.3-8.4-2.2l0.1-0.4c2.9,0.2,5.8,0.5,8.6,0.9c1.4,0.2,2.9,0.4,4.3,0.6
	c1.4,0.2,2.9,0.4,4.3,0.7c2.8,0.5,5.7,1,8.5,1.7c2.8,0.7,5.6,1.3,8.4,2.3L60.1,43.8z"></path><path class="st2" d="M67.2,42.9c-2.9-0.1-5.8-0.4-8.7-0.8c-2.9-0.4-5.7-0.9-8.5-1.4c-1.4-0.3-2.8-0.6-4.2-0.9
	c-1.4-0.3-2.8-0.6-4.2-0.9c-2.8-0.7-5.6-1.3-8.4-2.2l0.1-0.4c2.9,0.2,5.8,0.5,8.6,0.9c1.4,0.2,2.9,0.4,4.3,0.6
	c1.4,0.2,2.9,0.4,4.3,0.7c2.8,0.5,5.7,1,8.5,1.7c2.8,0.7,5.6,1.3,8.4,2.3L67.2,42.9z"></path><path class="st3" d="M63.3,45.4c-3.1-0.8-6.4-1.1-9.6-0.9l-1.2,0.1c-0.2,0-0.4,0-0.6,0.1c-0.2,0-0.4,0-0.6,0.2
	c-0.4,0.2-0.8,0.7-1.2,0.8c-0.2,0.1-0.4,0-0.6,0l-0.6,0c-0.8,0-1.6,0-2.3,0c-0.8,0-1.6,0-2.3,0.1c-0.8,0.1-1.6,0.1-2.3,0.2
	c-0.8,0.1-1.6,0.2-2.3,0.3c-0.8,0.1-1.6,0.2-2.3,0.4c-0.8,0.2-1.6,0.3-2.3,0.5c-3.1,0.7-6.2,1.6-9.3,2.7l-0.2-0.4
	c2.7-1.9,5.6-3.5,8.7-4.7c0.8-0.3,1.6-0.6,2.3-0.9c0.8-0.3,1.6-0.5,2.4-0.8c0.8-0.2,1.6-0.4,2.4-0.6c0.8-0.2,1.6-0.4,2.5-0.5
	c0.8-0.2,1.7-0.3,2.5-0.4c0.8-0.1,1.7-0.2,2.5-0.2l0.6,0c0.2,0,0.4,0,0.6,0c0.4,0.1,0.8,0.6,1.3,0.8c0.2,0.1,0.4,0.1,0.6,0.2
	c0.2,0,0.4,0.1,0.6,0.1l1.2,0.2c3.3,0.6,6.4,1.5,9.6,2.3L63.3,45.4z"></path><path class="st0" d="M60.2,43.8C57.6,45,54.9,46,52.2,47c-1.4,0.5-2.7,1-4.1,1.4L44,49.8c-2.7,0.9-5.5,1.8-8.3,2.5
	c-2.8,0.8-5.6,1.6-8.4,2.2l-0.1-0.4c2.7-1.1,5.4-2.2,8.1-3.2c2.7-1,5.4-1.9,8.2-2.8l4.1-1.3c1.4-0.4,2.8-0.8,4.2-1.2
	c2.8-0.8,5.6-1.6,8.4-2.2L60.2,43.8z"></path><path class="st0" d="M60.3,43.8c-2.2,2-4.5,3.7-6.8,5.4c-2.3,1.7-4.7,3.3-7.2,4.9c-2.4,1.6-4.9,3.1-7.4,4.4
	c-2.5,1.4-5.1,2.7-7.9,3.7l-0.2-0.3c2.1-2,4.4-3.8,6.8-5.5c2.3-1.7,4.7-3.3,7.2-4.8c2.5-1.5,4.9-3,7.5-4.4c2.5-1.4,5.1-2.7,7.8-3.8
	L60.3,43.8z"></path><path class="st0" d="M60.3,43.8c-1.8,2.3-3.7,4.5-5.6,6.6c-1.9,2.2-3.9,4.3-5.8,6.4c-1,1.1-2,2.1-3,3.1c-1,1-2,2.1-3.1,3.1
	c-2.1,2-4.2,4-6.4,5.9l-0.3-0.3c1.8-2.3,3.6-4.5,5.6-6.7c1-1.1,1.9-2.1,2.9-3.2c1-1.1,2-2.1,3-3.2c2-2.1,4-4.2,6.1-6.2
	c2.1-2,4.2-4,6.3-5.9L60.3,43.8z"></path><path class="st4" d="M67.4,42.1c-2.8,2.1-5.4,4.2-7.9,6.5c-2.5,2.3-4.7,4.8-6.8,7.4c-2,2.6-3.9,5.5-5.4,8.4c-1.5,3-2.8,6.1-3.9,9.4
	L43,73.8c0.2-3.5,1.1-6.9,2.4-10.2c1.3-3.3,3.1-6.3,5.3-9.1c2.2-2.8,4.7-5.3,7.4-7.4c2.8-2.2,5.8-4,9-5.3L67.4,42.1z"></path><path class="st5" d="M60.4,43.7c-0.4,2.9-1,5.7-1.7,8.5c-0.3,1.4-0.7,2.8-1.1,4.2c-0.4,1.4-0.8,2.8-1.2,4.2
	c-0.8,2.8-1.7,5.6-2.7,8.3c-1,2.8-2.1,5.5-3.3,8.2c-0.2,0-0.3-0.1-0.5-0.1c0.8-2.8,1.6-5.6,2.4-8.4c0.8-2.8,1.7-5.6,2.5-8.4
	c0.4-1.4,0.9-2.8,1.3-4.2c0.4-1.4,0.8-2.8,1.3-4.2c0.8-2.8,1.7-5.5,2.6-8.3C60.1,43.6,60.2,43.6,60.4,43.7"></path><path class="st0" d="M59.9,35.4c-0.4,2.9-1,5.7-1.7,8.5c-0.3,1.4-0.7,2.8-1.1,4.2c-0.4,1.4-0.8,2.8-1.2,4.2
	c-0.8,2.8-1.7,5.6-2.7,8.3c-1,2.8-2.1,5.5-3.3,8.2c-0.2,0-0.3-0.1-0.5-0.1c0.8-2.8,1.6-5.6,2.4-8.4c0.8-2.8,1.7-5.6,2.5-8.4
	c0.4-1.4,0.9-2.8,1.3-4.2c0.4-1.4,0.8-2.8,1.3-4.2c0.8-2.8,1.7-5.5,2.6-8.3C59.6,35.4,59.8,35.4,59.9,35.4"></path><path class="st0" d="M60.4,43.6c0.3,2.9,0.5,5.8,0.6,8.7c0.1,2.9,0.1,5.8,0,8.7c0,1.4-0.1,2.9-0.1,4.3c-0.1,1.4-0.1,2.9-0.2,4.3
	c-0.2,2.9-0.4,5.8-0.8,8.6l-0.4,0c-0.3-2.9-0.4-5.8-0.5-8.7c0-1.4-0.1-2.9-0.1-4.3c0-1.4,0-2.9,0-4.3c0-2.9,0.1-5.8,0.3-8.7
	c0.2-2.9,0.4-5.8,0.8-8.6L60.4,43.6z"></path><path class="st0" d="M61.2,19.8c0.3,2.9,0.5,5.8,0.6,8.7c0.1,2.9,0.1,5.8,0,8.7c0,1.4-0.1,2.9-0.1,4.3c-0.1,1.4-0.1,2.9-0.2,4.3
	c-0.2,2.9-0.4,5.8-0.8,8.6l-0.4,0c-0.3-2.9-0.4-5.8-0.5-8.7c0-1.4-0.1-2.9-0.1-4.3c0-1.4,0-2.9,0-4.3c0-2.9,0.1-5.8,0.3-8.7
	c0.2-2.9,0.4-5.8,0.8-8.6L61.2,19.8z"></path><path class="st6" d="M60.3,42c0.7,1.3,1.2,2.7,1.7,4.1c0.5,1.4,0.9,2.8,1.3,4.2c0.4,1.4,0.7,2.8,1.1,4.2c0.4,1.4,0.7,2.8,1.1,4.2
	c0.7,2.8,1.4,5.6,2.1,8.5c0.7,2.8,1.3,5.7,1.8,8.6c-0.2,0-0.3,0.1-0.5,0.1c-1.3-2.7-2.4-5.4-3.4-8.2c-1-2.8-1.9-5.5-2.7-8.4
	c-0.4-1.4-0.8-2.8-1.1-4.2c-0.3-1.4-0.7-2.8-1-4.2c-0.3-1.4-0.5-2.9-0.6-4.3c-0.1-1.4-0.2-2.9-0.1-4.4C60.1,42.1,60.2,42,60.3,42"></path><path class="st1" d="M60.4,43.5c1,1.1,1.8,2.3,2.6,3.5c0.8,1.2,1.6,2.4,2.3,3.7c0.7,1.3,1.4,2.5,2,3.8c0.7,1.3,1.3,2.6,1.9,3.9
	c1.3,2.6,2.5,5.2,3.7,7.8c1.2,2.6,2.3,5.3,3.4,8L76,74.4c-1.6-2.4-3.1-4.9-4.6-7.4c-1.5-2.5-2.9-5-4.3-7.5c-0.7-1.3-1.4-2.5-2-3.8
	c-0.7-1.3-1.4-2.6-2-3.9c-0.6-1.3-1.2-2.6-1.7-4c-0.5-1.4-1-2.7-1.4-4.2L60.4,43.5z"></path><path class="st0" d="M60.3,43.5c2.1,2,4.1,4.1,6.1,6.2c2,2.1,3.9,4.3,5.9,6.5c1,1.1,2,2.2,3,3.3c1,1.1,2,2.2,3,3.3
	c2,2.2,4,4.4,6,6.6c-0.1,0.1-0.2,0.2-0.3,0.3c-2.3-2-4.4-4-6.6-6.1c-1.1-1-2.1-2.1-3.1-3.1c-1-1.1-2-2.1-3.1-3.2
	c-2-2.2-4-4.3-5.8-6.5c-1.9-2.2-3.6-4.5-5.2-7C60.1,43.7,60.2,43.6,60.3,43.5"></path><path class="st7" d="M60.3,43.5c0.8,0.2,1.5,0.4,2.2,0.7c0.7,0.3,1.4,0.5,2.1,0.9c1.3,0.6,2.6,1.3,3.9,2c2.5,1.5,4.9,3.1,7.3,4.8
	c2.4,1.7,4.7,3.4,7.1,5.3c2.3,1.8,4.6,3.7,6.8,5.8c-0.1,0.1-0.1,0.2-0.2,0.3c-2.9-1-5.6-2.2-8.3-3.6c-2.7-1.3-5.2-2.8-7.7-4.4
	c-2.5-1.6-5-3.2-7.2-5c-1.1-0.9-2.2-1.9-3.2-3c-0.5-0.5-1-1.1-1.5-1.7c-0.5-0.6-0.9-1.2-1.3-1.8C60.1,43.7,60.2,43.6,60.3,43.5"></path><path class="st0" d="M53.3,47.8c0.8-0.3,1.6-0.6,2.5-0.9c0.8-0.3,1.7-0.5,2.5-0.7c0.9-0.2,1.7-0.3,2.6-0.5c0.4-0.1,0.9-0.1,1.3-0.2
	l1.3-0.1c3.5-0.3,7.1-0.1,10.6,0.6c3.5,0.6,6.9,1.7,10.1,3.3c3.2,1.5,6.2,3.5,8.6,6l-0.3,0.3c-2.9-1.9-5.9-3.5-9.1-4.7
	c-3.2-1.2-6.4-2.1-9.8-2.6c-3.3-0.5-6.7-0.7-10.1-0.7l-1.3,0c-0.4,0-0.8,0-1.3,0.1c-0.8,0-1.7,0-2.6,0.1c-0.8,0.1-1.7,0.1-2.6,0.2
	c-0.9,0.1-1.7,0.2-2.6,0.2L53.3,47.8z"></path><path class="st8" d="M60.2,43.4c1.5-0.1,2.9-0.1,4.4-0.1c1.4,0,2.9,0.1,4.3,0.1c2.9,0.2,5.8,0.4,8.6,0.7c2.9,0.3,5.7,0.7,8.6,1.1
	c2.9,0.4,5.7,0.9,8.5,1.6l0,0.4c-2.9,0.1-5.8,0-8.7-0.2c-2.9-0.1-5.8-0.4-8.6-0.6c-2.9-0.3-5.7-0.6-8.6-1c-1.4-0.2-2.9-0.5-4.3-0.7
	c-1.4-0.3-2.8-0.6-4.3-0.9L60.2,43.4z"></path><path class="st0" d="M55.6,44.1c1.3-0.7,2.6-1.2,4-1.8c1.3-0.6,2.7-1.1,4-1.6c2.7-1,5.4-1.9,8.2-2.8c2.8-0.9,5.5-1.7,8.3-2.4
	c2.8-0.7,5.6-1.4,8.5-2l0.1,0.4c-2.6,1.2-5.3,2.3-8,3.3c-2.7,1-5.4,2-8.2,2.9c-2.7,0.9-5.5,1.8-8.3,2.5c-1.4,0.4-2.8,0.7-4.2,1.1
	c-1.4,0.3-2.8,0.6-4.3,0.9L55.6,44.1z"></path><path class="st0" d="M60,43.4c2.9-0.6,5.7-1,8.6-1.5c2.9-0.4,5.7-0.9,8.6-1.3c2.9-0.4,5.7-0.8,8.6-1.2c2.9-0.4,5.7-0.8,8.6-1.1
	c0,0.1,0,0.3,0.1,0.4c-2.8,0.7-5.6,1.3-8.5,1.8c-2.8,0.5-5.7,1-8.6,1.5c-2.9,0.4-5.8,0.8-8.7,1.1c-2.9,0.3-5.8,0.5-8.7,0.7
	C60,43.7,60,43.5,60,43.4"></path><path class="st0" d="M60,43.5c2.1-2.1,4.4-4,6.9-5.7c2.5-1.6,5.1-3.1,7.9-4.2l2.1-0.8l2.1-0.7l2.2-0.6l2.2-0.5
	c2.9-0.6,5.9-0.9,8.9-0.9l0,0.4c-2.9,0.3-5.8,0.8-8.7,1.5l-2.1,0.6l-2.1,0.6l-2.1,0.7l-2,0.8c-2.7,1.1-5.3,2.5-7.8,4
	c-2.5,1.5-4.9,3.2-7.2,5.1L60,43.5z"></path><path class="st9" d="M60.1,43.5c2.2-1.9,4.4-3.7,6.7-5.5c1.1-0.9,2.3-1.8,3.4-2.7c1.1-0.9,2.3-1.8,3.4-2.6c2.3-1.8,4.6-3.4,7-5.1
	c2.4-1.7,4.8-3.3,7.2-4.8L88,23c-2.1,2-4.4,3.8-6.6,5.6c-2.3,1.8-4.6,3.6-6.9,5.3c-1.2,0.9-2.3,1.7-3.5,2.6
	c-1.2,0.8-2.3,1.7-3.5,2.5c-2.4,1.7-4.8,3.3-7.2,4.8L60.1,43.5z"></path><path class="st0" d="M59.5,45.7c1.4-2.6,3-5,4.7-7.4c1.7-2.3,3.5-4.6,5.4-6.8c1.8-2.2,3.7-4.4,5.7-6.5c2-2.1,3.9-4.2,6.1-6.2
	l0.3,0.3c-1.5,2.5-3.2,4.9-4.8,7.2c-1.7,2.4-3.4,4.7-5.2,6.9c-1.8,2.3-3.6,4.5-5.5,6.7c-1.9,2.1-4,4.2-6.2,6.1L59.5,45.7z"></path><path class="st0" d="M53.3,48.3c1.4-2.6,3-5,4.7-7.4c1.7-2.3,3.5-4.6,5.4-6.8c1.8-2.2,3.7-4.4,5.7-6.5c2-2.1,3.9-4.2,6.1-6.2
	l0.3,0.3c-1.5,2.5-3.2,4.9-4.8,7.2c-1.7,2.4-3.4,4.7-5.2,6.9c-1.8,2.3-3.6,4.5-5.5,6.7c-1.9,2.1-4,4.2-6.2,6.1L53.3,48.3z"></path><path class="st10" d="M59.2,45.3c-0.1-3.5,0.7-7,1.8-10.3c1.2-3.3,2.9-6.5,4.9-9.4c0.5-0.7,1-1.4,1.6-2.1c0.5-0.7,1.1-1.4,1.7-2
	c0.3-0.3,0.6-0.7,0.9-1c0.3-0.3,0.6-0.6,0.9-0.9l0.9-0.9l1-0.9c2.7-2.3,5.6-4.3,8.7-5.9l0.2,0.3c-2.8,2.1-5.4,4.3-7.8,6.7l-0.9,0.9
	l-0.9,0.9c-0.3,0.3-0.6,0.6-0.9,0.9c-0.3,0.3-0.5,0.7-0.8,1c-0.5,0.7-1.1,1.3-1.6,2c-0.5,0.7-1,1.3-1.5,2.1
	c-1.9,2.8-3.5,5.8-4.9,8.9c-1.3,3.1-2.3,6.4-3.1,9.7L59.2,45.3z"></path><path class="st0" d="M60,43.6c0.2-2.9,0.5-5.8,1-8.6c0.4-2.9,0.9-5.7,1.5-8.5l0.4-2.1l0.4-2.1c0.3-1.4,0.6-2.8,0.9-4.2
	c0.6-2.8,1.3-5.6,2.1-8.4l0.4,0.1c-0.3,2.9-0.6,5.8-1.1,8.6c-0.2,1.4-0.4,2.9-0.7,4.3l-0.4,2.1l-0.4,2.1c-0.5,2.8-1.1,5.7-1.7,8.5
	c-0.7,2.8-1.3,5.6-2.2,8.4L60,43.6z"></path><path class="st11" d="M60,43.6c-0.7-1.4-1-2.8-1.3-4.3c-0.3-1.4-0.4-2.9-0.5-4.3c-0.2-2.9-0.3-5.8-0.4-8.6c-0.1-2.9-0.2-5.8-0.2-8.7
	c0-2.9,0-5.8,0.2-8.7l0.4,0c0.5,2.9,0.9,5.7,1.3,8.6c0.4,2.9,0.7,5.7,0.9,8.6c0.3,2.9,0.5,5.8,0.7,8.6c0.1,1.4,0.1,2.9,0.1,4.3
	c-0.1,1.5-0.3,2.9-0.8,4.4L60,43.6z"></path><path class="st0" d="M66.8,40.7c1.5,3.6-0.2,7.7-3.7,9.2c-3.6,1.5-7.7-0.2-9.2-3.7c-1.5-3.6,0.2-7.7,3.7-9.2
	C61.2,35.5,65.3,37.1,66.8,40.7"></path><path class="st12" d="M51.1,22.4c0,0-0.5-1.1-0.9-1.1s-0.8,1-0.7,1.1c0.1,0.1-0.2,0.7-0.3,0.9c-0.1,0.2-0.1,0.5-0.5,0
	c-0.4-0.5,0.1-1.6-0.6-1.1c-0.7,0.5-0.4,0.9-0.7,0.7c-0.3-0.1-0.9-1.1-0.9-0.5c-0.1,0.6-0.2,0.9,0,1.1c0.2,0.2,0.3,1.1,0.2,1.1
	c-0.2-0.1-1.6-1.4-2-0.8s-0.4,0.7-0.3,1.2c0.1,0.4,1,0.5,0.1,0.4c-0.9-0.1-1.4-0.2-1.5,0c-0.1,0.2-0.2,0.6,0,0.8
	c0.2,0.2,0.3,0.7,0.3,0.7s-0.5-0.3-0.7,0c-0.3,0.3,0,1,0,1l0.2,0.9c0,0-0.7-0.3-0.9-0.3c-0.2-0.1-0.6,0-0.4,0.3s0.4,0.7,0.4,0.7
	s-1.1-1.2-1.2-0.8c-0.1,0.4,0.3,0.8,0.3,0.8s-0.9-0.5-1.2-0.3c-0.3,0.2-0.3,0.6,0,0.9s1,0.6,1,0.6s-1.7-0.3-1.5,0s0.9,0.7,1.2,0.8
	s0.5,0,0.5,0s-1.4-0.6-1.3,0.1c0.1,0.6,0.4,1.1,0.6,1.2s0.5,0.3,0.5,0.3c0,0.9,0.5,1.1,0.5,1.1c-0.7,0.5-1.3,0.2-1.4,0.5
	c-0.1,0.3,0.1,0.9,0.3,0.9c0.2,0.1-0.1,0.2-0.2,0.3c-0.2,0.1-0.7,0.2-0.1,0.6s0.2,0.3,0.6,0.4c0.3,0.1,0.7-0.1,0.6,0.3
	c-0.1,0.4-0.5,0.2-0.7,0.5c-0.3,0.3-0.8,0.6-0.3,0.7c0.5,0.2,0.5,0.2,0.5,0.2s-0.9,0.9-0.5,1c0.3,0.2,0.6,0.3,0.9,0
	c0.3-0.3,1.2-0.5,1.2-0.5l0.6-0.2c0,0-1.5,1-1.6,1.4c-0.1,0.5-0.2,1.5,0.1,1.6c0.3,0.1,0.6,0,1.2-0.3c0.5-0.3,0.9-0.6,0.9-0.6
	s-1.3,1.7-1.1,2.1s0.1,0.7,0.6,0.6c0.5-0.1,1.3-0.2,1.3-0.2l0.8-0.5c0,0-0.8,1.1-0.6,1.3c0.2,0.2,0.2,0,0.9,0.4
	c0.7,0.4,0.8,0.6,1,0.6c0.2,0,0.6-0.3,0.9,0c0.4,0.5,0.5,1.5,1.1,0.9c0.6-0.6,0.7-0.9,0.7-0.9s-0.2,0.7,0.5,0.7s1,0.1,1.3-0.3
	c0.3-0.4,0.6-0.8,0.6-0.8s-0.1,1,0.5,1.1c0.6,0.1,0.3,0.5,0.6,0.1c0.2-0.4-0.2-0.7,0.6-0.5c0.7,0.3,1.3,1.2,1.4,1
	c0.2-0.1,0.6-0.1,0.7,0c0.1,0.1-0.2,0.9,0.4,0.9c0.6,0.1,0.9,0.6,1,0c0.1-0.6,0.3-1,0.3-1s0.6,1.2,1,1.3c0.4,0.2,0.5,0.5,0.6,0
	c0.2-0.5,0.2-1.4,0.4-1.2s0.8,1.2,1.2,1.2c0.3-0.1,0.7-0.4,0.6-0.7c-0.1-0.3-0.1-1.1,0-0.9c0.2,0.2,0.4,0.9,1,0.7
	c0.6-0.1,1-0.1,1-0.5s0.6-0.7,0.8-0.6c0.2,0.2,2.2-0.4,2.1-0.7c-0.1-0.3-0.4-1.3,0-1.4c0.4-0.1,0.7-0.1,0.8-0.3c0.1-0.2-0.5-0.8,0-1
	c0.5-0.2,0.7-0.8,0.6-1c-0.1-0.2-0.5-0.6-0.3-0.9c0.1-0.3,1-0.6,1.2-0.9c0.1-0.3,0.1-1.2,0-1.3c-0.1-0.1-0.6-0.6-0.6-0.6
	s0.6-0.7,0.7-1c0.1-0.3,0-1,0-1h-1.3c0,0,0.3-0.4,0.7-0.8s1-0.3,1.1-0.8c0.1-0.6,1.1-1.5,0.3-1.7s-1.2,0.1-1.6,0.1s0.5-0.7,0.6-1.2
	s0.6-1,0.1-0.9c-0.5,0.1-1.4,0.2-1.4,0.2v-0.8c0,0-1.9,1.4-2.1,1.5c-0.2,0.1,1.5-2,1.6-2.2c0.1-0.3-0.2-1.3-0.2-1.3s-0.3-0.2,0-0.6
	c0.3-0.5,1.4-1.2,0.7-1.4c-0.6-0.2-1.3-0.3-1.3-0.3s0.2-0.9,0.2-1.3c-0.1-0.5-0.2-1.2-0.2-1.2S64,22.2,63.5,23s-0.9,0.6-0.9,0.6
	s0.8-1,0.3-1.6c-0.5-0.6-0.9-1.2-1-1c-0.1,0.2-0.5,0.9-0.5,0.9l-0.5-1c0,0,0.2-0.4-0.1-0.8c-0.2-0.4-0.8-0.9-1-0.7
	c-0.2,0.2-0.5,0.3-0.7,0.6s-0.5,0.4-0.7,0.1c-0.2-0.3-0.3-0.5-0.6-0.7s-0.5,0.3-0.5,0.3s-0.6,0.4-0.8,0.1c-0.2-0.3-0.5-0.8-0.7-0.7
	c-0.2,0.1-0.2,1.1-0.5,0.8c-0.8-0.7-0.4-1.8-1.2-1.2c-0.7,0.7-0.4,1.8-0.4,1.8s-0.5-0.2-0.6-0.3c-0.1-0.2-0.7-1-1-0.7
	c-0.2,0.3-0.1,0.9-0.1,0.9s-0.5-0.3-0.8-0.4C50.7,20,51,20.6,51,20.6L51.1,22.4z"></path><path class="st13" d="M57.9,22.1c-0.3,0.4-0.3,2.5-0.3,2.5l1.6-2.5l1.4,0.8l0.3,0.7l-0.6,1.4l2.4-1.4l-1.7,1.4h1.7L61,25.6h2l-1.6,1
	h2l-1.8,0.7h1.8l-0.6,0.8h1.1l-0.3,0.7l-1.3,0.7l-1.2,0.3l1.2,0.3c0,0,0.7-0.5,0.7,0c0,0.5-0.1,1.1-0.1,1.1l0.5,0.3l0.9-0.2
	l-0.4,0.7h0.7L63.8,33l-0.2,0.4c0,0,1.7-0.7,1.5-0.7c-0.1,0-1.2,0.9-1.1,0.9c0.2,0,1.5,0,1.5,0l-0.9,0.7c0,0,1.1,0.2,0.9,0.2
	c-0.2,0-1.2,0.4-1.2,0.4s0.9,0.4,0.7,0.5c-0.2,0.1-2,0.9-2.1,1c-0.1,0,2.2-0.1,2,0c-0.2,0.1-2.1,0.5-2.1,0.5l1.8,0.5h-1.4l1,0.9H63
	l1.2,1.5h-1.4l1.3,0.7h-1.2l0.9,1.2l-1.5-0.4l0.7,1.1l-1.2-0.5l0.6,0.9l-1.3-1c0,0,1.5,2.1,1.3,2.1c-0.2,0-1.5-1-1.5-1l0.2,0.8
	l-1.1-1.4l0.5,1.6l-0.9-0.8l0.1,1.3l-0.7-0.7v1.3l-0.5-1.1l-0.1,0.8L58,44.2l-0.2,1.4l-0.4-1.4L57,45.1l-0.2-0.9l-0.3,1.4l-0.6-1.4
	l-0.3,0.7L55,44.2l-0.2,1.1c0,0-0.3-2.5-0.3-2.7s-0.3-1.8-0.3-1.8l-0.3,2.4l-0.5-0.6l-0.2,0.8l-0.5-0.2v1L52.3,43L51.9,44l-0.5-0.5
	v-1.3l-0.8,1.7v-1.7l-0.7,1.1L49.5,42L49,44.1L48.8,42l-1.1,1.3v-1.2l-1.1,0.5v-1l-0.9,1.1l1.1-2.1l-1.5,1.4l0.8-1.5l-1,0.6l0.6-0.9
	L45,40.6l0.2-0.9l-1.4,0.8l0.8-1.1l-1,0l0.8-0.6l-1.1-0.2l1.9-0.7l-2.5,0l0.6-0.7h-0.9l1.5-0.7l-1.8,0l1.7-0.7l-2-0.5l1.8-0.1
	l-0.1-0.5l-1.7-0.3l1.4-0.4l0.3-1h2.1l-2.3-0.5l-1.2,0l1.1-0.4l-1.2-0.2l1.2-0.2l-1.1-0.4l1.7-0.3l-0.9-0.4l0.9-0.3l-0.7-0.4
	l1.3-0.1l-0.4-0.6l1.3-0.2L44,28.8l1.9,0l-1.1-0.6l0.8-0.1l-0.8-0.7l1.3,0.4l-0.7-1l0.9,0.4l-0.5-1l1.4,0.4L47.1,26l0.6,0.3
	l-0.9-1.1l1.3,0.9v-0.5l0-1l0.8,1.7l0.7,0.7l0.8,0.9L50,26.6l-0.2-1.3l-0.1-0.9l0.6,0.3l0.1-0.8l0.5,0.7l0.2-0.8l0.2,0.6l0.4-0.2
	l0.5,0.4l0.2-0.9l0.7,1.1l0.3-0.7l-0.5-1l0.9,0.7l-0.9-2.2l1.2,1.8l-0.1-1.8l0.5,1.6l0.2-1.1l0.5,1.1v-1.7l0.3,1.7l0.2-0.7l0.4-1.2
	l0.2,1.7l0.5-0.8l0.1,1.3l0.3-1.3l-0.1,1.8L57.9,22.1z"></path><path class="st14" d="M53.1,29.2c0.7-0.2,1.1-0.4,1.7-0.3c0.7,0.1,1.3,0.4,1.7,0.4c0.4,0.1,1,0.4,1.1,0.7s0.4,0.4,0.8,0.5
	c0.4,0.1,0.9-0.2,1.1,0.2c0.2,0.4-0.1,1.4,0,1.7c0.1,0.3,0.5,0.5,0.5,1.3c0,0.8-0.7,1.3-1.1,1.4c-0.4,0.1-0.8,0.7-0.8,0.9
	s0.2,0.5-0.2,0.7c-0.4,0.2-0.8,0.3-0.9,0.5s-0.4,0.7-0.9,0.7c-0.5,0-1.2,0.4-1.5,0.5c-0.3,0.1-0.5,0.1-1-0.2c-0.6-0.3-1.1-0.8-1.3-1
	c-0.2-0.1-1-0.8-1.3-0.9c-0.3-0.1-0.7,0.4-0.8-0.1c-0.1-0.5-0.2-1.2-0.5-1.4c-0.3-0.1-1-0.7-1-0.8s0.1-1,0.2-1.2
	c0.1-0.2,0.5-0.9,0.3-1.1c-0.1-0.2-0.4-0.8,0.1-1.4c0.5-0.6,0.8-1.1,1.4-1.2c0.6-0.1,1.3-0.4,1.4-0.3C52.4,29,53.1,29.2,53.1,29.2z"></path><path class="st15" d="M52,29.7c0,0-1.1,0-0.9,0.4c0.2,0.3,0.4,0.6,0,0.6c-0.4,0-1.2,0.1-1.1,0.4c0.1,0.3,0.4,0.6,0.8,0.9
	s0.6,1.2,0.4,1.3c-0.1,0.1-0.9,0.7-0.8,1.2s0,0.8,0.6,0.8c0.5,0,0.7-0.2,0.7,0.2s0.5,0.9,0.5,0.9s0.3-0.4,0.5,0
	c0.2,0.4-0.1,0.5,0.2,0.4c0.3-0.1,1.4,0.2,1.7,0.3c0.2,0.1,0.5-0.4,1-0.4s0.6-0.7,1.2-0.4c0.5,0.3,1.2,0.1,1-0.2
	c-0.2-0.3-1.4-0.4-0.7-1c0.7-0.5,2.8-0.9,2.7-1.3c-0.2-0.4-1.1-1-1.4-1c-0.2,0-1.2-0.9-1.1-1.2s-0.4-0.5-0.4-0.8c0-0.2,0-1.2-0.2-1
	c-0.2,0.1-0.7,0.5-0.9,1.1s-0.4,1.1-0.5,1.4c-0.1,0.3,0.7-2.3,0.5-2.6c-0.1-0.3-0.4-0.5-0.6-0.2c-0.2,0.2-0.3-0.2-0.6,0.2
	c-0.3,0.4-0.4,1.2-0.4,1.3s-1.2-0.7-1.2-0.8C52.7,30,52,29.7,52,29.7z"></path><path class="st16" d="M51.3,28.5c0,0,1.8,2.5,1.9,3.1c0.1,0.7,0,1.6,0,1.6l-0.5-0.3c0,0-0.1-1.1-0.8-1.3s-1-0.1-1-0.1
	s0.6,0.6,0.7,0.8c0.1,0.1,0.9,1.1,0.9,1.3c0,0.2,0.2,0.7,0.1,0.6s-0.8-1.7-1.7-1.7c-1,0-2.3,0.4-2.3,0.4l-1.6,0.3
	c0,0,2.3,0.5,2.6,0.4c0.3-0.1,1.8,0.1,1.8,0.1s1.2,0.9,1.2,1c0,0.1,0.9,0.7,0.9,0.7v1c0,0-0.1,2.3,0,2.5c0.1,0.2,0.4,0.3,0.4,0.3
	l0.2-3.7l0.8-0.2l0.9-0.4c0,0,0,0.4,0.5,0.2c0.5-0.2,1.2-0.2,1.8-0.2c0.5,0,2.8-0.4,2.8-0.4l-4.5,0l-0.4-0.2l-0.6,0
	c0,0,0.9-0.8,1.7-1.1s1.2-0.6,1.5-0.8c0.3-0.2,2-1.2,2-1.2l-1.8,0.8l1.3-1.2c0,0-1.7,0.7-1.9,0.9c-0.2,0.2-0.8,0.5-1.1,0.7
	s-1,0.8-1.1,0.9S55,33.9,55,33.9s1.5-1.7,1.6-1.9c0.2-0.2,0.9-0.7,0.9-0.9c0-0.2,0-0.4-0.1-0.4s-0.3-0.6-0.7,0
	c-0.4,0.7-0.5,1.1-0.5,1.1l-0.8,1.1c0,0-1,0.2-1,0.3s-0.2-0.7,0-1.4c0.2-0.7,0.4-1.4,0.2-1.8c-0.2-0.4-0.6-0.1-0.6,0
	s-0.4,1.2-0.4,1.2s-0.1-0.8-0.4-1.2c-0.3-0.4-1-1.2-1-1.2L51.3,28.5z"></path><path class="st17" d="M53.6,33.7c0,0.1,0,0.5,0,0.7s0.5,0.7,0.6,0.7c0.1-0.1,0.5-0.2,0.6-0.3s0.3-0.6,0.3-0.6s0.1-0.1-0.3,0
	c-0.4,0.1-0.5,0.4-0.6,0.2s-0.3-0.4-0.2-0.5C54.1,33.8,53.6,33.7,53.6,33.7z"></path><path class="st16" d="M92.7,35.3c0,0,1.2-0.6,1.7-0.3c0.5,0.3,0.4,1.5,0.2,1.6s-0.1,0.8-0.1,1c0,0.2-0.2,0.5,0.5,0.3
	c0.8-0.2,0.9-1.5,1.4-0.5c0.5,1,0,1.1,0.4,1.2c0.5,0.2,1.6-0.4,1.4,0.2c-0.3,0.6-0.3,0.9-0.7,1c-0.3,0.1-1.1,0.7-0.8,0.8
	c0.2,0.1,2.6-0.1,2.8,0.8c0.2,0.9,0,1-0.3,1.3s-1.4-0.3-0.3,0.3s1.7,0.9,1.7,1.2c0,0.3-0.1,0.7-0.4,0.7c-0.4,0-0.8,0.4-0.8,0.4
	s0.7,0.1,0.9,0.6c0.2,0.5-0.6,0.9-0.6,0.9l-0.8,0.6c0,0,1,0.3,1.3,0.4c0.3,0.1,0.7,0.4,0.3,0.6c-0.4,0.2-0.9,0.4-0.9,0.4
	s2-0.3,1.8,0.1c-0.2,0.4-0.8,0.5-0.8,0.5s1.4,0.2,1.6,0.6s0,0.8-0.5,0.8c-0.5-0.1-1.5-0.2-1.5-0.2s2.2,1,1.7,1.1
	c-0.5,0.1-1.5-0.1-1.8-0.1c-0.3-0.1-0.5-0.3-0.5-0.3s1.9,0.5,1.4,1c-0.5,0.5-1.1,0.7-1.3,0.6s-0.8-0.1-0.8-0.1
	c-0.5,0.8-1.2,0.6-1.2,0.6c0.5,0.9,1.4,1.1,1.3,1.5c0,0.3-0.6,0.7-0.9,0.6s-0.1,0.3,0.1,0.4s0.7,0.7-0.2,0.7
	c-0.9-0.1-0.5,0.1-0.9-0.1s-0.8-0.6-0.9-0.1c-0.1,0.5,0.4,0.6,0.6,1c0.2,0.5,0.6,1.1-0.1,0.9C95.8,58,95.8,58,95.8,58s0.5,1.4,0,1.3
	c-0.5-0.1-0.8-0.2-1.1-0.7c-0.2-0.5-1.1-1.4-1.1-1.4l-0.6-0.6c0,0,1.1,2,1,2.5c-0.1,0.5-0.6,1.5-1,1.4c-0.4-0.2-0.7-0.5-1.1-1.2
	c-0.4-0.7-0.6-1.2-0.6-1.2s0.5,2.5,0,2.7s-0.5,0.6-1,0.1c-0.6-0.4-1.3-1.2-1.3-1.2l-0.6-1.1c0,0,0.3,1.6,0,1.6
	c-0.3,0-0.2-0.1-1.3-0.3c-1.1-0.2-1.3-0.1-1.5-0.3c-0.3-0.2-0.5-0.8-1-0.6c-0.8,0.2-1.5,1-1.8,0c-0.3-1-0.3-1.3-0.3-1.3
	s-0.2,0.8-0.9,0.3c-0.7-0.5-1.2-0.7-1.3-1.3c-0.1-0.6-0.2-1.2-0.2-1.2s-0.4,1-1.2,0.6s-0.7,0.2-0.7-0.3c0-0.5,0.6-0.5-0.4-0.8
	s-2.1,0.1-2.3-0.1c-0.1-0.2-0.7-0.6-0.8-0.5c-0.1,0.1-0.3,0.9-1,0.5c-0.7-0.4-1.4-0.1-1.1-0.7c0.2-0.7,0.3-1.2,0.3-1.2
	s-1.3,0.6-1.9,0.5c-0.6-0.2-0.8,0.1-0.7-0.5c0.1-0.6,0.6-1.4,0.3-1.4c-0.3,0-1.6,0.5-2,0.2c-0.4-0.3-0.6-0.9-0.2-1.1
	c0.3-0.2,0.8-0.9,0.5-0.8s-0.9,0.5-1.5,0c-0.6-0.5-1.2-0.8-0.9-1.2s-0.2-1.1-0.6-1.1c-0.4,0-2.4-2.1-2-2.3c0.3-0.2,1.2-0.9,0.8-1.3
	c-0.4-0.4-0.8-0.7-0.7-0.9s1-0.4,0.6-0.9c-0.4-0.6-0.3-1.2-0.2-1.4s0.9-0.2,0.9-0.6c0.1-0.4-0.8-1.4-0.8-1.7c0-0.3,0.5-1.1,0.7-1.1
	c0.2,0,1.1,0,1.1,0S66,36.4,66,36c0-0.4,0.6-0.9,0.6-0.9l1.5,1c0,0-0.1-0.6-0.4-1.3s-1-1-0.8-1.6s-0.4-2.2,0.6-1.8
	c1,0.4,1.3,0.9,1.8,1.2s-0.1-1,0-1.6c0.1-0.6-0.1-1.3,0.5-0.9c0.6,0.4,1.5,1.2,1.5,1.2l0.5-0.7c0,0,1.3,2.7,1.6,3s-0.6-2.9-0.5-3.2
	c0-0.3,0.9-1,0.9-1s0.4,0.1,0.4-0.6c-0.1-0.6-0.9-2.1,0-1.8c0.8,0.3,1.7,0.7,1.7,0.7s0.2-1,0.6-1.3s0.9-1,0.9-1s0.8,0,0.9,1
	c0.1,1,0.7,1.3,0.7,1.3s-0.4-1.5,0.6-1.7s1.8-0.4,1.7-0.1s0.1,1.2,0.1,1.2l1.2-0.5c0,0,0-0.5,0.5-0.7c0.5-0.2,1.5-0.2,1.6,0.1
	c0.1,0.3,0.4,0.7,0.5,1.1s0.4,0.8,0.8,0.6c0.4-0.2,0.7-0.2,1.1-0.1c0.4,0.1,0.4,0.7,0.4,0.7s0.5,0.8,0.9,0.7
	c0.4-0.1,1.1-0.3,1.3-0.1c0.2,0.2-0.4,1.1,0.1,1.1c1.3,0,1.5-1.4,2-0.2c0.5,1.2-0.6,2-0.6,2s0.7,0.2,0.9,0.2s1.5-0.4,1.5,0.1
	c0.1,0.5-0.4,0.9-0.4,0.9s0.7,0,1.2,0.2S94,33.7,94,33.7L92.7,35.3z"></path><path class="st18" d="M85,29.9c0.1,0.6-1.1,2.5-1.1,2.5L83.6,29l-2.1-0.3l-0.8,0.5l-0.1,1.7l-1.9-3.1l1.1,2.6L77.9,29l1.5,1.7
	L77,29.2l1.2,2.1L76,29.8l1.7,2l-2.1-1.3l0.3,1.2l-1.3-0.8l0,0.9l1.1,1.7l1.1,1.2L75.2,34c0,0-0.5-1-0.8-0.5s-0.6,1-0.6,1l-0.8-0.1
	l-0.9-0.9l0,1L71.4,34l0.4,1.3l0,0.6c0,0-1.5-1.9-1.3-1.8c0.1,0.1,0.9,1.8,0.7,1.6c-0.2-0.1-1.7-1.1-1.7-1.1l0.6,1.4
	c0,0-1.4-0.7-1.2-0.5c0.2,0.2,1.2,1.3,1.2,1.3s-1.3-0.3-1.1-0.1s1.7,2.3,1.8,2.5c0.1,0.1-2.5-1.7-2.3-1.5c0.2,0.2,2.1,2,2.1,2
	l-2.3-0.9l1.6,1.1l-1.7,0l1.4,0.9l-2.3,0.4l1.6,1L67,41.9l1.4,0.9l-1.8,0.3l2,0.7l-1.5,0.4l1.7,0.5l-1.3,0.4l2.1,0
	c0,0-3,0.8-2.8,0.9c0.2,0.1,2.3,0.2,2.3,0.2l-0.7,0.6l2.1-0.4l-1.4,1.1l1.6,0l-0.9,1.1l1.2-0.1l-0.8,1.2l1.2-0.7L71,49.8l0.9-0.1
	l-0.6,1.4l1.3-1l-0.1,1.1l0.8-0.6l-0.4,1.5l1.5-0.8l0,0.9l1.1-0.3L75,53.2c0,0,1.8-2,2-2.2s1.4-1.4,1.4-1.4l-1.1,2.3l0.9-0.2
	l-0.3,0.9l0.6,0.2l-0.6,0.9l1.3-0.8l-0.1,1.3l0.9-0.1l0.8-1.2l-0.1,2.1l1-1.6l0.1,1.5l1.3-0.9l-0.7,2.3l1.5-1.7l0.5,2l0.7-1.1l1,1.3
	l0.6-0.9l0.3,1.7l0-2.7l0.9,2.4l0-1.9l0.8,1.3l-0.2-1.2l0.5,0.7l0.3-1l1.2,1.8l-0.2-1.6l1.1,0.8l-0.6-1.1l1.4,0.7l-1.8-2.1l2.9,1.9
	l-0.3-1.1l1,0.7l-1.4-1.7l2,1.4L93.1,53l2.6,1.1l-2-1.4l0.5-0.4l2.1,1l-1.4-1.4l0.2-1.1l-2.4-1.6l2.9,1.2l1.3,0.9l-1-1.2l1.5,0.7
	L96,49.7l1.5,0.5l-1.8-1.5l1.2,0.3L96.1,48l1,0.1L95.6,47l0.8-0.2L95,45.6l2.1,0.8l-2.2-1.5l1.6,0.2l-0.8-0.6l1.4,0l-1.7-0.6
	l1.4-0.4l-1.2-0.3l1.2-0.6l-1.9-0.7l0.5-0.4l-0.8-0.2L96,41l-2.1-0.2l0.3-0.4l0.6-0.9L93,40.5l-1.3,0.1l-1.4,0.2l1.1-1l1-1l0.7-0.7
	L92.3,38l0.3-0.8l-1,0.2l0.2-0.8L91.3,37L91,36.5l-0.9,0l0.2-1l-1.4,0.5l0.1-0.9l1.2-0.5l-1.4,0l2.3-1.3l-2.5,0.8l1.2-1.6l-1.5,1
	l0.4-1.2l-1.2,0.6l1-1.5l-1.4,1.3l0.1-0.8l0.3-1.4l-1.2,1.4L86.2,31l-0.8,1.1l0.4-1.5l-0.9,1.7L85,29.9z"></path><path class="st14" d="M86.3,39.9c-0.6-0.7-1-1.2-1.8-1.6s-1.7-0.6-2.2-0.9c-0.5-0.2-1.3-0.4-1.7-0.2c-0.4,0.1-0.7,0.1-1.2-0.1
	c-0.5-0.2-0.9-0.8-1.4-0.6c-0.5,0.2-0.8,1.3-1,1.6s-0.9,0.1-1.3,0.8c-0.4,0.7,0,1.7,0.4,2c0.4,0.4,0.5,1.2,0.4,1.3
	c-0.1,0.2-0.6,0.3-0.2,0.7S77,43.8,77,44c0,0.2,0.1,1,0.6,1.3c0.6,0.4,1.1,1.3,1.4,1.6c0.3,0.3,0.5,0.4,1.3,0.6
	c0.8,0.2,1.7,0.1,2,0.1c0.3,0,1.6,0.1,2.1,0.2c0.4,0.1,0.6,0.9,0.9,0.5s1-0.9,1.4-0.8c0.4,0.1,1.5,0.1,1.6,0
	c0.1-0.2,0.5-0.9,0.5-1.2c0-0.3,0-1.1,0.2-1.2c0.3-0.1,1-0.4,0.7-1.3c-0.2-0.9-0.3-1.6-0.9-2.2c-0.6-0.6-1.2-1.3-1.5-1.4
	C87.3,40.2,86.3,39.9,86.3,39.9z"></path><path class="st15" d="M87.4,41.2c0,0,1.3,0.9,0.8,1c-0.4,0.2-0.8,0.3-0.3,0.5c0.5,0.3,1.3,1,1,1.2c-0.3,0.2-0.8,0.2-1.4,0.2
	c-0.6,0-1.4,0.7-1.3,0.8c0.1,0.2,0.6,1.3,0.2,1.6c-0.5,0.3-0.5,0.7-1.1,0.3s-0.8-0.7-1-0.3c-0.2,0.4-1.2,0.4-1.2,0.4
	s-0.1-0.5-0.6-0.4c-0.5,0.2-0.1,0.6-0.5,0.2c-0.3-0.4-1.8-0.9-2.1-1c-0.3-0.1-0.4-0.8-0.8-1.1s-0.3-1.1-1.1-1.2s-1.4-0.8-1-0.9
	s1.9,0.7,1.4-0.3c-0.5-1-2.7-3-2.3-3.2c0.4-0.2,1.9,0,2.1,0.2c0.3,0.2,1.9,0.1,2-0.3c0.1-0.3,0.8-0.2,0.9-0.4
	c0.1-0.2,0.6-1.1,0.8-0.8c0.2,0.3,0.5,1,0.4,1.7c-0.1,0.7-0.2,1.4-0.2,1.7c-0.1,0.4,0.6-2.6,0.9-2.7s0.7-0.1,0.8,0.3
	c0.1,0.4,0.5,0.1,0.6,0.6c0.1,0.5-0.3,1.3-0.3,1.5c0,0.2,1.8,0.2,1.9,0.2C86.4,40.9,87.4,41.2,87.4,41.2z"></path><path class="st16" d="M88.9,40.7c0,0-3.5,0.9-4,1.4c-0.5,0.5-0.9,1.4-0.9,1.4l0.8,0.1c0,0,0.7-1,1.6-0.6c0.9,0.4,1.2,0.6,1.2,0.6
	s-1.1,0.1-1.3,0.1c-0.2,0-1.7,0.3-1.8,0.5s-0.6,0.4-0.5,0.5c0.2,0,1.9-1,3-0.2c1.1,0.8,2.4,2,2.4,2L91,48c0,0-3-1.2-3.2-1.6
	c-0.3-0.3-2.1-1.3-2.1-1.3s-1.9-0.1-2,0c-0.1,0.1-1.5-0.1-1.5-0.1L81.6,46c0,0-1.3,2.1-1.5,2.3c-0.2,0.2-0.6,0-0.6,0l2-3.5L80.7,44
	l-0.8-1c0,0-0.2,0.4-0.8-0.2c-0.5-0.6-1.3-1.1-1.9-1.5c-0.6-0.4-3-2.5-3-2.5l5.2,3.3l0.6,0.1l0.7,0.4c0,0-0.6-1.3-1.3-2.2
	c-0.7-0.9-1-1.4-1.2-1.8S76.6,36,76.6,36l1.6,2l-0.8-2c0,0,1.5,1.9,1.7,2.2c0.2,0.4,0.6,1,0.8,1.4c0.2,0.4,0.7,1.4,0.7,1.6
	c0,0.2,0.8,1.4,0.8,1.4s-0.7-2.6-0.8-3c-0.1-0.3-0.6-1.3-0.5-1.5c0.1-0.2,0.2-0.4,0.3-0.3c0.1,0.1,0.7-0.4,0.8,0.5s0,1.4,0,1.4
	l0.3,1.5c0,0,1,0.9,1,1s0.6-0.5,0.8-1.2c0.2-0.7,0.4-1.5,0.8-1.7c0.5-0.2,0.8,0.3,0.7,0.5c-0.1,0.2-0.2,1.3-0.2,1.3s0.6-0.6,1.1-0.8
	c0.5-0.1,1.8-0.4,1.8-0.4L88.9,40.7z"></path><path class="st17" d="M83.2,43.5c0,0.1-0.3,0.4-0.4,0.7c-0.1,0.3-1,0.3-1.1,0.1c-0.1-0.2-0.5-0.5-0.5-0.7c0-0.1,0-0.8,0-0.8
	s0-0.2,0.4,0.2c0.4,0.4,0.3,0.7,0.6,0.6s0.6-0.2,0.5-0.3C82.6,43.3,83.2,43.5,83.2,43.5z"></path><path class="st19" d="M26.3,33.5c0,0-0.6-1.5-1.3-1.5s-1.1,1.3-1,1.5c0.1,0.2-0.3,1-0.5,1.2c-0.2,0.2-0.1,0.7-0.6,0
	C22.3,34,23,32.5,22,33.2c-1,0.7-0.6,1.2-1,1c-0.5-0.2-1.2-1.5-1.3-0.7c-0.1,0.8-0.2,1.2,0,1.5s0.5,1.5,0.2,1.4s-2.1-2-2.8-1.1
	s-0.6,1-0.5,1.6s1.3,0.7,0.1,0.6c-1.3-0.2-1.9-0.3-2.1,0.1c-0.2,0.3-0.3,0.8,0,1.1c0.3,0.2,0.5,1,0.5,1s-0.6-0.4-1,0s0,1.3,0,1.3
	l0.3,1.2c0,0-1-0.4-1.3-0.5c-0.3-0.1-0.8,0-0.6,0.5s0.6,1,0.6,1s-1.5-1.7-1.6-1.1c-0.1,0.6,0.4,1.1,0.4,1.1s-1.3-0.7-1.7-0.5
	c-0.4,0.2-0.5,0.9,0,1.2c0.5,0.3,1.3,0.8,1.3,0.8s-2.4-0.5-2.1,0c0.3,0.5,1.3,1,1.6,1.1c0.3,0.2,0.6,0,0.6,0S10,45,10.1,45.9
	c0.2,0.9,0.6,1.5,0.8,1.6s0.7,0.4,0.7,0.4c0,1.2,0.6,1.5,0.6,1.5c-1,0.6-1.7,0.2-1.9,0.6c-0.2,0.4,0.2,1.2,0.5,1.3s-0.1,0.3-0.3,0.4
	s-1,0.3-0.2,0.9c0.8,0.6,0.3,0.5,0.8,0.6c0.5,0.1,1-0.1,0.8,0.5c-0.2,0.6-0.6,0.3-1,0.7s-1.1,0.8-0.4,1c0.7,0.2,0.7,0.2,0.7,0.2
	S10,56.8,10.5,57c0.5,0.2,0.8,0.4,1.3,0c0.5-0.4,1.7-0.7,1.7-0.7l0.8-0.2c0,0-2.1,1.3-2.2,2c-0.2,0.6-0.3,2.1,0.1,2.1s0.9,0,1.6-0.5
	s1.2-0.9,1.2-0.9s-1.8,2.3-1.5,2.9s0.1,1,0.8,0.9s1.7-0.3,1.7-0.3l1.1-0.7c0,0-1.1,1.5-0.9,1.7s0.2,0,1.3,0.6c1,0.6,1.1,0.8,1.4,0.8
	c0.3,0,0.8-0.5,1.2,0c0.6,0.7,0.7,2.1,1.5,1.3s1-1.2,1-1.2s-0.2,1,0.6,1c0.9,0,1.3,0.1,1.7-0.5c0.4-0.6,0.8-1.1,0.8-1.1
	s-0.2,1.3,0.6,1.5s0.5,0.7,0.8,0.2c0.3-0.6-0.2-1,0.8-0.6c1,0.4,1.7,1.6,2,1.4s0.9-0.1,1,0c0.1,0.1-0.2,1.2,0.6,1.3
	c0.8,0.1,1.2,0.9,1.3,0c0.2-0.9,0.4-1.4,0.4-1.4s0.8,1.6,1.3,1.8c0.6,0.2,0.6,0.7,0.9,0c0.2-0.7,0.3-1.9,0.6-1.7
	c0.2,0.2,1.1,1.7,1.6,1.6s1-0.6,0.8-1c-0.2-0.5-0.2-1.5,0-1.3c0.2,0.2,0.5,1.2,1.3,1c0.8-0.2,1.4-0.1,1.3-0.6
	c-0.1-0.6,0.8-1,1.1-0.8c0.3,0.2,3.1-0.6,2.9-1c-0.2-0.5-0.5-1.8,0-1.9c0.5-0.1,1-0.2,1.1-0.5c0.1-0.3-0.6-1.1,0-1.4
	c0.6-0.3,1-1.1,0.9-1.3c-0.1-0.2-0.6-0.8-0.5-1.3c0.2-0.5,1.4-0.9,1.6-1.3c0.2-0.4,0.2-1.6,0-1.7c-0.2-0.2-0.9-0.8-0.9-0.8
	s0.8-1,1-1.4c0.2-0.5,0-1.4,0-1.4h-1.8c0,0,0.4-0.6,1-1.1c0.6-0.5,1.4-0.4,1.5-1.1c0.1-0.8,1.5-2.1,0.5-2.3c-1-0.2-1.6,0.1-2.1,0.1
	c-0.6,0,0.6-1,0.9-1.7c0.2-0.7,0.8-1.3,0.1-1.3c-0.7,0.1-1.9,0.3-1.9,0.3v-1.1c0,0-2.6,2-2.9,2.1c-0.3,0.1,2.1-2.7,2.2-3.1
	c0.2-0.4-0.2-1.7-0.2-1.7s-0.4-0.2,0-0.9c0.4-0.6,1.9-1.7,1-1.9c-0.9-0.2-1.8-0.4-1.8-0.4s0.3-1.2,0.2-1.8c-0.1-0.6-0.2-1.7-0.2-1.7
	s-0.6-0.6-1.3,0.5c-0.6,1-1.3,0.9-1.3,0.9s1.1-1.3,0.4-2.2c-0.7-0.9-1.3-1.7-1.3-1.3c-0.1,0.3-0.7,1.3-0.7,1.3l-0.7-1.3
	c0,0,0.2-0.6-0.1-1.1c-0.3-0.6-1.1-1.3-1.3-1c-0.2,0.2-0.7,0.5-1,0.8c-0.3,0.3-0.7,0.6-1,0.1c-0.2-0.5-0.5-0.7-0.9-0.9
	c-0.4-0.2-0.7,0.4-0.7,0.4s-0.9,0.6-1.1,0.2c-0.2-0.4-0.7-1.1-1-1c-0.3,0.1-0.3,1.5-0.7,1.1c-1.1-1-0.6-2.5-1.6-1.6S29.7,31,29.7,31
	s-0.7-0.2-0.9-0.5c-0.2-0.2-1-1.4-1.3-1c-0.3,0.5-0.2,1.3-0.2,1.3s-0.6-0.5-1.1-0.6c-0.5-0.1-0.2,0.7-0.2,0.7L26.3,33.5z"></path><path class="st15" d="M35.7,33.1c-0.4,0.6-0.5,3.4-0.5,3.4l2.1-3.4l1.9,1.1l0.4,1l-0.8,1.9l3.2-2l-2.3,2h2.3l-2.1,0.8h2.8l-2.1,1.3
	h2.7l-2.5,1h2.5l-0.9,1.1h1.5l-0.5,1l-1.8,1L40,43.9l1.6,0.5c0,0,1-0.7,1,0s-0.1,1.5-0.1,1.5l0.7,0.4l1.2-0.3l-0.6,1h1l-1,1.1
	l-0.3,0.6c0,0,2.3-1,2.1-1c-0.2,0.1-1.7,1.3-1.5,1.3s2,0,2,0l-1.3,1c0,0,1.5,0.3,1.3,0.3c-0.3,0.1-1.7,0.5-1.7,0.5s1.3,0.6,1,0.7
	c-0.3,0.1-2.7,1.3-2.9,1.4c-0.2,0.1,3-0.1,2.7,0c-0.3,0.1-2.8,0.7-2.8,0.7l2.4,0.7h-1.9l1.4,1.2h-1.7l1.6,2h-1.9l1.8,1h-1.6l1.3,1.6
	l-2-0.6l1,1.5l-1.7-0.7l0.9,1.3l-1.8-1.4c0,0,2,2.9,1.8,2.9s-2-1.4-2-1.4l0.3,1.1L38.7,61l0.6,2.2L38,62.1l0.2,1.8l-1-1v1.8
	l-0.6-1.5l-0.1,1.1l-0.7-0.7l-0.3,1.9l-0.6-1.9l-0.5,1.3l-0.3-1.2l-0.5,1.9l-0.8-1.9l-0.5,1l-0.7-1.1L31.3,65c0,0-0.5-3.4-0.5-3.8
	s-0.4-2.4-0.4-2.4L30.1,62l-0.6-0.9l-0.2,1.1l-0.6-0.2v1.4L28,61.8l-0.6,1.5l-0.7-0.7v-1.8l-1.1,2.3v-2.4l-0.9,1.5L24,60.4l-0.7,3
	l-0.3-2.8l-1.5,1.8v-1.7L20,61.3V60l-1.2,1.5l1.5-2.8l-2,2l1.1-2l-1.4,0.8l0.8-1.2l-0.8,0.4l0.3-1.3l-2,1.1l1.1-1.5L16,57l1.1-0.8
	l-1.5-0.2l2.7-1L14.8,55l0.9-1h-1.3l2.1-0.9L14,53.2l2.3-1l-2.8-0.6l2.5-0.1l-0.2-0.7l-2.3-0.4l1.9-0.6l0.5-1.3h2.8l-3.1-0.7
	L14,47.7l1.5-0.6L14,46.8l1.7-0.2l-1.5-0.5l2.4-0.4l-1.2-0.5l1.2-0.4l-0.9-0.5l1.8-0.2l-0.6-0.8l1.8-0.3l-2.2-0.6l2.6,0l-1.5-0.8
	l1-0.1l-1.1-0.9l1.8,0.5l-0.9-1.4l1.2,0.5L19,38.6l2,0.6l-0.2-0.8l0.8,0.4l-1.2-1.5l1.8,1.3v-0.7l0-1.4l1,2.3l1,1l1,1.2l-0.4-1.8
	l-0.3-1.8l-0.2-1.2l0.8,0.5l0.1-1.1l0.7,0.9l0.2-1l0.2,0.8l0.6-0.3l0.7,0.6l0.3-1.2l0.9,1.6l0.4-1l-0.8-1.3l1.2,1l-1.3-3l1.6,2.5
	l-0.1-2.5l0.7,2.2l0.3-1.6l0.7,1.5v-2.3l0.5,2.3l0.3-0.9l0.5-1.6l0.3,2.4l0.7-1.1l0.1,1.7l0.5-1.8l-0.1,2.5L35.7,33.1z"></path><path class="st14" d="M29.1,42.8c0.9-0.3,1.5-0.6,2.4-0.4s1.8,0.5,2.4,0.6c0.6,0.1,1.3,0.6,1.6,1s0.5,0.6,1,0.8
	c0.5,0.2,1.2-0.2,1.5,0.3c0.3,0.5-0.1,2,0,2.4c0.1,0.4,0.7,0.7,0.7,1.7c0,1-0.9,1.7-1.5,1.9c-0.5,0.1-1,0.9-1,1.2s0.3,0.7-0.2,0.9
	s-1.1,0.4-1.3,0.7c-0.1,0.2-0.6,1-1.3,1s-1.6,0.6-2.1,0.8c-0.4,0.1-0.6,0.1-1.4-0.3c-0.8-0.4-1.5-1.1-1.7-1.3
	c-0.2-0.2-1.4-1.1-1.8-1.3s-1,0.6-1.1-0.1s-0.3-1.7-0.8-1.9c-0.4-0.2-1.3-0.9-1.3-1.1s0.1-1.4,0.3-1.6c0.2-0.3,0.7-1.2,0.5-1.5
	c-0.2-0.3-0.6-1.1,0.1-1.9s1.1-1.5,1.9-1.7c0.8-0.2,1.7-0.6,2-0.4C28.1,42.5,29.1,42.8,29.1,42.8z"></path><path class="st15" d="M27.4,43.5c0,0-1.6,0-1.3,0.5s0.5,0.8,0,0.8c-0.6,0-1.7,0.1-1.5,0.6c0.2,0.4,0.6,0.8,1,1.2s0.8,1.7,0.6,1.8
	c-0.2,0.1-1.3,1-1,1.6s0,1,0.8,1c0.7,0,1-0.2,1,0.3c0,0.6,0.8,1.3,0.8,1.3s0.4-0.5,0.7,0c0.3,0.5-0.2,0.7,0.3,0.5s2,0.3,2.3,0.4
	c0.3,0.1,0.8-0.6,1.3-0.6c0.6,0,0.8-0.9,1.6-0.5c0.8,0.4,1.6,0.1,1.3-0.3c-0.3-0.4-1.9-0.6-1-1.3c0.9-0.8,3.9-1.3,3.7-1.8
	c-0.2-0.5-1.6-1.3-1.9-1.3c-0.3,0-1.6-1.2-1.5-1.6c0.1-0.4-0.6-0.8-0.6-1.1c0-0.3,0-1.6-0.2-1.4c-0.3,0.2-0.9,0.8-1.3,1.6
	c-0.3,0.8-0.6,1.6-0.8,2c-0.1,0.4,0.9-3.2,0.8-3.6c-0.2-0.4-0.6-0.6-0.8-0.3c-0.3,0.3-0.5-0.3-0.8,0.2c-0.4,0.5-0.5,1.6-0.6,1.8
	c-0.1,0.2-1.6-1-1.7-1.1C28.5,43.9,27.4,43.5,27.4,43.5z"></path><path class="st16" d="M26.5,41.9c0,0,2.5,3.4,2.6,4.3c0.1,0.9,0,2.2,0,2.2L28.4,48c0,0-0.1-1.6-1-1.8C26.4,45.9,26,46,26,46
	s0.8,0.8,1,1c0.1,0.2,1.2,1.5,1.3,1.8s0.3,0.9,0.1,0.8c-0.1-0.1-1.1-2.4-2.4-2.3s-3.1,0.5-3.1,0.5l-2.2,0.4c0,0,3.2,0.8,3.6,0.6
	c0.4-0.2,2.5,0.1,2.5,0.1s1.6,1.2,1.7,1.4c0,0.1,1.3,0.9,1.3,0.9v1.4c0,0-0.1,3.1,0,3.4c0.1,0.3,0.5,0.5,0.5,0.5l0.3-5.1l1.1-0.3
	l1.2-0.5c0,0,0,0.6,0.8,0.3c0.8-0.2,1.7-0.2,2.5-0.3c0.8,0,3.8-0.6,3.8-0.6l-6.2,0l-0.5-0.3l-0.8,0c0,0,1.2-1,2.3-1.5s1.6-0.8,2-1.1
	c0.4-0.3,2.7-1.7,2.7-1.7l-2.5,1l1.7-1.6c0,0-2.3,0.9-2.6,1.2c-0.3,0.3-1.1,0.7-1.5,0.9s-1.3,1-1.5,1.2c-0.1,0.2-1.5,1-1.5,1
	s2-2.3,2.3-2.6s1.2-0.9,1.2-1.2c0-0.3,0-0.6-0.1-0.6s-0.4-0.8-0.9,0c-0.6,0.9-0.8,1.6-0.8,1.6l-1.1,1.5c0,0-1.3,0.3-1.3,0.4
	s-0.3-1,0-1.9s0.5-1.9,0.3-2.5c-0.3-0.6-0.8-0.2-0.8,0s-0.5,1.6-0.5,1.6s-0.2-1.1-0.5-1.6s-1.3-1.7-1.3-1.7L26.5,41.9z"></path><path class="st17" d="M29.7,49c0,0.1,0,0.6,0,1c0,0.4,0.6,1,0.8,0.9c0.2-0.1,0.7-0.2,0.8-0.4c0.1-0.1,0.5-0.8,0.5-0.8s0.1-0.2-0.5,0
	s-0.7,0.5-0.8,0.2c-0.1-0.3-0.4-0.6-0.3-0.7S29.7,49,29.7,49z"></path><path class="st16" d="M63.9,54.7c0,0,0.6-1.5,1.3-1.5c0.6,0,1.1,1.3,1,1.5c-0.1,0.2,0.3,1,0.5,1.2c0.2,0.2,0.1,0.7,0.6,0
	c0.6-0.7-0.1-2.2,0.9-1.5s0.6,1.2,1,1c0.5-0.2,1.2-1.5,1.3-0.7c0.1,0.8,0.2,1.2,0,1.5s-0.5,1.5-0.2,1.4c0.2-0.1,2.1-2,2.8-1.1
	c0.6,0.9,0.6,1,0.5,1.6c-0.1,0.6-1.3,0.7-0.1,0.6c1.3-0.2,1.9-0.3,2.1,0.1s0.3,0.8,0,1.1c-0.3,0.2-0.5,1-0.5,1s0.6-0.4,1,0
	c0.4,0.4,0,1.3,0,1.3l-0.3,1.2c0,0,1-0.4,1.3-0.5s0.8,0,0.6,0.5c-0.2,0.5-0.6,1-0.6,1s1.5-1.7,1.6-1.1s-0.4,1.1-0.4,1.1
	s1.3-0.7,1.7-0.5c0.4,0.2,0.5,0.9,0,1.2c-0.5,0.3-1.3,0.8-1.3,0.8s2.4-0.5,2.1,0c-0.3,0.5-1.3,1-1.6,1.1c-0.3,0.2-0.6,0-0.6,0
	s1.9-0.8,1.7,0.1c-0.2,0.9-0.6,1.5-0.8,1.6s-0.7,0.4-0.7,0.4c0,1.2-0.6,1.5-0.6,1.5c1,0.6,1.7,0.2,1.9,0.6c0.2,0.4-0.2,1.2-0.5,1.3
	s0.1,0.3,0.3,0.4c0.2,0.1,1,0.3,0.2,0.9c-0.8,0.6-0.3,0.5-0.8,0.6c-0.5,0.1-1-0.1-0.8,0.5c0.2,0.6,0.6,0.3,1,0.7
	c0.4,0.4,1.1,0.8,0.4,1s-0.7,0.2-0.7,0.2s1.2,1.2,0.7,1.4c-0.5,0.2-0.8,0.4-1.3,0c-0.5-0.4-1.7-0.7-1.7-0.7l-0.8-0.2
	c0,0,2.1,1.3,2.2,2c0.2,0.6,0.3,2.1-0.1,2.1c-0.4,0.1-0.9,0-1.6-0.5c-0.7-0.5-1.2-0.9-1.2-0.9s1.8,2.3,1.5,2.9
	c-0.3,0.6-0.1,1-0.8,0.9s-1.7-0.3-1.7-0.3l-1.1-0.7c0,0,1.1,1.5,0.9,1.7c-0.2,0.2-0.2,0-1.3,0.6c-1,0.6-1.1,0.8-1.4,0.8
	s-0.8-0.5-1.2,0c-0.6,0.7-0.7,2.1-1.5,1.3s-1-1.2-1-1.2s0.2,1-0.6,1s-1.3,0.1-1.7-0.5c-0.4-0.6-0.8-1.1-0.8-1.1s0.2,1.3-0.6,1.5
	c-0.8,0.2-0.5,0.7-0.8,0.2c-0.3-0.6,0.2-1-0.8-0.6c-1,0.4-1.7,1.6-2,1.4c-0.2-0.2-0.9-0.1-1,0c-0.1,0.1,0.2,1.2-0.6,1.3
	s-1.2,0.9-1.3,0s-0.4-1.4-0.4-1.4s-0.8,1.6-1.3,1.8c-0.6,0.2-0.6,0.7-0.9,0c-0.2-0.7-0.3-1.9-0.6-1.7c-0.2,0.2-1.1,1.7-1.6,1.6
	s-1-0.6-0.8-1c0.2-0.5,0.2-1.5,0-1.3c-0.2,0.2-0.5,1.2-1.3,1s-1.4-0.1-1.3-0.6c0.1-0.6-0.8-1-1.1-0.8c-0.3,0.2-3.1-0.6-2.9-1
	c0.2-0.5,0.5-1.8,0-1.9s-1-0.2-1.1-0.5s0.6-1.1,0-1.4c-0.6-0.3-1-1.1-0.9-1.3c0.1-0.2,0.6-0.8,0.5-1.3c-0.2-0.5-1.4-0.9-1.6-1.3
	c-0.2-0.4-0.2-1.6,0-1.7c0.2-0.2,0.9-0.8,0.9-0.8s-0.8-1-1-1.4c-0.2-0.5,0-1.4,0-1.4h1.8c0,0-0.4-0.6-1-1.1
	c-0.6-0.5-1.4-0.4-1.5-1.1s-1.5-2.1-0.5-2.3c1-0.2,1.6,0.1,2.1,0.1s-0.6-1-0.9-1.7c-0.2-0.7-0.8-1.3-0.1-1.3
	c0.7,0.1,1.9,0.3,1.9,0.3v-1.1c0,0,2.6,2,2.9,2.1c0.3,0.1-2.1-2.7-2.2-3.1c-0.2-0.4,0.2-1.7,0.2-1.7s0.4-0.2,0-0.9
	c-0.4-0.6-1.9-1.7-1-1.9c0.9-0.2,1.8-0.4,1.8-0.4s-0.3-1.2-0.2-1.8c0.1-0.6,0.2-1.7,0.2-1.7s0.6-0.6,1.3,0.5c0.6,1,1.3,0.9,1.3,0.9
	S47,55,47.7,54.2c0.7-0.9,1.3-1.7,1.3-1.3s0.7,1.3,0.7,1.3l0.7-1.3c0,0-0.2-0.6,0.1-1.1c0.3-0.6,1.1-1.3,1.3-1
	c0.2,0.2,0.7,0.5,1,0.8c0.3,0.3,0.7,0.6,1,0.1c0.2-0.5,0.5-0.7,0.9-0.9c0.4-0.2,0.7,0.4,0.7,0.4s0.9,0.6,1.1,0.2
	c0.2-0.4,0.7-1.1,1-1c0.3,0.1,0.3,1.5,0.7,1.1c1.1-1,0.6-2.5,1.6-1.6c1,1,0.5,2.5,0.5,2.5s0.7-0.2,0.9-0.5c0.2-0.2,1-1.4,1.3-1
	s0.2,1.3,0.2,1.3s0.6-0.5,1.1-0.6c0.5-0.1,0.2,0.7,0.2,0.7L63.9,54.7z"></path><path class="st20" d="M54.5,54.3c0.4,0.6,0.5,3.4,0.5,3.4l-2.1-3.4L51,55.4l-0.4,1l0.8,1.9l-3.2-2l2.3,2h-2.3l2.1,0.8h-2.8l2.1,1.3
	h-2.7l2.5,1h-2.5l0.9,1.1h-1.5l0.5,1l1.8,1l1.6,0.5l-1.6,0.5c0,0-1-0.7-1,0s0.1,1.5,0.1,1.5L47,67.5l-1.2-0.3l0.6,1h-1l1,1.1
	l0.3,0.6c0,0-2.3-1-2.1-1c0.2,0.1,1.7,1.3,1.5,1.3s-2,0-2,0l1.3,1c0,0-1.5,0.3-1.3,0.3c0.3,0.1,1.7,0.5,1.7,0.5s-1.3,0.6-1,0.7
	c0.3,0.1,2.7,1.3,2.9,1.4c0.2,0.1-3-0.1-2.7,0c0.3,0.1,2.8,0.7,2.8,0.7l-2.4,0.7h1.9l-1.4,1.2h1.7l-1.6,2h1.9l-1.8,1h1.6l-1.3,1.6
	l2-0.6l-1,1.5l1.7-0.7l-0.9,1.3l1.8-1.4c0,0-2,2.9-1.8,2.9s2-1.4,2-1.4L50,84.1l1.5-1.9l-0.6,2.2l1.3-1.1L52,85.1l1-1v1.8l0.6-1.5
	l0.1,1.1l0.7-0.7l0.3,1.9l0.6-1.9l0.5,1.3l0.3-1.2l0.5,1.9l0.8-1.9l0.5,1l0.7-1.1l0.3,1.5c0,0,0.5-3.4,0.5-3.8
	c0-0.3,0.4-2.4,0.4-2.4l0.4,3.2l0.6-0.9l0.2,1.1l0.6-0.2v1.4l0.6-1.7l0.6,1.5l0.7-0.7V82l1.1,2.3V82l0.9,1.5l0.6-1.8l0.7,3l0.3-2.8
	l1.5,1.8v-1.7l1.5,0.7v-1.4l1.2,1.5l-1.5-2.8l2,2l-1.1-2l1.4,0.8l-0.8-1.2l0.8,0.4l-0.3-1.3l2,1.1l-1.1-1.5l1.4,0.1l-1.1-0.8
	l1.5-0.2l-2.7-1l3.5,0.1l-0.9-1h1.3l-2.1-0.9l2.4,0.1l-2.3-1l2.8-0.6l-2.5-0.1l0.2-0.7l2.3-0.4L74.7,71l-0.5-1.3h-2.8l3.1-0.7
	l1.6,0.1l-1.5-0.6l1.6-0.3l-1.7-0.2l1.5-0.5l-2.4-0.4l1.2-0.5L73.7,66l0.9-0.5l-1.8-0.2l0.6-0.8l-1.8-0.3l2.2-0.6l-2.6,0l1.5-0.8
	l-1-0.1l1.1-0.9l-1.8,0.5l0.9-1.4l-1.2,0.5l0.7-1.4l-2,0.6l0.2-0.8l-0.8,0.4l1.2-1.5L68,59.8v-0.7l0-1.4l-1,2.3l-1,1l-1,1.2l0.4-1.8
	l0.3-1.8l0.2-1.2l-0.8,0.5l-0.1-1.1l-0.7,0.9l-0.2-1l-0.2,0.8l-0.6-0.3l-0.7,0.6l-0.3-1.2l-0.9,1.6l-0.4-1l0.8-1.3l-1.2,1l1.3-3
	L60,56.4l0.1-2.5L59.4,56l-0.3-1.6L58.4,56v-2.3L57.9,56l-0.3-0.9L57,53.5l-0.3,2.4l-0.7-1.1L56,56.5l-0.5-1.8l0.1,2.5L54.5,54.3z"></path><path class="st14" d="M61.1,64.1c-0.9-0.3-1.5-0.6-2.4-0.4c-0.9,0.2-1.8,0.5-2.4,0.6c-0.6,0.1-1.3,0.6-1.6,1c-0.2,0.4-0.5,0.6-1,0.8
	c-0.5,0.2-1.2-0.2-1.5,0.3c-0.3,0.5,0.1,2,0,2.4c-0.1,0.4-0.7,0.7-0.7,1.7c0,1,0.9,1.7,1.5,1.9s1,0.9,1,1.2s-0.3,0.7,0.2,0.9
	c0.6,0.2,1.1,0.4,1.3,0.7c0.1,0.2,0.6,1,1.3,1s1.6,0.6,2.1,0.8s0.6,0.1,1.4-0.3s1.5-1.1,1.7-1.3c0.2-0.2,1.4-1.1,1.8-1.3
	c0.4-0.2,1,0.6,1.1-0.1c0.1-0.7,0.3-1.7,0.8-1.9c0.4-0.2,1.3-0.9,1.3-1.1s-0.1-1.4-0.3-1.6c-0.2-0.3-0.7-1.2-0.5-1.5
	c0.2-0.3,0.6-1.1-0.1-1.9c-0.7-0.8-1.1-1.5-1.9-1.7c-0.8-0.2-1.7-0.6-2-0.4C62.1,63.7,61.1,64.1,61.1,64.1z"></path><path class="st15" d="M62.8,64.7c0,0,1.6,0,1.3,0.5c-0.3,0.5-0.5,0.8,0,0.8c0.6,0,1.7,0.1,1.5,0.6c-0.2,0.4-0.6,0.8-1,1.2
	c-0.5,0.4-0.8,1.7-0.6,1.8s1.3,1,1,1.6s0,1-0.8,1c-0.7,0-1-0.2-1,0.3c0,0.6-0.8,1.3-0.8,1.3s-0.4-0.5-0.7,0
	c-0.3,0.5,0.2,0.7-0.3,0.5c-0.5-0.2-2,0.3-2.3,0.4c-0.3,0.1-0.8-0.6-1.3-0.6c-0.6,0-0.8-0.9-1.6-0.5c-0.8,0.4-1.6,0.1-1.3-0.3
	c0.3-0.4,1.9-0.6,1-1.3c-0.9-0.8-3.9-1.3-3.7-1.8c0.2-0.5,1.6-1.3,1.9-1.3c0.3,0,1.6-1.2,1.5-1.6c-0.1-0.4,0.6-0.8,0.6-1.1
	c0-0.3,0-1.6,0.2-1.4c0.3,0.2,0.9,0.8,1.3,1.6c0.3,0.8,0.6,1.6,0.8,2c0.1,0.4-0.9-3.2-0.8-3.6c0.2-0.4,0.6-0.6,0.8-0.3
	c0.3,0.3,0.5-0.3,0.8,0.2s0.5,1.6,0.6,1.8c0.1,0.2,1.6-1,1.7-1.1C61.7,65.1,62.8,64.7,62.8,64.7z"></path><path class="st16" d="M63.6,63.2c0,0-2.5,3.4-2.6,4.3c-0.1,0.9,0,2.2,0,2.2l0.8-0.4c0,0,0.1-1.6,1-1.8s1.3-0.2,1.3-0.2s-0.8,0.8-1,1
	c-0.1,0.2-1.2,1.5-1.3,1.8c0,0.3-0.3,0.9-0.1,0.8c0.1-0.1,1.1-2.4,2.4-2.3s3.1,0.5,3.1,0.5l2.2,0.4c0,0-3.2,0.8-3.6,0.6
	c-0.4-0.2-2.5,0.1-2.5,0.1s-1.6,1.2-1.7,1.4s-1.3,0.9-1.3,0.9v1.4c0,0,0.1,3.1,0,3.4c-0.1,0.3-0.5,0.5-0.5,0.5l-0.3-5.1l-1.1-0.3
	l-1.2-0.5c0,0,0,0.6-0.8,0.3s-1.7-0.2-2.5-0.3s-3.8-0.6-3.8-0.6l6.2,0L57,71l0.8,0c0,0-1.2-1-2.3-1.5c-1.1-0.4-1.6-0.8-2-1.1
	c-0.4-0.3-2.7-1.7-2.7-1.7l2.5,1l-1.7-1.6c0,0,2.3,0.9,2.6,1.2c0.3,0.3,1.1,0.7,1.5,0.9c0.4,0.2,1.3,1,1.5,1.2c0.1,0.2,1.5,1,1.5,1
	s-2-2.3-2.3-2.6s-1.2-0.9-1.2-1.2s0-0.6,0.1-0.6c0.1,0,0.4-0.8,0.9,0c0.6,0.9,0.8,1.6,0.8,1.6l1.1,1.5c0,0,1.3,0.3,1.3,0.4
	c0,0,0.3-1,0-1.9c-0.3-0.9-0.5-1.9-0.3-2.5c0.3-0.6,0.8-0.2,0.8,0s0.5,1.6,0.5,1.6s0.2-1.1,0.5-1.6c0.4-0.5,1.3-1.7,1.3-1.7
	L63.6,63.2z"></path><path class="st17" d="M60.5,70.2c0,0.1,0,0.6,0,1s-0.6,1-0.8,0.9c-0.2-0.1-0.7-0.2-0.8-0.4c-0.1-0.1-0.5-0.8-0.5-0.8s-0.1-0.2,0.5,0
	c0.5,0.2,0.7,0.5,0.8,0.2c0.1-0.3,0.4-0.6,0.3-0.7C59.8,70.4,60.5,70.2,60.5,70.2z"></path></g></svg>