<svg xmlns="http://www.w3.org/2000/svg" version="1.1" xmlns:xlink="http://www.w3.org/1999/xlink" xmlns:svgjs="http://svgjs.dev/svgjs" viewBox="0 0 108 108" style="" x="0" y="0"><style type="text/css">
	.st0{fill:#AD5E84;}
	.st1{fill:#5E8DA4;}
	.st2{fill:#7FA483;}
	.st3{fill:#FF6CFF;}
	.st4{fill:#7E93A5;}
	.st5{fill:#CD5C9C;}
	.st6{fill:#BD6CAC;}
	.st7{fill:#E57EAC;}
	.st8{fill:#CB67A6;}
	.st9{fill:#E48FBC;}
	.st10{fill:#F391BC;}
	.st11{fill:#F5A0C5;}
	.st12{fill:#B365A8;}
	.st13{fill:#F6A9CB;}
	.st14{fill:#CC6A9C;}
	.st15{fill:#D893C0;}
	.st16{fill:#975C87;}
</style><g><path class="st0" d="M19.1,68.1c2,6.8,7.2,14.6,10.8,16.8C33.5,87,37.6,89,48,88.2c10.4-0.7,26.2-10,26.2-10s11.1-25.1,9.5-29.5
	c-1.7-4.3-7.1-17.7-16.8-18.4s-18.2-6.5-22.2,0s-10.5,9.2-11.1,15.5S19.1,68.1,19.1,68.1z"></path><path class="st1" d="M81.9,20.2c0,0,8.2,4,9.1,4.3s3.2,2.3,4.4,3.7c1.2,1.5,4.3,9.6,4.2,10.4s-1.7,5.6-1,6.8s0.7,0.9,1,4
	s-0.4,8.9-0.9,10.5c-0.6,1.6,0.7,2.4-2.1,4.5c-2.8,2.1-5.5,3.1-6.6,3.8c-1.2,0.7-2.7,1.4-3.8,1.2s-5,0-4.8-0.7
	c0.2-0.7-1.3-18.6-1-20.7c0.2-2.1,0.2-13.5,0-15.7s-1.7-5.3-1.8-6.6c-0.1-1.3,0.8-5.6,0.8-5.6H81.9z"></path><path class="st2" d="M47.9,8.9c-2.6-0.6-8.2-3-13.1-2.7s-7.3,0.4-7.7,1.3S27,7.9,26.1,9.6c-0.8,1.6-1.2,3.2-1.3,3.5
	c-0.1,0.3-0.8,1.4-1.4,2c-0.6,0.7-5.2,1.4-6.4,2.1c-1.2,0.7-4,5.7-4.3,6.3c-0.3,0.6-0.9,4.4-0.9,5.5c0,1.2,2.3,3.7,4,3.9
	s8.7-2.9,11-3.9c2.3-1.1,4.5-3.8,7.3-6.1s5.8-4.2,7.8-5.5C43.9,16.1,47.9,8.9,47.9,8.9z"></path><path class="st3" d="M12.7,57.5c-1.2,0.6-4.4,1.6-5,3.5s-0.9,3.6,0,3.9s0.6,2.2,0.6,3.4c0,1.2,0.3,2.3,0.9,2.4
	c0.6,0.1,0.9,0.9,2.7-0.5c1.7-1.4,4.6-2.6,5.1-2s1.6,2,2.1-0.2c0.5-2.2,1-4.4,0-5.5c-1-1-2.2-2.8-2.7-3.2
	C15.9,58.9,12.7,57.5,12.7,57.5z"></path><path class="st4" d="M28.2,82.5c-0.1,0.3-2.8,1.6-3.4,2.2c-0.6,0.6-2,0.9-4.3,0.6S17.7,84.9,16,84c-1.6-1-3.3-2-4.2-3.2
	c-0.9-1.2-3.6-0.2-2.7-2.6c0.9-2.4,1.9-5,2-5.6c0.1-0.6,0.2-1.1,0.7-2.3s5.1-2,5.1-2s3.6,0.8,4.5,1.2s1.2,0.1,3.6,2s2.6,2.9,3.1,4
	s1.6,5.3,1.6,5.3L28.2,82.5z"></path><path class="st3" d="M26.1,24.3c0,0-5.1,0.3-6.7,1c-1.6,0.7-3.4,2.3-5.5,3c-2.1,0.7-2.9,1-2.7,2.7c0.2,1.7,0.6,3.8,0,5.2
	s-1.7,4-2.2,5.5c-0.5,1.5-1.2,3.4-1.2,4.1S7.6,49.7,9,50.6s5.4,2.1,6.5,1.4c1-0.7,3.1-7,4.2-9.1c1-2.1,5.9-6.2,7.1-7.8
	c1.2-1.6,1.7-0.8,2-2.7C28.9,30.6,26.1,24.3,26.1,24.3z"></path><path class="st5" d="M25.2,83c0,0-1.5,2.6,1.2,5.2s2.9,3.5,4.9,4.2c2,0.7,5.9,0,5.9,0s-0.6-0.8,2,0.3c2.6,1.1,5.5,1.4,6.3,1.4
	c0.8,0,3.3,0.2,4.8-0.5s2.7-1.5,3.4-2.1c0.7-0.6,1.5-0.7,2.4-0.7s2.7,0.1,3.3-0.9s0.1-3.8,0-4.5c-0.1-0.7,1.4-1.3-6.3-1.5
	s-7.9,0.4-10.8,0c-2.9-0.4-3.6-0.8-6.7-1c-3.1-0.1-6.3-1.2-7.2-0.5C27.3,83.2,25.2,83,25.2,83z"></path><path class="st3" d="M85.4,71.1c0.1,0.4,0.1,1.4-0.7,3.1c-0.8,1.7-1.9,3.2-2,3.9c-0.1,0.7-1.7,3.8-2.8,4.1c-1,0.4-2.6,1.9-3.5,4.1
	c-0.9,2.2-0.2,3.6-2.2,3.6s-2.4-2.5-4.5-1.7c-2.1,0.8-2,1-2.2,2.7c-0.2,1.6-0.5,2.9-1.5,3.3c-1,0.4-3.5,0.4-4.6,0.7
	s-2.9-0.1-3.4-1.2c-0.5-1-2.7-0.7-2-2.8c0.7-2.1,0-5.6,0.5-6.2c0.5-0.6-1.5-3.1-0.6-4.2c0.9-1-1-2.7,4.5-2.9
	c5.6-0.2,9.9-2.1,10.8-2.8c0.9-0.6,4.1-2.8,5.2-3.8s1.6-1.9,3.3-2.1c1.6-0.2,3.6,0,3.6,0L85.4,71.1z"></path><path class="st6" d="M49.3,8.9c0,0,3.1-0.6,7.3-2.7s5.5-2.8,7.7-1.9s5.1,2.6,5.5,3.4s-0.8,2.2,0,2.4s2-1.9,2.6,0.5
	c0.6,2.4,1,2.7,1.2,3.3s-0.1,1.5,1,1.8c1.2,0.3,3.8,0.5,3.9,0.6c0.1,0.1,0.5,1.2,0.5,1.2s1.3,0.2,1.4,0.8s-0.2,1.8,0,2.8
	s0,2.2-1.9,0.9c-1.8-1.3-9.5-2.5-11.6-2.5c-2.1,0-2-0.8-8.9-0.8s-13.4,1.4-14.1,0.8c-0.7-0.6-3.5-4.2-3.5-4.5c0-0.3,1.7-3,1.8-3.1
	C42.3,11.8,49.3,8.9,49.3,8.9z"></path><path class="st3" d="M50,16.2c0.7-0.4,6.3-2.8,9.6-3.2c3.3-0.4,7,0.6,8.3,1.6c1.3,1,1.8,2.5,2.7,2.8c0.9,0.3,4.2,0.5,5.1,0
	c0.9-0.5,1.9-2,3.3,0c1.4,2,1.9,4.2,1.5,5.5c-0.4,1.3,0.6,1.7,1,2.4s-1.6,2.9-1,4s-0.1,3.1-0.1,3.1s1.1,3.2-4,0.5
	c-5.1-2.7-7-5.1-9.3-6.9c-2.3-1.7-4.6-3.5-6.6-4.1c-2-0.6-6.5-3.9-6.9-3.8C53.1,18.4,50,16.2,50,16.2z"></path><path class="st3" d="M81.9,20.2c0,0,3.4,2.9,3.5,4.1c0.2,1.2,0.3,3.1,0.9,3.4s3.1,2.5,3.6,3.3c0.5,0.8,2.7,2.9,2,4.6
	s-0.8,2.9-2.9,3.1c-2,0.2-2.4,0.8-3.6,0c-1.2-0.8-1.9-3.3-3.5-4.8s-3.3-3.4-3.5-4.9s0-3.8,0.1-4.8c0.1-1,1.9,0.5,1.8-1.4
	C80.3,21.1,81.9,20.2,81.9,20.2z"></path><path class="st3" d="M89,38.8c0,0,2.6,3.3,3,4.5c0.4,1.3,0.2,4.2-1.1,5.4c-1.3,1.2-0.5,2.6-0.3,3.5c0.2,0.9,0.8,5.7,0.9,7.2
	c0.1,1.5-0.9,1.2-1.9,1.6c-0.9,0.4-1.7,0.2-1.7,2.1c0,1.9-0.1,3.9-1.5,3.6c-1.4-0.3-1.4-0.2-3.3,0c-1.9,0.2-2.3,1.9-3.5,0
	c-1.2-1.9-0.7-3.7,0-5.7c0.7-2-0.1-9.1,0.7-11.7c0.7-2.6,0.9-3.3,1.7-4.9c0.8-1.6,1.6-3.3,2.3-3.8S89,38.8,89,38.8z"></path><path class="st5" d="M86.1,65.5c0,0-1.7,1.9-2.8,3.6s-2.8,3.4-2.9,4.3c-0.2,0.9-1.5,3.6-1.9,4.8s1.4,3-1.4,3.8
	c-2.8,0.7-1,1.6-4.4,0.4c-3.4-1.3-2.7-2.1-4.9-2c-2.2,0.1-2.9-0.1-3.8,0.7c-0.9,0.8-1.4,2.4-1.5,0.2c-0.1-2.2-0.3-2.5,0.7-6.4
	c1-3.9-0.1-8.7,5.2-11.1c5.3-2.5,3.5-4.7,7.4-3.7c4,1,5.1,0.1,6.9,1C84.4,62,86.1,65.5,86.1,65.5z"></path><path class="st7" d="M69.8,67.7c0,0-0.5,4.9-0.8,6s-2.1,3.5-2.8,5.1c-0.7,1.6-3.8,2.4-3.8,2.4s-1.7-0.1-3.5,1
	c-1.7,1.2-0.4,3.2-2.4,2.4c-2.1-0.7,0.8-1.4-2.8-1.8s-5.1,0.6-5.8,0c-0.7-0.6,1.3-4-1.7-2.6c-3,1.4-4.4,2.5-4.6,1.6
	c-0.2-0.9,0.2-4.4-1.2-5c-1.4-0.6-2.3,0.1-4.1,1.3s-3.8,5.2-4,2c-0.1-3.1-2.4-6.1-0.5-7.6c2-1.6,3.8-3.1,5.5-2.8
	c1.6,0.2,10.1,0,12-0.2c1.9-0.2-1.7,0.2,1.9-0.2s3.4-1.1,7-1.1c3.6,0,5.6,0.3,6.9-0.2C66.2,67.7,69.8,67.7,69.8,67.7z"></path><path class="st8" d="M37.4,68.1c-0.1,1.6-3.9,6.2-7,6c-3-0.2-4.5-1.2-5.7-0.5s-2.2,1.7-3.8,1.2c-1.5-0.5-2.5-1.1-2.8-1.9
	c-0.2-0.8,1-3-0.5-3.3s-2.7,1.3-2.2-1.4s3.4-3.1,0.5-5.2s-3.7-3.7-3.6-4.6c0.1-0.9-2-0.2-2.3-3.5c-0.3-3.3-1.9-5.5,0-8.3
	c1.9-2.8,2.3-2.4,3.1-4c0.8-1.6,1.2-3.8,1.4-4.4s1.2-1.4,2.1-1.8c0.9-0.5,3.4-1.2,4.3-1.2c0.9,0,4.1-0.8,4.5,1.2c0.4,2-1,0,1.7,6.6
	s7.6,10.7,8.8,14.1c1.3,3.4,2.3,3,2.7,5.3C39.2,64.6,37.4,68.1,37.4,68.1z"></path><path class="st3" d="M45.9,16.2c0,0-2.2-0.6-5.6-1.2c-3.4-0.6-4.6,0-6,0.6c-1.4,0.6-4.6,1.4-5.6,2.6s-1.4,2.3-1.6,3.5
	c-0.2,1.2-3.3,0.6-0.9,2.6s5,3.2,7.3,4s12,0.9,12.4,0c0.5-0.9,3.6-3.8,3.5-4.8S45.9,16.2,45.9,16.2z"></path><path class="st3" d="M38.1,25.9c-1.2-0.1-8.4-1.8-10.7-1.4c-2.3,0.4-5.4,2.1-5.6,4.3c-0.1,2.3-2.3,3.6-2.4,5.1s0.1,1.6,0.2,2.3
	c0.1,0.7-3.4,5.3,0,6.6s-2.1,1.8,4.4,1.7s8.7-1.3,10-2c1.3-0.7,6.5-4.9,6.7-5.7C41,36.1,38.1,25.9,38.1,25.9z"></path><path class="st9" d="M24.1,44.6c-0.6,1.1-3.1,3.8-3.9,4.9c-0.8,1.2-3,0.8-1.1,2.7c1.8,2,4,1.8,2.9,3.8c-1.2,2-1.2,4.1,0.8,3.7
	c2-0.4,3.6-2.7,4.5-0.3c0.9,2.3,0.6,4.3,1.4,4.9c0.8,0.6,4.7,2.4,4.7,2.4s-0.3,0.7,0.9,1.4s2.9,1.6,2.9,1.6s2.6,0.4,4-2.1
	c1.4-2.5,2.4-3.2,2-5.1c-0.5-1.9,2.8-1.1-1.1-5.4s-2.4-5.5-6-7.7C32.5,47.3,24.1,44.6,24.1,44.6z"></path><path class="st10" d="M41.6,31.8c-0.8-0.6-6.4-6.4-9.5-5.9s-5-0.4-6.2,1.4c-1.2,1.8-1.4,5.1-1.8,6.8s-3.3,3.8-3.6,4.1
	s-2.3,2-0.8,4.8s0.6,3.7,1.3,4.6s0-0.5,2.3,0s0.9,0.7,2.6,3.1C27.4,53,28,53.3,28,55s1.2,2.2,3,2.5c1.8,0.2,5.2,0.8,8.5,0.6
	s4.9,0.6,4.9-3.5s0.8,2.6,0-7.1C43.6,37.8,41.6,31.8,41.6,31.8z"></path><path class="st7" d="M73.1,32.4c0,0,5.5-1.8,7.1-1.1c1.6,0.7,4.2,0.4,5.3,2.7s1.8,4.7,1.8,5.1c0,0.4-0.2,1-1.2,2.7
	c-0.9,1.7-2,2.3-1.7,3.2c0.2,0.9,3.3,3,2.9,3.6c-0.3,0.5-0.7,3-1.6,3.7c-0.9,0.7-1.9,2.3-2,2.7c-0.1,0.4,1,1-0.1,2.6
	c-1.2,1.6-0.8,2.3-0.9,3.5s-0.5,3-1.5,3.3c-1,0.3,1.1,1.8-2.8,0s-7.2-2.7-7.8-3.8c-0.6-1-3.5-5.6-3.6-9.6s0.8-6.7,1.5-8
	C69.1,41.6,73.1,32.4,73.1,32.4z"></path><path class="st10" d="M33.6,73c0.9,0.5,3.9,0.6,5.2,0c1.3-0.6,2.6-1,3.3,0.4c0.7,1.4,0.7,2.9,2.6,2.9c1.8,0,2.7-1.1,3.7-1.3
	c1-0.2-0.1,0.2,2.4,0.4c2.6,0.2,3.6,0.5,4.1-0.5c0.5-1.1-1.5-2.4,0.5-1.1c2,1.3,2,2.4,3.6,1.2s2.2-3.1,3.3-3.1c1,0,2.2-0.4,3.4-0.6
	c1.1-0.2-0.3-2.5,1.6-2.4c1.9,0.1,1.2,1.8,2.6,0c1.4-1.8,0.5-3.9,1.6-3.2s4.9,2.3,5.3,1.8c0.5-0.4,1.7-2.5,2.3-4.5
	c0.6-2.1,2.8-3.3,0.9-5.1c-1.9-1.8-1.7-1.3-4.5-3.1c-2.8-1.8-1.6-2-5-1.8c-3.4,0.1-4.2-0.4-9.6,1.4c-5.5,1.8-10.2,1.7-12.2,3.5
	c-2,1.8-5.5,4.5-5.5,4.5s-2.7-0.6-4.4,1.2c-1.7,1.8-1.3,2.8-1.4,4.4C37.3,69.7,33.6,73,33.6,73z"></path><path class="st10" d="M42.2,22.6c0.1,0-2.8-0.6-0.8-3c2-2.4,0.5-2.4,4.5-3.3s4.3-2.6,6.9-2.4c2.6,0.3,6.2,1.2,7.6,1.8
	c1.4,0.6,1.6,1.3,4,2.6c2.4,1.3,2,0.3,3,2.9s2.1,1.9,0.8,3.4c-1.3,1.5-5.1,4.4-5.9,5.2c-0.8,0.7-6.7,1.4-6.7,1.4s-5.1-2.8-6.2-2.8
	c-1.2,0-0.6,0.4-2.7-1C44.6,25.8,42.2,22.6,42.2,22.6z"></path><path class="st11" d="M57.2,29.7c0.3-0.4,1.5-3.9,4.1-3.9s1.8-0.1,4.3-0.7c2.5-0.5,4.1,1.2,4.9,2.1c0.8,0.9-0.5,1.6,2.2,1.7
	c2.7,0,3-0.2,4.4,0c1.3,0.2,1.5,2.3,1.3,3.6c-0.2,1.3-1.7,1.9-1.3,3.2s1.9,2.7,1.9,3.6c0,0.9,1.3,3-0.7,2.1c-2-0.9-2.8-3.7-2-0.9
	c0.8,2.8,1.7,3.3,2,3.3s1.7-1.2,0.7,0.9c-1,2.1-1.2,2.1-1.9,2.2s-2.4-0.3-1.3,0.5s5.5,1.1,4.6,2.1c-0.9,1-0.4,4.4-3.3,3.7
	s-0.2-0.7-4.4-0.8c-4.2-0.1-6.5,2-7.1,1.1c-0.6-1-1.6-4.1-3.4-8.4s-2.7-8.6-2.7-8.6L57.2,29.7z"></path><path class="st5" d="M60.3,32.9c0,0,1.4-3.4,0-5.7s-3.9-3.1-4.2-3.8c-0.3-0.7,0-2.5-1.4-2.7c-1.4-0.2-2-0.2-5.3,0.6
	c-3.4,0.8-7.2,1.3-7.2,1.3s-2.5,0.3-3.3,0.9c-0.9,0.6-3.6,1.4-3.6,3.3c0,1.9,1.6,1.8,0.5,3.5c-1,1.7-3.4,3.7-3.4,5
	c0,1.3,0.2,2.3,2.1,2.9c1.9,0.6,3.8,1.8,5.8,2.1c2,0.3,5.3-0.5,6.4-0.9c1.1-0.4,2.1-1.4,3.3-2C51.1,36.6,60.3,32.9,60.3,32.9z"></path><path class="st12" d="M44.1,37.3c-0.6,0.2-9.5,0.8-9.5,0.8s-3.7,2-2.1,3.2c1.6,1.2,2.5,2.8,1.2,4.6s-0.9,1.6-0.6,2.9
	c0.2,1.2,0.7,2.9,0.1,3.5c-0.6,0.6-1,1.6-0.6,3.8c0.3,2.2-0.5,3.4,1.2,3.4c1.7,0,0.8,0.4,3,1.6c2.2,1.2,3.5,1.1,4.1,1.6
	c0.6,0.5,2.1,1.6,3.4,2.6c1.3,0.9-1.1,1.9,2.1,3.1c3.1,1.2,3.9,1,4.3-0.2s0.9-1.6,2.3-0.5s5.3,0.7,5.3,0.7s-0.8-2.2,0-3.7
	c0.8-1.4,1.4-2.1,2.2-2.4c0.9-0.2,2.5-1.1,3.1-1.2s0.9,0.3,0-1.6c-0.9-2-2.1-4.4-3.9-7.9C57.8,48,57.2,44,54,42.9
	c-3.1-1.1-4.7-1.7-6-2.7C46.7,39.3,44.1,37.3,44.1,37.3z"></path><path class="st13" d="M47.9,32.9c0,0-0.5-1.9,1.5-3.2s2-2.2,3.8-2.5c1.9-0.3,3.7,0.2,4.7,1c1.1,0.9,3,1.4,3.6,2.8
	c0.6,1.4,2,0.7,2.4,1.4c0.5,0.6,1.7,1.4,1.7,2c0,0.7-1.6,0.2,0,0.7c1.6,0.5,2,1.5,2,2c0,0.5-0.6,1,0,1.6c0.6,0.6,2.3,0.8,2.1,1.4
	c-0.2,0.5-1,2.4,0,2.4c1,0,0.1-1.8,1.6,0c1.5,1.8,2.8,3.2,2,4c-0.8,0.8-1.3-1.3-2.2,0.1c-0.9,1.5,0.2,2.7-0.6,3.8
	c-0.8,1.1-2,1.1-2.3,2.9c-0.3,1.8-0.7,3-2,3.9c-1.3,0.9-2.8,3.6-2.8,3.6s-3.1,2.8-3.9,2.7c-0.8-0.1-5.4,0.1-6.1-0.6
	c-0.7-0.7-5.7-4.1-6.3-5.9c-0.6-1.8-3.8-5.9-2.8-9.7c1-3.8,2.7-10.8,2.9-11.1C47.5,35.9,47.9,32.9,47.9,32.9z"></path><path class="st14" d="M53.3,39.3c0,0-1.3-5.4-3.4-6.3c-2.1-0.9-2.2-2-4.3-0.5c-2.1,1.5-4.9,4.4-4.9,4.4s-1.8,2.2-3.5,3.4
	c-1.7,1.2-1.5,1.7-0.8,2.7s-0.3,2,0.3,3.1c0.7,1.1,0.6,1.2,2,1.5s3,1,3.9,2.6c0.9,1.6,1.6,6.1,2.7,5.9c1.1-0.2,0.7-0.6,2,0
	c1.3,0.6,2-0.7,3,0c1,0.7,1.7,0.7,2.2,0c0.5-0.7-0.9-2.6-1.8-2.9c-0.8-0.3-1.4-3-0.4-4.3c0.9-1.3,0.1-0.7,1.8-3.3
	C54,42.9,53.3,39.3,53.3,39.3z"></path><path class="st3" d="M55.6,42.6c0.2-1.1,0.2-4.8,1.6-5.3c1.4-0.5,3.1-2,3.1,0c0,2,0,4.3,0,4.3s0.6,0.6,0.6,2.5
	c0,1.9,0.5,3.5,0.5,4.6c0,1.1-0.4,1.2-0.5,3.5c-0.1,2.3-1.4,3-2.4,2.7c-1-0.3-2.4-0.6-2.2-1.8c0.2-1.3,1.2-3.5,0.9-4.6
	S55.6,42.6,55.6,42.6z"></path><path class="st15" d="M58.5,42.6c-0.1-1.2-0.9-3.7-2.4-3.7c-1.4,0-0.9,1.1-2.8,0.4c-2-0.7-1.7-3.1-3.4-2c-1.7,1.1-1.6,1.5-3.3,2
	s-2.5,0.2-3.2,0.8c-0.7,0.6-1.8,1-1.3,1.9c0.5,0.9,1.2,2.1,1.9,3.1c0.7,0.9,1.5,1.3,2.6,2.3c1.2,1,1.6,1.5,2.7,1.5s3.3,0.2,4.1-0.2
	c0.8-0.4,5.4-3.1,5.4-3.1L58.5,42.6z"></path><path class="st16" d="M52.3,45.5c0,0-2-1.5-2.9-1.4c-0.9,0.2-2.7,0.7-2.7,1.9c0,1.3-0.4,4.2,0,4.6s0.9,0.7,1.3,0.9
	c0.4,0.2,0.3,0.8,1.4,0c1.1-0.8,2.4-2,2.9-2c0.5,0,2,0.4,1.2-1C52.6,47.2,52.3,45.5,52.3,45.5z"></path><path class="st3" d="M57.2,45c0,0-0.2-0.7-0.9-1.3c-0.5-0.4-1.2-0.7-2.2-0.8c-2.8-0.2-6.4-0.5-7.5,0s-0.7,1.7-1.4,3.1
	c-0.7,1.4,2.4,6.9,0,4c-2.4-2.9-4.3-3.3-2.9-5.1c1.4-1.8,1.6-1.9,3.7-3.3c2.1-1.4,2.3-1,4.1-1s2.1,0.6,2.1,0.6s-0.2-1.1,1.7,0.1
	C55.6,42.6,57.2,45,57.2,45z"></path><path class="st5" d="M52.3,45.5c0,0,2.8-1.2,3.8-0.9c1.1,0.4,2.7,0.8,2.7,0.8s-0.7,3.2,0,4.6c0.7,1.4-2.3,1.3-2.5,3
	c-0.2,1.8,0.5,0.9-1.6,1.9c-2.1,1-4.7,0.1-4.3-0.9c0.4-1-1.5-1.5-1.1-2.6c0.4-1,1.2-1.4,1-2.7C50.3,47.4,52.3,45.5,52.3,45.5z"></path></g></svg>