<svg xmlns="http://www.w3.org/2000/svg" version="1.1" xmlns:xlink="http://www.w3.org/1999/xlink" xmlns:svgjs="http://svgjs.dev/svgjs" viewBox="0 0 108 108" style="" x="0" y="0"><style type="text/css">
	.st0{fill:#7A8E71;}
	.st1{fill:#79A37F;}
	.st2{fill:#598665;}
	.st3{fill:#6FB882;}
	.st4{fill:#6D904C;}
	.st5{fill:#9E5293;}
	.st6{fill:#AD649B;}
	.st7{fill:#82538A;}
	.st8{fill:#915D9A;}
	.st9{fill:#964D8B;}
	.st10{fill:#9B3C80;}
	.st11{fill:#AC458E;}
	.st12{fill:#B35393;}
	.st13{fill:#7C3D74;}
</style><g><path class="st0" d="M76.2,91.9c0,0-1.2,3.1-2.6,4.2c-1.4,1.1-4.8,2.5-6.9,3c-2.1,0.5-1.1,2.3-4.9,1.2c-3.8-1.1-2.8-1.5-6.5-2
	s-4.3-0.7-7-0.7c-2.6,0-3.3-1.5-5.6-1.3s-2.7-0.9-6.1-2.9c-3.5-1.9-4-1.5-5.4-2c-1.3-0.5-3.2-1.5-3.8-3.6c-0.6-2.1-1.1-2.9-1.4-5.8
	c-0.4-2.9-0.4-5.4,0-6.8s0.8-3.8,3.3-3s6.2,3.6,12.3,5.5c6.2,1.9,13.5,4.7,15.9,4.9c2.4,0.2,3.2,0.3,5.2,0.9c2,0.6,6.3,3.1,7.1,3.6
	S76.2,91.9,76.2,91.9z"></path><path class="st1" d="M59.4,12.2c0,0,2.8,0.1,3.9,0c1.1-0.1,4.2-0.1,5.1,0c0.9,0.1,1.4,0.5,2,1.1c0.6,0.6,2.1,1,1.4,2.7
	s-5.2,2.3-5.2,2.3s-3.8,0.9-4.8-0.5c-0.9-1.4-2.1-2.5-2.5-3.2S59.4,12.2,59.4,12.2z"></path><path class="st2" d="M31.3,19.3c0,0,1.2-3.3,2.7-4.7s2.5-1.8,4.4-1.9c1.9-0.1,2.1-1.4,4.4-1.8c2.3-0.4,3.8,0.7,5.1,0
	c1.3-0.7,2.6-1.4,4.6-1.8c2-0.4,4.5-0.5,5.9,0.6s4,2.7,4.6,3.5c0.6,0.8,3.3,3.3,3.4,3.9c0.1,0.6,0.9,1.2-2.1,3.5
	c-3.1,2.3-8.9,5.8-12.9,5.4s-10.6-1.8-10.6-1.8L31.3,19.3z"></path><path class="st2" d="M16.3,65.7c-0.8,0.8-1.3,1.8-1.9,3.1c-0.6,1.3-1.1,0.9-0.9,2.3c0.1,1.4,1.8,6.9,2.4,8.4s1.4,3.8,2.7,4.5
	c1.3,0.7,5.1,4.3,5.5,4.7s0.9,1.2,1.9,1.8c0.9,0.6,0.6,0.8,1.9,0.7c1.3-0.1,5.6-1.4,6.1-1.7c0.5-0.2-1.7-6.2-1.9-7.5
	c-0.2-1.4-1.9-5.9-2.6-6.8c-0.7-0.9-3-2.7-3.8-3.4C24.7,71.1,16.3,65.7,16.3,65.7z"></path><path class="st1" d="M15.6,42.3c-0.7,0.6-4.5,1.7-4.3,3.1c0.2,1.4,0.6,3.5,1.1,4.3c0.5,0.8,1.4,4.1,1.1,5.1s-1.2,7.4-0.7,8.5
	c0.5,1.2,2.2,2.9,2.5,3.8c0.3,0.8,1.1,2.2,3,4.1c1.9,1.9,3.9,2.3,4.7,3.1c0.8,0.7,2.7,2.3,3.3,2.4c0.6,0.1,1.4,1.3,2.3,0.9
	c0.8-0.3,2.5-0.4,2.6-1.2c0.1-0.7-2.4-7.5-4-11.4c-1.7-3.9-1.7-9.8-3.5-11.4c-1.8-1.5-3.6-2.5-5-4.8S15.6,42.3,15.6,42.3z"></path><path class="st2" d="M22.1,27.1c0,0-5.5,3.6-5.9,4.1c-0.5,0.5-2.8,1.6-2.7,3.7s0.6,3.9,0.8,5.9c0.2,2,0.6,5.4,0.4,6.4
	c-0.2,1.1-0.2,5,0.6,6c0.8,1,3.6,2.9,3.8,4.3c0.2,1.4-0.2,1,0.1,2.4c0.4,1.4,0.7,2.4,1.5,2.8c0.8,0.4,3.2,0.5,4.2,0s3.3-2.9,3.3-4.1
	S27,44.5,27,43.9c0-0.6-0.4-6.1-0.4-6.9c0-0.8,0.2-4.7-0.1-5.1S22.1,27.1,22.1,27.1z"></path><path class="st0" d="M23.1,42.3c-0.4-0.6-3.8-3.4-3.9-5.3c-0.1-1.8,0.3-6.8,0.8-7.8c0.5-1,0-2.4,0.8-4c0.8-1.7,2.2-3.1,2.9-4.4
	s2.6-2.7,4.5-2.9c1.9-0.2,6.9-0.3,8.4-0.6c1.5-0.3,6.9-2.4,7.2-2.6c0.4-0.1,2.7,0.1,3.6,0.6s3.7,2.2,4,2.6c0.4,0.4,1.8,1.5,1.4,3.1
	c-0.4,1.7,1.5,6.3-3.4,11.2s-4.6,6.6-9,8.5s-5,2.9-7.6,2.8S23.1,42.3,23.1,42.3z"></path><path class="st2" d="M91.4,31.2c0,0,5.2,3.1,5.7,5.2c0.5,2.1,1.1,9.5,1.5,10.9c0.5,1.4,1.2,3.3,1.1,3.7c-0.1,0.5,0.9,5,0,6.5
	c-0.8,1.5-1.6,2.8-1.7,3.6c-0.1,0.8-1.3,1.4-1.8,2c-0.5,0.5-3.9,1.3-3.9,1.3s-4.2-8.2-4-9.3s1.9-9.9,0.5-13.3
	c-1.4-3.4-2.8-7.5-2.8-7.5s-0.6-1.6,0-2C86.6,31.9,91.4,31.2,91.4,31.2z"></path><path class="st0" d="M89.7,39.7c0,0,1.8-3.7,1.9-5.4s0.5-3.2,0.6-5.1s0.6-4.6-1.8-6.4C88,21,86,20.5,82.5,18.6c-3.4-1.9-4.5-3-6.2-4
	s-2.5-2-4.9-1.3c-2.4,0.6-4.6,1.3-5.9,1.3c-1.3,0-3.4-0.1-3.8,0.7c-0.4,0.8-3.2,4.5-2.7,4.9c0.5,0.4,1.7,2.3,6.4,4.9
	s14.5,10.4,15.8,11.2s4.2,3.7,4.7,4.3c0.6,0.6,2.6,1.1,2.6,1.1L89.7,39.7z"></path><path class="st3" d="M94.4,65.7c0,0,4.3,2.8,4.2,4.7c-0.1,1.9,0.2,6-2.1,7.1c-2.3,1.1-4.2,2.9-5.3,3.5c-1.1,0.6-2.5,2.3-3,3.1
	c-0.5,0.8-0.7,1.7-1.7,2.6c-0.9,0.9-2.1,2.3-3.1,2.5c-0.9,0.2-1.4-0.1-3,0c-1.5,0.1-3-2.2-1.2-4.4c1.8-2.1,11.4-14.9,11.4-14.9
	l0.8-2.9L94.4,65.7z"></path><path class="st2" d="M92.9,62.1c0,0,2.9,4.4,2.2,7.2s-1.7,5.3-2.2,6.5s-2.8-0.7-2.8,0c0,0.7,1.4,2.8,1.2,3.3
	c-0.2,0.5-0.5,1.7-1.7,1.9c-1.2,0.2-2.8,0.3-2.1,1.7c0.7,1.4-2.8,7-4,6.5c-1.2-0.5-3,1.1-5,2.2c-2,1-2.9,2.5-4.9,1.9
	c-2-0.6-4.4-1.1-4.6-1.9c-0.2-0.7,1.1-1.6-1.4-1.1c-2.5,0.5-1.9,0.2-3.7,1.1c-1.8,0.9-0.9,1.5-3.7,1.5c-2.7,0-1.2-1.6-4.9-1.5
	c-3.7,0.1-8.1,1.4-9.2,0.5c-1.1-0.8-4.2-2.5-4.6-4c-0.5-1.5-3.1-3.5-3.1-5.2s-3.9-3,0-5.7c3.9-2.7-1.9-3.9,9.1-4s13.7-0.8,17.5-1.8
	c3.8-1,9.3-4.3,10.8-4.9c1.5-0.7,5.4-1.4,6.5-2.1C83.3,63.3,92.9,62.1,92.9,62.1z"></path><path class="st4" d="M85.7,39.7c0,0,7.4,3.4,8.7,5.3c1.3,2,2.7,4.3,2.7,5.1s0.9,4.2,0,5c-0.9,0.8-3.1,4.3-2.6,5.5
	c0.5,1.2-0.1,5.1-0.1,5.1l-3.7,4.2c0,0-1.2-0.4-3,0c-1.8,0.4-5,0.8-5.2,0c-0.2-0.8-3.4-5.7-2.5-9.5c0.9-3.8,2.5-14,2.5-14.7
	s-0.7-0.5,0.2-2.3S85.7,39.7,85.7,39.7z"></path><path class="st1" d="M55.3,81c0,0,4.2,3.1,6.6,3.8s3.4,1.9,5.3,1.5c1.9-0.4,3.6-1.6,4.8-2.6c1.2-1,4-3.8,6.5-5.1
	c2.5-1.4,2.4-2.1,4.7-3.6c2.4-1.5,4.6-3.5,4.7-6.1s1-6.8,0.5-8.3s-1.5-3.7-2.3-4S85,54.2,84,55c-1.1,0.9-4.4,6.4-10,12.6
	s-5.3,7.3-9.4,8.2c-4,0.8-8.4,1.7-8.8,1.7C55.5,77.5,55.3,81,55.3,81z"></path><path class="st1" d="M23.7,43.4c-0.6-1.2-2.2-3.9-1.2-6.5c0.9-2.6,1.6-3.3,1.2-5.1s-1.8-2,0.1-3.6c1.9-1.7,2-2.3,3.7-3.4
	c1.7-1.1,3.8-1.8,3.8-3.7c0-1.9,0.8-2.8,3.1-3.4c2.3-0.6,4.5-1,5.8,0s5,1.6,5,1.6s2.1,0.6,2.7,0.8c0.6,0.3-0.5-1.1,1.1,0.5
	c1.6,1.5,2.4-4.9,2,3.5c-0.4,8.5-9.5,25.1-10.3,25.8s-3.6,1.1-6.3-0.9C31.7,47.2,23.7,43.4,23.7,43.4z"></path><path class="st4" d="M49,26.3c0,0-1.5-3.8,0-5.6s5.1-5,8.2-4.6c3.1,0.4,5,1.4,6.2,1.5c1.2,0.1,3.7-0.7,5.4,0.3
	c1.8,1,2.2,1.2,3.3,2.4c1.1,1.2,1.2,1.1,1.6,2.6c0.4,1.5,1.1,0.7,0.5,3.3s0.2,3.3-1.6,3.6c-1.8,0.3-4.4-0.2-8.4,0s-9.4-0.1-9.9,0.1
	S49,26.3,49,26.3z"></path><path class="st2" d="M65.9,26.3c0,0,3.1-3.7,5.2-4.2s3.6-1.6,5.1-0.7s4.4,3.2,5,3.8s3.9,2.2,4.5,3.8s0.3,3.2,0.3,3.2
	s1.2,1.4,1.4,1.8c0.2,0.3,0,2,1.1,3.8s1.6,3.6,1.6,4.4s0.9,1.6,0,3.7c-0.9,2.1,0.4,2.1-1.1,4.5c-1.5,2.3,0.4,1.6-2.3,3.1
	c-2.7,1.5-8.5,2.3-9.5,0.6c-0.9-1.7-3.2-7.2-3.7-8.4s-2-5.6-3.4-7.6C68.6,36.1,65.9,26.3,65.9,26.3z"></path><path class="st4" d="M46.4,76.4c0,0-1.8,3-4.7,3.9c-3,0.9-5.2,0.7-6.3,0.6s-5.7-2.2-5-3.4c0.8-1.2-2.3-5.6-3.5-7
	c-1.2-1.4-2.4-3.6-3.3-5.5c-0.9-1.9-1.6-3.6-1.5-4.5c0.1-0.9,0.2-1.6,1.5-3s3.6-0.9,4.4-1c0.7,0,1.4,1,2.7,1c1.3,0,0.7,0.2,5.9,4.6
	s4.9,3.9,6.4,5.5C44.4,69.2,46.4,76.4,46.4,76.4z"></path><path class="st4" d="M45.7,26.3c0,0-10.2-1.3-11.4-1.2c-1.3,0.1-2.3-0.1-3.9,1c-1.5,1.1-2.7,0.5-4,2.1c-1.3,1.6-2.8,2.4-2.7,3.6
	c0.1,1.3-0.1,4.1,0.4,4.4c0.6,0.3,6.2,2.1,7.1,2.1c0.9,0.1,5.3,1,6.2-0.4c0.8-1.4,1.9-4.2,2.6-5.3C40.7,31.7,45.7,26.3,45.7,26.3z"></path><path class="st2" d="M36.6,31.2c-3.2,0.4-5.3,1.3-6.8,2.3c-1.5,0.9-5.6,1.2-5.7,2.9c-0.1,1.7-0.8,4.6-0.4,7.1
	c0.3,2.5-0.1,7.6,0.9,8.3s4.5-0.1,3.4,4.8c-1.1,4.8-0.9,5.7,0.1,6.6c1.1,0.9-0.9,2.7,1.9,2.6c2.8-0.1,3,0.5,5.3-1.7
	c2.3-2.2,4.3-8.2,3.8-10.5c-0.5-2.3,0.4-8.2,0.1-10.1c-0.3-1.9-0.1-3.2-0.7-5.3C38,36,36.6,31.2,36.6,31.2z"></path><path class="st5" d="M30,62.9c-0.1,0.6-0.8,0.9-0.9,2.6C29,67.2,30,68.3,30,70.2s-2.1,1.9,0,3.1c2.1,1.3,2.8,1.8,2.8,2.5
	s1,2.3,1.5,2.3s-0.4,0.5,1.5-0.6s2.4-0.1,2.6-2.1s2.5-0.1-0.6-3.9c-3.1-3.8-2.6-1.8-3.1-3.8s-1.5-3.5-1.5-3.5L30,62.9z"></path><path class="st6" d="M38.4,75.3c0,0-1.3,3,0,3.8c1.3,0.8,1.7,0.8,2.8,0.8s2.4,0.5,3.2,1c0.9,0.4,5.3,1.2,6.4,1.1
	c1.1-0.1,1.7,0.3,2.2,0.5s1.8,0.6,2.1,0s-0.3,0.1,0.2-0.6s2.1-2.7,2.1-2.7L51,78.2c0,0,0.6-2.8-1.2-2.8c-1.8,0-3.8,0.5-3.8,0.5
	l-3.2-0.1L38.4,75.3z"></path><path class="st5" d="M55.1,82.5c0,0,3.4,0.2,4,0s1.1-1.4,1.8-1.4s2.8,0.1,3.1,0c0.3-0.1,1.7-0.9,1.4-1.2s-3-0.5-3.7-0.8
	c-0.6-0.3-4.4-1.8-4.4-0.9s-0.6-0.4-1.2,0.7C55.6,80.1,55.1,82.5,55.1,82.5z"></path><path class="st7" d="M67.2,80.2c0.3,0.2,0.2,1.2,2.3,0s7.4-6.1,7.8-7.2c0.4-1.1,1.5-3.5,1.5-3.5l2.7-3.6c0,0,0.3,1,1.4,0.2
	c1.1-0.8,1.1-1.8,1.1-3.3c0-1.5-0.3-2.3,0-3c0.3-0.7,1.3-4.9,1.4-5.6c0.1-0.7-2.1,0.5-2.1,0.5s-3,2.3-4.2,3.7s-6.2,9-6.9,10.3
	s-4.6,4.2-5,5.1s0.6,3.2,0.6,3.2L67.2,80.2z"></path><path class="st5" d="M85.3,54.4c-0.3-1.3-0.1-4.1,0-5.8c0.1-1.7-0.1-3.7-1.4-5.2c-1.3-1.5-1.8-2.6-2.2-3.5s0.2-1.6-1.4-2.5
	s-1.5-2.2-2.8-3.7c-1.3-1.5-4-3.2-4.8-3.2s-1.2,0-1.7,0s-2.7,0-2.7,0s1.4,5.4,2.1,6.9s4.8,12.2,5.2,13s0.1,4.8,1.3,5.3
	s4.5,0.7,4.5,0.7L85.3,54.4z"></path><path class="st8" d="M72.8,30.5c0,0-1.5-1.3-2.7-2.5c-1.2-1.2-2.6-2.7-3.8-2.5s-3.2,0-4.1,0c-0.9,0-2.1,0-3.9,0s-3.2,0-3.2,0
	s-0.2-1.2-1.4-1.5c-1.1-0.3-2.6-1.1-3.8,0c-1.2,1.1-2.8,1.5-4.3,1.6s-2.7,0.5-3.7,1.3s-1.4,1.3-2.5,1.9c-1.1,0.5-1.9,0.8-2.1,1.8
	s-1.9,2.1-0.5,2.2S43.2,32,47,31.2c3.8-0.8,4.5-0.4,9,0.3s8.9,3.4,11.9,3.7s4.3,2.4,5,0C73.4,32.9,72.8,30.5,72.8,30.5z"></path><path class="st9" d="M36.2,33.7c-0.5-0.2-1.6-2.5-3.1-1.5c-1.5,1-1.8,1.7-2.5,3.1s-1.7,1.9-2.1,2.7s-0.1,2.2-1.4,2.8
	s-2.4,0.4-1.7,1.9c0.6,1.5,1.1,2.4,2.3,2.6s4.3,0.5,5.2,0s3.3-1.2,3.3-2.4c0-1.2,0.1-4.2,0.4-5S36.2,33.7,36.2,33.7z"></path><path class="st5" d="M27.7,45.3c0,0-2.6,0.2-2.5,1.5c0.1,1.3,2.2,4.2,2.5,5.1c0.2,0.9-0.8,5.5,0,6.8s2.3,4.2,2.3,4.2s-1.2,2.6,1,3.1
	s5.1,0.7,5.2,0c0.1-0.7,0.3-5.3,0.5-7.1c0.2-1.7-1.5-4-2.5-6.5c-1-2.5-2-4.4-2.2-4.9C31.8,47.1,27.7,45.3,27.7,45.3z"></path><path class="st10" d="M38.5,32c0.9-0.7,5.5,0.2,7.1-2.1s1.4-4,3.4-3.1c1.9,0.9,3.9,3.3,4.7,2.5c0.8-0.8,0.4-1.4,1.4-1.6
	s2.8-1,3.7-0.9c0.9,0.1,2.1,0.5,3,1.2s2.6,0.9,4.1,1.3c1.5,0.4,2.4,1.2,3.8,1.2s1,1.6,2.1,3.2s1.3,1.8,0,2.7c-1.3,1-4.6,3-6.2,3.3
	c-1.7,0.2-2.3-0.3-7.6-0.9s-7.1-0.9-9.5,0C46,39.7,43.8,40,43,39.7c-0.9-0.3-1.7-0.4-2.4-1.6S38.5,32,38.5,32z"></path><path class="st5" d="M81.2,59.9c0,0-2.1,4-2.2,5.5c-0.1,1.4-2.7,7.2-3.6,7.9c-0.9,0.7-3.3,3.1-4.8,3.5c-1.5,0.3,0.6,0.8-2.9,0.4
	s-5.6-1.4-6.7-1.3s-0.4,0.4-2.5,0.8s-1.7,1.5-4,0.7c-2.3-0.9-2.9-0.9-3.9-1.4c-1-0.5-2.6,0.8-4.8,0c-2.2-0.8-3-1.1-3.9-1.7
	s-1.2,1.1-1.1-1.1c0.1-2.2-1.6-2.9,1.8-4.3c3.5-1.4,2.6,0,8.6-2.8c6.1-2.8,6.6-4.6,11.5-6c4.9-1.5,2.9-2.6,6.1-2.3
	c3.1,0.4,3.4,0.5,6.7,0.7C79.1,58.6,81.2,59.9,81.2,59.9z"></path><path class="st6" d="M63.4,34.8c0.3-0.1,7-1.6,8.3-1.1c1.3,0.5,2.5,1.3,3.4,2.7s1,2.8,2.3,3.4c1.3,0.6,2.3,2.6,1.7,3.5
	s-0.7,2.5,0.2,4.1c0.8,1.6,1.4,2.8,1,4.1c-0.3,1.3,0.8,2.8-1.1,4.3c-1.8,1.5-2.2,1.7-3.5,2.5s-1.9,1.5-3.1,0.9
	c-1.2-0.6-8.1-7.7-8.5-9.7c-0.3-2.1-1.2-4.8-2.1-6.7c-0.9-1.9-1.1-5.1-1-5.4S63.4,34.8,63.4,34.8z"></path><path class="st11" d="M73.6,48c0,0,5.6,3.6,6.7,3.6s2.2,0.8,2.6,2.1s-0.2,2.8-1.1,4.1c-0.9,1.2-2.6,2.1-2.5,3.6s1.1,3.7-0.2,4.1
	S76.6,65,76.2,66c-0.4,0.9-0.4,2.2-1.4,3.4s-0.5,1.3-2.2,1.1c-1.8-0.2-3.1,0.5-4.2,0s-2.2-4.5-2.3-5.7c-0.1-1.2,2.7-14.2,2.7-14.2
	l3.8-2.7"></path><path class="st8" d="M51.6,69.7c-0.6,0.2-3.8,0.9-5.1,1.6s-1.6-0.5-2.5-0.8s-2.2,0.5-3.4,0.2c-1.2-0.4-0.2-1.3-1.7-2.4
	c-1.5-1.1-3.8-0.6-3.7-1.9c0.1-1.3,0.6-2.3,0-3.5c-0.6-1.2-2.6-2.6-2.9-3.6S31,56,31.5,55c0.5-1,0-1.9,1-3.1c1-1.3,1.8-1.8,3.8-1.9
	s0.1,0.8,3.7,4.2c3.6,3.4,4.2,3,6.3,5.8c2.1,2.7,2.5,3.6,3.9,4.8C51.5,66,51.6,69.7,51.6,69.7z"></path><path class="st6" d="M36.2,36.4c0,0-3.3,0.8-4.3,2.4c-1,1.5-0.4,2.3-0.9,4c-0.5,1.7-1.4,2.6-1.9,3.7s-1.6,1.4-1.5,3.4
	c0.1,2,0.7,4.1,1.5,4.9c0.8,0.8-0.5,3.5,2.3,5.1c2.8,1.6,3.9,3,3.9,3s0.3,2.2,1,2.1c0.7-0.1,1.6-0.9,1.6-2.9c0-2.1-0.5-8.6,0-9.5
	c0.5-0.9,1.2-6.2,1.6-7.2s3-1.8,1.3-3.8C39,39.6,36.2,36.4,36.2,36.4z"></path><path class="st6" d="M42.3,35.3c1.3,0,3-0.9,4.8-1.7c1.7-0.7,1.4-0.9,4.5-1.6s5.3-1.7,6.4-1.5s2.9,0.4,4.4,1.5
	c1.5,1.1,1.3,1.4,3.1,1.7c1.8,0.3,3.1,1.1,3.8,1.9c0.8,0.8,1.2,0.1,2.5,1.8s1.9,3.5,2.1,4.1s0.4,2.1,0.7,3.8
	c0.3,1.7-0.6,3.3-1.5,4.6s-3.3,2.7-4.7,3.3s-11.1-1.7-12.8-2.6c-1.7-0.9-8.3-4.1-9.2-5s-2.3-2.6-2.6-3.7
	C43.5,40.7,42.3,35.3,42.3,35.3z"></path><path class="st11" d="M43.6,37.4c-2.7-0.6-4.6-0.6-5.8,0s-1.2,2.7-1,3.4s-1.2,1.3-1.8,2.6s-2.6,0.6-2.4,3.2s1.7,5.9,1.7,5.9
	s3.3,1.8,4.3,2.5s4.8,0.5,5.6,0s2.6-4.6,2.5-5.6s0.1-0.5-0.2-3.7C46.1,42.4,43.6,37.4,43.6,37.4z"></path><path class="st9" d="M41.5,46.5c0,0-2.2-1.5-3.6-0.4s-2.7,2.6-2.8,3.8s-0.8,3.5,0.6,5.4c1.4,1.9,1.2,1.8,2.1,3.4
	c0.9,1.6-1.9,4.1,0.1,3.2c2-0.9,2.2-1.6,2.8-0.7c0.7,0.8-0.2,1.4,1.6,2.1c1.8,0.8,3.1,1.7,3.8,1.5c0.6-0.2,1.3-1.1,2.6-1.6
	c1.3-0.5,3.2,0.3,2.9-2s-2.4-5.6-2.9-7.1S41.5,46.5,41.5,46.5z"></path><path class="st5" d="M62.1,42.8c0,0,6.5-1.2,7.9,0.6c1.4,1.9,1.7,2.6,2.6,3.1c0.9,0.5,2.1,2.9,1.9,3.4c-0.1,0.4-0.2,1-0.6,2.1
	c-0.3,1.1-1.5,4.1-1.4,4.9c0.1,0.8-0.9,2.1-1.9,3.1c-1,1-1.3,2.6-2.4,2.4s-3.8,0.3-5.6,1.3c-1.7,1-0.9,0.7-4.3,1.3s-2.5-0.2-4.8,0.4
	c-2.2,0.6-1.8,0.6-2.1-1.1c-0.3-1.6-2.6-3.3-2.3-4.4c0.3-1,3-4.7,3.6-5.9s3.6-8.3,3.6-8.3L62.1,42.8z"></path><path class="st6" d="M71.6,53.3l3,3.1c0,0,1.1,1.9,0.6,3.5c-0.5,1.7-0.6,3.6-1.7,5.1s-1.3,3.9-1.3,3.9s-2.8,2.9-3.8,3.2
	s-4.2-0.2-5.4,0.4c-1.2,0.6-3.4,1.5-5,1.6s-2.4,0.9-4.3,0c-1.9-0.9-3.2-2.8-3.4-3.4s-1.8-4-1-5c0.8-1-0.7-5.2,1.5-7
	c2.2-1.8,6.5-4.3,7.6-4.6s2.8-0.7,4.6-0.9C64.9,53.1,71.6,53.3,71.6,53.3z"></path><path class="st12" d="M71.6,53.3c0,0,1.9,1.2,3,3.1c1.1,2-0.1,4.4-0.6,6.5c-0.5,2.1-1.1,3.8-3.3,4.6c-2.1,0.8-5.1,2.2-6.5,2.3
	c-1.4,0.1-1.4-0.1-3.3-0.9s-3.2-1.8-3.6-1s-0.5,2-3.1,1.9c-2.6-0.1-1.7,0.5-4.4-0.4s-3.4-0.9-4.9-1.9c-1.5-1-3.5-0.9-3-2.5
	c0.4-1.5-4.4-1.7-0.1-3.4s6.4-1.2,13.3-2.2s6.6-1,8.4-1.2c1.8-0.2,3.7,1.4,5.5-0.5C70.8,55.8,71.6,53.3,71.6,53.3z"></path><path class="st5" d="M65.5,43.8c0,0-0.3-3.6-2.3-5c-2.1-1.4-2.9-2-5.7-2.4s-4.5,0.1-6.5,0.5s-4.2,0.4-4.9,0.4s1.1-0.6-1.8,1.8
	c-2.9,2.3-2.9,1.8-2.9,4.6c0,2.8-0.2,4.2-0.2,4.2s-3.1,0.6-1.3,1.9s4.2,5,4.2,5s0.1,2.7,1.1,3.8c1,1.2,2.8,2.8,2.8,2.8
	s0.8-0.9,4.4-1.7c3.6-0.7,4.2-1.6,6.4-4.6c2.2-2.9,2-3.5,3.4-5.4C63.6,48,65.5,43.8,65.5,43.8z"></path><path class="st12" d="M56.8,43.4c0.2-0.7-0.8-3.3,0.7-3.5c1.6-0.3,4-0.5,6,0.9c1.9,1.4,4.1,2.6,3.6,4c-0.5,1.4-0.5,2,0.1,3.8
	c0.5,1.8,0.6,2.5,0,4.1c-0.6,1.6-4.1,6-4.2,7.3c-0.1,1.3-2.3,2-3.4,2.5s-1.1,1.3-3,0.4s-4.1-1.8-4.2-3c-0.1-1.1-1-2.7-0.8-4.6
	c0.2-1.9,1.6-6.6,2.1-6.8c0.5-0.2,2.7-1.5,2.8-2.8C56.6,44.4,56.8,43.4,56.8,43.4z"></path><path class="st12" d="M53.7,42.9c-0.3-0.1-5.2-2.1-5.7-1.7c-0.4,0.3-0.6,3.8-1.6,4.4S45.3,47,44.7,48s0.1,2.2,0,2.6
	c-0.1,0.4,1.8,1.6,0.9,2S45.2,51,44.7,53c-0.5,1.9,0.9,2.5,1.3,3.4s0.9,1.2,2.1,1.2c1.2,0,5.4-1.1,5.7-1.8c0.3-0.6,2.3-1.7,2.9-2.6
	c0.5-0.9,0.2-4.2,0-4.7s1.6-2.2-0.1-2.8C54.7,45.2,53.7,42.9,53.7,42.9z"></path><path class="st5" d="M60.3,50.4c-0.3-0.7-1.8-3.7-1.8-5.1s-0.1-3.4-2.4-2.9c-2.3,0.5-2,0.5-3.6,1c-1.6,0.6-2.4,0-3.1,1.2
	s-0.5,0.3-0.9,2.3c-0.4,1.9-2.3,1.3-0.9,3c1.4,1.7,3.3,2.3,4,2.2c0.8-0.1,4,0.4,4,0.4l3.4-1.1L60.3,50.4z"></path><path class="st13" d="M50.4,52.5c-0.3,0.2-1.2,0.5-1.1,1.9c0.2,1.4,0.1,4.2,1.5,4.4c1.4,0.2,3,0.4,4.3,0c1.3-0.4,1.4-0.3,2.8-1.1
	c1.4-0.8,4.1-1.7,4.1-2.3c0-0.5-0.7-1.1,0-1.9c0.7-0.9,1.2-0.9,1.2-2s0.1-2.6-0.8-2.9c-0.9-0.3-1-0.4-2.1-0.6
	c-1.2-0.2-2.3-1.1-3.3-0.6s-1.8,0.4-2.8,1.9c-1,1.6-0.9,2-1.4,2.4C52.3,52.1,50.4,52.5,50.4,52.5z"></path><path class="st13" d="M58.8,48.5c0,0-2.5-1.5-3.3-2c-0.8-0.5-0.4-0.7-2.5-0.4c-2.1,0.3-3,0.3-3.4,1.3c-0.4,1-0.8,1.9-0.6,3.3
	c0.2,1.4-0.5,2.1,0.3,2.9c0.7,0.8,0.9,2.1,1.5,2.3c0.6,0.2,1.2,1.1,2,0.5c0.9-0.5,1.7,1.2,0.9-0.5c-0.8-1.8-0.9-2.9-1.5-3.3
	s-0.9-0.6-1.1-1.8c-0.2-1.2-0.1-1.8,0.5-2.2s1.1-0.5,2.1-0.6c1,0,1.5,0.2,1.8,0.1s0.3,0.3,1.1,0.5C57.4,48.7,58.8,48.5,58.8,48.5z"></path><path class="st8" d="M58,49c0.1,0.4,1,0.9,1,2.5c0,1.6-0.7,2.5-1.4,3.3c-0.8,0.8-1.8,0.7-2.4,1.1c-0.7,0.4-1.7,1.8-2.2,0.5
	c-0.6-1.2-1.3-1.6-2-2.3c-0.7-0.7-0.9,0.8,0,1.8c0.9,1,3,1.7,4.2,1.5c1.3-0.2,2.3,0.1,3-1c0.8-1,2.5-1.7,2.5-2.7
	c0-1,0.4-3.8-0.3-4.3c-0.7-0.5-2.2-0.7-2.4-1.4c-0.1-0.7-0.7-1.4-0.7-1.4L58,49z"></path></g></svg>