<?xml version="1.0" encoding="utf-8"?>
<svg id="Layer_1" data-name="Layer 1" viewBox="0 0 108 108" xmlns="http://www.w3.org/2000/svg">
  <defs>
    <style>
      .cls-1 {
        fill: #6b65ea;
      }

      .cls-2 {
        fill: #8c83da;
      }

      .cls-3 {
        fill: #4a4aba;
      }

      .cls-4 {
        fill: #6663ad;
      }

      .cls-5 {
        fill: #565696;
      }

      .cls-6 {
        fill: #3c3c9e;
      }

      .cls-7 {
        fill: #f8d361;
      }

      .cls-8 {
        fill: #ccab50;
      }

      .cls-9 {
        fill: #af924a;
      }
    </style>
  </defs>
  <g>
    <path class="cls-1" d="M 62.14 54.34 C 61.991 53.017 61.528 51.748 60.79 50.64 C 65.693 48.664 70.425 46.29 74.94 43.54 C 78.73 41.73 84.46 41.89 85.54 42.14 C 85.643 42.165 85.709 42.266 85.69 42.37 L 85 44.75 C 84.967 44.849 85.021 44.957 85.12 44.99 L 88.49 46.2 C 88.589 46.233 88.643 46.341 88.61 46.44 L 87.37 49.07 C 87.32 49.166 87.361 49.285 87.46 49.33 L 90.79 51 C 90.884 51.049 90.924 51.163 90.88 51.26 L 90.88 51.31 L 88.66 53.76 C 88.584 53.838 88.584 53.962 88.66 54.04 C 88.679 54.047 88.701 54.047 88.72 54.04 L 91.28 55.18 C 91.378 55.225 91.422 55.341 91.38 55.44 C 91.369 55.47 91.348 55.495 91.32 55.51 C 87.393 58.523 82.511 60.021 77.57 59.73 L 77.12 59.73 C 72.08 59.079 67.146 57.778 62.44 55.86 L 62.2 55.86 C 62.245 55.374 62.245 54.886 62.2 54.4 L 62.14 54.34 Z"/>
    <path class="cls-2" d="M 61.74 66.36 C 60.813 64.826 59.975 63.24 59.23 61.61 C 59.545 61.347 59.839 61.059 60.11 60.75 C 60.648 60.151 61.096 59.477 61.44 58.75 C 61.583 58.425 61.703 58.091 61.8 57.75 C 62.01 57.102 62.138 56.43 62.18 55.75 L 62.42 55.75 C 67.123 57.692 72.057 59.016 77.1 59.69 L 77.55 59.69 C 80.594 60.736 83.296 62.588 85.37 65.05 C 85.425 65.142 85.399 65.261 85.31 65.32 L 82.13 67.59 C 82.039 67.642 82.007 67.759 82.06 67.85 L 84.51 70.6 C 84.562 70.697 84.526 70.817 84.43 70.87 L 81.52 72.55 C 81.418 72.592 81.369 72.708 81.41 72.81 L 82.76 76.29 C 82.801 76.389 82.751 76.503 82.65 76.54 L 82.6 76.54 L 79.29 76.82 C 79.183 76.831 79.104 76.923 79.11 77.03 C 79.11 77.03 79.11 77.03 79.11 77.09 L 80.2 79.67 C 80.242 79.767 80.197 79.879 80.1 79.92 C 80.08 79.96 80.044 79.99 80 80 C 74.916 79.5 70.2 77.126 66.77 73.34 C 64.901 71.158 63.228 68.816 61.77 66.34 L 61.74 66.36 Z"/>
    <path class="cls-2" d="M 59.77 49.39 C 58.917 48.547 57.895 47.896 56.77 47.48 C 57.224 45.448 57.895 43.47 58.77 41.58 C 61.228 36.192 65.017 31.519 69.78 28 C 69.971 27.88 70.223 27.933 70.35 28.12 C 70.702 28.747 70.894 29.451 70.91 30.17 C 70.899 30.397 71.073 30.589 71.3 30.6 C 71.3 30.6 71.3 30.6 71.3 30.6 L 73.24 30.51 C 73.465 30.498 73.659 30.666 73.68 30.89 L 73.83 32.65 C 73.841 32.867 74.023 33.036 74.24 33.03 L 76.62 33.03 C 76.846 33.03 77.03 33.214 77.03 33.44 L 76.81 35.51 C 76.781 35.737 76.943 35.944 77.17 35.97 L 77.27 35.97 C 78.6 35.77 80.36 36.88 81.06 37.38 C 81.249 37.496 81.304 37.746 81.18 37.93 C 79.97 39.8 77.6 41.7 74.88 43.44 C 70.365 46.19 65.633 48.564 60.73 50.54 C 60.436 50.093 60.101 49.675 59.73 49.29 L 59.77 49.39 Z"/>
    <path class="cls-1" d="M 48.08 70.37 C 49.253 68.035 50.121 65.557 50.66 63 C 50.88 63.09 51.11 63.17 51.34 63.24 C 52.007 63.456 52.7 63.584 53.4 63.62 C 54.124 63.662 54.85 63.608 55.56 63.46 C 56.906 63.171 58.162 62.56 59.22 61.68 C 59.965 63.31 60.803 64.896 61.73 66.43 C 63.031 70.349 64.034 74.36 64.73 78.43 C 64.782 78.825 64.809 79.222 64.81 79.62 C 64.801 81.69 64.049 83.688 62.69 85.25 C 62.395 85.602 61.913 85.733 61.48 85.58 L 58.39 84.58 C 58.077 84.472 57.733 84.508 57.45 84.68 L 55.63 85.78 C 55.327 85.96 54.958 85.989 54.63 85.86 L 52.84 85 C 52.526 84.841 52.154 84.841 51.84 85 L 50.06 86 C 49.518 86.3 48.836 86.108 48.53 85.57 L 48.53 85.51 C 46.13 80.761 45.969 75.19 48.09 70.31 L 48.08 70.37 Z"/>
    <path class="cls-1" d="M 58.75 41.57 C 57.875 43.46 57.204 45.438 56.75 47.47 L 56.33 47.32 C 53.831 46.552 51.116 47.004 49 48.54 C 46.916 44.146 44.26 40.047 41.1 36.35 C 41.01 36.2 37.32 30.1 39.31 25.53 C 39.512 25.064 40.012 24.802 40.51 24.9 L 42.77 25.33 C 43.336 25.443 43.891 25.091 44.03 24.53 L 44.19 23.88 C 44.329 23.305 44.904 22.949 45.48 23.08 L 47.55 23.55 C 47.949 23.638 48.364 23.5 48.63 23.19 L 49.49 22.19 C 49.856 21.723 50.53 21.638 51 22 L 51.77 22.63 C 52.118 22.92 52.61 22.96 53 22.73 L 54.24 22.03 C 54.784 21.742 55.459 21.948 55.75 22.49 C 60.8 30.29 58.75 41.54 58.75 41.54 L 58.75 41.57 Z"/>
    <path class="cls-2" d="M 49.45 62.3 C 49.841 62.54 50.248 62.75 50.67 62.93 C 50.135 65.505 49.268 67.999 48.09 70.35 C 45.858 74.848 42.567 78.736 38.5 81.68 C 38.309 81.808 38.051 81.759 37.92 81.57 C 37.92 81.57 37.92 81.57 37.92 81.57 C 37.573 80.958 37.375 80.273 37.34 79.57 C 37.357 79.345 37.185 79.151 36.96 79.14 L 36.91 79.14 L 34.97 79.25 C 34.747 79.257 34.556 79.092 34.53 78.87 L 34.37 77.11 C 34.349 76.895 34.166 76.734 33.95 76.74 L 31.57 76.74 C 31.34 76.746 31.15 76.56 31.15 76.33 L 31.36 74.25 C 31.383 74.021 31.218 73.816 30.99 73.79 L 30.89 73.79 C 29.56 74 27.8 72.9 27.08 72.42 C 26.899 72.294 26.847 72.049 26.96 71.86 C 28.17 69.95 30.53 68.04 33.22 66.31 C 37.511 63.657 42.021 61.376 46.7 59.49 C 47.106 60.177 47.612 60.801 48.2 61.34 C 48.581 61.715 49 62.05 49.45 62.34 L 49.45 62.3 Z"/>
    <path class="cls-2" d="M 47.62 49.76 C 47.267 50.16 46.952 50.592 46.68 51.05 C 46.181 51.923 45.842 52.878 45.68 53.87 L 45.6 53.87 C 40.88 51.992 35.935 50.738 30.89 50.14 L 30.44 50.14 C 27.387 49.12 24.667 47.292 22.57 44.85 C 22.507 44.762 22.529 44.639 22.62 44.58 L 25.78 42.29 C 25.868 42.231 25.902 42.118 25.86 42.02 L 23.37 39.29 C 23.32 39.194 23.361 39.075 23.46 39.03 L 26.36 37.31 C 26.461 37.273 26.511 37.159 26.47 37.06 L 25.08 33.59 C 25.039 33.488 25.088 33.372 25.19 33.33 L 25.24 33.33 L 28.54 33.02 C 28.647 33.009 28.726 32.917 28.72 32.81 C 28.72 32.81 28.72 32.81 28.72 32.75 L 27.58 30.1 C 27.538 30.001 27.582 29.885 27.68 29.84 L 27.77 29.84 C 32.855 30.299 37.59 32.625 41.06 36.37 C 44.232 40.058 46.902 44.151 49 48.54 C 48.509 48.896 48.06 49.305 47.66 49.76 L 47.62 49.76 Z"/>
    <path class="cls-1" d="M 46.05 58.13 C 46.23 58.6 46.447 59.055 46.7 59.49 C 42.008 61.361 37.485 63.629 33.18 66.27 C 29.41 68.11 23.68 68.01 22.59 67.77 C 22.484 67.751 22.418 67.643 22.45 67.54 L 23.15 65.17 C 23.206 65.052 23.129 64.915 23 64.9 L 19.62 63.73 C 19.519 63.692 19.466 63.582 19.5 63.48 L 20.72 60.84 C 20.77 60.744 20.729 60.625 20.63 60.58 L 17.26 59 C 17.163 58.959 17.118 58.847 17.16 58.75 L 19.36 56.27 C 19.436 56.192 19.436 56.068 19.36 55.99 L 19.31 55.99 L 16.73 54.87 C 16.633 54.829 16.588 54.717 16.63 54.62 C 16.641 54.59 16.658 54.563 16.68 54.54 C 20.588 51.501 25.455 49.962 30.4 50.2 L 30.85 50.2 C 35.895 50.798 40.84 52.052 45.56 53.93 L 45.64 53.93 C 45.401 55.361 45.539 56.829 46.04 58.19 L 46.05 58.13 Z"/>
    <path class="cls-3" d="M 51.49 70.39 C 52.601 68.224 53.444 65.93 54 63.56 C 53.82 63.57 53.64 63.57 53.46 63.56 C 52.76 63.524 52.067 63.396 51.4 63.18 C 51.17 63.11 50.94 63.03 50.72 62.94 C 50.185 65.515 49.318 68.009 48.14 70.36 C 46.019 75.24 46.18 80.811 48.58 85.56 C 48.84 86.083 49.458 86.318 50 86.1 L 51.66 85.17 C 49.458 80.514 49.37 75.135 51.42 70.41 L 51.49 70.39 Z"/>
    <path class="cls-3" d="M 44.49 36.35 C 44.4 36.2 40.71 30.1 42.7 25.53 C 42.723 25.462 42.757 25.398 42.8 25.34 L 42.73 25.34 L 40.47 24.91 C 39.972 24.812 39.472 25.074 39.27 25.54 C 37.27 30.11 40.97 36.21 41.06 36.36 C 44.233 40.052 46.903 44.147 49 48.54 C 49.838 47.934 50.781 47.487 51.78 47.22 C 49.809 43.319 47.375 39.669 44.53 36.35 L 44.49 36.35 Z"/>
    <path class="cls-4" d="M 40.73 79.53 C 40.741 79.303 40.567 79.111 40.34 79.1 L 40.29 79.1 L 38.36 79.21 C 38.135 79.222 37.941 79.054 37.92 78.83 L 37.75 77.07 C 37.729 76.855 37.546 76.694 37.33 76.7 L 34.96 76.7 C 34.73 76.706 34.54 76.52 34.54 76.29 L 34.74 74.21 C 34.764 73.985 34.604 73.781 34.38 73.75 L 34.28 73.75 C 32.95 73.96 31.18 72.86 30.47 72.38 C 30.285 72.257 30.231 72.008 30.35 71.82 C 31.56 69.91 33.92 68 36.61 66.27 C 40.088 64.108 43.725 62.212 47.49 60.6 C 47.201 60.249 46.937 59.878 46.7 59.49 C 42.008 61.361 37.485 63.629 33.18 66.27 C 30.49 68 28.13 69.91 26.92 71.82 C 26.807 72.009 26.859 72.254 27.04 72.38 C 27.76 72.86 29.52 73.96 30.85 73.75 C 31.075 73.714 31.284 73.874 31.31 74.1 C 31.315 74.133 31.315 74.167 31.31 74.2 L 31.1 76.28 C 31.077 76.507 31.243 76.709 31.47 76.73 L 31.52 76.73 L 33.9 76.73 C 34.116 76.724 34.299 76.885 34.32 77.1 L 34.48 78.86 C 34.506 79.082 34.697 79.247 34.92 79.24 L 36.86 79.13 C 37.085 79.113 37.279 79.285 37.29 79.51 C 37.325 80.213 37.523 80.898 37.87 81.51 C 37.976 81.713 38.225 81.793 38.43 81.69 C 39.224 81.145 39.982 80.551 40.7 79.91 C 40.685 79.774 40.685 79.636 40.7 79.5 L 40.73 79.53 Z"/>
    <path class="cls-4" d="M 34.29 50.13 L 33.84 50.13 C 30.792 49.097 28.082 47.255 26 44.8 C 25.937 44.712 25.959 44.589 26.05 44.53 L 29.21 42.24 C 29.298 42.181 29.328 42.065 29.28 41.97 L 26.8 39.24 C 26.749 39.146 26.785 39.029 26.88 38.98 L 29.78 37.26 C 29.877 37.219 29.925 37.109 29.89 37.01 L 28.5 33.52 C 28.459 33.418 28.508 33.302 28.61 33.26 L 28.66 33.26 L 31.96 32.95 C 32.067 32.939 32.146 32.847 32.14 32.74 C 32.144 32.72 32.144 32.7 32.14 32.68 L 31.14 30.43 C 30.033 30.131 28.902 29.93 27.76 29.83 C 27.653 29.824 27.561 29.903 27.55 30.01 C 27.545 30.043 27.545 30.077 27.55 30.11 L 28.67 32.68 C 28.711 32.779 28.661 32.893 28.56 32.93 L 28.5 32.93 L 25.2 33.24 C 25.097 33.255 25.024 33.347 25.03 33.45 C 25.025 33.47 25.025 33.49 25.03 33.51 L 26.46 37 C 26.501 37.099 26.451 37.213 26.35 37.25 L 23.45 39 C 23.349 39.037 23.299 39.151 23.34 39.25 L 25.84 42 C 25.882 42.098 25.848 42.211 25.76 42.27 L 22.6 44.52 C 22.507 44.576 22.476 44.696 22.53 44.79 C 24.627 47.232 27.347 49.06 30.4 50.08 L 30.85 50.08 C 35.895 50.678 40.84 51.932 45.56 53.81 L 45.64 53.81 C 45.709 53.431 45.802 53.057 45.92 52.69 C 42.148 51.393 38.244 50.518 34.28 50.08 L 34.29 50.13 Z"/>
    <path class="cls-3" d="M 26 67.75 C 25.897 67.725 25.831 67.624 25.85 67.52 L 26.55 65.15 C 26.582 65.048 26.523 64.939 26.42 64.91 L 23.05 63.74 C 22.945 63.707 22.887 63.595 22.92 63.49 L 24.14 60.85 C 24.182 60.751 24.138 60.635 24.04 60.59 L 20.68 59 C 20.587 58.955 20.547 58.844 20.59 58.75 L 22.78 56.27 C 22.856 56.192 22.856 56.068 22.78 55.99 L 22.72 55.99 L 20.15 54.87 C 20.049 54.833 19.999 54.719 20.04 54.62 L 20.1 54.54 C 23.217 52.127 26.948 50.638 30.87 50.24 L 30.42 50.24 C 25.475 50.002 20.608 51.541 16.7 54.58 C 16.629 54.66 16.629 54.78 16.7 54.86 L 16.78 54.86 L 19.36 55.98 C 19.457 56.021 19.502 56.133 19.46 56.23 L 19.46 56.29 L 17.26 58.77 C 17.185 58.844 17.185 58.966 17.26 59.04 C 17.276 59.045 17.294 59.045 17.31 59.04 L 20.7 60.63 C 20.799 60.675 20.84 60.794 20.79 60.89 L 19.57 63.53 C 19.528 63.629 19.572 63.745 19.67 63.79 L 23 64.9 C 23.099 64.933 23.153 65.041 23.12 65.14 L 22.42 67.51 C 22.394 67.612 22.45 67.717 22.55 67.75 C 23.827 67.91 25.118 67.93 26.4 67.81 C 26.265 67.799 26.132 67.779 26 67.75 Z"/>
    <path class="cls-5" d="M 46.68 51.83 C 46.53 51.833 46.382 51.787 46.26 51.7 C 41.86 48.84 35.17 47.16 35.1 47.15 C 34.515 47.004 34.308 46.279 34.727 45.845 C 34.921 45.644 35.208 45.562 35.48 45.63 C 35.76 45.71 42.48 47.39 47.11 50.4 C 47.61 50.732 47.564 51.481 47.026 51.748 C 46.919 51.802 46.8 51.83 46.68 51.83 L 46.68 51.83 Z"/>
    <path class="cls-5" d="M 47.62 50.54 C 47.33 50.539 47.064 50.377 46.93 50.12 C 45.75 47.88 39.77 44.72 37.56 43.69 C 37.193 43.506 37.027 43.071 37.18 42.69 C 37.36 42.318 37.801 42.155 38.18 42.32 C 39.04 42.72 46.63 46.32 48.27 49.43 C 48.454 49.789 48.337 50.229 48 50.45 C 47.888 50.506 47.765 50.536 47.64 50.54 L 47.62 50.54 Z"/>
    <path class="cls-6" d="M 36.44 60.94 C 36.011 60.946 35.66 60.599 35.66 60.17 C 35.659 59.869 35.83 59.593 36.1 59.46 C 36.34 59.35 42.1 56.62 46.19 57.36 C 46.787 57.422 47.093 58.108 46.74 58.594 C 46.551 58.854 46.221 58.972 45.91 58.89 C 42.33 58.24 36.83 60.89 36.77 60.89 C 36.667 60.938 36.554 60.962 36.44 60.96 L 36.44 60.94 Z"/>
    <path class="cls-6" d="M 34.09 57.67 C 33.659 57.67 33.31 57.321 33.31 56.89 C 33.31 56.569 33.51 56.282 33.81 56.17 C 34.07 56.07 40.16 53.8 45.81 55.42 C 46.249 55.53 46.499 55.993 46.35 56.42 C 46.23 56.851 45.774 57.092 45.35 56.95 C 40.2 55.48 34.4 57.64 34.35 57.66 C 34.261 57.696 34.166 57.713 34.07 57.71 L 34.09 57.67 Z"/>
    <path class="cls-5" d="M 44.43 71.14 C 43.999 71.14 43.65 70.791 43.65 70.36 C 43.648 70.223 43.682 70.089 43.75 69.97 C 46.33 65.45 48.75 61.89 48.81 61.86 C 49.047 61.498 49.539 61.407 49.89 61.66 C 50.242 61.904 50.331 62.386 50.09 62.74 C 50.09 62.74 47.65 66.28 45.09 70.74 C 44.953 70.981 44.697 71.13 44.42 71.13 L 44.43 71.14 Z"/>
    <path class="cls-5" d="M 41.39 70.18 C 40.815 70.179 40.439 69.577 40.69 69.06 C 40.8 68.82 43.54 63.32 47.79 60.68 C 48.27 60.32 48.961 60.614 49.033 61.21 C 49.072 61.536 48.903 61.852 48.61 62 C 44.74 64.41 42.11 69.69 42.09 69.74 C 41.962 70.01 41.689 70.182 41.39 70.18 L 41.39 70.18 Z"/>
    <path class="cls-6" d="M 53.52 74 C 53.171 73.999 52.864 73.767 52.77 73.43 C 51.881 70.126 51.847 66.651 52.67 63.33 C 52.773 62.738 53.478 62.48 53.939 62.865 C 54.2 63.083 54.289 63.445 54.16 63.76 C 53.446 66.803 53.484 69.975 54.27 73 C 54.417 73.5 54.041 74.001 53.52 74 Z"/>
    <path class="cls-6" d="M 58 73.46 C 57.688 73.459 57.406 73.275 57.28 72.99 C 56.072 69.933 55.246 66.739 54.82 63.48 C 54.767 63.052 55.072 62.662 55.5 62.61 C 55.926 62.557 56.313 62.863 56.36 63.29 C 56.778 66.4 57.567 69.448 58.71 72.37 C 58.86 72.757 58.685 73.193 58.31 73.37 C 58.212 73.41 58.106 73.431 58 73.43 L 58 73.46 Z"/>
    <path class="cls-5" d="M 70 69 C 69.878 69 69.757 68.969 69.65 68.91 C 65.902 66.917 62.495 64.337 59.56 61.27 C 59.181 60.804 59.448 60.103 60.04 60.007 C 60.28 59.969 60.524 60.044 60.7 60.21 C 63.52 63.131 66.775 65.597 70.35 67.52 C 70.706 67.714 70.857 68.146 70.7 68.52 C 70.576 68.799 70.305 68.985 70 69 Z"/>
    <path class="cls-5" d="M 70.39 64.12 C 70.307 64.135 70.223 64.135 70.14 64.12 C 66.905 62.921 63.834 61.318 61 59.35 C 60.511 59 60.585 58.252 61.133 58.003 C 61.387 57.888 61.683 57.917 61.91 58.08 C 64.624 59.95 67.564 61.469 70.66 62.6 C 71.07 62.742 71.286 63.191 71.14 63.6 C 71.039 63.918 70.743 64.132 70.41 64.13 L 70.39 64.12 Z"/>
    <path class="cls-6" d="M 68.26 55.57 C 66.166 55.551 64.075 55.401 62 55.12 C 61.574 55.053 61.28 54.657 61.34 54.23 C 61.402 53.805 61.795 53.511 62.22 53.57 C 64.22 53.86 69.83 54.41 72.08 53.57 C 72.66 53.415 73.191 53.945 73.035 54.525 C 72.982 54.726 72.85 54.897 72.67 55 C 71.246 55.416 69.763 55.599 68.28 55.54 L 68.26 55.57 Z"/>
    <path class="cls-6" d="M 61.66 53.12 C 61.229 53.12 60.88 52.771 60.88 52.34 C 60.879 51.968 61.144 51.648 61.51 51.58 C 61.56 51.58 67.19 50.42 69.28 49.28 C 69.653 49.069 70.126 49.199 70.34 49.57 C 70.557 49.942 70.426 50.42 70.05 50.63 C 67.75 51.87 62.05 53.04 61.84 53.09 L 61.66 53.12 Z"/>
    <path class="cls-5" d="M 59.77 50.17 C 59.17 50.161 58.804 49.505 59.112 48.99 C 59.182 48.873 59.281 48.777 59.4 48.71 C 62.26 47.074 64.65 44.728 66.34 41.9 C 66.541 41.551 66.977 41.416 67.34 41.59 C 67.718 41.797 67.86 42.269 67.66 42.65 C 65.834 45.753 63.219 48.316 60.08 50.08 C 59.97 50.14 59.846 50.171 59.72 50.17 L 59.77 50.17 Z"/>
    <path class="cls-5" d="M 58.28 49 C 57.849 49 57.5 48.651 57.5 48.22 C 57.501 48.012 57.588 47.813 57.74 47.67 C 59.229 46.134 60.569 44.46 61.74 42.67 C 62.028 42.143 62.778 42.126 63.091 42.638 C 63.256 42.91 63.24 43.255 63.05 43.51 C 61.815 45.394 60.399 47.153 58.82 48.76 C 58.672 48.901 58.475 48.98 58.27 48.98 L 58.28 49 Z"/>
    <path class="cls-6" d="M 51.77 48 C 51.341 48.006 50.99 47.659 50.99 47.23 C 50.99 43.16 47.5 39.12 47.47 39.08 C 47.186 38.757 47.217 38.265 47.54 37.98 C 47.868 37.704 48.356 37.739 48.64 38.06 C 48.8 38.24 52.52 42.56 52.55 47.22 C 52.556 47.649 52.209 48 51.78 48 L 51.77 48 Z"/>
    <path class="cls-6" d="M 54.85 47.63 C 54.419 47.614 54.083 47.251 54.1 46.82 C 54.27 41.82 51.51 35.82 51.48 35.82 C 51.327 35.439 51.493 35.004 51.86 34.82 C 52.241 34.662 52.68 34.829 52.86 35.2 C 52.98 35.46 55.86 41.6 55.62 46.94 C 55.579 47.334 55.246 47.632 54.85 47.63 Z"/>
    <path class="cls-7" d="M 59.77 49.39 C 60.141 49.775 60.476 50.193 60.77 50.64 C 61.129 51.169 61.421 51.74 61.64 52.34 C 62.301 54.078 62.35 55.99 61.78 57.76 C 61.683 58.101 61.563 58.435 61.42 58.76 C 61.076 59.487 60.628 60.161 60.09 60.76 C 59.819 61.069 59.525 61.357 59.21 61.62 C 58.152 62.5 56.896 63.111 55.55 63.4 C 54.84 63.548 54.114 63.602 53.39 63.56 C 52.69 63.524 51.997 63.396 51.33 63.18 C 51.1 63.11 50.87 63.03 50.65 62.94 C 50.228 62.76 49.821 62.55 49.43 62.31 C 48.98 62.02 48.561 61.685 48.18 61.31 C 47.592 60.771 47.086 60.147 46.68 59.46 C 45.675 57.77 45.303 55.779 45.63 53.84 C 45.792 52.848 46.131 51.893 46.63 51.02 C 46.902 50.562 47.217 50.13 47.57 49.73 C 48 49.28 48.48 48.881 49 48.54 C 51.14 46.978 53.895 46.529 56.42 47.33 L 56.84 47.48 C 57.965 47.896 58.987 48.547 59.84 49.39 L 59.77 49.39 Z"/>
    <path class="cls-8" d="M 54.78 63.17 C 54.55 63.1 54.32 63.02 54.1 62.93 C 53.677 62.754 53.268 62.543 52.88 62.3 C 51.749 61.6 50.806 60.636 50.13 59.49 C 49.12 57.802 48.748 55.809 49.08 53.87 C 49.242 52.878 49.581 51.923 50.08 51.05 C 50.349 50.589 50.664 50.157 51.02 49.76 C 51.42 49.305 51.869 48.896 52.36 48.54 C 53.311 47.848 54.398 47.368 55.55 47.13 C 53.266 46.66 50.889 47.172 49 48.54 C 48.509 48.896 48.06 49.305 47.66 49.76 C 47.307 50.16 46.992 50.592 46.72 51.05 C 45.455 53.195 45.223 55.796 46.09 58.13 C 46.27 58.6 46.487 59.055 46.74 59.49 C 47.146 60.177 47.652 60.801 48.24 61.34 C 48.621 61.715 49.04 62.05 49.49 62.34 C 49.881 62.58 50.288 62.79 50.71 62.97 C 50.93 63.06 51.16 63.14 51.39 63.21 C 52.057 63.426 52.75 63.554 53.45 63.59 C 54.174 63.632 54.9 63.578 55.61 63.43 C 55.335 63.379 55.065 63.309 54.8 63.22 L 54.78 63.17 Z"/>
    <path class="cls-9" d="M 48.88 52.67 C 48.21 52.678 47.783 51.958 48.112 51.374 C 48.44 50.79 49.277 50.78 49.618 51.356 C 49.698 51.491 49.74 51.644 49.74 51.8 C 49.744 52.049 49.638 52.287 49.45 52.45 C 49.293 52.59 49.09 52.668 48.88 52.67 Z"/>
    <path class="cls-9" d="M 49.93 58.36 C 49.276 58.352 48.876 57.639 49.21 57.076 C 49.544 56.513 50.362 56.524 50.682 57.094 C 50.879 57.445 50.803 57.885 50.5 58.15 C 50.342 58.288 50.139 58.363 49.93 58.36 Z"/>
    <path class="cls-9" d="M 53.8 61 C 53.138 60.992 52.733 60.271 53.07 59.701 C 53.408 59.132 54.235 59.142 54.56 59.719 C 54.632 59.847 54.67 59.992 54.67 60.14 C 54.668 60.388 54.563 60.623 54.38 60.79 C 54.219 60.929 54.013 61.004 53.8 61 Z"/>
    <path class="cls-9" d="M 59 55 C 58.526 54.989 58.145 54.604 58.14 54.13 C 58.13 54.06 58.13 53.99 58.14 53.92 C 58.31 53.28 59.109 53.064 59.578 53.531 C 60.047 53.998 59.835 54.798 59.196 54.971 C 59.132 54.988 59.066 54.998 59 55 Z"/>
    <path class="cls-9" d="M 54.64 50.47 C 54.16 50.47 53.77 50.08 53.77 49.6 C 53.76 49.53 53.76 49.46 53.77 49.39 C 53.932 48.74 54.736 48.509 55.218 48.974 C 55.7 49.439 55.498 50.251 54.855 50.436 C 54.775 50.459 54.693 50.47 54.61 50.47 L 54.64 50.47 Z"/>
    <path class="cls-9" d="M 53 54 C 52.93 54.01 52.86 54.01 52.79 54 C 52.354 53.878 52.082 53.446 52.16 53 C 52.283 52.541 52.747 52.262 53.21 52.37 C 53.809 52.669 53.86 53.505 53.302 53.874 C 53.21 53.935 53.108 53.977 53 54 Z"/>
    <path class="cls-9" d="M 55.71 57.2 C 55.04 57.199 54.623 56.473 54.959 55.894 C 55.295 55.314 56.132 55.316 56.466 55.896 C 56.671 56.254 56.598 56.706 56.29 56.98 C 56.13 57.121 55.924 57.199 55.71 57.2 Z"/>
  </g>
</svg>