<svg xmlns="http://www.w3.org/2000/svg" version="1.1" xmlns:xlink="http://www.w3.org/1999/xlink" xmlns:svgjs="http://svgjs.dev/svgjs" viewBox="0 0 108 108" style="" x="0" y="0"><style type="text/css">
	.st0{fill:none;stroke:#708530;stroke-width:1.0633;stroke-miterlimit:10;}
	.st1{fill:#A6C339;}
	.st2{fill:#00A34B;}
	.st3{fill:#65892A;}
	.st4{fill:#718820;}
	.st5{fill:#92B83E;}
	.st6{fill:#A6BD39;}
	.st7{fill:#A5C939;}
	.st8{fill:#72AA3A;}
	.st9{fill:#6F8324;}
	.st10{fill:#F87743;}
	.st11{fill:#FFF54C;}
	.st12{fill:#F68B22;}
	.st13{fill:#A71E04;}
	.st14{fill:#D58B12;}
	.st15{fill:none;stroke:#000000;stroke-width:0.1654;stroke-miterlimit:10;}
	.st16{fill:#691912;}
	.st17{fill:none;stroke:#000000;stroke-width:0.1139;stroke-miterlimit:10;}
	.st18{fill:none;stroke:#000000;stroke-width:0.1157;stroke-miterlimit:10;}
</style><g><path class="st0" d="M70.8,74.8c-0.1-2.5-1.1-7.1-1.8-10.3"></path><path class="st0" d="M77.5,71.5c-3.4-1.3-7.7-4.4-9.8-7.7"></path><path class="st0" d="M78.7,64.9c-3.8,1.8-7,4-9.6,0.1"></path><path class="st0" d="M63.3,57.6c-4-3.1-7.9-7.3-9.4-10.9"></path><path class="st0" d="M55,60.6c0.5-5.3-1-13.3-1.2-15"></path><path class="st0" d="M62.2,50.6c-3.1,1-4.9,2.5-8-2.7"></path><path class="st1" d="M65.3,79.7c-0.3-2-1.4-2.4,2-6l3.4-3.6c0,0,0.7,0.8,1.5,1.7c0.8,0.9,4.1,3.8,2.6,7.3c-1.5,3.4-2.8,5.3-3.3,5.9
	c-0.5,0.5-1.8,2.7-2.2,3.2"></path><path class="st2" d="M89.1,80.8c-2.5-1-6,1.2-9-0.9c-3-2.1-4.7-7.3-5.4-8.8c-0.7-1.5-1.9-0.8,0.9-0.9c2.8-0.1,3-1,5.4-0.4
	c2.5,0.6,5.8,4.2,6.1,5.8C87.3,77,89.1,80.8,89.1,80.8"></path><path class="st3" d="M74.4,67c0.7,0,1.6,0.6,5.1,0.7c3.5,0.1,6.3-0.3,7-3c0.6-2.7-0.3-3.2,1.3-5l1.5-1.8c0,0-3.1-0.1-7.3,0
	c-4.3,0.1-6.2,4.4-6.8,6.2C74.6,65.9,74.4,67,74.4,67"></path><path class="st4" d="M72.4,67c0,0-1.6-1.8-5-1.8c-3.4,0-7-1.7-7-5.2c0-3.5-1.1-5.5-1.1-5.5s-0.1,0.5,2.8,0.3
	c2.9-0.2,7.1,1.8,8.2,4.7C71.5,62.4,72.4,67,72.4,67"></path><path class="st5" d="M52.3,71.6c0,0,4.3-4.3,5.6-7.3c1.3-2.9,1.7-4.7,0-6.8c-1.7-2.1-2.3-3.8-2.3-3.8s-2.4,3.6-4,4.5
	c-1.6,0.8-3.4,3.8-2.5,5.6C49.9,65.6,52.3,71.6,52.3,71.6"></path><path class="st6" d="M59,51.6c0,0.1,2.6,1.1,5.7,1.5c3.1,0.4,4.7,0.4,5.9-1.2c1.2-1.5,2-3.1,2.9-4.9c0.9-1.8,1-2.5,1.7-2.7
	c0.7-0.2-0.9,0.6-4.3-0.2c-3.4-0.8-5-1.8-6.4-0.7c-1.4,1.1-1.4,3.2-2.5,4.8C60.9,49.8,59,51.6,59,51.6"></path><path class="st0" d="M26.5,73c2.5-0.7,6.6-2.8,9.6-4.2"></path><path class="st0" d="M31.3,78.7c0.5-3.6,2.4-8.5,5-11.4"></path><path class="st0" d="M38,78.2c-2.7-3.2-5.6-5.8-2.5-9.3"></path><path class="st0" d="M41.3,61.6c2-4.7,5.1-9.4,8.3-11.8"></path><path class="st0" d="M36.4,54.3c5.2-0.8,12.7-4.2,14.3-4.8"></path><path class="st0" d="M47.8,58.8c-1.7-2.8-3.6-4.1,0.7-8.4"></path><path class="st2" d="M20.3,68.9c1.9-0.8,2-1.9,6.3,0.5l4.3,2.4c0,0-0.6,0.8-1.3,1.8c-0.7,1-2.7,4.9-6.4,4.3
	c-3.7-0.6-5.8-1.4-6.5-1.8c-0.6-0.4-3.1-1.1-3.7-1.4"></path><path class="st7" d="M25.2,92.2c0.4-2.6-2.6-5.5-1.3-8.9c1.3-3.4,5.9-6.3,7.2-7.4c1.3-1.1,0.3-2.1,1.1,0.6c0.7,2.7,1.7,2.6,1.7,5.2
	c0,2.5-2.7,6.7-4.1,7.3C28.4,89.6,25.2,92.2,25.2,92.2"></path><path class="st3" d="M34.9,74.6c0.2,0.7-0.2,1.7,0.6,5.1c0.8,3.5,1.9,6.1,4.7,6c2.8-0.1,3.1-1,5.2,0l2.1,1c0,0-0.7-3-1.8-7.1
	c-1.2-4.1-5.8-5-7.7-5C36.1,74.6,34.9,74.6,34.9,74.6"></path><path class="st4" d="M34.4,72.7c0,0,1.4-2,0.5-5.3c-0.8-3.3-0.1-7.2,3.3-8.1c3.4-0.9,5.1-2.5,5.1-2.5s-0.5,0.1,0.4,2.8
	c0.9,2.8,0,7.3-2.5,9.1C38.7,70.7,34.4,72.7,34.4,72.7"></path><path class="st5" d="M25.1,54.3c0,0,5.3,3.1,8.4,3.7c3.2,0.6,4.9,0.5,6.5-1.7c1.6-2.2,3.1-3.2,3.1-3.2s-4.1-1.5-5.3-2.8
	c-1.2-1.3-4.5-2.3-6-1.1S25.1,54.3,25.1,54.3"></path><path class="st6" d="M46.1,56c-0.1,0-0.5,2.8-0.1,5.9c0.4,3.1,0.8,4.7,2.6,5.5c1.8,0.8,3.5,1.2,5.5,1.6c1.9,0.4,2.7,0.3,3,1
	c0.3,0.6-0.8-0.7-0.8-4.2c0-3.5,0.5-5.3-0.9-6.4C54,58.2,52,58.7,50.1,58C48.2,57.3,46.1,56,46.1,56"></path><path class="st0" d="M33.8,29.6c0.8,2.4,3.1,6.5,4.7,9.4"></path><path class="st0" d="M28.4,34.7C32,35.1,37,36.7,40,39.2"></path><path class="st0" d="M29.2,41.4c3.1-2.9,5.5-5.8,9.1-3"></path><path class="st0" d="M46,43.8c4.8,1.8,9.7,4.6,12.2,7.7"></path><path class="st0" d="M53,38.5c1.1,5.2,4.8,12.5,5.5,14"></path><path class="st0" d="M49.1,50.2c2.7-1.9,3.9-3.8,8.4,0.2"></path><path class="st1" d="M37.6,23.3c0.9,1.8,2,1.9-0.2,6.4l-2.2,4.4c0,0-0.9-0.5-1.9-1.2c-1-0.6-5.1-2.5-4.6-6.2
	c0.4-3.7,1.1-5.9,1.4-6.6c0.3-0.7,1-3.1,1.2-3.7"></path><path class="st2" d="M14.6,29.3c2.7,0.3,5.4-2.9,8.9-1.8c3.5,1.1,6.6,5.6,7.7,6.8c1.1,1.2,2.1,0.2-0.6,1.1c-2.7,0.9-2.6,1.8-5.1,2
	c-2.5,0.2-6.8-2.3-7.5-3.7C17.4,32.3,14.6,29.3,14.6,29.3"></path><path class="st3" d="M32.7,38.1C32,38.3,31,38,27.6,39c-3.4,1-6,2.2-5.8,4.9c0.2,2.8,1.2,3,0.3,5.2l-0.9,2.1c0,0,2.9-0.8,7-2.2
	c4-1.4,4.7-6.1,4.6-7.9C32.8,39.3,32.7,38.1,32.7,38.1"></path><path class="st4" d="M34.5,37.5c0,0,2.1,1.3,5.3,0.3c3.2-1,7.2-0.5,8.2,2.9c1,3.4,2.7,4.9,2.7,4.9s-0.1-0.5-2.8,0.6
	c-2.7,1.1-7.3,0.4-9.2-2.1C36.8,41.7,34.5,37.5,34.5,37.5"></path><path class="st5" d="M52.4,27.3c0,0-2.9,5.4-3.3,8.6c-0.4,3.2-0.2,5,2,6.5c2.2,1.5,3.3,2.9,3.3,2.9s1.3-4.2,2.5-5.5
	c1.3-1.3,2.1-4.6,0.8-6.1C56.5,32.3,52.4,27.3,52.4,27.3"></path><path class="st6" d="M51.9,48.4c0-0.1-2.8-0.3-5.8,0.2c-3,0.5-4.6,1.1-5.3,2.9c-0.7,1.8-1,3.6-1.3,5.6c-0.3,2-0.2,2.7-0.8,3.1
	c-0.6,0.4,0.7-0.9,4.2-1c3.5-0.2,5.3,0.2,6.3-1.3c1-1.5,0.4-3.4,1-5.3C50.6,50.6,51.9,48.4,51.9,48.4"></path><path class="st0" d="M78.8,35.5c-2.5,0.4-6.9,2.1-10,3.2"></path><path class="st0" d="M74.6,29.3c-0.9,3.5-3.3,8.2-6.2,10.8"></path><path class="st0" d="M67.9,29.1c2.4,3.5,4.9,6.3,1.5,9.5"></path><path class="st0" d="M62.9,45.3c-2.5,4.4-6.1,8.8-9.5,10.8"></path><path class="st0" d="M67,53.1c-5.3,0.3-13.1,2.8-14.7,3.3"></path><path class="st0" d="M56.1,47.4c1.4,3,3.2,4.5-1.5,8.3"></path><path class="st1" d="M84.5,40.2c-2,0.6-2.2,1.7-6.3-1.2l-4-2.8c0,0,0.7-0.8,1.4-1.7c0.8-0.9,3.2-4.6,6.8-3.6c3.6,1,5.7,2,6.3,2.4
	c0.6,0.4,2.9,1.4,3.5,1.7"></path><path class="st7" d="M82.1,16.5c-0.7,2.6,2,5.8,0.4,9c-1.7,3.3-6.5,5.7-7.9,6.6c-1.4,0.9-0.6,2-1-0.8c-0.5-2.8-1.4-2.8-1.2-5.3
	c0.2-2.5,3.4-6.4,4.8-6.8C78.7,18.8,82.1,16.5,82.1,16.5"></path><path class="st2" d="M70.6,33.1c-0.1-0.7,0.4-1.6-0.1-5.1c-0.4-3.5-1.2-6.2-4-6.5c-2.8-0.2-3.2,0.7-5.2-0.5l-2-1.3c0,0,0.3,3,1,7.2
	c0.7,4.2,5.3,5.6,7.1,5.8C69.4,33,70.6,33.1,70.6,33.1"></path><path class="st4" d="M70.9,34.9c0,0-1.6,1.9-1.1,5.2c0.5,3.3-0.7,7.2-4.2,7.7c-3.5,0.5-5.3,1.9-5.3,1.9s0.5,0-0.1-2.9
	c-0.6-2.9,0.8-7.2,3.5-8.8C66.4,36.5,70.9,34.9,70.9,34.9"></path><path class="st5" d="M78.2,54.3c0,0-4.9-3.7-8-4.6c-3.1-0.9-4.9-1-6.7,1c-1.8,2-3.4,2.8-3.4,2.8s3.9,1.9,5,3.4
	c1.1,1.5,4.2,2.8,5.9,1.7C72.7,57.5,78.2,54.3,78.2,54.3"></path><path class="st6" d="M57.5,50.4c0.1,0,0.8-2.7,0.7-5.8c-0.1-3.1-0.3-4.7-2-5.7c-1.7-1-3.4-1.6-5.3-2.2c-1.9-0.6-2.6-0.6-2.9-1.3
	c-0.3-0.7,0.7,0.8,0.4,4.3c-0.4,3.5-1,5.2,0.3,6.5c1.3,1.2,3.3,0.9,5.1,1.8C55.5,48.9,57.5,50.4,57.5,50.4"></path><path class="st8" d="M53.9,63.5c-0.1-2.5-1.1-7.1-1.8-10.3"></path><path class="st8" d="M60.7,60.3c-3.4-1.3-7.7-4.4-9.8-7.7"></path><path class="st8" d="M61.8,53.7c-3.8,1.8-7,4-9.6,0.1"></path><path class="st8" d="M46.5,46.4c-4-3.1-7.9-7.3-9.4-10.9"></path><path class="st8" d="M38.2,49.4c0.5-5.3-1-13.3-1.2-15"></path><path class="st8" d="M45.3,39.4c-3.1,1-4.9,2.5-8-2.7"></path><path class="st8" d="M48.5,68.5c-0.3-2-1.4-2.4,2-6l3.4-3.6c0,0,0.7,0.8,1.5,1.7c0.8,0.9,4.1,3.8,2.6,7.3c-1.5,3.4-2.8,5.3-3.3,5.9
	c-0.5,0.5-1.8,2.7-2.2,3.2"></path><path class="st8" d="M72.2,69.5c-2.5-1-6,1.2-9-0.9c-3-2.1-4.7-7.3-5.4-8.8c-0.7-1.5-1.9-0.8,0.9-0.9c2.8-0.1,3-1,5.4-0.4
	c2.5,0.6,5.8,4.2,6.1,5.8C70.5,65.8,72.2,69.5,72.2,69.5"></path><path class="st8" d="M57.5,55.8c0.7,0,1.6,0.6,5.1,0.7c3.6,0.1,6.3-0.3,7-3c0.6-2.7-0.3-3.2,1.3-5l1.5-1.8c0,0-3.1-0.1-7.3,0
	c-4.3,0.1-6.2,4.4-6.8,6.2C57.8,54.7,57.5,55.8,57.5,55.8"></path><path class="st8" d="M55.6,55.8c0,0-1.6-1.8-5-1.8c-3.4,0-7-1.7-7-5.2c0-3.5-1.1-5.5-1.1-5.5s-0.1,0.5,2.8,0.3
	c2.9-0.2,7.1,1.8,8.2,4.7C54.7,51.1,55.6,55.8,55.6,55.8"></path><path class="st8" d="M35.5,60.3c0,0,4.3-4.3,5.6-7.3c1.3-2.9,1.7-4.7,0-6.8c-1.7-2.1-2.3-3.8-2.3-3.8s-2.4,3.6-4,4.5
	c-1.6,0.8-3.4,3.8-2.5,5.6C33.1,54.4,35.5,60.3,35.5,60.3"></path><path class="st8" d="M42.2,40.4c0,0.1,2.6,1.1,5.7,1.5c3.1,0.4,4.7,0.4,5.9-1.2c1.2-1.5,2-3.1,2.9-4.9c0.9-1.8,1-2.5,1.7-2.7
	c0.7-0.2-0.9,0.6-4.3-0.2c-3.4-0.8-5-1.8-6.4-0.7c-1.4,1.1-1.4,3.2-2.5,4.8C44,38.6,42.2,40.4,42.2,40.4"></path><path class="st0" d="M83.3,55.9c-2-1.6-6.2-3.7-9.1-5.2"></path><path class="st0" d="M85.1,48.6c-3.2,1.7-8.3,3.1-12.1,2.7"></path><path class="st0" d="M80.7,43.5c-1,4.1-1.4,7.9-6,7.5"></path><path class="st0" d="M65.4,50.7c-5,1.1-10.6,1.5-14.4,0.3"></path><path class="st0" d="M62.4,59c-3.8-3.7-10.9-7.7-12.3-8.6"></path><path class="st0" d="M59.2,47.1c-1.2,3-1.2,5.4-7.1,4.4"></path><path class="st1" d="M83.7,63.3c-1.8-1-2.7-0.5-3.4-5.4L79.7,53c0,0,1,0,2.2-0.1c1.2,0,5.6-0.7,7.3,2.6c1.7,3.3,2.3,5.5,2.4,6.3
	c0.1,0.7,0.9,3.1,1.1,3.8"></path><path class="st2" d="M99.6,45.5c-2.4,1.2-2.9,5.4-6.4,6.4c-3.5,1-8.6-1-10.2-1.4c-1.6-0.4-1.9,1-0.1-1.3c1.8-2.2,1.1-2.9,3.1-4.5
	c2-1.5,7-1.8,8.3-1C95.6,44.5,99.6,45.5,99.6,45.5"></path><path class="st3" d="M79.6,48.2c0.5-0.6,1.5-0.8,3.7-3.5c2.3-2.7,3.8-5.1,2.1-7.3c-1.7-2.2-2.7-1.9-3.1-4.2L82,30.8
	c0,0-2,2.3-4.6,5.7c-2.6,3.4-0.6,7.6,0.5,9.2C78.9,47.2,79.6,48.2,79.6,48.2"></path><path class="st4" d="M78.5,49.7c0,0-2.4,0.1-4.6,2.7c-2.1,2.6-5.8,4.4-8.5,2.1c-2.7-2.3-5-2.6-5-2.6s0.3,0.4,2-2
	c1.7-2.4,5.9-4.3,8.8-3.4C74.2,47.4,78.5,49.7,78.5,49.7"></path><path class="st5" d="M69.1,68.1c0,0-0.6-6.1-2-9c-1.4-2.9-2.5-4.3-5.2-4.3c-2.7,0-4.4-0.6-4.4-0.6s1.3,4.2,0.9,5.9
	c-0.4,1.8,0.8,5,2.7,5.5C63,66.1,69.1,68.1,69.1,68.1"></path><path class="st6" d="M58,50.2c0,0,2.5-1.3,4.8-3.4c2.2-2.1,3.3-3.4,2.9-5.3c-0.4-1.9-1.1-3.6-2-5.4c-0.8-1.8-1.3-2.3-1-3
	c0.3-0.7-0.1,1.1-2.9,3.2c-2.8,2.1-4.6,2.7-4.6,4.5c0,1.8,1.6,3.1,2.1,5C57.8,47.7,58,50.2,58,50.2"></path><path class="st0" d="M53.9,88.9c1-2.3,2.1-6.9,2.8-10.1"></path><path class="st0" d="M61.4,88.8c-2.5-2.7-5.1-7.2-5.6-11.1"></path><path class="st0" d="M65.2,83.4c-4.2,0-8,0.6-8.7-4"></path><path class="st0" d="M54.4,70.2c-2.3-4.5-4-9.9-3.8-13.9"></path><path class="st0" d="M45.7,69.4c2.7-4.6,4.8-12.5,5.3-14.1"></path><path class="st0" d="M56.4,63.4c-3.2-0.4-5.5,0.2-6.1-5.8"></path><path class="st2" d="M46.8,91.1c0.6-2-0.2-2.8,4.4-4.6l4.6-1.8c0,0,0.3,1,0.6,2.1c0.3,1.1,2.1,5.2-0.7,7.7c-2.8,2.5-4.8,3.6-5.5,3.9
	c-0.7,0.3-2.8,1.7-3.4,2"></path><path class="st7" d="M67.9,102.2c-1.8-2-5.9-1.5-7.7-4.7c-1.8-3.2-1.1-8.6-1.1-10.2c0-1.7-1.4-1.6,1.2-0.4c2.6,1.2,3.1,0.4,5.1,1.9
	c2,1.6,3.5,6.3,3,7.8C67.8,98,67.9,102.2,67.9,102.2"></path><path class="st3" d="M60.4,83.4c0.7,0.3,1.2,1.2,4.3,2.8c3.2,1.6,5.9,2.4,7.6,0.2c1.7-2.2,1.2-3,3.3-4l2.1-1c0,0-2.7-1.4-6.6-3.1
	c-3.9-1.7-7.5,1.3-8.8,2.7C61.1,82.5,60.4,83.4,60.4,83.4"></path><path class="st4" d="M58.7,82.7c0,0-0.7-2.3-3.7-3.8c-3-1.4-5.6-4.5-4.1-7.7c1.5-3.2,1.3-5.5,1.3-5.5s-0.3,0.4,2.5,1.5
	c2.7,1,5.6,4.6,5.4,7.7C59.8,78,58.7,82.7,58.7,82.7"></path><path class="st5" d="M38.5,78.1c0,0,5.7-2.1,8.2-4.2c2.4-2.1,3.5-3.5,2.9-6.1c-0.7-2.6-0.5-4.4-0.5-4.4s-3.7,2.2-5.5,2.3
	c-1.8,0.1-4.7,2-4.6,4S38.5,78.1,38.5,78.1"></path><path class="st6" d="M53.2,63c0,0.1,1.9,2.1,4.5,3.8c2.6,1.6,4.1,2.3,5.9,1.5c1.7-0.9,3.2-2,4.7-3.2c1.5-1.2,1.9-1.9,2.7-1.7
	c0.7,0.2-1.1,0.2-3.8-2c-2.7-2.2-3.8-3.7-5.5-3.3c-1.7,0.4-2.6,2.3-4.3,3.3C55.5,62.1,53.2,63,53.2,63"></path><path class="st0" d="M25,55.7c2.4,0.9,7,1.7,10.2,2.3"></path><path class="st0" d="M25.5,63.2c2.5-2.6,7-5.4,10.8-6.1"></path><path class="st0" d="M31.2,66.7c-0.2-4.2-1-8,3.5-8.9"></path><path class="st0" d="M43.7,55.3c4.4-2.5,9.7-4.5,13.7-4.5"></path><path class="st0" d="M44.1,46.5c4.7,2.4,12.7,4.2,14.3,4.6"></path><path class="st0" d="M50.7,57c0.3-3.3-0.4-5.5,5.5-6.4"></path><path class="st1" d="M22.5,48.7c2,0.5,2.8-0.3,4.8,4.2l2,4.5c0,0-1,0.3-2.1,0.7c-1.1,0.4-5.1,2.4-7.7-0.4c-2.6-2.7-3.8-4.6-4.2-5.3
	c-0.3-0.7-1.8-2.7-2.1-3.3"></path><path class="st2" d="M12.5,70.3c1.9-1.9,1.2-6,4.3-8c3.1-2,8.5-1.6,10.2-1.7c1.7-0.1,1.5-1.5,0.5,1.2c-1,2.6-0.2,3.1-1.7,5.2
	c-1.5,2-6.1,3.8-7.6,3.4C16.7,70.1,12.5,70.3,12.5,70.3"></path><path class="st3" d="M30.8,62c-0.3,0.7-1.1,1.2-2.6,4.5c-1.4,3.3-2.1,6,0.2,7.6c2.3,1.6,3.1,1,4.2,3.1l1.1,2.1c0,0,1.3-2.8,2.8-6.8
	c1.5-4-1.7-7.5-3.2-8.6C31.8,62.6,30.8,62,30.8,62"></path><path class="st4" d="M31.5,60.2c0,0,2.3-0.8,3.6-3.9c1.3-3.1,4.2-5.9,7.5-4.5c3.3,1.4,5.5,1,5.5,1s-0.4-0.3-1.3,2.5
	c-0.9,2.8-4.3,5.9-7.5,5.8C36.2,61.1,31.5,60.2,31.5,60.2"></path><path class="st5" d="M35.1,39.8c0,0,2.4,5.6,4.6,8c2.2,2.3,3.7,3.3,6.3,2.5c2.6-0.8,4.4-0.7,4.4-0.7s-2.4-3.6-2.6-5.4
	c-0.2-1.8-2.2-4.6-4.2-4.4C41.5,39.9,35.1,39.8,35.1,39.8"></path><path class="st6" d="M50.9,53.7c-0.1,0-2,2-3.5,4.7c-1.5,2.7-2.1,4.2-1.2,5.9c1,1.7,2.1,3.1,3.5,4.5c1.3,1.5,2,1.9,1.8,2.6
	c-0.1,0.7-0.2-1.1,1.8-3.9c2.1-2.8,3.5-4,3.1-5.7c-0.5-1.7-2.4-2.5-3.5-4.1C51.9,56,50.9,53.7,50.9,53.7"></path><path class="st0" d="M58.1,24.7c-1.3,2.2-2.8,6.6-3.9,9.7"></path><path class="st0" d="M50.7,24c2.2,2.9,4.3,7.7,4.4,11.6"></path><path class="st0" d="M46.3,29.1c4.2,0.4,8,0.2,8.3,4.9"></path><path class="st0" d="M55.6,43.2c1.8,4.8,2.9,10.3,2.3,14.2"></path><path class="st0" d="M64.2,45c-3.1,4.3-6.1,11.9-6.8,13.4"></path><path class="st0" d="M52.9,49.8c3.2,0.8,5.5,0.4,5.4,6.4"></path><path class="st1" d="M65.4,23.3c-0.8,1.9-0.1,2.8-4.9,4.1l-4.7,1.3c0,0-0.2-1-0.4-2.2c-0.2-1.2-1.5-5.4,1.5-7.6
	c3.1-2.2,5.2-3.1,5.9-3.3c0.7-0.2,3-1.4,3.6-1.6"></path><path class="st7" d="M45.6,10.1c1.6,2.2,5.7,2.1,7.2,5.4c1.5,3.3,0.2,8.7,0.1,10.3c-0.2,1.6,1.2,1.7-1.2,0.3
	c-2.4-1.4-3.1-0.7-4.9-2.5C45,21.9,44,17,44.6,15.6C45.2,14.2,45.6,10.1,45.6,10.1"></path><path class="st2" d="M51,29.5c-0.6-0.4-1-1.3-4-3.2c-3-1.9-5.6-3-7.5-1c-1.9,2-1.5,2.9-3.7,3.6l-2.2,0.7c0,0,2.6,1.7,6.3,3.8
	c3.7,2.1,7.6-0.5,9-1.8C50.2,30.3,51,29.5,51,29.5"></path><path class="st4" d="M52.7,30.5c0,0,0.5,2.4,3.3,4.2c2.9,1.8,5.1,5.1,3.3,8.1c-1.8,3-1.9,5.3-1.9,5.3s0.3-0.4-2.3-1.7
	C52.5,45,50,41.1,50.5,38C51,34.9,52.7,30.5,52.7,30.5"></path><path class="st5" d="M72.2,37.1c0,0-5.9,1.4-8.6,3.3c-2.7,1.8-3.9,3.1-3.5,5.8c0.4,2.7,0.1,4.4,0.1,4.4s4-1.8,5.8-1.7
	c1.8,0.1,4.8-1.5,5-3.5C71.2,43.4,72.2,37.1,72.2,37.1"></path><path class="st6" d="M56.1,50.6c0-0.1-1.6-2.3-4.1-4.2c-2.4-1.9-3.9-2.8-5.7-2.1C44.5,45,43,46,41.3,47c-1.7,1.1-2.1,1.6-2.8,1.4
	c-0.7-0.2,1.1-0.1,3.5,2.4c2.5,2.5,3.4,4.1,5.1,3.9c1.8-0.2,2.8-2,4.6-2.8C53.6,51.2,56.1,50.6,56.1,50.6"></path><path class="st8" d="M64,61.7c-2-1.6-6.2-3.7-9.1-5.2"></path><path class="st8" d="M65.7,54.4c-3.2,1.7-8.3,3.1-12.1,2.7"></path><path class="st8" d="M61.4,49.4c-1,4.1-1.4,7.9-6,7.5"></path><path class="st8" d="M46,56.6c-5,1.1-10.6,1.5-14.4,0.3"></path><path class="st8" d="M43.1,64.9c-3.8-3.7-10.9-7.7-12.3-8.6"></path><path class="st8" d="M39.9,53c-1.2,3-1.2,5.4-7.1,4.4"></path><path class="st8" d="M64.3,69.1c-1.8-1-2.7-0.5-3.4-5.4l-0.6-4.9c0,0,1,0,2.2-0.1c1.2,0,5.6-0.7,7.3,2.6c1.7,3.3,2.3,5.5,2.4,6.3
	c0.1,0.7,0.9,3.1,1.1,3.8"></path><path class="st8" d="M80.3,51.4c-2.4,1.2-2.9,5.4-6.4,6.4c-3.5,1-8.6-1-10.2-1.4c-1.6-0.4-1.9,1-0.1-1.3c1.8-2.2,1.1-2.9,3.1-4.5
	c2-1.5,7-1.8,8.3-1C76.2,50.4,80.3,51.4,80.3,51.4"></path><path class="st8" d="M60.3,54c0.5-0.6,1.5-0.8,3.7-3.5c2.3-2.7,3.8-5.1,2.1-7.3C64.4,41,63.5,41.3,63,39l-0.4-2.3c0,0-2,2.3-4.6,5.7
	c-2.6,3.4-0.6,7.6,0.5,9.2C59.6,53.1,60.3,54,60.3,54"></path><path class="st8" d="M59.1,55.5c0,0-2.4,0.1-4.6,2.7c-2.1,2.6-5.8,4.4-8.5,2.1c-2.7-2.3-5-2.6-5-2.6s0.3,0.4,2-2
	c1.7-2.4,5.9-4.3,8.8-3.4C54.9,53.3,59.1,55.5,59.1,55.5"></path><path class="st8" d="M49.8,73.9c0,0-0.6-6.1-2-9c-1.4-2.9-2.5-4.3-5.2-4.3c-2.7,0-4.4-0.6-4.4-0.6s1.3,4.2,0.9,5.9
	c-0.4,1.8,0.8,5,2.7,5.5C43.6,72,49.8,73.9,49.8,73.9"></path><path class="st8" d="M38.6,56c0,0,2.5-1.3,4.8-3.4c2.2-2.1,3.3-3.4,2.9-5.3c-0.4-1.9-1.1-3.6-2-5.4c-0.8-1.8-1.3-2.3-1-3
	c0.3-0.7-0.1,1.1-2.9,3.2c-2.8,2.1-4.6,2.7-4.6,4.5c0,1.8,1.6,3.1,2.1,5C38.4,53.5,38.6,56,38.6,56"></path><path class="st0" d="M77,67.4c-1.1-2.3-3.8-6.1-5.7-8.8"></path><path class="st0" d="M81.8,61.7c-3.6,0.1-8.8-1-12-3.1"></path><path class="st0" d="M80.3,55.2c-2.8,3.2-4.8,6.4-8.8,4"></path><path class="st0" d="M63.3,54.6c-4.9-1.3-10.1-3.5-12.9-6.3"></path><path class="st0" d="M56.9,60.7c-1.7-5-6.2-11.9-7-13.3"></path><path class="st0" d="M59.5,48.6c-2.5,2.1-3.5,4.2-8.4,0.7"></path><path class="st1" d="M73.9,74.1c-1.1-1.7-2.2-1.7-0.5-6.3l1.7-4.6c0,0,0.9,0.4,2,0.9c1.1,0.5,5.3,1.9,5.3,5.6c0,3.8-0.5,6-0.7,6.7
	c-0.3,0.7-0.6,3.2-0.7,3.8"></path><path class="st2" d="M96.2,65.6c-2.7,0-5,3.5-8.6,2.7c-3.6-0.7-7.2-4.8-8.4-5.9c-1.2-1.1-2.1,0,0.5-1.2c2.6-1.2,2.3-2.1,4.8-2.5
	c2.5-0.4,7,1.6,7.9,2.9C93,62.9,96.2,65.6,96.2,65.6"></path><path class="st3" d="M77.2,58.8c0.7-0.3,1.7-0.1,4.9-1.4c3.3-1.4,5.7-2.8,5.2-5.6c-0.5-2.7-1.5-2.9-0.8-5.1l0.7-2.2
	c0,0-2.8,1.1-6.7,2.9c-3.9,1.8-4,6.5-3.7,8.4C77,57.7,77.2,58.8,77.2,58.8"></path><path class="st4" d="M75.4,59.6c0,0-2.2-1-5.3,0.3c-3.1,1.3-7.1,1.3-8.5-2c-1.4-3.3-3.2-4.6-3.2-4.6s0.1,0.5,2.7-0.9
	c2.6-1.4,7.2-1.2,9.4,1C72.7,55.7,75.4,59.6,75.4,59.6"></path><path class="st5" d="M58.7,71.8c0,0,2.2-5.7,2.3-8.9c0-3.2-0.3-5-2.7-6.2c-2.4-1.2-3.6-2.5-3.6-2.5s-0.8,4.3-1.9,5.7
	c-1.1,1.4-1.6,4.8-0.1,6.1C54.2,67.3,58.7,71.8,58.7,71.8"></path><path class="st6" d="M57,50.8c0,0,2.8,0,5.8-0.9c3-0.9,4.5-1.6,5-3.4c0.5-1.9,0.6-3.7,0.7-5.7c0.1-2-0.1-2.7,0.5-3.1
	c0.6-0.4-0.6,0.9-4,1.5c-3.4,0.6-5.3,0.4-6.2,1.9c-0.9,1.6,0,3.4-0.4,5.4C58,48.5,57,50.8,57,50.8"></path><path class="st0" d="M35.7,83.4c2-1.6,5-5.2,7.1-7.7"></path><path class="st0" d="M42.4,86.7c-1-3.5-1.2-8.7,0.1-12.4"></path><path class="st0" d="M48.3,83.6c-3.8-1.9-7.4-3.1-6-7.5"></path><path class="st0" d="M44.7,67c0-5.1,1-10.7,2.9-14.1"></path><path class="st0" d="M37.3,62.3c4.5-2.9,10-8.9,11.2-10.1"></path><path class="st0" d="M49.6,61.8c-2.7-1.9-5-2.4-2.7-8"></path><path class="st2" d="M28.4,82.1c1.4-1.5,1.1-2.6,6-2.1l4.9,0.5c0,0-0.2,1-0.4,2.2c-0.2,1.2-0.5,5.6-4.2,6.5c-3.6,0.9-5.9,1-6.7,0.9
	c-0.7-0.1-3.3,0.2-3.9,0.2"></path><path class="st7" d="M42.1,101.5c-0.7-2.6-4.6-4-4.8-7.7c-0.2-3.6,2.9-8.2,3.7-9.6c0.7-1.5-0.5-2,1.3,0.2c1.8,2.2,2.6,1.7,3.6,4
	c1,2.3,0.2,7.2-0.9,8.3C44,97.8,42.1,101.5,42.1,101.5"></path><path class="st3" d="M44,81.5c0.5,0.6,0.5,1.6,2.6,4.4c2.1,2.8,4.1,4.8,6.7,3.7c2.5-1.2,2.4-2.2,4.8-2.1l2.3,0.1
	c0,0-1.8-2.5-4.5-5.8c-2.7-3.3-7.3-2.3-9.1-1.6C45,81,44,81.5,44,81.5"></path><path class="st4" d="M42.8,80c0,0,0.4-2.4-1.6-5.1c-2-2.7-3-6.6-0.2-8.7c2.8-2.2,3.7-4.3,3.7-4.3s-0.4,0.3,1.5,2.4
	c2,2.2,2.9,6.7,1.3,9.4C45.9,76.4,42.8,80,42.8,80"></path><path class="st5" d="M26.9,66.8c0,0,6.1,0.8,9.2,0c3.1-0.7,4.7-1.5,5.3-4.1c0.6-2.6,1.5-4.1,1.5-4.1s-4.4,0.3-6-0.5
	c-1.6-0.7-5.1-0.3-5.9,1.4S26.9,66.8,26.9,66.8"></path><path class="st6" d="M46.9,59.9c0,0,0.7,2.7,2.3,5.4c1.6,2.7,2.6,4,4.6,4c2,0,3.7-0.3,5.7-0.7c1.9-0.4,2.6-0.8,3.1-0.3
	c0.6,0.5-1-0.3-2.4-3.5c-1.4-3.2-1.7-5.1-3.4-5.5c-1.7-0.4-3.3,0.8-5.3,0.9C49.4,60.3,46.9,59.9,46.9,59.9"></path><path class="st0" d="M25.2,40.7c1.7,1.9,5.4,4.7,8,6.7"></path><path class="st0" d="M22.2,47.5c3.4-1.2,8.7-1.6,12.4-0.5"></path><path class="st0" d="M25.6,53.3c1.7-3.9,2.7-7.5,7.2-6.3"></path><path class="st0" d="M41.9,48.9c5.1-0.2,10.7,0.4,14.2,2.2"></path><path class="st0" d="M46.3,41.2c3.1,4.3,9.4,9.5,10.6,10.7"></path><path class="st0" d="M47.4,53.5c1.7-2.8,2.1-5.1,7.8-3.1"></path><path class="st1" d="M26.1,33.3c1.6,1.3,2.6,1,2.4,5.9l-0.2,4.9c0,0-1-0.2-2.2-0.3c-1.2-0.2-5.6-0.2-6.7-3.8
	c-1.1-3.6-1.3-5.9-1.3-6.6c0-0.7-0.4-3.2-0.4-3.9"></path><path class="st2" d="M7.3,48c2.5-0.8,3.8-4.8,7.4-5.1c3.6-0.3,8.3,2.5,9.8,3.2c1.5,0.7,2-0.6-0.1,1.3c-2.1,1.9-1.6,2.7-3.9,3.8
	c-2.2,1.1-7.2,0.6-8.3-0.4C11.1,49.7,7.3,48,7.3,48"></path><path class="st3" d="M27.5,48.9c-0.6,0.5-1.6,0.6-4.3,2.8c-2.7,2.3-4.6,4.4-3.3,6.8c1.3,2.5,2.3,2.3,2.3,4.6l0,2.3
	c0,0,2.4-1.9,5.5-4.8c3.2-2.8,1.9-7.4,1.1-9.1C28,49.9,27.5,48.9,27.5,48.9"></path><path class="st4" d="M28.9,47.6c0,0,2.4,0.3,5-1.8c2.6-2.2,6.4-3.3,8.7-0.6c2.3,2.7,4.4,3.4,4.4,3.4s-0.3-0.4-2.3,1.6
	c-2.1,2.1-6.5,3.2-9.3,1.8C32.6,50.6,28.9,47.6,28.9,47.6"></path><path class="st5" d="M41.3,31.1c0,0-0.5,6.1,0.4,9.2c0.9,3.1,1.8,4.6,4.4,5.1c2.7,0.5,4.2,1.3,4.2,1.3s-0.5-4.3,0.2-6
	c0.7-1.7,0.1-5.1-1.7-5.9C47,34.1,41.3,31.1,41.3,31.1"></path><path class="st6" d="M49.1,50.7c0,0-2.7,0.8-5.3,2.5C41.3,54.9,40,56,40.1,58c0.1,2,0.5,3.7,1,5.6c0.5,1.9,0.9,2.5,0.5,3.1
	c-0.4,0.6,0.3-1.1,3.4-2.6c3.1-1.6,5-1.9,5.3-3.7c0.4-1.8-1-3.3-1.2-5.3C48.9,53.2,49.1,50.7,49.1,50.7"></path><path class="st0" d="M68.7,28.2c-2.1,1.4-5.5,4.6-7.9,6.9"></path><path class="st0" d="M62.4,24.2C63,27.7,62.7,33,61,36.5"></path><path class="st0" d="M56.2,26.6c3.6,2.3,7,3.9,5.1,8.1"></path><path class="st0" d="M58,43.5c-0.5,5.1-2.1,10.5-4.4,13.7"></path><path class="st0" d="M64.9,49c-4.7,2.4-10.9,7.8-12.2,8.8"></path><path class="st0" d="M52.6,48.1c2.5,2.2,4.7,2.9,1.9,8.2"></path><path class="st1" d="M75.8,30.3c-1.6,1.3-1.4,2.4-6.2,1.4l-4.8-1c0,0,0.3-1,0.7-2.1c0.3-1.1,1.1-5.5,4.8-6c3.7-0.5,6-0.4,6.7-0.2
	c0.7,0.2,3.3,0.2,3.9,0.2"></path><path class="st7" d="M64.3,9.4c0.4,2.6,4.2,4.5,3.9,8.1c-0.2,3.6-3.7,7.8-4.6,9.2c-0.9,1.4,0.3,2.1-1.2-0.3c-1.5-2.4-2.4-2-3.2-4.4
	c-0.8-2.4,0.6-7.2,1.7-8.2C62,12.9,64.3,9.4,64.3,9.4"></path><path class="st2" d="M60.2,29.2c-0.4-0.6-0.3-1.6-2.1-4.7c-1.8-3.1-3.6-5.2-6.2-4.3c-2.6,0.9-2.6,1.9-5,1.5l-2.3-0.4
	c0,0,1.5,2.7,3.8,6.2c2.3,3.6,7,3,8.9,2.5C59.1,29.5,60.2,29.2,60.2,29.2"></path><path class="st4" d="M61.3,30.8c0,0-0.7,2.3,1.1,5.2c1.7,2.9,2.3,6.9-0.8,8.7c-3,1.9-4.1,3.9-4.1,3.9s0.5-0.2-1.3-2.6
	c-1.7-2.4-2.2-6.9-0.3-9.5C57.7,34,61.3,30.8,61.3,30.8"></path><path class="st5" d="M75.6,45.6c0,0-5.9-1.4-9.1-1c-3.2,0.4-4.9,1-5.7,3.6c-0.9,2.5-2,4-2,4s4.4,0.2,5.9,1.1c1.6,0.9,5,0.9,6.1-0.8
	C71.8,50.8,75.6,45.6,75.6,45.6"></path><path class="st6" d="M55.1,50.3c0,0-0.4-2.8-1.7-5.6c-1.3-2.8-2.2-4.2-4.1-4.4c-1.9-0.2-3.7-0.1-5.7,0.1c-2,0.2-2.6,0.5-3.2,0
	c-0.5-0.5,1,0.4,2.1,3.8c1.1,3.3,1.1,5.2,2.8,5.8c1.7,0.6,3.4-0.5,5.4-0.4C52.7,49.7,55.1,50.3,55.1,50.3"></path><path class="st8" d="M57.1,63.8c-1.1-2.3-3.8-6.1-5.7-8.8"></path><path class="st8" d="M61.9,58.1c-3.6,0.1-8.8-1-12-3.1"></path><path class="st8" d="M60.4,51.6c-2.8,3.2-4.8,6.4-8.8,4"></path><path class="st8" d="M43.4,51c-4.9-1.3-10.1-3.5-12.9-6.3"></path><path class="st8" d="M37,57.1c-1.7-5-6.2-11.9-7-13.3"></path><path class="st8" d="M39.6,45c-2.5,2.1-3.5,4.2-8.4,0.7"></path><path class="st8" d="M54,70.5c-1.1-1.7-2.2-1.7-0.5-6.3l1.7-4.6c0,0,0.9,0.4,2,0.9c1.1,0.5,5.3,1.9,5.3,5.6c0,3.8-0.5,6-0.7,6.7
	c-0.3,0.7-0.6,3.2-0.8,3.8"></path><path class="st8" d="M76.2,62c-2.7,0-5,3.5-8.6,2.7c-3.6-0.7-7.2-4.8-8.4-5.9c-1.2-1.1-2.1,0,0.5-1.2c2.6-1.2,2.3-2.1,4.8-2.5
	c2.5-0.4,7,1.6,7.9,2.9C73.1,59.3,76.2,62,76.2,62"></path><path class="st8" d="M57.3,55.2c0.7-0.3,1.7-0.1,4.9-1.4c3.3-1.4,5.7-2.8,5.2-5.6c-0.5-2.7-1.5-2.9-0.8-5.1l0.7-2.2
	c0,0-2.8,1.1-6.7,2.9c-3.9,1.8-4,6.5-3.7,8.4C57.1,54.1,57.3,55.2,57.3,55.2"></path><path class="st8" d="M55.5,56c0,0-2.2-1-5.3,0.3c-3.1,1.3-7.1,1.3-8.5-2c-1.4-3.3-3.2-4.6-3.2-4.6s0.1,0.5,2.7-0.9
	c2.6-1.4,7.2-1.2,9.4,1C52.8,52.1,55.5,56,55.5,56"></path><path class="st8" d="M38.8,68.2c0,0,2.2-5.7,2.3-8.9c0-3.2-0.3-5-2.7-6.2c-2.4-1.2-3.6-2.5-3.6-2.5s-0.8,4.3-1.9,5.7
	c-1.1,1.4-1.6,4.8-0.1,6.1C34.3,63.7,38.8,68.2,38.8,68.2"></path><path class="st8" d="M37.1,47.2c0,0,2.8,0,5.8-0.9c3-0.9,4.5-1.6,5-3.4c0.5-1.9,0.6-3.7,0.7-5.7c0.1-2-0.1-2.7,0.5-3.1
	c0.6-0.4-0.6,0.9-4,1.5c-3.4,0.6-5.3,0.4-6.2,1.9c-0.9,1.6,0,3.4-0.4,5.4C38.1,44.8,37.1,47.2,37.1,47.2"></path><path class="st0" d="M81,45c-2.5-0.6-7.1-0.9-10.4-1.2"></path><path class="st0" d="M79.7,37.7c-2.2,2.9-6.3,6.1-10.1,7.3"></path><path class="st0" d="M73.7,34.7c0.7,4.2,1.9,7.8-2.5,9.3"></path><path class="st0" d="M62.5,47.5c-4.1,3-9.2,5.6-13.1,6"></path><path class="st0" d="M63.1,56.2c-4.9-1.9-13.1-2.8-14.7-3"></path><path class="st0" d="M55.4,46.6c0.1,3.3,1.1,5.4-4.8,6.9"></path><path class="st1" d="M84.3,51.7c-2-0.2-2.7,0.6-5.2-3.6l-2.5-4.2c0,0,0.9-0.4,2-0.9c1.1-0.5,4.8-2.9,7.7-0.5
	c2.9,2.4,4.3,4.2,4.7,4.8c0.4,0.6,2.1,2.5,2.5,3"></path><path class="st2" d="M91.8,29.1c-1.7,2.1-0.5,6.1-3.4,8.4c-2.8,2.3-8.3,2.5-9.9,2.8c-1.6,0.3-1.3,1.6-0.6-1.1
	c0.7-2.7-0.1-3.1,1.1-5.3c1.2-2.2,5.7-4.4,7.2-4.2C87.7,29.8,91.8,29.1,91.8,29.1"></path><path class="st3" d="M74.5,39.4c0.2-0.7,1-1.3,2-4.7c1-3.4,1.4-6.2-1-7.5c-2.4-1.3-3.2-0.7-4.5-2.6l-1.3-2c0,0-0.9,2.9-2,7
	c-1.1,4.1,2.5,7.2,4.1,8.2C73.5,38.9,74.5,39.4,74.5,39.4"></path><path class="st4" d="M74,41.3c0,0-2.2,1.1-3.1,4.3c-0.9,3.2-3.5,6.3-7,5.3c-3.4-1-5.6-0.4-5.6-0.4s0.5,0.2,1.1-2.7
	c0.6-2.9,3.7-6.3,6.8-6.6C69.3,40.9,74,41.3,74,41.3"></path><path class="st5" d="M72.8,61.9c0,0-3-5.3-5.4-7.4c-2.4-2.1-4-2.9-6.5-1.8c-2.5,1.1-4.3,1.2-4.3,1.2s2.8,3.3,3.2,5.1
	c0.4,1.8,2.7,4.3,4.7,3.9C66.4,62.6,72.8,61.9,72.8,61.9"></path><path class="st6" d="M55.5,49.9c0.1,0,1.8-2.2,3-5c1.2-2.9,1.6-4.5,0.5-6c-1.1-1.6-2.5-2.8-3.9-4.1c-1.5-1.3-2.1-1.6-2.1-2.3
	c0-0.7,0.4,1-1.4,4.1c-1.7,3-3.1,4.3-2.4,6c0.7,1.7,2.7,2.2,3.9,3.7C54.3,47.7,55.5,49.9,55.5,49.9"></path><path class="st0" d="M67.1,87.1c0-2.5-0.8-7.1-1.4-10.4"></path><path class="st0" d="M73.9,84c-3.3-1.5-7.5-4.6-9.5-8"></path><path class="st0" d="M75.3,77.5c-3.9,1.7-7.1,3.7-9.6-0.2"></path><path class="st0" d="M60.2,69.7c-3.9-3.3-7.6-7.5-9-11.2"></path><path class="st0" d="M51.8,72.5c0.6-5.3-0.5-13.4-0.7-15"></path><path class="st0" d="M59.3,62.7c-3.2,0.9-5,2.3-7.9-2.9"></path><path class="st2" d="M61.5,91.9c-0.3-2-1.3-2.5,2.2-6l3.5-3.5c0,0,0.6,0.8,1.4,1.7c0.8,0.9,4,4,2.4,7.4c-1.6,3.4-3,5.2-3.5,5.7
	c-0.5,0.5-1.9,2.6-2.3,3.2"></path><path class="st7" d="M85.2,93.7c-2.4-1.1-6,1-9-1.2c-2.9-2.2-4.5-7.4-5.1-8.9c-0.7-1.5-1.9-0.9,0.9-0.9c2.8,0,3-0.9,5.4-0.2
	c2.4,0.7,5.7,4.4,5.9,5.9C83.5,89.9,85.2,93.7,85.2,93.7"></path><path class="st3" d="M70.9,79.5c0.7,0,1.5,0.6,5.1,0.8c3.5,0.2,6.4-0.1,7.1-2.8c0.7-2.7-0.1-3.3,1.4-5l1.6-1.7c0,0-3-0.2-7.3-0.2
	c-4.3,0-6.4,4.2-7,6C71.2,78.3,70.9,79.5,70.9,79.5"></path><path class="st4" d="M69,79.4c0,0-1.6-1.9-4.9-2c-3.4-0.1-7-1.9-6.9-5.4c0.1-3.5-1-5.5-1-5.5s-0.1,0.5,2.8,0.4c2.9-0.1,7,2,8.1,4.9
	C68.2,74.7,69,79.4,69,79.4"></path><path class="st5" d="M48.7,83.3c0,0,4.5-4.2,5.9-7.1c1.4-2.9,1.8-4.6,0.2-6.8c-1.6-2.1-2.2-3.8-2.2-3.8S50,69.2,48.4,70
	c-1.6,0.8-3.5,3.7-2.7,5.5C46.5,77.3,48.7,83.3,48.7,83.3"></path><path class="st6" d="M56.1,63.5c0,0.1,2.5,1.2,5.6,1.7c3.1,0.5,4.7,0.5,6-1c1.3-1.5,2.1-3.1,3-4.8c0.9-1.8,1-2.5,1.8-2.6
	c0.7-0.1-0.9,0.6-4.3-0.4c-3.4-1-5-1.9-6.4-0.9c-1.4,1.1-1.5,3.1-2.7,4.7C58,61.9,56.1,63.5,56.1,63.5"></path><path class="st0" d="M27.4,68.1c2.5-0.1,7.1-1.2,10.3-2"></path><path class="st0" d="M30.8,74.7c1.3-3.4,4.2-7.7,7.5-9.9"></path><path class="st0" d="M37.4,75.8c-1.9-3.8-4.1-6.9-0.3-9.6"></path><path class="st0" d="M44.4,60.3c3.1-4.1,7.1-8,10.7-9.6"></path><path class="st0" d="M41.3,52.1c5.3,0.4,13.3-1.2,15-1.4"></path><path class="st0" d="M51.4,59c-1-3.1-2.6-4.9,2.5-8"></path><path class="st1" d="M22.4,62.7c2-0.4,2.4-1.4,6.1,1.9l3.6,3.3c0,0-0.8,0.7-1.6,1.5c-0.9,0.8-3.8,4.2-7.2,2.7
	c-3.5-1.4-5.4-2.7-5.9-3.2c-0.5-0.5-2.7-1.8-3.3-2.2"></path><path class="st2" d="M21.8,86.5c1-2.5-1.3-6,0.7-9c2-3,7.2-4.8,8.7-5.6c1.5-0.7,0.8-1.9,0.9,0.9c0.1,2.8,1.1,3,0.5,5.4
	c-0.5,2.5-4.1,5.9-5.6,6.2C25.5,84.6,21.8,86.5,21.8,86.5"></path><path class="st3" d="M35.3,71.5c0,0.7-0.6,1.6-0.6,5.1c0,3.5,0.4,6.3,3.2,6.9c2.7,0.6,3.2-0.3,5.1,1.2l1.8,1.5c0,0,0-3.1-0.1-7.3
	c-0.2-4.3-4.5-6.2-6.4-6.7C36.4,71.8,35.3,71.5,35.3,71.5"></path><path class="st4" d="M35.2,69.6c0,0,1.8-1.7,1.7-5c0-3.4,1.5-7.1,5.1-7.1c3.5-0.1,5.5-1.2,5.5-1.2s-0.5-0.1-0.2,2.9
	c0.3,2.9-1.6,7.1-4.5,8.3C39.9,68.6,35.2,69.6,35.2,69.6"></path><path class="st5" d="M30.3,49.5c0,0,4.4,4.2,7.4,5.5c3,1.3,4.7,1.6,6.8-0.2c2.1-1.8,3.7-2.4,3.7-2.4s-3.7-2.4-4.5-3.9
	c-0.9-1.6-3.9-3.3-5.6-2.4C36.2,47,30.3,49.5,30.3,49.5"></path><path class="st9" d="M50.4,55.9c-0.1,0-1.1,2.6-1.4,5.7c-0.3,3.1-0.3,4.7,1.3,5.9c1.6,1.2,3.2,2,5,2.8c1.8,0.8,2.5,0.9,2.7,1.6
	c0.2,0.7-0.6-0.9,0.1-4.3c0.8-3.4,1.7-5,0.5-6.4c-1.1-1.4-3.2-1.3-4.8-2.4C52.2,57.7,50.4,55.9,50.4,55.9"></path><path class="st0" d="M45.5,26.5c-0.3,2.5,0.1,7.2,0.3,10.5"></path><path class="st0" d="M38.4,28.8c3.1,1.8,7,5.4,8.6,8.9"></path><path class="st0" d="M36.3,35.2c4-1.3,7.5-3,9.5,1.2"></path><path class="st0" d="M50.5,44.5c3.6,3.6,6.8,8.3,7.8,12.1"></path><path class="st0" d="M59.1,42.7c-1.2,5.2-0.9,13.4-0.9,15"></path><path class="st0" d="M50.7,51.6c3.2-0.5,5.2-1.8,7.5,3.8"></path><path class="st1" d="M51.6,22.3c0,2.1,1,2.6-2.8,5.7l-3.8,3.1c0,0-0.6-0.9-1.2-1.8c-0.7-1-3.6-4.4-1.6-7.6c2-3.2,3.5-4.9,4.1-5.3
	c0.6-0.5,2.2-2.4,2.6-2.9"></path><path class="st7" d="M28.2,18c2.3,1.4,6.1-0.4,8.8,2.1c2.7,2.5,3.6,7.9,4.1,9.4c0.5,1.6,1.8,1.1-1,0.8C37.3,30,37,31,34.7,30
	c-2.3-0.9-5.2-5-5.2-6.5C29.4,22,28.2,18,28.2,18"></path><path class="st2" d="M40.9,33.7c-0.7-0.1-1.5-0.8-5-1.4c-3.5-0.5-6.3-0.5-7.3,2c-1,2.6-0.2,3.3-1.9,4.8l-1.8,1.6c0,0,3,0.5,7.2,1
	c4.2,0.5,6.8-3.5,7.6-5.2C40.4,34.8,40.9,33.7,40.9,33.7"></path><path class="st4" d="M42.8,33.9c0,0,1.4,2,4.7,2.5c3.3,0.5,6.7,2.6,6.2,6.1c-0.5,3.5,0.4,5.6,0.4,5.6s0.1-0.5-2.8-0.7
	c-2.9-0.2-6.8-2.7-7.5-5.8C43,38.7,42.8,33.9,42.8,33.9"></path><path class="st5" d="M63.3,32.2c0,0-4.9,3.7-6.6,6.4c-1.7,2.7-2.3,4.4-0.9,6.7c1.4,2.3,1.8,4,1.8,4s2.9-3.3,4.6-3.9
	c1.7-0.6,3.9-3.3,3.2-5.2C64.9,38.5,63.3,32.2,63.3,32.2"></path><path class="st6" d="M53.9,51.1c0-0.1-2.4-1.5-5.4-2.3c-3-0.8-4.6-1-6.1,0.4C41,50.5,40,52,38.9,53.6c-1.1,1.6-1.3,2.4-2,2.4
	c-0.7,0.1,1-0.5,4.2,0.8c3.2,1.3,4.7,2.4,6.3,1.5c1.5-0.9,1.8-2.9,3.1-4.4C51.9,52.5,53.9,51.1,53.9,51.1"></path><path class="st8" d="M65.6,58.1c-2.5-0.6-7.1-0.9-10.4-1.2"></path><path class="st8" d="M64.3,50.7c-2.2,2.9-6.3,6.1-10.1,7.3"></path><path class="st8" d="M58.2,47.8c0.7,4.2,1.9,7.8-2.5,9.3"></path><path class="st8" d="M47,60.5c-4.1,3-9.2,5.6-13.1,6"></path><path class="st8" d="M47.6,69.3c-4.9-1.9-13.1-2.8-14.7-3"></path><path class="st8" d="M40,59.7c0.1,3.3,1.1,5.4-4.8,6.9"></path><path class="st8" d="M68.8,64.8c-2-0.2-2.7,0.6-5.2-3.6l-2.5-4.2c0,0,0.9-0.4,2-0.9c1.1-0.5,4.8-2.9,7.7-0.5
	c2.9,2.4,4.3,4.2,4.7,4.8c0.4,0.6,2.1,2.5,2.5,3"></path><path class="st8" d="M76.4,42.2c-1.7,2.1-0.5,6.1-3.4,8.4c-2.8,2.3-8.3,2.5-9.9,2.8c-1.6,0.3-1.3,1.6-0.6-1.1
	c0.7-2.7-0.1-3.1,1.1-5.3c1.2-2.2,5.7-4.4,7.2-4.2C72.3,42.9,76.4,42.2,76.4,42.2"></path><path class="st8" d="M59.1,52.5c0.2-0.7,1-1.3,2-4.7c1-3.4,1.4-6.2-1-7.5c-2.4-1.3-3.2-0.7-4.5-2.6l-1.3-2c0,0-0.9,2.9-2,7
	c-1.1,4.1,2.5,7.2,4.1,8.2C58.1,52,59.1,52.5,59.1,52.5"></path><path class="st8" d="M58.6,54.4c0,0-2.2,1.1-3.1,4.3c-0.9,3.2-3.5,6.3-7,5.3c-3.4-1-5.6-0.4-5.6-0.4s0.5,0.2,1.1-2.7
	c0.6-2.9,3.7-6.3,6.8-6.6C53.8,54,58.6,54.4,58.6,54.4"></path><path class="st8" d="M57.4,75c0,0-3-5.3-5.4-7.4c-2.4-2.1-4-2.9-6.5-1.8c-2.5,1.1-4.3,1.2-4.3,1.2s2.8,3.3,3.2,5.1
	c0.4,1.8,2.7,4.3,4.7,3.9C51,75.6,57.4,75,57.4,75"></path><path class="st8" d="M40,63c0.1,0,1.8-2.2,3-5c1.2-2.9,1.6-4.5,0.5-6c-1.1-1.6-2.5-2.8-3.9-4.1c-1.5-1.3-2.1-1.6-2.1-2.3
	c0-0.7,0.4,1-1.4,4.1c-1.7,3-3.1,4.3-2.4,6c0.7,1.7,2.7,2.2,3.9,3.7C38.9,60.8,40,63,40,63"></path><path class="st10" d="M13.6,32.7c0.4,0.1,0.7,0.2,0.7,0.2S14,32.8,13.6,32.7C13.6,32.7,13.6,32.7,13.6,32.7
	C13.6,32.7,13.6,32.7,13.6,32.7z"></path><path class="st10" d="M29.8,35.9c-1.9-1-2.2-1-3.7-3.5c-1.5-2.5-3.2-4.3-7.3-5.2c-1.2-0.3-2.2-0.5-3.1-0.6c-1.2,0.3-2.5,0.6-2.5,0.6
	l2.7,2h-2l1.8,1.5H14c0,0,2.1,1.5,1.3,1.4c-0.6-0.1-2,0-2.8,0c0.4,0,1,0.1,1,0.6c0.4,0.2,0.7,0.3,0.7,0.3s-0.3-0.1-0.7-0.2
	c0,0.9-2,0.5-1.5,1.2c0.4,0.7,1.1,1.4,1.1,1.4l-2,0.3c0,0,0.8,0.1,0.9,0.8c0.1,0.7-0.1,2-0.1,2.1c1.5,0.7,4.1,1.8,6.1,1.6
	c2.5-0.3,4.4-1.3,5.6-1.6c1.2-0.3,3.5-1.6,4-1.6c0.4,0,2.5,0.4,2.7,0.4C30.5,37.3,29.8,35.9,29.8,35.9z"></path><path class="st10" d="M13.6,32.6c0-0.5-0.6-0.6-1-0.6c-0.3,0-0.5,0-0.5,0C12.5,32.2,13.1,32.4,13.6,32.6z"></path><path class="st11" d="M12,36.3c-0.1-0.7-0.9-0.8-0.9-0.8l2-0.3c0,0-0.7-0.6-1.1-1.4c-0.4-0.7,1.5-0.3,1.5-1.2
	c-1.1-0.3-3.1-0.9-4-0.7c-1.2,0.3-2.5,0.2-2.5,0.9c-0.1,0.7-0.8,1.6,0.4,2.7c1.2,1.1,2.4,1.8,3.4,2.3c0.2,0.1,0.6,0.3,1,0.5
	C11.9,38.3,12.1,37,12,36.3z"></path><path class="st10" d="M12,32c0,0,0.2,0,0.5,0C12.2,32,12,32,12,32z"></path><path class="st11" d="M11.2,26.4c-1.4,0.6-2.2,0.8-2.1,1.7c0.1,0.9,0.4,1.2,1.1,2.1c0.6,0.9,1.1,1.5,1.9,1.8c0,0,0.2,0,0.5,0
	c0.8,0,2.2-0.1,2.8,0c0.8,0.1-1.3-1.4-1.3-1.4h1.6l-1.8-1.5h2l-2.7-2c0,0,1.3-0.4,2.5-0.6C13.5,26.1,12.1,26,11.2,26.4z"></path><path class="st10" d="M25.5,57.6c0.3,0.6,2.3-0.7,2.4-0.4c0.1,0.4-0.9,2,0,1.8c0.1,0,0.3-0.1,0.4-0.1c0.3-0.6,0.6-1.3,0.8-1.9
	c0.8-2,1.5-9.1,1.2-9.8c-0.3-0.7,1.5-3.6,1.5-3.6l2-2.5l-2,0.4c0,0-2.9,1.1-3.3,1.3c-0.4,0.2-1.3,0.4-3.2,1.6
	c-1.9,1.2-3.2,3.8-3.5,5c-0.3,1.2,0,1.8,0.4,1.6c0.4-0.1,1.7-1.2,1.7-1.2s-0.4,2.6-1.3,3.5c-0.9,0.9,0,2.8,0,3.3
	c0,0.1,0.1,0.2,0.1,0.2c1.2-0.5,2.4-1.1,2.4-1.1S25.3,57,25.5,57.6z"></path><path class="st11" d="M24.2,60.4c0.4,2,1.8,1.2,2.4,1.1c0.4,0,1.1-1.2,1.7-2.5C28.2,59,28,59,27.9,59.1c-0.9,0.2,0.1-1.4,0-1.8
	c-0.1-0.4-2.1,0.9-2.4,0.4c-0.3-0.6-0.4-1.9-0.4-1.9s-1.3,0.6-2.4,1.1C23,57,23.6,57,23.6,57S23.8,58.4,24.2,60.4z"></path><path class="st12" d="M27,60.1c0.3-0.3,1.3-0.4,1.3-0.4l1.9,0.5c0.8,0.5,0.9,0.6,1.2,0.6c0.2,0,0.4,0.2,0.5,0.5
	c0.9-1.2,2.2-3.1,2.4-5.5c0.3-3.2-0.5-12.6-0.5-12.6l-1.5,3.2c0,0-0.9,1.4-1.9,2.2c-1,0.7-1.8,2.8-3.4,4.8c-0.8,1-1.3,3.4-1.6,5.6
	C26.1,59.5,26.7,60.3,27,60.1z"></path><path class="st11" d="M25.2,63.2c0.4,0.6,0.8,1.4,2.5,1.3c1.7-0.1,2.6-1.3,3.3-2.2c0.2-0.2,0.5-0.6,0.8-1c-0.1-0.3-0.3-0.5-0.5-0.5
	c-0.3,0-0.4-0.1-1.2-0.6l-1.9-0.5c0,0-1,0.1-1.3,0.4c-0.3,0.3-0.8-0.6-1.6-1.2C25.1,61,25,62.9,25.2,63.2z"></path><path class="st10" d="M35.9,49.3c-0.8-1.6-0.7-3.8-0.7-3.8l-0.4-0.9c0,0-1.4,3.7-1.8,4.2c-0.4,0.5-2.1,4.8-2.3,5
	c-0.2,0.2-0.3,5.1-0.4,7.8c0.3,0,0.6,0,0.7,0.1c0.2,0.2,0.8-0.4,0.8,0.4c0,0.9,0.9,0,0.9,0s0.1,0.7,0,1.1c-0.1,0.4,1-1.1,1-1.1
	l-0.4,1.8l1.4-0.7l-0.3,1.5c1.4-1.1,2.5-2.7,3.4-4.3C39.4,58.3,36.8,51,35.9,49.3z"></path><path class="st10" d="M30.4,61.7c0,0.8,0,1.4-0.1,1.5C31,62.3,30.7,61.9,30.4,61.7z"></path><path class="st10" d="M29.9,61.6c0,0,0.3,0,0.5,0.1c0-0.1,0-0.1,0-0.2C30.1,61.6,29.9,61.6,29.9,61.6z"></path><path class="st11" d="M33.4,63.9l0.4-1.8c0,0-1.1,1.5-1,1.1c0.1-0.4,0-1.1,0-1.1s-0.9,0.9-0.9,0c0-0.9-0.6-0.2-0.8-0.4
	c-0.1-0.1-0.4-0.1-0.7-0.1c0,0.1,0,0.1,0,0.2c0.3,0.2,0.6,0.5-0.1,1.5c0,0.2-0.2,2.3,0,3.2c0.2,0.9,0.4,0.4,2.6-0.6
	c0.6-0.3,1.2-0.6,1.7-1.1l0.3-1.5L33.4,63.9z"></path><path class="st10" d="M41.5,63.2c0.6-0.6,0.6-0.6,0.6-0.6l1.2-0.1l0.3-0.7l0.8-0.5c0,0,1-0.2,1.3-0.6c0.3-0.4-0.1-0.2,0.3-0.4
	c0.1-0.1,0.2-0.2,0.3-0.4c-0.7-1.5-1.6-3.3-2.3-4.5c-1.1-1.9-2.5-4.3-2.8-4.9c-0.4-0.7-2.7-3-2.7-3c-0.1,0.5-1.5,4.6-1.2,5.7
	c0.4,1.1,1.2,8.8,2.2,9.6c0.2,0.2,0.6,0.5,1,0.9c0-0.1,0-0.2,0-0.2H41.5z"></path><path class="st11" d="M46,65.7c1-0.2,2-2,1.3-3.7c-0.3-0.6-0.6-1.4-1-2.2c-0.1,0.1-0.2,0.3-0.3,0.4c-0.4,0.3,0,0-0.3,0.4
	c-0.3,0.4-1.3,0.6-1.3,0.6l-0.8,0.5l-0.3,0.7l-1.2,0.1c0,0,0,0-0.6,0.6h-1c0,0,0,0.1,0,0.2c1.1,0.9,2.6,2.1,3.2,2.3
	C44.4,65.9,45.1,65.9,46,65.7z"></path><path class="st12" d="M46,59.1c0.3,0.2,0.3,0.7,1.6,0.8h0.7h0.9c0,0,0,0,0.3-0.1c0.3-0.1,0.6,0,0.6,0s0.3-0.7,0.3-1.1
	c0-0.4,0.9,0.2,0.9,0.2l0.4-1.1l0,0c-0.3-2-0.8-4.1-0.9-4.3c-0.2-0.4-5.5-4.7-6.3-4.9c-0.9-0.2-3.9-1.3-3.9-1.3l-0.6,1.4
	c0,0,1.4,4,1.5,4.9c0.1,0.5,1.8,2.7,3.4,4.5C44.6,57.2,45.8,59,46,59.1z"></path><path class="st11" d="M50.6,63.3c0.6,0.1,1.4-0.4,1.5-1.4c0.1-0.5-0.2-2.3-0.5-4.1l0,0l-0.4,1.1c0,0-0.9-0.6-0.9-0.2
	c0,0.4-0.3,1.1-0.3,1.1s-0.3-0.1-0.6,0c-0.3,0.1-0.3,0.1-0.3,0.1h-0.9h-0.7c-1.2-0.1-1.3-0.6-1.6-0.8c-0.2-0.1-1.4-1.9-1.2-1.1
	c1.1,1.4,2.2,2.6,2.5,2.9C48,61.8,50,63.2,50.6,63.3z"></path><path class="st10" d="M54.5,52.6c0.3-0.4,0.7,0.1,1.2,0c0.5-0.1,0.7-0.3,0.7-0.3s1.1,0.1,1.5-0.1c0.4-0.2-0.7-0.8-0.7-0.8
	s-3.9-1.8-4-2c-0.1-0.2,0.4-0.4,1,0c0.6,0.4,2.3,1.1,2.7,1.4c0.4,0.3,2.2,0.7,2.2,0.7v-2l0.6,0.1c-0.4-0.5-0.8-0.9-1-1
	c-0.5-0.4-4.3-2.8-6-3.1s-4.7-0.4-5.1-0.6c-0.5-0.1-2.4-0.5-2.5-0.7c-0.1-0.2-2.1,1-2.1,1s1.5,3.3,2.5,4.1c1,0.8,6.5,4.4,7.6,4.6
	c0.3,0.1,0.7,0.1,1.2,0.2c-0.1-0.2-0.1-0.3-0.3-0.5C53.2,52.6,54.2,53,54.5,52.6z"></path><path class="st11" d="M62.4,53.1c0-0.5-1.6-2.4-2.7-3.6L59,49.4v2c0,0-1.7-0.4-2.2-0.7s-2.2-1-2.7-1.4c-0.6-0.4-1.1-0.2-1,0
	c0.1,0.2,4,2,4,2s1.1,0.6,0.7,0.8c-0.4,0.2-1.5,0.1-1.5,0.1s-0.2,0.2-0.7,0.3c-0.5,0.1-0.9-0.4-1.2,0c-0.3,0.4-1.3,0-0.5,0.9
	c0.1,0.2,0.2,0.4,0.3,0.5c1.7,0.3,4.5,0.6,5.1,0.6C60.3,54.7,62.4,53.8,62.4,53.1z"></path><path class="st12" d="M55.4,45.5c-0.3-0.5,1.2,0.3,1.2,0.3s2.5,0.9,2.7,0.8c0.2-0.1-0.5-0.9-0.9-1.7c-0.3-0.7,1.3-0.5,2.3-0.4
	c-0.5-0.4-1.1-0.8-1.5-1c-1.6-0.9-2.7-1.7-5.8-1.6c-3,0.1-10.2-0.1-10.9,0c0,0,1.7,1.4,2.6,2.2c0.9,0.8,1.5,0.4,2.5,0.7
	c1,0.4,3.5,1.6,5.1,2c1.6,0.4,6,1.7,6.4,2.6c0,0,0.4-1.7,0.6-2C59.8,47.2,55.7,46,55.4,45.5z"></path><path class="st11" d="M62.4,49.4c0.9-0.1,1.4-0.6,1.5-1.4c0.1-0.6-1.7-2.3-3.3-3.5c-1-0.1-2.6-0.3-2.3,0.4c0.4,0.9,1.2,1.7,0.9,1.7
	c-0.2,0.1-2.7-0.8-2.7-0.8s-1.4-0.8-1.2-0.3s4.4,1.7,4.3,1.9c-0.2,0.2-0.6,2-0.6,2C59.4,50.3,61.5,49.5,62.4,49.4z"></path><path class="st10" d="M60.6,41.9c0.3-0.4,0.7-0.6,0-1.3S57,39.1,57,39.1l4,0.5c-0.3-0.9-0.3-0.9-0.3-0.9s1.9,0.2,1.6-0.3
	s-0.4-0.1-0.3-0.5c0-0.1,0.1-0.2,0.3-0.3c-0.5-0.2-1.2-0.3-2.1-0.5c-2.5-0.5-3.1-0.2-5,0c-1.9,0.2-11.6,1.3-11.6,1.3v1.2
	c0,0,1.5-0.1,2.4,0.3c0.9,0.5,1.3,0.5,1.9,0.9c0.6,0.4,2.6,0.4,3.7,0.8c1.2,0.4,4,1.2,6.1,1.4c1.5,0.2,2.8,0,4-0.3
	C61.1,42.5,60.4,42.1,60.6,41.9z"></path><path class="st11" d="M65.4,39.9c0.1-1-0.4-1-1-1.4c-0.4-0.2-1-0.5-2-0.8c-0.2,0.1-0.3,0.2-0.3,0.3c-0.1,0.4,0,0,0.3,0.5
	s-1.6,0.3-1.6,0.3s0,0,0.3,0.9l-4-0.5c0,0,2.9,0.8,3.6,1.4c0.7,0.7,0.3,0.9,0,1.3c-0.2,0.3,0.5,0.6,1.2,0.9c0.5-0.1,0.9-0.3,1.3-0.4
	C64.6,41.8,65.2,40.9,65.4,39.9z"></path><path class="st12" d="M61.9,36.9c-0.5-0.8-0.6-1-0.6-1s0.1-0.5,0.6-1c0,0,0,0,0.1,0c-0.4,0-1.2,0-1.5,0c-0.3,0-0.8-0.5-2.6-0.5
	c0,0,1.2,0,1.9,0c0.7,0,3-0.4,3-0.4s-0.6-0.2-1.3-0.4c-0.7-0.2-1.5-0.4-1.7-0.4c-0.4-0.1,1.6-0.2,1.6-0.2s-2-0.5-2.5-0.8
	c0,0,0,0,0,0c-2.2,0.1-4.5,0.4-5.3,0.7c-1.6,0.7-5.8,4.2-5.8,4.2H46v1.4c0,0,2.5-0.3,3.6-0.1c1.2,0.2,1.7-0.2,3.4-0.1
	c1.7,0.1,4,0.1,6.3,0c1.5,0,2.4-0.3,3.2-0.6c-0.1,0-0.1-0.1-0.2-0.1C60.4,36.8,62.4,37.6,61.9,36.9z"></path><path class="st10" d="M61,32c1,0,2,0.1,2,0.1C62.7,32,61.9,32,61,32z"></path><path class="st10" d="M58.7,32.1c0.8,0,1.6-0.1,2.3-0.1C59.8,32,58.5,32,58.7,32.1z"></path><path class="st11" d="M65.4,34.6c0-1.1-1.2-2.1-2.4-2.4c0,0-1-0.1-2-0.1c-0.7,0-1.5,0-2.3,0.1c0,0,0,0,0,0c0.5,0.3,2.5,0.8,2.5,0.8
	s-2,0.1-1.6,0.2c0.2,0,1,0.2,1.7,0.4c0.7,0.2,1.3,0.4,1.3,0.4s-2.3,0.4-3,0.4c-0.7,0-1.9,0-1.9,0c1.9,0,2.3,0.5,2.6,0.5
	c0.3,0,1.1,0.1,1.5,0c0.4-0.4,0.4-0.1,0.2,0c0,0-0.1,0-0.2,0c0,0,0,0-0.1,0c-0.5,0.5-0.6,1-0.6,1s0.1,0.2,0.6,1
	c0.5,0.8-1.5-0.1,0.5,0.8c0.1,0,0.1,0.1,0.2,0.1c0.4-0.2,0.9-0.4,1.3-0.6C65.1,36.5,65.4,35.7,65.4,34.6z"></path><path class="st10" d="M61.8,34.8c0.1,0,0.1,0,0.2,0C62.2,34.7,62.3,34.4,61.8,34.8z"></path><path class="st10" d="M60.6,26.4c-0.3,0.1-1.2-0.8-1.2-0.8h-1c0.1-0.7,2.7-2.2,2.7-2.2s-1.7,0.8-2.3,0.7c-0.6-0.1-1.8,0.7-2,0.8
	C56.4,25,57,24.4,57,24.2c0.1-0.2-0.1-0.8,0-0.9c-1.4,0.8-3,1.7-3.9,2.3c-1.4,0.9-4.5,2.8-5.3,3.4c-0.8,0.6-1.2,1.9-1.8,1.8
	c-0.6-0.1-0.7,1.9-0.7,1.9c0.4-0.1,7.1,0.4,8,0.1c0.9-0.2,4.7-1.9,6.1-3.3c0.2-0.2,0.5-0.6,0.9-0.9C60.3,28.7,60.9,26.3,60.6,26.4z"></path><path class="st11" d="M62.4,20.7c-0.2-0.2-1.9,1-3.3,1.6c-0.5,0.2-1.2,0.6-2,1c-0.1,0,0.1,0.7,0,0.9c-0.1,0.2-0.6,0.9-0.4,0.7
	c0.2-0.1,1.4-0.9,2-0.8c0.6,0.1,2.3-0.7,2.3-0.7s-2.5,1.5-2.7,2.2h1c0,0,0.9,0.9,1.2,0.8c0.3-0.1-0.3,2.3-0.3,2.3
	c1.5-1.7,3.7-4.3,3.6-5C63.7,22.9,62.6,20.9,62.4,20.7z"></path><path class="st10" d="M57.7,20.7c0,0,0.2-0.4-1.2,0.7c-1.3,1.1-3.4,2.9-3.4,2.9l3.4-4c0,0-2.1,0.4-1.9,0c0.2-0.4,0.3-1-0.3-0.8
	c-0.6,0.2-1.9,0.5-1.9,0.5l-1.2,0.9L50,20.7l-1,1.2c0,0,0-0.2,0-0.4c-3.4,3.3-4.6,12.2-4.9,12.4c0,0,3.2-2.6,3.5-2.9
	c0.3-0.3,4.7-3.3,5.6-3.9c0.9-0.6,5.3-3.3,5.9-3.8c0.3-0.3,0.5-0.9,0.7-1.7c-1,0.3-2,0.5-2,0.5V20.7z"></path><path class="st11" d="M58.5,17.3c-0.8,0-4.4,1-8.6,3.3l1.3,0.2l1.2-0.9c0,0,1.3-0.2,1.9-0.5c0.6-0.2,0.4,0.4,0.3,0.8
	c-0.2,0.4,1.9,0,1.9,0l-3.4,4c0,0,2-1.8,3.4-2.9c1.3-1.1,1.2-0.7,1.2-0.7V22c0,0,1-0.3,2-0.5c0.3-1,0.5-2.1,0.5-2.7
	C60.3,17.8,59.3,17.3,58.5,17.3z"></path><path class="st10" d="M50,20.7c-0.4,0.2-0.7,0.5-1,0.8c0,0.2,0,0.4,0,0.4L50,20.7z"></path><path class="st12" d="M52.1,17c-0.5,0.2-0.8,0.4-0.8,0.4L49.1,17c-0.3,0.5-0.6,1.1-0.8,1.5c-0.9,2.1-3.9,10.4-4.2,10.9L43.3,32
	c0,0,1.4-0.8,2.1-1.3c0.6-0.4,1.5-1.1,2.5-1.7c0.9-0.7,3.6-3.4,4.3-4.3c0.6-0.9,1.9-6.4,2.3-7.3l-1,0.4C53.5,17.7,52.6,16.8,52.1,17
	z"></path><path class="st11" d="M54,13.7c-0.5-1.6-1-1.4-1.9-0.9c-0.7,0.4-2.1,2.3-3.1,4.1l2.2,0.4c0,0,0.3-0.1,0.8-0.4
	c0.5-0.2,1.4,0.7,1.4,0.7l1-0.4c0-0.1,0-0.1,0.1-0.1C54.8,16.7,54.5,15.3,54,13.7z"></path><path class="st10" d="M48.5,15.8c0-0.1-0.6-0.7-0.5-1.2c0.1-0.5-0.4-1.7-0.4-1.7s-0.5,2.2-0.9,2.6c-0.4,0.4,0,0-0.3,0.1
	c-0.3,0.1-0.9,0.5-0.9,0.5l-0.6-0.3c-1.3,3.1-2.8,7.1-2.7,8.4c0.1,2-1.3,6.1-1.3,6.1v1.4l0.7-1.2c0,0,4.2-5.4,5.6-7.3
	c0.9-1.3,1.8-4.4,2.2-6.6c-0.5,0.3-0.9,0.4-0.9,0.4S48.4,16,48.5,15.8z"></path><path class="st11" d="M49.4,14.2c-0.4-1.3-1.3-3.2-1.8-3.3c-0.5-0.1-0.8,0.4-1,0.9c-0.1,0.2-0.8,1.9-1.7,4l0.6,0.3
	c0,0,0.6-0.4,0.9-0.5c0.3-0.1-0.1,0.4,0.3-0.1c0.4-0.4,0.9-2.6,0.9-2.6s0.5,1.2,0.4,1.7c-0.1,0.5,0.5,1.1,0.5,1.2c0,0.1,0,1.1,0,1.1
	s0.4-0.2,0.9-0.4C49.5,15.4,49.5,14.6,49.4,14.2z"></path><path class="st12" d="M44.8,14.4c-0.1,0-1.2-0.5-1.2-0.5s-0.7-0.3-1.2-0.6S41.2,14,41.2,14l-0.7,0.7c0,0-0.3-0.2-0.8-0.4
	c-0.7,1.4-2.4,4.1-2,6.1c0.5,2.2,0.5,6.7,0.6,7.2c0.1,0.6,0.8,2.7,0.8,2.7l1.3-1.4c0.5-0.4,4.1-5.9,4.7-9.9c0.3-2.1,0.3-3.6,0.1-4.8
	c-0.1,0.1-0.3,0.2-0.4,0.3C44.5,14.6,44.9,14.4,44.8,14.4z"></path><path class="st11" d="M43,9.5c-0.7,0.3-2.7,3.3-3,4.3c0,0.1-0.1,0.3-0.2,0.5c0.5,0.2,0.8,0.4,0.8,0.4l0.7-0.7c0,0,0.7-1,1.2-0.7
	s1.2,0.6,1.2,0.6s1,0.5,1.2,0.5c0.1,0-0.2,0.2,0.1,0c0.1,0,0.2-0.1,0.4-0.3c-0.2-1.1-0.4-1.9-0.8-2.7C43.8,9.8,43.7,9.2,43,9.5z"></path><path class="st10" d="M38,21.8c-0.2-1-1-2.9-1.7-4.3c-0.2,0.1-0.4,0.2-0.4,0.2s-0.1-0.3-1,0c-0.5,0.2-0.7,0.7-1,0.8
	c-0.1,1.1-0.1,2.1,0.2,3.7c0.5,2.3,0.2,1.8,0.7,3.4c0.5,1.5,1.1,2.8,1.1,2.8l1.3,1.1C37.3,29.4,38.2,23.2,38,21.8z"></path><path class="st10" d="M34.9,17.7c0.9-0.3,1,0,1,0s0.2-0.1,0.4-0.2c-0.3-0.5-0.5-1-0.7-1.3c-0.6-0.9-1.2-1.9-1.4-1.6
	c-0.2,0.3,0.4,0.5,0,2.3c-0.1,0.6-0.2,1.1-0.3,1.6C34.2,18.4,34.4,17.9,34.9,17.7z"></path><path class="st12" d="M31.9,12.3c0,0-0.5,0.6-0.5,0.6s-0.3,0-1.6-0.9c-1.3-0.9,0.2,0.7,0.3,0.9c0,0.2,0,1,0,1s-0.9-1.3-0.8-0.7
	c0.1,0.6,0.4,2.3,0,1.9c-0.5-0.4-1.1-0.5-1.5-1.2c-0.4-0.7-0.9-1.8-1.5-1.9c-0.5-0.1,0.3,0.9,0.3,0.9s0.1,0.4,0.1,1
	c0.1,0.6,0.4,1.1,0.2,1.2c-0.2,0.1-1.3-0.5-1.3-0.5c-0.3,0.1-0.7,0-1.1-0.2c0.3,0.2,0.5,0.5,0.6,0.8c0.2,0.7,0.2,1.4,0.2,1.4l-2-0.9
	c0,0-0.1,0.3-0.2,0.7c0.9,1.6,2,3.6,2.3,4.9c0.5,2.1,1.6,3.7,2.4,4.4c0.8,0.7,2.7,2.2,2.7,2.2l2,2.5c0,0,1.7-5.4,1.8-6.3
	c0-0.9,1.2-7.5-0.2-9.2C33.5,13.9,32.7,13.1,31.9,12.3z"></path><path class="st11" d="M25.5,16.6c0,0,0.1-0.7-0.2-1.4c-0.1-0.3-0.3-0.6-0.6-0.8c-0.4-0.2-0.8-0.5-0.8-0.5s0.4,0.2,0.8,0.5
	c0.3,0.2,0.7,0.3,1.1,0.2c0,0,1.1,0.6,1.3,0.5c0.2-0.1-0.1-0.6-0.2-1.2c-0.1-0.6-0.1-1-0.1-1s-0.8-1-0.3-0.9
	c0.5,0.1,1.1,1.2,1.5,1.9c0.4,0.7,1,0.7,1.5,1.2c0.5,0.4,0.1-1.2,0-1.9c-0.1-0.6,0.8,0.7,0.8,0.7s0-0.8,0-1c0-0.2-1.5-1.8-0.3-0.9
	c1.3,0.9,1.6,0.9,1.6,0.9s0.4-0.7,0.5-0.6c-1.1-1-2.3-1.9-3.1-2.1c-1.4-0.4-2.1-0.7-2.2-0.4c-0.1,0.4,0.4,1.1,0.8,1.7
	c0.4,0.6,1.2,1.9,1.2,1.9s-2.7-3-3.3-3.2c-0.6-0.2-1.7-0.7-1.8-0.1c-0.1,0.5,1.2,1.4,1.2,1.7c0.1,0.3,1.1,1.9,1.1,1.9
	s-1.4-0.7-1.9-1.2c-0.5-0.4-2-1.3-2.6-1c-0.6,0.3-0.4,1.4,0.4,2.5c0.3,0.4,0.9,1.3,1.6,2.4c0.1-0.4,0.2-0.7,0.2-0.7L25.5,16.6z"></path><path class="st10" d="M24.7,14.4c-0.4-0.3-0.8-0.5-0.8-0.5S24.3,14.2,24.7,14.4z"></path><path class="st10" d="M30.8,31.6c-0.4-1.6-0.9-3.4-2.2-6s-0.6-2.9-3.1-4.4s-4.1-2-5.8-1.7c-0.5,0.1-0.9,0.2-1.2,0.3
	c-0.6,0.3-1.8,1.2,0,1c1.8-0.2,2.3-0.1,3.1,0c0.8,0.1,0.8,0.5,0.8,0.5s-2-0.2-2.4,0c-0.5,0.2-2.4,0-2.4,0s0.7,1.1,0.5,1
	c-0.2-0.1,1.4,0.6,1.4,0.6h-3l0,0.1c0.5-0.1,1.3,0,3.7,1.3c3.7,2.2,4.1,3.8,5.6,4.9c1.5,1.1,2.5,1.5,3,1.9c0.5,0.4,2.5,2.3,2.5,2.3
	L30.8,31.6z"></path><path class="st11" d="M19.5,22.9c0,0-1.7-0.7-1.4-0.6c0.2,0.1-0.5-1-0.5-1s1.9,0.2,2.4,0c0.5-0.2,2.4,0,2.4,0s0-0.3-0.8-0.5
	c-0.8-0.1-1.3-0.2-3.1,0c-1.8,0.2-0.7-0.7,0-1c-0.9,0.3-1.4,0.7-1.7,0.9c-0.4,0.2-1.3-0.3-1.7,0c-0.4,0.3-2.6,0.8-2.3,1.4
	c0.3,0.6,0.6,0.5,0.9,0.6c0.4,0.1,0.4-0.1,0.1,0.4c-0.3,0.4-0.2,0.7,0.3,0.6s0.9-0.5,1.7-0.4c0.3,0,0.4-0.1,0.7-0.2l0-0.1H19.5z"></path><path class="st12" d="M30.3,38.4c-0.3-0.1-2.1,0.1-2.8,0c-0.7-0.1-1.9-0.6-2.5-1.1c-0.6-0.5-2.7-0.7-4-0.9c-1.3-0.2-2.1-0.2-4.6,0
	c-2.5,0.2-3.2,1.2-4.4,2c-0.3,0.2-0.5,0.4-0.5,0.6l1.5-0.2L12.5,40l-0.1,1.1h2.4l-1.3,1.1c0,0,2.3-0.4,3-0.3
	c0.7,0.1,1.6-0.7,0.7,0.1c-0.9,0.8-1.4,1.1-1.4,1.1l1.1-0.3l2.5-0.6h2.3l-6.5,2.2l-1.2,0.2l1.7,0.5l-0.8,0.5h1.8h1
	c0,0-1,0.8-0.6,0.8c0.4-0.1,0.6,0.2,1.3,0c0.6-0.2,1.7,0.1,1.7,0.1v1.2c1.7-0.9,3.5-3.2,5-4.5c1.7-1.5,4.5-3,5.3-3.1l1.2-1.6
	C31.4,38.4,30.6,38.5,30.3,38.4z"></path><path class="st11" d="M18.3,46.4c-0.6,0.2-0.9-0.1-1.3,0c-0.4,0.1,0.6-0.8,0.6-0.8h-1h-1.8l0.8-0.5l-1.7-0.5l1.2-0.2l6.5-2.2h-2.3
	l-2.5,0.6l-1.1,0.3c0,0,0.6-0.4,1.4-1.1c0.9-0.8,0,0-0.7-0.1c-0.7-0.1-3,0.3-3,0.3l1.3-1.1h-2.4l0.1-1.1l0.3-1.2L11.3,39
	c-0.3,0.6,0.3,1.3,0.3,1.8c-0.1,0.7-1.4,0.9-2,1.1c-0.6,0.2-1.2,1.8-1,2.2c0.1,0.4,1.2,0.2,2.5,0c1.3-0.2,1.4,0,0.7,0.3
	c-0.6,0.4-2.4,2-2.6,2.9C9,48.2,9.6,48.1,11.9,48c2.2-0.1,5.3,0.3,7.2,0c0.3,0,0.6-0.2,0.9-0.3v-1.2C20,46.5,18.9,46.2,18.3,46.4z"></path><path class="st13" d="M30.2,35.3c0,0,1.7-0.3,1.7-0.2c0,0.2,0,0.9,0,0.9h-1.1l0.8,0.6c-1.5,0-1.7,0.2-1.7,0.2S28.7,37,29.5,37
	c0.8,0,0.5,0.2,0.1,0.5c-0.4,0.3-1.2,0.5-0.7,0.4c0.6-0.1,1.6,0,1.6,0l-1.1,0.8h0.7c0,0-1,0.9-0.5,0.9c0.5,0,0.5-0.5,0.5,0.2
	c0,0.7,0.8,0.9,0.8,0.9c-0.3,0.6,1.9,0.6,1.7,0.7c-0.2,0.2-0.7,0.5-0.8,0.8c0,0.3,0.5,0.3,0.6,0.5c0.2,0.2,0.9,0.6,0.9,0.8
	c0,0.2,0.6,0.7,0.6,1.2c0,0.4,1.2,0.5,1.5,0.3c-0.1-0.3,0.1-0.3,0.1-0.1c0,0,0,0.1-0.1,0.1c0,0,0.1,0.1,0.1,0.2
	c0.3,0.4,1.5,0.5,1.6,0.5c0.1,0-0.1,0.1,0.4,0.2c0.4,0.1-0.4,1.5,1.2,0.3c1.6-1.1,1.5-1.3,1.6-1.5c0.1-0.2,0.1-0.3,0.6-0.2
	c0.6,0.1,1.2,0.2,1.4,0.1c0.2,0,0,0.2,0.8-0.2c0.8-0.4,0.9-0.2,1.3-0.8c0.4-0.5,0.2-0.9,0.7-1.1c0.6-0.1-0.1-0.4,0-0.9
	c0.1-0.5,0.4,0.6,0.1-0.5c-0.3-1.1-0.6-1-0.3-1.1c0.3-0.1,0.1-2.4,0.2-2.5c0.1-0.1,0.1-0.6,0.2-0.8c0.2-0.2,0.3-0.5,0.2-0.5
	c-0.2-0.1-0.1-0.1,0.1-0.4c0.2-0.3,0.3-0.4,0.2-0.6c0-0.2-0.2-1.2-0.2-1.2s-0.5-0.5-0.5-0.7c0-0.2,0-0.2,0-0.4
	c0-0.1,0.1-0.4,0.5-0.6c0,0,0,0,0-0.1c0-0.4-0.3-1.3-0.5-1.2c-0.3,0.1-1.4,0-1.4-0.1c0-0.2,0.2-0.9,0.2-1c0-0.1,0.3-0.7-0.3-0.5
	c-0.7,0.2-1.7,0-1.8-0.1c0-0.2-0.3-1-0.7-0.7c-0.5,0.3-1.2,0.1-1.3-0.1c0-0.2,0-0.7-0.5-0.3c-0.5,0.3-1.1-0.5-1.1-0.5
	s-0.5-0.7-0.7-0.4c-0.2,0.3-0.5,1-0.5,1s-0.2-0.9-0.3-0.8c-0.2,0.1-0.6,0.6-0.6,0.6s-0.1-1.3-0.2-1.1c-0.1,0.2-0.1-0.8-0.3,0
	c-0.2,0.8-0.2,1.3-0.2,1.3l-0.9-0.1v0.6l-0.8-0.6l0.4,1l-1.3-1.3l0.4,1.9l-1-0.6l0.6,1.2l-2.2-1.3c0,0,0.8,1.4,0.9,1.5
	c0.1,0.1-0.9,0-0.9,0l0.4,0.7c0,0-1.6-0.6-1.5-0.4s0.7,0.8,0.7,0.8h-0.9l0.2,1.3c0,0-1,0-0.9,0c0.1,0,1.1,0.6,0.7,0.6
	c-0.3,0-1.2,0-1.2,0s1.1,0.7,0.9,0.7C29.5,34.8,30.2,35.3,30.2,35.3z"></path><path class="st14" d="M37.7,31.4c0.1-0.1,1.6-1.1,1.6-0.8c-0.1,0.3,0,1,0,1l2.1,0.2l0.2,0.6c0,0,1.3,0.1,1,0.3
	c-0.3,0.3-0.3,0.5,0,0.5s-0.1,0.2,0.2,0.4c0.3,0.3,3,1,2.3,1.2s-1.4,0.5-1.4,0.5s0.7,0.9,0.4,1s0.2,0.8-0.1,0.9
	c-0.3,0.1-1.1,0.3-1.1,0.3l0.6,1c0,0-1.6-0.9-1.1-0.3c0.4,0.6,0.9,2.9,0.9,2.9l-1.9-0.9c0,0,0,1,0,1.6c0,0.7-0.8-0.4-0.8-0.4
	s-0.9-1.1-0.9-0.8c0,0.3-0.6,1.6-0.6,1.6l-0.5-0.5c0,0-1.1,0.7-1.1,0.5c0-0.2-1-1.7-1.1-1.6c-0.1,0.1-0.7,0.3-0.7,0.2s0-1.2-0.4-1
	c-0.4,0.2-1.2,0-1.2,0s-1.3-0.8-1.4-1.1c-0.1-0.3-0.7-1.3-0.7-1.3s0.1-0.1,0.6-0.3c0.5-0.2,0-0.6,0-0.6s0.8-0.3,0.7-0.4
	c0-0.1-1.3-1.4-1.3-1.4s1.2,0.4,1.3,0.2c0-0.2-0.2-1.2-0.2-1.2s0.9,0.3,1.3,0c0.5-0.3,1.2-1.4,1.2-1.4s0.3,0.2,0.6-0.2
	c0.3-0.4,0.6-1.5,0.6-1.5l0.3,0.6L37.7,31.4z"></path><ellipse class="st13" cx="37.6" cy="35.1" rx="0.5" ry="0.5"></ellipse><ellipse class="st13" cx="39.3" cy="34.6" rx="0.5" ry="0.5"></ellipse><ellipse class="st13" cx="38" cy="36.8" rx="0.5" ry="0.5"></ellipse><ellipse class="st13" cx="40" cy="39.6" rx="0.5" ry="0.5"></ellipse><ellipse class="st13" cx="38" cy="38.7" rx="0.5" ry="0.5"></ellipse><ellipse class="st13" cx="36.5" cy="37.5" rx="0.5" ry="0.5"></ellipse><ellipse class="st13" cx="38.5" cy="40.5" rx="0.5" ry="0.5"></ellipse><ellipse class="st13" cx="36.5" cy="39.6" rx="0.5" ry="0.5"></ellipse><ellipse class="st13" cx="36.5" cy="33.8" rx="0.5" ry="0.5"></ellipse><ellipse class="st13" cx="39.3" cy="36.1" rx="0.5" ry="0.5"></ellipse><ellipse class="st13" cx="39.5" cy="37.9" rx="0.5" ry="0.5"></ellipse><ellipse class="st13" cx="40.8" cy="38.5" rx="0.5" ry="0.5"></ellipse><ellipse class="st13" cx="36.1" cy="35.7" rx="0.5" ry="0.5"></ellipse><ellipse class="st13" cx="34" cy="37.3" rx="0.5" ry="0.5"></ellipse><ellipse class="st13" cx="38.3" cy="33.8" rx="0.5" ry="0.5"></ellipse><ellipse class="st13" cx="41" cy="35.9" rx="0.5" ry="0.5"></ellipse><ellipse class="st13" cx="42.6" cy="35.5" rx="0.5" ry="0.5"></ellipse><ellipse class="st13" cx="42" cy="37.2" rx="0.5" ry="0.5"></ellipse><ellipse class="st13" cx="41.3" cy="34.4" rx="0.5" ry="0.5"></ellipse><ellipse class="st13" cx="40.4" cy="36.8" rx="0.5" ry="0.5"></ellipse><ellipse class="st13" cx="40.2" cy="32.9" rx="0.5" ry="0.5"></ellipse><path class="st15" d="M50.3,40.7C50.3,40.7,50.2,40.6,50.3,40.7C50.2,40.6,50.2,40.6,50.3,40.7C50.2,40.7,50.3,40.7,50.3,40.7z"></path><path class="st15" d="M50.3,40.7C50.3,40.7,50.3,40.7,50.3,40.7L50.3,40.7z"></path><path class="st15" d="M35.6,45C35.6,44.8,35.4,44.8,35.6,45C35.6,45,35.6,45,35.6,45z"></path><path class="st16" d="M26.9,35.1l0.9,0.3c0,0-0.4,0.2-0.5,0.3c0,0,0,0,0,0c0.5-0.3,1.7,0,1.1,0.1c-0.6,0.1-1.7,0.6-1.7,0.6l1,0.3
	c0,0-0.3,0.6-0.6,0.7c-0.3,0,1.2,0,1.2,0s-0.7,0.6-0.9,0.7C27.2,38,28.3,38,28,38.2c-0.3,0.2-0.6,0.5-0.6,0.5s0.4,0,0.6,0
	c0.1,0,0.2,0,0.2,0c0,0-0.1,0-0.2,0c-0.6,0-0.6,0.9-0.6,0.9l0.1,1c0,0,1.1-0.7,0.6,0c-0.5,0.7-1.1,0.9-0.6,0.9c0.5,0,0.8,0,0.8,0
	s0.8,0.1,0.6,0.2c-0.1,0.1-0.8,0.5-1,0.7c-0.3,0.2-0.6,0.8-0.3,0.7c0.3-0.1,1.3-0.6,1.3-0.6s-0.6,0.7-0.6,0.8c0,0.1,0.3,0.6,0.3,0.6
	l1.4-0.8c0,0,0.3,0.5,0.1,0.8c-0.2,0.3-1,0.9-1,1.1c0,0.2,0.8,0,0.8,0l0.4-0.4l0.2,0.5c0,0-0.6,0.9-0.2,0.7c0.4-0.2,1.4-2,1.3-1.3
	c0,0.7-0.3,1.7-0.4,1.7c-0.1,0,1.3-0.7,1.3-0.6c0,0.1,0,1.1,0,1.3c0,0.1,0.2,1,0.5,1c0.3,0,0.5-1.3,0.6-1.1c0,0.2,0.5,0.9,0.6,1.1
	c0.2,0.2,0.5-0.7,0.5-0.7s0,1,0.2,1c0.2,0,0.8-0.5,0.8-0.5s0.3,0.5,0.3,0.5c0,0,0.3-0.6,0.3-0.6l0.5,1l0.5-0.7l0.3,0.7
	c0,0,0.3-0.2,0.2-0.4c0-0.2-0.1-0.6,0-0.5c0.1,0.1,0.2,0.4,0.8,0.7c0.6,0.3,0.6,0.3,0.8,0.3c0.2-0.1-0.2-1.1-0.2-1.1L39.6,47
	l1.9,0.9v-1c0.1-0.4,1.6-0.4,1.6-0.4l2.9,0.8l0.9,0.7c0,0,0-1.3,0-1.5c0-0.1,0.8-0.4,0.6-0.6c-0.2-0.1-0.2-0.9-0.2-0.9l1.2-0.4
	L47.8,44l1.6,0.1L48.5,43l0.8-0.3l-0.5-0.5l1.2-0.4l-0.6-0.5c0,0-0.5-0.4-0.6-0.6c-0.1-0.1,0.2-0.5,0.3-0.5c0.2,0,0.7-0.1,0.9,0.1
	c0.1,0.1,0.1,0.2,0.2,0.3c-0.2-0.3,0-0.8-0.4-1.1c-0.4-0.3-1.6-0.9-1.6-1c0.1-0.2,0.3-0.5,0.3-0.8c0-0.3,0.3-1-0.3-1.1
	c-0.6-0.1-0.9-0.6-0.9-0.6s0-1.2-0.3-1.2c-0.3,0-0.8-0.5-0.5-0.8c0.3-0.3,1-0.7,0.3-0.8c-0.7-0.1-1.2-0.4-1.2-0.8
	c-0.4,0.2-0.5,0.5-0.5,0.6c0,0.2,0,0.3,0,0.4c0,0.2,0.5,0.7,0.5,0.7s0.2,1.1,0.2,1.2c0,0.2-0.1,0.4-0.2,0.6
	c-0.2,0.3-0.2,0.3-0.1,0.4c0.2,0.1,0,0.4-0.2,0.5c-0.2,0.2-0.2,0.7-0.2,0.8c-0.1,0.1,0.2,2.4-0.2,2.5c-0.3,0.1,0,0,0.3,1.1
	c0.3,1.1,0,0-0.1,0.5c-0.1,0.5,0.6,0.8,0,0.9c-0.6,0.1-0.3,0.5-0.7,1.1c-0.4,0.5-0.5,0.4-1.3,0.8c-0.8,0.4-0.7,0.2-0.8,0.2
	c-0.2,0-0.8,0-1.4-0.1c-0.6-0.1-0.5,0.1-0.6,0.2c-0.1,0.2,0,0.4-1.6,1.5c-1.6,1.1-0.8-0.2-1.2-0.3c-0.4-0.1-0.3-0.2-0.4-0.2
	c-0.1,0-1.3-0.1-1.6-0.5c0-0.1-0.1-0.1-0.1-0.2c-0.3,0.1-1.5,0-1.5-0.3c0-0.4-0.6-1-0.6-1.2c0-0.2-0.7-0.6-0.9-0.8
	c-0.2-0.2-0.7-0.2-0.6-0.5c0-0.3,0.6-0.6,0.8-0.8c0.2-0.2-2-0.1-1.7-0.7c0,0-0.9-0.2-0.8-0.9c0-0.7,0-0.2-0.5-0.2
	c-0.5,0,0.5-0.9,0.5-0.9h-0.7l1.1-0.8c0,0-1-0.1-1.6,0c-0.6,0.1,0.2-0.1,0.7-0.4c0.4-0.3,0.7-0.5-0.1-0.5c-0.8,0,0.4-0.1,0.4-0.1
	s0.2-0.2,1.7-0.2l-0.8-0.6h1.1c0,0,0-0.8,0-0.9c0-0.2-1.7,0.2-1.7,0.2s-0.7-0.5-1.3-1.1c-0.3,0-1.3,0.3-1.3,0.3L26.9,35.1z"></path><path class="st14" d="M32.2,32.9c0,0,1-0.3,1-0.6c0-0.3,0-0.5,0-0.5s1,0.2,1.1,0c0.1-0.2,0.2-0.6,0.2-0.6c0.2-0.7,0.2-1,0.2-1
	s0.5,0.3,0.7,0.2s0.8-0.5,0.8-0.5h0.7l1.6-0.1c0,0,0.4,0,0.5,0s0.7,0,0.7,0l-0.6-0.7c0,0-0.5-0.3-0.6-0.1c-0.1,0.2-1.5,0.1-1.5,0.1
	s-1.1-0.4-1.1-0.1c0,0.3-1-0.2-1-0.1s-0.4,1.1-0.4,1c-0.1-0.1-1.3,0-1.2,0.2s0,0.7-0.1,0.8s-0.9,0.5-1,0.5s-0.3,0.3-0.3,0.3
	l-0.3,0.3c0,0,0.6,0.5,0.3,0.6S32.2,32.9,32.2,32.9z"></path><path class="st10" d="M58.2,71.4c-0.1,0.3-0.2,0.4-0.2,0.4S58,71.6,58.2,71.4C58.2,71.4,58.2,71.4,58.2,71.4
	C58.2,71.4,58.2,71.4,58.2,71.4z"></path><path class="st10" d="M53.8,81.9c0.9-1.2,1-1.3,2.9-2c1.9-0.7,3.4-1.6,4.5-4.2c0.3-0.8,0.6-1.4,0.8-2c0-0.8-0.1-1.8-0.1-1.8
	l-1.7,1.6l0.3-1.4l-1.3,1l0.2-1.1c0,0-1.3,1.2-1.1,0.7c0.1-0.4,0.3-1.4,0.4-1.9c-0.1,0.3-0.2,0.7-0.6,0.6c-0.2,0.3-0.3,0.4-0.3,0.4
	s0.1-0.2,0.2-0.4c-0.6-0.1-0.1-1.4-0.6-1.2c-0.5,0.2-1.1,0.6-1.1,0.6l0.1-1.4c0,0-0.2,0.5-0.6,0.5c-0.5,0-1.4-0.4-1.4-0.4
	c-0.7,0.9-1.7,2.5-1.9,3.9c-0.2,1.7,0.3,3.1,0.3,4s0.6,2.6,0.5,2.9c0,0.3-0.6,1.6-0.6,1.8C52.8,82.2,53.8,81.9,53.8,81.9z"></path><path class="st10" d="M58.2,71.4c0.3,0,0.5-0.3,0.6-0.6c0-0.2,0.1-0.3,0.1-0.3C58.6,70.7,58.4,71.1,58.2,71.4z"></path><path class="st11" d="M55.9,69.8c0.5,0,0.6-0.5,0.6-0.5l-0.1,1.4c0,0,0.5-0.4,1.1-0.6c0.5-0.2,0,1.1,0.6,1.2c0.4-0.7,1-2,1-2.6
	c-0.1-0.9,0.2-1.7-0.3-1.8c-0.5-0.1-1-0.7-1.9-0.1c-0.9,0.7-1.5,1.4-2,2c-0.1,0.1-0.3,0.4-0.5,0.6C54.6,69.5,55.5,69.8,55.9,69.8z"></path><path class="st10" d="M58.8,70.4c0,0,0,0.1-0.1,0.3C58.8,70.6,58.8,70.4,58.8,70.4z"></path><path class="st11" d="M62.7,70.6c-0.2-1-0.2-1.6-0.9-1.6c-0.7,0-0.9,0.1-1.6,0.5c-0.7,0.3-1.1,0.5-1.5,1c0,0,0,0.2-0.1,0.3
	c-0.1,0.5-0.3,1.5-0.4,1.9c-0.2,0.5,1.1-0.7,1.1-0.7L59.3,73l1.3-1l-0.3,1.4l1.7-1.6c0,0,0.1,1,0.1,1.8
	C62.6,72.2,62.9,71.3,62.7,70.6z"></path><path class="st10" d="M39.7,76.1c-0.4,0.1,0.2,1.7-0.1,1.7c-0.3,0-1.3-0.8-1.2-0.2c0,0.1,0,0.2,0,0.3c0.4,0.3,0.8,0.6,1.2,0.8
	c1.2,0.8,6,2.2,6.4,2.1s2.3,1.5,2.3,1.5l1.4,1.7l0-1.4c0,0-0.4-2.1-0.4-2.4c-0.1-0.3-0.1-0.9-0.6-2.4c-0.5-1.5-2.1-2.6-2.9-3
	c-0.8-0.4-1.2-0.2-1.1,0c0,0.3,0.6,1.3,0.6,1.3s-1.7-0.6-2.2-1.3c-0.5-0.8-1.9-0.4-2.2-0.4c-0.1,0-0.1,0-0.2,0.1
	c0.2,0.9,0.4,1.8,0.4,1.8S40.2,76,39.7,76.1z"></path><path class="st11" d="M38,74.9c-1.4,0-1,1.1-1.1,1.5c0,0.3,0.7,0.9,1.5,1.5c0-0.1,0-0.2,0-0.3c0-0.6,1,0.2,1.2,0.2
	c0.3,0-0.4-1.5,0.1-1.7c0.4-0.1,1.3,0,1.3,0s-0.2-0.9-0.4-1.8c-0.2,0.2-0.2,0.6-0.2,0.6S39.4,74.8,38,74.9z"></path><path class="st12" d="M37.9,76.8c0.2,0.2,0.1,1,0.1,1L37.4,79c-0.4,0.5-0.5,0.5-0.6,0.7c0,0.1-0.2,0.2-0.4,0.2
	c0.7,0.8,1.8,1.9,3.4,2.4c2.1,0.6,8.6,1.3,8.6,1.3l-2-1.5c0,0-0.9-0.8-1.2-1.6c-0.4-0.8-1.7-1.6-2.8-3c-0.6-0.7-2.1-1.4-3.6-1.8
	C38.4,76.3,37.7,76.5,37.9,76.8z"></path><path class="st11" d="M36,75.2c-0.4,0.2-1,0.4-1.2,1.5c-0.2,1.2,0.5,1.9,1.1,2.5c0.1,0.2,0.3,0.4,0.6,0.7c0.2,0,0.4-0.1,0.4-0.2
	c0-0.2,0.2-0.3,0.6-0.7l0.6-1.2c0,0,0-0.7-0.1-1c-0.1-0.2,0.5-0.5,1-0.9C37.5,75.4,36.2,75.1,36,75.2z"></path><path class="st10" d="M43.9,84.3c1.2-0.3,2.7,0,2.7,0l0.7-0.1c0,0-2.3-1.5-2.6-1.8c-0.3-0.3-3-2-3.1-2.2c-0.1-0.1-3.4-0.9-5.2-1.3
	c0,0.2-0.1,0.4-0.2,0.5c-0.2,0.1,0.2,0.6-0.4,0.5c-0.6-0.1-0.1,0.6-0.1,0.6s-0.5,0-0.7-0.1c-0.3-0.1,0.6,0.8,0.6,0.8l-1.2-0.5
	l0.3,1.1l-1-0.4c0.6,1.1,1.5,2,2.4,2.9C37.4,85.4,42.7,84.6,43.9,84.3z"></path><path class="st10" d="M36.3,78.8c-0.6-0.1-1-0.2-1-0.2C35.9,79.2,36.1,79.1,36.3,78.8z"></path><path class="st10" d="M36.4,78.5c0,0,0,0.2-0.1,0.3c0,0,0.1,0,0.1,0C36.4,78.7,36.4,78.5,36.4,78.5z"></path><path class="st11" d="M34.4,80.6l1.2,0.5c0,0-0.9-0.9-0.6-0.8c0.3,0.1,0.7,0.1,0.7,0.1s-0.5-0.7,0.1-0.6c0.6,0.1,0.2-0.4,0.4-0.5
	c0.1-0.1,0.1-0.3,0.2-0.5c0,0-0.1,0-0.1,0c-0.1,0.2-0.4,0.3-1-0.2c-0.1,0-1.5-0.4-2.1-0.4c-0.6,0-0.3,0.2,0,1.8
	c0.1,0.5,0.3,0.9,0.5,1.3l1,0.4L34.4,80.6z"></path><path class="st10" d="M33.8,86.2c0.3,0.5,0.3,0.5,0.3,0.5l-0.1,0.8l0.5,0.3l0.2,0.6c0,0,0,0.7,0.3,1c0.3,0.3,0.1,0,0.3,0.3
	c0.1,0.1,0.1,0.2,0.2,0.3c1.1-0.3,2.4-0.7,3.4-1c1.4-0.5,3.2-1.1,3.7-1.2c0.5-0.2,2.4-1.4,2.4-1.4c-0.3-0.1-2.9-1.6-3.7-1.5
	c-0.8,0.1-6.1-0.3-6.7,0.2c-0.2,0.1-0.4,0.3-0.7,0.6c0.1,0,0.1,0.1,0.1,0.1L33.8,86.2z"></path><path class="st11" d="M31.6,88.9c0,0.7,1.1,1.6,2.3,1.3c0.4-0.1,1-0.2,1.6-0.4c-0.1-0.1-0.2-0.2-0.2-0.3c-0.1-0.3,0,0-0.3-0.3
	c-0.3-0.3-0.3-1-0.3-1l-0.2-0.6l-0.5-0.3l0.1-0.8c0,0,0,0-0.3-0.5l0.1-0.7c0,0-0.1,0-0.1-0.1c-0.8,0.6-1.8,1.5-1.9,1.8
	C31.6,87.8,31.5,88.2,31.6,88.9z"></path><path class="st12" d="M36,89.7c-0.1,0.2-0.5,0.1-0.7,0.9l-0.1,0.5l-0.1,0.6c0,0,0,0,0,0.2c0,0.2-0.1,0.4-0.1,0.4s0.4,0.3,0.7,0.3
	c0.3,0-0.2,0.6-0.2,0.6l0.7,0.4l0,0c1.4,0,2.8,0,3,0c0.3-0.1,3.9-3.1,4.2-3.6c0.3-0.6,1.4-2.5,1.4-2.5l-0.9-0.6c0,0-2.9,0.4-3.5,0.4
	c-0.4,0-2,0.9-3.5,1.7C37.4,89.1,36.1,89.6,36,89.7z"></path><path class="st11" d="M32.6,92.3c-0.1,0.4,0.1,1,0.7,1.2c0.3,0.1,1.6,0.2,2.8,0.2l0,0l-0.7-0.4c0,0,0.5-0.5,0.2-0.6
	c-0.3,0-0.7-0.3-0.7-0.3s0.1-0.2,0.1-0.4c0-0.2,0-0.2,0-0.2l0.1-0.6l0.1-0.5c0.2-0.8,0.6-0.8,0.7-0.9c0.1-0.1,1.4-0.7,0.9-0.7
	c-1.1,0.6-2,1.1-2.3,1.3C33.9,90.8,32.7,91.9,32.6,92.3z"></path><path class="st10" d="M39.2,96.4c0.2,0.3-0.1,0.5-0.2,0.8c0,0.3,0.1,0.5,0.1,0.5s-0.2,0.7-0.1,1c0.1,0.3,0.6-0.4,0.6-0.4
	s1.7-2.4,1.9-2.4c0.2-0.1,0.2,0.3-0.1,0.7c-0.4,0.3-1,1.4-1.3,1.7c-0.3,0.3-0.7,1.4-0.7,1.4l1.4,0.3l-0.2,0.4
	c0.4-0.2,0.7-0.4,0.8-0.5c0.4-0.3,2.4-2.6,2.9-3.7c0.5-1.1,0.9-3.1,1.1-3.4c0.2-0.3,0.7-1.6,0.8-1.6c0.2,0-0.4-1.5-0.4-1.5
	s-2.4,0.6-3.1,1.2c-0.7,0.6-3.8,3.8-4.1,4.5c-0.1,0.2-0.2,0.4-0.3,0.8c0.1,0,0.2,0,0.4-0.1C39.4,95.5,39,96.1,39.2,96.4z"></path><path class="st11" d="M37.9,101.6c0.3,0.1,1.8-0.8,2.8-1.4l0.2-0.4l-1.4-0.3c0,0,0.5-1.1,0.7-1.4c0.3-0.3,0.9-1.3,1.3-1.7
	c0.4-0.3,0.3-0.7,0.1-0.7c-0.2,0.1-1.9,2.4-1.9,2.4s-0.5,0.7-0.6,0.4c-0.1-0.3,0.1-1,0.1-1s-0.1-0.1-0.1-0.5c0-0.3,0.4-0.6,0.2-0.8
	c-0.2-0.3,0.2-0.9-0.6-0.5C38.5,96,38.4,96,38.3,96c-0.4,1.1-1,2.9-1.1,3.4C37.1,100,37.4,101.5,37.9,101.6z"></path><path class="st12" d="M43.9,97.9c0.3-0.1-0.4,0.7-0.4,0.7s-0.9,1.6-0.9,1.7c0,0.2,0.7-0.2,1.3-0.4c0.5-0.1,0.2,0.9-0.1,1.6
	c0.4-0.3,0.7-0.6,0.9-0.9c0.8-0.9,1.5-1.6,1.8-3.7c0.4-2.1,1.4-6.9,1.5-7.4c0,0-1.2,1-1.8,1.5c-0.7,0.5-0.4,1-0.8,1.6
	c-0.4,0.6-1.5,2.2-2,3.2c-0.5,1-2,3.8-2.6,4c0,0,1.1,0.5,1.2,0.7C42.2,100.7,43.6,98,43.9,97.9z"></path><path class="st11" d="M40.4,102.1c-0.1,0.6,0.2,1,0.7,1.2c0.4,0.1,1.8-0.9,2.8-1.8c0.2-0.6,0.6-1.7,0.1-1.6
	c-0.6,0.2-1.3,0.6-1.3,0.4c0-0.2,0.9-1.7,0.9-1.7s0.7-0.9,0.4-0.7s-1.7,2.8-1.8,2.6c-0.1-0.1-1.2-0.7-1.2-0.7
	C40.2,100,40.4,101.5,40.4,102.1z"></path><path class="st10" d="M45.7,101.9c0.2,0.2,0.3,0.5,0.9,0.2c0.5-0.4,1.5-2.2,1.5-2.2l-0.9,2.7c0.7-0.1,0.7-0.1,0.7-0.1
	s-0.4,1.2,0,1.1c0.4-0.1,0.1-0.2,0.4-0.1c0.1,0,0.1,0.1,0.2,0.2c0.2-0.4,0.4-0.8,0.6-1.4c0.7-1.6,0.6-2.1,0.7-3.4
	c0.1-1.3,0.7-8,0.7-8l-0.8-0.2c0,0-0.1,1-0.5,1.6c-0.4,0.5-0.5,0.8-0.9,1.2c-0.4,0.3-0.6,1.7-1,2.4c-0.4,0.7-1.3,2.6-1.7,3.9
	c-0.3,1-0.4,1.9-0.3,2.7C45.2,102.2,45.5,101.7,45.7,101.9z"></path><path class="st11" d="M46.4,105.4c0.7,0.2,0.7-0.1,1.1-0.5c0.2-0.3,0.5-0.6,0.8-1.2c-0.1-0.1-0.1-0.2-0.2-0.2c-0.2-0.1,0,0-0.4,0.1
	s0-1.1,0-1.1s0,0-0.7,0.1l0.9-2.7c0,0-0.9,1.8-1.5,2.2c-0.5,0.4-0.6,0.1-0.9-0.2c-0.1-0.1-0.5,0.3-0.7,0.7c0,0.3,0.1,0.7,0.1,1
	C45.2,104.6,45.8,105.2,46.4,105.4z"></path><path class="st12" d="M48.9,103.4c0.6-0.3,0.7-0.3,0.7-0.3s0.3,0.1,0.6,0.5c0,0,0,0,0,0c0-0.3,0.2-0.8,0.2-1c0-0.2,0.4-0.5,0.7-1.7
	c0,0-0.2,0.8-0.2,1.3s-0.1,2.1-0.1,2.1s0.2-0.4,0.4-0.9c0.2-0.5,0.5-0.9,0.5-1.1c0.1-0.3-0.1,1.1-0.1,1.1s0.6-1.3,0.9-1.6
	c0,0,0,0,0,0c0.2-1.5,0.3-3.1,0.2-3.7c-0.2-1.2-2.1-4.5-2.1-4.5l0.2-1L50,92.5c0,0-0.1,1.7-0.4,2.5c-0.3,0.7-0.1,1.2-0.4,2.3
	c-0.3,1.1-0.6,2.7-0.8,4.3c-0.2,1-0.1,1.7,0,2.2c0,0,0.1-0.1,0.1-0.1C49.2,102.4,48.3,103.7,48.9,103.4z"></path><path class="st10" d="M52.3,103.5c-0.2,0.7-0.3,1.4-0.3,1.4C52.1,104.6,52.2,104.1,52.3,103.5z"></path><path class="st10" d="M52.5,101.9c-0.1,0.6-0.2,1.1-0.2,1.6C52.5,102.7,52.7,101.8,52.5,101.9z"></path><path class="st11" d="M50,106.1c0.7,0.1,1.6-0.5,1.9-1.3c0,0,0.2-0.7,0.3-1.4c0.1-0.5,0.2-1,0.2-1.6c0,0,0,0,0,0
	c-0.3,0.3-0.9,1.6-0.9,1.6s0.2-1.4,0.1-1.1c0,0.1-0.3,0.6-0.5,1.1c-0.2,0.4-0.4,0.9-0.4,0.9s0-1.6,0.1-2.1s0.2-1.3,0.2-1.3
	c-0.2,1.3-0.6,1.5-0.7,1.7c0,0.2-0.2,0.7-0.2,1c0.2,0.4,0,0.3,0,0.1c0,0,0-0.1,0-0.1c0,0,0,0,0,0c-0.3-0.4-0.6-0.5-0.6-0.5
	s-0.1,0.1-0.7,0.3c-0.6,0.3,0.2-1-0.6,0.3c0,0-0.1,0.1-0.1,0.1c0.1,0.3,0.2,0.6,0.3,1C48.8,105.7,49.3,106,50,106.1z"></path><path class="st10" d="M50.3,103.7c0,0,0,0.1,0,0.1C50.3,103.9,50.5,104,50.3,103.7z"></path><path class="st10" d="M56.1,103.9c0-0.2,0.7-0.7,0.7-0.7l0.1-0.7c0.4,0.2,1.1,2.1,1.1,2.1s-0.3-1.2-0.1-1.7c0.2-0.4-0.2-1.3-0.3-1.5
	c-0.1-0.2,0.3,0.3,0.4,0.4c0.1,0.1,0.6,0.1,0.6,0.1c-0.3-1.1-0.8-2.3-1.1-2.9c-0.5-1.1-1.3-3.4-1.6-4c-0.3-0.6-1.1-1.1-1-1.5
	c0.1-0.4-1.2-0.7-1.2-0.7c0,0.3-1.2,4.7-1.2,5.4c0,0.6,0.6,3.4,1.4,4.5c0.1,0.2,0.3,0.4,0.5,0.7C54.7,103.4,56.2,104.2,56.1,103.9z"></path><path class="st11" d="M59.8,105.9c0.2-0.1-0.4-1.4-0.6-2.4c-0.1-0.4-0.2-0.9-0.4-1.5c0-0.1-0.5,0-0.6-0.1c-0.1-0.1-0.5-0.5-0.4-0.4
	c0.1,0.2,0.4,1.1,0.3,1.5c-0.2,0.4,0.1,1.7,0.1,1.7s-0.7-1.9-1.1-2.1l-0.1,0.7c0,0-0.8,0.5-0.7,0.7c0,0.2-1.5-0.5-1.5-0.5
	c0.9,1.3,2.4,3.1,2.9,3.1C58.1,106.5,59.6,106,59.8,105.9z"></path><path class="st10" d="M60.4,102.8c0,0,0.2,0.2-0.3-0.9c-0.5-1-1.5-2.7-1.5-2.7l2.2,2.8c0,0,0-1.5,0.3-1.3c0.2,0.2,0.6,0.3,0.6-0.1
	c-0.1-0.4-0.1-1.3-0.1-1.3l-0.5-0.9l0.3-0.9l-0.7-0.8c0,0,0.1,0,0.3,0c-1.8-2.7-7.6-4.7-7.7-5c0,0,1.3,2.5,1.5,2.7
	c0.2,0.3,1.6,3.6,1.9,4.3c0.3,0.7,1.5,4,1.8,4.5c0.1,0.2,0.6,0.5,1.1,0.7c-0.1-0.7-0.1-1.5-0.1-1.5L60.4,102.8z"></path><path class="st11" d="M62.5,103.8c0.1-0.5-0.1-3.1-1.1-6.2l-0.3,0.9l0.5,0.9c0,0,0,0.9,0.1,1.3c0.1,0.4-0.3,0.2-0.6,0.1
	c-0.2-0.2-0.3,1.3-0.3,1.3l-2.2-2.8c0,0,1,1.6,1.5,2.7c0.5,1,0.3,0.9,0.3,0.9l-0.9-0.2c0,0,0,0.7,0.1,1.5c0.6,0.3,1.4,0.6,1.8,0.7
	C62,104.9,62.4,104.3,62.5,103.8z"></path><path class="st10" d="M61.4,97.5c-0.1-0.3-0.2-0.5-0.4-0.8c-0.2,0-0.3,0-0.3,0L61.4,97.5z"></path><path class="st12" d="M63.6,99.5c-0.1-0.4-0.1-0.6-0.1-0.6l0.6-1.5c-0.3-0.3-0.6-0.5-0.9-0.7c-1.3-0.9-6.5-4-6.8-4.3l-1.6-0.9
	c0,0,0.4,1.1,0.6,1.6c0.2,0.5,0.5,1.2,0.8,1.9c0.3,0.7,1.8,2.9,2.4,3.5c0.5,0.5,4,2.2,4.6,2.5l-0.1-0.7
	C63,100.3,63.7,99.9,63.6,99.5z"></path><path class="st11" d="M65.6,101.2c1.1-0.1,1.1-0.5,0.8-1.1c-0.2-0.5-1.3-1.7-2.4-2.6l-0.6,1.5c0,0,0.1,0.2,0.1,0.6
	c0.1,0.4-0.7,0.8-0.7,0.8l0.1,0.7c0,0,0.1,0,0.1,0.1C63.5,101.3,64.4,101.3,65.6,101.2z"></path><path class="st10" d="M64.9,97.2c0.1,0,0.6-0.3,0.9-0.2c0.3,0.1,1.2,0,1.2,0s-1.4-0.6-1.6-1c-0.2-0.4,0,0,0-0.2
	c0-0.2-0.2-0.7-0.2-0.7l0.3-0.3c-1.9-1.3-4.5-2.8-5.3-2.9c-1.4-0.2-3.9-1.7-3.9-1.7l-0.9-0.2l0.7,0.7c0,0,3.1,3.6,4.2,4.8
	c0.8,0.8,2.7,1.8,4.2,2.3c-0.1-0.4-0.2-0.6-0.2-0.6S64.8,97.1,64.9,97.2z"></path><path class="st11" d="M65.9,98c0.9-0.1,2.3-0.5,2.4-0.8c0.1-0.4-0.1-0.6-0.4-0.8c-0.1-0.1-1.2-0.8-2.5-1.7l-0.3,0.3
	c0,0,0.2,0.4,0.2,0.7c0,0.2-0.2-0.1,0,0.2c0.2,0.4,1.6,1,1.6,1s-0.9,0.2-1.2,0c-0.3-0.1-0.8,0.2-0.9,0.2c-0.1,0-0.8-0.1-0.8-0.1
	s0.1,0.3,0.2,0.6C65,97.9,65.6,98.1,65.9,98z"></path><path class="st12" d="M66.4,94.9c0-0.1,0.5-0.7,0.5-0.7s0.3-0.4,0.6-0.7c0.3-0.3-0.3-0.9-0.3-0.9L66.8,92c0,0,0.2-0.2,0.4-0.5
	c-0.8-0.6-2.5-2.2-3.8-2.1c-1.6,0-4.6-0.5-5-0.6c-0.4,0-1.9,0.2-1.9,0.2l0.8,1.1c0.2,0.4,3.5,3.6,6.1,4.5c1.4,0.5,2.4,0.7,3.2,0.7
	C66.4,95.1,66.4,95,66.4,94.9C66.3,94.7,66.4,95,66.4,94.9z"></path><path class="st11" d="M69.9,94.3c-0.1-0.5-1.8-2.3-2.5-2.6c-0.1,0-0.2-0.1-0.3-0.2c-0.2,0.3-0.4,0.5-0.4,0.5l0.4,0.6
	c0,0,0.6,0.6,0.3,0.9c-0.3,0.3-0.6,0.7-0.6,0.7s-0.4,0.6-0.5,0.7c0,0.1-0.1-0.2,0,0.1c0,0.1,0.1,0.2,0.1,0.3c0.8,0,1.4,0,1.9-0.2
	C69.6,94.8,70,94.8,69.9,94.3z"></path><path class="st10" d="M62.3,89.3c0.7,0,2.1-0.3,3.1-0.6c-0.1-0.2-0.1-0.3-0.1-0.3s0.2-0.1,0.1-0.7c0-0.4-0.4-0.6-0.4-0.8
	c-0.7-0.2-1.4-0.4-2.5-0.3c-1.6,0-1.3-0.1-2.4,0c-1.1,0.1-2,0.4-2,0.4l-0.9,0.8C57.2,87.8,61.3,89.3,62.3,89.3z"></path><path class="st10" d="M65.4,87.8c0.1,0.6-0.1,0.7-0.1,0.7s0,0.1,0.1,0.3c0.4-0.1,0.7-0.2,0.9-0.3c0.7-0.3,1.4-0.6,1.3-0.8
	c-0.2-0.2-0.4,0.2-1.6-0.3c-0.4-0.2-0.7-0.3-1-0.4C65.1,87.2,65.4,87.4,65.4,87.8z"></path><path class="st12" d="M69.5,86.4c0,0-0.4-0.4-0.4-0.4s0.1-0.2,0.8-0.9c0.8-0.7-0.5,0.1-0.7,0c-0.1,0-0.7-0.1-0.7-0.1s1-0.4,0.6-0.4
	c-0.4,0-1.6,0-1.3-0.3c0.4-0.3,0.5-0.7,1-0.8c0.5-0.2,1.4-0.4,1.5-0.7c0.1-0.3-0.7,0.1-0.7,0.1s-0.3,0-0.7,0c-0.4,0-0.8,0.1-0.8,0
	c0-0.2,0.5-0.8,0.5-0.8c0-0.2,0.1-0.5,0.3-0.7c-0.2,0.1-0.4,0.3-0.6,0.3c-0.5,0.1-1-0.1-1-0.1l0.9-1.2c0,0-0.2-0.1-0.4-0.2
	c-1.2,0.4-2.7,0.8-3.6,0.9c-1.5,0.1-2.7,0.6-3.3,1c-0.5,0.4-1.8,1.6-1.8,1.6l-1.9,1c0,0,3.4,1.9,4,2c0.6,0.1,4.9,1.8,6.3,1.1
	C68.2,87.4,68.9,86.9,69.5,86.4z"></path><path class="st11" d="M67.4,81.6c0,0,0.5,0.2,1,0.1c0.2,0,0.4-0.2,0.6-0.3c0.2-0.3,0.4-0.4,0.4-0.4s-0.2,0.2-0.4,0.4
	c-0.2,0.2-0.3,0.5-0.3,0.7c0,0-0.5,0.7-0.5,0.8c0,0.2,0.4,0,0.8,0c0.4,0,0.7,0,0.7,0s0.8-0.4,0.7-0.1c-0.1,0.3-1,0.6-1.5,0.7
	c-0.5,0.2-0.6,0.6-1,0.8c-0.4,0.3,0.8,0.2,1.3,0.3c0.4,0-0.6,0.4-0.6,0.4s0.5,0.1,0.7,0.1c0.1,0,1.4-0.8,0.7,0
	c-0.8,0.7-0.8,0.9-0.8,0.9s0.4,0.4,0.4,0.4c0.8-0.6,1.6-1.3,1.8-1.8c0.4-0.9,0.8-1.3,0.5-1.4c-0.2-0.1-0.8,0.1-1.2,0.3
	c-0.4,0.2-1.4,0.5-1.4,0.5s2.4-1.4,2.6-1.8c0.2-0.4,0.7-1.1,0.3-1.2c-0.3-0.1-1.1,0.6-1.3,0.6c-0.2,0-1.4,0.5-1.4,0.5s0.7-0.9,1-1.2
	c0.4-0.3,1.1-1.2,1-1.6c-0.1-0.4-0.9-0.5-1.7,0c-0.3,0.2-1,0.5-1.8,0.7c0.2,0.1,0.4,0.2,0.4,0.2L67.4,81.6z"></path><path class="st10" d="M69,81.3c0.2-0.2,0.4-0.4,0.4-0.4S69.2,81.1,69,81.3z"></path><path class="st10" d="M56.6,83.1c1.1-0.1,2.4-0.2,4.3-0.7s2-0.1,3.4-1.5c1.3-1.5,1.9-2.5,1.9-3.7c0-0.3,0-0.6,0-0.9
	c-0.1-0.5-0.6-1.4-0.7-0.1c-0.1,1.3-0.2,1.6-0.4,2.1c-0.2,0.5-0.4,0.5-0.4,0.5s0.4-1.3,0.3-1.6c-0.1-0.3,0.3-1.6,0.3-1.6
	s-0.8,0.3-0.8,0.2c0.1-0.1-0.6,0.9-0.6,0.9l0.4-2l-0.1,0c0,0.3-0.2,0.9-1.4,2.3c-2,2.2-3.1,2.3-4,3.2c-0.9,0.9-1.4,1.5-1.7,1.8
	c-0.3,0.3-1.9,1.4-1.9,1.4L56.6,83.1z"></path><path class="st11" d="M64,76.7c0,0,0.7-1,0.6-0.9c-0.1,0.1,0.8-0.2,0.8-0.2S65,76.9,65,77.2c0.1,0.3-0.3,1.6-0.3,1.6s0.2,0,0.4-0.5
	c0.2-0.5,0.3-0.8,0.4-2.1c0.1-1.3,0.6-0.3,0.7,0.1c-0.1-0.6-0.3-1-0.4-1.2c-0.1-0.3,0.4-0.8,0.2-1.2c-0.2-0.3-0.2-1.9-0.6-1.7
	c-0.4,0.1-0.4,0.3-0.5,0.6c-0.1,0.2,0,0.3-0.3,0c-0.3-0.3-0.4-0.2-0.4,0.1c0,0.4,0.2,0.7,0.1,1.2c-0.1,0.2,0,0.3,0,0.5l0.1,0
	L64,76.7z"></path><path class="st12" d="M52.1,81.9c0.1-0.2,0.2-1.4,0.4-1.9c0.1-0.5,0.6-1.2,1.1-1.6c0.4-0.4,0.8-1.8,1.1-2.6c0.3-0.8,0.4-1.4,0.6-3.1
	c0.2-1.7-0.4-2.3-0.7-3.2c-0.1-0.2-0.2-0.4-0.3-0.4l-0.1,1l-0.8-0.3l-0.7-0.2l-0.3,1.6l-0.6-1c0,0,0,1.6-0.2,2.1
	c-0.2,0.5,0.3,1.2-0.2,0.5c-0.4-0.7-0.6-1.1-0.6-1.1l0,0.8L51,74l-0.3,1.5L50,70.9l0-0.9l-0.6,1.1l-0.2-0.6L49,71.7l-0.1,0.7
	c0,0-0.4-0.8-0.4-0.5c0,0.3-0.2,0.4-0.2,0.9c0.1,0.5-0.3,1.1-0.3,1.1l-0.8-0.2c0.4,1.3,1.7,2.8,2.4,3.9c0.8,1.3,1.4,3.5,1.4,4l0.9,1
	C51.9,82.7,52,82.1,52.1,81.9z"></path><path class="st11" d="M48.3,72.7c-0.1-0.5,0.2-0.6,0.2-0.9c0-0.3,0.4,0.5,0.4,0.5l0.1-0.7l0.2-1.2l0.2,0.6l0.6-1.1l0,0.9l0.6,4.7
	L51,74l-0.1-1.7l0-0.8c0,0,0.2,0.4,0.6,1.1c0.4,0.7,0,0,0.2-0.5c0.2-0.5,0.2-2.1,0.2-2.1l0.6,1l0.3-1.6l0.7,0.2l0.8,0.3l0.1-1
	c-0.4-0.3-0.9,0-1.3-0.1c-0.4-0.1-0.4-1-0.5-1.5s-1-1-1.3-1c-0.3,0-0.3,0.8-0.3,1.7c0,0.9-0.2,0.9-0.3,0.4c-0.2-0.5-1-1.9-1.6-2.1
	c-0.6-0.3-0.6,0.2-0.8,1.7c-0.2,1.5-0.9,3.6-1,4.9c0,0.2,0,0.4,0.1,0.6l0.8,0.2C48,73.9,48.3,73.2,48.3,72.7z"></path><path class="st13" d="M54.2,82.2c0,0,0,1.2-0.1,1.2c-0.1,0-0.6-0.1-0.6-0.1l0.1-0.7L53.1,83c0.2-1,0.1-1.2,0.1-1.2s0.1-0.8-0.1-0.3
	c-0.1,0.5-0.2,0.3-0.4,0c-0.1-0.3-0.2-0.9-0.2-0.5c0,0.4-0.2,1.1-0.2,1.1L52,81.3l-0.1,0.4c0,0-0.5-0.8-0.5-0.4
	c0,0.3,0.3,0.4-0.2,0.3c-0.5-0.1-0.7,0.4-0.7,0.4c-0.4-0.3-0.6,1.2-0.7,1c-0.1-0.2-0.3-0.6-0.5-0.6c-0.2-0.1-0.3,0.3-0.4,0.3
	c-0.1,0.1-0.5,0.5-0.7,0.5c-0.1,0-0.6,0.3-0.9,0.3c-0.3,0-0.5,0.7-0.4,1c0.2-0.1,0.2,0.1,0,0.1c0,0,0,0,0-0.1c0,0-0.1,0-0.1,0
	c-0.3,0.2-0.6,1-0.6,1c0,0.1-0.1-0.1-0.2,0.2c-0.1,0.3-0.9-0.4-0.4,0.8c0.5,1.2,0.7,1.2,0.8,1.3c0.1,0.1,0.2,0.1,0.1,0.4
	c-0.1,0.4-0.3,0.8-0.3,0.9c0,0.1-0.1,0,0,0.6c0.1,0.6,0,0.6,0.4,1c0.3,0.3,0.6,0.2,0.6,0.6s0.3,0,0.6,0.1c0.3,0.1-0.4,0.2,0.3,0.1
	c0.8,0,0.7-0.3,0.8,0c0,0.2,1.6,0.4,1.7,0.4c0.1,0.1,0.4,0.1,0.5,0.3c0.1,0.1,0.3,0.3,0.3,0.2c0.1-0.1,0.1-0.1,0.2,0.1
	s0.3,0.2,0.4,0.2c0.1,0,0.9,0,0.9,0s0.4-0.3,0.5-0.2c0.1,0,0.2,0.1,0.3,0.1c0.1,0,0.3,0.1,0.4,0.4c0,0,0,0,0,0
	c0.3,0.1,0.9,0,0.9-0.2c0-0.2,0.2-1,0.3-0.9c0.1,0,0.6,0.2,0.7,0.2c0.1,0,0.5,0.3,0.4-0.2c-0.1-0.5,0.2-1.2,0.3-1.2
	c0.1,0,0.7,0,0.6-0.4c-0.1-0.4,0.1-0.8,0.2-0.8c0.2,0,0.5,0.1,0.3-0.3c-0.2-0.4,0.5-0.7,0.5-0.7s0.6-0.3,0.4-0.4
	c-0.2-0.2-0.6-0.5-0.6-0.5s0.6,0,0.6-0.1c0-0.1-0.3-0.5-0.3-0.5s0.9,0.1,0.8,0s0.5,0,0-0.2c-0.5-0.2-0.9-0.3-0.9-0.3l0.2-0.6
	l-0.4-0.1l0.5-0.4L58,85.8l1.1-0.7l-1.3,0l0.5-0.6l-0.9,0.3l1.1-1.3c0,0-1,0.4-1.2,0.4c-0.1,0.1,0.1-0.6,0.1-0.6l-0.6,0.2
	c0,0,0.6-1,0.5-1s-0.6,0.4-0.6,0.4l0.1-0.6l-0.9,0c0,0,0.1-0.7,0.1-0.6c0,0.1-0.5,0.7-0.5,0.4c0-0.2,0.2-0.8,0.2-0.8
	s-0.6,0.7-0.6,0.5C54.6,81.8,54.2,82.2,54.2,82.2z"></path><path class="st14" d="M55.8,87.8c0.1,0.1,0.5,1.3,0.3,1.2c-0.2-0.1-0.7-0.1-0.7-0.1L55,90.2l-0.4,0c0,0-0.2,0.9-0.4,0.7
	c-0.1-0.2-0.3-0.3-0.3,0c-0.1,0.3-0.1-0.1-0.3,0.1c-0.2,0.2-1.1,1.9-1.1,1.4c0-0.5-0.1-1-0.1-1s-0.7,0.4-0.7,0.2
	c0-0.2-0.6,0-0.6-0.2c0-0.2-0.1-0.8-0.1-0.8l-0.8,0.3c0,0,0.8-0.9,0.4-0.7c-0.4,0.2-2.1,0.3-2.1,0.3l0.8-1.2c0,0-0.6-0.1-1.1-0.2
	s0.4-0.5,0.4-0.5s0.9-0.5,0.7-0.5c-0.2,0-1-0.7-1-0.7l0.4-0.3c0,0-0.4-0.8-0.2-0.8c0.2,0,1.3-0.4,1.2-0.6c-0.1-0.1-0.1-0.5-0.1-0.5
	c0.1,0,0.8,0.2,0.8-0.1c-0.1-0.3,0.1-0.8,0.1-0.8s0.7-0.7,0.9-0.8s1-0.3,1-0.3s0.1,0.1,0.1,0.4c0.1,0.3,0.4,0.1,0.4,0.1
	s0.1,0.6,0.2,0.6c0.1,0,1.1-0.7,1.1-0.7s-0.4,0.8-0.3,0.8c0.1,0.1,0.8,0,0.8,0s-0.3,0.5-0.2,0.9s0.8,1,0.8,1s-0.2,0.1,0,0.4
	c0.2,0.3,0.9,0.6,0.9,0.6L56,87.4L55.8,87.8z"></path><ellipse transform="matrix(0.1931 -0.9812 0.9812 0.1931 -42.5929 122.7015)" class="st13" cx="53.3" cy="87.2" rx="0.4" ry="0.4"></ellipse><ellipse transform="matrix(0.1931 -0.9812 0.9812 0.1931 -43.7237 123.8489)" class="st13" cx="53.4" cy="88.5" rx="0.4" ry="0.4"></ellipse><ellipse transform="matrix(0.1931 -0.9812 0.9812 0.1931 -43.6203 121.6031)" class="st13" cx="52.1" cy="87.3" rx="0.4" ry="0.4"></ellipse><ellipse transform="matrix(0.1931 -0.9812 0.9812 0.1931 -46.3355 120.3131)" class="st13" cx="50" cy="88.3" rx="0.4" ry="0.4"></ellipse><ellipse transform="matrix(0.1931 -0.9812 0.9812 0.1931 -44.4148 120.1277)" class="st13" cx="50.8" cy="87.1" rx="0.4" ry="0.4"></ellipse><ellipse transform="matrix(0.1931 -0.9812 0.9812 0.1931 -42.7178 120.4309)" class="st13" cx="51.9" cy="86.2" rx="0.4" ry="0.4"></ellipse><ellipse transform="matrix(0.1931 -0.9812 0.9812 0.1931 -45.5573 118.9649)" class="st13" cx="49.6" cy="87.2" rx="0.4" ry="0.4"></ellipse><ellipse transform="matrix(0.1931 -0.9812 0.9812 0.1931 -43.5999 118.8401)" class="st13" cx="50.5" cy="85.9" rx="0.4" ry="0.4"></ellipse><ellipse transform="matrix(0.1931 -0.9812 0.9812 0.1931 -41.1855 123.3241)" class="st13" cx="54.4" cy="86.7" rx="0.4" ry="0.4"></ellipse><ellipse transform="matrix(0.1931 -0.9812 0.9812 0.1931 -44.3411 122.7023)" class="st13" cx="52.4" cy="88.3" rx="0.4" ry="0.4"></ellipse><ellipse transform="matrix(0.1931 -0.9812 0.9812 0.1931 -45.2305 121.3699)" class="st13" cx="51.2" cy="88.2" rx="0.4" ry="0.4"></ellipse><ellipse transform="matrix(0.1931 -0.9812 0.9812 0.1931 -46.4232 121.4735)" class="st13" cx="50.6" cy="89" rx="0.4" ry="0.4"></ellipse><ellipse transform="matrix(0.1931 -0.9812 0.9812 0.1931 -41.7005 121.6825)" class="st13" cx="53.1" cy="86.2" rx="0.4" ry="0.4"></ellipse><ellipse transform="matrix(0.1931 -0.9812 0.9812 0.1931 -40.7331 119.51)" class="st13" cx="52.3" cy="84.5" rx="0.4" ry="0.4"></ellipse><ellipse transform="matrix(0.1931 -0.9812 0.9812 0.1931 -42.6131 124.0928)" class="st13" cx="54.1" cy="88" rx="0.4" ry="0.4"></ellipse><ellipse transform="matrix(0.1931 -0.9812 0.9812 0.1931 -45.5537 123.5359)" class="st13" cx="52.3" cy="89.5" rx="0.4" ry="0.4"></ellipse><ellipse transform="matrix(0.1931 -0.9812 0.9812 0.1931 -46.6182 124.467)" class="st13" cx="52.4" cy="90.6" rx="0.4" ry="0.4"></ellipse><ellipse transform="matrix(0.1931 -0.9812 0.9812 0.1931 -46.8666 123.0098)" class="st13" cx="51.4" cy="90" rx="0.4" ry="0.4"></ellipse><ellipse transform="matrix(0.1931 -0.9812 0.9812 0.1931 -45.1326 124.7919)" class="st13" cx="53.3" cy="89.8" rx="0.4" ry="0.4"></ellipse><ellipse transform="matrix(0.1931 -0.9812 0.9812 0.1931 -45.4536 122.5902)" class="st13" cx="51.8" cy="88.9" rx="0.4" ry="0.4"></ellipse><ellipse transform="matrix(0.1931 -0.9812 0.9812 0.1931 -43.7133 125.5104)" class="st13" cx="54.5" cy="89.3" rx="0.4" ry="0.4"></ellipse><path class="st17" d="M47.9,95.1C47.9,95.1,47.9,95.1,47.9,95.1C47.9,95.1,47.9,95.1,47.9,95.1C47.9,95.1,47.9,95.1,47.9,95.1z"></path><path class="st17" d="M47.9,95.1C47.8,95.1,47.8,95.1,47.9,95.1L47.9,95.1z"></path><path class="st17" d="M46.9,84.6C47.1,84.6,47.1,84.5,46.9,84.6C46.9,84.6,46.9,84.6,46.9,84.6z"></path><path class="st16" d="M54.8,80.1l-0.3,0.5c0,0-0.1-0.3-0.1-0.4c0,0,0,0,0,0c0.1,0.4-0.2,1.1-0.2,0.7c0-0.4-0.2-1.2-0.2-1.2l-0.3,0.7
	c0,0-0.4-0.3-0.4-0.5c0-0.2-0.2,0.8-0.2,0.8s-0.3-0.5-0.3-0.7s-0.2,0.5-0.3,0.3c-0.1-0.2-0.2-0.5-0.2-0.5s-0.1,0.3-0.1,0.4
	c0,0.1,0,0.1,0,0.1c0,0,0,0,0-0.1c0.1-0.4-0.5-0.5-0.5-0.5l-0.7,0c0,0,0.3,0.8-0.1,0.4c-0.4-0.4-0.4-0.8-0.5-0.5
	c-0.1,0.3-0.1,0.6-0.1,0.6s-0.2,0.5-0.2,0.4c-0.1-0.1-0.2-0.6-0.3-0.8c-0.1-0.2-0.5-0.5-0.4-0.3c0.1,0.2,0.2,1,0.2,1
	s-0.4-0.5-0.5-0.5c-0.1,0-0.4,0.1-0.4,0.1l0.4,1c0,0-0.4,0.2-0.6,0c-0.2-0.2-0.4-0.8-0.6-0.8c-0.2,0-0.1,0.6-0.1,0.6l0.2,0.3l-0.4,0
	c0,0-0.6-0.5-0.5-0.2c0.1,0.3,1.1,1.2,0.7,1.1c-0.5-0.1-1.1-0.5-1.1-0.5c0-0.1,0.3,1,0.2,0.9c-0.1,0-0.8-0.1-0.9-0.1
	c-0.1,0-0.7,0-0.7,0.2c0,0.2,0.8,0.5,0.7,0.5c-0.1,0-0.7,0.2-0.8,0.3c-0.2,0.1,0.4,0.4,0.4,0.4s-0.7-0.1-0.7,0
	c0,0.1,0.2,0.6,0.2,0.6s-0.4,0.2-0.4,0.2c0,0,0.4,0.3,0.4,0.3l-0.8,0.2l0.4,0.4l-0.5,0.1c0,0,0.1,0.2,0.2,0.2c0.2,0,0.4,0,0.4,0.1
	c-0.1,0-0.3,0.1-0.5,0.4C44,86.8,43.9,86.9,44,87c0,0.1,0.8,0,0.8,0l0.3,0l-0.9,1.2l0.6,0.1c0.2,0.1,0.1,1.1,0.1,1.1L44,91.3
	l-0.6,0.5c0,0,0.9,0.2,1,0.2c0.1,0,0.2,0.6,0.3,0.5c0.1-0.1,0.6,0,0.6,0l0.1,0.9L46,93l-0.3,1l0.9-0.4l0.1,0.6l0.4-0.3l0.1,0.9
	l0.4-0.3c0,0,0.4-0.3,0.5-0.3c0.1-0.1,0.3,0.2,0.3,0.3c0,0.1,0,0.5-0.2,0.6c-0.1,0-0.1,0.1-0.2,0.1c0.2-0.1,0.6,0.1,0.8-0.1
	c0.3-0.3,0.8-1,0.9-0.9c0.1,0.1,0.3,0.2,0.5,0.3c0.2,0.1,0.7,0.3,0.8-0.1c0.1-0.4,0.5-0.5,0.5-0.5s0.8,0.1,0.9,0
	c0-0.2,0.4-0.5,0.6-0.2c0.2,0.3,0.3,0.8,0.5,0.3c0.1-0.4,0.4-0.8,0.7-0.7c-0.1-0.3-0.3-0.4-0.4-0.4c-0.1,0-0.2,0-0.3-0.1
	c-0.1,0-0.5,0.2-0.5,0.2s-0.7,0-0.9,0c-0.1,0-0.2-0.1-0.4-0.2s-0.2-0.2-0.2-0.1c-0.1,0.1-0.2-0.1-0.3-0.2c-0.1-0.1-0.5-0.2-0.5-0.3
	c-0.1-0.1-1.7-0.2-1.7-0.4c0-0.2,0,0-0.8,0c-0.8,0,0,0-0.3-0.1c-0.3-0.1-0.6,0.3-0.6-0.1s-0.3-0.3-0.6-0.6c-0.3-0.3-0.2-0.4-0.4-1
	c-0.1-0.6,0-0.5,0-0.6c0-0.1,0.1-0.5,0.3-0.9c0.1-0.4,0-0.4-0.1-0.4c-0.1-0.1-0.3-0.1-0.8-1.3c-0.5-1.2,0.3-0.5,0.4-0.8
	c0.1-0.3,0.2-0.1,0.2-0.2c0-0.1,0.2-0.9,0.6-1c0,0,0.1,0,0.1,0c0-0.2,0.2-1,0.4-1c0.3,0,0.7-0.3,0.9-0.3c0.1,0,0.5-0.4,0.7-0.5
	c0.1-0.1,0.2-0.4,0.4-0.3c0.2,0.1,0.4,0.5,0.5,0.6c0.1,0.2,0.3-1.3,0.7-1c0,0,0.3-0.6,0.7-0.4c0.5,0.1,0.1,0,0.2-0.3
	c0-0.3,0.5,0.4,0.5,0.4l0.1-0.4l0.4,0.8c0,0,0.2-0.7,0.2-1.1c0-0.4,0,0.2,0.2,0.5c0.1,0.3,0.3,0.6,0.4,0c0.1-0.5,0.1,0.3,0.1,0.3
	s0.1,0.2-0.1,1.2l0.5-0.5l-0.1,0.7c0,0,0.5,0.1,0.6,0.1c0.1,0,0.1-1.2,0.1-1.2s0.5-0.4,0.9-0.7c0-0.2,0-0.9,0-0.9L54.8,80.1z"></path><path class="st14" d="M55.5,83.9c0,0,0.1,0.7,0.3,0.7c0.2,0,0.3,0.1,0.3,0.1s-0.3,0.6-0.1,0.7c0.2,0.1,0.4,0.2,0.4,0.2
	c0.4,0.2,0.7,0.3,0.7,0.3s-0.3,0.3-0.2,0.4C56.8,86.5,57,87,57,87l-0.1,0.5l-0.1,1.1c0,0-0.1,0.2-0.1,0.3c0,0.1-0.1,0.5-0.1,0.5
	l0.5-0.3c0,0,0.3-0.3,0.2-0.4c-0.1-0.1,0.2-1,0.2-1s0.4-0.7,0.2-0.7c-0.2,0,0.3-0.6,0.2-0.7c-0.1,0-0.7-0.4-0.6-0.4s0.2-0.9,0-0.9
	c-0.1,0-0.5-0.1-0.6-0.2c-0.1-0.1-0.2-0.7-0.2-0.7c0-0.1-0.2-0.3-0.2-0.3l-0.2-0.2c0,0-0.4,0.4-0.4,0.1S55.5,83.9,55.5,83.9z"></path><path class="st10" d="M65.4,60.5c0.3-0.1,0.5-0.2,0.5-0.2S65.7,60.5,65.4,60.5C65.4,60.6,65.4,60.5,65.4,60.5
	C65.4,60.5,65.4,60.5,65.4,60.5z"></path><path class="st10" d="M76.7,58c-1.3,0.7-1.5,0.8-2.5,2.6c-1,1.8-2.2,3.1-5,3.8c-0.8,0.2-1.5,0.4-2.2,0.5c-0.8-0.2-1.8-0.4-1.8-0.4
	l1.8-1.4l-1.4,0l1.2-1.1l-1.1,0c0,0,1.4-1.1,0.9-1c-0.4,0.1-1.4,0.1-2,0.1c0.3,0,0.7-0.1,0.7-0.5c0.3-0.1,0.5-0.2,0.5-0.2
	s-0.2,0.1-0.5,0.2c0-0.6-1.4-0.3-1.1-0.8c0.3-0.5,0.8-1,0.8-1l-1.4-0.2c0,0,0.6-0.1,0.6-0.6c0-0.5-0.1-1.4-0.1-1.5
	c1-0.5,2.8-1.3,4.2-1.2c1.8,0.1,3.1,0.8,4,1c0.9,0.2,2.5,1,2.8,1c0.3,0,1.8-0.3,1.9-0.3C77.1,57,76.7,58,76.7,58z"></path><path class="st10" d="M65.4,60.6c0,0.3-0.4,0.4-0.7,0.5c-0.2,0-0.3,0-0.3,0C64.6,60.9,65.1,60.7,65.4,60.6z"></path><path class="st11" d="M64.2,58c0,0.5-0.6,0.6-0.6,0.6l1.4,0.2c0,0-0.5,0.5-0.8,1c-0.3,0.5,1.1,0.2,1.1,0.8c-0.7,0.3-2.2,0.7-2.8,0.5
	c-0.9-0.2-1.7-0.1-1.8-0.6c-0.1-0.5-0.6-1.1,0.2-1.9c0.8-0.8,1.6-1.3,2.3-1.7c0.2-0.1,0.4-0.2,0.7-0.4C64.1,56.6,64.3,57.6,64.2,58z
	"></path><path class="st10" d="M64.3,61c0,0,0.1,0,0.3,0C64.5,61,64.3,61,64.3,61z"></path><path class="st11" d="M63.8,65c-1-0.4-1.6-0.5-1.5-1.2s0.3-0.9,0.7-1.5c0.4-0.6,0.7-1,1.3-1.3c0,0,0.2,0,0.3,0c0.5,0,1.6,0,2-0.1
	c0.5-0.1-0.9,1-0.9,1l1.1,0l-1.2,1.1l1.4,0l-1.8,1.4c0,0,0.9,0.2,1.8,0.4C65.5,65.1,64.5,65.2,63.8,65z"></path><path class="st10" d="M73.3,42.9c0.2-0.4,1.6,0.5,1.7,0.2c0-0.3-0.6-1.4,0-1.3c0.1,0,0.2,0.1,0.3,0.1c0.2,0.4,0.4,0.9,0.6,1.3
	c0.6,1.4,1.2,6.4,1,6.8s1.1,2.5,1.1,2.5l1.5,1.7L78,54c0,0-2-0.7-2.3-0.8c-0.3-0.1-0.9-0.3-2.3-1c-1.4-0.8-2.3-2.6-2.5-3.4
	c-0.2-0.8,0-1.2,0.2-1.1c0.3,0.1,1.2,0.8,1.2,0.8s-0.3-1.8-1-2.4c-0.7-0.6-0.1-2-0.1-2.3c0-0.1,0-0.1,0.1-0.2
	c0.8,0.3,1.7,0.7,1.7,0.7S73.1,43.3,73.3,42.9z"></path><path class="st11" d="M72.3,41c0.3-1.4,1.2-0.8,1.6-0.8c0.3,0,0.8,0.8,1.2,1.7c-0.1,0-0.2-0.1-0.3-0.1c-0.6-0.1,0.1,1,0,1.3
	c0,0.3-1.5-0.6-1.7-0.2c-0.2,0.4-0.3,1.3-0.3,1.3s-0.9-0.4-1.7-0.7c0.2-0.1,0.6-0.1,0.6-0.1S72,42.3,72.3,41z"></path><path class="st12" d="M74.2,41.1c0.2,0.2,0.9,0.3,0.9,0.3l1.3-0.4c0.5-0.3,0.6-0.4,0.8-0.4c0.1,0,0.2-0.2,0.3-0.4
	c0.7,0.8,1.6,2.2,1.8,3.8c0.3,2.2-0.1,8.8-0.1,8.8l-1.1-2.2c0,0-0.7-1-1.4-1.5c-0.7-0.5-1.3-1.9-2.5-3.3c-0.6-0.7-1-2.4-1.2-3.9
	C73.6,41.5,74,40.9,74.2,41.1z"></path><path class="st11" d="M72.9,39c0.2-0.4,0.5-1,1.7-1c1.2,0,1.8,0.9,2.4,1.5c0.1,0.2,0.4,0.4,0.6,0.7c-0.1,0.2-0.2,0.4-0.3,0.4
	c-0.2,0-0.3,0.1-0.8,0.4l-1.3,0.4c0,0-0.7-0.1-0.9-0.3c-0.2-0.2-0.6,0.4-1.1,0.9C72.9,40.5,72.8,39.2,72.9,39z"></path><path class="st10" d="M80.7,48.4c-0.5,1.1-0.4,2.7-0.4,2.7l-0.2,0.7c0,0-1.1-2.6-1.3-2.9c-0.3-0.3-1.6-3.3-1.7-3.4
	c-0.1-0.1-0.3-3.6-0.4-5.4c0.2,0,0.4,0,0.5-0.1c0.1-0.2,0.6,0.3,0.6-0.3c0-0.6,0.6,0,0.6,0s0-0.5,0-0.8c-0.1-0.3,0.7,0.7,0.7,0.7
	l-0.3-1.3l1,0.5l-0.2-1.1c1,0.8,1.8,1.9,2.5,2.9C82.9,42.1,81.2,47.3,80.7,48.4z"></path><path class="st10" d="M76.6,39.9c0-0.6-0.1-1-0.1-1C77,39.5,76.8,39.8,76.6,39.9z"></path><path class="st10" d="M76.2,40c0,0,0.2,0,0.3-0.1c0,0,0,0.1,0,0.1C76.4,40,76.2,40,76.2,40z"></path><path class="st11" d="M78.7,38.3l0.3,1.3c0,0-0.8-1.1-0.7-0.7c0.1,0.3,0,0.8,0,0.8s-0.7-0.6-0.6,0c0,0.6-0.4,0.2-0.6,0.3
	C77,40,76.8,40,76.6,40c0,0,0-0.1,0-0.1c0.2-0.1,0.4-0.4-0.1-1c0-0.1-0.2-1.6-0.1-2.2c0.1-0.6,0.3-0.3,1.8,0.3
	c0.4,0.2,0.8,0.4,1.2,0.7l0.2,1.1L78.7,38.3z"></path><path class="st10" d="M84.3,38.6c0.5,0.4,0.5,0.4,0.5,0.4l0.8,0.1l0.2,0.5l0.6,0.3c0,0,0.7,0.1,0.9,0.4c0.2,0.3,0,0.1,0.2,0.3
	c0.1,0.1,0.2,0.2,0.2,0.3c-0.5,1.1-1.1,2.3-1.5,3.2c-0.7,1.3-1.6,3-1.9,3.5c-0.2,0.5-1.8,2.2-1.8,2.2c-0.1-0.4-1.2-3.2-0.9-4
	s0.7-6.2,1.3-6.7c0.2-0.2,0.4-0.4,0.7-0.6c0,0.1,0,0.1,0,0.1L84.3,38.6z"></path><path class="st11" d="M87.4,36.8c0.7,0.1,1.4,1.3,1,2.6c-0.2,0.4-0.4,1-0.7,1.6c-0.1-0.1-0.1-0.2-0.2-0.3c-0.3-0.2,0,0-0.2-0.3
	c-0.2-0.3-0.9-0.4-0.9-0.4l-0.6-0.3l-0.2-0.5L84.8,39c0,0,0,0-0.5-0.4l-0.7,0c0,0,0-0.1,0-0.1c0.8-0.7,1.8-1.5,2.2-1.6
	C86.3,36.7,86.8,36.7,87.4,36.8z"></path><path class="st12" d="M87.5,41.4c0.2-0.1,0.2-0.5,1.1-0.6l0.5,0l0.7,0c0,0,0,0,0.2,0.1c0.2,0.1,0.4,0,0.4,0s0.2,0.5,0.2,0.7
	c0,0.3,0.6-0.1,0.6-0.1l0.3,0.8l0,0c-0.2,1.4-0.5,2.9-0.5,3c-0.1,0.3-3.7,3.4-4.3,3.6c-0.6,0.2-2.7,1-2.7,1l-0.4-1
	c0,0,0.9-2.8,1-3.4c0-0.4,1.2-1.9,2.3-3.2C86.6,42.8,87.4,41.5,87.5,41.4z"></path><path class="st11" d="M90.7,38.4c0.5-0.1,1,0.2,1.1,0.9c0.1,0.3-0.1,1.6-0.3,2.9l0,0l-0.3-0.8c0,0-0.6,0.4-0.6,0.1
	c0-0.3-0.2-0.7-0.2-0.7s-0.2,0.1-0.4,0c-0.2-0.1-0.2-0.1-0.2-0.1l-0.7,0l-0.5,0c-0.9,0.1-0.9,0.5-1.1,0.6c-0.1,0.1-0.9,1.3-0.8,0.8
	c0.8-1,1.5-1.8,1.7-2.1C88.9,39.5,90.2,38.5,90.7,38.4z"></path><path class="st10" d="M93.6,45.8c0.2,0.2,0.5-0.1,0.8,0c0.3,0,0.5,0.2,0.5,0.2s0.8-0.1,1.1,0.1c0.3,0.1-0.5,0.6-0.5,0.6
	s-2.7,1.3-2.8,1.5c-0.1,0.2,0.3,0.3,0.7,0c0.4-0.3,1.6-0.8,1.9-1c0.3-0.2,1.5-0.5,1.5-0.5l0,1.4l0.4-0.1c-0.3,0.3-0.6,0.6-0.7,0.7
	c-0.3,0.3-3,2-4.1,2.3c-1.2,0.3-3.3,0.4-3.6,0.5c-0.3,0.1-1.7,0.4-1.7,0.6c0,0.2-1.5-0.7-1.5-0.7s1-2.3,1.7-2.9
	c0.7-0.6,4.4-3.2,5.2-3.4c0.2-0.1,0.5-0.1,0.8-0.2c0,0.1-0.1,0.2-0.2,0.4C92.7,45.8,93.4,45.5,93.6,45.8z"></path><path class="st11" d="M99.1,45.3c0,0.4-1.1,1.7-1.8,2.6L96.9,48l0-1.4c0,0-1.2,0.3-1.5,0.5c-0.3,0.2-1.5,0.7-1.9,1
	c-0.4,0.3-0.8,0.2-0.7,0c0.1-0.2,2.8-1.5,2.8-1.5s0.8-0.4,0.5-0.6c-0.3-0.1-1.1-0.1-1.1-0.1s-0.1-0.2-0.5-0.2c-0.3,0-0.6,0.3-0.8,0
	c-0.2-0.2-0.9,0-0.4-0.6c0.1-0.1,0.2-0.2,0.2-0.4c1.2-0.2,3.1-0.5,3.6-0.5C97.6,44.2,99.1,44.8,99.1,45.3z"></path><path class="st12" d="M94.4,50.8c-0.2,0.3,0.8-0.2,0.8-0.2s1.7-0.7,1.9-0.6c0.2,0-0.3,0.6-0.6,1.2c-0.2,0.5,0.9,0.3,1.6,0.2
	c-0.4,0.3-0.7,0.6-1,0.7c-1.1,0.7-1.9,1.2-4,1.2c-2.1,0-7.2,0.3-7.6,0.2c0,0,1.2-1,1.8-1.6c0.6-0.6,1.1-0.3,1.7-0.6
	c0.7-0.3,2.4-1.2,3.5-1.5c1.1-0.3,4.2-1.3,4.4-1.9c0,0,0.3,1.2,0.5,1.4C97.4,49.5,94.5,50.4,94.4,50.8z"></path><path class="st11" d="M99.2,47.9c0.6,0,1,0.4,1.1,0.9c0,0.4-1.2,1.6-2.2,2.5c-0.7,0.1-1.8,0.3-1.6-0.2c0.3-0.6,0.8-1.2,0.6-1.2
	c-0.2,0-1.9,0.6-1.9,0.6s-1,0.6-0.8,0.2c0.2-0.3,3.1-1.3,3-1.4c-0.1-0.2-0.5-1.4-0.5-1.4C97.1,47.3,98.6,47.8,99.2,47.9z"></path><path class="st10" d="M98.1,53.2c0.2,0.3,0.5,0.4,0,0.9c-0.5,0.5-2.5,1.1-2.5,1.1l2.8-0.4c-0.2,0.7-0.2,0.7-0.2,0.7s1.3-0.2,1.1,0.2
	s-0.3,0.1-0.2,0.4c0,0.1,0.1,0.1,0.2,0.2c-0.4,0.1-0.9,0.3-1.5,0.4c-1.8,0.4-2.2,0.2-3.5,0.1c-1.4-0.1-8.1-0.7-8.1-0.7l0-0.9
	c0,0,1.1,0.1,1.7-0.3c0.6-0.4,0.9-0.4,1.3-0.7c0.4-0.3,1.8-0.4,2.6-0.6c0.8-0.3,2.8-0.9,4.2-1.1c1-0.1,2-0.1,2.8,0.1
	C98.4,52.7,97.9,53,98.1,53.2z"></path><path class="st11" d="M101.5,54.5c0.1,0.7-0.2,0.7-0.7,1c-0.3,0.2-0.7,0.4-1.4,0.6c-0.1-0.1-0.2-0.2-0.2-0.2c-0.1-0.3,0,0,0.2-0.4
	s-1.1-0.2-1.1-0.2s0,0,0.2-0.7l-2.8,0.4c0,0,2-0.6,2.5-1.1c0.5-0.5,0.2-0.6,0-0.9c-0.1-0.2,0.3-0.4,0.8-0.6c0.3,0.1,0.6,0.2,0.9,0.3
	C100.9,53.1,101.4,53.8,101.5,54.5z"></path><path class="st12" d="M99.1,56.7c-0.3,0.5-0.4,0.7-0.4,0.7s0.1,0.4,0.4,0.7c0,0,0,0,0,0c-0.3,0-0.8,0-1,0c-0.2,0-0.5,0.4-1.8,0.4
	c0,0,0.8,0,1.3,0c0.5,0,2.1,0.2,2.1,0.2s-0.4,0.1-0.9,0.3c-0.5,0.1-1,0.3-1.2,0.3c-0.3,0,1.1,0.1,1.1,0.1s-1.4,0.4-1.8,0.6
	c0,0,0,0,0,0c-1.5,0-3.1-0.2-3.7-0.4c-1.1-0.4-4.1-2.8-4.1-2.8l-1,0l0-1c0,0,1.7,0.2,2.5,0c0.8-0.2,1.2,0.1,2.4,0
	c1.2-0.1,2.8-0.1,4.4-0.1c1.1,0,1.7,0.1,2.2,0.3c0,0-0.1,0-0.1,0.1C98,56.7,99.4,56.1,99.1,56.7z"></path><path class="st10" d="M98.5,60.1c0.7,0,1.4-0.1,1.4-0.1C99.7,60,99.2,60.1,98.5,60.1z"></path><path class="st10" d="M96.9,60c0.6,0,1.1,0,1.6,0C97.7,60.1,96.8,60.2,96.9,60z"></path><path class="st11" d="M101.6,58.2c0,0.7-0.8,1.5-1.6,1.7c0,0-0.7,0.1-1.4,0.1c-0.5,0-1,0-1.6,0c0,0,0,0,0,0c0.3-0.2,1.8-0.6,1.8-0.6
	s-1.4,0-1.1-0.1c0.1,0,0.7-0.2,1.2-0.3c0.5-0.1,0.9-0.3,0.9-0.3s-1.6-0.3-2.1-0.2c-0.5,0-1.3,0-1.3,0c1.3,0,1.6-0.4,1.8-0.4
	c0.2,0,0.8-0.1,1,0c0.3,0.3,0.3,0.1,0.1,0c0,0-0.1,0-0.1,0c0,0,0,0,0,0c-0.4-0.3-0.4-0.7-0.4-0.7s0.1-0.1,0.4-0.7s-1,0.1,0.3-0.5
	c0,0,0.1,0,0.1-0.1c0.3,0.1,0.6,0.3,0.9,0.4C101.3,56.9,101.6,57.4,101.6,58.2z"></path><path class="st10" d="M99.1,58.1c0,0,0.1,0,0.1,0C99.4,58.1,99.4,58.4,99.1,58.1z"></path><path class="st10" d="M98.4,64c-0.2-0.1-0.9,0.6-0.9,0.6l-0.7,0c0.1,0.5,1.9,1.5,1.9,1.5s-1.2-0.5-1.6-0.4c-0.4,0.1-1.3-0.4-1.4-0.5
	c-0.2-0.1,0.3,0.4,0.3,0.5c0.1,0.2,0,0.6,0,0.6c-1-0.5-2.1-1.2-2.8-1.6c-1-0.6-3.2-1.9-3.8-2.3c-0.6-0.4-0.9-1.3-1.3-1.2
	c-0.4,0.1-0.5-1.3-0.5-1.3c0.3,0,4.9-0.4,5.6-0.3c0.6,0.2,3.3,1.2,4.3,2.2c0.2,0.2,0.4,0.4,0.6,0.6C98.1,62.4,98.6,64.1,98.4,64z"></path><path class="st11" d="M99.7,68c-0.1,0.2-1.3-0.6-2.4-1c-0.4-0.1-0.9-0.4-1.4-0.7c-0.1,0,0-0.5,0-0.6c-0.1-0.2-0.5-0.6-0.3-0.5
	c0.2,0.1,1,0.6,1.4,0.5c0.4-0.1,1.6,0.4,1.6,0.4s-1.8-1-1.9-1.5l0.7,0c0,0,0.6-0.7,0.9-0.6c0.2,0.1-0.3-1.6-0.3-1.6
	c1.1,1.1,2.7,2.9,2.6,3.4C100.7,66.4,99.9,67.8,99.7,68z"></path><path class="st10" d="M96.5,68.1c0,0,0.1,0.3-0.8-0.5c-1-0.7-2.4-2-2.4-2l2.4,2.7c0,0-1.5-0.2-1.3,0c0.1,0.3,0.2,0.7-0.2,0.5
	c-0.4-0.2-1.3-0.3-1.3-0.3L92,68l-0.9,0.2l-0.7-0.8c0,0,0,0.1,0,0.3c-2.4-2.2-3.5-8.4-3.7-8.6c0,0,2.3,1.8,2.5,2
	c0.2,0.2,3.3,2.2,4,2.6c0.7,0.4,3.8,2.2,4.2,2.6c0.2,0.2,0.4,0.6,0.6,1.2c-0.7-0.2-1.4-0.3-1.4-0.3L96.5,68.1z"></path><path class="st11" d="M97.1,70.4c-0.6,0-3.1-0.6-6.1-2.1L92,68l0.8,0.6c0,0,0.9,0.1,1.3,0.3c0.4,0.2,0.3-0.3,0.2-0.5
	c-0.1-0.3,1.3,0,1.3,0l-2.4-2.7c0,0,1.5,1.2,2.4,2c1,0.7,0.8,0.5,0.8,0.5l0-1c0,0,0.7,0.2,1.4,0.3c0.2,0.7,0.4,1.5,0.4,1.9
	C98.3,70,97.7,70.4,97.1,70.4z"></path><path class="st10" d="M91.1,68.2c-0.3-0.1-0.5-0.3-0.7-0.5c0-0.2,0-0.3,0-0.3L91.1,68.2z"></path><path class="st12" d="M92.7,70.8c-0.4-0.1-0.6-0.2-0.6-0.2l-1.6,0.3c-0.2-0.4-0.4-0.7-0.6-1.1c-0.6-1.5-2.9-7.2-3.1-7.6l-0.6-1.8
	c0,0,1,0.6,1.5,0.9c0.5,0.3,1.1,0.7,1.7,1.2c0.7,0.4,2.6,2.3,3.1,3c0.5,0.6,1.5,4.4,1.8,5.1l-0.7-0.2C93.6,70.2,93,70.9,92.7,70.8z"></path><path class="st11" d="M94,73c-0.3,1.1-0.7,1-1.3,0.6c-0.5-0.3-1.5-1.6-2.2-2.8l1.6-0.3c0,0,0.2,0.1,0.6,0.2c0.4,0.1,0.9-0.5,0.9-0.5
	l0.7,0.2c0,0,0,0.1,0,0.1C94.5,70.9,94.3,71.9,94,73z"></path><path class="st10" d="M90.1,71.6c0,0.1-0.4,0.5-0.3,0.9c0.1,0.3-0.2,1.2-0.2,1.2s-0.4-1.5-0.7-1.8c-0.3-0.3,0,0-0.2,0
	c-0.2,0-0.7-0.3-0.7-0.3l-0.4,0.2c-1-2.2-2.1-4.9-2.1-5.8c0.1-1.4-1-4.2-1-4.2l0-1l0.5,0.8c0,0,3.1,3.7,4.1,5c0.7,0.9,1.4,3,1.6,4.6
	c-0.4-0.2-0.6-0.3-0.6-0.3S90.1,71.5,90.1,71.6z"></path><path class="st11" d="M90.8,72.8c-0.3,0.9-0.9,2.3-1.2,2.3c-0.4,0.1-0.6-0.2-0.7-0.6c-0.1-0.1-0.6-1.3-1.3-2.8l0.4-0.2
	c0,0,0.4,0.3,0.7,0.3c0.2,0-0.1-0.3,0.2,0c0.3,0.3,0.7,1.8,0.7,1.8s0.3-0.9,0.2-1.2c-0.1-0.3,0.3-0.8,0.3-0.9c0-0.1,0-0.8,0-0.8
	s0.3,0.1,0.6,0.3C90.8,71.9,90.9,72.5,90.8,72.8z"></path><path class="st12" d="M87.6,72.7c-0.1,0-0.8,0.3-0.8,0.3s-0.5,0.3-0.8,0.5c-0.3,0.2-0.8-0.4-0.8-0.4l-0.5-0.4c0,0-0.2,0.1-0.5,0.3
	c-0.5-0.9-1.8-2.8-1.5-4.2c0.3-1.6,0.2-4.7,0.3-5.1c0-0.4,0.5-1.9,0.5-1.9l0.9,0.9c0.4,0.2,3,4.1,3.5,6.8C88,71,88,72,87.9,72.9
	C87.8,72.8,87.7,72.8,87.6,72.7C87.4,72.6,87.7,72.7,87.6,72.7z"></path><path class="st11" d="M86.4,76.2c-0.5-0.2-2-2.2-2.2-2.9c0-0.1-0.1-0.2-0.2-0.4c0.3-0.2,0.5-0.3,0.5-0.3l0.5,0.4
	c0,0,0.5,0.7,0.8,0.4c0.3-0.2,0.8-0.5,0.8-0.5s0.7-0.3,0.8-0.3c0.1,0-0.2-0.1,0.1,0c0.1,0,0.1,0.1,0.3,0.2c-0.1,0.8-0.3,1.4-0.5,1.9
	C86.9,75.9,86.9,76.4,86.4,76.2z"></path><path class="st10" d="M82.7,67.7c-0.1,0.7-0.6,2.1-1.1,3c-0.1-0.1-0.3-0.1-0.3-0.1s-0.1,0.2-0.7,0c-0.4-0.1-0.5-0.5-0.7-0.6
	c-0.1-0.8-0.1-1.5,0.1-2.6c0.3-1.6,0.1-1.3,0.4-2.4c0.3-1.1,0.7-1.9,0.7-1.9l0.9-0.8C82,62.3,82.8,66.7,82.7,67.7z"></path><path class="st10" d="M80.6,70.6c0.6,0.2,0.7,0,0.7,0s0.1,0.1,0.3,0.1c-0.2,0.4-0.4,0.7-0.5,0.9c-0.4,0.6-0.8,1.3-1,1.1
	c-0.2-0.2,0.2-0.4,0-1.6c-0.1-0.4-0.2-0.7-0.2-1.1C80.1,70.1,80.2,70.5,80.6,70.6z"></path><path class="st12" d="M78.6,74.4c0,0-0.3-0.4-0.3-0.4s-0.2,0-1.1,0.7c-0.9,0.6,0.2-0.5,0.2-0.7c0-0.2,0-0.7,0-0.7s-0.6,0.9-0.5,0.5
	c0.1-0.4,0.3-1.6,0-1.3c-0.3,0.3-0.8,0.3-1,0.8c-0.2,0.5-0.6,1.3-1,1.4c-0.4,0.1,0.2-0.7,0.2-0.7s0-0.3,0.1-0.7
	c0-0.4,0.3-0.8,0.1-0.8c-0.2-0.1-0.9,0.4-0.9,0.4c-0.2-0.1-0.5,0-0.7,0.2c0.2-0.1,0.3-0.3,0.4-0.5c0.2-0.5,0.1-1,0.1-1l-1.4,0.7
	c0,0-0.1-0.2-0.2-0.5c0.6-1.2,1.3-2.6,1.5-3.5c0.3-1.5,1-2.6,1.6-3.1c0.5-0.5,1.9-1.6,1.9-1.6l1.4-1.8c0,0,1.3,3.8,1.4,4.4
	c0,0.6,1,5.2,0,6.5C79.7,73.3,79.2,73.9,78.6,74.4z"></path><path class="st11" d="M74,71.6c0,0,0.1,0.5-0.1,1c-0.1,0.2-0.2,0.4-0.4,0.5c-0.3,0.2-0.5,0.3-0.5,0.3s0.3-0.1,0.5-0.3
	c0.2-0.1,0.5-0.2,0.7-0.2c0,0,0.7-0.4,0.9-0.4c0.2,0.1-0.1,0.4-0.1,0.8c0,0.4-0.1,0.7-0.1,0.7s-0.5,0.7-0.2,0.7
	c0.4-0.1,0.7-0.9,1-1.4c0.2-0.5,0.7-0.5,1-0.8c0.3-0.3,0.1,0.9,0,1.3c-0.1,0.4,0.5-0.5,0.5-0.5s0,0.5,0,0.7c0,0.2-1,1.3-0.2,0.7
	c0.9-0.6,1.1-0.7,1.1-0.7s0.3,0.5,0.3,0.4c-0.8,0.7-1.6,1.4-2.1,1.5c-1,0.3-1.4,0.5-1.5,0.3c-0.1-0.3,0.2-0.8,0.5-1.2
	c0.3-0.4,0.8-1.3,0.8-1.3S74.5,75.9,74,76c-0.4,0.2-1.2,0.5-1.3,0.1c-0.1-0.4,0.8-1,0.8-1.2c0-0.2,0.7-1.3,0.7-1.3s-1,0.5-1.3,0.9
	c-0.3,0.3-1.4,0.9-1.8,0.8c-0.4-0.2-0.3-1,0.3-1.7c0.2-0.3,0.6-0.9,1-1.7c0.1,0.2,0.2,0.5,0.2,0.5L74,71.6z"></path><path class="st10" d="M73.6,73.1c-0.2,0.2-0.5,0.3-0.5,0.3S73.3,73.3,73.6,73.1z"></path><path class="st10" d="M77.4,60.9c-0.3,1.1-0.6,2.4-1.4,4.2c-0.8,1.8-0.4,2-2.1,3.1c-1.7,1.1-2.8,1.4-4,1.3c-0.3,0-0.6-0.1-0.9-0.2
	c-0.4-0.2-1.3-0.8,0-0.7c1.3,0.1,1.6,0,2.2-0.1c0.5-0.1,0.5-0.3,0.5-0.3s-1.4,0.2-1.7,0c-0.3-0.1-1.7,0-1.7,0s0.5-0.8,0.3-0.7
	c-0.1,0.1,1-0.4,1-0.4l-2.1,0.1l0-0.1c0.3,0.1,0.9,0,2.5-1c2.6-1.6,2.8-2.7,3.8-3.5s1.7-1.1,2.1-1.4c0.3-0.3,1.7-1.7,1.7-1.7
	L77.4,60.9z"></path><path class="st11" d="M69.7,67.3c0,0-1.1,0.5-1,0.4c0.1-0.1-0.3,0.7-0.3,0.7s1.4-0.2,1.7,0c0.3,0.1,1.7,0,1.7,0s0,0.2-0.5,0.3
	c-0.5,0.1-0.9,0.2-2.2,0.1c-1.3-0.1-0.4,0.5,0,0.7c-0.6-0.2-1-0.4-1.2-0.6c-0.3-0.2-0.9,0.2-1.2,0c-0.3-0.2-1.8-0.5-1.6-0.9
	s0.4-0.4,0.6-0.4c0.3-0.1,0.3,0,0.1-0.3s-0.2-0.5,0.2-0.4s0.7,0.3,1.2,0.3c0.2,0,0.3,0.1,0.5,0.1l0,0.1L69.7,67.3z"></path><path class="st12" d="M77,56.2c-0.2,0.1-1.5,0-2,0.1c-0.5,0.1-1.3,0.4-1.7,0.8c-0.4,0.4-1.9,0.5-2.8,0.7c-0.9,0.2-1.5,0.2-3.2,0.1
	c-1.8-0.1-2.2-0.8-3.1-1.3c-0.2-0.1-0.3-0.2-0.4-0.4l1,0.1l-0.2-0.8l-0.1-0.8l1.7,0l-0.9-0.7c0,0,1.6,0.2,2.1,0.2
	c0.5-0.1,1.1,0.5,0.5-0.1c-0.6-0.5-1-0.8-1-0.8l0.8,0.2l1.7,0.4l1.6,0l-4.6-1.4l-0.9-0.1l1.2-0.4L66,51.5l1.3,0l0.7,0
	c0,0-0.7-0.6-0.4-0.5c0.3,0,0.4-0.2,0.9,0c0.5,0.1,1.2-0.1,1.2-0.1l0-0.8c1.2,0.6,2.5,2.2,3.6,3.1c1.2,1,3.2,2,3.8,2.1l0.8,1.1
	C77.8,56.2,77.2,56.1,77,56.2z"></path><path class="st11" d="M68.4,50.9c-0.5-0.1-0.6,0.1-0.9,0c-0.3,0,0.4,0.5,0.4,0.5l-0.7,0l-1.3,0l0.6,0.4l-1.2,0.4l0.9,0.1l4.6,1.4
	l-1.6,0l-1.7-0.4l-0.8-0.2c0,0,0.4,0.2,1,0.8c0.6,0.5,0,0-0.5,0.1c-0.5,0.1-2.1-0.2-2.1-0.2l0.9,0.7l-1.7,0l0.1,0.8l0.2,0.8l-1-0.1
	c-0.2-0.4,0.2-0.9,0.1-1.3c-0.1-0.5-1-0.6-1.4-0.7c-0.5-0.1-0.8-1.2-0.7-1.5c0.1-0.3,0.9-0.1,1.8,0c0.9,0.1,1,0,0.5-0.2
	c-0.5-0.2-1.7-1.3-1.9-2c-0.2-0.7,0.3-0.6,1.9-0.6c1.6,0.1,3.7-0.3,5-0.1c0.2,0,0.4,0.1,0.6,0.2l0,0.8C69.6,50.8,68.9,51,68.4,50.9z
	"></path><path class="st13" d="M77,58.4c0,0,1.2,0.2,1.2,0.1c0-0.1,0-0.7,0-0.7l-0.7,0l0.5-0.4c-1.1,0.1-1.2-0.1-1.2-0.1s-0.8-0.1-0.3-0.1
	c0.5,0,0.3-0.2,0-0.4c-0.3-0.2-0.9-0.3-0.5-0.3c0.4,0,1.1,0,1.1,0L76.4,56l0.5,0c0,0-0.7-0.6-0.4-0.6c0.3,0,0.4,0.3,0.3-0.1
	c0-0.5,0.6-0.6,0.6-0.6c-0.2-0.4,1.3-0.4,1.2-0.6c-0.2-0.1-0.5-0.4-0.6-0.6c0-0.2,0.3-0.2,0.4-0.4c0.1-0.1,0.6-0.5,0.6-0.6
	c0-0.1,0.4-0.5,0.4-0.8c0-0.3,0.8-0.4,1.1-0.3c-0.1,0.2,0.1,0.2,0.1,0.1c0,0,0,0-0.1-0.1c0,0,0-0.1,0.1-0.1c0.2-0.3,1.1-0.4,1.1-0.4
	c0.1,0,0-0.1,0.2-0.2c0.3-0.1-0.3-1,0.8-0.3c1.1,0.8,1.1,0.9,1.1,1c0.1,0.1,0,0.2,0.4,0.1c0.4-0.1,0.8-0.1,1-0.1
	c0.1,0,0-0.1,0.6,0.1c0.6,0.2,0.6,0.2,0.9,0.5c0.3,0.4,0.1,0.7,0.5,0.7c0.4,0.1-0.1,0.3,0,0.6c0.1,0.3,0.3-0.4,0.1,0.3
	c-0.2,0.7-0.4,0.7-0.2,0.7c0.2,0.1,0.1,1.7,0.2,1.8c0.1,0.1,0.1,0.5,0.2,0.6c0.1,0.1,0.3,0.3,0.1,0.4c-0.1,0.1-0.1,0.1,0,0.2
	c0.1,0.2,0.2,0.3,0.2,0.4c0,0.1-0.1,0.9-0.1,0.9s-0.3,0.4-0.3,0.5c0,0.1,0,0.2,0,0.3c0,0.1,0.1,0.3,0.3,0.4c0,0,0,0,0,0
	c0,0.3-0.2,0.9-0.3,0.9c-0.2-0.1-1,0-1,0.1c0,0.1,0.1,0.6,0.1,0.7c0,0.1,0.3,0.5-0.2,0.4c-0.5-0.1-1.2,0-1.2,0.1
	c0,0.1-0.2,0.7-0.5,0.5c-0.3-0.2-0.8-0.1-0.9,0.1c0,0.2,0,0.5-0.3,0.3c-0.3-0.2-0.7,0.4-0.7,0.4s-0.3,0.5-0.5,0.3
	c-0.1-0.2-0.4-0.7-0.4-0.7s-0.1,0.6-0.2,0.6c-0.1-0.1-0.4-0.4-0.4-0.4s0,0.9-0.1,0.8c-0.1-0.1,0,0.5-0.2,0c-0.1-0.5-0.1-0.9-0.1-0.9
	l-0.7,0.1l0-0.4l-0.5,0.4l0.3-0.7L79,63.7l0.2-1.3l-0.7,0.4l0.4-0.9l-1.5,0.9c0,0,0.5-1,0.6-1.1c0.1-0.1-0.7,0-0.7,0l0.3-0.5
	c0,0-1.1,0.4-1,0.3s0.5-0.6,0.5-0.6l-0.7,0l0.1-0.9c0,0-0.7,0-0.7,0c0.1,0,0.7-0.4,0.5-0.4c-0.2,0-0.8,0-0.8,0s0.8-0.5,0.6-0.5
	C76.5,58.8,77,58.4,77,58.4z"></path><path class="st14" d="M82.3,60.9c0.1,0.1,1.2,0.7,1.1,0.5c-0.1-0.2,0-0.7,0-0.7l1.5-0.2l0.1-0.4c0,0,0.9-0.1,0.7-0.3s-0.2-0.3,0-0.3
	c0.3,0-0.1-0.1,0.1-0.3c0.2-0.2,2.1-0.8,1.6-0.9s-1-0.3-1-0.3s0.5-0.6,0.3-0.7c-0.2-0.1,0.1-0.6-0.1-0.6c-0.2-0.1-0.8-0.2-0.8-0.2
	l0.4-0.7c0,0-1.1,0.7-0.8,0.3c0.3-0.4,0.6-2,0.6-2l-1.3,0.6c0,0,0-0.7,0-1.1c0-0.5-0.6,0.3-0.6,0.3s-0.6,0.8-0.6,0.6
	S83,53.4,83,53.4l-0.4,0.4c0,0-0.8-0.5-0.8-0.3c0,0.2-0.7,1.2-0.8,1.1c-0.1-0.1-0.5-0.2-0.5-0.1c0,0.1,0.1,0.8-0.3,0.7s-0.8,0-0.8,0
	s-0.9,0.6-0.9,0.8c-0.1,0.2-0.5,0.9-0.5,0.9s0.1,0.1,0.4,0.2c0.3,0.1,0,0.4,0,0.4s0.5,0.2,0.5,0.3c0,0.1-0.9,1-0.9,1
	s0.8-0.3,0.9-0.2c0,0.1-0.1,0.8-0.1,0.8s0.6-0.2,0.9,0c0.3,0.2,0.9,1,0.9,1s0.2-0.2,0.4,0.1c0.2,0.3,0.5,1,0.5,1l0.2-0.4L82.3,60.9z
	"></path><ellipse transform="matrix(0.9996 -2.826728e-02 2.826728e-02 0.9996 -1.6164 2.3446)" class="st13" cx="82.1" cy="58.3" rx="0.4" ry="0.4"></ellipse><ellipse transform="matrix(0.9996 -2.826728e-02 2.826728e-02 0.9996 -1.6256 2.3798)" class="st13" cx="83.4" cy="58.7" rx="0.4" ry="0.4"></ellipse><ellipse transform="matrix(0.9996 -2.826728e-02 2.826728e-02 0.9996 -1.5832 2.3518)" class="st13" cx="82.4" cy="57.2" rx="0.4" ry="0.4"></ellipse><ellipse transform="matrix(0.9996 -2.826728e-02 2.826728e-02 0.9996 -1.5268 2.3897)" class="st13" cx="83.8" cy="55.2" rx="0.4" ry="0.4"></ellipse><ellipse transform="matrix(0.9996 -2.826728e-02 2.826728e-02 0.9996 -1.5453 2.3502)" class="st13" cx="82.4" cy="55.8" rx="0.4" ry="0.4"></ellipse><ellipse transform="matrix(0.9996 -2.826728e-02 2.826728e-02 0.9996 -1.5708 2.3208)" class="st13" cx="81.3" cy="56.7" rx="0.4" ry="0.4"></ellipse><ellipse transform="matrix(0.9996 -2.826728e-02 2.826728e-02 0.9996 -1.5096 2.359)" class="st13" cx="82.7" cy="54.6" rx="0.4" ry="0.4"></ellipse><ellipse transform="matrix(0.9996 -2.826728e-02 2.826728e-02 0.9996 -1.5297 2.3195)" class="st13" cx="81.3" cy="55.3" rx="0.4" ry="0.4"></ellipse><ellipse transform="matrix(0.9996 -2.826728e-02 2.826728e-02 0.9996 -1.6448 2.3244)" class="st13" cx="81.4" cy="59.3" rx="0.4" ry="0.4"></ellipse><ellipse transform="matrix(0.9996 -2.826728e-02 2.826728e-02 0.9996 -1.5962 2.3785)" class="st13" cx="83.3" cy="57.6" rx="0.4" ry="0.4"></ellipse><ellipse transform="matrix(0.9996 -2.826728e-02 2.826728e-02 0.9996 -1.5601 2.3804)" class="st13" cx="83.4" cy="56.4" rx="0.4" ry="0.4"></ellipse><ellipse transform="matrix(0.9996 -2.826728e-02 2.826728e-02 0.9996 -1.5483 2.4048)" class="st13" cx="84.3" cy="56" rx="0.4" ry="0.4"></ellipse><ellipse transform="matrix(0.9996 -2.826728e-02 2.826728e-02 0.9996 -1.6069 2.3155)" class="st13" cx="81.1" cy="58" rx="0.4" ry="0.4"></ellipse><ellipse transform="matrix(0.9996 -2.826728e-02 2.826728e-02 0.9996 -1.5759 2.2716)" class="st13" cx="79.6" cy="56.9" rx="0.4" ry="0.4"></ellipse><ellipse transform="matrix(0.9996 -2.826728e-02 2.826728e-02 0.9996 -1.6432 2.361)" class="st13" cx="82.7" cy="59.3" rx="0.4" ry="0.4"></ellipse><ellipse transform="matrix(0.9996 -2.826728e-02 2.826728e-02 0.9996 -1.5984 2.4117)" class="st13" cx="84.5" cy="57.7" rx="0.4" ry="0.4"></ellipse><ellipse transform="matrix(0.9996 -2.826728e-02 2.826728e-02 0.9996 -1.6042 2.4432)" class="st13" cx="85.6" cy="58" rx="0.4" ry="0.4"></ellipse><ellipse transform="matrix(0.9996 -2.826728e-02 2.826728e-02 0.9996 -1.573 2.4312)" class="st13" cx="85.2" cy="56.9" rx="0.4" ry="0.4"></ellipse><ellipse transform="matrix(0.9996 -2.826728e-02 2.826728e-02 0.9996 -1.6277 2.4181)" class="st13" cx="84.7" cy="58.8" rx="0.4" ry="0.4"></ellipse><ellipse transform="matrix(0.9996 -2.826728e-02 2.826728e-02 0.9996 -1.5812 2.3989)" class="st13" cx="84.1" cy="57.1" rx="0.4" ry="0.4"></ellipse><ellipse transform="matrix(0.9996 -2.826728e-02 2.826728e-02 0.9996 -1.658 2.3988)" class="st13" cx="84" cy="59.8" rx="0.4" ry="0.4"></ellipse><path class="st18" d="M90.9,54.2C90.9,54.2,90.9,54.2,90.9,54.2C90.9,54.3,90.9,54.3,90.9,54.2C90.9,54.2,90.9,54.2,90.9,54.2z"></path><path class="st18" d="M90.9,54.2C90.9,54.2,90.9,54.2,90.9,54.2L90.9,54.2z"></path><path class="st18" d="M80.5,51.5C80.5,51.7,80.4,51.6,80.5,51.5C80.5,51.5,80.5,51.5,80.5,51.5z"></path><path class="st16" d="M74.7,58.6l0.6-0.2c0,0-0.3-0.1-0.4-0.2c0,0,0,0,0,0c0.4,0.2,1.2,0,0.8-0.1c-0.4-0.1-1.2-0.4-1.2-0.4l0.7-0.2
	c0,0-0.2-0.4-0.4-0.4c-0.2,0,0.8,0,0.8,0s-0.5-0.4-0.6-0.5s0.6-0.1,0.4-0.2c-0.2-0.1-0.4-0.3-0.4-0.3s0.3,0,0.4,0c0.1,0,0.1,0,0.1,0
	c0,0,0,0-0.1,0c-0.4,0-0.4-0.6-0.4-0.6l0.1-0.7c0,0,0.8,0.4,0.5,0s-0.8-0.6-0.4-0.6c0.4,0,0.6,0,0.6,0s0.5-0.1,0.4-0.2
	c-0.1-0.1-0.6-0.3-0.7-0.5c-0.2-0.1-0.4-0.6-0.2-0.5c0.2,0.1,0.9,0.4,0.9,0.4s-0.4-0.5-0.4-0.6c0-0.1,0.2-0.4,0.2-0.4l1,0.5
	c0,0,0.2-0.4,0.1-0.6c-0.2-0.2-0.7-0.6-0.7-0.7c0-0.2,0.6,0,0.6,0l0.3,0.3l0.1-0.4c0,0-0.4-0.6-0.1-0.5c0.3,0.1,1,1.3,1,0.9
	c0-0.5-0.3-1.2-0.3-1.2c-0.1,0,0.9,0.5,0.9,0.4c0-0.1,0-0.8,0-0.9c0-0.1,0.1-0.7,0.3-0.7c0.2,0,0.4,0.9,0.4,0.8
	c0-0.1,0.3-0.6,0.4-0.8c0.1-0.2,0.3,0.5,0.3,0.5s0-0.7,0.1-0.7c0.1,0,0.6,0.3,0.6,0.3s0.2-0.3,0.2-0.4c0,0,0.3,0.4,0.3,0.4l0.3-0.7
	l0.4,0.5l0.2-0.5c0,0,0.2,0.1,0.2,0.3c0,0.2,0,0.4,0,0.4c0.1-0.1,0.1-0.3,0.5-0.5c0.4-0.2,0.4-0.3,0.6-0.2c0.1,0.1-0.1,0.8-0.1,0.8
	L83.3,50l1.3-0.7l0,0.7c0.1,0.3,1.1,0.2,1.1,0.2l2-0.6l0.6-0.5c0,0,0.1,0.9,0,1c0,0.1,0.6,0.3,0.5,0.4c-0.1,0.1-0.1,0.6-0.1,0.6
	l0.9,0.2L89.1,52l1.1-0.1l-0.6,0.8l0.6,0.2l-0.4,0.3l0.9,0.2l-0.4,0.3c0,0-0.3,0.3-0.4,0.4c-0.1,0.1,0.1,0.4,0.3,0.4
	c0.1,0,0.5,0.1,0.6-0.1c0-0.1,0.1-0.1,0.1-0.2c-0.1,0.2,0,0.6-0.2,0.8c-0.3,0.2-1.1,0.6-1.1,0.8c0.1,0.1,0.2,0.3,0.2,0.5
	c0,0.2,0.2,0.7-0.2,0.8c-0.4,0.1-0.6,0.4-0.6,0.4s0,0.8-0.2,0.9c-0.2,0-0.6,0.3-0.3,0.6c0.2,0.2,0.7,0.5,0.3,0.5
	c-0.5,0.1-0.8,0.3-0.9,0.6c-0.3-0.1-0.4-0.4-0.3-0.4c0-0.1,0-0.2,0-0.3c0-0.1,0.3-0.5,0.3-0.5s0.1-0.7,0.1-0.9
	c0-0.1-0.1-0.3-0.2-0.4c-0.1-0.2-0.2-0.2,0-0.2c0.1-0.1,0-0.2-0.1-0.4c-0.1-0.1-0.1-0.5-0.2-0.6c-0.1-0.1,0.1-1.7-0.2-1.8
	c-0.2-0.1,0,0,0.2-0.7c0.2-0.7,0,0-0.1-0.3c-0.1-0.3,0.4-0.6,0-0.6c-0.4-0.1-0.2-0.4-0.5-0.7c-0.3-0.4-0.3-0.3-0.9-0.5
	c-0.6-0.2-0.5-0.1-0.6-0.1c-0.1,0-0.6,0-1,0.1c-0.4,0.1-0.4,0-0.4-0.1c-0.1-0.1,0-0.3-1.1-1c-1.1-0.8-0.6,0.2-0.8,0.3
	c-0.3,0.1-0.2,0.2-0.2,0.2c-0.1,0-0.9,0.1-1.1,0.4c0,0,0,0.1-0.1,0.1c-0.2-0.1-1.1,0-1.1,0.3c0,0.3-0.4,0.7-0.4,0.8
	c0,0.1-0.5,0.5-0.6,0.6c-0.1,0.1-0.5,0.2-0.4,0.4c0,0.2,0.4,0.4,0.6,0.6c0.2,0.1-1.4,0.1-1.2,0.6c0,0-0.6,0.2-0.6,0.6
	c0,0.5,0,0.2-0.3,0.1c-0.3,0,0.4,0.6,0.4,0.6l-0.5,0l0.8,0.5c0,0-0.7,0.1-1.1,0c-0.4,0,0.2,0.1,0.5,0.3c0.3,0.2,0.5,0.4,0,0.4
	c-0.5,0,0.3,0.1,0.3,0.1s0.1,0.1,1.2,0.1l-0.5,0.4l0.7,0c0,0,0,0.5,0,0.7c0,0.1-1.2-0.1-1.2-0.1s-0.5,0.4-0.9,0.8
	c-0.2,0-0.9-0.2-0.9-0.2L74.7,58.6z"></path><path class="st14" d="M78.4,60c0,0,0.7,0.2,0.7,0.4c0,0.2,0,0.3,0,0.3s0.7-0.2,0.7,0s0.2,0.4,0.2,0.4c0.2,0.5,0.2,0.7,0.2,0.7
	s0.4-0.3,0.5-0.2c0.1,0.1,0.6,0.3,0.6,0.3l0.5,0l1.1,0.1c0,0,0.3,0,0.3,0c0.1,0,0.5,0,0.5,0l-0.4,0.5c0,0-0.4,0.2-0.4,0.1s-1,0-1,0
	s-0.8,0.3-0.7,0.1c0-0.2-0.7,0.2-0.7,0.1c0-0.1-0.3-0.7-0.3-0.7c0,0.1-0.9,0-0.9-0.1c0-0.1,0-0.5-0.1-0.6s-0.6-0.3-0.7-0.4
	c-0.1,0-0.2-0.2-0.2-0.2L78,60.6c0,0,0.4-0.3,0.2-0.4C77.9,60.1,78.4,60,78.4,60z"></path></g></svg>