<?xml version="1.0" encoding="utf-8"?>
<svg id="Layer_1" data-name="Layer 1" viewBox="0 0 108 108" xmlns="http://www.w3.org/2000/svg">
  <defs>
    <style>
      .cls-1 {
        fill: #ff728b;
      }

      .cls-2 {
        fill: #ff3f62;
      }

      .cls-3 {
        fill: #ff0c38;
      }

      .cls-4 {
        fill: #ffeb99;
      }

      .cls-5 {
        fill: #ffda44;
      }
    </style>
  </defs>
  <g>
    <path class="cls-1" d="M 46 69.82 C 28.84 99.61 2.68 54.31 37.09 54.31 C 2.68 54.31 28.84 9 46 38.8 C 28.84 9 81.15 9 64 38.8 C 81.15 9 107.3 54.31 72.9 54.31 C 107.3 54.31 81.15 99.61 63.9 69.82 C 81.15 99.61 28.84 99.61 46 69.82 Z"/>
    <path class="cls-2" d="M 72.9 54.29 L 55.45 54.05 L 64 38.8 C 81.15 9 28.84 9 46 38.8 L 54.54 54 L 37.1 54.31 C 2.69 54.42 29 99.64 46.1 69.79 L 55 54.79 L 64 69.79 C 81.2 99.58 107.3 54.25 72.9 54.29 Z"/>
    <path class="cls-3" d="M 55 77.79 C 54.335 77.784 53.801 78.336 53.83 79 L 53.83 83.87 C 53.83 84.763 54.797 85.321 55.57 84.875 C 55.929 84.667 56.15 84.284 56.15 83.87 L 56.15 79 C 56.178 78.344 55.657 77.795 55 77.79 Z"/>
    <path class="cls-3" d="M 36.59 40.52 L 39.59 43 C 39.797 43.174 40.059 43.27 40.33 43.27 C 40.674 43.266 40.999 43.113 41.22 42.85 C 41.627 42.358 41.56 41.629 41.07 41.22 L 38.07 38.74 C 37.347 38.216 36.328 38.671 36.235 39.559 C 36.198 39.917 36.329 40.272 36.59 40.52 Z"/>
    <path class="cls-3" d="M 34.78 64 L 30.5 66.27 C 29.715 66.695 29.684 67.811 30.445 68.278 C 30.627 68.39 30.836 68.45 31.05 68.45 C 31.242 68.449 31.431 68.401 31.6 68.31 L 35.89 66 C 36.587 65.442 36.42 64.339 35.588 64.014 C 35.329 63.912 35.042 63.908 34.78 64 Z"/>
    <path class="cls-3" d="M 75.86 71.34 L 72.77 68.58 C 72.288 68.159 71.557 68.204 71.13 68.68 C 70.71 69.159 70.755 69.886 71.23 70.31 L 74.31 73.07 C 74.528 73.255 74.804 73.358 75.09 73.36 C 75.983 73.337 76.516 72.357 76.05 71.595 C 75.997 71.509 75.933 71.43 75.86 71.36 L 75.86 71.34 Z"/>
    <path class="cls-3" d="M 75.47 60.32 L 57.66 54 L 75.66 42.61 C 76.43 42.137 76.398 41.007 75.604 40.577 C 75.235 40.378 74.787 40.39 74.43 40.61 L 56.18 52.21 L 56.18 34.92 C 56.18 34.027 55.213 33.469 54.44 33.915 C 54.081 34.123 53.86 34.506 53.86 34.92 L 53.86 51.84 L 44.07 43.71 C 43.381 43.14 42.334 43.53 42.185 44.412 C 42.116 44.821 42.27 45.236 42.59 45.5 L 49.22 51 L 33.5 45.37 C 32.642 45.123 31.838 45.898 32.053 46.764 C 32.141 47.116 32.387 47.407 32.72 47.55 L 52.19 54.55 L 39.77 61.25 C 38.985 61.675 38.954 62.791 39.715 63.258 C 39.897 63.37 40.106 63.43 40.32 63.43 C 40.512 63.429 40.701 63.381 40.87 63.29 L 53.87 56.29 L 53.87 74.09 C 53.87 74.717 54.373 75.229 55 75.24 C 55.639 75.246 56.16 74.729 56.16 74.09 L 56.16 56.87 L 68.26 67.66 C 68.458 67.858 68.721 67.979 69 68 C 69.33 68.003 69.645 67.86 69.86 67.61 C 70.288 67.136 70.247 66.404 69.77 65.98 L 60.2 57.37 L 74.7 62.51 C 74.826 62.553 74.957 62.576 75.09 62.58 C 75.983 62.589 76.551 61.628 76.112 60.85 C 75.971 60.6 75.742 60.411 75.47 60.32 Z"/>
    <path class="cls-3" d="M 55 30.67 C 55.641 30.67 56.16 30.151 56.16 29.51 L 56.16 24.62 C 56.16 23.727 55.193 23.169 54.42 23.615 C 54.061 23.823 53.84 24.206 53.84 24.62 L 53.84 29.51 C 53.84 30.151 54.359 30.67 55 30.67 Z"/>
    <circle class="cls-4" cx="55.02" cy="54.31" r="9.04"/>
    <path class="cls-5" d="M 50.56 54.31 C 50.565 50.2 53.336 46.608 57.31 45.56 C 50.536 44.107 44.729 50.533 46.858 57.126 C 48.011 60.694 51.255 63.174 55 63.35 C 55.773 63.353 56.543 63.252 57.29 63.05 C 53.315 62.014 50.546 58.418 50.56 54.31 Z"/>
  </g>
</svg>