<?xml version="1.0" encoding="utf-8"?>
<!-- Generator: Adobe Illustrator 23.1.1, SVG Export Plug-In . SVG Version: 6.00 Build 0)  -->
<svg version="1.1" id="Layer_1" xmlns="http://www.w3.org/2000/svg" xmlns:xlink="http://www.w3.org/1999/xlink" x="0px" y="0px"
	 viewBox="0 0 108 108" style="enable-background:new 0 0 108 108;" xml:space="preserve">
<style type="text/css">
	.st0{fill:#72AA42;}
	.st1{fill:#85B541;}
	.st2{fill:#A6C339;}
	.st3{fill:#F7AAAA;}
	.st4{fill:#F59294;}
	.st5{fill:#EB8673;}
	.st6{fill:#F8AC9F;}
	.st7{fill:#F69D9A;}
	.st8{fill:#E45F51;}
	.st9{fill:#E76E63;}
	.st10{fill:#7C1918;}
	.st11{fill:none;stroke:#E9CBC2;stroke-width:0.19;stroke-miterlimit:10;}
	.st12{fill:#F0C7C0;}
	.st13{fill:#F9B7AD;}
	.st14{fill:#F6978D;}
	.st15{fill:#F4837A;}
	.st16{fill:#EC9E93;}
	.st17{clip-path:url(#SVGID_2_);fill:#F9B6A7;}
	.st18{fill:none;stroke:#E9CBC2;stroke-width:0.1625;stroke-miterlimit:10;}
	.st19{clip-path:url(#SVGID_4_);fill:#F9B6A7;}
	.st20{fill:none;stroke:#E9CBC2;stroke-width:0.1872;stroke-miterlimit:10;}
	.st21{clip-path:url(#SVGID_6_);fill:#F9B6A7;}
	.st22{fill:none;stroke:#E9CBC2;stroke-width:0.1586;stroke-miterlimit:10;}
	.st23{clip-path:url(#SVGID_8_);fill:#F9B6A7;}
	.st24{fill:none;stroke:#E9CBC2;stroke-width:0.1444;stroke-miterlimit:10;}
	.st25{clip-path:url(#SVGID_10_);fill:#F9B6A7;}
	.st26{fill:none;stroke:#E9CBC2;stroke-width:0.1339;stroke-miterlimit:10;}
	.st27{clip-path:url(#SVGID_12_);fill:#F9B6A7;}
	.st28{clip-path:url(#SVGID_14_);fill:#F9B6A7;}
	.st29{clip-path:url(#SVGID_16_);fill:#F9B6A7;}
	.st30{clip-path:url(#SVGID_18_);fill:#F9B6A7;}
	.st31{clip-path:url(#SVGID_20_);fill:#F9B6A7;}
</style>
<g>
	<path class="st0" d="M78.99,25.27c-3.35,4.96-6.18,10.14-8.68,15.42c-2.49,5.29-4.65,10.68-6.52,16.13
		c-1.87,5.46-3.46,10.98-4.73,16.53c-0.29,1.39-0.61,2.78-0.89,4.17l-0.39,2.08l-0.19,1.04l-0.16,1.04l-0.32,2.08
		c-0.11,0.69-0.17,1.38-0.26,2.07c-0.19,1.38-0.26,2.74-0.37,4.1l-8.68-0.74c0.3-1.49,0.56-2.99,0.94-4.44
		c0.18-0.73,0.34-1.46,0.54-2.18l0.6-2.15l0.3-1.07l0.33-1.06l0.67-2.13c0.46-1.41,0.96-2.81,1.43-4.21
		c1.99-5.58,4.29-11.06,6.86-16.43c2.57-5.37,5.41-10.63,8.58-15.74c3.17-5.1,6.65-10.05,10.59-14.7L78.99,25.27z"/>
	<path class="st1" d="M75.26,27.54c-2.78,4.89-5.05,9.96-7,15.11c-1.94,5.15-3.55,10.38-4.89,15.65
		c-1.33,5.27-2.39,10.59-3.15,15.91c-0.17,1.33-0.36,2.66-0.5,3.99l-0.2,1.99l-0.1,1l-0.07,0.99l-0.14,1.98
		c-0.05,0.66-0.05,1.32-0.08,1.97c-0.07,1.32-0.02,2.6-0.02,3.9l-8.3-0.17c0.16-1.43,0.29-2.86,0.53-4.25
		c0.11-0.7,0.2-1.4,0.34-2.09l0.4-2.07l0.2-1.03l0.23-1.03l0.46-2.05c0.32-1.36,0.68-2.71,1.02-4.07c1.44-5.4,3.18-10.72,5.19-15.95
		c2.01-5.23,4.28-10.38,6.87-15.4c2.59-5.02,5.5-9.91,8.87-14.54L75.26,27.54z"/>
	<path class="st2" d="M60.89,27.42c0.75,5.25,0.99,10.55,0.92,15.84c-0.07,5.3-0.47,10.59-1.11,15.86
		c-0.65,5.27-1.55,10.52-2.72,15.71c-0.31,1.29-0.6,2.59-0.93,3.88l-0.51,1.92l-0.25,0.96l-0.28,0.95l-0.56,1.9
		c-0.19,0.63-0.41,1.25-0.61,1.88c-0.39,1.26-0.88,2.46-1.33,3.67l7.32,1.75c0.35-1.38,0.73-2.76,1-4.13
		c0.14-0.68,0.3-1.37,0.42-2.05l0.37-2.04l0.18-1.02l0.15-1.02l0.3-2.04c0.19-1.36,0.34-2.71,0.51-4.07
		c0.59-5.42,0.9-10.83,0.95-16.22c0.04-5.39-0.17-10.76-0.71-16.08c-0.54-5.32-1.4-10.6-2.75-15.74L60.89,27.42z"/>
	<path class="st3" d="M75.22,48.25c0.64,0.47,1.88-0.06,1.88-0.06l1.29-0.74c0,0,0.04-0.79-0.08-1.13
		c-0.11-0.34-0.59-1.39-0.59-1.39l-0.91-0.74c0,0-1.2-0.31-1.58-0.07c-0.38,0.24-0.87,0.66-0.87,0.66l-0.11,1.45
		C74.24,46.23,74.66,47.84,75.22,48.25"/>
	<path class="st4" d="M68.46,41.23l-2.57,2.38l-0.91,1.77c0,0-1.27,0.43-0.75,0.91c0.52,0.48,0.95,0.32,1.51,0.99
		c0.56,0.67,1.18,1.63,1.18,1.63l0.51,0.89l1.91-0.33c0,0,0.99,0.09,1.42-0.36c0.42-0.45,1.56-1.91,1.81-2.24
		c0.25-0.33,0.8-1.67,0.8-1.67l-1.85-1.91l-1.75-1.36L68.46,41.23z"/>
	<path class="st5" d="M72.2,44.02c-0.03-0.03-1.53,0.83-1.94,1.22c-0.41,0.39-0.67,1.95-0.67,1.95l0.74,1.57
		c0,0-0.27,0.64,0.68,0.59c0.95-0.06,2.54-0.07,2.54-0.07s0.93,0.34,1.31,0.4c0.38,0.06,0.44,0.33,0.81-0.1
		c0.37-0.43,0.81-1.75,0.81-1.75l0.04-1.36c0,0-0.45-1.17-0.75-1.43c-0.3-0.26-1.27-0.91-1.27-0.91l-1.24-0.37L72.2,44.02z"/>
	<path class="st6" d="M74.89,38.5c-0.16-0.12-1.72-0.5-1.72-0.5l-1.57-0.15c0,0-1.08-0.09-1.5,0.01c-0.42,0.11-0.71,0.05-1.03,0.26
		c-0.32,0.21-0.62,0.5-0.62,0.5L68,39.86l0.22,1.2l0.84,1.07l0.28,1.92c0,0,0.87,0.71,1.39,0.93c0.52,0.21,1.3,0.12,1.3,0.12
		l1.42-0.62l0.78-1.27l0.8-2.01l0.06-1.53L74.89,38.5z"/>
	<path class="st7" d="M72.63,43.07c0,0-0.69-1.06-0.77-1.48c-0.08-0.42-0.17-1.21,0.55-1.79c0.71-0.57,0.55-0.69,1.28-0.95
		c0.73-0.26,1.45-0.63,2.08-0.53c0.64,0.1,2.63,0.38,2.63,0.38l1.1,0.45c0,0,0.07-0.04,0.26,0.27c0.2,0.32,0.63,1.15,0.57,1.69
		c-0.06,0.54-0.72,2.15-0.72,2.15s-0.68,1.56-1.29,1.82c-0.61,0.26-2.01,0.64-2.24,0.67c-0.23,0.03-1.43-0.32-1.43-0.32l-1.43-0.66
		L72.63,43.07z"/>
	<path class="st8" d="M71.38,45.25c-0.11-0.33-0.53-0.95-0.51-1.51c0.02-0.55,0.31-1.66,0.49-1.92c0.18-0.26,0.73-1.69,0.78-1.75
		c0.05-0.06-0.62-1.8,0.99-0.56s1.03,0.99,1.03,0.99l1.61,0.66l0.93,1.17l-1.12,1.41l-1.4,0.62l-0.25,1.04c0,0-0.61-0.94-0.74,0.19
		c-0.13,1.13,0.51,1.27-0.13,1.13c-0.64-0.14-0.51,0.17-0.51,0.17l-0.21-0.87l-0.7-0.31L71.38,45.25z"/>
	<path class="st9" d="M69.53,45.54l-2.98,1.7l-0.67-0.6c0,0-0.15-0.45,0.29-0.52c0.44-0.07,1.21-0.31,1.21-0.31l0.94-0.44l0.61-0.15
		l0.26,0.14l0.26-0.07l0.81-0.05L69.53,45.54z"/>
	<path class="st10" d="M71.95,43.56l-0.18,0.57c0,0,0.06,0.73,0.26,0.77c0.2,0.04,0.61-0.42,0.61-0.42l0.82,0.24l0.34-0.53
		l0.01-0.25l0.59-0.47l-0.7-0.59c0,0,0.1,0.53-0.48,0.37c-0.58-0.16-0.66-0.4-0.66-0.4L71.95,43.56z"/>
	<path class="st11" d="M72.95,44.07c0,0-1.04-1.07-1.6-1.31"/>
	<path class="st11" d="M73.09,43.91c0-0.04-0.51-1.18-0.56-2.07"/>
	<path class="st11" d="M72.83,43.74c0,0-0.86-1.12-1.57-1.47"/>
	<path class="st11" d="M73.05,44.04c0,0-0.88-1.4-1.13-2.17"/>
	<path class="st12" d="M71.38,42.13c0.04,0.11-0.04,0.22-0.16,0.25c-0.12,0.03-0.26-0.03-0.29-0.14c-0.04-0.11,0.04-0.22,0.16-0.25
		C71.21,41.96,71.34,42.02,71.38,42.13"/>
	<path class="st12" d="M71.48,42.73c0.04,0.11-0.04,0.22-0.16,0.25c-0.13,0.03-0.26-0.03-0.29-0.14c-0.04-0.11,0.04-0.22,0.16-0.25
		C71.32,42.56,71.45,42.62,71.48,42.73"/>
	<path class="st12" d="M72.15,41.81c0.04,0.11-0.04,0.22-0.16,0.25c-0.12,0.03-0.26-0.03-0.29-0.14c-0.04-0.11,0.04-0.22,0.16-0.25
		C71.99,41.64,72.12,41.71,72.15,41.81"/>
	<path class="st12" d="M72.75,41.68c0.04,0.11-0.04,0.22-0.16,0.25c-0.13,0.03-0.26-0.03-0.29-0.14c-0.04-0.11,0.04-0.22,0.16-0.25
		C72.58,41.51,72.72,41.57,72.75,41.68"/>
	<path class="st3" d="M62.06,73.48l2.02-0.62l1.42-0.26c0,0,2.29-0.08,2.58-0.24c0.29-0.16,0.54-0.34,0.54-0.34
		s-0.12-0.82-0.76-1.35c-0.64-0.53-1.78-2.01-2.29-1.98c-0.5,0.03-2.05,0.36-2.05,0.36l-1.78,1.66l0.16,2.92"/>
	<path class="st13" d="M58.19,64.12c0,0,1.3-0.96,1.8-1.1c0.5-0.15,1.66-0.69,1.66-0.69s0.99-0.65,1.97-0.58
		c0.97,0.07,1,0.26,1,0.26s0.3,0.52,0.29,0.92c-0.01,0.41,0.39,1.59,0.34,1.86c-0.05,0.28-0.19,1.06-0.34,1.21
		c-0.15,0.15-0.84,0.67-0.84,0.67s-1.07,0.4-1.77,0.24c-0.7-0.16-1.91-0.44-1.91-0.44l-1.27-0.53L58.19,64.12z"/>
	<path class="st14" d="M53.68,68.35c0,0-0.89-0.35-1.06-0.88c-0.16-0.52,0-2.07-0.02-2.57c-0.02-0.5-0.3-0.08,0.22-0.61
		c0.51-0.53,0.94-0.58,1.22-0.88c0.28-0.3,0.73-0.82,0.73-0.82l0.97-0.49c0,0,0.54-0.48,0.85-0.2c0.3,0.28,0.44-0.04,0.93,0.43
		c0.49,0.48,0.37,0.74,0.75,0.92c0.38,0.18,0.29,0.11,0.76,0.3c0.47,0.19,0.8,0.15,0.96,0.55c0.16,0.4,0.56,1.25,0.43,1.37
		c-0.13,0.12-0.34,0.88-0.34,0.88s-0.68,1.55-0.69,1.73c-0.01,0.18-0.45,0.78-0.45,0.78l-1.16,0.27c0,0-1.53-0.64-2.35-0.54
		C54.6,68.69,53.68,68.35,53.68,68.35"/>
	<path class="st15" d="M57.3,72.88l1.41,1.35c0,0,2.02,0.59,2.16,0.91c0.13,0.32,0.18,0.14,0.41-0.1c0.23-0.23,1.27-1.27,1.27-1.27
		s0.82-0.1,1.07-0.52c0.25-0.41,0.33-0.46,0.4-0.89c0.07-0.43-0.07-1.34-0.07-1.34l-1.03-1.42l-1.81-0.68l-2.31,1.33l-1.43,0.99
		L57.3,72.88z"/>
	<path class="st16" d="M60.06,70.66l1.76,0.74c0,0,2.18-0.22,2.95-0.69c0.77-0.48,2.23-1.06,2.59-1.53
		c0.36-0.47,0.64-0.56,0.65-0.74c0.01-0.18-0.56-0.82-0.56-0.82l-2.01-1.3c0,0-2.2-1.38-3.18-1.12c-0.98,0.26-2.2,1.14-2.2,1.14
		l-0.76,1.18c0,0-0.16,0.69-0.16,0.81c0,0.12-0.27,0.43-0.27,0.78c0.01,0.35,0.2,0.64,0.2,0.64L60.06,70.66z"/>
	<path class="st6" d="M52.56,73.58c0.06,0.02,1.6,0.36,1.6,0.36l3.01-0.09c0,0,3.03-1.42,3.26-2.13c0.22-0.7,0.18-1.28-0.07-1.64
		c-0.25-0.36-1.57-1.32-1.6-1.4c-0.03-0.08-0.77-0.83-0.92-1.09c-0.15-0.26-1.75-0.92-1.75-0.92s-1.37-0.74-2.13,0.18
		c-0.76,0.92-1.5,2.04-1.75,2.9c-0.24,0.85-0.22,1.86-0.21,2.03C52.01,71.96,52.35,73.51,52.56,73.58"/>
	<g>
		<defs>
			<rect id="SVGID_1_" x="53.95" y="64.94" width="10.85" height="7.83"/>
		</defs>
		<clipPath id="SVGID_2_">
			<use xlink:href="#SVGID_1_"  style="overflow:visible;"/>
		</clipPath>
		<path class="st17" d="M54.37,68.53c-0.31,1.32-0.42,3.2-0.42,3.2l0.72,1.05l2.41-0.61c0,0,1.5-0.14,2.2-0.03
			c0.69,0.12,1.17-0.15,1.98-0.06c0.81,0.1,2.31-0.13,2.5-0.59c0.19-0.46,0.46-1.07,0.88-1.79s-0.19-2.5-0.19-2.5
			s-0.68-1.18-1.43-1.59c-0.75-0.4-2.43-0.67-2.43-0.67s-2.06,0.04-3.13,0.18c-1.07,0.14-2.28,0.93-2.28,0.93l-0.95,0.71
			L54.37,68.53z"/>
	</g>
	<path class="st8" d="M56.86,66.37c0.04,0.35,0,1.98,0,1.98l-0.64,1.19l0.06,1.32l1.32-0.8l0.1,0.64c0,0-0.72,0.76-0.18,0.96
		c0.54,0.2,1.59-0.58,1.59-0.58l0.39-1.27l1.37,0.15l0.72-0.11l0.42-0.82l-0.22-0.71l0.59-0.08c0,0,1.31,0.02,1.57-0.01
		c0.26-0.03-0.87-0.36-0.87-0.36l0.96-0.08c0,0-1.13-0.36-1.6-0.31c-0.46,0.05-0.93-0.14-0.63-0.21c0.3-0.07,0.63-0.44,0.63-0.44
		l-0.93,0.07l-0.19-0.4c0,0-0.33-0.19-0.6,0.05c-0.27,0.24-0.79,0.45-0.79,0.45s-0.2-0.51-0.19-0.61c0.01-0.09-0.47,0.11-0.47,0.11
		l-0.46-0.16l-0.44-0.22l-0.21,0.52c0,0-0.22-0.04-0.28-0.14c-0.07-0.1-0.3-0.2-0.3-0.2l-0.1,0.68L56.86,66.37z"/>
	<path class="st10" d="M59.47,69.29c0,0,0.22-0.69,0.28-0.82c0.06-0.13,0-0.39-0.04-0.59c-0.04-0.2-0.24-0.76-0.24-0.76
		s-0.02-0.02-0.33,0.08c-0.31,0.09-0.84,0.19-0.84,0.19l-0.47,0.22c0,0,0.35,0.88,0.52,1.19c0.17,0.31,0.53,0.32,0.53,0.32
		L59.47,69.29z"/>
	<path class="st18" d="M59.21,68.06c0,0-1.07,0.75-1.31,1.17"/>
	<path class="st18" d="M59.05,67.95c-0.04,0-1.17,0.36-2.05,0.38"/>
	<path class="st18" d="M58.88,68.14c0,0-1.12,0.62-1.48,1.14"/>
	<path class="st18" d="M59.18,67.98c0,0-1.4,0.63-2.16,0.8"/>
	<path class="st12" d="M57.27,69.19c0.11-0.03,0.22,0.03,0.25,0.12c0.03,0.09-0.03,0.19-0.14,0.21c-0.11,0.02-0.22-0.03-0.25-0.12
		C57.1,69.31,57.17,69.22,57.27,69.19"/>
	<path class="st12" d="M57.86,69.12c0.11-0.02,0.22,0.03,0.25,0.12c0.03,0.09-0.03,0.19-0.14,0.21c-0.11,0.03-0.22-0.03-0.25-0.12
		C57.69,69.24,57.76,69.15,57.86,69.12"/>
	<path class="st12" d="M56.97,68.61c0.11-0.02,0.22,0.03,0.25,0.12c0.03,0.09-0.04,0.19-0.14,0.21c-0.11,0.03-0.22-0.03-0.25-0.12
		C56.8,68.73,56.87,68.64,56.97,68.61"/>
	<path class="st12" d="M56.85,68.16c0.11-0.02,0.22,0.03,0.25,0.12c0.03,0.09-0.03,0.19-0.14,0.21c-0.11,0.03-0.22-0.03-0.25-0.12
		C56.68,68.29,56.75,68.19,56.85,68.16"/>
	<path class="st3" d="M48.63,84.88l0.16,2.14l-0.12,1.45c0,0-0.62,2.23-0.51,2.56c0.11,0.33,0.27,0.63,0.27,0.63
		s1.08,0.14,1.96-0.31c0.88-0.45,3.12-1.08,3.24-1.58c0.12-0.49,0.18-2.09,0.18-2.09l-1.56-2.24l-3.78-0.77"/>
	<path class="st13" d="M61.79,84.1c0,0,0.81,1.55,0.84,2.08c0.03,0.53,0.35,1.81,0.35,1.81s0.51,1.16,0.12,2.07
		c-0.39,0.92-0.65,0.88-0.65,0.88s-0.75,0.12-1.27-0.01c-0.52-0.14-2.15-0.12-2.49-0.26c-0.34-0.14-1.29-0.51-1.43-0.71
		c-0.15-0.2-0.59-1.02-0.59-1.02s-0.17-1.15,0.25-1.77c0.43-0.62,1.16-1.7,1.16-1.7l1.08-1.06L61.79,84.1z"/>
	<path class="st14" d="M57.82,78.43c0,0,0.73-0.75,1.45-0.74c0.72,0.01,2.64,0.65,3.28,0.79c0.64,0.14,0.19-0.26,0.71,0.4
		c0.52,0.66,0.44,1.09,0.74,1.46c0.3,0.36,0.82,0.96,0.82,0.96l0.32,1.09c0,0,0.45,0.67-0.01,0.88c-0.46,0.2-0.08,0.44-0.84,0.76
		c-0.76,0.32-1.06,0.12-1.41,0.43c-0.35,0.31-0.23,0.25-0.62,0.64c-0.38,0.39-0.45,0.72-1.01,0.74c-0.56,0.03-1.77,0.15-1.88-0.02
		c-0.11-0.17-1.01-0.6-1.01-0.6s-1.76-1.14-1.99-1.21c-0.23-0.07-0.85-0.68-0.85-0.68l0.02-1.2c0,0,1.3-1.27,1.43-2.09
		C57.08,79.21,57.82,78.43,57.82,78.43"/>
	<path class="st15" d="M50.89,80.49l-2.17,0.93c0,0-1.39,1.76-1.84,1.79c-0.46,0.03-0.23,0.13-0.01,0.43
		c0.22,0.3,1.23,1.63,1.23,1.63s-0.13,0.82,0.32,1.19c0.45,0.37,0.49,0.47,1.01,0.67c0.53,0.2,1.73,0.35,1.73,0.35l2.14-0.54
		l1.44-1.53l-0.96-2.64l-0.81-1.69L50.89,80.49z"/>
	<path class="st16" d="M52.85,83.84l-1.5,1.46c0,0-0.41,2.17-0.04,3.06c0.36,0.89,0.65,2.47,1.13,2.97c0.49,0.5,0.52,0.8,0.74,0.86
		c0.23,0.07,1.22-0.28,1.22-0.28l2.3-1.52c0,0,2.45-1.68,2.43-2.7c-0.02-1.02-0.76-2.47-0.76-2.47l-1.27-1.1
		c0,0-0.83-0.37-0.98-0.41c-0.15-0.03-0.47-0.4-0.91-0.5c-0.45-0.1-0.89-0.01-0.89-0.01L52.85,83.84z"/>
	<path class="st6" d="M51.49,75.71c-0.05,0.05-0.97,1.43-0.97,1.43l-0.84,2.92c0,0,0.86,3.36,1.69,3.8
		c0.83,0.44,1.58,0.58,2.11,0.45c0.53-0.13,2.18-1.09,2.29-1.09c0.11,0,1.29-0.48,1.67-0.54c0.38-0.06,1.73-1.4,1.73-1.4
		s1.38-1.08,0.45-2.11c-0.93-1.02-2.13-2.09-3.14-2.59c-1.01-0.5-2.3-0.8-2.53-0.84C53.73,75.69,51.65,75.53,51.49,75.71"/>
	<g>
		<defs>
			<rect id="SVGID_3_" x="50.31" y="77.63" width="10.46" height="11.53"/>
		</defs>
		<clipPath id="SVGID_4_">
			<use xlink:href="#SVGID_3_"  style="overflow:visible;"/>
		</clipPath>
		<path class="st19" d="M57.36,79.04c-1.59-0.72-3.94-1.42-3.94-1.42l-1.56,0.36l0.02,2.51c0,0-0.29,1.49-0.66,2.12
			c-0.37,0.63-0.17,1.18-0.55,1.92c-0.38,0.75-0.56,2.26-0.04,2.59c0.53,0.33,1.23,0.78,2.01,1.41c0.78,0.64,3.25,0.61,3.25,0.61
			s1.73-0.29,2.48-0.88c0.75-0.59,1.62-2.13,1.62-2.13s0.6-2,0.76-3.07c0.15-1.07-0.46-2.49-0.46-2.49l-0.61-1.14L57.36,79.04z"/>
	</g>
	<path class="st8" d="M59.33,82.12c-0.45-0.07-2.53-0.62-2.53-0.62l-1.31-0.99l-1.7-0.36l0.6,1.52l-0.85-0.11
		c0,0-0.74-0.93-1.17-0.47c-0.42,0.46,0.24,1.71,0.24,1.71l1.5,0.77l-0.63,1.27l-0.09,0.73l0.91,0.67l0.97,0.01l-0.08,0.59
		c0,0-0.44,1.26-0.48,1.51c-0.04,0.26,0.73-0.72,0.73-0.72l-0.2,0.95c0,0,0.81-0.98,0.89-1.44c0.08-0.46,0.47-0.85,0.46-0.54
		c0,0.31,0.37,0.74,0.37,0.74l0.2-0.92l0.57-0.06c0,0,0.34-0.26,0.12-0.59c-0.22-0.33-0.33-0.9-0.33-0.9s0.72-0.03,0.83,0.01
		c0.11,0.04,0.01-0.48,0.01-0.48l0.35-0.39l0.42-0.36l-0.6-0.37c0,0,0.12-0.2,0.27-0.23c0.15-0.03,0.34-0.23,0.34-0.23l-0.83-0.31
		L59.33,82.12z"/>
	<path class="st10" d="M54.79,83.71c0,0,0.81,0.43,0.96,0.53c0.15,0.1,0.49,0.12,0.76,0.15c0.26,0.03,1.05,0.01,1.05,0.01
		s0.03-0.02,0-0.34c-0.02-0.32,0.02-0.87,0.02-0.87l-0.13-0.52c0,0-1.23,0.06-1.68,0.12c-0.45,0.06-0.57,0.41-0.57,0.41L54.79,83.71
		z"/>
	<path class="st20" d="M56.44,83.85c0,0-0.63-1.27-1.07-1.63"/>
	<path class="st20" d="M56.63,83.73c0.01-0.04-0.09-1.24,0.16-2.09"/>
	<path class="st20" d="M56.44,83.51c0,0-0.43-1.27-0.99-1.78"/>
	<path class="st20" d="M56.55,83.85c0,0-0.36-1.54-0.34-2.33"/>
	<path class="st12" d="M55.61,81.63c0,0.11-0.11,0.2-0.24,0.2c-0.13,0-0.23-0.09-0.23-0.2c0-0.11,0.11-0.2,0.24-0.2
		C55.5,81.42,55.61,81.51,55.61,81.63"/>
	<path class="st12" d="M55.51,82.22c0,0.11-0.11,0.2-0.24,0.2c-0.13,0-0.23-0.09-0.23-0.2c0-0.11,0.11-0.2,0.24-0.2
		C55.41,82.01,55.51,82.1,55.51,82.22"/>
	<path class="st12" d="M56.44,81.52c0,0.11-0.11,0.2-0.24,0.2c-0.13,0-0.23-0.09-0.23-0.2s0.11-0.2,0.24-0.2
		C56.34,81.32,56.44,81.41,56.44,81.52"/>
	<path class="st12" d="M57.05,81.55c0,0.11-0.11,0.2-0.24,0.2c-0.13,0-0.23-0.09-0.23-0.2c0-0.11,0.11-0.2,0.24-0.2
		C56.95,81.34,57.05,81.43,57.05,81.55"/>
	<path class="st3" d="M55.58,56.24l0.16,1.81l-0.08,1.22c0,0-0.5,1.89-0.4,2.17c0.1,0.28,0.23,0.53,0.23,0.53s0.92,0.11,1.65-0.28
		c0.74-0.39,2.62-0.95,2.72-1.36c0.1-0.42,0.13-1.77,0.13-1.77l-1.34-1.87l-3.2-0.61"/>
	<path class="st13" d="M66.69,55.46c0,0,0.7,1.3,0.74,1.75c0.03,0.44,0.32,1.53,0.32,1.53s0.45,0.97,0.13,1.75
		c-0.32,0.78-0.53,0.75-0.53,0.75s-0.64,0.11-1.07,0c-0.44-0.11-1.82-0.08-2.1-0.19c-0.29-0.11-1.09-0.42-1.22-0.59
		c-0.13-0.16-0.51-0.86-0.51-0.86s-0.16-0.97,0.19-1.5c0.35-0.53,0.96-1.44,0.96-1.44l0.9-0.9L66.69,55.46z"/>
	<path class="st14" d="M63.26,50.71c0,0,0.61-0.64,1.22-0.64c0.61,0,2.24,0.53,2.78,0.64c0.54,0.11,0.16-0.22,0.61,0.33
		c0.45,0.56,0.38,0.92,0.64,1.22c0.26,0.3,0.7,0.81,0.7,0.81l0.29,0.92c0,0,0.38,0.57,0,0.74c-0.38,0.18-0.06,0.37-0.7,0.65
		c-0.64,0.28-0.9,0.11-1.18,0.37c-0.29,0.26-0.19,0.21-0.51,0.54c-0.32,0.33-0.37,0.61-0.84,0.64c-0.47,0.03-1.5,0.14-1.59,0
		c-0.1-0.14-0.86-0.5-0.86-0.5s-1.5-0.94-1.7-1c-0.19-0.06-0.73-0.57-0.73-0.57v-1.02c0,0,1.08-1.08,1.18-1.78
		S63.26,50.71,63.26,50.71"/>
	<path class="st15" d="M57.44,52.52l-1.82,0.81c0,0-1.15,1.5-1.54,1.53c-0.38,0.03-0.19,0.11,0,0.36c0.19,0.25,1.06,1.36,1.06,1.36
		s-0.1,0.69,0.29,1c0.38,0.31,0.42,0.39,0.86,0.56c0.45,0.17,1.46,0.28,1.46,0.28l1.8-0.48l1.2-1.31l-0.85-2.22l-0.7-1.42
		L57.44,52.52z"/>
	<path class="st16" d="M59.13,55.32l-1.25,1.25c0,0-0.32,1.83,0,2.58c0.32,0.75,0.58,2.08,0.99,2.5c0.42,0.42,0.45,0.67,0.64,0.72
		c0.19,0.06,1.02-0.25,1.02-0.25l1.92-1.31c0,0,2.05-1.44,2.02-2.31c-0.03-0.86-0.67-2.08-0.67-2.08l-1.09-0.92
		c0,0-0.7-0.31-0.83-0.33c-0.13-0.03-0.4-0.33-0.77-0.42c-0.38-0.08-0.75,0-0.75,0L59.13,55.32z"/>
	<path class="st6" d="M57.89,48.47c-0.04,0.04-0.8,1.22-0.8,1.22l-0.67,2.47c0,0,0.77,2.83,1.47,3.2c0.7,0.36,1.34,0.47,1.79,0.36
		c0.45-0.11,1.82-0.94,1.92-0.94c0.1,0,1.09-0.42,1.41-0.47c0.32-0.06,1.44-1.2,1.44-1.2s1.15-0.93,0.35-1.78
		c-0.8-0.85-1.82-1.74-2.69-2.16c-0.86-0.42-1.95-0.65-2.14-0.69C59.77,48.43,58.01,48.31,57.89,48.47"/>
	<g>
		<defs>
			<rect id="SVGID_5_" x="57.01" y="50.07" width="8.79" height="9.72"/>
		</defs>
		<clipPath id="SVGID_6_">
			<use xlink:href="#SVGID_5_"  style="overflow:visible;"/>
		</clipPath>
		<path class="st21" d="M62.88,51.23c-1.35-0.59-3.35-1.16-3.35-1.16l-1.31,0.32l0.05,2.12c0,0-0.23,1.26-0.53,1.8
			c-0.3,0.53-0.13,1-0.44,1.63c-0.31,0.63-0.45,1.92,0,2.19c0.45,0.28,1.05,0.65,1.71,1.17c0.67,0.53,2.75,0.48,2.75,0.48
			s1.46-0.26,2.09-0.76c0.63-0.51,1.34-1.82,1.34-1.82s0.48-1.69,0.6-2.6c0.12-0.91-0.42-2.1-0.42-2.1l-0.53-0.95L62.88,51.23z"/>
	</g>
	<path class="st8" d="M64.59,53.81c-0.38-0.06-2.14-0.5-2.14-0.5l-1.12-0.83l-1.44-0.28l0.53,1.28l-0.72-0.08
		c0,0-0.64-0.78-0.99-0.39c-0.35,0.39,0.22,1.44,0.22,1.44l1.28,0.64l-0.51,1.08l-0.06,0.62l0.78,0.56h0.82l-0.06,0.5
		c0,0-0.35,1.06-0.38,1.28c-0.03,0.22,0.61-0.62,0.61-0.62l-0.16,0.81c0,0,0.67-0.83,0.74-1.22c0.06-0.39,0.38-0.72,0.38-0.46
		c0,0.27,0.32,0.63,0.32,0.63l0.16-0.78l0.48-0.06c0,0,0.29-0.22,0.1-0.5c-0.19-0.28-0.29-0.76-0.29-0.76s0.61-0.04,0.7,0
		c0.1,0.04,0-0.41,0-0.41l0.29-0.33l0.35-0.3l-0.51-0.31c0,0,0.1-0.17,0.22-0.19c0.13-0.03,0.29-0.19,0.29-0.19l-0.7-0.26
		L64.59,53.81z"/>
	<path class="st10" d="M60.77,55.2c0,0,0.69,0.35,0.82,0.44c0.13,0.08,0.42,0.1,0.64,0.12c0.22,0.02,0.88,0,0.88,0s0.02-0.02,0-0.29
		c-0.02-0.27,0.01-0.73,0.01-0.73l-0.12-0.44c0,0-1.04,0.06-1.42,0.12c-0.38,0.06-0.48,0.35-0.48,0.35L60.77,55.2z"/>
	<path class="st22" d="M62.17,55.3c0,0-0.54-1.06-0.93-1.37"/>
	<path class="st22" d="M62.33,55.2c0.01-0.03-0.09-1.05,0.11-1.77"/>
	<path class="st22" d="M62.17,55.01c0,0-0.38-1.07-0.86-1.49"/>
	<path class="st22" d="M62.26,55.3c0,0-0.33-1.3-0.32-1.96"/>
	<path class="st12" d="M61.44,53.43c0,0.09-0.09,0.17-0.2,0.17c-0.11,0-0.2-0.08-0.2-0.17c0-0.09,0.09-0.17,0.2-0.17
		C61.35,53.26,61.44,53.33,61.44,53.43"/>
	<path class="st12" d="M61.36,53.93c0,0.09-0.09,0.17-0.2,0.17c-0.11,0-0.2-0.08-0.2-0.17c0-0.09,0.09-0.17,0.2-0.17
		C61.27,53.76,61.36,53.83,61.36,53.93"/>
	<path class="st12" d="M62.14,53.33c0,0.09-0.09,0.17-0.2,0.17c-0.11,0-0.2-0.08-0.2-0.17c0-0.09,0.09-0.17,0.2-0.17
		C62.05,53.16,62.14,53.24,62.14,53.33"/>
	<path class="st12" d="M62.65,53.35c0,0.09-0.09,0.17-0.2,0.17c-0.11,0-0.2-0.08-0.2-0.17c0-0.09,0.09-0.17,0.2-0.17
		C62.57,53.18,62.65,53.25,62.65,53.35"/>
	<path class="st3" d="M57.53,34.17l-1.78,0.58l-1.26,0.25c0,0-2.03,0.11-2.29,0.25c-0.26,0.14-0.47,0.31-0.47,0.31
		s0.12,0.73,0.7,1.19c0.58,0.46,1.62,1.76,2.07,1.72c0.45-0.03,1.82-0.35,1.82-0.35l1.55-1.5l-0.2-2.59"/>
	<path class="st13" d="M61.15,42.43c0,0-1.14,0.87-1.58,1.01c-0.44,0.14-1.46,0.63-1.46,0.63s-0.87,0.59-1.74,0.54
		c-0.87-0.04-0.89-0.22-0.89-0.22s-0.27-0.46-0.27-0.82s-0.38-1.4-0.34-1.65c0.04-0.25,0.15-0.94,0.28-1.08
		c0.13-0.14,0.74-0.61,0.74-0.61s0.94-0.37,1.56-0.24c0.62,0.13,1.7,0.36,1.7,0.36l1.14,0.45L61.15,42.43z"/>
	<path class="st14" d="M65.08,38.61c0,0,0.8,0.3,0.96,0.76c0.16,0.46,0.04,1.84,0.07,2.28c0.03,0.44,0.27,0.07-0.18,0.55
		c-0.45,0.48-0.83,0.53-1.07,0.8c-0.24,0.27-0.63,0.74-0.63,0.74l-0.85,0.45c0,0-0.47,0.44-0.75,0.19
		c-0.28-0.25-0.39,0.05-0.84-0.37c-0.44-0.42-0.34-0.65-0.68-0.81c-0.34-0.15-0.26-0.09-0.68-0.25c-0.42-0.16-0.71-0.13-0.86-0.48
		c-0.15-0.35-0.52-1.1-0.41-1.21c0.12-0.11,0.29-0.79,0.29-0.79s0.57-1.39,0.58-1.55c0.01-0.16,0.39-0.7,0.39-0.7l1.03-0.26
		c0,0,1.37,0.55,2.1,0.44C64.25,38.32,65.08,38.61,65.08,38.61"/>
	<path class="st15" d="M61.77,34.64l-1.28-1.18c0,0-1.81-0.49-1.94-0.78c-0.13-0.29-0.16-0.12-0.36,0.09
		c-0.2,0.21-1.11,1.15-1.11,1.15s-0.73,0.1-0.94,0.47c-0.21,0.37-0.29,0.42-0.34,0.8c-0.05,0.38,0.09,1.19,0.09,1.19l0.94,1.25
		l1.63,0.58L60.49,37l1.25-0.9L61.77,34.64z"/>
	<path class="st16" d="M59.36,36.65l-1.58-0.63c0,0-1.94,0.22-2.61,0.66c-0.68,0.44-1.96,0.97-2.27,1.39
		c-0.32,0.42-0.56,0.51-0.57,0.67c-0.01,0.16,0.51,0.72,0.51,0.72l1.81,1.13c0,0,1.98,1.19,2.85,0.95c0.86-0.24,1.93-1.04,1.93-1.04
		l0.65-1.06c0,0,0.13-0.61,0.12-0.72c0-0.1,0.24-0.39,0.22-0.7c-0.01-0.31-0.19-0.57-0.19-0.57L59.36,36.65z"/>
	<path class="st6" d="M65.97,33.94c-0.06-0.02-1.43-0.3-1.43-0.3l-2.67,0.12c0,0-2.67,1.31-2.85,1.94
		c-0.19,0.63-0.13,1.14,0.09,1.46c0.23,0.31,1.42,1.15,1.44,1.22c0.02,0.07,0.7,0.72,0.84,0.95c0.14,0.23,1.57,0.79,1.57,0.79
		s1.23,0.64,1.89-0.19c0.66-0.83,1.3-1.84,1.5-2.6c0.2-0.76,0.16-1.65,0.15-1.81C66.49,35.37,66.16,34,65.97,33.94"/>
	<g>
		<defs>
			<rect id="SVGID_7_" x="55.18" y="34.69" width="9.59" height="7.05"/>
		</defs>
		<clipPath id="SVGID_8_">
			<use xlink:href="#SVGID_7_"  style="overflow:visible;"/>
		</clipPath>
		<path class="st23" d="M64.46,38.46c0.25-1.18,0.31-2.85,0.31-2.85l-0.66-0.92l-2.13,0.58c0,0-1.33,0.15-1.95,0.06
			c-0.62-0.09-1.04,0.15-1.76,0.08c-0.72-0.08-2.05,0.15-2.21,0.56c-0.16,0.41-0.38,0.96-0.75,1.6c-0.36,0.64,0.22,2.22,0.22,2.22
			s0.63,1.04,1.31,1.39C57.5,41.53,59,41.74,59,41.74s1.83-0.06,2.78-0.21c0.95-0.14,2.01-0.86,2.01-0.86l0.83-0.65L64.46,38.46z"/>
	</g>
	<path class="st8" d="M62.29,40.41c-0.04-0.31-0.04-1.76-0.04-1.76l0.55-1.06l-0.08-1.17l-1.16,0.73l-0.1-0.57
		c0,0,0.62-0.69,0.14-0.85c-0.48-0.17-1.4,0.54-1.4,0.54l-0.32,1.14l-1.22-0.11l-0.64,0.11l-0.36,0.74l0.21,0.62l-0.52,0.08
		c0,0-1.17,0-1.39,0.04c-0.23,0.03,0.78,0.31,0.78,0.31l-0.85,0.08c0,0,1.01,0.3,1.42,0.25c0.41-0.05,0.83,0.11,0.56,0.17
		c-0.27,0.07-0.55,0.4-0.55,0.4l0.83-0.08l0.18,0.35c0,0,0.3,0.16,0.53-0.05c0.23-0.22,0.69-0.41,0.69-0.41s0.19,0.45,0.18,0.54
		c-0.01,0.08,0.41-0.11,0.41-0.11l0.41,0.13l0.4,0.19l0.18-0.47c0,0,0.19,0.03,0.25,0.12c0.06,0.09,0.27,0.17,0.27,0.17l0.08-0.6
		L62.29,40.41z"/>
	<path class="st10" d="M59.91,37.86c0,0-0.18,0.61-0.23,0.73c-0.05,0.12,0.01,0.34,0.05,0.52c0.04,0.17,0.23,0.67,0.23,0.67
		s0.02,0.01,0.29-0.07c0.27-0.09,0.74-0.18,0.74-0.18l0.41-0.2c0,0-0.33-0.77-0.48-1.05c-0.15-0.28-0.48-0.27-0.48-0.27L59.91,37.86
		z"/>
	<path class="st24" d="M60.17,38.95c0,0,0.93-0.69,1.14-1.06"/>
	<path class="st24" d="M60.31,39.04c0.04,0,1.03-0.34,1.82-0.37"/>
	<path class="st24" d="M60.45,38.88c0,0,0.98-0.57,1.29-1.04"/>
	<path class="st24" d="M60.19,39.02c0,0,1.23-0.58,1.9-0.74"/>
	<path class="st12" d="M61.86,37.91c-0.1,0.02-0.19-0.02-0.22-0.11c-0.03-0.08,0.03-0.17,0.12-0.19c0.09-0.02,0.19,0.02,0.22,0.11
		C62.02,37.8,61.96,37.89,61.86,37.91"/>
	<path class="st12" d="M61.34,37.98c-0.1,0.02-0.19-0.02-0.22-0.11c-0.03-0.08,0.03-0.17,0.12-0.19c0.09-0.02,0.19,0.02,0.22,0.11
		C61.49,37.87,61.44,37.96,61.34,37.98"/>
	<path class="st12" d="M62.14,38.43c-0.1,0.02-0.19-0.02-0.22-0.11s0.03-0.17,0.12-0.19c0.09-0.02,0.19,0.02,0.22,0.11
		C62.29,38.32,62.24,38.4,62.14,38.43"/>
	<path class="st12" d="M62.26,38.82c-0.1,0.02-0.19-0.02-0.22-0.11c-0.03-0.08,0.03-0.17,0.12-0.19c0.1-0.02,0.19,0.02,0.22,0.11
		C62.41,38.71,62.35,38.8,62.26,38.82"/>
	<path class="st3" d="M75.12,35.34l1.75,0.18l1.16,0.25c0,0,1.73,0.66,2.01,0.64c0.28-0.02,0.54-0.08,0.54-0.08s0.25-0.64,0-1.24
		c-0.25-0.59-0.48-2.04-0.86-2.18c-0.38-0.14-1.67-0.38-1.67-0.38l-2.01,0.67l-1.1,2.21"/>
	<path class="st13" d="M76.17,27.22c0,0,1.36-0.3,1.79-0.25c0.43,0.05,1.51,0.02,1.51,0.02s1-0.17,1.69,0.19
		c0.69,0.36,0.63,0.51,0.63,0.51s0,0.47-0.17,0.77c-0.18,0.3-0.37,1.29-0.52,1.48c-0.15,0.19-0.58,0.72-0.76,0.78
		c-0.18,0.06-0.9,0.23-0.9,0.23s-0.95-0.04-1.4-0.38c-0.45-0.34-1.23-0.92-1.23-0.92l-0.72-0.79L76.17,27.22z"/>
	<path class="st14" d="M71.08,28.92c0,0-0.51-0.54-0.42-0.98c0.1-0.44,0.87-1.53,1.06-1.9c0.19-0.37-0.19-0.15,0.42-0.38
		c0.6-0.23,0.94-0.13,1.27-0.26c0.33-0.13,0.88-0.38,0.88-0.38l0.92-0.06c0,0,0.6-0.19,0.71,0.12c0.11,0.3,0.34,0.11,0.51,0.61
		c0.16,0.51-0.04,0.66,0.17,0.91c0.21,0.25,0.17,0.17,0.44,0.46c0.27,0.28,0.52,0.36,0.47,0.71c-0.05,0.34-0.11,1.1-0.26,1.15
		c-0.15,0.05-0.62,0.54-0.62,0.54s-1.14,0.93-1.23,1.06c-0.08,0.13-0.66,0.43-0.66,0.43l-0.97-0.16c0,0-0.86-0.95-1.51-1.13
		C71.62,29.46,71.08,28.92,71.08,28.92"/>
	<path class="st15" d="M71.86,33.4l0.48,1.44c0,0,1.25,1.07,1.21,1.35c-0.04,0.28,0.08,0.16,0.35,0.06c0.27-0.1,1.47-0.54,1.47-0.54
		s0.65,0.18,1-0.05c0.35-0.23,0.44-0.24,0.67-0.53c0.23-0.3,0.5-1.01,0.5-1.01l-0.16-1.37l-1.05-1.07l-2.26,0.25l-1.47,0.28
		L71.86,33.4z"/>
	<path class="st16" d="M74.82,32.63l0.99,1.1c0,0,1.7,0.53,2.47,0.42c0.77-0.11,2.08-0.08,2.55-0.31c0.47-0.23,0.71-0.21,0.79-0.34
		c0.08-0.13-0.07-0.78-0.07-0.78l-0.94-1.59c0,0-1.05-1.71-1.88-1.82c-0.83-0.12-2.1,0.15-2.1,0.15l-1.05,0.64
		c0,0-0.41,0.46-0.45,0.55c-0.05,0.09-0.38,0.23-0.52,0.49c-0.14,0.26-0.12,0.54-0.12,0.54L74.82,32.63z"/>
	<path class="st6" d="M68.07,32.43c0.04,0.03,1.03,0.77,1.03,0.77l2.25,0.88c0,0,2.83-0.1,3.29-0.55c0.46-0.45,0.67-0.89,0.63-1.23
		c-0.03-0.34-0.61-1.47-0.59-1.54c0.02-0.07-0.22-0.85-0.22-1.09c0-0.24-0.91-1.23-0.91-1.23s-0.7-0.98-1.65-0.54
		c-0.95,0.44-1.96,1.03-2.5,1.59c-0.54,0.55-0.94,1.3-1,1.43C68.34,31.06,67.94,32.31,68.07,32.43"/>
	<g>
		<defs>
			<rect id="SVGID_9_" x="69.87" y="27.61" width="9.64" height="6.9"/>
		</defs>
		<clipPath id="SVGID_10_">
			<use xlink:href="#SVGID_9_"  style="overflow:visible;"/>
		</clipPath>
		<path class="st25" d="M71.51,29.27c-0.78,0.88-1.65,2.23-1.65,2.23l0.1,1L72,32.8c0,0,1.17,0.37,1.63,0.67
			c0.46,0.3,0.93,0.25,1.49,0.58c0.55,0.33,1.76,0.63,2.09,0.35c0.33-0.28,0.78-0.65,1.4-1.04c0.61-0.4,0.9-1.9,0.9-1.9
			s-0.01-1.09-0.4-1.62c-0.38-0.53-1.52-1.26-1.52-1.26s-1.54-0.62-2.39-0.85c-0.85-0.23-2.07-0.04-2.07-0.04l-1,0.23L71.51,29.27z"
			/>
	</g>
	<path class="st8" d="M74.25,28.46c-0.11,0.27-0.82,1.46-0.82,1.46l-0.97,0.67l-0.5,0.99l1.31-0.17l-0.2,0.5
		c0,0-0.85,0.34-0.53,0.65c0.31,0.32,1.42,0.07,1.42,0.07l0.82-0.82l0.95,0.54l0.58,0.15l0.66-0.47l0.13-0.59l0.47,0.13
		c0,0,0.96,0.43,1.16,0.48c0.2,0.06-0.49-0.54-0.49-0.54l0.74,0.24c0,0-0.69-0.62-1.05-0.73c-0.36-0.11-0.63-0.39-0.38-0.35
		c0.25,0.04,0.65-0.13,0.65-0.13l-0.72-0.24l0.02-0.35c0,0-0.17-0.24-0.46-0.15c-0.3,0.09-0.77,0.09-0.77,0.09s0.06-0.44,0.11-0.51
		c0.05-0.06-0.39-0.07-0.39-0.07l-0.27-0.26l-0.23-0.3l-0.38,0.32c0,0-0.14-0.1-0.15-0.19c-0.01-0.1-0.14-0.24-0.14-0.24l-0.36,0.47
		L74.25,28.46z"/>
	<path class="st10" d="M74.96,31.44c0,0,0.45-0.44,0.55-0.52c0.1-0.08,0.16-0.29,0.22-0.44c0.06-0.16,0.14-0.64,0.14-0.64
		s-0.01-0.02-0.28-0.05s-0.7-0.13-0.7-0.13l-0.44,0.02c0,0-0.11,0.76-0.12,1.04c-0.01,0.28,0.26,0.4,0.26,0.4L74.96,31.44z"/>
	<path class="st26" d="M75.28,30.45c0,0-1.1,0.22-1.46,0.45"/>
	<path class="st26" d="M75.21,30.32c-0.03-0.01-1.01-0.1-1.67-0.37"/>
	<path class="st26" d="M75.01,30.4c0,0-1.08,0.1-1.56,0.38"/>
	<path class="st26" d="M75.29,30.38c0,0-1.29,0.03-1.93-0.09"/>
	<path class="st12" d="M73.38,30.67c0.09,0.02,0.15,0.09,0.13,0.17c-0.02,0.08-0.1,0.13-0.19,0.11c-0.09-0.02-0.15-0.09-0.13-0.17
		C73.2,30.71,73.29,30.66,73.38,30.67"/>
	<path class="st12" d="M73.84,30.81c0.09,0.02,0.15,0.09,0.13,0.17c-0.02,0.08-0.1,0.13-0.19,0.11c-0.09-0.01-0.15-0.09-0.13-0.17
		C73.67,30.84,73.75,30.79,73.84,30.81"/>
	<path class="st12" d="M73.4,30.15c0.09,0.02,0.15,0.09,0.13,0.17c-0.02,0.08-0.1,0.13-0.19,0.11c-0.09-0.02-0.15-0.09-0.13-0.17
		C73.22,30.19,73.31,30.13,73.4,30.15"/>
	<path class="st12" d="M73.5,29.78c0.09,0.02,0.15,0.09,0.13,0.17c-0.02,0.08-0.1,0.13-0.19,0.11c-0.09-0.01-0.15-0.09-0.13-0.17
		C73.32,29.82,73.41,29.77,73.5,29.78"/>
	<path class="st3" d="M53.03,28.49l0.14,1.53l-0.07,1.03c0,0-0.42,1.6-0.34,1.83c0.08,0.23,0.2,0.45,0.2,0.45s0.78,0.09,1.4-0.23
		c0.62-0.33,2.22-0.8,2.3-1.15c0.08-0.35,0.11-1.49,0.11-1.49l-1.14-1.58l-2.7-0.52"/>
	<path class="st13" d="M62.41,27.83c0,0,0.59,1.1,0.62,1.48c0.03,0.38,0.27,1.29,0.27,1.29s0.38,0.82,0.11,1.48
		c-0.27,0.66-0.45,0.63-0.45,0.63s-0.54,0.09-0.91,0c-0.37-0.09-1.53-0.07-1.78-0.16c-0.24-0.09-0.92-0.36-1.03-0.5
		c-0.11-0.14-0.43-0.72-0.43-0.72s-0.14-0.82,0.16-1.27c0.3-0.45,0.81-1.22,0.81-1.22l0.76-0.76L62.41,27.83z"/>
	<path class="st14" d="M59.52,23.82c0,0,0.51-0.54,1.03-0.54c0.51,0,1.89,0.45,2.35,0.54c0.46,0.09,0.13-0.19,0.51,0.28
		c0.38,0.47,0.32,0.78,0.54,1.03c0.22,0.26,0.59,0.68,0.59,0.68l0.24,0.77c0,0,0.32,0.48,0,0.63c-0.32,0.15-0.05,0.31-0.59,0.55
		c-0.54,0.24-0.76,0.09-1,0.32c-0.24,0.22-0.16,0.18-0.43,0.46c-0.27,0.28-0.31,0.52-0.71,0.54c-0.4,0.02-1.26,0.12-1.35,0
		c-0.08-0.12-0.73-0.42-0.73-0.42s-1.27-0.8-1.43-0.85c-0.16-0.05-0.62-0.48-0.62-0.48v-0.86c0,0,0.91-0.92,0.99-1.5
		C59,24.38,59.52,23.82,59.52,23.82"/>
	<path class="st15" d="M54.6,25.34l-1.54,0.68c0,0-0.97,1.27-1.3,1.29c-0.32,0.02-0.16,0.09,0,0.3c0.16,0.21,0.89,1.15,0.89,1.15
		s-0.08,0.59,0.24,0.85c0.32,0.26,0.35,0.33,0.73,0.47c0.38,0.14,1.24,0.24,1.24,0.24l1.52-0.4l1.01-1.1l-0.71-1.88l-0.6-1.2
		L54.6,25.34z"/>
	<path class="st16" d="M56.03,27.71l-1.05,1.06c0,0-0.27,1.55,0,2.18c0.27,0.63,0.49,1.76,0.84,2.11c0.35,0.35,0.38,0.56,0.54,0.61
		c0.16,0.05,0.87-0.21,0.87-0.21l1.62-1.1c0,0,1.73-1.22,1.7-1.95s-0.57-1.76-0.57-1.76l-0.92-0.78c0,0-0.59-0.26-0.7-0.28
		c-0.11-0.02-0.34-0.28-0.66-0.35c-0.32-0.07-0.63,0-0.63,0L56.03,27.71z"/>
	<path class="st6" d="M54.98,21.92c-0.03,0.04-0.68,1.03-0.68,1.03l-0.57,2.09c0,0,0.65,2.39,1.24,2.7c0.59,0.3,1.14,0.4,1.51,0.3
		c0.38-0.09,1.54-0.8,1.62-0.8c0.08,0,0.92-0.35,1.19-0.4c0.27-0.05,1.22-1.01,1.22-1.01s0.97-0.79,0.3-1.51
		c-0.68-0.72-1.54-1.47-2.27-1.83c-0.73-0.35-1.65-0.55-1.81-0.58C56.57,21.89,55.08,21.79,54.98,21.92"/>
	<g>
		<defs>
			<rect id="SVGID_11_" x="54.24" y="23.28" width="7.43" height="8.21"/>
		</defs>
		<clipPath id="SVGID_12_">
			<use xlink:href="#SVGID_11_"  style="overflow:visible;"/>
		</clipPath>
		<path class="st27" d="M59.2,24.25c-1.14-0.5-2.83-0.98-2.83-0.98l-1.11,0.27l0.04,1.79c0,0-0.19,1.07-0.45,1.52
			c-0.25,0.45-0.11,0.84-0.37,1.38c-0.26,0.53-0.38,1.62,0,1.85c0.38,0.23,0.88,0.54,1.45,0.99c0.56,0.45,2.32,0.41,2.32,0.41
			s1.23-0.22,1.76-0.65c0.53-0.43,1.13-1.53,1.13-1.53s0.41-1.43,0.51-2.2c0.1-0.77-0.36-1.77-0.36-1.77l-0.44-0.81L59.2,24.25z"/>
	</g>
	<path class="st8" d="M60.64,26.43c-0.32-0.05-1.81-0.42-1.81-0.42l-0.95-0.7l-1.22-0.24l0.44,1.08l-0.61-0.07
		c0,0-0.54-0.66-0.84-0.33c-0.3,0.33,0.19,1.22,0.19,1.22l1.08,0.54l-0.43,0.91l-0.06,0.52l0.66,0.47h0.69l-0.05,0.42
		c0,0-0.3,0.9-0.32,1.08c-0.03,0.18,0.51-0.52,0.51-0.52l-0.13,0.68c0,0,0.57-0.7,0.62-1.03c0.05-0.33,0.32-0.61,0.32-0.39
		c0,0.22,0.27,0.53,0.27,0.53l0.14-0.66l0.41-0.05c0,0,0.24-0.19,0.08-0.42c-0.16-0.23-0.24-0.64-0.24-0.64s0.51-0.03,0.59,0
		c0.08,0.03,0-0.35,0-0.35l0.24-0.28l0.3-0.26l-0.43-0.26c0,0,0.08-0.14,0.19-0.16c0.11-0.02,0.24-0.16,0.24-0.16l-0.59-0.22
		L60.64,26.43z"/>
	<path class="st10" d="M57.41,27.61c0,0,0.58,0.3,0.69,0.37c0.11,0.07,0.36,0.08,0.54,0.1c0.19,0.02,0.75,0,0.75,0s0.02-0.01,0-0.25
		c-0.02-0.23,0.01-0.62,0.01-0.62l-0.1-0.37c0,0-0.88,0.05-1.2,0.1c-0.32,0.05-0.4,0.3-0.4,0.3L57.41,27.61z"/>
	<path class="st26" d="M58.59,27.69c0,0-0.46-0.9-0.78-1.16"/>
	<path class="st26" d="M58.73,27.61c0.01-0.03-0.08-0.88,0.09-1.49"/>
	<path class="st26" d="M58.59,27.45c0,0-0.32-0.91-0.73-1.26"/>
	<path class="st26" d="M58.67,27.69c0,0-0.28-1.1-0.27-1.66"/>
	<path class="st12" d="M57.97,26.11c0,0.08-0.07,0.14-0.17,0.14c-0.09,0-0.17-0.06-0.17-0.14c0-0.08,0.07-0.14,0.17-0.14
		C57.9,25.97,57.97,26.03,57.97,26.11"/>
	<path class="st12" d="M57.91,26.53c0,0.08-0.07,0.14-0.17,0.14c-0.09,0-0.17-0.06-0.17-0.14c0-0.08,0.07-0.14,0.17-0.14
		C57.84,26.39,57.91,26.45,57.91,26.53"/>
	<path class="st12" d="M58.57,26.03c0,0.08-0.07,0.14-0.17,0.14c-0.09,0-0.17-0.06-0.17-0.14c0-0.08,0.07-0.14,0.17-0.14
		C58.5,25.89,58.57,25.95,58.57,26.03"/>
	<path class="st12" d="M59,26.04c0,0.08-0.07,0.14-0.17,0.14c-0.09,0-0.17-0.06-0.17-0.14c0-0.08,0.07-0.14,0.17-0.14
		C58.93,25.9,59,25.96,59,26.04"/>
	<path class="st0" d="M34.36,20.8c2.53,5.42,4.52,10.98,6.16,16.59c1.64,5.61,2.92,11.28,3.91,16.96
		c0.99,5.68,1.69,11.38,2.08,17.06c0.07,1.42,0.17,2.84,0.22,4.25l0.06,2.12l0.03,1.06l0,1.05L46.8,82c0,0.7-0.05,1.39-0.07,2.09
		c-0.03,1.4-0.18,2.75-0.28,4.11l8.69,0.63c-0.06-1.52-0.09-3.04-0.23-4.53c-0.07-0.75-0.11-1.5-0.19-2.24l-0.26-2.22l-0.13-1.11
		l-0.16-1.1l-0.32-2.2c-0.23-1.47-0.51-2.92-0.76-4.38c-1.1-5.83-2.51-11.6-4.2-17.3c-1.7-5.7-3.68-11.35-6-16.89
		c-2.33-5.53-4.99-10.97-8.16-16.18L34.36,20.8z"/>
	<path class="st1" d="M37.69,23.63c1.98,5.27,3.43,10.63,4.54,16.02c1.11,5.39,1.88,10.81,2.37,16.22
		c0.49,5.41,0.7,10.83,0.62,16.21c-0.04,1.34-0.06,2.68-0.13,4.02l-0.11,2l-0.06,1l-0.09,0.99l-0.18,1.98
		c-0.06,0.66-0.16,1.31-0.23,1.96c-0.14,1.31-0.39,2.58-0.59,3.85l8.23,1.13c0.06-1.43,0.16-2.87,0.14-4.28
		c0-0.71,0.02-1.42-0.01-2.12l-0.07-2.11l-0.04-1.05l-0.07-1.05l-0.13-2.1c-0.1-1.4-0.25-2.79-0.37-4.18
		c-0.58-5.56-1.46-11.08-2.62-16.56c-1.16-5.48-2.6-10.92-4.37-16.28c-1.78-5.36-3.88-10.65-6.48-15.75L37.69,23.63z"/>
	<path class="st2" d="M51.9,25.77c-1.56,5.07-2.63,10.26-3.39,15.5c-0.76,5.24-1.2,10.53-1.39,15.84
		c-0.19,5.31-0.12,10.63,0.22,15.94c0.11,1.33,0.19,2.65,0.31,3.97l0.2,1.98l0.1,0.99l0.13,0.98l0.26,1.97
		c0.08,0.65,0.21,1.3,0.31,1.95c0.19,1.3,0.48,2.57,0.73,3.84l-7.5,0.59c-0.13-1.42-0.29-2.84-0.34-4.23
		c-0.03-0.7-0.09-1.4-0.1-2.09l-0.04-2.07l-0.02-1.04l0.01-1.03l0.02-2.06c0.03-1.37,0.09-2.73,0.14-4.1
		c0.26-5.44,0.81-10.83,1.6-16.16c0.8-5.33,1.86-10.6,3.22-15.77c1.37-5.17,3.04-10.25,5.18-15.11L51.9,25.77z"/>
	<path class="st3" d="M34.49,44.09c-0.71,0.36-1.85-0.35-1.85-0.35l-1.15-0.94c0,0,0.09-0.79,0.25-1.1c0.17-0.32,0.8-1.28,0.8-1.28
		l1.01-0.58c0,0,1.24-0.12,1.57,0.18c0.33,0.3,0.76,0.79,0.76,0.79l-0.11,1.45C35.77,42.25,35.1,43.78,34.49,44.09"/>
	<path class="st4" d="M42.26,38.21l2.17,2.75l0.62,1.89c0,0,1.19,0.62,0.6,1.01c-0.59,0.39-0.99,0.17-1.64,0.74
		c-0.65,0.57-1.42,1.43-1.42,1.43l-0.64,0.8l-1.83-0.62c0,0-0.99-0.07-1.34-0.58c-0.35-0.51-1.24-2.13-1.44-2.49
		c-0.2-0.36-0.53-1.77-0.53-1.77l2.12-1.6l1.94-1.07L42.26,38.21z"/>
	<path class="st5" d="M38.13,40.39c0.03-0.02,1.38,1.06,1.72,1.51s0.36,2.03,0.36,2.03l-0.97,1.43c0,0,0.16,0.68-0.76,0.47
		c-0.92-0.2-2.49-0.46-2.49-0.46s-0.97,0.19-1.36,0.19c-0.39,0-0.49,0.26-0.78-0.23c-0.29-0.49-0.52-1.86-0.52-1.86l0.17-1.35
		c0,0,0.63-1.08,0.97-1.29c0.34-0.21,1.4-0.7,1.4-0.7l1.28-0.17L38.13,40.39z"/>
	<path class="st6" d="M36.34,34.51c0.18-0.09,1.78-0.23,1.78-0.23l1.57,0.1c0,0,1.09,0.08,1.48,0.25c0.39,0.17,0.69,0.16,0.97,0.42
		c0.28,0.26,0.53,0.59,0.53,0.59l0.26,1.3l-0.41,1.15l-1,0.92l-0.58,1.85c0,0-0.97,0.57-1.52,0.7c-0.55,0.13-1.31-0.09-1.31-0.09
		l-1.3-0.84l-0.57-1.38l-0.48-2.11l0.18-1.52L36.34,34.51z"/>
	<path class="st7" d="M37.85,39.38c0,0,0.84-0.93,0.99-1.34s0.35-1.17-0.26-1.85c-0.61-0.68-0.44-0.77-1.11-1.14
		c-0.67-0.37-1.33-0.85-1.97-0.85c-0.64,0-2.65-0.04-2.65-0.04l-1.15,0.28c0,0-0.06-0.05-0.3,0.23c-0.24,0.28-0.8,1.04-0.82,1.58
		c-0.03,0.54,0.38,2.23,0.38,2.23s0.43,1.65,0.99,2c0.56,0.35,1.89,0.95,2.11,1.02c0.22,0.07,1.46-0.09,1.46-0.09l1.51-0.43
		L37.85,39.38z"/>
	<path class="st8" d="M38.74,41.72c0.16-0.31,0.67-0.86,0.74-1.41c0.06-0.55-0.05-1.69-0.18-1.97c-0.14-0.28-0.46-1.78-0.5-1.85
		c-0.04-0.07,0.89-1.68-0.89-0.71s-1.18,0.81-1.18,0.81l-1.69,0.4L33.94,38l0.89,1.57l1.29,0.83l0.09,1.07c0,0,0.75-0.83,0.7,0.3
		c-0.05,1.14-0.71,1.17-0.05,1.14c0.66-0.04,0.48,0.25,0.48,0.25l0.35-0.82l0.74-0.2L38.74,41.72z"/>
	<path class="st9" d="M40.53,42.3l2.68,2.15l0.75-0.49c0,0,0.22-0.42-0.21-0.56c-0.43-0.14-1.14-0.49-1.14-0.49l-0.85-0.58
		l-0.58-0.25l-0.28,0.1l-0.25-0.11l-0.8-0.17L40.53,42.3z"/>
	<path class="st10" d="M38.45,39.97l0.09,0.6c0,0-0.17,0.71-0.38,0.72c-0.21,0.01-0.54-0.51-0.54-0.51l-0.85,0.11l-0.25-0.58
		l0.03-0.25l-0.51-0.56l0.79-0.48c0,0-0.18,0.51,0.42,0.44c0.6-0.07,0.72-0.29,0.72-0.29L38.45,39.97z"/>
	<path class="st11" d="M37.39,40.32c0,0,1.19-0.89,1.79-1.04"/>
	<path class="st11" d="M37.27,40.14c0.01-0.04,0.69-1.08,0.87-1.96"/>
	<path class="st11" d="M37.55,40.01c0,0,1.02-0.97,1.78-1.21"/>
	<path class="st11" d="M37.28,40.27c0,0,1.09-1.25,1.45-1.97"/>
	<path class="st12" d="M39.24,38.65c-0.05,0.1,0,0.23,0.12,0.28c0.12,0.05,0.26,0.01,0.31-0.09c0.05-0.1,0-0.23-0.12-0.28
		C39.43,38.51,39.29,38.55,39.24,38.65"/>
	<path class="st12" d="M39.04,39.22c-0.05,0.1,0,0.23,0.12,0.28c0.12,0.05,0.26,0.01,0.31-0.09c0.05-0.1,0-0.23-0.12-0.28
		C39.23,39.08,39.09,39.12,39.04,39.22"/>
	<path class="st12" d="M38.52,38.21c-0.05,0.1,0,0.23,0.12,0.28c0.12,0.05,0.26,0.01,0.31-0.09c0.05-0.1,0-0.23-0.12-0.28
		C38.71,38.07,38.58,38.11,38.52,38.21"/>
	<path class="st12" d="M37.95,37.99c-0.05,0.1,0,0.22,0.12,0.28c0.12,0.05,0.26,0.01,0.31-0.09c0.05-0.1,0-0.22-0.12-0.28
		C38.14,37.85,38,37.89,37.95,37.99"/>
	<path class="st3" d="M43.53,71.07l-1.9-0.93l-1.36-0.48c0,0-2.25-0.44-2.51-0.64c-0.26-0.2-0.48-0.42-0.48-0.42
		s0.25-0.79,0.96-1.21c0.72-0.42,2.08-1.7,2.57-1.6c0.49,0.11,1.97,0.68,1.97,0.68l1.5,1.92l-0.62,2.86"/>
	<path class="st13" d="M48.82,62.43c0,0-1.14-1.15-1.61-1.37c-0.47-0.22-1.53-0.94-1.53-0.94s-0.88-0.8-1.85-0.88
		c-0.97-0.09-1.03,0.1-1.03,0.1s-0.38,0.46-0.43,0.87c-0.06,0.4-0.64,1.5-0.63,1.79c0,0.28,0.02,1.07,0.15,1.25
		c0.13,0.17,0.73,0.79,0.73,0.79s0.99,0.56,1.71,0.51c0.71-0.05,1.95-0.13,1.95-0.13l1.34-0.32L48.82,62.43z"/>
	<path class="st14" d="M52.61,67.31c0,0,0.94-0.21,1.18-0.7c0.24-0.49,0.32-2.05,0.42-2.53c0.1-0.49,0.31-0.03-0.12-0.64
		c-0.42-0.61-0.84-0.72-1.07-1.06c-0.23-0.34-0.59-0.93-0.59-0.93l-0.88-0.64c0,0-0.46-0.56-0.8-0.33
		c-0.35,0.23-0.43-0.11-0.99,0.28c-0.56,0.4-0.48,0.68-0.88,0.79c-0.4,0.11-0.3,0.06-0.79,0.17c-0.49,0.11-0.81,0.03-1.03,0.4
		c-0.22,0.37-0.75,1.15-0.64,1.29c0.11,0.14,0.2,0.92,0.2,0.92s0.42,1.64,0.41,1.82c-0.02,0.18,0.32,0.84,0.32,0.84l1.11,0.45
		c0,0,1.61-0.39,2.4-0.16C51.65,67.51,52.61,67.31,52.61,67.31"/>
	<path class="st15" d="M48.32,71.22l-1.61,1.12c0,0-2.09,0.27-2.27,0.56c-0.18,0.3-0.2,0.11-0.39-0.16
		c-0.19-0.27-1.06-1.46-1.06-1.46s-0.79-0.23-0.97-0.68c-0.18-0.45-0.26-0.51-0.26-0.95c0-0.44,0.28-1.31,0.28-1.31l1.24-1.25
		l1.9-0.39l2.08,1.67l1.26,1.2L48.32,71.22z"/>
	<path class="st16" d="M45.95,68.6l-1.86,0.45c0,0-2.12-0.56-2.81-1.15c-0.69-0.59-2.03-1.39-2.32-1.91
		c-0.29-0.52-0.55-0.66-0.53-0.84c0.02-0.18,0.68-0.72,0.68-0.72l2.19-0.97c0,0,2.39-1.01,3.31-0.61c0.92,0.41,1.99,1.47,1.99,1.47
		l0.56,1.29c0,0,0.05,0.7,0.03,0.82s0.2,0.47,0.14,0.81c-0.06,0.34-0.3,0.6-0.3,0.6L45.95,68.6z"/>
	<path class="st6" d="M52.9,72.66c-0.06,0.01-1.64,0.11-1.64,0.11l-2.96-0.56c0,0-2.77-1.88-2.88-2.61
		c-0.11-0.73,0.02-1.3,0.32-1.61c0.3-0.31,1.76-1.06,1.79-1.13c0.04-0.08,0.89-0.69,1.08-0.93c0.19-0.23,1.87-0.63,1.87-0.63
		s1.47-0.52,2.08,0.51c0.61,1.03,1.17,2.25,1.27,3.13c0.11,0.88-0.07,1.87-0.11,2.04C53.69,71.15,53.12,72.62,52.9,72.66"/>
	<g>
		<defs>
			<rect id="SVGID_13_" x="41.51" y="62.87" width="10.81" height="8.66"/>
		</defs>
		<clipPath id="SVGID_14_">
			<use xlink:href="#SVGID_13_"  style="overflow:visible;"/>
		</clipPath>
		<path class="st28" d="M51.9,67.39c0.1,1.36-0.08,3.22-0.08,3.22l-0.88,0.92l-2.29-0.98c0,0-1.46-0.38-2.16-0.37
			c-0.7,0.01-1.13-0.34-1.95-0.37c-0.81-0.03-2.26-0.49-2.38-0.97c-0.12-0.48-0.28-1.13-0.59-1.91c-0.31-0.78,0.58-2.44,0.58-2.44
			s0.86-1.06,1.67-1.35c0.8-0.28,2.51-0.28,2.51-0.28s2.03,0.36,3.06,0.67c1.03,0.31,2.11,1.27,2.11,1.27l0.82,0.85L51.9,67.39z"/>
	</g>
	<path class="st8" d="M49.78,64.87c-0.09,0.34-0.31,1.96-0.31,1.96l0.45,1.27l-0.27,1.29l-1.18-0.99l-0.2,0.62
		c0,0,0.59,0.86,0.02,0.97c-0.56,0.11-1.48-0.82-1.48-0.82l-0.18-1.32l-1.37-0.06l-0.7-0.22l-0.29-0.88l0.33-0.66l-0.57-0.17
		c0,0-1.3-0.19-1.55-0.26c-0.25-0.07,0.91-0.22,0.91-0.22l-0.94-0.23c0,0,1.17-0.17,1.62-0.05c0.45,0.12,0.94,0.01,0.65-0.11
		c-0.29-0.12-0.55-0.54-0.55-0.54l0.91,0.22l0.25-0.36c0,0,0.36-0.13,0.58,0.15c0.23,0.28,0.71,0.57,0.71,0.57s0.28-0.48,0.28-0.57
		c0-0.09,0.44,0.18,0.44,0.18l0.48-0.08l0.47-0.15l0.13,0.55c0,0,0.22,0,0.3-0.09c0.08-0.09,0.33-0.15,0.33-0.15l0,0.68L49.78,64.87
		z"/>
	<path class="st10" d="M46.74,67.34c0,0-0.11-0.71-0.15-0.86c-0.04-0.14,0.06-0.38,0.13-0.57c0.07-0.19,0.35-0.72,0.35-0.72
		s0.03-0.01,0.32,0.13c0.29,0.14,0.8,0.32,0.8,0.32l0.43,0.29c0,0-0.48,0.81-0.7,1.1c-0.21,0.28-0.58,0.23-0.58,0.23L46.74,67.34z"
		/>
	<path class="st18" d="M47.19,66.16c0,0,0.94,0.91,1.12,1.36"/>
	<path class="st18" d="M47.36,66.08c0.04,0.01,1.1,0.54,1.97,0.7"/>
	<path class="st18" d="M47.5,66.29c0,0,1.01,0.79,1.28,1.36"/>
	<path class="st18" d="M47.23,66.09c0,0,1.28,0.84,2.01,1.13"/>
	<path class="st12" d="M48.93,67.58c-0.1-0.04-0.22,0-0.26,0.08c-0.04,0.09,0,0.19,0.11,0.23c0.1,0.04,0.22,0,0.26-0.08
		C49.08,67.73,49.03,67.63,48.93,67.58"/>
	<path class="st12" d="M48.36,67.42c-0.1-0.04-0.22,0-0.26,0.08c-0.04,0.09,0,0.19,0.11,0.23c0.1,0.04,0.22,0,0.26-0.08
		C48.51,67.57,48.46,67.47,48.36,67.42"/>
	<path class="st12" d="M49.32,67.06c-0.1-0.04-0.22,0-0.26,0.08c-0.04,0.09,0,0.19,0.11,0.23c0.1,0.04,0.22,0,0.26-0.08
		C49.47,67.2,49.42,67.1,49.32,67.06"/>
	<path class="st12" d="M49.5,66.64c-0.1-0.04-0.22,0-0.26,0.08c-0.04,0.09,0,0.19,0.11,0.23c0.1,0.04,0.22,0,0.26-0.08
		C49.65,66.78,49.61,66.68,49.5,66.64"/>
	<path class="st3" d="M55.01,84.43l-0.49,2.09l-0.11,1.45c0,0,0.26,2.3,0.1,2.61c-0.16,0.31-0.36,0.58-0.36,0.58
		s-1.09-0.03-1.89-0.61c-0.8-0.58-2.91-1.56-2.96-2.06c-0.04-0.51,0.15-2.09,0.15-2.09l1.89-1.96l3.85-0.17"/>
	<path class="st13" d="M42.14,81.61c0,0-1.04,1.41-1.16,1.92c-0.11,0.52-0.63,1.74-0.63,1.74s-0.69,1.06-0.44,2.03
		c0.24,0.97,0.5,0.97,0.5,0.97s0.72,0.24,1.26,0.19c0.53-0.06,2.14,0.21,2.5,0.13c0.36-0.08,1.35-0.31,1.53-0.48
		c0.17-0.17,0.74-0.92,0.74-0.92s0.35-1.11,0.03-1.79c-0.32-0.68-0.88-1.86-0.88-1.86l-0.9-1.21L42.14,81.61z"/>
	<path class="st14" d="M46.94,76.63c0,0-0.61-0.85-1.32-0.96c-0.71-0.1-2.71,0.23-3.37,0.27c-0.66,0.04-0.15-0.29-0.77,0.29
		c-0.62,0.57-0.6,1.01-0.95,1.32c-0.35,0.31-0.96,0.82-0.96,0.82l-0.49,1.03c0,0-0.54,0.6-0.12,0.87c0.42,0.27,0.01,0.44,0.72,0.88
		c0.7,0.44,1.03,0.28,1.32,0.64c0.29,0.36,0.19,0.28,0.51,0.72c0.32,0.45,0.33,0.78,0.88,0.89c0.55,0.11,1.73,0.42,1.86,0.27
		c0.14-0.15,1.1-0.44,1.1-0.44s1.92-0.85,2.15-0.88c0.23-0.03,0.95-0.54,0.95-0.54l0.17-1.19c0,0-1.08-1.46-1.08-2.29
		C47.55,77.51,46.94,76.63,46.94,76.63"/>
	<path class="st15" d="M53.46,79.75l2,1.26c0,0,1.1,1.96,1.54,2.05c0.45,0.1,0.21,0.16-0.06,0.42c-0.27,0.26-1.47,1.41-1.47,1.41
		s0,0.83-0.51,1.12c-0.5,0.29-0.55,0.38-1.1,0.5c-0.55,0.12-1.76,0.08-1.76,0.08l-2.03-0.87l-1.18-1.74l1.36-2.46L51.32,80
		L53.46,79.75z"/>
	<path class="st16" d="M51,82.74l1.25,1.68c0,0,0.07,2.2-0.43,3.03c-0.5,0.82-1.03,2.34-1.58,2.76c-0.56,0.42-0.64,0.7-0.87,0.74
		c-0.23,0.03-1.16-0.47-1.16-0.47l-2.03-1.86c0,0-2.16-2.05-1.97-3.05c0.18-1,1.14-2.33,1.14-2.33l1.43-0.89
		c0,0,0.88-0.24,1.03-0.25c0.15-0.01,0.52-0.32,0.98-0.35c0.46-0.03,0.88,0.13,0.88,0.13L51,82.74z"/>
	<path class="st6" d="M53.62,74.92c0.04,0.06,0.73,1.56,0.73,1.56l0.37,3.01c0,0-1.38,3.19-2.26,3.49c-0.89,0.3-1.65,0.32-2.16,0.11
		c-0.51-0.21-1.98-1.42-2.09-1.44c-0.11-0.02-1.2-0.68-1.57-0.8c-0.36-0.12-1.48-1.65-1.48-1.65s-1.19-1.29-0.11-2.15
		c1.08-0.86,2.43-1.73,3.51-2.07c1.08-0.34,2.4-0.43,2.63-0.44C51.41,74.56,53.49,74.72,53.62,74.92"/>
	<g>
		<defs>
			<rect id="SVGID_15_" x="43.33" y="76.52" width="9.86" height="11.16"/>
		</defs>
		<clipPath id="SVGID_16_">
			<use xlink:href="#SVGID_15_"  style="overflow:visible;"/>
		</clipPath>
		<path class="st29" d="M47.3,77.3c1.68-0.46,4.12-0.78,4.12-0.78l1.48,0.61l-0.42,2.48c0,0,0.05,1.52,0.32,2.2
			c0.26,0.68-0.02,1.19,0.24,1.99c0.26,0.8,0.2,2.32-0.37,2.57c-0.57,0.25-1.33,0.58-2.2,1.08c-0.87,0.51-3.3,0.09-3.3,0.09
			s-1.66-0.55-2.31-1.26c-0.65-0.7-1.26-2.36-1.26-2.36s-0.28-2.07-0.27-3.15c0.02-1.08,0.84-2.38,0.84-2.38l0.78-1.03L47.3,77.3z"
			/>
	</g>
	<path class="st8" d="M44.87,80.03c0.46,0,2.59-0.22,2.59-0.22l1.45-0.78l1.73-0.09l-0.83,1.41l0.85,0.03c0,0,0.88-0.8,1.23-0.28
		c0.35,0.52-0.5,1.65-0.5,1.65l-1.61,0.53l0.42,1.35l-0.03,0.74l-1.01,0.52l-0.96-0.14l-0.01,0.6c0,0,0.23,1.31,0.23,1.57
		c0,0.26-0.61-0.83-0.61-0.83l0.05,0.97c0,0-0.65-1.09-0.66-1.56c-0.01-0.47-0.33-0.91-0.37-0.6c-0.04,0.31-0.48,0.68-0.48,0.68
		l-0.06-0.94l-0.55-0.15c0,0-0.3-0.31-0.03-0.6c0.27-0.29,0.46-0.84,0.46-0.84s-0.71-0.15-0.82-0.12c-0.12,0.02,0.07-0.48,0.07-0.48
		L45.16,82l-0.36-0.42l0.65-0.27c0,0-0.08-0.21-0.23-0.27c-0.15-0.05-0.3-0.28-0.3-0.28l0.87-0.18L44.87,80.03z"/>
	<path class="st10" d="M49.11,82.32c0,0-0.87,0.3-1.03,0.37c-0.17,0.08-0.51,0.04-0.77,0.03c-0.27-0.01-1.04-0.15-1.04-0.15
		s-0.02-0.02,0.05-0.34c0.07-0.32,0.11-0.86,0.11-0.86l0.21-0.49c0,0,1.2,0.25,1.64,0.38c0.44,0.13,0.5,0.5,0.5,0.5L49.11,82.32z"/>
	<path class="st20" d="M47.46,82.19c0,0,0.82-1.15,1.32-1.44"/>
	<path class="st20" d="M47.29,82.05c-0.01-0.04,0.28-1.21,0.17-2.09"/>
	<path class="st20" d="M47.51,81.85c0,0,0.63-1.19,1.26-1.6"/>
	<path class="st20" d="M47.35,82.17c0,0,0.6-1.46,0.7-2.25"/>
	<path class="st12" d="M48.63,80.13c-0.02,0.11,0.07,0.21,0.2,0.23c0.13,0.02,0.24-0.06,0.26-0.17c0.02-0.11-0.07-0.21-0.2-0.23
		C48.76,79.94,48.64,80.02,48.63,80.13"/>
	<path class="st12" d="M48.63,80.72c-0.02,0.11,0.07,0.21,0.2,0.23c0.13,0.02,0.24-0.06,0.26-0.17c0.02-0.11-0.07-0.21-0.2-0.23
		C48.76,80.54,48.65,80.61,48.63,80.72"/>
	<path class="st12" d="M47.82,79.89c-0.02,0.11,0.08,0.21,0.2,0.23c0.13,0.02,0.24-0.06,0.26-0.17c0.02-0.11-0.07-0.21-0.2-0.23
		C47.95,79.71,47.84,79.78,47.82,79.89"/>
	<path class="st12" d="M47.21,79.82c-0.02,0.11,0.07,0.21,0.2,0.23c0.13,0.02,0.24-0.06,0.26-0.17c0.02-0.11-0.07-0.21-0.2-0.23
		C47.35,79.64,47.23,79.71,47.21,79.82"/>
	<path class="st3" d="M52.63,55.06l-0.44,1.76l-0.11,1.22c0,0,0.19,1.94,0.06,2.2c-0.14,0.26-0.31,0.48-0.31,0.48
		s-0.93-0.03-1.59-0.53c-0.67-0.5-2.44-1.34-2.47-1.77c-0.03-0.43,0.15-1.76,0.15-1.76l1.62-1.64l3.26-0.1"/>
	<path class="st13" d="M41.78,52.55c0,0-0.9,1.18-1,1.61c-0.1,0.43-0.55,1.46-0.55,1.46s-0.6,0.89-0.4,1.71
		c0.19,0.82,0.41,0.82,0.41,0.82s0.61,0.21,1.06,0.17c0.45-0.04,1.81,0.2,2.11,0.14c0.3-0.06,1.15-0.25,1.3-0.39
		c0.15-0.14,0.64-0.77,0.64-0.77s0.31-0.93,0.05-1.51c-0.27-0.58-0.72-1.58-0.72-1.58l-0.74-1.03L41.78,52.55z"/>
	<path class="st14" d="M45.91,48.39c0,0-0.5-0.73-1.1-0.82c-0.6-0.1-2.3,0.17-2.85,0.19c-0.55,0.02-0.12-0.24-0.65,0.23
		c-0.53,0.48-0.52,0.85-0.82,1.11c-0.3,0.26-0.82,0.69-0.82,0.69l-0.43,0.86c0,0-0.47,0.5-0.12,0.73c0.35,0.23,0,0.38,0.59,0.75
		c0.59,0.37,0.87,0.25,1.11,0.56c0.24,0.31,0.16,0.24,0.42,0.62c0.26,0.38,0.27,0.66,0.73,0.76c0.46,0.1,1.46,0.37,1.57,0.25
		c0.12-0.12,0.93-0.36,0.93-0.36s1.63-0.7,1.83-0.72c0.2-0.02,0.81-0.45,0.81-0.45l0.16-1c0,0-0.9-1.24-0.88-1.94
		C46.4,49.15,45.91,48.39,45.91,48.39"/>
	<path class="st15" d="M51.38,51.09l1.68,1.08c0,0,0.9,1.66,1.28,1.75c0.37,0.09,0.17,0.14-0.06,0.36
		c-0.23,0.22-1.26,1.18-1.26,1.18s-0.01,0.7-0.44,0.94c-0.43,0.24-0.47,0.32-0.94,0.41c-0.47,0.09-1.49,0.05-1.49,0.05l-1.7-0.75
		l-0.98-1.48l1.18-2.06l0.92-1.29L51.38,51.09z"/>
	<path class="st16" d="M49.26,53.6l1.04,1.43c0,0,0.03,1.86-0.4,2.55c-0.43,0.69-0.9,1.97-1.37,2.31c-0.48,0.35-0.55,0.59-0.75,0.61
		c-0.2,0.03-0.97-0.41-0.97-0.41l-1.69-1.59c0,0-1.8-1.75-1.63-2.59c0.17-0.85,0.99-1.95,0.99-1.95l1.22-0.74
		c0,0,0.74-0.19,0.87-0.2c0.13-0.01,0.44-0.27,0.83-0.29c0.39-0.02,0.74,0.12,0.74,0.12L49.26,53.6z"/>
	<path class="st6" d="M51.57,47.02c0.03,0.05,0.6,1.33,0.6,1.33l0.28,2.55c0,0-1.2,2.68-1.95,2.93c-0.75,0.25-1.4,0.26-1.83,0.08
		c-0.43-0.18-1.65-1.22-1.75-1.23s-1.01-0.58-1.32-0.69c-0.31-0.11-1.24-1.41-1.24-1.41s-0.99-1.1-0.07-1.82
		c0.92-0.72,2.07-1.44,2.99-1.71c0.92-0.28,2.03-0.34,2.22-0.34C49.71,46.69,51.47,46.85,51.57,47.02"/>
	<g>
		<defs>
			<rect id="SVGID_17_" x="42.8" y="48.35" width="8.29" height="9.4"/>
		</defs>
		<clipPath id="SVGID_18_">
			<use xlink:href="#SVGID_17_"  style="overflow:visible;"/>
		</clipPath>
		<path class="st30" d="M46.2,48.97c1.43-0.37,3.49-0.62,3.49-0.62l1.25,0.52l-0.38,2.09c0,0,0.03,1.28,0.24,1.86
			c0.21,0.57-0.03,1,0.18,1.68c0.21,0.68,0.14,1.96-0.34,2.17c-0.49,0.2-1.13,0.47-1.88,0.89c-0.74,0.42-2.79,0.04-2.79,0.04
			s-1.4-0.48-1.94-1.08c-0.54-0.6-1.04-2-1.04-2s-0.21-1.75-0.19-2.66c0.03-0.91,0.74-2,0.74-2l0.67-0.86L46.2,48.97z"/>
	</g>
	<path class="st8" d="M44.11,51.24c0.39,0,2.2-0.16,2.2-0.16l1.24-0.64l1.47-0.06l-0.72,1.18l0.72,0.03c0,0,0.75-0.67,1.04-0.23
		c0.29,0.44-0.45,1.39-0.45,1.39l-1.36,0.43l0.34,1.14l-0.03,0.62l-0.86,0.43l-0.81-0.13l-0.02,0.5c0,0,0.18,1.11,0.18,1.33
		c0,0.22-0.5-0.7-0.5-0.7l0.03,0.82c0,0-0.53-0.93-0.53-1.32c0-0.39-0.27-0.77-0.31-0.51c-0.04,0.26-0.41,0.57-0.41,0.57l-0.04-0.79
		l-0.47-0.13c0,0-0.25-0.26-0.02-0.51c0.23-0.25,0.4-0.7,0.4-0.7s-0.6-0.13-0.7-0.11c-0.1,0.02,0.06-0.4,0.06-0.4l-0.23-0.38
		l-0.3-0.36l0.55-0.22c0,0-0.07-0.18-0.19-0.23c-0.12-0.05-0.25-0.24-0.25-0.24l0.74-0.14L44.11,51.24z"/>
	<path class="st10" d="M47.67,53.22c0,0-0.74,0.24-0.88,0.3c-0.14,0.06-0.43,0.03-0.65,0.02c-0.22-0.01-0.87-0.14-0.87-0.14
		s-0.02-0.02,0.05-0.29c0.06-0.27,0.1-0.73,0.1-0.73l0.19-0.41c0,0,1.01,0.22,1.38,0.34c0.37,0.11,0.41,0.42,0.41,0.42L47.67,53.22z
		"/>
	<path class="st22" d="M46.27,53.09c0,0,0.7-0.96,1.13-1.21"/>
	<path class="st22" d="M46.13,52.97c0-0.03,0.26-1.02,0.17-1.76"/>
	<path class="st22" d="M46.32,52.81c0,0,0.55-1,1.08-1.34"/>
	<path class="st22" d="M46.18,53.08c0,0,0.53-1.23,0.62-1.89"/>
	<path class="st12" d="M47.29,51.36c-0.01,0.09,0.06,0.18,0.17,0.2c0.11,0.02,0.21-0.04,0.22-0.14c0.02-0.09-0.06-0.18-0.17-0.2
		C47.4,51.21,47.3,51.27,47.29,51.36"/>
	<path class="st12" d="M47.28,51.87c-0.02,0.09,0.06,0.18,0.17,0.2c0.11,0.02,0.21-0.04,0.22-0.14c0.02-0.09-0.06-0.18-0.17-0.2
		C47.4,51.71,47.3,51.78,47.28,51.87"/>
	<path class="st12" d="M46.61,51.16c-0.02,0.09,0.06,0.18,0.17,0.2c0.11,0.02,0.21-0.04,0.22-0.14c0.01-0.09-0.06-0.18-0.17-0.2
		S46.62,51.06,46.61,51.16"/>
	<path class="st12" d="M46.1,51.09c-0.01,0.09,0.06,0.18,0.17,0.2c0.11,0.02,0.21-0.04,0.22-0.14c0.02-0.09-0.06-0.18-0.17-0.2
		C46.21,50.94,46.11,51,46.1,51.09"/>
	<path class="st3" d="M36.6,31.35l-1.76-0.1l-1.18,0.07c0,0-1.81,0.38-2.08,0.31c-0.27-0.07-0.52-0.17-0.52-0.17
		s-0.15-0.68,0.19-1.22c0.34-0.55,0.79-1.94,1.19-2.02c0.4-0.07,1.7-0.11,1.7-0.11l1.88,0.97l0.74,2.35"/>
	<path class="st13" d="M36.84,23.17c0,0-1.3-0.51-1.73-0.53c-0.43-0.02-1.5-0.22-1.5-0.22s-0.96-0.32-1.7-0.08
		c-0.74,0.24-0.7,0.4-0.7,0.4s-0.08,0.47,0.05,0.79c0.13,0.32,0.17,1.34,0.29,1.55c0.12,0.21,0.46,0.8,0.62,0.89
		c0.17,0.09,0.85,0.37,0.85,0.37s0.95,0.11,1.44-0.16c0.49-0.26,1.36-0.72,1.36-0.72l0.83-0.67L36.84,23.17z"/>
	<path class="st14" d="M41.61,25.65c0,0,0.59-0.45,0.56-0.9c-0.03-0.45-0.61-1.64-0.75-2.04c-0.13-0.4,0.21-0.12-0.35-0.44
		c-0.56-0.32-0.91-0.27-1.21-0.46c-0.31-0.19-0.81-0.51-0.81-0.51l-0.9-0.2c0,0-0.57-0.28-0.72,0.01c-0.15,0.28-0.36,0.05-0.6,0.52
		c-0.24,0.47-0.07,0.66-0.31,0.87c-0.24,0.21-0.19,0.14-0.5,0.38c-0.31,0.24-0.57,0.28-0.58,0.62c0,0.35-0.07,1.1,0.07,1.17
		c0.14,0.07,0.53,0.63,0.53,0.63s0.98,1.1,1.05,1.24c0.06,0.14,0.58,0.53,0.58,0.53l0.99-0.01c0,0,1-0.81,1.67-0.88
		C40.99,26.1,41.61,25.65,41.61,25.65"/>
	<path class="st15" d="M40.13,29.95l-0.7,1.35c0,0-1.4,0.86-1.41,1.15c-0.01,0.28-0.1,0.14-0.35,0c-0.25-0.14-1.37-0.76-1.37-0.76
		s-0.67,0.08-0.98-0.2c-0.31-0.28-0.4-0.3-0.58-0.63c-0.18-0.33-0.34-1.08-0.34-1.08l0.38-1.33l1.21-0.89l2.19,0.6l1.41,0.51
		L40.13,29.95z"/>
	<path class="st16" d="M37.33,28.73l-1.15,0.93c0,0-1.76,0.25-2.5,0.02c-0.74-0.23-2.04-0.4-2.47-0.71
		c-0.42-0.3-0.67-0.32-0.73-0.46c-0.06-0.14,0.19-0.76,0.19-0.76l1.18-1.43c0,0,1.3-1.52,2.14-1.51c0.84,0.02,2.05,0.47,2.05,0.47
		l0.94,0.79c0,0,0.33,0.52,0.36,0.61c0.03,0.09,0.34,0.29,0.44,0.57c0.1,0.28,0.04,0.55,0.04,0.55L37.33,28.73z"/>
	<path class="st6" d="M44.03,29.58c-0.04,0.03-1.14,0.6-1.14,0.6l-2.36,0.52c0,0-2.78-0.54-3.16-1.05
		c-0.38-0.51-0.52-0.99-0.43-1.32c0.09-0.33,0.83-1.35,0.83-1.42c0-0.07,0.35-0.81,0.39-1.04c0.04-0.24,1.09-1.07,1.09-1.07
		s0.85-0.86,1.71-0.28c0.86,0.58,1.77,1.33,2.22,1.96c0.44,0.63,0.72,1.43,0.76,1.57C43.97,28.19,44.17,29.49,44.03,29.58"/>
	<g>
		<defs>
			<rect id="SVGID_19_" x="32.88" y="23.81" width="9.52" height="6.5"/>
		</defs>
		<clipPath id="SVGID_20_">
			<use xlink:href="#SVGID_19_"  style="overflow:visible;"/>
		</clipPath>
		<path class="st31" d="M41.12,25.93c0.64,0.99,1.28,2.46,1.28,2.46l-0.25,0.97l-2.06-0.02c0,0-1.21,0.18-1.72,0.41
			c-0.5,0.23-0.96,0.11-1.56,0.34c-0.6,0.24-1.84,0.35-2.12,0.02c-0.29-0.33-0.67-0.76-1.22-1.25c-0.54-0.49-0.59-2.02-0.59-2.02
			s0.18-1.07,0.64-1.54c0.46-0.47,1.7-1,1.7-1s1.62-0.37,2.49-0.47c0.87-0.09,2.05,0.29,2.05,0.29l0.95,0.38L41.12,25.93z"/>
	</g>
	<path class="st8" d="M38.54,24.7c0.07,0.28,0.58,1.57,0.58,1.57l0.85,0.82l0.34,1.06l-1.26-0.38l0.11,0.53c0,0,0.78,0.46,0.42,0.73
		c-0.36,0.26-1.41-0.15-1.41-0.15l-0.68-0.94l-1.02,0.39l-0.6,0.05l-0.57-0.57l-0.04-0.6l-0.48,0.05c0,0-1.02,0.27-1.22,0.29
		c-0.21,0.03,0.57-0.45,0.57-0.45l-0.77,0.13c0,0,0.78-0.5,1.15-0.55c0.37-0.05,0.68-0.29,0.43-0.29c-0.26,0-0.62-0.23-0.62-0.23
		l0.75-0.12l0.03-0.35c0,0,0.2-0.21,0.48-0.08c0.28,0.14,0.75,0.21,0.75,0.21s0.01-0.45-0.03-0.52c-0.04-0.07,0.4,0,0.4,0L37,25.07
		l0.28-0.26l0.32,0.37c0,0,0.16-0.07,0.18-0.17c0.02-0.1,0.18-0.21,0.18-0.21l0.28,0.52L38.54,24.7z"/>
	<path class="st10" d="M37.37,27.52c0,0-0.37-0.5-0.46-0.6c-0.09-0.1-0.11-0.31-0.14-0.47c-0.03-0.16-0.04-0.65-0.04-0.65
		s0.02-0.02,0.28,0c0.27,0.01,0.71-0.02,0.71-0.02l0.43,0.08c0,0-0.01,0.76-0.05,1.05c-0.04,0.28-0.32,0.35-0.32,0.35L37.37,27.52z"
		/>
	<path class="st26" d="M37.22,26.5c0,0,1.05,0.39,1.37,0.67"/>
	<path class="st26" d="M37.3,26.38c0.03-0.01,1.02,0.06,1.71-0.1"/>
	<path class="st26" d="M37.49,26.49c0,0,1.06,0.27,1.49,0.62"/>
	<path class="st26" d="M37.21,26.43c0,0,1.27,0.23,1.92,0.22"/>
	<path class="st12" d="M39.06,27.02c-0.09,0-0.16,0.07-0.16,0.15c0,0.08,0.08,0.14,0.17,0.14c0.09,0,0.16-0.07,0.16-0.15
		C39.23,27.08,39.15,27.02,39.06,27.02"/>
	<path class="st12" d="M38.58,27.08c-0.09,0-0.16,0.07-0.16,0.15c0,0.08,0.08,0.14,0.17,0.14c0.09,0,0.16-0.07,0.16-0.15
		C38.75,27.14,38.67,27.08,38.58,27.08"/>
	<path class="st12" d="M39.12,26.5c-0.09,0-0.16,0.07-0.16,0.15c0,0.08,0.08,0.14,0.17,0.14c0.09,0,0.16-0.07,0.16-0.15
		C39.29,26.56,39.21,26.5,39.12,26.5"/>
	<path class="st12" d="M39.08,26.12c-0.09,0-0.16,0.07-0.16,0.15c0,0.08,0.08,0.14,0.17,0.14c0.09,0,0.16-0.07,0.16-0.15
		C39.25,26.18,39.17,26.12,39.08,26.12"/>
</g>
</svg>
