<svg xmlns="http://www.w3.org/2000/svg" version="1.1" xmlns:xlink="http://www.w3.org/1999/xlink" xmlns:svgjs="http://svgjs.dev/svgjs" viewBox="0 0 108 108" style="" x="0" y="0"><style type="text/css">
	.st0{fill:#5E742E;}
	.st1{fill:#A6C339;}
	.st2{fill:none;stroke:#72AA3A;stroke-width:2.3732;stroke-miterlimit:10;}
	.st3{fill:#65892A;}
	.st4{fill:#B50379;}
	.st5{fill:#EFA0C2;}
	.st6{fill:#D20F8C;}
	.st7{fill:#DA3290;}
	.st8{fill:none;stroke:#72AA3A;stroke-width:2.0476;stroke-miterlimit:10;}
	.st9{fill:none;stroke:#72AA3A;stroke-width:2.2147;stroke-miterlimit:10;}
	.st10{fill:#72AA3A;}
	.st11{fill:#00A34B;}
	.st12{fill:#92B83E;}
</style><g><path class="st0" d="M83.5,54.8c0,0-3.3-0.1-6.5,3.2c-3.2,3.3-8.3,5.3-11.8,2c-3.5-3.4-6.5-4.1-6.5-4.1s0.4,0.5,3-2.5
	c2.5-3.1,8.4-5.3,12.4-3.7C78,51.3,83.5,54.8,83.5,54.8"></path><path class="st1" d="M46.6,63.7c2.7,0.9,3.8-0.1,6.1,6.2l2.3,6.3c0,0-1.4,0.3-2.9,0.8c-1.6,0.4-7.2,2.7-10.5-1.3
	c-3.3-3.9-4.7-6.7-5.1-7.6c-0.3-1-2.2-3.9-2.6-4.7"></path><path class="st2" d="M54.1,41.1c0,0-2.6,31.9-2.6,53.7"></path><path class="st1" d="M73.8,47.8c-2.4,2.4-2,4.2-10.2,3.2l-8.2-1.1c0,0,0.4-1.7,0.8-3.6c0.4-1.9,1.2-9.4,7.3-10.7
	c6.2-1.3,10-1.4,11.2-1.2c1.2,0.2,5.5-0.2,6.6-0.2"></path><path class="st3" d="M32.3,63.1c0,0.1,4.3,1.4,9.3,1.5c5,0.1,7.7-0.2,9.4-2.8c1.7-2.7,2.8-5.4,3.9-8.4c1.1-3,1.2-4.2,2.3-4.6
	c1.1-0.4-1.3,1.1-6.9,0.3c-5.6-0.8-8.3-2.1-10.4-0.1c-2.1,2-1.7,5.3-3.3,8.1C34.9,60,32.3,63.1,32.3,63.1"></path><path class="st4" d="M41.8,19.8c0,0,2.6-4.4,4.9-6s5.5-2.9,6.8-1.9c1.3,1,2.9,0.8,4.5,3.2c1.6,2.4,3,6.9,0.3,10.1
	c-2.7,3.1-3.5,5-6,5.3c-2.6,0.3-5.8,1.3-7.5-0.6S41.8,19.8,41.8,19.8z"></path><path class="st4" d="M39.7,21.3c0-0.7-1.1-5.1-0.8-6.2c0.4-1.1,0.6-2.2,0.6-2.2l1.2,2.6l0.2-3.3l1.9,0.9l1.4-2.3
	c0.7,0.5,1.4-0.1,1.5,0.3c0.1,0.4,1.5,0.5,1.5,0.5l1.8,0.7c0,0-1.4,3.5,0.2,1.9s1.5-2.6,1.5-1.6c0.1,1,0.7,2.8,0.7,2.8
	s1,2.5,1.1,2.7s-1.4,2.9-2,3.3S43.4,22,43.4,22L39.7,21.3z"></path><path class="st5" d="M51.9,9.2L51,11.3l-2.6-0.9l-1.2,1l-1.7,0.7c0,0-1.8,1.5-2,1.4c-0.2-0.2-1,1.2-0.9,1.2c0.1,0.1-0.1,0.6,0.1,0.9
	s0.9,0.6,0.9,0.6l0.3-1.4l1,2.4l0.3-3.4l1.3,2.6l0.2-2.8l1.1,3.8l0.7-2.4l1.9,2.6l-0.1-2.8l3.2,2l-0.1-2.5l1.5,0.6l-0.4-1.8
	l-0.8-2.9L51.9,9.2z"></path><path class="st6" d="M35,19.2c0,0,1.1,3.4,1.6,2.6c0.5-0.8,0-4.8,0-4.8l1.1,0.8l0.2-2.7l1.2,3.1c0,0,0.4,1.3,0.6,1.7
	c0.3,0.3,0.8-2,1.1-1.6c1.2,1.3,2.3,5.2,2.5,3.7c0.2-1.6-0.1-4.6-0.1-4.6l2,2.2l0.4-1.9l1.2,0.9l0.9-3.8l1,3.5l2.3,0.2l-0.6-2.6
	l2.3,0.3l2.3-0.1l0.9-1.3l-1.3-2l-2.1-1.5l2.1,0.2l3.2,0.6l1.9,4.1c0,0,3.1,4.4,2.5,5.1c-0.6,0.7-7.3,9.4-8.2,9.9
	c-0.9,0.5-13.3,0.4-13.3,0.4L36,29l-0.7-6.7L35,19.2z"></path><path class="st7" d="M34,29.1c0.4-0.5,0.7-1,0.5-1.6s0.3-3.3,0.3-3.3s1.6,1.4,1.5,1.8c-0.1,0.3,0.2,2.2,0.2,2.2l2.3,1.7
	c0,0-0.6-2.3-0.7-3.2c-0.1-0.9,0.1-3.5,0.4-3.1c0.2,0.4,1.6,3.6,1.6,3.6l1.1-0.6l-0.1-2.5c0,0,0.9,2,1.4,2.2s1.5,1,1.5,1
	s-1.9-1.4-1.6-3c0.3-1.7,1.1-3.1,1-2.2c-0.1,0.9,0.6,3.4,0.7,2.7s0.5-1.2,0.5-1.2s-0.1,1.5,0.7,2.2s1.7,1.6,1.7,1.6
	s-0.8-1.9-0.2-3.7c0.6-1.8,1.5-2.4,1.4-2.8c-0.1-0.5,1.6,1.3,1.5,1.6c-0.1,0.3,0.9,0.2,1-1.2c0.1-1.4,0.7-3.2,0.6-2.7
	s1.4,1.9,1.4,1.9c1.2-1.6,1.1-1.5,1-2.3c0-0.9,1.4-0.4,1,0.8s-0.4,2.9-0.7,3.3c-0.3,0.4-0.7,2.6-0.2,2.1c0.5-0.5,1.9-1.4,2-2.7
	s0-2.6,0.4-1.6c0.4,1,0.5,3.1,0.5,3.1s0.1,0,0.8-1.1s1.6-3.1,1.6-3.1s0.1,1.3,0.2,2s-0.9,2.8-0.9,2.8s1.1,0.3,1.4-0.5
	c0.3-0.7,0.6-4.1,0.8-4.1s-0.6-1.2-0.9-1.7S58.1,16,58,15c-0.1-1,0-1.5-0.3-1.9c-0.3-0.5,0,0.2,1,0.8c1.1,0.5,4.5,1.9,4.1,4.7
	c-0.4,2.8,5.5,7.6-0.1,12.5S47,37,45,36.7c-2-0.2-5.6-0.1-5.2-1.3c0.4-1.2-5.2-1.7-5.7-2.7c-0.5-1-0.4-2.6-0.4-2.6L34,29.1z"></path><path class="st6" d="M41.7,41.2c-0.5-1.3-2.6-1.7-3.3-2.4s-2.5,0.9-2.9-0.1c-0.5-1-1.6-2.3-1.6-2.3l1.6,0c0,0-0.7-0.9-0.6-1.3
	c0-0.4,0-0.8,0-0.4c0,0.4,2.3,1.5,2.3,1.5l2.2,0.4c0,0,2,0,1.6-0.4c-0.5-0.5-2-0.9-3.3-1.7c-1.3-0.8-2-1.3-2.1-2.2
	c-0.2-0.9,1.8-0.1,2.3,0.3s2.5,1.8,2.5,1.8s-0.2-1.6-0.3-2.2c0-0.5,1.1,1,1.2,0.9s-0.3-0.8,0.1-2.7c0.5-1.9,1.8-2.4,1.8-2.4
	s-0.2,3-0.1,3.4c0.1,0.4,1.3-2.5,1.3-2.5s-0.8-0.3,0.6,1.1c1.4,1.4,2.1,2.3,3.3,2.6c1.1,0.3,1.6,0.5,1.5-0.5c-0.1-1-0.6-1.4-0.9-2.2
	c-0.3-0.9-0.1-2.4,0.1-2.9s1.7-2.2,1.7-2.2s2.2,3.2,2.1,3.6c-0.1,0.4,0.9,3,0.8,3.5c-0.1,0.5,0.2,1.9,0.2,1.9s0.6,0.2,1.2-0.8
	c0.6-1,1.8-2,2-3.6c0.3-1.5,1-3.4,1-3.4l0.6,2.8c0,0,0.7,0,1.1-0.8c0.4-0.8,1.2-0.4,1.2,0.1c0,0.5,0.1,1.8,0.1,1.8s2.2-1,2.3-1.8
	c0.1-0.7,0.2-2-0.1-2.1c-0.3-0.1-1.7,0-1.5-0.4c0.2-0.4,0.5-1.2,0.8-1.8s0.1-1.9,0.1-2.4c0-0.5,0.7-1.1,0.4-2.8
	c-0.1-0.6-0.2-1-0.3-1.4c-0.2-0.7-0.3-1.1-0.3-1.6c-0.1-0.7-0.1-1.4-0.1-1.4l0.8,1.4l0.9,1.6l0.4-2.5c0,0,1.2,2.7,0.8,3.1
	c-0.2,0.2-0.5,0.9-0.7,1.5c-0.1,0.4-0.3,0.8-0.3,0.8l1.3-1c0,0,0.4,2,0.4,2.7s0,2.8,0,2.8l0,1.5l1-3c0,0,0.9,1.3,0.8,1.9
	c-0.1,0.6-0.3,1.5-0.3,2c0,0.5-0.5,2.9-0.5,2.9s0.9,1.5-1.6,4.2c-2.5,2.7-6.7,7.4-8.1,7.8c-1.4,0.5-3.8,0-6.2,0.7
	c-2.3,0.7-5.2,0.4-6.9,0.4C42.5,43,41.7,41.2,41.7,41.2z"></path><path class="st4" d="M50.5,44.7c-1.4,0.3-4.5-0.6-5.3-0.2c-0.8,0.4-3,0.1-3.7-0.3c-0.7-0.4-2.1-1.5-3.5-2.5c-1.4-1-3.8-3.4-2.7-3
	c1.6,0.5,2.7,1.3,3,1.5c0.3,0.2,1.9,0.7,1.9,0.7s0.9-0.5,0.8-1c-0.1-0.4,0-2.3,0.4-1.8c0.4,0.6,1.1,0.7,1.8,1.3s2,0.5,2.4,0.7
	c0.3,0.3-1.4-1.8-2-2.9c-0.6-1.1-1.4-2.5-1.4-2.5s2,1.3,2.7,2s-0.5-0.8-1-1.8c-0.5-1,0.1-2.9,0.1-2.9s1.9,3.1,2.1,3.3
	c0.3,0.2,1.7,0.3,1.7,0.3l0.6,1.6c0,0-0.4,4.2,1,2.2s0.9-3.7,0.9-3.7s0.7,1.7,1.5,2.1c0.8,0.4,1.3-1.2,1.3-1.2l2.4-2.5
	c0,0,0.6-0.1,0.9-1.2c0.3-1.1,0.9-2.3,0.9-2.3s1.5,2.6,1.2,2.9c-0.3,0.3-2.7,4.8-2.7,4.8s5.3-3.6,5.1-5c-0.2-1.4,1.7-1.4,0.8-0.7
	c-0.8,0.7,1,2.2,0.1,3c0,0,1.7-1.4,2.2-1.9c0.5-0.4,0.7-1.6,1.3-1.8c0.6-0.2,0.9-1.7,1.5-2c0.6-0.3,1-1.6,1-1.3s-1,4.5-1,4.5
	l1.9-1.8c0,0-0.5,2.4-1.4,3.6c-0.9,1.2-3.4,4.3-4.4,5.2s-3.9,3.7-5.1,3.9s-2.2,0.4-2.8,0.6c-0.7,0.2-0.6,0.1-1.5,0.2
	C52.7,45,50.5,44.7,50.5,44.7z"></path><path class="st8" d="M74.8,59.8c0,0-19.8,21.4-23.3,35"></path><path class="st1" d="M82.9,75.9c-3,0-3.8,1.4-8.2-4.2l-4.4-5.6c0,0,1.3-0.8,2.7-1.7c1.4-0.9,6.4-5.1,11-2.2c4.6,2.9,7,5.2,7.7,6
	c0.7,0.9,3.5,3.2,4.1,3.9"></path><path class="st3" d="M48.1,60.2c0,0.1,1.8,3.5,4.8,6.6c3,3.1,4.8,4.5,7.5,3.9c2.7-0.6,5-1.6,7.5-2.8c2.5-1.2,3.3-1.9,4.2-1.4
	c0.9,0.4-1.5-0.1-4.5-4c-2.9-3.9-3.9-6.3-6.4-6.3c-2.5,0-4.2,2.2-6.9,3C51.6,59.8,48.1,60.2,48.1,60.2"></path><path class="st4" d="M80.1,39.3c0,0,4.2-1.1,6.6-0.7c2.4,0.4,5.1,1.5,5.4,2.9s1.3,2.3,0.9,4.7c-0.4,2.4-2.3,6.1-5.9,6.4
	c-3.6,0.3-5.2,1-6.9-0.4c-1.7-1.4-4.3-2.7-4.3-4.9C76,45,80.1,39.3,80.1,39.3z"></path><path class="st4" d="M77.9,38.9c0.4-0.4,2.4-3.8,3.2-4.3c0.9-0.4,1.7-1,1.7-1L82.1,36l2.1-1.9l0.6,1.7l2.3-0.6
	c0.1,0.8,0.9,0.8,0.7,1.1c-0.2,0.3,0.6,1.2,0.6,1.2l0.7,1.5c0,0-3,1.3-1,1.2c1.9-0.1,2.5-0.7,1.9-0.1c-0.5,0.6-1.2,2.2-1.2,2.2
	s-0.9,2.2-1,2.4s-2.6,1-3.2,0.8c-0.6-0.1-4.9-3.9-4.9-3.9L77.9,38.9z"></path><path class="st5" d="M92.7,38.9l-1.8,0.8l-1.1-2.1l-1.4-0.1L87,36.9c0,0-2-0.1-2-0.4c0-0.2-1.3,0.1-1.3,0.2s-0.4,0.3-0.5,0.6
	c-0.1,0.3,0.2,0.9,0.2,0.9l1-0.7l-0.8,2.1l2.2-1.9L85,40.2l1.8-1.6l-1.6,3l1.9-1.1l-0.4,2.7l1.6-1.8l0.8,3.2l1.4-1.6l0.5,1.3
	l0.8-1.3l1.2-2.3L92.7,38.9z"></path><path class="st6" d="M76.3,34.8c0,0-1.4,2.8-0.6,2.5c0.8-0.2,2.9-2.9,2.9-2.9l0.2,1.2l1.8-1.5l-1.2,2.6c0,0-0.6,1-0.6,1.4
	c0,0.4,1.7-0.7,1.6-0.3c0,1.5-1.7,4.6-0.7,3.8c1.1-0.8,2.7-2.9,2.7-2.9l-0.1,2.6l1.4-0.9l0.2,1.3l2.9-1.8l-1.5,2.8l1.3,1.6l1.2-2
	l1.3,1.6l1.4,1.4l1.4-0.2l0.4-2L92,40.7l1.2,1.4l1.6,2.3l-1.3,3.7c0,0-0.7,4.5-1.6,4.6c-0.8,0.1-10.2,1.4-11.1,1.2
	c-0.9-0.2-8.4-7.7-8.4-7.7L71,41.4l3.6-4.6L76.3,34.8z"></path><path class="st7" d="M69.7,40.3c0.5-0.1,1-0.2,1.3-0.7c0.3-0.5,2.1-1.9,2.1-1.9s0.1,1.9-0.1,2c-0.3,0.1-1.2,1.4-1.2,1.4l0.4,2.5
	c0,0,1.1-1.8,1.5-2.4c0.5-0.6,2.2-2.1,2.1-1.7c-0.1,0.4-1.2,3.2-1.2,3.2l1.1,0.3l1.4-1.6c0,0-0.6,1.8-0.5,2.3
	c0.2,0.4,0.4,1.5,0.4,1.5s-0.3-2,0.8-2.9c1.2-0.9,2.5-1.3,1.9-0.8s-1.7,2.4-1.3,2.1c0.4-0.4,1-0.5,1-0.5s-1,0.9-0.9,1.8
	s0.1,2.1,0.1,2.1s0.7-1.7,2.1-2.4c1.5-0.7,2.3-0.6,2.6-0.9c0.2-0.3,0.2,1.7-0.1,1.9c-0.3,0.1,0.4,0.7,1.3-0.1c0.9-0.8,2.4-1.5,2-1.3
	c-0.3,0.2-0.3,2-0.3,2c1.7-0.3,1.5-0.3,2.1-0.8c0.5-0.6,1.1,0.6,0.2,1.1c-0.9,0.5-1.9,1.5-2.4,1.6c-0.5,0.1-2,1.2-1.4,1.2
	c0.6,0,2,0.3,2.8-0.5c0.8-0.8,1.6-1.6,1.2-0.8c-0.4,0.8-1.5,2.2-1.5,2.2s0.1,0.1,1.2-0.2c1.1-0.3,2.8-0.9,2.8-0.9s-0.7,0.8-1.1,1.3
	C89.9,51,88,51.7,88,51.7s0.5,0.9,1.1,0.6s2.8-2.1,2.9-2.1c0.1,0.1,0.4-1.1,0.5-1.6c0.1-0.5-0.1-1.8,0.4-2.4c0.5-0.7,0.9-0.9,1-1.4
	s-0.2,0.1,0.2,1.1c0.4,1,1.6,3.9-0.3,5.4c-1.9,1.5-1.2,8-7.6,7.7c-6.4-0.4-13.3-5.9-14.4-7.3c-1.1-1.3-3.4-3.4-2.4-3.9
	c1-0.5-2.2-4.2-1.9-5.1s1.4-1.8,1.4-1.8L69.7,40.3z"></path><path class="st6" d="M67.1,52.4c0.5-1.1-0.6-2.6-0.6-3.5c0-0.9-2-1-1.7-1.9s0.4-2.4,0.4-2.4l1,1c0,0,0.1-1,0.4-1.2
	c0.2-0.2,0.5-0.5,0.2-0.2c-0.2,0.2,0.5,2.3,0.5,2.3l1.1,1.5c0,0,1.2,1.2,1.2,0.7c0-0.6-0.7-1.8-1-3s-0.4-2,0-2.6
	c0.4-0.6,1.2,1,1.2,1.6c0,0.6,0.5,2.6,0.5,2.6s0.8-1.1,1.1-1.5c0.3-0.3,0,1.3,0.2,1.3c0.2,0,0.3-0.7,1.7-1.6S76,45,76,45
	s-2,1.7-2.1,2c-0.1,0.3,2.3-0.8,2.3-0.8s-0.3-0.7-0.3,1c0,1.7-0.1,2.7,0.4,3.6s0.7,1.3,1.2,0.6c0.5-0.7,0.5-1.2,0.8-1.9
	c0.3-0.7,1.4-1.6,1.8-1.7c0.3-0.2,2.4-0.3,2.4-0.3S82,50.8,81.6,51c-0.3,0.2-1.3,2.4-1.6,2.7c-0.3,0.2-1,1.3-1,1.3s0.3,0.5,1.3,0.2
	c1-0.3,2.3-0.2,3.4-1c1.1-0.8,2.7-1.4,2.7-1.4L85,54.8c0,0,0.4,0.4,1.2,0.2c0.7-0.2,1,0.5,0.7,0.8s-1,1.2-1,1.2s2,0.7,2.5,0.3
	c0.5-0.4,1.3-1.1,1.2-1.3s-1-1-0.7-1.2c0.3-0.2,1-0.5,1.6-0.6c0.5-0.2,1.2-1.1,1.5-1.4c0.3-0.3,1.1-0.2,1.9-1.5
	c0.3-0.4,0.5-0.7,0.6-1c0.3-0.5,0.5-0.8,0.8-1.2c0.4-0.5,0.8-0.9,0.8-0.9l-0.3,1.3L95.3,51l1.7-1.3c0,0-0.9,2.4-1.4,2.4
	c-0.3,0-0.8,0.3-1.3,0.5c-0.4,0.2-0.6,0.3-0.6,0.3l1.4,0.1c0,0-1,1.5-1.4,1.9s-1.7,1.7-1.7,1.7l-0.9,0.9l2.4-1.3
	c0,0-0.2,1.4-0.7,1.7c-0.4,0.4-1.1,0.7-1.4,1.1c-0.3,0.3-2.1,1.5-2.1,1.5s-0.3,1.4-3.5,1.6c-3.2,0.2-8.6,0.5-9.7-0.1
	s-2.4-2.3-4.2-3.3c-1.9-1-3.4-2.9-4.5-3.9C66.5,54,67.1,52.4,67.1,52.4z"></path><path class="st4" d="M70.5,59.9c-1-0.7-2.4-3.1-3.1-3.3c-0.7-0.3-1.9-1.7-2.1-2.4s-0.4-2.2-0.6-3.7s-0.3-4.3,0.2-3.5
	c0.7,1.3,0.9,2.5,0.9,2.8c0,0.3,0.7,1.6,0.7,1.6s0.9,0.2,1.1-0.1c0.2-0.3,1.4-1.5,1.3-0.9s0.2,1.1,0.3,1.9c0.1,0.8,1,1.5,1,1.9
	s0.2-1.9,0.5-3c0.3-1.1,0.6-2.4,0.6-2.4s0.4,2,0.5,2.8c0,0.8,0.2-0.8,0.5-1.7c0.3-0.9,1.9-1.7,1.9-1.7s-0.7,3-0.7,3.3
	c0,0.3,0.9,1.3,0.9,1.3l-0.6,1.3c0,0-2.8,2.3-0.7,2c2.1-0.4,2.8-1.8,2.8-1.8s-0.6,1.5-0.4,2.2c0.2,0.7,1.5,0,1.5,0l3-0.1
	c0,0,0.4,0.3,1.3-0.2c0.9-0.5,1.9-0.9,1.9-0.9s-0.6,2.5-1,2.5c-0.4,0-4.6,1.4-4.6,1.4s5.4,1,6.2,0c0.8-1,1.9,0.1,0.9,0.1
	s-0.7,2-1.7,1.9c0,0,1.9,0.1,2.5,0.1c0.5,0,1.4-0.5,1.9-0.3c0.5,0.2,1.6-0.5,2.1-0.3c0.5,0.2,1.6-0.4,1.4-0.2s-3.4,2.2-3.4,2.2
	l2.3,0c0,0-1.8,1.1-3.1,1.4c-1.3,0.2-4.7,0.6-5.8,0.5c-1.1-0.1-4.6-0.1-5.5-0.7c-0.9-0.6-1.6-1-2.1-1.3c-0.5-0.3-0.4-0.3-1.1-0.8
	C71.6,61.4,70.5,59.9,70.5,59.9z"></path><path class="st9" d="M33.3,59.5c0,0,13.9,9.6,18.3,35.7"></path><path class="st1" d="M29.5,80c3-1,4.4,0.1,6.9-7.2l2.5-7.3c0,0-1.6-0.4-3.4-0.8c-1.8-0.5-8.3-2.9-12,1.7c-3.7,4.6-5.3,7.8-5.7,8.9
	c-0.4,1.1-2.4,4.5-2.9,5.4"></path><path class="st10" d="M60.8,50.4c0.1,0.1-0.6,4.2-2.6,8.4c-2,4.2-3.3,6.3-6.3,6.7c-2.9,0.3-5.7,0.1-8.6-0.3c-3-0.3-4-0.8-4.8,0
	c-0.8,0.8,1.5-0.6,3.1-5.7c1.6-5,1.7-7.8,4.3-8.7c2.5-0.9,5.1,0.8,8.1,0.6C57.1,51.3,60.8,50.4,60.8,50.4"></path><path class="st4" d="M20.6,40.3c0,0-4.7,0.3-7,1.6s-4.7,3.4-4.4,4.9c0.3,1.5-0.5,2.8,0.8,5.1s4.5,5.4,8.3,4.5c3.7-0.9,5.7-0.8,7-2.8
	c1.3-2,3.5-4.3,2.6-6.6C26.9,44.7,20.6,40.3,20.6,40.3z"></path><path class="st4" d="M22.7,39.2c-0.6-0.3-3.8-3.1-4.8-3.2c-1-0.1-2.1-0.4-2.1-0.4l1.6,2.1l-2.8-1.2l-0.1,1.9L12,38.6
	c0.1,0.8-0.6,1.1-0.3,1.4c0.3,0.3-0.2,1.4-0.2,1.4l-0.1,1.8c0,0,3.5,0.3,1.5,0.9s-2.8,0.1-2,0.6c0.8,0.4,2,1.8,2,1.8
	s1.7,1.9,1.8,2.1c0.2,0.2,3,0.1,3.6-0.3c0.6-0.4,3.6-5.7,3.6-5.7L22.7,39.2z"></path><path class="st5" d="M7.6,44.4l2.1,0.2l0.3-2.5l1.4-0.6l1.3-1.1c0,0,2-0.8,2-1.1c0-0.2,1.4-0.4,1.4-0.2c0,0.1,0.5,0.2,0.7,0.5
	c0.2,0.3,0.2,1,0.2,1l-1.3-0.4l1.6,1.9l-2.9-1.2L16,43l-2.4-1l2.7,2.5L14,44l1.3,2.6l-2.3-1.3l0.3,3.5l-2-1.1l-0.1,1.5L10,48.2
	l-2-1.9L7.6,44.4z"></path><path class="st6" d="M23,34.4c0,0,2.4,2.3,1.5,2.4s-4-2-4-2l0.2,1.3l-2.4-0.9l2.1,2.3c0,0,1,0.9,1.1,1.2c0.2,0.4-2-0.2-1.8,0.3
	c0.6,1.5,3.4,4.1,2,3.6c-1.4-0.5-3.8-2-3.8-2l1,2.6l-1.8-0.4l0.2,1.4l-3.6-0.8l2.5,2.3l-0.8,2.1l-1.9-1.6L13,48.1L12,50l-1.5,0.2
	l-1.1-1.9L9,46l-0.7,1.9l-0.8,3l2.6,3.3c0,0,2.4,4.4,3.2,4.2c0.9-0.2,10.9-2.2,11.7-2.7c0.8-0.5,5.9-10.9,5.9-10.9l-0.2-5.4
	l-5.3-3.4L23,34.4z"></path><path class="st7" d="M31.7,37.7c-0.6,0.1-1.1,0.2-1.6-0.2c-0.5-0.4-2.8-1.1-2.8-1.1s0.5,1.9,0.8,2c0.3,0,1.7,1,1.7,1l0.4,2.7
	c0,0-1.7-1.4-2.4-1.9s-3-1.3-2.7-1c0.3,0.4,2.3,2.9,2.3,2.9l-1,0.7l-2-1.1c0,0,1.3,1.6,1.3,2.1s0.2,1.7,0.2,1.7s-0.4-2.2-1.9-2.6
	c-1.5-0.5-3-0.4-2.3-0.1s2.6,1.9,2,1.7s-1.2-0.1-1.2-0.1s1.3,0.6,1.6,1.5c0.2,0.9,0.7,2.1,0.7,2.1s-1.3-1.5-3-1.7
	c-1.8-0.2-2.6,0.3-2.9,0c-0.3-0.3,0.4,1.8,0.7,1.9s-0.2,0.8-1.4,0.3c-1.2-0.5-3-0.7-2.5-0.6c0.4,0.1,1,2,1,2
	c-1.9,0.3-1.7,0.3-2.4-0.1s-0.9,1,0.2,1.2c1.1,0.2,2.5,0.9,3,0.8s2.4,0.5,1.8,0.7c-0.6,0.2-2,1-3.1,0.5s-2.2-1.1-1.5-0.4
	c0.7,0.7,2.4,1.7,2.4,1.7s-0.1,0.1-1.3,0.2c-1.2,0.1-3.2,0-3.2,0s1,0.6,1.6,1c0.6,0.4,2.7,0.4,2.7,0.4s-0.2,1.1-1,1
	s-3.6-1.2-3.7-1.1c-0.1,0.1-0.8-1-1.1-1.5c-0.3-0.5-0.5-1.8-1.3-2.3c-0.8-0.5-1.2-0.6-1.5-1.1c-0.3-0.5,0.2,0.1,0.2,1.2
	c0,1.1-0.2,4.6,2.2,5.4c2.5,0.9,4.1,7.8,10.5,5.1s11.5-10.8,12.1-12.5c0.6-1.7,2.3-4.7,1.1-4.9c-1.2-0.2,0.7-5.1,0.1-5.9
	s-2-1.4-2-1.4L31.7,37.7z"></path><path class="st6" d="M38.6,49.1c-0.9-1-0.3-2.9-0.6-3.8c-0.3-0.9,1.7-1.7,1.1-2.5s-1.3-2.3-1.3-2.3l-0.7,1.3c0,0-0.5-0.9-0.8-1.1
	s-0.7-0.3-0.3-0.1c0.3,0.1,0.3,2.5,0.3,2.5l-0.6,2c0,0-0.8,1.7-1,1.1c-0.2-0.6,0.1-2-0.1-3.4s-0.3-2.2-1-2.7c-0.7-0.5-0.9,1.5-0.7,2
	c0.2,0.6,0.5,2.9,0.5,2.9s-1.3-0.9-1.7-1.1c-0.4-0.2,0.4,1.3,0.2,1.4s-0.5-0.6-2.3-1c-1.8-0.4-2.8,0.5-2.8,0.5s2.6,1.1,2.9,1.3
	s-2.6,0-2.6,0s0.1-0.8,0.7,0.9s1.1,2.8,0.8,3.8s-0.2,1.6-1,1.1c-0.8-0.5-0.9-1.1-1.5-1.7s-2-1.1-2.4-1.1c-0.4,0-2.6,0.5-2.6,0.5
	s1.8,3.2,2.2,3.2c0.4,0.1,2.2,2,2.6,2.1c0.4,0.1,1.5,0.9,1.5,0.9s-0.1,0.6-1.2,0.7s-2.4,0.6-3.8,0.2c-1.4-0.4-3.2-0.5-3.2-0.5
	l2.1,1.7c0,0-0.3,0.6-1.1,0.6c-0.8,0-0.9,0.9-0.4,1.1s1.5,0.9,1.5,0.9s-1.8,1.4-2.4,1.2c-0.6-0.2-1.7-0.6-1.7-0.9
	c0-0.3,0.7-1.4,0.3-1.5c-0.4,0-1.2-0.1-1.8-0.1c-0.6,0-1.6-0.7-2.1-0.9c-0.4-0.2-1.2,0.1-2.5-0.9c-0.4-0.3-0.8-0.6-1-0.8
	C9.3,56.2,9,56,8.6,55.7c-0.6-0.4-1.1-0.6-1.1-0.6l0.8,1.2l1,1.4L7,57c0,0,1.8,2.1,2.3,2c0.3-0.1,1,0,1.5,0.1
	c0.4,0.1,0.8,0.1,0.8,0.1l-1.4,0.6c0,0,1.5,1.2,2.1,1.5c0.6,0.3,2.3,1.2,2.3,1.2l1.2,0.7l-2.9-0.4c0,0,0.7,1.3,1.3,1.5
	c0.5,0.2,1.4,0.4,1.8,0.6c0.4,0.2,2.7,0.8,2.7,0.8s0.8,1.4,4.1,0.4s8.9-2.5,9.9-3.5c1-1,1.6-3.2,3.1-4.9c1.5-1.7,2.4-4.2,3.2-5.6
	C39.7,50.6,38.6,49.1,38.6,49.1z"></path><path class="st4" d="M37.8,58c0.8-1,1.4-4,2-4.5c0.6-0.5,1.3-2.5,1.3-3.2c0-0.7-0.4-2.4-0.7-3.9s-1.2-4.5-1.4-3.5
	c-0.2,1.6,0,2.8,0,3.1c0,0.3-0.2,1.9-0.2,1.9s-0.8,0.5-1.2,0.3s-2-1-1.6-0.4s0.2,1.2,0.3,2.1c0.2,0.9-0.5,1.9-0.4,2.3
	s-0.9-1.9-1.6-2.9S32.9,47,32.9,47s0.3,2.2,0.5,3.1c0.2,0.9-0.4-0.7-1.1-1.5s-2.5-1.1-2.5-1.1s1.8,2.8,1.8,3.1s-0.4,1.6-0.4,1.6
	l1.1,1.1c0,0,3.7,1.4,1.4,1.8c-2.3,0.4-3.5-0.8-3.5-0.8s1.1,1.3,1.2,2.1S29.9,57,29.9,57l-3.1,0.9c0,0-0.3,0.5-1.4,0.2
	c-1.1-0.2-2.3-0.2-2.3-0.2s1.5,2.4,1.9,2.2c0.4-0.1,5.1-0.2,5.1-0.2s-5.2,2.9-6.3,2.2c-1.1-0.7-1.9,0.8-0.9,0.4
	c0.9-0.4,1.4,1.8,2.5,1.4c0,0-1.9,0.8-2.5,1c-0.6,0.2-1.6,0-2.1,0.3s-1.8,0-2.3,0.4c-0.4,0.4-1.8,0.2-1.5,0.3c0.3,0.2,4.2,1,4.2,1
	l-2.3,0.8c0,0,2.2,0.5,3.6,0.3c1.4-0.2,5-1,6.1-1.5c1.1-0.5,4.7-1.7,5.3-2.6s1.2-1.6,1.7-2.1s0.3-0.5,0.8-1.2
	C37.1,59.9,37.8,58,37.8,58z"></path><path class="st11" d="M26,88.5c2.8-2.4,2.2-8,6.6-10.4c4.4-2.3,11.7-1.2,14-1.2c2.3,0.1,2.2-1.8,0.5,1.6c-1.7,3.5-0.6,4.2-2.8,6.9
	c-2.2,2.6-8.7,4.5-10.7,3.8C31.6,88.6,26,88.5,26,88.5"></path><path class="st12" d="M72.9,66.5c0,0-8.2,1.3-12,3.5c-3.8,2.2-5.6,3.8-5.4,7.5c0.2,3.7-0.4,6-0.4,6s5.6-2.1,8-1.7
	c2.4,0.3,6.7-1.5,7.2-4.2C70.8,75,72.9,66.5,72.9,66.5"></path><path class="st10" d="M52.6,89.4c-2.3-1.6-3.7-1-4-7.7L48.2,75c0,0,1.4,0.1,3,0.1c1.6,0.1,7.7-0.4,9.6,4.3c2,4.7,2.6,7.8,2.6,8.8
	c0,1,0.9,4.4,1.1,5.2"></path></g></svg>