<svg xmlns="http://www.w3.org/2000/svg" version="1.1" xmlns:xlink="http://www.w3.org/1999/xlink" xmlns:svgjs="http://svgjs.dev/svgjs" viewBox="0 0 108 108" style="" x="0" y="0"><style type="text/css">
	.st0{fill:none;stroke:#708530;stroke-width:1.0127;stroke-miterlimit:10;}
	.st1{fill:#92B83E;}
	.st2{fill:#718820;}
	.st3{fill:#65892A;}
	.st4{fill:#A6BD39;}
	.st5{fill:#72AA3A;}
	.st6{fill:#6F9541;}
	.st7{fill:#808F37;}
	.st8{fill:#62953D;}
	.st9{fill:#5B883D;}
	.st10{fill:#FCC400;}
	.st11{fill:#F8B518;}
	.st12{fill:#FED800;}
	.st13{fill:#A0741A;}
	.st14{fill:#9E6D1E;}
	.st15{fill:#E68925;}
	.st16{fill:#EC9F22;}
	.st17{fill:#E89525;}
	.st18{fill:#D69929;}
	.st19{fill:#ECBB44;}
	.st20{fill:#9B6930;}
</style><g><path class="st0" d="M85.2,57.9c-4.7,1.1-10.1,1.4-13.7,0.3"></path><path class="st0" d="M82.4,65.8c-3.6-3.5-10.4-7.4-11.7-8.2"></path><path class="st0" d="M79.4,54.5c-1.2,2.9-1.1,5.1-6.8,4.2"></path><path class="st1" d="M88.8,74.4c0,0-0.6-5.8-1.9-8.5c-1.4-2.7-2.4-4.1-5-4.1c-2.6,0-4.2-0.5-4.2-0.5s1.2,4,0.8,5.7
	c-0.3,1.7,0.8,4.8,2.6,5.2C83,72.6,88.8,74.4,88.8,74.4"></path><path class="st0" d="M74.8,76.5c-2.2-4.3-3.8-9.5-3.6-13.2"></path><path class="st0" d="M66.5,75.7c2.5-4.4,4.6-11.9,5.1-13.4"></path><path class="st0" d="M76.7,70c-3.1-0.4-5.2,0.2-5.8-5.6"></path><path class="st2" d="M78.8,88.3c0,0-0.7-2.2-3.6-3.6c-2.9-1.4-5.4-4.3-3.9-7.3c1.4-3.1,1.2-5.2,1.2-5.2s-0.3,0.4,2.3,1.4
	c2.6,1,5.4,4.4,5.2,7.4C80,83.9,78.8,88.3,78.8,88.3"></path><path class="st1" d="M59.7,84c0,0,5.5-2,7.8-4c2.3-2,3.4-3.3,2.7-5.8c-0.6-2.5-0.5-4.2-0.5-4.2s-3.6,2.1-5.3,2.2
	C62.7,72.3,60,74.1,60,76C60,77.9,59.7,84,59.7,84"></path><path class="st0" d="M46.8,62.6c2.3,0.9,6.6,1.6,9.7,2.2"></path><path class="st0" d="M47.3,69.7c2.4-2.5,6.6-5.2,10.3-5.8"></path><path class="st0" d="M52.6,73.1c-0.2-4-1-7.6,3.4-8.5"></path><path class="st0" d="M64.6,62.3c4.2-2.4,9.3-4.3,13-4.3"></path><path class="st0" d="M65,53.9c4.5,2.3,12.1,4,13.6,4.4"></path><path class="st0" d="M71.2,63.8c0.3-3.1-0.4-5.2,5.3-6"></path><path class="st3" d="M52.3,68.6c-0.3,0.6-1.1,1.2-2.4,4.3c-1.3,3.1-2,5.7,0.1,7.2c2.2,1.5,3,1,4,2.9l1,2c0,0,1.2-2.7,2.6-6.4
	c1.4-3.8-1.6-7.1-3-8.2C53.2,69.2,52.3,68.6,52.3,68.6"></path><path class="st2" d="M53,66.9c0,0,2.2-0.8,3.4-3.7c1.2-2.9,4-5.6,7.1-4.3c3.1,1.3,5.3,1,5.3,1s-0.4-0.2-1.3,2.4
	c-0.9,2.7-4.1,5.6-7.1,5.6C57.5,67.8,53,66.9,53,66.9"></path><path class="st4" d="M71.5,60.7c-0.1,0-1.9,1.9-3.4,4.4c-1.4,2.6-2,4-1.1,5.7c0.9,1.6,2,2.9,3.3,4.3c1.3,1.4,1.9,1.8,1.8,2.4
	c-0.1,0.7-0.2-1,1.7-3.7c2-2.7,3.4-3.8,2.9-5.4c-0.5-1.6-2.3-2.3-3.3-3.9C72.4,62.9,71.5,60.7,71.5,60.7"></path><path class="st0" d="M75.9,50.8c1.7,4.5,2.8,9.8,2.2,13.5"></path><path class="st0" d="M84.1,52.4c-3,4.1-5.8,11.3-6.5,12.8"></path><path class="st0" d="M73.3,57c3,0.7,5.2,0.4,5.2,6.1"></path><path class="st4" d="M76.4,57.8c0,0-1.5-2.2-3.9-4c-2.3-1.8-3.7-2.6-5.4-2c-1.7,0.6-3.2,1.6-4.8,2.6c-1.6,1-2,1.6-2.7,1.3
	c-0.7-0.2,1-0.1,3.4,2.3c2.3,2.4,3.2,3.9,4.9,3.7c1.7-0.2,2.7-1.9,4.4-2.7C74,58.3,76.4,57.8,76.4,57.8"></path><path class="st5" d="M83.9,68.4c-1.9-1.5-5.9-3.5-8.7-5"></path><path class="st5" d="M85.6,61.4c-3,1.7-7.9,3-11.6,2.6"></path><path class="st5" d="M81.4,56.6c-1,3.9-1.3,7.5-5.7,7.2"></path><path class="st5" d="M66.8,63.5c-4.7,1.1-10.1,1.4-13.7,0.3"></path><path class="st5" d="M64,71.4c-3.6-3.5-10.4-7.4-11.7-8.2"></path><path class="st5" d="M60.9,60.1c-1.2,2.9-1.1,5.1-6.8,4.2"></path><path class="st5" d="M80.4,61c0.4-0.5,1.4-0.8,3.6-3.4c2.2-2.6,3.6-4.9,2-7c-1.6-2.1-2.5-1.8-2.9-4l-0.4-2.2c0,0-1.9,2.2-4.4,5.4
	c-2.5,3.2-0.5,7.3,0.5,8.8C79.7,60.2,80.4,61,80.4,61"></path><path class="st5" d="M79.2,62.5c0,0-2.3,0.1-4.4,2.6c-2,2.5-5.5,4.2-8.1,2c-2.6-2.1-4.7-2.5-4.7-2.5s0.3,0.4,1.9-1.9
	c1.6-2.3,5.6-4.1,8.4-3.2C75.2,60.3,79.2,62.5,79.2,62.5"></path><path class="st5" d="M70.4,80c0,0-0.6-5.8-1.9-8.5c-1.4-2.7-2.4-4.1-5-4.1c-2.6,0-4.2-0.5-4.2-0.5s1.2,4,0.8,5.7
	c-0.3,1.7,0.8,4.8,2.6,5.2C64.5,78.2,70.4,80,70.4,80"></path><path class="st5" d="M59.8,62.9c0,0,2.4-1.2,4.5-3.3c2.1-2,3.1-3.3,2.7-5.1c-0.4-1.8-1.1-3.4-1.9-5.1c-0.8-1.7-1.3-2.2-1-2.9
	c0.3-0.6-0.1,1-2.8,3c-2.7,2-4.3,2.6-4.4,4.3c0,1.7,1.5,2.9,2,4.7C59.6,60.6,59.8,62.9,59.8,62.9"></path><path class="st0" d="M76.3,26.8c-3.7,3.1-8.3,5.9-12,6.6"></path><path class="st0" d="M77.4,35.1c-4.8-1.5-12.6-1.7-14.2-1.9"></path><path class="st0" d="M69.5,26.5c0.3,3.1,1.4,5.1-4.1,6.9"></path><path class="st1" d="M87.1,39.9c0,0-3.2-4.9-5.6-6.7c-2.5-1.8-4-2.5-6.3-1.3c-2.3,1.2-4,1.4-4,1.4s2.9,3,3.4,4.6
	c0.5,1.7,2.9,3.9,4.7,3.4C81,40.9,87.1,39.9,87.1,39.9"></path><path class="st0" d="M75.6,48.1c-4-2.8-7.8-6.6-9.3-10"></path><path class="st0" d="M67.8,51.3c0.2-5-1.4-12.7-1.7-14.2"></path><path class="st0" d="M74.3,41.5c-2.9,1-4.6,2.6-7.7-2.3"></path><path class="st2" d="M84.6,56.8c0,0-1.6-1.7-4.8-1.6c-3.2,0.1-6.7-1.3-6.9-4.7c-0.1-3.4-1.3-5.2-1.3-5.2s-0.1,0.5,2.7,0.2
	c2.8-0.3,6.8,1.4,8,4.2C83.6,52.3,84.6,56.8,84.6,56.8"></path><path class="st1" d="M65.6,61.8c0,0,4-4.3,5.1-7.1c1.2-2.8,1.4-4.5-0.3-6.4c-1.7-1.9-2.4-3.5-2.4-3.5s-2.2,3.5-3.7,4.4
	c-1.5,0.9-3.1,3.7-2.2,5.4C63.1,56.2,65.6,61.8,65.6,61.8"></path><path class="st0" d="M44.4,48.7c2.4-0.3,6.6-1.6,9.7-2.5"></path><path class="st0" d="M48,54.8c1-3.3,3.5-7.6,6.5-9.9"></path><path class="st0" d="M54.4,55.4c-2.1-3.5-4.3-6.3-0.9-9.1"></path><path class="st0" d="M60,40.2c2.6-4.1,6.2-8.1,9.6-9.8"></path><path class="st0" d="M56.5,32.6c5,0,12.6-2,14.1-2.4"></path><path class="st0" d="M66.6,38.6c-1.2-2.9-2.8-4.4,1.9-7.8"></path><path class="st6" d="M52,51.5c0.1,0.7-0.4,1.5-0.2,4.9c0.2,3.4,0.8,6,3.5,6.4c2.6,0.4,3.1-0.5,4.9,0.8l1.8,1.3c0,0-0.2-2.9-0.6-6.9
	c-0.5-4-4.7-5.6-6.5-5.9C53.1,51.6,52,51.5,52,51.5"></path><path class="st2" d="M51.8,49.7c0,0,1.6-1.7,1.3-4.9c-0.3-3.2,1-6.8,4.4-7.1c3.4-0.3,5.1-1.6,5.1-1.6s-0.5,0,0,2.7
	c0.5,2.7-1.1,6.8-3.7,8.2C56.2,48.4,51.8,49.7,51.8,49.7"></path><path class="st4" d="M65.4,35.7c-0.1,0-0.9,2.5-0.9,5.5c-0.1,2.9,0.1,4.5,1.6,5.5c1.6,1,3.2,1.7,4.9,2.3c1.8,0.7,2.5,0.7,2.7,1.4
	c0.2,0.7-0.7-0.8-0.2-4.1c0.5-3.3,1.3-4.9,0.1-6.1c-1.2-1.2-3.1-1-4.8-2C67.2,37.2,65.4,35.7,65.4,35.7"></path><path class="st0" d="M64.7,24.8c3.6,3.2,7,7.4,8.2,11"></path><path class="st0" d="M72.8,22.5c-0.8,5,0.1,12.7,0.1,14.3"></path><path class="st0" d="M65.4,31.6c3-0.7,4.8-2.1,7.4,3.1"></path><path class="st4" d="M68.4,30.8c0-0.1-2.4-1.2-5.3-1.8c-2.9-0.5-4.5-0.6-5.7,0.7c-1.2,1.4-2.1,2.9-3.1,4.5c-0.9,1.6-1.1,2.3-1.8,2.4
	c-0.7,0.1,0.9-0.5,4.1,0.5c3.2,1,4.7,2,6.1,1c1.4-1,1.5-2.9,2.7-4.4C66.6,32.4,68.4,30.8,68.4,30.8"></path><path class="st5" d="M79.9,36.7c-2.4-0.4-6.8-0.4-10-0.4"></path><path class="st5" d="M78.2,29.8c-1.9,2.9-5.6,6.3-9.1,7.6"></path><path class="st5" d="M72.3,27.4c1,3.9,2.3,7.3-1.8,9"></path><path class="st5" d="M62.5,40.3c-3.7,3.1-8.3,5.9-12,6.6"></path><path class="st5" d="M63.6,48.6c-4.8-1.5-12.6-1.7-14.2-1.9"></path><path class="st5" d="M55.7,40c0.3,3.1,1.4,5.1-4.1,6.9"></path><path class="st5" d="M73.4,31.9c0.1-0.7,0.9-1.3,1.6-4.6c0.8-3.3,1-6-1.4-7.1c-2.4-1.1-3.1-0.4-4.4-2.2l-1.4-1.8
	c0,0-0.7,2.8-1.4,6.8c-0.7,4,2.9,6.7,4.5,7.5C72.4,31.4,73.4,31.9,73.4,31.9"></path><path class="st5" d="M73.1,33.7c0,0-2,1.2-2.7,4.3c-0.7,3.1-2.9,6.2-6.3,5.5c-3.3-0.7-5.4,0-5.4,0s0.5,0.2,0.8-2.6
	c0.4-2.8,3.1-6.2,6-6.7C68.5,33.6,73.1,33.7,73.1,33.7"></path><path class="st5" d="M73.3,53.3c0,0-3.2-4.9-5.6-6.7c-2.5-1.8-4-2.5-6.3-1.3c-2.3,1.2-4,1.4-4,1.4s2.9,3,3.4,4.6
	c0.5,1.7,2.9,3.9,4.7,3.4C67.3,54.4,73.3,53.3,73.3,53.3"></path><path class="st5" d="M56,43.1c0.1,0,1.6-2.2,2.5-5c1-2.8,1.3-4.3,0.1-5.8c-1.2-1.4-2.5-2.5-4-3.7c-1.5-1.2-2.1-1.4-2.2-2.1
	c0-0.7,0.4,1-1.1,3.9c-1.5,3-2.6,4.3-1.9,5.9c0.8,1.5,2.7,1.9,4,3.3C54.7,41,56,43.1,56,43.1"></path><path class="st0" d="M41.1,20.2c0.2,4.9-0.5,10.2-2.2,13.5"></path><path class="st0" d="M48.4,24.4c-4.1,2.9-9.1,8.9-10.2,10.1"></path><path class="st0" d="M36.7,25.3c2.6,1.7,4.8,2,2.9,7.5"></path><path class="st1" d="M58,19.6c0,0-5.8-0.5-8.7,0.3c-2.9,0.8-4.4,1.6-4.9,4.2c-0.5,2.5-1.3,4-1.3,4s4.1-0.5,5.7,0.2
	c1.6,0.6,4.8,0.1,5.6-1.6C55.2,25,58,19.6,58,19.6"></path><path class="st0" d="M57.5,33.8c-4.7,1.4-10,2.1-13.6,1.2"></path><path class="st0" d="M55.3,41.8c-3.8-3.3-10.9-6.7-12.3-7.4"></path><path class="st0" d="M51.5,30.7c-1,3-0.8,5.2-6.5,4.7"></path><path class="st2" d="M69.9,31.9c0,0-2.3,0.3-4.2,2.8c-1.9,2.6-5.2,4.5-7.9,2.5c-2.7-2-4.9-2.2-4.9-2.2s0.4,0.3,1.8-2
	c1.4-2.4,5.3-4.5,8.2-3.8C65.8,30,69.9,31.9,69.9,31.9"></path><path class="st1" d="M62.2,50c0,0-0.9-5.7-2.5-8.4c-1.5-2.6-2.7-3.9-5.2-3.7c-2.6,0.2-4.2-0.3-4.2-0.3s1.5,3.9,1.2,5.6
	c-0.2,1.7,1.1,4.7,2.9,5S62.2,50,62.2,50"></path><path class="st0" d="M38.8,58.8c1.3-2.1,2.8-6.2,3.9-9.2"></path><path class="st0" d="M45.9,59.7c-2-2.8-3.9-7.5-3.9-11.2"></path><path class="st0" d="M50.3,55c-4-0.5-7.6-0.4-7.8-4.8"></path><path class="st0" d="M41.7,41.2c-1.6-4.6-2.6-9.9-1.9-13.6"></path><path class="st0" d="M33.5,39.4c3.1-4,6.1-11.2,6.8-12.6"></path><path class="st0" d="M44.4,35c-3-0.8-5.2-0.5-5-6.3"></path><path class="st3" d="M45.7,54.4c0.6,0.4,0.9,1.3,3.7,3.2c2.8,1.9,5.2,3,7.1,1.2c1.9-1.8,1.5-2.7,3.6-3.4l2.1-0.6
	c0,0-2.4-1.7-5.9-3.8c-3.5-2.1-7.3,0.3-8.6,1.5C46.5,53.7,45.7,54.4,45.7,54.4"></path><path class="st2" d="M44.2,53.5c0,0-0.4-2.3-3.1-4c-2.7-1.7-4.8-5-2.9-7.8c1.8-2.8,1.9-5,1.9-5s-0.3,0.4,2.1,1.7
	c2.5,1.3,4.7,5.1,4.2,8C45.8,49.3,44.2,53.5,44.2,53.5"></path><path class="st4" d="M41.4,34.2c0,0,1.5,2.2,3.8,4.1c2.3,1.9,3.6,2.7,5.4,2.1c1.8-0.6,3.2-1.5,4.9-2.5c1.6-1,2.1-1.5,2.7-1.3
	c0.7,0.2-1,0-3.3-2.4c-2.3-2.4-3.1-4-4.8-3.8c-1.7,0.2-2.7,1.8-4.5,2.5C43.8,33.7,41.4,34.2,41.4,34.2"></path><path class="st0" d="M32.4,28c4.8-0.9,10.2-1,13.7,0.3"></path><path class="st0" d="M35.6,20.3C39,23.9,45.7,28,47,29"></path><path class="st0" d="M38.2,31.7c1.3-2.8,1.3-5.1,7-4"></path><path class="st4" d="M39.4,28.8c0,0-2.4,1.1-4.7,3.1c-2.2,2-3.3,3.1-2.9,5c0.3,1.8,1,3.4,1.7,5.2c0.7,1.7,1.2,2.3,0.8,2.9
	c-0.3,0.6,0.1-1,2.9-2.9c2.7-1.9,4.4-2.4,4.5-4.1c0.1-1.7-1.4-3-1.8-4.8C39.5,31.2,39.4,28.8,39.4,28.8"></path><path class="st5" d="M51.2,23.4c-1.8,1.6-4.5,5.1-6.4,7.6"></path><path class="st5" d="M44.7,20.5c1.1,3.3,1.5,8.3,0.4,11.8"></path><path class="st5" d="M39.2,23.7c3.7,1.6,7.2,2.6,6,6.9"></path><path class="st5" d="M43.3,39.3c0.2,4.9-0.5,10.2-2.2,13.5"></path><path class="st5" d="M50.6,43.5c-4.1,2.9-9.1,8.9-10.2,10.1"></path><path class="st5" d="M38.9,44.4c2.6,1.7,4.8,2,2.9,7.5"></path><path class="st5" d="M43.3,25.5c-0.5-0.5-0.5-1.5-2.7-4.1c-2.1-2.6-4.1-4.4-6.5-3.2c-2.4,1.2-2.2,2.2-4.4,2.2l-2.2,0
	c0,0,1.8,2.3,4.5,5.3c2.7,3,7.1,1.8,8.7,1.1C42.4,26,43.3,25.5,43.3,25.5"></path><path class="st5" d="M44.6,26.9c0,0-0.3,2.3,1.7,4.8c2,2.5,3.1,6.1,0.5,8.3c-2.6,2.2-3.3,4.2-3.3,4.2s0.4-0.3-1.5-2.2
	c-2-2-3-6.2-1.6-8.9C41.7,30.4,44.6,26.9,44.6,26.9"></path><path class="st5" d="M60.2,38.8c0,0-5.8-0.5-8.7,0.3c-2.9,0.8-4.4,1.6-4.9,4.2c-0.5,2.5-1.3,4-1.3,4s4.1-0.5,5.7,0.2
	c1.6,0.6,4.8,0.1,5.6-1.6C57.3,44.2,60.2,38.8,60.2,38.8"></path><path class="st5" d="M41.5,46.1c0,0-0.8-2.6-2.4-5c-1.6-2.5-2.7-3.7-4.5-3.6c-1.9,0.1-3.5,0.5-5.4,0.9c-1.8,0.5-2.4,0.8-3,0.4
	c-0.6-0.4,1,0.3,2.5,3.3c1.5,3,1.8,4.7,3.5,5.1c1.7,0.3,3.1-0.9,5-1.1C39.1,45.9,41.5,46.1,41.5,46.1"></path><path class="st0" d="M17.7,42.3c4.2,2.4,8.4,5.8,10.3,9"></path><path class="st0" d="M25.1,38.3c0.3,5,2.8,12.4,3.2,14"></path><path class="st0" d="M19.8,48.8c2.8-1.4,4.3-3,7.9,1.4"></path><path class="st1" d="M26.2,27.7c0,0-3.5,4.7-4.3,7.6c-0.8,2.9-0.9,4.6,1,6.4c1.9,1.7,2.7,3.2,2.7,3.2s1.8-3.8,3.2-4.8
	c1.4-1,2.6-4.1,1.6-5.6C29.3,32.9,26.2,27.7,26.2,27.7"></path><path class="st0" d="M37.9,35.5c-1.3,4.7-3.5,9.6-6.2,12.2"></path><path class="st0" d="M43.6,41.7c-4.8,1.5-11.4,5.7-12.8,6.5"></path><path class="st0" d="M32.2,39.1c2,2.4,4,3.4,0.5,8"></path><path class="st2" d="M42.9,24.1c0,0-1,2.1,0.2,5.1c1.2,3,1.1,6.8-2,8.1c-3.1,1.3-4.4,3-4.4,3s0.5-0.1-0.8-2.6
	c-1.3-2.5-1-6.9,1.1-8.9C39.1,26.6,42.9,24.1,42.9,24.1"></path><path class="st1" d="M54.2,40.1c0,0-5.4-2.2-8.4-2.3c-3.1-0.1-4.7,0.2-5.9,2.5c-1.2,2.3-2.4,3.4-2.4,3.4s4.1,0.8,5.4,1.9
	c1.3,1.1,4.6,1.6,5.8,0.2C49.8,44.4,54.2,40.1,54.2,40.1"></path><path class="st0" d="M49.4,64.6c-1.1-2.2-3.8-5.7-5.7-8.2"></path><path class="st0" d="M53.8,59c-3.4,0.2-8.4-0.6-11.6-2.6"></path><path class="st0" d="M52.1,52.9c-2.5,3.1-4.4,6.3-8.2,4.1"></path><path class="st0" d="M35.9,52.9c-4.8-1-9.8-3-12.5-5.6"></path><path class="st0" d="M30,58.9c-1.8-4.7-6.3-11.1-7.1-12.4"></path><path class="st0" d="M32.1,47.3c-2.3,2.1-3.2,4.2-8,0.9"></path><path class="st7" d="M49.3,56.5c0.6-0.3,1.6-0.1,4.7-1.5c3.1-1.4,5.3-2.9,4.7-5.5c-0.6-2.6-1.5-2.7-1-4.8l0.6-2.2c0,0-2.7,1.2-6.3,3
	c-3.6,1.8-3.6,6.4-3.3,8.1C49,55.4,49.3,56.5,49.3,56.5"></path><path class="st2" d="M47.6,57.3c0,0-2.1-0.9-5,0.5c-2.9,1.4-6.7,1.4-8.2-1.6c-1.4-3-3.2-4.3-3.2-4.3s0.1,0.5,2.6-0.9
	c2.4-1.4,6.8-1.4,9,0.7C44.9,53.6,47.6,57.3,47.6,57.3"></path><path class="st4" d="M29.8,49.4c0,0,2.7-0.1,5.5-1c2.8-0.9,4.2-1.6,4.6-3.4c0.4-1.8,0.5-3.5,0.5-5.4c0-1.9-0.2-2.6,0.3-3
	c0.5-0.4-0.5,0.9-3.8,1.6c-3.3,0.7-5,0.5-5.8,2.1c-0.8,1.5,0.1,3.3-0.2,5.1C30.6,47.2,29.8,49.4,29.8,49.4"></path><path class="st0" d="M19.8,53.8c1.8-4.5,4.5-9.2,7.4-11.5"></path><path class="st0" d="M14.9,47.1c4.9-1,11.9-4.5,13.4-5.1"></path><path class="st0" d="M26,50.9c-1.7-2.6-3.6-3.8,0.3-8"></path><path class="st4" d="M24.2,48.3c0,0-0.3,2.7,0.2,5.6c0.5,2.9,1,4.4,2.7,5.1c1.7,0.7,3.4,1,5.3,1.3c1.9,0.3,2.6,0.2,2.9,0.8
	c0.3,0.6-0.8-0.6-1-4c-0.1-3.3,0.3-5.1-1.1-6c-1.4-1-3.2-0.4-5.1-1C26.3,49.5,24.2,48.3,24.2,48.3"></path><path class="st5" d="M25.7,35.4c0.4,2.4,2,6.5,3.1,9.5"></path><path class="st5" d="M19.9,39.4c3.3,0.8,7.8,3.1,10.3,5.9"></path><path class="st5" d="M19.7,45.8c3.3-2.3,6-4.7,9-1.5"></path><path class="st5" d="M35.1,50.5c4.2,2.4,8.4,5.8,10.3,9"></path><path class="st5" d="M42.5,46.6c0.3,5,2.8,12.4,3.2,14"></path><path class="st5" d="M37.2,57c2.8-1.4,4.3-3,7.9,1.4"></path><path class="st5" d="M23.4,43.2c-0.7,0.1-1.6-0.3-4.9,0.1c-3.4,0.4-5.9,1.2-6.1,3.8c-0.2,2.6,0.7,3-0.5,4.9L10.7,54
	c0,0,2.9-0.3,6.9-1c4-0.7,5.3-5,5.5-6.8C23.3,44.3,23.4,43.2,23.4,43.2"></path><path class="st5" d="M25.2,42.9c0,0,1.8,1.5,5,1c3.2-0.4,6.9,0.6,7.3,3.9c0.5,3.3,1.8,5,1.8,5s0-0.5-2.7,0.1s-6.9-0.7-8.4-3.3
	C26.7,47.2,25.2,42.9,25.2,42.9"></path><path class="st5" d="M43.6,35.9c0,0-3.5,4.7-4.3,7.6c-0.8,2.9-0.9,4.6,1,6.4c1.9,1.7,2.7,3.2,2.7,3.2s1.8-3.8,3.2-4.8
	c1.4-1,2.6-4.1,1.6-5.6C46.7,41.2,43.6,35.9,43.6,35.9"></path><path class="st5" d="M40,55.7c0-0.1-2.6-0.7-5.5-0.6c-2.9,0.1-4.5,0.3-5.4,1.9c-0.9,1.6-1.5,3.2-2,5c-0.6,1.8-0.6,2.5-1.2,2.8
	c-0.6,0.3,0.8-0.7,4.1-0.4c3.3,0.3,5,1,6.1-0.3c1.2-1.2,0.8-3.2,1.7-4.9C38.5,57.5,40,55.7,40,55.7"></path><path class="st0" d="M21.2,73.7c4.2-2.5,9.1-4.5,12.9-4.6"></path><path class="st0" d="M21.4,65.3c4.5,2.2,12.2,3.7,13.8,4.1"></path><path class="st0" d="M27.9,75.1c0.2-3.1-0.6-5.2,5.1-6.2"></path><path class="st1" d="M12.6,59.2c0,0,2.4,5.3,4.5,7.5c2.2,2.2,3.6,3.1,6,2.3c2.4-0.8,4.1-0.8,4.1-0.8s-2.4-3.4-2.6-5.1
	c-0.2-1.7-2.2-4.3-4.1-4.1C18.7,59,12.6,59.2,12.6,59.2"></path><path class="st0" d="M25.2,52.7c3.5,3.4,6.6,7.8,7.6,11.4"></path><path class="st0" d="M33.3,50.8c-1,4.9-0.6,12.7-0.6,14.3"></path><path class="st0" d="M25.5,59.5c3.1-0.6,4.9-1.8,7.2,3.4"></path><path class="st2" d="M17.6,42.8c0,0,1.3,1.9,4.5,2.3c3.2,0.4,6.5,2.4,6.1,5.7c-0.4,3.4,0.5,5.3,0.5,5.3s0.1-0.5-2.7-0.6
	c-2.8-0.1-6.5-2.5-7.3-5.3C17.9,47.4,17.6,42.8,17.6,42.8"></path><path class="st1" d="M37.1,40.8c0,0-4.6,3.6-6.1,6.2c-1.6,2.6-2.1,4.2-0.7,6.4c1.4,2.2,1.8,3.8,1.8,3.8s2.7-3.2,4.3-3.8
	c1.6-0.6,3.6-3.2,3-5C38.8,46.7,37.1,40.8,37.1,40.8"></path><path class="st0" d="M56.1,57c-2.4-0.1-6.8,0.6-9.9,1"></path><path class="st0" d="M53.4,50.4c-1.5,3.1-4.7,7-7.9,8.8"></path><path class="st0" d="M47.2,48.8c1.5,3.7,3.3,6.9-0.5,9.1"></path><path class="st0" d="M39.4,63c-3.2,3.6-7.4,7-11,8.2"></path><path class="st0" d="M41.7,71c-5-0.8-12.7,0.1-14.3,0.2"></path><path class="st0" d="M32.6,63.6c0.7,3,2.1,4.8-3.1,7.4"></path><path class="st8" d="M49,53.1c0-0.7,0.7-1.4,0.9-4.8c0.3-3.4,0.1-6.1-2.4-6.8c-2.5-0.8-3.1,0-4.7-1.5l-1.6-1.6c0,0-0.3,2.9-0.4,6.9
	c-0.2,4.1,3.8,6.2,5.5,6.8C47.9,52.7,49,53.1,49,53.1"></path><path class="st2" d="M48.9,54.9c0,0-1.8,1.4-2.1,4.6c-0.2,3.2-2,6.6-5.4,6.3c-3.4-0.2-5.3,0.7-5.3,0.7s0.5,0.1,0.4-2.7
	c0-2.8,2.1-6.6,5-7.5C44.4,55.5,48.9,54.9,48.9,54.9"></path><path class="st4" d="M33.4,66.6c0.1,0,1.2-2.4,1.8-5.3c0.5-2.9,0.6-4.5-0.7-5.7c-1.4-1.2-2.9-2.1-4.5-3.1c-1.6-0.9-2.3-1.1-2.4-1.8
	c-0.1-0.7,0.5,0.9-0.5,4.1c-1,3.2-2,4.7-1,6.1c1,1.4,2.9,1.5,4.4,2.7C31.8,64.8,33.4,66.6,33.4,66.6"></path><path class="st0" d="M32.3,77.5c-3.1-3.8-5.8-8.4-6.4-12.1"></path><path class="st0" d="M24,78.5c1.5-4.8,1.9-12.6,2.1-14.2"></path><path class="st0" d="M32.7,70.7c-3.1,0.3-5.1,1.3-6.8-4.2"></path><path class="st4" d="M29.6,71c0,0.1,2.2,1.6,4.9,2.6c2.8,1,4.3,1.3,5.8,0.2c1.4-1.2,2.5-2.5,3.7-4c1.2-1.5,1.4-2.1,2.1-2.1
	c0.7,0-1,0.4-3.9-1.1c-3-1.5-4.3-2.7-5.8-2c-1.5,0.7-1.9,2.6-3.3,3.9C31.7,69.7,29.6,71,29.6,71"></path><path class="st5" d="M19.1,63.3c2.3,0.8,6.7,1.5,9.8,1.9"></path><path class="st5" d="M19.8,70.4c2.3-2.5,6.5-5.3,10.1-6.1"></path><path class="st5" d="M25.3,73.7c-0.3-4-1.2-7.6,3.1-8.6"></path><path class="st5" d="M36.9,62.5c4.2-2.5,9.1-4.5,12.9-4.6"></path><path class="st5" d="M37.1,54.1c4.5,2.2,12.2,3.7,13.8,4.1"></path><path class="st5" d="M43.6,63.9c0.2-3.1-0.6-5.2,5.1-6.2"></path><path class="st5" d="M24.8,69.2c-0.2,0.7-1.1,1.2-2.3,4.3c-1.3,3.1-1.9,5.8,0.3,7.2c2.2,1.5,3,0.9,4,2.8l1.1,2c0,0,1.1-2.7,2.5-6.5
	c1.3-3.8-1.8-7.1-3.2-8.1C25.7,69.8,24.8,69.2,24.8,69.2"></path><path class="st5" d="M25.4,67.4c0,0,2.2-0.8,3.3-3.8c1.2-3,3.9-5.7,7-4.5c3.2,1.2,5.3,0.8,5.3,0.8s-0.4-0.2-1.2,2.4
	c-0.8,2.7-4,5.7-7,5.7C29.9,68.2,25.4,67.4,25.4,67.4"></path><path class="st5" d="M28.3,48c0,0,2.4,5.3,4.5,7.5c2.2,2.2,3.6,3.1,6,2.3c2.4-0.8,4.1-0.8,4.1-0.8s-2.4-3.4-2.6-5.1
	c-0.2-1.7-2.2-4.3-4.1-4.1C34.4,47.9,28.3,48,28.3,48"></path><path class="st5" d="M43.7,60.8c-0.1,0-1.9,1.9-3.3,4.5c-1.4,2.6-1.9,4.1-1,5.7c1,1.6,2.1,2.9,3.4,4.2c1.3,1.4,1.9,1.7,1.8,2.4
	c-0.1,0.7-0.3-1,1.7-3.7c1.9-2.7,3.3-3.9,2.8-5.5c-0.5-1.6-2.3-2.3-3.4-3.9C44.7,63,43.7,60.8,43.7,60.8"></path><path class="st0" d="M49.5,90c1.2-4.7,3.3-9.7,5.9-12.4"></path><path class="st0" d="M43.7,83.9c4.8-1.6,11.2-6,12.6-6.8"></path><path class="st0" d="M55.1,86.3c-2.1-2.3-4.1-3.3-0.7-8"></path><path class="st1" d="M33.1,85.7c0,0,5.4,2.1,8.5,2.1c3.1,0,4.7-0.3,5.9-2.6c1.2-2.3,2.4-3.5,2.4-3.5s-4.1-0.7-5.4-1.8
	c-1.3-1.1-4.6-1.5-5.8,0C37.3,81.3,33.1,85.7,33.1,85.7"></path><path class="st0" d="M37.5,72.3c4.9,0,10.2,0.8,13.4,2.7"></path><path class="st0" d="M42,65.2c2.7,4.2,8.6,9.4,9.7,10.6"></path><path class="st0" d="M42.5,76.9c1.8-2.6,2.2-4.8,7.6-2.7"></path><path class="st2" d="M25.1,70.6c0,0,2.3,0.4,4.8-1.6c2.5-2,6.2-2.9,8.3-0.2c2.1,2.7,4.1,3.5,4.1,3.5s-0.2-0.4-2.3,1.5
	c-2.1,1.9-6.3,2.8-8.9,1.3C28.6,73.6,25.1,70.6,25.1,70.6"></path><path class="st1" d="M37.6,55.4c0,0-0.7,5.8,0,8.8c0.7,3,1.5,4.5,4,5c2.5,0.6,4,1.4,4,1.4s-0.3-4.1,0.4-5.7c0.7-1.6,0.3-4.8-1.4-5.6
	S37.6,55.4,37.6,55.4"></path><path class="st0" d="M62.5,53.5c-1.8,1.6-4.4,5.2-6.3,7.7"></path><path class="st0" d="M55.9,50.7c1.1,3.3,1.6,8.2,0.6,11.8"></path><path class="st0" d="M50.4,54c3.7,1.6,7.2,2.5,6.1,6.8"></path><path class="st0" d="M54.8,69.6c0.3,4.9-0.3,10.2-2,13.5"></path><path class="st0" d="M62.1,73.6c-4.1,3-9,9-10.1,10.2"></path><path class="st0" d="M50.4,74.8c2.7,1.6,4.9,2,3,7.4"></path><path class="st9" d="M54.6,55.8c-0.5-0.5-0.5-1.5-2.7-4.1c-2.2-2.6-4.2-4.4-6.5-3.1c-2.3,1.2-2.2,2.2-4.4,2.2l-2.2,0
	c0,0,1.8,2.3,4.6,5.3c2.7,3,7.1,1.7,8.7,1C53.7,56.3,54.6,55.8,54.6,55.8"></path><path class="st2" d="M55.9,57.1c0,0-0.3,2.3,1.8,4.7c2.1,2.4,3.2,6.1,0.6,8.3c-2.6,2.2-3.2,4.3-3.2,4.3s0.4-0.3-1.6-2.2
	c-2-2-3.1-6.2-1.8-8.8C53.1,60.7,55.9,57.1,55.9,57.1"></path><path class="st4" d="M53.1,76.4c0,0-0.8-2.6-2.5-5c-1.7-2.4-2.7-3.6-4.6-3.5c-1.9,0.1-3.5,0.5-5.3,1c-1.8,0.5-2.4,0.9-3,0.5
	c-0.6-0.4,1,0.3,2.5,3.2c1.5,3,1.9,4.7,3.5,5c1.7,0.3,3.1-1,5-1.2C50.7,76.2,53.1,76.4,53.1,76.4"></path><path class="st0" d="M60,84.8c-4.8-0.5-10-1.9-13.1-4.1"></path><path class="st0" d="M54.8,91.4c-2.3-4.5-7.5-10.3-8.5-11.5"></path><path class="st0" d="M55.5,79.7c-2,2.4-2.7,4.5-7.8,1.9"></path><path class="st4" d="M53.5,82.1c0,0,2.7-0.4,5.3-1.6c2.7-1.3,4-2.1,4.2-4c0.2-1.8,0-3.6-0.2-5.4c-0.2-1.9-0.5-2.5,0-3
	c0.5-0.5-0.4,1-3.6,2c-3.2,1-4.9,1.1-5.5,2.7c-0.6,1.6,0.5,3.2,0.4,5.1C54.1,79.8,53.5,82.1,53.5,82.1"></path><path class="st5" d="M40.7,84.1c2.2-1,5.8-3.7,8.3-5.5"></path><path class="st5" d="M46.1,88.7C46,85.2,47,80.3,49,77.2"></path><path class="st5" d="M52.3,87.1c-3.1-2.6-6.1-4.6-3.8-8.3"></path><path class="st5" d="M52.7,71c1.2-4.7,3.3-9.7,5.9-12.4"></path><path class="st5" d="M46.9,64.9c4.8-1.6,11.2-6,12.6-6.8"></path><path class="st5" d="M58.4,67.3c-2.1-2.3-4.1-3.3-0.7-8"></path><path class="st5" d="M48.8,84.2c0.3,0.6,0.1,1.6,1.4,4.7c1.3,3.1,2.7,5.4,5.3,4.9c2.6-0.5,2.7-1.5,4.9-0.8l2.1,0.6
	c0,0-1.1-2.7-2.8-6.4c-1.7-3.7-6.3-3.7-8-3.5C49.9,84,48.8,84.2,48.8,84.2"></path><path class="st5" d="M48.1,82.5c0,0,0.9-2.1-0.3-5c-1.3-2.9-1.3-6.8,1.8-8.1c3.1-1.4,4.4-3.1,4.4-3.1s-0.5,0.1,0.9,2.6
	c1.3,2.5,1.2,6.8-0.9,9C51.8,79.9,48.1,82.5,48.1,82.5"></path><path class="st5" d="M36.4,66.7c0,0,5.4,2.1,8.5,2.1c3.1,0,4.7-0.3,5.9-2.6c1.2-2.3,2.4-3.5,2.4-3.5S49,62,47.6,61
	c-1.4-1.1-4.6-1.5-5.8,0C40.6,62.3,36.4,66.7,36.4,66.7"></path><path class="st5" d="M56.4,64.9c0,0,0,2.7,0.9,5.5c0.9,2.8,1.5,4.3,3.3,4.7c1.8,0.5,3.5,0.6,5.4,0.6c1.9,0.1,2.6-0.1,3,0.4
	c0.4,0.6-0.9-0.5-1.5-3.8c-0.6-3.3-0.4-5-1.9-5.8c-1.5-0.8-3.3,0-5.1-0.3C58.6,65.8,56.4,64.9,56.4,64.9"></path><path class="st10" d="M36.5,27.7c0,0-0.9-10.2-0.7-11.2c0.2-1,0.1-1.8,0.7-2.2c0.6-0.3,1.3-0.5,1.3-0.5s1,0.4,1.4,1
	c0.4,0.7,0.5,5,0.5,5.9S39,27,38.9,27.2c-0.1,0.2-1.1,2-1.2,2.2S36.5,27.7,36.5,27.7z"></path><path class="st11" d="M41.9,35.8c0,0,5.8,3.1,6.9,3.4c1,0.3,4.5,0.7,6,0.7s2.9,0.1,3.4-0.4c0.5-0.5,0.6-0.5,0.8-1.7s0.1-1.9-1.2-2.7
	c-1.3-0.8-4.1-1.8-6.5-2s-5.6,0.1-6.3,0c-0.8-0.1-2.7,0-2.7,0L41.9,35.8z"></path><path class="st10" d="M41.9,31.9c0,0,9.7-5.9,10.8-6.3s1.6-0.2,2.2,0s1.1,0.1,1.3,0.4c0.2,0.3,0.2,0.4,0,0.7
	C56.1,27,56.1,27,56.1,27s0.8,0.5,0.3,1.2c-0.4,0.7-0.9,0.6-1.9,1.3c-1,0.6-5.5,3.6-6.1,3.6c-0.7,0.1-1.2,0.6-2,0.7
	c-0.8,0.1-2.5,0-2.5,0l-3.3-0.7L41.9,31.9z"></path><path class="st12" d="M41,29.6c0.2,0,6.9-7.6,8.1-8.4c1.2-0.8,2.4-1.6,3.1-1.5c0.7,0.1,1.8,0.5,1.8,1c0,0.5-0.1,1.3-0.3,1.8
	c-0.2,0.5-4.1,4.4-5.1,5.4s-3.3,2-4.2,2.5c-0.9,0.5-2.5,1.5-2.5,1.5L41,29.6z"></path><path class="st10" d="M41.9,29.6c0,0,3.8-2.8,4.5-4.2c0.7-1.4,3.1-6.6,3.1-6.9s0.3-1.4-0.3-1.7c-0.6-0.3-1-0.4-1.2-0.4
	c-0.3,0.1-0.8-0.3-1.6,0.4c-0.8,0.7-2.6,2.8-2.7,3.6c-0.1,0.8-2.2,7.2-2.6,7.6c-0.4,0.5-0.9,2.4-0.9,2.4L41.9,29.6z"></path><path class="st11" d="M38.6,29.6c0,0,2.2-6.8,2.4-8.3s1.9-5.5,2.2-6c0.3-0.5,0.7-1.2,1.1-1s1,1.4,1,1.4s0.4-0.6,0.8-0.4
	c0.4,0.2,0.8,1.1,0.8,1.1s-0.1,2.5-0.3,3c-0.2,0.5-1.9,4.8-2.5,5.5c-0.6,0.7-3.5,4.3-3.7,4.7S38.6,29.6,38.6,29.6z"></path><path class="st11" d="M37.3,38.4c0,0,0.2,9.8,0,11.2c-0.2,1.4,1.2,5.4,1.3,5.7s0.2,0.5,0.7,0.5c0.5,0,1.2-0.3,1.3-0.2
	s1.2-0.6,1.3-2.9c0.1-2.4-1.5-12.2-1.8-13.3c-0.3-1-1.6-3.1-1.6-3.1L37.3,38.4z"></path><path class="st10" d="M38.6,38.6c0,0,0.6,4.2,0.7,4.9c0.1,0.7,0.5,2.8,1.4,3.6s2.6,5.2,2.9,5.6c0.3,0.4,0.6,0.7,0.9,0.7
	c0.3,0,0.6-0.3,0.9-0.3c0.3,0.1,0.4,0.3,0.8-0.3c0.4-0.7,0-2.2,0-3.3s-2-7.1-2.4-8.4c-0.5-1.3-2.4-3.6-2.7-4.3s-0.9-1.6-1.4-1.7
	S38.6,38.6,38.6,38.6z"></path><path class="st12" d="M38.1,34.4c0,0,6.7,2.9,8.2,3.6c1.5,0.7,8.1,6.6,8.1,7.1c0.1,0.6,0.4,1.3,0,1.4c-0.4,0.1-0.6,0.1-0.6,0.4
	s0,0.6-0.4,0.7c-0.4,0-0.6,0-0.9,0s-0.5-0.2-0.8,0s0,0.8-0.7,0.9c-0.6,0.1-1.1,0.4-1.8-0.3s-2.9-3.4-3.7-4.1s-2.4-1.9-2.9-2.5
	c-0.5-0.6-2.7-3.2-2.7-3.7C39.9,37.4,38.1,34.4,38.1,34.4z"></path><path class="st10" d="M34.2,38.8c0,0-4.4,6.4-4.4,7.2s-0.1,4.6,0,4.8c0.1,0.2-0.4,1.4,0,1.7s0.4,0.4,0.6,0.4s0.2,0.1,0.5,0.2
	c0.3,0.2,0.6,0.1,1.1-0.2c0.4-0.3,1.5-2.1,1.9-2.6c0.4-0.5,2.4-7.8,2.4-8.6s0.2-3.6,0.2-3.6l-1.3-1.4L34.2,38.8z"></path><path class="st12" d="M35.8,39c0,0-1.6,3.9-1.8,4.7s-0.9,5.7-0.9,6.1s0,2.2,0.3,2.3c0.3,0,0.5-0.1,0.8-0.2c0.2-0.1,0.3,0.3,0.6,0.2
	c0.2,0,0.4,0.3,0.9,0s1.2-1.2,1.3-1.4s1.3-8.3,1.3-8.7s-0.2-4.1-0.2-4.1L36.3,36L35.8,39z"></path><path class="st10" d="M32.2,37c0,0-9.1,6.4-9.3,6.6c-0.2,0.2-0.4,1.3-0.3,1.7c0.1,0.4,0.6,0.7,0.8,0.8s0.6,0.4,1.2,0
	c0.6-0.4,3.6-2,3.9-2.2c0.3-0.2,2.7-3.3,2.9-3.5c0.2-0.2,3.3-2.6,3.3-2.6L32.2,37z"></path><path class="st12" d="M34.1,36.3c0,0-3.5,4.2-3.8,4.6c-0.2,0.4-2.2,4-2.5,4.8c-0.4,0.7-1.1,2.6-0.9,3.1c0.1,0.5,0.1,0.5,0.4,0.5
	c0.2,0,0.5,0,0.5,0s-0.2,0,0.4,0.2c0.6,0.2,1.5-0.3,1.5-0.4c-0.1-0.1,1.8-2.9,2.1-3.3c0.3-0.4,2.7-5,2.8-5.6
	c0.2-0.5,1.2-2.8,1.2-2.8L34.1,36.3z"></path><path class="st10" d="M32.3,34.4c-0.2,0-6.9,0.7-7.6,0.9c-0.7,0.2-2.3,1.4-3.4,1.8c-1.1,0.4-1.7,0.7-2.1,1c-0.4,0.4-0.4,0.4-0.3,0.6
	c0.1,0.2,0.7,0.4,0.7,0.4s-0.4,0.2-0.2,0.5c0.2,0.3,0.3,0.4,1.1,0.5c0.8,0-0.4,0,2.8-0.2c3.2-0.2,6.8-2.9,7-3s3.4-1.3,3.4-1.3
	L32.3,34.4z"></path><path class="st11" d="M32.7,35.5c-0.6,0-3.5,0.4-3.9,0.5c-0.3,0.1-3.5,2.6-4.2,3c-0.7,0.4-1.9,0.8-2.3,1.2c-0.4,0.3-0.9,0.3-0.9,0.7
	c0,0.4-0.3,0.6,0,0.7c0.3,0.1,1.1,0.4,1.1,0.4s-0.4,0.3-0.4,0.5c0.1,0.2,0,0.3,0.6,0.4c0.6,0.1,6-2.5,6.8-2.7s3.8-2.2,4-2.4
	c0.1-0.2,1.2-1.8,1.2-1.8L32.7,35.5z"></path><path class="st10" d="M33.6,31.5c0,0-8.6-3-9.7-3.2c-1.1-0.1-4.7-0.6-5-0.3c-0.4,0.3-0.6,0.6-0.7,0.8s0.2,0.7,0.2,0.7
	s-0.5,0.2-0.2,0.4c0.3,0.2,1.1,1.1,1.7,1.3c0.6,0.2,5.3,0.8,6.5,0.9c1.3,0.1,5.7,0.7,6.1,0.8s0.9,0.2,1.7,0.3
	C35.2,33.2,33.6,31.5,33.6,31.5z"></path><path class="st12" d="M33.6,33.8c0-0.1-4.4-2.1-5.5-2.3c-1.1-0.2-3.5-0.2-4.2,0c-0.7,0.2-2.1,0.7-2.5,1.1c-0.3,0.3-0.3,0.7-0.2,0.9
	c0.1,0.2,1.3,1.4,2,1.6c0.7,0.3,1.8,0.7,3.1,0.7s3.7-0.5,4.5-0.7c0.8-0.1,2.4-0.5,2.4-0.5l0.8-0.2L33.6,33.8z"></path><path class="st10" d="M34.6,30.2c0,0-5.4-5.3-6.8-6.5c-1.3-1.3-3.9-2.8-4.5-2.9c-0.6-0.1-0.9,0-1,0.2c-0.1,0.2-0.3,0.7-0.4,0.7
	c-0.1,0.1-0.4,0.2-0.4,0.5s-0.2,0.6,0.5,1.4s5.4,4.1,5.7,4.2c0.2,0.1,6.8,3.6,6.8,3.6V30.2z"></path><path class="st12" d="M35.4,31.7c0,0-4.3-3.5-6.2-4.8s-3.7-2.8-5.2-3.3c-1.4-0.5-2-0.9-2.7-0.7c-0.7,0.2-0.8,0.1-0.9,0.5
	c-0.1,0.3-0.2,0.3-0.3,0.7s-0.2,1,0,1.3s3.7,4,6.4,5s6.2,2,6.3,2c0.2,0,2.1,0.2,2.1,0.2L35.4,31.7z"></path><path class="st11" d="M36.5,29.2c0,0-0.9-5.8-1.1-6.3s-2.2-4-2.5-4.4s-1.3-1.9-2-2.1c-0.7-0.2-1.5-0.5-1.8-0.4
	c-0.3,0.1-0.4,0.2-0.5,0.9c-0.1,0.7,1.3,5.1,1.4,5.4c0.1,0.3,1.3,2.8,1.5,3.2s1.6,2.2,1.8,2.4c0.2,0.2,1.2,1.5,1.4,1.7s1,0.6,1,0.6
	L36.5,29.2z"></path><path class="st13" d="M44.4,34.8C44.3,34.8,44.3,34.8,44.4,34.8c-0.1-0.1-0.1-0.2-0.1-0.2c0-0.1-0.1-0.2-0.2-0.2
	c0.2-0.2,0.3-0.5,0.2-0.8c-0.1-0.1-0.2-0.2-0.3-0.3c0,0,0,0,0,0c0.3-0.2,0.4-0.5,0.2-0.8c-0.1-0.1-0.2-0.2-0.4-0.3
	c0.1-0.2,0.2-0.4,0-0.7c-0.1-0.2-0.3-0.3-0.5-0.3c0.1-0.2,0.2-0.4,0-0.7c-0.2-0.3-0.5-0.4-0.8-0.2c-0.1,0.1-0.2,0.2-0.2,0.3
	c0,0-0.1,0-0.1,0c0,0,0,0-0.1-0.1c0,0,0.1,0,0.1,0c0.3-0.2,0.4-0.5,0.2-0.8c-0.2-0.3-0.5-0.4-0.8-0.2c0,0,0,0-0.1,0.1
	c0-0.1-0.1-0.2-0.2-0.3c0-0.1,0-0.2-0.1-0.3c-0.2-0.3-0.5-0.4-0.8-0.2c-0.2,0.1-0.3,0.3-0.3,0.5c-0.1,0-0.2-0.1-0.3-0.1
	c0.1-0.2,0.1-0.4,0-0.6c-0.2-0.3-0.5-0.4-0.8-0.2c-0.1,0-0.1,0.1-0.2,0.1c-0.1-0.2-0.2-0.3-0.4-0.3c-0.2,0-0.3,0-0.4,0.1
	c-0.2-0.2-0.5-0.2-0.7-0.1c-0.1,0-0.1,0.1-0.2,0.2c-0.2-0.2-0.5-0.2-0.7-0.1c-0.1,0.1-0.2,0.1-0.2,0.2c-0.1,0-0.3,0-0.5,0.1
	c-0.2-0.1-0.4-0.1-0.6,0c-0.3,0.2-0.4,0.5-0.2,0.8c0,0,0,0,0,0c0,0,0,0,0,0c-0.2-0.3-0.5-0.4-0.8-0.2c-0.3,0.2-0.4,0.5-0.2,0.8
	c0.1,0.1,0.2,0.2,0.4,0.3c-0.1,0-0.1,0.1-0.2,0.1c-0.2-0.2-0.5-0.2-0.7-0.1c-0.3,0.2-0.4,0.5-0.2,0.8c-0.1-0.2-0.4-0.3-0.7-0.2
	c-0.3,0.1-0.5,0.4-0.4,0.7c0,0,0,0.1,0.1,0.1c-0.2,0.2-0.2,0.4-0.1,0.7c0,0,0,0-0.1,0c-0.3,0.2-0.4,0.5-0.2,0.8
	c-0.2,0.2-0.2,0.5-0.1,0.7c0,0,0,0,0,0c-0.3,0.2-0.4,0.5-0.2,0.8c0,0.1,0.1,0.1,0.1,0.1c-0.2,0.2-0.3,0.5-0.1,0.7
	c0,0.1,0.1,0.1,0.1,0.1c-0.2,0.2-0.3,0.5-0.1,0.7c0.1,0.2,0.3,0.3,0.5,0.3c-0.1,0.2-0.1,0.4,0,0.6c0.1,0.2,0.3,0.3,0.4,0.3
	c-0.1,0.2-0.1,0.4,0,0.5c0.1,0.1,0.2,0.2,0.4,0.3c0,0.1,0,0.3,0.1,0.4c0.1,0.2,0.3,0.3,0.5,0.3c0,0.1,0,0.2,0.1,0.3
	c0.1,0.2,0.4,0.3,0.6,0.3c0,0.1,0,0.2,0.1,0.3c0.2,0.3,0.5,0.4,0.8,0.2c0,0,0,0,0.1,0c0,0.1,0,0.2,0.1,0.3c0.2,0.3,0.5,0.4,0.8,0.2
	c0,0,0,0,0.1,0c0,0,0,0,0,0c0.2,0.3,0.5,0.4,0.8,0.2c0,0,0,0,0,0c0.2,0.2,0.5,0.3,0.8,0.2c0,0,0,0,0,0c0.2,0.3,0.5,0.4,0.8,0.2
	c0.2-0.1,0.3-0.2,0.3-0.4c0,0,0,0,0,0c0.2,0.3,0.5,0.4,0.8,0.2c0.2-0.1,0.3-0.3,0.3-0.4c0,0,0.1,0,0.1,0c0.2,0.1,0.5,0.2,0.7,0.1
	c0.2-0.1,0.3-0.3,0.3-0.6c0.2,0.2,0.5,0.3,0.8,0.2c0.2-0.1,0.3-0.4,0.3-0.7c0.1,0,0.2,0,0.3-0.1c0.3-0.2,0.4-0.5,0.2-0.8
	c0-0.1-0.1-0.1-0.1-0.1c0.1,0.1,0.2,0.1,0.3,0.1c0.3,0.1,0.6-0.2,0.7-0.5c0-0.1,0-0.2,0-0.2c0.1,0,0.2,0,0.3-0.1
	c0.3-0.2,0.4-0.5,0.2-0.8c0-0.1-0.1-0.1-0.1-0.2c0.1,0,0.2,0,0.2-0.1c0.3-0.2,0.4-0.5,0.2-0.8c0-0.1-0.1-0.1-0.1-0.2
	c0.1,0,0.2,0,0.2-0.1C44.4,35.5,44.5,35.1,44.4,34.8 M42.9,31.5C42.9,31.5,42.9,31.5,42.9,31.5L42.9,31.5
	C42.9,31.5,42.9,31.5,42.9,31.5"></path><path class="st14" d="M43.5,34c0,3.2-2.6,5.8-5.8,5.8s-5.8-2.6-5.8-5.8c0-3.2,2.6-5.8,5.8-5.8S43.5,30.8,43.5,34"></path><path class="st15" d="M32.5,31.2c-0.3,0.1-0.7-0.1-0.7-0.4c-0.1-0.3,0.1-0.7,0.4-0.7c0.3-0.1,0.7,0.1,0.7,0.4
	C33,30.8,32.8,31.1,32.5,31.2"></path><path class="st15" d="M33.7,30.6c-0.3,0.2-0.7,0.1-0.8-0.2c-0.2-0.3-0.1-0.7,0.2-0.8s0.7-0.1,0.8,0.2C34.1,30,34,30.4,33.7,30.6"></path><path class="st15" d="M36.4,31.4c-0.3,0.2-0.7,0.1-0.8-0.2c-0.2-0.3-0.1-0.7,0.2-0.8c0.3-0.2,0.7-0.1,0.8,0.2
	C36.8,30.9,36.7,31.2,36.4,31.4"></path><path class="st15" d="M39.2,31.1c-0.3,0.2-0.7,0.1-0.8-0.2c-0.2-0.3-0.1-0.7,0.2-0.8c0.3-0.2,0.7-0.1,0.8,0.2
	C39.6,30.6,39.5,30.9,39.2,31.1"></path><path class="st16" d="M38.1,31.3c-0.3,0.2-0.7,0.1-0.8-0.2c-0.2-0.3-0.1-0.7,0.2-0.8c0.3-0.2,0.7-0.1,0.8,0.2
	C38.5,30.7,38.4,31.1,38.1,31.3"></path><path class="st16" d="M36.1,28.9c-0.3,0.2-0.7,0.1-0.8-0.2c-0.2-0.3-0.1-0.7,0.2-0.8c0.3-0.2,0.7-0.1,0.8,0.2
	C36.5,28.4,36.4,28.7,36.1,28.9"></path><path class="st15" d="M41,33c-0.3,0.2-0.7,0.1-0.8-0.2c-0.2-0.3-0.1-0.7,0.2-0.8c0.3-0.2,0.7-0.1,0.8,0.2C41.4,32.5,41.3,32.8,41,33
	"></path><path class="st15" d="M40.5,34.8c-0.3,0.2-0.7,0.1-0.8-0.2c-0.2-0.3-0.1-0.7,0.2-0.8s0.7-0.1,0.8,0.2C40.9,34.3,40.8,34.7,40.5,34.8
	"></path><path class="st15" d="M38.3,35.1c-0.3,0.2-0.7,0.1-0.8-0.2c-0.2-0.3-0.1-0.7,0.2-0.8c0.3-0.2,0.7-0.1,0.8,0.2
	C38.7,34.6,38.6,35,38.3,35.1"></path><path class="st15" d="M35.4,34.6c-0.3,0.2-0.7,0.1-0.8-0.2c-0.2-0.3-0.1-0.7,0.2-0.8c0.3-0.2,0.7-0.1,0.8,0.2
	C35.7,34.1,35.6,34.5,35.4,34.6"></path><path class="st15" d="M35.4,32.9c-0.3,0.2-0.7,0.1-0.8-0.2c-0.2-0.3-0.1-0.7,0.2-0.8c0.3-0.2,0.7-0.1,0.8,0.2
	C35.7,32.4,35.6,32.7,35.4,32.9"></path><path class="st15" d="M34,34c-0.3,0.2-0.7,0.1-0.8-0.2c-0.2-0.3-0.1-0.7,0.2-0.8s0.7-0.1,0.8,0.2C34.3,33.4,34.2,33.8,34,34"></path><path class="st15" d="M34.9,36.7c-0.3,0.2-0.7,0.1-0.8-0.2c-0.2-0.3-0.1-0.7,0.2-0.8c0.3-0.2,0.7-0.1,0.8,0.2
	C35.3,36.2,35.2,36.5,34.9,36.7"></path><path class="st15" d="M36.1,37.7c-0.3,0.2-0.7,0.1-0.8-0.2c-0.2-0.3-0.1-0.7,0.2-0.8c0.3-0.2,0.7-0.1,0.8,0.2
	C36.5,37.1,36.4,37.5,36.1,37.7"></path><path class="st15" d="M37.7,38.3c-0.3,0.2-0.7,0.1-0.8-0.2c-0.2-0.3-0.1-0.7,0.2-0.8c0.3-0.2,0.7-0.1,0.8,0.2
	C38.1,37.8,38,38.2,37.7,38.3"></path><path class="st15" d="M40,36.9c-0.3,0.2-0.7,0.1-0.8-0.2c-0.2-0.3-0.1-0.7,0.2-0.8c0.3-0.2,0.7-0.1,0.8,0.2
	C40.4,36.3,40.3,36.7,40,36.9"></path><path class="st15" d="M41.8,35.6c-0.3,0.2-0.7,0.1-0.8-0.2c-0.2-0.3-0.1-0.7,0.2-0.8c0.3-0.2,0.7-0.1,0.8,0.2
	C42.2,35.1,42.1,35.4,41.8,35.6"></path><path class="st15" d="M39.3,33.4c-0.3,0.2-0.7,0.1-0.8-0.2c-0.2-0.3-0.1-0.7,0.2-0.8c0.3-0.2,0.7-0.1,0.8,0.2
	C39.7,32.9,39.6,33.2,39.3,33.4"></path><path class="st15" d="M39.8,32.2c-0.3,0.2-0.7,0.1-0.8-0.2c-0.2-0.3-0.1-0.7,0.2-0.8c0.3-0.2,0.7-0.1,0.8,0.2
	C40.2,31.7,40.1,32.1,39.8,32.2"></path><path class="st15" d="M39.2,29.9c-0.3,0.2-0.7,0.1-0.8-0.2c-0.2-0.3-0.1-0.7,0.2-0.8c0.3-0.2,0.7-0.1,0.8,0.2
	C39.6,29.3,39.5,29.7,39.2,29.9"></path><path class="st15" d="M42.1,32.1c-0.3,0.2-0.7,0.1-0.8-0.2c-0.2-0.3-0.1-0.7,0.2-0.8c0.3-0.2,0.7-0.1,0.8,0.2
	C42.5,31.6,42.4,32,42.1,32.1"></path><path class="st15" d="M42.4,34.4c-0.3,0.2-0.7,0.1-0.8-0.2c-0.2-0.3-0.1-0.7,0.2-0.8c0.3-0.2,0.7-0.1,0.8,0.2
	C42.8,33.9,42.7,34.2,42.4,34.4"></path><path class="st15" d="M42,37.5c-0.3,0.2-0.7,0.1-0.8-0.2c-0.2-0.3-0.1-0.7,0.2-0.8c0.3-0.2,0.7-0.1,0.8,0.2
	C42.4,37,42.3,37.3,42,37.5"></path><path class="st15" d="M39.3,38.9c-0.3,0.2-0.7,0.1-0.8-0.2c-0.2-0.3-0.1-0.7,0.2-0.8c0.3-0.2,0.7-0.1,0.8,0.2
	C39.7,38.4,39.6,38.8,39.3,38.9"></path><path class="st15" d="M37.7,36.2c-0.3,0.2-0.7,0.1-0.8-0.2c-0.2-0.3-0.1-0.7,0.2-0.8c0.3-0.2,0.7-0.1,0.8,0.2
	C38.1,35.7,38,36,37.7,36.2"></path><path class="st15" d="M33.8,32.5c-0.3,0.2-0.7,0.1-0.8-0.2c-0.2-0.3-0.1-0.7,0.2-0.8c0.3-0.2,0.7-0.1,0.8,0.2
	C34.2,32,34.1,32.4,33.8,32.5"></path><path class="st15" d="M33.8,36.1c-0.3,0.2-0.7,0.1-0.8-0.2c-0.2-0.3-0.1-0.7,0.2-0.8c0.3-0.2,0.7-0.1,0.8,0.2
	C34.2,35.6,34.1,36,33.8,36.1"></path><path class="st15" d="M37.3,32.9c-0.3,0.2-0.7,0.1-0.8-0.2c-0.2-0.3-0.1-0.7,0.2-0.8c0.3-0.2,0.7-0.1,0.8,0.2
	C37.7,32.4,37.6,32.7,37.3,32.9"></path><path class="st15" d="M37.4,30.2c-0.3,0.2-0.7,0.1-0.8-0.2c-0.2-0.3-0.1-0.7,0.2-0.8c0.3-0.2,0.7-0.1,0.8,0.2
	C37.8,29.7,37.7,30.1,37.4,30.2"></path><path class="st15" d="M34.4,29.4c-0.3,0.2-0.7,0.1-0.8-0.2c-0.2-0.3-0.1-0.7,0.2-0.8c0.3-0.2,0.7-0.1,0.8,0.2
	C34.8,28.9,34.7,29.3,34.4,29.4"></path><path class="st15" d="M35.5,28.9c-0.3,0.2-0.7,0.1-0.8-0.2c-0.2-0.3-0.1-0.7,0.2-0.8c0.3-0.2,0.7-0.1,0.8,0.2
	C35.9,28.4,35.8,28.7,35.5,28.9"></path><path class="st15" d="M36.8,28.6c-0.3,0.2-0.7,0.1-0.8-0.2c-0.2-0.3-0.1-0.7,0.2-0.8c0.3-0.2,0.7-0.1,0.8,0.2
	C37.2,28.1,37.1,28.4,36.8,28.6"></path><path class="st15" d="M37.7,28.5c-0.3,0.2-0.7,0.1-0.8-0.2c-0.2-0.3-0.1-0.7,0.2-0.8c0.3-0.2,0.7-0.1,0.8,0.2
	C38,28,37.9,28.3,37.7,28.5"></path><path class="st17" d="M39.4,28.7c-0.3,0.2-0.7,0.1-0.8-0.2c-0.2-0.3-0.1-0.7,0.2-0.8s0.7-0.1,0.8,0.2C39.8,28.2,39.7,28.5,39.4,28.7
	"></path><path class="st15" d="M40.8,29.2c-0.3,0.2-0.7,0.1-0.8-0.2c-0.2-0.3-0.1-0.7,0.2-0.8c0.3-0.2,0.7-0.1,0.8,0.2
	C41.2,28.7,41.1,29,40.8,29.2"></path><path class="st17" d="M42,30c-0.3,0.2-0.7,0.1-0.8-0.2c-0.2-0.3-0.1-0.7,0.2-0.8c0.3-0.2,0.7-0.1,0.8,0.2C42.4,29.4,42.3,29.8,42,30
	"></path><path class="st15" d="M43.4,31.8c-0.3,0.2-0.7,0.1-0.8-0.2c-0.2-0.3-0.1-0.7,0.2-0.8c0.3-0.2,0.7-0.1,0.8,0.2
	C43.8,31.2,43.7,31.6,43.4,31.8"></path><path class="st15" d="M43.7,32.7c-0.3,0.2-0.7,0.1-0.8-0.2c-0.2-0.3-0.1-0.7,0.2-0.8c0.3-0.2,0.7-0.1,0.8,0.2
	C44.1,32.2,44,32.6,43.7,32.7"></path><path class="st18" d="M43.8,33.8c-0.3,0.2-0.7,0.1-0.8-0.2c-0.2-0.3-0.1-0.7,0.2-0.8s0.7-0.1,0.8,0.2C44.2,33.3,44.1,33.6,43.8,33.8
	"></path><path class="st18" d="M41.1,31.4c-0.3,0.2-0.7,0.1-0.8-0.2c-0.2-0.3-0.1-0.7,0.2-0.8c0.3-0.2,0.7-0.1,0.8,0.2
	C41.5,30.9,41.4,31.2,41.1,31.4"></path><path class="st18" d="M38.7,32.3c-0.3,0.2-0.7,0.1-0.8-0.2c-0.2-0.3-0.1-0.7,0.2-0.8c0.3-0.2,0.7-0.1,0.8,0.2
	C39.1,31.8,39,32.1,38.7,32.3"></path><path class="st18" d="M36.4,32.6c-0.3,0.2-0.7,0.1-0.8-0.2c-0.2-0.3-0.1-0.7,0.2-0.8c0.3-0.2,0.7-0.1,0.8,0.2
	C36.8,32,36.7,32.4,36.4,32.6"></path><path class="st18" d="M34.8,31.8c-0.3,0.2-0.7,0.1-0.8-0.2c-0.2-0.3-0.1-0.7,0.2-0.8c0.3-0.2,0.7-0.1,0.8,0.2
	C35.1,31.2,35,31.6,34.8,31.8"></path><path class="st18" d="M33.5,35.7c-0.3-0.1-0.5-0.4-0.5-0.7c0.1-0.3,0.4-0.5,0.7-0.5c0.3,0.1,0.5,0.4,0.5,0.7
	C34.2,35.5,33.9,35.7,33.5,35.7"></path><path class="st18" d="M36.2,36.2c-0.3-0.1-0.5-0.4-0.5-0.7c0.1-0.3,0.4-0.5,0.7-0.5c0.3,0.1,0.5,0.4,0.5,0.7
	C36.8,36,36.5,36.2,36.2,36.2"></path><path class="st18" d="M36.4,34.7c-0.3-0.1-0.5-0.4-0.5-0.7c0.1-0.3,0.4-0.5,0.7-0.5c0.3,0.1,0.5,0.4,0.5,0.7
	C37.1,34.5,36.8,34.8,36.4,34.7"></path><path class="st18" d="M37.9,37.4c-0.3-0.1-0.5-0.4-0.5-0.7c0.1-0.3,0.4-0.5,0.7-0.5c0.3,0.1,0.5,0.4,0.5,0.7
	C38.5,37.2,38.2,37.4,37.9,37.4"></path><path class="st18" d="M40.1,37.8c-0.3-0.1-0.5-0.4-0.5-0.7c0.1-0.3,0.4-0.5,0.7-0.5c0.3,0.1,0.5,0.4,0.5,0.7
	C40.7,37.7,40.4,37.9,40.1,37.8"></path><path class="st18" d="M42.3,38c-0.3-0.1-0.5-0.4-0.5-0.7c0.1-0.3,0.4-0.5,0.7-0.5c0.3,0.1,0.5,0.4,0.5,0.7
	C42.9,37.8,42.6,38,42.3,38"></path><path class="st18" d="M35.8,38.7c-0.3-0.1-0.5-0.4-0.5-0.7s0.4-0.5,0.7-0.5c0.3,0.1,0.5,0.4,0.5,0.7C36.4,38.6,36.1,38.8,35.8,38.7"></path><path class="st15" d="M43.9,35.1c-0.3,0.2-0.7,0.1-0.8-0.2c-0.2-0.3-0.1-0.7,0.2-0.8c0.3-0.2,0.7-0.1,0.8,0.2
	C44.3,34.5,44.2,34.9,43.9,35.1"></path><path class="st15" d="M43.6,36.1c-0.3,0.2-0.7,0.1-0.8-0.2c-0.2-0.3-0.1-0.7,0.2-0.8c0.3-0.2,0.7-0.1,0.8,0.2
	C44,35.6,43.9,35.9,43.6,36.1"></path><path class="st17" d="M43.3,37.2c-0.3,0.2-0.7,0.1-0.8-0.2c-0.2-0.3-0.1-0.7,0.2-0.8c0.3-0.2,0.7-0.1,0.8,0.2
	C43.7,36.6,43.6,37,43.3,37.2"></path><path class="st15" d="M41.9,38.8c-0.3,0.2-0.7,0.1-0.8-0.2c-0.2-0.3-0.1-0.7,0.2-0.8c0.3-0.2,0.7-0.1,0.8,0.2
	C42.3,38.3,42.2,38.6,41.9,38.8"></path><path class="st15" d="M41.3,39.5c-0.3,0.2-0.7,0.1-0.8-0.2c-0.2-0.3-0.1-0.7,0.2-0.8c0.3-0.2,0.7-0.1,0.8,0.2
	C41.7,39,41.6,39.4,41.3,39.5"></path><path class="st15" d="M39.2,40.4c-0.3,0.2-0.7,0.1-0.8-0.2c-0.2-0.3-0.1-0.7,0.2-0.8s0.7-0.1,0.8,0.2C39.6,39.8,39.5,40.2,39.2,40.4
	"></path><path class="st17" d="M38.1,40.5c-0.3,0.2-0.7,0.1-0.8-0.2c-0.2-0.3-0.1-0.7,0.2-0.8c0.3-0.2,0.7-0.1,0.8,0.2
	C38.5,40,38.4,40.4,38.1,40.5"></path><path class="st15" d="M37.3,40.4c-0.3,0.2-0.7,0.1-0.8-0.2c-0.2-0.3-0.1-0.7,0.2-0.8c0.3-0.2,0.7-0.1,0.8,0.2
	C37.7,39.8,37.6,40.2,37.3,40.4"></path><path class="st15" d="M36.5,40.2c-0.3,0.2-0.7,0.1-0.8-0.2c-0.2-0.3-0.1-0.7,0.2-0.8c0.3-0.2,0.7-0.1,0.8,0.2
	C36.9,39.7,36.8,40,36.5,40.2"></path><path class="st17" d="M35.6,40c-0.3,0.2-0.7,0.1-0.8-0.2c-0.2-0.3-0.1-0.7,0.2-0.8c0.3-0.2,0.7-0.1,0.8,0.2
	C36,39.5,35.9,39.9,35.6,40"></path><path class="st15" d="M34.7,39.5c-0.3,0.2-0.7,0.1-0.8-0.2c-0.2-0.3-0.1-0.7,0.2-0.8c0.3-0.2,0.7-0.1,0.8,0.2
	C35,39,34.9,39.4,34.7,39.5"></path><path class="st17" d="M34,38.9c-0.3,0.2-0.7,0.1-0.8-0.2c-0.2-0.3-0.1-0.7,0.2-0.8s0.7-0.1,0.8,0.2C34.3,38.4,34.2,38.8,34,38.9"></path><path class="st15" d="M33.4,38.3c-0.3,0.2-0.7,0.1-0.8-0.2c-0.2-0.3-0.1-0.7,0.2-0.8c0.3-0.2,0.7-0.1,0.8,0.2
	C33.7,37.8,33.6,38.2,33.4,38.3"></path><path class="st15" d="M32.9,37.7c-0.3,0.2-0.7,0.1-0.8-0.2c-0.2-0.3-0.1-0.7,0.2-0.8c0.3-0.2,0.7-0.1,0.8,0.2
	C33.3,37.1,33.2,37.5,32.9,37.7"></path><path class="st17" d="M32.4,36.9c-0.3,0.2-0.7,0.1-0.8-0.2c-0.2-0.3-0.1-0.7,0.2-0.8c0.3-0.2,0.7-0.1,0.8,0.2
	C32.8,36.3,32.7,36.7,32.4,36.9"></path><path class="st15" d="M31.9,36c-0.3,0.2-0.7,0.1-0.8-0.2c-0.2-0.3-0.1-0.7,0.2-0.8c0.3-0.2,0.7-0.1,0.8,0.2
	C32.3,35.5,32.2,35.8,31.9,36"></path><path class="st15" d="M31.9,35.1c-0.3,0.2-0.7,0.1-0.8-0.2c-0.2-0.3-0.1-0.7,0.2-0.8c0.3-0.2,0.7-0.1,0.8,0.2
	C32.3,34.6,32.2,35,31.9,35.1"></path><path class="st17" d="M31.9,34.2c-0.3,0.2-0.7,0.1-0.8-0.2c-0.2-0.3-0.1-0.7,0.2-0.8c0.3-0.2,0.7-0.1,0.8,0.2
	C32.3,33.7,32.2,34.1,31.9,34.2"></path><path class="st15" d="M32.1,33.4c-0.3,0.2-0.7,0.1-0.8-0.2c-0.2-0.3-0.1-0.7,0.2-0.8c0.3-0.2,0.7-0.1,0.8,0.2
	C32.5,32.9,32.4,33.2,32.1,33.4"></path><path class="st15" d="M32.2,32.7c-0.3,0.2-0.7,0.1-0.8-0.2c-0.2-0.3-0.1-0.7,0.2-0.8c0.3-0.2,0.7-0.1,0.8,0.2
	C32.6,32.2,32.5,32.5,32.2,32.7"></path><path class="st17" d="M32.5,31.9c-0.3,0.2-0.7,0.1-0.8-0.2s-0.1-0.7,0.2-0.8c0.3-0.2,0.7-0.1,0.8,0.2C32.9,31.4,32.8,31.8,32.5,31.9
	"></path><path class="st17" d="M34.8,30.7c-0.3,0.2-0.7,0.1-0.8-0.2c-0.2-0.3-0.1-0.7,0.2-0.8c0.3-0.2,0.7-0.1,0.8,0.2
	C35.1,30.1,35,30.5,34.8,30.7"></path><path class="st15" d="M40.3,39.9c-0.3,0.2-0.7,0.1-0.8-0.2s-0.1-0.7,0.2-0.8c0.3-0.2,0.7-0.1,0.8,0.2C40.7,39.4,40.6,39.8,40.3,39.9
	"></path><path class="st15" d="M42.9,30.8c-0.3,0.2-0.7,0.1-0.8-0.2c-0.2-0.3-0.1-0.7,0.2-0.8c0.3-0.2,0.7-0.1,0.8,0.2
	C43.3,30.3,43.2,30.6,42.9,30.8"></path><path class="st18" d="M36.7,40c-0.3-0.1-0.5-0.4-0.5-0.7c0.1-0.3,0.4-0.5,0.7-0.5c0.3,0.1,0.5,0.4,0.5,0.7
	C37.3,39.9,37,40.1,36.7,40"></path><path class="st18" d="M33.2,37.9c-0.3-0.1-0.5-0.4-0.5-0.7c0.1-0.3,0.4-0.5,0.7-0.5c0.3,0.1,0.5,0.4,0.5,0.7
	C33.8,37.8,33.5,38,33.2,37.9"></path><path class="st18" d="M40.7,29.8c-0.3-0.1-0.5-0.4-0.5-0.7c0.1-0.3,0.4-0.5,0.7-0.5c0.3,0.1,0.5,0.4,0.5,0.7
	C41.3,29.6,41,29.9,40.7,29.8"></path><path class="st18" d="M38,28.7c-0.3-0.1-0.5-0.4-0.5-0.7c0.1-0.3,0.4-0.5,0.7-0.5c0.3,0.1,0.5,0.4,0.5,0.7
	C38.6,28.5,38.3,28.7,38,28.7"></path><path class="st16" d="M36.5,30.6c-0.3,0.2-0.7,0.1-0.8-0.2c-0.2-0.3-0.1-0.7,0.2-0.8c0.3-0.2,0.7-0.1,0.8,0.2
	C36.9,30,36.8,30.4,36.5,30.6"></path><path class="st16" d="M35.5,30.7c-0.3,0.2-0.7,0.1-0.8-0.2c-0.2-0.3-0.1-0.7,0.2-0.8c0.3-0.2,0.7-0.1,0.8,0.2
	C35.9,30.1,35.8,30.5,35.5,30.7"></path><path class="st16" d="M33.4,34.6c-0.3,0.2-0.7,0.1-0.8-0.2c-0.2-0.3-0.1-0.7,0.2-0.8c0.3-0.2,0.7-0.1,0.8,0.2
	C33.7,34.1,33.6,34.5,33.4,34.6"></path><path class="st16" d="M37.9,34c-0.3,0.2-0.7,0.1-0.8-0.2c-0.2-0.3-0.1-0.7,0.2-0.8c0.3-0.2,0.7-0.1,0.8,0.2
	C38.3,33.4,38.2,33.8,37.9,34"></path><path class="st16" d="M41.3,36.8c-0.3,0.2-0.7,0.1-0.8-0.2c-0.2-0.3-0.1-0.7,0.2-0.8c0.3-0.2,0.7-0.1,0.8,0.2
	C41.6,36.2,41.6,36.6,41.3,36.8"></path><path class="st16" d="M38.9,36.2c-0.3,0.2-0.7,0.1-0.8-0.2c-0.2-0.3-0.1-0.7,0.2-0.8c0.3-0.2,0.7-0.1,0.8,0.2
	C39.3,35.7,39.2,36,38.9,36.2"></path><path class="st16" d="M35.6,35.9c-0.3,0.2-0.7,0.1-0.8-0.2c-0.2-0.3-0.1-0.7,0.2-0.8s0.7-0.1,0.8,0.2C36,35.4,35.9,35.8,35.6,35.9"></path><path class="st17" d="M38.3,30c-0.3,0.2-0.7,0.1-0.8-0.2c-0.2-0.3-0.1-0.7,0.2-0.8c0.3-0.2,0.7-0.1,0.8,0.2
	C38.7,29.5,38.6,29.8,38.3,30"></path><path class="st17" d="M40.2,30.5c-0.3,0.2-0.7,0.1-0.8-0.2c-0.2-0.3-0.1-0.7,0.2-0.8c0.3-0.2,0.7-0.1,0.8,0.2
	C40.6,30,40.5,30.4,40.2,30.5"></path><path class="st17" d="M42.4,33.3c-0.3,0.2-0.7,0.1-0.8-0.2c-0.2-0.3-0.1-0.7,0.2-0.8c0.3-0.2,0.7-0.1,0.8,0.2
	C42.8,32.8,42.7,33.1,42.4,33.3"></path><path class="st17" d="M40.2,33.6c-0.3,0.2-0.7,0.1-0.8-0.2c-0.2-0.3-0.1-0.7,0.2-0.8s0.7-0.1,0.8,0.2C40.5,33.1,40.4,33.5,40.2,33.6
	"></path><path class="st17" d="M38.2,32.9c-0.3,0.2-0.7,0.1-0.8-0.2c-0.2-0.3-0.1-0.7,0.2-0.8c0.3-0.2,0.7-0.1,0.8,0.2
	C38.6,32.4,38.5,32.7,38.2,32.9"></path><path class="st17" d="M35.7,33.6c-0.3,0.2-0.7,0.1-0.8-0.2c-0.2-0.3-0.1-0.7,0.2-0.8c0.3-0.2,0.7-0.1,0.8,0.2
	C36.1,33.1,36,33.5,35.7,33.6"></path><path class="st17" d="M40.7,38.6c-0.3,0.2-0.7,0.1-0.8-0.2s-0.1-0.7,0.2-0.8c0.3-0.2,0.7-0.1,0.8,0.2C41.1,38.1,41,38.5,40.7,38.6"></path><path class="st17" d="M40.7,35.7c-0.3,0.2-0.7,0.1-0.8-0.2s-0.1-0.7,0.2-0.8c0.3-0.2,0.7-0.1,0.8,0.2C41,35.2,40.9,35.5,40.7,35.7"></path><path class="st17" d="M42.8,35.1c-0.3,0.2-0.7,0.1-0.8-0.2c-0.2-0.3-0.1-0.7,0.2-0.8c0.3-0.2,0.7-0.1,0.8,0.2
	C43.2,34.6,43.1,35,42.8,35.1"></path><path class="st17" d="M37.5,37.1c-0.3,0.2-0.7,0.1-0.8-0.2c-0.2-0.3-0.1-0.7,0.2-0.8c0.3-0.2,0.7-0.1,0.8,0.2
	C37.9,36.6,37.8,37,37.5,37.1"></path><path class="st17" d="M36.4,38.8c-0.3,0.2-0.7,0.1-0.8-0.2c-0.2-0.3-0.1-0.7,0.2-0.8c0.3-0.2,0.7-0.1,0.8,0.2
	C36.8,38.3,36.7,38.6,36.4,38.8"></path><path class="st17" d="M36.7,32.1c-0.3,0.2-0.7,0.1-0.8-0.2c-0.2-0.3-0.1-0.7,0.2-0.8c0.3-0.2,0.7-0.1,0.8,0.2
	C37.1,31.6,37,32,36.7,32.1"></path><path class="st19" d="M34.4,32.2c-0.3,0.2-0.7,0.1-0.8-0.2c-0.2-0.3-0.1-0.7,0.2-0.8c0.3-0.2,0.7-0.1,0.8,0.2
	C34.8,31.7,34.7,32.1,34.4,32.2"></path><path class="st19" d="M37.8,31.5c-0.3,0.2-0.7,0.1-0.8-0.2c-0.2-0.3-0.1-0.7,0.2-0.8c0.3-0.2,0.7-0.1,0.8,0.2
	C38.2,31,38.1,31.4,37.8,31.5"></path><path class="st19" d="M40.5,32c-0.3,0.2-0.7,0.1-0.8-0.2c-0.2-0.3-0.1-0.7,0.2-0.8s0.7-0.1,0.8,0.2C40.9,31.5,40.8,31.9,40.5,32"></path><path class="st19" d="M36.8,35.4c-0.3,0.2-0.7,0.1-0.8-0.2c-0.2-0.3-0.1-0.7,0.2-0.8c0.3-0.2,0.7-0.1,0.8,0.2
	C37.2,34.9,37.1,35.2,36.8,35.4"></path><path class="st19" d="M34.7,38c-0.3,0.2-0.7,0.1-0.8-0.2c-0.2-0.3-0.1-0.7,0.2-0.8c0.3-0.2,0.7-0.1,0.8,0.2
	C35,37.5,34.9,37.9,34.7,38"></path><path class="st19" d="M39.2,37.8c-0.3,0.2-0.7,0.1-0.8-0.2c-0.2-0.3-0.1-0.7,0.2-0.8s0.7-0.1,0.8,0.2C39.6,37.3,39.5,37.6,39.2,37.8
	"></path><path class="st19" d="M41.2,34.3c-0.3,0.2-0.7,0.1-0.8-0.2c-0.2-0.3-0.1-0.7,0.2-0.8c0.3-0.2,0.7-0.1,0.8,0.2
	C41.6,33.8,41.5,34.1,41.2,34.3"></path><path class="st19" d="M39.1,34.9c-0.3,0.2-0.7,0.1-0.8-0.2c-0.2-0.3-0.1-0.7,0.2-0.8c0.3-0.2,0.7-0.1,0.8,0.2
	C39.5,34.4,39.4,34.8,39.1,34.9"></path><path class="st19" d="M42.4,31.2c-0.3,0.2-0.7,0.1-0.8-0.2c-0.2-0.3-0.1-0.7,0.2-0.8c0.3-0.2,0.7-0.1,0.8,0.2
	C42.8,30.6,42.7,31,42.4,31.2"></path><path class="st19" d="M38.6,39.8c-0.3,0.2-0.7,0.1-0.8-0.2c-0.2-0.3-0.1-0.7,0.2-0.8c0.3-0.2,0.7-0.1,0.8,0.2
	C39,39.3,38.9,39.7,38.6,39.8"></path><path class="st19" d="M32.7,36.1c-0.3,0.2-0.7,0.1-0.8-0.2c-0.2-0.3-0.1-0.7,0.2-0.8c0.3-0.2,0.7-0.1,0.8,0.2
	C33.1,35.6,33,36,32.7,36.1"></path><path class="st19" d="M32.5,33.5c-0.3,0.2-0.7,0.1-0.8-0.2c-0.2-0.3-0.1-0.7,0.2-0.8c0.3-0.2,0.7-0.1,0.8,0.2
	C32.9,33,32.8,33.4,32.5,33.5"></path><path class="st20" d="M34.1,37.6c0.1,0.3,0,0.7-0.3,0.8c-0.3,0.1-0.7,0-0.8-0.3c-0.1-0.3,0-0.7,0.3-0.8
	C33.6,37.2,33.9,37.3,34.1,37.6"></path><path class="st20" d="M33.2,36.2c0.1,0.3,0,0.7-0.3,0.8c-0.3,0.1-0.7,0-0.8-0.3c-0.1-0.3,0-0.7,0.3-0.8C32.7,35.8,33,35.9,33.2,36.2
	"></path><path class="st20" d="M32.4,34.5c0.1,0.3,0,0.7-0.3,0.8c-0.3,0.1-0.7,0-0.8-0.3c-0.1-0.3,0-0.7,0.3-0.8C31.9,34,32.2,34.2,32.4,34.5
	"></path><path class="st20" d="M32.6,32.6c0.1,0.3,0,0.7-0.3,0.8c-0.3,0.1-0.7,0-0.8-0.3c-0.1-0.3,0-0.7,0.3-0.8
	C32.1,32.2,32.5,32.3,32.6,32.6"></path><path class="st20" d="M33.8,30.7c0.1,0.3,0,0.7-0.3,0.8c-0.3,0.1-0.7,0-0.8-0.3c-0.1-0.3,0-0.7,0.3-0.8
	C33.3,30.2,33.6,30.3,33.8,30.7"></path><path class="st20" d="M35.3,29c0.1,0.3,0,0.7-0.3,0.8c-0.3,0.1-0.7,0-0.8-0.3c-0.1-0.3,0-0.7,0.3-0.8C34.8,28.5,35.2,28.7,35.3,29"></path><path class="st20" d="M37.1,28.9c0.1,0.3,0,0.7-0.3,0.8c-0.3,0.1-0.7,0-0.8-0.3c-0.1-0.3,0-0.7,0.3-0.8C36.6,28.4,37,28.6,37.1,28.9
	"></path><path class="st20" d="M37.9,28.1c0.1,0.3,0,0.7-0.3,0.8c-0.3,0.1-0.7,0-0.8-0.3c-0.1-0.3,0-0.7,0.3-0.8
	C37.4,27.6,37.8,27.8,37.9,28.1"></path><path class="st20" d="M44,34c0.1,0.3,0,0.7-0.3,0.8c-0.3,0.1-0.7,0-0.8-0.3c-0.1-0.3,0-0.7,0.3-0.8C43.5,33.6,43.9,33.7,44,34"></path><path class="st20" d="M43.2,35.8c0.1,0.3,0,0.7-0.3,0.8c-0.3,0.1-0.7,0-0.8-0.3c-0.1-0.3,0-0.7,0.3-0.8
	C42.7,35.4,43.1,35.5,43.2,35.8"></path><path class="st20" d="M42,37.9c0.1,0.3,0,0.7-0.3,0.8c-0.3,0.1-0.7,0-0.8-0.3c-0.1-0.3,0-0.7,0.3-0.8C41.5,37.4,41.8,37.6,42,37.9"></path><path class="st20" d="M40,39.1c0.1,0.3,0,0.7-0.3,0.8c-0.3,0.1-0.7,0-0.8-0.3c-0.1-0.3,0-0.7,0.3-0.8C39.5,38.6,39.8,38.8,40,39.1"></path><path class="st20" d="M37.8,39.4c0.1,0.3,0,0.7-0.3,0.8c-0.3,0.1-0.7,0-0.8-0.3c-0.1-0.3,0-0.7,0.3-0.8
	C37.3,38.9,37.6,39.1,37.8,39.4"></path><path class="st20" d="M36.2,38.8c0.1,0.3,0,0.7-0.3,0.8c-0.3,0.1-0.7,0-0.8-0.3c-0.1-0.3,0-0.7,0.3-0.8
	C35.7,38.3,36.1,38.5,36.2,38.8"></path><path class="st20" d="M36.1,36.4c0.1,0.3,0,0.7-0.3,0.8c-0.3,0.1-0.7,0-0.8-0.3c-0.1-0.3,0-0.7,0.3-0.8
	C35.6,35.9,35.9,36.1,36.1,36.4"></path><path class="st20" d="M36.1,34.6c0.1,0.3,0,0.7-0.3,0.8c-0.3,0.1-0.7,0-0.8-0.3c-0.1-0.3,0-0.7,0.3-0.8C35.6,34.2,36,34.3,36.1,34.6
	"></path><path class="st20" d="M34.8,34.1c0.1,0.3,0,0.7-0.3,0.8c-0.3,0.1-0.7,0-0.8-0.3c-0.1-0.3,0-0.7,0.3-0.8
	C34.4,33.7,34.7,33.8,34.8,34.1"></path><path class="st20" d="M35,31.4c0.1,0.3,0,0.7-0.3,0.8c-0.3,0.1-0.7,0-0.8-0.3c-0.1-0.3,0-0.7,0.3-0.8C34.5,30.9,34.9,31.1,35,31.4"></path><path class="st20" d="M37.7,30.8c0.1,0.3,0,0.7-0.3,0.8c-0.3,0.1-0.7,0-0.8-0.3c-0.1-0.3,0-0.7,0.3-0.8
	C37.2,30.4,37.5,30.5,37.7,30.8"></path><path class="st20" d="M40.9,31.8c0.1,0.3,0,0.7-0.3,0.8c-0.3,0.1-0.7,0-0.8-0.3c-0.1-0.3,0-0.7,0.3-0.8
	C40.4,31.4,40.8,31.5,40.9,31.8"></path><path class="st20" d="M39.8,33.7c0.1,0.3,0,0.7-0.3,0.8c-0.3,0.1-0.7,0-0.8-0.3c-0.1-0.3,0-0.7,0.3-0.8
	C39.4,33.3,39.7,33.4,39.8,33.7"></path><path class="st20" d="M41.2,35.3c0.1,0.3,0,0.7-0.3,0.8c-0.3,0.1-0.7,0-0.8-0.3c-0.1-0.3,0-0.7,0.3-0.8C40.7,34.9,41.1,35,41.2,35.3
	"></path><path class="st20" d="M38.6,36c0.1,0.3,0,0.7-0.3,0.8c-0.3,0.1-0.7,0-0.8-0.3c-0.1-0.3,0-0.7,0.3-0.8C38.1,35.6,38.4,35.7,38.6,36"></path><path class="st10" d="M67.9,57.2c0,0-9.6-3.6-10.5-4.2s-1.6-0.9-1.6-1.6c0-0.7,0.2-1.4,0.2-1.4s0.8-0.8,1.6-0.8
	c0.8-0.1,4.7,1.8,5.5,2.1c0.8,0.4,5.4,3.4,5.5,3.5c0.1,0.1,1.3,1.9,1.5,2S67.9,57.2,67.9,57.2z"></path><path class="st11" d="M77.6,55.8c0,0,5.3-3.9,6-4.7c0.7-0.8,2.6-3.8,3.2-5.1c0.6-1.4,1.4-2.5,1.1-3.2c-0.2-0.7-0.2-0.7-1.2-1.4
	s-1.7-1-3-0.1c-1.3,0.8-3.4,2.9-4.6,5.1c-1.2,2.2-2.3,5.1-2.7,5.7c-0.5,0.7-1.2,2.4-1.2,2.4L77.6,55.8z"></path><path class="st10" d="M74,54.1c0,0-1.2-11.3-1-12.5c0.2-1.2,0.5-1.6,1-2c0.4-0.4,0.6-0.9,0.9-1s0.4,0,0.6,0.3s0.2,0.3,0.2,0.3
	s0.7-0.5,1.2,0.2c0.5,0.7,0.2,1.1,0.3,2.3c0.2,1.2,0.9,6.5,0.6,7.1s0,1.3-0.3,2.1c-0.3,0.7-1.1,2.2-1.1,2.2l-2,2.7L74,54.1z"></path><path class="st12" d="M71.6,53.9c0.1-0.2-3.9-9.5-4.1-10.9c-0.3-1.4-0.4-2.9,0-3.4c0.3-0.6,1.2-1.4,1.6-1.2c0.5,0.2,1.2,0.6,1.5,1
	c0.4,0.4,2.2,5.6,2.7,6.9c0.5,1.3,0.3,3.9,0.5,4.9c0.1,1,0.3,2.9,0.3,2.9L71.6,53.9z"></path><path class="st10" d="M72,53.1c0,0-0.9-4.6-1.8-5.9c-1-1.3-4.6-5.6-4.9-5.8c-0.3-0.1-1.1-0.9-1.7-0.5c-0.5,0.4-0.8,0.7-0.9,1
	c-0.1,0.3-0.6,0.6-0.4,1.6c0.2,1.1,1.4,3.6,2.1,4c0.7,0.5,5.5,5.1,5.8,5.6c0.2,0.6,1.8,1.8,1.8,1.8L72,53.1z"></path><path class="st11" d="M70.5,56.1c0,0-5.2-4.9-6.4-5.8s-4.1-4.1-4.5-4.6s-0.8-1.1-0.5-1.5c0.3-0.4,1.7-0.4,1.7-0.4s-0.4-0.6,0-0.9
	c0.3-0.3,1.4-0.2,1.4-0.2s2.2,1.2,2.6,1.6c0.4,0.4,3.5,3.8,3.9,4.6s2.4,5,2.6,5.4C71.4,54.8,70.5,56.1,70.5,56.1z"></path><path class="st11" d="M77.9,61.1c0,0,8.9,4,10.1,4.8s5.4,1.2,5.7,1.3s0.6,0,0.8-0.4s0.3-1.2,0.4-1.3c0.1,0,0-1.3-2.1-2.4
	S81.1,59.1,80,58.9C79,58.7,76.5,59,76.5,59L77.9,61.1z"></path><path class="st10" d="M78.7,60c0,0,4,1.3,4.7,1.5c0.7,0.3,2.8,0.8,3.8,0.3c1.1-0.5,5.8-0.1,6.3-0.2c0.5-0.1,0.9-0.2,1-0.5
	c0.1-0.3,0-0.7,0.2-0.9c0.2-0.3,0.5-0.2,0-0.8c-0.4-0.6-2-1-3-1.4c-1-0.5-7.2-1.3-8.6-1.4c-1.4-0.2-4.3,0.6-5,0.5
	c-0.8-0.1-1.9,0.2-2.2,0.6S78.7,60,78.7,60z"></path><path class="st12" d="M74.7,58.7c0,0,5.5-4.8,6.8-5.8c1.3-1.1,9.4-4.4,9.9-4.3c0.6,0.2,1.4,0.2,1.3,0.6s-0.2,0.6,0.1,0.8
	s0.6,0.3,0.4,0.7s-0.2,0.5-0.4,0.8c-0.2,0.3-0.4,0.3-0.3,0.7c0.1,0.4,0.7,0.4,0.5,1s-0.1,1.1-1.1,1.5c-0.9,0.4-4.3,1.2-5.3,1.5
	c-1,0.3-2.7,1.3-3.5,1.5c-0.8,0.2-4.1,1.1-4.5,0.9C78.1,58.3,74.7,58.7,74.7,58.7z"></path><path class="st10" d="M76.9,64c0,0,3.8,6.7,4.6,7.1c0.8,0.4,4.1,2,4.3,2.1c0.3,0,1.1,1,1.6,0.8s0.5-0.2,0.6-0.4s0.2-0.2,0.4-0.4
	s0.3-0.5,0.3-1.1c-0.1-0.5-1.2-2.3-1.5-2.9c-0.3-0.6-6-5.6-6.7-5.9c-0.7-0.3-3.2-1.7-3.2-1.7l-1.8,0.5L76.9,64z"></path><path class="st12" d="M77.8,62.7c0,0,2.9,3.2,3.4,3.7c0.6,0.5,4.7,3.3,5.1,3.4c0.4,0.1,2,0.9,2.2,0.7s0.1-0.5,0.1-0.8
	c0-0.3,0.4-0.2,0.4-0.4s0.5-0.2,0.4-0.8c-0.1-0.6-0.5-1.6-0.7-1.8c-0.2-0.2-6.9-4.8-7.2-4.9s-3.8-1.6-3.8-1.6L75.3,61L77.8,62.7z"></path><path class="st10" d="M74.4,65c0,0,1.9,11,1.9,11.3c0.1,0.3,1,0.9,1.4,1s0.9-0.3,1.1-0.4c0.2-0.1,0.6-0.4,0.5-1.1
	c-0.1-0.7-0.2-4.1-0.3-4.5s-1.8-3.9-1.9-4.1c-0.1-0.3-0.9-4.1-0.9-4.1L74.4,65z"></path><path class="st12" d="M74.6,63c0,0,2.3,5,2.5,5.4c0.2,0.4,2.7,3.7,3.2,4.3s1.9,2.1,2.4,2.2s0.5,0.1,0.6-0.1c0.1-0.2,0.2-0.5,0.2-0.5
	s-0.1,0.2,0.3-0.2c0.4-0.4,0.4-1.5,0.3-1.5c-0.1,0-1.8-2.9-2.1-3.4c-0.3-0.4-3.4-4.6-3.8-5c-0.4-0.4-2-2.3-2-2.3L74.6,63z"></path><path class="st10" d="M72.2,63.9c-0.1,0.1-2.3,6.5-2.4,7.3s0.3,2.7,0.2,3.8c-0.1,1.2-0.2,1.9,0,2.3c0.2,0.5,0.1,0.6,0.4,0.6
	s0.6-0.5,0.6-0.5s0,0.5,0.4,0.4s0.5-0.1,0.9-0.7c0.4-0.7-0.2,0.4,1-2.6c1.2-3,0.3-7.4,0.3-7.6c0.1-0.2,0.3-3.6,0.3-3.6L72.2,63.9z"></path><path class="st11" d="M73.3,64c-0.3,0.6-1.2,3.4-1.2,3.7c0,0.3,0.9,4.3,0.9,5.1c0,0.8-0.1,2,0,2.6c0.1,0.5-0.1,0.9,0.3,1.1
	c0.4,0.2,0.4,0.6,0.6,0.3c0.2-0.3,0.8-0.8,0.8-0.8s0.1,0.5,0.3,0.6c0.2,0,0.3,0.1,0.6-0.4c0.3-0.5,0.4-6.5,0.5-7.3
	c0.1-0.8-0.3-4.4-0.4-4.6c-0.1-0.2-1.1-1.8-1.1-1.8L73.3,64z"></path><path class="st10" d="M70.1,61.5c0,0-6.5,6.5-7,7.4c-0.6,0.9-2.6,3.9-2.4,4.4c0.1,0.5,0.3,0.8,0.4,0.9c0.1,0.1,0.7,0.1,0.7,0.1
	s-0.1,0.5,0.3,0.4c0.3-0.2,1.5-0.6,1.9-1c0.4-0.4,3-4.4,3.6-5.5c0.6-1.1,3.1-4.9,3.3-5.2c0.3-0.3,0.6-0.7,1-1.5
	C72.3,60.7,70.1,61.5,70.1,61.5z"></path><path class="st12" d="M72.2,62.5c-0.1,0-3.8,3.1-4.5,4s-1.7,3.1-1.8,3.8c-0.1,0.7-0.3,2.3-0.1,2.7c0.2,0.4,0.5,0.6,0.7,0.6
	c0.2,0,1.8-0.5,2.3-1s1.4-1.3,2-2.5c0.6-1.2,1.1-3.6,1.3-4.3c0.2-0.8,0.6-2.3,0.6-2.3l0.1-0.8L72.2,62.5z"></path><path class="st10" d="M69.3,60c0,0-7.1,2.6-8.8,3.3c-1.7,0.7-4.2,2.3-4.5,2.8c-0.3,0.5-0.3,0.8-0.2,1c0.1,0.1,0.5,0.5,0.5,0.7
	s0,0.4,0.3,0.6c0.3,0.1,0.4,0.4,1.5,0.2c1-0.3,6.1-3.1,6.2-3.3c0.2-0.2,6.2-4.6,6.2-4.6L69.3,60z"></path><path class="st12" d="M71,59.9c0,0-5.1,2.4-7,3.5c-1.9,1.1-4.1,2.2-5.2,3.2c-1.1,1.1-1.7,1.4-1.8,2.1c-0.1,0.7-0.2,0.8,0,1
	s0.2,0.4,0.5,0.5c0.3,0.2,0.8,0.6,1.2,0.6c0.4,0,5.2-1.6,7.3-3.6c2.1-2,4.4-4.7,4.5-4.9c0.1-0.1,1.1-1.8,1.1-1.8L71,59.9z"></path><path class="st11" d="M69.3,57.8c0,0-5.6-1.8-6.2-1.7c-0.5,0.1-4.6,0.3-5.1,0.3s-2.2,0.4-2.7,0.8c-0.5,0.5-1.1,1.1-1.1,1.4
	s0,0.5,0.6,0.8c0.6,0.4,5.2,1,5.5,1c0.3,0,3.1,0.1,3.5,0c0.4,0,2.6-0.5,2.9-0.6c0.3-0.1,1.9-0.4,2.2-0.5c0.3-0.1,1-0.7,1-0.7
	L69.3,57.8z"></path><path class="st13" d="M77.7,53.2C77.7,53.2,77.7,53.2,77.7,53.2c-0.1,0-0.2,0-0.3,0c-0.1,0-0.2,0-0.3,0.1c-0.1-0.3-0.3-0.5-0.6-0.5
	c-0.1,0-0.3,0.1-0.4,0.2c0,0,0,0,0,0c0-0.3-0.3-0.6-0.6-0.5c-0.2,0-0.3,0.1-0.4,0.2c-0.1-0.2-0.3-0.3-0.6-0.3
	c-0.2,0-0.4,0.2-0.5,0.4c-0.1-0.2-0.3-0.3-0.6-0.3c-0.3,0-0.6,0.3-0.5,0.6c0,0.1,0.1,0.3,0.1,0.3c0,0,0,0.1,0,0.1c0,0,0,0-0.1,0
	c0,0,0-0.1,0-0.1c0-0.3-0.3-0.6-0.6-0.5c-0.3,0-0.6,0.3-0.5,0.6c0,0,0,0.1,0,0.1c-0.1,0-0.2,0-0.3,0.1c-0.1-0.1-0.2-0.1-0.3-0.1
	c-0.3,0-0.6,0.3-0.5,0.6c0,0.2,0.1,0.4,0.3,0.5c-0.1,0.1-0.2,0.2-0.3,0.2c-0.1-0.2-0.3-0.3-0.6-0.3c-0.3,0-0.6,0.3-0.5,0.6
	c0,0.1,0,0.1,0.1,0.2c-0.2,0-0.3,0.1-0.5,0.2C69,55.7,69,55.9,69,56c-0.3,0.1-0.4,0.3-0.4,0.6c0,0.1,0,0.2,0.1,0.2
	c-0.2,0.1-0.4,0.3-0.4,0.6c0,0.1,0.1,0.2,0.1,0.3c-0.1,0.1-0.2,0.3-0.1,0.4c-0.2,0.1-0.3,0.3-0.3,0.5c0,0.3,0.3,0.5,0.6,0.5
	c0,0,0,0,0,0c0,0,0,0,0,0c-0.3,0-0.6,0.3-0.5,0.6c0,0.3,0.3,0.6,0.6,0.6c0.2,0,0.3-0.1,0.4-0.2c0,0.1,0,0.1,0.1,0.2
	c-0.2,0.1-0.4,0.3-0.4,0.6c0,0.3,0.3,0.6,0.6,0.5c-0.3,0-0.5,0.2-0.5,0.5c0,0.3,0.2,0.6,0.5,0.7c0,0,0.1,0,0.1,0
	c0.1,0.2,0.3,0.4,0.5,0.4c0,0,0,0,0,0.1c0,0.3,0.3,0.5,0.6,0.5c0.1,0.3,0.3,0.4,0.6,0.4c0,0,0,0,0.1,0c0,0.3,0.3,0.5,0.6,0.5
	c0.1,0,0.1,0,0.2,0c0.1,0.3,0.3,0.5,0.6,0.4c0.1,0,0.1,0,0.2,0c0.1,0.3,0.3,0.4,0.6,0.4c0.2,0,0.4-0.1,0.5-0.3
	c0.1,0.1,0.3,0.2,0.5,0.2c0.2,0,0.4-0.1,0.5-0.3c0.1,0.1,0.3,0.2,0.5,0.2c0.2,0,0.3-0.1,0.4-0.2c0.1,0.1,0.2,0.1,0.4,0.1
	c0.2,0,0.4-0.2,0.5-0.3c0.1,0,0.2,0.1,0.3,0.1c0.3,0,0.5-0.2,0.5-0.4c0.1,0,0.2,0.1,0.3,0.1c0.3,0,0.6-0.3,0.6-0.6c0,0,0-0.1,0-0.1
	c0.1,0.1,0.2,0.1,0.3,0.1c0.3,0,0.6-0.3,0.6-0.6c0,0,0-0.1,0-0.1c0,0,0,0,0,0c0.3,0,0.6-0.3,0.6-0.6c0,0,0,0,0,0
	c0.3-0.1,0.5-0.3,0.5-0.6c0,0,0,0,0,0c0.3,0,0.5-0.3,0.5-0.6c0-0.2-0.1-0.3-0.2-0.4c0,0,0,0,0,0c0.3,0,0.6-0.3,0.5-0.6
	c0-0.2-0.1-0.4-0.3-0.5c0,0,0-0.1,0-0.1c0.2-0.1,0.4-0.3,0.3-0.6c0-0.2-0.2-0.4-0.4-0.5c0.3-0.1,0.5-0.3,0.5-0.6
	c0-0.3-0.2-0.5-0.5-0.5c0-0.1,0.1-0.2,0.1-0.3c0-0.3-0.3-0.6-0.6-0.5c-0.1,0-0.1,0-0.2,0c0.1,0,0.2-0.1,0.2-0.2
	c0.2-0.3,0.1-0.6-0.1-0.8c-0.1,0-0.1-0.1-0.2-0.1c0-0.1,0.1-0.2,0.1-0.3c0-0.3-0.3-0.6-0.6-0.5c-0.1,0-0.1,0-0.2,0.1
	c0-0.1,0-0.2,0-0.2c0-0.3-0.3-0.6-0.6-0.5c-0.1,0-0.1,0-0.2,0.1c0-0.1,0-0.2,0-0.2C78.4,53.4,78.1,53.2,77.7,53.2 M74.1,53.1
	C74.1,53.1,74.1,53.1,74.1,53.1L74.1,53.1C74.1,53.1,74.1,53.1,74.1,53.1"></path><path class="st14" d="M76.6,53.6c2.9,1.4,4.1,4.9,2.8,7.8c-1.4,2.9-4.9,4.1-7.8,2.8c-2.9-1.4-4.1-4.9-2.7-7.8
	C70.2,53.4,73.7,52.2,76.6,53.6"></path><path class="st15" d="M69.4,62.3c0,0.3-0.3,0.6-0.7,0.5c-0.3,0-0.6-0.3-0.5-0.7c0-0.3,0.3-0.6,0.7-0.5C69.2,61.7,69.4,62,69.4,62.3"></path><path class="st15" d="M69.3,61c0,0.3-0.2,0.6-0.5,0.6c-0.3,0-0.6-0.2-0.6-0.5c0-0.3,0.2-0.6,0.5-0.6C69,60.4,69.3,60.7,69.3,61"></path><path class="st15" d="M71.2,58.9c0,0.3-0.2,0.6-0.5,0.6c-0.3,0-0.6-0.2-0.6-0.5c0-0.3,0.2-0.6,0.5-0.6
	C70.9,58.3,71.2,58.6,71.2,58.9"></path><path class="st15" d="M72.2,56.2c0,0.3-0.2,0.6-0.6,0.6c-0.3,0-0.6-0.2-0.6-0.5c0-0.3,0.2-0.6,0.6-0.6
	C71.9,55.6,72.1,55.9,72.2,56.2"></path><path class="st16" d="M71.8,57.3c0,0.3-0.2,0.6-0.6,0.6c-0.3,0-0.6-0.2-0.6-0.5c0-0.3,0.2-0.6,0.6-0.6
	C71.5,56.7,71.8,56.9,71.8,57.3"></path><path class="st16" d="M68.8,58.1c0,0.3-0.2,0.6-0.6,0.6c-0.3,0-0.6-0.2-0.6-0.5c0-0.3,0.2-0.6,0.6-0.6
	C68.5,57.5,68.8,57.7,68.8,58.1"></path><path class="st15" d="M74.6,55.4c0,0.3-0.2,0.6-0.5,0.6c-0.3,0-0.6-0.2-0.6-0.5c0-0.3,0.2-0.6,0.5-0.6
	C74.3,54.8,74.6,55.1,74.6,55.4"></path><path class="st15" d="M76.1,56.7c0,0.3-0.2,0.6-0.5,0.6c-0.3,0-0.6-0.2-0.6-0.5c0-0.3,0.2-0.6,0.5-0.6C75.8,56.1,76,56.3,76.1,56.7"></path><path class="st15" d="M75.4,58.8c0,0.3-0.2,0.6-0.6,0.6c-0.3,0-0.6-0.2-0.6-0.5c0-0.3,0.2-0.6,0.6-0.6
	C75.1,58.2,75.4,58.4,75.4,58.8"></path><path class="st15" d="M73.7,61.2c0,0.3-0.2,0.6-0.6,0.6c-0.3,0-0.6-0.2-0.6-0.5c0-0.3,0.2-0.6,0.6-0.6
	C73.4,60.6,73.6,60.9,73.7,61.2"></path><path class="st15" d="M72.1,60.5c0,0.3-0.2,0.6-0.6,0.6c-0.3,0-0.6-0.2-0.6-0.5c0-0.3,0.2-0.6,0.6-0.6
	C71.8,59.9,72.1,60.1,72.1,60.5"></path><path class="st15" d="M72.5,62.2c0,0.3-0.2,0.6-0.5,0.6c-0.3,0-0.6-0.2-0.6-0.5c0-0.3,0.2-0.6,0.5-0.6
	C72.2,61.6,72.4,61.9,72.5,62.2"></path><path class="st15" d="M75.3,62.5c0,0.3-0.2,0.6-0.6,0.6c-0.3,0-0.6-0.2-0.6-0.5c0-0.3,0.2-0.6,0.6-0.6C75,62,75.3,62.2,75.3,62.5"></path><path class="st15" d="M76.7,61.9c0,0.3-0.2,0.6-0.6,0.6c-0.3,0-0.6-0.2-0.6-0.5c0-0.3,0.2-0.6,0.6-0.6
	C76.4,61.3,76.7,61.5,76.7,61.9"></path><path class="st15" d="M78,60.7c0,0.3-0.2,0.6-0.5,0.6c-0.3,0-0.6-0.2-0.6-0.5c0-0.3,0.2-0.6,0.5-0.6C77.7,60.1,78,60.3,78,60.7"></path><path class="st15" d="M77.7,58c0,0.3-0.2,0.6-0.5,0.6c-0.3,0-0.6-0.2-0.6-0.5c0-0.3,0.2-0.6,0.5-0.6C77.4,57.4,77.7,57.7,77.7,58"></path><path class="st15" d="M77.3,55.8c0,0.3-0.2,0.6-0.5,0.6c-0.3,0-0.6-0.2-0.6-0.5c0-0.3,0.2-0.6,0.5-0.6C77,55.2,77.3,55.5,77.3,55.8"></path><path class="st15" d="M74.2,57.1c0,0.3-0.2,0.6-0.5,0.6c-0.3,0-0.6-0.2-0.6-0.5c0-0.3,0.2-0.6,0.5-0.6
	C73.9,56.5,74.2,56.8,74.2,57.1"></path><path class="st15" d="M73.4,56.2c0,0.3-0.2,0.6-0.5,0.6c-0.3,0-0.6-0.2-0.6-0.5c0-0.3,0.2-0.6,0.5-0.6
	C73.1,55.6,73.4,55.8,73.4,56.2"></path><path class="st15" d="M71,55.6c0,0.3-0.2,0.6-0.6,0.6c-0.3,0-0.6-0.2-0.6-0.5c0-0.3,0.2-0.6,0.6-0.6C70.7,55.1,71,55.3,71,55.6"></path><path class="st15" d="M74.3,54c0,0.3-0.2,0.6-0.6,0.6c-0.3,0-0.6-0.2-0.6-0.5c0-0.3,0.2-0.6,0.6-0.6C74,53.5,74.3,53.7,74.3,54"></path><path class="st15" d="M76.5,54.8c0,0.3-0.2,0.6-0.6,0.6c-0.3,0-0.6-0.2-0.6-0.5c0-0.3,0.2-0.6,0.6-0.6
	C76.2,54.2,76.5,54.5,76.5,54.8"></path><path class="st15" d="M79.1,56.4c0,0.3-0.2,0.6-0.6,0.6c-0.3,0-0.6-0.2-0.6-0.5c0-0.3,0.2-0.6,0.6-0.6
	C78.8,55.9,79.1,56.1,79.1,56.4"></path><path class="st15" d="M79.3,59.5c0,0.3-0.2,0.6-0.5,0.6c-0.3,0-0.6-0.2-0.6-0.5c0-0.3,0.2-0.6,0.5-0.6
	C78.9,58.9,79.2,59.2,79.3,59.5"></path><path class="st15" d="M76.1,59.8c0,0.3-0.2,0.6-0.5,0.6c-0.3,0-0.6-0.2-0.6-0.5c0-0.3,0.2-0.6,0.5-0.6
	C75.8,59.2,76.1,59.4,76.1,59.8"></path><path class="st15" d="M71.1,61.7c0,0.3-0.2,0.6-0.5,0.6c-0.3,0-0.6-0.2-0.6-0.5c0-0.3,0.2-0.6,0.5-0.6
	C70.8,61.1,71.1,61.4,71.1,61.7"></path><path class="st15" d="M74.4,63.2c0,0.3-0.2,0.6-0.6,0.6c-0.3,0-0.6-0.2-0.6-0.5c0-0.3,0.2-0.6,0.6-0.6
	C74.1,62.7,74.4,62.9,74.4,63.2"></path><path class="st15" d="M73,58.7c0,0.3-0.2,0.6-0.5,0.6c-0.3,0-0.6-0.2-0.6-0.5c0-0.3,0.2-0.6,0.5-0.6C72.7,58.1,72.9,58.4,73,58.7"></path><path class="st15" d="M70.6,57.5c0,0.3-0.2,0.6-0.5,0.6c-0.3,0-0.6-0.2-0.6-0.5c0-0.3,0.2-0.6,0.5-0.6
	C70.2,56.9,70.5,57.2,70.6,57.5"></path><path class="st15" d="M68.6,59.8c0,0.3-0.2,0.6-0.5,0.6c-0.3,0-0.6-0.2-0.6-0.5c0-0.3,0.2-0.6,0.5-0.6
	C68.2,59.2,68.5,59.5,68.6,59.8"></path><path class="st15" d="M68.6,58.6c0,0.3-0.2,0.6-0.6,0.6c-0.3,0-0.6-0.2-0.6-0.5c0-0.3,0.2-0.6,0.6-0.6C68.2,58,68.5,58.3,68.6,58.6"></path><path class="st15" d="M68.8,57.3c0,0.3-0.2,0.6-0.6,0.6c-0.3,0-0.6-0.2-0.6-0.5c0-0.3,0.2-0.6,0.6-0.6C68.5,56.8,68.8,57,68.8,57.3"></path><path class="st15" d="M69.1,56.5c0,0.3-0.2,0.6-0.5,0.6c-0.3,0-0.6-0.2-0.6-0.5c0-0.3,0.2-0.6,0.5-0.6
	C68.8,55.9,69.1,56.2,69.1,56.5"></path><path class="st17" d="M70,55c0,0.3-0.2,0.6-0.6,0.6c-0.3,0-0.6-0.2-0.6-0.5c0-0.3,0.2-0.6,0.6-0.6C69.7,54.4,70,54.7,70,55"></path><path class="st15" d="M71.1,53.9c0,0.3-0.2,0.6-0.5,0.6c-0.3,0-0.6-0.2-0.6-0.5c0-0.3,0.2-0.6,0.5-0.6
	C70.8,53.4,71.1,53.6,71.1,53.9"></path><path class="st17" d="M72.3,53.2c0,0.3-0.2,0.6-0.5,0.6c-0.3,0-0.6-0.2-0.6-0.5c0-0.3,0.2-0.6,0.5-0.6C72,52.6,72.3,52.9,72.3,53.2"></path><path class="st15" d="M74.6,52.7c0,0.3-0.2,0.6-0.5,0.6c-0.3,0-0.6-0.2-0.6-0.5c0-0.3,0.2-0.6,0.5-0.6
	C74.2,52.2,74.5,52.4,74.6,52.7"></path><path class="st15" d="M75.5,52.8c0,0.3-0.2,0.6-0.6,0.6c-0.3,0-0.6-0.2-0.6-0.5c0-0.3,0.2-0.6,0.6-0.6
	C75.2,52.3,75.5,52.5,75.5,52.8"></path><path class="st18" d="M76.6,53.2c0,0.3-0.2,0.6-0.6,0.6c-0.3,0-0.6-0.2-0.6-0.5c0-0.3,0.2-0.6,0.6-0.6
	C76.2,52.7,76.5,52.9,76.6,53.2"></path><path class="st18" d="M73.2,54.7c0,0.3-0.2,0.6-0.6,0.6c-0.3,0-0.6-0.2-0.6-0.5c0-0.3,0.2-0.6,0.6-0.6
	C72.9,54.1,73.2,54.3,73.2,54.7"></path><path class="st18" d="M73,57.2c0,0.3-0.2,0.6-0.5,0.6c-0.3,0-0.6-0.2-0.6-0.5c0-0.3,0.2-0.6,0.5-0.6C72.7,56.6,73,56.8,73,57.2"></path><path class="st18" d="M72.2,59.4c0,0.3-0.2,0.6-0.5,0.6c-0.3,0-0.6-0.2-0.6-0.5c0-0.3,0.2-0.6,0.5-0.6
	C71.9,58.8,72.2,59.1,72.2,59.4"></path><path class="st18" d="M70.8,60.5c0,0.3-0.2,0.6-0.5,0.6c-0.3,0-0.6-0.2-0.6-0.5c0-0.3,0.2-0.6,0.5-0.6C70.5,60,70.8,60.2,70.8,60.5"></path><path class="st18" d="M73.8,63.3c-0.2,0.3-0.6,0.3-0.8,0.1c-0.3-0.2-0.3-0.6-0.1-0.8c0.2-0.3,0.6-0.3,0.8-0.1
	C74,62.7,74,63,73.8,63.3"></path><path class="st18" d="M75.4,61.1c-0.2,0.3-0.6,0.3-0.8,0.1c-0.3-0.2-0.3-0.6-0.1-0.8c0.2-0.3,0.6-0.3,0.8-0.1
	C75.6,60.5,75.6,60.9,75.4,61.1"></path><path class="st18" d="M74.2,60.3c-0.2,0.3-0.6,0.3-0.8,0.1c-0.3-0.2-0.3-0.6-0.1-0.8c0.2-0.3,0.6-0.3,0.8-0.1
	C74.3,59.6,74.4,60,74.2,60.3"></path><path class="st18" d="M77.2,60.1c-0.2,0.3-0.6,0.3-0.8,0.1c-0.3-0.2-0.3-0.6-0.1-0.8c0.2-0.3,0.6-0.3,0.8-0.1
	C77.4,59.4,77.4,59.8,77.2,60.1"></path><path class="st18" d="M78.6,58.3c-0.2,0.3-0.6,0.3-0.8,0.1c-0.3-0.2-0.3-0.6-0.1-0.8c0.2-0.3,0.6-0.3,0.8-0.1
	C78.7,57.7,78.8,58.1,78.6,58.3"></path><path class="st18" d="M79.7,56.4c-0.2,0.3-0.6,0.3-0.8,0.1c-0.3-0.2-0.3-0.6-0.1-0.8c0.2-0.3,0.6-0.3,0.8-0.1
	C79.8,55.7,79.9,56.1,79.7,56.4"></path><path class="st18" d="M77.5,62.6c-0.2,0.3-0.6,0.3-0.8,0.1s-0.3-0.6-0.1-0.8c0.2-0.3,0.6-0.3,0.8-0.1C77.7,62,77.7,62.3,77.5,62.6"></path><path class="st15" d="M77.7,53.7c0,0.3-0.2,0.6-0.6,0.6s-0.6-0.2-0.6-0.5c0-0.3,0.2-0.6,0.6-0.6C77.4,53.1,77.7,53.4,77.7,53.7"></path><path class="st15" d="M78.6,54.4c0,0.3-0.2,0.6-0.5,0.6c-0.3,0-0.6-0.2-0.6-0.5c0-0.3,0.2-0.6,0.5-0.6
	C78.3,53.8,78.5,54.1,78.6,54.4"></path><path class="st17" d="M79.4,55.1c0,0.3-0.2,0.6-0.6,0.6c-0.3,0-0.6-0.2-0.6-0.6c0-0.3,0.2-0.6,0.5-0.6
	C79.1,54.6,79.4,54.8,79.4,55.1"></path><path class="st15" d="M80.3,57.1c0,0.3-0.2,0.6-0.5,0.6c-0.3,0-0.6-0.2-0.6-0.5c0-0.3,0.2-0.6,0.5-0.6C80,56.5,80.2,56.7,80.3,57.1"></path><path class="st15" d="M80.7,57.9c0,0.3-0.2,0.6-0.5,0.6c-0.3,0-0.6-0.2-0.6-0.5c0-0.3,0.2-0.6,0.5-0.6
	C80.4,57.3,80.6,57.6,80.7,57.9"></path><path class="st15" d="M80.5,60.2c0,0.3-0.2,0.6-0.6,0.6c-0.3,0-0.6-0.2-0.6-0.5c0-0.3,0.2-0.6,0.6-0.6
	C80.2,59.6,80.5,59.8,80.5,60.2"></path><path class="st17" d="M80.2,61.3c0,0.3-0.2,0.6-0.6,0.6c-0.3,0-0.6-0.2-0.6-0.5c0-0.3,0.2-0.6,0.6-0.6
	C79.9,60.7,80.2,60.9,80.2,61.3"></path><path class="st15" d="M79.7,61.9c0,0.3-0.2,0.6-0.6,0.6c-0.3,0-0.6-0.2-0.6-0.5c0-0.3,0.2-0.6,0.6-0.6
	C79.4,61.3,79.7,61.6,79.7,61.9"></path><path class="st15" d="M79.2,62.6c0,0.3-0.2,0.6-0.6,0.6c-0.3,0-0.6-0.2-0.6-0.5c0-0.3,0.2-0.6,0.5-0.6C78.9,62,79.2,62.3,79.2,62.6"></path><path class="st17" d="M78.6,63.3c0,0.3-0.2,0.6-0.6,0.6c-0.3,0-0.6-0.2-0.6-0.5c0-0.3,0.2-0.6,0.6-0.6C78.3,62.7,78.6,63,78.6,63.3"></path><path class="st15" d="M77.8,64c0,0.3-0.2,0.6-0.5,0.6c-0.3,0-0.6-0.2-0.6-0.5c0-0.3,0.2-0.6,0.5-0.6C77.5,63.4,77.8,63.6,77.8,64"></path><path class="st17" d="M76.9,64.3c0,0.3-0.2,0.6-0.5,0.6c-0.3,0-0.6-0.2-0.6-0.5c0-0.3,0.2-0.6,0.5-0.6C76.6,63.8,76.9,64,76.9,64.3"></path><path class="st15" d="M76.1,64.6c0,0.3-0.2,0.6-0.6,0.6c-0.3,0-0.6-0.2-0.6-0.5c0-0.3,0.2-0.6,0.6-0.6C75.8,64,76.1,64.3,76.1,64.6"></path><path class="st15" d="M75.4,64.7c0,0.3-0.2,0.6-0.6,0.6c-0.3,0-0.6-0.2-0.6-0.5c0-0.3,0.2-0.6,0.6-0.6C75,64.2,75.3,64.4,75.4,64.7"></path><path class="st17" d="M74.4,64.8c0,0.3-0.2,0.6-0.6,0.6c-0.3,0-0.6-0.2-0.6-0.5c0-0.3,0.2-0.6,0.6-0.6
	C74.1,64.2,74.4,64.5,74.4,64.8"></path><path class="st15" d="M73.4,64.9c0,0.3-0.2,0.6-0.6,0.6c-0.3,0-0.6-0.2-0.6-0.5c0-0.3,0.2-0.6,0.6-0.6
	C73.1,64.3,73.4,64.6,73.4,64.9"></path><path class="st15" d="M72.6,64.5c0,0.3-0.2,0.6-0.6,0.6c-0.3,0-0.6-0.2-0.6-0.5c0-0.3,0.2-0.6,0.6-0.6
	C72.3,63.9,72.6,64.2,72.6,64.5"></path><path class="st17" d="M71.8,64.1c0,0.3-0.2,0.6-0.6,0.6c-0.3,0-0.6-0.2-0.6-0.5c0-0.3,0.2-0.6,0.6-0.6
	C71.5,63.5,71.8,63.8,71.8,64.1"></path><path class="st15" d="M71.1,63.6c0,0.3-0.2,0.6-0.6,0.6c-0.3,0-0.6-0.2-0.6-0.5c0-0.3,0.2-0.6,0.6-0.6C70.8,63,71.1,63.3,71.1,63.6"></path><path class="st15" d="M70.6,63.2c0,0.3-0.2,0.6-0.6,0.6c-0.3,0-0.6-0.2-0.6-0.5c0-0.3,0.2-0.6,0.6-0.6
	C70.3,62.6,70.6,62.9,70.6,63.2"></path><path class="st17" d="M70,62.6c0,0.3-0.2,0.6-0.5,0.6c-0.3,0-0.6-0.2-0.6-0.5c0-0.3,0.2-0.6,0.5-0.6C69.7,62,70,62.3,70,62.6"></path><path class="st17" d="M69.8,60.1c0,0.3-0.2,0.6-0.5,0.6c-0.3,0-0.6-0.2-0.6-0.5c0-0.3,0.2-0.6,0.5-0.6
	C69.5,59.5,69.8,59.7,69.8,60.1"></path><path class="st15" d="M80.6,59.1c0,0.3-0.2,0.6-0.6,0.6c-0.3,0-0.6-0.2-0.6-0.5c0-0.3,0.2-0.6,0.6-0.6
	C80.3,58.5,80.6,58.7,80.6,59.1"></path><path class="st15" d="M73.5,52.8c0,0.3-0.2,0.6-0.5,0.6c-0.3,0-0.6-0.2-0.6-0.5c0-0.3,0.2-0.6,0.5-0.6
	C73.2,52.2,73.5,52.4,73.5,52.8"></path><path class="st18" d="M79.1,62.4c-0.2,0.3-0.6,0.3-0.8,0.1c-0.3-0.2-0.3-0.6-0.1-0.8c0.2-0.3,0.6-0.3,0.8-0.1
	C79.2,61.7,79.3,62.1,79.1,62.4"></path><path class="st18" d="M75.7,64.6c-0.2,0.3-0.6,0.3-0.8,0.1c-0.3-0.2-0.3-0.6-0.1-0.8c0.2-0.3,0.6-0.3,0.8-0.1
	C75.8,63.9,75.9,64.3,75.7,64.6"></path><path class="st18" d="M71.6,54.3c-0.2,0.3-0.6,0.3-0.8,0.1c-0.3-0.2-0.3-0.6-0.1-0.8c0.2-0.3,0.6-0.3,0.8-0.1
	C71.7,53.7,71.8,54.1,71.6,54.3"></path><path class="st18" d="M69.4,56.2c-0.2,0.3-0.6,0.3-0.8,0.1c-0.3-0.2-0.3-0.6-0.1-0.8c0.2-0.3,0.6-0.3,0.8-0.1
	C69.6,55.6,69.6,56,69.4,56.2"></path><path class="st16" d="M70.5,58.4c0,0.3-0.2,0.6-0.6,0.6c-0.3,0-0.6-0.2-0.6-0.5c0-0.3,0.2-0.6,0.6-0.6
	C70.2,57.9,70.5,58.1,70.5,58.4"></path><path class="st16" d="M70.2,59.4c0,0.3-0.2,0.6-0.6,0.6c-0.3,0-0.6-0.2-0.6-0.5c0-0.3,0.2-0.6,0.6-0.6C69.9,58.8,70.1,59,70.2,59.4"></path><path class="st16" d="M72.8,63c0,0.3-0.2,0.6-0.6,0.6c-0.3,0-0.6-0.2-0.6-0.5c0-0.3,0.2-0.6,0.6-0.6C72.5,62.4,72.8,62.7,72.8,63"></path><path class="st16" d="M74.2,58.6c0,0.3-0.2,0.6-0.5,0.6c-0.3,0-0.6-0.2-0.6-0.5c0-0.3,0.2-0.6,0.5-0.6C73.9,58,74.2,58.3,74.2,58.6"></path><path class="st16" d="M78.1,56.8c0,0.3-0.2,0.6-0.5,0.6c-0.3,0-0.6-0.2-0.6-0.5c0-0.3,0.2-0.6,0.5-0.6
	C77.8,56.2,78.1,56.5,78.1,56.8"></path><path class="st16" d="M76.6,58.7c0,0.3-0.2,0.6-0.6,0.6c-0.3,0-0.6-0.2-0.6-0.5c0-0.3,0.2-0.6,0.6-0.6
	C76.3,58.1,76.6,58.3,76.6,58.7"></path><path class="st16" d="M74.9,61.5c0,0.3-0.2,0.6-0.6,0.6c-0.3,0-0.6-0.2-0.6-0.5c0-0.3,0.2-0.6,0.6-0.6C74.6,61,74.9,61.2,74.9,61.5"></path><path class="st17" d="M70.8,56.6c0,0.3-0.2,0.6-0.6,0.6c-0.3,0-0.6-0.2-0.6-0.5c0-0.3,0.2-0.6,0.6-0.6C70.5,56,70.8,56.2,70.8,56.6"></path><path class="st17" d="M72.1,55c0,0.3-0.2,0.6-0.6,0.6c-0.3,0-0.6-0.2-0.6-0.5c0-0.3,0.2-0.6,0.6-0.6C71.7,54.5,72,54.7,72.1,55"></path><path class="st17" d="M75.5,54.3c0,0.3-0.2,0.6-0.6,0.6c-0.3,0-0.6-0.2-0.6-0.5c0-0.3,0.2-0.6,0.6-0.6C75.2,53.7,75.5,54,75.5,54.3"></path><path class="st17" d="M74.8,56.5c0,0.3-0.2,0.6-0.6,0.6c-0.3,0-0.6-0.2-0.6-0.5c0-0.3,0.2-0.6,0.6-0.6
	C74.5,55.9,74.8,56.1,74.8,56.5"></path><path class="st17" d="M73.3,57.9c0,0.3-0.2,0.6-0.6,0.6c-0.3,0-0.6-0.2-0.6-0.5c0-0.3,0.2-0.6,0.6-0.6C73,57.3,73.3,57.6,73.3,57.9"></path><path class="st17" d="M72.9,60.5c0,0.3-0.2,0.6-0.6,0.6c-0.3,0-0.6-0.2-0.6-0.5c0-0.3,0.2-0.6,0.6-0.6
	C72.6,59.9,72.9,60.1,72.9,60.5"></path><path class="st17" d="M79.6,58.2c0,0.3-0.2,0.6-0.6,0.6c-0.3,0-0.6-0.2-0.6-0.5c0-0.3,0.2-0.6,0.6-0.6
	C79.3,57.6,79.6,57.8,79.6,58.2"></path><path class="st17" d="M76.9,56.9c0,0.3-0.2,0.6-0.6,0.6c-0.3,0-0.6-0.2-0.6-0.5c0-0.3,0.2-0.6,0.6-0.6
	C76.6,56.3,76.9,56.6,76.9,56.9"></path><path class="st17" d="M77.3,54.7c0,0.3-0.2,0.6-0.6,0.6c-0.3,0-0.6-0.2-0.6-0.5c0-0.3,0.2-0.6,0.6-0.6C77,54.1,77.3,54.4,77.3,54.7"></path><path class="st17" d="M76.9,60.3c0,0.3-0.2,0.6-0.5,0.6c-0.3,0-0.6-0.2-0.6-0.5c0-0.3,0.2-0.6,0.5-0.6C76.6,59.8,76.8,60,76.9,60.3"></path><path class="st17" d="M77.9,62c0,0.3-0.2,0.6-0.6,0.6c-0.3,0-0.6-0.2-0.6-0.5c0-0.3,0.2-0.6,0.6-0.6C77.6,61.5,77.9,61.7,77.9,62"></path><path class="st17" d="M72,58.9c0,0.3-0.2,0.6-0.6,0.6c-0.3,0-0.6-0.2-0.6-0.5c0-0.3,0.2-0.6,0.6-0.6C71.7,58.4,71.9,58.6,72,58.9"></path><path class="st19" d="M71.1,61c0,0.3-0.2,0.6-0.5,0.6c-0.3,0-0.6-0.2-0.6-0.5c0-0.3,0.2-0.6,0.5-0.6C70.8,60.5,71.1,60.7,71.1,61"></path><path class="st19" d="M71.9,57.7c0,0.3-0.2,0.6-0.5,0.6s-0.6-0.2-0.6-0.5c0-0.3,0.2-0.6,0.6-0.6C71.6,57.1,71.9,57.3,71.9,57.7"></path><path class="st19" d="M73.6,55.5c0,0.3-0.2,0.6-0.5,0.6c-0.3,0-0.6-0.2-0.6-0.5c0-0.3,0.2-0.6,0.5-0.6
	C73.2,54.9,73.5,55.1,73.6,55.5"></path><path class="st19" d="M75,60.2c0,0.3-0.2,0.6-0.6,0.6c-0.3,0-0.6-0.2-0.6-0.5c0-0.3,0.2-0.6,0.6-0.6C74.7,59.6,75,59.9,75,60.2"></path><path class="st19" d="M76.4,63.3c0,0.3-0.2,0.6-0.5,0.6c-0.3,0-0.6-0.2-0.6-0.5c0-0.3,0.2-0.6,0.5-0.6C76.1,62.7,76.4,63,76.4,63.3"></path><path class="st19" d="M78.2,59.1c0,0.3-0.2,0.6-0.6,0.6c-0.3,0-0.6-0.2-0.6-0.5c0-0.3,0.2-0.6,0.6-0.6
	C77.9,58.5,78.2,58.7,78.2,59.1"></path><path class="st19" d="M75.9,55.8c0,0.3-0.2,0.6-0.6,0.6c-0.3,0-0.6-0.2-0.6-0.5c0-0.3,0.2-0.6,0.6-0.6
	C75.6,55.2,75.9,55.5,75.9,55.8"></path><path class="st19" d="M75.6,57.9c0,0.3-0.2,0.6-0.6,0.6c-0.3,0-0.6-0.2-0.6-0.5c0-0.3,0.2-0.6,0.6-0.6
	C75.3,57.3,75.5,57.6,75.6,57.9"></path><path class="st19" d="M73.6,53.4c0,0.3-0.2,0.6-0.6,0.6c-0.3,0-0.6-0.2-0.6-0.5c0-0.3,0.2-0.6,0.6-0.6
	C73.3,52.8,73.5,53.1,73.6,53.4"></path><path class="st19" d="M79.8,60.5c0,0.3-0.2,0.6-0.5,0.6c-0.3,0-0.6-0.2-0.6-0.5c0-0.3,0.2-0.6,0.5-0.6C79.5,60,79.7,60.2,79.8,60.5"></path><path class="st19" d="M73.9,64.2c0,0.3-0.2,0.6-0.5,0.6c-0.3,0-0.6-0.2-0.6-0.5c0-0.3,0.2-0.6,0.5-0.6
	C73.6,63.7,73.9,63.9,73.9,64.2"></path><path class="st19" d="M71.5,63.3c0,0.3-0.2,0.6-0.5,0.6c-0.3,0-0.6-0.2-0.6-0.5c0-0.3,0.2-0.6,0.5-0.6
	C71.1,62.7,71.4,62.9,71.5,63.3"></path><path class="st20" d="M75.8,63.7c0.3,0,0.6,0.3,0.6,0.6c0,0.3-0.3,0.6-0.6,0.6c-0.3,0-0.6-0.3-0.6-0.6
	C75.2,63.9,75.5,63.6,75.8,63.7"></path><path class="st20" d="M74.1,63.9c0.3,0,0.6,0.3,0.6,0.6c0,0.3-0.3,0.6-0.6,0.6c-0.3,0-0.6-0.3-0.6-0.6
	C73.5,64.1,73.8,63.9,74.1,63.9"></path><path class="st20" d="M72.2,63.8c0.3,0,0.6,0.3,0.6,0.6c0,0.3-0.3,0.6-0.6,0.6c-0.3,0-0.6-0.3-0.6-0.6
	C71.6,64.1,71.9,63.8,72.2,63.8"></path><path class="st20" d="M70.7,62.8c0.3,0,0.6,0.3,0.6,0.6c0,0.3-0.3,0.6-0.6,0.6c-0.3,0-0.6-0.3-0.6-0.6
	C70.1,63.1,70.4,62.8,70.7,62.8"></path><path class="st20" d="M69.4,60.9c0.3,0,0.6,0.3,0.6,0.6c0,0.3-0.3,0.6-0.6,0.6c-0.3,0-0.6-0.3-0.6-0.6
	C68.8,61.2,69.1,60.9,69.4,60.9"></path><path class="st20" d="M68.5,58.8c0.3,0,0.6,0.3,0.6,0.6c0,0.3-0.3,0.6-0.6,0.6c-0.3,0-0.6-0.3-0.6-0.6
	C67.9,59.1,68.2,58.8,68.5,58.8"></path><path class="st20" d="M69.2,57.1c0.3,0,0.6,0.3,0.6,0.6c0,0.3-0.3,0.6-0.6,0.6c-0.3,0-0.6-0.3-0.6-0.6
	C68.6,57.4,68.9,57.1,69.2,57.1"></path><path class="st20" d="M68.8,56.1c0.3,0,0.6,0.3,0.6,0.6c0,0.3-0.3,0.6-0.6,0.6c-0.3,0-0.6-0.3-0.6-0.6
	C68.2,56.3,68.5,56.1,68.8,56.1"></path><path class="st20" d="M76.8,53.1c0.3,0,0.6,0.3,0.6,0.6c0,0.3-0.3,0.6-0.6,0.6c-0.3,0-0.6-0.3-0.6-0.6
	C76.2,53.4,76.5,53.1,76.8,53.1"></path><path class="st20" d="M78.1,54.6c0.3,0,0.6,0.3,0.6,0.6c0,0.3-0.3,0.6-0.6,0.6c-0.3,0-0.6-0.3-0.6-0.6
	C77.5,54.9,77.8,54.6,78.1,54.6"></path><path class="st20" d="M79.5,56.6c0.3,0,0.6,0.3,0.6,0.6c0,0.3-0.3,0.6-0.6,0.6c-0.3,0-0.6-0.3-0.6-0.6
	C78.9,56.9,79.1,56.6,79.5,56.6"></path><path class="st20" d="M79.7,59c0.3,0,0.6,0.3,0.6,0.6c0,0.3-0.3,0.6-0.6,0.6c-0.3,0-0.6-0.3-0.6-0.6C79.1,59.2,79.3,59,79.7,59"></path><path class="st20" d="M79,61.1c0.3,0,0.6,0.3,0.6,0.6c0,0.3-0.3,0.6-0.6,0.6c-0.3,0-0.6-0.3-0.6-0.6C78.4,61.3,78.7,61.1,79,61.1"></path><path class="st20" d="M77.8,62.2c0.3,0,0.6,0.3,0.6,0.6c0,0.3-0.3,0.6-0.6,0.6c-0.3,0-0.6-0.3-0.6-0.6
	C77.2,62.5,77.4,62.2,77.8,62.2"></path><path class="st20" d="M75.6,61.3c0.3,0,0.6,0.3,0.6,0.6c0,0.3-0.3,0.6-0.6,0.6c-0.3,0-0.6-0.3-0.6-0.6C75,61.6,75.2,61.3,75.6,61.3"></path><path class="st20" d="M74,60.6c0.3,0,0.6,0.3,0.6,0.6c0,0.3-0.3,0.6-0.6,0.6c-0.3,0-0.6-0.3-0.6-0.6C73.4,60.8,73.7,60.5,74,60.6"></path><path class="st20" d="M73,61.5c0.3,0,0.6,0.3,0.6,0.6c0,0.3-0.3,0.6-0.6,0.6c-0.3,0-0.6-0.3-0.6-0.6C72.4,61.7,72.7,61.5,73,61.5"></path><path class="st20" d="M70.6,60.1c0.3,0,0.6,0.3,0.6,0.6c0,0.3-0.3,0.6-0.6,0.6c-0.3,0-0.6-0.3-0.6-0.6C70,60.4,70.2,60.1,70.6,60.1"></path><path class="st20" d="M71.2,57.5c0.3,0,0.6,0.3,0.6,0.6c0,0.3-0.3,0.6-0.6,0.6c-0.3,0-0.6-0.3-0.6-0.6
	C70.6,57.7,70.9,57.5,71.2,57.5"></path><path class="st20" d="M73.5,55c0.3,0,0.6,0.3,0.6,0.6c0,0.3-0.3,0.6-0.6,0.6c-0.3,0-0.6-0.3-0.6-0.6C72.9,55.2,73.2,55,73.5,55"></path><path class="st20" d="M74.8,56.8c0.3,0,0.6,0.3,0.6,0.6c0,0.3-0.3,0.6-0.6,0.6c-0.3,0-0.6-0.3-0.6-0.6C74.2,57,74.4,56.8,74.8,56.8"></path><path class="st20" d="M76.8,56.2c0.3,0,0.6,0.3,0.6,0.6c0,0.3-0.3,0.6-0.6,0.6c-0.3,0-0.6-0.3-0.6-0.6
	C76.2,56.5,76.5,56.2,76.8,56.2"></path><path class="st20" d="M76.3,58.9c0.3,0,0.6,0.3,0.6,0.6c0,0.3-0.3,0.6-0.6,0.6c-0.3,0-0.6-0.3-0.6-0.6C75.7,59.2,76,58.9,76.3,58.9"></path><path class="st10" d="M32.3,73.9c0,0-8.1-2.9-8.9-3.4C22.6,70,22,69.8,22,69.2c0-0.6,0.1-1.2,0.1-1.2s0.7-0.7,1.3-0.7s4,1.4,4.7,1.7
	s4.6,2.8,4.7,2.9s1.2,1.6,1.3,1.7S32.3,73.9,32.3,73.9z"></path><path class="st11" d="M40.4,72.7c0,0,4.5-3.3,5-4.1c0.6-0.7,2.1-3.2,2.7-4.4c0.5-1.2,1.1-2.2,0.9-2.7c-0.2-0.6-0.2-0.6-1-1.2
	c-0.8-0.6-1.4-0.8-2.5-0.1c-1.1,0.7-2.8,2.5-3.8,4.3c-1,1.9-1.9,4.3-2.2,4.9c-0.4,0.6-1,2-1,2L40.4,72.7z"></path><path class="st10" d="M37.4,71.3c0,0-1.1-9.5-1-10.5c0.2-1,0.4-1.3,0.8-1.7c0.4-0.4,0.5-0.8,0.8-0.9c0.3-0.1,0.4,0,0.6,0.3
	s0.2,0.3,0.2,0.3s0.6-0.4,1,0.2c0.4,0.6,0.1,0.9,0.3,1.9c0.1,1,0.8,5.5,0.6,6s0,1.1-0.2,1.7s-0.9,1.9-0.9,1.9l-1.7,2.3L37.4,71.3z"></path><path class="st12" d="M35.3,71.1c0.1-0.2-3.4-8-3.6-9.2s-0.3-2.4-0.1-2.9c0.3-0.5,1-1.2,1.4-1c0.4,0.2,1,0.5,1.3,0.8
	s1.9,4.7,2.3,5.8c0.4,1.1,0.3,3.3,0.4,4.1c0.1,0.9,0.3,2.4,0.3,2.4L35.3,71.1z"></path><path class="st10" d="M35.6,70.5c0,0-0.8-3.9-1.6-4.9c-0.8-1.1-4-4.7-4.2-4.8c-0.3-0.1-1-0.8-1.4-0.4c-0.4,0.3-0.7,0.6-0.7,0.8
	c0,0.2-0.5,0.5-0.3,1.4s1.2,3,1.8,3.4c0.6,0.4,4.7,4.2,4.9,4.7s1.5,1.5,1.5,1.5L35.6,70.5z"></path><path class="st11" d="M34.5,73c0,0-4.4-4.1-5.5-4.8c-1.1-0.7-3.5-3.4-3.8-3.8s-0.7-0.9-0.4-1.2c0.3-0.3,1.4-0.3,1.4-0.3
	s-0.3-0.5,0-0.7c0.3-0.2,1.1-0.2,1.1-0.2s1.8,1,2.2,1.3c0.3,0.3,3,3.2,3.3,3.8c0.3,0.7,2.1,4.2,2.2,4.5C35.2,71.9,34.5,73,34.5,73z"></path><path class="st11" d="M40.8,77.1c0,0,7.6,3.3,8.6,4c1,0.6,4.5,0.9,4.8,1c0.3,0.1,0.5,0,0.7-0.4c0.2-0.4,0.2-1,0.3-1.1
	c0.1,0,0-1.1-1.8-2c-1.8-0.9-9.9-3.2-10.8-3.3c-0.9-0.2-3,0.1-3,0.1L40.8,77.1z"></path><path class="st10" d="M41.4,76.2c0,0,3.4,1,4,1.2s2.3,0.6,3.2,0.2c0.9-0.4,4.9-0.2,5.3-0.2c0.4-0.1,0.8-0.2,0.9-0.4
	c0.1-0.3,0-0.6,0.1-0.8c0.2-0.2,0.4-0.2,0-0.7c-0.4-0.5-1.7-0.8-2.6-1.2c-0.9-0.4-6.1-1-7.3-1.1c-1.2-0.1-3.6,0.5-4.2,0.5
	c-0.7,0-1.6,0.1-1.8,0.5C38.8,74.6,41.4,76.2,41.4,76.2z"></path><path class="st12" d="M38,75.1c0,0,4.6-4.1,5.7-5c1.1-0.9,7.9-3.9,8.4-3.7c0.5,0.2,1.2,0.1,1.1,0.5c-0.1,0.4-0.1,0.5,0.1,0.6
	c0.2,0.1,0.5,0.2,0.3,0.6c-0.1,0.4-0.2,0.5-0.3,0.7c-0.1,0.2-0.3,0.3-0.3,0.6c0.1,0.3,0.6,0.3,0.4,0.8c-0.2,0.5-0.1,1-0.9,1.3
	s-3.6,1-4.5,1.3c-0.9,0.3-2.3,1.1-3,1.3c-0.7,0.2-3.4,1-3.8,0.8S38,75.1,38,75.1z"></path><path class="st10" d="M39.9,79.6c0,0,3.3,5.7,4,6s3.5,1.7,3.7,1.7c0.2,0,0.9,0.8,1.3,0.6c0.4-0.2,0.5-0.2,0.5-0.3s0.1-0.2,0.4-0.3
	c0.2-0.2,0.3-0.5,0.2-0.9c-0.1-0.4-1-1.9-1.3-2.4c-0.3-0.5-5.2-4.6-5.7-4.9c-0.6-0.3-2.7-1.4-2.7-1.4l-1.5,0.5L39.9,79.6z"></path><path class="st12" d="M40.6,78.5c0,0,2.4,2.6,2.9,3.1c0.5,0.4,4,2.7,4.3,2.8c0.3,0.1,1.7,0.8,1.9,0.6c0.1-0.2,0.1-0.4,0.1-0.7
	c0-0.2,0.3-0.2,0.4-0.4c0.1-0.2,0.4-0.2,0.3-0.7c-0.1-0.5-0.5-1.4-0.6-1.5c-0.1-0.2-5.9-4-6.2-4.1c-0.3-0.1-3.3-1.3-3.3-1.3l-2,0.8
	L40.6,78.5z"></path><path class="st10" d="M37.8,80.5c0,0,1.7,9.3,1.8,9.5c0.1,0.3,0.8,0.8,1.2,0.8c0.4,0.1,0.7-0.2,0.9-0.3c0.2-0.1,0.5-0.3,0.4-0.9
	c-0.1-0.6-0.3-3.5-0.3-3.8c-0.1-0.3-1.5-3.2-1.6-3.5c-0.1-0.2-0.8-3.5-0.8-3.5L37.8,80.5z"></path><path class="st12" d="M38,78.8c0,0,2,4.2,2.2,4.5c0.2,0.3,2.3,3.1,2.8,3.6c0.4,0.5,1.6,1.7,2,1.8c0.4,0.1,0.4,0.1,0.5-0.1
	c0.1-0.2,0.2-0.4,0.2-0.4s0,0.2,0.3-0.2c0.3-0.4,0.3-1.3,0.2-1.3c-0.1,0-1.6-2.4-1.8-2.8s-2.9-3.8-3.3-4.2c-0.3-0.3-1.7-1.9-1.7-1.9
	L38,78.8z"></path><path class="st10" d="M35.9,79.5c-0.1,0.1-1.9,5.5-2,6.2c-0.1,0.6,0.3,2.2,0.2,3.2c-0.1,1-0.1,1.6,0,2s0.1,0.5,0.4,0.5
	s0.5-0.4,0.5-0.4s0,0.4,0.3,0.3s0.4-0.1,0.7-0.6S36,91,36.9,88.5c1-2.5,0.2-6.2,0.2-6.4c0-0.2,0.2-3,0.2-3L35.9,79.5z"></path><path class="st11" d="M36.9,79.6c-0.2,0.5-0.9,2.9-1,3.1c0,0.3,0.8,3.6,0.8,4.3c0,0.7,0,1.7,0.1,2.2s-0.1,0.8,0.2,0.9
	c0.4,0.1,0.4,0.5,0.5,0.2c0.2-0.2,0.7-0.7,0.7-0.7s0.1,0.5,0.3,0.5c0.2,0,0.3,0.1,0.5-0.3s0.2-5.5,0.4-6.2c0.1-0.7-0.3-3.7-0.4-3.9
	c-0.1-0.2-1-1.5-1-1.5L36.9,79.6z"></path><path class="st10" d="M34.1,77.5c0,0-5.4,5.5-5.9,6.3c-0.5,0.8-2.1,3.4-2,3.7c0.1,0.4,0.2,0.7,0.4,0.8c0.1,0.1,0.6,0.1,0.6,0.1
	s-0.1,0.4,0.2,0.3c0.3-0.1,1.2-0.5,1.6-0.9s2.5-3.8,3-4.7c0.5-0.9,2.5-4.2,2.8-4.4c0.2-0.3,0.5-0.6,0.8-1.2
	C36,76.9,34.1,77.5,34.1,77.5z"></path><path class="st12" d="M35.9,78.4c-0.1,0-3.2,2.7-3.7,3.4c-0.5,0.8-1.4,2.6-1.5,3.3c-0.1,0.6-0.2,1.9,0,2.3c0.2,0.4,0.4,0.5,0.6,0.5
	c0.2,0,1.5-0.5,2-0.9c0.4-0.4,1.1-1.1,1.6-2.2c0.5-1,0.9-3,1.1-3.7s0.5-2,0.5-2l0.1-0.7L35.9,78.4z"></path><path class="st10" d="M33.5,76.3c0,0-6,2.3-7.4,2.9c-1.4,0.6-3.5,2-3.8,2.4s-0.3,0.7-0.2,0.8s0.4,0.5,0.4,0.6s0,0.4,0.3,0.5
	c0.2,0.1,0.4,0.4,1.2,0.1c0.9-0.2,5.1-2.7,5.2-2.9c0.1-0.2,5.2-3.9,5.2-3.9L33.5,76.3z"></path><path class="st12" d="M34.9,76.2c0,0-4.3,2.1-5.8,3.1c-1.6,1-3.5,1.9-4.4,2.8c-0.9,0.9-1.4,1.2-1.5,1.8s-0.2,0.7,0,0.9
	c0.2,0.2,0.2,0.3,0.4,0.5c0.2,0.1,0.7,0.5,1,0.5c0.3,0,4.4-1.4,6.1-3.1c1.7-1.7,3.7-4,3.8-4.2c0.1-0.1,0.9-1.5,0.9-1.5L34.9,76.2z"></path><path class="st11" d="M33.4,74.5c0,0-4.8-1.4-5.2-1.4c-0.4,0.1-3.8,0.3-4.3,0.3s-1.9,0.3-2.3,0.7s-0.9,0.9-0.9,1.2
	c0,0.3,0,0.4,0.5,0.7c0.5,0.3,4.4,0.8,4.6,0.8s2.6,0,2.9,0c0.3,0,2.2-0.5,2.4-0.5c0.2-0.1,1.6-0.4,1.8-0.5s0.8-0.6,0.8-0.6
	L33.4,74.5z"></path><path class="st13" d="M40.5,70.5C40.5,70.5,40.5,70.5,40.5,70.5c-0.1,0-0.2,0-0.2,0c-0.1,0-0.2,0-0.3,0.1c-0.1-0.2-0.3-0.4-0.5-0.4
	c-0.1,0-0.2,0.1-0.3,0.1c0,0,0,0,0,0c0-0.3-0.3-0.5-0.5-0.5c-0.1,0-0.3,0.1-0.3,0.2c-0.1-0.2-0.3-0.3-0.5-0.3
	c-0.2,0-0.3,0.1-0.4,0.3c-0.1-0.2-0.3-0.3-0.5-0.3c-0.3,0-0.5,0.3-0.5,0.5c0,0.1,0.1,0.2,0.1,0.3c0,0,0,0,0,0.1c0,0,0,0-0.1,0
	c0,0,0,0,0-0.1c0-0.3-0.3-0.5-0.5-0.5c-0.3,0-0.5,0.3-0.5,0.5c0,0,0,0,0,0.1c-0.1,0-0.2,0-0.3,0.1c-0.1,0-0.2-0.1-0.3-0.1
	c-0.3,0-0.5,0.3-0.5,0.5c0,0.2,0.1,0.3,0.2,0.4c-0.1,0.1-0.1,0.1-0.2,0.2c-0.1-0.2-0.3-0.3-0.5-0.2c-0.3,0-0.5,0.3-0.5,0.5
	c0,0.1,0,0.1,0.1,0.2c-0.1,0-0.3,0.1-0.4,0.2c-0.1,0.1-0.1,0.2-0.1,0.4c-0.2,0.1-0.4,0.3-0.3,0.5c0,0.1,0,0.1,0.1,0.2
	c-0.2,0.1-0.3,0.3-0.3,0.5c0,0.1,0,0.2,0.1,0.3c-0.1,0.1-0.1,0.2-0.1,0.4c-0.1,0.1-0.2,0.3-0.2,0.5c0,0.3,0.2,0.5,0.5,0.5
	c0,0,0,0,0,0c0,0,0,0,0,0c-0.3,0-0.5,0.3-0.5,0.5c0,0.3,0.3,0.5,0.5,0.5c0.1,0,0.3-0.1,0.3-0.2c0,0.1,0,0.1,0.1,0.2
	C33.1,76.8,33,77,33,77.3c0,0.3,0.3,0.5,0.5,0.5c-0.2,0-0.4,0.2-0.4,0.4c0,0.3,0.2,0.5,0.4,0.6c0,0,0.1,0,0.1,0
	c0.1,0.2,0.3,0.3,0.5,0.3c0,0,0,0,0,0.1c0,0.3,0.2,0.5,0.5,0.5c0.1,0.2,0.3,0.4,0.5,0.3c0,0,0,0,0.1,0c0,0.3,0.3,0.5,0.5,0.4
	c0.1,0,0.1,0,0.2,0c0.1,0.2,0.3,0.4,0.5,0.4c0.1,0,0.1,0,0.1,0c0.1,0.2,0.3,0.4,0.5,0.3c0.2,0,0.3-0.1,0.4-0.3
	c0.1,0.1,0.3,0.2,0.4,0.2c0.2,0,0.3-0.1,0.4-0.2c0.1,0.1,0.3,0.2,0.4,0.2c0.1,0,0.3-0.1,0.3-0.2c0.1,0.1,0.2,0.1,0.3,0.1
	c0.2,0,0.3-0.1,0.4-0.3c0.1,0,0.2,0.1,0.3,0c0.2,0,0.4-0.2,0.4-0.4c0.1,0,0.2,0.1,0.3,0.1c0.3,0,0.5-0.3,0.5-0.5c0,0,0,0,0-0.1
	c0.1,0,0.2,0.1,0.3,0.1c0.3,0,0.5-0.3,0.5-0.5c0,0,0,0,0-0.1c0,0,0,0,0,0c0.3,0,0.5-0.3,0.5-0.5c0,0,0,0,0,0c0.2,0,0.4-0.3,0.4-0.5
	c0,0,0,0,0,0c0.3,0,0.5-0.3,0.4-0.5c0-0.2-0.1-0.3-0.2-0.4c0,0,0,0,0,0c0.3,0,0.5-0.3,0.5-0.5c0-0.2-0.1-0.3-0.2-0.4c0,0,0,0,0-0.1
	c0.2-0.1,0.3-0.3,0.3-0.5c0-0.2-0.2-0.4-0.3-0.4c0.2-0.1,0.4-0.3,0.4-0.5c0-0.2-0.2-0.4-0.4-0.4c0-0.1,0.1-0.2,0.1-0.3
	c0-0.3-0.3-0.5-0.5-0.5c-0.1,0-0.1,0-0.2,0c0.1,0,0.1-0.1,0.2-0.2c0.2-0.2,0.1-0.5-0.1-0.7c-0.1,0-0.1-0.1-0.2-0.1
	c0-0.1,0.1-0.2,0.1-0.3c0-0.3-0.3-0.5-0.5-0.5c-0.1,0-0.1,0-0.2,0c0-0.1,0-0.1,0-0.2c0-0.3-0.3-0.5-0.5-0.5c-0.1,0-0.1,0-0.2,0.1
	c0-0.1,0-0.1,0-0.2C41,70.6,40.8,70.4,40.5,70.5 M37.4,70.4C37.4,70.4,37.4,70.4,37.4,70.4L37.4,70.4C37.4,70.4,37.4,70.4,37.4,70.4
	"></path><path class="st14" d="M39.5,70.8c2.5,1.1,3.6,4.1,2.4,6.5s-4.1,3.6-6.5,2.4c-2.5-1.1-3.6-4.1-2.4-6.5C34.1,70.8,37.1,69.7,39.5,70.8
	"></path><path class="st15" d="M33.5,78.2c0,0.3-0.3,0.5-0.6,0.4c-0.3,0-0.5-0.3-0.4-0.6c0-0.3,0.3-0.5,0.6-0.4C33.4,77.7,33.6,78,33.5,78.2"></path><path class="st15" d="M33.5,77.1c0,0.3-0.2,0.5-0.5,0.5c-0.3,0-0.5-0.2-0.5-0.5s0.2-0.5,0.5-0.5C33.2,76.7,33.4,76.9,33.5,77.1"></path><path class="st15" d="M35,75.4c0,0.3-0.2,0.5-0.5,0.5c-0.3,0-0.5-0.2-0.5-0.5c0-0.3,0.2-0.5,0.5-0.5C34.8,74.9,35,75.1,35,75.4"></path><path class="st15" d="M35.8,73.1c0,0.3-0.2,0.5-0.5,0.5c-0.3,0-0.5-0.2-0.5-0.5c0-0.3,0.2-0.5,0.5-0.5
	C35.6,72.6,35.8,72.8,35.8,73.1"></path><path class="st16" d="M35.6,74c0,0.3-0.2,0.5-0.5,0.5c-0.3,0-0.5-0.2-0.5-0.5c0-0.3,0.2-0.5,0.5-0.5C35.3,73.5,35.5,73.7,35.6,74"></path><path class="st16" d="M33,74.7c0,0.3-0.2,0.5-0.5,0.5c-0.3,0-0.5-0.2-0.5-0.5c0-0.3,0.2-0.5,0.5-0.5C32.7,74.2,33,74.4,33,74.7"></path><path class="st15" d="M37.9,72.4c0,0.3-0.2,0.5-0.5,0.5c-0.3,0-0.5-0.2-0.5-0.5c0-0.3,0.2-0.5,0.5-0.5
	C37.6,71.9,37.9,72.1,37.9,72.4"></path><path class="st15" d="M39.1,73.4c0,0.3-0.2,0.5-0.5,0.5c-0.3,0-0.5-0.2-0.5-0.5s0.2-0.5,0.5-0.5C38.9,72.9,39.1,73.1,39.1,73.4"></path><path class="st15" d="M38.6,75.2c0,0.3-0.2,0.5-0.5,0.5c-0.3,0-0.5-0.2-0.5-0.5c0-0.3,0.2-0.5,0.5-0.5
	C38.3,74.7,38.6,74.9,38.6,75.2"></path><path class="st15" d="M37.2,77.3c0,0.3-0.2,0.5-0.5,0.5c-0.3,0-0.5-0.2-0.5-0.5c0-0.3,0.2-0.5,0.5-0.5C36.9,76.8,37.1,77,37.2,77.3"></path><path class="st15" d="M35.8,76.7c0,0.3-0.2,0.5-0.5,0.5c-0.3,0-0.5-0.2-0.5-0.5s0.2-0.5,0.5-0.5C35.6,76.2,35.8,76.4,35.8,76.7"></path><path class="st15" d="M36.2,78.1c0,0.3-0.2,0.5-0.5,0.5c-0.3,0-0.5-0.2-0.5-0.5s0.2-0.5,0.5-0.5C35.9,77.6,36.1,77.8,36.2,78.1"></path><path class="st15" d="M38.6,78.4c0,0.3-0.2,0.5-0.5,0.5c-0.3,0-0.5-0.2-0.5-0.5c0-0.3,0.2-0.5,0.5-0.5
	C38.3,77.9,38.5,78.1,38.6,78.4"></path><path class="st15" d="M39.8,77.8c0,0.3-0.2,0.5-0.5,0.5c-0.3,0-0.5-0.2-0.5-0.5c0-0.3,0.2-0.5,0.5-0.5
	C39.5,77.3,39.7,77.5,39.8,77.8"></path><path class="st15" d="M40.8,76.8c0,0.3-0.2,0.5-0.5,0.5c-0.3,0-0.5-0.2-0.5-0.5c0-0.3,0.2-0.5,0.5-0.5
	C40.6,76.3,40.8,76.5,40.8,76.8"></path><path class="st15" d="M40.5,74.5c0,0.3-0.2,0.5-0.5,0.5c-0.3,0-0.5-0.2-0.5-0.5c0-0.3,0.2-0.5,0.5-0.5C40.2,74,40.5,74.2,40.5,74.5"></path><path class="st15" d="M40.2,72.7c0,0.3-0.2,0.5-0.5,0.5c-0.3,0-0.5-0.2-0.5-0.5s0.2-0.5,0.5-0.5C39.9,72.2,40.2,72.4,40.2,72.7"></path><path class="st15" d="M37.6,73.8c0,0.3-0.2,0.5-0.5,0.5c-0.3,0-0.5-0.2-0.5-0.5c0-0.3,0.2-0.5,0.5-0.5
	C37.3,73.3,37.6,73.5,37.6,73.8"></path><path class="st15" d="M36.9,73c0,0.3-0.2,0.5-0.5,0.5c-0.3,0-0.5-0.2-0.5-0.5c0-0.3,0.2-0.5,0.5-0.5C36.6,72.5,36.9,72.7,36.9,73"></path><path class="st15" d="M34.9,72.6c0,0.3-0.2,0.5-0.5,0.5c-0.3,0-0.5-0.2-0.5-0.5s0.2-0.5,0.5-0.5C34.6,72.1,34.8,72.3,34.9,72.6"></path><path class="st15" d="M37.6,71.2c0,0.3-0.2,0.5-0.5,0.5c-0.3,0-0.5-0.2-0.5-0.5c0-0.3,0.2-0.5,0.5-0.5
	C37.4,70.7,37.6,70.9,37.6,71.2"></path><path class="st15" d="M39.5,71.8c0,0.3-0.2,0.5-0.5,0.5c-0.3,0-0.5-0.2-0.5-0.5c0-0.3,0.2-0.5,0.5-0.5
	C39.2,71.3,39.4,71.5,39.5,71.8"></path><path class="st15" d="M41.7,73.2c0,0.3-0.2,0.5-0.5,0.5c-0.3,0-0.5-0.2-0.5-0.5c0-0.3,0.2-0.5,0.5-0.5
	C41.4,72.7,41.7,72.9,41.7,73.2"></path><path class="st15" d="M41.9,75.8c0,0.3-0.2,0.5-0.5,0.5c-0.3,0-0.5-0.2-0.5-0.5c0-0.3,0.2-0.5,0.5-0.5
	C41.6,75.3,41.8,75.5,41.9,75.8"></path><path class="st15" d="M39.2,76c0,0.3-0.2,0.5-0.5,0.5c-0.3,0-0.5-0.2-0.5-0.5s0.2-0.5,0.5-0.5C38.9,75.5,39.2,75.8,39.2,76"></path><path class="st15" d="M35,77.7c0,0.3-0.2,0.5-0.5,0.5c-0.3,0-0.5-0.2-0.5-0.5c0-0.3,0.2-0.5,0.5-0.5C34.7,77.2,35,77.4,35,77.7"></path><path class="st15" d="M37.8,79c0,0.3-0.2,0.5-0.5,0.5c-0.3,0-0.5-0.2-0.5-0.5c0-0.3,0.2-0.5,0.5-0.5C37.5,78.5,37.8,78.7,37.8,79"></path><path class="st15" d="M36.5,75.2c0,0.3-0.2,0.5-0.5,0.5c-0.3,0-0.5-0.2-0.5-0.5s0.2-0.5,0.5-0.5C36.3,74.7,36.5,74.9,36.5,75.2"></path><path class="st15" d="M34.5,74.2c0,0.3-0.2,0.5-0.5,0.5c-0.3,0-0.5-0.2-0.5-0.5s0.2-0.5,0.5-0.5C34.2,73.7,34.5,73.9,34.5,74.2"></path><path class="st15" d="M32.8,76.2c0,0.3-0.2,0.5-0.5,0.5c-0.3,0-0.5-0.2-0.5-0.5s0.2-0.5,0.5-0.5C32.6,75.7,32.8,75.9,32.8,76.2"></path><path class="st15" d="M32.8,75.1c0,0.3-0.2,0.5-0.5,0.5c-0.3,0-0.5-0.2-0.5-0.5c0-0.3,0.2-0.5,0.5-0.5
	C32.5,74.7,32.8,74.9,32.8,75.1"></path><path class="st15" d="M33,74.1c0,0.3-0.2,0.5-0.5,0.5c-0.3,0-0.5-0.2-0.5-0.5c0-0.3,0.2-0.5,0.5-0.5C32.8,73.6,33,73.8,33,74.1"></path><path class="st15" d="M33.3,73.3c0,0.3-0.2,0.5-0.5,0.5c-0.3,0-0.5-0.2-0.5-0.5s0.2-0.5,0.5-0.5C33,72.9,33.2,73.1,33.3,73.3"></path><path class="st17" d="M34,72.1c0,0.3-0.2,0.5-0.5,0.5c-0.3,0-0.5-0.2-0.5-0.5s0.2-0.5,0.5-0.5C33.8,71.6,34,71.8,34,72.1"></path><path class="st15" d="M34.9,71.2c0,0.3-0.2,0.5-0.5,0.5c-0.3,0-0.5-0.2-0.5-0.5s0.2-0.5,0.5-0.5C34.6,70.7,34.9,70.9,34.9,71.2"></path><path class="st17" d="M35.9,70.5c0,0.3-0.2,0.5-0.5,0.5c-0.3,0-0.5-0.2-0.5-0.5c0-0.3,0.2-0.5,0.5-0.5
	C35.7,70.1,35.9,70.3,35.9,70.5"></path><path class="st15" d="M37.8,70.1c0,0.3-0.2,0.5-0.5,0.5c-0.3,0-0.5-0.2-0.5-0.5c0-0.3,0.2-0.5,0.5-0.5
	C37.5,69.6,37.8,69.8,37.8,70.1"></path><path class="st15" d="M38.7,70.2c0,0.3-0.2,0.5-0.5,0.5c-0.3,0-0.5-0.2-0.5-0.5s0.2-0.5,0.5-0.5C38.4,69.7,38.6,69.9,38.7,70.2"></path><path class="st18" d="M39.5,70.5c0,0.3-0.2,0.5-0.5,0.5c-0.3,0-0.5-0.2-0.5-0.5s0.2-0.5,0.5-0.5C39.2,70,39.5,70.2,39.5,70.5"></path><path class="st18" d="M36.7,71.8c0,0.3-0.2,0.5-0.5,0.5c-0.3,0-0.5-0.2-0.5-0.5c0-0.3,0.2-0.5,0.5-0.5
	C36.4,71.3,36.7,71.5,36.7,71.8"></path><path class="st18" d="M36.6,73.9c0,0.3-0.2,0.5-0.5,0.5c-0.3,0-0.5-0.2-0.5-0.5s0.2-0.5,0.5-0.5C36.3,73.4,36.5,73.6,36.6,73.9"></path><path class="st18" d="M35.9,75.8c0,0.3-0.2,0.5-0.5,0.5c-0.3,0-0.5-0.2-0.5-0.5c0-0.3,0.2-0.5,0.5-0.5
	C35.7,75.3,35.9,75.5,35.9,75.8"></path><path class="st18" d="M34.8,76.7c0,0.3-0.2,0.5-0.5,0.5c-0.3,0-0.5-0.2-0.5-0.5c0-0.3,0.2-0.5,0.5-0.5
	C34.5,76.3,34.7,76.5,34.8,76.7"></path><path class="st18" d="M37.3,79c-0.2,0.2-0.5,0.3-0.7,0.1c-0.2-0.2-0.3-0.5-0.1-0.7c0.2-0.2,0.5-0.3,0.7-0.1
	C37.4,78.5,37.5,78.8,37.3,79"></path><path class="st18" d="M38.6,77.2c-0.2,0.2-0.5,0.3-0.7,0.1c-0.2-0.2-0.3-0.5-0.1-0.7c0.2-0.2,0.5-0.3,0.7-0.1
	C38.8,76.6,38.8,77,38.6,77.2"></path><path class="st18" d="M37.6,76.5c-0.2,0.2-0.5,0.3-0.7,0.1c-0.2-0.2-0.3-0.5-0.1-0.7c0.2-0.2,0.5-0.3,0.7-0.1
	C37.7,75.9,37.7,76.3,37.6,76.5"></path><path class="st18" d="M40.2,76.3c-0.2,0.2-0.5,0.3-0.7,0.1c-0.2-0.2-0.3-0.5-0.1-0.7c0.2-0.2,0.5-0.3,0.7-0.1
	C40.3,75.8,40.3,76.1,40.2,76.3"></path><path class="st18" d="M41.3,74.8c-0.2,0.2-0.5,0.3-0.7,0.1c-0.2-0.2-0.3-0.5-0.1-0.7c0.2-0.2,0.5-0.3,0.7-0.1
	C41.4,74.3,41.4,74.6,41.3,74.8"></path><path class="st18" d="M42.2,73.1c-0.2,0.2-0.5,0.3-0.7,0.1c-0.2-0.2-0.3-0.5-0.1-0.7c0.2-0.2,0.5-0.3,0.7-0.1
	C42.3,72.6,42.3,72.9,42.2,73.1"></path><path class="st18" d="M40.4,78.4c-0.2,0.2-0.5,0.3-0.7,0.1s-0.3-0.5-0.1-0.7c0.2-0.2,0.5-0.3,0.7-0.1C40.5,77.9,40.6,78.2,40.4,78.4
	"></path><path class="st15" d="M40.5,70.9c0,0.3-0.2,0.5-0.5,0.5c-0.3,0-0.5-0.2-0.5-0.5c0-0.3,0.2-0.5,0.5-0.5
	C40.2,70.4,40.5,70.6,40.5,70.9"></path><path class="st15" d="M41.2,71.5c0,0.3-0.2,0.5-0.5,0.5c-0.3,0-0.5-0.2-0.5-0.5c0-0.3,0.2-0.5,0.5-0.5C40.9,71,41.2,71.2,41.2,71.5"></path><path class="st17" d="M41.9,72.1c0,0.3-0.2,0.5-0.5,0.5c-0.3,0-0.5-0.2-0.5-0.5c0-0.3,0.2-0.5,0.5-0.5
	C41.6,71.6,41.9,71.8,41.9,72.1"></path><path class="st15" d="M42.7,73.7c0,0.3-0.2,0.5-0.5,0.5c-0.3,0-0.5-0.2-0.5-0.5c0-0.3,0.2-0.5,0.5-0.5
	C42.4,73.2,42.7,73.4,42.7,73.7"></path><path class="st15" d="M43,74.4c0,0.3-0.2,0.5-0.5,0.5c-0.3,0-0.5-0.2-0.5-0.5s0.2-0.5,0.5-0.5C42.8,73.9,43,74.1,43,74.4"></path><path class="st15" d="M42.9,76.3c0,0.3-0.2,0.5-0.5,0.5c-0.3,0-0.5-0.2-0.5-0.5c0-0.3,0.2-0.5,0.5-0.5
	C42.7,75.9,42.9,76.1,42.9,76.3"></path><path class="st17" d="M42.7,77.2c0,0.3-0.2,0.5-0.5,0.5c-0.3,0-0.5-0.2-0.5-0.5c0-0.3,0.2-0.5,0.5-0.5C42.4,76.8,42.6,77,42.7,77.2"></path><path class="st15" d="M42.2,77.8c0,0.3-0.2,0.5-0.5,0.5c-0.3,0-0.5-0.2-0.5-0.5c0-0.3,0.2-0.5,0.5-0.5C42,77.3,42.2,77.5,42.2,77.8"></path><path class="st15" d="M41.8,78.4c0,0.3-0.2,0.5-0.5,0.5c-0.3,0-0.5-0.2-0.5-0.5c0-0.3,0.2-0.5,0.5-0.5
	C41.6,77.9,41.8,78.1,41.8,78.4"></path><path class="st17" d="M41.4,79c0,0.3-0.2,0.5-0.5,0.5c-0.3,0-0.5-0.2-0.5-0.5c0-0.3,0.2-0.5,0.5-0.5C41.1,78.5,41.4,78.7,41.4,79"></path><path class="st15" d="M40.7,79.6c0,0.3-0.2,0.5-0.5,0.5c-0.3,0-0.5-0.2-0.5-0.5s0.2-0.5,0.5-0.5C40.4,79.1,40.6,79.3,40.7,79.6"></path><path class="st17" d="M40,79.9c0,0.3-0.2,0.5-0.5,0.5c-0.3,0-0.5-0.2-0.5-0.5c0-0.3,0.2-0.5,0.5-0.5C39.7,79.4,39.9,79.6,40,79.9"></path><path class="st15" d="M39.3,80.1c0,0.3-0.2,0.5-0.5,0.5c-0.3,0-0.5-0.2-0.5-0.5c0-0.3,0.2-0.5,0.5-0.5C39,79.6,39.3,79.9,39.3,80.1"></path><path class="st15" d="M38.6,80.2c0,0.3-0.2,0.5-0.5,0.5c-0.3,0-0.5-0.2-0.5-0.5c0-0.3,0.2-0.5,0.5-0.5C38.4,79.8,38.6,80,38.6,80.2"></path><path class="st17" d="M37.8,80.3c0,0.3-0.2,0.5-0.5,0.5c-0.3,0-0.5-0.2-0.5-0.5s0.2-0.5,0.5-0.5C37.6,79.8,37.8,80,37.8,80.3"></path><path class="st15" d="M37,80.4c0,0.3-0.2,0.5-0.5,0.5c-0.3,0-0.5-0.2-0.5-0.5c0-0.3,0.2-0.5,0.5-0.5C36.7,79.9,37,80.1,37,80.4"></path><path class="st15" d="M36.3,80.1c0,0.3-0.2,0.5-0.5,0.5c-0.3,0-0.5-0.2-0.5-0.5c0-0.3,0.2-0.5,0.5-0.5
	C36.1,79.6,36.3,79.8,36.3,80.1"></path><path class="st17" d="M35.6,79.8c0,0.3-0.2,0.5-0.5,0.5c-0.3,0-0.5-0.2-0.5-0.5c0-0.3,0.2-0.5,0.5-0.5
	C35.4,79.3,35.6,79.5,35.6,79.8"></path><path class="st15" d="M35.1,79.3c0,0.3-0.2,0.5-0.5,0.5c-0.3,0-0.5-0.2-0.5-0.5c0-0.3,0.2-0.5,0.5-0.5C34.8,78.9,35,79.1,35.1,79.3"></path><path class="st15" d="M34.6,79c0,0.3-0.2,0.5-0.5,0.5c-0.3,0-0.5-0.2-0.5-0.5c0-0.3,0.2-0.5,0.5-0.5C34.3,78.5,34.5,78.7,34.6,79"></path><path class="st17" d="M34.1,78.5c0,0.3-0.2,0.5-0.5,0.5s-0.5-0.2-0.5-0.5s0.2-0.5,0.5-0.5C33.8,78,34.1,78.2,34.1,78.5"></path><path class="st17" d="M33.9,76.4c0,0.3-0.2,0.5-0.5,0.5c-0.3,0-0.5-0.2-0.5-0.5c0-0.3,0.2-0.5,0.5-0.5
	C33.6,75.9,33.9,76.1,33.9,76.4"></path><path class="st15" d="M43,75.4c0,0.3-0.2,0.5-0.5,0.5c-0.3,0-0.5-0.2-0.5-0.5s0.2-0.5,0.5-0.5C42.7,74.9,42.9,75.1,43,75.4"></path><path class="st15" d="M36.9,70.1c0,0.3-0.2,0.5-0.5,0.5c-0.3,0-0.5-0.2-0.5-0.5c0-0.3,0.2-0.5,0.5-0.5
	C36.6,69.7,36.9,69.9,36.9,70.1"></path><path class="st18" d="M41.7,78.2c-0.2,0.2-0.5,0.3-0.7,0.1c-0.2-0.2-0.3-0.5-0.1-0.7c0.2-0.2,0.5-0.3,0.7-0.1
	C41.8,77.6,41.9,78,41.7,78.2"></path><path class="st18" d="M38.9,80.1c-0.2,0.2-0.5,0.3-0.7,0.1c-0.2-0.2-0.3-0.5-0.1-0.7c0.2-0.2,0.5-0.3,0.7-0.1
	C39,79.6,39.1,79.9,38.9,80.1"></path><path class="st18" d="M35.3,71.5c-0.2,0.2-0.5,0.3-0.7,0.1c-0.2-0.2-0.3-0.5-0.1-0.7c0.2-0.2,0.5-0.3,0.7-0.1
	C35.4,71,35.5,71.3,35.3,71.5"></path><path class="st18" d="M33.5,73.1c-0.2,0.2-0.5,0.3-0.7,0.1c-0.2-0.2-0.3-0.5-0.1-0.7c0.2-0.2,0.5-0.3,0.7-0.1
	C33.6,72.6,33.7,72.9,33.5,73.1"></path><path class="st16" d="M34.5,75c0,0.3-0.2,0.5-0.5,0.5c-0.3,0-0.5-0.2-0.5-0.5c0-0.3,0.2-0.5,0.5-0.5C34.2,74.5,34.4,74.7,34.5,75"></path><path class="st16" d="M34.2,75.8c0,0.3-0.2,0.5-0.5,0.5c-0.3,0-0.5-0.2-0.5-0.5c0-0.3,0.2-0.5,0.5-0.5
	C33.9,75.3,34.2,75.5,34.2,75.8"></path><path class="st16" d="M36.4,78.8c0,0.3-0.2,0.5-0.5,0.5c-0.3,0-0.5-0.2-0.5-0.5c0-0.3,0.2-0.5,0.5-0.5
	C36.2,78.3,36.4,78.5,36.4,78.8"></path><path class="st16" d="M37.6,75.1c0,0.3-0.2,0.5-0.5,0.5c-0.3,0-0.5-0.2-0.5-0.5s0.2-0.5,0.5-0.5C37.3,74.6,37.5,74.8,37.6,75.1"></path><path class="st16" d="M40.9,73.5c0,0.3-0.2,0.5-0.5,0.5c-0.3,0-0.5-0.2-0.5-0.5c0-0.3,0.2-0.5,0.5-0.5C40.6,73,40.9,73.2,40.9,73.5"></path><path class="st16" d="M39.6,75.1c0,0.3-0.2,0.5-0.5,0.5c-0.3,0-0.5-0.2-0.5-0.5c0-0.3,0.2-0.5,0.5-0.5
	C39.4,74.6,39.6,74.8,39.6,75.1"></path><path class="st16" d="M38.2,77.5c0,0.3-0.2,0.5-0.5,0.5c-0.3,0-0.5-0.2-0.5-0.5c0-0.3,0.2-0.5,0.5-0.5C38,77.1,38.2,77.3,38.2,77.5"></path><path class="st17" d="M34.7,73.4c0,0.3-0.2,0.5-0.5,0.5c-0.3,0-0.5-0.2-0.5-0.5c0-0.3,0.2-0.5,0.5-0.5
	C34.4,72.9,34.6,73.1,34.7,73.4"></path><path class="st17" d="M35.7,72.1c0,0.3-0.2,0.5-0.5,0.5c-0.3,0-0.5-0.2-0.5-0.5c0-0.3,0.2-0.5,0.5-0.5
	C35.5,71.6,35.7,71.8,35.7,72.1"></path><path class="st17" d="M38.6,71.4c0,0.3-0.2,0.5-0.5,0.5c-0.3,0-0.5-0.2-0.5-0.5c0-0.3,0.2-0.5,0.5-0.5C38.4,71,38.6,71.2,38.6,71.4"></path><path class="st17" d="M38.1,73.3c0,0.3-0.2,0.5-0.5,0.5c-0.3,0-0.5-0.2-0.5-0.5s0.2-0.5,0.5-0.5C37.8,72.8,38.1,73,38.1,73.3"></path><path class="st17" d="M36.8,74.5c0,0.3-0.2,0.5-0.5,0.5c-0.3,0-0.5-0.2-0.5-0.5c0-0.3,0.2-0.5,0.5-0.5C36.6,74,36.8,74.2,36.8,74.5"></path><path class="st17" d="M36.5,76.7c0,0.3-0.2,0.5-0.5,0.5c-0.3,0-0.5-0.2-0.5-0.5s0.2-0.5,0.5-0.5C36.3,76.2,36.5,76.4,36.5,76.7"></path><path class="st17" d="M42.1,74.6c0,0.3-0.2,0.5-0.5,0.5c-0.3,0-0.5-0.2-0.5-0.5c0-0.3,0.2-0.5,0.5-0.5
	C41.8,74.2,42.1,74.4,42.1,74.6"></path><path class="st17" d="M39.9,73.6c0,0.3-0.2,0.5-0.5,0.5c-0.3,0-0.5-0.2-0.5-0.5s0.2-0.5,0.5-0.5C39.6,73.1,39.8,73.3,39.9,73.6"></path><path class="st17" d="M40.2,71.8c0,0.3-0.2,0.5-0.5,0.5c-0.3,0-0.5-0.2-0.5-0.5c0-0.3,0.2-0.5,0.5-0.5
	C39.9,71.3,40.1,71.5,40.2,71.8"></path><path class="st17" d="M39.8,76.5c0,0.3-0.2,0.5-0.5,0.5c-0.3,0-0.5-0.2-0.5-0.5c0-0.3,0.2-0.5,0.5-0.5C39.6,76,39.8,76.2,39.8,76.5"></path><path class="st17" d="M40.7,77.9c0,0.3-0.2,0.5-0.5,0.5c-0.3,0-0.5-0.2-0.5-0.5c0-0.3,0.2-0.5,0.5-0.5
	C40.5,77.5,40.7,77.7,40.7,77.9"></path><path class="st17" d="M35.7,75.4c0,0.3-0.2,0.5-0.5,0.5c-0.3,0-0.5-0.2-0.5-0.5s0.2-0.5,0.5-0.5C35.4,74.9,35.7,75.1,35.7,75.4"></path><path class="st19" d="M35,77.2c0,0.3-0.2,0.5-0.5,0.5c-0.3,0-0.5-0.2-0.5-0.5s0.2-0.5,0.5-0.5C34.7,76.7,34.9,76.9,35,77.2"></path><path class="st19" d="M35.6,74.3c0,0.3-0.2,0.5-0.5,0.5c-0.3,0-0.5-0.2-0.5-0.5s0.2-0.5,0.5-0.5C35.4,73.8,35.6,74,35.6,74.3"></path><path class="st19" d="M37,72.4c0,0.3-0.2,0.5-0.5,0.5c-0.3,0-0.5-0.2-0.5-0.5c0-0.3,0.2-0.5,0.5-0.5C36.7,72,37,72.2,37,72.4"></path><path class="st19" d="M38.3,76.4c0,0.3-0.2,0.5-0.5,0.5c-0.3,0-0.5-0.2-0.5-0.5c0-0.3,0.2-0.5,0.5-0.5C38,75.9,38.2,76.1,38.3,76.4"></path><path class="st19" d="M39.5,79c0,0.3-0.2,0.5-0.5,0.5c-0.3,0-0.5-0.2-0.5-0.5s0.2-0.5,0.5-0.5C39.2,78.5,39.5,78.8,39.5,79"></path><path class="st19" d="M41,75.4c0,0.3-0.2,0.5-0.5,0.5c-0.3,0-0.5-0.2-0.5-0.5s0.2-0.5,0.5-0.5C40.7,74.9,40.9,75.1,41,75.4"></path><path class="st19" d="M39,72.7c0,0.3-0.2,0.5-0.5,0.5c-0.3,0-0.5-0.2-0.5-0.5c0-0.3,0.2-0.5,0.5-0.5C38.7,72.2,38.9,72.4,39,72.7"></path><path class="st19" d="M38.7,74.5c0,0.3-0.2,0.5-0.5,0.5c-0.3,0-0.5-0.2-0.5-0.5c0-0.3,0.2-0.5,0.5-0.5C38.5,74,38.7,74.2,38.7,74.5"></path><path class="st19" d="M37,70.7c0,0.3-0.2,0.5-0.5,0.5c-0.3,0-0.5-0.2-0.5-0.5c0-0.3,0.2-0.5,0.5-0.5C36.7,70.2,37,70.4,37,70.7"></path><path class="st19" d="M42.3,76.7c0,0.3-0.2,0.5-0.5,0.5c-0.3,0-0.5-0.2-0.5-0.5c0-0.3,0.2-0.5,0.5-0.5C42,76.2,42.3,76.4,42.3,76.7"></path><path class="st19" d="M37.4,79.8c0,0.3-0.2,0.5-0.5,0.5c-0.3,0-0.5-0.2-0.5-0.5c0-0.3,0.2-0.5,0.5-0.5
	C37.1,79.4,37.4,79.6,37.4,79.8"></path><path class="st19" d="M35.3,79c0,0.3-0.2,0.5-0.5,0.5c-0.3,0-0.5-0.2-0.5-0.5c0-0.3,0.2-0.5,0.5-0.5C35,78.6,35.3,78.8,35.3,79"></path><path class="st20" d="M39,79.3c0.3,0,0.5,0.2,0.5,0.5c0,0.3-0.2,0.5-0.5,0.5c-0.3,0-0.5-0.2-0.5-0.5C38.5,79.5,38.7,79.3,39,79.3"></path><path class="st20" d="M37.6,79.5c0.3,0,0.5,0.2,0.5,0.5c0,0.3-0.2,0.5-0.5,0.5c-0.3,0-0.5-0.2-0.5-0.5
	C37.1,79.7,37.3,79.5,37.6,79.5"></path><path class="st20" d="M36,79.5c0.3,0,0.5,0.2,0.5,0.5c0,0.3-0.2,0.5-0.5,0.5c-0.3,0-0.5-0.2-0.5-0.5C35.5,79.7,35.7,79.5,36,79.5"></path><path class="st20" d="M34.7,78.7c0.3,0,0.5,0.2,0.5,0.5c0,0.3-0.2,0.5-0.5,0.5c-0.3,0-0.5-0.2-0.5-0.5
	C34.1,78.9,34.4,78.7,34.7,78.7"></path><path class="st20" d="M33.5,77.1c0.3,0,0.5,0.2,0.5,0.5c0,0.3-0.2,0.5-0.5,0.5c-0.3,0-0.5-0.2-0.5-0.5C33,77.3,33.3,77.1,33.5,77.1"></path><path class="st20" d="M32.8,75.3c0.3,0,0.5,0.2,0.5,0.5c0,0.3-0.2,0.5-0.5,0.5c-0.3,0-0.5-0.2-0.5-0.5
	C32.3,75.5,32.5,75.3,32.8,75.3"></path><path class="st20" d="M33.4,73.9c0.3,0,0.5,0.2,0.5,0.5c0,0.3-0.2,0.5-0.5,0.5c-0.3,0-0.5-0.2-0.5-0.5
	C32.8,74.1,33.1,73.9,33.4,73.9"></path><path class="st20" d="M33,73c0.3,0,0.5,0.2,0.5,0.5c0,0.3-0.2,0.5-0.5,0.5c-0.3,0-0.5-0.2-0.5-0.5C32.5,73.2,32.7,73,33,73"></path><path class="st20" d="M39.7,70.4c0.3,0,0.5,0.2,0.5,0.5c0,0.3-0.2,0.5-0.5,0.5c-0.3,0-0.5-0.2-0.5-0.5
	C39.2,70.6,39.5,70.4,39.7,70.4"></path><path class="st20" d="M40.8,71.7c0.3,0,0.5,0.2,0.5,0.5c0,0.3-0.2,0.5-0.5,0.5c-0.3,0-0.5-0.2-0.5-0.5
	C40.3,71.9,40.6,71.7,40.8,71.7"></path><path class="st20" d="M42,73.4c0.3,0,0.5,0.2,0.5,0.5c0,0.3-0.2,0.5-0.5,0.5c-0.3,0-0.5-0.2-0.5-0.5C41.5,73.6,41.7,73.4,42,73.4"></path><path class="st20" d="M42.2,75.3c0.3,0,0.5,0.2,0.5,0.5c0,0.3-0.2,0.5-0.5,0.5c-0.3,0-0.5-0.2-0.5-0.5
	C41.7,75.6,41.9,75.3,42.2,75.3"></path><path class="st20" d="M41.6,77.1c0.3,0,0.5,0.2,0.5,0.5c0,0.3-0.2,0.5-0.5,0.5c-0.3,0-0.5-0.2-0.5-0.5
	C41.1,77.3,41.4,77.1,41.6,77.1"></path><path class="st20" d="M40.6,78.1c0.3,0,0.5,0.2,0.5,0.5c0,0.3-0.2,0.5-0.5,0.5c-0.3,0-0.5-0.2-0.5-0.5
	C40.1,78.3,40.4,78.1,40.6,78.1"></path><path class="st20" d="M38.8,77.4c0.3,0,0.5,0.2,0.5,0.5c0,0.3-0.2,0.5-0.5,0.5c-0.3,0-0.5-0.2-0.5-0.5
	C38.2,77.6,38.5,77.3,38.8,77.4"></path><path class="st20" d="M37.4,76.7c0.3,0,0.5,0.2,0.5,0.5c0,0.3-0.2,0.5-0.5,0.5c-0.3,0-0.5-0.2-0.5-0.5
	C36.9,76.9,37.1,76.7,37.4,76.7"></path><path class="st20" d="M36.6,77.5c0.3,0,0.5,0.2,0.5,0.5c0,0.3-0.2,0.5-0.5,0.5c-0.3,0-0.5-0.2-0.5-0.5
	C36.1,77.7,36.3,77.5,36.6,77.5"></path><path class="st20" d="M34.5,76.4c0.3,0,0.5,0.2,0.5,0.5c0,0.3-0.2,0.5-0.5,0.5c-0.3,0-0.5-0.2-0.5-0.5C34,76.6,34.2,76.4,34.5,76.4"></path><path class="st20" d="M35,74.2c0.3,0,0.5,0.2,0.5,0.5c0,0.3-0.2,0.5-0.5,0.5c-0.3,0-0.5-0.2-0.5-0.5C34.5,74.4,34.8,74.2,35,74.2"></path><path class="st20" d="M37,72c0.3,0,0.5,0.2,0.5,0.5c0,0.3-0.2,0.5-0.5,0.5c-0.3,0-0.5-0.2-0.5-0.5C36.5,72.2,36.7,72,37,72"></path><path class="st20" d="M38,73.5c0.3,0,0.5,0.2,0.5,0.5c0,0.3-0.2,0.5-0.5,0.5c-0.3,0-0.5-0.2-0.5-0.5C37.5,73.7,37.8,73.5,38,73.5"></path><path class="st20" d="M39.8,73c0.3,0,0.5,0.2,0.5,0.5c0,0.3-0.2,0.5-0.5,0.5c-0.3,0-0.5-0.2-0.5-0.5C39.3,73.3,39.5,73,39.8,73"></path><path class="st20" d="M39.3,75.3c0.3,0,0.5,0.2,0.5,0.5c0,0.3-0.2,0.5-0.5,0.5c-0.3,0-0.5-0.2-0.5-0.5
	C38.8,75.5,39.1,75.3,39.3,75.3"></path></g></svg>