<svg id="Layer_1" data-name="Layer 1" xmlns="http://www.w3.org/2000/svg" viewBox="0 0 108 108">
  <defs>
    <style>
      .cls-1 {
        fill: #81c79d;
      }

      .cls-2 {
        fill: #61b59b;
      }

      .cls-3 {
        fill: #a171eb;
      }

      .cls-4 {
        fill: #8648cd;
      }

      .cls-5 {
        fill: #ff5353;
      }

      .cls-6 {
        fill: #f44040;
      }

      .cls-7 {
        fill: #fe7474;
      }
    </style>
  </defs>
  <g id="_76" data-name="76">
    <g>
      <path class="cls-1" d="M77.6,62.62l-7.07,6.3a3.34,3.34,0,0,1-1.22.42l-7,1.33-1.76,6,9.92-3.49a3.33,3.33,0,0,0,1.58-1.36l6.13-8.58A.43.43,0,0,0,77.6,62.62Z"/>
      <path class="cls-2" d="M77.6,62.62l-7.07,6.3a3.34,3.34,0,0,1-1.22.42l-7,1.33-1,3.24,8.38-2.47a3.49,3.49,0,0,0,1.14-.61L78,63.48l.16-.26A.43.43,0,0,0,77.6,62.62Z"/>
    </g>
    <g>
      <path class="cls-1" d="M47.33,64.87,51,73.61a3.16,3.16,0,0,0,.92.9l5.72,4.23-1,6.15-7.44-7.43a3.44,3.44,0,0,1-.83-1.91l-1.81-10.4A.43.43,0,0,1,47.33,64.87Z"/>
      <path class="cls-2" d="M47.33,64.87,51,73.61a3.16,3.16,0,0,0,.92.9l5.72,4.23-.54,3.33-6.5-5.85a3.42,3.42,0,0,1-.75-1l-3.26-9.71,0-.31A.43.43,0,0,1,47.33,64.87Z"/>
    </g>
    <path class="cls-1" d="M67.21,58.35c-1-11.81-10.21-18.29-12-19.42v5.75a21.74,21.74,0,0,1,7.43,14.07c.82,9.35-4.85,19.75-16.84,31a.91.91,0,0,0,.62,1.58h3.2a2.73,2.73,0,0,0,1.94-.81C62.84,79.18,68.09,68.4,67.21,58.35Z"/>
    <path class="cls-2" d="M67.21,58.35c-1-11.81-10.21-18.29-12-19.42v2a25.88,25.88,0,0,1,9.09,17.4c.77,10.29-4.89,21.34-16.83,32.93h2.15a2.73,2.73,0,0,0,1.94-.81C62.84,79.18,68.09,68.4,67.21,58.35Z"/>
    <g>
      <g>
        <g>
          <g>
            <path class="cls-3" d="M77.48,40a60,60,0,0,1-4.26-4.64c-2.71-3.26-7.74-4.14-17.08,4.5v1.62c9.34,8.64,14.37,7.77,17.08,4.5a60,60,0,0,1,4.26-4.64A.93.93,0,0,0,77.48,40Z"/>
            <path class="cls-4" d="M77.48,40a60,60,0,0,1-4.26-4.64,6.15,6.15,0,0,0-6.32-2.16,6.14,6.14,0,0,1,3.38,2.16A58,58,0,0,0,74.54,40a.93.93,0,0,1,0,1.34A58,58,0,0,0,70.28,46a6.18,6.18,0,0,1-3.38,2.16A6.15,6.15,0,0,0,73.22,46a60,60,0,0,1,4.26-4.64A.93.93,0,0,0,77.48,40Z"/>
            <path class="cls-3" d="M30.09,41.37A60,60,0,0,1,34.35,46c2.71,3.26,7.74,4.14,17.08-4.5V39.89c-9.34-8.64-14.37-7.76-17.08-4.49A61.29,61.29,0,0,1,30.09,40,.93.93,0,0,0,30.09,41.37Z"/>
          </g>
          <g>
            <path class="cls-3" d="M53.11,17a61.73,61.73,0,0,1-4.63,4.25C45.21,24,44.33,29,53,38.35h1.61C63.24,29,62.36,24,59.09,21.26A59.74,59.74,0,0,1,54.46,17,.94.94,0,0,0,53.11,17Z"/>
            <path class="cls-4" d="M59.09,21.26A59.74,59.74,0,0,1,54.46,17a.94.94,0,0,0-1.35,0c-.21.22-.48.49-.8.8.91.89,2.2,2.1,3.84,3.45,3.18,2.65,4.09,7.48-3.84,16.35l.67.74h1.61C63.24,29,62.36,24,59.09,21.26Z"/>
            <path class="cls-3" d="M54.46,64.39a61.73,61.73,0,0,1,4.63-4.25c3.27-2.72,4.15-7.74-4.5-17.08H53c-8.65,9.34-7.77,14.36-4.5,17.08a61.73,61.73,0,0,1,4.63,4.25A.94.94,0,0,0,54.46,64.39Z"/>
            <path class="cls-4" d="M54.59,43.06H53c-.23.24-.45.49-.67.73,7.93,8.87,7,13.7,3.84,16.35-1.64,1.36-2.93,2.57-3.84,3.45.32.31.59.58.8.8a.94.94,0,0,0,1.35,0,61.73,61.73,0,0,1,4.63-4.25C62.36,57.42,63.24,52.4,54.59,43.06Z"/>
          </g>
        </g>
        <g>
          <path class="cls-4" d="M54.89,56.64V58a1.14,1.14,0,1,1-2.27,0V56.62a1.14,1.14,0,0,1,2.28,0Z"/>
          <path class="cls-4" d="M72.17,40.73v0A1.13,1.13,0,0,1,71,41.88H69.71a1.14,1.14,0,0,1,0-2.28H71A1.14,1.14,0,0,1,72.17,40.73Z"/>
          <path class="cls-4" d="M52.68,24.77V23.45a1.13,1.13,0,0,1,1.14-1.13h0A1.14,1.14,0,0,1,55,23.45v1.33a1.14,1.14,0,0,1-2.28,0Z"/>
          <path class="cls-4" d="M39,40.67a1.14,1.14,0,0,1-1.14,1.14H36.53a1.14,1.14,0,0,1-1.14-1.14h0a1.15,1.15,0,0,1,1.15-1.13h1.32A1.13,1.13,0,0,1,39,40.67Z"/>
          <path class="cls-4" d="M66.91,40.71a1.15,1.15,0,0,1-1.15,1.14L55.28,41.8a1,1,0,0,1-.43-.09,1.15,1.15,0,0,1,.12.5L54.91,52.7a1.14,1.14,0,1,1-2.27,0l0-10.48a1,1,0,0,1,.09-.44,1.08,1.08,0,0,1-.5.12l-10.49-.05a1.15,1.15,0,0,1-1.13-1.14,1.13,1.13,0,0,1,1.15-1.13l10.48,0a1.22,1.22,0,0,1,.43.09,1,1,0,0,1-.11-.5l0-10.48a1.14,1.14,0,1,1,2.27,0l0,10.48a.94.94,0,0,1-.09.44,1.08,1.08,0,0,1,.5-.12l10.49,0A1.14,1.14,0,0,1,66.91,40.71Z"/>
        </g>
      </g>
      <g>
        <circle class="cls-5" cx="53.81" cy="40.7" r="6.27" transform="translate(-6.98 69.98) rotate(-62.82)"/>
        <path class="cls-6" d="M53.23,34.47a6.26,6.26,0,0,1,0,12.46,6.26,6.26,0,1,0,0-12.46Z"/>
        <g>
          <g>
            <circle class="cls-7" cx="55.49" cy="44.13" r="0.49"/>
            <circle class="cls-7" cx="57.2" cy="42.42" r="0.49"/>
          </g>
          <g>
            <circle class="cls-7" cx="52.08" cy="44.12" r="0.49"/>
            <circle class="cls-7" cx="53.79" cy="42.42" r="0.49"/>
            <circle class="cls-7" cx="55.49" cy="40.71" r="0.49"/>
            <circle class="cls-7" cx="57.2" cy="39" r="0.49"/>
          </g>
          <g>
            <circle class="cls-7" cx="50.37" cy="42.42" r="0.49"/>
            <circle class="cls-7" cx="52.08" cy="40.71" r="0.49"/>
            <circle class="cls-7" cx="53.78" cy="39" r="0.49"/>
            <circle class="cls-7" cx="55.49" cy="37.29" r="0.49"/>
          </g>
          <g>
            <circle class="cls-7" cx="50.37" cy="39" r="0.49"/>
            <circle class="cls-7" cx="52.08" cy="37.29" r="0.49"/>
          </g>
        </g>
      </g>
    </g>
  </g>
</svg>
