<svg xmlns="http://www.w3.org/2000/svg" version="1.1" xmlns:xlink="http://www.w3.org/1999/xlink" xmlns:svgjs="http://svgjs.dev/svgjs" viewBox="0 0 108 108" style="" x="0" y="0"><style type="text/css">
	.st0{fill:#7F3927;}
	.st1{fill:#F34C9E;}
	.st2{fill:#B43777;}
	.st3{fill:#F389B8;}
	.st4{fill:none;stroke:#000000;stroke-width:0.2698;stroke-miterlimit:10;}
	.st5{fill:none;stroke:#7F3927;stroke-width:0.2698;stroke-miterlimit:10;}
	.st6{fill:none;stroke:#000000;stroke-width:0.2157;stroke-miterlimit:10;}
	.st7{fill:none;stroke:#7F3927;stroke-width:0.2157;stroke-miterlimit:10;}
	.st8{fill:#7E88AB;}
	.st9{fill:#3C3E50;}
	.st10{fill:#677896;}
	.st11{fill:#8199A6;}
	.st12{fill:#586781;}
</style><g><path class="st0" d="M56.6,80.5c1.1-9.5,3.2-18.9,6.1-27.9c2.5-8.3,5.3-17.1,7.8-25.4c0.1-0.2,0.3-1.1,0.4-1.3
	c0-0.1,0.1-0.3,0.2-0.4l0.2,0.1c0,0.3-0.1,0.6-0.2,0.9c0,0-0.2,0.9-0.2,0.9c-0.9,3.1-2.6,8.8-3.5,11.9c-2.6,9.1-5.6,18.1-7.4,27.4
	c-0.9,4.6-1.6,9.4-2,14.1L56.6,80.5L56.6,80.5z"></path><path class="st1" d="M70.4,42.3c0.1-0.5-0.3-1-0.2-1.9c0.1-0.9,0-1.8,0.3-1.8c0.2,0,0.8,0.1,1-0.3c0.2-0.4,0.3-0.6,0.1-1.1
	c-0.2-0.5-0.3-1-0.3-1.1c-0.1-0.1-0.3,0.3-0.6-0.2c-0.3-0.5-0.4-1.2-0.8-1.1c-0.4,0.1-0.6,0.2-0.7,0.1c-0.1-0.1-0.5-0.3-0.5-0.3
	l-0.6,0.7c-0.1-0.8-0.4-1-0.3-1.7c0.1-0.7-0.1-2.1-0.1-2.1s-0.8,1.4-1.3,1.7c-0.5,0.3-1,0.5-1.2,0.5c-0.2,0-1,0.4-0.9,1.2
	c0.1,0.8,0,1.5,0.1,1.8c0,0.2,0.2,0.8,0.3,1c0.2,0.2,0.6,0.3,0.5,0.7c-0.1,0.3-0.7,0.5-1.1,0.3c-0.4-0.1-1.3-0.3-1.5-0.1
	c-0.1,0-0.1,0.1-0.2,0.2c0.1,0.5-0.1,0.8-0.1,0.8l0.2,0.2c0,0,0,0,0.4-0.1c0.4-0.1,0.7,0.6,0.7,0.6c0,0,0,0.5,0.1,0.9
	c0.2,0,0.2-0.3,0.5-0.3c0.3,0,0.5,0.2,0.5,0.5c0,0.2,0.8,1,0.6,1.2c-0.2,0.1-0.6,0.2-0.5,0.6c0.2,0.4,0.6,0.8,0.6,1.1
	c0,0.3,0.2,0.7,0.5,0.6c0.3-0.1,0.9-0.9,1.2-1.2c0.4-0.3,0.3-1.3,0.8-0.7c0.5,0.6,0.6,0.9,0.8,1c0.2,0.1,0.5,0.2,0.7,0
	C69.7,43.8,70.3,42.8,70.4,42.3z"></path><path class="st2" d="M67.7,37.7c0,0,0.4-1.2,0.2-1.5c-0.2-0.3-0.6-0.6-0.7,0c0,0.6-0.2,1.2-0.4,1.2c-0.1,0-0.2-0.3-0.3-0.7
	c-0.1-0.2-0.1-0.4-0.2-0.6c-0.1-0.5,0.1,1.1-0.4,0.9c-0.5-0.2-1-0.1-1-0.3c-0.1-0.2-0.2-0.1,0.2,0.6c0.4,0.7,0.7,1.3,0.8,1.8
	c0.1,0.4,0.4,1,0.3,1.1c-0.1,0.1-0.4,0.4-0.8,0.4c-0.4,0-0.4-0.1-0.6-0.1c-0.1,0-0.1,0.7,0.2,0.9c0.3,0.2,0.7,0.2,1-0.1
	c0.3-0.3,0.5-1.3,0.8-1.1c0.2,0.2,0.5,0.8,0.7,1.1c0.1,0.3,0.5,0.7,0.8,0.9c0.3,0.2,0.5,0.3,0.6,0.1c0.1-0.2,0.3-0.4-0.1-0.8
	c-0.4-0.5-0.7-0.8-0.8-1c-0.2-0.2-1.3-1-1-1.2c0.3-0.3,0.3-0.7,0.7-0.2c0.4,0.5,0.2,0.6,0.5,0.7c0.3,0.2,0.5-0.3,0.4-0.5
	c-0.2-0.2,0.3-0.4,0.3-0.6c0.1-0.2,0.1-0.6,0.4-0.7c0.4-0.2,0.8-0.5,0.8-0.5s0.2-0.8-0.2-0.7C69.6,37,67.7,37.7,67.7,37.7z"></path><path class="st3" d="M67.4,35.1c-0.1-0.2-0.2-0.9-0.3-1.1c-0.1-0.2-0.3-0.3-0.5,0c-0.2,0.3-0.1,0.6-0.4,0.6c-0.4,0-0.6-0.1-0.8,0.2
	c-0.2,0.3-0.5,0.6-0.1,0.6c0.4,0,0.4,0.5,0.7,0.2c0.3-0.4,0-0.1,0.3-0.4c0.3-0.2,0.3-0.2,0.3-0.2L67.4,35.1z"></path><path class="st3" d="M70.8,36.7c0,0,1.1,0.3,0.7,0.5c-0.4,0.2-0.4,0.5-0.5,0.4c-0.1,0-0.2-0.3-0.2-0.3L70.8,36.7z"></path><path class="st2" d="M62.9,39.6c-0.4,0.1-0.4,0.1-0.4,0.1l-0.2-0.2c0,0,0.2-0.3,0.1-0.8c-0.2,0.3-0.6,0.6-0.7,0.5
	c-0.2-0.2-0.2-1.1-0.5-0.6c-0.3,0.5-0.5,1.2-0.4,1.6c0.1,0.4,0,0.4,0.7,0.5c0.6,0,0.2,0.2,0.6,0.3c0.4,0.1,0.4-0.7,0.9-0.5
	c0.5,0.2,0.4,0.6,0.7,0.7c0,0,0.1,0,0.1,0c0-0.4-0.1-0.9-0.1-0.9C63.6,40.1,63.3,39.4,62.9,39.6z"></path><path class="st4" d="M60,47.3C60,47.3,60,47.3,60,47.3C60,47.3,60,47.3,60,47.3z"></path><path class="st1" d="M60.6,54.5c0.1-0.3,0.2-0.6,0.5-0.9c0.4-0.2,0.1,0.5,0.3,0.7c0.2,0.1,0.5-0.5,0.7-0.4c0.2,0.1,0.4,0.6,0.6,1
	c0.3-0.2,0.8,0,0.9-0.4c0.2-0.4-0.3-0.5,0.1-1c0.3-0.5,1.1-0.1,1.2-0.2c0.2,0,0.4-0.3,0.5-0.6c0.1-0.3,0-0.3,0.1-0.6
	c0.1-0.2,0.3-0.6,0.3-0.6s0.2,1.2,0.3,1.5c0.1,0.3,0.1,0.5,0.3,0.1c0.2-0.4,0.4-0.5,0.4-0.5s0.3,0.9,0.6,0.7c0.2-0.3,0-1.5,0-1.5
	c-0.1-0.1,0.6-0.8,0.7-1.1c0.1-0.4-0.6-0.6-0.7-0.6c-0.2,0-0.7-0.1-0.7-0.1l0.4-0.8l-0.6,0l-0.2-0.6C66.3,48,66,48.2,66,47.9
	c-0.1-0.3-0.2-0.7,0.1-0.9c0.3-0.2,0.5-0.2,0.7-0.3c0.2-0.1,0.7-0.3,0.2-0.6c-0.5-0.3-0.8-0.1-1.1-0.1c-0.4,0-0.6-0.3-0.7-0.5
	c-0.1-0.3-0.1-0.6-0.3-0.6c-0.2,0,0.3,0.7-0.3,0.5c-0.6-0.2-0.8-0.4-0.9-0.5c-0.1-0.1-0.2-0.1-0.3,0.1c-0.1,0.2,0,0.6-0.3,0.7
	c-0.2,0.1-0.5-0.3-0.7,0.6c-0.3,0.8,0.1,1.5,0.8,1.7c0.1,0,0.2,0,0.3,0.1c0.2-0.2,0.5-0.5,0.9-0.6c0.7-0.2,0.9-0.5,0.9-0.2
	c0,0.3,0.2,0.8,0.2,0.8c0.3,0.4,0,0.5,0,0.8c0.1,0.3,0.5,0.5,0.2,0.8c-0.3,0.3-0.2,0-0.6,0c-0.3,0-0.6,0.4-0.8,0.3
	c-0.2,0-0.2,0.3-0.4,0.1c-0.1-0.1-0.3-0.5-0.5-0.8c-0.3,0-0.5,0-0.7-0.2c-0.2-0.3-1.3-2.1-1.2-1.4c0.1,0.7,0.2,0.7,0,1
	c-0.2,0.3-0.4,0.4-0.5,0.5c-0.1,0.1-0.5,0.2-0.7,0.1c-0.2-0.1-0.8-0.3-0.7,0.3c0.1,0.7,0.2,0.9,0.1,1.1c-0.2,0.2-0.3-0.1-0.5,0.2
	c-0.2,0.3-0.7,0.6-0.4,1c0.3,0.4,0.9,1,0.9,1s0,0.4-0.3,0.6c-0.3,0.2-0.3,0.7-0.2,0.8c0.1,0.2,0.2,0.2,0.4,0.5
	c0.1,0.1,0.1,0.2,0.1,0.3C60.1,54.8,60.5,54.6,60.6,54.5z"></path><path class="st3" d="M64.3,49.7c0.2,0,0.5-0.3,0.8-0.3c0.3,0,0.3,0.3,0.6,0c0.3-0.3-0.2-0.5-0.2-0.8c-0.1-0.3,0.3-0.4,0-0.8
	c0,0-0.2-0.5-0.2-0.8c0-0.3-0.2,0-0.9,0.2c-0.3,0.1-0.7,0.4-0.9,0.6c0.4,0.1,0.6,0.1,0.8,0.4c0.2,0.3,0,0.8-0.5,0.7
	c-0.1,0-0.2,0-0.2,0c0.2,0.4,0.4,0.7,0.5,0.8C64.1,50,64.1,49.7,64.3,49.7z"></path><path class="st2" d="M60.4,56.1c0.5,0.2,1.2,0.2,1.4,0c0.2-0.2,0.6-0.8,0.9-1.1c0,0,0.1-0.1,0.1-0.1c-0.2-0.5-0.4-1-0.6-1
	c-0.3-0.1-0.5,0.6-0.7,0.4c-0.2-0.1,0-0.9-0.3-0.7c-0.4,0.2-0.4,0.5-0.5,0.9c-0.1,0.2-0.5,0.3-0.9,0.5c0.1,0.3,0.1,0.6,0.2,0.6
	C60.1,55.6,59.9,55.9,60.4,56.1z"></path><path class="st2" d="M62.2,49.3c-0.2,0.2-0.4,0.6-0.8,0.9c-0.4,0.3-0.2,0.7-0.5,0.6c-0.3-0.1-0.5-0.5-0.7-0.3
	c-0.1,0.2-0.7,0.6-0.3,0.7c0.4,0,1-0.1,1,0.4c0,0.5,0,0.4,0.2,0.6c0.2,0.2,0.4,0.1,0.7,0c0.3-0.1,0.4-0.2,0.6,0.1
	c0.2,0.3,0.2,0.7,0.5,0.2c0.3-0.4,0.4-0.6,0.4-1c0-0.4-0.2-0.9,0.3-0.5c0.4,0.4,0.7,0.6,0.9,0.7c0.1,0.2,0.5,0.6,0.6-0.2
	c0.1-0.7,0.8-0.6,0-1c-0.8-0.4-1.3-0.4-1.6-0.6c-0.3-0.1-0.4,0-0.6-0.3C62.7,49.5,62.2,49.3,62.2,49.3z"></path><path class="st1" d="M69.4,32.8c0.1,0,0.6-0.5,0.9-0.5c0.3,0,0.4,0.1,0.3,0.4c-0.1,0.3,0,0.8,0.1,0.8c0.1,0,0.1-0.3,0.4-0.5
	c0.2-0.2,0.3-0.3,0.4,0c0.1,0.3,0.3,0.7,0.4,0.5c0.1-0.2,0.3-0.5,0.2-0.9c-0.1-0.4-0.4-0.8-0.2-0.8c0.1,0,0.5-0.3,0.6-0.3
	c0.1-0.1-0.4-0.6-0.5-0.7c-0.1-0.1,0-1-0.4-0.6c-0.4,0.4-0.6,0.5-0.8,0.6c-0.2,0.1-0.4-0.2-0.5-0.3c-0.1-0.1,0-0.3-0.3,0
	c-0.2,0.3-0.2,0.3-0.3,0.7c-0.1,0.5-0.1,0.8-0.2,0.8c-0.1,0-0.4,0.3-0.4,0.3L69,32.6L69.4,32.8z"></path><line class="st5" x1="69.1" y1="32.1" x2="68.8" y2="29.7"></line><path class="st2" d="M67.9,29.7c-0.2-0.2-0.6,0.5-0.8,0.3c-0.2-0.2-0.5-0.3-0.5-0.4c-0.1-0.1-0.4-0.1-0.2-0.6
	c0.2-0.5,0.2-0.5,0.4-0.9c0.2-0.4,0.1-0.8,0.3-0.5c0.3,0.3,0.4,0.6,0.6,0.6c0.2,0,0.2,0.1,0.4,0.2c0.2,0.1,0.4,0.4,0.6,0.5
	c0.1,0.1,0.5,0.6,0.5,0.6S68.9,30.4,67.9,29.7z"></path><line class="st5" x1="71.6" y1="28.7" x2="69.9" y2="29.8"></line><path class="st1" d="M71.6,27.6c0.1-0.5-0.1-0.5,0.1-0.8c0.1-0.3,0.2-0.3,0.3-0.1c0.1,0.2,0.1,0.5,0.3,0.3c0.1-0.1-0.3-0.9,0-1.1
	c0.3-0.2,0.1-0.4,0.3-0.2c0.2,0.2,0.1,0.5,0.3,0.5c0.2,0,0.4-0.5,0.5,0c0.2,0.5-0.1,0.9-0.2,1.1c-0.1,0.2,0.2,0,0.4,0.2
	c0.2,0.2,0.1,0.4,0,0.7c-0.1,0.3-0.2,0.3,0,0.5c0.2,0.2,0.6,0.3,0.1,0.7c-0.5,0.4-0.9,0.2-0.9,0.2s0.2,0.4,0.1,0.6
	c-0.2,0.2-0.4,0.1-0.5-0.2c-0.1-0.3-0.1-0.3-0.2-0.5C71.9,29.4,71.3,29.4,71.6,27.6z"></path><path class="st3" d="M72.7,25.6c-0.2-0.2-0.3-0.3-0.3-0.3C72.4,25.3,72.5,25.4,72.7,25.6c0.1-0.1,0.1-0.1,0.2-0.2
	c-0.1-0.1-0.2-0.3-0.2-0.6c0.1-0.5,0.4-1.3,0.2-1.4c-0.2-0.2-0.3,0.4-0.6,0.7c-0.4,0.3-0.6,0-0.6,0.4c-0.1,0.4,0.1,0.4,0,0.9
	c-0.1,0.4,0.1,0.8-0.2,1.1c-0.1,0.1-0.2,0.4-0.3,0.7c0,0.1,0.1,0.2,0.1,0.2C71.3,27.4,72.2,26.3,72.7,25.6z"></path><path class="st1" d="M71.7,25.3c0.1-0.4-0.1-0.5,0-0.9c0.1-0.4,0.3-0.1,0.6-0.4c0.4-0.3,0.4-0.9,0.6-0.7c0.2,0.2-0.2,0.9-0.2,1.4
	c0,0.2,0.1,0.4,0.2,0.6c0.2-0.2,0.3-0.3,0.3-0.3c0.1,0,0.3-0.5,0.3-1.1c0-0.6-0.4-0.7-0.3-1.2c0-0.2,0.1-0.2,0.1-0.3
	c-0.2-0.3-0.4-0.6-0.5-0.9c-0.3-0.5-0.5-1.1-0.3-1.2c0.2-0.1,0.6,0.5,0.6,0.5s0.3-0.1,0-0.5c-0.3-0.4-0.6-1-0.7-1
	c-0.1,0-0.2-0.3-0.1-0.5c0.2-0.2,0.4-0.2,0.5-0.4c0-0.2,0.1-0.6,0.2-0.9c-0.1-0.2-0.2-0.4-0.4-0.7c-0.3-0.4-0.6,0.5-0.6,0.5
	s0.4,0.9,0.3,0.8c-0.2-0.1-0.3,0.8-0.4,1.1c-0.1,0.3-0.4,0-0.6,0.1c-0.2,0.1-0.1,1.1-0.3,1.8c-0.2,0.8,0.2,0.3,0.6,0
	c0.4-0.2,0.2,0.9-0.1,1.2c-0.3,0.3-0.6,0.2-1,0.1c-0.4-0.1-0.2-0.1-0.3-0.6c-0.1-0.5,0.1-0.6,0.2-1.7c0.1-1.1-0.2-0.2-0.1-0.6
	c0.1-0.3-0.1-0.4-0.5-0.8c-0.3-0.3-0.3,0.5-0.5,0.7c-0.2,0.3-0.3-0.4-0.6-0.4c-0.1,0-0.1,0-0.1,0.1c0.1,0.2,0.2,0.5,0.3,0.8
	c0.4,0.5,0.2,0.1,0.4,0.2c0.2,0.1,0.3,0.2,0.4,0.7c0.1,0.4-0.2,0.8-0.3,0.9c0.2,0.3,0.4,0.3,0.3,0.4c-0.1,0.1-0.4,0.2-0.5,0.7
	c-0.1,0.6,0.1,0.8,0.3,1.2c0.2,0.5,0,0.7-0.1,0.5c-0.2-0.2-0.3-0.3-0.6-0.1c-0.3,0.2-0.2,0.6-0.4,1.5c-0.2,0.9,0.2,0.6,0.5,0.7
	c0.3,0,0.5,0,0.8,0c0.8,0,0.9-1.3,0.9-1.3s0.2,0.3,0.3,0.4c0.1,0.1,0.3,0.8,0.5,1.2c0.1-0.3,0.2-0.6,0.3-0.7
	C71.8,26.1,71.6,25.8,71.7,25.3z"></path><path class="st2" d="M72.2,18.9c-0.2,0.2,0,0.5,0.1,0.5c0.1,0,0.4,0.6,0.7,1c0.3,0.4,0,0.5,0,0.5s-0.4-0.6-0.6-0.5
	c-0.2,0.1,0,0.7,0.3,1.2c0.1,0.2,0.3,0.6,0.5,0.9c0.1-0.1,0.2-0.1,0.4-0.3c0.3-0.2,0.1-0.5,0-0.6c-0.1-0.1-0.1-0.5,0.2-0.8
	c0.3-0.3,0.2-1.1,0.1-1.5c0-0.5-0.3-0.3-0.3-0.5c-0.1-0.2-0.4-0.7-0.6-0.9c-0.1-0.1-0.1-0.2-0.2-0.2c-0.1,0.3-0.1,0.6-0.2,0.9
	C72.7,18.7,72.4,18.7,72.2,18.9z"></path><path class="st2" d="M69.7,21c-0.1-0.5-0.2-0.6-0.4-0.7c-0.2-0.1,0,0.3-0.4-0.2c-0.2-0.2-0.3-0.5-0.3-0.8c-0.1,0.1,0,0.4,0,0.6
	c0,0.2,0.4,0.9,0.6,1.5c0.1,0.2,0.1,0.3,0.2,0.4C69.5,21.7,69.8,21.3,69.7,21z"></path><path class="st1" d="M61.8,61.6c-0.3-0.3-0.3-0.7,0-0.9c0.3-0.2,0.5,0.5,0.6,0.6c0.1,0.2,0.8,1,1.5,1.9c0.1,0.2,0.3,0.3,0.4,0.5
	c0,0,0-0.1,0.1-0.1c0.3-0.3,0.4-1,0.4-1c0,0-1-0.6-1-0.6s-0.7-0.5-0.6-0.7c0.1-0.2,0,0.2,0.1-0.2c0-0.4,0.2-0.5,0.4-1.2
	c0.2-0.7,0.3-0.9,0.3-1.3c0-0.4-0.3-2.3-0.5-2.3c-0.1,0-0.8,0.4-0.9,0.6c-0.1,0.2,0,0.7-0.1,1c0,0.3,0.3,0.6-0.2,0.5
	c-0.5-0.1-0.7-0.6-0.6-0.2c0.1,0.4,0.3,1.6,0.3,1.6L61.6,60l-0.9,0.4c0,0,0.7-0.6,0.2-1c-0.5-0.5-0.7-0.6-0.8-1.1
	c-0.1-0.5,0.1-1.1,0.1-1.1s-0.3-0.2-0.4-0.4c0-0.2,0-0.2-0.4-0.8c-0.4-0.6-0.6-0.9-0.7-1.1c0-0.2-0.8-1.2-0.9-1.4
	c-0.1-0.1-0.4-0.1-0.7,0.1c-0.2,0.3-0.4,0-0.7,0.8c-0.3,0.8-0.5,0.9-0.5,1.4c0,0.5,0.4,1.1,0.5,1c0.1,0,0.5,0,0.8,0.1
	c0.3,0.1,0,0.7-0.1,0.8c-0.1,0.1-0.3-0.1-0.4,0.6c-0.1,0.4-0.1,0.7-0.1,1c0.3,0.1,0.5,0.3,0.8,0.4c0.7,0.2,0.6-0.2,0.7,0.8
	c0.2,1,0.1-0.7,0.2,1c0,0,0.9-0.1,1,0.1c0,0.3,0.3,0.8,0.3,0.8c0.4,0.3,0.4,0.6,0.4,0.6s0.2,0.5,0.1,0.6c0,0.1-0.4,1.3-0.4,1.3
	s0.9-0.3,1.1-0.4c0.2,0,0.7,0.3,0.7,0.3c0.6-0.4,0.9-1.5,0.9-1.5s0.2,0.1,0.4,0.2l-0.5-1C62.5,62.3,62.1,61.9,61.8,61.6z"></path><path class="st2" d="M58.3,60.4c-0.2-1-0.1-0.5-0.7-0.8c-0.3-0.1-0.6-0.2-0.8-0.4c0,0.2,0.1,0.3,0.2,0.4c0.2,0.2,0,1.2,0,1.2
	s-0.2-0.1,0.3,0.3c0.5,0.4,1.3,0.2,1.3,0.2C58.4,59.8,58.4,61.4,58.3,60.4z"></path><path class="st2" d="M63.3,63.6c0.1,0.3,0.1,1,0.4,0.8c0.3-0.2,0.4-0.5,0.6-0.7c-0.1-0.1-0.3-0.3-0.4-0.5c-0.7-0.9-1.4-1.7-1.5-1.9
	c-0.1-0.2-0.3-0.9-0.6-0.6c-0.3,0.2-0.3,0.6,0,0.9c0.3,0.3,0.7,0.7,0.7,0.7l0.5,1C63.1,63.4,63.3,63.5,63.3,63.6z"></path><path class="st3" d="M58,55.4c0,0,0.2,0.9,0.2,1.1c-0.1,0.2,0.3,0.1,0.3,0.6c0,0.5-0.3,0.6-0.3,0.8c0,0.2,0.2,0.3,0.5,0.5
	c0.2,0.2,0.4,0.5,0.6-0.2c0.1-0.7,0.5-0.9,0.1-1.1c-0.4-0.2-0.2-0.7-0.3-0.7c-0.1-0.1-0.4-0.4-0.4-0.4L58,55.4z"></path><path class="st0" d="M69.5,70.6c0.3-8,1.8-16.2,5-23.6c2.8-6.8,6.8-13.7,11.3-19.5c0.1-0.1,0.6-0.7,0.7-0.9c0.1-0.1,0.1-0.2,0.3-0.2
	c0.1,0.1,0.1,0.1,0.2,0.2c0,0.3-0.3,0.5-0.4,0.6c0,0-0.5,0.6-0.5,0.6c-1.6,2.1-4.4,6.3-5.8,8.7c-3.9,6.9-7.3,14.3-8.8,22.2
	c-0.8,3.9-1.2,7.9-1.4,11.8C70,70.5,69.7,70.6,69.5,70.6C69.5,70.6,69.5,70.6,69.5,70.6z"></path><path class="st1" d="M83.5,40c0.2-0.4-0.2-0.9,0-1.6c0.2-0.7,0.3-1.4,0.6-1.3c0.3,0.1,1,0.3,1.2,0.1c0.3-0.2,0.4-0.4,0.3-0.8
	c-0.1-0.4-0.2-0.9-0.2-1c-0.1-0.1-0.4,0.1-0.6-0.4c-0.3-0.5-0.3-1.2-0.8-1.3c-0.5-0.1-0.8-0.1-0.9-0.2c-0.1-0.1-0.6-0.5-0.6-0.5
	c-0.3,0.1-0.6,0.2-0.8,0.3c-0.1-0.7-0.3-1-0.1-1.6c0.2-0.6,0.2-1.9,0.2-1.9c0,0-1.1,1-1.7,1c-0.6,0.1-1.2,0-1.4,0
	c-0.2-0.1-1.2,0-1.1,0.8c0.1,0.8-0.1,1.4-0.1,1.6c0,0.2,0.1,0.8,0.3,1c0.2,0.2,0.7,0.5,0.5,0.8c-0.2,0.3-0.8,0.2-1.2,0
	c-0.4-0.2-1.4-0.6-1.7-0.5c-0.1,0-0.1,0.1-0.2,0.1c0.1,0.5-0.1,0.8-0.1,0.8c0.1,0.1,0.1,0.2,0.2,0.3c0,0,0,0,0.4,0
	c0.4,0,0.7,0.7,0.8,0.7c0,0,0,0.4,0,0.8c0.2,0.1,0.2-0.2,0.6-0.1c0.4,0.1,0.6,0.4,0.5,0.6c0,0.2,0.8,1.1,0.6,1.2
	c-0.2,0.1-0.7,0-0.5,0.4c0.1,0.4,0.6,0.8,0.6,1.1c0,0.2,0.1,0.7,0.4,0.6c0.3,0,1-0.5,1.4-0.7c0.4-0.2,0.5-1,0.9-0.4
	c0.4,0.6,0.5,0.9,0.7,1.1c0.2,0.2,0.5,0.3,0.7,0.2C82.5,40.9,83.3,40.3,83.5,40z"></path><path class="st2" d="M81.1,35.4c0,0,0.6-0.9,0.4-1.2c-0.2-0.3-0.7-0.7-0.8-0.2c-0.1,0.5-0.4,1-0.5,0.9c-0.1-0.1-0.2-0.4-0.3-0.7
	c-0.1-0.2-0.1-0.4-0.1-0.6c-0.1-0.5,0,1-0.5,0.7c-0.5-0.3-1.1-0.4-1.1-0.6c-0.1-0.2-0.2-0.2,0.2,0.6c0.4,0.8,0.6,1.4,0.7,1.8
	c0.1,0.4,0.3,0.9,0.2,1c-0.1,0.1-0.5,0.3-0.9,0.1c-0.4-0.1-0.5-0.2-0.6-0.2c-0.1-0.1-0.2,0.6,0.2,0.9c0.3,0.3,0.8,0.4,1.1,0.2
	c0.3-0.2,0.7-1,1-0.7c0.2,0.3,0.5,0.8,0.6,1.1c0.1,0.3,0.5,0.7,0.7,1c0.2,0.3,0.5,0.4,0.7,0.3c0.2-0.2,0.4-0.2,0-0.7
	c-0.4-0.5-0.6-0.9-0.8-1.1c-0.1-0.2-1.4-1.2-1-1.3c0.4-0.1,0.4-0.5,0.8,0c0.4,0.5,0.2,0.5,0.5,0.8c0.3,0.3,0.6-0.1,0.5-0.3
	c-0.2-0.2,0.3-0.3,0.5-0.4c0.1-0.2,0.1-0.4,0.6-0.5c0.4,0,1-0.1,1-0.1c0,0,0.3-0.5-0.1-0.6C83.3,35.4,81.1,35.4,81.1,35.4z"></path><path class="st3" d="M80.9,32.9c-0.2-0.2-0.2-0.9-0.2-1.1c-0.1-0.2-0.3-0.4-0.6-0.2c-0.3,0.2-0.1,0.5-0.5,0.3
	c-0.4-0.1-0.7-0.3-0.9-0.1c-0.2,0.2-0.6,0.3-0.2,0.5c0.4,0.1,0.4,0.6,0.8,0.4c0.4-0.2,0-0.1,0.4-0.2c0.4-0.1,0.4-0.1,0.4-0.1
	C80.3,32.7,80.6,32.8,80.9,32.9z"></path><path class="st3" d="M84.8,35.7c0,0,1.3,0.7,0.8,0.7c-0.5,0-0.6,0.2-0.7,0.1c-0.1-0.1-0.2-0.3-0.2-0.3C84.7,36,84.8,35.9,84.8,35.7z
	"></path><path class="st2" d="M75.5,35.5c-0.4,0-0.4,0-0.4,0c-0.1-0.1-0.1-0.2-0.2-0.3c0,0,0.3-0.3,0.1-0.8c-0.3,0.2-0.6,0.4-0.8,0.2
	c-0.2-0.2-0.1-1.1-0.5-0.7c-0.4,0.4-0.5,1-0.5,1.4c0.1,0.4,0,0.4,0.7,0.6c0.7,0.2,0.2,0.2,0.6,0.4c0.4,0.2,0.4-0.5,0.9-0.3
	c0.5,0.3,0.4,0.7,0.7,0.8c0,0,0.1,0,0.1,0c0-0.4,0-0.8,0-0.8C76.2,36.2,75.9,35.5,75.5,35.5z"></path><path class="st6" d="M72.2,42C72.2,42,72.2,42,72.2,42C72.2,42,72.2,42,72.2,42z"></path><path class="st1" d="M72.6,48.4c0.1-0.3,0.2-0.6,0.5-0.7c0.3-0.2,0.1,0.5,0.3,0.6c0.2,0.1,0.4-0.4,0.7-0.3c0.2,0.1,0.3,0.5,0.5,0.9
	c0.3-0.2,0.7,0.1,0.9-0.3c0.2-0.3-0.2-0.4,0.1-0.9c0.4-0.4,1,0,1.1,0c0.2,0,0.4-0.2,0.5-0.5c0.1-0.3,0.1-0.3,0.2-0.5
	c0.1-0.2,0.3-0.4,0.3-0.4c0,0,0.1,1,0.1,1.2c0.1,0.2,0,0.4,0.3,0.1c0.3-0.3,0.4-0.3,0.4-0.3c0,0,0.2,0.8,0.5,0.6
	c0.3-0.2,0.2-1.1,0.1-1.2c-0.1-0.1,0.7-0.5,0.8-0.8c0.2-0.3-0.5-0.6-0.6-0.6c-0.2,0-0.7-0.2-0.7-0.2c0.2-0.2,0.4-0.4,0.5-0.6
	c-0.2,0-0.4-0.1-0.6-0.1c0-0.2-0.1-0.4-0.1-0.6c-0.1-0.4-0.4-0.3-0.4-0.6c0-0.3-0.1-0.6,0.2-0.7c0.3-0.1,0.5-0.1,0.8-0.1
	c0.3,0,0.7-0.1,0.3-0.5c-0.5-0.3-0.8-0.3-1.1-0.4c-0.4-0.1-0.5-0.3-0.7-0.6c-0.1-0.2,0-0.6-0.2-0.6c-0.2,0,0.2,0.6-0.4,0.3
	c-0.6-0.3-0.8-0.5-0.9-0.6c-0.1-0.1-0.2-0.1-0.3,0c-0.1,0.2-0.1,0.6-0.3,0.6c-0.2,0-0.5-0.3-0.8,0.4c-0.3,0.7,0.1,1.4,0.7,1.6
	c0.1,0,0.2,0.1,0.3,0.1c0.2-0.2,0.6-0.3,0.9-0.4c0.7-0.1,0.9-0.3,0.9,0c0,0.2,0.1,0.7,0.1,0.7c0.3,0.4-0.1,0.4,0,0.7
	c0.1,0.3,0.5,0.5,0.2,0.7c-0.3,0.2-0.2-0.1-0.5-0.1c-0.3,0-0.6,0.2-0.8,0.1c-0.2-0.1-0.2,0.2-0.4,0c-0.1-0.1-0.3-0.4-0.4-0.8
	c-0.3-0.1-0.5-0.1-0.7-0.3c-0.2-0.3-1.2-2-1.1-1.4c0.1,0.6,0.2,0.6,0,0.9c-0.2,0.3-0.4,0.3-0.5,0.4c-0.1,0.1-0.5,0.1-0.7,0
	c-0.2-0.1-0.7-0.4-0.7,0.2c0,0.6,0.2,0.9,0,1c-0.2,0.2-0.3-0.1-0.4,0.2c-0.1,0.3-0.7,0.5-0.4,0.9c0.3,0.4,0.8,1,0.8,1
	c0,0,0,0.3-0.3,0.5c-0.3,0.2-0.3,0.6-0.2,0.7c0.1,0.1,0.2,0.1,0.4,0.4c0,0.1,0.1,0.2,0.1,0.3C72.1,48.7,72.5,48.6,72.6,48.4z"></path><path class="st3" d="M76.3,44.7c0.2,0.1,0.5-0.2,0.8-0.1c0.3,0,0.3,0.3,0.5,0.1c0.3-0.2-0.1-0.4-0.2-0.7c-0.1-0.3,0.3-0.3,0-0.7
	c0,0-0.1-0.5-0.1-0.7c0-0.2-0.3,0-0.9,0c-0.4,0-0.7,0.2-0.9,0.4c0.4,0.1,0.6,0.2,0.7,0.5c0.2,0.3,0,0.7-0.5,0.6c-0.1,0-0.2,0-0.2,0
	c0.2,0.3,0.3,0.7,0.4,0.8C76,44.9,76.1,44.7,76.3,44.7z"></path><path class="st2" d="M72.3,49.9c0.4,0.2,1.1,0.2,1.2,0.1c0.2-0.2,0.6-0.6,0.9-0.9c0,0,0.1,0,0.1-0.1c-0.2-0.4-0.3-0.9-0.5-0.9
	c-0.2-0.1-0.5,0.4-0.7,0.3c-0.2-0.1,0.1-0.8-0.3-0.6c-0.3,0.2-0.4,0.4-0.5,0.7c-0.1,0.2-0.5,0.2-0.8,0.3c0.1,0.3,0.1,0.5,0.2,0.6
	C72,49.4,71.9,49.7,72.3,49.9z"></path><path class="st2" d="M74.2,44.1c-0.2,0.1-0.4,0.5-0.8,0.7c-0.4,0.2-0.2,0.6-0.5,0.5c-0.2-0.1-0.5-0.5-0.6-0.3
	c-0.1,0.2-0.6,0.5-0.3,0.6c0.4,0.1,1,0,0.9,0.4c0,0.4,0,0.3,0.2,0.5c0.2,0.2,0.3,0.1,0.6,0.1c0.3-0.1,0.4-0.2,0.6,0.2
	c0.2,0.3,0.2,0.6,0.4,0.3c0.3-0.3,0.4-0.5,0.4-0.8c0-0.3-0.1-0.8,0.3-0.4c0.4,0.4,0.7,0.6,0.8,0.7c0.1,0.2,0.4,0.5,0.5-0.1
	c0.2-0.6,0.9-0.4,0.1-0.8c-0.7-0.4-1.2-0.5-1.5-0.7c-0.2-0.1-0.3-0.1-0.6-0.4C74.7,44.3,74.2,44.1,74.2,44.1z"></path><path class="st1" d="M83.6,31.8c0.1,0,0.8-0.2,1.2,0c0.4,0.1,0.5,0.3,0.3,0.5c-0.2,0.2-0.2,0.6,0,0.7c0.1,0,0.2-0.2,0.5-0.3
	c0.3-0.1,0.4-0.1,0.5,0.2c0.1,0.3,0.2,0.7,0.4,0.6c0.2-0.1,0.5-0.3,0.4-0.7c-0.1-0.4-0.3-0.8-0.2-0.7c0.2,0.1,0.7,0.1,0.8,0
	c0.1,0-0.4-0.7-0.5-0.8c-0.1-0.1,0.2-0.8-0.4-0.7c-0.5,0.1-0.9,0.1-1.1,0.1c-0.2,0-0.5-0.4-0.6-0.5c-0.1-0.1,0-0.3-0.3-0.1
	c-0.3,0.2-0.3,0.1-0.5,0.5c-0.1,0.4-0.2,0.6-0.4,0.6c-0.2-0.1-0.5,0-0.5,0c-0.1,0.1-0.2,0.3-0.2,0.4C83.3,31.5,83.5,31.6,83.6,31.8z
	"></path><path class="st7" d="M83.4,31c-0.1-0.7-0.1-1.5-0.2-2.3"></path><path class="st2" d="M82.2,28.4c-0.3-0.2-0.8,0.2-1-0.1c-0.3-0.3-0.6-0.5-0.6-0.7c-0.1-0.1-0.5-0.3-0.2-0.7c0.3-0.4,0.3-0.3,0.6-0.7
	c0.3-0.3,0.2-0.7,0.5-0.3c0.3,0.4,0.5,0.7,0.7,0.9c0.2,0.1,0.2,0.2,0.5,0.4c0.3,0.2,0.5,0.6,0.7,0.7c0.2,0.2,0.5,0.8,0.5,0.8
	C83.7,28.8,83.3,29.5,82.2,28.4z"></path><path class="st7" d="M87,29.4c-0.8,0-1.6,0-2.3,0"></path><path class="st1" d="M87.1,28.5c0.2-0.4,0-0.4,0.2-0.6c0.2-0.2,0.3-0.1,0.4,0.1c0.1,0.2,0.1,0.5,0.3,0.4c0.2,0-0.2-0.9,0.2-0.9
	c0.4,0,0.2-0.3,0.4,0c0.2,0.3,0.1,0.5,0.4,0.6c0.3,0.1,0.6-0.2,0.7,0.3c0.1,0.5-0.3,0.7-0.5,0.8c-0.1,0.1,0.2,0.1,0.5,0.4
	c0.2,0.3,0,0.4-0.2,0.6c-0.2,0.2-0.3,0.1-0.1,0.4c0.2,0.3,0.7,0.6,0.1,0.7c-0.7,0-1.2-0.3-1.2-0.3c0,0,0.2,0.4,0,0.5
	c-0.2,0.1-0.6-0.2-0.6-0.5c-0.1-0.3-0.1-0.3-0.2-0.5C87.3,30.1,86.6,29.9,87.1,28.5z"></path><path class="st3" d="M89,27.5c-0.2-0.3-0.4-0.5-0.4-0.5C88.7,27,88.8,27.2,89,27.5c0.1,0,0.2,0,0.3-0.1c-0.1-0.2-0.2-0.4-0.2-0.6
	c0.2-0.4,0.8-0.8,0.6-1.1c-0.2-0.3-0.4,0.2-0.9,0.2c-0.5,0-0.8-0.4-0.9-0.1c-0.1,0.3,0,0.4-0.1,0.8c-0.2,0.3,0,0.7-0.4,0.8
	c-0.2,0.1-0.4,0.2-0.6,0.4c0,0.1,0.1,0.2,0.1,0.2C86.9,28.2,88.2,27.7,89,27.5z"></path><path class="st1" d="M87.7,26.6c0.2-0.3,0-0.5,0.1-0.8c0.1-0.3,0.4,0.1,0.9,0.1c0.5,0,0.7-0.5,0.9-0.2c0.2,0.3-0.4,0.7-0.6,1.1
	c-0.1,0.2,0,0.4,0.2,0.6c0.2-0.1,0.4-0.1,0.5-0.1c0.2,0.1,0.5-0.2,0.6-0.7c0.1-0.5-0.4-0.9-0.2-1.2c0.1-0.1,0.1-0.2,0.2-0.2
	c-0.2-0.4-0.5-0.8-0.6-1.1c-0.3-0.7-0.5-1.4-0.2-1.3c0.3,0.1,0.8,0.9,0.8,0.9c0,0,0.4,0.1,0-0.5c-0.3-0.6-0.6-1.3-0.8-1.4
	c-0.2-0.1-0.3-0.5,0-0.5c0.3,0,0.7,0.1,0.7,0c0.1-0.2,0.2-0.4,0.4-0.6c-0.2-0.3-0.3-0.5-0.5-0.9c-0.3-0.5-1-0.1-1-0.1
	c0,0,0.5,1.1,0.3,1c-0.2-0.2-0.5,0.5-0.7,0.7c-0.2,0.2-0.6-0.3-0.9-0.4c-0.3-0.1-0.3,0.9-0.7,1.5c-0.4,0.5,0.2,0.4,0.9,0.5
	c0.6,0.1,0.1,0.9-0.3,1c-0.4,0.1-0.8-0.2-1.4-0.6c-0.6-0.4-0.3-0.2-0.3-0.7c0-0.5,0.2-0.5,0.4-1.5c0.2-1-0.2-0.3,0-0.6
	c0.2-0.3-0.2-0.5-0.6-1.1c-0.5-0.6-0.4,0.3-0.8,0.4c-0.4,0.1-0.4-0.6-0.7-0.7c-0.1,0-0.1,0-0.2,0c0.1,0.3,0.2,0.7,0.4,1
	c0.5,0.7,0.3,0.2,0.6,0.5c0.3,0.2,0.4,0.4,0.5,0.9c0.1,0.4-0.3,0.6-0.6,0.7c0.2,0.4,0.5,0.6,0.4,0.6c-0.1,0-0.5-0.1-0.8,0.4
	c-0.2,0.5,0,0.8,0.2,1.3c0.2,0.5,0,0.6-0.2,0.4c-0.2-0.2-0.4-0.5-0.8-0.5c-0.4,0-0.3,0.5-0.7,1.2c-0.4,0.7,0.2,0.7,0.5,0.9
	c0.4,0.2,0.6,0.3,1,0.4c1,0.5,1.4-0.6,1.4-0.6c0,0,0.3,0.4,0.3,0.5c0.1,0.1,0.3,0.9,0.5,1.3c0.2-0.2,0.4-0.3,0.6-0.4
	C87.6,27.3,87.5,27,87.7,26.6z"></path><path class="st2" d="M89.4,21.3c-0.3,0-0.1,0.4,0,0.5c0.2,0.1,0.5,0.8,0.8,1.4c0.3,0.6,0,0.5,0,0.5c0,0-0.5-0.8-0.8-0.9
	c-0.3-0.1-0.1,0.7,0.2,1.3c0.1,0.3,0.4,0.7,0.6,1.1c0.1-0.1,0.3,0,0.7,0.1c0.5,0.1,0.2-0.4,0.1-0.5c-0.1-0.1,0-0.5,0.4-0.6
	c0.4-0.1,0.4-0.8,0.5-1.2c0-0.4-0.3-0.5-0.4-0.7c-0.1-0.2-0.5-0.9-0.8-1.3c-0.1-0.1-0.1-0.2-0.2-0.3c-0.2,0.2-0.3,0.5-0.4,0.6
	C90.1,21.4,89.7,21.3,89.4,21.3z"></path><path class="st2" d="M85.5,21.3c-0.1-0.5-0.2-0.7-0.5-0.9c-0.3-0.2-0.1,0.3-0.6-0.5c-0.2-0.3-0.3-0.7-0.4-1c-0.1,0,0,0.4,0,0.6
	c0,0.3,0.4,1.1,0.6,1.8c0.1,0.2,0.2,0.4,0.3,0.6C85.2,21.9,85.6,21.7,85.5,21.3z"></path><path class="st1" d="M73.3,54.5c-0.2-0.3-0.2-0.6,0-0.8c0.3-0.2,0.4,0.4,0.5,0.5c0,0.2,0.6,0.8,1.1,1.5c0.1,0.2,0.2,0.3,0.3,0.4
	c0,0,0,0,0.1-0.1c0.2-0.2,0.4-0.8,0.4-0.8c0,0-0.8-0.5-0.8-0.5c0,0-0.5-0.4-0.4-0.6c0.1-0.2,0,0.2,0.1-0.2c0.1-0.4,0.2-0.4,0.4-1
	c0.2-0.5,0.3-0.7,0.3-1.1c0-0.3-0.1-1.9-0.2-1.9c-0.1,0-0.7,0.3-0.8,0.4c-0.1,0.2-0.1,0.6-0.1,0.8c-0.1,0.3,0.2,0.5-0.2,0.4
	c-0.4-0.1-0.6-0.5-0.5-0.2c0,0.3,0.2,1.3,0.2,1.3c-0.1,0.1-0.2,0.2-0.3,0.3c-0.2,0.1-0.5,0.2-0.7,0.3c0,0,0.6-0.5,0.2-0.9
	c-0.4-0.4-0.5-0.5-0.6-1c-0.1-0.4,0.1-0.9,0.1-0.9c0,0-0.3-0.2-0.3-0.4c0-0.2,0-0.2-0.3-0.7c-0.3-0.5-0.5-0.8-0.6-1
	c0-0.2-0.7-1.1-0.8-1.3c-0.1-0.1-0.4-0.1-0.6,0.1c-0.2,0.2-0.3-0.1-0.6,0.7c-0.3,0.7-0.4,0.8-0.4,1.3c0,0.5,0.3,1,0.4,0.9
	c0.1,0,0.4,0,0.7,0.1c0.2,0.1,0,0.6,0,0.7c-0.1,0.1-0.2-0.1-0.3,0.6c-0.1,0.4-0.1,0.7,0,0.9c0.2,0.1,0.4,0.2,0.7,0.3
	c0.5,0.2,0.4-0.2,0.6,0.7c0.1,0.8,0.1-0.6,0.1,0.8c0,0,0.8-0.1,0.8,0.1c0,0.2,0.2,0.7,0.2,0.7c0.3,0.2,0.3,0.5,0.3,0.5
	c0,0,0.1,0.4,0.1,0.5c0,0.1-0.3,1.1-0.3,1.1c0,0,0.7-0.3,0.9-0.4c0.2,0,0.5,0.2,0.5,0.2c0.5-0.4,0.8-1.3,0.8-1.3
	c0,0,0.2,0.1,0.3,0.1c-0.1-0.3-0.2-0.6-0.3-0.8C73.8,55,73.5,54.7,73.3,54.5z"></path><path class="st2" d="M70.5,53.6c-0.1-0.8,0-0.5-0.6-0.7c-0.2-0.1-0.5-0.2-0.7-0.3c0,0.2,0.1,0.3,0.1,0.3c0.2,0.1,0,1.1,0,1.1
	c0,0-0.2-0.1,0.2,0.2c0.4,0.3,1,0.2,1,0.2C70.5,53,70.6,54.4,70.5,53.6z"></path><path class="st2" d="M74.4,56.1c0.1,0.2,0,0.8,0.3,0.6c0.3-0.2,0.3-0.4,0.5-0.6c-0.1-0.1-0.2-0.2-0.3-0.4c-0.5-0.7-1.1-1.4-1.1-1.5
	c0-0.1-0.2-0.7-0.5-0.5c-0.3,0.2-0.3,0.5,0,0.8c0.2,0.3,0.5,0.6,0.5,0.6c0.1,0.3,0.2,0.6,0.3,0.8C74.2,55.9,74.4,56,74.4,56.1z"></path><path class="st3" d="M70.2,49.2c0,0,0.2,0.8,0.1,1c-0.1,0.2,0.2,0.1,0.2,0.5c0,0.5-0.3,0.5-0.2,0.7c0,0.2,0.2,0.3,0.4,0.5
	c0.2,0.2,0.3,0.5,0.5-0.1c0.1-0.6,0.4-0.8,0.1-0.9c-0.3-0.2-0.2-0.6-0.3-0.7c-0.1-0.1-0.3-0.4-0.3-0.4
	C70.6,49.6,70.4,49.4,70.2,49.2z"></path><g>
	<path class="st0" d="M47.4,74.2c-4.9-8.1-9.1-16.7-12.3-25.7c-3-8.1-6.1-16.9-9-25.1c-0.1-0.2-0.4-1.1-0.4-1.3
		c0-0.1-0.1-0.3-0.1-0.5l0.3-0.1c0.2,0.2,0.3,0.6,0.4,0.8c0,0,0.3,0.8,0.3,0.8c1.1,3,3.2,8.6,4.3,11.7c3.4,8.8,6.4,17.8,10.7,26.3
		c2.1,4.2,4.4,8.3,6.9,12.3L47.4,74.2L47.4,74.2z"></path>
</g><path class="st1" d="M36.3,34.8c-0.2-0.5-1-0.5-1.5-1.2c-0.5-0.7-1.2-1.4-0.9-1.5c0.3-0.2,1-0.6,1-1.1c0-0.4-0.1-0.7-0.6-0.9
	c-0.5-0.2-1-0.5-1.1-0.6c-0.2-0.1-0.1,0.4-0.8,0.3c-0.7-0.1-1.3-0.6-1.7-0.2c-0.4,0.4-0.6,0.6-0.8,0.6c-0.2,0-0.8,0.2-0.8,0.2
	l-0.3,1c-0.7-0.4-1.1-0.4-1.5-1c-0.4-0.6-1.6-1.5-1.6-1.5s0.2,1.7-0.2,2.3c-0.4,0.6-0.8,1.2-1,1.3c-0.2,0.2-0.9,1.1-0.1,1.6
	c0.7,0.5,1.2,1.1,1.3,1.2c0.2,0.1,0.7,0.4,1.1,0.5c0.3,0,0.9-0.3,1,0.1c0.1,0.4-0.4,0.9-0.9,1.1c-0.5,0.2-1.5,0.8-1.7,1.1
	c0,0.1,0,0.2-0.1,0.3c0.5,0.3,0.5,0.7,0.5,0.7l0.3,0c0,0,0,0,0.3-0.4c0.3-0.4,1.1-0.1,1.2-0.2c0,0,0.4,0.3,0.7,0.6
	c0.2-0.1,0-0.4,0.3-0.6c0.4-0.3,0.8-0.2,0.9-0.1c0.2,0.2,1.6,0.1,1.5,0.4c-0.1,0.3-0.5,0.6-0.1,0.8c0.5,0.2,1.2,0.1,1.4,0.3
	c0.2,0.2,0.7,0.4,0.9,0.1c0.2-0.3,0.3-1.3,0.5-1.8s-0.6-1.2,0.3-1.1c0.9,0.1,1.2,0.2,1.6,0.2c0.3-0.1,0.6-0.3,0.7-0.5
	C36.5,36.5,36.5,35.3,36.3,34.8z"></path><path class="st2" d="M30.3,33.5c0,0-0.4-1.2-0.8-1.3s-1.1,0.1-0.7,0.6s0.6,1.1,0.4,1.2c-0.1,0-0.5-0.1-0.8-0.2
	c-0.2-0.1-0.4-0.2-0.6-0.3c-0.5-0.3,0.9,0.7,0.3,1c-0.6,0.3-1.1,0.7-1.3,0.6c-0.2-0.1-0.3,0.1,0.7,0.3c0.9,0.2,1.7,0.5,2.1,0.7
	s1.1,0.4,1,0.6c0,0.2-0.1,0.6-0.6,1c-0.4,0.3-0.5,0.3-0.7,0.4s0.4,0.6,0.9,0.5c0.5-0.1,0.9-0.4,1-0.8c0.1-0.4-0.3-1.4,0.1-1.4
	c0.4,0,1.1,0.2,1.5,0.3s1,0.1,1.4,0.1c0.4,0,0.8-0.2,0.8-0.4c0-0.3,0.1-0.5-0.7-0.5c-0.7,0-1.3-0.1-1.6-0.1c-0.3,0-2.1,0.3-1.9-0.1
	c0.2-0.5-0.2-0.8,0.6-0.7c0.7,0.1,0.6,0.3,1.1,0.1c0.5-0.1,0.3-0.7,0-0.7c-0.3,0,0-0.5-0.1-0.7c-0.1-0.2-0.3-0.5,0-0.9
	c0.3-0.4,0.6-1,0.6-1s-0.3-0.7-0.7-0.4C31.9,31.4,30.3,33.5,30.3,33.5z"></path><path class="st3" d="M28,31.8c-0.3,0-0.9-0.5-1.1-0.6c-0.2-0.1-0.5,0-0.6,0.4c0,0.4,0.4,0.5-0.1,0.7c-0.4,0.3-0.7,0.4-0.7,0.8
	c0,0.3-0.2,0.8,0.3,0.5s0.8,0.1,0.9-0.5c0.1-0.5-0.1-0.1,0.1-0.5c0.2-0.4,0.2-0.4,0.2-0.4L28,31.8z"></path><path class="st3" d="M33.1,30.3c0,0,1.4-0.7,1.1-0.2c-0.3,0.5-0.2,0.7-0.3,0.8c-0.1,0.1-0.4,0-0.4,0L33.1,30.3z"></path><path class="st2" d="M26.3,38.6C26,39,26,39,26,39l-0.3,0c0,0,0-0.4-0.5-0.7c-0.1,0.4-0.1,0.9-0.4,0.9c-0.3,0-1-0.7-1-0.1
	c0,0.6,0.4,1.2,0.8,1.5c0.4,0.2,0.4,0.3,1.1-0.2c0.7-0.5,0.3,0,0.8-0.2c0.5-0.2-0.1-0.8,0.5-1c0.6-0.3,0.9,0.2,1.3,0
	c0,0,0.1,0,0.1,0c-0.4-0.3-0.7-0.6-0.7-0.6C27.5,38.5,26.7,38.2,26.3,38.6z"></path><path class="st4" d="M28.9,46.5C28.9,46.5,28.9,46.5,28.9,46.5C28.9,46.5,28.9,46.5,28.9,46.5z"></path><path class="st1" d="M34.4,51.4c-0.1-0.3-0.3-0.6-0.1-1c0.2-0.4,0.5,0.3,0.8,0.3s0.1-0.7,0.4-0.9c0.2-0.1,0.7,0.2,1.3,0.4
	c0.1-0.4,0.7-0.6,0.6-1c-0.1-0.5-0.6-0.2-0.6-0.8c0-0.7,1-0.9,1.1-1c0.1-0.2,0.2-0.5,0.1-0.8s-0.2-0.3-0.2-0.5
	c-0.1-0.2-0.1-0.6-0.1-0.6s0.9,0.8,1.2,0.9c0.3,0.1,0.4,0.3,0.4-0.1c0-0.4,0.1-0.6,0.1-0.6s0.9,0.5,1,0.1c0.1-0.4-0.9-1.1-1-1.2
	c-0.1,0,0.1-1,0-1.4c-0.1-0.4-0.9,0-1.1,0.1c-0.2,0.1-0.8,0.4-0.8,0.4l0-0.9l-0.6,0.4l-0.6-0.4c-0.4-0.2-0.6,0.1-0.9-0.1
	c-0.3-0.2-0.6-0.4-0.5-0.7c0.1-0.3,0.3-0.5,0.5-0.8c0.2-0.3,0.5-0.8-0.2-0.6c-0.7,0.1-0.9,0.5-1.3,0.7c-0.4,0.3-0.7,0.2-1.1,0.1
	c-0.3-0.1-0.5-0.4-0.7-0.2c-0.2,0.2,0.7,0.3,0,0.6c-0.7,0.3-1.1,0.3-1.3,0.3c-0.2,0-0.2,0.1-0.2,0.3c0,0.2,0.4,0.5,0.2,0.7
	c-0.2,0.2-0.7,0.1-0.4,1c0.3,0.8,1.2,1,1.9,0.7c0.1-0.1,0.2-0.1,0.3-0.2c0.1-0.3,0.2-0.8,0.5-1.1c0.5-0.6,0.5-1,0.7-0.9
	c0.2,0.2,0.8,0.5,0.8,0.5c0.6,0,0.3,0.4,0.6,0.6c0.3,0.2,0.9,0,0.8,0.4c-0.1,0.4-0.3,0.1-0.6,0.4S35,45,34.8,45.1
	c-0.2,0.1,0,0.4-0.3,0.3c-0.2,0-0.6-0.1-1.1-0.3c-0.3,0.2-0.5,0.4-0.8,0.4c-0.4,0-2.7-0.6-2.2-0.2c0.6,0.4,0.7,0.3,0.7,0.7
	s-0.1,0.6-0.2,0.7c-0.1,0.2-0.3,0.5-0.6,0.6c-0.3,0.1-1,0.3-0.4,0.8c0.5,0.5,0.9,0.5,0.8,0.8c0,0.3-0.4,0.2-0.3,0.5
	c0.1,0.4-0.3,1,0.3,1.1c0.6,0.1,1.6,0.1,1.6,0.1s0.3,0.3,0.1,0.7c-0.1,0.4,0.2,0.7,0.4,0.8s0.3-0.1,0.7,0.1c0.1,0,0.2,0.1,0.3,0.2
	C34.1,52,34.4,51.6,34.4,51.4z"></path><path class="st3" d="M34.8,45.1c0.2-0.1,0.3-0.6,0.6-0.8s0.5,0,0.6-0.4c0.1-0.4-0.5-0.2-0.8-0.4c-0.3-0.2,0-0.5-0.6-0.6
	c0,0-0.5-0.3-0.8-0.5c-0.2-0.2-0.2,0.2-0.7,0.9c-0.3,0.3-0.4,0.8-0.5,1.1c0.5-0.2,0.6-0.4,1-0.3c0.5,0.1,0.6,0.6,0,0.9
	c-0.1,0.1-0.2,0.1-0.2,0.2c0.4,0.1,0.9,0.2,1.1,0.3C34.8,45.5,34.6,45.2,34.8,45.1z"></path><path class="st2" d="M35.3,52.8c0.6-0.2,1.3-0.7,1.3-1c0-0.3,0.1-1,0.1-1.5c0,0,0-0.1,0-0.1c-0.5-0.2-1.1-0.5-1.3-0.4
	c-0.3,0.1-0.1,0.8-0.4,0.9s-0.6-0.7-0.8-0.3c-0.2,0.4,0,0.7,0.1,1c0.1,0.2-0.3,0.6-0.6,1c0.3,0.2,0.5,0.4,0.6,0.3
	C34.6,52.6,34.7,53,35.3,52.8z"></path><path class="st2" d="M32.4,46.4c-0.1,0.3,0.1,0.7-0.1,1.3c-0.2,0.5,0.3,0.7-0.1,0.8c-0.3,0.1-0.8,0-0.8,0.3c0,0.2-0.2,1,0.2,0.7
	s0.9-0.8,1.2-0.4c0.3,0.4,0.3,0.2,0.6,0.3c0.3,0,0.4-0.2,0.6-0.5c0.2-0.3,0.2-0.5,0.7-0.4s0.6,0.3,0.6-0.2c0-0.5,0-0.7-0.3-1
	s-0.8-0.6,0-0.6c0.7,0,1.1-0.1,1.3-0.1c0.2,0.1,0.8,0.1,0.4-0.5c-0.4-0.6,0.4-1.1-0.6-0.8c-1,0.3-1.6,0.6-1.9,0.7
	C34,46,34,46.2,33.5,46.2C33,46.1,32.4,46.4,32.4,46.4z"></path><path class="st1" d="M28.7,28.5c0.1-0.1,0.3-0.9,0.7-1.1c0.4-0.3,0.6-0.2,0.7,0.1c0.1,0.3,0.5,0.6,0.6,0.5s-0.1-0.3,0.1-0.7
	c0.1-0.4,0.1-0.5,0.5-0.4s0.8,0.3,0.8,0s0-0.7-0.4-0.9c-0.4-0.2-0.9-0.3-0.8-0.4s0.5-0.6,0.5-0.8c0-0.1-0.9-0.1-1.1-0.1
	c-0.2,0-0.7-0.7-0.9-0.1c-0.2,0.6-0.4,0.9-0.5,1.1c-0.1,0.2-0.7,0.2-0.8,0.2c-0.2,0-0.3-0.2-0.3,0.2c0,0.4-0.1,0.4,0.1,0.8
	c0.3,0.4,0.4,0.7,0.3,0.8c-0.2,0.1-0.3,0.5-0.3,0.5l0.2,0.5L28.7,28.5z"></path><line class="st5" x1="27.9" y1="28.2" x2="25.8" y2="26.7"></line><path class="st2" d="M24.8,27.4c-0.4,0.1-0.3,0.9-0.7,0.9c-0.4,0-0.8,0.1-1,0.1c-0.2,0-0.6,0.2-0.7-0.3c-0.2-0.5-0.1-0.5-0.2-1
	c-0.1-0.5-0.5-0.6,0-0.6c0.6,0,1,0,1.2-0.1c0.2-0.1,0.3-0.1,0.6-0.2s0.8-0.1,1.1-0.1s1,0.1,1,0.1S26.5,27.1,24.8,27.4z"></path><line class="st5" x1="28.5" y1="23.6" x2="27.2" y2="25.8"></line><path class="st1" d="M27.8,22.9c-0.3-0.4-0.4-0.3-0.5-0.6c-0.1-0.4,0.1-0.4,0.3-0.3s0.5,0.2,0.6,0c0.1-0.2-1-0.4-0.8-0.8
	c0.2-0.4-0.2-0.4,0.2-0.4c0.4,0,0.5,0.2,0.8,0.1c0.2-0.2,0.1-0.7,0.7-0.4c0.5,0.2,0.5,0.8,0.5,1c0,0.2,0.2-0.1,0.6-0.2
	s0.4,0.3,0.5,0.6c0.1,0.3,0,0.4,0.4,0.4s1-0.2,0.7,0.4c-0.3,0.7-0.9,0.9-0.9,0.9s0.5,0.1,0.5,0.4c0,0.3-0.5,0.4-0.8,0.3
	s-0.3-0.1-0.6-0.2C29.4,23.9,28.7,24.3,27.8,22.9z"></path><path class="st3" d="M27.8,20.4c-0.4,0-0.6,0-0.7,0.1C27.2,20.4,27.4,20.4,27.8,20.4c0-0.1,0-0.2,0.1-0.3c-0.2,0-0.5,0-0.6-0.2
	c-0.3-0.4-0.4-1.3-0.7-1.3c-0.4,0,0,0.5-0.3,1c-0.3,0.5-0.7,0.5-0.5,0.8c0.2,0.3,0.4,0.3,0.6,0.7c0.2,0.4,0.6,0.5,0.6,1
	c0,0.2,0,0.5,0.1,0.8c0.1,0,0.2,0.1,0.3,0.1C27.3,22.9,27.6,21.4,27.8,20.4z"></path><path class="st1" d="M26.3,21.1c-0.2-0.4-0.4-0.3-0.6-0.7c-0.2-0.3,0.3-0.3,0.5-0.8c0.3-0.5-0.1-1,0.3-1c0.4,0,0.4,0.8,0.7,1.3
	c0.1,0.2,0.4,0.3,0.6,0.2c0.1-0.3,0.1-0.5,0.2-0.5c0.2-0.1,0-0.6-0.4-1c-0.4-0.4-1-0.2-1.2-0.6c-0.1-0.1-0.1-0.2-0.1-0.3
	c-0.5,0-1-0.1-1.3-0.2c-0.8-0.1-1.5-0.4-1.3-0.6c0.2-0.2,1.2-0.1,1.2-0.1s0.3-0.3-0.4-0.4s-1.5-0.2-1.6-0.1c-0.2,0.1-0.6,0-0.5-0.3
	c0.1-0.3,0.4-0.6,0.3-0.7c-0.1-0.2-0.3-0.5-0.4-0.8c-0.3,0-0.6-0.1-1.1-0.1c-0.6,0-0.5,0.9-0.5,0.9s1.3,0.2,1,0.3
	c-0.3,0.1,0.2,0.8,0.3,1.1c0.1,0.3-0.6,0.4-0.8,0.6c-0.2,0.2,0.7,0.9,1,1.6c0.3,0.7,0.4,0,0.8-0.5c0.4-0.5,0.8,0.5,0.7,0.9
	c-0.1,0.4-0.6,0.6-1.2,0.9c-0.6,0.3-0.3,0.1-0.7-0.2c-0.4-0.3-0.3-0.5-1.1-1.4c-0.8-0.8-0.4,0-0.5-0.4c-0.1-0.3-0.5-0.2-1.2-0.1
	c-0.7,0.1,0,0.6-0.1,1c-0.1,0.4-0.7,0-1,0.2c-0.1,0-0.1,0.1-0.1,0.1c0.3,0.1,0.7,0.2,1.1,0.2c0.9,0,0.3-0.1,0.7-0.2
	c0.3-0.1,0.5-0.2,1.1,0.1c0.4,0.2,0.4,0.7,0.3,1c0.4,0,0.7-0.1,0.7,0c0,0.1-0.4,0.5-0.1,1c0.3,0.5,0.7,0.5,1.3,0.7
	c0.6,0.2,0.5,0.4,0.2,0.5c-0.3,0-0.6,0.1-0.9,0.4c-0.2,0.3,0.2,0.6,0.6,1.5c0.4,0.8,0.7,0.3,1.1,0.1c0.4-0.2,0.6-0.4,1-0.6
	c1-0.6,0.2-1.7,0.2-1.7s0.5,0,0.7,0.1c0.1,0,1,0.3,1.5,0.5c-0.1-0.3-0.1-0.6-0.1-0.8C26.9,21.6,26.5,21.4,26.3,21.1z"></path><path class="st2" d="M22.3,15.9c-0.1,0.3,0.3,0.4,0.5,0.3c0.2-0.1,1,0.1,1.6,0.1s0.4,0.4,0.4,0.4s-1-0.1-1.2,0.1
	c-0.2,0.2,0.6,0.5,1.3,0.6c0.3,0.1,0.8,0.1,1.3,0.2c0-0.2,0.2-0.3,0.4-0.6c0.3-0.4-0.3-0.4-0.4-0.4c-0.2,0-0.5-0.3-0.3-0.8
	c0.1-0.5-0.5-0.9-0.9-1.2c-0.4-0.3-0.6,0-0.8,0c-0.2-0.1-1-0.1-1.6-0.1c-0.1,0-0.3,0-0.4,0c0.1,0.3,0.3,0.6,0.4,0.8
	C22.7,15.3,22.4,15.7,22.3,15.9z"></path><path class="st2" d="M20.4,19.7c-0.5-0.2-0.7-0.2-1.1-0.1c-0.3,0.1,0.2,0.3-0.7,0.2c-0.4,0-0.8-0.1-1.1-0.2c0,0.2,0.4,0.3,0.5,0.4
	c0.2,0.1,1.1,0.3,1.9,0.6c0.2,0.1,0.4,0.1,0.6,0.1C20.8,20.3,20.8,19.8,20.4,19.7z"></path><path class="st1" d="M40.1,55.9c-0.5,0-0.7-0.3-0.6-0.7c0.1-0.4,0.8,0,1,0.1s1.3,0.2,2.5,0.4c0.2,0,0.5,0.1,0.6,0.1c0,0,0-0.1,0-0.1
	c0.1-0.4-0.3-1-0.3-1.1s-1.2,0.3-1.2,0.3s-0.9,0.1-0.9-0.1c-0.1-0.2,0.2,0.1-0.1-0.2c-0.2-0.4-0.1-0.6-0.4-1.2
	c-0.3-0.6-0.3-0.9-0.6-1.2c-0.3-0.3-1.8-1.5-1.9-1.5c-0.1,0.1-0.5,0.8-0.5,1.1c0,0.2,0.4,0.6,0.5,0.8c0.2,0.3,0.7,0.2,0.2,0.5
	c-0.5,0.3-1,0.1-0.7,0.3c0.3,0.2,1.3,1,1.3,1l-0.1,0.6l-0.5,0.9c0,0,0.3-0.9-0.5-0.9c-0.8,0-1,0-1.4-0.3c-0.4-0.3-0.7-0.9-0.7-0.9
	s-0.4,0.1-0.6-0.1s-0.2-0.1-0.9-0.3c-0.7-0.2-1.2-0.3-1.4-0.4c-0.2-0.1-1.6-0.3-1.8-0.4c-0.2,0-0.5,0.2-0.5,0.6
	c0,0.3-0.4,0.2-0.1,1.1c0.3,0.8,0.2,1,0.5,1.4c0.3,0.4,1.1,0.6,1.2,0.4c0.1-0.1,0.5-0.4,0.8-0.5s0.5,0.5,0.5,0.7
	c0,0.2-0.3,0.1,0.1,0.8c0.2,0.4,0.4,0.6,0.6,0.8c0.3-0.1,0.7-0.2,1-0.3c0.7-0.3,0.4-0.5,1.1,0.1c0.8,0.6-0.3-0.6,0.8,0.6
	c0,0,0.8-0.8,1-0.6c0.2,0.2,0.8,0.4,0.8,0.4c0.5-0.1,0.7,0.1,0.7,0.1s0.5,0.3,0.5,0.3c0,0.1,0.5,1.3,0.5,1.3s0.5-0.9,0.7-1.1
	c0.2-0.2,0.8-0.2,0.8-0.2c0.3-0.8-0.2-1.8-0.2-1.8s0.2-0.1,0.5-0.2l-1-0.5C41.2,56,40.6,56,40.1,55.9z"></path><path class="st2" d="M36.2,57.6c-0.8-0.6-0.4-0.4-1.1-0.1c-0.3,0.1-0.7,0.2-1,0.3c0.1,0.1,0.3,0.2,0.4,0.2c0.3,0,0.8,0.9,0.8,0.9
	s-0.3,0.1,0.4,0c0.7-0.1,1.3-0.7,1.3-0.7C35.9,57,37,58.2,36.2,57.6z"></path><path class="st2" d="M42.7,56.5c0.2,0.1,0.7,0.7,0.8,0.3c0.1-0.4,0-0.7,0.1-1c-0.2,0-0.4,0-0.6-0.1c-1.2-0.2-2.3-0.3-2.5-0.4
	s-0.8-0.5-1-0.1c-0.1,0.4,0.1,0.7,0.6,0.7c0.5,0,1,0.1,1,0.1l1,0.5C42.4,56.4,42.6,56.4,42.7,56.5z"></path><path class="st3" d="M32.6,54c0,0,0.8,0.5,0.9,0.7c0.1,0.2,0.3-0.1,0.6,0.3s0.1,0.7,0.3,0.8s0.5,0.1,0.8,0.1c0.4,0,0.7,0.1,0.4-0.5
	c-0.3-0.6-0.1-1-0.6-0.9s-0.6-0.4-0.8-0.3c-0.2,0-0.6,0-0.6,0L32.6,54z"></path><g>
	<path class="st0" d="M43.2,79.5c3.8-8.6,6.8-17.6,8.8-26.8c2-8.4,3.9-17.5,5.7-26c0-0.2,0.2-1.1,0.3-1.3c0-0.1,0-0.3,0.2-0.4
		l0.3,0.1c0.1,0.3-0.1,0.6-0.1,0.9c-0.1,0.5-0.4,2.1-0.5,2.6c-2.7,12.7-4.7,25.8-8.5,38.1c-1.5,4.5-3.1,9-5,13.4L43.2,79.5
		L43.2,79.5z"></path>
</g><path class="st1" d="M49.8,39.5c0.2-0.5,0.9-0.7,1.3-1.4s1-1.5,0.7-1.7c-0.3-0.2-1-0.5-1.1-0.9c-0.1-0.4,0-0.7,0.4-1
	c0.5-0.3,0.9-0.6,1-0.7c0.2-0.1,0.2,0.4,0.8,0.2c0.7-0.2,1.2-0.8,1.7-0.4c0.4,0.3,0.7,0.5,0.9,0.5c0.2,0,0.8,0.1,0.8,0.1l0.4,1
	c0.6-0.5,1-0.6,1.4-1.2s1.4-1.7,1.4-1.7s0.1,1.7,0.5,2.2c0.4,0.6,0.9,1,1.1,1.2c0.2,0.1,1,0.9,0.3,1.5c-0.7,0.6-1,1.2-1.1,1.4
	c-0.1,0.2-0.7,0.6-1,0.6c-0.3,0.1-1-0.1-1,0.2c-0.1,0.4,0.5,0.8,1.1,0.9c0.5,0.1,1.6,0.6,1.8,0.9c0,0.1,0.1,0.2,0.1,0.3
	c-0.5,0.3-0.4,0.8-0.4,0.8l-0.3,0.1c0,0,0,0-0.4-0.4c-0.4-0.4-1.1,0-1.2,0c0,0-0.3,0.4-0.6,0.7c-0.2-0.1,0-0.4-0.4-0.6
	c-0.4-0.2-0.8-0.1-0.9,0.1c-0.1,0.2-1.6,0.4-1.4,0.6c0.1,0.2,0.6,0.5,0.2,0.8c-0.4,0.3-1.2,0.3-1.3,0.5c-0.2,0.2-0.6,0.5-0.9,0.2
	c-0.3-0.3-0.5-1.3-0.8-1.8c-0.3-0.5,0.4-1.3-0.5-1.1c-0.9,0.2-1.2,0.4-1.5,0.4c-0.3,0-0.7-0.2-0.8-0.4C49.9,41.2,49.7,40,49.8,39.5z
	"></path><path class="st2" d="M55.5,37.4c0,0,0.2-1.2,0.6-1.4s1.1-0.1,0.8,0.4c-0.3,0.5-0.4,1.2-0.3,1.2c0.1,0,0.4-0.1,0.8-0.3
	c0.2-0.1,0.4-0.3,0.6-0.4c0.5-0.4-0.8,0.8-0.1,1c0.7,0.2,1.2,0.5,1.4,0.4c0.2-0.1,0.3,0-0.6,0.4c-0.9,0.3-1.6,0.7-2,1
	c-0.4,0.3-1,0.6-0.9,0.7c0,0.2,0.2,0.6,0.7,0.9c0.5,0.2,0.6,0.2,0.7,0.3c0.2,0-0.3,0.6-0.8,0.6c-0.5,0-1-0.3-1.1-0.7
	c-0.1-0.4,0.1-1.4-0.3-1.4s-1.1,0.3-1.4,0.5c-0.3,0.2-1,0.3-1.4,0.3s-0.8,0-0.8-0.3c0-0.3-0.2-0.5,0.6-0.6c0.7-0.1,1.2-0.3,1.6-0.3
	s2.1,0,1.9-0.4s0.1-0.8-0.7-0.6c-0.7,0.2-0.6,0.3-1,0.3c-0.5,0-0.4-0.6-0.1-0.7c0.3,0-0.1-0.5,0-0.7c0-0.2,0.2-0.5-0.1-0.9
	c-0.3-0.4-0.7-0.9-0.7-0.9s0.2-0.8,0.6-0.4C53.6,35.6,55.5,37.4,55.5,37.4z"></path><path class="st3" d="M57.5,35.4c0.3-0.1,0.8-0.6,1-0.7c0.2-0.1,0.5,0,0.6,0.3s-0.3,0.5,0.2,0.7s0.8,0.3,0.8,0.7
	c0,0.3,0.3,0.8-0.2,0.6c-0.4-0.2-0.8,0.2-1-0.3s0.1-0.1-0.2-0.5c-0.3-0.4-0.3-0.4-0.3-0.4L57.5,35.4z"></path><path class="st3" d="M52.3,34.6c0,0-1.5-0.5-1.2,0c0.4,0.4,0.3,0.6,0.4,0.7c0.1,0.1,0.4-0.1,0.4-0.1L52.3,34.6z"></path><path class="st2" d="M60.2,41.9c0.4,0.4,0.4,0.4,0.4,0.4l0.3-0.1c0,0-0.1-0.4,0.4-0.8c0.1,0.4,0.3,0.8,0.5,0.8c0.3,0,0.9-0.8,1-0.2
	c0,0.6-0.2,1.2-0.6,1.6c-0.4,0.3-0.3,0.3-1.1,0c-0.7-0.4-0.3,0-0.8-0.1c-0.5-0.2,0-0.8-0.7-1c-0.7-0.2-0.9,0.3-1.2,0.2
	c0,0-0.1,0-0.1,0c0.3-0.3,0.6-0.7,0.6-0.7C59,42,59.8,41.6,60.2,41.9z"></path><path class="st4" d="M58.8,50.1C58.8,50.1,58.8,50.1,58.8,50.1C58.8,50.1,58.8,50.1,58.8,50.1z"></path><path class="st1" d="M54,55.7c0.1-0.4,0.2-0.6-0.1-1c-0.3-0.4-0.4,0.4-0.7,0.4s-0.2-0.7-0.5-0.8c-0.2-0.1-0.7,0.3-1.2,0.5
	c-0.2-0.4-0.8-0.5-0.7-0.9c0.1-0.5,0.6-0.3,0.5-0.9c-0.1-0.7-1.1-0.7-1.2-0.9c-0.2-0.1-0.3-0.5-0.2-0.8C50,51,50,51,50,50.7
	c0-0.3,0-0.6,0-0.6S49.2,51,49,51.2c-0.2,0.2-0.3,0.4-0.4-0.1c-0.1-0.4-0.1-0.6-0.1-0.6s-0.8,0.6-1,0.2s0.7-1.3,0.8-1.3
	c0.1,0-0.3-1-0.2-1.4c0-0.4,0.9-0.2,1.1-0.1c0.2,0.1,0.8,0.3,0.8,0.3l-0.1-0.9l0.6,0.3l0.5-0.4c0.3-0.3,0.6,0,0.8-0.2
	c0.2-0.2,0.6-0.5,0.4-0.8c-0.2-0.3-0.4-0.5-0.6-0.7c-0.2-0.2-0.6-0.7,0.1-0.6s0.9,0.4,1.4,0.6c0.4,0.2,0.8,0.1,1.1,0
	c0.3-0.1,0.5-0.5,0.7-0.3c0.2,0.2-0.7,0.4,0.1,0.6c0.8,0.2,1.1,0.1,1.3,0.1c0.2,0,0.3,0,0.3,0.3s-0.3,0.6-0.1,0.8
	c0.2,0.2,0.7,0.1,0.5,0.9c-0.2,0.9-1,1.2-1.8,0.9c-0.1,0-0.2-0.1-0.3-0.1c-0.1-0.3-0.3-0.7-0.6-1c-0.6-0.6-0.7-1-0.9-0.7
	c-0.2,0.2-0.7,0.6-0.7,0.6c-0.5,0.1-0.2,0.4-0.5,0.6c-0.3,0.2-0.8,0.1-0.7,0.5c0.1,0.4,0.3,0.1,0.6,0.3c0.3,0.2,0.5,0.7,0.7,0.7
	c0.2,0.1,0.1,0.4,0.4,0.3c0.2,0,0.6-0.2,1-0.4c0.4,0.2,0.5,0.3,0.9,0.2c0.4-0.1,2.6-1,2.1-0.5c-0.5,0.5-0.6,0.4-0.6,0.8
	c0,0.4,0.2,0.6,0.3,0.7c0.1,0.1,0.4,0.5,0.7,0.6c0.3,0.1,1,0.2,0.6,0.7c-0.5,0.5-0.8,0.6-0.7,0.9c0.1,0.3,0.4,0.1,0.4,0.5
	c0,0.4,0.4,0.9-0.1,1.1c-0.5,0.2-1.5,0.3-1.5,0.3s-0.2,0.3,0,0.7c0.2,0.4-0.1,0.8-0.2,0.8c-0.2,0.1-0.3,0-0.7,0.2
	c-0.1,0-0.2,0.1-0.3,0.2C54.4,56.3,54,55.9,54,55.7z"></path><path class="st3" d="M52.7,49.5c-0.2-0.1-0.4-0.5-0.7-0.7c-0.3-0.2-0.5,0.1-0.6-0.3c-0.1-0.4,0.4-0.3,0.7-0.5
	c0.3-0.2-0.1-0.5,0.5-0.6c0,0,0.5-0.4,0.7-0.6c0.2-0.2,0.2,0.2,0.9,0.7c0.3,0.3,0.5,0.7,0.6,1c-0.5-0.2-0.7-0.3-1.1-0.1
	c-0.5,0.1-0.5,0.6,0.1,0.9c0.1,0.1,0.2,0.1,0.3,0.1c-0.4,0.2-0.9,0.4-1,0.4C52.8,49.9,53,49.6,52.7,49.5z"></path><path class="st2" d="M53.3,57.2c-0.6-0.1-1.4-0.6-1.4-0.8c-0.1-0.3-0.2-1-0.3-1.5c0,0,0-0.1,0-0.1c0.5-0.3,1-0.6,1.2-0.5
	C53,54.3,53,55,53.3,55s0.5-0.8,0.7-0.4c0.3,0.4,0.1,0.7,0.1,1c0,0.2,0.4,0.6,0.7,0.9c-0.2,0.2-0.5,0.5-0.6,0.4
	C54,56.9,53.9,57.3,53.3,57.2z"></path><path class="st2" d="M55.3,50.4c0.1,0.2,0,0.7,0.3,1.2c0.2,0.5-0.2,0.7,0.2,0.8c0.3,0.1,0.8-0.1,0.8,0.2c0,0.2,0.3,0.9-0.1,0.7
	s-1.1-0.7-1.3-0.3c-0.2,0.4-0.3,0.3-0.6,0.4c-0.3,0.1-0.4-0.1-0.7-0.4c-0.3-0.3-0.3-0.4-0.7-0.3c-0.4,0.1-0.6,0.4-0.7-0.1
	c-0.1-0.5-0.1-0.7,0.1-1.1c0.2-0.3,0.7-0.7,0-0.6c-0.7,0.1-1.1,0-1.3,0.1c-0.2,0.1-0.8,0.2-0.5-0.5c0.3-0.7-0.6-1,0.5-0.9
	s1.7,0.4,2,0.5c0.4,0,0.4,0.2,0.9,0.1C54.6,50.3,55.3,50.4,55.3,50.4z"></path><path class="st1" d="M56.4,32.2c-0.1-0.1-0.5-0.8-0.9-1s-0.6-0.2-0.6,0.1c0,0.3-0.4,0.7-0.5,0.6s0-0.4-0.2-0.7
	c-0.2-0.3-0.2-0.5-0.5-0.3c-0.3,0.2-0.7,0.4-0.8,0.2s-0.1-0.6,0.3-0.9c0.4-0.2,0.9-0.4,0.7-0.5c-0.2-0.1-0.6-0.6-0.6-0.7
	s0.9-0.2,1.1-0.2c0.2,0,0.6-0.8,0.8-0.2s0.5,0.8,0.7,1c0.2,0.2,0.7,0.1,0.8,0.1s0.2-0.2,0.3,0.2s0.2,0.4,0,0.8
	c-0.2,0.4-0.3,0.7-0.1,0.8c0.2,0.1,0.3,0.5,0.3,0.5L57,32.3L56.4,32.2z"></path><line class="st5" x1="57.1" y1="31.8" x2="59" y2="30"></line><path class="st2" d="M60.1,30.6c0.4,0,0.4,0.8,0.8,0.8c0.4,0,0.8,0,1,0s0.6,0.2,0.7-0.4c0.1-0.5,0-0.5,0.1-1
	c0.1-0.5,0.4-0.7-0.1-0.6c-0.6,0.1-0.9,0.2-1.2,0.1c-0.2-0.1-0.3-0.1-0.7-0.1c-0.4,0-0.8,0.1-1.1,0.1c-0.2,0-1,0.2-1,0.2
	S58.4,30.5,60.1,30.6z"></path><line class="st5" x1="55.9" y1="27.4" x2="57.5" y2="29.4"></line><path class="st1" d="M56.6,26.5c0.2-0.5,0.4-0.3,0.4-0.7c0-0.4-0.1-0.3-0.3-0.3c-0.2,0.1-0.5,0.3-0.6,0.1c-0.1-0.2,0.9-0.6,0.6-0.9
	c-0.2-0.4,0.1-0.4-0.2-0.4c-0.4,0-0.5,0.3-0.8,0.2c-0.3-0.1-0.2-0.7-0.7-0.3s-0.4,0.8-0.3,1c0,0.2-0.2-0.1-0.6-0.1
	c-0.4,0-0.3,0.3-0.4,0.6c0,0.3,0.1,0.4-0.3,0.4c-0.4,0-1-0.1-0.6,0.5c0.4,0.6,1,0.8,1,0.8s-0.5,0.2-0.4,0.5s0.5,0.3,0.8,0.1
	c0.3-0.2,0.3-0.2,0.6-0.3S55.8,28.1,56.6,26.5z"></path><path class="st3" d="M56.2,24c0.4,0,0.6,0,0.7,0C56.8,24,56.5,24,56.2,24c0-0.1-0.1-0.2-0.1-0.3c0.2,0,0.5-0.1,0.6-0.3
	c0.2-0.5,0.2-1.3,0.6-1.4c0.4,0,0.1,0.5,0.4,1c0.3,0.5,0.8,0.4,0.6,0.7c-0.2,0.4-0.4,0.3-0.5,0.7c-0.2,0.4-0.6,0.6-0.4,1
	c0.1,0.2,0.1,0.5,0,0.8c-0.1,0.1-0.2,0.1-0.3,0.1C57,26.5,56.5,25,56.2,24z"></path><path class="st1" d="M57.7,24.5c0.2-0.4,0.4-0.4,0.5-0.7c0.2-0.4-0.3-0.3-0.6-0.7c-0.3-0.5-0.1-1-0.4-1c-0.4,0-0.3,0.9-0.6,1.4
	c-0.1,0.2-0.3,0.3-0.6,0.3c-0.1-0.3-0.2-0.5-0.2-0.5c-0.2-0.1-0.1-0.6,0.3-1.1c0.4-0.5,1-0.3,1.1-0.8c0.1-0.1,0.1-0.2,0-0.3
	c0.5-0.1,0.9-0.2,1.3-0.3c0.7-0.2,1.4-0.6,1.2-0.8c-0.2-0.2-1.2,0-1.2,0s-0.3-0.3,0.4-0.4c0.7-0.1,1.4-0.4,1.6-0.4
	c0.2,0.1,0.5-0.1,0.4-0.3c-0.1-0.3-0.5-0.5-0.4-0.6c0.1-0.2,0.2-0.5,0.3-0.8c0.3-0.1,0.6-0.2,1.1-0.2c0.6-0.1,0.6,0.8,0.6,0.8
	s-1.2,0.4-0.9,0.5c0.3,0.1-0.1,0.8-0.2,1.1c-0.1,0.3,0.6,0.3,0.9,0.5c0.2,0.2-0.6,0.9-0.7,1.7c-0.2,0.8-0.4,0.1-0.9-0.4
	c-0.5-0.5-0.8,0.6-0.6,1c0.2,0.4,0.7,0.5,1.4,0.8c0.7,0.2,0.3,0,0.7-0.3s0.2-0.6,0.9-1.5c0.7-0.9,0.4-0.1,0.5-0.4
	c0.1-0.3,0.5-0.2,1.2-0.3c0.7,0,0,0.6,0.2,0.9c0.2,0.4,0.7-0.1,1,0.1c0.1,0,0.1,0.1,0.1,0.1c-0.3,0.1-0.6,0.3-1,0.4
	c-0.9,0.1-0.3,0-0.7-0.1c-0.3-0.1-0.5-0.1-1.1,0.2c-0.4,0.2-0.3,0.7-0.1,1c-0.4,0.1-0.7,0-0.7,0.1c0,0.1,0.4,0.4,0.2,0.9
	c-0.2,0.5-0.6,0.6-1.2,0.8c-0.6,0.2-0.5,0.5-0.1,0.5c0.3,0,0.7,0,0.9,0.3c0.3,0.3-0.1,0.6-0.4,1.5c-0.3,0.9-0.7,0.4-1.1,0.2
	c-0.4-0.2-0.6-0.3-1.1-0.5c-1.1-0.5-0.4-1.7-0.4-1.7s-0.5,0.1-0.7,0.1c-0.1,0-0.9,0.5-1.4,0.7c0-0.3,0-0.6,0-0.8
	C57.2,25.1,57.6,24.9,57.7,24.5z"></path><path class="st2" d="M61,18.9c0.1,0.3-0.2,0.4-0.4,0.3c-0.2-0.1-0.9,0.2-1.6,0.4c-0.7,0.1-0.4,0.4-0.4,0.4s1-0.2,1.2,0
	c0.2,0.2-0.5,0.6-1.2,0.8c-0.3,0.1-0.8,0.2-1.3,0.3c0-0.2-0.2-0.3-0.5-0.5c-0.3-0.4,0.2-0.5,0.4-0.4c0.2,0,0.4-0.4,0.2-0.8
	c-0.2-0.5,0.4-1,0.7-1.4c0.3-0.4,0.6,0,0.8-0.1c0.2-0.1,1-0.3,1.5-0.3c0.1,0,0.3,0,0.4-0.1c-0.1,0.3-0.2,0.6-0.3,0.8
	C60.5,18.3,60.9,18.6,61,18.9z"></path><path class="st2" d="M63.4,22.3c0.5-0.3,0.7-0.3,1.1-0.2c0.3,0.1-0.2,0.3,0.7,0.1c0.4-0.1,0.7-0.3,1-0.4c0.1,0.2-0.3,0.3-0.5,0.5
	c-0.2,0.2-1.1,0.4-1.8,0.8c-0.2,0.1-0.4,0.2-0.6,0.2C63.1,23,63,22.5,63.4,22.3z"></path><path class="st1" d="M49,61c0.5-0.1,0.7-0.4,0.5-0.8c-0.2-0.4-0.8,0.1-0.9,0.2c-0.2,0.1-1.3,0.4-2.4,0.8c-0.2,0.1-0.4,0.1-0.6,0.2
	c0,0,0-0.1,0-0.1c-0.1-0.4,0.1-1.1,0.1-1.1c0,0,1.3,0.1,1.3,0.1s0.9,0,0.9-0.3c0-0.2-0.1,0.2,0-0.2c0.2-0.4,0-0.6,0.2-1.2
	c0.2-0.7,0.2-0.9,0.4-1.3c0.2-0.4,1.5-1.8,1.7-1.7c0.1,0.1,0.6,0.8,0.6,1c0,0.2-0.3,0.6-0.4,0.9c-0.1,0.3-0.6,0.3-0.1,0.5
	c0.5,0.2,1-0.1,0.8,0.2s-1.1,1.2-1.1,1.2l0.2,0.5l0.7,0.8c0,0-0.4-0.9,0.4-1c0.8-0.1,1-0.1,1.4-0.5c0.4-0.4,0.5-1,0.5-1
	s0.5,0,0.6-0.1c0.2-0.2,0.1-0.2,0.8-0.5c0.7-0.3,1.1-0.4,1.3-0.6c0.2-0.1,1.5-0.6,1.7-0.6c0.2,0,0.5,0.1,0.6,0.5s0.4,0.2,0.2,1.1
	c-0.2,0.9,0,1-0.3,1.5c-0.3,0.5-1,0.7-1.1,0.6c-0.1-0.1-0.5-0.3-0.8-0.4c-0.3-0.1-0.4,0.6-0.4,0.7c0,0.2,0.3,0.1,0,0.8
	c-0.2,0.4-0.3,0.7-0.5,0.8c-0.3,0-0.7-0.1-1-0.2c-0.8-0.2-0.4-0.5-1.1,0.2c-0.7,0.7,0.3-0.6-0.7,0.7c0,0-0.9-0.7-1-0.4
	s-0.7,0.5-0.7,0.5c-0.5,0-0.7,0.2-0.7,0.2s-0.4,0.3-0.4,0.4c0,0.1-0.3,1.3-0.3,1.3s-0.7-0.8-0.9-1c-0.2-0.2-0.8-0.1-0.8-0.1
	c-0.4-0.7-0.1-1.8-0.1-1.8s-0.3-0.1-0.5-0.1l1-0.6C48,61.2,48.6,61.1,49,61z"></path><path class="st2" d="M53.1,62.1c0.7-0.7,0.4-0.4,1.1-0.2c0.3,0.1,0.7,0.1,1,0.2c-0.1,0.1-0.2,0.2-0.4,0.2c-0.3,0-0.6,1-0.6,1
	s0.3,0.1-0.4,0.1c-0.7,0-1.4-0.5-1.4-0.5C53.4,61.4,52.4,62.8,53.1,62.1z"></path><path class="st2" d="M46.6,61.9c-0.2,0.2-0.6,0.8-0.8,0.4c-0.2-0.3-0.1-0.6-0.2-1c0.2,0,0.4-0.1,0.6-0.2c1.1-0.4,2.3-0.6,2.4-0.8
	c0.2-0.1,0.8-0.6,0.9-0.2c0.2,0.4,0,0.7-0.5,0.8c-0.5,0.1-1,0.2-1,0.2l-1,0.6C46.8,61.8,46.7,61.8,46.6,61.9z"></path><path class="st3" d="M56.2,58c0,0-0.8,0.6-0.8,0.8c0,0.2-0.3-0.1-0.6,0.4c-0.3,0.5,0,0.7-0.2,0.8s-0.4,0.1-0.8,0.2
	c-0.4,0-0.7,0.2-0.5-0.5c0.2-0.7,0-1,0.5-1c0.5,0.1,0.6-0.4,0.7-0.4c0.2,0,0.6-0.1,0.6-0.1L56.2,58z"></path><path class="st8" d="M28.4,62.4c-1.2,0.1-6.9,0.6-7.9,1.5s-1.8,2.7-2.1,3c-0.3,0.3-1.8,0.9-1.9,1.2s0,1.2-0.4,1.5
	c-0.4,0.3-1.3,0.8-1.3,0.8s0.4,1.1,1,1.3s1.4-0.1,1.4-0.1l1.1,0c0,0-0.9,1.1-1,1.4s0.5,0.5,0.5,0.5s1.7-0.1,2.1-0.5
	c0.4-0.4,0.4-0.7,0.9-0.9c0.5-0.3,1.9-0.4,1.9-0.4s-0.8,1.1-1.2,2c-0.4,1,0,3.7,0.4,5.2c0.4,1.5,0.8,3,0.8,3l1.4-0.1
	c0,0-0.3,0.5,0.5,1.7c0.8,1.2,3,3,3.3,3.5c0.3,0.5,1.3,1.2,1.3,1.2S33,85.6,34,85c1-0.6,1.2-1.7,1.3-1.9c0.1-0.2,2.3-1.5,2.3-1.5
	s1.9-3.2,1.9-3.7s-1.7-2.7-1.8-3.2c0-0.5,0-1.5,0-1.5s0.4,0.9,1.6,1.8c1.2,0.9,2.3,1.6,2.7,1.6s2.7,0.2,2.7,0.2s1.3-1,1-1.4
	s-0.8-0.8-0.8-0.8s0.6,0,0.8-0.2S45.1,72,45.1,72l1.4-0.2c0,0-2.3-3.2-2.5-3.7c-0.3-0.5-1.3-0.8-1.3-0.8s0.4-0.3,0.9-0.4
	c0.5-0.1,2.5-0.3,2.5-0.3s0.6-0.6-0.1-0.9c-0.7-0.2-2.8-0.9-3.3-1.4s-1-1.7-2.6-2.4c-1.6-0.7-3.5-0.8-3.8-1c-0.4-0.2-2-1.2-3-1.1
	c-0.9,0.1-1.3-0.5-2,0.1c-0.7,0.6-2.1,1.1-2.1,1.1L28.4,62.4z"></path><g>
	<path class="st9" d="M29.8,84.8c0.5-5.9,1.8-11.8,3.8-17.3c0.1-0.2,0.1-0.4,0.3-0.5l0.1,0.2c-2.4,0.2-4.8,0.4-7.2,1.1
		c-2.4,0.6-4.6,1.5-6.8,2.6c0,0-0.1-0.2-0.1-0.2c2.2-1.2,4.5-2.1,6.8-2.8c2.4-0.6,4.9-1.3,7.3-1c0.2,0.3,0.1,0.5,0,0.7
		c0,0-0.2,0.5-0.2,0.5c-1.9,5.4-3.1,11-3.8,16.7C30,84.8,29.8,84.8,29.8,84.8L29.8,84.8z"></path>
</g><g>
	<path class="st9" d="M43.2,75.4l-4.8-4c-1.2-0.9-2.5-2-3.6-3.1c-0.4-0.4-0.8-0.7-1-1.2c0-0.2-0.1-0.2,0.1-0.2c3-1,6.2-1.4,9.4-1.4
		c0,0,0,0.3,0,0.3c-2.4,0.1-4.7,0.2-7,0.9c-0.8,0.2-1.5,0.4-2.3,0.5l0.1-0.2c0.6,0.2,0.8,0.6,1.2,1c0.7,0.6,1.6,1.6,2.3,2.1
		c2.1,1.6,3.9,3.5,5.8,5.2C43.4,75.3,43.2,75.4,43.2,75.4L43.2,75.4z"></path>
</g><g>
	<path class="st9" d="M38.5,62.8l-2.2,2.2c-0.8,0.7-1.6,1.8-2.5,2.3c0,0,0.1-0.3,0.1-0.3c-0.1-1,0.1-2,0.2-2.9
		c0.2-1,0.3-2.1,1.2-2.8c0,0,0.1,0.2,0.1,0.2c-1.2,1.4-0.9,3.7-1.3,5.5c0,0-0.2-0.1-0.2-0.1c0.9-1.1,3.3-3.2,4.4-4.3
		C38.3,62.6,38.5,62.8,38.5,62.8L38.5,62.8z"></path>
</g><g>
	<path class="st9" d="M33.9,67.1c-0.7-0.4-1.4-1.3-2-1.8c-0.6-0.5-1.4-1.3-2-1.8c0,0,0.1-0.2,0.1-0.2c0.4,0.3,0.7,0.6,1.1,0.8
		c0.5,0.4,1.5,1.4,2,1.8c0.3,0.3,0.7,0.6,0.9,1L33.9,67.1L33.9,67.1z"></path>
</g><g>
	<path class="st9" d="M23.2,78.9c1.1-1.3,3-1.9,4.1-3.2c0,0,0,0,0,0c0-0.1,0-0.3,0.1-0.4c1.3-1.4,3-2.5,4.8-3.1c0,0,0,0,0,0
		c0.6,0.3,0.8,1,1.1,1.5c0.3,0.5,0.5,1,0.8,1.5c0.2,0.8,0.3,1.7,0.7,2.4c0.6,0.4,1.4,1,2,1.6c0,0,0,0,0,0l0,0.1l0.1,1.1l-0.3,0
		l-0.1-1.1l0,0.1c-0.3-0.3-0.6-0.6-1-0.8c-0.3-0.3-0.7-0.5-1-0.8c-0.4-0.7-0.6-1.8-0.7-2.5c-0.5-0.6-1-1.4-1.4-2.1
		c-0.1-0.2-0.3-0.5-0.3-0.8l0.2,0.1c-1.6,1-3.5,1.7-4.6,3.2c0,0,0-0.1,0,0c0,0.1,0,0.2,0,0.2c-1.1,1.5-3,1.9-4.2,3.3
		C23.4,79.1,23.2,78.9,23.2,78.9L23.2,78.9z"></path>
</g><g>
	<path class="st9" d="M20.6,65.9c1.6,0.3,3.4,0.8,5.1,1.2c0.4,0.1,0.9,0.2,1.3,0.4c0.1,0.1,0.3,0.1,0.3,0.4c0.5,0.4,0.7,1.3,0.5,1.8
		c0,0.1-0.1,0.1-0.1,0.2c-0.7,0.5-1.1,1.3-1.6,2c-0.2,0.3-0.3,0.6-0.4,1c-0.2,0.6-0.2,1.2-0.6,1.7c-0.4,0.1-1.3,0.4-1.7,0.6
		c0,0-0.1-0.2-0.1-0.2l1-0.4l0.5-0.2c0.2-0.3,0.3-1,0.4-1.4c0.1-1.2,1-2.1,1.7-3c0.8-0.3,0.1-1,0.2-1.8c0,0,0.1,0.1,0.1,0.1
		c-0.4,0.1-0.5-0.1-0.8-0.2c-0.5-0.1-2-0.5-2.5-0.7c-1.1-0.3-2.2-0.7-3.3-1.1L20.6,65.9L20.6,65.9z"></path>
</g><g>
	<path class="st9" d="M36.2,75.5c0.1-1.2,0.5-2.4,0.6-3.6c-0.1-0.8-0.2-1.7,0-2.5c0,0,0.2,0.1,0.2,0.1c0.6,0.2,1.1,0.4,1.7,0.6
		c0.4,0.1,0.8,0.3,1.1,0.2c0.1,0,0.3-0.1,0.5-0.2c0.8-0.2,1.5,0.1,2.2,0c0.2-0.1,0.5,0,0.7,0.1c0.3,0.2,0.5,0.3,0.8,0.5l-0.2,0.2
		c-0.3-0.2-0.8-0.5-1.1-0.5c-0.7,0.2-1.6-0.1-2.3,0.1c-1.1,0.6-2.7-0.2-3.5-0.9c0,0,0.2-0.1,0.2-0.1c0.2,0.7,0.2,1.5,0.2,2.2
		c-0.1,1.3-0.5,2.4-0.8,3.6C36.5,75.5,36.2,75.5,36.2,75.5L36.2,75.5z"></path>
</g><g>
	<path class="st9" d="M42.3,68.8c-0.4-0.2-1.5-0.6-1.9-0.8c-0.2-0.1-0.4-0.2-0.6-0.4c-0.6-0.5-1.5-0.9-2.2-1.4l0.1-0.2
		c0.9,0.4,1.6,0.8,2.3,1.5c0.5,0.4,1.7,0.8,2.3,1.1C42.4,68.6,42.3,68.8,42.3,68.8L42.3,68.8z"></path>
</g><g>
	<path class="st9" d="M27.2,83c0.2-0.6,0.4-1.3,0.4-1.9c0-0.2,0.1-0.4,0.2-0.4c0.8-0.6,2-1.3,2.9-1.6c0.9,1.2,1.5,2.5,2.6,3.4
		c0,0,0,0,0,0l0,0.1l0.1,1.4l-0.3,0l-0.1-1.4l0,0.1c-1.1-0.9-1.8-2.2-2.6-3.4c0,0,0.2,0,0.2,0c-0.7,0.7-2,1-2.7,1.7
		c-0.1,0.7-0.4,1.3-0.6,2C27.5,83.1,27.2,83,27.2,83L27.2,83z"></path>
</g><path class="st10" d="M70.3,60.2c-1.2,0.1-6.9,0.6-7.9,1.5c-0.9,0.9-1.8,2.7-2.1,3c-0.3,0.3-1.8,0.9-1.9,1.2c-0.1,0.2,0,1.2-0.4,1.5
	c-0.4,0.3-1.3,0.8-1.3,0.8s0.4,1.1,1,1.3c0.6,0.2,1.4-0.1,1.4-0.1l1.1,0c0,0-0.9,1.1-1,1.4c0,0.4,0.5,0.5,0.5,0.5s1.7-0.1,2.1-0.5
	c0.4-0.4,0.4-0.7,0.9-0.9c0.5-0.3,1.9-0.4,1.9-0.4s-0.8,1.1-1.2,2c-0.4,1,0,3.7,0.4,5.2c0.4,1.5,0.8,3,0.8,3l1.4-0.1
	c0,0-0.3,0.5,0.5,1.7c0.8,1.2,3,3,3.3,3.5c0.3,0.5,1.3,1.2,1.3,1.2s3.8-2.6,4.8-3.2s1.2-1.7,1.3-1.9s2.3-1.5,2.3-1.5
	s1.9-3.2,1.9-3.7c0-0.4-1.7-2.7-1.8-3.2c0-0.5,0-1.5,0-1.5s0.4,0.9,1.6,1.8s2.3,1.6,2.7,1.6c0.4,0,2.7,0.2,2.7,0.2s1.3-1,1-1.4
	s-0.8-0.8-0.8-0.8s0.6,0,0.8-0.2S87,69.8,87,69.8l1.4-0.2c0,0-2.3-3.2-2.5-3.7c-0.3-0.5-1.3-0.8-1.3-0.8s0.4-0.3,0.9-0.4
	s2.5-0.3,2.5-0.3s0.6-0.6-0.1-0.9c-0.7-0.2-2.8-0.9-3.3-1.4c-0.5-0.5-1-1.7-2.6-2.4s-3.5-0.8-3.8-1c-0.4-0.2-2-1.2-3-1.1
	c-0.9,0.1-1.3-0.5-2,0.1s-2.1,1.1-2.1,1.1L70.3,60.2z"></path><g>
	<path class="st9" d="M71.7,82.6c0.5-5.9,1.8-11.8,3.8-17.3c0.1-0.2,0.1-0.4,0.3-0.5l0.1,0.2c-2.4,0.2-4.8,0.4-7.2,1.1
		c-2.4,0.6-4.6,1.5-6.8,2.6c0,0-0.1-0.2-0.1-0.2c2.2-1.2,4.5-2.1,6.8-2.8c2.4-0.6,4.9-1.3,7.3-1c0.2,0.3,0.1,0.5,0,0.7
		c0,0-0.2,0.5-0.2,0.5c-1.9,5.4-3.1,11-3.8,16.7L71.7,82.6L71.7,82.6z"></path>
</g><g>
	<path class="st9" d="M85.1,73.3l-4.8-4c-1.2-0.9-2.5-2-3.6-3.1c-0.4-0.4-0.8-0.7-1-1.2c0-0.2-0.1-0.2,0.1-0.2c3-1,6.2-1.4,9.4-1.4
		c0,0,0,0.3,0,0.3c-2.4,0.1-4.7,0.2-7,0.9c-0.8,0.2-1.5,0.4-2.3,0.5l0.1-0.2c0.6,0.2,0.8,0.6,1.2,1c0.7,0.6,1.6,1.6,2.3,2.1
		c2.1,1.6,3.9,3.5,5.8,5.2C85.3,73.1,85.1,73.3,85.1,73.3L85.1,73.3z"></path>
</g><g>
	<path class="st9" d="M80.4,60.6l-2.2,2.2c-0.8,0.7-1.6,1.8-2.5,2.3c0,0,0.1-0.3,0.1-0.3c-0.1-1,0.1-2,0.2-2.9
		c0.2-1,0.3-2.1,1.2-2.8c0,0,0.1,0.2,0.1,0.2c-1.2,1.4-0.9,3.7-1.3,5.5c0,0-0.2-0.1-0.2-0.1c0.9-1.1,3.3-3.2,4.4-4.3
		C80.2,60.4,80.4,60.6,80.4,60.6L80.4,60.6z"></path>
</g><g>
	<path class="st9" d="M75.8,64.9c-0.7-0.4-1.4-1.3-2-1.8c-0.6-0.5-1.4-1.3-2-1.8c0,0,0.1-0.2,0.1-0.2c0.4,0.3,0.7,0.6,1.1,0.8
		c0.5,0.4,1.5,1.4,2,1.8c0.3,0.3,0.7,0.6,0.9,1L75.8,64.9L75.8,64.9z"></path>
</g><g>
	<path class="st9" d="M65.1,76.8c1.1-1.3,3-1.9,4.1-3.2c0,0,0,0,0,0c0-0.1,0-0.3,0.1-0.4c1.3-1.4,3-2.5,4.8-3.1c0,0,0,0,0,0
		c0.6,0.3,0.8,1,1.1,1.5c0.3,0.5,0.5,1,0.8,1.5c0.2,0.8,0.3,1.7,0.7,2.4c0.6,0.4,1.4,1,2,1.6c0,0,0,0,0,0l0,0.1l0.1,1.1l-0.3,0
		l-0.1-1.1l0,0.1c-0.3-0.3-0.6-0.6-1-0.8c-0.3-0.3-0.7-0.5-1-0.8c-0.4-0.7-0.6-1.8-0.7-2.5c-0.5-0.6-1-1.4-1.4-2.1
		c-0.1-0.2-0.3-0.5-0.3-0.8l0.2,0.1c-1.6,1-3.5,1.7-4.6,3.2c0,0,0-0.1,0,0c0,0.1,0,0.2,0,0.2c-1.1,1.5-3,1.9-4.2,3.3
		C65.2,76.9,65.1,76.8,65.1,76.8L65.1,76.8z"></path>
</g><g>
	<path class="st9" d="M62.5,63.7c1.6,0.3,3.4,0.8,5.1,1.2c0.4,0.1,0.9,0.2,1.3,0.4c0.1,0.1,0.3,0.1,0.3,0.4c0.5,0.4,0.7,1.3,0.5,1.8
		c0,0.1-0.1,0.1-0.1,0.2c-0.7,0.5-1.1,1.3-1.6,2c-0.2,0.3-0.3,0.6-0.4,1c-0.2,0.6-0.2,1.2-0.6,1.7c-0.4,0.1-1.3,0.4-1.7,0.6
		c0,0-0.1-0.2-0.1-0.2l1-0.4l0.5-0.2c0.2-0.3,0.3-1,0.4-1.4c0.1-1.2,1-2.1,1.7-3c0.8-0.3,0.1-1,0.2-1.8c0,0,0.1,0.1,0.1,0.1
		c-0.4,0.1-0.5-0.1-0.8-0.2c-0.5-0.1-2-0.5-2.5-0.7c-1.1-0.3-2.2-0.7-3.3-1.1L62.5,63.7L62.5,63.7z"></path>
</g><g>
	<path class="st9" d="M78.1,73.3c0.1-1.2,0.5-2.4,0.6-3.6c-0.1-0.8-0.2-1.7,0-2.5c0,0,0.2,0.1,0.2,0.1c0.6,0.2,1.1,0.4,1.7,0.6
		c0.4,0.1,0.8,0.3,1.1,0.2c0.1,0,0.3-0.1,0.5-0.2c0.8-0.2,1.5,0.1,2.2,0c0.2-0.1,0.5,0,0.7,0.1c0.3,0.2,0.5,0.3,0.8,0.5L85.6,69
		c-0.3-0.2-0.8-0.5-1.1-0.5c-0.7,0.2-1.6-0.1-2.3,0.1c-1.1,0.6-2.7-0.2-3.5-0.9c0,0,0.2-0.1,0.2-0.1c0.2,0.7,0.2,1.5,0.2,2.2
		c-0.1,1.3-0.5,2.4-0.8,3.6C78.3,73.4,78.1,73.3,78.1,73.3L78.1,73.3z"></path>
</g><g>
	<path class="st9" d="M84.2,66.6c-0.4-0.2-1.5-0.6-1.9-0.8c-0.2-0.1-0.4-0.2-0.6-0.4c-0.6-0.5-1.5-0.9-2.2-1.4l0.1-0.2
		c0.9,0.4,1.6,0.8,2.3,1.5c0.5,0.4,1.7,0.8,2.3,1.1C84.3,66.4,84.2,66.6,84.2,66.6L84.2,66.6z"></path>
</g><g>
	<path class="st9" d="M69.1,80.8c0.2-0.6,0.4-1.3,0.4-1.9c0-0.2,0.1-0.4,0.2-0.4c0.8-0.6,2-1.3,2.9-1.6c0.9,1.2,1.5,2.5,2.6,3.4
		c0,0,0,0,0,0l0,0.1l0.1,1.4l-0.3,0L75,80.4l0,0.1c-1.1-0.9-1.8-2.2-2.6-3.4c0,0,0.2,0,0.2,0c-0.7,0.7-2,1-2.7,1.7
		c-0.1,0.7-0.4,1.3-0.6,2C69.4,80.9,69.1,80.8,69.1,80.8L69.1,80.8z"></path>
</g><path class="st11" d="M59.8,63.8c0,0.2-3.7,1.1-4.5,1.6C54.5,66,53,67.3,53,67.3l2.1,0.5c0,0-1.6,1.5-1.9,2.4
	c-0.3,0.9-0.5,3.4-0.5,3.4s2.3,0,2.9-0.2c0.5-0.2,1.3-0.3,1.3-0.3s-1.6,2-1.6,2.7c0,0.7,0.1,1.9,0.1,1.9s1.3-0.3,1.5-0.1
	c0.3,0.2,1-0.1,1-0.1s0.3,1.3,0.8,1.7c0.5,0.5,1.2,0.8,1.2,0.8s1.2-0.1,1.5-0.1s2.2-1.3,2.3-2s-0.1-1.6-0.1-1.6l0.9,2.8
	c0,0,1.4,1.1,2.4,1.3c1,0.2,2.1,0.7,2.1,0.7s1.5-1.6,1.5-2.1s0.8,0.3,0.8,0.3s0.8-0.4,1.5-0.9c0.7-0.5,2-3.5,2.1-3.7
	c0-0.2,0.3-1.4,0.2-1.7c-0.1-0.2-0.8-0.8-0.8-0.8s-0.2-2.8-0.7-3.2c-0.5-0.4-1.5-1.1-1.5-1.1s1.2-0.8,1.4-1c0.2-0.2,0.5-0.6,0.5-0.6
	s-4-3.8-4.4-4c-0.4-0.2-2.3-0.6-2.3-0.6s-1.6-1.4-2.1-1.3s-2.5,0.2-2.5,0.2l-1.8,0.6C60.9,61.3,60,61.9,59.8,63.8z"></path><g>
	<path class="st9" d="M60.5,78.4c0.3-3.2,0.6-7.9,0.9-11c0,0,0-0.2,0-0.2c2.3,2,4.2,4.5,6.8,6.1c1,0.6,3.6,2.1,4.6,2.7
		c0,0-0.1,0.2-0.1,0.2l-3.1-1.8c-3.2-1.7-5.8-4.3-8.2-6.9c0,0,0.2-0.1,0.2-0.1c0,0.9-0.1,1.8-0.2,2.8c-0.2,1.8-0.6,6.5-0.7,8.3
		L60.5,78.4L60.5,78.4z"></path>
</g><g>
	<path class="st9" d="M72.1,66.5c-3.5-1.2-7,0.8-10.5,1c0,0-0.3,0.2-0.3,0.2c0.2-0.7,0.6-1.2,1-1.8c0.4-0.7,1.3-2.1,1.8-2.7
		c0.3-0.5,0.6-0.9,1-1.3l0.2,0.2c-0.3,0.4-0.6,0.9-0.9,1.3c-0.8,1.3-1.7,2.9-2.6,4.1c0,0-0.1-0.2-0.1-0.2c0.9-0.2,1.8-0.3,2.7-0.5
		c2.6-0.6,5.4-1.5,8-0.5C72.2,66.3,72.1,66.5,72.1,66.5L72.1,66.5z"></path>
</g><g>
	<path class="st9" d="M55.6,66.8c1.9,0.2,4.4,0.4,6.3,0.5c-0.5,0.6-1,1.1-1.6,1.6c-1.2,0.9-2.8,1-3.9,1.9c-0.2,0.2-0.8,0.8-1.1,1
		c0,0-0.2-0.2-0.2-0.2c0.2-0.2,0.8-0.8,1-1c1.1-1,2.8-1,4-1.9c0.5-0.4,0.9-0.9,1.4-1.3l0.1,0.2c-1.7,0-4.3-0.3-6-0.5
		C55.5,67,55.6,66.8,55.6,66.8L55.6,66.8z"></path>
</g><g>
	<path class="st9" d="M65.5,77.4c-0.7-1.4-1.8-2.6-3.2-3.5c-0.3-0.3-1.1-0.6-1.3-1c0,0,0.1,0,0.1,0c-0.6,0.5-1.6,1-2.3,1.4
		c0,0-1.2,0.7-1.2,0.7c-0.2,0.2-0.4,0.7-0.5,1.1l-0.3-0.1c0.1-0.4,0.2-0.9,0.6-1.3l1.2-0.7c0.7-0.4,1.6-1,2.3-1.4
		c0.1,0,0.1-0.1,0.1,0c0.4,0.1,1,0.6,1.4,0.8c1.4,0.9,2.6,2.1,3.2,3.7C65.8,77.4,65.5,77.4,65.5,77.4L65.5,77.4z"></path>
</g><g>
	<path class="st9" d="M68.1,78.7c-0.2-0.6-1.4-3.5-1.6-4.1c-0.2-0.8-0.2-1.9-0.3-2.7c0.4-0.4,1-0.4,1.5-0.5c1.4-0.4,2.9-0.7,4.3-0.1
		c0,0,0.1,0,0.1,0l0,0.1l0.7,1.5l-0.2,0.1l-0.7-1.5l0.1,0.1c-0.5-0.1-0.9-0.2-1.4-0.2c-0.9-0.1-1.8,0.3-2.7,0.5
		c-0.4,0.1-1,0.4-1.4,0.3c0,0,0.1-0.1,0.1-0.1c0.1,0.6,0.1,1.2,0.1,1.8c0,0.5,0.3,1.1,0.4,1.6c0,0,1.3,3.2,1.3,3.2L68.1,78.7
		L68.1,78.7z"></path>
</g><g>
	<path class="st9" d="M73.1,71c-0.3,0.1-0.7,0.5-1.1,0.5c-0.2-0.3-0.1-0.3,0.4-0.5c0,0,0.5-0.2,0.5-0.2L73.1,71L73.1,71z"></path>
</g><g>
	<path class="st9" d="M68.9,63.5c-0.4,0.4-0.9,0.8-1.2,1.2c-0.2,0.5-0.4,1.2-0.7,1.6c0,0,0-0.1,0-0.1c0.4,0.3,0.9,0.8,1.2,1.1
		c0,0,1.3,1.3,1.2,1.1c0,0,1,0.6,1,0.6l-0.1,0.2l-1-0.5c0,0,0,0,0,0c-0.4-0.4-1.4-1.3-1.8-1.7c-0.2-0.2-0.5-0.4-0.6-0.7
		c0.2-0.5,0.5-1.2,0.7-1.7c0.4-0.6,0.9-0.9,1.4-1.3C68.8,63.3,68.9,63.5,68.9,63.5L68.9,63.5z"></path>
</g><g>
	<path class="st9" d="M61.9,62.8c-0.1,1-0.1,2.4-0.1,3.4c0,0.4,0,0.8-0.1,1.1l0.1,0.2l-0.4-0.1c-0.3-0.1-0.5-0.3-0.7-0.5
		c-0.6-0.5-1.3-1.1-1.9-1.6c0,0,0.2-0.2,0.2-0.2c0.6,0.5,1.3,1,1.9,1.5c0.2,0.2,0.4,0.3,0.6,0.6c0,0-0.2,0.1-0.2,0.1
		c-0.2-1.1,0-2.4,0-3.4c0-0.4,0.1-0.8,0.2-1.2L61.9,62.8L61.9,62.8z"></path>
</g><path class="st12" d="M51.2,57.5c-0.1,0.1-3.3-2-4.2-2.3c-1-0.2-2.9-0.4-2.9-0.4l1,1.9c0,0-2.1-0.2-3,0.2c-0.9,0.4-2.8,1.9-2.8,1.9
	s1.6,1.7,2.1,2s1.1,0.7,1.1,0.7s-2.6,0.1-3.1,0.6c-0.5,0.5-1.4,1.3-1.4,1.3s1.1,0.8,1.1,1.1s0.7,0.7,0.7,0.7s-0.7,1.1-0.8,1.8
	s0.2,1.4,0.2,1.4s0.9,0.8,1.1,1.1s2.4,0.8,3,0.3c0.6-0.4,1.1-1.2,1.1-1.2L43,71.1c0,0,0.1,1.8,0.7,2.7s0.9,2.1,0.9,2.1
	s2.2,0,2.5-0.3c0.3-0.4,0.3,0.8,0.3,0.8s0.8,0.4,1.7,0.6c0.8,0.2,3.9-0.8,4.1-0.9c0.2-0.1,1.3-0.7,1.4-1c0.1-0.3,0.1-1.1,0.1-1.1
	s2-2,2-2.6c0-0.6-0.2-1.8-0.2-1.8s1.4,0.4,1.7,0.4s0.8,0,0.8,0s0.2-5.5,0-6c-0.2-0.4-1-2.1-1-2.1s0-2.1-0.4-2.4
	c-0.4-0.3-1.8-1.8-1.8-1.8l-1.6-1C53.9,56.6,52.8,56.3,51.2,57.5z"></path><g>
	<path class="st9" d="M40.8,67.8c2.6-1.9,6.3-4.8,8.8-6.7c0,0,0.2-0.1,0.2-0.1c0.1,3-0.5,6.1,0,9.1c0.2,1.1,0.8,4.1,1,5.3
		c0,0-0.3,0.1-0.3,0.1c-0.2-1.2-0.8-4.1-1.1-5.3c-0.5-2.9-0.2-6,0-9c0,0,0.2,0.1,0.2,0.1c-2.5,2-6.3,4.8-8.8,6.7
		C41,68,40.8,67.8,40.8,67.8L40.8,67.8z"></path>
</g><g>
	<path class="st9" d="M57.4,68.4c-1.4-3.4-5.3-4.7-7.8-7.2c0,0-0.3-0.1-0.3-0.1c0.6-0.3,1.3-0.4,1.9-0.5c0.8-0.1,2.4-0.4,3.2-0.5
		c0.5-0.1,1.1-0.2,1.7-0.1l0,0.3c-0.5,0-1,0.1-1.6,0.2c-1.5,0.2-3.3,0.7-4.8,0.8c0,0,0.1-0.2,0.1-0.2c0.8,0.5,1.4,1.1,2.1,1.7
		c2.2,1.5,4.7,3,5.8,5.6C57.7,68.3,57.4,68.4,57.4,68.4L57.4,68.4z"></path>
</g><g>
	<path class="st9" d="M46.2,56.3c1.1,1.5,2.6,3.5,3.8,5c-0.8,0.1-1.5,0-2.2-0.1c-1.5-0.3-2.6-1.4-4-1.7c-0.3,0-1.1-0.1-1.5-0.1
		c0,0,0-0.3,0-0.3c0.3,0,1.1,0.1,1.4,0.1c1.5,0.2,2.6,1.4,4.1,1.6c0.6,0.1,1.3,0.1,1.9,0.2l-0.1,0.2c-1.1-1.3-2.6-3.4-3.7-4.8
		C46,56.4,46.2,56.3,46.2,56.3L46.2,56.3z"></path>
</g><g>
	<path class="st9" d="M44.9,70.9c0.6-1.5,0.8-3.1,0.4-4.7c0-0.4-0.3-1.2-0.2-1.6c0,0,0.1,0.1,0.1,0.1c-0.8-0.2-1.8-0.5-2.6-0.8
		c0,0-1.3-0.4-1.3-0.4c-0.3,0-0.8,0.2-1.2,0.4l-0.1-0.2c0.4-0.2,0.8-0.5,1.4-0.4l1.3,0.4c0.8,0.3,1.9,0.5,2.6,0.8
		c0.1,0.1,0.1,0,0.1,0.1c0.2,0.4,0.2,1.2,0.3,1.6c0.3,1.7,0.1,3.3-0.6,4.9C45.1,71,44.9,70.9,44.9,70.9L44.9,70.9z"></path>
</g><g>
	<path class="st9" d="M45.7,73.6c0.3-0.6,1.7-3.4,1.9-3.9c0.4-0.7,1.2-1.4,1.8-2c0.5,0,1,0.5,1.4,0.7c1.3,0.8,2.4,1.7,3,3.1
		c0,0,0,0.1,0,0.1l0,0.1l-0.7,1.5L52.9,73l0.7-1.5l0,0.1c-0.2-0.4-0.5-0.8-0.8-1.2c-0.5-0.8-1.4-1.2-2.2-1.7
		c-0.3-0.3-0.9-0.5-1.2-0.8c0,0,0.2,0,0.2,0c-0.4,0.5-0.8,0.9-1.2,1.3c-0.4,0.3-0.7,1-0.9,1.4c0,0-1.6,3.1-1.6,3.1L45.7,73.6
		L45.7,73.6z"></path>
</g><g>
	<path class="st9" d="M54.8,72.2c-0.3-0.1-0.8-0.2-1.1-0.5c0.1-0.4,0.1-0.3,0.7,0c0,0,0.5,0.3,0.5,0.3L54.8,72.2L54.8,72.2z"></path>
</g><g>
	<path class="st9" d="M57.5,64.1C57,64,56.3,63.9,55.8,64c-0.5,0.2-1.2,0.5-1.7,0.5c0,0,0.1-0.1,0.1-0.1c0.1,0.5,0,1.2,0,1.7
		c0,0-0.1,1.8-0.1,1.6c0,0,0.2,1.1,0.2,1.1L54,68.8l-0.3-1.1c0,0,0,0,0,0c0-0.6,0-2,0.1-2.5c0-0.3,0-0.6,0.1-1
		c0.5-0.2,1.2-0.4,1.8-0.6c0.7-0.1,1.2,0,1.9,0.2C57.6,63.8,57.5,64.1,57.5,64.1L57.5,64.1z"></path>
</g><g>
	<path class="st9" d="M53.3,58.3c-0.8,0.6-1.8,1.5-2.6,2.2c-0.3,0.3-0.5,0.5-0.9,0.7l-0.1,0.3l-0.1-0.4c-0.1-0.3-0.1-0.5-0.1-0.8
		c0-0.8-0.1-1.7-0.1-2.5c0,0,0.3,0,0.3,0c0.1,0.8,0.1,1.7,0.2,2.5c0,0.3,0.1,0.5,0,0.8c0,0-0.2-0.1-0.2-0.1c0.7-0.8,1.8-1.6,2.6-2.3
		c0.3-0.2,0.6-0.5,1-0.7L53.3,58.3L53.3,58.3z"></path>
</g><path class="st8" d="M70.6,78.4c0,0-2.1-0.2-2.9,0.2c-0.8,0.4-1.8,1.2-1.9,1.6c-0.1,0.3,0.1,0.9,0.1,0.9l0,1.2c0,0-0.2,1.4,0.1,1.6
	c0.3,0.2,1,0.8,1,0.8l1.1-0.1c0,0-0.3,1.1,0,2.1c0.2,0.9,0.5,2.1,0.7,2.6c0.2,0.5,0.9,1.6,0.9,1.6l1.7-0.5l1.9-2
	c0,0-0.2,3.1,0.3,3.9c0.5,0.8,1.1,1.5,1.8,1.4c0.7,0,0.7,0,0.7,0s0.3,0.2,0.9,0.8c0.6,0.6,1.3,0.7,1.8,0.6c0.4,0,1.9-0.3,2.2-0.2
	c0.4,0.1,0.9-0.1,0.9-0.1s0.6-1.2,0.5-2s-1-2.7-1-2.7s2.4,3,3,3.5s1.4,0.5,1.4,0.5s1.5,0.6,1.9,0.7c0.4,0.1,1.2-0.1,1.2-0.1
	s1.3-1.1,1.4-1.6c0.1-0.4,1.1,0.6,1.5,0.6c0.4,0,1.6-0.2,1.6-0.2s0.9-1.3,0.5-3.2c-0.5-1.9-0.9-2.8-1.4-2.9c-0.5-0.1-1-0.5-1-0.5
	l0.5,0.4c0,0-0.3-2.4-2.4-4.3c-2.1-1.9-2.4-1.9-2.5-2.2c-0.1-0.3-0.7-1.5-0.7-1.5s-2.4-2.1-3-2.5c-0.6-0.5-2.9-1.7-3.4-1.6
	c-0.4,0-2.9-0.3-3.4-0.7c-0.5-0.4-0.1-1.5-2.3-1.8C72.3,72.4,72,72,71.1,72c-0.9,0-0.8-0.5-1.5,0.1c-0.6,0.6-0.9,0.8-0.9,1.3
	c0,0.4,1.2,1.4,1.2,1.4s-1.9-0.4-2.6-0.2c-0.7,0.2,0.2,0.9,0.3,1.3C67.8,76.2,68.4,77.7,70.6,78.4z"></path><g>
	<path class="st9" d="M79.5,93.5c-1.4-3.5-2.5-7.1-4-10.5c-0.3-0.7-1.1-1.3-1.5-2c0,0-0.2-0.2-0.2-0.2c0.8,0,1.6,0.6,2.3,1
		c2.2,1.2,5.5,2.9,7.6,4.2c0.9,0.6,1.8,1.3,2.7,1.7c0.7,0.2,2.4,0.7,3.1,0.9c0,0,0,0,0,0l0,0l1.4,2.5l-0.2,0.1l-1.4-2.5
		c0,0,0.1,0.1,0.1,0.1c-0.7-0.2-2.5-0.7-3.1-0.8c-1.7-0.7-3-2-4.7-2.7c-1.8-0.9-5-2.6-6.7-3.5c-0.3-0.2-0.7-0.3-0.9-0.6l0.1-0.2
		c1,0.7,1.8,1.6,2.1,2.8c0.4,1.1,0.9,2.1,1.2,3.2c0.7,2.2,1.5,4.4,2.2,6.6L79.5,93.5L79.5,93.5z"></path>
</g><g>
	<path class="st9" d="M86.3,83c-1.2-0.6-2.5-1.1-3.5-2c-0.5-0.5-1.2-0.8-1.8-1.2c-0.2-0.1-0.6-0.3-0.7-0.5c0,0,0.1,0,0.1,0
		c-1.2,0.3-3.2,1-4.3,1c-0.6,0.3-1.2,0.7-1.9,0.7c0,0-0.2,0.4-0.2,0.4l0.1-0.5c0.1-0.8,0.8-1.8,1.1-2.6c0.4-0.7,0.8-1.8,1.1-2.6
		c0,0,0,0.1,0,0.1l-0.5-1.6l0.3-0.1l0.5,1.6c0,0,0,0.1,0,0.1c-0.4,1.3-1,2.8-1.5,4c-0.2,0.4-0.3,0.9-0.7,1.2c0,0-0.2-0.2-0.2-0.2
		c1.2-0.9,2.8-0.7,4.1-1.1c0,0,2.1-0.6,2.1-0.6l0.1,0c0,0,0,0,0,0c0.3,0,0.6,0.2,0.8,0.4c0.5,0.3,1.1,0.6,1.5,1
		c1.1,1,2.5,1.6,3.7,2.3C86.5,82.7,86.3,83,86.3,83L86.3,83z"></path>
</g><g>
	<path class="st9" d="M71.2,73c0.3,1.2,0.9,2.3,1.5,3.3c0.5,1.2,0.8,2.4,0.7,3.7c0,0,0-0.1,0-0.1c0.3,0.3,0.6,0.6,0.8,1l0.9,0.3
		l-1.1,0c-1-0.1-1.8-0.6-2.7-1c0,0,0-0.1,0-0.1l-0.1-1.2c0.1-1.3-0.7-2.1-1.5-3.1c0,0,0.2-0.2,0.2-0.2c0.8,0.9,1.7,2,1.6,3.2
		c0,0,0.1,1.2,0.1,1.2l-0.1-0.1c0.4,0.1,0.9,0.2,1.3,0.4c0.4,0.2,0.9,0.3,1.2,0.5L74,81.1c-0.3-0.3-0.7-0.6-0.9-1
		c0-0.6,0-1.3-0.1-1.8c-0.4-1.9-1.7-3.3-2.1-5.1C70.9,73.1,71.2,73,71.2,73L71.2,73z"></path>
</g><g>
	<path class="st9" d="M67.7,82.4c1.1-0.1,2.3-0.3,3.4-0.3c0.4,0,0.8-0.1,1.2,0c0,0-0.1,0-0.1,0l1.8-1.2l0.1,0.2
		c-0.4,0.8-1.5,1.4-1.5,2.2c0.2,1.8-0.8,3.5-1.7,4.9c0,0-0.2-0.1-0.2-0.1c0.8-1.4,1.5-3,1.4-4.6c-0.2-0.5,0.1-0.8,0.3-1.2
		c0.4-0.6,0.9-1.1,1.6-1.4l0.1,0.2l-1.8,1.2c0,0-0.1,0-0.1,0c-0.3,0.2-0.8,0.1-1.1,0.2c0,0-1.2,0.1-1.2,0.1c-0.8,0-1.5,0.1-2.3,0.1
		L67.7,82.4L67.7,82.4z"></path>
</g><g>
	<path class="st9" d="M75.6,90.9c0.3-0.5,0.7-1.2,1-1.7c0.2-0.6,0.5-1.4,0.9-1.9c1.1,0,2.2,0.4,3.2,0.7c1,0.3,2.1,0.6,3.1,0.9l0,0.1
		l1.1,1.6c-0.1-0.2,1.6,1.4,1.5,1.4c0,0-0.2,0.2-0.2,0.2L84.6,91c0,0,0,0,0,0c0,0-1.1-1.6-1.1-1.6c0,0,0.1,0.1,0.1,0.1
		c-1.5-0.4-3-0.9-4.6-1.3c-0.5-0.1-1-0.2-1.5-0.4l0.2-0.1c-0.3,1.3-1,2.5-1.8,3.5C75.9,91.1,75.6,90.9,75.6,90.9L75.6,90.9z"></path>
</g><g>
	<path class="st9" d="M89.1,84.6c-1.5,0.2-3,0.5-4.6,0.4c-0.2-0.1-0.5,0-0.8,0c-0.6,0.1-1.2,0.2-1.8,0.3l0-0.2
		c0.9,0.4,1.7,1.1,2.2,1.9c0.3,0.8,1.3,2.1,1.7,2.9c0.3,0.5,0.9,1.2,1.2,1.6c0,0,1.3,1.3,1.3,1.3L88.3,93l-1.4-1.2
		c-0.4-0.5-0.9-1.1-1.3-1.7c-0.7-1-1.3-2-1.9-3.1c-0.6-0.7-1.3-1.2-1.9-1.9c0.9-0.3,2-0.6,2.9-0.4c0.2,0,0.5,0,0.8,0
		c1.2-0.1,2.4-0.2,3.6-0.3L89.1,84.6L89.1,84.6z"></path>
</g><g>
	<path class="st9" d="M80.2,79.2c0-0.5,0.3-0.9,0.5-1.3c0,0,0,0.2,0,0.2L80,77l0.3-0.2l0.7,1l0,0.1c-0.1,0.5-0.2,1-0.5,1.4
		C80.5,79.3,80.2,79.2,80.2,79.2L80.2,79.2z"></path>
</g><path class="st12" d="M35.4,77.9c0,0,2-0.5,2.9-0.2s2,1,2.1,1.3c0.1,0.3,0.1,0.9,0.1,0.9l0.1,1.2c0,0,0.4,1.3,0.1,1.6
	s-0.8,0.9-0.8,0.9l-1.1,0.1c0,0,0.4,1.1,0.3,2s-0.2,2.2-0.4,2.7c-0.2,0.5-0.7,1.8-0.7,1.8l-1.7-0.2L34,88.2c0,0,0.6,3,0.3,3.9
	c-0.4,0.9-0.9,1.6-1.6,1.7c-0.7,0-0.7,0-0.7,0s-0.2,0.3-0.8,0.9c-0.6,0.6-1.2,0.9-1.7,0.9c-0.4,0-1.9,0-2.2,0.2
	c-0.3,0.2-0.9,0.1-0.9,0.1s-0.8-1.1-0.8-1.9c-0.1-0.9,0.6-2.8,0.6-2.8s-2,3.3-2.5,3.9c-0.5,0.5-1.3,0.7-1.3,0.7s-1.4,0.8-1.7,1
	s-1.2,0.1-1.2,0.1s-1.4-0.9-1.6-1.3c-0.2-0.4-1,0.8-1.4,0.8c-0.4,0-1.6,0-1.6,0s-1.1-1.1-0.9-3.1s0.5-2.9,1-3.1
	c0.5-0.2,0.9-0.7,0.9-0.7l-0.4,0.5c0,0-0.1-2.4,1.7-4.6c1.8-2.2,2.1-2.2,2.1-2.6c0.1-0.3,0.5-1.6,0.5-1.6s2.1-2.4,2.6-2.9
	c0.6-0.6,2.7-2.1,3.1-2.1c0.4,0,2.9-0.7,3.3-1.2c0.4-0.5-0.1-1.5,2-2.1c2.1-0.6,2.3-1,3.2-1.2c0.8-0.1,0.7-0.7,1.5-0.1
	c0.7,0.5,1,0.7,1,1.1c0,0.4-1,1.5-1,1.5s1.8-0.6,2.5-0.5c0.7,0.1,0,0.9-0.1,1.3S37.4,76.9,35.4,77.9z"></path><g>
	<path class="st9" d="M28.4,94.1c0.7-3.7,1.2-7.4,2.2-11c0.3-0.9,0.8-1.6,1.5-2.2c0,0,0.2,0.2,0.2,0.2c-0.2,0.3-0.5,0.5-0.8,0.7
		c-1.6,1.1-4.5,3.3-6.2,4.5c-1.6,1-2.7,2.4-4.3,3.4c-0.7,0.3-2.3,1-3,1.3c0,0,0.1-0.1,0.1-0.1l-1,2.6l-0.2-0.1l1-2.6l0,0l0,0
		c0.7-0.3,2.3-1.1,3-1.4c0.9-0.5,1.7-1.4,2.5-2.1c1.9-1.6,5-3.7,7-5.2c0.6-0.4,1.3-1.1,2.1-1.3c0,0-0.1,0.2-0.1,0.2
		c-0.3,0.8-0.9,1.4-1.2,2.2c-0.4,1.4-0.8,2.8-1,4.2c-0.5,2.3-1,4.5-1.5,6.8L28.4,94.1L28.4,94.1z"></path>
</g><g>
	<path class="st9" d="M20.2,84.4c1-0.8,2.2-1.5,3.1-2.5c0.4-0.6,1.1-1.1,1.7-1.5c0.2-0.1,0.5-0.5,0.8-0.5c0.1,0,0,0,0.1,0
		c0,0,2.2,0.3,2.2,0.3c1.4,0.3,2.9-0.2,4.2,0.6c0,0-0.1,0.2-0.1,0.2c-0.4-0.3-0.6-0.7-0.9-1.1l-0.8-1.2c-0.5-0.7-0.9-1.8-1.3-2.5
		c0,0,0,0,0,0l0,0l0,0l0.3-1.7l0.3,0.1l-0.3,1.7l0-0.1c0.4,0.7,1,1.7,1.5,2.4c0.4,0.7,1.2,1.6,1.4,2.4c0,0,0.1,0.5,0.1,0.5l-0.3-0.3
		c-0.4,0.1-0.7,0-1-0.1c-0.3-0.1-0.8-0.2-0.9-0.3c-1.3,0.1-3.1-0.2-4.4-0.4c0,0,0.1,0,0.1,0c0,0.2-0.2,0.2-0.3,0.3
		c-0.2,0.2-0.8,0.6-1,0.8c-1.3,1.2-2.6,2.4-4.2,3.3C20.4,84.6,20.2,84.4,20.2,84.4L20.2,84.4z"></path>
</g><g>
	<path class="st9" d="M34.3,72.7c-0.1,1.3-0.5,2.4-1,3.6c-0.3,1.2-0.4,2.3-0.2,3.6c-0.1,0.4-0.4,0.8-0.7,1.2c0,0-0.2-0.2-0.2-0.2
		c0.7-0.6,1.6-0.9,2.4-1.3c0,0-0.1,0.2-0.1,0.2l-0.1-1.2c-0.3-1.2,0.4-2.4,1.1-3.4c0,0,0.3,0.2,0.3,0.2c-0.6,1-1.3,2-1,3.2
		c0,0,0.1,1.2,0.1,1.2l0,0.1c-0.8,0.5-1.6,1.1-2.5,1.3c0,0-1.1,0.2-1.1,0.2c0,0,0.8-0.4,0.8-0.4c0.2-0.4,0.4-0.8,0.7-1.1l0,0.1
		c-0.1-0.6-0.2-1.2-0.1-1.9c0.1-1.9,1.2-3.5,1.3-5.3C34,72.6,34.3,72.7,34.3,72.7L34.3,72.7z"></path>
</g><g>
	<path class="st9" d="M38.8,81.7c-1.1,0.1-2.3,0.3-3.4,0.3c-0.4,0-0.8,0.1-1.2,0c0,0-0.1,0-0.1,0c0,0-2-1-2-1l0.1-0.2
		c0.9,0.2,1.5,0.9,2.1,1.6c0.1,0.2,0.2,0.4,0.1,0.7c0.1,1.6,1.1,3,2,4.3c0,0-0.2,0.1-0.2,0.1c-0.9-1-1.7-2.1-2.2-3.4
		C34.1,83.8,34,83.4,34,83c0-0.1-0.1-0.4-0.4-0.6c-0.4-0.5-1-0.8-1.5-1.3l0.1-0.2c0,0,2,1,2,1c0,0-0.1,0-0.1,0
		c0.2-0.1,0.4-0.1,0.6-0.1c0.4,0,1.3-0.1,1.7-0.1c0.8,0,1.5-0.1,2.3-0.1L38.8,81.7L38.8,81.7z"></path>
</g><g>
	<path class="st9" d="M31.9,91.3c-1-0.9-1.9-2-2.3-3.2c0,0,0.2,0.1,0.2,0.1c-0.5,0.3-1,0.4-1.5,0.6c-0.4,0.2-1,0.4-1.4,0.6
		c-1,0.4-1.9,0.9-2.9,1.3l0.1-0.1l-0.8,1.8c0,0,0,0,0,0L21.9,94l-0.3-0.2l1.3-1.6l0,0l0.8-1.8c0-0.1,0-0.1,0.1-0.1
		c1.2-0.6,2.4-1.1,3.6-1.7c0.8-0.4,1.6-0.7,2.4-0.8c0,0,0.1,0.1,0.1,0.1c0.7,0.7,1,1.7,1.7,2.4c0,0,0.6,0.8,0.6,0.8L31.9,91.3
		L31.9,91.3z"></path>
</g><g>
	<path class="st9" d="M17.9,86.4c1.4-0.1,3,0,4.4-0.3c0.9-0.4,1.9-0.2,2.8-0.1c0,0,0.2,0,0.2,0l-0.1,0.2c-0.5,0.7-1.1,1.3-1.5,2
		c-0.6,1.8-1.5,3.5-2.5,5.1c0,0-1.2,1.4-1.2,1.4c0,0-0.2-0.2-0.2-0.2l1.1-1.5c0.2-0.5,0.7-1.2,0.9-1.8c0.3-0.8,1.1-2.3,1.3-3.1
		c0.4-0.9,1.1-1.7,1.9-2.2c0,0,0.1,0.2,0.1,0.2c-0.8,0.1-1.8-0.2-2.6,0.1c-1.5,0.4-3,0.2-4.6,0.3C17.9,86.7,17.9,86.4,17.9,86.4
		L17.9,86.4z"></path>
</g><g>
	<path class="st9" d="M25.7,80.2c-0.4-0.3-0.5-0.9-0.7-1.3c0,0,0-0.1,0-0.1l0.5-1.1l0.3,0.1l-0.5,1.1l0-0.2c0.2,0.2,0.3,0.4,0.4,0.6
		c0.1,0.2,0.3,0.4,0.3,0.7L25.7,80.2L25.7,80.2z"></path>
</g><path class="st8" d="M51,73.8c-1.2,0.1-6.9,0.6-7.9,1.5s-1.8,2.7-2.1,3s-1.8,0.9-1.9,1.2c-0.1,0.2,0,1.2-0.4,1.5
	c-0.4,0.3-1.3,0.8-1.3,0.8s0.4,1.1,1,1.3c0.6,0.2,1.4-0.1,1.4-0.1l1.1,0c0,0-0.9,1.1-1,1.4c0,0.4,0.5,0.5,0.5,0.5s1.7-0.1,2.1-0.5
	c0.4-0.4,0.4-0.7,0.9-0.9c0.5-0.3,1.9-0.4,1.9-0.4s-0.8,1.1-1.2,2c-0.4,1,0,3.7,0.4,5.2s0.8,3,0.8,3l1.4-0.1c0,0-0.3,0.5,0.5,1.7
	c0.8,1.2,3,3,3.3,3.5c0.3,0.5,1.3,1.2,1.3,1.2s3.8-2.6,4.8-3.2c1-0.6,1.2-1.7,1.3-1.9c0.1-0.2,2.3-1.5,2.3-1.5s1.9-3.2,1.9-3.7
	c0-0.4-1.7-2.7-1.8-3.2s0-1.5,0-1.5s0.4,0.9,1.6,1.8s2.3,1.6,2.7,1.6c0.4,0,2.7,0.2,2.7,0.2s1.3-1,1-1.4S67.6,86,67.6,86
	s0.6,0,0.8-0.2c0.2-0.2-0.6-2.4-0.6-2.4l1.4-0.2c0,0-2.3-3.2-2.5-3.7c-0.3-0.5-1.3-0.8-1.3-0.8s0.4-0.3,0.9-0.4
	c0.5-0.1,2.5-0.3,2.5-0.3s0.6-0.6-0.1-0.9c-0.7-0.2-2.8-0.9-3.3-1.4s-1-1.7-2.6-2.4c-1.6-0.7-3.5-0.8-3.8-1c-0.4-0.2-2-1.2-3-1.1
	c-0.9,0.1-1.3-0.5-2,0.1S52,72.4,52,72.4L51,73.8z"></path><g>
	<path class="st9" d="M52.4,96.2c0.5-5.9,1.8-11.8,3.8-17.3c0.1-0.2,0.1-0.4,0.3-0.5l0.1,0.2c-2.4,0.2-4.8,0.4-7.2,1.1
		c-2.4,0.6-4.6,1.5-6.8,2.6c0,0-0.1-0.2-0.1-0.2c2.2-1.2,4.5-2.1,6.8-2.8c2.4-0.6,4.9-1.3,7.3-1c0.2,0.3,0.1,0.5,0,0.7
		c0,0-0.2,0.5-0.2,0.5c-1.9,5.4-3.1,11-3.8,16.7L52.4,96.2L52.4,96.2z"></path>
</g><g>
	<path class="st9" d="M65.9,86.9l-4.8-4c-1.2-0.9-2.5-2-3.6-3.1c-0.4-0.4-0.8-0.7-1-1.2c0-0.2-0.1-0.2,0.1-0.2c3-1,6.2-1.4,9.4-1.4
		c0,0,0,0.3,0,0.3c-2.4,0.1-4.7,0.2-7,0.9c-0.8,0.2-1.5,0.4-2.3,0.5l0.1-0.2c0.6,0.2,0.8,0.6,1.2,1c0.7,0.6,1.6,1.6,2.3,2.1
		c2.1,1.6,3.9,3.5,5.8,5.2C66,86.7,65.9,86.9,65.9,86.9L65.9,86.9z"></path>
</g><g>
	<path class="st9" d="M61.1,74.2l-2.2,2.2c-0.8,0.7-1.6,1.8-2.5,2.3c0,0,0.1-0.3,0.1-0.3c-0.1-1,0.1-2,0.2-2.9
		c0.2-1,0.3-2.1,1.2-2.8c0,0,0.1,0.2,0.1,0.2c-1.2,1.4-0.9,3.7-1.3,5.5c0,0-0.2-0.1-0.2-0.1c0.9-1.1,3.3-3.2,4.4-4.3
		C60.9,74,61.1,74.2,61.1,74.2L61.1,74.2z"></path>
</g><g>
	<path class="st9" d="M56.5,78.5c-0.7-0.4-1.4-1.3-2-1.8c-0.6-0.5-1.4-1.3-2-1.8c0,0,0.1-0.2,0.1-0.2c0.4,0.3,0.7,0.6,1.1,0.8
		c0.5,0.4,1.5,1.4,2,1.8c0.3,0.3,0.7,0.6,0.9,1L56.5,78.5L56.5,78.5z"></path>
</g><g>
	<path class="st9" d="M45.8,90.4c1.1-1.3,3-1.9,4.1-3.2c0,0,0,0,0,0c0-0.1,0-0.3,0.1-0.4c1.3-1.4,3-2.5,4.8-3.1c0,0,0,0,0,0
		c0.6,0.3,0.8,1,1.1,1.5c0.3,0.5,0.5,1,0.8,1.5c0.2,0.8,0.3,1.7,0.7,2.4c0.6,0.4,1.4,1,2,1.6c0,0,0,0,0,0l0,0.1l0.1,1.1l-0.3,0
		l-0.1-1.1l0,0.1c-0.3-0.3-0.6-0.6-1-0.8c-0.3-0.3-0.7-0.5-1-0.8c-0.4-0.7-0.6-1.8-0.7-2.5c-0.5-0.6-1-1.4-1.4-2.1
		c-0.1-0.2-0.3-0.5-0.3-0.8l0.2,0.1c-1.6,1-3.5,1.7-4.6,3.2c0,0,0-0.1,0,0c0,0.1,0,0.2,0,0.2c-1.1,1.5-3,1.9-4.2,3.3
		C46,90.5,45.8,90.4,45.8,90.4L45.8,90.4z"></path>
</g><g>
	<path class="st9" d="M43.3,77.3c1.6,0.3,3.4,0.8,5.1,1.2c0.4,0.1,0.9,0.2,1.3,0.4c0.1,0.1,0.3,0.1,0.3,0.4c0.5,0.4,0.7,1.3,0.5,1.8
		c0,0.1-0.1,0.1-0.1,0.2c-0.7,0.5-1.1,1.3-1.6,2c-0.2,0.3-0.3,0.6-0.4,1c-0.2,0.6-0.2,1.2-0.6,1.7c-0.4,0.1-1.3,0.4-1.7,0.6
		c0,0-0.1-0.2-0.1-0.2l1-0.4l0.5-0.2c0.2-0.3,0.3-1,0.4-1.4c0.1-1.2,1-2.1,1.7-3c0.8-0.3,0.1-1,0.2-1.8c0,0,0.1,0.1,0.1,0.1
		c-0.4,0.1-0.5-0.1-0.8-0.2c-0.5-0.1-2-0.5-2.5-0.7c-1.1-0.3-2.2-0.7-3.3-1.1L43.3,77.3L43.3,77.3z"></path>
</g><g>
	<path class="st9" d="M58.8,86.9c0.1-1.2,0.5-2.4,0.6-3.6c-0.1-0.8-0.2-1.7,0-2.5c0,0,0.2,0.1,0.2,0.1c0.6,0.2,1.1,0.4,1.7,0.6
		c0.4,0.1,0.8,0.3,1.1,0.2c0.1,0,0.3-0.1,0.5-0.2c0.8-0.2,1.5,0.1,2.2,0c0.2-0.1,0.5,0,0.7,0.1c0.3,0.2,0.5,0.3,0.8,0.5l-0.2,0.2
		c-0.3-0.2-0.8-0.5-1.1-0.5c-0.7,0.2-1.6-0.1-2.3,0.1c-1.1,0.6-2.7-0.2-3.5-0.9c0,0,0.2-0.1,0.2-0.1c0.2,0.7,0.2,1.5,0.2,2.2
		c-0.1,1.3-0.5,2.4-0.8,3.6C59.1,87,58.8,86.9,58.8,86.9L58.8,86.9z"></path>
</g><g>
	<path class="st9" d="M64.9,80.2c-0.4-0.2-1.5-0.6-1.9-0.8c-0.2-0.1-0.4-0.2-0.6-0.4c-0.6-0.5-1.5-0.9-2.2-1.4l0.1-0.2
		c0.9,0.4,1.6,0.8,2.3,1.5c0.5,0.4,1.7,0.8,2.3,1.1C65,80,64.9,80.2,64.9,80.2L64.9,80.2z"></path>
</g><g>
	<path class="st9" d="M49.8,94.4c0.2-0.6,0.4-1.3,0.4-1.9c0-0.2,0.1-0.4,0.2-0.4c0.8-0.6,2-1.3,2.9-1.6c0.9,1.2,1.5,2.5,2.6,3.4
		c0,0,0,0,0,0l0,0.1l0.1,1.4l-0.3,0L55.7,94l0,0.1c-1.1-0.9-1.8-2.2-2.6-3.4c0,0,0.2,0,0.2,0c-0.7,0.7-2,1-2.7,1.7
		c-0.1,0.7-0.4,1.3-0.6,2C50.1,94.5,49.8,94.4,49.8,94.4L49.8,94.4z"></path>
</g><g>
	<path class="st0" d="M48.2,70.2C46,61,44.5,51.5,44.2,42c-0.5-8.7-0.8-17.9-1.1-26.6c0-0.2,0-1.1,0-1.3c0-0.1,0-0.3,0.1-0.4l0.3,0
		c0.2,0.2,0.1,0.6,0.1,0.9c0,0,0,0.9,0,0.9c0.1,3.2,0.5,9.2,0.6,12.4c0.6,9.4,0.8,18.9,2.3,28.2c0.8,4.6,1.8,9.3,2.9,13.8L48.2,70.2
		L48.2,70.2z"></path>
</g><path class="st1" d="M49.4,29.3c-0.1-0.5-0.8-0.8-1-1.6c-0.2-0.8-0.7-1.6-0.4-1.7c0.3-0.1,1.1-0.3,1.2-0.7c0.1-0.4,0.1-0.7-0.3-1
	s-0.8-0.8-0.9-0.9c-0.1-0.1-0.2,0.4-0.9,0c-0.6-0.3-1.1-0.9-1.6-0.7c-0.5,0.2-0.7,0.4-1,0.4c-0.2,0-0.8,0-0.8,0l-0.5,0.9
	c-0.5-0.6-0.9-0.7-1.2-1.4S41,20.5,41,20.5s-0.3,1.6-0.9,2.1c-0.5,0.5-1.1,0.9-1.3,1c-0.2,0.1-1.1,0.8-0.6,1.4
	c0.6,0.7,0.8,1.4,0.9,1.6c0.1,0.2,0.6,0.7,0.9,0.8c0.3,0.1,1,0,1,0.4c0,0.4-0.7,0.7-1.2,0.7c-0.5,0-1.7,0.3-1.9,0.6
	c0,0.1-0.1,0.2-0.2,0.3c0.4,0.4,0.3,0.8,0.3,0.8l0.3,0.1c0,0,0,0,0.4-0.3c0.4-0.3,1.1,0.2,1.2,0.2c0,0,0.3,0.4,0.5,0.8
	c0.2-0.1,0.1-0.4,0.5-0.5c0.4-0.2,0.8,0,0.9,0.2c0.1,0.2,1.5,0.6,1.3,0.8c-0.2,0.2-0.7,0.4-0.3,0.8c0.4,0.3,1.1,0.5,1.2,0.7
	c0.1,0.2,0.5,0.6,0.8,0.4c0.3-0.2,0.7-1.2,1-1.6c0.3-0.5-0.2-1.4,0.6-1c0.8,0.4,1.1,0.6,1.4,0.6c0.3,0,0.7-0.1,0.9-0.3
	C49.1,31,49.4,29.8,49.4,29.3z"></path><path class="st2" d="M44.1,26.3c0,0,0-1.3-0.4-1.5c-0.4-0.2-1.1-0.2-0.9,0.3s0.3,1.2,0.1,1.2c-0.1,0-0.4-0.2-0.7-0.5
	c-0.2-0.2-0.3-0.3-0.5-0.5c-0.4-0.4,0.6,1,0,1c-0.7,0.1-1.3,0.3-1.4,0.2c-0.1-0.1-0.3,0,0.6,0.4c0.8,0.5,1.4,1,1.8,1.3
	c0.4,0.3,0.9,0.7,0.8,0.9c-0.1,0.2-0.3,0.6-0.8,0.7c-0.5,0.2-0.6,0.1-0.8,0.2s0.2,0.7,0.7,0.8s1-0.1,1.2-0.5
	c0.2-0.4,0.1-1.4,0.5-1.3c0.4,0.1,1,0.5,1.3,0.7c0.3,0.2,0.9,0.4,1.3,0.5c0.4,0.1,0.8,0.1,0.9-0.2c0.1-0.3,0.2-0.4-0.5-0.7
	c-0.7-0.2-1.2-0.5-1.5-0.6c-0.3-0.1-2.1-0.3-1.8-0.7c0.3-0.4,0.1-0.8,0.7-0.5c0.7,0.3,0.5,0.4,1,0.5s0.5-0.5,0.2-0.6
	s0.2-0.5,0.2-0.7c0-0.2-0.2-0.5,0.2-0.8c0.4-0.3,0.8-0.8,0.8-0.8s-0.1-0.8-0.5-0.5S44.1,26.3,44.1,26.3z"></path><path class="st3" d="M42.4,24c-0.3-0.1-0.7-0.8-0.9-0.9C41.4,23,41,23,40.9,23.4c-0.1,0.4,0.2,0.5-0.3,0.7c-0.5,0.1-0.8,0.2-0.9,0.5
	c-0.1,0.3-0.4,0.7,0.1,0.6c0.5-0.1,0.8,0.3,1-0.2c0.2-0.5-0.1-0.1,0.2-0.5c0.3-0.3,0.3-0.3,0.3-0.3L42.4,24z"></path><path class="st3" d="M47.7,24.1c0,0,1.6-0.2,1.2,0.1s-0.4,0.6-0.5,0.6c-0.2,0-0.4-0.2-0.4-0.2L47.7,24.1z"></path><path class="st2" d="M38.8,30c-0.4,0.3-0.4,0.3-0.4,0.3L38,30.2c0,0,0.1-0.4-0.3-0.8c-0.2,0.3-0.4,0.8-0.7,0.7
	c-0.3-0.1-0.8-1-0.9-0.4c-0.1,0.6,0,1.3,0.3,1.6c0.3,0.4,0.3,0.4,1.1,0.1c0.8-0.2,0.3,0.1,0.8,0c0.5-0.1,0.1-0.8,0.8-0.8
	c0.7-0.1,0.8,0.4,1.2,0.4c0,0,0.1,0,0.1,0c-0.2-0.4-0.5-0.8-0.5-0.8C39.9,30.3,39.2,29.7,38.8,30z"></path><path class="st4" d="M38.9,38.3C38.8,38.3,38.8,38.3,38.9,38.3C38.8,38.3,38.9,38.3,38.9,38.3z"></path><path class="st1" d="M42.6,44.6c0-0.4-0.1-0.7,0.2-1c0.3-0.3,0.3,0.4,0.6,0.5c0.3,0,0.3-0.6,0.7-0.7c0.2,0,0.6,0.4,1.1,0.7
	c0.2-0.3,0.9-0.3,0.9-0.7c0-0.5-0.5-0.3-0.3-1c0.2-0.6,1.2-0.5,1.3-0.6c0.2-0.1,0.4-0.5,0.3-0.8c0-0.3-0.1-0.3-0.1-0.6
	c0-0.3,0.1-0.6,0.1-0.6s0.7,1,0.9,1.2c0.2,0.2,0.3,0.4,0.4,0c0.1-0.4,0.2-0.6,0.2-0.6s0.7,0.7,0.9,0.4c0.2-0.4-0.5-1.4-0.6-1.4
	c-0.1,0,0.4-1,0.4-1.3c0-0.4-0.9-0.3-1.1-0.3c-0.2,0.1-0.9,0.2-0.9,0.2L48,37l-0.7,0.2l-0.5-0.5c-0.3-0.3-0.6-0.1-0.8-0.3
	c-0.2-0.3-0.5-0.5-0.2-0.8c0.2-0.3,0.5-0.4,0.7-0.6s0.7-0.6,0-0.7c-0.7-0.1-1,0.2-1.4,0.3c-0.4,0.1-0.8,0-1-0.2
	c-0.3-0.2-0.4-0.6-0.6-0.4c-0.2,0.1,0.6,0.5-0.2,0.6c-0.8,0.1-1.1-0.1-1.3-0.1c-0.1-0.1-0.3,0-0.3,0.2c-0.1,0.2,0.2,0.6,0,0.8
	c-0.2,0.2-0.7-0.1-0.6,0.8c0,0.9,0.8,1.3,1.6,1.2c0.1,0,0.3,0,0.4-0.1c0.2-0.3,0.4-0.7,0.8-0.9c0.7-0.5,0.8-0.8,1-0.6
	c0.2,0.2,0.6,0.7,0.6,0.7c0.5,0.2,0.2,0.4,0.4,0.7c0.2,0.3,0.8,0.3,0.6,0.6c-0.2,0.4-0.3,0.1-0.7,0.2c-0.4,0.2-0.6,0.6-0.8,0.6
	c-0.2,0-0.1,0.3-0.4,0.2c-0.1-0.1-0.5-0.3-0.9-0.6c-0.4,0.1-0.6,0.2-0.9,0.1c-0.4-0.2-2.4-1.4-2-0.8c0.4,0.6,0.6,0.5,0.5,0.9
	c-0.1,0.4-0.3,0.5-0.4,0.7c-0.1,0.1-0.5,0.4-0.8,0.4c-0.3,0-1,0-0.7,0.6c0.4,0.6,0.7,0.8,0.6,1c-0.1,0.2-0.4,0-0.4,0.4
	c0,0.4-0.6,0.9-0.1,1.1c0.5,0.2,1.4,0.6,1.4,0.6s0.2,0.3-0.1,0.7c-0.2,0.3-0.1,0.7,0.1,0.9c0.2,0.1,0.3,0,0.7,0.3
	c0.1,0.1,0.2,0.2,0.3,0.2C42.2,45.1,42.6,44.8,42.6,44.6z"></path><path class="st3" d="M44.9,38.7c0.2,0,0.4-0.5,0.8-0.6c0.4-0.2,0.5,0.1,0.7-0.2c0.2-0.4-0.4-0.4-0.6-0.6c-0.2-0.3,0.1-0.5-0.4-0.7
	c0,0-0.4-0.4-0.6-0.7c-0.2-0.2-0.3,0.1-1,0.6c-0.4,0.2-0.6,0.6-0.8,0.9c0.5-0.1,0.7-0.2,1.1,0c0.4,0.2,0.4,0.7-0.3,0.9
	c-0.1,0-0.2,0.1-0.3,0.1c0.4,0.2,0.8,0.5,0.9,0.6C44.8,39.1,44.7,38.8,44.9,38.7z"></path><path class="st2" d="M43.1,46.2c0.6,0,1.4-0.3,1.5-0.6s0.4-1,0.6-1.4c0,0,0-0.1,0.1-0.1c-0.5-0.3-0.9-0.7-1.1-0.7
	c-0.3,0-0.4,0.7-0.7,0.7c-0.3,0-0.3-0.8-0.6-0.5c-0.3,0.3-0.2,0.7-0.2,1c0,0.2-0.5,0.5-0.9,0.8c0.2,0.2,0.4,0.5,0.5,0.5
	C42.5,45.9,42.5,46.3,43.1,46.2z"></path><path class="st2" d="M42.2,39.2c-0.1,0.2-0.2,0.7-0.5,1.2c-0.3,0.5,0,0.7-0.3,0.8c-0.3,0-0.8-0.2-0.9,0c-0.1,0.2-0.5,0.9,0,0.7
	s1.1-0.5,1.3-0.1c0.2,0.4,0.2,0.3,0.5,0.5c0.3,0.1,0.4-0.1,0.7-0.3c0.3-0.2,0.4-0.4,0.8-0.2c0.4,0.2,0.5,0.5,0.7,0s0.2-0.7,0-1.1
	c-0.2-0.4-0.5-0.8,0.1-0.6c0.7,0.2,1.1,0.2,1.3,0.3c0.2,0.1,0.8,0.3,0.6-0.4c-0.2-0.7,0.7-0.9-0.4-0.9c-1.1,0-1.7,0.1-2.1,0.1
	c-0.4,0-0.4,0.1-0.9,0C42.9,39.2,42.2,39.2,42.2,39.2z"></path><path class="st1" d="M44.1,21c0.2-0.1,0.6-0.7,1-0.9c0.5-0.2,0.6-0.1,0.6,0.2c0,0.3,0.3,0.7,0.4,0.7c0.1,0,0-0.4,0.3-0.7
	s0.3-0.4,0.6-0.2c0.3,0.2,0.6,0.5,0.8,0.3s0.2-0.6-0.1-0.9S46.8,19,47,19c0.2-0.1,0.6-0.5,0.7-0.6c0.1-0.1-0.8-0.4-1-0.4
	c-0.2,0-0.4-0.9-0.8-0.4c-0.3,0.5-0.6,0.7-0.8,0.9s-0.7,0-0.8-0.1c-0.1-0.1-0.2-0.3-0.3,0.1c-0.1,0.4-0.2,0.3-0.1,0.8
	c0.1,0.4,0.2,0.8,0,0.8c-0.2,0.1-0.4,0.4-0.4,0.4l0,0.5L44.1,21z"></path><line class="st5" x1="43.4" y1="20.5" x2="41.8" y2="18.5"></line><path class="st2" d="M40.6,18.9c-0.4,0-0.5,0.7-1,0.7s-0.8-0.1-1-0.2c-0.1-0.1-0.6,0.1-0.6-0.5c0-0.5,0.1-0.5,0.1-1
	c0-0.5-0.3-0.8,0.2-0.6s0.9,0.3,1.2,0.3c0.3,0,0.3,0,0.7,0c0.4,0,0.8,0.2,1,0.2c0.2,0,0.9,0.4,0.9,0.4S42.3,19.1,40.6,18.9z"></path><line class="st5" x1="45.3" y1="16.4" x2="43.4" y2="18.1"></line><path class="st1" d="M44.8,15.4c-0.1-0.5-0.3-0.4-0.3-0.8c0.1-0.4,0.2-0.3,0.4-0.2c0.2,0.1,0.4,0.4,0.5,0.2c0.1-0.2-0.8-0.7-0.5-1
	s-0.1-0.4,0.3-0.3c0.3,0.1,0.4,0.4,0.7,0.3c0.3-0.1,0.3-0.6,0.8-0.2s0.2,0.9,0.2,1.1c0,0.2,0.2-0.1,0.6,0c0.4,0.1,0.3,0.4,0.3,0.7
	c0,0.3-0.2,0.4,0.2,0.5c0.4,0.1,1,0.1,0.5,0.6c-0.5,0.5-1.1,0.6-1.1,0.6s0.5,0.2,0.3,0.5c-0.1,0.3-0.6,0.2-0.8,0
	c-0.3-0.2-0.2-0.2-0.6-0.4C46,16.9,45.3,17.1,44.8,15.4z"></path><path class="st3" d="M45.6,13C45.2,13,45,12.9,45,12.9C45,12.9,45.2,13,45.6,13c0.1-0.1,0.1-0.2,0.1-0.3c-0.2-0.1-0.5-0.2-0.5-0.4
	c-0.1-0.5,0-1.3-0.3-1.4c-0.4-0.1-0.2,0.5-0.6,0.9c-0.4,0.4-0.9,0.2-0.7,0.6c0.1,0.4,0.3,0.4,0.4,0.8c0.1,0.4,0.4,0.7,0.2,1.1
	c-0.1,0.2-0.1,0.5-0.2,0.8c0.1,0.1,0.2,0.1,0.2,0.2C44.4,15.3,45.1,13.9,45.6,13z"></path><path class="st1" d="M44,13.2c-0.1-0.4-0.3-0.4-0.4-0.8c-0.1-0.4,0.3-0.2,0.7-0.6c0.4-0.4,0.2-1,0.6-0.9c0.4,0.1,0.2,0.9,0.3,1.4
	c0.1,0.2,0.3,0.4,0.5,0.4c0.1-0.2,0.3-0.4,0.3-0.4c0.2-0.1,0.2-0.6-0.1-1.1c-0.3-0.6-0.9-0.5-1-1c0-0.2,0-0.2,0-0.3
	c-0.5-0.2-0.9-0.4-1.2-0.5c-0.7-0.4-1.3-0.8-1.1-1c0.2-0.2,1.2,0.2,1.2,0.2s0.3-0.2-0.3-0.5c-0.6-0.3-1.3-0.7-1.5-0.6
	c-0.2,0.1-0.5-0.2-0.3-0.4c0.2-0.2,0.6-0.4,0.5-0.6C42.1,6.3,42.1,6,42,5.7c-0.3-0.1-0.6-0.3-1-0.4C40.4,5.1,40.3,6,40.3,6
	s1.1,0.6,0.9,0.6c-0.3,0,0,0.9,0,1.2c0,0.3-0.7,0.2-1,0.3c-0.3,0.1,0.4,1,0.4,1.8c0,0.8,0.4,0.2,1-0.2c0.5-0.4,0.7,0.7,0.4,1.1
	c-0.2,0.4-0.8,0.4-1.5,0.5c-0.7,0.1-0.3,0-0.7-0.4c-0.3-0.4-0.1-0.6-0.6-1.6c-0.5-1-0.4-0.1-0.4-0.5c0-0.4-0.4-0.3-1.2-0.5
	c-0.7-0.2-0.1,0.6-0.4,0.9s-0.6-0.2-1-0.1c-0.1,0-0.1,0.1-0.1,0.1c0.3,0.2,0.6,0.4,0.9,0.5c0.8,0.3,0.4,0,0.7,0c0.4,0,0.6,0,1,0.4
	c0.3,0.3,0.2,0.8,0,1c0.4,0.1,0.7,0.1,0.7,0.2c0,0.1-0.5,0.3-0.4,0.9c0.1,0.6,0.5,0.7,1,1c0.5,0.3,0.4,0.6,0.1,0.5
	c-0.3-0.1-0.6-0.1-1,0.1c-0.3,0.3,0,0.7,0.1,1.6c0.1,0.9,0.6,0.5,1,0.4c0.4-0.1,0.7-0.2,1.1-0.3c1.1-0.3,0.7-1.6,0.7-1.6
	s0.5,0.2,0.6,0.3c0.1,0,0.9,0.6,1.3,0.9c0-0.3,0.1-0.6,0.2-0.8C44.4,13.9,44.1,13.7,44,13.2z"></path><path class="st2" d="M41.7,7.1c-0.2,0.2,0.2,0.5,0.3,0.4c0.2-0.1,0.9,0.4,1.5,0.6c0.6,0.3,0.3,0.5,0.3,0.5s-0.9-0.4-1.2-0.2
	c-0.2,0.2,0.4,0.6,1.1,1c0.3,0.2,0.7,0.4,1.2,0.5c0.1-0.2,0.3-0.2,0.5-0.4C45.9,9.2,45.3,9,45.2,9c-0.2,0-0.3-0.4-0.1-0.9
	c0.3-0.4-0.2-1-0.5-1.4c-0.3-0.4-0.6-0.1-0.8-0.3c-0.2-0.1-1-0.4-1.5-0.6c-0.1,0-0.3-0.1-0.4-0.1c0,0.3,0.1,0.6,0.2,0.9
	C42.2,6.7,41.8,6.9,41.7,7.1z"></path><path class="st2" d="M38.8,10.2c-0.4-0.4-0.6-0.4-1-0.4c-0.4,0,0.1,0.3-0.7,0c-0.4-0.1-0.7-0.4-0.9-0.5c-0.1,0.2,0.3,0.4,0.4,0.5
	c0.2,0.2,1,0.6,1.7,1.1c0.2,0.1,0.4,0.2,0.6,0.3C38.9,10.9,39.1,10.5,38.8,10.2z"></path><path class="st1" d="M46.7,50.7c-0.4-0.2-0.6-0.5-0.4-0.8c0.2-0.3,0.8,0.2,0.9,0.4c0.1,0.1,1.2,0.6,2.3,1.1c0.2,0.1,0.4,0.2,0.6,0.3
	c0,0,0-0.1,0-0.1c0.2-0.3,0-1.1,0.1-1.1c0,0-1.2-0.1-1.2-0.1s-0.9-0.2-0.9-0.4c0-0.2,0.1,0.2,0-0.2c-0.1-0.4,0-0.6,0-1.3
	c-0.1-0.7,0-1-0.2-1.3c-0.2-0.4-1.2-2-1.4-2c-0.1,0-0.7,0.6-0.8,0.9c0,0.2,0.2,0.6,0.3,1c0.1,0.3,0.6,0.4,0,0.5
	c-0.6,0.1-1-0.2-0.8,0.1c0.2,0.3,0.9,1.3,0.9,1.3l-0.2,0.5L45.1,50c0,0,0.5-0.8-0.2-1c-0.7-0.2-1-0.3-1.3-0.7c-0.3-0.4-0.4-1-0.4-1
	s-0.5,0-0.6-0.2c-0.2-0.2-0.1-0.2-0.7-0.6c-0.6-0.4-1.1-0.6-1.2-0.8c-0.1-0.1-1.4-0.8-1.6-0.9s-0.5,0.1-0.7,0.4
	c-0.1,0.3-0.4,0.1-0.4,1c0,0.9-0.1,1,0,1.5c0.2,0.5,0.9,0.9,1,0.8c0.1-0.1,0.5-0.2,0.9-0.3c0.3,0,0.4,0.6,0.3,0.8
	c-0.1,0.1-0.3,0-0.2,0.8c0.1,0.4,0.2,0.7,0.3,0.9c0.3,0,0.7,0,1.1,0c0.8-0.1,0.5-0.4,1.1,0.4s-0.2-0.7,0.6,0.8c0,0,1-0.5,1.1-0.3
	c0.1,0.2,0.6,0.6,0.6,0.6c0.5,0.1,0.7,0.4,0.7,0.4s0.4,0.4,0.4,0.5c0,0.1,0.1,1.3,0.1,1.3s0.8-0.7,1-0.8c0.2-0.1,0.8,0,0.8,0
	c0.5-0.6,0.4-1.8,0.4-1.8s0.3,0,0.5,0L47.7,51C47.7,51,47.2,50.8,46.7,50.7z"></path><path class="st2" d="M42.5,51.1c-0.6-0.8-0.3-0.5-1.1-0.4c-0.4,0-0.7,0-1.1,0c0.1,0.2,0.2,0.3,0.3,0.3C41,51,41.2,52,41.2,52
	s-0.3,0,0.4,0.2c0.7,0.1,1.5-0.3,1.5-0.3C42.4,50.4,43.1,51.9,42.5,51.1z"></path><path class="st2" d="M49,51.9c0.2,0.2,0.4,0.9,0.7,0.5c0.2-0.3,0.2-0.6,0.4-0.9c-0.2-0.1-0.4-0.2-0.6-0.3c-1-0.5-2.1-1-2.3-1.1
	c-0.1-0.1-0.7-0.7-0.9-0.4c-0.2,0.3-0.1,0.7,0.4,0.8c0.4,0.2,1,0.4,1,0.4l0.9,0.8C48.8,51.8,48.9,51.8,49,51.9z"></path><path class="st3" d="M40.1,46.6c0,0,0.6,0.7,0.6,1s0.3,0,0.5,0.4s-0.1,0.7,0,0.9s0.4,0.2,0.8,0.3s0.7,0.3,0.5-0.4
	c-0.1-0.7,0.2-1-0.3-1c-0.5,0-0.5-0.5-0.7-0.5S41,47,41,47L40.1,46.6z"></path><path class="st10" d="M46.8,66.7c0,0,1.5-0.4,2.2-0.2c0.7,0.2,1.5,0.8,1.6,1.1c0.1,0.3,0.1,0.7,0.1,0.7l0.1,1c0,0,0.3,1.1,0.1,1.3
	c-0.2,0.2-0.6,0.8-0.6,0.8l-0.8,0.1c0,0,0.3,0.9,0.3,1.7s-0.1,1.8-0.3,2.2s-0.5,1.5-0.5,1.5l-1.3-0.2l-1.7-1.4c0,0,0.5,2.5,0.2,3.3
	s-0.7,1.3-1.2,1.4s-0.5,0-0.5,0s-0.2,0.2-0.6,0.8c-0.4,0.5-0.9,0.7-1.3,0.7c-0.3,0-1.4,0-1.7,0.1c-0.3,0.2-0.7,0.1-0.7,0.1
	s-0.6-0.9-0.6-1.6c-0.1-0.7,0.4-2.3,0.4-2.3s-1.5,2.7-1.9,3.2c-0.4,0.5-1,0.6-1,0.6s-1.1,0.6-1.3,0.8c-0.3,0.2-0.9,0.1-0.9,0.1
	s-1.1-0.8-1.3-1.1c-0.2-0.3-0.7,0.6-1.1,0.6s-1.2,0-1.2,0s-0.9-0.9-0.7-2.6c0.1-1.6,0.4-2.4,0.7-2.5c0.4-0.2,0.7-0.5,0.7-0.5
	l-0.3,0.4c0,0-0.1-2,1.3-3.8c1.4-1.8,1.6-1.8,1.6-2.1c0-0.3,0.4-1.3,0.4-1.3s1.6-2,2-2.4s2-1.7,2.4-1.7c0.3,0,2.2-0.6,2.5-1
	c0.3-0.4-0.1-1.3,1.5-1.7c1.6-0.5,1.8-0.8,2.4-1c0.6-0.1,0.6-0.5,1.1-0.1c0.6,0.5,0.8,0.6,0.8,0.9c0,0.4-0.8,1.3-0.8,1.3
	s1.4-0.5,1.9-0.4c0.5,0.1,0,0.8-0.1,1.1C48.6,64.6,48.4,65.9,46.8,66.7z"></path><g>
	<path class="st9" d="M41.6,80.1c0.4-3,0.9-6.1,1.6-9.1c0.2-0.7,0.6-1.4,1.2-1.9c0,0,0.1,0.1,0.1,0.1c-0.2,0.3-0.4,0.4-0.6,0.6
		c-1.2,0.9-3.5,2.7-4.7,3.7c-1.2,0.8-2,2-3.2,2.8c-0.5,0.2-1.8,0.8-2.3,1.1c0,0,0-0.1,0-0.1l-0.8,2.2l-0.2-0.1l0.8-2.2l0,0l0,0
		c0.5-0.3,1.8-0.9,2.3-1.1c1.1-0.8,2-2,3.2-2.8c1.2-1,3.4-2.8,4.6-3.7c0.3-0.2,0.6-0.4,0.9-0.5c-0.3,0.8-0.8,1.3-1,2
		c-0.6,2.2-1.4,6.7-1.8,9.1C41.7,80.2,41.6,80.1,41.6,80.1L41.6,80.1z"></path>
</g><g>
	<path class="st9" d="M35.2,72.1c1.6-1.2,2.3-2.1,3.6-3.3c0.2-0.1,0.4-0.4,0.6-0.4c1.1,0.1,2.3,0.4,3.4,0.3c0.5,0.2,1.1,0.1,1.6,0.4
		c0,0-0.2,0.2-0.2,0.2c-0.1-0.4-0.5-0.6-0.6-1c-0.6-1-1.2-2.1-1.6-3.2c0.1-0.5,0.2-0.9,0.2-1.4l0.2,0c-0.1,0.5-0.2,0.9-0.2,1.4
		l0-0.1c0.6,1.2,1.4,2.3,2,3.5c0.1,0.3,0.2,0.5,0.5,0.7c0,0-0.4,0.1-0.4,0.1c-0.5,0-1-0.3-1.5-0.4c-1,0.1-2.3-0.2-3.4-0.3
		c0.2-0.1-0.1,0.2-0.1,0.2c-1.5,1.2-2.3,2.3-4,3.4C35.4,72.2,35.2,72.1,35.2,72.1L35.2,72.1z"></path>
</g><g>
	<path class="st9" d="M45.9,62.3c-0.2,2-1.4,3.8-0.9,5.9c-0.1,0.4-0.4,0.7-0.5,1c0,0-0.2-0.2-0.2-0.2c0.3-0.2,0.6-0.4,0.9-0.6
		c0.3-0.2,0.6-0.3,0.9-0.5l-0.1,0.1l-0.1-1c-0.2-1,0.3-2,0.8-2.8c0,0,0.2,0.1,0.2,0.1c-0.5,0.9-1,1.7-0.8,2.7c0,0,0.1,1,0.1,1l0,0.1
		c-0.6,0.4-1.2,0.9-1.9,1.1c0,0-0.5,0.2-0.5,0.2l0.3-0.4c0.2-0.3,0.3-0.6,0.5-0.9c0,0,0,0.1,0,0.1c0-0.5-0.1-1-0.1-1.6
		c0.1-1.5,0.9-2.9,1-4.4L45.9,62.3L45.9,62.3z"></path>
</g><g>
	<path class="st9" d="M49.4,69.9c-0.8,0.1-1.8,0.2-2.6,0.3c-0.3,0-0.6,0.1-0.9,0c-0.5-0.3-1-0.6-1.5-0.8l0.1-0.1
		c0.7,0.3,1.5,0.8,1.7,1.6c0,0.4-0.1,0.5,0.1,1c0.3,1,0.8,2,1.5,2.9c0,0-0.1,0.1-0.1,0.1c-0.7-0.8-1.3-1.8-1.7-2.9
		c-0.1-0.3-0.2-0.5-0.1-0.9c0.1-0.4-0.5-0.8-0.8-1.1c-0.2-0.2-0.3-0.4-0.6-0.6l0.1-0.1c0.5,0.3,1,0.6,1.5,0.8c0,0,0,0,0,0
		c0.3-0.2,0.6-0.1,0.9-0.1l0.9-0.1c0.6,0,1.2,0,1.8-0.1L49.4,69.9L49.4,69.9z"></path>
</g><g>
	<path class="st9" d="M44.2,77.8c-0.8-0.7-1.4-1.7-1.8-2.7c0,0,0.2,0.1,0.2,0.1c-1.4,0.5-3.3,1.6-4.4,1.9c0,0-0.6,1.5-0.6,1.5
		c0,0,0,0,0,0c0,0-1,1.4-1,1.4l-0.2-0.2l1-1.4l0,0L38,77c0,0,0-0.1,0.1-0.1c1.3-0.6,3.1-1.7,4.5-2c0,0,0.1,0,0.1,0
		c0.1,0.3,0.4,0.5,0.5,0.7c0,0,0.4,0.7,0.4,0.7c0.3,0.4,0.6,0.8,0.9,1.3L44.2,77.8L44.2,77.8z"></path>
</g><g>
	<path class="st9" d="M33.5,73.7c1.1-0.1,2.3,0,3.3-0.2c0.7-0.3,1.6-0.2,2.3,0c-0.6,0.6-1,1.3-1.4,2c-0.3,0.9-0.6,1.7-1,2.6
		c-0.3,0.5-0.5,1-0.8,1.5c0,0-0.9,1.2-0.9,1.2l-0.2-0.1l0.9-1.2c0.2-0.4,0.5-1,0.7-1.5c0.3-0.7,0.8-2,1-2.8c0.3-0.7,0.9-1.1,1.4-1.6
		c0,0,0.1,0.2,0.1,0.2c-0.6,0.1-1.4-0.2-2,0.1c-1.2,0.3-2.3,0.2-3.5,0.2C33.5,73.9,33.5,73.7,33.5,73.7L33.5,73.7z"></path>
</g><g>
	<path class="st9" d="M39.4,68.5c-0.3-0.3-0.4-0.7-0.6-1.1c0,0,0,0,0,0l0.4-0.9l0.2,0.1l-0.4,0.9c-0.1-0.3,0.3,0.3,0.3,0.4
		C39.7,68.4,39.7,68.4,39.4,68.5L39.4,68.5z"></path>
</g></g></svg>