<?xml version="1.0" encoding="utf-8"?>
<svg version="1.1" id="Layer_1" x="0px" y="0px" viewBox="0 0 108 108" style="enable-background:new 0 0 108 108;" xmlns="http://www.w3.org/2000/svg">
  <style type="text/css">
	.st0{fill:none;stroke:#718638;stroke-width:1.0127;stroke-miterlimit:10;}
	.st1{fill:#A6C339;}
	.st2{fill:#85B541;}
	.st3{fill:#91BC3E;}
	.st4{fill:#B0CC37;}
	.st5{fill:#93B93F;}
	.st6{fill:#A6BD3A;}
	.st7{fill:#A5C939;}
	.st8{fill:#72AA42;}
	.st9{fill:#EAB81F;}
	.st10{fill:#F9E059;}
	.st11{fill:#F8D110;}
	.st12{fill:#F9DB4A;}
	.st13{fill:#F8E173;}
	.st14{fill:#F7D534;}
	.st15{clip-path:url(#SVGID_2_);fill:#B5942F;}
	.st16{fill:#D42328;}
	.st17{fill:#F8E138;}
	.st18{fill:#F19720;}
	.st19{fill:none;stroke:#F8E173;stroke-width:0.1264;stroke-miterlimit:10;}
	.st20{fill:#DC2327;}
	.st21{clip-path:url(#SVGID_4_);fill:#B5942F;}
	.st22{clip-path:url(#SVGID_6_);fill:#B5942F;}
</style>
  <g>
    <path class="st0" d="M36.74,32.63c-0.13,2.42,0.49,6.82,0.91,9.94"/>
    <path class="st0" d="M30.11,35.24c3.09,1.53,6.95,4.73,8.73,8"/>
    <path class="st0" d="M28.52,41.42c3.76-1.47,6.92-3.25,9.13,0.57"/>
    <path class="st0" d="M42.55,49.45c3.6,3.27,6.94,7.49,8.08,11.06"/>
    <path class="st0" d="M50.63,47.22c-0.83,4.97-0.06,12.74,0,14.34"/>
    <path class="st0" d="M43.11,56.21c3.04-0.7,4.84-2.01,7.38,3.15"/>
    <path class="st1" d="M42.31,28.31c0.16,1.95,1.1,2.42-2.37,5.58l-3.47,3.16c0,0-0.58-0.79-1.26-1.68c-0.68-0.89-3.63-3.94-1.95-7.1 c1.68-3.16,3.05-4.84,3.58-5.31c0.53-0.47,1.95-2.43,2.34-2.9"/>
    <path class="st2" d="M19.8,25.58c2.26,1.16,5.79-0.68,8.47,1.53c2.68,2.21,3.92,7.26,4.48,8.73c0.57,1.47,1.77,0.95-0.91,0.79 c-2.68-0.16-2.9,0.74-5.19,0c-2.28-0.74-5.23-4.46-5.33-5.91C21.22,29.26,19.8,25.58,19.8,25.58"/>
    <path class="st3" d="M32.75,39.73c-0.7-0.05-1.43-0.68-4.8-1c-3.37-0.32-6.05-0.16-6.84,2.37c-0.79,2.53,0,3.1-1.58,4.68 l-1.58,1.58c0,0,2.89,0.32,6.94,0.53c4.05,0.21,6.26-3.74,6.89-5.42C32.42,40.78,32.75,39.73,32.75,39.73"/>
    <path class="st4" d="M34.58,39.83c0,0,1.42,1.84,4.6,2.1c3.18,0.26,6.55,2.1,6.29,5.47c-0.26,3.37,0.68,5.31,0.68,5.31 s0.11-0.47-2.68-0.47c-2.79,0-6.57-2.21-7.47-5.05C35.11,44.36,34.58,39.83,34.58,39.83"/>
    <path class="st5" d="M54.04,37.04c0,0-4.42,3.79-5.89,6.47c-1.47,2.68-1.95,4.31-0.47,6.42c1.47,2.1,1.95,3.74,1.95,3.74 s2.58-3.26,4.16-3.95c1.58-0.68,3.47-3.37,2.79-5.1C55.88,42.88,54.04,37.04,54.04,37.04"/>
    <path class="st6" d="M46.15,55.51c0-0.05-2.37-1.26-5.26-1.84c-2.89-0.58-4.47-0.68-5.73,0.68c-1.26,1.37-2.16,2.84-3.1,4.47 c-0.95,1.63-1.1,2.32-1.79,2.42c-0.68,0.11,0.89-0.53,4.05,0.53c3.16,1.05,4.63,2.05,6.05,1.1c1.42-0.95,1.52-2.89,2.74-4.37 C44.31,57.03,46.15,55.51,46.15,55.51"/>
    <path class="st0" d="M78.63,37.56c-2.38,0.47-6.49,2.14-9.41,3.32"/>
    <path class="st0" d="M74.48,31.78c-0.73,3.37-2.88,7.9-5.62,10.43"/>
    <path class="st0" d="M68.09,31.75c2.34,3.29,4.85,5.91,1.68,8.99"/>
    <path class="st0" d="M63.75,47.32c-2.28,4.29-5.56,8.57-8.74,10.55"/>
    <path class="st0" d="M67.9,54.61c-5.02,0.42-12.37,3.06-13.9,3.52"/>
    <path class="st0" d="M57.34,49.52c1.43,2.78,3.14,4.19-1.24,7.92"/>
    <path class="st2" d="M84.19,41.91c-1.85,0.63-2.07,1.66-5.99-0.93l-3.91-2.59c0,0,0.62-0.75,1.32-1.64 c0.7-0.88,2.93-4.49,6.41-3.63c3.47,0.86,5.44,1.77,6.03,2.17c0.59,0.39,2.83,1.29,3.38,1.56"/>
    <path class="st7" d="M81.32,19.41c-0.57,2.48,2.08,5.44,0.6,8.58c-1.48,3.14-6.08,5.58-7.36,6.49c-1.29,0.91-0.48,1.95-0.99-0.69 c-0.5-2.64-1.43-2.63-1.27-5.03c0.15-2.39,3.04-6.16,4.42-6.62C78.1,21.69,81.32,19.41,81.32,19.41"/>
    <path class="st3" d="M70.78,35.44c-0.12-0.69,0.31-1.56-0.21-4.9c-0.52-3.34-1.33-5.9-3.97-6.05c-2.64-0.15-3.01,0.76-4.92-0.38 l-1.92-1.14c0,0,0.4,2.88,1.19,6.86c0.79,3.98,5.16,5.15,6.94,5.35C69.68,35.38,70.78,35.44,70.78,35.44"/>
    <path class="st4" d="M71.13,37.23c0,0-1.44,1.83-0.91,4.98c0.53,3.15-0.43,6.86-3.76,7.44c-3.33,0.57-4.98,1.97-4.98,1.97 s0.48-0.01-0.2-2.72c-0.68-2.7,0.53-6.92,3.06-8.48C66.87,38.85,71.13,37.23,71.13,37.23"/>
    <path class="st5" d="M78.6,55.42c0,0-4.76-3.35-7.72-4.12c-2.96-0.77-4.66-0.83-6.34,1.11c-1.68,1.94-3.14,2.8-3.14,2.8 s3.79,1.7,4.84,3.06c1.05,1.36,4.11,2.54,5.63,1.45S78.6,55.42,78.6,55.42"/>
    <path class="st6" d="M58.77,52.3c0.05-0.01,0.64-2.6,0.49-5.55c-0.15-2.95-0.43-4.5-2.07-5.39c-1.64-0.89-3.28-1.39-5.1-1.91 c-1.81-0.52-2.51-0.5-2.78-1.14c-0.27-0.64,0.73,0.74,0.48,4.06c-0.25,3.32-0.85,4.99,0.41,6.14c1.27,1.14,3.18,0.77,4.9,1.58 C56.84,50.89,58.77,52.3,58.77,52.3"/>
    <path class="st0" d="M68.46,78.2c-0.59-2.35-2.47-6.37-3.79-9.23"/>
    <path class="st0" d="M74.03,73.76c-3.4-0.56-8.03-2.48-10.7-5.09"/>
    <path class="st0" d="M73.74,67.38c-3.16,2.5-5.66,5.14-8.9,2.13"/>
    <path class="st0" d="M57.97,63.83c-4.4-2.06-8.83-5.12-10.97-8.2"/>
    <path class="st0" d="M50.9,68.33c-0.67-4.99-3.68-12.2-4.21-13.71"/>
    <path class="st0" d="M55.45,57.53c-2.7,1.56-4.03,3.34-7.98-0.84"/>
    <path class="st1" d="M64.4,83.97c-0.72-1.81-1.77-1.99,0.63-6.02l2.39-4.04c0,0,0.78,0.58,1.7,1.24c0.92,0.65,4.63,2.71,3.94,6.22 c-0.68,3.51-1.5,5.52-1.86,6.13s-1.15,2.89-1.39,3.46"/>
    <path class="st2" d="M86.73,79.97c-2.5-0.44-5.33,2.35-8.54,1.03c-3.21-1.33-5.88-5.79-6.85-7.03c-0.97-1.24-1.98-0.38,0.64-1.02 c2.61-0.64,2.56-1.56,4.96-1.52c2.4,0.03,6.31,2.73,6.83,4.09C84.29,76.87,86.73,79.97,86.73,79.97"/>
    <path class="st3" d="M70.19,70.25c0.68-0.15,1.57,0.23,4.88-0.45c3.31-0.69,5.83-1.62,5.84-4.27c0.01-2.64-0.91-2.97,0.13-4.94 l1.04-1.97c0,0-2.86,0.55-6.79,1.54c-3.93,0.99-4.89,5.41-5,7.2C70.2,69.15,70.19,70.25,70.19,70.25"/>
    <path class="st4" d="M68.41,70.69c0,0-1.9-1.34-5.02-0.66c-3.12,0.68-6.88-0.09-7.62-3.38c-0.74-3.3-2.21-4.88-2.21-4.88 s0.04,0.48,2.7-0.33c2.67-0.82,6.93,0.18,8.62,2.63C66.58,66.52,68.41,70.69,68.41,70.69"/>
    <path class="st5" d="M50.63,79.06c0,0,3.11-4.92,3.73-7.91c0.62-3,0.59-4.69-1.43-6.27c-2.03-1.58-2.96-3-2.96-3 s-1.51,3.87-2.81,4.99c-1.31,1.12-2.33,4.24-1.17,5.7C47.15,74.02,50.63,79.06,50.63,79.06"/>
    <path class="st6" d="M52.75,59.1c0.02,0.05,2.63,0.51,5.57,0.22c2.94-0.3,4.48-0.66,5.28-2.34c0.81-1.68,1.23-3.35,1.65-5.18 c0.43-1.84,0.38-2.54,1-2.84c0.62-0.3-0.7,0.76-4.03,0.69c-3.33-0.08-5.03-0.6-6.11,0.72c-1.08,1.32-0.61,3.21-1.33,4.98 C54.06,57.1,52.75,59.1,52.75,59.1"/>
    <path class="st0" d="M26.23,69.3c2.41-0.22,6.68-1.44,9.71-2.31"/>
    <path class="st0" d="M29.75,75.5c1.08-3.27,3.7-7.55,6.69-9.78"/>
    <path class="st0" d="M36.1,76.2c-1.98-3.51-4.2-6.39-0.72-9.12"/>
    <path class="st0" d="M42.06,61.18c2.72-4.03,6.43-7.93,9.8-9.56"/>
    <path class="st0" d="M38.71,53.49c5.04,0.12,12.63-1.74,14.19-2.03"/>
    <path class="st0" d="M48.67,59.66c-1.12-2.91-2.68-4.5,2.07-7.75"/>
    <path class="st1" d="M21.17,64.4c1.9-0.43,2.24-1.44,5.85,1.56l3.62,2.99c0,0-0.7,0.68-1.49,1.49c-0.79,0.8-3.39,4.15-6.75,2.93 c-3.36-1.22-5.22-2.34-5.77-2.79c-0.54-0.45-2.68-1.58-3.2-1.91"/>
    <path class="st7" d="M21.64,87.07c0.83-2.4-1.49-5.63,0.31-8.6c1.81-2.97,6.63-4.91,8.01-5.67c1.38-0.77,0.69-1.89,0.91,0.79 c0.22,2.68,1.14,2.77,0.73,5.13c-0.41,2.36-3.67,5.81-5.1,6.12C25.08,85.14,21.64,87.07,21.64,87.07"/>
    <path class="st2" d="M33.82,72.25c0.05,0.7-0.47,1.52-0.31,4.89c0.16,3.38,0.7,6.01,3.31,6.43c2.61,0.42,3.07-0.44,4.86,0.9 l1.79,1.34c0,0-0.1-2.91-0.46-6.95c-0.36-4.04-4.58-5.67-6.34-6.06C34.9,72.43,33.82,72.25,33.82,72.25"/>
    <path class="st4" d="M33.66,70.42c0,0,1.62-1.67,1.43-4.85c-0.19-3.19,1.16-6.78,4.53-7c3.37-0.21,5.16-1.43,5.16-1.43 s-0.48-0.04-0.09,2.72c0.39,2.76-1.26,6.82-3.94,8.11C38.07,69.26,33.66,70.42,33.66,70.42"/>
    <path class="st5" d="M28.15,51.55c0,0,4.37,3.84,7.24,4.92c2.86,1.08,4.54,1.32,6.42-0.44c1.88-1.76,3.42-2.45,3.42-2.45 s-3.59-2.09-4.49-3.56c-0.9-1.47-3.82-2.96-5.45-2.04C33.67,48.9,28.15,51.55,28.15,51.55"/>
    <path class="st6" d="M47.54,56.75c-0.05,0.01-0.91,2.52-1.08,5.47c-0.16,2.95-0.05,4.52,1.49,5.58c1.53,1.06,3.12,1.73,4.86,2.44 c1.75,0.71,2.45,0.77,2.65,1.43c0.2,0.66-0.65-0.81-0.05-4.08c0.6-3.27,1.38-4.87,0.24-6.14c-1.14-1.27-3.08-1.1-4.71-2.09 C49.31,58.36,47.54,56.75,47.54,56.75"/>
    <path class="st8" d="M51.89,44.53c-0.13,2.42,0.49,6.82,0.91,9.94"/>
    <path class="st8" d="M45.26,47.14c3.09,1.53,6.95,4.73,8.73,8"/>
    <path class="st8" d="M43.67,53.32c3.76-1.46,6.92-3.25,9.13,0.57"/>
    <path class="st8" d="M57.7,61.35c3.6,3.27,6.94,7.49,8.08,11.06"/>
    <path class="st8" d="M65.78,59.12c-0.83,4.97-0.06,12.74,0,14.34"/>
    <path class="st8" d="M58.26,68.11c3.04-0.7,4.84-2.01,7.38,3.15"/>
    <path class="st8" d="M57.46,40.21c0.16,1.95,1.1,2.42-2.37,5.58l-3.47,3.16c0,0-0.58-0.79-1.26-1.68c-0.68-0.89-3.63-3.94-1.95-7.1 c1.68-3.16,3.05-4.84,3.58-5.31c0.53-0.47,1.95-2.43,2.34-2.9"/>
    <path class="st8" d="M34.95,37.48c2.26,1.16,5.79-0.68,8.47,1.52c2.68,2.21,3.92,7.26,4.48,8.73c0.56,1.47,1.77,0.95-0.91,0.79 c-2.68-0.16-2.9,0.74-5.19,0c-2.28-0.74-5.23-4.46-5.34-5.91C36.37,41.16,34.95,37.48,34.95,37.48"/>
    <path class="st8" d="M47.9,51.62c-0.7-0.05-1.43-0.68-4.8-1c-3.37-0.32-6.05-0.16-6.84,2.37c-0.79,2.53,0,3.1-1.58,4.68l-1.58,1.58 c0,0,2.89,0.32,6.94,0.53c4.05,0.21,6.26-3.74,6.89-5.42C47.58,52.68,47.9,51.62,47.9,51.62"/>
    <path class="st8" d="M49.73,51.73c0,0,1.42,1.84,4.6,2.1c3.18,0.26,6.55,2.1,6.29,5.47c-0.26,3.37,0.68,5.31,0.68,5.31 s0.11-0.47-2.68-0.47c-2.79,0-6.57-2.21-7.47-5.05C50.26,56.25,49.73,51.73,49.73,51.73"/>
    <path class="st8" d="M69.19,48.94c0,0-4.42,3.79-5.89,6.47c-1.47,2.68-1.95,4.31-0.47,6.42c1.47,2.1,1.95,3.74,1.95,3.74 s2.58-3.26,4.16-3.95c1.58-0.68,3.47-3.37,2.79-5.1C71.04,54.78,69.19,48.94,69.19,48.94"/>
    <path class="st8" d="M61.3,67.4c0-0.05-2.37-1.26-5.26-1.84c-2.89-0.58-4.47-0.68-5.73,0.68c-1.26,1.37-2.16,2.84-3.1,4.47 c-0.95,1.63-1.1,2.31-1.79,2.42c-0.68,0.11,0.89-0.53,4.05,0.53c3.16,1.05,4.63,2.05,6.05,1.1c1.42-0.95,1.53-2.89,2.74-4.37 C59.46,68.93,61.3,67.4,61.3,67.4"/>
    <path class="st9" d="M52.27,45.41c-0.32-0.9-0.49-1.75-0.61-2.07c-0.12-0.32-0.15-1.92-0.23-2.42s-1.05-1.11-1.6-1.57 c-0.55-0.47-1.14-1.34-1.14-1.34h-0.04c0.05-0.16,0.09-0.34,0.12-0.55c0.15-0.9,0.2-2.94-0.12-3.38c-0.32-0.44-0.7-1.46-1.6-1.78 c-0.9-0.32-0.42-0.41-1.84-0.55c-1.43-0.15-2.77-0.87-3.64-0.93c-0.87-0.06-1.92-0.29-2.86,0c-0.93,0.29-2.39,1.05-2.39,1.05 s-0.53,0.9-1.05,1.84c-0.52,0.92-0.19,1.02-0.2,1.97c-0.75-1.05-1.72-2.2-1.72-2.2s-1.98-0.9-2.8-0.85 c-0.82,0.06-0.9,0.23-1.78,0.38c-0.87,0.15-1.55,0.61-1.55,0.61l-1.28,1.11l-2.04,3.76c0,0-0.5,0.9-0.23,1.46 c0.26,0.55,0.64,1.4,0.82,1.55c0.14,0.12,0.53,0.48,0.87,0.78c-0.06,0.05-0.12,0.1-0.17,0.15c-0.58,0.53-1.34,1.03-1.69,1.93 c-0.35,0.9-0.76,0.93-0.55,2.01c0.2,1.08-0.29,3.59,0.18,4.43c0.47,0.85,0.82,1.52,1.57,2.19c0.76,0.67,1.81,1.52,2.89,1.78 c1.08,0.26,1.55,0.44,2.6,0.35c0.37-0.03,0.78-0.15,1.15-0.29c0.12,0.2,0.26,0.41,0.42,0.61c0.55,0.7,0.87,0.55,1.49,1.31 c0.61,0.76-0.03,0.32,1.49,1.14c1.52,0.82,2.03,0.82,2.84,0.82s1.45,0.2,2.38,0c0.93-0.2,1.84,0.12,3.06-0.93 c1.22-1.05,2.1-2.04,2.1-2.04s0.87-2.04,0.9-2.86c0.03-0.82-0.26-3-0.26-3s-0.28-1.22-0.61-2.05c0.01,0,0.02-0.01,0.02-0.01 l0.7,0.95c0,0,0.47,0.61,1.02,0.73c0.55,0.12,1.2,0.26,1.95,0c0.76-0.26,1.84-1.14,1.84-1.14s1.22-0.87,1.34-1.25 C52.12,46.7,52.59,46.32,52.27,45.41"/>
    <path class="st10" d="M36.67,43.09c-0.84-0.03-2.3-0.79-3.09-1.49c-0.79-0.7-1.6-1.25-2.86-1.52c-1.25-0.26-1.98-0.58-3-0.23 c-1.02,0.35-2.22,1.01-2.8,1.54c-0.58,0.53-1.34,1.03-1.69,1.93c-0.35,0.9-0.76,0.93-0.55,2.01c0.2,1.08-0.29,3.59,0.17,4.43 c0.47,0.85,0.82,1.52,1.57,2.19c0.76,0.67,1.81,1.52,2.89,1.78c1.08,0.26,1.55,0.44,2.6,0.35c1.05-0.09,2.36-0.87,2.36-0.87 L34.89,51c0,0,2.13-2.3,2.22-3.06c0.09-0.76,0.26-2.74,0.15-3.29c-0.12-0.55-0.15-0.47-0.15-0.76S36.67,43.09,36.67,43.09"/>
    <path class="st11" d="M37.3,43.71l-1.15,0.85l-2.07,0.67l-2.57,2.62c0,0-1.2,3.38-1.02,4.32c0.17,0.93,0.44,1.55,0.99,2.25 c0.55,0.7,0.87,0.55,1.49,1.31c0.61,0.76-0.03,0.32,1.49,1.14c1.52,0.82,2.03,0.82,2.84,0.82c0.81,0,1.45,0.2,2.38,0 c0.93-0.2,1.84,0.12,3.06-0.93c1.23-1.05,2.1-2.04,2.1-2.04s0.87-2.04,0.9-2.86c0.03-0.82-0.26-3-0.26-3s-0.5-2.16-0.93-2.68 c-0.44-0.52-1.05-0.64-1.87-0.99c-0.82-0.35-1.25-0.87-1.98-1.14c-0.73-0.26-1.08-0.12-1.58-0.32c-0.5-0.2-0.29-0.2-0.67-0.26 C38.07,43.39,37.3,43.71,37.3,43.71"/>
    <path class="st12" d="M38.11,43.04c0,0,1.22,0.96,1.8,1.46c0.58,0.5,0.79,0.85,1.72,0.9c0.93,0.06,1.43-0.08,1.64,0 c0.21,0.08,0.96,0.46,0.96,0.46l1.37,1.87c0,0,0.47,0.61,1.02,0.73c0.55,0.12,1.2,0.26,1.95,0c0.76-0.26,1.84-1.14,1.84-1.14 s1.22-0.87,1.34-1.25c0.12-0.38,0.58-0.76,0.26-1.66c-0.32-0.9-0.49-1.75-0.61-2.07c-0.12-0.32-0.15-1.92-0.23-2.42 s-1.05-1.11-1.6-1.57C49.01,37.87,48.42,37,48.42,37h-2.39c0,0-0.93,1.05-2.19,1.55c-1.25,0.5-2.48,0.96-2.48,0.96 s-1.95,0.44-2.45,0.79c-0.5,0.35-0.6,0.7-0.81,0.87c-0.21,0.17-0.3,0.38-0.33,0.67c-0.03,0.29,0.17,1.17,0.17,1.17"/>
    <path class="st13" d="M37.3,42.66c0.19-0.12,0.32-0.7,0.81-1.08c0.49-0.38,1.98-0.17,3.46-0.58c1.49-0.41,2.57-0.77,3.62-1.29 c1.05-0.52,1.81-0.58,2.36-1.28c0.55-0.7,0.82-1.08,0.96-1.98c0.15-0.9,0.2-2.94-0.12-3.38c-0.32-0.44-0.7-1.46-1.6-1.78 c-0.9-0.32-0.42-0.41-1.84-0.55c-1.43-0.15-2.77-0.87-3.64-0.93c-0.87-0.06-1.92-0.29-2.86,0c-0.93,0.29-2.39,1.05-2.39,1.05 s-0.52,0.9-1.05,1.84c-0.52,0.93-0.17,1.02-0.2,2.01c-0.03,0.99,0.61,4.02,0.7,4.58c0.09,0.55,0.82,1.49,0.93,1.92 c0.12,0.44,0.26,0.79,0.23,1.02c-0.03,0.23-0.32,0.53,0,0.58C36.99,42.86,37.3,42.66,37.3,42.66"/>
    <path class="st14" d="M36.99,41.99c0-0.12-1.05-5.02-1.34-5.92c-0.29-0.9-2.57-3.62-2.57-3.62s-1.98-0.9-2.8-0.85 c-0.82,0.06-0.9,0.23-1.78,0.38c-0.87,0.15-1.55,0.61-1.55,0.61l-1.28,1.11l-2.04,3.76c0,0-0.5,0.9-0.23,1.46 c0.26,0.55,0.64,1.4,0.82,1.55c0.17,0.15,0.71,0.64,1.08,0.96c0.38,0.32,2.24,0.55,2.24,0.55s2.71,0.4,3.47,0.49 c0.76,0.09,2.51,0.34,2.51,0.34l1.81,0.43l1.49-0.29L36.99,41.99z"/>
    <defs>
      <rect id="SVGID_1_" x="29.37" y="36.11" width="16.55" height="15.21"/>
    </defs>
    <clipPath id="SVGID_2_">
      <rect x="29.37" y="36.11" width="16.55" height="15.21" transform="matrix(1, 0, 0, 1, 0, 0)" style="overflow: visible;"/>
    </clipPath>
    <path class="st15" d="M 38.93 37.47 C 38.48 37.05 38.1 35.52 35.87 36.35 C 33.65 37.18 33.66 37.48 32.26 37.47 C 30.86 37.46 30.08 36.85 29.86 38.68 C 29.64 40.51 31.51 41.7 30.85 42.94 C 30.19 44.18 29.61 43.9 29.54 45.07 C 29.47 46.24 29.09 45.74 29.72 46.91 C 30.36 48.08 31.61 49.08 31.61 49.08 C 31.61 49.08 32.25 48.42 33.52 49.08 C 34.79 49.74 36.75 50.64 36.75 50.64 C 36.75 50.64 38.3 52.15 38.91 50.64 C 39.52 49.13 40.85 47.74 40.85 47.74 L 44.67 46.85 C 44.67 46.85 46.18 46.57 45.85 43.91 C 45.52 41.24 45.84 41.67 45.34 40.18 C 44.85 38.69 44.61 38.26 43.73 37.48 C 42.87 36.68 40.36 38.8 38.93 37.47"/>
    <path class="st16" d="M34.9,41.03c-0.61,0.33-0.49,0.17-0.72,0.89c-0.23,0.72,0.15,1.01,0,1.6c-0.15,0.59,0.01,1.51,0.72,1.79 c0.71,0.28,0.91,0.24,1.82,0.37c0.91,0.13,0.8,1.4,1.63-0.04c0.83-1.44,1.81-1.69,1.57-2.7c-0.24-1.02-0.68-2.24-1.41-2.63 c-0.72-0.39-0.96-0.5-1.48-0.45C36.51,39.92,34.9,41.03,34.9,41.03"/>
    <path class="st17" d="M36.84,38.34c0,0.17-0.14,0.31-0.31,0.31c-0.17,0-0.31-0.14-0.31-0.31c0-0.17,0.14-0.31,0.31-0.31 C36.7,38.04,36.84,38.18,36.84,38.34"/>
    <path class="st18" d="M36.93,39.38c0.23-0.11,0.39-0.34,0.38-0.62c-0.01-0.24-0.16-0.44-0.36-0.54c0.15-0.13,0.25-0.32,0.24-0.53 c-0.02-0.31-0.25-0.56-0.55-0.61c0.01-0.06,0.02-0.11,0.02-0.17c-0.02-0.36-0.32-0.63-0.68-0.61c-0.1,0-0.19,0.03-0.27,0.07 c-0.12-0.19-0.33-0.31-0.57-0.3c-0.21,0.01-0.39,0.12-0.5,0.28c-0.13-0.06-0.27-0.07-0.41-0.04c-0.34,0.09-0.55,0.44-0.47,0.78 c0.01,0.04,0.02,0.07,0.04,0.11c-0.25,0.09-0.43,0.33-0.43,0.61c0,0.3,0.21,0.55,0.48,0.62c-0.07,0.1-0.11,0.23-0.11,0.36 c0,0.22,0.11,0.41,0.28,0.53c0,0.01,0,0.02,0,0.03c0.01,0.19,0.1,0.35,0.23,0.46c-0.01,0.06-0.02,0.12-0.02,0.18 c0.02,0.36,0.32,0.63,0.67,0.61c0.12-0.01,0.23-0.05,0.33-0.11c0.11,0.23,0.35,0.38,0.61,0.36c0.23-0.01,0.42-0.14,0.53-0.32 c0.1,0.05,0.2,0.07,0.31,0.07c0.36-0.02,0.63-0.32,0.61-0.68C37.29,39.69,37.14,39.48,36.93,39.38 M34.82,37.42 c-0.01,0.03-0.01,0.06-0.02,0.09c-0.01,0-0.02,0-0.04,0c-0.03,0-0.06,0.01-0.09,0.01C34.73,37.49,34.78,37.46,34.82,37.42"/>
    <path class="st17" d="M34.4,37.6c0,0.17-0.14,0.31-0.31,0.31c-0.17,0-0.31-0.14-0.31-0.31c0-0.17,0.14-0.31,0.31-0.31 C34.26,37.3,34.4,37.43,34.4,37.6"/>
    <path class="st17" d="M34.97,37.05c0,0.17-0.14,0.31-0.31,0.31c-0.17,0-0.31-0.14-0.31-0.31c0-0.17,0.14-0.31,0.31-0.31 C34.83,36.75,34.97,36.89,34.97,37.05"/>
    <path class="st17" d="M36.38,37.22c0,0.17-0.14,0.31-0.31,0.31c-0.17,0-0.31-0.14-0.31-0.31c0-0.17,0.14-0.31,0.31-0.31 C36.24,36.92,36.38,37.05,36.38,37.22"/>
    <path class="st17" d="M36.68,39.47c0,0.17-0.14,0.31-0.31,0.31c-0.17,0-0.31-0.14-0.31-0.31c0-0.17,0.14-0.31,0.31-0.31 C36.55,39.16,36.68,39.3,36.68,39.47"/>
    <path class="st17" d="M35.21,39.64c0.1-0.13,0.3-0.16,0.43-0.06c0.13,0.1,0.16,0.3,0.06,0.43c-0.1,0.13-0.3,0.16-0.43,0.06 C35.14,39.96,35.11,39.77,35.21,39.64"/>
    <path class="st17" d="M34.76,37.85c0.1-0.13,0.3-0.16,0.43-0.06c0.13,0.1,0.16,0.3,0.06,0.43c-0.1,0.13-0.3,0.16-0.43,0.06 C34.68,38.18,34.65,37.99,34.76,37.85"/>
    <path class="st17" d="M35.36,38.47c0.1-0.13,0.3-0.16,0.43-0.06c0.13,0.1,0.16,0.3,0.06,0.43c-0.1,0.13-0.3,0.16-0.43,0.06 C35.28,38.79,35.26,38.6,35.36,38.47"/>
    <path class="st17" d="M34.43,38.97c0.1-0.13,0.3-0.16,0.43-0.06c0.13,0.1,0.16,0.3,0.06,0.43c-0.1,0.13-0.3,0.16-0.43,0.06 C34.36,39.3,34.33,39.11,34.43,38.97"/>
    <path class="st19" d="M37.33,43.84c0,0-2.25-4.99-1.21-7.12"/>
    <path class="st19" d="M37.11,43.84c0,0-2.19-7.8-2.21-8.17"/>
    <path class="st19" d="M36.84,43.62c0,0-1.08-5.12-2.25-6.41"/>
    <path class="st19" d="M36.18,40.07l1.24,3.3c0,0-1.68-5.46-3.56-6.96"/>
    <path class="st19" d="M37.11,43.19c0,0-2.23-4.26-0.98-7.53"/>
    <path class="st20" d="M34.36,36.41c0,0.12-0.15,0.22-0.34,0.22c-0.19,0-0.34-0.1-0.34-0.22c0-0.12,0.15-0.23,0.34-0.23 C34.2,36.18,34.36,36.28,34.36,36.41"/>
    <path class="st20" d="M35.24,37.77c0,0.12-0.15,0.23-0.34,0.23c-0.19,0-0.34-0.1-0.34-0.23c0-0.12,0.15-0.23,0.34-0.23 C35.09,37.55,35.24,37.65,35.24,37.77"/>
    <path class="st20" d="M35.27,35.8c0,0.12-0.15,0.22-0.34,0.22c-0.19,0-0.34-0.1-0.34-0.22c0-0.12,0.15-0.23,0.34-0.23 C35.12,35.57,35.27,35.67,35.27,35.8"/>
    <path class="st20" d="M36.35,35.8c0,0.12-0.15,0.22-0.34,0.22c-0.19,0-0.34-0.1-0.34-0.22c0-0.12,0.15-0.23,0.34-0.23 C36.2,35.57,36.35,35.67,36.35,35.8"/>
    <path class="st20" d="M36.53,36.72c0,0.12-0.15,0.23-0.34,0.23s-0.34-0.1-0.34-0.23c0-0.12,0.15-0.23,0.34-0.23 S36.53,36.59,36.53,36.72"/>
    <path class="st13" d="M37.64,44.14c0,0-0.11,0.2-0.35,0.2c-0.24,0-0.47-0.79-0.47-0.79l-0.98-3.66l0.17-0.11l1.63,3.81V44.14z"/>
    <path class="st9" d="M62.36,76.35c-0.32-0.9-0.5-1.75-0.61-2.07c-0.12-0.32-0.15-1.92-0.23-2.42s-1.05-1.11-1.6-1.57 c-0.55-0.47-1.14-1.34-1.14-1.34h-0.04c0.05-0.16,0.09-0.34,0.12-0.55c0.15-0.9,0.2-2.94-0.12-3.38c-0.32-0.44-0.7-1.46-1.6-1.78 c-0.9-0.32-0.42-0.41-1.84-0.55c-1.42-0.15-2.77-0.87-3.64-0.93c-0.87-0.06-1.92-0.29-2.86,0c-0.93,0.29-2.39,1.05-2.39,1.05 s-0.52,0.9-1.05,1.84c-0.52,0.92-0.19,1.02-0.2,1.97c-0.75-1.05-1.72-2.21-1.72-2.21s-1.98-0.9-2.8-0.85 c-0.82,0.06-0.9,0.23-1.78,0.38c-0.87,0.15-1.55,0.61-1.55,0.61l-1.28,1.11l-2.04,3.76c0,0-0.5,0.9-0.23,1.46 c0.26,0.55,0.64,1.4,0.82,1.55c0.14,0.12,0.53,0.48,0.87,0.78c-0.06,0.05-0.12,0.1-0.18,0.15c-0.58,0.53-1.34,1.03-1.69,1.93 c-0.35,0.9-0.76,0.93-0.55,2.01c0.2,1.08-0.29,3.59,0.17,4.43c0.47,0.85,0.82,1.52,1.57,2.19c0.76,0.67,1.81,1.52,2.89,1.78 c1.08,0.26,1.55,0.44,2.6,0.35c0.37-0.03,0.78-0.15,1.15-0.29c0.12,0.2,0.26,0.4,0.42,0.61c0.55,0.7,0.87,0.55,1.49,1.31 c0.61,0.76-0.03,0.32,1.49,1.14c1.52,0.82,2.03,0.82,2.84,0.82c0.81,0,1.45,0.2,2.38,0c0.93-0.2,1.84,0.12,3.06-0.93 c1.22-1.05,2.1-2.04,2.1-2.04s0.87-2.04,0.9-2.86c0.03-0.82-0.26-3-0.26-3s-0.28-1.22-0.61-2.05c0.01,0,0.02-0.01,0.02-0.01 l0.7,0.95c0,0,0.47,0.61,1.02,0.73c0.55,0.12,1.2,0.26,1.95,0c0.76-0.26,1.84-1.14,1.84-1.14s1.22-0.87,1.34-1.25 C62.21,77.64,62.68,77.26,62.36,76.35"/>
    <path class="st10" d="M46.76,74.04c-0.84-0.03-2.3-0.79-3.09-1.49c-0.79-0.7-1.6-1.25-2.86-1.52c-1.25-0.26-1.98-0.58-3-0.23 c-1.02,0.35-2.22,1.01-2.8,1.54c-0.58,0.53-1.34,1.03-1.69,1.93c-0.35,0.9-0.76,0.93-0.55,2.01c0.2,1.08-0.29,3.59,0.17,4.43 c0.47,0.85,0.82,1.52,1.57,2.19c0.76,0.67,1.81,1.52,2.89,1.78c1.08,0.26,1.55,0.44,2.6,0.35c1.05-0.09,2.36-0.87,2.36-0.87 l2.62-2.22c0,0,2.13-2.3,2.22-3.06c0.09-0.76,0.26-2.74,0.15-3.3c-0.12-0.55-0.15-0.47-0.15-0.76 C47.2,74.53,46.76,74.04,46.76,74.04"/>
    <path class="st11" d="M47.39,74.65l-1.15,0.85l-2.07,0.67l-2.57,2.62c0,0-1.2,3.38-1.02,4.32c0.17,0.93,0.44,1.55,0.99,2.25 c0.55,0.7,0.87,0.55,1.49,1.31c0.61,0.76-0.03,0.32,1.49,1.14c1.52,0.82,2.03,0.82,2.84,0.82c0.81,0,1.45,0.2,2.38,0 c0.93-0.2,1.84,0.12,3.06-0.93c1.23-1.05,2.1-2.04,2.1-2.04s0.87-2.04,0.9-2.86c0.03-0.82-0.26-3-0.26-3s-0.5-2.16-0.93-2.68 c-0.44-0.52-1.05-0.64-1.87-0.99c-0.82-0.35-1.25-0.87-1.98-1.14c-0.73-0.26-1.08-0.12-1.58-0.32c-0.5-0.2-0.29-0.2-0.67-0.26 C48.16,74.33,47.39,74.65,47.39,74.65"/>
    <path class="st12" d="M48.2,73.98c0,0,1.22,0.96,1.8,1.46c0.58,0.5,0.79,0.85,1.72,0.9c0.93,0.06,1.43-0.08,1.64,0 c0.21,0.08,0.96,0.46,0.96,0.46l1.37,1.87c0,0,0.47,0.61,1.02,0.73c0.55,0.12,1.2,0.26,1.95,0c0.76-0.26,1.84-1.14,1.84-1.14 s1.22-0.87,1.34-1.25c0.12-0.38,0.58-0.76,0.26-1.66c-0.32-0.9-0.5-1.75-0.61-2.07c-0.12-0.32-0.15-1.92-0.23-2.42 c-0.09-0.5-1.05-1.11-1.6-1.58c-0.55-0.47-1.14-1.34-1.14-1.34h-2.39c0,0-0.93,1.05-2.19,1.55c-1.25,0.5-2.48,0.96-2.48,0.96 s-1.95,0.44-2.45,0.79c-0.5,0.35-0.6,0.7-0.81,0.87c-0.21,0.17-0.3,0.38-0.33,0.67c-0.03,0.29,0.17,1.17,0.17,1.17"/>
    <path class="st13" d="M47.39,73.6c0.19-0.12,0.32-0.7,0.81-1.08c0.49-0.38,1.98-0.17,3.46-0.58c1.49-0.41,2.57-0.77,3.62-1.29 c1.05-0.52,1.81-0.57,2.36-1.27c0.55-0.7,0.82-1.08,0.96-1.98c0.15-0.9,0.2-2.94-0.12-3.38c-0.32-0.44-0.7-1.46-1.6-1.78 c-0.9-0.32-0.42-0.41-1.84-0.55c-1.43-0.15-2.77-0.87-3.64-0.93c-0.87-0.06-1.92-0.29-2.86,0c-0.93,0.29-2.39,1.05-2.39,1.05 s-0.53,0.9-1.05,1.84c-0.53,0.93-0.18,1.02-0.2,2.01c-0.03,0.99,0.61,4.02,0.7,4.58c0.09,0.55,0.82,1.49,0.93,1.92 c0.12,0.44,0.26,0.79,0.23,1.02c-0.03,0.23-0.32,0.53,0,0.58C47.08,73.8,47.39,73.6,47.39,73.6"/>
    <path class="st14" d="M47.08,72.93c0-0.12-1.05-5.02-1.34-5.92s-2.57-3.62-2.57-3.62s-1.98-0.9-2.8-0.85 c-0.82,0.06-0.9,0.23-1.78,0.38c-0.87,0.15-1.55,0.61-1.55,0.61l-1.28,1.11l-2.04,3.76c0,0-0.5,0.9-0.23,1.46 c0.26,0.55,0.64,1.4,0.82,1.55c0.17,0.15,0.71,0.64,1.08,0.96c0.38,0.32,2.24,0.55,2.24,0.55s2.71,0.4,3.47,0.49 c0.76,0.09,2.51,0.34,2.51,0.34l1.81,0.43l1.49-0.29L47.08,72.93z"/>
    <defs>
      <rect id="SVGID_3_" x="39.46" y="67.05" width="16.55" height="15.21"/>
    </defs>
    <clipPath id="SVGID_4_">
      <rect x="39.46" y="67.05" width="16.55" height="15.21" transform="matrix(1, 0, 0, 1, 0, 0)" style="overflow: visible;"/>
    </clipPath>
    <path class="st21" d="M 49.02 68.41 C 48.57 67.99 48.19 66.45 45.96 67.29 C 43.74 68.12 43.75 68.42 42.35 68.41 C 40.95 68.4 40.17 67.79 39.95 69.62 C 39.73 71.45 41.6 72.64 40.94 73.88 C 40.28 75.12 39.7 74.84 39.63 76.01 C 39.56 77.18 39.18 76.68 39.81 77.85 C 40.45 79.02 41.7 80.02 41.7 80.02 C 41.7 80.02 42.34 79.36 43.61 80.02 C 44.88 80.69 46.84 81.59 46.84 81.59 C 46.84 81.59 48.39 83.1 49 81.59 C 49.61 80.08 50.94 78.69 50.94 78.69 L 54.76 77.8 C 54.76 77.8 56.27 77.52 55.94 74.86 C 55.61 72.19 55.93 72.62 55.43 71.13 C 54.94 69.64 54.7 69.21 53.82 68.43 C 52.96 67.62 50.45 69.74 49.02 68.41"/>
    <path class="st16" d="M44.99,71.97c-0.61,0.33-0.49,0.17-0.72,0.89c-0.23,0.72,0.15,1.01,0,1.6c-0.15,0.59,0.01,1.51,0.72,1.79 c0.71,0.28,0.91,0.24,1.82,0.37c0.91,0.13,0.79,1.4,1.63-0.04c0.83-1.44,1.81-1.69,1.57-2.7c-0.24-1.02-0.68-2.24-1.4-2.63 c-0.72-0.39-0.96-0.5-1.48-0.44C46.6,70.86,44.99,71.97,44.99,71.97"/>
    <path class="st17" d="M46.93,69.29c0,0.17-0.14,0.31-0.31,0.31c-0.17,0-0.31-0.14-0.31-0.31c0-0.17,0.14-0.31,0.31-0.31 C46.79,68.98,46.93,69.12,46.93,69.29"/>
    <path class="st18" d="M47.02,70.32c0.23-0.11,0.39-0.35,0.38-0.62c-0.01-0.24-0.16-0.44-0.36-0.54c0.15-0.13,0.25-0.32,0.24-0.53 c-0.02-0.31-0.25-0.56-0.55-0.61c0.01-0.06,0.02-0.11,0.02-0.18c-0.02-0.36-0.32-0.63-0.68-0.61c-0.1,0-0.19,0.03-0.27,0.08 c-0.12-0.19-0.33-0.31-0.57-0.3c-0.21,0.01-0.39,0.12-0.5,0.28c-0.13-0.05-0.27-0.07-0.41-0.04c-0.34,0.09-0.55,0.44-0.47,0.78 c0.01,0.04,0.02,0.07,0.04,0.11c-0.25,0.09-0.43,0.33-0.43,0.61c0,0.3,0.21,0.55,0.48,0.62c-0.07,0.1-0.11,0.23-0.11,0.36 c0,0.22,0.11,0.41,0.28,0.53c0,0.01,0,0.02,0,0.03c0.01,0.19,0.1,0.35,0.23,0.46c-0.01,0.06-0.02,0.12-0.02,0.18 c0.02,0.36,0.32,0.63,0.67,0.61c0.12-0.01,0.23-0.05,0.33-0.11c0.11,0.23,0.35,0.38,0.61,0.36c0.23-0.01,0.42-0.14,0.53-0.32 c0.1,0.05,0.2,0.07,0.31,0.07c0.36-0.02,0.63-0.32,0.61-0.68C47.39,70.63,47.23,70.42,47.02,70.32 M44.91,68.36 c-0.01,0.03-0.01,0.06-0.02,0.09c-0.01,0-0.02,0-0.04,0c-0.03,0-0.06,0.01-0.09,0.01C44.82,68.43,44.87,68.4,44.91,68.36"/>
    <path class="st17" d="M44.49,68.54c0,0.17-0.14,0.31-0.31,0.31c-0.17,0-0.31-0.14-0.31-0.31c0-0.17,0.14-0.31,0.31-0.31 C44.35,68.24,44.49,68.37,44.49,68.54"/>
    <path class="st17" d="M45.06,67.99c0,0.17-0.14,0.31-0.31,0.31c-0.17,0-0.31-0.14-0.31-0.31c0-0.17,0.14-0.31,0.31-0.31 C44.92,67.69,45.06,67.83,45.06,67.99"/>
    <path class="st17" d="M46.47,68.16c0,0.17-0.14,0.31-0.31,0.31c-0.17,0-0.31-0.14-0.31-0.31c0-0.17,0.14-0.31,0.31-0.31 C46.33,67.86,46.47,68,46.47,68.16"/>
    <path class="st17" d="M46.77,70.41c0,0.17-0.14,0.31-0.31,0.31c-0.17,0-0.31-0.14-0.31-0.31c0-0.17,0.14-0.31,0.31-0.31 C46.64,70.1,46.77,70.24,46.77,70.41"/>
    <path class="st17" d="M45.3,70.58c0.1-0.13,0.3-0.16,0.43-0.06c0.13,0.1,0.16,0.3,0.06,0.43c-0.1,0.13-0.3,0.16-0.43,0.06 C45.23,70.9,45.2,70.71,45.3,70.58"/>
    <path class="st17" d="M44.85,68.79c0.1-0.13,0.3-0.16,0.43-0.06c0.13,0.1,0.16,0.3,0.06,0.43c-0.1,0.13-0.3,0.16-0.43,0.06 C44.77,69.12,44.75,68.93,44.85,68.79"/>
    <path class="st17" d="M45.45,69.41c0.1-0.13,0.3-0.16,0.43-0.06c0.13,0.1,0.16,0.3,0.06,0.43c-0.1,0.13-0.3,0.16-0.43,0.06 C45.38,69.73,45.35,69.54,45.45,69.41"/>
    <path class="st17" d="M44.52,69.91c0.1-0.13,0.3-0.16,0.43-0.06c0.13,0.1,0.16,0.3,0.06,0.43c-0.1,0.13-0.3,0.16-0.43,0.06 C44.45,70.24,44.42,70.05,44.52,69.91"/>
    <path class="st19" d="M47.42,74.78c0,0-2.25-4.99-1.21-7.12"/>
    <path class="st19" d="M47.2,74.78c0,0-2.19-7.8-2.21-8.17"/>
    <path class="st19" d="M46.93,74.56c0,0-1.08-5.12-2.25-6.41"/>
    <path class="st19" d="M46.28,71.01l1.24,3.3c0,0-1.68-5.46-3.56-6.96"/>
    <path class="st19" d="M47.2,74.13c0,0-2.23-4.26-0.98-7.53"/>
    <path class="st20" d="M44.45,67.35c0,0.12-0.15,0.23-0.34,0.23s-0.34-0.1-0.34-0.23c0-0.12,0.15-0.23,0.34-0.23 S44.45,67.22,44.45,67.35"/>
    <path class="st20" d="M45.34,68.72c0,0.12-0.15,0.22-0.34,0.22s-0.34-0.1-0.34-0.22c0-0.12,0.15-0.23,0.34-0.23 S45.34,68.59,45.34,68.72"/>
    <path class="st20" d="M45.37,66.74c0,0.12-0.15,0.23-0.34,0.23s-0.34-0.1-0.34-0.23c0-0.12,0.15-0.22,0.34-0.22 S45.37,66.61,45.37,66.74"/>
    <path class="st20" d="M46.44,66.74c0,0.12-0.15,0.23-0.34,0.23c-0.19,0-0.34-0.1-0.34-0.23c0-0.12,0.15-0.22,0.34-0.22 C46.29,66.51,46.44,66.61,46.44,66.74"/>
    <path class="st20" d="M46.62,67.66c0,0.12-0.15,0.22-0.34,0.22c-0.19,0-0.34-0.1-0.34-0.22c0-0.12,0.15-0.23,0.34-0.23 C46.46,67.43,46.62,67.54,46.62,67.66"/>
    <path class="st13" d="M47.74,75.08c0,0-0.11,0.2-0.35,0.2c-0.24,0-0.47-0.79-0.47-0.79l-0.98-3.66l0.17-0.11l1.63,3.81V75.08z"/>
    <path class="st9" d="M86.04,51.49c-0.32-0.9-0.49-1.75-0.61-2.07c-0.12-0.32-0.15-1.92-0.23-2.42s-1.05-1.11-1.6-1.57 c-0.55-0.47-1.14-1.34-1.14-1.34h-0.04c0.05-0.16,0.09-0.34,0.12-0.55c0.15-0.9,0.2-2.94-0.12-3.38c-0.32-0.44-0.7-1.46-1.6-1.78 c-0.9-0.32-0.42-0.41-1.84-0.55c-1.42-0.15-2.77-0.87-3.64-0.93c-0.87-0.06-1.92-0.29-2.86,0c-0.93,0.29-2.39,1.05-2.39,1.05 s-0.52,0.9-1.05,1.84c-0.52,0.92-0.18,1.02-0.2,1.97c-0.75-1.05-1.72-2.2-1.72-2.2s-1.98-0.9-2.8-0.85 c-0.82,0.06-0.9,0.23-1.78,0.38c-0.87,0.15-1.55,0.61-1.55,0.61l-1.28,1.11l-2.04,3.76c0,0-0.5,0.9-0.23,1.46 c0.26,0.55,0.64,1.4,0.82,1.55c0.14,0.12,0.53,0.48,0.87,0.78c-0.06,0.05-0.12,0.1-0.17,0.15c-0.58,0.53-1.34,1.03-1.69,1.93 c-0.35,0.9-0.76,0.93-0.55,2.01c0.2,1.08-0.29,3.59,0.17,4.43c0.47,0.85,0.82,1.52,1.58,2.19c0.76,0.67,1.81,1.52,2.89,1.78 c1.08,0.26,1.55,0.44,2.6,0.35c0.37-0.03,0.78-0.15,1.15-0.29c0.12,0.2,0.26,0.41,0.42,0.61c0.55,0.7,0.87,0.55,1.49,1.31 c0.61,0.76-0.03,0.32,1.49,1.14c1.52,0.82,2.03,0.82,2.84,0.82s1.45,0.2,2.38,0c0.93-0.2,1.84,0.12,3.06-0.93 c1.22-1.05,2.1-2.04,2.1-2.04s0.87-2.04,0.9-2.86c0.03-0.82-0.26-3-0.26-3s-0.28-1.22-0.61-2.05c0.01,0,0.02-0.01,0.02-0.01 l0.7,0.95c0,0,0.47,0.61,1.02,0.73c0.55,0.12,1.2,0.26,1.95,0c0.76-0.26,1.84-1.14,1.84-1.14s1.22-0.87,1.34-1.25 C85.89,52.78,86.36,52.4,86.04,51.49"/>
    <path class="st10" d="M70.44,49.17c-0.84-0.03-2.3-0.79-3.09-1.49c-0.79-0.7-1.6-1.25-2.86-1.52c-1.25-0.26-1.98-0.58-3-0.23 c-1.02,0.35-2.22,1.01-2.8,1.54c-0.58,0.53-1.34,1.02-1.69,1.93c-0.35,0.9-0.76,0.93-0.55,2.01c0.2,1.08-0.29,3.59,0.17,4.43 c0.47,0.85,0.82,1.52,1.57,2.19c0.76,0.67,1.81,1.52,2.89,1.78c1.08,0.26,1.55,0.44,2.6,0.35c1.05-0.09,2.36-0.87,2.36-0.87 l2.62-2.22c0,0,2.13-2.3,2.22-3.06c0.09-0.76,0.26-2.74,0.15-3.29c-0.12-0.55-0.15-0.47-0.15-0.76S70.44,49.17,70.44,49.17"/>
    <path class="st11" d="M71.06,49.78l-1.15,0.85l-2.07,0.67l-2.57,2.62c0,0-1.2,3.38-1.02,4.31c0.17,0.93,0.44,1.55,0.99,2.25 c0.55,0.7,0.87,0.55,1.49,1.31c0.61,0.76-0.03,0.32,1.49,1.14c1.52,0.82,2.03,0.82,2.84,0.82c0.81,0,1.45,0.2,2.38,0 c0.93-0.2,1.84,0.12,3.06-0.93c1.22-1.05,2.1-2.04,2.1-2.04s0.87-2.04,0.9-2.86c0.03-0.82-0.26-3-0.26-3s-0.5-2.16-0.93-2.68 c-0.44-0.53-1.05-0.64-1.87-0.99c-0.82-0.35-1.25-0.87-1.98-1.14c-0.73-0.26-1.08-0.12-1.57-0.32c-0.5-0.2-0.29-0.2-0.67-0.26 C71.84,49.46,71.06,49.78,71.06,49.78"/>
    <path class="st12" d="M71.88,49.11c0,0,1.22,0.96,1.8,1.46c0.58,0.49,0.79,0.85,1.72,0.9c0.93,0.06,1.43-0.08,1.64,0 c0.21,0.08,0.96,0.46,0.96,0.46l1.37,1.87c0,0,0.47,0.61,1.02,0.73c0.55,0.12,1.2,0.26,1.95,0c0.76-0.26,1.84-1.14,1.84-1.14 s1.22-0.87,1.34-1.25c0.12-0.38,0.58-0.76,0.26-1.66c-0.32-0.9-0.5-1.75-0.61-2.07c-0.12-0.32-0.15-1.92-0.23-2.42 c-0.09-0.49-1.05-1.11-1.6-1.57c-0.55-0.47-1.14-1.34-1.14-1.34H79.8c0,0-0.93,1.05-2.19,1.55c-1.25,0.5-2.48,0.96-2.48,0.96 s-1.95,0.44-2.45,0.79c-0.5,0.35-0.6,0.7-0.81,0.87c-0.21,0.18-0.3,0.38-0.33,0.67c-0.03,0.29,0.17,1.17,0.17,1.17"/>
    <path class="st13" d="M71.06,48.74c0.19-0.12,0.32-0.7,0.81-1.08c0.49-0.38,1.98-0.17,3.46-0.58c1.49-0.41,2.57-0.77,3.62-1.29 c1.05-0.52,1.81-0.58,2.36-1.28c0.55-0.7,0.82-1.08,0.96-1.98c0.15-0.9,0.2-2.94-0.12-3.38c-0.32-0.44-0.7-1.46-1.6-1.78 c-0.9-0.32-0.42-0.41-1.84-0.55c-1.42-0.15-2.77-0.87-3.64-0.93c-0.87-0.06-1.92-0.29-2.86,0c-0.93,0.29-2.39,1.05-2.39,1.05 s-0.53,0.9-1.05,1.84c-0.53,0.93-0.17,1.02-0.2,2.01c-0.03,0.99,0.61,4.02,0.7,4.58c0.09,0.55,0.82,1.49,0.93,1.92 c0.12,0.44,0.26,0.79,0.23,1.02c-0.03,0.23-0.32,0.53,0,0.58C70.76,48.94,71.06,48.74,71.06,48.74"/>
    <path class="st14" d="M70.76,48.06c0-0.12-1.05-5.02-1.34-5.92c-0.29-0.9-2.57-3.62-2.57-3.62s-1.98-0.9-2.8-0.85 c-0.82,0.06-0.9,0.23-1.78,0.38c-0.87,0.15-1.55,0.61-1.55,0.61l-1.28,1.11l-2.04,3.76c0,0-0.5,0.9-0.23,1.46 c0.26,0.55,0.64,1.4,0.82,1.55c0.17,0.15,0.71,0.64,1.08,0.96c0.38,0.32,2.24,0.55,2.24,0.55s2.71,0.4,3.47,0.49 c0.76,0.09,2.51,0.34,2.51,0.34l1.81,0.43l1.49-0.29L70.76,48.06z"/>
    <defs>
      <rect id="SVGID_5_" x="63.14" y="42.18" width="16.55" height="15.21"/>
    </defs>
    <clipPath id="SVGID_6_">
      <rect x="63.14" y="42.18" width="16.55" height="15.21" transform="matrix(1, 0, 0, 1, 0, 0)" style="overflow: visible;"/>
    </clipPath>
    <path class="st22" d="M 72.7 43.55 C 72.25 43.13 71.87 41.6 69.64 42.43 C 67.42 43.26 67.43 43.56 66.03 43.55 C 64.63 43.54 63.85 42.93 63.63 44.76 C 63.41 46.59 65.28 47.78 64.62 49.02 C 63.96 50.26 63.38 49.98 63.31 51.15 C 63.24 52.32 62.86 51.82 63.49 52.99 C 64.13 54.16 65.38 55.16 65.38 55.16 C 65.38 55.16 66.02 54.5 67.29 55.16 C 68.56 55.82 70.52 56.72 70.52 56.72 C 70.52 56.72 72.07 58.23 72.68 56.72 C 73.29 55.21 74.62 53.82 74.62 53.82 L 78.44 52.93 C 78.44 52.93 79.95 52.65 79.62 49.99 C 79.29 47.32 79.61 47.75 79.11 46.26 C 78.62 44.77 78.38 44.34 77.5 43.56 C 76.64 42.76 74.13 44.88 72.7 43.55"/>
    <path class="st16" d="M68.66,47.11c-0.61,0.33-0.49,0.17-0.72,0.89c-0.23,0.72,0.15,1.01,0,1.6c-0.15,0.59,0.01,1.51,0.72,1.79 c0.71,0.28,0.91,0.24,1.82,0.37c0.91,0.13,0.8,1.4,1.63-0.04c0.83-1.44,1.81-1.69,1.57-2.7c-0.24-1.02-0.68-2.24-1.41-2.63 c-0.72-0.39-0.96-0.5-1.48-0.45C70.27,45.99,68.66,47.11,68.66,47.11"/>
    <path class="st17" d="M70.61,44.42c0,0.17-0.14,0.31-0.31,0.31c-0.17,0-0.31-0.14-0.31-0.31c0-0.17,0.14-0.31,0.31-0.31 C70.47,44.12,70.61,44.25,70.61,44.42"/>
    <path class="st18" d="M70.69,45.46c0.23-0.11,0.39-0.34,0.38-0.62c-0.01-0.24-0.16-0.44-0.36-0.54c0.15-0.12,0.25-0.32,0.24-0.53 c-0.02-0.31-0.25-0.56-0.55-0.61c0.01-0.06,0.02-0.11,0.02-0.17c-0.02-0.36-0.32-0.63-0.68-0.61c-0.1,0-0.19,0.03-0.27,0.07 c-0.12-0.19-0.33-0.31-0.57-0.3c-0.21,0.01-0.39,0.12-0.5,0.28c-0.13-0.06-0.27-0.07-0.41-0.04c-0.34,0.09-0.55,0.44-0.47,0.78 c0.01,0.04,0.02,0.07,0.04,0.11c-0.25,0.09-0.43,0.33-0.43,0.61c0,0.3,0.21,0.55,0.48,0.62c-0.07,0.1-0.11,0.23-0.11,0.36 c0,0.22,0.11,0.41,0.28,0.53c0,0.01,0,0.02,0,0.03c0.01,0.19,0.1,0.35,0.23,0.46c-0.01,0.06-0.02,0.12-0.02,0.18 c0.02,0.36,0.32,0.63,0.68,0.61c0.12-0.01,0.23-0.05,0.33-0.11c0.11,0.23,0.35,0.38,0.61,0.36c0.23-0.01,0.42-0.14,0.53-0.32 c0.1,0.05,0.2,0.07,0.31,0.07c0.36-0.02,0.63-0.32,0.61-0.68C71.06,45.76,70.91,45.56,70.69,45.46 M68.59,43.5 c-0.01,0.03-0.01,0.06-0.02,0.09c-0.01,0-0.02,0-0.04,0c-0.03,0-0.06,0.01-0.09,0.01C68.5,43.57,68.54,43.53,68.59,43.5"/>
    <path class="st17" d="M68.17,43.68c0,0.17-0.14,0.31-0.31,0.31c-0.17,0-0.31-0.14-0.31-0.31c0-0.17,0.14-0.31,0.31-0.31 C68.03,43.37,68.17,43.51,68.17,43.68"/>
    <path class="st17" d="M68.73,43.13c0,0.17-0.14,0.31-0.31,0.31c-0.17,0-0.31-0.14-0.31-0.31c0-0.17,0.14-0.31,0.31-0.31 C68.59,42.83,68.73,42.96,68.73,43.13"/>
    <path class="st17" d="M70.14,43.3c0,0.17-0.14,0.31-0.31,0.31c-0.17,0-0.31-0.14-0.31-0.31c0-0.17,0.14-0.31,0.31-0.31 C70.01,43,70.14,43.13,70.14,43.3"/>
    <path class="st17" d="M70.45,45.54c0,0.17-0.14,0.31-0.31,0.31c-0.17,0-0.31-0.14-0.31-0.31c0-0.17,0.14-0.31,0.31-0.31 C70.31,45.24,70.45,45.37,70.45,45.54"/>
    <path class="st17" d="M68.98,45.71c0.1-0.13,0.3-0.16,0.43-0.06c0.13,0.1,0.16,0.3,0.06,0.43c-0.1,0.13-0.3,0.16-0.43,0.06 C68.9,46.04,68.88,45.85,68.98,45.71"/>
    <path class="st17" d="M68.52,43.93c0.1-0.13,0.3-0.16,0.43-0.06c0.13,0.1,0.16,0.3,0.06,0.43c-0.1,0.13-0.3,0.16-0.43,0.06 C68.45,44.26,68.42,44.07,68.52,43.93"/>
    <path class="st17" d="M69.13,44.54c0.1-0.13,0.3-0.16,0.43-0.06c0.13,0.1,0.16,0.3,0.06,0.43c-0.1,0.13-0.3,0.16-0.43,0.06 C69.05,44.87,69.03,44.68,69.13,44.54"/>
    <path class="st17" d="M68.2,45.05c0.1-0.13,0.3-0.16,0.43-0.06c0.13,0.1,0.16,0.3,0.06,0.43c-0.1,0.13-0.3,0.16-0.43,0.06 C68.12,45.38,68.1,45.19,68.2,45.05"/>
    <path class="st19" d="M71.09,49.91c0,0-2.25-4.99-1.21-7.12"/>
    <path class="st19" d="M70.88,49.91c0,0-2.19-7.8-2.21-8.17"/>
    <path class="st19" d="M70.61,49.7c0,0-1.08-5.12-2.25-6.41"/>
    <path class="st19" d="M69.95,46.15l1.24,3.3c0,0-1.68-5.46-3.56-6.96"/>
    <path class="st19" d="M70.88,49.27c0,0-2.23-4.26-0.98-7.53"/>
    <path class="st20" d="M68.12,42.48c0,0.12-0.15,0.23-0.34,0.23c-0.19,0-0.34-0.1-0.34-0.23c0-0.12,0.15-0.23,0.34-0.23 C67.97,42.26,68.12,42.36,68.12,42.48"/>
    <path class="st20" d="M69.01,43.85c0,0.12-0.15,0.23-0.34,0.23c-0.19,0-0.34-0.1-0.34-0.23c0-0.12,0.15-0.23,0.34-0.23 C68.86,43.63,69.01,43.73,69.01,43.85"/>
    <path class="st20" d="M69.04,41.88c0,0.12-0.15,0.23-0.34,0.23s-0.34-0.1-0.34-0.23c0-0.12,0.15-0.23,0.34-0.23 S69.04,41.75,69.04,41.88"/>
    <path class="st20" d="M70.12,41.88c0,0.12-0.15,0.23-0.34,0.23s-0.34-0.1-0.34-0.23c0-0.12,0.15-0.23,0.34-0.23 S70.12,41.75,70.12,41.88"/>
    <path class="st20" d="M70.29,42.8c0,0.12-0.15,0.23-0.34,0.23c-0.19,0-0.34-0.1-0.34-0.23c0-0.12,0.15-0.22,0.34-0.22 C70.14,42.57,70.29,42.67,70.29,42.8"/>
    <path class="st13" d="M71.41,50.22c0,0-0.11,0.2-0.35,0.2c-0.24,0-0.47-0.79-0.47-0.79l-0.98-3.66l0.17-0.11l1.63,3.81V50.22z"/>
  </g>
</svg>