<svg id="Layer_1" data-name="Layer 1" xmlns="http://www.w3.org/2000/svg" viewBox="0 0 108 108">
  <defs>
    <style>
      .cls-1 {
        fill: #db2116;
      }

      .cls-2 {
        fill: #ff3a2f;
      }

      .cls-3 {
        fill: #a41910;
      }

      .cls-4 {
        fill: #ffd185;
      }

      .cls-5 {
        fill: #ffba48;
      }

      .cls-6 {
        fill: #ff7a3c;
      }
    </style>
  </defs>
  <g>
    <path class="cls-1" d="M65.18,21.37A5.29,5.29,0,0,1,64,21.24L57.32,48H71.18V33.12a7.4,7.4,0,0,0-6-11.75Z"/>
    <path class="cls-2" d="M64,21.24A5.1,5.1,0,0,1,61.52,20a10.21,10.21,0,0,0-14,0,5.28,5.28,0,0,1-3.66,1.4,7.41,7.41,0,0,0-6,11.75V45.74L54.51,56.08,67,32.74C69.37,28.41,67.58,22.53,64,21.24Z"/>
    <path class="cls-3" d="M63.8,40.26A9.3,9.3,0,1,0,47,45.74v5.17l7.51,5.17L62,45.74a9.19,9.19,0,0,0,1.79-5.48Z"/>
    <path class="cls-1" d="M24.8,35.2a6,6,0,0,1-.49,1.09L45.55,50.21,47,45.74,37.83,33.12a7.4,7.4,0,0,0-13,2.08Z"/>
    <path class="cls-2" d="M24.31,36.29a5.06,5.06,0,0,1-2,2A10.2,10.2,0,0,0,18,51.59a5.29,5.29,0,0,1,.2,3.91,7.41,7.41,0,0,0,9.32,9.34l12,3.9,15-12.66L36.18,37c-3.39-3.58-9.54-3.69-11.87-.68Z"/>
    <path class="cls-3" d="M42.34,42.35a9.29,9.29,0,1,0,0,17.67l4.91,1.6,7.24-5.54L47,45.74a9.23,9.23,0,0,0-4.66-3.39Z"/>
    <path class="cls-1" d="M25.47,77.88a5.7,5.7,0,0,1,.89.8l19.8-15.9L42.36,60,27.52,64.84A7.41,7.41,0,0,0,25.47,77.88Z"/>
    <path class="cls-2" d="M26.36,78.68a5.18,5.18,0,0,1,1.25,2.48A10.21,10.21,0,0,0,39,89.41a5.24,5.24,0,0,1,3.78,1,7.41,7.41,0,0,0,11.76-6l7.42-10.21L54.51,56.08,30.67,67.6c-4.45,2.12-6.46,7.93-4.31,11.08Z"/>
    <path class="cls-3" d="M37.7,63.4a9.29,9.29,0,1,0,16.81,5.45l3-4.18-3-8.59L42.36,60A9.25,9.25,0,0,0,37.7,63.4Z"/>
    <path class="cls-1" d="M66.27,90.43a5.72,5.72,0,0,1,1-.6l-9-23.74-3.8,2.76v15.6a7.4,7.4,0,0,0,11.76,6Z"/>
    <path class="cls-2" d="M67.31,89.83a5.15,5.15,0,0,1,2.74-.42A10.19,10.19,0,0,0,81.4,81.16a5.31,5.31,0,0,1,2.14-3.28,7.41,7.41,0,0,0-2.05-13L74.07,54.63,54.51,56.08,58.1,82.3C58.74,87.2,63.65,90.9,67.31,89.83Z"/>
    <path class="cls-3" d="M56.28,74.33A9.3,9.3,0,1,0,66.65,60l-3-4.18-9.11.24V68.85a9.25,9.25,0,0,0,1.77,5.48Z"/>
    <path class="cls-1" d="M90.82,55.5a6,6,0,0,1-.26-1.17L65.2,55.56,66.65,60l14.84,4.82A7.41,7.41,0,0,0,90.82,55.5Z"/>
    <path class="cls-2" d="M90.56,54.33A5.29,5.29,0,0,1,91,51.59a10.21,10.21,0,0,0-4.33-13.34,5.26,5.26,0,0,1-2.46-3,7.42,7.42,0,0,0-13-2.08l-16.67,23,26.05,4.68c4.85.9,9.89-2.62,10-6.43Z"/>
    <path class="cls-3" d="M72.42,60A9.3,9.3,0,1,0,62,45.74l-7.5,10.34L66.65,60A9.25,9.25,0,0,0,72.42,60Z"/>
    <path class="cls-4" d="M64.7,52.76a3.55,3.55,0,0,0-3.9-5.35,3.55,3.55,0,0,0-6.29-2,3.56,3.56,0,0,0-6.3,2,3.55,3.55,0,0,0-3.89,5.35,3.56,3.56,0,0,0,0,6.63,3.55,3.55,0,0,0,3.89,5.35,3.56,3.56,0,0,0,6.3,2.05,3.55,3.55,0,0,0,6.29-2.05,3.55,3.55,0,0,0,3.9-5.35,3.57,3.57,0,0,0,0-6.63Z"/>
    <circle class="cls-5" cx="54.51" cy="56.08" r="6.79"/>
    <circle class="cls-6" cx="54.51" cy="56.08" r="2.26"/>
  </g>
</svg>
