<?xml version="1.0" encoding="utf-8"?>
<!-- Generator: Adobe Illustrator 23.1.1, SVG Export Plug-In . SVG Version: 6.00 Build 0)  -->
<svg version="1.1" xmlns="http://www.w3.org/2000/svg" xmlns:xlink="http://www.w3.org/1999/xlink" x="0px" y="0px"
	 viewBox="0 0 108 108" style="enable-background:new 0 0 108 108;" xml:space="preserve">
<style type="text/css">
	.st0{fill:none;stroke:#708530;stroke-width:1.0127;stroke-miterlimit:10;}
	.st1{fill:#72AA3A;}
	.st2{fill:#3F8133;}
	.st3{fill:#678B2B;}
	.st4{fill:#B0CC36;}
	.st5{fill:#639D3C;}
	.st6{fill:#A6BD39;}
	.st7{fill:#84B53A;}
	.st8{fill:#A5C939;}
	.st9{fill:#64791A;}
	.st10{fill:#81842A;}
	.st11{fill:#758A27;}
	.st12{fill:#598A34;}
	.st13{fill:#406C25;}
	.st14{fill:#4F7E2E;}
	.st15{fill:#5C8E36;}
	.st16{fill:#7A9B56;}
	.st17{fill:#8BAC30;}
	.st18{fill:#89337F;}
	.st19{fill:#A463FB;}
	.st20{fill:#A44198;}
	.st21{fill:#A356A2;}
	.st22{fill:#70366F;}
	.st23{fill:#C578B2;}
	.st24{fill:#B16EAD;}
	.st25{fill:#BF8DBF;}
	.st26{fill:#A266AA;}
	.st27{fill:#622D60;}
	.st28{fill:#963A8B;}
	.st29{fill:#B758A2;}
	.st30{fill:#528230;}
	.st31{fill:#3E692D;}
	.st32{fill:#779240;}
	.st33{fill:#619849;}
	.st34{fill:#61953C;}
	.st35{fill:#67A344;}
</style>
<g id="Layer_1">
	<g>
		<path class="st0" d="M59.8,59.5c1.3-2.3,2.7-6.9,3.7-10.1"/>
		<path class="st0" d="M67.6,60c-2.3-2.9-4.7-7.8-4.9-11.8"/>
		<path class="st0" d="M72,54.7c-4.4-0.3-8.3,0-8.7-4.7"/>
		<path class="st0" d="M61.9,40.5c-2-4.8-3.4-10.5-2.8-14.5"/>
		<path class="st0" d="M52.9,38.9c3.1-4.5,6-12.4,6.7-13.9"/>
		<path class="st0" d="M64.5,33.6c-3.3-0.7-5.7-0.3-5.8-6.4"/>
		<path class="st1" d="M52.3,61.1c0.8-2,0-2.9,4.9-4.3l4.9-1.5c0,0,0.2,1,0.5,2.2c0.3,1.2,1.7,5.5-1.4,7.8c-3.1,2.3-5.3,3.3-6,3.5
			c-0.7,0.2-3.1,1.5-3.7,1.7"/>
		<path class="st2" d="M73.3,74.1c-1.7-2.2-6-2-7.6-5.4c-1.6-3.4-0.5-8.9-0.4-10.6c0.1-1.7-1.3-1.7,1.3-0.4c2.6,1.4,3.2,0.6,5.1,2.4
			c1.9,1.8,3.1,6.7,2.5,8.2C73.6,69.9,73.3,74.1,73.3,74.1"/>
		<path class="st3" d="M67.1,54.4c0.7,0.4,1.1,1.3,4.3,3.2c3.2,1.9,5.9,2.9,7.9,0.8c2-2.1,1.4-3,3.7-3.8l2.3-0.8
			c0,0-2.7-1.6-6.6-3.7c-3.9-2.1-7.9,0.8-9.3,2.1C67.9,53.6,67.1,54.4,67.1,54.4"/>
		<path class="st4" d="M65.3,53.5c0,0-0.5-2.4-3.6-4.2c-3-1.7-5.5-5.1-3.7-8.2c1.8-3.2,1.8-5.5,1.8-5.5s-0.3,0.4,2.4,1.7
			c2.8,1.3,5.5,5.2,5,8.3C66.9,48.8,65.3,53.5,65.3,53.5"/>
		<path class="st5" d="M44.8,47.3c0,0,6.1-1.7,8.8-3.6c2.7-1.9,3.9-3.3,3.5-6c-0.5-2.7-0.2-4.5-0.2-4.5s-4.1,2-5.9,1.9
			c-1.9-0.1-5,1.7-5.1,3.7C45.7,40.7,44.8,47.3,44.8,47.3"/>
		<path class="st6" d="M61.2,32.9c0,0.1,1.7,2.3,4.3,4.2c2.6,1.9,4.1,2.7,6,2c1.9-0.8,3.5-1.8,5.1-2.9c1.7-1.2,2.2-1.7,2.9-1.5
			c0.7,0.2-1.1,0.1-3.8-2.4c-2.6-2.5-3.6-4.1-5.5-3.9c-1.8,0.3-2.9,2.1-4.7,3C63.7,32.3,61.2,32.9,61.2,32.9"/>
		<path class="st0" d="M22.2,43c2.3-2.9,6.5-6.4,10.4-7.6"/>
		<path class="st0" d="M28.5,46c-0.8-4.3-2-8,2.5-9.5"/>
		<path class="st0" d="M40,32.8c4.3-3.1,9.5-5.8,13.5-6.2"/>
		<path class="st0" d="M39.3,23.8c5.1,1.9,13.6,2.7,15.4,3"/>
		<path class="st0" d="M47.3,33.6c-0.1-3.4-1.1-5.5,4.9-7.1"/>
		<path class="st7" d="M28.1,26.6c2.1,0.2,2.8-0.7,5.5,3.6l2.7,4.3c0,0-1,0.4-2.1,1c-1.1,0.5-5,3-8,0.6c-3-2.4-4.5-4.2-4.9-4.9
			c-0.4-0.7-2.2-2.6-2.6-3.1"/>
		<path class="st8" d="M18.4,51.9c1.7-2.1,0.5-6.2,3.4-8.6c2.9-2.4,8.6-2.6,10.3-2.9c1.7-0.3,1.4-1.7,0.7,1.1
			c-0.7,2.8,0.2,3.2-1.1,5.5c-1.3,2.3-5.9,4.6-7.4,4.4C22.7,51.2,18.4,51.9,18.4,51.9"/>
		<path class="st3" d="M27.5,41.1c-0.2,0.7-1,1.4-2.1,4.9c-1,3.5-1.4,6.4,1.1,7.7c2.5,1.4,3.3,0.6,4.7,2.6l1.4,2c0,0,0.9-3,2-7.2
			c1.1-4.2-2.7-7.4-4.4-8.4C28.6,41.7,27.5,41.1,27.5,41.1"/>
		<path class="st9" d="M28,39.2c0,0,2.3-1.1,3.2-4.4c0.9-3.3,3.6-6.5,7.2-5.5c3.6,1,5.8,0.4,5.8,0.4s-0.5-0.2-1.1,2.7
			c-0.6,2.9-3.7,6.5-7,6.8C33,39.6,28,39.2,28,39.2"/>
		<path class="st5" d="M29.7,27.8c0,0,6.3-0.1,9.4-1.3c3.1-1.2,4.6-2.3,4.9-5.1c0.3-2.8,1-4.5,1-4.5s-4.4,1-6.2,0.4
			c-1.8-0.5-5.2,0.4-5.9,2.4C32.2,21.6,29.7,27.8,29.7,27.8"/>
		<path class="st6" d="M47.2,30.3c-0.1,0-1.8,2.2-3.1,5.2c-1.2,2.9-1.7,4.6-0.5,6.2c1.2,1.6,2.6,2.9,4.1,4.2
			c1.5,1.3,2.2,1.6,2.2,2.4c0,0.7-0.4-1.1,1.4-4.2c1.8-3.1,3.2-4.5,2.4-6.2c-0.7-1.7-2.8-2.2-4.1-3.8C48.5,32.5,47.2,30.3,47.2,30.3
			"/>
		<path class="st0" d="M53.4,19.4c3.4,4,6.3,9,7,13"/>
		<path class="st0" d="M62.5,18.3c-1.7,5.2-2.1,13.6-2.2,15.3"/>
		<path class="st0" d="M52.9,26.7c3.4-0.3,5.5-1.4,7.5,4.5"/>
		<path class="st4" d="M46.3,7.9c0,0,1.2,2.2,4.6,2.9c3.4,0.8,6.7,3.2,5.9,6.8c-0.8,3.5-0.1,5.8-0.1,5.8s0.2-0.5-2.8-0.9
			c-3-0.4-6.8-3.4-7.3-6.5C46.1,12.8,46.3,7.9,46.3,7.9"/>
		<path class="st5" d="M67.7,8c0,0-5.4,3.4-7.4,6c-2,2.6-2.8,4.3-1.5,6.8c1.3,2.5,1.5,4.3,1.5,4.3s3.3-3.1,5.1-3.6
			c1.8-0.5,4.3-3.1,3.8-5C68.8,14.5,67.7,8,67.7,8"/>
		<path class="st10" d="M56.3,26.4c0-0.1-2.4-1.7-5.4-2.8c-3-1.1-4.7-1.4-6.3-0.2c-1.6,1.3-2.8,2.7-4,4.3c-1.3,1.6-1.6,2.3-2.3,2.3
			c-0.8,0,1-0.4,4.3,1.2c3.2,1.6,4.7,2.9,6.4,2.1c1.7-0.8,2.1-2.8,3.6-4.2C54.1,27.7,56.3,26.4,56.3,26.4"/>
		<path class="st0" d="M67.9,29.3c-4.6,2.7-10,4.8-14.1,4.8"/>
		<path class="st0" d="M67.6,38.3c-4.9-2.4-13.3-4.1-15-4.5"/>
		<path class="st0" d="M60.6,27.7c-0.2,3.3,0.5,5.6-5.7,6.6"/>
		<path class="st4" d="M80,33.3c0,0-2-1.5-5.4-0.9c-3.4,0.6-7.4-0.4-8.1-4c-0.7-3.6-2.3-5.4-2.3-5.4s0,0.5,2.9-0.3
			c2.9-0.8,7.5,0.5,9.2,3.2C78.1,28.7,80,33.3,80,33.3"/>
		<path class="st5" d="M77.1,45c0,0-2.5-5.7-4.9-8.1c-2.3-2.4-3.9-3.4-6.5-2.5c-2.7,0.8-4.5,0.8-4.5,0.8s2.6,3.7,2.8,5.5
			c0.2,1.8,2.4,4.6,4.4,4.5C70.4,45.1,77.1,45,77.1,45"/>
		<path class="st11" d="M60.4,31.1c0.1,0,2.1-2,3.6-4.8c1.5-2.8,2.2-4.4,1.1-6.1c-1-1.7-2.3-3.1-3.7-4.6c-1.4-1.5-2.1-1.9-1.9-2.6
			c0.1-0.7,0.3,1.1-1.9,4c-2.1,2.9-3.6,4.1-3.1,5.9c0.5,1.8,2.5,2.5,3.7,4.2C59.4,28.7,60.4,31.1,60.4,31.1"/>
		<path class="st1" d="M50.4,41c1.3-2.3,2.7-6.9,3.7-10.1"/>
		<path class="st1" d="M58.2,41.5c-2.3-2.9-4.7-7.8-4.9-11.8"/>
		<path class="st1" d="M62.6,36.2c-4.4-0.3-8.3,0-8.7-4.7"/>
		<path class="st1" d="M52.5,21.9c-2-4.8-3.4-10.5-2.8-14.5"/>
		<path class="st1" d="M55.1,15.1c-3.3-0.7-5.7-0.3-5.8-6.4"/>
		<path class="st12" d="M42.9,42.6c0.8-2,0-2.9,4.9-4.3l4.9-1.5c0,0,0.2,1,0.5,2.2c0.3,1.2,1.7,5.5-1.4,7.8c-3.1,2.3-5.3,3.3-6,3.5
			c-0.7,0.2-3.1,1.5-3.7,1.7"/>
		<path class="st1" d="M63.8,55.6c-1.7-2.2-6-2-7.6-5.4c-1.6-3.4-0.5-8.9-0.4-10.6c0.1-1.7-1.3-1.7,1.3-0.4c2.6,1.4,3.2,0.6,5.1,2.4
			c1.9,1.8,3.1,6.7,2.5,8.2C64.1,51.4,63.8,55.6,63.8,55.6"/>
		<path class="st13" d="M57.6,35.9c0.7,0.4,1.1,1.3,4.3,3.2c3.2,1.9,5.9,2.9,7.9,0.8c2-2.1,1.4-3,3.7-3.8l2.3-0.8
			c0,0-2.7-1.6-6.6-3.7c-3.9-2.1-7.9,0.8-9.3,2.1C58.5,35,57.6,35.9,57.6,35.9"/>
		<path class="st1" d="M55.9,35c0,0-0.5-2.4-3.6-4.2c-3-1.7-5.5-5.1-3.7-8.2c1.8-3.2,1.8-5.5,1.8-5.5s-0.3,0.4,2.4,1.7
			c2.8,1.3,5.5,5.2,5,8.3C57.5,30.3,55.9,35,55.9,35"/>
		<path class="st14" d="M35.4,28.7c0,0,6.1-1.7,8.8-3.6c2.7-1.9,3.9-3.3,3.5-6c-0.5-2.7-0.2-4.5-0.2-4.5s-4.1,2-5.9,1.9
			c-1.9-0.1-5,1.7-5.1,3.7C36.3,22.2,35.4,28.7,35.4,28.7"/>
		<path class="st15" d="M51.8,14.4c0,0.1,1.7,2.3,4.3,4.2c2.6,1.9,4.1,2.7,6,2c1.9-0.8,3.5-1.8,5.1-2.9c1.7-1.2,2.2-1.7,2.9-1.5
			c0.7,0.2-1.1,0.1-3.8-2.4c-2.6-2.5-3.6-4.1-5.5-3.9c-1.8,0.3-2.9,2.1-4.7,3C54.3,13.8,51.8,14.4,51.8,14.4"/>
		<path class="st0" d="M52.4,60.4c0.8-2.5,1.4-7.2,1.9-10.6"/>
		<path class="st0" d="M60.2,59.6c-2.8-2.5-6-6.9-6.9-10.8"/>
		<path class="st0" d="M63.6,53.6c-4.4,0.5-8.2,1.4-9.4-3.2"/>
		<path class="st0" d="M51.1,41.3c-2.9-4.4-5.2-9.7-5.3-13.8"/>
		<path class="st0" d="M42,41.3c2.3-4.9,3.7-13.2,4.1-14.9"/>
		<path class="st7" d="M44,52.6c0.4-2.1-0.5-2.8,4.1-5.1l4.6-2.3c0,0,0.4,1,0.8,2.1c0.5,1.1,2.7,5.1,0,7.9c-2.7,2.8-4.6,4.2-5.3,4.5
			c-0.7,0.3-2.7,2-3.3,2.3"/>
		<path class="st8" d="M68.9,63.9c-2-1.8-6.3-0.9-8.5-4c-2.2-3.1-2-8.6-2.2-10.3c-0.2-1.7-1.6-1.5,1.2-0.6c2.8,0.9,3.3,0.1,5.5,1.5
			c2.2,1.4,4.2,6.1,3.9,7.6C68.4,59.7,68.9,63.9,68.9,63.9"/>
		<path class="st3" d="M58.7,54.2c0.7,0.3,1.3,1.1,4.8,2.4c3.5,1.3,6.3,1.9,7.9-0.5c1.6-2.4,0.9-3.2,3-4.4l2.1-1.2
			c0,0-3-1.1-7.2-2.5c-4.2-1.4-7.7,2.1-8.8,3.7C59.3,53.2,58.7,54.2,58.7,54.2"/>
		<path class="st9" d="M56.8,53.6c0,0-1-2.3-4.2-3.5c-3.3-1.2-6.3-4-5-7.5c1.2-3.4,0.8-5.7,0.8-5.7S48,37.4,51,38.2
			c2.9,0.8,6.3,4.2,6.4,7.4C57.5,48.7,56.8,53.6,56.8,53.6"/>
		<path class="st5" d="M35.5,50.9c0,0,5.7-2.7,8.1-5c2.3-2.4,3.3-3.9,2.3-6.5c-0.9-2.6-1-4.4-1-4.4s-3.7,2.7-5.5,2.9
			c-1.9,0.3-4.6,2.5-4.4,4.5C35.2,44.4,35.5,50.9,35.5,50.9"/>
		<path class="st10" d="M45.9,24.8c-0.1,0-1.9,2.2-3.2,5.1c-1.3,2.9-1.8,4.5-0.6,6.2c1.2,1.6,2.5,2.9,4,4.3c1.5,1.4,2.2,1.7,2.2,2.4
			c0,0.7-0.4-1.1,1.5-4.1c1.9-3.1,3.3-4.4,2.6-6.1c-0.7-1.7-2.7-2.3-4-3.9C47.1,27.1,45.9,24.8,45.9,24.8"/>
		<path class="st12" d="M61.3,39.2c-1.9-0.9-2.9-0.2-4-5.2l-1.1-4.9c0,0,1.1-0.1,2.3-0.3c1.2-0.2,5.7-1.3,7.8,1.9
			c2.1,3.2,3,5.4,3.1,6.2c0.2,0.7,1.3,3.1,1.5,3.7"/>
		<path class="st14" d="M46.7,45.6c0,0-1.2-6.1-3-8.9c-1.8-2.8-3.1-4.1-5.8-3.8c-2.8,0.3-4.6-0.2-4.6-0.2s1.7,4.1,1.5,6
			c-0.2,1.8,1.3,5,3.4,5.3C40.1,44.2,46.7,45.6,46.7,45.6"/>
		<path class="st13" d="M53.3,38.3c1-0.4,2.5-0.1,7.3-2.2c4.8-2,8.4-4.2,7.6-8.3c-0.8-4-2.3-4.2-1.3-7.6l1-3.3c0,0-4.2,1.7-9.9,4.4
			c-5.7,2.7-5.8,9.7-5.4,12.5C53,36.6,53.3,38.3,53.3,38.3"/>
		<path class="st13" d="M40.7,41c0.6-0.9,2-1.4,5-5.7c3-4.3,4.8-8.1,2-11.1c-2.8-3-4.2-2.4-5.1-5.7l-0.9-3.3c0,0-2.6,3.7-6,9
			c-3.4,5.3,0.3,11.3,2.1,13.5C39.6,39.8,40.7,41,40.7,41"/>
		<path class="st16" d="M34.3,28.9c3.9-1.7,5.3-8.2,11-9.4c5.7-1.1,13.6,2.7,16.1,3.5c2.5,0.8,3.1-1.3,0.1,2
			c-3.1,3.3-2.2,4.6-5.6,6.7c-3.4,2.2-11.4,2-13.4,0.6C40.6,31,34.3,28.9,34.3,28.9"/>
		<path class="st17" d="M88,40.5c-2-0.7-14-7.1-17-9.6c-3-2.5-5.4-7.3-9-6.1c-3.6,1.2-1.4,4.1-5.2,5.8c-3.8,1.7-10.9,2-10.9,2
			s-6.8-0.4-9.8,3.2c-3,3.7-8.2,6.2-7.2,9.7s1,8.5,1.5,10.4c0.6,1.8,6.9,4.2,8,4.5s7.2,0.1,7.2,0.1s4.4-0.6,9.1-4.5
			s14.1-7.2,14.1-7.2s6-7.6,7.6-6.7c1.6,0.9-0.2,2.1,3.8,2C84.2,43.9,88,40.5,88,40.5z"/>
		<path class="st13" d="M49.8,46.9c0.6-0.9,2-1.4,5-5.7c3-4.3,4.8-8.1,2-11.1c-2.8-3-4.2-2.4-5.1-5.7L50.8,21c0,0-2.6,3.7-6,9
			c-3.4,5.3,0.3,11.3,2.1,13.5C48.6,45.6,49.8,46.9,49.8,46.9"/>
		<path class="st13" d="M66,52.6c0.6-0.9,2-1.4,5-5.7c3-4.3,4.8-8.1,2-11.1c-2.8-3-4.2-2.4-5.1-5.7L67,26.7c0,0-2.6,3.7-6,9
			c-3.4,5.3,0.3,11.3,2.1,13.5C64.8,51.4,66,52.6,66,52.6"/>
		<path class="st18" d="M42.9,77.6c0.6-1.7-0.1-3.7-0.1-3.7S42,74.3,40.5,75c-1.6,0.7-3.7,1.6-3.6,0c0.1-1.6,0.5-4-0.5-3.3
			c-1,0.7-0.8-0.2-2,2.4c-1.2,2.6-2.2,3.9-2.1,4.9c0.1,1,0,1.4-0.7,3.1c-0.7,1.7-1.4,5.1-1.2,6.4c0.2,1.3,0.3,3,0,2.2
			c-0.3-0.8-1.3-4.4-0.8-6c0.4-1.6,1.7-4,1.9-5.6c0.2-1.6,1-3.6,0.2-4.1c-0.5-0.3-1.5-0.8-2.1-1.2c0.2-0.8,0.4-1.5,0.5-1.9
			c0.4-1.7,3.1-7,3.5-7.8c0.3-0.9,1.7-2.5,2.7-2.9c1-0.3,2.6-0.6,3.5-0.5c0.9,0.1,1.9,0.6,2.7,0.9c0.8,0.3,3.2,3.1,3.2,3.1
			c0,0.3-0.4,13.6,0,15.3c0,0.1,0.1,0.3,0.1,0.5C44,79.4,42.4,78.8,42.9,77.6z"/>
		<path class="st19" d="M46.2,95.9c-0.3-0.3-0.6-0.6-0.8-0.8C45.8,95.2,46.1,95.5,46.2,95.9z"/>
		<path class="st20" d="M26.2,89.8c-0.1-2.4,0.1-5.4,0.5-7.1c0.6-2.2,1.9-6.4,2.7-9c0.6,0.4,1.6,0.9,2.1,1.2c0.9,0.5,0,2.5-0.2,4.1
			c-0.2,1.6-1.5,4-1.9,5.6c-0.3,1.1,0.1,3.3,0.4,4.7C28.4,89.6,26.2,89.8,26.2,89.8L26.2,89.8z"/>
		<path class="st19" d="M46.5,97.4c0,0,0-0.4,0.1-1C46.8,96.8,46.8,97.2,46.5,97.4z"/>
		<path class="st20" d="M30.3,90.6c-0.1-0.2-0.2-0.7-0.4-1.3c0.2,0,0.4-0.1,0.5-0.1C30.5,90.3,30.6,91.3,30.3,90.6z"/>
		<path class="st21" d="M26.2,89.8c0,0,2.2-0.1,3.7-0.4c0.2,0.6,0.3,1.1,0.4,1.3c0.3,0.6,0.2-0.3,0.1-1.4c0-0.3-0.1-0.5-0.1-0.8
			c-0.2-1.3,0.5-4.7,1.2-6.4c0.7-1.7,0.8-2.1,0.7-3.1c-0.1-1,0.9-2.3,2.1-4.9c1.2-2.6,1-1.7,2-2.4c1-0.7,0.6,1.7,0.5,3.3
			c-0.1,1.6,2,0.7,3.6,0c1.6-0.7,2.3-1.1,2.3-1.1s0.7,1.9,0.1,3.7c-0.4,1.3,1.2,1.9,2.8,2.8c0.6,2.4,2.3,9.3,1.7,11.3
			c-0.4,1.4-0.7,3.5-0.8,4.8c-0.1-0.2-0.2-0.3-0.4-0.5c-0.2-0.4-0.4-0.7-0.8-0.8c-1.2-0.3-2.7-0.5-3.6-1.3C41,93,40.5,91.5,39.2,92
			c-1.3,0.5-3,0.4-4.2,0.4c-1.2,0-2.6-0.2-4.2-0.4c-1.6-0.2-2.1-0.6-2.5,0c-0.4,0.6-0.9,1.5-1.6,1.2C26.4,93,26.3,91.6,26.2,89.8
			L26.2,89.8z"/>
		<path class="st19" d="M46.2,95.9c0.1,0.2,0.3,0.3,0.4,0.5c-0.1,0.6-0.1,1-0.1,1S46.5,96.6,46.2,95.9z"/>
		<path class="st19" d="M45.1,98c-0.1-0.1-0.2-0.2-0.2-0.3l1.6-0.3C45.7,98,45.5,98.4,45.1,98z"/>
		<path class="st22" d="M32.4,93.3c0.4,0.1,2.7,0.1,3.7,0.1s2.1-0.3,2.6-0.2c0.5,0.1,0.9,1,1.8,1.5c0.9,0.5,2.1,1,2.9,1.6
			c0.7,0.5,1.1,1,1.4,1.4l-1,0.2c-0.3-0.2-1-0.3-2.3,0s-2.7,0-3.3,0c-0.6,0-2.3-0.6-3-1.1c-0.7-0.5-2-1.8-2.5-2
			c-0.5-0.1-1.7-0.3-2.1-0.4c-0.4-0.1-1.5-0.4-1.6-0.4c0,0-0.1-0.1-0.2-0.3c0.3-0.2,0.8-0.2,1.1-0.6C30.4,92.6,32,93.2,32.4,93.3z"
			/>
		<path class="st23" d="M26.2,89.8c0.1,1.8,0.2,3.2,0.5,3.4c0.6,0.3,1-0.3,1.4-0.8c0.1-0.1,0.1-0.2,0.2-0.3c0.4-0.6,1-0.2,2.5,0
			c1.6,0.2,3,0.4,4.2,0.4c1.2,0,2.9,0.1,4.2-0.4c1.3-0.5,1.7,1,2.6,1.8c0.9,0.8,2.4,1,3.6,1.3c0.3,0.2,0.6,0.5,0.8,0.8
			c0.3,0.7,0.2,1.6,0.2,1.6l-1.6,0.3c-0.3-0.4-0.7-0.9-1.4-1.4c-0.9-0.6-2-1-2.9-1.6c-0.9-0.5-1.2-1.4-1.8-1.5
			c-0.5-0.1-1.7,0.2-2.6,0.2s-3.2,0-3.7-0.1c-0.4-0.1-2-0.7-2.4-0.3c-0.3,0.3-0.7,0.4-1.1,0.6c-0.1,0.1-0.2,0.1-0.3,0.2
			c-0.3,0.3-1.6,1.7-2.4,0.8C25.4,93.7,26.2,89.8,26.2,89.8z"/>
		<path class="st24" d="M34.5,81.8c0.4-0.8,0.9-3.9,0-3.8c-1,0.2-1.2,1.4-1.3,1.9s-0.2,1.2,0,1.9C33.4,82.4,34.5,81.8,34.5,81.8z"/>
		<path class="st20" d="M36.9,83.3c0.4-0.4,2.1-2.5,2.3-1.3c0.2,1.3,0.3,2.9,0.8,3.3c0.4,0.3,1.2,0.1,1.9-0.7
			c0.7-0.8,1.5-1.9,2.1-1.6s0.8,0.8,0.9,1.6c0.1,0.8,0.7,1.7,0.6,2.1c-0.2,0.4,0.6,3.5,0.3,4.1c-0.3,0.6,0.2,1.3-0.3,1.6
			c-0.4,0.3-1.4,1.1-1.5,0.5s-0.6-0.8-1.4-1.3c-0.8-0.5-1.7-1.7-2.6-1.6c-0.9,0.1-1-0.3-2,0c-1,0.3-1.1,0.7-1.7,0
			c-0.5-0.7-0.4-2.2-0.4-2.6S36.9,83.3,36.9,83.3z"/>
		<polygon class="st25" points="36.6,93.4 36.1,99.8 35.2,93.4 		"/>
		<path class="st20" d="M54.3,71.9c-0.6-1.7,0.1-3.7,0.1-3.7s0.8,0.4,2.3,1.1c1.6,0.7,3.7,1.6,3.6,0c-0.1-1.6-0.5-4,0.5-3.3
			c1,0.7,0.8-0.2,2,2.4c1.2,2.6,2.2,3.9,2.1,4.9c-0.1,1,0,1.4,0.7,3.1c0.7,1.7,1.4,5.1,1.2,6.4c-0.2,1.3-0.3,3,0,2.2
			c0.3-0.8,1.3-4.4,0.8-6c-0.4-1.6-1.7-4-1.9-5.6c-0.2-1.6-1-3.6-0.2-4.1c0.5-0.3,1.5-0.8,2.1-1.2c-0.2-0.8-0.4-1.5-0.5-1.9
			c-0.4-1.7-3.1-7-3.5-7.8c-0.3-0.9-1.7-2.5-2.7-2.9c-1-0.3-2.6-0.6-3.5-0.5c-0.9,0.1-1.9,0.6-2.7,0.9c-0.8,0.3-3.2,3.1-3.2,3.1
			c0,0.3,0.4,13.6,0,15.3c0,0.1-0.1,0.3-0.1,0.5C53.2,73.8,54.8,73.2,54.3,71.9z"/>
		<path class="st19" d="M51,90.3c0.3-0.3,0.6-0.6,0.8-0.8C51.4,89.6,51.2,89.9,51,90.3z"/>
		<path class="st20" d="M71,84.1c0.1-2.4-0.1-5.4-0.5-7.1c-0.6-2.2-1.9-6.4-2.7-9c-0.6,0.4-1.6,0.9-2.1,1.2c-0.9,0.5,0,2.5,0.2,4.1
			c0.2,1.6,1.5,4,1.9,5.6c0.3,1.1-0.1,3.3-0.4,4.7C68.8,84,71,84.1,71,84.1L71,84.1z"/>
		<path class="st19" d="M50.8,91.8c0,0,0-0.4-0.1-1C50.4,91.2,50.4,91.5,50.8,91.8z"/>
		<path class="st20" d="M66.9,85c0.1-0.2,0.2-0.7,0.4-1.3c-0.2,0-0.4-0.1-0.5-0.1C66.7,84.7,66.7,85.6,66.9,85z"/>
		<path class="st26" d="M71,84.1c0,0-2.2-0.1-3.7-0.4c-0.2,0.6-0.3,1.1-0.4,1.3c-0.3,0.6-0.2-0.3-0.1-1.4c0-0.3,0.1-0.5,0.1-0.8
			c0.2-1.3-0.5-4.7-1.2-6.4c-0.7-1.7-0.8-2.1-0.7-3.1c0.1-1-0.9-2.3-2.1-4.9c-1.2-2.6-1-1.7-2-2.4c-1-0.7-0.6,1.7-0.5,3.3
			c0.1,1.6-2,0.7-3.6,0c-1.6-0.7-2.3-1.1-2.3-1.1s-0.7,1.9-0.1,3.7c0.4,1.3-1.2,1.9-2.8,2.8c-0.6,2.4-2.3,9.3-1.7,11.3
			c0.4,1.4,0.7,3.5,0.8,4.8c0.1-0.2,0.2-0.3,0.4-0.5c0.2-0.4,0.4-0.7,0.8-0.8c1.2-0.3,2.7-0.5,3.6-1.3c0.9-0.8,1.3-2.2,2.6-1.8
			c1.3,0.5,3,0.4,4.2,0.4c1.2,0,2.6-0.2,4.2-0.4c1.6-0.2,2.1-0.6,2.5,0s0.9,1.5,1.6,1.2C70.8,87.4,71,85.9,71,84.1L71,84.1z"/>
		<path class="st19" d="M51,90.3c-0.1,0.2-0.3,0.3-0.4,0.5c0.1,0.6,0.1,1,0.1,1S50.7,90.9,51,90.3z"/>
		<path class="st19" d="M52.2,92.3c0.1-0.1,0.2-0.2,0.2-0.3l-1.6-0.3C51.6,92.4,51.7,92.8,52.2,92.3z"/>
		<path class="st27" d="M64.8,87.7c-0.4,0.1-2.7,0.1-3.7,0.1s-2.1-0.3-2.6-0.2c-0.5,0.1-0.9,1-1.8,1.5c-0.9,0.5-2.1,1-2.9,1.6
			c-0.7,0.5-1.1,1-1.4,1.4l1,0.2c0.3-0.2,1-0.3,2.3,0s2.7,0,3.3,0c0.6,0,2.3-0.6,3-1.1c0.7-0.5,2-1.8,2.5-2c0.5-0.1,1.7-0.3,2.1-0.4
			c0.4-0.1,1.5-0.4,1.6-0.4c0,0,0.1-0.1,0.2-0.3c-0.3-0.2-0.8-0.2-1.1-0.6C66.8,87,65.2,87.6,64.8,87.7z"/>
		<path class="st23" d="M71,84.1c-0.1,1.8-0.2,3.2-0.5,3.4c-0.6,0.3-1-0.3-1.4-0.8c-0.1-0.1-0.1-0.2-0.2-0.3c-0.4-0.6-1-0.2-2.5,0
			c-1.6,0.2-3,0.4-4.2,0.4c-1.2,0-2.9,0.1-4.2-0.4c-1.3-0.5-1.7,1-2.6,1.8c-0.9,0.8-2.4,1-3.6,1.3c-0.3,0.2-0.6,0.5-0.8,0.8
			c-0.3,0.7-0.2,1.6-0.2,1.6l1.6,0.3c0.3-0.4,0.7-0.9,1.4-1.4c0.9-0.6,2-1,2.9-1.6c0.9-0.5,1.2-1.4,1.8-1.5c0.5-0.1,1.7,0.2,2.6,0.2
			s3.2,0,3.7-0.1c0.4-0.1,2-0.7,2.4-0.3c0.3,0.3,0.7,0.4,1.1,0.6c0.1,0.1,0.2,0.1,0.3,0.2C69,88.6,70.3,90,71,89
			C71.8,88.1,71,84.1,71,84.1z"/>
		<path class="st24" d="M62.7,76.1c-0.4-0.8-0.9-3.9,0-3.8c1,0.2,1.2,1.4,1.3,1.9c0.1,0.5,0.2,1.2,0,1.9
			C63.8,76.8,62.7,76.1,62.7,76.1z"/>
		<path class="st28" d="M60.4,77.7c-0.4-0.4-2.1-2.5-2.3-1.3c-0.2,1.3-0.3,2.9-0.8,3.3c-0.4,0.3-1.2,0.1-1.9-0.7s-1.5-1.9-2.1-1.6
			c-0.6,0.3-0.8,0.8-0.9,1.6s-0.7,1.7-0.6,2.1c0.2,0.4-0.6,3.5-0.3,4.1c0.3,0.6-0.2,1.3,0.3,1.6c0.4,0.3,1.4,1.1,1.5,0.5
			s0.6-0.8,1.4-1.3c0.8-0.5,1.7-1.7,2.6-1.6c0.9,0.1,1-0.3,2,0c1,0.3,1.1,0.7,1.7,0c0.5-0.7,0.4-2.2,0.4-2.6S60.4,77.7,60.4,77.7z"
			/>
		<polygon class="st25" points="60.6,87.8 61.1,94.2 62,87.8 		"/>
		<path class="st20" d="M82,57.1c0-1.8-1.2-3.5-1.2-3.5s-0.5,0.6-1.7,1.7c-1.2,1.1-2.7,2.5-3.1,1c-0.4-1.5-0.8-4-1.5-3
			c-0.7,1-0.7,0.1-1,2.9c-0.2,2.8-0.7,4.3-0.3,5.2c0.4,0.9,0.4,1.3,0.3,3.1c-0.1,1.8,0.4,5.2,0.9,6.4c0.6,1.2,1.2,2.7,0.7,2.1
			c-0.5-0.7-2.5-3.9-2.6-5.5c-0.1-1.6,0.3-4.3-0.1-5.9c-0.3-1.5-0.2-3.7-1.1-3.9c-0.6-0.2-1.5-0.4-2.2-0.5c0-0.8-0.1-1.5-0.1-1.9
			c-0.1-1.7,0.6-7.5,0.6-8.5c0-0.9,0.7-2.9,1.5-3.5c0.8-0.6,2.1-1.3,2.9-1.5c0.8-0.2,1.9,0,2.6,0.1c0.8,0,3.8,2,3.8,2
			c0.1,0.3,3.9,13,4.8,14.5c0.1,0.1,0.2,0.3,0.3,0.4C83.6,58.6,82,58.5,82,57.1z"/>
		<path class="st19" d="M90.6,73.6c-0.3-0.2-0.7-0.4-1-0.5C90,73.1,90.3,73.3,90.6,73.6z"/>
		<path class="st20" d="M71.3,73.5c-0.8-2.2-1.6-5.2-1.7-6.9c-0.2-2.3-0.3-6.6-0.5-9.3c0.7,0.2,1.6,0.4,2.2,0.5
			c0.9,0.2,0.8,2.4,1.1,3.9c0.3,1.5,0,4.2,0.1,5.9c0.1,1.1,1.1,3.1,1.9,4.3C73.1,72.8,71.3,73.5,71.3,73.5L71.3,73.5z"/>
		<path class="st19" d="M91.3,75c0,0-0.1-0.4-0.2-1C91.3,74.3,91.5,74.6,91.3,75z"/>
		<path class="st20" d="M75.1,73.2c-0.2-0.2-0.4-0.6-0.8-1.1c0.1-0.1,0.3-0.2,0.4-0.3C75.2,72.8,75.5,73.7,75.1,73.2z"/>
		<path class="st29" d="M71.3,73.5c0,0,1.9-0.7,3.1-1.5c0.3,0.5,0.6,0.9,0.8,1.1c0.4,0.5,0.1-0.4-0.3-1.4c-0.1-0.2-0.2-0.5-0.3-0.7
			c-0.6-1.2-1-4.6-0.9-6.4c0.1-1.8,0-2.2-0.3-3.1c-0.4-0.9,0.1-2.4,0.3-5.2c0.2-2.8,0.3-1.9,1-2.9c0.7-1,1.1,1.5,1.5,3
			c0.4,1.5,2,0.1,3.1-1c1.2-1.1,1.7-1.7,1.7-1.7s1.2,1.6,1.2,3.5c0,1.3,1.6,1.5,3.3,1.8c1.3,2.1,4.9,8.2,5,10.2
			c0.1,1.4,0.5,3.6,0.8,4.8c-0.1-0.1-0.3-0.3-0.5-0.4c-0.3-0.3-0.6-0.5-1-0.5c-1.2,0-2.5,0.3-3.5-0.2c-1-0.5-1.8-1.8-2.8-0.9
			c-1,0.8-2.5,1.2-3.5,1.6c-1.1,0.3-2.3,0.6-3.8,0.8c-1.4,0.2-2,0-2.2,0.7s-0.3,1.7-1,1.6C72.5,76.5,71.9,75.2,71.3,73.5L71.3,73.5z
			"/>
		<path class="st19" d="M90.6,73.6c0.2,0.1,0.3,0.2,0.5,0.4c0.1,0.6,0.2,1,0.2,1S91.1,74.2,90.6,73.6z"/>
		<path class="st19" d="M90.2,75.9c-0.1-0.1-0.2-0.1-0.3-0.2l1.3-0.7C90.8,75.8,90.7,76.2,90.2,75.9z"/>
		<path class="st22" d="M77.8,75.1c0.4,0,2.4-0.7,3.2-1s1.7-0.8,2.2-0.9c0.5-0.1,1.1,0.7,2,0.9c0.9,0.2,2.1,0.3,3.1,0.6
			c0.8,0.3,1.2,0.6,1.7,0.9l-0.8,0.4c-0.4-0.1-0.9-0.1-2,0.6c-1,0.7-2.4,0.8-2.9,0.9s-2.2,0.1-2.9-0.2c-0.8-0.3-2.3-1.1-2.8-1.1
			c-0.5,0-1.5,0.2-1.9,0.2c-0.4,0-1.5,0-1.5,0c0,0-0.1-0.1-0.2-0.2c0.2-0.3,0.6-0.5,0.8-0.9C75.8,75,77.4,75.2,77.8,75.1z"/>
		<path class="st23" d="M71.3,73.5c0.6,1.7,1.2,3,1.5,3.1c0.6,0.1,0.8-0.5,0.9-1.2c0-0.1,0.1-0.2,0.1-0.4c0.2-0.7,0.8-0.5,2.2-0.7
			c1.4-0.2,2.7-0.5,3.8-0.8c1.1-0.3,2.5-0.7,3.5-1.6c1-0.8,1.8,0.4,2.8,0.9c1,0.5,2.3,0.2,3.5,0.2c0.3,0.1,0.7,0.3,1,0.5
			c0.5,0.6,0.7,1.4,0.7,1.4l-1.3,0.7c-0.4-0.3-0.9-0.6-1.7-0.9c-0.9-0.3-2.1-0.4-3.1-0.6c-0.9-0.2-1.5-1-2-0.9
			c-0.5,0.1-1.4,0.6-2.2,0.9s-2.8,0.9-3.2,1c-0.4,0-2-0.1-2.2,0.4c-0.2,0.4-0.5,0.6-0.8,0.9c-0.1,0.1-0.2,0.2-0.2,0.3
			c-0.2,0.4-0.9,2.1-1.8,1.4C71.8,77.4,71.3,73.5,71.3,73.5z"/>
		<path class="st24" d="M76,63.5c0.1-0.9-0.4-4-1.2-3.6c-0.9,0.5-0.6,1.7-0.6,2.2c0.1,0.5,0.2,1.2,0.6,1.8
			C75.2,64.5,76,63.5,76,63.5z"/>
		<path class="st20" d="M78.5,64.3c0.2-0.5,1-3,1.6-1.8c0.5,1.1,1.2,2.7,1.7,2.9c0.5,0.2,1.1-0.3,1.5-1.2c0.4-0.9,0.7-2.2,1.3-2.1
			s1,0.5,1.3,1.2c0.3,0.7,1.1,1.4,1.1,1.8s1.6,3.2,1.5,3.8c-0.1,0.6,0.5,1.2,0.3,1.6c-0.3,0.5-0.9,1.4-1.2,0.9s-0.8-0.6-1.6-0.9
			s-2-1.1-2.8-0.7s-0.9,0-1.7,0.6c-0.8,0.5-0.8,1-1.4,0.5s-1.1-1.9-1.2-2.4C78.7,68.1,78.5,64.3,78.5,64.3z"/>
		<polygon class="st25" points="81.5,74 83,80.2 80.2,74.4 		"/>
		<path class="st30" d="M38.8,69.1c-2.6-2.1-4.3-1.5-4.1-9.6l0.3-8.1c0,0,1.7,0.2,3.6,0.5s9.2,0.2,11.1,6.1
			c1.9,5.9,2.3,9.6,2.3,10.8c0,1.2,0.7,5.3,0.8,6.4"/>
		<path class="st31" d="M47.4,59c-0.4-3.3-2-4.1,3.7-9.7l5.8-5.6c0,0,1,1.3,2.3,2.8C60.4,48,65.7,53,63,58.6c-2.7,5.5-5,8.5-5.8,9.3
			c-0.9,0.8-3.2,4.3-3.9,5.1"/>
		<path class="st1" d="M56.6,63.1c-2-1.7-3.4-1.2-3.2-7.6l0.2-6.4c0,0,1.3,0.2,2.8,0.4s7.3,0.2,8.8,4.8c1.5,4.6,1.8,7.5,1.8,8.5
			c0,1,0.5,4.2,0.6,5"/>
		<path class="st32" d="M44.5,47.8c-2.4-1.9-4-1.4-3.8-8.7l0.1-7.4c0,0,1.5,0.2,3.3,0.4c1.8,0.2,8.4,0.1,10.2,5.5
			c1.8,5.3,2.2,8.7,2.2,9.8c0,1.1,0.7,4.9,0.8,5.8"/>
		<path class="st1" d="M27.2,33.5c1.7-2.6,0.9-4.1,8.3-4.7l7.4-0.7c0,0,0,1.5,0,3.3c0,1.8,0.8,8.4-4.3,10.8
			c-5.1,2.4-8.4,3.2-9.6,3.3c-1.1,0.1-4.8,1.2-5.7,1.4"/>
		<path class="st1" d="M25.5,63.1c1.5-3,0.6-4.5,8.5-6l7.9-1.4c0,0,0.1,1.7,0.3,3.6c0.2,1.9,1.7,9.1-3.6,12.1
			c-5.3,3.1-8.9,4.3-10.1,4.5c-1.2,0.2-5.1,1.8-6.1,2.1"/>
		<path class="st33" d="M47.7,50.6c0.1-3.4-1.4-4.3,5.1-9.1l6.5-4.8c0,0,0.8,1.5,1.9,3.1c1,1.7,5.5,7.4,2,12.5
			c-3.5,5.1-6.1,7.7-7.1,8.4c-1,0.7-3.8,3.8-4.5,4.5"/>
		<path class="st17" d="M70.8,33.2C74,36,80.5,34.4,84,39.1c3.5,4.7,3.5,13.4,3.8,16.1c0.3,2.6,2.5,2.3-1.8,0.9
			c-4.3-1.3-5,0-8.5-2.1c-3.4-2.1-6.7-9.4-6.3-11.8C71.6,39.8,70.8,33.2,70.8,33.2"/>
		<path class="st17" d="M22.9,43.4c2.1-3.4,0.4-9,4-13c3.6-3.9,10.6-5.4,12.7-6.1c2.1-0.7,1.7-2.7,0.8,1.5c-0.8,4.1,0.3,4.6-1.2,8
			c-1.5,3.5-7.1,7.7-9.1,7.7C28.2,41.6,22.9,43.4,22.9,43.4"/>
		<path class="st34" d="M52.2,24.1c3.8,0.9,8.4-3.2,13.3-1c4.9,2.3,8.7,9.4,10.1,11.4c1.4,2,3,0.7-1.1,1.5c-4.1,0.8-4.1,2.2-7.8,2
			c-3.7-0.2-9.6-4.7-10.3-6.8C55.8,29.1,52.2,24.1,52.2,24.1"/>
		<path class="st35" d="M66.5,63.5c-0.7-4.2-6.7-7.1-6.4-13c0.3-5.8,5.9-12.6,7.3-14.8c1.4-2.2-0.5-3.3,2,0.4c2.5,3.8,3.9,3.2,5.2,7
			c1.3,3.8-0.8,11.5-2.7,13.1C70.1,57.9,66.5,63.5,66.5,63.5"/>
		<path class="st13" d="M45.1,59.9c0-1.1,0.8-2.3,0.8-7.6c0-5.3-0.7-9.4-4.7-10.2c-4-0.8-4.8,0.5-7.5-1.7l-2.7-2.2
			c0,0,0,4.5,0.2,10.8c0.3,6.3,6.7,9.1,9.4,9.8C43.4,59.5,45.1,59.9,45.1,59.9"/>
		<path class="st16" d="M21,64c1.6-3.4-1.2-8.6,2-12.7c3.2-4.1,10.7-6.1,12.9-7c2.2-0.9,1.4-2.7,1.2,1.3c-0.1,4,1.2,4.3,0.2,7.7
			c-1,3.4-6.5,7.9-8.6,8.1C26.4,61.7,21,64,21,64"/>
	</g>
</g>
<g id="Layer_2">
</g>
</svg>
