<?xml version="1.0" encoding="utf-8"?>
<!-- Generator: Adobe Illustrator 23.1.1, SVG Export Plug-In . SVG Version: 6.00 Build 0)  -->
<svg version="1.1" id="Layer_1" xmlns="http://www.w3.org/2000/svg" xmlns:xlink="http://www.w3.org/1999/xlink" x="0px" y="0px"
	 viewBox="0 0 108 108" style="enable-background:new 0 0 108 108;" xml:space="preserve">
<style type="text/css">
	.st0{fill:none;stroke:#718638;stroke-width:1.0127;stroke-miterlimit:10;}
	.st1{fill:#A6C339;}
	.st2{fill:#85B541;}
	.st3{fill:#91BC3E;}
	.st4{fill:#B0CC37;}
	.st5{fill:#93B93F;}
	.st6{fill:#A6BD3A;}
	.st7{fill:#A5C939;}
	.st8{fill:#72AA42;}
	.st9{fill:#DA474E;}
	.st10{fill:#D83F48;}
	.st11{fill:#E1584F;}
	.st12{fill:#E14945;}
	.st13{fill:#D13849;}
	.st14{fill:#8F183B;}
</style>
<g>
	<path class="st0" d="M71.48,76.95c-0.06-2.42-1.01-6.76-1.68-9.84"/>
	<path class="st0" d="M77.88,73.83c-3.2-1.29-7.29-4.18-9.33-7.3"/>
	<path class="st0" d="M78.99,67.55c-3.63,1.75-6.65,3.78-9.15,0.14"/>
	<path class="st0" d="M64.38,60.63c-3.85-2.98-7.5-6.93-8.91-10.39"/>
	<path class="st0" d="M56.49,63.48c0.44-5.02-0.93-12.71-1.11-14.29"/>
	<path class="st0" d="M63.29,53.94c-2.98,0.93-4.67,2.38-7.6-2.56"/>
	<path class="st1" d="M66.25,81.69c-0.31-1.93-1.29-2.33,1.93-5.74l3.22-3.42c0,0,0.64,0.74,1.39,1.58
		c0.75,0.84,3.92,3.65,2.49,6.93c-1.43,3.28-2.67,5.06-3.15,5.57c-0.49,0.51-1.75,2.57-2.11,3.07"/>
	<path class="st2" d="M88.91,82.67c-2.34-0.98-5.72,1.13-8.56-0.86s-4.47-6.93-5.15-8.36c-0.68-1.42-1.84-0.81,0.84-0.86
		c2.69-0.05,2.84-0.96,5.17-0.4c2.33,0.56,5.56,4.04,5.78,5.48C87.21,79.11,88.91,82.67,88.91,82.67"/>
	<path class="st3" d="M74.9,69.57c0.7,0,1.48,0.57,4.86,0.62c3.38,0.05,6.04-0.31,6.63-2.89c0.59-2.58-0.24-3.09,1.21-4.79l1.45-1.7
		c0,0-2.91-0.09-6.96,0.02c-4.05,0.1-5.95,4.21-6.45,5.94C75.14,68.49,74.9,69.57,74.9,69.57"/>
	<path class="st4" d="M73.07,69.6c0,0-1.56-1.73-4.75-1.74c-3.19-0.02-6.69-1.59-6.69-4.97c0-3.38-1.09-5.24-1.09-5.24
		s-0.07,0.48,2.71,0.26c2.78-0.22,6.73,1.69,7.84,4.45C72.19,65.14,73.07,69.6,73.07,69.6"/>
	<path class="st5" d="M53.88,73.9c0,0,4.11-4.12,5.37-6.91c1.26-2.79,1.61-4.45-0.03-6.43C57.59,58.57,57,56.98,57,56.98
		s-2.32,3.45-3.84,4.26c-1.52,0.8-3.2,3.63-2.38,5.3C51.59,68.22,53.88,73.9,53.88,73.9"/>
	<path class="st6" d="M60.31,54.88c0,0.05,2.46,1.07,5.39,1.43c2.93,0.35,4.51,0.33,5.66-1.13c1.15-1.46,1.93-3,2.75-4.7
		c0.82-1.7,0.92-2.39,1.6-2.55c0.67-0.16-0.85,0.59-4.08-0.21c-3.23-0.8-4.77-1.69-6.12-0.63c-1.34,1.05-1.3,3-2.39,4.56
		C62.03,53.21,60.31,54.88,60.31,54.88"/>
	<path class="st0" d="M29.32,75.29c2.34-0.65,6.3-2.64,9.13-4.04"/>
	<path class="st0" d="M33.92,80.74c0.46-3.41,2.26-8.09,4.79-10.83"/>
	<path class="st0" d="M40.28,80.27c-2.59-3.09-5.29-5.52-2.38-8.84"/>
	<path class="st0" d="M43.4,64.4c1.94-4.46,4.87-8.97,7.89-11.19"/>
	<path class="st0" d="M38.71,57.46c4.97-0.8,12.1-4.02,13.58-4.58"/>
	<path class="st0" d="M49.62,61.71c-1.64-2.66-3.45-3.94,0.62-8"/>
	<path class="st2" d="M23.45,71.39c1.79-0.77,1.94-1.82,6.04,0.46l4.1,2.28c0,0-0.56,0.8-1.19,1.73c-0.63,0.93-2.58,4.7-6.11,4.12
		c-3.53-0.59-5.56-1.34-6.18-1.69c-0.62-0.35-2.92-1.07-3.49-1.29"/>
	<path class="st7" d="M28.06,93.6c0.37-2.51-2.5-5.26-1.26-8.51c1.24-3.25,5.62-6.04,6.84-7.04c1.22-1.01,0.33-1.98,1.04,0.61
		c0.71,2.59,1.63,2.51,1.66,4.91c0.03,2.4-2.55,6.38-3.9,6.95C31.09,91.07,28.06,93.6,28.06,93.6"/>
	<path class="st3" d="M37.32,76.8c0.17,0.68-0.19,1.58,0.59,4.87c0.78,3.29,1.79,5.78,4.43,5.72c2.64-0.06,2.94-0.99,4.94,0l2,0.99
		c0,0-0.63-2.84-1.72-6.75c-1.1-3.9-5.54-4.74-7.34-4.8C38.42,76.77,37.32,76.8,37.32,76.8"/>
	<path class="st4" d="M36.83,75.03c0,0,1.29-1.93,0.52-5.03c-0.77-3.1-0.1-6.88,3.17-7.7c3.27-0.83,4.82-2.35,4.82-2.35
		s-0.48,0.05,0.41,2.69c0.89,2.64,0.01,6.94-2.39,8.69C40.95,73.09,36.83,75.03,36.83,75.03"/>
	<path class="st5" d="M27.97,57.48c0,0,5,2.98,8.01,3.51c3.01,0.54,4.71,0.46,6.23-1.6c1.52-2.07,2.92-3.04,2.92-3.04
		s-3.91-1.4-5.07-2.68c-1.15-1.28-4.3-2.21-5.72-1.01C32.91,53.87,27.97,57.48,27.97,57.48"/>
	<path class="st6" d="M47.99,59.05c-0.05,0.02-0.44,2.65-0.06,5.57c0.38,2.93,0.78,4.46,2.48,5.21c1.7,0.76,3.38,1.14,5.23,1.51
		c1.85,0.38,2.55,0.31,2.86,0.92c0.32,0.61-0.78-0.68-0.8-4.01c-0.01-3.33,0.46-5.04-0.89-6.08c-1.35-1.04-3.23-0.52-5.01-1.2
		C50.02,60.31,47.99,59.05,47.99,59.05"/>
	<path class="st0" d="M36.31,33.98c0.77,2.3,2.95,6.16,4.5,8.91"/>
	<path class="st0" d="M31.1,38.84c3.43,0.29,8.2,1.85,11.06,4.24"/>
	<path class="st0" d="M31.89,45.18c2.96-2.74,5.25-5.56,8.71-2.82"/>
	<path class="st0" d="M47.88,47.5c4.55,1.72,9.21,4.42,11.57,7.32"/>
	<path class="st0" d="M54.58,42.46c1.05,4.93,4.62,11.88,5.26,13.34"/>
	<path class="st0" d="M50.88,53.58c2.57-1.77,3.76-3.65,8.02,0.22"/>
	<path class="st1" d="M39.91,27.92c0.86,1.75,1.92,1.84-0.16,6.05l-2.07,4.21c0,0-0.83-0.52-1.79-1.1s-4.82-2.34-4.42-5.89
		c0.41-3.55,1.06-5.62,1.38-6.25c0.32-0.63,0.92-2.97,1.11-3.55"/>
	<path class="st2" d="M17.96,33.63c2.53,0.25,5.13-2.76,8.44-1.69c3.31,1.07,6.31,5.31,7.38,6.48c1.07,1.16,2,0.23-0.56,1.07
		c-2.55,0.84-2.43,1.75-4.82,1.9c-2.39,0.15-6.5-2.23-7.13-3.54C20.63,36.54,17.96,33.63,17.96,33.63"/>
	<path class="st3" d="M35.2,42.04c-0.67,0.21-1.58-0.11-4.83,0.83c-3.25,0.94-5.69,2.07-5.49,4.71c0.19,2.64,1.14,2.89,0.25,4.93
		l-0.89,2.05c0,0,2.81-0.77,6.65-2.06c3.85-1.29,4.45-5.77,4.42-7.57C35.28,43.14,35.2,42.04,35.2,42.04"/>
	<path class="st4" d="M36.94,41.47c0,0,2,1.19,5.05,0.27c3.06-0.92,6.86-0.45,7.85,2.78c0.99,3.23,2.59,4.69,2.59,4.69
		s-0.08-0.48-2.67,0.54c-2.59,1.02-6.93,0.36-8.8-1.96C39.09,45.49,36.94,41.47,36.94,41.47"/>
	<path class="st5" d="M54.02,31.74c0,0-2.72,5.14-3.11,8.18c-0.39,3.04-0.23,4.73,1.91,6.14s3.18,2.76,3.18,2.76s1.2-3.98,2.42-5.19
		c1.22-1.22,1.99-4.41,0.72-5.77C57.88,36.49,54.02,31.74,54.02,31.74"/>
	<path class="st6" d="M53.46,51.81c-0.02-0.05-2.67-0.31-5.57,0.22c-2.9,0.52-4.41,1-5.08,2.74c-0.67,1.74-0.96,3.43-1.25,5.3
		c-0.28,1.86-0.18,2.56-0.78,2.91c-0.6,0.35,0.64-0.82,3.96-1c3.32-0.18,5.06,0.21,6.03-1.19c0.97-1.4,0.36-3.25,0.94-5.06
		C52.3,53.9,53.46,51.81,53.46,51.81"/>
	<path class="st0" d="M79.1,39.57c-2.39,0.4-6.55,1.96-9.5,3.06"/>
	<path class="st0" d="M75.11,33.67c-0.82,3.35-3.1,7.81-5.91,10.27"/>
	<path class="st0" d="M68.73,33.47c2.25,3.35,4.68,6.05,1.43,9.04"/>
	<path class="st0" d="M63.95,48.91c-2.4,4.23-5.8,8.41-9.03,10.3"/>
	<path class="st0" d="M67.89,56.31c-5.03,0.27-12.45,2.71-13.99,3.12"/>
	<path class="st0" d="M57.48,50.93c1.35,2.82,3.02,4.28-1.46,7.88"/>
	<path class="st1" d="M84.53,44.07c-1.86,0.58-2.12,1.61-5.96-1.1l-3.84-2.7c0,0,0.64-0.74,1.37-1.6c0.72-0.86,3.06-4.4,6.51-3.45
		c3.45,0.96,5.39,1.92,5.97,2.33c0.58,0.41,2.79,1.37,3.34,1.65"/>
	<path class="st7" d="M82.3,21.5c-0.64,2.46,1.93,5.5,0.36,8.6c-1.57,3.1-6.23,5.41-7.54,6.28c-1.31,0.87-0.54,1.94-0.97-0.71
		c-0.43-2.65-1.35-2.67-1.13-5.06c0.22-2.39,3.21-6.08,4.61-6.5C79.01,23.69,82.3,21.5,82.3,21.5"/>
	<path class="st2" d="M71.31,37.23c-0.1-0.69,0.36-1.55-0.07-4.9c-0.42-3.35-1.16-5.94-3.8-6.16c-2.64-0.22-3.03,0.68-4.91-0.52
		l-1.88-1.2c0,0,0.32,2.89,1,6.89c0.68,4,5.01,5.3,6.79,5.55C70.21,37.13,71.31,37.23,71.31,37.23"/>
	<path class="st4" d="M71.61,39.03c0,0-1.49,1.79-1.05,4.95c0.44,3.16-0.63,6.85-3.97,7.33c-3.34,0.48-5.04,1.82-5.04,1.82
		s0.48,0-0.12-2.72c-0.61-2.72,0.72-6.9,3.3-8.39C67.31,40.53,71.61,39.03,71.61,39.03"/>
	<path class="st5" d="M78.57,57.42c0,0-4.66-3.49-7.6-4.34c-2.94-0.85-4.63-0.96-6.37,0.94c-1.73,1.9-3.22,2.71-3.22,2.71
		s3.74,1.81,4.76,3.2c1.01,1.39,4.04,2.66,5.59,1.61C73.27,60.49,78.57,57.42,78.57,57.42"/>
	<path class="st6" d="M58.83,53.74c0.05-0.01,0.72-2.59,0.65-5.54c-0.07-2.95-0.31-4.51-1.92-5.45c-1.61-0.93-3.24-1.49-5.04-2.05
		c-1.8-0.57-2.5-0.57-2.75-1.22c-0.25-0.65,0.71,0.76,0.37,4.07c-0.34,3.31-0.99,4.97,0.24,6.14c1.23,1.18,3.16,0.86,4.86,1.72
		C56.94,52.28,58.83,53.74,58.83,53.74"/>
	<path class="st8" d="M55.44,66.27c-0.06-2.42-1.01-6.76-1.68-9.84"/>
	<path class="st8" d="M61.85,63.15c-3.2-1.29-7.29-4.18-9.33-7.3"/>
	<path class="st8" d="M62.96,56.86c-3.63,1.75-6.65,3.78-9.15,0.14"/>
	<path class="st8" d="M48.35,49.95c-3.85-2.98-7.5-6.93-8.91-10.39"/>
	<path class="st8" d="M40.46,52.8c0.44-5.02-0.93-12.71-1.11-14.29"/>
	<path class="st8" d="M47.26,43.26c-2.98,0.93-4.67,2.38-7.6-2.56"/>
	<path class="st8" d="M50.22,71c-0.31-1.93-1.29-2.33,1.93-5.74l3.22-3.42c0,0,0.64,0.74,1.39,1.58c0.75,0.84,3.93,3.65,2.49,6.93
		c-1.43,3.28-2.67,5.06-3.15,5.57c-0.49,0.51-1.75,2.57-2.11,3.07"/>
	<path class="st8" d="M72.88,71.98c-2.34-0.98-5.72,1.13-8.56-0.86c-2.85-1.99-4.47-6.93-5.15-8.36c-0.68-1.42-1.84-0.81,0.84-0.86
		c2.69-0.05,2.84-0.96,5.17-0.4c2.33,0.56,5.56,4.04,5.78,5.48C71.18,68.42,72.88,71.98,72.88,71.98"/>
	<path class="st8" d="M58.87,58.88c0.7,0,1.48,0.57,4.86,0.62c3.38,0.05,6.04-0.31,6.63-2.89c0.59-2.58-0.24-3.09,1.21-4.79
		l1.45-1.7c0,0-2.91-0.09-6.96,0.02c-4.05,0.1-5.95,4.21-6.45,5.94C59.11,57.81,58.87,58.88,58.87,58.88"/>
	<path class="st8" d="M57.04,58.92c0,0-1.56-1.73-4.75-1.74c-3.19-0.02-6.69-1.59-6.69-4.97c0-3.38-1.09-5.24-1.09-5.24
		s-0.07,0.48,2.71,0.26c2.78-0.22,6.73,1.69,7.84,4.45C56.16,54.45,57.04,58.92,57.04,58.92"/>
	<path class="st8" d="M37.85,63.21c0,0,4.11-4.12,5.37-6.91c1.26-2.79,1.61-4.45-0.03-6.43c-1.63-1.98-2.23-3.57-2.23-3.57
		s-2.32,3.45-3.84,4.26c-1.52,0.8-3.2,3.63-2.38,5.3C35.56,57.53,37.85,63.21,37.85,63.21"/>
	<path class="st8" d="M44.28,44.19c0,0.05,2.46,1.07,5.39,1.43c2.93,0.35,4.51,0.33,5.66-1.13c1.15-1.46,1.93-3,2.75-4.7
		c0.82-1.7,0.92-2.39,1.6-2.55c0.67-0.16-0.85,0.59-4.08-0.21c-3.23-0.8-4.77-1.69-6.12-0.63c-1.34,1.05-1.3,3-2.39,4.56
		C46,42.53,44.28,44.19,44.28,44.19"/>
	<path class="st9" d="M36.52,67.83c-0.06-0.23-6.04-6.85-6.04-6.85s-0.35-4.78,2.71-6.22c3.05-1.44,4.03-2.36,4.2-0.92
		c0.17,1.44,1.04,4.61,1.09,4.84c0.06,0.23,1.9-2.99,2.42-3.45c0.52-0.46,1.67-0.92,2.59-0.4c0.92,0.52,2.24,2.19,2.42,3.17
		c0.17,0.98,0.35,4.72-2.24,6.16c-2.59,1.44-4.32,3.03-4.32,3.03l-2.01,1.11L36.52,67.83z"/>
	<path class="st10" d="M38.82,68c0,0,7.77,6.1,8.58,6.79c0.81,0.69,2.76,2.42,1.73,4.43c-1.04,2.02-2.99,5.58-4.43,5.87
		c-1.44,0.29-0.58,0.17-2.25,0.75c-1.67,0.58-2.42,0.81-3.63,0c-1.21-0.81-2.36-2.82-2.99-5.18c-0.63-2.36,0.35-8.4,0.35-8.4
		s1.27-2.01,1.38-2.24C37.67,69.79,38.82,68,38.82,68"/>
	<path class="st11" d="M35.61,68.81c0,0-8.13,7.2-8.48,7.83c-0.35,0.63-0.63,3.91,0.29,5.3c0.92,1.38,2.05,3.17,3.04,3.34
		c0.99,0.17,1.74,0,2.95,0c1.21,0,2.35,0.5,3.4,0.08c1.05-0.42,2.01-0.94,3.05-2.09s2.65-2.47,2.3-4.43
		c-0.35-1.96-3.4-6.22-3.4-6.22l-0.81-2.13l-0.46-1.67H35.61z"/>
	<path class="st12" d="M37.79,68.29c0,0,1.5,1.79,2.76,2.71c1.27,0.92,2.59,2.88,3.91,4.03c1.32,1.15,2.59,1.61,3.74,1.09
		c1.15-0.52,5.47-3.81,5.47-3.81s1.84-2.35,0.98-3.5c-0.86-1.15-1.79-2.01-1.79-2.01s-2.19-3.97-2.7-4.72
		c-0.52-0.75-1.55-1.94-2.88-2.01c-1.33-0.07-1.44-0.55-2.76,0.65c-1.32,1.2-2.3,2.23-3.17,3.27c-0.86,1.04-2.22,2.56-2.71,3.2
		C38.17,67.83,37.79,68.29,37.79,68.29"/>
	<path class="st13" d="M36.82,68c0,0-2.78-4.09-3.58-4.95c-0.81-0.86-2.53-2.35-2.53-2.35s0.11-0.9-2.36-0.8
		c-2.48,0.1-3.97,0.44-4.49,1.94c-0.52,1.5-1.84,2.47-2.42,3.68c-0.58,1.21,0.23,4.78,0.81,6.39c0.58,1.61,0.4,3.34,2.65,4.03
		c2.24,0.69,3.11,1.15,4.43,0c1.32-1.15,2.88-3.34,3.63-3.91c0.75-0.57,1.99-1.67,2.66-2.07c0.67-0.4,1.21-1.15,1.21-1.15V68z"/>
	<path class="st13" d="M35.67,66.8c-0.52,0.23-1.56,1.49-1.56,1.49s-0.09,1.07,0,1.33c0.09,0.26-0.17,0.29,0.56,1.01
		c0.73,0.72,1.39,1.49,2.14,1.32c0.75-0.17,1.2,0.27,1.41,0.02c0.21-0.24,0.31-0.45,1.1-0.89c0.79-0.44,1.44,0.13,1.31-1.66
		c-0.13-1.79,0.37-2.17-0.47-2.63c-0.84-0.45-0.61-0.89-1.38-1.15c-0.78-0.26-1.41,0-1.41,0l-0.92,0.78L35.67,66.8z"/>
	<path class="st14" d="M39.32,68.81c0,1.01-0.82,1.82-1.83,1.82c-1.01,0-1.82-0.82-1.82-1.82c0-1.01,0.82-1.83,1.82-1.83
		C38.51,66.98,39.32,67.8,39.32,68.81"/>
	<path class="st9" d="M67.22,70.33c-0.17-0.11-7.6-0.85-7.6-0.85s-2.9-2.77-1.82-5.38c1.08-2.61,1.17-3.73,2.09-2.94
		c0.92,0.8,3.23,2.28,3.4,2.39c0.17,0.11-0.5-2.93-0.44-3.5c0.06-0.58,0.52-1.51,1.38-1.71c0.86-0.2,2.62,0.1,3.28,0.61
		c0.66,0.51,2.87,2.74,2.07,5.09c-0.8,2.35-0.97,4.31-0.97,4.31l-0.62,1.82L67.22,70.33z"/>
	<path class="st10" d="M68.75,69.14c0,0,8.26-0.59,9.14-0.61c0.89-0.02,3.08-0.05,3.57,1.78c0.49,1.83,1.28,5.15,0.55,6.14
		c-0.73,0.99-0.26,0.43-0.97,1.73c-0.71,1.3-1.05,1.86-2.25,2.04c-1.2,0.18-3.05-0.42-4.77-1.53c-1.72-1.11-4.51-5.41-4.51-5.41
		s-0.35-1.96-0.4-2.17C69.04,70.9,68.75,69.14,68.75,69.14"/>
	<path class="st11" d="M67.21,71.45c0,0-1,9.04-0.86,9.63c0.14,0.59,1.81,2.78,3.16,3.12c1.35,0.34,3.05,0.81,3.76,0.36
		c0.71-0.45,1.08-0.98,1.83-1.66c0.75-0.68,1.74-1.02,2.15-1.86c0.41-0.85,0.72-1.72,0.72-3.02c0-1.3,0.25-3.03-1.06-4.05
		c-1.32-1.02-5.61-1.95-5.61-1.95l-1.7-0.87l-1.23-0.78L67.21,71.45z"/>
	<path class="st12" d="M68.27,69.9c0,0,1.93,0.27,3.24,0.12c1.3-0.14,3.23,0.33,4.7,0.3c1.47-0.03,2.51-0.46,2.94-1.43
		c0.42-0.97,1.25-5.44,1.25-5.44s-0.18-2.5-1.36-2.72c-1.18-0.23-2.24-0.25-2.24-0.25s-3.59-1.23-4.33-1.41
		c-0.74-0.17-2.05-0.34-2.92,0.37c-0.87,0.7-1.2,0.47-1.35,1.96c-0.15,1.49-0.17,2.68-0.13,3.81c0.05,1.13,0.06,2.84,0.12,3.51
		C68.24,69.4,68.27,69.9,68.27,69.9"/>
	<path class="st13" d="M67.51,70.27c0,0-4.02-0.97-5.01-1.06c-0.99-0.08-2.89-0.03-2.89-0.03s-0.43-0.62-1.92,0.83
		c-1.48,1.45-2.22,2.51-1.7,3.73c0.52,1.22,0.25,2.57,0.57,3.65c0.32,1.07,2.83,2.84,4.09,3.51c1.26,0.68,2.13,1.85,3.91,1.01
		c1.78-0.83,2.58-1.03,2.75-2.49c0.17-1.46-0.09-3.69,0.05-4.47c0.14-0.78,0.3-2.16,0.49-2.79c0.19-0.63,0.1-1.39,0.1-1.39
		L67.51,70.27z"/>
	<path class="st13" d="M66.12,70.17c-0.19,0.44-0.13,1.8-0.13,1.8s0.55,0.72,0.75,0.83c0.2,0.11,0.06,0.28,0.92,0.31
		c0.86,0.03,1.7,0.14,2.07-0.38c0.37-0.53,0.89-0.51,0.89-0.78c-0.01-0.27-0.06-0.45,0.18-1.17c0.24-0.72,0.97-0.73-0.12-1.77
		c-1.09-1.04-0.99-1.55-1.77-1.36c-0.78,0.19-0.88-0.21-1.5,0.06c-0.63,0.28-0.87,0.79-0.87,0.79l-0.14,1L66.12,70.17z"/>
	<path class="st14" d="M69.51,69.36c0.57,0.63,0.52,1.59-0.11,2.16c-0.63,0.57-1.59,0.52-2.16-0.11c-0.57-0.63-0.52-1.59,0.11-2.16
		C67.98,68.69,68.95,68.73,69.51,69.36"/>
	<path class="st9" d="M56.93,39.52c0.21,0.1,9.13-0.25,9.13-0.25s3.89,2.8,3.04,6.06c-0.85,3.27-0.77,4.61-1.99,3.82
		c-1.22-0.79-4.2-2.16-4.41-2.26c-0.21-0.1,1.08,3.38,1.1,4.07c0.02,0.69-0.36,1.87-1.35,2.25c-0.99,0.38-3.12,0.32-3.98-0.17
		c-0.86-0.49-3.84-2.76-3.29-5.67c0.56-2.91,0.44-5.26,0.44-5.26l0.44-2.26L56.93,39.52z"/>
	<path class="st10" d="M55.32,41.18c0,0-9.67,2.05-10.71,2.23c-1.05,0.18-3.63,0.57-4.51-1.52c-0.88-2.09-2.37-5.88-1.66-7.17
		c0.7-1.29,0.24-0.55,0.87-2.2c0.63-1.65,0.93-2.37,2.32-2.78c1.39-0.41,3.68,0,5.9,1.02c2.22,1.03,6.23,5.65,6.23,5.65
		s0.73,2.26,0.84,2.5C54.69,39.15,55.32,41.18,55.32,41.18"/>
	<path class="st11" d="M56.76,38.2c0,0-0.31-10.86-0.57-11.53c-0.26-0.67-2.6-2.99-4.25-3.17c-1.65-0.18-3.74-0.46-4.51,0.19
		c-0.77,0.65-1.11,1.33-1.89,2.26c-0.77,0.93-1.89,1.49-2.24,2.56c-0.35,1.07-0.57,2.15-0.35,3.68c0.22,1.53,0.2,3.62,1.93,4.61
		c1.72,0.99,6.95,1.38,6.95,1.38l2.15,0.75l1.58,0.72L56.76,38.2z"/>
	<path class="st12" d="M55.77,40.2c0,0-2.33,0-3.85,0.39c-1.52,0.38-3.87,0.14-5.6,0.42c-1.73,0.28-2.9,0.95-3.24,2.17
		c-0.34,1.22-0.58,6.64-0.58,6.64s0.62,2.92,2.06,3c1.44,0.08,2.69-0.08,2.69-0.08s4.45,0.87,5.36,0.95
		c0.91,0.08,2.48,0.06,3.39-0.92c0.91-0.98,1.34-0.75,1.28-2.53c-0.07-1.78-0.24-3.2-0.48-4.53c-0.24-1.33-0.53-3.34-0.72-4.13
		C55.88,40.79,55.77,40.2,55.77,40.2"/>
	<path class="st13" d="M56.61,39.64c0,0,4.92,0.49,6.1,0.42c1.18-0.06,3.43-0.44,3.43-0.44s0.62,0.67,2.13-1.3
		c1.51-1.96,2.21-3.33,1.39-4.69c-0.82-1.36-0.72-3-1.28-4.22c-0.56-1.22-3.81-2.89-5.42-3.48c-1.61-0.59-2.82-1.83-4.79-0.55
		c-1.97,1.28-2.88,1.65-2.84,3.4c0.03,1.75,0.72,4.35,0.68,5.29c-0.04,0.94,0,2.6-0.12,3.37c-0.12,0.78,0.11,1.66,0.11,1.66
		L56.61,39.64z"/>
	<path class="st13" d="M58.26,39.53c0.16-0.55-0.15-2.15-0.15-2.15s-0.77-0.76-1.02-0.85c-0.25-0.1-0.12-0.32-1.14-0.22
		c-1.02,0.1-2.04,0.11-2.39,0.8c-0.35,0.69-0.97,0.75-0.92,1.06c0.05,0.32,0.15,0.53-0.02,1.41c-0.17,0.89-1.02,1.02,0.44,2.07
		c1.46,1.05,1.43,1.67,2.32,1.32c0.89-0.35,1.07,0.11,1.77-0.32c0.7-0.43,0.9-1.08,0.9-1.08l0-1.21L58.26,39.53z"/>
	<path class="st14" d="M54.38,41.04c-0.77-0.65-0.88-1.8-0.23-2.57c0.65-0.77,1.8-0.88,2.57-0.23c0.77,0.65,0.88,1.8,0.23,2.57
		C56.31,41.59,55.16,41.69,54.38,41.04"/>
</g>
</svg>
