<?xml version="1.0" encoding="utf-8"?>
<!-- Generator: Adobe Illustrator 23.1.1, SVG Export Plug-In . SVG Version: 6.00 Build 0)  -->
<svg version="1.1" id="Layer_1" xmlns="http://www.w3.org/2000/svg" xmlns:xlink="http://www.w3.org/1999/xlink" x="0px" y="0px"
	 viewBox="0 0 108 108" style="enable-background:new 0 0 108 108;" xml:space="preserve">
<style type="text/css">
	.st0{fill:#529643;}
	.st1{fill:#568A41;}
	.st2{fill:#498B40;}
	.st3{fill:#4E9141;}
	.st4{fill:#578E4D;}
	.st5{fill:#699B40;}
	.st6{fill:#329345;}
	.st7{fill:#6E9C40;}
	.st8{fill:#578A41;}
	.st9{fill:#759D3F;}
	.st10{fill:#46873F;}
	.st11{fill:#4E8E40;}
	.st12{fill:#A193C7;}
	.st13{fill:#694A9E;}
	.st14{fill:#BFC2E2;}
	.st15{fill:#C7C4E2;}
	.st16{fill:#876FB2;}
	.st17{fill:#7B66AD;}
	.st18{fill:#6B3D97;}
	.st19{fill:#735FA9;}
	.st20{fill:#75489D;}
	.st21{fill:#D2CAE5;}
	.st22{clip-path:url(#SVGID_2_);fill:#D2DDF1;}
	.st23{clip-path:url(#SVGID_4_);fill:#D2DDF1;}
	.st24{clip-path:url(#SVGID_6_);fill:#D2DDF1;}
	.st25{clip-path:url(#SVGID_8_);fill:#D2DDF1;}
	.st26{clip-path:url(#SVGID_10_);fill:#D2DDF1;}
	.st27{clip-path:url(#SVGID_12_);fill:#D2DDF1;}
	.st28{clip-path:url(#SVGID_14_);fill:#D2DDF1;}
	.st29{clip-path:url(#SVGID_16_);fill:#D2DDF1;}
	.st30{clip-path:url(#SVGID_18_);fill:#D2DDF1;}
</style>
<g>
	<path class="st0" d="M45.07,62.66c-0.4-1.21-0.63-2.42-0.83-3.64c-0.21-1.22-0.34-2.44-0.41-3.66c-0.08-1.22-0.08-2.44-0.06-3.65
		c0-1.22,0.04-2.43,0.09-3.64c0.1-2.42,0.3-4.83,0.62-7.23c0.35-2.39,0.82-4.75,1.6-7.07l0.6,0.08c0.59,2.49,0.88,4.93,1.03,7.35
		c0.13,2.41,0.14,4.81,0.05,7.2c-0.05,1.19-0.1,2.38-0.2,3.57c-0.08,1.19-0.17,2.38-0.35,3.56c-0.17,1.19-0.4,2.37-0.7,3.55
		c-0.29,1.19-0.62,2.38-1.11,3.58H45.07z"/>
	<path class="st0" d="M45.07,60.95c-0.9-2.28-1.62-4.61-2.29-6.95c-0.68-2.34-1.25-4.7-1.83-7.07c-0.57-2.36-1.12-4.74-1.63-7.12
		c-0.5-2.38-1-4.77-1.4-7.18l0.33-0.08c0.79,2.31,1.49,4.64,2.18,6.98c0.67,2.34,1.32,4.69,1.94,7.04c0.61,2.36,1.23,4.71,1.75,7.09
		c0.52,2.38,0.99,4.77,1.29,7.2L45.07,60.95z"/>
	<path class="st0" d="M45.09,60.99c-1.61-1.9-2.96-3.93-4.24-6c-1.29-2.07-2.43-4.22-3.56-6.37c-1.13-2.16-2.21-4.34-3.23-6.55
		c-1.01-2.22-2-4.45-2.84-6.76l0.3-0.16c1.47,1.97,2.79,4.02,4.1,6.08c1.29,2.07,2.52,4.17,3.71,6.29c1.18,2.13,2.35,4.26,3.38,6.47
		c1.03,2.21,1.99,4.46,2.7,6.84L45.09,60.99z"/>
	<path class="st1" d="M45.96,62.38c-1.47-2.53-3.13-4.87-5.03-7.01c-0.24-0.27-0.47-0.54-0.72-0.8c-0.25-0.25-0.5-0.51-0.75-0.77
		c-0.25-0.25-0.48-0.52-0.75-0.76l-0.79-0.73c-0.51-0.5-1.07-0.95-1.61-1.41c-0.54-0.48-1.12-0.88-1.69-1.32
		c-2.31-1.7-4.8-3.15-7.41-4.36c-2.61-1.22-5.35-2.19-8.16-2.98l0.07-0.33c2.92,0.39,5.79,1.15,8.56,2.22
		c2.76,1.08,5.41,2.49,7.84,4.21c0.6,0.44,1.22,0.86,1.78,1.35c0.57,0.48,1.17,0.93,1.7,1.46l0.81,0.77
		c0.28,0.25,0.51,0.54,0.77,0.81c0.26,0.27,0.51,0.55,0.76,0.83c0.24,0.28,0.47,0.58,0.7,0.87c1.85,2.34,3.37,4.97,4.24,7.8
		L45.96,62.38z"/>
	<path class="st0" d="M45.14,61.05c-2.24-1.03-4.35-2.24-6.45-3.47c-2.09-1.24-4.14-2.57-6.16-3.92c-1.01-0.67-2.01-1.36-3.01-2.06
		c-1.01-0.68-1.99-1.4-2.98-2.11c-1.97-1.43-3.93-2.89-5.81-4.45l0.19-0.28c2.18,1.11,4.3,2.32,6.4,3.55
		c1.05,0.63,2.09,1.24,3.12,1.89c1.04,0.64,2.07,1.28,3.09,1.94c2.05,1.31,4.08,2.66,6.05,4.08c1.97,1.43,3.92,2.89,5.76,4.53
		L45.14,61.05z"/>
	<path class="st2" d="M50.95,62.69c-2.24-1.03-4.35-2.24-6.45-3.47c-2.09-1.24-4.14-2.57-6.16-3.92c-1.01-0.68-2.01-1.37-3.01-2.06
		c-1.01-0.68-1.99-1.4-2.98-2.11c-1.97-1.43-3.93-2.89-5.81-4.45l0.19-0.28c2.18,1.11,4.3,2.32,6.4,3.55
		c1.05,0.62,2.09,1.24,3.12,1.89c1.04,0.64,2.07,1.28,3.09,1.94c2.05,1.31,4.08,2.66,6.05,4.08c1.97,1.43,3.92,2.89,5.76,4.53
		L50.95,62.69z"/>
	<path class="st3" d="M47.12,63.3c-2.15-1.68-4.62-2.93-7.16-3.84l-0.96-0.33c-0.16-0.05-0.32-0.11-0.48-0.16
		c-0.16-0.05-0.32-0.09-0.52-0.07c-0.38,0.03-0.83,0.25-1.16,0.19c-0.17-0.02-0.31-0.12-0.46-0.17l-0.45-0.19
		c-0.6-0.26-1.21-0.53-1.82-0.75c-0.62-0.24-1.23-0.48-1.86-0.68c-0.63-0.22-1.25-0.44-1.89-0.62c-0.64-0.19-1.27-0.38-1.92-0.53
		c-0.65-0.16-1.29-0.35-1.95-0.47c-0.65-0.13-1.31-0.29-1.97-0.39c-2.64-0.49-5.34-0.76-8.09-0.92l-0.03-0.34
		c2.71-0.59,5.51-0.83,8.32-0.79c0.7-0.01,1.4,0.06,2.11,0.09c0.7,0.03,1.4,0.12,2.11,0.2c0.7,0.07,1.4,0.2,2.1,0.32
		c0.7,0.11,1.39,0.27,2.09,0.42c0.7,0.15,1.38,0.34,2.06,0.54c0.69,0.18,1.36,0.42,2.03,0.65l0.51,0.17
		c0.17,0.06,0.34,0.1,0.49,0.22c0.3,0.22,0.47,0.71,0.72,1.02c0.12,0.16,0.27,0.25,0.42,0.34c0.15,0.09,0.3,0.19,0.45,0.29
		l0.88,0.58c2.34,1.56,4.52,3.25,6.67,4.96L47.12,63.3z"/>
	<path class="st0" d="M45.22,61.08c-2.44,0.03-4.88-0.05-7.31-0.18c-1.22-0.05-2.43-0.15-3.64-0.22l-3.64-0.29
		c-2.42-0.22-4.85-0.45-7.26-0.74c-2.42-0.29-4.83-0.61-7.24-1.04l0.03-0.34c2.44-0.02,4.88,0.07,7.31,0.19
		c2.43,0.12,4.86,0.3,7.28,0.49l3.63,0.33c1.21,0.13,2.42,0.25,3.63,0.4c2.42,0.28,4.83,0.61,7.24,1.05L45.22,61.08z"/>
	<path class="st0" d="M45.26,61.08c-2.33,0.8-4.7,1.42-7.07,1.98c-2.37,0.56-4.76,1.03-7.16,1.44c-2.4,0.42-4.81,0.77-7.23,1.01
		c-2.43,0.23-4.87,0.4-7.35,0.31l-0.06-0.33c2.32-0.87,4.68-1.5,7.06-2.06c2.38-0.55,4.77-0.99,7.17-1.37
		c2.4-0.38,4.82-0.69,7.24-0.93c2.43-0.23,4.86-0.4,7.33-0.39L45.26,61.08z"/>
	<path class="st0" d="M45.3,61.06c-2.14,1.19-4.32,2.27-6.51,3.33c-2.19,1.06-4.41,2.06-6.64,3.04c-1.11,0.5-2.24,0.96-3.35,1.44
		c-1.13,0.46-2.25,0.93-3.38,1.37c-2.26,0.89-4.55,1.75-6.88,2.48l-0.14-0.31c2.13-1.21,4.31-2.3,6.5-3.35
		c1.1-0.53,2.2-1.03,3.31-1.54c1.11-0.49,2.22-1,3.34-1.48c2.24-0.96,4.48-1.9,6.75-2.79c2.27-0.89,4.55-1.75,6.87-2.51L45.3,61.06z
		"/>
	<path class="st4" d="M51.31,62.13c-2.82,0.68-5.58,1.45-8.25,2.42c-2.67,0.98-5.25,2.14-7.71,3.52c-2.46,1.38-4.79,2.98-6.98,4.77
		c-2.18,1.81-4.19,3.82-6.08,6.03l-0.29-0.19c1.3-2.64,3.12-5.02,5.23-7.09c2.11-2.09,4.52-3.87,7.11-5.31
		c2.59-1.44,5.36-2.57,8.22-3.32c2.85-0.76,5.79-1.18,8.71-1.17L51.31,62.13z"/>
	<path class="st5" d="M45.38,61.01c-1.29,2.08-2.67,4.09-4.12,6.07c-0.72,1-1.47,1.97-2.21,2.95c-0.76,0.97-1.53,1.93-2.3,2.9
		c-1.57,1.91-3.17,3.81-4.85,5.65c-1.67,1.85-3.4,3.67-5.23,5.42c-0.09-0.07-0.19-0.15-0.28-0.22c1.53-1.98,3.1-3.92,4.66-5.85
		c1.56-1.93,3.13-3.85,4.69-5.77c0.79-0.95,1.56-1.91,2.33-2.87c0.79-0.95,1.55-1.91,2.34-2.85c1.56-1.9,3.11-3.79,4.7-5.63
		C45.19,60.88,45.29,60.95,45.38,61.01"/>
	<path class="st0" d="M47.71,54.45c-1.29,2.08-2.67,4.09-4.12,6.07c-0.72,0.99-1.47,1.97-2.21,2.95c-0.76,0.97-1.53,1.94-2.3,2.9
		c-1.57,1.91-3.17,3.81-4.85,5.65c-1.67,1.85-3.4,3.67-5.23,5.42c-0.09-0.07-0.19-0.15-0.28-0.22c1.53-1.98,3.1-3.92,4.66-5.85
		c1.56-1.93,3.13-3.85,4.69-5.77c0.79-0.95,1.56-1.91,2.33-2.87c0.79-0.95,1.55-1.91,2.34-2.85c1.56-1.9,3.11-3.79,4.7-5.63
		C47.53,54.32,47.62,54.39,47.71,54.45"/>
	<path class="st0" d="M45.39,60.98c-0.7,2.35-1.53,4.64-2.42,6.91c-0.89,2.26-1.83,4.51-2.83,6.73c-0.5,1.11-1,2.22-1.53,3.32
		c-0.52,1.1-1.04,2.2-1.59,3.29c-1.08,2.18-2.2,4.35-3.45,6.46l-0.31-0.14c0.73-2.34,1.58-4.62,2.46-6.89
		c0.44-1.14,0.9-2.26,1.37-3.39c0.46-1.13,0.94-2.25,1.43-3.36c0.97-2.23,2-4.44,3.07-6.62c1.08-2.18,2.21-4.34,3.49-6.44
		L45.39,60.98z"/>
	<path class="st0" d="M53.88,42.73c-0.7,2.35-1.53,4.64-2.42,6.91c-0.89,2.26-1.83,4.51-2.83,6.73c-0.5,1.11-1,2.22-1.53,3.32
		c-0.52,1.1-1.04,2.2-1.59,3.29c-1.08,2.18-2.2,4.35-3.45,6.46l-0.31-0.14c0.73-2.34,1.58-4.62,2.46-6.89
		c0.44-1.14,0.9-2.26,1.37-3.39c0.46-1.13,0.94-2.25,1.43-3.36c0.97-2.23,2-4.44,3.07-6.62c1.08-2.18,2.21-4.34,3.49-6.44
		L53.88,42.73z"/>
	<path class="st6" d="M45.88,59.71c0.15,1.25,0.17,2.48,0.15,3.71c-0.03,1.22-0.12,2.44-0.27,3.65c-0.14,1.21-0.36,2.41-0.57,3.62
		c-0.22,1.2-0.45,2.4-0.71,3.6c-0.51,2.4-1.12,4.78-1.81,7.15c-0.7,2.37-1.5,4.73-2.49,7.05c-0.15-0.02-0.3-0.05-0.45-0.07
		c0.24-2.44,0.62-4.86,1.01-7.27c0.41-2.41,0.83-4.82,1.28-7.22c0.22-1.2,0.45-2.4,0.68-3.6c0.23-1.2,0.44-2.4,0.71-3.59
		c0.27-1.19,0.57-2.38,0.91-3.56c0.35-1.18,0.73-2.35,1.22-3.51C45.65,59.68,45.76,59.69,45.88,59.71"/>
	<path class="st1" d="M45.41,60.89c0.39,1.19,0.67,2.39,0.9,3.59c0.23,1.2,0.4,2.41,0.54,3.62c0.14,1.21,0.22,2.42,0.31,3.64
		c0.09,1.21,0.17,2.43,0.24,3.64c0.15,2.43,0.24,4.86,0.31,7.3c0.06,2.44,0.08,4.87,0,7.32l-0.34,0.03
		c-0.47-2.4-0.83-4.82-1.15-7.23c-0.32-2.41-0.61-4.83-0.84-7.26c-0.12-1.21-0.23-2.42-0.34-3.63c-0.1-1.21-0.21-2.42-0.26-3.64
		c-0.05-1.22-0.07-2.44-0.03-3.66c0.04-1.22,0.12-2.45,0.32-3.69L45.41,60.89z"/>
	<path class="st0" d="M45.4,60.86c1,2.24,1.87,4.52,2.71,6.82c0.84,2.3,1.63,4.61,2.48,6.92c0.41,1.16,0.83,2.31,1.26,3.46
		c0.41,1.16,0.84,2.31,1.27,3.47c0.84,2.31,1.7,4.63,2.52,6.96c-0.13,0.04-0.25,0.08-0.38,0.12c-1.17-2.22-2.22-4.47-3.22-6.74
		c-0.49-1.14-0.97-2.28-1.44-3.42c-0.46-1.15-0.91-2.29-1.35-3.44c-0.86-2.3-1.69-4.61-2.42-6.94c-0.72-2.34-1.34-4.7-1.76-7.11
		C45.18,60.93,45.29,60.9,45.4,60.86"/>
	<path class="st7" d="M45.38,60.82c0.52,0.39,1.01,0.81,1.46,1.25c0.46,0.43,0.9,0.88,1.33,1.33c0.85,0.91,1.64,1.86,2.4,2.83
		c1.51,1.95,2.81,4.02,4.15,6.09c1.32,2.08,2.62,4.18,3.85,6.34c1.22,2.16,2.43,4.34,3.44,6.66c-0.1,0.07-0.2,0.13-0.31,0.19
		c-2.02-1.68-3.77-3.52-5.45-5.4c-1.66-1.89-3.2-3.85-4.65-5.86c-1.44-2.02-2.84-4.05-3.97-6.22c-0.57-1.09-1.08-2.21-1.52-3.37
		c-0.22-0.58-0.42-1.17-0.59-1.78c-0.18-0.6-0.33-1.22-0.43-1.87C45.18,60.94,45.28,60.88,45.38,60.82"/>
	<path class="st0" d="M38.53,61.92c0.74,0.03,1.47,0.08,2.21,0.14c0.74,0.07,1.46,0.2,2.2,0.33c0.74,0.11,1.45,0.3,2.17,0.48
		c0.36,0.09,0.72,0.17,1.08,0.28l1.06,0.34c2.83,0.93,5.53,2.27,8.02,3.91c2.49,1.64,4.78,3.6,6.75,5.83
		c1.96,2.24,3.62,4.75,4.75,7.47l-0.3,0.16c-1.62-2.42-3.46-4.63-5.53-6.6c-2.05-1.98-4.31-3.73-6.72-5.24
		c-2.41-1.52-4.96-2.77-7.59-3.88l-0.99-0.42c-0.33-0.14-0.67-0.25-1-0.38c-0.67-0.24-1.34-0.53-2.02-0.74
		c-0.69-0.21-1.36-0.49-2.06-0.69c-0.69-0.21-1.39-0.43-2.08-0.67L38.53,61.92z"/>
	<path class="st8" d="M45.32,60.76c1.16,0.42,2.28,0.9,3.4,1.38c1.11,0.5,2.23,1,3.32,1.54c2.19,1.06,4.34,2.2,6.47,3.39
		c2.12,1.18,4.23,2.4,6.31,3.68c2.07,1.28,4.13,2.59,6.12,4.03l-0.16,0.3c-2.28-0.9-4.5-1.92-6.69-2.98
		c-2.2-1.05-4.36-2.18-6.5-3.33c-2.14-1.15-4.26-2.35-6.34-3.63c-1.04-0.63-2.06-1.3-3.08-1.97c-1.01-0.68-2.03-1.37-3-2.12
		L45.32,60.76z"/>
	<path class="st0" d="M41.49,59.8c1.23-0.09,2.45-0.09,3.67-0.1c1.22,0.01,2.44,0.02,3.66,0.08c2.43,0.1,4.86,0.28,7.28,0.51
		c2.42,0.23,4.84,0.5,7.25,0.84c2.41,0.34,4.82,0.72,7.22,1.24l-0.03,0.34c-2.45,0.09-4.89,0.04-7.32-0.05
		c-2.44-0.08-4.86-0.25-7.29-0.44c-2.43-0.2-4.84-0.45-7.26-0.78c-1.21-0.16-2.41-0.36-3.61-0.56c-1.2-0.22-2.4-0.44-3.6-0.74
		L41.49,59.8z"/>
	<path class="st0" d="M45.28,60.75c2.39,0.5,4.76,1.07,7.13,1.66c2.37,0.59,4.74,1.19,7.11,1.81c2.37,0.62,4.75,1.23,7.12,1.87
		c2.38,0.64,4.76,1.27,7.13,1.97c-0.03,0.11-0.05,0.22-0.08,0.33c-2.45-0.37-4.88-0.84-7.29-1.35c-2.41-0.51-4.81-1.07-7.19-1.68
		c-2.38-0.6-4.74-1.25-7.09-1.96c-2.34-0.71-4.66-1.47-6.95-2.33C45.22,60.96,45.25,60.85,45.28,60.75"/>
	<path class="st0" d="M45.12,60.76c2.31-0.97,4.73-1.68,7.2-2.15c2.47-0.46,4.99-0.68,7.5-0.65l1.89,0.06l1.88,0.15l1.87,0.24
		l1.85,0.33c2.46,0.49,4.88,1.21,7.18,2.18l-0.12,0.32c-2.37-0.74-4.77-1.33-7.2-1.72l-1.83-0.25l-1.84-0.19l-1.84-0.11l-1.84-0.04
		c-2.46,0-4.92,0.19-7.35,0.56c-2.43,0.37-4.85,0.9-7.23,1.59L45.12,60.76z"/>
	<path class="st9" d="M45.2,60.74c2.32-0.77,4.65-1.46,7-2.12c1.17-0.33,2.35-0.65,3.52-0.96c1.17-0.32,2.35-0.62,3.53-0.91
		c2.36-0.6,4.73-1.15,7.11-1.67c2.38-0.51,4.77-0.98,7.19-1.34l0.08,0.33c-2.3,0.81-4.64,1.5-6.98,2.16
		c-2.35,0.65-4.7,1.26-7.07,1.83c-1.18,0.29-2.36,0.57-3.55,0.84c-1.18,0.28-2.37,0.54-3.56,0.79c-2.38,0.51-4.77,0.99-7.18,1.38
		L45.2,60.74z"/>
	<path class="st0" d="M44.05,62.33c1.91-1.58,3.96-2.92,6.04-4.18c2.08-1.27,4.24-2.4,6.4-3.51c2.16-1.11,4.35-2.18,6.56-3.2
		c2.22-1,4.45-1.99,6.76-2.84l0.16,0.3c-1.99,1.44-4.05,2.75-6.12,4.03c-2.08,1.27-4.19,2.49-6.32,3.67
		c-2.13,1.17-4.27,2.33-6.48,3.35c-2.21,1.03-4.46,1.98-6.84,2.69L44.05,62.33z"/>
	<path class="st0" d="M38.35,62.33c1.91-1.58,3.96-2.92,6.04-4.18c2.08-1.27,4.24-2.4,6.4-3.51c2.16-1.11,4.35-2.18,6.56-3.2
		c2.22-1,4.45-1.99,6.76-2.84l0.16,0.3c-1.99,1.44-4.05,2.75-6.12,4.03c-2.08,1.27-4.19,2.49-6.32,3.67
		c-2.13,1.17-4.27,2.33-6.48,3.35c-2.21,1.03-4.46,1.98-6.84,2.69L38.35,62.33z"/>
	<path class="st10" d="M43.96,61.92c1.11-2.74,2.81-5.23,4.81-7.44c2-2.2,4.34-4.1,6.88-5.66c0.62-0.41,1.27-0.77,1.93-1.12
		c0.65-0.37,1.32-0.68,1.99-0.99c0.34-0.15,0.67-0.32,1.01-0.47c0.34-0.14,0.69-0.28,1.03-0.41l1.04-0.4l1.06-0.35
		c2.81-0.91,5.72-1.51,8.65-1.72l0.05,0.34c-2.83,0.71-5.59,1.55-8.24,2.64l-1,0.4l-0.97,0.45c-0.32,0.15-0.65,0.3-0.97,0.45
		c-0.32,0.15-0.64,0.33-0.95,0.49c-0.63,0.33-1.27,0.65-1.88,1.03c-0.61,0.36-1.24,0.7-1.83,1.11c-2.39,1.55-4.63,3.32-6.68,5.29
		c-2.07,1.97-3.91,4.16-5.61,6.53L43.96,61.92z"/>
	<path class="st0" d="M45.09,60.81c1.08-2.2,2.32-4.3,3.58-6.38c1.27-2.08,2.59-4.12,3.97-6.13l1.02-1.51l1.04-1.5
		c0.69-1,1.4-1.99,2.11-2.98c1.43-1.97,2.88-3.93,4.42-5.83l0.28,0.19c-1.15,2.16-2.39,4.26-3.65,6.34
		c-0.63,1.04-1.27,2.08-1.92,3.1l-0.98,1.54l-1,1.53c-1.32,2.05-2.68,4.06-4.1,6.04c-1.43,1.97-2.88,3.93-4.49,5.78L45.09,60.81z"/>
	<path class="st11" d="M45.08,60.85c-0.05-1.31,0.14-2.53,0.39-3.73c0.25-1.2,0.62-2.36,1.04-3.5c0.81-2.3,1.65-4.58,2.52-6.85
		c0.87-2.27,1.77-4.54,2.73-6.78c0.94-2.25,1.93-4.48,3.01-6.68l0.32,0.11c-0.53,2.39-1.16,4.75-1.83,7.09
		c-0.66,2.35-1.37,4.68-2.11,6.99c-0.74,2.32-1.51,4.63-2.32,6.92c-0.39,1.15-0.83,2.29-1.38,3.38c-0.56,1.09-1.18,2.17-2.03,3.15
		L45.08,60.85z"/>
	<path class="st0" d="M51.31,60.82c0,3.26-2.65,5.91-5.91,5.91c-3.26,0-5.91-2.64-5.91-5.91c0-3.26,2.64-5.91,5.91-5.91
		C48.66,54.92,51.31,57.56,51.31,60.82"/>
	<path class="st0" d="M46.49,49.59c-0.4-1.21-0.63-2.42-0.83-3.64c-0.21-1.22-0.34-2.44-0.41-3.66c-0.08-1.22-0.08-2.44-0.06-3.65
		c0-1.22,0.04-2.43,0.09-3.64c0.1-2.42,0.3-4.83,0.62-7.23c0.35-2.39,0.82-4.75,1.6-7.07l0.6,0.08c0.59,2.49,0.87,4.93,1.03,7.35
		c0.13,2.41,0.14,4.81,0.05,7.2c-0.05,1.19-0.1,2.38-0.19,3.57c-0.08,1.19-0.17,2.38-0.35,3.56c-0.17,1.18-0.4,2.37-0.7,3.55
		c-0.29,1.19-0.62,2.38-1.11,3.58H46.49z"/>
	<path class="st0" d="M46.49,47.87c-0.9-2.28-1.62-4.61-2.29-6.95c-0.68-2.34-1.25-4.7-1.83-7.07c-0.57-2.36-1.12-4.74-1.63-7.12
		c-0.5-2.38-1-4.77-1.4-7.17l0.33-0.08c0.79,2.31,1.49,4.64,2.18,6.98c0.67,2.34,1.32,4.68,1.94,7.04c0.61,2.36,1.23,4.71,1.75,7.09
		c0.52,2.38,0.99,4.77,1.29,7.2L46.49,47.87z"/>
	<path class="st0" d="M46.51,47.91c-1.61-1.9-2.96-3.93-4.24-6c-1.29-2.07-2.43-4.22-3.56-6.37c-1.12-2.16-2.21-4.34-3.23-6.55
		c-1.01-2.22-2-4.45-2.84-6.76l0.3-0.16c1.47,1.97,2.79,4.02,4.1,6.08c1.29,2.07,2.52,4.17,3.71,6.29c1.18,2.13,2.35,4.26,3.38,6.47
		c1.03,2.21,1.99,4.46,2.7,6.84L46.51,47.91z"/>
	<path class="st1" d="M47.38,49.31c-1.47-2.53-3.13-4.87-5.03-7.01c-0.24-0.27-0.47-0.54-0.72-0.8c-0.25-0.25-0.5-0.51-0.75-0.77
		c-0.25-0.25-0.48-0.53-0.75-0.76l-0.79-0.73c-0.51-0.5-1.07-0.95-1.61-1.41c-0.54-0.47-1.12-0.88-1.69-1.32
		c-2.31-1.7-4.79-3.15-7.41-4.36c-2.61-1.22-5.35-2.18-8.16-2.98l0.07-0.33c2.92,0.39,5.79,1.15,8.56,2.22
		c2.76,1.08,5.41,2.49,7.84,4.22c0.6,0.44,1.22,0.86,1.78,1.35c0.57,0.48,1.17,0.93,1.7,1.46l0.81,0.77
		c0.28,0.25,0.52,0.54,0.77,0.81c0.26,0.27,0.51,0.55,0.76,0.83c0.24,0.28,0.47,0.58,0.7,0.87c1.85,2.34,3.37,4.97,4.24,7.8
		L47.38,49.31z"/>
	<path class="st0" d="M46.57,47.97c-2.24-1.03-4.35-2.24-6.45-3.47c-2.09-1.24-4.14-2.57-6.16-3.92c-1.01-0.67-2.01-1.37-3.01-2.06
		c-1.01-0.69-1.99-1.4-2.98-2.11c-1.97-1.43-3.93-2.89-5.81-4.45l0.19-0.28c2.18,1.11,4.3,2.32,6.4,3.55
		c1.05,0.62,2.09,1.24,3.12,1.89c1.04,0.64,2.07,1.28,3.09,1.94c2.05,1.31,4.08,2.66,6.05,4.08c1.97,1.43,3.92,2.89,5.76,4.53
		L46.57,47.97z"/>
	<path class="st2" d="M52.37,49.61c-2.24-1.03-4.35-2.24-6.45-3.47c-2.09-1.24-4.14-2.57-6.16-3.92c-1.01-0.67-2.01-1.37-3.01-2.06
		c-1.01-0.68-1.99-1.4-2.98-2.11c-1.97-1.43-3.93-2.89-5.81-4.45l0.19-0.28c2.18,1.11,4.3,2.32,6.4,3.55
		c1.04,0.63,2.09,1.24,3.12,1.89c1.04,0.64,2.07,1.28,3.09,1.94c2.05,1.31,4.08,2.66,6.05,4.08c1.97,1.43,3.92,2.89,5.76,4.53
		L52.37,49.61z"/>
	<path class="st3" d="M48.54,50.23c-2.15-1.68-4.62-2.93-7.16-3.84l-0.96-0.33c-0.16-0.05-0.32-0.11-0.48-0.16
		c-0.16-0.05-0.32-0.09-0.52-0.07c-0.38,0.03-0.83,0.25-1.16,0.19c-0.17-0.02-0.31-0.11-0.46-0.17l-0.45-0.19
		c-0.6-0.26-1.21-0.53-1.82-0.75c-0.62-0.24-1.23-0.48-1.86-0.68c-0.63-0.22-1.25-0.44-1.89-0.62c-0.64-0.19-1.27-0.38-1.92-0.53
		c-0.65-0.16-1.29-0.35-1.95-0.47c-0.65-0.13-1.31-0.29-1.97-0.39c-2.64-0.49-5.34-0.76-8.09-0.92l-0.03-0.34
		c2.71-0.59,5.51-0.83,8.32-0.79c0.7-0.01,1.4,0.06,2.11,0.09c0.7,0.03,1.4,0.12,2.11,0.2c0.7,0.07,1.4,0.2,2.1,0.32
		c0.7,0.11,1.39,0.27,2.09,0.42c0.7,0.15,1.38,0.34,2.06,0.54c0.69,0.18,1.36,0.42,2.03,0.65l0.51,0.17
		c0.17,0.06,0.34,0.1,0.49,0.22c0.3,0.22,0.47,0.71,0.72,1.01c0.12,0.16,0.27,0.25,0.42,0.34c0.15,0.09,0.3,0.19,0.45,0.29L42.07,45
		c2.34,1.56,4.52,3.25,6.68,4.96L48.54,50.23z"/>
	<path class="st0" d="M46.65,48c-2.44,0.03-4.88-0.06-7.31-0.18c-1.22-0.05-2.43-0.15-3.64-0.22l-3.64-0.29
		c-2.42-0.22-4.85-0.45-7.26-0.74c-2.42-0.29-4.83-0.61-7.24-1.04l0.03-0.34c2.44-0.02,4.88,0.07,7.31,0.19
		c2.43,0.12,4.86,0.3,7.28,0.49l3.63,0.33c1.21,0.13,2.42,0.25,3.63,0.4c2.42,0.28,4.83,0.61,7.24,1.05L46.65,48z"/>
	<path class="st0" d="M46.69,48c-2.33,0.8-4.7,1.42-7.07,1.98c-2.37,0.56-4.76,1.03-7.16,1.44c-2.4,0.42-4.81,0.77-7.23,1.01
		c-2.43,0.23-4.87,0.4-7.35,0.32l-0.06-0.34c2.32-0.87,4.68-1.5,7.06-2.06c2.38-0.55,4.77-0.99,7.17-1.37
		c2.4-0.37,4.82-0.69,7.24-0.93c2.43-0.23,4.87-0.4,7.33-0.39L46.69,48z"/>
	<path class="st0" d="M46.73,47.99c-2.14,1.19-4.32,2.27-6.51,3.33c-2.19,1.06-4.41,2.06-6.64,3.04c-1.11,0.5-2.24,0.96-3.35,1.44
		c-1.13,0.46-2.25,0.93-3.38,1.37c-2.26,0.89-4.55,1.75-6.88,2.48l-0.14-0.31c2.13-1.2,4.31-2.3,6.5-3.35
		c1.1-0.53,2.2-1.03,3.31-1.54c1.11-0.49,2.22-1,3.34-1.48c2.24-0.96,4.48-1.9,6.75-2.79c2.27-0.89,4.55-1.75,6.87-2.51L46.73,47.99
		z"/>
	<path class="st4" d="M52.73,49.06c-2.82,0.68-5.58,1.45-8.25,2.42c-2.67,0.98-5.25,2.14-7.71,3.52c-2.46,1.38-4.79,2.98-6.98,4.77
		c-2.18,1.81-4.19,3.82-6.08,6.03l-0.29-0.19c1.3-2.63,3.12-5.02,5.23-7.09c2.1-2.09,4.52-3.87,7.11-5.31
		c2.59-1.44,5.36-2.57,8.22-3.32c2.85-0.76,5.79-1.18,8.71-1.17L52.73,49.06z"/>
	<path class="st5" d="M46.8,47.94c-1.29,2.08-2.67,4.09-4.12,6.07c-0.72,1-1.47,1.97-2.21,2.95c-0.76,0.97-1.53,1.93-2.3,2.9
		c-1.57,1.91-3.17,3.81-4.85,5.65c-1.67,1.85-3.4,3.67-5.23,5.42c-0.09-0.07-0.19-0.15-0.28-0.22c1.53-1.98,3.1-3.92,4.66-5.85
		c1.56-1.93,3.13-3.85,4.69-5.77c0.79-0.95,1.56-1.91,2.33-2.87c0.79-0.95,1.55-1.91,2.34-2.85c1.56-1.9,3.11-3.79,4.7-5.63
		C46.62,47.8,46.71,47.87,46.8,47.94"/>
	<path class="st0" d="M49.13,41.38c-1.29,2.08-2.67,4.09-4.12,6.07c-0.72,1-1.47,1.97-2.21,2.95c-0.76,0.97-1.53,1.93-2.3,2.9
		c-1.57,1.91-3.17,3.81-4.85,5.65c-1.67,1.85-3.4,3.67-5.23,5.42c-0.09-0.07-0.19-0.15-0.28-0.22c1.52-1.98,3.1-3.92,4.66-5.85
		c1.56-1.93,3.13-3.85,4.69-5.77c0.79-0.95,1.56-1.91,2.34-2.87c0.79-0.95,1.55-1.91,2.34-2.85c1.56-1.9,3.11-3.79,4.7-5.63
		C48.95,41.24,49.04,41.31,49.13,41.38"/>
	<path class="st0" d="M46.81,47.9c-0.7,2.35-1.53,4.64-2.42,6.91c-0.89,2.27-1.83,4.51-2.83,6.73c-0.5,1.11-1,2.22-1.53,3.32
		c-0.52,1.1-1.04,2.2-1.59,3.29c-1.08,2.18-2.2,4.35-3.45,6.46l-0.31-0.14c0.73-2.34,1.58-4.62,2.46-6.89
		c0.44-1.14,0.9-2.26,1.37-3.39c0.46-1.13,0.94-2.24,1.43-3.36c0.97-2.23,2-4.44,3.07-6.62c1.08-2.18,2.21-4.34,3.49-6.44
		L46.81,47.9z"/>
	<path class="st0" d="M55.3,29.65c-0.7,2.35-1.53,4.64-2.42,6.91c-0.89,2.27-1.83,4.51-2.83,6.73c-0.5,1.11-1,2.22-1.53,3.32
		c-0.52,1.1-1.04,2.2-1.59,3.29c-1.08,2.18-2.2,4.35-3.45,6.46l-0.31-0.14c0.73-2.34,1.58-4.62,2.46-6.89
		c0.44-1.14,0.9-2.26,1.37-3.39c0.46-1.13,0.94-2.24,1.43-3.36c0.97-2.23,2-4.44,3.07-6.62c1.08-2.18,2.21-4.34,3.49-6.44
		L55.3,29.65z"/>
	<path class="st6" d="M47.3,46.63c0.15,1.25,0.17,2.48,0.15,3.7c-0.03,1.22-0.12,2.44-0.27,3.65c-0.14,1.21-0.36,2.41-0.57,3.62
		c-0.22,1.2-0.45,2.4-0.71,3.6c-0.51,2.4-1.12,4.78-1.81,7.15c-0.7,2.37-1.5,4.73-2.49,7.05c-0.15-0.02-0.3-0.05-0.45-0.07
		c0.24-2.44,0.62-4.86,1.01-7.27c0.41-2.41,0.83-4.82,1.28-7.22c0.22-1.2,0.45-2.4,0.68-3.6c0.23-1.2,0.44-2.4,0.71-3.59
		c0.27-1.19,0.57-2.38,0.91-3.56c0.35-1.18,0.73-2.35,1.22-3.51C47.07,46.6,47.19,46.62,47.3,46.63"/>
	<path class="st1" d="M46.83,47.82c0.39,1.19,0.67,2.39,0.9,3.59c0.23,1.2,0.4,2.41,0.54,3.62c0.14,1.21,0.22,2.42,0.31,3.64
		c0.09,1.21,0.17,2.43,0.24,3.64c0.15,2.43,0.24,4.86,0.31,7.3c0.06,2.44,0.08,4.87,0,7.32l-0.34,0.03
		c-0.47-2.4-0.83-4.82-1.15-7.23c-0.32-2.42-0.61-4.83-0.84-7.26c-0.12-1.21-0.23-2.42-0.34-3.63c-0.1-1.21-0.21-2.42-0.26-3.64
		c-0.05-1.22-0.07-2.44-0.03-3.66c0.04-1.22,0.12-2.45,0.32-3.69L46.83,47.82z"/>
	<path class="st0" d="M46.82,47.79c1,2.24,1.87,4.52,2.71,6.82c0.84,2.3,1.63,4.61,2.48,6.92c0.41,1.16,0.83,2.31,1.26,3.46
		c0.41,1.16,0.84,2.31,1.27,3.47c0.84,2.31,1.7,4.63,2.52,6.96c-0.13,0.04-0.25,0.08-0.38,0.12c-1.17-2.22-2.22-4.47-3.22-6.74
		c-0.49-1.14-0.97-2.27-1.44-3.41c-0.46-1.15-0.91-2.29-1.35-3.44c-0.86-2.3-1.69-4.61-2.42-6.94c-0.72-2.34-1.34-4.7-1.76-7.11
		C46.6,47.85,46.71,47.82,46.82,47.79"/>
	<path class="st7" d="M46.8,47.75c0.52,0.39,1.01,0.81,1.46,1.25c0.46,0.43,0.9,0.88,1.33,1.33c0.85,0.91,1.64,1.86,2.4,2.83
		c1.5,1.95,2.81,4.02,4.15,6.09c1.32,2.08,2.62,4.18,3.85,6.33c1.22,2.16,2.43,4.34,3.44,6.66c-0.1,0.07-0.2,0.13-0.31,0.19
		c-2.02-1.68-3.77-3.52-5.45-5.4c-1.66-1.89-3.2-3.85-4.65-5.86c-1.44-2.01-2.84-4.05-3.97-6.22c-0.57-1.09-1.08-2.21-1.52-3.37
		c-0.22-0.58-0.42-1.17-0.59-1.78c-0.18-0.6-0.33-1.22-0.43-1.87C46.61,47.87,46.71,47.81,46.8,47.75"/>
	<path class="st0" d="M39.95,48.84c0.74,0.03,1.47,0.08,2.21,0.14c0.74,0.07,1.46,0.2,2.2,0.32c0.74,0.11,1.45,0.3,2.17,0.48
		c0.36,0.09,0.72,0.17,1.08,0.28l1.06,0.34c2.83,0.93,5.53,2.27,8.02,3.91c2.49,1.64,4.78,3.6,6.75,5.83
		c1.96,2.24,3.62,4.75,4.75,7.47l-0.3,0.16c-1.62-2.42-3.46-4.63-5.53-6.6c-2.05-1.98-4.31-3.73-6.72-5.24
		c-2.41-1.52-4.96-2.77-7.59-3.88l-0.99-0.42c-0.33-0.14-0.67-0.25-1-0.38c-0.67-0.24-1.34-0.53-2.02-0.74
		c-0.69-0.21-1.36-0.49-2.06-0.69c-0.69-0.21-1.39-0.43-2.08-0.67L39.95,48.84z"/>
	<path class="st8" d="M46.74,47.68c1.16,0.41,2.28,0.9,3.4,1.38c1.11,0.5,2.23,1,3.32,1.54c2.19,1.06,4.34,2.2,6.47,3.39
		c2.13,1.19,4.23,2.4,6.31,3.68c2.07,1.28,4.13,2.59,6.12,4.03l-0.16,0.3c-2.28-0.9-4.5-1.92-6.69-2.98
		c-2.2-1.05-4.36-2.18-6.5-3.33c-2.14-1.15-4.26-2.35-6.34-3.63c-1.04-0.63-2.06-1.3-3.08-1.97c-1.01-0.68-2.03-1.37-3-2.12
		L46.74,47.68z"/>
	<path class="st0" d="M42.92,46.72c1.23-0.09,2.45-0.09,3.67-0.1c1.22,0.01,2.44,0.02,3.66,0.08c2.43,0.1,4.86,0.28,7.28,0.51
		c2.42,0.23,4.84,0.5,7.25,0.84c2.41,0.34,4.82,0.72,7.22,1.24l-0.03,0.34c-2.45,0.09-4.89,0.04-7.32-0.05
		c-2.44-0.08-4.86-0.25-7.29-0.44c-2.43-0.2-4.84-0.45-7.26-0.78c-1.21-0.16-2.41-0.36-3.61-0.56c-1.2-0.22-2.4-0.44-3.6-0.74
		L42.92,46.72z"/>
	<path class="st0" d="M46.7,47.67c2.39,0.5,4.76,1.07,7.13,1.66c2.37,0.59,4.74,1.19,7.11,1.81c2.37,0.62,4.75,1.23,7.12,1.87
		c2.38,0.64,4.76,1.27,7.13,1.97l-0.08,0.33c-2.45-0.37-4.88-0.84-7.29-1.35c-2.41-0.51-4.81-1.07-7.19-1.67
		c-2.38-0.6-4.74-1.25-7.09-1.96c-2.34-0.71-4.66-1.47-6.95-2.33C46.64,47.89,46.67,47.78,46.7,47.67"/>
	<path class="st0" d="M46.55,47.68c2.31-0.97,4.73-1.68,7.2-2.15c2.47-0.46,4.99-0.68,7.5-0.65l1.88,0.06l1.88,0.15l1.87,0.24
		l1.85,0.33c2.46,0.49,4.88,1.21,7.18,2.18l-0.12,0.32c-2.37-0.74-4.77-1.33-7.2-1.72l-1.83-0.25L64.93,46l-1.84-0.11l-1.84-0.04
		c-2.46,0-4.92,0.19-7.35,0.56c-2.43,0.37-4.85,0.9-7.23,1.6L46.55,47.68z"/>
	<path class="st9" d="M46.62,47.67c2.32-0.77,4.65-1.46,7-2.12c1.17-0.33,2.35-0.65,3.52-0.96c1.17-0.32,2.35-0.61,3.53-0.91
		c2.36-0.6,4.73-1.15,7.11-1.67c2.38-0.5,4.77-0.98,7.19-1.34L75.05,41c-2.3,0.81-4.64,1.5-6.98,2.16c-2.35,0.65-4.7,1.26-7.07,1.82
		c-1.18,0.29-2.36,0.57-3.55,0.84c-1.18,0.27-2.37,0.54-3.56,0.79C51.5,47.12,49.11,47.6,46.7,48L46.62,47.67z"/>
	<path class="st0" d="M45.47,49.25c1.91-1.58,3.96-2.92,6.04-4.18c2.08-1.27,4.24-2.4,6.4-3.51c2.16-1.11,4.35-2.18,6.56-3.2
		c2.22-1,4.45-1.99,6.76-2.84l0.16,0.3c-1.99,1.44-4.05,2.75-6.12,4.03c-2.08,1.27-4.19,2.49-6.32,3.67
		c-2.13,1.17-4.27,2.33-6.48,3.36c-2.21,1.03-4.46,1.98-6.84,2.68L45.47,49.25z"/>
	<path class="st0" d="M39.77,49.25c1.91-1.58,3.96-2.92,6.04-4.18c2.08-1.27,4.24-2.4,6.4-3.51c2.16-1.11,4.35-2.18,6.56-3.2
		c2.22-1,4.45-1.99,6.76-2.84l0.16,0.3c-1.99,1.44-4.05,2.75-6.12,4.03c-2.08,1.27-4.19,2.49-6.32,3.67
		c-2.13,1.17-4.27,2.33-6.48,3.36c-2.21,1.03-4.46,1.98-6.84,2.68L39.77,49.25z"/>
	<path class="st10" d="M45.38,48.84c1.11-2.74,2.81-5.23,4.81-7.44c2-2.2,4.34-4.1,6.88-5.66c0.62-0.41,1.27-0.77,1.93-1.12
		c0.65-0.37,1.32-0.68,1.99-0.99c0.34-0.15,0.67-0.32,1.01-0.47c0.34-0.14,0.69-0.28,1.03-0.41l1.03-0.4L65.12,32
		c2.81-0.91,5.72-1.51,8.65-1.72l0.05,0.34c-2.83,0.71-5.59,1.55-8.24,2.64l-1,0.4l-0.97,0.45c-0.32,0.15-0.65,0.3-0.97,0.45
		c-0.32,0.15-0.64,0.33-0.95,0.49c-0.63,0.33-1.27,0.65-1.88,1.03c-0.61,0.36-1.24,0.7-1.83,1.11c-2.39,1.55-4.63,3.32-6.68,5.29
		c-2.07,1.97-3.91,4.16-5.61,6.53L45.38,48.84z"/>
	<path class="st0" d="M46.52,47.74c1.08-2.2,2.32-4.3,3.58-6.38c1.27-2.07,2.59-4.12,3.97-6.13l1.02-1.51l1.04-1.5
		c0.69-1,1.4-1.99,2.11-2.98c1.43-1.97,2.88-3.93,4.42-5.83l0.28,0.19c-1.15,2.16-2.39,4.25-3.65,6.34
		c-0.64,1.04-1.27,2.08-1.92,3.1l-0.98,1.54l-1,1.53c-1.32,2.05-2.68,4.06-4.1,6.04c-1.43,1.97-2.88,3.93-4.49,5.78L46.52,47.74z"/>
	<path class="st11" d="M46.5,47.78c-0.05-1.31,0.14-2.53,0.39-3.73c0.25-1.2,0.62-2.36,1.04-3.5c0.81-2.3,1.65-4.58,2.52-6.85
		c0.87-2.27,1.77-4.54,2.73-6.78c0.94-2.25,1.93-4.48,3.01-6.68l0.32,0.11c-0.53,2.39-1.16,4.75-1.83,7.09
		c-0.66,2.35-1.37,4.68-2.11,6.99c-0.75,2.32-1.51,4.63-2.32,6.92c-0.39,1.15-0.83,2.29-1.38,3.38c-0.56,1.09-1.18,2.17-2.03,3.15
		L46.5,47.78z"/>
	<path class="st0" d="M52.73,47.75c0,3.26-2.65,5.91-5.91,5.91c-3.26,0-5.91-2.64-5.91-5.91c0-3.26,2.64-5.91,5.91-5.91
		C50.09,41.84,52.73,44.48,52.73,47.75"/>
	<path class="st0" d="M57.39,67.46c-0.4-1.21-0.63-2.42-0.83-3.64c-0.21-1.22-0.34-2.44-0.41-3.66c-0.08-1.22-0.08-2.44-0.06-3.65
		c0-1.22,0.04-2.43,0.09-3.64c0.1-2.42,0.3-4.83,0.62-7.23c0.35-2.39,0.82-4.75,1.6-7.07l0.6,0.08c0.59,2.49,0.88,4.93,1.03,7.35
		c0.13,2.41,0.14,4.81,0.05,7.2c-0.05,1.19-0.1,2.38-0.2,3.57c-0.08,1.19-0.17,2.38-0.35,3.56c-0.17,1.18-0.4,2.37-0.7,3.55
		c-0.29,1.19-0.62,2.38-1.11,3.58H57.39z"/>
	<path class="st0" d="M57.39,65.74c-0.9-2.28-1.62-4.61-2.29-6.95c-0.68-2.34-1.25-4.7-1.83-7.07c-0.57-2.36-1.12-4.74-1.64-7.11
		c-0.5-2.38-1-4.77-1.4-7.18l0.33-0.08c0.79,2.31,1.49,4.64,2.18,6.98c0.68,2.34,1.32,4.68,1.94,7.04c0.61,2.36,1.23,4.71,1.75,7.09
		c0.52,2.38,0.99,4.77,1.29,7.2L57.39,65.74z"/>
	<path class="st0" d="M57.41,65.78c-1.61-1.9-2.96-3.93-4.24-6c-1.29-2.07-2.43-4.22-3.56-6.37c-1.13-2.16-2.21-4.34-3.23-6.55
		c-1.01-2.22-2-4.45-2.84-6.76l0.3-0.16c1.47,1.97,2.79,4.02,4.1,6.08c1.29,2.07,2.52,4.17,3.71,6.29c1.18,2.13,2.35,4.26,3.38,6.47
		c1.03,2.21,1.99,4.46,2.7,6.84L57.41,65.78z"/>
	<path class="st1" d="M58.28,67.18c-1.47-2.53-3.13-4.87-5.03-7.01c-0.24-0.27-0.47-0.54-0.72-0.8c-0.25-0.25-0.5-0.51-0.75-0.77
		c-0.25-0.25-0.48-0.53-0.75-0.76l-0.79-0.73c-0.51-0.5-1.07-0.95-1.61-1.41c-0.54-0.47-1.12-0.88-1.69-1.32
		c-2.31-1.7-4.8-3.15-7.41-4.36c-2.61-1.22-5.35-2.18-8.15-2.98l0.07-0.33c2.92,0.39,5.79,1.15,8.56,2.22
		c2.76,1.08,5.41,2.49,7.84,4.21c0.6,0.44,1.22,0.86,1.78,1.35c0.57,0.48,1.17,0.93,1.7,1.46l0.81,0.77
		c0.28,0.25,0.51,0.54,0.77,0.81c0.26,0.27,0.51,0.55,0.76,0.83c0.24,0.28,0.47,0.58,0.7,0.87c1.85,2.34,3.37,4.97,4.24,7.8
		L58.28,67.18z"/>
	<path class="st0" d="M57.47,65.85c-2.24-1.03-4.35-2.24-6.46-3.47c-2.09-1.24-4.14-2.57-6.16-3.92c-1.01-0.67-2.01-1.37-3.01-2.06
		c-1.01-0.69-1.99-1.4-2.98-2.11c-1.97-1.43-3.93-2.89-5.81-4.45l0.19-0.28c2.18,1.11,4.3,2.32,6.4,3.55
		c1.05,0.62,2.09,1.24,3.12,1.89c1.04,0.64,2.07,1.28,3.09,1.94c2.05,1.31,4.08,2.66,6.05,4.08c1.97,1.43,3.92,2.89,5.76,4.53
		L57.47,65.85z"/>
	<path class="st2" d="M63.27,67.48c-2.24-1.03-4.35-2.24-6.45-3.47c-2.09-1.24-4.14-2.57-6.16-3.92c-1.01-0.67-2.01-1.37-3.01-2.06
		c-1.01-0.68-1.99-1.4-2.98-2.11c-1.97-1.43-3.93-2.89-5.81-4.45l0.19-0.28c2.18,1.11,4.3,2.32,6.4,3.55
		c1.05,0.63,2.09,1.24,3.12,1.89c1.04,0.64,2.07,1.28,3.09,1.94c2.05,1.31,4.08,2.66,6.05,4.08c1.97,1.43,3.92,2.89,5.76,4.53
		L63.27,67.48z"/>
	<path class="st3" d="M59.44,68.1c-2.15-1.68-4.62-2.93-7.16-3.84l-0.96-0.33c-0.16-0.05-0.32-0.11-0.48-0.16
		c-0.16-0.05-0.32-0.09-0.52-0.07c-0.38,0.03-0.83,0.25-1.16,0.19c-0.17-0.02-0.31-0.11-0.46-0.17l-0.45-0.19
		c-0.6-0.26-1.21-0.53-1.82-0.75c-0.62-0.24-1.23-0.48-1.86-0.68c-0.63-0.22-1.25-0.44-1.89-0.62c-0.64-0.19-1.27-0.38-1.92-0.53
		c-0.65-0.16-1.29-0.35-1.95-0.47c-0.65-0.13-1.31-0.29-1.97-0.39c-2.64-0.49-5.34-0.76-8.09-0.92l-0.03-0.34
		c2.71-0.59,5.51-0.83,8.32-0.79c0.7-0.01,1.4,0.06,2.11,0.09c0.7,0.03,1.4,0.12,2.11,0.2c0.7,0.07,1.4,0.2,2.1,0.32
		c0.7,0.11,1.39,0.27,2.09,0.42c0.7,0.15,1.38,0.34,2.06,0.54c0.69,0.18,1.36,0.42,2.03,0.65l0.51,0.17
		c0.17,0.06,0.34,0.1,0.49,0.22c0.3,0.22,0.47,0.71,0.72,1.01c0.12,0.16,0.27,0.25,0.42,0.34c0.15,0.09,0.3,0.19,0.45,0.29
		l0.88,0.58c2.34,1.56,4.52,3.25,6.67,4.96L59.44,68.1z"/>
	<path class="st0" d="M57.54,65.87c-2.44,0.03-4.88-0.06-7.31-0.18c-1.22-0.05-2.43-0.15-3.64-0.22l-3.64-0.29
		c-2.42-0.22-4.85-0.45-7.26-0.74c-2.42-0.29-4.83-0.61-7.24-1.04l0.03-0.34c2.44-0.02,4.88,0.07,7.31,0.19
		c2.43,0.12,4.86,0.3,7.28,0.49l3.63,0.33c1.21,0.13,2.42,0.25,3.63,0.4c2.42,0.28,4.83,0.61,7.24,1.05L57.54,65.87z"/>
	<path class="st0" d="M57.59,65.87c-2.33,0.8-4.7,1.42-7.07,1.98c-2.37,0.56-4.76,1.03-7.16,1.44c-2.4,0.42-4.81,0.77-7.23,1.01
		c-2.43,0.23-4.87,0.4-7.35,0.32l-0.06-0.34c2.32-0.87,4.68-1.5,7.06-2.06c2.38-0.55,4.77-0.99,7.17-1.37
		c2.4-0.37,4.82-0.69,7.24-0.93c2.43-0.23,4.86-0.4,7.33-0.39L57.59,65.87z"/>
	<path class="st0" d="M57.63,65.86c-2.14,1.19-4.32,2.27-6.51,3.33c-2.19,1.06-4.41,2.06-6.64,3.04c-1.11,0.5-2.24,0.96-3.35,1.44
		c-1.13,0.46-2.25,0.93-3.38,1.37c-2.26,0.89-4.55,1.75-6.88,2.48l-0.14-0.31c2.13-1.2,4.31-2.3,6.5-3.35
		c1.1-0.53,2.2-1.03,3.31-1.54c1.11-0.49,2.22-1,3.34-1.48c2.24-0.96,4.48-1.9,6.75-2.79c2.27-0.89,4.55-1.75,6.87-2.51L57.63,65.86
		z"/>
	<path class="st4" d="M63.63,66.93c-2.82,0.68-5.58,1.45-8.25,2.42c-2.67,0.98-5.25,2.14-7.71,3.52c-2.46,1.38-4.79,2.98-6.98,4.77
		c-2.18,1.81-4.19,3.82-6.08,6.03l-0.29-0.19c1.3-2.63,3.12-5.02,5.23-7.09c2.1-2.09,4.52-3.87,7.11-5.31
		c2.59-1.44,5.36-2.57,8.22-3.32c2.85-0.76,5.79-1.18,8.71-1.17L63.63,66.93z"/>
	<path class="st5" d="M57.7,65.81c-1.29,2.08-2.67,4.09-4.12,6.07c-0.72,1-1.47,1.97-2.21,2.95c-0.76,0.97-1.53,1.93-2.3,2.9
		c-1.57,1.91-3.17,3.81-4.85,5.65c-1.67,1.85-3.4,3.67-5.23,5.42c-0.09-0.07-0.19-0.15-0.28-0.22c1.52-1.98,3.1-3.92,4.66-5.85
		c1.56-1.93,3.13-3.85,4.69-5.77c0.79-0.95,1.56-1.91,2.34-2.87c0.79-0.95,1.55-1.91,2.34-2.85c1.56-1.9,3.11-3.79,4.7-5.63
		C57.52,65.67,57.61,65.74,57.7,65.81"/>
	<path class="st0" d="M60.03,59.25c-1.29,2.08-2.67,4.09-4.12,6.07c-0.72,1-1.47,1.97-2.21,2.95c-0.76,0.97-1.53,1.93-2.3,2.9
		c-1.57,1.91-3.17,3.81-4.85,5.65c-1.67,1.85-3.4,3.67-5.23,5.42c-0.09-0.07-0.19-0.14-0.28-0.22c1.53-1.98,3.1-3.92,4.66-5.85
		c1.56-1.93,3.13-3.85,4.69-5.77c0.79-0.95,1.56-1.91,2.33-2.87c0.79-0.95,1.55-1.91,2.34-2.85c1.56-1.9,3.11-3.79,4.7-5.63
		C59.85,59.11,59.94,59.18,60.03,59.25"/>
	<path class="st0" d="M57.71,65.77c-0.7,2.35-1.53,4.64-2.42,6.91c-0.89,2.27-1.83,4.51-2.83,6.73c-0.5,1.11-1,2.22-1.53,3.32
		c-0.52,1.1-1.04,2.2-1.59,3.29c-1.08,2.18-2.2,4.35-3.45,6.46l-0.31-0.14c0.73-2.34,1.58-4.62,2.46-6.89
		c0.44-1.14,0.9-2.26,1.37-3.39c0.46-1.13,0.94-2.24,1.43-3.36c0.97-2.23,2-4.44,3.07-6.62c1.08-2.18,2.21-4.34,3.49-6.44
		L57.71,65.77z"/>
	<path class="st0" d="M66.2,47.52c-0.7,2.35-1.53,4.64-2.42,6.91c-0.89,2.27-1.83,4.51-2.83,6.73c-0.5,1.11-1,2.22-1.53,3.32
		c-0.52,1.1-1.04,2.2-1.59,3.29c-1.08,2.18-2.2,4.35-3.45,6.46l-0.31-0.14c0.73-2.34,1.58-4.62,2.46-6.89
		c0.44-1.14,0.9-2.26,1.37-3.39c0.46-1.13,0.94-2.24,1.43-3.36c0.97-2.23,2-4.44,3.07-6.62c1.08-2.18,2.21-4.34,3.49-6.44
		L66.2,47.52z"/>
	<path class="st6" d="M58.2,64.5c0.15,1.25,0.17,2.48,0.15,3.7c-0.03,1.22-0.12,2.44-0.27,3.65c-0.14,1.21-0.36,2.41-0.57,3.62
		c-0.22,1.2-0.45,2.4-0.71,3.6c-0.51,2.4-1.12,4.78-1.81,7.15c-0.7,2.37-1.5,4.73-2.49,7.05c-0.15-0.02-0.3-0.05-0.45-0.07
		c0.24-2.44,0.62-4.86,1.01-7.27c0.41-2.41,0.83-4.82,1.28-7.22c0.22-1.2,0.45-2.4,0.68-3.6c0.23-1.2,0.44-2.4,0.71-3.59
		c0.27-1.19,0.57-2.38,0.91-3.56c0.35-1.18,0.73-2.35,1.22-3.51C57.97,64.47,58.09,64.49,58.2,64.5"/>
	<path class="st1" d="M57.73,65.69c0.39,1.19,0.67,2.39,0.9,3.59c0.23,1.2,0.4,2.41,0.54,3.62c0.14,1.21,0.22,2.42,0.31,3.64
		c0.09,1.21,0.17,2.43,0.24,3.64c0.15,2.43,0.24,4.86,0.31,7.3c0.06,2.44,0.08,4.87,0,7.32l-0.34,0.03
		c-0.47-2.4-0.83-4.82-1.15-7.23c-0.32-2.42-0.61-4.83-0.84-7.26c-0.12-1.21-0.23-2.42-0.34-3.63c-0.1-1.21-0.21-2.42-0.26-3.64
		c-0.05-1.22-0.07-2.44-0.03-3.66c0.04-1.22,0.12-2.45,0.32-3.69L57.73,65.69z"/>
	<path class="st0" d="M57.72,65.66c1,2.24,1.87,4.52,2.71,6.82c0.84,2.3,1.63,4.61,2.48,6.92c0.41,1.16,0.83,2.31,1.26,3.46
		c0.41,1.16,0.84,2.31,1.27,3.47c0.84,2.31,1.7,4.63,2.52,6.96c-0.13,0.04-0.25,0.08-0.38,0.12c-1.17-2.22-2.22-4.47-3.22-6.74
		c-0.49-1.14-0.97-2.27-1.44-3.41c-0.46-1.15-0.91-2.29-1.35-3.44c-0.86-2.3-1.69-4.61-2.42-6.94c-0.72-2.34-1.34-4.7-1.76-7.11
		C57.5,65.72,57.61,65.69,57.72,65.66"/>
	<path class="st7" d="M57.7,65.62c0.52,0.39,1.01,0.81,1.47,1.25c0.46,0.43,0.9,0.88,1.33,1.33c0.85,0.91,1.64,1.86,2.4,2.83
		c1.5,1.95,2.81,4.02,4.15,6.09c1.32,2.08,2.62,4.18,3.85,6.33c1.22,2.16,2.43,4.34,3.44,6.66c-0.1,0.07-0.2,0.13-0.31,0.19
		c-2.02-1.68-3.77-3.52-5.45-5.4c-1.66-1.89-3.21-3.85-4.65-5.86c-1.44-2.01-2.84-4.05-3.97-6.22c-0.57-1.09-1.08-2.21-1.52-3.37
		c-0.22-0.58-0.42-1.17-0.59-1.78c-0.18-0.6-0.33-1.23-0.43-1.87C57.51,65.74,57.6,65.68,57.7,65.62"/>
	<path class="st0" d="M50.85,66.71c0.74,0.03,1.47,0.08,2.21,0.14c0.74,0.07,1.46,0.2,2.2,0.33c0.74,0.11,1.45,0.3,2.17,0.47
		c0.36,0.09,0.72,0.17,1.08,0.28l1.06,0.34c2.83,0.93,5.53,2.27,8.02,3.91c2.49,1.64,4.78,3.6,6.75,5.83
		c1.96,2.24,3.62,4.75,4.75,7.47l-0.3,0.16c-1.62-2.42-3.46-4.63-5.53-6.6c-2.05-1.98-4.31-3.73-6.72-5.24
		c-2.41-1.52-4.96-2.77-7.59-3.88l-0.99-0.42c-0.33-0.14-0.67-0.25-1-0.38c-0.67-0.24-1.34-0.53-2.02-0.74
		c-0.69-0.21-1.36-0.49-2.06-0.69c-0.69-0.21-1.39-0.43-2.08-0.67L50.85,66.71z"/>
	<path class="st8" d="M57.64,65.55c1.16,0.41,2.28,0.9,3.4,1.38c1.11,0.5,2.23,1,3.32,1.54c2.19,1.06,4.34,2.2,6.47,3.39
		c2.13,1.19,4.24,2.4,6.31,3.68c2.07,1.28,4.13,2.59,6.12,4.03l-0.16,0.3c-2.28-0.9-4.5-1.92-6.69-2.98
		c-2.2-1.05-4.36-2.18-6.5-3.33c-2.14-1.15-4.26-2.35-6.34-3.63c-1.04-0.63-2.06-1.3-3.08-1.97c-1.01-0.68-2.03-1.37-3-2.12
		L57.64,65.55z"/>
	<path class="st0" d="M53.82,64.59c1.23-0.09,2.45-0.09,3.67-0.1c1.22,0.01,2.44,0.02,3.66,0.08c2.43,0.1,4.86,0.28,7.28,0.51
		c2.42,0.23,4.84,0.5,7.25,0.84c2.41,0.34,4.82,0.72,7.22,1.24l-0.03,0.34c-2.45,0.09-4.89,0.04-7.32-0.05
		c-2.44-0.08-4.86-0.25-7.29-0.44c-2.43-0.2-4.84-0.45-7.26-0.78c-1.21-0.16-2.41-0.36-3.61-0.56c-1.2-0.22-2.4-0.44-3.6-0.74
		L53.82,64.59z"/>
	<path class="st0" d="M57.6,65.54c2.39,0.5,4.76,1.07,7.13,1.66c2.37,0.59,4.74,1.19,7.11,1.81c2.37,0.62,4.75,1.23,7.12,1.87
		c2.38,0.64,4.76,1.27,7.13,1.97c-0.03,0.11-0.05,0.22-0.08,0.33c-2.45-0.37-4.88-0.84-7.29-1.35c-2.41-0.51-4.81-1.07-7.19-1.67
		c-2.38-0.6-4.74-1.25-7.09-1.96c-2.34-0.71-4.66-1.47-6.95-2.33C57.54,65.76,57.57,65.65,57.6,65.54"/>
	<path class="st0" d="M57.45,65.55c2.31-0.97,4.73-1.68,7.2-2.15c2.47-0.46,4.99-0.68,7.5-0.65l1.89,0.06l1.88,0.15l1.87,0.24
		l1.85,0.33c2.46,0.49,4.87,1.21,7.18,2.18l-0.12,0.32c-2.37-0.74-4.77-1.33-7.2-1.72l-1.83-0.25l-1.84-0.19l-1.84-0.11l-1.84-0.04
		c-2.46,0-4.92,0.19-7.35,0.56c-2.43,0.37-4.85,0.9-7.23,1.6L57.45,65.55z"/>
	<path class="st9" d="M57.52,65.54c2.32-0.77,4.65-1.46,7-2.12c1.17-0.33,2.35-0.65,3.52-0.96c1.17-0.32,2.35-0.61,3.53-0.91
		c2.36-0.6,4.73-1.15,7.11-1.67c2.38-0.5,4.77-0.98,7.19-1.34l0.08,0.33c-2.31,0.81-4.64,1.5-6.98,2.16
		c-2.35,0.65-4.7,1.26-7.07,1.82c-1.18,0.29-2.36,0.57-3.55,0.84c-1.18,0.27-2.37,0.54-3.56,0.79c-2.38,0.51-4.77,0.99-7.18,1.38
		L57.52,65.54z"/>
	<path class="st0" d="M56.37,67.12c1.91-1.58,3.96-2.92,6.04-4.18c2.08-1.27,4.24-2.4,6.4-3.51c2.16-1.11,4.35-2.18,6.56-3.2
		c2.22-1,4.45-1.99,6.76-2.84l0.16,0.3c-1.99,1.44-4.05,2.75-6.12,4.03c-2.08,1.27-4.19,2.49-6.32,3.67
		c-2.13,1.17-4.27,2.33-6.48,3.36c-2.21,1.03-4.46,1.98-6.84,2.68L56.37,67.12z"/>
	<path class="st0" d="M50.67,67.12c1.91-1.58,3.96-2.92,6.04-4.18c2.08-1.27,4.24-2.4,6.4-3.51c2.16-1.11,4.35-2.18,6.56-3.2
		c2.22-1,4.45-1.99,6.76-2.84l0.16,0.3c-1.99,1.44-4.05,2.75-6.12,4.03c-2.08,1.27-4.19,2.49-6.32,3.67
		c-2.13,1.17-4.27,2.33-6.48,3.36c-2.21,1.03-4.46,1.98-6.84,2.68L50.67,67.12z"/>
	<path class="st10" d="M56.28,66.71c1.11-2.74,2.81-5.23,4.81-7.44c2-2.2,4.34-4.1,6.87-5.66c0.62-0.41,1.27-0.77,1.93-1.12
		c0.65-0.37,1.32-0.68,1.99-0.99c0.34-0.15,0.67-0.32,1.01-0.47c0.34-0.14,0.69-0.28,1.03-0.41l1.03-0.4l1.06-0.35
		c2.81-0.91,5.72-1.51,8.65-1.72l0.05,0.34c-2.83,0.71-5.59,1.55-8.24,2.64l-1,0.4l-0.97,0.45c-0.32,0.15-0.65,0.3-0.97,0.45
		c-0.32,0.15-0.64,0.33-0.95,0.49c-0.63,0.33-1.27,0.65-1.88,1.03c-0.61,0.36-1.24,0.7-1.83,1.11c-2.39,1.55-4.63,3.32-6.68,5.29
		c-2.07,1.97-3.91,4.16-5.61,6.53L56.28,66.71z"/>
	<path class="st0" d="M57.42,65.61c1.08-2.2,2.32-4.3,3.58-6.38c1.27-2.07,2.59-4.12,3.97-6.13l1.02-1.51l1.04-1.5
		c0.69-1,1.4-1.99,2.11-2.98c1.43-1.97,2.88-3.93,4.42-5.83l0.28,0.19c-1.15,2.16-2.39,4.25-3.65,6.34
		c-0.64,1.04-1.27,2.08-1.92,3.1l-0.98,1.54l-1,1.53c-1.32,2.05-2.68,4.06-4.1,6.04c-1.43,1.97-2.88,3.93-4.49,5.78L57.42,65.61z"/>
	<path class="st11" d="M57.4,65.65c-0.05-1.31,0.14-2.53,0.39-3.73c0.25-1.2,0.62-2.36,1.04-3.5c0.81-2.3,1.65-4.58,2.52-6.85
		c0.87-2.27,1.77-4.54,2.73-6.78c0.94-2.25,1.93-4.48,3.01-6.68l0.32,0.11c-0.53,2.39-1.16,4.75-1.83,7.09
		c-0.66,2.35-1.37,4.68-2.11,6.99c-0.74,2.32-1.51,4.63-2.32,6.92c-0.39,1.15-0.83,2.29-1.38,3.38c-0.56,1.09-1.18,2.17-2.03,3.15
		L57.4,65.65z"/>
	<path class="st0" d="M63.63,65.62c0,3.26-2.64,5.91-5.91,5.91c-3.26,0-5.91-2.64-5.91-5.91c0-3.26,2.65-5.91,5.91-5.91
		C60.99,59.71,63.63,62.36,63.63,65.62"/>
	<path class="st0" d="M61.47,52.31c-0.4-1.21-0.63-2.42-0.83-3.64c-0.21-1.22-0.34-2.44-0.41-3.66c-0.08-1.22-0.08-2.44-0.06-3.65
		c0-1.22,0.04-2.43,0.09-3.64c0.1-2.42,0.3-4.83,0.62-7.23c0.35-2.39,0.82-4.75,1.6-7.07l0.6,0.08c0.59,2.49,0.87,4.93,1.03,7.35
		c0.13,2.41,0.14,4.81,0.05,7.2c-0.05,1.19-0.1,2.38-0.19,3.57c-0.08,1.19-0.17,2.38-0.35,3.56c-0.17,1.19-0.4,2.37-0.7,3.55
		c-0.29,1.19-0.62,2.38-1.11,3.58H61.47z"/>
	<path class="st0" d="M61.48,50.6c-0.9-2.28-1.62-4.61-2.29-6.95c-0.68-2.34-1.25-4.7-1.83-7.07c-0.57-2.36-1.12-4.74-1.64-7.12
		c-0.5-2.38-1-4.77-1.4-7.17l0.33-0.08c0.79,2.31,1.49,4.64,2.18,6.98c0.68,2.34,1.32,4.69,1.94,7.04c0.61,2.36,1.23,4.71,1.75,7.09
		c0.52,2.38,0.99,4.77,1.29,7.2L61.48,50.6z"/>
	<path class="st0" d="M61.49,50.64c-1.61-1.9-2.96-3.93-4.24-6c-1.29-2.07-2.43-4.22-3.56-6.37c-1.13-2.16-2.21-4.34-3.23-6.55
		c-1.01-2.22-2-4.45-2.84-6.76l0.3-0.16c1.47,1.97,2.79,4.02,4.1,6.08c1.29,2.07,2.52,4.17,3.71,6.29c1.18,2.13,2.35,4.26,3.38,6.47
		c1.03,2.21,1.99,4.46,2.7,6.84L61.49,50.64z"/>
	<path class="st1" d="M62.37,52.03c-1.47-2.53-3.13-4.87-5.03-7.01c-0.24-0.27-0.47-0.54-0.72-0.8c-0.25-0.25-0.5-0.51-0.75-0.77
		c-0.25-0.25-0.48-0.52-0.75-0.76l-0.79-0.73c-0.51-0.5-1.07-0.95-1.61-1.41c-0.53-0.48-1.12-0.88-1.69-1.32
		c-2.31-1.7-4.8-3.15-7.41-4.36c-2.61-1.22-5.35-2.18-8.15-2.98l0.07-0.33c2.92,0.39,5.79,1.15,8.56,2.22
		c2.76,1.08,5.41,2.49,7.84,4.22c0.6,0.44,1.22,0.86,1.78,1.35c0.57,0.48,1.17,0.93,1.7,1.46l0.81,0.77
		c0.28,0.25,0.51,0.54,0.77,0.81c0.26,0.27,0.51,0.55,0.76,0.83c0.24,0.28,0.47,0.58,0.7,0.87c1.85,2.34,3.37,4.97,4.24,7.8
		L62.37,52.03z"/>
	<path class="st0" d="M61.55,50.7c-2.24-1.03-4.35-2.24-6.46-3.47c-2.09-1.24-4.14-2.57-6.16-3.92c-1.01-0.68-2.01-1.37-3.01-2.06
		c-1.01-0.68-1.99-1.4-2.98-2.11c-1.97-1.43-3.93-2.89-5.81-4.45l0.19-0.28c2.18,1.11,4.3,2.32,6.4,3.55
		c1.05,0.62,2.09,1.24,3.12,1.89c1.04,0.64,2.07,1.28,3.09,1.94c2.05,1.31,4.08,2.66,6.05,4.08c1.97,1.43,3.92,2.89,5.76,4.53
		L61.55,50.7z"/>
	<path class="st2" d="M67.36,52.34c-2.24-1.03-4.35-2.24-6.46-3.47c-2.09-1.24-4.14-2.57-6.16-3.92c-1.01-0.67-2.01-1.37-3.01-2.06
		c-1.01-0.69-1.99-1.4-2.98-2.11c-1.97-1.43-3.93-2.89-5.81-4.45l0.19-0.28c2.18,1.11,4.3,2.32,6.4,3.55
		c1.05,0.62,2.09,1.24,3.12,1.89c1.04,0.64,2.07,1.28,3.09,1.94c2.05,1.31,4.08,2.66,6.05,4.08c1.97,1.43,3.92,2.89,5.76,4.53
		L67.36,52.34z"/>
	<path class="st3" d="M63.52,52.95c-2.15-1.68-4.62-2.93-7.16-3.84l-0.96-0.33c-0.16-0.05-0.32-0.11-0.48-0.16
		c-0.16-0.05-0.32-0.09-0.52-0.07c-0.38,0.03-0.83,0.25-1.16,0.19c-0.17-0.02-0.31-0.12-0.46-0.17l-0.45-0.19
		c-0.6-0.26-1.21-0.53-1.82-0.75c-0.61-0.24-1.23-0.48-1.86-0.68c-0.63-0.22-1.25-0.44-1.89-0.61c-0.64-0.19-1.27-0.38-1.92-0.53
		c-0.65-0.16-1.29-0.35-1.95-0.47c-0.65-0.13-1.31-0.29-1.97-0.39c-2.64-0.49-5.34-0.76-8.09-0.92l-0.03-0.34
		c2.71-0.59,5.51-0.83,8.32-0.79c0.7-0.01,1.4,0.06,2.11,0.09c0.7,0.03,1.4,0.12,2.11,0.2c0.7,0.07,1.4,0.2,2.1,0.32
		c0.7,0.11,1.39,0.27,2.09,0.42c0.7,0.15,1.38,0.34,2.06,0.54c0.69,0.18,1.36,0.42,2.03,0.65l0.51,0.17
		c0.17,0.06,0.34,0.1,0.49,0.22c0.3,0.22,0.47,0.71,0.72,1.01c0.12,0.16,0.27,0.25,0.42,0.34c0.15,0.09,0.3,0.19,0.45,0.29
		l0.88,0.58c2.34,1.56,4.52,3.25,6.68,4.96L63.52,52.95z"/>
	<path class="st0" d="M61.63,50.73c-2.44,0.03-4.88-0.06-7.31-0.18c-1.22-0.05-2.43-0.15-3.64-0.22l-3.64-0.29
		c-2.42-0.22-4.85-0.45-7.26-0.74c-2.42-0.29-4.83-0.61-7.24-1.04l0.03-0.34c2.44-0.02,4.88,0.07,7.31,0.19
		c2.43,0.12,4.86,0.3,7.28,0.49l3.63,0.33c1.21,0.13,2.42,0.25,3.63,0.4c2.42,0.29,4.83,0.61,7.24,1.05L61.63,50.73z"/>
	<path class="st0" d="M61.67,50.73c-2.33,0.8-4.7,1.42-7.07,1.98c-2.37,0.56-4.76,1.03-7.16,1.44c-2.4,0.42-4.81,0.77-7.23,1.01
		c-2.43,0.23-4.87,0.4-7.35,0.32l-0.06-0.34c2.32-0.87,4.68-1.5,7.06-2.06c2.38-0.55,4.77-0.99,7.17-1.37
		c2.4-0.37,4.82-0.69,7.24-0.93c2.43-0.23,4.86-0.4,7.33-0.39L61.67,50.73z"/>
	<path class="st0" d="M61.71,50.71c-2.14,1.19-4.32,2.27-6.51,3.33c-2.19,1.06-4.41,2.06-6.64,3.04c-1.11,0.5-2.24,0.96-3.35,1.44
		c-1.13,0.46-2.25,0.93-3.38,1.37c-2.26,0.89-4.55,1.75-6.88,2.48l-0.14-0.31c2.13-1.21,4.31-2.3,6.5-3.35
		c1.1-0.53,2.2-1.03,3.31-1.54c1.11-0.49,2.22-1,3.34-1.48c2.24-0.96,4.48-1.9,6.75-2.79c2.27-0.89,4.55-1.75,6.87-2.51L61.71,50.71
		z"/>
	<path class="st4" d="M67.72,51.78c-2.82,0.68-5.58,1.45-8.25,2.42c-2.67,0.98-5.25,2.14-7.71,3.52c-2.46,1.38-4.79,2.98-6.98,4.77
		c-2.18,1.81-4.19,3.82-6.08,6.03l-0.29-0.19c1.3-2.63,3.12-5.02,5.23-7.09c2.1-2.09,4.52-3.87,7.11-5.31
		c2.59-1.44,5.36-2.57,8.22-3.32c2.85-0.76,5.79-1.18,8.71-1.17L67.72,51.78z"/>
	<path class="st5" d="M61.78,50.66c-1.29,2.08-2.67,4.09-4.12,6.07c-0.72,1-1.47,1.97-2.21,2.95c-0.76,0.97-1.53,1.93-2.3,2.9
		c-1.57,1.91-3.17,3.81-4.85,5.65c-1.67,1.85-3.4,3.67-5.23,5.42c-0.09-0.07-0.19-0.15-0.28-0.22c1.52-1.98,3.1-3.92,4.66-5.85
		c1.56-1.93,3.13-3.85,4.69-5.77c0.79-0.95,1.56-1.91,2.34-2.87c0.79-0.95,1.55-1.91,2.34-2.85c1.56-1.9,3.11-3.79,4.7-5.63
		C61.6,50.53,61.69,50.6,61.78,50.66"/>
	<path class="st0" d="M64.11,44.1c-1.29,2.08-2.67,4.09-4.12,6.07c-0.72,1-1.47,1.97-2.21,2.95c-0.76,0.97-1.53,1.93-2.3,2.9
		c-1.57,1.91-3.17,3.81-4.85,5.65c-1.67,1.85-3.4,3.67-5.23,5.42c-0.09-0.07-0.19-0.15-0.28-0.22c1.52-1.98,3.1-3.92,4.66-5.85
		c1.56-1.93,3.13-3.85,4.69-5.77c0.79-0.95,1.56-1.91,2.34-2.87c0.79-0.95,1.55-1.91,2.34-2.85c1.56-1.9,3.11-3.79,4.7-5.63
		C63.93,43.97,64.02,44.04,64.11,44.1"/>
	<path class="st0" d="M61.8,50.63c-0.7,2.35-1.53,4.64-2.42,6.91c-0.89,2.26-1.83,4.51-2.83,6.73c-0.5,1.11-1,2.22-1.53,3.32
		c-0.52,1.1-1.04,2.2-1.59,3.29c-1.08,2.18-2.2,4.35-3.45,6.46l-0.31-0.14c0.73-2.34,1.58-4.62,2.46-6.89
		c0.44-1.14,0.9-2.26,1.37-3.39c0.46-1.13,0.94-2.25,1.43-3.36c0.97-2.23,2-4.44,3.07-6.62c1.08-2.18,2.21-4.34,3.49-6.44
		L61.8,50.63z"/>
	<path class="st0" d="M70.28,32.38c-0.7,2.35-1.53,4.64-2.42,6.91c-0.89,2.26-1.83,4.51-2.83,6.73c-0.5,1.11-1,2.22-1.53,3.32
		c-0.52,1.1-1.04,2.2-1.59,3.29c-1.08,2.18-2.2,4.35-3.45,6.46l-0.31-0.14c0.73-2.34,1.58-4.62,2.46-6.89
		c0.44-1.14,0.9-2.26,1.37-3.39c0.46-1.13,0.94-2.25,1.43-3.36c0.97-2.23,2-4.44,3.07-6.62c1.08-2.18,2.21-4.34,3.49-6.44
		L70.28,32.38z"/>
	<path class="st6" d="M62.28,49.36c0.15,1.25,0.17,2.48,0.15,3.71c-0.03,1.22-0.12,2.44-0.27,3.65c-0.14,1.21-0.36,2.41-0.57,3.62
		c-0.22,1.2-0.45,2.4-0.71,3.6c-0.51,2.4-1.12,4.78-1.81,7.15c-0.7,2.37-1.5,4.73-2.49,7.05c-0.15-0.02-0.3-0.05-0.45-0.07
		c0.24-2.44,0.61-4.86,1.01-7.27c0.41-2.41,0.83-4.82,1.28-7.22c0.22-1.2,0.45-2.4,0.68-3.6c0.23-1.2,0.44-2.4,0.71-3.59
		c0.27-1.19,0.57-2.38,0.91-3.56c0.35-1.18,0.73-2.35,1.22-3.51C62.06,49.33,62.17,49.34,62.28,49.36"/>
	<path class="st1" d="M61.81,50.54c0.39,1.19,0.67,2.39,0.9,3.59c0.23,1.2,0.4,2.41,0.54,3.62c0.14,1.21,0.22,2.42,0.31,3.64
		c0.09,1.21,0.17,2.43,0.24,3.64c0.15,2.43,0.24,4.86,0.31,7.3c0.06,2.43,0.08,4.87,0,7.32l-0.34,0.03
		c-0.47-2.4-0.83-4.82-1.15-7.23c-0.32-2.42-0.61-4.83-0.84-7.26c-0.12-1.21-0.23-2.42-0.34-3.63c-0.1-1.21-0.21-2.42-0.26-3.64
		c-0.05-1.22-0.07-2.44-0.03-3.66c0.04-1.22,0.12-2.45,0.32-3.69L61.81,50.54z"/>
	<path class="st0" d="M61.8,50.51c1,2.24,1.87,4.52,2.71,6.82c0.84,2.3,1.63,4.61,2.48,6.92c0.41,1.16,0.83,2.31,1.26,3.46
		c0.41,1.16,0.84,2.31,1.27,3.47c0.84,2.31,1.7,4.63,2.52,6.96c-0.12,0.04-0.25,0.08-0.38,0.12c-1.17-2.22-2.22-4.47-3.22-6.74
		c-0.49-1.14-0.97-2.27-1.44-3.42c-0.46-1.14-0.91-2.29-1.35-3.44c-0.85-2.3-1.69-4.61-2.42-6.94c-0.72-2.34-1.34-4.7-1.76-7.11
		C61.59,50.58,61.7,50.55,61.8,50.51"/>
	<path class="st7" d="M61.79,50.47c0.52,0.39,1.01,0.81,1.47,1.25c0.46,0.43,0.9,0.88,1.33,1.33c0.85,0.91,1.64,1.86,2.4,2.83
		c1.5,1.95,2.81,4.02,4.15,6.09c1.32,2.08,2.62,4.18,3.85,6.34c1.22,2.16,2.43,4.34,3.44,6.66c-0.1,0.07-0.2,0.13-0.31,0.19
		c-2.02-1.68-3.77-3.52-5.45-5.4c-1.66-1.89-3.2-3.85-4.65-5.86c-1.44-2.02-2.84-4.05-3.97-6.22c-0.57-1.09-1.08-2.21-1.52-3.37
		c-0.22-0.58-0.42-1.17-0.59-1.78c-0.18-0.61-0.33-1.23-0.43-1.87C61.59,50.59,61.69,50.53,61.79,50.47"/>
	<path class="st0" d="M54.94,51.56c0.74,0.03,1.47,0.08,2.21,0.14c0.74,0.07,1.46,0.2,2.19,0.33c0.74,0.11,1.45,0.3,2.17,0.47
		c0.36,0.09,0.72,0.17,1.08,0.29l1.06,0.34c2.83,0.93,5.53,2.27,8.02,3.91c2.49,1.64,4.78,3.6,6.75,5.83
		c1.96,2.24,3.62,4.75,4.75,7.47l-0.3,0.16c-1.62-2.42-3.46-4.63-5.53-6.6c-2.05-1.98-4.31-3.73-6.72-5.24
		c-2.41-1.52-4.96-2.77-7.59-3.88l-0.99-0.42c-0.33-0.14-0.67-0.25-1-0.38c-0.67-0.24-1.34-0.53-2.02-0.74
		c-0.69-0.21-1.36-0.49-2.06-0.69c-0.69-0.21-1.39-0.43-2.08-0.67L54.94,51.56z"/>
	<path class="st8" d="M61.73,50.41c1.16,0.42,2.28,0.9,3.4,1.39c1.11,0.5,2.23,1,3.32,1.54c2.19,1.06,4.34,2.2,6.47,3.39
		c2.13,1.19,4.23,2.4,6.31,3.68c2.07,1.28,4.13,2.59,6.12,4.03l-0.16,0.3c-2.28-0.9-4.5-1.92-6.69-2.98
		c-2.2-1.05-4.36-2.18-6.5-3.33c-2.14-1.15-4.26-2.35-6.34-3.63c-1.04-0.63-2.06-1.3-3.08-1.97c-1.01-0.68-2.02-1.37-3-2.12
		L61.73,50.41z"/>
	<path class="st0" d="M57.9,49.45c1.23-0.09,2.45-0.09,3.67-0.1c1.22,0.01,2.44,0.02,3.66,0.08c2.43,0.1,4.86,0.28,7.28,0.51
		c2.42,0.23,4.84,0.5,7.25,0.84c2.41,0.34,4.82,0.72,7.22,1.24l-0.03,0.34c-2.45,0.09-4.89,0.04-7.32-0.05
		c-2.43-0.08-4.86-0.25-7.29-0.44c-2.43-0.2-4.85-0.45-7.26-0.78c-1.21-0.16-2.41-0.36-3.61-0.56c-1.2-0.22-2.4-0.44-3.6-0.74
		L57.9,49.45z"/>
	<path class="st0" d="M61.69,50.4c2.39,0.5,4.76,1.07,7.13,1.66c2.37,0.59,4.74,1.19,7.11,1.81c2.37,0.62,4.75,1.23,7.12,1.87
		c2.38,0.64,4.76,1.27,7.13,1.97l-0.08,0.33c-2.45-0.37-4.88-0.84-7.29-1.35c-2.41-0.51-4.81-1.07-7.19-1.68
		c-2.38-0.6-4.74-1.25-7.09-1.96c-2.34-0.71-4.66-1.46-6.95-2.33C61.62,50.61,61.65,50.5,61.69,50.4"/>
	<path class="st0" d="M61.53,50.41c2.31-0.97,4.73-1.68,7.2-2.15c2.47-0.46,4.99-0.68,7.5-0.65l1.88,0.06l1.88,0.15l1.87,0.24
		l1.85,0.33c2.46,0.49,4.88,1.21,7.18,2.18l-0.12,0.32c-2.37-0.74-4.77-1.33-7.2-1.72l-1.83-0.25l-1.84-0.19l-1.84-0.11l-1.84-0.04
		c-2.46,0-4.92,0.19-7.35,0.56c-2.43,0.37-4.85,0.9-7.23,1.59L61.53,50.41z"/>
	<path class="st9" d="M61.6,50.39c2.32-0.77,4.65-1.46,7-2.12c1.17-0.33,2.35-0.65,3.52-0.96c1.17-0.32,2.35-0.62,3.53-0.91
		c2.36-0.6,4.73-1.15,7.11-1.67c2.38-0.51,4.77-0.98,7.19-1.34l0.08,0.33c-2.3,0.81-4.64,1.5-6.98,2.16
		c-2.35,0.65-4.7,1.26-7.07,1.83c-1.18,0.29-2.36,0.57-3.55,0.84c-1.18,0.28-2.37,0.54-3.56,0.79c-2.38,0.51-4.77,0.99-7.18,1.38
		L61.6,50.39z"/>
	<path class="st0" d="M60.45,51.98c1.91-1.58,3.96-2.92,6.04-4.18c2.08-1.27,4.24-2.4,6.4-3.51c2.16-1.11,4.35-2.18,6.56-3.2
		c2.22-1,4.45-1.99,6.76-2.84l0.16,0.3c-1.99,1.44-4.05,2.75-6.12,4.03c-2.08,1.27-4.19,2.49-6.32,3.67
		c-2.13,1.17-4.27,2.33-6.48,3.36c-2.21,1.03-4.46,1.98-6.84,2.68L60.45,51.98z"/>
	<path class="st0" d="M54.76,51.98c1.91-1.58,3.96-2.92,6.04-4.18c2.08-1.27,4.24-2.4,6.4-3.51c2.16-1.11,4.35-2.18,6.56-3.2
		c2.22-1,4.45-1.99,6.76-2.84l0.16,0.3c-1.99,1.44-4.05,2.75-6.12,4.03c-2.08,1.27-4.19,2.49-6.32,3.67
		c-2.13,1.17-4.27,2.33-6.48,3.36c-2.21,1.03-4.46,1.98-6.84,2.68L54.76,51.98z"/>
	<path class="st10" d="M60.37,51.56c1.11-2.74,2.81-5.23,4.81-7.44c2-2.2,4.34-4.1,6.87-5.66c0.62-0.41,1.27-0.77,1.93-1.12
		c0.65-0.37,1.32-0.68,1.99-0.99c0.34-0.15,0.67-0.32,1.01-0.47c0.34-0.14,0.69-0.28,1.03-0.41l1.03-0.4l1.06-0.35
		c2.81-0.91,5.72-1.51,8.65-1.72l0.05,0.34c-2.83,0.71-5.59,1.55-8.24,2.64l-1,0.4l-0.97,0.45c-0.32,0.15-0.65,0.3-0.97,0.45
		c-0.32,0.15-0.64,0.33-0.95,0.49c-0.63,0.33-1.27,0.65-1.88,1.03c-0.61,0.36-1.24,0.7-1.83,1.11c-2.39,1.55-4.63,3.32-6.68,5.29
		c-2.07,1.97-3.91,4.16-5.61,6.53L60.37,51.56z"/>
	<path class="st0" d="M61.5,50.46c1.08-2.2,2.32-4.3,3.58-6.38c1.27-2.07,2.59-4.12,3.97-6.13l1.02-1.51l1.04-1.5
		c0.69-1,1.4-1.99,2.11-2.98c1.43-1.97,2.88-3.93,4.42-5.83l0.28,0.19c-1.15,2.16-2.39,4.26-3.65,6.34
		c-0.64,1.04-1.27,2.08-1.92,3.1l-0.98,1.54l-1,1.53c-1.32,2.05-2.68,4.06-4.1,6.04c-1.43,1.97-2.88,3.93-4.49,5.78L61.5,50.46z"/>
	<path class="st11" d="M61.48,50.5c-0.05-1.31,0.14-2.53,0.39-3.73c0.25-1.2,0.62-2.36,1.04-3.5c0.81-2.29,1.65-4.58,2.52-6.85
		c0.87-2.27,1.77-4.54,2.73-6.78c0.94-2.25,1.93-4.48,3.01-6.68l0.32,0.11c-0.53,2.39-1.16,4.75-1.83,7.09
		c-0.66,2.35-1.37,4.68-2.11,6.99c-0.75,2.32-1.51,4.63-2.32,6.92c-0.39,1.15-0.83,2.29-1.38,3.38c-0.55,1.09-1.18,2.17-2.03,3.15
		L61.48,50.5z"/>
	<path class="st0" d="M67.72,50.47c0,3.26-2.64,5.91-5.91,5.91c-3.26,0-5.91-2.65-5.91-5.91c0-3.26,2.65-5.91,5.91-5.91
		C65.07,44.56,67.72,47.21,67.72,50.47"/>
	<path class="st12" d="M59.87,72.28c0.01-0.22,3-1.64,3-1.64l4.26-0.72l-1.05-0.68c0,0-1.44-1.05-1.8-1.69
		c-0.36-0.64-0.56-1.16-0.56-1.16l-1.03-0.12l-4.33,3.76l-2.3,2.06l0.07,1.33l0.53,1.14l1.2-0.75L59.87,72.28z"/>
	<path class="st13" d="M51.86,76.22c0,0-0.19,1.39-0.78,1.86c-0.6,0.47-2.99,2.77-3.42,3.7c-0.43,0.93-1.17,2.86-1.17,2.86
		s-0.29,3.69,1.24,5.11c1.53,1.42,5.34,3.85,6.19,4.17c0.85,0.32,2.32,0.68,2.92,0.25c0.6-0.43,1.71-1.4,2.65-3.16
		c0.93-1.76,2.13-4.01,2.46-4.64c0.33-0.64,1-1.14,0.81-1.94c-0.19-0.79-4.44-6.41-5.02-7.14c-0.58-0.74-1-0.97-1.7-1.3
		c-0.71-0.33-2.21-0.47-2.21-0.47l-1.04,0.27L51.86,76.22z"/>
	<path class="st14" d="M55.87,74.78c0.14-0.15,1.96-3.05,3.06-4.31c1.1-1.26,4.41-3.65,5.27-4.53c0.87-0.88,1.73-1.14,1.28-2.11
		c-0.45-0.96-0.57-1.21-1.39-1.64c-0.82-0.43-1.24-0.81-1.67-0.5c-0.42,0.31-0.58,0.1-0.35,0.93c0.22,0.83,1.45-0.11-0.09,1.17
		c-1.54,1.28-2.8,2.25-3.08,2.6c-0.27,0.34-3.1,2.81-3.29,3.37c-0.19,0.56-1.54,3.14-1.58,3.61c-0.04,0.48-0.18,1.28-0.18,1.28
		l0.78,0.33L55.87,74.78z"/>
	<path class="st15" d="M52.61,73.01c-0.01-0.11-0.16-2.4-1.95-4.09c-1.8-1.69-4.27-3.1-4.92-3.72c-0.65-0.62-1.2-1.4-1.2-1.4
		s-0.5-0.45-0.36-0.67c0.13-0.23,1.06-0.03,0.66-0.64s-0.58-0.71-1.07-0.32c-0.49,0.39-0.74-0.29-0.92,0.63
		c-0.17,0.92-0.46,2.46-0.46,2.46l0.06,1.27c0,0,0.91,0.65,1.25,0.88c0.34,0.24,3.88,3.34,3.88,3.34l2.74,2.38l1.22,1.07l1.15,0.38
		l0.66,0.15L52.61,73.01z"/>
	<path class="st16" d="M53.07,73.54c-0.01-0.11-0.97-3.36-1.52-4.89c-0.55-1.53-1.22-3.93-1-5.47c0.21-1.54,2.33-4.74,2.72-5.2
		c0.39-0.46,0.86-1.25,1.48-0.55c0.62,0.7,1.65,2.38,2.02,3.88c0.37,1.5,0.55,3.79,0.24,4.75c-0.32,0.96-1.51,3.28-1.74,3.88
		c-0.23,0.59-0.68,2.07-0.76,2.25c-0.08,0.18-0.68,1.83-0.68,1.83L53.07,73.54z"/>
	<path class="st17" d="M46.26,71.44l-1.21,3.41c0,0-2.61,3.88-3.57,4.29c-0.96,0.41-3.18,1.22-4.23,1.42
		c-1.05,0.2-1.35,0.61-1.84,0.35c-0.49-0.27-1.22-2.23-1.22-2.23l0.15-2.38l0.17-0.92l-0.4-0.74c0,0,0.04-1.57,0.64-1.91
		c0.6-0.34,1.68-2.25,2.44-2.51c0.76-0.26,3.32-1.54,3.8-1.5c0.48,0.04,2.8,0.62,2.8,0.62l2.24,0.98L46.26,71.44z"/>
	<path class="st18" d="M55.11,74.91c0,0,0.73-0.65,1.44-1.14c0.7-0.48,1.99-1.02,2.66-1.38c0.67-0.36,2.49-1.11,2.49-1.11
		s-4.07,3.72-4.74,4.28c-0.67,0.57-1.35,0.72-1.35,0.72l-0.85-0.18L55.11,74.91z"/>
	<path class="st19" d="M60.13,71.88c-0.1,0.25-0.35,0.95,0.09,1.88c0.45,0.93,0.54,2.78,0.54,3.58c0,0.8-0.68,0.98,1.34,2.01
		c2.02,1.03,2.26,1.53,3.58,0.91c1.32-0.61,2.83-1.75,4.27-2.73c1.44-0.98,2.45-1.18,2.15-2.91c-0.3-1.73-1.18-3.22-1.94-3.76
		c-0.76-0.54-0.95-0.8-1.9-0.88c-0.95-0.07-2.63-0.24-2.63-0.24s-0.64,0.38-1.51,0.45c-0.87,0.07-1.41,0.17-2.04,0.38
		c-0.63,0.21-0.56,0.14-0.84,0.33C60.96,71.1,60.13,71.88,60.13,71.88"/>
	<path class="st20" d="M51.94,77.78c0,0-0.75-0.51-1.35-1.54c-0.6-1.03-1.83-3.11-3.24-4.32c-1.41-1.2-3.91-2.32-4.56-2.36
		c-0.66-0.04-2.31-0.36-2.7-0.19c-0.39,0.17-1.72,0.56-2.39,0.96c-0.67,0.4-2.34,2.05-2.34,2.05l-0.81,1.35c0,0,0.21,0.61,0.05,0.98
		c-0.16,0.37-0.7-0.18-0.61-0.55c0.09-0.37,1.44-2.55,1.44-2.55s2.56-2.05,3.02-2.31s0.82-0.34,1.65-0.54
		c0.83-0.19,2.18-0.88,2.18-0.88s1.18-0.39,1.43-0.47c0.25-0.09,0.74-0.44,1.42-0.07c0.67,0.37,1.01,1.16,2.04,1.52
		c1.04,0.36,1.79,0.72,1.99,1.22c0.21,0.5,1.02,1.41,1.26,1.83c0.24,0.42,0.57,0.55,0.81,0.83c0.23,0.28,0.22,0.06,0.51,0.63
		c0.28,0.57,0.43,1.01,0.43,1.01l0.07,1.37c0,0,0.2,0.83,0.06,1.2C52.13,77.34,51.94,77.78,51.94,77.78"/>
	<path class="st21" d="M54.66,73.97c-0.31-0.31-0.15-0.72-0.87-0.58c-0.72,0.15-0.78-0.25-1.2,0.04c-0.42,0.29-0.56,0.67-0.56,0.67
		s-0.36-0.09-0.57,0.72c-0.21,0.81-0.36,0.89-0.11,1.35c0.24,0.46-0.2,1.03,0.59,0.95c0.8-0.08,0.36-0.12,0.98-0.05
		c0.62,0.08,0.11,0.1,0.81,0.23c0.7,0.13,0.17,0.19,0.76-0.04c0.58-0.23,1.06-0.05,1.06-0.05l0.75-0.38c0,0,0.25-0.89,0.07-1.42
		c-0.17-0.54,0.04-0.73-0.37-0.82c-0.41-0.09-0.66-0.22-0.66-0.22L54.66,73.97z"/>
	<g>
		<defs>
			<rect id="SVGID_1_" x="48.28" y="77.48" width="12.33" height="9.73"/>
		</defs>
		<clipPath id="SVGID_2_">
			<use xlink:href="#SVGID_1_"  style="overflow:visible;"/>
		</clipPath>
		<path class="st22" d="M52.11,79.01c-0.73,1.49-2.95,2.3-2.95,2.3s-1.54,2.73-0.55,3.49c0.99,0.76,0.31,1.61,1.8,1.01
			c1.49-0.6,1.92-1.27,2.8,0.02c0.88,1.3,1.78,1.37,1.78,1.37l1.75-1.54l1.49,0.1c0,0,1.25-0.61,1.58-1.05
			c0.33-0.44,0.36-0.03,0.72-0.86c0.36-0.83-0.59-2.29-0.59-2.29l-2.76-3.16c0,0,0.25-1.27-0.84-0.85
			c-1.09,0.42-2.05,0.64-2.05,0.64S52.95,77.29,52.11,79.01"/>
	</g>
	<g>
		<defs>
			<rect id="SVGID_3_" x="63.53" y="70.61" width="4.74" height="4.84"/>
		</defs>
		<clipPath id="SVGID_4_">
			<use xlink:href="#SVGID_3_"  style="overflow:visible;"/>
		</clipPath>
		<path class="st23" d="M65.9,70.62c-0.19-0.06-1.39,0.52-1.39,0.52s-0.92,0.17-0.98,1.28c-0.06,1.1,0.36,1.34,0.68,2.09
			c0.33,0.75-0.5,1.43,0.66,0.48c1.17-0.96,0.46-1.12,1.71-1.55c1.25-0.43,1.68-1.2,1.68-1.2l-0.38-0.74
			C67.88,71.49,66.57,70.82,65.9,70.62"/>
	</g>
	<g>
		<defs>
			<rect id="SVGID_5_" x="37.71" y="70.06" width="3.92" height="4.42"/>
		</defs>
		<clipPath id="SVGID_6_">
			<use xlink:href="#SVGID_5_"  style="overflow:visible;"/>
		</clipPath>
		<path class="st24" d="M39.99,70.3c-1.02,0.6-1.3,0.82-1.68,1.18c-0.39,0.37-0.75,0.13-0.53,1c0.22,0.87-0.04,1.45,0.66,1.56
			c0.7,0.12,1.16,0.95,1.74-0.09c0.58-1.04,0.66-1.63,0.66-1.63l0.79-1.46C41.63,70.87,41.32,69.51,39.99,70.3"/>
	</g>
	<path class="st12" d="M66.5,43.12c-0.2,0.1-2.89-1.84-2.89-1.84l-2.69-3.38l-0.08,1.25c0,0-0.23,1.77-0.62,2.39
		c-0.39,0.62-0.75,1.05-0.75,1.05l0.39,0.96l5.39,1.98l2.91,1.02l1.14-0.7l0.74-1.01l-1.24-0.69L66.5,43.12z"/>
	<path class="st13" d="M73.82,48.24c0,0,1.31-0.51,2.01-0.21c0.7,0.3,3.87,1.29,4.9,1.21c1.02-0.08,3.07-0.36,3.07-0.36
		s3.37-1.53,3.88-3.55c0.5-2.02,0.79-6.54,0.67-7.43c-0.13-0.9-0.52-2.36-1.19-2.68c-0.67-0.32-2.05-0.83-4.04-0.8
		c-1.99,0.03-4.54,0.07-5.25,0.08c-0.72,0.02-1.48-0.32-2.09,0.22c-0.6,0.54-3.47,6.98-3.83,7.84c-0.36,0.87-0.37,1.34-0.32,2.12
		c0.05,0.78,0.65,2.16,0.65,2.16l0.74,0.78L73.82,48.24z"/>
	<path class="st14" d="M70.62,45.42c-0.2-0.05-3.62-0.25-5.25-0.61c-1.63-0.36-5.32-2.1-6.51-2.43c-1.19-0.33-1.83-0.96-2.46-0.11
		c-0.63,0.86-0.78,1.08-0.77,2.01c0.02,0.93-0.11,1.48,0.37,1.7c0.48,0.22,0.37,0.46,0.98-0.14c0.62-0.59-0.8-1.22,1.07-0.49
		c1.86,0.73,3.32,1.37,3.76,1.44c0.43,0.08,3.96,1.36,4.54,1.26c0.58-0.1,3.49-0.17,3.93-0.36c0.44-0.19,1.21-0.46,1.21-0.46
		L71.4,46.4L70.62,45.42z"/>
	<path class="st15" d="M70.65,49.13c-0.09,0.06-2.02,1.29-2.64,3.69c-0.62,2.39-0.66,5.24-0.89,6.11c-0.23,0.87-0.65,1.72-0.65,1.72
		s-0.15,0.65-0.42,0.64c-0.26-0.01-0.54-0.91-0.88-0.27c-0.34,0.64-0.34,0.85,0.24,1.09c0.58,0.24,0.1,0.79,0.99,0.5
		c0.89-0.29,2.38-0.79,2.38-0.79l1.08-0.67c0,0,0.13-1.11,0.17-1.52c0.04-0.41,1.05-5.01,1.05-5.01l0.76-3.55l0.35-1.58l-0.22-1.19
		l-0.19-0.65L70.65,49.13z"/>
	<path class="st16" d="M70.88,48.47c-0.09,0.06-2.48,2.47-3.55,3.69c-1.07,1.22-2.86,2.96-4.31,3.52c-1.45,0.56-5.28,0.25-5.87,0.13
		c-0.59-0.12-1.5-0.15-1.19-1.03c0.31-0.88,1.29-2.59,2.43-3.64c1.14-1.05,3.05-2.31,4.04-2.5c1-0.19,3.6-0.26,4.23-0.35
		c0.63-0.09,2.14-0.41,2.33-0.42c0.19-0.02,1.93-0.29,1.93-0.29L70.88,48.47z"/>
	<path class="st17" d="M72.33,55.45l3.57-0.58c0,0,4.66,0.41,5.49,1.06c0.83,0.65,2.6,2.2,3.28,3.02c0.68,0.82,1.19,0.89,1.19,1.44
		c0,0.56-1.37,2.15-1.37,2.15l-2.15,1.01l-0.89,0.29l-0.46,0.71c0,0-1.4,0.72-1.98,0.36c-0.59-0.36-2.78-0.38-3.37-0.93
		c-0.6-0.55-2.95-2.17-3.15-2.6c-0.19-0.44-0.81-2.75-0.81-2.75l-0.22-2.43L72.33,55.45z"/>
	<path class="st18" d="M71.1,46.03c0,0-0.93-0.33-1.69-0.71c-0.76-0.38-1.85-1.25-2.5-1.67C66.27,43.24,64.74,42,64.74,42
		s5.22,1.77,6.04,2.09c0.82,0.32,1.28,0.83,1.28,0.83l0.25,0.83L71.1,46.03z"/>
	<path class="st19" d="M66.03,43.09c0.27-0.03,1-0.15,1.6-0.99c0.6-0.84,2.17-1.81,2.87-2.2c0.7-0.39,1.19,0.12,1.11-2.14
		c-0.07-2.26,0.25-2.72-0.93-3.58c-1.17-0.86-2.89-1.63-4.45-2.43c-1.56-0.79-2.22-1.58-3.59-0.48c-1.37,1.1-2.25,2.59-2.36,3.51
		c-0.11,0.92-0.25,1.22,0.15,2.09c0.39,0.87,1.06,2.43,1.06,2.43s0.64,0.37,1.12,1.1c0.48,0.73,0.83,1.15,1.32,1.6
		c0.49,0.45,0.39,0.42,0.7,0.58C64.94,42.73,66.03,43.09,66.03,43.09"/>
	<path class="st20" d="M75.15,47.42c0,0-0.08,0.91-0.69,1.92c-0.61,1.02-1.84,3.11-2.22,4.92c-0.38,1.81-0.15,4.54,0.14,5.13
		c0.28,0.6,0.8,2.2,1.14,2.46c0.33,0.26,1.32,1.24,1.99,1.63c0.67,0.4,2.92,1.06,2.92,1.06L80,64.61c0,0,0.43-0.48,0.84-0.52
		c0.4-0.04,0.18,0.7-0.19,0.8c-0.37,0.1-2.93-0.03-2.93-0.03s-3.03-1.25-3.48-1.53c-0.45-0.28-0.7-0.55-1.27-1.18
		c-0.57-0.63-1.82-1.48-1.82-1.48s-0.91-0.85-1.11-1.03c-0.2-0.18-0.74-0.44-0.75-1.21c0-0.77,0.53-1.44,0.35-2.53
		c-0.18-1.08-0.23-1.91,0.11-2.34c0.34-0.42,0.74-1.57,1-1.98c0.26-0.42,0.21-0.77,0.34-1.11c0.13-0.34-0.05-0.22,0.31-0.75
		c0.36-0.52,0.68-0.87,0.68-0.87l1.17-0.72c0,0,0.63-0.58,1.02-0.63C74.66,47.46,75.15,47.42,75.15,47.42"/>
	<path class="st21" d="M70.49,46.87c-0.13,0.42-0.56,0.47-0.09,1.04c0.47,0.56,0.15,0.8,0.62,1.03c0.46,0.23,0.85,0.17,0.85,0.17
		s0.09,0.36,0.91,0.16c0.82-0.21,0.95-0.12,1.24-0.55c0.29-0.43,1-0.32,0.55-0.98c-0.45-0.66-0.28-0.25-0.51-0.84
		c-0.23-0.58,0.03-0.15-0.19-0.82c-0.22-0.68,0.08-0.25-0.4-0.64c-0.48-0.4-0.56-0.9-0.56-0.9l-0.69-0.47c0,0-0.9,0.21-1.28,0.62
		c-0.39,0.41-0.66,0.32-0.54,0.72c0.12,0.41,0.13,0.69,0.13,0.69L70.49,46.87z"/>
	<g>
		<defs>
			<rect id="SVGID_7_" x="72.51" y="36.95" width="11" height="11.2"/>
		</defs>
		<clipPath id="SVGID_8_">
			<use xlink:href="#SVGID_7_"  style="overflow:visible;"/>
		</clipPath>
		<path class="st25" d="M76.14,46.67c1.65-0.08,3.44,1.48,3.44,1.48s3.13,0.04,3.32-1.2c0.19-1.24,1.26-1.04,0.02-2.06
			c-1.24-1.02-2.04-1.07-1.33-2.46c0.71-1.39,0.34-2.22,0.34-2.22l-2.19-0.79l-0.63-1.35c0,0-1.14-0.8-1.68-0.87
			c-0.54-0.07-0.2-0.3-1.1-0.21c-0.9,0.09-1.72,1.61-1.72,1.61l-1.44,3.95c0,0-1.23,0.39-0.34,1.14c0.9,0.75,1.55,1.49,1.55,1.49
			S74.23,46.77,76.14,46.67"/>
	</g>
	<g>
		<defs>
			<rect id="SVGID_9_" x="61.94" y="35.79" width="5.22" height="4.23"/>
		</defs>
		<clipPath id="SVGID_10_">
			<use xlink:href="#SVGID_9_"  style="overflow:visible;"/>
		</clipPath>
		<path class="st26" d="M62.14,38.65c0.04,0.19,1.13,0.96,1.13,0.96s0.59,0.72,1.59,0.24c1-0.48,1-0.96,1.5-1.61
			c0.5-0.65,1.5-0.25,0.1-0.81c-1.4-0.56-1.2,0.13-2.18-0.76c-0.98-0.89-1.86-0.89-1.86-0.89l-0.47,0.7
			C61.95,36.48,61.99,37.96,62.14,38.65"/>
	</g>
	<g>
		<defs>
			<rect id="SVGID_11_" x="73.68" y="59.57" width="4.76" height="3.13"/>
		</defs>
		<clipPath id="SVGID_12_">
			<use xlink:href="#SVGID_11_"  style="overflow:visible;"/>
		</clipPath>
		<path class="st27" d="M74.36,61.5c1.02,0.61,1.34,0.74,1.85,0.9c0.51,0.16,0.47,0.59,1.13-0.02c0.66-0.61,1.29-0.66,1.05-1.33
			c-0.24-0.67,0.27-1.47-0.91-1.48c-1.19-0.01-1.75,0.2-1.75,0.2l-1.66,0.01C74.06,59.78,73.02,60.71,74.36,61.5"/>
	</g>
	<path class="st12" d="M44.39,48.85c0.17-0.09,2.58,1.63,2.58,1.63l2.42,3.01l0.07-1.12c0,0,0.2-1.58,0.54-2.14
		c0.34-0.56,0.66-0.94,0.66-0.94l-0.35-0.86l-4.82-1.74l-2.6-0.9l-1.01,0.63l-0.66,0.91l1.11,0.61L44.39,48.85z"/>
	<path class="st13" d="M37.84,44.31c0,0-1.17,0.46-1.79,0.2c-0.62-0.26-3.46-1.13-4.38-1.06c-0.91,0.07-2.74,0.33-2.74,0.33
		s-3.01,1.38-3.45,3.19c-0.44,1.81-0.68,5.84-0.57,6.64c0.12,0.8,0.48,2.11,1.07,2.39c0.59,0.28,1.83,0.73,3.61,0.69
		c1.78-0.04,4.05-0.08,4.69-0.09c0.64-0.02,1.33,0.28,1.86-0.21c0.54-0.49,3.07-6.24,3.39-7.02c0.32-0.77,0.32-1.2,0.27-1.89
		c-0.05-0.7-0.59-1.93-0.59-1.93l-0.66-0.7L37.84,44.31z"/>
	<path class="st14" d="M40.71,46.81c0.18,0.04,3.23,0.21,4.69,0.52c1.46,0.31,4.76,1.85,5.82,2.15c1.06,0.29,1.64,0.85,2.2,0.08
		c0.55-0.77,0.7-0.97,0.68-1.8c-0.02-0.83,0.09-1.32-0.33-1.52c-0.43-0.19-0.33-0.41-0.88,0.13c-0.55,0.53,0.72,1.09-0.95,0.44
		c-1.67-0.65-2.97-1.21-3.36-1.27c-0.38-0.07-3.54-1.2-4.06-1.1c-0.52,0.09-3.11,0.16-3.5,0.34c-0.39,0.18-1.08,0.42-1.08,0.42
		l0.09,0.75L40.71,46.81z"/>
	<path class="st15" d="M40.67,43.5c0.08-0.05,1.8-1.16,2.34-3.3c0.54-2.14,0.56-4.68,0.77-5.46c0.2-0.78,0.57-1.54,0.57-1.54
		s0.13-0.58,0.37-0.57c0.23,0.01,0.48,0.81,0.79,0.24c0.3-0.57,0.3-0.76-0.22-0.98c-0.52-0.21-0.1-0.71-0.89-0.44
		c-0.79,0.26-2.12,0.71-2.12,0.71l-0.96,0.6c0,0-0.11,0.99-0.15,1.36c-0.04,0.37-0.92,4.48-0.92,4.48l-0.66,3.17l-0.3,1.41l0.2,1.06
		l0.17,0.58L40.67,43.5z"/>
	<path class="st16" d="M40.46,44.09c0.08-0.05,2.2-2.22,3.15-3.31c0.95-1.09,2.54-2.66,3.83-3.16c1.29-0.5,4.71-0.24,5.24-0.14
		c0.52,0.1,1.34,0.13,1.07,0.91c-0.28,0.78-1.14,2.32-2.15,3.26c-1.01,0.94-2.71,2.08-3.6,2.25c-0.89,0.17-3.22,0.25-3.78,0.33
		c-0.56,0.08-1.91,0.37-2.08,0.39c-0.17,0.01-1.73,0.27-1.73,0.27L40.46,44.09z"/>
	<path class="st17" d="M39.14,37.87l-3.19,0.53c0,0-4.16-0.35-4.9-0.92c-0.74-0.57-2.33-1.95-2.94-2.68
		c-0.61-0.73-1.07-0.79-1.07-1.29c0-0.49,1.21-1.92,1.21-1.92l1.92-0.91l0.79-0.27l0.4-0.64c0,0,1.25-0.65,1.77-0.33
		c0.52,0.32,2.48,0.33,3.01,0.82c0.53,0.49,2.65,1.92,2.82,2.31c0.17,0.39,0.73,2.45,0.73,2.45l0.21,2.17L39.14,37.87z"/>
	<path class="st18" d="M40.28,46.27c0,0,0.83,0.29,1.51,0.63c0.68,0.34,1.66,1.11,2.23,1.48c0.57,0.37,1.95,1.46,1.95,1.46
		s-4.66-1.56-5.4-1.84c-0.73-0.28-1.15-0.74-1.15-0.74l-0.23-0.74L40.28,46.27z"/>
	<path class="st19" d="M44.82,48.88c-0.24,0.03-0.89,0.14-1.42,0.89c-0.53,0.75-1.93,1.63-2.56,1.98c-0.62,0.35-1.06-0.1-0.99,1.92
		c0.08,2.02-0.21,2.43,0.84,3.19c1.05,0.76,2.59,1.45,3.98,2.15c1.39,0.7,1.99,1.4,3.2,0.41c1.22-0.99,2-2.32,2.09-3.15
		c0.1-0.83,0.21-1.09-0.14-1.86c-0.36-0.77-0.95-2.16-0.95-2.16s-0.58-0.33-1.01-0.98c-0.43-0.65-0.74-1.03-1.18-1.42
		c-0.44-0.4-0.35-0.38-0.63-0.51C45.79,49.19,44.82,48.88,44.82,48.88"/>
	<path class="st20" d="M36.66,45.05c0,0,0.07-0.81,0.61-1.72c0.54-0.91,1.63-2.78,1.96-4.4c0.33-1.62,0.11-4.05-0.14-4.58
		c-0.25-0.53-0.73-1.96-1.02-2.19c-0.3-0.23-1.18-1.1-1.79-1.45c-0.6-0.35-2.61-0.93-2.61-0.93l-1.4-0.04c0,0-0.38,0.43-0.74,0.46
		c-0.36,0.04-0.16-0.62,0.16-0.72c0.33-0.09,2.61,0.01,2.61,0.01s2.71,1.1,3.12,1.35c0.41,0.24,0.63,0.49,1.14,1.05
		c0.51,0.56,1.63,1.32,1.63,1.32s0.82,0.75,0.99,0.91c0.18,0.16,0.66,0.39,0.67,1.07c0.01,0.68-0.47,1.29-0.3,2.26
		c0.17,0.97,0.21,1.71-0.09,2.09c-0.3,0.38-0.65,1.41-0.88,1.78c-0.23,0.37-0.18,0.69-0.3,0.99c-0.12,0.3,0.05,0.2-0.27,0.67
		c-0.32,0.47-0.6,0.77-0.6,0.77l-1.04,0.65c0,0-0.56,0.52-0.91,0.57C37.09,45.01,36.66,45.05,36.66,45.05"/>
	<path class="st21" d="M40.82,45.52c0.11-0.38,0.5-0.43,0.07-0.93c-0.43-0.5-0.14-0.72-0.55-0.92c-0.41-0.2-0.76-0.15-0.76-0.15
		s-0.08-0.32-0.81-0.13c-0.73,0.19-0.85,0.11-1.11,0.5c-0.25,0.39-0.89,0.29-0.49,0.88c0.41,0.59,0.25,0.23,0.46,0.74
		c0.21,0.52-0.03,0.13,0.17,0.73c0.2,0.6-0.07,0.22,0.36,0.57c0.43,0.35,0.5,0.81,0.5,0.81l0.62,0.42c0,0,0.8-0.19,1.14-0.56
		c0.34-0.37,0.59-0.28,0.48-0.64c-0.11-0.36-0.12-0.62-0.12-0.62L40.82,45.52z"/>
	<g>
		<defs>
			<rect id="SVGID_13_" x="29.21" y="44.41" width="9.83" height="9.99"/>
		</defs>
		<clipPath id="SVGID_14_">
			<use xlink:href="#SVGID_13_"  style="overflow:visible;"/>
		</clipPath>
		<path class="st28" d="M35.78,45.72c-1.47,0.08-3.08-1.3-3.08-1.3s-2.8-0.02-2.96,1.09c-0.16,1.11-1.12,0.94-0.01,1.84
			c1.11,0.91,1.83,0.95,1.2,2.19c-0.63,1.24-0.29,1.98-0.29,1.98l1.96,0.7l0.57,1.2c0,0,1.02,0.71,1.5,0.78
			c0.48,0.06,0.18,0.27,0.98,0.18c0.8-0.08,1.53-1.45,1.53-1.45l1.26-3.53c0,0,1.1-0.36,0.3-1.02c-0.8-0.67-1.39-1.32-1.39-1.32
			S37.48,45.62,35.78,45.72"/>
	</g>
	<g>
		<defs>
			<rect id="SVGID_15_" x="43.82" y="51.61" width="4.67" height="3.77"/>
		</defs>
		<clipPath id="SVGID_16_">
			<use xlink:href="#SVGID_15_"  style="overflow:visible;"/>
		</clipPath>
		<path class="st29" d="M48.31,52.83c-0.04-0.17-1.01-0.86-1.01-0.86s-0.53-0.64-1.42-0.21c-0.89,0.43-0.89,0.86-1.33,1.44
			c-0.45,0.58-1.34,0.23-0.08,0.72c1.25,0.49,1.07-0.12,1.95,0.67c0.88,0.79,1.67,0.79,1.67,0.79l0.41-0.62
			C48.49,54.75,48.45,53.44,48.31,52.83"/>
	</g>
	<g>
		<defs>
			<rect id="SVGID_17_" x="33.66" y="31.42" width="4.25" height="2.79"/>
		</defs>
		<clipPath id="SVGID_18_">
			<use xlink:href="#SVGID_17_"  style="overflow:visible;"/>
		</clipPath>
		<path class="st30" d="M37.31,32.48c-0.91-0.54-1.2-0.66-1.66-0.8c-0.45-0.14-0.42-0.53-1.01,0.02c-0.58,0.55-1.15,0.59-0.93,1.19
			c0.21,0.6-0.24,1.32,0.82,1.32c1.06,0,1.56-0.19,1.56-0.19l1.49-0.02C37.58,34.01,38.5,33.18,37.31,32.48"/>
	</g>
</g>
</svg>
