<svg id="Layer_1" data-name="Layer 1" xmlns="http://www.w3.org/2000/svg" viewBox="0 0 108 108">
  <defs>
    <style>
      .cls-1 {
        fill: #eaf6ff;
      }

      .cls-2 {
        fill: #c8effe;
      }

      .cls-3 {
        fill: #8379c1;
      }

      .cls-4 {
        fill: #6e61b6;
      }

      .cls-5 {
        fill: #bbf49b;
      }

      .cls-6 {
        fill: #9be69d;
      }

      .cls-7 {
        fill: #6fd7a3;
      }

      .cls-8 {
        fill: #3ec3a4;
      }
    </style>
  </defs>
  <g>
    <path class="cls-1" d="M77,70.94l-1.53,1.69a3.84,3.84,0,0,1-3.85,1.16l-2.2-.57a7.1,7.1,0,0,1-5-4.83L60.89,56.68,75,52.44l3.53,11.7A7.14,7.14,0,0,1,77,70.94Z"/>
    <path class="cls-2" d="M78.52,64.14,75,52.43l-3.14,1L75.1,64.14a7.12,7.12,0,0,1-1.52,6.8l-1.52,1.69a3.89,3.89,0,0,1-1.28.94l.85.22a3.84,3.84,0,0,0,3.85-1.16L77,70.94a7.12,7.12,0,0,0,1.51-6.8Z"/>
    <path class="cls-2" d="M71.75,68.38a1.18,1.18,0,0,1-1.12-.83l-2-6.68a1.17,1.17,0,1,1,2.25-.67l2,6.67a1.16,1.16,0,0,1-.78,1.46,1,1,0,0,1-.34,0Z"/>
    <path class="cls-3" d="M76.34,57.43a3.69,3.69,0,0,1-2.18,3.37l-.44.16a3.65,3.65,0,0,1-2.85-.31,1.47,1.47,0,0,0-2,.62,3.68,3.68,0,0,1-2.33,1.85,3.74,3.74,0,0,1-4.48-2.59L55.68,39.38l4.11-1.24,3-.89,4.83-1.45,2.22-.67.69,2.28,5.7,19a3.54,3.54,0,0,1,.16,1.06Z"/>
    <path class="cls-4" d="M76.34,57.43a3.69,3.69,0,0,1-2.18,3.37l-2-1.66a11,11,0,0,1-2.67-3.24L59.79,38.14l3-.89,4.83-1.45,2.91,1.61,5.7,19a3.54,3.54,0,0,1,.16,1.06Z"/>
    <path class="cls-1" d="M90.09,63.31l-1,2.77a2.42,2.42,0,0,1-3.8,1l-9.69-8a11.16,11.16,0,0,1-2.68-3.24L62.74,37.25l3-2.12h4.07l11.43,6.34a12.87,12.87,0,0,1,5.24,5.45l3.08,6.15a12.82,12.82,0,0,1,.55,10.24Z"/>
    <path class="cls-2" d="M89.54,53.07l-3.08-6.15a12.87,12.87,0,0,0-5.24-5.45L69.79,35.13H68.07l-.5.67,10.22,5.67A12.81,12.81,0,0,1,83,46.92l3.09,6.15a12.82,12.82,0,0,1,.55,10.24l-1,2.77a2.46,2.46,0,0,1-.56.87l.19.15a2.42,2.42,0,0,0,3.8-1l1-2.77a12.82,12.82,0,0,0-.55-10.24Z"/>
    <path class="cls-1" d="M64.11,62.59l-3.68,12a2.42,2.42,0,0,1-3.73,1.25l-2.4-1.74a12.86,12.86,0,0,1-5.19-8.85l-.82-6.82A12.91,12.91,0,0,1,49.65,51l6-11.58,0,0L58,37.41l.86-.72,3.86.56,1.82,21.16a11,11,0,0,1-.45,4.18Z"/>
    <path class="cls-2" d="M64.56,58.41,62.74,37.25,61.12,37,59.4,38.26l1.73,20.15a11.14,11.14,0,0,1-.44,4.18L57,74.57a2.5,2.5,0,0,1-.62,1l.31.23a2.42,2.42,0,0,0,3.73-1.25l3.68-12a11,11,0,0,0,.45-4.18Z"/>
    <path class="cls-2" d="M57.28,57.06a1.17,1.17,0,0,1-1.17-1.14L56,52.72a1.17,1.17,0,0,1,2.34-.06l.09,3.2a1.17,1.17,0,0,1-1.14,1.2Z"/>
    <path class="cls-2" d="M78.19,50.78a1.17,1.17,0,0,1-.62.18,1.2,1.2,0,0,1-1-.55L67.09,35.13h2.7l8.77,14a1.17,1.17,0,0,1-.37,1.62Z"/>
    <path class="cls-2" d="M58.23,47.23a1.16,1.16,0,0,1-1.14,1.2h0a1.17,1.17,0,0,1-1.17-1.14l-.21-7.91,2.34-2s0,0,0,0Z"/>
    <path class="cls-5" d="M24.13,56.35l-4.3-17A60.88,60.88,0,0,1,18,22l.23-5.85a1,1,0,0,1,2-.35l3.07,7.62a17.89,17.89,0,0,1,1.08,3.93l3,19.73-.39,6.11Z"/>
    <path class="cls-6" d="M24.44,27.35a17.89,17.89,0,0,0-1.08-3.93L20.29,15.8a1,1,0,0,0-2,.35l-.16,4.08a1,1,0,0,1,.89.66l.93,2.53A17.89,17.89,0,0,1,21,27.35l2.76,18.11a6.45,6.45,0,0,1-.31,3.17l-.75,2.11,1.42,5.61,2.92-3.16.39-6.11Z"/>
    <path class="cls-6" d="M31.14,51.36l-4.53-1.25L33.05,26.8A13,13,0,0,1,45.5,17.32h2.8a13,13,0,0,1,10.3,5.13L62.08,27l-3.75,2.83-3.47-4.59A8.28,8.28,0,0,0,48.3,22H45.5a8.24,8.24,0,0,0-7.92,6Z"/>
    <g>
      <path class="cls-7" d="M45.35,22H42.54a8.24,8.24,0,0,0-7.92,6L28.39,50.6l2.75.76,6.44-23.31a8.24,8.24,0,0,1,7.83-6Z"/>
      <path class="cls-7" d="M58.6,22.45a13,13,0,0,0-10.3-5.13H45.44a13,13,0,0,1,10.21,5.13L59.12,27l-1.86,1.41,1.07,1.42L62.08,27Z"/>
    </g>
    <path class="cls-5" d="M69.79,35.13,55.68,39.38,54.77,33a6.49,6.49,0,0,1,12.29-3.7Z"/>
    <path class="cls-6" d="M67.06,29.34a6.49,6.49,0,0,0-7.58-3.48,6.52,6.52,0,0,1,4.15,3.48l2.06,4.35a1.37,1.37,0,0,1-.84,1.9l-9.31,2.8.14,1,14.11-4.25Z"/>
    <path class="cls-7" d="M19.81,91.47l4.32-35.12,3.31-9.27h1.68a5.19,5.19,0,0,1,5.16,5.75L30.1,91.75a1.24,1.24,0,0,1-1.23,1.11H21a1.24,1.24,0,0,1-1.23-1.39Z"/>
    <path class="cls-8" d="M29.12,47.08H27.44l-.09.27a5.19,5.19,0,0,1,3.5,5.48l-4.09,38a2.32,2.32,0,0,1-2.05,2h4.16a1.24,1.24,0,0,0,1.23-1.11l4.18-38.92a5.19,5.19,0,0,0-5.16-5.75Z"/>
  </g>
</svg>
