<svg xmlns="http://www.w3.org/2000/svg" version="1.1" xmlns:xlink="http://www.w3.org/1999/xlink" xmlns:svgjs="http://svgjs.dev/svgjs" viewBox="0 0 108 108" style="" x="0" y="0"><style type="text/css">
	.st0{fill:#467659;}
	.st1{fill:#325C44;}
	.st2{fill:#758F66;}
	.st3{fill:#FFF75A;}
	.st4{fill:#F9E161;}
	.st5{fill:#FCEE00;}
	.st6{fill:#FCEE1D;}
	.st7{fill:#F7D65F;}
	.st8{fill:#FCEE04;}
	.st9{fill:#DD2A36;}
	.st10{fill:#7FAD7F;}
</style><g><path class="st0" d="M54.5,54.9c0,0,10.8,1.5,14.2,0.5c3.4-1.1,3.9-1.2,6.4-0.7c2.5,0.5,8.4-0.4,8.4-0.4s-1.7-1-2.9-1.7
	c-1.3-0.7-3.8-3.7-5.2-4c-1.4-0.3-4.7-1.6-6.6-1c-1.8,0.6-6.4,2.6-7.4,3.2s-1.2,1.5-3.7,1.6c-2.5,0.1-2.1,0.1-2.8,0.8
	C54.3,53.8,54.5,54.9,54.5,54.9z"></path><path class="st0" d="M75.4,30c0.7-0.3,3.5-5,5.8-4.3c2.4,0.7,2.5,1.9,3.8,1.1c1.3-0.8,1.5-3.4,2.4-4.4c0.9-1,1.6-1,1.6-1
	s-1.9,4.6-2.8,6.9s-1.8,3.4-3.5,4.3c-1.7,0.9-3.5,2.1-4.4,2.4s-2.3,0.7-3.4,1c-1.1,0.3-5.2,1.1-5.1,0.5c0.1-0.7,2-4.2,2.3-4.3
	S75.4,30,75.4,30z"></path><path class="st0" d="M81.5,32.4c1.2,0.2,3.1-1.2,5.2-0.2c2.2,1,3.6,1.8,4.2,2c0.6,0.3,3.2,0.8,3.5,1c0.3,0.2-2.6,1.7-3.9,2.9
	c-1.3,1.2-2.7,4-5.6,4.4c-2.9,0.3-2.6-2.6-6.9-0.1s-9.2-0.3-9.9,0c-0.7,0.3-8.6,1.6-8.6,1.6s5.4-8,6.5-7.9c1.1,0.1,8.1-2.7,8.8-2.6
	C75.4,33.5,81.5,32.4,81.5,32.4z"></path><path class="st0" d="M61.3,42.1c3.5-1.6,8.1-3.5,11.1-5.6c3-2.2,4.8-5.3,6.2-8.5s1.4-4.4,2.4-5.5c1.1-1.1,2.8-3.6,2.8-3.6
	s-7.5,5.6-9.1,7.4s-5,4.1-6.1,5.4s-3.7,3.6-4.5,5c-0.8,1.4-2,2.3-2.1,3S61.3,42.1,61.3,42.1z"></path><path class="st0" d="M60.2,32.7c0-0.3-0.3-9.4-0.7-12.3S55.9,8.6,55.2,7.5s-2.4-3.7-2.3-3.2S52.6,16,52.5,20.1s0.3,6.4,0.4,8.1
	c0.1,1.7,0.4,6.8,0.4,7.4c0,0.6,0.3,3.2,0.6,3.5s3.1,0.9,3.1,0.9L60.2,32.7z"></path><path class="st0" d="M58.7,43.2c0.4-0.6,2.8-3.2,3.5-7c0.7-3.8-0.3-4.5,1.1-6.4c1.5-1.9,2.1-2,2.6-3.8c0.4-1.7,0.1-2.6,1.1-3.7
	c1-1.1,2.3-3.7,2.3-3.7s-3.6,4-4.5,5.5c-0.9,1.5-1.5,1.3-2.6,3c-1.1,1.6-0.9,2.3-1.8,3.4c-0.8,1.1-2,2.1-2.4,3.5
	c-0.4,1.4,0.2,1-0.8,2.9s-1.2,1.7-1.7,3.7s-0.6,4.4-0.6,4.4s-0.4,1.3,0.3,1.3C55.8,46.2,58.7,43.2,58.7,43.2z"></path><path class="st0" d="M60.6,48.9c0.6,0.4,7.7,2.5,9.6,2.3c1.9-0.2,7-2,8.8-2.4s6.5-1.6,6.5-1.6s-8.6-4.4-10-4.6
	c-1.4-0.2-7.7-0.6-8.9,0.2c-1.2,0.8-6.7,2.2-6.9,2.6c-0.2,0.4-1.3,1.7-1.1,1.8S60.6,48.9,60.6,48.9z"></path><path class="st0" d="M33.8,34.3c0,0-2.3-3.5-2.8-4.4c-0.4-0.9-2.5-4.4-2.8-4.6c-0.3-0.2-1.5-4-2.9-4c-1.4,0-6.4-2.9-7.6-3.2
	c-1.2-0.3-1.7-0.1-0.7,2.4s2.9,5.8,3.3,7.5s0.4,4,1.3,5.3c0.9,1.2,2.8,1.3,4.4,2.2s5.3,2.1,5.7,2.3c0.4,0.2,1.9,1.3,2.2,0.6
	S33.8,34.3,33.8,34.3z"></path><path class="st0" d="M42.7,40.1c0-0.9,0.2-8.9-1.7-11.1c-1.9-2.2-2.1-2.3-2.4-4.1c-0.4-1.9,0-4.3,0.2-5.8c0.2-1.5,1.4-4.8,1.4-4.8
	s-0.3,1.9,1.2,4.5c1.5,2.7,2.6,5.9,3.9,7.2c1.3,1.3,1.3,1.9,2.1,4.8s1.3,6.2,1.3,6.9c0,0.7-0.5,3.3-0.6,3.9c-0.2,0.6-1.6,2.5-3,2.4
	C43.3,43.9,42.7,40.1,42.7,40.1z"></path><path class="st0" d="M51,37.8c0,0,0.6-10.6,0.1-11.8s-1.8-3.7-3.2-4.8c-1.3-1.1-2-2.2-1.9-1.2s1.5,4.5,1.8,6.2s-0.2,7.2,0.1,8.5
	s-0.4,3.6,0.2,5.4c0.6,1.8,0.8,3.3,1.5,2.3C50.4,41.5,51,37.8,51,37.8z"></path><path class="st0" d="M47.6,47.8c0,0,2.8-2.3,4.1-3c1.3-0.7,0.7-1.3,1.3-2.7s4.9-3,4.1-5.4s-2.7-5.4-2.7-6.6
	c-0.1-1.2-1.7-3.7-1.7-3.7c0.2,1.8-1.6,5.2-2,7c-0.4,1.7-1.1,2.4-2.3,4.2c-1.2,1.8-2,4-1.9,4.7c0.1,0.7-1.3,0.7-1,3
	C45.9,47.5,47.6,47.8,47.6,47.8z"></path><path class="st0" d="M77.1,63.2c0.4,0.6,4.1,2.2,5.2,5.1c1.1,2.9,3.8,6.1,3.8,6.1s-6.7-4.3-7.8-4.6c-1.1-0.2-5.1-1.6-5.9-1.9
	c-0.8-0.2-6.8-4.1-7.2-3.8c-0.5,0.3-3.2-3-3.7-3.5c-0.5-0.4-1.5-3.6-0.4-2.9s5.3,0.6,7.6,1.4c2.4,0.9,4,0.8,5.6,1.6
	S77.1,63.2,77.1,63.2z"></path><path class="st0" d="M57.8,52.3c2,1.2,10.1,3.3,10.9,3.1c0.8-0.2,3,1.9,5.4,1.9s7.4,3.2,8.2,4.5c0.8,1.3,6.3,2.7,6.9,3
	c0.6,0.4,2.7,2,2.7,2s-1.8-1.7-6.1-0.8c-4.3,0.9-12.6-2-14.2-1.9s-6,0.1-9-2.6s-5.7-4.8-6.4-5.9s-1.7-0.7-0.9-1.6
	C56.1,53.2,57.8,52.3,57.8,52.3z"></path><path class="st0" d="M56.1,57.7c1.9,2,3.4,5.1,5.2,6.3s2.5,3.2,2.8,4.1c0.3,1,0.8,2.2,1.2,2.9c0.4,0.7,1.7,1.7,0.2,1.1
	c-1.5-0.5-7.3-1.8-8.1-3.2c-0.8-1.4-3.2-0.7-3.6-4.7c-0.4-4-0.7-4.9-0.9-5.7s0.4-3.6,0.2-3.9c-0.2-0.2,0-2.6,0-2.6L56.1,57.7z"></path><path class="st0" d="M55.7,70.6c0.5,1,2.3,3.1,2.6,6.1c0.3,3,0.3,3.5,0.4,5.3c0.1,1.8,0.1,4.3-0.1,4.2c-0.2-0.2-3.7-8.9-4.5-9.8
	c-0.8-0.9-3.4-3.2-3.5-5.6s0-3.8,0.4-4.2c0.3-0.4,1.1,0.5,2,0.6S55.7,70.6,55.7,70.6z"></path><path class="st0" d="M60.7,68.5c0,0,2.8,4.1,4.2,6.3c1.4,2.2,3.1,4.6,4.3,5.6c1.2,1,3.3,2.9,4.1,3.7c0.8,0.8,3.7,6.4,3.7,6.4
	s0.1,2.6,0.9,3.4s3.3,3.2,1.7,3.1c-1.6-0.1-7.3-4.1-7.7-4.5c-0.4-0.3-11-10.9-11.3-11.1c-0.3-0.3-5.1-8.3-5.6-9.3c-0.5-1-2-5-2-5
	l-0.1-2.3c0,0,1.6,0.1,2.3,0.6C55.7,66.1,60.7,68.5,60.7,68.5z"></path><path class="st0" d="M47.5,65.9c0.8,1.4,0.9,4.3,2.5,7s2.2,3.9,1.2,4.7c-1,0.8-1.8,2.9-1.2,4.1s0.3,0.8,0,4.4
	c-0.3,3.6-1.6,4.4-1.7,6c-0.1,1.6-0.4,1.7,0.8,4.1s2.4,5.3,2.2,5.3c-0.2,0-9.1-7.9-9-9.6c0.1-1.7,0.7-6.7,0.5-7.1s-0.1-1.1-2.1,0.2
	c-1.9,1.3-6.6,5.2-7.5,6.2c-1,1-4.6,2.1-5.6,3S24.5,96,24.5,96s4.5-6.5,5.6-7.9c1.1-1.4,3.5-3.2,4.5-5.5c0.9-2.3,1.2-1.9,3-4.9
	s3.8-8.5,4-8.7s1.4-2.4,1.9-2.7s1.1-1.4,1.6-1.6S47.5,65.9,47.5,65.9z"></path><path class="st0" d="M39,62.9c-0.1,0-4.6,1.7-5.2,2.6c-0.6,0.9-4,3-5.2,2.9c-1.3-0.1-7.1,1.7-7.9,1.8c-0.8,0.1-5.5-0.4-6-0.1
	s-4,0-3.3-0.4s5.7-5,9.2-6s7.7-3,8.6-2.9c0.9,0.1,3.7-0.8,4.9-0.5c1.3,0.3,2.7,0.1,3.9,0.3S39,62.9,39,62.9z"></path><path class="st0" d="M38.6,58.2c-0.2,0.3-12.7,3.6-13.5,3.9c-0.8,0.3-8.7-2.2-9.8-2.8c-1.1-0.6-2.6-1.9-3.3-1.7
	c-0.7,0.2-2.6,0.4-2.6,0.4s8-2.2,11-2.3s4.5-2.2,7.1-2.1s6.6-1.2,8.3-0.5c1.6,0.8,3.5,1.3,3.8,1.6c0.3,0.3,1.7,2.3,1.7,2.3
	L38.6,58.2z"></path><path class="st0" d="M41.9,51.4c0,0-3.2-1.8-4.5-2.2c-1.3-0.5-4.2-0.3-5.1-0.5c-0.9-0.2-7.5-2-8.9-1.2c-1.5,0.8-6.3,1.9-7.4,2
	s-2.3,0.6-1.8,0.9c0.5,0.2,9.7,2.5,12.4,3.4c2.7,0.9,6.5-1.2,8.5,0.3c2,1.5,4.7,0.7,4.7,0.7s1.6-1,2-1.1
	C42,53.5,41.9,51.4,41.9,51.4z"></path><path class="st0" d="M44.8,60.2c0.4,1,1.9,2.9,0.3,4.5c-1.6,1.6-3.4,2.1-4.9,3.5c-1.5,1.3-4,1.4-5,4.7c-1,3.3-1.2,4.6-1.5,5.4
	c-0.3,0.9-0.9,3.3-0.9,3.3s-1.3-2.9-1.1-5s-0.3-7.3,0.7-8.2c0.9-0.9,2.2-2.7,4.6-3.6c2.4-0.9,2.6-3,3.4-3.5c0.7-0.6,0.9-1.3,2.3-1.7
	C44.1,59.2,44.8,60.2,44.8,60.2z"></path><path class="st0" d="M41.2,49c0,0-4.4-0.5-5.4-0.9s-3.4-3-4.1-4.9c-0.7-1.9-2-7.3-2.6-8c-0.6-0.7-1.8-2.1-2.1-2.9
	c-0.3-0.9-1.3-3.6-0.1-2.4c1.2,1.2,5.5,2.1,6.3,3.2s2.7,0.8,2.3,0.2c-0.4-0.6-1-3.5,0.3-1.1c1.4,2.4,3.4,3.9,5.4,5.2
	c2,1.3,3.1,1.6,4.2,3.2s0.8,4.6,1.2,5.2c0.4,0.6,1.8,0.1,1,1.9c-0.8,1.7-0.8,3.3-1.9,3.2s-1.8-0.6-2.3-0.6C43,50.3,41.2,49,41.2,49z
	"></path><path class="st0" d="M56.1,50.8c0.7,0,5.2-2.5,6.4-4.3c1.2-1.8,1.1-3.2,2.6-3.5c1.5-0.3,2.3-0.9,1.8-1.2s-6.1,0.4-6.7,1.2
	s-1.9,0.6-2.3,1.7c-0.5,1-1.4,2.1-1.4,2.5c0,0.4-0.4,1.5-0.6,1.9S56.1,50.8,56.1,50.8z"></path><path class="st0" d="M52.2,48.5c0.5-1.2,3.5-4.5,3.4-6.2s1.1-4.2,1.3-3.2c0.2,0.9,1.6,3.1,1,5.8c-0.6,2.7-0.6,3.8-1.7,6.1
	c-1.1,2.2-2.4,2.7-3.4,2.7s-2.7,0.4-2.9,0.1C49.5,53.4,51.7,49.7,52.2,48.5z"></path><path class="st0" d="M50.7,55.6c1.1,0.1,3.8-1.3,2.4-1c-1.4,0.3-4.4-0.2-4.6-0.4c-0.2-0.2-0.5-3.2,0.1-3.5s2.8-3.5,1.9-3.4
	c-0.9,0.1-2.4,1.3-2.6,2.1c-0.1,0.8-3.2,1.3-3.6,1.7s-1,0-0.5,1.7c0.5,1.6,3,2.1,2.3,2.7s-4.2-1-4.5,0.2s-2.9,2.8-3.3,3.8
	c-0.4,1-5-0.4-4.3,0.7s3.3,2.5,4.9,2.7c1.6,0.2,2,0.9,3.9-0.9c2-1.8,1.9-2.1,2.1-3c0.3-0.9,1.2-2.4,1.5-2.5s1.2-1.2,1.7-1.3
	C48.7,55.2,50.7,55.6,50.7,55.6z"></path><path class="st0" d="M49.6,57.8c0.3,1.2,3.7,3,5,3.6c1.3,0.6,5.1-0.7,5.1-0.7s-3.1-1.5-4.4-2c-1.3-0.5-3.5-0.7-3.9-1.1
	c-0.4-0.4-1.8-1.5-1.8-1.5L49.6,57.8z"></path><path class="st0" d="M48.6,57.7c0.2,1,2.2,2.7,2.2,4.5c0,1.8-0.9,5.3-0.5,5.5c0.4,0.2,0.5,1.6-0.8,0.9c-1.3-0.7-2.5-2-2.8-2
	c-0.4,0-1.7,1.1-1.6-0.4c0.1-1.5,1.4-4.4,0.6-5.2c-0.8-0.8-0.6-2.7-0.3-3s0.4-0.8,1.2-1.5c0.8-0.7,1.5-2.5,1.7-1.3
	C48.4,56.5,48.6,57.7,48.6,57.7z"></path><path class="st1" d="M55,52.6c0,0,5.6-9.4,6-12.9c0.3-3.6,0.4-4.1,1.9-6.2c1.5-2.1,2.8-7.9,2.8-7.9s-1.6,1.2-2.7,2
	c-1.2,0.9-4.9,2.1-5.7,3.2c-0.8,1.2-3.3,3.7-3.5,5.7s-0.1,6.9,0.1,8c0.2,1.2,0.9,1.7,0,4s-0.7,2-0.4,2.8C53.8,52.3,55,52.6,55,52.6z
	"></path><path class="st1" d="M40.1,23.7c0-0.7-3.2-5.1-1.7-7s2.7-1.6,2.5-3.1c-0.2-1.5-2.5-2.7-3.1-3.9s-0.3-1.8-0.3-1.8s3.5,3.6,5.3,5.2
	c1.8,1.7,2.5,2.9,2.6,4.9s0.6,4.1,0.5,5c-0.1,0.9-0.2,2.4-0.4,3.5s-1,5.3-1.5,4.9c-0.6-0.3-3.1-3.5-3.1-3.8
	C40.8,27.2,40.1,23.7,40.1,23.7z"></path><path class="st1" d="M44.8,19c0.6-1.1,0.1-3.3,1.9-4.9s3-2.6,3.5-3.1c0.5-0.5,2-2.6,2.3-2.9c0.3-0.2,0.5,3.1,1.1,4.7
	c0.6,1.7,2.7,4.1,1.8,6.9s-3.4,1.4-2.8,6.3c0.6,5-3.8,8.4-3.8,9.1c0,0.7-1.9,8.5-1.9,8.5s-5.3-8.1-4.8-9c0.5-0.9,0.7-8.5,1-9.1
	C43.3,25,44.8,19,44.8,19z"></path><path class="st1" d="M45.8,41.4c-0.2-3.9,0-8.8-0.9-12.4c-0.9-3.6-3-6.5-5.4-9c-2.4-2.5-3.5-3-4.1-4.4c-0.6-1.4-2.2-4-2.2-4
	s2.3,9.1,3.2,11.3s1.8,6.2,2.6,7.7c0.8,1.6,1.9,4.7,2.9,6c1,1.3,1.3,2.7,1.9,3.1C44.5,40.2,45.8,41.4,45.8,41.4z"></path><path class="st1" d="M36.7,38.7c-0.3-0.1-8.7-3.4-11.6-4.2s-12.3-1.3-13.6-1c-1.3,0.3-4.3,0.7-3.9,0.9c0.5,0.1,10.6,4.8,14.4,6.5
	s6.1,2.2,7.7,2.8c1.6,0.6,6.4,2.2,7,2.5s3.1,1,3.4,0.8s2-2.5,2-2.5L36.7,38.7z"></path><path class="st1" d="M45.8,44.2c-0.4-0.6-1.9-3.8-5.1-5.9s-4.3-1.4-5.5-3.5c-1.2-2.1-1-2.8-2.5-3.8c-1.4-1.1-2.4-1.1-3-2.4
	s-2.5-3.6-2.5-3.6s2.3,4.8,3.3,6.3s0.7,1.9,1.7,3.6c1.1,1.7,1.7,1.8,2.5,2.9s1.1,2.7,2.3,3.6c1.2,1,1,0.2,2.3,1.9
	c1.3,1.7,1.1,1.8,2.8,3c1.7,1.2,3.8,2.3,3.8,2.3s1,0.8,1.3,0.2C47.4,48,45.8,44.2,45.8,44.2z"></path><path class="st1" d="M51.8,44.6c0.6-0.4,5.3-6.1,5.9-8c0.6-1.8,0.9-7.2,1.2-9.1c0.3-1.8,1.1-6.6,1.1-6.6s-7.4,6.2-8.2,7.5
	s-3.6,6.8-3.3,8.3s-0.5,7-0.2,7.4c0.3,0.4,1.1,1.8,1.2,1.7C49.5,45.6,51.8,44.6,51.8,44.6z"></path><path class="st1" d="M27.9,63.6c0,0-4.2,0.8-5.1,0.8c-1,0.1-5,0.6-5.3,0.8s-4.2-0.2-4.8,1.1c-0.5,1.3-5.2,4.8-5.9,5.7
	C6,73,6,73.7,8.7,73.6s6.5-0.4,8.2-0.1c1.6,0.4,3.9,1.2,5.4,0.8s2.3-2.1,3.8-3.2s4-4,4.3-4.4c0.4-0.3,1.9-1.2,1.4-1.8
	C31.3,64.5,27.9,63.6,27.9,63.6z"></path><path class="st1" d="M36.7,57.7c-0.8-0.3-8.1-3.6-10.9-2.7s-2.9,1-4.8,0.6c-1.9-0.4-4-1.6-5.3-2.4s-3.9-3.1-3.9-3.1s1.6,1,4.6,0.7
	c3-0.3,6.5-0.1,8.1-0.8c1.7-0.7,2.3-0.5,5.2,0s6.2,1.2,6.8,1.5s2.9,1.7,3.4,2.1s1.7,2.4,1,3.7C40.4,58.6,36.7,57.7,36.7,57.7z"></path><path class="st1" d="M37.8,49.1c0,0-9.5-4.7-10.8-4.7c-1.3-0.1-4.1,0.3-5.6,1.1c-1.5,0.8-2.8,1-1.8,1.3c1,0.3,4.8,0.4,6.4,0.7
	s6.5,2.9,7.9,3.2s3.2,1.8,5,1.9c1.8,0.2,3.4,0.5,2.7-0.5C41,51.2,37.8,49.1,37.8,49.1z"></path><path class="st1" d="M45.7,56.2c0,0-1.1-3.5-1.2-5c-0.2-1.5-0.9-1.2-1.9-2.3s-0.9-5.7-3.4-5.9c-2.5-0.2-6.1,0.4-7.2-0.1
	c-1.1-0.4-4.1,0.1-4.1,0.1c1.8,0.6,4.2,3.5,5.7,4.6c1.5,1,1.8,1.9,3,3.7c1.2,1.8,2.9,3.4,3.6,3.6c0.7,0.2,0.1,1.5,2.4,2.1
	C44.8,57.6,45.7,56.2,45.7,56.2z"></path><path class="st1" d="M71.3,35c0.7-0.1,3.6-2.9,6.7-2.8c3.1,0.1,7-1.1,7-1.1s-6.6,4.5-7.2,5.4c-0.6,0.9-3.5,4.1-4,4.7
	c-0.5,0.7-6.4,4.6-6.3,5.2c0.1,0.5-4.1,1.8-4.6,2s-3.8,0-2.8-0.8c1-0.8,2.6-4.6,4.3-6.5c1.7-1.8,2.3-3.4,3.6-4.5
	C69.2,35.5,71.3,35,71.3,35z"></path><path class="st1" d="M53.8,48.6c1.9-1.4,7-8.1,7.1-8.9c0.2-0.8,2.9-2,3.9-4.3c1-2.2,5.8-5.6,7.3-5.8c1.5-0.2,4.9-4.8,5.5-5.1
	c0.6-0.4,2.9-1.7,2.9-1.7s-2.2,1-3.1,5.3c-0.8,4.3-6.7,10.8-7.2,12.3c-0.5,1.5-2.2,5.6-5.8,7.3c-3.6,1.7-6.7,3.3-8,3.6
	s-1.3,1.3-1.8,0.2S53.8,48.6,53.8,48.6z"></path><path class="st1" d="M58.1,52.2c2.6-0.9,6-1.1,7.8-2.3c1.8-1.2,3.9-1.1,4.9-1c1,0.1,2.3,0.1,3.1,0c0.8-0.1,2.2-1,1.1,0.2
	c-1.1,1.2-4.5,6-6.1,6.2c-1.6,0.2-1.9,2.7-5.8,1.5c-3.9-1.2-4.8-1.3-5.6-1.4c-0.9-0.1-3.2-1.8-3.5-1.7s-2.4-1-2.4-1L58.1,52.2z"></path><path class="st1" d="M69.8,57.6c1.1-0.1,3.8-0.9,6.7-0.1c2.9,0.9,3.3,1.1,5,1.7s4.1,1.6,3.8,1.7s-9.6,0-10.8,0.4
	c-1.2,0.4-4.3,1.9-6.5,1s-3.5-1.5-3.7-2s0.9-0.9,1.3-1.6C66,58,69.8,57.6,69.8,57.6z"></path><path class="st1" d="M69.9,52.2c0,0,4.9-0.9,7.4-1.4c2.6-0.5,5.5-1.1,6.9-1.8c1.4-0.7,3.9-1.9,5-2.3c1-0.4,7.3-0.9,7.3-0.9
	s2.4,0.9,3.5,0.5s4.2-1.8,3.5-0.4c-0.6,1.4-6.7,5.1-7.1,5.4c-0.4,0.2-14.3,5.9-14.7,6.1c-0.4,0.2-9.6,1.5-10.7,1.5
	c-1.1,0.1-5.4-0.1-5.4-0.1L63.5,58c0,0,0.7-1.5,1.5-1.8C65.7,55.8,69.9,52.2,69.9,52.2z"></path><path class="st1" d="M62.3,63.4c1.6-0.2,4.3,0.8,7.4,0.4s4.5-0.5,4.8,0.8c0.3,1.2,2,2.8,3.3,2.7c1.3-0.1,0.8,0,4.1,1.7
	c3.3,1.7,3.4,3.2,4.8,3.9c1.4,0.6,1.4,1.1,4.1,0.9c2.7-0.2,5.8-0.1,5.7,0.1c0,0.2-10.8,5.3-12.3,4.6C82.7,77.5,78.3,75,78,75
	c-0.4,0-1.1-0.3-0.6,2c0.5,2.3,2.2,8.1,2.8,9.3c0.5,1.3,0.2,5.1,0.6,6.3c0.5,1.2,0.5,3.6,0.5,3.6S77,89.6,76,88
	c-0.9-1.6-1.6-4.5-3.3-6.3c-1.7-1.8-1.3-1.9-3.4-4.7S63,70.3,62.9,70c-0.1-0.3-1.6-2.2-1.7-2.8c-0.1-0.7-0.9-1.6-0.8-2.1
	C60.4,64.5,62.3,63.4,62.3,63.4z"></path><path class="st1" d="M56.3,70c0,0.1-0.3,4.9,0.4,5.8s1.2,4.8,0.6,6c-0.5,1.1-1.2,7.2-1.5,8c-0.3,0.8-2.5,4.9-2.5,5.5
	s-1.5,3.7-1.6,2.9s-2.4-7.2-1.9-10.8c0.5-3.6,0.2-8.3,0.6-9c0.4-0.8,0.7-3.7,1.4-4.8c0.8-1.1,1.2-2.4,1.8-3.5
	C54.2,68.9,56.3,70,56.3,70z"></path><path class="st1" d="M51.8,68.5c0.2,0.3-1.6,13.1-1.6,13.9c0,0.8-5.4,7.2-6.4,8c-1,0.8-2.8,1.6-2.9,2.4s-0.6,2.5-0.6,2.5
	s1.1-8.2,2.2-11c1.1-2.9-0.3-5.1,0.9-7.4c1.2-2.3,1.4-6.6,2.8-7.8c1.3-1.2,2.5-2.7,2.9-2.9s2.7-0.7,2.7-0.7L51.8,68.5z"></path><path class="st1" d="M46.8,62.8c0,0-2.9,2.3-3.8,3.3c-1,1-1.9,3.8-2.5,4.5c-0.6,0.7-4.7,6.1-4.6,7.7c0.1,1.7-0.7,6.6-1,7.6
	s-0.3,2.4,0.1,2s6.1-7.9,8-10.1c1.9-2.1,1.4-6.4,3.6-7.7c2.2-1.2,2.4-4.1,2.4-4.1s-0.3-1.9-0.2-2.3C48.8,63.6,46.8,62.8,46.8,62.8z"></path><path class="st1" d="M56.1,63.6c1.1,0,3.4-0.6,4.3,1.5c0.8,2.1,0.6,4,1.3,5.9c0.7,1.9-0.3,4.2,2.4,6.4c2.7,2.2,3.7,2.9,4.4,3.5
	c0.7,0.7,2.6,2.1,2.6,2.1s-3.2,0.1-5.1-0.9s-6.8-2.6-7.3-3.8c-0.5-1.2-1.6-3.1-1.5-5.7c0.1-2.6-1.7-3.6-2-4.5s-0.8-1.4-0.6-2.8
	C54.9,63.9,56.1,63.6,56.1,63.6z"></path><path class="st1" d="M44.4,62.6c0,0-2.1,3.8-2.9,4.7c-0.8,0.8-4.1,2-6.1,1.9c-2-0.1-7.5-1-8.4-0.7c-0.8,0.3-2.6,0.8-3.5,0.8
	c-0.9,0-3.8-0.2-2.2-0.8c1.6-0.6,4.1-4.3,5.4-4.5s1.8-2.2,1.1-2.1c-0.7,0.1-3.6-0.4-0.9-0.7s4.9-1.6,6.9-2.9s2.6-2.2,4.6-2.7
	c1.9-0.5,4.6,1.1,5.3,0.9c0.7-0.1,0.8-1.6,2.1-0.2c1.3,1.4,2.7,2.1,2.2,3c-0.5,0.9-1.2,1.4-1.5,1.8C46.2,61.4,44.4,62.6,44.4,62.6z"></path><path class="st1" d="M51.8,49.5c0.3-0.7-0.2-5.8-1.4-7.6c-1.2-1.8-2.5-2.2-2.2-3.7c0.3-1.5,0.1-2.4-0.4-2.1s-2.1,5.8-1.5,6.7
	c0.6,0.9-0.2,2,0.6,2.8c0.8,0.8,1.4,2.1,1.8,2.2c0.4,0.2,1.2,0.9,1.5,1.3C50.4,49.5,51.8,49.5,51.8,49.5z"></path><path class="st1" d="M48.1,52.2c-0.9-1-2.8-4.9-4.4-5.5s-3.4-2.6-2.5-2.4c0.9,0.2,3.5-0.3,5.7,1.3c2.2,1.6,3.3,2.1,4.9,3.9
	c1.6,1.9,1.6,3.3,1.1,4.1s-0.7,2.6-1,2.8C51.6,56.6,49,53.2,48.1,52.2z"></path><path class="st1" d="M54.1,56.4c0.6-1,0.3-4,0-2.6c-0.2,1.4-1.9,4-2.2,4.1s-3.2-0.8-3.2-1.4c0-0.7-2.2-3.9-2.4-3
	c-0.2,0.9,0.3,2.8,1,3.2c0.7,0.4,0,3.4,0.2,4c0.2,0.5-0.3,0.9,1.4,1.1c1.7,0.2,3.1-1.9,3.4-1.1c0.3,0.8-2.5,3.5-1.6,4.3
	c1,0.8,1.4,3.8,2.2,4.5c0.8,0.7-2.3,4.4-1,4.3c1.3-0.1,3.6-2.1,4.4-3.5s1.6-1.5,0.7-4c-0.9-2.5-1.2-2.5-1.9-3.1
	c-0.7-0.6-1.8-2-1.7-2.4c0-0.3-0.7-1.5-0.5-2.1S54.1,56.4,54.1,56.4z"></path><path class="st1" d="M55.7,58.3c1.2,0.1,4.2-2.3,5.3-3.2c1-1,1.4-5,1.4-5s-2.6,2.2-3.6,3.2s-2,2.9-2.5,3.1c-0.5,0.2-2.1,1.1-2.1,1.1
	L55.7,58.3z"></path><path class="st1" d="M55.2,59.2c1,0.3,3.3-1,5-0.3c1.7,0.8,4.6,2.9,4.9,2.6c0.4-0.3,1.7,0.1,0.6,1.1c-1.1,0.9-2.8,1.5-2.9,1.9
	c-0.2,0.3,0.4,1.9-1,1.3s-3.5-3-4.6-2.6s-2.8-0.5-2.9-0.9c-0.2-0.4-0.6-0.7-0.9-1.7c-0.3-1-1.7-2.4-0.5-2.1S55.2,59.2,55.2,59.2z"></path><path class="st2" d="M55.1,54.2c0,0,8-7.4,9.3-10.8c1.3-3.3,1.5-3.8,3.5-5.4c2-1.6,4.9-6.8,4.9-6.8s-1.8,0.7-3.2,1.2
	c-1.4,0.5-5.3,0.6-6.4,1.5s-4.2,2.6-4.9,4.5c-0.7,1.8-2,6.6-2.1,7.8c-0.1,1.2,0.4,1.9-1.1,3.8s-1.2,1.7-1.1,2.6S55.1,54.2,55.1,54.2
	z"></path><path class="st2" d="M48.9,22.2c0.2-0.7-1.7-5.8,0.3-7.2c2-1.4,3-0.8,3.2-2.3c0.2-1.5-1.6-3.3-1.9-4.7c-0.2-1.3,0.2-1.9,0.2-1.9
	s2.4,4.4,3.7,6.5s1.5,3.5,1.1,5.4c-0.4,1.9-0.6,4.1-0.9,4.9c-0.3,0.8-0.8,2.2-1.4,3.3s-2.4,4.8-2.9,4.3s-2-4.2-2-4.5
	C48.6,25.8,48.9,22.2,48.9,22.2z"></path><path class="st2" d="M54.7,19c0.9-0.9,1-3.1,3.2-4.2s3.6-1.7,4.2-2s2.7-2,3-2.1s-0.4,3.1-0.3,4.9s1.4,4.6-0.2,7.1
	c-1.6,2.5-3.6,0.4-4.4,5.3c-0.8,4.9-6,7-6.2,7.7s-4.2,7.6-4.2,7.6s-2.8-9.2-2.1-10c0.7-0.8,3.1-8,3.5-8.5C51.7,24.4,54.7,19,54.7,19
	z"></path><path class="st2" d="M49.4,40.8c0.9-3.8,2.4-8.5,2.6-12.2c0.2-3.7-1.1-7.1-2.7-10.2s-2.6-3.8-2.7-5.3c-0.1-1.5-1-4.4-1-4.4
	s-0.3,9.3,0,11.7c0.3,2.4,0,6.4,0.3,8.2c0.3,1.7,0.5,5.1,1.1,6.6c0.6,1.5,0.5,3,1,3.6C48.5,39.3,49.4,40.8,49.4,40.8z"></path><path class="st2" d="M41.5,35.7c-0.2-0.2-7.4-5.7-10-7.2s-11.4-4.6-12.7-4.7c-1.3-0.1-4.4-0.5-3.9-0.2c0.4,0.3,8.9,7.6,12,10.2
	s5.2,3.8,6.6,4.8c1.4,1,5.5,3.9,6,4.3c0.5,0.4,2.7,1.8,3.1,1.8s2.6-1.8,2.6-1.8L41.5,35.7z"></path><path class="st2" d="M48.7,43.5c-0.2-0.6-0.8-4.2-3.3-7.1c-2.5-2.9-3.7-2.6-4.3-4.9s-0.2-2.9-1.3-4.4c-1.1-1.4-2-1.7-2.2-3.2
	s-1.4-4.2-1.4-4.2s0.8,5.3,1.4,6.9c0.6,1.7,0.1,2,0.7,3.9c0.5,1.9,1.2,2.2,1.5,3.5c0.4,1.3,0.3,2.9,1.2,4.1c0.8,1.2,0.9,0.5,1.7,2.5
	s0.6,2,1.8,3.6c1.3,1.6,3,3.3,3,3.3s0.7,1.1,1.2,0.6C49.1,47.6,48.7,43.5,48.7,43.5z"></path><path class="st2" d="M54.3,45.6c0.6-0.2,6.8-4.4,7.8-6c1.1-1.6,2.9-6.7,3.7-8.4s2.9-6,2.9-6s-8.9,3.9-9.9,4.9c-1,1-5.4,5.6-5.4,7
	c-0.1,1.5-2.5,6.6-2.3,7c0.2,0.4,0.5,2.1,0.7,2S54.3,45.6,54.3,45.6z"></path><path class="st2" d="M26.1,57.2c0,0-4.2-0.4-5.2-0.6c-1-0.2-4.9-0.8-5.3-0.7s-4-1.3-4.9-0.3c-0.9,1.1-6.3,3.2-7.3,3.9
	s-1.2,1.3,1.4,2s6.4,1.4,7.9,2.2s3.4,2.2,4.9,2.3c1.5,0.1,2.7-1.3,4.5-2c1.8-0.7,4.9-2.8,5.4-3s2.2-0.6,1.8-1.3
	C29.1,59,26.1,57.2,26.1,57.2z"></path><path class="st2" d="M36.1,54c-0.7-0.5-6.8-5.8-9.7-5.7s-3.1,0.2-4.8-0.7s-3.4-2.7-4.4-3.8c-1-1.1-2.9-4.1-2.9-4.1s1.2,1.4,4.2,2
	c3,0.5,6.3,1.7,8,1.5s2.3,0.2,5,1.4s5.6,2.9,6.1,3.3c0.5,0.4,2.3,2.4,2.7,3c0.4,0.5,0.9,2.8,0,3.9C39.5,55.9,36.1,54,36.1,54z"></path><path class="st2" d="M39.6,46c0,0-7.9-7.1-9.1-7.5c-1.2-0.4-4-0.9-5.7-0.6c-1.7,0.3-3,0.2-2.1,0.7c0.8,0.6,4.5,1.7,6,2.5
	c1.5,0.8,5.5,4.6,6.7,5.3c1.2,0.7,2.6,2.6,4.3,3.3c1.7,0.7,3.1,1.4,2.7,0.3C42.1,48.9,39.6,46,39.6,46z"></path><path class="st2" d="M45.3,55c0,0,0-3.7,0.2-5.1c0.3-1.4-0.5-1.4-1.2-2.7c-0.7-1.3,0.8-5.7-1.6-6.6s-5.9-1.3-6.9-2.1
	c-1-0.7-4-1.1-4-1.1c1.5,1,3.1,4.5,4.2,5.9c1.1,1.4,1.2,2.4,1.8,4.4c0.7,2.1,1.8,4.1,2.5,4.5c0.6,0.4-0.3,1.5,1.7,2.6
	C44,56.2,45.3,55,45.3,55z"></path><path class="st2" d="M75.8,41.8C76.5,41.9,80,40,83,41s7.1,0.9,7.1,0.9s-7.6,2.5-8.5,3.2c-0.9,0.7-4.5,2.9-5.2,3.4
	c-0.7,0.5-7.4,2.7-7.5,3.2c-0.1,0.5-4.4,0.6-5,0.7s-3.7-1.1-2.5-1.5c1.2-0.4,3.8-3.7,5.9-5c2.2-1.3,3.2-2.6,4.7-3.4
	C73.6,41.7,75.8,41.8,75.8,41.8z"></path><path class="st2" d="M55.1,49.9c2.2-0.8,8.9-5.8,9.3-6.5s3.3-1.1,4.9-3c1.6-1.9,7.2-3.7,8.7-3.5c1.5,0.2,6-3.2,6.7-3.4
	c0.6-0.2,3.2-0.8,3.2-0.8s-2.4,0.3-4.4,4.3s-9.5,8.5-10.4,9.8s-3.7,4.8-7.6,5.4c-3.9,0.6-7.3,1.3-8.7,1.2c-1.3-0.1-1.6,0.9-1.8-0.3
	C54.8,51.8,55.1,49.9,55.1,49.9z"></path><path class="st2" d="M58.3,54.6c2.7-0.2,6,0.6,8.1-0.1s4,0,5,0.4c0.9,0.4,2.2,0.7,3,0.9c0.8,0.2,2.4-0.3,1,0.5
	c-1.4,0.8-6,4.5-7.6,4.3c-1.6-0.2-2.6,2-5.9-0.2c-3.4-2.2-4.2-2.6-5-2.9C56,57.3,54.3,55,54,55c-0.3,0-2-1.7-2-1.7L58.3,54.6z"></path><path class="st2" d="M68,63.1c1.1,0.3,3.9,0.1,6.4,1.8s2.9,2,4.3,3c1.4,1.1,3.5,2.6,3.2,2.7S72.7,68,71.5,68
	c-1.2,0.1-4.7,0.6-6.5-0.8c-1.9-1.4-2.9-2.4-3-2.9c-0.1-0.5,1.1-0.6,1.7-1.2C64.2,62.4,68,63.1,68,63.1z"></path><path class="st2" d="M69.6,57.9c0,0,4.9,0.5,7.5,0.7c2.6,0.3,5.6,0.5,7.1,0.2c1.5-0.3,4.3-0.7,5.4-0.8c1.1-0.1,7.3,1.2,7.3,1.2
	s2.1,1.5,3.2,1.4s4.5-0.5,3.5,0.6c-1,1.2-7.8,3.1-8.3,3.2c-0.5,0.1-15.4,1.7-15.8,1.8c-0.4,0.1-9.6-1.3-10.7-1.5
	c-1.1-0.3-5.1-1.6-5.1-1.6l-1.9-1.3c0,0,1.1-1.2,1.9-1.4C64.6,60.2,69.6,57.9,69.6,57.9z"></path><path class="st2" d="M59.2,66.5c1.6,0.3,3.9,2,7,2.4c3.1,0.4,4.4,0.8,4.4,2.1s1.1,3.2,2.4,3.5s0.8,0.3,3.4,2.8
	c2.7,2.5,2.4,4.1,3.6,5.1s1.1,1.4,3.7,2c2.6,0.6,5.6,1.5,5.5,1.7c-0.1,0.2-11.8,2.1-13.1,0.9c-1.3-1.2-4.8-4.8-5.2-4.9
	s-1-0.6-1.2,1.7c-0.2,2.3-0.1,8.4,0.1,9.7c0.2,1.4-1.3,4.9-1.2,6.2c0.1,1.3-0.6,3.6-0.6,3.6S66,95.8,65.5,94s-0.3-4.8-1.4-6.9
	c-1.2-2.2-0.7-2.2-1.9-5.4c-1.3-3.3-4.2-8.3-4.2-8.6c0-0.3-1-2.5-0.9-3.2c0.1-0.7-0.4-1.7-0.2-2.3C57.1,67.1,59.2,66.5,59.2,66.5z"></path><path class="st2" d="M51.5,71.3c-0.1,0.1-1.6,4.7-1.3,5.7c0.4,1-0.2,5-1,5.9c-0.8,0.9-3.2,6.6-3.6,7.3c-0.5,0.7-3.7,4-3.9,4.6
	c-0.2,0.6-2.5,3.1-2.4,2.4c0.1-0.8-0.3-7.6,1.2-10.9s2.5-7.9,3.1-8.5c0.6-0.6,1.7-3.4,2.7-4.2c1-0.8,1.8-2,2.7-2.9
	S51.5,71.3,51.5,71.3z"></path><path class="st2" d="M47.6,68.6c0.1,0.4-5.2,12.1-5.4,12.9c-0.3,0.8-7.2,5.4-8.4,5.9s-3.1,0.8-3.4,1.5s-1.3,2.2-1.3,2.2
	s3.3-7.5,5.2-10c1.8-2.4,1.1-4.9,2.9-6.9s3.2-5.9,4.8-6.7c1.6-0.8,3.2-1.9,3.6-1.9s2.8,0.1,2.8,0.1L47.6,68.6z"></path><path class="st2" d="M44.4,61.7c0,0-3.4,1.4-4.6,2.1c-1.2,0.7-2.9,3.1-3.6,3.7c-0.8,0.6-6.2,4.5-6.6,6.2c-0.4,1.6-2.5,6.1-3.1,7
	c-0.6,0.9-1,2.2-0.5,1.9c0.5-0.2,8-5.9,10.5-7.4c2.4-1.5,3.1-5.8,5.6-6.4c2.5-0.6,3.5-3.2,3.5-3.2s0.3-1.9,0.4-2.3
	C46.1,63,44.4,61.7,44.4,61.7z"></path><path class="st2" d="M53.2,65c1,0.3,3.5,0.3,3.7,2.6c0.2,2.3-0.5,4-0.4,6c0.1,2-1.4,4,0.6,6.9c2,2.8,2.8,3.8,3.2,4.6
	c0.5,0.8,1.9,2.8,1.9,2.8s-3.1-0.8-4.6-2.3c-1.5-1.5-5.8-4.4-6-5.7c-0.1-1.3-0.7-3.4,0.1-5.8c0.8-2.4-0.7-3.9-0.6-4.8
	c0-0.9-0.4-1.6,0.2-2.9C51.9,65,53.2,65,53.2,65z"></path><path class="st2" d="M42.2,60.8c0,0-3.1,3.1-4.1,3.7s-4.5,0.8-6.4,0.1c-1.9-0.7-7-3-7.9-3c-0.9,0-2.7,0.1-3.6-0.2
	c-0.9-0.3-3.6-1.2-1.9-1.4c1.7-0.2,5.1-2.9,6.5-2.8c1.3,0.1,2.3-1.6,1.6-1.7c-0.7-0.1-3.4-1.4-0.6-0.9s5.2-0.2,7.4-0.9
	c2.3-0.7,3.2-1.4,5.1-1.3s4.1,2.3,4.8,2.4c0.7,0.1,1.2-1.3,2.1,0.4s2,2.7,1.3,3.5s-1.6,1-1.9,1.3C44.3,60.2,42.2,60.8,42.2,60.8z"></path><path class="st2" d="M53,50.3c0.5-0.6,1.4-5.6,0.7-7.7s-1.8-2.8-1.1-4.2c0.7-1.4,0.8-2.3,0.2-2.1c-0.6,0.2-3.6,5-3.3,6
	s-0.7,1.9-0.2,2.9c0.5,1,0.7,2.4,1.1,2.6c0.3,0.3,0.9,1.2,1.1,1.6C51.7,49.9,53,50.3,53,50.3z"></path><path class="st2" d="M48.7,51.9c-0.6-1.2-1.3-5.5-2.7-6.5c-1.4-1-2.5-3.5-1.7-3c0.8,0.5,3.4,0.7,5.1,2.9c1.7,2.2,2.6,2.9,3.6,5.2
	s0.6,3.6-0.1,4.3c-0.6,0.7-1.4,2.3-1.8,2.4C50.8,57,49.3,53,48.7,51.9z"></path><path class="st2" d="M53.2,57.5c0.8-0.8,1.4-3.8,0.8-2.5c-0.6,1.3-3,3.3-3.2,3.3c-0.3,0-2.9-1.6-2.6-2.2c0.2-0.6-1-4.4-1.4-3.6
	c-0.4,0.8-0.5,2.7,0.1,3.3c0.6,0.6-1,3.3-1,3.8c0,0.6-0.6,0.8,1,1.4c1.6,0.6,3.5-1,3.6-0.1s-3.4,2.7-2.7,3.7c0.7,1,0.3,4,0.8,4.9
	c0.5,0.9-3.5,3.6-2.2,3.8c1.3,0.2,4-1,5.2-2.1c1.2-1.1,1.9-1,1.8-3.6c-0.2-2.6-0.4-2.7-1-3.5c-0.5-0.8-1.1-2.4-1-2.8
	c0.1-0.3-0.2-1.7,0.1-2.1C51.7,58.8,53.2,57.5,53.2,57.5z"></path><path class="st2" d="M54.2,59.8c1.1,0.5,4.7-1,6-1.7c1.3-0.7,2.7-4.4,2.7-4.4s-3.1,1.4-4.3,2.1c-1.3,0.7-2.7,2.2-3.3,2.3
	c-0.6,0.1-2.3,0.5-2.3,0.5L54.2,59.8z"></path><path class="st2" d="M53.5,60.5c0.9,0.5,3.5,0,4.9,1.2c1.4,1.2,3.6,4,4,3.9c0.4-0.2,1.6,0.6,0.2,1.2c-1.3,0.6-3.1,0.7-3.3,1
	c-0.3,0.3-0.2,2-1.3,0.9c-1.1-1-2.6-3.9-3.7-3.7c-1.1,0.1-2.5-1.2-2.6-1.6s-0.4-0.9-0.4-1.9c0-1-1-2.8,0.1-2.1S53.5,60.5,53.5,60.5z
	"></path><path class="st3" d="M53.3,49.8c0,0-1.5-10.8-3.5-13.8c-2-3-2.3-3.4-2.4-6s-2.7-7.9-2.7-7.9s-0.5,1.9-0.9,3.3
	c-0.4,1.4-2.5,4.7-2.4,6.1s-0.3,5,0.8,6.6c1.1,1.6,4.2,5.5,5.1,6.2c0.9,0.8,1.8,0.8,2.5,3.1c0.8,2.4,0.7,2,1.5,2.4
	S53.3,49.8,53.3,49.8z"></path><path class="st3" d="M23.6,36.6c-0.5-0.6-5.7-2-5.7-4.4s1.1-2.9,0-4c-1.1-1-3.7-0.6-4.9-1.1s-1.4-1.2-1.4-1.2s5,0.6,7.4,0.8
	c2.4,0.2,3.8,0.8,5.1,2.2c1.3,1.4,3,2.8,3.5,3.6c0.5,0.8,1.3,2,1.9,3c0.6,1,2.5,4.7,1.9,4.8c-0.7,0.1-4.6-0.7-4.8-1
	C26.4,38.9,23.6,36.6,23.6,36.6z"></path><path class="st4" d="M24.3,30c-0.2-1.2-2-2.6-1.6-5s0.7-4,0.8-4.6c0.1-0.7-0.1-3.3,0-3.7c0.1-0.4,2.3,2.1,3.8,3s4.6,1.5,5.7,4.2
	s-1.8,3.2,1.8,6.7c3.6,3.5,2.3,9,2.7,9.5s3.9,7.8,3.9,7.8s-9.2-3-9.4-4c-0.2-1-4.8-7.1-4.9-7.7C27,35.6,24.3,30,24.3,30z"></path><path class="st3" d="M39.2,46.8c-2.5-2.9-5.6-6.9-8.5-9.1s-6.4-3.2-9.9-3.7s-4.6-0.1-5.9-0.8c-1.3-0.8-4.2-1.7-4.2-1.7
	s7.4,5.6,9.6,6.8s5.3,3.7,6.9,4.4c1.6,0.8,4.4,2.5,6,2.9c1.6,0.4,2.7,1.3,3.5,1.2C37.4,46.7,39.2,46.8,39.2,46.8z"></path><path class="st5" d="M30.4,50.4c-0.3,0.1-8.9,2.8-11.7,4C16,55.7,8.4,61.1,7.5,62.2c-0.8,1-2.9,3.3-2.4,3.1c0.5-0.2,11.3-2.9,15.2-4
	c4-1,6.1-2.1,7.7-2.6c1.6-0.6,6.4-2.3,7-2.4c0.6-0.2,3-1.1,3.2-1.5c0.2-0.4,0-3.2,0-3.2L30.4,50.4z"></path><path class="st3" d="M40.9,49c-0.7-0.2-3.9-1.8-7.7-1.4c-3.9,0.4-4.2,1.5-6.5,0.7c-2.3-0.9-2.5-1.5-4.3-1.4c-1.8,0.1-2.5,0.6-3.9,0
	c-1.3-0.7-4.2-1.2-4.2-1.2s4.8,2.4,6.5,2.8c1.7,0.5,1.7,1,3.6,1.7c1.9,0.7,2.4,0.3,3.8,0.8c1.3,0.5,2.5,1.4,4,1.4c1.5,0,0.9-0.5,3,0
	s2,0.7,4,0.6c2.1-0.1,4.4-0.6,4.4-0.6s1.3,0,1.1-0.6S40.9,49,40.9,49z"></path><path class="st6" d="M45.8,45.6c0.2-0.7,0.3-8.1-0.4-9.9c-0.7-1.8-3.8-6.2-4.8-7.8s-3.3-5.8-3.3-5.8s-1.9,9.5-1.7,10.9
	c0.2,1.4,1.5,7.6,2.6,8.5c1.1,0.9,4,5.8,4.4,5.9c0.5,0.1,2,0.8,2,0.6C44.7,47.8,45.8,45.6,45.8,45.6z"></path><path class="st3" d="M39.2,75.3c0,0-2.8,3.2-3.5,3.9c-0.7,0.7-3.5,3.6-3.6,4s-3.4,2.5-3,3.9c0.4,1.3-1,7-1,8.2c0,1.2,0.4,1.7,2.4,0
	c2.1-1.7,4.8-4.4,6.3-5.2c1.5-0.8,3.8-1.5,4.7-2.7c0.9-1.2,0.5-3,0.9-4.9s0.6-5.6,0.7-6.1c0.1-0.5,0.8-2.2,0-2.3
	C42.3,73.9,39.2,75.3,39.2,75.3z"></path><path class="st3" d="M42.3,65.3c-0.8,0.3-8.6,2.2-10.2,4.7c-1.6,2.4-1.6,2.6-3.3,3.5c-1.7,0.8-4.1,1.2-5.6,1.4c-1.5,0.2-5,0-5,0
	s1.9-0.2,4-2.4c2.2-2.2,5-4.1,5.8-5.7c0.8-1.6,1.5-1.8,4.1-3.3c2.6-1.5,5.6-2.9,6.3-3.1s3.3-0.5,4-0.5c0.7,0,2.8,0.8,3.2,2.3
	S42.3,65.3,42.3,65.3z"></path><path class="st3" d="M37.7,57.9c0,0-10.3,2.3-11.4,3.1c-1,0.8-3,2.8-3.7,4.3c-0.7,1.6-1.5,2.5-0.6,2.1s4-2.7,5.5-3.5
	c1.5-0.8,6.9-1.8,8.2-2.4c1.2-0.6,3.6-0.6,5.2-1.6c1.5-1,2.9-1.7,1.8-2.1C41.5,57.5,37.7,57.9,37.7,57.9z"></path><path class="st3" d="M48.4,58.4c0,0-3-2.1-4-3.1c-1-1-1.4-0.4-2.9-0.6c-1.5-0.2-4.2-3.9-6.3-2.5s-4.5,4.1-5.6,4.4
	c-1.1,0.4-3.1,2.6-3.1,2.6c1.7-0.7,5.5,0.1,7.3,0c1.8-0.1,2.6,0.4,4.7,1s4.4,0.8,5.1,0.6c0.7-0.3,1.1,1.1,3.1,0.1
	S48.4,58.4,48.4,58.4z"></path><path class="st3" d="M55.1,25.9c0.5-0.6,1-4.5,3.5-6.4s4.8-5.3,4.8-5.3s-2.4,7.6-2.3,8.7s-0.2,5.4-0.2,6.2c0,0.8-2.1,7.6-1.7,8
	c0.4,0.4-2,3.9-2.3,4.5c-0.3,0.6-3,2.4-2.7,1.2s-0.9-5.2-0.7-7.7c0.2-2.5-0.3-4.1,0-5.8C53.7,27.6,55.1,25.9,55.1,25.9z"></path><path class="st3" d="M49.9,47.4c0.6-2.3,0.4-10.6,0-11.4c-0.4-0.8,1-3.4,0.4-5.7c-0.6-2.4,1.1-8,2.1-9.1c1-1.1,0.8-6.8,1-7.4
	c0.2-0.7,1.2-3.1,1.2-3.1s-1.1,2.2,0.9,6.1s1.5,12.6,2.1,14.2c0.6,1.5,1.8,5.8,0,9.3s-3.1,6.8-4,7.8c-0.8,1-0.2,1.8-1.3,1.3
	S49.9,47.4,49.9,47.4z"></path><path class="st3" d="M55.5,47.5c1.4-2.4,4-4.6,4.6-6.7s2.4-3.3,3.2-3.9c0.8-0.6,1.9-1.4,2.4-1.9c0.6-0.5,1.1-2.1,1-0.5
	s0.3,7.5-0.8,8.7c-1.1,1.2,0.2,3.3-3.6,4.8c-3.8,1.5-4.5,2-5.3,2.4s-3.6,0.6-3.8,0.8c-0.2,0.3-2.5,0.7-2.5,0.7L55.5,47.5z"></path><path class="st3" d="M68,44.4c0.8-0.8,2.4-3.1,5.2-4.2c2.8-1.1,3.3-1.2,5-1.8c1.7-0.6,4.1-1.3,4-1c-0.1,0.3-7.5,6-8.2,7.1
	c-0.7,1-2.2,4.2-4.4,4.9s-3.7,1-4.1,0.8c-0.5-0.2,0.2-1.2,0-2.1C65.3,47.1,68,44.4,68,44.4z"></path><path class="st3" d="M64.7,40.2c0,0,3.2-3.8,4.9-5.7c1.7-2,3.6-4.3,4.2-5.7c0.6-1.4,1.9-4,2.4-4.9c0.6-0.9,5.2-5.3,5.2-5.3
	s2.4-0.8,3-1.8s2.2-4,2.5-2.5c0.4,1.5-2,8.2-2.2,8.7c-0.2,0.5-7.4,13.5-7.6,13.9c-0.2,0.4-6.6,7.2-7.4,7.9S65.5,48,65.5,48l-2.2,0.8
	c0,0-0.4-1.6,0-2.4C63.7,45.6,64.7,40.2,64.7,40.2z"></path><path class="st7" d="M65.8,53.6c1.1-1.1,3.9-2,6-4.4c2.2-2.3,3.2-3.2,4.2-2.4c1,0.7,3.3,0.9,4.2,0c0.9-0.9,0.7-0.5,4.2-1.2
	s4.7,0.4,6.2,0c1.5-0.4,1.8-0.1,3.8-1.9c2-1.8,4.4-3.7,4.5-3.5c0.1,0.2-5.1,10.9-6.8,11.3c-1.7,0.4-6.7,1.2-7,1.4
	c-0.3,0.3-1,0.4,0.8,2c1.8,1.5,6.8,4.9,8,5.6c1.2,0.7,3.3,3.9,4.4,4.5c1.1,0.7,2.6,2.5,2.6,2.5s-7.4-2.5-9.1-3.2
	c-1.7-0.7-4-2.5-6.5-2.8c-2.4-0.3-2.2-0.7-5.6-1.5c-3.4-0.8-9.2-1.3-9.5-1.5c-0.3-0.2-2.6-0.7-3.1-1.1s-1.7-0.7-2-1.1
	S65.8,53.6,65.8,53.6z"></path><path class="st3" d="M65.3,62.6c0.1,0.1,2.9,4,3.9,4.3s4,3,4.2,4.2c0.3,1.2,3.6,6.4,3.9,7.2c0.3,0.8,1.1,5.4,1.5,5.8
	s1.1,3.9,0.6,3.3c-0.6-0.6-6.4-4.1-8.3-7.2s-5-6.6-5.2-7.4s-1.8-3.3-1.9-4.6c-0.1-1.3-0.6-2.6-0.8-3.9C63,63,65.3,62.6,65.3,62.6z"></path><path class="st3" d="M60.8,64.2c0.4,0.1,6.9,11.2,7.4,11.9c0.5,0.7,0.3,9,0,10.2c-0.3,1.2-1.1,3-0.8,3.7c0.4,0.7,1.1,2.4,1.1,2.4
	s-4.3-7.1-5.2-10c-0.9-2.9-3.4-3.8-4-6.3c-0.6-2.5-3-6-2.7-7.8s0.3-3.7,0.5-4c0.2-0.4,1.7-2.3,1.7-2.3L60.8,64.2z"></path><path class="st3" d="M53.3,62.9c0,0-0.8,3.6-0.9,5c-0.1,1.4,0.9,4.1,0.9,5.1c0,0.9,0.1,7.7,1.2,8.9c1.1,1.2,3.6,5.6,3.9,6.6
	c0.4,1,1.2,2.1,1.3,1.5c0.1-0.6-0.2-10-0.1-12.8c0.2-2.9-2.9-5.9-2-8.2c0.9-2.4-0.7-4.7-0.7-4.7s-1.4-1.3-1.6-1.6
	S53.3,62.9,53.3,62.9z"></path><path class="st8" d="M61.1,57.7c0.8-0.7,2.3-2.7,4.2-1.5s3,2.7,4.7,3.8c1.7,1,2.4,3.5,5.9,3.5c3.5,0,4.7-0.1,5.6,0
	c0.9,0.1,3.4,0,3.4,0s-2.4,2.1-4.5,2.4c-2.1,0.4-7,2.2-8.1,1.6c-1.1-0.7-3.2-1.4-4.7-3.5c-1.5-2.1-3.6-1.7-4.3-2.3s-1.5-0.6-2.3-1.8
	S61.1,57.7,61.1,57.7z"></path><path class="st7" d="M51.3,64.2c0,0,0.8,4.3,0.7,5.5c-0.1,1.1-2,4.1-3.6,5.3c-1.6,1.1-6.5,4-7,4.7c-0.5,0.8-1.5,2.3-2.3,2.8
	s-3.1,2.3-2.3,0.8c0.8-1.5,0.5-5.9,1.4-6.9s0-2.8-0.5-2.3c-0.5,0.5-3.1,1.9-1.1,0s2.8-4.3,3.6-6.6s0.7-3.4,1.9-4.9
	c1.2-1.6,4.2-2,4.7-2.6s-0.4-1.8,1.5-1.5c1.9,0.3,3.4-0.1,3.6,0.9c0.2,1-0.1,1.9,0,2.3S51.3,64.2,51.3,64.2z"></path><path class="st3" d="M48.9,49.4c-0.2-0.7-3.8-4.4-5.9-5c-2.1-0.7-3.4-0.1-4.1-1.5s-1.4-2-1.6-1.4c-0.2,0.6,2,5.8,3,6.1
	s1.1,1.6,2.2,1.8s2.4,0.8,2.8,0.6s1.5,0,2,0.1C47.8,50.2,48.9,49.4,48.9,49.4z"></path><path class="st3" d="M47.7,53.8c-1.3-0.2-5.2-2.1-6.9-1.5c-1.7,0.6-4.3,0.1-3.5-0.3c0.9-0.4,2.5-2.4,5.3-2.5s3.9-0.4,6.3,0
	c2.4,0.4,3.3,1.6,3.5,2.5c0.2,0.9,1.1,2.5,0.9,2.8C53.2,55,49,54,47.7,53.8z"></path><path class="st3" d="M55,53.3c-0.2-1.1-2.3-3.3-1.6-2.1c0.7,1.2,1,4.3,0.8,4.6c-0.2,0.2-3,1.4-3.4,0.9c-0.4-0.5-4.1-1.7-3.8-0.9
	c0.4,0.8,1.9,2,2.8,1.9s2.1,2.7,2.6,3c0.5,0.3,0.3,0.9,1.8,0c1.4-0.9,1.2-3.4,2-3c0.8,0.4,0.2,4.3,1.5,4.3s3.5,2.1,4.5,2.2
	s0.9,4.9,1.9,4s1.5-3.9,1.3-5.5c-0.2-1.6,0.3-2.1-1.9-3.5c-2.3-1.4-2.5-1.2-3.5-1.2c-1,0-2.7-0.5-2.8-0.8c-0.2-0.3-1.5-0.8-1.7-1.3
	C55.2,55.3,55,53.3,55,53.3z"></path><path class="st3" d="M57.4,53.8c1-0.7,1.9-4.4,2.1-5.8s-2.1-4.8-2.1-4.8s-0.6,3.3-0.8,4.8s0.3,3.5,0,4c-0.3,0.5-0.9,2.2-0.9,2.2
	L57.4,53.8z"></path><path class="st3" d="M57.6,54.8c0.9-0.4,2-2.9,3.8-3.3c1.8-0.5,5.4-0.6,5.5-1c0.1-0.4,1.4-0.9,1.1,0.5c-0.3,1.4-1.2,2.9-1.1,3.3
	c0.1,0.4,1.5,1.3,0,1.6c-1.5,0.3-4.6-0.1-5.2,0.9c-0.6,1-2.5,1.4-2.8,1.2c-0.4-0.2-0.9-0.2-1.8-0.8c-0.9-0.6-2.8-0.8-1.7-1.3
	C56.5,55.3,57.6,54.8,57.6,54.8z"></path><path class="st9" d="M32.7,37.4c-0.1-0.4-2-2.3-2-1.2c0,1.1,0.2,1.8,1,3s2.1,3,2,3.3c-0.1,0.3,0.6,0.9,1,0c0.4-0.9,0.5-0.6,0-1.8
	s-1-1.3-1.2-1.9S32.7,37.4,32.7,37.4z"></path><path class="st9" d="M36.7,45.3c-1.2-0.3-0.9,0.2-2.5-0.9c-1.6-1.1-3.1-1.4-3.1-1.4s0.6,0.7,1.4,1.2c0.8,0.5,0.3,0.8,1.4,1.2
	c1.1,0.4,0.4,0.8,1.6,0.4S36.7,45.3,36.7,45.3z"></path><path class="st9" d="M36,40.9c0.3-0.4-0.7-2.8,1.1-1.5c1.8,1.4,1.6,1.4,2.3,3s1.4,3.2,1.6,3.4c0.2,0.2,1.4,2.8,0,1.5
	c-1.4-1.3-1.5-2.4-2.7-3s-1-1-2.3-1.4C34.7,42.5,36,40.9,36,40.9z"></path><path class="st9" d="M44.4,43c0-0.6,0.1-3.2,1.4-3.5c1.3-0.3,1.8-0.1,1.8,0.9c0,1-1.4,1.9-1.2,2.7s0.4,1.7-0.4,1.4
	C45.2,44.2,44.4,43,44.4,43z"></path><path class="st9" d="M51.7,31.9c-0.2,0.9-1,2.1-0.8,3.2s0.2,3.1,0,4.4c-0.3,1.3,1.5,3.4,1.2,3.9c-0.3,0.5-0.9,2.8,0,2.5
	c1-0.4,1.8-1.2,1.6-2.9c-0.2-1.7-2.2-3.8-1.9-5.1c0.3-1.3,0.5-2.1,0.5-3.3C52.3,33.4,51.7,31.9,51.7,31.9z"></path><path class="st9" d="M61.6,27.4c0.3,0.3-0.6,5.8-0.7,7c-0.1,1.2-2.3,4.4-2.4,5c-0.1,0.6,0,0-1.4,0.9c-1.4,0.9-1.2,1.1-1.7,1.6
	c-0.5,0.4-2,1.6-1.8,2c0.2,0.4-0.5-1.7,0-4.8s2.1-4.7,2.1-6.2c0-1.6,0.1-4.3,0.8-2.7c0.7,1.6,0.9,3.6,0.9,3.6s0.6,0.1,1.3-0.7
	c0.7-0.8-0.7-0.2,1.1-2.1C61.7,29,61.6,27.4,61.6,27.4z"></path><path class="st9" d="M65.7,41.9c0.7-0.4,4.1-8.8,6.1-10.5c2.1-1.7,5-6.6,5-6.3c0,0.3-1.2,3.9-1.5,5.4c-0.3,1.5-1.1,5.1-1.6,5.5
	c-0.5,0.4-4.8,2.8-2.5,2.1s3.5-1.9,4.3-2.1c0.8-0.3,2.6-1.5,3.3-2.5c0.7-1,2.1-3.1,2.7-4.1c0.6-1,1.6-2,1.4-1.3
	c-0.2,0.7-8.1,11.6-9.7,12.7c-1.6,1.1-3.7,2.7-3.7,2.7s-2.2,0.3-2.6,0.5c-0.4,0.1-2.1,1.2-2.1,1.2s-1.7,0.9-1,0
	C64.5,44.2,65.7,41.9,65.7,41.9z"></path><path class="st9" d="M63.7,49.5c-0.1-0.3,1.7-1.7,2.9-2.4s2.6-0.6,2.5-1.7s-0.8-1.8-2.2-1.6c-1.4,0.1-2.5-0.5-3.1,1.2
	c-0.6,1.7-1.2,2.8-1.4,3.3s-1.4,2-1.6,1.9c-0.2,0-0.8,1.3,0,0.8C61.7,50.6,63.7,49.5,63.7,49.5z"></path><path class="st9" d="M42.2,48.4c0,0-2.1-1.5-3.1-1.5s-2.3,0.4-3,0.8s-2,0.9-0.8,1.2c1.3,0.3-0.3-0.7,2.2,0c2.5,0.7,1.3,0.7,2.5,0.7
	s0.2,1.1,1.2,0C42.2,48.4,42.2,48.4,42.2,48.4z"></path><path class="st9" d="M34.9,53.1c-1.7,0.3-4.6,1.3-5.1,1.7c-0.5,0.4-1.5,1.3-2.6,0c-1.1-1.3-2.3-1.6-1.4-2.6c0.9-1,1.4-3,2.4-1.9
	c1,1,1.8,1.6,2,1.8c0.3,0.2,0,0.8,1.4,0.1c1.4-0.7,3.2-0.5,3.4-0.4C35.1,51.9,34.9,53.1,34.9,53.1z"></path><path class="st9" d="M35,55.4c1-0.4,1.7,1.6,3.6,1.7c1.9,0.1,2.5-0.3,4.1,0c1.6,0.3,2,0.7,2.8,0.7c0.8,0,2.2,0,2.2,0
	s-1.1,0.4-2.4,0.6c-0.4,0.1-0.9,0.1-1.3,0.2c-1.8,0.1-3.3,1.4-3.7,1.7s-3.7-0.3-2.1,0.6c1.6,0.9,1.3,2.3,3.5,0
	c2.2-2.3,6.7-1.2,6.9-2.1s0.7-1.2-1.5-2.8s-3.2-3.7-4.3-3.2c-1.1,0.5-0.8,2.2-2,1.2s-1.4-1.4-3.1-1.3c-1.7,0.1-2.8,1-2.8,1.3
	C34.9,54.3,35,55.4,35,55.4z"></path><path class="st9" d="M49.6,58.9c-1.1-0.2-5.3,1.4-4.3,2.3c1,0.9,2.8-0.1,3.4,0c0.6,0.1,0.2,1,0,1.8c-0.2,0.8-0.8,2,0.4,1.6
	c1.2-0.4,1.9-0.2,2.6-1.5c0.7-1.3,0.1-1.9,1-2.7c0.9-0.8,1.1-1.7,0.8-2c-0.3-0.3-1.9,0-2.2,0S49.6,58.9,49.6,58.9z"></path><path class="st9" d="M52.2,65.5c0,0,0.1,3,0,4.1c-0.1,1.1-2.3,3-2.9,3.5s-1.2,2.6-1.8,0.7c-0.6-1.9-0.3-2.9,0-4.6
	c0.3-1.7-0.1-1.4,1.1-2.5s0.4-1,1.2-1.1C50.7,65.5,53.2,65.4,52.2,65.5z"></path><path class="st9" d="M21.6,71.7c-1.7,0.5-3.1,0.8-4.3,1.4c-1.2,0.6-3.4,2.4-1.7,2.6c1.7,0.2,2.1-0.3,5.1-0.5s4.7-0.2,5.2,0
	c0.5,0.2,1.3,0.6,0,1.3c-1.3,0.7-5.7,4.6-4.1,4.6s2.2,0.7,4.8-2.4c2.6-3.1,3-3.7,4.2-4.2c1.2-0.5,4.9-0.4,4.2-1.7
	c-0.8-1.3-0.3-1.4-2.8-1.6s-2.7,0.9-4.3,0c-1.6-0.9-2.3,0.3-3.3,0C23.6,70.9,21.6,71.7,21.6,71.7z"></path><path class="st9" d="M38.9,76c-0.2,0.4-1.8,0.2-2.8,2.2s-1.2,4.3-2.2,4.8c-1,0.5-2.6,1.9-2.8,2.4s-0.2,3.2,1.1,2.8
	c1.3-0.4,3.1,1.4,4-1.4c0.9-2.8,0.8-4.4,1.6-4.6s3.4,0,2.9,1.2c-0.5,1.2-2.8,4.3-2.8,4.3s-1,2.8,0,2.7c1-0.1,2.5-0.9,3.7-2.4
	c1.2-1.5,2-1,2.3-3.5c0.3-2.5-0.1-4.5,0-4.9s1.7-2.8,0.1-1.6c-1.6,1.2-3.7,2.9-4.3,3c-0.6,0.1-2.2,1.1-1.9-0.3
	c0.3-1.4-0.5-1.5,0-2.3C38.4,77.7,38.9,76,38.9,76z"></path><path class="st9" d="M53.7,61.5c0.3,0,0.3,2,0,3.2c-0.3,1.2-1.1,2.5-0.7,2.9c0.4,0.4,1.5,2.4,1.5,2.4s0.5,0.4,0.9-1.1
	c0.4-1.5,0.3-4.1,1-2.4c0.7,1.7,0.3,2.8,1.2,3c1,0.2,1.8,0.8,1.9-0.7c0.1-1.5,0.9-1.6,0-3c-0.9-1.4-1-1.4-1.9-2.3
	c-0.9-1-1.5-1.6-2-1.9C55,61.2,53.7,61.5,53.7,61.5z"></path><path class="st9" d="M61.6,64.7c0.8,0,2.9,3.2,3.2,4s2.1,1.5,2,2.3c-0.1,0.7,1.3,2.9,0,3.1c-1.3,0.2-0.6-1-2.3-2.4
	C62.8,70.2,62,69,61.6,70c-0.4,1,0.1,2.7,0,3.5c-0.1,0.8,0.2,3.3-0.1,2c-0.3-1.3-0.7-4.3-1-4.6c-0.3-0.3,0.8-3,0.7-3.7
	C61.1,66.5,59.3,64.7,61.6,64.7z"></path><path class="st9" d="M66.1,62.2c0.6,0.2,2.1,2.1,3.5,2.5c1.4,0.4,2.9,2.8,3.2,2.9s0.8,3.1,0.5,2.7c-0.2-0.4-1.5-1.4-3.1-1.9
	c-1.6-0.5-2.6-0.8-3.3-1.3c-0.7-0.5-0.9-0.9-0.8-1.4c0.1-0.5,0-2.2,0-2.2L66.1,62.2z"></path><path class="st9" d="M69.7,50.3c1.2-0.9,1.6-2.8,3.6-3.4c2-0.6,2.1-0.1,3.3,0c1.3,0.1,2.1,0.2,3-0.3s1.6-2,2.7-1.7s1.6,0.7,0.6,2.5
	c-1,1.8-2.9,3.5-4.5,3.7c-1.6,0.2-3.8,0.3-3.7,0.7c0.1,0.4,0,0.5,1.2,0.8c1.2,0.3,4.6,0.6,5.4-0.1c0.8-0.6,3.4-1.2,4.1-1.5
	c0.7-0.4-0.3,1,0,1.6c0.3,0.6,1.8,1.2,1,2.7c-0.8,1.5-2.5,2.4-3.4,2.3s-1.5,0.6-1.5,0.6s0.3,0.5-1.5,0s-5.6-1.3-7.2-1.4
	c-1.6-0.1-3.7-0.2-4.6-0.4s-2.2,0.7-2-0.6c0.2-1.3-0.5-1.4,0.4-2.5S69.7,50.3,69.7,50.3z"></path><path class="st9" d="M54.5,53.9c-0.4-1.3-2.4-3.6-2.8-3.9s-2.4-0.3-2.4,0c0,0.2-0.3,1.2,0.5,1.9c0.8,0.7,1.9,1.4,2.1,2.1
	c0.1,0.6,0.6,1.5,0.9,1.5s0.2,0.4,0.8,0C54.3,55.1,54.5,53.9,54.5,53.9z"></path><path class="st10" d="M32.7,35.1c-0.9-0.5-1.1-1.2-3.4-2.4c-2.4-1.2-3.9-1.1-4.8-1.4c-1-0.3-3,0-4-0.6c-1-0.6-2.6-1.2-2.6-1.2
	l0.6,2.5c0,0,2,4,2.5,5.1c0.5,1.1,0.5,2.3,2.3,2.6s3.8,0.9,4.4,0.8c0.6-0.1,2.4-0.3,2.4-0.3s1.2,0.1,2-0.4c0.8-0.6,1-0.3,1.1-1.3
	S32.7,35.1,32.7,35.1z"></path><path class="st10" d="M22.2,25c-0.2-2.4-0.5-2.7,0-4.2s0.8-2.9,0.8-3.4c0-0.5-2.1-1.4,0-0.5c2.1,0.9,5.1,2.2,6.2,3
	c1.1,0.8,2.5,3,2.4,3.4c-0.1,0.4-2.9,1.7-2.9,1.7l-2,0.6l-1.2,0.5C24.1,25.6,22.2,25,22.2,25z"></path><path class="st10" d="M23.8,27.9C23,27.8,21.3,27.6,20,27c-1.3-0.6-4.5-1.4-5.1-1.7c-0.6-0.3-1.1,0.5-1.1,0.5s2,0.9,3.2,1.7
	s2.3,1.2,3,1.5c0.7,0.3,1.3,0.6,1.9,0.6c0.6,0-0.4,0.5,0.8-0.6S23.8,27.9,23.8,27.9z"></path><path class="st10" d="M39.3,29.7c0.3-1.1,0.8-3.9,1.1-5.5c0.3-1.6,0.6-4.1,0.9-3.2c0.2,0.7,4.3,7.9,5.8,10.4
	c0.3,0.4,0.5,0.7,0.5,0.8c0.5,0.7,1.1,3.1,1.1,3.1l-5.4-6.5c0,0-2.1,3-1.8,3.7c0.3,0.7-0.3,2.5-0.6,2.3s-2.4-1-2.4-2.1
	C38.6,31.6,39.3,29.7,39.3,29.7z"></path><path class="st10" d="M58.5,13.1c0,0,0.2,3.7,0.5,4.3c0.3,0.6,0.9,1.6,0.9,1.6s0.9-2.3,1.8-2.9c0.9-0.6,2.7-1.1,2.7-1.1
	s-2.9,5.9-3,6.1c-0.1,0.2-1.2,2.1-1.1,0.8s-1.7-0.8-1.8-0.8c-0.1,0.1-0.6,1.6-0.8,0.7c-0.2-1-0.7-3-0.8-4c-0.1-1-0.8-2.1-0.4-2.3
	C56.9,15.1,58.5,13.1,58.5,13.1z"></path><path class="st10" d="M54,18.3c-0.2,0.3-2.6,3.1-2.5,3.8c0.1,0.7,0,2.1,0,2.1s0.4,0.6,1.2-0.7s1.3-2.2,1.3-2.2L54,18.3z"></path><path class="st10" d="M79.1,21.2c0.4-0.4,3.4-2.3,4.7-3.5s2.3-2.6,2.3-2.6s0.8,2,0.6,2.6c-0.2,0.6-1.7,5.1-1.9,5.4
	c-0.2,0.2-2.3,2-1.9,1.4c0.4-0.6,0-2.4-0.4-2.3c-0.4,0.1-1.7,0.1-1.8,0C80.6,22.2,79.1,21.2,79.1,21.2z"></path><path class="st10" d="M23.5,70.3C22,70.8,19,72.5,17.4,73c-1.6,0.5-4,0.8-4.7,1.6s-2.4,1.3-2.2,1.7c0.2,0.4,5.4-0.5,5.6-0.5
	c0.3,0,0.1,0.6,1.8,0.7c1.7,0.1,4.6,0.3,5.4,0c0.9-0.3,1.6,0.3,1.6-0.7c0-1-2.7-1.8-1.9-2.4s2.6-1.2,2.4-1.8
	c-0.2-0.6-0.1-1.4-1.1-1.4c-1,0-1.9,0-1.9,0"></path><path class="st10" d="M18.4,57.6c-0.1,0.5-0.5,2.1-0.7,2.5s1.4,0.6,1.8,0c0.5-0.6,0.2-1.1,0-1.1c-0.1,0.1-0.5,0.6-0.8-0.4
	S18.4,57.6,18.4,57.6z"></path><path class="st10" d="M16.1,61.6c-0.7,0.3-3.7,1.6-4.5,1.5c-0.8-0.1-4.2,2.8-1.8,0c2.4-2.8,2-3,3.5-4.1c1.5-1.2,2.7-1.6,2.8-1.7
	c0.1-0.2,0.4-0.2,0,0.9c-0.5,1.1-1.8,2.1-1.8,2.1l1.8,0.6L16.1,61.6z"></path><path class="st10" d="M57,54.7l2.6,2.7c0,0,0.9,2.6,0.9,0.7s-1.3-2.4-1.7-3.2c-0.4-0.8,1.3-1.8,1.3-1.8s2.1,0.2,2.4,0.8
	c0.3,0.6,0.9,2.9,0.9,2.9s0.4,2.1,0,1.6c-0.4-0.5-1-1.6-1.8-2.6s-0.2-1.4-1.5-1.1S57,54.7,57,54.7z"></path><path class="st10" d="M58.5,49.7c0.3-0.7,2-2.2,2.7-2.5s3-0.5,3-0.5s-1.4,1.2-1.3,1.5c0.2,0.9-1,1.7-1,1.7l-1.5,1.3
	c0,0-1.2-0.2-1.5,0c-0.3,0.2-1.4,0.3-1.3,0C57.7,50.9,58.5,49.7,58.5,49.7z"></path><path class="st10" d="M57.6,43.8l-1.9,5.2c0,0-0.9,1.5-0.6,1.6c0.3,0.1,1.1,1.4,1.1,1.4s-2.9,1-2.8,0c0-1.1,0.3-1.4,0.5-2.3
	c0.2-0.9,0.7-1.6,0.5-2.5s-1.1-0.9-0.5-1.5s1.9-1,2.4-1.4C56.6,43.8,57.6,43.8,57.6,43.8z"></path><path class="st10" d="M30.8,83.3c0,0.3-1.5,9.9-1.6,10.6c-0.1,0.7,0,4,0,4s2-4,2.6-4.8s4.7-4.3,4.9-5c0.2-0.7,2.1-3.9,0-2.6
	s-2.9,2.8-3.3,1.3c-0.4-1.5-1-1.9-0.8-2.5s-0.3-1.3-0.6-1.3C31.8,82.8,30.8,83.3,30.8,83.3z"></path><path class="st10" d="M73.2,73.7c0.1,0.2,1.2,1.8,2.2,3.4s2,4,3,4.3c1,0.3,2.7,2.3,2.2,2.3s-3.7-0.9-6-1.7c-2.4-0.8-5.1-0.8-5.6-1.9
	c-0.5-1-2-2.2-2.2-3.1s0.5-3.5,1.5-2.4c1,1.1,1.2,4.2,2.3,3.6c1.1-0.7,2.3-0.3,2.2-1.7c-0.1-1.3,0.2-1.1-0.3-1.9
	S73.2,73.7,73.2,73.7z"></path></g></svg>