<?xml version="1.0" encoding="utf-8"?>
<svg id="Layer_1" data-name="Layer 1" viewBox="0 0 108 108" xmlns="http://www.w3.org/2000/svg">
  <defs>
    <style>
      .cls-1 {
        fill: #5b88ce;
      }

      .cls-2 {
        fill: #739ad6;
      }

      .cls-3 {
        fill: #6dc54a;
      }
    </style>
  </defs>
  <g>
    <path class="cls-1" d="M 77.29 22.21 L 75.53 26.71 L 73.71 31.37 C 73.658 31.539 73.443 31.589 73.322 31.46 C 73.298 31.434 73.28 31.404 73.27 31.37 L 71.09 21.79 C 70.614 19.747 72.163 17.793 74.26 17.79 L 74.51 17.79 C 74.967 17.816 75.411 17.946 75.81 18.17 C 77.235 18.945 77.868 20.654 77.29 22.17 L 77.29 22.21 Z"/>
    <path class="cls-1" d="M 87.91 32.68 L 87.91 32.78 C 87.857 34.97 85.696 36.482 83.62 35.78 L 77.57 33.78 L 74.3 32.68 C 74.131 32.628 74.081 32.413 74.21 32.292 C 74.236 32.268 74.266 32.25 74.3 32.24 L 83.77 29.61 C 85.842 29.025 87.898 30.587 87.89 32.74 L 87.91 32.68 Z"/>
    <path class="cls-1" d="M 68.27 31.4 L 67 36.23 L 65.76 40.9 C 65.708 41.069 65.493 41.119 65.372 40.99 C 65.348 40.964 65.33 40.934 65.32 40.9 L 62.06 31.62 C 61.942 31.272 61.881 30.907 61.88 30.54 C 61.881 28.038 64.59 26.476 66.756 27.728 C 68.028 28.463 68.649 29.96 68.27 31.38 L 68.27 31.4 Z"/>
    <path class="cls-1" d="M 76.1 44.14 L 70.32 42.9 L 66.49 42.08 C 66.321 42.028 66.271 41.813 66.4 41.692 C 66.426 41.668 66.456 41.65 66.49 41.64 L 75.57 38 C 77.063 37.403 78.769 37.995 79.57 39.39 C 79.801 39.786 79.947 40.225 80 40.68 C 80.183 42.86 78.209 44.597 76.07 44.14 L 76.1 44.14 Z"/>
    <path class="cls-1" d="M 60.21 42.73 L 59.6 48 L 59.09 52.5 C 59.08 52.677 58.882 52.776 58.734 52.679 C 58.697 52.655 58.668 52.621 58.65 52.58 L 54.1 43.86 C 53.859 43.396 53.733 42.882 53.73 42.36 C 53.728 40.791 54.847 39.445 56.39 39.16 C 57.117 39.016 57.871 39.133 58.52 39.49 C 59.697 40.119 60.368 41.405 60.21 42.73 Z"/>
    <path class="cls-1" d="M 69.79 54.21 L 64.39 53.85 L 60 53.55 C 59.823 53.54 59.724 53.342 59.821 53.194 C 59.841 53.164 59.868 53.138 59.9 53.12 L 68.39 48.12 C 69.948 47.219 71.941 47.746 72.85 49.3 C 73.005 49.58 73.123 49.879 73.2 50.19 C 73.713 52.326 72.002 54.345 69.81 54.19 L 69.79 54.21 Z"/>
    <path class="cls-1" d="M 34.48 35.31 L 33.82 40.55 L 33.26 45.07 C 33.231 45.245 33.024 45.322 32.887 45.21 C 32.864 45.19 32.844 45.167 32.83 45.14 L 28.36 36.39 C 28.122 35.933 27.998 35.425 28 34.91 C 27.997 33.33 29.133 31.978 30.69 31.71 C 31.408 31.579 32.15 31.699 32.79 32.05 C 33.974 32.682 34.646 33.978 34.48 35.31 Z"/>
    <path class="cls-1" d="M 44 46.88 L 38.57 46.47 L 34.2 46.13 C 34.023 46.12 33.924 45.922 34.021 45.774 C 34.041 45.744 34.068 45.718 34.1 45.7 L 42.64 40.82 C 44.174 39.974 46.102 40.496 47 42 C 47.166 42.282 47.284 42.59 47.35 42.91 C 47.867 45.06 46.134 47.087 43.93 46.91 L 44 46.88 Z"/>
    <path class="cls-1" d="M 28 46.44 L 28 52 L 28 56.23 C 28 56.407 27.809 56.518 27.655 56.43 C 27.625 56.412 27.6 56.389 27.58 56.36 L 22.14 48.17 C 20.915 46.35 21.814 43.864 23.92 43.25 C 25.999 42.71 28.023 44.292 28 46.44 Z"/>
    <path class="cls-1" d="M 38.74 56.86 L 33.62 57.05 L 28.92 57.23 C 28.744 57.247 28.615 57.067 28.689 56.906 C 28.707 56.867 28.735 56.834 28.77 56.81 L 36.69 51 C 38.254 49.861 40.46 50.326 41.43 52 C 41.533 52.179 41.62 52.366 41.69 52.56 C 42.402 54.625 40.922 56.792 38.74 56.88 L 38.74 56.86 Z"/>
    <path class="cls-1" d="M 24.31 69.15 C 24.331 69.326 24.153 69.458 23.991 69.388 C 23.96 69.375 23.932 69.355 23.91 69.33 L 17.35 62 C 16.813 61.409 16.517 60.639 16.52 59.84 C 16.459 57.339 19.129 55.71 21.325 56.908 C 22.259 57.418 22.885 58.352 23 59.41 L 23.82 65.41 L 24.31 69.15 Z"/>
    <path class="cls-1" d="M 35.11 68.17 L 30.38 69 L 25.44 70 C 25.265 70.029 25.125 69.858 25.187 69.693 C 25.198 69.661 25.217 69.633 25.24 69.61 L 32.24 62.71 C 33.758 61.222 36.272 61.562 37.34 63.4 L 37.4 63.53 C 38.413 65.466 37.259 67.829 35.11 68.22 L 35.11 68.17 Z"/>
    <path class="cls-2" d="M 77.29 22.21 L 75.53 26.71 L 74.38 21.63 C 74.072 20.29 74.645 18.901 75.81 18.17 C 77.255 18.947 77.891 20.683 77.29 22.21 Z"/>
    <path class="cls-2" d="M 87.91 32.68 L 87.91 32.78 C 87.857 34.97 85.696 36.482 83.62 35.78 L 77.57 33.78 L 86.76 31.24 C 86.994 31.171 87.236 31.131 87.48 31.12 C 87.752 31.596 87.9 32.132 87.91 32.68 Z"/>
    <path class="cls-2" d="M 68.27 31.4 L 67 36.23 L 65.36 31.53 C 65.235 31.184 65.171 30.818 65.17 30.45 C 65.176 29.337 65.744 28.302 66.68 27.7 C 68.003 28.416 68.665 29.945 68.28 31.4 L 68.27 31.4 Z"/>
    <path class="cls-2" d="M 76.1 44.14 L 70.32 42.9 L 78.54 39.57 C 78.877 39.432 79.236 39.354 79.6 39.34 C 79.827 39.753 79.964 40.21 80 40.68 C 80.177 42.844 78.228 44.574 76.1 44.14 Z"/>
    <path class="cls-2" d="M 60.21 42.73 L 59.6 48 L 57.39 43.75 C 57.141 43.289 57.01 42.774 57.01 42.25 C 57.014 41.136 57.582 40.101 58.52 39.5 C 59.693 40.128 60.363 41.408 60.21 42.73 Z"/>
    <path class="cls-2" d="M 69.79 54.21 L 64.39 53.85 L 71.39 49.78 C 71.844 49.516 72.355 49.366 72.88 49.34 C 73.035 49.62 73.153 49.919 73.23 50.23 C 73.734 52.381 71.991 54.397 69.79 54.21 Z"/>
    <path class="cls-2" d="M 34.48 35.31 L 33.82 40.55 L 31.64 36.27 C 31.403 35.816 31.279 35.312 31.28 34.8 C 31.28 33.685 31.85 32.648 32.79 32.05 C 33.974 32.682 34.646 33.978 34.48 35.31 Z"/>
    <path class="cls-2" d="M 44 46.88 L 38.57 46.47 L 45.57 42.47 C 46.001 42.199 46.492 42.037 47 42 C 47.166 42.282 47.284 42.59 47.35 42.91 C 47.867 45.06 46.134 47.087 43.93 46.91 L 44 46.88 Z"/>
    <path class="cls-2" d="M 28 46.44 L 28 52 L 25.38 48.05 C 24.368 46.527 24.821 44.467 26.38 43.51 C 27.422 44.11 28.046 45.238 28 46.44 Z"/>
    <path class="cls-2" d="M 38.74 56.86 L 33.62 57.05 L 39.62 52.61 C 40.148 52.229 40.779 52.016 41.43 52 C 41.533 52.179 41.62 52.366 41.69 52.56 C 42.385 54.618 40.91 56.768 38.74 56.86 Z"/>
    <path class="cls-2" d="M 23.81 65.44 L 20.63 61.9 C 19.308 60.403 19.63 58.08 21.31 57 C 22.226 57.488 22.854 58.383 23 59.41 L 23.81 65.44 Z"/>
    <path class="cls-2" d="M 35.11 68.17 L 30.38 69 L 35.21 64.24 C 35.781 63.678 36.54 63.347 37.34 63.31 L 37.4 63.44 C 38.45 65.385 37.287 67.787 35.11 68.17 Z"/>
    <path class="cls-3" d="M 88.93 21.05 C 88.622 20.485 87.913 20.279 87.35 20.59 C 78.269 25.53 70.5 32.569 64.69 41.12 C 54.422 56.414 49.73 74.775 51.4 93.12 C 51.476 93.696 51.969 94.125 52.55 94.12 L 52.66 94.12 C 53.28 94.042 53.725 93.482 53.66 92.86 C 52.758 83.394 53.637 73.843 56.25 64.7 C 60.1 51.46 68.78 33.35 88.46 22.62 C 89.023 22.316 89.233 21.613 88.93 21.05 L 88.93 21.05 Z"/>
    <path class="cls-3" d="M 43.83 31.25 C 34.493 39.95 27.891 51.181 24.83 63.57 C 22.521 72.892 21.767 82.532 22.6 92.1 C 22.647 92.7 23.148 93.162 23.75 93.16 L 23.85 93.16 C 24.485 93.102 24.956 92.546 24.91 91.91 C 23.74 78.07 24.86 52 45.4 33 C 46.011 32.349 45.688 31.28 44.819 31.077 C 44.472 30.996 44.108 31.078 43.83 31.3 L 43.83 31.25 Z"/>
    <path class="cls-1" d="M 89.58 23.88 L 83.77 25.74 L 80.22 26.87 C 80.051 26.922 79.889 26.771 79.928 26.599 C 79.936 26.567 79.95 26.536 79.97 26.51 L 86 18.78 C 86.608 17.988 87.552 17.526 88.55 17.53 C 89.091 17.529 89.624 17.663 90.1 17.92 C 90.548 18.159 90.932 18.502 91.22 18.92 C 92.467 20.715 91.622 23.205 89.54 23.87 L 89.58 23.88 Z"/>
    <path class="cls-1" d="M 46.8 33.89 L 42.29 36.71 L 38.46 39.1 C 38.309 39.192 38.115 39.087 38.11 38.91 C 38.109 38.875 38.116 38.841 38.13 38.81 L 42.13 29.81 C 42.895 28.072 44.98 27.357 46.65 28.26 C 46.86 28.377 47.057 28.514 47.24 28.67 C 48.889 30.103 48.683 32.723 46.83 33.88 L 46.8 33.89 Z"/>
    <path class="cls-2" d="M 89.58 23.88 L 83.77 25.74 L 89.32 18.66 C 89.548 18.368 89.826 18.117 90.14 17.92 C 90.588 18.159 90.972 18.502 91.26 18.92 C 92.516 20.717 91.67 23.217 89.58 23.88 Z"/>
    <path class="cls-2" d="M 46.8 33.89 L 42.29 36.71 L 45.39 29.71 C 45.644 29.116 46.073 28.614 46.62 28.27 C 46.83 28.387 47.027 28.524 47.21 28.68 C 48.859 30.113 48.653 32.733 46.8 33.89 L 46.8 33.89 Z"/>
  </g>
</svg>