<svg xmlns="http://www.w3.org/2000/svg" version="1.1" xmlns:xlink="http://www.w3.org/1999/xlink" xmlns:svgjs="http://svgjs.dev/svgjs" viewBox="0 0 108 108" style="" x="0" y="0"><style type="text/css">
	.st0{fill:none;stroke:#708530;stroke-width:1.0633;stroke-miterlimit:10;}
	.st1{fill:#A6C339;}
	.st2{fill:#007131;}
	.st3{fill:#5E6530;}
	.st4{fill:#566B2A;}
	.st5{fill:#92B83E;}
	.st6{fill:#7C773E;}
	.st7{fill:#A5C939;}
	.st8{fill:#72AA3A;}
	.st9{fill:#506326;}
	.st10{fill:#E798C2;}
	.st11{fill:#F392BD;}
	.st12{fill:#F6ADCD;}
	.st13{fill:#BC0653;}
	.st14{fill:#820642;}
	.st15{fill:none;}
	.st16{fill:#B64784;}
	.st17{fill:#C87497;}
	.st18{fill:#903569;}
</style><g><path class="st0" d="M71.2,72.8c-0.1-2.5-1.1-7.1-1.8-10.3"></path><path class="st0" d="M77.9,69.5c-3.4-1.3-7.7-4.4-9.8-7.7"></path><path class="st0" d="M79.1,62.9c-3.8,1.8-7,4-9.6,0.1"></path><path class="st0" d="M63.7,55.7c-4-3.1-7.9-7.3-9.4-10.9"></path><path class="st0" d="M55.4,58.7c0.5-5.3-1-13.3-1.2-15"></path><path class="st0" d="M62.6,48.7c-3.1,1-4.9,2.5-8-2.7"></path><path class="st1" d="M65.7,77.8c-0.3-2-1.4-2.4,2-6l3.4-3.6c0,0,0.7,0.8,1.5,1.7c0.8,0.9,4.1,3.8,2.6,7.3c-1.5,3.4-2.8,5.3-3.3,5.9
	c-0.5,0.5-1.8,2.7-2.2,3.2"></path><path class="st2" d="M89.5,78.8c-2.5-1-6,1.2-9-0.9c-3-2.1-4.7-7.3-5.4-8.8c-0.7-1.5-1.9-0.8,0.9-0.9c2.8-0.1,3-1,5.4-0.4
	c2.5,0.6,5.8,4.2,6.1,5.8C87.7,75.1,89.5,78.8,89.5,78.8"></path><path class="st3" d="M74.8,65.1c0.7,0,1.6,0.6,5.1,0.7c3.5,0.1,6.3-0.3,7-3c0.6-2.7-0.3-3.2,1.3-5l1.5-1.8c0,0-3.1-0.1-7.3,0
	c-4.3,0.1-6.2,4.4-6.8,6.2C75,63.9,74.8,65.1,74.8,65.1"></path><path class="st4" d="M72.8,65.1c0,0-1.6-1.8-5-1.8c-3.4,0-7-1.7-7-5.2c0-3.5-1.1-5.5-1.1-5.5s-0.1,0.5,2.8,0.3
	c2.9-0.2,7.1,1.8,8.2,4.7C71.9,60.4,72.8,65.1,72.8,65.1"></path><path class="st5" d="M52.7,69.6c0,0,4.3-4.3,5.6-7.3c1.3-2.9,1.7-4.7,0-6.8c-1.7-2.1-2.3-3.8-2.3-3.8s-2.4,3.6-4,4.5
	c-1.6,0.8-3.4,3.8-2.5,5.6C50.3,63.6,52.7,69.6,52.7,69.6"></path><path class="st6" d="M59.5,49.6c0,0.1,2.6,1.1,5.7,1.5c3.1,0.4,4.7,0.4,5.9-1.2c1.2-1.5,2-3.1,2.9-4.9c0.9-1.8,1-2.5,1.7-2.7
	c0.7-0.2-0.9,0.6-4.3-0.2c-3.4-0.8-5-1.8-6.4-0.7c-1.4,1.1-1.4,3.2-2.5,4.8C61.3,47.9,59.5,49.6,59.5,49.6"></path><path class="st0" d="M26.9,71.1c2.5-0.7,6.6-2.8,9.6-4.2"></path><path class="st0" d="M31.7,76.8c0.5-3.6,2.4-8.5,5-11.4"></path><path class="st0" d="M38.4,76.3c-2.7-3.2-5.6-5.8-2.5-9.3"></path><path class="st0" d="M41.7,59.6c2-4.7,5.1-9.4,8.3-11.8"></path><path class="st0" d="M36.8,52.3c5.2-0.8,12.7-4.2,14.3-4.8"></path><path class="st0" d="M48.2,56.8c-1.7-2.8-3.6-4.1,0.7-8.4"></path><path class="st2" d="M20.7,67c1.9-0.8,2-1.9,6.3,0.5l4.3,2.4c0,0-0.6,0.8-1.3,1.8c-0.7,1-2.7,4.9-6.4,4.3c-3.7-0.6-5.8-1.4-6.5-1.8
	c-0.6-0.4-3.1-1.1-3.7-1.4"></path><path class="st7" d="M25.6,90.3c0.4-2.6-2.6-5.5-1.3-8.9c1.3-3.4,5.9-6.3,7.2-7.4c1.3-1.1,0.3-2.1,1.1,0.6c0.7,2.7,1.7,2.6,1.7,5.2
	c0,2.5-2.7,6.7-4.1,7.3C28.8,87.6,25.6,90.3,25.6,90.3"></path><path class="st3" d="M35.3,72.6c0.2,0.7-0.2,1.7,0.6,5.1s1.9,6.1,4.7,6c2.8-0.1,3.1-1,5.2,0l2.1,1c0,0-0.7-3-1.8-7.1
	c-1.2-4.1-5.8-5-7.7-5C36.5,72.6,35.3,72.6,35.3,72.6"></path><path class="st4" d="M34.8,70.8c0,0,1.4-2,0.5-5.3c-0.8-3.3-0.1-7.2,3.3-8.1c3.4-0.9,5.1-2.5,5.1-2.5s-0.5,0.1,0.4,2.8
	c0.9,2.8,0,7.3-2.5,9.1C39.1,68.8,34.8,70.8,34.8,70.8"></path><path class="st5" d="M25.5,52.4c0,0,5.3,3.1,8.4,3.7c3.2,0.6,4.9,0.5,6.5-1.7c1.6-2.2,3.1-3.2,3.1-3.2s-4.1-1.5-5.3-2.8
	c-1.2-1.3-4.5-2.3-6-1.1C30.7,48.6,25.5,52.4,25.5,52.4"></path><path class="st6" d="M46.5,54c-0.1,0-0.5,2.8-0.1,5.9c0.4,3.1,0.8,4.7,2.6,5.5c1.8,0.8,3.5,1.2,5.5,1.6c1.9,0.4,2.7,0.3,3,1
	c0.3,0.6-0.8-0.7-0.8-4.2s0.5-5.3-0.9-6.4c-1.4-1.1-3.4-0.5-5.3-1.3C48.6,55.3,46.5,54,46.5,54"></path><path class="st0" d="M34.2,27.7c0.8,2.4,3.1,6.5,4.7,9.4"></path><path class="st0" d="M28.8,32.8c3.6,0.3,8.6,1.9,11.6,4.5"></path><path class="st0" d="M29.6,39.5c3.1-2.9,5.5-5.8,9.1-3"></path><path class="st0" d="M46.4,41.9c4.8,1.8,9.7,4.6,12.2,7.7"></path><path class="st0" d="M53.4,36.6c1.1,5.2,4.8,12.5,5.5,14"></path><path class="st0" d="M49.6,48.3c2.7-1.9,3.9-3.8,8.4,0.2"></path><path class="st1" d="M38,21.3c0.9,1.8,2,1.9-0.2,6.4l-2.2,4.4c0,0-0.9-0.5-1.9-1.2c-1-0.6-5.1-2.5-4.6-6.2c0.4-3.7,1.1-5.9,1.4-6.6
	c0.3-0.7,1-3.1,1.2-3.7"></path><path class="st2" d="M15,27.3c2.7,0.3,5.4-2.9,8.9-1.8c3.5,1.1,6.6,5.6,7.7,6.8c1.1,1.2,2.1,0.2-0.6,1.1c-2.7,0.9-2.6,1.8-5.1,2
	c-2.5,0.2-6.8-2.3-7.5-3.7C17.8,30.4,15,27.3,15,27.3"></path><path class="st3" d="M33.1,36.2C32.4,36.4,31.4,36,28,37c-3.4,1-6,2.2-5.8,4.9c0.2,2.8,1.2,3,0.3,5.2l-0.9,2.1c0,0,2.9-0.8,7-2.2
	c4-1.4,4.7-6.1,4.6-7.9C33.2,37.3,33.1,36.2,33.1,36.2"></path><path class="st4" d="M34.9,35.6c0,0,2.1,1.3,5.3,0.3c3.2-1,7.2-0.5,8.2,2.9c1,3.4,2.7,4.9,2.7,4.9s-0.1-0.5-2.8,0.6
	c-2.7,1.1-7.3,0.4-9.2-2.1C37.2,39.8,34.9,35.6,34.9,35.6"></path><path class="st5" d="M52.8,25.3c0,0-2.9,5.4-3.3,8.6c-0.4,3.2-0.2,5,2,6.5c2.2,1.5,3.3,2.9,3.3,2.9s1.3-4.2,2.5-5.5
	c1.3-1.3,2.1-4.6,0.8-6.1C56.9,30.3,52.8,25.3,52.8,25.3"></path><path class="st6" d="M52.3,46.4c0-0.1-2.8-0.3-5.8,0.2c-3,0.5-4.6,1.1-5.3,2.9c-0.7,1.8-1,3.6-1.3,5.6c-0.3,2-0.2,2.7-0.8,3.1
	c-0.6,0.4,0.7-0.9,4.2-1c3.5-0.2,5.3,0.2,6.3-1.3c1-1.5,0.4-3.4,1-5.3C51,48.6,52.3,46.4,52.3,46.4"></path><path class="st0" d="M79.2,33.6c-2.5,0.4-6.9,2.1-10,3.2"></path><path class="st0" d="M75,27.4c-0.9,3.5-3.3,8.2-6.2,10.8"></path><path class="st0" d="M68.3,27.2c2.4,3.5,4.9,6.3,1.5,9.5"></path><path class="st0" d="M63.3,43.4c-2.5,4.4-6.1,8.8-9.5,10.8"></path><path class="st0" d="M67.4,51.1c-5.3,0.3-13.1,2.8-14.7,3.3"></path><path class="st0" d="M56.5,45.5c1.4,3,3.2,4.5-1.5,8.3"></path><path class="st1" d="M84.9,38.3c-2,0.6-2.2,1.7-6.3-1.2l-4-2.8c0,0,0.7-0.8,1.4-1.7c0.8-0.9,3.2-4.6,6.8-3.6c3.6,1,5.7,2,6.3,2.4
	c0.6,0.4,2.9,1.4,3.5,1.7"></path><path class="st7" d="M82.5,14.6c-0.7,2.6,2,5.8,0.4,9c-1.7,3.3-6.5,5.7-7.9,6.6c-1.4,0.9-0.6,2-1-0.8c-0.5-2.8-1.4-2.8-1.2-5.3
	c0.2-2.5,3.4-6.4,4.8-6.8C79.1,16.9,82.5,14.6,82.5,14.6"></path><path class="st2" d="M71,31.1c-0.1-0.7,0.4-1.6-0.1-5.1c-0.4-3.5-1.2-6.2-4-6.5c-2.8-0.2-3.2,0.7-5.2-0.5l-2-1.3c0,0,0.3,3,1,7.2
	c0.7,4.2,5.3,5.6,7.1,5.8C69.8,31,71,31.1,71,31.1"></path><path class="st4" d="M71.3,33c0,0-1.6,1.9-1.1,5.2c0.5,3.3-0.7,7.2-4.2,7.7c-3.5,0.5-5.3,1.9-5.3,1.9s0.5,0-0.1-2.9
	c-0.6-2.9,0.8-7.2,3.5-8.8C66.8,34.6,71.3,33,71.3,33"></path><path class="st5" d="M78.6,52.3c0,0-4.9-3.7-8-4.6c-3.1-0.9-4.9-1-6.7,1c-1.8,2-3.4,2.8-3.4,2.8s3.9,1.9,5,3.4
	c1.1,1.5,4.2,2.8,5.9,1.7C73.1,55.5,78.6,52.3,78.6,52.3"></path><path class="st6" d="M57.9,48.4c0.1,0,0.8-2.7,0.7-5.8c-0.1-3.1-0.3-4.7-2-5.7c-1.7-1-3.4-1.6-5.3-2.2c-1.9-0.6-2.6-0.6-2.9-1.3
	c-0.3-0.7,0.7,0.8,0.4,4.3c-0.4,3.5-1,5.2,0.3,6.5c1.3,1.2,3.3,0.9,5.1,1.8C55.9,46.9,57.9,48.4,57.9,48.4"></path><path class="st8" d="M54.3,61.6c-0.1-2.5-1.1-7.1-1.8-10.3"></path><path class="st8" d="M61.1,58.3c-3.4-1.3-7.7-4.4-9.8-7.7"></path><path class="st8" d="M62.2,51.7c-3.8,1.8-7,4-9.6,0.1"></path><path class="st8" d="M46.9,44.5c-4-3.1-7.9-7.3-9.4-10.9"></path><path class="st8" d="M38.6,47.5c0.5-5.3-1-13.3-1.2-15"></path><path class="st8" d="M45.7,37.4c-3.1,1-4.9,2.5-8-2.7"></path><path class="st8" d="M48.9,66.6c-0.3-2-1.4-2.4,2-6l3.4-3.6c0,0,0.7,0.8,1.5,1.7c0.8,0.9,4.1,3.8,2.6,7.3c-1.5,3.4-2.8,5.3-3.3,5.9
	c-0.5,0.5-1.8,2.7-2.2,3.2"></path><path class="st8" d="M72.6,67.6c-2.5-1-6,1.2-9-0.9c-3-2.1-4.7-7.3-5.4-8.8c-0.7-1.5-1.9-0.8,0.9-0.9c2.8-0.1,3-1,5.4-0.4
	c2.5,0.6,5.8,4.2,6.1,5.8C70.9,63.9,72.6,67.6,72.6,67.6"></path><path class="st8" d="M57.9,53.8c0.7,0,1.6,0.6,5.1,0.7c3.6,0.1,6.3-0.3,7-3c0.6-2.7-0.3-3.2,1.3-5l1.5-1.8c0,0-3.1-0.1-7.3,0
	c-4.3,0.1-6.2,4.4-6.8,6.2C58.2,52.7,57.9,53.8,57.9,53.8"></path><path class="st8" d="M56,53.9c0,0-1.6-1.8-5-1.8c-3.4,0-7-1.7-7-5.2c0-3.5-1.1-5.5-1.1-5.5s-0.1,0.5,2.8,0.3
	c2.9-0.2,7.1,1.8,8.2,4.7C55.1,49.2,56,53.9,56,53.9"></path><path class="st8" d="M35.9,58.4c0,0,4.3-4.3,5.6-7.3c1.3-2.9,1.7-4.7,0-6.8c-1.7-2.1-2.3-3.8-2.3-3.8s-2.4,3.6-4,4.5
	c-1.6,0.8-3.4,3.8-2.5,5.6C33.5,52.4,35.9,58.4,35.9,58.4"></path><path class="st8" d="M42.6,38.4c0,0.1,2.6,1.1,5.7,1.5c3.1,0.4,4.7,0.4,5.9-1.2c1.2-1.5,2-3.1,2.9-4.9c0.9-1.8,1-2.5,1.7-2.7
	c0.7-0.2-0.9,0.6-4.3-0.2c-3.4-0.8-5-1.8-6.4-0.7c-1.4,1.1-1.4,3.2-2.5,4.8C44.4,36.7,42.6,38.4,42.6,38.4"></path><path class="st0" d="M83.8,53.9c-2-1.6-6.2-3.7-9.1-5.2"></path><path class="st0" d="M85.5,46.6c-3.2,1.7-8.3,3.1-12.1,2.7"></path><path class="st0" d="M81.1,41.5c-1,4.1-1.4,7.9-6,7.5"></path><path class="st0" d="M65.8,48.8c-5,1.1-10.6,1.5-14.4,0.3"></path><path class="st0" d="M62.8,57.1c-3.8-3.7-10.9-7.7-12.3-8.6"></path><path class="st0" d="M59.6,45.2c-1.2,3-1.2,5.4-7.1,4.4"></path><path class="st1" d="M84.1,61.3c-1.8-1-2.7-0.5-3.4-5.4L80.1,51c0,0,1,0,2.2-0.1c1.2,0,5.6-0.7,7.3,2.6c1.7,3.3,2.3,5.5,2.4,6.3
	c0.1,0.7,0.9,3.1,1.1,3.8"></path><path class="st2" d="M100,43.6c-2.4,1.2-2.9,5.4-6.4,6.4c-3.5,1-8.6-1-10.2-1.4c-1.6-0.4-1.9,1-0.1-1.3c1.8-2.2,1.1-2.9,3.1-4.5
	c2-1.5,7-1.8,8.3-1C96,42.6,100,43.6,100,43.6"></path><path class="st3" d="M80,46.2c0.5-0.6,1.5-0.8,3.7-3.5c2.3-2.7,3.8-5.1,2.1-7.3c-1.7-2.2-2.7-1.9-3.1-4.2l-0.4-2.3
	c0,0-2,2.3-4.6,5.7c-2.6,3.4-0.6,7.6,0.5,9.2C79.3,45.3,80,46.2,80,46.2"></path><path class="st4" d="M78.9,47.7c0,0-2.4,0.1-4.6,2.7c-2.1,2.6-5.8,4.4-8.5,2.1c-2.7-2.3-5-2.6-5-2.6s0.3,0.4,2-2
	c1.7-2.4,5.9-4.3,8.8-3.4C74.7,45.4,78.9,47.7,78.9,47.7"></path><path class="st5" d="M69.5,66.1c0,0-0.6-6.1-2-9c-1.4-2.9-2.5-4.3-5.2-4.3c-2.7,0-4.4-0.6-4.4-0.6s1.3,4.2,0.9,5.9
	c-0.4,1.8,0.8,5,2.7,5.5C63.4,64.2,69.5,66.1,69.5,66.1"></path><path class="st6" d="M58.4,48.2c0,0,2.5-1.3,4.8-3.4c2.2-2.1,3.3-3.4,2.9-5.3c-0.4-1.9-1.1-3.6-2-5.4c-0.8-1.8-1.3-2.3-1-3
	c0.3-0.7-0.1,1.1-2.9,3.2c-2.8,2.1-4.6,2.7-4.6,4.5c0,1.8,1.6,3.1,2.1,5C58.2,45.7,58.4,48.2,58.4,48.2"></path><path class="st0" d="M54.3,87c1-2.3,2.1-6.9,2.8-10.1"></path><path class="st0" d="M61.8,86.9c-2.5-2.7-5.1-7.2-5.6-11.1"></path><path class="st0" d="M65.6,81.4c-4.2,0-8,0.6-8.7-4"></path><path class="st0" d="M54.8,68.3c-2.3-4.5-4-9.9-3.8-13.9"></path><path class="st0" d="M46.1,67.5c2.7-4.6,4.8-12.5,5.3-14.1"></path><path class="st0" d="M56.8,61.5c-3.2-0.4-5.5,0.2-6.1-5.8"></path><path class="st2" d="M47.2,89.1c0.6-2-0.2-2.8,4.4-4.6l4.6-1.8c0,0,0.3,1,0.6,2.1c0.3,1.1,2.1,5.2-0.7,7.7c-2.8,2.5-4.8,3.6-5.5,3.9
	c-0.7,0.3-2.8,1.7-3.4,2"></path><path class="st7" d="M68.3,100.2c-1.8-2-5.9-1.5-7.7-4.7c-1.8-3.2-1.1-8.6-1.1-10.2c0-1.7-1.4-1.6,1.2-0.4c2.6,1.2,3.1,0.4,5.1,1.9
	c2,1.6,3.5,6.3,3,7.8C68.3,96.1,68.3,100.2,68.3,100.2"></path><path class="st3" d="M60.8,81.5c0.7,0.3,1.2,1.2,4.3,2.8c3.2,1.6,5.9,2.4,7.6,0.2c1.7-2.2,1.2-3,3.3-4l2.1-1c0,0-2.7-1.4-6.6-3.1
	c-3.9-1.7-7.5,1.3-8.8,2.7C61.6,80.6,60.8,81.5,60.8,81.5"></path><path class="st4" d="M59.1,80.7c0,0-0.7-2.3-3.7-3.8c-3-1.4-5.6-4.5-4.1-7.7c1.5-3.2,1.3-5.5,1.3-5.5s-0.3,0.4,2.5,1.5
	c2.7,1,5.6,4.6,5.4,7.7C60.3,76.1,59.1,80.7,59.1,80.7"></path><path class="st5" d="M38.9,76.2c0,0,5.7-2.1,8.2-4.2c2.4-2.1,3.5-3.5,2.9-6.1c-0.7-2.6-0.5-4.4-0.5-4.4s-3.7,2.2-5.5,2.3
	c-1.8,0.1-4.7,2-4.6,4C39.3,69.8,38.9,76.2,38.9,76.2"></path><path class="st6" d="M53.6,61c0,0.1,1.9,2.1,4.5,3.8c2.6,1.6,4.1,2.3,5.9,1.5c1.7-0.9,3.2-2,4.7-3.2c1.5-1.2,1.9-1.9,2.7-1.7
	c0.7,0.2-1.1,0.2-3.8-2c-2.7-2.2-3.8-3.7-5.5-3.3c-1.7,0.4-2.6,2.3-4.3,3.3C55.9,60.2,53.6,61,53.6,61"></path><path class="st0" d="M25.5,53.7c2.4,0.9,7,1.7,10.2,2.3"></path><path class="st0" d="M25.9,61.2c2.5-2.6,7-5.4,10.8-6.1"></path><path class="st0" d="M31.6,64.8c-0.2-4.2-1-8,3.5-8.9"></path><path class="st0" d="M44.1,53.4c4.4-2.5,9.7-4.5,13.7-4.5"></path><path class="st0" d="M44.5,44.6c4.7,2.4,12.7,4.2,14.3,4.6"></path><path class="st0" d="M51.1,55c0.3-3.3-0.4-5.5,5.5-6.4"></path><path class="st1" d="M22.9,46.8c2,0.5,2.8-0.3,4.8,4.2l2,4.5c0,0-1,0.3-2.1,0.7c-1.1,0.4-5.1,2.4-7.7-0.4c-2.6-2.7-3.8-4.6-4.2-5.3
	c-0.3-0.7-1.8-2.7-2.1-3.3"></path><path class="st2" d="M12.9,68.4c1.9-1.9,1.2-6,4.3-8c3.1-2,8.5-1.6,10.2-1.7c1.7-0.1,1.5-1.5,0.5,1.2c-1,2.6-0.2,3.1-1.7,5.2
	c-1.5,2-6.1,3.8-7.6,3.4C17.1,68.2,12.9,68.4,12.9,68.4"></path><path class="st3" d="M31.3,60c-0.3,0.7-1.1,1.2-2.6,4.5c-1.4,3.3-2.1,6,0.2,7.6c2.3,1.6,3.1,1,4.2,3.1l1.1,2.1c0,0,1.3-2.8,2.8-6.8
	c1.5-4-1.7-7.5-3.2-8.6C32.2,60.7,31.3,60,31.3,60"></path><path class="st4" d="M31.9,58.2c0,0,2.3-0.8,3.6-3.9c1.3-3.1,4.2-5.9,7.5-4.5c3.3,1.4,5.5,1,5.5,1s-0.4-0.3-1.3,2.5
	c-0.9,2.8-4.3,5.9-7.5,5.8C36.6,59.2,31.9,58.2,31.9,58.2"></path><path class="st5" d="M35.5,37.9c0,0,2.4,5.6,4.6,8c2.2,2.3,3.7,3.3,6.3,2.5c2.6-0.8,4.4-0.7,4.4-0.7S48.2,44,48,42.3
	c-0.2-1.8-2.2-4.6-4.2-4.4C41.9,37.9,35.5,37.9,35.5,37.9"></path><path class="st6" d="M51.3,51.7c-0.1,0-2,2-3.5,4.7c-1.5,2.7-2.1,4.2-1.2,5.9c1,1.7,2.1,3.1,3.5,4.5c1.3,1.5,2,1.9,1.8,2.6
	c-0.1,0.7-0.2-1.1,1.8-3.9c2.1-2.8,3.5-4,3.1-5.7c-0.5-1.7-2.4-2.5-3.5-4.1C52.3,54.1,51.3,51.7,51.3,51.7"></path><path class="st0" d="M58.5,22.8c-1.3,2.2-2.8,6.6-3.9,9.7"></path><path class="st0" d="M51.1,22.1c2.2,2.9,4.3,7.7,4.4,11.6"></path><path class="st0" d="M46.7,27.1c4.2,0.4,8,0.2,8.3,4.9"></path><path class="st0" d="M56,41.3c1.8,4.8,2.9,10.3,2.3,14.2"></path><path class="st0" d="M64.6,43c-3.1,4.3-6.1,11.9-6.8,13.4"></path><path class="st0" d="M53.3,47.9c3.2,0.8,5.5,0.4,5.4,6.4"></path><path class="st1" d="M65.8,21.4c-0.8,1.9-0.1,2.8-4.9,4.1l-4.7,1.3c0,0-0.2-1-0.4-2.2c-0.2-1.2-1.5-5.4,1.5-7.6
	c3.1-2.2,5.2-3.1,5.9-3.3c0.7-0.2,3-1.4,3.6-1.6"></path><path class="st7" d="M46,8.1c1.6,2.2,5.7,2.1,7.2,5.4c1.5,3.3,0.2,8.7,0.1,10.3c-0.2,1.6,1.2,1.7-1.2,0.3c-2.4-1.4-3.1-0.7-4.9-2.5
	c-1.8-1.8-2.8-6.7-2.2-8.1C45.6,12.3,46,8.1,46,8.1"></path><path class="st2" d="M51.4,27.5c-0.6-0.4-1-1.3-4-3.2c-3-1.9-5.6-3-7.5-1c-1.9,2-1.5,2.9-3.7,3.6L34,27.7c0,0,2.6,1.7,6.3,3.8
	c3.7,2.1,7.6-0.5,9-1.8C50.6,28.4,51.4,27.5,51.4,27.5"></path><path class="st4" d="M53.1,28.5c0,0,0.5,2.4,3.3,4.2c2.9,1.8,5.1,5.1,3.3,8.1c-1.8,3-1.9,5.3-1.9,5.3s0.3-0.4-2.3-1.7
	c-2.6-1.3-5.1-5.2-4.6-8.3C51.4,33,53.1,28.5,53.1,28.5"></path><path class="st5" d="M72.6,35.1c0,0-5.9,1.4-8.6,3.3c-2.7,1.8-3.9,3.1-3.5,5.8c0.4,2.7,0.1,4.4,0.1,4.4s4-1.8,5.8-1.7
	c1.8,0.1,4.8-1.5,5-3.5C71.6,41.5,72.6,35.1,72.6,35.1"></path><path class="st6" d="M56.5,48.7c0-0.1-1.6-2.3-4.1-4.2c-2.4-1.9-3.9-2.8-5.7-2.1c-1.8,0.7-3.4,1.6-5,2.7c-1.7,1.1-2.1,1.6-2.8,1.4
	c-0.7-0.2,1.1-0.1,3.5,2.4c2.5,2.5,3.4,4.1,5.1,3.9c1.8-0.2,2.8-2,4.6-2.8C54,49.2,56.5,48.7,56.5,48.7"></path><path class="st8" d="M64.4,59.8c-2-1.6-6.2-3.7-9.1-5.2"></path><path class="st8" d="M66.1,52.5c-3.2,1.7-8.3,3.1-12.1,2.7"></path><path class="st8" d="M61.8,47.4c-1,4.1-1.4,7.9-6,7.5"></path><path class="st8" d="M46.4,54.6c-5,1.1-10.6,1.5-14.4,0.3"></path><path class="st8" d="M43.5,62.9c-3.8-3.7-10.9-7.7-12.3-8.6"></path><path class="st8" d="M40.3,51.1c-1.2,3-1.2,5.4-7.1,4.4"></path><path class="st8" d="M64.7,67.2c-1.8-1-2.7-0.5-3.4-5.4l-0.6-4.9c0,0,1,0,2.2-0.1c1.2,0,5.6-0.7,7.3,2.6c1.7,3.3,2.3,5.5,2.4,6.3
	c0.1,0.7,0.9,3.1,1.1,3.8"></path><path class="st8" d="M80.7,49.5c-2.4,1.2-2.9,5.4-6.4,6.4c-3.5,1-8.6-1-10.2-1.4c-1.6-0.4-1.9,1-0.1-1.3c1.8-2.2,1.1-2.9,3.1-4.5
	c2-1.5,7-1.8,8.3-1C76.6,48.5,80.7,49.5,80.7,49.5"></path><path class="st8" d="M60.7,52.1c0.5-0.6,1.5-0.8,3.7-3.5c2.3-2.7,3.8-5.1,2.1-7.3c-1.7-2.2-2.7-1.9-3.1-4.2L63,34.8
	c0,0-2,2.3-4.6,5.7c-2.6,3.4-0.6,7.6,0.5,9.2C60,51.2,60.7,52.1,60.7,52.1"></path><path class="st8" d="M59.5,53.6c0,0-2.4,0.1-4.6,2.7c-2.1,2.6-5.8,4.4-8.5,2.1c-2.7-2.3-5-2.6-5-2.6s0.3,0.4,2-2
	c1.7-2.4,5.9-4.3,8.8-3.4C55.3,51.3,59.5,53.6,59.5,53.6"></path><path class="st8" d="M50.2,72c0,0-0.6-6.1-2-9c-1.4-2.9-2.5-4.3-5.2-4.3c-2.7,0-4.4-0.6-4.4-0.6s1.3,4.2,0.9,5.9
	c-0.4,1.8,0.8,5,2.7,5.5C44,70.1,50.2,72,50.2,72"></path><path class="st8" d="M39,54.1c0,0,2.5-1.3,4.8-3.4c2.2-2.1,3.3-3.4,2.9-5.3c-0.4-1.9-1.1-3.6-2-5.4c-0.8-1.8-1.3-2.3-1-3
	c0.3-0.7-0.1,1.1-2.9,3.2c-2.8,2.1-4.6,2.7-4.6,4.5c0,1.8,1.6,3.1,2.1,5C38.8,51.6,39,54.1,39,54.1"></path><path class="st0" d="M77.4,65.4c-1.1-2.3-3.8-6.1-5.7-8.8"></path><path class="st0" d="M82.2,59.8c-3.6,0.1-8.8-1-12-3.1"></path><path class="st0" d="M80.7,53.2c-2.8,3.2-4.8,6.4-8.8,4"></path><path class="st0" d="M63.7,52.7c-4.9-1.3-10.1-3.5-12.9-6.3"></path><path class="st0" d="M57.3,58.7c-1.7-5-6.2-11.9-7-13.3"></path><path class="st0" d="M59.9,46.7c-2.5,2.1-3.5,4.2-8.4,0.7"></path><path class="st1" d="M74.3,72.2c-1.1-1.7-2.2-1.7-0.5-6.3l1.7-4.6c0,0,0.9,0.4,2,0.9c1.1,0.5,5.3,1.9,5.3,5.6c0,3.8-0.5,6-0.7,6.7
	c-0.3,0.7-0.6,3.2-0.7,3.8"></path><path class="st2" d="M96.6,63.7c-2.7,0-5,3.5-8.6,2.7c-3.6-0.7-7.2-4.8-8.4-5.9c-1.2-1.1-2.1,0,0.5-1.2c2.6-1.2,2.3-2.1,4.8-2.5
	c2.5-0.4,7,1.6,7.9,2.9C93.4,60.9,96.6,63.7,96.6,63.7"></path><path class="st3" d="M77.6,56.9c0.7-0.3,1.7-0.1,4.9-1.4c3.3-1.4,5.7-2.8,5.2-5.6c-0.5-2.7-1.5-2.9-0.8-5.1l0.7-2.2
	c0,0-2.8,1.1-6.7,2.9c-3.9,1.8-4,6.5-3.7,8.4C77.4,55.8,77.6,56.9,77.6,56.9"></path><path class="st4" d="M75.8,57.7c0,0-2.2-1-5.3,0.3c-3.1,1.3-7.1,1.3-8.5-2c-1.4-3.3-3.2-4.6-3.2-4.6s0.1,0.5,2.7-0.9
	c2.6-1.4,7.2-1.2,9.4,1C73.1,53.8,75.8,57.7,75.8,57.7"></path><path class="st5" d="M59.1,69.8c0,0,2.2-5.7,2.3-8.9c0-3.2-0.3-5-2.7-6.2c-2.4-1.2-3.6-2.5-3.6-2.5s-0.8,4.3-1.9,5.7
	c-1.1,1.4-1.6,4.8-0.1,6.1C54.6,65.3,59.1,69.8,59.1,69.8"></path><path class="st6" d="M57.4,48.8c0,0,2.8,0,5.8-0.9c3-0.9,4.5-1.6,5-3.4c0.5-1.9,0.6-3.7,0.7-5.7c0.1-2-0.1-2.7,0.5-3.1
	c0.6-0.4-0.6,0.9-4,1.5c-3.4,0.6-5.3,0.4-6.2,1.9c-0.9,1.6,0,3.4-0.4,5.4C58.4,46.5,57.4,48.8,57.4,48.8"></path><path class="st0" d="M36.1,81.4c2-1.6,5-5.2,7.1-7.7"></path><path class="st0" d="M42.8,84.8c-1-3.5-1.2-8.7,0.1-12.4"></path><path class="st0" d="M48.7,81.6c-3.8-1.9-7.4-3.1-6-7.5"></path><path class="st0" d="M45.1,65.1c0-5.1,1-10.7,2.9-14.1"></path><path class="st0" d="M37.7,60.3c4.5-2.9,10-8.9,11.2-10.1"></path><path class="st0" d="M50,59.9c-2.7-1.9-5-2.4-2.7-8"></path><path class="st2" d="M28.8,80.1c1.4-1.5,1.1-2.6,6-2.1l4.9,0.5c0,0-0.2,1-0.4,2.2c-0.2,1.2-0.5,5.6-4.2,6.5c-3.6,0.9-5.9,1-6.7,0.9
	c-0.7-0.1-3.3,0.2-3.9,0.2"></path><path class="st7" d="M42.5,99.6c-0.7-2.6-4.6-4-4.8-7.7c-0.2-3.6,2.9-8.2,3.7-9.6c0.7-1.5-0.5-2,1.3,0.2c1.8,2.2,2.6,1.7,3.6,4
	c1,2.3,0.2,7.2-0.9,8.3C44.4,95.9,42.5,99.6,42.5,99.6"></path><path class="st3" d="M44.4,79.5c0.5,0.6,0.5,1.6,2.6,4.4s4.1,4.8,6.7,3.7c2.5-1.2,2.4-2.2,4.8-2.1l2.3,0.1c0,0-1.8-2.5-4.5-5.8
	c-2.7-3.3-7.3-2.3-9.1-1.6C45.4,79.1,44.4,79.5,44.4,79.5"></path><path class="st4" d="M43.2,78c0,0,0.4-2.4-1.6-5.1c-2-2.7-3-6.6-0.2-8.7c2.8-2.2,3.7-4.3,3.7-4.3s-0.4,0.3,1.5,2.4
	c2,2.2,2.9,6.7,1.3,9.4C46.3,74.4,43.2,78,43.2,78"></path><path class="st5" d="M27.3,64.8c0,0,6.1,0.8,9.2,0c3.1-0.7,4.7-1.5,5.3-4.1c0.6-2.6,1.5-4.1,1.5-4.1s-4.4,0.3-6-0.5
	c-1.6-0.7-5.1-0.3-5.9,1.4C30.6,59.3,27.3,64.8,27.3,64.8"></path><path class="st6" d="M47.3,58c0,0,0.7,2.7,2.3,5.4c1.6,2.7,2.6,4,4.6,4c2,0,3.7-0.3,5.7-0.7c1.9-0.4,2.6-0.8,3.1-0.3
	c0.6,0.5-1-0.3-2.4-3.5c-1.4-3.2-1.7-5.1-3.4-5.5c-1.7-0.4-3.3,0.8-5.3,0.9C49.8,58.4,47.3,58,47.3,58"></path><path class="st0" d="M25.6,38.7c1.7,1.9,5.4,4.7,8,6.7"></path><path class="st0" d="M22.6,45.6C26,44.4,31.2,43.9,35,45"></path><path class="st0" d="M26,51.3c1.7-3.9,2.7-7.5,7.2-6.3"></path><path class="st0" d="M42.3,46.9c5.1-0.2,10.7,0.4,14.2,2.2"></path><path class="st0" d="M46.7,39.3c3.1,4.3,9.4,9.5,10.6,10.7"></path><path class="st0" d="M47.8,51.5c1.7-2.8,2.1-5.1,7.8-3.1"></path><path class="st1" d="M26.5,31.4c1.6,1.3,2.6,1,2.4,5.9l-0.2,4.9c0,0-1-0.2-2.2-0.3c-1.2-0.2-5.6-0.2-6.7-3.8
	c-1.1-3.6-1.3-5.9-1.3-6.6c0-0.7-0.4-3.2-0.4-3.9"></path><path class="st2" d="M7.7,46c2.5-0.8,3.8-4.8,7.4-5.1c3.6-0.3,8.3,2.5,9.8,3.2c1.5,0.7,2-0.6-0.1,1.3c-2.1,1.9-1.6,2.7-3.9,3.8
	c-2.2,1.1-7.2,0.6-8.3-0.4C11.5,47.7,7.7,46,7.7,46"></path><path class="st3" d="M27.9,46.9c-0.6,0.5-1.6,0.6-4.3,2.8c-2.7,2.3-4.6,4.4-3.3,6.8c1.3,2.5,2.3,2.3,2.3,4.6l0,2.3
	c0,0,2.4-1.9,5.5-4.8c3.2-2.8,1.9-7.4,1.1-9.1C28.4,48,27.9,46.9,27.9,46.9"></path><path class="st4" d="M29.3,45.7c0,0,2.4,0.3,5-1.8c2.6-2.2,6.4-3.3,8.7-0.6c2.3,2.7,4.4,3.4,4.4,3.4s-0.3-0.4-2.3,1.6
	c-2.1,2.1-6.5,3.2-9.3,1.8C33,48.6,29.3,45.7,29.3,45.7"></path><path class="st5" d="M41.7,29.2c0,0-0.5,6.1,0.4,9.2c0.9,3.1,1.8,4.6,4.4,5.1c2.7,0.5,4.2,1.3,4.2,1.3s-0.5-4.3,0.2-6
	c0.7-1.7,0.1-5.1-1.7-5.9C47.4,32.1,41.7,29.2,41.7,29.2"></path><path class="st6" d="M49.5,48.7c0,0-2.7,0.8-5.3,2.5c-2.6,1.7-3.8,2.8-3.8,4.8c0.1,2,0.5,3.7,1,5.6c0.5,1.9,0.9,2.5,0.5,3.1
	c-0.4,0.6,0.3-1.1,3.4-2.6c3.1-1.6,5-1.9,5.3-3.7c0.4-1.8-1-3.3-1.2-5.3C49.3,51.2,49.5,48.7,49.5,48.7"></path><path class="st0" d="M69.1,26.2c-2.1,1.4-5.5,4.6-7.9,6.9"></path><path class="st0" d="M62.8,22.2c0.6,3.6,0.3,8.8-1.4,12.4"></path><path class="st0" d="M56.6,24.7c3.6,2.3,7,3.9,5.1,8.1"></path><path class="st0" d="M58.4,41.6c-0.5,5.1-2.1,10.5-4.4,13.7"></path><path class="st0" d="M65.3,47c-4.7,2.4-10.9,7.8-12.2,8.8"></path><path class="st0" d="M53,46.2c2.5,2.2,4.7,2.9,1.9,8.2"></path><path class="st1" d="M76.2,28.3c-1.6,1.3-1.4,2.4-6.2,1.4l-4.8-1c0,0,0.3-1,0.7-2.1c0.3-1.1,1.1-5.5,4.8-6c3.7-0.5,6-0.4,6.7-0.2
	c0.7,0.2,3.3,0.2,3.9,0.2"></path><path class="st7" d="M64.7,7.5c0.4,2.6,4.2,4.5,3.9,8.1c-0.2,3.6-3.7,7.8-4.6,9.2c-0.9,1.4,0.3,2.1-1.2-0.3c-1.5-2.4-2.4-2-3.2-4.4
	c-0.8-2.4,0.6-7.2,1.7-8.2C62.4,11,64.7,7.5,64.7,7.5"></path><path class="st2" d="M60.6,27.2c-0.4-0.6-0.3-1.6-2.1-4.7c-1.8-3.1-3.6-5.2-6.2-4.3c-2.6,0.9-2.6,1.9-5,1.5L45,19.4
	c0,0,1.5,2.7,3.8,6.2c2.3,3.6,7,3,8.9,2.5C59.5,27.6,60.6,27.2,60.6,27.2"></path><path class="st4" d="M61.7,28.8c0,0-0.7,2.3,1.1,5.2c1.7,2.9,2.3,6.9-0.8,8.7c-3,1.9-4.1,3.9-4.1,3.9s0.5-0.2-1.3-2.6
	c-1.7-2.4-2.2-6.9-0.3-9.5C58.2,32.1,61.7,28.8,61.7,28.8"></path><path class="st5" d="M76.1,43.7c0,0-5.9-1.4-9.1-1c-3.2,0.4-4.9,1-5.7,3.6c-0.9,2.5-2,4-2,4s4.4,0.2,5.9,1.1c1.6,0.9,5,0.9,6.1-0.8
	C72.2,48.8,76.1,43.7,76.1,43.7"></path><path class="st6" d="M55.5,48.4c0,0-0.4-2.8-1.7-5.6c-1.3-2.8-2.2-4.2-4.1-4.4c-1.9-0.2-3.7-0.1-5.7,0.1c-2,0.2-2.6,0.5-3.2,0
	c-0.5-0.5,1,0.4,2.1,3.8c1.1,3.3,1.1,5.2,2.8,5.8c1.7,0.6,3.4-0.5,5.4-0.4C53.1,47.7,55.5,48.4,55.5,48.4"></path><path class="st8" d="M57.5,61.8c-1.1-2.3-3.8-6.1-5.7-8.8"></path><path class="st8" d="M62.3,56.2c-3.6,0.1-8.8-1-12-3.1"></path><path class="st8" d="M60.8,49.6c-2.8,3.2-4.8,6.4-8.8,4"></path><path class="st8" d="M43.8,49.1c-4.9-1.3-10.1-3.5-12.9-6.3"></path><path class="st8" d="M37.4,55.1c-1.7-5-6.2-11.9-7-13.3"></path><path class="st8" d="M40,43.1c-2.5,2.1-3.5,4.2-8.4,0.7"></path><path class="st8" d="M54.4,68.6c-1.1-1.7-2.2-1.7-0.5-6.3l1.7-4.6c0,0,0.9,0.4,2,0.9c1.1,0.5,5.3,1.9,5.3,5.6c0,3.8-0.5,6-0.7,6.7
	c-0.3,0.7-0.6,3.2-0.8,3.8"></path><path class="st8" d="M76.6,60.1c-2.7,0-5,3.5-8.6,2.7c-3.6-0.7-7.2-4.8-8.4-5.9c-1.2-1.1-2.1,0,0.5-1.2c2.6-1.2,2.3-2.1,4.8-2.5
	c2.5-0.4,7,1.6,7.9,2.9C73.5,57.3,76.6,60.1,76.6,60.1"></path><path class="st8" d="M57.7,53.3c0.7-0.3,1.7-0.1,4.9-1.4c3.3-1.4,5.7-2.8,5.2-5.6c-0.5-2.7-1.5-2.9-0.8-5.1l0.7-2.2
	c0,0-2.8,1.1-6.7,2.9c-3.9,1.8-4,6.5-3.7,8.4C57.5,52.1,57.7,53.3,57.7,53.3"></path><path class="st8" d="M55.9,54.1c0,0-2.2-1-5.3,0.3c-3.1,1.3-7.1,1.3-8.5-2c-1.4-3.3-3.2-4.6-3.2-4.6s0.1,0.5,2.7-0.9
	c2.6-1.4,7.2-1.2,9.4,1C53.2,50.1,55.9,54.1,55.9,54.1"></path><path class="st8" d="M39.2,66.2c0,0,2.2-5.7,2.3-8.9c0-3.2-0.3-5-2.7-6.2c-2.4-1.2-3.6-2.5-3.6-2.5s-0.8,4.3-1.9,5.7
	c-1.1,1.4-1.6,4.8-0.1,6.1C34.7,61.7,39.2,66.2,39.2,66.2"></path><path class="st8" d="M37.5,45.2c0,0,2.8,0,5.8-0.9c3-0.9,4.5-1.6,5-3.4c0.5-1.9,0.6-3.7,0.7-5.7c0.1-2-0.1-2.7,0.5-3.1
	c0.6-0.4-0.6,0.9-4,1.5c-3.4,0.6-5.3,0.4-6.2,1.9c-0.9,1.6,0,3.4-0.4,5.4C38.5,42.9,37.5,45.2,37.5,45.2"></path><path class="st0" d="M81.4,43.1c-2.5-0.6-7.1-0.9-10.4-1.2"></path><path class="st0" d="M80.1,35.7c-2.2,2.9-6.3,6.1-10.1,7.3"></path><path class="st0" d="M74.1,32.8c0.7,4.2,1.9,7.8-2.5,9.3"></path><path class="st0" d="M62.9,45.5c-4.1,3-9.2,5.6-13.1,6"></path><path class="st0" d="M63.5,54.3c-4.9-1.9-13.1-2.8-14.7-3"></path><path class="st0" d="M55.8,44.7c0.1,3.3,1.1,5.4-4.8,6.9"></path><path class="st1" d="M84.7,49.7c-2-0.2-2.7,0.6-5.2-3.6l-2.5-4.2c0,0,0.9-0.4,2-0.9c1.1-0.5,4.8-2.9,7.7-0.5
	c2.9,2.4,4.3,4.2,4.7,4.8c0.4,0.6,2.1,2.5,2.5,3"></path><path class="st2" d="M92.2,27.2c-1.7,2.1-0.5,6.1-3.4,8.4c-2.8,2.3-8.3,2.5-9.9,2.8c-1.6,0.3-1.3,1.6-0.6-1.1
	c0.7-2.7-0.1-3.1,1.1-5.3c1.2-2.2,5.7-4.4,7.2-4.2C88.1,27.8,92.2,27.2,92.2,27.2"></path><path class="st3" d="M74.9,37.5c0.2-0.7,1-1.3,2-4.7c1-3.4,1.4-6.2-1-7.5c-2.4-1.3-3.2-0.7-4.5-2.6l-1.3-2c0,0-0.9,2.9-2,7
	c-1.1,4.1,2.5,7.2,4.1,8.2C73.9,36.9,74.9,37.5,74.9,37.5"></path><path class="st4" d="M74.4,39.4c0,0-2.2,1.1-3.1,4.3c-0.9,3.2-3.5,6.3-7,5.3c-3.4-1-5.6-0.4-5.6-0.4s0.5,0.2,1.1-2.7
	c0.6-2.9,3.7-6.3,6.8-6.6C69.7,38.9,74.4,39.4,74.4,39.4"></path><path class="st5" d="M73.2,60c0,0-3-5.3-5.4-7.4c-2.4-2.1-4-2.9-6.5-1.8c-2.5,1.1-4.3,1.2-4.3,1.2s2.8,3.3,3.2,5.1
	c0.4,1.8,2.7,4.3,4.7,3.9C66.8,60.6,73.2,60,73.2,60"></path><path class="st6" d="M55.9,48c0.1,0,1.8-2.2,3-5c1.2-2.9,1.6-4.5,0.5-6c-1.1-1.6-2.5-2.8-3.9-4.1c-1.5-1.3-2.1-1.6-2.1-2.3
	c0-0.7,0.4,1-1.4,4.1c-1.7,3-3.1,4.3-2.4,6c0.7,1.7,2.7,2.2,3.9,3.7C54.7,45.7,55.9,48,55.9,48"></path><path class="st0" d="M67.5,85.1c0-2.5-0.8-7.1-1.4-10.4"></path><path class="st0" d="M74.3,82.1c-3.3-1.5-7.5-4.6-9.5-8"></path><path class="st0" d="M75.7,75.5c-3.9,1.7-7.1,3.7-9.6-0.2"></path><path class="st0" d="M60.6,67.8c-3.9-3.3-7.6-7.5-9-11.2"></path><path class="st0" d="M52.2,70.5c0.6-5.3-0.5-13.4-0.7-15"></path><path class="st0" d="M59.7,60.7c-3.2,0.9-5,2.3-7.9-2.9"></path><path class="st2" d="M61.9,89.9c-0.3-2-1.3-2.5,2.2-6l3.5-3.5c0,0,0.6,0.8,1.4,1.7c0.8,0.9,4,4,2.4,7.4c-1.6,3.4-3,5.2-3.5,5.7
	c-0.5,0.5-1.9,2.6-2.3,3.2"></path><path class="st7" d="M85.6,91.7c-2.4-1.1-6,1-9-1.2c-2.9-2.2-4.5-7.4-5.1-8.9c-0.7-1.5-1.9-0.9,0.9-0.9c2.8,0,3-0.9,5.4-0.2
	c2.4,0.7,5.7,4.4,5.9,5.9C83.9,87.9,85.6,91.7,85.6,91.7"></path><path class="st3" d="M71.3,77.5c0.7,0,1.5,0.6,5.1,0.8c3.5,0.2,6.4-0.1,7.1-2.8c0.7-2.7-0.1-3.3,1.4-5l1.6-1.7c0,0-3-0.2-7.3-0.2
	c-4.3,0-6.4,4.2-7,6C71.6,76.4,71.3,77.5,71.3,77.5"></path><path class="st4" d="M69.4,77.5c0,0-1.6-1.9-4.9-2c-3.4-0.1-7-1.9-6.9-5.4c0.1-3.5-1-5.5-1-5.5s-0.1,0.5,2.8,0.4
	c2.9-0.1,7,2,8.1,4.9C68.6,72.8,69.4,77.5,69.4,77.5"></path><path class="st5" d="M49.1,81.3c0,0,4.5-4.2,5.9-7.1c1.4-2.9,1.8-4.6,0.2-6.8c-1.6-2.1-2.2-3.8-2.2-3.8s-2.5,3.5-4.2,4.3
	c-1.6,0.8-3.5,3.7-2.7,5.5C46.9,75.3,49.1,81.3,49.1,81.3"></path><path class="st6" d="M56.5,61.6c0,0.1,2.5,1.2,5.6,1.7c3.1,0.5,4.7,0.5,6-1c1.3-1.5,2.1-3.1,3-4.8c0.9-1.8,1-2.5,1.8-2.6
	c0.7-0.1-0.9,0.6-4.3-0.4s-5-1.9-6.4-0.9c-1.4,1.1-1.5,3.1-2.7,4.7C58.4,59.9,56.5,61.6,56.5,61.6"></path><path class="st0" d="M27.8,66.1c2.5-0.1,7.1-1.2,10.3-2"></path><path class="st0" d="M31.2,72.8c1.3-3.4,4.2-7.7,7.5-9.9"></path><path class="st0" d="M37.9,73.8c-1.9-3.8-4.1-6.9-0.3-9.6"></path><path class="st0" d="M44.8,58.4c3.1-4.1,7.1-8,10.7-9.6"></path><path class="st0" d="M41.7,50.1c5.3,0.4,13.3-1.2,15-1.4"></path><path class="st0" d="M51.8,57.1c-1-3.1-2.6-4.9,2.5-8"></path><path class="st1" d="M22.8,60.7c2-0.4,2.4-1.4,6.1,1.9l3.6,3.3c0,0-0.8,0.7-1.6,1.5c-0.9,0.8-3.8,4.2-7.2,2.7
	c-3.5-1.4-5.4-2.7-5.9-3.2c-0.5-0.5-2.7-1.8-3.3-2.2"></path><path class="st2" d="M22.2,84.5c1-2.5-1.3-6,0.7-9c2-3,7.2-4.8,8.7-5.6c1.5-0.7,0.8-1.9,0.9,0.9c0.1,2.8,1.1,3,0.5,5.4
	c-0.5,2.5-4.1,5.9-5.6,6.2C25.9,82.7,22.2,84.5,22.2,84.5"></path><path class="st3" d="M35.7,69.6c0,0.7-0.6,1.6-0.6,5.1c0,3.5,0.4,6.3,3.2,6.9c2.7,0.6,3.2-0.3,5.1,1.2l1.8,1.5c0,0,0-3.1-0.1-7.3
	c-0.2-4.3-4.5-6.2-6.4-6.7C36.8,69.8,35.7,69.6,35.7,69.6"></path><path class="st4" d="M35.6,67.6c0,0,1.8-1.7,1.7-5c0-3.4,1.5-7.1,5.1-7.1c3.5-0.1,5.5-1.2,5.5-1.2s-0.5-0.1-0.2,2.9
	c0.3,2.9-1.6,7.1-4.5,8.3C40.3,66.6,35.6,67.6,35.6,67.6"></path><path class="st5" d="M30.7,47.6c0,0,4.4,4.2,7.4,5.5c3,1.3,4.7,1.6,6.8-0.2c2.1-1.8,3.7-2.4,3.7-2.4s-3.7-2.4-4.5-3.9
	c-0.9-1.6-3.9-3.3-5.6-2.4C36.6,45.1,30.7,47.6,30.7,47.6"></path><path class="st9" d="M50.8,54c-0.1,0-1.1,2.6-1.4,5.7c-0.3,3.1-0.3,4.7,1.3,5.9c1.6,1.2,3.2,2,5,2.8c1.8,0.8,2.5,0.9,2.7,1.6
	c0.2,0.7-0.6-0.9,0.1-4.3c0.8-3.4,1.7-5,0.5-6.4c-1.1-1.4-3.2-1.3-4.8-2.4C52.6,55.8,50.8,54,50.8,54"></path><path class="st0" d="M45.9,24.6c-0.3,2.5,0.1,7.2,0.3,10.5"></path><path class="st0" d="M38.8,26.9c3.1,1.8,7,5.4,8.6,8.9"></path><path class="st0" d="M36.7,33.2c4-1.3,7.5-3,9.5,1.2"></path><path class="st0" d="M50.9,42.5c3.6,3.6,6.8,8.3,7.8,12.1"></path><path class="st0" d="M59.5,40.7c-1.2,5.2-0.9,13.4-0.9,15"></path><path class="st0" d="M51.1,49.7c3.2-0.5,5.2-1.8,7.5,3.8"></path><path class="st1" d="M52,20.4c0,2.1,1,2.6-2.8,5.7l-3.8,3.1c0,0-0.6-0.9-1.2-1.8c-0.7-1-3.6-4.4-1.6-7.6c2-3.2,3.5-4.9,4.1-5.3
	c0.6-0.5,2.2-2.4,2.6-2.9"></path><path class="st7" d="M28.6,16.1c2.3,1.4,6.1-0.4,8.8,2.1c2.7,2.5,3.6,7.9,4.1,9.4c0.5,1.6,1.8,1.1-1,0.8c-2.8-0.3-3.1,0.6-5.4-0.3
	c-2.3-0.9-5.2-5-5.2-6.5C29.8,20,28.6,16.1,28.6,16.1"></path><path class="st2" d="M41.3,31.7c-0.7-0.1-1.5-0.8-5-1.4c-3.5-0.5-6.3-0.5-7.3,2c-1,2.6-0.2,3.3-1.9,4.8l-1.8,1.6c0,0,3,0.5,7.2,1
	c4.2,0.5,6.8-3.5,7.6-5.2C40.9,32.8,41.3,31.7,41.3,31.7"></path><path class="st4" d="M43.2,32c0,0,1.4,2,4.7,2.5c3.3,0.5,6.7,2.6,6.2,6.1c-0.5,3.5,0.4,5.6,0.4,5.6s0.1-0.5-2.8-0.7
	c-2.9-0.2-6.8-2.7-7.5-5.8C43.4,36.7,43.2,32,43.2,32"></path><path class="st5" d="M63.7,30.3c0,0-4.9,3.7-6.6,6.4c-1.7,2.7-2.3,4.4-0.9,6.7c1.4,2.3,1.8,4,1.8,4s2.9-3.3,4.6-3.9
	c1.7-0.6,3.9-3.3,3.2-5.2C65.3,36.5,63.7,30.3,63.7,30.3"></path><path class="st6" d="M54.3,49.1c0-0.1-2.4-1.5-5.4-2.3c-3-0.8-4.6-1-6.1,0.4c-1.4,1.4-2.4,2.8-3.5,4.5c-1.1,1.6-1.3,2.4-2,2.4
	c-0.7,0.1,1-0.5,4.2,0.8c3.2,1.3,4.7,2.4,6.3,1.5c1.5-0.9,1.8-2.9,3.1-4.4C52.3,50.6,54.3,49.1,54.3,49.1"></path><path class="st8" d="M66,56.2c-2.5-0.6-7.1-0.9-10.4-1.2"></path><path class="st8" d="M64.7,48.8c-2.2,2.9-6.3,6.1-10.1,7.3"></path><path class="st8" d="M58.7,45.9c0.7,4.2,1.9,7.8-2.5,9.3"></path><path class="st8" d="M47.4,58.6c-4.1,3-9.2,5.6-13.1,6"></path><path class="st8" d="M48,67.4c-4.9-1.9-13.1-2.8-14.7-3"></path><path class="st8" d="M40.4,57.8c0.1,3.3,1.1,5.4-4.8,6.9"></path><path class="st8" d="M69.2,62.8c-2-0.2-2.7,0.6-5.2-3.6L61.5,55c0,0,0.9-0.4,2-0.9c1.1-0.5,4.8-2.9,7.7-0.5c2.9,2.4,4.3,4.2,4.7,4.8
	c0.4,0.6,2.1,2.5,2.5,3"></path><path class="st8" d="M76.8,40.2c-1.7,2.1-0.5,6.1-3.4,8.4c-2.8,2.3-8.3,2.5-9.9,2.8c-1.6,0.3-1.3,1.6-0.6-1.1
	c0.7-2.7-0.1-3.1,1.1-5.3c1.2-2.2,5.7-4.4,7.2-4.2C72.7,40.9,76.8,40.2,76.8,40.2"></path><path class="st8" d="M59.5,50.6c0.2-0.7,1-1.3,2-4.7c1-3.4,1.4-6.2-1-7.5c-2.4-1.3-3.2-0.7-4.5-2.6l-1.3-2c0,0-0.9,2.9-2,7
	c-1.1,4.1,2.5,7.2,4.1,8.2C58.5,50,59.5,50.6,59.5,50.6"></path><path class="st8" d="M59,52.4c0,0-2.2,1.1-3.1,4.3c-0.9,3.2-3.5,6.3-7,5.3c-3.4-1-5.6-0.4-5.6-0.4s0.5,0.2,1.1-2.7
	c0.6-2.9,3.7-6.3,6.8-6.6C54.3,52,59,52.4,59,52.4"></path><path class="st8" d="M57.8,73c0,0-3-5.3-5.4-7.4c-2.4-2.1-4-2.9-6.5-1.8c-2.5,1.1-4.3,1.2-4.3,1.2s2.8,3.3,3.2,5.1
	c0.4,1.8,2.7,4.3,4.7,3.9C51.4,73.7,57.8,73,57.8,73"></path><path class="st8" d="M40.5,61c0.1,0,1.8-2.2,3-5c1.2-2.9,1.6-4.5,0.5-6c-1.1-1.6-2.5-2.8-3.9-4.1c-1.5-1.3-2.1-1.6-2.1-2.3
	c0-0.7,0.4,1-1.4,4.1c-1.7,3-3.1,4.3-2.4,6c0.7,1.7,2.7,2.2,3.9,3.7C39.3,58.8,40.5,61,40.5,61"></path><path class="st10" d="M73.2,37.9c-0.9-2.3-2.7-14.5-1.7-17c1-2.5,3.3-3.6,4.4-3.7c1.1-0.1,2.9,0.1,4.5,0C82,17.1,83.7,18,85,19
	c1.3,1,2.8,2.4,3.4,2.9c0.5,0.5,2.3,3.5,2.6,4.3s0.4,3.1,0.5,3.7c0.1,0.6,0.4,1.9,0,3c-0.4,1-3.1,2.6-3.8,3.1s-3.5,1.9-4.8,2.4
	c-1.3,0.5-3.7,1.2-4.8,1.7S75,40.8,75,40.8l-1.2-0.9L73.2,37.9z"></path><path class="st11" d="M75,39c0,0,4.3-3.4,7.4-4.8c3.1-1.3,4.9-2.2,7.1-2.1c2.2,0.1,4.9,0.8,5.3,1.7s2,7.4,0.9,11.4s-3.8,7.6-5,8.5
	c-1.3,0.9-3.8,2-4.8,2s-2.9-0.7-3.8-1.4s-3.4-2.7-3.6-3.1s-3.8-9-3.9-9.7C74.4,40.8,75,39,75,39z"></path><path class="st12" d="M73.8,39.8c0,0,4.4,6.3,5.1,7.4c0.7,1.1,3.5,9.1,3.5,9.7c0,0.6-0.5,3.4-2.3,4.3c-1.7,0.9-2.9,1.7-5.2,2
	s-3.5,0.8-4.9,0.5c-1.3-0.2-2.6-0.3-3.7-1.2c-1.2-0.9-2.6-1.6-4-2.7c-1.4-1-1.7-2.3-2.1-3.2s-1.3-2.8-1.3-3.5s3.5-5.8,4.3-6.9
	c0.8-1.1,4.1-4.1,4.3-4.3c0.3-0.2,1.9-1,2.5-1.4S73.8,39.8,73.8,39.8z"></path><path class="st11" d="M71.8,41.8c0,0-3.4,5.5-4.9,6.3s-2.8,1.7-3.4,2.3c-0.6,0.6-0.9,1.7-2.7,2.6c-1.8,0.9-3,1.3-5.2,0.7
	c-2.3-0.6-4.8-3.8-5.3-5.1s-1.1-3.9-1.2-4.7s0.9-7,1.2-7.7c0.3-0.8,1.8-2.6,2.4-3s1.4-1.2,2.3-1.5c0.9-0.3,2.4-0.3,4.3,0
	c1.9,0.3,3.5,0.9,5.4,2.1s2.6,1.4,3.4,2.2s-0.1-0.5,1,1.1C70.3,38.6,71.8,41.8,71.8,41.8z"></path><path class="st12" d="M72.9,40.2c0,0-10.7-2.7-12.1-3.7c-1.4-1-6.8-3.7-7.3-5.1C53,30,54.9,24,55.9,23c1-1,3.2-3.2,6.4-3.4
	c3.2-0.2,4.2-0.3,5.5-0.6c1.3-0.3,2.4-0.5,2.8-0.3c0.4,0.2,0.7-0.2,1.5,0.9c0.8,1.1,1.3,2.4,1.7,4.9c0.3,2.6,0.5,4.5,0.6,6.6
	S74.3,36,74.2,37C74.1,38,72.9,40.2,72.9,40.2z"></path><path class="st13" d="M70,42.3c0,0-1.6,1.4-4.1,2c-2.5,0.6-5.4,1-5.4,1L64,45l1.7-0.2c0,0-1.1,0.8-2,1.1c-0.9,0.3-2.1,0.9-2.1,0.9
	l5.2-2.3l2.8-1.2c0,0-1,1.7-2.6,2.6c-1.6,0.9-5.5,2.8-5.5,2.8s4.3-1.7,4.8-2c0.5-0.3,2.6-1.6,2.6-1.6l1.2-1.3l-1.7,2.3l-3,4.8
	c0,0,3.9-4.4,3.9-4.8c0.1-0.4,1.6-2.8,1.6-2.8l0.8,0.3c0,0-4.3,6.9-4.4,7.3s-1.1,2.7-1.1,2.7l1.8-3L67,55.8c0,0,2.4-9.4,5-11.8
	s1.1-1,1.1-1s-0.4,1.3-0.6,1.7c-0.1,0.4-1.5,3.5-1.6,3.7s-2.7,6.3-2.7,6.3s3.4-6.8,3.4-6.8s-2.1,3.7-1.7,10.1
	c0.4,6.4,0.3,4.1,0.3,4.1s-0.7-6.6,0.2-9.5s2-6.2,2.1-6.5c0.1-0.3,0.8-2.7,0.8-2.7s-0.5,3.8-0.6,4.2c-0.1,0.4,0.8-3.1,0.8-3.7
	c0.1-0.6,0.3,0.4,0.4,0.5c0,0.1-0.1,2.3-0.4,3.3s-1.1,3.9-1.1,4.3s-0.1,0.9-0.1,0.9s0.5-2.5,0.7-2.9c0.2-0.4,0.7-2.3,0.7-2.3
	s0,3.2-0.1,3.8c-0.1,0.6,0.1,2.9,0.1,2.9l0.4,0.6c0,0-0.2-2.2-0.2-3c0.1-0.7,0.1-4.8,0.2-5.1c0.1-0.3,0.2-1.8,0.2-2
	c0-0.2-0.1-0.7-0.1-0.7s0.9,0.8,0.8,1.4c-0.1,0.6,0.1,4.5,0.2,5.2c0.1,0.7,0,3.2,0,3.2l0.2-4.5l1.4,5c0,0-1.2-6.1-1.2-6.3
	c0-0.2-0.2-2.1-0.2-2.4c0-0.2,0-0.7,0-0.7s0.6,2.7,0.8,3.1s1.8,4.2,1.8,4.2s-1.7-4.5-1.7-5.1c-0.1-0.6,0-1.7,0-1.7s1.3,3.2,1.5,3.5
	c0.2,0.2,3.2,3.7,3.2,3.7s-4.7-7.3-4.9-8.5c-0.2-1.1,3.8,5.7,3.8,5.7l1.4-0.4c0,0-4.4-5-4.7-5.4c-0.3-0.3-1.1-1.1-1.1-1.1l-0.2-0.6
	c0,0,1.1,0.7,1.7,1.1c0.5,0.4,1.8,2,3,2.9c1.1,0.9,3,2.2,3,2.2s-2.8-2.5-2.9-2.7c-0.1-0.2-0.9-1.1-0.9-1.1s2.3,1.6,2.8,1.8
	c0.5,0.2,3.2,1.2,3.2,1.2s-5.2-2.6-6.4-3.6s-2.1-1.7-2.5-1.9c-0.4-0.2-1.1-0.5-1.1-0.5s1.1,0.1,1.1,0.1s2.9,1.8,3.7,2.3
	c0.8,0.5,2.5,1.3,3.3,1.7S79.2,44,79,43.8s-1.9-1.4-2.4-1.4c-0.5-0.1-1-0.4-1-0.4s1.4,0,2.3,0.4c0.9,0.4,2.7,1.3,3.2,1.7
	s3.7,1.9,4,2c0.3,0.1,1.5,0.4,1.5,0.4s-2.9-1.3-3.5-1.6s2.5,0.6,2.5,0.6s-2.3-0.8-3-1.1c-0.7-0.3-3.2-1.7-3.6-1.8
	c-0.3-0.1-1.7-0.5-1.7-0.5s4.5,1.1,5,1.3c0.5,0.1,1.1,0.1,2.1,0.5c1,0.4,2.8,0.8,2.8,0.8s-2.2-0.9-2.5-1c-0.3-0.1-1.4-0.4-2.5-0.7
	s-3.9-0.9-4.1-1c-0.2-0.1-1-0.2-1.4-0.2c-0.3,0-0.8,0-0.8,0s-0.2-0.4,0.6-0.4c0.8,0,1.5-0.1,2.5,0.1c1,0.2,1.4,0.2,1.4,0.2
	S78.2,41,77.6,41c-0.5,0-1.5,0-1.5,0s-0.1-0.2,1-0.3c1.1-0.1,1.3-0.2,2.3,0c1,0.2,2.7,0.3,3.8,0.6c1.1,0.3,3.2,1,3.4,1
	s1.2,0.2,1.2,0.2s-0.9-0.3-1.2-0.5c-0.3-0.2-2.6-0.7-2.7-0.8c-0.1,0-0.4-0.2-0.4-0.2s3.1,0.3,3.5,0.3s1.9,0,2.1,0
	c0.1,0-0.4-0.1-0.6-0.1s-5.3-0.3-6.2-0.4c-0.9-0.1-4-0.5-4.4-0.5c-0.4,0-0.8,0.1-1,0.1c-0.2,0,1.4-0.7,2.1-0.8
	c0.7,0,2.9-0.2,3.5-0.2c0.6,0,3.2-0.1,4.3,0s0.9,0,0.8-0.1c-0.1,0-3.8-0.3-4.4-0.3c-0.6,0-4,0.3-4.3,0.3s-1.7,0.5-1.8,0.6
	s-0.5,0.3-0.4,0.2s1-1,1.4-1.1c0.4-0.1,3.1-1.2,3.9-1.2s5.2-0.3,5.2-0.3s-3.5,0-3.9,0s-1,0-1,0s1.7-0.8,2-0.8c0.3,0,1.5-0.1,1.5-0.1
	s-3.8,0.7-4.1,0.8s-2.6,1-2.9,1.1c-0.3,0.1-1.2,0.3-1.2,0.3s0.3-0.8,1.2-1c0.9-0.2,2-0.8,2.4-1c0.4-0.2,2.1-0.9,2.2-1
	c0.1,0-1.2,0.2-1.5,0.3c-0.3,0.1-3.5,1.5-3.7,1.6c-0.2,0.1-0.9,0.5-1,0.6c-0.1,0-0.1-0.2-0.1-0.2s2.3-1.8,3-2.1
	c0.7-0.2,4.2-1.4,4.6-1.5c0.4-0.1,1.9-0.5,1.9-0.5s-3.4,0.8-3.9,0.9c-0.5,0.1-2.1,0.8-2.1,0.8l3.2-2.2c0,0-1,0.6-1.4,0.7
	c-0.4,0.1-3.1,1.9-3.2,2c-0.1,0-2,1.3-2.1,1.4s-0.9,0.7-1.1,0.8c-0.2,0.2-0.2-0.2-0.2-0.2s1.2-1.7,1.8-2s3.7-2.7,4.5-3.1
	c0.8-0.4,1.9-1.7,1.9-1.7s-2.2,1.6-2.5,1.8c-0.2,0.2-2.4,1.6-2.4,1.6l-0.8,0.6c0,0,4.1-4,4.6-4.5c0.5-0.6,0.6-1.1,0.6-1.1
	S83,30.6,82.4,31c-0.6,0.4-3.1,3-3.2,3.1c-0.1,0.1-2.5,2.8-2.6,2.8c-0.1,0-1.1,1.7-1.3,2c-0.2,0.2-0.3-0.5-0.3-0.5s0.5-1.3,0.6-1.6
	c0.1-0.2,1.7-3,2.3-3.6c0.6-0.6,3.7-4.6,3.7-4.6s-4.1,4.8-4.2,5c-0.1,0.2-2.5,3.7-2.6,4.7c-0.1,1-0.4,1.3-0.4,1.3s1-3.2,1.1-3.5
	c0.2-0.3,1-2.7,1.1-3c0.1-0.2,0.4-1.2,1.2-2.2c0.8-1,1.9-2.8,1.9-2.8s-2.6,3.3-2.7,3.4c0,0.1-1.8,4.4-1.9,4.7
	c-0.1,0.3-0.6,1.7-0.6,1.7l0-1c0,0,0.5-2.8,0.6-3.1c0.1-0.3-1.2,2.5-1,3.4c0.2,0.9-0.2,1-0.3,1.1c0,0.1,0.3-2.9,0.4-3.5
	c0.1-0.6,0.7-2.6,0.7-2.8c0-0.2,2.2-4.7,2.5-5.3c0.3-0.6,0.6-1,0.6-1s-2.2,3.6-2.3,3.7c-0.1,0.1-1.5,3.3-1.6,3.7
	c-0.1,0.4-0.6,3.2-0.5,3.3c0,0.1,0,1.4,0,1.4s-0.5-2.7-0.5-3c0-0.3-0.2-2.5,0.1-3.5s0.4-3,0.4-3s-0.9,4.7-0.9,4.9
	c0,0.2-0.1,1.8,0,1.9c0,0.1-0.4-1-0.4-1s-0.6-4.2-0.6-4.7c0-0.5-0.2-1.4-0.2-1.4s0.1,4.7,0.1,5c0,0.3,0.3,1.5,0.3,1.5l0.3,1.1
	L72,35.9l-0.6-1.8c0,0-0.8-4.1-0.6-4.6c0.1-0.5-0.2-2.9-0.1-3.5c0-0.6,0.1-1.3,0.1-1.3s-0.3,4.4-0.3,4.8c0,0.4,0.6,4.4,0.7,5
	c0.1,0.6,0.7,2.1,0.8,2.2c0.1,0.1,0.3,0.8,0.3,0.8s-0.8-0.7-0.9-0.9s-1.7-3.7-2.3-5.6c-0.5-1.9-1.1-3.3-1.1-3.3s1.4,5.6,1.6,6
	c0.1,0.3,0.2,0.7,0.2,0.7s-2.3-5.2-2.6-5.6c-0.3-0.4,1.9,5,3.1,6.7s1.4,2.5,1.4,2.5l0.5,0.6L71,37.5c0,0-1.4-1.4-1.5-1.6
	c-0.1-0.2-2.3-2.5-2.7-3.4c-0.4-0.9-2.2-4.8-2.2-4.8s2,5.5,2.6,6c0.6,0.5,2.4,3,2.6,3.1s0.2,0.4,0.2,0.4s-2.3-2-2.5-2.4
	c-0.3-0.4-2.1-2.6-2.2-2.8c-0.1-0.2-1-1.5-1-1.6c0-0.1,0.8,1.9,1.1,2.3c0.3,0.4,2.1,2.6,2.5,3.1s1.7,1.6,2.1,1.8
	c0.4,0.2,1.1,0.6,1.1,0.6s0.3,0.5,0,0.4s-1.3-0.4-1.3-0.4s-1.3-0.7-1.8-1c-0.5-0.3-3.5-3.1-4-3.7c-0.5-0.7-2.5-3-2.5-3
	s2.8,4,3.2,4.3s1,1.1,1,1.1l-1.6-1c0,0-1.9-1.4-2.3-2c-0.4-0.6-0.8-0.8-0.8-0.8s1.7,2,1.8,2.2c0.2,0.2,2.9,2,3,2.1
	c0.2,0.1,1.5,0.8,1.6,0.9c0.1,0.1,2.2,1.2,1.7,1.2c-0.3,0-1.2-0.3-1.9-0.7c-0.7-0.4-2.8-1-3.8-1.6c-1-0.6-2.4-1.3-2.4-1.3
	s1.3,1.1,2,1.5c0.7,0.4,2.7,1.2,2.8,1.3s0.6,0.4,1.2,0.6s0.8,0.3,0.6,0.3s-1.3-0.1-1.9-0.3c-0.7-0.2-2.4-1-2.9-1.2s-2.1-0.8-2.1-0.8
	l1.9,0.9l-1.9-0.4c0,0,1.7,0.5,1.8,0.6c0.2,0.1,0.8,0.4,1.3,0.6c0.5,0.2,2.2,0.8,2.3,0.9c0.2,0,1.2,0.4,1.3,0.4
	c0.1,0,0.9,0.5,0.9,0.5s-0.4,0.3-2-0.4c-1.6-0.7-3.5-1.3-4.4-1.6c-0.9-0.3-1.5-0.5-2.5-0.7c-1-0.2-1.2-0.2-2.1-0.3
	c-0.9-0.1-1.8,0-1.8,0s1.9,0.3,2.8,0.4c0.9,0.1,2.9,0.5,3.3,0.7c0.4,0.1,3.9,1.5,4.1,1.5c0.2,0.1,1.9,0.7,2.2,0.8
	c0.3,0,0.9,0.1,1,0.1s0.8,0.1,0.8,0.1s-0.2,0.2-0.8,0.2c-0.6,0-3.4,0-4.2-0.1c-0.8-0.1-2-0.3-2.7-0.6c-0.7-0.3-2.3-0.8-2.3-0.8
	l2.3,1.1l-3,0.1c0,0,3.3,0.3,3.8,0.3c0.5,0,2.9,0.2,3.4,0.2c0.6,0,1.9,0.1,2.2,0.1c0.2,0,0.9,0,1.2,0c0.3,0,0.5,0.1,0.5,0.1
	s-0.9,0.2-1.3,0.3c-0.4,0-2.1,0.3-2.9,0.2s-2.4-0.1-2.4-0.1s5.4,0.1,5.8,0.1c0.4,0,1-0.1,1-0.1s-1.7,0.5-2.1,0.5
	c-0.4,0-2.7,0.1-3.5,0.1c-0.8,0-2.4,0.1-3.3,0.1s-1.9-0.1-1.9-0.1s2.3,0.3,2.9,0.3s2.5,0,2.6,0c0.1,0,2.6-0.1,2.6-0.1
	s-3.5,0.6-3.9,0.7c-0.4,0.1-1.6,0.3-1.9,0.3c-0.3,0-1.3,0.2-1.4,0.2c-0.2,0,1.2,0.1,1.5,0.1c0.3,0,2.1-0.2,2.8-0.3
	c0.6-0.1,3.7-0.8,3.8-0.9c0.1,0,1-0.3,1-0.3s-0.1,0.2-0.3,0.3C69,42.2,67,43,66.8,43.1s-1.4,0.3-1.6,0.3c-0.3,0,0.7,0.1,1,0
	s2.2-0.7,2.4-0.7c0.2-0.1,0.9-0.3,0.9-0.3L70,42.3z"></path><path class="st14" d="M73.2,37.3c0,0.1,1.5,1.8,2,2.1c0.5,0.3,1.1,0.3,1.2,0.3c0.2,0-1,2.4-1.2,3c-0.2,0.6-0.5,1-0.5,1.2
	s-0.3,0.3-0.3,0.3s-0.8-0.9-1.7-0.8c-0.9,0.1-1.3,0.2-1.8,0.1c-0.5,0-0.7-0.3-0.7-0.4c0-0.1,0.3-1.8,0.2-2.1
	c-0.1-0.4-0.8-1.4-0.7-1.7s0.9-0.7,1-0.8c0.2-0.1,0.5-0.4,0.9-0.6c0.4-0.2,1-0.4,1-0.4L73.2,37.3z"></path><path class="st15" d="M70.7,40.6c0,0.1,0.1,0.2,0.1,0.4c0,0,0-0.1,0.1-0.2C70.8,40.6,70.7,40.6,70.7,40.6z"></path><path class="st16" d="M70.8,40.8c0,0.1,0,0.1-0.1,0.2c0,0.2,0.1,0.3,0.1,0.3c0.1-0.1,0.4,0.5,0.5,0.7c0.1,0.2,0.2,0.3,0.5,0.1
	c0.3-0.3,0.1-0.1,0.6,0.2c0.5,0.3,0.3,0.3,0.6,0.2c0.3-0.1,0.3-0.3,0.6-0.5c0.3-0.3,0.7-0.2,0.9-0.4c0.2-0.2-0.1-0.4-0.3-1
	c-0.1-0.3,0-0.3,0.2-0.3c-0.1-0.1-0.1-0.1-0.1-0.1c0.1,0,0.1,0,0.2,0c0.1,0,0.3,0,0.3-0.1c0-0.1-0.2-0.2-0.3-0.3
	c-0.1-0.1-0.1-0.2-0.2-0.1c-0.1,0.1-0.1,0.2-0.3,0.2c-0.2,0-0.6,0.1-0.3-0.1c0.3-0.2,0.1-0.5,0.2-0.6c0.1,0,0.1,0,0.1,0l-0.1-0.1
	c-0.2,0.2-0.5,0.3-0.7,0.3c-0.4,0-1.1-0.1-1.2-0.2c-0.1-0.1-0.4,0.1-0.3,0.2c0,0.2-0.2,0.8-0.3,0.9c-0.1,0.1,0.1,0.5-0.3,0.1
	c-0.1-0.1-0.1-0.1-0.2-0.1c-0.1,0.2-0.2,0.3-0.2,0.4c0,0,0,0.1,0,0.1C70.7,40.6,70.8,40.6,70.8,40.8z"></path><path class="st17" d="M74.2,40.4c0.2,0.6,0.5,0.8,0.3,1c-0.2,0.2-0.6,0.2-0.9,0.4c-0.3,0.3-0.3,0.5-0.6,0.5c-0.3,0.1-0.1,0-0.6-0.2
	c-0.5-0.3-0.3-0.4-0.6-0.2c-0.3,0.3-0.4,0.2-0.5-0.1c-0.1-0.2-0.3-0.8-0.5-0.7c0,0-0.1-0.1-0.1-0.3c-0.1,0.2-0.2,0.3-0.2,0.5
	c0.1,0.3,0.2,0.7,0.4,0.9c0.2,0.2-0.1,0.2,0.4,0.4c0.5,0.2,0.5,0.1,0.7,0.1s0.7,0.1,0.9,0c0.3-0.1,0.2-0.2,0.3-0.3
	c0.1-0.1,0.3,0.2,0.6-0.1c0.2-0.3,0-0.6,0.2-0.6s0,0.1,0.3,0c0.3-0.1,0.5-0.3,0.4-0.3c-0.1,0-0.1-0.1-0.2-0.2
	c-0.1-0.1,0.4-0.4,0.3-0.6c-0.1-0.2-0.3-0.1-0.4-0.2c-0.1-0.1,0.1-0.3-0.1-0.4c-0.1,0-0.1-0.1-0.2-0.1
	C74.2,40.1,74.1,40.2,74.2,40.4z"></path><path class="st17" d="M71.4,40.1c0.1-0.1,0.3-0.7,0.3-0.9c0-0.2,0.2-0.3,0.3-0.2c0.1,0.1,0.8,0.3,1.2,0.2c0.2,0,0.4-0.2,0.7-0.3
	l-0.2-0.1c-0.2-0.1-0.3,0.1-0.5,0c-0.3-0.1-0.3,0.1-0.4,0c-0.2-0.1-0.3-0.2-0.4-0.2c-0.1-0.1-0.2-0.1-0.3-0.2
	c-0.1-0.1,0.1-0.3-0.2-0.2c-0.3,0.2-0.2,0.2-0.3,0.4c-0.1,0.2-0.2,0.1-0.3,0.3c-0.1,0.2,0.3,0,0,0.4c-0.3,0.4-0.3,0.4-0.4,0.7
	c0,0,0,0.1,0,0.1c0.1,0,0.1,0.1,0.2,0.1C71.5,40.5,71.3,40.1,71.4,40.1z"></path><path class="st18" d="M73.9,39.9c-0.1,0.2-0.6,0.2-0.6,0.2l0.1-0.4c0,0-0.3-0.1-0.5,0.3c-0.2,0.4-0.1,0.6-0.1,0.6s0-0.7-0.1-0.7
	c-0.1,0-0.3-0.7-0.3-0.7L72,40.2c0,0-0.4-0.4-0.4-0.4c0,0.1,0.8,0.9,0.8,0.9l-1-0.2l0.9,0.4l-1.1,0.3h1.1l-0.2,0.6l0.5-0.7l0.6,0.9
	L73,41.1l1.1,0.4L73.2,41h0.7l-0.5-0.2l0.5-0.5"></path><path class="st10" d="M44.8,82.3c-1.5,1.4-7.1,9.5-7.3,11.6s1.1,3.8,1.8,4.2c0.8,0.4,2.2,1,3.2,1.6c1.1,0.6,2.7,0.6,4,0.4
	c1.3-0.2,2.9-0.7,3.5-0.9c0.5-0.1,2.9-1.7,3.4-2.2c0.5-0.5,1.4-2.1,1.7-2.5c0.3-0.4,1-1.2,1.1-2.1c0.1-0.9-1.3-3-1.6-3.6
	c-0.3-0.6-1.9-2.6-2.6-3.5c-0.7-0.8-2.2-2.2-2.8-2.9s-2-1.6-2-1.6L46,81.1L44.8,82.3z"></path><path class="st11" d="M46.5,82.2c0,0,1.9,4,3.6,6.1c1.7,2.1,2.7,3.3,4.3,4.1c1.6,0.8,3.8,1.2,4.5,0.7s4.1-4.6,4.7-7.9
	c0.7-3.2,0-6.8-0.6-7.9c-0.6-1.1-2.1-2.8-2.8-3.1S58,73.5,57,73.7s-3.4,0.8-3.7,0.9s-6,5.2-6.3,5.6C46.7,80.6,46.5,82.2,46.5,82.2z"></path><path class="st12" d="M46,81.1c0,0,5.4-3,6.3-3.5s5.8-5.3,6-5.7c0.2-0.4,0.8-2.7-0.1-3.9c-0.9-1.2-1.5-2.3-3.1-3.3
	c-1.6-1-2.3-1.8-3.3-2.1s-2-0.7-3.1-0.5c-1.1,0.2-2.5,0.2-3.8,0.5c-1.4,0.3-2.1,1-2.7,1.5c-0.6,0.5-2,1.6-2.2,2.1
	c-0.2,0.5,0.5,5.4,0.6,6.5c0.1,1.1,1.5,4.4,1.6,4.7s1,1.4,1.3,1.9S46,81.1,46,81.1z"></path><path class="st11" d="M45.2,79c0,0-0.5-5.2-1.3-6.3c-0.8-1.1-1.4-2.2-1.6-2.8c-0.2-0.6,0-1.5-1-2.8c-1-1.3-1.7-2-3.5-2.4
	s-4.8,1-5.6,1.8c-0.9,0.8-2.2,2.4-2.5,3s-1.9,5.3-1.9,6c0,0.7,0.4,2.5,0.7,3c0.3,0.5,0.6,1.4,1.1,1.9c0.5,0.6,1.6,1.1,3.1,1.5
	s2.8,0.6,4.6,0.4c1.8-0.2,2.4-0.1,3.2-0.4c0.9-0.3-0.2,0.3,1.1-0.4C43,80.7,45.2,79,45.2,79z"></path><path class="st12" d="M45.4,80.5c0,0-8.7-1.9-10.1-1.7c-1.4,0.2-6.3,0.2-7.1,1c-0.8,0.8-1.6,5.8-1.3,7c0.3,1.1,1.2,3.5,3.4,4.8
	c2.2,1.3,2.9,1.7,3.8,2.4c0.8,0.7,1.5,1.2,1.9,1.2s0.4,0.4,1.4-0.1s1.8-1.2,3-2.9c1.2-1.7,1.9-3.1,2.8-4.5c0.9-1.5,1.6-3.6,1.9-4.4
	C45.5,82.5,45.4,80.5,45.4,80.5z"></path><path class="st13" d="M44.1,78c0,0-0.6-1.6-2.2-2.9c-1.6-1.3-3.5-2.7-3.5-2.7l2.3,1.4l1.1,0.8c0,0-0.5-1-1-1.5
	c-0.5-0.5-1.2-1.4-1.2-1.4l3,3.5l1.6,1.9c0,0-0.1-1.6-0.9-2.8c-0.8-1.2-3-4-3-4s2.5,2.8,2.8,3.1s1.3,2,1.3,2l0.4,1.4l-0.4-2.3
	L43.8,70c0,0,1.2,4.5,1.1,4.9c-0.1,0.3,0.1,2.6,0.1,2.6l0.7,0c0,0-0.6-6.5-0.6-6.8c0.1-0.3,0.2-2.4,0.2-2.4l0.2,2.8l1.2-4
	c0,0-1.6,7.6-0.6,10.3c1,2.6,0.4,1.1,0.4,1.1s0.2-1.1,0.2-1.4c0-0.3,0.1-3,0.2-3.3c0.1-0.2,0.3-5.5,0.3-5.6c0-0.1,0,6.1,0,6.1
	s-0.1-3.4,2.4-7.9c2.6-4.5,1.7-2.9,1.7-2.9s-2.9,4.5-3.2,6.9c-0.3,2.4-0.8,5.2-0.8,5.4c-0.1,0.3-0.4,2.2-0.4,2.2s1-2.9,1-3.2
	c0-0.3-0.6,2.5-0.7,3c-0.2,0.5,0.4-0.2,0.4-0.3c0.1-0.1,0.8-1.7,0.9-2.5c0.1-0.8,0.6-3.2,0.7-3.5c0.1-0.2,0.3-0.7,0.3-0.7
	S49,73,49,73.4s-0.3,1.9-0.3,1.9s1.1-2.3,1.3-2.7s1.1-2.1,1.1-2.1l0.5-0.3c0,0-1,1.5-1.2,2.1s-1.6,3.5-1.7,3.7s-0.5,1.4-0.6,1.5
	c-0.1,0.1-0.3,0.5-0.3,0.5s0.9-0.3,1.1-0.7c0.2-0.4,1.7-3.2,2-3.7c0.3-0.5,1.2-2.3,1.2-2.3l-1.5,3.3l2.8-3.1c0,0-3.1,4-3.1,4.1
	c0,0.1-0.9,1.5-1,1.6c-0.1,0.2-0.3,0.5-0.3,0.5s1.4-1.7,1.7-1.9c0.2-0.2,2.8-2.3,2.8-2.3s-2.8,2.7-3.1,3.1c-0.3,0.4-0.6,1.2-0.6,1.2
	s2.1-1.9,2.3-2c0.2-0.1,3.6-1.5,3.6-1.5s-6,3.6-6.6,4.3c-0.6,0.7,4.7-2.7,4.7-2.7l0.9,0.8c0,0-5,2-5.3,2.2c-0.4,0.1-1.2,0.4-1.2,0.4
	l-0.3,0.3c0,0,1.1-0.1,1.6-0.2c0.5-0.1,2-0.8,3.2-1c1.2-0.3,2.9-0.6,2.9-0.6s-2.9,0.8-3.1,0.9c-0.2,0.1-1,0.5-1,0.5s2.2-0.3,2.7-0.3
	s2.8,0.3,2.8,0.3s-4.7,0-5.9,0.3c-1.2,0.3-2.1,0.5-2.5,0.5c-0.4,0-1,0-1,0s0.8,0.3,0.9,0.3s2.8-0.3,3.5-0.3c0.7-0.1,2.3-0.1,3-0.1
	c0.7,0-3.6,0.3-3.9,0.3s-1.8,0.3-2.2,0.2c-0.4-0.1-0.8,0-0.8,0s1,0.5,1.8,0.5c0.8,0.1,2.4,0,2.9-0.1c0.6-0.1,3.4,0,3.6,0
	c0.2,0,1.2,0.3,1.2,0.3s-2.5-0.1-3.1-0.1c-0.6,0,2,0.5,2,0.5s-1.9-0.2-2.6-0.3s-2.9,0.1-3.2,0s-1.4-0.2-1.4-0.2s3.7,0.8,4,0.9
	s0.8,0.3,1.7,0.4c0.9,0.1,2.3,0.4,2.3,0.4s-1.9-0.1-2.1-0.2c-0.3,0-1.2-0.2-2.1-0.4c-0.9-0.2-3.1-0.8-3.3-0.7s-0.8-0.2-1-0.3
	s-0.6-0.3-0.6-0.3s-0.3,0.2,0.3,0.5c0.6,0.3,1,0.6,1.8,0.8c0.8,0.2,1.1,0.3,1.1,0.3s-1.8-0.4-2.2-0.6s-1.1-0.5-1.1-0.5
	s-0.2,0.1,0.6,0.6s0.9,0.6,1.7,0.8c0.8,0.2,2,0.7,3,0.9S55.9,84,56,84c0.1,0,0.9,0.3,0.9,0.3s-0.8-0.1-1-0.1s-2.1-0.4-2.2-0.4
	s-0.4,0-0.4,0s2.3,0.9,2.6,1s1.4,0.7,1.5,0.8c0.1,0.1-0.3,0-0.5-0.1c-0.2-0.1-3.9-1.7-4.6-1.9c-0.7-0.2-3.1-1.1-3.3-1.2
	c-0.3-0.1-0.6-0.4-0.7-0.5c-0.1-0.1,0.8,1,1.2,1.3c0.5,0.3,2,1.2,2.5,1.4s2.3,1.2,3.1,1.5c0.8,0.3,0.7,0.3,0.6,0.3
	c-0.1,0-2.8-1.1-3.2-1.4s-2.8-1.7-3-1.8c-0.2-0.1-1-1-1.1-1.1c-0.1-0.1-0.2-0.4-0.2-0.3c0,0.1,0.4,1.1,0.6,1.3
	c0.3,0.2,1.8,2,2.4,2.2c0.6,0.3,3.6,2.1,3.6,2.1s-2.5-1.3-2.8-1.4c-0.3-0.1-0.7-0.3-0.7-0.3s1,1.2,1.2,1.3c0.2,0.1,1,0.7,1,0.7
	s-2.5-1.9-2.7-2s-1.5-1.6-1.7-1.9s-0.8-0.7-0.8-0.7s0,0.7,0.5,1.2s1.2,1.3,1.4,1.6c0.2,0.3,1.2,1.4,1.2,1.5c0,0.1-0.8-0.6-1-0.8
	c-0.2-0.2-2-2.4-2.1-2.5s-0.5-0.7-0.5-0.8c0,0-0.1,0.1-0.1,0.1s1,2.2,1.5,2.6c0.5,0.4,2.6,2.5,2.8,2.8s1.2,1.1,1.2,1.1
	s-2.2-1.8-2.5-2c-0.3-0.3-1.3-1.3-1.3-1.3l1.5,2.7c0,0-0.5-0.7-0.7-1c-0.2-0.2-1.5-2.5-1.6-2.6c-0.1-0.1-1-1.6-1-1.8
	c0-0.1-0.4-0.8-0.5-1s-0.2,0.1-0.2,0.1s0.2,1.6,0.5,2.1s1.7,3.3,2.1,3.9s0.8,1.9,0.8,1.9s-1-1.9-1.1-2.2c-0.1-0.2-1.1-2-1.1-2
	L47.6,86c0,0,1.6,4.3,1.7,4.9c0.1,0.6,0,1,0,1s-0.1-0.8-0.4-1.3c-0.3-0.5-1.2-3.3-1.2-3.4s-0.8-2.9-0.8-3s-0.2-1.6-0.2-1.9
	s-0.4,0.3-0.4,0.3s-0.1,1.1-0.2,1.3s0.2,2.8,0.4,3.4c0.2,0.6,1,4.6,1,4.6s-1.2-4.9-1.3-5.1c0-0.2-0.5-3.6-0.2-4.3s0.2-1.1,0.2-1.1
	s-0.5,2.7-0.4,2.9c0,0.3-0.2,2.3-0.3,2.5c0,0.2-0.1,1,0.1,2c0.2,1,0.4,2.7,0.4,2.7s-0.7-3.3-0.7-3.4c0-0.1,0.3-3.8,0.3-4.1
	s0.2-1.4,0.2-1.4l-0.4,0.7c0,0-0.6,2.2-0.6,2.4s0-2.2,0.5-2.8c0.5-0.6,0.2-0.8,0.2-0.9c0-0.1-0.8,2.2-0.9,2.6S44,87,43.9,87.1
	c-0.1,0.1-0.1,4.2-0.1,4.7c0,0.5,0.1,0.9,0.1,0.9s-0.3-3.4-0.3-3.5c0-0.1,0.1-2.9,0.2-3.3c0.1-0.3,0.8-2.5,0.8-2.6
	c0.1-0.1,0.5-1,0.5-1s-1.3,1.8-1.4,2c-0.1,0.2-1,1.7-1.2,2.6c-0.2,0.9-0.8,2.3-0.8,2.3s1.1-3.7,1.1-3.9c0.1-0.2,0.6-1.3,0.7-1.4
	c0-0.1-0.7,0.6-0.7,0.6s-1.9,2.8-2.1,3.2c-0.2,0.4-0.6,1-0.6,1s1.8-3.4,1.9-3.6c0.1-0.2,0.7-1,0.7-1l0.6-0.7l-0.1-0.3l-1.1,1.1
	c0,0-2,2.7-2.1,3.1c-0.1,0.4-1.2,2-1.3,2.4c-0.2,0.4-0.4,1-0.4,1s1.4-3.3,1.5-3.5c0.1-0.3,2-2.9,2.3-3.3c0.3-0.4,1.3-1.2,1.4-1.3
	c0.1-0.1,0.5-0.4,0.5-0.4s-0.8,0.2-1,0.4c-0.2,0.2-2.6,2-3.6,3.2c-1.1,1.2-1.9,2-1.9,2s3.1-3.5,3.3-3.7s0.4-0.5,0.4-0.5
	s-3.5,2.9-3.8,3.1s3.2-2.9,4.6-3.7c1.4-0.8,1.9-1.3,1.9-1.3l0.6-0.3l-1.3,0.4c0,0-1.5,0.5-1.7,0.6c-0.1,0.1-2.5,1-3.1,1.5
	c-0.6,0.5-3.3,2.7-3.3,2.7s3.4-3.2,4-3.4c0.6-0.2,2.8-1.3,3-1.3c0.2,0,0.3-0.2,0.3-0.2s-2.3,0.6-2.7,0.8c-0.3,0.2-2.4,1.1-2.6,1.3
	c-0.2,0.1-1.3,0.7-1.3,0.8c0,0.1,1.2-1.1,1.6-1.3c0.4-0.2,2.5-1.1,2.9-1.3s1.8-0.5,2.2-0.5c0.4,0,1-0.1,1-0.1s0.4-0.2,0.2-0.3
	c-0.2,0-1.1-0.2-1.1-0.2s-1.2,0-1.6,0.1c-0.5,0.1-3.6,1-4.2,1.3c-0.6,0.3-2.9,1.3-2.9,1.3s3.5-1.9,3.8-1.9c0.4-0.1,1.1-0.4,1.1-0.4
	l-1.5,0.1c0,0-1.9,0.4-2.4,0.6S34,82.2,34,82.2s1.9-0.9,2.1-0.9c0.2-0.1,2.8-0.4,2.9-0.4c0.2,0,1.4-0.1,1.5-0.1c0.1,0,2-0.1,1.7-0.3
	c-0.2-0.1-1-0.2-1.6-0.2c-0.6,0-2.4-0.3-3.3-0.2c-0.9,0-2.2,0.1-2.2,0.1s1.3-0.3,1.9-0.4s2.4,0.1,2.5,0.1s0.6-0.1,1.1,0
	c0.5,0.1,0.7,0.1,0.6,0c-0.1-0.1-0.9-0.4-1.5-0.5c-0.6-0.1-2.1-0.2-2.5-0.2c-0.4,0-1.8-0.2-1.8-0.2l1.7,0l-1.5-0.4
	c0,0,1.4,0.2,1.5,0.2c0.1,0,0.7,0,1.2,0c0.4,0,1.9,0.2,2,0.2c0.1,0,1,0.1,1.1,0.1c0.1,0,0.8-0.1,0.8-0.1s-0.2-0.4-1.6-0.4
	c-1.4-0.1-3-0.3-3.8-0.4s-1.3-0.2-2.1-0.4c-0.8-0.2-0.9-0.3-1.6-0.5c-0.7-0.3-1.3-0.6-1.3-0.6s1.5,0.5,2.2,0.7s2.3,0.7,2.6,0.7
	c0.3,0,3.3,0.3,3.5,0.3c0.2,0,1.6,0.1,1.9,0.2c0.2,0.1,0.7,0.3,0.8,0.3c0.1,0,0.6,0.2,0.6,0.2s-0.1-0.2-0.5-0.4
	c-0.4-0.2-2.4-1.2-3-1.4C39,77.4,38,77,37.4,77s-1.9-0.2-1.9-0.2l2.1,0l-2.1-1.1c0,0,2.5,0.9,2.9,1.1c0.4,0.2,2.1,0.9,2.5,1.1
	c0.4,0.2,1.4,0.6,1.6,0.7s0.7,0.3,0.9,0.4s0.4,0.1,0.4,0.1s-0.5-0.5-0.8-0.7c-0.3-0.2-1.4-0.9-2-1.2c-0.6-0.2-1.7-0.8-1.7-0.8
	s4,1.9,4.2,2c0.2,0.2,0.7,0.4,0.7,0.4s-1-0.9-1.3-1.1c-0.3-0.2-1.9-1.1-2.5-1.4c-0.6-0.3-1.7-1-2.4-1.2c-0.7-0.3-1.4-0.6-1.4-0.6
	s1.7,0.6,2.2,0.8c0.5,0.2,1.8,0.9,1.9,1s1.8,1,1.8,1s-2.3-1.7-2.6-1.9s-1-0.8-1.2-0.9c-0.2-0.1-0.8-0.6-1-0.6
	c-0.1-0.1,0.9,0.3,1.1,0.5c0.2,0.1,1.4,0.9,1.9,1.2c0.4,0.3,2.4,1.9,2.4,2c0.1,0.1,0.6,0.5,0.6,0.5s0-0.2-0.1-0.3
	c-0.1-0.1-1.3-1.4-1.4-1.5s-0.9-0.7-1.1-0.8c-0.2-0.1,0.6,0.2,0.8,0.4c0.2,0.2,1.3,1.3,1.4,1.4c0.1,0.1,0.5,0.6,0.5,0.6L44.1,78z"></path><path class="st14" d="M44.6,82.7c0,0,1.8-0.8,2.2-0.8s0.9,0.2,1,0.2c0.1,0.1,0.2-2.1,0.2-2.6c0-0.5,0-0.9,0.1-1.1
	c0-0.1-0.1-0.3-0.1-0.4c0,0-0.9,0.4-1.5,0c-0.6-0.4-0.9-0.6-1.2-0.7s-0.6,0-0.7,0.1c0,0.1-0.4,1.4-0.6,1.6c-0.2,0.2-1.1,0.7-1.1,0.9
	c0,0.3,0.4,0.8,0.5,0.9c0.1,0.1,0.2,0.5,0.4,0.7c0.2,0.3,0.6,0.7,0.6,0.7L44.6,82.7z"></path><path class="st15" d="M43.9,79.4c0.1-0.1,0.1-0.2,0.2-0.2c0,0,0,0.1,0,0.1C44.1,79.5,44,79.5,43.9,79.4z"></path><path class="st16" d="M44.1,79.4c0,0,0-0.1,0-0.1c0.1-0.1,0.2-0.2,0.2-0.2c0.1,0.1,0.5-0.2,0.6-0.3c0.1-0.1,0.3-0.1,0.4,0.1
	c0.1,0.3,0.1,0.1,0.5,0.1c0.4,0,0.3-0.1,0.5,0.1c0.2,0.2,0.1,0.3,0.3,0.6c0.1,0.3,0.4,0.4,0.5,0.6c0.1,0.2-0.2,0.3-0.6,0.6
	c-0.2,0.2-0.1,0.2,0,0.3c-0.1,0-0.2,0.1-0.1,0.1c0.1,0,0.1,0.1,0.2,0.1s0.2,0.1,0.1,0.2c-0.1,0.1-0.2,0.1-0.3,0.1
	c-0.1,0-0.1,0.1-0.2,0c0-0.1,0-0.2-0.1-0.3c-0.1-0.1-0.4-0.3-0.3,0c0.1,0.3-0.1,0.4-0.1,0.5c0,0,0,0,0,0l-0.1,0
	c-0.1-0.2-0.2-0.4-0.4-0.5c-0.3-0.2-0.8-0.3-0.9-0.3c-0.1,0-0.2-0.2-0.2-0.3c0.1-0.1,0.1-0.6,0.1-0.7c0-0.1,0.2-0.3-0.2-0.2
	c-0.1,0-0.1,0-0.2,0c0-0.2,0-0.3,0-0.4c0,0,0.1,0,0.1-0.1C44,79.5,44.1,79.5,44.1,79.4z"></path><path class="st17" d="M46.4,80.9c0.4-0.4,0.7-0.4,0.6-0.6c-0.1-0.2-0.4-0.3-0.5-0.6c-0.1-0.3-0.1-0.5-0.3-0.6
	c-0.2-0.2-0.1-0.1-0.5-0.1c-0.4,0-0.4,0.2-0.5-0.1c-0.1-0.3-0.2-0.3-0.4-0.1c-0.1,0.1-0.5,0.4-0.6,0.3c0,0-0.1,0.1-0.2,0.2
	c0-0.2,0-0.3,0.1-0.4c0.2-0.2,0.4-0.4,0.6-0.5c0.2-0.1,0-0.2,0.4-0.1c0.4,0.1,0.4,0.1,0.6,0.2s0.5,0.2,0.7,0.3
	c0.1,0.2,0.1,0.2,0.2,0.3c0.1,0.1,0.3,0,0.4,0.3c0,0.3-0.2,0.4-0.1,0.5c0.1,0.1,0-0.1,0.2,0.1c0.2,0.2,0.2,0.3,0.2,0.4
	c-0.1,0-0.1,0-0.2,0.1c-0.1,0.1,0.1,0.4,0,0.5c-0.1,0.1-0.3,0-0.3,0c-0.1,0-0.1,0.2-0.2,0.3c-0.1,0-0.1,0-0.2,0
	C46.3,81.1,46.3,81,46.4,80.9z"></path><path class="st17" d="M44.3,80.1c0,0.1,0,0.6-0.1,0.7c-0.1,0.1,0,0.3,0.2,0.3c0.1,0,0.6,0.1,0.9,0.3c0.1,0.1,0.3,0.3,0.4,0.5l-0.2,0
	c-0.2,0-0.2-0.1-0.4-0.2c-0.2,0-0.2-0.2-0.3-0.1c-0.2,0.1-0.3,0-0.4,0c-0.1,0-0.2,0-0.3,0c-0.1,0-0.1,0.3-0.2,0
	c-0.1-0.2-0.1-0.2-0.1-0.4c0-0.2-0.1-0.1-0.1-0.3c0-0.2,0.3,0.1,0.1-0.3c-0.1-0.4-0.1-0.4-0.1-0.7c0,0,0-0.1,0-0.1
	c0.1,0,0.1,0,0.2,0C44.5,79.8,44.2,80,44.3,80.1z"></path><path class="st18" d="M46,81.1c0-0.1-0.3-0.4-0.3-0.4L45.6,81c0,0-0.2,0-0.2-0.4c0-0.3,0.1-0.4,0.1-0.4s-0.3,0.5-0.3,0.5
	S44.7,81,44.7,81l0.1-0.8c0,0-0.5,0.2-0.4,0.1c0,0,0.9-0.4,0.9-0.4l-0.8-0.2l0.8,0l-0.7-0.6l0.8,0.4l0.1-0.5l0.1,0.7l0.7-0.4
	l-0.5,0.6l0.9,0.1l-0.8,0.1l0.5,0.2l-0.5-0.1l0.2,0.5"></path><path class="st10" d="M28.8,47c-1.7-0.7-10.9-2.5-12.8-1.8c-1.9,0.7-2.8,2.4-2.9,3.2c-0.1,0.8,0,2.2-0.1,3.4
	c-0.1,1.2,0.5,2.5,1.2,3.6c0.7,1,1.8,2.2,2.1,2.6c0.3,0.4,2.6,1.9,3.2,2.1c0.6,0.2,2.4,0.4,2.8,0.5c0.4,0.1,1.4,0.4,2.2,0.1
	s2.1-2.2,2.5-2.8c0.4-0.5,1.6-2.6,2-3.6c0.4-1,1-2.8,1.4-3.6c0.4-0.8,0.6-2.4,0.6-2.4l-0.7-0.9L28.8,47z"></path><path class="st11" d="M29.6,48.5c0,0-2.7,3.1-3.8,5.4c-1.1,2.3-1.8,3.6-1.9,5.3c0,1.7,0.5,3.7,1.1,4.1s5.6,1.7,8.6,1.1
	s5.9-2.6,6.6-3.6s1.6-2.8,1.7-3.6c0-0.7-0.4-2.2-0.9-2.9c-0.5-0.7-2-2.6-2.2-2.8s-6.7-3.2-7.2-3.3C31,48,29.6,48.5,29.6,48.5z"></path><path class="st12" d="M30.3,47.6c0,0,4.7,3.5,5.5,4.1s6.8,2.9,7.2,3c0.4,0,2.6-0.3,3.3-1.6c0.7-1.3,1.4-2.1,1.7-3.9
	c0.3-1.8,0.7-2.7,0.6-3.7s-0.2-1.9-0.8-2.9c-0.6-0.9-1.1-2-1.9-3.1c-0.7-1.1-1.7-1.4-2.4-1.7s-2.1-1.1-2.6-1.1s-4.5,2.5-5.4,3
	s-3.3,2.9-3.4,3.2c-0.2,0.2-0.9,1.4-1.2,1.8C30.5,45.2,30.3,47.6,30.3,47.6z"></path><path class="st11" d="M31.8,46.1c0,0,4.2-2.4,4.9-3.5c0.7-1.1,1.4-2.1,1.8-2.5c0.5-0.4,1.3-0.6,2.1-1.9c0.7-1.3,1.1-2.2,0.7-3.9
	c-0.4-1.7-2.7-3.7-3.7-4.2c-1-0.4-3-1-3.5-1s-5.3,0.4-5.9,0.7s-2,1.3-2.3,1.8c-0.3,0.5-0.9,1.1-1.2,1.7c-0.3,0.6-0.3,1.8-0.1,3.3
	c0.2,1.5,0.5,2.7,1.4,4.2c0.9,1.5,1,2,1.6,2.6c0.5,0.6-0.3-0.1,0.8,0.8S31.8,46.1,31.8,46.1z"></path><path class="st12" d="M30.6,46.9c0,0-1.7-8.2-2.4-9.3c-0.7-1.1-2.6-5.3-3.6-5.7c-1-0.4-5.7,0.9-6.5,1.6s-2.5,2.4-2.8,4.8
	c-0.3,2.4-0.4,3.2-0.6,4.2c-0.3,1-0.5,1.8-0.3,2.1c0.2,0.3-0.1,0.5,0.7,1.2c0.8,0.7,1.8,1.1,3.7,1.4c1.9,0.3,3.4,0.5,5,0.7
	c1.6,0.2,3.7,0,4.5-0.1C28.9,47.7,30.6,46.9,30.6,46.9z"></path><path class="st13" d="M32.3,44.8c0,0,1.1-1.1,1.6-3c0.5-1.9,0.9-4.1,0.9-4.1l-0.3,2.5l-0.2,1.3c0,0,0.7-0.8,0.9-1.5
	c0.2-0.7,0.8-1.6,0.8-1.6l-1.9,3.9l-1,2.1c0,0,1.3-0.7,2-1.9s2.3-4.1,2.3-4.1s-1.4,3.2-1.7,3.6c-0.2,0.3-1.3,1.9-1.3,1.9l-1,0.8
	l1.8-1.2l3.7-2.1c0,0-3.4,2.8-3.8,2.8c-0.3,0-2.2,1.1-2.2,1.1l0.2,0.6c0,0,5.4-3,5.7-3.1c0.3-0.1,2.1-0.7,2.1-0.7l-2.3,1.3l3.9-0.5
	c0,0-7.2,1.6-9.1,3.4c-1.9,1.9-0.8,0.8-0.8,0.8s1-0.3,1.3-0.4c0.3-0.1,2.7-1,2.9-1.1c0.2,0,4.8-1.9,4.9-1.9c0.1,0-5.3,2.4-5.3,2.4
	s2.9-1.4,7.8-1s3.1,0.4,3.1,0.4s-5-0.8-7.2-0.1s-4.8,1.3-5,1.4s-2.1,0.5-2.1,0.5s2.9-0.3,3.2-0.3c0.3-0.1-2.4,0.5-2.9,0.5
	c-0.5,0,0.3,0.3,0.4,0.3c0.1,0,1.7,0,2.5-0.2s3-0.7,3.3-0.7s0.7,0,0.7,0s-1.9,0.3-2.3,0.5c-0.3,0.2-1.8,0.5-1.8,0.5s2.4,0.1,2.9,0.1
	c0.5,0,2.2,0.2,2.2,0.2l0.4,0.3c0,0-1.7-0.3-2.2-0.2s-3.6,0-3.9,0c-0.2,0-1.4,0.1-1.5,0.1c-0.1,0-0.6-0.1-0.6-0.1s0.6,0.7,1,0.7
	c0.4,0,3.4,0.2,4,0.3s2.4,0.1,2.4,0.1l-3.4,0l3.7,1.2c0,0-4.6-1.1-4.7-1.1c-0.1,0-1.6-0.2-1.8-0.2c-0.2,0-0.5,0-0.5,0
	s2.1,0.6,2.3,0.7s3.1,1.5,3.1,1.5s-3.4-1.4-3.8-1.5s-1.3-0.1-1.3-0.1s2.4,1.1,2.6,1.3c0.2,0.2,2.7,2.5,2.7,2.5s-5.4-3.8-6.3-4
	c-0.8-0.2,4.2,3,4.2,3l-0.4,1.1c0,0-3.7-3.5-3.9-3.7s-0.8-0.9-0.8-0.9l-0.4-0.2c0,0,0.5,0.9,0.8,1.3c0.3,0.4,1.4,1.5,2.1,2.3
	s1.6,2.3,1.6,2.3s-1.8-2.2-1.9-2.3c-0.1-0.1-0.8-0.7-0.8-0.7s1.1,1.8,1.3,2.2s0.8,2.5,0.8,2.5s-1.8-4.1-2.5-5s-1.2-1.6-1.4-1.9
	c-0.1-0.3-0.4-0.8-0.4-0.8s0.1,0.8,0.1,0.9c0,0,1.3,2.3,1.6,2.9c0.3,0.6,0.9,1.9,1.2,2.5c0.3,0.6-1.6-3-1.8-3.2
	c-0.1-0.2-1-1.5-1-1.8c0-0.4-0.3-0.7-0.3-0.7s0,1,0.2,1.7c0.2,0.7,0.9,2.1,1.2,2.5c0.3,0.4,1.3,2.9,1.4,3.1c0.1,0.2,0.2,1.2,0.2,1.2
	s-0.9-2.2-1.1-2.7c-0.2-0.5,0.3,1.9,0.3,1.9s-0.5-1.7-0.7-2.3c-0.2-0.6-1.2-2.5-1.3-2.8c-0.1-0.3-0.3-1.3-0.3-1.3s0.7,3.5,0.8,3.8
	c0.1,0.4,0.1,0.8,0.3,1.6c0.3,0.8,0.5,2.2,0.5,2.2s-0.6-1.7-0.7-1.9c-0.1-0.2-0.3-1.1-0.4-2c-0.2-0.9-0.5-3-0.6-3.1
	c-0.1-0.1-0.1-0.8-0.1-1c0-0.3,0-0.6,0-0.6s-0.3-0.2-0.3,0.4s-0.1,1.1,0,1.9c0.1,0.7,0.1,1.1,0.1,1.1S31,50.9,31,50.5
	c0-0.4,0-1.1,0-1.1s-0.2-0.1-0.3,0.7c-0.1,0.8-0.2,1-0.1,1.8c0.1,0.8,0.1,2,0.4,2.9c0.2,0.9,0.6,2.5,0.6,2.6c0,0.1,0.1,0.9,0.1,0.9
	s-0.2-0.7-0.3-0.9c-0.1-0.2-0.5-2-0.5-2.1c0-0.1-0.1-0.3-0.1-0.3s0.1,2.4,0.1,2.7c0,0.3-0.1,1.5-0.1,1.6c0,0.1-0.1-0.3-0.1-0.5
	c0-0.2-0.1-4-0.1-4.7c-0.1-0.7-0.2-3.1-0.2-3.4s0.1-0.6,0.1-0.8s-0.6,1-0.6,1.6c-0.1,0.5-0.2,2.2-0.3,2.7c0,0.5-0.2,2.4-0.1,3.3
	c0.1,0.8,0,0.7-0.1,0.6c0-0.1-0.1-2.9-0.1-3.3s0.4-3,0.4-3.3c0-0.2,0.4-1.3,0.5-1.4c0.1-0.1,0.3-0.4,0.2-0.3s-0.8,0.7-0.9,1
	c-0.1,0.3-1,2.3-1,2.9c0,0.6-0.4,3.9-0.4,3.9s0.1-2.7,0.1-3c0-0.3,0-0.7,0-0.7s-0.7,1.3-0.7,1.5s-0.2,1.2-0.2,1.2s0.7-2.9,0.7-3.1
	s0.8-1.9,0.9-2.2s0.3-0.9,0.3-0.9s-0.6,0.2-0.8,0.9c-0.2,0.7-0.7,1.5-0.8,1.8c-0.1,0.3-0.8,1.6-0.8,1.6c0,0.1,0.2-0.9,0.3-1.1
	c0.1-0.2,1.3-2.6,1.3-2.8c0.1-0.2,0.4-0.7,0.5-0.7c0,0-0.1-0.1-0.1-0.1s-1.5,1.7-1.7,2.2c-0.2,0.6-1.2,3.2-1.3,3.5
	c-0.1,0.3-0.5,1.4-0.5,1.4s0.7-2.6,0.8-2.9c0.1-0.3,0.7-1.6,0.7-1.6l-1.8,2.3c0,0,0.5-0.7,0.6-1c0.1-0.3,1.6-2.3,1.6-2.3
	c0-0.1,1-1.5,1.1-1.5s0.5-0.7,0.7-0.8c0.1-0.1-0.1-0.2-0.1-0.2s-1.3,0.8-1.6,1.3c-0.3,0.4-2.2,2.7-2.5,3.3c-0.4,0.6-1.4,1.4-1.4,1.4
	s1.3-1.6,1.4-1.8c0.1-0.2,1.3-1.7,1.3-1.7l0.5-0.6c0,0-3.1,3-3.6,3.3c-0.5,0.3-0.8,0.4-0.8,0.4s0.7-0.4,1-0.8
	c0.3-0.4,2.4-2.3,2.4-2.3c0.1-0.1,2.2-1.8,2.2-1.9c0,0,1.4-0.8,1.5-0.9c0.2-0.2-0.4-0.3-0.4-0.3s-1,0.3-1.2,0.4
	c-0.2,0-2.3,1.2-2.8,1.7c-0.5,0.4-3.6,2.6-3.6,2.6s3.8-3,3.9-3.1s2.9-1.8,3.7-1.8s1-0.3,1-0.3s-2.5,0.6-2.7,0.8s-2.1,0.7-2.3,0.8
	c-0.2,0.1-0.9,0.3-1.7,0.8s-2.2,1.3-2.2,1.3s2.6-1.9,2.6-1.9c0.1,0,3.4-1.2,3.6-1.3s1.3-0.4,1.3-0.4l-0.8,0c0,0-2.1,0.3-2.4,0.4
	c-0.2,0.1,1.9-0.9,2.6-0.7c0.7,0.2,0.8-0.1,0.8-0.2c0,0-2.2,0.1-2.6,0.2s-2,0.4-2.1,0.5c-0.1,0-3.7,1.5-4.1,1.7
	c-0.4,0.2-0.8,0.5-0.8,0.5s2.8-1.6,2.9-1.6s2.6-1.1,2.9-1.1s2.5-0.3,2.5-0.3s1,0,1,0s-2-0.4-2.3-0.5c-0.2,0-1.9-0.2-2.7,0
	S21.6,47,21.6,47s3.6-0.5,3.8-0.5c0.2,0,1.4,0,1.5,0c0.1,0-0.8-0.3-0.8-0.3s-3.1-0.6-3.5-0.6c-0.4,0-1.1-0.2-1.1-0.2
	s3.6,0.2,3.8,0.3s1.2,0.2,1.2,0.2l0.8,0.3l0.2-0.2L26,45.5c0,0-3.1-0.7-3.4-0.6c-0.4,0.1-2.2-0.2-2.6-0.2c-0.4,0-1,0-1,0
	s3.4-0.1,3.6-0.1c0.3,0,3.3,0.6,3.8,0.7c0.5,0.1,1.6,0.6,1.7,0.7c0.1,0.1,0.6,0.3,0.6,0.3s-0.5-0.6-0.7-0.7
	c-0.2-0.1-2.7-1.4-4.2-1.9s-2.5-0.9-2.5-0.9s4.2,1.3,4.5,1.4c0.3,0.1,0.6,0.2,0.6,0.2s-3.8-1.9-4.1-2.1c-0.3-0.2,3.8,1.6,5,2.6
	c1.2,0.9,1.8,1.1,1.8,1.1l0.5,0.4l-0.8-0.9c0,0-1-1.1-1.2-1.2s-1.8-1.8-2.5-2.1s-3.6-1.8-3.6-1.8s4.1,1.7,4.5,2.2s2.2,1.9,2.3,2.1
	s0.3,0.2,0.3,0.2s-1.4-1.8-1.7-2c-0.3-0.2-1.9-1.7-2.1-1.8c-0.2-0.1-1.1-0.8-1.2-0.8c-0.1,0,1.4,0.7,1.7,0.9c0.3,0.2,1.9,1.7,2.3,2
	s1.1,1.4,1.3,1.7c0.1,0.3,0.4,0.9,0.4,0.9s0.4,0.2,0.3,0c0-0.2-0.3-1-0.3-1s-0.5-1-0.7-1.4s-2.2-2.7-2.7-3.1s-2.2-2-2.2-2
	s2.9,2.3,3.1,2.6s0.8,0.8,0.8,0.8l-0.7-1.3c0,0-1-1.5-1.4-1.8c-0.4-0.3-0.6-0.6-0.6-0.6s1.5,1.3,1.6,1.5c0.1,0.1,1.5,2.2,1.5,2.4
	c0.1,0.1,0.6,1.1,0.6,1.2c0,0.1,0.9,1.7,0.9,1.3c0-0.2-0.2-0.9-0.5-1.5c-0.3-0.5-0.7-2.1-1.1-2.9c-0.4-0.8-0.9-1.8-0.9-1.8
	s0.8,1,1.1,1.5c0.3,0.5,0.8,2.1,0.9,2.2c0,0.1,0.3,0.5,0.4,0.9c0.1,0.4,0.2,0.6,0.2,0.5s0-1-0.2-1.5c-0.2-0.5-0.6-1.9-0.8-2.2
	s-0.6-1.7-0.6-1.7l0.6,1.5l-0.2-1.5c0,0,0.3,1.3,0.4,1.4c0,0.1,0.3,0.6,0.4,1c0.1,0.4,0.6,1.7,0.6,1.8c0,0.1,0.3,0.9,0.3,1
	s0.4,0.7,0.4,0.7s0.2-0.3-0.2-1.5c-0.5-1.2-0.9-2.7-1.1-3.4c-0.2-0.7-0.3-1.2-0.5-1.9c-0.1-0.7-0.1-0.9-0.2-1.6
	c-0.1-0.7,0-1.4,0-1.4s0.2,1.4,0.2,2.1s0.3,2.2,0.4,2.5c0.1,0.3,1,3,1,3.1c0,0.1,0.5,1.5,0.5,1.7s0,0.7,0,0.8c0,0.1,0,0.6,0,0.6
	s0.2-0.2,0.2-0.6c0-0.5,0.1-2.6,0-3.2c-0.1-0.6-0.1-1.5-0.4-2.1c-0.2-0.6-0.6-1.8-0.6-1.8l0.8,1.8l0.1-2.3c0,0,0.2,2.5,0.1,2.9
	c0,0.4,0,2.2,0,2.6s0,1.5,0,1.6c0,0.2,0,0.7,0,0.9c0,0.2,0,0.4,0,0.4s0.2-0.7,0.3-1c0-0.3,0.3-1.6,0.3-2.2c0-0.6,0-1.8,0-1.8
	s-0.1,4.1-0.1,4.4c0,0.3-0.1,0.7-0.1,0.7s0.4-1.3,0.5-1.6c0-0.3,0.2-2.1,0.2-2.7c0-0.6,0.2-1.8,0.2-2.5c0-0.7,0-1.4,0-1.4
	s0.2,1.7,0.2,2.2c0,0.5-0.1,1.9-0.1,2c0,0.1-0.2,1.9-0.2,1.9s0.6-2.7,0.6-3c0.1-0.3,0.3-1.2,0.3-1.4c0-0.2,0.2-0.9,0.2-1.1
	s0,0.9,0,1.1S33,40.3,33,40.8s-0.8,2.8-0.8,2.9c0,0.1-0.2,0.7-0.2,0.7s0.2-0.1,0.2-0.2c0.1-0.2,0.7-1.7,0.8-1.8
	c0.1-0.1,0.2-1,0.3-1.2c0-0.2,0.1,0.6,0,0.8c-0.1,0.2-0.6,1.7-0.6,1.8c-0.1,0.1-0.3,0.7-0.3,0.7L32.3,44.8z"></path><path class="st14" d="M28.4,47c0.1,0,1.3,1.2,1.5,1.6s0.2,0.8,0.2,0.9c0,0.1,1.9-0.7,2.3-0.8c0.4-0.2,0.8-0.3,0.9-0.4
	c0.1,0,0.3-0.2,0.3-0.3c0,0-0.7-0.6-0.5-1.3c0.1-0.7,0.2-1,0.2-1.3c0-0.4-0.2-0.5-0.3-0.5c-0.1,0-1.4,0.2-1.6,0.1
	c-0.3-0.1-1-0.7-1.2-0.6c-0.2,0.1-0.5,0.6-0.6,0.8c-0.1,0.1-0.3,0.4-0.5,0.7s-0.4,0.7-0.4,0.7L28.4,47z"></path><path class="st15" d="M30.9,45.2c0.1,0,0.2,0.1,0.3,0.1c0,0-0.1,0-0.1,0C30.9,45.3,31,45.3,30.9,45.2z"></path><path class="st16" d="M31.1,45.3c0,0,0.1,0,0.1,0c0.1,0,0.2,0.1,0.2,0.1c-0.1,0.1,0.3,0.3,0.5,0.4c0.2,0.1,0.2,0.2,0,0.4
	c-0.2,0.2-0.1,0.1,0.1,0.5c0.2,0.4,0.2,0.2,0.1,0.4c-0.1,0.2-0.2,0.2-0.4,0.5c-0.2,0.2-0.2,0.5-0.4,0.7c-0.2,0.2-0.3-0.1-0.8-0.3
	c-0.2-0.1-0.3,0-0.3,0.1c-0.1-0.1-0.1-0.1-0.1-0.1c0,0,0,0.1,0,0.2c0,0.1,0,0.2-0.1,0.2s-0.1-0.1-0.2-0.2c-0.1-0.1-0.1-0.1-0.1-0.2
	c0.1-0.1,0.2-0.1,0.2-0.2c0-0.1,0.1-0.5-0.1-0.3c-0.2,0.2-0.4,0.1-0.4,0.1c0,0,0,0,0,0l-0.1-0.1c0.1-0.2,0.3-0.4,0.3-0.5
	c0-0.3,0-0.8-0.1-0.9c-0.1-0.1,0.1-0.3,0.2-0.3c0.1,0,0.6-0.1,0.7-0.2c0.1-0.1,0.3,0.1,0.1-0.3c0-0.1-0.1-0.1-0.1-0.2
	c0.1-0.1,0.3-0.1,0.3-0.2c0,0,0.1,0,0.1,0C31,45.3,30.9,45.3,31.1,45.3z"></path><path class="st17" d="M30.7,47.9c0.5,0.2,0.6,0.4,0.8,0.3c0.2-0.2,0.2-0.4,0.4-0.7c0.2-0.2,0.4-0.2,0.4-0.5c0.1-0.2,0-0.1-0.1-0.4
	c-0.2-0.4-0.3-0.3-0.1-0.5c0.2-0.2,0.1-0.3,0-0.4c-0.2-0.1-0.6-0.3-0.5-0.4c0,0-0.1-0.1-0.2-0.1c0.1-0.1,0.2-0.1,0.4-0.1
	c0.2,0.1,0.5,0.2,0.7,0.4c0.2,0.2,0.2-0.1,0.3,0.3c0.1,0.4,0.1,0.4,0.1,0.6c0,0.2,0.1,0.5,0,0.7c-0.1,0.2-0.2,0.2-0.2,0.3
	c-0.1,0.1,0.1,0.3-0.1,0.4c-0.2,0.2-0.4,0-0.4,0.1c0,0.1,0.1,0,0,0.2c-0.1,0.2-0.2,0.3-0.2,0.3c0,0,0-0.1-0.1-0.1
	c-0.1-0.1-0.3,0.3-0.5,0.2c-0.1-0.1-0.1-0.2-0.1-0.3c0-0.1-0.2,0-0.3-0.1c0,0-0.1-0.1-0.1-0.1C30.4,47.9,30.5,47.8,30.7,47.9z"></path><path class="st17" d="M30.5,45.7c-0.1,0.1-0.5,0.2-0.7,0.2c-0.1,0-0.3,0.2-0.2,0.3c0.1,0.1,0.2,0.6,0.1,0.9c0,0.1-0.1,0.3-0.3,0.5
	l-0.1-0.1c-0.1-0.2,0.1-0.2,0-0.4c0-0.2,0.1-0.2,0-0.3c-0.1-0.1-0.1-0.3-0.2-0.3c0,0-0.1-0.1-0.1-0.2c0-0.1-0.3,0-0.1-0.2
	c0.1-0.2,0.2-0.2,0.3-0.2c0.1-0.1,0.1-0.1,0.3-0.2c0.2-0.1,0,0.3,0.3,0c0.3-0.3,0.3-0.3,0.5-0.3c0,0,0,0,0.1,0
	c0,0.1,0.1,0.1,0.1,0.2C30.9,45.8,30.6,45.7,30.5,45.7z"></path><path class="st18" d="M30.3,47.6c0.1-0.1,0.2-0.4,0.2-0.4l-0.3,0.1c0,0-0.1-0.2,0.2-0.4c0.3-0.1,0.4-0.1,0.4-0.1s-0.5-0.1-0.5-0.1
	s-0.5-0.3-0.5-0.3l0.7-0.2c0,0-0.3-0.3-0.3-0.3c0,0,0.7,0.6,0.7,0.6l-0.2-0.8l0.3,0.7l0.3-0.9l0,0.9l0.5-0.1l-0.6,0.4l0.6,0.4
	L31.3,47l0.3,0.8l-0.4-0.7l0,0.5L31,47.2l-0.4,0.4"></path></g></svg>