<?xml version="1.0" encoding="utf-8"?>
<!-- Generator: Adobe Illustrator 23.1.1, SVG Export Plug-In . SVG Version: 6.00 Build 0)  -->
<svg version="1.1" id="Layer_1" xmlns="http://www.w3.org/2000/svg" xmlns:xlink="http://www.w3.org/1999/xlink" x="0px" y="0px"
	 viewBox="0 0 108 108" style="enable-background:new 0 0 108 108;" xml:space="preserve">
<style type="text/css">
	.st0{fill:#B2D27F;}
	.st1{fill:#568541;}
	.st2{fill:#556C2D;}
	.st3{fill:#9FB94C;}
	.st4{fill:#7E61B1;}
	.st5{fill:#9E79B6;}
	.st6{fill:#AFBC62;}
	.st7{fill:#FEFEFE;}
	.st8{fill:#6B7D32;}
	.st9{fill:none;}
</style>
<g>
	<g>
		<path class="st0" d="M46.6,62.7C46.6,62.7,46.6,62.7,46.6,62.7C46.6,62.8,46.5,62.7,46.6,62.7l-0.2-0.2L46.1,62l-0.5-1
			c-0.3-0.7-0.7-1.3-1-2c-0.6-1.3-1.2-2.7-1.7-4.1c-0.3-0.7-0.5-1.4-0.7-2.1c-0.2-0.7-0.4-1.4-0.6-2.1c-0.4-1.4-0.7-2.9-0.9-4.4
			c-0.1-0.3,0.2-0.6,0.5-0.7c0.3,0,0.5,0.1,0.6,0.3l0,0c0.7,1.3,1.3,2.7,1.9,4c0.6,1.4,1,2.8,1.6,4.1c0.6,1.4,1.1,2.7,1.5,4.2
			c0.2,0.7,0.4,1.4,0.6,2.1c0.1,0.4,0.2,0.7,0.3,1.1l0.1,0.6l0,0.3l0,0.2c0,0.1,0,0.2,0,0.3c0,0.3-0.3,0.6-0.7,0.5
			C46.8,63.3,46.6,63,46.6,62.7z"/>
	</g>
	<g>
		<path class="st1" d="M47.1,44.7c0.5,2.1,0.9,4.2,1.3,6.3c0.4,2.1,0.8,4.2,1.1,6.3l2.2,12.6L54,82.5c0.8,4.2,1.6,8.4,2.6,12.4
			l-1.1,0.4c-1.5-4.1-2.4-8.3-3.3-12.4c-0.9-4.2-1.6-8.4-2.3-12.6c-0.7-4.2-1.4-8.4-2-12.6l-0.9-6.3c-0.3-2.1-0.6-4.2-1-6.3
			L47.1,44.7z"/>
	</g>
	<g>
		<path class="st2" d="M58.6,52.5l-0.4,10.7L57.8,74l-0.3,10.7c-0.1,1.8-0.2,3.6-0.3,5.4L57,92.7c0,0.9,0,1.8-0.3,2.7l-1.2,0
			c-0.3-0.9-0.4-1.8-0.4-2.7L55.1,90L55,87.3l0-2.7c0.1-3.6,0.3-7.2,0.5-10.8c0.2-3.6,0.5-7.2,0.8-10.7c0.3-3.6,0.6-7.1,1-10.7
			L58.6,52.5z"/>
	</g>
	<g>
		<path class="st3" d="M64.1,57.1c-0.4,3.2-0.7,6.4-1.1,9.7l-0.3,2.4l-0.2,1.2c-0.1,0.4-0.1,0.8-0.3,1.3c-0.1,0.2-0.1,0.7-0.2,1
			L62,74.1l-0.3,2.4c-0.3,3.2-0.9,6.6-1.7,9.7L59,91c-0.2,0.8-0.4,1.6-0.6,2.4c-0.2,0.8-0.6,1.6-1.2,2.2c-0.2,0.3-0.7,0.3-0.9,0
			c-0.1-0.1-0.2-0.3-0.2-0.5l0,0c0-0.9,0.2-1.6,0.4-2.4c0.2-0.8,0.4-1.5,0.6-2.3l1.1-4.7c0.8-3.1,1.3-6.3,1.7-9.5l0.3-2.4l0.2-1.2
			c0.1-0.4,0.1-0.8,0.3-1.4c0.2-0.6,0.3-1.5,0.4-2.2l0.3-2.4c0.5-3.2,0.9-6.4,1.5-9.7c0.1-0.3,0.4-0.5,0.7-0.5
			C63.9,56.5,64.2,56.8,64.1,57.1L64.1,57.1z"/>
	</g>
	<g>
		<path class="st3" d="M54.9,95c-1.1-2.6-2-5.2-2.9-7.8c-0.9-2.6-1.7-5.2-2.5-7.9c-0.4-1.3-0.7-2.7-1-4c-0.1-0.7-0.3-1.4-0.3-2.1
			l-0.2-2L46.9,63l0-0.1l0-0.1c0.2-2.4,0.3-4.9,0.5-7.3c0-0.3,0.3-0.6,0.6-0.6c0.3,0,0.6,0.3,0.6,0.6c-0.1,2.4-0.1,4.9-0.3,7.3
			l0-0.1l1.2,8.1c0.2,1.4,0.3,2.7,0.7,4c0.3,1.3,0.7,2.6,1.1,3.9c1.6,5.2,3.5,10.4,5.7,15.3l0,0c0.3,0.6,0,1.3-0.6,1.5
			C55.8,95.9,55.2,95.7,54.9,95C54.9,95.1,54.9,95.1,54.9,95z"/>
	</g>
	<g>
		<path class="st1" d="M59.4,80.9c-1-2.5-1.7-5.1-2.4-7.7c-0.3-1.3-0.6-2.6-0.9-3.9c-0.3-1.3-0.5-2.6-0.7-4c0-0.3,0.2-0.6,0.5-0.7
			c0.3,0,0.5,0.1,0.6,0.4l0,0c0.5,1.3,0.9,2.5,1.3,3.8c0.4,1.3,0.8,2.6,1.1,3.9c0.7,2.6,1.3,5.2,1.5,7.9c0,0.3-0.2,0.6-0.5,0.7
			C59.8,81.3,59.5,81.2,59.4,80.9L59.4,80.9z"/>
	</g>
	<g>
		<path class="st2" d="M47.5,67.4c-1.2-1.4-2.2-3-3.2-4.5c-1-1.6-1.9-3.1-2.8-4.7l-1.3-2.4c-0.4-0.8-0.9-1.6-1.2-2.2
			c-0.6-0.8-1.1-1.7-1.4-2.6c-0.2-0.5-0.3-0.9-0.5-1.4c-0.1-0.5-0.2-0.9-0.2-1.6c0-0.3,0.3-0.6,0.6-0.6c0.2,0,0.4,0.1,0.5,0.3
			l0.1,0.2c0.3,0.6,0.8,1.4,1.3,2.1c0.5,0.7,1,1.3,1.6,2c0.7,0.8,1.2,1.6,1.7,2.4c0.5,0.8,1,1.6,1.4,2.4c0.9,1.6,1.7,3.3,2.5,5
			c0.7,1.7,1.4,3.4,1.9,5.2c0.1,0.3-0.1,0.7-0.4,0.8C47.9,67.7,47.7,67.6,47.5,67.4z"/>
	</g>
	<g>
		<path class="st0" d="M47.7,63.4c0.2-1.4,0.5-2.7,0.8-4.1c0.3-1.3,0.7-2.7,1-4c0.4-1.3,0.8-2.7,1.2-4l0.6-2l0.6-1.9l0-0.1
			c0.1-0.3,0.4-0.5,0.8-0.4c0.3,0.1,0.4,0.4,0.4,0.6c-0.2,1.5-0.4,2.8-0.7,4.2c-0.3,1.4-0.6,2.7-1,4c-0.4,1.3-0.7,2.7-1.2,4
			c-0.4,1.3-0.9,2.6-1.4,3.9c-0.1,0.3-0.5,0.5-0.8,0.3C47.8,64,47.7,63.7,47.7,63.4z"/>
	</g>
	<g>
		<path class="st3" d="M49.1,76.8c-0.3-1-0.4-2-0.2-3c0.1-1,0.4-1.9,0.7-2.8c0.6-1.8,1.2-3.5,1.7-5.2c1-3.4,1.8-6.9,1.9-10.5l0,0
			c0-0.3,0.3-0.6,0.6-0.6c0.3,0,0.5,0.2,0.6,0.5c0.4,1.9,0.4,3.8,0.2,5.7c-0.2,1.9-0.6,3.7-1.1,5.6c-0.3,0.9-0.6,1.8-0.9,2.7
			l-1.1,2.5c-0.7,1.7-1.4,3.2-1.3,4.9c0,0.3-0.2,0.6-0.6,0.6C49.5,77.2,49.2,77.1,49.1,76.8z"/>
	</g>
	<g>
		<path class="st2" d="M60.8,71.7c0.5-1.2,1-2.4,1.6-3.6l1.5-3.6l1.5-3.6c0.5-1.2,1-2.4,1.4-3.6l0,0c0.1-0.3,0.5-0.5,0.8-0.4
			c0.3,0.1,0.4,0.3,0.4,0.6c-0.1,1.4-0.3,2.7-0.7,4c-0.4,1.3-0.9,2.6-1.4,3.8c-0.5,1.2-1.1,2.4-1.8,3.6c-0.7,1.2-1.4,2.3-2.3,3.4
			c-0.2,0.3-0.6,0.3-0.9,0.1C60.8,72.3,60.7,72,60.8,71.7L60.8,71.7z"/>
	</g>
	<g>
		<path class="st0" d="M61.2,70.6c-0.7-0.6-1.4-1.2-2-1.9c-0.6-0.7-1.2-1.3-1.8-2c-1.2-1.4-2.3-2.8-3.3-4.4l0,0
			c-0.2-0.3-0.1-0.7,0.2-0.9c0.2-0.1,0.5-0.1,0.6,0c0.8,0.5,1.6,1.1,2.2,1.7c0.7,0.6,1.3,1.3,2,2c0.6,0.7,1.2,1.4,1.7,2.2
			c0.5,0.8,1,1.6,1.3,2.6c0.1,0.3-0.1,0.7-0.4,0.8C61.6,70.8,61.4,70.8,61.2,70.6L61.2,70.6z"/>
	</g>
	<g>
		<path class="st3" d="M51.7,56c1.1,0.6,2.1,1.3,3.1,2l2.9,2.1l0.7,0.5c0.1,0.1,0.2,0.1,0.3,0.2l0.4,0.2c0.7,0.4,1.2,0.9,1.7,1.4
			c0.4,0.5,0.8,1,1.2,1.6c0.2,0.3,0.3,0.6,0.5,0.9c0.1,0.2,0.1,0.3,0.2,0.5c0,0.1,0.1,0.2,0.1,0.3l0,0.2c0,0.1,0,0.2,0,0.4
			c0,0.3-0.3,0.6-0.7,0.5c-0.3,0-0.6-0.3-0.5-0.7c0,0,0,0.1,0,0.1c0,0,0,0,0,0c0,0-0.1-0.1-0.1-0.1c-0.1-0.1-0.2-0.2-0.3-0.3
			c-0.2-0.2-0.4-0.4-0.6-0.6c-0.4-0.4-0.9-0.8-1.3-1.1c-0.4-0.4-0.9-0.7-1.3-0.9l-0.4-0.2c-0.2-0.1-0.3-0.2-0.5-0.3
			c-0.3-0.2-0.6-0.4-0.8-0.6c-1-0.7-2-1.6-2.9-2.4c-0.9-0.9-1.8-1.7-2.6-2.7c-0.2-0.3-0.2-0.6,0.1-0.9C51.2,55.9,51.5,55.9,51.7,56z
			"/>
	</g>
	<g>
		<path class="st1" d="M61.6,68.4c0.1-0.4,0.2-0.7,0.2-1.1c0.1-0.4,0.2-0.9,0.4-1.3c0.5-0.9,1.3-1.4,2-1.9l3.9-2.4
			c0.6-0.4,1.3-0.8,1.8-1.3c0.5-0.4,1-1,1.5-1.6c0.6-0.6,1.1-1.2,2.1-1.7c0.8-0.3,1.4-0.6,2.2-0.8l0.1,0c0.3-0.1,0.7,0.1,0.8,0.4
			c0.1,0.3,0,0.5-0.2,0.7c-0.6,0.5-1.4,0.9-2,1.3c-0.4,0.3-0.9,0.9-1.3,1.5c-0.5,0.6-0.9,1.3-1.6,1.9c-0.7,0.6-1.3,1-2,1.5
			c-1.4,0.8-2.7,1.6-4.2,2.3c-0.7,0.3-1.3,0.7-1.6,1.1c-0.3,0.4-0.5,1.2-0.9,2c-0.2,0.3-0.5,0.4-0.8,0.2
			C61.7,69,61.5,68.7,61.6,68.4z"/>
	</g>
	<g>
		<path class="st3" d="M62.6,59.3c-0.3-0.8-0.5-1.8-0.7-2.7c-0.2-1-0.3-1.9-0.4-2.9c-0.1-1-0.1-2-0.1-3c0-1,0.1-1.9,0.4-3.1
			c0.1-0.3,0.4-0.5,0.7-0.4c0.2,0.1,0.4,0.2,0.4,0.4l0,0.2c0.2,0.8,0.5,1.8,0.7,2.8c0.2,1,0.3,1.9,0.5,2.9c0.1,1,0.2,2,0.2,2.9
			c0,1-0.1,1.9-0.5,3.1c-0.1,0.3-0.4,0.5-0.8,0.4c-0.2-0.1-0.3-0.2-0.4-0.4L62.6,59.3z"/>
	</g>
	<g>
		<path class="st0" d="M62.4,60.4c0-0.5,0.1-0.7,0.1-1c0-0.3,0.1-0.6,0.2-0.9c0.1-0.6,0.3-1.2,0.4-1.7c0.3-1.1,0.7-2.3,1.1-3.4
			c0.2-0.6,0.4-1.1,0.7-1.7l0.7-1.6c0.5-1,0.9-2.1,1.5-3.2l0,0c0.2-0.3,0.5-0.4,0.8-0.2c0.2,0.1,0.3,0.3,0.3,0.6
			c-0.1,1.2-0.3,2.4-0.6,3.6c-0.3,1.2-0.8,2.2-1.2,3.4c-0.4,1.1-0.9,2.2-1.3,3.2c-0.2,0.5-0.5,1.1-0.8,1.6L64,59.8
			c-0.1,0.2-0.3,0.6-0.4,0.7l-0.2,0.2c-0.2,0.2-0.6,0.3-0.8,0.1C62.5,60.7,62.4,60.5,62.4,60.4z"/>
	</g>
	<g>
		<path class="st0" d="M59.2,83c0.2-1.9,1.3-3.5,2.4-4.9c1.2-1.4,2.8-2.4,4.1-3.2c1.4-0.9,2.7-1.8,3.9-2.8c1.2-1,2.3-2.1,3.3-3.4
			l0,0c0.2-0.3,0.6-0.3,0.9-0.1c0.2,0.2,0.3,0.4,0.2,0.7c-0.6,1.7-1.7,3.2-3,4.4C69.9,75,68.4,76,67,76.9c-0.7,0.5-1.5,0.9-2.1,1.3
			c-0.6,0.4-1.3,0.9-1.8,1.4c-1.1,1-2.2,2.3-2.7,3.7l0,0c-0.1,0.3-0.5,0.5-0.8,0.4C59.3,83.6,59.2,83.3,59.2,83z"/>
	</g>
	<g>
		<path class="st0" d="M48.5,75.2c-1.6-0.6-3.3-1.2-4.9-1.9c-1.6-0.7-3.3-1.4-4.9-2.4c-0.4-0.3-0.8-0.5-1.2-0.8
			c-0.2-0.2-0.4-0.3-0.6-0.5c-0.2-0.2-0.4-0.4-0.5-0.6c-0.6-0.7-1.1-1.4-1.6-2.2c-1-1.5-2-3-2.8-4.6c-0.2-0.3,0-0.7,0.3-0.8
			c0.2-0.1,0.5-0.1,0.7,0.1l0,0c1.3,1.3,2.4,2.6,3.6,3.9l1.7,1.9l0.2,0.2l0.2,0.2c0.1,0.1,0.3,0.2,0.4,0.3c0.3,0.2,0.6,0.4,1,0.7
			c1.4,0.8,3,1.6,4.5,2.5c1.5,0.9,3.1,1.8,4.5,3c0.3,0.2,0.3,0.6,0.1,0.9C49,75.2,48.8,75.3,48.5,75.2L48.5,75.2z"/>
	</g>
	<g>
		<path class="st1" d="M51.6,85c-1.2-1.3-2.4-2.6-3.5-3.9c-1.2-1.3-2.3-2.7-3.4-4.2c-0.3-0.4-0.5-0.8-0.8-1.2
			c-0.3-0.5-0.4-1-0.5-1.5c-0.3-0.9-0.4-1.8-0.6-2.7c-0.1-0.9-0.3-1.8-0.3-2.7c-0.1-0.9-0.2-1.7-0.1-2.8c0-0.3,0.3-0.6,0.6-0.6
			c0.3,0,0.5,0.2,0.6,0.5l0,0.1c0.2,0.7,0.4,1.7,0.6,2.5l0.6,2.6c0.2,0.8,0.4,1.7,0.7,2.5c0.1,0.4,0.3,0.7,0.4,1
			c0.2,0.3,0.4,0.7,0.7,1l3.2,4.2c1.1,1.4,2.1,2.9,2.9,4.5c0.2,0.3,0,0.7-0.3,0.8C52.1,85.2,51.8,85.2,51.6,85L51.6,85z"/>
	</g>
	<g>
		<path class="st2" d="M51.9,85.1c-1.4-0.7-2.9-1.2-4.4-1.8c-0.7-0.3-1.5-0.6-2.3-1.1c-0.8-0.4-1.5-1.1-2.1-1.8
			c-1.2-1.3-2-2.7-2.8-4.3c-0.4-0.8-0.7-1.6-0.9-2.4c-0.2-0.8-0.4-1.7-0.2-2.7c0.1-0.3,0.4-0.5,0.7-0.5c0.3,0.1,0.5,0.3,0.5,0.5
			l0,0.1c0.1,1.3,0.9,2.7,1.7,4c0.8,1.3,1.7,2.6,2.7,3.7c0.9,1.1,2.1,1.7,3.6,2.5c1.4,0.7,2.9,1.6,4.2,2.7c0.2,0.2,0.3,0.6,0,0.9
			C52.4,85.2,52.1,85.2,51.9,85.1z"/>
	</g>
	<path class="st4" d="M57.7,21c-0.2-0.9,0.5-1.7,1.4-1.5c0.7,0.2,0.4-0.4,0.6-0.6c0.3-0.2,0-0.4-0.2-0.6c-0.5-0.2-0.8-0.7-1.1-1.2
		c-0.2-0.4,0-1.2,0.5-1.5c0.1,0.1,0.2,0.1,0.2,0.2c0,0.1,0,0.3,0.2,0.3c0,0,0.1-0.1,0.1-0.1c0-0.2-0.1-0.3-0.3-0.3
		c-0.1-0.1-0.1-0.1-0.2-0.2c0.1-0.9-0.8-1-1.3-1.4c-1-0.8-1.1-0.8-0.1-1.6c0.1-0.1,0.2-0.2,0.3-0.3c0.5-0.6,0.8-0.5,1.1,0.2
		c0.3,0.8,0.3,1.6,0.6,2.4c0.1,0.3,0.2,0.5,0.4,0.7c0.3,0.2,0.6,0.3,0.4-0.2c-0.1-0.2,0.1-0.4,0.2-0.5c0.9-0.8,0.5-1.7,0.2-2.6
		c-0.2-0.4-0.3-0.9,0.1-1.2c0.3-0.3,0.8-0.2,1.2,0.2c0.2,0.2,0.2,0.4,0.2,0.7c0,0.2,0,0.5,0.3,0.5c0.3,0,0.2-0.3,0.2-0.4
		c0.2-0.7,0.4-1.3,0.7-2c0.1-0.2,0.3-0.5,0.6-0.4c0.3,0.1,0.3,0.3,0.3,0.5c-0.2,1,0.4,1.5,1.2,1.8c-0.2,0.5-0.5,0.9-1,1.3
		c-0.6,0.5-0.3,0.7,0.2,1c-0.1,0.2-0.2,0.5-0.3,0.7c-1,0-1.5,0.4-1.6,1.3c0,0.5-0.1,1-0.1,1.5c0,0.3,0,0.5-0.4,0.7
		c-0.5,0.2-0.8,0.7-1.3,0.9c-0.5,0.2-0.6,0.7-0.4,1.2c0.1,0.2,0,0.7,0.3,0.7c0.3-0.1,0.6-0.5,0.9-0.7c0.1-0.1,0-0.3,0.2-0.3
		c0.1,1.1,0,2.5-0.3,3.3c-0.1,0.2-0.2,0.4-0.5,0.3c-1-0.3-1,0.3-1.1,0.9c-0.1,1.3-0.3,2.3-1.9,2.7C58.3,27,58,27,58,26.6
		c0.2,0,0.6,0,0.7-0.2c0.1-0.3-0.2-0.4-0.3-0.6c-0.2-0.3-0.6-0.5-0.6-0.9c0.2,0,0.5,0.2,0.4-0.2c-0.2-0.8,0-1.6-0.2-2.3
		c0.2,0.1,0.4,0.1,0.6,0.2c0,0.3,0.2,0.5,0.4,0.6c0.2,0.1,0.1,0.7,0.6,0.4c0.3-0.2,0.2-0.5,0.1-0.8c-0.1-0.4-0.2-0.8-0.3-1.2
		c0-0.3-0.2-0.5-0.5-0.5C58,20.1,58,20.1,57.7,21z M61.7,17.3c0.4-0.8,0.6-1.5,0.6-2.2c0-0.2,0-0.5-0.3-0.5c-0.2,0-0.5,0.1-0.5,0.4
		C61.5,15.7,61.3,16.4,61.7,17.3z M62.9,12.7c-0.5,0.7-0.2,1.4,0,2c0.1,0.2,0.2,0.2,0.4,0.2c0.1,0,0.1-0.1,0.2-0.2
		C63,14.1,63.7,13.2,62.9,12.7z M60.2,23.6c0.1-0.1,0.1-0.1,0.2-0.2c-0.1,0-0.1,0-0.2,0c-0.1,0-0.1,0.1-0.1,0.1
		C60.1,23.5,60.2,23.6,60.2,23.6z"/>
	<path class="st5" d="M58.4,27.3c1.6-0.4,1.8-1.3,1.9-2.7c0.1-0.7,0.1-1.2,1.1-0.9c0.3,0.1,0.4-0.1,0.5-0.3c0.3-0.8,0.5-2.2,0.3-3.3
		c-0.2,0-0.1,0.2-0.2,0.3c-0.3,0.3-0.5,0.7-0.9,0.7c-0.3,0.1-0.2-0.4-0.3-0.7c-0.2-0.5-0.1-1,0.4-1.2c0.5-0.2,0.8-0.7,1.3-0.9
		c0.3-0.1,0.4-0.4,0.4-0.7c0-0.5,0-1,0.1-1.5c0.1-0.9,0.6-1.3,1.6-1.3c0,0.2,0,0.4,0,0.5c-0.2,0.1-0.2,0.3-0.2,0.4
		c0,0.2-0.2,0.5,0.1,0.7c0.2,0.1,0.4-0.1,0.6-0.2c1-0.2,2.1-0.1,3-0.7c0.1-0.1,0.4-0.1,0.2-0.3l0,0c0.6,0.2,0.2,0.5,0,0.7
		c-0.4,0.4-0.9,0.5-1.5,0.5c-0.7,0-1.2,0.2-1.4,1c-0.2,0.8-0.9,1.4-1.5,2c-0.4,0.4-1,0.9-0.6,1.6c0.2,0.3,0.4,0.5,0.6,0.1
		c0,0,0-0.1,0.1-0.1c1,0.4,0.5,1.3,0.7,1.9c-0.4,0.1-0.8,0.1-1,0.5c-0.1,0.3,0.1,0.6,0.4,0.7c0,0.1,0.1,0.3,0.1,0.4
		c0,0.1,0,0.2,0,0.3c-0.2,0.5-0.4,1-0.8,1.4c-0.3,0.3-0.8,0.8-0.1,1.4c0.3,0.3,0.1,0.9-0.2,1.3c-0.4,0.6-0.7,1.2-0.5,2.1
		c0.1,0.5,0,1.1-0.8,1.4c-0.5,0.2-0.9,0.8-0.4,1.4c0.5,0.5,0.4,1.3,1,1.8c0.1,0.1,0.2,0.3,0,0.4c-0.1,0.1-0.2,0-0.3,0
		c-0.8,0-0.7-1.1-1.5-1.2c0,0-0.1-0.1,0-0.2c0.2-0.2,0.6-0.4,0.5-0.8c-0.1-0.2-0.7,0.3-0.6-0.3c0.1-0.3,0-0.7,0-1
		c0-0.4,0.1-0.7,0.2-1.1c0-0.3,0.2-0.7-0.1-1c-0.8,0.7-0.5,1.8-1.1,2.6c-0.2-1.2-0.6-2.3,0.3-3.3c0.2-0.2,0.2-0.6-0.2-0.8
		c-0.6-0.3-0.9-0.9-1-1.5C58.4,27.3,58.4,27.3,58.4,27.3z M61.5,26.7c1-1,1-2.3,1.6-3.3c0.1-0.1,0.1-0.4-0.1-0.5
		c-0.3-0.1-0.3,0.1-0.4,0.3c-0.4,0.8-0.7,1.6-1.1,2.4C61.3,26,61.3,26.3,61.5,26.7z"/>
	<path class="st5" d="M57.6,47.9c0.2-1.2-0.5-2.2-0.5-3.4c0-0.1-0.1-0.2-0.1-0.3c1-0.8,0-1.9,0.3-2.8c0-0.1,0.1-0.2,0.2-0.2
		c0.4,0.2,0.3,0.6,0.4,0.8c0.1,0.2,0.2,0.4,0.5,0.2c0.6-0.5,0.6,0,0.6,0.3c0.2,1.3,0.2,2.6,0,3.9c0.6-0.3,0.9-0.7,0.8-1.2
		c-0.3-1,0.1-2.2-0.5-3.2c-0.1-0.3-0.1-0.5,0.4-0.7c0.5-0.2,0.8-0.5,0.6-1.1c-0.2-0.6,0-1.2,0.2-1.8c0.5-1.3,1-1.4,2.1-0.6
		c0.1,0.1,0.1,0.2,0.2,0.3c-0.1,0.2-0.3,0.3-0.3,0.5c0,0.4-0.5,0.8-0.2,1c0.4,0.3,0.5-0.3,0.8-0.5c0.2-0.1,0.4-0.1,0.6,0.1
		c-0.1,0.2-0.1,0.3-0.2,0.5c-0.7,0.4-0.7,1.4-1.6,1.8c-0.2,0.1-0.1,0.9,0.4,0.9c1.1-0.1,0.9,0.6,0.7,1c-0.3,0.8-0.7,1.6-0.9,2.5
		c-0.3,1-1.3,1.4-1.7,2.3c-0.2,0.4-0.3,1-0.8,1.3c-0.3-0.3-0.5-0.7-0.3-0.9c0.8-0.8,0-1.1-0.3-1.9c-0.1,0.7-0.3,1.2-0.2,1.6
		c0.2,0.7-0.2,0.6-0.7,0.6c0,0-0.1-0.1-0.1-0.1c0.1-0.3,0.1-0.5-0.3-0.5c0,0,0-0.1,0-0.1C57.8,48,57.8,48,57.6,47.9L57.6,47.9z
		 M60.5,46.6c0.3-0.9,1-1.6,1.1-2.5c0-0.2,0.1-0.3,0-0.4c-0.2-0.1-0.3,0-0.4,0.2c-0.3,0.5-0.4,1.1-0.8,1.6
		C60,45.8,60.1,46.2,60.5,46.6z"/>
	<path class="st4" d="M58.2,48.9c0.4,0,0.8,0.1,0.7-0.6c-0.1-0.4,0.1-0.9,0.2-1.6c0.3,0.8,1.2,1.1,0.3,1.9c-0.2,0.2,0,0.6,0.3,0.9
		c0.4-0.3,0.6-0.9,0.8-1.3c0.4-0.9,1.5-1.3,1.7-2.3c0.2-0.9,0.7-1.6,0.9-2.5c0.1-0.4,0.4-1.1-0.7-1c-0.5,0.1-0.6-0.8-0.4-0.9
		c0.9-0.3,0.9-1.3,1.6-1.8c0,0.9,0.2,1.7,1.1,2.3c0.5,0.3,0.7,1,1,1.6c-0.1,0-0.3,0.1-0.4,0.1c-0.7-0.1-1.4-0.2-1.1,0.9
		c0.1,0.2-0.2,0.4-0.4,0.5c-0.3-0.1-0.7-0.3-0.7,0.1c0,0.5-0.7,1-0.1,1.6c-0.1,0.3-0.1,0.6,0,0.9c-0.2,0-0.4,0.1-0.5,0
		c-0.8-0.6-1,0.1-1.3,0.6c-0.4,0.7-0.4,1.4-0.8,2.1c-0.2,0.2-0.1,0.6,0.4,0.5c0.3-0.1,0.4,0,0.6,0.1c0.1,0,0.1,0.1,0.2,0.1
		c-1,0.4-1.2,0.3-1.6-0.6c-0.2-0.4-0.5-0.5-0.9-0.4c0,0-0.1-0.1-0.1-0.1c0-0.1,0.2-0.4-0.2-0.4C58.3,49.5,58.2,49.2,58.2,48.9z"/>
	<path class="st4" d="M64.6,23c-0.2-0.7,0.4-1.5-0.7-1.9c-0.3-1,0.7-1.1,1.2-1.4c0.3-0.2,0.5,0.2,0.5,0.4c0,0.3,0,0.5-0.1,0.9
		c0.3,0.1,0.7-0.5,1,0c0.2,0.3-0.1,0.7-0.2,0.9c-0.6,0.9-0.4,1.7,0.4,2.4c0.2,0.2,0.3,0.5,0.1,0.7c-0.3,0.3-0.4-0.1-0.6-0.2
		c-0.2-0.1-0.4-0.4-0.6-0.2c-0.4,0.3-0.6,0.2-1,0c-0.2-0.2-0.4,0.1-0.6,0.3c0-0.1-0.1-0.3-0.1-0.4C64.8,24.1,65,23.7,64.6,23z"/>
	<path class="st4" d="M68.2,15.4C68.2,15.4,68.1,15.3,68.2,15.4c-0.2,0-0.2,0.1-0.2,0.3c-0.9,0.6-2,0.5-3,0.7
		c0.3-0.5,0.6-0.9,0.7-1.5c0.2-1,2.2-1.9,3.2-1.3c0.7,0.4,0.2,0.7,0,1.1C68.6,14.8,68,14.9,68.2,15.4z"/>
	<path class="st5" d="M55.1,41.1c0.6,0.2,0.6,0.7,0.8,1.2c0.1,0.5-0.4,0.4-0.7,0.5c-0.2-0.2-0.5-0.5-0.7-0.7
		c-0.2-0.2-0.4-0.5-0.2-0.8C54.4,40.8,54.8,40.9,55.1,41.1z"/>
	<path class="st5" d="M58.6,22.5c-0.2-0.1-0.4-0.1-0.6-0.2c-0.2-0.2-0.4-0.4-0.6-0.6c-0.3-0.4-0.2-0.6,0.3-0.7
		c0.3-0.9,0.3-0.9,1.2-0.1C58.9,21.5,59,22,58.6,22.5z"/>
	<path class="st5" d="M56.1,30.5c-0.1-0.4,0.7-0.8,0.1-1.2c-0.1-0.1,0-0.2,0.2-0.3c0.4-0.1,0.7,0.1,1,0.2c0.5,0.3,0.4,1.5-0.2,1.9
		c0,0-0.1-0.1-0.1-0.1c-0.1-0.3-0.3-0.3-0.6-0.4C56.4,30.6,56.2,30.6,56.1,30.5z"/>
	<path class="st5" d="M64.8,14.2c-0.4-0.3-0.8-0.5-0.2-1c0.4-0.3,0.7-0.8,1-1.3c0.1-0.3,0.4-0.4,0.6-0.3c0.3,0.1,0.1,0.3,0,0.6
		C66,13,65.7,13.8,64.8,14.2z"/>
	<path class="st4" d="M57.8,26.4c-0.5-0.5-1.5-0.5-1.8-1.4c-0.2-0.5-0.4-1,0.2-1.2c0.5-0.3,1,0.1,1.1,0.6c-0.1-0.1-0.3-0.1-0.4-0.1
		c-0.2,0-0.4-0.4-0.6,0c-0.2,0.3,0.3,0.3,0.3,0.3C56.9,25.3,57.8,25.6,57.8,26.4z"/>
	<path class="st5" d="M57.8,26.4c0-0.8-0.9-1.1-1.2-1.8c0-0.1-0.5,0-0.3-0.3c0.2-0.3,0.4,0,0.6,0c0.2,0,0.3,0.1,0.4,0.1
		c0.1,0.1,0.3,0.3,0.4,0.4c0,0.4,0.4,0.6,0.6,0.9c0.2,0.2,0.5,0.3,0.3,0.6c-0.1,0.3-0.4,0.2-0.7,0.2C57.9,26.6,57.9,26.5,57.8,26.4z
		"/>
	<path class="st5" d="M55.3,36.4c0.2-0.6,1.2-0.2,1.1-1.2c0.4,0.5,0.4,1,0.7,1.4c0.4,0.5-0.3,0.4-0.6,0.5
		C56,36.9,55.7,36.6,55.3,36.4z"/>
	<path class="st6" d="M56.5,30.7c0.3,0,0.5,0,0.6,0.4C56.8,31.1,56.5,31.1,56.5,30.7z"/>
	<path class="st6" d="M63.9,21.2c-0.3,0.4-0.5,0.3-0.6-0.1C63.4,21.1,63.6,21.2,63.9,21.2z"/>
	<path class="st4" d="M64.3,15.9c0-0.2,0-0.3,0.2-0.4C64.7,15.7,64.6,15.8,64.3,15.9z"/>
	<path class="st5" d="M61.2,50.9c0.2,0,0.4,0,0.3,0.3c-0.1,0.3-0.3,0.6-0.5,0.8c-0.7,0.5-1.5,1-2.4,1.3c-0.2-0.3,0.2-0.5,0.2-0.8
		l0.1-0.1c0,0,0.1,0,0.1-0.1c0,0-0.1,0-0.1,0c0-0.1-0.1-0.1-0.1-0.2c0.3-0.8,0.2-1.5,0.1-2.3c0.4-0.1,0.7,0,0.9,0.4
		C60,51.3,60.2,51.3,61.2,50.9z"/>
	<path class="st7" d="M58,48.9c0,0.3,0.1,0.6,0.5,0.5c0.3,0,0.2,0.2,0.2,0.4c-0.4,0.6-0.6,1.3-1.3,1.7l0,0c0.2-1-0.4-1.8-0.3-2.8
		c0-0.3,0.1-0.6,0.3-0.8c0,0,0,0,0,0c0,0.1,0,0.2,0.1,0.2c0,0,0,0.1,0,0.1C57.6,48.5,57.7,48.7,58,48.9C58,48.8,58,48.9,58,48.9z"/>
	<path class="st5" d="M59.6,39.7c-0.2-0.6-0.4-1.1-0.6-1.7c-0.1-0.2,0-0.5,0.3-0.6c0.2-0.1,0.5-0.2,0.7-0.1c0.2,0.2,0.2,0.4,0.1,0.7
		C59.8,38.5,60.2,39.2,59.6,39.7z"/>
	<path class="st7" d="M56.7,47.8c-0.1,0.8,0.4,1.5,0.2,2.3c-1-0.6-1.2-1.8-0.3-2.7C56.6,47.5,56.6,47.7,56.7,47.8z"/>
	<path class="st5" d="M58.2,34.7c0.3,0.1,0.5,0.3,0.5,0.5c-0.1,0.5-0.7,0.6-1.1,0.8c-0.2,0.1-0.4-0.2-0.3-0.4
		C57.4,35,58,35.1,58.2,34.7z"/>
	<path class="st7" d="M62.9,38.1c-0.1-0.1-0.1-0.2-0.2-0.3c0-0.4,0.2-0.5,0.6-0.4c0.3,0.1,0.7,0.4,0.6,0.6
		C63.6,38.7,63.2,38,62.9,38.1z"/>
	<path class="st5" d="M56.7,47.8c0-0.1-0.1-0.3-0.1-0.4c0.1-0.3-0.4-0.7-0.1-1c0,0,0.2,0,0.2,0c0.3,0.3,0.1,0.7,0.1,1.1
		C56.8,47.6,56.7,47.7,56.7,47.8z"/>
	<path class="st5" d="M56,44.9c0,0.2,0,0.4-0.2,0.3c-0.3-0.1-0.4-0.4-0.5-0.7c0-0.1,0-0.3,0.2-0.2C55.8,44.4,56,44.6,56,44.9z"/>
	<path class="st8" d="M57.7,33.7c0.3,0.3,0.4,0.5,0.2,0.8C57.5,34.3,57.6,34,57.7,33.7z"/>
	<path class="st8" d="M56.1,45.6C56.1,45.7,56.1,45.7,56.1,45.6c0,0.1,0,0.1,0,0.1C56,45.7,56.1,45.7,56.1,45.6z"/>
	<path class="st8" d="M58.6,53.2c0.2,0.1,0,0.3,0,0.4C58.4,53.5,58.3,53.4,58.6,53.2z"/>
	<path class="st8" d="M58.8,52.5c-0.2-0.1-0.2-0.1,0-0.3c0,0.1,0.1,0.1,0.1,0.2C58.8,52.3,58.8,52.4,58.8,52.5L58.8,52.5z"/>
	<path class="st7" d="M57.5,51.5C57.4,51.5,57.4,51.6,57.5,51.5C57.4,51.6,57.4,51.6,57.5,51.5C57.4,51.6,57.4,51.5,57.5,51.5
		C57.5,51.5,57.5,51.5,57.5,51.5z"/>
	<path class="st7" d="M58.6,22.5c0.4-0.5,0.3-1,0.3-1.6c0.4,0,0.5,0.2,0.5,0.5c0.1,0.4,0.1,0.8,0.3,1.2c0.1,0.3,0.2,0.6-0.1,0.8
		c-0.4,0.3-0.4-0.3-0.6-0.4C58.7,23,58.6,22.8,58.6,22.5z"/>
	<path class="st5" d="M61.7,17.3c-0.4-0.8-0.2-1.6-0.2-2.4c0-0.2,0.3-0.4,0.5-0.4c0.3,0,0.3,0.3,0.3,0.5
		C62.3,15.8,62.2,16.5,61.7,17.3z"/>
	<path class="st7" d="M62.9,12.7c0.7,0.6,0.1,1.5,0.6,2c-0.1,0.1-0.1,0.1-0.2,0.2c-0.2,0.1-0.3,0-0.4-0.2
		C62.8,14,62.4,13.4,62.9,12.7z"/>
	<path class="st8" d="M60.2,23.6c0,0-0.1-0.1-0.1-0.1c0,0,0.1-0.1,0.1-0.1c0,0,0.1,0,0.2,0C60.3,23.5,60.3,23.5,60.2,23.6z"/>
	<path class="st7" d="M59.2,15.8c0.1,0.1,0.3,0.2,0.3,0.3c0,0-0.1,0.1-0.1,0.1C59.1,16.2,59.1,16,59.2,15.8
		C59.1,15.8,59.2,15.8,59.2,15.8z"/>
	<path class="st7" d="M59.1,15.9c-0.1-0.1-0.2-0.1-0.2-0.2c0.1-0.1,0.1-0.1,0.2-0.2C59.1,15.6,59.2,15.7,59.1,15.9
		C59.2,15.8,59.1,15.8,59.1,15.9z"/>
	<path class="st4" d="M61.5,26.7c-0.2-0.5-0.2-0.8,0-1.1c0.4-0.8,0.7-1.6,1.1-2.4c0.1-0.2,0.1-0.4,0.4-0.3c0.2,0.1,0.2,0.3,0.1,0.5
		C62.5,24.5,62.5,25.7,61.5,26.7z"/>
	<path class="st7" d="M64.6,23c0.4,0.7,0.2,1.1-0.6,1.2c-0.3-0.1-0.5-0.3-0.4-0.7C63.8,23.1,64.2,23.1,64.6,23z"/>
	<path class="st7" d="M68,15.6c0-0.1,0-0.3,0.2-0.3C68.3,15.6,68.1,15.6,68,15.6z"/>
	<path class="st4" d="M60.5,46.6c-0.4-0.4-0.5-0.7-0.2-1.1c0.4-0.5,0.5-1.1,0.8-1.6c0.1-0.2,0.2-0.3,0.4-0.2c0.2,0.1,0.1,0.3,0,0.4
		C61.4,45,60.8,45.7,60.5,46.6z"/>
	<path class="st4" d="M57.9,48.8c-0.2-0.1-0.3-0.3-0.3-0.5C58,48.3,58,48.5,57.9,48.8z"/>
	<path class="st6" d="M57.6,48.2c-0.1,0-0.2-0.1-0.1-0.2C57.6,48,57.7,48,57.6,48.2z"/>
	<path class="st5" d="M62.6,47.6c0.3,1-0.5,1.7-0.9,2.5c-0.2,0.3-0.4,0.5-0.6,0.8c-0.2-0.1-0.4-0.2-0.6-0.1
		c-0.4,0.1-0.5-0.3-0.4-0.5c0.4-0.6,0.5-1.4,0.8-2.1c0.3-0.5,0.5-1.1,1.2-0.6C62.2,47.6,62.4,47.6,62.6,47.6z"/>
	<path class="st8" d="M63.7,45c0,0.7-0.4,1.2-0.8,1.7c-0.6-0.6,0.1-1.1,0.1-1.6C63,44.7,63.5,44.9,63.7,45z"/>
	<path class="st6" d="M58.8,52.4C58.8,52.4,58.8,52.3,58.8,52.4c0.1-0.1,0.1-0.1,0.1-0.1C58.9,52.4,58.9,52.4,58.8,52.4z"/>
	<path class="st9" d="M56.7,46.4c0-0.1-0.2-0.1-0.2,0c-0.4,0.4,0.2,0.7,0.1,1c-0.8,0.9-0.7,2.1,0.3,2.7c0.2-0.8-0.3-1.5-0.2-2.3
		c0.1-0.1,0.2-0.2,0.2-0.3C56.9,47.1,57,46.8,56.7,46.4z"/>
	<path class="st9" d="M56.1,45.6c0,0,0,0.1,0,0.1C56.1,45.8,56.1,45.7,56.1,45.6C56.1,45.7,56.1,45.7,56.1,45.6z"/>
	<path class="st9" d="M59.6,39.7c0.7-0.5,0.2-1.2,0.5-1.7c0.1-0.2,0.2-0.5-0.1-0.7c-0.2-0.1-0.5-0.1-0.7,0.1
		C59,37.6,58.9,37.8,59,38C59.1,38.6,59.4,39.1,59.6,39.7z"/>
	<path class="st9" d="M57.4,51.6C57.4,51.6,57.4,51.5,57.4,51.6C57.4,51.6,57.4,51.6,57.4,51.6C57.4,51.6,57.4,51.6,57.4,51.6z"/>
	<path class="st9" d="M57.7,33.7c0,0.3-0.2,0.6,0.2,0.8C58.1,34.1,57.9,33.9,57.7,33.7z"/>
	<path class="st9" d="M57.6,35.9c0.4-0.1,1-0.2,1.1-0.8c0-0.2-0.2-0.4-0.5-0.5c-0.2,0.4-0.8,0.4-0.9,0.9
		C57.2,35.7,57.4,36,57.6,35.9z"/>
	<path class="st9" d="M55.5,44.3c-0.2,0-0.2,0.1-0.2,0.2c0.1,0.3,0.2,0.6,0.5,0.7c0.2,0.1,0.2-0.1,0.2-0.3
		C56,44.6,55.8,44.4,55.5,44.3z"/>
	<path class="st6" d="M58.6,53.2C58.6,53.2,58.6,53.2,58.6,53.2C58.6,53.2,58.6,53.2,58.6,53.2L58.6,53.2z"/>
	<path class="st6" d="M57.4,51.5C57.4,51.5,57.5,51.5,57.4,51.5C57.5,51.5,57.5,51.5,57.4,51.5C57.5,51.5,57.5,51.5,57.4,51.5
		C57.5,51.5,57.4,51.5,57.4,51.5z"/>
	<path class="st4" d="M58.8,53.6c-0.2-0.1-0.3-0.3,0-0.4c-0.2-0.3,0.2-0.5,0.2-0.8c-0.2-0.1-0.2-0.1-0.1-0.3
		c0.4-0.8,0.2-1.5,0.1-2.3c0,0-0.1-0.1-0.1-0.1c-0.4,0.6-0.6,1.3-1.3,1.7c0,0,0,0,0,0c0,0,0,0,0,0c0,0,0,0,0,0c0,0,0,0,0,0
		c0,0,0,0,0.1,0c0,0,0,0,0,0c0,0,0,0,0,0c0.2-0.9-0.4-1.8-0.3-2.8c0-0.3,0.1-0.6,0.3-0.8c0.2-1.2-0.5-2.2-0.5-3.4
		c0-0.1-0.1-0.2-0.1-0.3c1-0.8,0-1.9,0.3-2.8c0-0.1,0.1-0.2,0.2-0.2c0.4,0.2,0.3,0.6,0.4,0.8c0.1,0.2,0.2,0.4,0.5,0.2
		c0.6-0.5,0.6,0,0.7,0.3c0.2,1.3,0.2,2.6,0,3.9c0.6-0.3,0.9-0.7,0.8-1.2c-0.3-1,0.1-2.2-0.5-3.2c-0.1-0.3-0.1-0.5,0.4-0.7
		c0.5-0.2,0.8-0.5,0.6-1.1c-0.2-0.6,0-1.2,0.2-1.8c0.5-1.3,1-1.4,2.1-0.6c0-0.4,0.2-0.5,0.6-0.4c0.3,0.1,0.7,0.4,0.6,0.6
		c-0.2,0.5-0.6-0.1-1,0c-0.1,0.2-0.3,0.3-0.3,0.5c0,0.4-0.5,0.8-0.2,1c0.4,0.3,0.5-0.3,0.8-0.5c0.2-0.1,0.4-0.1,0.6,0.1
		c0.5-0.7,1.1-1.3,1.8-0.2c0.1,0.1,0.3,0.1,0.4,0.2c0.3,0,0.6,0.1,0.7-0.2c0.2-0.3-0.2-0.4-0.3-0.5c-0.5-0.8-1.1-1.5-0.6-2.5
		c0.2-0.3,0.2-0.6,0.3-0.9c0.1-0.2,0.1-0.6-0.2-0.5c-0.5,0.2-1.1-0.1-1.6,0.3c-0.4,0.3-0.7,0.2-1,0c-0.4-0.3-0.2-0.6-0.1-0.9
		c0.1-0.3,0.4-0.6,0.3-1c-0.2-0.8,0.3-1,0.9-1.1c0.4-0.1,0.9-0.2,1.3-0.2c0.3,0,0.7,0.2,0.7-0.1c0-0.3,0.1-0.7-0.4-1
		c-0.2-0.1-0.3-0.2-0.5-0.3c-0.6-0.5-0.7-1.4-0.3-2c0.2-0.3,0.8-0.4,0.5-0.7c-0.2-0.3-0.8-0.2-1.2-0.2c-0.2,0-0.3,0.1-0.4-0.2
		c0.2-0.4,0.9,0.1,0.9-0.6c0-0.4-0.8-1.4-1.3-1.5c-0.2,0.5-0.4,1-0.8,1.4c-0.3,0.3-0.8,0.8-0.1,1.4c0.3,0.3,0.1,0.9-0.2,1.3
		c-0.4,0.6-0.7,1.2-0.5,2.1c0.1,0.5,0,1.1-0.8,1.4c-0.5,0.2-0.9,0.8-0.4,1.4c0.5,0.5,0.4,1.3,1,1.8c0.1,0.1,0.2,0.3,0,0.4
		c-0.1,0.1-0.2,0-0.3,0c-0.8,0-0.7-1.1-1.5-1.2c0,0-0.1-0.1,0-0.2c0.2-0.2,0.6-0.4,0.5-0.8c-0.1-0.2-0.7,0.3-0.6-0.3
		c0.1-0.3,0-0.7,0-1c0-0.4,0.1-0.7,0.2-1.1c0-0.3,0.2-0.7-0.1-1c-0.8,0.7-0.5,1.8-1.1,2.6c-0.2-1.2-0.6-2.3,0.3-3.3
		c0.2-0.2,0.2-0.6-0.2-0.8c-0.6-0.3-0.9-0.9-1-1.5c-0.8,0.5-1.4,0.3-1.9-0.3c-0.1-0.1-0.2-0.4-0.4-0.3c-0.3,0.1-0.3,0.3-0.3,0.5
		c0,0.4,0.2,0.9-0.5,1.2c-0.2,0.1-0.1,0.4,0,0.5c0.3,0.3,0.4,0.6,0.3,1.1c-0.1,0.3,0.2,0.5,0.5,0.5c-0.1-0.4,0.7-0.8,0.1-1.2
		c-0.1-0.1,0-0.2,0.2-0.3c0.4-0.1,0.7,0.1,1,0.2c0.5,0.3,0.4,1.5-0.2,1.9c-0.1,0.4,0.7,0.9,0.3,1c-1.2,0.3-0.7,1.2-1,2
		c-0.5-0.3-0.9-0.6-1.6-0.6c0.1,0.7,0.6,1.5-0.9,1.6c0.8,0.2,0.4,1.1,1.2,1.2c0.2-0.6,1.2-0.2,1.1-1.2c0.4,0.5,0.4,1,0.7,1.4
		c0.4,0.5-0.3,0.4-0.6,0.5c0.1,0.7-0.4,0.5-0.8,0.5c-0.2,0-0.5-0.3-0.7,0c-0.2,0.2,0,0.5,0.2,0.7c0.4,0.6,0.2,0.7-0.4,0.7
		c-0.3,0-0.7,0.1-0.3,0.5c0.5,0.4,0.6,1,0.7,1.6c0.6,0.2,0.6,0.7,0.8,1.2c0.1,0.5-0.4,0.4-0.7,0.5c-0.1,0.4,0.7,1.6-0.8,1
		c-0.3-0.1-0.4,0.3-0.2,0.5c0.6,0.4,0.5,1.2,1.3,1.4c0.3,0.1,0.4,0.3,0.3,0.6c-0.1,0.4-0.3,0.2-0.6,0.1c-0.2-0.1-0.4,0.1-0.3,0.2
		c0.5,0.7-1.5,1.4,0.1,2c0,0,0,0.2-0.1,0.3c-0.2,0.8,0,1.5,0.8,1.9c0.3,0.1,0.6,0.3,0.6,0.6c0,0.7,0,0.8,0.5,0.9
		c0.5,0.2,0.6,0.2,0.6,0.7c0,0.2,0.1,0.7,0.1,0.9l1.3,0.2C58.7,53.8,58.8,53.7,58.8,53.6z M59.3,37.4c0.2-0.1,0.5-0.2,0.7-0.1
		c0.2,0.2,0.2,0.4,0.1,0.7c-0.3,0.5,0.2,1.2-0.5,1.7c-0.2-0.6-0.4-1.1-0.6-1.7C58.9,37.8,59,37.6,59.3,37.4z M57.7,33.7
		c0.3,0.3,0.4,0.5,0.2,0.8C57.5,34.3,57.6,34,57.7,33.7z M58.2,34.7c0.3,0.1,0.5,0.3,0.5,0.5c-0.1,0.5-0.7,0.6-1.1,0.8
		c-0.2,0.1-0.4-0.2-0.3-0.4C57.4,35,58,35.1,58.2,34.7z M55.8,45.3c-0.3-0.1-0.4-0.4-0.5-0.7c0-0.1,0-0.3,0.2-0.2
		c0.4,0.1,0.5,0.3,0.6,0.6C56,45.1,56,45.3,55.8,45.3z M56.1,45.6C56.2,45.7,56.2,45.7,56.1,45.6c0,0.1,0,0.1,0,0.1
		C56.1,45.7,56.1,45.7,56.1,45.6z M57,50.1c-1.1-0.6-1.2-1.8-0.4-2.7c0.1-0.3-0.4-0.7-0.1-1c0,0,0.2,0,0.3,0
		c0.3,0.3,0.1,0.7,0.1,1.1c0,0.1-0.1,0.2-0.2,0.3C56.7,48.6,57.2,49.3,57,50.1z"/>
	<path class="st4" d="M48.1,42c-0.1,0-0.2,0.1-0.2,0.1c-0.2,0.2-0.4,0.6-0.8,0.4c-0.4-0.2,0.1-0.6-0.1-0.9c-0.3,0.2-0.5,0.4-0.9,0.7
		c0-1.1-0.7-2,0.1-3c0.3,0.1,0.2,1.1,0.9,0.5c0.1-0.1,0.2,0.3,0.2,0.4c0,0.3-0.1,0.6-0.2,1c0.6-0.5,0.8-1,0.7-1.6
		c0.1-0.2,0.2-0.3,0.3-0.5c0.7,0.5,0.2,1.2,0.3,1.9c0,0.2-0.1,0.3-0.1,0.5C48.2,41.6,48.1,41.8,48.1,42C48.1,42,48.1,42,48.1,42z"/>
	<path class="st4" d="M48.5,41.1c-0.1-0.6,0.3-1.3-0.3-1.9c0.1-0.4,0.1-0.7,0.2-1.1c0.1-0.7,0.8-0.7,1.3-0.7c0.5,0,0.3,0.6,0.4,0.9
		c0.2,0.5-0.2,0.8-0.7,0.8c-0.6,0-0.6,0.4-0.7,0.8C48.7,40.3,48.8,40.7,48.5,41.1z"/>
	<path class="st4" d="M47.1,38.6c-0.3-0.3-0.1-0.7-0.1-1.1c0-0.1,0.1-0.2,0.1-0.4c0.3-0.4,0.4-0.8,0.3-1.2c0.3-0.4,0.2-0.8,0.3-1.2
		c0.1-0.2,0.1-0.3,0.1-0.5c0.1-0.1,0.1-0.2,0.2-0.4c0.2,0.4,0.5,0.9,0.7,1.3c-0.1,0.1-0.1,0.1-0.2,0.2c-0.5,0.2-0.3,0.7-0.2,1
		c0,0.3-0.1,0.6-0.1,0.9c-0.2,0.1-0.2,0.3-0.2,0.4c-0.1,0.2-0.1,0.4-0.2,0.7c0,0.1,0,0.1-0.1,0.2c0,0.1-0.1,0.1-0.1,0.2
		C47.5,38.6,47.4,38.6,47.1,38.6C47.2,38.6,47.2,38.6,47.1,38.6z"/>
	<path class="st4" d="M41.6,28.2c0.1-0.7,0.6-0.2,0.8-0.1c0.4,0.2,0.8,0.4,0.8,0.9c0,0.2-0.1,0.2-0.3,0.2c-0.4-0.2-0.8-0.2-1.1-0.4
		C41.8,28.5,41.7,28.3,41.6,28.2z"/>
	<path class="st4" d="M43.1,20.6c0,0.5-0.2,1-0.4,1.6c-0.5-1.1-0.3-1.9,0.3-2.1C43.1,20.3,43.1,20.5,43.1,20.6z"/>
	<path class="st4" d="M40.4,25.1c-0.1-0.3-0.6-0.4-0.4-0.8c0.1-0.1,0.4-0.1,0.5,0c0.3,0.2,0.6,0.4,0.2,0.9
		C40.7,25.2,40.6,25.1,40.4,25.1z"/>
	<path class="st4" d="M43.8,20.6c0,0.1,0.1,0.1,0.1,0.2c0.1,0.3,0.3,0.6-0.1,0.8c-0.1,0.1-0.3,0-0.3,0c-0.4-0.3-0.1-0.5,0-0.8
		C43.6,20.7,43.7,20.6,43.8,20.6z"/>
	<path class="st6" d="M48.2,36.3c0-0.4-0.3-0.8,0.2-1C48.4,35.6,48.6,36,48.2,36.3z"/>
	<path class="st6" d="M48.1,42c0-0.2,0.1-0.4,0.3-0.5C48.5,41.8,48.4,41.9,48.1,42z"/>
	<path class="st6" d="M48,37.5c0-0.2,0-0.3,0.2-0.4C48.3,37.3,48.1,37.4,48,37.5z"/>
	<path class="st6" d="M47.7,38.4c0-0.1,0-0.1,0.1-0.2C47.8,38.3,47.8,38.3,47.7,38.4z"/>
	<path class="st4" d="M43.9,27.7c-0.2-1.2-0.5-2.4-0.4-3.6c0-0.5,0.8-1.8,1.3-1.9c0.3-0.1,0.4,0.1,0.3,0.3c-0.1,0.4-0.1,0.9-0.4,1.3
		c-0.6,0.6-0.6,1.7-0.1,2.2c0.4,0.4,0.5,0.4-0.1,0.7C44.3,26.8,44.3,27.4,43.9,27.7z"/>
	<path class="st7" d="M43.6,36.9c-0.7,0-1,0.7-1.5,0.3c-0.7-0.5-1.4-1.1-1.7-2c0-0.2,0-0.3,0.2-0.4c0.3-0.1,0.7-0.1,0.8,0.1
		C41.8,35.7,42.8,36,43.6,36.9z"/>
	<path class="st4" d="M44.4,39.7c0.2,0,0.4,0,0.5,0.2c0.3,0.9,0.7,1.8,0.8,2.9C44.6,42.2,44.1,41,44.4,39.7L44.4,39.7z"/>
	<path class="st4" d="M46.1,30.3c-0.1,0-0.3,0-0.5,0.1c-0.2,0.1-0.5,0.4-0.6,0.1c-0.1-0.2-0.1-0.6,0-0.9c0.1-0.3,0.4-0.6,0.8-0.6
		c0.4,0,0.9,0,1.2,0.4c0.2,0.2,0.1,0.5,0,0.7C46.8,30.5,46.5,30.4,46.1,30.3z"/>
	<path class="st7" d="M42.1,34.5c-0.3,0-1-1.2-1-1.4c0-0.2,0.2-0.3,0.3-0.2c0.4,0.3,1.3-0.2,1.4,0.7C42.8,34,42.4,34.2,42.1,34.5z"
		/>
	<path class="st7" d="M41.4,23.3c-0.1-0.1-0.2-0.3-0.3-0.4c-0.3-0.4-0.4-0.9-0.3-1.4c0-0.1,0.2-0.1,0.2-0.1c0.4,0.2,0.9,0.6,0.9,1
		c0.1,0.4,0.4,0.8,0.1,1.3C41.9,23.5,41.7,23.3,41.4,23.3z"/>
	<path class="st7" d="M47.2,37.1c0,0.1-0.1,0.2-0.1,0.4c-0.1,0-0.3,0-0.4,0c0-0.3,0-0.6-0.1-0.8c0-0.4,0-0.7-0.1-1.1
		c0.4-0.1,0.5-0.5,0.8-0.8c0.1,0,0.3-0.1,0.4-0.1c0,0.4,0,0.9-0.3,1.2C47,36.3,47,36.7,47.2,37.1z"/>
	<path class="st4" d="M46.5,36.6c0,0.3,0,0.6,0.1,0.8c-0.4-0.2-0.8,0.6-1,0.1c-0.3-0.7-0.5-1.4-0.1-2.2
		C46.1,35.6,46.2,36.2,46.5,36.6z"/>
	<path class="st4" d="M46.3,33.2c0,0.5-0.5,1-0.8,1.4c-0.2,0.2-0.5,0-0.6-0.2c-0.2-0.3-0.2-0.6,0.1-0.8c0.3-0.2,0.5-0.3,0.6-0.7
		c0-0.3,0.1-0.5,0.5-0.4C46.2,32.6,46.2,32.9,46.3,33.2z"/>
	<path class="st4" d="M41.4,23.3c0.3,0,0.5,0.3,0.7,0.4c0.3,0.7,0.6,1.4,0.6,2.2C42.1,25.1,41.6,24.3,41.4,23.3z"/>
	<path class="st4" d="M47.2,34.8c-0.2,0.3-0.4,0.6-0.8,0.8c-0.8-0.7-0.5-1.2,0.8-1.7c0.1,0.1,0.1,0.1,0.2,0.2
		C47.3,34.3,47.3,34.5,47.2,34.8z"/>
	<path class="st4" d="M42.9,31c0.3,0,0.5,0.3,0.8,0.3c0.3,0,0.4,0.2,0.5,0.5c0,0.2,0,0.3-0.2,0.4c-0.3,0.1-0.5,0-0.7-0.2
		C43,31.8,42.8,31.5,42.9,31z"/>
	<path class="st7" d="M47.4,34.1c-0.1-0.1-0.1-0.1-0.2-0.2c0-0.1,0-0.3,0.1-0.3c0.2-0.3,0.5-0.8,0.8-0.6c0.4,0.2-0.3,0.5-0.2,0.8
		c-0.1,0.1-0.1,0.2-0.2,0.4C47.6,34.1,47.5,34.1,47.4,34.1z"/>
	<path class="st4" d="M39.4,18.4c0.1,0,0.3,0,0.4,0c0.3,0,0.6,0,0.7,0.3c0,0.2-0.1,0.2-0.2,0.3c-0.3,0.2-0.5,0-0.7-0.2
		C39.5,18.7,39.4,18.6,39.4,18.4z"/>
	<path class="st7" d="M46.3,26c-0.7,0.1-0.6,0.9-0.9,1.3c-0.3-1.1-0.1-1.4,0.8-1.5C46.2,25.9,46.3,25.9,46.3,26z"/>
	<path class="st7" d="M40.8,20.6c0,0.1-0.1,0.3-0.2,0.2c-0.2-0.1-0.4-0.2-0.5-0.4c-0.1-0.2,0.1-0.2,0.3-0.2
		C40.7,20.1,40.8,20.3,40.8,20.6z"/>
	<path class="st8" d="M44.4,39.8c-0.2,0.1-0.4,0.2-0.6,0c-0.1-0.1,0-0.2,0.1-0.2C44.1,39.5,44.4,39.3,44.4,39.8
		C44.4,39.7,44.4,39.8,44.4,39.8z"/>
	<path class="st8" d="M47.2,38.7c-0.1,0.1-0.1,0.1-0.2,0C47,38.7,47.1,38.6,47.2,38.7C47.2,38.6,47.2,38.6,47.2,38.7z"/>
	<path class="st6" d="M47.2,37.1c-0.1-0.5-0.1-0.9,0.3-1.2C47.6,36.4,47.5,36.8,47.2,37.1z"/>
	<path class="st6" d="M47.4,34.1c0.1,0,0.2,0,0.4,0.1c0,0.2,0,0.4-0.1,0.5c-0.1,0-0.3,0.1-0.4,0.1C47.3,34.5,47.3,34.3,47.4,34.1z"
		/>
	<path class="st9" d="M40.3,19c0.1-0.1,0.3-0.1,0.2-0.3c-0.1-0.4-0.4-0.3-0.7-0.3c-0.1,0-0.3,0-0.4,0c0,0.2,0.1,0.3,0.2,0.4
		C39.8,19,40,19.2,40.3,19z"/>
	<path class="st9" d="M46,32.5c-0.3-0.1-0.4,0.2-0.5,0.4c0,0.4-0.3,0.5-0.6,0.7c-0.3,0.2-0.3,0.5-0.1,0.8c0.1,0.2,0.4,0.4,0.6,0.2
		c0.4-0.4,0.8-0.9,0.8-1.4C46.2,32.9,46.2,32.6,46,32.5z"/>
	<path class="st9" d="M40.4,20.1c-0.1,0-0.4,0-0.3,0.2c0.1,0.2,0.3,0.3,0.5,0.4c0.2,0.1,0.3-0.1,0.2-0.2
		C40.8,20.3,40.7,20.1,40.4,20.1z"/>
	<path class="st9" d="M42,22.4c-0.1-0.5-0.5-0.8-0.9-1c0,0-0.2,0.1-0.2,0.1c-0.1,0.5,0,1,0.3,1.4c0.1,0.1,0.2,0.2,0.3,0.4
		c0.2,1,0.7,1.8,1.3,2.6c0-0.8-0.3-1.5-0.6-2.2C42.5,23.3,42.1,22.8,42,22.4z"/>
	<path class="st9" d="M44.4,39.7c0-0.5-0.3-0.2-0.5-0.2c-0.1,0-0.1,0.1-0.1,0.2C44,40,44.2,39.8,44.4,39.7c-0.2,1.3,0.3,2.5,1.3,3.1
		c0-1.1-0.5-1.9-0.8-2.9C44.8,39.7,44.6,39.7,44.4,39.7z"/>
	<path class="st9" d="M44,32.2c0.2-0.1,0.2-0.2,0.2-0.4c0-0.3-0.2-0.5-0.5-0.5c-0.3,0-0.4-0.3-0.8-0.3c-0.1,0.5,0,0.8,0.4,1
		C43.5,32.2,43.7,32.3,44,32.2z"/>
	<path class="st9" d="M42.1,34.5c0.3-0.2,0.7-0.4,0.7-0.9c-0.1-0.9-1-0.4-1.4-0.7c-0.1-0.1-0.3,0-0.3,0.2
		C41,33.3,41.8,34.5,42.1,34.5z"/>
	<path class="st9" d="M41.3,34.8c-0.1-0.2-0.5-0.2-0.8-0.1c-0.2,0-0.2,0.2-0.2,0.4c0.2,0.9,0.9,1.5,1.7,2c0.6,0.4,0.9-0.2,1.5-0.3
		C42.8,36,41.8,35.7,41.3,34.8z"/>
	<path class="st9" d="M44.5,26.7c0.6-0.3,0.5-0.3,0.1-0.7c-0.6-0.5-0.5-1.5,0.1-2.2c0.3-0.4,0.3-0.9,0.4-1.3
		c0.1-0.2-0.1-0.4-0.3-0.3c-0.5,0.1-1.2,1.3-1.3,1.9c-0.1,1.2,0.2,2.3,0.4,3.6C44.3,27.4,44.3,26.8,44.5,26.7z"/>
	<path class="st9" d="M45,30.5c0.2,0.3,0.4-0.1,0.6-0.1c0.2,0,0.4,0,0.5-0.1c0.4,0.1,0.6,0.2,0.8-0.2c0.1-0.2,0.2-0.5,0-0.7
		c-0.3-0.3-0.8-0.4-1.2-0.4c-0.4,0-0.7,0.2-0.8,0.6C44.9,29.9,44.9,30.3,45,30.5z"/>
	<path class="st9" d="M41.3,34.8c-0.1-0.2-0.5-0.2-0.8-0.1c-0.2,0-0.2,0.2-0.2,0.4c0.2,0.9,0.9,1.5,1.7,2c0.6,0.4,0.9-0.2,1.5-0.3
		C42.8,36,41.8,35.7,41.3,34.8z"/>
	<path class="st9" d="M42.1,34.5c0.3-0.2,0.7-0.4,0.7-0.9c-0.1-0.9-1-0.4-1.4-0.7c-0.1-0.1-0.3,0-0.3,0.2
		C41,33.3,41.8,34.5,42.1,34.5z"/>
	<path class="st9" d="M44.5,26.7c0.6-0.3,0.5-0.3,0.1-0.7c-0.6-0.5-0.5-1.5,0.1-2.2c0.3-0.4,0.3-0.9,0.4-1.3
		c0.1-0.2-0.1-0.4-0.3-0.3c-0.5,0.1-1.2,1.3-1.3,1.9c-0.1,1.2,0.2,2.3,0.4,3.6C44.3,27.4,44.3,26.8,44.5,26.7z"/>
	<path class="st9" d="M44.4,39.7c0-0.5-0.3-0.2-0.5-0.2c-0.1,0-0.1,0.1-0.1,0.2C44,40,44.2,39.8,44.4,39.7c-0.2,1.3,0.3,2.5,1.3,3.1
		c0-1.1-0.5-1.9-0.8-2.9C44.8,39.7,44.6,39.7,44.4,39.7z"/>
	<path class="st9" d="M44,32.2c0.2-0.1,0.2-0.2,0.2-0.4c0-0.3-0.2-0.5-0.5-0.5c-0.3,0-0.4-0.3-0.8-0.3c-0.1,0.5,0,0.8,0.4,1
		C43.5,32.2,43.7,32.3,44,32.2z"/>
	<path class="st9" d="M40.4,20.1c-0.1,0-0.4,0-0.3,0.2c0.1,0.2,0.3,0.3,0.5,0.4c0.2,0.1,0.3-0.1,0.2-0.2
		C40.8,20.3,40.7,20.1,40.4,20.1z"/>
	<path class="st9" d="M45,30.5c0.2,0.3,0.4-0.1,0.6-0.1c0.2,0,0.4,0,0.5-0.1c0.4,0.1,0.6,0.2,0.8-0.2c0.1-0.2,0.2-0.5,0-0.7
		c-0.3-0.3-0.8-0.4-1.2-0.4c-0.4,0-0.7,0.2-0.8,0.6C44.9,29.9,44.9,30.3,45,30.5z"/>
	<path class="st9" d="M40.3,19c0.1-0.1,0.3-0.1,0.2-0.3c-0.1-0.4-0.4-0.3-0.7-0.3c-0.1,0-0.3,0-0.4,0c0,0.2,0.1,0.3,0.2,0.4
		C39.8,19,40,19.2,40.3,19z"/>
	<path class="st9" d="M42,22.4c-0.1-0.5-0.5-0.8-0.9-1c0,0-0.2,0.1-0.2,0.1c-0.1,0.5,0,1,0.3,1.4c0.1,0.1,0.2,0.2,0.3,0.4
		c0.2,1,0.7,1.8,1.3,2.6c0-0.8-0.3-1.5-0.6-2.2C42.5,23.3,42.1,22.8,42,22.4z"/>
	<path class="st9" d="M46,32.5c-0.3-0.1-0.4,0.2-0.5,0.4c0,0.4-0.3,0.5-0.6,0.7c-0.3,0.2-0.3,0.5-0.1,0.8c0.1,0.2,0.4,0.4,0.6,0.2
		c0.4-0.4,0.8-0.9,0.8-1.4C46.2,32.9,46.2,32.6,46,32.5z"/>
	<path class="st5" d="M50.4,34.9c-0.7-0.4-0.9-1.1-1.3-1.7c-0.3-0.5,0.5-0.9,0-1.5c-0.1-0.1,0.4-0.2,0.6-0.3
		c0.1-0.1,0.3-0.1,0.3-0.3c0-0.2-0.2-0.3-0.3-0.3c-0.2-0.1-0.5-0.1-0.7-0.1c-2-0.5-1.9-0.3-1.2-2c0.3-0.6,0.2-0.9-0.5-0.7
		c-0.8,0.2-0.5-0.1-0.3-0.5c0.3-0.5-0.2-1.4-0.7-1.5c-0.7,0.1-0.6,0.9-0.9,1.3c-0.3-1.1-0.1-1.4,0.8-1.5c0.5-0.7,0.4-1-0.7-1.3
		c-0.7-0.2-0.5-0.4-0.2-0.7c0.4-0.4,0.9-0.5,1.4-0.7c-0.5-1.1-1.7-1.7-1.3-3c-0.4-0.3-0.6,0.3-0.9,0.2c-0.1-0.4,0.2-0.7,0.2-1.1
		c0-0.2,0-0.3-0.2-0.4c-0.2-0.1-0.3,0.1-0.4,0.2c-0.5,0.4-0.3,1-0.3,1.5c0,0.1,0.1,0.1,0.1,0.2c0.1,0.3,0.3,0.6-0.1,0.8
		c-0.1,0.1-0.3,0-0.3,0c-0.4-0.3-0.1-0.5,0-0.8c-0.1,0-0.3,0-0.4-0.1c0,0.5-0.2,1-0.4,1.6c-0.5-1.1-0.3-1.9,0.3-2.1
		c-0.2-0.9-0.5-1.7,0.9-1.9c0.3,0,0.6-0.5,0.5-0.9c0-0.5-0.5-0.2-0.8-0.3c-0.2-0.1-0.3-0.1-0.3-0.3c-0.2-0.5-0.7-0.3-0.9-0.1
		c-0.4,0.4-0.9,0.8-0.3,1.4c0.3,0.3,0.3,0.9,0,1.1c-0.4,0.2-0.5-0.3-0.7-0.6c-0.6-0.9-0.9-1.9-1.9-2.7c-0.1,0.5,0,1.1-0.7,0.9
		c-0.2,0-0.5-0.2-0.7,0.1c-0.1,0.3,0.2,0.4,0.3,0.6c0.3,0.3,0.5,0.6,0,0.9c-0.4,0.3-0.6,0.7-0.5,1.2c0.1,0.6,0.7,0.2,1.1,0.4
		c-0.1,0.1-0.1,0.3-0.2,0.3c-0.6,0.1-1,0.5-0.8,1.2c0.2,0.6,0.4,1.3,1.2,1.3c0.3,0,0.5,0.2,0.7,0.3c0.1,0.1,0.3,0.2,0.2,0.3
		c0,0.1-0.2,0.1-0.3,0.2c-0.3,0.1-0.8-0.1-0.6,0.5c0.2,0.6,0.6,0.9,1.1,0.8c-0.1-0.3-0.6-0.4-0.4-0.8c0.1-0.1,0.4-0.1,0.5,0
		c0.3,0.2,0.6,0.4,0.2,0.9c0.1,0.3,0.4,0.3,0.6,0.6c0.2,0.2,0.4,0.5,0.2,0.7c-0.2,0.3-0.5,0-0.7-0.2c-0.4-0.5-0.8-0.7-1.4-0.2
		c-0.2,0.2-0.7-0.1-0.8,0.4c0,0.5,0.4,0.5,0.8,0.6c0.7,0.3,1.7,0.2,2.1,1.1c0.1-0.7,0.6-0.2,0.8-0.1c0.4,0.2,0.8,0.4,0.8,0.9
		c0,0.2-0.1,0.2-0.3,0.2c-0.4-0.2-0.8-0.2-1.1-0.4c-0.6,0.3-0.7-0.4-1.1-0.6c-0.3-0.1-0.5-0.3-0.8-0.1c-0.2,0.2-0.1,0.5,0,0.7
		c0.2,0.4,0.6,0.7-0.2,0.9c-0.2,0-0.4,0.5,0,0.7c0.4,0.2,0.7,0.8,1.3,0.4c0.1-0.1,0.3-0.1,0.4,0c0.3,0.6-0.2,1.1-0.4,1.6
		c-0.2,0.5-0.6,0-0.8-0.2c-0.4-0.3-0.6-0.7-1.1-0.9c-0.5-0.2-0.8,0-0.9,0.3c-0.2,0.4,0.1,0.6,0.5,0.7c0.6,0.2,0.8,0.8,0.3,1.4
		c-0.2,0.2-0.4,0.3-0.6,0.5c-0.2,0.3-0.5,0.9-0.2,1c1.1,0.4,0.9,1.1,0.5,1.8c-0.4,0.7-0.1,1.4,0.1,2c0.1,0.3,0.4,0.4,0.6,0.1
		c0.6-1.4,1.8-0.7,2.8-1c0,0.3-0.1,0.4-0.2,0.4c-0.4,0.1-0.7,0.4-0.7,0.8c0,0.4,0.3,0.5,0.7,0.6c0.3,0.1,0.5,0.5,0.6,0.8
		c0.3,0.7,0.6,1.3,1.1,1.8c0.4,0.4,0.8,0.9-0.3,1c0.3,0.1,0.4,0.2,0.7,0.2c0.6-0.2,1.1-0.2,1.3,0.3c0.1,0.2,0.2,0.4,0.3,0.6
		c0.1,0.2,0.2,0.6,0.2,0.8l1.1-0.4c0-0.2-0.1-0.4-0.1-0.6c0-0.1,0-0.4,0-0.4c0-0.5,0.3-0.6,0.7-0.7c0.7-0.2,0.3-0.6,0.4-1.2
		c-0.1,0-0.2,0.1-0.2,0.1c-0.2,0.2-0.4,0.6-0.8,0.4c-0.4-0.2,0.1-0.6-0.1-0.9c-0.3,0.2-0.5,0.4-0.9,0.7c0-1.1-0.7-2,0.1-3
		c0.3,0.1,0.2,1.1,0.9,0.5c0.1-0.1,0.2,0.3,0.2,0.4c0,0.3-0.1,0.6-0.2,1c0.6-0.5,0.8-1,0.7-1.6c-0.4,0.1-0.5-0.2-0.4-0.5
		c0.1-0.2,0.2-0.4,0.1-0.7c-0.1,0-0.3,0.1-0.4,0.1c-0.1,0.1-0.1,0.1-0.2,0c0,0,0.1-0.1,0.1-0.1c-0.3-0.3-0.1-0.7-0.1-1.1
		c-0.1,0-0.3,0-0.4,0c-0.4-0.2-0.8,0.6-1,0.1c-0.3-0.7-0.5-1.4-0.1-2.2c0.6,0.2,0.6,0.9,1,1.2c0-0.4,0-0.7-0.1-1.1
		c-0.8-0.7-0.5-1.2,0.8-1.7c0-0.1,0-0.3,0.1-0.3c0.2-0.3,0.5-0.8,0.8-0.6c0.4,0.2-0.3,0.5-0.2,0.8c0.2,0.4,0.5,0.9,0.7,1.3
		c0.5,0.1,0.7,0.6,1.3,0.7c0.3,0,0.5,0.5,0.8,0.1C50.9,35.5,50.9,35.1,50.4,34.9z M39.6,18.8c-0.1-0.1-0.2-0.2-0.2-0.4
		c0.1,0,0.3,0,0.4,0c0.3,0,0.6,0,0.7,0.3c0,0.2-0.1,0.2-0.2,0.3C40,19.2,39.8,19,39.6,18.8z M40.6,20.8c-0.2-0.1-0.4-0.2-0.5-0.4
		c-0.1-0.2,0.1-0.2,0.3-0.2c0.3,0,0.4,0.1,0.5,0.4C40.9,20.7,40.8,20.9,40.6,20.8z M41.4,23.3c-0.1-0.1-0.2-0.3-0.3-0.4
		c-0.3-0.4-0.4-0.9-0.3-1.4c0-0.1,0.2-0.1,0.2-0.1c0.4,0.2,0.9,0.6,0.9,1c0.1,0.4,0.4,0.8,0.1,1.3c0.3,0.7,0.6,1.4,0.6,2.2
		C42.1,25.1,41.6,24.3,41.4,23.3z M43.5,24.1c0-0.5,0.8-1.8,1.3-1.9c0.3-0.1,0.4,0.1,0.3,0.3c-0.1,0.4-0.1,0.9-0.4,1.3
		c-0.6,0.6-0.6,1.7-0.1,2.2c0.4,0.4,0.5,0.4-0.1,0.7c-0.2,0.1-0.3,0.7-0.7,1C43.7,26.4,43.4,25.3,43.5,24.1z M41.4,32.9
		c0.4,0.3,1.3-0.2,1.4,0.7c0,0.5-0.4,0.7-0.7,0.9c-0.3,0-1-1.2-1-1.4C41.1,32.9,41.2,32.8,41.4,32.9z M42.1,37.1
		c-0.7-0.5-1.4-1.1-1.7-2c0-0.2,0-0.3,0.2-0.4c0.3-0.1,0.7-0.1,0.8,0.1c0.5,0.8,1.5,1.2,2.3,2C42.9,36.9,42.6,37.5,42.1,37.1z
		 M43.3,32.1c-0.3-0.2-0.5-0.5-0.4-1c0.3,0,0.5,0.3,0.8,0.3c0.3,0,0.4,0.2,0.5,0.5c0,0.2,0,0.3-0.2,0.4
		C43.7,32.3,43.5,32.2,43.3,32.1z M45.7,42.8c-1.1-0.6-1.6-1.8-1.4-3.1c-0.2,0.1-0.4,0.2-0.6,0c-0.1-0.1,0-0.2,0.1-0.2
		c0.2,0,0.5-0.3,0.5,0.2c0.2,0,0.4,0,0.5,0.2C45.3,40.9,45.7,41.8,45.7,42.8z M45.4,34.6c-0.2,0.2-0.5,0-0.6-0.2
		c-0.2-0.3-0.2-0.6,0.1-0.8c0.3-0.2,0.5-0.3,0.6-0.7c0-0.3,0.1-0.5,0.5-0.4c0.3,0.1,0.3,0.4,0.3,0.7C46.2,33.7,45.8,34.2,45.4,34.6z
		 M47,30.2c-0.2,0.3-0.4,0.3-0.8,0.2c-0.1,0-0.3,0-0.5,0.1c-0.2,0.1-0.5,0.4-0.6,0.1c-0.1-0.2-0.1-0.6,0-0.9
		c0.1-0.3,0.4-0.6,0.8-0.6c0.4,0,0.9,0,1.2,0.4C47.1,29.6,47.1,29.9,47,30.2z"/>
</g>
</svg>
