<?xml version="1.0" encoding="utf-8"?>
<!-- Generator: Adobe Illustrator 23.1.1, SVG Export Plug-In . SVG Version: 6.00 Build 0)  -->
<svg version="1.1" id="Layer_1" xmlns="http://www.w3.org/2000/svg" xmlns:xlink="http://www.w3.org/1999/xlink" x="0px" y="0px"
	 viewBox="0 0 108 108" style="enable-background:new 0 0 108 108;" xml:space="preserve">
<style type="text/css">
	.st0{fill:#529643;}
	.st1{fill:#568A41;}
	.st2{fill:#498B40;}
	.st3{fill:#4E9141;}
	.st4{fill:#578E4D;}
	.st5{fill:#699B40;}
	.st6{fill:#329345;}
	.st7{fill:#6E9C40;}
	.st8{fill:#578A41;}
	.st9{fill:#759D3F;}
	.st10{fill:#46873F;}
	.st11{fill:#4E8E40;}
	.st12{fill:#D5D9DA;}
	.st13{fill:#EAEDF0;}
	.st14{fill:#EEF3FA;}
	.st15{fill:#ECEFEC;}
	.st16{fill:#DAD8E2;}
	.st17{fill:#CEDACA;}
	.st18{fill:#B4BCA6;}
	.st19{fill:#B4B5A1;}
	.st20{fill:#9A8B7D;}
	.st21{fill:none;stroke:#887D89;stroke-width:0.1729;stroke-miterlimit:10;}
	.st22{fill:none;stroke:#87762E;stroke-width:0.1729;stroke-miterlimit:10;}
	.st23{fill:none;stroke:#B09931;stroke-width:0.1729;stroke-miterlimit:10;}
	.st24{fill:#857435;}
	.st25{fill:#B09931;}
	.st26{fill:none;stroke:#EFE880;stroke-width:0.1729;stroke-miterlimit:10;}
	.st27{fill:#DE4F2D;}
	.st28{fill:#EFE880;}
	.st29{fill:none;stroke:#887D89;stroke-width:0.1653;stroke-miterlimit:10;}
	.st30{fill:none;stroke:#87762E;stroke-width:0.1653;stroke-miterlimit:10;}
	.st31{fill:none;stroke:#B09931;stroke-width:0.1653;stroke-miterlimit:10;}
	.st32{fill:none;stroke:#EFE880;stroke-width:0.1653;stroke-miterlimit:10;}
	.st33{fill:none;stroke:#887D89;stroke-width:0.1586;stroke-miterlimit:10;}
	.st34{fill:none;stroke:#87762E;stroke-width:0.1586;stroke-miterlimit:10;}
	.st35{fill:none;stroke:#B09931;stroke-width:0.1586;stroke-miterlimit:10;}
	.st36{fill:none;stroke:#EFE880;stroke-width:0.1586;stroke-miterlimit:10;}
</style>
<g>
	<path class="st0" d="M43.97,59.41c-0.4-1.21-0.63-2.42-0.83-3.64c-0.21-1.22-0.34-2.44-0.41-3.66c-0.08-1.22-0.08-2.44-0.06-3.65
		c0-1.22,0.04-2.43,0.09-3.64c0.1-2.42,0.3-4.83,0.62-7.23c0.35-2.39,0.82-4.75,1.6-7.07l0.6,0.08c0.59,2.49,0.87,4.93,1.03,7.35
		c0.13,2.41,0.14,4.81,0.05,7.2c-0.05,1.19-0.1,2.38-0.19,3.57c-0.08,1.19-0.17,2.38-0.35,3.56c-0.17,1.19-0.4,2.37-0.7,3.55
		c-0.29,1.19-0.62,2.38-1.11,3.58H43.97z"/>
	<path class="st0" d="M43.98,57.7c-0.9-2.28-1.62-4.61-2.29-6.95c-0.68-2.34-1.25-4.7-1.83-7.07c-0.57-2.36-1.12-4.74-1.64-7.12
		c-0.5-2.38-1-4.77-1.4-7.18l0.33-0.08c0.79,2.31,1.49,4.64,2.18,6.98c0.68,2.34,1.32,4.69,1.94,7.04c0.61,2.36,1.23,4.71,1.75,7.09
		c0.52,2.38,0.99,4.77,1.29,7.2L43.98,57.7z"/>
	<path class="st0" d="M43.99,57.74c-1.61-1.9-2.96-3.93-4.24-6c-1.29-2.07-2.43-4.22-3.56-6.37c-1.13-2.16-2.21-4.34-3.23-6.55
		c-1.01-2.22-2-4.45-2.84-6.76l0.3-0.16c1.47,1.97,2.79,4.02,4.1,6.08c1.29,2.07,2.52,4.17,3.71,6.29c1.18,2.13,2.35,4.26,3.38,6.47
		c1.03,2.21,1.99,4.46,2.7,6.84L43.99,57.74z"/>
	<path class="st1" d="M44.86,59.13c-1.47-2.53-3.13-4.87-5.03-7.01c-0.24-0.27-0.47-0.54-0.72-0.8c-0.25-0.25-0.5-0.51-0.75-0.77
		c-0.25-0.25-0.48-0.52-0.75-0.76l-0.79-0.73c-0.51-0.5-1.07-0.95-1.61-1.41c-0.53-0.48-1.12-0.88-1.69-1.32
		c-2.31-1.7-4.8-3.15-7.41-4.36c-2.61-1.22-5.35-2.19-8.15-2.98l0.07-0.33c2.92,0.39,5.79,1.15,8.56,2.22
		c2.76,1.08,5.41,2.49,7.84,4.21c0.6,0.44,1.22,0.86,1.78,1.35c0.57,0.48,1.17,0.93,1.7,1.46l0.81,0.77
		c0.28,0.25,0.51,0.54,0.77,0.81c0.26,0.27,0.51,0.55,0.76,0.83c0.24,0.28,0.47,0.58,0.7,0.87c1.85,2.34,3.37,4.97,4.24,7.8
		L44.86,59.13z"/>
	<path class="st0" d="M44.05,57.8c-2.24-1.03-4.35-2.24-6.46-3.47c-2.09-1.24-4.14-2.57-6.16-3.92c-1.01-0.67-2.01-1.37-3.01-2.06
		c-1.01-0.68-1.99-1.4-2.98-2.11c-1.97-1.43-3.93-2.89-5.81-4.45l0.19-0.28c2.18,1.11,4.3,2.32,6.4,3.55
		c1.05,0.63,2.09,1.24,3.12,1.89c1.04,0.64,2.07,1.28,3.09,1.94c2.05,1.31,4.08,2.66,6.05,4.08c1.97,1.43,3.92,2.89,5.76,4.53
		L44.05,57.8z"/>
	<path class="st2" d="M49.86,59.43c-2.24-1.03-4.35-2.24-6.46-3.47c-2.09-1.24-4.14-2.57-6.16-3.92c-1.01-0.68-2.01-1.37-3.01-2.06
		c-1.01-0.68-1.99-1.4-2.98-2.11c-1.97-1.43-3.93-2.89-5.81-4.45l0.19-0.28c2.18,1.11,4.3,2.32,6.4,3.55
		c1.05,0.62,2.09,1.24,3.12,1.89c1.04,0.64,2.07,1.28,3.09,1.94c2.05,1.31,4.08,2.66,6.05,4.08c1.97,1.43,3.92,2.89,5.76,4.53
		L49.86,59.43z"/>
	<path class="st3" d="M46.02,60.05c-2.15-1.68-4.62-2.93-7.16-3.84l-0.96-0.33c-0.16-0.05-0.32-0.11-0.48-0.16
		c-0.16-0.05-0.32-0.09-0.52-0.07c-0.38,0.03-0.83,0.25-1.16,0.19c-0.17-0.02-0.31-0.12-0.46-0.17l-0.45-0.19
		c-0.6-0.26-1.21-0.53-1.83-0.75c-0.61-0.24-1.23-0.48-1.86-0.68c-0.63-0.22-1.25-0.44-1.89-0.62c-0.64-0.19-1.27-0.38-1.92-0.53
		c-0.65-0.16-1.29-0.35-1.95-0.47c-0.65-0.13-1.31-0.29-1.97-0.39c-2.64-0.49-5.34-0.76-8.09-0.92l-0.03-0.34
		C18,50.2,20.79,49.96,23.6,50c0.7-0.01,1.4,0.06,2.11,0.09c0.7,0.03,1.4,0.12,2.11,0.2c0.7,0.07,1.4,0.2,2.1,0.32
		c0.7,0.11,1.39,0.27,2.09,0.42c0.7,0.15,1.38,0.34,2.06,0.54c0.69,0.18,1.36,0.42,2.03,0.65l0.51,0.17
		c0.17,0.06,0.34,0.1,0.49,0.22c0.3,0.22,0.47,0.71,0.72,1.02c0.12,0.16,0.27,0.25,0.42,0.34c0.15,0.09,0.3,0.19,0.45,0.29
		l0.88,0.58c2.34,1.56,4.52,3.25,6.67,4.96L46.02,60.05z"/>
	<path class="st0" d="M44.13,57.83c-2.44,0.03-4.88-0.05-7.31-0.18c-1.22-0.05-2.43-0.15-3.64-0.22l-3.64-0.29
		c-2.42-0.22-4.85-0.45-7.26-0.74c-2.42-0.29-4.83-0.61-7.24-1.04l0.03-0.34c2.44-0.02,4.88,0.07,7.31,0.19
		c2.43,0.12,4.86,0.3,7.28,0.49l3.63,0.33c1.21,0.13,2.42,0.25,3.63,0.4c2.42,0.28,4.83,0.61,7.24,1.05L44.13,57.83z"/>
	<path class="st0" d="M44.17,57.82c-2.33,0.8-4.7,1.42-7.07,1.98c-2.37,0.56-4.76,1.03-7.16,1.44c-2.4,0.42-4.81,0.77-7.23,1.01
		c-2.43,0.23-4.87,0.4-7.35,0.31l-0.06-0.33c2.32-0.87,4.68-1.5,7.06-2.06c2.38-0.55,4.77-0.99,7.17-1.37
		c2.4-0.38,4.82-0.69,7.24-0.93c2.43-0.23,4.86-0.4,7.33-0.39L44.17,57.82z"/>
	<path class="st0" d="M44.21,57.81c-2.14,1.19-4.32,2.27-6.51,3.33c-2.19,1.06-4.41,2.06-6.64,3.04c-1.11,0.5-2.24,0.96-3.35,1.44
		c-1.13,0.46-2.25,0.93-3.38,1.37c-2.26,0.89-4.55,1.75-6.88,2.48l-0.14-0.31c2.13-1.21,4.31-2.3,6.5-3.35
		c1.1-0.53,2.2-1.03,3.31-1.54c1.11-0.49,2.22-1,3.34-1.48c2.24-0.96,4.48-1.9,6.75-2.79c2.27-0.89,4.55-1.75,6.87-2.51L44.21,57.81
		z"/>
	<path class="st4" d="M50.21,58.88c-2.82,0.68-5.58,1.45-8.25,2.42c-2.67,0.98-5.25,2.14-7.71,3.52c-2.46,1.38-4.79,2.98-6.98,4.77
		c-2.18,1.81-4.19,3.82-6.08,6.03l-0.29-0.19c1.3-2.64,3.12-5.02,5.23-7.09c2.1-2.09,4.52-3.87,7.11-5.31
		c2.59-1.44,5.36-2.57,8.22-3.32c2.85-0.76,5.79-1.18,8.71-1.17L50.21,58.88z"/>
	<path class="st5" d="M44.28,57.76c-1.29,2.08-2.67,4.09-4.12,6.07c-0.72,1-1.47,1.97-2.21,2.95c-0.76,0.97-1.53,1.94-2.3,2.9
		c-1.57,1.91-3.17,3.81-4.85,5.65c-1.67,1.85-3.4,3.67-5.23,5.42c-0.09-0.07-0.19-0.15-0.28-0.22c1.52-1.98,3.1-3.92,4.66-5.85
		c1.56-1.93,3.13-3.85,4.69-5.77c0.79-0.95,1.56-1.91,2.34-2.87c0.79-0.95,1.55-1.91,2.34-2.85c1.56-1.9,3.11-3.79,4.7-5.63
		C44.1,57.63,44.19,57.69,44.28,57.76"/>
	<path class="st0" d="M46.61,51.2c-1.29,2.08-2.67,4.09-4.12,6.07c-0.72,0.99-1.47,1.97-2.21,2.95c-0.76,0.97-1.53,1.94-2.3,2.9
		c-1.57,1.91-3.17,3.81-4.85,5.65c-1.67,1.85-3.4,3.67-5.23,5.42c-0.09-0.07-0.19-0.15-0.28-0.22c1.52-1.98,3.1-3.92,4.66-5.85
		c1.56-1.93,3.13-3.85,4.69-5.77c0.79-0.95,1.56-1.91,2.34-2.87c0.79-0.95,1.55-1.91,2.34-2.85c1.56-1.9,3.11-3.79,4.7-5.63
		L46.61,51.2z"/>
	<path class="st0" d="M44.3,57.72c-0.7,2.35-1.53,4.64-2.42,6.91c-0.89,2.26-1.83,4.51-2.83,6.73c-0.5,1.11-1,2.22-1.53,3.32
		c-0.52,1.1-1.04,2.2-1.59,3.29c-1.08,2.18-2.2,4.35-3.45,6.46l-0.31-0.14c0.73-2.34,1.58-4.62,2.46-6.89
		c0.44-1.14,0.9-2.26,1.37-3.39c0.46-1.13,0.94-2.25,1.43-3.36c0.97-2.23,2-4.44,3.07-6.62c1.08-2.18,2.21-4.34,3.49-6.44
		L44.3,57.72z"/>
	<path class="st0" d="M52.78,39.48c-0.7,2.35-1.53,4.64-2.42,6.91c-0.89,2.26-1.83,4.51-2.83,6.73c-0.5,1.11-1,2.22-1.53,3.32
		c-0.52,1.1-1.04,2.2-1.59,3.29c-1.08,2.18-2.2,4.35-3.45,6.46l-0.31-0.14c0.73-2.34,1.58-4.62,2.46-6.89
		c0.44-1.14,0.9-2.26,1.37-3.39c0.46-1.13,0.94-2.25,1.43-3.36c0.97-2.23,2-4.44,3.07-6.62c1.08-2.18,2.21-4.34,3.49-6.44
		L52.78,39.48z"/>
	<path class="st6" d="M44.78,56.46c0.15,1.25,0.17,2.48,0.15,3.71c-0.03,1.22-0.12,2.44-0.27,3.65c-0.14,1.21-0.36,2.41-0.57,3.62
		c-0.22,1.2-0.45,2.4-0.71,3.6c-0.51,2.4-1.12,4.78-1.81,7.15c-0.7,2.37-1.5,4.73-2.49,7.05c-0.15-0.02-0.3-0.05-0.45-0.07
		c0.24-2.44,0.62-4.86,1.01-7.27c0.41-2.41,0.83-4.82,1.28-7.22c0.22-1.2,0.45-2.4,0.68-3.6c0.23-1.2,0.44-2.4,0.71-3.59
		c0.27-1.19,0.57-2.38,0.91-3.56c0.35-1.18,0.73-2.35,1.22-3.51L44.78,56.46z"/>
	<path class="st1" d="M44.31,57.64c0.39,1.19,0.67,2.39,0.9,3.59c0.23,1.2,0.4,2.41,0.54,3.62c0.14,1.21,0.22,2.42,0.31,3.64
		c0.09,1.21,0.17,2.43,0.24,3.64c0.15,2.43,0.24,4.86,0.31,7.3c0.06,2.44,0.08,4.87,0,7.32l-0.34,0.03
		c-0.47-2.4-0.83-4.82-1.15-7.23c-0.32-2.41-0.61-4.83-0.84-7.26c-0.12-1.21-0.23-2.42-0.34-3.63c-0.1-1.21-0.21-2.42-0.26-3.64
		c-0.05-1.22-0.07-2.44-0.03-3.66c0.04-1.22,0.12-2.45,0.32-3.69L44.31,57.64z"/>
	<path class="st0" d="M44.3,57.61c1,2.24,1.87,4.52,2.71,6.82c0.84,2.3,1.63,4.62,2.48,6.92c0.41,1.16,0.83,2.31,1.26,3.46
		c0.41,1.16,0.84,2.31,1.27,3.47c0.84,2.31,1.7,4.63,2.52,6.96c-0.12,0.04-0.25,0.08-0.38,0.12c-1.17-2.22-2.22-4.47-3.22-6.74
		c-0.49-1.14-0.97-2.28-1.44-3.42c-0.46-1.15-0.91-2.29-1.35-3.44c-0.86-2.3-1.69-4.61-2.42-6.94c-0.72-2.34-1.34-4.7-1.76-7.11
		C44.09,57.68,44.19,57.64,44.3,57.61"/>
	<path class="st7" d="M44.28,57.57c0.52,0.39,1.01,0.81,1.47,1.25c0.46,0.43,0.9,0.88,1.33,1.33c0.85,0.91,1.64,1.86,2.4,2.83
		c1.5,1.95,2.81,4.03,4.15,6.09c1.32,2.08,2.62,4.18,3.85,6.34c1.22,2.16,2.43,4.34,3.44,6.66c-0.1,0.07-0.2,0.13-0.31,0.19
		c-2.02-1.68-3.77-3.52-5.45-5.4c-1.66-1.89-3.21-3.85-4.65-5.86c-1.44-2.02-2.84-4.05-3.97-6.22c-0.57-1.09-1.08-2.21-1.52-3.37
		c-0.22-0.58-0.42-1.17-0.59-1.78c-0.18-0.6-0.33-1.22-0.43-1.87C44.09,57.69,44.19,57.63,44.28,57.57"/>
	<path class="st0" d="M37.44,58.66c0.74,0.03,1.47,0.08,2.21,0.14c0.74,0.07,1.46,0.2,2.19,0.33c0.74,0.11,1.45,0.3,2.17,0.47
		c0.36,0.09,0.72,0.17,1.08,0.28l1.06,0.34c2.83,0.93,5.53,2.27,8.02,3.91c2.49,1.64,4.78,3.6,6.75,5.83
		c1.96,2.24,3.62,4.75,4.75,7.47l-0.3,0.16c-1.62-2.42-3.46-4.63-5.53-6.6c-2.05-1.98-4.31-3.73-6.72-5.24
		c-2.41-1.52-4.96-2.77-7.59-3.88l-0.99-0.42c-0.33-0.14-0.67-0.25-1-0.38c-0.67-0.24-1.33-0.53-2.02-0.74
		c-0.69-0.21-1.36-0.49-2.06-0.69c-0.69-0.21-1.39-0.43-2.08-0.67L37.44,58.66z"/>
	<path class="st8" d="M44.22,57.51c1.16,0.42,2.28,0.9,3.4,1.38c1.11,0.5,2.23,1,3.32,1.54c2.19,1.06,4.34,2.2,6.47,3.39
		c2.13,1.18,4.24,2.4,6.31,3.68c2.07,1.28,4.13,2.59,6.11,4.03l-0.16,0.3c-2.28-0.9-4.5-1.92-6.69-2.98
		c-2.2-1.05-4.36-2.18-6.5-3.33c-2.14-1.15-4.26-2.35-6.34-3.63c-1.04-0.63-2.06-1.3-3.08-1.97c-1.01-0.68-2.03-1.37-3-2.12
		L44.22,57.51z"/>
	<path class="st0" d="M40.4,56.55c1.23-0.09,2.45-0.09,3.67-0.1c1.22,0.01,2.44,0.02,3.66,0.08c2.43,0.1,4.86,0.28,7.28,0.51
		c2.42,0.23,4.84,0.5,7.25,0.84c2.41,0.34,4.82,0.72,7.22,1.24l-0.03,0.34c-2.45,0.09-4.89,0.04-7.32-0.05
		c-2.43-0.08-4.86-0.25-7.29-0.44c-2.43-0.2-4.85-0.45-7.26-0.78c-1.21-0.16-2.41-0.36-3.61-0.56c-1.2-0.22-2.4-0.44-3.6-0.74
		L40.4,56.55z"/>
	<path class="st0" d="M44.18,57.49c2.39,0.5,4.76,1.07,7.13,1.66c2.37,0.59,4.74,1.19,7.11,1.81c2.37,0.62,4.75,1.23,7.12,1.87
		c2.38,0.64,4.76,1.27,7.13,1.97c-0.03,0.11-0.05,0.22-0.08,0.33c-2.45-0.37-4.88-0.84-7.29-1.35c-2.41-0.51-4.81-1.07-7.19-1.68
		c-2.38-0.6-4.74-1.25-7.09-1.96c-2.34-0.71-4.66-1.47-6.95-2.33C44.12,57.71,44.15,57.6,44.18,57.49"/>
	<path class="st0" d="M44.03,57.51c2.31-0.97,4.73-1.68,7.2-2.15c2.47-0.46,4.99-0.68,7.5-0.65l1.88,0.06l1.88,0.15l1.87,0.24
		l1.85,0.33c2.46,0.49,4.87,1.21,7.18,2.18l-0.12,0.32c-2.37-0.74-4.77-1.33-7.2-1.72l-1.83-0.25l-1.84-0.19l-1.84-0.11l-1.84-0.04
		c-2.46,0-4.92,0.19-7.35,0.56c-2.43,0.37-4.85,0.9-7.23,1.59L44.03,57.51z"/>
	<path class="st9" d="M44.1,57.49c2.32-0.77,4.65-1.46,7-2.12c1.17-0.33,2.35-0.65,3.52-0.96c1.17-0.32,2.35-0.62,3.53-0.91
		c2.36-0.6,4.73-1.15,7.11-1.67c2.38-0.51,4.77-0.98,7.19-1.34l0.08,0.33c-2.31,0.81-4.64,1.5-6.98,2.16
		c-2.35,0.65-4.7,1.26-7.07,1.83c-1.18,0.29-2.36,0.57-3.55,0.84c-1.19,0.28-2.37,0.54-3.56,0.79c-2.38,0.51-4.77,0.99-7.18,1.38
		L44.1,57.49z"/>
	<path class="st0" d="M42.95,59.08c1.91-1.58,3.96-2.92,6.04-4.18c2.08-1.27,4.24-2.4,6.4-3.51c2.16-1.11,4.35-2.18,6.56-3.2
		c2.22-1,4.45-1.99,6.76-2.84l0.16,0.3c-1.99,1.44-4.05,2.75-6.12,4.03c-2.08,1.27-4.19,2.49-6.32,3.67
		c-2.13,1.17-4.27,2.33-6.48,3.35c-2.21,1.03-4.46,1.98-6.84,2.69L42.95,59.08z"/>
	<path class="st0" d="M37.25,59.08c1.91-1.58,3.96-2.92,6.04-4.18c2.08-1.27,4.24-2.4,6.4-3.51c2.16-1.11,4.35-2.18,6.56-3.2
		c2.22-1,4.45-1.99,6.76-2.84l0.16,0.3c-1.99,1.44-4.05,2.75-6.12,4.03c-2.08,1.27-4.19,2.49-6.32,3.67
		c-2.13,1.17-4.27,2.33-6.48,3.35c-2.21,1.03-4.46,1.98-6.84,2.69L37.25,59.08z"/>
	<path class="st10" d="M42.86,58.66c1.11-2.74,2.81-5.23,4.81-7.44c2-2.2,4.34-4.1,6.87-5.66c0.62-0.41,1.27-0.77,1.93-1.12
		c0.65-0.37,1.32-0.68,1.99-0.99c0.34-0.15,0.67-0.32,1.01-0.47c0.34-0.14,0.69-0.28,1.03-0.41l1.03-0.4l1.06-0.35
		c2.81-0.91,5.72-1.51,8.65-1.72l0.05,0.34c-2.83,0.71-5.59,1.55-8.24,2.64l-1,0.4l-0.97,0.45c-0.32,0.15-0.65,0.3-0.97,0.45
		c-0.32,0.15-0.64,0.33-0.95,0.49c-0.63,0.33-1.27,0.65-1.88,1.03c-0.61,0.36-1.24,0.7-1.83,1.11c-2.39,1.55-4.63,3.32-6.68,5.29
		c-2.07,1.97-3.91,4.16-5.61,6.53L42.86,58.66z"/>
	<path class="st0" d="M44,57.56c1.08-2.2,2.32-4.3,3.58-6.38c1.27-2.08,2.59-4.12,3.97-6.13l1.02-1.51l1.04-1.5
		c0.69-1,1.4-1.99,2.11-2.98c1.43-1.97,2.88-3.93,4.42-5.83l0.28,0.19c-1.15,2.16-2.39,4.26-3.65,6.34
		c-0.64,1.04-1.27,2.08-1.92,3.1l-0.98,1.54l-1,1.53c-1.32,2.05-2.68,4.06-4.1,6.04c-1.43,1.97-2.88,3.93-4.49,5.78L44,57.56z"/>
	<path class="st11" d="M43.98,57.6c-0.05-1.31,0.14-2.53,0.39-3.73c0.25-1.2,0.62-2.36,1.04-3.5c0.81-2.3,1.65-4.58,2.52-6.85
		c0.87-2.27,1.77-4.54,2.73-6.78c0.94-2.25,1.93-4.48,3.01-6.68l0.32,0.11c-0.53,2.39-1.16,4.75-1.83,7.09
		c-0.66,2.35-1.37,4.68-2.11,6.99c-0.75,2.32-1.51,4.63-2.32,6.92c-0.39,1.15-0.83,2.29-1.38,3.38c-0.55,1.09-1.18,2.17-2.03,3.15
		L43.98,57.6z"/>
	<path class="st0" d="M50.21,57.57c0,3.26-2.64,5.91-5.91,5.91c-3.26,0-5.91-2.64-5.91-5.91c0-3.26,2.65-5.91,5.91-5.91
		C47.57,51.66,50.21,54.31,50.21,57.57"/>
	<path class="st0" d="M56.29,64.21c-0.4-1.21-0.63-2.42-0.83-3.64c-0.21-1.22-0.34-2.44-0.41-3.66c-0.08-1.22-0.08-2.44-0.06-3.65
		c0-1.22,0.04-2.43,0.09-3.64c0.1-2.42,0.3-4.83,0.62-7.23c0.35-2.39,0.82-4.75,1.6-7.07l0.6,0.08c0.59,2.49,0.87,4.93,1.03,7.35
		c0.13,2.41,0.14,4.81,0.05,7.2c-0.05,1.19-0.1,2.38-0.19,3.57c-0.08,1.19-0.17,2.38-0.35,3.56c-0.17,1.18-0.4,2.37-0.7,3.55
		c-0.29,1.19-0.62,2.38-1.11,3.58H56.29z"/>
	<path class="st0" d="M56.3,62.49c-0.9-2.28-1.62-4.61-2.29-6.95c-0.68-2.34-1.25-4.7-1.83-7.07c-0.57-2.36-1.12-4.74-1.64-7.11
		c-0.5-2.38-1-4.77-1.4-7.18l0.33-0.08c0.79,2.31,1.49,4.64,2.18,6.98c0.68,2.34,1.32,4.68,1.94,7.04c0.61,2.36,1.23,4.71,1.75,7.09
		c0.52,2.38,0.99,4.77,1.29,7.2L56.3,62.49z"/>
	<path class="st0" d="M56.31,62.53c-1.61-1.9-2.96-3.93-4.24-6c-1.29-2.07-2.43-4.22-3.56-6.37c-1.13-2.16-2.21-4.34-3.23-6.55
		c-1.01-2.22-2-4.45-2.84-6.76l0.3-0.16c1.47,1.97,2.79,4.02,4.1,6.08c1.29,2.07,2.52,4.17,3.71,6.29c1.18,2.13,2.35,4.26,3.38,6.47
		c1.03,2.21,1.99,4.46,2.7,6.84L56.31,62.53z"/>
	<path class="st1" d="M57.18,63.93c-1.47-2.53-3.13-4.87-5.03-7.01c-0.24-0.27-0.47-0.54-0.72-0.8c-0.25-0.25-0.5-0.51-0.75-0.77
		c-0.25-0.25-0.48-0.53-0.75-0.76l-0.79-0.73c-0.51-0.5-1.07-0.95-1.61-1.41c-0.53-0.48-1.12-0.88-1.69-1.32
		c-2.31-1.7-4.8-3.15-7.41-4.36c-2.61-1.22-5.35-2.18-8.15-2.98l0.07-0.33c2.92,0.39,5.79,1.15,8.56,2.22
		c2.76,1.08,5.41,2.49,7.84,4.22c0.6,0.44,1.22,0.86,1.78,1.35c0.57,0.48,1.17,0.93,1.7,1.46l0.81,0.77
		c0.28,0.25,0.51,0.54,0.77,0.81c0.26,0.27,0.51,0.55,0.76,0.83c0.24,0.28,0.47,0.58,0.7,0.87c1.85,2.34,3.37,4.97,4.24,7.8
		L57.18,63.93z"/>
	<path class="st0" d="M56.37,62.59c-2.24-1.03-4.35-2.24-6.46-3.47c-2.09-1.24-4.14-2.57-6.16-3.92c-1.01-0.67-2.01-1.37-3.01-2.06
		c-1.01-0.69-1.99-1.4-2.98-2.11c-1.97-1.43-3.93-2.89-5.81-4.45l0.19-0.28c2.18,1.11,4.3,2.32,6.4,3.55
		c1.05,0.62,2.09,1.24,3.12,1.89c1.04,0.64,2.07,1.28,3.09,1.94c2.05,1.31,4.08,2.66,6.05,4.08c1.97,1.43,3.92,2.89,5.76,4.53
		L56.37,62.59z"/>
	<path class="st2" d="M62.18,64.23c-2.24-1.03-4.35-2.24-6.46-3.47c-2.09-1.24-4.14-2.57-6.16-3.92c-1.01-0.67-2.01-1.37-3.01-2.06
		c-1.01-0.68-1.99-1.4-2.98-2.11c-1.97-1.43-3.93-2.89-5.81-4.45l0.19-0.28c2.18,1.11,4.3,2.32,6.4,3.55
		c1.05,0.63,2.09,1.24,3.12,1.89c1.04,0.64,2.07,1.28,3.09,1.94c2.05,1.31,4.08,2.66,6.05,4.08c1.97,1.43,3.92,2.89,5.76,4.53
		L62.18,64.23z"/>
	<path class="st3" d="M58.34,64.85c-2.15-1.68-4.62-2.93-7.16-3.84l-0.96-0.33c-0.16-0.05-0.32-0.11-0.48-0.16
		c-0.16-0.05-0.32-0.09-0.52-0.07c-0.38,0.03-0.83,0.25-1.16,0.19c-0.17-0.02-0.31-0.11-0.46-0.17l-0.45-0.19
		c-0.6-0.26-1.21-0.53-1.82-0.75c-0.61-0.24-1.23-0.48-1.86-0.68c-0.63-0.22-1.25-0.44-1.89-0.62c-0.64-0.19-1.27-0.38-1.92-0.53
		c-0.65-0.16-1.29-0.35-1.95-0.47c-0.65-0.13-1.31-0.29-1.97-0.39c-2.64-0.49-5.34-0.76-8.09-0.92l-0.03-0.34
		c2.71-0.59,5.51-0.83,8.32-0.79c0.7-0.01,1.4,0.06,2.11,0.09c0.7,0.03,1.4,0.12,2.11,0.2c0.7,0.07,1.4,0.2,2.1,0.32
		c0.7,0.11,1.39,0.27,2.09,0.42c0.7,0.15,1.38,0.34,2.06,0.54c0.69,0.18,1.36,0.42,2.03,0.65l0.51,0.17
		c0.17,0.06,0.34,0.1,0.49,0.22c0.3,0.22,0.47,0.71,0.72,1.01c0.12,0.16,0.27,0.25,0.42,0.34c0.15,0.09,0.3,0.19,0.45,0.29
		l0.88,0.58c2.34,1.56,4.52,3.25,6.68,4.96L58.34,64.85z"/>
	<path class="st0" d="M56.45,62.62c-2.44,0.03-4.88-0.06-7.31-0.18c-1.22-0.05-2.43-0.15-3.64-0.22l-3.64-0.29
		c-2.42-0.22-4.85-0.45-7.26-0.74c-2.42-0.29-4.83-0.61-7.24-1.04l0.03-0.34c2.44-0.02,4.88,0.07,7.31,0.19
		c2.43,0.12,4.86,0.3,7.28,0.49l3.63,0.33c1.21,0.13,2.42,0.25,3.63,0.4c2.42,0.28,4.83,0.61,7.24,1.05L56.45,62.62z"/>
	<path class="st0" d="M56.49,62.62c-2.33,0.8-4.7,1.42-7.07,1.98c-2.37,0.56-4.76,1.03-7.16,1.44c-2.4,0.42-4.81,0.77-7.23,1.01
		c-2.43,0.23-4.87,0.4-7.35,0.32l-0.06-0.34c2.32-0.87,4.68-1.5,7.06-2.06c2.38-0.55,4.77-0.99,7.17-1.37
		c2.4-0.37,4.82-0.69,7.24-0.93c2.43-0.23,4.86-0.4,7.33-0.39L56.49,62.62z"/>
	<path class="st0" d="M56.53,62.61c-2.14,1.19-4.32,2.27-6.51,3.33c-2.19,1.06-4.41,2.06-6.64,3.04c-1.11,0.5-2.24,0.96-3.35,1.44
		c-1.13,0.46-2.25,0.93-3.38,1.37c-2.26,0.89-4.55,1.75-6.88,2.48l-0.14-0.31c2.13-1.2,4.31-2.3,6.5-3.35
		c1.1-0.53,2.2-1.03,3.31-1.54c1.11-0.49,2.22-1,3.34-1.48c2.24-0.96,4.48-1.9,6.75-2.79c2.27-0.89,4.55-1.75,6.87-2.51L56.53,62.61
		z"/>
	<path class="st4" d="M62.54,63.68c-2.82,0.68-5.58,1.45-8.25,2.42c-2.67,0.98-5.25,2.14-7.71,3.52c-2.46,1.38-4.79,2.98-6.98,4.77
		c-2.18,1.81-4.19,3.82-6.08,6.03l-0.29-0.19c1.3-2.63,3.12-5.02,5.23-7.09c2.1-2.09,4.52-3.87,7.11-5.31
		c2.59-1.44,5.36-2.57,8.22-3.32c2.85-0.76,5.79-1.18,8.71-1.17L62.54,63.68z"/>
	<path class="st5" d="M56.6,62.56c-1.29,2.08-2.67,4.09-4.12,6.07c-0.72,1-1.47,1.97-2.21,2.95c-0.76,0.97-1.53,1.93-2.3,2.9
		c-1.57,1.91-3.17,3.81-4.85,5.65c-1.67,1.85-3.4,3.67-5.23,5.42c-0.09-0.07-0.19-0.15-0.28-0.22c1.52-1.98,3.1-3.92,4.66-5.85
		c1.56-1.93,3.13-3.85,4.69-5.77c0.79-0.95,1.56-1.91,2.34-2.87c0.79-0.95,1.55-1.91,2.34-2.85c1.56-1.9,3.11-3.79,4.7-5.63
		C56.42,62.42,56.51,62.49,56.6,62.56"/>
	<path class="st0" d="M58.93,56c-1.29,2.08-2.67,4.09-4.12,6.07c-0.72,1-1.47,1.97-2.21,2.95c-0.76,0.97-1.53,1.93-2.3,2.9
		c-1.57,1.91-3.17,3.81-4.85,5.65c-1.67,1.85-3.4,3.67-5.23,5.42c-0.09-0.07-0.19-0.14-0.28-0.22c1.52-1.98,3.1-3.92,4.66-5.85
		c1.56-1.93,3.13-3.85,4.69-5.77c0.79-0.95,1.56-1.91,2.34-2.87c0.79-0.95,1.55-1.91,2.34-2.85c1.56-1.9,3.11-3.79,4.7-5.63
		C58.75,55.86,58.84,55.93,58.93,56"/>
	<path class="st0" d="M56.62,62.52c-0.7,2.35-1.53,4.64-2.42,6.91c-0.89,2.27-1.83,4.51-2.83,6.73c-0.5,1.11-1,2.22-1.53,3.32
		c-0.52,1.1-1.04,2.2-1.59,3.29c-1.08,2.18-2.2,4.35-3.45,6.46l-0.31-0.14c0.73-2.34,1.58-4.62,2.46-6.89
		c0.44-1.14,0.9-2.26,1.37-3.39c0.46-1.13,0.94-2.24,1.43-3.36c0.97-2.23,2-4.44,3.07-6.62c1.08-2.18,2.21-4.34,3.49-6.44
		L56.62,62.52z"/>
	<path class="st0" d="M65.1,44.27c-0.7,2.35-1.53,4.64-2.42,6.91c-0.89,2.27-1.83,4.51-2.83,6.73c-0.5,1.11-1,2.22-1.53,3.32
		c-0.52,1.1-1.04,2.2-1.59,3.29c-1.08,2.18-2.2,4.35-3.45,6.46l-0.31-0.14c0.73-2.34,1.58-4.62,2.46-6.89
		c0.44-1.14,0.9-2.26,1.37-3.39c0.46-1.13,0.94-2.24,1.43-3.36c0.97-2.23,2-4.44,3.07-6.62c1.08-2.18,2.21-4.34,3.49-6.44
		L65.1,44.27z"/>
	<path class="st6" d="M57.1,61.25c0.15,1.25,0.17,2.48,0.15,3.7c-0.03,1.22-0.12,2.44-0.27,3.65c-0.14,1.21-0.36,2.41-0.57,3.62
		c-0.22,1.2-0.45,2.4-0.71,3.6c-0.51,2.4-1.12,4.78-1.81,7.15c-0.7,2.37-1.5,4.73-2.49,7.05c-0.15-0.02-0.3-0.05-0.45-0.07
		c0.24-2.44,0.61-4.86,1.01-7.27c0.41-2.41,0.83-4.82,1.28-7.22c0.22-1.2,0.45-2.4,0.68-3.6c0.23-1.2,0.44-2.4,0.71-3.59
		c0.27-1.19,0.57-2.38,0.91-3.56c0.35-1.18,0.73-2.35,1.22-3.51C56.88,61.22,56.99,61.24,57.1,61.25"/>
	<path class="st1" d="M56.63,62.44c0.39,1.19,0.67,2.39,0.9,3.59c0.23,1.2,0.4,2.41,0.54,3.62c0.14,1.21,0.22,2.42,0.31,3.64
		c0.09,1.21,0.17,2.43,0.24,3.64c0.15,2.43,0.24,4.86,0.31,7.3c0.06,2.44,0.08,4.87,0,7.32l-0.34,0.03
		c-0.47-2.4-0.83-4.82-1.15-7.23c-0.32-2.42-0.61-4.83-0.84-7.26c-0.12-1.21-0.23-2.42-0.34-3.63c-0.1-1.21-0.21-2.42-0.26-3.64
		c-0.05-1.22-0.07-2.44-0.03-3.66c0.04-1.22,0.12-2.45,0.32-3.69L56.63,62.44z"/>
	<path class="st0" d="M56.62,62.41c1,2.24,1.87,4.52,2.71,6.82c0.84,2.3,1.63,4.61,2.48,6.92c0.41,1.16,0.83,2.31,1.26,3.46
		c0.41,1.16,0.84,2.31,1.27,3.47c0.84,2.31,1.7,4.63,2.52,6.96c-0.13,0.04-0.25,0.08-0.38,0.12c-1.17-2.22-2.22-4.47-3.22-6.74
		c-0.49-1.14-0.97-2.27-1.44-3.41c-0.46-1.15-0.91-2.29-1.35-3.44c-0.86-2.3-1.69-4.61-2.42-6.94c-0.72-2.34-1.34-4.7-1.76-7.11
		C56.41,62.47,56.52,62.44,56.62,62.41"/>
	<path class="st7" d="M56.61,62.37c0.52,0.39,1.01,0.81,1.47,1.25c0.46,0.43,0.9,0.88,1.33,1.33c0.85,0.91,1.64,1.86,2.4,2.83
		c1.51,1.95,2.81,4.02,4.15,6.09c1.32,2.08,2.62,4.18,3.85,6.33c1.22,2.16,2.43,4.34,3.44,6.66c-0.1,0.07-0.2,0.13-0.31,0.19
		c-2.02-1.68-3.77-3.52-5.45-5.4c-1.66-1.89-3.2-3.85-4.65-5.86c-1.44-2.01-2.84-4.05-3.97-6.22c-0.57-1.09-1.08-2.21-1.52-3.37
		c-0.22-0.58-0.42-1.17-0.59-1.78c-0.18-0.6-0.33-1.23-0.43-1.87C56.41,62.49,56.51,62.43,56.61,62.37"/>
	<path class="st0" d="M49.76,63.46c0.74,0.03,1.47,0.08,2.21,0.14c0.74,0.07,1.46,0.2,2.19,0.32c0.74,0.11,1.45,0.3,2.17,0.48
		c0.36,0.09,0.72,0.17,1.08,0.28l1.06,0.34c2.83,0.93,5.53,2.27,8.02,3.91c2.49,1.64,4.78,3.6,6.75,5.83
		c1.96,2.24,3.62,4.75,4.75,7.47l-0.3,0.16c-1.62-2.42-3.46-4.63-5.53-6.6c-2.05-1.98-4.31-3.73-6.72-5.24
		c-2.41-1.52-4.96-2.77-7.59-3.88l-0.99-0.42c-0.33-0.14-0.67-0.25-1-0.38c-0.67-0.24-1.34-0.53-2.02-0.74
		c-0.69-0.21-1.36-0.49-2.06-0.69c-0.69-0.21-1.39-0.43-2.08-0.67L49.76,63.46z"/>
	<path class="st8" d="M56.55,62.3c1.16,0.41,2.28,0.9,3.4,1.38c1.11,0.5,2.23,1,3.32,1.54c2.19,1.06,4.34,2.2,6.47,3.39
		c2.13,1.19,4.23,2.4,6.31,3.68c2.07,1.28,4.13,2.59,6.12,4.03l-0.16,0.3c-2.28-0.9-4.5-1.92-6.69-2.98
		c-2.2-1.05-4.36-2.18-6.5-3.33c-2.14-1.15-4.26-2.35-6.34-3.63c-1.04-0.63-2.06-1.3-3.08-1.97c-1.01-0.68-2.02-1.37-3-2.12
		L56.55,62.3z"/>
	<path class="st0" d="M52.72,61.34c1.23-0.09,2.45-0.09,3.67-0.1c1.22,0.01,2.44,0.02,3.66,0.08c2.43,0.1,4.86,0.28,7.28,0.51
		c2.42,0.23,4.84,0.5,7.25,0.84c2.41,0.34,4.82,0.72,7.22,1.24l-0.03,0.34c-2.45,0.09-4.89,0.04-7.32-0.05
		c-2.43-0.08-4.86-0.25-7.29-0.44c-2.43-0.2-4.85-0.45-7.26-0.78c-1.21-0.16-2.41-0.36-3.61-0.56c-1.2-0.22-2.4-0.44-3.6-0.74
		L52.72,61.34z"/>
	<path class="st0" d="M56.51,62.29c2.39,0.5,4.76,1.07,7.13,1.66c2.37,0.59,4.74,1.19,7.11,1.81c2.37,0.62,4.75,1.23,7.12,1.87
		c2.38,0.64,4.76,1.27,7.13,1.97c-0.02,0.11-0.05,0.22-0.08,0.33c-2.45-0.37-4.88-0.84-7.29-1.35c-2.41-0.51-4.81-1.07-7.19-1.67
		c-2.38-0.6-4.74-1.25-7.09-1.96c-2.34-0.71-4.66-1.47-6.95-2.33C56.44,62.51,56.47,62.4,56.51,62.29"/>
	<path class="st0" d="M56.35,62.3c2.31-0.97,4.73-1.68,7.2-2.15c2.47-0.46,4.99-0.68,7.5-0.65l1.88,0.06l1.88,0.15l1.87,0.24
		l1.85,0.33c2.46,0.49,4.88,1.21,7.18,2.18l-0.12,0.32c-2.36-0.74-4.77-1.33-7.2-1.72l-1.83-0.25l-1.84-0.19l-1.84-0.11l-1.84-0.04
		c-2.46,0-4.92,0.19-7.35,0.56c-2.43,0.37-4.85,0.9-7.23,1.6L56.35,62.3z"/>
	<path class="st9" d="M56.42,62.29c2.32-0.77,4.65-1.46,7-2.12c1.17-0.33,2.35-0.65,3.52-0.96c1.17-0.32,2.35-0.61,3.53-0.91
		c2.36-0.6,4.73-1.15,7.11-1.67c2.38-0.5,4.77-0.98,7.19-1.34l0.08,0.33c-2.3,0.81-4.64,1.5-6.98,2.16
		c-2.35,0.65-4.7,1.26-7.07,1.82c-1.18,0.29-2.36,0.57-3.55,0.84c-1.18,0.27-2.37,0.54-3.56,0.79c-2.38,0.51-4.77,0.99-7.18,1.38
		L56.42,62.29z"/>
	<path class="st0" d="M55.27,63.87c1.91-1.58,3.96-2.92,6.04-4.18c2.08-1.27,4.24-2.4,6.4-3.51c2.16-1.11,4.35-2.18,6.56-3.2
		c2.22-1,4.45-1.99,6.76-2.84l0.16,0.3c-1.99,1.44-4.05,2.75-6.12,4.03c-2.08,1.27-4.19,2.49-6.32,3.67
		c-2.13,1.17-4.27,2.33-6.48,3.36c-2.21,1.03-4.46,1.98-6.84,2.68L55.27,63.87z"/>
	<path class="st0" d="M49.57,63.87c1.91-1.58,3.96-2.92,6.04-4.18c2.08-1.27,4.24-2.4,6.4-3.51c2.16-1.11,4.35-2.18,6.56-3.2
		c2.22-1,4.45-1.99,6.76-2.84l0.16,0.3c-1.99,1.44-4.05,2.75-6.12,4.03c-2.08,1.27-4.19,2.49-6.32,3.67
		c-2.13,1.17-4.27,2.33-6.48,3.36c-2.21,1.03-4.46,1.98-6.84,2.68L49.57,63.87z"/>
	<path class="st10" d="M55.19,63.46c1.11-2.74,2.81-5.23,4.81-7.44c2-2.2,4.34-4.1,6.87-5.66c0.62-0.41,1.27-0.77,1.93-1.12
		c0.65-0.37,1.32-0.68,1.99-0.99c0.34-0.15,0.67-0.32,1.01-0.47c0.34-0.14,0.69-0.28,1.03-0.41l1.03-0.4l1.06-0.35
		c2.81-0.91,5.72-1.51,8.65-1.72l0.05,0.34c-2.83,0.71-5.59,1.55-8.24,2.64l-1,0.4l-0.97,0.45c-0.32,0.15-0.65,0.3-0.97,0.45
		c-0.32,0.15-0.64,0.33-0.95,0.49c-0.63,0.33-1.27,0.65-1.88,1.03c-0.61,0.36-1.24,0.7-1.83,1.11c-2.39,1.55-4.63,3.32-6.68,5.29
		c-2.07,1.97-3.91,4.16-5.61,6.53L55.19,63.46z"/>
	<path class="st0" d="M56.32,62.36c1.08-2.2,2.32-4.3,3.58-6.38c1.27-2.07,2.59-4.12,3.97-6.13l1.02-1.51l1.04-1.5
		c0.69-1,1.4-1.99,2.11-2.98c1.43-1.97,2.88-3.93,4.42-5.83l0.28,0.19c-1.15,2.16-2.39,4.25-3.65,6.34
		c-0.64,1.04-1.27,2.08-1.92,3.1l-0.98,1.54l-1,1.53c-1.32,2.05-2.68,4.06-4.1,6.04c-1.43,1.97-2.88,3.93-4.49,5.78L56.32,62.36z"/>
	<path class="st11" d="M56.3,62.4c-0.05-1.31,0.14-2.53,0.39-3.73c0.25-1.2,0.62-2.36,1.04-3.5c0.81-2.3,1.65-4.58,2.52-6.85
		c0.87-2.27,1.77-4.54,2.73-6.78c0.94-2.25,1.93-4.48,3.01-6.68l0.32,0.11c-0.53,2.39-1.16,4.75-1.83,7.09
		c-0.66,2.35-1.37,4.68-2.11,6.99c-0.75,2.32-1.51,4.63-2.32,6.92c-0.39,1.15-0.83,2.29-1.38,3.38c-0.55,1.09-1.18,2.17-2.03,3.15
		L56.3,62.4z"/>
	<path class="st0" d="M62.54,62.37c0,3.26-2.64,5.91-5.91,5.91c-3.26,0-5.91-2.64-5.91-5.91c0-3.26,2.65-5.91,5.91-5.91
		C59.89,56.46,62.54,59.1,62.54,62.37"/>
	<path class="st0" d="M60.38,49.06c-0.4-1.21-0.63-2.42-0.83-3.64c-0.21-1.22-0.34-2.44-0.41-3.66c-0.08-1.22-0.08-2.44-0.06-3.65
		c0-1.22,0.04-2.43,0.09-3.64c0.1-2.42,0.3-4.83,0.62-7.23c0.35-2.39,0.82-4.75,1.6-7.07l0.6,0.08c0.59,2.49,0.88,4.93,1.03,7.35
		c0.13,2.41,0.14,4.81,0.05,7.2c-0.05,1.19-0.1,2.38-0.2,3.57c-0.08,1.19-0.17,2.38-0.35,3.56c-0.17,1.19-0.4,2.37-0.7,3.55
		c-0.29,1.19-0.62,2.38-1.11,3.58H60.38z"/>
	<path class="st0" d="M60.38,47.35c-0.9-2.28-1.62-4.61-2.29-6.95c-0.68-2.34-1.25-4.7-1.83-7.07c-0.57-2.36-1.12-4.74-1.63-7.12
		c-0.5-2.38-1-4.77-1.4-7.17l0.33-0.08c0.79,2.31,1.49,4.64,2.18,6.98c0.67,2.34,1.32,4.69,1.94,7.04c0.61,2.36,1.23,4.71,1.75,7.09
		c0.52,2.38,0.99,4.77,1.29,7.2L60.38,47.35z"/>
	<path class="st0" d="M60.4,47.39c-1.61-1.9-2.96-3.93-4.24-6c-1.29-2.07-2.43-4.22-3.56-6.37c-1.12-2.16-2.21-4.34-3.23-6.55
		c-1.01-2.22-2-4.45-2.84-6.76l0.3-0.16c1.47,1.97,2.79,4.02,4.1,6.08c1.29,2.07,2.52,4.17,3.71,6.29c1.18,2.13,2.35,4.26,3.38,6.47
		c1.03,2.21,1.99,4.46,2.7,6.84L60.4,47.39z"/>
	<path class="st1" d="M61.27,48.78c-1.47-2.53-3.13-4.87-5.03-7.01c-0.24-0.27-0.47-0.54-0.72-0.8c-0.25-0.25-0.5-0.51-0.75-0.77
		c-0.25-0.25-0.48-0.52-0.75-0.76l-0.79-0.73c-0.51-0.5-1.07-0.95-1.61-1.41c-0.54-0.48-1.12-0.88-1.69-1.32
		c-2.31-1.7-4.8-3.15-7.41-4.36c-2.61-1.22-5.35-2.18-8.16-2.98l0.07-0.33c2.92,0.39,5.79,1.15,8.56,2.22
		c2.76,1.08,5.41,2.49,7.84,4.22c0.6,0.44,1.22,0.86,1.78,1.35c0.57,0.48,1.17,0.93,1.7,1.46l0.81,0.77
		c0.28,0.25,0.51,0.54,0.77,0.81c0.26,0.27,0.51,0.55,0.76,0.83c0.24,0.28,0.47,0.58,0.7,0.87c1.85,2.34,3.37,4.97,4.24,7.8
		L61.27,48.78z"/>
	<path class="st0" d="M60.46,47.45c-2.24-1.03-4.35-2.24-6.45-3.47c-2.09-1.24-4.14-2.57-6.16-3.92c-1.01-0.68-2.01-1.37-3.01-2.06
		c-1.01-0.68-1.99-1.4-2.98-2.11c-1.97-1.43-3.93-2.89-5.81-4.45l0.19-0.28c2.18,1.11,4.3,2.32,6.4,3.55
		c1.05,0.62,2.09,1.24,3.12,1.89c1.04,0.64,2.07,1.28,3.09,1.94c2.05,1.31,4.08,2.66,6.05,4.08c1.97,1.43,3.92,2.89,5.76,4.53
		L60.46,47.45z"/>
	<path class="st2" d="M66.26,49.08c-2.24-1.03-4.35-2.24-6.45-3.47c-2.09-1.24-4.14-2.57-6.16-3.92c-1.01-0.67-2.01-1.37-3.01-2.06
		c-1.01-0.69-1.99-1.4-2.98-2.11c-1.97-1.43-3.93-2.89-5.81-4.45l0.19-0.28c2.18,1.11,4.3,2.32,6.4,3.55
		c1.04,0.62,2.09,1.24,3.12,1.89c1.04,0.64,2.07,1.28,3.09,1.94c2.05,1.31,4.08,2.66,6.05,4.08c1.97,1.43,3.92,2.89,5.76,4.53
		L66.26,49.08z"/>
	<path class="st3" d="M62.43,49.7c-2.15-1.68-4.62-2.93-7.16-3.84l-0.96-0.33c-0.16-0.05-0.32-0.11-0.48-0.16
		c-0.16-0.05-0.32-0.09-0.52-0.07c-0.38,0.03-0.83,0.25-1.16,0.19c-0.17-0.02-0.31-0.12-0.46-0.17l-0.45-0.19
		c-0.6-0.26-1.21-0.53-1.82-0.75c-0.62-0.24-1.23-0.48-1.86-0.68c-0.63-0.22-1.25-0.44-1.89-0.61c-0.64-0.19-1.27-0.38-1.92-0.53
		c-0.65-0.16-1.29-0.35-1.95-0.47c-0.65-0.13-1.31-0.29-1.97-0.39c-2.64-0.49-5.34-0.76-8.09-0.92l-0.03-0.34
		c2.71-0.59,5.51-0.83,8.32-0.79c0.7-0.01,1.4,0.06,2.11,0.09c0.7,0.03,1.4,0.12,2.11,0.2c0.7,0.07,1.4,0.2,2.1,0.32
		c0.7,0.11,1.39,0.27,2.09,0.42c0.7,0.15,1.38,0.34,2.06,0.54c0.69,0.18,1.36,0.42,2.03,0.65l0.51,0.17
		c0.17,0.06,0.34,0.1,0.49,0.22c0.3,0.22,0.47,0.71,0.72,1.01c0.12,0.16,0.27,0.25,0.42,0.34c0.15,0.09,0.3,0.19,0.45,0.29
		l0.88,0.58c2.34,1.56,4.52,3.25,6.67,4.96L62.43,49.7z"/>
	<path class="st0" d="M60.53,47.48c-2.44,0.03-4.88-0.06-7.31-0.18c-1.22-0.05-2.43-0.15-3.64-0.22l-3.64-0.29
		c-2.42-0.22-4.85-0.45-7.26-0.74c-2.42-0.29-4.83-0.61-7.24-1.04l0.03-0.34c2.44-0.02,4.88,0.07,7.31,0.19
		c2.43,0.12,4.86,0.3,7.28,0.49l3.63,0.33c1.21,0.13,2.42,0.25,3.63,0.4c2.42,0.29,4.83,0.61,7.24,1.05L60.53,47.48z"/>
	<path class="st0" d="M60.58,47.47c-2.33,0.8-4.7,1.42-7.07,1.98c-2.37,0.56-4.76,1.03-7.16,1.44c-2.4,0.42-4.81,0.77-7.23,1.01
		c-2.43,0.23-4.87,0.4-7.35,0.32l-0.06-0.34c2.32-0.87,4.68-1.5,7.06-2.06c2.38-0.55,4.77-0.99,7.17-1.37
		c2.4-0.37,4.82-0.69,7.24-0.93c2.43-0.23,4.87-0.4,7.33-0.39L60.58,47.47z"/>
	<path class="st0" d="M60.62,47.46c-2.14,1.19-4.32,2.27-6.51,3.33c-2.19,1.06-4.41,2.06-6.64,3.04c-1.11,0.5-2.24,0.96-3.35,1.44
		c-1.13,0.46-2.25,0.93-3.38,1.37c-2.26,0.89-4.55,1.75-6.88,2.48l-0.14-0.31c2.13-1.21,4.31-2.3,6.5-3.35
		c1.1-0.53,2.2-1.03,3.31-1.54c1.11-0.49,2.22-1,3.34-1.48c2.24-0.96,4.48-1.9,6.75-2.79c2.27-0.89,4.55-1.75,6.87-2.51L60.62,47.46
		z"/>
	<path class="st4" d="M66.62,48.53c-2.82,0.68-5.58,1.45-8.25,2.42c-2.67,0.98-5.25,2.14-7.71,3.52c-2.46,1.38-4.79,2.98-6.98,4.77
		c-2.18,1.81-4.19,3.82-6.08,6.03l-0.28-0.19c1.3-2.63,3.12-5.02,5.23-7.09c2.1-2.09,4.52-3.87,7.11-5.31
		c2.59-1.44,5.36-2.57,8.22-3.32c2.85-0.76,5.79-1.18,8.71-1.17L66.62,48.53z"/>
	<path class="st5" d="M60.69,47.41c-1.29,2.08-2.67,4.09-4.12,6.07c-0.72,1-1.47,1.97-2.21,2.95c-0.76,0.97-1.53,1.93-2.3,2.9
		c-1.57,1.91-3.17,3.81-4.85,5.65c-1.67,1.85-3.4,3.67-5.23,5.42c-0.09-0.07-0.19-0.15-0.28-0.22c1.53-1.98,3.1-3.92,4.66-5.85
		c1.56-1.93,3.13-3.85,4.69-5.77c0.79-0.95,1.56-1.91,2.33-2.87c0.79-0.95,1.55-1.91,2.34-2.85c1.56-1.9,3.11-3.79,4.7-5.63
		C60.51,47.28,60.6,47.34,60.69,47.41"/>
	<path class="st0" d="M63.02,40.85c-1.29,2.08-2.67,4.09-4.12,6.07c-0.72,1-1.47,1.97-2.21,2.95c-0.76,0.97-1.53,1.93-2.3,2.9
		c-1.57,1.91-3.17,3.81-4.85,5.65c-1.67,1.85-3.4,3.67-5.23,5.42c-0.09-0.07-0.19-0.15-0.28-0.22c1.53-1.98,3.1-3.92,4.66-5.85
		c1.56-1.93,3.13-3.85,4.69-5.77c0.79-0.95,1.56-1.91,2.34-2.87c0.79-0.95,1.55-1.91,2.34-2.85c1.56-1.9,3.11-3.79,4.7-5.63
		C62.84,40.72,62.93,40.79,63.02,40.85"/>
	<path class="st0" d="M60.7,47.37c-0.7,2.35-1.53,4.64-2.42,6.91c-0.89,2.26-1.83,4.51-2.83,6.73c-0.5,1.11-1,2.22-1.53,3.32
		c-0.52,1.1-1.04,2.2-1.59,3.29c-1.08,2.18-2.2,4.35-3.45,6.46l-0.31-0.14c0.73-2.34,1.58-4.62,2.46-6.89
		c0.44-1.14,0.9-2.26,1.37-3.39c0.46-1.13,0.94-2.25,1.43-3.36c0.97-2.23,2-4.44,3.07-6.62c1.08-2.18,2.21-4.34,3.49-6.44
		L60.7,47.37z"/>
	<path class="st0" d="M69.19,29.12c-0.7,2.35-1.53,4.64-2.42,6.91c-0.89,2.26-1.83,4.51-2.83,6.73c-0.5,1.11-1,2.22-1.53,3.32
		c-0.52,1.1-1.04,2.2-1.59,3.29c-1.08,2.18-2.2,4.35-3.45,6.46l-0.31-0.14c0.73-2.34,1.58-4.62,2.46-6.89
		c0.44-1.14,0.9-2.26,1.37-3.39c0.46-1.13,0.94-2.25,1.43-3.36c0.97-2.23,2-4.44,3.07-6.62c1.08-2.18,2.21-4.34,3.49-6.44
		L69.19,29.12z"/>
	<path class="st6" d="M61.19,46.11c0.15,1.25,0.17,2.48,0.15,3.71c-0.03,1.22-0.12,2.44-0.27,3.65c-0.14,1.21-0.36,2.41-0.57,3.62
		c-0.22,1.2-0.45,2.4-0.71,3.6c-0.51,2.4-1.12,4.78-1.81,7.15c-0.7,2.37-1.5,4.73-2.49,7.05c-0.15-0.02-0.3-0.05-0.45-0.07
		c0.24-2.44,0.62-4.86,1.01-7.27c0.41-2.41,0.83-4.82,1.28-7.22c0.22-1.2,0.45-2.4,0.68-3.6c0.23-1.2,0.44-2.4,0.71-3.59
		c0.27-1.19,0.57-2.38,0.91-3.56c0.35-1.18,0.73-2.35,1.22-3.51C60.96,46.07,61.08,46.09,61.19,46.11"/>
	<path class="st1" d="M60.72,47.29c0.39,1.19,0.67,2.39,0.9,3.59c0.23,1.2,0.4,2.41,0.54,3.62c0.14,1.21,0.22,2.42,0.31,3.64
		c0.09,1.21,0.17,2.43,0.24,3.64c0.15,2.43,0.24,4.86,0.31,7.3c0.06,2.43,0.08,4.87,0,7.32l-0.34,0.03
		c-0.47-2.4-0.83-4.82-1.15-7.23c-0.32-2.42-0.61-4.83-0.84-7.26c-0.12-1.21-0.23-2.42-0.34-3.63c-0.1-1.21-0.21-2.42-0.26-3.64
		c-0.05-1.22-0.07-2.44-0.03-3.66c0.04-1.22,0.12-2.45,0.32-3.69L60.72,47.29z"/>
	<path class="st0" d="M60.71,47.26c1,2.24,1.87,4.52,2.71,6.82c0.84,2.3,1.63,4.62,2.48,6.92c0.41,1.16,0.83,2.31,1.26,3.46
		c0.41,1.16,0.84,2.31,1.27,3.47c0.84,2.31,1.7,4.63,2.52,6.96c-0.13,0.04-0.25,0.08-0.38,0.12c-1.17-2.22-2.22-4.47-3.22-6.74
		c-0.49-1.14-0.97-2.27-1.44-3.42c-0.46-1.14-0.91-2.29-1.35-3.44c-0.86-2.3-1.69-4.61-2.42-6.94c-0.72-2.34-1.34-4.7-1.76-7.11
		C60.49,47.33,60.6,47.29,60.71,47.26"/>
	<path class="st7" d="M60.69,47.22c0.52,0.39,1.01,0.81,1.46,1.25c0.46,0.43,0.9,0.88,1.33,1.33c0.85,0.91,1.64,1.86,2.4,2.83
		c1.5,1.95,2.81,4.02,4.15,6.09c1.32,2.08,2.62,4.18,3.85,6.34c1.22,2.16,2.43,4.34,3.44,6.66c-0.1,0.07-0.2,0.13-0.31,0.19
		c-2.02-1.68-3.77-3.52-5.45-5.4c-1.66-1.89-3.2-3.85-4.65-5.86c-1.44-2.01-2.84-4.05-3.97-6.22c-0.57-1.09-1.08-2.21-1.52-3.37
		c-0.22-0.58-0.42-1.17-0.59-1.78c-0.18-0.61-0.33-1.23-0.43-1.87C60.5,47.34,60.59,47.28,60.69,47.22"/>
	<path class="st0" d="M53.84,48.31c0.74,0.03,1.47,0.08,2.21,0.14c0.74,0.07,1.46,0.2,2.2,0.33c0.74,0.11,1.45,0.3,2.17,0.47
		c0.36,0.09,0.72,0.17,1.08,0.29l1.06,0.34c2.83,0.93,5.53,2.27,8.02,3.91c2.49,1.64,4.78,3.6,6.75,5.83
		c1.96,2.24,3.62,4.75,4.75,7.47l-0.3,0.16c-1.62-2.42-3.46-4.63-5.53-6.6c-2.05-1.98-4.31-3.73-6.72-5.24
		c-2.41-1.52-4.96-2.77-7.59-3.88l-0.99-0.42c-0.33-0.14-0.67-0.25-1-0.38c-0.67-0.24-1.34-0.53-2.02-0.74
		c-0.69-0.21-1.36-0.49-2.06-0.69c-0.69-0.21-1.39-0.43-2.08-0.67L53.84,48.31z"/>
	<path class="st8" d="M60.63,47.16c1.16,0.42,2.28,0.9,3.4,1.39c1.11,0.5,2.23,1,3.32,1.54c2.19,1.06,4.34,2.2,6.47,3.39
		c2.12,1.19,4.23,2.4,6.31,3.68c2.07,1.28,4.13,2.59,6.11,4.03l-0.16,0.3c-2.28-0.9-4.49-1.92-6.69-2.98
		c-2.2-1.05-4.36-2.18-6.5-3.33c-2.14-1.15-4.26-2.35-6.34-3.63c-1.04-0.63-2.06-1.3-3.08-1.97c-1.01-0.68-2.03-1.37-3-2.12
		L60.63,47.16z"/>
	<path class="st0" d="M56.81,46.2c1.23-0.09,2.45-0.09,3.67-0.1c1.22,0.01,2.44,0.02,3.66,0.08c2.43,0.1,4.86,0.28,7.28,0.51
		c2.42,0.23,4.84,0.5,7.25,0.84c2.41,0.34,4.82,0.72,7.22,1.24l-0.03,0.34c-2.45,0.09-4.89,0.04-7.32-0.05
		c-2.43-0.08-4.86-0.25-7.29-0.44c-2.43-0.2-4.85-0.45-7.26-0.78c-1.21-0.16-2.41-0.36-3.61-0.56c-1.2-0.22-2.4-0.44-3.6-0.74
		L56.81,46.2z"/>
	<path class="st0" d="M60.59,47.14c2.39,0.5,4.76,1.07,7.13,1.66c2.37,0.59,4.74,1.19,7.11,1.81c2.37,0.62,4.75,1.23,7.12,1.87
		c2.38,0.64,4.76,1.27,7.13,1.97c-0.02,0.11-0.05,0.22-0.08,0.33c-2.45-0.37-4.88-0.84-7.29-1.35c-2.41-0.51-4.81-1.07-7.19-1.68
		c-2.38-0.6-4.74-1.25-7.09-1.96c-2.34-0.71-4.66-1.46-6.95-2.33C60.53,47.36,60.56,47.25,60.59,47.14"/>
	<path class="st0" d="M60.44,47.16c2.31-0.97,4.73-1.68,7.2-2.15c2.47-0.46,4.99-0.68,7.5-0.65l1.89,0.06l1.88,0.15l1.87,0.24
		l1.85,0.33c2.46,0.49,4.87,1.21,7.18,2.18l-0.12,0.32c-2.37-0.74-4.77-1.33-7.2-1.72l-1.83-0.25l-1.84-0.19l-1.84-0.11l-1.84-0.04
		c-2.46,0-4.92,0.19-7.35,0.56c-2.43,0.37-4.85,0.9-7.23,1.59L60.44,47.16z"/>
	<path class="st9" d="M60.51,47.14c2.32-0.77,4.65-1.46,7-2.12c1.17-0.33,2.35-0.65,3.52-0.96c1.17-0.32,2.35-0.62,3.53-0.91
		c2.36-0.6,4.73-1.15,7.11-1.67c2.38-0.51,4.77-0.98,7.19-1.34l0.08,0.33c-2.31,0.81-4.64,1.5-6.98,2.16
		c-2.35,0.65-4.7,1.26-7.07,1.83c-1.18,0.29-2.36,0.57-3.55,0.84c-1.18,0.28-2.37,0.54-3.56,0.79c-2.38,0.51-4.77,0.99-7.18,1.38
		L60.51,47.14z"/>
	<path class="st0" d="M59.36,48.73c1.91-1.58,3.96-2.92,6.04-4.18c2.08-1.27,4.24-2.4,6.4-3.51c2.16-1.11,4.35-2.18,6.56-3.2
		c2.22-1,4.45-1.99,6.76-2.84l0.16,0.3c-1.99,1.44-4.05,2.75-6.12,4.03c-2.08,1.27-4.19,2.49-6.32,3.67
		c-2.13,1.17-4.27,2.33-6.48,3.36c-2.21,1.03-4.46,1.98-6.84,2.68L59.36,48.73z"/>
	<path class="st0" d="M53.66,48.73c1.91-1.58,3.96-2.92,6.04-4.18c2.08-1.27,4.24-2.4,6.4-3.51c2.16-1.11,4.35-2.18,6.56-3.2
		c2.22-1,4.45-1.99,6.76-2.84l0.16,0.3c-1.99,1.44-4.05,2.75-6.12,4.03c-2.08,1.27-4.19,2.49-6.32,3.67
		c-2.13,1.17-4.27,2.33-6.48,3.36c-2.21,1.03-4.46,1.98-6.84,2.68L53.66,48.73z"/>
	<path class="st10" d="M59.27,48.31c1.11-2.74,2.81-5.23,4.81-7.44c2-2.2,4.34-4.1,6.88-5.66c0.62-0.41,1.27-0.77,1.93-1.12
		c0.65-0.37,1.32-0.68,1.99-0.99c0.34-0.15,0.67-0.32,1.01-0.47c0.34-0.14,0.69-0.28,1.03-0.41l1.04-0.4L79,31.47
		c2.81-0.91,5.72-1.51,8.65-1.72l0.05,0.34c-2.83,0.71-5.59,1.55-8.24,2.64l-1,0.4l-0.97,0.45c-0.32,0.15-0.65,0.3-0.97,0.45
		c-0.32,0.15-0.64,0.33-0.95,0.49c-0.63,0.33-1.27,0.65-1.88,1.03c-0.61,0.36-1.24,0.7-1.83,1.11c-2.39,1.55-4.63,3.32-6.68,5.29
		c-2.07,1.97-3.91,4.16-5.61,6.53L59.27,48.31z"/>
	<path class="st0" d="M60.41,47.21c1.08-2.2,2.32-4.3,3.58-6.38c1.27-2.07,2.59-4.12,3.97-6.13l1.02-1.51l1.04-1.5
		c0.69-1,1.4-1.99,2.11-2.98c1.43-1.97,2.88-3.93,4.42-5.83l0.28,0.19c-1.15,2.16-2.39,4.26-3.65,6.34
		c-0.63,1.04-1.27,2.08-1.92,3.1l-0.98,1.54l-1,1.53c-1.32,2.05-2.68,4.06-4.1,6.04c-1.43,1.97-2.88,3.93-4.49,5.78L60.41,47.21z"/>
	<path class="st11" d="M60.39,47.25c-0.05-1.31,0.14-2.53,0.39-3.73c0.25-1.2,0.62-2.36,1.04-3.5c0.81-2.29,1.65-4.58,2.52-6.85
		c0.87-2.27,1.77-4.54,2.73-6.78c0.94-2.25,1.93-4.48,3.01-6.68l0.32,0.11c-0.53,2.39-1.16,4.75-1.83,7.09
		c-0.66,2.35-1.37,4.68-2.11,6.99c-0.75,2.32-1.51,4.63-2.32,6.92c-0.39,1.15-0.83,2.29-1.38,3.38c-0.56,1.09-1.18,2.17-2.03,3.15
		L60.39,47.25z"/>
	<path class="st0" d="M66.62,47.22c0,3.26-2.65,5.91-5.91,5.91c-3.26,0-5.91-2.65-5.91-5.91c0-3.26,2.64-5.91,5.91-5.91
		C63.98,41.31,66.62,43.96,66.62,47.22"/>
	<path class="st12" d="M48.82,65.57c1.11-1.63,3.23-3.12,4.83-3.05c1.6,0.07,4.9,1.04,7.21,3.05c2.3,2.01,3.79,4.79,3.83,5.13
		c0.04,0.33-0.59,2.68-0.59,2.68l-1.49-0.27c0,0-3.86-2.26-5.57-3.38c-1.71-1.11-6.02-2.68-6.5-2.75c-0.48-0.07-0.63-0.26-0.93-0.22
		c-0.3,0.04-0.67,0.04-0.78-0.07C48.71,66.57,48.82,65.57,48.82,65.57"/>
	<path class="st13" d="M68.95,64.38c0.07-0.15,2.67-2.3,3.01-2.53c0.33-0.22,2.27-1.26,2.38-1.26c0.11,0,0.52,0.04,1.08,0
		c0.56-0.04,1.04-0.07,1.41,0.22c0.37,0.3,0.89,0.63,1.26,1.08c0.37,0.45,0.45,0.97,0.45,1.26c0,0.3-0.33,1.04-0.33,1.04l-1.6,1.89
		c0,0-1.26,1.72-1.71,1.86c-0.45,0.14-3.75,2.04-3.75,2.04l-2.86,1.75l-1.78-0.26l-1.82-2.93l1.11-2.39L68.95,64.38z"/>
	<path class="st14" d="M65.88,53.55c0.96-0.1,3.22,1.75,3.96,4.92c0.74,3.17,0.57,9.5-1.64,12.5c-2.21,3-3.28,3.39-3.28,3.39
		s-3.22-3.73-3.96-5.43c-0.74-1.7-1.41-8.6-0.23-10.97C61.92,55.58,64.81,53.66,65.88,53.55"/>
	<path class="st15" d="M66.98,72.92c0,0,2.12,2.9,2.9,4.38c0.78,1.49,2.01,7.13,1.6,8.62c-0.41,1.49-1.11,2.71-1.71,2.97
		c-0.59,0.26-1.19,0.26-1.71,0.26c-0.52,0-0.93-0.19-1.3-0.59c-0.37-0.41-0.63-2.34-0.93-3.12c-0.3-0.78-0.89-5.61-1.15-6.09
		c-0.26-0.48-0.52-1.63-0.41-2.12c0.11-0.48-0.3-2.39-0.03-2.87c0.27-0.47,1.18-0.99,1.18-0.99L66.98,72.92z"/>
	<path class="st16" d="M64.68,69.95c0,0,4.38-1.82,6.24-2.15c1.86-0.33,2.97-0.71,6.5,0.56c3.53,1.26,5.65,3.16,6.5,4.09
		c0.85,0.93,1.89,3.42,2.15,3.86c0.26,0.44,0.3,0.85,0,1.11c-0.3,0.26-1.86,0.74-3.05,1.04c-1.18,0.3-5.94,0.48-6.5,0.41
		c-0.56-0.08-4.61-0.48-5.35-0.74c-0.74-0.26-3.33-1.63-3.33-1.63l-2.28-1.6l-0.89-1.51c0,0-0.54-0.57-0.53-1.12
		C64.16,71.7,64.68,69.95,64.68,69.95"/>
	<path class="st17" d="M64.16,71.7c0,0-2.61-2.08-4.07-2.23c-1.46-0.15-4.84,1.26-5.62,1.93c-0.78,0.67-3.23,4.64-3.79,5.31
		c-0.56,0.67-0.59,2.49-0.78,3.16c-0.19,0.67-0.22,1.23,0.48,1.23c0.7,0,1.52-0.15,2.38,0c0.86,0.15,1.78,0,2.93,0
		s4.72-1.11,5.27-1.41c0.56-0.3,1.52-1.11,2.04-1.19c0.52-0.07,1.04-0.11,1.15-0.19c0.11-0.07,0.66-0.15,1-0.85
		c0.34-0.71,1.01-2.04,0.86-2.68C65.87,74.15,64.16,71.7,64.16,71.7"/>
	<path class="st18" d="M65.28,55.89c0,0,0.55,6.56,0.51,7.19c-0.04,0.63-0.2,0.75-0.26,1.18c-0.06,0.44-0.3,2.29,0,2.63
		c0.3,0.34,0.65-1.18,0.65-1.18s-0.36-2.27,0.24-2.55c0.59-0.28,0.24-0.32,1.62-0.32c1.38,0,2.14-0.08,2.14-0.08v2.33
		c0,0-0.2,1.23,0,1.54c0.2,0.32,0.36-0.63,0.55-1.19c0.2-0.55,0.44-1.5,1.15-1.98c0.71-0.47,1.74-0.99,1.94-0.99
		c0.2,0,0,0.83,0,0.83L72.4,65.1c0,0-0.79,0.2-0.83,0.81c-0.04,0.61-0.44,1.28,0.32,0.57c0.75-0.71,2.03-2.22,2.03-2.22
		s1.37-0.67,1.69-0.39c0.32,0.28-0.32,1.58-0.32,1.58l-1.5,0.95l-0.79,0.99l1.3-0.32l1.62-0.87c0,0,0.08,0.83-0.79,1.19
		c-0.87,0.36-2.41,0.59-2.09,1.23c0.32,0.63,0.32,0.51,0.51,0.83c0.2,0.32,0.32,0.67-0.32,0.83c-0.63,0.16-1.74-0.08-0.87,0.47
		c0.87,0.55,1.27,0.49,1.78,0.66c0.51,0.17,1.46,0.37,0.63,0.68c-0.83,0.32-0.79,0.36-1.58,0.4c-0.79,0.04,1.07,0,1.07,0l2.69,0.48
		c0,0,1.27,0.62,1.5,0.6c0.24-0.01,1.03-0.09,0.24-0.01c-0.79,0.08-3.16-0.36-3.16-0.36s-2.41-0.28-2.93-0.24
		c-0.51,0.04-1.94-0.08-1.58,0.32c0.36,0.4,0.91,0.43,1.54,0.41c0.63-0.01,4.03,0.38,4.03,0.38s3.24,0.75,4.03,1.11
		c0.79,0.36,1.66,1.07,1.66,1.07l-1.82-0.2l-4.86-1.58c0,0-4.7-0.24-5.02-0.24c-0.32,0-1.07-0.24-1.46,0
		c-0.4,0.24-0.2,1.31-0.2,1.31l1.78,1.26l2.06,0.28l3.4,0.99l2.17,0.24l-0.91,0.2l-2.45-0.36l-2.53-0.36l-3.24-0.95
		c0,0-0.71-1.03-1.19-0.83c-0.47,0.2-0.79,0.16-0.83,0.67c-0.04,0.51,0.04,0.87,0.04,0.87l-0.32,0.32l-0.36-1.03l-0.51,0.28
		l0.2,0.87l0.2,0.79c0,0-0.59-0.04-0.63-0.71c-0.04-0.67,0-1.07,0-1.07h-0.51c0,0,0.12,0.67-0.16,0.59
		C64.84,77.52,64.88,77,64.88,77l-0.28-0.63c0,0-0.2,0.47-0.47,0c-0.28-0.47-0.2-0.83-0.2-0.83l-0.95-0.87l-1.94,1.19l-4.27,2.41
		l-2.73,1.42l-1.46,0.32l-0.2-0.44l3.8-1.82c0,0,3.76-2.21,5.06-2.77c1.31-0.55,1.5-1.41,1.5-1.41l-0.71-0.88l-4.9,1.19l-2.69,1.19
		l2.69-2.89l3.04-1.42L60.89,70c0,0-2.01-1.19-2.88-1.5c-0.87-0.32-4.27-1.34-4.27-1.34l-2.53-0.75l1.15-0.28l4.47,1.23l3.2,1.03
		l0.12-0.99l-1.9-1.68l-2.85-0.93l1.74-0.2l3.52,1.62l1.66-0.75c0,0-0.51-2.41,0.16-3.24c0.67-0.83,0.87-0.96,1.34-0.22
		c0.47,0.74,1.07,0.74,1.07,0.74l0.2-1.74c0,0,0.08-1.66,0.12-1.78C65.24,59.09,65.28,56.52,65.28,55.89"/>
	<path class="st19" d="M70.71,69.38c0.2,0.08-0.96,1.28-0.86,2.07c0.1,0.79-0.01,1.33-0.01,1.33s-0.75,0.74-1.19,1.38
		c-0.44,0.64-0.36,0.86-0.76,1.06c-0.4,0.2-1.08,0.3-1.08,0.3l-1.32-0.36l-1.3-0.82c0,0-1.26-1.76-1.42-2.54
		c-0.16-0.78-0.66-1.36-0.66-1.36l-0.26-0.54v-2.66l1.08,0.19l0.78-1.77c0,0,0.56-0.76,2.18-0.38c1.62,0.38,2,0.38,2.66,0.6
		c0.66,0.22,0.74,0.18,0.92,0.64c0.18,0.46,0.54,0.82,0.54,0.82l1.12-0.1l-0.14,0.96l0.5,0.73c0,0,0.2-0.13,0.38,0
		C72.06,69.06,72,69.7,72,69.7"/>
	<path class="st20" d="M68.61,70.25c0.06,0.06,0.16,0.1,0.26,0.12c0.3,0.07,0.62,0.08,0.15,0.74c-0.62,0.89-0.77,1.61-1.24,1.71
		c-0.46,0.1-0.82-0.05-1.54,0c-0.72,0.05-1.9-0.36-1.9-0.36l-0.62-1.47c0,0-0.05-0.89,0.31-1.46c0.36-0.57,0.1-0.88,0.88-0.7
		c0.77,0.18,0.95,0.44,1.58,0.39c0.63-0.05,1.3,0.15,1.3,0.15l0.26,0.82"/>
	<path class="st21" d="M64.75,69.81c-0.32,0.24-0.73,0.61-0.56,0.89c0.18,0.28,0.28,0.37,0.72-0.03c0.44-0.39,1.53-2.32,1.68-3.71"
		/>
	<path class="st22" d="M64.61,71.03c0,0.24,0.28,0.92,0.84,0.49c0.56-0.43,1.1-2.14,1.09-2.43"/>
	<path class="st21" d="M67.32,67.7c0,0-0.68,3.35-0.9,3.65c-0.22,0.29-0.68,1.25-1.23,0.66"/>
	<path class="st23" d="M68.08,69.72c0,0-0.99,2.19-1.22,2.37c-0.23,0.18-0.68,0.67-1.09,0.42"/>
	<path class="st23" d="M69.57,68.64c0,0-1.48,2.57-1.85,2.59c-0.37,0.02-0.52,0.02-0.8-0.08c-0.28-0.1-0.67-0.25-0.91-0.21"/>
	<path class="st21" d="M68.89,68.85c0,0-0.18,2.09-0.47,2.48c-0.29,0.39-0.67,0.57-1.38,0.51"/>
	<path class="st21" d="M69.27,69.52c0,0-1.37,1.82-1.76,2.24c-0.39,0.42-0.76,0.84-1.19,0.82"/>
	<path class="st24" d="M66.14,67c0,0.11,0.18,0.21,0.39,0.21s0.39-0.09,0.39-0.21c0-0.12-0.18-0.21-0.39-0.21S66.14,66.88,66.14,67"
		/>
	<path class="st24" d="M66.89,67.64c0,0.09,0.23,0.17,0.52,0.17c0.29,0,0.52-0.08,0.52-0.17c0-0.09-0.23-0.17-0.52-0.17
		C67.12,67.47,66.89,67.55,66.89,67.64"/>
	<path class="st24" d="M69.23,68.52c0,0.11,0.13,0.2,0.28,0.2c0.16,0,0.28-0.09,0.28-0.2c0-0.11-0.13-0.2-0.28-0.2
		C69.36,68.32,69.23,68.41,69.23,68.52"/>
	<path class="st25" d="M68.48,68.81c0,0.09,0.16,0.15,0.37,0.15c0.2,0,0.37-0.07,0.37-0.15c0-0.09-0.16-0.15-0.37-0.15
		C68.65,68.65,68.48,68.72,68.48,68.81"/>
	<path class="st24" d="M68.93,69.46c0,0.08,0.15,0.14,0.34,0.14c0.19,0,0.34-0.06,0.34-0.14c0-0.08-0.15-0.14-0.34-0.14
		C69.09,69.32,68.93,69.38,68.93,69.46"/>
	<path class="st24" d="M67.75,69.65c0,0.09,0.11,0.16,0.25,0.16c0.14,0,0.25-0.07,0.25-0.16c0-0.09-0.11-0.16-0.25-0.16
		C67.87,69.48,67.75,69.56,67.75,69.65"/>
	<path class="st25" d="M66.24,69c0,0.12,0.13,0.22,0.29,0.22c0.16,0,0.29-0.1,0.29-0.22s-0.13-0.22-0.29-0.22
		C66.37,68.79,66.24,68.88,66.24,69"/>
	<path class="st23" d="M64.37,69.85c-0.32,0.24-0.73,0.61-0.56,0.89c0.18,0.28,0.28,0.37,0.72-0.03c0.44-0.39,1.53-2.32,1.68-3.71"
		/>
	<path class="st23" d="M64.23,71.07c0,0.24,0.28,0.92,0.84,0.49c0.56-0.43,1.1-2.14,1.09-2.43"/>
	<path class="st23" d="M66.94,67.74c0,0-0.68,3.35-0.9,3.65c-0.21,0.29-0.68,1.25-1.23,0.66"/>
	<path class="st23" d="M67.7,69.76c0,0-0.99,2.19-1.22,2.37c-0.23,0.18-0.68,0.67-1.09,0.42"/>
	<path class="st23" d="M69.19,68.68c0,0-1.48,2.57-1.85,2.59c-0.37,0.02-0.52,0.02-0.8-0.08c-0.28-0.1-0.67-0.25-0.91-0.21"/>
	<path class="st23" d="M68.51,68.89c0,0-0.18,2.09-0.47,2.48c-0.29,0.39-0.67,0.57-1.38,0.5"/>
	<path class="st23" d="M68.89,69.56c0,0-1.37,1.82-1.76,2.24c-0.39,0.42-0.76,0.84-1.19,0.82"/>
	<path class="st25" d="M65.76,67.04c0,0.11,0.18,0.21,0.39,0.21s0.39-0.09,0.39-0.21c0-0.11-0.18-0.21-0.39-0.21
		S65.76,66.92,65.76,67.04"/>
	<path class="st25" d="M66.51,67.68c0,0.1,0.23,0.17,0.52,0.17c0.29,0,0.52-0.08,0.52-0.17c0-0.09-0.23-0.17-0.52-0.17
		C66.74,67.51,66.51,67.59,66.51,67.68"/>
	<path class="st25" d="M68.85,68.56c0,0.11,0.13,0.2,0.28,0.2c0.16,0,0.28-0.09,0.28-0.2c0-0.11-0.13-0.2-0.28-0.2
		C68.98,68.36,68.85,68.45,68.85,68.56"/>
	<path class="st25" d="M68.1,68.85c0,0.09,0.16,0.16,0.37,0.16c0.2,0,0.37-0.07,0.37-0.16c0-0.09-0.16-0.15-0.37-0.15
		C68.27,68.69,68.1,68.76,68.1,68.85"/>
	<path class="st25" d="M68.56,69.5c0,0.08,0.15,0.14,0.34,0.14c0.19,0,0.34-0.06,0.34-0.14c0-0.08-0.15-0.14-0.34-0.14
		C68.71,69.36,68.56,69.42,68.56,69.5"/>
	<path class="st25" d="M67.38,69.69c0,0.09,0.11,0.17,0.25,0.17c0.14,0,0.25-0.07,0.25-0.17c0-0.09-0.11-0.16-0.25-0.16
		C67.49,69.52,67.38,69.6,67.38,69.69"/>
	<path class="st25" d="M65.86,69.04c0,0.12,0.13,0.22,0.29,0.22c0.16,0,0.29-0.1,0.29-0.22c0-0.12-0.13-0.22-0.29-0.22
		C65.99,68.83,65.86,68.92,65.86,69.04"/>
	<path class="st21" d="M64.02,69.89c-0.32,0.24-0.73,0.61-0.56,0.89c0.18,0.28,0.28,0.37,0.72-0.03c0.44-0.39,1.53-2.32,1.68-3.71"
		/>
	<path class="st21" d="M63.88,71.11c0,0.24,0.28,0.92,0.84,0.49c0.56-0.43,1.1-2.14,1.09-2.43"/>
	<path class="st21" d="M66.59,67.78c0,0-0.68,3.35-0.9,3.65c-0.21,0.29-0.68,1.25-1.23,0.66"/>
	<path class="st21" d="M67.35,69.8c0,0-0.99,2.19-1.22,2.37c-0.23,0.18-0.68,0.67-1.09,0.42"/>
	<path class="st22" d="M68.84,68.72c0,0-1.48,2.57-1.85,2.59c-0.37,0.02-0.52,0.02-0.8-0.08c-0.28-0.1-0.67-0.25-0.91-0.21"/>
	<path class="st23" d="M68.16,68.93c0,0-0.18,2.09-0.47,2.48c-0.29,0.39-0.67,0.57-1.38,0.51"/>
	<path class="st23" d="M68.54,69.6c0,0-1.37,1.82-1.76,2.24c-0.39,0.42-0.76,0.84-1.19,0.82"/>
	<path class="st24" d="M65.41,67.08c0,0.12,0.18,0.21,0.39,0.21s0.39-0.09,0.39-0.21c0-0.11-0.18-0.21-0.39-0.21
		S65.41,66.96,65.41,67.08"/>
	<path class="st24" d="M66.16,67.72c0,0.1,0.23,0.17,0.52,0.17s0.52-0.08,0.52-0.17c0-0.09-0.23-0.17-0.52-0.17
		S66.16,67.63,66.16,67.72"/>
	<path class="st24" d="M68.5,68.6c0,0.11,0.13,0.2,0.28,0.2c0.16,0,0.28-0.09,0.28-0.2c0-0.11-0.13-0.2-0.28-0.2
		C68.62,68.4,68.5,68.49,68.5,68.6"/>
	<path class="st24" d="M67.75,68.89c0,0.09,0.16,0.15,0.37,0.15c0.2,0,0.37-0.07,0.37-0.15c0-0.09-0.16-0.15-0.37-0.15
		C67.91,68.73,67.75,68.8,67.75,68.89"/>
	<path class="st25" d="M68.2,69.54c0,0.08,0.15,0.14,0.34,0.14c0.19,0,0.34-0.06,0.34-0.14c0-0.08-0.15-0.14-0.34-0.14
		C68.35,69.4,68.2,69.46,68.2,69.54"/>
	<path class="st24" d="M67.02,69.73c0,0.09,0.11,0.16,0.25,0.16c0.14,0,0.25-0.07,0.25-0.16c0-0.09-0.11-0.17-0.25-0.17
		C67.13,69.56,67.02,69.64,67.02,69.73"/>
	<path class="st25" d="M65.51,69.08c0,0.12,0.13,0.22,0.29,0.22c0.16,0,0.29-0.1,0.29-0.22c0-0.12-0.13-0.22-0.29-0.22
		C65.64,68.87,65.51,68.96,65.51,69.08"/>
	<path class="st26" d="M64.99,69.37c-0.32,0.24-0.73,0.61-0.56,0.89c0.18,0.28,0.28,0.37,0.72-0.03s1.53-2.32,1.68-3.71"/>
	<path class="st26" d="M64.85,70.59c0,0.24,0.28,0.92,0.84,0.49c0.56-0.43,1.1-2.14,1.09-2.43"/>
	<path class="st26" d="M67.56,67.26c0,0-0.68,3.35-0.9,3.65c-0.21,0.29-0.68,1.25-1.23,0.66"/>
	<path class="st26" d="M68.32,69.28c0,0-0.99,2.19-1.22,2.37c-0.23,0.18-0.68,0.67-1.09,0.42"/>
	<path class="st26" d="M69.82,68.19c0,0-1.48,2.57-1.85,2.59c-0.37,0.02-0.52,0.02-0.8-0.08s-0.67-0.25-0.91-0.21"/>
	<path class="st26" d="M69.13,68.41c0,0-0.18,2.09-0.47,2.48c-0.29,0.39-0.67,0.57-1.38,0.51"/>
	<path class="st26" d="M69.51,69.08c0,0-1.37,1.82-1.76,2.24c-0.39,0.42-0.76,0.84-1.19,0.82"/>
	<path class="st27" d="M66.39,66.55c0,0.11,0.18,0.21,0.39,0.21s0.39-0.09,0.39-0.21c0-0.12-0.18-0.21-0.39-0.21
		S66.39,66.44,66.39,66.55"/>
	<path class="st27" d="M67.13,67.2c0,0.09,0.23,0.17,0.52,0.17c0.29,0,0.52-0.08,0.52-0.17c0-0.09-0.23-0.17-0.52-0.17
		C67.37,67.03,67.13,67.1,67.13,67.2"/>
	<path class="st27" d="M69.47,68.08c0,0.11,0.13,0.2,0.28,0.2c0.16,0,0.28-0.09,0.28-0.2c0-0.11-0.13-0.2-0.28-0.2
		C69.6,67.88,69.47,67.97,69.47,68.08"/>
	<path class="st27" d="M68.73,68.37c0,0.09,0.16,0.15,0.37,0.15c0.2,0,0.37-0.07,0.37-0.15c0-0.09-0.16-0.15-0.37-0.15
		C68.89,68.21,68.73,68.28,68.73,68.37"/>
	<path class="st27" d="M69.18,69.01c0,0.08,0.15,0.14,0.34,0.14c0.19,0,0.34-0.06,0.34-0.14c0-0.08-0.15-0.14-0.34-0.14
		C69.33,68.87,69.18,68.94,69.18,69.01"/>
	<path class="st27" d="M68,69.2c0,0.09,0.11,0.16,0.25,0.16c0.14,0,0.25-0.07,0.25-0.16c0-0.09-0.11-0.16-0.25-0.16
		C68.11,69.04,68,69.11,68,69.2"/>
	<path class="st27" d="M66.49,68.56c0,0.12,0.13,0.22,0.29,0.22c0.16,0,0.29-0.1,0.29-0.22s-0.13-0.22-0.29-0.22
		C66.62,68.34,66.49,68.44,66.49,68.56"/>
	<path class="st26" d="M64.31,69.85c-0.32,0.24-0.73,0.61-0.56,0.89c0.18,0.28,0.28,0.37,0.72-0.03c0.44-0.39,1.53-2.32,1.68-3.71"
		/>
	<path class="st26" d="M64.17,71.07c0,0.24,0.28,0.92,0.84,0.49c0.56-0.43,1.1-2.14,1.09-2.43"/>
	<path class="st26" d="M66.88,67.74c0,0-0.68,3.35-0.9,3.65c-0.21,0.29-0.68,1.25-1.23,0.66"/>
	<path class="st26" d="M67.64,69.76c0,0-0.99,2.19-1.22,2.37c-0.23,0.18-0.68,0.67-1.09,0.42"/>
	<path class="st26" d="M69.13,68.68c0,0-1.48,2.57-1.85,2.59c-0.37,0.02-0.52,0.02-0.8-0.08c-0.28-0.1-0.67-0.25-0.91-0.21"/>
	<path class="st26" d="M68.45,68.89c0,0-0.18,2.09-0.47,2.48c-0.29,0.39-0.67,0.57-1.38,0.51"/>
	<path class="st26" d="M68.83,69.56c0,0-1.37,1.82-1.76,2.24c-0.39,0.42-0.76,0.84-1.19,0.82"/>
	<path class="st27" d="M65.7,67.04c0,0.11,0.18,0.21,0.39,0.21c0.22,0,0.39-0.09,0.39-0.21c0-0.11-0.18-0.21-0.39-0.21
		C65.88,66.83,65.7,66.92,65.7,67.04"/>
	<path class="st27" d="M66.45,67.68c0,0.1,0.23,0.17,0.52,0.17s0.52-0.08,0.52-0.17c0-0.09-0.23-0.17-0.52-0.17
		S66.45,67.59,66.45,67.68"/>
	<path class="st27" d="M68.79,68.56c0,0.11,0.13,0.2,0.28,0.2c0.16,0,0.28-0.09,0.28-0.2c0-0.11-0.13-0.2-0.28-0.2
		C68.92,68.36,68.79,68.45,68.79,68.56"/>
	<path class="st27" d="M68.04,68.85c0,0.09,0.16,0.15,0.37,0.15c0.2,0,0.37-0.07,0.37-0.15c0-0.09-0.16-0.15-0.37-0.15
		C68.21,68.69,68.04,68.76,68.04,68.85"/>
	<path class="st28" d="M68.49,69.5c0,0.08,0.15,0.14,0.34,0.14c0.19,0,0.34-0.06,0.34-0.14c0-0.08-0.15-0.14-0.34-0.14
		C68.65,69.36,68.49,69.42,68.49,69.5"/>
	<path class="st27" d="M67.32,69.69c0,0.09,0.11,0.16,0.25,0.16c0.14,0,0.25-0.07,0.25-0.16c0-0.09-0.11-0.17-0.25-0.17
		C67.43,69.52,67.32,69.6,67.32,69.69"/>
	<path class="st27" d="M65.8,69.04c0,0.12,0.13,0.22,0.29,0.22c0.16,0,0.29-0.1,0.29-0.22s-0.13-0.22-0.29-0.22
		C65.93,68.83,65.8,68.92,65.8,69.04"/>
	<path class="st12" d="M45.11,44.74c-0.15-1.88,0.54-4.26,1.77-5.16c1.23-0.9,4.27-2.16,7.18-2.05c2.91,0.11,5.69,1.3,5.91,1.52
		c0.23,0.23,1.17,2.35,1.17,2.35l-1.27,0.69c0,0-4.23,0.63-6.17,0.82c-1.94,0.19-6.08,1.61-6.48,1.85c-0.4,0.23-0.63,0.19-0.82,0.39
		c-0.2,0.21-0.48,0.43-0.63,0.41C45.62,45.55,45.11,44.74,45.11,44.74"/>
	<path class="st13" d="M59.37,31.81c-0.03-0.15,0.61-3.31,0.73-3.68c0.12-0.37,0.93-2.3,1.01-2.36c0.08-0.07,0.41-0.28,0.8-0.65
		c0.39-0.36,0.73-0.68,1.18-0.68c0.45,0,1.04-0.06,1.58,0.05c0.54,0.11,0.91,0.45,1.09,0.67c0.18,0.22,0.37,0.97,0.37,0.97
		l-0.05,2.37c0,0,0.09,2.03-0.16,2.41c-0.24,0.37-1.57,3.76-1.57,3.76l-1.08,3.01l-1.48,0.87l-3.11-1.1l-0.6-2.44L59.37,31.81z"/>
	<path class="st14" d="M50.6,25.58c0.65-0.65,3.45-0.63,5.89,1.29c2.44,1.92,6.11,6.73,6.26,10.28c0.15,3.55-0.41,4.49-0.41,4.49
		s-4.63-0.85-6.2-1.67c-1.56-0.82-6.2-5.55-6.74-8.03C48.88,29.47,49.87,26.31,50.6,25.58"/>
	<path class="st15" d="M63.02,39.34c0,0,3.31,0.89,4.78,1.52c1.47,0.64,5.76,4.1,6.35,5.45c0.59,1.35,0.79,2.68,0.51,3.23
		c-0.29,0.55-0.73,0.9-1.12,1.22c-0.39,0.31-0.8,0.42-1.32,0.34c-0.52-0.08-1.87-1.36-2.56-1.77c-0.69-0.4-4.02-3.64-4.5-3.84
		c-0.48-0.2-1.37-0.9-1.57-1.33c-0.21-0.43-1.66-1.6-1.74-2.12c-0.08-0.52,0.29-1.44,0.29-1.44L63.02,39.34z"/>
	<path class="st16" d="M59.53,38.51c0,0,2.17-3.98,3.35-5.34c1.18-1.36,1.79-2.3,5.17-3.48c3.38-1.17,6.09-1.03,7.28-0.85
		c1.19,0.18,3.46,1.41,3.91,1.58c0.46,0.18,0.73,0.46,0.67,0.83c-0.07,0.37-0.94,1.67-1.64,2.6c-0.7,0.93-4.13,3.92-4.59,4.2
		c-0.46,0.28-3.72,2.4-4.42,2.65c-0.71,0.25-3.45,0.78-3.45,0.78l-2.65,0.18l-1.57-0.59c0,0-0.74-0.1-1.07-0.52
		C60.19,40.12,59.53,38.51,59.53,38.51"/>
	<path class="st17" d="M60.19,40.12c0,0-3.19,0.01-4.36,0.78c-1.18,0.77-2.85,3.84-3.03,4.8c-0.18,0.96,0.38,5.39,0.36,6.22
		c-0.01,0.83,1.05,2.21,1.31,2.81c0.26,0.61,0.57,1.04,1.09,0.62c0.52-0.42,1.04-1.02,1.77-1.42c0.72-0.4,1.33-1.07,2.18-1.76
		c0.86-0.69,2.84-3.65,3.08-4.21c0.24-0.55,0.47-1.74,0.81-2.11c0.34-0.37,0.71-0.71,0.75-0.83c0.04-0.12,0.4-0.51,0.23-1.23
		c-0.17-0.73-0.48-2.12-0.96-2.5C62.93,40.92,60.19,40.12,60.19,40.12"/>
	<path class="st18" d="M51.56,27.69c0,0,4.34,4.55,4.69,5.04c0.35,0.49,0.3,0.67,0.52,1.03c0.22,0.36,1.15,1.88,1.57,1.96
		c0.42,0.08-0.23-1.27-0.23-1.27s-1.62-1.48-1.35-2.04c0.27-0.56-0.01-0.38,1.02-1.21c1.03-0.83,1.54-1.34,1.54-1.34l1.4,1.73
		c0,0,0.59,1.03,0.92,1.15c0.34,0.12-0.11-0.68-0.3-1.21c-0.18-0.53-0.58-1.38-0.33-2.16c0.25-0.78,0.7-1.78,0.85-1.89
		c0.15-0.12,0.5,0.62,0.5,0.62l0.01,2.18c0,0-0.47,0.62-0.13,1.1c0.34,0.48,0.45,1.22,0.58,0.24c0.13-0.98,0.18-2.86,0.18-2.86
		s0.62-1.32,1.02-1.31c0.4,0.02,0.71,1.37,0.71,1.37l-0.55,1.61l0,1.21l0.78-1.02L65.65,29c0,0,0.56,0.57,0.12,1.36
		c-0.43,0.78-1.44,1.88-0.83,2.17c0.61,0.28,0.54,0.19,0.88,0.31c0.34,0.12,0.64,0.31,0.26,0.81c-0.38,0.5-1.34,0.98-0.36,0.87
		c0.98-0.11,1.24-0.39,1.72-0.57c0.48-0.18,1.31-0.6,0.88,0.13c-0.43,0.73-0.38,0.74-0.94,1.24c-0.56,0.5,0.79-0.64,0.79-0.64
		l2.28-1.26c0,0,1.31-0.3,1.48-0.45c0.17-0.15,0.71-0.68,0.17-0.15s-2.56,1.63-2.56,1.63s-1.96,1.24-2.32,1.58
		c-0.36,0.34-1.49,1.1-0.99,1.18c0.5,0.08,0.93-0.23,1.39-0.62c0.46-0.39,3.23-2.13,3.23-2.13s2.86-1.38,3.66-1.59
		c0.8-0.21,1.87-0.2,1.87-0.2l-1.47,0.94l-4.56,1.73c0,0-3.64,2.64-3.88,2.83c-0.24,0.19-0.94,0.46-1.09,0.88
		c-0.15,0.41,0.63,1.09,0.63,1.09L68.11,40l1.69-1.03l3.12-1.3l1.76-1.13l-0.56,0.69l-2.04,1.2l-2.09,1.25l-2.98,1.23
		c0,0-1.14-0.34-1.38,0.09c-0.23,0.43-0.49,0.59-0.22,1c0.28,0.41,0.55,0.62,0.55,0.62l-0.05,0.42l-0.88-0.55l-0.22,0.51l0.67,0.53
		l0.62,0.47c0,0-0.47,0.33-0.9-0.15c-0.43-0.48-0.64-0.79-0.64-0.79l-0.38,0.31c0,0,0.49,0.43,0.24,0.54
		c-0.25,0.11-0.53-0.3-0.53-0.3l-0.58-0.3c0,0,0.14,0.47-0.35,0.28c-0.49-0.19-0.64-0.5-0.64-0.5l-1.23-0.08l-0.73,2.04l-1.73,4.35
		l-1.18,2.69l-0.9,1.11l-0.41-0.21l1.73-3.63c0,0,1.47-3.9,2.11-5.09c0.64-1.19,0.27-1.95,0.27-1.95l-1.06-0.23l-2.94,3.82
		l-1.29,2.49l0.27-3.76l1.41-2.88l0.08-0.98c0,0-2.21,0.32-3.04,0.61c-0.84,0.28-3.98,1.56-3.98,1.56l-2.33,0.96l0.69-0.89
		l4.06-1.76l3-1.15l-0.5-0.81l-2.42-0.11l-2.67,1.01l1.18-1.19l3.59-0.9l0.79-1.55c0,0-1.83-1.49-1.82-2.51
		c0-1.02,0.07-1.24,0.87-0.97c0.79,0.27,1.24-0.09,1.24-0.09l-0.89-1.41c0,0-0.93-1.28-0.98-1.39
		C53.45,30.1,51.94,28.16,51.56,27.69"/>
	<path class="st19" d="M63.68,34.47c0.2-0.06,0.05,1.53,0.6,2.06c0.55,0.53,0.79,0.99,0.79,0.99s-0.12,1-0.06,1.74
		c0.06,0.74,0.25,0.86,0.07,1.24c-0.18,0.39-0.62,0.87-0.62,0.87l-1.2,0.52l-1.46,0.17c0,0-1.99-0.55-2.58-1.04
		c-0.59-0.48-1.31-0.62-1.31-0.62l-0.52-0.25l-1.59-1.98l0.92-0.5l-0.48-1.79c0,0-0.04-0.9,1.4-1.59c1.43-0.69,1.72-0.92,2.34-1.15
		c0.62-0.23,0.66-0.31,1.07-0.07c0.41,0.23,0.89,0.29,0.89,0.29l0.77-0.74l0.47,0.8l0.81,0.24c0,0,0.07-0.22,0.28-0.23
		c0.21-0.01,0.55,0.5,0.55,0.5"/>
	<path class="st20" d="M62.63,36.38c0.09,0.01,0.18-0.03,0.26-0.07c0.26-0.13,0.5-0.31,0.56,0.46c0.07,1.03,0.39,1.66,0.11,2.01
		c-0.28,0.35-0.64,0.46-1.15,0.93c-0.51,0.47-1.63,0.87-1.63,0.87l-1.34-0.73c0,0-0.57-0.63-0.65-1.27
		c-0.07-0.64-0.45-0.71,0.24-1.04c0.68-0.33,0.97-0.24,1.41-0.66c0.44-0.42,1.06-0.66,1.06-0.66l0.68,0.46"/>
	<path class="st29" d="M59.5,38.36c-0.09,0.37-0.18,0.89,0.12,0.99c0.3,0.1,0.43,0.11,0.52-0.45c0.1-0.56-0.25-2.64-0.97-3.77"/>
	<path class="st30" d="M60.12,39.35c0.14,0.18,0.76,0.52,0.92-0.13c0.16-0.65-0.46-2.25-0.65-2.46"/>
	<path class="st29" d="M60.14,35.25c0,0,1.5,2.91,1.51,3.25c0.01,0.34,0.24,1.34-0.52,1.22"/>
	<path class="st31" d="M61.92,36.3c0,0,0.58,2.22,0.51,2.49c-0.06,0.27-0.11,0.91-0.56,0.96"/>
	<path class="st31" d="M62.38,34.6c0,0,0.44,2.8,0.18,3.04c-0.26,0.24-0.37,0.33-0.64,0.42c-0.27,0.09-0.65,0.21-0.81,0.39"/>
	<path class="st29" d="M62,35.17c0,0,1.12,1.66,1.14,2.13c0.02,0.47-0.16,0.82-0.72,1.2"/>
	<path class="st29" d="M62.68,35.44c0,0,0.07,2.17,0.03,2.72c-0.04,0.55-0.06,1.08-0.4,1.32"/>
	<path class="st24" d="M58.85,35.44c0.07,0.09,0.26,0.05,0.42-0.08c0.16-0.13,0.24-0.3,0.17-0.39c-0.07-0.09-0.26-0.05-0.42,0.08
		C58.85,35.17,58.78,35.35,58.85,35.44"/>
	<path class="st24" d="M59.79,35.47c0.06,0.07,0.28-0.01,0.49-0.18c0.21-0.17,0.34-0.37,0.28-0.44c-0.06-0.07-0.28,0.01-0.49,0.18
		C59.86,35.2,59.73,35.4,59.79,35.47"/>
	<path class="st24" d="M62.06,34.72c0.07,0.08,0.22,0.07,0.33-0.02c0.12-0.09,0.16-0.24,0.09-0.32c-0.07-0.08-0.22-0.08-0.33,0.02
		C62.03,34.49,61.99,34.64,62.06,34.72"/>
	<path class="st25" d="M61.67,35.38c0.05,0.06,0.22,0.02,0.37-0.1c0.15-0.12,0.23-0.27,0.18-0.34c-0.05-0.06-0.21-0.02-0.37,0.1
		C61.7,35.17,61.62,35.32,61.67,35.38"/>
	<path class="st24" d="M62.4,35.59c0.05,0.06,0.2,0.01,0.34-0.1c0.14-0.11,0.22-0.25,0.17-0.31c-0.05-0.06-0.2-0.01-0.34,0.1
		C62.43,35.4,62.35,35.54,62.4,35.59"/>
	<path class="st24" d="M61.63,36.44c0.06,0.07,0.18,0.06,0.28-0.03c0.1-0.08,0.14-0.21,0.09-0.27c-0.06-0.07-0.18-0.06-0.29,0.03
		S61.58,36.37,61.63,36.44"/>
	<path class="st25" d="M60.12,36.87c0.07,0.09,0.23,0.08,0.34-0.02c0.12-0.1,0.16-0.25,0.09-0.33c-0.07-0.09-0.23-0.08-0.35,0.01
		C60.09,36.63,60.05,36.78,60.12,36.87"/>
	<path class="st31" d="M59.24,38.62c-0.09,0.37-0.18,0.89,0.12,0.99c0.3,0.1,0.43,0.11,0.52-0.45c0.1-0.56-0.25-2.64-0.97-3.77"/>
	<path class="st31" d="M59.86,39.61c0.14,0.18,0.76,0.52,0.92-0.13c0.16-0.65-0.46-2.25-0.65-2.46"/>
	<path class="st31" d="M59.89,35.51c0,0,1.5,2.9,1.51,3.25c0.01,0.35,0.24,1.34-0.52,1.22"/>
	<path class="st31" d="M61.66,36.56c0,0,0.58,2.22,0.51,2.49c-0.06,0.27-0.11,0.91-0.56,0.96"/>
	<path class="st31" d="M62.12,34.86c0,0,0.44,2.8,0.18,3.04c-0.26,0.24-0.37,0.33-0.64,0.42c-0.27,0.09-0.65,0.21-0.81,0.39"/>
	<path class="st31" d="M61.74,35.42c0,0,1.12,1.66,1.14,2.13c0.02,0.47-0.16,0.82-0.72,1.2"/>
	<path class="st31" d="M62.43,35.7c0,0,0.07,2.17,0.03,2.72c-0.04,0.55-0.06,1.08-0.4,1.32"/>
	<path class="st25" d="M58.59,35.69c0.07,0.09,0.26,0.05,0.42-0.08c0.16-0.13,0.24-0.3,0.17-0.39c-0.07-0.09-0.26-0.05-0.42,0.08
		C58.6,35.43,58.52,35.6,58.59,35.69"/>
	<path class="st25" d="M59.53,35.72c0.06,0.07,0.28-0.01,0.49-0.18c0.21-0.17,0.34-0.37,0.28-0.44c-0.06-0.07-0.28,0.01-0.49,0.18
		C59.6,35.46,59.47,35.65,59.53,35.72"/>
	<path class="st25" d="M61.8,34.98c0.07,0.08,0.22,0.07,0.33-0.02c0.12-0.09,0.16-0.24,0.09-0.32c-0.07-0.08-0.22-0.07-0.33,0.02
		C61.77,34.75,61.73,34.89,61.8,34.98"/>
	<path class="st25" d="M61.42,35.64c0.05,0.06,0.22,0.02,0.37-0.1c0.15-0.12,0.23-0.27,0.18-0.34c-0.05-0.06-0.21-0.02-0.37,0.1
		C61.45,35.42,61.37,35.57,61.42,35.64"/>
	<path class="st25" d="M62.14,35.85c0.05,0.06,0.2,0.01,0.34-0.1c0.14-0.11,0.22-0.25,0.17-0.31c-0.05-0.06-0.2-0.01-0.34,0.1
		C62.17,35.65,62.09,35.79,62.14,35.85"/>
	<path class="st25" d="M61.38,36.7c0.06,0.07,0.18,0.06,0.28-0.03c0.1-0.08,0.14-0.2,0.09-0.27c-0.06-0.07-0.18-0.06-0.29,0.03
		C61.36,36.51,61.32,36.63,61.38,36.7"/>
	<path class="st25" d="M59.87,37.12c0.07,0.09,0.23,0.08,0.34-0.01c0.12-0.1,0.16-0.25,0.09-0.33c-0.07-0.09-0.23-0.08-0.35,0.01
		C59.83,36.88,59.8,37.03,59.87,37.12"/>
	<path class="st29" d="M59,38.86c-0.09,0.37-0.18,0.89,0.12,0.99c0.3,0.1,0.43,0.11,0.52-0.45c0.1-0.56-0.25-2.64-0.97-3.77"/>
	<path class="st29" d="M59.63,39.85c0.14,0.18,0.76,0.52,0.92-0.13c0.16-0.65-0.46-2.25-0.65-2.46"/>
	<path class="st29" d="M59.65,35.75c0,0,1.5,2.9,1.51,3.25c0.01,0.35,0.24,1.34-0.52,1.22"/>
	<path class="st29" d="M61.42,36.8c0,0,0.58,2.22,0.51,2.49c-0.06,0.27-0.11,0.91-0.56,0.96"/>
	<path class="st30" d="M61.88,35.1c0,0,0.44,2.8,0.18,3.04c-0.26,0.24-0.37,0.33-0.64,0.42c-0.27,0.09-0.65,0.21-0.81,0.39"/>
	<path class="st31" d="M61.5,35.67c0,0,1.12,1.66,1.14,2.13c0.02,0.47-0.16,0.82-0.72,1.2"/>
	<path class="st31" d="M62.19,35.94c0,0,0.07,2.17,0.03,2.72c-0.04,0.55-0.06,1.08-0.4,1.32"/>
	<path class="st24" d="M58.35,35.93c0.07,0.09,0.26,0.05,0.42-0.08c0.16-0.13,0.24-0.3,0.17-0.39c-0.07-0.09-0.26-0.05-0.42,0.08
		C58.36,35.67,58.28,35.85,58.35,35.93"/>
	<path class="st24" d="M59.29,35.97c0.06,0.07,0.28-0.01,0.49-0.18c0.21-0.17,0.34-0.37,0.28-0.44c-0.06-0.07-0.27,0.01-0.49,0.18
		C59.36,35.7,59.24,35.9,59.29,35.97"/>
	<path class="st24" d="M61.56,35.22c0.07,0.08,0.22,0.07,0.33-0.02c0.12-0.09,0.16-0.24,0.09-0.32c-0.07-0.08-0.22-0.07-0.33,0.02
		C61.53,34.99,61.49,35.13,61.56,35.22"/>
	<path class="st24" d="M61.18,35.88c0.05,0.06,0.21,0.02,0.37-0.1c0.15-0.12,0.23-0.27,0.18-0.34c-0.05-0.06-0.22-0.02-0.37,0.1
		C61.21,35.66,61.13,35.82,61.18,35.88"/>
	<path class="st25" d="M61.9,36.09c0.05,0.06,0.2,0.01,0.34-0.1c0.14-0.11,0.22-0.25,0.17-0.31c-0.05-0.06-0.2-0.01-0.34,0.1
		C61.93,35.9,61.85,36.03,61.9,36.09"/>
	<path class="st24" d="M61.14,36.94c0.05,0.07,0.18,0.06,0.28-0.03c0.1-0.08,0.14-0.2,0.09-0.27c-0.06-0.07-0.18-0.06-0.29,0.03
		C61.12,36.75,61.08,36.87,61.14,36.94"/>
	<path class="st25" d="M59.63,37.36c0.07,0.09,0.23,0.08,0.35-0.01c0.12-0.1,0.16-0.25,0.09-0.33c-0.07-0.09-0.23-0.08-0.34,0.01
		C59.6,37.13,59.56,37.28,59.63,37.36"/>
	<path class="st32" d="M59.42,37.89c-0.09,0.37-0.18,0.89,0.12,0.99c0.3,0.1,0.43,0.11,0.52-0.45c0.1-0.56-0.25-2.64-0.97-3.77"/>
	<path class="st32" d="M60.04,38.87c0.14,0.18,0.76,0.52,0.92-0.13c0.16-0.65-0.46-2.25-0.65-2.46"/>
	<path class="st32" d="M60.06,34.78c0,0,1.5,2.9,1.51,3.25c0.01,0.34,0.24,1.34-0.52,1.22"/>
	<path class="st32" d="M61.84,35.83c0,0,0.58,2.22,0.51,2.49c-0.06,0.27-0.11,0.91-0.56,0.96"/>
	<path class="st32" d="M62.3,34.12c0,0,0.44,2.8,0.18,3.04c-0.26,0.24-0.37,0.33-0.64,0.42c-0.27,0.09-0.65,0.21-0.81,0.39"/>
	<path class="st32" d="M61.92,34.69c0,0,1.12,1.66,1.14,2.13c0.02,0.47-0.16,0.82-0.72,1.2"/>
	<path class="st32" d="M62.6,34.96c0,0,0.07,2.17,0.03,2.72c-0.04,0.55-0.06,1.08-0.4,1.32"/>
	<path class="st27" d="M58.76,34.96c0.07,0.09,0.26,0.05,0.42-0.08c0.16-0.13,0.24-0.3,0.17-0.39c-0.07-0.09-0.26-0.05-0.42,0.08
		C58.77,34.7,58.7,34.87,58.76,34.96"/>
	<path class="st27" d="M59.71,34.99c0.06,0.07,0.28-0.01,0.49-0.18c0.21-0.17,0.34-0.37,0.28-0.44c-0.06-0.07-0.27,0.01-0.49,0.18
		C59.78,34.73,59.65,34.92,59.71,34.99"/>
	<path class="st27" d="M61.97,34.24c0.07,0.08,0.22,0.07,0.33-0.02c0.12-0.09,0.16-0.24,0.09-0.32c-0.07-0.08-0.22-0.08-0.33,0.02
		C61.95,34.02,61.91,34.16,61.97,34.24"/>
	<path class="st27" d="M61.59,34.91c0.05,0.06,0.21,0.02,0.37-0.1c0.15-0.12,0.23-0.27,0.18-0.34c-0.05-0.06-0.22-0.02-0.37,0.1
		C61.62,34.69,61.54,34.84,61.59,34.91"/>
	<path class="st27" d="M62.31,35.12c0.05,0.06,0.2,0.01,0.34-0.1c0.14-0.11,0.22-0.25,0.17-0.31c-0.05-0.06-0.2-0.01-0.34,0.1
		C62.35,34.92,62.27,35.06,62.31,35.12"/>
	<path class="st27" d="M61.55,35.96c0.05,0.07,0.18,0.06,0.28-0.03c0.1-0.08,0.14-0.2,0.09-0.27c-0.06-0.07-0.18-0.06-0.29,0.03
		C61.54,35.78,61.5,35.9,61.55,35.96"/>
	<path class="st27" d="M60.04,36.39c0.07,0.09,0.23,0.08,0.35-0.01c0.12-0.1,0.16-0.25,0.09-0.33c-0.07-0.09-0.23-0.08-0.34,0.01
		C60.01,36.15,59.97,36.3,60.04,36.39"/>
	<path class="st32" d="M59.2,38.66c-0.09,0.37-0.18,0.89,0.12,0.99c0.3,0.1,0.43,0.11,0.52-0.45c0.1-0.56-0.25-2.64-0.97-3.77"/>
	<path class="st32" d="M59.82,39.64c0.14,0.18,0.76,0.52,0.92-0.13c0.16-0.65-0.46-2.25-0.65-2.46"/>
	<path class="st32" d="M59.84,35.54c0,0,1.5,2.91,1.51,3.25c0.01,0.34,0.24,1.34-0.52,1.22"/>
	<path class="st32" d="M61.62,36.6c0,0,0.58,2.22,0.51,2.49c-0.06,0.27-0.11,0.91-0.56,0.96"/>
	<path class="st32" d="M62.08,34.89c0,0,0.44,2.8,0.18,3.04c-0.26,0.24-0.37,0.33-0.64,0.42c-0.27,0.09-0.65,0.21-0.81,0.39"/>
	<path class="st32" d="M61.7,35.46c0,0,1.12,1.66,1.14,2.13c0.02,0.47-0.16,0.82-0.72,1.2"/>
	<path class="st32" d="M62.38,35.73c0,0,0.08,2.17,0.03,2.72c-0.04,0.55-0.06,1.08-0.4,1.32"/>
	<path class="st27" d="M58.55,35.73c0.07,0.09,0.26,0.05,0.42-0.08c0.16-0.13,0.24-0.3,0.17-0.39c-0.07-0.09-0.26-0.05-0.42,0.08
		C58.55,35.47,58.48,35.64,58.55,35.73"/>
	<path class="st27" d="M59.49,35.76c0.06,0.07,0.28-0.01,0.49-0.18c0.21-0.17,0.34-0.37,0.28-0.44c-0.06-0.07-0.28,0.01-0.49,0.18
		C59.56,35.49,59.43,35.69,59.49,35.76"/>
	<path class="st27" d="M61.75,35.01c0.07,0.08,0.22,0.07,0.33-0.02c0.12-0.09,0.16-0.24,0.09-0.32c-0.07-0.08-0.22-0.08-0.33,0.02
		C61.73,34.79,61.69,34.93,61.75,35.01"/>
	<path class="st27" d="M61.37,35.67c0.05,0.06,0.22,0.02,0.37-0.1c0.15-0.12,0.23-0.27,0.18-0.34c-0.05-0.06-0.22-0.02-0.37,0.1
		C61.4,35.46,61.32,35.61,61.37,35.67"/>
	<path class="st28" d="M62.09,35.89c0.05,0.06,0.2,0.01,0.34-0.1c0.14-0.11,0.22-0.25,0.17-0.31c-0.05-0.06-0.2-0.01-0.34,0.1
		C62.13,35.69,62.05,35.83,62.09,35.89"/>
	<path class="st27" d="M61.33,36.73c0.06,0.07,0.18,0.06,0.28-0.03c0.1-0.08,0.14-0.21,0.09-0.27c-0.06-0.07-0.18-0.06-0.29,0.03
		C61.32,36.54,61.28,36.67,61.33,36.73"/>
	<path class="st27" d="M59.82,37.16c0.07,0.09,0.23,0.08,0.34-0.02c0.12-0.1,0.16-0.25,0.09-0.33c-0.07-0.09-0.23-0.08-0.35,0.01
		C59.79,36.92,59.75,37.07,59.82,37.16"/>
	<path class="st12" d="M37.33,43.24c1.69,0.66,3.45,2.24,3.71,3.68c0.26,1.44,0.08,4.59-1.23,7.05c-1.31,2.47-3.49,4.37-3.78,4.47
		c-0.29,0.1-2.51,0.03-2.51,0.03l-0.07-1.39c0,0,1.22-3.91,1.87-5.66c0.64-1.75,1.15-5.92,1.11-6.36c-0.03-0.45,0.1-0.62,0.01-0.87
		c-0.09-0.26-0.17-0.59-0.09-0.71C36.41,43.35,37.33,43.24,37.33,43.24"/>
	<path class="st13" d="M42.53,60.95c0.15,0.04,2.6,1.91,2.87,2.16c0.27,0.25,1.59,1.76,1.62,1.86c0.02,0.1,0.07,0.47,0.22,0.96
		c0.15,0.49,0.28,0.91,0.09,1.31c-0.19,0.39-0.38,0.93-0.7,1.35c-0.32,0.42-0.77,0.6-1.03,0.66c-0.27,0.06-1-0.08-1-0.08l-2.02-1.03
		c0,0-1.79-0.77-2.01-1.14c-0.22-0.37-2.59-2.93-2.59-2.93l-2.15-2.19l-0.13-1.64L37.94,58l2.36,0.5L42.53,60.95z"/>
	<path class="st14" d="M51.56,55.98c0.29,0.84-0.9,3.24-3.57,4.55c-2.67,1.31-8.36,2.46-11.49,1.11c-3.13-1.35-3.7-2.23-3.7-2.23
		s2.66-3.64,4.03-4.65c1.36-1.01,7.38-3.03,9.74-2.46C48.93,52.87,51.24,55.05,51.56,55.98"/>
	<path class="st15" d="M34.51,60.95c0,0-2.15,2.49-3.31,3.49c-1.16,1-5.95,3.26-7.36,3.2c-1.41-0.06-2.65-0.44-3-0.91
		c-0.35-0.48-0.48-1.01-0.58-1.47c-0.11-0.46-0.03-0.87,0.26-1.28c0.29-0.42,1.96-1.05,2.59-1.47c0.63-0.43,4.82-1.95,5.2-2.28
		c0.38-0.33,1.35-0.8,1.8-0.8c0.45,0,2.07-0.76,2.55-0.62c0.48,0.15,1.12,0.85,1.12,0.85L34.51,60.95z"/>
	<path class="st16" d="M36.68,58.29c0,0,2.53,3.53,3.21,5.12c0.68,1.59,1.24,2.5,0.84,5.91c-0.4,3.41-1.65,5.69-2.31,6.64
		c-0.65,0.95-2.66,2.39-3,2.72c-0.34,0.32-0.7,0.44-0.99,0.23c-0.29-0.21-1.05-1.51-1.56-2.5c-0.51-0.99-1.65-5.2-1.7-5.71
		c-0.05-0.51-0.52-4.21-0.44-4.92c0.08-0.72,0.77-3.3,0.77-3.3l0.95-2.37l1.17-1.1c0,0,0.39-0.6,0.89-0.71
		C35.02,58.18,36.68,58.29,36.68,58.29"/>
	<path class="st17" d="M35.02,58.18c0,0,1.32-2.75,1.15-4.09c-0.17-1.34-2.12-4.06-2.88-4.62c-0.76-0.56-4.81-1.93-5.52-2.28
		c-0.71-0.36-2.34-0.02-2.98-0.05c-0.63-0.03-1.14,0.05-0.99,0.68c0.15,0.63,0.45,1.33,0.49,2.12c0.04,0.79,0.37,1.59,0.6,2.62
		c0.24,1.03,1.97,3.98,2.35,4.41c0.38,0.44,1.31,1.13,1.48,1.58c0.17,0.45,0.31,0.9,0.4,0.99c0.09,0.08,0.27,0.56,0.97,0.72
		c0.7,0.15,2.03,0.48,2.56,0.21C33.19,60.21,35.02,58.18,35.02,58.18"/>
	<path class="st18" d="M49.35,55.93c0,0-5.74,1.84-6.31,1.94c-0.57,0.1-0.71-0.02-1.11,0.02c-0.4,0.04-2.1,0.21-2.34,0.54
		c-0.24,0.33,1.19,0.34,1.19,0.34s1.95-0.78,2.32-0.31c0.37,0.47,0.33,0.15,0.62,1.38c0.28,1.23,0.51,1.89,0.51,1.89l-2.08,0.48
		c0,0-1.13,0.08-1.37,0.32c-0.24,0.24,0.64,0.19,1.17,0.25c0.53,0.06,1.43,0.08,2,0.62c0.57,0.54,1.24,1.35,1.28,1.52
		c0.04,0.18-0.74,0.17-0.74,0.17l-1.88-0.9c0,0-0.34-0.66-0.89-0.57c-0.55,0.09-1.23-0.12-0.45,0.4c0.79,0.52,2.39,1.35,2.39,1.35
		s0.88,1.09,0.7,1.43c-0.18,0.34-1.48,0.04-1.48,0.04l-1.16-1.14l-1.04-0.5l0.55,1.1l1.11,1.27c0,0-0.72,0.24-1.22-0.46
		c-0.5-0.7-1.03-2.03-1.52-1.62c-0.5,0.41-0.39,0.39-0.63,0.63c-0.24,0.24-0.53,0.42-0.81-0.11c-0.27-0.53-0.29-1.57-0.6-0.68
		c-0.31,0.89-0.18,1.23-0.22,1.72c-0.04,0.49-0.02,1.38-0.48,0.7c-0.45-0.68-0.48-0.63-0.68-1.33c-0.2-0.7,0.22,0.95,0.22,0.95
		l0.13,2.5c0,0-0.29,1.26-0.23,1.46c0.06,0.21,0.29,0.9,0.06,0.21c-0.23-0.69-0.33-2.89-0.33-2.89s-0.25-2.21-0.39-2.66
		c-0.14-0.45-0.33-1.74-0.61-1.35c-0.28,0.4-0.19,0.9-0.05,1.46c0.14,0.56,0.49,3.68,0.49,3.68s0,3.05-0.16,3.82
		c-0.15,0.78-0.61,1.7-0.61,1.7l-0.2-1.66l0.41-4.66c0,0-0.76-4.24-0.82-4.53c-0.06-0.28-0.01-1-0.3-1.31
		c-0.29-0.3-1.2,0.09-1.2,0.09l-0.76,1.85l0.18,1.89l-0.18,3.24l0.24,1.99l-0.36-0.77l-0.19-2.26l-0.2-2.33l0.18-3.09
		c0,0,0.77-0.85,0.5-1.23c-0.27-0.38-0.3-0.67-0.77-0.6c-0.47,0.07-0.77,0.21-0.77,0.21l-0.35-0.22l0.84-0.53l-0.35-0.4l-0.74,0.36
		l-0.66,0.34c0,0-0.09-0.54,0.5-0.71c0.59-0.17,0.95-0.22,0.95-0.22l-0.11-0.46c0,0-0.57,0.24-0.56-0.02
		c0.01-0.26,0.48-0.33,0.48-0.33l0.51-0.38c0,0-0.46-0.08-0.1-0.42c0.37-0.34,0.7-0.35,0.7-0.35l0.58-1.03l-1.46-1.48l-3.03-3.31
		l-1.83-2.14l-0.58-1.24l0.35-0.27l2.4,3.01c0,0,2.75,2.89,3.51,3.94c0.76,1.05,1.57,1.05,1.57,1.05l0.64-0.82l-2.07-4.13
		l-1.61-2.15l3.13,1.8l1.9,2.42l0.82,0.47c0,0,0.64-2.04,0.75-2.88c0.1-0.84,0.32-4.09,0.32-4.09l0.15-2.41l0.48,0.97l-0.17,4.24
		l-0.26,3.07l0.91-0.1l1.11-2.04l0.24-2.73l0.53,1.51l-0.72,3.47l1.01,1.33c0,0,2.05-0.95,2.92-0.53c0.88,0.43,1.04,0.58,0.48,1.15
		c-0.56,0.58-0.44,1.1-0.44,1.1l1.59-0.18c0,0,1.5-0.27,1.61-0.26C46.48,56.55,48.78,56.06,49.35,55.93"/>
	<path class="st19" d="M38.44,63.55c-0.03,0.19-1.34-0.59-2.02-0.34c-0.68,0.25-1.19,0.27-1.19,0.27s-0.82-0.52-1.48-0.78
		c-0.66-0.26-0.84-0.15-1.1-0.46c-0.26-0.32-0.49-0.9-0.49-0.9l0.05-1.25l0.46-1.33c0,0,1.31-1.49,1.97-1.79
		c0.66-0.3,1.08-0.87,1.08-0.87l0.43-0.34l2.37-0.55l0.05,1l1.74,0.33c0,0,0.79,0.34,0.79,1.87c-0.01,1.52,0.07,1.86,0.01,2.5
		c-0.06,0.63-0.01,0.7-0.38,0.95c-0.37,0.26-0.62,0.65-0.62,0.65l0.32,0.98l-0.89,0.07L39,64.16c0,0,0.16,0.15,0.08,0.34
		c-0.08,0.19-0.66,0.27-0.66,0.27"/>
	<path class="st20" d="M37.23,61.85c-0.04,0.07-0.05,0.16-0.05,0.26c0,0.28,0.06,0.56-0.63,0.29c-0.92-0.37-1.59-0.36-1.78-0.75
		c-0.19-0.39-0.12-0.74-0.32-1.38c-0.19-0.63-0.07-1.77-0.07-1.77l1.19-0.86c0,0,0.79-0.23,1.37-0.02c0.58,0.21,0.8-0.09,0.8,0.64
		c0,0.73-0.19,0.94-0.02,1.49c0.18,0.55,0.13,1.19,0.13,1.19l-0.68,0.4"/>
	<path class="st33" d="M36.82,58.32c-0.28-0.23-0.69-0.53-0.91-0.31c-0.21,0.22-0.27,0.32,0.17,0.64c0.44,0.31,2.38,0.89,3.65,0.74"
		/>
	<path class="st34" d="M35.71,58.45c-0.21,0.05-0.77,0.44-0.27,0.85c0.5,0.41,2.13,0.54,2.39,0.47"/>
	<path class="st33" d="M39.24,60.18c0,0-3.13,0.08-3.44-0.05c-0.3-0.13-1.26-0.35-0.84-0.96"/>
	<path class="st35" d="M37.59,61.27c0,0-2.16-0.43-2.36-0.6c-0.21-0.17-0.74-0.47-0.6-0.89"/>
	<path class="st35" d="M38.86,62.38c0,0-2.6-0.79-2.69-1.11c-0.1-0.33-0.13-0.46-0.09-0.73c0.03-0.27,0.09-0.65,0-0.86"/>
	<path class="st33" d="M38.54,61.81c0,0-1.9,0.27-2.31,0.1c-0.41-0.18-0.64-0.48-0.73-1.13"/>
	<path class="st33" d="M38.01,62.29c0,0-1.91-0.84-2.36-1.11c-0.45-0.26-0.9-0.5-0.97-0.89"/>
	<path class="st24" d="M39.62,58.98c-0.1,0.02-0.15,0.2-0.11,0.39c0.04,0.19,0.16,0.33,0.27,0.31c0.1-0.02,0.15-0.2,0.11-0.39
		C39.84,59.1,39.72,58.96,39.62,58.98"/>
	<path class="st24" d="M39.2,59.78c-0.08,0.02-0.1,0.24-0.05,0.5c0.06,0.26,0.18,0.45,0.26,0.43c0.08-0.02,0.1-0.24,0.05-0.5
		C39.4,59.95,39.28,59.76,39.2,59.78"/>
	<path class="st24" d="M38.9,62.05c-0.1,0.02-0.15,0.15-0.12,0.3c0.03,0.14,0.14,0.24,0.24,0.21c0.1-0.02,0.15-0.15,0.12-0.29
		C39.1,62.12,39,62.03,38.9,62.05"/>
	<path class="st25" d="M38.49,61.44c-0.08,0.02-0.1,0.18-0.06,0.36c0.04,0.18,0.14,0.31,0.21,0.29c0.08-0.02,0.11-0.18,0.06-0.36
		C38.66,61.56,38.56,61.43,38.49,61.44"/>
	<path class="st24" d="M38,61.98c-0.07,0.02-0.09,0.17-0.05,0.34c0.04,0.17,0.13,0.29,0.19,0.28c0.07-0.02,0.09-0.17,0.05-0.34
		C38.16,62.09,38.07,61.96,38,61.98"/>
	<path class="st24" d="M37.59,60.97c-0.08,0.02-0.12,0.13-0.1,0.26c0.03,0.12,0.12,0.21,0.2,0.19c0.08-0.02,0.12-0.13,0.1-0.26
		C37.76,61.03,37.67,60.95,37.59,60.97"/>
	<path class="st25" d="M37.85,59.49c-0.11,0.02-0.16,0.16-0.13,0.3c0.03,0.14,0.15,0.24,0.25,0.22c0.11-0.02,0.17-0.16,0.13-0.3
		C38.07,59.56,37.96,59.46,37.85,59.49"/>
	<path class="st35" d="M36.71,57.99c-0.28-0.23-0.69-0.53-0.91-0.31c-0.21,0.22-0.27,0.32,0.17,0.64c0.44,0.31,2.38,0.89,3.65,0.74"
		/>
	<path class="st35" d="M35.6,58.12c-0.21,0.05-0.77,0.44-0.27,0.85c0.5,0.41,2.13,0.54,2.39,0.47"/>
	<path class="st35" d="M39.12,59.85c0,0-3.13,0.08-3.44-0.05c-0.3-0.13-1.26-0.35-0.84-0.96"/>
	<path class="st35" d="M37.47,60.94c0,0-2.16-0.43-2.36-0.6c-0.21-0.17-0.74-0.47-0.6-0.89"/>
	<path class="st35" d="M38.75,62.05c0,0-2.6-0.79-2.69-1.11c-0.1-0.33-0.13-0.46-0.09-0.73c0.03-0.27,0.09-0.65,0-0.86"/>
	<path class="st35" d="M38.42,61.49c0,0-1.9,0.27-2.31,0.09c-0.41-0.18-0.64-0.48-0.73-1.12"/>
	<path class="st35" d="M37.9,61.96c0,0-1.91-0.84-2.36-1.11c-0.45-0.26-0.9-0.5-0.97-0.89"/>
	<path class="st25" d="M39.51,58.65c-0.1,0.02-0.15,0.2-0.11,0.39c0.04,0.19,0.16,0.33,0.27,0.31c0.1-0.02,0.15-0.2,0.11-0.39
		C39.73,58.77,39.61,58.63,39.51,58.65"/>
	<path class="st25" d="M39.09,59.45c-0.08,0.02-0.1,0.24-0.04,0.5c0.06,0.26,0.17,0.45,0.26,0.43c0.08-0.02,0.1-0.24,0.04-0.5
		C39.29,59.63,39.17,59.43,39.09,59.45"/>
	<path class="st25" d="M38.78,61.72c-0.1,0.02-0.15,0.16-0.12,0.3c0.03,0.14,0.14,0.23,0.24,0.21c0.1-0.02,0.15-0.16,0.12-0.3
		C38.99,61.79,38.88,61.7,38.78,61.72"/>
	<path class="st25" d="M38.37,61.12c-0.08,0.02-0.1,0.18-0.06,0.36c0.04,0.18,0.14,0.31,0.21,0.3c0.08-0.02,0.1-0.18,0.06-0.36
		C38.54,61.23,38.45,61.1,38.37,61.12"/>
	<path class="st25" d="M37.89,61.65c-0.07,0.02-0.09,0.17-0.05,0.34c0.04,0.17,0.13,0.29,0.19,0.28c0.07-0.02,0.09-0.17,0.05-0.34
		C38.04,61.76,37.96,61.64,37.89,61.65"/>
	<path class="st25" d="M37.47,60.64c-0.08,0.02-0.12,0.13-0.1,0.26s0.12,0.21,0.2,0.19c0.08-0.02,0.12-0.13,0.1-0.26
		C37.64,60.71,37.56,60.62,37.47,60.64"/>
	<path class="st25" d="M37.74,59.16c-0.11,0.02-0.17,0.16-0.13,0.3c0.03,0.14,0.15,0.24,0.25,0.22c0.11-0.02,0.17-0.16,0.13-0.3
		S37.84,59.13,37.74,59.16"/>
	<path class="st33" d="M36.6,57.69c-0.28-0.23-0.69-0.53-0.9-0.31c-0.21,0.21-0.27,0.32,0.17,0.64c0.44,0.31,2.38,0.89,3.65,0.74"/>
	<path class="st33" d="M35.49,57.81c-0.21,0.05-0.77,0.44-0.27,0.85c0.5,0.41,2.13,0.54,2.39,0.47"/>
	<path class="st33" d="M39.01,59.54c0,0-3.13,0.08-3.44-0.05c-0.3-0.13-1.26-0.35-0.84-0.96"/>
	<path class="st33" d="M37.36,60.64c0,0-2.16-0.43-2.36-0.6c-0.2-0.17-0.74-0.47-0.6-0.89"/>
	<path class="st34" d="M38.64,61.74c0,0-2.6-0.79-2.7-1.11c-0.1-0.33-0.12-0.46-0.09-0.73c0.03-0.27,0.09-0.65,0-0.86"/>
	<path class="st35" d="M38.31,61.18c0,0-1.9,0.27-2.31,0.09c-0.41-0.18-0.64-0.48-0.73-1.12"/>
	<path class="st35" d="M37.79,61.66c0,0-1.91-0.84-2.36-1.11c-0.45-0.26-0.9-0.51-0.97-0.89"/>
	<path class="st24" d="M39.4,58.35c-0.1,0.02-0.15,0.2-0.11,0.39c0.04,0.19,0.16,0.33,0.27,0.31c0.1-0.02,0.15-0.2,0.11-0.39
		C39.62,58.46,39.5,58.32,39.4,58.35"/>
	<path class="st24" d="M38.98,59.15c-0.08,0.02-0.1,0.24-0.05,0.5c0.06,0.26,0.18,0.45,0.26,0.43c0.08-0.02,0.1-0.24,0.05-0.5
		C39.18,59.32,39.06,59.13,38.98,59.15"/>
	<path class="st24" d="M38.67,61.41c-0.1,0.02-0.15,0.16-0.12,0.3c0.03,0.14,0.14,0.24,0.24,0.21c0.1-0.02,0.15-0.16,0.12-0.3
		C38.88,61.49,38.77,61.39,38.67,61.41"/>
	<path class="st24" d="M38.26,60.81c-0.08,0.02-0.1,0.18-0.06,0.36c0.04,0.18,0.14,0.31,0.21,0.29c0.08-0.02,0.1-0.18,0.06-0.36
		C38.44,60.92,38.34,60.79,38.26,60.81"/>
	<path class="st25" d="M37.78,61.34c-0.07,0.02-0.09,0.17-0.05,0.34c0.04,0.17,0.13,0.29,0.19,0.28c0.07-0.02,0.09-0.17,0.05-0.33
		C37.93,61.45,37.85,61.33,37.78,61.34"/>
	<path class="st24" d="M37.37,60.33c-0.08,0.02-0.12,0.13-0.1,0.26c0.03,0.12,0.12,0.21,0.2,0.19c0.08-0.02,0.12-0.13,0.1-0.26
		C37.54,60.4,37.45,60.31,37.37,60.33"/>
	<path class="st25" d="M37.63,58.85c-0.11,0.02-0.17,0.16-0.13,0.3c0.03,0.14,0.15,0.24,0.25,0.22c0.11-0.02,0.17-0.16,0.13-0.3
		C37.85,58.92,37.74,58.83,37.63,58.85"/>
	<path class="st36" d="M37.27,58.45c-0.28-0.23-0.69-0.53-0.91-0.31c-0.21,0.22-0.27,0.32,0.17,0.64c0.44,0.31,2.38,0.89,3.65,0.74"
		/>
	<path class="st36" d="M36.15,58.57c-0.21,0.05-0.77,0.44-0.27,0.85c0.5,0.41,2.13,0.54,2.39,0.47"/>
	<path class="st36" d="M39.68,60.31c0,0-3.13,0.08-3.44-0.05c-0.3-0.13-1.26-0.35-0.84-0.96"/>
	<path class="st36" d="M38.03,61.4c0,0-2.16-0.43-2.36-0.6c-0.21-0.17-0.74-0.47-0.6-0.88"/>
	<path class="st36" d="M39.31,62.51c0,0-2.6-0.79-2.69-1.11c-0.1-0.33-0.13-0.46-0.09-0.73c0.03-0.27,0.09-0.65,0-0.86"/>
	<path class="st36" d="M38.98,61.94c0,0-1.9,0.27-2.31,0.09c-0.41-0.18-0.64-0.48-0.73-1.12"/>
	<path class="st36" d="M38.46,62.42c0,0-1.91-0.84-2.36-1.11c-0.45-0.26-0.9-0.5-0.97-0.89"/>
	<path class="st27" d="M40.07,59.11c-0.1,0.02-0.15,0.2-0.11,0.39c0.04,0.19,0.16,0.33,0.27,0.31c0.1-0.02,0.15-0.2,0.11-0.39
		C40.29,59.22,40.17,59.09,40.07,59.11"/>
	<path class="st27" d="M39.64,59.91c-0.08,0.02-0.1,0.24-0.05,0.5c0.06,0.26,0.18,0.45,0.26,0.43c0.08-0.02,0.1-0.24,0.05-0.5
		C39.84,60.08,39.73,59.89,39.64,59.91"/>
	<path class="st27" d="M39.34,62.18c-0.1,0.02-0.15,0.15-0.12,0.3c0.03,0.14,0.14,0.24,0.24,0.21c0.1-0.02,0.15-0.15,0.12-0.3
		C39.55,62.25,39.44,62.16,39.34,62.18"/>
	<path class="st27" d="M38.93,61.57c-0.08,0.02-0.1,0.18-0.06,0.36c0.04,0.18,0.14,0.31,0.21,0.29c0.08-0.02,0.1-0.18,0.06-0.36
		C39.1,61.69,39.01,61.55,38.93,61.57"/>
	<path class="st27" d="M38.45,62.11c-0.07,0.02-0.09,0.17-0.05,0.34c0.04,0.17,0.13,0.29,0.19,0.28c0.07-0.02,0.09-0.16,0.05-0.33
		C38.6,62.22,38.51,62.09,38.45,62.11"/>
	<path class="st27" d="M38.03,61.1c-0.08,0.02-0.12,0.13-0.1,0.26c0.03,0.12,0.12,0.21,0.2,0.19c0.08-0.02,0.12-0.13,0.1-0.26
		C38.2,61.16,38.11,61.08,38.03,61.1"/>
	<path class="st27" d="M38.3,59.61c-0.11,0.02-0.17,0.16-0.13,0.3c0.03,0.14,0.15,0.24,0.25,0.22c0.11-0.02,0.17-0.16,0.13-0.3
		C38.52,59.69,38.4,59.59,38.3,59.61"/>
	<path class="st36" d="M36.7,57.94c-0.28-0.23-0.69-0.53-0.91-0.31c-0.21,0.22-0.27,0.32,0.17,0.64c0.44,0.31,2.38,0.89,3.65,0.74"
		/>
	<path class="st36" d="M35.58,58.07c-0.21,0.05-0.77,0.44-0.27,0.85c0.5,0.41,2.13,0.54,2.39,0.47"/>
	<path class="st36" d="M39.11,59.8c0,0-3.13,0.08-3.44-0.05c-0.3-0.13-1.26-0.35-0.84-0.96"/>
	<path class="st36" d="M37.46,60.89c0,0-2.16-0.43-2.36-0.6c-0.21-0.17-0.74-0.47-0.6-0.89"/>
	<path class="st36" d="M38.74,62c0,0-2.6-0.79-2.69-1.11c-0.1-0.33-0.13-0.46-0.09-0.73c0.03-0.27,0.09-0.65,0-0.86"/>
	<path class="st36" d="M38.41,61.43c0,0-1.9,0.27-2.31,0.1c-0.41-0.18-0.64-0.48-0.73-1.13"/>
	<path class="st36" d="M37.89,61.91c0,0-1.91-0.84-2.36-1.11s-0.9-0.5-0.97-0.89"/>
	<path class="st27" d="M39.49,58.6c-0.1,0.02-0.15,0.2-0.11,0.39c0.04,0.19,0.16,0.33,0.27,0.31c0.1-0.02,0.15-0.2,0.11-0.39
		C39.72,58.71,39.6,58.58,39.49,58.6"/>
	<path class="st27" d="M39.07,59.4c-0.08,0.02-0.1,0.24-0.05,0.5c0.06,0.26,0.18,0.45,0.26,0.43c0.08-0.02,0.1-0.24,0.05-0.5
		C39.27,59.57,39.16,59.38,39.07,59.4"/>
	<path class="st27" d="M38.77,61.67c-0.1,0.02-0.15,0.15-0.12,0.3c0.03,0.14,0.14,0.24,0.24,0.21c0.1-0.02,0.15-0.15,0.12-0.3
		C38.98,61.74,38.87,61.65,38.77,61.67"/>
	<path class="st27" d="M38.36,61.06c-0.08,0.02-0.1,0.18-0.06,0.36c0.04,0.18,0.14,0.31,0.21,0.29c0.08-0.02,0.1-0.18,0.06-0.36
		C38.53,61.18,38.44,61.04,38.36,61.06"/>
	<path class="st28" d="M37.88,61.6c-0.07,0.02-0.09,0.17-0.05,0.34c0.04,0.17,0.13,0.29,0.19,0.28c0.07-0.02,0.09-0.17,0.05-0.34
		C38.03,61.71,37.94,61.58,37.88,61.6"/>
	<path class="st27" d="M37.46,60.59c-0.08,0.02-0.12,0.13-0.1,0.26c0.03,0.12,0.12,0.21,0.2,0.19c0.08-0.02,0.12-0.13,0.1-0.26
		C37.63,60.65,37.54,60.57,37.46,60.59"/>
	<path class="st27" d="M37.73,59.1c-0.11,0.02-0.17,0.16-0.13,0.3c0.03,0.14,0.15,0.24,0.25,0.22c0.11-0.02,0.17-0.16,0.13-0.3
		C37.94,59.18,37.83,59.08,37.73,59.1"/>
</g>
</svg>
