<svg id="Layer_1" data-name="Layer 1" xmlns="http://www.w3.org/2000/svg" viewBox="0 0 108 108">
  <defs>
    <style>
      .cls-1 {
        fill: #fff7ae;
      }

      .cls-2 {
        fill: #ddbb8a;
      }

      .cls-3 {
        fill: #3f0f33;
      }
    </style>
  </defs>
  <g>
    <path class="cls-1" d="M85.35,48.15c-6.23-5.15-17-3.72-17-3.72a40.72,40.72,0,0,0,6.82-14.62,10.69,10.69,0,0,1,3.91-6.19s-8.32-2.67-18.92,6a20.92,20.92,0,0,0-1.92,1.81v0S56,26,52.67,25.36,49,27,46.31,29.42s-6.66.94-8.49,2-.66,5.76-.66,5.76a15.1,15.1,0,0,0-4-1.88,10.4,10.4,0,0,0-9.44,2.83A8.43,8.43,0,0,1,19,40.22a7.17,7.17,0,0,0,2,8.65s-.11-4.78,2.78-7.13c4.18,1.47,10,3.92,13,6.84A9.73,9.73,0,0,0,39,50.17c.8.43-11.82,1.21-17.84,9s-2.6,16.76-1.71,16.55,7.13-12.26,11.75-12.24,12-2.79,12-2.79A15.78,15.78,0,0,0,46,69.23C50.1,74.58,59.86,85,62.42,85.77c1.84.57,3.38-18.14,1.71-29.07s2.77,1.41,9.8-1,17.4,7.7,17.4,7.7.23-10.06-6-15.21Z"/>
    <path class="cls-2" d="M23.93,41.76l-5.09-1.3s-.36,6,.86,7.3,1.58-3.83,4.23-6Z"/>
    <path class="cls-2" d="M43.13,51.61s-12.81,3.67-16.38,7.73-4.11,12-4.11,12,3.74-7.37,7.73-7.79,12.74-2.88,12.74-2.88.16-4.38,1.31-5.66A29.58,29.58,0,0,1,48.11,52Z"/>
    <path class="cls-2" d="M40.22,38.59s1.58-4.11,2.91-4.48,4.27.31,6-1.76a4.25,4.25,0,0,1,6.94.9l-2.2,16.46Z"/>
    <path class="cls-2" d="M51.79,51.22a106.39,106.39,0,0,1-11.35-6.68,53.39,53.39,0,0,0-8.15-4.87s5.74,5,6.88,7.81,6.09,5.08,9.41,4.84,3.21-1.1,3.21-1.1Z"/>
    <path class="cls-2" d="M53.46,52.33l9.31,33.3s2-5.86,2.06-9.9-.71-17.9-.78-19.47-1.71-7.92-4.9-7.37-5.69,3.44-5.69,3.44Z"/>
    <path class="cls-2" d="M90.88,62.94A20,20,0,0,0,74.13,47.6c-14.43-2.36-18.65,8.58-18.65,8.58l9.35.73a18.77,18.77,0,0,0,8.36-1c3.78-1.58,7.65.11,9.93,2a82,82,0,0,0,7.76,5.06Z"/>
    <path class="cls-2" d="M77.33,24.18s-12.73,6.6-16.72,14A39.37,39.37,0,0,0,56,51.2l9.33-3.33S71,42,72.35,37.68s3.91-10.6,3.91-10.6L78,24.17h-.69Z"/>
    <g>
      <path class="cls-3" d="M62.48,86.7a1.41,1.41,0,0,1-.35,0c-2.9-.89-12.94-11.71-16.84-16.87-2.81-3.7-4.31-10.35-1.87-14.63,1.21-2.12,3.86-4.48,9.68-3.93,1-1,4.29-3.88,7.75-3.06,1.5.36,2.62,1.94,3.43,4.84,2.5,9,1.49,31-.91,33.32a1.23,1.23,0,0,1-.89.38ZM51.46,53c-3.11,0-5.26,1-6.44,3.09-2,3.46-.66,9.43,1.75,12.62,4.09,5.4,12.77,14.52,15.5,16,1.35-3,2.82-23.26.07-31.84-.55-1.7-1.23-2.77-1.89-2.93-3-.71-6.26,2.81-6.29,2.85a.94.94,0,0,1-.8.3,16.4,16.4,0,0,0-1.9-.13Z"/>
      <path class="cls-3" d="M53.46,53.09a.93.93,0,0,1-.79-.45c-3.82-6.35-16-15.7-19.68-16.48a9.48,9.48,0,0,0-8.6,2.59,8,8,0,0,1-2.17,1.49c4.17,1.36,11.56,4.14,15.18,7.66,4.13,4,13,3.25,13.12,3.25A.92.92,0,0,1,50.7,53c-.41,0-9.84.86-14.57-3.77s-17.29-8.1-17.42-8.13a.92.92,0,0,1-.68-1,.94.94,0,0,1,.86-.83,7.49,7.49,0,0,0,4.2-1.86,11.42,11.42,0,0,1,10.29-3.07c4.56,1,17,10.8,20.87,17.34A.92.92,0,0,1,53.93,53a.83.83,0,0,1-.47.14Z"/>
      <path class="cls-3" d="M20.94,49.8a1,1,0,0,1-.55-.18,8.08,8.08,0,0,1-2.29-9.77.92.92,0,0,1,1.68.74,6.09,6.09,0,0,0,.42,6.15A9.3,9.3,0,0,1,23.12,41a.93.93,0,0,1,1.3.13.92.92,0,0,1-.13,1.29c-2.49,2-2.44,6.36-2.44,6.41a1,1,0,0,1-.5.84.92.92,0,0,1-.41.1Z"/>
      <path class="cls-3" d="M19.36,76.65a1.42,1.42,0,0,1-1.2-.82c-1.29-2-3.23-10.16,2.23-17.24,6.18-8,18-9.3,18.47-9.34a.89.89,0,0,1,1,.82.94.94,0,0,1-.82,1c-.12,0-11.52,1.28-17.21,8.65a15.43,15.43,0,0,0-2.41,14.59c.33-.46.73-1.06,1.1-1.62C24,67.58,27.64,62.57,31.13,62.57h.05c4.41,0,11.54-2.7,11.61-2.72a.92.92,0,0,1,.64,1.72c-.3.11-7.51,2.84-12.27,2.84h-.05c-2.81,0-7,6.29-9.08,9.33-1.54,2.28-1.88,2.77-2.46,2.9Z"/>
      <path class="cls-3" d="M37.14,38.06a.89.89,0,0,1-.88-.7c-.23-.91-1.2-5.45,1.09-6.78A7.5,7.5,0,0,1,40.78,30c1.75,0,3.58-.08,4.9-1.27a17.44,17.44,0,0,0,1.76-1.9c1.28-1.52,2.5-3,5.39-2.37,3.78.76,6.13,6.34,6.24,6.58a.9.9,0,0,1-.5,1.19.92.92,0,0,1-1.2-.5c-.56-1.36-2.55-5-4.9-5.48-1.84-.37-2.39.29-3.62,1.76a18.73,18.73,0,0,1-1.94,2.07c-1.84,1.65-4.2,1.7-6.09,1.75a6.41,6.41,0,0,0-2.54.34c-.78.45-.63,3.09-.23,4.74A.93.93,0,0,1,37.37,38a.85.85,0,0,1-.23,0Z"/>
      <path class="cls-3" d="M54.48,52.14a.91.91,0,0,1-.86-.6c0-.13-5-13.71,6-22.65S79,22.63,79.35,22.74a.92.92,0,0,1,.24,1.64A9.8,9.8,0,0,0,76.07,30c-1,4.43-5.65,17.68-14.19,20.43a.93.93,0,0,1-.56-1.77C69.18,46.14,73.53,33,74.27,29.6a11.93,11.93,0,0,1,2.8-5.4c-2.88-.24-9.06.16-16.32,6.08-10,8.13-5.61,20.1-5.41,20.61a.93.93,0,0,1-.86,1.25Z"/>
      <path class="cls-3" d="M91.31,64.27a1,1,0,0,1-.64-.26c-.1-.1-10-9.74-16.45-7.49C67,59,64,57.69,63.7,57.51a.94.94,0,0,1-.41-1.25.91.91,0,0,1,1.23-.4c.08,0,2.72,1.15,9.1-1.08,5.81-2,13.34,3.57,16.68,6.4-.31-3.12-1.43-8.91-5.53-12.31-5.84-4.82-16.21-3.54-16.3-3.52a.92.92,0,1,1-.25-1.83c.46-.06,11.26-1.41,17.73,3.93s6.32,15.49,6.3,15.93a.91.91,0,0,1-.56.82,1.06,1.06,0,0,1-.38.07Z"/>
      <path class="cls-3" d="M52.89,50.64a.92.92,0,0,1-.77-.44,110,110,0,0,0-7.46-10.58c-2.36-2.78-3.44-3-3.63-3.07a.92.92,0,0,1-.7-1.7c.7-.37,2.36-.38,5.72,3.59a111.53,111.53,0,0,1,7.62,10.81.91.91,0,0,1-.29,1.26,1.05,1.05,0,0,1-.49.13Z"/>
      <path class="cls-3" d="M53.8,52.38a.91.91,0,0,1-.86-.6,140,140,0,0,1-4.36-14.52c-1.41-6.38.22-7.94.76-8.24a.92.92,0,0,1,1.26.3.94.94,0,0,1-.24,1.22c-.1.11-1.07,1.35,0,6.32.71,3.27,1.89,7.11,2.83,10a24.44,24.44,0,0,1,5.35-12A.92.92,0,0,1,59.9,36.1a23.65,23.65,0,0,0-5.18,15.34.91.91,0,0,1-.74.93Z"/>
    </g>
  </g>
</svg>
