<svg xmlns="http://www.w3.org/2000/svg" version="1.1" xmlns:xlink="http://www.w3.org/1999/xlink" xmlns:svgjs="http://svgjs.dev/svgjs" viewBox="0 0 108 108" style="" x="0" y="0"><style type="text/css">
	.st0{fill:none;stroke:#708530;stroke-width:1.0633;stroke-miterlimit:10;}
	.st1{fill:#A6C339;}
	.st2{fill:#007131;}
	.st3{fill:#5E6530;}
	.st4{fill:#566B2A;}
	.st5{fill:#92B83E;}
	.st6{fill:#7C773E;}
	.st7{fill:#A5C939;}
	.st8{fill:#72AA3A;}
	.st9{fill:#506326;}
	.st10{fill:#64A2D8;}
	.st11{fill:#93C2E9;}
	.st12{fill:#879DD9;}
	.st13{fill:#3C72B8;}
	.st14{fill:#969539;}
	.st15{fill:none;}
	.st16{fill:#F1E6A1;}
	.st17{fill:#F4D700;}
	.st18{fill:#49C8F5;}
	.st19{fill:#90CFF2;}
	.st20{fill:#8ED8F8;}
</style><g><path class="st0" d="M73.8,69c-0.1-2.5-1.1-7.1-1.8-10.3"></path><path class="st0" d="M80.5,65.7c-3.4-1.3-7.7-4.4-9.8-7.7"></path><path class="st0" d="M81.7,59.1c-3.8,1.8-7,4-9.6,0.1"></path><path class="st0" d="M66.3,51.9c-4-3.1-7.9-7.3-9.4-10.9"></path><path class="st0" d="M58,54.9c0.5-5.3-1-13.3-1.2-15"></path><path class="st0" d="M65.2,44.9c-3.1,1-4.9,2.5-8-2.7"></path><path class="st1" d="M68.3,74c-0.3-2-1.4-2.4,2-6l3.4-3.6c0,0,0.7,0.8,1.5,1.7c0.8,0.9,4.1,3.8,2.6,7.3c-1.5,3.4-2.8,5.3-3.3,5.9
	c-0.5,0.5-1.8,2.7-2.2,3.2"></path><path class="st2" d="M92.1,75c-2.5-1-6,1.2-9-0.9c-3-2.1-4.7-7.3-5.4-8.8c-0.7-1.5-1.9-0.8,0.9-0.9c2.8-0.1,3-1,5.4-0.4
	c2.5,0.6,5.8,4.2,6.1,5.8C90.3,71.3,92.1,75,92.1,75"></path><path class="st3" d="M77.4,61.3c0.7,0,1.6,0.6,5.1,0.7c3.5,0.1,6.3-0.3,7-3c0.6-2.7-0.3-3.2,1.3-5l1.5-1.8c0,0-3.1-0.1-7.3,0
	c-4.3,0.1-6.2,4.4-6.8,6.2C77.6,60.1,77.4,61.3,77.4,61.3"></path><path class="st4" d="M75.4,61.3c0,0-1.6-1.8-5-1.8c-3.4,0-7-1.7-7-5.2c0-3.5-1.1-5.5-1.1-5.5s-0.1,0.5,2.8,0.3
	c2.9-0.2,7.1,1.8,8.2,4.7C74.5,56.6,75.4,61.3,75.4,61.3"></path><path class="st5" d="M55.3,65.8c0,0,4.3-4.3,5.6-7.3c1.3-2.9,1.7-4.7,0-6.8c-1.7-2.1-2.3-3.8-2.3-3.8s-2.4,3.6-4,4.5
	c-1.6,0.8-3.4,3.8-2.5,5.6C52.9,59.8,55.3,65.8,55.3,65.8"></path><path class="st6" d="M62.1,45.8c0,0.1,2.6,1.1,5.7,1.5c3.1,0.4,4.7,0.4,5.9-1.2c1.2-1.5,2-3.1,2.9-4.9c0.9-1.8,1-2.5,1.7-2.7
	c0.7-0.2-0.9,0.6-4.3-0.2c-3.4-0.8-5-1.8-6.4-0.7c-1.4,1.1-1.4,3.2-2.5,4.8C63.9,44.1,62.1,45.8,62.1,45.8"></path><path class="st0" d="M29.5,67.3c2.5-0.7,6.6-2.8,9.6-4.2"></path><path class="st0" d="M34.3,73c0.5-3.6,2.4-8.5,5-11.4"></path><path class="st0" d="M41,72.5c-2.7-3.2-5.6-5.8-2.5-9.3"></path><path class="st0" d="M44.3,55.8c2-4.7,5.1-9.4,8.3-11.8"></path><path class="st0" d="M39.4,48.6c5.2-0.8,12.7-4.2,14.3-4.8"></path><path class="st0" d="M50.8,53c-1.7-2.8-3.6-4.1,0.7-8.4"></path><path class="st2" d="M23.3,63.2c1.9-0.8,2-1.9,6.3,0.5l4.3,2.4c0,0-0.6,0.8-1.3,1.8c-0.7,1-2.7,4.9-6.4,4.3
	c-3.7-0.6-5.8-1.4-6.5-1.8c-0.6-0.4-3.1-1.1-3.7-1.4"></path><path class="st7" d="M28.2,86.5c0.4-2.6-2.6-5.5-1.3-8.9c1.3-3.4,5.9-6.3,7.2-7.4c1.3-1.1,0.3-2.1,1.1,0.6c0.7,2.7,1.7,2.6,1.7,5.2
	c0,2.5-2.7,6.7-4.1,7.3C31.4,83.8,28.2,86.5,28.2,86.5"></path><path class="st3" d="M37.9,68.9c0.2,0.7-0.2,1.7,0.6,5.1c0.8,3.5,1.9,6.1,4.7,6c2.8-0.1,3.1-1,5.2,0l2.1,1c0,0-0.7-3-1.8-7.1
	c-1.2-4.1-5.8-5-7.7-5C39.1,68.8,37.9,68.9,37.9,68.9"></path><path class="st4" d="M37.4,67c0,0,1.4-2,0.5-5.3c-0.8-3.3-0.1-7.2,3.3-8.1c3.4-0.9,5.1-2.5,5.1-2.5s-0.5,0.1,0.4,2.8
	c0.9,2.8,0,7.3-2.5,9.1C41.7,65,37.4,67,37.4,67"></path><path class="st5" d="M28.1,48.6c0,0,5.3,3.1,8.4,3.7c3.2,0.6,4.9,0.5,6.5-1.7c1.6-2.2,3.1-3.2,3.1-3.2s-4.1-1.5-5.3-2.8
	c-1.2-1.3-4.5-2.3-6-1.1C33.3,44.8,28.1,48.6,28.1,48.6"></path><path class="st6" d="M49.1,50.2c-0.1,0-0.5,2.8-0.1,5.9c0.4,3.1,0.8,4.7,2.6,5.5c1.8,0.8,3.5,1.2,5.5,1.6c1.9,0.4,2.7,0.3,3,1
	c0.3,0.6-0.8-0.7-0.8-4.2c0-3.5,0.5-5.3-0.9-6.4C57,52.4,55,53,53.1,52.3C51.2,51.5,49.1,50.2,49.1,50.2"></path><path class="st0" d="M36.8,23.9c0.8,2.4,3.1,6.5,4.7,9.4"></path><path class="st0" d="M31.4,29C35,29.3,40,30.9,43,33.5"></path><path class="st0" d="M32.2,35.7c3.1-2.9,5.5-5.8,9.1-3"></path><path class="st0" d="M49,38.1c4.8,1.8,9.7,4.6,12.2,7.7"></path><path class="st0" d="M56,32.8c1.1,5.2,4.8,12.5,5.5,14"></path><path class="st0" d="M52.2,44.5c2.7-1.9,3.9-3.8,8.4,0.2"></path><path class="st1" d="M40.6,17.5c0.9,1.8,2,1.9-0.2,6.4l-2.2,4.4c0,0-0.9-0.5-1.9-1.2c-1-0.6-5.1-2.5-4.6-6.2
	c0.4-3.7,1.1-5.9,1.4-6.6c0.3-0.7,1-3.1,1.2-3.7"></path><path class="st2" d="M17.6,23.5c2.7,0.3,5.4-2.9,8.9-1.8c3.5,1.1,6.6,5.6,7.7,6.8c1.1,1.2,2.1,0.2-0.6,1.1c-2.7,0.9-2.6,1.8-5.1,2
	c-2.5,0.2-6.8-2.3-7.5-3.7C20.4,26.6,17.6,23.5,17.6,23.5"></path><path class="st3" d="M35.7,32.4c-0.7,0.2-1.7-0.1-5.1,0.9c-3.4,1-6,2.2-5.8,4.9c0.2,2.8,1.2,3,0.3,5.2l-0.9,2.1c0,0,2.9-0.8,7-2.2
	c4-1.4,4.7-6.1,4.6-7.9C35.8,33.5,35.7,32.4,35.7,32.4"></path><path class="st4" d="M37.5,31.8c0,0,2.1,1.3,5.3,0.3c3.2-1,7.2-0.5,8.2,2.9c1,3.4,2.7,4.9,2.7,4.9s-0.1-0.5-2.8,0.6
	c-2.7,1.1-7.3,0.4-9.2-2.1C39.8,36,37.5,31.8,37.5,31.8"></path><path class="st5" d="M55.4,21.5c0,0-2.9,5.4-3.3,8.6c-0.4,3.2-0.2,5,2,6.5c2.2,1.5,3.3,2.9,3.3,2.9s1.3-4.2,2.5-5.5
	c1.3-1.3,2.1-4.6,0.8-6.1C59.5,26.5,55.4,21.5,55.4,21.5"></path><path class="st6" d="M54.9,42.6c0-0.1-2.8-0.3-5.8,0.2c-3,0.5-4.6,1.1-5.3,2.9c-0.7,1.8-1,3.6-1.3,5.6c-0.3,2-0.2,2.7-0.8,3.1
	c-0.6,0.4,0.7-0.9,4.2-1c3.5-0.2,5.3,0.2,6.3-1.3c1-1.5,0.4-3.4,1-5.3C53.6,44.8,54.9,42.6,54.9,42.6"></path><path class="st0" d="M81.8,29.8c-2.5,0.4-6.9,2.1-10,3.2"></path><path class="st0" d="M77.6,23.6c-0.9,3.5-3.3,8.2-6.2,10.8"></path><path class="st0" d="M70.9,23.4c2.4,3.5,4.9,6.3,1.5,9.5"></path><path class="st0" d="M65.9,39.6c-2.5,4.4-6.1,8.8-9.5,10.8"></path><path class="st0" d="M70,47.3c-5.3,0.3-13.1,2.8-14.7,3.3"></path><path class="st0" d="M59.1,41.7c1.4,3,3.2,4.5-1.5,8.3"></path><path class="st1" d="M87.5,34.5c-2,0.6-2.2,1.7-6.3-1.2l-4-2.8c0,0,0.7-0.8,1.4-1.7c0.8-0.9,3.2-4.6,6.8-3.6c3.6,1,5.7,2,6.3,2.4
	c0.6,0.4,2.9,1.4,3.5,1.7"></path><path class="st7" d="M85.1,10.8c-0.7,2.6,2,5.8,0.4,9c-1.7,3.3-6.5,5.7-7.9,6.6c-1.4,0.9-0.6,2-1-0.8c-0.5-2.8-1.4-2.8-1.2-5.3
	c0.2-2.5,3.4-6.4,4.8-6.8C81.7,13.1,85.1,10.8,85.1,10.8"></path><path class="st2" d="M73.6,27.3c-0.1-0.7,0.4-1.6-0.1-5.1c-0.4-3.5-1.2-6.2-4-6.5c-2.8-0.2-3.2,0.7-5.2-0.5l-2-1.3c0,0,0.3,3,1,7.2
	c0.7,4.2,5.3,5.6,7.1,5.8C72.4,27.2,73.6,27.3,73.6,27.3"></path><path class="st4" d="M73.9,29.2c0,0-1.6,1.9-1.1,5.2c0.5,3.3-0.7,7.2-4.2,7.7c-3.5,0.5-5.3,1.9-5.3,1.9s0.5,0-0.1-2.9
	c-0.6-2.9,0.8-7.2,3.5-8.8C69.4,30.8,73.9,29.2,73.9,29.2"></path><path class="st5" d="M81.2,48.5c0,0-4.9-3.7-8-4.6c-3.1-0.9-4.9-1-6.7,1c-1.8,2-3.4,2.8-3.4,2.8s3.9,1.9,5,3.4
	c1.1,1.5,4.2,2.8,5.9,1.7C75.7,51.7,81.2,48.5,81.2,48.5"></path><path class="st6" d="M60.5,44.6c0.1,0,0.8-2.7,0.7-5.8c-0.1-3.1-0.3-4.7-2-5.7c-1.7-1-3.4-1.6-5.3-2.2c-1.9-0.6-2.6-0.6-2.9-1.3
	c-0.3-0.7,0.7,0.8,0.4,4.3c-0.4,3.5-1,5.2,0.3,6.5c1.3,1.2,3.3,0.9,5.1,1.8C58.5,43.1,60.5,44.6,60.5,44.6"></path><path class="st8" d="M56.9,57.8c-0.1-2.5-1.1-7.1-1.8-10.3"></path><path class="st8" d="M63.7,54.5c-3.4-1.3-7.7-4.4-9.8-7.7"></path><path class="st8" d="M64.8,47.9c-3.8,1.8-7,4-9.6,0.1"></path><path class="st8" d="M49.5,40.7c-4-3.1-7.9-7.3-9.4-10.9"></path><path class="st8" d="M41.2,43.7c0.5-5.3-1-13.3-1.2-15"></path><path class="st8" d="M48.3,33.6c-3.1,1-4.9,2.5-8-2.7"></path><path class="st8" d="M51.5,62.8c-0.3-2-1.4-2.4,2-6l3.4-3.6c0,0,0.7,0.8,1.5,1.7c0.8,0.9,4.1,3.8,2.6,7.3c-1.5,3.4-2.8,5.3-3.3,5.9
	c-0.5,0.5-1.8,2.7-2.2,3.2"></path><path class="st8" d="M75.2,63.8c-2.5-1-6,1.2-9-0.9c-3-2.1-4.7-7.3-5.4-8.8c-0.7-1.5-1.9-0.8,0.9-0.9c2.8-0.1,3-1,5.4-0.4
	c2.5,0.6,5.8,4.2,6.1,5.8C73.5,60.1,75.2,63.8,75.2,63.8"></path><path class="st8" d="M60.5,50c0.7,0,1.6,0.6,5.1,0.7c3.6,0.1,6.3-0.3,7-3c0.6-2.7-0.3-3.2,1.3-5l1.5-1.8c0,0-3.1-0.1-7.3,0
	c-4.3,0.1-6.2,4.4-6.8,6.2C60.8,48.9,60.5,50,60.5,50"></path><path class="st8" d="M58.6,50.1c0,0-1.6-1.8-5-1.8c-3.4,0-7-1.7-7-5.2c0-3.5-1.1-5.5-1.1-5.5s-0.1,0.5,2.8,0.3
	c2.9-0.2,7.1,1.8,8.2,4.7C57.7,45.4,58.6,50.1,58.6,50.1"></path><path class="st8" d="M38.5,54.6c0,0,4.3-4.3,5.6-7.3c1.3-2.9,1.7-4.7,0-6.8c-1.7-2.1-2.3-3.8-2.3-3.8s-2.4,3.6-4,4.5
	c-1.6,0.8-3.4,3.8-2.5,5.6C36.1,48.6,38.5,54.6,38.5,54.6"></path><path class="st8" d="M45.2,34.6c0,0.1,2.6,1.1,5.7,1.5c3.1,0.4,4.7,0.4,5.9-1.2c1.2-1.5,2-3.1,2.9-4.9c0.9-1.8,1-2.5,1.7-2.7
	c0.7-0.2-0.9,0.6-4.3-0.2c-3.4-0.8-5-1.8-6.4-0.7c-1.4,1.1-1.4,3.2-2.5,4.8C47,32.9,45.2,34.6,45.2,34.6"></path><path class="st0" d="M86.3,50.1c-2-1.6-6.2-3.7-9.1-5.2"></path><path class="st0" d="M88.1,42.8c-3.2,1.7-8.3,3.1-12.1,2.7"></path><path class="st0" d="M83.7,37.7c-1,4.1-1.4,7.9-6,7.5"></path><path class="st0" d="M68.4,45c-5,1.1-10.6,1.5-14.4,0.3"></path><path class="st0" d="M65.4,53.3c-3.8-3.7-10.9-7.7-12.3-8.6"></path><path class="st0" d="M62.2,41.4c-1.2,3-1.2,5.4-7.1,4.4"></path><path class="st1" d="M86.7,57.5c-1.8-1-2.7-0.5-3.4-5.4l-0.6-4.9c0,0,1,0,2.2-0.1c1.2,0,5.6-0.7,7.3,2.6c1.7,3.3,2.3,5.5,2.4,6.3
	c0.1,0.7,0.9,3.1,1.1,3.8"></path><path class="st2" d="M102.6,39.8c-2.4,1.2-2.9,5.4-6.4,6.4c-3.5,1-8.6-1-10.2-1.4c-1.6-0.4-1.9,1-0.1-1.3c1.8-2.2,1.1-2.9,3.1-4.5
	c2-1.5,7-1.8,8.3-1C98.6,38.8,102.6,39.8,102.6,39.8"></path><path class="st3" d="M82.6,42.4c0.5-0.6,1.5-0.8,3.7-3.5c2.3-2.7,3.8-5.1,2.1-7.3c-1.7-2.2-2.7-1.9-3.1-4.2L85,25.1
	c0,0-2,2.3-4.6,5.7c-2.6,3.4-0.6,7.6,0.5,9.2C81.9,41.5,82.6,42.4,82.6,42.4"></path><path class="st4" d="M81.5,43.9c0,0-2.4,0.1-4.6,2.7c-2.1,2.6-5.8,4.4-8.5,2.1c-2.7-2.3-5-2.6-5-2.6s0.3,0.4,2-2
	c1.7-2.4,5.9-4.3,8.8-3.4C77.2,41.6,81.5,43.9,81.5,43.9"></path><path class="st5" d="M72.1,62.3c0,0-0.6-6.1-2-9c-1.4-2.9-2.5-4.3-5.2-4.3c-2.7,0-4.4-0.6-4.4-0.6s1.3,4.2,0.9,5.9
	c-0.4,1.8,0.8,5,2.7,5.5C66,60.4,72.1,62.3,72.1,62.3"></path><path class="st6" d="M61,44.4c0,0,2.5-1.3,4.8-3.4c2.2-2.1,3.3-3.4,2.9-5.3c-0.4-1.9-1.1-3.6-2-5.4c-0.8-1.8-1.3-2.3-1-3
	c0.3-0.7-0.1,1.1-2.9,3.2c-2.8,2.1-4.6,2.7-4.6,4.5c0,1.8,1.6,3.1,2.1,5C60.8,41.9,61,44.4,61,44.4"></path><path class="st0" d="M56.9,83.2c1-2.3,2.1-6.9,2.8-10.1"></path><path class="st0" d="M64.4,83.1c-2.5-2.7-5.1-7.2-5.6-11.1"></path><path class="st0" d="M68.2,77.6c-4.2,0-8,0.6-8.7-4"></path><path class="st0" d="M57.4,64.5c-2.3-4.5-4-9.9-3.8-13.9"></path><path class="st0" d="M48.7,63.7c2.7-4.6,4.8-12.5,5.3-14.1"></path><path class="st0" d="M59.4,57.7c-3.2-0.4-5.5,0.2-6.1-5.8"></path><path class="st2" d="M49.8,85.3c0.6-2-0.2-2.8,4.4-4.6l4.6-1.8c0,0,0.3,1,0.6,2.1c0.3,1.1,2.1,5.2-0.7,7.7c-2.8,2.5-4.8,3.6-5.5,3.9
	c-0.7,0.3-2.8,1.7-3.4,2"></path><path class="st7" d="M70.9,96.4c-1.8-2-5.9-1.5-7.7-4.7c-1.8-3.2-1.1-8.6-1.1-10.2c0-1.7-1.4-1.6,1.2-0.4c2.6,1.2,3.1,0.4,5.1,1.9
	c2,1.6,3.5,6.3,3,7.8C70.9,92.3,70.9,96.4,70.9,96.4"></path><path class="st3" d="M63.4,77.7c0.7,0.3,1.2,1.2,4.3,2.8s5.9,2.4,7.6,0.2c1.7-2.2,1.2-3,3.3-4l2.1-1c0,0-2.7-1.4-6.6-3.1
	c-3.9-1.7-7.5,1.3-8.8,2.7C64.2,76.8,63.4,77.7,63.4,77.7"></path><path class="st4" d="M61.7,76.9c0,0-0.7-2.3-3.7-3.8c-3-1.4-5.6-4.5-4.1-7.7c1.5-3.2,1.3-5.5,1.3-5.5s-0.3,0.4,2.5,1.5
	c2.7,1,5.6,4.6,5.4,7.7C62.9,72.3,61.7,76.9,61.7,76.9"></path><path class="st5" d="M41.5,72.4c0,0,5.7-2.1,8.2-4.2c2.4-2.1,3.5-3.5,2.9-6.1c-0.7-2.6-0.5-4.4-0.5-4.4S48.3,60,46.5,60
	c-1.8,0.1-4.7,2-4.6,4C41.9,66,41.5,72.4,41.5,72.4"></path><path class="st6" d="M56.2,57.2c0,0.1,1.9,2.1,4.5,3.8c2.6,1.6,4.1,2.3,5.9,1.5c1.7-0.9,3.2-2,4.7-3.2c1.5-1.2,1.9-1.9,2.7-1.7
	c0.7,0.2-1.1,0.2-3.8-2c-2.7-2.2-3.8-3.7-5.5-3.3c-1.7,0.4-2.6,2.3-4.3,3.3C58.5,56.4,56.2,57.2,56.2,57.2"></path><path class="st0" d="M28.1,49.9c2.4,0.9,7,1.7,10.2,2.3"></path><path class="st0" d="M28.5,57.4c2.5-2.6,7-5.4,10.8-6.1"></path><path class="st0" d="M34.2,61c-0.2-4.2-1-8,3.5-8.9"></path><path class="st0" d="M46.7,49.6c4.4-2.5,9.7-4.5,13.7-4.5"></path><path class="st0" d="M47.1,40.8c4.7,2.4,12.7,4.2,14.3,4.6"></path><path class="st0" d="M53.7,51.2c0.3-3.3-0.4-5.5,5.5-6.4"></path><path class="st1" d="M25.5,43c2,0.5,2.8-0.3,4.8,4.2l2,4.5c0,0-1,0.3-2.1,0.7c-1.1,0.4-5.1,2.4-7.7-0.4c-2.6-2.7-3.8-4.6-4.2-5.3
	c-0.3-0.7-1.8-2.7-2.1-3.3"></path><path class="st2" d="M15.5,64.6c1.9-1.9,1.2-6,4.3-8c3.1-2,8.5-1.6,10.2-1.7c1.7-0.1,1.5-1.5,0.5,1.2c-1,2.6-0.2,3.1-1.7,5.2
	c-1.5,2-6.1,3.8-7.6,3.4C19.7,64.4,15.5,64.6,15.5,64.6"></path><path class="st3" d="M33.8,56.2c-0.3,0.7-1.1,1.2-2.6,4.5c-1.4,3.3-2.1,6,0.2,7.6c2.3,1.6,3.1,1,4.2,3.1l1.1,2.1
	c0,0,1.3-2.8,2.8-6.8c1.5-4-1.7-7.5-3.2-8.6C34.8,56.9,33.8,56.2,33.8,56.2"></path><path class="st4" d="M34.5,54.4c0,0,2.3-0.8,3.6-3.9c1.3-3.1,4.2-5.9,7.5-4.5c3.3,1.4,5.5,1,5.5,1s-0.4-0.3-1.3,2.5
	c-0.9,2.8-4.3,5.9-7.5,5.8C39.2,55.4,34.5,54.4,34.5,54.4"></path><path class="st5" d="M38.1,34.1c0,0,2.4,5.6,4.6,8c2.2,2.3,3.7,3.3,6.3,2.5c2.6-0.8,4.4-0.7,4.4-0.7s-2.4-3.6-2.6-5.4
	c-0.2-1.8-2.2-4.6-4.2-4.4C44.5,34.1,38.1,34.1,38.1,34.1"></path><path class="st6" d="M53.9,47.9c-0.1,0-2,2-3.5,4.7c-1.5,2.7-2.1,4.2-1.2,5.9c1,1.7,2.1,3.1,3.5,4.5c1.3,1.5,2,1.9,1.8,2.6
	c-0.1,0.7-0.2-1.1,1.8-3.9c2.1-2.8,3.5-4,3.1-5.7C58.9,54.4,57,53.6,56,52C54.9,50.3,53.9,47.9,53.9,47.9"></path><path class="st0" d="M61.1,19c-1.3,2.2-2.8,6.6-3.9,9.7"></path><path class="st0" d="M53.7,18.3c2.2,2.9,4.3,7.7,4.4,11.6"></path><path class="st0" d="M49.3,23.3c4.2,0.4,8,0.2,8.3,4.9"></path><path class="st0" d="M58.6,37.5c1.8,4.8,2.9,10.3,2.3,14.2"></path><path class="st0" d="M67.2,39.2c-3.1,4.3-6.1,11.9-6.8,13.4"></path><path class="st0" d="M55.9,44.1c3.2,0.8,5.5,0.4,5.4,6.4"></path><path class="st1" d="M68.4,17.6c-0.8,1.9-0.1,2.8-4.9,4.1L58.8,23c0,0-0.2-1-0.4-2.2c-0.2-1.2-1.5-5.4,1.5-7.6
	c3.1-2.2,5.2-3.1,5.9-3.3c0.7-0.2,3-1.4,3.6-1.6"></path><path class="st7" d="M48.6,4.3c1.6,2.2,5.7,2.1,7.2,5.4c1.5,3.3,0.2,8.7,0.1,10.3c-0.2,1.6,1.2,1.7-1.2,0.3
	c-2.4-1.4-3.1-0.7-4.9-2.5c-1.8-1.8-2.8-6.7-2.2-8.1C48.2,8.5,48.6,4.3,48.6,4.3"></path><path class="st2" d="M54,23.7c-0.6-0.4-1-1.3-4-3.2c-3-1.9-5.6-3-7.5-1c-1.9,2-1.5,2.9-3.7,3.6l-2.2,0.7c0,0,2.6,1.7,6.3,3.8
	c3.7,2.1,7.6-0.5,9-1.8C53.2,24.6,54,23.7,54,23.7"></path><path class="st4" d="M55.7,24.7c0,0,0.5,2.4,3.3,4.2c2.9,1.8,5.1,5.1,3.3,8.1c-1.8,3-1.9,5.3-1.9,5.3s0.3-0.4-2.3-1.7
	c-2.6-1.3-5.1-5.2-4.6-8.3C54,29.2,55.7,24.7,55.7,24.7"></path><path class="st5" d="M75.2,31.3c0,0-5.9,1.4-8.6,3.3c-2.7,1.8-3.9,3.1-3.5,5.8c0.4,2.7,0.1,4.4,0.1,4.4s4-1.8,5.8-1.7
	c1.8,0.1,4.8-1.5,5-3.5C74.2,37.7,75.2,31.3,75.2,31.3"></path><path class="st6" d="M59.1,44.9c0-0.1-1.6-2.3-4.1-4.2c-2.4-1.9-3.9-2.8-5.7-2.1c-1.8,0.7-3.4,1.6-5,2.7c-1.7,1.1-2.1,1.6-2.8,1.4
	c-0.7-0.2,1.1-0.1,3.5,2.4c2.5,2.5,3.4,4.1,5.1,3.9c1.8-0.2,2.8-2,4.6-2.8C56.6,45.4,59.1,44.9,59.1,44.9"></path><path class="st8" d="M67,56c-2-1.6-6.2-3.7-9.1-5.2"></path><path class="st8" d="M68.7,48.7c-3.2,1.7-8.3,3.1-12.1,2.7"></path><path class="st8" d="M64.4,43.6c-1,4.1-1.4,7.9-6,7.5"></path><path class="st8" d="M49,50.8c-5,1.1-10.6,1.5-14.4,0.3"></path><path class="st8" d="M46.1,59.1c-3.8-3.7-10.9-7.7-12.3-8.6"></path><path class="st8" d="M42.9,47.3c-1.2,3-1.2,5.4-7.1,4.4"></path><path class="st8" d="M67.3,63.4c-1.8-1-2.7-0.5-3.4-5.4l-0.6-4.9c0,0,1,0,2.2-0.1c1.2,0,5.6-0.7,7.3,2.6c1.7,3.3,2.3,5.5,2.4,6.3
	c0.1,0.7,0.9,3.1,1.1,3.8"></path><path class="st8" d="M83.3,45.7c-2.4,1.2-2.9,5.4-6.4,6.4c-3.5,1-8.6-1-10.2-1.4c-1.6-0.4-1.9,1-0.1-1.3c1.8-2.2,1.1-2.9,3.1-4.5
	c2-1.5,7-1.8,8.3-1C79.2,44.7,83.3,45.7,83.3,45.7"></path><path class="st8" d="M63.3,48.3c0.5-0.6,1.5-0.8,3.7-3.5c2.3-2.7,3.8-5.1,2.1-7.3c-1.7-2.2-2.7-1.9-3.1-4.2L65.6,31
	c0,0-2,2.3-4.6,5.7c-2.6,3.4-0.6,7.6,0.5,9.2C62.6,47.4,63.3,48.3,63.3,48.3"></path><path class="st8" d="M62.1,49.8c0,0-2.4,0.1-4.6,2.7c-2.1,2.6-5.8,4.4-8.5,2.1c-2.7-2.3-5-2.6-5-2.6s0.3,0.4,2-2
	c1.7-2.4,5.9-4.3,8.8-3.4C57.9,47.5,62.1,49.8,62.1,49.8"></path><path class="st8" d="M52.8,68.2c0,0-0.6-6.1-2-9c-1.4-2.9-2.5-4.3-5.2-4.3c-2.7,0-4.4-0.6-4.4-0.6s1.3,4.2,0.9,5.9
	c-0.4,1.8,0.8,5,2.7,5.5C46.6,66.3,52.8,68.2,52.8,68.2"></path><path class="st8" d="M41.6,50.3c0,0,2.5-1.3,4.8-3.4c2.2-2.1,3.3-3.4,2.9-5.3c-0.4-1.9-1.1-3.6-2-5.4c-0.8-1.8-1.3-2.3-1-3
	c0.3-0.7-0.1,1.1-2.9,3.2c-2.8,2.1-4.6,2.7-4.6,4.5c0,1.8,1.6,3.1,2.1,5C41.4,47.8,41.6,50.3,41.6,50.3"></path><path class="st0" d="M80,61.6c-1.1-2.3-3.8-6.1-5.7-8.8"></path><path class="st0" d="M84.8,56c-3.6,0.1-8.8-1-12-3.1"></path><path class="st0" d="M83.3,49.4c-2.8,3.2-4.8,6.4-8.8,4"></path><path class="st0" d="M66.3,48.9c-4.9-1.3-10.1-3.5-12.9-6.3"></path><path class="st0" d="M59.9,54.9c-1.7-5-6.2-11.9-7-13.3"></path><path class="st0" d="M62.5,42.9C60,45,59,47.1,54.1,43.6"></path><path class="st1" d="M76.9,68.4c-1.1-1.7-2.2-1.7-0.5-6.3l1.7-4.6c0,0,0.9,0.4,2,0.9c1.1,0.5,5.3,1.9,5.3,5.6c0,3.8-0.5,6-0.7,6.7
	c-0.3,0.7-0.6,3.2-0.7,3.8"></path><path class="st2" d="M99.2,59.9c-2.7,0-5,3.5-8.6,2.7c-3.6-0.7-7.2-4.8-8.4-5.9c-1.2-1.1-2.1,0,0.5-1.2c2.6-1.2,2.3-2.1,4.8-2.5
	c2.5-0.4,7,1.6,7.9,2.9C96,57.1,99.2,59.9,99.2,59.9"></path><path class="st3" d="M80.2,53.1c0.7-0.3,1.7-0.1,4.9-1.4c3.3-1.4,5.7-2.8,5.2-5.6c-0.5-2.7-1.5-2.9-0.8-5.1l0.7-2.2
	c0,0-2.8,1.1-6.7,2.9c-3.9,1.8-4,6.5-3.7,8.4C80,52,80.2,53.1,80.2,53.1"></path><path class="st4" d="M78.4,53.9c0,0-2.2-1-5.3,0.3c-3.1,1.3-7.1,1.3-8.5-2c-1.4-3.3-3.2-4.6-3.2-4.6s0.1,0.5,2.7-0.9
	c2.6-1.4,7.2-1.2,9.4,1C75.7,50,78.4,53.9,78.4,53.9"></path><path class="st5" d="M61.7,66c0,0,2.2-5.7,2.3-8.9c0-3.2-0.3-5-2.7-6.2c-2.4-1.2-3.6-2.5-3.6-2.5s-0.8,4.3-1.9,5.7
	c-1.1,1.4-1.6,4.8-0.1,6.1C57.2,61.5,61.7,66,61.7,66"></path><path class="st6" d="M60,45c0,0,2.8,0,5.8-0.9c3-0.9,4.5-1.6,5-3.4c0.5-1.9,0.6-3.7,0.7-5.7c0.1-2-0.1-2.7,0.5-3.1
	c0.6-0.4-0.6,0.9-4,1.5c-3.4,0.6-5.3,0.4-6.2,1.9c-0.9,1.6,0,3.4-0.4,5.4C61,42.7,60,45,60,45"></path><path class="st0" d="M38.7,77.6c2-1.6,5-5.2,7.1-7.7"></path><path class="st0" d="M45.4,81c-1-3.5-1.2-8.7,0.1-12.4"></path><path class="st0" d="M51.3,77.8c-3.8-1.9-7.4-3.1-6-7.5"></path><path class="st0" d="M47.7,61.3c0-5.1,1-10.7,2.9-14.1"></path><path class="st0" d="M40.3,56.5c4.5-2.9,10-8.9,11.2-10.1"></path><path class="st0" d="M52.6,56.1c-2.7-1.9-5-2.4-2.7-8"></path><path class="st2" d="M31.4,76.3c1.4-1.5,1.1-2.6,6-2.1l4.9,0.5c0,0-0.2,1-0.4,2.2c-0.2,1.2-0.5,5.6-4.2,6.5c-3.6,0.9-5.9,1-6.7,0.9
	c-0.7-0.1-3.3,0.2-3.9,0.2"></path><path class="st7" d="M45.1,95.8c-0.7-2.6-4.6-4-4.8-7.7c-0.2-3.6,2.9-8.2,3.7-9.6c0.7-1.5-0.5-2,1.3,0.2c1.8,2.2,2.6,1.7,3.6,4
	c1,2.3,0.2,7.2-0.9,8.3C47,92.1,45.1,95.8,45.1,95.8"></path><path class="st3" d="M47,75.7c0.5,0.6,0.5,1.6,2.6,4.4s4.1,4.8,6.7,3.7c2.5-1.2,2.4-2.2,4.8-2.1l2.3,0.1c0,0-1.8-2.5-4.5-5.8
	c-2.7-3.3-7.3-2.3-9.1-1.6C48,75.3,47,75.7,47,75.7"></path><path class="st4" d="M45.8,74.2c0,0,0.4-2.4-1.6-5.1c-2-2.7-3-6.6-0.2-8.7c2.8-2.2,3.7-4.3,3.7-4.3s-0.4,0.3,1.5,2.4
	c2,2.2,2.9,6.7,1.3,9.4C48.9,70.6,45.8,74.2,45.8,74.2"></path><path class="st5" d="M29.9,61c0,0,6.1,0.8,9.2,0c3.1-0.7,4.7-1.5,5.3-4.1c0.6-2.6,1.5-4.1,1.5-4.1s-4.4,0.3-6-0.5
	c-1.6-0.7-5.1-0.3-5.9,1.4S29.9,61,29.9,61"></path><path class="st6" d="M49.9,54.2c0,0,0.7,2.7,2.3,5.4c1.6,2.7,2.6,4,4.6,4c2,0,3.7-0.3,5.7-0.7c1.9-0.4,2.6-0.8,3.1-0.3
	c0.6,0.5-1-0.3-2.4-3.5c-1.4-3.2-1.7-5.1-3.4-5.5c-1.7-0.4-3.3,0.8-5.3,0.9C52.4,54.6,49.9,54.2,49.9,54.2"></path><path class="st0" d="M28.2,34.9c1.7,1.9,5.4,4.7,8,6.7"></path><path class="st0" d="M25.2,41.8c3.4-1.2,8.7-1.6,12.4-0.5"></path><path class="st0" d="M28.6,47.5c1.7-3.9,2.7-7.5,7.2-6.3"></path><path class="st0" d="M44.9,43.1c5.1-0.2,10.7,0.4,14.2,2.2"></path><path class="st0" d="M49.3,35.5c3.1,4.3,9.4,9.5,10.6,10.7"></path><path class="st0" d="M50.4,47.7c1.7-2.8,2.1-5.1,7.8-3.1"></path><path class="st1" d="M29.1,27.6c1.6,1.3,2.6,1,2.4,5.9l-0.2,4.9c0,0-1-0.2-2.2-0.3c-1.2-0.2-5.6-0.2-6.7-3.8
	c-1.1-3.6-1.3-5.9-1.3-6.6c0-0.7-0.4-3.2-0.4-3.9"></path><path class="st2" d="M10.3,42.2c2.5-0.8,3.8-4.8,7.4-5.1c3.6-0.3,8.3,2.5,9.8,3.2c1.5,0.7,2-0.6-0.1,1.3c-2.1,1.9-1.6,2.7-3.9,3.8
	c-2.2,1.1-7.2,0.6-8.3-0.4C14.1,43.9,10.3,42.2,10.3,42.2"></path><path class="st3" d="M30.5,43.1c-0.6,0.5-1.6,0.6-4.3,2.8c-2.7,2.3-4.6,4.4-3.3,6.8c1.3,2.5,2.3,2.3,2.3,4.6l0,2.3
	c0,0,2.4-1.9,5.5-4.8c3.2-2.8,1.9-7.4,1.1-9.1C31,44.2,30.5,43.1,30.5,43.1"></path><path class="st4" d="M31.9,41.9c0,0,2.4,0.3,5-1.8c2.6-2.2,6.4-3.3,8.7-0.6c2.3,2.7,4.4,3.4,4.4,3.4s-0.3-0.4-2.3,1.6
	c-2.1,2.1-6.5,3.2-9.3,1.8C35.6,44.8,31.9,41.9,31.9,41.9"></path><path class="st5" d="M44.3,25.4c0,0-0.5,6.1,0.4,9.2c0.9,3.1,1.8,4.6,4.4,5.1c2.7,0.5,4.2,1.3,4.2,1.3s-0.5-4.3,0.2-6
	c0.7-1.7,0.1-5.1-1.7-5.9C50,28.3,44.3,25.4,44.3,25.4"></path><path class="st6" d="M52.1,44.9c0,0-2.7,0.8-5.3,2.5c-2.6,1.7-3.8,2.8-3.8,4.8c0.1,2,0.5,3.7,1,5.6c0.5,1.9,0.9,2.5,0.5,3.1
	c-0.4,0.6,0.3-1.1,3.4-2.6c3.1-1.6,5-1.9,5.3-3.7c0.4-1.8-1-3.3-1.2-5.3C51.9,47.4,52.1,44.9,52.1,44.9"></path><path class="st0" d="M71.7,22.4c-2.1,1.4-5.5,4.6-7.9,6.9"></path><path class="st0" d="M65.4,18.4C66,22,65.7,27.2,64,30.8"></path><path class="st0" d="M59.2,20.9c3.6,2.3,7,3.9,5.1,8.1"></path><path class="st0" d="M61,37.8c-0.5,5.1-2.1,10.5-4.4,13.7"></path><path class="st0" d="M67.9,43.2c-4.7,2.4-10.9,7.8-12.2,8.8"></path><path class="st0" d="M55.6,42.4c2.5,2.2,4.7,2.9,1.9,8.2"></path><path class="st1" d="M78.8,24.5c-1.6,1.3-1.4,2.4-6.2,1.4l-4.8-1c0,0,0.3-1,0.7-2.1c0.3-1.1,1.1-5.5,4.8-6c3.7-0.5,6-0.4,6.7-0.2
	c0.7,0.2,3.3,0.2,3.9,0.2"></path><path class="st7" d="M67.3,3.7c0.4,2.6,4.2,4.5,3.9,8.1c-0.2,3.6-3.7,7.8-4.6,9.2c-0.9,1.4,0.3,2.1-1.2-0.3c-1.5-2.4-2.4-2-3.2-4.4
	c-0.8-2.4,0.6-7.2,1.7-8.2C65,7.2,67.3,3.7,67.3,3.7"></path><path class="st2" d="M63.2,23.4c-0.4-0.6-0.3-1.6-2.1-4.7c-1.8-3.1-3.6-5.2-6.2-4.3c-2.6,0.9-2.6,1.9-5,1.5l-2.3-0.4
	c0,0,1.5,2.7,3.8,6.2c2.3,3.6,7,3,8.9,2.5C62.1,23.8,63.2,23.4,63.2,23.4"></path><path class="st4" d="M64.3,25c0,0-0.7,2.3,1.1,5.2c1.7,2.9,2.3,6.9-0.8,8.7c-3,1.9-4.1,3.9-4.1,3.9s0.5-0.2-1.3-2.6
	c-1.7-2.4-2.2-6.9-0.3-9.5C60.8,28.3,64.3,25,64.3,25"></path><path class="st5" d="M78.6,39.9c0,0-5.9-1.4-9.1-1c-3.2,0.4-4.9,1-5.7,3.6c-0.9,2.6-2,4-2,4s4.4,0.2,5.9,1.1c1.6,0.9,5,0.9,6.1-0.8
	C74.8,45,78.6,39.9,78.6,39.9"></path><path class="st6" d="M58.1,44.6c0,0-0.4-2.8-1.7-5.6c-1.3-2.8-2.2-4.2-4.1-4.4c-1.9-0.2-3.7-0.1-5.7,0.1c-2,0.2-2.6,0.5-3.2,0
	c-0.5-0.5,1,0.4,2.1,3.8c1.1,3.3,1.1,5.2,2.8,5.8c1.7,0.6,3.4-0.5,5.4-0.4C55.7,43.9,58.1,44.6,58.1,44.6"></path><path class="st8" d="M60.1,58c-1.1-2.3-3.8-6.1-5.7-8.8"></path><path class="st8" d="M64.9,52.4c-3.6,0.1-8.8-1-12-3.1"></path><path class="st8" d="M63.4,45.8c-2.8,3.2-4.8,6.4-8.8,4"></path><path class="st8" d="M46.4,45.3C41.5,44,36.3,41.7,33.5,39"></path><path class="st8" d="M40,51.3c-1.7-5-6.2-11.9-7-13.3"></path><path class="st8" d="M42.6,39.3c-2.5,2.1-3.5,4.2-8.4,0.7"></path><path class="st8" d="M57,64.8c-1.1-1.7-2.2-1.7-0.5-6.3l1.7-4.6c0,0,0.9,0.4,2,0.9c1.1,0.5,5.3,1.9,5.3,5.6c0,3.8-0.5,6-0.7,6.7
	c-0.3,0.7-0.6,3.2-0.8,3.8"></path><path class="st8" d="M79.2,56.3c-2.7,0-5,3.5-8.6,2.7c-3.6-0.7-7.2-4.8-8.4-5.9c-1.2-1.1-2.1,0,0.5-1.2c2.6-1.2,2.3-2.1,4.8-2.5
	c2.5-0.4,7,1.6,7.9,2.9C76.1,53.5,79.2,56.3,79.2,56.3"></path><path class="st8" d="M60.3,49.5c0.7-0.3,1.7-0.1,4.9-1.4c3.3-1.4,5.7-2.8,5.2-5.6c-0.5-2.7-1.5-2.9-0.8-5.1l0.7-2.2
	c0,0-2.8,1.1-6.7,2.9c-3.9,1.8-4,6.5-3.7,8.4C60.1,48.4,60.3,49.5,60.3,49.5"></path><path class="st8" d="M58.5,50.3c0,0-2.2-1-5.3,0.3c-3.1,1.3-7.1,1.3-8.5-2c-1.4-3.3-3.2-4.6-3.2-4.6s0.1,0.5,2.7-0.9
	c2.6-1.4,7.2-1.2,9.4,1C55.8,46.3,58.5,50.3,58.5,50.3"></path><path class="st8" d="M41.8,62.4c0,0,2.2-5.7,2.3-8.9c0-3.2-0.3-5-2.7-6.2c-2.4-1.2-3.6-2.5-3.6-2.5s-0.8,4.3-1.9,5.7
	c-1.1,1.4-1.6,4.8-0.1,6.1C37.3,57.9,41.8,62.4,41.8,62.4"></path><path class="st8" d="M40.1,41.4c0,0,2.8,0,5.8-0.9c3-0.9,4.5-1.6,5-3.4c0.5-1.9,0.6-3.7,0.7-5.7c0.1-2-0.1-2.7,0.5-3.1
	c0.6-0.4-0.6,0.9-4,1.5c-3.4,0.6-5.3,0.4-6.2,1.9c-0.9,1.6,0,3.4-0.4,5.4C41.1,39.1,40.1,41.4,40.1,41.4"></path><path class="st0" d="M84,39.3c-2.5-0.6-7.1-0.9-10.4-1.2"></path><path class="st0" d="M82.7,31.9c-2.2,2.9-6.3,6.1-10.1,7.3"></path><path class="st0" d="M76.7,29c0.7,4.2,1.9,7.8-2.5,9.3"></path><path class="st0" d="M65.5,41.7c-4.1,3-9.2,5.6-13.1,6"></path><path class="st0" d="M66.1,50.5c-4.9-1.9-13.1-2.8-14.7-3"></path><path class="st0" d="M58.4,40.9c0.1,3.3,1.1,5.4-4.8,6.9"></path><path class="st1" d="M87.3,45.9c-2-0.2-2.7,0.6-5.2-3.6l-2.5-4.2c0,0,0.9-0.4,2-0.9c1.1-0.5,4.8-2.9,7.7-0.5
	c2.9,2.4,4.3,4.2,4.7,4.8c0.4,0.6,2.1,2.5,2.5,3"></path><path class="st2" d="M94.8,23.4c-1.7,2.1-0.5,6.1-3.4,8.4c-2.8,2.3-8.3,2.5-9.9,2.8c-1.6,0.3-1.3,1.6-0.6-1.1
	c0.7-2.7-0.1-3.1,1.1-5.3c1.2-2.2,5.7-4.4,7.2-4.2C90.7,24,94.8,23.4,94.8,23.4"></path><path class="st3" d="M77.5,33.7c0.2-0.7,1-1.3,2-4.7c1-3.4,1.4-6.2-1-7.5c-2.4-1.3-3.2-0.7-4.5-2.6l-1.3-2c0,0-0.9,2.9-2,7
	c-1.1,4.1,2.5,7.2,4.1,8.2C76.5,33.1,77.5,33.7,77.5,33.7"></path><path class="st4" d="M77,35.6c0,0-2.2,1.1-3.1,4.3c-0.9,3.2-3.5,6.3-7,5.3c-3.4-1-5.6-0.4-5.6-0.4s0.5,0.2,1.1-2.7
	c0.6-2.9,3.7-6.3,6.8-6.6C72.3,35.1,77,35.6,77,35.6"></path><path class="st5" d="M75.8,56.2c0,0-3-5.3-5.4-7.4c-2.4-2.1-4-2.9-6.5-1.8c-2.5,1.1-4.3,1.2-4.3,1.2s2.8,3.3,3.2,5.1
	c0.4,1.8,2.7,4.3,4.7,3.9C69.4,56.8,75.8,56.2,75.8,56.2"></path><path class="st6" d="M58.5,44.2c0.1,0,1.8-2.2,3-5c1.2-2.9,1.6-4.5,0.5-6c-1.1-1.6-2.5-2.8-3.9-4.1c-1.5-1.3-2.1-1.6-2.1-2.3
	c0-0.7,0.4,1-1.4,4.1c-1.7,3-3.1,4.3-2.4,6c0.7,1.7,2.7,2.2,3.9,3.7C57.3,41.9,58.5,44.2,58.5,44.2"></path><path class="st0" d="M70.1,81.3c0-2.5-0.8-7.1-1.4-10.4"></path><path class="st0" d="M76.9,78.3c-3.3-1.5-7.5-4.6-9.5-8"></path><path class="st0" d="M78.3,71.7c-3.9,1.7-7.1,3.7-9.6-0.2"></path><path class="st0" d="M63.2,64c-3.9-3.3-7.6-7.5-9-11.2"></path><path class="st0" d="M54.8,66.7c0.6-5.3-0.5-13.4-0.7-15"></path><path class="st0" d="M62.3,56.9c-3.2,0.9-5,2.3-7.9-2.9"></path><path class="st2" d="M64.5,86.1c-0.3-2-1.3-2.5,2.2-6l3.5-3.5c0,0,0.6,0.8,1.4,1.7c0.8,0.9,4,4,2.4,7.4c-1.6,3.4-3,5.2-3.5,5.7
	c-0.5,0.5-1.9,2.6-2.3,3.2"></path><path class="st7" d="M88.2,87.9c-2.4-1.1-6,1-9-1.2c-2.9-2.2-4.5-7.4-5.1-8.9c-0.7-1.5-1.9-0.9,0.9-0.9c2.8,0,3-0.9,5.4-0.2
	c2.4,0.7,5.7,4.4,5.9,5.9C86.5,84.1,88.2,87.9,88.2,87.9"></path><path class="st3" d="M73.9,73.7c0.7,0,1.5,0.6,5.1,0.8c3.5,0.2,6.4-0.1,7.1-2.8c0.7-2.7-0.1-3.3,1.4-5l1.6-1.7c0,0-3-0.2-7.3-0.2
	c-4.3,0-6.4,4.2-7,6C74.2,72.6,73.9,73.7,73.9,73.7"></path><path class="st4" d="M72,73.7c0,0-1.6-1.9-4.9-2c-3.4-0.1-7-1.9-6.9-5.4c0.1-3.5-1-5.5-1-5.5s-0.1,0.5,2.8,0.4c2.9-0.1,7,2,8.1,4.9
	C71.2,69,72,73.7,72,73.7"></path><path class="st5" d="M51.7,77.5c0,0,4.5-4.2,5.9-7.1c1.4-2.9,1.8-4.6,0.2-6.8c-1.6-2.1-2.2-3.8-2.2-3.8s-2.5,3.5-4.2,4.3
	c-1.6,0.8-3.5,3.7-2.7,5.5C49.5,71.5,51.7,77.5,51.7,77.5"></path><path class="st6" d="M59.1,57.8c0,0.1,2.5,1.2,5.6,1.7c3.1,0.5,4.7,0.5,6-1c1.3-1.5,2.1-3.1,3-4.8c0.9-1.8,1-2.5,1.8-2.6
	c0.7-0.1-0.9,0.6-4.3-0.4s-5-1.9-6.4-0.9c-1.4,1.1-1.5,3.1-2.7,4.7C61,56.1,59.1,57.8,59.1,57.8"></path><path class="st0" d="M30.4,62.3c2.5-0.1,7.1-1.2,10.3-2"></path><path class="st0" d="M33.8,69c1.3-3.4,4.2-7.7,7.5-9.9"></path><path class="st0" d="M40.5,70c-1.9-3.8-4.1-6.9-0.3-9.6"></path><path class="st0" d="M47.4,54.6c3.1-4.1,7.1-8,10.7-9.6"></path><path class="st0" d="M44.3,46.3c5.3,0.4,13.3-1.2,15-1.4"></path><path class="st0" d="M54.4,53.3c-1-3.1-2.6-4.9,2.5-8"></path><path class="st1" d="M25.4,56.9c2-0.4,2.4-1.4,6.1,1.9l3.6,3.3c0,0-0.8,0.7-1.6,1.5c-0.9,0.8-3.8,4.2-7.2,2.7
	c-3.5-1.4-5.4-2.7-5.9-3.2c-0.5-0.5-2.7-1.8-3.3-2.2"></path><path class="st2" d="M24.8,80.7c1-2.5-1.3-6,0.7-9c2-3,7.2-4.8,8.7-5.6c1.5-0.7,0.8-1.9,0.9,0.9c0.1,2.8,1.1,3,0.5,5.4
	c-0.5,2.5-4.1,5.9-5.6,6.2C28.5,78.9,24.8,80.7,24.8,80.7"></path><path class="st3" d="M38.3,65.8c0,0.7-0.6,1.6-0.6,5.1c0,3.5,0.4,6.3,3.2,6.9c2.7,0.6,3.2-0.3,5.1,1.2l1.8,1.5c0,0,0-3.1-0.1-7.3
	c-0.2-4.3-4.5-6.2-6.4-6.7C39.4,66,38.3,65.8,38.3,65.8"></path><path class="st4" d="M38.2,63.8c0,0,1.8-1.7,1.7-5c0-3.4,1.5-7.1,5.1-7.1c3.5-0.1,5.5-1.2,5.5-1.2s-0.5-0.1-0.2,2.9
	c0.3,2.9-1.6,7.1-4.5,8.3C42.9,62.8,38.2,63.8,38.2,63.8"></path><path class="st5" d="M33.3,43.8c0,0,4.4,4.2,7.4,5.5c3,1.3,4.7,1.6,6.8-0.2c2.1-1.8,3.7-2.4,3.7-2.4s-3.7-2.4-4.5-3.9
	c-0.9-1.6-3.9-3.3-5.6-2.4C39.2,41.3,33.3,43.8,33.3,43.8"></path><path class="st9" d="M53.4,50.2c-0.1,0-1.1,2.6-1.4,5.7c-0.3,3.1-0.3,4.7,1.3,5.9c1.6,1.2,3.2,2,5,2.8c1.8,0.8,2.5,0.9,2.7,1.6
	c0.2,0.7-0.6-0.9,0.1-4.3c0.8-3.4,1.7-5,0.5-6.4c-1.1-1.4-3.2-1.3-4.8-2.4C55.2,52,53.4,50.2,53.4,50.2"></path><path class="st0" d="M48.5,20.8c-0.3,2.5,0.1,7.2,0.3,10.5"></path><path class="st0" d="M41.4,23.1c3.1,1.8,7,5.4,8.6,8.9"></path><path class="st0" d="M39.3,29.4c4-1.3,7.5-3,9.5,1.2"></path><path class="st0" d="M53.5,38.7c3.6,3.6,6.8,8.3,7.8,12.1"></path><path class="st0" d="M62.1,36.9c-1.2,5.2-0.9,13.4-0.9,15"></path><path class="st0" d="M53.7,45.9c3.2-0.5,5.2-1.8,7.5,3.8"></path><path class="st1" d="M54.6,16.6c0,2.1,1,2.6-2.8,5.7l-3.8,3.1c0,0-0.6-0.9-1.2-1.8c-0.7-1-3.6-4.4-1.6-7.6c2-3.2,3.5-4.9,4.1-5.3
	c0.6-0.5,2.2-2.4,2.6-2.9"></path><path class="st7" d="M31.2,12.3c2.3,1.4,6.1-0.4,8.8,2.1c2.7,2.5,3.6,7.9,4.1,9.4c0.5,1.6,1.8,1.1-1,0.8c-2.8-0.3-3.1,0.6-5.4-0.3
	c-2.3-0.9-5.2-5-5.2-6.5C32.4,16.2,31.2,12.3,31.2,12.3"></path><path class="st2" d="M43.9,27.9c-0.7-0.1-1.5-0.8-5-1.4c-3.5-0.5-6.3-0.5-7.3,2c-1,2.6-0.2,3.3-1.9,4.8L27.9,35c0,0,3,0.5,7.2,1
	c4.2,0.5,6.8-3.5,7.6-5.2C43.5,29,43.9,27.9,43.9,27.9"></path><path class="st4" d="M45.8,28.2c0,0,1.4,2,4.7,2.5c3.3,0.5,6.7,2.6,6.2,6.1c-0.5,3.5,0.4,5.6,0.4,5.6s0.1-0.5-2.8-0.7
	c-2.9-0.2-6.8-2.7-7.5-5.8C46,32.9,45.8,28.2,45.8,28.2"></path><path class="st5" d="M66.3,26.5c0,0-4.9,3.7-6.6,6.4c-1.7,2.7-2.3,4.4-0.9,6.7c1.4,2.3,1.8,4,1.8,4s2.9-3.3,4.6-3.9
	c1.7-0.6,3.9-3.3,3.2-5.2C67.9,32.7,66.3,26.5,66.3,26.5"></path><path class="st6" d="M56.9,45.3c0-0.1-2.4-1.5-5.4-2.3c-3-0.8-4.6-1-6.1,0.4c-1.4,1.4-2.4,2.8-3.5,4.5c-1.1,1.6-1.3,2.4-2,2.4
	c-0.7,0.1,1-0.5,4.2,0.8c3.2,1.3,4.7,2.4,6.3,1.5c1.5-0.9,1.8-2.9,3.1-4.4C54.9,46.8,56.9,45.3,56.9,45.3"></path><path class="st8" d="M68.6,52.4c-2.5-0.6-7.1-0.9-10.4-1.2"></path><path class="st8" d="M67.3,45c-2.2,2.9-6.3,6.1-10.1,7.3"></path><path class="st8" d="M61.3,42.1c0.7,4.2,1.9,7.8-2.5,9.3"></path><path class="st8" d="M50,54.8c-4.1,3-9.2,5.6-13.1,6"></path><path class="st8" d="M50.6,63.6c-4.9-1.9-13.1-2.8-14.7-3"></path><path class="st8" d="M43,54c0.1,3.3,1.1,5.4-4.8,6.9"></path><path class="st8" d="M71.8,59c-2-0.2-2.7,0.6-5.2-3.6l-2.5-4.2c0,0,0.9-0.4,2-0.9c1.1-0.5,4.8-2.9,7.7-0.5c2.9,2.4,4.3,4.2,4.7,4.8
	c0.4,0.6,2.1,2.5,2.5,3"></path><path class="st8" d="M79.4,36.4c-1.7,2.1-0.5,6.1-3.4,8.4c-2.8,2.3-8.3,2.5-9.9,2.8c-1.6,0.3-1.3,1.6-0.6-1.1
	c0.7-2.7-0.1-3.1,1.1-5.3c1.2-2.2,5.7-4.4,7.2-4.2C75.3,37.1,79.4,36.4,79.4,36.4"></path><path class="st8" d="M62.1,46.8c0.2-0.7,1-1.3,2-4.7c1-3.4,1.4-6.2-1-7.5c-2.4-1.3-3.2-0.7-4.5-2.6l-1.3-2c0,0-0.9,2.9-2,7
	c-1.1,4.1,2.5,7.2,4.1,8.2C61.1,46.2,62.1,46.8,62.1,46.8"></path><path class="st8" d="M61.6,48.6c0,0-2.2,1.1-3.1,4.3c-0.9,3.2-3.5,6.3-7,5.3c-3.4-1-5.6-0.4-5.6-0.4s0.5,0.2,1.1-2.7
	c0.6-2.9,3.7-6.3,6.8-6.6C56.9,48.2,61.6,48.6,61.6,48.6"></path><path class="st8" d="M60.4,69.2c0,0-3-5.3-5.4-7.4c-2.4-2.1-4-2.9-6.5-1.8c-2.5,1.1-4.3,1.2-4.3,1.2s2.8,3.3,3.2,5.1
	c0.4,1.8,2.7,4.3,4.7,3.9C54,69.9,60.4,69.2,60.4,69.2"></path><path class="st8" d="M43.1,57.2c0.1,0,1.8-2.2,3-5c1.2-2.9,1.6-4.5,0.5-6c-1.1-1.6-2.5-2.8-3.9-4.1c-1.5-1.3-2.1-1.6-2.1-2.3
	c0-0.7,0.4,1-1.4,4.1c-1.7,3-3.1,4.3-2.4,6c0.7,1.7,2.7,2.2,3.9,3.7C41.9,55,43.1,57.2,43.1,57.2"></path><path class="st10" d="M45.1,29.9c-2.5,0-14.5-2.5-16.5-4.3c-2-1.8-2.2-4.3-1.9-5.4s1.1-2.7,1.6-4.2c0.4-1.5,1.8-2.8,3.2-3.8
	c1.4-0.9,3.3-1.8,3.9-2.2c0.6-0.3,4.1-1,4.9-1c0.9,0,3.1,0.7,3.7,0.8c0.6,0.1,1.9,0.3,2.8,1c0.8,0.7,1.4,3.8,1.6,4.6
	c0.2,0.8,0.6,4,0.6,5.4c0,1.4-0.1,3.9-0.1,5c0.1,1.1-0.4,3.2-0.4,3.2L47.2,30L45.1,29.9z"></path><path class="st11" d="M46.8,28.5c0,0-1.7-5.2-1.9-8.6c-0.2-3.3-0.4-5.3,0.4-7.4c0.8-2.1,2.4-4.3,3.5-4.4c1-0.1,7.6,0.7,11,3
	c3.3,2.3,5.8,6.2,6.2,7.7c0.4,1.5,0.5,4.3,0.2,5.2c-0.3,0.9-1.7,2.5-2.6,3.1c-1,0.6-3.7,2.2-4.1,2.3C59,29.6,49.6,30,49,29.9
	C48.3,29.8,46.8,28.5,46.8,28.5z"></path><path class="st12" d="M47.2,30c0,0,7.5-2,8.7-2.2c1.3-0.3,9.7-0.1,10.3,0.1s3,1.7,3.2,3.6c0.2,1.9,0.6,3.3,0.1,5.6s-0.5,3.6-1.2,4.8
	c-0.7,1.2-1.2,2.3-2.4,3.1c-1.2,0.8-2.4,1.9-3.9,2.8c-1.5,0.9-2.8,0.8-3.7,0.9c-1,0.1-3.1,0.3-3.8,0s-4.2-5.3-5-6.4
	s-2.5-5.2-2.6-5.6c-0.1-0.4-0.3-2.2-0.5-2.8S47.2,30,47.2,30z"></path><path class="st11" d="M48.3,32.6c0,0,3.9,5.1,4.2,6.8c0.2,1.7,0.6,3.2,1,3.9c0.3,0.7,1.3,1.4,1.5,3.4c0.2,2,0.2,3.2-1.1,5.1
	c-1.4,1.9-5.2,3.2-6.6,3.2c-1.4,0-4.1-0.3-4.8-0.5c-0.7-0.2-6.2-3.2-6.8-3.8c-0.6-0.6-1.8-2.6-1.9-3.3c-0.2-0.7-0.6-1.8-0.6-2.7
	c0-0.9,0.5-2.4,1.5-4c1-1.7,2-3,3.8-4.3c1.8-1.4,2.2-1.9,3.2-2.4c1-0.5-0.5-0.1,1.4-0.5C44.8,32.9,48.3,32.6,48.3,32.6z"></path><path class="st12" d="M47.2,31c0,0-6.2,9.1-7.7,10.1c-1.4,1-5.8,5.1-7.3,5.1c-1.4,0-6.4-3.9-7.1-5.2c-0.6-1.3-1.9-4.1-1-7.2
	c0.9-3.1,1.2-4.1,1.4-5.4c0.2-1.3,0.3-2.4,0.7-2.7c0.4-0.3,0.1-0.7,1.4-1.1s2.7-0.4,5.2,0.1c2.5,0.6,4.4,1.1,6.4,1.7
	s4.5,1.9,5.4,2.3C45.6,29.2,47.2,31,47.2,31z"></path><path class="st13" d="M48.2,34.4c0,0,0.8,1.9,0.5,4.5s-0.9,5.4-0.9,5.4l0.9-3.3l0.4-1.7c0,0,0.4,1.3,0.4,2.2s0.1,2.3,0.1,2.3
	l-0.3-5.7L49,35.2c0,0,1.3,1.5,1.5,3.3c0.3,1.8,0.8,6.2,0.8,6.2s-0.1-4.7-0.2-5.2c-0.1-0.5-0.6-2.9-0.6-2.9L49.7,35l1.5,2.4l3.5,4.5
	c0,0-2.8-5.1-3.2-5.3c-0.4-0.2-2.1-2.4-2.1-2.4l0.6-0.6c0,0,5,6.4,5.3,6.6c0.3,0.2,2.2,2,2.2,2l-2.2-2.7l4.5,2.6c0,0-8-5.5-9.3-8.8
	c-1.3-3.2-0.5-1.3-0.5-1.3s1.1,0.8,1.4,1.1c0.3,0.3,2.7,2.6,3,2.8c0.2,0.1,4.9,4.7,5,4.8c0.1,0-5.2-5.6-5.2-5.6s2.8,3.2,8.9,5.1
	s4,1.1,4,1.1s-6.4-1.6-8.8-3.5s-5.1-4-5.4-4.2c-0.3-0.2-2.3-1.7-2.3-1.7s3.4,1.8,3.7,2c0.3,0.3-2.7-1.8-3.2-2.1
	c-0.6-0.3,0.5-0.2,0.6-0.2c0.1,0,2.1,0.9,2.9,1.5c0.8,0.7,3.3,2.4,3.6,2.5c0.3,0.1,0.8,0.4,0.8,0.4s-2.2-1.3-2.5-1.7
	c-0.3-0.4-1.9-1.5-1.9-1.5s3,1.1,3.5,1.4s2.8,0.9,2.8,0.9l0.7-0.1c0,0-2.2-0.5-2.9-0.8c-0.7-0.3-4.5-1.8-4.7-1.9
	c-0.2-0.1-1.6-0.8-1.8-0.9s-0.7-0.2-0.7-0.2s1.1-0.6,1.6-0.3c0.5,0.3,4.3,1.5,5,1.7s3,1.1,3,1.1L56.9,32l5.2,0.4c0,0-6.2-0.9-6.3-1
	c-0.1-0.1-2.1-0.6-2.3-0.7c-0.2-0.1-0.7-0.2-0.7-0.2s2.8,0.3,3.2,0.3c0.4,0,4.5-0.3,4.5-0.3s-4.8,0-5.4-0.2
	c-0.6-0.2-1.6-0.6-1.6-0.6s3.5-0.1,3.8-0.2c0.3-0.1,4.6-1.7,4.6-1.7s-8.5,1.9-9.6,1.7c-1.1-0.2,6.6-1.6,6.6-1.6l0.1-1.5
	c0,0-6.2,2.4-6.6,2.6c-0.4,0.2-1.4,0.6-1.4,0.6l-0.6,0c0,0,1.1-0.8,1.6-1.2c0.5-0.4,2.5-1,3.8-1.8c1.3-0.7,3.1-2,3.1-2
	s-3.3,1.8-3.5,1.8c-0.2,0.1-1.4,0.4-1.4,0.4s2.3-1.6,2.7-2s2.3-2.6,2.3-2.6s-4.3,4-5.6,4.8s-2.3,1.4-2.6,1.7
	c-0.3,0.3-0.9,0.8-0.9,0.8s0.5-0.9,0.5-1s2.7-2.1,3.4-2.7c0.7-0.6,2.1-1.9,2.7-2.5c0.6-0.6-3.5,2.9-3.8,3c-0.3,0.2-1.9,1.3-2.2,1.7
	S49.8,29,49.8,29s0.5-1.3,1.2-2s2.1-2.1,2.7-2.4c0.6-0.4,3-2.9,3.2-3.1c0.2-0.2,0.9-1.3,0.9-1.3s-2.2,2.3-2.7,2.7
	c-0.5,0.5,1.4-2.1,1.4-2.1s-1.5,1.9-2.1,2.4s-2.7,2.4-2.9,2.7s-1.1,1.4-1.1,1.4s2.6-3.8,2.9-4.2s0.5-1,1.2-1.8
	c0.7-0.8,1.7-2.4,1.7-2.4s-1.6,1.7-1.8,2s-0.9,1.2-1.5,2.1c-0.6,1-2.1,3.3-2.3,3.5c-0.2,0.1-0.5,0.9-0.6,1.2
	c-0.1,0.3-0.3,0.8-0.3,0.8s-0.4,0.1-0.2-0.6c0.3-0.7,0.4-1.4,0.9-2.3c0.5-0.9,0.7-1.2,0.7-1.2s-1.3,1.9-1.5,2.4S49,28.2,49,28.2
	s-0.2,0,0-1c0.3-1.1,0.2-1.3,0.8-2.2c0.6-0.9,1.2-2.4,1.9-3.3c0.7-1,2-2.7,2.1-2.8c0.1-0.1,0.6-1.1,0.6-1.1s-0.6,0.7-0.9,1
	c-0.3,0.2-1.6,2.2-1.7,2.3s-0.3,0.3-0.3,0.3s1.3-2.8,1.5-3.2c0.2-0.3,0.6-1.8,0.7-2c0.1-0.1-0.3,0.3-0.4,0.5s-2.1,4.9-2.5,5.7
	c-0.4,0.8-1.8,3.6-2,4c-0.1,0.4-0.2,0.8-0.2,1c0,0.2-0.2-1.6,0-2.2s0.8-2.8,1-3.4c0.2-0.6,1-3.1,1.5-4c0.5-1,0.3-0.9,0.2-0.8
	c-0.1,0.1-1.6,3.4-1.8,4c-0.2,0.6-1.1,3.9-1.2,4.2c-0.1,0.3-0.1,1.7-0.1,1.9c0,0.2,0.1,0.6,0,0.5c-0.1-0.1-0.6-1.3-0.5-1.7
	c0-0.4,0-3.3,0.2-4c0.3-0.7,1.5-4.9,1.5-4.9s-1.2,3.3-1.4,3.7c-0.2,0.3-0.3,0.9-0.3,0.9s-0.1-1.9-0.1-2.2s0.4-1.5,0.4-1.5
	s-0.6,3.8-0.7,4.1c0,0.3,0,2.7,0.1,3.1s-0.1,1.3-0.1,1.3s-0.6-0.6-0.5-1.5s-0.1-2.2-0.1-2.6c0-0.4-0.1-2.3-0.1-2.4s-0.2,1.2-0.2,1.6
	c0,0.3,0.2,3.8,0.2,4.1c0,0.2,0.2,1.1,0.2,1.1s-0.2,0-0.2,0s-0.9-2.8-0.9-3.6c0.1-0.8,0.2-4.4,0.2-4.9s0.2-2,0.2-2s-0.5,3.5-0.5,3.9
	s0,2.3,0,2.3l-1-3.7c0,0,0.2,1.1,0.2,1.5c0,0.4,0.8,3.5,0.8,3.6c0,0.1,0.5,2.3,0.6,2.5c0.1,0.2,0.3,1.1,0.4,1.3
	c0.1,0.2-0.2,0.1-0.2,0.1s-1.2-1.7-1.3-2.4c-0.1-0.7-1.2-4.4-1.4-5.3s-1-2.4-1-2.4s0.7,2.6,0.8,2.9c0.1,0.3,0.7,2.8,0.7,2.8l0.3,1
	c0,0-2.3-5.3-2.7-5.9c-0.4-0.6-0.8-0.9-0.8-0.9s0.6,0.8,0.8,1.5s1.8,3.9,1.8,4.1c0,0.1,1.7,3.3,1.8,3.4c0,0.1,1.3,1.6,1.4,1.9
	c0.1,0.3-0.6,0.1-0.6,0.1s-1.1-0.9-1.3-1.1s-2.2-2.7-2.5-3.4c-0.4-0.8-3.1-5-3.1-5s3.1,5.5,3.2,5.7c0.1,0.2,2.6,3.6,3.5,4.1
	s1.1,0.8,1.1,0.8s-2.7-2-2.9-2.3s-2.2-1.9-2.4-2.1c-0.2-0.2-1-0.8-1.6-1.9c-0.6-1.1-1.9-2.7-1.9-2.7s2.2,3.6,2.2,3.6
	c0.1,0.1,3.5,3.2,3.7,3.4c0.2,0.2,1.4,1.2,1.4,1.2l-1-0.3c0,0-2.4-1.4-2.7-1.7c-0.2-0.2,1.9,2,2.8,2.1s0.9,0.6,0.9,0.6
	s-2.6-1.3-3.1-1.6c-0.5-0.3-2.2-1.6-2.4-1.6c-0.2-0.1-3.7-3.7-4.1-4.2c-0.4-0.5-0.7-0.9-0.7-0.9s2.6,3.3,2.7,3.4
	c0.1,0.1,2.6,2.6,3,2.8c0.4,0.2,2.8,1.6,2.9,1.6c0.1,0,1.3,0.5,1.3,0.5s-2.7-0.5-3-0.6c-0.3-0.1-2.4-0.7-3.3-1.3
	c-0.9-0.6-2.7-1.4-2.7-1.4s4.1,2.4,4.3,2.5c0.2,0.1,1.7,0.7,1.8,0.7c0.1,0-1.1,0-1.1,0s-4.1-0.9-4.6-1.1c-0.5-0.2-1.4-0.3-1.4-0.3
	s4.5,1.5,4.8,1.6s1.5,0.3,1.5,0.3l1.1,0.1l0.1,0.3l-2,0c0,0-4.1-0.7-4.5-1c-0.4-0.3-2.8-0.8-3.3-1.1c-0.5-0.2-1.2-0.5-1.2-0.5
	s4.1,1.8,4.4,1.9c0.3,0.1,4.3,1,4.9,1c0.6,0.1,2.2,0,2.4,0c0.2,0,0.8-0.1,0.8-0.1s-0.9,0.5-1.2,0.5c-0.3,0-4.1,0.3-6,0.2
	c-2-0.2-3.5-0.1-3.5-0.1s5.8,0.6,6.1,0.6c0.4,0,0.8,0.1,0.8,0.1s-5.6,0.4-6.1,0.5c-0.5,0.1,5.4-0.1,7.3-0.6c1.9-0.5,2.8-0.4,2.8-0.4
	l0.8-0.2L44,31.8c0,0-1.8,0.9-2,0.9c-0.2,0-3.1,1.3-4.1,1.3s-5.2,0.4-5.2,0.4s5.9,0,6.5-0.4c0.7-0.4,3.6-1.3,3.8-1.4
	c0.2-0.1,0.5-0.1,0.5-0.1s-2.6,1.5-3.1,1.6c-0.5,0.1-3.2,1.1-3.4,1.1c-0.3,0.1-1.8,0.4-1.9,0.4s2-0.1,2.5-0.2
	c0.5-0.1,3.2-1.1,3.8-1.3c0.6-0.2,2.1-1.1,2.4-1.4c0.3-0.3,1-0.8,1-0.8s0.6-0.1,0.4,0.1s-0.8,1.1-0.8,1.1s-1.1,1-1.5,1.3
	c-0.5,0.3-4.1,2.2-4.9,2.4c-0.8,0.2-3.7,1.3-3.7,1.3s4.7-1.3,5.1-1.5c0.4-0.2,1.3-0.6,1.3-0.6l-1.5,1.2c0,0-2,1.3-2.7,1.5
	c-0.7,0.2-1,0.5-1,0.5s2.5-0.9,2.7-1c0.2-0.1,2.9-2,3-2.1s1.3-1.1,1.4-1.2c0.1-0.1,1.9-1.7,1.7-1.2c-0.1,0.3-0.7,1-1.3,1.5
	c-0.6,0.5-1.9,2.3-2.8,3c-0.9,0.8-2.1,1.8-2.1,1.8s1.4-0.8,2.1-1.3c0.6-0.5,2.1-2.1,2.2-2.2c0.1-0.1,0.6-0.4,0.9-0.9
	c0.3-0.5,0.6-0.6,0.5-0.5c-0.1,0.2-0.5,1.2-0.9,1.7c-0.4,0.5-1.7,1.9-2.1,2.3s-1.5,1.7-1.5,1.7l1.5-1.5l-1,1.7c0,0,1.1-1.4,1.2-1.5
	c0.1-0.1,0.7-0.6,1-1s1.5-1.7,1.6-1.9c0.1-0.2,0.8-1,0.9-1.1c0.1-0.1,0.8-0.6,0.8-0.6s0.1,0.5-1,1.7s-2.4,2.8-3,3.6s-1,1.3-1.5,2.1
	c-0.6,0.8-0.6,1-1,1.9c-0.4,0.8-0.7,1.7-0.7,1.7s0.9-1.7,1.4-2.5s1.5-2.5,1.8-2.9c0.3-0.3,2.7-3.1,2.9-3.3c0.1-0.2,1.3-1.5,1.5-1.8
	c0.1-0.3,0.4-0.9,0.4-0.9c0-0.1,0.3-0.7,0.3-0.7s0.1,0.3-0.1,0.8c-0.2,0.6-1.2,3.2-1.6,3.9c-0.4,0.7-0.9,1.8-1.5,2.4
	s-1.6,1.8-1.6,1.8l1.8-1.8l-1,2.8c0,0,1.5-3,1.6-3.5c0.2-0.5,1.2-2.7,1.4-3.2s0.8-1.8,0.9-2c0.1-0.2,0.4-0.8,0.4-1.1
	s0.2-0.4,0.2-0.4s-0.1,0.9-0.2,1.3s-0.5,2.1-0.8,2.8C45.6,38.5,45,40,45,40s2-5.1,2.1-5.4c0.1-0.4,0.2-1,0.2-1s-0.1,1.7-0.3,2.2
	c-0.1,0.4-0.8,2.6-1.1,3.4c-0.3,0.7-0.7,2.3-1.1,3.1c-0.4,0.8-0.7,1.7-0.7,1.7s1.1-2,1.3-2.6s0.8-2.3,0.9-2.5
	c0.1-0.1,0.8-2.5,0.8-2.5s-0.6,3.5-0.7,3.9c-0.1,0.4-0.2,1.6-0.3,1.9c-0.1,0.3-0.3,1.2-0.3,1.4c-0.1,0.2,0.5-1.1,0.6-1.4
	s0.5-2.1,0.7-2.7c0.1-0.6,0.5-3.8,0.5-3.9c0-0.1,0.1-1,0.1-1s0.2,0.2,0.2,0.4s0,2.4,0,2.6s-0.2,1.4-0.3,1.6s0.3-0.6,0.4-1
	s0.1-2.3,0.1-2.5c0-0.2,0-1,0-1L48.2,34.4z"></path><path class="st14" d="M44.6,29.7c0.1,0,2.2-0.8,2.6-1.2c0.4-0.4,0.7-0.9,0.7-1c0-0.2,1.9,1.8,2.4,2.2s0.8,0.8,0.9,0.9
	c0.2,0.1,0.2,0.4,0.2,0.4c0,0.1-1.1,0.4-1.3,1.3c-0.2,0.9-0.3,1.3-0.5,1.7c-0.2,0.4-0.6,0.5-0.6,0.5c-0.1,0-1.6-0.9-1.9-0.9
	s-1.6,0.3-1.8,0.1c-0.3-0.2-0.3-1-0.4-1.2s-0.2-0.6-0.2-1s-0.1-1.1-0.1-1.1L44.6,29.7z"></path><path class="st15" d="M46.8,33.2c0.1,0,0.3,0,0.4,0c0,0-0.1-0.1-0.1-0.1C46.9,33,46.8,33.2,46.8,33.2z"></path><path class="st16" d="M47,33.2c0.1,0,0.1,0.1,0.1,0.1c0.2,0,0.3,0,0.3,0c0-0.1,0.6-0.2,0.8-0.2c0.2,0,0.4-0.1,0.2-0.4
	c-0.1-0.3,0-0.2,0.4-0.5c0.4-0.3,0.4-0.2,0.4-0.5c0-0.3-0.2-0.4-0.3-0.8c-0.1-0.4,0-0.8-0.1-1c-0.1-0.3-0.4,0-1.1-0.1
	c-0.3,0-0.3-0.1-0.3-0.3c-0.1,0.1-0.2,0.1-0.2,0.1c0,0,0-0.1,0.1-0.2c0.1-0.1,0.1-0.3,0-0.3c-0.1,0-0.2,0.1-0.3,0.1
	c-0.1,0.1-0.2,0-0.2,0.1c0,0.1,0.2,0.2,0.1,0.3C47,29.9,47,30.3,46.9,30c-0.1-0.3-0.5-0.3-0.5-0.4c0-0.1,0-0.1,0-0.1l-0.1,0.1
	c0.1,0.3,0.1,0.6,0.1,0.8c-0.1,0.4-0.5,1-0.6,1.1c-0.2,0.1-0.1,0.4,0.1,0.4c0.2,0,0.7,0.5,0.7,0.6c0,0.1,0.5,0.1,0,0.4
	c-0.1,0-0.1,0.1-0.2,0.1c0.1,0.1,0.2,0.3,0.3,0.4c0,0,0.1,0,0.1,0C46.8,33.2,46.9,33,47,33.2z"></path><path class="st17" d="M47.8,29.8c0.7,0,1-0.2,1.1,0.1c0.1,0.3,0,0.6,0.1,1c0.1,0.4,0.3,0.5,0.3,0.8c0,0.3,0,0.1-0.4,0.5
	c-0.4,0.3-0.5,0.2-0.4,0.5c0.1,0.3,0,0.4-0.2,0.4c-0.2,0-0.8,0.1-0.8,0.2c0,0-0.1,0-0.3,0c0.1,0.1,0.2,0.3,0.4,0.3
	c0.3,0,0.7,0,1-0.1c0.3-0.1,0.2,0.2,0.5-0.2c0.3-0.4,0.3-0.5,0.4-0.7c0.1-0.2,0.3-0.6,0.3-0.9c0-0.3-0.1-0.3-0.1-0.4
	c0-0.1,0.3-0.3,0.1-0.6c-0.2-0.3-0.5-0.2-0.5-0.4c0.1-0.2,0.1,0,0.1-0.3c0-0.3-0.1-0.5-0.1-0.5c-0.1,0-0.1,0.1-0.2,0.1
	c-0.2,0-0.3-0.5-0.5-0.5c-0.2,0-0.2,0.2-0.3,0.3c-0.1,0.1-0.3-0.2-0.4,0c-0.1,0-0.1,0.1-0.2,0.1C47.5,29.7,47.6,29.8,47.8,29.8z"></path><path class="st17" d="M46.6,32.4c0-0.1-0.6-0.5-0.7-0.6c-0.2,0-0.2-0.3-0.1-0.4c0.2-0.1,0.5-0.6,0.6-1.1c0-0.2,0-0.5-0.1-0.8
	l-0.2,0.1c-0.2,0.2,0,0.3-0.2,0.5c-0.1,0.2,0,0.3-0.2,0.4c-0.2,0.1-0.3,0.3-0.3,0.3c-0.1,0-0.2,0.1-0.3,0.2
	c-0.1,0.1-0.3-0.2-0.2,0.1c0.1,0.3,0.1,0.3,0.3,0.4c0.1,0.1,0,0.2,0.2,0.4c0.2,0.2,0.1-0.3,0.4,0.1c0.3,0.5,0.3,0.5,0.5,0.6
	c0,0,0,0,0.1,0.1c0.1-0.1,0.1-0.1,0.2-0.1C47,32.4,46.6,32.5,46.6,32.4z"></path><path class="st14" d="M47.3,30c0.1,0.1,0,0.6,0,0.6L47,30.4c0,0-0.2,0.2,0.1,0.6c0.3,0.3,0.5,0.3,0.5,0.3s-0.6-0.2-0.7-0.1
	s-0.7,0.1-0.7,0.1l0.7,0.6c0,0-0.5,0.3-0.5,0.2c0.1,0,1.2-0.4,1.2-0.4L47,32.5l0.7-0.7l-0.1,1.2l0.4-1.1l0.5,0.4L48,31.5l1-0.2
	l-0.9-0.1l0.8-0.9L48,31l0.2-0.7l-0.4,0.4l-0.2-0.7"></path><path class="st18" d="M78.8,66c0.8,2,6.9,10.6,9,11.6c2.1,1,4.2,0.3,4.9-0.3c0.7-0.6,1.8-1.8,2.8-2.7c1-0.9,1.6-2.4,1.9-3.8
	s0.3-3.2,0.4-3.8c0.1-0.6-0.6-3.5-0.9-4.2s-1.6-2.2-1.9-2.6c-0.3-0.4-0.9-1.4-1.7-1.8c-0.9-0.4-3.5,0.2-4.2,0.3s-3.3,0.9-4.4,1.3
	s-3,1.4-4,1.8c-0.9,0.3-2.4,1.4-2.4,1.4L78,64.4L78.8,66z"></path><path class="st11" d="M79.3,64.2c0,0,4.7-0.4,7.4-1.4c2.7-1,4.3-1.5,5.7-2.8c1.3-1.3,2.6-3.4,2.3-4.2c-0.3-0.9-3.2-5.8-6.1-7.6
	c-3-1.8-6.8-2.5-8.1-2.3c-1.3,0.2-3.6,1-4.2,1.6c-0.6,0.6-1.4,2.1-1.6,3.1c-0.2,1-0.5,3.7-0.4,4s3,7.9,3.3,8.4S79.3,64.2,79.3,64.2z
	"></path><path class="st12" d="M78,64.4c0,0-1-6.5-1.2-7.6c-0.2-1.1-3.2-7.7-3.5-8.1c-0.3-0.4-2.3-1.8-3.9-1.3c-1.6,0.5-2.8,0.7-4.4,1.9
	c-1.6,1.2-2.7,1.6-3.3,2.6c-0.7,0.9-1.4,1.7-1.6,3s-0.7,2.6-0.9,4c-0.3,1.5,0.3,2.5,0.5,3.3c0.3,0.8,0.8,2.6,1.3,3
	c0.4,0.4,5.6,1.5,6.8,1.8c1.1,0.2,5,0.2,5.3,0.1c0.3,0,1.8-0.5,2.4-0.6C75.9,66.2,78,64.4,78,64.4z"></path><path class="st11" d="M75.6,64.4c0,0-5.4-1.4-6.8-1c-1.4,0.4-2.7,0.6-3.4,0.6s-1.6-0.6-3.2-0.1c-1.6,0.5-2.6,0.9-3.7,2.6
	s-0.7,5.2-0.3,6.3c0.5,1.1,1.6,3.1,2.1,3.6c0.4,0.5,4.7,3.8,5.3,4.1c0.7,0.3,2.6,0.5,3.3,0.4s1.6-0.1,2.3-0.4s1.7-1.2,2.7-2.5
	c1-1.3,1.7-2.6,2.1-4.5c0.5-1.9,0.7-2.4,0.8-3.4c0.1-1,0.2,0.4,0-1.3C76.5,67.2,75.6,64.4,75.6,64.4z"></path><path class="st12" d="M77.2,64.7c0,0-5.1,8-5.4,9.5c-0.3,1.5-2.1,6.4-1.6,7.5c0.5,1.1,5.3,3.8,6.5,3.8s3.9,0.1,6-1.7
	c2.1-1.7,2.8-2.3,3.8-2.9c1-0.6,1.8-1.1,1.9-1.5c0.1-0.4,0.5-0.3,0.4-1.5s-0.6-2.3-1.8-4.1c-1.3-1.8-2.3-3.1-3.5-4.5
	c-1.1-1.4-3-2.9-3.7-3.5C79.2,65.4,77.2,64.7,77.2,64.7z"></path><path class="st13" d="M74.2,65.1c0,0-1.8,0.1-3.7,1.2c-1.9,1.1-4,2.5-4,2.5l2.3-1.8l1.2-0.8c0,0-1.2,0.1-1.9,0.5s-1.9,0.7-1.9,0.7
	l4.6-1.7l2.5-0.9c0,0-1.6-0.5-3.1-0.1C68.7,65,65,66.1,65,66.1s3.7-1.5,4.2-1.6c0.5-0.1,2.5-0.5,2.5-0.5l1.5,0.1l-2.4-0.4l-4.7-1.2
	c0,0,5,0.5,5.3,0.7C71.7,63.4,74,64,74,64l0.3-0.7c0,0-6.7-1.8-7.1-1.9C67,61.1,65,60.3,65,60.3l2.9,0.8l-3.6-2.6
	c0,0,7.1,4.4,10.1,4.4c3,0,1.2,0,1.2,0s-1-0.6-1.3-0.7c-0.3-0.1-3-1.3-3.2-1.4c-0.2-0.1-5.4-2.3-5.5-2.3c0-0.1,6.2,2.2,6.2,2.2
	s-3.5-1.1-7-5.3c-3.6-4.2-2.2-2.8-2.2-2.8s3.4,4.5,5.8,5.8c2.3,1.2,4.9,2.7,5.1,2.8c0.2,0.2,2.1,1.2,2.1,1.2s-2.6-2.1-2.9-2.2
	s2.3,1.5,2.7,1.8c0.4,0.4,0-0.5-0.1-0.5S73.8,60,73,59.6c-0.8-0.4-3-1.8-3.2-2c-0.2-0.2-0.6-0.5-0.6-0.5s1.8,1.3,2.2,1.4
	c0.4,0.1,1.8,1,1.8,1s-1.9-2-2.3-2.3c-0.4-0.3-1.7-1.9-1.7-1.9l-0.1-0.6c0,0,1.2,1.5,1.6,2c0.5,0.4,2.9,2.9,3.1,3.1
	c0.2,0.1,1.2,1,1.3,1.1c0.1,0.1,0.4,0.5,0.4,0.5s0.1-1.1-0.3-1.4c-0.4-0.3-2.6-2.9-3-3.4s-1.9-2-1.9-2l2.8,2.7l-2.1-3.9
	c0,0,2.8,4.6,2.9,4.6c0.1,0.1,1.1,1.5,1.3,1.6c0.1,0.1,0.4,0.4,0.4,0.4s-1.2-2.1-1.3-2.4c-0.1-0.3-1.3-3.7-1.3-3.7s1.6,3.8,2,4.2
	c0.3,0.4,1,1.1,1,1.1s-1.1-2.8-1.1-3.1c0-0.3-0.2-4.2-0.2-4.2s1.4,7.4,1.9,8.2c0.5,0.8-1-5.8-1-5.8l1.1-0.6c0,0,0.2,5.7,0.2,6.1
	c0,0.4,0,1.3,0,1.3l0.2,0.5c0,0,0.3-1.1,0.4-1.7c0.1-0.6,0-2.3,0.1-3.6s0.5-3.2,0.5-3.2s-0.3,3.2-0.2,3.4c0,0.2,0.1,1.2,0.1,1.2
	s0.5-2.3,0.7-2.8c0.2-0.4,1.3-2.7,1.3-2.7s-1.7,4.7-1.9,6s-0.3,2.3-0.4,2.6c-0.2,0.3-0.4,1-0.4,1s0.6-0.7,0.6-0.8s0.8-2.9,1-3.6
	c0.2-0.8,0.8-2.3,1-3c0.3-0.7-1.1,3.7-1.1,4c0,0.3-0.4,2-0.6,2.3C78,61.5,77.9,62,77.9,62s0.8-0.8,1.2-1.6s0.9-2.4,1-3
	c0.1-0.6,1.2-3.4,1.3-3.6s0.7-1.1,0.7-1.1s-1,2.5-1.2,3s1.2-1.8,1.2-1.8s-0.9,1.8-1.2,2.5c-0.3,0.6-1,3-1.1,3.2S79,61,79,61
	s2.1-3.4,2.4-3.7c0.2-0.3,0.6-0.7,1-1.6c0.4-0.8,1.3-2.2,1.3-2.2s-0.8,1.8-1,2.1c-0.1,0.3-0.6,1.1-1.2,1.9s-1.9,2.8-2,3
	c-0.1,0.2-0.5,0.7-0.7,0.9c-0.2,0.2-0.5,0.5-0.5,0.5s0.1,0.4,0.6-0.1c0.5-0.5,1-0.8,1.5-1.5c0.5-0.7,0.7-1,0.7-1s-1.1,1.7-1.4,2
	c-0.3,0.3-0.9,0.9-0.9,0.9s0,0.2,0.8-0.4c0.8-0.6,0.9-0.6,1.4-1.4c0.5-0.7,1.5-1.8,2-2.6c0.5-0.9,1.5-2.5,1.5-2.6
	c0.1-0.1,0.7-0.8,0.7-0.8s-0.4,0.7-0.5,1c-0.1,0.3-1.2,2-1.2,2.1S83.4,58,83.4,58s1.8-2,2-2.2c0.2-0.3,1.2-1.1,1.3-1.2
	c0.1-0.1-0.2,0.3-0.3,0.5c-0.1,0.1-3.1,3.3-3.6,3.9s-2.2,2.7-2.5,2.9s-0.6,0.4-0.7,0.5c-0.2,0.1,1.3-0.4,1.8-0.8
	c0.4-0.4,1.9-1.6,2.3-2c0.4-0.4,2.1-1.8,2.7-2.5c0.6-0.7,0.6-0.5,0.5-0.4c0,0.1-2.2,2.4-2.6,2.7c-0.4,0.3-2.7,2.2-2.9,2.4
	s-1.3,0.7-1.5,0.7c-0.1,0-0.5,0.1-0.4,0.1c0.1,0,1.2,0,1.5-0.2c0.3-0.2,2.6-1.1,3.1-1.6c0.5-0.5,3.4-2.9,3.4-2.9s-2.2,2.1-2.5,2.3
	c-0.2,0.3-0.6,0.6-0.6,0.6s1.5-0.5,1.8-0.7c0.2-0.2,1-0.8,1-0.8s-2.8,1.8-3,1.9c-0.2,0.1-2.2,0.9-2.5,1c-0.3,0.1-1,0.5-1,0.5
	s0.7,0.3,1.3-0.1c0.7-0.4,1.8-0.7,2.1-0.8s1.9-0.7,1.9-0.7c0.1,0-0.9,0.6-1.2,0.7c-0.3,0.1-3.1,1.1-3.3,1.2
	c-0.2,0.1-0.9,0.2-0.9,0.2c-0.1,0,0.1,0.2,0.1,0.2s2.5-0.2,3.1-0.5c0.6-0.3,3.5-1.6,3.8-1.8c0.3-0.1,1.5-0.8,1.5-0.8s-2.6,1.5-3,1.7
	C86,62.4,84.6,63,84.6,63l3.3-0.5c0,0-0.9,0.2-1.3,0.4s-3,0.6-3.1,0.6c-0.1,0-2,0.4-2.1,0.4c-0.2,0-1,0.1-1.2,0.1
	c-0.2,0,0,0.2,0,0.2s1.7,0.4,2.3,0.2c0.6-0.1,3.9-0.5,4.7-0.7s2.2-0.1,2.2-0.1S87,64,86.7,64c-0.2,0-2.4,0.4-2.4,0.4l-0.8,0.1
	c0,0,4.9,0,5.6,0.1c0.6,0.1,1,0.3,1,0.3s-0.8-0.2-1.5-0.1c-0.6,0.1-3.7-0.1-3.8,0c-0.1,0-3.2-0.3-3.3-0.2s-1.7-0.4-2-0.4
	s0.1,0.5,0.1,0.5s1.1,0.5,1.3,0.6c0.2,0.1,2.8,0.8,3.6,0.8s5,0.7,5,0.7s-5.4-0.6-5.6-0.6c-0.2,0-3.8-0.8-4.4-1.4
	c-0.7-0.6-1-0.6-1-0.6s2.5,1.5,2.8,1.5c0.3,0.1,2.3,1.1,2.5,1.2c0.2,0.1,1,0.5,2,0.6s2.8,0.6,2.8,0.6s-3.6-0.5-3.6-0.5
	c-0.1,0-3.7-1.7-4-1.8c-0.3-0.1-1.4-0.7-1.4-0.7l0.6,0.6c0,0,2,1.4,2.2,1.5c0.3,0.1-2.3-0.8-2.6-1.5c-0.4-0.7-0.8-0.5-0.8-0.5
	c-0.1,0,1.9,1.6,2.3,1.9s2,1.2,2.1,1.3s4.2,1.7,4.7,1.8c0.5,0.1,1,0.2,1,0.2s-3.5-0.9-3.6-1c-0.1-0.1-2.9-1.2-3.2-1.4
	c-0.3-0.2-2.2-1.7-2.3-1.8c0-0.1-0.8-0.8-0.8-0.8s1.3,2,1.5,2.2c0.2,0.2,1.3,1.6,2.1,2.1s2,1.6,2,1.6s-3.3-2.4-3.5-2.6
	C81,69,80,68,80,67.9c0-0.1,0.4,0.9,0.4,0.9s2.1,2.9,2.4,3.3s0.7,1,0.7,1s-2.7-3-2.9-3.2c-0.1-0.2-0.7-1.1-0.7-1.1l-0.4-0.9l-0.3,0
	l0.7,1.5c0,0,1.9,3,2.3,3.2c0.4,0.2,1.6,1.9,2,2.2c0.4,0.3,0.8,0.8,0.8,0.8s-2.8-2.6-3-2.8c-0.2-0.2-2.2-3.1-2.5-3.5
	c-0.3-0.5-0.8-1.7-0.8-1.9c0-0.1-0.2-0.7-0.2-0.7s-0.1,0.9,0,1.1s1.1,3.3,1.9,4.8c0.8,1.5,1.3,2.7,1.3,2.7S79.1,71,79,70.7
	c-0.1-0.3-0.3-0.6-0.3-0.6s1.6,4.6,1.7,5c0.1,0.4-1.8-4.3-2-6s-0.6-2.4-0.6-2.4l-0.1-0.7l-0.1,1.4c0,0-0.1,1.7,0,1.9
	c0.1,0.2,0,2.9,0.3,3.7c0.3,0.8,1.4,4.3,1.4,4.3s-2-4.6-1.9-5.3c0.1-0.7-0.2-3.3-0.2-3.5c0-0.2-0.1-0.4-0.1-0.4s-0.3,2.6-0.2,3
	c0.1,0.4,0.2,2.9,0.3,3.1s0.3,1.5,0.3,1.6c0,0.1-0.6-1.6-0.7-2.1c-0.1-0.4-0.2-2.9-0.2-3.4s0.1-2,0.3-2.4c0.1-0.4,0.3-1,0.3-1
	s-0.1-0.5-0.2-0.3s-0.6,1-0.6,1s-0.4,1.2-0.5,1.6s-0.4,4-0.3,4.7c0.1,0.7,0.2,3.4,0.2,3.4s-0.6-4.2-0.5-4.5c0.1-0.4,0-1.3,0-1.3
	L75,73.2c0,0-0.3,2-0.3,2.6c0.1,0.6-0.1,1-0.1,1s-0.1-2.2-0.1-2.5c0-0.2,0.6-3,0.6-3.1c0.1-0.2,0.4-1.4,0.5-1.5
	c0-0.1,0.7-2.1,0.3-1.8c-0.2,0.2-0.6,0.9-0.8,1.6c-0.2,0.6-1.1,2.3-1.4,3.2c-0.3,0.9-0.7,2.2-0.7,2.2s0.1-1.4,0.3-2.1s1-2.3,1-2.4
	c0-0.1,0.1-0.6,0.4-1.1c0.3-0.4,0.3-0.7,0.2-0.5c-0.1,0.1-0.7,0.8-1,1.3c-0.3,0.5-0.9,2-1.1,2.4C72.7,73,72,74.3,72,74.3l0.7-1.7
	l-1,1.4c0,0,0.7-1.3,0.8-1.5c0.1-0.1,0.3-0.7,0.4-1.1s0.9-1.8,0.9-1.9c0.1-0.1,0.5-0.9,0.5-1s0.2-0.8,0.2-0.8s-0.4,0.1-1,1.4
	c-0.6,1.4-1.4,2.9-1.8,3.6c-0.4,0.7-0.7,1.2-1.2,1.9c-0.5,0.7-0.6,0.8-1.1,1.5c-0.5,0.6-1.1,1.1-1.1,1.1s1-1.3,1.5-1.9
	c0.5-0.6,1.5-2,1.7-2.4s1.5-3.2,1.6-3.4s0.7-1.6,0.9-1.8s0.5-0.6,0.6-0.6c0.1-0.1,0.5-0.5,0.5-0.5s-0.3,0-0.6,0.4
	c-0.4,0.4-2.1,2-2.5,2.5s-1.1,1.3-1.4,2c-0.3,0.6-0.9,1.9-0.9,1.9l0.8-2.1L68.7,73c0,0,1.9-2.2,2.2-2.5c0.3-0.3,1.7-1.8,2-2.1
	c0.3-0.3,1.1-1.2,1.3-1.4c0.1-0.2,0.5-0.6,0.7-0.7c0.2-0.2,0.3-0.3,0.3-0.3s-0.7,0.4-1,0.6c-0.3,0.2-1.5,1.1-1.9,1.6
	s-1.4,1.4-1.4,1.4s3.3-3.3,3.6-3.5s0.7-0.5,0.7-0.5s-1.3,0.7-1.6,0.9c-0.3,0.2-1.8,1.5-2.3,2c-0.5,0.5-1.6,1.3-2.1,1.9
	c-0.5,0.6-1.1,1.1-1.1,1.1s1.2-1.5,1.6-1.9c0.4-0.4,1.6-1.5,1.7-1.5c0.1-0.1,1.7-1.4,1.7-1.4s-2.6,1.7-2.9,1.9
	c-0.3,0.2-1.2,0.7-1.4,0.9s-0.9,0.6-1,0.7c-0.1,0.1,0.7-0.8,0.9-0.9c0.2-0.1,1.5-1.1,1.9-1.4c0.4-0.3,2.8-1.7,2.9-1.7
	s0.8-0.4,0.8-0.4s-0.2-0.1-0.4,0c-0.2,0.1-1.9,0.8-2.1,0.9c-0.2,0.1-1,0.7-1.2,0.8c-0.2,0.1,0.4-0.5,0.6-0.6
	c0.2-0.1,1.8-0.9,1.9-0.9s0.8-0.3,0.8-0.3L74.2,65.1z"></path><path class="st14" d="M79.1,66.3c0-0.1-0.1-2,0-2.5s0.5-0.8,0.6-0.9s-2-0.9-2.5-1.1c-0.5-0.2-0.9-0.3-1-0.4s-0.4,0-0.4,0
	s0,1-0.6,1.5c-0.6,0.4-0.9,0.6-1.2,1c-0.3,0.3-0.2,0.6-0.2,0.7c0,0,1.3,0.9,1.4,1.2c0.1,0.3,0.3,1.3,0.5,1.5
	c0.2,0.1,0.9-0.1,1.1-0.1s0.6-0.1,0.9-0.2c0.3-0.1,0.9-0.3,0.9-0.3L79.1,66.3z"></path><path class="st15" d="M75.6,65.8c0-0.1-0.1-0.2-0.2-0.3c0,0,0.1,0,0.1,0.1C75.7,65.7,75.6,65.7,75.6,65.8z"></path><path class="st16" d="M75.6,65.6c0,0-0.1,0-0.1-0.1c-0.1-0.1-0.1-0.2-0.1-0.2c0.1,0,0-0.5-0.1-0.7c-0.1-0.2,0-0.3,0.3-0.3
	c0.3,0,0.1,0,0.3-0.5c0.1-0.4,0-0.3,0.2-0.5c0.2-0.1,0.4,0,0.7,0c0.4,0,0.6-0.3,0.8-0.3c0.2,0,0.2,0.3,0.4,0.8
	c0.1,0.2,0.2,0.2,0.3,0.1c0,0.1,0,0.2,0,0.1c0,0,0.1,0,0.1-0.1c0-0.1,0.2-0.2,0.2-0.1c0.1,0.1,0,0.2,0,0.3c0,0.1,0.1,0.2-0.1,0.2
	c-0.1,0-0.2-0.1-0.3,0c-0.1,0.1-0.4,0.3-0.1,0.3c0.3,0,0.4,0.3,0.5,0.2c0.1,0,0.1,0,0.1,0l0,0.1c-0.3,0-0.5,0.1-0.6,0.2
	c-0.3,0.2-0.6,0.7-0.6,0.8c0,0.2-0.3,0.2-0.3,0.1c-0.1-0.1-0.6-0.4-0.7-0.4c-0.1,0-0.2-0.3-0.3,0.1c0,0.1,0,0.1,0,0.2
	c-0.2-0.1-0.3-0.1-0.4-0.1c0,0,0-0.1,0-0.1C75.6,65.7,75.7,65.7,75.6,65.6z"></path><path class="st17" d="M77.9,63.8c-0.2-0.5-0.2-0.8-0.4-0.8c-0.2,0-0.5,0.2-0.8,0.3c-0.4,0-0.5-0.1-0.7,0c-0.2,0.1-0.1,0-0.2,0.5
	c-0.1,0.4,0,0.5-0.3,0.5c-0.3,0-0.4,0.1-0.3,0.3c0.1,0.2,0.2,0.7,0.1,0.7c0,0,0,0.1,0.1,0.2c-0.2-0.1-0.3-0.1-0.4-0.2
	c-0.1-0.2-0.3-0.6-0.3-0.8c0-0.3-0.2-0.1,0-0.5c0.2-0.4,0.3-0.4,0.4-0.5c0.1-0.1,0.4-0.5,0.6-0.6c0.2-0.1,0.3,0,0.4,0
	c0.1,0,0.1-0.3,0.4-0.2c0.3,0.1,0.4,0.4,0.5,0.2c0.1-0.1-0.1,0,0.2-0.2c0.3-0.1,0.4-0.1,0.4-0.1c0,0.1,0,0.1,0,0.2
	c0,0.1,0.5,0,0.5,0.2c0.1,0.2-0.1,0.3-0.1,0.3c0,0.1,0.2,0.1,0.2,0.3c0,0.1,0,0.1,0,0.2C78.1,64,78,64,77.9,63.8z"></path><path class="st17" d="M76.3,65.7c0.1,0,0.6,0.3,0.7,0.4c0.1,0.1,0.3,0.1,0.3-0.1c0-0.2,0.3-0.6,0.6-0.8c0.1-0.1,0.4-0.2,0.6-0.2
	l0,0.2c-0.1,0.2-0.2,0.1-0.3,0.3c-0.1,0.2-0.3,0.1-0.3,0.3c0,0.2-0.1,0.3-0.1,0.4c0,0.1,0,0.2,0,0.3c0,0.1,0.2,0.2,0,0.2
	c-0.3,0.1-0.3,0-0.4-0.1c-0.2-0.1-0.2,0-0.4,0c-0.2-0.1,0.2-0.2-0.2-0.3c-0.5,0-0.5-0.1-0.7-0.2c0,0-0.1,0-0.1,0c0-0.1,0-0.1,0-0.2
	C76.1,65.4,76.3,65.7,76.3,65.7z"></path><path class="st14" d="M78,64.3c-0.2,0-0.5,0.2-0.5,0.2l0.3,0.2c0,0-0.1,0.2-0.5,0.1c-0.4-0.1-0.4-0.3-0.4-0.3s0.4,0.4,0.3,0.5
	c0,0.1,0.2,0.6,0.2,0.6l-0.7-0.4c0,0,0,0.5,0,0.5c0-0.1-0.1-1.1-0.1-1.1l-0.5,0.8l0.3-0.8l-0.9,0.5l0.7-0.7l-0.5-0.3l0.8,0.2
	l-0.2-0.9l0.4,0.7l0.4-0.9l-0.2,0.9l0.4-0.4l-0.2,0.4l0.6,0"></path><path class="st19" d="M38.4,74.7c-1.3,1.4-6.1,9.4-6.1,11.4s1.3,3.5,2,3.8c0.7,0.4,2.1,0.8,3.2,1.3c1.1,0.5,2.5,0.4,3.8,0.1
	c1.2-0.3,2.7-0.9,3.2-1.1c0.5-0.2,2.6-1.8,3.1-2.2c0.4-0.5,1.2-2.1,1.5-2.5c0.3-0.4,0.8-1.2,0.9-2.1c0-0.9-1.4-2.7-1.7-3.3
	s-1.9-2.4-2.7-3.1c-0.7-0.7-2.2-1.9-2.8-2.6c-0.6-0.6-2-1.4-2-1.4l-1.1,0.3L38.4,74.7z"></path><path class="st20" d="M40,74.5c0,0,2,3.7,3.8,5.5c1.8,1.8,2.8,3,4.3,3.6c1.6,0.6,3.7,0.9,4.2,0.3s3.6-4.6,4-7.7s-0.4-6.4-1.1-7.4
	c-0.6-1-2.1-2.5-2.8-2.8c-0.7-0.3-2.2-0.4-3.1-0.1c-0.9,0.2-3.2,0.9-3.4,1.1c-0.3,0.2-5.3,5.2-5.6,5.6C40.1,73,40,74.5,40,74.5z"></path><path class="st12" d="M39.4,73.5c0,0,4.9-3.1,5.7-3.7s5.1-5.4,5.3-5.8c0.2-0.4,0.6-2.6-0.3-3.7c-1-1.1-1.5-2-3.1-2.9
	s-2.3-1.6-3.3-1.8c-1-0.2-1.9-0.5-3-0.2c-1.1,0.3-2.3,0.4-3.6,0.7s-1.9,1.1-2.4,1.6c-0.5,0.5-1.8,1.6-1.9,2.1
	c-0.2,0.5,0.8,5.1,1,6.1c0.2,1,1.6,4.1,1.8,4.3s1,1.3,1.3,1.7C37.2,72.5,39.4,73.5,39.4,73.5z"></path><path class="st11" d="M38.6,71.6c0,0-0.8-4.8-1.6-5.8c-0.8-1-1.5-2-1.7-2.6c-0.2-0.6-0.1-1.5-1.1-2.6c-1-1.2-1.7-1.8-3.5-2
	c-1.8-0.2-4.4,1.3-5.2,2c-0.8,0.8-1.9,2.4-2.2,3c-0.3,0.5-1.4,5.1-1.4,5.8s0.5,2.3,0.8,2.8s0.7,1.2,1.2,1.7c0.5,0.5,1.6,0.9,3,1.3
	s2.7,0.4,4.4,0.1c1.7-0.3,2.2-0.3,3-0.6s-0.2,0.3,1-0.5C36.6,73.4,38.6,71.6,38.6,71.6z"></path><path class="st12" d="M38.9,73c0,0-8.3-1.2-9.6-0.9c-1.3,0.3-5.9,0.6-6.6,1.4c-0.7,0.8-1.1,5.6-0.8,6.6c0.4,1,1.3,3.2,3.5,4.3
	s2.9,1.4,3.7,2c0.8,0.6,1.5,1.1,1.9,1c0.4,0,0.4,0.3,1.3-0.2s1.6-1.3,2.6-3s1.6-3,2.3-4.4c0.7-1.4,1.3-3.5,1.5-4.2
	C39.1,74.9,38.9,73,38.9,73z"></path><path class="st13" d="M37.5,70.7c0,0-0.7-1.4-2.3-2.6s-3.5-2.3-3.5-2.3L34,67l1.1,0.7c0,0-0.5-0.9-1.1-1.3c-0.5-0.5-1.2-1.3-1.2-1.3
	l3,3.1l1.6,1.7c0,0-0.2-1.5-1-2.6c-0.8-1.1-3-3.6-3-3.6s2.6,2.4,2.8,2.8c0.2,0.3,1.3,1.8,1.3,1.8l0.4,1.3l-0.6-2.1l-0.7-4.2
	c0,0,1.4,4.2,1.3,4.5c-0.1,0.3,0.3,2.4,0.3,2.4l0.7,0c0,0-1-6.1-1-6.4c0-0.3,0-2.2,0-2.2l0.4,2.6l0.8-3.8c0,0-1,7.3,0.1,9.7
	c1.1,2.4,0.5,1,0.5,1s0.1-1.1,0.1-1.3c0-0.3-0.1-2.9,0-3.1c0-0.2-0.1-5.2-0.1-5.3c0-0.1,0.4,5.8,0.4,5.8s-0.4-3.2,1.8-7.6
	s1.4-2.8,1.4-2.8s-2.4,4.4-2.6,6.7c-0.2,2.3-0.4,4.9-0.4,5.2c0,0.3-0.2,2.1-0.2,2.1s0.8-2.8,0.8-3.1c0-0.3-0.4,2.4-0.5,2.9
	c-0.1,0.5,0.4-0.2,0.4-0.3s0.6-1.6,0.7-2.4c0.1-0.8,0.4-3.1,0.4-3.3c0.1-0.2,0.2-0.7,0.2-0.7s-0.4,1.9-0.3,2.3s-0.2,1.8-0.2,1.8
	s0.9-2.2,1-2.7s0.9-2,0.9-2l0.4-0.3c0,0-0.8,1.5-1,2c-0.2,0.5-1.3,3.4-1.3,3.6c0,0.2-0.4,1.3-0.4,1.5c-0.1,0.1-0.3,0.5-0.3,0.5
	s0.9-0.3,1-0.7c0.1-0.4,1.4-3.2,1.6-3.6c0.3-0.5,0.9-2.3,0.9-2.3l-1.2,3.2l2.4-3.1c0,0-2.7,3.9-2.7,4c0,0.1-0.8,1.4-0.8,1.6
	c0,0.2-0.2,0.5-0.2,0.5s1.2-1.7,1.4-1.9c0.2-0.2,2.5-2.4,2.5-2.4s-2.5,2.7-2.7,3.1c-0.2,0.4-0.5,1.2-0.5,1.2s1.9-1.9,2.1-2
	c0.2-0.1,3.3-1.7,3.3-1.7s-5.4,3.8-5.9,4.5c-0.5,0.7,4.3-2.9,4.3-2.9l0.9,0.7c0,0-4.5,2.2-4.9,2.4c-0.3,0.1-1.1,0.5-1.1,0.5L41.2,72
	c0,0,1-0.2,1.5-0.3c0.5-0.1,1.9-0.8,2.9-1.2s2.7-0.7,2.7-0.7s-2.7,0.9-2.8,1c-0.2,0.1-1,0.5-1,0.5s2.1-0.4,2.5-0.4
	c0.4,0,2.6,0.1,2.6,0.1s-4.4,0.3-5.5,0.7s-2,0.6-2.3,0.6s-0.9,0.1-0.9,0.1s0.8,0.2,0.8,0.2c0,0,2.6-0.4,3.3-0.5s2.1-0.2,2.8-0.2
	c0.6,0-3.4,0.5-3.6,0.5s-1.7,0.4-2.1,0.3c-0.4-0.1-0.8,0-0.8,0s1,0.4,1.7,0.4c0.7,0,2.3-0.1,2.8-0.3c0.5-0.2,3.2-0.2,3.4-0.2
	c0.2,0,1.2,0.2,1.2,0.2s-2.4,0.1-2.9,0.1s1.9,0.3,1.9,0.3S47.5,73,46.9,73c-0.6,0-2.8,0.2-3,0.2c-0.3,0-1.3-0.1-1.3-0.1
	s3.5,0.5,3.8,0.6s0.8,0.2,1.6,0.2s2.2,0.3,2.2,0.3s-1.8,0-2,0s-1.1-0.1-2-0.3s-3-0.5-3.1-0.5c-0.2,0-0.8-0.2-1-0.3
	c-0.2-0.1-0.6-0.2-0.6-0.2s-0.3,0.2,0.3,0.4c0.6,0.2,1,0.5,1.8,0.6c0.7,0.2,1,0.3,1,0.3s-1.8-0.2-2.1-0.4c-0.4-0.1-1-0.4-1-0.4
	S41.2,73.6,42,74c0.7,0.4,0.8,0.5,1.6,0.7c0.8,0.1,1.9,0.6,2.9,0.7c0.9,0.1,2.5,0.3,2.6,0.3c0.1,0,0.9,0.2,0.9,0.2s-0.7,0-1,0
	c-0.3,0-2-0.2-2.1-0.3c-0.1,0-0.3,0-0.3,0s2.2,0.7,2.5,0.8c0.3,0.1,1.3,0.6,1.5,0.6c0.1,0-0.3,0-0.5-0.1c-0.2-0.1-3.8-1.3-4.4-1.5
	c-0.6-0.2-2.9-0.8-3.2-1c-0.3-0.1-0.6-0.3-0.7-0.4s0.8,0.9,1.2,1.1c0.5,0.2,2,1,2.4,1.2c0.4,0.2,2.2,1,3,1.3s0.6,0.3,0.5,0.3
	s-2.7-0.9-3.1-1.1c-0.4-0.2-2.7-1.4-2.9-1.5c-0.2-0.1-1-0.8-1.1-0.9c-0.1-0.1-0.2-0.4-0.3-0.3c0,0.1,0.4,1,0.7,1.2
	c0.3,0.2,1.8,1.7,2.4,2C45,77.5,48,79,48,79s-2.5-1.1-2.8-1.1c-0.3-0.1-0.7-0.3-0.7-0.3s1,1.1,1.2,1.2c0.2,0.1,1,0.6,1,0.6
	s-2.5-1.6-2.6-1.7c-0.2-0.1-1.5-1.4-1.7-1.6c-0.2-0.2-0.8-0.6-0.8-0.6s0,0.6,0.6,1.1c0.6,0.4,1.2,1.2,1.4,1.4
	c0.2,0.2,1.2,1.3,1.3,1.3c0,0.1-0.8-0.5-1-0.7c-0.2-0.2-2-2.1-2.1-2.2s-0.5-0.6-0.5-0.7c0,0-0.1,0.1-0.1,0.1s1.1,2,1.5,2.3
	c0.5,0.4,2.6,2.2,2.8,2.4c0.2,0.2,1.2,0.9,1.2,0.9s-2.2-1.5-2.4-1.8s-1.3-1.2-1.3-1.2l1.6,2.5c0,0-0.5-0.7-0.7-0.9
	c-0.2-0.2-1.6-2.2-1.6-2.3c-0.1-0.1-1-1.5-1.1-1.6c-0.1-0.1-0.4-0.7-0.5-0.9c-0.1-0.2-0.2,0.1-0.2,0.1s0.3,1.5,0.6,1.9
	c0.3,0.4,1.8,3,2.2,3.5c0.4,0.5,0.8,1.8,0.8,1.8s-1.1-1.8-1.2-2c-0.1-0.2-1.2-1.8-1.2-1.8L41.3,78c0,0,1.7,4,1.9,4.5
	c0.2,0.5,0.1,0.9,0.1,0.9s-0.1-0.8-0.4-1.2c-0.3-0.5-1.3-3-1.3-3.1s-0.9-2.7-1-2.7c0,0-0.3-1.5-0.4-1.8c-0.1-0.2-0.4,0.3-0.4,0.3
	s0,1.1-0.1,1.3s0.4,2.6,0.6,3.2c0.2,0.6,1.2,4.3,1.2,4.3S40.1,79.1,40,79s-0.7-3.3-0.5-4.1s0.1-1.1,0.1-1.1s-0.3,2.6-0.2,2.8
	c0,0.2-0.1,2.2-0.1,2.4c0,0.2-0.1,1,0.2,1.9c0.3,0.9,0.5,2.5,0.5,2.5s-0.9-3.1-0.9-3.1c0-0.1,0-3.6,0-3.8c0-0.2,0.1-1.4,0.1-1.4
	l-0.3,0.7c0,0-0.4,2.1-0.4,2.3c0,0.2-0.1-2.1,0.3-2.7s0.1-0.8,0.1-0.8c0-0.1-0.6,2.1-0.7,2.6c-0.1,0.4-0.3,2-0.3,2.2
	c0,0.1,0.1,4,0.2,4.4c0.1,0.5,0.2,0.9,0.2,0.9s-0.5-3.1-0.5-3.3s-0.1-2.8,0-3.1c0.1-0.3,0.5-2.4,0.6-2.5c0-0.1,0.4-1,0.4-1
	s-1.1,1.8-1.2,2c-0.1,0.2-0.8,1.7-1,2.5c-0.1,0.8-0.6,2.2-0.6,2.2s0.8-3.6,0.8-3.7s0.5-1.3,0.5-1.4c0-0.1-0.6,0.6-0.6,0.6
	s-1.6,2.8-1.8,3.1c-0.2,0.4-0.5,0.9-0.5,0.9s1.5-3.3,1.6-3.5s0.6-1,0.6-1l0.5-0.7L37,75.7l-1,1.1c0,0-1.7,2.6-1.8,3
	c0,0.4-1,2-1.1,2.4s-0.3,0.9-0.3,0.9s1.1-3.2,1.2-3.4c0.1-0.3,1.7-2.9,2-3.3c0.3-0.4,1.1-1.2,1.2-1.3c0.1-0.1,0.5-0.4,0.5-0.4
	s-0.7,0.2-0.9,0.4c-0.1,0.2-2.3,2.1-3.2,3.3c-0.9,1.2-1.7,2-1.7,2s2.7-3.5,2.9-3.7c0.2-0.2,0.4-0.5,0.4-0.5s-3.1,2.9-3.4,3.1
	c-0.3,0.2,2.8-3,4.1-3.8c1.3-0.8,1.7-1.3,1.7-1.3l0.5-0.3l-1.2,0.5c0,0-1.4,0.6-1.5,0.7c-0.1,0.1-2.3,1.1-2.9,1.6
	c-0.5,0.5-2.9,2.7-2.9,2.7s3-3.3,3.6-3.5c0.6-0.2,2.6-1.4,2.7-1.4c0.2,0,0.3-0.2,0.3-0.2s-2.2,0.7-2.5,0.9c-0.3,0.2-2.2,1.2-2.4,1.3
	C31,76.7,30,77.4,30,77.4c0,0.1,1.1-1.1,1.4-1.3s2.3-1.2,2.7-1.4c0.4-0.2,1.7-0.6,2-0.6c0.4,0,1-0.1,1-0.1s0.4-0.3,0.2-0.3
	c-0.2,0-1-0.1-1-0.1s-1.1,0.1-1.5,0.2c-0.4,0.1-3.3,1.1-3.9,1.4c-0.5,0.3-2.6,1.4-2.6,1.4s3.1-2,3.5-2.1c0.3-0.1,1-0.4,1-0.4
	l-1.4,0.2c0,0-1.7,0.5-2.2,0.7s-0.8,0.3-0.8,0.3s1.8-0.9,1.9-1c0.2-0.1,2.6-0.6,2.7-0.6s1.3-0.2,1.4-0.2s1.9-0.2,1.6-0.4
	c-0.2-0.1-1-0.1-1.5-0.1c-0.6,0.1-2.2-0.1-3.1,0c-0.9,0.1-2.1,0.2-2.1,0.2s1.2-0.4,1.8-0.5c0.6-0.1,2.2-0.1,2.3-0.1s0.6-0.1,1-0.1
	c0.4,0.1,0.7,0,0.5,0c-0.1,0-0.9-0.3-1.4-0.3c-0.5,0-2,0-2.4,0c-0.4,0-1.7,0-1.7,0l1.6-0.1l-1.5-0.3c0,0,1.3,0.1,1.5,0.1
	s0.7,0,1.1-0.1c0.4,0,1.8,0,1.9,0.1c0.1,0,0.9,0.1,1,0.1c0.1,0,0.8-0.1,0.8-0.1s-0.2-0.3-1.5-0.3c-1.3,0-2.8-0.1-3.6-0.1
	c-0.7,0-1.2-0.1-2-0.2c-0.8-0.1-0.9-0.2-1.6-0.4c-0.7-0.2-1.3-0.5-1.3-0.5s1.4,0.3,2.1,0.5c0.7,0.2,2.2,0.5,2.5,0.5
	c0.3,0,3.1,0.1,3.3,0.1c0.2,0,1.5,0,1.8,0.1c0.2,0.1,0.7,0.2,0.7,0.3c0.1,0,0.6,0.2,0.6,0.2s-0.1-0.2-0.5-0.4c-0.4-0.2-2.4-1-3-1.1
	c-0.6-0.1-1.5-0.4-2.1-0.4s-1.8-0.1-1.8-0.1l2-0.1l-2.1-0.9c0,0,2.4,0.7,2.8,0.9c0.3,0.1,2.1,0.7,2.5,0.9c0.4,0.1,1.4,0.5,1.6,0.5
	c0.2,0.1,0.7,0.2,0.8,0.3c0.2,0.1,0.4,0.1,0.4,0.1s-0.5-0.4-0.8-0.6c-0.3-0.2-1.4-0.8-1.9-1c-0.5-0.2-1.7-0.6-1.7-0.6
	s3.8,1.5,4.1,1.6c0.2,0.1,0.6,0.4,0.6,0.4s-1-0.8-1.3-1c-0.3-0.2-1.9-0.9-2.4-1.1c-0.6-0.2-1.6-0.8-2.3-1C30.7,68.3,30,68,30,68
	s1.7,0.4,2.2,0.6c0.5,0.2,1.7,0.7,1.8,0.8c0.1,0,1.8,0.8,1.8,0.8s-2.3-1.5-2.6-1.6c-0.2-0.2-1-0.7-1.2-0.8c-0.2-0.1-0.8-0.5-0.9-0.5
	c-0.1,0,0.8,0.3,1,0.4c0.2,0.1,1.4,0.8,1.8,1s2.4,1.7,2.4,1.7c0.1,0.1,0.6,0.5,0.6,0.5s0-0.2-0.1-0.3s-1.3-1.3-1.4-1.4
	c-0.1-0.1-0.9-0.6-1.1-0.7c-0.2-0.1,0.5,0.1,0.7,0.3c0.2,0.2,1.3,1.1,1.5,1.2c0.1,0.1,0.5,0.5,0.5,0.5L37.5,70.7z"></path><path class="st14" d="M38.3,75.1c0,0,1.6-0.8,2-0.9c0.4,0,0.8,0.1,0.9,0.2c0.1,0.1,0-2,0-2.4c0-0.5-0.1-0.9,0-1
	c0-0.1-0.1-0.3-0.1-0.3c0,0-0.8,0.4-1.4,0.1c-0.6-0.4-0.8-0.5-1.2-0.6c-0.4-0.1-0.6,0-0.6,0.1c0,0.1-0.3,1.3-0.5,1.6
	c-0.2,0.2-1,0.7-1,1c0,0.2,0.4,0.7,0.5,0.8s0.3,0.4,0.5,0.7s0.6,0.6,0.6,0.6L38.3,75.1z"></path><path class="st15" d="M37.4,72.1c0.1-0.1,0.1-0.2,0.2-0.2c0,0,0,0.1,0,0.1C37.6,72.2,37.5,72.1,37.4,72.1z"></path><path class="st16" d="M37.6,72c0,0,0-0.1,0-0.1c0.1-0.1,0.1-0.2,0.2-0.2c0.1,0.1,0.4-0.2,0.5-0.4c0.1-0.1,0.2-0.2,0.3,0.1
	c0.1,0.2,0.1,0.1,0.5,0.1c0.4,0,0.3-0.1,0.5,0c0.2,0.1,0.1,0.3,0.3,0.6c0.2,0.3,0.4,0.4,0.5,0.6c0.1,0.2-0.2,0.3-0.5,0.6
	c-0.1,0.2-0.1,0.2,0,0.3c-0.1,0-0.1,0.1-0.1,0.1c0,0,0.1,0.1,0.1,0.1c0.1,0,0.2,0.1,0.2,0.2s-0.2,0.1-0.3,0.1
	c-0.1,0.1-0.1,0.1-0.2,0c0-0.1,0-0.2-0.1-0.2c-0.1,0-0.4-0.3-0.3,0c0.1,0.2-0.1,0.4,0,0.5c0,0,0,0,0,0l-0.1,0
	c-0.1-0.2-0.2-0.4-0.4-0.4c-0.3-0.2-0.8-0.2-0.9-0.2c-0.1,0-0.2-0.1-0.2-0.3c0.1-0.1,0.1-0.6,0.1-0.7c0-0.1,0.2-0.3-0.2-0.2
	c-0.1,0-0.1,0-0.2,0c0-0.2,0-0.3,0-0.4c0,0,0,0,0.1-0.1C37.5,72.1,37.6,72.2,37.6,72z"></path><path class="st17" d="M39.9,73.3c0.3-0.4,0.6-0.4,0.5-0.6c-0.1-0.2-0.4-0.3-0.5-0.6c-0.2-0.3-0.1-0.4-0.3-0.6
	c-0.2-0.1-0.1-0.1-0.5,0c-0.4,0-0.4,0.2-0.5-0.1c-0.1-0.2-0.2-0.2-0.3-0.1c-0.1,0.1-0.5,0.4-0.5,0.4c0,0-0.1,0.1-0.2,0.2
	c0-0.1-0.1-0.3,0-0.4c0.1-0.2,0.4-0.4,0.6-0.5c0.2-0.1,0-0.2,0.4-0.1c0.4,0,0.4,0.1,0.6,0.1s0.5,0.1,0.7,0.3
	c0.1,0.1,0.1,0.2,0.2,0.3c0.1,0.1,0.3,0,0.4,0.3c0.1,0.3-0.2,0.4,0,0.5c0.1,0.1,0-0.1,0.2,0.1c0.2,0.2,0.3,0.3,0.2,0.3
	c-0.1,0-0.1,0-0.2,0.1c-0.1,0.1,0.1,0.4,0,0.5c-0.1,0.1-0.2,0-0.3,0c-0.1,0,0,0.2-0.2,0.3c-0.1,0-0.1,0-0.2,0.1
	C39.8,73.5,39.7,73.4,39.9,73.3z"></path><path class="st17" d="M37.8,72.7c0,0.1,0,0.6-0.1,0.7c-0.1,0.1,0.1,0.3,0.2,0.3c0.1,0,0.6,0,0.9,0.2c0.1,0.1,0.3,0.2,0.4,0.4l-0.2,0
	c-0.2,0-0.2-0.1-0.4-0.2c-0.2,0-0.2-0.2-0.3-0.1c-0.2,0.1-0.3,0-0.3,0c-0.1,0-0.2,0-0.2,0.1c-0.1,0,0,0.3-0.2,0
	c-0.2-0.2-0.1-0.2-0.1-0.4c0-0.1-0.1-0.1-0.1-0.3c0-0.2,0.2,0.1,0.1-0.3c-0.1-0.4-0.1-0.4-0.1-0.6c0,0,0,0,0-0.1c0.1,0,0.1,0,0.2,0
	C38,72.4,37.7,72.6,37.8,72.7z"></path><path class="st14" d="M39.5,73.5c0-0.1-0.3-0.3-0.3-0.3l0,0.3c0,0-0.2,0-0.3-0.3c0-0.3,0.1-0.4,0.1-0.4s-0.2,0.5-0.3,0.5
	s-0.4,0.4-0.4,0.4l0-0.7c0,0-0.4,0.2-0.4,0.1c0,0,0.8-0.4,0.8-0.4l-0.8-0.1l0.8,0L38,71.8l0.8,0.3l0.1-0.5l0.1,0.7l0.6-0.4l-0.5,0.6
	l0.9,0l-0.8,0.1l0.5,0.2l-0.4,0l0.2,0.5"></path></g></svg>