<?xml version="1.0" encoding="utf-8"?>
<!-- Generator: Adobe Illustrator 23.1.1, SVG Export Plug-In . SVG Version: 6.00 Build 0)  -->
<svg version="1.1" id="Layer_1" xmlns="http://www.w3.org/2000/svg" xmlns:xlink="http://www.w3.org/1999/xlink" x="0px" y="0px"
	 viewBox="0 0 108 108" style="enable-background:new 0 0 108 108;" xml:space="preserve">
<style type="text/css">
	.st0{fill:none;stroke:#708530;stroke-width:1.0127;stroke-miterlimit:10;}
	.st1{fill:#72AA3A;}
	.st2{fill:#3F8133;}
	.st3{fill:#678B2B;}
	.st4{fill:#B0CC36;}
	.st5{fill:#639D3C;}
	.st6{fill:#A6BD39;}
	.st7{fill:#84B53A;}
	.st8{fill:#A5C939;}
	.st9{fill:#64791A;}
	.st10{fill:#81842A;}
	.st11{fill:#8BAC30;}
	.st12{fill:#758A27;}
	.st13{fill:#598A34;}
	.st14{fill:#406C25;}
	.st15{fill:#4F7E2E;}
	.st16{fill:#5C8E36;}
	.st17{fill:#337034;}
	.st18{fill:#D4CFC9;}
	.st19{fill:#FFFEF2;}
	.st20{fill:#BAB49A;}
	.st21{fill:#754C9E;}
	.st22{fill:#AFAA99;}
	.st23{fill:#6A3494;}
	.st24{fill:#793593;}
	.st25{fill:#ADAAA6;}
	.st26{fill:#C9C2AE;}
	.st27{fill:#D5C5BB;}
	.st28{fill:#9570B1;}
	.st29{fill:#BEBAB5;}
	.st30{fill:#6450A0;}
	.st31{fill:#7F55A2;}
</style>
<g>
	<path class="st0" d="M61,84.9c1.1-2.2,2.4-6.6,3.3-9.6"/>
	<path class="st0" d="M68,85.4c-2.1-2.8-4.2-7.4-4.4-11.3"/>
	<path class="st0" d="M71.9,80.3c-3.9-0.3-7.5,0-7.8-4.5"/>
	<path class="st0" d="M62.9,66.7c-1.8-4.6-3-10-2.5-13.8"/>
	<path class="st0" d="M54.8,65.2c2.8-4.3,5.4-11.8,6-13.3"/>
	<path class="st0" d="M65.2,60.2c-3-0.7-5.1-0.2-5.2-6.2"/>
	<path class="st1" d="M54.3,86.4c0.7-1.9,0-2.7,4.4-4.1l4.4-1.4c0,0,0.2,1,0.4,2.1c0.2,1.1,1.6,5.3-1.2,7.5
		c-2.8,2.2-4.7,3.2-5.4,3.4c-0.7,0.2-2.7,1.4-3.3,1.7"/>
	<path class="st2" d="M73,98.9c-1.5-2.1-5.4-1.9-6.8-5.1c-1.4-3.2-0.4-8.5-0.3-10.1C66,82,64.7,82,67,83.3c2.3,1.3,2.9,0.6,4.6,2.3
		c1.7,1.7,2.8,6.4,2.2,7.8C73.3,94.8,73,98.9,73,98.9"/>
	<path class="st3" d="M67.5,80c0.6,0.4,1,1.3,3.8,3c2.8,1.8,5.3,2.8,7,0.8c1.7-2,1.3-2.9,3.3-3.7l2.1-0.8c0,0-2.4-1.6-5.9-3.5
		c-3.5-2-7.1,0.7-8.3,2C68.2,79.2,67.5,80,67.5,80"/>
	<path class="st4" d="M65.9,79.1c0,0-0.5-2.3-3.2-4c-2.7-1.6-4.9-4.8-3.3-7.8c1.6-3,1.6-5.2,1.6-5.2s-0.3,0.4,2.2,1.6
		c2.5,1.2,4.9,4.9,4.5,8C67.3,74.7,65.9,79.1,65.9,79.1"/>
	<path class="st5" d="M47.6,73.2c0,0,5.5-1.6,7.9-3.4c2.4-1.8,3.5-3.2,3.1-5.8c-0.4-2.6-0.2-4.3-0.2-4.3s-3.6,1.9-5.3,1.8
		s-4.5,1.6-4.6,3.5C48.4,66.9,47.6,73.2,47.6,73.2"/>
	<path class="st6" d="M62.2,59.5c0,0,1.6,2.2,3.9,4c2.3,1.8,3.7,2.6,5.3,1.9c1.7-0.7,3.1-1.7,4.6-2.8c1.5-1.1,1.9-1.7,2.6-1.5
		c0.6,0.2-1,0.1-3.4-2.3c-2.3-2.4-3.2-3.9-4.9-3.7c-1.6,0.3-2.6,2-4.2,2.9C64.5,58.9,62.2,59.5,62.2,59.5"/>
	<path class="st0" d="M26.1,61.9c2.3,0.6,6.6,0.9,9.7,1"/>
	<path class="st0" d="M27.4,69.1c2-2.8,5.8-6.1,9.3-7.2"/>
	<path class="st0" d="M33,71.9c-0.7-4.1-1.8-7.6,2.3-9.1"/>
	<path class="st0" d="M43.3,59.4c3.8-3,8.5-5.5,12.1-6"/>
	<path class="st0" d="M42.7,50.8c4.6,1.8,12.2,2.6,13.7,2.8"/>
	<path class="st0" d="M49.9,60.1c-0.1-3.2-1-5.3,4.4-6.8"/>
	<path class="st7" d="M32.6,53.4c1.9,0.2,2.5-0.6,4.9,3.5l2.4,4.1c0,0-0.9,0.4-1.8,0.9c-1,0.5-4.5,2.9-7.2,0.6
		c-2.7-2.3-4.1-4-4.4-4.7c-0.4-0.6-2-2.4-2.3-2.9"/>
	<path class="st8" d="M24,77.6c1.5-2.1,0.4-6,3-8.2c2.6-2.3,7.7-2.5,9.2-2.8c1.5-0.3,1.2-1.6,0.6,1.1c-0.7,2.7,0.2,3.1-1,5.2
		c-1.1,2.2-5.3,4.4-6.7,4.2C27.8,76.9,24,77.6,24,77.6"/>
	<path class="st3" d="M32.1,67.3C32,68,31.2,68.6,30.3,72c-0.9,3.3-1.3,6.1,1,7.4c2.3,1.3,3,0.6,4.2,2.5l1.2,1.9
		c0,0,0.8-2.9,1.8-6.9c1-4-2.4-7-3.9-8C33.1,67.9,32.1,67.3,32.1,67.3"/>
	<path class="st9" d="M32.6,65.5c0,0,2-1.1,2.9-4.2c0.8-3.2,3.2-6.2,6.4-5.3c3.2,0.9,5.2,0.4,5.2,0.4s-0.4-0.2-1,2.6
		c-0.5,2.8-3.3,6.2-6.2,6.5C37,65.9,32.6,65.5,32.6,65.5"/>
	<path class="st5" d="M33.6,45.3c0,0,2.8,5.2,5.1,7.2c2.3,2,3.8,2.8,6.1,1.7c2.3-1.1,3.9-1.2,3.9-1.2s-2.6-3.2-3-5
		c-0.4-1.7-2.6-4.2-4.4-3.8C39.5,44.6,33.6,45.3,33.6,45.3"/>
	<path class="st6" d="M49.8,56.9c-0.1,0-1.7,2.1-2.7,4.9c-1.1,2.8-1.5,4.4-0.4,5.9c1.1,1.5,2.3,2.7,3.7,4c1.4,1.3,2,1.6,2,2.3
		c0,0.7-0.3-1,1.3-4c1.6-3,2.8-4.3,2.2-5.9c-0.6-1.6-2.5-2.1-3.7-3.6C50.9,59.1,49.8,56.9,49.8,56.9"/>
	<path class="st0" d="M52,28.6c-0.5,2.4-0.5,7-0.5,10.2"/>
	<path class="st0" d="M45.2,30.3c2.8,2,6.1,5.8,7.3,9.4"/>
	<path class="st0" d="M42.8,36.3c3.8-0.9,7.1-2.3,8.7,1.9"/>
	<path class="st0" d="M55.3,46.6c3,3.9,5.7,8.6,6.3,12.4"/>
	<path class="st0" d="M63.4,45.5c-1.5,4.9-1.8,13-2,14.6"/>
	<path class="st0" d="M54.9,53.5c3-0.3,5-1.3,6.7,4.3"/>
	<path class="st1" d="M58,25c-0.1,2,0.7,2.6-3.1,5.3l-3.8,2.7c0,0-0.4-0.9-1-1.9c-0.5-1-3-4.5-0.9-7.5c2.1-3,3.6-4.5,4.2-4.9
		c0.6-0.4,2.2-2.2,2.7-2.6"/>
	<path class="st7" d="M36.6,18.9c2,1.5,5.7,0.2,8,2.8c2.3,2.6,2.8,8,3.1,9.5c0.3,1.6,1.6,1.2-1,0.7c-2.6-0.6-2.9,0.3-5-0.8
		c-2.1-1.1-4.4-5.3-4.3-6.8C37.5,22.9,36.6,18.9,36.6,18.9"/>
	<path class="st3" d="M47.2,35.2c-0.7-0.2-1.3-0.9-4.5-1.7c-3.2-0.8-5.8-1-6.9,1.4c-1.1,2.5-0.4,3.2-2.2,4.5l-1.7,1.4
		c0,0,2.8,0.7,6.6,1.6c3.9,0.8,6.6-2.9,7.4-4.5C46.7,36.3,47.2,35.2,47.2,35.2"/>
	<path class="st4" d="M48.9,35.6c0,0,1.1,2.1,4.2,2.8c3,0.7,6,3.1,5.3,6.5c-0.7,3.4-0.1,5.5-0.1,5.5s0.2-0.5-2.5-0.9
		c-2.7-0.4-6-3.2-6.5-6.2C48.8,40.3,48.9,35.6,48.9,35.6"/>
	<path class="st5" d="M68.1,35.6c0,0-4.8,3.2-6.6,5.7c-1.8,2.5-2.5,4.1-1.3,6.5s1.4,4.1,1.4,4.1s2.9-2.9,4.6-3.4
		c1.6-0.5,3.8-2.9,3.4-4.8C69.1,41.8,68.1,35.6,68.1,35.6"/>
	<path class="st10" d="M57.9,53.3c0-0.1-2.1-1.6-4.8-2.6c-2.7-1-4.2-1.4-5.6-0.1C46,51.7,45,53,43.8,54.6c-1.1,1.5-1.4,2.2-2.1,2.2
		s0.9-0.4,3.8,1.1c2.9,1.5,4.2,2.8,5.7,2c1.5-0.8,1.9-2.7,3.2-4C55.9,54.5,57.9,53.3,57.9,53.3"/>
	<path class="st0" d="M85.6,55.4c-2.2-0.9-6.5-1.6-9.5-2.1"/>
	<path class="st0" d="M85,48.1c-2.3,2.6-6.4,5.4-10,6.2"/>
	<path class="st0" d="M79.7,44.7c0.3,4.1,1,7.8-3.2,8.8"/>
	<path class="st0" d="M68.2,56c-4.1,2.6-9,4.6-12.6,4.6"/>
	<path class="st0" d="M68,64.6c-4.4-2.3-11.9-3.9-13.4-4.3"/>
	<path class="st0" d="M61.8,54.5c-0.2,3.2,0.5,5.4-5.1,6.3"/>
	<path class="st1" d="M88,62.2c-1.9-0.4-2.6,0.4-4.5-4l-1.9-4.4c0,0,0.9-0.3,1.9-0.7c1-0.4,4.7-2.4,7.2,0.2c2.5,2.6,3.6,4.5,3.9,5.1
		c0.3,0.7,1.7,2.6,2,3.2"/>
	<path class="st11" d="M97,40.9c-1.7,1.9-1,5.9-3.9,7.9c-2.8,2-7.9,1.7-9.4,1.8c-1.5,0.1-1.4,1.5-0.5-1.1c0.9-2.6,0.1-3.1,1.5-5.1
		c1.3-2,5.7-3.8,7-3.5C93.2,41.2,97,40.9,97,40.9"/>
	<path class="st7" d="M80.1,49.3c0.2-0.7,1.1-1.2,2.3-4.4c1.3-3.2,1.9-5.9-0.2-7.4c-2.1-1.5-2.9-0.9-3.9-3l-1-2c0,0-1.1,2.7-2.5,6.7
		c-1.4,3.9,1.7,7.3,3.1,8.4S80.1,49.3,80.1,49.3"/>
	<path class="st4" d="M79.5,51.1c0,0-2.1,0.8-3.3,3.9c-1.2,3-3.8,5.8-6.9,4.5c-3.1-1.3-5.2-0.9-5.2-0.9s0.4,0.2,1.2-2.5
		c0.8-2.7,4-5.8,6.9-5.8C75.1,50.2,79.5,51.1,79.5,51.1"/>
	<path class="st5" d="M76.5,71.1c0,0-2.3-5.5-4.3-7.7c-2.1-2.3-3.5-3.2-5.8-2.4c-2.4,0.8-4,0.8-4,0.8s2.3,3.5,2.5,5.3
		c0.2,1.8,2.1,4.4,4,4.3C70.5,71.1,76.5,71.1,76.5,71.1"/>
	<path class="st12" d="M61.5,57.7c0,0,1.9-1.9,3.2-4.6c1.4-2.7,1.9-4.2,1-5.8c-0.9-1.7-2-3-3.3-4.4c-1.2-1.4-1.8-1.8-1.7-2.5
		c0.1-0.7,0.2,1-1.7,3.8c-1.9,2.8-3.2,3.9-2.8,5.6c0.5,1.7,2.3,2.4,3.3,4C60.6,55.4,61.5,57.7,61.5,57.7"/>
	<path class="st1" d="M52.6,67.2c1.1-2.2,2.4-6.6,3.3-9.6"/>
	<path class="st1" d="M59.5,67.6c-2.1-2.8-4.2-7.4-4.4-11.3"/>
	<path class="st1" d="M63.5,62.6c-3.9-0.3-7.5,0-7.8-4.5"/>
	<path class="st1" d="M54.5,49c-1.8-4.6-3-10-2.5-13.8"/>
	<path class="st1" d="M46.4,47.5c2.8-4.3,5.4-11.8,6-13.3"/>
	<path class="st1" d="M56.8,42.5c-3-0.7-5.1-0.2-5.2-6.2"/>
	<path class="st13" d="M45.9,68.7c0.7-1.9,0-2.7,4.4-4.1l4.4-1.4c0,0,0.2,1,0.4,2.1c0.2,1.1,1.6,5.3-1.2,7.5
		c-2.8,2.2-4.7,3.2-5.4,3.4c-0.7,0.2-2.7,1.4-3.3,1.7"/>
	<path class="st1" d="M64.6,81.2c-1.5-2.1-5.4-1.9-6.8-5.1c-1.4-3.2-0.4-8.5-0.3-10.1c0.1-1.6-1.2-1.7,1.1-0.3
		c2.3,1.3,2.9,0.6,4.6,2.3c1.7,1.7,2.8,6.4,2.2,7.8C64.9,77.1,64.6,81.2,64.6,81.2"/>
	<path class="st14" d="M59.1,62.3c0.6,0.4,1,1.3,3.8,3c2.8,1.8,5.3,2.8,7,0.8c1.7-2,1.3-2.9,3.3-3.7l2.1-0.8c0,0-2.4-1.6-5.9-3.5
		c-3.5-2-7.1,0.7-8.3,2C59.8,61.5,59.1,62.3,59.1,62.3"/>
	<path class="st1" d="M57.5,61.4c0,0-0.5-2.3-3.2-4c-2.7-1.6-4.9-4.8-3.3-7.8c1.6-3,1.6-5.2,1.6-5.2s-0.3,0.4,2.2,1.6
		c2.5,1.2,4.9,4.9,4.5,8C58.9,57,57.5,61.4,57.5,61.4"/>
	<path class="st15" d="M39.2,55.5c0,0,5.5-1.6,7.9-3.4c2.4-1.8,3.5-3.2,3.1-5.8C49.7,43.7,50,42,50,42s-3.6,1.9-5.3,1.8
		c-1.7-0.1-4.5,1.6-4.6,3.5C40,49.2,39.2,55.5,39.2,55.5"/>
	<path class="st16" d="M53.8,41.8c0,0,1.6,2.2,3.9,4s3.7,2.6,5.3,1.9c1.7-0.7,3.1-1.7,4.6-2.8c1.5-1.1,1.9-1.7,2.6-1.5
		c0.6,0.2-1,0.1-3.4-2.3c-2.3-2.4-3.2-3.9-4.9-3.7c-1.6,0.3-2.6,2-4.2,2.9C56.1,41.2,53.8,41.8,53.8,41.8"/>
	<path class="st0" d="M78.7,50.8c-2-1.3-6-3-8.9-4.2"/>
	<path class="st0" d="M79.7,43.5c-2.8,2-7.4,3.8-11,3.8"/>
	<path class="st0" d="M75.2,39c-0.6,4.1-0.6,7.8-4.9,7.9"/>
	<path class="st0" d="M61.6,47.4c-4.5,1.6-9.7,2.4-13.3,1.6"/>
	<path class="st0" d="M59.7,55.8c-3.8-3.3-10.8-6.5-12.2-7.3"/>
	<path class="st0" d="M55.6,44.5c-0.9,3.1-0.6,5.3-6.2,5"/>
	<path class="st1" d="M79.7,57.9c-1.7-0.8-2.6-0.2-3.6-4.9l-1-4.7c0,0,0.9-0.1,2-0.3c1.1-0.2,5.1-1.3,7,1.8c1.9,3.1,2.6,5.2,2.8,5.9
		c0.1,0.7,1.1,3,1.3,3.6"/>
	<path class="st2" d="M92.8,39.2c-2.1,1.4-2.2,5.5-5.4,6.8c-3.2,1.3-8-0.2-9.6-0.4c-1.5-0.2-1.7,1.1-0.2-1.2c1.4-2.3,0.8-3,2.5-4.6
		c1.7-1.7,6.3-2.4,7.6-1.8C89,38.6,92.8,39.2,92.8,39.2"/>
	<path class="st3" d="M74.6,43.6c0.4-0.6,1.3-0.9,3.2-3.8c1.9-2.9,3-5.3,1.3-7.3c-1.8-2-2.6-1.6-3.2-3.8l-0.6-2.2
		c0,0-1.7,2.4-3.8,5.9c-2.1,3.5,0.2,7.5,1.3,8.9C73.9,42.8,74.6,43.6,74.6,43.6"/>
	<path class="st4" d="M73.6,45.2c0,0-2.2,0.3-4,3.1C67.9,51,64.7,53,62,51.1c-2.7-1.9-4.8-2.1-4.8-2.1s0.4,0.3,1.7-2.2
		c1.3-2.5,5-4.8,7.9-4.1C69.5,43.4,73.6,45.2,73.6,45.2"/>
	<path class="st5" d="M66.7,64c0,0-1.1-5.9-2.7-8.5c-1.6-2.7-2.7-3.9-5.2-3.7c-2.5,0.3-4.1-0.1-4.1-0.1s1.5,4,1.4,5.7s1.2,4.8,3,5.1
		C60.8,62.7,66.7,64,66.7,64"/>
	<path class="st6" d="M54.8,47.6c0,0,2.2-1.5,4.1-3.8c1.9-2.3,2.7-3.7,2.2-5.5c-0.6-1.8-1.4-3.4-2.3-5c-0.9-1.7-1.4-2.2-1.2-2.8
		c0.2-0.7,0,1.1-2.4,3.4c-2.4,2.3-4,3.1-3.8,4.9c0.1,1.7,1.7,2.8,2.4,4.7C54.4,45.2,54.8,47.6,54.8,47.6"/>
	<path class="st0" d="M54.4,85.8c0.7-2.4,1.3-6.9,1.7-10.1"/>
	<path class="st0" d="M61.3,85c-2.5-2.4-5.3-6.6-6.2-10.3"/>
	<path class="st0" d="M64.4,79.3c-3.9,0.4-7.4,1.3-8.4-3"/>
	<path class="st0" d="M53.3,67.5c-2.6-4.2-4.6-9.3-4.8-13.2"/>
	<path class="st0" d="M45.1,67.5c2.1-4.7,3.3-12.6,3.7-14.2"/>
	<path class="st0" d="M54.5,60.7c-3-0.1-5.1,0.7-6.1-5.1"/>
	<path class="st7" d="M46.8,78.3c0.4-2-0.4-2.7,3.7-4.9l4.1-2.2c0,0,0.3,0.9,0.8,2c0.4,1.1,2.4,4.9,0,7.6c-2.4,2.7-4.1,4-4.7,4.3
		c-0.6,0.3-2.5,1.9-2.9,2.2"/>
	<path class="st8" d="M69.1,89.1c-1.8-1.8-5.6-0.9-7.6-3.8c-2-2.9-1.8-8.3-2-9.9c-0.2-1.6-1.4-1.4,1.1-0.5c2.5,0.9,2.9,0.1,4.9,1.4
		c2,1.3,3.8,5.8,3.5,7.3C68.7,85,69.1,89.1,69.1,89.1"/>
	<path class="st3" d="M60,79.8c0.6,0.2,1.2,1.1,4.3,2.3c3.1,1.2,5.7,1.8,7-0.5c1.4-2.3,0.8-3.1,2.7-4.2l1.9-1.1c0,0-2.6-1.1-6.4-2.4
		c-3.8-1.3-6.9,2-7.9,3.5C60.6,78.8,60,79.8,60,79.8"/>
	<path class="st9" d="M58.3,79.2c0,0-0.9-2.2-3.8-3.3c-2.9-1.1-5.6-3.9-4.5-7.1s0.7-5.5,0.7-5.5s-0.2,0.4,2.4,1.2
		c2.6,0.8,5.6,4,5.7,7C59,74.6,58.3,79.2,58.3,79.2"/>
	<path class="st5" d="M39.3,76.7c0,0,5.1-2.6,7.2-4.8c2.1-2.3,2.9-3.7,2.1-6.2c-0.8-2.5-0.9-4.2-0.9-4.2s-3.3,2.5-4.9,2.8
		c-1.7,0.2-4.1,2.4-3.9,4.3C39,70.4,39.3,76.7,39.3,76.7"/>
	<path class="st6" d="M51.4,60.5c0,0.1,1.9,1.9,4.5,3.3c2.6,1.4,4,1.9,5.6,0.9c1.5-1,2.8-2.2,4.1-3.6c1.3-1.4,1.6-2,2.3-1.9
		c0.7,0.1-1,0.3-3.7-1.6c-2.7-1.9-3.8-3.3-5.4-2.7c-1.6,0.6-2.2,2.5-3.7,3.6C53.6,59.5,51.4,60.5,51.4,60.5"/>
	<path class="st0" d="M24.8,56.1c2.3,0.7,6.6,1,9.7,1.3"/>
	<path class="st0" d="M25.9,63.3c2.1-2.8,6-5.9,9.5-7"/>
	<path class="st0" d="M31.4,66.3c-0.6-4.1-1.6-7.7,2.5-9"/>
	<path class="st0" d="M42,54c3.9-2.9,8.6-5.3,12.2-5.7"/>
	<path class="st0" d="M41.6,45.4c4.6,1.9,12.1,2.9,13.7,3.2"/>
	<path class="st0" d="M48.6,54.9c0-3.2-0.9-5.3,4.5-6.7"/>
	<path class="st1" d="M21.8,49.5c1.9,0.3,2.5-0.6,4.8,3.6l2.3,4.2c0,0-0.9,0.4-1.9,0.9c-1,0.5-4.5,2.8-7.2,0.4
		c-2.7-2.4-4-4.1-4.3-4.8c-0.3-0.6-1.9-2.5-2.3-3"/>
	<path class="st7" d="M14.5,71.5c1.6-2,0.6-6,3.2-8.2c2.7-2.2,7.7-2.3,9.3-2.6c1.5-0.2,1.3-1.6,0.6,1.1c-0.7,2.7,0.1,3.1-1.1,5.2
		c-1.2,2.1-5.3,4.3-6.8,4C18.3,70.9,14.5,71.5,14.5,71.5"/>
	<path class="st3" d="M30.7,61.7c-0.2,0.7-1,1.3-2,4.6c-1,3.3-1.4,6,0.8,7.4c2.2,1.3,3,0.7,4.1,2.6l1.2,1.9c0,0,0.9-2.8,2-6.9
		c1.1-4-2.2-7.1-3.7-8.1C31.6,62.2,30.7,61.7,30.7,61.7"/>
	<path class="st4" d="M31.2,59.9c0,0,2.1-1,3-4.2c0.9-3.1,3.4-6.1,6.5-5.1c3.2,1,5.2,0.5,5.2,0.5s-0.4-0.2-1,2.6
		c-0.6,2.8-3.5,6.1-6.4,6.4C35.6,60.3,31.2,59.9,31.2,59.9"/>
	<path class="st5" d="M32.6,39.7c0,0,2.7,5.3,4.9,7.3c2.2,2.1,3.7,2.9,6,1.9c2.3-1,4-1.1,4-1.1s-2.6-3.3-2.9-5
		c-0.3-1.7-2.5-4.2-4.3-3.9C38.6,39.1,32.6,39.7,32.6,39.7"/>
	<path class="st10" d="M48.5,51.7c-0.1,0-1.7,2.1-2.9,4.9c-1.2,2.8-1.6,4.3-0.6,5.9c1,1.6,2.3,2.8,3.6,4.1c1.4,1.3,2,1.6,1.9,2.3
		c0,0.7-0.3-1,1.4-3.9c1.7-2.9,2.9-4.2,2.3-5.8c-0.6-1.6-2.4-2.2-3.6-3.7C49.6,53.9,48.5,51.7,48.5,51.7"/>
	<path class="st0" d="M52.6,22.8c-1,2.3-2,6.7-2.7,9.9"/>
	<path class="st0" d="M45.7,22.8c2.3,2.6,4.6,7.1,5.1,10.9"/>
	<path class="st0" d="M42,28.2c3.9,0,7.4-0.5,8.1,4"/>
	<path class="st0" d="M51.9,41.1c2.1,4.5,3.6,9.8,3.4,13.6"/>
	<path class="st0" d="M60,42c-2.5,4.4-4.6,12.2-5.1,13.7"/>
	<path class="st0" d="M50,47.8c3,0.5,5.1-0.1,5.6,5.8"/>
	<path class="st17" d="M59.2,20.8c-0.5,1.9,0.1,2.7-4.1,4.5l-4.3,1.7c0,0-0.2-1-0.5-2.1c-0.3-1.1-1.9-5.1,0.8-7.5
		c2.7-2.4,4.5-3.5,5.1-3.7c0.6-0.3,2.6-1.6,3.2-1.9"/>
	<path class="st11" d="M39.7,9.7c1.6,2,5.5,1.5,7.2,4.6c1.7,3.1,1,8.4,1,10c0,1.6,1.3,1.6-1.1,0.4c-2.4-1.2-2.9-0.4-4.7-1.9
		c-1.8-1.6-3.2-6.2-2.7-7.7C39.7,13.8,39.7,9.7,39.7,9.7"/>
	<path class="st7" d="M46.5,28.1c-0.6-0.3-1.1-1.2-4-2.8c-2.9-1.6-5.4-2.4-7.1-0.3c-1.6,2.1-1.1,3-3.1,3.9l-2,0.9
		c0,0,2.5,1.4,6.1,3.1c3.6,1.7,7-1.2,8.2-2.6C45.8,29,46.5,28.1,46.5,28.1"/>
	<path class="st4" d="M48.1,28.9c0,0,0.6,2.3,3.4,3.7c2.8,1.4,5.2,4.5,3.8,7.6c-1.4,3.1-1.3,5.3-1.3,5.3s0.3-0.4-2.3-1.5
		c-2.5-1-5.2-4.6-5-7.6C47,33.4,48.1,28.9,48.1,28.9"/>
	<path class="st5" d="M66.8,33.5c0,0-5.4,2-7.7,4c-2.3,2-3.3,3.4-2.7,6c0.6,2.6,0.4,4.3,0.4,4.3s3.5-2.2,5.2-2.2
		c1.7-0.1,4.4-1.9,4.3-3.8C66.4,39.8,66.8,33.5,66.8,33.5"/>
	<path class="st12" d="M53,48.2c0-0.1-1.7-2.1-4.1-3.7c-2.4-1.6-3.8-2.3-5.5-1.5c-1.6,0.8-3,1.9-4.4,3.1c-1.4,1.2-1.8,1.8-2.5,1.6
		c-0.7-0.2,1-0.2,3.5,2c2.5,2.2,3.5,3.7,5.1,3.3c1.6-0.4,2.4-2.2,4-3.2C50.8,49,53,48.2,53,48.2"/>
	<path class="st1" d="M61.3,58.3c-2-1.3-6-3-8.9-4.2"/>
	<path class="st1" d="M62.3,51c-2.8,2-7.4,3.8-11,3.8"/>
	<path class="st1" d="M57.8,46.5c-0.6,4.1-0.6,7.8-4.9,7.9"/>
	<path class="st1" d="M44.3,55c-4.5,1.6-9.7,2.4-13.3,1.6"/>
	<path class="st1" d="M42.3,63.3c-3.8-3.3-10.8-6.5-12.2-7.2"/>
	<path class="st1" d="M38.2,52.1c-0.9,3.1-0.6,5.3-6.2,5"/>
	<path class="st13" d="M62.3,65.5c-1.7-0.8-2.6-0.2-3.6-4.9l-1-4.7c0,0,0.9-0.1,2-0.3c1.1-0.2,5.1-1.3,7,1.8
		c1.9,3.1,2.6,5.2,2.8,5.9c0.1,0.7,1.1,3,1.3,3.6"/>
	<path class="st1" d="M75.5,46.7c-2.1,1.4-2.2,5.5-5.4,6.8c-3.2,1.3-8-0.2-9.6-0.4c-1.5-0.2-1.7,1.1-0.2-1.2c1.4-2.3,0.8-3,2.5-4.6
		c1.7-1.7,6.3-2.4,7.6-1.8C71.7,46.1,75.5,46.7,75.5,46.7"/>
	<path class="st14" d="M57.2,51.1c0.4-0.6,1.3-0.9,3.2-3.8c1.9-2.9,3-5.3,1.3-7.3c-1.8-2-2.6-1.6-3.2-3.8L57.8,34
		c0,0-1.7,2.4-3.8,5.9c-2.1,3.5,0.2,7.5,1.3,8.9C56.5,50.3,57.2,51.1,57.2,51.1"/>
	<path class="st1" d="M56.3,52.7c0,0-2.2,0.3-4,3.1c-1.8,2.7-4.9,4.8-7.7,2.9c-2.7-1.9-4.8-2.1-4.8-2.1s0.4,0.3,1.7-2.2
		c1.3-2.5,5-4.8,7.9-4.1C52.2,50.9,56.3,52.7,56.3,52.7"/>
	<path class="st15" d="M49.3,71.5c0,0-1.1-5.9-2.7-8.5c-1.6-2.7-2.7-3.9-5.2-3.7c-2.5,0.3-4.1-0.1-4.1-0.1s1.5,4,1.4,5.7
		c-0.2,1.8,1.2,4.8,3,5.1C43.4,70.2,49.3,71.5,49.3,71.5"/>
	<path class="st16" d="M37.4,55.2c0,0,2.2-1.5,4.1-3.8c1.9-2.3,2.7-3.7,2.2-5.5c-0.6-1.8-1.4-3.4-2.3-5c-0.9-1.7-1.4-2.2-1.2-2.8
		c0.2-0.7,0,1.1-2.4,3.4c-2.4,2.3-4,3.1-3.8,4.9c0.1,1.7,1.7,2.8,2.4,4.7C37,52.7,37.4,55.2,37.4,55.2"/>
	<path class="st0" d="M77.5,76c-0.3-2.4-1.8-6.7-2.8-9.8"/>
	<path class="st0" d="M83.5,72.4c-3.3-1.1-7.7-3.7-10-6.7"/>
	<path class="st0" d="M83.8,66c-3.4,2-6.1,4.3-9,0.8"/>
	<path class="st0" d="M68.6,60c-4.1-2.7-8.2-6.5-10-9.9"/>
	<path class="st0" d="M61.2,63.4c-0.1-5.1-2.4-12.8-2.8-14.3"/>
	<path class="st0" d="M66.8,53.3c-2.8,1.1-4.3,2.7-7.8-2.1"/>
	<path class="st17" d="M72.9,81.1c-0.5-1.9-1.5-2.3,1.2-5.9l2.8-3.7c0,0,0.7,0.7,1.6,1.5c0.8,0.8,4.3,3.4,3.3,6.8
		c-1,3.4-2,5.3-2.5,5.8c-0.4,0.6-1.4,2.7-1.7,3.2"/>
	<path class="st2" d="M95.4,80.5c-2.4-0.8-5.5,1.5-8.5-0.3c-3-1.8-5.2-6.7-6-8.1c-0.8-1.4-1.9-0.7,0.7-0.9c2.6-0.2,2.7-1.2,5.1-0.8
		c2.4,0.4,6,3.7,6.3,5.1C93.3,77.1,95.4,80.5,95.4,80.5"/>
	<path class="st3" d="M80,68.3c0.7,0,1.5,0.5,4.9,0.3c3.3-0.2,5.9-0.7,6.2-3.4c0.3-2.6-0.6-3.1,0.6-4.9l1.2-1.8c0,0-2.9,0.1-6.9,0.5
		c-4,0.4-5.4,4.7-5.7,6.4C80.1,67.2,80,68.3,80,68.3"/>
	<path class="st4" d="M78.2,68.5c0,0-1.7-1.6-4.9-1.4c-3.2,0.2-6.8-1.1-7.2-4.5c-0.4-3.4-1.7-5.2-1.7-5.2s0,0.5,2.7,0.1
		c2.7-0.4,6.8,1.2,8.2,4C76.8,64,78.2,68.5,78.2,68.5"/>
	<path class="st5" d="M59.8,74.1c0,0,3.6-4.4,4.5-7.3c0.9-2.9,1.1-4.6-0.8-6.5c-1.8-1.9-2.6-3.5-2.6-3.5s-1.9,3.6-3.3,4.6
		c-1.4,0.9-2.7,3.9-1.7,5.5C56.9,68.5,59.8,74.1,59.8,74.1"/>
	<path class="st6" d="M63.9,54.5c0,0.1,2.5,0.9,5.5,1.1c2.9,0.2,4.5,0,5.5-1.5c1-1.6,1.6-3.2,2.2-4.9c0.6-1.8,0.6-2.5,1.3-2.7
		c0.6-0.2-0.8,0.7-4,0.1c-3.3-0.6-4.9-1.4-6.1-0.2c-1.2,1.2-0.9,3.1-1.8,4.8C65.4,52.7,63.9,54.5,63.9,54.5"/>
	<path class="st0" d="M35.7,77.2c2.2-0.8,5.9-3.1,8.5-4.7"/>
	<path class="st0" d="M40.9,82.4c0.1-3.5,1.3-8.3,3.5-11.3"/>
	<path class="st0" d="M47.1,81.5c-2.9-2.9-5.9-5.2-3.4-8.7"/>
	<path class="st0" d="M48.4,65.3c1.4-4.6,3.8-9.4,6.5-11.8"/>
	<path class="st0" d="M42.9,58.6c4.8-1.2,11.5-4.9,12.9-5.6"/>
	<path class="st0" d="M54.2,62.1c-1.9-2.6-3.9-3.7-0.3-8.1"/>
	<path class="st7" d="M36.2,66.5c1.7-0.9,1.7-2,6,0l4.3,2c0,0-0.5,0.8-1,1.8c-0.5,1-2,4.9-5.5,4.6c-3.5-0.3-5.6-1-6.3-1.3
		c-0.6-0.3-3-0.9-3.6-1.1"/>
	<path class="st8" d="M43,91.2c0.1-2.6-3.1-5.1-2.2-8.5c0.8-3.4,4.8-6.5,5.9-7.6c1.1-1.1,0.1-2,1.1,0.5c1,2.6,1.9,2.4,2.2,4.8
		c0.3,2.4-1.8,6.6-3,7.3C45.7,88.5,43,91.2,43,91.2"/>
	<path class="st3" d="M43.8,78.2c0.2,0.7,0,1.6,1.1,4.9c1.1,3.3,2.4,5.7,5,5.5c2.6-0.2,2.8-1.2,4.9-0.3l2.1,0.9c0,0-0.9-2.8-2.5-6.7
		c-1.5-3.9-6-4.4-7.8-4.3C44.9,78.1,43.8,78.2,43.8,78.2"/>
	<path class="st9" d="M43.1,76.4c0,0,1-2-0.1-5.1c-1.1-3.1-0.9-6.9,2.2-8s4.5-2.7,4.5-2.7s-0.5,0.1,0.7,2.7c1.2,2.6,0.8,7-1.4,8.9
		C46.9,74.2,43.1,76.4,43.1,76.4"/>
	<path class="st5" d="M32.3,59.3c0,0,5.3,2.7,8.3,3c3,0.3,4.7,0.1,6-2c1.3-2.2,2.5-3.3,2.5-3.3s-4-1.1-5.3-2.4
		c-1.3-1.2-4.5-1.9-5.8-0.6C36.8,55.3,32.3,59.3,32.3,59.3"/>
	<path class="st6" d="M52.3,59.5c0,0-0.1,2.7,0.6,5.6c0.7,2.9,1.3,4.4,3.1,5.1c1.8,0.6,3.5,0.9,5.3,1.2c1.9,0.3,2.5,0.1,2.9,0.7
		c0.4,0.6-0.9-0.6-1.2-4c-0.4-3.4-0.1-5.1-1.6-6.1c-1.5-1-3.2-0.3-5.1-0.9C54.4,60.7,52.3,59.5,52.3,59.5"/>
	<path class="st0" d="M37.8,35.1c1,2.3,3.6,6,5.5,8.7"/>
	<path class="st0" d="M33.3,40.3c3.4,0.1,8.3,1.3,11.4,3.5"/>
	<path class="st0" d="M34.8,46.7c2.6-3,4.5-6,8.3-3.4"/>
	<path class="st0" d="M50.8,47.9c4.7,1.4,9.6,3.8,12.3,6.6"/>
	<path class="st0" d="M56.8,42.3c1.6,4.9,5.9,11.7,6.7,13.1"/>
	<path class="st0" d="M54.5,53.8c2.3-2,3.3-3.9,7.9-0.3"/>
	<path class="st1" d="M40.7,28.7c1.1,1.7,2.1,1.7,0.5,6.1l-1.6,4.4c0,0-0.9-0.5-1.9-1c-1-0.5-5-2-5-5.6c0-3.6,0.4-5.7,0.6-6.4
		c0.2-0.7,0.6-3.1,0.7-3.7"/>
	<path class="st7" d="M19.7,36c2.5,0.1,4.7-3.1,8.1-2.3c3.4,0.9,6.8,4.9,8,6c1.2,1.1,2,0.1-0.4,1.1c-2.4,1-2.2,1.9-4.5,2.3
		c-2.3,0.3-6.7-1.8-7.4-3.1C22.7,38.7,19.7,36,19.7,36"/>
	<path class="st3" d="M37.7,43.3c-0.6,0.3-1.6,0-4.7,1.2c-3.1,1.2-5.4,2.5-4.9,5.1c0.5,2.6,1.5,2.8,0.8,5l-0.6,2.1
		c0,0,2.7-1,6.3-2.5c3.6-1.6,3.7-6.1,3.5-7.9C37.9,44.4,37.7,43.3,37.7,43.3"/>
	<path class="st4" d="M39.3,42.6c0,0,2.1,1.1,5-0.1c2.9-1.1,6.7-0.9,8.1,2.3c1.4,3.2,3.1,4.6,3.1,4.6s-0.1-0.5-2.6,0.7
		c-2.4,1.2-6.8,0.8-8.9-1.4C41.9,46.5,39.3,42.6,39.3,42.6"/>
	<path class="st5" d="M55.1,31.6c0,0-2.1,5.4-2.1,8.5c0,3.1,0.3,4.8,2.6,6.1c2.3,1.3,3.5,2.6,3.5,2.6s0.7-4.1,1.8-5.4
		c1.1-1.3,1.5-4.6,0-5.9C59.4,36.1,55.1,31.6,55.1,31.6"/>
	<path class="st10" d="M56.8,51.9c0,0-2.7-0.1-5.5,0.6c-2.8,0.7-4.2,1.3-4.7,3.1c-0.5,1.8-0.6,3.5-0.6,5.4c-0.1,1.9,0.1,2.6-0.4,3
		c-0.5,0.4,0.5-0.9,3.8-1.3c3.3-0.4,5-0.1,5.8-1.6c0.8-1.5,0-3.3,0.3-5.2C55.9,54,56.8,51.9,56.8,51.9"/>
	<path class="st0" d="M80.7,37.7c-2.3,0.6-6.2,2.4-9,3.7"/>
	<path class="st0" d="M76.1,32.1c-0.4,3.4-2.2,8.1-4.6,10.8"/>
	<path class="st0" d="M69.8,32.3c2.6,3.2,5.3,5.8,2.5,9"/>
	<path class="st0" d="M66.8,48.2c-1.9,4.4-4.7,8.9-7.7,11"/>
	<path class="st0" d="M71.6,55.4c-4.9,0.6-12,3.6-13.4,4.1"/>
	<path class="st0" d="M60.7,50.7c1.7,2.7,3.5,4.1-0.5,8.1"/>
	<path class="st1" d="M86.6,41.9c-1.8,0.7-1.9,1.8-6-0.7l-4.1-2.5c0,0,0.6-0.8,1.2-1.7c0.6-0.9,2.5-4.7,6-3.9
		c3.5,0.7,5.5,1.6,6.2,1.9c0.6,0.4,2.9,1.2,3.5,1.4"/>
	<path class="st11" d="M81.8,19.3c-0.3,2.5,2.5,5.4,1.3,8.6c-1.2,3.2-5.5,5.9-6.7,6.9c-1.2,1-0.3,2-1-0.7c-0.7-2.6-1.6-2.6-1.7-5
		c-0.1-2.4,2.5-6.3,3.8-6.9C78.8,21.7,81.8,19.3,81.8,19.3"/>
	<path class="st7" d="M72.7,35.9c-0.2-0.7,0.2-1.6-0.6-4.9c-0.8-3.4-1.8-5.9-4.5-6c-2.6,0-2.9,0.9-4.9-0.2l-2-1.1
		c0,0,0.7,2.9,1.8,6.9c1.1,4,5.6,5,7.3,5.1C71.7,35.9,72.7,35.9,72.7,35.9"/>
	<path class="st4" d="M73.2,37.7c0,0-1.3,1.9-0.5,5.1c0.8,3.2,0.2,7-3.1,7.7c-3.2,0.7-4.8,2.2-4.8,2.2s0.5,0-0.4-2.7
		c-0.9-2.7-0.1-7,2.3-8.7C69.2,39.5,73.2,37.7,73.2,37.7"/>
	<path class="st5" d="M82.2,55.8c0,0-5-3.2-8-3.9c-3-0.7-4.7-0.7-6.2,1.4c-1.5,2-2.9,3-2.9,3s3.9,1.6,5.1,2.9
		c1.2,1.3,4.3,2.4,5.7,1.2C77.4,59.2,82.2,55.8,82.2,55.8"/>
	<path class="st12" d="M62.3,53.4c0,0,0.4-2.7,0-5.6c-0.4-3-0.8-4.5-2.5-5.4c-1.7-0.8-3.4-1.3-5.2-1.7c-1.8-0.4-2.5-0.4-2.9-1
		c-0.3-0.6,0.8,0.7,0.8,4.1c0,3.4-0.4,5.1,0.9,6.2c1.4,1.1,3.2,0.6,5,1.4C60.3,52.1,62.3,53.4,62.3,53.4"/>
	<path class="st1" d="M60.5,66.3c-0.3-2.4-1.8-6.7-2.8-9.8"/>
	<path class="st1" d="M66.4,62.7c-3.3-1.1-7.7-3.7-10-6.7"/>
	<path class="st1" d="M66.8,56.3c-3.4,2-6.1,4.3-9,0.8"/>
	<path class="st1" d="M51.6,50.3c-4.1-2.7-8.2-6.5-10-9.9"/>
	<path class="st1" d="M44.1,53.7C44,48.7,41.7,41,41.4,39.4"/>
	<path class="st1" d="M49.7,43.7c-2.8,1.1-4.3,2.7-7.8-2.1"/>
	<path class="st13" d="M55.9,71.4c-0.5-1.9-1.5-2.3,1.2-5.9l2.8-3.7c0,0,0.7,0.7,1.6,1.5c0.8,0.8,4.3,3.4,3.3,6.8
		c-1,3.4-2,5.3-2.5,5.8c-0.4,0.6-1.4,2.7-1.7,3.2"/>
	<path class="st1" d="M78.3,70.9c-2.4-0.8-5.5,1.5-8.5-0.3c-3-1.8-5.2-6.7-6-8.1c-0.8-1.4-1.9-0.7,0.7-0.9c2.6-0.2,2.7-1.2,5.1-0.8
		c2.4,0.4,6,3.7,6.3,5.1C76.2,67.4,78.3,70.9,78.3,70.9"/>
	<path class="st14" d="M63,58.6c0.7,0,1.5,0.5,4.9,0.3c3.3-0.2,5.9-0.7,6.2-3.4c0.3-2.6-0.6-3.1,0.6-4.9l1.2-1.8
		c0,0-2.9,0.1-6.9,0.5c-4,0.4-5.4,4.7-5.7,6.4C63.1,57.5,63,58.6,63,58.6"/>
	<path class="st1" d="M61.2,58.8c0,0-1.7-1.6-4.9-1.4c-3.2,0.2-6.8-1.1-7.2-4.5c-0.4-3.4-1.7-5.2-1.7-5.2s0,0.5,2.7,0.1
		c2.7-0.4,6.8,1.2,8.2,4C59.8,54.3,61.2,58.8,61.2,58.8"/>
	<path class="st15" d="M42.7,64.4c0,0,3.6-4.4,4.5-7.3c0.9-2.9,1.1-4.6-0.8-6.5c-1.8-1.9-2.6-3.5-2.6-3.5s-1.9,3.6-3.3,4.6
		c-1.4,0.9-2.7,3.9-1.7,5.5C39.8,58.9,42.7,64.4,42.7,64.4"/>
	<path class="st16" d="M46.9,44.8c0,0.1,2.5,0.9,5.5,1.1c2.9,0.2,4.5,0,5.5-1.5c1-1.6,1.6-3.2,2.2-4.9c0.6-1.8,0.6-2.5,1.3-2.7
		c0.6-0.2-0.8,0.7-4,0.1c-3.3-0.6-4.9-1.4-6.1-0.2c-1.2,1.2-0.9,3.1-1.8,4.8C48.4,43,46.9,44.8,46.9,44.8"/>
	<path class="st0" d="M72.4,37.9c-2.4,0-6.7,1-9.7,1.6"/>
	<path class="st0" d="M69.1,31.4c-1.1,3.2-3.8,7.4-6.8,9.4"/>
	<path class="st0" d="M62.8,30.2c1.9,3.7,4,6.7,0.5,9.3"/>
	<path class="st0" d="M56.5,45c-2.8,3.9-6.6,7.5-9.9,9"/>
	<path class="st0" d="M59.7,53c-5-0.5-12.6,0.9-14.1,1"/>
	<path class="st0" d="M49.9,46c1.1,3,2.6,4.7-2.2,7.7"/>
	<path class="st1" d="M77.4,43.2c-1.9,0.3-2.3,1.3-5.8-2L68,37.9c0,0,0.7-0.6,1.5-1.4c0.8-0.8,3.5-3.9,6.8-2.5
		c3.3,1.5,5.1,2.7,5.7,3.2c0.5,0.5,2.6,1.8,3.1,2.1"/>
	<path class="st2" d="M77.4,20.3c-0.9,2.4,1.4,5.8-0.5,8.7c-1.9,2.9-6.7,4.5-8.1,5.2c-1.4,0.7-0.7,1.9-0.9-0.9
		c-0.2-2.7-1.1-2.9-0.6-5.2c0.5-2.4,3.8-5.6,5.2-5.8C73.9,22,77.4,20.3,77.4,20.3"/>
	<path class="st3" d="M65,34.4c0-0.7,0.5-1.5,0.4-4.9c-0.1-3.4-0.6-6.1-3.2-6.7c-2.6-0.6-3.1,0.2-4.8-1.2L55.7,20c0,0,0,2.9,0.3,7
		c0.3,4.1,4.4,6,6.2,6.6C63.9,34.1,65,34.4,65,34.4"/>
	<path class="st4" d="M65.1,36.2c0,0-1.6,1.6-1.5,4.8c0.1,3.2-1.3,6.8-4.6,6.7c-3.4,0-5.2,1.1-5.2,1.1s0.5,0.1,0.1-2.7
		c-0.3-2.8,1.4-6.8,4.1-7.9C60.7,37.1,65.1,36.2,65.1,36.2"/>
	<path class="st5" d="M70.2,55.7c0,0-4.3-4.2-7.1-5.5c-2.8-1.3-4.5-1.6-6.4,0c-1.9,1.6-3.4,2.2-3.4,2.2s3.5,2.4,4.4,3.9
		c0.9,1.5,3.7,3.3,5.4,2.4C64.6,57.9,70.2,55.7,70.2,55.7"/>
	<path class="st6" d="M51,49c0.1,0,1-2.5,1.2-5.4s0.1-4.6-1.4-5.7c-1.5-1.2-3.1-2-4.8-2.8c-1.7-0.8-2.4-0.9-2.6-1.6
		c-0.2-0.7,0.6,0.9,0,4.1c-0.7,3.3-1.5,4.8-0.4,6.2c1.1,1.4,3,1.3,4.6,2.4C49.3,47.3,51,49,51,49"/>
	<path class="st0" d="M72.6,80.5c-0.7-2.4-2.9-6.4-4.4-9.2"/>
	<path class="st0" d="M77.8,75.9c-3.4-0.5-8.1-2.3-11-4.9"/>
	<path class="st0" d="M77.1,69.4c-3,2.6-5.3,5.3-8.7,2.4"/>
	<path class="st0" d="M61.2,66.2c-4.5-2-9.1-5-11.4-8"/>
	<path class="st0" d="M54.5,70.9c-1-5-4.5-12.3-5.1-13.8"/>
	<path class="st0" d="M58.2,59.9c-2.6,1.6-3.8,3.5-8-0.7"/>
	<path class="st7" d="M62.1,78.7c-0.8-1.8-1.9-2,0.2-6.1l2.1-4.1c0,0,0.8,0.6,1.8,1.2c1,0.6,4.8,2.6,4.3,6.2
		c-0.4,3.6-1.1,5.6-1.4,6.2c-0.3,0.6-0.9,2.9-1.1,3.5"/>
	<path class="st8" d="M86.5,74.8c-2.5-0.4-5.1,2.5-8.4,1.2c-3.3-1.3-6.2-5.7-7.3-7c-1.1-1.2-2-0.3,0.6-1c2.5-0.7,2.4-1.6,4.8-1.6
		c2.4,0,6.4,2.6,7.1,4C83.9,71.7,86.5,74.8,86.5,74.8"/>
	<path class="st3" d="M73.7,72.4c0.7-0.2,1.6,0.2,4.8-0.6c3.2-0.8,5.7-1.8,5.5-4.4c-0.2-2.7-1.1-3-0.2-5l0.9-2c0,0-2.8,0.6-6.6,1.7
		c-3.8,1.1-4.5,5.6-4.4,7.4C73.7,71.3,73.7,72.4,73.7,72.4"/>
	<path class="st9" d="M72,72.9c0,0-2-1.3-5-0.6c-3,0.8-6.8,0.1-7.8-3.3c-1-3.3-2.5-4.9-2.5-4.9s0.1,0.5,2.7-0.4
		c2.6-0.9,6.9,0,8.7,2.5C69.9,68.7,72,72.9,72,72.9"/>
	<path class="st5" d="M55,81.8c0,0,2.7-5,3.1-8.1c0.4-3,0.3-4.8-1.9-6.3c-2.1-1.6-3.1-3-3.1-3s-1.2,3.9-2.4,5.1
		c-1.2,1.2-2,4.3-0.8,5.8C51.2,76.7,55,81.8,55,81.8"/>
	<path class="st6" d="M55.7,61.5c0,0.1,2.6,0.5,5.5,0.1c2.9-0.4,4.4-0.8,5.1-2.5c0.7-1.7,1-3.4,1.3-5.3c0.3-1.9,0.2-2.6,0.8-2.9
		c0.6-0.3-0.6,0.8-3.9,0.8c-3.3,0-5-0.5-6,0.9c-1,1.4-0.4,3.3-1,5.1C56.8,59.5,55.7,61.5,55.7,61.5"/>
	<path class="st0" d="M31.3,73.2c2.2-0.8,6-3,8.7-4.5"/>
	<path class="st0" d="M36.3,78.5c0.1-3.5,1.5-8.3,3.7-11.2"/>
	<path class="st0" d="M42.6,77.7c-2.8-3-5.7-5.3-3.2-8.8"/>
	<path class="st0" d="M44.2,61.6c1.5-4.6,4-9.3,6.8-11.7"/>
	<path class="st0" d="M38.9,54.8c4.8-1,11.6-4.6,13-5.2"/>
	<path class="st0" d="M50.1,58.6c-1.9-2.6-3.8-3.8-0.1-8.1"/>
	<path class="st17" d="M25.1,69.5c1.7-0.9,1.7-1.9,6,0.2l4.3,2.1c0,0-0.5,0.8-1,1.8c-0.5,1-2.1,4.9-5.7,4.4
		c-3.5-0.4-5.6-1.1-6.3-1.4c-0.6-0.3-3-0.9-3.6-1.1"/>
	<path class="st7" d="M31.7,91.7c0.1-2.6-3-5.2-2-8.5c0.9-3.3,5-6.3,6.1-7.4c1.1-1.1,0.1-2,1.1,0.6c0.9,2.6,1.8,2.5,2.1,4.9
		c0.3,2.4-1.9,6.6-3.2,7.2C34.5,89.1,31.7,91.7,31.7,91.7"/>
	<path class="st3" d="M39.3,74.4c0.2,0.7,0,1.6,1,4.9c1.1,3.3,2.3,5.8,4.9,5.6c2.6-0.2,2.8-1.1,4.9-0.2l2.1,0.9c0,0-0.9-2.8-2.3-6.7
		c-1.4-3.9-5.9-4.5-7.7-4.5C40.4,74.3,39.3,74.4,39.3,74.4"/>
	<path class="st4" d="M38.7,72.6c0,0,1.1-2,0.1-5.1c-1-3.1-0.7-6.9,2.4-7.9c3.2-1,4.5-2.6,4.5-2.6s-0.5,0.1,0.7,2.7
		c1.1,2.6,0.7,7-1.6,8.9C42.6,70.4,38.7,72.6,38.7,72.6"/>
	<path class="st5" d="M28.3,55.3c0,0,5.2,2.8,8.2,3.2c3,0.4,4.7,0.3,6-1.9c1.3-2.2,2.6-3.2,2.6-3.2s-4-1.2-5.3-2.5
		c-1.3-1.2-4.5-2-5.8-0.8C32.9,51.4,28.3,55.3,28.3,55.3"/>
	<path class="st10" d="M48.3,56c0,0-0.2,2.7,0.5,5.6c0.6,2.9,1.2,4.5,2.9,5.2c1.8,0.7,3.4,1,5.3,1.3c1.9,0.3,2.5,0.2,2.9,0.8
		c0.4,0.6-0.8-0.7-1.2-4c-0.3-3.4,0-5.1-1.4-6.1c-1.4-1-3.2-0.4-5.1-1C50.4,57.1,48.3,56,48.3,56"/>
	<path class="st0" d="M35,30c0.5,2.4,2.2,6.6,3.4,9.6"/>
	<path class="st0" d="M29.3,34c3.4,0.8,7.9,3.2,10.4,6"/>
	<path class="st0" d="M29.4,40.4c3.2-2.3,5.8-4.7,8.9-1.4"/>
	<path class="st0" d="M44.9,45.3c4.3,2.5,8.6,5.9,10.6,9.2"/>
	<path class="st0" d="M52.1,41.4c0.5,5.1,3.2,12.6,3.7,14.2"/>
	<path class="st0" d="M47.2,51.9c2.7-1.3,4.1-3,7.9,1.5"/>
	<path class="st1" d="M39.2,24.5c0.7,1.9,1.7,2.2-0.8,6l-2.5,3.9c0,0-0.8-0.7-1.6-1.4c-0.9-0.7-4.5-3.1-3.7-6.6
		c0.8-3.5,1.7-5.4,2.1-6c0.4-0.6,1.2-2.8,1.5-3.4"/>
	<path class="st11" d="M16.9,26.6c2.5,0.7,5.4-1.9,8.5-0.3c3.1,1.6,5.6,6.3,6.6,7.7c0.9,1.3,1.9,0.6-0.7,1c-2.6,0.4-2.6,1.4-5,1.1
		c-2.4-0.2-6.2-3.3-6.6-4.7C19.3,30,16.9,26.6,16.9,26.6"/>
	<path class="st7" d="M33,37.8c-0.7,0.1-1.6-0.4-4.9,0c-3.3,0.4-5.8,1.1-5.9,3.8c-0.1,2.7,0.8,3.1-0.3,5l-1.1,1.9c0,0,2.9-0.3,6.8-1
		c3.9-0.7,5-5,5.2-6.8S33,37.8,33,37.8"/>
	<path class="st4" d="M34.8,37.5c0,0,1.8,1.5,5,1.1c3.1-0.4,6.8,0.7,7.4,4.1c0.6,3.4,2,5.1,2,5.1s0-0.5-2.7,0.1
		c-2.7,0.6-6.9-0.8-8.5-3.4C36.5,41.9,34.8,37.5,34.8,37.5"/>
	<path class="st5" d="M52.7,30.6c0,0-3.3,4.7-4,7.7c-0.7,3-0.8,4.7,1.2,6.4c2,1.8,2.8,3.3,2.8,3.3s1.6-3.8,3-4.8
		c1.3-1,2.5-4.1,1.4-5.6C56,36,52.7,30.6,52.7,30.6"/>
	<path class="st12" d="M49.9,50.5c0-0.1-2.6-0.7-5.5-0.7c-2.9,0-4.5,0.3-5.3,1.9c-0.9,1.6-1.3,3.3-1.8,5.1c-0.5,1.8-0.5,2.5-1.1,2.8
		c-0.6,0.3,0.7-0.7,4-0.4c3.3,0.4,5,1,6.1-0.2c1.1-1.2,0.7-3.2,1.5-4.9C48.6,52.4,49.9,50.5,49.9,50.5"/>
	<path class="st1" d="M62.5,54c-2.4,0-6.7,1-9.7,1.6"/>
	<path class="st1" d="M59.1,47.5c-1.1,3.2-3.8,7.4-6.8,9.4"/>
	<path class="st1" d="M52.9,46.4c1.9,3.7,4,6.7,0.5,9.3"/>
	<path class="st1" d="M46.6,61.1c-2.8,3.9-6.6,7.5-9.9,9"/>
	<path class="st1" d="M49.8,69.1c-5-0.5-12.6,0.9-14.1,1"/>
	<path class="st1" d="M40,62.2c1.1,3,2.6,4.7-2.2,7.7"/>
	<path class="st13" d="M67.4,59.3c-1.9,0.3-2.3,1.3-5.8-2l-3.5-3.3c0,0,0.7-0.6,1.5-1.4c0.8-0.8,3.5-3.9,6.8-2.5
		c3.3,1.5,5.1,2.7,5.7,3.2c0.5,0.5,2.6,1.8,3.1,2.1"/>
	<path class="st1" d="M67.4,36.4c-0.9,2.4,1.4,5.8-0.5,8.7c-1.9,2.9-6.7,4.5-8.1,5.2c-1.4,0.7-0.7,1.9-0.9-0.9
		c-0.2-2.7-1.1-2.9-0.6-5.2c0.5-2.4,3.8-5.6,5.2-5.8C64,38.1,67.4,36.4,67.4,36.4"/>
	<path class="st14" d="M55,50.5c0-0.7,0.5-1.5,0.4-4.9c-0.1-3.4-0.6-6.1-3.2-6.7c-2.6-0.6-3.1,0.2-4.8-1.2l-1.7-1.5c0,0,0,2.9,0.3,7
		c0.3,4.1,4.4,6,6.2,6.6C54,50.3,55,50.5,55,50.5"/>
	<path class="st17" d="M55.2,52.4c0,0-1.6,1.6-1.5,4.8c0.1,3.2-1.3,6.8-4.6,6.7c-3.4,0-5.2,1.1-5.2,1.1s0.5,0.1,0.1-2.7
		c-0.3-2.8,1.4-6.8,4.1-7.9C50.8,53.2,55.2,52.4,55.2,52.4"/>
	<path class="st15" d="M60.2,71.8c0,0-4.3-4.2-7.1-5.5c-2.8-1.3-4.5-1.6-6.4,0c-1.9,1.6-3.4,2.2-3.4,2.2s3.5,2.4,4.4,3.9
		c0.9,1.5,3.7,3.3,5.4,2.4C54.7,74.1,60.2,71.8,60.2,71.8"/>
	<path class="st16" d="M41.1,65.2c0.1,0,1-2.5,1.2-5.4s0.1-4.6-1.4-5.7c-1.5-1.2-3.1-2-4.8-2.8c-1.7-0.8-2.4-0.9-2.6-1.6
		c-0.2-0.7,0.6,0.9,0,4.1c-0.7,3.3-1.5,4.8-0.4,6.2c1.1,1.4,3,1.3,4.6,2.4C39.4,63.4,41.1,65.2,41.1,65.2"/>
	<path class="st18" d="M18.1,52.8c0.1,0.4,1.5,3.8,2.2,4.6c0.7,0.8,0.1,1.4,1.6,2c1.5,0.6,3.5,0.6,4.7,0.4c1.2-0.1,4.3,0.2,5.1,0
		c0.8-0.2,2-0.8,2.8-1.1s2.5-0.7,3-0.6l3.7-0.2c0,0,3.8-1.2,4.2-1.2c0.4,0,2-1.5,2.4-2.3c0.4-0.8,0.5-2.7,1.3-3.3
		c0.8-0.6,3.9-2.7,3.9-2.7s1.5-1.2,2-2.1c0.5-0.9,2.5-1.8,2.3-3.7c-0.2-1.9-1.2-4.3-1.6-5.2c-0.4-0.9-3.2-6.1-4.4-7.1
		c-1.2-1-3.5-1.9-4.5-2.4c-1-0.5-2.5-1.7-3.6-2.2c-1.1-0.5-3.1-0.3-4.6-0.5c-1.5-0.2-2.9-0.6-4.1-0.9c-1.2-0.3-3.9-0.2-7.3,0.9
		c-3.4,1.1-3.9,2.2-5.9,3.5c-2,1.3-2.1,1.2-2.7,1.9c-0.6,0.7-1.5,2.6-1.6,4c-0.1,1.4-0.1,1.4-0.1,1.4s-0.6,4.5-0.9,5.2
		c-0.3,0.7-0.3,2.4,0,3.4c0.3,1,1.3,2.1,1.3,2.7c0,0.6-0.7,2.4-0.3,3.4C17.4,51.7,18.1,52.8,18.1,52.8z"/>
	<path class="st19" d="M21.7,49.9c2.6,0.1,3.7,3.6,7.5,5.1s6.3,0.5,9.2,0.3s0.3-3.7,2.9-3.7s5.8-0.8,5.8-0.8s2.7-6.5,3.6-8.4
		c0.9-1.9,1.8-3.2,0.9-5.6c-0.9-2.4-0.1-2-3.3-4.2c-3.2-2.2-3-2.3-5.9-1.2c-2.9,1.1-3.6-2-6.7-1.3c-3.1,0.7-2.7-0.5-5.3,0.4
		s2.2,0.3-0.8,4.3c-3,4-3.8,5-7.1,4.8s-4.6-3.1-3.3-0.2c1.3,2.9,2.5,4.4,2.5,4.4V49.9z"/>
	<path class="st20" d="M27.9,59.7c0,0,1.8,2,3.1,2.4c1.3,0.4,2.8,1,3.9,0.8s1.8-0.5,2.6-1s1.8-1.3,2-1.6c0.2-0.3,1.9-2,1.8-2.4
		c-0.1-0.4,0.2-1-1-1c-1.2,0-2.8-0.4-4,0c-1.2,0.4-0.5,0.2-2.3,0.8c-1.8,0.6-1.8,0.5-2.9,0.7C30,58.6,27.9,59.7,27.9,59.7z"/>
	<path class="st21" d="M34,57.7c0,0,5.8,2.6,6.6,1.4c0.8-1.2,2.4-1.7,3-1.4c0.6,0.3,1.2,0.5,1.7,0.8c0.5,0.3,0.9,0,0.9,0
		s0.2-1.1,1.1-0.9c0.9,0.2,4-0.7,4.5-1.3c0.5-0.6,0.7-1.9,0.9-2.8c0.2-0.9,1.3-0.9,1.2-1.6c-0.1-0.7,0.2-1.3,0-1.8s-0.1-1.5-0.7-1.8
		c-0.6-0.3-1.6-0.8-2.8,0c-1.2,0.8-2.7,1.1-3.2,2.5c-0.5,1.4-0.5,1.7-1.2,2.8c-0.7,1.1-1.7,2.2-2.4,2.2c-0.7,0-3.2,1-3.2,1L34,57.7z
		"/>
	<path class="st22" d="M38.4,52.9c-0.5,0.1-3.7-0.6-5.5-0.9c-1.8-0.3-2.8,0.4-3.6,0c-0.8-0.4-1.2-0.9-1.8-0.6
		c-0.6,0.3-0.5,0.1-1.3-0.5c-0.8-0.6-0.6-1.2-1.8-0.9s-1.9-0.2-2.6-0.1s-2.2-0.7-1.5,0.5c0.7,1.2,3.5,4.5,3.9,4.8
		c0.4,0.3,1.5,1.2,1.9,1c0.4-0.2,2.3-1,3.2-1.2c0.8-0.2,3.1-0.4,3.5-0.5c0.4-0.1,1.3-0.8,1.3-0.8L38.4,52.9z"/>
	<path class="st23" d="M26.9,56.7c0,0,3-0.4,3.5-0.5c0.5-0.1,2.5,0.2,2.5,0.2s2.3,0.6,3.3,0.4c1-0.2,4,1.2,4,0c0-1.2,1-1.7,1-1.7
		s1.9-2.1,2.2-2.2s0.3-1,0.4-1.3c0.2-0.3,0.8-0.3,1.1-0.7c0.3-0.4,0-1.3,0-1.3s-0.4-0.5-1.1,0c-0.6,0.5-2.1,1.6-2.6,2
		c-0.5,0.4-2.9,1.2-2.9,1.2l-1.8,1.6c0,0-1.4,1.6-2.7,0.8s-2.1,0.1-2.1,0.1L26.9,56.7z"/>
	<path class="st23" d="M19.6,45.9c-0.1,0.1,0,2.8,0,2.8s-1.3,1.8-1,2.3c0.3,0.5,0.1,1.3,0.5,2c0.4,0.7,0.7,0.6,0.9,2.5
		c0.3,1.9,1.9,3.9,1.9,3.9l4.7,0.4c0,0-2-2.2-2.7-2.4c-0.7-0.2-3-3.6-3.1-3.7c-0.1-0.1-0.6-3.3-0.6-3.3l1.5-0.5l2.6,0.1l2.3-0.5
		c0,0-2.5-1.1-2.9-2.4s0.1-3.9-0.6-4.6c-0.7-0.7-1.2-1.3-1.2-1.3s0-0.8-0.9-1.2c-0.9-0.4-1.5,0.1-1.8-0.4s-0.2-0.6-0.6-1
		c-0.5-0.4-0.2-2.3-0.5-0.4c-0.3,1.9-0.6,2-0.8,2.6c-0.2,0.6-2.2-1.5-1.3,0.4c0.9,1.9,0.9,2.3,1.2,2.6s0.3,0.4,0.9,0.8
		C18.7,45,19.6,45.9,19.6,45.9z"/>
	<path class="st24" d="M20.6,38.6c0.1-0.4,0.9-3.9,1.1-4.7c0.2-0.8,1.4-1.8,2.7-3.1s3.8-1.9,4.8-2c0.9-0.1,1.5-0.7,3.2-1.1
		c1.6-0.4,3.8,0.2,4.3,0c0.5-0.2,2.4,1,3.6,1.2c1.2,0.2,2.6,0.4,3.3,1.4c0.7,1,2.3,2.8,2.3,2.8s-0.3,1.6,1.3,1.1
		c1.6-0.5,3.6,0.2,3.6,0.2s0.7,1.6,0.9,2.4c0.2,0.8,0.6,3.1,0,3.7c-0.6,0.6-0.5,1.2-0.9,1.9c-0.4,0.7-2.2,1.9-2.2,1.9
		s-1.2,1.9-1.3,2.2s-2.1,2-2.1,2s2.9-1.9,3.5-2.2c0.6-0.3,1.8-1.6,2.4-1.5c0.6,0.1,2.9-1,2.9-1l0.6-2.7L54,37.3l-1.7-2.5
		c0,0,0.5-0.8,0.5-1.9c0-1.1-2-3.3-2.8-3.7c-0.9-0.4-4-0.8-5.4-1.7c-1.4-0.9-3.2-2.3-4.5-2.4c-1.3-0.1-7.4,0.2-7.9,0
		c-0.5-0.2-4.3-1.2-4.9-0.1c-0.6,1.1-4.6,2.5-4.8,2.7C22.2,28,20.5,30,20,30.5s-3,4-3,4l-0.1,1.4l1.2,2.2L20.6,38.6z"/>
	<path class="st21" d="M42.9,47.4c0-0.3,2.3-2.5,2.2-3.6c0-1.1,0-2.2,0.6-2.6s2-0.7,2.3-1.3c0.3-0.6,0.5-2.2,0-2.5s-1.3-3.2-2.2-4.2
		c-0.9-1.1-5.2-4.7-6.8-4.6c-1.6,0.1-6.2-0.1-7.5,0.5c-1.2,0.6-3.7,2-3.7,2.5c0,0.5-1.1,1-1.2,2.2c-0.1,1.2-0.7,3-0.5,3.6
		c0.2,0.6-0.3,1,0.5,1.6c0.8,0.6,0.7,0.6,1.7,1.1c1,0.5,1.7,1.2,1.3,1.9c-0.4,0.8-1,1.8-1,1.8s-1.4-1.3-1.7-1.8s-1.4-0.5-1.9-0.8
		c-0.5-0.3-2.7-0.5-2.5-1.4c0.2-0.9,0.9-2.6,1.5-3.2c0.6-0.5-2.3-2.7-2.3-2.7l2.7-3.1c0,0,7.9-4.3,9.6-4.1
		c1.6,0.2,10.2,3.4,11.2,3.8s-2.7,1-2.7,1s-5.6-1.4-6.7-1.3c-1.1,0.1-2.9,0.4-3.1,0.7C32.5,31.2,35,32,35,32s3.6,0.3,4.5,0.6
		c0.9,0.3,1.7,0.9,2.8,1.5c1.1,0.6,2.8-0.6,1.6,1.4s-1.5,2.6-1,2.5c0.5-0.1,0.9-1,1.7-0.7c0.8,0.2,1.8,0.9,1.4,1.4
		c-0.4,0.5-0.4,1-0.9,1.4c-0.4,0.4-1.3,1.5-1.2,2.3c0.1,0.8,0.1,1.3,0,1.7C43.8,44.6,42.9,47.4,42.9,47.4z"/>
	<path class="st25" d="M38,37.3c0,0-2.2,1.6-3,1.8S33.4,40,33,40.5c-0.4,0.5-1,0.8-1.3,1.9c-0.3,1.1-0.5,2.7-0.8,2.6
		C30.6,45,29.7,42,29.7,42s1.2-2.4,1.1-3.2c-0.1-0.7-0.1-5.7-0.1-5.7s0.7,4.9,1.1,5.1c0.4,0.2,2.1,0,2.1,0l2.8-0.9H38z"/>
	<path class="st23" d="M32.3,31.9c0,0-2.8,2.3-2.6,3c0.2,0.7-0.3,1.7-0.4,2.1c-0.2,0.4-1.1,2.5-1.4,2.1c-0.3-0.5,0-3.6,0-3.6
		s-1.2-3.7,0-4c1.2-0.3,2.6-0.9,2.6-0.9h0.9L32.3,31.9z"/>
	<path class="st23" d="M40.7,36.6c0,0-2.5,6-2.7,7c-0.2,1-1.4,5-1.4,5s1.9-8.1,1.8-8.4c-0.1-0.3-0.4-2.8-0.4-2.8L40.7,36.6z"/>
	<path class="st26" d="M42.6,43.7c0,0-2.4,2.5-2.8,2.9c-0.4,0.4-3.2,2-3.2,2s-2.2,0.4-2.1,0c0.1-0.4,0.5-2.5,0-2.4s0-1.1,0-1.1
		s1.1-1.1,1.5-1.4s1.5-1.5,2.3-1.7s1.4-0.6,1.8-0.8c0.4-0.2,0.5-1.1,0.5-1.1s1.1,0.7,1.1,1.1s0.2,1.4,0.2,1.4L42.6,43.7z"/>
	<path class="st23" d="M34.6,46.2c-1.2,0.6-2.7,1.8-3,1.7s-0.3-0.7-1-0.9c-0.7-0.2-1.9-0.9-1.9-0.4s-1.3-0.5-1.3-0.5
		s-0.4-1.7-0.7-1.8c-0.3-0.1-1.4-1.5-1.2-1.8C40.1,25,41.3,21,23.9,41.1c0,0-3.1,1.2-0.8,1.3s2.3,1.2,2.4,2c0.1,0.8,0.3,2,0.4,2.5
		s1,1.3,1.4,1.1s0.7,0.1,1.1,0.8c0.4,0.7,0.1,1.6,1.2,1c1.1-0.6,2.4-1.1,2.6-1c0.2,0.1,2.8,0.7,2.3-0.2
		C34.1,47.7,34.6,46.2,34.6,46.2z"/>
	<path class="st27" d="M71.4,66.9c-0.4,0-4-0.5-4.9-1c-0.9-0.5-1.4,0.2-2.3-1c-0.9-1.3-1.4-3.2-1.6-4.4c-0.2-1.2-1.3-4-1.2-4.9
		c0-0.8,0.3-2.1,0.4-2.9c0.1-0.8,0.1-2.6-0.2-3l-0.7-3.6c0,0,0.2-3.9,0.1-4.3s1-2.3,1.6-2.9c0.7-0.6,2.5-1.1,2.8-2
		c0.4-0.9,1.6-4.4,1.6-4.4s0.8-1.7,1.5-2.4c0.7-0.7,1.1-2.8,3-3.1c1.9-0.3,4.4,0.1,5.3,0.3c1,0.2,6.6,1.6,7.8,2.5
		c1.2,0.9,2.7,2.9,3.4,3.7c0.7,0.8,2.2,2,3,2.9s1,2.9,1.6,4.3s1.3,2.6,1.9,3.7c0.6,1.1,1.1,3.7,0.9,7.2c-0.2,3.5-1.1,4.3-1.9,6.5
		c-0.8,2.2-0.6,2.3-1.2,3c-0.5,0.7-2.1,2.1-3.4,2.5c-1.3,0.4-1.3,0.4-1.3,0.4s-4.2,1.7-4.7,2.1c-0.6,0.5-2.2,0.9-3.2,0.8
		c-1,0-2.3-0.7-2.9-0.6c-0.6,0.1-2.1,1.3-3.2,1.1C72.6,67.3,71.4,66.9,71.4,66.9z"/>
	<path class="st19" d="M73.2,62.8c-0.7-2.5-4.3-2.7-6.7-5.9s-2-5.8-2.5-8.6c-0.6-2.8,3.4-1.1,2.8-3.7c-0.6-2.5-0.7-5.7-0.7-5.7
		s5.5-4.2,7.1-5.5s2.6-2.5,5.1-2.2s1.9-0.4,4.8,2.1c2.8,2.5,2.9,2.3,2.5,5.3c-0.3,3,2.8,2.9,2.9,6c0.1,3.1,1.1,2.4,0.9,5.1
		s-0.8-2-3.9,1.8c-3.1,3.8-3.8,4.8-2.8,7.9c1,3.1,4,3.6,1,3.1c-3-0.5-4.8-1.3-4.8-1.3L73.2,62.8z"/>
	<path class="st17" d="M62.4,59.3c0,0-2.3-1.2-3-2.4c-0.7-1.1-1.6-2.4-1.7-3.5s0-1.8,0.3-2.7c0.3-0.9,0.8-2,1-2.3
		c0.2-0.3,1.4-2.3,1.8-2.3c0.4,0,0.9-0.4,1.2,0.7s1.1,2.6,1,3.8S63,51.2,62.8,53c-0.1,1.9,0,1.8,0,2.9C63,57.1,62.4,59.3,62.4,59.3z
		"/>
	<path class="st21" d="M62.8,53c0,0-3.9-4.9-2.9-5.9c1-1,1-2.7,0.6-3.2c-0.4-0.5-0.8-1-1.2-1.4c-0.4-0.4-0.2-0.9-0.2-0.9
		s1-0.5,0.6-1.3s-0.3-4,0.1-4.6s1.6-1.1,2.4-1.5c0.8-0.4,0.5-1.5,1.2-1.5c0.7-0.1,1.2-0.5,1.7-0.4c0.5,0.1,1.5-0.3,1.9,0.2
		c0.4,0.5,1.2,1.3,0.7,2.7c-0.5,1.3-0.4,2.8-1.6,3.7c-1.2,0.8-1.5,0.9-2.4,1.8s-1.7,2.2-1.5,2.8s-0.2,3.3-0.2,3.3L62.8,53z"/>
	<path class="st22" d="M66.3,47.7c0,0.5,1.5,3.4,2.2,5c0.7,1.6,0.3,2.8,0.9,3.4c0.6,0.7,1.2,0.9,1,1.6c-0.1,0.6,0,0.5,0.8,1.1
		s1.3,0.3,1.3,1.5c0,1.2,0.6,1.8,0.7,2.5s1.2,1.9-0.1,1.5c-1.3-0.4-5.1-2.2-5.5-2.5c-0.4-0.3-1.5-1.1-1.4-1.6s0.4-2.5,0.4-3.3
		c0-0.9-0.4-3-0.4-3.4c0-0.4,0.5-1.4,0.5-1.4L66.3,47.7z"/>
	<path class="st23" d="M65.5,59.5c0,0-0.4-2.9-0.4-3.5s-0.8-2.3-0.8-2.3s-1.1-2-1.2-3s-2.1-3.5-1-3.8c1.1-0.3,1.4-1.4,1.4-1.4
		s1.5-2.3,1.6-2.6c0.1-0.3,0.9-0.5,1.1-0.7c0.2-0.2,0.1-0.8,0.4-1.2s1.2-0.3,1.2-0.3s0.5,0.3,0.3,1c-0.3,0.7-1,2.4-1.2,3
		c-0.3,0.6-0.4,3.1-0.4,3.1l-1.1,2.1c0,0-1.2,1.7-0.1,2.7c1.1,1,0.4,2,0.4,2L65.5,59.5z"/>
	<path class="st23" d="M77.6,63.8c-0.1,0.1-2.7,0.7-2.7,0.7S73.5,66.1,73,66c-0.5-0.2-1.2,0.3-2,0c-0.8-0.2-0.8-0.5-2.6-0.3
		c-1.9,0.2-4.2-0.8-4.2-0.8l-1.6-4.4c0,0,2.6,1.4,3,2c0.4,0.6,4.2,2,4.3,2c0.1,0.1,3.3-0.2,3.3-0.2l0.1-1.5l-0.7-2.5L72.4,58
		c0,0,1.7,2.1,3,2.2c1.3,0.1,3.7-1,4.5-0.6c0.8,0.5,1.5,0.8,1.5,0.8s0.8-0.2,1.4,0.6c0.6,0.8,0.3,1.5,0.8,1.6c0.5,0.2,0.6,0,1.1,0.4
		c0.5,0.3,2.2-0.4,0.5,0.3s-1.8,1.1-2.3,1.4s2,1.7-0.1,1.3c-2-0.4-2.4-0.3-2.8-0.5s-0.5-0.2-1-0.7C78.7,64.4,77.6,63.8,77.6,63.8z"
		/>
	<path class="st28" d="M84.2,61.1c0.4-0.2,3.5-1.8,4.2-2.2c0.7-0.4,1.4-1.8,2.3-3.3c0.9-1.6,0.9-4.1,0.7-5s0.3-1.6,0.3-3.3
		c0-1.6-1.1-3.6-1-4s-1.5-2-2-3.1c-0.5-1.1-1-2.4-2.1-2.8c-1.1-0.4-3.2-1.5-3.2-1.5s-1.5,0.7-1.4-1c0.1-1.6-1.1-3.4-1.1-3.4
		s-1.7-0.3-2.5-0.3c-0.8,0-3.1,0.2-3.5,0.9c-0.4,0.7-1,0.8-1.6,1.3S72,35.9,72,35.9s-1.5,1.6-1.8,1.8c-0.3,0.2-1.4,2.5-1.4,2.5
		s1.1-3.2,1.3-3.8c0.1-0.6,1.1-2.1,0.8-2.7s0.3-3,0.3-3l2.4-1.3l3.8-0.3l2.8,1c0,0,0.6-0.7,1.7-0.9c1.1-0.2,3.6,1.1,4.2,1.8
		c0.6,0.7,1.8,3.6,2.9,4.7c1.2,1.1,2.9,2.5,3.3,3.7c0.4,1.2,1.6,7,1.9,7.4c0.3,0.4,2.2,3.8,1.3,4.6c-0.9,0.8-1.3,4.9-1.4,5.2
		s-1.6,2.3-2,2.9S89,63.5,89,63.5l-1.3,0.4l-2.4-0.6L84.2,61.1z"/>
	<path class="st21" d="M70.5,42c0.3-0.1,1.8-2.8,2.9-3c1.1-0.2,2.1-0.5,2.3-1.2c0.2-0.7,0.2-2.1,0.7-2.5c0.5-0.4,1.9-1,2.4-0.6
		c0.5,0.4,3.3,0.5,4.5,1.1c1.2,0.6,5.7,3.8,6,5.4c0.3,1.6,1.6,5.9,1.4,7.2s-1,4-1.5,4.1c-0.5,0.1-0.7,1.3-1.8,1.7
		c-1.1,0.4-2.6,1.4-3.3,1.3c-0.6,0-0.9,0.5-1.7-0.1c-0.8-0.6-0.7-0.5-1.5-1.4c-0.7-0.8-1.5-1.3-2.2-0.8c-0.6,0.6-1.4,1.4-1.4,1.4
		s1.6,1,2.1,1.2c0.5,0.2,0.8,1.2,1.3,1.6s1.1,2.5,1.9,2c0.8-0.4,2.3-1.5,2.6-2.2c0.4-0.7,3.1,1.5,3.1,1.5l2.3-3.3
		c0,0,2.2-8.6,1.6-10.1s-5.7-8.9-6.3-9.7c-0.6-0.8-0.3,2.8-0.3,2.8s2.7,5,2.9,6c0.2,1,0.3,2.8,0.1,3.1c-0.2,0.3-1.6-2-1.6-2
		s-1.2-3.3-1.7-4.1c-0.5-0.8-1.3-1.4-2.1-2.3c-0.8-0.9-0.1-2.8-1.7-1.2c-1.6,1.6-2.1,2.1-2.1,1.6c0-0.5,0.7-1.1,0.3-1.8
		s-1.3-1.5-1.7-1c-0.4,0.5-0.8,0.7-1.1,1.2c-0.3,0.5-1.1,1.6-1.9,1.7s-1.3,0.2-1.6,0.4C72.9,40.5,70.5,42,70.5,42z"/>
	<path class="st25" d="M81.2,44.2c0,0-1,2.5-1,3.3c0,0.8-0.5,1.8-0.8,2.3c-0.4,0.5-0.5,1.1-1.5,1.7c-1,0.6-2.5,1.1-2.3,1.4
		c0.2,0.3,3.2,0.4,3.2,0.4s2-1.7,2.7-1.8c0.7-0.1,5.5-1.3,5.5-1.3s-4.8,0.5-5.1,0.2c-0.3-0.3-0.5-2-0.5-2l0.2-2.9L81.2,44.2z"/>
	<path class="st23" d="M87.8,48.4c0,0-1.5,3.2-2.2,3.2c-0.7,0-1.5,0.7-1.9,0.9c-0.3,0.3-2.1,1.6-1.6,1.8c0.5,0.2,3.4-0.9,3.4-0.9
		s3.8,0.2,3.8-1c0-1.2,0.2-2.7,0.2-2.7l-0.2-0.9L87.8,48.4z"/>
	<path class="st23" d="M81.3,41.5c0,0-5.1,3.8-6,4.3c-0.9,0.4-4.4,2.5-4.4,2.5s7.3-3.7,7.6-3.7c0.3,0,2.8-0.3,2.8-0.3L81.3,41.5z"/>
	<path class="st26" d="M74.1,41.4c0,0-1.8,2.9-2.1,3.4c-0.3,0.5-1.1,3.5-1.1,3.5s0.1,2.1,0.5,1.9c0.4-0.2,2.3-1.1,2.3-0.6
		s1.1-0.3,1.1-0.3s0.8-1.4,1-1.7c0.2-0.4,1.1-1.8,1-2.6c-0.1-0.8,0.3-1.5,0.3-1.9c0.1-0.4,0.9-0.7,0.9-0.7s-0.9-0.9-1.3-0.8
		s-1.4,0.2-1.4,0.2L74.1,41.4z"/>
	<path class="st23" d="M73.6,49.6c-0.2,1.3-1.1,3-0.9,3.3s0.7,0.1,1.1,0.7c0.4,0.6,1.3,1.6,0.8,1.7c-0.5,0.1,0.8,1.2,0.8,1.2
		s1.7-0.1,1.9,0.2c0.2,0.3,1.7,0.5,2,0.7s1.7,1.1,1.7,1.1s-0.4,3.2-1,1.1s-1.7-1.9-2.4-1.8c-0.7,0.1-1.9,0.2-2.4,0.2
		c-0.5,0-1.5-0.7-1.4-1c0.2-0.4-0.3-0.6-1-0.9c-0.8-0.2-1.5,0.3-1.2-0.9c0.3-1.2,0.4-2.6,0.3-2.7c-0.2-0.2-1.4-2.5-0.4-2.2
		S73.6,49.6,73.6,49.6z"/>
	<path class="st29" d="M61.3,94.1c-0.3,0.2-2.8,1.8-3.7,2c-0.9,0.2-0.7,0.9-2.1,0.5c-1.4-0.4-2.9-1.4-3.7-2.1
		c-0.8-0.7-3.3-2-3.8-2.6c-0.5-0.6-1.1-1.6-1.6-2.2c-0.5-0.6-1.6-1.7-2-1.9l-2.7-2c0,0-2.3-2.7-2.6-2.9c-0.3-0.2-0.8-2-0.8-2.8
		c0.1-0.7,0.8-2.1,0.5-2.9S37,73.6,37,73.6s-0.6-1.6-0.6-2.4c0-0.9-1.1-2.5-0.1-3.6c1-1.2,2.8-2.3,3.5-2.7c0.7-0.4,5.1-2.5,6.5-2.5
		c1.4-0.1,3.5,0.5,4.5,0.7c1,0.2,2.6,0.1,3.7,0.3c1.1,0.2,2.5,1.4,3.7,2c1.2,0.6,2.5,1.1,3.5,1.5c1,0.4,3,1.8,5.1,4.3
		c2.1,2.5,2,3.4,2.9,5.3c0.9,1.9,1,1.9,1.2,2.6c0.1,0.8,0,2.5-0.6,3.5c-0.6,1-0.6,1-0.6,1s-1.6,3.3-1.6,3.9
		c-0.1,0.6-0.8,1.8-1.5,2.3c-0.7,0.5-1.9,0.7-2.2,1.1s-0.5,2-1.3,2.4C62.4,93.8,61.3,94.1,61.3,94.1z"/>
	<path class="st19" d="M59.9,90.4c-2-1.3-4.4,0.5-7.9-0.4c-3.5-0.9-4.9-2.8-7-4.4c-2.1-1.6,1.4-2.6-0.6-3.9c-2-1.3-4-3.5-4-3.5
		s0.9-5.7,1-7.4c0.2-1.7,0.1-3,1.8-4.2c1.8-1.1,1-1.3,4.3-1.1c3.4,0.2,3.3,0,5,2.2s3.6,0.5,5.6,2.5c2,2,2.2,1,3.8,2.9
		s-1.8-0.9-1.3,3.3c0.5,4.2,0.6,5.3,3.2,6.8c2.6,1.5,4.8,0.3,2.6,1.5s-3.9,1.7-3.9,1.7L59.9,90.4z"/>
	<path class="st20" d="M50.9,93.9c0,0-2.3,0.4-3.4,0s-2.6-0.7-3.3-1.4c-0.7-0.7-1.1-1.2-1.5-2s-0.8-1.8-0.8-2.1
		c0-0.3-0.5-2.3-0.3-2.5s0.3-0.8,1.2-0.2c0.9,0.6,2.3,1.1,3,2c0.7,0.9,0.3,0.4,1.4,1.7c1.1,1.3,1.1,1.2,1.9,1.9
		C49.8,92.1,50.9,93.9,50.9,93.9z"/>
	<path class="st21" d="M47.2,89.4c0,0-5.5-1.2-5.6-2.4c0-1.2-1-2.3-1.6-2.4s-1.1-0.3-1.6-0.3c-0.5-0.1-0.7-0.5-0.7-0.5
		s0.3-0.8-0.4-1.2c-0.8-0.3-2.7-2.5-2.8-3.1C34.4,79,34.8,78,35,77.3c0.3-0.7-0.6-1.3-0.2-1.7c0.4-0.4,0.4-1,0.8-1.2
		c0.4-0.2,0.8-0.9,1.3-0.8c0.6,0.1,1.6,0.3,2.1,1.4c0.5,1.1,1.5,2.1,1.3,3.3c-0.2,1.2-0.4,1.4-0.3,2.5c0,1.1,0.3,2.3,0.8,2.7
		c0.5,0.4,2,2.3,2,2.3L47.2,89.4z"/>
	<path class="st26" d="M46.1,84c0.3,0.3,3.1,1.5,4.6,2.2c1.5,0.7,1.9,1.7,2.7,1.8c0.8,0.1,1.3,0,1.6,0.5c0.3,0.5,0.3,0.3,1.2,0.3
		s1-0.5,1.8,0.3c0.8,0.8,1.5,0.9,2,1.3c0.5,0.4,2,0.6,0.9,1.1c-1.1,0.4-4.7,1.2-5.1,1.2c-0.4,0-1.7,0-1.9-0.3
		c-0.2-0.3-1.3-1.8-1.8-2.4c-0.5-0.6-2.1-1.8-2.4-2.1c-0.3-0.3-0.6-1.2-0.6-1.2L46.1,84z"/>
	<path class="st30" d="M52.9,92.3c0,0-2.1-1.8-2.4-2.1c-0.3-0.3-2-1.1-2-1.1s-2-0.8-2.7-1.4c-0.7-0.6-3.6-1.2-3-2
		c0.5-0.8,0-1.6,0-1.6s-0.5-2.3-0.7-2.6c-0.1-0.3,0.2-0.8,0.2-1.1s-0.4-0.6-0.5-1s0.6-0.8,0.6-0.8s0.5-0.1,0.8,0.5s0.9,2.1,1.1,2.6
		c0.2,0.5,1.7,2.3,1.7,2.3l0.6,2c0,0,0.3,1.7,1.6,1.9c1.3,0.1,1.5,1.1,1.5,1.1L52.9,92.3z"/>
	<path class="st23" d="M63.3,88.8c0,0.1-1.3,1.9-1.3,1.9s0.2,1.9-0.3,2c-0.4,0.2-0.6,0.8-1.2,1.1c-0.6,0.3-0.8,0.1-1.8,1.2
		c-1.1,1.1-3.2,1.7-3.2,1.7l-3.7-2.1c0,0,2.5-0.5,3.1-0.3c0.6,0.2,3.9-0.9,4-0.9c0.1,0,1.9-1.9,1.9-1.9l-0.9-1.1l-2-1.3l-1.5-1.5
		c0,0,2.4,0.5,3.3-0.2c0.9-0.7,1.7-2.7,2.5-2.8s1.5-0.3,1.5-0.3s0.4-0.5,1.2-0.3c0.9,0.2,1.1,0.8,1.5,0.6c0.4-0.2,0.4-0.3,0.9-0.3
		c0.5,0,1.1-1.5,0.5,0c-0.6,1.4-0.4,1.6-0.6,2.1c-0.1,0.5,2.3,0.1,0.8,0.9c-1.5,0.8-1.7,1.1-2.1,1.1c-0.4,0-0.4,0.1-1,0.1
		S63.3,88.8,63.3,88.8z"/>
	<path class="st31" d="M65.8,83.5c0.1-0.3,1.1-3.1,1.3-3.7c0.2-0.6-0.3-1.9-0.7-3.4c-0.4-1.5-2-3.2-2.7-3.7
		c-0.7-0.5-0.8-1.2-1.9-2.3c-1-1.1-2.9-1.8-3.2-2.1c-0.3-0.4-2.2-0.5-3.2-1c-1-0.5-2.1-1-3.1-0.7c-1,0.3-3,0.7-3,0.7
		s-0.5,1.2-1.5,0.1c-1-1.1-2.8-1.7-2.8-1.7s-1.2,0.7-1.8,1.1c-0.5,0.4-1.8,1.8-1.7,2.5c0.2,0.7-0.2,1.1-0.2,1.7
		c0,0.7,0.8,2.4,0.8,2.4s0.1,1.9,0,2.1s0.7,2.4,0.7,2.4s-1.3-2.7-1.6-3.2c-0.3-0.5-0.6-2-1.1-2.2c-0.5-0.2-1.7-2.1-1.7-2.1l0.7-2.1
		l2.2-2.2l2.4-0.8c0,0-0.1-0.8,0.5-1.5c0.5-0.7,2.9-1.2,3.8-1c0.8,0.1,3.4,1.5,4.8,1.6c1.4,0.1,3.4,0.1,4.4,0.7s5.4,3.8,5.9,3.9
		c0.5,0.1,3.8,1.4,3.7,2.4c0,1,2.3,4,2.4,4.2c0.1,0.3,0.4,2.4,0.6,3s0.5,4.2,0.5,4.2l-0.6,1l-1.9,0.9L65.8,83.5z"/>
	<path class="st21" d="M45.1,78.1c0.1-0.2-0.6-2.8-0.1-3.5s1-1.4,0.7-2c-0.3-0.6-1.2-1.5-1.2-2c0-0.6,0.6-1.7,1.1-1.7
		c0.5,0,2.4-1.4,3.5-1.7s6-0.5,7.2,0.4s4.7,3.1,5.4,4.1c0.6,1,1.9,3.2,1.7,3.5s0.4,1.2-0.1,2.1c-0.5,0.9-0.8,2.3-1.2,2.6
		s-0.2,0.8-1.1,0.8s-0.8,0-1.8-0.1s-1.8-0.1-1.8,0.6c0,0.7,0,1.7,0,1.7s1.7-0.2,2.1-0.3c0.4-0.1,1.3,0.4,1.8,0.4s2.3,1,2.5,0.3
		s0.5-2.2,0.3-2.9c-0.2-0.7,2.9-0.6,2.9-0.6l-0.7-3.4c0,0-4-6.9-5.3-7.5s-9.2-2.9-10.1-3.1c-0.9-0.2,1.6,2,1.6,2s4.9,1.9,5.6,2.5
		c0.7,0.6,2,1.7,2,2c0,0.3-2.3-0.5-2.3-0.5s-2.8-1.6-3.6-1.8c-0.8-0.3-1.7-0.3-2.8-0.4c-1.1-0.2-1.8-1.8-1.9,0.1s0,2.5-0.3,2.2
		c-0.3-0.3-0.2-1.1-1-1.3s-1.8-0.3-1.7,0.2c0.1,0.5-0.1,0.9,0,1.4c0.1,0.5,0.3,1.6-0.1,2.1c-0.4,0.5-0.7,0.8-0.8,1.1
		C45.7,75.7,45.1,78.1,45.1,78.1z"/>
	<path class="st25" d="M53.3,73.8c0,0,0.9,2.2,1.4,2.7c0.5,0.5,0.8,1.4,0.9,2c0.1,0.5,0.4,1,0.1,1.9c-0.3,0.9-0.8,2.1-0.6,2.1
		c0.3,0.1,2.3-1.4,2.3-1.4s0.2-2.2,0.6-2.6c0.4-0.4,2.6-3.8,2.6-3.8s-2.7,2.9-3.1,2.8c-0.4-0.1-1.5-1-1.5-1l-1.7-2L53.3,73.8z"/>
	<path class="st23" d="M60,73.1c0,0,1.1,3,0.6,3.3c-0.5,0.4-0.5,1.3-0.6,1.6c-0.1,0.3-0.3,2.2,0.1,2.1c0.4-0.2,1.6-2.4,1.6-2.4
		s2.6-1.9,1.8-2.7s-1.6-1.9-1.6-1.9l-0.7-0.5L60,73.1z"/>
	<path class="st23" d="M51.6,72c0,0-0.8,5.2-1.1,6c-0.3,0.8-1.2,4-1.2,4s2.2-6.3,2.4-6.5c0.2-0.1,1.6-1.7,1.6-1.7L51.6,72z"/>
	<path class="st25" d="M47,75.7c0,0,0.7,2.9,0.8,3.4c0.1,0.5,1.5,2.9,1.5,2.9s1.4,1.3,1.5,1c0.1-0.3,0.7-1.9,1.1-1.6
		s0.5-0.8,0.5-0.8S52,79.4,51.9,79c-0.1-0.4-0.5-1.8-1-2.3s-0.8-1.1-1-1.5s0.1-1,0.1-1s-1.1-0.1-1.3,0.2c-0.2,0.3-0.8,0.8-0.8,0.8
		L47,75.7z"/>
	<path class="st23" d="M51.9,81.5c0.7,1,1.2,2.6,1.5,2.7c0.3,0.1,0.5-0.3,1.1-0.1c0.6,0.2,1.8,0.4,1.6,0.7c-0.2,0.3,1.2,0.4,1.2,0.4
		s1-0.9,1.3-0.9c0.3,0.1,1.4-0.6,1.7-0.6c0.3,0,1.8-0.2,1.8-0.2s1.8,2.3,0,1.3s-2.3-0.4-2.7,0.1s-1.1,1.2-1.4,1.4
		c-0.3,0.3-1.4,0.4-1.5,0c-0.1-0.3-0.6-0.3-1.2,0c-0.6,0.3-0.8,1-1.3,0c-0.5-1-1.3-1.9-1.5-2c-0.2,0-2.4-0.9-1.7-1.3
		C51.6,82.7,51.9,81.5,51.9,81.5z"/>
</g>
</svg>
