<svg xmlns="http://www.w3.org/2000/svg" version="1.1" xmlns:xlink="http://www.w3.org/1999/xlink" xmlns:svgjs="http://svgjs.dev/svgjs" viewBox="0 0 108 108" style="" x="0" y="0"><style type="text/css">
	.st0{fill:none;stroke:#978E76;stroke-width:1.0749;stroke-miterlimit:10;}
	.st1{fill:none;stroke:#978E76;stroke-width:0.8062;stroke-miterlimit:10;}
	.st2{fill:#E4D9C3;}
	.st3{fill:#FFF1E7;}
	.st4{fill:#D3D4CF;}
	.st5{fill:#F9E3DE;}
	.st6{fill:#ECDDD3;}
	.st7{fill:#E9DDDA;}
	.st8{fill:#D5DDC4;}
</style><g><path class="st0" d="M41.2,34.7c0,0,6.4,20.6,6.7,24.3"></path><path class="st1" d="M46.4,52.4c0,0-11.5-7.3-14-8.7"></path><path class="st1" d="M47,54.4c0,0,2.2-4.1,3.7-5.6"></path><polyline class="st1" points="44.6,13.4 53.7,27.6 61.2,17.6 "></polyline><path class="st0" d="M53.7,27.6c0,0-0.6,9.5-1.1,11.5"></path><line class="st1" x1="46.4" y1="31.6" x2="54.7" y2="39.2"></line><line class="st1" x1="58.7" y1="34.7" x2="54.3" y2="37.9"></line><path class="st1" d="M65.1,33.4c0,0-2.6,20.5-3,21.4"></path><polyline class="st1" points="72,41.6 61.5,54.4 58.7,48 "></polyline><line class="st0" x1="89.8" y1="61.1" x2="70.4" y2="75.2"></line><polyline class="st1" points="74.3,65.4 72.4,73.8 89.2,70 "></polyline><line class="st1" x1="80.7" y1="67.7" x2="80.1" y2="63"></line><line class="st1" x1="61.4" y1="64.3" x2="58.7" y2="75.2"></line><line class="st1" x1="54" y1="61.1" x2="54.7" y2="72.2"></line><line class="st1" x1="53.1" y1="62.2" x2="53.7" y2="71.6"></line><line class="st1" x1="51.6" y1="73.8" x2="48.5" y2="62.2"></line><line class="st1" x1="50.6" y1="61.6" x2="45.5" y2="73"></line><line class="st0" x1="18.5" y1="58.3" x2="38.9" y2="73.8"></line><line class="st1" x1="36.5" y1="73.8" x2="21.5" y2="68"></line><line class="st1" x1="35.6" y1="63.7" x2="38.9" y2="71.3"></line><line class="st1" x1="29" y1="66" x2="31.7" y2="61.1"></line><line class="st1" x1="66.7" y1="76.2" x2="58.2" y2="78.6"></line><line class="st1" x1="44" y1="75.2" x2="52.6" y2="79.5"></line><line class="st0" x1="45.9" y1="85.9" x2="52.3" y2="96.2"></line><line class="st0" x1="55.5" y1="86.7" x2="51.1" y2="99"></line><line class="st0" x1="60.1" y1="100.7" x2="53.4" y2="84.1"></line><line class="st0" x1="57.1" y1="93.4" x2="62.5" y2="86.7"></line><path class="st2" d="M45,81.6c0,0,1.4-2.7,2.1-3c0.7-0.3,4.9,2.2,5.3,2.6s2.2,6,1.2,6.9c-0.9,0.9-2.9,1.6-3.5,1.6s-2.9,0-3.3-0.4
	C46.4,89,45,81.6,45,81.6z"></path><path class="st2" d="M59.7,83.6c0,0,1.8-2.2,4-2.7s5.4-1.2,5.4-1.2s1.5,2.2,1.3,3.3c-0.2,1.2-2.6,6-6.7,6.4
	c-4.1,0.4-6.4-1.4-6.4-1.4L59.7,83.6z"></path><path class="st3" d="M48.7,77.7c0,0-1-2.6,0.4-4.3c1.4-1.7,2-2.6,3.6-2.9s3.8-1,3.8-1s4,5.4,4.2,6.2c0.2,0.9,0.1,3.1-0.4,4
	c-0.5,0.9-2.2,2.2-2.7,2.6c-0.5,0.3-3,0.4-3,0.4S50.4,81.1,48.7,77.7z"></path><path class="st4" d="M51,84.2c0,0,1.8-2.4,3.6-2.9c1.7-0.5,3,0,4.3-0.8c1.4-0.8,2.8,0,2.8,0s1,2.3,1.3,3.2s1,3.6-0.9,5
	c-1.9,1.4-5.2,1.6-6.8,1.4S50,88.6,51,84.2z"></path><path class="st4" d="M34.5,69.9c0,0,5.1-1.4,6.7-1.4s3.9,0.8,4.6,1.9c0.7,1.2,1.2,3,1.2,3.8s-0.4,2.9-0.4,2.9s-4,4.7-8.5,2
	C33.5,76.5,33.7,72.3,34.5,69.9z"></path><path class="st3" d="M40.2,78.6c0,0-3.2,2.4-2.8,4.4c0.4,2,4.4,6.1,6.5,6.6c2.1,0.5,5.8,0.3,5.6-2.7s-3-5.2-3.4-5.7
	C45.7,80.5,40.2,78.6,40.2,78.6z"></path><path class="st5" d="M74.1,52.8c-0.2-0.4-2.2-1.4-3.6-1.3c-1.4,0.1-3.8,1.7-3.9,3.3s-0.5,4.1,0,4.8c0.5,0.7,1.8,0.9,2.9,0.9
	c1.2-0.1,4.1,0,5.1-1.2c1-1.2,1.5-2.1,1.3-3.2S74.1,52.8,74.1,52.8z"></path><path class="st4" d="M78.3,48.3c0,0-3.7,1.7-4.7,3.3c-1,1.6-2.2,2.7-1.8,4.5c0.5,1.8,1.9,4.2,4.7,4.5s7.3-1,8-4.5
	C85.2,52.5,80.8,49.1,78.3,48.3z"></path><path class="st6" d="M77.1,55.5c0,0,4.6,3.6,4.3,6.6c-0.3,2.9-3.8,7.1-7.4,6.4c-3.6-0.6-6.7-6-4.3-8.9C72,56.7,77.1,55.5,77.1,55.5z
	"></path><path class="st4" d="M97.8,67c0,0-1.2-1.9-4-1.7s-8.9,4-8.8,5.7c0.2,1.7,3.6,3.7,6.4,2.7S97.5,68.9,97.8,67z"></path><path class="st7" d="M86.8,62.9c0,0-0.5-4.8,1.6-6.6c2.2-1.8,4.5-2.7,6-2.5c1.5,0.1,4.3,1.7,4.3,1.7s-0.4,6.2-1.9,7.4
	C95.3,64.2,89.2,67.2,86.8,62.9z"></path><path class="st5" d="M22.4,61.2c0,0,0.1-5.6-2.1-7.4c-2.2-1.8-4.3-2.1-5.7-2.3s-2.9,0-2.9,0s-1.5,5.8,0.3,7.9
	C13.9,61.6,13.1,64.4,22.4,61.2z"></path><path class="st4" d="M25.3,69.5c0,0,1.1-3.3-1.3-4.8c-2.4-1.6-3.1-2.7-5-2.7c-1.9,0-6.5,1.4-6.5,1.4s-0.2,3.3,1.5,5.2
	S19.2,75.1,25.3,69.5z"></path><path class="st4" d="M36.7,58.1c1.4-1.4,1.3-3.6,0.7-5.6c-0.6-1.9-4-5.5-4-5.5s-6,0.6-7,2.9s-2.5,5.4-0.8,7.2
	c1.7,1.8,3.8,3.4,4.8,3.4S33.6,61.1,36.7,58.1z"></path><path class="st6" d="M32.9,54.7c0,0,6.2,1.6,6.7,3.8s2.3,7-2.3,8.6s-7.7-1-8.6-3C27.9,62.1,29.5,55.9,32.9,54.7z"></path><path class="st4" d="M60.8,51.9c0,0,4.3,2.9,4.8,3.6c0.5,0.6,4,5.5,0.7,8.1c-3.2,2.6-7.3,1.7-8.4-0.3c-1.2-2-2.5-5-1.8-6.7
	C56.8,54.9,60.8,51.9,60.8,51.9z"></path><path class="st5" d="M52.6,53.8c0,0,4.4,5.6,2.4,8.3c-2,2.7-5,4.4-6.7,4.8s-6.4-5.4-4.9-8.2C44.9,55.7,48.9,53.2,52.6,53.8z"></path><path class="st4" d="M51.7,37.2c0,0,6.4,1.1,7.6,2.3c1.2,1.2,2.8,6.7,0.3,8.8s-6.8,2.2-8.8-1.2S49,39.7,51.7,37.2z"></path><path class="st6" d="M48.9,51.5c0,0-4.6-3.6-1.9-7.1c2.7-3.5,3.6-3.6,6-3.5c2.4,0.1,4.1,0.2,4.1,0.2s1.3,1.9,1.4,4.3
	c0.2,2.4-1.1,5.6-4.3,6.2C50.9,52.1,48.9,51.5,48.9,51.5z"></path><path class="st5" d="M37.2,23.8c0,0,5.3,0,7.9,2.6s3.6,5.7,2.9,6.6c-0.7,0.9-3.1,1.9-5.3,1C40.5,33.1,35.7,29.1,37.2,23.8z"></path><path class="st7" d="M22.4,37.6c0,0,2.9-1.6,6.8-0.4c4,1.2,6,4.3,6.1,5.6c0.1,1.2-0.7,2.3-0.9,2.8c-0.2,0.5-4,2.2-7.1,0.4
	S22.6,40.4,22.4,37.6z"></path><path class="st3" d="M35.4,27.6c-1.2,1.6-2.1,5.7,0.8,8.2c2.9,2.6,7.1,3.5,8.2,1c1.1-2.5-0.1-5.5-1.8-7.3c-1.7-1.8-5.6-3.4-5.6-3.4
	L35.4,27.6z"></path><path class="st8" d="M63.2,27.1c0,0-4.7,1-5.9,2.7c-1.2,1.7-2.4,4.5-2,6.4c0.5,1.9,4.6,3.1,7.2,2.1c2.5-1,4.4-5,4.4-5v-3.6
	L63.2,27.1z"></path><path class="st4" d="M70.7,42.8c0,0-3-5.8,1-8.4c4-2.7,5.2-2.6,6.8-2.7c1.6-0.1,1.6-0.1,1.6-0.1s0.1,2.2,0,4s-1.2,7-3.9,7.9
	S72.2,43.4,70.7,42.8z"></path><path class="st5" d="M66.9,23c0,0-7.6,2.9-7.8,5.5c-0.1,2.6,1.5,7.7,4.4,8.3s7.3-1.7,8.2-5.2C72.6,28.2,68.3,24.3,66.9,23z"></path><path class="st4" d="M40.1,6.1c3,0.4,6.4,1.5,7.7,3.9c1.3,2.4,1.8,6.4,0.5,7.4s-6.2,1.6-7.8,0c-1.6-1.6-3-5.6-2.7-6.8
	C38.1,9.3,40.1,6.1,40.1,6.1z"></path><path class="st7" d="M65.5,11.2c0,0-6.2-1.4-8.7,1c-2.5,2.4-2.9,8.5,0,9.8c2.9,1.3,6.4,0.9,8.7-1.9C67.8,17.2,65.5,11.2,65.5,11.2z"></path><path class="st4" d="M72.3,66.8c-0.6-0.2-4.5-1.3-6.3-0.9c-1.8,0.4-5.4,2.5-5.8,4c-0.4,1.5-0.2,7.6,4.7,7.4c4.9-0.2,7.6-2.9,7.8-4.5
	C72.8,71.3,72.3,66.8,72.3,66.8z"></path></g></svg>