<?xml version="1.0" encoding="utf-8"?>
<svg id="Layer_1" data-name="Layer 1" viewBox="0 0 108 108" xmlns="http://www.w3.org/2000/svg">
  <defs>
    <style>
      .cls-1 {
        fill: #57bf93;
      }

      .cls-2 {
        fill: #f68b98;
      }

      .cls-3 {
        fill: #f27281;
      }

      .cls-4 {
        fill: #e63950;
      }

      .cls-5 {
        fill: #cc2e43;
      }

      .cls-6 {
        fill: #ec5569;
      }

      .cls-7 {
        fill: #ffb541;
      }

      .cls-8 {
        fill: #ff9a00;
      }
    </style>
  </defs>
  <g>
    <path class="cls-1" d="M 25.22 32.87 C 25.011 32.288 25.31 31.646 25.89 31.43 C 26.07 31.37 30.17 29.9 33.62 30.89 C 34.443 31.173 34.65 32.24 33.994 32.811 C 33.722 33.048 33.352 33.141 33 33.06 C 30.26 32.27 26.7 33.53 26.66 33.55 C 26.074 33.764 25.427 33.458 25.22 32.87 Z"/>
    <path class="cls-1" d="M 31.09 32.67 C 28.047 30.941 25.673 28.24 24.35 25 C 23.961 24.222 24.56 23.315 25.428 23.367 C 25.898 23.395 26.301 23.711 26.44 24.16 C 27.591 26.91 29.615 29.205 32.2 30.69 C 32.97 31.117 32.988 32.218 32.234 32.671 C 31.883 32.881 31.447 32.888 31.09 32.69 L 31.09 32.67 Z"/>
    <path class="cls-2" d="M 26.19 32.46 C 22.985 33.592 20.575 36.273 19.79 39.58 C 19.557 40.458 20.362 41.259 21.239 41.022 C 21.263 41.015 21.286 41.008 21.31 41 C 25.13 39.67 31.85 36.46 26.19 32.46 Z"/>
    <path class="cls-3" d="M 26.19 32.46 C 25.663 31.181 24.381 30.377 23 30.46 C 20.76 30.75 17.12 34.97 19.79 39.56 C 20.793 36.378 23.128 33.787 26.19 32.46 Z"/>
    <path class="cls-3" d="M 25.82 24.75 C 25.32 21.388 23.147 18.511 20.05 17.11 C 19.249 16.699 18.303 17.31 18.348 18.209 C 18.35 18.25 18.354 18.29 18.36 18.33 C 18.94 22.34 20.82 29.54 25.82 24.75 Z"/>
    <path class="cls-2" d="M 25.82 24.75 C 27.17 24.469 28.197 23.367 28.38 22 C 28.52 19.76 25.06 15.37 20.05 17.12 C 23.036 18.65 25.161 21.46 25.82 24.75 Z"/>
    <path class="cls-4" d="M 47.11 36.37 C 46.38 37.43 44.72 37.76 43.53 38.18 C 42.768 38.498 41.946 38.648 41.12 38.62 L 41 38.62 L 41.08 38.74 C 42.071 40.441 43.902 41.476 45.87 41.45 L 46.23 41.45 L 46.23 41.38 C 46.227 39.689 46.568 38.016 47.23 36.46 L 47.11 36.37 Z"/>
    <path class="cls-5" d="M 42.7 40.5 C 43.227 40.421 43.744 40.284 44.24 40.09 C 44.89 39.86 45.68 39.66 46.38 39.36 C 46.545 38.358 46.834 37.381 47.24 36.45 L 47.11 36.37 C 46.38 37.43 44.72 37.76 43.53 38.18 C 42.768 38.498 41.946 38.648 41.12 38.62 L 41 38.62 L 41.08 38.74 C 41.492 39.433 42.044 40.032 42.7 40.5 Z"/>
    <path class="cls-6" d="M 55.87 29.28 C 54.87 26.06 52.24 23.34 49.87 22.95 C 46.94 22.47 46.33 24.75 45.78 26.76 C 45.656 27.265 45.503 27.763 45.32 28.25 C 44.922 29.236 44.261 30.093 43.41 30.73 C 44.156 31.017 44.659 31.721 44.69 32.52 C 45.885 32.553 46.937 33.315 47.34 34.44 C 47.468 34.898 47.468 35.382 47.34 35.84 L 47.47 35.84 C 49.192 32.589 52.212 30.219 55.78 29.32 L 55.86 29.32 L 55.87 29.28 Z"/>
    <path class="cls-6" d="M 55.87 29.28 C 54.87 26.06 52.24 23.34 49.87 22.95 C 46.94 22.47 46.33 24.75 45.78 26.76 C 45.656 27.265 45.503 27.763 45.32 28.25 C 44.922 29.236 44.261 30.093 43.41 30.73 C 44.156 31.017 44.659 31.721 44.69 32.52 C 45.885 32.553 46.937 33.315 47.34 34.44 C 47.468 34.898 47.468 35.382 47.34 35.84 L 47.47 35.84 C 49.192 32.589 52.212 30.219 55.78 29.32 L 55.86 29.32 L 55.87 29.28 Z"/>
    <path class="cls-4" d="M 47.65 31.48 C 47.85 30.97 48 30.4 48.17 29.8 C 48.78 27.53 49.47 24.97 52.77 25.51 C 53.237 25.594 53.691 25.738 54.12 25.94 C 53.113 24.45 51.593 23.382 49.85 22.94 C 46.92 22.46 46.31 24.74 45.76 26.75 C 45.636 27.255 45.483 27.753 45.3 28.24 C 44.902 29.226 44.241 30.083 43.39 30.72 C 44.136 31.007 44.639 31.711 44.67 32.51 C 45.355 32.584 46.007 32.839 46.56 33.25 C 47.026 32.729 47.395 32.13 47.65 31.48 Z"/>
    <path class="cls-2" d="M 45.68 27.05 C 44.771 26.495 44.189 25.533 44.12 24.47 C 43.929 22.044 41.635 20.349 39.26 20.88 C 34.931 21.856 31.959 25.842 32.26 30.27 C 32.61 36.27 31.48 37.27 36.51 39.9 C 38.61 40.98 39.69 40.39 40.72 38.69 L 40.78 38.59 L 40.67 38.59 C 40.26 38.535 39.852 38.458 39.45 38.36 C 38.137 38.015 37.04 37.113 36.45 35.89 C 36.069 34.78 36.276 33.553 37 32.63 C 38.22 30.72 39.45 29.63 40.46 29.63 C 41.113 29.692 41.683 30.101 41.95 30.7 C 42.474 30.49 43.063 30.512 43.57 30.76 C 44.417 30.117 45.074 29.257 45.47 28.27 C 45.58 27.94 45.58 27.4 45.68 27.05 Z"/>
    <path class="cls-3" d="M 36 30.27 C 35.694 26.248 38.125 22.521 41.93 21.18 C 41.108 20.814 40.193 20.709 39.31 20.88 C 34.981 21.856 32.009 25.842 32.31 30.27 C 32.66 36.27 31.53 37.27 36.56 39.9 C 38.14 40.72 39.14 40.58 39.98 39.74 C 35.21 37.26 36.29 36.17 36 30.27 Z"/>
    <path class="cls-3" d="M 47.46 34.4 C 47.038 33.208 45.915 32.408 44.65 32.4 C 44.834 33.929 43.295 35.084 41.879 34.479 C 40.463 33.875 40.233 31.964 41.464 31.04 C 41.647 30.903 41.852 30.798 42.07 30.73 C 41.776 30.076 41.154 29.63 40.44 29.56 C 39.38 29.56 38.1 30.64 36.85 32.56 C 36.117 33.527 35.925 34.8 36.34 35.94 C 36.931 37.208 38.057 38.146 39.41 38.5 C 40.062 38.679 40.734 38.776 41.41 38.79 C 42.495 38.694 43.558 38.427 44.56 38 C 47.05 37.28 48 36.17 47.46 34.4 Z"/>
    <path class="cls-6" d="M 42.72 38 C 41.368 37.638 40.245 36.697 39.65 35.43 C 39.216 34.275 39.409 32.978 40.16 32 C 40.59 31.317 41.089 30.681 41.65 30.1 C 41.348 29.741 40.909 29.527 40.44 29.51 C 39.38 29.51 38.1 30.59 36.85 32.51 C 36.117 33.477 35.925 34.75 36.34 35.89 C 36.931 37.158 38.057 38.096 39.41 38.45 C 40.062 38.629 40.734 38.726 41.41 38.74 C 42.299 38.715 43.177 38.528 44 38.19 C 43.57 38.154 43.142 38.09 42.72 38 Z"/>
    <path class="cls-7" d="M 43.44 30.59 C 41.896 29.993 40.285 31.291 40.54 32.926 C 40.795 34.562 42.724 35.308 44.013 34.27 C 44.307 34.033 44.534 33.722 44.67 33.37 C 45.098 32.263 44.547 31.018 43.44 30.59 Z"/>
    <path class="cls-8" d="M 43.75 33.47 C 43.39 32.66 43.57 31.713 44.2 31.09 C 43.982 30.875 43.724 30.705 43.44 30.59 C 41.894 29.998 40.288 31.302 40.548 32.936 C 40.809 34.571 42.741 35.31 44.026 34.267 C 44.083 34.221 44.138 34.172 44.19 34.12 C 44.009 33.929 43.86 33.709 43.75 33.47 Z"/>
    <path class="cls-1" d="M 80.17 78.49 C 79.125 78.95 78.001 79.205 76.86 79.24 C 77.48 82.643 77.669 86.11 77.42 89.56 C 77.357 90.48 78.078 91.265 79 91.28 L 79.44 91.28 C 80.315 91.314 81.052 90.634 81.09 89.76 C 81.278 85.979 80.969 82.19 80.17 78.49 Z"/>
    <path class="cls-4" d="M 72.59 53.55 C 72.386 53.976 72.142 54.381 71.86 54.76 C 72.86 55.54 74.28 56.81 74.47 58.33 C 74.594 59.718 75.369 60.965 76.56 61.69 C 76.56 61.8 76.56 61.96 76.56 62.07 C 77.35 59.36 77.98 56.07 81.7 56.52 C 81.869 56.547 82.036 56.584 82.2 56.63 C 81.99 52.47 78.37 50.82 76.09 50.38 C 74.71 51.07 73.31 51.51 72.59 53.55 Z"/>
    <path class="cls-5" d="M 76.09 50.38 C 74.71 51.07 73.31 51.51 72.59 53.55 C 72.386 53.976 72.142 54.381 71.86 54.76 C 72.862 55.438 73.674 56.36 74.22 57.44 C 74.368 57.246 74.532 57.066 74.71 56.9 C 75.974 55.777 77.791 55.528 79.31 56.27 C 79.53 56.38 79.75 56.49 79.97 56.62 C 80.534 56.472 81.122 56.438 81.7 56.52 C 81.869 56.547 82.036 56.584 82.2 56.63 C 82 52.47 78.37 50.81 76.09 50.38 Z"/>
    <path class="cls-4" d="M 62.43 57.47 C 60.886 56.849 59.594 55.73 58.76 54.29 L 58.76 54.23 L 58.68 54.23 L 58.22 54.23 L 57.95 54.23 L 57.95 54.37 L 57.83 54.3 C 56.51 56.48 55.16 57.44 52.21 55.92 L 51.79 55.7 L 51.43 55.51 L 51.58 55.89 C 51.97 56.784 52.55 57.583 53.28 58.23 C 55.68 60.51 57.78 61.62 59.69 61.62 C 59.906 61.635 60.124 61.635 60.34 61.62 L 60.43 61.62 L 60.43 61.53 C 60.853 60.17 61.555 58.914 62.49 57.84 L 62.63 57.68 L 62.43 57.47 Z"/>
    <path class="cls-5" d="M 53.25 58.16 C 53.852 58.737 54.49 59.274 55.16 59.77 C 57.73 60.15 59.4 58.91 60.94 56.66 C 60.059 56.028 59.316 55.221 58.76 54.29 L 58.76 54.22 L 58.68 54.22 L 58.22 54.22 L 57.95 54.22 L 57.95 54.36 L 57.83 54.29 C 56.51 56.47 55.16 57.43 52.21 55.91 L 51.79 55.69 L 51.43 55.5 L 51.58 55.88 C 51.968 56.75 52.538 57.527 53.25 58.16 Z"/>
    <path class="cls-6" d="M 71 32 C 66.81 31.31 65.93 34.55 65.16 37.42 C 64.979 38.134 64.762 38.838 64.51 39.53 C 63.996 40.889 63.13 42.087 62 43 L 61.81 43.16 L 62.03 43.26 C 62.959 43.678 63.581 44.574 63.65 45.59 L 63.65 45.71 L 63.77 45.71 C 64.9 45.87 66.87 46.44 67.4 48.39 C 68.05 50.76 66.88 52.19 63.48 53.16 C 62.95 53.32 62.48 53.47 62.07 53.62 C 60.996 54.075 59.836 54.29 58.67 54.25 L 58.38 54.25 L 58.53 54.49 C 59.405 55.981 60.748 57.141 62.35 57.79 L 62.45 57.79 L 62.52 57.71 C 64.86 55.01 69.43 52.64 72.46 54.91 L 72.59 55.01 L 72.68 54.88 C 72.88 54.566 73.044 54.23 73.17 53.88 C 73.67 52.501 74.776 51.428 76.17 50.97 C 78.148 50.266 79.603 48.564 79.99 46.5 C 81.32 41.08 76.22 32.89 71 32 Z"/>
    <path class="cls-4" d="M 63.61 45.54 L 63.61 45.66 L 63.73 45.66 C 64.821 45.775 65.843 46.246 66.64 47 C 67.39 46.245 67.981 45.347 68.38 44.36 C 68.62 43.72 68.82 43.01 69.02 42.25 C 69.8 39.39 70.68 36.14 74.87 36.83 C 76.233 37.101 77.503 37.717 78.56 38.62 C 76.83 35.32 73.94 32.52 71 32 C 66.81 31.31 65.93 34.55 65.16 37.42 C 64.979 38.134 64.762 38.838 64.51 39.53 C 63.996 40.889 63.13 42.087 62 43 L 61.81 43.16 L 62.03 43.26 C 62.928 43.681 63.531 44.551 63.61 45.54 Z"/>
    <path class="cls-2" d="M 65.07 37.81 C 63.808 37.041 63.01 35.696 62.94 34.22 C 62.665 30.758 59.389 28.341 56 29.1 C 53.52 29.654 51.257 30.923 49.49 32.75 C 46.979 35.323 45.706 38.857 46 42.44 C 46.5 50.99 44.89 52.44 52 56.12 C 52.808 56.58 53.712 56.844 54.64 56.89 C 56.12 56.89 57.09 55.89 58.02 54.39 L 58.14 54.19 L 57.91 54.19 C 57.331 54.114 56.756 54.004 56.19 53.86 C 54.357 53.374 52.831 52.104 52.02 50.39 C 51.477 48.85 51.744 47.141 52.73 45.84 C 54.45 43.15 56.18 41.67 57.6 41.67 C 58.473 41.752 59.235 42.293 59.6 43.09 L 59.66 43.2 L 59.78 43.15 C 60.408 42.91 61.102 42.91 61.73 43.15 L 61.85 43.15 L 61.98 43.21 L 62.05 43.15 C 63.226 42.232 64.139 41.022 64.7 39.64 C 65 39.16 64.93 38.31 65.07 37.81 Z"/>
    <path class="cls-3" d="M 56.24 56.12 C 49.08 52.43 50.69 50.99 50.24 42.44 C 49.942 38.858 51.212 35.324 53.72 32.75 C 55.263 31.171 57.173 29.999 59.28 29.34 C 58.228 28.968 57.095 28.885 56 29.1 C 53.52 29.654 51.257 30.923 49.49 32.75 C 46.979 35.323 45.706 38.857 46 42.44 C 46.5 50.99 44.89 52.44 52 56.12 C 52.808 56.58 53.712 56.844 54.64 56.89 C 55.309 56.894 55.958 56.668 56.48 56.25 L 56.24 56.12 Z"/>
    <path class="cls-3" d="M 67.66 48.28 C 67.09 46.17 64.98 45.56 63.78 45.38 L 63.6 45.38 L 63.6 45.57 C 63.631 45.978 63.57 46.389 63.42 46.77 C 63.16 47.441 62.652 47.985 62 48.29 C 60.036 49.159 57.868 47.576 58.097 45.44 C 58.124 45.197 58.182 44.958 58.27 44.73 C 58.566 43.983 59.166 43.397 59.92 43.12 L 60.09 43.06 L 60 42.9 C 59.58 42.004 58.707 41.407 57.72 41.34 C 56.18 41.34 54.36 42.85 52.57 45.65 C 51.525 47.028 51.247 48.841 51.83 50.47 C 52.685 52.27 54.286 53.604 56.21 54.12 C 57.143 54.375 58.103 54.512 59.07 54.53 C 60.141 54.507 61.199 54.286 62.19 53.88 C 62.62 53.73 63.06 53.57 63.58 53.42 C 67.08 52.4 68.35 50.81 67.66 48.28 Z"/>
    <path class="cls-6" d="M 61 53.29 C 59.075 52.776 57.473 51.441 56.62 49.64 C 56.032 48.01 56.307 46.193 57.35 44.81 C 57.944 43.855 58.638 42.967 59.42 42.16 C 58.983 41.658 58.356 41.36 57.69 41.34 C 56.15 41.34 54.33 42.85 52.54 45.65 C 51.495 47.028 51.217 48.841 51.8 50.47 C 52.655 52.27 54.256 53.604 56.18 54.12 C 57.113 54.375 58.073 54.512 59.04 54.53 C 60.111 54.507 61.169 54.286 62.16 53.88 L 62.86 53.64 C 62.234 53.556 61.613 53.44 61 53.29 Z"/>
    <path class="cls-7" d="M 61.94 42.86 C 60.346 42.236 58.55 43.031 57.94 44.63 C 57.634 45.395 57.655 46.252 58 47 C 58.496 48.115 59.6 48.835 60.82 48.84 C 62.1 48.83 63.243 48.036 63.7 46.84 C 64.311 45.255 63.524 43.474 61.94 42.86 Z"/>
    <path class="cls-8" d="M 61.06 47 C 60.412 45.551 60.976 43.847 62.36 43.07 C 62.227 42.989 62.086 42.922 61.94 42.87 C 60.346 42.246 58.55 43.041 57.94 44.64 C 57.637 45.402 57.658 46.255 58 47 C 58.496 48.115 59.6 48.835 60.82 48.84 C 61.251 48.841 61.678 48.749 62.07 48.57 L 62.35 48.43 C 61.777 48.105 61.325 47.603 61.06 47 Z"/>
    <path class="cls-4" d="M 70.92 75.77 C 70.72 75.77 70.52 75.77 70.3 75.77 C 68.96 78.02 67.65 78.77 65.1 77.41 L 64.73 77.22 C 65.052 78.013 65.543 78.727 66.17 79.31 C 71.73 84.78 74.3 81.52 76.8 79.2 C 74.343 79.283 72.057 77.949 70.92 75.77 Z"/>
    <path class="cls-5" d="M 68.63 81.27 C 71.04 81.74 72.77 80.84 74.38 78.78 C 72.902 78.231 71.673 77.165 70.92 75.78 C 70.72 75.78 70.52 75.78 70.3 75.78 C 68.96 78.03 67.65 78.78 65.1 77.42 L 64.73 77.23 C 65.052 78.023 65.543 78.737 66.17 79.32 C 66.917 80.057 67.742 80.711 68.63 81.27 Z"/>
    <path class="cls-2" d="M 68.66 75.73 C 66.74 75.26 62.87 72.61 65.52 68.46 C 67.9 64.74 70.36 63.54 71.86 66.04 C 72.509 65.786 73.234 65.815 73.86 66.12 C 74.875 65.337 75.668 64.303 76.16 63.12 C 76.333 62.666 76.48 62.201 76.6 61.73 C 75.409 61.005 74.634 59.758 74.51 58.37 C 74.282 55.374 71.436 53.287 68.51 53.97 C 63.135 55.134 59.427 60.063 59.8 65.55 C 60.24 73.12 58.8 74.29 65.05 77.55 C 67.61 78.87 68.89 78.2 70.19 76.07 C 69.673 75.989 69.162 75.875 68.66 75.73 Z"/>
    <path class="cls-3" d="M 64.15 65.55 C 63.761 60.52 66.845 55.87 71.63 54.27 C 70.648 53.845 69.561 53.726 68.51 53.93 C 63.119 55.096 59.407 60.049 59.8 65.55 C 60.24 73.12 58.8 74.29 65.05 77.55 C 66.95 78.55 68.14 78.41 69.16 77.42 C 63.21 74.26 64.58 73 64.15 65.55 Z"/>
    <path class="cls-6" d="M 89.45 69.15 C 90.67 64.39 86.2 57.26 81.7 56.52 C 77.2 55.78 77.09 60.27 76 63 C 75.55 64.205 74.791 65.271 73.8 66.09 C 74.66 66.479 75.236 67.309 75.3 68.25 C 76.3 68.4 78.13 68.91 78.62 70.71 C 79.16 72.71 78.37 74.14 75.07 75.09 C 73.4 75.57 72.52 76.09 70.78 76.09 C 74.37 81.94 82.27 78.99 83.45 75.65 C 84.7 72.11 88.24 73.91 89.45 69.15 Z"/>
    <path class="cls-4" d="M 75.32 68.28 C 76.473 68.388 77.531 68.962 78.25 69.87 C 78.84 69.193 79.307 68.418 79.63 67.58 C 80.69 64.82 80.8 60.33 85.3 61.07 C 86.434 61.288 87.493 61.79 88.38 62.53 C 86.9 59.53 84.3 56.95 81.7 56.53 C 77.2 55.78 77.09 60.27 76 63 C 75.55 64.205 74.791 65.271 73.8 66.09 C 74.677 66.478 75.263 67.323 75.32 68.28 Z"/>
    <path class="cls-4" d="M 82.17 77.42 C 82.453 76.742 82.478 75.985 82.24 75.29 C 81.75 73.49 79.94 72.98 78.93 72.83 C 78.91 72.591 78.86 72.356 78.78 72.13 C 78.63 73.42 77.56 74.4 75.09 75.13 C 73.42 75.61 72.54 76.13 70.8 76.13 C 73.72 80.83 79.49 79.78 82.17 77.42 Z"/>
    <path class="cls-3" d="M 78.78 70.7 C 78.33 69.05 76.86 68.36 75.16 68.11 C 75.208 68.527 75.153 68.949 75 69.34 C 74.329 71.095 72.011 71.465 70.827 70.007 C 69.721 68.645 70.371 66.595 72.06 66.12 C 71.699 65.273 70.914 64.682 70 64.57 C 68.64 64.57 67 65.9 65.44 68.38 C 64.519 69.603 64.274 71.208 64.79 72.65 C 65.543 74.243 66.958 75.424 68.66 75.88 C 69.486 76.103 70.335 76.223 71.19 76.24 C 72.135 76.219 73.067 76.022 73.94 75.66 C 74.32 75.53 74.71 75.39 75.17 75.26 C 78.27 74.36 79.4 73 78.78 70.7 Z"/>
    <path class="cls-6" d="M 75.5 74.73 C 74.655 74.712 73.816 74.591 73 74.37 C 71.295 73.916 69.875 72.735 69.12 71.14 C 68.604 69.698 68.849 68.093 69.77 66.87 C 70.185 66.215 70.646 65.59 71.15 65 C 70.821 64.74 70.419 64.589 70 64.57 C 68.64 64.57 67 65.9 65.44 68.38 C 64.519 69.603 64.274 71.208 64.79 72.65 C 65.543 74.243 66.958 75.424 68.66 75.88 C 69.486 76.103 70.335 76.223 71.19 76.24 C 72.135 76.219 73.067 76.022 73.94 75.66 C 74.32 75.53 74.71 75.39 75.17 75.26 C 75.804 75.084 76.42 74.85 77.01 74.56 C 76.516 74.68 76.009 74.738 75.5 74.73 Z"/>
    <path class="cls-7" d="M 73.7 66 C 71.788 65.267 69.8 66.879 70.121 68.901 C 70.442 70.923 72.832 71.84 74.423 70.55 C 74.784 70.257 75.063 69.874 75.23 69.44 C 75.759 68.068 75.073 66.526 73.7 66 Z"/>
    <path class="cls-8" d="M 73.31 67.51 C 73.512 67.009 73.861 66.58 74.31 66.28 C 74.133 66.156 73.942 66.056 73.74 65.98 C 71.827 65.25 69.841 66.866 70.166 68.887 C 70.477 70.822 72.701 71.768 74.31 70.65 C 73.293 69.958 72.881 68.662 73.31 67.51 Z"/>
  </g>
</svg>