<?xml version="1.0" encoding="utf-8"?>
<svg id="Layer_1" data-name="Layer 1" viewBox="0 0 108 108" xmlns="http://www.w3.org/2000/svg">
  <defs>
    <style>
      .cls-1 {
        fill: #f0bdd5;
      }

      .cls-2, .cls-3 {
        fill: #fff;
      }

      .cls-2 {
        opacity: 0.3;
      }

      .cls-2, .cls-3, .cls-4 {
        isolation: isolate;
      }

      .cls-3 {
        opacity: 0.2;
      }

      .cls-4 {
        fill: #e978a0;
        opacity: 0.15;
      }

      .cls-5 {
        opacity: 0.05;
      }
    </style>
  </defs>
  <g>
    <path class="cls-1" d="M 41.21 38.16 L 54 55.76 L 66.79 38.16 C 69.082 35.006 69.082 30.734 66.79 27.58 L 61.4 20.17 C 60.291 18.692 58.122 18.559 56.84 19.89 L 55.37 21.45 C 54.628 22.24 53.372 22.24 52.63 21.45 L 51.16 19.89 C 49.878 18.559 47.709 18.692 46.6 20.17 L 41.21 27.58 C 38.918 30.734 38.918 35.006 41.21 38.16 Z"/>
    <path class="cls-2" d="M 49.18 44.87 L 54 55.76 L 58.82 44.87 C 59.607 43.107 59.643 41.1 58.92 39.31 L 56.92 34.43 C 56.67 33.767 55.796 33.624 55.348 34.172 C 55.327 34.197 55.308 34.223 55.29 34.25 L 54.7 35.11 C 54.355 35.619 53.605 35.619 53.26 35.11 L 52.67 34.25 C 52.281 33.658 51.398 33.708 51.079 34.341 C 51.065 34.37 51.051 34.4 51.04 34.43 L 49.04 39.31 C 48.33 41.105 48.38 43.113 49.18 44.87 Z"/>
    <path class="cls-1" d="M 33.31 62.48 L 54 55.76 L 41.21 38.16 C 38.919 35.006 34.858 33.686 31.15 34.89 L 22.44 37.72 C 20.671 38.314 19.867 40.361 20.76 42 L 21.76 43.88 C 22.277 44.83 21.888 46.019 20.91 46.48 L 19 47.37 C 17.334 48.179 16.792 50.288 17.86 51.8 L 23.24 59.21 C 25.533 62.368 29.599 63.688 33.31 62.48 Z"/>
    <path class="cls-3" d="M 33.31 62.48 L 54 55.76 L 41.21 38.16 C 38.919 35.006 34.858 33.686 31.15 34.89 L 22.44 37.72 C 20.671 38.314 19.867 40.361 20.76 42 L 21.76 43.88 C 22.277 44.83 21.888 46.019 20.91 46.48 L 19 47.37 C 17.334 48.179 16.792 50.288 17.86 51.8 L 23.24 59.21 C 25.533 62.368 29.599 63.688 33.31 62.48 Z"/>
    <path class="cls-2" d="M 42.16 57 L 54 55.76 L 45.14 47.81 C 43.699 46.521 41.799 45.868 39.87 46 L 34.62 46.37 C 33.905 46.411 33.503 47.211 33.896 47.809 C 33.91 47.83 33.925 47.85 33.94 47.87 L 34.58 48.7 C 34.959 49.181 34.729 49.893 34.14 50.06 L 33.14 50.36 C 32.446 50.534 32.2 51.395 32.698 51.909 C 32.73 51.942 32.764 51.972 32.8 52 L 36.8 55.38 C 38.295 56.621 40.228 57.205 42.16 57 Z"/>
    <path class="cls-1" d="M 54 77.51 L 54 55.76 L 33.31 62.48 C 29.615 63.68 27.107 67.115 27.09 71 L 27.09 80.2 C 27.11 82.056 28.793 83.448 30.62 83.12 L 32.73 82.71 C 33.793 82.512 34.803 83.248 34.94 84.32 L 35.21 86.45 C 35.466 88.282 37.303 89.448 39.07 88.9 L 47.78 86.07 C 51.489 84.865 54 81.41 54 77.51 Z"/>
    <path class="cls-4" d="M 54 77.51 L 54 55.76 L 33.31 62.48 C 29.615 63.68 27.107 67.115 27.09 71 L 27.09 80.2 C 27.11 82.056 28.793 83.448 30.62 83.12 L 32.73 82.71 C 33.793 82.512 34.803 83.248 34.94 84.32 L 35.21 86.45 C 35.466 88.282 37.303 89.448 39.07 88.9 L 47.78 86.07 C 51.489 84.865 54 81.41 54 77.51 Z"/>
    <path class="cls-2" d="M 51.5 67.4 L 54 55.76 L 43.7 61.76 C 42.03 62.732 40.822 64.336 40.35 66.21 L 39.08 71.32 C 38.935 72.029 39.611 72.629 40.298 72.401 C 40.298 72.401 40.299 72.4 40.3 72.4 L 41.3 72.04 C 41.878 71.835 42.481 72.277 42.46 72.89 L 42.46 73.89 C 42.432 74.605 43.189 75.083 43.823 74.749 C 43.846 74.737 43.868 74.724 43.89 74.71 L 48.31 72 C 49.958 70.968 51.112 69.305 51.5 67.4 Z"/>
    <path class="cls-1" d="M 74.69 62.48 L 54 55.76 L 66.79 38.16 C 69.081 35.006 73.142 33.686 76.85 34.89 L 85.56 37.72 C 87.329 38.314 88.133 40.361 87.24 42 L 86.24 43.88 C 85.723 44.83 86.112 46.019 87.09 46.48 L 89.03 47.39 C 90.696 48.199 91.238 50.308 90.17 51.82 L 84.79 59.23 C 82.488 62.394 78.405 63.707 74.69 62.48 Z"/>
    <path class="cls-4" d="M 74.69 62.48 L 54 55.76 L 66.79 38.16 C 69.081 35.006 73.142 33.686 76.85 34.89 L 85.56 37.72 C 87.329 38.314 88.133 40.361 87.24 42 L 86.24 43.88 C 85.723 44.83 86.112 46.019 87.09 46.48 L 89.03 47.39 C 90.696 48.199 91.238 50.308 90.17 51.82 L 84.79 59.23 C 82.488 62.394 78.405 63.707 74.69 62.48 Z"/>
    <path class="cls-2" d="M 65.84 57 L 54 55.76 L 62.86 47.81 C 64.301 46.521 66.201 45.868 68.13 46 L 73.38 46.37 C 74.095 46.411 74.497 47.211 74.104 47.809 C 74.09 47.83 74.075 47.85 74.06 47.87 L 73.42 48.7 C 73.041 49.181 73.271 49.893 73.86 50.06 L 74.86 50.36 C 75.554 50.534 75.8 51.395 75.302 51.909 C 75.27 51.942 75.236 51.972 75.2 52 L 71.2 55.38 C 69.705 56.621 67.772 57.205 65.84 57 Z"/>
    <path class="cls-1" d="M 54 77.51 L 54 55.76 L 74.69 62.48 C 78.385 63.68 80.893 67.115 80.91 71 L 80.91 80.2 C 80.89 82.056 79.207 83.448 77.38 83.12 L 75.27 82.71 C 74.207 82.512 73.197 83.248 73.06 84.32 L 72.79 86.45 C 72.534 88.282 70.697 89.448 68.93 88.9 L 60.22 86.07 C 56.511 84.865 54 81.41 54 77.51 Z"/>
    <path class="cls-2" d="M 56.5 67.4 L 54 55.76 L 64.3 61.76 C 65.97 62.732 67.178 64.336 67.65 66.21 L 68.92 71.32 C 69.065 72.029 68.389 72.629 67.702 72.401 C 67.702 72.401 67.701 72.4 67.7 72.4 L 66.7 72.04 C 66.122 71.835 65.519 72.277 65.54 72.89 L 65.54 73.89 C 65.568 74.605 64.811 75.083 64.177 74.749 C 64.154 74.737 64.132 74.724 64.11 74.71 L 59.69 72 C 58.044 70.966 56.892 69.304 56.5 67.4 Z"/>
    <g class="cls-5">
      <path d="M54,30.67a1.08,1.08,0,0,1-1.08-1.08V26.25a1.08,1.08,0,0,1,2.16,0v3.34A1.08,1.08,0,0,1,54,30.67Z"/>
      <path d="M29.11,48.75a1.26,1.26,0,0,1-.33,0l-3.17-1a1.08,1.08,0,0,1,.66-2.05l3.17,1a1.08,1.08,0,0,1-.33,2.1Z"/>
      <path d="M36.66,80.71A1.11,1.11,0,0,1,36,80.5a1.07,1.07,0,0,1-.23-1.5l2-2.7a1.07,1.07,0,0,1,1.74,1.26l-2,2.7A1.08,1.08,0,0,1,36.66,80.71Z"/>
      <path d="M71.34,80.71a1.08,1.08,0,0,1-.87-.45l-2-2.7a1.07,1.07,0,0,1,1.74-1.26l2,2.7A1.07,1.07,0,0,1,72,80.5,1.11,1.11,0,0,1,71.34,80.71Z"/>
      <path d="M78.89,48.75a1.08,1.08,0,0,1-.33-2.1l3.17-1a1.08,1.08,0,0,1,.66,2.05l-3.17,1A1.26,1.26,0,0,1,78.89,48.75Z"/>
    </g>
  </g>
</svg>