<?xml version="1.0" encoding="utf-8"?>
<!-- Generator: Adobe Illustrator 23.1.1, SVG Export Plug-In . SVG Version: 6.00 Build 0)  -->
<svg version="1.1" id="Layer_1" xmlns="http://www.w3.org/2000/svg" xmlns:xlink="http://www.w3.org/1999/xlink" x="0px" y="0px"
	 viewBox="0 0 108 108" style="enable-background:new 0 0 108 108;" xml:space="preserve">
<style type="text/css">
	.st0{fill:#7BB542;}
	.st1{fill:#62AA45;}
	.st2{fill:#5B9B43;}
	.st3{fill:#5DA144;}
	.st4{fill:#4F9A44;}
	.st5{fill:#619C42;}
	.st6{fill:#6C9D40;}
	.st7{fill:#5E9F43;}
	.st8{fill:#FDDA00;}
	.st9{fill:#F8BB16;}
	.st10{fill:#F28F21;}
	.st11{fill:#EE6E24;}
</style>
<g>
	<path class="st0" d="M40.19,36.54c0,4.81-3.9,8.71-8.71,8.71c-4.81,0-8.71-3.9-8.71-8.71c0-4.81,3.9-8.71,8.71-8.71
		C36.29,27.82,40.19,31.73,40.19,36.54"/>
	<path class="st0" d="M47.8,28.39c0,4.81-3.9,8.71-8.71,8.71c-4.81,0-8.71-3.9-8.71-8.71s3.9-8.71,8.71-8.71
		C43.9,19.68,47.8,23.58,47.8,28.39"/>
	<path class="st0" d="M58.85,28.47c0,4.81-3.9,8.71-8.71,8.71c-4.81,0-8.71-3.9-8.71-8.71c0-4.81,3.9-8.71,8.71-8.71
		C54.95,19.76,58.85,23.66,58.85,28.47"/>
	<path class="st0" d="M71.46,32.36c0,4.81-3.9,8.71-8.71,8.71c-4.81,0-8.71-3.9-8.71-8.71c0-4.81,3.9-8.71,8.71-8.71
		C67.56,23.64,71.46,27.55,71.46,32.36"/>
	<path class="st0" d="M81.31,34.16c0,4.81-3.9,8.71-8.71,8.71c-4.81,0-8.71-3.9-8.71-8.71c0-4.81,3.9-8.71,8.71-8.71
		C77.4,25.45,81.31,29.35,81.31,34.16"/>
	<path class="st0" d="M89.78,53.7c0,4.81-3.9,8.71-8.71,8.71c-4.81,0-8.71-3.9-8.71-8.71c0-4.81,3.9-8.71,8.71-8.71
		C85.88,44.99,89.78,48.89,89.78,53.7"/>
	<path class="st0" d="M81.31,54.58c0,4.81-3.9,8.71-8.71,8.71c-4.81,0-8.71-3.9-8.71-8.71c0-4.81,3.9-8.71,8.71-8.71
		C77.4,45.87,81.31,49.77,81.31,54.58"/>
	<path class="st0" d="M88.18,63.65c0,4.81-3.9,8.71-8.71,8.71c-4.81,0-8.71-3.9-8.71-8.71c0-4.81,3.9-8.71,8.71-8.71
		C84.28,54.94,88.18,58.84,88.18,63.65"/>
	<path class="st0" d="M73.58,76.8c0,4.81-3.9,8.71-8.71,8.71c-4.81,0-8.71-3.9-8.71-8.71c0-4.81,3.9-8.71,8.71-8.71
		C69.68,68.09,73.58,71.99,73.58,76.8"/>
	<path class="st0" d="M58.74,78.38c0,4.81-3.9,8.71-8.71,8.71c-4.81,0-8.71-3.9-8.71-8.71s3.9-8.71,8.71-8.71
		C54.84,69.67,58.74,73.57,58.74,78.38"/>
	<path class="st0" d="M37.19,70.28c0,4.81-3.9,8.71-8.71,8.71c-4.81,0-8.71-3.9-8.71-8.71c0-4.81,3.9-8.71,8.71-8.71
		C33.29,61.57,37.19,65.47,37.19,70.28"/>
	<path class="st0" d="M33.96,58.29c0,4.81-3.9,8.71-8.71,8.71c-4.81,0-8.71-3.9-8.71-8.71c0-4.81,3.9-8.71,8.71-8.71
		C30.06,49.57,33.96,53.47,33.96,58.29"/>
	<path class="st0" d="M47.17,39.42c0,4.81-3.9,8.71-8.71,8.71c-4.81,0-8.71-3.9-8.71-8.71c0-4.81,3.9-8.71,8.71-8.71
		C43.27,30.71,47.17,34.61,47.17,39.42"/>
	<path class="st0" d="M60.86,42.32c0,4.81-3.9,8.71-8.71,8.71c-4.81,0-8.71-3.9-8.71-8.71c0-4.81,3.9-8.71,8.71-8.71
		C56.95,33.6,60.86,37.5,60.86,42.32"/>
	<path class="st0" d="M73.58,46.77c0,4.81-3.9,8.71-8.71,8.71c-4.81,0-8.71-3.9-8.71-8.71c0-4.81,3.9-8.71,8.71-8.71
		C69.68,38.06,73.58,41.96,73.58,46.77"/>
	<path class="st0" d="M73.58,58.29c0,4.81-3.9,8.71-8.71,8.71c-4.81,0-8.71-3.9-8.71-8.71c0-4.81,3.9-8.71,8.71-8.71
		C69.68,49.57,73.58,53.47,73.58,58.29"/>
	<path class="st0" d="M62.92,66.06c0,4.81-3.9,8.71-8.71,8.71c-4.81,0-8.71-3.9-8.71-8.71c0-4.81,3.9-8.71,8.71-8.71
		C59.02,57.35,62.92,61.25,62.92,66.06"/>
	<path class="st0" d="M48.01,65.09c0,4.81-3.9,8.71-8.71,8.71c-4.81,0-8.71-3.9-8.71-8.71c0-4.81,3.9-8.71,8.71-8.71
		C44.11,56.38,48.01,60.28,48.01,65.09"/>
	<path class="st0" d="M50.03,66.98c0,4.81-3.9,8.71-8.71,8.71c-4.81,0-8.71-3.9-8.71-8.71s3.9-8.71,8.71-8.71
		C46.13,58.26,50.03,62.16,50.03,66.98"/>
	<path class="st0" d="M45.71,53.16c0,4.81-3.9,8.71-8.71,8.71c-4.81,0-8.71-3.9-8.71-8.71c0-4.81,3.9-8.71,8.71-8.71
		C41.81,44.45,45.71,48.35,45.71,53.16"/>
	<path class="st1" d="M40.51,88.09c0.14-0.04,0.24-0.07,0.33-0.1c1.89-0.43,3.33-1.5,4.35-3.14c0.45-0.72,0.88-1.45,1.36-2.15
		c1.3-1.87,2.81-2.45,5.04-1.96c0.4,0.09,0.79,0.19,1.21,0.3c0.46-1.06,0.64-2.16,0.81-3.33c0.4,0.1,0.77,0.17,1.12,0.29
		c0.09,0.03,0.16,0.18,0.2,0.29c0.13,0.34,0.26,0.69,0.38,1.04c0.09,0.26,0.2,0.3,0.48,0.22c0.52-0.15,1.05-0.29,1.59-0.32
		c0.79-0.05,1.41,0.36,1.92,0.93c0.36,0.4,0.71,0.83,1.03,1.27c0.77,1.03,1.77,1.65,3.04,1.83c0.05,0.01,0.09,0.03,0.14,0.04
		c-0.01,0.05-0.01,0.1-0.03,0.11c-1.83,1.36-3.82,2.03-6.1,1.36c-1.37-0.4-2.29-1.51-2.41-2.83c-0.01-0.11,0-0.22-0.01-0.4
		c1.79,1.47,3.71,2.37,6.04,2.05c-2.87-0.19-5.07-1.48-6.57-4.06c-0.73,2.29-1.9,4.21-3.65,5.74c-1.75,1.53-3.81,2.43-6.1,2.82
		c1.8-0.01,3.48-0.48,5.06-1.31c1.58-0.84,2.87-2.02,3.93-3.57c0.22,1.02,0.22,1.94-0.07,2.85c-0.49,1.54-1.54,2.56-2.96,3.24
		c-1.11,0.53-2.29,0.8-3.52,0.8c-2.29-0.01-4.42-0.63-6.38-1.82C40.68,88.24,40.62,88.18,40.51,88.09"/>
	<path class="st2" d="M89.57,56.2c-0.59,0.58-1.2,1.15-1.78,1.75c-0.89,0.93-1.76,1.86-2.84,2.57c-1.35,0.88-3.44,1.48-4.89,1.33
		c0.08-0.63,0.12-1.27,0.25-1.9c0.41-1.9,1.54-3.3,3.16-4.33c1.63-1.03,3.43-1.58,5.31-1.85c1.38-0.19,2.77-0.24,4.16-0.35
		c0.13-0.01,0.27,0,0.4,0c0,0.08,0.02,0.11,0.01,0.12c-0.93,0.99-1.33,2.25-1.77,3.49c-0.48,1.35-0.91,2.72-1.53,4
		c-1.09,2.23-2.88,3.64-5.38,4c-1.25,0.18-2.48,0.04-3.61-0.58c-0.02-0.01-0.05-0.02-0.06-0.04c-0.6-0.74-1.4-0.61-2.2-0.54
		c-0.59,0.05-0.75-0.12-0.79-0.83c0.49,0,0.98,0.01,1.47,0c3.01-0.09,5.53-1.23,7.48-3.56c0.9-1.08,1.77-2.18,2.65-3.27
		C89.59,56.22,89.58,56.21,89.57,56.2"/>
	<path class="st2" d="M66.41,21.54c-0.2,0.81-0.43,1.61-0.61,2.42c-0.28,1.25-0.54,2.5-1.1,3.67c-0.69,1.45-2.18,3.05-3.49,3.67
		c-0.26-0.58-0.56-1.15-0.77-1.75c-0.64-1.84-0.4-3.62,0.46-5.34c0.86-1.72,2.11-3.13,3.58-4.33c1.08-0.88,2.25-1.65,3.37-2.46
		c0.11-0.08,0.23-0.14,0.34-0.21c0.04,0.06,0.07,0.08,0.07,0.1c-0.28,1.33,0.03,2.61,0.3,3.91c0.29,1.4,0.64,2.8,0.77,4.22
		c0.23,2.47-0.57,4.6-2.53,6.21c-0.98,0.8-2.1,1.32-3.39,1.38c-0.03,0-0.05,0.01-0.08,0c-0.9-0.33-1.52,0.21-2.17,0.68
		c-0.48,0.35-0.7,0.28-1.11-0.3c0.42-0.26,0.85-0.5,1.26-0.77c2.53-1.64,4.1-3.92,4.55-6.92c0.21-1.39,0.38-2.78,0.57-4.17
		C66.44,21.55,66.42,21.55,66.41,21.54"/>
	<path class="st1" d="M66.4,45.06c-0.59,0.58-1.2,1.15-1.78,1.75c-0.89,0.92-1.76,1.86-2.84,2.57c-1.35,0.88-3.44,1.48-4.89,1.33
		c0.08-0.63,0.12-1.27,0.25-1.9c0.41-1.9,1.54-3.3,3.16-4.33c1.63-1.03,3.43-1.59,5.31-1.85c1.38-0.19,2.77-0.24,4.16-0.35
		c0.13-0.01,0.27,0,0.4,0c0,0.08,0.02,0.11,0.01,0.12c-0.93,0.99-1.33,2.25-1.77,3.49c-0.48,1.35-0.91,2.72-1.53,4
		c-1.09,2.23-2.88,3.64-5.38,4c-1.25,0.18-2.48,0.04-3.61-0.58c-0.02-0.01-0.05-0.02-0.06-0.04c-0.6-0.74-1.4-0.61-2.2-0.54
		c-0.59,0.05-0.75-0.12-0.79-0.83c0.49,0,0.98,0.01,1.47,0c3.01-0.09,5.53-1.23,7.48-3.56c0.9-1.08,1.77-2.18,2.65-3.27
		C66.41,45.08,66.4,45.07,66.4,45.06"/>
	<path class="st3" d="M40.29,39.23c0.69,0.46,1.38,0.93,2.09,1.37c1.09,0.67,2.19,1.33,3.11,2.24c1.15,1.13,2.17,3.06,2.33,4.5
		c-0.64,0.05-1.27,0.15-1.91,0.15c-1.95,0-3.55-0.81-4.89-2.18c-1.35-1.37-2.27-3.02-2.92-4.8c-0.48-1.31-0.82-2.66-1.22-3.99
		c-0.04-0.13-0.06-0.26-0.08-0.39c0.07-0.02,0.1-0.04,0.12-0.03c1.17,0.7,2.48,0.83,3.79,1c1.42,0.19,2.85,0.32,4.24,0.66
		c2.41,0.59,4.16,2.05,5.04,4.42c0.44,1.19,0.55,2.42,0.19,3.66c-0.01,0.02-0.01,0.05-0.02,0.07c-0.6,0.74-0.3,1.5-0.07,2.27
		c0.17,0.57,0.04,0.76-0.65,0.95c-0.1-0.48-0.19-0.96-0.31-1.44c-0.72-2.93-2.36-5.15-5.04-6.57c-1.24-0.65-2.5-1.27-3.75-1.91
		L40.29,39.23z"/>
	<path class="st4" d="M72.82,53.31c-0.59,0.58-1.2,1.15-1.77,1.75c-0.89,0.93-1.76,1.86-2.84,2.57c-1.35,0.88-3.44,1.48-4.89,1.33
		c0.08-0.63,0.12-1.27,0.25-1.9c0.41-1.9,1.54-3.3,3.16-4.33c1.63-1.03,3.43-1.59,5.31-1.85c1.38-0.19,2.77-0.24,4.16-0.35
		c0.13-0.01,0.27,0,0.4,0c0,0.08,0.02,0.11,0.01,0.12c-0.93,0.99-1.33,2.25-1.77,3.49c-0.48,1.35-0.91,2.72-1.53,4
		c-1.09,2.23-2.88,3.64-5.38,4c-1.25,0.18-2.48,0.04-3.61-0.58c-0.02-0.01-0.05-0.02-0.07-0.04c-0.6-0.74-1.4-0.61-2.2-0.54
		c-0.59,0.05-0.75-0.12-0.79-0.83c0.49,0,0.98,0.01,1.47,0c3.01-0.09,5.53-1.23,7.48-3.56c0.9-1.08,1.77-2.18,2.65-3.27
		C72.84,53.33,72.83,53.32,72.82,53.31"/>
	<path class="st5" d="M33.38,27.27c0.68,0.47,1.36,0.96,2.05,1.42c1.08,0.7,2.15,1.38,3.05,2.31c1.12,1.16,2.1,3.11,2.22,4.55
		c-0.64,0.04-1.27,0.12-1.91,0.11c-1.95-0.05-3.53-0.89-4.84-2.3c-1.31-1.4-2.2-3.07-2.81-4.87c-0.45-1.32-0.76-2.68-1.12-4.02
		c-0.04-0.13-0.05-0.26-0.08-0.39c0.07-0.02,0.1-0.04,0.12-0.03c1.15,0.72,2.46,0.89,3.76,1.09c1.41,0.22,2.85,0.38,4.22,0.76
		c2.39,0.65,4.11,2.15,4.93,4.54c0.41,1.2,0.5,2.43,0.1,3.66c-0.01,0.02-0.01,0.05-0.03,0.07c-0.62,0.73-0.34,1.49-0.12,2.27
		c0.16,0.57,0.02,0.76-0.67,0.93c-0.09-0.48-0.17-0.97-0.28-1.45c-0.65-2.94-2.24-5.21-4.89-6.68c-1.23-0.68-2.47-1.33-3.71-1.99
		C33.4,27.25,33.39,27.26,33.38,27.27"/>
	<path class="st6" d="M31.3,58.61c0.68,0.47,1.36,0.96,2.05,1.42c1.08,0.7,2.15,1.38,3.05,2.31c1.12,1.16,2.1,3.11,2.22,4.55
		c-0.64,0.04-1.27,0.12-1.91,0.11c-1.95-0.05-3.53-0.9-4.84-2.3c-1.31-1.4-2.2-3.07-2.81-4.87c-0.45-1.32-0.76-2.68-1.12-4.02
		c-0.04-0.13-0.05-0.26-0.08-0.39c0.07-0.02,0.1-0.04,0.12-0.03c1.15,0.72,2.46,0.89,3.76,1.09c1.41,0.22,2.85,0.38,4.22,0.76
		c2.39,0.65,4.11,2.15,4.93,4.54c0.41,1.2,0.5,2.43,0.1,3.66C41,65.46,41,65.49,40.98,65.51c-0.62,0.73-0.34,1.49-0.12,2.27
		c0.16,0.57,0.02,0.76-0.67,0.93c-0.09-0.48-0.17-0.97-0.28-1.45c-0.65-2.94-2.24-5.21-4.89-6.68c-1.23-0.68-2.47-1.33-3.71-1.99
		C31.31,58.59,31.3,58.6,31.3,58.61"/>
	<path class="st1" d="M72.05,58.79c0.68,0.47,1.36,0.96,2.05,1.42c1.08,0.7,2.15,1.38,3.05,2.31c1.12,1.16,2.1,3.11,2.22,4.55
		c-0.64,0.04-1.27,0.12-1.91,0.11c-1.95-0.05-3.53-0.9-4.84-2.3c-1.31-1.4-2.2-3.07-2.81-4.87c-0.45-1.32-0.76-2.68-1.12-4.02
		c-0.04-0.13-0.05-0.26-0.08-0.39c0.07-0.02,0.1-0.04,0.12-0.03c1.15,0.72,2.46,0.89,3.76,1.09c1.41,0.22,2.85,0.38,4.22,0.76
		c2.39,0.65,4.11,2.15,4.93,4.54c0.41,1.2,0.5,2.43,0.1,3.66c-0.01,0.02-0.01,0.05-0.03,0.07c-0.62,0.73-0.34,1.49-0.12,2.27
		c0.16,0.57,0.02,0.76-0.67,0.93c-0.09-0.48-0.17-0.97-0.28-1.45c-0.65-2.94-2.24-5.21-4.89-6.68c-1.23-0.68-2.47-1.33-3.71-1.99
		L72.05,58.79z"/>
	<path class="st1" d="M82.45,25.83c-0.12,0.05-0.25,0.09-0.37,0.14c-2.1,0.98-3.84,2.44-5.42,4.11c-0.36,0.38-0.69,0.77-1.04,1.16
		c-0.75,0.84-1.95,0.69-2.46-0.32c-0.35-0.7-0.28-1.4,0.04-2.09c0.47-0.99,1.24-1.73,2.12-2.34c2.54-1.77,5.37-2.55,8.47-2.39
		c0.34,0.02,0.5,0.13,0.51,0.49c0.1,3.5-0.89,6.63-3.24,9.26c-0.45,0.5-1.03,0.92-1.62,1.23c-1.15,0.61-2.18,0.32-2.97-0.73
		c-0.03-0.04-0.06-0.08-0.11-0.17c-0.31,0.56-0.6,1.06-0.88,1.57c-0.28,0.49-0.28,0.49-0.83,0.35c-0.18-0.05-0.35-0.11-0.56-0.17
		c2.15-3.93,4.65-7.5,8.43-10.01C82.5,25.89,82.47,25.86,82.45,25.83"/>
	<path class="st1" d="M41.18,16.69c0.23,0.26,0.46,0.53,0.69,0.79c2.76,3.21,5.04,6.72,6.57,10.69c0.08,0.21,0.16,0.43,0.24,0.64
		c0.08,0.22,0.03,0.35-0.24,0.31c-0.01,0-0.03-0.01-0.04-0.01c-0.96-0.09-0.96-0.09-1.24-1.03c-0.09-0.3-0.19-0.6-0.28-0.87
		c-0.51,0.03-0.99,0.12-1.46,0.07c-1.24-0.13-2.13-0.89-2.89-1.8c-1.21-1.44-1.97-3.12-2.57-4.88c-0.75-2.18-1.18-4.42-1.19-6.74
		c0-0.13,0.02-0.27,0.03-0.46c0.2,0.08,0.36,0.13,0.5,0.2c3.26,1.59,6.12,3.68,8.3,6.61c0.75,1.01,1.3,2.12,1.39,3.4
		c0.05,0.73-0.19,1.56-0.62,2.09c-1.92-3.4-4.16-6.52-7.09-9.12C41.24,16.64,41.21,16.67,41.18,16.69"/>
	<path class="st1" d="M34.2,32.32c-1.79-1.57-3.84-2.26-6.12-2.28c-1.99-0.01-3.8,0.62-5.48,1.68c0.13-0.05,0.26-0.1,0.38-0.15
		c1.87-0.77,3.8-1.23,5.82-0.97c3.35,0.43,5.58,2.27,6.67,5.48c0.02,0.07,0.05,0.14,0.06,0.22c0.01,0.03-0.01,0.07-0.04,0.17
		c-0.37-0.07-0.74-0.12-1.1-0.22c-0.1-0.03-0.18-0.2-0.23-0.32c-0.16-0.37-0.3-0.75-0.44-1.14c-0.08-0.23-0.2-0.25-0.43-0.22
		c-1.18,0.14-2.36,0.32-3.55,0.36c-1.45,0.06-2.83-0.39-4.2-0.79c-0.76-0.23-1.53-0.45-2.31-0.61c-1.34-0.29-2.59,0.04-3.76,0.71
		c-0.1,0.06-0.2,0.11-0.3,0.16c-0.02,0.01-0.05,0-0.14,0c0.19-0.46,0.36-0.9,0.56-1.33c0.8-1.73,1.85-3.26,3.5-4.31
		c1.78-1.13,3.71-1.33,5.74-0.88c1.64,0.36,3.04,1.16,4.13,2.45c0.45,0.53,0.8,1.16,1.19,1.75C34.18,32.13,34.18,32.2,34.2,32.32"/>
	<path class="st2" d="M14.09,61.36c2.36-1.21,4.9-1.73,7.55-1.72c1.48,0,2.92,0.21,4.34,0.62c-0.29,2.02-1.63,3.8-3.73,4.31
		c-1.78,0.43-3.52,0.23-5.25-0.27c-1.34-0.38-2.68-0.79-4.09-0.84c-0.63-0.02-1.26,0-1.95,0c0.16-0.3,0.3-0.59,0.47-0.86
		c1.23-2.03,2.58-3.95,4.43-5.47c1.37-1.12,2.87-1.96,4.69-2.04c2.65-0.11,4.73,1.79,5.35,3.92C21.67,58.38,17.69,58.9,14.09,61.36"
		/>
	<path class="st2" d="M26.19,68.89c0.15-0.25,0.31-0.5,0.45-0.76c0.84-1.65,1.12-3.33,0.29-5.07c-0.02-0.05-0.04-0.1-0.07-0.13
		c-0.44-0.47-0.36-0.95-0.15-1.51c0.22-0.61,0.3-1.27,0.45-1.95c0.09,0.04,0.24,0.1,0.37,0.18c1.02,0.63,1.86,1.44,2.35,2.54
		c0.88,1.99,0.69,3.89-0.61,5.66c-1.25,1.7-2.99,2.73-4.95,3.64c0.5-2.27-0.77-4.06-1.41-6.05c1.17-0.42,2.15-1.09,2.91-2.14
		c0.71,0.82,0.97,1.73,0.96,2.75c0,0.99-0.28,1.91-0.67,2.81C26.14,68.86,26.17,68.87,26.19,68.89"/>
	<path class="st2" d="M22.75,48.86c2.37-1.21,4.9-1.73,7.55-1.72c1.48,0,2.92,0.21,4.34,0.62c-0.29,2.02-1.63,3.8-3.73,4.31
		c-1.78,0.43-3.52,0.23-5.25-0.27c-1.34-0.38-2.68-0.79-4.08-0.84c-0.63-0.02-1.26,0-1.95,0c0.16-0.3,0.3-0.59,0.47-0.86
		c1.23-2.02,2.58-3.95,4.43-5.47c1.37-1.12,2.87-1.96,4.69-2.04c2.65-0.11,4.73,1.79,5.35,3.92C30.34,45.88,26.35,46.41,22.75,48.86
		"/>
	<path class="st2" d="M34.86,56.39c0.15-0.25,0.31-0.5,0.45-0.76c0.84-1.65,1.12-3.33,0.29-5.07c-0.02-0.05-0.03-0.1-0.07-0.13
		c-0.44-0.47-0.36-0.95-0.15-1.51c0.22-0.61,0.3-1.27,0.45-1.95c0.09,0.04,0.24,0.1,0.37,0.18c1.02,0.63,1.86,1.44,2.35,2.54
		c0.88,1.99,0.69,3.89-0.61,5.66c-1.25,1.7-2.99,2.73-4.95,3.64c0.5-2.27-0.77-4.06-1.41-6.05c1.17-0.42,2.15-1.09,2.91-2.14
		c0.71,0.82,0.97,1.73,0.96,2.75c-0.01,0.99-0.28,1.91-0.67,2.81C34.8,56.37,34.83,56.38,34.86,56.39"/>
	<path class="st2" d="M39.79,57.53c2.36-1.21,4.9-1.73,7.55-1.72c1.48,0,2.92,0.21,4.34,0.62c-0.29,2.02-1.63,3.8-3.73,4.31
		c-1.78,0.43-3.52,0.23-5.25-0.27c-1.34-0.38-2.68-0.79-4.09-0.84c-0.63-0.02-1.26,0-1.95,0c0.16-0.3,0.3-0.59,0.47-0.86
		c1.23-2.03,2.58-3.95,4.43-5.47c1.37-1.12,2.87-1.96,4.69-2.04c2.65-0.11,4.73,1.79,5.35,3.92C47.37,54.55,43.39,55.07,39.79,57.53
		"/>
	<path class="st2" d="M51.9,65.06c0.15-0.25,0.31-0.5,0.45-0.76c0.84-1.65,1.12-3.33,0.29-5.07c-0.02-0.05-0.04-0.1-0.07-0.13
		c-0.44-0.47-0.36-0.95-0.15-1.51c0.22-0.61,0.3-1.27,0.45-1.95c0.09,0.04,0.24,0.1,0.37,0.18c1.02,0.63,1.86,1.44,2.35,2.54
		c0.88,1.99,0.69,3.89-0.61,5.66c-1.25,1.7-2.99,2.73-4.95,3.64c0.5-2.27-0.77-4.06-1.41-6.05c1.17-0.42,2.15-1.09,2.91-2.14
		c0.71,0.82,0.97,1.73,0.96,2.75c-0.01,0.99-0.28,1.91-0.67,2.81C51.84,65.03,51.87,65.04,51.9,65.06"/>
	<path class="st2" d="M44.66,53.63c2.37-1.21,4.9-1.73,7.55-1.72c1.48,0,2.92,0.21,4.34,0.62c-0.29,2.02-1.63,3.8-3.73,4.31
		c-1.78,0.43-3.52,0.23-5.25-0.27c-1.34-0.38-2.68-0.79-4.08-0.84c-0.63-0.02-1.26,0-1.95,0c0.16-0.3,0.3-0.59,0.47-0.86
		c1.23-2.02,2.58-3.95,4.43-5.47c1.37-1.12,2.87-1.96,4.69-2.04c2.65-0.11,4.73,1.79,5.35,3.92C52.24,50.65,48.26,51.18,44.66,53.63
		"/>
	<path class="st2" d="M56.77,61.16c0.15-0.25,0.31-0.5,0.45-0.76c0.84-1.65,1.12-3.33,0.29-5.07c-0.02-0.05-0.03-0.1-0.07-0.13
		c-0.44-0.47-0.36-0.95-0.15-1.51c0.22-0.61,0.3-1.27,0.45-1.95c0.09,0.04,0.24,0.1,0.37,0.18c1.02,0.63,1.86,1.44,2.35,2.54
		c0.88,1.99,0.69,3.89-0.61,5.66c-1.25,1.7-2.99,2.73-4.95,3.64c0.5-2.27-0.77-4.06-1.41-6.05c1.17-0.42,2.15-1.09,2.91-2.14
		c0.71,0.82,0.97,1.73,0.96,2.75c-0.01,0.99-0.28,1.91-0.67,2.81C56.71,61.14,56.74,61.15,56.77,61.16"/>
	<path class="st2" d="M50.63,54.19c2.36-1.21,4.9-1.73,7.55-1.72c1.48,0,2.92,0.21,4.34,0.62c-0.29,2.02-1.63,3.8-3.73,4.31
		c-1.78,0.43-3.52,0.23-5.25-0.27c-1.34-0.38-2.68-0.79-4.08-0.84c-0.63-0.02-1.26,0-1.95,0c0.16-0.3,0.3-0.59,0.47-0.86
		c1.23-2.02,2.58-3.95,4.43-5.47c1.37-1.12,2.87-1.96,4.69-2.04c2.65-0.11,4.73,1.79,5.35,3.92C58.22,51.21,54.23,51.74,50.63,54.19
		"/>
	<path class="st2" d="M62.74,61.72c0.15-0.25,0.31-0.5,0.45-0.76c0.84-1.65,1.12-3.33,0.29-5.07c-0.02-0.05-0.04-0.1-0.07-0.13
		c-0.44-0.47-0.36-0.95-0.15-1.51c0.22-0.61,0.3-1.27,0.45-1.95c0.09,0.04,0.24,0.1,0.37,0.18c1.02,0.63,1.86,1.44,2.35,2.54
		c0.88,1.99,0.69,3.89-0.61,5.66c-1.25,1.7-2.99,2.73-4.95,3.64c0.5-2.27-0.77-4.06-1.41-6.05c1.17-0.42,2.15-1.09,2.91-2.14
		c0.71,0.82,0.97,1.73,0.96,2.75c-0.01,0.99-0.28,1.91-0.67,2.81C62.68,61.7,62.71,61.71,62.74,61.72"/>
	<path class="st2" d="M49.52,56.92c2.37-1.21,4.9-1.73,7.55-1.72c1.48,0,2.92,0.21,4.34,0.62c-0.29,2.02-1.63,3.8-3.73,4.31
		c-1.78,0.43-3.52,0.23-5.25-0.27c-1.34-0.38-2.68-0.79-4.08-0.84c-0.63-0.02-1.26,0-1.95,0.01c0.16-0.3,0.3-0.59,0.47-0.86
		c1.23-2.03,2.58-3.95,4.43-5.47c1.37-1.12,2.87-1.96,4.69-2.04c2.65-0.11,4.73,1.79,5.35,3.92C57.1,53.94,53.12,54.47,49.52,56.92"
		/>
	<path class="st2" d="M61.63,64.45c0.15-0.25,0.31-0.5,0.45-0.76c0.84-1.65,1.12-3.33,0.29-5.07c-0.02-0.05-0.03-0.1-0.07-0.13
		c-0.44-0.47-0.36-0.95-0.15-1.51c0.22-0.61,0.3-1.27,0.45-1.95c0.09,0.04,0.24,0.1,0.37,0.18c1.02,0.63,1.86,1.44,2.35,2.54
		c0.88,1.99,0.69,3.89-0.61,5.66c-1.25,1.7-2.99,2.73-4.95,3.64c0.5-2.27-0.77-4.06-1.41-6.05c1.17-0.42,2.15-1.09,2.91-2.14
		c0.71,0.82,0.97,1.73,0.96,2.75c-0.01,0.99-0.28,1.91-0.67,2.81C61.57,64.43,61.6,64.44,61.63,64.45"/>
	<path class="st2" d="M39.79,50.38c2.36-1.21,4.9-1.73,7.55-1.72c1.48,0,2.92,0.21,4.34,0.62c-0.29,2.02-1.63,3.8-3.73,4.31
		c-1.78,0.43-3.52,0.23-5.25-0.27c-1.34-0.38-2.68-0.79-4.09-0.84c-0.63-0.02-1.26,0-1.95,0c0.16-0.3,0.3-0.59,0.47-0.86
		c1.23-2.03,2.58-3.95,4.43-5.47c1.37-1.12,2.87-1.96,4.69-2.04c2.65-0.11,4.73,1.79,5.35,3.92C47.37,47.4,43.39,47.92,39.79,50.38"
		/>
	<path class="st2" d="M51.9,57.91c0.15-0.25,0.31-0.5,0.45-0.76c0.84-1.65,1.12-3.33,0.29-5.07c-0.02-0.05-0.04-0.1-0.07-0.13
		c-0.44-0.47-0.36-0.95-0.15-1.51c0.22-0.61,0.3-1.27,0.45-1.95c0.09,0.04,0.24,0.1,0.37,0.18c1.02,0.63,1.86,1.44,2.35,2.54
		c0.88,1.99,0.69,3.89-0.61,5.66c-1.25,1.7-2.99,2.73-4.95,3.64c0.5-2.27-0.77-4.06-1.41-6.05c1.17-0.42,2.15-1.09,2.91-2.14
		c0.71,0.82,0.97,1.73,0.96,2.75c-0.01,0.99-0.28,1.91-0.67,2.81C51.84,57.88,51.87,57.89,51.9,57.91"/>
	<path class="st1" d="M65.17,84.41c1-2.47,2.57-4.51,4.58-6.24c1.12-0.96,2.35-1.75,3.69-2.37c1.1,1.72,1.26,3.94,0,5.7
		c-1.06,1.49-2.51,2.48-4.15,3.24c-1.26,0.59-2.54,1.15-3.64,2.04c-0.49,0.39-0.95,0.82-1.47,1.28c-0.07-0.33-0.15-0.64-0.21-0.95
		c-0.4-2.33-0.63-4.67-0.23-7.03c0.3-1.74,0.88-3.36,2.21-4.61c1.93-1.82,4.75-1.75,6.61-0.53C68.96,77.19,66.29,80.2,65.17,84.41"
		/>
	<path class="st1" d="M79.26,82.18c-0.05-0.29-0.09-0.58-0.16-0.87c-0.45-1.79-1.33-3.25-3.1-4.02c-0.05-0.02-0.09-0.05-0.14-0.06
		c-0.64-0.06-0.89-0.48-1.1-1.05c-0.23-0.6-0.6-1.15-0.94-1.76c0.1-0.03,0.24-0.08,0.39-0.11c1.18-0.19,2.36-0.13,3.44,0.38
		c1.97,0.93,3.07,2.49,3.24,4.68c0.17,2.1-0.47,4.02-1.36,5.99c-1.11-2.04-3.24-2.57-5.03-3.65c0.61-1.09,0.91-2.23,0.8-3.52
		c1.07,0.15,1.86,0.68,2.53,1.45c0.64,0.75,1.04,1.63,1.34,2.57C79.2,82.2,79.23,82.19,79.26,82.18"/>
	<path class="st3" d="M69.35,35.15c-1.44,2.24-3.37,3.95-5.67,5.28c-1.28,0.74-2.64,1.28-4.07,1.64c-0.76-1.9-0.5-4.11,1.06-5.6
		c1.32-1.27,2.93-1.97,4.68-2.41c1.35-0.34,2.71-0.66,3.95-1.32c0.55-0.3,1.09-0.63,1.69-0.98c0.01,0.34,0.03,0.66,0.03,0.98
		c-0.05,2.37-0.26,4.71-1.09,6.95c-0.62,1.66-1.5,3.13-3.03,4.12c-2.23,1.42-4.99,0.83-6.59-0.71
		C64.28,41.53,67.47,39.07,69.35,35.15"/>
	<path class="st3" d="M55.1,34.71c0,0.29-0.02,0.59-0.01,0.88c0.1,1.84,0.7,3.44,2.3,4.53c0.04,0.03,0.08,0.07,0.13,0.08
		c0.62,0.18,0.78,0.64,0.89,1.23c0.11,0.64,0.38,1.25,0.59,1.91c-0.1,0.01-0.25,0.04-0.41,0.03c-1.2-0.03-2.34-0.31-3.31-1.02
		c-1.76-1.28-2.55-3.02-2.31-5.2c0.23-2.09,1.22-3.86,2.45-5.63c0.71,2.21,2.71,3.13,4.26,4.53c-0.8,0.95-1.31,2.02-1.44,3.31
		c-1.02-0.35-1.71-1.01-2.21-1.89c-0.49-0.86-0.72-1.79-0.83-2.77C55.16,34.7,55.13,34.7,55.1,34.71"/>
	<path class="st7" d="M51.85,77.3c0.02-2.66,0.74-5.14,1.97-7.49c0.69-1.31,1.55-2.49,2.56-3.56c1.66,1.2,2.61,3.21,2.09,5.31
		c-0.44,1.78-1.43,3.23-2.67,4.53c-0.96,1.01-1.94,2.01-2.64,3.23c-0.31,0.55-0.58,1.12-0.9,1.73c-0.19-0.28-0.38-0.54-0.54-0.81
		c-1.23-2.03-2.3-4.12-2.79-6.46c-0.36-1.73-0.41-3.45,0.37-5.1c1.13-2.4,3.78-3.37,5.96-2.92C52.72,69.2,51.34,72.97,51.85,77.3"/>
	<path class="st7" d="M64.13,70.06c-0.15-0.25-0.3-0.51-0.46-0.75c-1.07-1.5-2.43-2.53-4.36-2.6c-0.05,0-0.1-0.02-0.15,0
		c-0.62,0.17-1.01-0.12-1.41-0.57c-0.43-0.48-0.98-0.85-1.52-1.3c0.08-0.06,0.19-0.16,0.33-0.24c1.03-0.61,2.14-0.98,3.34-0.91
		c2.17,0.14,3.77,1.19,4.73,3.16c0.93,1.89,1.03,3.91,0.93,6.07c-1.78-1.49-3.96-1.2-6.02-1.56c0.17-1.23,0.03-2.41-0.55-3.57
		c1.05-0.25,1.98-0.05,2.88,0.42c0.87,0.46,1.57,1.14,2.18,1.9C64.08,70.1,64.11,70.08,64.13,70.06"/>
	<path class="st8" d="M35.58,88.66c-0.04,0.35-0.89,1.35,0.54,0.21c1.44-1.14,1.71-1.22,2.29-1.22c0.58,0,0.82,0.31,1.48-0.39
		c0.66-0.7,0.58-1.2,0.89-0.97c0.31,0.23,0.62-0.37,1.05-0.42c0.43-0.05,0.66,0.46,1.59-0.65c0.93-1.11,1.9-1.02,2.29-2.11
		c0.39-1.1,0.12-1.08,0.78-1.69c0.66-0.61,1.01-1.14,1.05-1.38c0.04-0.24,0.27-1.94,0.58-3.34c0.31-1.41,0.62-2.18,0.39-3.34
		c-0.23-1.17-0.66-2.56-0.89-3.53c-0.23-0.97,0.43-1.13-0.5-2.52c-0.93-1.4-0.82-1.67-1.63-2.74c-0.82-1.07-0.47-1.81-1.83-2.62
		c-1.36-0.82-1.48-0.54-2.49-1.17c-1.01-0.62-0.62-0.39-1.05-1.05c-0.43-0.66-0.82-1.2-1.44-1.24c-0.62-0.04-0.93-0.19-0.97,0.15
		c-0.04,0.35,0.35,0.62-0.47,0.54c-0.69-0.07-1.41-0.38-1.78-0.62c0.05,0.15,0.15,0.27,0.22,0.38c0.16,0.21,0.23,0.25,0.31,0.44
		c0.08,0.19,0.93,0.7,0.93,0.7c0.97,0.19,2.21,1.36,2.06,2.1c-0.15,0.74,0.04,0.54,0.35,1.36c0.31,0.82,0.97,0.97,0.27,1.48
		c-0.7,0.51-1.44,0.08-1.36,0.85c0.08,0.78,0.7,1.32,0.93,1.48l0.23,0.15c0,0,0.62-0.31,0.78,0.35c0.15,0.66,0.12,0.7-0.31,1.48
		c-0.43,0.78-0.16,1.32,0.12,1.9c0.27,0.58,0.89,1.29,0.85,2.14c-0.04,0.85,0.31,1.24-0.47,1.44c-0.78,0.19-1.51,0.23-1.47,0.66
		c0.04,0.43-0.16,0.63,0.38,0.47s1.13-0.11,1.4,0.78c0.27,0.89,1.18,2.37,0.2,2.29c-0.98-0.08-0.59-0.76-1.29-0.75
		c-0.7,0.01-0.74,0.83-1.24,1.08c-0.5,0.25-1.05-0.41-1.13,0.04c-0.08,0.44-0.58,1.14,0,1.66c0.58,0.53,0.27,0.73,1.2,0.82
		c0.93,0.1,0.89,0.42,0.97,0.95c0.08,0.54,0.78,0.81,0.89,1.01c0.12,0.19,0.89,0.48,0.16,0.86c-0.74,0.38-1.51,0.25-1.94,0.41
		c-0.43,0.17-0.27-0.22-0.58,0.67c-0.31,0.89-0.47,0.65-1.2,0.75c-0.74,0.1-0.62-0.4-1.13,0.18c-0.5,0.58,0.54,0.58,0.19,1.09
		c-0.35,0.51-0.88,0.32-1.01,0.66c-0.06,0.14-0.15,0.25-0.21,0.38C35.23,88.42,35.61,88.33,35.58,88.66"/>
	<path class="st9" d="M40.7,76.71c-0.27-0.89-0.85-0.94-1.4-0.78c-0.54,0.16-0.35-0.04-0.38-0.47c-0.04-0.43,0.7-0.46,1.47-0.66
		c0.78-0.19,0.43-0.58,0.47-1.44c0.04-0.85-0.58-1.56-0.85-2.14c-0.27-0.58-0.54-1.13-0.12-1.9c0.43-0.78,0.47-0.82,0.31-1.48
		c-0.16-0.66-0.78-0.35-0.78-0.35l-0.23-0.15c-0.23-0.16-0.85-0.7-0.93-1.48c-0.08-0.78,0.66-0.35,1.36-0.85
		c0.7-0.5,0.04-0.66-0.27-1.48c-0.31-0.82-0.5-0.62-0.35-1.36c0.16-0.74-1.09-1.9-2.06-2.1c0,0-0.85-0.5-0.93-0.7
		c-0.08-0.19-0.15-0.23-0.31-0.44c-0.08-0.1-0.17-0.22-0.23-0.38c-0.07-0.04-0.12-0.08-0.16-0.12c-0.27-0.23-0.62-0.71-1.28-0.47
		c-0.66,0.24-0.41,0.23-1.27,0c-0.86-0.23-0.75-0.5-1.29-0.27c-0.54,0.23-0.43,0.46-0.89,0.27c-0.47-0.19-0.43-0.45-0.66-0.36
		c-0.23,0.09-0.39,0.23-0.58,0.36c-0.19,0.12-1.36,0-1.36,0c-0.5,0.43-1.24,0.35-1.71,0.51c-0.47,0.15-0.74,0.89-0.93,1.13
		c-0.2,0.23-0.16,0.35-1.05,0.62c-0.89,0.27-1.55,0.31-1.86,0.89c-0.31,0.58-0.23,1.05-0.7,1.44c-0.47,0.39-1.79,1.47-2.17,2
		c-0.39,0.53-0.93,0.76-1.44,2.12c-0.5,1.36,0.15,1.94,0,2.21c-0.15,0.27,0,1.4-0.19,2.56c-0.19,1.16-0.62,1.98-0.82,2.37
		c-0.19,0.39-0.82,1.09-0.23,2.56c0.23,0.59,0.67,1.3,1.13,1.99c0.17-0.68,0.45-1.32,0.65-2.15c0.35-1.4,0.31-1.98,0.47-2.87
		c0.16-0.89,0.35-1.32,0.2-2.18c-0.16-0.85-0.51-2.37,0.06-2.64c0.56-0.27,1.11-0.08,1.34-0.7c0.23-0.62,0.39-1.32,0.66-1.86
		c0.27-0.54,1.36-0.94,1.94-1.42c0.58-0.48,1.59-1.07,2.21-1.34c0.62-0.27,1.71-0.82,2.91,0c1.2,0.82,1.24,1.39,2.02,1.34
		c0.78-0.06,1.16-0.24,2.15-0.29c0.99-0.04,1.46-0.59,2.12,0.29c0.66,0.88,1.75,2.74,1.86,3.05c0.12,0.31,1.24,0.43,0.74,1.55
		c-0.5,1.13-1.09,0.39-1.09,1.98c0,1.59-0.12,2.49-0.15,3.5c-0.04,1.01-0.16,1.31-0.19,2.38c-0.04,1.08,0.54,1.38-0.7,1.73
		c-1.24,0.35-1.87,0.59-2.58,0.82c-0.72,0.23-1.18,0.61-1.03,1.22c0.16,0.61,0.5,1.11,0.27,1.73c-0.23,0.62,0.23,0.82-0.62,0.97
		c-0.85,0.15-1.71-0.47-1.59,0.37c0.12,0.84,1.55,0.71,0.62,1.47c-0.93,0.76-1.13,1.22-1.75,1.16c-0.62-0.05-1.2,0.06-1.13,0.3
		c0.08,0.23,0.97,0.39,0.08,0.58c-0.57,0.12-0.57,0.36-0.53,0.67c0.1-0.02,0.22-0.03,0.37-0.05c1.01-0.12,1.9-0.7,2.21-0.08
		c0.31,0.62-0.43,1.15,0.19,1.29c0.62,0.14,0.7,0.03,1.36-0.17c0.66-0.19,1.17-0.48,1.82-0.18c0.66,0.3,0.89,0.44,1.59,0
		c0.04-0.02,0.07-0.04,0.1-0.06c0.07-0.13,0.16-0.24,0.21-0.38c0.13-0.34,0.66-0.15,1.01-0.66c0.35-0.51-0.7-0.51-0.19-1.09
		c0.51-0.58,0.39-0.08,1.13-0.18c0.74-0.1,0.89,0.14,1.2-0.75c0.31-0.89,0.15-0.51,0.58-0.67c0.43-0.17,1.2-0.03,1.94-0.41
		c0.74-0.38-0.04-0.67-0.16-0.86c-0.12-0.19-0.82-0.47-0.89-1.01c-0.08-0.54-0.04-0.86-0.97-0.95c-0.93-0.09-0.62-0.29-1.2-0.82
		c-0.58-0.53-0.08-1.22,0-1.66c0.08-0.45,0.62,0.21,1.13-0.04c0.51-0.25,0.54-1.07,1.24-1.08c0.7-0.01,0.31,0.67,1.29,0.75
		C41.88,79.08,40.97,77.6,40.7,76.71"/>
	<path class="st10" d="M27.46,87.38c0.89-0.19,0-0.35-0.08-0.58c-0.08-0.23,0.5-0.35,1.13-0.3c0.62,0.05,0.82-0.4,1.75-1.16
		c0.93-0.76-0.5-0.64-0.62-1.47c-0.12-0.84,0.74-0.21,1.59-0.37c0.85-0.15,0.39-0.35,0.62-0.97c0.23-0.62-0.12-1.12-0.27-1.73
		c-0.15-0.61,0.31-0.98,1.03-1.22c0.72-0.23,1.34-0.46,2.59-0.82c1.24-0.35,0.66-0.66,0.7-1.73c0.04-1.07,0.16-1.37,0.19-2.38
		c0.04-1.01,0.15-1.9,0.15-3.5c0-1.59,0.58-0.85,1.09-1.98c0.5-1.13-0.62-1.24-0.74-1.55c-0.12-0.31-1.2-2.17-1.86-3.05
		c-0.66-0.87-1.13-0.33-2.12-0.29c-0.99,0.04-1.38,0.23-2.15,0.29c-0.78,0.06-0.82-0.52-2.02-1.34c-1.2-0.82-2.29-0.27-2.91,0
		c-0.62,0.27-1.63,0.85-2.21,1.34c-0.58,0.48-1.67,0.88-1.94,1.42c-0.27,0.54-0.43,1.24-0.66,1.86c-0.23,0.62-0.78,0.43-1.34,0.7
		c-0.56,0.27-0.21,1.79-0.06,2.64c0.15,0.85-0.04,1.28-0.19,2.18c-0.15,0.89-0.12,1.47-0.47,2.87c-0.21,0.83-0.48,1.46-0.65,2.14
		c0.7,1.05,1.45,2.05,1.59,2.49c0.23,0.73,0,1.38,0.82,2.45c0.82,1.07,0.97,1.69,1.59,1.73c0.62,0.04,1.28,0.78,1.75,1.01
		c0.47,0.23,1.32,0.11,0.7,0.44c-0.62,0.33-1.67-0.09-1.05,0.45c0.62,0.54,0.82,0.51,1.24,0.51c0.43,0,0.7,0.31,1.36,0.54
		c0.56,0.2,0.4,0.14,0.95,0.05C26.89,87.74,26.89,87.51,27.46,87.38"/>
	<path class="st11" d="M26.06,66.06c0.66-0.5,2.76-1.51,3.46-0.93c0.7,0.58-0.51,0.89,1.09,1.24c1.59,0.35,2.14,0.12,2.76,0.47
		c0.62,0.35,1.07,0.78,1.14,1.17c0.06,0.39,1.15,0.23,0.76,1.36c-0.39,1.13-0.16,0.35-0.58,1.44c-0.43,1.09-0.13,1.44-0.18,2.37
		c-0.05,0.93,0.18,2.3-0.71,2.76c-0.89,0.46-1.98,0.25-2.76,1.09c-0.78,0.84-1.44,1.65-2.14,1.73c-0.7,0.08-0.93,0.59-1.48-0.31
		c-0.54-0.89,0.31-1.1-1.36-1.42c-1.67-0.32-2.33-0.52-2.1-1.37c0.23-0.85-1.2,0.51-0.78-1.16c0.43-1.67,0.5-2.13,0.7-2.33
		c0.19-0.19,0.47-0.43-0.04-0.74c-0.5-0.31-0.93-0.43-1.24-1.86c-0.31-1.44,0-1.9,0.7-1.94c0.7-0.04,1.24,1.01,1.63,0.66
		c0.39-0.35,0-0.54,0.47-0.82c0.47-0.27,0.39-0.08,0.19-0.54c-0.19-0.47-0.39-0.35-0.16-0.66C25.67,65.95,26.06,66.06,26.06,66.06"
		/>
	<path class="st8" d="M53.68,51.55c-0.04,0.35-0.89,1.35,0.54,0.21c1.44-1.14,1.71-1.22,2.29-1.22c0.58,0,0.82,0.31,1.48-0.39
		c0.66-0.7,0.58-1.2,0.89-0.97c0.31,0.23,0.62-0.37,1.05-0.42c0.43-0.05,0.66,0.46,1.59-0.65c0.93-1.11,1.9-1.02,2.29-2.11
		c0.39-1.1,0.12-1.08,0.78-1.69c0.66-0.61,1.01-1.14,1.05-1.38c0.04-0.24,0.27-1.94,0.58-3.34c0.31-1.41,0.62-2.18,0.39-3.34
		c-0.23-1.17-0.66-2.57-0.89-3.53c-0.23-0.97,0.43-1.13-0.5-2.52c-0.93-1.4-0.82-1.67-1.63-2.74c-0.82-1.07-0.47-1.81-1.82-2.62
		c-1.36-0.82-1.48-0.54-2.49-1.16c-1.01-0.62-0.62-0.39-1.05-1.05c-0.43-0.66-0.82-1.2-1.44-1.24c-0.62-0.04-0.93-0.19-0.97,0.15
		c-0.04,0.35,0.35,0.62-0.47,0.54c-0.69-0.07-1.41-0.38-1.78-0.62c0.05,0.15,0.15,0.27,0.22,0.38c0.15,0.21,0.23,0.25,0.31,0.44
		c0.08,0.19,0.93,0.7,0.93,0.7c0.97,0.19,2.21,1.36,2.06,2.1c-0.15,0.74,0.04,0.54,0.35,1.36c0.31,0.82,0.97,0.97,0.27,1.47
		c-0.7,0.51-1.44,0.08-1.36,0.86c0.08,0.78,0.7,1.32,0.93,1.48l0.23,0.15c0,0,0.62-0.31,0.78,0.35c0.15,0.66,0.12,0.7-0.31,1.48
		c-0.43,0.78-0.16,1.32,0.12,1.9c0.27,0.58,0.89,1.29,0.86,2.14c-0.04,0.85,0.31,1.24-0.47,1.44c-0.78,0.19-1.51,0.23-1.47,0.66
		c0.04,0.43-0.16,0.63,0.38,0.47c0.54-0.16,1.13-0.11,1.4,0.78c0.27,0.89,1.18,2.37,0.2,2.29c-0.98-0.08-0.59-0.76-1.29-0.75
		c-0.7,0.01-0.74,0.83-1.24,1.08c-0.5,0.25-1.05-0.41-1.13,0.04c-0.08,0.44-0.58,1.14,0,1.66c0.58,0.53,0.27,0.73,1.2,0.82
		c0.93,0.1,0.89,0.42,0.97,0.96c0.08,0.54,0.78,0.81,0.89,1c0.12,0.19,0.89,0.48,0.16,0.86c-0.74,0.38-1.51,0.25-1.94,0.41
		c-0.43,0.17-0.27-0.22-0.58,0.67c-0.31,0.89-0.47,0.65-1.2,0.75c-0.74,0.1-0.62-0.4-1.13,0.18c-0.5,0.58,0.54,0.58,0.19,1.09
		c-0.35,0.51-0.88,0.33-1.01,0.66c-0.06,0.14-0.15,0.25-0.21,0.38C53.33,51.31,53.72,51.21,53.68,51.55"/>
	<path class="st9" d="M58.81,39.59c-0.27-0.89-0.85-0.94-1.4-0.78c-0.54,0.16-0.35-0.04-0.38-0.47c-0.04-0.43,0.7-0.46,1.47-0.66
		c0.78-0.19,0.43-0.58,0.47-1.44c0.04-0.85-0.58-1.55-0.85-2.14c-0.27-0.58-0.54-1.13-0.12-1.9c0.43-0.78,0.47-0.82,0.31-1.48
		c-0.16-0.66-0.78-0.35-0.78-0.35l-0.23-0.15c-0.23-0.16-0.85-0.7-0.93-1.48c-0.08-0.78,0.66-0.35,1.36-0.86
		c0.7-0.5,0.04-0.66-0.27-1.47c-0.31-0.82-0.5-0.62-0.35-1.36c0.15-0.74-1.09-1.9-2.06-2.1c0,0-0.85-0.5-0.93-0.7
		c-0.08-0.19-0.16-0.23-0.31-0.44c-0.08-0.1-0.17-0.22-0.23-0.38c-0.07-0.04-0.12-0.08-0.16-0.12c-0.27-0.23-0.62-0.71-1.28-0.47
		c-0.66,0.24-0.41,0.23-1.27,0c-0.86-0.23-0.75-0.5-1.29-0.27c-0.54,0.23-0.43,0.46-0.89,0.27c-0.47-0.19-0.43-0.45-0.66-0.36
		c-0.23,0.09-0.39,0.23-0.58,0.36c-0.19,0.12-1.36,0-1.36,0c-0.5,0.43-1.24,0.35-1.71,0.51c-0.47,0.15-0.74,0.89-0.93,1.13
		c-0.2,0.23-0.16,0.35-1.05,0.62c-0.89,0.27-1.55,0.31-1.86,0.89c-0.31,0.58-0.23,1.05-0.7,1.44c-0.47,0.39-1.79,1.47-2.17,2
		c-0.39,0.53-0.93,0.76-1.44,2.12c-0.5,1.36,0.15,1.94,0,2.21c-0.15,0.27,0,1.4-0.19,2.56c-0.19,1.16-0.62,1.98-0.82,2.37
		c-0.19,0.39-0.82,1.09-0.23,2.56c0.23,0.59,0.67,1.3,1.13,1.99c0.17-0.68,0.45-1.32,0.65-2.15c0.35-1.4,0.31-1.98,0.47-2.87
		c0.16-0.89,0.35-1.32,0.2-2.18c-0.16-0.85-0.51-2.37,0.06-2.64c0.56-0.27,1.11-0.08,1.34-0.7c0.23-0.62,0.39-1.32,0.66-1.86
		c0.27-0.54,1.36-0.94,1.94-1.42c0.58-0.48,1.59-1.07,2.21-1.34c0.62-0.27,1.71-0.82,2.91,0c1.2,0.82,1.24,1.39,2.02,1.34
		c0.78-0.06,1.16-0.24,2.15-0.29c0.99-0.04,1.46-0.59,2.12,0.29c0.66,0.88,1.75,2.74,1.86,3.05c0.12,0.31,1.24,0.43,0.74,1.55
		c-0.5,1.13-1.09,0.39-1.09,1.98c0,1.59-0.12,2.49-0.15,3.5c-0.04,1.01-0.16,1.31-0.19,2.38c-0.04,1.07,0.54,1.38-0.7,1.73
		c-1.24,0.35-1.87,0.59-2.58,0.82c-0.72,0.23-1.18,0.61-1.03,1.22c0.15,0.61,0.5,1.11,0.27,1.73c-0.23,0.62,0.23,0.82-0.62,0.97
		c-0.85,0.15-1.71-0.47-1.59,0.37s1.55,0.71,0.62,1.47c-0.93,0.76-1.13,1.21-1.75,1.16c-0.62-0.05-1.2,0.06-1.13,0.3
		c0.08,0.23,0.97,0.39,0.08,0.58C45,50.39,45,50.62,45.04,50.94c0.1-0.02,0.22-0.03,0.37-0.05c1.01-0.12,1.9-0.7,2.21-0.08
		c0.31,0.62-0.43,1.15,0.19,1.29c0.62,0.14,0.7,0.03,1.36-0.17c0.66-0.19,1.17-0.48,1.82-0.18c0.66,0.3,0.89,0.44,1.59,0
		c0.03-0.02,0.06-0.04,0.1-0.06c0.07-0.13,0.16-0.24,0.21-0.38c0.13-0.33,0.66-0.15,1.01-0.66c0.35-0.51-0.7-0.51-0.19-1.09
		c0.51-0.58,0.39-0.08,1.13-0.18c0.74-0.1,0.89,0.14,1.2-0.75c0.31-0.89,0.15-0.51,0.58-0.67c0.43-0.16,1.2-0.03,1.94-0.41
		c0.74-0.38-0.04-0.67-0.16-0.86c-0.12-0.19-0.82-0.47-0.89-1c-0.08-0.54-0.04-0.86-0.97-0.96c-0.93-0.09-0.62-0.29-1.2-0.82
		c-0.58-0.53-0.08-1.22,0-1.66c0.08-0.45,0.62,0.21,1.13-0.04c0.5-0.25,0.54-1.07,1.24-1.08c0.7-0.01,0.31,0.67,1.29,0.75
		C59.99,41.96,59.08,40.48,58.81,39.59"/>
	<path class="st10" d="M45.57,50.26c0.89-0.19,0-0.35-0.08-0.58c-0.08-0.23,0.5-0.35,1.13-0.3c0.62,0.05,0.82-0.4,1.75-1.16
		c0.93-0.76-0.5-0.64-0.62-1.47c-0.12-0.84,0.74-0.21,1.59-0.37c0.85-0.15,0.39-0.35,0.62-0.97c0.23-0.62-0.12-1.13-0.27-1.74
		c-0.15-0.61,0.31-0.98,1.03-1.22c0.72-0.23,1.34-0.46,2.59-0.82c1.24-0.35,0.66-0.66,0.7-1.73c0.04-1.07,0.16-1.37,0.19-2.38
		c0.04-1.01,0.15-1.9,0.15-3.5s0.58-0.85,1.09-1.98c0.5-1.13-0.62-1.24-0.74-1.55c-0.12-0.31-1.2-2.17-1.86-3.05
		c-0.66-0.87-1.13-0.33-2.12-0.29c-0.99,0.04-1.38,0.23-2.15,0.29c-0.78,0.06-0.82-0.52-2.02-1.34c-1.2-0.82-2.29-0.27-2.91,0
		c-0.62,0.27-1.63,0.86-2.21,1.34c-0.58,0.48-1.67,0.88-1.94,1.42c-0.27,0.54-0.43,1.24-0.66,1.86c-0.23,0.62-0.78,0.43-1.34,0.7
		c-0.56,0.27-0.21,1.79-0.06,2.64c0.15,0.86-0.04,1.28-0.19,2.18c-0.15,0.89-0.12,1.47-0.47,2.87c-0.21,0.83-0.48,1.46-0.65,2.14
		c0.7,1.05,1.45,2.05,1.59,2.49c0.23,0.73,0,1.38,0.82,2.45c0.82,1.07,0.97,1.69,1.59,1.73c0.62,0.04,1.28,0.78,1.75,1.01
		c0.47,0.23,1.32,0.11,0.7,0.44c-0.62,0.33-1.67-0.09-1.05,0.45c0.62,0.54,0.82,0.51,1.24,0.51c0.43,0,0.7,0.31,1.36,0.54
		c0.56,0.2,0.4,0.14,0.95,0.05C45,50.62,45,50.39,45.57,50.26"/>
	<path class="st11" d="M44.17,28.94c0.66-0.5,2.76-1.51,3.46-0.93c0.7,0.58-0.51,0.89,1.09,1.24c1.59,0.35,2.14,0.12,2.76,0.47
		c0.62,0.35,1.07,0.78,1.14,1.16c0.06,0.39,1.15,0.23,0.76,1.36c-0.39,1.13-0.16,0.35-0.58,1.44c-0.43,1.09-0.13,1.44-0.18,2.37
		s0.18,2.3-0.71,2.76c-0.89,0.46-1.98,0.25-2.76,1.1c-0.78,0.84-1.44,1.65-2.14,1.73c-0.7,0.08-0.93,0.59-1.48-0.31
		c-0.54-0.89,0.31-1.1-1.36-1.42c-1.67-0.32-2.33-0.52-2.1-1.37c0.23-0.85-1.2,0.5-0.78-1.17c0.43-1.67,0.51-2.13,0.7-2.33
		c0.19-0.19,0.47-0.43-0.04-0.74c-0.5-0.31-0.93-0.43-1.24-1.86c-0.31-1.44,0-1.9,0.7-1.94c0.7-0.04,1.24,1.01,1.63,0.66
		c0.39-0.35,0-0.54,0.47-0.82c0.47-0.27,0.39-0.08,0.19-0.54c-0.19-0.47-0.39-0.35-0.16-0.66C43.78,28.83,44.17,28.94,44.17,28.94"
		/>
	<path class="st8" d="M75.95,86.46c-0.04,0.35-0.89,1.35,0.54,0.21c1.44-1.14,1.71-1.22,2.29-1.22c0.58,0,0.82,0.31,1.48-0.39
		c0.66-0.7,0.58-1.2,0.89-0.97c0.31,0.23,0.62-0.37,1.05-0.42c0.43-0.05,0.66,0.46,1.59-0.65c0.93-1.11,1.9-1.02,2.29-2.11
		c0.39-1.09,0.12-1.08,0.78-1.69c0.66-0.61,1.01-1.14,1.05-1.38c0.04-0.24,0.27-1.94,0.58-3.34c0.31-1.41,0.62-2.18,0.39-3.34
		c-0.23-1.17-0.66-2.57-0.89-3.53c-0.23-0.97,0.43-1.13-0.5-2.52c-0.93-1.4-0.82-1.67-1.63-2.74c-0.82-1.07-0.47-1.8-1.82-2.62
		c-1.36-0.82-1.48-0.54-2.49-1.16c-1.01-0.62-0.62-0.39-1.05-1.05c-0.43-0.66-0.82-1.2-1.44-1.24c-0.62-0.04-0.93-0.19-0.97,0.15
		c-0.04,0.35,0.35,0.62-0.47,0.54c-0.69-0.07-1.41-0.38-1.78-0.62c0.05,0.15,0.15,0.27,0.22,0.38c0.16,0.21,0.23,0.24,0.31,0.44
		c0.08,0.19,0.93,0.7,0.93,0.7c0.97,0.19,2.21,1.36,2.06,2.1c-0.15,0.74,0.04,0.54,0.35,1.36c0.31,0.82,0.97,0.97,0.27,1.47
		c-0.7,0.51-1.44,0.08-1.36,0.86c0.08,0.78,0.7,1.32,0.93,1.48l0.23,0.15c0,0,0.62-0.31,0.78,0.35c0.16,0.66,0.12,0.7-0.31,1.48
		c-0.43,0.78-0.15,1.32,0.12,1.9c0.27,0.58,0.89,1.29,0.86,2.14c-0.04,0.85,0.31,1.24-0.47,1.44c-0.78,0.19-1.51,0.23-1.47,0.66
		c0.04,0.43-0.16,0.63,0.38,0.47c0.54-0.16,1.13-0.11,1.4,0.78c0.27,0.89,1.18,2.37,0.2,2.29c-0.98-0.08-0.59-0.75-1.29-0.75
		c-0.7,0.01-0.74,0.83-1.24,1.08c-0.5,0.25-1.05-0.41-1.13,0.04c-0.08,0.45-0.58,1.14,0,1.66c0.58,0.53,0.27,0.73,1.2,0.82
		c0.93,0.1,0.89,0.42,0.97,0.96c0.08,0.54,0.78,0.81,0.89,1c0.12,0.19,0.89,0.48,0.15,0.86c-0.74,0.38-1.51,0.25-1.94,0.41
		c-0.43,0.17-0.27-0.22-0.58,0.67c-0.31,0.89-0.47,0.65-1.2,0.75c-0.74,0.1-0.62-0.4-1.13,0.18c-0.5,0.58,0.54,0.58,0.19,1.09
		c-0.35,0.5-0.87,0.32-1.01,0.66c-0.06,0.14-0.15,0.25-0.21,0.38C75.6,86.22,75.99,86.13,75.95,86.46"/>
	<path class="st9" d="M81.08,74.51c-0.27-0.89-0.85-0.94-1.4-0.78c-0.54,0.16-0.35-0.04-0.38-0.47c-0.04-0.43,0.7-0.46,1.47-0.66
		c0.78-0.19,0.43-0.58,0.47-1.44c0.04-0.85-0.58-1.55-0.85-2.14c-0.27-0.58-0.54-1.13-0.12-1.9c0.43-0.78,0.47-0.82,0.31-1.48
		c-0.15-0.66-0.78-0.35-0.78-0.35l-0.23-0.15c-0.23-0.16-0.85-0.7-0.93-1.48c-0.08-0.78,0.66-0.35,1.36-0.86
		c0.7-0.5,0.04-0.66-0.27-1.47c-0.31-0.82-0.5-0.62-0.35-1.36c0.16-0.74-1.09-1.9-2.06-2.1c0,0-0.85-0.5-0.93-0.7
		c-0.08-0.19-0.15-0.23-0.31-0.44c-0.08-0.1-0.17-0.22-0.23-0.38c-0.07-0.04-0.12-0.08-0.16-0.12c-0.27-0.23-0.62-0.71-1.28-0.47
		c-0.66,0.24-0.41,0.23-1.27,0c-0.86-0.23-0.75-0.5-1.29-0.27c-0.54,0.23-0.43,0.46-0.89,0.27c-0.47-0.19-0.43-0.45-0.66-0.36
		c-0.23,0.09-0.39,0.23-0.58,0.36c-0.19,0.12-1.36,0-1.36,0c-0.51,0.43-1.24,0.35-1.71,0.51c-0.47,0.15-0.74,0.89-0.93,1.13
		c-0.19,0.23-0.16,0.35-1.05,0.62c-0.89,0.27-1.55,0.31-1.86,0.89c-0.31,0.58-0.23,1.05-0.7,1.44c-0.47,0.39-1.79,1.47-2.17,2
		s-0.93,0.76-1.44,2.12c-0.5,1.36,0.16,1.94,0,2.21c-0.15,0.27,0,1.4-0.19,2.56c-0.19,1.16-0.62,1.98-0.82,2.37
		c-0.19,0.39-0.82,1.09-0.23,2.56c0.23,0.59,0.67,1.3,1.13,1.99c0.17-0.68,0.45-1.32,0.65-2.14c0.35-1.4,0.31-1.98,0.47-2.87
		c0.16-0.89,0.35-1.32,0.19-2.18c-0.16-0.85-0.51-2.37,0.06-2.64c0.56-0.27,1.11-0.08,1.34-0.7c0.23-0.62,0.39-1.32,0.66-1.86
		c0.27-0.54,1.36-0.94,1.94-1.42c0.58-0.48,1.59-1.07,2.21-1.34c0.62-0.27,1.71-0.82,2.91,0c1.2,0.82,1.24,1.39,2.02,1.34
		c0.78-0.06,1.16-0.24,2.15-0.29c0.99-0.04,1.46-0.59,2.12,0.29s1.75,2.74,1.86,3.05c0.12,0.31,1.24,0.43,0.74,1.55
		c-0.51,1.13-1.09,0.39-1.09,1.98c0,1.59-0.12,2.49-0.15,3.5c-0.04,1.01-0.15,1.31-0.19,2.38c-0.04,1.07,0.54,1.38-0.7,1.73
		c-1.24,0.35-1.87,0.59-2.58,0.82c-0.72,0.23-1.18,0.61-1.03,1.22c0.16,0.61,0.51,1.11,0.27,1.73c-0.23,0.62,0.23,0.82-0.62,0.97
		c-0.85,0.15-1.71-0.47-1.59,0.37c0.12,0.84,1.55,0.71,0.62,1.47c-0.93,0.76-1.13,1.21-1.75,1.16c-0.62-0.05-1.2,0.06-1.13,0.3
		c0.08,0.23,0.97,0.39,0.08,0.58c-0.57,0.12-0.57,0.36-0.53,0.67c0.1-0.02,0.22-0.03,0.37-0.05c1.01-0.12,1.9-0.7,2.21-0.08
		c0.31,0.62-0.43,1.15,0.19,1.29c0.62,0.14,0.7,0.03,1.36-0.17c0.66-0.19,1.17-0.47,1.83-0.18c0.66,0.3,0.89,0.44,1.59,0
		c0.03-0.02,0.06-0.04,0.1-0.06c0.07-0.13,0.16-0.24,0.21-0.38c0.13-0.33,0.66-0.15,1.01-0.66c0.35-0.51-0.7-0.51-0.19-1.09
		c0.5-0.58,0.39-0.08,1.13-0.18c0.74-0.1,0.89,0.14,1.2-0.75c0.31-0.89,0.16-0.51,0.58-0.67c0.43-0.16,1.2-0.03,1.94-0.41
		c0.74-0.38-0.04-0.67-0.15-0.86c-0.12-0.19-0.82-0.47-0.89-1c-0.08-0.54-0.04-0.86-0.97-0.96c-0.93-0.09-0.62-0.29-1.2-0.82
		c-0.58-0.53-0.08-1.22,0-1.66c0.08-0.45,0.62,0.21,1.13-0.04s0.54-1.07,1.24-1.08c0.7-0.01,0.31,0.67,1.29,0.75
		C82.26,76.88,81.35,75.4,81.08,74.51"/>
	<path class="st10" d="M67.83,85.18c0.89-0.19,0-0.35-0.08-0.58c-0.08-0.23,0.5-0.35,1.13-0.3c0.62,0.05,0.82-0.4,1.75-1.16
		c0.93-0.76-0.5-0.64-0.62-1.47c-0.12-0.84,0.74-0.21,1.59-0.37c0.85-0.15,0.39-0.35,0.62-0.97c0.23-0.62-0.12-1.13-0.27-1.74
		c-0.15-0.61,0.31-0.98,1.03-1.22c0.72-0.23,1.34-0.46,2.59-0.82c1.24-0.35,0.66-0.66,0.7-1.73c0.04-1.07,0.15-1.37,0.19-2.38
		c0.04-1.01,0.15-1.9,0.15-3.5c0-1.59,0.58-0.85,1.09-1.98c0.5-1.13-0.62-1.24-0.74-1.55c-0.12-0.31-1.2-2.17-1.86-3.05
		c-0.66-0.87-1.13-0.33-2.12-0.29s-1.37,0.23-2.15,0.29c-0.78,0.06-0.82-0.52-2.02-1.34c-1.2-0.82-2.29-0.27-2.91,0
		c-0.62,0.27-1.63,0.86-2.21,1.34c-0.58,0.48-1.67,0.88-1.94,1.42c-0.27,0.54-0.43,1.24-0.66,1.86c-0.23,0.62-0.78,0.43-1.34,0.7
		c-0.57,0.27-0.21,1.79-0.06,2.64c0.15,0.85-0.04,1.28-0.19,2.18c-0.16,0.89-0.12,1.47-0.47,2.87c-0.21,0.83-0.48,1.46-0.65,2.14
		c0.7,1.05,1.45,2.05,1.59,2.49c0.23,0.73,0,1.38,0.82,2.45c0.82,1.07,0.97,1.69,1.59,1.73c0.62,0.04,1.28,0.78,1.75,1.01
		c0.47,0.23,1.32,0.11,0.7,0.44c-0.62,0.33-1.67-0.09-1.05,0.45c0.62,0.54,0.82,0.5,1.24,0.5c0.43,0,0.7,0.31,1.36,0.54
		c0.56,0.2,0.4,0.14,0.95,0.05C67.26,85.54,67.27,85.3,67.83,85.18"/>
	<path class="st11" d="M66.44,63.86c0.66-0.51,2.76-1.52,3.46-0.93c0.7,0.58-0.51,0.89,1.09,1.24c1.59,0.35,2.14,0.12,2.76,0.47
		c0.62,0.35,1.07,0.78,1.14,1.16c0.07,0.39,1.15,0.23,0.76,1.36c-0.39,1.12-0.15,0.35-0.58,1.44c-0.43,1.09-0.13,1.44-0.18,2.37
		s0.18,2.3-0.71,2.76c-0.89,0.46-1.98,0.25-2.76,1.1c-0.78,0.84-1.44,1.65-2.14,1.73c-0.7,0.08-0.93,0.59-1.47-0.31
		c-0.55-0.89,0.31-1.1-1.36-1.42c-1.67-0.32-2.33-0.52-2.1-1.37c0.23-0.85-1.2,0.5-0.78-1.17c0.43-1.67,0.5-2.13,0.7-2.33
		c0.19-0.19,0.47-0.43-0.04-0.74c-0.51-0.31-0.93-0.43-1.24-1.86c-0.31-1.44,0-1.9,0.7-1.94c0.7-0.04,1.24,1.01,1.63,0.66
		c0.39-0.35,0-0.54,0.47-0.82c0.47-0.27,0.39-0.08,0.19-0.54c-0.19-0.47-0.39-0.35-0.15-0.66C66.05,63.74,66.44,63.86,66.44,63.86"
		/>
</g>
</svg>
