<svg xmlns="http://www.w3.org/2000/svg" version="1.1" xmlns:xlink="http://www.w3.org/1999/xlink" xmlns:svgjs="http://svgjs.dev/svgjs" viewBox="0 0 108 108" style="" x="0" y="0"><style type="text/css">
	.st0{fill:none;stroke:#708530;stroke-width:1.0633;stroke-miterlimit:10;}
	.st1{fill:#A6C339;}
	.st2{fill:#007131;}
	.st3{fill:#5E6530;}
	.st4{fill:#566B2A;}
	.st5{fill:#92B83E;}
	.st6{fill:#7C773E;}
	.st7{fill:#A5C939;}
	.st8{fill:#729026;}
	.st9{fill:#72AA3A;}
	.st10{fill:#6B8823;}
	.st11{fill:#7A9829;}
	.st12{fill:#506326;}
	.st13{fill:#A69838;}
	.st14{fill:#F0D72D;}
	.st15{fill:#FEDD00;}
	.st16{fill:#F1DC2C;}
	.st17{fill:#F8F510;}
	.st18{fill:#EFCE16;}
	.st19{fill:#EDC447;}
	.st20{fill:#D7AC40;}
	.st21{fill:#BB070B;}
</style><g><path class="st0" d="M70.9,72.2c-0.1-2.5-1.1-7.1-1.8-10.3"></path><path class="st0" d="M77.6,68.9c-3.4-1.3-7.7-4.4-9.8-7.7"></path><path class="st0" d="M78.7,62.3c-3.8,1.8-7,4-9.6,0.1"></path><path class="st0" d="M63.4,55c-4-3.1-7.9-7.3-9.4-10.9"></path><path class="st0" d="M55.1,58c0.5-5.3-1-13.3-1.2-15"></path><path class="st0" d="M62.3,48c-3.1,1-4.9,2.5-8-2.7"></path><path class="st1" d="M65.4,77.1c-0.3-2-1.4-2.4,2-6l3.4-3.6c0,0,0.7,0.8,1.5,1.7c0.8,0.9,4.1,3.8,2.6,7.3c-1.5,3.4-2.8,5.3-3.3,5.9
	c-0.5,0.5-1.8,2.7-2.2,3.2"></path><path class="st2" d="M89.2,78.2c-2.5-1-6,1.2-9-0.9c-3-2.1-4.7-7.3-5.4-8.8c-0.7-1.5-1.9-0.8,0.9-0.9c2.8-0.1,3-1,5.4-0.4
	c2.5,0.6,5.8,4.2,6.1,5.8C87.4,74.4,89.2,78.2,89.2,78.2"></path><path class="st3" d="M74.5,64.4c0.7,0,1.6,0.6,5.1,0.7c3.5,0.1,6.3-0.3,7-3c0.6-2.7-0.3-3.2,1.3-5l1.5-1.8c0,0-3.1-0.1-7.3,0
	c-4.3,0.1-6.2,4.4-6.8,6.2C74.7,63.3,74.5,64.4,74.5,64.4"></path><path class="st4" d="M72.5,64.4c0,0-1.6-1.8-5-1.8c-3.4,0-7-1.7-7-5.2c0-3.5-1.1-5.5-1.1-5.5s-0.1,0.5,2.8,0.3
	c2.9-0.2,7.1,1.8,8.2,4.7C71.6,59.7,72.5,64.4,72.5,64.4"></path><path class="st5" d="M52.4,68.9c0,0,4.3-4.3,5.6-7.3c1.3-2.9,1.7-4.7,0-6.8c-1.7-2.1-2.3-3.8-2.3-3.8s-2.4,3.6-4,4.5
	c-1.6,0.8-3.4,3.8-2.5,5.6C50,63,52.4,68.9,52.4,68.9"></path><path class="st6" d="M59.1,49c0,0.1,2.6,1.1,5.7,1.5c3.1,0.4,4.7,0.4,5.9-1.2c1.2-1.5,2-3.1,2.9-4.9c0.9-1.8,1-2.5,1.7-2.7
	c0.7-0.2-0.9,0.6-4.3-0.2c-3.4-0.8-5-1.8-6.4-0.7c-1.4,1.1-1.4,3.2-2.5,4.8C60.9,47.2,59.1,49,59.1,49"></path><path class="st0" d="M26.6,70.4c2.5-0.7,6.6-2.8,9.6-4.2"></path><path class="st0" d="M31.4,76.1c0.5-3.6,2.4-8.5,5-11.4"></path><path class="st0" d="M38.1,75.6c-2.7-3.2-5.6-5.8-2.5-9.3"></path><path class="st0" d="M41.4,59c2-4.7,5.1-9.4,8.3-11.8"></path><path class="st0" d="M36.5,51.7c5.2-0.8,12.7-4.2,14.3-4.8"></path><path class="st0" d="M47.9,56.2c-1.7-2.8-3.6-4.1,0.7-8.4"></path><path class="st2" d="M20.4,66.3c1.9-0.8,2-1.9,6.3,0.5l4.3,2.4c0,0-0.6,0.8-1.3,1.8c-0.7,1-2.7,4.9-6.4,4.3
	c-3.7-0.6-5.8-1.4-6.5-1.8c-0.6-0.4-3.1-1.1-3.7-1.4"></path><path class="st7" d="M25.3,89.6c0.4-2.6-2.6-5.5-1.3-8.9c1.3-3.4,5.9-6.3,7.2-7.4c1.3-1.1,0.3-2.1,1.1,0.6c0.7,2.7,1.7,2.6,1.7,5.2
	c0,2.5-2.7,6.7-4.1,7.3C28.5,87,25.3,89.6,25.3,89.6"></path><path class="st3" d="M35,72c0.2,0.7-0.2,1.7,0.6,5.1s1.9,6.1,4.7,6c2.8-0.1,3.1-1,5.2,0l2.1,1c0,0-0.7-3-1.8-7.1
	c-1.2-4.1-5.8-5-7.7-5C36.2,72,35,72,35,72"></path><path class="st4" d="M34.5,70.1c0,0,1.4-2,0.5-5.3c-0.8-3.3-0.1-7.2,3.3-8.1c3.4-0.9,5.1-2.5,5.1-2.5s-0.5,0.1,0.4,2.8
	c0.9,2.8,0,7.3-2.5,9.1C38.8,68.1,34.5,70.1,34.5,70.1"></path><path class="st5" d="M25.2,51.7c0,0,5.3,3.1,8.4,3.7c3.2,0.6,4.9,0.5,6.5-1.7c1.6-2.2,3.1-3.2,3.1-3.2s-4.1-1.5-5.3-2.8
	c-1.2-1.3-4.5-2.3-6-1.1C30.4,47.9,25.2,51.7,25.2,51.7"></path><path class="st6" d="M46.2,53.4c-0.1,0,0.8,10.5,2.5,11.3c1.8,0.8,3.5,1.2,5.5,1.6c1.9,0.4,2.7,0.3,3,1c0.3,0.6-0.8-0.7-0.8-4.2
	s0.5-5.3-0.9-6.4c-1.4-1.1-3.4-0.5-5.3-1.3C48.3,54.7,46.2,53.4,46.2,53.4"></path><path class="st0" d="M33.9,27c0.8,2.4,3.1,6.5,4.7,9.4"></path><path class="st0" d="M28.5,32.1c3.6,0.3,8.6,1.9,11.6,4.5"></path><path class="st0" d="M29.3,38.8c3.1-2.9,5.5-5.8,9.1-3"></path><path class="st0" d="M46.1,41.2c4.8,1.8,9.7,4.6,12.2,7.7"></path><path class="st0" d="M53.1,35.9c1.1,5.2,4.8,12.5,5.5,14"></path><path class="st0" d="M49.2,47.6c2.7-1.9,3.9-3.8,8.4,0.2"></path><path class="st1" d="M37.7,20.7c0.9,1.8,2,1.9-0.2,6.4l-2.2,4.4c0,0-0.9-0.5-1.9-1.2c-1-0.6-5.1-2.5-4.6-6.2
	c0.4-3.7,1.1-5.9,1.4-6.6c0.3-0.7,1-3.1,1.2-3.7"></path><path class="st2" d="M14.7,26.7c2.7,0.3,5.4-2.9,8.9-1.8c3.5,1.1,6.6,5.6,7.7,6.8c1.1,1.2,2.1,0.2-0.6,1.1c-2.7,0.9-2.6,1.8-5.1,2
	c-2.5,0.2-6.8-2.3-7.5-3.7C17.5,29.7,14.7,26.7,14.7,26.7"></path><path class="st3" d="M32.8,35.5c-0.7,0.2-1.7-0.1-5.1,0.9c-3.4,1-6,2.2-5.8,4.9c0.2,2.8,1.2,3,0.3,5.2l-0.9,2.1c0,0,2.9-0.8,7-2.2
	c4-1.4,4.7-6.1,4.6-7.9C32.9,36.7,32.8,35.5,32.8,35.5"></path><path class="st4" d="M34.6,34.9c0,0,2.1,1.3,5.3,0.3c3.2-1,7.2-0.5,8.2,2.9c1,3.4,2.7,4.9,2.7,4.9s-0.1-0.5-2.8,0.6
	c-2.7,1.1-7.3,0.4-9.2-2.1C36.9,39.1,34.6,34.9,34.6,34.9"></path><path class="st5" d="M52.5,24.7c0,0-2.9,5.4-3.3,8.6c-0.4,3.2-0.2,5,2,6.5c2.2,1.5,3.3,2.9,3.3,2.9s1.3-4.2,2.5-5.5
	c1.3-1.3,2.1-4.6,0.8-6.1C56.6,29.7,52.5,24.7,52.5,24.7"></path><path class="st6" d="M51.9,45.8c0-0.1-2.8-0.3-5.8,0.2c-3,0.5-4.6,1.1-5.3,2.9c-0.7,1.8-1,3.6-1.3,5.6c-0.3,2-0.2,2.7-0.8,3.1
	c-0.6,0.4,0.7-0.9,4.2-1c3.5-0.2,5.3,0.2,6.3-1.3c1-1.5,0.4-3.4,1-5.3C50.7,48,51.9,45.8,51.9,45.8"></path><path class="st0" d="M78.9,32.9c-2.5,0.4-6.9,2.1-10,3.2"></path><path class="st0" d="M74.7,26.7c-0.9,3.5-3.3,8.2-6.2,10.8"></path><path class="st0" d="M68,26.5c2.4,3.5,4.9,6.3,1.5,9.5"></path><path class="st0" d="M63,42.7c-2.5,4.4-6.1,8.8-9.5,10.8"></path><path class="st0" d="M67.1,50.5c-5.3,0.3-13.1,2.8-14.7,3.3"></path><path class="st0" d="M56.2,44.8c1.4,3,3.2,4.5-1.5,8.3"></path><path class="st1" d="M84.6,37.6c-2,0.6-2.2,1.7-6.3-1.2l-4-2.8c0,0,0.7-0.8,1.4-1.7c0.8-0.9,3.2-4.6,6.8-3.6c3.6,1,5.7,2,6.3,2.4
	c0.6,0.4,2.9,1.4,3.5,1.7"></path><path class="st8" d="M82.2,13.9c-0.7,2.6,2,5.8,0.4,9c-1.7,3.3-6.5,5.7-7.9,6.6c-1.4,0.9-0.6,2-1-0.8c-0.5-2.8-1.4-2.8-1.2-5.3
	c0.2-2.5,3.4-6.4,4.8-6.8C78.8,16.2,82.2,13.9,82.2,13.9"></path><path class="st2" d="M70.7,30.4c-0.1-0.7,0.4-1.6-0.1-5.1c-0.4-3.5-1.2-6.2-4-6.5c-2.8-0.2-3.2,0.7-5.2-0.5l-2-1.3c0,0,0.3,3,1,7.2
	c0.7,4.2,5.3,5.6,7.1,5.8C69.5,30.4,70.7,30.4,70.7,30.4"></path><path class="st4" d="M71,32.3c0,0-1.6,1.9-1.1,5.2c0.5,3.3-0.7,7.2-4.2,7.7c-3.5,0.5-5.3,1.9-5.3,1.9s0.5,0-0.1-2.9
	c-0.6-2.9,0.8-7.2,3.5-8.8C66.5,33.9,71,32.3,71,32.3"></path><path class="st5" d="M78.3,51.6c0,0-4.9-3.7-8-4.6c-3.1-0.9-4.9-1-6.7,1c-1.8,2-3.4,2.8-3.4,2.8s3.9,1.9,5,3.4
	c1.1,1.5,4.2,2.8,5.9,1.7C72.7,54.9,78.3,51.6,78.3,51.6"></path><path class="st6" d="M57.6,47.8c0.1,0,0.8-2.7,0.7-5.8c-0.1-3.1-0.3-4.7-2-5.7c-1.7-1-3.4-1.6-5.3-2.2c-1.9-0.6-2.6-0.6-2.9-1.3
	c-0.3-0.7,0.7,0.8,0.4,4.3c-0.4,3.5-1,5.2,0.3,6.5c1.3,1.2,3.3,0.9,5.1,1.8C55.6,46.2,57.6,47.8,57.6,47.8"></path><path class="st9" d="M54,60.9c-0.1-2.5-1.1-7.1-1.8-10.3"></path><path class="st9" d="M60.8,57.7c-3.4-1.3-7.7-4.4-9.8-7.7"></path><path class="st9" d="M61.9,51.1c-3.8,1.8-7,4-9.6,0.1"></path><path class="st9" d="M46.6,43.8c-4-3.1-7.9-7.3-9.4-10.9"></path><path class="st9" d="M38.3,46.8c0.5-5.3-1-13.3-1.2-15"></path><path class="st9" d="M45.4,36.8c-3.1,1-4.9,2.5-8-2.7"></path><path class="st9" d="M48.5,65.9c-0.3-2-1.4-2.4,2-6l3.4-3.6c0,0,0.7,0.8,1.5,1.7c0.8,0.9,4.1,3.8,2.6,7.3c-1.5,3.4-2.8,5.3-3.3,5.9
	c-0.5,0.5-1.8,2.7-2.2,3.2"></path><path class="st9" d="M72.3,66.9c-2.5-1-6,1.2-9-0.9c-3-2.1-4.7-7.3-5.4-8.8c-0.7-1.5-1.9-0.8,0.9-0.9c2.8-0.1,3-1,5.4-0.4
	c2.5,0.6,5.8,4.2,6.1,5.8C70.5,63.2,72.3,66.9,72.3,66.9"></path><path class="st9" d="M57.6,53.2c0.7,0,1.6,0.6,5.1,0.7c3.6,0.1,6.3-0.3,7-3c0.6-2.7-0.3-3.2,1.3-5l1.5-1.8c0,0-3.1-0.1-7.3,0
	c-4.3,0.1-6.2,4.4-6.8,6.2C57.9,52.1,57.6,53.2,57.6,53.2"></path><path class="st9" d="M55.7,53.2c0,0-1.6-1.8-5-1.8c-3.4,0-7-1.7-7-5.2c0-3.5-1.1-5.5-1.1-5.5s-0.1,0.5,2.8,0.3
	c2.9-0.2,7.1,1.8,8.2,4.7C54.8,48.5,55.7,53.2,55.7,53.2"></path><path class="st9" d="M35.6,57.7c0,0,4.3-4.3,5.6-7.3c1.3-2.9,1.7-4.7,0-6.8c-1.7-2.1-2.3-3.8-2.3-3.8s-2.4,3.6-4,4.5
	c-1.6,0.8-3.4,3.8-2.5,5.6C33.2,51.8,35.6,57.7,35.6,57.7"></path><path class="st9" d="M42.3,37.8c0,0.1,2.6,1.1,5.7,1.5c3.1,0.4,4.7,0.4,5.9-1.2c1.2-1.5,2-3.1,2.9-4.9c0.9-1.8,1-2.5,1.7-2.7
	c0.7-0.2-0.9,0.6-4.3-0.2c-3.4-0.8-5-1.8-6.4-0.7c-1.4,1.1-1.4,3.2-2.5,4.8C44.1,36,42.3,37.8,42.3,37.8"></path><path class="st0" d="M83.4,53.3c-2-1.6-6.2-3.7-9.1-5.2"></path><path class="st0" d="M85.2,46c-3.2,1.7-8.3,3.1-12.1,2.7"></path><path class="st0" d="M80.8,40.9c-1,4.1-1.4,7.9-6,7.5"></path><path class="st0" d="M65.5,48.1c-5,1.1-10.6,1.5-14.4,0.3"></path><path class="st0" d="M62.5,56.4c-3.8-3.7-10.9-7.7-12.3-8.6"></path><path class="st0" d="M59.3,44.5c-1.2,3-1.2,5.4-7.1,4.4"></path><path class="st1" d="M83.8,60.6c-1.8-1-2.7-0.5-3.4-5.4l-0.6-4.9c0,0,1,0,2.2-0.1c1.2,0,5.6-0.7,7.3,2.6c1.7,3.3,2.3,5.5,2.4,6.3
	c0.1,0.7,0.9,3.1,1.1,3.8"></path><path class="st2" d="M99.7,42.9c-2.4,1.2-2.9,5.4-6.4,6.4c-3.5,1-8.6-1-10.2-1.4c-1.6-0.4-1.9,1-0.1-1.3c1.8-2.2,1.1-2.9,3.1-4.5
	c2-1.5,7-1.8,8.3-1C95.7,41.9,99.7,42.9,99.7,42.9"></path><path class="st3" d="M79.7,45.6c0.5-0.6,1.5-0.8,3.7-3.5c2.3-2.7,3.8-5.1,2.1-7.3c-1.7-2.2-2.7-1.9-3.1-4.2l-0.4-2.3
	c0,0-2,2.3-4.6,5.7c-2.6,3.4-0.6,7.6,0.5,9.2C79,44.6,79.7,45.6,79.7,45.6"></path><path class="st4" d="M78.5,47.1c0,0-2.4,0.1-4.6,2.7c-2.1,2.6-5.8,4.4-8.5,2.1c-2.7-2.3-5-2.6-5-2.6s0.3,0.4,2-2
	c1.7-2.4,5.9-4.3,8.8-3.4C74.3,44.8,78.5,47.1,78.5,47.1"></path><path class="st5" d="M69.2,65.5c0,0-0.6-6.1-2-9c-1.4-2.9-2.5-4.3-5.2-4.3c-2.7,0-4.4-0.6-4.4-0.6s1.3,4.2,0.9,5.9
	c-0.4,1.8,0.8,5,2.7,5.5C63.1,63.5,69.2,65.5,69.2,65.5"></path><path class="st6" d="M58.1,47.6c0,0,2.5-1.3,4.8-3.4c2.2-2.1,3.3-3.4,2.9-5.3c-0.4-1.9-1.1-3.6-2-5.4c-0.8-1.8-1.3-2.3-1-3
	c0.3-0.7-0.1,1.1-2.9,3.2c-2.8,2.1-4.6,2.7-4.6,4.5c0,1.8,1.6,3.1,2.1,5C57.9,45.1,58.1,47.6,58.1,47.6"></path><path class="st0" d="M54,86.3c1-2.3,2.1-6.9,2.8-10.1"></path><path class="st0" d="M61.4,86.2c-2.5-2.7-5.1-7.2-5.6-11.1"></path><path class="st0" d="M65.3,80.7c-4.2,0-8,0.6-8.7-4"></path><path class="st0" d="M54.5,67.6c-2.3-4.5-4-9.9-3.8-13.9"></path><path class="st0" d="M45.8,66.8c2.7-4.6,4.8-12.5,5.3-14.1"></path><path class="st0" d="M56.5,60.8C53.3,60.4,51,61,50.4,55"></path><path class="st2" d="M46.9,88.5c0.6-2-0.2-2.8,4.4-4.6l4.6-1.8c0,0,0.3,1,0.6,2.1c0.3,1.1,2.1,5.2-0.7,7.7c-2.8,2.5-4.8,3.6-5.5,3.9
	c-0.7,0.3-2.8,1.7-3.4,2"></path><path class="st7" d="M68,99.6c-1.8-2-5.9-1.5-7.7-4.7c-1.8-3.2-1.1-8.6-1.1-10.2c0-1.7-1.4-1.6,1.2-0.4c2.6,1.2,3.1,0.4,5.1,1.9
	c2,1.6,3.5,6.3,3,7.8C67.9,95.4,68,99.6,68,99.6"></path><path class="st3" d="M60.5,80.8c0.7,0.3,1.2,1.2,4.3,2.8c3.2,1.6,5.9,2.4,7.6,0.2c1.7-2.2,1.2-3,3.3-4l2.1-1c0,0-2.7-1.4-6.6-3.1
	c-3.9-1.7-7.5,1.3-8.8,2.7C61.2,79.9,60.5,80.8,60.5,80.8"></path><path class="st4" d="M58.8,80.1c0,0-0.7-2.3-3.7-3.8c-3-1.4-5.6-4.5-4.1-7.7c1.5-3.2,1.3-5.5,1.3-5.5s-0.3,0.4,2.5,1.5
	c2.7,1,5.6,4.6,5.4,7.7C59.9,75.4,58.8,80.1,58.8,80.1"></path><path class="st5" d="M38.6,75.5c0,0,5.7-2.1,8.2-4.2c2.4-2.1,3.5-3.5,2.9-6.1c-0.7-2.6-0.5-4.4-0.5-4.4s-3.7,2.2-5.5,2.3
	c-1.8,0.1-4.7,2-4.6,4S38.6,75.5,38.6,75.5"></path><path class="st6" d="M53.3,60.4c0,0.1,1.9,2.1,4.5,3.8c2.6,1.6,4.1,2.3,5.9,1.5c1.7-0.9,3.2-2,4.7-3.2c1.5-1.2,1.9-1.9,2.7-1.7
	c0.7,0.2-1.1,0.2-3.8-2c-2.7-2.2-3.8-3.7-5.5-3.3c-1.7,0.4-2.6,2.3-4.3,3.3C55.6,59.5,53.3,60.4,53.3,60.4"></path><path class="st0" d="M25.1,53.1c2.4,0.9,7,1.7,10.2,2.3"></path><path class="st0" d="M25.6,60.6c2.5-2.6,7-5.4,10.8-6.1"></path><path class="st0" d="M31.3,64.1c-0.2-4.2-1-8,3.5-8.9"></path><path class="st0" d="M43.8,52.7c4.4-2.5,9.7-4.5,13.7-4.5"></path><path class="st0" d="M44.2,43.9c4.7,2.4,12.7,4.2,14.3,4.6"></path><path class="st0" d="M50.7,54.3c0.3-3.3-0.4-5.5,5.5-6.4"></path><path class="st1" d="M22.6,46.1c2,0.5,2.8-0.3,4.8,4.2l2,4.5c0,0-1,0.3-2.1,0.7c-1.1,0.4-5.1,2.4-7.7-0.4c-2.6-2.7-3.8-4.6-4.2-5.3
	c-0.3-0.7-1.8-2.7-2.1-3.3"></path><path class="st2" d="M12.6,67.7c1.9-1.9,1.2-6,4.3-8c3.1-2,8.5-1.6,10.2-1.7c1.7-0.1,1.5-1.5,0.5,1.2c-1,2.6-0.2,3.1-1.7,5.2
	c-1.5,2-6.1,3.8-7.6,3.4C16.8,67.5,12.6,67.7,12.6,67.7"></path><path class="st3" d="M30.9,59.4c-0.3,0.7-1.1,1.2-2.6,4.5c-1.4,3.3-2.1,6,0.2,7.6c2.3,1.6,3.1,1,4.2,3.1l1.1,2.1
	c0,0,1.3-2.8,2.8-6.8c1.5-4-1.7-7.5-3.2-8.6C31.9,60,30.9,59.4,30.9,59.4"></path><path class="st4" d="M31.6,57.6c0,0,2.3-0.8,3.6-3.9c1.3-3.1,4.2-5.9,7.5-4.5c3.3,1.4,5.5,1,5.5,1s-0.4-0.3-1.3,2.5
	c-0.9,2.8-4.3,5.9-7.5,5.8C36.3,58.5,31.6,57.6,31.6,57.6"></path><path class="st5" d="M35.1,37.2c0,0,2.4,5.6,4.6,8c2.2,2.3,3.7,3.3,6.3,2.5c2.6-0.8,4.4-0.7,4.4-0.7s-2.4-3.6-2.6-5.4
	c-0.2-1.8-2.2-4.6-4.2-4.4C41.6,37.3,35.1,37.2,35.1,37.2"></path><path class="st6" d="M51,51.1c-0.1,0-2,2-3.5,4.7c-1.5,2.7-2.1,4.2-1.2,5.9c1,1.7,2.1,3.1,3.5,4.5c1.3,1.5,2,1.9,1.8,2.6
	c-0.1,0.7-0.2-1.1,1.8-3.9c2.1-2.8,3.5-4,3.1-5.7c-0.5-1.7-2.4-2.5-3.5-4.1C52,53.4,51,51.1,51,51.1"></path><path class="st0" d="M58.2,22.1c-1.3,2.2-2.8,6.6-3.9,9.7"></path><path class="st0" d="M50.8,21.4c2.2,2.9,4.3,7.7,4.4,11.6"></path><path class="st0" d="M46.4,26.5c4.2,0.4,8,0.2,8.3,4.9"></path><path class="st0" d="M55.7,40.6c1.8,4.8,2.9,10.3,2.3,14.2"></path><path class="st0" d="M64.3,42.4c-3.1,4.3-6.1,11.9-6.8,13.4"></path><path class="st0" d="M53,47.2c3.2,0.8,5.5,0.4,5.4,6.4"></path><path class="st1" d="M65.5,20.7c-0.8,1.9-0.1,2.8-4.9,4.1l-4.7,1.3c0,0-0.2-1-0.4-2.2c-0.2-1.2-1.5-5.4,1.5-7.6
	c3.1-2.2,5.2-3.1,5.9-3.3c0.7-0.2,3-1.4,3.6-1.6"></path><path class="st7" d="M45.7,7.5c1.6,2.2,5.7,2.1,7.2,5.4c1.5,3.3,0.2,8.7,0.1,10.3c-0.2,1.6,1.2,1.7-1.2,0.3
	c-2.4-1.4-3.1-0.7-4.9-2.5c-1.8-1.8-2.8-6.7-2.2-8.1C45.3,11.6,45.7,7.5,45.7,7.5"></path><path class="st2" d="M51.1,26.9c-0.6-0.4-1-1.3-4-3.2c-3-1.9-5.6-3-7.5-1c-1.9,2-1.5,2.9-3.7,3.6L33.6,27c0,0,2.6,1.7,6.3,3.8
	c3.7,2.1,7.6-0.5,9-1.8C50.3,27.7,51.1,26.9,51.1,26.9"></path><path class="st4" d="M52.8,27.8c0,0,0.5,2.4,3.3,4.2c2.9,1.8,5.1,5.1,3.3,8.1c-1.8,3-1.9,5.3-1.9,5.3s0.3-0.4-2.3-1.7
	c-2.6-1.3-5.1-5.2-4.6-8.3C51.1,32.3,52.8,27.8,52.8,27.8"></path><path class="st5" d="M72.3,34.5c0,0-5.9,1.4-8.6,3.3c-2.7,1.8-3.9,3.1-3.5,5.8c0.4,2.7,0.1,4.4,0.1,4.4s4-1.8,5.8-1.7
	c1.8,0.1,4.8-1.5,5-3.5C71.3,40.8,72.3,34.5,72.3,34.5"></path><path class="st6" d="M56.2,48c0-0.1-1.6-2.3-4.1-4.2c-2.4-1.9-3.9-2.8-5.7-2.1c-1.8,0.7-3.4,1.6-5,2.7c-1.7,1.1-2.1,1.6-2.8,1.4
	c-0.7-0.2,1.1-0.1,3.5,2.4c2.5,2.5,3.4,4.1,5.1,3.9c1.8-0.2,2.8-2,4.6-2.8C53.7,48.6,56.2,48,56.2,48"></path><path class="st9" d="M64.1,59.1c-2-1.6-6.2-3.7-9.1-5.2"></path><path class="st9" d="M65.8,51.8c-3.2,1.7-8.3,3.1-12.1,2.7"></path><path class="st9" d="M61.5,46.8c-1,4.1-1.4,7.9-6,7.5"></path><path class="st9" d="M46.1,54c-5,1.1-10.6,1.5-14.4,0.3"></path><path class="st9" d="M43.2,62.3c-3.8-3.7-10.9-7.7-12.3-8.6"></path><path class="st9" d="M40,50.4c-1.2,3-1.2,5.4-7.1,4.4"></path><path class="st9" d="M64.4,66.5c-1.8-1-2.7-0.5-3.4-5.4l-0.6-4.9c0,0,1,0,2.2-0.1c1.2,0,5.6-0.7,7.3,2.6c1.7,3.3,2.3,5.5,2.4,6.3
	c0.1,0.7,0.9,3.1,1.1,3.8"></path><path class="st9" d="M80.3,48.8c-2.4,1.2-2.9,5.4-6.4,6.4c-3.5,1-8.6-1-10.2-1.4c-1.6-0.4-1.9,1-0.1-1.3c1.8-2.2,1.1-2.9,3.1-4.5
	c2-1.5,7-1.8,8.3-1C76.3,47.8,80.3,48.8,80.3,48.8"></path><path class="st9" d="M60.4,51.4c0.5-0.6,1.5-0.8,3.7-3.5c2.3-2.7,3.8-5.1,2.1-7.3c-1.7-2.2-2.7-1.9-3.1-4.2l-0.4-2.3
	c0,0-2,2.3-4.6,5.7c-2.6,3.4-0.6,7.6,0.5,9.2C59.7,50.5,60.4,51.4,60.4,51.4"></path><path class="st9" d="M59.2,52.9c0,0-2.4,0.1-4.6,2.7c-2.1,2.6-5.8,4.4-8.5,2.1c-2.7-2.3-5-2.6-5-2.6s0.3,0.4,2-2
	c1.7-2.4,5.9-4.3,8.8-3.4C55,50.7,59.2,52.9,59.2,52.9"></path><path class="st9" d="M49.9,71.3c0,0-0.6-6.1-2-9c-1.4-2.9-2.5-4.3-5.2-4.3c-2.7,0-4.4-0.6-4.4-0.6s1.3,4.2,0.9,5.9
	c-0.4,1.8,0.8,5,2.7,5.5C43.7,69.4,49.9,71.3,49.9,71.3"></path><path class="st9" d="M38.7,53.4c0,0,2.5-1.3,4.8-3.4c2.2-2.1,3.3-3.4,2.9-5.3c-0.4-1.9-1.1-3.6-2-5.4c-0.8-1.8-1.3-2.3-1-3
	c0.3-0.7-0.1,1.1-2.9,3.2c-2.8,2.1-4.6,2.7-4.6,4.5c0,1.8,1.6,3.1,2.1,5C38.5,50.9,38.7,53.4,38.7,53.4"></path><path class="st0" d="M77.1,64.8c-1.1-2.3-3.8-6.1-5.7-8.8"></path><path class="st0" d="M81.9,59.1c-3.6,0.1-8.8-1-12-3.1"></path><path class="st0" d="M80.4,52.6c-2.8,3.2-4.8,6.4-8.8,4"></path><path class="st0" d="M63.4,52c-4.9-1.3-10.1-3.5-12.9-6.3"></path><path class="st0" d="M57,58.1c-1.7-5-6.2-11.9-7-13.3"></path><path class="st0" d="M59.6,46c-2.5,2.1-3.5,4.2-8.4,0.7"></path><path class="st1" d="M74,71.5c-1.1-1.7-2.2-1.7-0.5-6.3l1.7-4.6c0,0,0.9,0.4,2,0.9c1.1,0.5,5.3,1.9,5.3,5.6c0,3.8-0.5,6-0.7,6.7
	c-0.3,0.7-0.6,3.2-0.7,3.8"></path><path class="st2" d="M96.2,63c-2.7,0-5,3.5-8.6,2.7c-3.6-0.7-7.2-4.8-8.4-5.9c-1.2-1.1-2.1,0,0.5-1.2c2.6-1.2,2.3-2.1,4.8-2.5
	c2.5-0.4,7,1.6,7.9,2.9C93.1,60.3,96.2,63,96.2,63"></path><path class="st3" d="M77.3,56.2c0.7-0.3,1.7-0.1,4.9-1.4c3.3-1.4,5.7-2.8,5.2-5.6c-0.5-2.7-1.5-2.9-0.8-5.1l0.7-2.2
	c0,0-2.8,1.1-6.7,2.9c-3.9,1.8-4,6.5-3.7,8.4C77.1,55.1,77.3,56.2,77.3,56.2"></path><path class="st4" d="M75.5,57c0,0-2.2-1-5.3,0.3c-3.1,1.3-7.1,1.3-8.5-2c-1.4-3.3-3.2-4.6-3.2-4.6s0.1,0.5,2.7-0.9
	c2.6-1.4,7.2-1.2,9.4,1C72.8,53.1,75.5,57,75.5,57"></path><path class="st5" d="M58.8,69.2c0,0,2.2-5.7,2.3-8.9c0-3.2-0.3-5-2.7-6.2c-2.4-1.2-3.6-2.5-3.6-2.5s-0.8,4.3-1.9,5.7
	c-1.1,1.4-1.6,4.8-0.1,6.1C54.3,64.7,58.8,69.2,58.8,69.2"></path><path class="st6" d="M57.1,48.2c0,0,2.8,0,5.8-0.9c3-0.9,4.5-1.6,5-3.4c0.5-1.9,0.6-3.7,0.7-5.7c0.1-2-0.1-2.7,0.5-3.1
	c0.6-0.4-0.6,0.9-4,1.5c-3.4,0.6-5.3,0.4-6.2,1.9c-0.9,1.6,0,3.4-0.4,5.4C58,45.8,57.1,48.2,57.1,48.2"></path><path class="st0" d="M35.8,80.8c2-1.6,5-5.2,7.1-7.7"></path><path class="st0" d="M42.5,84.1c-1-3.5-1.2-8.7,0.1-12.4"></path><path class="st0" d="M48.4,81c-3.8-1.9-7.4-3.1-6-7.5"></path><path class="st0" d="M44.8,64.4c0-5.1,1-10.7,2.9-14.1"></path><path class="st0" d="M37.3,59.7c4.5-2.9,10-8.9,11.2-10.1"></path><path class="st0" d="M49.6,59.2c-2.7-1.9-5-2.4-2.7-8"></path><path class="st2" d="M28.5,79.5c1.4-1.5,1.1-2.6,6-2.1l4.9,0.5c0,0-0.2,1-0.4,2.2c-0.2,1.2-0.5,5.6-4.2,6.5c-3.6,0.9-5.9,1-6.7,0.9
	c-0.7-0.1-3.3,0.2-3.9,0.2"></path><path class="st10" d="M42.2,98.9c-0.7-2.6-4.6-4-4.8-7.7c-0.2-3.6,2.9-8.2,3.7-9.6c0.7-1.5-0.5-2,1.3,0.2c1.8,2.2,2.6,1.7,3.6,4
	c1,2.3,0.2,7.2-0.9,8.3C44,95.2,42.2,98.9,42.2,98.9"></path><path class="st3" d="M44.1,78.9c0.5,0.6,0.5,1.6,2.6,4.4s4.1,4.8,6.7,3.7c2.5-1.2,2.4-2.2,4.8-2.1l2.3,0.1c0,0-1.8-2.5-4.5-5.8
	c-2.7-3.3-7.3-2.3-9.1-1.6C45.1,78.4,44.1,78.9,44.1,78.9"></path><path class="st4" d="M42.9,77.4c0,0,0.4-2.4-1.6-5.1c-2-2.7-3-6.6-0.2-8.7c2.8-2.2,3.7-4.3,3.7-4.3s-0.4,0.3,1.5,2.4
	c2,2.2,2.9,6.7,1.3,9.4C46,73.8,42.9,77.4,42.9,77.4"></path><path class="st5" d="M27,64.2c0,0,6.1,0.8,9.2,0c3.1-0.7,4.7-1.5,5.3-4.1c0.6-2.6,1.5-4.1,1.5-4.1s-4.4,0.3-6-0.5
	c-1.6-0.7-5.1-0.3-5.9,1.4C30.3,58.6,27,64.2,27,64.2"></path><path class="st6" d="M47,57.3c0,0,0.7,2.7,2.3,5.4c1.6,2.7,2.6,4,4.6,4c2,0,3.7-0.3,5.7-0.7c1.9-0.4,2.6-0.8,3.1-0.3
	c0.6,0.5-1-0.3-2.4-3.5c-1.4-3.2-1.7-5.1-3.4-5.5c-1.7-0.4-3.3,0.8-5.3,0.9C49.4,57.7,47,57.3,47,57.3"></path><path class="st0" d="M25.2,38.1c1.7,1.9,5.4,4.7,8,6.7"></path><path class="st0" d="M22.3,44.9c3.4-1.2,8.7-1.6,12.4-0.5"></path><path class="st0" d="M25.7,50.7c1.7-3.9,2.7-7.5,7.2-6.3"></path><path class="st0" d="M42,46.2c5.1-0.2,10.7,0.4,14.2,2.2"></path><path class="st0" d="M46.4,38.6c3.1,4.3,9.4,9.5,10.6,10.7"></path><path class="st0" d="M47.5,50.9c1.7-2.8,2.1-5.1,7.8-3.1"></path><path class="st1" d="M26.2,30.7c1.6,1.3,2.6,1,2.4,5.9l-0.2,4.9c0,0-1-0.2-2.2-0.3c-1.2-0.2-5.6-0.2-6.7-3.8
	c-1.1-3.6-1.3-5.9-1.3-6.6c0-0.7-0.4-3.2-0.4-3.9"></path><path class="st2" d="M7.4,45.4c2.5-0.8,3.8-4.8,7.4-5.1c3.6-0.3,8.3,2.5,9.8,3.2c1.5,0.7,2-0.6-0.1,1.3c-2.1,1.9-1.6,2.7-3.9,3.8
	c-2.2,1.1-7.2,0.6-8.3-0.4C11.2,47.1,7.4,45.4,7.4,45.4"></path><path class="st3" d="M27.5,46.3c-0.6,0.5-1.6,0.6-4.3,2.8c-2.7,2.3-4.6,4.4-3.3,6.8c1.3,2.5,2.3,2.3,2.3,4.6l0,2.3
	c0,0,2.4-1.9,5.5-4.8c3.2-2.8,1.9-7.4,1.1-9.1C28.1,47.3,27.5,46.3,27.5,46.3"></path><path class="st4" d="M29,45c0,0,2.4,0.3,5-1.8c2.6-2.2,6.4-3.3,8.7-0.6c2.3,2.7,4.4,3.4,4.4,3.4s-0.3-0.4-2.3,1.6
	c-2.1,2.1-6.5,3.2-9.3,1.8C32.7,48,29,45,29,45"></path><path class="st5" d="M41.4,28.5c0,0-0.5,6.1,0.4,9.2c0.9,3.1,1.8,4.6,4.4,5.1c2.7,0.5,4.2,1.3,4.2,1.3s-0.5-4.3,0.2-6
	c0.7-1.7,0.1-5.1-1.7-5.9C47.1,31.5,41.4,28.5,41.4,28.5"></path><path class="st6" d="M49.2,48.1c0,0-2.7,0.8-5.3,2.5c-2.6,1.7-3.8,2.8-3.8,4.8c0.1,2,0.5,3.7,1,5.6c0.5,1.9,0.9,2.5,0.5,3.1
	c-0.4,0.6,0.3-1.1,3.4-2.6c3.1-1.6,5-1.9,5.3-3.7c0.4-1.8-1-3.3-1.2-5.3C49,50.6,49.2,48.1,49.2,48.1"></path><path class="st0" d="M68.8,25.6c-2.1,1.4-5.5,4.6-7.9,6.9"></path><path class="st0" d="M62.5,21.6c0.6,3.6,0.3,8.8-1.4,12.4"></path><path class="st0" d="M56.3,24c3.6,2.3,7,3.9,5.1,8.1"></path><path class="st0" d="M58.1,40.9C57.6,46,56,51.4,53.7,54.6"></path><path class="st0" d="M65,46.4c-4.7,2.4-10.9,7.8-12.2,8.8"></path><path class="st0" d="M52.7,45.5c2.5,2.2,4.7,2.9,1.9,8.2"></path><path class="st1" d="M75.9,27.6c-1.6,1.3-1.4,2.4-6.2,1.4l-4.8-1c0,0,0.3-1,0.7-2.1c0.3-1.1,1.1-5.5,4.8-6c3.7-0.5,6-0.4,6.7-0.2
	c0.7,0.2,3.3,0.2,3.9,0.2"></path><path class="st7" d="M64.3,6.8c0.4,2.6,4.2,4.5,3.9,8.1c-0.2,3.6-3.7,7.8-4.6,9.2c-0.9,1.4,0.3,2.1-1.2-0.3c-1.5-2.4-2.4-2-3.2-4.4
	c-0.8-2.4,0.6-7.2,1.7-8.2C62.1,10.3,64.3,6.8,64.3,6.8"></path><path class="st2" d="M60.3,26.6c-0.4-0.6-0.3-1.6-2.1-4.7c-1.8-3.1-3.6-5.2-6.2-4.3c-2.6,0.9-2.6,1.9-5,1.5l-2.3-0.4
	c0,0,1.5,2.7,3.8,6.2c2.3,3.6,7,3,8.9,2.5C59.2,26.9,60.3,26.6,60.3,26.6"></path><path class="st4" d="M61.4,28.2c0,0-0.7,2.3,1.1,5.2c1.7,2.9,2.3,6.9-0.8,8.7c-3,1.9-4.1,3.9-4.1,3.9s0.5-0.2-1.3-2.6
	c-1.7-2.4-2.2-6.9-0.3-9.5C57.8,31.4,61.4,28.2,61.4,28.2"></path><path class="st5" d="M75.7,43c0,0-5.9-1.4-9.1-1c-3.2,0.4-4.9,1-5.7,3.6c-0.9,2.5-2,4-2,4s4.4,0.2,5.9,1.1c1.6,0.9,5,0.9,6.1-0.8
	C71.9,48.2,75.7,43,75.7,43"></path><path class="st6" d="M55.2,47.7c0,0-0.4-2.8-1.7-5.6c-1.3-2.8-2.2-4.2-4.1-4.4c-1.9-0.2-3.7-0.1-5.7,0.1c-2,0.2-2.6,0.5-3.2,0
	c-0.5-0.5,1,0.4,2.1,3.8c1.1,3.3,1.1,5.2,2.8,5.8c1.7,0.6,3.4-0.5,5.4-0.4C52.8,47.1,55.2,47.7,55.2,47.7"></path><path class="st9" d="M57.2,61.2c-1.1-2.3-3.8-6.1-5.7-8.8"></path><path class="st9" d="M62,55.5c-3.6,0.1-8.8-1-12-3.1"></path><path class="st9" d="M60.5,49c-2.8,3.2-4.8,6.4-8.8,4"></path><path class="st9" d="M43.5,48.4c-4.9-1.3-10.1-3.5-12.9-6.3"></path><path class="st9" d="M37.1,54.4c-1.7-5-6.2-11.9-7-13.3"></path><path class="st9" d="M39.7,42.4c-2.5,2.1-3.5,4.2-8.4,0.7"></path><path class="st9" d="M54.1,67.9c-1.1-1.7-2.2-1.7-0.5-6.3l1.7-4.6c0,0,0.9,0.4,2,0.9c1.1,0.5,5.3,1.9,5.3,5.6c0,3.8-0.5,6-0.7,6.7
	c-0.3,0.7-0.6,3.2-0.8,3.8"></path><path class="st9" d="M76.3,59.4c-2.7,0-5,3.5-8.6,2.7c-3.6-0.7-7.2-4.8-8.4-5.9c-1.2-1.1-2.1,0,0.5-1.2c2.6-1.2,2.3-2.1,4.8-2.5
	c2.5-0.4,7,1.6,7.9,2.9C73.2,56.7,76.3,59.4,76.3,59.4"></path><path class="st9" d="M57.4,52.6c0.7-0.3,1.7-0.1,4.9-1.4c3.3-1.4,5.7-2.8,5.2-5.6c-0.5-2.7-1.5-2.9-0.8-5.1l0.7-2.2
	c0,0-2.8,1.1-6.7,2.9c-3.9,1.8-4,6.5-3.7,8.4C57.2,51.5,57.4,52.6,57.4,52.6"></path><path class="st9" d="M55.6,53.4c0,0-2.2-1-5.3,0.3c-3.1,1.3-7.1,1.3-8.5-2c-1.4-3.3-3.2-4.6-3.2-4.6s0.1,0.5,2.7-0.9
	c2.6-1.4,7.2-1.2,9.4,1C52.9,49.5,55.6,53.4,55.6,53.4"></path><path class="st9" d="M38.9,65.6c0,0,2.2-5.7,2.3-8.9c0-3.2-0.3-5-2.7-6.2c-2.4-1.2-3.6-2.5-3.6-2.5s-0.8,4.3-1.9,5.7
	c-1.1,1.4-1.6,4.8-0.1,6.1C34.4,61.1,38.9,65.6,38.9,65.6"></path><path class="st9" d="M37.2,44.6c0,0,2.8,0,5.8-0.9c3-0.9,4.5-1.6,5-3.4c0.5-1.9,0.6-3.7,0.7-5.7c0.1-2-0.1-2.7,0.5-3.1
	c0.6-0.4-0.6,0.9-4,1.5c-3.4,0.6-5.3,0.4-6.2,1.9c-0.9,1.6,0,3.4-0.4,5.4C38.1,42.2,37.2,44.6,37.2,44.6"></path><path class="st0" d="M81.1,42.4c-2.5-0.6-7.1-0.9-10.4-1.2"></path><path class="st0" d="M79.8,35.1c-2.2,2.9-6.3,6.1-10.1,7.3"></path><path class="st0" d="M73.8,32.1c0.7,4.2,1.9,7.8-2.5,9.3"></path><path class="st0" d="M62.6,44.9c-4.1,3-9.2,5.6-13.1,6"></path><path class="st0" d="M63.1,53.6c-4.9-1.9-13.1-2.8-14.7-3"></path><path class="st0" d="M55.5,44c0.1,3.3,1.1,5.4-4.8,6.9"></path><path class="st1" d="M84.3,49.1c-2-0.2-2.7,0.6-5.2-3.6l-2.5-4.2c0,0,0.9-0.4,2-0.9c1.1-0.5,4.8-2.9,7.7-0.5
	c2.9,2.4,4.3,4.2,4.7,4.8c0.4,0.6,2.1,2.5,2.5,3"></path><path class="st2" d="M91.9,26.5c-1.7,2.1-0.5,6.1-3.4,8.4c-2.8,2.3-8.3,2.5-9.9,2.8c-1.6,0.3-1.3,1.6-0.6-1.1
	c0.7-2.7-0.1-3.1,1.1-5.3c1.2-2.2,5.7-4.4,7.2-4.2C87.8,27.2,91.9,26.5,91.9,26.5"></path><path class="st3" d="M74.6,36.8c0.2-0.7,1-1.3,2-4.7c1-3.4,1.4-6.2-1-7.5c-2.4-1.3-3.2-0.7-4.5-2.6l-1.3-2c0,0-0.9,2.9-2,7
	c-1.1,4.1,2.5,7.2,4.1,8.2C73.6,36.3,74.6,36.8,74.6,36.8"></path><path class="st4" d="M74.1,38.7c0,0-2.2,1.1-3.1,4.3c-0.9,3.2-3.5,6.3-7,5.3c-3.4-1-5.6-0.4-5.6-0.4s0.5,0.2,1.1-2.7
	c0.6-2.9,3.7-6.3,6.8-6.6C69.4,38.3,74.1,38.7,74.1,38.7"></path><path class="st5" d="M72.9,59.3c0,0-3-5.3-5.4-7.4C65,49.8,63.5,49,61,50c-2.5,1.1-4.3,1.2-4.3,1.2s2.8,3.3,3.2,5.1
	c0.4,1.8,2.7,4.3,4.7,3.9C66.5,60,72.9,59.3,72.9,59.3"></path><path class="st6" d="M55.6,47.3c0.1,0,1.8-2.2,3-5c1.2-2.9,1.6-4.5,0.5-6c-1.1-1.6-2.5-2.8-3.9-4.1c-1.5-1.3-2.1-1.6-2.1-2.3
	c0-0.7,0.4,1-1.4,4.1c-1.7,3-3.1,4.3-2.4,6c0.7,1.7,2.7,2.2,3.9,3.7C54.4,45.1,55.6,47.3,55.6,47.3"></path><path class="st0" d="M67.2,84.5c0-2.5-0.8-7.1-1.4-10.4"></path><path class="st0" d="M74,81.4c-3.3-1.5-7.5-4.6-9.5-8"></path><path class="st0" d="M75.4,74.9c-3.9,1.7-7.1,3.7-9.6-0.2"></path><path class="st0" d="M60.3,67.1c-3.9-3.3-7.6-7.5-9-11.2"></path><path class="st0" d="M51.9,69.8c0.6-5.3-0.5-13.4-0.7-15"></path><path class="st0" d="M59.4,60.1c-3.2,0.9-5,2.3-7.9-2.9"></path><path class="st2" d="M61.5,89.3c-0.3-2-1.3-2.5,2.2-6l3.5-3.5c0,0,0.6,0.8,1.4,1.7c0.8,0.9,4,4,2.4,7.4c-1.6,3.4-3,5.2-3.5,5.7
	c-0.5,0.5-1.9,2.6-2.3,3.2"></path><path class="st11" d="M85.3,91.1c-2.4-1.1-6,1-9-1.2c-2.9-2.2-4.5-7.4-5.1-8.9c-0.7-1.5-1.9-0.9,0.9-0.9c2.8,0,3-0.9,5.4-0.2
	c2.4,0.7,5.7,4.4,5.9,5.9C83.6,87.3,85.3,91.1,85.3,91.1"></path><path class="st3" d="M71,76.9c0.7,0,1.5,0.6,5.1,0.8c3.5,0.2,6.4-0.1,7.1-2.8c0.7-2.7-0.1-3.3,1.4-5l1.6-1.7c0,0-3-0.2-7.3-0.2
	c-4.3,0-6.4,4.2-7,6C71.3,75.7,71,76.9,71,76.9"></path><path class="st4" d="M69.1,76.8c0,0-1.6-1.9-4.9-2c-3.4-0.1-7-1.9-6.9-5.4c0.1-3.5-1-5.5-1-5.5s-0.1,0.5,2.8,0.4
	c2.9-0.1,7,2,8.1,4.9C68.3,72.1,69.1,76.8,69.1,76.8"></path><path class="st5" d="M48.8,80.7c0,0,4.5-4.2,5.9-7.1c1.4-2.9,1.8-4.6,0.2-6.8c-1.6-2.1-2.2-3.8-2.2-3.8s-2.5,3.5-4.2,4.3
	c-1.6,0.8-3.5,3.7-2.7,5.5C46.6,74.7,48.8,80.7,48.8,80.7"></path><path class="st6" d="M56.2,60.9c0,0.1,2.5,1.2,5.6,1.7c3.1,0.5,4.7,0.5,6-1c1.3-1.5,2.1-3.1,3-4.8c0.9-1.8,1-2.5,1.8-2.6
	c0.7-0.1-0.9,0.6-4.3-0.4c-3.4-1-5-1.9-6.4-0.9c-1.4,1.1-1.5,3.1-2.7,4.7C58.1,59.3,56.2,60.9,56.2,60.9"></path><path class="st0" d="M27.5,65.5c2.5-0.1,7.1-1.2,10.3-2"></path><path class="st0" d="M30.9,72.1c1.3-3.4,4.2-7.7,7.5-9.9"></path><path class="st0" d="M37.5,73.2c-1.9-3.8-4.1-6.9-0.3-9.6"></path><path class="st0" d="M44.5,57.7c3.1-4.1,7.1-8,10.7-9.6"></path><path class="st0" d="M41.4,49.5c5.3,0.4,13.3-1.2,15-1.4"></path><path class="st0" d="M51.5,56.4c-1-3.1-2.6-4.9,2.5-8"></path><path class="st1" d="M22.4,60.1c2-0.4,2.4-1.4,6.1,1.9l3.6,3.3c0,0-0.8,0.7-1.6,1.5c-0.9,0.8-3.8,4.2-7.2,2.7
	c-3.5-1.4-5.4-2.7-5.9-3.2c-0.5-0.5-2.7-1.8-3.3-2.2"></path><path class="st2" d="M21.9,83.9c1-2.5-1.3-6,0.7-9c2-3,7.2-4.8,8.7-5.6c1.5-0.7,0.8-1.9,0.9,0.9c0.1,2.8,1.1,3,0.5,5.4
	c-0.5,2.5-4.1,5.9-5.6,6.2C25.6,82,21.9,83.9,21.9,83.9"></path><path class="st3" d="M35.3,68.9c0,0.7-0.6,1.6-0.6,5.1c0,3.5,0.4,6.3,3.2,6.9c2.7,0.6,3.2-0.3,5.1,1.2l1.8,1.5c0,0,0-3.1-0.1-7.3
	c-0.2-4.3-4.5-6.2-6.4-6.7C36.5,69.1,35.3,68.9,35.3,68.9"></path><path class="st4" d="M35.3,67c0,0,1.8-1.7,1.7-5c0-3.4,1.5-7.1,5.1-7.1c3.5-0.1,5.5-1.2,5.5-1.2s-0.5-0.1-0.2,2.9
	c0.3,2.9-1.6,7.1-4.5,8.3C39.9,66,35.3,67,35.3,67"></path><path class="st5" d="M30.4,46.9c0,0,4.4,4.2,7.4,5.5c3,1.3,4.7,1.6,6.8-0.2c2.1-1.8,3.7-2.4,3.7-2.4s-3.7-2.4-4.5-3.9
	c-0.9-1.6-3.9-3.3-5.6-2.4C36.3,44.4,30.4,46.9,30.4,46.9"></path><path class="st12" d="M50.5,53.3c-0.1,0-1.1,2.6-1.4,5.7c-0.3,3.1-0.3,4.7,1.3,5.9c1.6,1.2,3.2,2,5,2.8c1.8,0.8,2.5,0.9,2.7,1.6
	c0.2,0.7-0.6-0.9,0.1-4.3c0.8-3.4,1.7-5,0.5-6.4c-1.1-1.4-3.2-1.3-4.8-2.4C52.3,55.1,50.5,53.3,50.5,53.3"></path><path class="st0" d="M45.6,23.9c-0.3,2.5,0.1,7.2,0.3,10.5"></path><path class="st0" d="M38.5,26.2c3.1,1.8,7,5.4,8.6,8.9"></path><path class="st0" d="M36.4,32.6c4-1.3,7.5-3,9.5,1.2"></path><path class="st0" d="M50.6,41.9c3.6,3.6,6.8,8.3,7.8,12.1"></path><path class="st0" d="M59.2,40.1c-1.2,5.2-0.9,13.4-0.9,15"></path><path class="st0" d="M50.8,49c3.2-0.5,5.2-1.8,7.5,3.8"></path><path class="st1" d="M51.7,19.7c0,2.1,1,2.6-2.8,5.7L45,28.5c0,0-0.6-0.9-1.2-1.8c-0.7-1-3.6-4.4-1.6-7.6c2-3.2,3.5-4.9,4.1-5.3
	c0.6-0.5,2.2-2.4,2.6-2.9"></path><path class="st13" d="M28.3,15.4c2.3,1.4,6.1-0.4,8.8,2.1c2.7,2.5,3.6,7.9,4.1,9.4c0.5,1.6,1.8,1.1-1,0.8c-2.8-0.3-3.1,0.6-5.4-0.3
	c-2.3-0.9-5.2-5-5.2-6.5C29.5,19.4,28.3,15.4,28.3,15.4"></path><path class="st2" d="M40.9,31.1c-0.7-0.1-1.5-0.8-5-1.4c-3.5-0.5-6.3-0.5-7.3,2c-1,2.6-0.2,3.3-1.9,4.8L25,38.1c0,0,3,0.5,7.2,1
	c4.2,0.5,6.8-3.5,7.6-5.2C40.5,32.2,40.9,31.1,40.9,31.1"></path><path class="st4" d="M42.9,31.3c0,0,1.4,2,4.7,2.5c3.3,0.5,6.7,2.6,6.2,6.1c-0.5,3.5,0.4,5.6,0.4,5.6s0.1-0.5-2.8-0.7
	c-2.9-0.2-6.8-2.7-7.5-5.8C43.1,36.1,42.9,31.3,42.9,31.3"></path><path class="st5" d="M63.4,29.6c0,0-4.9,3.7-6.6,6.4c-1.7,2.7-2.3,4.4-0.9,6.7c1.4,2.3,1.8,4,1.8,4s2.9-3.3,4.6-3.9
	c1.7-0.6,3.9-3.3,3.2-5.2C65,35.8,63.4,29.6,63.4,29.6"></path><path class="st6" d="M54,48.5c0-0.1-2.4-1.5-5.4-2.3c-3-0.8-4.6-1-6.1,0.4c-1.4,1.4-2.4,2.8-3.5,4.5c-1.1,1.6-1.3,2.4-2,2.4
	c-0.7,0.1,1-0.5,4.2,0.8c3.2,1.3,4.7,2.4,6.3,1.5c1.5-0.9,1.8-2.9,3.1-4.4C52,49.9,54,48.5,54,48.5"></path><path class="st9" d="M65.7,55.5c-2.5-0.6-7.1-0.9-10.4-1.2"></path><path class="st9" d="M64.4,48.1c-2.2,2.9-6.3,6.1-10.1,7.3"></path><path class="st9" d="M58.3,45.2c0.7,4.2,1.9,7.8-2.5,9.3"></path><path class="st9" d="M47.1,57.9c-4.1,3-9.2,5.6-13.1,6"></path><path class="st9" d="M47.7,66.7c-4.9-1.9-13.1-2.8-14.7-3"></path><path class="st9" d="M40.1,57.1c0.1,3.3,1.1,5.4-4.8,6.9"></path><path class="st9" d="M68.9,62.2c-2-0.2-2.7,0.6-5.2-3.6l-2.5-4.2c0,0,0.9-0.4,2-0.9c1.1-0.5,4.8-2.9,7.7-0.5
	c2.9,2.4,4.3,4.2,4.7,4.8c0.4,0.6,2.1,2.5,2.5,3"></path><path class="st9" d="M76.5,39.6c-1.7,2.1-0.5,6.1-3.4,8.4c-2.8,2.3-8.3,2.5-9.9,2.8c-1.6,0.3-1.3,1.6-0.6-1.1
	c0.7-2.7-0.1-3.1,1.1-5.3c1.2-2.2,5.7-4.4,7.2-4.2C72.4,40.3,76.5,39.6,76.5,39.6"></path><path class="st9" d="M59.2,49.9c0.2-0.7,1-1.3,2-4.7c1-3.4,1.4-6.2-1-7.5C57.8,36.3,57,37,55.8,35l-1.3-2c0,0-0.9,2.9-2,7
	c-1.1,4.1,2.5,7.2,4.1,8.2C58.2,49.4,59.2,49.9,59.2,49.9"></path><path class="st9" d="M58.7,51.8c0,0-2.2,1.1-3.1,4.3c-0.9,3.2-3.5,6.3-7,5.3C45.2,60.4,43,61,43,61s0.5,0.2,1.1-2.7
	c0.6-2.9,3.7-6.3,6.8-6.6C53.9,51.4,58.7,51.8,58.7,51.8"></path><path class="st9" d="M57.5,72.4c0,0-3-5.3-5.4-7.4c-2.4-2.1-4-2.9-6.5-1.8c-2.5,1.1-4.3,1.2-4.3,1.2s2.8,3.3,3.2,5.1
	c0.4,1.8,2.7,4.3,4.7,3.9C51.1,73,57.5,72.4,57.5,72.4"></path><path class="st9" d="M40.1,60.4c0.1,0,1.8-2.2,3-5c1.2-2.9,1.6-4.5,0.5-6c-1.1-1.6-2.5-2.8-3.9-4.1c-1.5-1.3-2.1-1.6-2.1-2.3
	c0-0.7,0.4,1-1.4,4.1c-1.7,3-3.1,4.3-2.4,6c0.7,1.7,2.7,2.2,3.9,3.7C39,58.2,40.1,60.4,40.1,60.4"></path><path class="st14" d="M53.7,66.7c0,0-8.7-0.9-11.6-0.8c-2.9,0.2-9.3,1.9-9.8,2.3c-0.5,0.4-3.5,2.6-3.6,4.3s2.1,7.2,2.4,8.2
	c0.3,0.9,5.2,4.2,6.2,4.2c1,0,3.3,0.4,6.2-0.7s9.3-5,9.6-5.4c0.3-0.4,2.5-5.4,2.5-6.2c0-0.8,0-3.1,0-3.1L53.7,66.7z"></path><path class="st15" d="M59.2,65.6c0,0,7.4,1.1,9.1,1.2s9.8,2.3,11.1,3.1c1.3,0.7,3.1,4.5,3,6.3c-0.2,1.7-3.5,7.2-4.3,7.9
	c-0.8,0.6-3.4,2-5.8,1.9c-2.3-0.1-8-1.1-8.3-1.4c-0.3-0.3-5.1-4.2-5.5-5.1c-0.4-0.8-2.3-3-2.4-4c-0.1-1,0-3.5-0.3-4.7s0.6-2.6,0.7-3
	C56.6,67.2,59.2,65.6,59.2,65.6z"></path><path class="st16" d="M55.5,54.1c0,0,2-1.6,3.3-1.8c1.4-0.2,3.7-0.1,5.7,0.5c2,0.6,4.6,2,5.2,3c0.5,0.9,1.1,3.8,0.9,4.5
	c-0.2,0.8-2.3,4.8-2.7,5.3c-0.3,0.5-1.1,1.4-1.6,1.6c-0.5,0.2-2.7,0.1-3.1-0.2c-0.4-0.3-1-1.9-1-1.9s-3.4,1.6-4.4,1.9
	c-1,0.2-2.6,0-2.9,0s-1.9-8.3-1.9-8.5C53.2,58.3,55.5,54.1,55.5,54.1z"></path><path class="st17" d="M53.8,67.5c0,0-3-0.5-3.6-0.8s-1-1.4-1-1.4s-0.4,1-1.5,1.5s-2.6,0.6-2.9,0.5c-0.3-0.1-2.5-1.8-2-4.5
	c0.5-2.8,2.2-7.2,4.2-8c2-0.7,4.5-0.8,5.5-1c1.1-0.2,3-0.6,4-0.4c1,0.2,3.4,1.4,4.3,2.7c0.9,1.4,1.8,2.9,0.9,3.6s-2.6,1.8-3,2.3
	c-0.4,0.5-1.9,2.5-2.2,2.9S55.9,67,55.5,67C55,67,53.8,67.5,53.8,67.5z"></path><path class="st17" d="M59.8,66.7c0,0,3.5,5.6,3.5,7.6c0.1,2-0.5,5.7,1.4,6.7c1.8,1,6.6,3.6,6.4,6.4c-0.3,2.8-3.3,8.1-6.6,9.4
	c-3.3,1.3-5.2,1.6-6.9,0.6c-1.7-1-3.1-2.3-3.1-2.3s-0.9,0.8-1.9,1.3c-1,0.5-6.3,1.7-8.4-0.1c-2.1-1.8-4.5-5.4-4.8-6.7
	s0.1-3.2,0.6-4.4s1.2-2.7,2.6-3.5c1.5-0.8,4.9-1.7,5-2.3s1.9-6.4,2.4-7.7c0.5-1.3,1.9-3.5,2.1-3.7c0.2-0.2,0.5-0.2,1-0.8
	C53.7,66.7,58.9,66.2,59.8,66.7z"></path><path class="st18" d="M62.4,65.1c0,0,0.8,1.3,1.8,1.9c1,0.6,1.4,0.7,2,0.9s2.4,1.2,2.6,1.6c0.2,0.4,0.7,1.7-0.2,2.1s-2.1,0.5-3.3,0
	c-1.2-0.5-2.2-1.6-3.1-2.4c-1-0.8-1.7-1.4-2.1-1.8c-0.4-0.4-0.9-0.8-1-0.9C59,66.2,59,66.2,59,66.2s0.2-0.5,1.2-0.6
	c1-0.1,1.2-0.4,1.4-0.4C61.8,65.2,62.4,65.1,62.4,65.1z"></path><path class="st19" d="M51.5,66.4c0,0-1.8,1.1-2.3,1.8s-1.9,2.2-2.4,2.7c-0.5,0.4-0.4,1.1-1.7,0.8c-1.3-0.3-2.1-0.3-2.1-1.3
	s-0.4-1.6,0.3-2.1c0.7-0.5,1.2-1.1,2-1.1c0.7,0,1.7-0.3,1.9-0.5c0.3-0.2,0.9-0.5,0.9-0.5l0.2-0.6c0,0,0.5,0.1,0.7,0
	c0.3-0.1,0.4-0.2,0.4-0.2s0.5,0.4,0.7,0.5c0.1,0.1,0.3,0.4,0.5,0.4C50.8,66.3,51.5,66.4,51.5,66.4z"></path><path class="st20" d="M57.2,66c0,0,1,3.7,0.8,4.5c-0.2,0.8-0.9,4.1-1.1,4.5c-0.2,0.5-0.6,1.5-1,1.6c-0.4,0.1-0.4,0-0.6-0.7
	c-0.2-0.7-1-3.7-1-4.4s-0.5-3.7-0.4-4c0.1-0.3,0.1-1,0.1-1l0.1-0.3c0,0,0.5,0.3,1.1,0.3c0.5,0,1-0.1,1-0.1L57.2,66z"></path><path class="st21" d="M48.6,80.6c0.5-0.1,1.3-0.6,1.3,0c0,0.6,0.2,0.9-0.2,0.9s-1,0.1-1.1,0C48.6,81.4,48.6,80.6,48.6,80.6z"></path><path class="st21" d="M60.9,81.1c0.5-0.1,1.3-0.6,1.3,0c0,0.6,0.2,0.9-0.2,0.9s-1,0.1-1.1,0S60.9,81.1,60.9,81.1z"></path><path class="st21" d="M57.4,74.2c0.4-0.1,1.2-0.5,1.2,0s0.2,0.8-0.2,0.8c-0.4,0.1-0.9,0.1-1,0C57.4,75,57.4,74.2,57.4,74.2z"></path><path class="st21" d="M49.6,78.4c0.3,0,0.8,0.2,0.8,0.4c-0.1,0.2-0.1,0.5-0.6,0.4c-0.5-0.1-1-0.2-1.1-0.3s-0.1-0.2,0-0.4
	C48.8,78.3,49.6,78.4,49.6,78.4z"></path><path class="st21" d="M49.7,76.1c0,0,0.8,0.2,0.7,0.5c-0.1,0.3,0.2,0.5-0.3,0.5c-0.5,0-0.8,0-0.8-0.2c0-0.2,0-0.3,0-0.3
	S49.4,76,49.7,76.1z"></path><path class="st21" d="M52.6,81.1c0.1-0.1,0.4-0.3,0.6-0.4c0.2-0.1,0.8-0.2,0.9,0s0.3,0.4,0.1,0.6c-0.2,0.2-0.7,0.3-1,0.3
	c-0.3,0-0.6-0.1-0.6-0.1S52.4,81.2,52.6,81.1z"></path><path class="st21" d="M53.2,79.2c0.2,0.1,0.6,0.2,0.7,0.4c0,0.2,0.1,0.5-0.2,0.6c-0.3,0-0.8,0.2-0.9,0c-0.1-0.2-0.3-0.3-0.2-0.5
	c0-0.2,0-0.3,0.1-0.3C52.8,79.3,53.1,79.1,53.2,79.2z"></path><path class="st21" d="M53.8,77.4c0.1,0,0.6,0,0.4,0.3c-0.2,0.4,0.3,0.6-0.4,0.6c-0.7,0-0.9-0.1-1-0.2S53,77.3,53.8,77.4z"></path><path class="st21" d="M57.3,77.1c-0.8,0-0.7,0.1-0.7,0.4s0.6,0.4,0.7,0.4c0.1,0,0.7-0.2,0.6-0.4C57.8,77.3,57.3,77.1,57.3,77.1z"></path><path class="st21" d="M57.2,78.8c0,0,0.7,0.3,0.6,0.6c-0.1,0.4-0.7,0.5-1,0.5c-0.3,0-0.4-0.2-0.4-0.5C56.4,79,56.7,78.8,57.2,78.8z"></path><path class="st21" d="M58.1,80.4c-0.3,0.2-0.8,0.2-0.6,0.7c0.2,0.5,0.2,0.5,0.5,0.5s0.5-0.2,0.6-0.4c0.1-0.2,0.2-0.4,0.1-0.6
	C58.6,80.6,58.1,80.4,58.1,80.4z"></path><path class="st21" d="M60,79.7c0,0,0.2-0.3,0.2,0s-0.2,1-0.5,1c-0.3,0.1-0.8-0.2-0.8-0.3C59,80.3,59.3,79.5,60,79.7z"></path><path class="st21" d="M62.8,79.6c0.4,0,0.7,0.2,0.8,0.4c0.1,0.2,0,0.8-0.2,0.8c-0.2,0-0.8-0.2-0.9-0.5C62.3,80,62.4,79.6,62.8,79.6z
	"></path><path class="st21" d="M61.9,77c0,0,0.5,0.5,0.2,0.7c-0.3,0.2-0.5,0.2-0.6,0S61.5,76.7,61.9,77z"></path><path class="st21" d="M61.3,75.6c0,0,0.4,0.6,0.2,1c-0.2,0.4-0.2,0.6-0.4,0.4c-0.2-0.2-0.4-0.6-0.4-0.7
	C60.8,76.1,60.7,75.4,61.3,75.6z"></path><path class="st21" d="M62.2,74.7c0,0,0.4,0.3,0.4,0.7s-0.2,0.7-0.2,0.7c0,0-0.2,0.1-0.3-0.3c-0.1-0.4-0.2-0.7-0.2-0.8
	S62,74.5,62.2,74.7z"></path><path class="st21" d="M58.2,75.8c0,0,0.8,0.3,0.4,0.5c-0.5,0.3-0.6,0.7-0.8,0.3S57.5,76,57.6,76C57.6,75.9,58.2,75.8,58.2,75.8z"></path><path class="st21" d="M53.6,75.5c0,0,0.7,0.3,0.7,0.6s0,0.6-0.2,0.5c-0.2-0.1-0.5-0.1-0.6-0.3C53.3,76,53.1,75.5,53.6,75.5z"></path><path class="st21" d="M51.7,74.3c0,0,0.8,0.2,0.5,0.6s-0.8,0.7-1.1,0.5c-0.2-0.1-0.5-0.3-0.5-0.5c0.1-0.2,0.2-0.6,0.4-0.7
	C51.3,74.2,51.7,74.3,51.7,74.3z"></path><path class="st21" d="M50.4,71c0.5,0,0.2,0.7-0.2,1.1c-0.4,0.4-0.6,1-0.9,0.4C49,71.9,49.6,71,50.4,71z"></path><path class="st21" d="M53.2,72c0.2,0.3,0.5,0.5,0,0.5c-0.5,0.1-1-0.1-1-0.3S53,71.7,53.2,72z"></path><path class="st21" d="M54.1,73.5c0,0,0.2,0.5,0.2,0.6c0,0.1,0.2,0.4,0,0.4c-0.2,0-0.3,0.2-0.4-0.2C53.8,73.9,53.9,73.4,54.1,73.5z"></path><path class="st21" d="M53.4,74c0,0,0.3,0.2,0.2,0.5c-0.1,0.3-0.5,0.1-0.6,0C53,74.4,53.2,74.1,53.4,74z"></path><path class="st21" d="M55.1,73.8c0.4,0.1,0.8-0.1,0.9,0.2c0.1,0.3,0.1,0.6-0.1,0.5c-0.2,0-0.6-0.1-0.7-0.3S55.1,73.8,55.1,73.8z"></path><path class="st21" d="M55.6,75.4c-0.1,0-0.3,0-0.4,0.2c-0.1,0.1,0.2,0.6,0.2,0.6l0.2-0.1V75.4z"></path><path class="st21" d="M55,72.5c0.2,0,0.6,0.4,0.7,0.3c0.1,0,0.2-0.3,0.4-0.3s0.4-0.1,0,0.3s-0.5,0.6-0.6,0.5s-0.5-0.3-0.5-0.4
	S54.4,72.4,55,72.5z"></path><path class="st21" d="M53.2,70.9c0,0,0.2,0.4,0.4,0.6s0.2,0.4,0.2,0.4l-0.4-0.2c0,0,0-0.3-0.1-0.4S53.2,70.9,53.2,70.9z"></path><path class="st21" d="M57.3,72.9c-0.1-0.2-0.7,1.1-0.5,1.1C56.9,74,57.4,73.3,57.3,72.9z"></path><path class="st21" d="M58.1,72.1c0,0,0.3-0.1,0.3,0.2c0,0.3,0,0.5-0.3,0.5C57.9,72.9,57.6,72.2,58.1,72.1z"></path><path class="st21" d="M59.3,72.1c0.2,0,0.4,0,0.3,0.4c-0.1,0.4-0.4,0.6-0.5,0.6C59,73.1,59,72.2,59.3,72.1z"></path><path class="st21" d="M59.9,71c0.2,0.2,0.8,0.9,0.8,0.9s0.4-0.7,0-0.9C60.4,70.8,59.9,71,59.9,71z"></path><path class="st21" d="M51.5,69.3c0,0,0.6,0.1,0.7,0.4c0.1,0.3,0.4,0.5,0,0.5s-0.9-0.3-1-0.4S51.1,69.3,51.5,69.3z"></path><path class="st21" d="M54.9,71.3c-0.1,0-0.5-0.1-0.3,0.1s0.2,0.4,0.5,0.3C55.2,71.6,54.9,71.3,54.9,71.3z"></path><path class="st21" d="M55.7,71.6c-0.1,0.1-0.3,0.2-0.3,0.3c0,0.1,0.2,0.3,0.3,0.2c0.1-0.1,0.2-0.1,0.2-0.2
	C55.9,71.7,55.7,71.6,55.7,71.6z"></path><path class="st21" d="M55.7,70.7c0,0,0.5,0.3,0.1,0.4c-0.4,0.1-0.6,0.1-0.8,0c-0.2-0.1-0.4-0.3-0.3-0.4s0,0,0.2,0
	C55.2,70.7,55.7,70.7,55.7,70.7z"></path><path class="st21" d="M55.1,69.7c0.1,0,0.7-0.1,0.7,0.1c0.1,0.2,0,0.7-0.3,0.5s-0.6-0.1-0.9-0.3s-0.3-0.4-0.3-0.4L55.1,69.7z"></path><path class="st21" d="M55.4,68.8c0,0,0.7,0,0.4,0.2s-0.3,0.5-0.6,0.4c-0.3-0.2-0.5-0.3-0.5-0.4S55.1,68.7,55.4,68.8z"></path><path class="st21" d="M55.3,67.7c0,0,0.6,0.2,0.6,0.3c0,0.1-0.1,0.5-0.4,0.5s-0.6-0.2-0.6-0.2S54.9,67.6,55.3,67.7z"></path><path class="st21" d="M55.8,66.7c0,0,0.1,0.3-0.2,0.4c-0.3,0.1-0.8,0.1-0.8-0.1s-0.1-0.3,0.1-0.3S55.8,66.7,55.8,66.7z"></path><path class="st21" d="M58.3,70.9c-0.1,0.1-0.7,0.7-0.6,0.8c0.1,0.1,0.4,0.1,0.5,0c0.1-0.1,0.3-0.1,0.3-0.2
	C58.5,71.4,58.3,70.9,58.3,70.9z"></path><path class="st21" d="M58.4,69.9c0.1,0-0.3,0.7-0.5,0.8s-0.3,0.1-0.3-0.2C57.7,70.2,58,69.9,58.4,69.9z"></path><path class="st21" d="M58,68.8c0.1,0.1,0.2,0.3,0.1,0.6c-0.1,0.3,0,0.6-0.2,0.5c-0.2-0.1-0.4-0.1-0.4-0.2S58,68.8,58,68.8z"></path><path class="st21" d="M57.3,67.1c0,0-0.1,0.1-0.3,0.4c-0.2,0.3,0.1,0.5,0.1,0.5s0-0.1,0.1-0.2C57.4,67.7,57.3,67.1,57.3,67.1z"></path><path class="st21" d="M58.5,67.8c0.1,0,0.7-0.1,0.9-0.1c0.2,0,0.5,0.1,0.3,0.2c-0.2,0.1-0.9,0.3-1,0.4c-0.1,0.1-0.2,0.3-0.3,0.1
	S58.5,67.8,58.5,67.8z"></path><path class="st21" d="M58.5,67c0.2,0.1,0.6,0.1,0.3,0.2s-0.6,0-0.6,0L58.5,67z"></path><path class="st21" d="M60.4,68.5c0.2,0.1-0.1,0.6-0.4,0.7c-0.3,0.1-0.6,0-0.6-0.1C59.3,68.9,59.9,68.3,60.4,68.5z"></path><path class="st21" d="M51.3,68c0,0,0.6,0.3,0.8,0.4c0.1,0.2,0.1,0.4-0.1,0.3s-0.7-0.4-0.7-0.4C51.2,68.3,51.3,68,51.3,68z"></path><path class="st21" d="M51.7,67.1c0.1,0,0.9,0.3,0.8,0.5s-0.1,0.2-0.3,0.1C52,67.6,51.4,67.1,51.7,67.1z"></path><path class="st21" d="M52.1,66.5c0.2,0.1,1,0.4,1,0.5c0,0,0,0.3-0.3,0.1c-0.3-0.1-0.5-0.2-0.7-0.3s-0.3-0.1-0.3-0.1
	S51.7,66.4,52.1,66.5z"></path><path class="st21" d="M60.1,65.8c0,0.1,0.3,0.1,0.4,0.1c0.1-0.1,0.1-0.2,0.1-0.2L60.1,65.8z"></path><path class="st21" d="M61.5,65.3c0.1,0,0.1,0.2,0,0.4s-0.6-0.1-0.6-0.1C60.9,65.5,61.3,65.2,61.5,65.3z"></path><path class="st21" d="M60.4,66.7c0.1,0,0.4,0.1,0.4,0.2c0,0.1-0.3,0.3-0.3,0.3c0,0-0.2,0-0.2,0L60,66.9L60.4,66.7z"></path><path class="st21" d="M62,66.5c0-0.1,0-0.4,0.1-0.4s0.2,0.2,0.2,0.3c0.1,0.2,0,0.3-0.2,0.4C62,66.9,62,66.5,62,66.5z"></path><path class="st21" d="M62.9,67.2c-0.1,0.1-0.2,0.5-0.1,0.5c0.1,0.1,0.2,0,0.3-0.2c0.1-0.2,0-0.4,0-0.4L62.9,67.2z"></path><path class="st21" d="M63.6,67.6c0,0,0-0.5,0.1-0.3c0.1,0.2,0.1,0.7,0.1,0.7c-0.1,0.1-0.2,0.1-0.2,0C63.6,67.9,63.6,67.6,63.6,67.6z
	"></path><path class="st21" d="M64.4,67.3c-0.1,0.2,0.1,0.3,0.1,0.3C64.6,67.4,64.4,67.3,64.4,67.3z"></path><path class="st21" d="M64.2,68.2c0,0-0.2,0.2-0.4,0.4c-0.2,0.2,0.1,0.2,0.2,0.2c0.1,0,0.1,0.2,0.2-0.1
	C64.3,68.5,64.2,68.2,64.2,68.2z"></path><path class="st21" d="M65.1,68c-0.1,0.1-0.2,0.4,0,0.4c0.2,0,0.2,0,0.2-0.2C65.3,68.1,65.4,67.7,65.1,68z"></path><path class="st21" d="M65,69.1c-0.3,0.1-0.5,0.6-0.4,0.6c0,0,0.6,0,0.6,0S65.6,68.9,65,69.1z"></path><path class="st21" d="M66.5,69.1c-0.1,0-0.2,0.4-0.1,0.5c0.1,0.1,0.2,0.1,0.3,0c0.1-0.1,0.4-0.5,0.2-0.7c-0.1-0.3-0.5,0.1-0.6,0.2"></path><path class="st21" d="M48.6,65.5c0,0-0.3,0.3-0.1,0.5c0.2,0.2,0.6,0.2,0.7,0.1S49.2,65.5,48.6,65.5z"></path><path class="st21" d="M49.1,65.2c-0.1,0.1,0.2,0.4,0.2,0.3c0.1,0,0.1,0,0.1-0.2C49.5,65.2,49.1,65.2,49.1,65.2z"></path><path class="st21" d="M47.9,66.1c0,0,0.2,0.5,0,0.5c-0.2,0.1-0.4-0.2-0.4-0.2S47.5,65.7,47.9,66.1z"></path><path class="st21" d="M47.6,67.2c0.2,0.1,0.6,0.2,0.3,0.3c-0.3,0.1-0.6,0.2-0.7,0.1C47.2,67.5,47.1,67,47.6,67.2z"></path><path class="st21" d="M45.6,67.5c-0.3,0.2-0.3,0.4-0.2,0.4c0.1,0,0.4-0.2,0.4-0.2S46,67.2,45.6,67.5z"></path><path class="st21" d="M46.9,67.6c0.1,0.1,0.1,0.3,0.2,0.5c0,0.2,0.2,0.4-0.1,0.3C46.6,68.3,46.4,67.4,46.9,67.6z"></path><path class="st21" d="M46,68.4c0.2,0.1,0.4,0.3,0.4,0.5c-0.1,0.2-0.4,0-0.4,0s-0.2,0.1,0,0.2c0.2,0.1,0.3,0.1,0.1,0.2
	c-0.2,0.1-0.7-0.1-0.7-0.1c0-0.1-0.2-0.3,0-0.2s0.4,0.1,0.4,0.1s0-0.2,0-0.2s0.1-0.4,0.1-0.4"></path><path class="st21" d="M45,69.1c0.1,0.1,0.4,0.5,0.4,0.7c0.1,0.2,0,0.2-0.1,0.2c-0.1-0.1-0.3-0.3-0.3-0.3C44.9,69.5,45,69.1,45,69.1z
	"></path><path class="st21" d="M49.3,66.1c0,0.2,0.3,0.5,0.4,0.4c0-0.1,0-0.3,0-0.4c0-0.1,0-0.3-0.1-0.3C49.5,65.9,49.3,66.1,49.3,66.1z"></path><path class="st21" d="M49.9,66.8c0.1,0.1-0.3,0.3-0.3,0.2c-0.1-0.1-0.1-0.3-0.1-0.3L49.9,66.8z"></path><path class="st21" d="M50.2,65.9c0,0,0.1,0.4,0.2,0.3c0.1-0.1,0.3,0.1,0.2-0.1C50.6,65.9,50.2,65.9,50.2,65.9z"></path><path class="st21" d="M48.3,68.4c-0.2,0.1-0.1,0.4,0,0.3c0.1-0.1,0.2-0.1,0.3-0.2S48.3,68.4,48.3,68.4z"></path><path class="st14" d="M37.3,44.1c0,0-3.1,7-4.5,9.1c-1.4,2.1-5.5,6.2-6,6.4c-0.5,0.2-3.5,1.5-4.8,0.9s-4.6-4.7-5.2-5.4
	c-0.6-0.6-0.9-5.7-0.5-6.5c0.4-0.7,1.1-2.7,3.2-4.3s7.8-4.8,8.2-4.9c0.4-0.1,5.2,0.4,5.8,0.8c0.6,0.3,2.3,1.3,2.3,1.3L37.3,44.1z"></path><path class="st15" d="M40.5,40.4c0,0,2.3-6.1,3.1-7.4c0.7-1.3,2.5-8.4,2.5-9.7c0-1.3-2.1-4.3-3.4-5s-7-0.5-7.8-0.1
	c-0.8,0.4-3,1.7-3.9,3.6c-0.9,1.8-2.6,6.5-2.5,6.9s1,5.7,1.5,6.3c0.5,0.6,1.3,3.1,2,3.6s2.7,1.6,3.5,2.3c0.8,0.7,2.2,0.7,2.6,0.8
	C38.2,41.7,40.5,40.4,40.5,40.4z"></path><path class="st16" d="M47.6,48.2c0,0,2.1-0.8,2.8-1.8c0.7-1,1.7-2.8,2.1-4.5c0.4-1.8,0.5-4.4,0-5.2s-2.3-2.5-3-2.7s-4.7-0.3-5.2-0.3
	c-0.5,0-1.5,0.2-1.9,0.5c-0.4,0.3-1.2,2-1.2,2.4c0,0.4,1,1.6,1,1.6s-2.7,1.9-3.3,2.5c-0.6,0.7-1.1,1.9-1.2,2.2s5.5,5.1,5.6,5.1
	S47.6,48.2,47.6,48.2z"></path><path class="st17" d="M36.7,43.7c0,0-0.9,2.5-0.9,3.1c0,0.6,0.6,1.4,0.6,1.4s-0.9-0.2-1.8,0.5s-1.6,1.7-1.7,2
	c-0.1,0.3,0.3,2.6,2.6,3.5c2.3,0.8,6.5,1.4,7.9,0.3s2.6-3,3.1-3.7c0.6-0.7,1.7-2,2-2.9c0.3-0.8,0.4-3.1-0.2-4.4
	c-0.6-1.3-1.5-2.6-2.4-2.2s-2.5,1.2-3,1.3c-0.5,0.1-2.7,0.4-3.2,0.4c-0.5,0.1-1.8-0.5-2-0.2C37.6,43,36.7,43.7,36.7,43.7z"></path><path class="st17" d="M39.9,39.5c0,0-2.7-5.1-4.2-6c-1.5-0.9-4.5-2.1-4.5-3.9c0-1.8,0.1-6.6-2.1-7.6c-2.2-1-7.6-1-10,0.9
	s-3.5,3.2-3.5,4.9c0,1.7,0.3,3.3,0.3,3.3s-1,0.3-1.8,0.9c-0.8,0.5-4,4-3.6,6.4c0.4,2.4,2.2,5.7,3,6.5c0.8,0.8,2.4,1.3,3.6,1.5
	c1.2,0.1,2.6,0.3,3.8-0.5s3.4-3,3.9-2.8c0.5,0.2,5.7,1.4,6.9,1.5s3.5,0.1,3.7,0c0.2-0.1,0.4-0.3,1-0.4
	C37.3,44.1,39.9,40.3,39.9,39.5z"></path><path class="st18" d="M42.3,38.2c0,0-0.6-1.2-0.6-2.2s0.1-1.4,0.2-1.9c0.1-0.5,0.2-2.3-0.1-2.7s-1-1.3-1.7-0.7s-1.3,1.3-1.4,2.5
	c-0.1,1.1,0.3,2.3,0.4,3.4c0.2,1.1,0.3,1.9,0.4,2.4c0.1,0.5,0.2,1.1,0.3,1.2c0.1,0.1,0.1,0.1,0.1,0.1s0.4,0.1,1-0.6
	c0.5-0.7,0.8-0.7,0.9-0.9C41.9,38.6,42.3,38.2,42.3,38.2z"></path><path class="st19" d="M36.6,45.9c0,0-1.6,0.9-2.4,1c-0.7,0.1-2.5,0.5-3.1,0.7c-0.5,0.2-1-0.2-1.4,0.9c-0.4,1.1-0.7,1.7,0,2.2
	s1.1,1,1.7,0.7c0.7-0.3,1.4-0.4,1.7-1c0.3-0.6,1-1.1,1.2-1.3c0.2-0.1,0.8-0.5,0.8-0.5l0.5,0.1c0,0,0.2-0.4,0.3-0.5
	c0.2-0.2,0.3-0.2,0.3-0.2s-0.1-0.6-0.1-0.7s-0.1-0.4-0.1-0.6C36.3,46.5,36.6,45.9,36.6,45.9z"></path><path class="st20" d="M39.3,41.8c0,0-2.4-2.4-3.1-2.6s-3.5-1.1-3.9-1.1C32,38,31,37.9,30.8,38.1c-0.2,0.3-0.2,0.3,0.2,0.7
	c0.4,0.4,2.4,2.3,2.9,2.7s2.6,2,2.9,2.1c0.3,0.1,0.8,0.3,0.8,0.3l0.3,0.1c0,0,0-0.6,0.2-1c0.2-0.4,0.5-0.7,0.5-0.7L39.3,41.8z"></path><path class="st21" d="M24.6,41.9c0.3-0.3,1-0.7,0.6-1s-0.5-0.6-0.8-0.2c-0.3,0.3-0.5,0.7-0.5,0.8S24.6,41.9,24.6,41.9z"></path><path class="st21" d="M29.5,32.4c0.3-0.3,1-0.7,0.6-1s-0.5-0.6-0.8-0.2c-0.3,0.3-0.5,0.7-0.5,0.8S29.5,32.4,29.5,32.4z"></path><path class="st21" d="M33.2,38c0.3-0.3,0.9-0.7,0.5-0.9c-0.4-0.2-0.5-0.5-0.7-0.2c-0.2,0.3-0.5,0.6-0.4,0.7
	C32.6,37.7,33.2,38,33.2,38z"></path><path class="st21" d="M26.7,42.1c0.1-0.2,0.2-0.7,0-0.7c-0.2,0-0.4-0.1-0.6,0.3c-0.2,0.4-0.3,0.9-0.2,0.9s0.1,0.2,0.3,0.2
	S26.7,42.1,26.7,42.1z"></path><path class="st21" d="M28.4,43.1c0,0,0.2-0.7-0.1-0.8s-0.3-0.4-0.5,0c-0.2,0.3-0.3,0.6-0.2,0.7c0.1,0.1,0.3,0.1,0.3,0.1
	S28.4,43.3,28.4,43.1z"></path><path class="st21" d="M25.9,38.7c0.1-0.1,0.4-0.2,0.5-0.3c0.2-0.1,0.5-0.5,0.4-0.7c-0.2-0.1-0.1-0.4-0.4-0.3
	c-0.3,0.1-0.5,0.4-0.7,0.6c-0.1,0.2-0.1,0.5-0.1,0.5S25.8,38.7,25.9,38.7z"></path><path class="st21" d="M27.7,39c0-0.2,0.1-0.6,0-0.7s-0.4-0.3-0.5-0.1s-0.5,0.5-0.4,0.7c0.1,0.2,0.1,0.3,0.2,0.4
	c0.1,0.1,0.2,0.2,0.3,0.1S27.6,39.2,27.7,39z"></path><path class="st21" d="M29.2,39.3c0-0.1,0.3-0.4-0.1-0.4c-0.4,0-0.3-0.5-0.6,0s-0.3,0.8-0.3,0.9C28.3,39.9,29,40.1,29.2,39.3z"></path><path class="st21" d="M31,36.8c-0.3,0.6-0.4,0.5-0.6,0.4c-0.2-0.1,0-0.6,0-0.7c0.1-0.1,0.4-0.5,0.6-0.3C31.1,36.4,31,36.8,31,36.8z"></path><path class="st21" d="M29.7,36.2c0,0,0.1-0.7-0.2-0.7c-0.3,0-0.7,0.3-0.8,0.6s0,0.4,0.2,0.5C29.1,36.7,29.5,36.6,29.7,36.2z"></path><path class="st21" d="M28.8,34.8C28.6,35,28.3,35.3,28,35s-0.3-0.4-0.2-0.6s0.4-0.3,0.5-0.3c0.2,0,0.4,0.1,0.5,0.2
	C28.9,34.4,28.8,34.8,28.8,34.8z"></path><path class="st21" d="M30.2,33.7c0,0,0.4,0,0.1-0.2c-0.2-0.1-0.8-0.3-1-0.1c-0.2,0.2-0.2,0.7-0.1,0.7S30,34.3,30.2,33.7z"></path><path class="st21" d="M31.5,31.6c0.2-0.2,0.2-0.6,0-0.8c-0.1-0.1-0.6-0.3-0.7-0.2c-0.1,0.2-0.2,0.7,0,0.9
	C31,31.8,31.3,31.9,31.5,31.6z"></path><path class="st21" d="M33,33.4c0,0-0.2-0.6-0.5-0.4c-0.3,0.1-0.4,0.3-0.2,0.4C32.5,33.5,33.1,33.9,33,33.4z"></path><path class="st21" d="M33.8,34.5c0,0-0.3-0.6-0.6-0.6c-0.4,0-0.6-0.1-0.5,0.2c0.1,0.2,0.3,0.5,0.4,0.6C33.2,34.7,33.7,35,33.8,34.5z
	"></path><path class="st21" d="M34.9,34.2c0,0,0-0.4-0.4-0.6c-0.3-0.2-0.6-0.2-0.6-0.2c0,0-0.1,0.1,0.1,0.4c0.2,0.3,0.5,0.4,0.5,0.5
	C34.6,34.3,35,34.4,34.9,34.2z"></path><path class="st21" d="M32.3,36.8c0,0,0.2-0.8-0.3-0.5c-0.4,0.3-0.8,0.2-0.6,0.5c0.2,0.3,0.3,0.4,0.4,0.4
	C32,37.1,32.3,36.8,32.3,36.8z"></path><path class="st21" d="M30.6,40.4c0,0,0-0.7-0.1-0.8c-0.2-0.1-0.5-0.3-0.5-0.1c0,0.2-0.2,0.4,0,0.6C30,40.4,30.4,40.8,30.6,40.4z"></path><path class="st21" d="M30.7,42.3c0,0,0.2-0.7-0.2-0.6s-0.9,0.3-0.9,0.6s0,0.5,0.2,0.6c0.2,0.1,0.6,0.1,0.7,0
	C30.6,42.7,30.7,42.3,30.7,42.3z"></path><path class="st21" d="M32.6,44.7c0.2-0.3-0.5-0.4-0.9-0.3c-0.4,0.1-1,0-0.7,0.5C31.3,45.4,32.3,45.3,32.6,44.7z"></path><path class="st21" d="M33.1,42.1c-0.1-0.3-0.1-0.6-0.4-0.2s-0.4,0.8-0.2,0.9C32.6,42.9,33.2,42.4,33.1,42.1z"></path><path class="st21" d="M32.3,40.9c0,0-0.3-0.4-0.4-0.4c-0.1,0-0.2-0.4-0.3-0.2c-0.1,0.2-0.3,0.1,0,0.4C31.9,40.9,32.3,41,32.3,40.9z"></path><path class="st21" d="M31.6,41.1c0,0,0-0.3-0.3-0.4c-0.3-0.1-0.3,0.4-0.2,0.4S31.5,41.2,31.6,41.1z"></path><path class="st21" d="M32.5,39.9c0-0.3,0.4-0.6,0.2-0.8c-0.2-0.2-0.4-0.3-0.5-0.1c-0.1,0.2-0.2,0.5-0.1,0.6S32.5,39.9,32.5,39.9z"></path><path class="st21" d="M31.5,38.9c0,0-0.2,0.2-0.3,0.2c-0.1,0-0.3-0.4-0.3-0.4l0.2-0.1L31.5,38.9z"></path><path class="st21" d="M33.4,40.6c0-0.2,0-0.6,0-0.7s0.3,0,0.4-0.1c0.1-0.1,0.2-0.3-0.2-0.1C33.3,39.9,33,39.9,33,40
	c0,0.1,0,0.5,0.1,0.5C33.2,40.5,33.3,41.1,33.4,40.6z"></path><path class="st21" d="M33.9,42.6c0,0-0.3-0.3-0.3-0.5c0-0.2-0.2-0.3-0.2-0.3l0,0.4c0,0,0.2,0.2,0.3,0.2
	C33.7,42.5,33.9,42.6,33.9,42.6z"></path><path class="st21" d="M34.1,38.7c0.1,0.1-1.1,0-1-0.1S33.9,38.4,34.1,38.7z"></path><path class="st21" d="M35.1,38.4c0,0,0.2-0.2,0-0.4c-0.2-0.1-0.4-0.3-0.5,0C34.4,38.2,34.8,38.8,35.1,38.4z"></path><path class="st21" d="M35.6,37.5c0.1-0.1,0.2-0.3-0.2-0.4c-0.3-0.1-0.6,0-0.6,0.1C34.8,37.3,35.4,37.7,35.6,37.5z"></path><path class="st21" d="M36.7,37.5c-0.1-0.3-0.3-1-0.3-1s0.7,0,0.7,0.4C37.1,37.3,36.7,37.5,36.7,37.5z"></path><path class="st21" d="M34.4,44.6c0,0,0.2-0.5,0-0.7c-0.2-0.2-0.2-0.6-0.4-0.2c-0.1,0.3-0.1,0.9-0.1,0.9C34,44.7,34.2,44.9,34.4,44.6
	z"></path><path class="st21" d="M34.4,41.2c0,0.1-0.1,0.4-0.2,0.2c-0.1-0.2-0.2-0.3,0-0.5C34.3,40.8,34.4,41.2,34.4,41.2z"></path><path class="st21" d="M34.5,40.5c-0.1,0.1-0.3,0.1-0.4,0.1c-0.1,0-0.1-0.3,0-0.3c0.1,0,0.2-0.1,0.3-0.1
	C34.4,40.2,34.5,40.5,34.5,40.5z"></path><path class="st21" d="M35.1,40.8c0,0,0-0.5-0.2-0.3c-0.2,0.2-0.3,0.4-0.3,0.6s0,0.4,0.2,0.4s0,0,0.1-0.2S35.1,40.8,35.1,40.8z"></path><path class="st21" d="M35.6,41.7c0-0.1,0.4-0.4,0.2-0.6c-0.1-0.1-0.5-0.3-0.6,0c-0.1,0.3-0.2,0.5-0.1,0.8c0.1,0.3,0.2,0.4,0.2,0.4
	L35.6,41.7z"></path><path class="st21" d="M36.5,41.9c0,0,0.3-0.5,0-0.4c-0.3,0.1-0.6,0-0.6,0.3c0,0.3,0,0.5,0.1,0.5C36,42.4,36.4,42.1,36.5,41.9z"></path><path class="st21" d="M37.2,42.4c0,0,0.1-0.5,0-0.6c-0.1-0.1-0.4-0.2-0.5,0.1c-0.1,0.3-0.1,0.5-0.1,0.5S37.1,42.7,37.2,42.4z"></path><path class="st21" d="M38.2,42.5c0,0-0.2-0.2-0.4,0c-0.2,0.2-0.4,0.6-0.3,0.6c0.1,0,0.2,0.2,0.2,0.1C37.9,43.1,38.2,42.5,38.2,42.5z
	"></path><path class="st21" d="M36.1,38.8c-0.1,0-0.8,0.2-0.9,0.1c-0.1-0.1,0.1-0.3,0.2-0.4c0.1-0.1,0.2-0.2,0.3-0.1
	C35.8,38.4,36.1,38.8,36.1,38.8z"></path><path class="st21" d="M36.9,39.1c0.1-0.1-0.7,0-0.8,0s-0.2,0.2,0.1,0.3C36.4,39.5,36.8,39.4,36.9,39.1z"></path><path class="st21" d="M37.5,39.9c0-0.1-0.1-0.3-0.4-0.3c-0.3,0-0.4-0.2-0.5,0c0,0.2-0.1,0.3,0,0.4C36.7,40,37.5,39.9,37.5,39.9z"></path><path class="st21" d="M38.6,41.2c0,0-0.1,0-0.4,0s-0.4-0.3-0.3-0.3c0.1-0.1,0.1,0,0.2,0S38.6,41.2,38.6,41.2z"></path><path class="st21" d="M38.5,39.9c0,0,0.4-0.5,0.5-0.7c0.1-0.2,0.1-0.4,0-0.3c-0.2,0.1-0.6,0.5-0.7,0.6c-0.1,0-0.3,0-0.2,0.2
	C38.1,39.9,38.5,39.9,38.5,39.9z"></path><path class="st21" d="M39.2,40.3c0-0.2,0.2-0.5-0.1-0.3c-0.2,0.2-0.3,0.5-0.3,0.5L39.2,40.3z"></path><path class="st21" d="M38.8,38.2c0-0.2-0.5-0.2-0.7,0c-0.2,0.2-0.3,0.5-0.2,0.5C38,38.8,38.8,38.7,38.8,38.2z"></path><path class="st21" d="M35.2,45.3c0,0,0.1-0.6,0-0.8c-0.1-0.2-0.3-0.3-0.3,0c0,0.2,0,0.7,0,0.7C35,45.3,35.2,45.3,35.2,45.3z"></path><path class="st21" d="M36.1,45.4c0-0.1,0.1-0.8,0-0.9c-0.2,0-0.2,0-0.2,0.2C35.9,44.9,35.9,45.7,36.1,45.4z"></path><path class="st21" d="M36.7,45.4c0-0.2,0.1-1,0.1-1c0,0-0.2-0.1-0.2,0.1c0,0.3-0.1,0.5-0.1,0.6c0,0.2-0.1,0.3-0.1,0.3
	S36.6,45.8,36.7,45.4z"></path><path class="st21" d="M40.8,39.6c0,0,0-0.3,0.1-0.3s0.2,0,0.2,0L40.8,39.6z"></path><path class="st21" d="M41.8,38.8c0-0.1-0.1-0.2-0.3-0.2c-0.2,0-0.2,0.5-0.2,0.5C41.3,39.2,41.7,38.9,41.8,38.8z"></path><path class="st21" d="M40.2,39c0.1-0.1,0.1-0.3,0.1-0.4c-0.1,0-0.4,0.1-0.4,0.1c0,0-0.1,0.2-0.1,0.2l0.1,0.3L40.2,39z"></path><path class="st21" d="M41.1,37.9c0.1,0,0.3,0.2,0.3,0.1c0-0.1,0-0.2-0.1-0.3c-0.1-0.1-0.2-0.1-0.4,0C40.7,37.7,41.1,37.9,41.1,37.9z
	"></path><path class="st21" d="M40.9,36.9c-0.1,0-0.5-0.1-0.5-0.2c0-0.1,0.1-0.2,0.3-0.2c0.2,0,0.3,0.2,0.3,0.2L40.9,36.9z"></path><path class="st21" d="M40.9,36.2c0,0,0.4,0.2,0.3,0c-0.1-0.2-0.5-0.4-0.5-0.4c-0.1,0-0.2,0.1-0.1,0.2C40.7,36.1,40.9,36.2,40.9,36.2
	z"></path><path class="st21" d="M41.5,35.7c-0.2,0-0.2-0.2-0.2-0.2C41.5,35.6,41.5,35.7,41.5,35.7z"></path><path class="st21" d="M40.7,35.5c0,0-0.2,0.1-0.5,0.1s-0.1-0.2-0.1-0.2c0,0-0.1-0.2,0.1-0.1S40.7,35.5,40.7,35.5z"></path><path class="st21" d="M41.2,34.9c-0.1,0-0.4,0-0.3-0.2c0.1-0.1,0.1-0.1,0.2-0.1S41.6,34.9,41.2,34.9z"></path><path class="st21" d="M40.4,34.5c-0.2,0.2-0.7,0.1-0.7,0s0.3-0.4,0.3-0.4S40.8,34.1,40.4,34.5z"></path><path class="st21" d="M41.1,33.4c-0.1,0-0.4,0-0.5-0.1s0-0.2,0.1-0.2c0.1-0.1,0.5-0.1,0.7,0.1c0.1,0.2-0.3,0.3-0.4,0.3"></path><path class="st21" d="M36,48.5c0,0-0.4,0.1-0.4-0.1s0.1-0.5,0.2-0.6C35.8,47.8,36.3,48,36,48.5z"></path><path class="st21" d="M36.5,48.2c-0.1,0-0.2-0.3-0.1-0.3c0.1,0,0.1-0.1,0.2,0S36.5,48.2,36.5,48.2z"></path><path class="st21" d="M35.2,48.8c0,0-0.3-0.4-0.4-0.2c-0.1,0.1,0,0.4,0,0.4S35.3,49.2,35.2,48.8z"></path><path class="st21" d="M34.3,48.5c0-0.2,0.1-0.6-0.1-0.4c-0.2,0.2-0.4,0.4-0.4,0.5C33.9,48.6,34.2,49,34.3,48.5z"></path><path class="st21" d="M33.2,49.9c-0.3,0.1-0.4,0-0.4-0.1c0.1-0.1,0.3-0.2,0.3-0.2S33.6,49.7,33.2,49.9z"></path><path class="st21" d="M33.6,48.8c0-0.1-0.2-0.2-0.3-0.3c-0.1-0.1-0.2-0.4-0.3-0.1S33.6,49.3,33.6,48.8z"></path><path class="st21" d="M32.6,49.2c0-0.2-0.1-0.5-0.2-0.5c-0.1,0-0.2,0.3-0.2,0.3s-0.1,0.1-0.1-0.1c0-0.2,0.1-0.3-0.1-0.2
	c-0.1,0.1-0.3,0.5-0.2,0.6c0,0.1,0.2,0.3,0.2,0.1c0-0.2,0.1-0.3,0.1-0.3s0.1,0.1,0.2,0.1c0.1,0,0.4,0.1,0.4,0.1"></path><path class="st21" d="M31.7,49.7c0-0.1-0.2-0.5-0.3-0.6c-0.1-0.1-0.2-0.1-0.2,0c0,0.1,0.1,0.3,0.1,0.4
	C31.4,49.5,31.7,49.7,31.7,49.7z"></path><path class="st21" d="M35.8,47.6c-0.2-0.1-0.2-0.5-0.1-0.4c0.1,0,0.2,0.1,0.3,0.2c0.1,0,0.3,0.1,0.2,0.2
	C36.1,47.6,35.8,47.6,35.8,47.6z"></path><path class="st21" d="M35.5,46.9c-0.1-0.1-0.4,0-0.3,0.1s0.2,0.2,0.2,0.2L35.5,46.9z"></path><path class="st21" d="M36.4,47.1c0,0-0.3-0.2-0.2-0.3s0.1-0.2,0.2-0.1S36.4,47.1,36.4,47.1z"></path><path class="st21" d="M33.6,47.5c-0.2,0.1-0.3-0.1-0.2-0.1c0.1,0,0.1-0.2,0.2-0.1C33.7,47.2,33.6,47.5,33.6,47.5z"></path><path class="st14" d="M70.5,44c0,0,2.7,6.1,3.9,8c1.2,1.9,4.8,5.5,5.2,5.6c0.5,0.2,3.1,1.3,4.2,0.8c1.2-0.5,4-4.1,4.5-4.7
	c0.5-0.6,0.8-5,0.4-5.7s-1-2.3-2.8-3.8c-1.9-1.5-6.8-4.2-7.2-4.3c-0.4-0.1-4.5,0.4-5.1,0.7c-0.6,0.3-2,1.2-2,1.2L70.5,44z"></path><path class="st15" d="M67.7,40.8c0,0-2.1-5.3-2.7-6.5c-0.6-1.2-2.2-7.4-2.2-8.5c0-1.1,1.8-3.8,3-4.3c1.2-0.6,6.1-0.4,6.9-0.1
	s2.6,1.5,3.4,3.1c0.8,1.6,2.3,5.7,2.2,6c-0.1,0.3-0.9,5-1.3,5.6c-0.4,0.6-1.1,2.7-1.7,3.1c-0.6,0.4-2.3,1.4-3,2
	c-0.7,0.6-1.9,0.6-2.3,0.7S67.7,40.8,67.7,40.8z"></path><path class="st16" d="M61.5,47.6c0,0-1.8-0.7-2.4-1.5c-0.6-0.8-1.5-2.4-1.9-4c-0.4-1.6-0.4-3.8,0-4.6c0.4-0.7,2.1-2.2,2.6-2.3
	c0.6-0.2,4.1-0.3,4.5-0.3c0.4,0,1.3,0.2,1.7,0.5c0.3,0.3,1.1,1.8,1,2.1s-0.9,1.4-0.9,1.4s2.4,1.6,2.9,2.2c0.5,0.6,1,1.7,1.1,1.9
	c0.1,0.2-4.8,4.5-4.9,4.5C65.2,47.5,61.5,47.6,61.5,47.6z"></path><path class="st17" d="M71,43.7c0,0,0.8,2.2,0.8,2.7c0,0.5-0.5,1.2-0.5,1.2s0.8-0.2,1.6,0.4s1.4,1.5,1.5,1.7s-0.2,2.3-2.2,3
	c-2,0.7-5.7,1.3-6.9,0.2c-1.2-1-2.2-2.6-2.8-3.3s-1.5-1.8-1.8-2.5c-0.2-0.7-0.4-2.8,0.2-3.9c0.5-1.1,1.3-2.3,2.1-2
	c0.8,0.3,2.2,1,2.6,1.1s2.4,0.3,2.8,0.4c0.4,0,1.6-0.5,1.7-0.2C70.2,43,71,43.7,71,43.7z"></path><path class="st17" d="M68.2,39.9c0,0,2.4-4.5,3.7-5.2c1.3-0.8,3.9-1.9,3.9-3.5c0-1.6-0.1-5.8,1.8-6.7s6.6-0.9,8.7,0.8s3,2.8,3,4.3
	c0,1.5-0.3,2.9-0.3,2.9s0.9,0.3,1.6,0.7c0.7,0.5,3.5,3.5,3.1,5.6c-0.4,2.1-1.9,5-2.6,5.7c-0.7,0.7-2.1,1.2-3.2,1.3
	c-1,0.1-2.2,0.3-3.4-0.4c-1.1-0.7-3-2.6-3.4-2.4s-5,1.2-6,1.3c-1.1,0.2-3.1,0.1-3.2,0c-0.2,0-0.3-0.2-0.9-0.4
	C70.5,44,68.2,40.7,68.2,39.9z"></path><path class="st18" d="M66.1,38.9c0,0,0.6-1,0.6-1.9c0-0.9-0.1-1.2-0.2-1.6s-0.1-2,0.1-2.3c0.2-0.3,0.9-1.1,1.5-0.6
	c0.6,0.5,1.1,1.2,1.2,2.2c0.1,1-0.2,2-0.4,3s-0.3,1.6-0.4,2.1c-0.1,0.4-0.2,0.9-0.3,1c0,0.1,0,0.1,0,0.1s-0.4,0.1-0.8-0.6
	c-0.5-0.6-0.7-0.6-0.8-0.8C66.4,39.2,66.1,38.9,66.1,38.9z"></path><path class="st19" d="M71.1,45.6c0,0,1.4,0.8,2.1,0.9c0.6,0.1,2.2,0.4,2.7,0.6c0.5,0.2,0.9-0.2,1.2,0.8c0.3,1,0.6,1.5,0,1.9
	s-0.9,0.9-1.5,0.6c-0.6-0.3-1.2-0.4-1.5-0.9c-0.3-0.5-0.9-1-1.1-1.1c-0.2-0.1-0.7-0.4-0.7-0.4L71.8,48c0,0-0.1-0.3-0.3-0.5
	c-0.1-0.1-0.3-0.2-0.3-0.2s0-0.5,0.1-0.6c0-0.1,0.1-0.4,0.1-0.5S71.1,45.6,71.1,45.6z"></path><path class="st20" d="M68.7,42c0,0,2.1-2.1,2.7-2.3s3-0.9,3.4-1c0.4-0.1,1.2-0.2,1.4,0.1c0.2,0.2,0.2,0.3-0.2,0.6s-2.1,2-2.6,2.3
	c-0.5,0.3-2.3,1.7-2.5,1.8c-0.2,0.1-0.7,0.3-0.7,0.3L70,43.9c0,0,0-0.5-0.2-0.8c-0.2-0.4-0.4-0.6-0.4-0.6L68.7,42z"></path><path class="st21" d="M81.7,42.1c-0.3-0.3-0.9-0.7-0.5-0.9c0.4-0.2,0.5-0.5,0.7-0.2c0.2,0.3,0.5,0.6,0.4,0.7S81.7,42.1,81.7,42.1z"></path><path class="st21" d="M77.4,33.7c-0.3-0.3-0.9-0.7-0.5-0.9c0.4-0.2,0.5-0.5,0.7-0.2c0.2,0.3,0.5,0.6,0.4,0.7S77.4,33.7,77.4,33.7z"></path><path class="st21" d="M74.1,38.6c-0.2-0.2-0.8-0.6-0.4-0.8c0.3-0.2,0.4-0.4,0.6-0.2c0.2,0.3,0.4,0.6,0.4,0.6
	C74.6,38.4,74.1,38.6,74.1,38.6z"></path><path class="st21" d="M79.8,42.3c-0.1-0.2-0.2-0.6,0-0.6s0.3-0.1,0.5,0.2c0.2,0.3,0.3,0.7,0.2,0.8c-0.1,0.1-0.1,0.2-0.2,0.1
	S79.8,42.3,79.8,42.3z"></path><path class="st21" d="M78.3,43.1c0,0-0.1-0.6,0.1-0.7s0.3-0.3,0.5,0c0.2,0.3,0.3,0.5,0.2,0.6c-0.1,0.1-0.2,0.1-0.2,0.1
	S78.3,43.3,78.3,43.1z"></path><path class="st21" d="M80.5,39.3c-0.1,0-0.3-0.1-0.5-0.3c-0.2-0.1-0.5-0.5-0.3-0.6c0.1-0.1,0.1-0.4,0.4-0.3s0.5,0.3,0.6,0.5
	c0.1,0.2,0.1,0.4,0.1,0.4S80.6,39.3,80.5,39.3z"></path><path class="st21" d="M79,39.6c0-0.2-0.1-0.5,0-0.6c0.1-0.1,0.3-0.3,0.5-0.1s0.4,0.5,0.4,0.6s-0.1,0.3-0.2,0.3
	c-0.1,0.1-0.2,0.1-0.3,0.1C79.2,39.8,79,39.7,79,39.6z"></path><path class="st21" d="M77.6,39.8c0-0.1-0.2-0.4,0.1-0.4s0.3-0.4,0.5,0s0.3,0.7,0.2,0.8C78.4,40.3,77.8,40.5,77.6,39.8z"></path><path class="st21" d="M76.1,37.6c0.3,0.5,0.4,0.4,0.5,0.3s0-0.5,0-0.6s-0.4-0.4-0.5-0.3C76,37.2,76.1,37.6,76.1,37.6z"></path><path class="st21" d="M77.2,37.1c0,0-0.1-0.6,0.2-0.6s0.6,0.3,0.7,0.5c0.1,0.2,0,0.4-0.2,0.5C77.7,37.5,77.4,37.4,77.2,37.1z"></path><path class="st21" d="M78,35.9c0.2,0.1,0.4,0.4,0.7,0.1s0.3-0.4,0.2-0.5s-0.3-0.3-0.5-0.3c-0.1,0-0.3,0-0.4,0.2
	C77.8,35.5,78,35.9,78,35.9z"></path><path class="st21" d="M76.7,34.9c0,0-0.3,0-0.1-0.2c0.2-0.1,0.7-0.3,0.9-0.1s0.2,0.6,0.1,0.7C77.5,35.3,76.9,35.4,76.7,34.9z"></path><path class="st21" d="M75.6,33.1c-0.2-0.2-0.1-0.6,0-0.7s0.5-0.3,0.6-0.1c0.1,0.1,0.2,0.6,0,0.8S75.8,33.3,75.6,33.1z"></path><path class="st21" d="M74.2,34.6c0,0,0.2-0.5,0.4-0.4s0.3,0.3,0.2,0.4C74.7,34.7,74.2,35,74.2,34.6z"></path><path class="st21" d="M73.6,35.6c0,0,0.2-0.5,0.5-0.5c0.3,0,0.5-0.1,0.4,0.1c-0.1,0.2-0.3,0.5-0.3,0.5C74.1,35.7,73.6,36,73.6,35.6z
	"></path><path class="st21" d="M72.6,35.3c0,0,0-0.4,0.3-0.5s0.5-0.2,0.6-0.2c0,0,0.1,0.1-0.1,0.3c-0.2,0.2-0.4,0.4-0.5,0.4
	C72.9,35.4,72.5,35.5,72.6,35.3z"></path><path class="st21" d="M74.8,37.6c0,0-0.1-0.7,0.2-0.4c0.4,0.2,0.7,0.2,0.5,0.4c-0.2,0.3-0.3,0.4-0.4,0.3
	C75.1,37.9,74.8,37.6,74.8,37.6z"></path><path class="st21" d="M76.4,40.7c0,0,0-0.6,0.1-0.7c0.1-0.1,0.4-0.2,0.4,0c0,0.2,0.1,0.4,0,0.5C76.9,40.7,76.6,41.1,76.4,40.7z"></path><path class="st21" d="M76.3,42.4c0,0-0.2-0.6,0.2-0.6c0.4,0,0.8,0.3,0.8,0.5c0,0.2,0,0.5-0.2,0.5c-0.2,0-0.5,0.1-0.6,0
	S76.3,42.4,76.3,42.4z"></path><path class="st21" d="M74.6,44.6c-0.2-0.3,0.4-0.4,0.8-0.3c0.4,0.1,0.9,0,0.6,0.4C75.8,45.1,74.9,45,74.6,44.6z"></path><path class="st21" d="M74.2,42.3c0.1-0.2,0.1-0.5,0.4-0.2c0.2,0.3,0.3,0.7,0.2,0.8S74.1,42.6,74.2,42.3z"></path><path class="st21" d="M74.9,41.2c0,0,0.2-0.3,0.3-0.4c0.1,0,0.2-0.3,0.3-0.2c0.1,0.1,0.3,0.1,0,0.3S74.9,41.3,74.9,41.2z"></path><path class="st21" d="M75.5,41.4c0,0,0-0.3,0.3-0.3c0.3-0.1,0.3,0.3,0.2,0.4S75.6,41.5,75.5,41.4z"></path><path class="st21" d="M74.7,40.4c0-0.3-0.4-0.5-0.2-0.7s0.3-0.3,0.4-0.1c0.1,0.2,0.1,0.4,0.1,0.5S74.7,40.4,74.7,40.4z"></path><path class="st21" d="M75.6,39.4c0,0,0.1,0.2,0.3,0.2c0.1,0,0.3-0.3,0.3-0.3L76,39.2L75.6,39.4z"></path><path class="st21" d="M73.9,40.9c0-0.1,0-0.6,0-0.6c0,0-0.3,0-0.4-0.1c-0.1-0.1-0.2-0.2,0.2-0.1c0.4,0.1,0.6,0.1,0.6,0.2
	s0,0.4-0.1,0.5S74,41.3,73.9,40.9z"></path><path class="st21" d="M73.5,42.7c0,0,0.2-0.3,0.3-0.5c0-0.2,0.2-0.3,0.2-0.3l0,0.4c0,0-0.2,0.1-0.2,0.2
	C73.7,42.6,73.5,42.7,73.5,42.7z"></path><path class="st21" d="M73.3,39.3c-0.1,0.1,1,0,0.9-0.1C74.1,39.1,73.5,39,73.3,39.3z"></path><path class="st21" d="M72.5,39c0,0-0.2-0.2,0-0.3c0.2-0.1,0.3-0.2,0.5,0C73.1,38.9,72.7,39.3,72.5,39z"></path><path class="st21" d="M72,38.2c-0.1-0.1-0.1-0.2,0.2-0.3c0.3-0.1,0.5,0,0.5,0.1C72.7,38.1,72.1,38.4,72,38.2z"></path><path class="st21" d="M71,38.2c0.1-0.2,0.3-0.9,0.3-0.9s-0.6,0-0.6,0.3S71,38.2,71,38.2z"></path><path class="st21" d="M73.1,44.5c0,0-0.2-0.5,0-0.6c0.1-0.2,0.2-0.5,0.3-0.2c0.1,0.3,0.1,0.7,0.1,0.8S73.2,44.7,73.1,44.5z"></path><path class="st21" d="M73.1,41.5c0,0.1,0.1,0.4,0.2,0.2c0.1-0.2,0.2-0.3,0-0.4C73.2,41.1,73.1,41.5,73.1,41.5z"></path><path class="st21" d="M73,40.8c0.1,0.1,0.3,0.1,0.3,0.1c0.1,0,0.1-0.2,0-0.3c-0.1,0-0.2-0.1-0.2-0.1C73,40.6,73,40.8,73,40.8z"></path><path class="st21" d="M72.4,41.1c0,0,0-0.4,0.2-0.2c0.2,0.2,0.3,0.4,0.3,0.5s0,0.4-0.1,0.3c-0.1,0,0,0-0.1-0.1
	C72.6,41.5,72.4,41.1,72.4,41.1z"></path><path class="st21" d="M72,41.9c0-0.1-0.3-0.4-0.2-0.5c0.1-0.1,0.4-0.3,0.5,0c0.1,0.3,0.2,0.4,0.1,0.7c-0.1,0.3-0.2,0.4-0.2,0.4
	L72,41.9z"></path><path class="st21" d="M71.2,42.1c0,0-0.3-0.4,0-0.4c0.2,0,0.5,0,0.5,0.3s0,0.4-0.1,0.5C71.6,42.5,71.3,42.3,71.2,42.1z"></path><path class="st21" d="M70.6,42.6c0,0-0.1-0.5,0-0.5c0.1-0.1,0.4-0.1,0.5,0.1s0.1,0.5,0.1,0.5S70.7,42.8,70.6,42.6z"></path><path class="st21" d="M69.7,42.6c0,0,0.2-0.2,0.3,0c0.2,0.2,0.4,0.5,0.2,0.5c-0.1,0-0.1,0.2-0.2,0.1C70,43.1,69.7,42.6,69.7,42.6z"></path><path class="st21" d="M71.5,39.3c0.1,0,0.7,0.2,0.8,0.1c0.1-0.1-0.1-0.3-0.2-0.3c-0.1,0-0.2-0.2-0.3-0.1S71.5,39.3,71.5,39.3z"></path><path class="st21" d="M70.8,39.6c-0.1-0.1,0.6,0,0.7,0s0.1,0.2,0,0.2S71,39.9,70.8,39.6z"></path><path class="st21" d="M70.3,40.4c0-0.1,0.1-0.2,0.3-0.3s0.4-0.2,0.4,0c0,0.2,0.1,0.3,0,0.3C71,40.4,70.3,40.4,70.3,40.4z"></path><path class="st21" d="M69.4,41.5c0,0,0.1,0,0.4,0s0.3-0.2,0.3-0.3c0,0-0.1,0-0.2,0C69.8,41.2,69.4,41.5,69.4,41.5z"></path><path class="st21" d="M69.4,40.4c0,0-0.3-0.4-0.4-0.6c-0.1-0.1-0.1-0.3,0-0.3c0.1,0.1,0.5,0.5,0.6,0.5c0.1,0,0.3,0,0.2,0.2
	S69.4,40.4,69.4,40.4z"></path><path class="st21" d="M68.9,40.7c0-0.2-0.2-0.5,0-0.3c0.2,0.2,0.2,0.4,0.2,0.4L68.9,40.7z"></path><path class="st21" d="M69.2,38.9c0-0.2,0.4-0.2,0.6,0c0.2,0.2,0.3,0.4,0.2,0.5C69.9,39.4,69.2,39.2,69.2,38.9z"></path><path class="st21" d="M72.3,45.1c0,0-0.1-0.5,0-0.7s0.2-0.2,0.2,0c0,0.2,0,0.6,0,0.6C72.5,45,72.3,45.1,72.3,45.1z"></path><path class="st21" d="M71.6,45.2c0,0-0.1-0.7,0-0.8c0.1,0,0.2,0,0.2,0.2S71.7,45.4,71.6,45.2z"></path><path class="st21" d="M71,45.1c0-0.1-0.1-0.8-0.1-0.9c0,0,0.2-0.1,0.2,0.1c0,0.2,0.1,0.4,0.1,0.6s0,0.3,0,0.3S71.1,45.5,71,45.1z"></path><path class="st21" d="M67.5,40.1c0,0,0-0.2-0.1-0.3c-0.1,0-0.2,0-0.2,0L67.5,40.1z"></path><path class="st21" d="M66.6,39.3c0-0.1,0.1-0.2,0.2-0.1c0.1,0,0.2,0.4,0.2,0.5C67,39.7,66.6,39.5,66.6,39.3z"></path><path class="st21" d="M67.9,39.6c0-0.1-0.1-0.3,0-0.3s0.3,0.1,0.3,0.1s0.1,0.1,0.1,0.1l-0.1,0.3L67.9,39.6z"></path><path class="st21" d="M67.2,38.5c-0.1,0-0.3,0.1-0.3,0.1c0-0.1,0-0.2,0.1-0.3c0.1-0.1,0.2-0.1,0.3,0C67.5,38.4,67.2,38.5,67.2,38.5z
	"></path><path class="st21" d="M67.3,37.7c0.1,0,0.4-0.1,0.4-0.1c0-0.1-0.1-0.2-0.2-0.1c-0.1,0-0.3,0.2-0.3,0.2L67.3,37.7z"></path><path class="st21" d="M67.3,37.1c0,0-0.4,0.2-0.2,0c0.1-0.2,0.4-0.4,0.5-0.3c0.1,0,0.1,0.1,0.1,0.1C67.6,37,67.3,37.1,67.3,37.1z"></path><path class="st21" d="M66.8,36.7c0.1,0,0.1-0.2,0.1-0.2C66.8,36.5,66.8,36.7,66.8,36.7z"></path><path class="st21" d="M67.5,36.4c0,0,0.2,0.1,0.4,0.1c0.2,0,0.1-0.2,0.1-0.2c0,0,0.1-0.1-0.1-0.1C67.7,36.3,67.5,36.4,67.5,36.4z"></path><path class="st21" d="M67.1,35.9c0.1,0,0.3,0,0.3-0.1c-0.1-0.1-0.1-0.1-0.2-0.1C67,35.8,66.7,35.9,67.1,35.9z"></path><path class="st21" d="M67.8,35.6c0.1,0.1,0.6,0.1,0.6,0c0,0-0.2-0.4-0.2-0.4S67.4,35.2,67.8,35.6z"></path><path class="st21" d="M67.2,34.6c0,0,0.4,0,0.4-0.1c0-0.1,0-0.1-0.1-0.2c-0.1,0-0.5-0.1-0.6,0.1C66.8,34.6,67.2,34.7,67.2,34.6"></path><path class="st21" d="M71.7,47.9c0,0,0.3,0.1,0.4-0.1c0-0.2-0.1-0.5-0.2-0.5S71.4,47.4,71.7,47.9z"></path><path class="st21" d="M71.2,47.6c0.1,0,0.2-0.2,0.1-0.3s-0.1-0.1-0.2,0C71.1,47.3,71.2,47.6,71.2,47.6z"></path><path class="st21" d="M72.4,48.1c0,0,0.2-0.3,0.4-0.2s0,0.3,0,0.3S72.2,48.5,72.4,48.1z"></path><path class="st21" d="M73.2,47.8c0-0.1-0.1-0.5,0.1-0.3s0.4,0.3,0.3,0.4S73.3,48.3,73.2,47.8z"></path><path class="st21" d="M74.1,49.1c0.2,0.1,0.4,0,0.3-0.1c-0.1-0.1-0.2-0.2-0.2-0.2S73.8,48.9,74.1,49.1z"></path><path class="st21" d="M73.7,48.2c0-0.1,0.1-0.2,0.3-0.3c0.1-0.1,0.2-0.3,0.2-0.1S73.8,48.5,73.7,48.2z"></path><path class="st21" d="M74.6,48.5c0-0.2,0.1-0.4,0.2-0.4c0.1,0,0.1,0.2,0.1,0.2s0.1,0.1,0.1-0.1s-0.1-0.2,0.1-0.1
	c0.1,0.1,0.2,0.5,0.2,0.5c0,0.1-0.1,0.3-0.2,0.1c0-0.2-0.1-0.3-0.1-0.3s-0.1,0.1-0.2,0.1c-0.1,0-0.3,0.1-0.3,0.1"></path><path class="st21" d="M75.4,48.9c0-0.1,0.2-0.4,0.3-0.5c0.1-0.1,0.2-0.1,0.2,0s-0.1,0.3-0.1,0.3C75.7,48.7,75.4,48.9,75.4,48.9z"></path><path class="st21" d="M71.8,47.1c0.2-0.1,0.2-0.4,0.1-0.4c-0.1,0-0.2,0.1-0.2,0.1c-0.1,0-0.2,0.1-0.2,0.1
	C71.6,47.1,71.8,47.1,71.8,47.1z"></path><path class="st21" d="M72.1,46.4c0.1-0.1,0.3,0,0.3,0.1c0,0.1-0.1,0.2-0.1,0.2L72.1,46.4z"></path><path class="st21" d="M71.3,46.6c0,0,0.2-0.2,0.2-0.2s0-0.2-0.1-0.1C71.2,46.4,71.3,46.6,71.3,46.6z"></path><path class="st21" d="M73.7,46.9c0.1,0.1,0.3-0.1,0.2-0.1s-0.1-0.1-0.2-0.1S73.7,46.9,73.7,46.9z"></path></g></svg>