<svg id="Layer_1" data-name="Layer 1" xmlns="http://www.w3.org/2000/svg" viewBox="0 0 108 108">
  <defs>
    <style>
      .cls-1 {
        fill: #ffc2d9;
      }

      .cls-2 {
        fill: #ffd2e3;
      }

      .cls-3 {
        fill: #ffeef5;
      }

      .cls-4 {
        fill: #f7a6c1;
      }

      .cls-5 {
        fill: #fc709b;
      }

      .cls-6 {
        fill: #ff4881;
      }

      .cls-7 {
        fill: #79ff79;
      }

      .cls-8 {
        fill: #29e088;
      }

      .cls-9 {
        fill: #00893e;
      }

      .cls-10 {
        fill: #fe255f;
      }
    </style>
  </defs>
  <g>
    <path class="cls-1" d="M62.79,51.1c-.31-6.7-6.91-25.23-8.86-30.59a.58.58,0,0,0-1.08,0C50.9,25.87,44.29,44.4,44,51.1c-.27,5.77,4,11.24,6.29,13.72a4.18,4.18,0,0,0,6.24,0C58.79,62.34,63.06,56.87,62.79,51.1Z"/>
    <path class="cls-2" d="M50.15,44.37c1.12-4.5,2.84-9.94,4.42-14.62A2.34,2.34,0,0,0,53.44,27l0,0a2.33,2.33,0,0,0-3.28,1.31c-1.56,4.59-3.37,10.18-4.62,14.93A2.38,2.38,0,0,0,47,46l0,0A2.37,2.37,0,0,0,50.15,44.37Z"/>
    <path class="cls-3" d="M47.9,35c-.41,1.29-.81,2.59-1.19,3.87a2.32,2.32,0,0,0,1.7,2.92l.11,0a2.32,2.32,0,0,0,2.76-1.62c.36-1.24.74-2.51,1.13-3.79a2.32,2.32,0,0,0-1.53-2.9l-.05,0A2.33,2.33,0,0,0,47.9,35Z"/>
    <path class="cls-4" d="M56.51,64.82a4.49,4.49,0,0,1-1.43,1,4.11,4.11,0,0,1-1.69.36,4.22,4.22,0,0,1-3.12-1.4,31.09,31.09,0,0,1-3.08-3.93C53.47,57.72,58,48.57,58,37.78a36.58,36.58,0,0,0-.95-8.33C59.61,37,62.58,46.66,62.79,51.1,63.06,56.87,58.79,62.34,56.51,64.82Z"/>
    <path class="cls-5" d="M56.51,64.82a4.49,4.49,0,0,1-1.43,1,4.11,4.11,0,0,1-1.69.36,4.22,4.22,0,0,1-3.12-1.4,31.62,31.62,0,0,1-2.55-3.16,15.26,15.26,0,0,0,13.91-15.2,14.75,14.75,0,0,0-.34-3.21,41.72,41.72,0,0,1,1.5,7.85c.27,5.77-4,11.24-6.28,13.72Z"/>
    <g>
      <path class="cls-2" d="M57.08,63.92c-.33,0,1.64-8.83,8.12-12.79l.65.78S61.22,55,61.22,59.29C61.22,62.51,61.44,64.4,57.08,63.92Z"/>
      <path class="cls-6" d="M62.73,52.94a7,7,0,0,0,2.37-4.31.28.28,0,0,1,.5-.14,1.64,1.64,0,0,1,.25,1.29,5.23,5.23,0,0,1,1.57-1.37.28.28,0,0,1,.4.36l-.88,2a1.65,1.65,0,0,1,1,0,.28.28,0,0,1,0,.55A6,6,0,0,0,66,52a1.47,1.47,0,0,1-.52.25,22.56,22.56,0,0,0-2.7.81.09.09,0,0,1-.09-.15Z"/>
    </g>
    <g>
      <path class="cls-2" d="M54.15,66.22c-.32.08-1.44-8.86,3.31-14.78l.88.52s-3.31,4.47-1.86,8.5c1.09,3,1.94,4.74-2.33,5.76Z"/>
      <path class="cls-1" d="M54.15,66.22c-.13,0-.39-1.41-.34-3.53a6.66,6.66,0,0,0,2.31-4.18,6.33,6.33,0,0,0,.36,2c1.09,3,1.94,4.74-2.33,5.76Z"/>
      <path class="cls-6" d="M55.75,54a6.94,6.94,0,0,0,.77-4.84.29.29,0,0,1,.43-.31A1.63,1.63,0,0,1,57.62,50a5.22,5.22,0,0,1,1-1.82.28.28,0,0,1,.5.2L59,50.54a1.71,1.71,0,0,1,1-.33.29.29,0,0,1,.16.53A5.87,5.87,0,0,0,58.56,52a1.42,1.42,0,0,1-.41.4,21.85,21.85,0,0,0-2.26,1.68.09.09,0,0,1-.14-.12Z"/>
    </g>
    <g>
      <path class="cls-2" d="M49.52,64.12c.31-.08-3-8.48-9.94-11.43l-.53.88s5,2.36,5.68,6.6c.48,3.18.54,5.09,4.79,4Z"/>
      <path class="cls-6" d="M42.29,54.11a7,7,0,0,1-3-3.9.28.28,0,0,0-.52-.06,1.62,1.62,0,0,0-.05,1.31A5.27,5.27,0,0,0,37,50.33a.29.29,0,0,0-.34.43l1.17,1.87a1.68,1.68,0,0,0-1,.18.29.29,0,0,0,.11.55,6,6,0,0,1,2,.35,1.59,1.59,0,0,0,.55.17,19.55,19.55,0,0,1,2.79.4.09.09,0,0,0,.07-.17Z"/>
    </g>
    <g>
      <path class="cls-2" d="M52.81,65.32c.32,0,.38-9-5-14.29l-.81.62s3.82,4.05,2.85,8.23c-.72,3.14-1.36,4.93,3,5.44Z"/>
      <path class="cls-1" d="M52.81,65.32c-3.63-.42-3.8-1.73-3.33-4a4.71,4.71,0,0,0,2.44-3.21c1.19,3.83,1.09,7.2.89,7.17Z"/>
      <path class="cls-6" d="M49.78,53.35a6.92,6.92,0,0,1-1.35-4.72.28.28,0,0,0-.46-.26,1.68,1.68,0,0,0-.53,1.2,5.42,5.42,0,0,0-1.22-1.69.29.29,0,0,0-.47.27l.4,2.17a1.71,1.71,0,0,0-1-.21.29.29,0,0,0-.1.55,5.8,5.8,0,0,1,1.72,1.07,1.52,1.52,0,0,0,.45.35,22.28,22.28,0,0,1,2.45,1.4.09.09,0,0,0,.13-.13Z"/>
    </g>
    <g>
      <path class="cls-7" d="M55.77,67.5H52.23s-.06,11.76-4.55,20.07a.79.79,0,0,0,.69,1.17h4.45a1.58,1.58,0,0,0,1.55-1.24c2.75-12.2,1.4-20,1.4-20Z"/>
      <path class="cls-8" d="M54.37,87.5a1.58,1.58,0,0,1-1.55,1.24H48.37a.79.79,0,0,1-.69-1.17c.31-.57.59-1.15.86-1.74,4-2,6.75-6.53,6.75-11.86a14.47,14.47,0,0,0-1.5-6.47h2s1.35,7.8-1.4,20Z"/>
      <g>
        <path class="cls-9" d="M55.29,69.75c0,.27-1.41.48-2.26.48S52,70,52,69.75s.24-.47,1.08-.47S55.29,69.49,55.29,69.75Z"/>
        <path class="cls-9" d="M55.13,74.11c0,.28-1.53.51-2.44.51s-1.17-.23-1.17-.51.25-.52,1.17-.52S55.13,73.82,55.13,74.11Z"/>
        <path class="cls-9" d="M52.31,76.58c0,.3,1.61.54,2.58.54s1.22-.24,1.22-.54S55.85,76,54.89,76,52.31,76.28,52.31,76.58Z"/>
        <path class="cls-9" d="M52.94,72c0,.26,1.42.48,2.27.48s1.08-.22,1.08-.48-.24-.48-1.08-.48-2.27.21-2.27.48Z"/>
        <path class="cls-9" d="M54.42,78.87c0,.3-1.61.54-2.57.54s-1.23-.24-1.23-.54.26-.55,1.23-.55S54.42,78.57,54.42,78.87Z"/>
        <path class="cls-9" d="M53.62,83.5c0,.3-1.89.54-3,.54s-1.38-.24-1.38-.54S49.47,83,50.6,83s3,.24,3,.54Z"/>
        <path class="cls-9" d="M50.42,86.09c0,.3,1.89.55,3,.55s1.38-.25,1.38-.55-.26-.54-1.38-.54S50.42,85.79,50.42,86.09Z"/>
        <path class="cls-9" d="M51.58,81.18c0,.28,1.75.51,2.8.51s1.28-.23,1.28-.51-.24-.5-1.28-.5S51.58,80.91,51.58,81.18Z"/>
      </g>
      <path class="cls-6" d="M53.39,67.5s.64-6.37,6.29-6.37c5.13,0,22.74-2.4,29.9-10.79a.66.66,0,0,1,1.15.59c-1.62,6.31-6.63,19.22-20.36,17.41-9.05-1.19-12.57-4.84-14.6-.84Z"/>
    </g>
    <path class="cls-10" d="M89.18,55.68c-2.61,6.41-8,14.09-18.81,12.66-9.05-1.19-12.57-4.84-14.6-.84H53.39s.62-6.2,6.07-6.37a19.57,19.57,0,0,0,29.72-5.45Z"/>
    <path class="cls-5" d="M54.61,67.5s-.64-6.37-6.29-6.37c-5.13,0-22.74-2.4-29.9-10.79a.66.66,0,0,0-1.15.59c1.62,6.31,6.63,19.22,20.36,17.41,9-1.19,12.57-4.84,14.6-.84Z"/>
    <path class="cls-6" d="M54.61,67.5H52.23c-2-4-5.55-.35-14.6.84a15.43,15.43,0,0,1-12.36-3.29,15.57,15.57,0,0,0,6.51,1.4,15,15,0,0,0,11.9-5.67,38.63,38.63,0,0,0,4.64.35C54,61.13,54.61,67.5,54.61,67.5Z"/>
    <path class="cls-4" d="M37,59.61a47.34,47.34,0,0,1-13.4-5,1.77,1.77,0,0,0-2.39.54l0,0a1.77,1.77,0,0,0,.51,2.47A46.2,46.2,0,0,0,36.24,63.2a1.82,1.82,0,0,0,2.21-1.7v0A1.83,1.83,0,0,0,37,59.61Z"/>
    <path class="cls-1" d="M24.59,57l0,0a1.81,1.81,0,0,0,.76,2.61A44.32,44.32,0,0,0,31,61.79a1.82,1.82,0,0,0,2.32-1.34v0a1.83,1.83,0,0,0-1.23-2.15,45.87,45.87,0,0,1-5.19-2,1.82,1.82,0,0,0-2.3.68Z"/>
    <path class="cls-5" d="M52.25,67.5h0a.8.8,0,0,0-.08-.16A.86.86,0,0,1,52.25,67.5Z"/>
    <path class="cls-5" d="M77.48,57.75a65.06,65.06,0,0,1-11.73,2.84,1.63,1.63,0,0,0-1.35,2v0a1.64,1.64,0,0,0,1.83,1.24A64,64,0,0,0,78.62,61a1.68,1.68,0,0,0,1-2.26v0A1.68,1.68,0,0,0,77.48,57.75Z"/>
    <path class="cls-4" d="M72.45,59.26c-1.19.3-2.35.55-3.47.77a1.68,1.68,0,0,0-1.24,2.25l0,0a1.67,1.67,0,0,0,1.87,1c1.17-.22,2.4-.49,3.65-.8a1.67,1.67,0,0,0,1.19-2.15v0a1.67,1.67,0,0,0-2-1.11Z"/>
  </g>
</svg>
