<svg id="Layer_1" data-name="Layer 1" xmlns="http://www.w3.org/2000/svg" viewBox="0 0 108 108">
  <defs>
    <style>
      .cls-1 {
        fill: #fff4f4;
      }

      .cls-2 {
        fill: #f6efea;
      }

      .cls-3 {
        fill: #fdbf00;
      }

      .cls-4 {
        fill: #eee1dc;
      }

      .cls-5 {
        fill: #ff8856;
      }
    </style>
  </defs>
  <g>
    <path class="cls-1" d="M54.15,54.61A2.2,2.2,0,0,1,52,52.41V19.3a2.2,2.2,0,1,1,4.39,0V52.41A2.2,2.2,0,0,1,54.15,54.61Z"/>
    <path class="cls-2" d="M54.15,17.1V54.61a2.2,2.2,0,0,0,2.2-2.2V19.3A2.2,2.2,0,0,0,54.15,17.1Z"/>
    <path class="cls-2" d="M89.46,56.8H56.35a2.2,2.2,0,1,1,0-4.39H89.46a2.2,2.2,0,1,1,0,4.39Z"/>
    <path class="cls-1" d="M54.15,92.11A2.2,2.2,0,0,1,52,89.91V56.8a2.2,2.2,0,0,1,4.39,0V89.91A2.2,2.2,0,0,1,54.15,92.11Z"/>
    <path class="cls-2" d="M54.15,54.61v37.5a2.2,2.2,0,0,0,2.2-2.2V56.8A2.19,2.19,0,0,0,54.15,54.61Z"/>
    <path class="cls-1" d="M52,56.8H18.85a2.2,2.2,0,1,1,0-4.39H52a2.2,2.2,0,0,1,0,4.39Z"/>
    <path class="cls-2" d="M55.71,55.25a2.19,2.19,0,0,1-1.56-.64,2.22,2.22,0,0,1,0-3.11L77.56,28.09a2.2,2.2,0,1,1,3.11,3.11L57.26,54.61a2.18,2.18,0,0,1-1.55.64Z"/>
    <path class="cls-2" d="M79.12,81.77a2.21,2.21,0,0,1-1.56-.65L54.15,57.71a2.2,2.2,0,1,1,3.11-3.1L80.67,78a2.2,2.2,0,0,1-1.55,3.75Z"/>
    <path class="cls-1" d="M29.19,81.77A2.2,2.2,0,0,1,27.64,78L51.05,54.61a2.19,2.19,0,0,1,3.1,3.1L30.74,81.12A2.19,2.19,0,0,1,29.19,81.77Z"/>
    <path class="cls-1" d="M52.6,55.25a2.18,2.18,0,0,1-1.55-.64L27.64,31.2a2.2,2.2,0,1,1,3.1-3.11L54.15,51.5a2.2,2.2,0,0,1,0,3.11,2.16,2.16,0,0,1-1.55.64Z"/>
    <path class="cls-2" d="M55,54.77a2.28,2.28,0,0,1-.84-.16A2.19,2.19,0,0,1,53,51.74L65.54,21.12a2.2,2.2,0,1,1,4.06,1.67L57,53.41A2.2,2.2,0,0,1,55,54.77Z"/>
    <path class="cls-2" d="M86.81,70.22a2.1,2.1,0,0,1-.84-.17L55.35,57.47A2.2,2.2,0,1,1,57,53.41L87.64,66a2.2,2.2,0,0,1-.83,4.23Z"/>
    <path class="cls-1" d="M40.74,89.46a2.28,2.28,0,0,1-.84-.16,2.2,2.2,0,0,1-1.19-2.87L51.29,55.8a2.2,2.2,0,0,1,4.06,1.67L42.77,88.1A2.2,2.2,0,0,1,40.74,89.46Z"/>
    <path class="cls-1" d="M52.12,56a2,2,0,0,1-.83-.17L20.66,43.22a2.2,2.2,0,0,1,1.67-4.06L53,51.74A2.2,2.2,0,0,1,52.12,56Z"/>
    <path class="cls-2" d="M56.18,56a2.2,2.2,0,0,1-.85-4.23L85.88,39A2.2,2.2,0,1,1,87.58,43L57,55.79A2.34,2.34,0,0,1,56.18,56Z"/>
    <path class="cls-2" d="M67.76,89.38a2.2,2.2,0,0,1-2-1.35L53,57.48A2.2,2.2,0,0,1,57,55.79L69.79,86.34a2.2,2.2,0,0,1-1.18,2.87,2.15,2.15,0,0,1-.85.17Z"/>
    <path class="cls-1" d="M21.58,70.41a2.2,2.2,0,0,1-.85-4.23L51.28,53.43a2.19,2.19,0,1,1,1.69,4L22.42,70.24A2.07,2.07,0,0,1,21.58,70.41Z"/>
    <path class="cls-1" d="M53.31,54.78a2.2,2.2,0,0,1-2-1.35L38.52,22.88a2.2,2.2,0,0,1,4.06-1.7L55.33,51.73a2.2,2.2,0,0,1-1.18,2.88,2.25,2.25,0,0,1-.84.17Z"/>
    <path class="cls-3" d="M54.15,67.13A12.53,12.53,0,1,1,66.68,54.61,12.54,12.54,0,0,1,54.15,67.13Z"/>
    <path class="cls-2" d="M54.15,25.18a8,8,0,0,1-7.49-5.09,2.2,2.2,0,0,1,4.09-1.62,3.66,3.66,0,0,0,6.8,0,2.2,2.2,0,1,1,4.07,1.66A8,8,0,0,1,54.15,25.18Z"/>
    <path class="cls-4" d="M89.43,62.23a2.19,2.19,0,0,1-.83-.16,8.05,8.05,0,0,1,.07-15,2.19,2.19,0,0,1,1.62,4.08,3.66,3.66,0,0,0,0,6.8,2.2,2.2,0,0,1-.83,4.23Z"/>
    <path class="cls-2" d="M59.6,92.13a2.2,2.2,0,0,1-2-1.39,3.67,3.67,0,0,0-6.8,0,2.2,2.2,0,1,1-4.07-1.65,8.05,8.05,0,0,1,15,.06A2.19,2.19,0,0,1,60.41,92,2.09,2.09,0,0,1,59.6,92.13Z"/>
    <path class="cls-2" d="M18.83,62.25A2.2,2.2,0,0,1,18,58a3.67,3.67,0,0,0,0-6.8,2.2,2.2,0,1,1,1.65-4.07,8.06,8.06,0,0,1-.06,15A2.32,2.32,0,0,1,18.83,62.25Z"/>
    <path class="cls-4" d="M80.65,36.17a8.07,8.07,0,0,1-7.39-11.26,2.2,2.2,0,1,1,4,1.74,3.66,3.66,0,0,0,4.78,4.83,2.2,2.2,0,1,1,1.71,4.05A8.09,8.09,0,0,1,80.65,36.17Z"/>
    <path class="cls-4" d="M75.26,85.59a2.19,2.19,0,0,1-2-1.35A8.05,8.05,0,0,1,83.85,73.71a2.2,2.2,0,0,1-1.74,4,3.67,3.67,0,0,0-4.83,4.79,2.18,2.18,0,0,1-1.17,2.87A2.09,2.09,0,0,1,75.26,85.59Z"/>
    <path class="cls-2" d="M33,85.63a2.06,2.06,0,0,1-.87-.18A2.19,2.19,0,0,1,31,82.56a3.66,3.66,0,0,0-4.78-4.82,2.2,2.2,0,0,1-1.71-4A8.06,8.06,0,0,1,35.05,84.31a2.2,2.2,0,0,1-2,1.32Z"/>
    <path class="cls-2" d="M27.67,36.17a8.12,8.12,0,0,1-3.22-.67,2.2,2.2,0,0,1,1.75-4A3.66,3.66,0,0,0,31,26.68,2.2,2.2,0,0,1,35.07,25a8.06,8.06,0,0,1-7.4,11.2Z"/>
    <path class="cls-4" d="M68.41,28a8.13,8.13,0,0,1-3.08-.61,8,8,0,0,1-5-7.55,2.2,2.2,0,1,1,4.39.05A3.67,3.67,0,0,0,71,22.5a2.2,2.2,0,1,1,3.14,3.08A8,8,0,0,1,68.41,28Z"/>
    <path class="cls-4" d="M84.72,75.23a2.21,2.21,0,0,1-1.54-.63,8.06,8.06,0,0,1,5.64-13.81h.1a2.2,2.2,0,0,1,0,4.4h-.05a3.66,3.66,0,0,0-2.56,6.27,2.2,2.2,0,0,1-1.54,3.77Z"/>
    <path class="cls-2" d="M45.77,91.55h0a2.21,2.21,0,0,1-2.17-2.23,3.66,3.66,0,0,0-6.27-2.61,2.2,2.2,0,0,1-3.14-3.07A8.05,8.05,0,0,1,48,89.38a2.21,2.21,0,0,1-2.2,2.17Z"/>
    <path class="cls-2" d="M19.49,48.42h-.11A2.2,2.2,0,1,1,19.44,44a3.67,3.67,0,0,0,2.61-6.28,2.2,2.2,0,0,1,3.07-3.14,8.05,8.05,0,0,1-5.63,13.81Z"/>
    <path class="cls-4" d="M88.74,48.22a8.06,8.06,0,0,1-5.63-13.83,2.2,2.2,0,0,1,3.07,3.15,3.66,3.66,0,0,0,2.56,6.28h.06a2.2,2.2,0,0,1,0,4.4Z"/>
    <path class="cls-4" d="M62.74,91.45a2.2,2.2,0,0,1-2.2-2.18,8.06,8.06,0,0,1,13.83-5.7,2.2,2.2,0,0,1-3.15,3.07,3.66,3.66,0,0,0-6.28,2.59,2.21,2.21,0,0,1-2.18,2.22Z"/>
    <path class="cls-2" d="M23.66,75.44a2.2,2.2,0,0,1-1.54-3.77,3.66,3.66,0,0,0-2.55-6.28h-.06a2.2,2.2,0,0,1,0-4.4h.08a8.06,8.06,0,0,1,5.62,13.83A2.16,2.16,0,0,1,23.66,75.44Z"/>
    <path class="cls-2" d="M39.69,28.08a8,8,0,0,1-5.75-2.43,2.2,2.2,0,1,1,3.15-3.07A3.66,3.66,0,0,0,43.37,20a2.2,2.2,0,1,1,4.4,0,8,8,0,0,1-5,7.51A7.94,7.94,0,0,1,39.69,28.08Z"/>
    <path class="cls-4" d="M60.41,17.29a2.2,2.2,0,0,0-2.86,1.21,3.66,3.66,0,0,1-3.4,2.29v4.39a8,8,0,0,0,7.47-5,2.21,2.21,0,0,0-1.21-2.87Z"/>
    <path class="cls-5" d="M54.15,42.08v25h0a12.53,12.53,0,1,0,0-25Z"/>
    <path class="cls-4" d="M61.64,89.12A8,8,0,0,0,54.15,84v4.4a3.64,3.64,0,0,1,3.41,2.31,2.2,2.2,0,0,0,2,1.39,2.09,2.09,0,0,0,.81-.16,2.19,2.19,0,0,0,1.23-2.85Z"/>
  </g>
</svg>
