<?xml version="1.0" encoding="utf-8"?>
<svg id="Layer_1" data-name="Layer 1" viewBox="0 0 108 108" xmlns="http://www.w3.org/2000/svg">
  <defs>
    <style>
      .cls-1 {
        fill: #fffae6;
      }

      .cls-2 {
        fill: #fff7c7;
      }

      .cls-3 {
        fill: #fff370;
      }

      .cls-4 {
        fill: #ffe059;
      }

      .cls-5 {
        fill: #ffc751;
      }

      .cls-6 {
        fill: #ffaf40;
      }
    </style>
  </defs>
  <g>
    <path class="cls-1" d="M 28.2 61 C 28.836 59.861 28.497 58.425 27.42 57.69 C 25.535 56.476 24.071 54.708 23.23 52.63 C 23.18 52.5 23.13 52.35 23.08 52.19 C 22.696 50.963 21.453 50.218 20.19 50.46 C 18.707 50.738 17.799 52.25 18.25 53.69 C 18.33 53.94 18.41 54.17 18.48 54.38 C 19.694 57.451 21.828 60.07 24.59 61.88 C 25.819 62.702 27.488 62.295 28.2 61 Z"/>
    <path class="cls-2" d="M 62.05 23.2 C 60.072 21.787 58.004 20.505 55.86 19.36 C 54.7 18.731 53.3 18.731 52.14 19.36 C 50.013 20.507 47.962 21.789 46 23.2 C 41 27.15 37.78 35.94 41.83 45.47 C 43.479 48.873 45.604 52.025 48.14 54.83 C 51.249 58.45 56.851 58.45 59.96 54.83 C 62.496 52.025 64.621 48.873 66.27 45.47 C 70.27 35.94 67.07 27.14 62.05 23.2 Z"/>
    <path class="cls-3" d="M 66.22 45.47 C 64.571 48.873 62.446 52.025 59.91 54.83 C 56.801 58.45 51.199 58.45 48.09 54.83 C 46.714 53.236 45.429 51.567 44.24 49.83 C 58.065 48.902 65.702 33.356 57.986 21.847 C 57.43 21.018 56.806 20.236 56.12 19.51 C 58.176 20.607 60.157 21.84 62.05 23.2 C 67.07 27.15 70.27 35.94 66.22 45.47 Z"/>
    <path class="cls-4" d="M 60.07 31.62 C 58.582 30.55 57.021 29.585 55.4 28.73 C 54.531 28.24 53.469 28.24 52.6 28.73 C 50.979 29.585 49.418 30.55 47.93 31.62 C 44.14 34.62 41.72 41.23 44.78 48.43 C 46.02 51 47.623 53.377 49.54 55.49 C 51.883 58.228 56.117 58.228 58.46 55.49 C 60.377 53.377 61.98 51 63.22 48.43 C 66.28 41.23 63.86 34.6 60.07 31.62 Z"/>
    <path class="cls-5" d="M 63.22 48.43 C 61.98 51 60.377 53.377 58.46 55.49 C 56.117 58.228 51.883 58.228 49.54 55.49 C 47.695 53.443 46.131 51.16 44.89 48.7 C 45.5 48.777 46.115 48.814 46.73 48.81 C 55.506 48.755 62.156 40.87 60.73 32.21 C 64.11 35.42 66.06 41.68 63.19 48.43 L 63.22 48.43 Z"/>
    <path class="cls-2" d="M 84.56 39.08 C 86.515 40.522 88.373 42.092 90.12 43.78 C 91.083 44.686 91.517 46.021 91.27 47.32 C 90.851 49.713 90.269 52.075 89.53 54.39 C 87.33 60.39 79.96 66.15 69.64 65.24 C 65.897 64.727 62.246 63.68 58.8 62.13 C 54.389 60.301 52.652 54.966 55.14 50.89 C 57.037 47.607 59.394 44.614 62.14 42 C 69.96 35.2 79.31 35.53 84.61 39.08 L 84.56 39.08 Z"/>
    <path class="cls-3" d="M 91.27 47.32 C 90.851 49.713 90.269 52.075 89.53 54.39 C 87.33 60.39 79.96 66.15 69.64 65.24 C 65.897 64.727 62.246 63.68 58.8 62.13 C 54.389 60.301 52.652 54.966 55.14 50.89 C 55.62 50.11 56.14 49.32 56.65 48.53 C 63.351 58.929 78.796 58.174 84.451 47.171 C 85.539 45.053 86.144 42.72 86.22 40.34 C 87.57 41.43 89.04 42.78 90.12 43.78 C 91.083 44.686 91.517 46.021 91.27 47.32 Z"/>
    <path class="cls-4" d="M 77.16 43.56 C 78.634 44.653 80.037 45.839 81.36 47.11 C 82.088 47.792 82.413 48.801 82.22 49.78 C 81.906 51.587 81.471 53.371 80.92 55.12 C 79.25 59.64 73.69 63.99 65.92 63.31 C 63.088 62.932 60.324 62.154 57.71 61 C 54.374 59.597 53.086 55.541 55 52.47 C 56.416 49.997 58.181 47.74 60.24 45.77 C 66.14 40.63 73.24 40.88 77.24 43.56 L 77.16 43.56 Z"/>
    <path class="cls-3" d="M 62.45 47.35 C 63.198 48.393 64.61 48.707 65.73 48.08 C 67.194 47.248 68.846 46.804 70.53 46.79 C 71.863 46.756 73.178 47.103 74.32 47.79 L 74.63 48.02 C 75.634 48.771 77.035 48.678 77.93 47.8 C 79.014 46.725 78.91 44.943 77.71 44 L 77.16 43.61 C 73.82 41.38 68.36 40.83 63.21 43.69 C 61.911 44.415 61.529 46.107 62.39 47.32 L 62.45 47.4 L 62.45 47.35 Z"/>
    <path class="cls-2" d="M 73 41.92 C 71.292 41.59 69.538 41.59 67.83 41.92 C 66.235 42.224 65.34 43.936 66 45.42 C 66.442 46.563 67.636 47.227 68.84 47 C 69.397 46.894 69.963 46.84 70.53 46.84 C 71.037 46.841 71.542 46.887 72.04 46.98 C 73.282 47.218 74.509 46.506 74.92 45.31 C 75.492 43.827 74.566 42.192 73 41.92 Z"/>
    <path class="cls-5" d="M 82.05 50.64 C 81.767 52.155 81.39 53.652 80.92 55.12 C 79.25 59.64 73.69 63.99 65.92 63.31 C 63.088 62.932 60.324 62.154 57.71 61 C 54.374 59.597 53.086 55.541 55 52.47 C 55.65 51.4 56.38 50.28 57.16 49.22 C 63.13 57.51 75.218 58.198 82.09 50.64 L 82.05 50.64 Z"/>
    <path class="cls-2" d="M 81.89 79.64 C 81.122 81.945 80.204 84.196 79.14 86.38 C 78.58 87.575 77.449 88.401 76.14 88.57 C 73.735 88.909 71.309 89.086 68.88 89.1 C 62.5 88.86 54.74 83.64 52.41 73.53 C 51.742 69.812 51.604 66.017 52 62.26 C 52.386 57.505 56.917 54.21 61.56 55.31 C 65.258 56.088 68.827 57.388 72.16 59.17 C 81.05 64.51 83.62 73.5 81.88 79.64 L 81.89 79.64 Z"/>
    <path class="cls-4" d="M 75.34 74 C 74.761 75.741 74.066 77.442 73.26 79.09 C 72.834 79.985 71.983 80.602 71 80.73 C 69.185 80.988 67.354 81.121 65.52 81.13 C 60.7 81 54.84 77 53.08 69.38 C 52.583 66.571 52.485 63.706 52.79 60.87 C 53.079 57.282 56.498 54.797 60 55.63 C 62.792 56.213 65.486 57.193 68 58.54 C 74.7 62.54 76.65 69.35 75.33 73.99 L 75.34 74 Z"/>
    <path class="cls-2" d="M 54.23 57.92 L 38.28 57.92 C 37.439 58.286 36.62 58.704 35.83 59.17 C 26.94 64.51 24.37 73.5 26.11 79.64 C 26.878 81.945 27.796 84.196 28.86 86.38 C 29.417 87.577 30.55 88.404 31.86 88.57 C 34.265 88.909 36.691 89.086 39.12 89.1 C 45.5 88.86 53.26 83.64 55.59 73.53 C 56.258 69.812 56.396 66.017 56 62.26 C 55.876 60.666 55.261 59.15 54.24 57.92 L 54.23 57.92 Z"/>
    <path class="cls-3" d="M 55.6 73.53 C 53.27 83.64 45.51 88.86 39.13 89.1 C 36.701 89.086 34.275 88.909 31.87 88.57 C 30.56 88.404 29.427 87.577 28.87 86.38 C 28.32 85.2 27.61 83.64 27.02 82.17 C 39.2 86.955 51.993 76.76 50.047 63.819 C 49.734 61.743 49.041 59.743 48 57.92 L 54.21 57.92 C 55.242 59.146 55.868 60.663 56 62.26 C 56.4 66.017 56.265 69.811 55.6 73.53 Z"/>
    <path class="cls-4" d="M 54.14 57.92 L 41.14 57.92 C 40.74 58.12 40.35 58.32 39.99 58.54 C 33.28 62.54 31.34 69.35 32.66 73.99 C 33.24 75.73 33.931 77.43 34.73 79.08 C 35.167 79.972 36.017 80.59 37 80.73 C 38.815 80.988 40.646 81.121 42.48 81.13 C 47.3 81 53.16 77 54.91 69.38 C 55.415 66.572 55.517 63.706 55.21 60.87 C 55.124 59.809 54.755 58.79 54.14 57.92 Z"/>
    <path class="cls-5" d="M 54.91 69.38 C 53.16 77 47.3 81 42.48 81.13 C 40.65 81.121 38.822 80.987 37.01 80.73 C 36.454 80.66 35.93 80.43 35.5 80.07 C 46.237 79.142 51.943 66.938 45.771 58.104 C 45.728 58.042 45.684 57.981 45.64 57.92 L 54.14 57.92 C 54.755 58.79 55.124 59.809 55.21 60.87 C 55.517 63.706 55.415 66.572 54.91 69.38 Z"/>
    <path class="cls-2" d="M 53.56 57.53 C 52.827 59.613 51.241 61.286 49.2 62.13 C 45.754 63.68 42.103 64.727 38.36 65.24 C 28.04 66.15 20.67 60.38 18.46 54.39 C 17.729 52.074 17.151 49.712 16.73 47.32 C 16.48 46.021 16.914 44.684 17.88 43.78 C 19.627 42.092 21.485 40.522 23.44 39.08 C 27.44 36.4 33.77 35.55 40 38.24 C 40.184 40.733 40.786 43.177 41.78 45.47 C 43.427 48.871 45.552 52.02 48.09 54.82 C 49.466 56.434 51.443 57.413 53.56 57.53 Z"/>
    <path class="cls-3" d="M 53.55 57.53 C 52.824 59.615 51.241 61.289 49.2 62.13 C 45.754 63.68 42.103 64.727 38.36 65.24 C 36.466 65.414 34.559 65.354 32.68 65.06 C 43.53 59.614 44.415 44.465 34.274 37.792 C 33.585 37.339 32.861 36.94 32.11 36.6 C 34.826 36.588 37.514 37.147 40 38.24 C 40.193 40.732 40.797 43.176 41.79 45.47 C 43.437 48.871 45.562 52.02 48.1 54.82 C 49.471 56.429 51.44 57.408 53.55 57.53 Z"/>
    <path class="cls-4" d="M 53.56 57.53 C 53.01 59.101 51.817 60.362 50.28 61 C 47.679 62.168 44.924 62.959 42.1 63.35 C 34.31 64.03 28.75 59.68 27.1 55.16 C 26.549 53.411 26.114 51.627 25.8 49.82 C 25.607 48.841 25.932 47.832 26.66 47.15 C 27.983 45.879 29.386 44.693 30.86 43.6 C 33.767 41.779 37.284 41.203 40.62 42 C 40.915 43.172 41.303 44.319 41.78 45.43 C 43.427 48.831 45.552 51.98 48.09 54.78 C 49.466 56.394 51.443 57.373 53.56 57.49 L 53.56 57.53 Z"/>
    <path class="cls-5" d="M 53.55 57.53 C 53.007 59.101 51.816 60.364 50.28 61 C 47.679 62.168 44.924 62.959 42.1 63.35 C 40.127 63.534 38.137 63.371 36.22 62.87 C 43.549 59.744 44.745 49.857 38.374 45.073 C 36.568 43.717 34.368 42.989 32.11 43 L 31.85 43 C 34.569 41.661 37.669 41.307 40.62 42 C 40.915 43.172 41.303 44.319 41.78 45.43 C 43.427 48.831 45.552 51.98 48.09 54.78 C 49.463 56.391 51.436 57.37 53.55 57.49 L 53.55 57.53 Z"/>
    <circle class="cls-6" cx="54" cy="55.5" r="4.25"/>
    <circle class="cls-5" cx="53.07" cy="54.45" r="2.84"/>
    <path class="cls-3" d="M 81.89 79.64 C 81.122 81.945 80.204 84.196 79.14 86.38 C 78.58 87.575 77.449 88.401 76.14 88.57 C 73.735 88.909 71.309 89.086 68.88 89.1 C 65.439 88.882 62.159 87.568 59.52 85.35 C 69.326 88.017 78.987 80.642 79 70.48 C 78.894 67.931 78.272 65.431 77.17 63.13 C 82.03 68.31 83.3 74.85 81.94 79.64 L 81.89 79.64 Z"/>
    <path class="cls-3" d="M 47.32 46.82 C 48.379 46.314 48.954 45.148 48.71 44 C 47.87 39.93 49.51 36.85 51.08 35.61 C 51.19 35.53 51.43 35.35 51.9 35.04 C 53.544 33.966 53.408 31.516 51.656 30.629 C 50.843 30.218 49.873 30.272 49.11 30.77 C 48.702 31.026 48.309 31.303 47.93 31.6 C 44.75 34.1 42.53 39.17 43.71 45 C 44.042 46.631 45.818 47.516 47.32 46.8 L 47.32 46.82 Z"/>
    <path class="cls-2" d="M 49.44 34.5 C 48.337 33.102 46.171 33.258 45.28 34.8 C 44.225 36.635 43.602 38.688 43.46 40.8 C 43.215 42.748 45.171 44.23 46.98 43.468 C 47.918 43.073 48.531 42.158 48.54 41.14 C 48.633 39.814 49.022 38.525 49.68 37.37 C 50.207 36.475 50.123 35.347 49.47 34.54 L 49.44 34.5 Z"/>
    <path class="cls-1" d="M 43.51 33.54 C 44.579 33.542 45.534 32.874 45.9 31.87 C 46.538 30.06 47.646 28.451 49.11 27.21 C 49.49 26.91 50.04 26.54 50.73 26.1 C 51.867 25.383 52.241 23.9 51.58 22.73 C 50.871 21.471 49.253 21.061 48.03 21.83 C 47.25 22.32 46.53 22.83 46.03 23.24 C 43.814 25.056 42.139 27.447 41.19 30.15 C 40.577 31.817 41.814 33.585 43.59 33.58 L 43.51 33.54 Z"/>
    <path class="cls-3" d="M 37 76.13 L 37.05 76.13 C 37.876 75.447 38.184 74.318 37.82 73.31 C 37.68 72.95 37.62 72.73 37.59 72.63 C 37.439 72.053 37.375 71.456 37.4 70.86 C 37.44 69.924 36.954 69.044 36.14 68.58 C 34.493 67.632 32.427 68.771 32.35 70.67 C 32.277 71.789 32.381 72.913 32.66 74 C 32.75 74.32 32.87 74.68 33.01 75.06 C 33.607 76.706 35.659 77.256 37 76.13 Z"/>
    <path class="cls-3" d="M 37.07 60.45 C 37.549 59.224 36.999 57.835 35.81 57.27 C 35.393 57.074 34.992 56.847 34.61 56.59 C 33.392 55.817 32.439 54.69 31.88 53.36 C 31.738 52.967 31.618 52.566 31.52 52.16 C 31.027 50.259 28.661 49.604 27.261 50.981 C 26.611 51.62 26.351 52.558 26.58 53.44 C 26.74 54.07 26.91 54.65 27.08 55.12 C 28.313 58.138 30.663 60.563 33.64 61.89 C 34.965 62.501 36.53 61.863 37.05 60.5 L 37.07 60.45 Z"/>
    <path class="cls-2" d="M 33.58 55.78 C 33.286 55.507 33.012 55.213 32.76 54.9 C 32.096 54.04 30.954 53.705 29.93 54.07 C 28.293 54.672 27.713 56.691 28.78 58.07 C 29.182 58.574 29.62 59.049 30.09 59.49 C 31.526 60.833 33.877 60.119 34.323 58.204 C 34.529 57.315 34.246 56.383 33.58 55.76 L 33.58 55.78 Z"/>
    <path class="cls-3" d="M 63.3 75.38 C 62.505 74.989 61.773 74.48 61.13 73.87 C 60.307 73.083 59.06 72.94 58.08 73.52 C 56.626 74.363 56.396 76.369 57.62 77.52 C 58.64 78.523 59.811 79.36 61.09 80 C 62.587 80.727 64.367 79.835 64.68 78.2 C 64.891 77.077 64.321 75.953 63.29 75.46 L 63.3 75.38 Z"/>
    <path class="cls-5" d="M 75.34 74 C 74.761 75.741 74.066 77.442 73.26 79.09 C 72.834 79.985 71.983 80.602 71 80.73 C 69.185 80.988 67.354 81.121 65.52 81.13 C 65.239 81.121 64.959 81.097 64.68 81.06 C 73.288 74.078 71.457 60.46 61.31 56 C 63.642 56.549 65.891 57.403 68 58.54 C 74.7 62.54 76.65 69.35 75.33 73.99 L 75.34 74 Z"/>
  </g>
</svg>