<svg id="Layer_1" data-name="Layer 1" xmlns="http://www.w3.org/2000/svg" viewBox="0 0 108 108">
  <defs>
    <style>
      .cls-1 {
        fill: #f91ed0;
      }

      .cls-2 {
        fill: #ff5ad0;
      }

      .cls-3 {
        fill: #e800c7;
      }

      .cls-4 {
        fill: #ff97eb;
      }

      .cls-5 {
        fill: #ffc5f7;
      }

      .cls-6 {
        fill: #ff993a;
      }

      .cls-7 {
        fill: #ffe059;
      }

      .cls-8 {
        fill: #ffc751;
      }
    </style>
  </defs>
  <g>
    <g>
      <g>
        <g>
          <path class="cls-1" d="M59.27,19.92,58,21.24,54.52,47.13,51.08,21.24l-1.32-1.32a1.43,1.43,0,0,0-2.06,0c-5.65,6.14,4.19,32,4.19,32h5.25S67,26.11,61.33,20a1.43,1.43,0,0,0-2.06,0Z"/>
          <path class="cls-2" d="M55.1,52S62.68,22.76,58,19.22c-2.4-1.83-3.54,1-3.54,1s-1.11-2.87-3.51-1C46.35,22.76,53.93,52,53.93,52Z"/>
        </g>
        <g>
          <path class="cls-1" d="M49.76,92.38l1.32-1.31,3.44-25.9L58,91.07l1.31,1.31a1.42,1.42,0,0,0,2.06,0c5.65-6.15-4.19-32.05-4.19-32.05H51.89s-9.84,25.9-4.19,32.05a1.42,1.42,0,0,0,2.06,0Z"/>
          <path class="cls-2" d="M53.93,60.29S46.35,89.55,51,93.09c2.39,1.83,3.54-1,3.54-1s1.1,2.87,3.5,1c4.64-3.54-2.94-32.8-2.94-32.8Z"/>
        </g>
      </g>
      <g>
        <g>
          <path class="cls-1" d="M59.27,19.92,58,21.24a3.47,3.47,0,0,1-6.88,0l-1.32-1.32a1.43,1.43,0,0,0-2.06,0c-5.64,6.16,4.19,32,4.19,32h5.25S67,26.13,61.33,20A1.43,1.43,0,0,0,59.27,19.92Z"/>
          <path class="cls-3" d="M62.1,34.91a122.72,122.72,0,0,1-5,17.1H51.89s-1-2.7-2.23-6.58A15.51,15.51,0,0,0,62.1,34.91Z"/>
          <path class="cls-2" d="M55.1,52S62.68,22.76,58,19.22c-2.4-1.83-3.54,1-3.54,1s-1.11-2.87-3.51-1C46.35,22.76,53.93,52,53.93,52Z"/>
          <path class="cls-1" d="M52.25,44.82a15.72,15.72,0,0,0,5.14-2.9C56.26,47.56,55.1,52,55.1,52H53.93Z"/>
        </g>
        <g>
          <path class="cls-1" d="M49.76,92.38l1.32-1.31a3.47,3.47,0,0,1,6.88,0l1.31,1.31a1.42,1.42,0,0,0,2.06,0c5.64-6.15-4.19-32-4.19-32H51.89s-9.83,25.89-4.19,32A1.42,1.42,0,0,0,49.76,92.38Z"/>
          <path class="cls-3" d="M61.33,92.33a1.42,1.42,0,0,1-2.06,0L58,91.07a3.48,3.48,0,0,0-6.89,0l-1.31,1.31a1.42,1.42,0,0,1-2.06,0,6.18,6.18,0,0,1-1.36-2.8h.39A14.84,14.84,0,0,0,61.57,74.91c1.61,7,2.47,14.47-.24,17.42Z"/>
          <path class="cls-2" d="M53.93,60.29S46.35,89.55,51,93.09c2.39,1.83,3.54-1,3.54-1s1.1,2.87,3.5,1c4.64-3.54-2.94-32.8-2.94-32.8Z"/>
          <g>
            <path class="cls-3" d="M46.93,77.4a124.68,124.68,0,0,1,5-17.11h5.25s1,2.71,2.23,6.58A15.55,15.55,0,0,0,46.93,77.4Z"/>
            <path class="cls-1" d="M56.78,67.49a15.54,15.54,0,0,0-5.14,2.9c1.13-5.64,2.29-10.1,2.29-10.1H55.1Z"/>
          </g>
          <path class="cls-1" d="M58,93.09c-2.4,1.83-3.5-1-3.5-1s-1.15,2.87-3.54,1c-.8-.61-1.24-2-1.42-3.83a14.82,14.82,0,0,0,9.72-6.68C59.78,87.63,59.63,91.88,58,93.09Z"/>
        </g>
      </g>
      <path class="cls-4" d="M55.34,37a73.12,73.12,0,0,1-1.23-12,2.29,2.29,0,0,0-2.28-2.31h-.06a2.28,2.28,0,0,0-2.28,2.24,74.67,74.67,0,0,0,1.37,12.89A2.27,2.27,0,0,0,55.34,37Z"/>
      <path class="cls-5" d="M49.6,28.15c0,.32,0,.65.08,1a2.3,2.3,0,0,0,4.58-.38c0-.3,0-.59-.06-.88a2.3,2.3,0,0,0-2.3-2.16h0a2.29,2.29,0,0,0-2.29,2.45Z"/>
      <path class="cls-4" d="M51,73.68A102.87,102.87,0,0,0,49.6,84.15a2.3,2.3,0,1,0,4.6.3,91.67,91.67,0,0,1,1.29-10,2.27,2.27,0,0,0-1.81-2.62h0A2.28,2.28,0,0,0,51,73.68Z"/>
      <path class="cls-5" d="M54.53,80.87c.16-1.36.36-2.76.58-4.16A2.27,2.27,0,1,0,50.62,76c-.24,1.45-.46,2.9-.64,4.33a2.29,2.29,0,1,0,4.55.56Z"/>
    </g>
    <g>
      <g>
        <g>
          <path class="cls-1" d="M32.26,27.18V29L48.14,49.78,27.39,33.9H25.54a1.43,1.43,0,0,0-1.43,1.49c.35,8.33,25.62,19.69,25.62,19.69l3.71-3.71S42.09,26.1,33.75,25.75A1.43,1.43,0,0,0,32.26,27.18Z"/>
          <path class="cls-2" d="M52,52.81s-15.32-26-21.11-25.26c-3,.4-1.77,3.23-1.77,3.23s-2.81-1.24-3.21,1.74c-.78,5.8,25.26,21.12,25.26,21.12Z"/>
        </g>
        <g>
          <path class="cls-1" d="M76.77,85.13V83.28L60.89,62.53,81.64,78.41h1.85a1.43,1.43,0,0,0,1.43-1.49C84.57,68.58,59.3,57.23,59.3,57.23l-3.71,3.71S66.94,86.21,75.28,86.56a1.43,1.43,0,0,0,1.49-1.43Z"/>
          <path class="cls-2" d="M57,59.5s15.32,26,21.11,25.26c3-.4,1.77-3.24,1.77-3.24s2.81,1.24,3.21-1.74C83.9,74,57.86,58.66,57.86,58.66Z"/>
        </g>
      </g>
      <g>
        <g>
          <path class="cls-1" d="M32.26,27.18V29a3.47,3.47,0,0,1-4.87,4.87H25.54a1.43,1.43,0,0,0-1.43,1.49c.36,8.34,25.62,19.69,25.62,19.69l3.71-3.71S42.09,26.11,33.75,25.75A1.42,1.42,0,0,0,32.26,27.18Z"/>
          <path class="cls-3" d="M44.86,35.77a123.26,123.26,0,0,1,8.58,15.6l-3.71,3.71S47.09,53.89,43.5,52A15.52,15.52,0,0,0,44.86,35.77Z"/>
          <path class="cls-2" d="M52,52.81s-15.32-26-21.11-25.26c-3,.4-1.77,3.23-1.77,3.23s-2.81-1.24-3.21,1.74c-.78,5.8,25.26,21.12,25.26,21.12Z"/>
          <path class="cls-1" d="M44.89,49.74a15.43,15.43,0,0,0,1.59-5.68C49.67,48.85,52,52.81,52,52.81l-.83.83Z"/>
        </g>
        <g>
          <path class="cls-1" d="M76.77,85.13V83.28a3.47,3.47,0,0,1,4.87-4.87h1.85a1.43,1.43,0,0,0,1.43-1.49C84.56,68.58,59.3,57.23,59.3,57.23l-3.71,3.71S66.94,86.19,75.28,86.56A1.43,1.43,0,0,0,76.77,85.13Z"/>
          <path class="cls-3" d="M84.92,76.92a1.43,1.43,0,0,1-1.43,1.49H81.64a3.47,3.47,0,0,0-4.87,4.87v1.85a1.43,1.43,0,0,1-1.49,1.43,6.45,6.45,0,0,1-3-1l.29-.28a14.83,14.83,0,0,0,.14-20.83c6.09,3.8,12,8.49,12.16,12.49Z"/>
          <path class="cls-2" d="M57,59.5s15.32,26,21.11,25.26c3-.4,1.77-3.24,1.77-3.24s2.81,1.24,3.21-1.74C83.9,74,57.86,58.66,57.86,58.66Z"/>
          <g>
            <path class="cls-3" d="M64.17,76.54a124,124,0,0,1-8.58-15.6l3.71-3.71s2.64,1.18,6.23,3.07A15.54,15.54,0,0,0,64.17,76.54Z"/>
            <path class="cls-1" d="M64.14,62.57a15.43,15.43,0,0,0-1.59,5.68C59.36,63.46,57,59.5,57,59.5l.83-.83Z"/>
          </g>
          <path class="cls-1" d="M83.12,79.78c-.4,3-3.21,1.74-3.21,1.74s1.22,2.84-1.76,3.24c-1,.13-2.28-.52-3.71-1.71a14.85,14.85,0,0,0,2.15-11.59c3.91,3.23,6.8,6.34,6.53,8.32Z"/>
        </g>
      </g>
      <path class="cls-4" d="M41.53,42a73.47,73.47,0,0,1-9.39-7.64,2.28,2.28,0,0,0-3.24,0l0,.05a2.27,2.27,0,0,0,0,3.19,75.5,75.5,0,0,0,10.08,8.15A2.28,2.28,0,0,0,41.53,42Z"/>
      <path class="cls-5" d="M31.24,39.83l.74.63A2.3,2.3,0,0,0,35,37l-.67-.58a2.3,2.3,0,0,0-3.15.1h0a2.3,2.3,0,0,0,.11,3.36Z"/>
      <path class="cls-4" d="M64.43,71a102.36,102.36,0,0,0,6.4,8.39,2.3,2.3,0,1,0,3.47-3,95.42,95.42,0,0,1-6.13-8A2.28,2.28,0,0,0,65,67.85h0A2.28,2.28,0,0,0,64.43,71Z"/>
      <path class="cls-5" d="M72,73.62c-.85-1.08-1.69-2.21-2.53-3.36a2.28,2.28,0,1,0-3.69,2.67c.85,1.19,1.73,2.38,2.61,3.51A2.29,2.29,0,1,0,72,73.62Z"/>
    </g>
    <g>
      <g>
        <g>
          <path class="cls-1" d="M18.29,51.4l1.31,1.31,25.9,3.44L19.6,59.59,18.29,60.9a1.43,1.43,0,0,0,0,2.07c6.15,5.64,32-4.19,32-4.19V53.53s-25.89-9.84-32-4.19A1.42,1.42,0,0,0,18.29,51.4Z"/>
          <path class="cls-2" d="M50.37,55.57S21.12,48,17.58,52.63c-1.83,2.4,1,3.54,1,3.54s-2.87,1.11-1,3.5c3.54,4.65,32.79-2.93,32.79-2.93Z"/>
        </g>
        <g>
          <path class="cls-1" d="M90.74,60.9l-1.31-1.31-25.9-3.44,25.9-3.44,1.31-1.31a1.42,1.42,0,0,0,0-2.06c-6.15-5.65-32,4.19-32,4.19v5.25s25.89,9.83,32,4.19a1.43,1.43,0,0,0,0-2.07Z"/>
          <path class="cls-2" d="M58.66,56.74s29.25,7.58,32.79,2.93c1.83-2.39-1-3.54-1-3.54s2.87-1.1,1-3.5C87.91,48,58.66,55.57,58.66,55.57Z"/>
        </g>
      </g>
      <g>
        <g>
          <path class="cls-1" d="M18.29,51.4l1.31,1.31a3.47,3.47,0,0,1,0,6.88L18.29,60.9A1.42,1.42,0,0,0,18.34,63c6.15,5.64,32-4.19,32-4.19V53.53s-25.88-9.83-32-4.19A1.41,1.41,0,0,0,18.29,51.4Z"/>
          <path class="cls-3" d="M33.27,48.57a122.72,122.72,0,0,1,17.1,5v5.25s-2.7,1-6.57,2.23A15.54,15.54,0,0,0,33.27,48.57Z"/>
          <path class="cls-2" d="M50.37,55.57S21.12,48,17.58,52.63c-1.83,2.4,1,3.54,1,3.54s-2.87,1.11-1,3.5c3.54,4.65,32.79-2.93,32.79-2.93Z"/>
          <path class="cls-1" d="M43.18,58.42a15.72,15.72,0,0,0-2.9-5.14c5.64,1.13,10.1,2.29,10.1,2.29v1.17Z"/>
        </g>
        <g>
          <path class="cls-1" d="M90.74,60.9l-1.31-1.31a3.47,3.47,0,0,1,0-6.88l1.31-1.31a1.41,1.41,0,0,0,0-2.06c-6.15-5.64-32,4.19-32,4.19v5.25s25.88,9.83,32,4.19a1.42,1.42,0,0,0,0-2.07Z"/>
          <path class="cls-3" d="M90.69,49.34a1.41,1.41,0,0,1,0,2.06l-1.31,1.31a3.47,3.47,0,0,0,0,6.88l1.31,1.32a1.41,1.41,0,0,1,0,2.06,6.28,6.28,0,0,1-2.8,1.36c0-.13,0-.26,0-.39A14.84,14.84,0,0,0,73.27,49.1c7-1.62,14.48-2.47,17.42.24Z"/>
          <path class="cls-2" d="M58.66,56.74s29.25,7.58,32.79,2.93c1.83-2.39-1-3.54-1-3.54s2.87-1.1,1-3.5C87.91,48,58.66,55.57,58.66,55.57Z"/>
          <g>
            <path class="cls-3" d="M75.76,63.74a124.3,124.3,0,0,1-17.1-5V53.53s2.7-1,6.58-2.23A15.52,15.52,0,0,0,75.76,63.74Z"/>
            <path class="cls-1" d="M65.85,53.88A15.66,15.66,0,0,0,68.75,59c-5.64-1.14-10.09-2.29-10.09-2.29V55.57Z"/>
          </g>
          <path class="cls-1" d="M91.45,52.63c1.83,2.4-1,3.5-1,3.5s2.87,1.15,1,3.54c-.61.8-2,1.24-3.83,1.42a14.82,14.82,0,0,0-6.68-9.72c5-.49,9.3-.33,10.51,1.26Z"/>
        </g>
      </g>
      <path class="cls-4" d="M35.33,55.33a73.12,73.12,0,0,1-12,1.23A2.29,2.29,0,0,0,21,58.84v.06a2.28,2.28,0,0,0,2.25,2.28A75.66,75.66,0,0,0,36.1,59.81a2.27,2.27,0,0,0-.77-4.48Z"/>
      <path class="cls-5" d="M26.52,61.07l1-.08a2.3,2.3,0,0,0-.39-4.58l-.88.06a2.3,2.3,0,0,0-2.16,2.3h0A2.3,2.3,0,0,0,26.52,61.07Z"/>
      <path class="cls-4" d="M72,59.66a103.63,103.63,0,0,0,10.47,1.41,2.3,2.3,0,1,0,.3-4.6,91.67,91.67,0,0,1-10-1.29A2.27,2.27,0,0,0,70.23,57h0A2.28,2.28,0,0,0,72,59.66Z"/>
      <path class="cls-5" d="M79.23,56.14c-1.36-.16-2.76-.36-4.16-.59a2.28,2.28,0,0,0-.73,4.5c1.45.24,2.91.46,4.33.64a2.29,2.29,0,1,0,.56-4.55Z"/>
    </g>
    <g>
      <g>
        <g>
          <path class="cls-1" d="M25.54,78.41h1.85L48.14,62.53,32.26,83.28v1.85a1.44,1.44,0,0,0,1.49,1.43c8.34-.35,19.69-25.62,19.69-25.62l-3.71-3.71S24.46,68.58,24.11,76.92a1.44,1.44,0,0,0,1.43,1.49Z"/>
          <path class="cls-2" d="M51.17,58.67S25.13,74,25.91,79.78c.4,3,3.24,1.77,3.24,1.77s-1.25,2.81,1.74,3.21C36.68,85.54,52,59.5,52,59.5Z"/>
        </g>
        <g>
          <path class="cls-1" d="M83.49,33.9H81.64L60.89,49.78,76.77,29V27.18a1.43,1.43,0,0,0-1.49-1.43c-8.34.35-19.69,25.62-19.69,25.62l3.71,3.71S84.57,43.72,84.92,35.39a1.43,1.43,0,0,0-1.43-1.49Z"/>
          <path class="cls-2" d="M57.86,53.64s26-15.32,25.26-21.12c-.4-3-3.24-1.76-3.24-1.76s1.25-2.81-1.74-3.21C72.35,26.77,57,52.81,57,52.81Z"/>
        </g>
      </g>
      <g>
        <g>
          <path class="cls-1" d="M25.54,78.41h1.85a3.47,3.47,0,0,1,4.87,4.87v1.85a1.43,1.43,0,0,0,1.49,1.43c8.34-.37,19.69-25.62,19.69-25.62l-3.71-3.71S24.47,68.58,24.11,76.92A1.43,1.43,0,0,0,25.54,78.41Z"/>
          <path class="cls-3" d="M34.13,65.81a124,124,0,0,1,15.6-8.58l3.71,3.71s-1.18,2.64-3.07,6.23A15.52,15.52,0,0,0,34.13,65.81Z"/>
          <path class="cls-2" d="M51.17,58.67S25.13,74,25.91,79.78c.4,3,3.24,1.77,3.24,1.77s-1.25,2.81,1.74,3.21C36.68,85.54,52,59.5,52,59.5Z"/>
          <path class="cls-1" d="M48.1,65.78a15.43,15.43,0,0,0-5.68-1.59c4.79-3.19,8.75-5.52,8.75-5.52l.83.83Z"/>
        </g>
        <g>
          <path class="cls-1" d="M83.49,33.9H81.64A3.47,3.47,0,0,1,76.77,29V27.18a1.43,1.43,0,0,0-1.49-1.43c-8.34.36-19.69,25.62-19.69,25.62l3.71,3.71S84.56,43.73,84.92,35.39A1.43,1.43,0,0,0,83.49,33.9Z"/>
          <path class="cls-2" d="M57.86,53.64s26-15.32,25.26-21.12c-.4-3-3.24-1.76-3.24-1.76s1.25-2.81-1.74-3.21C72.35,26.77,57,52.81,57,52.81Z"/>
          <g>
            <path class="cls-3" d="M74.9,46.5a124,124,0,0,1-15.6,8.58l-3.71-3.71s1.19-2.64,3.07-6.23A15.54,15.54,0,0,0,74.9,46.5Z"/>
            <path class="cls-1" d="M60.93,46.53a15.43,15.43,0,0,0,5.68,1.59c-4.79,3.19-8.75,5.52-8.75,5.52L57,52.81Z"/>
          </g>
        </g>
      </g>
      <path class="cls-4" d="M40.37,69.14a74.34,74.34,0,0,1-7.65,9.39,2.27,2.27,0,0,0,0,3.24l0,0a2.28,2.28,0,0,0,3.2,0,76.28,76.28,0,0,0,8.14-10.08,2.27,2.27,0,0,0-3.71-2.62Z"/>
      <path class="cls-5" d="M38.19,79.43l.63-.74a2.3,2.3,0,0,0-3.51-3c-.19.23-.39.45-.58.67a2.3,2.3,0,0,0,.1,3.15h0a2.3,2.3,0,0,0,3.36-.11Z"/>
      <path class="cls-4" d="M69.39,46.23a99.86,99.86,0,0,0,8.4-6.4,2.3,2.3,0,1,0-3-3.46,95.42,95.42,0,0,1-8,6.13,2.28,2.28,0,0,0-.58,3.13v0a2.27,2.27,0,0,0,3.17.58Z"/>
      <path class="cls-5" d="M72,38.67c-1.08.84-2.21,1.69-3.35,2.53a2.27,2.27,0,1,0,2.66,3.69c1.19-.85,2.38-1.73,3.51-2.61A2.29,2.29,0,1,0,72,38.67Z"/>
    </g>
    <circle class="cls-6" cx="54.52" cy="56.15" r="4.08"/>
    <g>
      <circle class="cls-7" cx="56.99" cy="58.63" r="1.85"/>
      <circle class="cls-8" cx="54.52" cy="59.65" r="1.85"/>
      <circle class="cls-8" cx="58.01" cy="56.15" r="1.85"/>
      <circle class="cls-7" cx="56.99" cy="53.68" r="1.85"/>
      <circle class="cls-7" cx="52.04" cy="58.63" r="1.85"/>
      <circle class="cls-8" cx="54.52" cy="52.66" r="1.85"/>
      <circle class="cls-8" cx="51.02" cy="56.15" r="1.85"/>
      <circle class="cls-7" cx="52.04" cy="53.68" r="1.85"/>
    </g>
  </g>
</svg>
