<svg xmlns="http://www.w3.org/2000/svg" version="1.1" xmlns:xlink="http://www.w3.org/1999/xlink" xmlns:svgjs="http://svgjs.dev/svgjs" viewBox="0 0 108 108" style="" x="0" y="0"><style type="text/css">
	.st0{fill:none;stroke:#708530;stroke-width:1.1412;stroke-miterlimit:10;}
	.st1{fill:#A6C339;}
	.st2{fill:#007131;}
	.st3{fill:#5E6530;}
	.st4{fill:#566B2A;}
	.st5{fill:#92B83E;}
	.st6{fill:#7C773E;}
	.st7{fill:#A5C939;}
	.st8{fill:#729026;}
	.st9{fill:#72AA3A;}
	.st10{fill:#6B8823;}
	.st11{fill:#7A9829;}
	.st12{fill:#506326;}
	.st13{fill:#A69838;}
	.st14{fill:#FFFFFF;}
	.st15{fill:#F1F3FA;}
	.st16{fill:#F2F1DF;}
	.st17{fill:#F0EBDC;}
	.st18{fill:#E3E0E5;}
	.st19{fill:#D4D4C5;}
	.st20{fill:#577034;}
	.st21{fill:#AF960B;}
	.st22{fill:#8D7C25;}
	.st23{fill:none;stroke:#B1980B;stroke-width:0.1949;stroke-miterlimit:10;}
	.st24{fill:#B1980B;}
	.st25{fill:none;stroke:#A5CE85;stroke-width:0.1949;stroke-miterlimit:10;}
	.st26{fill:#ADD084;}
	.st27{fill:#DEDFE0;}
	.st28{fill:#CBC8BD;}
	.st29{fill:#E2E1D1;}
	.st30{fill:none;stroke:#B1980B;stroke-width:0.1357;stroke-miterlimit:10;}
	.st31{fill:none;stroke:#A5CE85;stroke-width:0.1357;stroke-miterlimit:10;}
	.st32{fill:none;stroke:#B1980B;stroke-width:0.2289;stroke-miterlimit:10;}
	.st33{fill:none;stroke:#A5CE85;stroke-width:0.2289;stroke-miterlimit:10;}
</style><g><path class="st0" d="M73.3,73.3c-0.1-2.7-1.2-7.5-1.9-11"></path><path class="st0" d="M80.6,69.9c-3.6-1.4-8.3-4.7-10.6-8.1"></path><path class="st0" d="M81.8,62.9c-4.1,2-7.6,4.2-10.4,0.2"></path><path class="st0" d="M65.2,55.1c-4.4-3.3-8.5-7.7-10.1-11.6"></path><path class="st0" d="M56.2,58.3c0.5-5.6-1.1-14.2-1.3-16"></path><path class="st0" d="M64,47.7c-3.4,1-5.3,2.7-8.6-2.9"></path><path class="st1" d="M67.3,78.6c-0.4-2.2-1.5-2.6,2.2-6.4l3.7-3.8c0,0,0.7,0.8,1.6,1.8c0.9,0.9,4.5,4.1,2.8,7.7
	c-1.6,3.7-3,5.6-3.6,6.2c-0.6,0.6-2,2.9-2.4,3.4"></path><path class="st2" d="M93.1,79.7c-2.7-1.1-6.5,1.3-9.7-1c-3.2-2.2-5.1-7.7-5.9-9.3c-0.8-1.6-2.1-0.9,1-1c3.1-0.1,3.2-1.1,5.9-0.4
	c2.7,0.6,6.3,4.5,6.6,6.1C91.2,75.8,93.1,79.7,93.1,79.7"></path><path class="st3" d="M77.2,65.1c0.8,0,1.7,0.6,5.5,0.7c3.8,0.1,6.9-0.3,7.5-3.2c0.7-2.9-0.3-3.5,1.4-5.3l1.7-1.9c0,0-3.3-0.1-7.9,0
	c-4.6,0.1-6.8,4.7-7.3,6.6C77.4,63.9,77.2,65.1,77.2,65.1"></path><path class="st4" d="M75.1,65.1c0,0-1.8-1.9-5.4-1.9c-3.6,0-7.6-1.8-7.6-5.5c0-3.8-1.2-5.9-1.2-5.9s-0.1,0.5,3.1,0.3
	c3.2-0.2,7.7,1.9,8.9,5C74.1,60.2,75.1,65.1,75.1,65.1"></path><path class="st5" d="M53.2,69.9c0,0,4.7-4.6,6.1-7.7c1.4-3.1,1.8-5,0-7.2c-1.9-2.2-2.5-4-2.5-4s-2.6,3.9-4.4,4.7
	c-1.7,0.9-3.6,4-2.7,5.9C50.6,63.6,53.2,69.9,53.2,69.9"></path><path class="st6" d="M60.6,48.7c0,0.1,2.8,1.2,6.1,1.6c3.3,0.4,5.1,0.4,6.4-1.3c1.3-1.6,2.2-3.3,3.1-5.2c0.9-1.9,1-2.7,1.8-2.8
	c0.8-0.2-1,0.7-4.6-0.2c-3.7-0.9-5.4-1.9-7-0.7c-1.5,1.2-1.5,3.4-2.7,5.1C62.5,46.9,60.6,48.7,60.6,48.7"></path><path class="st0" d="M25.3,71.5c2.7-0.7,7.2-2.9,10.4-4.5"></path><path class="st0" d="M30.5,77.6c0.5-3.8,2.6-9,5.5-12.1"></path><path class="st0" d="M37.8,77c-2.9-3.5-6-6.2-2.7-9.9"></path><path class="st0" d="M41.3,59.3c2.2-5,5.5-10,9-12.5"></path><path class="st0" d="M36,51.6c5.7-0.9,13.8-4.5,15.5-5.1"></path><path class="st0" d="M48.4,56.3c-1.9-3-3.9-4.4,0.7-8.9"></path><path class="st2" d="M18.6,67.1c2-0.9,2.2-2,6.9,0.5l4.7,2.5c0,0-0.6,0.9-1.4,1.9c-0.7,1-2.9,5.2-6.9,4.6c-4-0.7-6.3-1.5-7-1.9
	c-0.7-0.4-3.3-1.2-4-1.4"></path><path class="st7" d="M23.9,91.9c0.4-2.8-2.8-5.9-1.4-9.5c1.4-3.6,6.4-6.7,7.8-7.9c1.4-1.1,0.4-2.2,1.2,0.7c0.8,2.9,1.9,2.8,1.9,5.5
	c0,2.7-2.9,7.1-4.4,7.8C27.3,89.1,23.9,91.9,23.9,91.9"></path><path class="st3" d="M34.4,73.2c0.2,0.8-0.2,1.8,0.7,5.4c0.9,3.7,2,6.5,5,6.4c3-0.1,3.3-1.1,5.6,0l2.3,1.1c0,0-0.7-3.2-2-7.5
	c-1.2-4.4-6.3-5.3-8.3-5.4C35.7,73.1,34.4,73.2,34.4,73.2"></path><path class="st4" d="M33.9,71.2c0,0,1.5-2.2,0.6-5.6c-0.9-3.5-0.1-7.7,3.6-8.6c3.7-0.9,5.5-2.6,5.5-2.6s-0.5,0.1,0.5,3
	c1,2.9,0,7.7-2.7,9.7C38.5,69,33.9,71.2,33.9,71.2"></path><path class="st5" d="M23.8,51.6c0,0,5.7,3.3,9.1,3.9c3.4,0.6,5.4,0.5,7.1-1.8c1.7-2.3,3.3-3.4,3.3-3.4s-4.5-1.6-5.8-3
	c-1.3-1.4-4.9-2.5-6.5-1.1S23.8,51.6,23.8,51.6"></path><path class="st6" d="M46.5,53.4c-0.1,0,0.8,11.2,2.8,12c1.9,0.8,3.8,1.3,5.9,1.7c2.1,0.4,2.9,0.3,3.3,1c0.4,0.7-0.9-0.8-0.9-4.5
	c0-3.7,0.5-5.6-1-6.8c-1.5-1.2-3.7-0.6-5.7-1.3C48.9,54.8,46.5,53.4,46.5,53.4"></path><path class="st0" d="M33.3,25.4c0.9,2.6,3.4,6.9,5.1,9.9"></path><path class="st0" d="M27.3,30.8c3.9,0.3,9.3,2.1,12.6,4.7"></path><path class="st0" d="M28.2,37.9c3.4-3.1,6-6.2,9.9-3.1"></path><path class="st0" d="M46.4,40.5c5.2,1.9,10.5,4.9,13.2,8.2"></path><path class="st0" d="M54,34.9c1.2,5.5,5.3,13.3,6,14.9"></path><path class="st0" d="M49.8,47.3c2.9-2,4.3-4.1,9.1,0.2"></path><path class="st1" d="M37.3,18.6c1,2,2.2,2.1-0.2,6.8l-2.4,4.7c0,0-0.9-0.6-2-1.2c-1.1-0.6-5.5-2.6-5-6.6c0.5-4,1.2-6.3,1.6-7
	c0.4-0.7,1-3.3,1.3-4"></path><path class="st2" d="M12.4,25c2.9,0.3,5.8-3.1,9.6-1.9c3.8,1.2,7.2,5.9,8.4,7.2c1.2,1.3,2.3,0.3-0.6,1.2c-2.9,0.9-2.8,2-5.5,2.1
	c-2.7,0.2-7.4-2.5-8.1-4C15.4,28.2,12.4,25,12.4,25"></path><path class="st3" d="M32,34.4c-0.8,0.2-1.8-0.1-5.5,0.9c-3.7,1.1-6.5,2.3-6.3,5.3c0.2,2.9,1.3,3.2,0.3,5.5l-1,2.3
	c0,0,3.2-0.9,7.6-2.3c4.4-1.4,5.1-6.4,5-8.4C32.1,35.6,32,34.4,32,34.4"></path><path class="st4" d="M34,33.8c0,0,2.3,1.3,5.7,0.3c3.5-1,7.8-0.5,8.9,3.1c1.1,3.6,2.9,5.2,2.9,5.2s-0.1-0.5-3,0.6
	c-3,1.1-7.9,0.4-10-2.2C36.4,38.2,34,33.8,34,33.8"></path><path class="st5" d="M53.4,22.9c0,0-3.1,5.7-3.5,9.1c-0.4,3.4-0.3,5.3,2.2,6.9c2.4,1.6,3.6,3.1,3.6,3.1s1.4-4.4,2.8-5.8
	c1.4-1.4,2.3-4.9,0.8-6.4C57.8,28.2,53.4,22.9,53.4,22.9"></path><path class="st6" d="M52.8,45.3c0-0.1-3-0.3-6.3,0.2c-3.3,0.6-5,1.1-5.8,3.1c-0.8,1.9-1.1,3.8-1.4,5.9c-0.3,2.1-0.2,2.9-0.9,3.2
	c-0.7,0.4,0.7-0.9,4.5-1.1c3.8-0.2,5.8,0.2,6.9-1.3c1.1-1.6,0.4-3.6,1.1-5.7C51.5,47.6,52.8,45.3,52.8,45.3"></path><path class="st0" d="M81.9,31.6c-2.7,0.5-7.5,2.2-10.8,3.4"></path><path class="st0" d="M77.4,25c-0.9,3.7-3.5,8.7-6.7,11.5"></path><path class="st0" d="M70.1,24.8c2.6,3.7,5.3,6.7,1.6,10.1"></path><path class="st0" d="M64.7,42c-2.7,4.7-6.6,9.4-10.3,11.5"></path><path class="st0" d="M69.2,50.3c-5.7,0.3-14.2,3-15.9,3.5"></path><path class="st0" d="M57.3,44.3c1.5,3.1,3.4,4.8-1.7,8.8"></path><path class="st1" d="M88.1,36.7c-2.1,0.6-2.4,1.8-6.8-1.2l-4.4-3c0,0,0.7-0.8,1.6-1.8c0.8-1,3.5-4.9,7.4-3.8
	c3.9,1.1,6.1,2.1,6.8,2.6c0.7,0.5,3.2,1.5,3.8,1.8"></path><path class="st8" d="M85.6,11.5c-0.7,2.7,2.2,6.1,0.4,9.6c-1.8,3.5-7.1,6-8.6,7c-1.5,1-0.6,2.2-1.1-0.8c-0.5-3-1.5-3-1.3-5.6
	c0.3-2.7,3.7-6.8,5.2-7.2C81.8,13.9,85.6,11.5,85.6,11.5"></path><path class="st2" d="M73.1,29c-0.1-0.8,0.4-1.7-0.1-5.5c-0.5-3.7-1.3-6.6-4.3-6.9c-3-0.2-3.4,0.8-5.6-0.6l-2.1-1.3
	c0,0,0.4,3.2,1.1,7.7c0.8,4.5,5.7,5.9,7.7,6.2C71.8,28.9,73.1,29,73.1,29"></path><path class="st4" d="M73.4,31c0,0-1.7,2-1.2,5.5c0.5,3.5-0.7,7.6-4.5,8.2c-3.8,0.5-5.7,2-5.7,2s0.6,0-0.1-3c-0.7-3,0.8-7.7,3.8-9.4
	C68.5,32.7,73.4,31,73.4,31"></path><path class="st5" d="M81.3,51.6c0,0-5.3-3.9-8.6-4.8c-3.3-1-5.3-1.1-7.2,1c-2,2.1-3.7,3-3.7,3s4.3,2,5.4,3.6c1.2,1.6,4.6,3,6.4,1.8
	C75.3,55,81.3,51.6,81.3,51.6"></path><path class="st6" d="M58.9,47.4c0.1,0,0.8-2.9,0.7-6.2c-0.1-3.3-0.3-5-2.2-6.1c-1.8-1-3.7-1.7-5.7-2.3c-2-0.6-2.8-0.6-3.1-1.4
	c-0.3-0.7,0.8,0.8,0.4,4.5c-0.4,3.7-1.1,5.5,0.3,6.9c1.4,1.3,3.6,1,5.5,1.9C56.7,45.8,58.9,47.4,58.9,47.4"></path><path class="st9" d="M55,61.4c-0.1-2.7-1.2-7.5-1.9-11"></path><path class="st9" d="M62.3,57.9c-3.6-1.4-8.3-4.7-10.6-8.1"></path><path class="st9" d="M63.6,50.9c-4.1,2-7.6,4.2-10.4,0.2"></path><path class="st9" d="M46.9,43.2c-4.4-3.3-8.5-7.7-10.1-11.6"></path><path class="st9" d="M38,46.4c0.5-5.6-1.1-14.2-1.3-16"></path><path class="st9" d="M45.7,35.7c-3.4,1-5.3,2.7-8.6-2.9"></path><path class="st9" d="M49.1,66.7c-0.4-2.2-1.5-2.6,2.2-6.4l3.7-3.8c0,0,0.7,0.8,1.6,1.8c0.9,0.9,4.5,4.1,2.8,7.7
	c-1.6,3.7-3,5.6-3.6,6.2c-0.6,0.6-2,2.9-2.4,3.4"></path><path class="st9" d="M74.9,67.8c-2.7-1.1-6.5,1.3-9.7-1c-3.2-2.2-5.1-7.7-5.9-9.3c-0.8-1.6-2.1-0.9,1-1c3.1-0.1,3.2-1.1,5.9-0.4
	c2.7,0.6,6.3,4.5,6.6,6.1C72.9,63.8,74.9,67.8,74.9,67.8"></path><path class="st9" d="M58.9,53.2c0.8,0,1.7,0.6,5.5,0.7c3.8,0.1,6.9-0.3,7.5-3.2c0.7-2.9-0.3-3.5,1.4-5.3l1.6-1.9c0,0-3.3-0.1-7.9,0
	c-4.6,0.1-6.8,4.7-7.3,6.6C59.2,52,58.9,53.2,58.9,53.2"></path><path class="st9" d="M56.8,53.2c0,0-1.8-1.9-5.4-1.9c-3.6,0-7.6-1.8-7.6-5.5c0-3.8-1.2-5.9-1.2-5.9s-0.1,0.5,3.1,0.3
	c3.2-0.2,7.7,1.9,8.9,5C55.8,48.2,56.8,53.2,56.8,53.2"></path><path class="st9" d="M35,58c0,0,4.7-4.6,6.1-7.7c1.4-3.1,1.8-5,0-7.2c-1.9-2.2-2.5-4-2.5-4s-2.6,3.9-4.4,4.7c-1.7,0.9-3.6,4-2.7,5.9
	C32.4,51.7,35,58,35,58"></path><path class="st9" d="M42.3,36.8c0,0.1,2.8,1.2,6.1,1.6c3.3,0.4,5.1,0.4,6.4-1.3c1.3-1.6,2.2-3.3,3.1-5.2c0.9-1.9,1-2.7,1.8-2.8
	c0.8-0.2-1,0.7-4.6-0.2c-3.7-0.9-5.4-1.9-7-0.7c-1.5,1.2-1.5,3.4-2.7,5.1C44.3,34.9,42.3,36.8,42.3,36.8"></path><path class="st0" d="M86.9,53.3c-2.2-1.7-6.7-3.9-9.9-5.5"></path><path class="st0" d="M88.8,45.5c-3.4,1.8-8.9,3.3-13.2,2.9"></path><path class="st0" d="M84.1,40.1c-1.1,4.4-1.5,8.4-6.5,8"></path><path class="st0" d="M67.4,47.8C62,49,55.9,49.4,51.8,48.1"></path><path class="st0" d="M64.2,56.6c-4.1-3.9-11.8-8.2-13.4-9.2"></path><path class="st0" d="M60.8,44c-1.3,3.2-1.3,5.7-7.7,4.7"></path><path class="st1" d="M87.3,61.1c-1.9-1.1-3-0.5-3.7-5.7L83,50.2c0,0,1.1,0,2.4-0.1c1.3-0.1,6-0.8,7.9,2.8c1.8,3.6,2.5,5.9,2.6,6.7
	c0.1,0.8,1,3.3,1.2,4"></path><path class="st2" d="M104.5,42.3c-2.6,1.3-3.1,5.7-6.9,6.8c-3.8,1-9.3-1.1-11.1-1.5c-1.7-0.4-2,1-0.1-1.3c1.9-2.4,1.2-3.1,3.4-4.7
	c2.2-1.6,7.6-1.9,9-1.1C100.2,41.2,104.5,42.3,104.5,42.3"></path><path class="st3" d="M82.9,45.1c0.5-0.6,1.6-0.9,4.1-3.7c2.5-2.9,4.1-5.4,2.3-7.8c-1.8-2.3-2.9-2-3.3-4.4l-0.4-2.5c0,0-2.2,2.4-5,6
	c-2.8,3.6-0.6,8.1,0.6,9.8C82.1,44.1,82.9,45.1,82.9,45.1"></path><path class="st4" d="M81.6,46.7c0,0-2.6,0.1-5,2.9c-2.3,2.7-6.2,4.6-9.2,2.2C64.5,49.4,62,49,62,49s0.4,0.4,2.2-2.1
	c1.8-2.5,6.4-4.6,9.6-3.6C77,44.3,81.6,46.7,81.6,46.7"></path><path class="st5" d="M71.5,66.2c0,0-0.6-6.5-2.2-9.5c-1.5-3.1-2.8-4.5-5.7-4.5c-2.9,0-4.8-0.6-4.8-0.6s1.4,4.4,1,6.3
	c-0.4,1.9,0.9,5.3,2.9,5.8C64.9,64.2,71.5,66.2,71.5,66.2"></path><path class="st6" d="M59.4,47.2c0,0,2.7-1.4,5.2-3.6c2.4-2.3,3.6-3.6,3.1-5.7c-0.5-2-1.2-3.8-2.1-5.7c-0.9-1.9-1.4-2.5-1.1-3.2
	c0.3-0.7-0.1,1.2-3.1,3.4c-3,2.2-4.9,2.9-5,4.8c0,1.9,1.7,3.2,2.3,5.3C59.2,44.6,59.4,47.2,59.4,47.2"></path><path class="st0" d="M55,88.4c1.1-2.5,2.2-7.3,3-10.7"></path><path class="st0" d="M63.1,88.3c-2.7-2.8-5.5-7.7-6.1-11.8"></path><path class="st0" d="M67.3,82.5c-4.6,0-8.7,0.6-9.5-4.2"></path><path class="st0" d="M55.6,68.5c-2.5-4.8-4.4-10.6-4.1-14.7"></path><path class="st0" d="M46.1,67.7c2.9-4.9,5.2-13.3,5.8-15"></path><path class="st0" d="M57.7,61.3c-3.5-0.5-6,0.2-6.6-6.2"></path><path class="st2" d="M47.3,90.7c0.6-2.1-0.2-3,4.8-4.9l5-1.9c0,0,0.3,1.1,0.7,2.3c0.4,1.2,2.3,5.6-0.8,8.2c-3.1,2.6-5.2,3.8-6,4.1
	c-0.8,0.3-3.1,1.8-3.7,2.1"></path><path class="st7" d="M70.1,102.5c-1.9-2.1-6.4-1.6-8.4-4.9s-1.2-9.1-1.2-10.9c0-1.8-1.5-1.7,1.3-0.5c2.8,1.2,3.4,0.4,5.5,2.1
	c2.1,1.7,3.8,6.7,3.3,8.3C70.1,98.1,70.1,102.5,70.1,102.5"></path><path class="st3" d="M62.1,82.6c0.7,0.3,1.2,1.3,4.7,2.9c3.5,1.7,6.4,2.6,8.2,0.2c1.9-2.3,1.3-3.2,3.6-4.3l2.3-1
	c0,0-2.9-1.5-7.2-3.3c-4.2-1.8-8.2,1.4-9.5,2.9C62.8,81.6,62.1,82.6,62.1,82.6"></path><path class="st4" d="M60.2,81.7c0,0-0.8-2.5-4-4c-3.3-1.5-6.1-4.8-4.5-8.2c1.6-3.4,1.4-5.8,1.4-5.8s-0.3,0.5,2.7,1.6
	c3,1.1,6.1,4.9,5.9,8.2C61.4,76.8,60.2,81.7,60.2,81.7"></path><path class="st5" d="M38.3,76.9c0,0,6.2-2.2,8.9-4.4c2.7-2.2,3.8-3.7,3.1-6.5c-0.7-2.8-0.6-4.7-0.6-4.7s-4.1,2.4-6,2.5
	c-2,0.1-5.1,2.1-5,4.2C38.7,70.1,38.3,76.9,38.3,76.9"></path><path class="st6" d="M54.2,60.8c0,0.1,2,2.3,4.9,4c2.8,1.8,4.5,2.5,6.4,1.6c1.9-0.9,3.4-2.1,5.1-3.4c1.7-1.3,2.1-2,2.9-1.8
	c0.8,0.2-1.2,0.2-4.1-2.2c-2.9-2.3-4.1-4-6-3.5c-1.9,0.4-2.8,2.4-4.7,3.5C56.8,59.9,54.2,60.8,54.2,60.8"></path><path class="st0" d="M23.7,53.1c2.6,1,7.6,1.8,11.1,2.4"></path><path class="st0" d="M24.2,61c2.7-2.8,7.6-5.8,11.7-6.5"></path><path class="st0" d="M30.4,64.8c-0.3-4.5-1.1-8.5,3.8-9.5"></path><path class="st0" d="M44,52.7c4.8-2.7,10.5-4.8,14.8-4.8"></path><path class="st0" d="M44.4,43.3c5.1,2.6,13.8,4.4,15.5,4.9"></path><path class="st0" d="M51.5,54.4c0.3-3.5-0.5-5.8,6-6.8"></path><path class="st1" d="M21,45.7c2.2,0.5,3-0.3,5.2,4.4l2.2,4.8c0,0-1.1,0.3-2.3,0.8c-1.2,0.4-5.5,2.5-8.4-0.4
	c-2.8-2.9-4.2-4.9-4.5-5.6c-0.3-0.7-1.9-2.9-2.3-3.5"></path><path class="st2" d="M10.1,68.6c2-2,1.3-6.4,4.6-8.5c3.3-2.1,9.2-1.7,11-1.8c1.8-0.1,1.6-1.6,0.5,1.2c-1.1,2.8-0.2,3.3-1.8,5.5
	c-1.6,2.2-6.7,4-8.3,3.6C14.6,68.4,10.1,68.6,10.1,68.6"></path><path class="st3" d="M30,59.8c-0.3,0.7-1.2,1.3-2.8,4.8c-1.5,3.5-2.3,6.4,0.2,8.1c2.5,1.7,3.4,1.1,4.5,3.3l1.2,2.2c0,0,1.4-3,3-7.2
	c1.6-4.2-1.9-7.9-3.5-9.2C31,60.5,30,59.8,30,59.8"></path><path class="st4" d="M30.8,57.9c0,0,2.5-0.9,3.9-4.2c1.4-3.3,4.6-6.2,8.1-4.8c3.6,1.4,6,1.1,6,1.1s-0.5-0.3-1.5,2.7
	c-1,3-4.7,6.2-8.1,6.2C35.8,58.8,30.8,57.9,30.8,57.9"></path><path class="st5" d="M34.6,36.2c0,0,2.6,6,4.9,8.5c2.4,2.5,4,3.5,6.8,2.7c2.8-0.8,4.7-0.8,4.7-0.8s-2.6-3.9-2.8-5.8
	C48,39,45.8,36,43.6,36.1C41.5,36.3,34.6,36.2,34.6,36.2"></path><path class="st6" d="M51.8,50.9c-0.1,0-2.2,2.1-3.8,5c-1.6,2.9-2.3,4.5-1.3,6.3c1,1.8,2.3,3.3,3.8,4.8c1.4,1.6,2.1,2,2,2.7
	c-0.1,0.8-0.3-1.1,2-4.1c2.2-3,3.8-4.2,3.3-6c-0.5-1.8-2.6-2.6-3.8-4.4C52.8,53.4,51.8,50.9,51.8,50.9"></path><path class="st0" d="M59.6,20.2c-1.4,2.3-3,7-4.2,10.4"></path><path class="st0" d="M51.5,19.4c2.3,3.1,4.6,8.2,4.7,12.4"></path><path class="st0" d="M46.7,24.8c4.6,0.4,8.7,0.3,9,5.2"></path><path class="st0" d="M56.8,39.8c2,5.1,3.2,11,2.5,15.1"></path><path class="st0" d="M66.2,41.7c-3.4,4.5-6.6,12.7-7.4,14.3"></path><path class="st0" d="M53.9,46.9c3.4,0.8,5.9,0.4,5.9,6.9"></path><path class="st1" d="M67.5,18.7c-0.8,2-0.1,3-5.3,4.4L57,24.4c0,0-0.2-1.1-0.4-2.3c-0.2-1.2-1.7-5.8,1.7-8.1
	c3.3-2.3,5.6-3.3,6.4-3.5c0.8-0.2,3.2-1.4,3.9-1.7"></path><path class="st7" d="M46,4.6c1.7,2.3,6.2,2.2,7.8,5.8c1.6,3.6,0.2,9.2,0.1,11c-0.2,1.8,1.3,1.8-1.3,0.3c-2.6-1.5-3.3-0.7-5.3-2.6
	c-1.9-1.9-3-7.1-2.4-8.6C45.6,9,46,4.6,46,4.6"></path><path class="st2" d="M51.9,25.2c-0.7-0.4-1.1-1.4-4.4-3.4c-3.3-2-6.1-3.2-8.2-1.1c-2.1,2.1-1.6,3.1-4,3.9l-2.4,0.8
	c0,0,2.8,1.8,6.8,4c4,2.3,8.3-0.6,9.8-1.9C51,26.1,51.9,25.2,51.9,25.2"></path><path class="st4" d="M53.7,26.3c0,0,0.5,2.5,3.6,4.4c3.1,1.9,5.6,5.4,3.6,8.6c-2,3.2-2,5.6-2,5.6s0.4-0.4-2.5-1.8
	c-2.8-1.4-5.5-5.5-5-8.8C51.9,31,53.7,26.3,53.7,26.3"></path><path class="st5" d="M74.9,33.3c0,0-6.4,1.5-9.3,3.5c-2.9,1.9-4.2,3.3-3.8,6.1c0.4,2.8,0.1,4.7,0.1,4.7s4.3-1.9,6.2-1.8
	c2,0.1,5.3-1.6,5.5-3.7C73.7,40,74.9,33.3,74.9,33.3"></path><path class="st6" d="M57.4,47.7c0-0.1-1.8-2.5-4.4-4.5c-2.6-2-4.2-2.9-6.2-2.2c-2,0.7-3.6,1.7-5.4,2.9c-1.8,1.1-2.3,1.7-3.1,1.5
	c-0.7-0.2,1.2-0.1,3.8,2.6c2.7,2.6,3.6,4.4,5.6,4.2c1.9-0.2,3-2.1,5-3C54.7,48.3,57.4,47.7,57.4,47.7"></path><path class="st9" d="M65.9,59.5c-2.2-1.7-6.7-3.9-9.9-5.5"></path><path class="st9" d="M67.8,51.8c-3.4,1.8-8.9,3.3-13.2,2.9"></path><path class="st9" d="M63.1,46.3c-1.1,4.4-1.5,8.4-6.5,8"></path><path class="st9" d="M46.4,54c-5.4,1.2-11.5,1.6-15.6,0.3"></path><path class="st9" d="M43.3,62.8c-4.1-3.9-11.8-8.2-13.4-9.2"></path><path class="st9" d="M39.8,50.2c-1.3,3.2-1.3,5.7-7.7,4.7"></path><path class="st9" d="M66.3,67.3c-1.9-1.1-3-0.5-3.7-5.7L62,56.4c0,0,1.1,0,2.4-0.1c1.3-0.1,6-0.8,7.9,2.8c1.8,3.6,2.5,5.9,2.6,6.7
	c0.1,0.8,1,3.3,1.2,4"></path><path class="st9" d="M83.6,48.5c-2.6,1.3-3.1,5.7-6.9,6.8c-3.8,1-9.3-1.1-11.1-1.5c-1.7-0.4-2,1-0.1-1.3c1.9-2.4,1.2-3.1,3.4-4.7
	c2.2-1.6,7.6-1.9,9-1.1C79.2,47.5,83.6,48.5,83.6,48.5"></path><path class="st9" d="M61.9,51.3c0.5-0.6,1.6-0.9,4.1-3.7c2.5-2.9,4.1-5.4,2.3-7.8c-1.8-2.3-2.9-2-3.3-4.4l-0.4-2.5c0,0-2.2,2.4-5,6
	c-2.8,3.6-0.6,8.1,0.6,9.8C61.1,50.3,61.9,51.3,61.9,51.3"></path><path class="st9" d="M60.6,52.9c0,0-2.6,0.1-5,2.9c-2.3,2.7-6.2,4.6-9.2,2.2c-3-2.4-5.4-2.8-5.4-2.8s0.4,0.4,2.2-2.1
	c1.8-2.5,6.3-4.6,9.6-3.6C56.1,50.5,60.6,52.9,60.6,52.9"></path><path class="st9" d="M50.5,72.5c0,0-0.6-6.5-2.2-9.5c-1.5-3.1-2.8-4.5-5.7-4.5c-2.9,0-4.8-0.6-4.8-0.6s1.4,4.4,1,6.3
	c-0.4,1.9,0.9,5.3,2.9,5.8C43.9,70.4,50.5,72.5,50.5,72.5"></path><path class="st9" d="M38.5,53.5c0,0,2.7-1.4,5.1-3.6c2.4-2.3,3.6-3.6,3.1-5.7c-0.5-2-1.2-3.8-2.1-5.7c-0.9-1.9-1.4-2.5-1.1-3.2
	c0.3-0.7-0.1,1.2-3.1,3.4c-3,2.2-4.9,2.9-5,4.8c0,1.9,1.7,3.2,2.3,5.3C38.2,50.8,38.5,53.5,38.5,53.5"></path><path class="st0" d="M80,65.5c-1.2-2.5-4.1-6.5-6.2-9.3"></path><path class="st0" d="M85.3,59.5c-3.9,0.1-9.5-1-13-3.3"></path><path class="st0" d="M83.6,52.5c-3,3.4-5.2,6.8-9.5,4.2"></path><path class="st0" d="M65.2,51.9c-5.4-1.3-11-3.8-14-6.7"></path><path class="st0" d="M58.2,58.4c-1.8-5.3-6.7-12.6-7.6-14.1"></path><path class="st0" d="M61,45.6c-2.7,2.3-3.8,4.5-9.1,0.7"></path><path class="st1" d="M76.7,72.7c-1.2-1.8-2.4-1.8-0.6-6.7l1.8-4.9c0,0,1,0.5,2.2,1c1.2,0.5,5.8,2,5.7,6c0,4-0.5,6.4-0.8,7.1
	c-0.3,0.7-0.7,3.4-0.8,4.1"></path><path class="st2" d="M100.8,63.6c-2.9,0-5.5,3.7-9.3,2.9c-3.9-0.8-7.8-5.1-9.2-6.3c-1.4-1.2-2.3,0,0.5-1.3c2.8-1.2,2.5-2.2,5.2-2.7
	c2.7-0.5,7.6,1.7,8.5,3C97.4,60.7,100.8,63.6,100.8,63.6"></path><path class="st3" d="M80.2,56.4c0.7-0.3,1.8-0.1,5.4-1.5c3.6-1.4,6.2-3,5.6-5.9c-0.5-2.9-1.7-3.1-0.9-5.4l0.7-2.4
	c0,0-3.1,1.2-7.3,3.1c-4.2,1.9-4.3,6.9-4,8.9C80,55.2,80.2,56.4,80.2,56.4"></path><path class="st4" d="M78.3,57.3c0,0-2.4-1.1-5.7,0.3c-3.3,1.4-7.7,1.3-9.2-2.1c-1.5-3.5-3.5-4.9-3.5-4.9s0.1,0.5,2.9-0.9
	c2.8-1.5,7.8-1.3,10.2,1.1C75.4,53.1,78.3,57.3,78.3,57.3"></path><path class="st5" d="M60.2,70.2c0,0,2.4-6,2.5-9.5c0.1-3.4-0.3-5.3-2.9-6.6c-2.6-1.3-3.9-2.7-3.9-2.7S55,56,53.8,57.5
	c-1.2,1.5-1.7,5.1-0.1,6.5C55.3,65.4,60.2,70.2,60.2,70.2"></path><path class="st6" d="M58.3,47.9c0,0.1,3.1,0,6.3-0.9c3.2-0.9,4.9-1.7,5.4-3.7c0.5-2,0.7-3.9,0.7-6c0.1-2.1-0.1-2.9,0.5-3.3
	c0.6-0.5-0.6,1-4.4,1.6c-3.7,0.6-5.7,0.4-6.7,2.1c-0.9,1.7,0,3.6-0.4,5.7C59.4,45.4,58.3,47.9,58.3,47.9"></path><path class="st0" d="M35.2,82.5c2.1-1.7,5.4-5.5,7.7-8.2"></path><path class="st0" d="M42.5,86c-1.1-3.7-1.3-9.3,0.1-13.2"></path><path class="st0" d="M48.9,82.7c-4.1-2-8-3.3-6.5-8"></path><path class="st0" d="M45,65.1c0-5.4,1-11.4,3.2-15"></path><path class="st0" d="M37,60.1c4.8-3,10.8-9.5,12.1-10.7"></path><path class="st0" d="M50.3,59.6c-2.9-2-5.4-2.5-3-8.5"></path><path class="st2" d="M27.3,81.1c1.5-1.6,1.2-2.7,6.5-2.2l5.3,0.5c0,0-0.2,1.1-0.5,2.3c-0.2,1.2-0.6,6-4.5,6.9c-3.9,1-6.4,1.1-7.2,1
	c-0.8-0.1-3.5,0.2-4.2,0.2"></path><path class="st10" d="M42.2,101.8c-0.7-2.7-5-4.3-5.2-8.2s3.1-8.7,4-10.2c0.8-1.6-0.6-2.2,1.4,0.2c1.9,2.3,2.8,1.9,4,4.3
	c1.1,2.4,0.2,7.7-0.9,8.8C44.2,97.9,42.2,101.8,42.2,101.8"></path><path class="st3" d="M44.3,80.5c0.5,0.6,0.5,1.7,2.8,4.7c2.3,3,4.5,5.1,7.2,3.9c2.7-1.2,2.6-2.3,5.2-2.2l2.5,0.1
	c0,0-1.9-2.6-4.9-6.1c-2.9-3.5-7.9-2.4-9.8-1.7C45.4,80,44.3,80.5,44.3,80.5"></path><path class="st4" d="M42.9,78.9c0,0,0.5-2.6-1.7-5.4c-2.2-2.8-3.2-7-0.2-9.3c3-2.3,4-4.5,4-4.5s-0.5,0.3,1.6,2.6
	c2.1,2.3,3.1,7.1,1.4,10C46.4,75.1,42.9,78.9,42.9,78.9"></path><path class="st5" d="M25.8,64.9c0,0,6.6,0.8,10,0c3.4-0.8,5.1-1.6,5.8-4.4c0.7-2.8,1.7-4.4,1.7-4.4s-4.7,0.3-6.5-0.5
	c-1.8-0.8-5.5-0.4-6.4,1.5S25.8,64.9,25.8,64.9"></path><path class="st6" d="M47.4,57.6c0,0,0.7,2.9,2.5,5.7c1.7,2.8,2.8,4.2,4.9,4.2c2.1,0,4-0.3,6.1-0.8c2.1-0.4,2.8-0.8,3.4-0.3
	c0.6,0.5-1.1-0.3-2.6-3.7c-1.5-3.4-1.8-5.4-3.7-5.8c-1.9-0.5-3.6,0.9-5.8,1C50.1,58,47.4,57.6,47.4,57.6"></path><path class="st0" d="M23.8,37.1c1.8,2,5.9,5,8.7,7.1"></path><path class="st0" d="M20.6,44.4c3.7-1.2,9.4-1.7,13.5-0.6"></path><path class="st0" d="M24.3,50.5c1.9-4.1,3-8,7.8-6.7"></path><path class="st0" d="M42,45.8c5.5-0.3,11.6,0.4,15.4,2.4"></path><path class="st0" d="M46.7,37.7c3.3,4.6,10.2,10.1,11.5,11.3"></path><path class="st0" d="M47.9,50.7c1.9-3,2.3-5.4,8.5-3.3"></path><path class="st1" d="M24.8,29.3c1.7,1.4,2.8,1,2.6,6.3l-0.3,5.2c0,0-1.1-0.2-2.4-0.3c-1.3-0.2-6.1-0.3-7.3-4.1
	c-1.2-3.8-1.4-6.2-1.4-7c0-0.8-0.4-3.5-0.4-4.1"></path><path class="st2" d="M4.5,44.9c2.8-0.9,4.1-5.1,8-5.5c3.9-0.4,9,2.6,10.6,3.4c1.6,0.7,2.2-0.7-0.1,1.3c-2.3,2-1.7,2.9-4.2,4.1
	c-2.4,1.2-7.8,0.6-9-0.5C8.6,46.7,4.5,44.9,4.5,44.9"></path><path class="st3" d="M26.3,45.8c-0.6,0.5-1.7,0.6-4.7,3c-3,2.4-5,4.6-3.6,7.3c1.4,2.6,2.5,2.5,2.5,4.9l0,2.5c0,0,2.6-2,6-5.1
	c3.4-3,2-7.9,1.2-9.7C26.9,46.9,26.3,45.8,26.3,45.8"></path><path class="st4" d="M27.9,44.5c0,0,2.6,0.3,5.4-2c2.8-2.3,7-3.5,9.5-0.6c2.5,2.9,4.8,3.7,4.8,3.7s-0.3-0.5-2.5,1.7
	c-2.2,2.2-7.1,3.4-10.1,1.9C31.9,47.7,27.9,44.5,27.9,44.5"></path><path class="st5" d="M41.3,26.9c0,0-0.5,6.5,0.5,9.8c1,3.3,1.9,4.9,4.8,5.4c2.9,0.5,4.6,1.4,4.6,1.4s-0.5-4.6,0.2-6.4
	c0.7-1.8,0.1-5.4-1.9-6.2C47.5,30.1,41.3,26.9,41.3,26.9"></path><path class="st6" d="M49.8,47.8c0,0-2.9,0.9-5.7,2.7c-2.8,1.8-4.2,3-4.1,5.1c0.1,2.1,0.5,3.9,1.1,6c0.5,2,1,2.7,0.5,3.3
	c-0.5,0.6,0.3-1.1,3.7-2.8c3.4-1.7,5.4-2,5.8-3.9c0.4-1.9-1.1-3.5-1.3-5.6C49.5,50.4,49.8,47.8,49.8,47.8"></path><path class="st0" d="M71,23.8c-2.3,1.5-6,4.9-8.5,7.3"></path><path class="st0" d="M64.2,19.6c0.7,3.8,0.3,9.4-1.5,13.1"></path><path class="st0" d="M57.4,22.2c3.9,2.4,7.6,4.1,5.6,8.6"></path><path class="st0" d="M59.4,40.1c-0.6,5.4-2.2,11.2-4.8,14.5"></path><path class="st0" d="M66.9,46c-5.1,2.5-11.8,8.3-13.2,9.4"></path><path class="st0" d="M53.6,45.1c2.7,2.3,5.1,3,2,8.7"></path><path class="st1" d="M78.7,26c-1.7,1.4-1.5,2.6-6.7,1.5l-5.2-1.1c0,0,0.3-1,0.7-2.2c0.4-1.2,1.2-5.9,5.2-6.4c4-0.6,6.5-0.4,7.3-0.3
	c0.8,0.2,3.5,0.2,4.2,0.2"></path><path class="st7" d="M66.2,3.9c0.4,2.8,4.5,4.8,4.3,8.6c-0.2,3.9-4.1,8.3-5,9.8c-1,1.5,0.3,2.2-1.3-0.3c-1.6-2.5-2.6-2.1-3.5-4.7
	c-0.8-2.5,0.6-7.6,1.9-8.7C63.8,7.6,66.2,3.9,66.2,3.9"></path><path class="st2" d="M61.8,24.9c-0.4-0.7-0.3-1.7-2.3-5c-2-3.2-3.9-5.6-6.8-4.6c-2.9,0.9-2.9,2-5.4,1.6l-2.5-0.4
	c0,0,1.6,2.8,4.2,6.6c2.5,3.8,7.6,3.2,9.6,2.7C60.7,25.3,61.8,24.9,61.8,24.9"></path><path class="st4" d="M63,26.6c0,0-0.7,2.5,1.1,5.5c1.9,3,2.4,7.3-0.8,9.3c-3.3,2-4.4,4.1-4.4,4.1s0.5-0.2-1.4-2.7
	c-1.9-2.5-2.4-7.4-0.3-10.1C59.2,30.1,63,26.6,63,26.6"></path><path class="st5" d="M78.6,42.4c0,0-6.4-1.5-9.9-1.1c-3.5,0.4-5.3,1.1-6.2,3.8c-1,2.7-2.1,4.2-2.1,4.2s4.7,0.2,6.4,1.2
	c1.7,1,5.4,0.9,6.6-0.8C74.4,47.9,78.6,42.4,78.6,42.4"></path><path class="st6" d="M56.3,47.3c0,0-0.4-3-1.8-6c-1.4-3-2.4-4.5-4.5-4.7c-2.1-0.2-4.1-0.1-6.2,0.1c-2.1,0.2-2.9,0.5-3.4,0
	c-0.6-0.5,1.1,0.5,2.2,4c1.1,3.5,1.2,5.5,3,6.2c1.8,0.7,3.7-0.5,5.8-0.4C53.6,46.7,56.3,47.3,56.3,47.3"></path><path class="st9" d="M58.4,61.7c-1.2-2.5-4.1-6.5-6.2-9.3"></path><path class="st9" d="M63.7,55.6c-3.9,0.1-9.5-1-13-3.3"></path><path class="st9" d="M62,48.7c-3,3.4-5.2,6.8-9.5,4.2"></path><path class="st9" d="M43.6,48.1c-5.4-1.3-11-3.8-14-6.7"></path><path class="st9" d="M36.7,54.5C34.9,49.2,30,41.9,29,40.4"></path><path class="st9" d="M39.5,41.7c-2.7,2.3-3.8,4.5-9.1,0.7"></path><path class="st9" d="M55.1,68.8c-1.2-1.8-2.4-1.8-0.6-6.7l1.8-4.9c0,0,1,0.5,2.2,1c1.2,0.5,5.7,2,5.7,6c0,4-0.5,6.4-0.8,7.1
	c-0.3,0.7-0.7,3.4-0.8,4.1"></path><path class="st9" d="M79.2,59.8c-2.9,0-5.5,3.7-9.3,2.9c-3.9-0.8-7.8-5.1-9.2-6.3c-1.4-1.2-2.3,0,0.5-1.3c2.8-1.2,2.5-2.2,5.2-2.7
	c2.7-0.5,7.6,1.7,8.5,3C75.8,56.9,79.2,59.8,79.2,59.8"></path><path class="st9" d="M58.6,52.6c0.7-0.3,1.8-0.1,5.4-1.5c3.6-1.4,6.2-3,5.6-5.9c-0.6-2.9-1.7-3.1-0.9-5.4l0.7-2.4
	c0,0-3.1,1.2-7.3,3.1c-4.2,1.9-4.3,6.9-4,8.9C58.4,51.4,58.6,52.6,58.6,52.6"></path><path class="st9" d="M56.8,53.4c0,0-2.4-1.1-5.7,0.3c-3.3,1.4-7.7,1.3-9.2-2.1c-1.5-3.5-3.5-4.9-3.5-4.9s0.1,0.5,2.9-0.9
	c2.8-1.5,7.8-1.3,10.2,1.1C53.8,49.3,56.8,53.4,56.8,53.4"></path><path class="st9" d="M38.7,66.4c0,0,2.4-6,2.5-9.5c0.1-3.4-0.3-5.3-2.9-6.6c-2.6-1.3-3.9-2.7-3.9-2.7s-0.9,4.6-2.1,6.1
	c-1.2,1.5-1.7,5.1-0.1,6.5C33.7,61.6,38.7,66.4,38.7,66.4"></path><path class="st9" d="M36.8,44c0,0.1,3.1,0,6.3-0.9c3.2-0.9,4.9-1.7,5.4-3.7c0.5-2,0.7-3.9,0.7-6c0.1-2.1-0.1-2.9,0.5-3.3
	c0.6-0.5-0.6,1-4.4,1.6c-3.7,0.6-5.7,0.4-6.7,2.1c-0.9,1.7,0,3.6-0.4,5.7C37.8,41.6,36.8,44,36.8,44"></path><path class="st0" d="M84.3,41.8c-2.7-0.7-7.7-1-11.3-1.2"></path><path class="st0" d="M83,33.9c-2.4,3-6.9,6.5-10.9,7.8"></path><path class="st0" d="M76.4,30.8c0.8,4.4,2,8.3-2.7,9.9"></path><path class="st0" d="M64.3,44.3c-4.5,3.2-9.9,5.9-14.2,6.4"></path><path class="st0" d="M64.9,53.7c-5.4-2-14.2-2.9-16-3.2"></path><path class="st0" d="M56.6,43.4c0.1,3.5,1.1,5.7-5.2,7.4"></path><path class="st1" d="M87.9,48.8c-2.2-0.3-2.9,0.7-5.7-3.8l-2.7-4.5c0,0,1-0.5,2.2-1c1.2-0.5,5.2-3.1,8.4-0.5
	c3.1,2.5,4.7,4.4,5.1,5.1c0.4,0.7,2.3,2.7,2.7,3.2"></path><path class="st2" d="M96.1,24.8c-1.8,2.2-0.6,6.5-3.6,8.9c-3.1,2.4-9,2.7-10.8,2.9c-1.8,0.3-1.5,1.7-0.7-1.2
	c0.8-2.9-0.2-3.3,1.2-5.7c1.3-2.3,6.2-4.7,7.8-4.5C91.7,25.5,96.1,24.8,96.1,24.8"></path><path class="st3" d="M77.4,35.8c0.2-0.8,1.1-1.4,2.2-5c1.1-3.6,1.6-6.6-1.1-8c-2.6-1.4-3.5-0.7-4.9-2.8l-1.4-2.1c0,0-1,3.1-2.2,7.5
	c-1.2,4.4,2.7,7.7,4.5,8.7C76.3,35.2,77.4,35.8,77.4,35.8"></path><path class="st4" d="M76.8,37.8c0,0-2.4,1.1-3.4,4.6c-1,3.4-3.8,6.7-7.5,5.6c-3.7-1-6.1-0.4-6.1-0.4s0.5,0.2,1.1-2.8
	c0.6-3,4-6.7,7.3-7C71.7,37.3,76.8,37.8,76.8,37.8"></path><path class="st5" d="M75.5,59.7c0,0-3.2-5.7-5.9-7.9c-2.7-2.2-4.4-3.1-7-2C59.9,51,58,51.1,58,51.1s3,3.5,3.4,5.4
	c0.4,1.9,3,4.5,5.1,4.2C68.5,60.4,75.5,59.7,75.5,59.7"></path><path class="st6" d="M56.7,46.9c0.1,0,1.9-2.3,3.3-5.3c1.3-3,1.8-4.7,0.5-6.4c-1.2-1.7-2.7-3-4.3-4.4c-1.6-1.4-2.3-1.7-2.3-2.5
	c0-0.8,0.4,1.1-1.5,4.3c-1.9,3.2-3.3,4.6-2.6,6.4c0.7,1.8,2.9,2.3,4.2,4C55.4,44.6,56.7,46.9,56.7,46.9"></path><path class="st0" d="M69.3,86.5c0-2.7-0.9-7.6-1.6-11"></path><path class="st0" d="M76.7,83.2c-3.6-1.5-8.1-4.9-10.3-8.5"></path><path class="st0" d="M78.2,76.2c-4.2,1.8-7.7,4-10.4-0.2"></path><path class="st0" d="M61.8,68c-4.3-3.5-8.3-8-9.8-11.9"></path><path class="st0" d="M52.7,70.9c0.7-5.6-0.6-14.2-0.7-16"></path><path class="st0" d="M60.8,60.5c-3.4,0.9-5.4,2.5-8.5-3.1"></path><path class="st2" d="M63.2,91.6c-0.3-2.2-1.4-2.6,2.4-6.3l3.8-3.7c0,0,0.7,0.9,1.5,1.8c0.8,1,4.3,4.2,2.6,7.8
	c-1.7,3.6-3.2,5.5-3.8,6.1c-0.6,0.6-2.1,2.8-2.5,3.3"></path><path class="st11" d="M88.9,93.5c-2.6-1.2-6.5,1.1-9.7-1.3c-3.2-2.3-4.8-7.9-5.6-9.5c-0.7-1.6-2.1-1,1-0.9c3.1,0,3.3-1,5.9-0.3
	c2.6,0.7,6.2,4.7,6.4,6.3C87.1,89.4,88.9,93.5,88.9,93.5"></path><path class="st3" d="M73.4,78.3c0.8,0,1.7,0.7,5.5,0.9c3.8,0.2,6.9-0.1,7.6-3c0.8-2.9-0.2-3.5,1.6-5.3l1.7-1.8c0,0-3.3-0.2-7.9-0.2
	c-4.6,0-6.9,4.5-7.6,6.4C73.8,77.2,73.4,78.3,73.4,78.3"></path><path class="st4" d="M71.4,78.3c0,0-1.7-2-5.3-2.1c-3.6-0.1-7.6-2-7.4-5.8c0.1-3.8-1.1-5.9-1.1-5.9s-0.1,0.5,3.1,0.4
	c3.2-0.1,7.6,2.1,8.8,5.2C70.5,73.3,71.4,78.3,71.4,78.3"></path><path class="st5" d="M49.4,82.4c0,0,4.8-4.4,6.4-7.5c1.5-3.1,2-4.9,0.2-7.2c-1.8-2.3-2.4-4.1-2.4-4.1s-2.8,3.8-4.5,4.6
	c-1.8,0.8-3.8,3.9-2.9,5.8S49.4,82.4,49.4,82.4"></path><path class="st6" d="M57.4,61.4c0,0.1,2.8,1.3,6.1,1.8c3.3,0.5,5.1,0.5,6.5-1.1c1.4-1.6,2.3-3.3,3.3-5.1c1-1.9,1.1-2.6,1.9-2.8
	c0.8-0.2-1,0.6-4.6-0.4c-3.6-1-5.4-2.1-6.9-0.9c-1.6,1.1-1.6,3.3-2.9,5C59.4,59.6,57.4,61.4,57.4,61.4"></path><path class="st0" d="M26.3,66.2c2.8-0.1,7.7-1.3,11.2-2.1"></path><path class="st0" d="M30,73.3c1.4-3.6,4.6-8.2,8.1-10.6"></path><path class="st0" d="M37.2,74.4c-2.1-4-4.4-7.3-0.3-10.2"></path><path class="st0" d="M44.7,58c3.3-4.4,7.7-8.5,11.6-10.2"></path><path class="st0" d="M41.3,49.2c5.7,0.4,14.4-1.3,16.2-1.5"></path><path class="st0" d="M52.3,56.6c-1.1-3.3-2.8-5.2,2.8-8.5"></path><path class="st1" d="M20.8,60.5c2.2-0.4,2.6-1.5,6.6,2l4,3.5c0,0-0.8,0.7-1.8,1.6c-0.9,0.9-4.1,4.5-7.8,2.9
	c-3.8-1.5-5.8-2.9-6.4-3.4c-0.6-0.5-3-1.9-3.5-2.3"></path><path class="st2" d="M20.2,85.8c1.1-2.6-1.4-6.4,0.8-9.6c2.2-3.2,7.8-5.1,9.4-5.9c1.6-0.8,0.9-2.1,1,0.9c0.1,3,1.1,3.1,0.6,5.8
	c-0.6,2.6-4.5,6.3-6.1,6.6C24.2,83.8,20.2,85.8,20.2,85.8"></path><path class="st3" d="M34.8,69.9c0,0.8-0.6,1.7-0.6,5.4c0,3.8,0.5,6.7,3.4,7.3c2.9,0.6,3.5-0.3,5.5,1.3l2,1.6c0,0,0-3.2-0.2-7.8
	c-0.2-4.5-4.9-6.6-6.9-7.1C36,70.2,34.8,69.9,34.8,69.9"></path><path class="st4" d="M34.7,67.9c0,0,1.9-1.8,1.9-5.3c0-3.6,1.7-7.5,5.5-7.6c3.8-0.1,5.9-1.3,5.9-1.3s-0.5-0.1-0.2,3
	c0.3,3.1-1.8,7.5-4.9,8.8C39.8,66.8,34.7,67.9,34.7,67.9"></path><path class="st5" d="M29.4,46.5c0,0,4.8,4.5,8,5.9c3.2,1.3,5.1,1.7,7.3-0.2c2.2-1.9,4-2.6,4-2.6s-4-2.5-4.9-4.2
	c-0.9-1.7-4.2-3.5-6.1-2.6C35.8,43.9,29.4,46.5,29.4,46.5"></path><path class="st12" d="M51.2,53.3c-0.1,0-1.2,2.8-1.5,6c-0.3,3.3-0.3,5,1.4,6.3c1.7,1.3,3.5,2.1,5.4,3c2,0.9,2.7,1,2.9,1.7
	c0.2,0.7-0.7-0.9,0.2-4.6c0.8-3.6,1.8-5.4,0.6-6.8c-1.2-1.5-3.4-1.4-5.2-2.6C53.1,55.2,51.2,53.3,51.2,53.3"></path><path class="st0" d="M45.9,22c-0.3,2.7,0.1,7.6,0.4,11.1"></path><path class="st0" d="M38.2,24.5c3.4,1.9,7.6,5.7,9.4,9.5"></path><path class="st0" d="M35.9,31.3c4.4-1.4,8.1-3.2,10.3,1.3"></path><path class="st0" d="M51.3,41.2c3.9,3.9,7.4,8.8,8.4,12.9"></path><path class="st0" d="M60.6,39.2c-1.3,5.5-0.9,14.2-1,16"></path><path class="st0" d="M51.5,48.7c3.5-0.6,5.6-1.9,8.2,4"></path><path class="st1" d="M52.5,17.6c0,2.2,1.1,2.8-3.1,6.1l-4.2,3.3c0,0-0.6-0.9-1.3-2c-0.7-1-3.9-4.6-1.7-8c2.1-3.4,3.8-5.2,4.4-5.7
	c0.6-0.5,2.4-2.6,2.9-3.1"></path><path class="st13" d="M27.1,13.1c2.5,1.4,6.6-0.4,9.5,2.3c2.9,2.6,4,8.3,4.5,10c0.5,1.7,2,1.2-1.1,0.8c-3-0.4-3.3,0.6-5.9-0.3
	c-2.5-1-5.6-5.3-5.7-6.9C28.5,17.2,27.1,13.1,27.1,13.1"></path><path class="st2" d="M40.9,29.7c-0.8-0.1-1.6-0.9-5.4-1.4c-3.8-0.6-6.9-0.6-7.9,2.2c-1.1,2.8-0.2,3.5-2.1,5.1l-1.9,1.7
	c0,0,3.3,0.5,7.9,1.1c4.6,0.5,7.4-3.7,8.2-5.6C40.4,30.8,40.9,29.7,40.9,29.7"></path><path class="st4" d="M42.9,29.9c0,0,1.5,2.1,5.1,2.7c3.6,0.5,7.3,2.8,6.8,6.5c-0.5,3.7,0.4,6,0.4,6s0.2-0.5-3-0.7
	c-3.2-0.2-7.3-2.9-8.1-6.1C43.2,35,42.9,29.9,42.9,29.9"></path><path class="st5" d="M65.2,28.1c0,0-5.3,3.9-7.1,6.8c-1.9,2.9-2.5,4.7-1,7.1c1.5,2.4,2,4.3,2,4.3s3.2-3.5,5-4.1
	c1.8-0.7,4.2-3.5,3.5-5.5C66.9,34.8,65.2,28.1,65.2,28.1"></path><path class="st6" d="M55,48.2c0-0.1-2.6-1.6-5.8-2.4c-3.2-0.8-5-1.1-6.6,0.4c-1.5,1.4-2.6,3-3.8,4.8c-1.2,1.8-1.4,2.5-2.2,2.6
	c-0.8,0.1,1.1-0.5,4.6,0.9c3.5,1.4,5.1,2.6,6.8,1.6c1.7-1,1.9-3.1,3.4-4.7C52.8,49.7,55,48.2,55,48.2"></path><path class="st9" d="M67.6,55.7c-2.7-0.7-7.7-1-11.3-1.2"></path><path class="st9" d="M66.2,47.8c-2.4,3-6.9,6.5-10.9,7.8"></path><path class="st9" d="M59.7,44.7c0.8,4.4,2,8.3-2.7,9.9"></path><path class="st9" d="M47.5,58.2c-4.5,3.2-9.9,5.9-14.2,6.4"></path><path class="st9" d="M48.2,67.6c-5.4-2-14.2-2.9-16-3.2"></path><path class="st9" d="M39.9,57.3c0.1,3.5,1.1,5.7-5.2,7.4"></path><path class="st9" d="M71.2,62.7c-2.2-0.3-2.9,0.7-5.7-3.8l-2.7-4.5c0,0,1-0.5,2.2-1c1.2-0.5,5.2-3.1,8.4-0.5
	c3.1,2.5,4.7,4.4,5.1,5.1c0.4,0.7,2.3,2.7,2.7,3.2"></path><path class="st9" d="M79.4,38.7c-1.8,2.2-0.6,6.5-3.6,8.9c-3.1,2.4-9,2.7-10.8,2.9c-1.8,0.3-1.5,1.7-0.7-1.2
	c0.8-2.9-0.2-3.3,1.2-5.7c1.3-2.3,6.2-4.7,7.8-4.5C74.9,39.4,79.4,38.7,79.4,38.7"></path><path class="st9" d="M60.6,49.7c0.2-0.8,1.1-1.4,2.2-5c1.1-3.6,1.6-6.6-1.1-8c-2.6-1.4-3.5-0.7-4.9-2.8l-1.4-2.1c0,0-1,3.1-2.2,7.5
	c-1.2,4.4,2.7,7.7,4.5,8.7C59.5,49.1,60.6,49.7,60.6,49.7"></path><path class="st9" d="M60.1,51.7c0,0-2.4,1.1-3.4,4.6c-1,3.4-3.8,6.7-7.5,5.6c-3.7-1-6.1-0.4-6.1-0.4s0.5,0.2,1.1-2.8s4-6.7,7.3-7
	C54.9,51.2,60.1,51.7,60.1,51.7"></path><path class="st9" d="M58.8,73.6c0,0-3.2-5.7-5.9-7.9c-2.7-2.2-4.4-3.1-7-2c-2.7,1.1-4.6,1.3-4.6,1.3s3,3.5,3.4,5.4
	c0.4,1.9,3,4.5,5.1,4.2C51.8,74.3,58.8,73.6,58.8,73.6"></path><path class="st9" d="M40,60.8c0.1,0,1.9-2.3,3.3-5.3c1.3-3,1.8-4.7,0.5-6.4c-1.2-1.7-2.7-3-4.3-4.4c-1.6-1.4-2.3-1.7-2.3-2.5
	c0-0.8,0.4,1.1-1.5,4.3c-1.9,3.2-3.3,4.6-2.6,6.4c0.7,1.8,2.9,2.3,4.2,4C38.7,58.5,40,60.8,40,60.8"></path><path class="st14" d="M63.1,37.3c-0.1-2.2-1.3-4.9-2.9-5.8c-1.6-0.9-5.3-1.8-8.7-1.3C48,30.8,45,32.7,44.8,33s-1,2.9-1,2.9l1.6,0.6
	c0,0,5,0.1,7.3,0c2.3-0.1,7.4,0.9,7.9,1.1c0.5,0.2,0.8,0.1,1,0.3c0.3,0.2,0.6,0.4,0.8,0.4C62.6,38.3,63.1,37.3,63.1,37.3"></path><path class="st15" d="M44.3,24.4c0-0.2-1.2-3.8-1.4-4.2c-0.2-0.4-1.5-2.5-1.6-2.6c-0.1-0.1-0.5-0.3-1-0.6c-0.5-0.4-1-0.7-1.5-0.6
	c-0.5,0.1-1.2,0.1-1.8,0.3c-0.6,0.2-1,0.7-1.2,1c-0.2,0.3-0.3,1.2-0.3,1.2l0.4,2.8c0,0,0.2,2.4,0.6,2.8c0.3,0.4,2.4,4.2,2.4,4.2
	l1.7,3.4l1.9,0.8l3.5-1.8l0.3-3L44.3,24.4z"></path><path class="st16" d="M53.6,15.7c-0.9-0.7-4.1-0.2-6.7,2.4c-2.6,2.6-6.1,8.8-5.7,13c0.4,4.2,1.2,5.2,1.2,5.2s5.3-1.7,7-2.9
	C51.1,32.2,55.7,26,56,23C56.2,20,54.6,16.4,53.6,15.7"></path><path class="st17" d="M41.2,33.8c0,0-3.7,1.6-5.3,2.5c-1.6,1-6.1,5.7-6.6,7.4c-0.5,1.7-0.5,3.3-0.1,3.9c0.4,0.6,1,0.9,1.5,1.2
	c0.5,0.3,1,0.4,1.6,0.2c0.6-0.2,2-1.9,2.7-2.5c0.7-0.6,4.1-4.9,4.7-5.2c0.5-0.3,1.5-1.3,1.6-1.8c0.2-0.5,1.7-2.1,1.7-2.8
	c0-0.6-0.6-1.6-0.6-1.6L41.2,33.8z"></path><path class="st14" d="M45.2,32.3c0,0-3.2-4.3-4.8-5.7c-1.6-1.4-2.5-2.4-6.6-3.2c-4.1-0.8-7.3-0.2-8.7,0.2c-1.4,0.4-3.8,2.2-4.3,2.5
	c-0.5,0.3-0.8,0.7-0.6,1.1c0.1,0.4,1.4,1.8,2.3,2.8c1,1,5.5,3.9,6,4.2c0.6,0.3,4.7,2.2,5.6,2.4c0.9,0.2,4.2,0.4,4.2,0.4l3.1-0.2
	l1.7-0.9c0,0,0.9-0.2,1.2-0.8C44.7,34.2,45.2,32.3,45.2,32.3"></path><path class="st18" d="M44.7,34.2c0,0,3.7-0.5,5.2,0.2c1.5,0.7,3.9,4,4.3,5.1c0.4,1.1,0.4,6.4,0.6,7.3c0.1,1-0.9,2.7-1.1,3.5
	c-0.2,0.8-0.5,1.3-1.2,0.9c-0.7-0.4-1.4-1-2.3-1.4c-0.9-0.4-1.7-1-2.8-1.7c-1.1-0.7-3.9-3.8-4.3-4.4c-0.4-0.6-0.8-2-1.3-2.3
	c-0.5-0.4-0.9-0.7-1-0.8c-0.1-0.1-0.6-0.5-0.5-1.4c0.1-0.9,0.2-2.6,0.7-3.1C41.6,35.6,44.7,34.2,44.7,34.2"></path><path class="st19" d="M52.8,18.3c0,0-4.4,6-4.7,6.6c-0.3,0.6-0.2,0.8-0.4,1.3c-0.2,0.5-1,2.4-1.5,2.5c-0.5,0.2,0.1-1.5,0.1-1.5
	s1.7-2,1.3-2.6c-0.4-0.6,0-0.4-1.4-1.2c-1.3-0.8-2-1.3-2-1.3l-1.4,2.3c0,0-0.5,1.3-0.9,1.5c-0.4,0.2,0-0.8,0.2-1.5
	c0.1-0.6,0.5-1.7,0-2.6c-0.4-0.9-1.1-2-1.3-2.1c-0.2-0.1-0.5,0.8-0.5,0.8l0.3,2.5c0,0,0.6,0.7,0.3,1.3c-0.3,0.6-0.3,1.5-0.6,0.4
	c-0.3-1.1-0.7-3.3-0.7-3.3S38.7,20,38.2,20c-0.5,0.1-0.6,1.7-0.6,1.7l0.9,1.8l0.2,1.4l-1.1-1.1l-1.1-1.8c0,0-0.6,0.8,0.1,1.6
	c0.6,0.9,2,2,1.3,2.4c-0.7,0.4-0.6,0.3-1,0.5c-0.4,0.2-0.7,0.5-0.2,1c0.5,0.5,1.7,0.9,0.6,1c-1.2,0-1.5-0.3-2.1-0.4
	c-0.6-0.1-1.6-0.5-1,0.3c0.6,0.8,0.6,0.8,1.3,1.3c0.7,0.5-1-0.6-1-0.6L31.6,28c0,0-1.6-0.1-1.8-0.3c-0.2-0.1-0.9-0.7-0.2-0.1
	c0.7,0.5,3.3,1.5,3.3,1.5s2.5,1.1,3,1.5c0.5,0.3,1.9,1.1,1.3,1.2c-0.6,0.2-1.1-0.1-1.7-0.5c-0.6-0.4-4.1-2-4.1-2s-3.6-1.2-4.5-1.3
	c-1-0.1-2.2,0.1-2.2,0.1l1.9,0.9l5.6,1.3c0,0,4.7,2.5,5,2.7s1.2,0.4,1.4,0.9c0.2,0.5-0.6,1.4-0.6,1.4l-2.5,0.2l-2.1-0.9l-3.9-1
	l-2.2-1l0.8,0.7l2.6,1.1l2.6,1.1l3.7,1c0,0,1.3-0.6,1.6-0.1c0.3,0.5,0.7,0.6,0.4,1.1c-0.3,0.5-0.5,0.8-0.5,0.8l0.1,0.5l0.9-0.8
	l0.3,0.6L39,39.1l-0.7,0.6c0,0,0.6,0.3,1-0.3c0.4-0.6,0.6-1,0.6-1l0.5,0.3c0,0-0.5,0.6-0.2,0.7c0.3,0.1,0.6-0.4,0.6-0.4l0.6-0.4
	c0,0-0.1,0.6,0.5,0.3c0.5-0.3,0.7-0.7,0.7-0.7l1.4-0.3l1.2,2.3l2.7,4.8l1.8,3L51,49l0.4-0.3l-2.6-4c0,0-2.3-4.3-3.3-5.6
	c-0.9-1.3-0.6-2.2-0.6-2.2l1.2-0.4l4,4l1.9,2.7l-0.9-4.4l-2.1-3.1l-0.2-1.1c0,0,2.6,0,3.7,0.2c1,0.2,4.9,1.2,4.9,1.2l2.9,0.7
	l-0.9-0.9l-5-1.4l-3.7-0.9l0.5-1l2.8-0.5l3.3,0.8l-1.6-1.2L51.3,31l-1.2-1.7c0,0,1.9-2,1.7-3.2c-0.2-1.2-0.3-1.4-1.2-1
	c-0.9,0.4-1.5,0.1-1.5,0.1l0.8-1.8c0,0,0.9-1.6,0.9-1.8C51,21.4,52.4,18.9,52.8,18.3"></path><path class="st20" d="M39.7,28.2c-0.2,0,0.2,1.8-0.4,2.5c-0.6,0.7-0.8,1.3-0.8,1.3s0.3,1.2,0.3,2c0.1,0.9-0.2,1,0.1,1.5
	c0.3,0.4,0.9,0.9,0.9,0.9l1.5,0.4l1.7,0c0,0,2.2-1,2.9-1.6c0.6-0.7,1.4-0.9,1.4-0.9l0.6-0.4l1.5-2.6l-1.2-0.4l0.3-2.2
	c0,0-0.1-1.1-1.9-1.6c-1.8-0.6-2.2-0.8-2.9-1c-0.8-0.2-0.8-0.3-1.3,0.1c-0.4,0.3-1,0.5-1,0.5l-1-0.7l-0.4,1l-0.9,0.4
	c0,0-0.1-0.2-0.4-0.2c-0.2,0-0.6,0.7-0.6,0.7"></path><path class="st21" d="M41.7,28.8c-0.1,0-0.2,0-0.3,0c-0.3-0.1-0.6-0.3-0.6,0.6c0.1,1.2-0.2,2,0.2,2.4c0.4,0.4,0.8,0.4,1.5,0.9
	c0.7,0.5,2,0.8,2,0.8l1.5-1.1c0,0,0.6-0.8,0.6-1.6c0-0.8,0.4-0.9-0.4-1.2c-0.9-0.3-1.2-0.1-1.8-0.5c-0.6-0.4-1.3-0.6-1.3-0.6
	l-0.7,0.6"></path><path class="st22" d="M41.3,30.4c-0.1,0-0.2,0-0.3,0c-0.3-0.1-0.6-0.3-0.6,0.6c0.1,1.2-0.2,2,0.2,2.4c0.4,0.4,0.8,0.4,1.5,0.9
	c0.7,0.5,2,0.8,2,0.8l1.5-1.1c0,0,0.6-0.8,0.6-1.6c0-0.8,0.4-0.9-0.4-1.2c-0.9-0.3-1.2-0.1-1.8-0.5c-0.6-0.4-1.3-0.6-1.3-0.6
	l-0.7,0.6"></path><path class="st23" d="M45.3,32.3c0.2,0.4,0.4,1,0,1.2c-0.3,0.2-0.5,0.2-0.7-0.4c-0.2-0.6-0.1-3.1,0.5-4.6"></path><path class="st23" d="M44.7,33.5c-0.1,0.2-0.8,0.7-1.1,0c-0.3-0.7,0.2-2.7,0.4-3"></path><path class="st23" d="M44,28.7c0,0-1.3,3.6-1.3,4c0,0.4-0.1,1.6,0.8,1.4"></path><path class="st23" d="M42.1,30.2c0,0-0.3,2.7-0.2,3c0.1,0.3,0.3,1,0.8,1"></path><path class="st23" d="M41.3,28.3c0,0-0.1,3.3,0.3,3.6c0.3,0.2,0.5,0.3,0.8,0.4c0.3,0.1,0.8,0.1,1,0.3"></path><path class="st23" d="M41.8,28.9c0,0-1,2.1-1,2.7c0.1,0.5,0.3,0.9,1,1.3"></path><path class="st23" d="M41.1,29.4c0,0,0.3,2.6,0.4,3.2c0.1,0.6,0.2,1.3,0.7,1.5"></path><path class="st24" d="M45.5,28.7c-0.1,0.1-0.3,0.1-0.5,0c-0.2-0.1-0.3-0.3-0.3-0.4c0.1-0.1,0.3-0.1,0.5,0
	C45.5,28.4,45.6,28.6,45.5,28.7"></path><path class="st24" d="M44.5,28.9c-0.1,0.1-0.3,0-0.6-0.1c-0.3-0.2-0.5-0.4-0.4-0.5c0.1-0.1,0.3,0,0.6,0.1
	C44.3,28.6,44.5,28.8,44.5,28.9"></path><path class="st24" d="M41.7,28.4c-0.1,0.1-0.2,0.1-0.4,0c-0.2-0.1-0.2-0.3-0.2-0.4c0.1-0.1,0.2-0.1,0.4,0
	C41.7,28.1,41.7,28.3,41.7,28.4"></path><path class="st24" d="M42.2,29.1c-0.1,0.1-0.2,0.1-0.4-0.1c-0.2-0.1-0.3-0.3-0.3-0.4c0.1-0.1,0.2-0.1,0.4,0.1
	C42.2,28.9,42.3,29,42.2,29.1"></path><path class="st24" d="M41.4,29.5c0,0.1-0.2,0-0.4-0.1c-0.2-0.1-0.3-0.3-0.3-0.3c0-0.1,0.2,0,0.4,0.1C41.4,29.3,41.5,29.4,41.4,29.5"></path><path class="st24" d="M42.4,30.4c-0.1,0.1-0.2,0.1-0.3,0c-0.1-0.1-0.2-0.2-0.1-0.3c0.1-0.1,0.2-0.1,0.3,0
	C42.4,30.1,42.5,30.3,42.4,30.4"></path><path class="st24" d="M44.3,30.6c-0.1,0.1-0.3,0.1-0.4,0c-0.2-0.1-0.2-0.3-0.2-0.4c0.1-0.1,0.3-0.1,0.4,0
	C44.3,30.3,44.4,30.5,44.3,30.6"></path><path class="st23" d="M45.6,32.5c0.2,0.4,0.4,1,0,1.2c-0.3,0.2-0.5,0.2-0.7-0.4c-0.2-0.6-0.1-3.1,0.5-4.6"></path><path class="st23" d="M45,33.8c-0.1,0.2-0.8,0.7-1.1,0c-0.3-0.7,0.2-2.7,0.4-3"></path><path class="st23" d="M44.3,29c0,0-1.3,3.6-1.3,4c0,0.4-0.1,1.6,0.8,1.4"></path><path class="st23" d="M42.4,30.5c0,0-0.3,2.7-0.2,3c0.1,0.3,0.3,1,0.8,1"></path><path class="st23" d="M41.6,28.6c0,0-0.1,3.3,0.3,3.6c0.3,0.2,0.5,0.3,0.8,0.4c0.3,0.1,0.8,0.1,1,0.3"></path><path class="st23" d="M42.2,29.2c0,0-1,2.1-1,2.7c0.1,0.5,0.3,0.9,1,1.3"></path><path class="st23" d="M41.4,29.6c0,0,0.3,2.6,0.4,3.2c0.1,0.6,0.2,1.3,0.7,1.5"></path><path class="st24" d="M45.9,29c-0.1,0.1-0.3,0.1-0.5,0c-0.2-0.1-0.3-0.3-0.3-0.4c0.1-0.1,0.3-0.1,0.5,0C45.8,28.7,46,28.9,45.9,29"></path><path class="st24" d="M44.8,29.2c-0.1,0.1-0.3,0-0.6-0.1c-0.3-0.2-0.5-0.4-0.4-0.5c0.1-0.1,0.3,0,0.6,0.1
	C44.7,28.9,44.8,29.1,44.8,29.2"></path><path class="st24" d="M42,28.7c-0.1,0.1-0.2,0.1-0.4,0c-0.2-0.1-0.2-0.3-0.2-0.4c0.1-0.1,0.2-0.1,0.4,0C42,28.4,42.1,28.6,42,28.7"></path><path class="st24" d="M42.6,29.4c-0.1,0.1-0.2,0.1-0.4-0.1c-0.2-0.1-0.3-0.3-0.3-0.4c0.1-0.1,0.2-0.1,0.4,0.1
	C42.5,29.1,42.6,29.3,42.6,29.4"></path><path class="st24" d="M41.8,29.7c0,0.1-0.2,0-0.4-0.1c-0.2-0.1-0.3-0.3-0.3-0.3c0-0.1,0.2,0,0.4,0.1C41.7,29.5,41.8,29.7,41.8,29.7"></path><path class="st24" d="M42.8,30.6c-0.1,0.1-0.2,0.1-0.3,0c-0.1-0.1-0.2-0.2-0.1-0.3c0.1-0.1,0.2-0.1,0.3,0
	C42.8,30.4,42.8,30.5,42.8,30.6"></path><path class="st24" d="M44.6,30.9c-0.1,0.1-0.3,0.1-0.4,0c-0.2-0.1-0.2-0.3-0.2-0.4c0.1-0.1,0.3-0.1,0.4,0
	C44.6,30.6,44.7,30.8,44.6,30.9"></path><path class="st23" d="M45.9,32.8c0.2,0.4,0.4,1,0,1.2c-0.3,0.2-0.5,0.2-0.7-0.4c-0.2-0.6-0.1-3.1,0.5-4.6"></path><path class="st23" d="M45.3,34c-0.1,0.2-0.8,0.7-1.1,0c-0.3-0.7,0.2-2.7,0.4-3"></path><path class="st23" d="M44.7,29.2c0,0-1.3,3.6-1.3,4c0,0.4-0.1,1.6,0.8,1.3"></path><path class="st23" d="M42.8,30.7c0,0-0.3,2.7-0.2,3c0.1,0.3,0.3,1,0.8,1"></path><path class="st23" d="M41.9,28.8c0,0-0.1,3.3,0.3,3.6c0.3,0.2,0.5,0.3,0.8,0.4c0.3,0.1,0.8,0.1,1,0.3"></path><path class="st23" d="M42.5,29.4c0,0-1,2.1-1,2.7c0.1,0.5,0.3,0.9,1,1.3"></path><path class="st23" d="M41.7,29.9c0,0,0.3,2.6,0.4,3.2c0.1,0.6,0.2,1.3,0.7,1.5"></path><path class="st24" d="M46.2,29.2c-0.1,0.1-0.3,0.1-0.5,0c-0.2-0.1-0.3-0.3-0.3-0.4c0.1-0.1,0.3-0.1,0.5,0
	C46.2,28.9,46.3,29.1,46.2,29.2"></path><path class="st24" d="M45.1,29.4c-0.1,0.1-0.3,0-0.6-0.1c-0.3-0.2-0.5-0.4-0.4-0.5c0.1-0.1,0.3,0,0.6,0.1
	C45,29.1,45.2,29.3,45.1,29.4"></path><path class="st24" d="M42.3,28.9c-0.1,0.1-0.2,0.1-0.4,0c-0.2-0.1-0.2-0.3-0.2-0.4c0.1-0.1,0.2-0.1,0.4,0
	C42.3,28.6,42.4,28.8,42.3,28.9"></path><path class="st24" d="M42.9,29.6c-0.1,0.1-0.2,0.1-0.4-0.1c-0.2-0.1-0.3-0.3-0.3-0.4c0-0.1,0.2-0.1,0.4,0.1
	C42.8,29.4,42.9,29.5,42.9,29.6"></path><path class="st24" d="M42.1,30c0,0.1-0.2,0-0.4-0.1c-0.2-0.1-0.3-0.3-0.3-0.3c0-0.1,0.2,0,0.4,0.1C42,29.8,42.1,29.9,42.1,30"></path><path class="st24" d="M43.1,30.9c-0.1,0.1-0.2,0.1-0.3,0c-0.1-0.1-0.2-0.2-0.1-0.3c0.1-0.1,0.2-0.1,0.3,0
	C43.1,30.6,43.2,30.8,43.1,30.9"></path><path class="st24" d="M44.9,31.1c-0.1,0.1-0.3,0.1-0.4,0c-0.2-0.1-0.2-0.3-0.2-0.4c0.1-0.1,0.3-0.1,0.4,0C44.9,30.8,45,31,44.9,31.1
	"></path><path class="st25" d="M45.3,31.7c0.2,0.4,0.4,1,0,1.2c-0.3,0.2-0.5,0.2-0.7-0.4c-0.2-0.6-0.1-3.1,0.5-4.6"></path><path class="st25" d="M44.7,32.9c-0.1,0.2-0.8,0.7-1.1,0c-0.3-0.7,0.2-2.7,0.4-3"></path><path class="st25" d="M44,28.2c0,0-1.3,3.6-1.3,4c0,0.4-0.1,1.6,0.8,1.3"></path><path class="st25" d="M42.1,29.7c0,0-0.3,2.7-0.2,3c0.1,0.3,0.3,1,0.8,1"></path><path class="st25" d="M41.3,27.7c0,0-0.1,3.3,0.3,3.6c0.3,0.2,0.5,0.3,0.8,0.4c0.3,0.1,0.8,0.1,1,0.3"></path><path class="st25" d="M41.8,28.4c0,0-1,2.1-1,2.7c0.1,0.5,0.3,0.9,1,1.3"></path><path class="st25" d="M41.1,28.8c0,0,0.3,2.6,0.4,3.2c0.1,0.6,0.2,1.3,0.7,1.5"></path><path class="st26" d="M45.6,28.2c-0.1,0.1-0.3,0.1-0.5,0c-0.2-0.1-0.3-0.3-0.3-0.4c0.1-0.1,0.3-0.1,0.5,0
	C45.5,27.9,45.6,28.1,45.6,28.2"></path><path class="st26" d="M44.5,28.4c-0.1,0.1-0.3,0-0.6-0.1c-0.3-0.2-0.5-0.4-0.4-0.5c0.1-0.1,0.3,0,0.6,0.1
	C44.3,28.1,44.5,28.3,44.5,28.4"></path><path class="st26" d="M41.7,27.8c-0.1,0.1-0.2,0.1-0.4,0c-0.2-0.1-0.2-0.3-0.2-0.4c0.1-0.1,0.2-0.1,0.4,0
	C41.7,27.6,41.8,27.7,41.7,27.8"></path><path class="st26" d="M42.3,28.6c0,0.1-0.2,0.1-0.4-0.1c-0.2-0.1-0.3-0.3-0.3-0.4c0-0.1,0.2-0.1,0.4,0.1
	C42.2,28.3,42.3,28.5,42.3,28.6"></path><path class="st26" d="M41.4,28.9c0,0.1-0.2,0-0.4-0.1c-0.2-0.1-0.3-0.3-0.3-0.3c0-0.1,0.2,0,0.4,0.1C41.4,28.7,41.5,28.8,41.4,28.9"></path><path class="st26" d="M42.5,29.8c-0.1,0.1-0.2,0.1-0.3,0c-0.1-0.1-0.2-0.2-0.1-0.3c0.1-0.1,0.2-0.1,0.3,0
	C42.5,29.6,42.5,29.7,42.5,29.8"></path><path class="st26" d="M44.3,30c-0.1,0.1-0.3,0.1-0.4,0c-0.2-0.1-0.2-0.3-0.2-0.4c0.1-0.1,0.3-0.1,0.4,0C44.3,29.8,44.4,29.9,44.3,30
	"></path><path class="st25" d="M45.7,32.6c0.2,0.4,0.4,1,0,1.2c-0.3,0.2-0.5,0.2-0.7-0.4c-0.2-0.6-0.1-3.1,0.5-4.6"></path><path class="st25" d="M45.1,33.8c-0.1,0.2-0.8,0.7-1.1,0c-0.3-0.7,0.2-2.7,0.4-3"></path><path class="st25" d="M44.4,29c0,0-1.3,3.6-1.3,4c0,0.4-0.1,1.6,0.8,1.4"></path><path class="st25" d="M42.5,30.5c0,0-0.3,2.7-0.2,3c0.1,0.3,0.3,1,0.8,1"></path><path class="st25" d="M41.7,28.6c0,0-0.1,3.3,0.3,3.6c0.3,0.2,0.5,0.3,0.8,0.4c0.3,0.1,0.8,0.1,1,0.3"></path><path class="st25" d="M42.2,29.2c0,0-1,2.1-1,2.7c0.1,0.5,0.3,0.9,1,1.3"></path><path class="st25" d="M41.5,29.6c0,0,0.3,2.6,0.4,3.2c0.1,0.6,0.2,1.3,0.7,1.5"></path><path class="st26" d="M45.9,29c-0.1,0.1-0.3,0.1-0.5,0c-0.2-0.1-0.3-0.3-0.3-0.4c0.1-0.1,0.3-0.1,0.5,0C45.9,28.7,46,28.9,45.9,29"></path><path class="st26" d="M44.9,29.2c-0.1,0.1-0.3,0-0.6-0.1c-0.3-0.2-0.5-0.4-0.4-0.5c0.1-0.1,0.3,0,0.6,0.1
	C44.7,28.9,44.9,29.1,44.9,29.2"></path><path class="st26" d="M42.1,28.7c-0.1,0.1-0.2,0.1-0.4,0c-0.2-0.1-0.2-0.3-0.2-0.4c0.1-0.1,0.2-0.1,0.4,0
	C42.1,28.4,42.1,28.6,42.1,28.7"></path><path class="st26" d="M42.6,29.4c-0.1,0.1-0.2,0.1-0.4-0.1c-0.2-0.1-0.3-0.3-0.3-0.4c0.1-0.1,0.2-0.1,0.4,0.1
	C42.6,29.2,42.7,29.3,42.6,29.4"></path><path class="st26" d="M41.8,29.8c0,0.1-0.2,0-0.4-0.1c-0.2-0.1-0.3-0.3-0.3-0.3c0-0.1,0.2,0,0.4,0.1C41.8,29.6,41.9,29.7,41.8,29.8"></path><path class="st26" d="M42.8,30.6c-0.1,0.1-0.2,0.1-0.3,0c-0.1-0.1-0.2-0.2-0.1-0.3c0.1-0.1,0.2-0.1,0.3,0
	C42.8,30.4,42.9,30.6,42.8,30.6"></path><path class="st26" d="M44.7,30.9c-0.1,0.1-0.3,0.1-0.4,0c-0.2-0.1-0.2-0.3-0.2-0.4c0.1-0.1,0.3-0.1,0.4,0
	C44.7,30.6,44.8,30.8,44.7,30.9"></path><path class="st17" d="M21.9,80.4C21.9,80.4,21.9,80.4,21.9,80.4C21.9,80.4,21.9,80.4,21.9,80.4z"></path><path class="st17" d="M21.9,80.4C21.9,80.4,21.9,80.4,21.9,80.4L21.9,80.4z"></path><path class="st27" d="M28.8,64.3c0,0,0.1-0.2,0.2-0.4c3.5-1.4,12.5-5.1,13.9-5.4c1-0.2,2.8-0.5,4.2-0.7c0.1,0.4,0.1,0.9-0.1,1.1
	c-0.5,0.4-2.4,1.1-2.7,2.6c-0.3,1.5-0.3,2.9-1.1,3.5c-0.8,0.7-0.5,1.3-3.2,0.4c-2.7-0.9-7.5-0.5-7.9-0.5S28.8,64.3,28.8,64.3z"></path><path class="st28" d="M29.1,63.8c0.9-1.6,3.9-7.2,4.9-8.3c1.2-1.3,2.2-2.4,5-2.1c2.8,0.3,7.1,2.6,7.7,3.2c0.3,0.3,0.5,0.7,0.6,1.1
	C45.8,58,44,58.2,43,58.4C41.6,58.8,32.6,62.4,29.1,63.8z"></path><path class="st17" d="M43,73.8c-0.8-0.2-4.9-1.9-7.2-3.4c-1.6-1-4.3-3.6-6-5.3c0.4,0,0.8-0.2,1.3-0.5c0.9-0.6,5.8-0.1,7.2-0.1
	c1.4,0,2.8,1.3,3.5,1.9c0.7,0.5,1.5,1.1,2.4,5.1c0.3,1.6,0.7,2.4,1,2.7C44.1,74.2,43.6,73.9,43,73.8z"></path><path class="st17" d="M45.2,74.1c0.3,0,0.6,0,0.9-0.1c0,0-0.2,0.1-0.6,0.2C45.5,74.3,45.3,74.3,45.2,74.1z"></path><path class="st17" d="M45.6,74.3c0.3-0.1,0.6-0.2,0.6-0.2S45.9,74.4,45.6,74.3z"></path><path class="st14" d="M42.8,75.6c-1.2,0.5-4,3.1-6.1,3c-2.1-0.1-3.6-2.6-4.1-3.9S29.2,67,29.2,67l0-1.9c0,0,0.2,0,0.5,0
	c1.7,1.7,4.4,4.3,6,5.3c2.3,1.5,6.4,3.2,7.2,3.4c0.6,0.2,1.2,0.4,2.3,0.4c0.1,0.1,0.2,0.2,0.4,0.2C44.9,74.7,43.6,75.2,42.8,75.6z"></path><path class="st14" d="M26.2,71.5c-0.5,0.7-3.1,8.1-3.8,9.4c0,0,0.7-3.5,1-4.9c0.2-1.4,0-0.9-0.7-1.9c-0.7-1-1.8-3.8-1.4-5.4
	c0.4-1.7,5.9-2.7,5.9-2.7l2.7-0.7c-0.3,0.8-0.7,2-0.8,2.4C29.1,68.3,26.7,70.7,26.2,71.5z"></path><path class="st16" d="M30.2,68.3c0.3,0.7,0.8,1.5,1.3,2.7c0.5,1.2-0.2,2.9-0.4,5c-0.2,2.2-2.2,2.6-3.1,3.4c-1,0.8-5.6,1.5-5.6,1.5
	c0.7-1.3,3.3-8.7,3.8-9.4c0.5-0.7,2.9-3.2,3-3.8c0-0.4,0.5-1.6,0.8-2.4l0.2-0.1C30.2,65.2,30,67.6,30.2,68.3z"></path><path class="st14" d="M29.2,65.1c-0.5,0-7.5,0.5-8.3,0.5s-8.9-0.7-10.7-1.5c0,0,3.9,0.3,4.8-0.4c0.9-0.6,2.8-2.7,3.2-2.8
	c0.4-0.1,2.3,0.8,3.2,0.3c0.9-0.5,6.9,2.4,7.3,3.1c0.5,0.7,1.4,2.1,1.4,2.1l-0.7,0.5C29.5,65.8,29.4,65.1,29.2,65.1z"></path><path class="st17" d="M24.1,68.1c-0.7,0.1-3.2,0.7-4.1,1.8c-0.8,1.1-3,0.9-4-0.4c-1-1.3-1.1-1.8-2.4-3c-1.3-1.2-3.4-2.5-3.4-2.5
	c1.8,0.8,9.9,1.5,10.7,1.5s7.8-0.5,8.3-0.5c0.1,0,0.2,0.7,0.3,1.8l-1,0.7C28.2,67.5,24.8,68,24.1,68.1z"></path><path class="st14" d="M27.6,59c0-1-0.5-6.2-2.8-10.3c0,0,1.8,1.6,3.1,1.7c1.3,0.1,5.2,2.3,5.1,3.2c-0.1,1-0.5,3-0.9,4
	c-0.4,0.9-1.6,4-1.6,4.7c0,0.8-0.5,2.8-0.5,2.8L29.5,65c-0.5-1-1-1.8-1-1.8S27.7,60,27.6,59z"></path><path class="st16" d="M22.4,60.7c-1.1-2.2-1.6-2.2-0.9-3.6c0.6-1.4,0.6-0.7,2-3c1.4-2.3,1.6-2.8,1.5-3.7s-0.1-1.7-0.1-1.7
	c2.3,4.1,2.7,9.4,2.8,10.3c0,1,0.9,4.3,0.9,4.3s0.5,0.8,1,1.8l-2.6-0.6C26.8,64.4,23.5,62.9,22.4,60.7z"></path><path class="st29" d="M20.7,70.9c0,0,4.2-2.5,4.7-2.6c0.4-0.2,0.6-0.1,0.9-0.2c0.3-0.1,1.6-0.5,1.8-0.8c0.1-0.3-1-0.1-1-0.1
	s-1.4,1-1.8,0.7c-0.4-0.3-0.3-0.1-0.7-1c-0.4-0.9-0.7-1.4-0.7-1.4l1.6-0.7c0,0,0.9-0.3,1-0.5c0.1-0.2-0.5,0-1,0
	c-0.4,0-1.1,0.2-1.7-0.1c-0.5-0.3-1.2-0.9-1.3-1c-0.1-0.1,0.6-0.3,0.6-0.3l1.7,0.4c0,0,0.4,0.5,0.8,0.3c0.4-0.2,1-0.1,0.3-0.4
	c-0.7-0.3-2.1-0.7-2.1-0.7s-0.9-0.7-0.8-1c0.1-0.3,1.2-0.3,1.2-0.3l1.1,0.7l0.9,0.2l-0.6-0.8l-1.1-0.8c0,0,0.5-0.3,1.1,0.2
	c0.5,0.5,1.2,1.4,1.5,1c0.3-0.4,0.2-0.4,0.4-0.6c0.1-0.2,0.4-0.4,0.7-0.1c0.3,0.4,0.5,1.2,0.6,0.4c0.1-0.8-0.1-1-0.1-1.4
	c-0.1-0.4-0.2-1.1,0.3-0.6c0.5,0.5,0.5,0.4,0.8,0.9c0.3,0.5-0.3-0.7-0.3-0.7l-0.5-2c0,0,0-1-0.1-1.2c-0.1-0.2-0.4-0.7-0.1-0.2
	c0.3,0.5,0.8,2.2,0.8,2.2s0.6,1.7,0.8,2c0.2,0.3,0.6,1.3,0.7,1c0.2-0.4,0-0.7-0.2-1.2c-0.2-0.4-1-2.8-1-2.8s-0.5-2.4-0.5-3.1
	c0-0.6,0.2-1.5,0.2-1.5l0.4,1.3l0.5,3.8c0,0,1.3,3.2,1.4,3.5c0.1,0.2,0.2,0.8,0.5,1c0.3,0.2,0.9-0.3,0.9-0.3l0.3-1.6l-0.5-1.5
	l-0.4-2.6L31.6,55l0.4,0.5l0.5,1.8l0.6,1.8l0.4,2.5c0,0-0.5,0.8-0.2,1.1c0.3,0.3,0.4,0.5,0.7,0.3c0.4-0.1,0.6-0.3,0.6-0.3l0.3,0.1
	l-0.6,0.6l0.4,0.3l0.5-0.4l0.5-0.4c0,0,0.2,0.4-0.3,0.7c-0.4,0.2-0.7,0.3-0.7,0.3l0.2,0.3c0,0,0.4-0.3,0.4-0.1
	c0,0.2-0.3,0.3-0.3,0.3l-0.3,0.4c0,0,0.4,0,0.2,0.3c-0.2,0.3-0.5,0.4-0.5,0.4l-0.3,0.9l1.4,0.9l3,2.1l1.8,1.4l0.7,0.9L40.8,72
	l-2.4-2c0,0-2.7-1.8-3.5-2.5c-0.8-0.7-1.4-0.6-1.4-0.6l-0.4,0.8l2.4,2.9l1.7,1.4l-2.8-0.9l-1.9-1.6l-0.7-0.2c0,0-0.2,1.7-0.1,2.4
	c0.1,0.7,0.5,3.3,0.5,3.3l0.3,1.9l-0.6-0.7l-0.6-3.4l-0.3-2.5l-0.7,0.2l-0.5,1.8l0.3,2.2l-0.7-1.1l0-2.9l-1-0.9c0,0-1.5,1.1-2.2,0.9
	c-0.8-0.2-0.9-0.3-0.6-0.8c0.3-0.6,0.2-1,0.2-1l-1.2,0.4c0,0-1.1,0.5-1.2,0.5C22.9,69.9,21.1,70.7,20.7,70.9"></path><path class="st20" d="M28.7,63c0-0.2,1.2,0.2,1.8-0.1c0.5-0.3,0.9-0.4,0.9-0.4s0.8,0.3,1.4,0.4c0.6,0.1,0.7,0,1,0.2
	c0.3,0.2,0.6,0.7,0.6,0.7l0.2,1.1L34.4,66c0,0-0.8,1.5-1.3,1.9c-0.5,0.4-0.7,0.9-0.7,0.9L32,69.1L30.2,70l-0.2-0.8l-1.5,0
	c0,0-0.7-0.1-1-1.4c-0.3-1.3-0.4-1.5-0.5-2.1c-0.1-0.5-0.1-0.6,0.1-0.9c0.3-0.3,0.4-0.7,0.4-0.7L27,63.4l0.7-0.2l0.3-0.6
	c0,0-0.2-0.1-0.1-0.3c0-0.2,0.5-0.3,0.5-0.3"></path><path class="st21" d="M29,64.4c0-0.1,0-0.1,0-0.2c-0.1-0.2-0.2-0.5,0.5-0.4c0.8,0.1,1.4,0,1.6,0.3c0.2,0.3,0.2,0.6,0.5,1.1
	c0.3,0.5,0.4,1.5,0.4,1.5l-0.8,0.9c0,0-0.6,0.3-1.1,0.3c-0.5-0.1-0.7,0.2-0.8-0.4c-0.1-0.6,0-0.8-0.3-1.3c-0.2-0.4-0.3-1-0.3-1
	l0.5-0.5"></path><path class="st22" d="M30.1,64.3c0-0.1,0-0.1,0-0.2c-0.1-0.2-0.2-0.5,0.5-0.4c0.8,0.1,1.4,0,1.6,0.3c0.2,0.3,0.2,0.6,0.5,1.1
	c0.3,0.5,0.4,1.5,0.4,1.5l-0.8,0.9c0,0-0.6,0.3-1.1,0.3c-0.5-0.1-0.7,0.2-0.8-0.4c-0.1-0.6,0-0.8-0.3-1.3c-0.2-0.4-0.3-1-0.3-1
	l0.5-0.5"></path><path class="st30" d="M31.1,67.2c0.3,0.1,0.7,0.3,0.8,0.1c0.1-0.2,0.2-0.3-0.3-0.5c-0.4-0.2-2.2-0.3-3.2,0.1"></path><path class="st30" d="M32,66.8c0.2-0.1,0.6-0.5,0.1-0.8c-0.5-0.2-1.9-0.1-2.1,0"></path><path class="st30" d="M28.8,66c0,0,2.6-0.6,2.9-0.6c0.3,0.1,1.1,0.1,0.9,0.6"></path><path class="st30" d="M29.9,64.8c0,0,1.9,0,2.1,0.1c0.2,0.1,0.7,0.3,0.7,0.6"></path><path class="st30" d="M28.7,64.1c0,0,2.3,0.2,2.5,0.4c0.1,0.3,0.2,0.4,0.2,0.6c0,0.2,0,0.6,0.2,0.7"></path><path class="st30" d="M29,64.5c0,0,1.5-0.6,1.9-0.5c0.4,0.1,0.6,0.3,0.8,0.8"></path><path class="st30" d="M29.4,64c0,0,1.8,0.4,2.2,0.5c0.4,0.1,0.8,0.3,1,0.6"></path><path class="st24" d="M28.7,67.1c0.1,0,0.1-0.2,0-0.3c-0.1-0.2-0.2-0.2-0.3-0.2c-0.1,0-0.1,0.2,0,0.3C28.5,67.1,28.6,67.2,28.7,67.1
	"></path><path class="st24" d="M28.9,66.4c0.1,0,0-0.2-0.1-0.4c-0.1-0.2-0.2-0.3-0.3-0.3c-0.1,0,0,0.2,0.1,0.4C28.7,66.3,28.8,66.4,28.9,66.4
	"></path><path class="st24" d="M28.7,64.4c0.1,0,0.1-0.2,0-0.3C28.7,64,28.6,64,28.5,64c-0.1,0-0.1,0.2,0,0.3C28.5,64.4,28.6,64.5,28.7,64.4"></path><path class="st24" d="M29.2,64.8c0.1,0,0.1-0.2,0-0.3c-0.1-0.1-0.2-0.2-0.2-0.2c-0.1,0-0.1,0.2,0,0.3C29,64.8,29.1,64.9,29.2,64.8"></path><path class="st24" d="M29.5,64.3c0.1,0,0-0.2,0-0.3c-0.1-0.1-0.2-0.2-0.2-0.2c-0.1,0,0,0.2,0,0.3C29.3,64.2,29.4,64.3,29.5,64.3"></path><path class="st24" d="M30,65.1c0.1,0,0.1-0.1,0-0.2c0-0.1-0.1-0.2-0.2-0.1c-0.1,0-0.1,0.1,0,0.2C29.8,65.1,29.9,65.1,30,65.1"></path><path class="st24" d="M30,66.4c0.1,0,0.1-0.2,0.1-0.3C30,66,29.9,65.9,29.8,66c-0.1,0-0.1,0.2-0.1,0.3C29.8,66.3,30,66.4,30,66.4"></path><path class="st30" d="M31.3,67.4c0.3,0.1,0.7,0.3,0.8,0.1c0.1-0.2,0.2-0.3-0.3-0.5c-0.4-0.2-2.2-0.3-3.2,0.1"></path><path class="st30" d="M32.2,67.1c0.2-0.1,0.6-0.5,0.1-0.8c-0.5-0.2-1.9-0.1-2.1,0"></path><path class="st30" d="M28.9,66.3c0,0,2.6-0.6,2.9-0.6c0.3,0.1,1.1,0.1,0.9,0.6"></path><path class="st30" d="M30.1,65.1c0,0,1.9,0,2.1,0.1c0.2,0.1,0.7,0.3,0.7,0.6"></path><path class="st30" d="M28.8,64.4c0,0,2.3,0.2,2.5,0.4c0.1,0.3,0.2,0.4,0.2,0.6c0,0.2,0,0.6,0.2,0.7"></path><path class="st30" d="M29.2,64.8c0,0,1.5-0.6,1.9-0.5c0.4,0.1,0.6,0.3,0.8,0.8"></path><path class="st30" d="M29.5,64.3c0,0,1.8,0.4,2.2,0.5c0.4,0.1,0.8,0.3,1,0.6"></path><path class="st24" d="M28.8,67.4c0.1,0,0.1-0.2,0-0.3c-0.1-0.2-0.2-0.2-0.3-0.2c-0.1,0-0.1,0.2,0,0.3C28.6,67.3,28.7,67.4,28.8,67.4
	"></path><path class="st24" d="M29,66.6c0.1,0,0-0.2-0.1-0.4c-0.1-0.2-0.2-0.3-0.3-0.3c-0.1,0,0,0.2,0.1,0.4C28.8,66.5,29,66.7,29,66.6"></path><path class="st24" d="M28.9,64.7c0.1,0,0.1-0.2,0-0.3c-0.1-0.1-0.2-0.2-0.2-0.1c-0.1,0-0.1,0.2,0,0.3C28.7,64.6,28.8,64.7,28.9,64.7
	"></path><path class="st24" d="M29.3,65.1c0.1,0,0.1-0.2,0-0.3c-0.1-0.1-0.2-0.2-0.2-0.2c-0.1,0-0.1,0.2,0,0.3C29.1,65,29.2,65.1,29.3,65.1"></path><path class="st24" d="M29.6,64.6c0.1,0,0-0.2,0-0.3c-0.1-0.1-0.2-0.2-0.2-0.2c-0.1,0,0,0.2,0,0.3C29.5,64.5,29.6,64.6,29.6,64.6"></path><path class="st24" d="M30.1,65.3c0.1,0,0.1-0.1,0-0.2c0-0.1-0.1-0.2-0.2-0.1c-0.1,0-0.1,0.1,0,0.2C30,65.3,30.1,65.4,30.1,65.3"></path><path class="st24" d="M30.2,66.6c0.1,0,0.1-0.2,0.1-0.3c-0.1-0.1-0.2-0.2-0.3-0.1c-0.1,0-0.1,0.2-0.1,0.3
	C30,66.6,30.1,66.7,30.2,66.6"></path><path class="st30" d="M31.4,67.6c0.3,0.1,0.7,0.3,0.8,0.1c0.1-0.2,0.2-0.3-0.3-0.5c-0.4-0.2-2.2-0.3-3.2,0.1"></path><path class="st30" d="M32.3,67.3c0.2-0.1,0.6-0.5,0.1-0.8c-0.5-0.3-1.9-0.1-2.1,0"></path><path class="st30" d="M29.1,66.5c0,0,2.6-0.6,2.9-0.6c0.3,0.1,1.1,0.1,0.9,0.6"></path><path class="st30" d="M30.2,65.3c0,0,1.9,0,2.1,0.1c0.2,0.1,0.7,0.3,0.7,0.6"></path><path class="st30" d="M29,64.6c0,0,2.3,0.2,2.5,0.4c0.1,0.3,0.2,0.4,0.2,0.6c0,0.2,0,0.6,0.2,0.7"></path><path class="st30" d="M29.3,65c0,0,1.5-0.6,1.9-0.5c0.4,0.1,0.6,0.3,0.8,0.8"></path><path class="st30" d="M29.7,64.5c0,0,1.8,0.4,2.2,0.5c0.4,0.1,0.9,0.3,1,0.6"></path><path class="st24" d="M29,67.6c0.1,0,0.1-0.2,0-0.3c-0.1-0.2-0.2-0.2-0.3-0.2c-0.1,0-0.1,0.2,0,0.3C28.8,67.6,28.9,67.6,29,67.6"></path><path class="st24" d="M29.2,66.9c0.1,0,0-0.2-0.1-0.4c-0.1-0.2-0.2-0.3-0.3-0.3c-0.1,0,0,0.2,0.1,0.4C29,66.8,29.1,66.9,29.2,66.9"></path><path class="st24" d="M29,64.9c0.1,0,0.1-0.2,0-0.3c-0.1-0.1-0.2-0.2-0.2-0.1c-0.1,0-0.1,0.2,0,0.3C28.8,64.9,28.9,64.9,29,64.9"></path><path class="st24" d="M29.5,65.3c0.1,0,0.1-0.2,0-0.3c-0.1-0.1-0.2-0.2-0.2-0.2c-0.1,0-0.1,0.2,0,0.3C29.3,65.3,29.4,65.4,29.5,65.3
	"></path><path class="st24" d="M29.8,64.8c0.1,0,0-0.2,0-0.3c-0.1-0.1-0.2-0.2-0.2-0.2c-0.1,0,0,0.2,0,0.3C29.6,64.7,29.7,64.8,29.8,64.8"></path><path class="st24" d="M30.3,65.6c0.1,0,0.1-0.1,0-0.2c0-0.1-0.1-0.2-0.2-0.1c-0.1,0-0.1,0.1,0,0.2C30.1,65.5,30.2,65.6,30.3,65.6"></path><path class="st24" d="M30.3,66.9c0.1,0,0.1-0.2,0.1-0.3c-0.1-0.1-0.2-0.2-0.3-0.1c-0.1,0-0.1,0.2-0.1,0.3
	C30.2,66.8,30.3,66.9,30.3,66.9"></path><path class="st31" d="M30.7,67.1c0.3,0.1,0.7,0.3,0.8,0.1c0.1-0.2,0.2-0.3-0.3-0.5c-0.4-0.2-2.2-0.3-3.2,0.1"></path><path class="st31" d="M31.6,66.8c0.2-0.1,0.6-0.5,0.1-0.8c-0.5-0.3-1.9-0.1-2.1,0"></path><path class="st31" d="M28.4,66c0,0,2.6-0.6,2.9-0.6c0.3,0.1,1.1,0.1,0.9,0.6"></path><path class="st31" d="M29.5,64.8c0,0,1.9,0,2.1,0.1c0.2,0.1,0.7,0.3,0.7,0.6"></path><path class="st31" d="M28.3,64.1c0,0,2.3,0.2,2.5,0.4c0.1,0.3,0.2,0.4,0.2,0.6c0,0.2,0,0.6,0.2,0.7"></path><path class="st31" d="M28.6,64.5c0,0,1.5-0.6,1.9-0.5c0.4,0.1,0.6,0.3,0.8,0.8"></path><path class="st31" d="M29,64c0,0,1.8,0.4,2.2,0.5c0.4,0.1,0.8,0.3,1,0.6"></path><path class="st26" d="M28.3,67.1c0.1,0,0.1-0.2,0-0.3c-0.1-0.2-0.2-0.2-0.3-0.2c-0.1,0-0.1,0.2,0,0.3C28.1,67,28.2,67.1,28.3,67.1"></path><path class="st26" d="M28.5,66.3c0.1,0,0-0.2-0.1-0.4c-0.1-0.2-0.2-0.3-0.3-0.3c-0.1,0,0,0.2,0.1,0.4C28.3,66.2,28.4,66.4,28.5,66.3
	"></path><path class="st26" d="M28.3,64.4c0.1,0,0.1-0.2,0-0.3c-0.1-0.1-0.2-0.2-0.2-0.1c-0.1,0-0.1,0.2,0,0.3C28.1,64.4,28.2,64.4,28.3,64.4
	"></path><path class="st26" d="M28.8,64.8c0.1,0,0.1-0.2,0-0.3c-0.1-0.1-0.2-0.2-0.2-0.2c-0.1,0-0.1,0.2,0,0.3C28.6,64.8,28.7,64.8,28.8,64.8
	"></path><path class="st26" d="M29.1,64.3c0.1,0,0-0.2,0-0.3c-0.1-0.1-0.2-0.2-0.2-0.2c-0.1,0,0,0.2,0,0.3C28.9,64.2,29,64.3,29.1,64.3"></path><path class="st26" d="M29.6,65.1c0.1,0,0.1-0.1,0-0.2c0-0.1-0.1-0.2-0.2-0.1c-0.1,0-0.1,0.1,0,0.2C29.4,65,29.5,65.1,29.6,65.1"></path><path class="st26" d="M29.6,66.3c0.1,0,0.1-0.2,0.1-0.3c-0.1-0.1-0.2-0.2-0.3-0.1c-0.1,0-0.1,0.2-0.1,0.3
	C29.5,66.3,29.6,66.4,29.6,66.3"></path><path class="st31" d="M31.3,67.4c0.3,0.1,0.7,0.3,0.8,0.1c0.1-0.2,0.2-0.3-0.3-0.5c-0.4-0.2-2.2-0.3-3.2,0.1"></path><path class="st31" d="M32.2,67.1c0.2-0.1,0.6-0.5,0.1-0.8c-0.5-0.2-1.9-0.1-2.1,0"></path><path class="st31" d="M28.9,66.3c0,0,2.6-0.6,2.9-0.6c0.3,0.1,1.1,0.1,0.9,0.6"></path><path class="st31" d="M30.1,65.1c0,0,1.9,0,2.1,0.1c0.2,0.1,0.7,0.3,0.7,0.6"></path><path class="st31" d="M28.8,64.4c0,0,2.3,0.2,2.5,0.4c0.1,0.3,0.2,0.4,0.2,0.6c0,0.2,0,0.6,0.2,0.7"></path><path class="st31" d="M29.2,64.8c0,0,1.5-0.6,1.9-0.5c0.4,0.1,0.6,0.3,0.8,0.8"></path><path class="st31" d="M29.6,64.3c0,0,1.8,0.4,2.2,0.5c0.4,0.1,0.8,0.3,1,0.6"></path><path class="st26" d="M28.8,67.4c0.1,0,0.1-0.2,0-0.3c-0.1-0.2-0.2-0.2-0.3-0.2c-0.1,0-0.1,0.2,0,0.3C28.6,67.4,28.8,67.4,28.8,67.4
	"></path><path class="st26" d="M29,66.7c0.1,0,0-0.2-0.1-0.4c-0.1-0.2-0.2-0.3-0.3-0.3c-0.1,0,0,0.2,0.1,0.4C28.8,66.6,29,66.7,29,66.7"></path><path class="st26" d="M28.9,64.7c0.1,0,0.1-0.2,0-0.3c-0.1-0.1-0.2-0.2-0.2-0.1c-0.1,0-0.1,0.2,0,0.3C28.7,64.7,28.8,64.7,28.9,64.7
	"></path><path class="st26" d="M29.3,65.1c0.1,0,0.1-0.2,0-0.3c-0.1-0.1-0.2-0.2-0.2-0.2c-0.1,0-0.1,0.2,0,0.3C29.2,65.1,29.3,65.2,29.3,65.1
	"></path><path class="st26" d="M29.6,64.6c0.1,0,0-0.2,0-0.3c-0.1-0.1-0.2-0.2-0.2-0.2c-0.1,0,0,0.2,0,0.3C29.5,64.5,29.6,64.6,29.6,64.6"></path><path class="st26" d="M30.2,65.4c0.1,0,0.1-0.1,0-0.2c0-0.1-0.1-0.2-0.2-0.1c-0.1,0-0.1,0.1,0,0.2C30,65.4,30.1,65.4,30.2,65.4"></path><path class="st26" d="M30.2,66.7c0.1,0,0.1-0.2,0.1-0.3c-0.1-0.1-0.2-0.2-0.3-0.1c-0.1,0-0.1,0.2-0.1,0.3
	C30,66.6,30.1,66.7,30.2,66.7"></path><path class="st17" d="M94.5,50.6C94.5,50.6,94.5,50.6,94.5,50.6C94.5,50.6,94.5,50.6,94.5,50.6z"></path><path class="st17" d="M94.5,50.6C94.4,50.7,94.4,50.7,94.5,50.6L94.5,50.6z"></path><path class="st14" d="M66.3,59.7c0,0-0.3,0.1-0.8,0.3c-3,5.7-10.6,20.2-11.3,22.5c-0.5,1.6-1.3,4.6-1.8,7c0.7,0.3,1.4,0.3,1.8,0
	c0.7-0.7,2.2-3.9,4.8-4.1c2.5-0.2,4.9,0,6.1-1.2c1.2-1.2,2.3-0.6,1.2-5.4C65.2,74,66.7,66,66.7,65.3C66.7,64.7,66.3,59.7,66.3,59.7z
	"></path><path class="st17" d="M65.5,60c-2.9,1.2-12.7,5.3-14.7,6.9c-2.3,1.9-4.4,3.3-4.4,8c0,4.7,3.2,12.3,4.2,13.4c0.5,0.5,1.1,0.9,1.7,1.2
	c0.6-2.3,1.3-5.4,1.8-7C54.9,80.1,62.5,65.7,65.5,60z"></path><path class="st17" d="M79.9,85c-0.2-1.3-2.4-8.6-4.5-12.7c-1.4-2.8-5.3-7.9-7.9-11c-0.1,0.6-0.4,1.4-1,2.1
	c-1.1,1.4-1.2,9.8-1.4,12.1c-0.2,2.3,1.8,4.9,2.5,6.2c0.8,1.3,1.5,2.7,8.2,4.8c2.7,0.8,3.9,1.6,4.3,2.2C80.3,87,80,86,79.9,85z"></path><path class="st17" d="M80.1,88.8c0,0.5-0.1,1-0.2,1.5c0,0,0.2-0.4,0.5-0.9C80.4,89.3,80.3,89,80.1,88.8z"></path><path class="st17" d="M80.4,89.4c-0.3,0.5-0.5,0.9-0.5,0.9S80.4,90,80.4,89.4z"></path><path class="st14" d="M82.9,85c1.1-1.9,5.8-6.1,6-9.7c0.2-3.6-3.7-6.5-5.9-7.6s-12.2-6.9-12.2-6.9l-3.2-0.3c0,0,0,0.3-0.1,0.8
	c2.6,3.1,6.5,8.1,7.9,11c2.1,4.1,4.3,11.3,4.5,12.7c0.2,1.1,0.4,2,0.3,3.8c0.2,0.2,0.3,0.4,0.3,0.6C81,88.3,82.2,86.2,82.9,85z"></path><path class="st14" d="M78.8,56.4c1.3-0.8,14.2-3.8,16.4-4.8c0,0-6,0.6-8.3,0.8c-2.3,0.2-1.5-0.1-3.1-1.4s-6-3.6-8.9-3.2
	c-2.9,0.4-5.6,9.5-5.6,9.5l-1.6,4.4c1.4-0.4,3.4-0.9,4.1-0.9C72.9,60.8,77.5,57.2,78.8,56.4z"></path><path class="st16" d="M72.7,62.7c1.1,0.6,2.4,1.6,4.3,2.6c1.9,1,4.8,0.2,8.5,0.2c3.7-0.1,4.7-3.2,6.2-4.7c1.5-1.5,3.5-9.1,3.5-9.1
	c-2.3,1-15.1,4-16.4,4.8c-1.3,0.8-5.9,4.3-6.9,4.3c-0.7,0-2.8,0.5-4.1,0.9L67.6,62C67.6,62,71.6,62.1,72.7,62.7z"></path><path class="st14" d="M67.6,60.5c0.1-0.8,2.1-12.6,2.2-13.9c0.1-1.3,0.2-15-0.8-18.2c0,0-0.2,6.6-1.4,8c-1.2,1.4-5,4.2-5.3,5
	c-0.2,0.7,1,4,0,5.5c-1,1.5,2.8,11.9,3.9,12.8c1.1,0.9,3.3,2.7,3.3,2.7l0.9-1.2C68.7,61,67.6,60.7,67.6,60.5z"></path><path class="st17" d="M73.5,52.3c0.3-1.2,1.8-5.3,3.7-6.5c2-1.2,2.1-5,0-6.9c-2.1-1.9-2.9-2.1-4.6-4.5c-1.8-2.4-3.6-6.1-3.6-6.1
	c1,3.2,0.9,16.9,0.8,18.2c-0.1,1.3-2.1,13-2.2,13.9c0,0.2,1.1,0.5,2.9,0.7l1.3-1.6C71.9,59.1,73.2,53.5,73.5,52.3z"></path><path class="st14" d="M57.6,56.8c-1.6-0.2-10.3-1.9-16.9-6.4c0,0,2.4,3.3,2.4,5.5s3,9.1,4.6,9.2c1.6,0,5.2-0.4,6.8-0.8
	c1.6-0.4,6.9-2,8.2-1.9c1.3,0.1,4.8-0.3,4.8-0.3l-0.2-1.2c-1.6-1-2.8-1.9-2.8-1.9S59.2,57,57.6,56.8z"></path><path class="st16" d="M61.3,48.3c-3.5-2.3-3.5-3-5.9-2.2C53,46.9,54.1,47,50,48.9c-4.1,1.9-5,2.2-6.5,1.9s-2.9-0.4-2.9-0.4
	c6.6,4.5,15.2,6.2,16.9,6.4s7,2.2,7,2.2s1.2,1,2.8,1.9l-0.6-4.5C66.8,56.3,64.8,50.5,61.3,48.3z"></path><path class="st29" d="M78.8,47.1c0,0-4.8,6.7-5.2,7.4c-0.4,0.7-0.3,0.9-0.5,1.4c-0.2,0.5-1.2,2.7-1.7,2.8c-0.5,0.2,0.1-1.7,0.1-1.7
	s1.9-2.2,1.4-2.9c-0.5-0.7-0.1-0.5-1.5-1.4c-1.5-0.9-2.2-1.5-2.2-1.5l-1.5,2.5c0,0-0.6,1.4-1,1.7c-0.4,0.2,0-0.9,0.2-1.6
	c0.1-0.7,0.5-1.9,0-2.9c-0.5-1-1.2-2.2-1.4-2.3c-0.2-0.1-0.5,0.9-0.5,0.9l0.4,2.8c0,0,0.7,0.7,0.4,1.4c-0.4,0.7-0.4,1.7-0.7,0.4
	c-0.3-1.3-0.7-3.7-0.7-3.7s-1-1.6-1.6-1.5c-0.5,0.1-0.7,1.9-0.7,1.9l1,2l0.2,1.6l-1.2-1.2l-1.2-2c0,0-0.6,0.8,0.1,1.8
	c0.7,0.9,2.2,2.2,1.5,2.7c-0.8,0.5-0.7,0.3-1.1,0.6c-0.4,0.2-0.8,0.5-0.2,1.1c0.6,0.6,1.9,1,0.6,1.1c-1.3,0-1.7-0.3-2.3-0.4
	c-0.7-0.2-1.8-0.6-1.1,0.3c0.7,0.9,0.6,0.9,1.4,1.5c0.8,0.6-1.1-0.7-1.1-0.7L55.1,58c0,0-1.8-0.2-2-0.3c-0.2-0.2-1-0.8-0.2-0.2
	c0.8,0.6,3.6,1.7,3.6,1.7s2.8,1.3,3.3,1.6c0.5,0.4,2.1,1.2,1.5,1.4c-0.6,0.2-1.3-0.1-1.9-0.6c-0.7-0.4-4.6-2.2-4.6-2.2
	s-4-1.3-5.1-1.4c-1.1-0.1-2.5,0.1-2.5,0.1l2.1,1l6.3,1.5c0,0,5.2,2.8,5.6,3c0.3,0.2,1.3,0.4,1.6,0.9c0.3,0.5-0.6,1.5-0.6,1.5
	l-2.7,0.2l-2.4-1L52.7,64l-2.5-1.2l0.8,0.8l2.9,1.2l3,1.3l4.1,1.1c0,0,1.4-0.6,1.8-0.1c0.4,0.5,0.7,0.7,0.5,1.3
	c-0.3,0.6-0.6,0.9-0.6,0.9l0.1,0.5l1.1-0.9l0.4,0.6l-0.8,0.8L62.7,71c0,0,0.7,0.3,1.1-0.4c0.5-0.7,0.7-1.1,0.7-1.1l0.6,0.3
	c0,0-0.6,0.6-0.2,0.7c0.3,0.1,0.6-0.5,0.6-0.5l0.7-0.5c0,0-0.1,0.6,0.5,0.3c0.6-0.3,0.8-0.8,0.8-0.8l1.6-0.3l1.3,2.5l3,5.4l2,3.3
	l1.4,1.3l0.5-0.3l-2.9-4.4c0,0-2.6-4.8-3.6-6.3c-1-1.4-0.7-2.5-0.7-2.5l1.3-0.5l4.5,4.5l2.1,3l-1-4.8l-2.4-3.5l-0.3-1.3
	c0,0,2.9,0,4.1,0.3c1.1,0.2,5.5,1.3,5.5,1.3l3.2,0.8l-1.1-1L80.4,65l-4.1-1l0.5-1.1l3.1-0.6l3.7,0.8l-1.7-1.3l-4.8-0.5l-1.3-1.9
	c0,0,2.1-2.3,1.9-3.6c-0.2-1.3-0.3-1.6-1.3-1.1c-1,0.5-1.6,0.1-1.6,0.1l0.9-2c0,0,1-1.8,1-2C76.7,50.6,78.4,47.8,78.8,47.1"></path><path class="st20" d="M64.2,59.2c-0.3,0,0.2,2.1-0.4,2.9c-0.7,0.8-0.9,1.5-0.9,1.5s0.3,1.4,0.4,2.4c0.1,1-0.2,1.2,0.1,1.7
	c0.3,0.5,1,1.1,1,1.1l1.7,0.5l2,0c0,0,2.6-1.1,3.3-1.9c0.7-0.8,1.7-1.1,1.7-1.1l0.7-0.4l1.8-3l-1.4-0.5l0.3-2.5c0,0-0.1-1.2-2.2-1.9
	c-2.1-0.7-2.5-0.9-3.4-1.1c-0.9-0.2-1-0.3-1.5,0.1c-0.5,0.4-1.2,0.6-1.2,0.6l-1.2-0.9l-0.5,1.2l-1.1,0.5c0,0-0.1-0.3-0.4-0.3
	c-0.3,0-0.7,0.8-0.7,0.8"></path><path class="st21" d="M66.5,59.9c-0.1,0-0.2,0-0.4,0c-0.4-0.1-0.8-0.3-0.7,0.7c0.1,1.4-0.2,2.4,0.2,2.8c0.5,0.4,1,0.5,1.8,1.1
	c0.8,0.6,2.4,0.9,2.4,0.9l1.7-1.2c0,0,0.7-1,0.6-1.9c0-0.9,0.5-1.1-0.5-1.4c-1-0.3-1.4-0.2-2.1-0.6c-0.7-0.5-1.6-0.7-1.6-0.7
	l-0.9,0.8"></path><path class="st22" d="M66,61.8c-0.1,0-0.2,0-0.4,0c-0.4-0.1-0.8-0.3-0.7,0.7c0.1,1.4-0.2,2.4,0.2,2.8c0.5,0.4,1,0.5,1.8,1.1
	c0.8,0.6,2.4,0.9,2.4,0.9l1.7-1.2c0,0,0.7-1,0.6-1.9c0-0.9,0.5-1.1-0.5-1.4c-1-0.3-1.4-0.2-2.1-0.6c-0.7-0.5-1.6-0.7-1.6-0.7
	l-0.9,0.8"></path><path class="st32" d="M70.7,64c0.2,0.5,0.4,1.2,0,1.4c-0.4,0.2-0.6,0.2-0.8-0.5c-0.2-0.7-0.2-3.7,0.6-5.4"></path><path class="st32" d="M70,65.5c-0.2,0.3-0.9,0.9-1.3,0c-0.3-0.9,0.2-3.2,0.4-3.5"></path><path class="st32" d="M69.3,59.8c0,0-1.5,4.3-1.5,4.7c0,0.5-0.1,1.9,0.9,1.6"></path><path class="st32" d="M67,61.6c0,0-0.4,3.2-0.2,3.5c0.1,0.4,0.3,1.2,0.9,1.2"></path><path class="st32" d="M66.1,59.4c0,0-0.1,3.9,0.3,4.2c0.4,0.3,0.6,0.4,1,0.5c0.4,0.1,0.9,0.2,1.2,0.4"></path><path class="st32" d="M66.7,60.1c0,0-1.2,2.5-1.2,3.1c0.1,0.6,0.4,1.1,1.2,1.5"></path><path class="st32" d="M65.8,60.6c0,0,0.3,3,0.5,3.7c0.2,0.7,0.3,1.5,0.8,1.7"></path><path class="st24" d="M71.1,59.8c-0.1,0.1-0.3,0.1-0.6,0c-0.2-0.1-0.4-0.4-0.3-0.5c0.1-0.1,0.3-0.1,0.6,0
	C71,59.5,71.1,59.7,71.1,59.8"></path><path class="st24" d="M69.8,60.1c-0.1,0.1-0.4,0-0.7-0.2c-0.3-0.2-0.5-0.4-0.5-0.5c0.1-0.1,0.4,0,0.7,0.2
	C69.6,59.7,69.8,60,69.8,60.1"></path><path class="st24" d="M66.5,59.5c-0.1,0.1-0.3,0.1-0.5,0c-0.2-0.1-0.3-0.3-0.2-0.4c0.1-0.1,0.3-0.1,0.5,0
	C66.5,59.1,66.6,59.3,66.5,59.5"></path><path class="st24" d="M67.2,60.3c-0.1,0.1-0.3,0.1-0.5-0.1c-0.2-0.1-0.4-0.3-0.3-0.4c0.1-0.1,0.3-0.1,0.5,0.1
	C67.1,60,67.2,60.2,67.2,60.3"></path><path class="st24" d="M66.2,60.7c-0.1,0.1-0.3,0.1-0.5-0.1c-0.2-0.1-0.3-0.3-0.3-0.4c0.1-0.1,0.3-0.1,0.5,0.1
	C66.1,60.5,66.3,60.6,66.2,60.7"></path><path class="st24" d="M67.4,61.7c-0.1,0.1-0.2,0.1-0.4,0c-0.2-0.1-0.2-0.3-0.2-0.4c0.1-0.1,0.2-0.1,0.4,0
	C67.4,61.5,67.5,61.6,67.4,61.7"></path><path class="st24" d="M69.6,62c-0.1,0.1-0.3,0.2-0.5,0c-0.2-0.1-0.3-0.3-0.2-0.4c0.1-0.1,0.3-0.2,0.5,0C69.6,61.7,69.7,61.9,69.6,62
	"></path><path class="st32" d="M71.1,64.3c0.2,0.5,0.4,1.2,0,1.4c-0.4,0.2-0.6,0.2-0.8-0.5c-0.2-0.7-0.2-3.7,0.6-5.4"></path><path class="st32" d="M70.4,65.8c-0.2,0.3-0.9,0.9-1.3,0c-0.3-0.9,0.2-3.2,0.4-3.5"></path><path class="st32" d="M69.7,60.1c0,0-1.5,4.3-1.5,4.7c0,0.5-0.1,1.9,0.9,1.6"></path><path class="st32" d="M67.4,61.9c0,0-0.4,3.2-0.2,3.5c0.1,0.4,0.3,1.2,0.9,1.2"></path><path class="st32" d="M66.5,59.7c0,0-0.1,3.9,0.3,4.2c0.4,0.3,0.6,0.4,1,0.5c0.4,0.1,0.9,0.2,1.2,0.4"></path><path class="st32" d="M67.1,60.4c0,0-1.2,2.5-1.2,3.1c0.1,0.6,0.4,1.1,1.2,1.5"></path><path class="st32" d="M66.2,60.9c0,0,0.3,3,0.5,3.7c0.2,0.7,0.3,1.5,0.8,1.7"></path><path class="st24" d="M71.5,60.1c-0.1,0.1-0.3,0.1-0.6,0c-0.2-0.1-0.4-0.4-0.3-0.5c0.1-0.1,0.3-0.1,0.6,0
	C71.4,59.8,71.5,60,71.5,60.1"></path><path class="st24" d="M70.2,60.4c-0.1,0.1-0.4,0-0.7-0.2c-0.3-0.2-0.5-0.4-0.5-0.5c0.1-0.1,0.4,0,0.7,0.2C70,60,70.2,60.3,70.2,60.4
	"></path><path class="st24" d="M66.9,59.8c-0.1,0.1-0.3,0.1-0.5,0c-0.2-0.1-0.3-0.3-0.2-0.4c0.1-0.1,0.3-0.1,0.5,0
	C66.9,59.4,67,59.6,66.9,59.8"></path><path class="st24" d="M67.6,60.6c-0.1,0.1-0.3,0.1-0.5-0.1c-0.2-0.1-0.4-0.3-0.3-0.4c0.1-0.1,0.3-0.1,0.5,0.1
	C67.5,60.3,67.6,60.5,67.6,60.6"></path><path class="st24" d="M66.6,61c-0.1,0.1-0.3,0.1-0.5-0.1c-0.2-0.1-0.3-0.3-0.3-0.4c0.1-0.1,0.3-0.1,0.5,0.1
	C66.5,60.8,66.7,60.9,66.6,61"></path><path class="st24" d="M67.8,62c-0.1,0.1-0.2,0.1-0.4,0c-0.2-0.1-0.2-0.3-0.2-0.4c0.1-0.1,0.2-0.1,0.4,0C67.8,61.8,67.9,61.9,67.8,62
	"></path><path class="st24" d="M70,62.3c-0.1,0.1-0.3,0.2-0.5,0c-0.2-0.1-0.3-0.3-0.2-0.4c0.1-0.1,0.3-0.2,0.5,0C70,62,70.1,62.2,70,62.3"></path><path class="st32" d="M71.5,64.6c0.2,0.5,0.4,1.2,0,1.4c-0.4,0.2-0.6,0.2-0.8-0.5c-0.2-0.7-0.2-3.7,0.6-5.4"></path><path class="st32" d="M70.8,66c-0.2,0.3-0.9,0.9-1.3,0c-0.3-0.9,0.2-3.2,0.4-3.5"></path><path class="st32" d="M70,60.4c0,0-1.5,4.3-1.5,4.7c0,0.5-0.1,1.9,0.9,1.6"></path><path class="st32" d="M67.8,62.2c0,0-0.4,3.2-0.2,3.5c0.1,0.4,0.3,1.2,0.9,1.2"></path><path class="st32" d="M66.8,59.9c0,0-0.1,3.9,0.3,4.2c0.4,0.3,0.6,0.4,1,0.5c0.4,0.1,0.9,0.2,1.2,0.4"></path><path class="st32" d="M67.5,60.7c0,0-1.2,2.5-1.2,3.1c0.1,0.6,0.4,1.1,1.2,1.5"></path><path class="st32" d="M66.6,61.2c0,0,0.3,3,0.5,3.7c0.2,0.7,0.3,1.5,0.8,1.7"></path><path class="st24" d="M71.8,60.4c-0.1,0.1-0.3,0.1-0.6,0C71,60.2,70.9,60,71,59.9c0.1-0.1,0.3-0.1,0.6,0
	C71.8,60.1,71.9,60.3,71.8,60.4"></path><path class="st24" d="M70.6,60.6c-0.1,0.1-0.4,0-0.7-0.2c-0.3-0.2-0.5-0.4-0.5-0.5c0.1-0.1,0.4,0,0.7,0.2
	C70.4,60.3,70.6,60.5,70.6,60.6"></path><path class="st24" d="M67.3,60c-0.1,0.1-0.3,0.1-0.5,0c-0.2-0.1-0.3-0.3-0.2-0.4c0.1-0.1,0.3-0.1,0.5,0C67.3,59.7,67.4,59.9,67.3,60
	"></path><path class="st24" d="M67.9,60.9c-0.1,0.1-0.3,0.1-0.5-0.1c-0.2-0.1-0.4-0.3-0.3-0.4c0.1-0.1,0.3-0.1,0.5,0.1
	C67.9,60.6,68,60.8,67.9,60.9"></path><path class="st24" d="M67,61.3c-0.1,0.1-0.3,0.1-0.5-0.1c-0.2-0.1-0.3-0.3-0.3-0.4c0.1-0.1,0.3-0.1,0.5,0.1C66.9,61,67,61.2,67,61.3
	"></path><path class="st24" d="M68.2,62.3c-0.1,0.1-0.2,0.1-0.4,0c-0.2-0.1-0.2-0.3-0.2-0.4c0.1-0.1,0.2-0.1,0.4,0
	C68.2,62.1,68.3,62.2,68.2,62.3"></path><path class="st24" d="M70.4,62.6c-0.1,0.1-0.3,0.2-0.5,0c-0.2-0.1-0.3-0.3-0.2-0.4c0.1-0.1,0.3-0.2,0.5,0
	C70.4,62.3,70.4,62.5,70.4,62.6"></path><path class="st33" d="M70.7,63.3c0.2,0.5,0.4,1.2,0,1.4c-0.4,0.2-0.6,0.2-0.8-0.5c-0.2-0.7-0.2-3.7,0.6-5.4"></path><path class="st33" d="M70.1,64.8c-0.2,0.3-0.9,0.9-1.3,0c-0.3-0.9,0.2-3.2,0.4-3.5"></path><path class="st33" d="M69.3,59.2c0,0-1.5,4.3-1.5,4.7c0,0.5-0.1,1.9,0.9,1.6"></path><path class="st33" d="M67,60.9c0,0-0.4,3.2-0.2,3.5c0.1,0.4,0.3,1.2,0.9,1.2"></path><path class="st33" d="M66.1,58.7c0,0-0.1,3.9,0.3,4.2c0.4,0.3,0.6,0.4,1,0.5c0.4,0.1,0.9,0.2,1.2,0.4"></path><path class="st33" d="M66.7,59.4c0,0-1.2,2.5-1.2,3.1c0.1,0.6,0.4,1.1,1.2,1.5"></path><path class="st33" d="M65.8,59.9c0,0,0.3,3,0.5,3.7c0.2,0.7,0.3,1.5,0.8,1.7"></path><path class="st26" d="M71.1,59.2c-0.1,0.1-0.3,0.1-0.6,0c-0.2-0.1-0.4-0.4-0.3-0.5c0.1-0.1,0.3-0.1,0.6,0C71,58.8,71.2,59,71.1,59.2
	"></path><path class="st26" d="M69.8,59.4c-0.1,0.1-0.4,0-0.7-0.2c-0.3-0.2-0.5-0.4-0.5-0.5c0.1-0.1,0.4,0,0.7,0.2
	C69.7,59,69.9,59.3,69.8,59.4"></path><path class="st26" d="M66.5,58.8c-0.1,0.1-0.3,0.1-0.5,0c-0.2-0.1-0.3-0.3-0.2-0.4c0.1-0.1,0.3-0.1,0.5,0
	C66.5,58.5,66.6,58.7,66.5,58.8"></path><path class="st26" d="M67.2,59.6c-0.1,0.1-0.3,0.1-0.5-0.1c-0.2-0.1-0.4-0.3-0.3-0.4c0.1-0.1,0.3-0.1,0.5,0.1
	C67.1,59.3,67.3,59.5,67.2,59.6"></path><path class="st26" d="M66.2,60c-0.1,0.1-0.3,0.1-0.5-0.1c-0.2-0.1-0.3-0.3-0.3-0.4c0.1-0.1,0.3-0.1,0.5,0.1
	C66.2,59.8,66.3,60,66.2,60"></path><path class="st26" d="M67.5,61.1c-0.1,0.1-0.2,0.1-0.4,0c-0.2-0.1-0.2-0.3-0.2-0.4c0.1-0.1,0.2-0.1,0.4,0
	C67.4,60.8,67.5,61,67.5,61.1"></path><path class="st26" d="M69.6,61.4c-0.1,0.1-0.3,0.2-0.5,0c-0.2-0.1-0.3-0.3-0.2-0.4c0.1-0.1,0.3-0.2,0.5,0
	C69.6,61,69.7,61.2,69.6,61.4"></path><path class="st33" d="M71.2,64.3c0.2,0.5,0.4,1.2,0,1.4c-0.4,0.2-0.6,0.2-0.8-0.5c-0.2-0.7-0.2-3.7,0.6-5.4"></path><path class="st33" d="M70.5,65.8c-0.2,0.3-0.9,0.9-1.3,0c-0.3-0.9,0.2-3.2,0.4-3.5"></path><path class="st33" d="M69.7,60.2c0,0-1.5,4.3-1.5,4.7c0,0.5-0.1,1.9,0.9,1.6"></path><path class="st33" d="M67.5,62c0,0-0.4,3.2-0.2,3.5c0.1,0.4,0.3,1.2,0.9,1.2"></path><path class="st33" d="M66.5,59.7c0,0-0.1,3.9,0.3,4.2c0.4,0.3,0.6,0.4,1,0.5c0.4,0.1,0.9,0.2,1.2,0.4"></path><path class="st33" d="M67.2,60.4c0,0-1.2,2.5-1.2,3.1c0.1,0.6,0.4,1.1,1.2,1.5"></path><path class="st33" d="M66.3,60.9c0,0,0.3,3,0.5,3.7c0.2,0.7,0.3,1.5,0.8,1.7"></path><path class="st26" d="M71.5,60.2c-0.1,0.1-0.3,0.1-0.6,0c-0.2-0.1-0.4-0.4-0.3-0.5c0.1-0.1,0.3-0.1,0.6,0
	C71.5,59.8,71.6,60.1,71.5,60.2"></path><path class="st26" d="M70.2,60.4c-0.1,0.1-0.4,0-0.7-0.2c-0.3-0.2-0.5-0.4-0.5-0.5c0.1-0.1,0.4,0,0.7,0.2
	C70.1,60.1,70.3,60.3,70.2,60.4"></path><path class="st26" d="M67,59.8c-0.1,0.1-0.3,0.1-0.5,0c-0.2-0.1-0.3-0.3-0.2-0.4c0.1-0.1,0.3-0.1,0.5,0C67,59.5,67.1,59.7,67,59.8"></path><path class="st26" d="M67.6,60.6c-0.1,0.1-0.3,0.1-0.5-0.1c-0.2-0.1-0.4-0.3-0.3-0.4c0.1-0.1,0.3-0.1,0.5,0.1
	C67.6,60.4,67.7,60.5,67.6,60.6"></path><path class="st26" d="M66.7,61.1c-0.1,0.1-0.3,0.1-0.5-0.1c-0.2-0.1-0.3-0.3-0.3-0.4c0.1-0.1,0.3-0.1,0.5,0.1
	C66.6,60.8,66.7,61,66.7,61.1"></path><path class="st26" d="M67.9,62.1c-0.1,0.1-0.2,0.1-0.4,0c-0.2-0.1-0.2-0.3-0.2-0.4c0.1-0.1,0.2-0.1,0.4,0C67.9,61.8,68,62,67.9,62.1
	"></path><path class="st26" d="M70,62.4c-0.1,0.1-0.3,0.2-0.5,0c-0.2-0.1-0.3-0.3-0.2-0.4c0.1-0.1,0.3-0.2,0.5,0C70,62.1,70.1,62.3,70,62.4"></path></g></svg>