<svg xmlns="http://www.w3.org/2000/svg" version="1.1" xmlns:xlink="http://www.w3.org/1999/xlink" xmlns:svgjs="http://svgjs.dev/svgjs" viewBox="0 0 108 108" style="" x="0" y="0"><style type="text/css">
	.st0{fill:none;stroke:#708530;stroke-width:1.1412;stroke-miterlimit:10;}
	.st1{fill:#A6C339;}
	.st2{fill:#007131;}
	.st3{fill:#5E6530;}
	.st4{fill:#566B2A;}
	.st5{fill:#92B83E;}
	.st6{fill:#7C773E;}
	.st7{fill:#A5C939;}
	.st8{fill:#729026;}
	.st9{fill:#72AA3A;}
	.st10{fill:#6B8823;}
	.st11{fill:#7A9829;}
	.st12{fill:#506326;}
	.st13{fill:#A69838;}
	.st14{fill:#D9DAEE;}
	.st15{fill:#D9DCDB;}
	.st16{fill:#EFE7DF;}
	.st17{fill:#D8D1D5;}
	.st18{fill:#815974;}
	.st19{fill:#D5C733;}
	.st20{fill:#BDB22B;}
	.st21{fill:#E3E985;}
</style><g><path class="st0" d="M81.8,49.3c-2.3-1.5-6.8-3.4-10.1-4.7"></path><path class="st0" d="M83.1,41.4c-3.3,2.2-8.6,4.1-12.8,4.1"></path><path class="st0" d="M78,36.3c-0.8,4.5-0.9,8.6-5.8,8.6"></path><path class="st0" d="M62.2,45.6C57,47.2,51,48.1,46.9,47.2"></path><path class="st0" d="M59.7,54.7c-4.3-3.6-12.2-7.2-13.8-8.1"></path><path class="st0" d="M55.4,42.3c-1.1,3.4-0.9,5.9-7.3,5.5"></path><path class="st1" d="M82.7,57.2c-2-0.9-3-0.3-4-5.5l-1-5.2c0,0,1.1-0.1,2.4-0.3c1.3-0.2,5.9-1.3,8,2.1c2.1,3.4,2.9,5.7,3.1,6.5
	c0.2,0.8,1.2,3.3,1.4,3.9"></path><path class="st2" d="M98.3,36.7c-2.4,1.6-2.7,6.1-6.4,7.4c-3.7,1.4-9.3-0.2-11-0.5c-1.7-0.3-1.9,1.2-0.2-1.3c1.7-2.5,1-3.3,3-5.1
	c2-1.8,7.3-2.6,8.8-1.9C94,36,98.3,36.7,98.3,36.7"></path><path class="st3" d="M77.2,41.4c0.5-0.7,1.5-1,3.7-4.1c2.2-3.1,3.6-5.8,1.7-8c-2-2.2-3-1.7-3.6-4.2l-0.6-2.4c0,0-2,2.7-4.5,6.5
	c-2.5,3.9,0,8.2,1.2,9.8C76.4,40.5,77.2,41.4,77.2,41.4"></path><path class="st4" d="M76.1,43.2c0,0-2.6,0.4-4.7,3.3c-2.1,3-5.8,5.2-8.9,3.1c-3.1-2.2-5.5-2.3-5.5-2.3s0.4,0.4,2-2.4
	c1.6-2.7,5.9-5.2,9.2-4.5C71.4,41.1,76.1,43.2,76.1,43.2"></path><path class="st5" d="M67.5,63.8c0,0-1.1-6.5-2.8-9.4c-1.7-3-3-4.3-5.9-4.1c-2.9,0.3-4.7-0.2-4.7-0.2s1.7,4.4,1.4,6.3
	c-0.3,1.9,1.2,5.3,3.3,5.6C60.8,62.3,67.5,63.8,67.5,63.8"></path><path class="st6" d="M54.3,45.7c0.1,0,2.6-1.6,4.8-4.1c2.2-2.5,3.2-4,2.6-6c-0.6-2-1.5-3.7-2.5-5.6c-1-1.8-1.6-2.4-1.3-3.1
	c0.3-0.7,0,1.2-2.8,3.7c-2.8,2.5-4.6,3.4-4.6,5.3c0.1,1.9,1.9,3.1,2.6,5.1C53.9,43,54.3,45.7,54.3,45.7"></path><path class="st0" d="M52.8,87.6c0.9-2.6,1.7-7.6,2.2-11.1"></path><path class="st0" d="M60.8,86.8c-2.8-2.6-5.9-7.3-6.8-11.4"></path><path class="st0" d="M64.5,80.6C60,81,56,82,54.9,77.2"></path><path class="st0" d="M52,67.5c-2.8-4.7-5-10.3-5.1-14.5"></path><path class="st0" d="M42.6,67.5c2.5-5.2,4.2-13.9,4.6-15.6"></path><path class="st0" d="M53.6,60c-3.5-0.2-5.9,0.7-6.9-5.7"></path><path class="st2" d="M45.4,90.6c0.5-2.2-0.4-3,4.3-5.3l4.8-2.4c0,0,0.4,1,0.8,2.2c0.4,1.2,2.6,5.4-0.2,8.3c-2.8,2.9-4.8,4.3-5.6,4.7
	c-0.7,0.4-2.9,2-3.5,2.4"></path><path class="st7" d="M68.8,100.5c-2.1-2-6.4-1-8.6-4.3s-1.9-9.1-2-10.9c-0.1-1.8-1.6-1.6,1.2-0.6c2.8,1,3.4,0.1,5.6,1.6
	c2.2,1.5,4.2,6.5,3.8,8.1C68.4,96,68.8,100.5,68.8,100.5"></path><path class="st3" d="M59.4,81.1c0.7,0.3,1.3,1.2,4.8,2.6c3.5,1.4,6.5,2,8.1-0.5c1.7-2.5,1-3.4,3.2-4.6l2.2-1.2c0,0-3-1.2-7.3-2.7
	c-4.3-1.5-7.9,2.2-9.2,3.8C60.1,80.1,59.4,81.1,59.4,81.1"></path><path class="st4" d="M57.5,80.5c0,0-0.9-2.4-4.3-3.7c-3.3-1.3-6.4-4.3-5-7.9c1.4-3.6,1-6,1-6s-0.3,0.5,2.7,1.3
	c3,0.9,6.4,4.4,6.4,7.8C58.4,75.4,57.5,80.5,57.5,80.5"></path><path class="st5" d="M35.7,77.5c0,0,6-2.8,8.4-5.2c2.5-2.5,3.5-4.1,2.6-6.8c-0.9-2.7-0.9-4.7-0.9-4.7s-3.8,2.8-5.7,3
	c-1.9,0.3-4.8,2.6-4.6,4.7C35.6,70.6,35.7,77.5,35.7,77.5"></path><path class="st6" d="M50.1,59.9c0,0.1,9.7,5.7,11.5,4.6c1.8-1.1,3.2-2.4,4.8-3.9c1.5-1.5,1.9-2.2,2.7-2.1c0.8,0.1-1.1,0.3-4.2-1.8
	c-3.1-2.1-4.3-3.6-6.2-3.1c-1.8,0.6-2.6,2.7-4.4,3.9C52.6,58.8,50.1,59.9,50.1,59.9"></path><path class="st0" d="M19.6,54.8c2.6,0.7,7.6,1.2,11.1,1.5"></path><path class="st0" d="M20.6,62.7c2.5-3,7-6.5,11.1-7.6"></path><path class="st0" d="M26.9,66c-0.6-4.5-1.7-8.4,3.1-9.9"></path><path class="st0" d="M39.5,52.6c4.5-3.2,10-5.8,14.2-6.1"></path><path class="st0" d="M39.2,43.1c5.2,2.2,13.9,3.3,15.6,3.6"></path><path class="st0" d="M47,53.7c0.1-3.5-0.9-5.8,5.4-7.3"></path><path class="st1" d="M16.3,47.5c2.2,0.3,2.9-0.6,5.4,4l2.5,4.6c0,0-1,0.4-2.2,1c-1.2,0.5-5.3,3-8.3,0.4c-3-2.6-4.5-4.6-4.8-5.3
	c-0.4-0.7-2.1-2.8-2.5-3.3"></path><path class="st2" d="M7.3,71.7c1.9-2.2,0.8-6.6,3.9-9c3.1-2.4,9-2.5,10.7-2.8c1.8-0.3,1.5-1.7,0.6,1.2c-0.9,2.9,0,3.4-1.4,5.7
	c-1.4,2.3-6.3,4.6-7.9,4.4C11.7,71,7.3,71.7,7.3,71.7"></path><path class="st3" d="M26.2,60.9c-0.2,0.8-1.1,1.4-2.4,5c-1.2,3.6-1.8,6.6,0.7,8.1c2.5,1.5,3.4,0.8,4.7,2.9l1.3,2.1
	c0,0,1.1-3.1,2.4-7.5c1.3-4.4-2.4-7.8-4.1-9C27.3,61.6,26.2,60.9,26.2,60.9"></path><path class="st4" d="M26.8,58.9c0,0,2.4-1.1,3.5-4.5c1.1-3.4,4.1-6.7,7.7-5.6c3.6,1.1,6,0.6,6,0.6s-0.5-0.2-1.2,2.8
	c-0.7,3.1-4.2,6.7-7.5,7C31.9,59.5,26.8,58.9,26.8,58.9"></path><path class="st5" d="M29,36.8c0,0,2.9,5.8,5.5,8.1c2.5,2.3,4.2,3.2,6.9,2.1c2.7-1.1,4.6-1.2,4.6-1.2s-2.9-3.7-3.2-5.6
	c-0.3-1.9-2.7-4.7-4.8-4.4C35.9,36.2,29,36.8,29,36.8"></path><path class="st6" d="M47,50.1c-0.1,0-2,2.3-3.4,5.3c-1.4,3-1.9,4.8-0.8,6.5c1.2,1.7,2.5,3.1,4,4.5c1.5,1.5,2.2,1.8,2.2,2.6
	c-0.1,0.8-0.3-1.1,1.7-4.3c2-3.2,3.5-4.6,2.8-6.4c-0.7-1.8-2.7-2.4-4-4.1C48.2,52.5,47,50.1,47,50.1"></path><path class="st0" d="M52.5,18.4c-1.2,2.5-2.5,7.4-3.4,10.8"></path><path class="st0" d="M44.5,18.3c2.5,2.9,5.1,7.9,5.6,12.1"></path><path class="st0" d="M40.2,24.2c4.5,0,8.6-0.5,9.2,4.4"></path><path class="st0" d="M51.2,38.5c2.3,4.9,3.9,10.8,3.6,15"></path><path class="st0" d="M60.5,39.5c-3,4.9-5.6,13.4-6.2,15.1"></path><path class="st0" d="M48.8,45.8c3.5,0.5,5.9-0.1,6.3,6.4"></path><path class="st1" d="M60.2,16.2c-0.7,2.1,0.1,3-4.9,4.9l-5,1.9c0,0-0.3-1.1-0.6-2.3c-0.3-1.2-2-5.7,1.1-8.3c3.1-2.6,5.3-3.8,6-4.1
	c0.8-0.3,3.1-1.7,3.7-2.1"></path><path class="st8" d="M38,3.9C39.9,6,44.3,5.6,46.1,9c1.8,3.4,0.9,9.3,0.8,11c-0.1,1.8,1.4,1.7-1.3,0.4c-2.7-1.3-3.3-0.4-5.4-2.2
	c-2-1.7-3.5-6.9-3-8.4C37.9,8.3,38,3.9,38,3.9"></path><path class="st2" d="M45.3,24.1c-0.7-0.3-1.2-1.3-4.5-3.1c-3.3-1.7-6.2-2.7-8.1-0.4C30.7,23,31.3,24,29,25l-2.3,1c0,0,2.9,1.5,7,3.5
	c4.1,1.9,8.1-1.3,9.5-2.8C44.5,25.1,45.3,24.1,45.3,24.1"></path><path class="st4" d="M47.1,25c0,0,0.7,2.5,3.9,4.1c3.2,1.6,5.9,5,4.1,8.4c-1.7,3.4-1.6,5.9-1.6,5.9s0.3-0.5-2.6-1.6
	c-2.9-1.2-5.8-5.1-5.5-8.4C45.7,30,47.1,25,47.1,25"></path><path class="st5" d="M68.5,30.3c0,0-6.2,2.1-8.9,4.3c-2.7,2.2-3.9,3.7-3.3,6.5c0.6,2.8,0.4,4.7,0.4,4.7s4.1-2.3,6-2.4
	c1.9-0.1,5.1-2.1,5.1-4.2C67.9,37.2,68.5,30.3,68.5,30.3"></path><path class="st6" d="M52.3,46.3c0-0.1-1.9-2.3-4.6-4.1c-2.7-1.8-4.3-2.6-6.2-1.7c-1.9,0.9-3.5,2.1-5.2,3.4c-1.7,1.3-2.2,2-2.9,1.8
	c-0.8-0.2,1.2-0.2,4,2.3c2.8,2.4,3.9,4.1,5.8,3.7c1.9-0.4,2.8-2.4,4.7-3.4C49.7,47.2,52.3,46.3,52.3,46.3"></path><path class="st9" d="M61.6,57.5c-2.3-1.5-6.8-3.4-10.1-4.7"></path><path class="st9" d="M62.9,49.5c-3.3,2.2-8.6,4.1-12.8,4.1"></path><path class="st9" d="M57.8,44.5C57.1,49,57,53.1,52,53.1"></path><path class="st9" d="M42,53.7c-5.2,1.7-11.2,2.6-15.3,1.7"></path><path class="st9" d="M39.5,62.9c-4.3-3.6-12.2-7.2-13.8-8.1"></path><path class="st9" d="M35.2,50.5c-1.1,3.4-0.9,5.9-7.3,5.5"></path><path class="st9" d="M62.5,65.4c-2-0.9-3-0.3-4-5.5l-1-5.2c0,0,1.1-0.1,2.4-0.3c1.3-0.2,5.9-1.3,8,2.1c2.1,3.4,2.9,5.7,3.1,6.5
	c0.2,0.8,1.2,3.3,1.4,3.9"></path><path class="st9" d="M78.1,44.9c-2.4,1.6-2.7,6.1-6.4,7.4c-3.7,1.4-9.3-0.2-11-0.5c-1.7-0.3-1.9,1.2-0.2-1.3c1.7-2.5,1-3.3,3-5.1
	c2-1.8,7.3-2.6,8.8-1.9C73.8,44.2,78.1,44.9,78.1,44.9"></path><path class="st9" d="M57,49.6c0.5-0.7,1.5-1,3.7-4.1c2.2-3.1,3.6-5.8,1.7-8c-2-2.2-3-1.7-3.6-4.2l-0.6-2.4c0,0-2,2.7-4.5,6.5
	c-2.5,3.9,0,8.2,1.2,9.8C56.2,48.7,57,49.6,57,49.6"></path><path class="st9" d="M55.9,51.3c0,0-2.6,0.4-4.7,3.3c-2.1,3-5.8,5.2-8.9,3.1c-3.1-2.2-5.5-2.3-5.5-2.3s0.4,0.4,2-2.4
	s5.9-5.2,9.2-4.5C51.2,49.3,55.9,51.3,55.9,51.3"></path><path class="st9" d="M47.3,72c0,0-1.1-6.5-2.8-9.4c-1.7-3-3-4.3-5.9-4.1c-2.9,0.3-4.7-0.2-4.7-0.2s1.7,4.4,1.4,6.3
	c-0.3,1.9,1.2,5.3,3.3,5.6C40.6,70.5,47.3,72,47.3,72"></path><path class="st9" d="M34.1,53.8c0.1,0,2.6-1.6,4.8-4.1c2.2-2.5,3.2-4,2.6-6c-0.6-2-1.5-3.7-2.5-5.6c-1-1.8-1.6-2.4-1.3-3.1
	c0.3-0.7,0,1.2-2.8,3.7c-2.8,2.5-4.6,3.4-4.6,5.3c0.1,1.9,1.9,3.1,2.6,5.1C33.7,51.2,34.1,53.8,34.1,53.8"></path><path class="st0" d="M73.1,26.7c-2.6,0.8-7,3.2-10.2,4.9"></path><path class="st0" d="M67.8,20.7c-0.5,3.9-2.4,9.2-5.2,12.4"></path><path class="st0" d="M60.7,21.5c3,3.4,6,6,2.8,9.9"></path><path class="st0" d="M57.5,39.5c-2.1,5.1-5.3,10.3-8.6,13"></path><path class="st0" d="M62.9,47.2c-5.6,1.1-13.5,5-15.2,5.7"></path><path class="st0" d="M50.5,42.8c1.9,2.9,4,4.3-0.5,9.1"></path><path class="st1" d="M79.7,30.8c-2,0.9-2.1,2.1-6.8-0.3l-4.6-2.4c0,0,0.6-0.9,1.3-2c0.7-1.1,2.8-5.4,6.8-4.9c4,0.5,6.3,1.3,7,1.7
	c0.7,0.4,3.3,1.1,3.9,1.3"></path><path class="st2" d="M74.1,5.9c-0.4,2.9,2.9,5.8,1.6,9.6c-1.3,3.7-6.2,7-7.5,8.2c-1.3,1.2-0.3,2.3-1.2-0.6c-0.8-2.9-1.9-2.8-2-5.5
	c-0.1-2.7,2.7-7.3,4.2-8C70.8,8.9,74.1,5.9,74.1,5.9"></path><path class="st3" d="M64.1,25.3c-0.2-0.8,0.2-1.8-0.8-5.5c-0.9-3.7-2.1-6.5-5.1-6.3c-3,0.2-3.3,1.2-5.5,0.2l-2.3-1
	c0,0,0.8,3.2,2.1,7.6c1.3,4.4,6.3,5.1,8.3,5.1C62.8,25.3,64.1,25.3,64.1,25.3"></path><path class="st4" d="M64.6,27.3c0,0-1.4,2.2-0.5,5.7c0.9,3.5,0.2,7.8-3.4,8.8c-3.7,1.1-5.4,2.8-5.4,2.8s0.5-0.1-0.5-3
	c-1.1-2.9-0.1-7.8,2.5-9.9C60.1,29.6,64.6,27.3,64.6,27.3"></path><path class="st5" d="M74.9,46.7c0,0-5.7-3.2-9.1-3.7c-3.4-0.5-5.3-0.3-7,2.1c-1.7,2.4-3.2,3.6-3.2,3.6s4.4,1.4,5.7,2.8
	c1.3,1.4,4.9,2.3,6.5,0.9C69.4,51,74.9,46.7,74.9,46.7"></path><path class="st6" d="M52.4,45.8c0.1,0,0.4-3,0-6.3c-0.5-3.3-1-5-2.9-5.8c-1.9-0.8-3.8-1.1-5.9-1.5c-2.1-0.4-2.9-0.2-3.2-0.9
	c-0.4-0.7,0.9,0.7,1,4.5c0.1,3.8-0.4,5.7,1.1,6.8c1.5,1.1,3.6,0.5,5.7,1.2C50.1,44.4,52.4,45.8,52.4,45.8"></path><path class="st0" d="M83.7,73c-1.4-2.3-4.7-6-7.1-8.6"></path><path class="st0" d="M88.2,66.2c-3.8,0.6-9.4,0.1-13.2-1.8"></path><path class="st0" d="M85.8,59.5c-2.6,3.8-4.4,7.5-8.9,5.4"></path><path class="st0" d="M67.7,61.1c-5.4-0.7-11.2-2.5-14.5-5"></path><path class="st0" d="M61.6,68.4c-2.3-5.1-7.9-11.9-9-13.3"></path><path class="st0" d="M63,55.2c-2.4,2.6-3.3,5-8.9,1.8"></path><path class="st2" d="M81.2,80.6c-1.4-1.7-2.5-1.5-1.3-6.7l1.3-5.2c0,0,1,0.4,2.2,0.7c1.2,0.4,5.9,1.3,6.3,5.3c0.4,4,0.2,6.5,0,7.2
	c-0.2,0.8-0.3,3.5-0.4,4.2"></path><path class="st7" d="M103.9,68.6c-2.8,0.4-5,4.4-8.9,4.1c-3.9-0.3-8.2-4.2-9.6-5.2c-1.4-1-2.2,0.3,0.4-1.3c2.6-1.6,2.2-2.6,4.8-3.4
	c2.6-0.8,7.7,0.8,8.7,2C100.2,66.1,103.9,68.6,103.9,68.6"></path><path class="st3" d="M82.9,63.8c0.7-0.4,1.8-0.3,5.1-2.2c3.3-1.9,5.7-3.8,4.9-6.6c-0.8-2.9-1.9-2.9-1.5-5.4l0.5-2.5
	c0,0-2.9,1.6-6.8,4c-3.9,2.4-3.5,7.5-3,9.5C82.6,62.6,82.9,63.8,82.9,63.8"></path><path class="st4" d="M81.2,64.9c0,0-2.5-0.8-5.6,1c-3.1,1.8-7.4,2.3-9.3-1c-1.9-3.3-4-4.5-4-4.5s0.2,0.5,2.8-1.3
	c2.6-1.8,7.5-2.2,10.1-0.1C77.9,61,81.2,64.9,81.2,64.9"></path><path class="st5" d="M64.8,80c0,0,1.8-6.4,1.5-9.8c-0.3-3.4-0.9-5.3-3.6-6.3c-2.7-1-4.2-2.2-4.2-2.2s-0.4,4.7-1.4,6.3
	c-1,1.7-1.1,5.4,0.6,6.5C59.4,75.8,64.8,80,64.8,80"></path><path class="st6" d="M60.6,57.8c0,0,3-0.4,6.1-1.7c3.1-1.3,4.6-2.3,4.9-4.3c0.3-2.1,0.2-4,0.1-6.2c-0.1-2.1-0.4-2.9,0.2-3.4
	c0.6-0.5-0.5,1.1-4.1,2.1s-5.6,1.1-6.3,2.9c-0.7,1.8,0.4,3.7,0.2,5.8C61.3,55.2,60.6,57.8,60.6,57.8"></path><path class="st0" d="M36.8,78.4c2.3-1.6,5.8-5.2,8.3-7.7"></path><path class="st0" d="M43.6,82.5c-0.7-3.8-0.4-9.5,1.3-13.3"></path><path class="st0" d="M50.3,79.7c-3.8-2.3-7.6-3.9-5.6-8.6"></path><path class="st0" d="M48.1,61.6c0.5-5.5,2.1-11.4,4.5-14.9"></path><path class="st0" d="M40.6,55.9c5-2.7,11.5-8.8,12.9-9.9"></path><path class="st0" d="M53.8,56.4c-2.7-2.2-5.1-2.9-2.1-8.8"></path><path class="st1" d="M29.2,76.4c1.6-1.5,1.4-2.7,6.6-1.7l5.2,0.9c0,0-0.3,1.1-0.7,2.3c-0.3,1.2-1.1,6-5.1,6.7
	c-4,0.7-6.4,0.6-7.2,0.5c-0.8-0.1-3.5-0.1-4.2-0.1"></path><path class="st2" d="M41.8,98.4c-0.5-2.8-4.5-4.7-4.3-8.6c0.2-3.9,3.9-8.5,4.9-10.1c0.9-1.5-0.3-2.2,1.3,0.3
	c1.7,2.5,2.6,2.1,3.5,4.6c0.9,2.6-0.5,7.8-1.7,8.9C44.2,94.6,41.8,98.4,41.8,98.4"></path><path class="st3" d="M45.9,77.1c0.4,0.7,0.3,1.8,2.3,5c2,3.2,3.9,5.5,6.7,4.5c2.8-1,2.8-2.1,5.3-1.8l2.5,0.3c0,0-1.7-2.8-4.2-6.6
	c-2.5-3.8-7.6-3-9.5-2.4C47.1,76.6,45.9,77.1,45.9,77.1"></path><path class="st4" d="M44.8,75.4c0,0,0.7-2.5-1.2-5.6c-1.9-3-2.5-7.3,0.7-9.4c3.2-2.1,4.3-4.3,4.3-4.3s-0.5,0.2,1.4,2.7
	c1.9,2.5,2.4,7.4,0.5,10.2C48.5,71.8,44.8,75.4,44.8,75.4"></path><path class="st5" d="M29.2,59.9c0,0,6.4,1.3,9.8,0.8c3.4-0.5,5.2-1.2,6.1-4c0.9-2.8,2.1-4.3,2.1-4.3s-4.7,0-6.3-1
	c-1.7-0.9-5.4-0.8-6.5,1C33.2,54.2,29.2,59.9,29.2,59.9"></path><path class="st6" d="M51.1,54.2c0,0,0.5,3,1.9,6c1.4,3,2.4,4.5,4.5,4.7c2.1,0.2,4,0,6.1-0.3c2.1-0.3,2.8-0.6,3.4-0.1
	c0.6,0.5-1.1-0.4-2.2-4c-1.2-3.6-1.3-5.6-3.1-6.2c-1.8-0.6-3.6,0.6-5.8,0.6C53.7,54.8,51.1,54.2,51.1,54.2"></path><path class="st0" d="M30.3,30.2c1.1,2.5,4,6.5,6.1,9.4"></path><path class="st0" d="M25.1,36.4c3.9-0.2,9.4,0.9,12.9,3.2"></path><path class="st0" d="M26.7,43.4c3-3.5,5.2-7,9.4-4.4"></path><path class="st0" d="M44.9,43.7c5.3,1.3,10.8,3.6,13.8,6.6"></path><path class="st0" d="M51.7,37.1c1.8,5.4,6.6,12.7,7.5,14.2"></path><path class="st0" d="M49,50.1c2.7-2.4,3.8-4.6,9-0.9"></path><path class="st1" d="M33.6,22.9c1.2,1.8,2.4,1.8,0.6,6.8l-1.8,5c0,0-1-0.5-2.1-1c-1.1-0.5-5.7-1.9-5.6-6c0-4,0.5-6.5,0.8-7.2
	c0.3-0.8,0.7-3.5,0.8-4.1"></path><path class="st7" d="M9.8,32.4c2.9-0.1,5.4-3.8,9.2-3.1c3.8,0.7,7.7,5.1,9,6.2c1.3,1.2,2.3,0-0.5,1.3c-2.7,1.3-2.5,2.3-5.2,2.8
	c-2.7,0.5-7.5-1.6-8.4-3C13.1,35.3,9.8,32.4,9.8,32.4"></path><path class="st2" d="M30.1,39.4c-0.7,0.3-1.8,0.1-5.3,1.6c-3.5,1.5-6.1,3.1-5.6,6.1c0.5,2.9,1.6,3.1,0.9,5.5L19.3,55
	c0,0,3-1.3,7.2-3.3c4.1-2,4.3-7.1,4-9.1C30.3,40.6,30.1,39.4,30.1,39.4"></path><path class="st4" d="M31.9,38.5c0,0,2.4,1.1,5.7-0.4c3.3-1.5,7.6-1.5,9.1,2c1.5,3.5,3.5,4.9,3.5,4.9s-0.1-0.5-2.9,1
	c-2.8,1.5-7.7,1.4-10.1-0.9C34.8,42.7,31.9,38.5,31.9,38.5"></path><path class="st5" d="M49.8,25.1c0,0-2.4,6.2-2.5,9.6c-0.1,3.5,0.3,5.3,2.9,6.6c2.6,1.3,3.9,2.6,3.9,2.6s0.9-4.6,2.1-6.2
	c1.2-1.5,1.7-5.2,0.1-6.6C54.7,29.9,49.8,25.1,49.8,25.1"></path><path class="st6" d="M51.6,47.7c0-0.1-3,0-6.2,1c-3.2,1-4.8,1.8-5.3,3.8c-0.5,2-0.7,4-0.7,6.1c-0.1,2.1,0.1,2.9-0.5,3.4
	c-0.6,0.5,0.6-1,4.3-1.7c3.7-0.7,5.7-0.5,6.6-2.2c0.9-1.7,0-3.7,0.4-5.8C50.6,50.2,51.6,47.7,51.6,47.7"></path><path class="st9" d="M66.2,47.4c-2.6,0.8-7,3.2-10.2,4.9"></path><path class="st9" d="M60.9,41.5c-0.5,3.9-2.4,9.2-5.2,12.4"></path><path class="st9" d="M53.8,42.3c3,3.4,6,6,2.8,9.9"></path><path class="st9" d="M50.6,60.3c-2.1,5.1-5.3,10.3-8.6,13"></path><path class="st9" d="M56,68c-5.6,1.1-13.5,5-15.2,5.7"></path><path class="st9" d="M43.7,63.6c1.9,2.9,4,4.3-0.5,9.1"></path><path class="st9" d="M72.9,51.6c-2,0.9-2.1,2.1-6.8-0.3l-4.6-2.4c0,0,0.6-0.9,1.3-2c0.7-1.1,2.8-5.4,6.8-4.9c4,0.5,6.3,1.3,7,1.7
	c0.7,0.4,3.3,1.1,3.9,1.3"></path><path class="st9" d="M67.3,26.7c-0.4,2.9,2.9,5.8,1.6,9.6c-1.3,3.7-6.2,7-7.5,8.2c-1.3,1.2-0.3,2.3-1.2-0.6c-0.8-2.9-1.9-2.8-2-5.5
	c-0.1-2.7,2.7-7.3,4.2-8C63.9,29.7,67.3,26.7,67.3,26.7"></path><path class="st9" d="M57.2,46.1c-0.2-0.8,0.2-1.8-0.8-5.5c-0.9-3.7-2.1-6.5-5.1-6.3c-3,0.2-3.3,1.2-5.5,0.2l-2.3-1
	c0,0,0.8,3.2,2.1,7.6c1.3,4.4,6.3,5.1,8.3,5.1C56,46.1,57.2,46.1,57.2,46.1"></path><path class="st9" d="M57.8,48c0,0-1.4,2.2-0.5,5.7c0.9,3.5,0.2,7.8-3.4,8.8c-3.7,1.1-5.4,2.8-5.4,2.8s0.5-0.1-0.5-3
	c-1.1-2.9-0.1-7.8,2.5-9.9C53.2,50.4,57.8,48,57.8,48"></path><path class="st9" d="M68.1,67.5c0,0-5.7-3.2-9.1-3.7c-3.4-0.5-5.3-0.3-7,2.1c-1.7,2.4-3.2,3.5-3.2,3.5s4.4,1.4,5.7,2.8
	c1.3,1.4,4.9,2.3,6.5,0.9C62.6,71.8,68.1,67.5,68.1,67.5"></path><path class="st9" d="M45.5,66.5c0.1,0,0.4-3,0-6.3c-0.5-3.3-1-5-2.9-5.8c-1.9-0.8-3.8-1.1-5.9-1.5c-2.1-0.4-2.9-0.2-3.2-0.9
	c-0.4-0.7,0.9,0.7,1,4.5c0.1,3.8-0.4,5.7,1.1,6.8c1.5,1.1,3.6,0.5,5.7,1.2C43.2,65.2,45.5,66.5,45.5,66.5"></path><path class="st0" d="M79.2,39.3c-2.7-0.5-7.7-0.3-11.2-0.2"></path><path class="st0" d="M77.2,31.6c-2.2,3.3-6.3,7.2-10.2,8.8"></path><path class="st0" d="M70.6,29c1.1,4.4,2.6,8.2-2,10.2"></path><path class="st0" d="M59.6,43.7c-4.2,3.6-9.4,6.8-13.5,7.7"></path><path class="st0" d="M60.9,53.1c-5.4-1.6-14.2-1.7-16-1.8"></path><path class="st0" d="M52,43.5c0.3,3.5,1.5,5.7-4.6,7.9"></path><path class="st1" d="M83.2,46.2c-2.2-0.1-2.9,0.9-5.9-3.4l-3-4.3c0,0,1-0.5,2.1-1.2c1.1-0.7,4.9-3.6,8.2-1.3c3.3,2.3,4.9,4,5.4,4.7
	c0.5,0.7,2.4,2.5,2.9,3"></path><path class="st2" d="M89.5,21.2c-1.6,2.4-0.1,6.6-2.9,9.3c-2.9,2.7-8.7,3.5-10.4,3.9c-1.7,0.4-1.3,1.9-0.7-1.1
	c0.6-3-0.4-3.4,0.8-5.8c1.2-2.5,5.7-5.3,7.4-5.2C85.2,22.3,89.5,21.2,89.5,21.2"></path><path class="st3" d="M71.9,34c0.2-0.8,1-1.5,1.8-5.3c0.8-3.7,1.1-6.8-1.6-8c-2.7-1.2-3.5-0.4-5-2.4l-1.5-2c0,0-0.8,3.2-1.6,7.7
	c-0.8,4.5,3.2,7.5,5,8.4C70.7,33.5,71.9,34,71.9,34"></path><path class="st4" d="M71.5,36c0,0-2.3,1.4-3,4.9c-0.8,3.5-3.3,7.1-7,6.4c-3.7-0.7-6,0.1-6,0.1s0.5,0.2,0.9-3
	c0.4-3.1,3.4-7.1,6.7-7.7C66.4,36,71.5,36,71.5,36"></path><path class="st5" d="M71.7,58.2c0,0-3.6-5.4-6.3-7.4c-2.8-2-4.5-2.7-7.1-1.3c-2.6,1.4-4.4,1.7-4.4,1.7s3.3,3.3,3.8,5.2
	c0.5,1.9,3.2,4.3,5.3,3.8C65,59.5,71.7,58.2,71.7,58.2"></path><path class="st6" d="M52.3,47c0.1,0,1.8-2.5,2.8-5.7c1.1-3.2,1.4-4.9,0.1-6.5c-1.3-1.6-2.8-2.8-4.5-4.1c-1.7-1.3-2.4-1.5-2.4-2.3
	c0-0.8,0.5,1.1-1.2,4.5c-1.6,3.4-3,4.9-2.1,6.7c0.8,1.7,3,2.1,4.5,3.6C50.9,44.7,52.3,47,52.3,47"></path><path class="st0" d="M67.5,85.8c-0.2-2.7-1.4-7.6-2.3-11"></path><path class="st0" d="M74.6,81.9c-3.6-1.2-8.4-4.2-10.8-7.6"></path><path class="st0" d="M75.6,74.7c-4,2.2-7.3,4.7-10.3,0.7"></path><path class="st0" d="M58.9,67.8c-4.4-3.1-8.7-7.3-10.5-11.2"></path><path class="st0" d="M50.1,71.6c0.3-5.7-1.6-14.3-1.9-16.1"></path><path class="st0" d="M57.3,60.3c-3.3,1.2-5.1,3-8.6-2.4"></path><path class="st2" d="M61.9,91.5c-0.4-2.2-1.5-2.5,1.9-6.6l3.5-4.1c0,0,0.7,0.8,1.6,1.7c0.9,0.9,4.6,3.9,3.1,7.7
	c-1.5,3.8-2.8,5.9-3.3,6.5c-0.5,0.6-1.9,3-2.2,3.6"></path><path class="st10" d="M87.4,91.1c-2.7-1-6.4,1.6-9.6-0.4c-3.3-2.1-5.3-7.5-6.1-9.1c-0.8-1.6-2.1-0.8,0.9-1c3-0.2,3.1-1.3,5.8-0.8
	c2.6,0.5,6.4,4.2,6.7,5.8C85.3,87.2,87.4,91.1,87.4,91.1"></path><path class="st3" d="M71.1,77.2c0.8,0,1.7,0.5,5.5,0.4c3.8-0.2,6.8-0.7,7.3-3.7c0.5-2.9-0.4-3.5,1.1-5.5l1.6-2c0,0-3.3,0.1-7.8,0.5
	c-4.5,0.4-6.5,5.1-7,7.1C71.3,76,71.1,77.2,71.1,77.2"></path><path class="st4" d="M69,77.4c0,0-1.8-1.8-5.4-1.7c-3.6,0.2-7.6-1.4-7.7-5.2c-0.1-3.8-1.5-5.8-1.5-5.8s-0.1,0.5,3.1,0.1
	c3.1-0.4,7.6,1.5,9,4.5C67.8,72.4,69,77.4,69,77.4"></path><path class="st5" d="M47.7,83.5c0,0,4.4-4.9,5.7-8.1c1.3-3.2,1.6-5.1-0.3-7.3c-1.9-2.1-2.7-3.9-2.7-3.9s-2.4,4-4.1,5.1
	c-1.7,1-3.4,4.3-2.4,6.1C44.8,77.2,47.7,83.5,47.7,83.5"></path><path class="st6" d="M54,61.6c0,0.1,2.8,1.1,6.1,1.3c3.3,0.2,5.1,0.1,6.3-1.6c1.2-1.7,2-3.5,2.9-5.5c0.8-2,0.9-2.8,1.7-3
	c0.7-0.2-0.9,0.7-4.6,0c-3.7-0.7-5.4-1.6-6.9-0.3c-1.5,1.3-1.3,3.5-2.5,5.3C55.9,59.6,54,61.6,54,61.6"></path><path class="st0" d="M23.8,69.2c2.7-0.4,7.5-2,10.8-3.1"></path><path class="st0" d="M27.9,76c1.1-3.7,3.9-8.7,7.2-11.4"></path><path class="st0" d="M35,76.5c-2.3-3.9-4.9-7-1.1-10.3"></path><path class="st0" d="M41.3,59.2c2.9-4.7,7-9.3,10.7-11.3"></path><path class="st0" d="M37.3,50.7c5.7-0.1,14.1-2.6,15.9-3"></path><path class="st0" d="M48.7,57.2c-1.3-3.2-3.1-5,2.1-8.9"></path><path class="st1" d="M17.9,63.9c2.1-0.6,2.5-1.7,6.6,1.5l4.1,3.2c0,0-0.8,0.8-1.6,1.8c-0.9,0.9-3.7,4.9-7.5,3.6
	c-3.8-1.2-5.9-2.4-6.6-2.9c-0.6-0.5-3.1-1.7-3.6-2"></path><path class="st2" d="M19.1,89.5c0.9-2.8-1.8-6.3,0.1-9.7c1.9-3.4,7.3-5.9,8.8-6.8c1.5-0.9,0.7-2.2,1,0.8c0.3,3,1.4,3.1,1,5.8
	c-0.4,2.7-4,6.7-5.6,7.2C22.9,87.1,19.1,89.5,19.1,89.5"></path><path class="st3" d="M32.4,72.1c0.1,0.8-0.5,1.7-0.2,5.5c0.3,3.8,1,6.8,3.9,7.1c2.9,0.4,3.4-0.6,5.5,0.8l2,1.4c0,0-0.2-3.3-0.7-7.8
	c-0.5-4.5-5.3-6.2-7.3-6.5C33.6,72.3,32.4,72.1,32.4,72.1"></path><path class="st4" d="M32.2,70.1c0,0,1.8-2,1.5-5.6c-0.3-3.6,1.1-7.7,4.9-8.1c3.8-0.4,5.8-1.9,5.8-1.9s-0.5,0,0,3.1
	c0.5,3.1-1.2,7.8-4.2,9.4C37.1,68.6,32.2,70.1,32.2,70.1"></path><path class="st5" d="M25.4,49c0,0,5,4.1,8.3,5.2c3.2,1.1,5.1,1.3,7.2-0.8c2.1-2.1,3.8-2.9,3.8-2.9s-4.1-2.2-5.1-3.8
	c-1.1-1.6-4.4-3.2-6.2-2C31.6,45.8,25.4,49,25.4,49"></path><path class="st6" d="M47.4,54c-0.1,0-1,2.9-1.1,6.2c-0.1,3.3,0.1,5.1,1.8,6.2c1.7,1.1,3.5,1.8,5.5,2.5c2,0.7,2.8,0.7,3,1.5
	c0.2,0.7-0.7-0.9-0.2-4.6c0.6-3.7,1.4-5.6,0.1-7c-1.3-1.4-3.5-1.1-5.3-2.1C49.4,55.7,47.4,54,47.4,54"></path><path class="st0" d="M39.9,22.9c-0.1,2.7,0.6,7.7,1.1,11.2"></path><path class="st0" d="M32.5,26c3.5,1.6,7.9,5.1,9.9,8.8"></path><path class="st0" d="M30.8,33.1c4.2-1.8,7.7-3.9,10.3,0.3"></path><path class="st0" d="M46.6,41.7c4.1,3.6,7.9,8.2,9.2,12.2"></path><path class="st0" d="M55.7,38.9c-0.9,5.6,0.1,14.4,0.2,16.2"></path><path class="st0" d="M47.3,49.3c3.4-0.9,5.4-2.4,8.3,3.3"></path><path class="st1" d="M46.1,17.8c0.2,2.2,1.3,2.7-2.6,6.4l-3.9,3.7c0,0-0.7-0.9-1.4-1.9c-0.8-1-4.1-4.3-2.3-8c1.9-3.6,3.4-5.6,4-6.1
	c0.6-0.6,2.2-2.8,2.6-3.4"></path><path class="st7" d="M20.8,15.5c2.6,1.2,6.5-1,9.5,1.4c3,2.4,4.5,8.1,5.1,9.7c0.7,1.6,2,1-1,0.9c-3-0.1-3.2,0.9-5.8,0.2
	c-2.6-0.8-5.9-4.9-6.1-6.5C22.4,19.6,20.8,15.5,20.8,15.5"></path><path class="st2" d="M35.5,31c-0.8,0-1.6-0.7-5.4-1c-3.8-0.2-6.8,0-7.7,2.9c-0.9,2.9,0,3.5-1.7,5.3L19,40.1c0,0,3.3,0.3,7.8,0.4
	c4.6,0.1,7-4.4,7.7-6.4C35.1,32.2,35.5,31,35.5,31"></path><path class="st4" d="M37.5,31.1c0,0,1.6,2,5.2,2.2c3.6,0.2,7.4,2.2,7.1,6c-0.3,3.8,0.8,6,0.8,6s0.1-0.5-3-0.4
	c-3.1,0.1-7.4-2.3-8.5-5.5C38.2,36.2,37.5,31.1,37.5,31.1"></path><path class="st5" d="M59.4,27.3c0,0-4.9,4.4-6.5,7.5c-1.6,3.1-2.1,4.9-0.5,7.3c1.7,2.3,2.2,4.2,2.2,4.2s2.9-3.8,4.6-4.6
	c1.8-0.8,3.9-3.9,3.1-5.9C61.5,33.8,59.4,27.3,59.4,27.3"></path><path class="st6" d="M50.7,48.4c0-0.1-2.7-1.3-5.9-1.9c-3.3-0.6-5-0.6-6.4,1c-1.4,1.6-2.4,3.3-3.4,5.2c-1,1.9-1.2,2.7-2,2.8
	c-0.8,0.1,1-0.6,4.6,0.5c3.6,1.1,5.2,2.2,6.8,1c1.6-1.1,1.7-3.3,3-5C48.7,50.2,50.7,48.4,50.7,48.4"></path><path class="st9" d="M63.7,54.9c-2.7-0.5-7.7-0.3-11.2-0.2"></path><path class="st9" d="M61.8,47.1c-2.2,3.3-6.3,7.2-10.2,8.8"></path><path class="st9" d="M55.1,44.5c1.1,4.4,2.6,8.2-2,10.2"></path><path class="st9" d="M44.1,59.2c-4.2,3.6-9.4,6.8-13.5,7.7"></path><path class="st9" d="M45.4,68.6c-5.4-1.6-14.2-1.7-16-1.8"></path><path class="st9" d="M36.5,59c0.3,3.5,1.5,5.7-4.6,7.9"></path><path class="st9" d="M67.7,61.7c-2.2-0.1-2.9,0.9-5.9-3.4l-3-4.3c0,0,1-0.5,2.1-1.2c1.1-0.7,4.9-3.6,8.2-1.3c3.3,2.3,4.9,4,5.4,4.7
	c0.5,0.7,2.4,2.5,2.9,3"></path><path class="st9" d="M74,36.7c-1.6,2.4-0.1,6.6-2.9,9.3c-2.9,2.7-8.7,3.5-10.4,3.9c-1.7,0.4-1.3,1.9-0.7-1.1c0.6-3-0.4-3.4,0.8-5.8
	c1.2-2.5,5.7-5.3,7.4-5.2C69.7,37.8,74,36.7,74,36.7"></path><path class="st9" d="M56.4,49.5c0.2-0.8,1-1.5,1.8-5.3c0.8-3.7,1.1-6.8-1.6-8c-2.7-1.2-3.5-0.4-5-2.4l-1.5-2c0,0-0.8,3.2-1.6,7.7
	c-0.8,4.5,3.2,7.5,5,8.4C55.3,49,56.4,49.5,56.4,49.5"></path><path class="st9" d="M56,51.5c0,0-2.3,1.4-3,4.9c-0.8,3.5-3.3,7.1-7,6.4c-3.7-0.7-6,0.1-6,0.1s0.5,0.2,0.9-3
	c0.4-3.1,3.4-7.1,6.7-7.8C50.9,51.5,56,51.5,56,51.5"></path><path class="st9" d="M56.3,73.7c0,0-3.6-5.4-6.3-7.4c-2.8-2-4.5-2.7-7.1-1.3c-2.6,1.4-4.4,1.7-4.4,1.7s3.3,3.3,3.8,5.2
	c0.5,1.9,3.2,4.3,5.3,3.8C49.5,75.1,56.3,73.7,56.3,73.7"></path><path class="st9" d="M36.8,62.5c0.1,0,1.8-2.5,2.8-5.7c1.1-3.2,1.4-4.9,0.1-6.5c-1.3-1.6-2.8-2.8-4.5-4.1c-1.7-1.3-2.4-1.5-2.4-2.3
	c0-0.8,0.5,1.1-1.2,4.5c-1.6,3.4-3,4.9-2.1,6.7c0.8,1.7,3,2.1,4.5,3.6C35.4,60.3,36.8,62.5,36.8,62.5"></path><path class="st0" d="M62.2,22.2c-2.1,1.8-5.2,5.8-7.5,8.6"></path><path class="st0" d="M55,18.9c1.1,3.7,1.4,9.4,0.1,13.4"></path><path class="st0" d="M48.7,22.4c4.1,1.9,8,3.1,6.5,7.9"></path><path class="st0" d="M52.8,40.1c0.1,5.5-0.8,11.5-2.9,15.3"></path><path class="st0" d="M60.8,44.9c-4.7,3.2-10.5,10-11.8,11.3"></path><path class="st0" d="M47.7,45.9c2.9,1.9,5.4,2.3,3.1,8.5"></path><path class="st1" d="M70,23.3c-1.5,1.7-1.1,2.8-6.4,2.5l-5.3-0.3c0,0,0.2-1.1,0.4-2.3c0.2-1.3,0.5-6.1,4.3-7.2
	c3.9-1.1,6.3-1.3,7.1-1.3c0.8,0.1,3.5-0.3,4.2-0.4"></path><path class="st2" d="M55,2.9c0.8,2.7,5,4.2,5.2,8.1c0.2,3.9-3,8.9-3.7,10.5c-0.8,1.6,0.6,2.2-1.3-0.1c-1.9-2.3-2.8-1.8-4-4.2
	c-1.1-2.4-0.3-7.8,0.8-9C53,6.9,55,2.9,55,2.9"></path><path class="st3" d="M53.3,24.5c-0.5-0.6-0.5-1.7-2.9-4.7c-2.3-3-4.5-5-7.2-3.7c-2.7,1.3-2.5,2.4-5.1,2.4l-2.5,0c0,0,2,2.6,4.9,6.1
	c2.9,3.5,7.9,2.1,9.7,1.3C52.2,25.1,53.3,24.5,53.3,24.5"></path><path class="st4" d="M54.6,26.1c0,0-0.4,2.6,1.8,5.4c2.2,2.8,3.3,7,0.3,9.4c-3,2.4-3.8,4.7-3.8,4.7s0.5-0.3-1.7-2.6
	c-2.1-2.3-3.2-7.1-1.6-10C51.3,30.1,54.6,26.1,54.6,26.1"></path><path class="st5" d="M71.8,39.7c0,0-6.5-0.6-9.8,0.3c-3.3,0.9-5,1.8-5.6,4.7c-0.6,2.9-1.6,4.5-1.6,4.5s4.7-0.5,6.4,0.3
	c1.8,0.7,5.4,0.2,6.3-1.7C68.4,45.8,71.8,39.7,71.8,39.7"></path><path class="st6" d="M50.6,47.8c0,0-0.8-2.9-2.5-5.7c-1.7-2.8-2.9-4.2-5-4.1c-2.1,0.1-4,0.5-6,1c-2.1,0.5-2.7,0.9-3.4,0.5
	c-0.6-0.5,1.1,0.3,2.7,3.7c1.6,3.4,1.9,5.4,3.7,5.8c1.9,0.4,3.5-1,5.7-1.2C48,47.5,50.6,47.8,50.6,47.8"></path><path class="st0" d="M90.2,60.1c-2.2-1.6-6.7-3.6-9.9-5"></path><path class="st0" d="M91.8,52.2c-3.3,2.1-8.7,3.9-12.9,3.6"></path><path class="st0" d="M86.9,47c-0.9,4.5-1.1,8.6-6.1,8.4"></path><path class="st0" d="M70.8,55.7c-5.3,1.5-11.3,2.2-15.4,1.2"></path><path class="st0" d="M68,64.8c-4.2-3.8-12-7.6-13.5-8.5"></path><path class="st0" d="M64.1,52.2c-1.2,3.3-1,5.8-7.5,5.2"></path><path class="st2" d="M90.9,68c-1.9-1-3-0.4-3.8-5.6l-0.9-5.2c0,0,1.1-0.1,2.4-0.2c1.3-0.1,5.9-1.1,7.9,2.3c2,3.5,2.7,5.8,2.8,6.6
	c0.1,0.8,1.1,3.3,1.3,4"></path><path class="st11" d="M107.2,48c-2.5,1.5-2.9,6-6.6,7.2c-3.7,1.3-9.2-0.5-11-0.9c-1.7-0.3-2,1.1-0.2-1.3c1.8-2.5,1.1-3.2,3.2-5
	c2.1-1.8,7.4-2.4,8.8-1.6C102.9,47.2,107.2,48,107.2,48"></path><path class="st3" d="M86,52c0.5-0.6,1.5-1,3.9-4c2.3-3.1,3.8-5.7,1.9-8c-1.9-2.3-2.9-1.8-3.5-4.3l-0.5-2.5c0,0-2.1,2.6-4.7,6.4
	c-2.7,3.8-0.3,8.2,0.9,9.8C85.2,51.1,86,52,86,52"></path><path class="st4" d="M84.8,53.7c0,0-2.6,0.3-4.8,3.2c-2.2,2.9-6,5-9,2.8c-3-2.3-5.4-2.5-5.4-2.5s0.4,0.4,2.1-2.3
	c1.7-2.7,6.1-5,9.3-4.2C80.2,51.6,84.8,53.7,84.8,53.7"></path><path class="st5" d="M75.6,74.1c0,0-0.9-6.5-2.5-9.5c-1.6-3-2.9-4.4-5.8-4.3c-2.9,0.2-4.7-0.3-4.7-0.3s1.5,4.4,1.2,6.3
	c-0.3,1.9,1.1,5.3,3.1,5.7C68.9,72.4,75.6,74.1,75.6,74.1"></path><path class="st6" d="M62.9,55.5c0.1,0,2.6-1.5,4.9-4c2.3-2.4,3.4-3.9,2.8-5.9c-0.5-2-1.4-3.8-2.3-5.6c-1-1.9-1.5-2.4-1.2-3.2
	c0.3-0.7,0,1.2-3,3.6s-4.8,3.2-4.7,5.2c0,1.9,1.8,3.2,2.5,5.2C62.6,52.9,62.9,55.5,62.9,55.5"></path><path class="st0" d="M49.1,83.8c1.5-2.3,3.3-7,4.7-10.3"></path><path class="st0" d="M57,84.8c-2.2-3.2-4.1-8.5-4-12.7"></path><path class="st0" d="M62,79.6C57.5,79,53.5,79,53.4,74"></path><path class="st0" d="M52.8,64c-1.7-5.2-2.6-11.2-1.7-15.4"></path><path class="st0" d="M43.7,61.8c3.6-4.5,7.2-12.6,8-14.2"></path><path class="st0" d="M56.1,57c-3.4-1-5.8-0.6-5.4-7.1"></path><path class="st1" d="M41.2,85c0.9-2,0.3-3,5.4-4.2l5.1-1.2c0,0,0.1,1.1,0.3,2.4c0.2,1.3,1.3,5.9-2.1,8.1c-3.4,2.2-5.7,3.1-6.5,3.3
	c-0.8,0.2-3.3,1.3-3.9,1.6"></path><path class="st2" d="M61.6,100c-1.6-2.4-6-2.5-7.4-6.1c-1.4-3.7,0.2-9.3,0.5-11.1c0.3-1.8-1.2-1.9,1.3-0.3c2.5,1.6,3.2,0.9,5.1,2.8
	c1.8,2,2.6,7.3,1.9,8.8C62.3,95.6,61.6,100,61.6,100"></path><path class="st3" d="M56.9,78.9c0.7,0.4,1,1.5,4.1,3.6c3.1,2.1,5.8,3.5,8,1.4c2.2-2.1,1.7-3.1,4.2-3.8l2.4-0.7c0,0-2.6-1.9-6.5-4.3
	c-3.8-2.4-8.2,0.3-9.7,1.6C57.9,78.1,56.9,78.9,56.9,78.9"></path><path class="st4" d="M55.2,77.8c0,0-0.4-2.6-3.3-4.6c-3-2-5.2-5.7-3.1-8.8c2.1-3.2,2.3-5.6,2.3-5.6s-0.4,0.4,2.3,1.9
	c2.7,1.5,5.2,5.8,4.4,9.1C57.2,73.1,55.2,77.8,55.2,77.8"></path><path class="st5" d="M34.7,70c0,0,6.4-1.3,9.4-3.2c2.9-1.9,4.3-3.2,4.1-6.1c-0.3-2.9,0.2-4.8,0.2-4.8s-4.3,1.8-6.3,1.6
	c-1.9-0.2-5.3,1.4-5.6,3.5C36.2,63.2,34.7,70,34.7,70"></path><path class="st12" d="M52.7,56c0,0.1,1.6,2.5,4.1,4.7c2.5,2.2,4,3.1,6,2.5c2-0.7,3.7-1.6,5.5-2.7c1.8-1.1,2.4-1.7,3.1-1.4
	c0.7,0.3-1.2,0-3.7-2.7c-2.5-2.8-3.4-4.6-5.3-4.4c-1.9,0.2-3.1,2-5.1,2.8C55.4,55.5,52.7,56,52.7,56"></path><path class="st0" d="M24,42.5c2,1.8,6.3,4.3,9.3,6.1"></path><path class="st0" d="M21.6,50.2c3.5-1.7,9-2.9,13.2-2.3"></path><path class="st0" d="M25.9,55.9c1.4-4.4,2-8.4,6.9-7.8"></path><path class="st0" d="M42.8,49c5.4-1,11.4-1,15.4,0.4"></path><path class="st0" d="M46.6,40.2c3.8,4.2,11.1,8.9,12.5,9.9"></path><path class="st0" d="M49.1,53.1c1.5-3.2,1.6-5.7,7.9-4.4"></path><path class="st1" d="M24.2,34.5c1.8,1.2,2.9,0.7,3.2,6l0.3,5.3c0,0-1.1,0-2.4,0c-1.3,0-6,0.5-7.6-3.2c-1.6-3.7-2.1-6.1-2.1-6.9
	c0-0.8-0.8-3.4-0.9-4.1"></path><path class="st13" d="M5.9,52.7c2.6-1.2,3.5-5.6,7.3-6.5c3.8-0.9,9.1,1.5,10.8,2c1.7,0.5,2.1-0.9,0.1,1.4c-2,2.3-1.4,3.1-3.7,4.6
	c-2.3,1.5-7.6,1.6-8.9,0.7C10.1,54,5.9,52.7,5.9,52.7"></path><path class="st2" d="M27.4,51c-0.5,0.6-1.6,0.8-4.3,3.6c-2.6,2.8-4.4,5.3-2.7,7.8c1.7,2.5,2.7,2.2,3,4.7l0.3,2.5
	c0,0,2.3-2.4,5.4-5.8c3-3.5,1.1-8.2,0.1-9.9C28.1,52,27.4,51,27.4,51"></path><path class="st4" d="M28.8,49.4c0,0,2.6,0,5.1-2.7c2.5-2.7,6.5-4.4,9.2-1.8c2.8,2.6,5.1,3.1,5.1,3.1s-0.3-0.4-2.3,2.1
	c-2,2.5-6.6,4.3-9.7,3.2C33.1,52.1,28.8,49.4,28.8,49.4"></path><path class="st5" d="M40.1,30.1c0,0,0.2,6.6,1.5,9.7c1.3,3.2,2.4,4.7,5.3,4.9c2.9,0.1,4.6,0.8,4.6,0.8s-1-4.6-0.5-6.4
	c0.5-1.9-0.5-5.4-2.5-6C46.5,32.5,40.1,30.1,40.1,30.1"></path><path class="st6" d="M50.7,49.9c0,0-2.8,1.2-5.3,3.4c-2.5,2.2-3.7,3.5-3.4,5.6c0.3,2.1,1,3.9,1.7,5.9c0.8,2,1.2,2.6,0.9,3.3
	c-0.4,0.7,0.2-1.2,3.3-3.3c3.1-2.1,5.1-2.7,5.2-4.6c0.2-1.9-1.5-3.4-1.9-5.5C50.7,52.6,50.7,49.9,50.7,49.9"></path><path class="st9" d="M64,43.9c-2.1,1.8-5.2,5.8-7.5,8.6"></path><path class="st9" d="M56.8,40.5c1.1,3.7,1.4,9.4,0.1,13.4"></path><path class="st9" d="M50.5,44.1c4.1,1.9,8,3.1,6.5,7.9"></path><path class="st9" d="M54.7,61.8c0.1,5.5-0.8,11.5-2.9,15.3"></path><path class="st9" d="M62.7,66.6c-4.7,3.2-10.5,10-11.8,11.3"></path><path class="st9" d="M49.6,67.6c2.9,1.9,5.4,2.3,3.1,8.5"></path><path class="st9" d="M71.8,45c-1.5,1.7-1.1,2.8-6.4,2.5l-5.3-0.3c0,0,0.2-1.1,0.4-2.3c0.2-1.3,0.5-6.1,4.3-7.2
	c3.9-1.1,6.3-1.3,7.1-1.3c0.8,0.1,3.5-0.3,4.2-0.4"></path><path class="st9" d="M56.8,24.5c0.8,2.7,5,4.2,5.2,8.1c0.2,3.9-3,8.9-3.7,10.5c-0.8,1.6,0.6,2.2-1.3-0.1c-1.9-2.3-2.8-1.8-4-4.2
	c-1.1-2.4-0.3-7.8,0.8-9C54.9,28.6,56.8,24.5,56.8,24.5"></path><path class="st9" d="M55.1,46.2c-0.5-0.6-0.5-1.7-2.9-4.7c-2.3-3-4.5-5-7.2-3.7c-2.7,1.3-2.5,2.4-5.1,2.4l-2.5,0c0,0,2,2.6,4.9,6.1
	c2.9,3.5,7.9,2.1,9.7,1.3C54,46.8,55.1,46.2,55.1,46.2"></path><path class="st9" d="M56.5,47.8c0,0-0.4,2.6,1.8,5.4c2.2,2.8,3.3,7,0.3,9.4c-3,2.4-3.8,4.7-3.8,4.7s0.5-0.3-1.7-2.6
	c-2.1-2.3-3.2-7.1-1.6-10C53.2,51.7,56.5,47.8,56.5,47.8"></path><path class="st9" d="M73.7,61.4c0,0-6.5-0.6-9.8,0.3c-3.3,0.9-5,1.8-5.6,4.7c-0.6,2.9-1.6,4.5-1.6,4.5s4.7-0.5,6.4,0.3
	c1.8,0.7,5.4,0.2,6.3-1.7C70.3,67.5,73.7,61.4,73.7,61.4"></path><path class="st9" d="M52.5,69.5c0,0-0.8-2.9-2.5-5.7c-1.7-2.8-2.9-4.2-5-4.1c-2.1,0.1-4,0.5-6,1c-2.1,0.5-2.7,0.9-3.4,0.5
	c-0.6-0.5,1.1,0.3,2.7,3.7c1.6,3.4,1.9,5.4,3.7,5.8c1.9,0.4,3.5-1,5.7-1.2C49.8,69.2,52.5,69.5,52.5,69.5"></path><path class="st14" d="M64.5,69.7c-0.5-0.1-6.7-1.5-8.6-0.7c-1.9,0.9-4,3-4.3,3.7c-0.3,0.7,0.5,1.2-0.4,3.4c-0.9,2.2-1.2,4.9-0.5,5.5
	c0.7,0.6,1.7,0.8,3.5,1.9c1.7,1.1,4.6,2.6,5.8,2.6c1.2,0.1,3.4-0.8,4.6-1.6c1.3-0.8,2.3-3.4,2.3-4.6s0.3-4.5,0.5-5.2
	c0.2-0.7,0.8-1.9,0.8-1.9L64.5,69.7z"></path><path class="st15" d="M72.5,72.6c0,0,3.9,3,5.3,4.5c1.5,1.5,3,4.7,2.5,6c-0.5,1.3-1.2,5-3.6,6.1c-2.4,1.1-3.7,1.7-5.3,1.6
	s-4.6-1.9-5.6-2.7c-1.1-0.8-2.5,0.5-2.1-3.1s0.1-6,0.8-7.1c0.7-1.1,3.2-4.1,3.2-4.1l1.5-1.3L72.5,72.6z"></path><path class="st16" d="M71,69.1c1.7-1,6.6-2.8,9-3.3c2.4-0.5,5,1.5,5.6,2.3c0.6,0.8,2.4,3.5,2.7,4.2c0.3,0.7,1.7,2.9,1.7,2.9
	s-2.8,3.7-5.8,4.8s-6.4,2.9-7.8,1.4c-1.4-1.5-3.7-3.3-4.1-4.7c-0.4-1.4-1.2-1.9-1.8-3.5S71,69.1,71,69.1z"></path><path class="st17" d="M67.5,67.6c0,0-1.3-3.6-0.8-5.9c0.5-2.3,2.9-5.8,4.3-6.3c1.4-0.5,2.6-0.4,4.3-1c1.8-0.6,4.4-1.1,4.4-1.1
	s2.3,1.2,2.8,2.1s1.2,3.5,1.8,4.3s2-0.1,1.2,3.7c-0.8,3.8-0.2,5.3-3.5,6.1c-3.2,0.8-8,1.6-9.8,1.6c-1.7,0-4.5-1.9-4.5-1.9L67.5,67.6
	z"></path><path class="st16" d="M68.8,67.1c0,0,1.5-4,1.1-6.6c-0.4-2.7-0.7-6.7-3.1-7.8s-8.6-2-9.9-2.3c-1.3-0.3-2.5-0.2-3,0.1
	c-0.5,0.3-1.3,1.5-1.6,2.9c-0.3,1.4-1.2,3.4-1.1,5.8c0.1,2.5,0.9,6.8,1.8,7.8c0.9,1.1,3.2,2.1,5,2.6c1.8,0.5,6.5,0,6.5,0l1.8,0
	l2.2-0.5L68.8,67.1z"></path><path class="st18" d="M68.5,67.3l-8.3-9.4L67.5,68l-1.8,0.4l-6.8-9.3l7.2,11.2l-0.7,0.2c0,0-4.1-3.3-5.2-5.7
	c-1.1-2.3-3.1-5.2-3.1-5.2s5,10.8,7,11.7l3.5,0.5l1.5-1.9L68.5,67.3z"></path><path class="st18" d="M67.6,69.6c0,0-9.5,2.3-10.3,2.4c-0.8,0.1-3.1,0.8-3.1,0.8l12.3-1.5L55.3,76l11.9-3.4l-0.2,1
	c0,0-7.6,3.8-8.7,3.8c-1.1,0-2.1,0.5-2.1,0.5s7.8-1.6,9-2.1c1.3-0.4,2.8-1.1,3.2-1.2c0.4-0.2,3.3-1.4,2.6-2.1S67.6,69.6,67.6,69.6z"></path><path class="st18" d="M66.8,67.8l6.4-10L68.4,69l1.7-0.4c0,0,4.7-8,5.1-10.3s0.9-2.4,0.9-2.4l-3.9,12.3l-0.7,2.3l5.6-12.3l-3.9,12.7
	l-3.7,0.9c0,0-1-0.4-1.3-0.8C67.8,70.5,66.8,67.8,66.8,67.8z"></path><path class="st18" d="M69.9,69.9c0,0,5.6-0.7,7.1-0.7c1.5,0,5.5,0.9,5.5,0.9s-7.7,0.4-9.3,0.8c-1.6,0.4,7.4,2.1,7.4,2.1l-8.8-0.7
	l-1.2,0.3c0,0,6.9,2.2,8.5,2.2c1.6,0,3.5,0.2,3.5,0.2s-8.8,0.1-11.7-1C68,72.8,69.9,69.9,69.9,69.9z"></path><path class="st18" d="M64.9,73.9l1.7,7.2l0.5-8.7l2.4,10.3l-0.9-10.3l1.1,1.6l2.6,8.6c0,0-0.3-4.6-0.4-6.2c-0.1-1.6-1.3-3.9-1.3-3.9
	s0.4-3-0.6-2.6c-1,0.4-2.2-0.3-2.7,0s0.4-0.7-0.5,0.3C65.8,71.2,64.9,73.9,64.9,73.9z"></path><path class="st19" d="M67.6,67.9c0,0,0.3,0,1.4-0.3c1.1-0.4,1.6-0.3,2,0.1c0.3,0.3,0.5,0.7,0.5,0.7l1.5,0.7
	c-0.2,0.8-0.1,0.9-0.2,1.3c-0.2,0.4-0.6,0.8-0.6,0.8l0.9,0.8c0,0-0.1,0.8-0.3,0.8c-0.2,0.1-0.6-1.3-0.7,0.2c0,1.5,0,1.5,0,1.5
	l-1.1,0l-0.3,1.1l-1-0.8l-0.4,0.8l-1-0.4c0,0-0.6-0.2-0.7,0.2c-0.2,0.3-1,0.2-1,0.2c-1.1-1-1.1-1.7-1.1-1.7l-2.1-0.1l2-1.2l-0.5-0.9
	l-0.3-1.2l0.1-1.2l1.1,0.2l0.5-1.7l0.5,1L67.6,67.9z"></path><path class="st20" d="M68.9,71.5l2.4-0.5c0,0,0.7,0.6,0.3,1.3c-0.4,0.7-1.2,1-1.2,1l-0.5-0.9l-0.7,0.5c-1,0-1.8,0.1-1.9-0.5
	c-0.2-0.7-0.4-1.6-0.4-1.6L68.9,71.5z"></path><path class="st21" d="M68.2,68.8c0,0,1.1,0,1.8,0.2s1.6,0.2,1.7,0.6c0.1,0.3-1.3-0.3-0.8,0.6c0.5,0.9-1.7,0.4-1.7,0.4
	c-1.2-0.5-1.6,0-1.3-0.9C68.2,68.8,68.2,68.8,68.2,68.8z"></path><path class="st14" d="M36.8,51.3c0.5,0.2,5.6,2.7,7.4,2.3c1.8-0.4,4.1-1.8,4.5-2.3c0.4-0.5-0.2-1.2,1.1-2.9c1.2-1.8,2-4.1,1.6-4.8
	c-0.5-0.7-1.4-1.1-2.6-2.4s-3.5-3.2-4.6-3.5s-3.1,0-4.4,0.5c-1.3,0.4-2.7,2.6-2.9,3.5c-0.2,1-1.2,3.8-1.5,4.4
	c-0.3,0.6-1.1,1.5-1.1,1.5L36.8,51.3z"></path><path class="st15" d="M30.4,47c0,0-2.8-3.5-3.8-5c-1-1.6-1.7-4.8-1-5.8c0.7-1,2.1-4.2,4.4-4.6c2.3-0.5,3.6-0.8,5-0.3
	c1.4,0.5,3.6,2.6,4.4,3.5c0.8,0.9,2.3,0.1,1.2,3.2c-1.1,3.1-1.3,5.2-2.2,6c-0.8,0.8-3.7,3-3.7,3l-1.6,0.9L30.4,47z"></path><path class="st16" d="M30.9,50.4c-1.7,0.5-6.4,1.1-8.6,1.1s-4.1-2.3-4.4-3.1c-0.4-0.9-1.4-3.6-1.5-4.2c-0.2-0.7-0.9-2.9-0.9-2.9
	s3.2-2.6,6-3s6.2-1.2,7.1,0.4s2.6,3.6,2.6,4.9s0.7,1.9,0.8,3.4C32.2,48.4,30.9,50.4,30.9,50.4z"></path><path class="st17" d="M33.7,52.5c0,0,0.4,3.5-0.5,5.3s-3.7,4.5-5.1,4.7c-1.4,0.2-2.3-0.1-4,0c-1.7,0.2-4.1,0-4.1,0s-1.8-1.5-2-2.5
	c-0.2-0.9-0.3-3.3-0.7-4.1c-0.4-0.8-1.8-0.3-0.3-3.5s1.3-4.6,4.3-4.7s7.4,0.2,8.9,0.5s3.6,2.6,3.6,2.6L33.7,52.5z"></path><path class="st16" d="M32.5,52.6c0,0-2.1,3.2-2.3,5.6c-0.2,2.4-0.7,6,1.2,7.5c1.9,1.4,7.1,3.5,8.2,4.1c1.1,0.5,2.2,0.7,2.6,0.5
	c0.5-0.2,1.4-1.1,2-2.2c0.5-1.1,1.7-2.7,2.2-4.9s0.6-6.1,0-7.2c-0.6-1.1-2.3-2.5-3.8-3.3c-1.5-0.8-5.6-1.3-5.6-1.3l-1.6-0.3l-2,0
	L32.5,52.6z"></path><path class="st18" d="M32.7,52.5l5.4,9.9l-4.3-10.3l1.6,0l4.1,9.6l-4.1-11.3l0.7,0c0,0,2.9,3.8,3.4,6c0.5,2.3,1.7,5.2,1.7,5.2
	s-2.2-10.5-3.8-11.7l-2.9-1.1l-1.7,1.4L32.7,52.5z"></path><path class="st18" d="M34,50.6c0,0,8.8-0.1,9.6,0s2.9,0,2.9,0l-11.1-1.2l10.8-1.9L35,48.1l0.4-0.8c0,0,7.5-1.8,8.4-1.6
	c1,0.2,1.9,0,1.9,0s-7.1-0.1-8.3,0c-1.2,0.1-2.6,0.4-3,0.4c-0.4,0.1-3.2,0.6-2.7,1.3C32.1,48.1,34,50.6,34,50.6z"></path><path class="st18" d="M34.3,52.4l-7.7,7.5l6.5-8.9l-1.6,0c0,0-5.7,6-6.5,8s-1.3,2-1.3,2l5.9-10l1.1-1.9l-7.4,9.6l6-10.3l3.5,0
	c0,0,0.8,0.5,1,1C34,49.8,34.3,52.4,34.3,52.4z"></path><path class="st18" d="M32,49.9c0,0-5-0.5-6.4-0.9c-1.4-0.3-4.6-1.9-4.6-1.9s6.9,1.2,8.4,1.2c1.5,0-6-3.3-6-3.3l7.5,2.4l1.1,0
	c0,0-5.6-3.4-7-3.6S22,43,22,43s7.8,1.7,10,3.2S32,49.9,32,49.9z"></path><path class="st18" d="M37.2,47.5l0-6.6L35,48.4l0-9.5l-1.3,9.2L33,46.5l-0.5-8.1c0,0-0.7,4-0.9,5.5c-0.2,1.4,0.4,3.7,0.4,3.7
	s-1,2.6,0,2.4c1-0.1,1.9,0.7,2.4,0.5s-0.5,0.5,0.5-0.2S37.2,47.5,37.2,47.5z"></path><path class="st19" d="M33.6,52.1c0,0-0.2-0.1-1.3,0c-1.1,0.1-1.5-0.1-1.7-0.4c-0.2-0.4-0.3-0.7-0.3-0.7l-1.2-0.9
	c0.3-0.7,0.2-0.8,0.5-1.1c0.2-0.3,0.7-0.6,0.7-0.6l-0.6-0.9c0,0,0.2-0.6,0.5-0.6s0.3,1.3,0.6,0c0.3-1.3,0.3-1.3,0.3-1.3l1,0.2
	l0.5-0.9l0.7,0.9l0.5-0.6l0.8,0.6c0,0,0.5,0.2,0.7,0c0.2-0.2,0.9,0,0.9,0c0.8,1.1,0.6,1.7,0.6,1.7l1.8,0.6l-2,0.6l0.3,0.9l0,1.1
	l-0.3,1.1l-0.9-0.4l-0.8,1.4l-0.2-1L33.6,52.1z"></path><path class="st20" d="M33.2,48.7l-2.2,0c0,0-0.5-0.7,0-1.2s1.3-0.7,1.3-0.7l0.2,0.9l0.7-0.3c0.9,0.2,1.6,0.3,1.6,0.9
	c0,0.6,0,1.5,0,1.5L33.2,48.7z"></path><path class="st21" d="M33.3,51.3c0,0-1-0.3-1.5-0.6s-1.4-0.5-1.4-0.8c0-0.3,1.1,0.5,0.8-0.3c-0.2-0.8,1.5,0,1.5,0
	c0.9,0.6,1.4,0.3,0.9,1C33.3,51.3,33.3,51.3,33.3,51.3z"></path><path class="st14" d="M71.3,34.4c0.4,0.2,5.2,2.6,6,4.2c0.8,1.6,1,4.1,0.8,4.7c-0.2,0.6-1,0.5-1.6,2.5s-1.9,3.8-2.7,3.9
	c-0.8,0.1-1.6-0.4-3.3-0.6s-4.4-0.8-5.2-1.4c-0.8-0.6-1.8-2.4-2.2-3.6c-0.4-1.2,0.4-3.5,1-4.2c0.6-0.7,2.2-3.1,2.5-3.7
	c0.3-0.6,0.5-1.7,0.5-1.7L71.3,34.4z"></path><path class="st15" d="M64.5,32c0,0-4.2-0.1-5.9,0.1c-1.7,0.2-4.5,1.5-4.9,2.6c-0.4,1.1-1.9,4-0.9,6s1.5,3.2,2.6,3.9
	c1.1,0.8,4,1.3,5.1,1.3c1.1,0,1.4,1.7,3.1-0.9c1.7-2.6,3.1-4,3.3-5.1c0.1-1.1,0.1-4.5,0.1-4.5l-0.2-1.7L64.5,32z"></path><path class="st16" d="M67.3,30.4c-0.6-1.6-2.8-5.5-4.1-7.1c-1.3-1.6-4-1.7-4.9-1.5c-0.9,0.2-3.5,1-4,1.3s-2.7,1-2.7,1
	s-0.2,3.9,1.2,6.3c1.3,2.4,2.6,5.3,4.3,5.1c1.7-0.2,4.2-0.2,5.2-0.9c1-0.7,1.8-0.6,3-1.3C66.5,32.5,67.3,30.4,67.3,30.4z"></path><path class="st17" d="M70.4,31.3c0,0,2.8-1.7,3.7-3.4s1.3-5.4,0.6-6.5c-0.7-1.1-1.4-1.7-2.3-3c-0.8-1.3-2.3-3.1-2.3-3.1
	s-2.2-0.5-3-0.1c-0.8,0.3-2.7,1.7-3.5,1.9c-0.8,0.2-1.2-1.2-2.8,1.8s-2.7,3.6-1.1,5.9s4.4,5.4,5.5,6.4c1.1,1,4,1.2,4,1.2L70.4,31.3z
	"></path><path class="st16" d="M69.9,30.4c0,0,1.2-3.4,2.9-4.9c1.7-1.5,4.1-4,6.3-3.4c2.2,0.6,6.7,3.3,7.7,3.8c1,0.5,1.8,1.3,1.9,1.7
	s0,1.7-0.5,2.7c-0.5,1-1,2.9-2.4,4.4c-1.4,1.6-4.2,3.9-5.4,4.1s-3.2-0.3-4.7-1s-4.2-3.5-4.2-3.5l-1.2-1L69,31.8L69.9,30.4z"></path><path class="st18" d="M69.9,30.6l10.5-1.7l-10.2,2.7l0.9,1.2l9.5-2.4l-10.8,3.4l0.4,0.5c0,0,4.5,0.1,6.5-0.9c2-1,4.9-1.7,4.9-1.7
	s-9.1,4.3-10.9,3.8L68.1,34l0-2.1L69.9,30.6z"></path><path class="st18" d="M69.2,32.6c0,0,5,6.7,5.5,7.2s1.6,2.2,1.6,2.2l-7.2-7.6l4.8,9.2l-6-8.7l-0.4,0.8c0,0,3,6.6,3.7,7.2
	c0.7,0.6,1.1,1.5,1.1,1.5S68,39,67.5,38c-0.6-1-1.2-2.2-1.4-2.5c-0.2-0.3-1.4-2.7-0.6-2.8C66.2,32.7,69.2,32.6,69.2,32.6z"></path><path class="st18" d="M70.8,31.8L72,21.8l-3,10l-0.9-1.2c0,0,1.3-7.7,2.3-9.5c1-1.8,0.7-2.1,0.7-2.1l-4.1,10.2l-0.8,1.9l3-11.1
	l-4.3,10.4l2,2.6c0,0,0.9,0.3,1.3,0.2S70.8,31.8,70.8,31.8z"></path><path class="st18" d="M67.6,31.6c0,0-3.3-3.5-4.3-4.3c-1-0.8-4.1-2.4-4.1-2.4s4.8,4.5,5.7,5.6S59,27.8,59,27.8l6.1,4.3l0.6,0.8
	c0,0-5.7-2.3-6.7-3.2c-1-0.9-2.4-1.8-2.4-1.8s5.7,4.9,8.2,5.7C67.3,34.5,67.6,31.6,67.6,31.6z"></path><path class="st18" d="M68.7,36.9l-5,3.8l4.4-6L61,40.1l6.2-6.2l-1.6,0.4l-6.4,4.3c0,0,2.7-2.8,3.6-3.8s3-1.8,3-1.8s1.4-2.2,1.8-1.4
	c0.5,0.8,1.6,1,1.8,1.5c0.2,0.4,0.1-0.7,0.2,0.4S68.7,36.9,68.7,36.9z"></path><path class="st19" d="M70.2,31.5c0,0-0.2-0.1-0.7-1c-0.5-0.8-0.9-1.1-1.3-1c-0.4,0-0.7,0.2-0.7,0.2L66,29.3
	c-0.3,0.6-0.4,0.6-0.5,0.9c-0.1,0.3-0.1,0.9-0.1,0.9l-1,0c0,0-0.4,0.5-0.2,0.7c0.1,0.2,1.1-0.5,0.3,0.5c-0.8,1-0.8,1-0.8,1l0.7,0.6
	l-0.4,0.9l1.1,0L65,35.4l0.9,0.3c0,0,0.4,0.2,0.4,0.5c-0.1,0.3,0.5,0.7,0.5,0.7c1.3-0.1,1.6-0.5,1.6-0.5l1.5,1l-0.7-1.9l0.8-0.3
	l0.8-0.6l0.6-0.8l-0.8-0.4l0.6-1.4l-0.9,0.4L70.2,31.5z"></path><path class="st20" d="M67.4,33.2l-1.2-1.6c0,0-0.8,0-0.9,0.7c-0.1,0.7,0.2,1.3,0.2,1.3l0.8-0.4l0.2,0.7c0.7,0.6,1.1,1,1.5,0.7
	c0.5-0.3,1.1-0.9,1.1-0.9L67.4,33.2z"></path><path class="st21" d="M69.4,31.7c0,0-0.8-0.6-1.3-0.8c-0.5-0.2-1.2-0.7-1.4-0.5s1,0.5,0.2,0.8c-0.8,0.3,0.9,1.2,0.9,1.2
	c1,0.3,1,0.9,1.3,0.1C69.4,31.7,69.4,31.7,69.4,31.7z"></path></g></svg>