<svg id="Layer_1" data-name="Layer 1" xmlns="http://www.w3.org/2000/svg" viewBox="0 0 108 108">
  <defs>
    <style>
      .cls-1 {
        fill: #d9b1ee;
      }

      .cls-2 {
        fill: #cb97e7;
      }

      .cls-3 {
        fill: #fe99a0;
      }

      .cls-4 {
        fill: #ffdd40;
      }

      .cls-5 {
        fill: #ffc839;
      }

      .cls-6 {
        fill: #fd8087;
      }
    </style>
  </defs>
  <g>
    <g>
      <path class="cls-1" d="M59.42,29.1c-4.48,7.76-5.12,25.43-5.12,25.43s6.07-4.66,12.12-9.78A30.35,30.35,0,0,1,71,42.16,21.9,21.9,0,0,0,74.31,38c3.23-5.59,1.17-11.42-.23-14.24a11.48,11.48,0,0,1-.93-1.06,1.06,1.06,0,0,0-.89-.52c-2.19,0-9,.31-12.84,7Z"/>
      <path class="cls-2" d="M68.79,33.24A16.08,16.08,0,0,1,71,42.16a76.17,76.17,0,0,1-12.85,10c-1,.66-2.51,1.58-3.87,2.36,0-5.05.47-18.75,4.33-25.61,3.83-6.64,11.68-7,13.88-7a1.06,1.06,0,0,1,.89.52c.18.29.42.72.68,1.25-3.68.33-8.89,2-11.67,6.85a.6.6,0,0,0,.61.9,17.63,17.63,0,0,1,2.43-.17,3.92,3.92,0,0,1,3.34,1.93Z"/>
    </g>
    <g>
      <path class="cls-1" d="M78.89,46.25c-9,0-24.59,8.28-24.59,8.28s7.07,2.94,14.53,5.61a30.12,30.12,0,0,1,4.55,2.69,22.18,22.18,0,0,0,5.27.76c6.45,0,10.47-4.7,12.22-7.33a9.81,9.81,0,0,1,.45-1.33,1,1,0,0,0,0-1c-1.06-1.92-4.77-7.65-12.43-7.65Z"/>
      <path class="cls-2" d="M80,56.44a16,16,0,0,1-6.6,6.39,75.31,75.31,0,0,1-15.1-6.13c-1.08-.55-2.62-1.37-4-2.17,4.38-2.51,16.48-9,24.35-9.05,7.66,0,11.89,6.62,13,8.54a1,1,0,0,1,0,1c-.17.3-.41.72-.74,1.21-2.13-3-6.21-6.67-11.77-6.68a.6.6,0,0,0-.47,1,17.4,17.4,0,0,1,1.36,2,3.93,3.93,0,0,1,0,3.86Z"/>
    </g>
    <g>
      <path class="cls-1" d="M73.77,71.69C69.28,63.92,54.3,54.53,54.3,54.53s1,7.6,2.41,15.4a29.88,29.88,0,0,1-.06,5.28,22,22,0,0,0,2,4.94c3.23,5.59,9.31,6.72,12.46,6.92a9.49,9.49,0,0,1,1.38-.27,1.07,1.07,0,0,0,.89-.52C74.49,84.4,77.6,78.33,73.77,71.69Z"/>
      <path class="cls-2" d="M65.49,77.73a16,16,0,0,1-8.84-2.52,76.2,76.2,0,0,1-2.24-16.14c-.06-1.21-.12-3-.11-4.54,4.37,2.54,16,9.79,20,16.56,3.83,6.64.22,13.62-.91,15.5a1.06,1.06,0,0,1-.89.52c-.35,0-.83,0-1.42,0,1.55-3.35,2.68-8.71-.1-13.54a.61.61,0,0,0-1.09.09,17.28,17.28,0,0,1-1.06,2.18,4,4,0,0,1-3.35,1.93Z"/>
    </g>
    <g>
      <path class="cls-1" d="M49.18,80c4.48-7.76,5.12-25.44,5.12-25.44s-6.08,4.67-12.12,9.79a30.31,30.31,0,0,1-4.61,2.59,22.58,22.58,0,0,0-3.29,4.18c-3.22,5.6-1.17,11.43.23,14.25a9.17,9.17,0,0,1,.93,1.06,1.07,1.07,0,0,0,.9.52C38.53,87,45.35,86.61,49.18,80Z"/>
      <path class="cls-2" d="M39.8,75.83a16.17,16.17,0,0,1-2.23-8.92,75.7,75.7,0,0,1,12.86-10c1-.66,2.5-1.58,3.87-2.37,0,5.06-.47,18.76-4.34,25.62-3.83,6.64-11.68,7-13.87,7a1.07,1.07,0,0,1-.9-.52c-.17-.3-.41-.72-.68-1.25,3.68-.33,8.89-2,11.68-6.85a.61.61,0,0,0-.62-.9,17.51,17.51,0,0,1-2.42.17,4,4,0,0,1-3.35-1.93Z"/>
    </g>
    <g>
      <path class="cls-1" d="M29.71,62.82c9,0,24.59-8.29,24.59-8.29s-7.08-2.93-14.54-5.6a30.4,30.4,0,0,1-4.54-2.69A22.32,22.32,0,0,0,30,45.48c-6.46,0-10.48,4.7-12.22,7.33a10.21,10.21,0,0,1-.46,1.33,1,1,0,0,0,0,1c1.07,1.92,4.77,7.65,12.44,7.65Z"/>
      <path class="cls-2" d="M28.61,52.63a16,16,0,0,1,6.61-6.39,75.91,75.91,0,0,1,15.1,6.12c1.07.56,2.62,1.38,4,2.17-4.39,2.52-16.48,9-24.35,9.06-7.67,0-11.9-6.62-13-8.54a1.1,1.1,0,0,1,0-1c.17-.3.42-.72.75-1.21,2.12,3,6.2,6.67,11.77,6.68a.61.61,0,0,0,.47-1,17.4,17.4,0,0,1-1.36-2,3.93,3.93,0,0,1,0-3.86Z"/>
    </g>
    <g>
      <path class="cls-1" d="M34.83,37.38C39.31,45.15,54.3,54.53,54.3,54.53s-1-7.59-2.42-15.39a30.91,30.91,0,0,1,.06-5.28,22,22,0,0,0-2-4.94c-3.23-5.59-9.3-6.72-12.45-6.92a9.79,9.79,0,0,1-1.38.27,1,1,0,0,0-.89.52C34.11,24.67,31,30.74,34.83,37.38Z"/>
      <path class="cls-2" d="M43.11,31.33a16.1,16.1,0,0,1,8.83,2.53A76.18,76.18,0,0,1,54.19,50c.05,1.21.11,3,.11,4.53-4.37-2.54-16-9.78-20-16.56-3.83-6.63-.21-13.61.92-15.49a1,1,0,0,1,.89-.52c.34,0,.83,0,1.42,0-1.55,3.35-2.68,8.71.1,13.53a.6.6,0,0,0,1.08-.08,15.85,15.85,0,0,1,1.07-2.18,4,4,0,0,1,3.35-1.94Z"/>
    </g>
    <g>
      <path class="cls-2" d="M54.47,54.64l.15.08Z"/>
      <path class="cls-2" d="M54.62,54.35l-.15.08Z"/>
      <path class="cls-2" d="M54.62,54.35l-.15.08Z"/>
      <path class="cls-2" d="M54.12,54.43,54,54.35Z"/>
      <path class="cls-2" d="M54.12,54.64l-.15.08Z"/>
      <path class="cls-2" d="M54.12,54.43,54,54.35Z"/>
      <path class="cls-2" d="M54.12,54.64l-.15.08Z"/>
      <path class="cls-2" d="M54.62,54.72l-.15-.08Z"/>
      <path class="cls-2" d="M54.12,54.64l-.15.08Z"/>
      <path class="cls-2" d="M54,54.35l.15.08Z"/>
      <path class="cls-2" d="M54.47,54.64l.15.08Z"/>
      <path class="cls-2" d="M54.62,54.35l-.15.08Z"/>
      <path class="cls-2" d="M54.3,54.53l0,0,0,0-.08,0-.15.08-.13.08C51.75,56,42.77,61,35.15,62.85a16.12,16.12,0,0,1-6.54-6.36,4,4,0,0,1,0-3.86,16,16,0,0,1,6.61-6.39c7.61,1.91,16.54,6.84,18.62,8l.13.08.15.08.08,0,0,0,0,0Z"/>
      <path class="cls-2" d="M54.68,54.31c.12-.06.25-.14.41-.24l-.34.2Z"/>
      <path class="cls-2" d="M56.12,36l-.21.94Z"/>
      <path class="cls-2" d="M56.42,53.27l.54-.33Z"/>
      <path class="cls-2" d="M57,52.93l.43-.27Z"/>
    </g>
    <path class="cls-1" d="M77.35,54.07C76.52,52.6,73.5,48,68.09,48l-.2-.32L66.8,45.83c2.7-4.68.24-9.6-.61-11a.93.93,0,0,0-.77-.45c-1.68,0-7.17.32-9.88,5l-1.55,0H53c-2.71-4.69-8.19-5-9.88-5a.91.91,0,0,0-.77.44c-.85,1.45-3.31,6.37-.61,11.05l-.7,1.25-.54,1c-5.41,0-8.44,4.59-9.27,6.06a.92.92,0,0,0,0,.88c.83,1.47,3.86,6.06,9.27,6.06l.63,1.07.66,1.11c-2.71,4.68-.25,9.6.61,11.05a.93.93,0,0,0,.77.45c1.68,0,7.17-.32,9.87-5H54l1.6,0c2.7,4.69,8.19,5,9.87,5a.89.89,0,0,0,.77-.44c.86-1.45,3.32-6.37.61-11.06l.47-.83L68.09,61c5.41,0,8.43-4.59,9.26-6.06a.87.87,0,0,0,0-.88Z"/>
    <g>
      <path class="cls-3" d="M52.33,51.57V23.93a2,2,0,1,1,3.93,0V51.57Z"/>
      <path class="cls-3" d="M53,57.63,28.77,71.54a2,2,0,0,1-2-3.4L51.06,54.22Z"/>
      <path class="cls-3" d="M57.69,54.22l24.1,13.92a2,2,0,1,1-2,3.4L55.72,57.63Z"/>
    </g>
    <path class="cls-4" d="M66.16,47.76a1.14,1.14,0,0,0-1.55-.44L54,53.22l-9.91-6a1.14,1.14,0,0,0-1.17,2l10.43,6.26L53.12,67a1.14,1.14,0,0,0,1.12,1.15h0a1.13,1.13,0,0,0,1.13-1.11l.21-12.17L65.71,49.3a1.13,1.13,0,0,0,.45-1.54Z"/>
    <g>
      <path class="cls-4" d="M67.85,42.48c3.68-2.12,7.48-2.42,8.49-.67s-1.15,4.89-4.83,7l-.2.11s-.47.18-.69.29c-3.35,1.65-6.35,1.63-7.28,0s.24-3.58,2.84-5.58c.17-.13.51-.44.51-.44.37-.25.76-.5,1.16-.74Z"/>
      <path class="cls-5" d="M71.31,48.93C67.7,51,64,51.21,63,49.5s.71-4.21,3.66-6.28c-1.32,1.65-1.8,3.38-1.09,4.61C66.44,49.29,68.72,49.65,71.31,48.93Z"/>
    </g>
    <g>
      <path class="cls-4" d="M37.08,48.82c-3.68-2.12-5.84-5.26-4.83-7s4.81-1.45,8.49.67l.2.12s.39.32.59.46c3.11,2.07,4.59,4.67,3.66,6.29-.84,1.45-3.22,1.59-6.25.33-.2-.08-.63-.22-.63-.22C37.9,49.27,37.49,49.06,37.08,48.82Z"/>
      <path class="cls-5" d="M40.94,42.6c3.56,2.12,5.62,5.18,4.63,6.89-.9,1.56-4,1.49-7.26,0,2.08.32,3.82-.13,4.53-1.36.84-1.46,0-3.62-1.9-5.5Z"/>
    </g>
    <circle class="cls-6" cx="54.3" cy="54.53" r="5.22"/>
    <path class="cls-4" d="M54.3,55.67a1.14,1.14,0,0,1,0-2.27h0a1.14,1.14,0,0,1,0,2.27Z"/>
    <g>
      <path class="cls-4" d="M58,72.3C58,76.55,56.32,80,54.3,80s-3.66-3.44-3.66-7.69v-.23s.09-.5.1-.74C51,67.6,52.5,65,54.36,65c1.68,0,3,2,3.41,5.25,0,.22.13.66.13.66Q58,71.6,58,72.3Z"/>
      <path class="cls-5" d="M50.64,72.07c.06-4.14,1.67-7.46,3.66-7.46,1.79,0,3.29,2.72,3.6,6.31-.77-2-2-3.25-3.45-3.25-1.68,0-3.14,1.8-3.81,4.4Z"/>
    </g>
  </g>
</svg>
