<svg xmlns="http://www.w3.org/2000/svg" version="1.1" xmlns:xlink="http://www.w3.org/1999/xlink" xmlns:svgjs="http://svgjs.dev/svgjs" viewBox="0 0 108 108" style="" x="0" y="0"><style type="text/css">
	.st0{fill:none;stroke:#708530;stroke-width:1.1412;stroke-miterlimit:10;}
	.st1{fill:#A6C339;}
	.st2{fill:#007131;}
	.st3{fill:#5E6530;}
	.st4{fill:#566B2A;}
	.st5{fill:#92B83E;}
	.st6{fill:#7C773E;}
	.st7{fill:#A5C939;}
	.st8{fill:#729026;}
	.st9{fill:#72AA3A;}
	.st10{fill:#6B8823;}
	.st11{fill:#7A9829;}
	.st12{fill:#506326;}
	.st13{fill:#A69838;}
	.st14{fill:#E3B9D7;}
	.st15{fill:#D8A1E5;}
	.st16{fill:#D9B2D4;}
	.st17{fill:#B2B041;}
	.st18{fill:#C9C33C;}
	.st19{fill:#82832A;}
	.st20{fill:#A3A23B;}
	.st21{fill:#EDE5D1;}
</style><g><path class="st0" d="M80.2,50.4c-2.3-1.5-6.8-3.4-10.1-4.7"></path><path class="st0" d="M81.5,42.4c-3.3,2.2-8.6,4.1-12.8,4.1"></path><path class="st0" d="M76.5,37.4c-0.8,4.5-0.9,8.6-5.8,8.6"></path><path class="st0" d="M60.7,46.6c-5.2,1.7-11.2,2.6-15.3,1.7"></path><path class="st0" d="M58.2,55.8c-4.3-3.6-12.2-7.2-13.8-8.1"></path><path class="st0" d="M53.8,43.4c-1.1,3.4-0.9,5.9-7.3,5.5"></path><path class="st1" d="M81.2,58.3c-2-0.9-3-0.3-4-5.5l-1-5.2c0,0,1.1-0.1,2.4-0.3c1.3-0.2,5.9-1.3,8,2.1c2.1,3.4,2.9,5.7,3.1,6.5
	c0.2,0.8,1.2,3.3,1.4,3.9"></path><path class="st2" d="M96.8,37.8c-2.4,1.6-2.7,6.1-6.4,7.4c-3.7,1.4-9.3-0.2-11-0.5c-1.7-0.3-1.9,1.2-0.2-1.3c1.7-2.5,1-3.3,3-5.1
	c2-1.8,7.3-2.6,8.8-1.9C92.4,37.1,96.8,37.8,96.8,37.8"></path><path class="st3" d="M75.7,42.5c0.5-0.7,1.5-1,3.7-4.1c2.2-3.1,3.6-5.8,1.7-8c-2-2.2-3-1.7-3.6-4.2l-0.6-2.4c0,0-2,2.7-4.5,6.5
	c-2.5,3.9,0,8.2,1.2,9.8C74.9,41.6,75.7,42.5,75.7,42.5"></path><path class="st4" d="M74.5,44.2c0,0-2.6,0.4-4.7,3.3c-2.1,3-5.8,5.2-8.9,3.1c-3.1-2.2-5.5-2.3-5.5-2.3s0.4,0.4,2-2.4
	c1.6-2.7,5.9-5.2,9.2-4.5C69.9,42.2,74.5,44.2,74.5,44.2"></path><path class="st5" d="M66,64.9c0,0-1.1-6.5-2.8-9.4c-1.7-3-3-4.3-5.9-4.1c-2.9,0.3-4.7-0.2-4.7-0.2s1.7,4.4,1.4,6.3
	c-0.3,1.9,1.2,5.3,3.3,5.6C59.3,63.4,66,64.9,66,64.9"></path><path class="st6" d="M52.8,46.8c0.1,0,2.6-1.6,4.8-4.1c2.2-2.5,3.2-4,2.6-6c-0.6-2-1.5-3.7-2.5-5.6c-1-1.8-1.6-2.4-1.3-3.1
	c0.3-0.7,0,1.2-2.8,3.7c-2.8,2.5-4.6,3.4-4.6,5.3c0.1,1.9,1.9,3.1,2.6,5.1C52.3,44.1,52.8,46.8,52.8,46.8"></path><path class="st0" d="M51.3,88.7c0.9-2.6,1.7-7.6,2.2-11.1"></path><path class="st0" d="M59.3,87.9c-2.8-2.6-5.9-7.3-6.8-11.4"></path><path class="st0" d="M63,81.7c-4.5,0.4-8.5,1.4-9.6-3.4"></path><path class="st0" d="M50.5,68.6c-2.8-4.7-5-10.3-5.1-14.5"></path><path class="st0" d="M41.1,68.6c2.5-5.2,4.2-13.9,4.6-15.6"></path><path class="st0" d="M52.1,61.1c-3.5-0.2-5.9,0.7-6.9-5.7"></path><path class="st2" d="M43.9,91.7c0.5-2.2-0.4-3,4.3-5.3L53,84c0,0,0.4,1,0.8,2.2c0.4,1.2,2.6,5.4-0.2,8.3c-2.8,2.9-4.8,4.3-5.6,4.7
	c-0.7,0.4-2.9,2-3.5,2.4"></path><path class="st7" d="M67.2,101.6c-2.1-2-6.4-1-8.6-4.2c-2.2-3.2-1.9-9.1-2-10.9c-0.1-1.8-1.6-1.6,1.2-0.6c2.8,1,3.4,0.1,5.6,1.6
	c2.2,1.5,4.2,6.5,3.8,8.1C66.9,97.1,67.2,101.6,67.2,101.6"></path><path class="st3" d="M57.9,82.2c0.7,0.3,1.3,1.2,4.8,2.6c3.5,1.4,6.5,2,8.1-0.5c1.7-2.5,1-3.4,3.2-4.6l2.2-1.2c0,0-3-1.2-7.3-2.7
	c-4.3-1.5-7.9,2.2-9.2,3.8C58.6,81.2,57.9,82.2,57.9,82.2"></path><path class="st4" d="M55.9,81.5c0,0-0.9-2.4-4.3-3.7c-3.3-1.3-6.4-4.3-5-7.9c1.4-3.6,1-6,1-6s-0.3,0.5,2.7,1.3
	c3,0.9,6.4,4.4,6.4,7.8C56.8,76.5,55.9,81.5,55.9,81.5"></path><path class="st5" d="M34.1,78.6c0,0,6-2.8,8.4-5.2c2.5-2.5,3.5-4.1,2.6-6.8c-0.9-2.7-0.9-4.7-0.9-4.7s-3.8,2.8-5.7,3
	c-1.9,0.3-4.8,2.6-4.6,4.7C34,71.7,34.1,78.6,34.1,78.6"></path><path class="st6" d="M48.6,60.9c0,0.1,9.7,5.7,11.5,4.6c1.8-1.1,3.2-2.4,4.8-3.9c1.5-1.5,1.9-2.2,2.7-2.1c0.8,0.1-1.1,0.3-4.2-1.8
	s-4.3-3.6-6.2-3.1c-1.8,0.6-2.6,2.7-4.4,3.9C51,59.8,48.6,60.9,48.6,60.9"></path><path class="st0" d="M18,55.9c2.6,0.7,7.6,1.2,11.1,1.5"></path><path class="st0" d="M19.1,63.8c2.5-3,7-6.5,11.1-7.6"></path><path class="st0" d="M25.4,67.1c-0.6-4.5-1.7-8.4,3.1-9.9"></path><path class="st0" d="M37.9,53.7c4.5-3.2,10-5.8,14.2-6.1"></path><path class="st0" d="M37.7,44.2c5.2,2.2,13.9,3.3,15.6,3.6"></path><path class="st0" d="M45.4,54.7c0.1-3.5-0.9-5.8,5.4-7.3"></path><path class="st1" d="M14.8,48.6c2.2,0.3,2.9-0.6,5.4,4l2.5,4.6c0,0-1,0.4-2.2,1c-1.2,0.5-5.3,3-8.3,0.4c-3-2.6-4.5-4.6-4.8-5.3
	c-0.4-0.7-2.1-2.8-2.5-3.3"></path><path class="st2" d="M5.8,72.8c1.9-2.2,0.8-6.6,3.9-9c3.1-2.4,9-2.5,10.7-2.8c1.8-0.3,1.5-1.7,0.6,1.2c-0.9,2.9,0,3.4-1.4,5.7
	c-1.4,2.3-6.3,4.6-7.9,4.4C10.2,72.1,5.8,72.8,5.8,72.8"></path><path class="st3" d="M24.7,62c-0.2,0.8-1.1,1.4-2.4,5c-1.2,3.6-1.8,6.6,0.7,8.1c2.5,1.5,3.4,0.8,4.7,2.9l1.3,2.1
	c0,0,1.1-3.1,2.4-7.5c1.3-4.4-2.4-7.8-4.1-9C25.7,62.7,24.7,62,24.7,62"></path><path class="st4" d="M25.3,60c0,0,2.4-1.1,3.5-4.5c1.1-3.4,4.1-6.7,7.7-5.6c3.6,1.1,6,0.6,6,0.6s-0.5-0.2-1.2,2.8
	c-0.7,3.1-4.2,6.7-7.5,7C30.4,60.6,25.3,60,25.3,60"></path><path class="st5" d="M27.5,37.9c0,0,2.9,5.8,5.5,8.1c2.5,2.3,4.2,3.2,6.9,2.1c2.7-1.1,4.6-1.2,4.6-1.2s-2.9-3.7-3.2-5.6
	c-0.3-1.9-2.7-4.7-4.8-4.4C34.3,37.3,27.5,37.9,27.5,37.9"></path><path class="st6" d="M45.5,51.2c-0.1,0-2,2.3-3.4,5.3c-1.4,3-1.9,4.8-0.8,6.5c1.2,1.7,2.5,3.1,4,4.5c1.5,1.5,2.2,1.8,2.2,2.6
	c-0.1,0.8-0.3-1.1,1.7-4.3c2-3.2,3.5-4.6,2.8-6.4c-0.7-1.8-2.7-2.4-4-4.1C46.7,53.6,45.5,51.2,45.5,51.2"></path><path class="st0" d="M51,19.5c-1.2,2.5-2.5,7.4-3.4,10.8"></path><path class="st0" d="M43,19.4c2.5,2.9,5.1,7.9,5.6,12.1"></path><path class="st0" d="M38.6,25.2c4.5,0,8.6-0.5,9.2,4.4"></path><path class="st0" d="M49.7,39.6c2.3,4.9,3.9,10.8,3.6,15"></path><path class="st0" d="M59,40.6c-3,4.9-5.6,13.4-6.2,15.1"></path><path class="st0" d="M47.3,46.9c3.5,0.5,5.9-0.1,6.3,6.4"></path><path class="st1" d="M58.6,17.3c-0.7,2.1,0.1,3-4.9,4.9l-5,1.9c0,0-0.3-1.1-0.6-2.3c-0.3-1.2-2-5.7,1.1-8.3c3.1-2.6,5.3-3.8,6-4.1
	C56,9.1,58.4,7.6,59,7.3"></path><path class="st8" d="M36.5,5c1.8,2.2,6.3,1.7,8.1,5.2c1.8,3.4,0.9,9.3,0.8,11c-0.1,1.8,1.4,1.7-1.3,0.4c-2.7-1.3-3.3-0.4-5.4-2.2
	c-2-1.7-3.5-6.9-3-8.4C36.4,9.4,36.5,5,36.5,5"></path><path class="st2" d="M43.7,25.2c-0.7-0.3-1.2-1.3-4.5-3.1c-3.3-1.7-6.2-2.7-8.1-0.4c-1.9,2.3-1.4,3.3-3.7,4.3l-2.3,1
	c0,0,2.9,1.5,7,3.5c4.1,1.9,8.1-1.3,9.5-2.8C42.9,26.2,43.7,25.2,43.7,25.2"></path><path class="st4" d="M45.6,26.1c0,0,0.7,2.5,3.9,4.1c3.2,1.6,5.9,5,4.1,8.4c-1.7,3.4-1.6,5.9-1.6,5.9s0.3-0.5-2.6-1.6
	c-2.9-1.2-5.8-5.1-5.5-8.4C44.2,31.1,45.6,26.1,45.6,26.1"></path><path class="st5" d="M67,31.3c0,0-6.2,2.1-8.9,4.3c-2.7,2.2-3.9,3.7-3.3,6.5c0.6,2.8,0.4,4.7,0.4,4.7s4.1-2.3,6-2.4
	c1.9-0.1,5.1-2.1,5.1-4.2C66.3,38.2,67,31.3,67,31.3"></path><path class="st6" d="M50.8,47.4c0-0.1-1.9-2.3-4.6-4.1c-2.7-1.8-4.3-2.6-6.2-1.7c-1.9,0.9-3.5,2.1-5.2,3.4c-1.7,1.3-2.2,2-2.9,1.8
	c-0.8-0.2,1.2-0.2,4,2.3c2.8,2.4,3.9,4.1,5.8,3.7c1.9-0.4,2.8-2.4,4.7-3.4C48.2,48.3,50.8,47.4,50.8,47.4"></path><path class="st9" d="M60,58.6c-2.3-1.5-6.8-3.4-10.1-4.7"></path><path class="st9" d="M61.3,50.6c-3.3,2.2-8.6,4.1-12.8,4.1"></path><path class="st9" d="M56.3,45.6c-0.8,4.5-0.9,8.6-5.8,8.6"></path><path class="st9" d="M40.5,54.8c-5.2,1.7-11.2,2.6-15.3,1.7"></path><path class="st9" d="M37.9,64c-4.3-3.6-12.2-7.2-13.8-8.1"></path><path class="st9" d="M33.6,51.5c-1.1,3.4-0.9,5.9-7.3,5.5"></path><path class="st9" d="M61,66.5c-2-0.9-3-0.3-4-5.5l-1-5.2c0,0,1.1-0.1,2.4-0.3c1.3-0.2,5.9-1.3,8,2.1c2.1,3.4,2.9,5.7,3.1,6.5
	c0.2,0.8,1.2,3.3,1.4,3.9"></path><path class="st9" d="M76.6,45.9c-2.4,1.6-2.7,6.1-6.4,7.4c-3.7,1.4-9.3-0.2-11-0.5c-1.7-0.3-1.9,1.2-0.2-1.3c1.7-2.5,1-3.3,3-5.1
	c2-1.8,7.3-2.6,8.8-1.9C72.2,45.3,76.6,45.9,76.6,45.9"></path><path class="st9" d="M55.5,50.7c0.5-0.7,1.5-1,3.7-4.1c2.2-3.1,3.6-5.8,1.7-8c-2-2.2-3-1.7-3.6-4.2l-0.6-2.4c0,0-2,2.7-4.5,6.5
	c-2.5,3.9,0,8.2,1.2,9.8C54.7,49.8,55.5,50.7,55.5,50.7"></path><path class="st9" d="M54.3,52.4c0,0-2.6,0.4-4.7,3.3c-2.1,3-5.8,5.2-8.9,3.1c-3.1-2.2-5.5-2.3-5.5-2.3s0.4,0.4,2-2.4
	s5.9-5.2,9.2-4.5C49.7,50.4,54.3,52.4,54.3,52.4"></path><path class="st9" d="M45.8,73.1c0,0-1.1-6.5-2.8-9.4c-1.7-3-3-4.3-5.9-4.1c-2.9,0.3-4.7-0.2-4.7-0.2s1.7,4.4,1.4,6.3
	C33.5,67.6,35,71,37,71.3C39.1,71.6,45.8,73.1,45.8,73.1"></path><path class="st9" d="M32.5,54.9c0.1,0,2.6-1.6,4.8-4.1c2.2-2.5,3.2-4,2.6-6c-0.6-2-1.5-3.7-2.5-5.6c-1-1.8-1.6-2.4-1.3-3.1
	c0.3-0.7,0,1.2-2.8,3.7c-2.8,2.5-4.6,3.4-4.6,5.3c0.1,1.9,1.9,3.1,2.6,5.1C32.1,52.3,32.5,54.9,32.5,54.9"></path><path class="st0" d="M71.5,27.8c-2.6,0.8-7,3.2-10.2,4.9"></path><path class="st0" d="M66.3,21.8c-0.5,3.9-2.4,9.2-5.2,12.4"></path><path class="st0" d="M59.1,22.6c3,3.4,6,6,2.8,9.9"></path><path class="st0" d="M55.9,40.6c-2.1,5.1-5.3,10.3-8.6,13"></path><path class="st0" d="M61.3,48.3c-5.6,1.1-13.5,5-15.2,5.7"></path><path class="st0" d="M49,43.9c1.9,2.9,4,4.3-0.5,9.1"></path><path class="st1" d="M78.2,31.9c-2,0.9-2.1,2.1-6.8-0.3l-4.6-2.4c0,0,0.6-0.9,1.3-2c0.7-1.1,2.8-5.4,6.8-4.9c4,0.5,6.3,1.3,7,1.7
	c0.7,0.4,3.3,1.1,3.9,1.3"></path><path class="st2" d="M72.6,7c-0.4,2.9,2.9,5.8,1.6,9.6c-1.3,3.7-6.2,7-7.5,8.2c-1.3,1.2-0.3,2.3-1.2-0.6c-0.8-2.9-1.9-2.8-2-5.5
	c-0.1-2.7,2.7-7.3,4.2-8C69.2,10,72.6,7,72.6,7"></path><path class="st3" d="M62.5,26.4c-0.2-0.8,0.2-1.8-0.8-5.5c-0.9-3.7-2.1-6.5-5.1-6.3c-3,0.2-3.3,1.2-5.5,0.2l-2.3-1
	c0,0,0.8,3.2,2.1,7.6c1.3,4.4,6.3,5.1,8.3,5.1C61.3,26.4,62.5,26.4,62.5,26.4"></path><path class="st4" d="M63.1,28.3c0,0-1.4,2.2-0.5,5.7c0.9,3.5,0.2,7.8-3.4,8.8c-3.7,1.1-5.4,2.8-5.4,2.8s0.5-0.1-0.5-3
	c-1.1-2.9-0.1-7.8,2.5-9.9C58.5,30.7,63.1,28.3,63.1,28.3"></path><path class="st5" d="M73.4,47.8c0,0-5.7-3.2-9.1-3.7c-3.4-0.5-5.3-0.3-7,2.1c-1.7,2.4-3.2,3.6-3.2,3.6s4.4,1.4,5.7,2.8
	c1.3,1.4,4.9,2.3,6.5,0.9C67.9,52.1,73.4,47.8,73.4,47.8"></path><path class="st6" d="M50.9,46.8c0.1,0,0.4-3,0-6.3c-0.5-3.3-1-5-2.9-5.8c-1.9-0.8-3.8-1.1-5.9-1.5c-2.1-0.4-2.9-0.2-3.2-0.9
	c-0.4-0.7,0.9,0.7,1,4.5c0.1,3.8-0.4,5.7,1.1,6.8c1.5,1.1,3.6,0.5,5.7,1.2C48.6,45.5,50.9,46.8,50.9,46.8"></path><path class="st0" d="M82.1,74c-1.4-2.3-4.7-6-7.1-8.6"></path><path class="st0" d="M86.7,67.3c-3.8,0.6-9.4,0.1-13.2-1.8"></path><path class="st0" d="M84.3,60.6c-2.6,3.8-4.4,7.5-8.9,5.4"></path><path class="st0" d="M66.2,62.2c-5.4-0.7-11.2-2.5-14.5-5"></path><path class="st0" d="M60,69.5c-2.3-5.1-7.9-11.9-9-13.3"></path><path class="st0" d="M61.4,56.3c-2.4,2.6-3.3,5-8.9,1.8"></path><path class="st2" d="M79.6,81.7c-1.4-1.7-2.5-1.5-1.3-6.7l1.3-5.2c0,0,1,0.4,2.2,0.7c1.2,0.4,5.9,1.3,6.3,5.3c0.4,4,0.2,6.5,0,7.2
	c-0.2,0.8-0.3,3.5-0.4,4.2"></path><path class="st7" d="M102.3,69.6c-2.8,0.4-5,4.4-8.9,4.1c-3.9-0.3-8.2-4.2-9.6-5.2c-1.4-1-2.2,0.3,0.4-1.3c2.6-1.6,2.2-2.6,4.8-3.4
	c2.6-0.8,7.7,0.8,8.7,2C98.7,67.1,102.3,69.6,102.3,69.6"></path><path class="st3" d="M81.4,64.9c0.7-0.4,1.8-0.3,5.1-2.2c3.3-1.9,5.7-3.8,4.9-6.6c-0.8-2.9-1.9-2.9-1.5-5.4l0.5-2.5
	c0,0-2.9,1.6-6.8,4c-3.9,2.4-3.5,7.5-3,9.5C81.1,63.7,81.4,64.9,81.4,64.9"></path><path class="st4" d="M79.6,66c0,0-2.5-0.8-5.6,1c-3.1,1.8-7.4,2.3-9.3-1c-1.9-3.3-4-4.5-4-4.5s0.2,0.5,2.8-1.3
	c2.6-1.8,7.5-2.2,10.1-0.1C76.3,62.1,79.6,66,79.6,66"></path><path class="st5" d="M63.2,81.1c0,0,1.8-6.4,1.5-9.8c-0.3-3.4-0.9-5.3-3.6-6.3c-2.7-1-4.2-2.2-4.2-2.2s-0.4,4.7-1.4,6.3
	c-1,1.7-1.1,5.4,0.6,6.5S63.2,81.1,63.2,81.1"></path><path class="st6" d="M59,58.9c0,0,3-0.4,6.1-1.7c3.1-1.3,4.6-2.3,4.9-4.3c0.3-2.1,0.2-4,0.1-6.2c-0.1-2.1-0.4-2.9,0.2-3.4
	c0.6-0.5-0.5,1.1-4.1,2.1c-3.6,1.1-5.6,1.1-6.3,2.9c-0.7,1.8,0.4,3.7,0.2,5.8C59.8,56.3,59,58.9,59,58.9"></path><path class="st0" d="M35.3,79.5c2.3-1.6,5.8-5.2,8.3-7.7"></path><path class="st0" d="M42.1,83.6c-0.7-3.8-0.4-9.5,1.3-13.3"></path><path class="st0" d="M48.7,80.8c-3.8-2.3-7.6-3.9-5.6-8.6"></path><path class="st0" d="M46.5,62.7c0.5-5.5,2.1-11.4,4.5-14.9"></path><path class="st0" d="M39.1,57c5-2.7,11.5-8.8,12.9-9.9"></path><path class="st0" d="M52.2,57.5c-2.7-2.2-5.1-2.9-2.1-8.8"></path><path class="st1" d="M27.7,77.5c1.6-1.5,1.4-2.7,6.6-1.7l5.2,0.9c0,0-0.3,1.1-0.7,2.3c-0.3,1.2-1.1,6-5.1,6.7
	c-4,0.7-6.4,0.6-7.2,0.5C25.7,86,23,86.1,22.3,86"></path><path class="st2" d="M40.3,99.5c-0.5-2.8-4.5-4.7-4.3-8.6c0.2-3.9,3.9-8.5,4.9-10.1c0.9-1.5-0.3-2.2,1.3,0.3
	c1.7,2.5,2.6,2.1,3.5,4.6c0.9,2.6-0.5,7.8-1.7,8.9C42.7,95.7,40.3,99.5,40.3,99.5"></path><path class="st3" d="M44.3,78.2c0.4,0.7,0.3,1.8,2.3,5c2,3.2,3.9,5.5,6.7,4.5c2.8-1,2.8-2.1,5.3-1.8l2.5,0.3c0,0-1.7-2.8-4.2-6.6
	c-2.5-3.8-7.6-3-9.5-2.4C45.5,77.7,44.3,78.2,44.3,78.2"></path><path class="st4" d="M43.2,76.5c0,0,0.7-2.5-1.2-5.6c-1.9-3-2.5-7.3,0.7-9.4c3.2-2.1,4.3-4.3,4.3-4.3s-0.5,0.2,1.4,2.7
	c1.9,2.5,2.4,7.4,0.5,10.2C46.9,72.8,43.2,76.5,43.2,76.5"></path><path class="st5" d="M27.6,61c0,0,6.4,1.3,9.8,0.8c3.4-0.5,5.2-1.2,6.1-4c0.9-2.8,2.1-4.3,2.1-4.3s-4.7,0-6.3-1
	c-1.7-0.9-5.4-0.8-6.5,1C31.7,55.3,27.6,61,27.6,61"></path><path class="st6" d="M49.6,55.3c0,0,0.5,3,1.9,6c1.4,3,2.4,4.5,4.5,4.7c2.1,0.2,4,0,6.1-0.3c2.1-0.3,2.8-0.6,3.4-0.1
	c0.6,0.5-1.1-0.4-2.2-4c-1.2-3.6-1.3-5.6-3.1-6.2c-1.8-0.6-3.6,0.6-5.8,0.6C52.2,55.8,49.6,55.3,49.6,55.3"></path><path class="st0" d="M28.8,31.3c1.1,2.5,4,6.5,6.1,9.4"></path><path class="st0" d="M23.5,37.5c3.9-0.2,9.4,0.9,12.9,3.2"></path><path class="st0" d="M25.2,44.5c3-3.5,5.2-7,9.4-4.4"></path><path class="st0" d="M43.3,44.8c5.3,1.3,10.8,3.6,13.8,6.6"></path><path class="st0" d="M50.2,38.2c1.8,5.4,6.6,12.7,7.5,14.2"></path><path class="st0" d="M47.4,51.2c2.7-2.4,3.8-4.6,9-0.9"></path><path class="st1" d="M32.1,24c1.2,1.8,2.4,1.8,0.6,6.8l-1.8,5c0,0-1-0.5-2.1-1c-1.1-0.5-5.7-1.9-5.6-6c0-4,0.5-6.5,0.8-7.2
	c0.3-0.8,0.7-3.5,0.8-4.1"></path><path class="st7" d="M8.2,33.5c2.9-0.1,5.4-3.8,9.2-3.1c3.8,0.7,7.7,5.1,9,6.2c1.3,1.2,2.3,0-0.5,1.3c-2.7,1.3-2.5,2.3-5.2,2.8
	c-2.7,0.5-7.5-1.6-8.4-3C11.6,36.4,8.2,33.5,8.2,33.5"></path><path class="st2" d="M28.5,40.5c-0.7,0.3-1.8,0.1-5.3,1.6c-3.5,1.5-6.1,3.1-5.6,6.1c0.5,2.9,1.6,3.1,0.9,5.5l-0.7,2.4
	c0,0,3-1.3,7.2-3.3c4.1-2,4.3-7.1,4-9.1C28.7,41.7,28.5,40.5,28.5,40.5"></path><path class="st4" d="M30.4,39.6c0,0,2.4,1.1,5.7-0.4c3.3-1.5,7.6-1.5,9.1,2c1.5,3.5,3.5,4.9,3.5,4.9s-0.1-0.5-2.9,1
	c-2.8,1.5-7.7,1.4-10.1-0.9C33.3,43.8,30.4,39.6,30.4,39.6"></path><path class="st5" d="M48.3,26.2c0,0-2.4,6.2-2.5,9.6c-0.1,3.5,0.3,5.3,2.9,6.6c2.6,1.3,3.9,2.6,3.9,2.6s0.9-4.6,2.1-6.2
	c1.2-1.5,1.7-5.2,0.1-6.6C53.2,31,48.3,26.2,48.3,26.2"></path><path class="st6" d="M50.1,48.8c0-0.1-3,0-6.2,1c-3.2,1-4.8,1.8-5.3,3.8c-0.5,2-0.7,4-0.7,6.1c-0.1,2.1,0.1,2.9-0.5,3.4
	c-0.6,0.5,0.6-1,4.3-1.7c3.7-0.7,5.7-0.5,6.6-2.2c0.9-1.7,0-3.7,0.4-5.8C49.1,51.3,50.1,48.8,50.1,48.8"></path><path class="st9" d="M64.7,48.5c-2.6,0.8-7,3.2-10.2,4.9"></path><path class="st9" d="M59.4,42.6c-0.5,3.9-2.4,9.2-5.2,12.4"></path><path class="st9" d="M52.3,43.3c3,3.4,6,6,2.8,9.9"></path><path class="st9" d="M49.1,61.4c-2.1,5.1-5.3,10.3-8.6,13"></path><path class="st9" d="M54.5,69.1c-5.6,1.1-13.5,5-15.2,5.7"></path><path class="st9" d="M42.1,64.7c1.9,2.9,4,4.3-0.5,9.1"></path><path class="st9" d="M71.3,52.7c-2,0.9-2.1,2.1-6.8-0.3L59.9,50c0,0,0.6-0.9,1.3-2c0.7-1.1,2.8-5.4,6.8-4.9c4,0.5,6.3,1.3,7,1.7
	c0.7,0.4,3.3,1.1,3.9,1.3"></path><path class="st9" d="M65.7,27.8c-0.4,2.9,2.9,5.8,1.6,9.6c-1.3,3.7-6.2,7-7.5,8.2c-1.3,1.2-0.3,2.3-1.2-0.6c-0.8-2.9-1.9-2.8-2-5.5
	c-0.1-2.7,2.7-7.3,4.2-8C62.4,30.8,65.7,27.8,65.7,27.8"></path><path class="st9" d="M55.6,47.1c-0.2-0.8,0.2-1.8-0.8-5.5c-0.9-3.7-2.1-6.5-5.1-6.3c-3,0.2-3.3,1.2-5.5,0.2l-2.3-1
	c0,0,0.8,3.2,2.1,7.6c1.3,4.4,6.3,5.1,8.3,5.1C54.4,47.2,55.6,47.1,55.6,47.1"></path><path class="st9" d="M56.2,49.1c0,0-1.4,2.2-0.5,5.7c0.9,3.5,0.2,7.8-3.4,8.8c-3.7,1.1-5.4,2.8-5.4,2.8s0.5-0.1-0.5-3
	c-1.1-2.9-0.1-7.8,2.5-9.9C51.6,51.5,56.2,49.1,56.2,49.1"></path><path class="st9" d="M66.5,68.6c0,0-5.7-3.2-9.1-3.7c-3.4-0.5-5.3-0.3-7,2.1c-1.7,2.4-3.2,3.5-3.2,3.5s4.4,1.4,5.7,2.8
	c1.3,1.4,4.9,2.3,6.5,0.9C61,72.9,66.5,68.6,66.5,68.6"></path><path class="st9" d="M44,67.6c0.1,0,0.4-3,0-6.3c-0.5-3.3-1-5-2.9-5.8c-1.9-0.8-3.8-1.1-5.9-1.5c-2.1-0.4-2.9-0.2-3.2-0.9
	c-0.4-0.7,0.9,0.7,1,4.5c0.1,3.8-0.4,5.7,1.1,6.8c1.5,1.1,3.6,0.5,5.7,1.2C41.7,66.3,44,67.6,44,67.6"></path><path class="st0" d="M77.6,40.4C75,40,70,40.1,66.4,40.2"></path><path class="st0" d="M75.7,32.6c-2.2,3.3-6.3,7.2-10.2,8.8"></path><path class="st0" d="M69,30.1c1.1,4.4,2.6,8.2-2,10.2"></path><path class="st0" d="M58,44.8c-4.2,3.6-9.4,6.8-13.5,7.7"></path><path class="st0" d="M59.3,54.2c-5.4-1.6-14.2-1.7-16-1.8"></path><path class="st0" d="M50.4,44.6c0.3,3.5,1.5,5.7-4.6,7.9"></path><path class="st1" d="M81.6,47.2c-2.2-0.1-2.9,0.9-5.9-3.4l-3-4.3c0,0,1-0.5,2.1-1.2c1.1-0.7,4.9-3.6,8.2-1.3c3.3,2.3,4.9,4,5.4,4.7
	c0.5,0.7,2.4,2.5,2.9,3"></path><path class="st2" d="M88,22.3c-1.6,2.4-0.1,6.6-2.9,9.3c-2.9,2.7-8.7,3.5-10.4,3.9c-1.7,0.4-1.3,1.9-0.7-1.1c0.6-3-0.4-3.4,0.8-5.8
	c1.2-2.5,5.7-5.3,7.4-5.2C83.7,23.4,88,22.3,88,22.3"></path><path class="st3" d="M70.3,35c0.2-0.8,1-1.5,1.8-5.3c0.8-3.7,1.1-6.8-1.6-8c-2.7-1.2-3.5-0.4-5-2.4l-1.5-2c0,0-0.8,3.2-1.6,7.7
	c-0.8,4.5,3.2,7.5,5,8.4C69.2,34.5,70.3,35,70.3,35"></path><path class="st4" d="M69.9,37.1c0,0-2.3,1.4-3,4.9c-0.8,3.5-3.3,7.1-7,6.4c-3.7-0.7-6,0.1-6,0.1s0.5,0.2,0.9-3
	c0.4-3.1,3.4-7.1,6.7-7.7C64.8,37.1,69.9,37.1,69.9,37.1"></path><path class="st5" d="M70.2,59.3c0,0-3.6-5.4-6.3-7.4c-2.8-2-4.5-2.7-7.1-1.3c-2.6,1.4-4.4,1.7-4.4,1.7s3.3,3.3,3.8,5.2
	c0.5,1.9,3.2,4.3,5.3,3.8C63.4,60.6,70.2,59.3,70.2,59.3"></path><path class="st6" d="M50.8,48.1c0.1,0,1.8-2.5,2.8-5.7c1.1-3.2,1.4-4.9,0.1-6.5c-1.3-1.6-2.8-2.8-4.5-4.1c-1.7-1.3-2.4-1.5-2.4-2.3
	c0-0.8,0.5,1.1-1.2,4.5c-1.6,3.4-3,4.9-2.1,6.7c0.8,1.7,3,2.1,4.5,3.6C49.3,45.8,50.8,48.1,50.8,48.1"></path><path class="st0" d="M66,86.9c-0.2-2.7-1.4-7.6-2.3-11"></path><path class="st0" d="M73.1,82.9c-3.6-1.2-8.4-4.2-10.8-7.6"></path><path class="st0" d="M74,75.8c-4,2.2-7.3,4.7-10.3,0.7"></path><path class="st0" d="M57.3,68.9c-4.4-3.1-8.7-7.3-10.5-11.2"></path><path class="st0" d="M48.6,72.6c0.3-5.7-1.6-14.3-1.9-16.1"></path><path class="st0" d="M55.8,61.4c-3.3,1.2-5.1,3-8.6-2.4"></path><path class="st2" d="M60.3,92.6c-0.4-2.2-1.5-2.5,1.9-6.6l3.5-4.1c0,0,0.7,0.8,1.6,1.7c0.9,0.9,4.6,3.9,3.1,7.7
	c-1.5,3.8-2.8,5.9-3.3,6.5c-0.5,0.6-1.9,3-2.2,3.6"></path><path class="st10" d="M85.8,92.2c-2.7-1-6.4,1.6-9.6-0.4c-3.3-2.1-5.3-7.5-6.1-9.1c-0.8-1.6-2.1-0.8,0.9-1c3-0.2,3.1-1.3,5.8-0.8
	c2.6,0.5,6.4,4.2,6.7,5.8C83.8,88.3,85.8,92.2,85.8,92.2"></path><path class="st3" d="M69.5,78.3c0.8,0,1.7,0.5,5.5,0.4c3.8-0.2,6.8-0.7,7.3-3.7c0.5-2.9-0.4-3.5,1.1-5.5l1.6-2c0,0-3.3,0.1-7.8,0.5
	c-4.5,0.4-6.5,5.1-7,7.1C69.7,77.1,69.5,78.3,69.5,78.3"></path><path class="st4" d="M67.5,78.5c0,0-1.8-1.8-5.4-1.7c-3.6,0.2-7.6-1.4-7.7-5.2c-0.1-3.8-1.5-5.8-1.5-5.8s-0.1,0.5,3.1,0.1
	c3.1-0.4,7.6,1.5,9,4.5C66.3,73.5,67.5,78.5,67.5,78.5"></path><path class="st5" d="M46.1,84.6c0,0,4.4-4.9,5.7-8.1c1.3-3.2,1.6-5.1-0.3-7.3c-1.9-2.1-2.7-3.9-2.7-3.9s-2.4,4-4.1,5.1
	c-1.7,1-3.4,4.3-2.4,6.1S46.1,84.6,46.1,84.6"></path><path class="st6" d="M52.5,62.7c0,0.1,2.8,1.1,6.1,1.3c3.3,0.2,5.1,0.1,6.3-1.6c1.2-1.7,2-3.5,2.9-5.5c0.8-2,0.9-2.8,1.7-3
	c0.7-0.2-0.9,0.7-4.6,0c-3.7-0.7-5.4-1.6-6.9-0.3c-1.5,1.3-1.3,3.5-2.5,5.3C54.4,60.7,52.5,62.7,52.5,62.7"></path><path class="st0" d="M22.2,70.3c2.7-0.4,7.5-2,10.8-3.1"></path><path class="st0" d="M26.4,77.1c1.1-3.7,3.9-8.7,7.2-11.4"></path><path class="st0" d="M33.5,77.6c-2.3-3.9-4.9-7-1.1-10.3"></path><path class="st0" d="M39.8,60.3c2.9-4.7,7-9.3,10.7-11.3"></path><path class="st0" d="M35.8,51.8c5.7-0.1,14.1-2.6,15.9-3"></path><path class="st0" d="M47.2,58.3c-1.3-3.2-3.1-5,2.1-8.9"></path><path class="st1" d="M16.4,65c2.1-0.6,2.5-1.7,6.6,1.5l4.1,3.2c0,0-0.8,0.8-1.6,1.8c-0.9,0.9-3.7,4.9-7.5,3.6
	c-3.8-1.2-5.9-2.4-6.6-2.9c-0.6-0.5-3.1-1.7-3.6-2"></path><path class="st2" d="M17.6,90.6c0.9-2.8-1.8-6.3,0.1-9.7c1.9-3.4,7.3-5.9,8.8-6.8c1.5-0.9,0.7-2.2,1,0.8c0.3,3,1.4,3.1,1,5.8
	c-0.4,2.7-4,6.7-5.6,7.2C21.4,88.2,17.6,90.6,17.6,90.6"></path><path class="st3" d="M30.8,73.2c0.1,0.8-0.5,1.7-0.2,5.5c0.3,3.8,1,6.8,3.9,7.1c2.9,0.4,3.4-0.6,5.5,0.8l2,1.4c0,0-0.2-3.3-0.7-7.8
	c-0.5-4.5-5.3-6.2-7.3-6.5C32.1,73.4,30.8,73.2,30.8,73.2"></path><path class="st4" d="M30.6,71.2c0,0,1.8-2,1.5-5.6c-0.3-3.6,1.1-7.7,4.9-8.1c3.8-0.4,5.8-1.9,5.8-1.9s-0.5,0,0,3.1
	c0.5,3.1-1.2,7.8-4.2,9.4C35.5,69.7,30.6,71.2,30.6,71.2"></path><path class="st5" d="M23.9,50.1c0,0,5,4.1,8.3,5.2c3.2,1.1,5.1,1.3,7.2-0.8c2.1-2.1,3.8-2.9,3.8-2.9S39,49.4,38,47.8
	c-1.1-1.6-4.4-3.2-6.2-2C30,46.9,23.9,50.1,23.9,50.1"></path><path class="st6" d="M45.8,55.1c-0.1,0-1,2.9-1.1,6.2c-0.1,3.3,0.1,5.1,1.8,6.2c1.7,1.1,3.5,1.8,5.5,2.5c2,0.7,2.8,0.7,3,1.5
	c0.2,0.7-0.7-0.9-0.2-4.6c0.6-3.7,1.4-5.6,0.1-7c-1.3-1.4-3.5-1.1-5.3-2.1C47.8,56.8,45.8,55.1,45.8,55.1"></path><path class="st0" d="M38.3,24c-0.1,2.7,0.6,7.7,1.1,11.2"></path><path class="st0" d="M30.9,27.1c3.5,1.6,7.9,5.1,9.9,8.8"></path><path class="st0" d="M29.2,34.2c4.2-1.8,7.7-3.9,10.3,0.3"></path><path class="st0" d="M45.1,42.8C49.2,46.4,53,51,54.3,55"></path><path class="st0" d="M54.1,40c-0.9,5.6,0.1,14.4,0.2,16.2"></path><path class="st0" d="M45.8,50.4c3.4-0.9,5.4-2.4,8.3,3.3"></path><path class="st1" d="M44.5,18.9c0.2,2.2,1.3,2.7-2.6,6.4L38.1,29c0,0-0.7-0.9-1.4-1.9c-0.8-1-4.1-4.3-2.3-8c1.9-3.6,3.4-5.6,4-6.1
	c0.6-0.6,2.2-2.8,2.6-3.4"></path><path class="st7" d="M19.2,16.5c2.6,1.2,6.5-1,9.5,1.4c3,2.4,4.5,8.1,5.1,9.7c0.7,1.6,2,1-1,0.9c-3-0.1-3.2,0.9-5.8,0.2
	c-2.6-0.8-5.9-4.9-6.1-6.5C20.9,20.7,19.2,16.5,19.2,16.5"></path><path class="st2" d="M33.9,32.1c-0.8,0-1.6-0.7-5.4-1c-3.8-0.2-6.8,0-7.7,2.9c-0.9,2.9,0,3.5-1.7,5.3l-1.8,1.8c0,0,3.3,0.3,7.8,0.4
	c4.6,0.1,7-4.4,7.7-6.4C33.6,33.3,33.9,32.1,33.9,32.1"></path><path class="st4" d="M36,32.2c0,0,1.6,2,5.2,2.2c3.6,0.2,7.4,2.2,7.1,6c-0.3,3.8,0.8,6,0.8,6s0.1-0.5-3-0.4
	c-3.1,0.1-7.4-2.3-8.5-5.5C36.6,37.3,36,32.2,36,32.2"></path><path class="st5" d="M57.8,28.4c0,0-4.9,4.4-6.5,7.5c-1.6,3.1-2.1,4.9-0.5,7.3c1.7,2.3,2.2,4.2,2.2,4.2s2.9-3.8,4.6-4.6
	c1.8-0.8,3.9-3.9,3.1-5.9C60,34.9,57.8,28.4,57.8,28.4"></path><path class="st6" d="M49.2,49.5c0-0.1-2.7-1.3-5.9-1.9c-3.3-0.6-5-0.6-6.4,1c-1.4,1.6-2.4,3.3-3.4,5.2c-1,1.9-1.2,2.7-2,2.8
	c-0.8,0.1,1-0.6,4.6,0.5c3.6,1.1,5.2,2.2,6.8,1c1.6-1.1,1.7-3.3,3-5C47.1,51.3,49.2,49.5,49.2,49.5"></path><path class="st9" d="M62.2,55.9c-2.7-0.5-7.7-0.3-11.2-0.2"></path><path class="st9" d="M60.2,48.2c-2.2,3.3-6.3,7.2-10.2,8.8"></path><path class="st9" d="M53.6,45.6c1.1,4.4,2.6,8.2-2,10.2"></path><path class="st9" d="M42.6,60.3c-4.2,3.6-9.4,6.8-13.5,7.7"></path><path class="st9" d="M43.9,69.7c-5.4-1.6-14.2-1.7-16-1.8"></path><path class="st9" d="M35,60.1c0.3,3.5,1.5,5.7-4.6,7.9"></path><path class="st9" d="M66.2,62.8c-2.2-0.1-2.9,0.9-5.9-3.4l-3-4.3c0,0,1-0.5,2.1-1.2c1.1-0.7,4.9-3.6,8.2-1.3c3.3,2.3,4.9,4,5.4,4.7
	c0.5,0.7,2.4,2.5,2.9,3"></path><path class="st9" d="M72.5,37.8c-1.6,2.4-0.1,6.6-2.9,9.3c-2.9,2.7-8.7,3.5-10.4,3.9c-1.7,0.4-1.3,1.9-0.7-1.1
	c0.6-3-0.4-3.4,0.8-5.8c1.2-2.5,5.7-5.3,7.4-5.2C68.2,38.9,72.5,37.8,72.5,37.8"></path><path class="st9" d="M54.8,50.6c0.2-0.8,1-1.5,1.8-5.3c0.8-3.7,1.1-6.8-1.6-8c-2.7-1.2-3.5-0.4-5-2.4l-1.5-2c0,0-0.8,3.2-1.6,7.7
	c-0.8,4.5,3.2,7.5,5,8.4C53.7,50.1,54.8,50.6,54.8,50.6"></path><path class="st9" d="M54.5,52.6c0,0-2.3,1.4-3,4.9c-0.8,3.5-3.3,7.1-7,6.4c-3.7-0.7-6,0.1-6,0.1s0.5,0.2,0.9-3
	c0.4-3.1,3.4-7.1,6.7-7.8C49.3,52.6,54.5,52.6,54.5,52.6"></path><path class="st9" d="M54.7,74.8c0,0-3.6-5.4-6.3-7.4c-2.8-2-4.5-2.7-7.1-1.3c-2.6,1.4-4.4,1.7-4.4,1.7s3.3,3.3,3.8,5.2
	c0.5,1.9,3.2,4.3,5.3,3.8C47.9,76.1,54.7,74.8,54.7,74.8"></path><path class="st9" d="M35.3,63.6c0.1,0,1.8-2.5,2.8-5.7c1.1-3.2,1.4-4.9,0.1-6.5c-1.3-1.6-2.8-2.8-4.5-4.1c-1.7-1.3-2.4-1.5-2.4-2.3
	c0-0.8,0.5,1.1-1.2,4.5c-1.6,3.4-3,4.9-2.1,6.7c0.8,1.7,3,2.1,4.5,3.6C33.9,61.3,35.3,63.6,35.3,63.6"></path><path class="st0" d="M60.6,23.3c-2.1,1.8-5.2,5.8-7.5,8.6"></path><path class="st0" d="M53.4,19.9c1.1,3.7,1.4,9.4,0.1,13.4"></path><path class="st0" d="M47.1,23.5c4.1,1.9,8,3.1,6.5,7.9"></path><path class="st0" d="M51.3,41.2c0.1,5.5-0.8,11.5-2.9,15.3"></path><path class="st0" d="M59.3,46c-4.7,3.2-10.5,10-11.8,11.3"></path><path class="st0" d="M46.2,47c2.9,1.9,5.4,2.3,3.1,8.5"></path><path class="st1" d="M68.5,24.4c-1.5,1.7-1.1,2.8-6.4,2.5l-5.3-0.3c0,0,0.2-1.1,0.4-2.3c0.2-1.3,0.5-6.1,4.3-7.2
	c3.9-1.1,6.3-1.3,7.1-1.3c0.8,0.1,3.5-0.3,4.2-0.4"></path><path class="st2" d="M53.4,4c0.8,2.7,5,4.2,5.2,8.1c0.2,3.9-3,8.9-3.7,10.5c-0.8,1.6,0.6,2.2-1.3-0.1c-1.9-2.3-2.8-1.8-4-4.2
	c-1.1-2.4-0.3-7.8,0.8-9C51.5,8,53.4,4,53.4,4"></path><path class="st3" d="M51.8,25.6c-0.5-0.6-0.5-1.7-2.9-4.7c-2.3-3-4.5-5-7.2-3.7c-2.7,1.3-2.5,2.4-5.1,2.4l-2.5,0c0,0,2,2.6,4.9,6.1
	c2.9,3.5,7.9,2.1,9.7,1.3C50.6,26.2,51.8,25.6,51.8,25.6"></path><path class="st4" d="M53.1,27.2c0,0-0.4,2.6,1.8,5.4c2.2,2.8,3.3,7,0.3,9.4c-3,2.4-3.8,4.7-3.8,4.7s0.5-0.3-1.7-2.6
	c-2.1-2.3-3.2-7.1-1.6-10C49.8,31.2,53.1,27.2,53.1,27.2"></path><path class="st5" d="M70.3,40.8c0,0-6.5-0.6-9.8,0.3c-3.3,0.9-5,1.8-5.6,4.7c-0.6,2.9-1.6,4.5-1.6,4.5s4.7-0.5,6.4,0.3
	c1.8,0.7,5.4,0.2,6.3-1.7C66.9,46.9,70.3,40.8,70.3,40.8"></path><path class="st6" d="M49.1,48.9c0,0-0.8-2.9-2.5-5.7c-1.7-2.8-2.9-4.2-5-4.1c-2.1,0.1-4,0.5-6,1c-2.1,0.5-2.7,0.9-3.4,0.5
	c-0.6-0.5,1.1,0.3,2.7,3.7c1.6,3.4,1.9,5.4,3.7,5.8c1.9,0.4,3.5-1,5.7-1.2C46.4,48.6,49.1,48.9,49.1,48.9"></path><path class="st0" d="M88.7,61.2c-2.2-1.6-6.7-3.6-9.9-5"></path><path class="st0" d="M90.3,53.3c-3.3,2.1-8.7,3.9-12.9,3.6"></path><path class="st0" d="M85.4,48c-0.9,4.5-1.1,8.6-6.1,8.4"></path><path class="st0" d="M69.3,56.8C64,58.3,58,59,53.9,58"></path><path class="st0" d="M66.5,65.9c-4.2-3.8-12-7.6-13.5-8.5"></path><path class="st0" d="M62.6,53.3c-1.2,3.3-1,5.8-7.5,5.2"></path><path class="st2" d="M89.4,69.1c-1.9-1-3-0.4-3.8-5.6l-0.9-5.2c0,0,1.1-0.1,2.4-0.2c1.3-0.1,5.9-1.1,7.9,2.3c2,3.5,2.7,5.8,2.8,6.6
	c0.1,0.8,1.1,3.3,1.3,4"></path><path class="st11" d="M105.7,49.1c-2.5,1.5-2.9,6-6.6,7.2c-3.7,1.3-9.2-0.5-11-0.9c-1.7-0.3-2,1.1-0.2-1.3c1.8-2.5,1.1-3.2,3.2-5
	c2.1-1.8,7.4-2.4,8.8-1.6C101.3,48.3,105.7,49.1,105.7,49.1"></path><path class="st3" d="M84.4,53.1c0.5-0.6,1.5-1,3.9-4c2.3-3.1,3.8-5.7,1.9-8c-1.9-2.3-2.9-1.8-3.5-4.3l-0.5-2.5c0,0-2.1,2.6-4.7,6.4
	c-2.7,3.8-0.3,8.2,0.9,9.8C83.6,52.2,84.4,53.1,84.4,53.1"></path><path class="st4" d="M83.2,54.8c0,0-2.6,0.3-4.8,3.2c-2.2,2.9-6,5-9,2.8c-3-2.3-5.4-2.5-5.4-2.5s0.4,0.4,2.1-2.3
	c1.7-2.7,6.1-5,9.3-4.2C78.6,52.6,83.2,54.8,83.2,54.8"></path><path class="st5" d="M74,75.2c0,0-0.9-6.5-2.5-9.5c-1.6-3-2.9-4.4-5.8-4.3c-2.9,0.2-4.7-0.3-4.7-0.3s1.5,4.4,1.2,6.3
	c-0.3,1.9,1.1,5.3,3.1,5.7S74,75.2,74,75.2"></path><path class="st6" d="M61.4,56.6c0.1,0,2.6-1.5,4.9-4c2.3-2.4,3.4-3.9,2.8-5.9c-0.5-2-1.4-3.8-2.3-5.6c-1-1.9-1.5-2.4-1.2-3.2
	c0.3-0.7,0,1.2-3,3.6c-2.9,2.4-4.8,3.2-4.7,5.2c0,1.9,1.8,3.2,2.5,5.2C61.1,54,61.4,56.6,61.4,56.6"></path><path class="st0" d="M47.5,84.9c1.5-2.3,3.3-7,4.7-10.3"></path><path class="st0" d="M55.5,85.9c-2.2-3.2-4.1-8.5-4-12.7"></path><path class="st0" d="M60.5,80.7c-4.5-0.6-8.6-0.6-8.6-5.6"></path><path class="st0" d="M51.3,65.1c-1.7-5.2-2.6-11.2-1.7-15.4"></path><path class="st0" d="M42.2,62.9c3.6-4.5,7.2-12.6,8-14.2"></path><path class="st0" d="M54.5,58.1c-3.4-1-5.8-0.6-5.4-7.1"></path><path class="st1" d="M39.7,86.1c0.9-2,0.3-3,5.4-4.2l5.1-1.2c0,0,0.1,1.1,0.3,2.4c0.2,1.3,1.3,5.9-2.1,8.1c-3.4,2.2-5.7,3.1-6.5,3.3
	c-0.8,0.2-3.3,1.3-3.9,1.6"></path><path class="st2" d="M60.1,101.1c-1.6-2.4-6-2.5-7.4-6.1c-1.4-3.7,0.2-9.3,0.5-11.1c0.3-1.8-1.2-1.9,1.3-0.3
	c2.5,1.6,3.2,0.9,5.1,2.8c1.8,2,2.6,7.3,1.9,8.8C60.8,96.7,60.1,101.1,60.1,101.1"></path><path class="st3" d="M55.4,80c0.7,0.4,1,1.5,4.1,3.6c3.1,2.1,5.8,3.5,8,1.4c2.2-2.1,1.7-3.1,4.2-3.8l2.4-0.7c0,0-2.6-1.9-6.5-4.3
	c-3.8-2.4-8.2,0.3-9.7,1.6C56.3,79.2,55.4,80,55.4,80"></path><path class="st4" d="M53.7,78.9c0,0-0.4-2.6-3.3-4.6c-3-2-5.2-5.7-3.1-8.8c2.1-3.2,2.3-5.6,2.3-5.6s-0.4,0.4,2.3,1.9
	c2.7,1.5,5.2,5.8,4.4,9.1C55.7,74.2,53.7,78.9,53.7,78.9"></path><path class="st5" d="M33.2,71.1c0,0,6.4-1.3,9.4-3.2c2.9-1.9,4.3-3.2,4.1-6.1c-0.3-2.9,0.2-4.8,0.2-4.8s-4.3,1.8-6.3,1.6
	c-1.9-0.2-5.3,1.4-5.6,3.5C34.6,64.3,33.2,71.1,33.2,71.1"></path><path class="st12" d="M51.2,57.1c0,0.1,1.6,2.5,4.1,4.7c2.5,2.2,4,3.1,6,2.5c2-0.7,3.7-1.6,5.5-2.7c1.8-1.1,2.4-1.7,3.1-1.4
	c0.7,0.3-1.2,0-3.7-2.7c-2.5-2.8-3.4-4.6-5.3-4.4c-1.9,0.2-3.1,2-5.1,2.8C53.8,56.6,51.2,57.1,51.2,57.1"></path><path class="st0" d="M22.5,43.6c2,1.8,6.3,4.3,9.3,6.1"></path><path class="st0" d="M20.1,51.3c3.5-1.7,9-2.9,13.2-2.3"></path><path class="st0" d="M24.4,57c1.4-4.4,2-8.4,6.9-7.8"></path><path class="st0" d="M41.3,50.1c5.4-1,11.4-1,15.4,0.4"></path><path class="st0" d="M45,41.3c3.8,4.2,11.1,8.9,12.5,9.9"></path><path class="st0" d="M47.6,54.2c1.5-3.2,1.6-5.7,7.9-4.4"></path><path class="st1" d="M22.6,35.6c1.8,1.2,2.9,0.7,3.2,6l0.3,5.3c0,0-1.1,0-2.4,0c-1.3,0-6,0.5-7.6-3.2c-1.6-3.7-2.1-6.1-2.1-6.9
	c0-0.8-0.8-3.4-0.9-4.1"></path><path class="st13" d="M4.4,53.8c2.6-1.2,3.5-5.6,7.3-6.5c3.8-0.9,9.1,1.5,10.8,2c1.7,0.5,2.1-0.9,0.1,1.4c-2,2.3-1.4,3.1-3.7,4.6
	c-2.3,1.5-7.6,1.6-8.9,0.7C8.6,55.1,4.4,53.8,4.4,53.8"></path><path class="st2" d="M25.9,52.1c-0.5,0.6-1.6,0.8-4.3,3.6c-2.6,2.8-4.4,5.3-2.7,7.8c1.7,2.5,2.7,2.2,3,4.7l0.3,2.5
	c0,0,2.3-2.4,5.4-5.8c3-3.5,1.1-8.2,0.1-9.9C26.6,53.1,25.9,52.1,25.9,52.1"></path><path class="st4" d="M27.3,50.5c0,0,2.6,0,5.1-2.7c2.5-2.7,6.5-4.4,9.2-1.8c2.8,2.6,5.1,3.1,5.1,3.1s-0.3-0.4-2.3,2.1
	c-2,2.5-6.6,4.3-9.7,3.2C31.6,53.2,27.3,50.5,27.3,50.5"></path><path class="st5" d="M38.5,31.2c0,0,0.2,6.6,1.5,9.7c1.3,3.2,2.4,4.7,5.3,4.9c2.9,0.1,4.6,0.8,4.6,0.8s-1-4.6-0.5-6.4
	c0.5-1.9-0.5-5.4-2.5-6C44.9,33.6,38.5,31.2,38.5,31.2"></path><path class="st6" d="M49.1,51c0,0-2.8,1.2-5.3,3.4c-2.5,2.2-3.7,3.5-3.4,5.6c0.3,2.1,1,3.9,1.7,5.9c0.8,2,1.2,2.6,0.9,3.3
	c-0.4,0.7,0.2-1.2,3.3-3.3c3.1-2.1,5.1-2.7,5.2-4.6c0.2-1.9-1.5-3.4-1.9-5.5C49.2,53.7,49.1,51,49.1,51"></path><path class="st9" d="M62.5,44.9c-2.1,1.8-5.2,5.8-7.5,8.6"></path><path class="st9" d="M55.3,41.6c1.1,3.7,1.4,9.4,0.1,13.4"></path><path class="st9" d="M49,45.2c4.1,1.9,8,3.1,6.5,7.9"></path><path class="st9" d="M53.1,62.9c0.1,5.5-0.8,11.5-2.9,15.3"></path><path class="st9" d="M61.2,67.7c-4.7,3.2-10.5,10-11.8,11.3"></path><path class="st9" d="M48,68.7c2.9,1.9,5.4,2.3,3.1,8.5"></path><path class="st9" d="M70.3,46.1c-1.5,1.7-1.1,2.8-6.4,2.5l-5.3-0.3c0,0,0.2-1.1,0.4-2.3c0.2-1.3,0.5-6.1,4.3-7.2
	c3.9-1.1,6.3-1.3,7.1-1.3c0.8,0.1,3.5-0.3,4.2-0.4"></path><path class="st9" d="M55.3,25.6c0.8,2.7,5,4.2,5.2,8.1c0.2,3.9-3,8.9-3.7,10.5c-0.8,1.6,0.6,2.2-1.3-0.1c-1.9-2.3-2.8-1.8-4-4.2
	c-1.1-2.4-0.3-7.8,0.8-9C53.4,29.7,55.3,25.6,55.3,25.6"></path><path class="st9" d="M53.6,47.3c-0.5-0.6-0.5-1.7-2.9-4.7c-2.3-3-4.5-5-7.2-3.7c-2.7,1.3-2.5,2.4-5.1,2.4l-2.5,0c0,0,2,2.6,4.9,6.1
	c2.9,3.5,7.9,2.1,9.7,1.3C52.5,47.8,53.6,47.3,53.6,47.3"></path><path class="st9" d="M54.9,48.9c0,0-0.4,2.6,1.8,5.4c2.2,2.8,3.3,7,0.3,9.4c-3,2.4-3.8,4.7-3.8,4.7s0.5-0.3-1.7-2.6
	c-2.1-2.3-3.2-7.1-1.6-10C51.6,52.8,54.9,48.9,54.9,48.9"></path><path class="st9" d="M72.1,62.5c0,0-6.5-0.6-9.8,0.3c-3.3,0.9-5,1.8-5.6,4.7c-0.6,2.9-1.6,4.5-1.6,4.5s4.7-0.5,6.4,0.3
	c1.8,0.7,5.4,0.2,6.3-1.7C68.7,68.6,72.1,62.5,72.1,62.5"></path><path class="st9" d="M50.9,70.6c0,0-0.8-2.9-2.5-5.7c-1.7-2.8-2.9-4.2-5-4.1c-2.1,0.1-4,0.5-6,1c-2.1,0.5-2.7,0.9-3.4,0.5
	c-0.6-0.5,1.1,0.3,2.7,3.7c1.6,3.4,1.9,5.4,3.7,5.8c1.9,0.4,3.5-1,5.7-1.2C48.3,70.3,50.9,70.6,50.9,70.6"></path><path class="st14" d="M52.5,69c0,0-2.1-8.4-4-10.3s-3.3-5.8-6.7-4.5s-6.9,3.8-10.4,8.6s-2.6,9.5-1.4,10.7c1.1,1.2,1,3.2,3.7,3.4
	c2.7,0.2,6.8-0.5,9.5-2.2c2.6-1.8,5.3-1.7,7.1-3.1C51.9,70,52.5,69,52.5,69z"></path><path class="st15" d="M52.5,71.6c0,0-8.3-2.6-12.4-1s-7.8,2.5-8.5,6.3s-0.7,8.1,1.8,10.5s4.1,4.7,4.3,5.1c0.2,0.3,8,6.2,11.5,4.7
	c3.5-1.5,6.2-4.4,6.4-5.4s3.8-10.9,3.3-12.5c-0.4-1.6-3.6-5-3.6-5L52.5,71.6z"></path><path class="st16" d="M55.7,70.9c0,0-6.3,16.4-6.4,18.1c-0.1,1.6,0.5,3.8,1.7,5.1c1.2,1.3,9.5,1.5,10.7,1s6.1-4.6,6.9-5.6
	s1.8-3.9,2.9-6.2c1.1-2.4,0.6-8.3,0.7-9s0.9-1.6-2.3-4c-3.2-2.5-6.6-3.2-9.9-2.6C56.8,68.1,55.7,70.9,55.7,70.9z"></path><path class="st15" d="M53.4,70.1c0,0-8.9-8-9.6-8.8c-0.7-0.9-1.1-4.8,1.6-7.3c2.7-2.4,5.2-3,7-2.4c1.8,0.6,7.2,4.8,8.5,5.8
	c1.2,1,10.4,8.1,10.2,8.8c-0.2,0.7-1.4,3.7-0.5,4.6s0.5,3.9-0.5,5.6c-0.9,1.7-0.9,2.4-3.6,2.5S61,79,59,77.6c-2-1.5-5.7-4-5.7-4
	L53.4,70.1z"></path><path class="st17" d="M47.3,65.5c0.2-0.5,4.5-2.7,5.3-2.3c0.9,0.4,1.4,2.9,2.5,1.7s1.7-1,2.1-0.9c0.4,0.1,0.1,0.7,1,0.9
	s0.9-0.6,1.9,1.1c1,1.7,2.3,1.1,1.9,3.1s-1.1,2.8-1.6,4.1c-0.6,1.3-0.9,2.5-1.1,3.4s-0.6,0.4-1.1,1.2c-0.5,0.8-1.6,1.8-1.6,1.8
	s-1.8-1.2-2.3-0.6C53.7,79.5,52,80,52,80l0.6-2.6c0,0-3.7,0.1-3.5,0c0.3-0.1,1.6-1.6,2-2.2s2-2.4,0.6-2.3c-1.4,0.1-2.5,0.8-3.6,0.4
	c-1.1-0.3-2-1.7-2-1.9c0-0.1-0.9-0.8-0.9-0.8s1.3-0.8,1.6-1.1c0.2-0.3,0.6-0.6,0.3-0.9s-1-1.1-1-1.1s2-0.1,2.3-0.2
	C48.6,67.1,47.3,65.5,47.3,65.5z"></path><path class="st18" d="M56.3,67.5c-0.2,0.1-1.1,0.2-2,1.6c-1,1.4-0.9,0.4-1.3,0c-0.3-0.3-1.5-0.6-2.8-0.6c-0.2,0.5-0.4,1.1-0.3,1.2
	c0.2,0.1,1.5,0.6,1.9,3.2c0.4,2.6,0.5,0.6,0.9,1.7c0.3,1.1,1.6,1,2.2,1.4c0.6,0.4,2.7-1.5,3.7-3c0.9-1.5,1.1-2.5,1.2-4.4
	c0.1-1.2-0.4-1.7-1.1-2c-0.5,0.3-1,0.5-1.2,0.7C56.8,67.9,56.5,67.4,56.3,67.5z"></path><path class="st19" d="M56.6,65.2c-0.5,0.1-1.4-0.3-1.7,0.6c-0.3,0.9-1.3,0.7-2.8,0c-1.5-0.6-1.5,1-1.7,1.8c0,0-0.2,0.4-0.3,0.8
	c1.3,0,2.6,0.3,2.8,0.6c0.4,0.4,0.3,1.4,1.3,0c1-1.4,1.9-1.5,2-1.6c0.2-0.1,0.5,0.4,1.1-0.2c0.2-0.2,0.7-0.4,1.2-0.7
	c-0.3-0.2-0.7-0.3-1.1-0.5C56.2,65.3,57.1,65.1,56.6,65.2z"></path><path class="st20" d="M52.7,70.8c-0.6,0.8-1.7,2.9-0.9,2.1c0.7-0.8,1.3-1.3,1.5-1.6c0.2-0.3,1-0.6,0.8-0.8
	C53.7,70.3,52.7,70.8,52.7,70.8z"></path><path class="st20" d="M54.5,72c0,0.5-0.3,2.3-0.7,2.6c-0.3,0.4-1.2,0.7-1.2,0s0.7-2.2,0.8-2.2C53.5,72.3,54.5,72,54.5,72z"></path><path class="st20" d="M56.2,72c-0.1,0.4-0.4,2.1-0.5,2.5s-0.9,0-0.9,0L56.2,72z"></path><path class="st20" d="M57.4,71.7c0.2,0.5,1.3,0.8,0.6,1.1c-0.7,0.2-1.3,0.2-1.3,0.2L57.4,71.7z"></path><path class="st20" d="M56,69.1c0.1,0.8-0.4,2.1,0.4,1.4c0.8-0.7,1.4-0.8,1.1-1.2c-0.3-0.4-0.5-1.8-1-1S56,69.1,56,69.1z"></path><path class="st14" d="M38.1,36.2c0,0,6.3-2.4,7.6-4.1c1.3-1.7,4.2-3.1,2.9-5.6s-3.6-5-7.6-7.3s-7.6-1.1-8.4-0.1
	c-0.8,1-2.4,1.1-2.3,3.2c0.1,2.1,1,5.3,2.6,7.1c1.6,1.9,1.8,4,3.1,5.2S38.1,36.2,38.1,36.2z"></path><path class="st15" d="M36,36.4c0,0,1.2-6.7-0.3-9.7s-2.6-5.8-5.7-6s-6.4,0.2-8,2.4s-3.3,3.6-3.5,3.8c-0.2,0.2-4.1,6.8-2.6,9.3
	c1.5,2.6,4,4.4,4.8,4.5s8.8,1.9,10,1.5c1.2-0.5,3.6-3.2,3.6-3.2L36,36.4z"></path><path class="st16" d="M36.9,38.8c0,0-13.3-3.4-14.6-3.3s-2.9,0.7-3.8,1.8s-0.3,7.5,0.2,8.4c0.5,0.9,4.1,4.3,4.9,4.8s3.2,1,5.1,1.7
	c1.9,0.7,6.5-0.3,7.1-0.2c0.5,0,1.3,0.6,2.9-2.1c1.6-2.7,1.9-5.4,1.1-7.9S36.9,38.8,36.9,38.8z"></path><path class="st15" d="M37.2,36.9c0,0,5.4-7.6,6-8.2s3.7-1.3,5.8,0.6c2.1,1.9,2.8,3.8,2.5,5.2c-0.3,1.5-3,6-3.7,7.1
	c-0.7,1.1-5.3,8.8-5.9,8.7c-0.6-0.1-3-0.7-3.6,0.1s-3,0.7-4.4,0.2c-1.4-0.6-2-0.5-2.3-2.6c-0.3-2.1-0.6-4.3,0.4-6
	c1-1.7,2.6-4.8,2.6-4.8L37.2,36.9z"></path><path class="st17" d="M40.3,31.8c0.4,0.1,2.5,3.2,2.3,3.9s-2.1,1.3-1.1,2.1c1,0.8,0.9,1.3,0.9,1.6c0,0.3-0.5,0.2-0.6,0.8
	c-0.1,0.7,0.6,0.6-0.7,1.6c-1.2,0.9-0.7,1.9-2.2,1.8c-1.6-0.2-2.3-0.6-3.3-0.9c-1.1-0.3-2-0.5-2.8-0.6c-0.7-0.1-0.3-0.4-1-0.7
	s-1.5-1.1-1.5-1.1s0.8-1.5,0.3-1.9s-1.1-1.7-1.1-1.7l2.1,0.2c0,0-0.4-2.9-0.3-2.7c0.1,0.2,1.4,1.1,1.9,1.4c0.5,0.3,2.1,1.4,1.9,0.3
	c-0.2-1.1-0.8-1.8-0.7-2.7c0.2-0.9,1.2-1.7,1.3-1.7c0.1,0,0.6-0.8,0.6-0.8s0.7,1,1,1.1c0.3,0.2,0.5,0.4,0.7,0.1
	c0.2-0.3,0.8-0.9,0.8-0.9s0.3,1.6,0.4,1.8C39.2,33,40.3,31.8,40.3,31.8z"></path><path class="st18" d="M39.6,39c-0.1-0.1-0.2-0.8-1.4-1.4c-1.2-0.6-0.4-0.7-0.1-1c0.2-0.2,0.3-1.3,0.2-2.3c-0.4-0.1-0.9-0.2-1-0.1
	c-0.1,0.1-0.3,1.2-2.3,1.8c-2,0.5-0.4,0.5-1.3,0.8c-0.8,0.4-0.6,1.3-0.9,1.9c-0.3,0.5,1.4,2,2.7,2.6c1.3,0.6,2.1,0.6,3.5,0.6
	c1,0,1.3-0.4,1.5-1c-0.2-0.4-0.5-0.8-0.7-0.9C39.3,39.4,39.6,39.1,39.6,39z"></path><path class="st19" d="M41.4,39c-0.1-0.4,0.1-1.1-0.7-1.3c-0.7-0.1-0.6-0.9-0.3-2.2s-0.9-1-1.5-1.1c0,0-0.3-0.1-0.6-0.2
	c0.1,1,0,2-0.2,2.3c-0.3,0.3-1.1,0.4,0.1,1c1.2,0.6,1.3,1.3,1.4,1.4c0.1,0.1-0.3,0.4,0.3,0.8c0.2,0.2,0.4,0.5,0.7,0.9
	c0.1-0.3,0.2-0.6,0.3-0.9C41.2,38.7,41.4,39.4,41.4,39z"></path><path class="st20" d="M36.7,36.4c-0.7-0.4-2.4-1-1.7-0.5c0.7,0.5,1.1,0.9,1.4,1c0.3,0.1,0.6,0.7,0.7,0.5
	C37.2,37.2,36.7,36.4,36.7,36.4z"></path><path class="st20" d="M35.9,38c-0.4,0.1-1.8-0.1-2.1-0.3s-0.6-0.9-0.1-1c0.6-0.1,1.7,0.3,1.8,0.4C35.6,37.2,35.9,38,35.9,38z"></path><path class="st20" d="M36,39.3c-0.3,0-1.6-0.1-2-0.2s-0.1-0.7-0.1-0.7L36,39.3z"></path><path class="st20" d="M36.4,40.2c-0.4,0.2-0.5,1.1-0.8,0.5c-0.2-0.5-0.2-1-0.2-1L36.4,40.2z"></path><path class="st20" d="M38.3,38.9c-0.6,0.1-1.7-0.2-1,0.4c0.6,0.6,0.7,1,1.1,0.8c0.3-0.3,1.3-0.6,0.7-0.9
	C38.3,38.9,38.3,38.9,38.3,38.9z"></path><path class="st14" d="M75.9,34.3c0,0-13.4-4.3-14.4-4.7s-3.1,0.1-3.3,1.5c-0.1,1.5,4.8,13,6.1,14.1c1.3,1.2,9.5,7.6,10.5,8.5
	c1,0.9,2.9,2.9,4,2.6s3.1-0.1,3.3-2.3c0.2-2.2,0.4-9.1,0-10c-0.4-0.9-3.1-5.7-3.4-6.2C78.5,37.4,75.9,34.3,75.9,34.3z"></path><path class="st15" d="M98.6,32.5c0,0,3.7,2.3,4.1,4.6c0.5,2.3-3.7,11.6-5.1,12.4s-7.9,5.9-9.2,6.1s-7.9-1.3-8.2-1.5
	C80,54,77.1,52.8,76.1,51s-1.7-3.7-1.1-6.9c0.7-3.2,0.9-5.6,1-7.1s1.1-3.5,1.1-3.5s7.8-0.8,8.6-0.9c0.8,0,2.6-0.2,3.7-0.2
	S98.6,32.5,98.6,32.5z"></path><path class="st15" d="M80.4,32.5c0,0,6.4-8.1,6.3-10.4s-5.4-8-8.8-9.7s-7-3.1-9.4-1.6s-5.4,4.5-6.2,5.9c-0.9,1.4-2.6,2.9-3.1,4
	c-0.5,1.1-1.9,8.5-1.7,9s2.3,5.1,5.2,5.6c2.9,0.5,8.9,0.9,10.5,0.9S80.4,32.5,80.4,32.5z"></path><path class="st16" d="M77.8,35.4c0,0-3.7-10.6-3.7-13.1s3.3-8.8,5-9.4s7.5-1.7,10.2,0s9.6,9.6,10.1,10.6s2.1,5.7,1.6,7.2
	s1.3,6.3-4.3,8s-11.1,2.1-12.2,1.7c-1.1-0.4-4.3-2.5-4.3-2.5L77.8,35.4z"></path><path class="st20" d="M82.9,39.3c-0.1-0.3,0.2-1.9-1-3c-1.2-1.1-2.9-2-3.3-2.6c-0.4-0.6-0.5-2-1.9-2.1c-1.4-0.1-1.4-0.1-1.4-0.1
	c1.2,1.1,1.1,1.8,1.7,3.2c0.6,1.4,0.1,1.7,1.3,4.1c0.8,1.6,0.5,2.6,0.2,3.2c0.1,0,0.3,0.1,0.4,0.1c0.8,0.2,1.7,0.9,2.2,0.5
	s1.7-1.1,1.8-1.6S83,39.6,82.9,39.3z"></path><path class="st17" d="M78.3,38.9c-1.2-2.5-0.7-2.8-1.3-4.1c-0.6-1.4-0.5-2.1-1.7-3.2c-1.3-0.2-4-1-5.3,0.1s-1.9,2.9-1.6,3.7
	s0.6,2,1.9,3.3s1.7,1.6,2.2,2.4c0.5,0.8,3.7,0.5,3.7,0.5s1.4,0.2,2.2,0.4C78.8,41.5,79.1,40.4,78.3,38.9z"></path><path class="st20" d="M72.6,33.8c0.2-0.2,2.2-0.2,2.2,0s0.2,0.7,0.5,0.9c0.3,0.2,0.9,0.4,0.9,0.9c0,0.6-0.1,1.2-0.5,0.9
	c-0.4-0.3-0.9-0.6-1.3-0.9c-0.4-0.3-0.7-0.8-1.1-0.8C72.8,34.9,72.6,33.8,72.6,33.8z"></path><path class="st21" d="M74.4,37.9c0.7,0,2.5,0.1,2.8,0c0.3-0.1,1.7-0.1,1.7,0s1.1-1.2,1.5-1.3c0.4-0.1,1.6-0.3,1.6-0.3s0-1.7,0.4-2.1
	c0.4-0.4,0.6-0.5,0.6,0c0,0.5,0.2,1.3-0.4,2.1s-2,1.6-2.8,1.9c-0.7,0.3-2.3,0.4-2.6,0.4s-1.2,0.1-1.9,0S73.8,37.9,74.4,37.9z"></path><path class="st19" d="M72.9,37.2c0.6,0.3,0.6,0.2,0.7,0.8s0.3,0.9,0,1c-0.3,0.1-1.8-0.6-1.8-0.6L72.9,37.2z"></path><path class="st21" d="M74.7,32.7c0,0,0.5,0.5,1.3,1.1c2,1.7,5.5,4.6,5.8,4.9c0.4,0.4,2,1.4,1.5,1.9c-0.4,0.5-1,0.2-1.1,0
	c-0.1-0.2-4.5-3.7-4.9-4.8C77,34.7,74.7,32.7,74.7,32.7z"></path></g></svg>