<?xml version="1.0" encoding="utf-8"?>
<!-- Generator: Adobe Illustrator 23.1.1, SVG Export Plug-In . SVG Version: 6.00 Build 0)  -->
<svg version="1.1" id="Layer_1" xmlns="http://www.w3.org/2000/svg" xmlns:xlink="http://www.w3.org/1999/xlink" x="0px" y="0px"
	 viewBox="0 0 108 108" style="enable-background:new 0 0 108 108;" xml:space="preserve">
<style type="text/css">
	.st0{fill:none;stroke:#708530;stroke-width:1.0127;stroke-miterlimit:10;}
	.st1{fill:#337034;}
	.st2{fill:#3F8133;}
	.st3{fill:#678B2B;}
	.st4{fill:#B0CC36;}
	.st5{fill:#639D3C;}
	.st6{fill:#A6BD39;}
	.st7{fill:#84B53A;}
	.st8{fill:#A5C939;}
	.st9{fill:#64791A;}
	.st10{fill:#72AA3A;}
	.st11{fill:#81842A;}
	.st12{fill:#8BAC30;}
	.st13{fill:#758A27;}
	.st14{fill:#598A34;}
	.st15{fill:#406C25;}
	.st16{fill:#4F7E2E;}
	.st17{fill:#5C8E36;}
	.st18{fill:#FFFFFF;}
	.st19{fill:#F2F1E4;}
	.st20{fill:#FFFEEE;}
	.st21{fill:#F0EEE3;}
	.st22{fill:#FFEFCC;}
	.st23{fill:#ECEADA;}
	.st24{fill:#FFFABE;}
	.st25{fill:#FFF9BA;}
	.st26{fill:#FEDECA;}
	.st27{fill:#FFD8A9;}
	.st28{fill:#FFF7E5;}
	.st29{fill:#FFFBD2;}
	.st30{fill:#FFF8AC;}
	.st31{fill:#FFF8A7;}
</style>
<g>
	<path class="st0" d="M81.6,59.1c-1.7-1.6-5.4-4-8-5.7"/>
	<path class="st0" d="M83.9,52.8c-3.1,1.2-8,1.9-11.6,1"/>
	<path class="st0" d="M80.3,47.8c-1.3,3.6-2,6.9-6.3,6"/>
	<path class="st0" d="M65.3,52.5c-4.8,0.5-10.1,0.1-13.5-1.4"/>
	<path class="st0" d="M61.8,59.6c-3.2-3.7-9.5-8.1-10.7-9.1"/>
	<path class="st0" d="M59.9,48.6c-1.4,2.6-1.6,4.7-7.1,3.2"/>
	<path class="st1" d="M81.3,65.8c-1.6-1.1-2.5-0.8-2.7-5.2l-0.1-4.4c0,0,1,0.1,2.1,0.2c1.1,0.1,5.3,0,6.6,3.1
		c1.3,3.2,1.7,5.2,1.7,5.9c0,0.7,0.6,2.9,0.7,3.5"/>
	<path class="st2" d="M97.8,51.7c-2.3,0.8-3.2,4.5-6.6,5c-3.4,0.5-8-1.9-9.4-2.4c-1.5-0.5-1.8,0.6,0-1.1c1.8-1.8,1.3-2.5,3.3-3.6
		c2-1.1,6.7-0.8,7.9,0C94.1,50.4,97.8,51.7,97.8,51.7"/>
	<path class="st3" d="M78.9,51.8c0.5-0.5,1.4-0.6,3.8-2.7c2.4-2.2,4-4.1,2.6-6.3c-1.4-2.2-2.3-2-2.5-4.1l-0.2-2.1
		c0,0-2.1,1.8-4.9,4.5c-2.8,2.7-1.2,6.7-0.4,8.3C78.3,50.9,78.9,51.8,78.9,51.8"/>
	<path class="st4" d="M77.6,53.1c0,0-2.3-0.2-4.5,1.9c-2.2,2.1-5.8,3.2-8.1,0.9c-2.4-2.3-4.4-2.9-4.4-2.9s0.3,0.4,2.1-1.6
		c1.8-2,5.9-3.2,8.6-2C73.9,50.6,77.6,53.1,77.6,53.1"/>
	<path class="st5" d="M67.2,68.4c0,0,0-5.5-1.1-8.2c-1.1-2.7-2-4.1-4.5-4.4c-2.5-0.3-4-1-4-1s0.8,3.9,0.3,5.4
		c-0.5,1.5,0.3,4.6,2,5.2C61.6,66,67.2,68.4,67.2,68.4"/>
	<path class="st6" d="M58.4,51.2c0,0,2.5-0.9,4.8-2.5c2.3-1.7,3.4-2.7,3.2-4.4c-0.2-1.8-0.7-3.3-1.4-5c-0.6-1.7-1-2.2-0.7-2.8
		c0.4-0.5-0.2,1-3,2.5c-2.8,1.5-4.5,1.9-4.7,3.5c-0.2,1.6,1.2,2.9,1.5,4.7C58.5,49,58.4,51.2,58.4,51.2"/>
	<path class="st0" d="M51,85.3c1.2-2,2.6-5.9,3.6-8.7"/>
	<path class="st0" d="M58,86.1c-2.1-2.6-4.1-7-4.2-10.5"/>
	<path class="st0" d="M62.2,81.6c-4-0.4-7.5-0.4-7.8-4.5"/>
	<path class="st0" d="M53.3,68.7c-1.8-4.3-2.9-9.3-2.3-12.8"/>
	<path class="st0" d="M45.2,67c2.9-3.8,5.6-10.6,6.3-12"/>
	<path class="st0" d="M55.7,62.8c-3-0.8-5.2-0.5-5.1-5.9"/>
	<path class="st7" d="M44.9,77c0.7-1.7,0.1-2.5,4.5-3.6l4.5-1.1c0,0,0.2,0.9,0.4,2c0.2,1,1.5,4.9-1.4,6.8c-2.9,1.9-4.8,2.7-5.5,2.8
		c-0.7,0.2-2.8,1.2-3.3,1.4"/>
	<path class="st8" d="M65,91.4c-1.5-2-5.4-2-6.8-5c-1.4-3-0.3-7.8-0.1-9.3c0.1-1.5-1.2-1.6,1.1-0.3c2.3,1.3,2.9,0.7,4.6,2.3
		c1.7,1.6,2.7,6,2.1,7.3C65.4,87.7,65,91.4,65,91.4"/>
	<path class="st3" d="M57.7,81.2c0.6,0.4,1,1.2,3.8,3c2.8,1.8,5.3,2.8,7.1,1.1c1.8-1.8,1.4-2.6,3.4-3.2l2.1-0.6c0,0-2.4-1.5-5.9-3.5
		c-3.5-2-7.2,0.3-8.5,1.5C58.4,80.4,57.7,81.2,57.7,81.2"/>
	<path class="st9" d="M56.1,80.3c0,0-0.4-2.2-3.1-3.8c-2.7-1.6-4.9-4.7-3.2-7.3c1.7-2.7,1.7-4.7,1.7-4.7s-0.3,0.3,2.2,1.6
		c2.5,1.2,4.8,4.8,4.4,7.5C57.6,76.3,56.1,80.3,56.1,80.3"/>
	<path class="st5" d="M37.7,74c0,0,5.6-1.2,8-2.8c2.5-1.6,3.6-2.7,3.2-5.1c-0.4-2.4-0.1-4-0.1-4s-3.7,1.6-5.4,1.4
		c-1.7-0.1-4.5,1.3-4.7,3C38.6,68.3,37.7,74,37.7,74"/>
	<path class="st6" d="M52.7,62.1c0,0,1.5,2.1,3.8,3.9c2.3,1.8,3.7,2.6,5.4,2c1.7-0.6,3.2-1.4,4.7-2.4c1.6-0.9,2-1.4,2.6-1.2
		c0.7,0.2-1,0-3.3-2.2c-2.3-2.3-3.2-3.8-4.9-3.6c-1.7,0.2-2.6,1.7-4.3,2.4C55,61.6,52.7,62.1,52.7,62.1"/>
	<path class="st0" d="M27.1,52.4c2.1,1.1,6.4,2.3,9.4,3.2"/>
	<path class="st0" d="M26.9,59.2c2.6-2,7-4,10.7-4.3"/>
	<path class="st0" d="M31.8,63c0.2-3.8-0.2-7.2,4.1-7.6"/>
	<path class="st0" d="M44.6,54.2c4.4-1.8,9.5-2.9,13.2-2.5"/>
	<path class="st0" d="M45.8,46.4c4.2,2.7,11.5,5.2,13,5.7"/>
	<path class="st0" d="M50.9,56.4c0.6-2.9,0.1-4.9,5.8-5"/>
	<path class="st10" d="M25.4,45.9c1.8,0.6,2.6,0,4.1,4.3l1.5,4.2c0,0-0.9,0.2-2,0.4s-5,1.5-7.2-1.2c-2.2-2.7-3.2-4.5-3.4-5.2
		c-0.2-0.6-1.4-2.6-1.7-3.2"/>
	<path class="st7" d="M14.1,64.1c1.9-1.5,1.7-5.2,4.7-6.6c3.1-1.4,8.1-0.4,9.7-0.3c1.6,0.1,1.6-1.1,0.4,1.1c-1.2,2.2-0.5,2.8-2,4.4
		c-1.6,1.7-6.1,2.7-7.4,2.2C17.9,64.4,14.1,64.1,14.1,64.1"/>
	<path class="st3" d="M32,58.7c-0.3,0.6-1.2,1-2.8,3.7c-1.6,2.8-2.5,5.1-0.6,6.8c2,1.7,2.8,1.2,3.6,3.2l0.8,2c0,0,1.4-2.3,3.2-5.7
		c1.8-3.4-0.9-6.9-2.2-8.1C32.8,59.4,32,58.7,32,58.7"/>
	<path class="st4" d="M32.8,57.2c0,0,2.2-0.5,3.7-3.1c1.5-2.6,4.5-4.8,7.4-3.2c2.9,1.6,5.1,1.5,5.1,1.5s-0.4-0.3-1.5,2.1
		c-1.1,2.4-4.6,4.7-7.5,4.4C37.1,58.5,32.8,57.2,32.8,57.2"/>
	<path class="st5" d="M37.9,39.4c0,0,1.7,5.3,3.5,7.6c1.8,2.3,3.1,3.4,5.6,3s4.1-0.2,4.1-0.2s-1.9-3.5-1.9-5.1
		c0-1.6-1.7-4.3-3.5-4.4C43.9,40.2,37.9,39.4,37.9,39.4"/>
	<path class="st11" d="M51.5,53.6c0,0-2.1,1.5-3.7,3.8c-1.7,2.2-2.4,3.5-1.6,5.2c0.7,1.6,1.7,3,2.8,4.4c1.1,1.5,1.7,1.9,1.5,2.5
		c-0.2,0.6-0.1-1,2.1-3.3c2.2-2.3,3.7-3.1,3.4-4.7c-0.3-1.6-2-2.5-2.9-4.1C52.2,55.7,51.5,53.6,51.5,53.6"/>
	<path class="st0" d="M60.9,28.5c-1.4,1.8-3.2,5.6-4.5,8.3"/>
	<path class="st0" d="M54,27.1c1.8,2.8,3.3,7.4,3,10.9"/>
	<path class="st0" d="M49.4,31.1c3.9,0.8,7.5,1.1,7.3,5.3"/>
	<path class="st0" d="M56.8,44.8c1.3,4.5,1.8,9.5,0.9,12.9"/>
	<path class="st0" d="M64.7,47.3c-3.3,3.5-6.8,9.9-7.6,11.2"/>
	<path class="st0" d="M53.7,50.3c2.9,1.1,5.1,1,4.5,6.4"/>
	<path class="st10" d="M67.8,28.1c-0.9,1.6-0.4,2.5-4.9,3.1l-4.6,0.6c0,0-0.1-0.9-0.2-2c-0.1-1.1-0.9-5,2.1-6.6
		c3.1-1.6,5.1-2.2,5.8-2.3c0.7-0.1,2.9-0.9,3.5-1"/>
	<path class="st12" d="M50.5,14c1.3,2.1,5.2,2.5,6.2,5.7c1.1,3.1-0.6,7.8-0.9,9.2c-0.3,1.5,1,1.7-1.2,0.1c-2.1-1.5-2.8-1-4.3-2.7
		c-1.5-1.8-2-6.3-1.3-7.4C49.8,17.7,50.5,14,50.5,14"/>
	<path class="st7" d="M53.8,32c-0.6-0.4-0.8-1.3-3.5-3.3c-2.6-2-5-3.3-6.9-1.8c-2,1.6-1.6,2.4-3.8,2.8l-2.1,0.4c0,0,2.2,1.8,5.5,4.1
		c3.3,2.3,7.2,0.4,8.6-0.6C53,32.6,53.8,32,53.8,32"/>
	<path class="st4" d="M55.3,33c0,0,0.2,2.2,2.7,4.1c2.5,1.9,4.3,5.1,2.3,7.6c-2,2.5-2.2,4.5-2.2,4.5s0.3-0.3-2-1.8
		c-2.3-1.5-4.3-5.2-3.5-7.9C53.3,36.8,55.3,33,55.3,33"/>
	<path class="st5" d="M73,41.1c0,0-5.7,0.6-8.3,1.9c-2.6,1.3-3.9,2.3-3.8,4.8c0.1,2.4-0.4,4-0.4,4s3.9-1.2,5.5-0.9
		c1.7,0.3,4.7-0.8,5-2.5C71.4,46.7,73,41.1,73,41.1"/>
	<path class="st13" d="M56.6,51.4c0,0-1.3-2.2-3.4-4.2c-2.1-2-3.4-2.9-5.1-2.5c-1.8,0.4-3.3,1.1-5,1.9c-1.7,0.8-2.1,1.2-2.8,0.9
		c-0.6-0.3,1,0.1,3.1,2.6c2.1,2.5,2.8,4.1,4.5,4.1c1.7,0,2.8-1.5,4.6-2C54.3,51.6,56.6,51.4,56.6,51.4"/>
	<path class="st10" d="M63,62.2c-1.7-1.6-5.4-4-8-5.7"/>
	<path class="st10" d="M65.3,55.9c-3.1,1.2-8,1.9-11.6,1"/>
	<path class="st10" d="M61.7,50.9c-1.3,3.6-2,6.9-6.3,6"/>
	<path class="st10" d="M46.6,55.6c-4.8,0.5-10.1,0.1-13.5-1.4"/>
	<path class="st10" d="M43.1,62.7c-3.2-3.7-9.5-8.1-10.7-9.1"/>
	<path class="st10" d="M41.2,51.7c-1.4,2.6-1.6,4.7-7.1,3.2"/>
	<path class="st14" d="M62.6,68.8c-1.6-1.1-2.5-0.8-2.7-5.2l-0.1-4.4c0,0,1,0.1,2.1,0.2c1.1,0.1,5.3,0,6.6,3.1
		c1.3,3.2,1.7,5.2,1.7,5.9c0,0.7,0.6,2.9,0.7,3.5"/>
	<path class="st10" d="M79.1,54.8c-2.3,0.8-3.2,4.5-6.6,5s-8-1.9-9.4-2.4c-1.5-0.5-1.8,0.6,0-1.1c1.8-1.8,1.3-2.5,3.3-3.6
		c2-1.1,6.7-0.8,7.9,0C75.5,53.5,79.1,54.8,79.1,54.8"/>
	<path class="st15" d="M60.2,54.9c0.5-0.5,1.4-0.6,3.8-2.7c2.4-2.2,4-4.1,2.6-6.3c-1.4-2.2-2.3-2-2.5-4.1L64,39.7
		c0,0-2.1,1.8-4.9,4.5c-2.8,2.7-1.2,6.7-0.4,8.3C59.6,54,60.2,54.9,60.2,54.9"/>
	<path class="st10" d="M59,56.1c0,0-2.3-0.2-4.5,1.9c-2.2,2.1-5.8,3.2-8.1,0.9C44,56.6,41.9,56,41.9,56s0.3,0.4,2.1-1.6
		c1.8-2,5.9-3.2,8.6-2C55.2,53.6,59,56.1,59,56.1"/>
	<path class="st16" d="M48.6,71.5c0,0,0-5.5-1.1-8.2c-1.1-2.7-2-4.1-4.5-4.4c-2.5-0.3-4-1-4-1s0.8,3.9,0.3,5.4
		c-0.5,1.5,0.3,4.6,2,5.2C43,69.1,48.6,71.5,48.6,71.5"/>
	<path class="st17" d="M39.8,54.3c0,0,2.5-0.9,4.8-2.5c2.3-1.7,3.4-2.7,3.2-4.4c-0.2-1.8-0.7-3.3-1.4-5c-0.6-1.7-1-2.2-0.7-2.8
		c0.4-0.5-0.2,1-3,2.5c-2.8,1.5-4.5,1.9-4.7,3.5c-0.2,1.6,1.2,2.9,1.5,4.7C39.8,52,39.8,54.3,39.8,54.3"/>
	<path class="st0" d="M54.8,33.6c-1.8,1.5-4.4,4.8-6.3,7.1"/>
	<path class="st0" d="M48.3,30.8c1.1,3.1,1.6,7.8,0.5,11.2"/>
	<path class="st0" d="M42.9,33.7c3.7,1.6,7.1,2.6,6,6.6"/>
	<path class="st0" d="M47.1,48.6c0.3,4.6-0.3,9.6-2,12.7"/>
	<path class="st0" d="M54.3,52.6c-4,2.7-8.9,8.3-10,9.3"/>
	<path class="st0" d="M42.8,53.3c2.6,1.6,4.8,2,3,7.1"/>
	<path class="st10" d="M61.7,34.6c-1.2,1.4-0.9,2.3-5.5,2l-4.6-0.3c0,0,0.1-0.9,0.3-2c0.1-1,0.2-5.1,3.6-6c3.4-0.9,5.5-1.1,6.2-1
		c0.7,0.1,3.1-0.3,3.7-0.3"/>
	<path class="st2" d="M47.8,17.4c0.8,2.3,4.5,3.5,4.9,6.8c0.3,3.3-2.3,7.4-2.9,8.8c-0.6,1.3,0.6,1.8-1.2-0.1
		c-1.8-1.9-2.5-1.5-3.6-3.5c-1.1-2-0.6-6.5,0.4-7.5C46.2,20.8,47.8,17.4,47.8,17.4"/>
	<path class="st3" d="M47,35.5c-0.5-0.5-0.5-1.4-2.7-3.9c-2.1-2.5-4.1-4.2-6.4-3.1c-2.3,1.1-2.2,2-4.4,2l-2.2-0.1
		c0,0,1.8,2.2,4.5,5.1c2.7,2.9,7,1.8,8.6,1.2C46.1,36,47,35.5,47,35.5"/>
	<path class="st4" d="M48.2,36.8c0,0-0.3,2.2,1.8,4.5c2,2.3,3.1,5.8,0.6,7.9c-2.5,2-3.2,3.9-3.2,3.9s0.4-0.2-1.5-2.1
		c-2-1.9-3.1-5.9-1.7-8.4C45.5,40.1,48.2,36.8,48.2,36.8"/>
	<path class="st5" d="M63.8,48.3c0,0-5.7-0.6-8.6,0.2c-2.9,0.7-4.4,1.5-4.8,3.9c-0.4,2.4-1.2,3.8-1.2,3.8s4.1-0.4,5.7,0.3
		s4.8,0.2,5.5-1.4C61,53.4,63.8,48.3,63.8,48.3"/>
	<path class="st6" d="M45.5,55c0,0-0.8-2.4-2.4-4.8c-1.6-2.4-2.7-3.5-4.5-3.5c-1.8,0-3.5,0.4-5.3,0.8c-1.8,0.4-2.4,0.8-2.9,0.4
		c-0.6-0.4,1,0.3,2.5,3.1c1.5,2.8,1.8,4.5,3.5,4.9c1.7,0.4,3.1-0.8,4.9-1C43.1,54.7,45.5,55,45.5,55"/>
	<path class="st0" d="M80.7,65.5c-2-1.3-6-3-8.9-4.3"/>
	<path class="st0" d="M81.8,58.9c-2.8,1.7-7.5,3.2-11.2,3"/>
	<path class="st0" d="M77.3,54.5c-0.6,3.7-0.7,7.2-5.1,7"/>
	<path class="st0" d="M63.5,61.7c-4.6,1.2-9.8,1.8-13.4,0.9"/>
	<path class="st0" d="M61.3,69.2c-3.8-3.2-10.8-6.5-12.2-7.2"/>
	<path class="st0" d="M57.4,58.7c-0.9,2.8-0.7,4.9-6.4,4.3"/>
	<path class="st7" d="M71.7,70.5c-1.7-0.9-2.6-0.3-3.5-4.7l-0.9-4.4c0,0,1-0.1,2.1-0.2c1.1-0.1,5.2-0.9,7,2c1.8,2.9,2.6,4.9,2.7,5.5
		c0.1,0.7,1.1,2.8,1.3,3.3"/>
	<path class="st8" d="M87.7,52.8c-2.1,1.2-2.3,5-5.6,6c-3.2,1-8.1-0.5-9.7-0.8c-1.5-0.3-1.7,0.9-0.2-1.1c1.5-2.1,0.8-2.7,2.6-4.1
		c1.8-1.5,6.4-1.9,7.7-1.3C83.8,52,87.7,52.8,87.7,52.8"/>
	<path class="st3" d="M76.6,58.7c0.4-0.5,1.3-0.8,3.3-3.3c2-2.5,3.2-4.8,1.4-6.7c-1.7-1.9-2.6-1.6-3.2-3.6l-0.5-2.1
		c0,0-1.7,2.2-3.9,5.3c-2.2,3.1,0,6.9,1.1,8.2C75.9,57.9,76.6,58.7,76.6,58.7"/>
	<path class="st9" d="M75.6,60.1c0,0-2.3,0.2-4.1,2.6c-1.8,2.4-5.1,4.2-7.8,2.3c-2.7-1.9-4.9-2.1-4.9-2.1s0.3,0.3,1.8-1.9
		c1.4-2.2,5.2-4.1,8-3.4C71.5,58.3,75.6,60.1,75.6,60.1"/>
	<path class="st5" d="M68.2,77.1c0,0-1-5.4-2.5-8c-1.5-2.5-2.7-3.7-5.2-3.6c-2.5,0.1-4.1-0.3-4.1-0.3s1.5,3.7,1.3,5.3
		c-0.2,1.6,1.1,4.5,2.9,4.8C62.3,75.6,68.2,77.1,68.2,77.1"/>
	<path class="st6" d="M56.5,61.5c0,0,2.3-1.3,4.2-3.3c1.9-2,2.8-3.2,2.3-4.9c-0.5-1.7-1.3-3.2-2.2-4.7c-0.9-1.6-1.4-2-1.2-2.6
		c0.3-0.6,0,1-2.5,3c-2.5,2-4.1,2.7-4,4.3c0.1,1.6,1.7,2.7,2.3,4.4C56.1,59.3,56.5,61.5,56.5,61.5"/>
	<path class="st0" d="M45.3,85c1.2-1.9,2.7-5.8,3.8-8.6"/>
	<path class="st0" d="M52.3,85.9c-2-2.7-3.9-7.1-3.9-10.6"/>
	<path class="st0" d="M56.5,81.6c-4-0.5-7.5-0.5-7.7-4.7"/>
	<path class="st0" d="M47.9,68.5c-1.6-4.4-2.6-9.4-2-12.8"/>
	<path class="st0" d="M39.9,66.6c3-3.7,5.9-10.5,6.6-11.8"/>
	<path class="st0" d="M50.5,62.6c-3-0.8-5.1-0.6-5-6"/>
	<path class="st1" d="M38.4,86c0.8-1.7,0.1-2.5,4.6-3.5l4.5-1c0,0,0.1,0.9,0.3,2c0.2,1.1,1.4,4.9-1.6,6.7c-2.9,1.8-4.9,2.6-5.6,2.7
		c-0.7,0.1-2.8,1.1-3.4,1.3"/>
	<path class="st7" d="M56.8,98.6c-1.4-2-5.4-2.1-6.7-5.2c-1.3-3.1-0.1-7.8,0.1-9.3c0.2-1.5-1.1-1.6,1.2-0.2c2.3,1.4,2.9,0.7,4.5,2.4
		c1.7,1.7,2.5,6.1,1.9,7.3C57.3,95,56.8,98.6,56.8,98.6"/>
	<path class="st3" d="M52,81c0.6,0.4,0.9,1.2,3.7,3c2.8,1.8,5.2,2.9,7.1,1.2c1.8-1.7,1.4-2.6,3.5-3.1l2.1-0.6c0,0-2.4-1.6-5.8-3.6
		c-3.4-2-7.2,0.2-8.5,1.3C52.8,80.3,52,81,52,81"/>
	<path class="st4" d="M50.5,80.1c0,0-0.4-2.2-3.1-3.9c-2.7-1.7-4.8-4.8-3-7.4c1.8-2.7,1.8-4.7,1.8-4.7s-0.3,0.3,2.1,1.6
		c2.4,1.3,4.7,4.9,4.2,7.6C52.1,76.1,50.5,80.1,50.5,80.1"/>
	<path class="st5" d="M32.2,73.4c0,0,5.6-1.1,8.1-2.6c2.5-1.5,3.7-2.7,3.4-5.1c-0.3-2.4,0-4,0-4s-3.7,1.5-5.4,1.3
		c-1.7-0.2-4.6,1.2-4.8,2.9C33.3,67.7,32.2,73.4,32.2,73.4"/>
	<path class="st11" d="M47.6,61.8c0,0,1.5,2.1,3.7,3.9c2.3,1.8,3.6,2.6,5.3,2.1c1.7-0.5,3.2-1.3,4.8-2.2c1.6-0.9,2-1.4,2.7-1.2
		c0.6,0.2-1,0-3.3-2.3c-2.3-2.3-3.1-3.8-4.8-3.7c-1.7,0.1-2.7,1.7-4.4,2.3C49.9,61.4,47.6,61.8,47.6,61.8"/>
	<path class="st0" d="M21.9,50.3c1.8,1.5,5.7,3.6,8.4,5.1"/>
	<path class="st0" d="M20.1,56.8c3-1.4,7.8-2.4,11.5-1.8"/>
	<path class="st0" d="M24,61.6c1.1-3.6,1.5-7,5.8-6.4"/>
	<path class="st0" d="M38.6,55.9c4.7-0.8,10-0.8,13.5,0.5"/>
	<path class="st0" d="M41.6,48.6c3.4,3.5,10,7.5,11.3,8.4"/>
	<path class="st0" d="M44.3,59.4c1.2-2.7,1.3-4.8,6.8-3.6"/>
	<path class="st10" d="M21.8,43.7c1.6,1,2.6,0.6,3,5l0.5,4.4c0,0-1,0-2.1,0c-1.1,0-5.3,0.4-6.8-2.7c-1.5-3.1-2-5.1-2.1-5.8
		c-0.1-0.7-0.8-2.9-0.9-3.4"/>
	<path class="st12" d="M6.3,58.8c2.2-1,2.9-4.7,6.2-5.4c3.3-0.7,8.1,1.3,9.6,1.8c1.5,0.4,1.8-0.8,0.1,1.1c-1.7,1.9-1.1,2.6-3.1,3.8
		c-1.9,1.3-6.6,1.3-7.8,0.5C10.1,59.9,6.3,58.8,6.3,58.8"/>
	<path class="st7" d="M25.2,57.4c-0.5,0.5-1.4,0.7-3.6,3c-2.2,2.3-3.7,4.4-2.2,6.5c1.5,2.1,2.5,1.8,2.8,3.9l0.3,2.1c0,0,2-2,4.5-4.8
		c2.6-2.9,0.7-6.8-0.2-8.3C25.8,58.3,25.2,57.4,25.2,57.4"/>
	<path class="st4" d="M26.3,56.1c0,0,2.3,0,4.4-2.2c2.1-2.2,5.5-3.6,8-1.5c2.5,2.2,4.6,2.6,4.6,2.6s-0.3-0.4-2,1.7
		c-1.6,2.1-5.6,3.6-8.4,2.6C30.2,58.4,26.3,56.1,26.3,56.1"/>
	<path class="st5" d="M35.6,40.1c0,0,0.4,5.5,1.6,8.2c1.3,2.7,2.3,4,4.8,4.1c2.5,0.1,4.1,0.7,4.1,0.7s-1.1-3.8-0.7-5.4
		c0.4-1.6-0.6-4.5-2.4-5.1C41.3,42.1,35.6,40.1,35.6,40.1"/>
	<path class="st13" d="M45.6,56.7c0,0-2.4,1-4.6,2.8c-2.2,1.8-3.2,2.9-2.8,4.7c0.3,1.7,1,3.3,1.7,4.9c0.7,1.7,1.2,2.2,0.9,2.7
		c-0.3,0.6,0.1-1,2.8-2.7c2.7-1.7,4.4-2.2,4.4-3.8c0.1-1.6-1.4-2.8-1.8-4.6C45.7,59,45.6,56.7,45.6,56.7"/>
	<path class="st10" d="M57.1,51.7c-1.8,1.5-4.4,4.8-6.3,7.1"/>
	<path class="st10" d="M50.6,48.9c1.1,3.1,1.6,7.8,0.5,11.2"/>
	<path class="st10" d="M45.2,51.8c3.7,1.6,7.1,2.6,6,6.6"/>
	<path class="st10" d="M49.5,66.7c0.3,4.6-0.3,9.6-2,12.7"/>
	<path class="st10" d="M56.7,70.7c-4,2.7-8.9,8.3-10,9.3"/>
	<path class="st10" d="M45.2,71.4c2.6,1.6,4.8,2,3,7.1"/>
	<path class="st14" d="M64,52.7c-1.2,1.4-0.9,2.3-5.5,2l-4.6-0.3c0,0,0.1-0.9,0.3-2c0.1-1,0.2-5.1,3.6-6c3.4-0.9,5.5-1.1,6.2-1
		c0.7,0.1,3.1-0.3,3.7-0.3"/>
	<path class="st10" d="M50.1,35.6c0.8,2.3,4.5,3.5,4.9,6.8c0.3,3.3-2.3,7.4-2.9,8.8c-0.6,1.3,0.6,1.8-1.2-0.1
		c-1.8-1.9-2.5-1.5-3.6-3.5c-1.1-2-0.6-6.5,0.4-7.5C48.6,38.9,50.1,35.6,50.1,35.6"/>
	<path class="st15" d="M49.4,53.6c-0.5-0.5-0.5-1.4-2.7-3.9c-2.1-2.5-4.1-4.2-6.4-3.1c-2.3,1.1-2.2,2-4.4,2l-2.2-0.1
		c0,0,1.8,2.2,4.5,5.1c2.7,2.9,7,1.8,8.6,1.2C48.4,54.1,49.4,53.6,49.4,53.6"/>
	<path class="st1" d="M50.6,55c0,0-0.3,2.2,1.8,4.5c2,2.3,3.1,5.8,0.6,7.9c-2.5,2-3.2,3.9-3.2,3.9s0.4-0.2-1.5-2.1
		c-2-1.9-3.1-5.9-1.7-8.4C47.8,58.3,50.6,55,50.6,55"/>
	<path class="st16" d="M66.1,66.4c0,0-5.7-0.6-8.6,0.2c-2.9,0.7-4.4,1.5-4.8,3.9c-0.4,2.4-1.2,3.8-1.2,3.8s4.1-0.4,5.7,0.3
		c1.6,0.6,4.8,0.2,5.5-1.4C63.4,71.5,66.1,66.4,66.1,66.4"/>
	<path class="st17" d="M47.8,73.1c0,0-0.8-2.4-2.4-4.8c-1.6-2.4-2.7-3.5-4.5-3.5c-1.8,0-3.5,0.4-5.3,0.8c-1.8,0.4-2.4,0.8-2.9,0.4
		c-0.6-0.4,1,0.3,2.5,3.1c1.5,2.8,1.8,4.5,3.5,4.9c1.7,0.4,3.1-0.8,4.9-1C45.4,72.8,47.8,73.1,47.8,73.1"/>
	<path class="st0" d="M75.1,72.7c-0.3-2.4-1.7-6.5-2.7-9.5"/>
	<path class="st0" d="M80.8,69.2c-3.2-1-7.4-3.6-9.7-6.5"/>
	<path class="st0" d="M81.2,63c-3.3,1.9-5.9,4.1-8.7,0.7"/>
	<path class="st0" d="M66.5,57.3c-4-2.6-7.9-6.2-9.6-9.5"/>
	<path class="st0" d="M59.4,60.6c-0.1-4.9-2.3-12.3-2.7-13.8"/>
	<path class="st0" d="M64.8,50.8c-2.7,1.1-4.2,2.6-7.5-2"/>
	<path class="st1" d="M70.7,77.6c-0.5-1.9-1.5-2.2,1.2-5.7l2.7-3.5c0,0,0.7,0.7,1.5,1.4c0.8,0.8,4.1,3.3,3.1,6.6
		c-1,3.3-2,5.1-2.4,5.6c-0.4,0.5-1.4,2.6-1.7,3.1"/>
	<path class="st2" d="M92.3,77.1c-2.3-0.8-5.3,1.5-8.2-0.3c-2.9-1.7-5-6.4-5.8-7.8c-0.8-1.3-1.8-0.7,0.7-0.9
		c2.5-0.2,2.6-1.1,4.9-0.7c2.3,0.4,5.7,3.6,6.1,4.9C90.3,73.7,92.3,77.1,92.3,77.1"/>
	<path class="st3" d="M77.5,65.3c0.7,0,1.5,0.5,4.7,0.3c3.2-0.2,5.7-0.7,6-3.2c0.3-2.5-0.6-3,0.6-4.7l1.2-1.7c0,0-2.8,0.1-6.6,0.5
		c-3.8,0.4-5.2,4.5-5.5,6.2C77.6,64.2,77.5,65.3,77.5,65.3"/>
	<path class="st4" d="M75.8,65.4c0,0-1.7-1.6-4.7-1.4c-3,0.2-6.5-1.1-6.9-4.4c-0.4-3.3-1.6-5-1.6-5s0,0.5,2.6,0.1
		c2.6-0.4,6.6,1.2,7.9,3.8C74.5,61.1,75.8,65.4,75.8,65.4"/>
	<path class="st5" d="M58,70.9c0,0,3.4-4.3,4.3-7.1c0.9-2.8,1-4.4-0.7-6.3c-1.8-1.8-2.5-3.3-2.5-3.3s-1.8,3.5-3.2,4.4
		s-2.6,3.7-1.7,5.3C55.2,65.5,58,70.9,58,70.9"/>
	<path class="st6" d="M62,52c0,0.1,2.5,0.9,5.3,1c2.8,0.1,4.3,0,5.3-1.5c0.9-1.5,1.5-3,2.1-4.7c0.6-1.7,0.6-2.4,1.2-2.6
		c0.6-0.2-0.7,0.6-3.9,0.1c-3.2-0.6-4.7-1.3-5.9-0.2c-1.2,1.1-0.9,3-1.8,4.6C63.5,50.2,62,52,62,52"/>
	<path class="st0" d="M34.8,73.8c2.1-0.8,5.7-3,8.2-4.5"/>
	<path class="st0" d="M39.8,78.8c0.1-3.3,1.2-8,3.3-10.8"/>
	<path class="st0" d="M45.8,78c-2.8-2.8-5.6-5-3.2-8.4"/>
	<path class="st0" d="M47,62.3c1.3-4.5,3.6-9,6.3-11.4"/>
	<path class="st0" d="M41.8,55.9c4.6-1.1,11.1-4.7,12.4-5.4"/>
	<path class="st0" d="M52.6,59.3c-1.9-2.5-3.7-3.6-0.3-7.8"/>
	<path class="st7" d="M35.3,63.5c1.6-0.9,1.6-1.9,5.8,0l4.2,1.9c0,0-0.4,0.8-0.9,1.8c-0.5,0.9-1.9,4.7-5.3,4.4
		c-3.4-0.3-5.4-0.9-6.1-1.2c-0.6-0.3-2.9-0.8-3.5-1"/>
	<path class="st8" d="M41.9,87.4c0.1-2.5-3-5-2.2-8.2c0.8-3.2,4.7-6.2,5.7-7.3c1-1.1,0.1-2,1.1,0.5c1,2.5,1.8,2.3,2.1,4.7
		c0.3,2.3-1.7,6.4-2.9,7C44.5,84.7,41.9,87.4,41.9,87.4"/>
	<path class="st3" d="M42.6,74.8c0.2,0.6,0,1.5,1.1,4.7c1.1,3.1,2.3,5.5,4.8,5.3c2.5-0.2,2.7-1.2,4.7-0.3l2,0.8c0,0-0.9-2.7-2.4-6.4
		c-1.5-3.7-5.8-4.2-7.5-4.2C43.7,74.7,42.6,74.8,42.6,74.8"/>
	<path class="st9" d="M42,73.1c0,0,1-2-0.1-4.9c-1.1-3-0.9-6.7,2.2-7.7c3-1,4.3-2.6,4.3-2.6S47.9,58,49,60.5
		c1.1,2.5,0.8,6.7-1.3,8.6C45.6,70.9,42,73.1,42,73.1"/>
	<path class="st5" d="M31.6,56.6c0,0,5.1,2.6,8,2.9c2.9,0.3,4.5,0.1,5.7-2c1.2-2.1,2.4-3.1,2.4-3.1s-3.9-1.1-5.1-2.3
		c-1.2-1.2-4.3-1.9-5.6-0.6C35.9,52.8,31.6,56.6,31.6,56.6"/>
	<path class="st6" d="M50.8,56.8c0,0-0.1,2.6,0.6,5.4c0.7,2.8,1.2,4.3,2.9,4.9c1.7,0.6,3.3,0.9,5.1,1.1c1.8,0.2,2.5,0.1,2.8,0.7
		c0.4,0.6-0.8-0.6-1.2-3.8c-0.4-3.2-0.1-4.9-1.5-5.9c-1.4-0.9-3.1-0.3-4.9-0.8C52.8,57.9,50.8,56.8,50.8,56.8"/>
	<path class="st0" d="M36.9,33.2c1,2.2,3.5,5.8,5.3,8.4"/>
	<path class="st0" d="M32.5,38.3c3.3,0.1,8,1.3,11,3.4"/>
	<path class="st0" d="M33.9,44.4c2.5-2.9,4.4-5.8,8-3.3"/>
	<path class="st0" d="M49.4,45.6c4.5,1.4,9.2,3.7,11.8,6.3"/>
	<path class="st0" d="M55.2,40.3c1.5,4.7,5.7,11.2,6.5,12.6"/>
	<path class="st0" d="M52.9,51.3c2.2-1.9,3.2-3.8,7.6-0.3"/>
	<path class="st10" d="M39.6,27.1c1,1.6,2,1.7,0.5,5.9l-1.5,4.2c0,0-0.8-0.5-1.8-1c-1-0.5-4.8-2-4.9-5.4c0-3.5,0.4-5.5,0.6-6.2
		c0.2-0.6,0.5-3,0.7-3.5"/>
	<path class="st7" d="M19.4,34.1c2.4,0.1,4.6-3,7.8-2.2c3.3,0.8,6.6,4.7,7.7,5.8c1.1,1.1,1.9,0.1-0.4,1.1c-2.3,1-2.1,1.9-4.4,2.2
		c-2.3,0.3-6.4-1.7-7.2-3C22.3,36.8,19.4,34.1,19.4,34.1"/>
	<path class="st3" d="M36.7,41.1c-0.6,0.2-1.5,0-4.5,1.1c-3,1.1-5.2,2.4-4.7,4.9c0.5,2.6,1.4,2.7,0.8,4.8l-0.6,2
		c0,0,2.6-0.9,6.1-2.4c3.5-1.5,3.6-5.9,3.4-7.6C36.9,42.2,36.7,41.1,36.7,41.1"/>
	<path class="st4" d="M38.3,40.5c0,0,2,1,4.8-0.1c2.8-1.1,6.5-0.9,7.8,2.2c1.3,3.1,3,4.4,3,4.4s-0.1-0.5-2.5,0.7
		c-2.4,1.2-6.5,0.8-8.6-1.3C40.8,44.2,38.3,40.5,38.3,40.5"/>
	<path class="st5" d="M53.5,29.9c0,0-2,5.2-2,8.2c0,3,0.3,4.6,2.5,5.8s3.3,2.5,3.3,2.5s0.7-3.9,1.7-5.2c1-1.3,1.4-4.4,0-5.7
		C57.7,34.2,53.5,29.9,53.5,29.9"/>
	<path class="st11" d="M55.2,49.4c0,0-2.6-0.1-5.3,0.6c-2.7,0.7-4.1,1.3-4.5,3c-0.4,1.7-0.5,3.4-0.6,5.2c-0.1,1.8,0.1,2.5-0.4,2.9
		s0.5-0.8,3.7-1.2c3.1-0.4,4.8-0.1,5.6-1.6c0.8-1.4,0-3.2,0.3-5C54.3,51.5,55.2,49.4,55.2,49.4"/>
	<path class="st0" d="M78.2,35.8c-2.2,0.6-6,2.3-8.7,3.6"/>
	<path class="st0" d="M73.7,30.4c-0.4,3.3-2.1,7.8-4.5,10.4"/>
	<path class="st0" d="M67.6,30.6c2.5,3.1,5.1,5.6,2.4,8.7"/>
	<path class="st0" d="M64.8,45.9c-1.8,4.3-4.6,8.6-7.4,10.6"/>
	<path class="st0" d="M69.4,52.8c-4.8,0.6-11.5,3.5-13,4"/>
	<path class="st0" d="M58.9,48.3c1.6,2.6,3.3,4-0.5,7.8"/>
	<path class="st10" d="M83.8,39.8c-1.7,0.7-1.8,1.7-5.8-0.7l-3.9-2.4c0,0,0.5-0.8,1.1-1.6c0.6-0.9,2.4-4.5,5.8-3.8
		c3.4,0.7,5.3,1.5,5.9,1.9c0.6,0.4,2.8,1.1,3.4,1.4"/>
	<path class="st12" d="M79.2,18.1c-0.3,2.4,2.4,5.2,1.3,8.3c-1.1,3.1-5.3,5.7-6.5,6.6c-1.2,0.9-0.3,1.9-1-0.6s-1.6-2.5-1.6-4.8
		c-0.1-2.3,2.4-6.1,3.7-6.6C76.3,20.4,79.2,18.1,79.2,18.1"/>
	<path class="st7" d="M70.5,34.1c-0.2-0.7,0.2-1.5-0.6-4.8c-0.8-3.2-1.8-5.7-4.3-5.7c-2.5,0-2.8,0.9-4.7-0.2l-1.9-1
		c0,0,0.6,2.8,1.7,6.6c1.1,3.8,5.4,4.8,7.1,4.9C69.5,34.1,70.5,34.1,70.5,34.1"/>
	<path class="st4" d="M71,35.8c0,0-1.2,1.8-0.4,4.9c0.8,3,0.2,6.7-3,7.4c-3.1,0.7-4.6,2.1-4.6,2.1s0.5,0-0.4-2.6
		c-0.9-2.6-0.1-6.8,2.2-8.4C67.1,37.5,71,35.8,71,35.8"/>
	<path class="st5" d="M79.7,53.2c0,0-4.8-3.1-7.7-3.7c-2.9-0.6-4.5-0.6-5.9,1.3c-1.4,2-2.8,2.8-2.8,2.8s3.8,1.5,4.9,2.8
		c1.1,1.3,4.1,2.3,5.5,1.2C75,56.5,79.7,53.2,79.7,53.2"/>
	<path class="st13" d="M60.5,50.9c0,0,0.4-2.6,0-5.4c-0.4-2.9-0.8-4.4-2.4-5.2c-1.6-0.8-3.2-1.2-5-1.7c-1.8-0.4-2.4-0.4-2.8-1
		c-0.3-0.6,0.8,0.7,0.8,3.9c0,3.2-0.4,4.9,0.9,6c1.3,1.1,3.1,0.6,4.8,1.3C58.5,49.6,60.5,50.9,60.5,50.9"/>
	<path class="st10" d="M58.7,63.3c-0.3-2.4-1.7-6.5-2.7-9.5"/>
	<path class="st10" d="M64.4,59.9c-3.2-1-7.4-3.6-9.7-6.5"/>
	<path class="st10" d="M64.8,53.7c-3.3,1.9-5.9,4.1-8.7,0.7"/>
	<path class="st10" d="M50.1,48c-4-2.6-7.9-6.2-9.6-9.5"/>
	<path class="st10" d="M42.9,51.2c-0.1-4.9-2.3-12.3-2.7-13.8"/>
	<path class="st10" d="M48.3,41.5c-2.7,1.1-4.2,2.6-7.5-2"/>
	<path class="st14" d="M54.2,68.3c-0.5-1.9-1.5-2.2,1.2-5.7l2.7-3.5c0,0,0.7,0.7,1.5,1.4c0.8,0.8,4.1,3.3,3.1,6.6
		c-1,3.3-2,5.1-2.4,5.6c-0.4,0.5-1.4,2.6-1.7,3.1"/>
	<path class="st10" d="M75.9,67.7c-2.3-0.8-5.3,1.5-8.2-0.3c-2.9-1.7-5-6.4-5.8-7.8C61,58.4,60,59,62.5,58.8
		c2.5-0.2,2.6-1.1,4.9-0.7c2.3,0.4,5.7,3.6,6.1,4.9C73.9,64.4,75.9,67.7,75.9,67.7"/>
	<path class="st15" d="M61.1,55.9c0.7,0,1.5,0.5,4.7,0.3c3.2-0.2,5.7-0.7,6-3.2c0.3-2.5-0.6-3,0.6-4.7l1.2-1.7c0,0-2.8,0.1-6.6,0.5
		c-3.8,0.4-5.2,4.5-5.5,6.2C61.2,54.9,61.1,55.9,61.1,55.9"/>
	<path class="st10" d="M59.4,56.1c0,0-1.7-1.6-4.7-1.4c-3,0.2-6.5-1.1-6.9-4.4c-0.4-3.3-1.6-5-1.6-5s0,0.5,2.6,0.1
		c2.6-0.4,6.6,1.2,7.9,3.8C58,51.8,59.4,56.1,59.4,56.1"/>
	<path class="st16" d="M41.6,61.5c0,0,3.4-4.3,4.3-7.1c0.9-2.8,1-4.4-0.7-6.3c-1.8-1.8-2.5-3.3-2.5-3.3s-1.8,3.5-3.2,4.4
		c-1.4,0.9-2.6,3.7-1.7,5.3C38.8,56.2,41.6,61.5,41.6,61.5"/>
	<path class="st17" d="M45.6,42.6c0,0.1,2.5,0.9,5.3,1s4.3,0,5.3-1.5c0.9-1.5,1.5-3,2.1-4.7c0.6-1.7,0.6-2.4,1.2-2.6
		c0.6-0.2-0.7,0.6-3.9,0.1c-3.2-0.6-4.7-1.3-5.9-0.2c-1.2,1.1-0.9,3-1.8,4.6C47,40.9,45.6,42.6,45.6,42.6"/>
	<path class="st0" d="M70.2,36c-2.3,0-6.4,1-9.3,1.6"/>
	<path class="st0" d="M67,29.7c-1.1,3.1-3.7,7.1-6.6,9"/>
	<path class="st0" d="M60.9,28.6c1.8,3.6,3.9,6.5,0.5,8.9"/>
	<path class="st0" d="M54.9,42.8c-2.7,3.7-6.3,7.3-9.6,8.6"/>
	<path class="st0" d="M57.9,50.5c-4.8-0.5-12.1,0.8-13.6,1"/>
	<path class="st0" d="M48.5,43.8c1,2.9,2.5,4.6-2.1,7.4"/>
	<path class="st10" d="M75,41.1c-1.8,0.3-2.2,1.2-5.6-1.9L66,36c0,0,0.7-0.6,1.5-1.3c0.8-0.7,3.3-3.8,6.5-2.4c3.2,1.4,5,2.6,5.5,3.1
		c0.5,0.5,2.5,1.7,3,2.1"/>
	<path class="st2" d="M75,19c-0.8,2.3,1.3,5.6-0.5,8.3c-1.8,2.8-6.4,4.3-7.8,5c-1.3,0.7-0.7,1.8-0.9-0.8c-0.2-2.6-1-2.8-0.6-5
		c0.4-2.3,3.6-5.4,5-5.6C71.6,20.6,75,19,75,19"/>
	<path class="st3" d="M63,32.6c0-0.7,0.5-1.4,0.4-4.7c-0.1-3.3-0.5-5.9-3-6.5c-2.5-0.6-2.9,0.2-4.6-1.2l-1.7-1.4c0,0,0,2.8,0.3,6.8
		c0.3,4,4.3,5.8,5.9,6.3C62,32.3,63,32.6,63,32.6"/>
	<path class="st4" d="M63.1,34.4c0,0-1.6,1.5-1.5,4.6c0.1,3.1-1.2,6.5-4.5,6.5c-3.2,0-5,1-5,1s0.5,0.1,0.1-2.6
		c-0.3-2.7,1.3-6.5,3.9-7.6C58.9,35.2,63.1,34.4,63.1,34.4"/>
	<path class="st5" d="M68,53.1c0,0-4.1-4-6.8-5.3c-2.7-1.2-4.3-1.6-6.2,0c-1.8,1.6-3.3,2.2-3.3,2.2s3.4,2.3,4.2,3.8
		c0.8,1.5,3.6,3.1,5.2,2.3C62.7,55.3,68,53.1,68,53.1"/>
	<path class="st6" d="M49.6,46.7c0.1,0,0.9-2.4,1.1-5.2c0.2-2.9,0.1-4.4-1.3-5.5c-1.4-1.1-2.9-1.9-4.6-2.7c-1.7-0.8-2.3-0.9-2.5-1.6
		c-0.2-0.7,0.6,0.8,0,4c-0.6,3.1-1.4,4.6-0.4,6c1.1,1.3,2.9,1.3,4.5,2.4C47.9,45,49.6,46.7,49.6,46.7"/>
	<path class="st0" d="M70.4,77c-0.7-2.3-2.8-6.2-4.2-8.9"/>
	<path class="st0" d="M75.4,72.6c-3.3-0.5-7.8-2.2-10.6-4.7"/>
	<path class="st0" d="M74.7,66.4c-2.9,2.5-5.1,5.1-8.4,2.3"/>
	<path class="st0" d="M59.4,63.2c-4.3-1.9-8.8-4.8-11-7.7"/>
	<path class="st0" d="M52.9,67.8c-1-4.9-4.3-11.8-4.9-13.3"/>
	<path class="st0" d="M56.5,57.2c-2.5,1.6-3.6,3.3-7.7-0.6"/>
	<path class="st7" d="M60.3,75.3c-0.8-1.8-1.8-1.9,0.2-5.9l2-4c0,0,0.8,0.6,1.7,1.2c0.9,0.6,4.6,2.5,4.2,6c-0.4,3.4-1.1,5.4-1.4,6
		c-0.3,0.6-0.9,2.8-1.1,3.4"/>
	<path class="st8" d="M83.8,71.5c-2.4-0.4-4.9,2.4-8.1,1.2c-3.2-1.2-6-5.5-7-6.7c-1-1.2-1.9-0.3,0.5-1c2.4-0.7,2.3-1.6,4.6-1.6
		c2.3,0,6.2,2.5,6.8,3.8C81.3,68.5,83.8,71.5,83.8,71.5"/>
	<path class="st3" d="M71.5,69.2c0.6-0.2,1.5,0.2,4.6-0.5c3.1-0.7,5.5-1.7,5.3-4.3c-0.2-2.6-1.1-2.9-0.2-4.8l0.9-1.9
		c0,0-2.7,0.6-6.4,1.6c-3.7,1-4.3,5.4-4.3,7.1C71.4,68.2,71.5,69.2,71.5,69.2"/>
	<path class="st9" d="M69.8,69.7c0,0-1.9-1.3-4.8-0.5c-2.9,0.7-6.6,0.1-7.5-3.1c-0.9-3.2-2.4-4.7-2.4-4.7s0.1,0.5,2.6-0.4
		c2.5-0.9,6.6,0,8.4,2.4C67.8,65.7,69.8,69.7,69.8,69.7"/>
	<path class="st5" d="M53.4,78.2c0,0,2.6-4.9,3-7.8c0.4-2.9,0.2-4.6-1.8-6.1c-2-1.5-3-2.9-3-2.9s-1.2,3.8-2.3,4.9
		c-1.2,1.1-1.9,4.2-0.7,5.6C49.7,73.4,53.4,78.2,53.4,78.2"/>
	<path class="st6" d="M54.1,58.7c0,0,2.6,0.4,5.3,0.1c2.8-0.4,4.2-0.7,4.9-2.4c0.7-1.7,0.9-3.3,1.2-5.1c0.3-1.8,0.2-2.5,0.8-2.8
		c0.6-0.3-0.6,0.8-3.8,0.8c-3.2,0-4.8-0.5-5.8,0.8c-0.9,1.3-0.4,3.1-0.9,4.9C55.2,56.8,54.1,58.7,54.1,58.7"/>
	<path class="st0" d="M30.6,70c2.2-0.7,5.8-2.8,8.3-4.3"/>
	<path class="st0" d="M35.4,75.1c0.1-3.3,1.4-8,3.6-10.8"/>
	<path class="st0" d="M41.5,74.4c-2.7-2.9-5.5-5.1-3.1-8.5"/>
	<path class="st0" d="M43,58.8c1.5-4.4,3.8-8.9,6.5-11.2"/>
	<path class="st0" d="M37.9,52.2c4.7-1,11.2-4.4,12.5-5.1"/>
	<path class="st0" d="M48.7,55.9c-1.8-2.5-3.6-3.7-0.1-7.8"/>
	<path class="st1" d="M24.6,66.5c1.6-0.8,1.7-1.9,5.8,0.2l4.1,2c0,0-0.5,0.8-1,1.7c-0.5,0.9-2,4.7-5.5,4.3c-3.4-0.4-5.4-1.1-6-1.4
		c-0.6-0.3-2.9-0.9-3.4-1.1"/>
	<path class="st7" d="M31,87.9c0.1-2.5-2.9-5-2-8.2c0.9-3.2,4.8-6.1,5.9-7.2c1.1-1,0.1-1.9,1,0.5c0.9,2.5,1.8,2.4,2,4.7
		c0.2,2.3-1.9,6.3-3.1,6.9C33.7,85.3,31,87.9,31,87.9"/>
	<path class="st3" d="M38.3,71.1c0.2,0.7,0,1.5,1,4.7c1,3.2,2.2,5.6,4.7,5.4c2.5-0.2,2.7-1.1,4.7-0.2l2,0.9c0,0-0.9-2.7-2.2-6.5
		c-1.4-3.8-5.7-4.4-7.4-4.3C39.4,71,38.3,71.1,38.3,71.1"/>
	<path class="st4" d="M37.7,69.4c0,0,1.1-1.9,0-4.9c-1-3-0.7-6.7,2.3-7.6c3-0.9,4.4-2.5,4.4-2.5S44,54.4,45.1,57
		c1.1,2.5,0.6,6.8-1.5,8.6C41.5,67.3,37.7,69.4,37.7,69.4"/>
	<path class="st5" d="M27.7,52.7c0,0,5,2.7,8,3.1c2.9,0.4,4.5,0.2,5.8-1.8c1.3-2.1,2.5-3.1,2.5-3.1s-3.9-1.2-5.1-2.4
		c-1.2-1.2-4.3-2-5.5-0.7C32.1,49,27.7,52.7,27.7,52.7"/>
	<path class="st11" d="M46.9,53.4c0,0-0.2,2.6,0.4,5.4c0.6,2.8,1.1,4.3,2.8,5c1.7,0.7,3.3,1,5.1,1.2c1.8,0.3,2.5,0.2,2.8,0.8
		c0.4,0.6-0.8-0.6-1.1-3.9c-0.3-3.2,0-4.9-1.4-5.9c-1.4-1-3.1-0.4-4.9-0.9C49,54.5,46.9,53.4,46.9,53.4"/>
	<path class="st0" d="M34.1,28.3c0.5,2.3,2.1,6.4,3.3,9.3"/>
	<path class="st0" d="M28.7,32.2c3.2,0.8,7.6,3.1,10.1,5.8"/>
	<path class="st0" d="M28.7,38.4c3.1-2.2,5.6-4.5,8.6-1.3"/>
	<path class="st0" d="M43.7,43.1c4.1,2.4,8.3,5.7,10.2,8.9"/>
	<path class="st0" d="M50.6,39.3c0.5,4.9,3.1,12.1,3.6,13.6"/>
	<path class="st0" d="M45.9,49.5c2.6-1.3,4-2.9,7.6,1.5"/>
	<path class="st10" d="M38.2,23.1c0.6,1.8,1.6,2.1-0.8,5.8L35,32.6c0,0-0.7-0.6-1.6-1.3c-0.9-0.7-4.3-3-3.6-6.4
		c0.8-3.4,1.6-5.2,2-5.8c0.4-0.6,1.2-2.7,1.4-3.2"/>
	<path class="st12" d="M16.7,25.1c2.4,0.6,5.2-1.8,8.2-0.3c3,1.5,5.4,6.1,6.3,7.4c0.9,1.3,1.9,0.5-0.6,0.9c-2.5,0.4-2.5,1.3-4.8,1.1
		c-2.3-0.2-5.9-3.2-6.4-4.5C19,28.3,16.7,25.1,16.7,25.1"/>
	<path class="st7" d="M32.2,35.9c-0.7,0.1-1.5-0.4-4.7,0c-3.2,0.4-5.6,1.1-5.7,3.7c-0.1,2.6,0.8,3-0.3,4.8l-1.1,1.8
		c0,0,2.8-0.3,6.5-0.9c3.8-0.6,4.9-4.9,5-6.6S32.2,35.9,32.2,35.9"/>
	<path class="st4" d="M33.9,35.6c0,0,1.8,1.5,4.8,1.1c3-0.4,6.6,0.6,7.2,3.9c0.6,3.3,2,4.9,2,4.9s0-0.5-2.6,0.1
		c-2.6,0.6-6.6-0.7-8.2-3.3C35.6,39.8,33.9,35.6,33.9,35.6"/>
	<path class="st5" d="M51.2,28.9c0,0-3.1,4.5-3.8,7.4c-0.7,2.9-0.7,4.5,1.2,6.2c1.9,1.7,2.7,3.2,2.7,3.2s1.6-3.6,2.9-4.6
		c1.3-1,2.4-3.9,1.3-5.4C54.4,34.1,51.2,28.9,51.2,28.9"/>
	<path class="st13" d="M48.5,48.2c0-0.1-2.5-0.7-5.3-0.7c-2.8,0-4.3,0.3-5.1,1.8c-0.8,1.6-1.3,3.2-1.8,4.9c-0.5,1.7-0.4,2.4-1.1,2.7
		c-0.6,0.2,0.7-0.7,3.9-0.3c3.2,0.3,4.8,1,5.9-0.2c1.1-1.2,0.7-3.1,1.4-4.7C47.2,50,48.5,48.2,48.5,48.2"/>
	<path class="st10" d="M60.7,51.5c-2.3,0-6.4,1-9.3,1.6"/>
	<path class="st10" d="M57.4,45.3c-1.1,3.1-3.7,7.1-6.6,9"/>
	<path class="st10" d="M51.3,44.1c1.8,3.6,3.9,6.5,0.5,8.9"/>
	<path class="st10" d="M45.3,58.3c-2.7,3.7-6.3,7.3-9.6,8.6"/>
	<path class="st10" d="M48.4,66c-4.8-0.5-12.1,0.8-13.6,1"/>
	<path class="st10" d="M39,59.4c1,2.9,2.5,4.6-2.1,7.4"/>
	<path class="st14" d="M65.4,56.6c-1.8,0.3-2.2,1.2-5.6-1.9l-3.4-3.2c0,0,0.7-0.6,1.5-1.3c0.8-0.7,3.3-3.8,6.5-2.4
		c3.2,1.4,5,2.6,5.5,3.1c0.5,0.5,2.5,1.7,3,2.1"/>
	<path class="st10" d="M65.4,34.6c-0.8,2.3,1.3,5.6-0.5,8.3c-1.8,2.8-6.4,4.3-7.8,5c-1.3,0.7-0.7,1.8-0.9-0.8c-0.2-2.6-1-2.8-0.6-5
		c0.4-2.3,3.6-5.4,5-5.6C62.1,36.2,65.4,34.6,65.4,34.6"/>
	<path class="st15" d="M53.5,48.1c0-0.7,0.5-1.4,0.4-4.7c-0.1-3.3-0.5-5.9-3-6.5c-2.5-0.6-2.9,0.2-4.6-1.2l-1.7-1.4
		c0,0,0,2.8,0.3,6.8c0.3,4,4.3,5.8,5.9,6.3C52.4,47.9,53.5,48.1,53.5,48.1"/>
	<path class="st1" d="M53.6,49.9c0,0-1.6,1.5-1.5,4.6c0.1,3.1-1.2,6.5-4.5,6.5c-3.2,0-5,1-5,1s0.5,0.1,0.1-2.6
		c-0.3-2.7,1.3-6.5,3.9-7.6C49.3,50.8,53.6,49.9,53.6,49.9"/>
	<path class="st16" d="M58.5,68.6c0,0-4.1-4-6.8-5.3c-2.7-1.2-4.3-1.6-6.2,0c-1.8,1.6-3.3,2.2-3.3,2.2s3.4,2.3,4.2,3.8
		c0.8,1.5,3.6,3.1,5.2,2.3C53.1,70.8,58.5,68.6,58.5,68.6"/>
	<path class="st17" d="M40,62.3c0.1,0,0.9-2.4,1.1-5.2c0.2-2.9,0.1-4.4-1.3-5.5c-1.4-1.1-2.9-1.9-4.6-2.7c-1.7-0.8-2.3-0.9-2.5-1.6
		c-0.2-0.7,0.6,0.8,0,4c-0.6,3.1-1.4,4.6-0.4,6c1.1,1.3,2.9,1.3,4.5,2.4C38.3,60.6,40,62.3,40,62.3"/>
	<path class="st0" d="M79.1,43.3c-2.4-0.2-6.7,0.2-9.8,0.5"/>
	<path class="st0" d="M77,37c-1.7,2.9-5.1,6.4-8.5,8"/>
	<path class="st0" d="M71.1,35.3c1.2,3.6,2.7,6.7-1.2,8.6"/>
	<path class="st0" d="M62.2,48.3c-3.5,3.3-7.8,6.3-11.4,7.3"/>
	<path class="st0" d="M63.8,56c-4.8-0.9-12.5-0.5-14.1-0.5"/>
	<path class="st0" d="M55.5,48.6c0.5,2.9,1.6,4.6-3.6,6.9"/>
	<path class="st1" d="M83,48.8c-1.9,0.1-2.5,1-5.3-2.4l-2.9-3.4c0,0,0.8-0.5,1.7-1.1c0.9-0.6,4.1-3.3,7.1-1.6c3,1.7,4.5,3.1,5,3.6
		c0.4,0.5,2.2,1.9,2.7,2.3"/>
	<path class="st2" d="M87.2,27.5c-1.3,2.1,0.3,5.5-2.1,8c-2.4,2.5-7.4,3.5-8.9,4c-1.5,0.5-1.1,1.6-0.7-0.9c0.3-2.5-0.5-2.8,0.4-4.9
		c0.9-2.1,4.7-4.8,6.2-4.9C83.5,28.7,87.2,27.5,87.2,27.5"/>
	<path class="st3" d="M72.4,39.3c0.1-0.7,0.8-1.3,1.3-4.5c0.5-3.2,0.6-5.7-1.8-6.6c-2.4-0.8-3-0.1-4.5-1.6L66,25.1
		c0,0-0.5,2.7-1,6.6c-0.5,3.8,3.2,6.1,4.8,6.7C71.4,39,72.4,39.3,72.4,39.3"/>
	<path class="st4" d="M72.2,41.1c0,0-1.9,1.3-2.4,4.3c-0.5,3-2.5,6.1-5.8,5.8c-3.3-0.4-5.3,0.5-5.3,0.5s0.5,0.1,0.7-2.5
		c0.2-2.6,2.6-6.2,5.5-6.9C67.7,41.4,72.2,41.1,72.2,41.1"/>
	<path class="st5" d="M73.6,59.6c0,0-3.4-4.3-5.9-5.8c-2.5-1.5-4.1-2-6.3-0.7c-2.2,1.3-3.8,1.7-3.8,1.7s3,2.6,3.6,4.1
		c0.6,1.5,3.1,3.4,4.8,2.8C67.7,61.1,73.6,59.6,73.6,59.6"/>
	<path class="st6" d="M56,51.5c0.1,0,1.4-2.2,2.2-4.9c0.8-2.7,1-4.2-0.3-5.5c-1.3-1.2-2.6-2.1-4.2-3.1c-1.5-1-2.2-1.1-2.2-1.8
		c-0.1-0.7,0.5,0.9-0.8,3.8c-1.3,3-2.3,4.3-1.5,5.7c0.8,1.4,2.7,1.5,4.1,2.7C54.6,49.7,56,51.5,56,51.5"/>
	<path class="st0" d="M71.3,82.9c-0.3-2.3-1.6-6.2-2.6-9"/>
	<path class="st0" d="M77.3,79.1c-3.3-0.8-7.5-3-9.8-5.7"/>
	<path class="st0" d="M77.8,73.1c-3.4,2.1-6.1,4.4-8.9,1.3"/>
	<path class="st0" d="M62.8,68.4c-4.1-2.3-8-5.5-9.7-8.6"/>
	<path class="st0" d="M55.4,72.1c-0.1-4.8-2.1-11.8-2.5-13.3"/>
	<path class="st0" d="M61.1,62.3c-2.8,1.3-4.3,2.8-7.7-1.4"/>
	<path class="st7" d="M61.4,80.1c-0.5-1.8-1.5-2,1.3-5.6l2.8-3.6c0,0,0.7,0.6,1.5,1.3c0.8,0.7,4.2,2.9,3.1,6.2
		c-1.1,3.3-2.1,5.1-2.5,5.6c-0.4,0.5-1.5,2.6-1.8,3.2"/>
	<path class="st8" d="M86.1,79c-2.4-0.6-5.5,1.8-8.5,0.3c-3-1.5-5-5.9-5.8-7.2c-0.8-1.3-1.9-0.5,0.7-0.9c2.6-0.4,2.7-1.3,5-1
		c2.3,0.2,5.8,3.1,6.2,4.4C84.1,75.9,86.1,79,86.1,79"/>
	<path class="st3" d="M74,75.5c0.7-0.1,1.5,0.3,4.8,0c3.3-0.4,5.9-1.1,6.2-3.6c0.3-2.5-0.5-2.9,0.7-4.7l1.3-1.8c0,0-2.9,0.3-6.8,0.9
		c-4,0.6-5.4,4.7-5.7,6.4C74.1,74.4,74,75.5,74,75.5"/>
	<path class="st9" d="M72.2,75.8c0,0-1.7-1.4-4.8-1c-3.1,0.4-6.7-0.6-7-3.8c-0.3-3.2-1.6-4.8-1.6-4.8s0,0.5,2.7-0.1
		c2.7-0.6,6.7,0.7,8.1,3.2C70.9,71.7,72.2,75.8,72.2,75.8"/>
	<path class="st5" d="M53.8,82.2c0,0,3.6-4.4,4.6-7.2c1-2.8,1.1-4.4-0.7-6c-1.8-1.7-2.5-3.1-2.5-3.1s-1.9,3.5-3.3,4.5
		c-1.4,0.9-2.8,3.8-1.8,5.3C51,77.2,53.8,82.2,53.8,82.2"/>
	<path class="st6" d="M58.3,63.5c0,0,2.5,0.7,5.4,0.7c2.9,0,4.4-0.3,5.4-1.8c1-1.5,1.6-3.1,2.2-4.8c0.6-1.7,0.7-2.4,1.3-2.6
		c0.6-0.2-0.8,0.7-4,0.3c-3.2-0.3-4.8-1-6,0.2c-1.2,1.2-1,3-1.9,4.6C59.8,61.8,58.3,63.5,58.3,63.5"/>
	<path class="st0" d="M32.2,71.9c2.3-0.5,6.4-2.1,9.3-3.3"/>
	<path class="st0" d="M36.2,77.3c0.8-3.2,3-7.5,5.7-10"/>
	<path class="st0" d="M42.4,77.2c-2.2-3.1-4.6-5.5-1.5-8.5"/>
	<path class="st0" d="M47,62.4c2.3-4.1,5.6-8.2,8.8-10.1"/>
	<path class="st0" d="M43.1,55.6c4.9-0.5,12.2-3.1,13.7-3.5"/>
	<path class="st0" d="M53.4,60.2c-1.3-2.6-3-3.9,1.4-7.5"/>
	<path class="st10" d="M26.8,67.8c1.8-0.6,2.1-1.6,5.9,0.8l3.8,2.4c0,0-0.6,0.7-1.3,1.6s-3,4.3-6.4,3.5c-3.4-0.8-5.3-1.6-5.9-2
		c-0.6-0.4-2.8-1.2-3.3-1.4"/>
	<path class="st7" d="M29.2,89.1c0.6-2.4-1.9-5.1-0.4-8.1c1.5-3,6.1-5.4,7.4-6.3c1.3-0.9,0.5-1.9,1,0.6c0.4,2.5,1.3,2.5,1.1,4.7
		c-0.2,2.3-3.1,5.9-4.5,6.3C32.4,86.9,29.2,89.1,29.2,89.1"/>
	<path class="st3" d="M39.9,73.8c0.1,0.7-0.3,1.5,0.1,4.6c0.4,3.2,1.2,5.6,3.8,5.7c2.6,0.1,3-0.8,4.8,0.3l1.9,1.1c0,0-0.3-2.7-1-6.5
		c-0.7-3.8-5-4.8-6.7-5C40.9,73.8,39.9,73.8,39.9,73.8"/>
	<path class="st4" d="M39.6,72.1c0,0,1.5-1.8,1-4.7c-0.5-3,0.6-6.5,3.9-7.1c3.3-0.6,4.9-1.9,4.9-1.9s-0.5,0,0.1,2.6
		c0.6,2.6-0.7,6.6-3.2,8.1C43.8,70.5,39.6,72.1,39.6,72.1"/>
	<path class="st5" d="M32.6,54.9c0,0,4.6,3.1,7.5,3.8c2.9,0.7,4.6,0.7,6.3-1.1s3.1-2.7,3.1-2.7s-3.7-1.6-4.7-2.8
		c-1-1.3-4-2.3-5.5-1.3C37.8,51.8,32.6,54.9,32.6,54.9"/>
	<path class="st11" d="M52,57.6c-0.1,0-0.7,2.5-0.6,5.3c0.1,2.8,0.3,4.3,1.9,5.1c1.6,0.8,3.2,1.3,5,1.7c1.8,0.5,2.5,0.4,2.7,1
		s-0.7-0.7-0.4-3.8c0.3-3.1,0.9-4.7-0.3-5.8c-1.2-1.1-3.1-0.7-4.8-1.4C53.9,58.9,52,57.6,52,57.6"/>
	<path class="st0" d="M43.9,32.2c0,2.3,1,6.4,1.6,9.3"/>
	<path class="st0" d="M37.5,35.3c3.1,1.1,7.1,3.8,9.1,6.7"/>
	<path class="st0" d="M36.4,41.3c3.6-1.8,6.6-3.8,9-0.4"/>
	<path class="st0" d="M50.7,47.4c3.8,2.7,7.3,6.4,8.7,9.6"/>
	<path class="st0" d="M58.5,44.5c-0.5,4.8,0.8,12,1,13.5"/>
	<path class="st0" d="M51.8,53.7c2.9-1,4.6-2.4,7.5,2.2"/>
	<path class="st10" d="M49,27.5c0.3,1.8,1.3,2.2-1.9,5.5l-3.2,3.3c0,0-0.6-0.7-1.4-1.5c-0.7-0.8-3.8-3.4-2.4-6.5
		c1.4-3.1,2.7-4.9,3.1-5.4c0.5-0.5,1.7-2.5,2.1-3"/>
	<path class="st12" d="M26.8,27.2c2.3,0.9,5.6-1.2,8.4,0.6c2.8,1.8,4.3,6.4,5,7.8c0.7,1.3,1.8,0.7-0.8,0.8c-2.6,0.1-2.8,1-5.1,0.5
		c-2.3-0.5-5.4-3.7-5.6-5C28.4,30.6,26.8,27.2,26.8,27.2"/>
	<path class="st7" d="M40.4,39.3c-0.7,0-1.5-0.5-4.8-0.5c-3.3,0-5.9,0.5-6.5,2.9c-0.6,2.5,0.2,2.9-1.2,4.6l-1.4,1.6
		c0,0,2.9,0,6.8-0.2c4-0.2,5.9-4.2,6.4-5.8S40.4,39.3,40.4,39.3"/>
	<path class="st4" d="M42.2,39.2c0,0,1.5,1.6,4.7,1.5c3.1-0.1,6.6,1.3,6.5,4.5c0,3.2,1,4.9,1,4.9s0.1-0.5-2.7-0.2
		c-2.7,0.3-6.6-1.4-7.7-4C43.1,43.4,42.2,39.2,42.2,39.2"/>
	<path class="st5" d="M61.1,34.6c0,0-4.1,4-5.3,6.7c-1.3,2.7-1.6,4.3,0,6.1c1.6,1.8,2.2,3.3,2.2,3.3s2.3-3.3,3.8-4.1
		c1.5-0.8,3.2-3.5,2.4-5.1C63.4,39.9,61.1,34.6,61.1,34.6"/>
	<path class="st13" d="M54.7,52.8c0,0-2.4-1-5.3-1.2c-2.9-0.3-4.4-0.2-5.6,1.2c-1.1,1.4-1.9,2.9-2.7,4.5c-0.8,1.6-0.9,2.3-1.6,2.5
		c-0.7,0.2,0.8-0.6,4,0.1c3.2,0.7,4.7,1.5,6,0.4c1.3-1,1.3-2.9,2.4-4.4C53,54.4,54.7,52.8,54.7,52.8"/>
	<path class="st10" d="M66.4,57.3c-2.4-0.2-6.7,0.2-9.8,0.5"/>
	<path class="st10" d="M64.3,50.9c-1.7,2.9-5.1,6.4-8.5,8"/>
	<path class="st10" d="M58.3,49.2c1.2,3.6,2.7,6.7-1.2,8.6"/>
	<path class="st10" d="M49.5,62.2c-3.5,3.3-7.8,6.3-11.4,7.3"/>
	<path class="st10" d="M51.1,70C46.3,69,38.6,69.5,37,69.5"/>
	<path class="st10" d="M42.8,62.5c0.5,2.9,1.6,4.6-3.6,6.9"/>
	<path class="st14" d="M70.2,62.7c-1.9,0.1-2.5,1-5.3-2.4l-2.9-3.4c0,0,0.8-0.5,1.7-1.1c0.9-0.6,4.1-3.3,7.1-1.6
		c3,1.7,4.5,3.1,5,3.6c0.4,0.5,2.2,1.9,2.7,2.3"/>
	<path class="st10" d="M74.5,41.5c-1.3,2.1,0.3,5.5-2.1,8c-2.4,2.5-7.4,3.5-8.9,4c-1.5,0.5-1.1,1.6-0.7-0.9c0.3-2.5-0.5-2.8,0.4-4.9
		c0.9-2.1,4.7-4.8,6.2-4.9C70.8,42.7,74.5,41.5,74.5,41.5"/>
	<path class="st15" d="M59.7,53.3c0.1-0.7,0.8-1.3,1.3-4.5c0.5-3.2,0.6-5.7-1.8-6.6c-2.4-0.8-3-0.1-4.5-1.6L53.2,39
		c0,0-0.5,2.7-1,6.6c-0.5,3.8,3.2,6.1,4.8,6.7C58.7,52.9,59.7,53.3,59.7,53.3"/>
	<path class="st10" d="M59.5,55c0,0-1.9,1.3-2.4,4.3c-0.5,3-2.5,6.1-5.8,5.8C48,64.7,46,65.5,46,65.5s0.5,0.1,0.7-2.5
		c0.2-2.6,2.6-6.2,5.5-6.9C55,55.4,59.5,55,59.5,55"/>
	<path class="st16" d="M60.8,73.5c0,0-3.4-4.3-5.9-5.8c-2.5-1.5-4.1-2-6.3-0.7c-2.2,1.3-3.8,1.7-3.8,1.7s3,2.6,3.6,4.1
		c0.6,1.5,3.1,3.4,4.8,2.8C55,75.1,60.8,73.5,60.8,73.5"/>
	<path class="st17" d="M43.3,65.4c0.1,0,1.4-2.2,2.2-4.9c0.8-2.7,1-4.2-0.3-5.5c-1.3-1.2-2.6-2.1-4.2-3.1c-1.5-1-2.2-1.1-2.2-1.8
		c-0.1-0.7,0.5,0.9-0.8,3.8c-1.3,3-2.3,4.3-1.5,5.7c0.8,1.4,2.7,1.5,4.1,2.7C41.9,63.7,43.3,65.4,43.3,65.4"/>
	<path class="st0" d="M42.2,40c-0.5,2.3-0.5,6.5-0.5,9.5"/>
	<path class="st0" d="M35.4,41.7c2.8,1.8,6.1,5.2,7.4,8.4"/>
	<path class="st0" d="M33,47.4c3.9-1,7.2-2.4,8.8,1.5"/>
	<path class="st0" d="M45.5,56.4c3,3.4,5.7,7.8,6.3,11.2"/>
	<path class="st0" d="M53.7,55.1c-1.5,4.6-1.9,12-2,13.5"/>
	<path class="st0" d="M45.1,62.8c3.1-0.3,5-1.4,6.7,3.7"/>
	<path class="st10" d="M48.3,36.5c-0.1,1.9,0.7,2.4-3.1,5l-3.8,2.6c0,0-0.5-0.8-1-1.7c-0.5-0.9-3-4.1-0.9-6.9
		c2.1-2.8,3.7-4.2,4.2-4.6c0.6-0.4,2.2-2.1,2.7-2.5"/>
	<path class="st2" d="M26.7,31.6c2,1.3,5.7-0.1,8,2.3c2.3,2.4,2.8,7.2,3.1,8.7c0.3,1.4,1.6,1.1-1,0.6c-2.6-0.4-2.9,0.4-5-0.5
		c-2.1-0.9-4.5-4.7-4.4-6.1C27.6,35.2,26.7,31.6,26.7,31.6"/>
	<path class="st3" d="M37.3,46.2c-0.7-0.1-1.3-0.8-4.5-1.4c-3.2-0.6-5.9-0.8-7,1.5c-1.1,2.3-0.4,2.9-2.2,4.2l-1.8,1.3
		c0,0,2.8,0.6,6.7,1.2c3.9,0.6,6.6-2.9,7.5-4.4C36.9,47.2,37.3,46.2,37.3,46.2"/>
	<path class="st4" d="M39.1,46.5c0,0,1.1,1.9,4.2,2.5c3.1,0.6,6.1,2.7,5.3,5.8c-0.7,3.1-0.1,5.1-0.1,5.1s0.2-0.4-2.5-0.7
		c-2.7-0.3-6.1-2.8-6.6-5.5C39,50.8,39.1,46.5,39.1,46.5"/>
	<path class="st5" d="M58.4,45.9c0,0-4.8,3.1-6.7,5.5c-1.8,2.4-2.5,3.9-1.4,6c1.1,2.1,1.4,3.7,1.4,3.7s3-2.8,4.6-3.3
		c1.6-0.5,3.9-2.8,3.4-4.5C59.4,51.6,58.4,45.9,58.4,45.9"/>
	<path class="st6" d="M48.1,62.5c0-0.1-2.1-1.4-4.9-2.3c-2.7-0.8-4.3-1.1-5.7,0.1c-1.4,1.2-2.5,2.5-3.7,3.9
		c-1.2,1.4-1.4,2.1-2.1,2.1c-0.7,0,0.9-0.4,3.9,0.9c2.9,1.3,4.2,2.4,5.7,1.7c1.5-0.7,1.9-2.6,3.3-3.8C46.1,63.7,48.1,62.5,48.1,62.5
		"/>
	<path class="st0" d="M82.3,48.9c-2.4,0.2-6.6,1.4-9.6,2.2"/>
	<path class="st0" d="M79.1,43c-1.2,3.1-3.9,7.1-6.9,9.2"/>
	<path class="st0" d="M72.9,42.4c1.8,3.3,3.9,6.1,0.4,8.6"/>
	<path class="st0" d="M66.4,56.6c-2.8,3.8-6.6,7.5-10,9"/>
	<path class="st0" d="M69.4,63.9c-4.9-0.1-12.5,1.6-14,1.9"/>
	<path class="st0" d="M59.9,58c1,2.8,2.5,4.3-2.3,7.3"/>
	<path class="st7" d="M78.4,58.4c-1.9,0.4-2.3,1.4-5.7-1.5l-3.4-2.8c0,0,0.7-0.6,1.5-1.4c0.8-0.8,3.5-3.9,6.7-2.8
		c3.3,1.2,5,2.2,5.6,2.7c0.5,0.4,2.6,1.5,3.1,1.8"/>
	<path class="st8" d="M79.9,34.6c-0.9,2.3,1.3,5.3-0.6,8.1c-1.9,2.8-6.7,4.6-8.1,5.4c-1.4,0.7-0.7,1.8-0.9-0.7
		c-0.1-2.5-1-2.6-0.5-4.9c0.5-2.2,3.8-5.5,5.2-5.8C76.5,36.4,79.9,34.6,79.9,34.6"/>
	<path class="st3" d="M75,46.1c0-0.7,0.5-1.4,0.5-4.6c0-3.2-0.5-5.7-3-6.1c-2.5-0.4-3,0.4-4.7-0.9L66,33.2c0,0,0,2.8,0.2,6.6
		c0.2,3.8,4.3,5.4,6,5.8C73.9,45.9,75,46.1,75,46.1"/>
	<path class="st9" d="M75,47.8c0,0-1.7,1.6-1.6,4.6c0.1,3-1.4,6.4-4.7,6.6c-3.3,0.2-5.1,1.3-5.1,1.3s0.5,0,0.2-2.6
		c-0.3-2.6,1.5-6.5,4.2-7.7C70.7,48.9,75,47.8,75,47.8"/>
	<path class="st5" d="M79.7,65.7c0,0-4.2-3.6-6.9-4.7c-2.8-1-4.4-1.3-6.3,0.4c-1.9,1.7-3.5,2.3-3.5,2.3s3.5,2,4.3,3.4
		c0.8,1.4,3.6,2.8,5.3,1.9C74.2,68.2,79.7,65.7,79.7,65.7"/>
	<path class="st6" d="M60.9,60.8c0.1,0,1-2.4,1.3-5.2c0.3-2.8,0.2-4.3-1.2-5.3c-1.5-1-3-1.7-4.7-2.3c-1.7-0.7-2.4-0.7-2.5-1.4
		c-0.2-0.6,0.6,0.8-0.1,3.9c-0.7,3.1-1.5,4.6-0.5,5.8c1.1,1.2,3,1.1,4.5,2C59.2,59.2,60.9,60.8,60.9,60.8"/>
	<path class="st0" d="M66.6,86.2c-0.2-2.3-1.5-6.3-2.4-9.1"/>
	<path class="st0" d="M72.7,82.5c-3.2-0.9-7.5-3.2-9.7-5.9"/>
	<path class="st0" d="M73.3,76.5c-3.4,2-6.2,4.3-9,1.1"/>
	<path class="st0" d="M58.5,71.5c-4-2.4-7.9-5.7-9.5-8.9"/>
	<path class="st0" d="M50.9,75.1c0.1-4.8-1.8-11.9-2.2-13.3"/>
	<path class="st0" d="M56.9,65.4c-2.9,1.2-4.4,2.7-7.6-1.6"/>
	<path class="st1" d="M61.9,91.2c-0.4-1.8-1.4-2.1,1.5-5.6l2.9-3.6c0,0,0.7,0.6,1.5,1.3c0.8,0.7,4.1,3,3,6.3c-1.2,3.2-2.2,5-2.7,5.6
		c-0.4,0.5-1.5,2.6-1.8,3.1"/>
	<path class="st7" d="M84.2,89.7c-2.4-0.7-5.5,1.7-8.5,0.1c-2.9-1.6-4.9-6.1-5.7-7.3c-0.8-1.3-1.9-0.6,0.8-0.9
		c2.6-0.3,2.7-1.2,5-0.9c2.3,0.3,5.8,3.2,6.1,4.6C82.2,86.5,84.2,89.7,84.2,89.7"/>
	<path class="st3" d="M69.4,78.8c0.7-0.1,1.5,0.4,4.8,0.1c3.3-0.3,5.9-0.9,6.3-3.4c0.4-2.5-0.5-2.9,0.8-4.6l1.3-1.8
		c0,0-2.9,0.2-6.8,0.7c-4,0.5-5.5,4.6-5.9,6.3C69.6,77.8,69.4,78.8,69.4,78.8"/>
	<path class="st4" d="M67.7,79.1c0,0-1.7-1.5-4.8-1.1c-3.1,0.3-6.7-0.8-6.9-4c-0.2-3.2-1.5-4.8-1.5-4.8s0,0.5,2.7,0
		c2.7-0.5,6.7,0.9,8,3.4C66.5,75,67.7,79.1,67.7,79.1"/>
	<path class="st5" d="M49.2,85.1c0,0,3.7-4.3,4.8-7.1c1-2.8,1.2-4.4-0.5-6.1c-1.7-1.7-2.5-3.1-2.5-3.1s-2,3.5-3.4,4.4
		c-1.4,0.9-2.9,3.8-1.9,5.2C46.5,80,49.2,85.1,49.2,85.1"/>
	<path class="st11" d="M54.1,66.5c0,0,2.5,0.8,5.4,0.8c2.9,0,4.4-0.2,5.5-1.7c1-1.5,1.7-3,2.3-4.7c0.7-1.7,0.7-2.4,1.4-2.6
		c0.6-0.2-0.8,0.6-4,0.2c-3.2-0.4-4.8-1.1-6,0.1c-1.2,1.1-1,3-2,4.6C55.6,64.8,54.1,66.5,54.1,66.5"/>
	<path class="st0" d="M26.8,73.4c2.4,0,6.7-0.7,9.8-1.2"/>
	<path class="st0" d="M29.3,79.6c1.5-3,4.7-6.7,7.9-8.5"/>
	<path class="st0" d="M35.4,80.9c-1.4-3.5-3.2-6.5,0.6-8.7"/>
	<path class="st0" d="M43.4,67.4c3.2-3.5,7.4-6.8,10.9-8"/>
	<path class="st0" d="M41.2,59.8c4.9,0.6,12.5-0.3,14.1-0.5"/>
	<path class="st0" d="M50,66.7c-0.7-2.9-2-4.5,3.1-7.1"/>
	<path class="st10" d="M22.6,68.3c1.9-0.2,2.4-1.1,5.5,2.1l3.1,3.2c0,0-0.8,0.6-1.7,1.2c-0.9,0.7-3.9,3.6-7,2.1
		c-3.1-1.5-4.8-2.7-5.2-3.2c-0.5-0.5-2.4-1.8-2.8-2.1"/>
	<path class="st12" d="M19.8,89.7c1.1-2.2-0.7-5.5,1.5-8.1c2.2-2.6,7.2-3.9,8.6-4.5c1.5-0.6,0.9-1.7,0.8,0.8c-0.2,2.5,0.7,2.7,0,4.9
		C30,85,26.3,88,24.9,88.1C23.4,88.2,19.8,89.7,19.8,89.7"/>
	<path class="st7" d="M33.8,77c-0.1,0.7-0.7,1.4-1,4.6c-0.3,3.2-0.2,5.7,2.3,6.4c2.5,0.7,3.1-0.1,4.6,1.3l1.5,1.4
		c0,0,0.3-2.8,0.5-6.6c0.2-3.8-3.7-5.8-5.3-6.4C34.8,77.3,33.8,77,33.8,77"/>
	<path class="st4" d="M33.9,75.3c0,0,1.8-1.4,2.1-4.4c0.3-3,2.1-6.3,5.4-6.1c3.3,0.1,5.2-0.8,5.2-0.8s-0.5-0.1-0.5,2.6
		c0,2.6-2.2,6.3-5,7.2C38.3,74.6,33.9,75.3,33.9,75.3"/>
	<path class="st5" d="M31.2,56.9c0,0,3.7,4.1,6.3,5.4c2.6,1.3,4.2,1.7,6.3,0.2c2.1-1.5,3.7-2,3.7-2s-3.2-2.3-3.9-3.8
		c-0.7-1.5-3.3-3.2-5-2.5C36.9,55,31.2,56.9,31.2,56.9"/>
	<path class="st13" d="M49.3,63.8c-0.1,0-1.2,2.3-1.8,5c-0.6,2.8-0.7,4.3,0.7,5.4c1.3,1.2,2.8,2,4.4,2.8c1.6,0.8,2.3,1,2.4,1.6
		c0.1,0.6-0.5-0.8,0.5-3.9c1-3,2-4.5,1.1-5.8c-0.9-1.3-2.8-1.4-4.3-2.5C50.8,65.5,49.3,63.8,49.3,63.8"/>
	<path class="st10" d="M55.3,52.7c-0.5,2.3-0.5,6.5-0.5,9.5"/>
	<path class="st10" d="M48.5,54.5c2.8,1.8,6.1,5.2,7.4,8.4"/>
	<path class="st10" d="M46,60.2c3.9-1,7.2-2.4,8.8,1.5"/>
	<path class="st10" d="M58.6,69.2c3,3.4,5.7,7.8,6.3,11.2"/>
	<path class="st10" d="M66.7,67.9c-1.5,4.6-1.9,12-2,13.5"/>
	<path class="st10" d="M58.1,75.6c3.1-0.3,5-1.4,6.7,3.7"/>
	<path class="st14" d="M61.3,49.2c-0.1,1.9,0.7,2.4-3.1,5l-3.8,2.6c0,0-0.5-0.8-1-1.7c-0.5-0.9-3-4.1-0.9-6.9
		c2.1-2.8,3.7-4.2,4.2-4.6c0.6-0.4,2.2-2.1,2.7-2.5"/>
	<path class="st10" d="M39.8,44.3c2,1.3,5.7-0.1,8,2.3c2.3,2.4,2.8,7.2,3.1,8.7c0.3,1.4,1.6,1.1-1,0.6c-2.6-0.4-2.9,0.4-5-0.5
		c-2.1-0.9-4.5-4.7-4.4-6.1C40.7,48,39.8,44.3,39.8,44.3"/>
	<path class="st15" d="M50.4,59c-0.7-0.1-1.3-0.8-4.5-1.4c-3.2-0.6-5.9-0.8-7,1.5c-1.1,2.3-0.4,2.9-2.2,4.2l-1.8,1.3
		c0,0,2.8,0.6,6.7,1.2c3.9,0.6,6.6-2.9,7.5-4.4C49.9,60,50.4,59,50.4,59"/>
	<path class="st1" d="M52.2,59.3c0,0,1.1,1.9,4.2,2.5c3.1,0.6,6.1,2.7,5.3,5.8c-0.7,3.1-0.1,5.1-0.1,5.1s0.2-0.4-2.5-0.7
		c-2.7-0.3-6.1-2.8-6.6-5.5C52,63.6,52.2,59.3,52.2,59.3"/>
	<path class="st16" d="M71.5,58.7c0,0-4.8,3.1-6.7,5.5c-1.8,2.4-2.5,3.9-1.4,6c1.1,2.1,1.4,3.7,1.4,3.7s3-2.8,4.6-3.3
		c1.6-0.5,3.9-2.8,3.4-4.5C72.5,64.4,71.5,58.7,71.5,58.7"/>
	<path class="st17" d="M61.2,75.3c0-0.1-2.1-1.4-4.9-2.3c-2.7-0.8-4.3-1.1-5.7,0.1c-1.4,1.2-2.5,2.5-3.7,3.9
		c-1.2,1.4-1.4,2.1-2.1,2.1c-0.7,0,0.9-0.4,3.9,0.9c2.9,1.3,4.2,2.4,5.7,1.7c1.5-0.7,1.9-2.6,3.3-3.8C59.2,76.5,61.2,75.3,61.2,75.3
		"/>
	<path class="st0" d="M82.4,58c-1.7-1.6-5.4-4-8-5.7"/>
	<path class="st0" d="M84.7,51.7c-3.1,1.2-8,1.8-11.6,0.9"/>
	<path class="st0" d="M81.2,46.7c-1.4,3.5-2.1,6.9-6.4,6"/>
	<path class="st0" d="M66.1,51.2c-4.8,0.4-10.1,0-13.5-1.5"/>
	<path class="st0" d="M62.5,58.3c-3.2-3.8-9.4-8.2-10.6-9.2"/>
	<path class="st0" d="M60.7,47.3c-1.5,2.6-1.6,4.6-7.1,3.1"/>
	<path class="st1" d="M82,64.6c-1.5-1.1-2.5-0.8-2.6-5.2L79.3,55c0,0,1,0.1,2.1,0.2c1.1,0.1,5.3,0,6.5,3.2c1.3,3.2,1.6,5.2,1.6,5.9
		c0,0.7,0.5,2.9,0.6,3.5"/>
	<path class="st2" d="M98.6,50.8c-2.3,0.8-3.2,4.5-6.6,4.9c-3.4,0.4-7.9-1.9-9.4-2.5c-1.5-0.6-1.9,0.6,0-1.1
		c1.9-1.8,1.3-2.5,3.4-3.6c2-1.1,6.7-0.8,7.9,0.1C95,49.4,98.6,50.8,98.6,50.8"/>
	<path class="st3" d="M79.7,50.7c0.5-0.4,1.4-0.6,3.9-2.7c2.4-2.1,4-4.1,2.7-6.3c-1.4-2.2-2.3-2-2.5-4.1l-0.1-2.1
		c0,0-2.1,1.8-4.9,4.5c-2.8,2.7-1.3,6.7-0.4,8.3C79.1,49.8,79.7,50.7,79.7,50.7"/>
	<path class="st4" d="M78.4,51.9c0,0-2.3-0.2-4.6,1.8c-2.3,2-5.8,3.2-8.1,0.8c-2.3-2.3-4.4-2.9-4.4-2.9s0.3,0.4,2.1-1.6
		c1.8-1.9,5.9-3.1,8.6-1.9C74.7,49.3,78.4,51.9,78.4,51.9"/>
	<path class="st5" d="M67.9,67.2c0,0,0.1-5.5-1-8.2c-1-2.7-1.9-4.1-4.5-4.4c-2.5-0.3-4-1-4-1s0.7,3.9,0.2,5.4
		c-0.5,1.5,0.2,4.6,2,5.2C62.3,64.7,67.9,67.2,67.9,67.2"/>
	<path class="st6" d="M59.3,49.8c0,0,2.5-0.8,4.8-2.5s3.4-2.7,3.2-4.4c-0.2-1.8-0.7-3.3-1.3-5c-0.6-1.7-1-2.3-0.6-2.8
		c0.4-0.5-0.2,1-3,2.5c-2.8,1.5-4.5,1.9-4.7,3.5c-0.2,1.6,1.2,2.9,1.5,4.7C59.3,47.6,59.3,49.8,59.3,49.8"/>
	<path class="st0" d="M51.5,83.9c1.2-2,2.6-5.9,3.6-8.7"/>
	<path class="st0" d="M58.5,84.7c-2-2.7-4-7.1-4.1-10.6"/>
	<path class="st0" d="M62.7,80.3c-4-0.5-7.5-0.4-7.8-4.6"/>
	<path class="st0" d="M53.9,67.3c-1.7-4.3-2.8-9.3-2.2-12.8"/>
	<path class="st0" d="M45.8,65.5c3-3.7,5.8-10.5,6.4-11.9"/>
	<path class="st0" d="M56.5,61.4c-3-0.8-5.2-0.5-5.1-5.9"/>
	<path class="st7" d="M45.5,75.5c0.7-1.7,0.1-2.5,4.6-3.6l4.5-1c0,0,0.2,0.9,0.4,2c0.2,1.1,1.4,4.9-1.5,6.8
		c-2.9,1.9-4.8,2.6-5.5,2.8c-0.7,0.2-2.8,1.1-3.4,1.3"/>
	<path class="st8" d="M65.4,90.1c-1.5-2-5.4-2-6.8-5.1c-1.4-3-0.2-7.8,0-9.3c0.2-1.5-1.1-1.6,1.2-0.2c2.3,1.3,2.9,0.7,4.6,2.3
		c1.7,1.6,2.6,6.1,2,7.3C65.8,86.4,65.4,90.1,65.4,90.1"/>
	<path class="st3" d="M58.2,79.8c0.6,0.4,1,1.2,3.8,3c2.8,1.8,5.2,2.9,7.1,1.1c1.8-1.7,1.4-2.6,3.5-3.2l2.1-0.6c0,0-2.4-1.6-5.9-3.6
		c-3.5-2-7.2,0.3-8.5,1.4C59,79.1,58.2,79.8,58.2,79.8"/>
	<path class="st9" d="M56.6,78.9c0,0-0.4-2.2-3.1-3.8c-2.7-1.7-4.8-4.7-3.1-7.4c1.7-2.7,1.8-4.7,1.8-4.7s-0.3,0.3,2.1,1.6
		c2.5,1.3,4.8,4.8,4.3,7.6C58.2,74.9,56.6,78.9,56.6,78.9"/>
	<path class="st5" d="M38.3,72.4c0,0,5.6-1.1,8.1-2.7c2.5-1.6,3.6-2.7,3.3-5.1c-0.4-2.4,0-4,0-4s-3.7,1.5-5.4,1.4
		c-1.7-0.1-4.6,1.2-4.7,3C39.3,66.7,38.3,72.4,38.3,72.4"/>
	<path class="st6" d="M53.5,60.7c0,0,1.5,2.1,3.8,3.9c2.3,1.8,3.6,2.6,5.3,2c1.7-0.6,3.2-1.4,4.7-2.3c1.6-0.9,2-1.4,2.7-1.2
		c0.6,0.2-1,0-3.3-2.3c-2.3-2.3-3.2-3.8-4.8-3.7c-1.7,0.1-2.6,1.7-4.4,2.4C55.8,60.2,53.5,60.7,53.5,60.7"/>
	<path class="st0" d="M27.9,50.8c2.1,1.1,6.3,2.4,9.3,3.3"/>
	<path class="st0" d="M27.6,57.5c2.6-2,7.1-4,10.7-4.1"/>
	<path class="st0" d="M32.5,61.4c0.2-3.8-0.1-7.2,4.2-7.5"/>
	<path class="st0" d="M45.4,52.7c4.4-1.7,9.5-2.8,13.2-2.3"/>
	<path class="st0" d="M46.7,44.9c4.1,2.7,11.5,5.3,12.9,5.9"/>
	<path class="st0" d="M51.7,55c0.6-2.9,0.1-4.9,5.8-5"/>
	<path class="st10" d="M26.3,44.2c1.8,0.7,2.6,0.1,4.1,4.3l1.4,4.2c0,0-0.9,0.2-2,0.4c-1.1,0.2-5,1.5-7.2-1.3
		c-2.2-2.7-3.1-4.6-3.3-5.2c-0.2-0.6-1.4-2.7-1.7-3.2"/>
	<path class="st7" d="M14.8,62.3c2-1.5,1.7-5.2,4.8-6.6c3.1-1.4,8.1-0.4,9.7-0.2c1.6,0.1,1.6-1.1,0.3,1.1c-1.2,2.2-0.5,2.8-2.1,4.4
		c-1.6,1.6-6.1,2.6-7.5,2.1C18.7,62.6,14.8,62.3,14.8,62.3"/>
	<path class="st3" d="M32.7,57.1c-0.3,0.6-1.2,0.9-2.8,3.7c-1.6,2.7-2.6,5.1-0.6,6.8c2,1.7,2.8,1.3,3.6,3.3l0.8,2
		c0,0,1.4-2.3,3.3-5.7c1.8-3.4-0.8-6.9-2.1-8.1C33.5,57.8,32.7,57.1,32.7,57.1"/>
	<path class="st4" d="M33.6,55.5c0,0,2.2-0.5,3.7-3.1c1.5-2.6,4.5-4.7,7.5-3.1c2.9,1.6,5.1,1.6,5.1,1.6s-0.4-0.3-1.5,2.1
		c-1.1,2.4-4.6,4.7-7.6,4.3C37.8,56.9,33.6,55.5,33.6,55.5"/>
	<path class="st5" d="M38.9,37.8c0,0,1.6,5.3,3.5,7.7c1.8,2.4,3.1,3.4,5.6,3c2.5-0.4,4.1-0.1,4.1-0.1s-1.9-3.5-1.9-5.2
		c0-1.6-1.6-4.3-3.5-4.5C44.9,38.7,38.9,37.8,38.9,37.8"/>
	<path class="st11" d="M52.3,52.1c0,0-2.1,1.5-3.8,3.7c-1.7,2.2-2.4,3.5-1.7,5.2c0.7,1.6,1.7,3,2.8,4.5c1.1,1.5,1.6,1.9,1.5,2.5
		c-0.2,0.6-0.1-1,2.1-3.2c2.2-2.3,3.7-3.1,3.4-4.7c-0.3-1.6-2-2.5-2.8-4.1C53,54.3,52.3,52.1,52.3,52.1"/>
	<path class="st0" d="M62,27.2c-1.4,1.8-3.3,5.6-4.6,8.2"/>
	<path class="st0" d="M55.1,25.7c1.7,2.8,3.2,7.4,2.9,10.9"/>
	<path class="st0" d="M50.4,29.6c3.9,0.9,7.5,1.2,7.2,5.4"/>
	<path class="st0" d="M57.7,43.4c1.2,4.5,1.7,9.5,0.7,12.9"/>
	<path class="st0" d="M65.6,46c-3.4,3.4-6.9,9.9-7.7,11.1"/>
	<path class="st0" d="M54.6,48.9c2.9,1.1,5.1,1,4.4,6.4"/>
	<path class="st10" d="M68.9,26.8c-0.9,1.6-0.4,2.5-5,3.1l-4.6,0.6c0,0-0.1-0.9-0.1-2c-0.1-1.1-0.9-5,2.2-6.6
		c3.1-1.5,5.1-2.1,5.8-2.2c0.7-0.1,2.9-0.8,3.5-1"/>
	<path class="st12" d="M51.7,12.6c1.2,2.1,5.2,2.6,6.2,5.7c1,3.2-0.7,7.7-1,9.2c-0.3,1.4,1,1.7-1.2,0.1c-2.1-1.6-2.8-1-4.3-2.8
		c-1.5-1.8-1.9-6.3-1.2-7.5C50.9,16.2,51.7,12.6,51.7,12.6"/>
	<path class="st7" d="M54.9,30.6c-0.5-0.4-0.8-1.3-3.4-3.4c-2.6-2.1-4.9-3.4-6.9-1.8c-2,1.5-1.7,2.4-3.8,2.8l-2.2,0.4
		c0,0,2.2,1.8,5.5,4.1c3.2,2.3,7.2,0.5,8.6-0.5C54,31.2,54.9,30.6,54.9,30.6"/>
	<path class="st4" d="M56.3,31.6c0,0,0.2,2.2,2.7,4.1c2.5,1.9,4.3,5.2,2.3,7.6c-2,2.5-2.3,4.5-2.3,4.5s0.3-0.3-2-1.8
		c-2.3-1.5-4.3-5.2-3.5-7.9C54.3,35.4,56.3,31.6,56.3,31.6"/>
	<path class="st5" d="M73.9,39.9c0,0-5.7,0.6-8.4,1.9c-2.7,1.3-3.9,2.3-3.8,4.7c0.1,2.4-0.4,3.9-0.4,3.9s3.9-1.1,5.6-0.8
		c1.7,0.3,4.7-0.8,5-2.5C72.3,45.4,73.9,39.9,73.9,39.9"/>
	<path class="st13" d="M57.5,50c0,0-1.3-2.3-3.4-4.3c-2.1-2-3.3-2.9-5.1-2.5c-1.8,0.4-3.3,1-5,1.8c-1.7,0.8-2.2,1.2-2.8,0.9
		c-0.6-0.3,1,0.1,3.1,2.6c2,2.5,2.7,4.1,4.4,4.1c1.7,0,2.8-1.4,4.6-1.9C55.1,50.2,57.5,50,57.5,50"/>
	<path class="st10" d="M63.7,60.9c-1.7-1.6-5.4-4-8-5.7"/>
	<path class="st10" d="M66.1,54.6c-3.1,1.2-8,1.8-11.6,0.9"/>
	<path class="st10" d="M62.5,49.5c-1.4,3.5-2.1,6.9-6.4,6"/>
	<path class="st10" d="M47.4,54.1c-4.8,0.4-10.1,0-13.5-1.5"/>
	<path class="st10" d="M43.9,61.1c-3.2-3.8-9.4-8.2-10.6-9.2"/>
	<path class="st10" d="M42.1,50.2c-1.5,2.6-1.6,4.6-7.1,3.1"/>
	<path class="st14" d="M63.3,67.5c-1.5-1.1-2.5-0.8-2.6-5.2l-0.1-4.4c0,0,1,0.1,2.1,0.2c1.1,0.1,5.3,0,6.5,3.2
		c1.3,3.2,1.6,5.2,1.6,5.9c0,0.7,0.5,2.9,0.6,3.5"/>
	<path class="st10" d="M79.9,53.7c-2.3,0.8-3.2,4.5-6.6,4.9s-7.9-1.9-9.4-2.5c-1.5-0.6-1.9,0.6,0-1.1c1.9-1.8,1.3-2.5,3.4-3.6
		c2-1.1,6.7-0.8,7.9,0.1C76.3,52.3,79.9,53.7,79.9,53.7"/>
	<path class="st15" d="M61,53.6c0.5-0.4,1.4-0.6,3.9-2.7c2.4-2.1,4-4.1,2.7-6.3c-1.4-2.2-2.3-2-2.5-4.1L65,38.4c0,0-2.1,1.8-4.9,4.5
		c-2.8,2.7-1.3,6.7-0.4,8.3C60.5,52.7,61,53.6,61,53.6"/>
	<path class="st10" d="M59.8,54.8c0,0-2.3-0.2-4.5,1.8c-2.3,2-5.8,3.2-8.1,0.8c-2.3-2.3-4.4-2.9-4.4-2.9s0.3,0.4,2.1-1.6
		c1.8-1.9,5.9-3.1,8.6-1.9C56.1,52.2,59.8,54.8,59.8,54.8"/>
	<path class="st16" d="M49.2,70c0,0,0.1-5.5-1-8.2c-1-2.7-1.9-4.1-4.5-4.4c-2.5-0.3-4-1-4-1s0.7,3.9,0.2,5.4c-0.5,1.5,0.2,4.6,2,5.2
		C43.7,67.6,49.2,70,49.2,70"/>
	<path class="st17" d="M40.6,52.7c0,0,2.5-0.8,4.8-2.5c2.3-1.6,3.4-2.7,3.2-4.4c-0.2-1.8-0.7-3.3-1.3-5c-0.6-1.7-1-2.3-0.6-2.8
		c0.4-0.5-0.2,1-3,2.5c-2.8,1.5-4.5,1.9-4.7,3.5c-0.2,1.6,1.2,2.9,1.5,4.7C40.7,50.5,40.6,52.7,40.6,52.7"/>
	<path class="st0" d="M55.8,32.2c-1.8,1.5-4.4,4.7-6.3,7"/>
	<path class="st0" d="M49.4,29.3c1.1,3.1,1.5,7.8,0.4,11.2"/>
	<path class="st0" d="M43.9,32.2c3.6,1.7,7.1,2.7,5.9,6.7"/>
	<path class="st0" d="M48,47.1c0.2,4.6-0.4,9.6-2.2,12.7"/>
	<path class="st0" d="M55.2,51.2c-4.1,2.6-9,8.2-10.1,9.2"/>
	<path class="st0" d="M43.7,51.8c2.6,1.7,4.8,2,2.9,7.1"/>
	<path class="st10" d="M62.7,33.3c-1.3,1.4-0.9,2.3-5.6,2l-4.6-0.4c0,0,0.2-0.9,0.3-2c0.2-1,0.3-5,3.6-5.9c3.4-0.9,5.5-1,6.2-1
		c0.7,0.1,3.1-0.2,3.7-0.2"/>
	<path class="st2" d="M49,16c0.8,2.3,4.5,3.6,4.8,6.8c0.3,3.3-2.4,7.4-3,8.7c-0.6,1.3,0.6,1.8-1.2-0.1c-1.7-2-2.5-1.5-3.6-3.6
		c-1.1-2.1-0.5-6.5,0.5-7.5C47.4,19.3,49,16,49,16"/>
	<path class="st3" d="M48,34c-0.4-0.5-0.5-1.4-2.6-4c-2.1-2.5-4.1-4.3-6.4-3.2c-2.3,1.1-2.2,2-4.4,1.9l-2.2-0.1c0,0,1.8,2.2,4.4,5.1
		c2.7,2.9,7,1.9,8.6,1.3C47.1,34.5,48,34,48,34"/>
	<path class="st4" d="M49.2,35.4c0,0-0.3,2.2,1.7,4.5c2,2.4,3.1,5.9,0.5,7.9c-2.5,2-3.3,3.9-3.3,3.9s0.4-0.2-1.5-2.2
		c-1.9-1.9-3-6-1.6-8.4C46.4,38.7,49.2,35.4,49.2,35.4"/>
	<path class="st5" d="M64.7,47c0,0-5.7-0.6-8.6,0.1c-2.9,0.7-4.4,1.4-4.8,3.8c-0.5,2.4-1.3,3.8-1.3,3.8s4.1-0.3,5.6,0.3
		s4.8,0.2,5.5-1.4C61.9,52.1,64.7,47,64.7,47"/>
	<path class="st6" d="M46.3,53.5c0,0-0.8-2.4-2.4-4.8c-1.6-2.4-2.6-3.5-4.5-3.5c-1.8,0-3.5,0.3-5.3,0.7c-1.8,0.4-2.4,0.7-2.9,0.3
		c-0.5-0.4,1,0.3,2.4,3.1c1.4,2.9,1.8,4.5,3.4,4.9c1.6,0.4,3.1-0.8,5-0.9C43.9,53.2,46.3,53.5,46.3,53.5"/>
	<path class="st0" d="M81.4,64.3c-2-1.3-6-3.1-8.9-4.4"/>
	<path class="st0" d="M82.5,57.7c-2.9,1.7-7.5,3.1-11.2,2.8"/>
	<path class="st0" d="M78.1,53.3c-0.7,3.7-0.8,7.2-5.1,7"/>
	<path class="st0" d="M64.2,60.4c-4.6,1.2-9.9,1.7-13.5,0.8"/>
	<path class="st0" d="M62,67.9c-3.8-3.2-10.7-6.6-12.1-7.3"/>
	<path class="st0" d="M58.2,57.3c-1,2.8-0.8,4.9-6.4,4.2"/>
	<path class="st7" d="M72.4,69.3c-1.7-0.9-2.6-0.4-3.5-4.7L68,60.2c0,0,1-0.1,2.1-0.1c1.1-0.1,5.2-0.9,7,2.1c1.8,3,2.5,4.9,2.7,5.6
		c0.1,0.7,1.1,2.8,1.2,3.3"/>
	<path class="st8" d="M88.5,51.7c-2.1,1.2-2.4,4.9-5.6,5.9c-3.2,1-8.1-0.6-9.7-0.9c-1.5-0.3-1.7,0.9-0.2-1.1c1.5-2,0.9-2.7,2.6-4.1
		c1.8-1.4,6.4-1.9,7.7-1.2C84.7,50.9,88.5,51.7,88.5,51.7"/>
	<path class="st3" d="M77.4,57.6c0.4-0.5,1.3-0.8,3.3-3.3c2-2.5,3.2-4.7,1.5-6.6C80.5,45.7,79.6,46,79,44l-0.5-2.1
		c0,0-1.7,2.1-4,5.2c-2.2,3.1,0,6.9,1.1,8.2C76.7,56.8,77.4,57.6,77.4,57.6"/>
	<path class="st9" d="M76.4,59c0,0-2.3,0.2-4.1,2.6c-1.8,2.4-5.1,4.1-7.8,2.2c-2.7-1.9-4.8-2.2-4.8-2.2s0.3,0.3,1.8-1.9
		c1.4-2.2,5.2-4.1,8.1-3.3C72.3,57.1,76.4,59,76.4,59"/>
	<path class="st5" d="M68.8,75.8c0,0-0.9-5.4-2.5-8c-1.5-2.5-2.6-3.8-5.2-3.7c-2.5,0.1-4.1-0.4-4.1-0.4s1.4,3.7,1.2,5.3
		c-0.2,1.6,1.1,4.5,2.9,4.8C62.9,74.3,68.8,75.8,68.8,75.8"/>
	<path class="st6" d="M57.2,60.1c0,0,2.3-1.2,4.2-3.2c2-2,2.9-3.2,2.3-4.9c-0.5-1.7-1.3-3.2-2.2-4.8c-0.9-1.6-1.4-2.1-1.1-2.7
		c0.3-0.6,0,1-2.5,2.9c-2.5,2-4.1,2.6-4,4.2c0.1,1.6,1.7,2.7,2.3,4.4C56.9,57.9,57.2,60.1,57.2,60.1"/>
	<path class="st0" d="M45.8,83.5c1.2-1.9,2.8-5.8,3.9-8.6"/>
	<path class="st0" d="M52.8,84.5c-2-2.7-3.8-7.1-3.8-10.7"/>
	<path class="st0" d="M57,80.2c-4-0.6-7.5-0.6-7.7-4.8"/>
	<path class="st0" d="M48.6,67c-1.6-4.4-2.5-9.4-1.8-12.9"/>
	<path class="st0" d="M40.5,65c3-3.7,6-10.4,6.7-11.7"/>
	<path class="st0" d="M51.3,61.2c-3-0.9-5.1-0.6-4.9-6.1"/>
	<path class="st1" d="M38.9,84.4c0.8-1.7,0.2-2.5,4.7-3.4l4.5-0.9c0,0,0.1,0.9,0.3,2c0.2,1.1,1.3,4.9-1.6,6.7
		c-2.9,1.8-4.9,2.5-5.6,2.7c-0.7,0.1-2.8,1.1-3.4,1.3"/>
	<path class="st7" d="M57.2,97.3c-1.4-2-5.3-2.2-6.6-5.2c-1.3-3.1,0-7.8,0.2-9.3c0.2-1.5-1.1-1.6,1.2-0.2c2.3,1.4,2.9,0.8,4.5,2.4
		c1.6,1.7,2.5,6.1,1.9,7.4C57.7,93.6,57.2,97.3,57.2,97.3"/>
	<path class="st3" d="M52.6,79.6c0.6,0.4,0.9,1.2,3.7,3.1c2.8,1.8,5.2,3,7,1.3c1.9-1.7,1.5-2.5,3.6-3.1l2.1-0.5c0,0-2.4-1.6-5.8-3.7
		c-3.4-2.1-7.2,0.1-8.5,1.2C53.3,78.9,52.6,79.6,52.6,79.6"/>
	<path class="st4" d="M51,78.6c0,0-0.4-2.2-3-3.9c-2.6-1.7-4.7-4.8-2.9-7.4c1.8-2.6,1.9-4.7,1.9-4.7s-0.3,0.3,2.1,1.7
		c2.4,1.3,4.7,4.9,4.1,7.7C52.7,74.7,51,78.6,51,78.6"/>
	<path class="st5" d="M32.8,71.7c0,0,5.6-1,8.1-2.5c2.5-1.5,3.7-2.6,3.4-5c-0.3-2.4,0.1-4,0.1-4s-3.8,1.5-5.5,1.3
		c-1.7-0.2-4.6,1.1-4.8,2.9C33.9,66.1,32.8,71.7,32.8,71.7"/>
	<path class="st11" d="M48.3,60.3c0,0,1.5,2.1,3.7,4c2.2,1.8,3.6,2.7,5.3,2.1c1.7-0.5,3.2-1.3,4.8-2.2c1.6-0.9,2-1.4,2.7-1.1
		c0.6,0.2-1,0-3.3-2.3c-2.2-2.3-3.1-3.9-4.7-3.8c-1.7,0.1-2.7,1.6-4.4,2.3C50.6,60,48.3,60.3,48.3,60.3"/>
	<path class="st0" d="M22.8,48.6c1.8,1.5,5.6,3.7,8.3,5.2"/>
	<path class="st0" d="M20.9,55c3-1.4,7.9-2.3,11.5-1.7"/>
	<path class="st0" d="M24.8,59.9c1.1-3.6,1.6-7,5.9-6.4"/>
	<path class="st0" d="M39.4,54.3c4.7-0.7,10-0.7,13.5,0.6"/>
	<path class="st0" d="M42.5,47c3.4,3.6,10,7.6,11.3,8.5"/>
	<path class="st0" d="M45.1,57.9c1.3-2.7,1.3-4.8,6.9-3.6"/>
	<path class="st10" d="M22.7,41.9c1.6,1,2.6,0.6,3,5l0.4,4.4c0,0-1,0-2.1-0.1c-1.1,0-5.3,0.3-6.7-2.8c-1.5-3.1-2-5.1-2-5.8
		c-0.1-0.7-0.7-2.9-0.9-3.4"/>
	<path class="st12" d="M7.1,56.9c2.3-1,2.9-4.7,6.3-5.3c3.3-0.7,8,1.4,9.5,1.9c1.5,0.5,1.8-0.7,0.1,1.1c-1.7,1.9-1.2,2.6-3.1,3.8
		c-1.9,1.2-6.6,1.2-7.8,0.4C10.8,58,7.1,56.9,7.1,56.9"/>
	<path class="st7" d="M26,55.7c-0.5,0.5-1.4,0.6-3.7,2.9C20,61,18.6,63,20.1,65.1c1.5,2.1,2.4,1.8,2.7,3.9l0.3,2.1
		c0,0,2-1.9,4.6-4.8c2.6-2.9,0.8-6.8-0.1-8.3S26,55.7,26,55.7"/>
	<path class="st4" d="M27.1,54.4c0,0,2.3,0,4.4-2.1c2.1-2.2,5.6-3.6,8-1.4c2.5,2.2,4.6,2.6,4.6,2.6s-0.3-0.4-2,1.7
		c-1.7,2.1-5.7,3.5-8.4,2.5C31,56.7,27.1,54.4,27.1,54.4"/>
	<path class="st5" d="M36.6,38.5c0,0,0.3,5.5,1.6,8.2c1.2,2.7,2.2,4,4.8,4.2c2.5,0.2,4.1,0.8,4.1,0.8s-1-3.8-0.6-5.4
		c0.4-1.6-0.6-4.5-2.3-5.1C42.2,40.6,36.6,38.5,36.6,38.5"/>
	<path class="st13" d="M46.3,55.2c0,0-2.4,1-4.6,2.8c-2.2,1.8-3.2,2.9-2.9,4.6c0.3,1.7,0.9,3.3,1.7,4.9c0.7,1.7,1.2,2.2,0.8,2.7
		c-0.3,0.6,0.1-1,2.8-2.7c2.7-1.7,4.4-2.2,4.5-3.8c0.1-1.6-1.4-2.8-1.8-4.6C46.4,57.5,46.3,55.2,46.3,55.2"/>
	<path class="st10" d="M57.9,50.4c-1.8,1.5-4.4,4.7-6.3,7"/>
	<path class="st10" d="M51.5,47.5c1.1,3.1,1.5,7.8,0.4,11.2"/>
	<path class="st10" d="M46.1,50.3C49.7,52,53.1,53,52,57"/>
	<path class="st10" d="M50.2,65.2c0.2,4.6-0.4,9.6-2.2,12.7"/>
	<path class="st10" d="M57.3,69.4c-4.1,2.6-9,8.2-10.1,9.2"/>
	<path class="st10" d="M45.8,70c2.6,1.7,4.8,2,2.9,7.1"/>
	<path class="st14" d="M64.8,51.4c-1.3,1.4-0.9,2.3-5.6,2L54.7,53c0,0,0.2-0.9,0.3-2c0.2-1,0.3-5,3.6-5.9c3.4-0.9,5.5-1,6.2-1
		c0.7,0.1,3.1-0.2,3.7-0.2"/>
	<path class="st10" d="M51.1,34.1c0.8,2.3,4.5,3.6,4.8,6.8c0.3,3.3-2.4,7.4-3,8.7c-0.6,1.3,0.6,1.8-1.2-0.1c-1.7-2-2.5-1.5-3.6-3.6
		c-1.1-2.1-0.5-6.5,0.5-7.5C49.5,37.5,51.1,34.1,51.1,34.1"/>
	<path class="st15" d="M50.2,52.2c-0.4-0.5-0.5-1.4-2.6-4c-2.1-2.5-4.1-4.3-6.4-3.2c-2.3,1.1-2.2,2-4.4,1.9l-2.2-0.1
		c0,0,1.8,2.2,4.4,5.1c2.7,2.9,7,1.9,8.6,1.3C49.2,52.6,50.2,52.2,50.2,52.2"/>
	<path class="st1" d="M51.4,53.5c0,0-0.3,2.2,1.7,4.5c2,2.4,3.1,5.9,0.5,7.9c-2.5,2-3.3,3.9-3.3,3.9s0.4-0.2-1.5-2.2
		c-1.9-1.9-3-6-1.6-8.4C48.6,56.8,51.4,53.5,51.4,53.5"/>
	<path class="st16" d="M66.8,65.2c0,0-5.7-0.6-8.6,0.1c-2.9,0.7-4.4,1.4-4.8,3.8c-0.5,2.4-1.3,3.8-1.3,3.8s4.1-0.3,5.7,0.3
		c1.6,0.7,4.8,0.2,5.5-1.4C64,70.2,66.8,65.2,66.8,65.2"/>
	<path class="st17" d="M48.4,71.6c0,0-0.8-2.4-2.4-4.8c-1.6-2.4-2.6-3.5-4.5-3.5c-1.8,0-3.5,0.3-5.3,0.7c-1.8,0.4-2.4,0.7-2.9,0.3
		c-0.5-0.4,1,0.3,2.4,3.1c1.4,2.9,1.8,4.5,3.4,4.9c1.6,0.4,3.1-0.8,5-0.9C46.1,71.3,48.4,71.6,48.4,71.6"/>
	<path class="st18" d="M42,34.9c0,0-1.1-3.5-3.2-4.1s-3.1-1.2-3.4,0c-0.3,1.2-0.1,3.1,1.3,3.7c1.5,0.6,3.3,3,4.5,2.6
		S42,34.9,42,34.9z"/>
	<path class="st19" d="M44.8,33.6c-0.4-2.2-2.4-7.4-4-7.6s-3.1,0-3,1.3c0.1,1.3,1.2,4.2,2.9,5.2C42.5,33.4,44.8,33.6,44.8,33.6z"/>
	<path class="st20" d="M45.2,32.6c-0.2-2.2-2-8,0-8.7c2-0.6,3.8-0.5,3.4,2.9s0.1,3.6-1.1,4.8C46.3,32.9,45.2,32.6,45.2,32.6z"/>
	<path class="st21" d="M48.7,32.6c0.4-2.7,1.7-8.4,3.3-8.2s2.7,1.2,2.2,3c-0.5,1.8-0.8,3-2.2,4.4c-1.3,1.4-2,1.4-2.5,1.7
		C49.1,33.8,48.7,32.6,48.7,32.6z"/>
	<path class="st18" d="M50.8,33c1.2-1.1,5.2-2.6,6.9-3.3s4.1,0.6,1.2,2.5s-4.4,2.5-5.6,2.6c-1.1,0.1-2.6,0-2.6,0V33z"/>
	<path class="st22" d="M62,35.3c-1-2.2-1-5.8-3.3-6.2s-4.7,1.8-1.3,4.6c3.4,2.8,4.6,2.9,4.6,2.9V35.3z"/>
	<path class="st21" d="M64.5,34.1c0.7-2.4,1.2-7.8-1-8.3c-2.3-0.5-3.1,4.2-2.3,6.8c0.9,2.6,1.4,3,1.8,3.3
		C63.4,36.3,64.5,34.1,64.5,34.1z"/>
	<path class="st20" d="M66.6,36c-0.2-3.3-0.1-5.6,1.2-7c1.3-1.4,3.4-2,3.3,0.1s-0.8,5-1.4,5.8C69,35.6,66.6,36,66.6,36z"/>
	<path class="st18" d="M69.5,36c0.1-1.2,2.7-3.9,4.3-4.2s3.2-0.9,2.8,0.9c-0.4,1.8-2,3.8-3.5,4.3s-3.3,0.6-3.6,0.8
		C69.2,38,69.5,36,69.5,36z"/>
	<path class="st19" d="M69.4,41.1c2.5-0.9,7.2-1.6,8.7-0.8c1.4,0.8,2.6,1.4,1.2,2.7s-5.1,1.3-6.3,1.3s-3.2-0.1-3.7-0.5
		C68.9,43.4,69.4,41.1,69.4,41.1z"/>
	<path class="st20" d="M67.8,49.8c0.2-1.5,2.3-5.5,4-6.1c1.8-0.6,3.6-0.8,2.7,0.6s-1.2,2.5-1.9,3.2c-0.7,0.7-1.6,1.2-2.2,1.8
		C70,49.8,67.8,49.8,67.8,49.8z"/>
	<path class="st18" d="M69.4,51.4c1.5-0.1,8.7-1.3,8.2-3.3c-0.5-2-1.4-1.6-2.8-1.6s-5.4,2.6-5.6,3.3C69,50.5,69.4,51.4,69.4,51.4z"
		/>
	<path class="st22" d="M73.1,57.6c0-2.1,2-7.7,4.1-7.8c2.1-0.1,2.4,0.8,1.9,2.3s-4.2,4.9-4.2,5.1S73.1,57.6,73.1,57.6z"/>
	<path class="st20" d="M74.8,57.2c1.4-1.5,2.3-3.1,5.1-3.5c2.8-0.4,3.7-0.7,3.3,0.9s-4,4.1-5.6,4.6c-1.7,0.5-2.3,0-2.8,0
		S74.8,57.2,74.8,57.2z"/>
	<path class="st23" d="M74.8,61.5c2.3-1.3,6.1-3.1,7.5-2.9c1.4,0.2,2.1,1.3,1,2.4s-4.7,2.3-5.7,2.2C76.5,63.1,74.8,61.5,74.8,61.5z"
		/>
	<path class="st22" d="M76.1,63.2c2.1,0,6,1.6,6.5,3.2c0.5,1.5,1.8,3.5-1.1,2.8c-2.9-0.7-6.4-3.2-6.7-4.2
		C74.5,63.9,74.7,63.2,76.1,63.2z"/>
	<path class="st20" d="M73.4,66.2c2.1,1.6,4.3,2.8,4.7,4.9s-0.4,3.9-3.5,1.1c-3.2-2.8-3.6-3.3-3.3-4.3
		C71.6,66.9,73.4,66.2,73.4,66.2z"/>
	<path class="st23" d="M63.5,73.6c0.4-0.5,4.6-4.6,5.9-4.3c1.4,0.3,2.9,0.8,2.3,2.2c-0.6,1.4-2.2,1.7-3.9,2.2
		C66,74.1,63.5,73.6,63.5,73.6z"/>
	<path class="st18" d="M71.1,66.8c0,0-1,4.9-1,6.2s-0.4,4.2,1.1,3.4c1.5-0.8,2.2-4.1,1.9-5.5C72.7,69.6,71.1,66.8,71.1,66.8z"/>
	<path class="st18" d="M62,67.5c1,0.2,4.3,2,5,4.1s-0.4,2.2-1.4,1.6c-1.1-0.6-2.5-2.6-2.6-3.2c-0.1-0.6-2.1-2.4-2.1-2.4H62z"/>
	<path class="st19" d="M60.9,67.5c0,0-1,3.1-0.6,4.1c0.4,1,0.4,2.7,1.8,1.9C63.4,72.7,64.8,70.9,60.9,67.5z"/>
	<path class="st18" d="M65.6,73.2c2.4,1.3,4.8,1.6,5.6,3.2c0.8,1.5,2,2.9-1.2,2.3c-3.2-0.6-4.2-1.8-4.9-2.7
		c-0.7-0.8-1.6-2.3-1.6-2.3L65.6,73.2z"/>
	<path class="st20" d="M63.5,78.8c2.5,0.9,5.4,3.2,5.9,4.8c0.5,1.5,1.6,2.6-0.3,2.9c-1.9,0.3-4.6-1.8-5.1-2.8c-0.5-1-2.4-3-2.1-3.6
		C62.3,79.4,63.5,78.8,63.5,78.8z"/>
	<path class="st18" d="M60.9,79.5c0,0,2.9,3.4,3.2,5.1c0.3,1.8,0.4,2.7-0.6,3.4c-1,0.7-2.4,1.4-3.3-0.9s-0.9-4.6-0.6-5.3
		C59.9,81.2,60.9,79.5,60.9,79.5z"/>
	<path class="st18" d="M56.9,79.5c0,2.7-1.4,7-3.1,7.7s-3.7,0-3-1.9c0.7-1.9,1.9-3.9,3-4.7C54.8,79.8,56.9,79.5,56.9,79.5z"/>
	<path class="st18" d="M55.7,78.1c0,0-3-0.4-5,0.7c-2,1.1-3.9,0.7-3.3,2.2c0.6,1.5,1.8,2.1,3.4,1.6c1.6-0.5,6.1-3.1,6.1-3.1
		L55.7,78.1z"/>
	<path class="st21" d="M47.3,76.5c0,0,3.8,3.1,4.2,4.4s0.6,4.4-0.7,4.4s-4.2-2.7-4.3-3.5c-0.1-0.8,0.2-3.7,0-4.4
		C46.3,76.7,47.3,76.5,47.3,76.5z"/>
	<path class="st20" d="M44.8,76.5c-1,1.4-3.4,4.1-2.8,6.3c0.6,2.2,2.7,3.7,3.6,1.4s0.9-6.8,0.9-6.8L44.8,76.5z"/>
	<path class="st22" d="M41.3,73.7c0,0-5.9,0.5-6.6,2c-0.7,1.5-0.8,6.4,1.9,4.4c2.8-2,3.7-3.4,3.9-3.8S41.3,73.7,41.3,73.7z"/>
	<path class="st18" d="M42.1,75.4c0,0,0,0.9,0,4.1s-0.2,5-2.3,4.6s-2.3-1.6-1.1-3.8c1.1-2.2,2.8-4.2,2.6-4.4S42.1,75.4,42.1,75.4z"
		/>
	<path class="st23" d="M40.6,69.9c-1.4-1.9-4.7-4-5.4-4.2c-0.7-0.2-1.7-1.1-1.8,0.5c-0.1,1.6-1.2,1.7,0.9,3.1
		c2.1,1.4,2.3,1.5,3.7,1.8c1.3,0.3,1.5-0.2,2,0C40.5,71.3,40.6,69.9,40.6,69.9z"/>
	<path class="st18" d="M40,71.1c-2,0-5.3-0.8-7-0.5c-1.7,0.3-2.9,0.6-2,2s2.7,1.4,4.3,1.3c1.6-0.1,4-1.6,4.6-1.7S40,71.1,40,71.1z"
		/>
	<path class="st19" d="M32.5,65.3c0.9,0.9,0.3,3.3,0.6,5.3c0.3,2,0.9,3.8-0.9,3.9c-1.8,0.1-2.7-0.7-2.5-2.9s0.6-4.8,1.1-5.4
		C31.2,65.6,32.5,65.3,32.5,65.3z"/>
	<path class="st18" d="M24.5,68.7c-0.2,1.6,0.1,3.6,2.8,1.8s3.5-4.3,3.5-4.3S24.7,67.1,24.5,68.7z"/>
	<path class="st20" d="M28.7,60.9C28.1,60.5,23,60,22,60.4s-3.2,0.8-2.3,2.8c0.9,2,1.3,3,3.3,2.1s4.2-1.5,4.6-2.1
		C28,62.6,28.7,60.9,28.7,60.9z"/>
	<path class="st22" d="M28.7,57.3c-2.4-1.5-4.9-3.8-6.6-3.4s-3,0.5-2.6,1.8s1.1,2.3,2.4,3.1c1.2,0.8,3.7,0.1,5.3,0.8s2,0.1,2.5,0
		S28.7,57.3,28.7,57.3z"/>
	<path class="st20" d="M29.7,53.4c-0.6-1-0.6-3.5-3.2-3.6c-2.6-0.1-3.2,1.3-2.9,2.4c0.3,1,1.9,2.7,3,3.2c1.1,0.5,2.4,1.5,3.1,1.8
		c0.6,0.2,0.9-0.4,1.1-0.7C30.8,56.2,29.7,53.4,29.7,53.4z"/>
	<path class="st21" d="M30.7,48.2c-0.7,0.1-1.5-0.3-1.1,1.5c0.4,1.9,1.1,6.6,1.1,6.6s0.6,0.3,1.4-0.7c0.8-0.9,1.1-3.9,0.4-5
		C32,49.6,30.7,48.2,30.7,48.2z"/>
	<path class="st18" d="M36.8,44.3c-1.5-2.8-2.2-4.6-3.9-4.4c-1.7,0.3-2.9,0.9-1.7,2.2s2,2.8,3.1,3.3c1.1,0.5,2.5,0.7,2.4,1
		S36.8,44.3,36.8,44.3z"/>
	<path class="st18" d="M35.5,46.5c-2.3-2-3.1-3-4.8-2.2s-2.1,1.8-1.1,2.2c1.1,0.4,1.7,1.8,3.4,1.7c1.7-0.1,1.8,0.5,2.5,0
		C36.2,47.7,36.7,47.6,35.5,46.5z"/>
	<path class="st22" d="M36.8,35.2c-3.3,0.3-4.9-0.1-4.9,1.1s1.4,2.2,3.3,2.4s4,0,5.4-0.4s2.2-0.9,2.1-1.2
		C42.6,36.8,36.8,35.2,36.8,35.2z"/>
	<path class="st18" d="M42,59.5c-1.6-0.7-3.1-1.3-3.3-0.9c-0.2,0.4-0.6,1.3,0,1.6c0.6,0.4,0.7,0.4,2,0.3S42,59.5,42,59.5z"/>
	<path class="st24" d="M42.7,61.6c-0.1,0.2-3.5,1.2-4,0.7c-0.5-0.5,0-2.1,0-2.1s2.3-1.7,3.3-0.8C43,60.4,42.7,61.6,42.7,61.6z"/>
	<path class="st19" d="M55.5,42.8c0,0-1.2-3.8,0.7-3.9c2-0.1,2.3-0.3,1.5,1.1c-0.7,1.4,0,2.8-1.1,2.8S55.5,42.8,55.5,42.8z"/>
	<path class="st25" d="M52.3,39.5c1.1,0.8,1.8,1.7,1,2.2c-0.8,0.5-3.9,0.5-3.9,0c0-0.5,0.1-2.2,1.5-2.2
		C52.3,39.5,52.3,39.5,52.3,39.5z"/>
	<path class="st26" d="M35.2,58.9c0.4-0.9,1.5,1.1,0.7,1.4C35.1,60.6,34.4,60.5,35.2,58.9z"/>
	<path class="st26" d="M31.6,59.3c0.4-0.9,1.5,1.1,0.7,1.4C31.6,61,30.8,61,31.6,59.3z"/>
	<path class="st18" d="M54.8,64.9c-0.1-0.9,1.5,1,0.7,1.4C54.9,66.7,55,66.8,54.8,64.9z"/>
	<path class="st27" d="M47.3,68.6c0.4-0.9,1.5,1.1,0.7,1.4C47.2,70.3,46.5,70.3,47.3,68.6z"/>
	<path class="st20" d="M38.4,52.1c-0.1,0.3-0.4,0-0.9,0.2c-0.5,0.3-1-0.4-0.7,0.5c0.3,0.9,0.2,0.9,0.8,0.8c0.6-0.1,0.5-0.3,1.1-0.3
		c0.6,0,0.9-0.1,0.6,0.4s-1.6,0.9-0.8,1.3s1,1,1.3,0.5c0.3-0.6-0.2-1.1,0.3-0.9c0.5,0.2,1,0.4,1,0c0-0.4-0.2-0.7,0-1.2
		c0.2-0.5-0.5-0.2,0.4-0.1c0.8,0.1,1,0.5,0.7-0.5c-0.3-1-1.3-1.3-0.7-1.5s0-0.4,0.9,0c0.9,0.4,0.8,0.6,1.1,1.3s0.4,1.3,1,1
		c0.6-0.3,1.1,0.2,0.8-1.1c-0.3-1.3,0.8-0.8-0.3-1.3c-1.1-0.5,0-0.7-0.5-1.1c-0.6-0.4-0.4-0.7,0-1c0.4-0.2,1.1,0.4,1-0.3
		s-0.5-0.8-0.3-1.1c0.2-0.3,0.7-0.2,0.8-0.5c0.2-0.2-0.1-0.6,0-0.9s1.4-0.6,0.1-1c-1.4-0.4-1.2-0.4-1.6,0c-0.4,0.4,0,1.3-1,0.7
		c-1-0.5-0.9,0.4-1-0.5c-0.1-0.9-0.1-1.2-0.6-0.9s-0.7,0.1-1-0.5s-1.2-0.9-1.6-1.1s-0.9,0.3-0.7,0.8c0.2,0.5,1.1,0.2,0.4,1
		s-1.5-0.2-1.4,0.9c0.1,1.1,0.7,1,0,1.6c-0.7,0.6-2.3-0.2-1.8,0.7s0.6,1.3,1,1.5c0.4,0.3,1-0.2,0.4,0.3c-0.6,0.5-1.2,0.4-0.7,0.7
		c0.5,0.3,0.7,0.2,1.1,0.4S38.4,52.1,38.4,52.1z"/>
	<path class="st18" d="M36.2,50.8c0,0,0.7,2.2,0,3.2c-0.7,1-2,2.2-2.8,1.6s-3.1-3.5,0-4.7C36.5,49.8,36.2,50.8,36.2,50.8z"/>
	<path class="st18" d="M36.2,55.7c-0.1,1-0.7,1.9,0.3,1.1c1-0.7,0.4-1.5,1.4-1.1c1.1,0.3,0.9,0.2,0.9,0.8c-0.1,0.6-0.3,0.1,0.7,0.6
		c1,0.5,2.1,0.2,0.6,0.9c-1.5,0.7-1.5,0.7-1.5,0.7s-1.2,0.5-1.4,1.6c-0.2,1.1-0.7,2.2,0.1,2.3c0.8,0.1,2,0,2,0.7
		c0,0.6-0.7,1.2-1,1.1c-0.3-0.1,0.1-0.3,0,0.4c-0.1,0.8-0.2,1.3-0.9,0.6s-0.6-1.3-1.3-1.5c-0.8-0.2-0.5-0.1-0.7,0.4
		c-0.1,0.5-0.9,1.1-1.2,0.5C34.1,64.1,33,63.5,33,64c0,0.5,0.1,0.6-0.4,0.7c-0.5,0.1-1.8-0.2-1.9-0.6s0.2-0.7-0.5-1
		s-1.2-0.6-0.7-1.3s0.9-2,0.6-2.4c-0.3-0.4-1.2-0.9-0.8-1.4c0.4-0.5,0.6-0.2,1-0.6c0.4-0.4,1-0.8,1.2-1.1c0.2-0.3,0.6-0.2,1.2,0.3
		c0.5,0.6,0.3,0.5,0.7,0.3c0.5-0.2,0.3,0.1,0.8-0.7c0.5-0.8,0.4-1.1,0.9-1.1S36.2,55.7,36.2,55.7z"/>
	<path class="st18" d="M51.9,37.1c0.9,0.3,2-0.1,2,0.7c0,0.9-0.4,0.6-0.4,1c-0.1,0.4-0.2,0.6-1,0.4c-0.8-0.2-1.4-1-1.9-0.4
		s-0.6,0.5-1,1.1c-0.4,0.6-1.2-1.3-0.8,0.9c0.4,2.1,1.5,1.9,0.5,2.4c-1,0.6-1.8,0.5-2.1-0.5c-0.3-1,0.3-1.7-0.6-1.3
		c-0.9,0.4-0.7,0.3-0.9,1.3c-0.2,1,0.1,2.2-0.8,1.5c-0.9-0.7-1-1.4-1.3-1.5c-0.2-0.1-1.1,0.2-0.9-0.6c0.3-0.8-0.2-0.8,0.8-1.3
		c1.1-0.6,2.5-1.2,1.1-1.2s-1.8,1.3-2.3,0.4s0.3-2.1,0.3-2.1s0.7,0,0-0.8c-0.7-0.8-1.3-0.6-0.6-1.1s1.1-0.2,1.1-1.2
		s-0.8-1.8,0.9-1.2s1.5,1.3,2.1,0.3c0.6-1,0.5-1.1,1-1.2c0.6-0.2,1-0.3,1.5,0c0.5,0.3,0.7-0.3,1.4,0.9c0.7,1.2-0.1,0.7,0.7,1.2
		c0.8,0.5,0.9,0.2,1.1,0.7S51.9,37.1,51.9,37.1z"/>
	<path class="st18" d="M62,37.1c-0.6-0.3-1.7-0.9-1.8-0.3c-0.1,0.6,0.2,0.6,0.3,1s-0.1,0.2-0.3,0.6s0.1,0.3,0.6,0.6
		c0.5,0.3,0.8,0.2,0.2,0.9c-0.5,0.7-0.5,0.3,0.9,0.8c1.5,0.6,1.4,1,0.4,0.9c-1-0.1-1.1-0.3-1.4,0.4c-0.2,0.7,0.5,0.6,0.6,1.1
		s-0.9,1.3,0,1.3c0.9,0,0.7,0.6,1.5-0.5c0.8-1.1,0.4-2.6,1.4-2.2c1,0.5,1.7,0,1.2,1.3c-0.5,1.3-1,0.7-0.9,2s0,2.8,1.1,2.2
		c1-0.6,1.9-0.1,1.6-1.6c-0.3-1.5-1-2.6-0.7-3c0.3-0.4-0.1-0.3,1.2,0.4s2,1.3,1.7-0.4s0.5-2.2,0.7-2.6c0.2-0.4-0.2,0.1-0.5-1.1
		c-0.4-1.3-0.3,0.1-0.4-1.3c-0.1-1.4,0.8-2.9-0.8-2.5c-1.6,0.5-0.3,1-2.3-0.1c-2-1.1-1.4-0.6-1.6,0s0.3,1.2-0.8,0.7
		c-1.1-0.5-2.4-1.4-2-0.7C62.4,36,62,37.1,62,37.1z"/>
	<path class="st18" d="M57.5,43.8c0.8,0.7,1.4,0.6,0.7,1s-0.9,0.2-0.7,0.8c0.2,0.6-0.7,0.8,0.7,0.7c1.4-0.1,0.4-0.4,2.1-0.3
		c1.7,0.1,2.7-0.2,2.1,0.9c-0.6,1.1-0.8,0.4-0.3,1.3c0.5,1,1.1,0.1,0.5,1.5s-0.2,3.2-1.2,1.7c-1-1.5-0.6-2.5-1.8-2s-0.9,0.8-1.4,1
		s-0.7-0.1-1.2-0.6c-0.5-0.5-1.2-0.8-1.4-0.4c-0.2,0.4,0.5,0.3,0,1.2s1,0.8-0.8,1.4c-1.8,0.6-2.5,1.3-2-0.3c0.5-1.6,1.1-2.1,0.5-2.3
		s-0.4,0.2-1.6-0.4c-1.2-0.6-1.5-0.6-1.1-1.1c0.3-0.5,0.7-0.3,0.4-0.9c-0.4-0.6-0.9-0.1-0.8-1c0.1-0.9-0.2-1.4,0.6-1.5
		c0.7-0.1,1.2-0.8,2-0.2s0.3,1.6,0.9,0.4s0.8-1,1.1-0.9c0.2,0.1,1.3,0.8,1.4,0.6c0.1-0.3,0.1-0.5,0.6-0.6
		C56.9,43.6,57.5,43.8,57.5,43.8z"/>
	<path class="st28" d="M62.8,52.1c-0.4,0.7-1.3,0.4-0.2,1s1.6,0.2,1.5,1.2s0.1,1.3-0.3,1.6c-0.4,0.3-2.3,1.2-2.4,1.3s-0.6,0.7,0,1.3
		s1.9,1.2,2.1,1c0.2-0.1,1.2-0.5,0.6-1.2c-0.5-0.7-0.5-0.9,0.2-0.7s1.2,0.6,1.4-0.4c0.2-1-0.9-1.6-0.3-2.3s1-0.7,1.5-0.3
		s1.1,0.2,1.4,0.4c0.3,0.2,1.2,0.6,1.5,0.6c0.3,0-0.2,0.2,0.9,0c1.1-0.2,2-0.2,1.2-1.1c-0.9-0.9,0.1-0.9-0.6-1.5
		c-0.7-0.6-0.1-0.6-1.3-0.8c-1.2-0.1-1.6-0.6-1.6-1.2c0.1-0.5,0-0.3-0.6-1.4c-0.7-1.1-1.1,0-1.2-1.3s0.3-1-0.1-1.6
		c-0.5-0.5,0-0.7-0.8-0.6s0.1-0.1-1.6,0.3c-1.7,0.4-2.1,0-2.1,0.9c0,0.8,1.1,2,0.5,2.4c-0.6,0.4-0.5-0.1-0.6,0.4
		c-0.1,0.5-1.7,1.2-0.6,1.3C62.5,51.5,62.8,52.1,62.8,52.1z"/>
	<path class="st18" d="M48.7,48.2c0.9,0.6,0.6,0.2,0.5,1.2c-0.2,1.1,1.5,0.8,1.7,0.4c0.2-0.5,1.3-0.9,1.2,0
		c-0.1,0.9-1.4,0.7-0.8,1.5s-0.8,0.9,0.6,0.8c1.4-0.1,1.9-0.5,1.5,0.3s-1,1.4-0.3,1.7s0.7-1.2,0.7,0.6c0,1.8-0.7,1.6-1.4,1.2
		s-0.8-0.6-1.2,0c-0.4,0.6-1.4,0.4-1.9,0.3c-0.5-0.1-0.1,0-1.1,0.4s-1.9,0-1.8-0.6c0.1-0.7,1.4-1.3,0.5-1.8
		c-0.9-0.5-2.2-0.9-1.1-1.3c1.1-0.4,1.5,0,2-0.6c0.5-0.6,0.4-0.5,0-1.3c-0.4-0.8-1.2-0.3-0.9-1.4c0.3-1.1-0.4-1.1,0.7-1.2
		S48.7,48.2,48.7,48.2z"/>
	<path class="st18" d="M58.2,51c0.1,0,0.6,0.3,1.1,0.5c0.5,0.2,0.5,0,1.3,0s1,0.2,1.5,0.9c0.5,0.7,1.5,0.7-0.6,0.7
		c-2,0-3.4-0.2-2.6,0.4c0.8,0.6,1.3,0.1,2.1,0.6s1.9,0.2,0.9,1.3c-1.1,1.1-2.3,0.1-1.5,1.3c0.8,1.1,2.4,1.5,1.1,1.9s-1.5,0-2.3,0.2
		c-0.7,0.2-1.4-1-1.4,0.4s0.3,1.5,0.9,1.4c0.6-0.1,1.5,0.1,1,0.7c-0.5,0.6,0.5,0.8-0.5,1.3c-1,0.5-1.1,0.6-1.8,0
		c-0.7-0.6,0.1-0.7-1-1.2c-1.1-0.5-1,0.2-1.2-1.3s-0.2-0.7-0.7-2c-0.5-1.3-0.1,0.3,0-1.6c0.1-1.9-1.2-2.4,0.4-1.8
		c1.6,0.6,2.7,1.6,2,0.4c-0.6-1.1-0.7-1.4-0.3-1.6c0.4-0.2,0-1,0-1.1s0.6,0.4-0.3-0.7s-2.3-0.2-0.8-1.1s1.6-0.8,2.1-0.2
		S58.2,51,58.2,51z"/>
	<path class="st19" d="M69.8,55.7c-0.9-0.3-0.9-1.6-1.5-0.6c-0.6,1,0.1,0.6,0,1.9c-0.1,1.3-0.2,0.8-1,0.7c-0.7-0.1-1.4-0.8-0.8,0.2
		s1.4,1.3,1.8,1.4s0.6,0.2,0.5,0.8c-0.1,0.5,0.4,1-0.8,0.6c-1.1-0.4-1.2-1.1-1.8-0.6c-0.6,0.5-1.8,0.2-0.6,0.7
		c1.2,0.6,2.2,0.1,2.6,0.7c0.5,0.6,1,1.2-0.2,1c-1.2-0.2-0.9-0.7-2.3-0.5c-1.4,0.2-2.6-0.3-1.7,0.6c0.9,0.8,1.3,0,1.2,1
		c-0.1,1-0.6,1.6,0,1.8s0.6-0.1,1.2-0.2c0.6-0.1,1.2-0.5,1.6-0.4c0.3,0.2,0.3,1.1-0.2,1.3s-1,0.5-0.5,1.1c0.5,0.6-0.3,1.2,0.8,0.7
		c1.1-0.5,0.7-1.3,1.1-1.5c0.4-0.2,1.1,0.2,1.9,0.5c0.8,0.3,1.2,0,1.7-0.3c0.6-0.2,0.8-1,0.6-1.4s0.1-0.7,0.9-0.9s1.1-0.3,1.2-0.9
		c0.1-0.6-1.2-1.4-0.7-1.7s1.1-2.3,1.1-2.3s0.6,0-0.3-0.6s-0.1-1.1-0.8-1.4c-0.6-0.3-1-0.7-1.6-0.6c-0.6,0.1-1.2-1.5-1.6-1.1
		s-0.4-0.4,0,1.1c0.4,1.5,1,2.8-0.4,2.1c-1.4-0.7-1-1.2-1.2-2.1S69.8,55.7,69.8,55.7z"/>
	<path class="st28" d="M53.8,59.1c0.4,1.1,1.5,2.1,0,1.8s-0.4-1-1.9-0.9c-1.5,0.1-2.2-1.1-1.8,0.6c0.4,1.6,0.3,1.7,0.3,1.9
		c0.1,0.3,0.6,0.7,0,0.9c-0.6,0.2-0.2-0.3-0.9,0.8c-0.7,1-0.3,1.6-1.1,0.8s-0.9-1.8-1.4-1.4c-0.5,0.3-0.2,0.8-0.9,0.6
		s0.5-0.4-1.4-0.5c-1.8-0.1-0.9-0.8-0.9-0.8s0.6-0.5,0.4-1.2s-1-0.7-0.7-1.3s1.3-0.2,0.7-1.2s-0.8-1-1.1-1.7c-0.2-0.7-2.2-1-1.4-1.7
		s0.8-1.1,1.8-0.5c1,0.6,1,1.2,1.5,1.1c0.6-0.1,1.1-1.7,1.4-0.6c0.3,1.1,2.1,1.8,2.7,1.3s2.1-0.9,2.1-0.6c0,0.3,0.6,0,0.3,0.6
		c-0.3,0.6-0.7,0.7,0,0.9c0.7,0.1,0.2,0.4,0.8,0.6S53.8,59.1,53.8,59.1z"/>
	<path class="st18" d="M62.3,60.6c0.7,0.4,1.6,0.5,1.2,1.2s-1.3,0.7-1.2,1.2c0.1,0.5,0,0.6,0.6,0.9s1-0.1,1.2,0.5
		c0.2,0.6,0.8,1,0,1.3c-0.8,0.3-1.3,0.5-1.8,0.3c-0.5-0.2-0.8-0.8-0.9-0.2c-0.1,0.5,1,0.5,0.5,0.9s-0.7,1.1-0.9,1.5s0,1.3-0.7,0.8
		c-0.7-0.5-1-0.8-1.3-0.5c-0.3,0.3,0-0.5-0.7,0s0.1,1-1.3,1c-1.4,0-2.3,0.3-1.6-0.5c0.7-0.9,1.4-0.8,0.5-1.3
		c-0.9-0.5-0.6-0.7-1.7-0.7c-1.1-0.1-1.7-0.1-2-0.3c-0.2-0.2-1.8,0.3-1.4-0.7c0.4-1-0.9-1.3,0-1.8c0.9-0.5,1.5-0.5,2.3-0.2
		c0.8,0.2,0.3,0.7,1.5,0.4c1.2-0.3,1.2-0.7,0.7-1c-0.4-0.4-1.7-0.7-0.7-0.9c1-0.2,0.7-0.2,2.1,0.3s0.3,0.7,1.7,0.4
		c1.4-0.2,1.3-0.2,1.8-0.7c0.5-0.5-0.1-0.1,1-0.9S62.3,60.6,62.3,60.6z"/>
	<path class="st18" d="M45.1,65c0.8,0.2,1.2,0,1,1S45,67.6,45.4,68s0.2-0.1,1,0.3s0.6,0.5,0.8-0.3c0.2-0.8,0.2-1.5,0.8-1.2
		c0.6,0.3,1.7,0.5,1.6,1.2s-0.3,0.5-0.5,1.1s0.1,1.2,0.5,0.9s0.2-0.7,1-0.6c0.8,0,1.1-0.3,1.4,0.4c0.3,0.6-0.5,1.1-0.2,1.2
		s1.3,0,0.7,0.7c-0.6,0.7-0.2,0.6-1.2,0.7c-1,0.1-1.9-0.5-2.1-0.2c-0.3,0.3-1.6-0.3-0.9,0.6c0.8,0.8-0.4,0.5,1.4,1.1
		c1.8,0.6,2.6,0.1,3.3,1.6c0.7,1.5,2.1,2.1,0.5,2.2s-1.5-0.2-2.1-0.6s-0.7-0.5-0.9,0.1c-0.3,0.6-0.4,1.6-1.2,0.5
		c-0.8-1.1-1.2-1.8-1.3-2.2c-0.1-0.3-1.6-1.5-1.3-0.9c0.3,0.6,0.7,1,0.4,1.5s0,0.5-1,0.5s-1.4,0.6-1.9,0s-1.1-1.6-2-1.1
		s-1,0.6-1.1,0s-0.8-1-0.8-1.6c0-0.6-0.4,0.2-0.5-0.7c-0.1-0.8-0.3-1,0-1.5c0.3-0.5,1.5,0.1,1-1.1c-0.6-1.2-1.3-1.2-0.6-2.1
		s0.6-1.1,1.3-0.4s1.2,1.2,1.4,0.8s1.4,0.4,0.9-0.8s-0.8-0.3-0.6-1.7c0.2-1.5-0.5-2,0.2-1.5c0.7,0.5,0.2,1.5,1.1,0.8
		C45.1,65,45.1,65,45.1,65z"/>
	<path class="st22" d="M57.1,69.2c0.1,0.6,1.8,2.6,1.3,2.6c-0.5,0-2.7-2-2.3-1.2c0.3,0.8-0.2,1.2,0.6,1.2c0.7,0.1,0.7-1.1,0.7,0.1
		c0,1.2,0.4,1.5-0.5,1.2c-0.9-0.3-1,0.2-1.6-1c-0.6-1.2-1.8-1.8-1.5-0.9c0.3,0.9,0.5,1.2,0,1.2c-0.5,0-1.7-1.4-0.5,0s1.3,0.8,2,1.3
		c0.7,0.6,2.6,0.1,0.9,0.9c-1.7,0.9-2.6,0-2.1,1.1c0.5,1.1,0.5,0.9,1.2,0.9c0.7,0.1,0.3,0,0.4,0.7c0.1,0.7,0.2,1.4,0.7,1.4
		s1-0.7,1.3,0.3c0.2,1,0.3,1.6,1.5,1.5c1.1,0,0.6-0.6,1-1c0.4-0.4,0.6-0.1,1.2-0.2c0.6-0.1,1-0.1,1.3-0.9c0.3-0.8,0.9-1.1,1.1-1.2
		c0.1-0.1,0.7-0.2,0.5-0.8s0.2,0.1,0.7-0.8c0.6-0.9,0.5-1.3,0.2-2s-1-0.9-1-1.7c0-0.8,0.1-1.6-0.9-1.2s-0.8,0.8-1.6,0.9
		c-0.8,0.1-1-0.9-1.3-1.5s0.1,0-0.8-1c-0.9-1-0.2-1.7-0.8-1.7c-0.7,0-0.5,0.8-0.5,1.3s0,0.8-0.6,0.6C57.1,69.2,57.1,69.2,57.1,69.2z
		"/>
	<path class="st27" d="M44.9,69.9c0.2,0.9,0.5,1.5-0.3,1s-1.6-0.5-1.2-1S44.9,69.9,44.9,69.9z"/>
	<path class="st27" d="M42.7,72.2c0.9,0.2,1.6,1.1,0.8,1c-0.8-0.2-1.1-0.2-1.2-0.5C42.3,72.4,42.7,72.2,42.7,72.2z"/>
	<path class="st19" d="M62,75.2c0.3,0.1,1.4,0,1.4,0s0.2,0.1,0,0.6c-0.1,0.5,0.1,0.3-0.7,0.7s1,0.9-0.8,0c-1.8-0.9-1.9-0.1-1.8-0.5
		c0.1-0.4-0.3-1.8,0.3-1.5S62,75.2,62,75.2z"/>
	<path class="st27" d="M73.4,60.4c0.4,0.2,1.2,0.1,0.5,0.5c-0.7,0.4-0.8,0.1-1,0C72.7,60.8,73.4,60.4,73.4,60.4z"/>
	<path class="st18" d="M69.1,62.5c0,0,0,2.1,0.3,2.1c0.3,0,1.3,0.5,0.7,0.7c-0.6,0.3-0.6,0.3-1.1,0s-0.7-0.9-0.7-1.3
		C68.5,63.6,69.1,62.5,69.1,62.5z"/>
	<path class="st27" d="M60.1,64.3c0.6-0.1,1.9-1,1.1,0c-0.8,1-0.5,1.1-1.1,1s-0.7-0.6-0.7-0.6L60.1,64.3z"/>
	<path class="st27" d="M48.5,58.5c0.6,0,2,0.2,1.1,0.6s-1.1,0.9-1.1,0.1C48.5,58.5,48.5,58.5,48.5,58.5z"/>
	<path class="st24" d="M42,49c0.9-0.2,0.9-0.8,1.3-0.5c0.4,0.3,0.5,0.3,0,1c-0.5,0.6,0.3,0.9-0.5,0.6c-0.8-0.2-1,0.1-1.4-0.1
		s-0.6-1.7-0.5-1.5S42,49,42,49z"/>
	<path class="st29" d="M59.4,54.6c0.2,0.4,0.7-0.1,0.3,0.7c-0.4,0.8-0.3,1-0.8,1.2c-0.5,0.1-1.8-0.8-1.4-0.8c0.4,0,0.5,0,0.9-0.1
		C58.7,55.3,59.4,54.6,59.4,54.6z"/>
	<path class="st27" d="M49.2,52.9c0.9,0.2,1.4,0.7,0.9,0.8c-0.5,0.1-0.9,0.4-0.9-0.2C49.2,52.9,49.2,52.9,49.2,52.9z"/>
	<path class="st27" d="M56.4,46.2c0.5,0.4,1.3,1.2,0.3,1c-1-0.2-1.7-0.2-1.4-0.5C55.6,46.4,56.4,46.2,56.4,46.2z"/>
	<path class="st30" d="M53.4,45.8c0,0.7-0.1,0.7-0.5,0.5c-0.4-0.2-0.3-0.3-0.2-0.5C52.8,45.6,53.4,45.8,53.4,45.8z"/>
	<path class="st31" d="M58.2,47.8c1.1,0.3,1.8,0.6,1.2,0.7s0,0.7-0.6,0C58.2,47.8,58.2,47.8,58.2,47.8z"/>
	<path class="st18" d="M67.7,52.4c0.4,0.3,1.4,0.5,0.8,0.8c-0.6,0.3,0.5,1.2-0.6,0.3c-1.1-0.8-1.1-0.8-1.1-0.8L67.7,52.4z"/>
	<path class="st27" d="M67.8,38.5c0.4,0.4,1,0.1,1,0.7c0,0.6,1.2,1.9-0.3,0.7c-1.5-1.2-1.4-1.2-1.7-1.5c-0.4-0.2-0.3-0.5-0.3-0.7
		c0-0.2,0.2-0.2,0.6,0C67.5,38,67.8,38.5,67.8,38.5z"/>
	<path class="st27" d="M63,38.5c-0.1,0.2-0.6-0.2-0.3,0.3c0.3,0.5,0.9,0.4,0.9,0.2s0-0.5,0-0.5H63z"/>
	<path class="st27" d="M64.5,37.1c0.2-0.1,1.4,0.5,0.6,0.7c-0.8,0.2-0.4,0.7-0.8,0.2C64,37.5,64.5,37.1,64.5,37.1z"/>
	<path class="st26" d="M48.7,34.6c0.4-0.1,0.2-1,1,0.2s1.3,1,0.8,1.2c-0.6,0.2-1.7-0.3-1.8,0c-0.1,0.3-0.2,1.1-0.4,0.5
		c-0.2-0.5-0.4-0.2,0-1.1C48.7,34.6,48.7,34.6,48.7,34.6z"/>
	<path class="st26" d="M45.4,35.5c0.4,1,0.8,1.7,0,1.1c-0.8-0.7-0.5-0.5-0.8-1.1s0-0.8,0-0.8L45.4,35.5z"/>
	<path class="st26" d="M46.8,39.6c-0.3,0.5-0.5,1,0,0.8c0.5-0.1,1.1,0,1-0.4C47.7,39.7,46.8,39.6,46.8,39.6z"/>
</g>
</svg>
