<svg id="Layer_1" data-name="Layer 1" xmlns="http://www.w3.org/2000/svg" viewBox="0 0 108 108">
  <defs>
    <style>
      .cls-1 {
        fill: #978ecb;
      }

      .cls-2 {
        fill: #8379c1;
      }

      .cls-3 {
        fill: #8ac9fe;
      }

      .cls-4 {
        fill: #60b7ff;
      }

      .cls-5 {
        fill: #eaf6ff;
      }

      .cls-6 {
        fill: #c8effe;
      }

      .cls-7 {
        fill: #fea95c;
      }

      .cls-8 {
        fill: #fe9738;
      }

      .cls-9 {
        fill: #ffd15b;
      }

      .cls-10 {
        fill: #ffc344;
      }
    </style>
  </defs>
  <g>
    <path class="cls-1" d="M65.69,57.92h-23L33.47,43.83a22,22,0,0,1-3.61-12A14.07,14.07,0,0,1,46.59,18l5,.95a13.9,13.9,0,0,0,5.3,0l5-.95A14.07,14.07,0,0,1,78.55,31.78a22,22,0,0,1-3.6,12Z"/>
    <path class="cls-2" d="M62.84,17.8a14.08,14.08,0,0,1,12.37,14,22,22,0,0,1-3.6,12L62.35,57.92h3.34L75,43.83a22,22,0,0,0,3.6-12,14.08,14.08,0,0,0-15.71-14Z"/>
    <path class="cls-3" d="M74,31.78A17.44,17.44,0,0,1,73.22,37v0a17.4,17.4,0,0,1-2,4.29l-7.92,12H45.17l-7.92-12a17.37,17.37,0,0,1-2.86-9.56,9.54,9.54,0,0,1,9.52-9.55,10.3,10.3,0,0,1,1.83.17l5,1a18.8,18.8,0,0,0,3.51.33,18.69,18.69,0,0,0,3.5-.33l5-1,.15,0A9.52,9.52,0,0,1,74,31.78Z"/>
    <path class="cls-4" d="M73.22,37v0h0a17.4,17.4,0,0,1-2,4.29l-7.92,12h-13L50.17,53l7.65-10.35a16.78,16.78,0,0,1,7.67-5.75,10.63,10.63,0,0,1,2.93-.64,2.3,2.3,0,0,0,2.08-2,18.15,18.15,0,0,0,.19-2.56,9.55,9.55,0,0,0-7.86-9.4h0A9.52,9.52,0,0,1,74,31.78,17.44,17.44,0,0,1,73.22,37Z"/>
    <g>
      <path class="cls-5" d="M48.93,48.8a1.13,1.13,0,0,1-1.14-1.13V33.14a1.14,1.14,0,0,1,2.27,0V47.67A1.13,1.13,0,0,1,48.93,48.8Z"/>
      <path class="cls-5" d="M60.21,33.14V47.67a1.14,1.14,0,0,1-2.27,0V33.14a1.14,1.14,0,0,1,2.27,0Z"/>
      <path class="cls-6" d="M60.21,40.09v7.58a1.14,1.14,0,0,1-2.27,0V42.53A17,17,0,0,1,60.21,40.09Z"/>
    </g>
    <path class="cls-3" d="M81.79,71.8a16.51,16.51,0,0,1-4.74,1,16.81,16.81,0,0,1-4.84-.4L59.68,69.49,53.62,53l7.65-10.35A16.81,16.81,0,0,1,69,36.94a10.74,10.74,0,0,1,13.78,6.34,11.63,11.63,0,0,1,.53,2l.63,3.81a10.69,10.69,0,0,0,1.39,3.79l2,3.31A10.73,10.73,0,0,1,81.79,71.8Z"/>
    <path class="cls-4" d="M87.27,56.18l-2-3.31a10.69,10.69,0,0,1-1.39-3.79l-.63-3.81a11.63,11.63,0,0,0-.53-2,10.74,10.74,0,0,0-11.64-6.89c5.68.82,9.17,6.27,9.46,12.69A10.52,10.52,0,0,0,82,52.87c5.15,6.51,4.94,15.5-3.5,18.93a11.13,11.13,0,0,1-4.13,1,16.79,16.79,0,0,0,7.47-1A10.73,10.73,0,0,0,87.27,56.18Z"/>
    <path class="cls-5" d="M73.28,67.8l-.34-.08L64.86,45.79l.21-.29c3-4.54,10.78-6.85,13.23-.59.69,2.25.77,5.59,1.67,7.76.73,2.24,2.84,4.85,3.76,7,2.2,6.36-5.2,9.64-10.45,8.14Z"/>
    <path class="cls-6" d="M83.73,59.66c-.92-2.14-3-4.75-3.76-7-.9-2.17-1-5.51-1.67-7.76C77,41.49,74,40.63,71.18,41.29A5.59,5.59,0,0,1,75,44.91c.69,2.25.78,5.59,1.67,7.76.73,2.24,2.84,4.85,3.77,7,1.62,4.7-2,7.71-6.11,8.36C79.42,68.88,85.79,65.62,83.73,59.66Z"/>
    <path class="cls-1" d="M61.74,67.15l-2.06,2.34L53.62,53l3.09.44A3.75,3.75,0,0,0,60.27,52l4.59-6.21a5.92,5.92,0,0,1,2.57,3.13c.68,2.24.77,5.58,1.67,7.76.73,2.24,2.83,4.84,3.76,7a6,6,0,0,1,.08,4L65.42,66A3.78,3.78,0,0,0,61.74,67.15Z"/>
    <path class="cls-3" d="M26.21,71.8a16.51,16.51,0,0,0,4.74,1,16.81,16.81,0,0,0,4.84-.4l12.53-2.91L54.38,53,46.73,42.69a16.81,16.81,0,0,0-7.68-5.75,10.74,10.74,0,0,0-13.78,6.34,11.63,11.63,0,0,0-.53,2l-.63,3.81a10.69,10.69,0,0,1-1.39,3.79l-2,3.31A10.73,10.73,0,0,0,26.21,71.8Z"/>
    <path class="cls-4" d="M46.73,42.69a16.81,16.81,0,0,0-7.68-5.75,10.66,10.66,0,0,0-5.38-.54,11,11,0,0,1,2,.54,16.76,16.76,0,0,1,7.68,5.75L51,53,45,69.49,32.45,72.4a17.35,17.35,0,0,1-2.14.35l.64,0a16.81,16.81,0,0,0,4.84-.4l12.53-2.91L54.38,53Z"/>
    <path class="cls-5" d="M43.14,45.79,42,48.8l-7,18.92-.34.08C29.47,69.3,22.07,66,24.27,59.66c.92-2.14,3-4.75,3.76-7,.9-2.17,1-5.51,1.67-7.76a5.58,5.58,0,0,1,3.79-3.62c3.25-.88,7.41,1.16,9.44,4.21Z"/>
    <path class="cls-6" d="M43.14,45.79,42,48.8l-2.23-3-.21-.29a10.42,10.42,0,0,0-6.1-4.21c3.25-.88,7.41,1.16,9.44,4.21Z"/>
    <path class="cls-1" d="M54.38,53,48.32,69.49l-2.07-2.34A3.76,3.76,0,0,0,42.58,66l-.63.15-6.89,1.6a6,6,0,0,1,.08-4c.93-2.15,3-4.75,3.76-7,.9-2.18,1-5.52,1.67-7.76a5.92,5.92,0,0,1,2.57-3.13L47.73,52a3.74,3.74,0,0,0,3.56,1.48Z"/>
    <g>
      <path class="cls-2" d="M51.29,53.48a3.68,3.68,0,0,1-1.87-.2h0A3.76,3.76,0,0,1,47.73,52l-4.59-6.21a5.43,5.43,0,0,0-1.94,1.88L44.39,52a4,4,0,0,0,.8.79.44.44,0,0,1-.06.73,6.29,6.29,0,0,0-3.41,5.59v5.33A6.25,6.25,0,0,0,42,66.12l.63-.15a3.76,3.76,0,0,1,3.67,1.18l2.07,2.34L54.38,53Z"/>
      <path class="cls-1" d="M51.29,53.48l-.43,0L46,66.84l.3.31,2.06,2.34L54.38,53Z"/>
    </g>
    <g>
      <path class="cls-3" d="M58.09,82.4c0,.33,0,.67,0,1,0,4.14-2.08,8.75-5.79,9.24-3.71-.49-5.8-5.1-5.78-9.24C47.68,74.89,44,69.15,43.69,69l8.66-4.13L61,69C61,69.2,57.27,73.21,58.09,82.4Z"/>
      <path class="cls-3" d="M59.51,61.47h0Z"/>
      <path class="cls-3" d="M58.14,83.41c0,4.14-2.08,8.75-5.79,9.24A6,6,0,0,1,49,92.07C47,91,44.58,88.61,42.42,87.68c-2.09-1.09-5.4-1.48-7.57-2.37-5.9-3-2.84-9.67,1.5-12.89L46.63,77.6Z"/>
    </g>
    <path class="cls-4" d="M58.14,83.41c0,4.14-2.08,8.75-5.79,9.24-3.71-.49-5.8-5.1-5.78-9.24a24.17,24.17,0,0,0,.06-5.81Z"/>
    <path class="cls-5" d="M58.09,82.4c0,.33,0,.67,0,1a5.59,5.59,0,0,1-4.41-.31c-2-1.12-4.45-3.45-6.61-4.38l-.4-.2c-2.1-1-5.14-1.34-7.18-2.18a5.41,5.41,0,0,1-3.19-3.92q.3-.23.6-.42a20.26,20.26,0,0,0,5.26-5.12,23.74,23.74,0,0,0,3-5.41l7.15,3.41,6.28,3L61,69c0,.19-3.75,4.2-2.93,13.39Z"/>
    <path class="cls-3" d="M59.51,61.47h0Z"/>
    <path class="cls-6" d="M61,69l-2.39-1.14h0l-6.28-3L45.2,61.47a23.74,23.74,0,0,1-3,5.41A6.33,6.33,0,0,0,43.69,69h0l.07.06a19.12,19.12,0,0,1,3,9.44l.4.2c2.16.93,4.56,3.26,6.61,4.38a5.59,5.59,0,0,0,4.41.31c0-.34,0-.68,0-1C57.27,73.21,61,69.2,61,69Z"/>
    <path class="cls-3" d="M73.2,85.31c-2.17.89-5.49,1.28-7.58,2.37-2.16.93-4.56,3.27-6.61,4.39a5.65,5.65,0,0,1-4.28.35c-3.11-1.08-4.84-5.24-4.82-9L69.6,73.47l2.09-1c4.35,3.22,7.4,9.91,1.51,12.89Z"/>
    <path class="cls-4" d="M73.2,85.31c-2.17.89-5.49,1.28-7.58,2.37-2.16.93-4.56,3.27-6.61,4.39a5.65,5.65,0,0,1-4.28.35,7.74,7.74,0,0,0,.94-.35c2-1.12,4.45-3.46,6.62-4.39,2.08-1.09,5.4-1.48,7.57-2.37,5.31-2.68,3.36-8.38-.26-11.84l2.09-1C76,75.64,79.09,82.33,73.2,85.31Z"/>
    <path class="cls-5" d="M47,69c0,.19,3.75,4.2,2.92,13.39,0,.33,0,.67,0,1a5.56,5.56,0,0,0,4.4-.31c2-1.12,4.46-3.45,6.62-4.38,2.08-1.1,5.4-1.49,7.57-2.38a5.37,5.37,0,0,0,3.19-3.92c-.19-.15-.39-.29-.59-.42-5.86-3.82-8.25-10.53-8.25-10.53Z"/>
    <path class="cls-6" d="M68.35,72.42a12.91,12.91,0,0,1,2.34,2.22,4.79,4.79,0,0,0,1-2.22c-.19-.15-.39-.29-.59-.42-5.86-3.82-8.25-10.53-8.25-10.53L60.06,62.8C61.24,65.16,64.2,70.06,68.35,72.42Z"/>
    <path class="cls-7" d="M63,64.44a6.29,6.29,0,0,1-6.29,6.3H51.35a6.3,6.3,0,0,1-6.29-6.3V59.11l14.58,4.34Z"/>
    <path class="cls-8" d="M63,64.44a6.29,6.29,0,0,1-6.29,6.3H53.35a6.29,6.29,0,0,0,6.29-6.3v-1Z"/>
    <path class="cls-9" d="M63,59.11v5.33a29.07,29.07,0,0,1-17.92-5.33,6.29,6.29,0,0,1,6.29-6.29h5.34A6.29,6.29,0,0,1,63,59.11Z"/>
    <path class="cls-10" d="M56.69,52.82H53.35a6.28,6.28,0,0,1,6.29,6.29v5.3a24.71,24.71,0,0,0,3.34,0V59.11a6.29,6.29,0,0,0-6.29-6.29Z"/>
  </g>
</svg>
