<svg id="Layer_1" data-name="Layer 1" xmlns="http://www.w3.org/2000/svg" viewBox="0 0 108 108">
  <defs>
    <style>
      .cls-1 {
        fill: #b2529f;
      }

      .cls-2 {
        fill: #9a4588;
      }

      .cls-3 {
        fill: #ffceec;
      }

      .cls-4 {
        fill: #ffbee6;
      }

      .cls-5 {
        fill: #c365af;
      }

      .cls-6 {
        fill: #d691c6;
      }

      .cls-7 {
        fill: #cd7cbb;
      }

      .cls-8 {
        fill: #8379c1;
      }

      .cls-9 {
        fill: #6e61b6;
      }

      .cls-10 {
        fill: #6fd7a3;
      }

      .cls-11 {
        fill: #3ec3a4;
      }
    </style>
  </defs>
  <g>
    <path class="cls-1" d="M53.92,69.09,49.79,77.4l-7.16,5.18-7.12.81L29.16,78a9,9,0,0,1,.38-4l.65-2a9.16,9.16,0,0,1,4.61-5.31l9-4.47L46,61.13Z"/>
    <path class="cls-2" d="M53.92,69.09,49.79,77.4,47.4,79.13,45.81,79c1.62-2.87,2.94-6.2,4.1-8.52a2.22,2.22,0,0,0-.41-2.58l-5.7-5.7L46,61.13Z"/>
    <path class="cls-1" d="M78.67,78.12l-4.17,5L64,82.41,58.3,77.88l-4.38-8.79,8-8,11.17,5.55A9.14,9.14,0,0,1,77.65,72l.65,2a9,9,0,0,1,.37,4.15Z"/>
    <path class="cls-2" d="M41.5,74.69a1.1,1.1,0,0,1-.8-.34,1.12,1.12,0,0,1,0-1.6l7.63-7.64a1.14,1.14,0,1,1,1.61,1.61L42.3,74.35a1.1,1.1,0,0,1-.8.34Z"/>
    <path class="cls-2" d="M78.67,78.12l-1.91,2.3-2,.07a9.1,9.1,0,0,0,.3-6.52l-.65-2a9.17,9.17,0,0,0-4.6-5.31l-9-4.47,1.07-1.08,11.17,5.55A9.14,9.14,0,0,1,77.65,72l.65,2a9,9,0,0,1,.37,4.15Z"/>
    <path class="cls-2" d="M66.34,74.69a1.1,1.1,0,0,1-.8-.34l-8-8a1.14,1.14,0,0,1,1.61-1.61l8,8a1.13,1.13,0,0,1,0,1.6,1.12,1.12,0,0,1-.81.34Z"/>
    <path class="cls-3" d="M49.79,77.4h0l-1.42,2.86a9.17,9.17,0,0,1-5.31,4.6l-2,.65a9.16,9.16,0,0,1-2.87.46,8.82,8.82,0,0,1-1.7-.16A9.1,9.1,0,0,1,29.16,78a12.15,12.15,0,0,0,12,2.55l2.63-.86,2-.7c1.23-.44,2.64-1,4-1.61Z"/>
    <path class="cls-4" d="M39.81,84.86a12.72,12.72,0,0,1-3.3,1,9.13,9.13,0,0,0,4.57-.3l2-.65a9.17,9.17,0,0,0,5.31-4.6l1.42-2.86c-1.34.63-2.75,1.17-4,1.62-1.63,2.88-3.57,5.32-6,5.84Z"/>
    <path class="cls-3" d="M78.67,78.12a9.11,9.11,0,0,1-9,7.85A9.85,9.85,0,0,1,68,85.83a9.17,9.17,0,0,1-1.25-.32l-2-.65a9.14,9.14,0,0,1-5.31-4.6L58.3,77.88c2.05.8,4.26,1.39,5.75,1.88l2.63.87a12.17,12.17,0,0,0,12-2.51Z"/>
    <path class="cls-4" d="M74.78,80.48a8.22,8.22,0,0,1-1.93,2.82,8.42,8.42,0,0,1-4.92,2.51,9.15,9.15,0,0,0,8.16-2.51,9.28,9.28,0,0,0,1.72-2.4,8.89,8.89,0,0,0,.86-2.78A12.09,12.09,0,0,1,74.78,80.48Z"/>
    <g>
      <path class="cls-5" d="M49.23,56.51l-2.77,7.81a13.78,13.78,0,0,0-9.53,4.37,7.61,7.61,0,0,1-7,2l-.34-.08-1.41-.37a15,15,0,0,1-8.78-13.13V55c0-5.34,4.18-11.3,8.71-13.09h0l1.48-.37a2.71,2.71,0,0,1,.41-.09,7.55,7.55,0,0,1,6.83,2.06,18.74,18.74,0,0,0,1.84,1.61,12.73,12.73,0,0,0,7.75,2.76Z"/>
      <path class="cls-5" d="M61.39,64.32V47.91A13.68,13.68,0,0,0,71,43.54a7.58,7.58,0,0,1,7.25-2l3.4.86a13.2,13.2,0,0,1,10,12.79V57a13.2,13.2,0,0,1-9.87,12.77l-3.49.91a7.64,7.64,0,0,1-7.31-1.94A13.78,13.78,0,0,0,61.39,64.32Z"/>
      <path class="cls-5" d="M89.14,55v2.1c0,5.32-4.18,11.26-9.26,13.07l-1.66.43a7.64,7.64,0,0,1-7.31-1.94,13.78,13.78,0,0,0-9.52-4.37l-2.6-7.64,2.6-8.77A13.68,13.68,0,0,0,71,43.54a7.61,7.61,0,0,1,7.25-2l1.71.44c4.94,1.73,9.21,7.73,9.21,13Z"/>
    </g>
    <path class="cls-3" d="M91.58,55.22V57a13.2,13.2,0,0,1-9.87,12.77l-1.83.48a15.94,15.94,0,0,0,6.84-13.07V55a15.92,15.92,0,0,0-6.79-13l1.69.43a13.2,13.2,0,0,1,10,12.79Z"/>
    <path class="cls-1" d="M75.62,57.24H61.38a1.14,1.14,0,1,1,0-2.27H75.62a1.14,1.14,0,1,1,0,2.27Z"/>
    <path class="cls-4" d="M81.62,42.43,79.93,42a15.69,15.69,0,0,1,2.2,1.86,13.19,13.19,0,0,1,6.48,11.36V57a13.2,13.2,0,0,1-6.5,11.37,16.08,16.08,0,0,1-2.23,1.88l1.83-.48A13.2,13.2,0,0,0,91.58,57V55.22a13.2,13.2,0,0,0-10-12.79Z"/>
    <path class="cls-1" d="M49.23,56.51l-2.77,7.81a13.78,13.78,0,0,0-9.53,4.37,7.61,7.61,0,0,1-7,2h0a7.49,7.49,0,0,0,3.73-2,14.49,14.49,0,0,1,7.89-4.25,1.9,1.9,0,0,0,1.64-1.87v-4l-3.16-9.41a4.4,4.4,0,0,0-2.22-2.55,16.1,16.1,0,0,1-4.21-3.08,7.51,7.51,0,0,0-3.73-2l.14,0a7.55,7.55,0,0,1,6.83,2.06,18.74,18.74,0,0,0,1.84,1.61,12.73,12.73,0,0,0,7.75,2.76Z"/>
    <path class="cls-1" d="M46.46,57.24H32.22a1.14,1.14,0,0,1,0-2.27H46.46a1.14,1.14,0,0,1,0,2.27Z"/>
    <path class="cls-3" d="M28.21,70.26l-2.08-.54A13.19,13.19,0,0,1,16.27,57V55.22a13.19,13.19,0,0,1,10-12.79l1.91-.49A15.92,15.92,0,0,0,21.28,55v2.1a15.92,15.92,0,0,0,6.93,13.13Z"/>
    <path class="cls-6" d="M52.52,24.48h0Z"/>
    <path class="cls-6" d="M67,41.73,61.39,59.41l-7.47,1.92-7.46-1.92L40.81,41.73a9.08,9.08,0,0,1-.14-5.36l.11-.21c1-2,2.75-5.18,2.75-5.18l8-4.86h4.83l4.2,2.77h0l4.07,2.69s1.2,2.07,2.46,4.58l.1.21A9.16,9.16,0,0,1,67,41.73Z"/>
    <path class="cls-7" d="M53.92,56.68a1.13,1.13,0,0,1-1.13-1.14V43a1.14,1.14,0,1,1,2.27,0V55.54A1.14,1.14,0,0,1,53.92,56.68Z"/>
    <g>
      <path class="cls-6" d="M52.53,24.48h0Z"/>
      <path class="cls-7" d="M67,41.73,61.39,59.41H59.14l-1-.83L63.8,41.73a9.18,9.18,0,0,0-.5-7c-.63-1.34-1.28-2.77-2-4.12l-.73-1.71,4.07,2.69s1.2,2.07,2.46,4.58l.1.21A9.16,9.16,0,0,1,67,41.73Z"/>
    </g>
    <path class="cls-3" d="M67.17,36.37l-.1-.21a12,12,0,0,0-5.8-5.56h0a12,12,0,0,0-4.93-1.06H51.51a12,12,0,0,0-10.73,6.62l-.11.21a8.94,8.94,0,0,1,.64-1.65l2.62-5.21a9.14,9.14,0,0,1,8.16-5h3.67a9.14,9.14,0,0,1,8.16,5l2.62,5.21A8.91,8.91,0,0,1,67.17,36.37Z"/>
    <g>
      <path class="cls-6" d="M52.51,24.48h0Z"/>
      <path class="cls-4" d="M67.17,36.37l-.1-.21a12,12,0,0,0-5.8-5.56h0c-1.79-3.22-4.15-6-8.18-6.12h2.67a9.14,9.14,0,0,1,8.16,5l2.62,5.21A8.91,8.91,0,0,1,67.17,36.37Z"/>
    </g>
    <path class="cls-3" d="M52.53,24.48h0Z"/>
    <path class="cls-8" d="M61.39,59.32v5a29.14,29.14,0,0,0-6.51,4.74,1.36,1.36,0,0,1-1.91,0,26.33,26.33,0,0,0-6.51-4.74v-5a2.61,2.61,0,0,1,1.8-2.49l3.22-1.07h4.88l3.22,1.07A2.62,2.62,0,0,1,61.39,59.32Z"/>
    <path class="cls-9" d="M59.58,56.83l-3.22-1.07H53.12l3.22,1.07a2.62,2.62,0,0,1,1.81,2.49v3.21a3.14,3.14,0,0,1-1.48,2.64,28.63,28.63,0,0,0-4.35,3.26c.22.2.44.41.65.63a1.36,1.36,0,0,0,1.91,0,29.14,29.14,0,0,1,6.51-4.74v-5A2.62,2.62,0,0,0,59.58,56.83Z"/>
    <path class="cls-10" d="M56.36,55.76v5a2.44,2.44,0,1,1-4.88,0v-5l1.37-.45a3.4,3.4,0,0,1,2.14,0Z"/>
    <path class="cls-11" d="M55,55.31a3.4,3.4,0,0,0-2.14,0l-.15,0,.43.14a1.15,1.15,0,0,1,.79,1.1v4.18A2.45,2.45,0,0,1,52.7,62.9a2.43,2.43,0,0,0,1.42.32,2.48,2.48,0,0,0,2.24-2.5v-5Z"/>
  </g>
</svg>
