<svg xmlns="http://www.w3.org/2000/svg" version="1.1" xmlns:xlink="http://www.w3.org/1999/xlink" xmlns:svgjs="http://svgjs.dev/svgjs" viewBox="0 0 108 108" style="" x="0" y="0"><style type="text/css">
	.st0{fill:none;stroke:#708530;stroke-width:1.0127;stroke-miterlimit:10;}
	.st1{fill:#A6C339;}
	.st2{fill:#84B53A;}
	.st3{fill:#91BC3A;}
	.st4{fill:#B0CC36;}
	.st5{fill:#92B83E;}
	.st6{fill:#A6BD39;}
	.st7{fill:#A5C939;}
	.st8{fill:#72AA3A;}
	.st9{fill:#CF2A81;}
	.st10{fill:#E74F98;}
	.st11{fill:#E975A2;}
	.st12{fill:#E75C9D;}
	.st13{fill:#E7308F;}
	.st14{fill:#C1277B;}
	.st15{fill:#DD0988;}
</style><g><path class="st0" d="M78.1,54.2c-1.8-1.6-5.6-3.9-8.3-5.5"></path><path class="st0" d="M80.2,47.4c-3.1,1.4-8,2.4-11.7,1.7"></path><path class="st0" d="M76.4,42.2c-1.2,3.8-1.8,7.4-6.2,6.7"></path><path class="st0" d="M61.3,48.1c-4.8,0.7-10.2,0.7-13.7-0.7"></path><path class="st0" d="M58,55.8c-3.3-3.8-9.9-8.1-11.1-9"></path><path class="st0" d="M55.7,44.3c-1.4,2.8-1.5,5-7.1,3.7"></path><path class="st1" d="M77.9,61.2c-1.6-1.1-2.6-0.7-2.8-5.3l-0.3-4.7c0,0,1,0,2.1,0.1c1.1,0,5.3-0.3,6.7,3c1.4,3.3,1.8,5.4,1.9,6.1
	c0,0.7,0.7,3,0.8,3.6"></path><path class="st2" d="M94.2,45.4c-2.3,1-3.1,4.9-6.5,5.6c-3.4,0.7-8.1-1.5-9.6-2c-1.5-0.5-1.9,0.8,0-1.2c1.8-2,1.3-2.7,3.3-4
	c2-1.3,6.8-1.3,8-0.4C90.5,44.2,94.2,45.4,94.2,45.4"></path><path class="st3" d="M75.1,46.6c0.5-0.5,1.4-0.7,3.8-3.1c2.4-2.4,3.9-4.6,2.5-6.8c-1.5-2.2-2.4-2-2.6-4.2l-0.2-2.2
	c0,0-2.1,2-4.8,5.1c-2.7,3-1,7.2-0.1,8.8C74.5,45.7,75.1,46.6,75.1,46.6"></path><path class="st4" d="M73.8,48c0,0-2.3-0.1-4.5,2.3c-2.2,2.3-5.8,3.8-8.2,1.4c-2.4-2.3-4.6-2.8-4.6-2.8s0.3,0.4,2.1-1.8
	c1.8-2.2,5.9-3.7,8.6-2.6C70,45.5,73.8,48,73.8,48"></path><path class="st5" d="M63.8,64.8c0,0-0.2-5.8-1.3-8.6c-1.2-2.8-2.1-4.2-4.7-4.4c-2.6-0.2-4.1-0.8-4.1-0.8s0.9,4.1,0.4,5.7
	c-0.5,1.7,0.4,4.8,2.2,5.4C58.1,62.6,63.8,64.8,63.8,64.8"></path><path class="st6" d="M54.4,47.1c0,0,2.5-1,4.7-2.9c2.3-1.9,3.3-3,3.1-4.9c-0.3-1.8-0.8-3.5-1.5-5.2c-0.7-1.8-1.1-2.3-0.8-2.9
	c0.3-0.6-0.2,1-3,2.8c-2.8,1.8-4.5,2.3-4.7,4c-0.2,1.7,1.3,3,1.7,4.9C54.4,44.7,54.4,47.1,54.4,47.1"></path><path class="st0" d="M47.9,83.6c1.1-2.1,2.4-6.4,3.3-9.4"></path><path class="st0" d="M55,84c-2.2-2.7-4.3-7.2-4.6-10.9"></path><path class="st0" d="M59,79.1c-4-0.2-7.6,0-8-4.4"></path><path class="st0" d="M49.7,65.9c-1.9-4.5-3.2-9.7-2.7-13.4"></path><path class="st0" d="M41.4,64.5c2.8-4.2,5.4-11.5,6-13"></path><path class="st0" d="M52,59.5c-3.1-0.6-5.2-0.2-5.4-6"></path><path class="st2" d="M41,85.2c0.7-1.8,0-2.7,4.5-4.1l4.5-1.4c0,0,0.2,1,0.4,2.1c0.2,1.1,1.6,5.1-1.2,7.3c-2.9,2.2-4.8,3.1-5.5,3.3
	c-0.7,0.2-2.8,1.4-3.3,1.6"></path><path class="st7" d="M60.3,97.1c-1.6-2-5.5-1.8-7-4.9c-1.5-3.1-0.5-8.2-0.4-9.8c0.1-1.6-1.2-1.6,1.2-0.3c2.4,1.3,2.9,0.5,4.7,2.2
	c1.8,1.6,2.9,6.2,2.4,7.6C60.5,93.2,60.3,97.1,60.3,97.1"></path><path class="st3" d="M54.5,78.8c0.6,0.3,1,1.2,3.9,2.9c2.9,1.7,5.4,2.7,7.2,0.7c1.8-2,1.3-2.8,3.4-3.6l2.1-0.8c0,0-2.5-1.5-6.1-3.4
	c-3.6-1.9-7.2,0.8-8.5,2C55.2,78,54.5,78.8,54.5,78.8"></path><path class="st4" d="M52.9,78c0,0-0.5-2.3-3.3-3.8c-2.8-1.6-5.1-4.7-3.4-7.6c1.7-2.9,1.6-5.1,1.6-5.1S47.5,61.8,50,63
	c2.5,1.2,5,4.8,4.7,7.7C54.3,73.7,52.9,78,52.9,78"></path><path class="st5" d="M34,72.3c0,0,5.6-1.6,8.1-3.4c2.5-1.8,3.6-3.1,3.1-5.6c-0.5-2.5-0.2-4.2-0.2-4.2s-3.7,1.9-5.4,1.8
	c-1.7,0-4.6,1.6-4.7,3.5C34.8,66.3,34,72.3,34,72.3"></path><path class="st6" d="M48.9,58.9c0,0,1.6,2.1,4,3.9c2.4,1.7,3.8,2.5,5.5,1.8c1.7-0.7,3.2-1.7,4.7-2.8c1.5-1.1,2-1.6,2.6-1.4
	c0.7,0.2-1,0.1-3.5-2.2c-2.4-2.3-3.3-3.8-5-3.5c-1.7,0.3-2.6,2-4.3,2.8C51.2,58.3,48.9,58.9,48.9,58.9"></path><path class="st0" d="M22.7,50.1c2.2,1,6.5,2.1,9.6,2.9"></path><path class="st0" d="M22.6,57.2c2.6-2.3,7-4.7,10.7-5.1"></path><path class="st0" d="M27.8,61c0-4-0.4-7.6,3.9-8.3"></path><path class="st0" d="M40.5,51c4.4-2.1,9.5-3.6,13.3-3.4"></path><path class="st0" d="M41.4,42.7c4.3,2.6,11.8,4.8,13.3,5.4"></path><path class="st0" d="M46.9,53c0.5-3.1-0.1-5.2,5.7-5.7"></path><path class="st1" d="M20.8,43.3c1.9,0.6,2.7-0.1,4.3,4.3l1.6,4.4c0,0-0.9,0.2-2,0.5c-1.1,0.3-5,1.9-7.3-0.8C15,49,14,47.1,13.8,46.4
	c-0.2-0.7-1.5-2.7-1.8-3.3"></path><path class="st2" d="M9.8,63.2c1.9-1.7,1.5-5.6,4.6-7.3c3.1-1.7,8.2-0.9,9.8-0.9c1.6,0,1.5-1.3,0.4,1.1c-1.1,2.4-0.4,3-1.9,4.8
	c-1.5,1.8-6.1,3.2-7.5,2.7C13.8,63.3,9.8,63.2,9.8,63.2"></path><path class="st3" d="M27.8,56.5c-0.3,0.6-1.2,1.1-2.7,4.1c-1.6,3-2.4,5.6-0.4,7.2c2,1.7,2.9,1.2,3.8,3.2l0.9,2.1
	c0,0,1.4-2.6,3.1-6.2c1.7-3.7-1.1-7.2-2.4-8.4C28.6,57.2,27.8,56.5,27.8,56.5"></path><path class="st4" d="M28.6,54.8c0,0,2.2-0.6,3.7-3.5c1.4-2.9,4.4-5.3,7.4-3.8c3,1.5,5.2,1.4,5.2,1.4s-0.4-0.3-1.4,2.3
	c-1,2.6-4.5,5.3-7.5,5C33,56,28.6,54.8,28.6,54.8"></path><path class="st5" d="M33.3,35.7c0,0,1.9,5.5,3.8,7.9c1.9,2.4,3.3,3.4,5.8,2.8S47,46,47,46s-2.1-3.6-2.1-5.3c0-1.7-1.8-4.5-3.7-4.5
	C39.4,36.2,33.3,35.7,33.3,35.7"></path><path class="st6" d="M47.4,49.9c0,0-2.1,1.7-3.7,4.2c-1.6,2.5-2.3,3.9-1.5,5.6c0.8,1.7,1.8,3.1,3,4.5c1.2,1.5,1.7,1.9,1.6,2.6
	c-0.2,0.7-0.2-1,2-3.6c2.2-2.5,3.6-3.5,3.3-5.2c-0.3-1.7-2.1-2.5-3-4.2C48.2,52.2,47.4,49.9,47.4,49.9"></path><path class="st0" d="M56.2,22.9c-1.4,2-3.1,6.1-4.3,9"></path><path class="st0" d="M49.2,21.8c1.9,2.9,3.5,7.6,3.4,11.4"></path><path class="st0" d="M44.6,26.2c4,0.7,7.6,0.8,7.5,5.2"></path><path class="st0" d="M52.5,40.3c1.4,4.7,2.1,10,1.3,13.6"></path><path class="st0" d="M60.6,42.6c-3.3,3.8-6.6,10.9-7.4,12.3"></path><path class="st0" d="M49.6,46.4c3,1,5.2,0.8,4.7,6.5"></path><path class="st1" d="M63.2,22.1c-0.9,1.8-0.3,2.6-4.9,3.6l-4.6,0.9c0,0-0.1-1-0.2-2.1c-0.1-1.1-1.1-5.2,2-7.1
	c3.1-1.8,5.1-2.6,5.8-2.7c0.7-0.1,2.9-1.1,3.5-1.3"></path><path class="st7" d="M45.3,8.2c1.3,2.2,5.3,2.4,6.5,5.7c1.2,3.3-0.4,8.2-0.6,9.8c-0.3,1.6,1,1.7-1.2,0.2c-2.2-1.5-2.9-0.9-4.4-2.7
	c-1.6-1.8-2.2-6.5-1.5-7.8C44.6,12.1,45.3,8.2,45.3,8.2"></path><path class="st2" d="M49.1,27c-0.6-0.4-0.9-1.3-3.6-3.3c-2.7-2-5.1-3.2-7.1-1.5c-2,1.8-1.6,2.7-3.8,3.2l-2.2,0.5c0,0,2.3,1.8,5.7,4
	c3.4,2.3,7.3,0,8.7-1.1C48.3,27.7,49.1,27,49.1,27"></path><path class="st4" d="M50.6,28c0,0,0.3,2.3,2.9,4.2c2.6,1.9,4.5,5.2,2.6,7.9C54.2,42.8,54,45,54,45s0.3-0.4-2.1-1.8
	c-2.4-1.4-4.5-5.3-3.8-8.2C48.8,32.1,50.6,28,50.6,28"></path><path class="st5" d="M68.8,35.6c0,0-5.7,1-8.4,2.5c-2.6,1.5-3.9,2.7-3.7,5.3c0.2,2.6-0.2,4.2-0.2,4.2s3.9-1.5,5.6-1.3
	c1.7,0.2,4.7-1.1,5-2.9C67.4,41.5,68.8,35.6,68.8,35.6"></path><path class="st6" d="M52.5,47.4c0,0-1.4-2.3-3.6-4.3c-2.2-2-3.5-2.9-5.3-2.4c-1.8,0.5-3.3,1.3-5,2.2c-1.6,0.9-2.1,1.4-2.8,1.2
	c-0.6-0.3,1,0,3.2,2.5c2.2,2.5,2.9,4.1,4.6,4.1c1.7-0.1,2.8-1.7,4.6-2.3C50.2,47.7,52.5,47.4,52.5,47.4"></path><path class="st8" d="M59.3,58.4c-1.8-1.6-5.6-3.9-8.3-5.5"></path><path class="st8" d="M61.4,51.7c-3.1,1.4-8,2.4-11.7,1.7"></path><path class="st8" d="M57.6,46.5c-1.2,3.8-1.8,7.4-6.2,6.7"></path><path class="st8" d="M42.6,52.4c-4.8,0.7-10.2,0.7-13.7-0.7"></path><path class="st8" d="M39.2,60.1c-3.3-3.8-9.9-8.1-11.1-9"></path><path class="st8" d="M37,48.6c-1.4,2.8-1.5,5-7.1,3.7"></path><path class="st8" d="M59.1,65.5c-1.6-1.1-2.6-0.7-2.8-5.3L56,55.5c0,0,1,0,2.1,0.1c1.1,0,5.4-0.3,6.7,3c1.4,3.3,1.8,5.4,1.9,6.1
	c0,0.7,0.7,3,0.8,3.6"></path><path class="st8" d="M75.4,49.7c-2.3,1-3.1,4.9-6.5,5.6c-3.4,0.7-8.1-1.5-9.6-2c-1.5-0.5-1.9,0.8,0-1.2c1.8-2,1.3-2.7,3.3-4
	c2-1.3,6.8-1.3,8-0.4C71.7,48.5,75.4,49.7,75.4,49.7"></path><path class="st8" d="M56.3,50.9c0.5-0.5,1.4-0.7,3.8-3.1c2.4-2.4,3.9-4.6,2.5-6.8c-1.5-2.2-2.4-2-2.6-4.2l-0.2-2.2
	c0,0-2.1,2-4.8,5.1c-2.7,3-1,7.2-0.1,8.8C55.7,50,56.3,50.9,56.3,50.9"></path><path class="st8" d="M55.1,52.2c0,0-2.3-0.1-4.5,2.3c-2.2,2.3-5.8,3.8-8.2,1.4c-2.4-2.3-4.6-2.8-4.6-2.8s0.3,0.4,2.1-1.8
	c1.8-2.2,5.9-3.7,8.6-2.6C51.2,49.8,55.1,52.2,55.1,52.2"></path><path class="st8" d="M45,69.1c0,0-0.2-5.8-1.3-8.6c-1.2-2.8-2.1-4.2-4.7-4.4c-2.6-0.2-4.1-0.8-4.1-0.8s0.9,4.1,0.4,5.7
	c-0.5,1.7,0.4,4.8,2.2,5.4C39.3,66.9,45,69.1,45,69.1"></path><path class="st8" d="M35.6,51.4c0,0,2.5-1,4.7-2.9c2.3-1.9,3.3-3,3.1-4.9c-0.3-1.8-0.8-3.5-1.5-5.2c-0.7-1.8-1.1-2.3-0.8-2.9
	c0.3-0.6-0.2,1-3,2.8c-2.8,1.8-4.5,2.3-4.7,4c-0.2,1.7,1.3,3,1.7,4.9C35.6,49,35.6,51.4,35.6,51.4"></path><path class="st0" d="M71.2,76.5c-0.1-2.4-1-6.8-1.7-9.8"></path><path class="st0" d="M77.6,73.3c-3.2-1.3-7.3-4.2-9.3-7.3"></path><path class="st0" d="M78.7,67.1c-3.6,1.8-6.6,3.8-9.1,0.1"></path><path class="st0" d="M64.1,60.1c-3.8-3-7.5-6.9-8.9-10.4"></path><path class="st0" d="M56.2,63c0.4-5-0.9-12.7-1.1-14.3"></path><path class="st0" d="M63,53.4c-3,0.9-4.7,2.4-7.6-2.6"></path><path class="st1" d="M66,81.2c-0.3-1.9-1.3-2.3,1.9-5.7l3.2-3.4c0,0,0.6,0.7,1.4,1.6c0.8,0.8,3.9,3.7,2.5,6.9
	c-1.4,3.3-2.7,5.1-3.2,5.6c-0.5,0.5-1.8,2.6-2.1,3.1"></path><path class="st2" d="M88.6,82.2c-2.3-1-5.7,1.1-8.6-0.9c-2.8-2-4.5-6.9-5.1-8.4c-0.7-1.4-1.8-0.8,0.8-0.9c2.7-0.1,2.8-1,5.2-0.4
	c2.3,0.6,5.6,4,5.8,5.5C86.9,78.6,88.6,82.2,88.6,82.2"></path><path class="st3" d="M74.6,69.1c0.7,0,1.5,0.6,4.9,0.6c3.4,0.1,6-0.3,6.6-2.9c0.6-2.6-0.2-3.1,1.2-4.8l1.5-1.7c0,0-2.9-0.1-7,0
	c-4.1,0.1-5.9,4.2-6.4,5.9C74.9,68,74.6,69.1,74.6,69.1"></path><path class="st4" d="M72.8,69.1c0,0-1.6-1.7-4.8-1.7c-3.2,0-6.7-1.6-6.7-5c0-3.4-1.1-5.2-1.1-5.2s-0.1,0.5,2.7,0.3
	c2.8-0.2,6.7,1.7,7.8,4.5C71.9,64.6,72.8,69.1,72.8,69.1"></path><path class="st5" d="M53.6,73.4c0,0,4.1-4.1,5.4-6.9c1.3-2.8,1.6-4.5,0-6.4c-1.6-2-2.2-3.6-2.2-3.6s-2.3,3.5-3.8,4.3
	c-1.5,0.8-3.2,3.6-2.4,5.3C51.3,67.7,53.6,73.4,53.6,73.4"></path><path class="st6" d="M60,54.4c0,0.1,2.5,1.1,5.4,1.4c2.9,0.4,4.5,0.3,5.7-1.1c1.2-1.5,1.9-3,2.7-4.7c0.8-1.7,0.9-2.4,1.6-2.6
	c0.7-0.2-0.9,0.6-4.1-0.2c-3.2-0.8-4.8-1.7-6.1-0.6c-1.3,1.1-1.3,3-2.4,4.6C61.8,52.7,60,54.4,60,54.4"></path><path class="st0" d="M29.1,74.8c2.3-0.7,6.3-2.6,9.1-4"></path><path class="st0" d="M33.6,80.2c0.5-3.4,2.3-8.1,4.8-10.8"></path><path class="st0" d="M40,79.8c-2.6-3.1-5.3-5.5-2.4-8.8"></path><path class="st0" d="M43.1,63.9c1.9-4.5,4.9-9,7.9-11.2"></path><path class="st0" d="M38.4,57c5-0.8,12.1-4,13.6-4.6"></path><path class="st0" d="M49.4,61.2c-1.6-2.7-3.5-3.9,0.6-8"></path><path class="st2" d="M23.2,70.9c1.8-0.8,1.9-1.8,6,0.5l4.1,2.3c0,0-0.6,0.8-1.2,1.7c-0.6,0.9-2.6,4.7-6.1,4.1
	c-3.5-0.6-5.6-1.3-6.2-1.7c-0.6-0.3-2.9-1.1-3.5-1.3"></path><path class="st7" d="M27.8,93.1c0.4-2.5-2.5-5.3-1.3-8.5c1.2-3.2,5.6-6,6.8-7c1.2-1,0.3-2,1,0.6c0.7,2.6,1.6,2.5,1.7,4.9
	c0,2.4-2.6,6.4-3.9,6.9C30.8,90.6,27.8,93.1,27.8,93.1"></path><path class="st3" d="M37.1,76.3c0.2,0.7-0.2,1.6,0.6,4.9c0.8,3.3,1.8,5.8,4.4,5.7c2.6-0.1,2.9-1,4.9,0l2,1c0,0-0.6-2.8-1.7-6.7
	c-1.1-3.9-5.5-4.7-7.3-4.8C38.2,76.3,37.1,76.3,37.1,76.3"></path><path class="st4" d="M36.6,74.5c0,0,1.3-1.9,0.5-5c-0.8-3.1-0.1-6.9,3.2-7.7c3.3-0.8,4.8-2.3,4.8-2.3s-0.5,0.1,0.4,2.7
	c0.9,2.6,0,6.9-2.4,8.7C40.7,72.6,36.6,74.5,36.6,74.5"></path><path class="st5" d="M27.7,57c0,0,5,3,8,3.5c3,0.5,4.7,0.5,6.2-1.6c1.5-2.1,2.9-3,2.9-3s-3.9-1.4-5.1-2.7c-1.2-1.3-4.3-2.2-5.7-1
	C32.6,53.4,27.7,57,27.7,57"></path><path class="st6" d="M47.7,58.6c0,0-0.4,2.6-0.1,5.6c0.4,2.9,0.8,4.5,2.5,5.2c1.7,0.8,3.4,1.1,5.2,1.5c1.8,0.4,2.5,0.3,2.9,0.9
	c0.3,0.6-0.8-0.7-0.8-4c0-3.3,0.5-5-0.9-6.1c-1.4-1-3.2-0.5-5-1.2C49.8,59.8,47.7,58.6,47.7,58.6"></path><path class="st0" d="M36,33.5c0.8,2.3,3,6.2,4.5,8.9"></path><path class="st0" d="M30.8,38.4c3.4,0.3,8.2,1.8,11.1,4.2"></path><path class="st0" d="M31.6,44.7c3-2.7,5.2-5.6,8.7-2.8"></path><path class="st0" d="M47.6,47c4.6,1.7,9.2,4.4,11.6,7.3"></path><path class="st0" d="M54.3,42c1.1,4.9,4.6,11.9,5.3,13.3"></path><path class="st0" d="M50.6,53.1c2.6-1.8,3.8-3.6,8,0.2"></path><path class="st1" d="M39.6,27.4c0.9,1.8,1.9,1.8-0.2,6.1l-2.1,4.2c0,0-0.8-0.5-1.8-1.1c-1-0.6-4.8-2.3-4.4-5.9
	c0.4-3.6,1.1-5.6,1.4-6.3c0.3-0.6,0.9-3,1.1-3.6"></path><path class="st2" d="M17.7,33.1c2.5,0.2,5.1-2.8,8.4-1.7c3.3,1.1,6.3,5.3,7.4,6.5c1.1,1.2,2,0.2-0.6,1.1c-2.6,0.8-2.4,1.7-4.8,1.9
	c-2.4,0.2-6.5-2.2-7.1-3.5C20.4,36,17.7,33.1,17.7,33.1"></path><path class="st3" d="M34.9,41.6c-0.7,0.2-1.6-0.1-4.8,0.8c-3.2,0.9-5.7,2.1-5.5,4.7c0.2,2.6,1.1,2.9,0.2,4.9l-0.9,2
	c0,0,2.8-0.8,6.7-2.1c3.8-1.3,4.5-5.8,4.4-7.6C35,42.7,34.9,41.6,34.9,41.6"></path><path class="st4" d="M36.7,41c0,0,2,1.2,5.1,0.3c3.1-0.9,6.9-0.4,7.9,2.8c1,3.2,2.6,4.7,2.6,4.7s-0.1-0.5-2.7,0.5
	c-2.6,1-6.9,0.4-8.8-2C38.8,45,36.7,41,36.7,41"></path><path class="st5" d="M53.8,31.2c0,0-2.7,5.1-3.1,8.2c-0.4,3-0.2,4.7,1.9,6.1s3.2,2.8,3.2,2.8s1.2-4,2.4-5.2c1.2-1.2,2-4.4,0.7-5.8
	C57.6,36,53.8,31.2,53.8,31.2"></path><path class="st6" d="M53.2,51.3c0,0-2.7-0.3-5.6,0.2c-2.9,0.5-4.4,1-5.1,2.7c-0.7,1.7-1,3.4-1.2,5.3c-0.3,1.9-0.2,2.6-0.8,2.9
	c-0.6,0.3,0.6-0.8,4-1c3.3-0.2,5.1,0.2,6-1.2c1-1.4,0.4-3.3,0.9-5.1C52,53.4,53.2,51.3,53.2,51.3"></path><path class="st0" d="M78.8,39.1c-2.4,0.4-6.5,2-9.5,3.1"></path><path class="st0" d="M74.8,33.2c-0.8,3.3-3.1,7.8-5.9,10.3"></path><path class="st0" d="M68.5,33c2.2,3.3,4.7,6,1.4,9"></path><path class="st0" d="M63.7,48.4c-2.4,4.2-5.8,8.4-9,10.3"></path><path class="st0" d="M67.6,55.8c-5,0.3-12.5,2.7-14,3.1"></path><path class="st0" d="M57.2,50.4c1.3,2.8,3,4.3-1.5,7.9"></path><path class="st1" d="M84.3,43.6c-1.9,0.6-2.1,1.6-6-1.1l-3.8-2.7c0,0,0.6-0.7,1.4-1.6c0.7-0.9,3.1-4.4,6.5-3.4c3.4,1,5.4,1.9,6,2.3
	c0.6,0.4,2.8,1.4,3.3,1.7"></path><path class="st7" d="M82,21c-0.6,2.5,1.9,5.5,0.4,8.6c-1.6,3.1-6.2,5.4-7.5,6.3c-1.3,0.9-0.5,1.9-1-0.7c-0.4-2.7-1.4-2.7-1.1-5.1
	c0.2-2.4,3.2-6.1,4.6-6.5C78.7,23.2,82,21,82,21"></path><path class="st2" d="M71,36.7c-0.1-0.7,0.4-1.5-0.1-4.9c-0.4-3.4-1.2-5.9-3.8-6.2c-2.6-0.2-3,0.7-4.9-0.5L60.4,24c0,0,0.3,2.9,1,6.9
	c0.7,4,5,5.3,6.8,5.5S71,36.7,71,36.7"></path><path class="st4" d="M71.3,38.5c0,0-1.5,1.8-1.1,4.9c0.4,3.2-0.6,6.9-4,7.3c-3.3,0.5-5,1.8-5,1.8s0.5,0-0.1-2.7
	c-0.6-2.7,0.7-6.9,3.3-8.4C67,40,71.3,38.5,71.3,38.5"></path><path class="st5" d="M78.3,56.9c0,0-4.7-3.5-7.6-4.3c-2.9-0.9-4.6-1-6.4,0.9c-1.7,1.9-3.2,2.7-3.2,2.7s3.7,1.8,4.8,3.2
	c1,1.4,4,2.7,5.6,1.6C73,60,78.3,56.9,78.3,56.9"></path><path class="st6" d="M58.6,53.3c0.1,0,0.7-2.6,0.7-5.5c-0.1-2.9-0.3-4.5-1.9-5.4c-1.6-0.9-3.2-1.5-5-2.1c-1.8-0.6-2.5-0.6-2.8-1.2
	c-0.3-0.6,0.7,0.8,0.4,4.1c-0.3,3.3-1,5,0.2,6.1c1.2,1.2,3.2,0.9,4.9,1.7C56.7,51.8,58.6,53.3,58.6,53.3"></path><path class="st8" d="M55.2,65.8c-0.1-2.4-1-6.8-1.7-9.8"></path><path class="st8" d="M61.6,62.7c-3.2-1.3-7.3-4.2-9.3-7.3"></path><path class="st8" d="M62.7,56.4c-3.6,1.8-6.6,3.8-9.1,0.1"></path><path class="st8" d="M48.1,49.5c-3.8-3-7.5-6.9-8.9-10.4"></path><path class="st8" d="M40.2,52.3c0.4-5-0.9-12.7-1.1-14.3"></path><path class="st8" d="M47,42.8c-3,0.9-4.7,2.4-7.6-2.6"></path><path class="st8" d="M50,70.5c-0.3-1.9-1.3-2.3,1.9-5.7l3.2-3.4c0,0,0.6,0.7,1.4,1.6c0.8,0.8,3.9,3.7,2.5,6.9
	c-1.4,3.3-2.7,5.1-3.2,5.6c-0.5,0.5-1.8,2.6-2.1,3.1"></path><path class="st8" d="M72.6,71.5c-2.3-1-5.7,1.1-8.6-0.9s-4.5-6.9-5.1-8.4c-0.7-1.4-1.8-0.8,0.8-0.9c2.7-0.1,2.8-1,5.2-0.4
	c2.3,0.6,5.6,4,5.8,5.5C70.9,67.9,72.6,71.5,72.6,71.5"></path><path class="st8" d="M58.6,58.4c0.7,0,1.5,0.6,4.9,0.6c3.4,0.1,6-0.3,6.6-2.9c0.6-2.6-0.2-3.1,1.2-4.8l1.5-1.7c0,0-2.9-0.1-7,0
	c-4.1,0.1-5.9,4.2-6.4,5.9C58.8,57.3,58.6,58.4,58.6,58.4"></path><path class="st8" d="M56.8,58.4c0,0-1.6-1.7-4.8-1.7c-3.2,0-6.7-1.6-6.7-5c0-3.4-1.1-5.2-1.1-5.2s-0.1,0.5,2.7,0.3
	c2.8-0.2,6.7,1.7,7.8,4.5C55.9,54,56.8,58.4,56.8,58.4"></path><path class="st8" d="M37.6,62.7c0,0,4.1-4.1,5.4-6.9c1.3-2.8,1.6-4.5,0-6.4c-1.6-2-2.2-3.6-2.2-3.6s-2.3,3.5-3.8,4.3
	c-1.5,0.8-3.2,3.6-2.4,5.3C35.3,57,37.6,62.7,37.6,62.7"></path><path class="st8" d="M44,43.7c0,0.1,2.5,1.1,5.4,1.4c2.9,0.4,4.5,0.3,5.7-1.1c1.2-1.5,1.9-3,2.7-4.7c0.8-1.7,0.9-2.4,1.6-2.6
	c0.7-0.2-0.9,0.6-4.1-0.2c-3.2-0.8-4.8-1.7-6.1-0.6c-1.3,1.1-1.3,3-2.4,4.6C45.7,42,44,43.7,44,43.7"></path><g>
	<path class="st9" d="M40.9,70.1c0,0,1.5,1.8,2.8,2.7c1.3,0.9,2.6,2.9,3.9,4c1.3,1.2,2.6,1.6,3.7,1.1c1.2-0.5,5.5-3.8,5.5-3.8
		s1.8-2.3,1-3.5c-0.9-1.2-1.8-2-1.8-2s-2.2-4-2.7-4.7c-0.5-0.7-1.5-1.9-2.9-2c-1.3-0.1-1.4-0.6-2.8,0.6c-1.3,1.2-2.3,2.2-3.2,3.3
		c-0.9,1-2.2,2.6-2.7,3.2C41.3,69.6,40.9,70.1,40.9,70.1"></path>
	<g>
		<path class="st10" d="M39.7,69.6c-0.1-0.2-6-6.9-6-6.9s-0.3-4.8,2.7-6.2c3.1-1.4,4-2.4,4.2-0.9c0.2,1.4,1,4.6,1.1,4.8
			c0.1,0.2,1.9-3,2.4-3.5c0.5-0.5,1.7-0.9,2.6-0.4c0.9,0.5,2.2,2.2,2.4,3.2c0.2,1,0.3,4.7-2.2,6.2c-2.6,1.4-4.3,3-4.3,3l-2,1.1
			L39.7,69.6z"></path>
		<path class="st11" d="M42,69.8c0,0,7.8,6.1,8.6,6.8c0.8,0.7,2.8,2.4,1.7,4.4c-1,2-3,5.6-4.4,5.9c-1.4,0.3-0.6,0.2-2.2,0.7
			c-1.7,0.6-2.4,0.8-3.6,0c-1.2-0.8-2.4-2.8-3-5.2c-0.6-2.4,0.3-8.4,0.3-8.4s1.3-2,1.4-2.2C40.8,71.6,42,69.8,42,69.8"></path>
		<path class="st12" d="M38.8,70.6c0,0-8.1,7.2-8.5,7.8c-0.3,0.6-0.6,3.9,0.3,5.3c0.9,1.4,2,3.2,3,3.3c1,0.2,1.7,0,2.9,0
			c1.2,0,2.4,0.5,3.4,0.1c1-0.4,2-0.9,3.1-2.1c1-1.2,2.6-2.5,2.3-4.4c-0.3-2-3.4-6.2-3.4-6.2l-0.8-2.1l-0.5-1.7H38.8z"></path>
		<path class="st13" d="M40,69.8c0,0-2.8-4.1-3.6-5c-0.8-0.9-2.5-2.3-2.5-2.3s0.1-0.9-2.4-0.8c-2.5,0.1-4,0.4-4.5,1.9
			c-0.5,1.5-1.8,2.5-2.4,3.7c-0.6,1.2,0.2,4.8,0.8,6.4c0.6,1.6,0.4,3.3,2.6,4c2.2,0.7,3.1,1.2,4.4,0c1.3-1.2,2.9-3.3,3.6-3.9
			c0.7-0.6,2-1.7,2.7-2.1c0.7-0.4,1.2-1.2,1.2-1.2V69.8z"></path>
		<path class="st13" d="M38.8,68.6c-0.5,0.2-1.6,1.5-1.6,1.5s-0.1,1.1,0,1.3c0.1,0.3-0.2,0.3,0.6,1c0.7,0.7,1.4,1.5,2.1,1.3
			c0.8-0.2,1.2,0.3,1.4,0c0.2-0.2,0.3-0.4,1.1-0.9c0.8-0.4,1.4,0.1,1.3-1.7c-0.1-1.8,0.4-2.2-0.5-2.6c-0.8-0.5-0.6-0.9-1.4-1.2
			c-0.8-0.3-1.4,0-1.4,0l-0.9,0.8L38.8,68.6z"></path>
	</g>
	<path class="st14" d="M42.5,70.6c0,1-0.8,1.8-1.8,1.8c-1,0-1.8-0.8-1.8-1.8c0-1,0.8-1.8,1.8-1.8C41.6,68.8,42.5,69.6,42.5,70.6"></path>
</g><g>
	<path class="st9" d="M33.1,42c0,0-1,1.5-1.5,2.6c-0.4,1.1-1.7,2.5-2.3,3.8c-0.6,1.2-0.7,2.3-0.1,3c0.6,0.7,4,3.3,4,3.3
		s2.2,0.9,2.9,0c0.7-0.9,1.2-1.8,1.2-1.8s2.6-2.5,3-3c0.5-0.5,1.2-1.6,0.9-2.6c-0.2-1,0.1-1.2-1.1-1.9c-1.2-0.7-2.2-1.2-3.2-1.7
		c-1-0.4-2.4-1.1-3-1.3C33.5,42.2,33.1,42,33.1,42"></path>
	<g>
		<path class="st10" d="M33.2,40.9c0.2-0.1,4-6,4-6s3.6-1.3,5.3,0.7c1.7,2,2.6,2.5,1.6,2.9c-1.1,0.4-3.3,1.8-3.5,1.8
			c-0.2,0.1,2.7,0.8,3.1,1.1c0.5,0.3,1,1,0.8,1.8c-0.2,0.8-1.2,2.1-1.9,2.5c-0.7,0.3-3.5,1.3-5.2-0.4c-1.6-1.6-3.2-2.6-3.2-2.6
			L33,41.6L33.2,40.9z"></path>
		<path class="st11" d="M33.5,42.7c0,0-3,7.1-3.4,7.8c-0.4,0.7-1.3,2.6-3,2.2c-1.8-0.3-4.9-1-5.4-2.1c-0.5-1-0.3-0.4-1-1.5
			c-0.8-1.1-1.1-1.6-0.8-2.7c0.4-1.1,1.7-2.4,3.3-3.3c1.7-1,6.5-1.5,6.5-1.5s1.8,0.5,2,0.6C31.9,42.2,33.5,42.7,33.5,42.7"></path>
		<path class="st12" d="M32.3,40.5c0,0-7.2-4.5-7.7-4.7c-0.6-0.1-3.1,0.4-4,1.3c-0.9,1-2,2.2-1.9,3c0.1,0.8,0.4,1.3,0.6,2.2
			c0.3,0.9,0.1,1.9,0.7,2.5c0.5,0.7,1.1,1.3,2.2,1.8c1.1,0.5,2.4,1.4,3.9,0.8c1.4-0.7,4-3.9,4-3.9l1.5-1.1l1.2-0.7L32.3,40.5z"></path>
		<path class="st13" d="M33.1,41.2c0,0,2.5-2.9,3-3.7c0.5-0.8,1.3-2.4,1.3-2.4s0.7-0.1,0.1-1.9c-0.6-1.8-1.2-2.9-2.4-2.9
			c-1.2-0.1-2.3-0.8-3.3-1c-1-0.2-3.6,1.2-4.7,2c-1.1,0.8-2.5,1-2.5,2.8c-0.1,1.8-0.2,2.6,0.9,3.3c1.2,0.7,3.1,1.4,3.7,1.9
			c0.6,0.4,1.7,1.1,2.1,1.5c0.4,0.4,1.1,0.7,1.1,0.7L33.1,41.2z"></path>
		<path class="st13" d="M33.8,40.1c-0.3-0.3-1.5-0.8-1.5-0.8s-0.8,0.2-1,0.3c-0.2,0.1-0.3-0.1-0.7,0.6c-0.4,0.7-0.8,1.4-0.6,1.9
			c0.3,0.5,0,0.9,0.3,1.1c0.2,0.1,0.4,0.1,0.9,0.6s0.2,1.1,1.5,0.6c1.3-0.5,1.7-0.2,1.9-0.9c0.2-0.7,0.6-0.6,0.6-1.3
			c0-0.6-0.3-1-0.3-1l-0.8-0.5L33.8,40.1z"></path>
	</g>
	<path class="st14" d="M33,43.2c-0.8,0.2-1.6-0.2-1.8-1c-0.2-0.8,0.2-1.5,1-1.7c0.8-0.2,1.6,0.2,1.8,1C34.3,42.2,33.8,43,33,43.2"></path>
</g><g>
	<path class="st10" d="M74.4,67.9c-0.2-0.1-7.6-0.9-7.6-0.9s-2.9-2.8-1.8-5.4c1.1-2.6,1.2-3.7,2.1-2.9c0.9,0.8,3.2,2.3,3.4,2.4
		c0.2,0.1-0.5-2.9-0.4-3.5c0.1-0.6,0.5-1.5,1.4-1.7c0.9-0.2,2.6,0.1,3.3,0.6c0.7,0.5,2.9,2.7,2.1,5.1c-0.8,2.4-1,4.3-1,4.3l-0.6,1.8
		L74.4,67.9z"></path>
	<path class="st11" d="M75.9,66.7c0,0,8.3-0.6,9.1-0.6c0.9,0,3.1-0.1,3.6,1.8c0.5,1.8,1.3,5.1,0.6,6.1c-0.7,1-0.3,0.4-1,1.7
		c-0.7,1.3-1,1.9-2.3,2c-1.2,0.2-3.1-0.4-4.8-1.5c-1.7-1.1-4.5-5.4-4.5-5.4s-0.3-2-0.4-2.2C76.2,68.5,75.9,66.7,75.9,66.7"></path>
	<path class="st12" d="M74.4,69.3c0,0-1,9-0.9,9.6c0.1,0.6,1.8,2.8,3.2,3.1c1.3,0.3,3.1,0.8,3.8,0.4c0.7-0.5,1.1-1,1.8-1.7
		c0.8-0.7,1.7-1,2.2-1.9c0.4-0.8,0.7-1.7,0.7-3c0-1.3,0.3-3-1.1-4c-1.3-1-5.6-1.9-5.6-1.9L76.8,69l-1.2-0.8L74.4,69.3z"></path>
	<path class="st9" d="M75.5,67.5c0,0,1.9,0.3,3.2,0.1c1.3-0.1,3.2,0.3,4.7,0.3c1.5,0,2.5-0.5,2.9-1.4c0.4-1,1.3-5.4,1.3-5.4
		s-0.2-2.5-1.4-2.7C85,58.1,84,58.1,84,58.1s-3.6-1.2-4.3-1.4c-0.7-0.2-2.1-0.3-2.9,0.4c-0.9,0.7-1.2,0.5-1.4,2
		c-0.1,1.5-0.2,2.7-0.1,3.8c0,1.1,0.1,2.8,0.1,3.5C75.4,67,75.5,67.5,75.5,67.5"></path>
	<path class="st13" d="M74.7,68.1c0,0-4-1-5-1.1c-1-0.1-2.9,0-2.9,0s-0.4-0.6-1.9,0.8c-1.5,1.5-2.2,2.5-1.7,3.7
		c0.5,1.2,0.2,2.6,0.6,3.6c0.3,1.1,2.8,2.8,4.1,3.5c1.3,0.7,2.1,1.8,3.9,1c1.8-0.8,2.6-1,2.8-2.5c0.2-1.5-0.1-3.7,0-4.5
		c0.1-0.8,0.3-2.2,0.5-2.8c0.2-0.6,0.1-1.4,0.1-1.4L74.7,68.1z"></path>
	<path class="st13" d="M73.3,68c-0.2,0.4-0.1,1.8-0.1,1.8s0.6,0.7,0.8,0.8c0.2,0.1,0.1,0.3,0.9,0.3c0.9,0,1.7,0.1,2.1-0.4
		c0.4-0.5,0.9-0.5,0.9-0.8c0-0.3-0.1-0.5,0.2-1.2c0.2-0.7,1-0.7-0.1-1.8c-1.1-1-1-1.6-1.8-1.4c-0.8,0.2-0.9-0.2-1.5,0.1
		c-0.6,0.3-0.9,0.8-0.9,0.8l-0.1,1L73.3,68z"></path>
	<path class="st14" d="M76.7,67.2c0.6,0.6,0.5,1.6-0.1,2.2c-0.6,0.6-1.6,0.5-2.2-0.1c-0.6-0.6-0.5-1.6,0.1-2.2
		C75.2,66.5,76.1,66.6,76.7,67.2"></path>
</g><g>
	<path class="st10" d="M66.9,32.1c0.2,0.1,9.1-0.2,9.1-0.2s3.9,2.8,3,6.1c-0.9,3.3-0.8,4.6-2,3.8c-1.2-0.8-4.2-2.2-4.4-2.3
		c-0.2-0.1,1.1,3.4,1.1,4.1c0,0.7-0.4,1.9-1.4,2.2c-1,0.4-3.1,0.3-4-0.2c-0.9-0.5-3.8-2.8-3.3-5.7c0.6-2.9,0.4-5.3,0.4-5.3l0.4-2.3
		L66.9,32.1z"></path>
	<path class="st11" d="M65.3,33.8c0,0-9.7,2.1-10.7,2.2c-1,0.2-3.6,0.6-4.5-1.5c-0.9-2.1-2.4-5.9-1.7-7.2c0.7-1.3,0.2-0.6,0.9-2.2
		c0.6-1.7,0.9-2.4,2.3-2.8c1.4-0.4,3.7,0,5.9,1c2.2,1,6.2,5.7,6.2,5.7s0.7,2.3,0.8,2.5C64.7,31.7,65.3,33.8,65.3,33.8"></path>
	<path class="st12" d="M66.7,30.8c0,0-0.3-10.9-0.6-11.5c-0.3-0.7-2.6-3-4.2-3.2c-1.7-0.2-3.7-0.5-4.5,0.2c-0.8,0.6-1.1,1.3-1.9,2.3
		c-0.8,0.9-1.9,1.5-2.2,2.6c-0.3,1.1-0.6,2.1-0.4,3.7c0.2,1.5,0.2,3.6,1.9,4.6c1.7,1,6.9,1.4,6.9,1.4l2.2,0.7l1.6,0.7L66.7,30.8z"></path>
	<path class="st9" d="M65.8,32.8c0,0-2.3,0-3.8,0.4c-1.5,0.4-3.9,0.1-5.6,0.4c-1.7,0.3-2.9,1-3.2,2.2c-0.3,1.2-0.6,6.6-0.6,6.6
		s0.6,2.9,2.1,3c1.4,0.1,2.7-0.1,2.7-0.1s4.4,0.9,5.4,1c0.9,0.1,2.5,0.1,3.4-0.9c0.9-1,1.3-0.8,1.3-2.5c-0.1-1.8-0.2-3.2-0.5-4.5
		c-0.2-1.3-0.5-3.3-0.7-4.1C65.9,33.4,65.8,32.8,65.8,32.8"></path>
	<path class="st13" d="M66.6,32.2c0,0,4.9,0.5,6.1,0.4c1.2-0.1,3.4-0.4,3.4-0.4s0.6,0.7,2.1-1.3c1.5-2,2.2-3.3,1.4-4.7
		c-0.8-1.4-0.7-3-1.3-4.2c-0.6-1.2-3.8-2.9-5.4-3.5c-1.6-0.6-2.8-1.8-4.8-0.6c-2,1.3-2.9,1.6-2.8,3.4c0,1.8,0.7,4.4,0.7,5.3
		c0,0.9,0,2.6-0.1,3.4c-0.1,0.8,0.1,1.7,0.1,1.7L66.6,32.2z"></path>
	<path class="st15" d="M68.2,32.1c0.2-0.5-0.1-2.1-0.1-2.1s-0.8-0.8-1-0.9c-0.3-0.1-0.1-0.3-1.1-0.2c-1,0.1-2,0.1-2.4,0.8
		c-0.3,0.7-1,0.7-0.9,1.1c0.1,0.3,0.1,0.5,0,1.4c-0.2,0.9-1,1,0.4,2.1c1.5,1.1,1.4,1.7,2.3,1.3c0.9-0.4,1.1,0.1,1.8-0.3
		c0.7-0.4,0.9-1.1,0.9-1.1l0-1.2L68.2,32.1z"></path>
	<path class="st14" d="M64.4,33.6c-0.8-0.6-0.9-1.8-0.2-2.6c0.6-0.8,1.8-0.9,2.6-0.2c0.8,0.6,0.9,1.8,0.2,2.6
		C66.3,34.2,65.1,34.3,64.4,33.6"></path>
</g></g></svg>