<svg id="Layer_1" data-name="Layer 1" xmlns="http://www.w3.org/2000/svg" viewBox="0 0 108 108">
  <defs>
    <style>
      .cls-1 {
        fill: #fef76c;
      }

      .cls-2 {
        fill: #fdda45;
      }

      .cls-3 {
        fill: #fdb640;
      }

      .cls-4 {
        fill: #ff8d56;
      }
    </style>
  </defs>
  <g>
    <g>
      <path class="cls-1" d="M49.05,17.33l-1.44,2.05a26.25,26.25,0,0,0-4.13,9.12A26.5,26.5,0,0,0,34.14,25l-2.47-.43v7.06H24.59L25,34.06a26.61,26.61,0,0,0,3.56,9.38,26.33,26.33,0,0,0-9.2,4.16l-2,1.44,5,5-5,5,2.06,1.44a26.41,26.41,0,0,0,9.08,4.08A26.65,26.65,0,0,0,25,74l-.42,2.46h7.09v7L34.14,83a26.38,26.38,0,0,0,9.31-3.52,26.45,26.45,0,0,0,4.12,9.11l1.45,2,5-4.95L59.14,54,54,22.36Z"/>
      <path class="cls-2" d="M90.66,49l-2-1.44a26.35,26.35,0,0,0-9.14-4.13A26.55,26.55,0,0,0,83,34.07l.43-2.47H76.37V24.53L73.9,25a26.43,26.43,0,0,0-9.32,3.52,26.4,26.4,0,0,0-4.08-9l-1.44-2.06-5.06,5V85.68l5,5,1.44-2a26.59,26.59,0,0,0,4.16-9.16A26.6,26.6,0,0,0,73.9,83l2.47.43v-7h7.07L83,74a26.69,26.69,0,0,0-3.57-9.47,26.56,26.56,0,0,0,9.15-4.12l2-1.45-5-5Z"/>
    </g>
    <g>
      <path class="cls-3" d="M42.62,54A11.39,11.39,0,0,0,54,65.38L58.1,54,54,42.62A11.39,11.39,0,0,0,42.62,54Z"/>
      <path class="cls-4" d="M54,42.62V65.38a11.38,11.38,0,0,0,0-22.76Z"/>
    </g>
    <path class="cls-2" d="M50.23,63.09a4.89,4.89,0,0,0,.05-.66,4.71,4.71,0,0,0-4.71-4.71,4.89,4.89,0,0,0-.66.05,4.71,4.71,0,0,0,0-7.53,4.87,4.87,0,0,0,.66,0,4.69,4.69,0,0,0,4.71-4.71,4.89,4.89,0,0,0-.05-.66A4.7,4.7,0,0,0,54,46.79L56.57,42,54,37.37a4.72,4.72,0,0,0-4.72,4.71,4.62,4.62,0,0,0,0,.65,4,4,0,0,0-.43-.49,4.71,4.71,0,0,0-6.66,6.67,4.93,4.93,0,0,0,.49.42,4.72,4.72,0,1,0,0,9.34,4,4,0,0,0-.49.43,4.71,4.71,0,1,0,6.66,6.66,4,4,0,0,0,.43-.49A4.69,4.69,0,0,0,54,70.64l2.57-5L54,61.21a4.73,4.73,0,0,0-3.77,1.88Z"/>
    <path class="cls-3" d="M70.63,54a4.71,4.71,0,0,0-4.71-4.71,4.63,4.63,0,0,0-.65,0,4.93,4.93,0,0,0,.49-.42,4.72,4.72,0,0,0-6.67-6.67,4.93,4.93,0,0,0-.42.49,4.63,4.63,0,0,0,0-.65A4.71,4.71,0,0,0,54,37.37v9.42a4.67,4.67,0,0,0,3.76-1.88,4.87,4.87,0,0,0,0,.66,4.69,4.69,0,0,0,4.71,4.71,4.87,4.87,0,0,0,.66,0,4.71,4.71,0,0,0,0,7.53,4.89,4.89,0,0,0-.66-.05,4.71,4.71,0,0,0-4.71,4.71,4.87,4.87,0,0,0,0,.66A4.7,4.7,0,0,0,54,61.21v9.43a4.75,4.75,0,0,0,4.67-5.37,5,5,0,0,0,.42.5,4.72,4.72,0,0,0,8-3.34,4.67,4.67,0,0,0-1.38-3.33,4,4,0,0,0-.49-.43,4.62,4.62,0,0,0,.65,0A4.72,4.72,0,0,0,70.63,54Z"/>
  </g>
</svg>
