<?xml version="1.0" encoding="utf-8"?>
<!-- Generator: Adobe Illustrator 23.1.1, SVG Export Plug-In . SVG Version: 6.00 Build 0)  -->
<svg version="1.1" id="Layer_1" xmlns="http://www.w3.org/2000/svg" xmlns:xlink="http://www.w3.org/1999/xlink" x="0px" y="0px"
	 viewBox="0 0 108 108" style="enable-background:new 0 0 108 108;" xml:space="preserve">
<style type="text/css">
	.st0{fill:none;stroke:#6C8343;stroke-width:2;stroke-miterlimit:10;}
	.st1{fill:none;stroke:#7F9850;stroke-width:2;stroke-miterlimit:10;}
	.st2{fill:none;stroke:#A1A14B;stroke-width:2;stroke-miterlimit:10;}
	.st3{fill:none;stroke:#7CA552;stroke-width:2;stroke-miterlimit:10;}
	.st4{fill:#72AA3A;}
	.st5{fill:#406C25;}
	.st6{fill:#64791A;}
	.st7{fill:#B0CC36;}
	.st8{fill:#8BAC30;}
	.st9{fill:#FBC4B2;}
	.st10{fill:#F9B295;}
	.st11{fill:#F69585;}
	.st12{fill:#F5928C;}
	.st13{fill:#F3757F;}
	.st14{fill:#F69991;}
	.st15{fill:#F48582;}
	.st16{fill:#F69B92;}
	.st17{fill:#F79B8B;}
	.st18{fill:#F7A3A2;}
	.st19{fill:#F6978C;}
	.st20{fill:#F48795;}
	.st21{fill:#F69FA0;}
	.st22{fill:#F5908C;}
	.st23{fill:#F69985;}
	.st24{fill:#FCD8D6;}
	.st25{fill:#F48384;}
	.st26{fill:#F6958E;}
	.st27{fill:#F2788F;}
	.st28{fill:#F9B9AD;}
	.st29{fill:#FAB072;}
	.st30{fill:#F6998D;}
	.st31{fill:#F8ABA6;}
	.st32{fill:#F37F92;}
</style>
<g>
	<path class="st0" d="M55.9,59c-0.8,7.2,1.3,23.7,2.1,28.1"/>
	<path class="st0" d="M62.5,59c0.2,0.5-2.4,21.8-2.4,22.7c0,0.9-0.8,4.2-0.8,4.2"/>
	<path class="st1" d="M65.5,60.5c0,0-1.9,17.2-1.7,19.6s-1.3,6.6-1.3,6.6"/>
	<path class="st2" d="M58,59.9c0,0,3.8,26.5,2.9,27.3"/>
	<path class="st0" d="M70.9,59.8c-1.3,2.7-5.6,23.1-5.4,24.1c0.2,1,0,3.5,0,3.5"/>
	<path class="st3" d="M51.4,59.9c0,0,3.4,20.3,3.6,20.7c0.2,0.5,0,5.3,0,5.3"/>
	<path class="st0" d="M50.5,59.2c-0.8,7.2,1.3,23.7,2.1,28.1"/>
	<path class="st0" d="M57,59.2c0.2,0.5-2.4,21.8-2.4,22.7c0,0.9-0.8,4.2-0.8,4.2"/>
	<path class="st1" d="M60,60.6c0,0-1.9,17.2-1.7,19.6S57,86.8,57,86.8"/>
	<path class="st2" d="M52.5,60c0,0,3.8,26.5,2.9,27.3"/>
	<path class="st0" d="M65.5,59.9C64.2,62.6,59.8,83,60,84.1c0.2,1,0,3.5,0,3.5"/>
	<path class="st3" d="M46,60c0,0,3.4,20.3,3.6,20.7c0.2,0.5,0,5.3,0,5.3"/>
	<path class="st0" d="M72.4,50.7c0.8,9-1.3,29.8-2.1,35.4"/>
	<path class="st0" d="M65.8,50.7c-0.2,0.6,2.4,27.4,2.4,28.6s0.8,5.2,0.8,5.2"/>
	<path class="st1" d="M62.8,52.5c0,0,1.9,21.7,1.7,24.6s1.3,8.3,1.3,8.3"/>
	<path class="st2" d="M70.4,51.8c0,0-3.8,33.3-2.9,34.3"/>
	<path class="st0" d="M57.4,51.7c1.3,3.4,5.6,29,5.4,30.3c-0.2,1.3,0,4.4,0,4.4"/>
	<path class="st3" d="M76.9,51.8c0,0-3.4,25.5-3.6,26.1c-0.2,0.6,0,6.6,0,6.6"/>
	<path class="st0" d="M77.9,50.9c0.8,9-1.3,29.8-2.1,35.4"/>
	<path class="st0" d="M71.3,50.9c-0.2,0.6,2.4,27.4,2.4,28.6s0.8,5.2,0.8,5.2"/>
	<path class="st1" d="M68.3,52.7c0,0,1.9,21.7,1.7,24.6c-0.2,3,1.3,8.3,1.3,8.3"/>
	<path class="st2" d="M75.8,52c0,0-3.8,33.3-2.9,34.3"/>
	<path class="st0" d="M62.9,51.9c1.3,3.4,5.6,29,5.4,30.3c-0.2,1.3,0,4.4,0,4.4"/>
	<path class="st3" d="M82.4,52c0,0-3.4,25.5-3.6,26.1s0,6.6,0,6.6"/>
	<path class="st0" d="M68.5,49.5c-0.8,7.2,1.3,23.7,2.1,28.1"/>
	<path class="st0" d="M75.1,49.5c0.2,0.5-2.4,21.8-2.4,22.7s-0.8,4.2-0.8,4.2"/>
	<path class="st1" d="M78.1,51c0,0-1.9,17.2-1.7,19.6s-1.3,6.6-1.3,6.6"/>
	<path class="st2" d="M70.6,50.4c0,0,3.8,26.5,2.9,27.3"/>
	<path class="st3" d="M64,50.4c0,0,3.4,20.3,3.6,20.7c0.2,0.5,0,5.3,0,5.3"/>
	<path class="st0" d="M63,49.7c-0.8,7.2,1.3,23.7,2.1,28.1"/>
	<path class="st0" d="M69.6,49.7c0.2,0.5-2.4,21.8-2.4,22.7s-0.8,4.2-0.8,4.2"/>
	<path class="st1" d="M72.6,51.1c0,0-1.9,17.2-1.7,19.6c0.2,2.4-1.3,6.6-1.3,6.6"/>
	<path class="st2" d="M65.1,50.5c0,0,3.8,26.5,2.9,27.3"/>
	<path class="st0" d="M78,50.5c-1.3,2.7-5.6,23.1-5.4,24.1s0,3.5,0,3.5"/>
	<path class="st3" d="M58.5,50.5c0,0,3.4,20.3,3.6,20.7c0.2,0.5,0,5.3,0,5.3"/>
	<path class="st0" d="M36.3,55.1c-0.8,7.2,1.3,23.7,2.1,28.1"/>
	<path class="st0" d="M42.9,55.1c0.2,0.5-2.4,21.8-2.4,22.7S39.7,82,39.7,82"/>
	<path class="st1" d="M45.9,56.6c0,0-1.9,17.2-1.7,19.6s-1.3,6.6-1.3,6.6"/>
	<path class="st2" d="M38.4,56c0,0,3.8,26.5,2.9,27.3"/>
	<path class="st0" d="M51.3,55.9C50,58.6,45.7,79,45.9,80s0,3.5,0,3.5"/>
	<path class="st3" d="M31.8,56c0,0,3.4,20.3,3.6,20.7c0.2,0.5,0,5.3,0,5.3"/>
	<path class="st0" d="M30.9,55.3c-0.8,7.2,1.3,23.7,2.1,28.1"/>
	<path class="st0" d="M37.4,55.3C37.6,55.7,35,77,35,78c0,0.9-0.8,4.2-0.8,4.2"/>
	<path class="st1" d="M40.4,56.7c0,0-1.9,17.2-1.7,19.6s-1.3,6.6-1.3,6.6"/>
	<path class="st2" d="M32.9,56.1c0,0,3.8,26.5,2.9,27.3"/>
	<path class="st0" d="M45.9,56c-1.3,2.7-5.6,23.1-5.4,24.1c0.2,1,0,3.5,0,3.5"/>
	<path class="st3" d="M26.4,56.1c0,0,3.4,20.3,3.6,20.7c0.2,0.5,0,5.3,0,5.3"/>
	<path class="st4" d="M22.6,57.3c1.8,0.8,2.7,0.2,4,4.6l1.2,4.4c0,0-1,0.1-2.1,0.3c-1.1,0.2-5.3,1.3-7.4-1.6c-2.1-2.9-3-4.9-3.1-5.5
		c-0.2-0.7-1.3-2.8-1.5-3.4"/>
	<path class="st4" d="M62.8,26.8c-0.2,2,0.7,2.7-3.2,5.2l-3.9,2.5c0,0-0.4-0.9-0.9-1.9c-0.5-1-2.8-4.7-0.7-7.5
		c2.1-2.9,3.7-4.3,4.3-4.7c0.6-0.4,2.3-2.1,2.7-2.5"/>
	<path class="st5" d="M41.1,59.7c0-0.7,0.5-1.5,0.4-4.9c-0.1-3.4-0.6-6.1-3.2-6.7c-2.6-0.6-3.1,0.2-4.8-1.2l-1.7-1.5
		c0,0,0,2.9,0.3,7c0.3,4.1,4.4,6,6.2,6.6C40.1,59.4,41.1,59.7,41.1,59.7"/>
	<path class="st0" d="M27.8,28.8c-0.8,14.3,1.3,47.1,2.1,55.9"/>
	<path class="st0" d="M34.4,28.8c0.2,0.9-2.4,43.4-2.4,45.2c0,1.9-0.8,8.3-0.8,8.3"/>
	<path class="st1" d="M37.4,31.7c0,0-1.9,34.3-1.7,39c0.2,4.7-1.3,13.1-1.3,13.1"/>
	<path class="st2" d="M29.9,30.5c0,0,3.8,52.7,2.9,54.2"/>
	<path class="st0" d="M42.8,30.4c-1.3,5.4-5.6,45.9-5.4,48c0.2,2.1,0,6.9,0,6.9"/>
	<path class="st3" d="M23.3,30.5c0,0,3.4,40.4,3.6,41.3c0.2,0.9,0,10.5,0,10.5"/>
	<path class="st0" d="M41.2,30.6c-0.8,14.3,1.3,47.1,2.1,55.9"/>
	<path class="st0" d="M47.8,30.6c0.2,0.9-2.4,43.4-2.4,45.2c0,1.9-0.8,8.3-0.8,8.3"/>
	<path class="st1" d="M50.8,33.5c0,0-1.9,34.3-1.7,39c0.2,4.7-1.3,13.1-1.3,13.1"/>
	<path class="st2" d="M43.3,32.3c0,0,3.8,52.7,2.9,54.2"/>
	<path class="st0" d="M56.2,32.2c-1.3,5.4-5.6,45.9-5.4,48c0.2,2.1,0,6.9,0,6.9"/>
	<path class="st3" d="M36.7,32.3c0,0,3.4,40.4,3.6,41.3c0.2,0.9,0,10.5,0,10.5"/>
	<path class="st4" d="M85.4,65.9c-1.5,1.2-1.4,2.2-6,1l-4.6-1.2c0,0,0.3-0.9,0.7-1.9c0.4-1,1.2-5.1,4.8-5.4c3.6-0.3,5.8,0,6.5,0.2
		c0.7,0.2,3.2,0.3,3.8,0.4"/>
	<path class="st6" d="M35,63.2c0,0-2-1.3-5-0.6c-3,0.8-6.8,0.1-7.8-3.3c-1-3.3-2.5-4.9-2.5-4.9s0.1,0.5,2.7-0.4
		c2.6-0.9,6.9,0,8.7,2.5C32.9,59,35,63.2,35,63.2"/>
	<path class="st6" d="M61.7,75.8c0,0-2.3,0.4-4,3c-1.7,2.6-4.9,4.7-7.9,3c-3-1.8-5.2-1.8-5.2-1.8s0.4,0.3,1.7-2.1
		c1.3-2.4,5-4.7,8.1-4.2C57.4,74.2,61.7,75.8,61.7,75.8"/>
	<path class="st7" d="M78.8,70.7c0,0-2.1,0.8-3.3,3.9c-1.2,3-3.9,5.8-7,4.5c-3.1-1.3-5.1-1-5.1-1s0.4,0.2,1.2-2.5
		c0.8-2.7,4-5.8,6.9-5.7C74.5,69.8,78.8,70.7,78.8,70.7"/>
	<path class="st7" d="M35.1,79.8c0,0-2.2-0.7-5,0.8c-2.9,1.6-6.7,1.9-8.2-1.1c-1.5-3-3.3-4.1-3.3-4.1s0.2,0.5,2.5-1.1
		c2.4-1.6,6.8-1.8,9,0C32.3,76.3,35.1,79.8,35.1,79.8"/>
	<path class="st7" d="M96.8,29.2c0,0-2.1,0.8-3.3,3.9c-1.2,3-3.9,5.8-7,4.5c-3.1-1.3-5.1-1-5.1-1s0.4,0.2,1.2-2.5
		c0.8-2.7,4-5.8,6.9-5.7C92.5,28.3,96.8,29.2,96.8,29.2"/>
	<path class="st7" d="M11.1,35.8c0,0,2.1,1,5.1-0.2c3-1.2,6.9-1.1,8,2C25.3,40.7,27,42,27,42s-0.1-0.5-2.7,0.8
		c-2.6,1.3-6.9,1-8.9-1.1C13.4,39.5,11.1,35.8,11.1,35.8"/>
	<path class="st7" d="M90.9,48.7c0,0-2.1,0.8-3.3,3.9c-1.2,3-3.9,5.8-7,4.5c-3.1-1.3-5.1-1-5.1-1s0.4,0.2,1.2-2.5
		c0.8-2.7,4-5.8,6.9-5.7C86.5,47.8,90.9,48.7,90.9,48.7"/>
	<path class="st7" d="M49.6,57.3c0,0-2.1,0.8-3.3,3.9c-1.2,3-3.9,5.8-7,4.5c-3.1-1.3-5.1-1-5.1-1s0.4,0.2,1.2-2.5
		c0.8-2.7,4-5.8,6.9-5.7C45.2,56.5,49.6,57.3,49.6,57.3"/>
	<path class="st8" d="M32.4,66.7c2.5,0.7,5.4-1.9,8.5-0.3c3.1,1.6,5.6,6.3,6.6,7.7c0.9,1.3,1.9,0.6-0.7,1c-2.6,0.4-2.6,1.4-5,1.1
		c-2.4-0.2-6.2-3.3-6.6-4.7C34.7,70.1,32.4,66.7,32.4,66.7"/>
	<path class="st8" d="M49,71.3c2.5,0.7,5.4-1.9,8.5-0.3c3.1,1.6,5.6,6.3,6.6,7.7c0.9,1.3,1.9,0.6-0.7,1c-2.6,0.4-2.6,1.4-5,1.1
		c-2.4-0.2-6.2-3.3-6.6-4.7C51.3,74.7,49,71.3,49,71.3"/>
	<path class="st9" d="M26.1,24.3c-1.9,1.4-4.2,2.7-5.8,5.6s-2.9,6.8-3,7.6c-0.1,0.8-1,6-1.2,7c-0.2,1.1-0.3,3.3,1.1,5.1
		c1.4,1.8,5.9,6.1,8.6,6.8c2.7,0.7,6.7,1.4,8.9,1.1c2.2-0.3,4.5-2.4,5.9-2.6s2.3-0.2,4.4-1.1c2-0.9,5-3.1,5.6-3.8
		c0.6-0.7,1.3-1.5,1.7-2c0.4-0.5,1-1,0.6-1c-0.4,0-0.5-0.1-0.2-0.6c0.3-0.5,0.1-0.7,1-1.5c0.9-0.8,2.7-4.2,3-5.5
		c0.2-1.3,0.4-3.2,0.2-3.9S56.1,34,56.1,34s-0.8-5.6-2.7-7.4c-1.9-1.9-3.7-3.2-5.4-3.6c-1.7-0.4-3.9-0.5-3.9-0.5s-4.1-2.2-7.8-1.8
		C32.5,21,27,23.7,26.1,24.3z"/>
	<path class="st10" d="M23.6,42.9c2.7,0.7,14.6,4.2,15.7,4.1c1.1-0.2,7.8-3.7,8.4-4.3s3.1-2.2,3.5-2.6c0.5-0.4,1.4-1,1.5-0.6
		c0.2,0.4-1.4,4.2-2.5,5c-1.1,0.8-2.8,1.5-3.8,2.1c-1.1,0.7-2.6,0.3-1.9,1.6c0.7,1.3,1.5,1.8,0.7,2.1c-0.8,0.4-6.3,1.2-9.4,0.4
		c-3.1-0.8-8.6-3.1-9.3-3.5S25.8,47,25.8,47L23.6,42.9z"/>
	<path class="st11" d="M33.6,37c-0.3-0.2,1.7,0,2.6-0.4c0.9-0.4,1.3-1,1.6-0.7s1.2,1.1,0.8,1.7c-0.5,0.5-2.7,0.9-3.5,0.9
		C34.3,38.4,34.8,37.6,33.6,37z"/>
	<path class="st12" d="M24.5,31.6c1.7-2.9,2.8-4.4,4.8-5.5s5.6-1.8,7.2-1.6c1.7,0.3,2.6,0.9,3.1,1.1c0.5,0.2,1.2,0.7,1,0.9
		c-0.2,0.2-2.8-1.1-4.1-0.9c-1.3,0.2-3.4-0.1-5.3,0.7c-1.9,0.8-2.8,1.3-3.6,2C27,29,24.5,31.6,24.5,31.6z"/>
	<path class="st13" d="M23.4,31.5c0,0-2.5,3-3.1,4.8c-0.6,1.9-0.8,8.6,0.3,9.9s5.9,6.9,8.9,7.7c3.1,0.8,5.5,1.9,6.6,1.8
		s2.3,1.6,3.4,0.3c1.1-1.3,0.5-1.3,0.2-1.4c-0.3-0.1-6.3-1.5-7.8-2.2c-1.6-0.7-9.3-7.1-9.7-8.1c-0.4-1-0.8-4.4-0.8-4.4
		s0,0.4,0.3-1.4C21.9,36.7,23.2,32.4,23.4,31.5z"/>
	<path class="st14" d="M44.1,22.4c0.9,0.1,5.3,0.9,6.5,1.8c1.2,0.9,2.8,3.4,3.1,4.6c0.3,1.2,0.2,3.2-0.1,4.5
		c-0.3,1.2-1.7,4.3-1.7,4.3s0.3-5,0.3-6.1c0-1.1-0.9-2.4-0.9-2.4s0.2,4.2,0.1,4.9c-0.1,0.7-0.9,3-0.9,3s0.2-7-0.1-8
		c-0.3-1-1-2.3-1-2.3s0.1,5.8,0.3,5.9s-0.6,1-0.6,1s-0.3-0.9-0.5-1.9c-0.2-1-0.7-4.6-1.3-5.5c-0.6-0.9-1.6-2.1-1.9-2.6
		C45,23.2,44.1,22.4,44.1,22.4z"/>
	<path class="st15" d="M52.8,39.5c0,0,1.6-2.3,1.6-1.7c0,0.6-1.4,4.5-1.4,4.5l2.2-4.4c0,0,0.7-5.5,0.6-5.7c0-0.2-0.7-2.7-1-3.3
		c-0.3-0.6-2.9,8.6-2.9,8.6"/>
	<path class="st16" d="M29.3,42.4c0.5,0.1,4.2,1,5.1,1.2c0.9,0.1,5.9,0.8,6.5,0.6c0.6-0.2,2.3-0.7,2.6-1.2c0.4-0.4,1.8-3.3,1.7-4.7
		c-0.1-1.4,0-4.2-0.3-5.6c-0.3-1.4-2.9-4.3-3.1-4.7c-0.2-0.5-2.9-1.2-2.9-1.2s1,3.4,1,3.7c0.1,0.3,0.3,2.8,0.4,4.2
		c0.2,1.4,1.4,0,1.5-0.9c0-0.7,0.1-1.3,0.2-1.6c0.3-0.7-0.4,5.1-0.3,5.3s0.1,1.4-0.7,2.1c-0.8,0.7-4.5,1.6-4.9,1.3
		c-0.4-0.3-3.8-0.9-4.3-1.2c-0.6-0.3-2.4-1.5-2.5-2c-0.1-0.4-0.8-2-0.8-2s-1.3,1.9-1,2.9S28,42,29.3,42.4z"/>
	<path class="st17" d="M17.2,47.8c0.9,1.3,5.9,5.1,7.5,5.6s5.1,1.8,6.2,1.5c1.1-0.3-9.5-4.7-11-8.3s-0.7-6.4-0.8-6.7
		c-0.2-0.3-1.7,2-1.3,3.6c0.4,1.6,0.7,3.5,1.2,4.4c0.6,0.8-1.4-1.8-1.6-1.4C17.1,46.9,17.2,47.8,17.2,47.8z"/>
	<path class="st18" d="M35.9,35.4c0.2-0.4-1.1-5.3-1.8-6.4c-0.8-1.1-1-1.6-0.1-1.3c0.9,0.3,3.9,1.1,4.2,1.4c0.3,0.2,0.8,1.1,0.9,1.9
		c0,0.9-0.3,1.2-0.4,2.1c-0.1,1-1.6,1.6-1.2,2.2C37.8,35.9,35.9,35.4,35.9,35.4z"/>
	<path class="st19" d="M30,35.6c0.3-0.2,2.3-2.2,2.8-1.9c0.6,0.3,2-1.2,1-0.6c-1,0.6-2.3,0-2.8,0.4c-0.5,0.4-2.1,0.5-2,0.9
		C29.1,34.8,30,35.6,30,35.6z"/>
	<path class="st20" d="M33,28.7c0,0-2.6,0.4-2.9,0.4c-0.3,0-2.2,1.4-2.7,1.7c-0.4,0.2-1.6,1.9-2.1,2.6c-0.5,0.8-0.9,2-0.8,2.4
		c0.1,0.4,0.9-2.5,1.7-2.8c0.8-0.4,1.9-1.9,2.7-2.3c0.8-0.3,2.6-0.4,2.9-0.7C32.1,29.7,33,28.7,33,28.7z"/>
	<path class="st21" d="M25.7,35.4c0,0-0.1,2.9,0.3,3.6c0.3,0.8,0.9,1.8,1.1,2.4c0.2,0.6,1.3,1.9,0.8,1.7c-0.5-0.2-2.5-1-3-1.9
		c-0.5-1-1.4-1.7-1.1-2.4c0.3-0.7,0.8-1.1,0.9-1.6C24.6,36.7,25.7,35.4,25.7,35.4z"/>
	<path class="st21" d="M34.3,34.8c0.7,0.3,2.7,0,1.6,0.6C34.8,36,33,36.2,33.1,36C33.2,35.7,34.3,34.8,34.3,34.8z"/>
	<path class="st18" d="M28.6,31.9c-0.7,0.8-0.9,1-1.2,1.6s-1.7,1.8-1.7,1.8s2.1-1.3,2.5-1.9c0.4-0.6,1.3-0.9,1.8-1.2
		C30.6,32,29.3,31.2,28.6,31.9z"/>
	<path class="st22" d="M40.8,22.3c0,0,4.5,2.1,4.9,3.8c0.4,1.6,1.4,5.3,1.8,6.2c0.4,0.9,0.6,3.1,0.4,4.3c-0.2,1.2-1.5,3.5-1.5,3.5
		s0.4-5.7,0.1-7.3c-0.3-1.7-2.4-7.3-3-7.4c-0.6-0.1-2.4-0.2-2.8-1.5c-0.5-1.3-1.7-1.5-1.7-1.5L40.8,22.3z"/>
	<path class="st23" d="M44.4,34.5l-2.5,3c0,0,0.8-3.2,0.6-4.2c-0.3-1.1,0.3-1.6,0.4-2.3c0.1-0.7,0.6-1,1-0.4s1.2,2.3,1.2,2.8
		C45.1,34,44.4,34.5,44.4,34.5z"/>
	<path class="st9" d="M20.7,37.9c-0.1,0.3-0.1,2.8-0.1,3c0,0.2,0.4,2.3,0.5,2.4c0.1,0.1,0.2-1.2,0.3-1.4c0.2-0.3,0.2-3.3,0.2-3.3
		s0.1-0.6,0.2-1.1C22,36.9,20.7,37.9,20.7,37.9z"/>
	<path class="st12" d="M21.8,31.5c1.7-2.4,5.5-6,8.5-7.2c3-1.2,4.9-1,6.3-1.4c1.4-0.5,0.8-0.7-1.2-0.5s-6.6,1.5-8.4,2.7
		c-1.7,1.3-3,1.8-3.8,3.6C22.5,30.6,21.8,31.5,21.8,31.5z"/>
	<path class="st12" d="M29.8,49.3c0.9-0.2,9.1,2.8,10.8,2.2c1.7-0.5,5.9-1.2,7.7-1.9s4-3.3,2.3-2.3s-5.3,2.8-6.1,2.7
		c-0.8-0.1-4.5-1-6.6-0.1s-3.8-0.1-4.4-0.2S29.8,49.3,29.8,49.3z"/>
	<path class="st12" d="M31.8,35.7c0.3-0.4-0.9,0.9,0.1,1.5s1.8,1.1,1.8,1.1S29.7,38.3,31.8,35.7z"/>
	<path class="st12" d="M33.2,32c1.3,0.5-3.1,0.9-3.7,1.6C29,34.4,31,31.2,33.2,32z"/>
	<path class="st12" d="M32,27.7c2,0,3.9-1.6,5.1-1s-0.7-0.6-1.9-0.2C34,26.7,32,27.7,32,27.7z"/>
	<path class="st12" d="M39.5,32.2c0,0,1.1,6.2,0.4,6.2c-0.7,0,2.6-0.2,2-0.9C41.1,36.8,39.5,32.2,39.5,32.2z"/>
	<path class="st24" d="M33.3,42c1.1,0.3,4.2,2.1,5.5,1.4c1.4-0.7,3.1-0.8,3.9-1.2c0.8-0.3,3-1.7,2.9-1.3s0.8,1.2-1.1,2.5
		c-1.9,1.2-3.3,1.8-5.4,1.7c-2.1-0.1-2.8,0.1-3.7-0.8c-0.9-0.8-2-0.2-2.2-0.7S33.3,42,33.3,42z"/>
	<path class="st24" d="M39.1,23.7c0.1,0.1,0.6-0.7,2.6,1.2s2.4,2,2.7,3.6c0.3,1.6-2.6-1.2-4.7-2.9C37.6,23.9,39.1,23.7,39.1,23.7z"
		/>
	<path class="st24" d="M22.6,40.7c-0.4-1.5,0.2,3.9,3.2,6.3S23,41.9,22.6,40.7z"/>
	<path class="st24" d="M23.4,31.5c-0.9,3.4-3,5.8-2,8.4C22.4,42.5,23.4,31.5,23.4,31.5z"/>
	<path class="st24" d="M45.4,44.9c-2.6,1.5-3.9,0.8-6.1,2.1c-2.2,1.2-5,1.7-5.7,1.5c-0.7-0.2,3.4,0.5,4.7,0.4s3.5-1.8,4.1-1.8
		S45.4,44.9,45.4,44.9z"/>
	<path class="st9" d="M79.8,21.1c-2-0.4-4.1-1.2-7-0.5c-2.9,0.8-6.4,2.4-7,2.8c-0.6,0.4-4.8,3.2-5.7,3.8c-0.8,0.6-2.5,1.9-3.1,4.1
		c-0.6,2.2-1.4,8.2-0.5,10.6c0.9,2.4,2.4,5.7,3.8,7.1s4,1.7,4.9,2.5c0.9,0.8,1.4,1.5,3,2.4c1.7,0.9,4.8,1.5,5.6,1.5
		c0.8-0.1,1.7,0,2.3-0.1c0.6-0.1,1.2,0.1,1-0.2c-0.2-0.3-0.2-0.5,0.4-0.6s0.5-0.4,1.6-0.3c1.1,0.1,4.4-0.8,5.5-1.5
		c1-0.7,2.5-1.9,2.9-2.4c0.4-0.6,0.7-1.3,0.7-1.3s3.6-4.2,4-6.8c0.4-2.6,0.4-4.8-0.1-6.2c-0.6-1.5-1.6-3.1-1.6-3.1s-0.5-4.4-2.7-6.8
		S80.7,21.3,79.8,21.1z"/>
	<path class="st10" d="M65.1,31.5c0.9,2.4,4.4,13.2,5.1,13.9s6.7,3.1,7.4,3.2c0.7,0.1,3.2,0.8,3.7,0.8c0.5,0.1,1.4,0.3,1.2,0.7
		c-0.2,0.4-3.8,1.8-4.9,1.5c-1.1-0.3-2.5-1-3.5-1.3c-1-0.3-1.5-1.6-2.1-0.3s-0.5,2.2-1.2,1.9s-4.1-3.7-5.1-6.5s-2.2-8.2-2.2-9
		c-0.1-0.8-0.1-0.8-0.1-0.8L65.1,31.5z"/>
	<path class="st11" d="M74.5,34.8c-0.1-0.3,0.9,1.2,1.6,1.6c0.7,0.4,1.4,0.3,1.3,0.7s-0.2,1.6-0.8,1.6c-0.6,0-2.1-1.4-2.4-1.9
		C73.9,36.2,74.7,36,74.5,34.8z"/>
	<path class="st12" d="M73.8,24.7c3-0.7,4.6-0.9,6.4-0.2c1.8,0.7,4.2,2.8,4.8,4.1s0.7,2.4,0.8,2.9c0.1,0.5,0.1,1.3-0.1,1.3
		s-0.6-2.7-1.4-3.5c-0.8-0.8-1.7-2.5-3.2-3.3c-1.5-0.9-2.4-1.2-3.3-1.3C76.9,24.8,73.8,24.7,73.8,24.7z"/>
	<path class="st25" d="M73.3,23.9c0,0-3.4,0.2-5.1,1c-1.7,0.8-6.6,5.1-7,6.7c-0.4,1.6-2,8.7-1,11.4c1,2.7,1.5,5.2,2,5.9
		s0.1,2.7,1.5,2.6c1.5-0.1,1.2-0.5,1.1-0.8c-0.1-0.3-2.1-5.5-2.4-7c-0.3-1.5,0.4-11.3,0.9-12.3c0.5-0.9,2.8-3.5,2.8-3.5
		s-0.3,0.3,1.1-0.7C68.7,26.3,72.5,24.3,73.3,23.9z"/>
	<path class="st14" d="M90.4,32.7c0.4,0.7,2.1,4.4,2.1,5.8c0,1.4-1,4.2-1.7,5.2c-0.7,1-2.2,2.3-3.3,2.9c-1,0.6-4,1.7-4,1.7
		s3.8-3.1,4.6-3.8c0.8-0.7,1.3-2.2,1.3-2.2s-3,2.9-3.5,3.3c-0.5,0.4-2.6,1.3-2.6,1.3s5.2-4.5,5.7-5.4c0.5-0.9,1.1-2.2,1.1-2.2
		S86,43.2,86,43.4c0,0.2-1,0.2-1,0.2s0.5-0.8,1.1-1.6c0.6-0.7,3-3.5,3.3-4.5s0.7-2.5,0.8-3.1C90.3,33.8,90.4,32.7,90.4,32.7z"/>
	<path class="st15" d="M82.5,50.2c0,0,2.5-0.4,2,0c-0.4,0.4-4,2-4,2l4.3-1.3c0,0,4.3-3.1,4.4-3.3c0.1-0.2,1.6-2.3,1.9-2.9
		c0.3-0.6-7.7,3.6-7.7,3.6"/>
	<path class="st26" d="M68.4,35.3c0.2,0.4,1.4,3.7,1.8,4.4c0.3,0.7,2.5,4.7,2.9,5c0.4,0.3,1.7,1.1,2.2,1.1c0.5,0,3.3-0.9,4.3-1.9
		c1-1,3.1-2.8,3.9-3.9c0.8-1.2,1.6-4.9,1.8-5.3c0.2-0.4-0.6-2.8-0.6-2.8s-1.9,2.9-2.1,3.2c-0.2,0.3-1.9,2.1-2.8,3.1
		c-0.9,1,0.7,1,1.4,0.5c0.5-0.4,1-0.8,1.2-0.9c0.6-0.3-3.9,3-3.9,3.3c0,0.3-0.9,0.9-1.9,0.9c-0.9-0.1-3.5-2.2-3.5-2.6
		c0-0.5-1.2-3.3-1.3-3.9c-0.1-0.6-0.1-2.7,0.1-3.1c0.2-0.3,1-1.9,1-1.9s-2.1,0.3-2.6,1.2C69.8,32.4,68,34.1,68.4,35.3z"/>
	<path class="st17" d="M58.3,30.2c-0.4,1.5-0.7,7.5-0.2,9c0.4,1.5,1.3,4.8,2.1,5.4c0.8,0.6-1.5-9.9,0.4-13.3s4.3-4.7,4.4-5
		c0.1-0.3-2.3,0.1-3.2,1.5c-0.9,1.3-2.2,2.8-2.5,3.7c-0.3,0.9,0.6-2.2,0.2-2C58.9,29.6,58.3,30.2,58.3,30.2z"/>
	<path class="st27" d="M76.9,35.4c0.4-0.1,3.3-4.3,3.7-5.6c0.4-1.3,0.7-1.8,0.9-0.9c0.2,0.8,1.2,3.6,1.2,3.9c0,0.4-0.3,1.3-0.9,1.9
		c-0.6,0.6-1,0.6-1.7,1.1c-0.7,0.5-1.9-0.1-2.2,0.6C77.5,37,76.9,35.4,76.9,35.4z"/>
	<path class="st19" d="M73.7,31.3c0.3,0.1,2.7,0.2,2.8,0.7c0.1,0.6,1.9,0.7,0.9,0.3s-1.2-1.6-1.7-1.7c-0.5-0.1-1.5-1.2-1.7-0.9
		C73.8,30.1,73.7,31.3,73.7,31.3z"/>
	<path class="st20" d="M80.1,28.9c0,0-1.6-1.6-1.7-1.8c-0.2-0.2-2.2-0.6-2.6-0.8c-0.4-0.2-2.2,0.1-3,0.3c-0.8,0.2-1.9,0.7-2.2,1
		s2.2-1,2.9-0.6s2.4,0.1,3,0.4c0.6,0.3,1.6,1.6,2,1.6C79,28.9,80.1,28.9,80.1,28.9z"/>
	<path class="st21" d="M71.6,28c0,0-2.1,1.8-2.5,2.6c-0.4,0.7-0.8,1.8-1.2,2.4c-0.4,0.6-0.7,2.1-0.8,1.6c-0.1-0.5-0.6-2.4-0.1-3.4
		c0.5-1,0.5-2.1,1.2-2.4c0.6-0.2,1.2-0.1,1.6-0.4C70.1,28.2,71.6,28,71.6,28z"/>
	<path class="st21" d="M76.5,33.8c0.2,0.6,1.4,1.9,0.4,1.5c-1-0.4-2.1-1.5-1.9-1.6C75.2,33.7,76.5,33.8,76.5,33.8z"/>
	<path class="st18" d="M75.6,27.9c-0.9,0-1.2,0-1.8,0.2c-0.6,0.2-2.2,0-2.2,0s2,0.7,2.6,0.5c0.6-0.1,1.3,0.4,1.8,0.5
		S76.5,27.9,75.6,27.9z"/>
	<path class="st22" d="M88.8,30.2c0,0,0.8,4.6-0.2,6s-3.1,4.5-3.6,5.4s-1.9,2.5-2.9,3.1c-1,0.7-3.3,1.2-3.3,1.2s4.3-3.5,5.3-4.8
		c1.1-1.3,4-6.5,3.8-7s-1-1.8-0.4-3c0.7-1.2,0.2-2.2,0.2-2.2L88.8,30.2z"/>
	<path class="st23" d="M81.8,40.8L78.4,41c0,0,2.7-1.5,3.3-2.4c0.6-0.9,1.3-0.8,1.9-1.2s1-0.3,0.8,0.5c-0.3,0.8-1,2.3-1.4,2.7
		C82.6,41,81.8,40.8,81.8,40.8z"/>
	<path class="st9" d="M67.2,26.2c-0.3,0.1-2.1,1.8-2.2,1.9s-1.4,1.8-1.5,1.9s0.9-0.7,1.2-0.7c0.3,0,2.5-2,2.5-2s0.5-0.3,0.9-0.6
		C68.6,26.4,67.2,26.2,67.2,26.2z"/>
	<path class="st12" d="M72.5,22.7c2.6-0.4,7.1,0,9.5,1.4c2.4,1.4,3.2,2.9,4.3,3.5c1,0.7,0.9,0.1-0.3-1.2s-4.4-3.8-6.2-4.2
		s-2.8-1-4.6-0.3C73.4,22.6,72.5,22.7,72.5,22.7z"/>
	<path class="st12" d="M63.7,40.2c0.6,0.5,2.6,8.3,3.9,9.2c1.3,0.9,3.9,3.4,5.3,4.2c1.4,0.8,4.4,0.6,2.9,0.1
		c-1.6-0.5-4.8-1.9-5.1-2.6s-1.6-3.9-3.3-4.7c-1.7-0.9-1.9-2.8-2.1-3.3S63.7,40.2,63.7,40.2z"/>
	<path class="st12" d="M74.5,32.6c0.5,0-1.1,0-1.1,1.1c0,1.1,0.2,2,0.2,2S71.6,32.8,74.5,32.6z"/>
	<path class="st12" d="M77.9,31.2c0.3,1.3-2.2-1.7-3.1-1.5S77.4,29.1,77.9,31.2z"/>
	<path class="st12" d="M80.4,27.5c1,1.4,3.1,1.7,3.3,2.9c0.2,1.2,0-0.9-0.8-1.5C82.1,28.3,80.4,27.5,80.4,27.5z"/>
	<path class="st12" d="M81,35.8c0,0-3.9,4.9-4.2,4.3c-0.3-0.6,1.5,1.8,1.6,0.8C78.5,40.1,81,35.8,81,35.8z"/>
	<path class="st24" d="M70.7,37.9c0.3,1,0.6,4.4,1.8,4.9s2.2,1.7,2.8,2c0.6,0.3,2.8,1,2.4,1.2s-0.5,1.4-2.4,0.8
		c-1.9-0.5-3-1.2-4-2.7c-1-1.5-1.5-1.9-1.4-3.2s-0.9-1.6-0.6-2C69.7,38.4,70.7,37.9,70.7,37.9z"/>
	<path class="st24" d="M86.9,30c0,0.1,0.8,0,0.5,2.6c-0.3,2.6-0.2,3-1.3,4.3s-0.4-2.6-0.3-5.3S86.9,30,86.9,30z"/>
	<path class="st24" d="M66.2,29.4c0.8-1.2-2.7,2.7-2.9,6.4C63.1,39.5,65.5,30.5,66.2,29.4z"/>
	<path class="st24" d="M73.3,23.9c-2.9,1.6-5.8,1.7-7.1,4.1S73.3,23.9,73.3,23.9z"/>
	<path class="st24" d="M74.9,48.5c-2.4-0.9-2.6-2.3-4.6-3s-3.8-2.4-4-3.1c-0.2-0.6,1.4,2.8,2.1,3.6c0.7,0.8,3.1,1.3,3.4,1.7
		C72.1,48.2,74.9,48.5,74.9,48.5z"/>
	<path class="st28" d="M57.4,41.4c1.9,0.5,4,0.7,6.1,2.7c2.1,2,4.4,5,4.7,5.7c0.3,0.7,2.7,5,3.2,5.9s1.3,2.9,0.9,5.1
		c-0.5,2.2-2.3,8-4.1,9.7s-4.5,4-6.2,4.6c-1.7,0.6-4.1-0.3-5.2,0c-1.1,0.3-1.8,0.7-3.6,0.7c-1.8,0-4.7-0.8-5.4-1.2s-1.5-0.8-1.9-1.2
		c-0.5-0.3-1.1-0.5-0.8-0.7c0.3-0.2,0.3-0.3-0.1-0.7s-0.3-0.6-1.2-1c-0.9-0.4-3.4-2.7-4-3.8c-0.6-1.1-1.3-2.8-1.4-3.5
		c-0.1-0.7,0-1.5,0-1.5s-1.3-5.4-0.5-7.9c0.8-2.5,1.7-4.4,2.8-5.5C42,48,43.5,47,43.5,47s2.2-3.7,5.2-4.9
		C51.6,41,56.5,41.1,57.4,41.4z"/>
	<path class="st29" d="M65.3,57.4c-1.7,1.7-9.3,9.8-10.2,10.1c-0.9,0.3-6.9-0.2-7.6-0.5c-0.7-0.2-3-0.7-3.4-0.9s-1.3-0.3-1.3,0.1
		c0,0.4,2.4,3.3,3.5,3.5c1.1,0.2,2.5,0.2,3.5,0.4s2-0.7,1.9,0.7c-0.1,1.5-0.5,2.2,0.2,2.2s5-1.5,7.1-3.5c2-2,5.3-6.3,5.7-7
		S65,62,65,62L65.3,57.4z"/>
	<path class="st11" d="M56,56c0.2-0.3-1.3,0.7-2,0.7s-1.3-0.3-1.4,0s-0.5,1.5,0,1.8s2.3-0.3,2.8-0.6C56,57.6,55.4,57,56,56z"/>
	<path class="st12" d="M60.9,47.4c-2.2-2-3.5-2.9-5.4-3s-4.7,0.6-5.8,1.5c-1.1,0.9-1.6,1.9-1.9,2.3s-0.7,1.2-0.5,1.2
		c0.2,0.1,1.7-2.2,2.7-2.5c1.1-0.4,2.5-1.4,4.1-1.5s2.5,0,3.3,0.3S60.9,47.4,60.9,47.4z"/>
	<path class="st30" d="M61.7,46.9c0,0,2.8,1.7,3.8,3.2c1.1,1.5,3.4,7.6,3,9.2s-2,8.7-4,10.7s-3.4,3.9-4.2,4.4
		c-0.8,0.4-1.2,2.4-2.4,1.6c-1.2-0.7-0.8-1-0.6-1.2s4.1-3.9,5-5.2c0.9-1.2,4.5-10.3,4.4-11.4c-0.1-1.1-0.9-4.4-0.9-4.4
		s0.1,0.4-0.7-1.2C64.5,51,62.2,47.5,61.7,46.9z"/>
	<path class="st14" d="M43.5,47c-0.7,0.4-3.6,2.9-4.2,4.3c-0.6,1.3-0.9,4.2-0.7,5.4c0.2,1.2,0.9,3,1.5,4c0.6,1,2.6,3.3,2.6,3.3
		s-1.8-4.5-2.2-5.5c-0.4-1-0.1-2.6-0.1-2.6s1.3,3.9,1.5,4.5c0.3,0.6,1.7,2.4,1.7,2.4s-2.4-6.3-2.5-7.4s0-2.5,0-2.5s1.8,5.3,1.7,5.5
		c-0.1,0.2,0.8,0.7,0.8,0.7s-0.1-1-0.3-1.9c-0.2-0.9-1-4.5-0.9-5.5s0.5-2.6,0.6-3.1S43.5,47,43.5,47z"/>
	<path class="st15" d="M42.7,66.2c0,0-1.9-1.5-1.7-0.9s2.5,3.6,2.5,3.6l-3-3.1c0,0-2.3-4.7-2.3-5s-0.4-2.7-0.4-3.4
		c0-0.7,4.9,6.7,4.9,6.7"/>
	<path class="st31" d="M60.9,59.2c-0.3,0.3-2.8,2.7-3.4,3.2c-0.6,0.5-4.1,3.1-4.6,3.2s-1.9,0.2-2.3,0c-0.4-0.2-2.4-2.3-2.8-3.6
		c-0.4-1.3-1.4-3.9-1.6-5.3c-0.2-1.4,0.7-5.1,0.7-5.6s1.7-2.2,1.7-2.2s0.4,3.5,0.5,3.8c0.1,0.3,0.7,2.7,1.1,4c0.3,1.3-1,0.6-1.4-0.2
		c-0.3-0.6-0.5-1.1-0.7-1.3c-0.4-0.5,2,4.4,1.9,4.7c-0.1,0.2,0.4,1.3,1.2,1.6c0.8,0.4,3.8-0.4,4-0.8c0.2-0.4,2.4-2.4,2.8-2.9
		c0.3-0.5,1.3-2.4,1.2-2.8c-0.1-0.4-0.1-2.1-0.1-2.1s1.6,1.2,1.7,2.2C61,56,61.8,58.3,60.9,59.2z"/>
	<path class="st17" d="M71.6,59.2c-0.3,1.5-2.6,7-3.6,8.2c-1,1.2-3.1,3.7-4,3.9s5.4-8.2,5.4-12.1s-1.6-6.1-1.6-6.5
		c0-0.3,1.9,1.2,2.1,2.8c0.2,1.6,0.7,3.5,0.5,4.5c-0.1,1,0.5-2.2,0.7-1.9S71.6,59.2,71.6,59.2z"/>
	<path class="st32" d="M53.8,55.5c-0.3-0.3-0.9-5.3-0.7-6.6c0.2-1.3,0.2-1.9-0.3-1.2s-2.5,2.6-2.6,3s-0.3,1.3,0,2.1
		c0.3,0.8,0.6,1,1,1.8s1.7,0.8,1.6,1.5C52.6,56.7,53.8,55.5,53.8,55.5z"/>
	<path class="st19" d="M58.2,53.3c-0.3-0.1-2.4-1.1-2.7-0.6c-0.3,0.5-1.8-0.2-0.9-0.1c0.9,0.1,1.7-0.9,2.2-0.8
		c0.5,0.1,1.7-0.4,1.8,0C58.6,52.2,58.2,53.3,58.2,53.3z"/>
	<path class="st20" d="M53.8,48.2c0,0,2-0.7,2.2-0.8c0.2-0.1,2.1,0.4,2.5,0.4c0.4,0,1.8,1.1,2.4,1.6c0.6,0.5,1.3,1.5,1.4,1.9
		c0.1,0.4-1.5-1.9-2.2-1.9c-0.7,0-2-1-2.7-1c-0.7,0-2,0.7-2.3,0.5S53.8,48.2,53.8,48.2z"/>
	<path class="st21" d="M61.3,51.3c0,0,1,2.6,1,3.4s-0.1,2,0,2.6c0.1,0.7-0.3,2.2,0,1.8c0.3-0.4,1.5-1.9,1.6-3c0-1.1,0.4-2.1,0-2.6
		c-0.4-0.5-1-0.7-1.2-1.1S61.3,51.3,61.3,51.3z"/>
	<path class="st21" d="M54.8,54.3c-0.4,0.5-2,1.1-1,1.2s2.4-0.4,2.2-0.6S54.8,54.3,54.8,54.3z"/>
	<path class="st18" d="M58,49.4c0.7,0.4,1,0.6,1.4,1c0.4,0.4,1.8,1,1.8,1s-2-0.3-2.4-0.7s-1.2-0.3-1.7-0.3S57.3,49,58,49.4z"/>
	<path class="st22" d="M45.9,45.5c0,0-2.6,3.8-2.4,5.4c0.3,1.6,0.7,5.4,0.7,6.4c0,1,0.6,3.1,1.1,4.1c0.5,1,2.2,2.6,2.2,2.6
		s-2.1-5-2.4-6.7c-0.3-1.6-0.6-7.6-0.2-8c0.4-0.3,1.7-1.2,1.6-2.5c-0.1-1.3,0.7-2.1,0.7-2.1L45.9,45.5z"/>
	<path class="st23" d="M47.3,58.1l2.8,1.7c0,0-1.7-2.5-1.8-3.6c-0.1-1.1-0.8-1.3-1.1-1.9s-0.7-0.7-0.8,0.1c-0.1,0.8-0.1,2.5,0,3.1
		S47.3,58.1,47.3,58.1z"/>
	<path class="st9" d="M65.8,51.6c0.2,0.2,1,2.5,1.1,2.7s0.5,2.2,0.4,2.4c-0.1,0.2-0.5-1-0.7-1.2s-1.3-2.9-1.3-2.9s-0.3-0.5-0.5-0.9
		C64.5,51.2,65.8,51.6,65.8,51.6z"/>
	<path class="st12" d="M62.9,46.2c-2-1.5-6-3.3-8.6-3.1c-2.6,0.2-3.9,1.1-5.1,1.2c-1.2,0.1-0.8-0.3,0.7-1c1.5-0.6,5.3-1.4,7-0.9
		c1.7,0.5,2.8,0.4,4,1.8C62.1,45.6,62.9,46.2,62.9,46.2z"/>
	<path class="st12" d="M62.9,65.7c-0.7,0.2-5.8,6.2-7.2,6.4c-1.4,0.2-4.7,1.3-6.3,1.4c-1.5,0.1-4-1.4-2.5-1.2c1.5,0.3,4.8,0.5,5.4,0
		s3-2.7,4.8-2.7c1.8,0,2.8-1.6,3.1-2S62.9,65.7,62.9,65.7z"/>
	<path class="st12" d="M56.9,54.1c-0.4-0.2,1,0.5,0.5,1.4c-0.5,1-1,1.7-1,1.7S59.3,55.6,56.9,54.1z"/>
	<path class="st12" d="M54.7,51.3c-0.8,1,2.6-0.5,3.2,0S56,49.7,54.7,51.3z"/>
	<path class="st12" d="M54.2,46.9c-1.5,0.8-3.4,0.1-4,1.1s0.4-0.8,1.3-1C52.4,46.8,54.2,46.9,54.2,46.9z"/>
	<path class="st12" d="M50.1,54c0,0,1.2,6.1,1.7,5.8c0.5-0.3-2,0.9-1.7,0C50.4,58.9,50.1,54,50.1,54z"/>
	<path class="st24" d="M57.9,60.5c-0.7,0.7-2.4,3.7-3.6,3.5c-1.2-0.1-2.6,0.5-3.2,0.5s-2.8-0.4-2.5,0c0.2,0.4-0.2,1.4,1.6,1.8
		c1.8,0.4,3,0.3,4.5-0.6c1.5-0.9,2.1-1.1,2.5-2.2c0.4-1.1,1.4-1,1.4-1.5C58.5,61.5,57.9,60.5,57.9,60.5z"/>
	<path class="st24" d="M47.6,46.2c0,0.1-0.7-0.4-1.5,2.1s-1.1,2.8-0.8,4.4c0.3,1.6,1.5-2.1,2.5-4.6S47.6,46.2,47.6,46.2z"/>
	<path class="st24" d="M65.3,54.9c-0.2-1.5,1.1,3.6-0.3,7C63.7,65.4,65.4,56.2,65.3,54.9z"/>
	<path class="st24" d="M61.7,46.9c1.8,2.7,4.1,4.1,4.2,6.9C66,56.5,61.7,46.9,61.7,46.9z"/>
	<path class="st24" d="M49.9,68.1c2.4,0.3,3.2-0.8,5.1-0.6s4.2-0.5,4.7-0.9s-2.4,1.9-3.3,2.2s-3.1-0.3-3.6,0
		C52.4,69.1,49.9,68.1,49.9,68.1z"/>
</g>
</svg>
