<?xml version="1.0" encoding="utf-8"?>
<!-- Generator: Adobe Illustrator 23.1.1, SVG Export Plug-In . SVG Version: 6.00 Build 0)  -->
<svg version="1.1" id="Layer_1" xmlns="http://www.w3.org/2000/svg" xmlns:xlink="http://www.w3.org/1999/xlink" x="0px" y="0px"
	 viewBox="0 0 108 108" style="enable-background:new 0 0 108 108;" xml:space="preserve">
<style type="text/css">
	.st0{fill:none;stroke:#718638;stroke-width:0.512;stroke-miterlimit:10;}
	.st1{fill:#A6C339;}
	.st2{fill:#85B541;}
	.st3{fill:#91BC3E;}
	.st4{fill:#B0CC37;}
	.st5{fill:#93B93F;}
	.st6{fill:#A6BD3A;}
	.st7{fill:none;stroke:#718638;stroke-width:0.6888;stroke-miterlimit:10;}
	.st8{fill:#A5C939;}
	.st9{fill:none;stroke:#718638;stroke-width:0.5054;stroke-miterlimit:10;}
	.st10{fill:none;stroke:#718638;stroke-width:0.4512;stroke-miterlimit:10;}
	.st11{fill:none;stroke:#718638;stroke-width:0.4579;stroke-miterlimit:10;}
	.st12{fill:none;stroke:#718638;stroke-width:0.6564;stroke-miterlimit:10;}
	.st13{fill:none;stroke:#718638;stroke-width:0.5938;stroke-miterlimit:10;}
	.st14{fill:#72AA42;}
	.st15{fill:#F27C9C;}
	.st16{fill:#F6A7BB;}
	.st17{fill:#F382A2;}
	.st18{fill:#F6AFCE;}
	.st19{fill:#F49EC4;}
	.st20{fill:#C9215B;}
	.st21{fill:#BBB033;}
	.st22{fill:#EEC162;}
</style>
<g>
	<path class="st0" d="M59.61,80.36c-0.03-1.23-0.51-3.42-0.85-4.98"/>
	<path class="st0" d="M62.85,78.78c-1.62-0.65-3.69-2.11-4.72-3.69"/>
	<path class="st0" d="M63.4,75.6c-1.84,0.89-3.36,1.91-4.63,0.07"/>
	<path class="st0" d="M56.02,72.1c-1.94-1.5-3.79-3.5-4.51-5.26"/>
	<path class="st0" d="M52.03,73.55c0.22-2.54-0.47-6.43-0.56-7.23"/>
	<path class="st0" d="M55.47,68.72c-1.51,0.47-2.36,1.21-3.84-1.3"/>
	<path class="st1" d="M56.97,82.75c-0.16-0.97-0.65-1.18,0.97-2.9l1.63-1.73c0,0,0.32,0.38,0.7,0.8c0.38,0.42,1.98,1.85,1.26,3.5
		c-0.72,1.66-1.35,2.56-1.59,2.82c-0.25,0.26-0.89,1.3-1.07,1.55"/>
	<path class="st2" d="M68.42,83.25c-1.19-0.49-2.89,0.57-4.33-0.44c-1.44-1.01-2.26-3.51-2.6-4.23c-0.34-0.72-0.93-0.41,0.43-0.43
		c1.36-0.03,1.43-0.49,2.61-0.2c1.18,0.28,2.81,2.04,2.92,2.77C67.56,81.45,68.42,83.25,68.42,83.25"/>
	<path class="st3" d="M61.34,76.62c0.35,0,0.75,0.29,2.46,0.32c1.71,0.03,3.06-0.16,3.35-1.46c0.3-1.3-0.12-1.56,0.61-2.42
		l0.73-0.86c0,0-1.47-0.05-3.52,0.01c-2.05,0.05-3.01,2.13-3.26,3C61.46,76.08,61.34,76.62,61.34,76.62"/>
	<path class="st4" d="M60.41,76.64c0,0-0.79-0.87-2.4-0.88c-1.61-0.01-3.38-0.8-3.38-2.51c0-1.71-0.55-2.65-0.55-2.65
		s-0.04,0.24,1.37,0.13c1.41-0.11,3.4,0.86,3.96,2.25C59.97,74.38,60.41,76.64,60.41,76.64"/>
	<path class="st5" d="M50.71,78.81c0,0,2.08-2.08,2.72-3.49c0.64-1.41,0.81-2.25-0.01-3.25c-0.83-1-1.13-1.81-1.13-1.81
		s-1.17,1.75-1.94,2.15c-0.77,0.41-1.62,1.83-1.2,2.68C49.55,75.94,50.71,78.81,50.71,78.81"/>
	<path class="st6" d="M53.96,69.19c0,0.03,1.24,0.54,2.72,0.72c1.48,0.18,2.28,0.17,2.86-0.57c0.58-0.74,0.97-1.52,1.39-2.38
		c0.41-0.86,0.47-1.21,0.81-1.29c0.34-0.08-0.43,0.3-2.06-0.11c-1.63-0.41-2.41-0.85-3.09-0.32c-0.68,0.53-0.66,1.52-1.21,2.31
		C54.83,68.35,53.96,69.19,53.96,69.19"/>
	<path class="st7" d="M31.13,74.41c1.59-0.44,4.29-1.8,6.21-2.75"/>
	<path class="st7" d="M34.26,78.12c0.31-2.32,1.54-5.5,3.26-7.37"/>
	<path class="st7" d="M38.59,77.8c-1.76-2.1-3.6-3.75-1.62-6.01"/>
	<path class="st7" d="M40.71,67.01c1.32-3.03,3.31-6.1,5.37-7.61"/>
	<path class="st7" d="M37.51,62.29c3.38-0.55,8.22-2.73,9.24-3.12"/>
	<path class="st7" d="M44.94,65.18c-1.11-1.81-2.35-2.68,0.42-5.44"/>
	<path class="st2" d="M27.14,71.76c1.22-0.53,1.32-1.24,4.11,0.31l2.79,1.55c0,0-0.38,0.54-0.81,1.18c-0.43,0.63-1.75,3.2-4.15,2.8
		c-2.4-0.4-3.78-0.91-4.2-1.15c-0.42-0.24-1.99-0.72-2.38-0.88"/>
	<path class="st8" d="M30.27,86.86c0.25-1.71-1.7-3.58-0.86-5.79c0.84-2.21,3.82-4.1,4.65-4.79c0.83-0.68,0.23-1.35,0.71,0.41
		c0.48,1.76,1.1,1.71,1.13,3.34c0.02,1.63-1.74,4.34-2.65,4.72C32.34,85.14,30.27,86.86,30.27,86.86"/>
	<path class="st3" d="M36.57,75.44c0.12,0.46-0.13,1.07,0.4,3.31c0.53,2.24,1.21,3.93,3.01,3.89c1.8-0.04,2-0.68,3.36,0l1.36,0.67
		c0,0-0.43-1.93-1.17-4.59c-0.74-2.65-3.77-3.22-4.99-3.26C37.32,75.42,36.57,75.44,36.57,75.44"/>
	<path class="st4" d="M36.24,74.24c0,0,0.88-1.31,0.35-3.42c-0.52-2.11-0.07-4.67,2.16-5.24c2.23-0.56,3.27-1.6,3.27-1.6
		s-0.33,0.04,0.28,1.83c0.61,1.8,0.01,4.72-1.63,5.91C39.04,72.92,36.24,74.24,36.24,74.24"/>
	<path class="st5" d="M30.21,62.31c0,0,3.4,2.02,5.45,2.39c2.05,0.36,3.2,0.32,4.24-1.09c1.04-1.41,1.98-2.07,1.98-2.07
		s-2.66-0.95-3.44-1.82c-0.78-0.87-2.92-1.5-3.89-0.69C33.57,59.85,30.21,62.31,30.21,62.31"/>
	<path class="st6" d="M43.82,63.38c-0.03,0.01-0.3,1.8-0.04,3.79c0.26,1.99,0.53,3.03,1.69,3.55c1.16,0.52,2.3,0.77,3.56,1.03
		c1.26,0.25,1.73,0.21,1.95,0.63c0.22,0.42-0.53-0.46-0.54-2.72c-0.01-2.26,0.32-3.43-0.6-4.14c-0.92-0.71-2.19-0.35-3.41-0.81
		C45.21,64.23,43.82,63.38,43.82,63.38"/>
	<path class="st9" d="M32.95,39.38c0.38,1.15,1.47,3.07,2.24,4.45"/>
	<path class="st9" d="M30.35,41.81c1.71,0.14,4.09,0.92,5.52,2.12"/>
	<path class="st9" d="M30.74,44.97c1.48-1.37,2.62-2.77,4.34-1.41"/>
	<path class="st9" d="M38.72,46.13c2.27,0.86,4.59,2.2,5.77,3.65"/>
	<path class="st9" d="M42.06,43.61c0.53,2.46,2.3,5.93,2.62,6.65"/>
	<path class="st9" d="M40.22,49.16c1.28-0.88,1.88-1.82,4,0.11"/>
	<path class="st1" d="M34.74,36.36c0.43,0.87,0.96,0.92-0.08,3.02l-1.03,2.1c0,0-0.41-0.26-0.89-0.55c-0.48-0.29-2.41-1.17-2.2-2.94
		c0.2-1.77,0.53-2.8,0.69-3.12c0.16-0.32,0.46-1.48,0.56-1.77"/>
	<path class="st2" d="M23.8,39.21c1.26,0.12,2.56-1.38,4.21-0.84c1.65,0.53,3.15,2.65,3.68,3.23c0.53,0.58,1,0.11-0.28,0.53
		C30.13,42.55,30.2,43,29,43.08c-1.2,0.08-3.24-1.11-3.56-1.77C25.13,40.66,23.8,39.21,23.8,39.21"/>
	<path class="st3" d="M32.4,43.41c-0.33,0.1-0.79-0.06-2.41,0.42c-1.62,0.47-2.84,1.03-2.74,2.35c0.1,1.32,0.57,1.44,0.12,2.46
		l-0.44,1.02c0,0,1.4-0.38,3.32-1.03c1.92-0.64,2.22-2.88,2.21-3.78C32.44,43.95,32.4,43.41,32.4,43.41"/>
	<path class="st4" d="M33.26,43.12c0,0,1,0.59,2.52,0.13c1.53-0.46,3.42-0.22,3.92,1.39c0.49,1.61,1.29,2.34,1.29,2.34
		s-0.04-0.24-1.33,0.27c-1.29,0.51-3.45,0.18-4.39-0.98C34.34,45.12,33.26,43.12,33.26,43.12"/>
	<path class="st5" d="M41.78,38.26c0,0-1.36,2.57-1.55,4.08c-0.19,1.51-0.11,2.36,0.95,3.06c1.07,0.71,1.59,1.38,1.59,1.38
		s0.6-1.98,1.21-2.59c0.61-0.61,1-2.2,0.36-2.88C43.71,40.64,41.78,38.26,41.78,38.26"/>
	<path class="st6" d="M41.5,48.28c-0.01-0.02-1.33-0.15-2.78,0.11c-1.45,0.26-2.2,0.5-2.53,1.37c-0.34,0.87-0.48,1.71-0.62,2.64
		c-0.14,0.93-0.09,1.28-0.39,1.45c-0.3,0.17,0.32-0.41,1.98-0.5c1.66-0.09,2.52,0.1,3.01-0.59c0.49-0.7,0.18-1.62,0.47-2.53
		C40.93,49.32,41.5,48.28,41.5,48.28"/>
	<path class="st9" d="M51.35,43.69c0.01,1.21,0.46,3.38,0.76,4.92"/>
	<path class="st9" d="M48.13,45.2c1.58,0.67,3.61,2.14,4.6,3.71"/>
	<path class="st9" d="M47.53,48.32c1.83-0.85,3.34-1.83,4.56,0"/>
	<path class="st9" d="M54.76,51.88c1.9,1.51,3.69,3.51,4.37,5.25"/>
	<path class="st9" d="M58.72,50.52c-0.26,2.5,0.37,6.35,0.45,7.14"/>
	<path class="st9" d="M55.25,55.23c1.49-0.44,2.34-1.15,3.77,1.34"/>
	<path class="st1" d="M53.99,41.36c0.14,0.96,0.63,1.17-1.01,2.85l-1.63,1.68c0,0-0.31-0.38-0.68-0.8
		c-0.37-0.42-1.93-1.85-1.19-3.47c0.74-1.62,1.37-2.51,1.61-2.76c0.25-0.25,0.89-1.27,1.08-1.52"/>
	<path class="st2" d="M42.69,40.7c1.16,0.51,2.86-0.52,4.26,0.49c1.41,1.02,2.18,3.49,2.51,4.21c0.33,0.72,0.91,0.42-0.43,0.42
		s-1.42,0.46-2.58,0.16c-1.16-0.3-2.74-2.06-2.84-2.78C43.51,42.49,42.69,40.7,42.69,40.7"/>
	<path class="st3" d="M49.58,47.34c-0.35,0-0.74-0.3-2.42-0.35c-1.69-0.05-3.02,0.11-3.33,1.39c-0.31,1.28,0.1,1.55-0.64,2.38
		l-0.74,0.83c0,0,1.45,0.07,3.47,0.05c2.02-0.02,3-2.05,3.26-2.91C49.45,47.88,49.58,47.34,49.58,47.34"/>
	<path class="st4" d="M50.5,47.34c0,0,0.76,0.87,2.36,0.9c1.59,0.03,3.33,0.84,3.3,2.53c-0.03,1.68,0.51,2.62,0.51,2.62
		s0.04-0.24-1.35-0.15c-1.39,0.09-3.34-0.89-3.88-2.28C50.9,49.58,50.5,47.34,50.5,47.34"/>
	<path class="st5" d="M60.1,45.35c0,0-2.08,2.02-2.73,3.4c-0.65,1.38-0.83,2.21-0.04,3.21c0.8,1,1.08,1.8,1.08,1.8
		s1.18-1.7,1.95-2.09c0.76-0.39,1.62-1.78,1.23-2.63C61.2,48.2,60.1,45.35,60.1,45.35"/>
	<path class="st6" d="M56.75,54.78c0-0.03-1.22-0.55-2.68-0.75c-1.46-0.2-2.25-0.2-2.83,0.52c-0.59,0.72-0.99,1.48-1.41,2.32
		c-0.42,0.84-0.48,1.19-0.82,1.26c-0.34,0.07,0.43-0.29,2.03,0.14c1.6,0.42,2.37,0.88,3.05,0.36c0.68-0.52,0.67-1.49,1.23-2.26
		C55.88,55.6,56.75,54.78,56.75,54.78"/>
	<path class="st9" d="M40.26,52.39c0.01,1.21,0.46,3.38,0.76,4.92"/>
	<path class="st9" d="M37.05,53.9c1.58,0.67,3.61,2.14,4.6,3.71"/>
	<path class="st9" d="M36.45,57.03c1.83-0.85,3.34-1.83,4.56,0"/>
	<path class="st9" d="M43.68,60.59c1.9,1.51,3.69,3.51,4.37,5.25"/>
	<path class="st9" d="M47.63,59.22c-0.26,2.5,0.37,6.35,0.45,7.14"/>
	<path class="st9" d="M44.17,63.93c1.49-0.44,2.34-1.15,3.77,1.34"/>
	<path class="st1" d="M42.91,50.07c0.14,0.96,0.63,1.17-1.01,2.85l-1.63,1.68c0,0-0.31-0.38-0.68-0.8
		c-0.37-0.42-1.93-1.85-1.19-3.47c0.74-1.62,1.37-2.51,1.61-2.76c0.25-0.25,0.89-1.27,1.08-1.52"/>
	<path class="st2" d="M31.61,49.41c1.16,0.51,2.86-0.52,4.26,0.49c1.41,1.02,2.18,3.49,2.51,4.21c0.33,0.72,0.91,0.42-0.43,0.42
		c-1.34,0-1.42,0.46-2.58,0.16c-1.16-0.3-2.74-2.06-2.84-2.78C32.43,51.2,31.61,49.41,31.61,49.41"/>
	<path class="st3" d="M38.5,56.05c-0.35,0-0.74-0.3-2.42-0.35c-1.69-0.05-3.02,0.11-3.33,1.39c-0.31,1.28,0.1,1.55-0.64,2.38
		l-0.74,0.84c0,0,1.45,0.07,3.47,0.04c2.02-0.02,3-2.05,3.26-2.91C38.37,56.58,38.5,56.05,38.5,56.05"/>
	<path class="st4" d="M39.42,56.04c0,0,0.76,0.87,2.36,0.9c1.59,0.03,3.33,0.84,3.3,2.53c-0.03,1.68,0.51,2.62,0.51,2.62
		s0.04-0.24-1.35-0.15c-1.39,0.09-3.34-0.89-3.88-2.28C39.82,58.28,39.42,56.04,39.42,56.04"/>
	<path class="st5" d="M49.02,54.05c0,0-2.08,2.02-2.73,3.4c-0.65,1.38-0.83,2.21-0.04,3.21c0.8,1,1.08,1.8,1.08,1.8
		s1.18-1.7,1.95-2.09c0.76-0.39,1.62-1.78,1.23-2.63C50.12,56.9,49.02,54.05,49.02,54.05"/>
	<path class="st6" d="M45.67,63.49c0-0.03-1.22-0.55-2.68-0.75c-1.46-0.2-2.25-0.2-2.83,0.52c-0.59,0.72-0.99,1.48-1.41,2.32
		c-0.42,0.84-0.48,1.19-0.82,1.26c-0.34,0.07,0.43-0.29,2.03,0.14c1.6,0.42,2.37,0.88,3.05,0.36c0.68-0.52,0.67-1.49,1.23-2.26
		C44.8,64.3,45.67,63.49,45.67,63.49"/>
	<path class="st9" d="M60.71,33.73c-0.84,0.87-2.05,2.73-2.91,4.04"/>
	<path class="st9" d="M57.35,32.54c0.66,1.59,1.07,4.05,0.67,5.87"/>
	<path class="st9" d="M54.73,34.35c1.9,0.68,3.67,1.04,3.25,3.2"/>
	<path class="st9" d="M57.39,41.96c0.29,2.41,0.17,5.09-0.57,6.81"/>
	<path class="st9" d="M61.17,43.77c-1.94,1.6-4.19,4.78-4.69,5.4"/>
	<path class="st9" d="M55.4,44.69c1.38,0.73,2.48,0.82,1.75,3.6"/>
	<path class="st1" d="M64.22,33.92c-0.58,0.78-0.38,1.27-2.71,1.33l-2.34,0.05c0,0,0.04-0.49,0.07-1.05
		c0.04-0.56-0.08-2.67,1.59-3.31c1.67-0.64,2.73-0.83,3.08-0.83c0.35-0.01,1.53-0.28,1.83-0.33"/>
	<path class="st2" d="M56.63,25.53c0.47,1.18,2.4,1.63,2.69,3.34c0.29,1.71-0.9,4.02-1.17,4.75c-0.27,0.74,0.36,0.94-0.6,0
		c-0.96-0.94-1.33-0.67-1.95-1.69c-0.62-1.02-0.51-3.39-0.08-3.97C55.96,27.38,56.63,25.53,56.63,25.53"/>
	<path class="st3" d="M56.88,35.1c-0.25-0.25-0.32-0.73-1.48-1.95c-1.16-1.22-2.23-2.04-3.35-1.34c-1.12,0.69-1.01,1.17-2.13,1.25
		l-1.11,0.08c0,0,0.99,1.06,2.44,2.47c1.46,1.4,3.58,0.64,4.37,0.21C56.42,35.39,56.88,35.1,56.88,35.1"/>
	<path class="st4" d="M57.54,35.73c0,0-0.07,1.16,1.05,2.3c1.11,1.14,1.78,2.93,0.58,4.12c-1.2,1.18-1.48,2.23-1.48,2.23
		s0.19-0.15-0.85-1.06c-1.05-0.91-1.75-2.98-1.16-4.34C56.26,37.61,57.54,35.73,57.54,35.73"/>
	<path class="st5" d="M65.78,41.05c0,0-2.9-0.02-4.33,0.51c-1.43,0.53-2.14,0.99-2.28,2.26c-0.13,1.27-0.49,2.04-0.49,2.04
		s2.04-0.39,2.86-0.13c0.82,0.26,2.41-0.13,2.72-1.01C64.57,43.85,65.78,41.05,65.78,41.05"/>
	<path class="st6" d="M56.77,45.42c0.02-0.02-0.48-1.25-1.38-2.41c-0.9-1.16-1.46-1.72-2.38-1.62c-0.92,0.1-1.74,0.36-2.63,0.67
		c-0.89,0.3-1.17,0.51-1.46,0.33c-0.29-0.18,0.51,0.09,1.35,1.52c0.85,1.43,1.07,2.29,1.92,2.39c0.84,0.11,1.52-0.59,2.46-0.75
		C55.58,45.39,56.77,45.42,56.77,45.42"/>
	<path class="st9" d="M42.14,30.7c-0.02,1.21,0.37,3.39,0.64,4.94"/>
	<path class="st9" d="M38.89,32.12c1.57,0.71,3.55,2.23,4.5,3.83"/>
	<path class="st9" d="M38.21,35.24c1.85-0.8,3.39-1.75,4.56,0.12"/>
	<path class="st9" d="M45.35,38.98c1.86,1.56,3.6,3.61,4.23,5.36"/>
	<path class="st9" d="M49.33,37.72c-0.32,2.49,0.2,6.35,0.26,7.15"/>
	<path class="st9" d="M45.75,42.34c1.5-0.4,2.37-1.09,3.74,1.43"/>
	<path class="st1" d="M44.84,28.45c0.11,0.97,0.59,1.19-1.08,2.82l-1.67,1.64c0,0-0.3-0.38-0.66-0.82c-0.36-0.43-1.88-1.9-1.1-3.51
		c0.78-1.6,1.43-2.47,1.69-2.71c0.25-0.25,0.93-1.25,1.11-1.49"/>
	<path class="st2" d="M33.57,27.49c1.15,0.54,2.87-0.45,4.25,0.61c1.38,1.05,2.09,3.55,2.39,4.27c0.31,0.72,0.9,0.44-0.44,0.41
		c-1.34-0.03-1.43,0.42-2.58,0.09c-1.15-0.32-2.69-2.13-2.77-2.85C34.35,29.3,33.57,27.49,33.57,27.49"/>
	<path class="st3" d="M40.29,34.31c-0.35-0.01-0.73-0.31-2.41-0.41c-1.69-0.09-3.02,0.03-3.37,1.31c-0.35,1.27,0.06,1.55-0.7,2.36
		l-0.76,0.82c0,0,1.45,0.1,3.47,0.13c2.02,0.03,3.05-1.98,3.34-2.83C40.14,34.84,40.29,34.31,40.29,34.31"/>
	<path class="st4" d="M41.2,34.33c0,0,0.74,0.89,2.33,0.97c1.59,0.07,3.3,0.93,3.23,2.61c-0.07,1.68,0.44,2.64,0.44,2.64
		s0.04-0.24-1.35-0.19c-1.39,0.05-3.32-0.98-3.81-2.38C41.54,36.58,41.2,34.33,41.2,34.33"/>
	<path class="st5" d="M50.85,32.59c0,0-2.13,1.97-2.82,3.33c-0.68,1.36-0.89,2.19-0.12,3.21c0.77,1.02,1.04,1.83,1.04,1.83
		s1.23-1.67,2-2.04c0.78-0.37,1.67-1.74,1.3-2.59C51.87,35.46,50.85,32.59,50.85,32.59"/>
	<path class="st6" d="M47.25,41.93c0-0.03-1.2-0.59-2.66-0.82c-1.45-0.24-2.24-0.26-2.85,0.45c-0.6,0.7-1.02,1.46-1.46,2.29
		c-0.44,0.83-0.51,1.17-0.85,1.24c-0.34,0.07,0.44-0.28,2.03,0.19c1.59,0.47,2.35,0.94,3.04,0.44s0.71-1.47,1.28-2.23
		C46.36,42.73,47.25,41.93,47.25,41.93"/>
	<path class="st7" d="M75.65,61.4c-1.43-0.82-4.29-1.8-6.31-2.5"/>
	<path class="st7" d="M76.1,56.58c-1.88,1.41-5,2.77-7.54,2.84"/>
	<path class="st7" d="M72.83,53.72c-0.26,2.73-0.15,5.2-3.15,5.36"/>
	<path class="st7" d="M63.66,59.77c-3.09,1.18-6.67,1.92-9.19,1.51"/>
	<path class="st7" d="M62.53,65.36c-2.76-2.03-7.71-3.95-8.7-4.4"/>
	<path class="st7" d="M59.39,58.04c-0.51,2.06-0.26,3.55-4.17,3.51"/>
	<path class="st1" d="M76.56,66.11c-1.23-0.5-1.81-0.07-2.66-3.15l-0.85-3.08c0,0,0.66-0.11,1.41-0.25c0.75-0.14,3.51-0.99,4.91,1
		c1.4,1.99,2,3.34,2.13,3.8c0.13,0.47,0.88,1.93,1.04,2.31"/>
	<path class="st8" d="M85.13,53.29c-1.4,1.02-1.36,3.72-3.52,4.67c-2.16,0.95-5.61,0.15-6.67,0.04c-1.07-0.11-1.12,0.79-0.2-0.79
		c0.92-1.58,0.44-1.99,1.59-3.15c1.15-1.16,4.31-1.81,5.22-1.42C82.46,53.02,85.13,53.29,85.13,53.29"/>
	<path class="st2" d="M72.56,56.81c0.25-0.41,0.85-0.66,2.08-2.61c1.22-1.95,1.95-3.62,0.66-4.88c-1.29-1.25-1.88-0.95-2.36-2.39
		l-0.47-1.44c0,0-1.08,1.66-2.45,4.05c-1.37,2.39,0.35,4.94,1.17,5.84C72.03,56.29,72.56,56.81,72.56,56.81"/>
	<path class="st4" d="M71.94,57.89c0,0-1.55,0.3-2.69,2.15c-1.14,1.85-3.29,3.33-5.25,2.14c-1.96-1.19-3.43-1.22-3.43-1.22
		s0.26,0.21,1.11-1.48c0.86-1.69,3.36-3.31,5.36-2.98C69.03,56.82,71.94,57.89,71.94,57.89"/>
	<path class="st5" d="M67.66,70.55c0,0-0.94-3.84-2.12-5.56c-1.18-1.72-2.02-2.5-3.75-2.26c-1.73,0.25-2.86,0.04-2.86,0.04
		s1.19,2.56,1.12,3.73c-0.07,1.17,0.98,3.14,2.24,3.26C63.55,69.88,67.66,70.55,67.66,70.55"/>
	<path class="st6" d="M58.88,60.1c0.03,0.02,1.49-1.05,2.73-2.63c1.24-1.58,1.79-2.5,1.34-3.69c-0.44-1.19-1.06-2.18-1.76-3.25
		c-0.7-1.08-1.07-1.38-0.92-1.83c0.15-0.45,0.04,0.7-1.56,2.3c-1.61,1.59-2.66,2.18-2.53,3.33c0.14,1.15,1.29,1.81,1.81,3
		C58.52,58.51,58.88,60.1,58.88,60.1"/>
	<path class="st10" d="M27.55,48.6c0.02,1.08,0.44,3.02,0.73,4.39"/>
	<path class="st10" d="M24.69,49.98c1.42,0.58,3.24,1.88,4.14,3.27"/>
	<path class="st10" d="M24.18,52.78c1.62-0.77,2.97-1.67,4.08-0.04"/>
	<path class="st10" d="M30.68,55.89c1.71,1.33,3.33,3.1,3.95,4.65"/>
	<path class="st10" d="M34.2,54.63c-0.21,2.24,0.39,5.67,0.47,6.37"/>
	<path class="st10" d="M31.15,58.87c1.33-0.41,2.08-1.05,3.38,1.16"/>
	<path class="st1" d="M29.89,46.5c0.13,0.86,0.57,1.04-0.87,2.56l-1.44,1.52c0,0-0.28-0.33-0.62-0.71c-0.33-0.38-1.74-1.64-1.1-3.09
		c0.65-1.46,1.2-2.25,1.42-2.48c0.22-0.23,0.79-1.14,0.95-1.37"/>
	<path class="st8" d="M19.79,46.01c1.04,0.44,2.55-0.49,3.82,0.4c1.26,0.89,1.98,3.1,2.28,3.74c0.3,0.64,0.82,0.36-0.38,0.38
		c-1.2,0.02-1.27,0.42-2.31,0.17c-1.04-0.25-2.47-1.81-2.56-2.45C20.54,47.6,19.79,46.01,19.79,46.01"/>
	<path class="st2" d="M26.01,51.88c-0.31,0-0.66-0.26-2.17-0.29c-1.51-0.03-2.7,0.13-2.96,1.28c-0.27,1.15,0.1,1.38-0.55,2.13
		l-0.65,0.75c0,0,1.3,0.05,3.1,0.01c1.81-0.04,2.66-1.86,2.89-2.63C25.9,52.36,26.01,51.88,26.01,51.88"/>
	<path class="st4" d="M26.82,51.87c0,0,0.69,0.77,2.12,0.78c1.42,0.01,2.98,0.72,2.97,2.23c-0.01,1.51,0.48,2.34,0.48,2.34
		s0.03-0.21-1.21-0.12c-1.24,0.09-3-0.77-3.49-2C27.21,53.86,26.82,51.87,26.82,51.87"/>
	<path class="st5" d="M35.39,49.99c0,0-1.84,1.83-2.41,3.07c-0.57,1.24-0.72,1.98,0,2.87c0.72,0.89,0.99,1.6,0.99,1.6
		S35,56,35.68,55.64c0.68-0.36,1.43-1.61,1.07-2.36C36.4,52.53,35.39,49.99,35.39,49.99"/>
	<path class="st6" d="M32.48,58.46c0-0.02-1.09-0.48-2.4-0.65c-1.31-0.16-2.01-0.16-2.53,0.49c-0.52,0.65-0.87,1.33-1.23,2.09
		c-0.37,0.76-0.42,1.06-0.72,1.13c-0.3,0.07,0.38-0.26,1.82,0.1c1.44,0.36,2.13,0.76,2.73,0.29c0.6-0.47,0.58-1.34,1.07-2.03
		C31.71,59.2,32.48,58.46,32.48,58.46"/>
	<path class="st11" d="M75.61,50.91c-0.95-0.54-2.85-1.19-4.2-1.66"/>
	<path class="st11" d="M75.91,47.71c-1.25,0.93-3.33,1.84-5.01,1.89"/>
	<path class="st11" d="M73.74,45.8c-0.18,1.82-0.1,3.46-2.09,3.57"/>
	<path class="st11" d="M67.64,49.83c-2.05,0.79-4.44,1.27-6.11,1.01"/>
	<path class="st11" d="M66.89,53.54c-1.84-1.35-5.13-2.62-5.78-2.92"/>
	<path class="st11" d="M64.8,48.67c-0.34,1.37-0.17,2.36-2.77,2.33"/>
	<path class="st1" d="M76.22,54.04c-0.82-0.33-1.2-0.05-1.77-2.09l-0.57-2.04c0,0,0.44-0.07,0.94-0.17c0.5-0.09,2.33-0.66,3.26,0.66
		c0.93,1.32,1.33,2.22,1.41,2.53c0.08,0.31,0.58,1.28,0.69,1.53"/>
	<path class="st8" d="M81.91,45.52c-0.93,0.68-0.9,2.47-2.34,3.11c-1.44,0.63-3.73,0.1-4.44,0.03c-0.71-0.07-0.74,0.52-0.13-0.53
		c0.61-1.05,0.29-1.32,1.06-2.09c0.76-0.77,2.87-1.2,3.47-0.95C80.14,45.34,81.91,45.52,81.91,45.52"/>
	<path class="st2" d="M73.56,47.86c0.16-0.27,0.57-0.44,1.38-1.73c0.82-1.29,1.3-2.41,0.44-3.24c-0.86-0.83-1.25-0.63-1.57-1.59
		l-0.31-0.96c0,0-0.72,1.1-1.63,2.69c-0.91,1.59,0.23,3.29,0.78,3.88C73.21,47.51,73.56,47.86,73.56,47.86"/>
	<path class="st4" d="M73.15,48.57c0,0-1.03,0.2-1.79,1.43c-0.76,1.23-2.18,2.21-3.49,1.42c-1.3-0.79-2.28-0.81-2.28-0.81
		s0.17,0.14,0.74-0.99c0.57-1.12,2.23-2.2,3.56-1.98C71.22,47.86,73.15,48.57,73.15,48.57"/>
	<path class="st5" d="M70.3,56.99c0,0-0.63-2.55-1.41-3.7c-0.78-1.14-1.34-1.66-2.49-1.5c-1.15,0.17-1.9,0.02-1.9,0.02
		s0.79,1.7,0.74,2.48c-0.05,0.78,0.65,2.09,1.49,2.17C67.57,56.55,70.3,56.99,70.3,56.99"/>
	<path class="st6" d="M64.46,50.05c0.02,0.01,0.99-0.7,1.82-1.75c0.82-1.05,1.19-1.66,0.89-2.45c-0.29-0.79-0.71-1.45-1.17-2.16
		c-0.46-0.71-0.71-0.92-0.61-1.22c0.1-0.3,0.03,0.47-1.04,1.53c-1.07,1.06-1.77,1.45-1.68,2.22c0.09,0.77,0.86,1.2,1.2,1.99
		C64.23,48.99,64.46,50.05,64.46,50.05"/>
	<path class="st12" d="M79.98,36.67c-1.55,0.26-4.25,1.27-6.16,1.98"/>
	<path class="st12" d="M77.39,32.85c-0.53,2.17-2.01,5.06-3.83,6.65"/>
	<path class="st12" d="M73.26,32.71c1.46,2.17,3.03,3.92,0.93,5.86"/>
	<path class="st12" d="M70.16,42.73c-1.56,2.74-3.76,5.45-5.85,6.67"/>
	<path class="st12" d="M72.71,47.52c-3.26,0.18-8.07,1.76-9.07,2.03"/>
	<path class="st12" d="M65.97,44.03c0.87,1.83,1.96,2.78-0.95,5.11"/>
	<path class="st1" d="M83.5,39.59c-1.21,0.38-1.37,1.04-3.86-0.71l-2.49-1.75c0,0,0.42-0.48,0.89-1.04
		c0.47-0.56,1.98-2.85,4.22-2.23c2.24,0.62,3.49,1.25,3.87,1.51c0.37,0.27,1.81,0.89,2.16,1.07"/>
	<path class="st8" d="M82.06,24.96c-0.41,1.59,1.25,3.56,0.23,5.57c-1.02,2.01-4.04,3.51-4.89,4.07c-0.85,0.57-0.35,1.26-0.63-0.46
		c-0.28-1.72-0.88-1.73-0.73-3.28c0.14-1.55,2.08-3.94,2.99-4.21C79.93,26.38,82.06,24.96,82.06,24.96"/>
	<path class="st2" d="M74.93,35.15c-0.07-0.45,0.23-1-0.05-3.18c-0.28-2.17-0.75-3.85-2.46-3.99c-1.71-0.14-1.96,0.44-3.18-0.34
		l-1.22-0.78c0,0,0.21,1.88,0.65,4.47c0.44,2.59,3.25,3.43,4.4,3.6C74.22,35.09,74.93,35.15,74.93,35.15"/>
	<path class="st4" d="M75.12,36.32c0,0-0.97,1.16-0.68,3.21c0.28,2.05-0.41,4.44-2.57,4.75c-2.17,0.31-3.27,1.18-3.27,1.18
		s0.31,0-0.08-1.76c-0.39-1.76,0.47-4.47,2.14-5.44C72.34,37.3,75.12,36.32,75.12,36.32"/>
	<path class="st5" d="M79.64,48.25c0,0-3.02-2.26-4.93-2.81c-1.9-0.55-3-0.62-4.13,0.61c-1.12,1.23-2.09,1.76-2.09,1.76
		s2.43,1.17,3.08,2.07c0.66,0.9,2.62,1.72,3.62,1.04C76.2,50.23,79.64,48.25,79.64,48.25"/>
	<path class="st6" d="M66.84,45.86c0.03-0.01,0.46-1.68,0.42-3.59c-0.04-1.91-0.2-2.93-1.24-3.53c-1.04-0.61-2.1-0.96-3.27-1.33
		c-1.16-0.37-1.62-0.37-1.78-0.79c-0.16-0.42,0.46,0.49,0.24,2.64c-0.22,2.15-0.64,3.22,0.15,3.98c0.8,0.76,2.05,0.56,3.15,1.11
		C65.62,44.91,66.84,45.86,66.84,45.86"/>
	<path class="st13" d="M29.84,54.56c0.93,1.08,2.96,2.7,4.41,3.85"/>
	<path class="st13" d="M28.08,58.35c1.93-0.6,4.86-0.8,6.94-0.13"/>
	<path class="st13" d="M29.91,61.62c1-2.14,1.62-4.18,4.11-3.45"/>
	<path class="st13" d="M39.11,59.36c2.85-0.07,5.98,0.37,7.9,1.43"/>
	<path class="st13" d="M41.64,55.14c1.66,2.45,5.13,5.44,5.8,6.09"/>
	<path class="st13" d="M42.08,62c1.01-1.53,1.24-2.81,4.4-1.65"/>
	<path class="st1" d="M30.46,50.48c0.85,0.76,1.45,0.58,1.25,3.32l-0.2,2.74c0,0-0.56-0.1-1.22-0.2c-0.65-0.1-3.14-0.21-3.7-2.23
		c-0.56-2.02-0.66-3.29-0.63-3.7c0.03-0.41-0.16-1.82-0.18-2.18"/>
	<path class="st8" d="M19.8,58.42c1.43-0.42,2.18-2.63,4.21-2.78c2.03-0.15,4.6,1.5,5.43,1.89c0.84,0.4,1.14-0.32-0.07,0.7
		c-1.2,1.02-0.93,1.49-2.2,2.1c-1.27,0.61-4.02,0.22-4.66-0.35C21.89,59.41,19.8,58.42,19.8,58.42"/>
	<path class="st2" d="M31.02,59.19c-0.32,0.26-0.89,0.29-2.44,1.52c-1.56,1.23-2.63,2.38-1.95,3.77c0.69,1.39,1.25,1.32,1.22,2.63
		l-0.03,1.31c0,0,1.36-1.04,3.16-2.58c1.8-1.55,1.15-4.12,0.73-5.09C31.31,59.77,31.02,59.19,31.02,59.19"/>
	<path class="st4" d="M31.84,58.49c0,0,1.35,0.21,2.8-0.97c1.46-1.18,3.63-1.75,4.88-0.22c1.25,1.54,2.44,1.98,2.44,1.98
		s-0.15-0.24-1.33,0.88c-1.18,1.13-3.69,1.72-5.21,0.88C33.89,60.2,31.84,58.49,31.84,58.49"/>
	<path class="st5" d="M38.97,49.44c0,0-0.34,3.39,0.12,5.13c0.46,1.74,0.92,2.62,2.39,2.92c1.48,0.3,2.34,0.8,2.34,0.8
		s-0.23-2.43,0.17-3.36c0.39-0.93,0.11-2.83-0.88-3.29C42.12,51.17,38.97,49.44,38.97,49.44"/>
	<path class="st6" d="M43.09,60.47c-0.02-0.02-1.52,0.42-2.98,1.35c-1.46,0.92-2.17,1.52-2.16,2.61c0.02,1.09,0.23,2.08,0.49,3.15
		c0.26,1.08,0.47,1.43,0.22,1.75c-0.25,0.32,0.17-0.59,1.93-1.41c1.77-0.83,2.79-1,3.02-1.98c0.22-0.98-0.52-1.84-0.61-2.96
		C42.93,61.86,43.09,60.47,43.09,60.47"/>
	<path class="st14" d="M76.13,77.6c-0.03-1.35-0.56-3.75-0.93-5.47"/>
	<path class="st14" d="M79.69,75.87c-1.78-0.71-4.05-2.32-5.18-4.06"/>
	<path class="st14" d="M80.31,72.38c-2.02,0.97-3.69,2.1-5.08,0.08"/>
	<path class="st14" d="M72.19,68.53c-2.14-1.65-4.17-3.85-4.95-5.77"/>
	<path class="st14" d="M67.81,70.12c0.24-2.79-0.51-7.06-0.62-7.94"/>
	<path class="st14" d="M71.59,64.82c-1.65,0.52-2.59,1.32-4.22-1.43"/>
	<path class="st14" d="M73.23,80.23c-0.17-1.07-0.72-1.29,1.07-3.19l1.79-1.9c0,0,0.35,0.41,0.77,0.88
		c0.42,0.47,2.18,2.03,1.38,3.85c-0.8,1.82-1.48,2.81-1.75,3.1c-0.27,0.28-0.97,1.43-1.17,1.71"/>
	<path class="st14" d="M85.82,80.78c-1.3-0.54-3.17,0.63-4.76-0.48c-1.58-1.11-2.48-3.85-2.86-4.64c-0.38-0.79-1.02-0.45,0.47-0.48
		c1.49-0.03,1.58-0.53,2.87-0.22c1.3,0.31,3.09,2.24,3.21,3.04C84.87,78.8,85.82,80.78,85.82,80.78"/>
	<path class="st14" d="M78.03,73.5c0.39,0,0.82,0.32,2.7,0.35c1.88,0.03,3.36-0.17,3.68-1.61c0.33-1.43-0.13-1.72,0.67-2.66
		l0.81-0.94c0,0-1.62-0.05-3.87,0.01c-2.25,0.06-3.3,2.34-3.58,3.3C78.17,72.9,78.03,73.5,78.03,73.5"/>
	<path class="st14" d="M77.02,73.52c0,0-0.87-0.96-2.64-0.97c-1.77-0.01-3.72-0.88-3.72-2.76c0-1.88-0.61-2.91-0.61-2.91
		s-0.04,0.27,1.51,0.15c1.54-0.12,3.74,0.94,4.35,2.47C76.53,71.04,77.02,73.52,77.02,73.52"/>
	<path class="st14" d="M66.36,75.9c0,0,2.28-2.29,2.98-3.84c0.7-1.55,0.89-2.47-0.02-3.57c-0.91-1.1-1.24-1.98-1.24-1.98
		s-1.29,1.92-2.13,2.36c-0.84,0.45-1.78,2.01-1.32,2.94C65.09,72.75,66.36,75.9,66.36,75.9"/>
	<path class="st14" d="M69.93,65.34c0,0.03,1.37,0.6,2.99,0.79c1.63,0.2,2.51,0.19,3.15-0.63c0.64-0.81,1.07-1.67,1.53-2.61
		c0.45-0.94,0.51-1.33,0.89-1.42c0.38-0.09-0.47,0.33-2.26-0.12c-1.79-0.45-2.65-0.94-3.4-0.35c-0.75,0.59-0.72,1.67-1.33,2.54
		C70.89,64.41,69.93,65.34,69.93,65.34"/>
	<path class="st15" d="M42.46,66.55c0.05-0.14,2.02-1.56,2.02-1.56s0.82-0.02,1.6-0.28c0.78-0.27,1.6-0.15,2.66,0
		c1.05,0.14,1.7,0.53,2.29,0.84c0.6,0.31,0.78,0.54,1.01,1c0.23,0.46,0.82,0.92,0.55,1.88c-0.27,0.96-1.97,4.17-2.52,4.49
		c-0.55,0.32-2.51,0.92-2.51,0.92s-4.18,0.37-4.73,0c-0.55-0.37-1.51-0.96-1.51-0.96l-1.32-2v-1.76L42.46,66.55z"/>
	<path class="st16" d="M39.67,58.12c-1.27,0.22-3.34,1.01-3.8,2.29c-0.46,1.28-1.65,3.57-1.19,5.27c0.46,1.7,1.15,4.26,2.2,4.9
		c1.05,0.64,1.47,0.73,1.88,0.73c0.41,0,1.97-0.73,2.2-1.05c0.23-0.32,2.34-2.57,2.79-4.12c0.46-1.56-0.28-6-1.15-6.73
		C41.73,58.67,40.43,57.99,39.67,58.12"/>
	<path class="st17" d="M34.76,72.37c-0.18,0.09-3.02,1.65-3.53,2.75c-0.5,1.1-1.56,3.94,0,6.05c1.56,2.11,1.47,2.66,2.24,2.66
		c0.78,0,3.76-2.02,4.31-2.47c0.55-0.46,1.83-1.14,2.24-1.92c0.41-0.78,0.92-1.1,0.92-2.38s-0.6-2.84-0.6-2.84l-1.47-1.83
		l-1.19-0.82L34.76,72.37z"/>
	<path class="st18" d="M38.57,70.35c0-0.23-1.97-4.03-3.48-5.04c-1.51-1.01-2.66-1.24-4.17-0.96c-1.51,0.27-3.16,1.88-4.12,2.47
		s-1.33,1.19-1.24,1.6c0.09,0.41,2.61,4.49,3.07,4.86c0.46,0.37,3.07,1.97,4.58,1.79c1.51-0.18,2.38-1.01,3.53-1.37
		c1.14-0.37,0.87-0.23,1.51-0.78c0.64-0.55,0.64-1.1,0.69-1.37C38.98,71.27,38.57,70.35,38.57,70.35"/>
	<path class="st19" d="M41.41,71.91c0,0,3.48,0.69,4.22,1.01c0.73,0.32,2.52,1.1,3.16,2.43c0.64,1.33,0.41,5.18,0,5.73
		c-0.41,0.55-2.25,0.78-2.98,0.78c-0.73,0-3.94-0.6-3.94-0.6s-1.37-0.73-1.6-1.28c-0.23-0.55-0.64-1.74-0.6-2.29
		c0.05-0.55-0.6-2.06-0.44-2.98C39.39,73.79,39.25,71.81,41.41,71.91"/>
	<path class="st20" d="M35.34,70.39l-7.64-2.29c0,0,5.13,1.83,5.87,2.29c0.73,0.46,1.28,1.51,1.28,1.51l0.05,1.38l0.78,1.8
		l-0.34,1.18c0,0-1.54,4.81-1.54,5.59c0,0.78,2.06-5.41,2.38-6.23c0.32-0.82,1.24-1.62,1.24-1.62l1.81,0.1l1.72,1.43
		c0,0,5.68,3.67,6.14,4.31c0.46,0.64-3.76-3.89-4.31-4.35c-0.55-0.46-0.5-0.5-0.6-1.49c-0.09-0.99,0.38-1.85,0.38-1.85l1.62-1.52
		l6.2-2.52l1.1-0.69l-5.16,1.47c0,0-2.09,0.84-3,1.15c-0.91,0.31-2.84,0.05-2.84,0.05l-1.29-0.8c0,0-0.05-4.51,0-5.75
		c0.05-1.24,0.4-4.22,0.4-4.22s-0.91,3.12-0.92,3.48c-0.02,0.37,0,5.32,0,5.32l-0.41,1.56l-1.12,0.95L35.34,70.39z"/>
	<path class="st21" d="M42.78,70.67c-0.46-0.09-0.37-0.55-0.37-0.55s-0.47-1.05-0.97-0.46c-0.5,0.6-0.77,1.24-0.96,0.41
		c-0.18-0.82-0.5-1.47-0.5-1.47s-0.7,1.01-0.77,0c-0.07-1.01,0.42-2.2-0.03-1.92c-0.45,0.27-0.5,0.82-0.5,1.19
		c0,0.37,0.18,0.65,0,0.78c-0.18,0.13-0.19,0.47-0.73,0c-0.54-0.47-1.42,0-1.42,0s0.58,1.15-0.33,1.24
		c-0.91,0.09-1.65,0.09-1.65,0.09v0.92c0,0,1.31-0.37,0.78,0.41c-0.53,0.78,0,1.37,0,1.37s1.25-0.23,0.98,0.69s-0.73,1.33,0.18,1.05
		c0.91-0.27,1.47-0.24,1.6,0.08c0.14,0.33-0.38,0.56,0.37,0.37c0.75-0.18,0.61-1.42,1.52-0.89c0.91,0.52,0.08,0.39,0.91,0.52
		c0.83,0.14,1.01-0.23,1.01-0.23l-0.31-1.24l0.42-1.01l0.21-0.72L42.78,70.67z"/>
	<path class="st22" d="M38.67,69.03c0,0.35-0.28,0.63-0.63,0.63s-0.63-0.28-0.63-0.63c0-0.35,0.28-0.63,0.63-0.63
		S38.67,68.68,38.67,69.03"/>
	<path class="st22" d="M40.85,69.9c0,0.35-0.28,0.63-0.63,0.63s-0.63-0.28-0.63-0.63c0-0.35,0.28-0.63,0.63-0.63
		S40.85,69.55,40.85,69.9"/>
	<path class="st22" d="M40.85,72.53c0,0.35-0.28,0.63-0.63,0.63s-0.63-0.28-0.63-0.63c0-0.35,0.28-0.63,0.63-0.63
		S40.85,72.19,40.85,72.53"/>
	<path class="st22" d="M38.38,73.16c0,0.35-0.28,0.63-0.63,0.63s-0.63-0.28-0.63-0.63c0-0.35,0.28-0.63,0.63-0.63
		S38.38,72.82,38.38,73.16"/>
	<path class="st22" d="M38.04,71.31c0,0.35-0.28,0.63-0.63,0.63s-0.63-0.28-0.63-0.63c0-0.35,0.28-0.63,0.63-0.63
		S38.04,70.96,38.04,71.31"/>
	<path class="st15" d="M46.57,40.02c0.04-0.12,1.75-1.35,1.75-1.35s0.72-0.01,1.39-0.25c0.68-0.23,1.39-0.13,2.31,0
		c0.91,0.13,1.47,0.46,1.99,0.73c0.52,0.27,0.68,0.47,0.88,0.87c0.2,0.4,0.72,0.8,0.48,1.63c-0.24,0.84-1.71,3.62-2.19,3.9
		c-0.48,0.28-2.18,0.8-2.18,0.8s-3.63,0.32-4.11,0c-0.48-0.32-1.31-0.84-1.31-0.84l-1.15-1.74v-1.52L46.57,40.02z"/>
	<path class="st16" d="M44.14,32.7c-1.1,0.19-2.9,0.87-3.3,1.99c-0.4,1.11-1.43,3.1-1.03,4.57c0.4,1.47,0.99,3.7,1.91,4.26
		c0.91,0.56,1.27,0.64,1.63,0.64c0.36,0,1.71-0.64,1.91-0.91c0.2-0.28,2.03-2.23,2.43-3.58c0.4-1.35-0.24-5.21-0.99-5.85
		C45.93,33.18,44.8,32.59,44.14,32.7"/>
	<path class="st17" d="M39.89,45.07c-0.16,0.08-2.63,1.43-3.06,2.39c-0.44,0.95-1.35,3.42,0,5.25c1.35,1.83,1.27,2.31,1.95,2.31
		c0.68,0,3.26-1.75,3.74-2.15c0.48-0.4,1.59-0.99,1.95-1.67c0.36-0.68,0.8-0.95,0.8-2.07c0-1.11-0.52-2.47-0.52-2.47l-1.27-1.59
		l-1.03-0.72L39.89,45.07z"/>
	<path class="st18" d="M43.19,43.32c0-0.2-1.71-3.5-3.02-4.37c-1.31-0.87-2.31-1.07-3.62-0.84c-1.31,0.24-2.75,1.63-3.58,2.15
		c-0.84,0.52-1.15,1.03-1.07,1.39c0.08,0.36,2.27,3.9,2.66,4.22s2.66,1.71,3.98,1.55c1.31-0.16,2.07-0.87,3.06-1.19
		s0.76-0.2,1.31-0.68c0.56-0.48,0.55-0.96,0.6-1.19C43.55,44.12,43.19,43.32,43.19,43.32"/>
	<path class="st19" d="M45.66,44.67c0,0,3.02,0.6,3.66,0.87c0.64,0.28,2.19,0.95,2.74,2.11c0.56,1.15,0.36,4.49,0,4.97
		c-0.36,0.48-1.95,0.68-2.58,0.68c-0.64,0-3.42-0.52-3.42-0.52s-1.19-0.64-1.39-1.11c-0.2-0.48-0.56-1.51-0.52-1.99
		c0.04-0.48-0.52-1.79-0.38-2.58C43.91,46.3,43.79,44.59,45.66,44.67"/>
	<path class="st20" d="M40.39,43.36l-6.63-1.99c0,0,4.45,1.59,5.09,1.99c0.64,0.4,1.11,1.31,1.11,1.31l0.04,1.2l0.68,1.56l-0.3,1.02
		c0,0-1.34,4.18-1.34,4.85c0,0.68,1.79-4.69,2.07-5.41c0.28-0.71,1.07-1.41,1.07-1.41l1.57,0.09l1.49,1.24c0,0,4.93,3.18,5.33,3.74
		c0.4,0.56-3.26-3.38-3.74-3.78c-0.48-0.4-0.44-0.43-0.52-1.29c-0.08-0.86,0.33-1.6,0.33-1.6l1.41-1.32l5.38-2.19l0.95-0.6
		l-4.48,1.27c0,0-1.81,0.73-2.6,0.99c-0.79,0.27-2.47,0.04-2.47,0.04l-1.12-0.7c0,0-0.05-3.92,0-4.99c0.05-1.07,0.34-3.66,0.34-3.66
		s-0.78,2.7-0.8,3.02c-0.02,0.32,0,4.61,0,4.61l-0.36,1.35l-0.97,0.82L40.39,43.36z"/>
	<path class="st21" d="M46.85,43.6c-0.4-0.08-0.32-0.48-0.32-0.48s-0.41-0.92-0.84-0.4c-0.43,0.52-0.67,1.07-0.83,0.36
		c-0.16-0.72-0.43-1.27-0.43-1.27s-0.61,0.87-0.67,0c-0.06-0.87,0.37-1.91-0.02-1.67c-0.39,0.24-0.43,0.72-0.43,1.03
		c0,0.32,0.16,0.56,0,0.68c-0.16,0.12-0.17,0.41-0.64,0c-0.47-0.41-1.23,0-1.23,0s0.5,1-0.29,1.08C40.37,43,39.72,43,39.72,43v0.8
		c0,0,1.14-0.32,0.67,0.36c-0.46,0.68,0,1.19,0,1.19s1.09-0.2,0.85,0.6c-0.24,0.8-0.64,1.15,0.16,0.91c0.8-0.24,1.27-0.21,1.39,0.07
		c0.12,0.29-0.33,0.48,0.32,0.32c0.65-0.16,0.53-1.23,1.32-0.77c0.79,0.46,0.07,0.34,0.79,0.46c0.72,0.12,0.87-0.2,0.87-0.2
		l-0.27-1.08l0.37-0.88l0.18-0.63L46.85,43.6z"/>
	<path class="st22" d="M43.28,42.17c0,0.3-0.25,0.55-0.55,0.55c-0.3,0-0.55-0.25-0.55-0.55c0-0.3,0.24-0.55,0.55-0.55
		C43.04,41.63,43.28,41.87,43.28,42.17"/>
	<path class="st22" d="M45.17,42.93c0,0.3-0.25,0.55-0.55,0.55s-0.55-0.25-0.55-0.55c0-0.3,0.24-0.55,0.55-0.55
		S45.17,42.63,45.17,42.93"/>
	<path class="st22" d="M45.17,45.21c0,0.3-0.25,0.55-0.55,0.55s-0.55-0.25-0.55-0.55c0-0.3,0.24-0.55,0.55-0.55
		S45.17,44.91,45.17,45.21"/>
	<path class="st22" d="M43.03,45.76c0,0.3-0.25,0.55-0.55,0.55s-0.55-0.25-0.55-0.55c0-0.3,0.24-0.55,0.55-0.55
		S43.03,45.46,43.03,45.76"/>
	<path class="st22" d="M42.74,44.15c0,0.3-0.25,0.55-0.55,0.55c-0.3,0-0.55-0.25-0.55-0.55c0-0.3,0.24-0.55,0.55-0.55
		C42.49,43.61,42.74,43.85,42.74,44.15"/>
	<path class="st15" d="M75.85,33.65c0.05-0.14,2.02-1.56,2.02-1.56s0.82-0.02,1.6-0.28c0.78-0.27,1.6-0.15,2.66,0
		c1.05,0.14,1.7,0.53,2.29,0.84c0.6,0.31,0.78,0.54,1.01,1c0.23,0.46,0.82,0.92,0.55,1.88c-0.27,0.96-1.97,4.17-2.52,4.49
		c-0.55,0.32-2.51,0.92-2.51,0.92s-4.18,0.37-4.73,0c-0.55-0.37-1.51-0.96-1.51-0.96l-1.32-2v-1.76L75.85,33.65z"/>
	<path class="st16" d="M73.06,25.22c-1.27,0.21-3.34,1.01-3.8,2.29c-0.46,1.28-1.65,3.57-1.19,5.27c0.46,1.7,1.15,4.26,2.2,4.9
		c1.05,0.64,1.47,0.73,1.88,0.73c0.41,0,1.97-0.73,2.2-1.05c0.23-0.32,2.34-2.57,2.79-4.12c0.46-1.56-0.28-6-1.15-6.73
		C75.12,25.77,73.82,25.09,73.06,25.22"/>
	<path class="st17" d="M68.16,39.47c-0.18,0.09-3.02,1.65-3.53,2.75c-0.5,1.1-1.56,3.94,0,6.05c1.56,2.11,1.47,2.66,2.24,2.66
		c0.78,0,3.76-2.02,4.31-2.47c0.55-0.46,1.83-1.15,2.24-1.92c0.41-0.78,0.92-1.1,0.92-2.38c0-1.28-0.6-2.84-0.6-2.84l-1.47-1.83
		l-1.19-0.82L68.16,39.47z"/>
	<path class="st18" d="M71.96,37.45c0-0.23-1.97-4.03-3.48-5.04c-1.51-1.01-2.66-1.24-4.17-0.96c-1.51,0.28-3.16,1.88-4.12,2.47
		c-0.96,0.6-1.33,1.19-1.24,1.6c0.09,0.41,2.61,4.49,3.07,4.86c0.46,0.37,3.07,1.97,4.58,1.79c1.51-0.18,2.38-1.01,3.53-1.37
		c1.15-0.37,0.87-0.23,1.51-0.78c0.64-0.55,0.64-1.11,0.69-1.37C72.37,38.37,71.96,37.45,71.96,37.45"/>
	<path class="st19" d="M74.8,39.01c0,0,3.48,0.69,4.22,1.01c0.73,0.32,2.52,1.1,3.16,2.43c0.64,1.33,0.41,5.18,0,5.73
		c-0.41,0.55-2.25,0.78-2.98,0.78c-0.73,0-3.94-0.6-3.94-0.6s-1.37-0.73-1.6-1.28c-0.23-0.55-0.64-1.74-0.6-2.29
		c0.05-0.55-0.6-2.06-0.44-2.98C72.78,40.89,72.65,38.91,74.8,39.01"/>
	<path class="st20" d="M68.74,37.49L61.1,35.2c0,0,5.13,1.83,5.87,2.29C67.7,37.95,68.25,39,68.25,39l0.05,1.38l0.78,1.8l-0.34,1.18
		c0,0-1.54,4.81-1.54,5.59c0,0.78,2.06-5.41,2.38-6.23c0.32-0.82,1.24-1.62,1.24-1.62l1.81,0.1l1.72,1.43c0,0,5.68,3.67,6.14,4.31
		c0.46,0.64-3.76-3.89-4.31-4.35c-0.55-0.46-0.5-0.5-0.6-1.49c-0.09-0.99,0.38-1.85,0.38-1.85l1.62-1.52l6.2-2.52l1.1-0.69
		l-5.16,1.47c0,0-2.09,0.84-3,1.14c-0.91,0.31-2.84,0.05-2.84,0.05l-1.29-0.8c0,0-0.05-4.51,0-5.75c0.05-1.24,0.4-4.22,0.4-4.22
		s-0.91,3.12-0.92,3.48c-0.02,0.37,0,5.32,0,5.32l-0.41,1.56l-1.12,0.95L68.74,37.49z"/>
	<path class="st21" d="M76.17,37.77c-0.46-0.09-0.37-0.55-0.37-0.55s-0.47-1.05-0.97-0.46c-0.5,0.6-0.77,1.24-0.96,0.41
		c-0.18-0.82-0.5-1.47-0.5-1.47s-0.7,1.01-0.77,0c-0.07-1.01,0.42-2.2-0.03-1.92c-0.45,0.27-0.5,0.82-0.5,1.19
		c0,0.37,0.18,0.65,0,0.78c-0.18,0.13-0.2,0.47-0.73,0c-0.54-0.47-1.42,0-1.42,0s0.58,1.15-0.33,1.24
		c-0.91,0.09-1.65,0.09-1.65,0.09V38c0,0,1.31-0.37,0.78,0.41c-0.53,0.78,0,1.37,0,1.37s1.25-0.23,0.98,0.69
		c-0.27,0.92-0.73,1.33,0.18,1.05c0.91-0.27,1.47-0.24,1.6,0.08c0.14,0.33-0.38,0.56,0.37,0.37c0.75-0.18,0.61-1.42,1.52-0.89
		c0.91,0.52,0.08,0.39,0.91,0.52c0.83,0.14,1.01-0.23,1.01-0.23l-0.31-1.24l0.42-1.01l0.21-0.72L76.17,37.77z"/>
	<path class="st22" d="M72.07,36.13c0,0.35-0.28,0.63-0.63,0.63c-0.35,0-0.63-0.28-0.63-0.63c0-0.35,0.28-0.63,0.63-0.63
		C71.79,35.5,72.07,35.78,72.07,36.13"/>
	<path class="st22" d="M74.24,37c0,0.35-0.28,0.63-0.63,0.63s-0.63-0.28-0.63-0.63c0-0.35,0.28-0.63,0.63-0.63S74.24,36.65,74.24,37
		"/>
	<path class="st22" d="M74.24,39.63c0,0.35-0.28,0.63-0.63,0.63s-0.63-0.28-0.63-0.63c0-0.35,0.28-0.63,0.63-0.63
		S74.24,39.29,74.24,39.63"/>
	<path class="st22" d="M71.77,40.26c0,0.35-0.28,0.63-0.63,0.63c-0.35,0-0.63-0.28-0.63-0.63c0-0.35,0.28-0.63,0.63-0.63
		C71.49,39.63,71.77,39.92,71.77,40.26"/>
	<path class="st22" d="M71.44,38.41c0,0.35-0.28,0.63-0.63,0.63s-0.63-0.28-0.63-0.63c0-0.35,0.28-0.63,0.63-0.63
		S71.44,38.06,71.44,38.41"/>
	<path class="st15" d="M67.17,61.44c0.04-0.12,1.72-1.33,1.72-1.33s0.7-0.01,1.37-0.24c0.66-0.23,1.37-0.12,2.27,0
		c0.9,0.12,1.44,0.45,1.95,0.72c0.51,0.27,0.67,0.46,0.86,0.85c0.2,0.39,0.7,0.78,0.47,1.6c-0.23,0.82-1.68,3.55-2.15,3.83
		c-0.47,0.27-2.14,0.78-2.14,0.78s-3.57,0.31-4.04,0c-0.47-0.31-1.29-0.82-1.29-0.82l-1.13-1.71v-1.5L67.17,61.44z"/>
	<path class="st16" d="M64.79,54.25c-1.08,0.18-2.85,0.86-3.24,1.95c-0.39,1.09-1.41,3.05-1.02,4.49c0.39,1.45,0.98,3.63,1.87,4.18
		c0.9,0.55,1.25,0.63,1.6,0.63c0.35,0,1.68-0.63,1.88-0.9c0.19-0.27,1.99-2.19,2.38-3.52c0.39-1.33-0.23-5.12-0.98-5.74
		C66.55,54.72,65.44,54.14,64.79,54.25"/>
	<path class="st17" d="M60.61,66.4c-0.16,0.08-2.58,1.41-3.01,2.34c-0.43,0.94-1.33,3.36,0,5.16c1.33,1.8,1.25,2.27,1.92,2.27
		c0.66,0,3.2-1.72,3.67-2.11c0.47-0.39,1.56-0.98,1.91-1.64c0.35-0.66,0.78-0.94,0.78-2.03s-0.51-2.42-0.51-2.42l-1.25-1.56
		l-1.02-0.7L60.61,66.4z"/>
	<path class="st18" d="M63.85,64.69c0-0.2-1.68-3.44-2.97-4.3s-2.27-1.06-3.55-0.82c-1.29,0.23-2.7,1.6-3.52,2.11
		c-0.82,0.51-1.13,1.02-1.06,1.37c0.08,0.35,2.23,3.83,2.62,4.14c0.39,0.31,2.62,1.68,3.91,1.52c1.29-0.16,2.03-0.86,3.01-1.17
		c0.98-0.31,0.74-0.19,1.29-0.66c0.55-0.47,0.55-0.94,0.59-1.17C64.21,65.47,63.85,64.69,63.85,64.69"/>
	<path class="st19" d="M66.27,66.01c0,0,2.97,0.59,3.59,0.86c0.63,0.27,2.15,0.94,2.7,2.07c0.55,1.13,0.35,4.41,0,4.88
		c-0.35,0.47-1.91,0.66-2.54,0.66c-0.63,0-3.36-0.51-3.36-0.51s-1.17-0.63-1.37-1.09c-0.2-0.47-0.55-1.48-0.51-1.95
		c0.04-0.47-0.51-1.76-0.37-2.54C64.56,67.62,64.44,65.94,66.27,66.01"/>
	<path class="st20" d="M61.1,64.72l-6.51-1.95c0,0,4.38,1.56,5,1.95c0.63,0.39,1.09,1.29,1.09,1.29l0.04,1.18l0.67,1.54l-0.29,1
		c0,0-1.31,4.1-1.31,4.77c0,0.66,1.76-4.61,2.03-5.31c0.27-0.7,1.05-1.39,1.05-1.39l1.54,0.09l1.47,1.22c0,0,4.85,3.13,5.24,3.67
		c0.39,0.55-3.2-3.32-3.67-3.71c-0.47-0.39-0.43-0.43-0.51-1.27c-0.08-0.84,0.33-1.58,0.33-1.58l1.38-1.3l5.28-2.15l0.94-0.59
		l-4.4,1.25c0,0-1.78,0.71-2.55,0.98c-0.78,0.26-2.42,0.04-2.42,0.04l-1.1-0.68c0,0-0.05-3.85,0-4.9c0.05-1.05,0.34-3.59,0.34-3.59
		s-0.77,2.66-0.79,2.97c-0.01,0.31,0,4.53,0,4.53l-0.35,1.33l-0.95,0.81L61.1,64.72z"/>
	<path class="st21" d="M67.45,64.96c-0.39-0.08-0.31-0.47-0.31-0.47s-0.4-0.9-0.82-0.39c-0.43,0.51-0.66,1.05-0.82,0.35
		c-0.16-0.7-0.42-1.25-0.42-1.25s-0.6,0.86-0.65,0c-0.06-0.86,0.36-1.88-0.02-1.64c-0.38,0.23-0.42,0.7-0.42,1.02
		c0,0.31,0.16,0.55,0,0.67c-0.16,0.11-0.17,0.4-0.63,0c-0.46-0.4-1.21,0-1.21,0s0.49,0.98-0.28,1.06c-0.77,0.07-1.41,0.07-1.41,0.07
		v0.78c0,0,1.12-0.31,0.66,0.35c-0.46,0.66,0,1.17,0,1.17s1.07-0.2,0.83,0.59c-0.23,0.78-0.63,1.13,0.16,0.9
		c0.78-0.23,1.25-0.21,1.37,0.07c0.12,0.28-0.33,0.48,0.31,0.32c0.64-0.16,0.52-1.21,1.3-0.76c0.77,0.45,0.07,0.33,0.77,0.45
		c0.7,0.12,0.86-0.19,0.86-0.19l-0.27-1.06l0.36-0.86l0.18-0.62L67.45,64.96z"/>
	<path class="st22" d="M63.95,63.56c0,0.3-0.24,0.54-0.54,0.54c-0.3,0-0.54-0.24-0.54-0.54c0-0.3,0.24-0.54,0.54-0.54
		C63.7,63.02,63.95,63.26,63.95,63.56"/>
	<path class="st22" d="M65.8,64.3c0,0.3-0.24,0.54-0.54,0.54c-0.3,0-0.54-0.24-0.54-0.54c0-0.3,0.24-0.54,0.54-0.54
		C65.56,63.77,65.8,64.01,65.8,64.3"/>
	<path class="st22" d="M65.8,66.55c0,0.3-0.24,0.54-0.54,0.54c-0.3,0-0.54-0.24-0.54-0.54c0-0.3,0.24-0.54,0.54-0.54
		C65.56,66.01,65.8,66.25,65.8,66.55"/>
	<path class="st22" d="M63.69,67.09c0,0.3-0.24,0.54-0.54,0.54c-0.3,0-0.54-0.24-0.54-0.54c0-0.3,0.24-0.54,0.54-0.54
		C63.45,66.55,63.69,66.79,63.69,67.09"/>
	<path class="st22" d="M63.41,65.51c0,0.3-0.24,0.54-0.54,0.54c-0.3,0-0.54-0.24-0.54-0.54c0-0.3,0.24-0.54,0.54-0.54
		C63.17,64.97,63.41,65.21,63.41,65.51"/>
</g>
</svg>
