<svg id="Layer_1" data-name="Layer 1" xmlns="http://www.w3.org/2000/svg" viewBox="0 0 108 108">
  <defs>
    <style>
      .cls-1 {
        fill: #ffd7d7;
      }

      .cls-2 {
        fill: #f9c0c0;
      }

      .cls-3 {
        fill: #fc9595;
      }

      .cls-4 {
        fill: #fd7574;
      }

      .cls-5 {
        fill: #f75e5e;
      }

      .cls-6 {
        fill: #ef4343;
      }

      .cls-7 {
        fill: #ea1c1c;
      }

      .cls-8 {
        fill: #d10000;
      }

      .cls-9 {
        fill: #ffe6e6;
      }

      .cls-10 {
        fill: #29e088;
      }

      .cls-11 {
        fill: #0cc166;
      }

      .cls-12 {
        fill: #79ff79;
      }
    </style>
  </defs>
  <g>
    <g>
      <g>
        <g>
          <path class="cls-1" d="M64.77,43.22s1.34-14,8-21.79a.74.74,0,0,0-.18-1.12c-1.53-.92-5.11-2.59-7.92-.09-4.8,4.28-1.94,18.06-1.94,18.06Z"/>
          <path class="cls-2" d="M72.73,21.43c-6.62,7.79-8,21.79-8,21.79l-2.08-4.94s-1.53-7.39-.47-13a4.94,4.94,0,0,0,7.91-3.94,4.81,4.81,0,0,0-.54-2.24,10.29,10.29,0,0,1,3,1.23A.74.74,0,0,1,72.73,21.43Z"/>
          <path class="cls-3" d="M60.31,47.08s-1.35-17.69-8-25.66a.74.74,0,0,1,.19-1.11c1.52-.92,5.11-2.59,7.92-.09,4.8,4.28,1.94,24.18,1.94,24.18Z"/>
          <path class="cls-4" d="M62.39,44.4l-2.08,2.68s-.87-11.38-4.63-20a5.21,5.21,0,0,0-.34-8,5.41,5.41,0,0,1,5.11,1.11C65.25,24.5,62.39,44.4,62.39,44.4Z"/>
        </g>
        <g>
          <path class="cls-2" d="M65.67,49.32s1.34-14,8-21.79a.76.76,0,0,0-.18-1.13c-1.53-.92-5.11-2.58-7.92-.08-4.79,4.28-1.93,18.06-1.93,18.06Z"/>
          <path class="cls-3" d="M73.62,27.53c-6.61,7.79-8,21.79-8,21.79l-2.08-4.94a42.73,42.73,0,0,1-.65-11.9,5.15,5.15,0,0,0,6.81-7.43,9.71,9.71,0,0,1,3.69,1.35.76.76,0,0,1,.18,1.13Z"/>
          <path class="cls-4" d="M59.41,53.18s-1.34-17.69-8-25.66a.74.74,0,0,1,.2-1.11c1.52-.92,5.11-2.6,7.92-.09,4.79,4.28,1.93,24.17,1.93,24.17Z"/>
          <path class="cls-5" d="M61.49,50.49l-2.08,2.69s-.88-11.6-4.73-20.25a4.43,4.43,0,0,0,0-7.78,5.31,5.31,0,0,1,4.83,1.17C64.35,30.6,61.49,50.49,61.49,50.49Z"/>
        </g>
        <g>
          <path class="cls-3" d="M66.86,55.42s1.34-14,8-21.79a.75.75,0,0,0-.18-1.13c-1.53-.92-5.11-2.58-7.92-.08-4.79,4.28-1.93,18-1.93,18Z"/>
          <path class="cls-4" d="M74.81,33.63c-6.61,7.79-8,21.79-8,21.79l-2.08-5a41.81,41.81,0,0,1-.61-12.16,5.51,5.51,0,0,0,2.77.74,5.58,5.58,0,0,0,5.17-7.66,10.81,10.81,0,0,1,2.52,1.11.76.76,0,0,1,.18,1.13Z"/>
          <path class="cls-5" d="M58.22,59.28s-1.34-17.69-8-25.67a.73.73,0,0,1,.2-1.1c1.52-.92,5.11-2.6,7.92-.09,4.79,4.28,1.93,24.17,1.93,24.17Z"/>
          <path class="cls-6" d="M60.3,56.59l-2.08,2.69S57.34,47.66,53.48,39A5.5,5.5,0,0,0,56,31.22a5.1,5.1,0,0,1,2.34,1.2c4.79,4.28,1.93,24.17,1.93,24.17Z"/>
        </g>
        <g>
          <path class="cls-4" d="M66,58.87h1.48c.74-4.44,2.76-13.46,7.6-19.15a.75.75,0,0,0-.19-1.12C73.4,37.68,69.82,36,67,38.52c-4.79,4.28-1.93,18-1.93,18Z"/>
          <path class="cls-5" d="M75.12,39.72c-4.84,5.69-6.86,14.71-7.6,19.15H66l-1-2.3a42.22,42.22,0,0,1-.62-12.08,5.77,5.77,0,0,0,2.24.44,5.82,5.82,0,0,0,5.61-7.47,10.46,10.46,0,0,1,2.63,1.14.75.75,0,0,1,.19,1.12Z"/>
          <path class="cls-6" d="M60.44,58.87c.56-6,1.1-17.26-2.37-20.35-2.81-2.51-6.4-.83-7.92.09A.74.74,0,0,0,50,39.72c4,4.84,6.1,13.28,7.11,19.15Z"/>
          <path class="cls-7" d="M60.44,58.87H57.07A60.41,60.41,0,0,0,53.2,45.14,5.54,5.54,0,0,0,56.81,40a5.44,5.44,0,0,0-.61-2.51,5.13,5.13,0,0,1,1.87,1.08c3.47,3.09,2.93,14.35,2.37,20.35Z"/>
        </g>
        <g>
          <path class="cls-7" d="M58.82,71.48s-1.34-17.69-8-25.67A.74.74,0,0,1,51,44.7c1.53-.92,5.11-2.59,7.92-.08,4.8,4.28,1.94,24.17,1.94,24.17Z"/>
          <path class="cls-8" d="M60.9,68.79l-2.08,2.69A81.59,81.59,0,0,0,57,60.05,14.52,14.52,0,0,0,53.52,43.6a5.51,5.51,0,0,1,5.44,1c4.8,4.28,1.94,24.17,1.94,24.17Z"/>
          <g>
            <g>
              <g>
                <g>
                  <g>
                    <path class="cls-2" d="M63,15.7a.66.66,0,0,0-.58,0c-5.08,2.53-3.53,6-3,8.08.94,3.9,1.87,15.92,1.87,15.92h2.88s.93-12,1.87-15.92c.51-2.11,2.06-5.55-3-8.08Z"/>
                    <path class="cls-1" d="M61.2,26.68a1.5,1.5,0,0,0,1.46-1.81c0-.17-.07-.32-.1-.46-.31-1.29-1.06-3-.16-4.65a1.65,1.65,0,0,0-.37-2l0,0a1.66,1.66,0,0,0-2.47.3c-1.41,2.06-.5,4.26-.14,5.78.11.45.22,1,.33,1.65a1.49,1.49,0,0,0,1.48,1.25Z"/>
                    <path class="cls-9" d="M60.76,20.73h0a1.49,1.49,0,0,0-1.64,1.84c.11.44.23.85.32,1.22v0a1.45,1.45,0,1,0,2.82-.68A9.91,9.91,0,0,1,62,22a1.46,1.46,0,0,0-1.24-1.3Z"/>
                  </g>
                  <path class="cls-3" d="M63,20.81a.76.76,0,0,0-.66,0c-5.86,2.92-4.07,6.89-3.48,9.32C60,34.62,61,48.49,61,48.49h3.32s1.07-13.86,2.15-18.36c.59-2.43,2.38-6.4-3.48-9.32Z"/>
                  <path class="cls-2" d="M61,33.48a1.74,1.74,0,0,0,1.69-2.09q-.06-.29-.12-.54c-.36-1.48-1.23-3.5-.18-5.35a1.92,1.92,0,0,0-.44-2.36l0,0a1.93,1.93,0,0,0-2.86.35c-1.62,2.37-.57,4.91-.15,6.66.12.52.25,1.17.37,1.9A1.73,1.73,0,0,0,61,33.48Z"/>
                  <path class="cls-1" d="M60.46,26.61h-.05a1.71,1.71,0,0,0-1.89,2.12c.12.51.26,1,.37,1.41v.05a1.67,1.67,0,1,0,3.25-.78,9.19,9.19,0,0,1-.25-1.29,1.7,1.7,0,0,0-1.44-1.5Z"/>
                </g>
                <path class="cls-4" d="M63,27a.76.76,0,0,0-.66,0c-5.86,2.91-4.07,6.88-3.48,9.32C60,40.85,61,54.72,61,54.72h3.32s1.07-13.87,2.15-18.36C67.1,33.92,68.89,30,63,27Z"/>
                <path class="cls-3" d="M61,39.7a1.73,1.73,0,0,0,1.69-2.09c0-.19-.08-.36-.12-.53-.36-1.48-1.23-3.5-.18-5.35a1.92,1.92,0,0,0-.44-2.36l0,0a1.93,1.93,0,0,0-2.86.34c-1.62,2.38-.57,4.92-.15,6.67.12.52.25,1.17.37,1.9A1.73,1.73,0,0,0,61,39.7Z"/>
                <path class="cls-2" d="M60.46,32.84h-.05A1.71,1.71,0,0,0,58.52,35c.12.51.26,1,.37,1.41v0a1.67,1.67,0,1,0,3.25-.79,8.78,8.78,0,0,1-.25-1.28,1.68,1.68,0,0,0-1.44-1.5Z"/>
              </g>
              <path class="cls-5" d="M63,33.28a.79.79,0,0,0-.67,0c-5.85,2.92-4.06,6.88-3.47,9.32C59.9,47.09,61,61,61,61h3.32s1.07-13.87,2.15-18.36c.59-2.44,2.38-6.4-3.48-9.32Z"/>
              <path class="cls-4" d="M60.9,46a1.74,1.74,0,0,0,1.69-2.09l-.12-.54c-.36-1.48-1.23-3.5-.19-5.35a1.91,1.91,0,0,0-.43-2.36l0,0a1.93,1.93,0,0,0-2.86.35c-1.62,2.37-.58,4.91-.15,6.66.12.52.25,1.17.37,1.9A1.74,1.74,0,0,0,60.9,46Z"/>
              <path class="cls-3" d="M60.39,39.08h-.06a1.72,1.72,0,0,0-1.89,2.12c.13.51.27,1,.38,1.41v0A1.67,1.67,0,0,0,61,43.84a1.65,1.65,0,0,0,1-2,9.17,9.17,0,0,1-.24-1.29,1.69,1.69,0,0,0-1.44-1.5Z"/>
            </g>
            <path class="cls-6" d="M63,39.11a.79.79,0,0,0-.67,0C56.44,42,58.23,46,58.82,48.43,59.9,52.92,61,66.79,61,66.79h3.32s1.07-13.87,2.15-18.36C67,46,68.82,42,63,39.11Z"/>
            <path class="cls-7" d="M65.58,53.75c-.73,5.72-1.29,13-1.29,13H61s-.22-2.9-.57-6.47a12.8,12.8,0,0,0,5.18-6.57Z"/>
            <path class="cls-5" d="M60.9,51.77a1.73,1.73,0,0,0,1.69-2.09c0-.19-.08-.37-.12-.53-.36-1.48-1.23-3.5-.19-5.36a1.9,1.9,0,0,0-.43-2.35l0,0a1.93,1.93,0,0,0-2.86.35c-1.62,2.38-.58,4.92-.15,6.67.12.52.25,1.16.37,1.9a1.73,1.73,0,0,0,1.71,1.44Z"/>
            <path class="cls-4" d="M60.39,44.91h-.06A1.71,1.71,0,0,0,58.44,47c.13.51.27,1,.38,1.41v0a1.67,1.67,0,1,0,3.24-.79,8.67,8.67,0,0,1-.24-1.29,1.68,1.68,0,0,0-1.44-1.49Z"/>
          </g>
          <path class="cls-5" d="M66.26,67.61s1.34-14,7.95-21.78A.75.75,0,0,0,74,44.7c-1.52-.92-5.1-2.59-7.91-.08-4.8,4.28-1.94,18.05-1.94,18.05Z"/>
          <path class="cls-6" d="M74.21,45.83c-6.61,7.78-7.95,21.78-7.95,21.78l-2.08-4.94a49,49,0,0,1-.69-5A11,11,0,0,0,69.38,43.3,8.89,8.89,0,0,1,74,44.7.75.75,0,0,1,74.21,45.83Z"/>
        </g>
        <g>
          <path class="cls-4" d="M63.28,81.91S66,65.17,73.75,56.09a.35.35,0,0,0-.43-.54c-3.87,2.06-12.91,7.48-14.5,14V81.91Z"/>
          <path class="cls-5" d="M73.75,56.09C66,65.17,63.28,81.91,63.28,81.91H58.82V72.38a12.51,12.51,0,0,0,7.51-11.47c0-.3,0-.6,0-.89a52.51,52.51,0,0,1,7-4.47.35.35,0,0,1,.43.54Z"/>
          <path class="cls-10" d="M63.46,91.88c.95-2.51,5.2-14.32,5.43-23.51a.74.74,0,0,0-1.21-.59c-2.33,1.86-7.33,6.5-8.86,12.94v10.9a.75.75,0,0,0,.75.75h3.19a.76.76,0,0,0,.7-.49Z"/>
        </g>
        <path class="cls-11" d="M68.89,68.37c-.23,9.19-4.48,21-5.43,23.51a.74.74,0,0,1-.7.49H59.57a.75.75,0,0,1-.75-.75V88.14c4.42-2.25,7.51-7.32,7.51-13.21a16.06,16.06,0,0,0-.85-5.2c.84-.82,1.61-1.48,2.2-2a.74.74,0,0,1,1.21.59Z"/>
      </g>
      <path class="cls-12" d="M64.05,78.41c.31-.53.64-1,1-1.51a2.1,2.1,0,0,0-.09-2.56l0,0a2.09,2.09,0,0,0-3.37.2,19.92,19.92,0,0,0-1.09,1.87,2.07,2.07,0,0,0,3.6,2Z"/>
    </g>
    <g>
      <g>
        <g>
          <path class="cls-1" d="M45.05,58.86S43.38,48.8,46.57,42.12a.55.55,0,0,0-.34-.76C45,41,42.17,40.5,40.67,42.77c-2.56,3.89,2,13,2,13Z"/>
          <path class="cls-2" d="M46.57,42.12c-3.19,6.68-1.52,16.74-1.52,16.74l-2.38-3.08s-2.45-4.89-2.75-9a3.58,3.58,0,0,0,4.8-4.23,3.44,3.44,0,0,0-.79-1.47,7.51,7.51,0,0,1,2.3.31.55.55,0,0,1,.34.76Z"/>
          <path class="cls-3" d="M42.64,62.39S38.41,50.25,32.28,45.9a.53.53,0,0,1-.07-.81c.9-.93,3.1-2.77,5.53-1.54,4.16,2.11,5.86,16.58,5.86,16.58Z"/>
          <path class="cls-4" d="M43.6,60.13l-1,2.26s-2.73-7.81-7-13.15A3.77,3.77,0,0,0,34,43.73a3.89,3.89,0,0,1,3.78-.18c4.16,2.11,5.86,16.58,5.86,16.58Z"/>
        </g>
        <g>
          <path class="cls-2" d="M46.81,63s-1.67-10.05,1.52-16.74a.54.54,0,0,0-.34-.75c-1.24-.36-4.06-.87-5.56,1.41-2.56,3.89,2,13,2,13Z"/>
          <path class="cls-3" d="M48.33,46.22C45.14,52.91,46.81,63,46.81,63l-2.38-3.07a30.67,30.67,0,0,1-2.66-8.22,3.72,3.72,0,0,0,4.62-4.54,3.63,3.63,0,0,0-1.24-1.93,7.09,7.09,0,0,1,2.84.27.54.54,0,0,1,.34.75Z"/>
          <path class="cls-4" d="M43.15,66.83S38.92,54.69,32.79,50.34a.54.54,0,0,1-.07-.82c.9-.92,3.1-2.76,5.53-1.53,4.16,2.11,5.85,16.57,5.85,16.57Z"/>
          <path class="cls-5" d="M44.1,64.56l-1,2.27s-2.78-8-7.08-13.3A3.23,3.23,0,0,0,37,50.36a3.2,3.2,0,0,0-2.33-2.29,3.85,3.85,0,0,1,3.6-.08c4.16,2.11,5.85,16.57,5.85,16.57Z"/>
        </g>
        <g>
          <path class="cls-3" d="M48.78,67S47.11,57,50.29,50.27a.53.53,0,0,0-.33-.75c-1.24-.36-4.06-.86-5.56,1.41-2.56,3.89,2,13,2,13Z"/>
          <path class="cls-4" d="M50.29,50.27C47.11,57,48.78,67,48.78,67L46.4,63.94a30.6,30.6,0,0,1-2.69-8.41,4,4,0,0,0,2.08,0,4,4,0,0,0,2.87-4.94A4.1,4.1,0,0,0,48,49.2a8,8,0,0,1,2,.32.53.53,0,0,1,.33.75Z"/>
          <path class="cls-5" d="M43.45,71.33s-4.23-12.15-10.36-16.5A.53.53,0,0,1,33,54c.9-.93,3.1-2.77,5.53-1.54,4.16,2.11,5.85,16.58,5.85,16.58Z"/>
          <path class="cls-6" d="M44.4,69.06l-.95,2.27s-2.78-8-7.1-13.32a4,4,0,0,0,1.37-4.14,3.91,3.91,0,0,0-1-1.79,3.69,3.69,0,0,1,1.86.4c4.16,2.11,5.85,16.58,5.85,16.58Z"/>
        </g>
        <g>
          <path class="cls-4" d="M48.85,69.58l1-.27c-.32-3.25-.58-9.94,1.75-14.83a.54.54,0,0,0-.34-.75c-1.24-.36-4.06-.86-5.56,1.42-2.56,3.89,2,13,2,13Z"/>
          <path class="cls-5" d="M51.64,54.48c-2.33,4.89-2.07,11.58-1.75,14.83l-1,.27-1.11-1.42a30.87,30.87,0,0,1-2.68-8.35,4.25,4.25,0,0,0,4.66-5.29,4.5,4.5,0,0,0-.47-1.1,7.64,7.64,0,0,1,2,.31A.54.54,0,0,1,51.64,54.48Z"/>
          <path class="cls-6" d="M44.92,70.62c-.72-4.3-2.44-12.29-5.44-13.81-2.44-1.23-4.64.61-5.53,1.54a.53.53,0,0,0,.07.81c3.72,2.65,6.74,8.17,8.54,12.09Z"/>
          <path class="cls-7" d="M44.92,70.62l-2.36.63a43.38,43.38,0,0,0-5.26-8.89,4,4,0,0,0,1.56-4.31A4.07,4.07,0,0,0,38,56.4a3.84,3.84,0,0,1,1.51.41c3,1.52,4.72,9.51,5.44,13.81Z"/>
        </g>
        <g>
          <path class="cls-7" d="M46.13,79.76S41.9,67.62,35.78,63.26a.53.53,0,0,1-.07-.81c.89-.93,3.09-2.77,5.53-1.53,4.15,2.1,5.85,16.57,5.85,16.57Z"/>
          <path class="cls-8" d="M47.09,77.49l-1,2.27a59.76,59.76,0,0,0-3.42-7.66,10.57,10.57,0,0,0-5.47-10.89,4,4,0,0,1,4-.29C45.39,63,47.09,77.49,47.09,77.49Z"/>
          <g>
            <g>
              <g>
                <g>
                  <g>
                    <path class="cls-2" d="M38.68,39.91a.48.48,0,0,0-.41.11c-3.08,2.71-1.36,4.84-.6,6.22,1.38,2.56,4.26,10.81,4.26,10.81l2-.54S42.36,47.92,42.3,45c0-1.57.41-4.27-3.62-5.1Z"/>
                    <path class="cls-1" d="M39.47,47.94a1.09,1.09,0,0,0,.69-1.54L40,46.09c-.46-.84-1.31-1.93-1-3.22a1.2,1.2,0,0,0-.64-1.36h0a1.2,1.2,0,0,0-1.68.67c-.6,1.7.45,3.08,1,4.07.16.3.35.67.54,1.1A1.09,1.09,0,0,0,39.47,47.94Z"/>
                    <path class="cls-9" d="M38.05,43.85h0a1.08,1.08,0,0,0-.81,1.6c.16.28.32.55.45.79l0,0a1,1,0,0,0,1.52.37,1,1,0,0,0,.32-1.37,5.6,5.6,0,0,1-.35-.74,1.06,1.06,0,0,0-1.12-.68Z"/>
                  </g>
                  <path class="cls-3" d="M39.66,43.49a.54.54,0,0,0-.47.12c-3.55,3.13-1.56,5.58-.7,7.18,1.6,2.94,4.92,12.45,4.92,12.45l2.33-.61s-1.83-9.91-1.91-13.26c0-1.82.48-4.93-4.17-5.88Z"/>
                  <path class="cls-2" d="M40.57,52.74a1.26,1.26,0,0,0,.8-1.78l-.19-.35c-.52-1-1.51-2.22-1.12-3.72a1.39,1.39,0,0,0-.74-1.57h0a1.39,1.39,0,0,0-1.93.78c-.69,2,.51,3.55,1.13,4.7.19.34.39.77.62,1.26a1.25,1.25,0,0,0,1.46.69Z"/>
                  <path class="cls-1" d="M38.94,48h0A1.24,1.24,0,0,0,38,49.87c.18.33.37.64.52.92l0,0a1.21,1.21,0,1,0,2.13-1.16,7.46,7.46,0,0,1-.42-.85A1.2,1.2,0,0,0,38.94,48Z"/>
                </g>
                <path class="cls-4" d="M40.82,47.85a.53.53,0,0,0-.47.12c-3.56,3.13-1.57,5.58-.7,7.18,1.6,2.94,4.92,12.46,4.92,12.46L46.9,67S45.07,57.08,45,53.73c0-1.82.47-4.93-4.17-5.88Z"/>
                <path class="cls-3" d="M41.73,57.1a1.25,1.25,0,0,0,.79-1.78L42.34,55c-.52-1-1.51-2.22-1.12-3.71a1.37,1.37,0,0,0-.75-1.57l0,0a1.39,1.39,0,0,0-1.93.78c-.69,2,.51,3.55,1.13,4.7.18.34.39.77.62,1.26a1.24,1.24,0,0,0,1.46.69Z"/>
                <path class="cls-2" d="M40.1,52.39h0a1.24,1.24,0,0,0-.93,1.84c.18.33.37.64.52.92l0,0a1.21,1.21,0,0,0,1.75.43A1.19,1.19,0,0,0,41.79,54a7.57,7.57,0,0,1-.41-.86,1.22,1.22,0,0,0-1.28-.78Z"/>
              </g>
              <path class="cls-5" d="M41.93,52.23a.58.58,0,0,0-.47.13c-3.56,3.13-1.56,5.57-.7,7.17C42.36,62.48,45.68,72,45.68,72L48,71.37s-1.83-9.91-1.91-13.26c0-1.81.48-4.92-4.17-5.88Z"/>
              <path class="cls-4" d="M42.84,61.49a1.25,1.25,0,0,0,.79-1.78c-.06-.13-.12-.24-.18-.35-.52-1-1.51-2.23-1.12-3.72a1.39,1.39,0,0,0-.74-1.57h0a1.39,1.39,0,0,0-1.93.77c-.69,2,.51,3.55,1.13,4.7.19.34.39.77.62,1.26a1.26,1.26,0,0,0,1.46.7Z"/>
              <path class="cls-3" d="M41.21,56.77h0a1.23,1.23,0,0,0-.93,1.83c.18.34.37.64.52.92l0,0a1.21,1.21,0,1,0,2.13-1.15,6.23,6.23,0,0,1-.42-.86A1.21,1.21,0,0,0,41.21,56.77Z"/>
            </g>
            <path class="cls-6" d="M43,56.32a.53.53,0,0,0-.47.12C39,59.57,41,62,41.85,63.61c1.59,3,4.92,12.46,4.92,12.46l2.32-.61s-1.83-9.92-1.91-13.26c0-1.82.48-4.93-4.16-5.88Z"/>
            <path class="cls-7" d="M47.57,66.08c.56,4.14,1.52,9.37,1.52,9.37l-2.32.62s-.7-2-1.6-4.42A9.3,9.3,0,0,0,47.57,66.08Z"/>
            <path class="cls-5" d="M43.92,65.57a1.26,1.26,0,0,0,.8-1.78l-.19-.35c-.52-1-1.5-2.23-1.12-3.72a1.39,1.39,0,0,0-.74-1.57h0a1.4,1.4,0,0,0-1.94.78c-.69,2,.51,3.55,1.14,4.69.18.34.39.77.61,1.26a1.25,1.25,0,0,0,1.46.7Z"/>
            <path class="cls-4" d="M42.29,60.85h0a1.24,1.24,0,0,0-.93,1.83c.19.34.37.64.53.92v0A1.21,1.21,0,1,0,44,62.49a6.06,6.06,0,0,1-.41-.85,1.23,1.23,0,0,0-1.29-.79Z"/>
          </g>
          <path class="cls-5" d="M50.63,75.67S49,65.61,52.15,58.93a.55.55,0,0,0-.34-.76c-1.24-.36-4.06-.86-5.56,1.41-2.56,3.9,2,13,2,13Z"/>
          <path class="cls-6" d="M52.15,58.93C49,65.61,50.63,75.67,50.63,75.67l-2.38-3.08a33.75,33.75,0,0,1-1.41-3.38,8,8,0,0,0,2.84-8.33,7.84,7.84,0,0,0-1.39-2.82,6.45,6.45,0,0,1,3.52.11.55.55,0,0,1,.34.76Z"/>
        </g>
        <g>
          <path class="cls-4" d="M51.2,86.23S50,74,53.73,66.2a.25.25,0,0,0-.4-.29c-2.33,2.16-7.65,7.64-7.56,12.5l2.3,8.65Z"/>
          <path class="cls-5" d="M53.73,66.2c-3.75,7.8-2.54,20-2.54,20l-3.12.83L46.3,80.39A9.07,9.07,0,0,0,49.43,71c-.06-.21-.12-.42-.19-.62a38.92,38.92,0,0,1,4.09-4.43.25.25,0,0,1,.4.29Z"/>
          <path class="cls-10" d="M50.06,92.37h2.51a.74.74,0,0,0,.74-.69c.26-3.37.59-10.56-.7-16a.54.54,0,0,0-1-.19c-1.28,1.74-3.93,5.92-3.8,10.71l1.48,5.58A.76.76,0,0,0,50.06,92.37Z"/>
        </g>
        <path class="cls-11" d="M52.57,92.37a.74.74,0,0,0,.74-.69c.26-3.37.59-10.57-.7-16a.54.54,0,0,0-1-.19,19.42,19.42,0,0,0-1.17,1.77A11.75,11.75,0,0,1,52,80.78a10.62,10.62,0,0,1-2.8,10.65l.1.38a.76.76,0,0,0,.73.56Z"/>
      </g>
      <path class="cls-12" d="M51.09,83.64c.12-.43.26-.84.4-1.24A1.51,1.51,0,0,0,51,80.63l0,0a1.52,1.52,0,0,0-2.33.76,14.74,14.74,0,0,0-.41,1.52,1.5,1.5,0,0,0,2.9.75Z"/>
    </g>
  </g>
</svg>
