<svg id="Layer_1" data-name="Layer 1" xmlns="http://www.w3.org/2000/svg" viewBox="0 0 108 108">
  <defs>
    <style>
      .cls-1 {
        fill: #bbf49b;
      }

      .cls-2 {
        fill: #9be69d;
      }

      .cls-3 {
        fill: #8379c1;
      }

      .cls-4 {
        fill: #6e61b6;
      }

      .cls-5 {
        fill: #ffceec;
      }

      .cls-6 {
        fill: #ffbee6;
      }

      .cls-7 {
        fill: #fe646f;
      }

      .cls-8 {
        fill: #fd4755;
      }
    </style>
  </defs>
  <g>
    <g>
      <path class="cls-1" d="M56.62,90.55l-.33.85a1.61,1.61,0,0,1-3,0L53,90.55a66.33,66.33,0,0,1-4.58-24.24H61.2A66.33,66.33,0,0,1,56.62,90.55Z"/>
      <path class="cls-2" d="M57.9,66.31c0,8.3-.79,14.22-3.81,21.94l-.34.85a1.57,1.57,0,0,1-1,.94l.2.51.33.85a1.61,1.61,0,0,0,3,0l.33-.85A66.33,66.33,0,0,0,61.2,66.31Z"/>
      <path class="cls-1" d="M56.62,19.89,56.29,19a1.61,1.61,0,0,0-3,0l-.33.86a66.32,66.32,0,0,0-4.58,24.23H61.2A66.32,66.32,0,0,0,56.62,19.89Z"/>
      <path class="cls-2" d="M56.62,19.89,56.29,19a1.61,1.61,0,0,0-3,0l-.33.86-.1.24a1.57,1.57,0,0,1,.86.89l.33.86c3,7.72,3.84,14,3.84,22.24h3.3A66.32,66.32,0,0,0,56.62,19.89Z"/>
    </g>
    <g>
      <path class="cls-1" d="M43.7,48.81V61.62c-1.59,0-3.18-.06-4.76-.17A66.4,66.4,0,0,1,19.46,57l-.85-.33a1.61,1.61,0,0,1,0-3l.85-.33A66.72,66.72,0,0,1,38.94,49c1.58-.11,3.17-.17,4.76-.17Z"/>
      <path class="cls-2" d="M43.7,48.81V61.62c-1.59,0-3.18-.06-4.76-.17l-3.8-3.8a3.44,3.44,0,0,1,0-4.86L38.94,49c1.58-.11,3.17-.17,4.76-.17Z"/>
      <path class="cls-1" d="M90.13,57l.85-.33a1.61,1.61,0,0,0,0-3l-.85-.33a66.62,66.62,0,0,0-24.24-4.58V61.62A66.41,66.41,0,0,0,90.13,57Z"/>
      <path class="cls-2" d="M91,53.72l-.85-.33a66.62,66.62,0,0,0-24.24-4.58v.09a66.39,66.39,0,0,1,20.94,4.49l.85.33a1.61,1.61,0,0,1,0,3l-.85.33a66.4,66.4,0,0,1-20.94,4.5v.08A66.41,66.41,0,0,0,90.13,57l.85-.33a1.61,1.61,0,0,0,0-3Z"/>
    </g>
    <path class="cls-3" d="M71.15,57.65,70,58.77,57.22,71.57a3.34,3.34,0,0,1-1.56.9,3.46,3.46,0,0,1-2.52-.31,3.34,3.34,0,0,1-.78-.59L38.44,57.65a3.44,3.44,0,0,1,0-4.86L52.36,38.86a3.51,3.51,0,0,1,.78-.58A3.42,3.42,0,0,1,55.66,38a3.24,3.24,0,0,1,1.56.89L71.15,52.79a3.44,3.44,0,0,1,0,4.86Z"/>
    <path class="cls-4" d="M71.15,57.65,70,58.77,57.22,71.57a3.34,3.34,0,0,1-1.56.9,3.46,3.46,0,0,1-2.52-.31h0a3.7,3.7,0,0,0,.79-.59L54,71.5a5,5,0,0,0,1.43-3A11.46,11.46,0,0,1,66.29,58.33a2.38,2.38,0,0,0,1.56-.68h0a3.44,3.44,0,0,0,0-4.86,2.38,2.38,0,0,0-1.57-.69c-.35,0-.69-.05-1-.09a11.48,11.48,0,0,1-9.81-10.07,5,5,0,0,0-1.43-3l-.07-.08a3.34,3.34,0,0,0-.79-.58h0A3.42,3.42,0,0,1,55.66,38a3.24,3.24,0,0,1,1.56.89L71.15,52.79a3.44,3.44,0,0,1,0,4.86Z"/>
    <path class="cls-5" d="M48.27,79.1a20.51,20.51,0,0,1-10.65,8.57L21.74,92.76a3.56,3.56,0,0,1-2.68-.2h0a3.57,3.57,0,0,1-1.81-4.28l5.09-15.89a20.51,20.51,0,0,1,8.57-10.65L46.15,77Z"/>
    <path class="cls-6" d="M27.68,83.47a1.14,1.14,0,0,1-.81-1.94L42.16,66.24a1.15,1.15,0,0,1,1.61,0,1.13,1.13,0,0,1,0,1.61L28.48,83.14a1.13,1.13,0,0,1-.8.33Z"/>
    <path class="cls-6" d="M48.27,79.1a20.51,20.51,0,0,1-10.65,8.57L21.74,92.76a3.56,3.56,0,0,1-2.68-.2l15.26-4.89A20.51,20.51,0,0,0,45,79.1a17.86,17.86,0,0,0,.93-1.65l.25-.48Z"/>
    <path class="cls-7" d="M50.45,75,49.2,77.45a16.64,16.64,0,0,1-.93,1.65,13.94,13.94,0,0,1-8.8-4L35,70.54a13.9,13.9,0,0,1-4.06-8.8c.54-.33,1.08-.65,1.65-.93L35,59.56A11.49,11.49,0,0,1,50.45,75Z"/>
    <path class="cls-8" d="M43.77,67.85,38,73.6,36.41,72l5.75-5.75a1.15,1.15,0,0,1,1.61,0A1.13,1.13,0,0,1,43.77,67.85Z"/>
    <path class="cls-8" d="M48.33,61.68a11.49,11.49,0,0,0-9.77-3.24A11.48,11.48,0,0,1,47.15,75L45.9,77.45c-.18.37-.38.74-.59,1.09a13.68,13.68,0,0,0,3,.56,16.64,16.64,0,0,0,.93-1.65L50.45,75A11.48,11.48,0,0,0,48.33,61.68Z"/>
    <path class="cls-5" d="M92.34,22.16,87.25,38.05a20.52,20.52,0,0,1-8.57,10.64l-1.37-1.36-16-16A20.48,20.48,0,0,1,72,22.76l15.26-4.88.62-.2A3.57,3.57,0,0,1,92.34,22.16Z"/>
    <path class="cls-6" d="M66.62,44.53a1.1,1.1,0,0,1-.8-.34,1.13,1.13,0,0,1,0-1.61L81.11,27.29a1.14,1.14,0,0,1,1.61,1.61L67.43,44.19A1.12,1.12,0,0,1,66.62,44.53Z"/>
    <path class="cls-6" d="M92.34,22.16,87.25,38.05a20.52,20.52,0,0,1-8.57,10.64l-1.37-1.36A20.32,20.32,0,0,0,84,38.05L89,22.16a3.56,3.56,0,0,0-1.81-4.28l.62-.2A3.57,3.57,0,0,1,92.34,22.16Z"/>
    <path class="cls-7" d="M78.68,48.69c-.54.34-1.09.65-1.65.94l-2.45,1.24A11.49,11.49,0,0,1,59.14,35.43L60.39,33a17.7,17.7,0,0,1,.93-1.64,13.83,13.83,0,0,1,8.8,4.05l3.06,3,1.44,1.45a14.13,14.13,0,0,1,4.06,8.8Z"/>
    <path class="cls-8" d="M73.18,38.44l-5.75,5.75a1.12,1.12,0,0,1-.81.34,1.1,1.1,0,0,1-.8-.34,1.13,1.13,0,0,1,0-1.61l5.75-5.75Z"/>
    <path class="cls-8" d="M78.68,48.69c-.54.34-1.09.65-1.65.94l-2.45,1.24A11.54,11.54,0,0,1,67.79,52h-.06a11.49,11.49,0,0,0,3.55-1.13l2.45-1.24c.57-.29,1.11-.6,1.65-.94a21.11,21.11,0,0,0,2.94-2.21A13.94,13.94,0,0,1,78.68,48.69Z"/>
    <path class="cls-5" d="M48.27,31.34,46.2,33.41,30.91,48.69a20.52,20.52,0,0,1-8.57-10.64L17.25,22.16A3.55,3.55,0,0,1,18.79,18a3.49,3.49,0,0,1,2.95-.35l15.88,5.08A20.48,20.48,0,0,1,48.27,31.34Z"/>
    <path class="cls-6" d="M43,44.53a1.12,1.12,0,0,1-.81-.34L26.87,28.9a1.14,1.14,0,0,1,1.61-1.61L43.77,42.58a1.13,1.13,0,0,1,0,1.61,1.1,1.1,0,0,1-.8.34Z"/>
    <path class="cls-6" d="M48.27,31.34,46.2,33.41h0a5.11,5.11,0,0,1-.45-.83C41.56,23,28.82,21.22,20.2,18.19A3.65,3.65,0,0,0,18.79,18a3.49,3.49,0,0,1,2.95-.35l15.88,5.08a20.48,20.48,0,0,1,10.65,8.58Z"/>
    <path class="cls-7" d="M48.33,48.75A11.47,11.47,0,0,1,35,50.87l-2.45-1.24c-.57-.29-1.11-.6-1.65-.94A13.94,13.94,0,0,1,35,39.89l1.44-1.45,3.06-3a13.83,13.83,0,0,1,8.8-4.05A17.7,17.7,0,0,1,49.2,33l1.25,2.45A11.47,11.47,0,0,1,48.33,48.75Z"/>
    <path class="cls-8" d="M43.77,44.19a1.1,1.1,0,0,1-.8.34,1.12,1.12,0,0,1-.81-.34l-5.75-5.75L38,36.83l5.75,5.75A1.13,1.13,0,0,1,43.77,44.19Z"/>
    <path class="cls-8" d="M50.45,35.43,49.2,33a17.7,17.7,0,0,0-.93-1.64,14.07,14.07,0,0,0-2.87.52c.11.23.22.46.32.69a4.64,4.64,0,0,0,.43.79c5.27,8,.4,17.55-7.49,18.67A11.49,11.49,0,0,0,50.45,35.43Z"/>
    <path class="cls-5" d="M87.85,92.76l-.62-.2L72,87.67A20.51,20.51,0,0,1,61.32,79.1L77.41,63l1.27-1.27a20.51,20.51,0,0,1,8.57,10.65l5.09,15.89a3.57,3.57,0,0,1-4.49,4.48Z"/>
    <path class="cls-6" d="M81.91,83.47a1.13,1.13,0,0,1-.8-.33L65.82,67.85a1.13,1.13,0,0,1,0-1.61,1.15,1.15,0,0,1,1.61,0L82.72,81.53a1.14,1.14,0,0,1-.81,1.94Z"/>
    <path class="cls-6" d="M87.85,92.76l-.62-.2A3.57,3.57,0,0,0,89,88.28C86.39,80.74,84.33,68.72,77.41,63l1.27-1.27a20.51,20.51,0,0,1,8.57,10.65l5.09,15.89a3.57,3.57,0,0,1-4.49,4.48Z"/>
    <path class="cls-7" d="M78.68,61.74a13.9,13.9,0,0,1-4.06,8.8l-4.5,4.51a13.94,13.94,0,0,1-8.8,4,17.86,17.86,0,0,1-.93-1.65L59.14,75A11.49,11.49,0,0,1,74.58,59.56L77,60.81c.56.28,1.11.6,1.65.93Z"/>
    <path class="cls-8" d="M73.18,72,71.57,73.6l-5.75-5.75a1.13,1.13,0,0,1,0-1.61,1.15,1.15,0,0,1,1.61,0Z"/>
    <path class="cls-8" d="M74.06,61a14.31,14.31,0,0,1,4.29,2.9,15.17,15.17,0,0,0,.33-2.11c-.54-.33-1.09-.65-1.65-.93l-2.45-1.25a11.49,11.49,0,0,0-6.9-1.12,13.2,13.2,0,0,1,5.76,2.17,4.1,4.1,0,0,0,.62.34Z"/>
    <g>
      <circle class="cls-7" cx="54.79" cy="55.22" r="3.65"/>
      <path class="cls-7" d="M54.79,51.56a3.69,3.69,0,0,0-1.65.4,3.65,3.65,0,0,1,0,6.52,3.66,3.66,0,1,0,1.65-6.92Z"/>
    </g>
  </g>
</svg>
