<svg id="Layer_1" data-name="Layer 1" xmlns="http://www.w3.org/2000/svg" viewBox="0 0 108 108">
  <defs>
    <style>
      .cls-1 {
        fill: #1aba40;
      }

      .cls-2 {
        fill: #66c967;
      }

      .cls-3 {
        fill: #9f2c3c;
      }

      .cls-4 {
        fill: #cf2731;
      }

      .cls-5 {
        fill: #ff2225;
      }

      .cls-6 {
        fill: #ffce6d;
      }

      .cls-7 {
        fill: #ffe6b6;
      }

      .cls-8 {
        fill: #ffb524;
      }
    </style>
  </defs>
  <g>
    <path class="cls-1" d="M54.88,14.9a1.18,1.18,0,0,0-.88-.39V40.16h7.43A27.89,27.89,0,0,0,54.88,14.9Z"/>
    <path class="cls-2" d="M57.1,40.16c.86-8.71-.05-18.23-2.73-25.26-.1-.26-.23-.39-.37-.39a1.18,1.18,0,0,0-.88.39,27.89,27.89,0,0,0-6.55,25.26Z"/>
    <path class="cls-1" d="M17.09,41.08a1.17,1.17,0,0,0-.64.72l24.39,7.92,2.3-7.06a27.88,27.88,0,0,0-26-1.58Z"/>
    <path class="cls-2" d="M41.8,46.77c-8-3.51-17.35-5.58-24.87-5.2-.28,0-.44.1-.48.23a1.2,1.2,0,0,0,.09,1,27.91,27.91,0,0,0,22,14Z"/>
    <path class="cls-1" d="M30.3,85.11a1.21,1.21,0,0,0,.49.84L45.87,65.19l-6-4.36A27.89,27.89,0,0,0,30.3,85.11Z"/>
    <path class="cls-2" d="M43.36,63.37c-5.82,6.55-10.68,14.78-12.64,22-.07.27,0,.46.07.54a1.19,1.19,0,0,0,.94.2A27.88,27.88,0,0,0,51.88,69.56Z"/>
    <path class="cls-1" d="M76.27,86.15a1.19,1.19,0,0,0,.94-.2L62.13,65.19l-6,4.37A27.88,27.88,0,0,0,76.27,86.15Z"/>
    <path class="cls-2" d="M59.62,67c4.43,7.56,10.76,14.72,17.06,18.83.24.15.42.18.53.1a1.21,1.21,0,0,0,.49-.84,27.89,27.89,0,0,0-9.55-24.28Z"/>
    <path class="cls-1" d="M91.46,42.76a1.21,1.21,0,0,0,.1-1l-24.4,7.92,2.3,7.07a27.9,27.9,0,0,0,22-14Z"/>
    <path class="cls-2" d="M68.12,52.67C76.68,50.8,85.44,47,91.3,42.27c.21-.18.3-.34.25-.47a1.17,1.17,0,0,0-.64-.72,27.88,27.88,0,0,0-26,1.58Z"/>
    <path class="cls-3" d="M53.44,93.14l-9-22.53-4.77,3.14a14.64,14.64,0,0,0,4.2,9.59c2.34,2.43,6.87,7.36,9.31,9.8a1.18,1.18,0,0,0,.84.35A.68.68,0,0,1,53.44,93.14Z"/>
    <g>
      <path class="cls-4" d="M54,93.49Z"/>
      <path class="cls-4" d="M54,64.32l-9.58,6.29v3.14a18.72,18.72,0,0,0,2.8,9.59c1.57,2.43,4.59,7.36,6.22,9.8a.68.68,0,0,0,.56.35h0a1.2,1.2,0,0,0,.84-.35s6.95-7.38,9.31-9.8a14.51,14.51,0,0,0,4.19-9.59Z"/>
    </g>
    <path class="cls-3" d="M91.05,66.63,66.84,68.24l1.51,5.51a14.59,14.59,0,0,0,10.41-1c3-1.48,9.14-4.26,12.2-5.82a1.16,1.16,0,0,0,.59-.7.66.66,0,0,1-.5.43Z"/>
    <path class="cls-4" d="M63.81,57.19l3,11,3,1a18.67,18.67,0,0,0,10,.3c2.8-.74,8.43-2.08,11.25-2.88a.66.66,0,0,0,.5-.43h0a1.14,1.14,0,0,0-.07-.9S86.61,56.4,85,53.41a14.6,14.6,0,0,0-7.83-6.95Z"/>
    <path class="cls-3" d="M77.46,22.67,71.52,46.19l5.69.27a14.63,14.63,0,0,0,2.25-10.22c-.47-3.35-1.23-10-1.77-13.41a1.15,1.15,0,0,0-.48-.77A.66.66,0,0,1,77.46,22.67Z"/>
    <path class="cls-4" d="M60.07,45.65l11.45.54,1.84-2.53a18.83,18.83,0,0,0,3.37-9.41c.16-2.89.62-8.66.73-11.58a.66.66,0,0,0-.25-.61h0a1.22,1.22,0,0,0-.88-.21s-10,1.89-13.3,2.46a14.59,14.59,0,0,0-9,5.29Z"/>
    <path class="cls-3" d="M31.45,22,52,34.93l2-5.34a14.59,14.59,0,0,0-9-5.29c-3.33-.59-9.89-1.92-13.29-2.46a1.2,1.2,0,0,0-.89.21A.71.71,0,0,1,31.45,22Z"/>
    <path class="cls-4" d="M47.94,45.65,52,34.93l-1.85-2.54a18.7,18.7,0,0,0-7.9-6.11c-2.69-1-8-3.26-10.79-4.28a.71.71,0,0,0-.66.05h0a1.22,1.22,0,0,0-.47.78S29,32.89,28.55,36.23a14.54,14.54,0,0,0,2.24,10.23Z"/>
    <path class="cls-3" d="M16.6,65.56,35.24,50l-4.45-3.56A14.59,14.59,0,0,0,23,53.41c-1.58,3-4.88,8.81-6.44,11.88a1.21,1.21,0,0,0-.08.91.71.71,0,0,1,.16-.64Z"/>
    <path class="cls-4" d="M44.19,57.19,35.24,50l-3,1A18.63,18.63,0,0,0,24,56.62c-1.83,2.24-5.59,6.64-7.41,8.94a.67.67,0,0,0-.15.64h0a1.14,1.14,0,0,0,.59.69s9.17,4.33,12.2,5.83a14.53,14.53,0,0,0,10.41,1Z"/>
    <path class="cls-5" d="M69.3,42.43a8.78,8.78,0,0,0-6.43-.63,8.87,8.87,0,0,0-2.59-5.93L54,29.59l-6.28,6.28a8.87,8.87,0,0,0-2.59,5.93,8.78,8.78,0,0,0-6.43.63l-7.91,4,4,7.91a8.79,8.79,0,0,0,4.83,4.29A8.85,8.85,0,0,0,38.27,65l1.38,8.76,8.77-1.38A8.83,8.83,0,0,0,54,69.08a8.83,8.83,0,0,0,5.58,3.28l8.77,1.38L69.73,65a8.85,8.85,0,0,0-1.38-6.32,8.79,8.79,0,0,0,4.83-4.29l4-7.91ZM57.4,58.68H50.6l-2.1-6.47,5.5-4,5.5,4Z"/>
    <circle class="cls-6" cx="48.5" cy="52.21" r="3.4"/>
    <circle class="cls-7" cx="50.6" cy="58.68" r="3.4"/>
    <circle class="cls-8" cx="57.4" cy="58.68" r="3.4"/>
    <circle class="cls-6" cx="59.5" cy="52.21" r="3.4"/>
    <circle class="cls-8" cx="54" cy="48.22" r="3.4"/>
  </g>
</svg>
