<svg xmlns="http://www.w3.org/2000/svg" version="1.1" xmlns:xlink="http://www.w3.org/1999/xlink" xmlns:svgjs="http://svgjs.dev/svgjs" viewBox="0 0 108 108" style="" x="0" y="0"><style type="text/css">
	.st0{fill:#509643;}
	.st1{fill:#568A41;}
	.st2{fill:#488A3C;}
	.st3{fill:#4D903F;}
	.st4{fill:#568D4D;}
	.st5{fill:#699B3F;}
	.st6{fill:#329245;}
	.st7{fill:#6E9C3F;}
	.st8{fill:#568941;}
	.st9{fill:#759D3E;}
	.st10{fill:#46863A;}
	.st11{fill:#4D8D3E;}
	.st12{fill:#AF9FCD;}
	.st13{fill:#AD80F7;}
	.st14{fill:#937CB4;}
	.st15{fill:#AC87BD;}
	.st16{fill:#EDF1F4;}
	.st17{fill:#DFE3E6;}
	.st18{fill:#D5E6ED;}
	.st19{fill:#EBEFE8;}
	.st20{fill:#D1D0CE;}
</style><g><g>
	<path class="st0" d="M41.1,62.6c-0.5-1.5-0.8-3-1-4.5c-0.3-1.5-0.4-3-0.5-4.6c-0.1-1.5-0.1-3-0.1-4.6c0-1.5,0.1-3,0.1-4.5
		c0.1-3,0.4-6,0.8-9c0.4-3,1-5.9,2-8.8l0.7,0.1c0.7,3.1,1.1,6.2,1.3,9.2c0.2,3,0.2,6,0.1,9c-0.1,1.5-0.1,3-0.2,4.5
		c-0.1,1.5-0.2,3-0.4,4.4c-0.2,1.5-0.5,3-0.9,4.4c-0.4,1.5-0.8,3-1.4,4.5H41.1z"></path>
	<path class="st0" d="M41.2,60.4c-1.1-2.8-2-5.8-2.9-8.7c-0.8-2.9-1.6-5.9-2.3-8.8c-0.7-3-1.4-5.9-2-8.9c-0.6-3-1.2-5.9-1.7-9
		l0.4-0.1c1,2.9,1.9,5.8,2.7,8.7c0.8,2.9,1.7,5.8,2.4,8.8c0.8,2.9,1.5,5.9,2.2,8.8c0.6,3,1.2,5.9,1.6,9L41.2,60.4z"></path>
	<path class="st0" d="M41.2,60.5c-2-2.4-3.7-4.9-5.3-7.5c-1.6-2.6-3-5.3-4.4-8c-1.4-2.7-2.8-5.4-4-8.2c-1.3-2.8-2.5-5.6-3.5-8.4
		l0.4-0.2c1.8,2.5,3.5,5,5.1,7.6c1.6,2.6,3.1,5.2,4.6,7.9c1.5,2.7,2.9,5.3,4.2,8.1c1.3,2.8,2.5,5.6,3.4,8.5L41.2,60.5z"></path>
	<path class="st1" d="M42.3,62.2c-1.8-3.2-3.9-6.1-6.3-8.7c-0.3-0.3-0.6-0.7-0.9-1c-0.3-0.3-0.6-0.6-0.9-1c-0.3-0.3-0.6-0.7-0.9-0.9
		l-1-0.9c-0.6-0.6-1.3-1.2-2-1.8c-0.7-0.6-1.4-1.1-2.1-1.6c-2.9-2.1-6-3.9-9.2-5.4c-3.3-1.5-6.7-2.7-10.2-3.7l0.1-0.4
		c3.6,0.5,7.2,1.4,10.7,2.8c3.4,1.4,6.7,3.1,9.8,5.3c0.7,0.6,1.5,1.1,2.2,1.7c0.7,0.6,1.5,1.2,2.1,1.8l1,1c0.3,0.3,0.6,0.7,1,1
		c0.3,0.3,0.6,0.7,0.9,1c0.3,0.4,0.6,0.7,0.9,1.1c2.3,2.9,4.2,6.2,5.3,9.7L42.3,62.2z"></path>
	<path class="st0" d="M41.2,60.6c-2.8-1.3-5.4-2.8-8.1-4.3c-2.6-1.6-5.2-3.2-7.7-4.9c-1.3-0.8-2.5-1.7-3.8-2.6
		c-1.3-0.9-2.5-1.7-3.7-2.6c-2.5-1.8-4.9-3.6-7.3-5.5l0.2-0.4c2.7,1.4,5.4,2.9,8,4.4c1.3,0.8,2.6,1.6,3.9,2.4
		c1.3,0.8,2.6,1.6,3.9,2.4c2.6,1.6,5.1,3.3,7.6,5.1c2.5,1.8,4.9,3.6,7.2,5.7L41.2,60.6z"></path>
	<path class="st2" d="M48.5,62.6c-2.8-1.3-5.4-2.8-8.1-4.3c-2.6-1.6-5.2-3.2-7.7-4.9c-1.3-0.8-2.5-1.7-3.8-2.6
		c-1.3-0.9-2.5-1.7-3.7-2.6c-2.5-1.8-4.9-3.6-7.3-5.5l0.2-0.4c2.7,1.4,5.4,2.9,8,4.4c1.3,0.8,2.6,1.6,3.9,2.4
		c1.3,0.8,2.6,1.6,3.9,2.4c2.6,1.6,5.1,3.3,7.6,5.1c2.5,1.8,4.9,3.6,7.2,5.7L48.5,62.6z"></path>
	<path class="st3" d="M43.7,63.4c-2.7-2.1-5.8-3.7-8.9-4.8l-1.2-0.4C33.4,58.1,33.2,58,33,58c-0.2-0.1-0.4-0.1-0.6-0.1
		c-0.5,0-1,0.3-1.5,0.2c-0.2,0-0.4-0.1-0.6-0.2l-0.6-0.2c-0.8-0.3-1.5-0.7-2.3-0.9c-0.8-0.3-1.5-0.6-2.3-0.8
		c-0.8-0.3-1.6-0.6-2.4-0.8c-0.8-0.2-1.6-0.5-2.4-0.7c-0.8-0.2-1.6-0.4-2.4-0.6c-0.8-0.2-1.6-0.4-2.5-0.5c-3.3-0.6-6.7-0.9-10.1-1.1
		l0-0.4c3.4-0.7,6.9-1,10.4-1c0.9,0,1.8,0.1,2.6,0.1c0.9,0,1.8,0.1,2.6,0.2c0.9,0.1,1.7,0.3,2.6,0.4c0.9,0.1,1.7,0.3,2.6,0.5
		c0.9,0.2,1.7,0.4,2.6,0.7c0.9,0.2,1.7,0.5,2.5,0.8l0.6,0.2c0.2,0.1,0.4,0.1,0.6,0.3c0.4,0.3,0.6,0.9,0.9,1.3
		c0.2,0.2,0.3,0.3,0.5,0.4c0.2,0.1,0.4,0.2,0.6,0.4l1.1,0.7c2.9,1.9,5.6,4.1,8.3,6.2L43.7,63.4z"></path>
	<path class="st0" d="M41.3,60.6c-3.1,0-6.1-0.1-9.1-0.2c-1.5-0.1-3-0.2-4.5-0.3l-4.5-0.4c-3-0.3-6-0.6-9.1-0.9c-3-0.4-6-0.8-9-1.3
		l0-0.4c3,0,6.1,0.1,9.1,0.2c3,0.1,6.1,0.4,9.1,0.6l4.5,0.4c1.5,0.2,3,0.3,4.5,0.5c3,0.4,6,0.8,9,1.3L41.3,60.6z"></path>
	<path class="st0" d="M41.4,60.6c-2.9,1-5.9,1.8-8.8,2.5c-3,0.7-5.9,1.3-8.9,1.8c-3,0.5-6,1-9,1.3c-3,0.3-6.1,0.5-9.2,0.4l-0.1-0.4
		c2.9-1.1,5.8-1.9,8.8-2.6c3-0.7,5.9-1.2,8.9-1.7c3-0.5,6-0.9,9-1.2c3-0.3,6.1-0.5,9.2-0.5L41.4,60.6z"></path>
	<path class="st0" d="M41.4,60.6c-2.7,1.5-5.4,2.8-8.1,4.2c-2.7,1.3-5.5,2.6-8.3,3.8c-1.4,0.6-2.8,1.2-4.2,1.8
		c-1.4,0.6-2.8,1.2-4.2,1.7c-2.8,1.1-5.7,2.2-8.6,3.1l-0.2-0.4c2.7-1.5,5.4-2.9,8.1-4.2c1.4-0.7,2.8-1.3,4.1-1.9
		c1.4-0.6,2.8-1.2,4.2-1.8c2.8-1.2,5.6-2.4,8.4-3.5c2.8-1.1,5.7-2.2,8.6-3.1L41.4,60.6z"></path>
	<path class="st4" d="M48.9,61.9c-3.5,0.9-7,1.8-10.3,3c-3.3,1.2-6.6,2.7-9.6,4.4c-3.1,1.7-6,3.7-8.7,6c-2.7,2.3-5.2,4.8-7.6,7.5
		l-0.4-0.2c1.6-3.3,3.9-6.3,6.5-8.9c2.6-2.6,5.6-4.8,8.9-6.6c3.2-1.8,6.7-3.2,10.3-4.1c3.6-0.9,7.2-1.5,10.9-1.5L48.9,61.9z"></path>
	<path class="st5" d="M41.5,60.5c-1.6,2.6-3.3,5.1-5.1,7.6c-0.9,1.2-1.8,2.5-2.8,3.7c-0.9,1.2-1.9,2.4-2.9,3.6c-2,2.4-4,4.7-6.1,7.1
		c-2.1,2.3-4.2,4.6-6.5,6.8c-0.1-0.1-0.2-0.2-0.4-0.3c1.9-2.5,3.9-4.9,5.8-7.3c1.9-2.4,3.9-4.8,5.8-7.2c1-1.2,2-2.4,2.9-3.6
		c1-1.2,1.9-2.4,2.9-3.6c1.9-2.4,3.9-4.7,5.9-7C41.3,60.3,41.4,60.4,41.5,60.5"></path>
	<path class="st0" d="M44.4,52.3c-1.6,2.6-3.3,5.1-5.1,7.6c-0.9,1.2-1.8,2.5-2.8,3.7c-0.9,1.2-1.9,2.4-2.9,3.6c-2,2.4-4,4.7-6.1,7.1
		c-2.1,2.3-4.2,4.6-6.5,6.8c-0.1-0.1-0.2-0.2-0.4-0.3c1.9-2.5,3.9-4.9,5.8-7.3c1.9-2.4,3.9-4.8,5.8-7.2c1-1.2,2-2.4,2.9-3.6
		c1-1.2,1.9-2.4,2.9-3.6c1.9-2.4,3.9-4.7,5.9-7L44.4,52.3z"></path>
	<path class="st0" d="M41.6,60.5c-0.9,2.9-1.9,5.8-3,8.6c-1.1,2.8-2.3,5.6-3.5,8.4c-0.6,1.4-1.2,2.8-1.9,4.1c-0.6,1.4-1.3,2.7-2,4.1
		c-1.4,2.7-2.8,5.4-4.3,8.1l-0.4-0.2c0.9-2.9,2-5.8,3.1-8.6c0.5-1.4,1.1-2.8,1.7-4.2c0.6-1.4,1.2-2.8,1.8-4.2
		c1.2-2.8,2.5-5.5,3.8-8.3c1.3-2.7,2.8-5.4,4.3-8L41.6,60.5z"></path>
	<path class="st0" d="M52.1,37.7c-0.9,2.9-1.9,5.8-3,8.6c-1.1,2.8-2.3,5.6-3.5,8.4c-0.6,1.4-1.2,2.8-1.9,4.1c-0.6,1.4-1.3,2.7-2,4.1
		c-1.4,2.7-2.8,5.4-4.3,8.1L37,70.8c0.9-2.9,2-5.8,3.1-8.6c0.5-1.4,1.1-2.8,1.7-4.2c0.6-1.4,1.2-2.8,1.8-4.2
		c1.2-2.8,2.5-5.5,3.8-8.3c1.3-2.7,2.8-5.4,4.3-8L52.1,37.7z"></path>
	<path class="st6" d="M42.2,58.9c0.2,1.6,0.2,3.1,0.2,4.6c0,1.5-0.2,3-0.3,4.6c-0.2,1.5-0.4,3-0.7,4.5c-0.3,1.5-0.6,3-0.9,4.5
		c-0.6,3-1.4,6-2.3,8.9c-0.9,3-1.9,5.9-3.1,8.8c-0.2,0-0.4-0.1-0.6-0.1c0.3-3,0.8-6.1,1.3-9.1c0.5-3,1-6,1.6-9
		c0.3-1.5,0.6-3,0.8-4.5c0.3-1.5,0.6-3,0.9-4.5c0.3-1.5,0.7-3,1.1-4.4c0.4-1.5,0.9-2.9,1.5-4.4L42.2,58.9z"></path>
	<path class="st1" d="M41.6,60.4c0.5,1.5,0.8,3,1.1,4.5c0.3,1.5,0.5,3,0.7,4.5c0.2,1.5,0.3,3,0.4,4.5c0.1,1.5,0.2,3,0.3,4.5
		c0.2,3,0.3,6.1,0.4,9.1c0.1,3,0.1,6.1,0,9.1l-0.4,0c-0.6-3-1-6-1.4-9c-0.4-3-0.8-6-1.1-9.1c-0.2-1.5-0.3-3-0.4-4.5
		c-0.1-1.5-0.3-3-0.3-4.5c-0.1-1.5-0.1-3,0-4.6c0.1-1.5,0.2-3.1,0.4-4.6L41.6,60.4z"></path>
	<path class="st0" d="M41.6,60.3c1.2,2.8,2.3,5.6,3.4,8.5c1,2.9,2,5.8,3.1,8.6c0.5,1.4,1,2.9,1.6,4.3c0.5,1.4,1,2.9,1.6,4.3
		c1.1,2.9,2.1,5.8,3.1,8.7c-0.2,0.1-0.3,0.1-0.5,0.2c-1.5-2.8-2.8-5.6-4-8.4c-0.6-1.4-1.2-2.8-1.8-4.3c-0.6-1.4-1.1-2.9-1.7-4.3
		c-1.1-2.9-2.1-5.8-3-8.7c-0.9-2.9-1.7-5.9-2.2-8.9C41.3,60.4,41.4,60.4,41.6,60.3"></path>
	<path class="st7" d="M41.5,60.3c0.7,0.5,1.3,1,1.8,1.6c0.6,0.5,1.1,1.1,1.7,1.7c1.1,1.1,2.1,2.3,3,3.5c1.9,2.4,3.5,5,5.2,7.6
		c1.7,2.6,3.3,5.2,4.8,7.9c1.5,2.7,3,5.4,4.3,8.3c-0.1,0.1-0.3,0.2-0.4,0.2c-2.5-2.1-4.7-4.4-6.8-6.7c-2.1-2.4-4-4.8-5.8-7.3
		c-1.8-2.5-3.5-5-5-7.8c-0.7-1.4-1.3-2.8-1.9-4.2c-0.3-0.7-0.5-1.5-0.7-2.2c-0.2-0.8-0.4-1.5-0.5-2.3C41.3,60.4,41.4,60.3,41.5,60.3
		"></path>
	<path class="st0" d="M33,61.6c0.9,0,1.8,0.1,2.8,0.2c0.9,0.1,1.8,0.3,2.7,0.4c0.9,0.1,1.8,0.4,2.7,0.6c0.4,0.1,0.9,0.2,1.3,0.4
		l1.3,0.4c3.5,1.2,6.9,2.8,10,4.9c3.1,2.1,6,4.5,8.4,7.3c2.4,2.8,4.5,5.9,5.9,9.3l-0.4,0.2c-2-3-4.3-5.8-6.9-8.2
		c-2.6-2.5-5.4-4.7-8.4-6.5c-3-1.9-6.2-3.5-9.5-4.8l-1.2-0.5c-0.4-0.2-0.8-0.3-1.3-0.5c-0.8-0.3-1.7-0.7-2.5-0.9
		c-0.9-0.3-1.7-0.6-2.6-0.9c-0.9-0.3-1.7-0.5-2.6-0.8L33,61.6z"></path>
	<path class="st8" d="M41.5,60.2c1.4,0.5,2.8,1.1,4.2,1.7c1.4,0.6,2.8,1.2,4.1,1.9c2.7,1.3,5.4,2.8,8.1,4.2s5.3,3,7.9,4.6
		c2.6,1.6,5.2,3.2,7.6,5l-0.2,0.4c-2.8-1.1-5.6-2.4-8.3-3.7c-2.7-1.3-5.4-2.7-8.1-4.2c-2.7-1.4-5.3-2.9-7.9-4.5
		c-1.3-0.8-2.6-1.6-3.8-2.5c-1.3-0.9-2.5-1.7-3.7-2.6L41.5,60.2z"></path>
	<path class="st0" d="M36.7,59c1.5-0.1,3.1-0.1,4.6-0.1c1.5,0,3,0,4.6,0.1c3,0.1,6.1,0.3,9.1,0.6c3,0.3,6,0.6,9.1,1.1
		c3,0.4,6,0.9,9,1.5l0,0.4c-3.1,0.1-6.1,0.1-9.1-0.1c-3-0.1-6.1-0.3-9.1-0.6c-3-0.2-6-0.6-9.1-1c-1.5-0.2-3-0.4-4.5-0.7
		c-1.5-0.3-3-0.6-4.5-0.9L36.7,59z"></path>
	<path class="st0" d="M41.4,60.2c3,0.6,5.9,1.3,8.9,2.1c3,0.7,5.9,1.5,8.9,2.3c3,0.8,5.9,1.5,8.9,2.3c3,0.8,5.9,1.6,8.9,2.5
		c0,0.1-0.1,0.3-0.1,0.4c-3.1-0.5-6.1-1.1-9.1-1.7c-3-0.6-6-1.3-9-2.1c-3-0.7-5.9-1.6-8.8-2.4c-2.9-0.9-5.8-1.8-8.7-2.9
		C41.3,60.4,41.4,60.3,41.4,60.2"></path>
	<path class="st0" d="M41.2,60.2c2.9-1.2,5.9-2.1,9-2.7c3.1-0.6,6.2-0.8,9.4-0.8l2.4,0.1l2.3,0.2l2.3,0.3l2.3,0.4
		c3.1,0.6,6.1,1.5,9,2.7l-0.1,0.4c-3-0.9-6-1.7-9-2.1l-2.3-0.3l-2.3-0.2L61.9,58l-2.3-0.1c-3.1,0-6.1,0.2-9.2,0.7c-3,0.5-6,1.1-9,2
		L41.2,60.2z"></path>
	<path class="st9" d="M41.3,60.2c2.9-1,5.8-1.8,8.7-2.6c1.5-0.4,2.9-0.8,4.4-1.2c1.5-0.4,2.9-0.8,4.4-1.1c2.9-0.8,5.9-1.4,8.9-2.1
		c3-0.6,6-1.2,9-1.7l0.1,0.4c-2.9,1-5.8,1.9-8.7,2.7c-2.9,0.8-5.9,1.6-8.8,2.3c-1.5,0.4-3,0.7-4.4,1c-1.5,0.3-3,0.7-4.4,1
		c-3,0.6-5.9,1.2-9,1.7L41.3,60.2z"></path>
	<path class="st0" d="M39.9,62.2c2.4-2,4.9-3.6,7.5-5.2c2.6-1.6,5.3-3,8-4.4c2.7-1.4,5.4-2.7,8.2-4c2.8-1.3,5.6-2.5,8.4-3.5l0.2,0.4
		c-2.5,1.8-5.1,3.4-7.6,5C62,52,59.4,53.5,56.7,55c-2.7,1.5-5.3,2.9-8.1,4.2c-2.8,1.3-5.6,2.5-8.5,3.4L39.9,62.2z"></path>
	<path class="st0" d="M32.8,62.2c2.4-2,4.9-3.6,7.5-5.2c2.6-1.6,5.3-3,8-4.4c2.7-1.4,5.4-2.7,8.2-4c2.8-1.3,5.6-2.5,8.4-3.5l0.2,0.4
		c-2.5,1.8-5.1,3.4-7.6,5c-2.6,1.6-5.2,3.1-7.9,4.6c-2.7,1.5-5.3,2.9-8.1,4.2c-2.8,1.3-5.6,2.5-8.5,3.4L32.8,62.2z"></path>
	<path class="st10" d="M39.8,61.6c1.4-3.4,3.5-6.5,6-9.3c2.5-2.7,5.4-5.1,8.6-7.1c0.8-0.5,1.6-1,2.4-1.4c0.8-0.5,1.6-0.8,2.5-1.2
		c0.4-0.2,0.8-0.4,1.3-0.6c0.4-0.2,0.9-0.3,1.3-0.5l1.3-0.5l1.3-0.4c3.5-1.1,7.1-1.9,10.8-2.1l0.1,0.4c-3.5,0.9-7,1.9-10.3,3.3
		l-1.2,0.5l-1.2,0.6c-0.4,0.2-0.8,0.4-1.2,0.6c-0.4,0.2-0.8,0.4-1.2,0.6c-0.8,0.4-1.6,0.8-2.3,1.3c-0.8,0.5-1.5,0.9-2.3,1.4
		c-3,1.9-5.8,4.1-8.3,6.6c-2.6,2.5-4.9,5.2-7,8.1L39.8,61.6z"></path>
	<path class="st0" d="M41.2,60.3c1.4-2.7,2.9-5.4,4.5-8c1.6-2.6,3.2-5.1,5-7.6l1.3-1.9l1.3-1.9c0.9-1.3,1.7-2.5,2.6-3.7
		c1.8-2.5,3.6-4.9,5.5-7.3l0.4,0.2c-1.4,2.7-3,5.3-4.6,7.9c-0.8,1.3-1.6,2.6-2.4,3.9l-1.2,1.9l-1.2,1.9c-1.6,2.6-3.3,5.1-5.1,7.5
		c-1.8,2.5-3.6,4.9-5.6,7.2L41.2,60.3z"></path>
	<path class="st11" d="M41.2,60.3c-0.1-1.6,0.2-3.2,0.5-4.7c0.3-1.5,0.8-2.9,1.3-4.4c1-2.9,2.1-5.7,3.1-8.5c1.1-2.8,2.2-5.7,3.4-8.5
		c1.2-2.8,2.4-5.6,3.8-8.3l0.4,0.1c-0.7,3-1.4,5.9-2.3,8.9c-0.8,2.9-1.7,5.8-2.6,8.7c-0.9,2.9-1.9,5.8-2.9,8.6
		c-0.5,1.4-1,2.9-1.7,4.2c-0.7,1.4-1.5,2.7-2.5,3.9L41.2,60.3z"></path>
	<path class="st0" d="M48.9,60.3c0,4.1-3.3,7.4-7.4,7.4c-4.1,0-7.4-3.3-7.4-7.4c0-4.1,3.3-7.4,7.4-7.4
		C45.6,52.9,48.9,56.2,48.9,60.3"></path>
	<path class="st0" d="M56.5,68.6c-0.5-1.5-0.8-3-1-4.5c-0.3-1.5-0.4-3-0.5-4.6c-0.1-1.5-0.1-3-0.1-4.6c0-1.5,0.1-3,0.1-4.5
		c0.1-3,0.4-6,0.8-9c0.4-3,1-5.9,2-8.8l0.7,0.1c0.7,3.1,1.1,6.2,1.3,9.2c0.2,3,0.2,6,0.1,9c-0.1,1.5-0.1,3-0.2,4.5
		c-0.1,1.5-0.2,3-0.4,4.4c-0.2,1.5-0.5,3-0.9,4.4c-0.4,1.5-0.8,3-1.4,4.5H56.5z"></path>
	<path class="st0" d="M56.5,66.4c-1.1-2.8-2-5.8-2.9-8.7c-0.8-2.9-1.6-5.9-2.3-8.8c-0.7-3-1.4-5.9-2-8.9c-0.6-3-1.2-5.9-1.7-9L48,31
		c1,2.9,1.9,5.8,2.7,8.7c0.8,2.9,1.7,5.8,2.4,8.8c0.8,2.9,1.5,5.9,2.2,8.8c0.6,3,1.2,6,1.6,9L56.5,66.4z"></path>
	<path class="st0" d="M56.5,66.5c-2-2.4-3.7-4.9-5.3-7.5c-1.6-2.6-3-5.3-4.4-8c-1.4-2.7-2.8-5.4-4-8.2c-1.3-2.8-2.5-5.6-3.5-8.4
		l0.4-0.2c1.8,2.5,3.5,5,5.1,7.6c1.6,2.6,3.1,5.2,4.6,7.9c1.5,2.7,2.9,5.3,4.2,8.1c1.3,2.8,2.5,5.6,3.4,8.5L56.5,66.5z"></path>
	<path class="st1" d="M57.6,68.2c-1.8-3.2-3.9-6.1-6.3-8.7c-0.3-0.3-0.6-0.7-0.9-1c-0.3-0.3-0.6-0.6-0.9-1c-0.3-0.3-0.6-0.7-0.9-0.9
		l-1-0.9c-0.6-0.6-1.3-1.2-2-1.8c-0.7-0.6-1.4-1.1-2.1-1.6c-2.9-2.1-6-3.9-9.2-5.4c-3.3-1.5-6.7-2.7-10.2-3.7l0.1-0.4
		c3.6,0.5,7.2,1.4,10.7,2.8c3.4,1.4,6.7,3.1,9.8,5.3c0.7,0.6,1.5,1.1,2.2,1.7c0.7,0.6,1.5,1.2,2.1,1.8l1,1c0.3,0.3,0.6,0.7,1,1
		c0.3,0.3,0.6,0.7,0.9,1c0.3,0.4,0.6,0.7,0.9,1.1c2.3,2.9,4.2,6.2,5.3,9.7L57.6,68.2z"></path>
	<path class="st0" d="M56.6,66.5c-2.8-1.3-5.4-2.8-8.1-4.3c-2.6-1.6-5.2-3.2-7.7-4.9c-1.3-0.8-2.5-1.7-3.8-2.6
		c-1.3-0.9-2.5-1.7-3.7-2.6c-2.5-1.8-4.9-3.6-7.3-5.5l0.2-0.4c2.7,1.4,5.4,2.9,8,4.4c1.3,0.8,2.6,1.6,3.9,2.4
		c1.3,0.8,2.6,1.6,3.9,2.4c2.6,1.6,5.1,3.3,7.6,5.1c2.5,1.8,4.9,3.6,7.2,5.7L56.6,66.5z"></path>
	<path class="st2" d="M63.9,68.6c-2.8-1.3-5.4-2.8-8.1-4.3c-2.6-1.6-5.2-3.2-7.7-4.9c-1.3-0.8-2.5-1.7-3.8-2.6
		c-1.3-0.9-2.5-1.7-3.7-2.6c-2.5-1.8-4.9-3.6-7.3-5.5l0.2-0.4c2.7,1.4,5.4,2.9,8,4.4c1.3,0.8,2.6,1.6,3.9,2.4
		c1.3,0.8,2.6,1.6,3.9,2.4c2.6,1.6,5.1,3.3,7.6,5.1c2.5,1.8,4.9,3.6,7.2,5.7L63.9,68.6z"></path>
	<path class="st3" d="M59.1,69.3c-2.7-2.1-5.8-3.7-8.9-4.8l-1.2-0.4c-0.2-0.1-0.4-0.1-0.6-0.2c-0.2-0.1-0.4-0.1-0.6-0.1
		c-0.5,0-1,0.3-1.5,0.2c-0.2,0-0.4-0.1-0.6-0.2l-0.6-0.2c-0.8-0.3-1.5-0.7-2.3-0.9c-0.8-0.3-1.5-0.6-2.3-0.8
		c-0.8-0.3-1.6-0.6-2.4-0.8c-0.8-0.2-1.6-0.5-2.4-0.7c-0.8-0.2-1.6-0.4-2.4-0.6c-0.8-0.2-1.6-0.4-2.5-0.5c-3.3-0.6-6.7-1-10.1-1.1
		l0-0.4c3.4-0.7,6.9-1,10.4-1c0.9,0,1.7,0.1,2.6,0.1c0.9,0,1.8,0.1,2.6,0.2c0.9,0.1,1.7,0.3,2.6,0.4c0.9,0.1,1.7,0.3,2.6,0.5
		c0.9,0.2,1.7,0.4,2.6,0.7c0.9,0.2,1.7,0.5,2.5,0.8l0.6,0.2c0.2,0.1,0.4,0.1,0.6,0.3c0.4,0.3,0.6,0.9,0.9,1.3
		c0.2,0.2,0.3,0.3,0.5,0.4c0.2,0.1,0.4,0.2,0.6,0.4l1.1,0.7c2.9,1.9,5.6,4.1,8.3,6.2L59.1,69.3z"></path>
	<path class="st0" d="M56.7,66.6c-3.1,0-6.1-0.1-9.1-0.2c-1.5-0.1-3-0.2-4.5-0.3l-4.5-0.4c-3-0.3-6-0.6-9.1-0.9c-3-0.4-6-0.8-9-1.3
		l0-0.4c3.1,0,6.1,0.1,9.1,0.2c3,0.1,6.1,0.4,9.1,0.6l4.5,0.4c1.5,0.2,3,0.3,4.5,0.5c3,0.4,6,0.8,9,1.3L56.7,66.6z"></path>
	<path class="st0" d="M56.8,66.6c-2.9,1-5.9,1.8-8.8,2.5c-3,0.7-5.9,1.3-8.9,1.8c-3,0.5-6,1-9,1.3c-3,0.3-6.1,0.5-9.2,0.4l-0.1-0.4
		c2.9-1.1,5.8-1.9,8.8-2.6c3-0.7,5.9-1.2,8.9-1.7c3-0.5,6-0.9,9-1.2c3-0.3,6.1-0.5,9.2-0.5L56.8,66.6z"></path>
	<path class="st0" d="M56.8,66.6c-2.7,1.5-5.4,2.8-8.1,4.2c-2.7,1.3-5.5,2.6-8.3,3.8c-1.4,0.6-2.8,1.2-4.2,1.8
		c-1.4,0.6-2.8,1.2-4.2,1.7c-2.8,1.1-5.7,2.2-8.6,3.1l-0.2-0.4c2.7-1.5,5.4-2.9,8.1-4.2c1.4-0.7,2.8-1.3,4.1-1.9
		c1.4-0.6,2.8-1.2,4.2-1.8c2.8-1.2,5.6-2.4,8.4-3.5c2.8-1.1,5.7-2.2,8.6-3.1L56.8,66.6z"></path>
	<path class="st4" d="M64.3,67.9c-3.5,0.9-7,1.8-10.3,3c-3.3,1.2-6.6,2.7-9.6,4.4c-3.1,1.7-6,3.7-8.7,6c-2.7,2.3-5.2,4.8-7.6,7.5
		l-0.4-0.2c1.6-3.3,3.9-6.3,6.5-8.9c2.6-2.6,5.6-4.8,8.9-6.6c3.2-1.8,6.7-3.2,10.3-4.1c3.6-1,7.2-1.5,10.9-1.5L64.3,67.9z"></path>
	<path class="st5" d="M56.9,66.5c-1.6,2.6-3.3,5.1-5.1,7.6c-0.9,1.2-1.8,2.5-2.8,3.7c-0.9,1.2-1.9,2.4-2.9,3.6c-2,2.4-4,4.7-6.1,7.1
		c-2.1,2.3-4.2,4.6-6.5,6.8c-0.1-0.1-0.2-0.2-0.4-0.3c1.9-2.5,3.9-4.9,5.8-7.3c1.9-2.4,3.9-4.8,5.8-7.2c1-1.2,2-2.4,2.9-3.6
		c1-1.2,1.9-2.4,2.9-3.6c1.9-2.4,3.9-4.7,5.9-7C56.7,66.3,56.8,66.4,56.9,66.5"></path>
	<path class="st0" d="M59.8,58.3c-1.6,2.6-3.3,5.1-5.1,7.6c-0.9,1.2-1.8,2.5-2.8,3.7C51,70.8,50,72,49,73.2c-2,2.4-4,4.7-6.1,7.1
		c-2.1,2.3-4.2,4.6-6.5,6.8c-0.1-0.1-0.2-0.2-0.4-0.3c1.9-2.5,3.9-4.9,5.8-7.3c1.9-2.4,3.9-4.8,5.8-7.2c1-1.2,2-2.4,2.9-3.6
		c1-1.2,1.9-2.4,2.9-3.6c1.9-2.4,3.9-4.7,5.9-7C59.6,58.1,59.7,58.2,59.8,58.3"></path>
	<path class="st0" d="M56.9,66.4c-0.9,2.9-1.9,5.8-3,8.6c-1.1,2.8-2.3,5.6-3.5,8.4c-0.6,1.4-1.2,2.8-1.9,4.1c-0.6,1.4-1.3,2.7-2,4.1
		c-1.4,2.7-2.8,5.4-4.3,8.1l-0.4-0.2c0.9-2.9,2-5.8,3.1-8.6c0.5-1.4,1.1-2.8,1.7-4.2c0.6-1.4,1.2-2.8,1.8-4.2
		c1.2-2.8,2.5-5.5,3.8-8.3c1.3-2.7,2.8-5.4,4.4-8L56.9,66.4z"></path>
	<path class="st0" d="M67.5,43.7c-0.9,2.9-1.9,5.8-3,8.6c-1.1,2.8-2.3,5.6-3.5,8.4c-0.6,1.4-1.2,2.8-1.9,4.1c-0.6,1.4-1.3,2.7-2,4.1
		c-1.4,2.7-2.8,5.4-4.3,8.1l-0.4-0.2c0.9-2.9,2-5.8,3.1-8.6c0.5-1.4,1.1-2.8,1.7-4.2c0.6-1.4,1.2-2.8,1.8-4.2
		c1.2-2.8,2.5-5.5,3.8-8.3c1.3-2.7,2.8-5.4,4.4-8L67.5,43.7z"></path>
	<path class="st6" d="M57.5,64.9c0.2,1.6,0.2,3.1,0.2,4.6c0,1.5-0.2,3-0.3,4.6c-0.2,1.5-0.4,3-0.7,4.5c-0.3,1.5-0.6,3-0.9,4.5
		c-0.6,3-1.4,6-2.3,8.9c-0.9,3-1.9,5.9-3.1,8.8c-0.2,0-0.4-0.1-0.6-0.1c0.3-3,0.8-6.1,1.3-9.1c0.5-3,1-6,1.6-9
		c0.3-1.5,0.6-3,0.8-4.5c0.3-1.5,0.6-3,0.9-4.5c0.3-1.5,0.7-3,1.1-4.4c0.4-1.5,0.9-2.9,1.5-4.4C57.3,64.8,57.4,64.8,57.5,64.9"></path>
	<path class="st1" d="M56.9,66.3c0.5,1.5,0.8,3,1.1,4.5c0.3,1.5,0.5,3,0.7,4.5c0.2,1.5,0.3,3,0.4,4.5c0.1,1.5,0.2,3,0.3,4.5
		c0.2,3,0.3,6.1,0.4,9.1c0.1,3,0.1,6.1,0,9.1l-0.4,0c-0.6-3-1-6-1.4-9c-0.4-3-0.8-6-1.1-9.1c-0.2-1.5-0.3-3-0.4-4.5
		c-0.1-1.5-0.3-3-0.3-4.5c-0.1-1.5-0.1-3,0-4.6c0.1-1.5,0.2-3.1,0.4-4.6L56.9,66.3z"></path>
	<path class="st0" d="M56.9,66.3c1.2,2.8,2.3,5.6,3.4,8.5c1,2.9,2,5.8,3.1,8.6c0.5,1.4,1,2.9,1.6,4.3c0.5,1.4,1,2.9,1.6,4.3
		c1.1,2.9,2.1,5.8,3.1,8.7c-0.2,0-0.3,0.1-0.5,0.2c-1.5-2.8-2.8-5.6-4-8.4c-0.6-1.4-1.2-2.8-1.8-4.3c-0.6-1.4-1.1-2.9-1.7-4.3
		c-1.1-2.9-2.1-5.7-3-8.7c-0.9-2.9-1.7-5.9-2.2-8.9C56.7,66.4,56.8,66.3,56.9,66.3"></path>
	<path class="st7" d="M56.9,66.3c0.7,0.5,1.3,1,1.8,1.6c0.6,0.5,1.1,1.1,1.7,1.7c1.1,1.1,2.1,2.3,3,3.5c1.9,2.4,3.5,5,5.2,7.6
		c1.7,2.6,3.3,5.2,4.8,7.9c1.5,2.7,3,5.4,4.3,8.3c-0.1,0.1-0.3,0.2-0.4,0.2c-2.5-2.1-4.7-4.4-6.8-6.7c-2.1-2.4-4-4.8-5.8-7.3
		c-1.8-2.5-3.5-5-5-7.8c-0.7-1.4-1.3-2.8-1.9-4.2c-0.3-0.7-0.5-1.5-0.7-2.2c-0.2-0.8-0.4-1.5-0.5-2.3C56.7,66.4,56.8,66.3,56.9,66.3
		"></path>
	<path class="st0" d="M48.4,67.6c0.9,0,1.8,0.1,2.8,0.2c0.9,0.1,1.8,0.3,2.7,0.4c0.9,0.1,1.8,0.4,2.7,0.6c0.4,0.1,0.9,0.2,1.3,0.4
		l1.3,0.4c3.5,1.2,6.9,2.8,10,4.9c3.1,2,6,4.5,8.4,7.3c2.4,2.8,4.5,5.9,5.9,9.3l-0.4,0.2c-2-3-4.3-5.8-6.9-8.2
		c-2.6-2.5-5.4-4.7-8.4-6.5c-3-1.9-6.2-3.5-9.5-4.8l-1.2-0.5c-0.4-0.2-0.8-0.3-1.3-0.5c-0.8-0.3-1.7-0.7-2.5-0.9
		c-0.9-0.3-1.7-0.6-2.6-0.9c-0.9-0.3-1.7-0.5-2.6-0.8L48.4,67.6z"></path>
	<path class="st8" d="M56.8,66.2c1.4,0.5,2.8,1.1,4.2,1.7c1.4,0.6,2.8,1.2,4.1,1.9c2.7,1.3,5.4,2.7,8.1,4.2c2.7,1.5,5.3,3,7.9,4.6
		c2.6,1.6,5.2,3.2,7.6,5L88.6,84c-2.8-1.1-5.6-2.4-8.3-3.7c-2.7-1.3-5.4-2.7-8.1-4.2c-2.7-1.4-5.3-2.9-7.9-4.5
		c-1.3-0.8-2.6-1.6-3.8-2.5c-1.3-0.9-2.5-1.7-3.7-2.6L56.8,66.2z"></path>
	<path class="st0" d="M52.1,65c1.5-0.1,3.1-0.1,4.6-0.1c1.5,0,3,0,4.6,0.1c3,0.1,6.1,0.3,9.1,0.6c3,0.3,6,0.6,9.1,1.1
		c3,0.4,6,0.9,9,1.5l0,0.4c-3.1,0.1-6.1,0.1-9.1-0.1c-3-0.1-6.1-0.3-9.1-0.6c-3-0.2-6-0.6-9.1-1c-1.5-0.2-3-0.4-4.5-0.7
		c-1.5-0.3-3-0.6-4.5-0.9L52.1,65z"></path>
	<path class="st0" d="M56.8,66.2c3,0.6,5.9,1.3,8.9,2.1c3,0.7,5.9,1.5,8.9,2.3c3,0.8,5.9,1.5,8.9,2.3c3,0.8,5.9,1.6,8.9,2.5
		c0,0.1-0.1,0.3-0.1,0.4c-3.1-0.5-6.1-1.1-9.1-1.7c-3-0.6-6-1.3-9-2.1c-3-0.7-5.9-1.6-8.8-2.4c-2.9-0.9-5.8-1.8-8.7-2.9
		C56.7,66.4,56.7,66.3,56.8,66.2"></path>
	<path class="st0" d="M56.6,66.2c2.9-1.2,5.9-2.1,9-2.7c3.1-0.6,6.2-0.8,9.4-0.8l2.4,0.1l2.3,0.2l2.3,0.3l2.3,0.4
		c3.1,0.6,6.1,1.5,9,2.7l-0.1,0.4c-3-0.9-6-1.7-9-2.1l-2.3-0.3l-2.3-0.2l-2.3-0.1l-2.3-0.1c-3.1,0-6.1,0.2-9.2,0.7c-3,0.5-6,1.1-9,2
		L56.6,66.2z"></path>
	<path class="st9" d="M56.7,66.2c2.9-1,5.8-1.8,8.7-2.6c1.5-0.4,2.9-0.8,4.4-1.2c1.5-0.4,2.9-0.8,4.4-1.1c2.9-0.8,5.9-1.4,8.9-2.1
		c3-0.6,6-1.2,9-1.7l0.1,0.4c-2.9,1-5.8,1.9-8.7,2.7c-2.9,0.8-5.9,1.6-8.8,2.3c-1.5,0.4-3,0.7-4.4,1c-1.5,0.3-3,0.7-4.4,1
		c-3,0.6-5.9,1.2-9,1.7L56.7,66.2z"></path>
	<path class="st0" d="M55.2,68.1c2.4-2,4.9-3.6,7.5-5.2c2.6-1.6,5.3-3,8-4.4c2.7-1.4,5.4-2.7,8.2-4c2.8-1.3,5.6-2.5,8.4-3.5l0.2,0.4
		c-2.5,1.8-5.1,3.4-7.6,5c-2.6,1.6-5.2,3.1-7.9,4.6c-2.7,1.5-5.3,2.9-8.1,4.2c-2.8,1.3-5.6,2.5-8.5,3.3L55.2,68.1z"></path>
	<path class="st0" d="M48.1,68.1c2.4-2,4.9-3.6,7.5-5.2c2.6-1.6,5.3-3,8-4.4c2.7-1.4,5.4-2.7,8.2-4c2.8-1.3,5.6-2.5,8.4-3.5l0.2,0.4
		c-2.5,1.8-5.1,3.4-7.6,5C70.2,58,67.6,59.5,65,61c-2.7,1.5-5.3,2.9-8.1,4.2c-2.8,1.3-5.6,2.5-8.5,3.3L48.1,68.1z"></path>
	<path class="st10" d="M55.1,67.6c1.4-3.4,3.5-6.5,6-9.3c2.5-2.8,5.4-5.1,8.6-7.1c0.8-0.5,1.6-1,2.4-1.4c0.8-0.5,1.6-0.8,2.5-1.2
		c0.4-0.2,0.8-0.4,1.3-0.6c0.4-0.2,0.9-0.3,1.3-0.5l1.3-0.5l1.3-0.4c3.5-1.1,7.1-1.9,10.8-2.1l0.1,0.4c-3.5,0.9-7,1.9-10.3,3.3
		l-1.2,0.5l-1.2,0.6c-0.4,0.2-0.8,0.4-1.2,0.6c-0.4,0.2-0.8,0.4-1.2,0.6c-0.8,0.4-1.6,0.8-2.3,1.3c-0.8,0.5-1.5,0.9-2.3,1.4
		c-3,1.9-5.8,4.1-8.3,6.6c-2.6,2.5-4.9,5.2-7,8.1L55.1,67.6z"></path>
	<path class="st0" d="M56.6,66.2c1.4-2.7,2.9-5.4,4.5-8c1.6-2.6,3.2-5.1,5-7.6l1.3-1.9l1.3-1.9c0.9-1.3,1.7-2.5,2.6-3.7
		c1.8-2.5,3.6-4.9,5.5-7.3l0.4,0.2c-1.4,2.7-3,5.3-4.6,7.9c-0.8,1.3-1.6,2.6-2.4,3.9l-1.2,1.9l-1.2,1.9c-1.6,2.6-3.3,5.1-5.1,7.5
		c-1.8,2.5-3.6,4.9-5.6,7.2L56.6,66.2z"></path>
	<path class="st11" d="M56.5,66.3c-0.1-1.6,0.2-3.2,0.5-4.7c0.3-1.5,0.8-2.9,1.3-4.4c1-2.9,2.1-5.7,3.1-8.5c1.1-2.8,2.2-5.7,3.4-8.5
		c1.2-2.8,2.4-5.6,3.8-8.3l0.4,0.1c-0.7,3-1.4,5.9-2.3,8.9c-0.8,2.9-1.7,5.8-2.6,8.7c-0.9,2.9-1.9,5.8-2.9,8.6
		c-0.5,1.4-1,2.9-1.7,4.2c-0.7,1.4-1.5,2.7-2.5,3.9L56.5,66.3z"></path>
	<path class="st0" d="M64.3,66.3c0,4.1-3.3,7.4-7.4,7.4c-4.1,0-7.4-3.3-7.4-7.4c0-4.1,3.3-7.4,7.4-7.4C61,58.9,64.3,62.2,64.3,66.3"></path>
	<path class="st0" d="M61.6,49.7c-0.5-1.5-0.8-3-1-4.5c-0.3-1.5-0.4-3-0.5-4.6C60,39,60,37.5,60,36c0-1.5,0.1-3,0.1-4.5
		c0.1-3,0.4-6,0.8-9c0.4-3,1-5.9,2-8.8l0.7,0.1c0.7,3.1,1.1,6.2,1.3,9.2c0.2,3,0.2,6,0.1,9c-0.1,1.5-0.1,3-0.2,4.5
		c-0.1,1.5-0.2,3-0.4,4.4c-0.2,1.5-0.5,3-0.9,4.4c-0.4,1.5-0.8,3-1.4,4.5H61.6z"></path>
	<path class="st0" d="M61.6,47.5c-1.1-2.8-2-5.8-2.9-8.7c-0.8-2.9-1.6-5.9-2.3-8.8c-0.7-3-1.4-5.9-2-8.9c-0.6-3-1.2-5.9-1.7-9
		l0.4-0.1c1,2.9,1.9,5.8,2.7,8.7c0.8,2.9,1.7,5.8,2.4,8.8c0.8,2.9,1.5,5.9,2.2,8.8c0.6,3,1.2,6,1.6,9L61.6,47.5z"></path>
	<path class="st0" d="M61.6,47.6c-2-2.4-3.7-4.9-5.3-7.5c-1.6-2.6-3-5.3-4.4-8c-1.4-2.7-2.8-5.4-4-8.2c-1.3-2.8-2.5-5.6-3.5-8.4
		l0.4-0.2c1.8,2.5,3.5,5,5.1,7.6c1.6,2.6,3.1,5.2,4.6,7.9c1.5,2.7,2.9,5.3,4.2,8.1c1.3,2.8,2.5,5.6,3.4,8.5L61.6,47.6z"></path>
	<path class="st1" d="M62.7,49.3c-1.8-3.2-3.9-6.1-6.3-8.7c-0.3-0.3-0.6-0.7-0.9-1c-0.3-0.3-0.6-0.6-0.9-1c-0.3-0.3-0.6-0.7-0.9-0.9
		l-1-0.9c-0.6-0.6-1.3-1.2-2-1.8c-0.7-0.6-1.4-1.1-2.1-1.6c-2.9-2.1-6-3.9-9.2-5.4c-3.3-1.5-6.7-2.7-10.2-3.7l0.1-0.4
		c3.6,0.5,7.2,1.4,10.7,2.8c3.4,1.4,6.7,3.1,9.8,5.3c0.7,0.6,1.5,1.1,2.2,1.7c0.7,0.6,1.5,1.2,2.1,1.8l1,1c0.3,0.3,0.6,0.7,1,1
		c0.3,0.3,0.6,0.7,0.9,1c0.3,0.4,0.6,0.7,0.9,1.1c2.3,2.9,4.2,6.2,5.3,9.7L62.7,49.3z"></path>
	<path class="st0" d="M61.7,47.6c-2.8-1.3-5.4-2.8-8.1-4.3c-2.6-1.6-5.2-3.2-7.7-4.9c-1.3-0.8-2.5-1.7-3.8-2.6
		c-1.3-0.9-2.5-1.7-3.7-2.6c-2.5-1.8-4.9-3.6-7.3-5.5l0.2-0.4c2.7,1.4,5.4,2.9,8,4.4c1.3,0.8,2.6,1.6,3.9,2.4
		c1.3,0.8,2.6,1.6,3.9,2.4c2.6,1.6,5.1,3.3,7.6,5.1c2.5,1.8,4.9,3.6,7.2,5.7L61.7,47.6z"></path>
	<path class="st2" d="M69,49.7c-2.8-1.3-5.4-2.8-8.1-4.3c-2.6-1.6-5.2-3.2-7.7-4.9c-1.3-0.8-2.5-1.7-3.8-2.6
		c-1.3-0.9-2.5-1.7-3.7-2.6c-2.5-1.8-4.9-3.6-7.3-5.5l0.2-0.4c2.7,1.4,5.4,2.9,8,4.4c1.3,0.8,2.6,1.6,3.9,2.4
		c1.3,0.8,2.6,1.6,3.9,2.4c2.6,1.6,5.1,3.3,7.6,5.1c2.5,1.8,4.9,3.6,7.2,5.7L69,49.7z"></path>
	<path class="st3" d="M64.2,50.5c-2.7-2.1-5.8-3.7-8.9-4.8L54,45.2c-0.2-0.1-0.4-0.1-0.6-0.2C53.2,45,53,44.9,52.8,45
		c-0.5,0-1,0.3-1.5,0.2c-0.2,0-0.4-0.1-0.6-0.2l-0.6-0.2c-0.8-0.3-1.5-0.7-2.3-0.9c-0.8-0.3-1.5-0.6-2.3-0.8
		c-0.8-0.3-1.6-0.6-2.4-0.8c-0.8-0.2-1.6-0.5-2.4-0.7c-0.8-0.2-1.6-0.4-2.4-0.6c-0.8-0.2-1.6-0.4-2.5-0.5c-3.3-0.6-6.7-1-10.1-1.1
		l0-0.4c3.4-0.7,6.9-1,10.4-1c0.9,0,1.8,0.1,2.6,0.1c0.9,0,1.8,0.1,2.6,0.2c0.9,0.1,1.7,0.3,2.6,0.4c0.9,0.1,1.7,0.3,2.6,0.5
		c0.9,0.2,1.7,0.4,2.6,0.7c0.9,0.2,1.7,0.5,2.5,0.8l0.6,0.2c0.2,0.1,0.4,0.1,0.6,0.3c0.4,0.3,0.6,0.9,0.9,1.3
		c0.2,0.2,0.3,0.3,0.5,0.4c0.2,0.1,0.4,0.2,0.6,0.4l1.1,0.7c2.9,1.9,5.6,4.1,8.3,6.2L64.2,50.5z"></path>
	<path class="st0" d="M61.8,47.7c-3.1,0-6.1-0.1-9.1-0.2c-1.5-0.1-3-0.2-4.5-0.3l-4.5-0.4c-3-0.3-6-0.6-9.1-0.9c-3-0.4-6-0.8-9-1.3
		l0-0.4c3,0,6.1,0.1,9.1,0.2c3,0.1,6.1,0.4,9.1,0.6l4.5,0.4c1.5,0.2,3,0.3,4.5,0.5c3,0.4,6,0.8,9,1.3L61.8,47.7z"></path>
	<path class="st0" d="M61.9,47.7c-2.9,1-5.9,1.8-8.8,2.5c-3,0.7-5.9,1.3-8.9,1.8c-3,0.5-6,1-9,1.3c-3,0.3-6.1,0.5-9.2,0.4l-0.1-0.4
		c2.9-1.1,5.8-1.9,8.8-2.6c3-0.7,5.9-1.2,8.9-1.7c3-0.5,6-0.9,9-1.2c3-0.3,6.1-0.5,9.2-0.5L61.9,47.7z"></path>
	<path class="st0" d="M61.9,47.7c-2.7,1.5-5.4,2.8-8.1,4.2c-2.7,1.3-5.5,2.6-8.3,3.8c-1.4,0.6-2.8,1.2-4.2,1.8
		c-1.4,0.6-2.8,1.2-4.2,1.7c-2.8,1.1-5.7,2.2-8.6,3.1l-0.2-0.4c2.7-1.5,5.4-2.9,8.1-4.2c1.4-0.7,2.8-1.3,4.1-1.9
		c1.4-0.6,2.8-1.2,4.2-1.8c2.8-1.2,5.6-2.4,8.4-3.5c2.8-1.1,5.7-2.2,8.6-3.1L61.9,47.7z"></path>
	<path class="st4" d="M69.4,49c-3.5,0.9-7,1.8-10.3,3c-3.3,1.2-6.6,2.7-9.6,4.4c-3.1,1.7-6,3.7-8.7,6c-2.7,2.3-5.2,4.8-7.6,7.5
		l-0.4-0.2c1.6-3.3,3.9-6.3,6.5-8.9c2.6-2.6,5.6-4.8,8.9-6.6c3.2-1.8,6.7-3.2,10.3-4.1c3.6-1,7.2-1.5,10.9-1.5L69.4,49z"></path>
	<path class="st5" d="M62,47.6c-1.6,2.6-3.3,5.1-5.1,7.6c-0.9,1.2-1.8,2.5-2.8,3.7c-0.9,1.2-1.9,2.4-2.9,3.6c-2,2.4-4,4.7-6.1,7.1
		c-2.1,2.3-4.2,4.6-6.5,6.8c-0.1-0.1-0.2-0.2-0.4-0.3c1.9-2.5,3.9-4.9,5.8-7.3c1.9-2.4,3.9-4.8,5.9-7.2c1-1.2,2-2.4,2.9-3.6
		c1-1.2,1.9-2.4,2.9-3.6c1.9-2.4,3.9-4.7,5.9-7C61.8,47.4,61.9,47.5,62,47.6"></path>
	<path class="st0" d="M64.9,39.4c-1.6,2.6-3.3,5.1-5.1,7.6c-0.9,1.2-1.8,2.5-2.8,3.7c-0.9,1.2-1.9,2.4-2.9,3.6c-2,2.4-4,4.7-6.1,7.1
		c-2.1,2.3-4.2,4.6-6.5,6.8c-0.1-0.1-0.2-0.2-0.4-0.3c1.9-2.5,3.9-4.9,5.8-7.3c1.9-2.4,3.9-4.8,5.8-7.2c1-1.2,2-2.4,2.9-3.6
		c1-1.2,1.9-2.4,2.9-3.6c1.9-2.4,3.9-4.7,5.9-7C64.7,39.2,64.8,39.3,64.9,39.4"></path>
	<path class="st0" d="M62,47.5c-0.9,2.9-1.9,5.8-3,8.6c-1.1,2.8-2.3,5.6-3.5,8.4c-0.6,1.4-1.2,2.8-1.9,4.1c-0.6,1.4-1.3,2.7-2,4.1
		c-1.4,2.7-2.8,5.4-4.3,8.1l-0.4-0.2c0.9-2.9,2-5.8,3.1-8.6c0.5-1.4,1.1-2.8,1.7-4.2c0.6-1.4,1.2-2.8,1.8-4.2
		c1.2-2.8,2.5-5.5,3.8-8.3c1.3-2.7,2.8-5.4,4.4-8L62,47.5z"></path>
	<path class="st0" d="M72.6,24.8c-0.9,2.9-1.9,5.8-3,8.6c-1.1,2.8-2.3,5.6-3.5,8.4c-0.6,1.4-1.2,2.8-1.9,4.1c-0.6,1.4-1.3,2.7-2,4.1
		c-1.4,2.7-2.8,5.4-4.3,8.1l-0.4-0.2c0.9-2.9,2-5.8,3.1-8.6c0.5-1.4,1.1-2.8,1.7-4.2c0.6-1.4,1.2-2.8,1.8-4.2
		c1.2-2.8,2.5-5.5,3.8-8.3c1.3-2.7,2.8-5.4,4.4-8L72.6,24.8z"></path>
	<path class="st6" d="M62.6,46c0.2,1.6,0.2,3.1,0.2,4.6c0,1.5-0.2,3-0.3,4.6c-0.2,1.5-0.4,3-0.7,4.5c-0.3,1.5-0.6,3-0.9,4.5
		c-0.6,3-1.4,6-2.3,8.9c-0.9,3-1.9,5.9-3.1,8.8c-0.2,0-0.4-0.1-0.6-0.1c0.3-3,0.8-6.1,1.3-9.1c0.5-3,1-6,1.6-9
		c0.3-1.5,0.6-3,0.8-4.5c0.3-1.5,0.6-3,0.9-4.5c0.3-1.5,0.7-3,1.1-4.4c0.4-1.5,0.9-2.9,1.5-4.4C62.3,45.9,62.5,45.9,62.6,46"></path>
	<path class="st1" d="M62,47.4c0.5,1.5,0.8,3,1.1,4.5c0.3,1.5,0.5,3,0.7,4.5c0.2,1.5,0.3,3,0.4,4.5c0.1,1.5,0.2,3,0.3,4.5
		c0.2,3,0.3,6.1,0.4,9.1c0.1,3,0.1,6.1,0,9.1l-0.4,0c-0.6-3-1-6-1.4-9c-0.4-3-0.8-6-1.1-9.1c-0.2-1.5-0.3-3-0.4-4.5
		c-0.1-1.5-0.3-3-0.3-4.5c-0.1-1.5-0.1-3,0-4.6c0.1-1.5,0.2-3.1,0.4-4.6L62,47.4z"></path>
	<path class="st0" d="M62,47.4c1.2,2.8,2.3,5.6,3.4,8.5c1,2.9,2,5.8,3.1,8.6c0.5,1.4,1,2.9,1.6,4.3c0.5,1.4,1,2.9,1.6,4.3
		c1.1,2.9,2.1,5.8,3.1,8.7c-0.2,0-0.3,0.1-0.5,0.2c-1.5-2.8-2.8-5.6-4-8.4c-0.6-1.4-1.2-2.8-1.8-4.3c-0.6-1.4-1.1-2.9-1.7-4.3
		c-1.1-2.9-2.1-5.8-3-8.7c-0.9-2.9-1.7-5.9-2.2-8.9C61.8,47.5,61.9,47.4,62,47.4"></path>
	<path class="st7" d="M62,47.4c0.7,0.5,1.3,1,1.8,1.6c0.6,0.5,1.1,1.1,1.7,1.7c1.1,1.1,2.1,2.3,3,3.5c1.9,2.4,3.5,5,5.2,7.6
		c1.7,2.6,3.3,5.2,4.8,7.9c1.5,2.7,3,5.4,4.3,8.3c-0.1,0.1-0.3,0.2-0.4,0.2c-2.5-2.1-4.7-4.4-6.8-6.7c-2.1-2.4-4-4.8-5.8-7.3
		c-1.8-2.5-3.5-5-5-7.8c-0.7-1.4-1.3-2.8-1.9-4.2c-0.3-0.7-0.5-1.5-0.7-2.2c-0.2-0.8-0.4-1.5-0.5-2.3C61.8,47.5,61.9,47.4,62,47.4"></path>
	<path class="st0" d="M53.5,48.7c0.9,0,1.8,0.1,2.8,0.2c0.9,0.1,1.8,0.3,2.7,0.4c0.9,0.1,1.8,0.4,2.7,0.6c0.4,0.1,0.9,0.2,1.3,0.4
		l1.3,0.4c3.5,1.2,6.9,2.8,10,4.9c3.1,2.1,6,4.5,8.4,7.3c2.4,2.8,4.5,5.9,5.9,9.3l-0.4,0.2c-2-3-4.3-5.8-6.9-8.2
		c-2.6-2.5-5.4-4.7-8.4-6.5c-3-1.9-6.2-3.5-9.5-4.8l-1.2-0.5c-0.4-0.2-0.8-0.3-1.3-0.5c-0.8-0.3-1.7-0.7-2.5-0.9
		c-0.9-0.3-1.7-0.6-2.6-0.9c-0.9-0.3-1.7-0.5-2.6-0.8L53.5,48.7z"></path>
	<path class="st8" d="M61.9,47.3c1.4,0.5,2.8,1.1,4.2,1.7c1.4,0.6,2.8,1.2,4.1,1.9c2.7,1.3,5.4,2.8,8.1,4.2c2.7,1.5,5.3,3,7.9,4.6
		c2.6,1.6,5.2,3.2,7.6,5l-0.2,0.4c-2.8-1.1-5.6-2.4-8.3-3.7c-2.7-1.3-5.4-2.7-8.1-4.2c-2.7-1.4-5.3-2.9-7.9-4.5
		c-1.3-0.8-2.6-1.6-3.8-2.5c-1.3-0.9-2.5-1.7-3.7-2.6L61.9,47.3z"></path>
	<path class="st0" d="M57.2,46.1c1.5-0.1,3.1-0.1,4.6-0.1c1.5,0,3,0,4.6,0.1c3,0.1,6.1,0.3,9.1,0.6c3,0.3,6,0.6,9.1,1.1
		c3,0.4,6,0.9,9,1.5l0,0.4c-3.1,0.1-6.1,0.1-9.1-0.1c-3-0.1-6.1-0.3-9.1-0.6c-3-0.2-6-0.6-9.1-1c-1.5-0.2-3-0.4-4.5-0.7
		c-1.5-0.3-3-0.5-4.5-0.9L57.2,46.1z"></path>
	<path class="st0" d="M61.9,47.3c3,0.6,5.9,1.3,8.9,2.1c3,0.7,5.9,1.5,8.9,2.3c3,0.8,5.9,1.5,8.9,2.3c3,0.8,5.9,1.6,8.9,2.5
		c0,0.1-0.1,0.3-0.1,0.4c-3.1-0.5-6.1-1.1-9.1-1.7c-3-0.6-6-1.3-9-2.1c-3-0.7-5.9-1.6-8.8-2.4c-2.9-0.9-5.8-1.8-8.7-2.9
		C61.8,47.5,61.8,47.4,61.9,47.3"></path>
	<path class="st0" d="M61.7,47.3c2.9-1.2,5.9-2.1,9-2.7c3.1-0.6,6.2-0.9,9.4-0.8l2.4,0.1l2.3,0.2l2.3,0.3l2.3,0.4
		c3.1,0.6,6.1,1.5,9,2.7l-0.1,0.4c-3-0.9-6-1.7-9-2.1l-2.3-0.3l-2.3-0.2L82.3,45L80,45c-3.1,0-6.1,0.2-9.2,0.7c-3,0.5-6,1.1-9,2
		L61.7,47.3z"></path>
	<path class="st9" d="M61.8,47.3c2.9-1,5.8-1.8,8.7-2.6c1.5-0.4,2.9-0.8,4.4-1.2c1.5-0.4,2.9-0.8,4.4-1.1c2.9-0.8,5.9-1.4,8.9-2.1
		c3-0.6,6-1.2,9-1.7l0.1,0.4c-2.9,1-5.8,1.9-8.7,2.7c-2.9,0.8-5.9,1.6-8.8,2.3c-1.5,0.4-3,0.7-4.4,1c-1.5,0.3-3,0.7-4.4,1
		c-3,0.6-5.9,1.2-9,1.7L61.8,47.3z"></path>
	<path class="st0" d="M60.3,49.2c2.4-2,4.9-3.6,7.5-5.2c2.6-1.6,5.3-3,8-4.4c2.7-1.4,5.4-2.7,8.2-4c2.8-1.3,5.6-2.5,8.4-3.5l0.2,0.4
		c-2.5,1.8-5.1,3.4-7.6,5c-2.6,1.6-5.2,3.1-7.9,4.6c-2.7,1.5-5.3,2.9-8.1,4.2c-2.8,1.3-5.6,2.5-8.5,3.3L60.3,49.2z"></path>
	<path class="st0" d="M53.2,49.2c2.4-2,4.9-3.6,7.5-5.2c2.6-1.6,5.3-3,8-4.4c2.7-1.4,5.4-2.7,8.2-4c2.8-1.3,5.6-2.5,8.4-3.5l0.2,0.4
		c-2.5,1.8-5.1,3.4-7.6,5c-2.6,1.6-5.2,3.1-7.9,4.6c-2.7,1.5-5.3,2.9-8.1,4.2c-2.8,1.3-5.6,2.5-8.5,3.3L53.2,49.2z"></path>
	<path class="st10" d="M60.2,48.7c1.4-3.4,3.5-6.5,6-9.3c2.5-2.7,5.4-5.1,8.6-7.1c0.8-0.5,1.6-1,2.4-1.4c0.8-0.5,1.6-0.8,2.5-1.2
		c0.4-0.2,0.8-0.4,1.3-0.6c0.4-0.2,0.9-0.3,1.3-0.5l1.3-0.5l1.3-0.4c3.5-1.1,7.1-1.9,10.8-2.1l0.1,0.4c-3.5,0.9-7,1.9-10.3,3.3
		l-1.2,0.5L83,30.3c-0.4,0.2-0.8,0.4-1.2,0.6c-0.4,0.2-0.8,0.4-1.2,0.6c-0.8,0.4-1.6,0.8-2.3,1.3c-0.8,0.5-1.5,0.9-2.3,1.4
		c-3,1.9-5.8,4.1-8.3,6.6c-2.6,2.5-4.9,5.2-7,8.1L60.2,48.7z"></path>
	<path class="st0" d="M61.7,47.3c1.4-2.7,2.9-5.4,4.5-8c1.6-2.6,3.2-5.1,5-7.6l1.3-1.9l1.3-1.9c0.9-1.3,1.7-2.5,2.6-3.7
		c1.8-2.5,3.6-4.9,5.5-7.3l0.4,0.2c-1.4,2.7-3,5.3-4.6,7.9c-0.8,1.3-1.6,2.6-2.4,3.9L74,30.9l-1.2,1.9c-1.6,2.6-3.3,5.1-5.1,7.5
		c-1.8,2.5-3.6,4.9-5.6,7.2L61.7,47.3z"></path>
	<path class="st11" d="M61.6,47.4c-0.1-1.6,0.2-3.2,0.5-4.7c0.3-1.5,0.8-2.9,1.3-4.4c1-2.9,2.1-5.7,3.1-8.5c1.1-2.8,2.2-5.7,3.4-8.5
		c1.2-2.8,2.4-5.6,3.8-8.3l0.4,0.1c-0.7,3-1.4,5.9-2.3,8.9c-0.8,2.9-1.7,5.8-2.6,8.7c-0.9,2.9-1.9,5.8-2.9,8.6
		c-0.5,1.4-1,2.9-1.7,4.2c-0.7,1.4-1.5,2.7-2.5,3.9L61.6,47.4z"></path>
	<path class="st0" d="M69.4,47.4c0,4.1-3.3,7.4-7.4,7.4c-4.1,0-7.4-3.3-7.4-7.4c0-4.1,3.3-7.4,7.4-7.4C66.1,40,69.4,43.3,69.4,47.4"></path>
</g><path class="st12" d="M83,49.3c0,0,2.1,3.4,2.1,3.5c0,0.1,0.3,1.9,0,2.4c-0.3,0.5-1.7,1.3-2,1.3c-0.3,0.1,0.4,1-1.7,0.1
	c-2.1-0.9-2.3-0.5-3.1-2.1c-0.8-1.6,0.2-3,0-3.5s0.2-1.4,0.1-2.1c-0.1-0.7-0.4-1.2,0.3-1.4s1.1,0.4,2,0.8C81.6,48.7,83,49.3,83,49.3
	z"></path><path class="st13" d="M79.3,48.9c0,0-1.8-1.2-2.5,0c-0.7,1.2-0.8,2.7-0.8,3.3s-0.9,0.5,0,2s0.3,2.2,1.5,2.3c1.2,0.2,1.2,0.2,1.2,0.2
	s1.8-0.5,1.9-0.5c0.1,0,1.3-0.5,1.1-1.4s0-2.1,0-2.1s0.6,0.3,0-1.3S79.3,48.9,79.3,48.9z"></path><path class="st13" d="M73.7,47.8c0,0-0.3,2.9-0.9,3.5c-0.6,0.6-2,0.9-2.5,0.5c-0.5-0.4-1.8-2.2-1.8-2.2v-2.2l1.2-0.9
	c0,0,0.3,0.2,0.8,0.3S73.7,47.8,73.7,47.8z"></path><path class="st12" d="M69.5,52.9c0,0,1.5-2.7,1.5-3.6c0-0.9-2.1-0.4-3.5-0.4s-2.2,0-2.5-0.1s-1.1-0.8-1.2,0c-0.2,0.8-0.4,1.9,0,2.5
	c0.4,0.6,1.2,2.6,1.4,2.7c0.2,0.1,1.2,0.2,1.5,0.5c0.3,0.2,1.1,0.3,1.1,0.3L69.5,52.9z"></path><path class="st14" d="M68.5,52.5c0.3-0.9-0.3-1.9-1.1-1.9c-0.8,0-1.4-0.8-1.6,0s-0.3,1.8,0,2.1c0.3,0.3-0.2,0.1,0.3,0.3
	C66.6,53.3,68.5,52.5,68.5,52.5z"></path><path class="st13" d="M58.6,52.8c0,0,2,3.8,2.3,4.1c0.3,0.3,0.8,1.2,1.6,1c0.9-0.2,1.5-1.3,1.5-1.6s1.4-3.7,1.4-4.2
	s-0.9-1.3-1.4-1.7c-0.5-0.5-1.2-1.4-2.1-1c-0.9,0.4-1,0.5-1.3,1c-0.3,0.4-0.4,0.6-0.9,1C59.4,51.8,58.6,52.8,58.6,52.8z"></path><path class="st14" d="M59.9,53.3c0.2,0.4,0.6,1.9,0.8,1.9c0.2,0.1,1,0.8,1,0.8s0.7-0.1,1.1-0.8s0.7-0.8,0.9-1.2
	c0.2-0.4,0.2-0.4,0.4-1.1c0.3-0.6,0.5-1-0.2-1.6c-0.8-0.6-1.2-1.2-1.8-0.9c-0.6,0.4-0.7,0.8-1.2,1.2C60.4,52,59.9,53.3,59.9,53.3z"></path><path class="st13" d="M75.2,56c0,0,0.9,4.1,1.1,4.8c0.2,0.7,1.4,2,0.9,2.6c-0.5,0.5-1.2,1.1-2.7,0.7c-1.6-0.4-2.8-0.6-4.1-1
	c-1.2-0.4-2.4-0.5-2.3-1.5c0.1-0.9,0-2.3,0.4-2.8c0.4-0.5,1.5-2.5,1.8-2.5s0.4-0.2,0.7-0.3S75.2,56,75.2,56z"></path><path class="st12" d="M66.5,57.9c0,0-0.3,2,0,2.6c0.3,0.6,1.6,1.1,1.6,1.1l2.8-1.9c1.5-0.3,2.2-0.2,2.5-0.6c0.2-0.5,0.1-0.6,0.3-1.2
	c0.2-0.6,0.2-1.4,0.5-1.6s1-1,1-1s0.8-1,0-1.7c-0.8-0.6-0.2-0.9-1.8-0.8s-2.7,1.5-2.9,2.1c-0.2,0.5-0.2,0.4-1.3,1.4
	C68.1,57.2,66.5,57.9,66.5,57.9z"></path><path class="st15" d="M77.4,58.8c0,0,1.5,3.5,1.9,3.7s3.4,0.3,3.7,0s1.3-0.8,1.4-1.2s-0.2-3.8-0.4-4.4c-0.2-0.6-0.5-2.9-1.9-2.9
	c-1.4,0.1-3.4,0.2-3.7,0.8c-0.2,0.6-0.8,0.8-1.1,1.4S77.4,58.8,77.4,58.8z"></path><path class="st14" d="M75,58.3c0,0,2.2,1.2,2.4,0.5c0.1-0.8,0.6-1.9,0.6-1.9s-0.1-1.6-0.6-2.4c-0.5-0.8-2.2-1-2.2-1
	s-1.9,0.6-1.5,1.7c0.5,1,0.5,0.9,0.9,1.7S75,58.3,75,58.3z"></path><path class="st14" d="M80.8,56.3l1.8,2c0,0,0.5,1.7,0,1.8s-0.2-0.6-0.5,0c-0.3,0.6,0.6,1.2-0.3,1.5c-0.9,0.2-1.4,1.3-2.1,0
	s-1-2-1.1-2.3c-0.1-0.3,0.6-0.4,0-1.4c-0.6-1-0.6-1-0.6-1h1.7L80.8,56.3z"></path><path class="st14" d="M72.8,61.3c-0.2,0.4,1.7,1.4,1.7,1.4s1.3,0.2,1.3,0c0-0.2,0.1-0.8-0.3-1.4c-0.3-0.5-0.7-2.2-0.7-2.2
	s-1.3-0.9-1.4,0.1C73.3,60.1,72.8,61.3,72.8,61.3z"></path><path class="st16" d="M75.4,49.3c0,0,0.2-1.4,0.6-1.4s1.1,0.4,0.9,1.4s-0.6,2.8-1.2,3.2c-0.5,0.4-0.8,0.8-1.1,0.7
	c-0.3-0.1-0.2,0.7-0.3-0.1S75.4,49.3,75.4,49.3z"></path><path class="st17" d="M74.8,47.1c0,0-1.6-0.4-1.9,0s-0.5,1.7-0.5,2.1s-0.3,2.8,0,3.3c0.3,0.5,0.4,0.8,1.1,0.7s1.1-2.1,1.2-2.5
	c0.2-0.4,0-2.8,0-2.8V47.1z"></path><path class="st18" d="M78.1,50.1c0.3,0.2,0.9,0.7,0.5,1.7c-0.3,1-1,1.2-1.7,1.5c-0.7,0.3-0.9,0.6-1.6,0.3c-0.7-0.3-0.7-0.3-0.7-0.3
	s0.6-1.5,1-2C76,50.8,76.9,49.3,78.1,50.1z"></path><path class="st16" d="M75.6,55.7c0,0,2.9-0.9,2.1-1.7c-0.8-0.8,0-1.5-1-1.5s-2.3-0.7-2.4,0c0,0.7,0.6,0.6,0,0.7s-1.1,0.4-0.7,0.8
	S75.6,55.7,75.6,55.7z"></path><path class="st19" d="M74.8,50.7c0,0-2.7-1.1-3.1-0.9s-0.9,0.6-0.9,1.9s0.2,1.8,0.6,1.8s1.4,0,1.4,0l1.4-0.3c0,0-0.1,0,0-0.7
	C74.5,51.9,74.8,50.7,74.8,50.7z"></path><path class="st20" d="M74.8,50.7l0.8,0.5l0.1,1.3c0,0-1.6-0.7-1.4,0l-0.7-0.3L74.8,50.7z"></path><path class="st17" d="M67,56.8c0,0-1.5-3.5-0.8-3.9c0.7-0.4,2.1-0.8,2.3-0.9c0.2-0.1,1.2,0.2,1.3,0.6c0.1,0.4,0.8,1.2,0,1.7
	c-0.8,0.6-1.6,0.5-1.7,1C68,55.9,67,56.8,67,56.8z"></path><path class="st16" d="M68.2,57.7c0,0,2.6,0.2,3.1-0.9s0.3-2.9,0.3-2.9s-0.1-0.4-1.3-0.3c-1.1,0.1-2.1-0.3-2.1,0.7s0.5,0.3,0,1
	c-0.5,0.7-1.1,1.5-1.1,1.5L68.2,57.7z"></path><path class="st18" d="M67,59.1c0,0,1.4,1.5,2.3,0.9c0.8-0.5,1.3-0.5,1.6-1.9c0.3-1.4,0-1.2-0.6-1.4s-3.2,0-3.2,0
	C66.9,57.4,67,59.1,67,59.1z"></path><path class="st17" d="M67,56.8c0,0-2.5-0.4-2.9-0.1c-0.4,0.3-0.3,1.2,0,1.8s-0.1,1,0.7,1c0.8,0,2.2-0.3,2.2-0.3l0-0.7L67,56.8z"></path><path class="st18" d="M64.2,54.3c0.3-0.1,1-0.6,1.8-0.3c0.8,0.3,1-0.1,1,1.3c0,1.5,0,1.5,0,1.5s-0.8,1.2-1.9,0.9
	c-1.2-0.3-1.5-0.4-1.6-0.6S63.5,54.6,64.2,54.3z"></path><path class="st20" d="M66.7,54.6c0.3,0,1.6,0.8,1.3,1.1c-0.2,0.3-0.5,1.1-0.3,1s0.5,0.1,0.3,0.6c-0.2,0.6,0.7,0.3-0.2,0.6
	c-0.9,0.3-1.7,1.2-1.9,0.3s0.5-1.1,0.3-1.2s0-0.2-0.3-0.5c-0.3-0.3,0-0.6,0-0.6L66.7,54.6z"></path><path class="st12" d="M44.8,56.4c0,0-1.9,3.1-1.9,3.2c0,0.1-0.3,1.8,0,2.2c0.3,0.5,1.6,1.1,1.8,1.2c0.2,0.1-0.4,0.9,1.6,0.1
	c2-0.8,2.1-0.4,2.9-1.9c0.7-1.5-0.2-2.8,0-3.2c0.2-0.4-0.2-1.3-0.1-1.9c0.1-0.6,0.4-1.1-0.3-1.3c-0.7-0.2-1,0.4-1.9,0.8
	C46,55.9,44.8,56.4,44.8,56.4z"></path><path class="st13" d="M48.1,56c0,0,1.7-1.1,2.3,0c0.7,1.1,0.7,2.5,0.7,3.1c0,0.6,0.8,0.4,0,1.8c-0.8,1.4-0.3,2-1.4,2.1
	c-1.1,0.2-1.1,0.2-1.1,0.2s-1.7-0.5-1.7-0.4c-0.1,0-1.2-0.4-1-1.3c0.1-0.9,0-1.9,0-1.9s-0.5,0.3,0-1.2S48.1,56,48.1,56z"></path><path class="st13" d="M53.3,55c0,0,0.3,2.6,0.9,3.2c0.6,0.6,1.9,0.9,2.3,0.5s1.6-2,1.6-2v-2l-1.1-0.8c0,0-0.3,0.2-0.7,0.3
	C55.8,54.3,53.3,55,53.3,55z"></path><path class="st12" d="M57.1,59.7c0,0-1.4-2.5-1.4-3.3c0-0.8,2-0.3,3.2-0.4c1.2-0.1,2,0,2.3-0.1s1-0.7,1.1,0c0.1,0.7,0.4,1.7,0,2.3
	c-0.4,0.6-1.1,2.4-1.3,2.5s-1.1,0.2-1.4,0.4c-0.3,0.2-1,0.3-1,0.3L57.1,59.7z"></path><path class="st14" d="M58.1,59.3c-0.3-0.8,0.2-1.7,1-1.7s1.3-0.7,1.5,0c0.2,0.7,0.3,1.7,0,2c-0.3,0.3,0.2,0.1-0.3,0.3
	C59.8,60.1,58.1,59.3,58.1,59.3z"></path><path class="st13" d="M67.1,59.6c0,0-1.9,3.5-2.1,3.8c-0.3,0.3-0.7,1.1-1.5,0.9c-0.8-0.2-1.4-1.2-1.4-1.5c0-0.3-1.3-3.4-1.3-3.9
	c0-0.5,0.8-1.2,1.2-1.6c0.4-0.4,1.1-1.3,1.9-0.9c0.8,0.4,0.9,0.5,1.2,0.9s0.4,0.5,0.8,1C66.4,58.6,67.1,59.6,67.1,59.6z"></path><path class="st14" d="M65.9,60c-0.1,0.3-0.6,1.7-0.7,1.8c-0.1,0.1-0.9,0.7-0.9,0.7s-0.6-0.1-1-0.7c-0.4-0.6-0.6-0.7-0.8-1.1
	c-0.2-0.3-0.2-0.4-0.4-1c-0.3-0.6-0.5-0.9,0.2-1.5c0.7-0.6,1.1-1.1,1.6-0.8c0.5,0.3,0.7,0.7,1.1,1.1C65.4,58.9,65.9,60,65.9,60z"></path><path class="st13" d="M51.8,62.5c0,0-0.8,3.8-1,4.4c-0.2,0.6-1.3,1.9-0.9,2.4s1.1,1,2.5,0.6c1.4-0.4,2.6-0.6,3.7-0.9
	c1.1-0.4,2.2-0.5,2.1-1.4c-0.1-0.9,0-2.1-0.4-2.6c-0.3-0.4-1.4-2.3-1.6-2.3c-0.3,0-0.4-0.2-0.7-0.2C55.3,62.4,51.8,62.5,51.8,62.5z"></path><path class="st12" d="M59.9,64.3c0,0,0.3,1.8,0,2.4c-0.3,0.6-1.5,1-1.5,1L55.8,66c-1.4-0.3-2-0.2-2.3-0.6c-0.2-0.4-0.1-0.6-0.3-1.1
	c-0.2-0.5-0.2-1.3-0.4-1.5c-0.2-0.3-0.9-1-0.9-1s-0.7-1,0-1.5c0.7-0.6,0.2-0.8,1.6-0.7c1.4,0.1,2.4,1.4,2.6,1.9
	c0.2,0.5,0.2,0.4,1.2,1.3C58.4,63.7,59.9,64.3,59.9,64.3z"></path><path class="st15" d="M49.9,65.1c0,0-1.4,3.2-1.8,3.4c-0.4,0.1-3.1,0.3-3.4,0c-0.3-0.3-1.2-0.8-1.3-1.1c-0.1-0.3,0.1-3.5,0.4-4
	c0.2-0.5,0.4-2.7,1.7-2.6s3.1,0.2,3.4,0.7c0.2,0.6,0.7,0.8,1,1.3C50.1,63.3,49.9,65.1,49.9,65.1z"></path><path class="st14" d="M52.1,64.7c0,0-2.1,1.1-2.2,0.4c-0.1-0.7-0.5-1.8-0.5-1.8s0.1-1.5,0.5-2.2c0.5-0.7,2-0.9,2-0.9
	s1.8,0.6,1.4,1.5c-0.4,1-0.4,0.9-0.8,1.5S52.1,64.7,52.1,64.7z"></path><path class="st14" d="M46.7,62.8l-1.6,1.9c0,0-0.4,1.6,0,1.6s0.1-0.5,0.4,0s-0.5,1.1,0.3,1.4c0.8,0.2,1.3,1.2,1.9,0
	c0.6-1.2,0.9-1.8,1-2.1c0.1-0.3-0.6-0.3,0-1.3c0.6-0.9,0.6-0.9,0.6-0.9h-1.6L46.7,62.8z"></path><path class="st14" d="M54.1,67.4c0.2,0.4-1.6,1.3-1.6,1.3s-1.2,0.2-1.2,0c0-0.2-0.1-0.8,0.3-1.3c0.3-0.5,0.7-2,0.7-2
	s1.2-0.8,1.3,0.1C53.6,66.2,54.1,67.4,54.1,67.4z"></path><path class="st16" d="M51.7,56.4c0,0-0.2-1.3-0.6-1.3c-0.4,0-1,0.4-0.8,1.3c0.2,0.9,0.6,2.6,1.1,3s0.7,0.7,1,0.7
	c0.3,0,0.1,0.7,0.3,0C52.9,59.2,51.7,56.4,51.7,56.4z"></path><path class="st17" d="M52.2,54.4c0,0,1.5-0.4,1.7,0c0.2,0.4,0.5,1.6,0.4,1.9c-0.1,0.4,0.3,2.6,0,3c-0.3,0.5-0.4,0.7-1,0.7
	c-0.6,0-1-1.9-1.1-2.3c-0.2-0.4,0-2.6,0-2.6V54.4z"></path><path class="st18" d="M49.2,57.1c-0.3,0.2-0.8,0.6-0.5,1.6c0.3,0.9,0.9,1.1,1.6,1.3s0.8,0.5,1.5,0.3c0.6-0.3,0.6-0.3,0.6-0.3
	s-0.5-1.4-0.9-1.8C51.1,57.7,50.3,56.3,49.2,57.1z"></path><path class="st16" d="M51.5,62.3c0,0-2.7-0.8-2-1.5s0-1.4,0.9-1.4s2.1-0.6,2.2,0c0,0.6-0.6,0.6,0,0.6c0.6,0,1,0.4,0.6,0.7
	S51.5,62.3,51.5,62.3z"></path><path class="st19" d="M52.2,57.7c0,0,2.5-1,2.9-0.8c0.4,0.2,0.9,0.6,0.8,1.8c-0.1,1.2-0.1,1.6-0.6,1.6c-0.4,0-1.2,0-1.2,0L52.7,60
	c0,0,0.1,0,0-0.6C52.5,58.8,52.2,57.7,52.2,57.7z"></path><path class="st20" d="M52.2,57.7l-0.7,0.5l-0.1,1.2c0,0,1.5-0.7,1.2,0l0.6-0.3L52.2,57.7z"></path><path class="st17" d="M59.4,63.2c0,0,1.4-3.2,0.7-3.6s-1.9-0.7-2.1-0.8c-0.2-0.1-1.1,0.2-1.2,0.6s-0.7,1.1,0,1.6
	c0.7,0.5,1.5,0.4,1.6,0.9C58.5,62.4,59.4,63.2,59.4,63.2z"></path><path class="st16" d="M58.3,64.1c0,0-2.4,0.2-2.8-0.8c-0.4-1.1-0.3-2.7-0.3-2.7s0.1-0.4,1.2-0.3c1,0.1,1.9-0.3,1.9,0.7
	c0,0.9-0.4,0.3,0,0.9c0.4,0.7,1,1.3,1,1.3L58.3,64.1z"></path><path class="st18" d="M59.4,65.4c0,0-1.3,1.4-2.1,0.9c-0.8-0.5-1.2-0.4-1.5-1.7c-0.3-1.3,0-1.1,0.6-1.3c0.6-0.2,3,0,3,0
	C59.5,63.8,59.4,65.4,59.4,65.4z"></path><path class="st17" d="M59.4,63.2c0,0,2.3-0.3,2.6-0.1c0.4,0.2,0.3,1.1,0,1.6c-0.3,0.5,0.1,0.9-0.6,0.9c-0.7,0-2-0.3-2-0.3l0-0.6
	L59.4,63.2z"></path><path class="st18" d="M62,60.9c-0.3-0.1-0.9-0.6-1.7-0.3c-0.7,0.3-0.9-0.1-0.9,1.2c0,1.3,0,1.3,0,1.3s0.7,1.1,1.8,0.8
	c1.1-0.3,1.4-0.3,1.5-0.6C62.8,63.2,62.6,61.2,62,60.9z"></path><path class="st20" d="M59.7,61.2c-0.3,0-1.4,0.8-1.2,1c0.2,0.3,0.5,1,0.3,1c-0.2,0-0.5,0-0.3,0.6s-0.6,0.3,0.2,0.5
	c0.8,0.3,1.6,1.1,1.7,0.3c0.1-0.8-0.5-1-0.3-1.1c0.2-0.1,0-0.2,0.3-0.5c0.3-0.3,0-0.6,0-0.6L59.7,61.2z"></path><path class="st12" d="M85.4,24c0,0,3.4,5.4,3.4,5.6s0.5,3.1,0,4s-2.7,2-3.2,2.2c-0.4,0.1,0.7,1.6-2.7,0.1s-3.8-0.8-5.1-3.4
	c-1.3-2.6,0.3-4.9,0-5.6c-0.3-0.8,0.3-2.3,0.2-3.4c-0.2-1.1-0.7-1.9,0.5-2.3c1.1-0.3,1.8,0.7,3.3,1.3C83.3,23.1,85.4,24,85.4,24z"></path><path class="st13" d="M79.5,23.4c0,0-2.9-2-4.1,0c-1.1,2-1.3,4.4-1.3,5.4s-1.5,0.7,0,3.2c1.5,2.4,0.5,3.5,2.4,3.8s1.9,0.3,1.9,0.3
	s2.9-0.8,3-0.8c0.1,0,2.1-0.7,1.8-2.3c-0.3-1.5,0-3.4,0-3.4s0.9,0.5,0-2.1S79.5,23.4,79.5,23.4z"></path><path class="st13" d="M70.4,21.6c0,0-0.5,4.6-1.5,5.6c-1,1-3.3,1.5-4,0.9S62,24.6,62,24.6v-3.5l2-1.5c0,0,0.5,0.3,1.3,0.5
	C66,20.3,70.4,21.6,70.4,21.6z"></path><path class="st12" d="M63.8,29.8c0,0,2.5-4.3,2.5-5.8s-3.5-0.6-5.6-0.7c-2.1-0.1-3.5,0.1-4-0.1c-0.5-0.2-1.8-1.3-2,0
	c-0.3,1.3-0.6,3.1,0,4.1c0.6,1,2,4.2,2.3,4.4s1.9,0.4,2.4,0.8c0.5,0.4,1.8,0.5,1.8,0.5L63.8,29.8z"></path><path class="st14" d="M62,29.1c0.5-1.4-0.4-3-1.8-3s-2.3-1.2-2.6,0s-0.5,2.9,0,3.5c0.5,0.5-0.4,0.2,0.5,0.5C59,30.5,62,29.1,62,29.1
	z"></path><path class="st13" d="M46.1,29.6c0,0,3.3,6.2,3.8,6.7c0.5,0.4,1.3,1.9,2.6,1.6s2.4-2.1,2.4-2.6c0-0.5,2.3-6,2.3-6.8
	s-1.4-2.1-2.2-2.8c-0.8-0.7-2-2.2-3.4-1.5c-1.4,0.7-1.7,0.9-2.2,1.5c-0.5,0.7-0.6,0.9-1.4,1.7C47.4,28,46.1,29.6,46.1,29.6z"></path><path class="st14" d="M48.2,30.4c0.3,0.6,1,3,1.3,3.1c0.3,0.1,1.6,1.2,1.6,1.2s1.1-0.1,1.8-1.2c0.6-1.1,1.1-1.3,1.4-1.9
	c0.3-0.6,0.3-0.7,0.7-1.7c0.5-1,0.9-1.6-0.4-2.6c-1.3-1-2-2-2.9-1.4c-0.9,0.6-1.2,1.2-1.9,1.9C49,28.4,48.2,30.4,48.2,30.4z"></path><path class="st13" d="M73,34.8c0,0,1.4,6.7,1.8,7.8c0.4,1.1,2.3,3.3,1.5,4.2c-0.8,0.9-1.9,1.8-4.4,1.1c-2.5-0.6-4.5-1-6.5-1.6
	c-2-0.6-3.9-0.9-3.8-2.4s0-3.8,0.6-4.5s2.4-4.1,2.9-4.1s0.6-0.3,1.2-0.4C66.8,34.6,73,34.8,73,34.8z"></path><path class="st12" d="M58.9,37.9c0,0-0.5,3.2,0,4.2c0.5,1,2.6,1.8,2.6,1.8l4.5-3c2.5-0.5,3.6-0.3,4-1c0.4-0.8,0.1-1,0.5-2
	s0.4-2.2,0.8-2.7c0.4-0.5,1.6-1.7,1.6-1.7s1.3-1.7,0-2.7s-0.4-1.4-2.9-1.3c-2.5,0.2-4.3,2.4-4.7,3.3c-0.4,0.9-0.4,0.7-2.1,2.3
	C61.4,36.8,58.9,37.9,58.9,37.9z"></path><path class="st15" d="M76.4,39.3c0,0,2.5,5.7,3.1,5.9c0.6,0.3,5.4,0.5,5.9,0c0.5-0.5,2.1-1.3,2.3-1.9c0.1-0.6-0.3-6.1-0.6-7.1
	s-0.8-4.7-3-4.6c-2.3,0.1-5.5,0.3-5.9,1.3s-1.3,1.3-1.7,2.3C76,36.2,76.4,39.3,76.4,39.3z"></path><path class="st14" d="M72.6,38.6c0,0,3.6,2,3.8,0.7s1-3.1,1-3.1s-0.2-2.6-1-3.8c-0.8-1.3-3.6-1.5-3.6-1.5s-3.1,1-2.4,2.7
	c0.8,1.7,0.8,1.5,1.4,2.7C72.4,37.4,72.6,38.6,72.6,38.6z"></path><path class="st14" d="M82,35.3l2.8,3.3c0,0,0.8,2.8,0,2.8c-0.8,0.1-0.3-1-0.8,0.1c-0.5,1,0.9,2-0.5,2.4c-1.4,0.4-2.3,2.1-3.4,0
	c-1.1-2.1-1.6-3.2-1.8-3.8c-0.1-0.5,1-0.6,0-2.2s-1-1.6-1-1.6h2.8L82,35.3z"></path><path class="st14" d="M68.9,43.3c-0.3,0.7,2.7,2.2,2.7,2.2s2.1,0.3,2.1,0c0-0.3,0.1-1.4-0.5-2.2s-1.2-3.6-1.2-3.6s-2.1-1.4-2.3,0.1
	C69.8,41.3,68.9,43.3,68.9,43.3z"></path><path class="st16" d="M73.2,24c0,0,0.4-2.3,1-2.3c0.6,0,1.8,0.6,1.4,2.3c-0.4,1.6-1,4.5-1.9,5.2c-0.9,0.7-1.3,1.3-1.8,1.2
	c-0.5-0.1-0.3,1.2-0.5-0.1C71.2,29,73.2,24,73.2,24z"></path><path class="st17" d="M72.3,20.5c0,0-2.6-0.6-3,0s-0.9,2.8-0.8,3.4c0.1,0.6-0.5,4.5,0,5.3c0.5,0.8,0.7,1.3,1.8,1.2
	c1.1-0.1,1.7-3.4,2-4.1c0.3-0.7,0-4.6,0-4.6V20.5z"></path><path class="st18" d="M77.6,25.3c0.5,0.4,1.4,1.1,0.9,2.8c-0.5,1.6-1.6,1.9-2.8,2.3c-1.2,0.4-1.5,1-2.6,0.5
	c-1.1-0.5-1.1-0.5-1.1-0.5s0.9-2.5,1.6-3.2C74.2,26.4,75.7,23.9,77.6,25.3z"></path><path class="st16" d="M73.5,34.3c0,0,4.7-1.5,3.4-2.7c-1.3-1.2,0.1-2.4-1.6-2.4c-1.7,0-3.8-1.1-3.9,0c-0.1,1.1,1,1-0.1,1.1
	c-1.1,0.1-1.7,0.7-1.1,1.2C71,32,73.5,34.3,73.5,34.3z"></path><path class="st19" d="M72.3,26.3c0,0-4.4-1.8-5-1.4c-0.6,0.4-1.5,1-1.4,3.1s0.3,2.8,1,2.9c0.8,0.1,2.2,0,2.2,0l2.3-0.6
	c0,0-0.2-0.1,0.1-1.1S72.3,26.3,72.3,26.3z"></path><path class="st20" d="M72.3,26.3l1.2,0.9l0.2,2.1c0,0-2.6-1.2-2.2,0l-1.1-0.5L72.3,26.3z"></path><path class="st17" d="M59.7,36c0,0-2.4-5.7-1.3-6.4s3.4-1.2,3.8-1.5s2,0.3,2.1,1s1.3,1.9,0,2.8c-1.3,0.9-2.6,0.8-2.8,1.7
	C61.3,34.5,59.7,36,59.7,36z"></path><path class="st16" d="M61.5,37.5c0,0,4.2,0.4,5-1.5c0.8-1.9,0.5-4.7,0.5-4.7s-0.2-0.7-2.1-0.5c-1.8,0.2-3.4-0.5-3.4,1.1
	c0,1.7,0.7,0.5,0,1.7c-0.7,1.2-1.8,2.4-1.8,2.4L61.5,37.5z"></path><path class="st18" d="M59.7,39.8c0,0,2.3,2.4,3.7,1.5c1.4-0.9,2.1-0.7,2.6-3s0.1-1.9-1-2.3c-1.1-0.4-5.2,0-5.2,0
	C59.6,37.1,59.7,39.8,59.7,39.8z"></path><path class="st17" d="M59.7,36c0,0-4-0.6-4.7-0.2c-0.6,0.4-0.5,2,0,2.8c0.5,0.9-0.1,1.6,1.1,1.6c1.3,0,3.5-0.5,3.5-0.5l-0.1-1.1
	L59.7,36z"></path><path class="st18" d="M55.2,32c0.5-0.2,1.7-1,3-0.5c1.3,0.5,1.6-0.2,1.6,2.1c0,2.4,0,2.4,0,2.4s-1.2,1.9-3.1,1.5
	c-1.9-0.5-2.4-0.6-2.6-1C53.6,36,54.1,32.5,55.2,32z"></path><path class="st20" d="M59.2,32.5c0.5,0.1,2.5,1.3,2.1,1.8S60.5,36,60.8,36s0.8,0.1,0.6,1c-0.3,0.9,1.1,0.4-0.3,0.9
	c-1.4,0.5-2.8,1.9-3,0.4c-0.3-1.5,0.9-1.8,0.5-2S58.5,36,58,35.6c-0.5-0.5,0-1,0-1L59.2,32.5z"></path><path class="st12" d="M50.1,92c0,0-3.3-5.3-3.3-5.5c0-0.2-0.5-3.1,0-3.8c0.5-0.8,2.7-2,3.1-2.1c0.4-0.1-0.7-1.6,2.6-0.1
	c3.3,1.4,3.7,0.8,4.9,3.3s-0.3,4.7,0,5.5c0.3,0.7-0.3,2.2-0.2,3.3c0.2,1.1,0.6,1.9-0.5,2.2s-1.7-0.7-3.2-1.3
	C52.2,92.9,50.1,92,50.1,92z"></path><path class="st13" d="M55.8,92.6c0,0,2.9,1.9,4,0s1.3-4.3,1.3-5.2s1.4-0.7,0-3.1s-0.5-3.4-2.3-3.7C57,80.3,57,80.3,57,80.3
	s-2.8,0.8-2.9,0.7c-0.1,0-2,0.7-1.8,2.2c0.2,1.5,0,3.3,0,3.3s-0.9-0.5,0,2C53.1,91.1,55.8,92.6,55.8,92.6z"></path><path class="st13" d="M59.1,94.3c0,0,0.5-4.5,1.5-5.5c1-1,3.2-1.4,3.9-0.8c0.7,0.6,2.8,3.4,2.8,3.4l0,3.4l-2,1.4
	c0,0-0.5-0.3-1.2-0.5C63.4,95.6,59.1,94.3,59.1,94.3z"></path><path class="st12" d="M65.6,86.4c0,0-2.4,4.2-2.4,5.6c0,1.4,3.4,0.6,5.4,0.7c2.1,0.1,3.4-0.1,3.9,0.2c0.5,0.2,1.7,1.2,2,0
	c0.2-1.2,0.6-3,0-3.9c-0.6-1-1.9-4.1-2.2-4.3s-1.8-0.4-2.3-0.8s-1.7-0.5-1.7-0.5L65.6,86.4z"></path><path class="st14" d="M67.3,87c-0.5,1.4,0.4,2.9,1.7,2.9s2.2,1.2,2.6,0s0.5-2.8,0-3.4s0.4-0.2-0.5-0.5C70.2,85.7,67.3,87,67.3,87z"></path><path class="st13" d="M82.7,86.6c0,0-3.2-6-3.6-6.5c-0.5-0.4-1.2-1.9-2.6-1.5s-2.3,2-2.3,2.5c0,0.5-2.2,5.8-2.3,6.6s1.4,2,2.1,2.7
	c0.8,0.7,1.9,2.2,3.3,1.5s1.6-0.9,2.1-1.5c0.5-0.6,0.6-0.9,1.3-1.6S82.7,86.6,82.7,86.6z"></path><path class="st14" d="M80.7,85.8c-0.2-0.6-1-2.9-1.2-3c-0.2-0.1-1.6-1.2-1.6-1.2s-1.1,0.1-1.7,1.2c-0.6,1.1-1,1.3-1.4,1.8
	c-0.3,0.6-0.3,0.7-0.7,1.7c-0.4,1-0.9,1.6,0.4,2.6c1.2,1,1.9,1.9,2.8,1.3s1.1-1.2,1.9-1.8S80.7,85.8,80.7,85.8z"></path><path class="st13" d="M62.2,81.6c0,0-1.3-6.5-1.7-7.6c-0.4-1.1-2.2-3.2-1.5-4c0.7-0.9,1.8-1.7,4.3-1.1c2.4,0.6,4.4,1,6.3,1.6
	c2,0.6,3.8,0.9,3.7,2.3c-0.1,1.5,0,3.7-0.6,4.4s-2.3,3.9-2.8,4c-0.5,0-0.6,0.3-1.2,0.4S62.2,81.6,62.2,81.6z"></path><path class="st12" d="M75.9,78.6c0,0,0.5-3.1,0-4.1c-0.5-1-2.6-1.7-2.6-1.7L69,75.7c-2.4,0.5-3.5,0.3-3.9,1c-0.4,0.7-0.1,1-0.5,1.9
	s-0.4,2.1-0.7,2.6c-0.4,0.4-1.6,1.6-1.6,1.6s-1.2,1.6,0,2.6s0.4,1.4,2.8,1.2c2.4-0.2,4.2-2.4,4.5-3.2c0.4-0.9,0.4-0.7,2.1-2.2
	C73.5,79.6,75.9,78.6,75.9,78.6z"></path><path class="st15" d="M58.9,77.1c0,0-2.4-5.5-3-5.7s-5.3-0.5-5.7,0c-0.5,0.5-2.1,1.3-2.2,1.9c-0.1,0.6,0.2,5.9,0.6,6.9
	c0.4,0.9,0.7,4.6,2.9,4.5c2.2-0.1,5.4-0.2,5.7-1.2c0.4-1,1.2-1.3,1.7-2.2C59.3,80.2,58.9,77.1,58.9,77.1z"></path><path class="st14" d="M62.6,77.9c0,0-3.5-2-3.7-0.7c-0.2,1.2-0.9,3-0.9,3s0.1,2.5,0.9,3.7c0.8,1.2,3.5,1.5,3.5,1.5s3.1-1,2.3-2.6
	c-0.7-1.6-0.7-1.5-1.3-2.6C62.7,79,62.6,77.9,62.6,77.9z"></path><path class="st14" d="M53.5,81l-2.7-3.2c0,0-0.7-2.7,0-2.7s0.2,0.9,0.7,0c0.5-1-0.9-2,0.5-2.3s2.2-2.1,3.3,0s1.6,3.1,1.7,3.6
	c0.1,0.5-1,0.6,0,2.2c1,1.6,1,1.6,1,1.6l-2.7,0L53.5,81z"></path><path class="st14" d="M66.1,73.3c0.3-0.6-2.7-2.2-2.7-2.2s-2.1-0.3-2.1,0s-0.1,1.3,0.4,2.1c0.5,0.8,1.1,3.5,1.1,3.5s2.1,1.4,2.2-0.1
	C65.3,75.2,66.1,73.3,66.1,73.3z"></path><path class="st16" d="M58.1,92c0,0-0.4,2.2-1,2.2c-0.6,0-1.7-0.6-1.3-2.2c0.4-1.6,1-4.4,1.8-5c0.9-0.7,1.2-1.2,1.7-1.1
	s0.2-1.1,0.5,0.1C60.1,87.1,58.1,92,58.1,92z"></path><path class="st17" d="M59,95.4c0,0,2.6,0.6,2.9,0s0.9-2.7,0.7-3.3c-0.1-0.6,0.5-4.4,0-5.2c-0.5-0.8-0.7-1.2-1.7-1.1s-1.7,3.3-1.9,4
	s0,4.4,0,4.4L59,95.4z"></path><path class="st18" d="M53.8,90.7c-0.5-0.4-1.3-1.1-0.8-2.7c0.5-1.6,1.6-1.9,2.7-2.3c1.2-0.4,1.4-0.9,2.5-0.5s1.1,0.5,1.1,0.5
	s-0.9,2.4-1.6,3.1C57.1,89.7,55.7,92.1,53.8,90.7z"></path><path class="st16" d="M57.8,82c0,0-4.6,1.4-3.3,2.6c1.3,1.2-0.1,2.4,1.6,2.4c1.6,0,3.7,1.1,3.7,0s-1-1,0.1-1.1
	c1.1-0.1,1.7-0.7,1-1.2C60.2,84.2,57.8,82,57.8,82z"></path><path class="st19" d="M59,89.8c0,0,4.3,1.8,4.9,1.4s1.5-1,1.4-3c-0.1-2-0.2-2.7-1-2.8s-2.1,0-2.1,0l-2.3,0.5c0,0,0.2,0.1-0.1,1.1
	S59,89.8,59,89.8z"></path><path class="st20" d="M59,89.8l-1.2-0.8l-0.2-2c0,0,2.5,1.1,2.1,0l1.1,0.5L59,89.8z"></path><path class="st17" d="M75.8,78.6c0,0,2.3,5.5,1.2,6.2c-1.1,0.7-3.3,1.2-3.7,1.4c-0.4,0.2-2-0.3-2.1-0.9c-0.1-0.7-1.2-1.8,0-2.7
	s2.5-0.8,2.7-1.6C74.2,80,75.8,78.6,75.8,78.6z"></path><path class="st16" d="M74,77.1c0,0-4.1-0.4-4.8,1.4c-0.7,1.8-0.5,4.6-0.5,4.6s0.2,0.6,2,0.5s3.3,0.5,3.3-1.1s-0.7-0.4,0-1.6
	c0.7-1.2,1.8-2.3,1.8-2.3L74,77.1z"></path><path class="st18" d="M75.8,74.9c0,0-2.2-2.3-3.6-1.5c-1.3,0.9-2,0.7-2.5,2.9c-0.5,2.2-0.1,1.9,1,2.2c1.1,0.4,5.1,0,5.1,0
	C75.9,77.6,75.8,74.9,75.8,74.9z"></path><path class="st17" d="M75.8,78.6c0,0,3.9,0.6,4.5,0.2s0.5-1.9,0-2.7c-0.5-0.8,0.1-1.6-1.1-1.6c-1.2,0-3.4,0.5-3.4,0.5l0.1,1.1
	L75.8,78.6z"></path><path class="st18" d="M80.2,82.5c-0.5,0.2-1.6,1-2.9,0.5c-1.3-0.5-1.5,0.2-1.5-2.1s0-2.3,0-2.3s1.2-1.9,3.1-1.4s2.3,0.6,2.6,1
	S81.2,82,80.2,82.5z"></path><path class="st20" d="M76.3,82c-0.5-0.1-2.4-1.3-2.1-1.8c0.4-0.5,0.9-1.7,0.5-1.6s-0.8-0.1-0.5-1c0.3-0.9-1.1-0.4,0.3-0.9
	c1.3-0.5,2.7-1.8,2.9-0.4s-0.9,1.7-0.5,1.9c0.4,0.2,0.1,0.4,0.5,0.8c0.5,0.5,0,1,0,1L76.3,82z"></path><path class="st12" d="M17.8,64.6c0,0-3.3,5.3-3.3,5.5s-0.5,3.1,0,3.8c0.5,0.8,2.7,2,3.1,2.1c0.4,0.1-0.7,1.6,2.7,0.1
	c3.3-1.4,3.7-0.8,4.9-3.3c1.3-2.6-0.3-4.7,0-5.5S24.9,65.1,25,64c0.2-1.1,0.6-1.9-0.5-2.2s-1.8,0.7-3.2,1.3S17.8,64.6,17.8,64.6z"></path><path class="st13" d="M23.6,64c0,0,2.9-1.9,4,0c1.1,1.9,1.3,4.3,1.3,5.2c0,1,1.4,0.7,0,3.1c-1.4,2.4-0.5,3.4-2.3,3.7
	c-1.8,0.3-1.8,0.3-1.8,0.3s-2.9-0.8-2.9-0.8c-0.1,0-2-0.7-1.8-2.2c0.3-1.5,0-3.3,0-3.3s-0.9,0.5,0-2S23.6,64,23.6,64z"></path><path class="st13" d="M43.4,78.2c0,0-4.3,1.4-5.6,0.9c-1.3-0.5-2.6-2.3-2.4-3.2s2-4,2-4l3.1-1.4l2.1,1.2c0,0-0.1,0.6,0.1,1.3
	C42.8,73.7,43.4,78.2,43.4,78.2z"></path><path class="st12" d="M33.5,75.5c0,0,4.8,0.5,6.1-0.1c1.3-0.6-0.9-3.3-1.6-5.3s-1.5-3.1-1.5-3.6s0.4-2.1-0.8-1.8
	c-1.2,0.3-3,0.7-3.6,1.6c-0.6,1-3,3.5-3,3.7c0,0.3,0.4,1.8,0.3,2.4c-0.1,0.6,0.2,1.8,0.2,1.8L33.5,75.5z"></path><path class="st14" d="M33.4,73.7c1.5-0.1,2.5-1.5,2-2.8c-0.5-1.2,0.2-2.5-1-2.3c-1.2,0.2-2.8,0.7-3.1,1.4C31,70.6,31,69.7,31,70.6
	C31,71.5,33.4,73.7,33.4,73.7z"></path><path class="st13" d="M26.7,59.7c0,0-4.2,5.4-4.4,6c-0.2,0.6-1.2,1.9-0.4,3c0.9,1.1,2.8,1.3,3.3,1.1c0.5-0.2,6.2-0.3,7-0.6
	c0.8-0.3,1.3-2.1,1.6-3.1c0.3-1,1.2-2.6,0-3.6c-1.2-1-1.4-1.1-2.2-1.3c-0.8-0.2-1.1-0.2-2-0.6C28.7,60.2,26.7,59.7,26.7,59.7z"></path><path class="st14" d="M26.8,61.9c-0.4,0.5-2.3,2.1-2.3,2.3s-0.4,1.9-0.4,1.9s0.5,1,1.8,1.1c1.3,0.1,1.6,0.4,2.3,0.5
	c0.7,0.1,0.7,0,1.8-0.1c1.1,0,1.8,0.1,2.2-1.4s1-2.5,0.1-3.1c-0.9-0.6-1.5-0.5-2.4-1C29,61.8,26.8,61.9,26.8,61.9z"></path><path class="st13" d="M30,75c0,0-1.3,6.5-1.7,7.6c-0.4,1.1-2.2,3.2-1.5,4c0.7,0.9,1.8,1.7,4.3,1.1c2.4-0.6,4.4-1,6.4-1.6
	c2-0.6,3.8-0.9,3.7-2.3c-0.1-1.5,0-3.7-0.6-4.4c-0.6-0.7-2.3-4-2.8-4c-0.5,0-0.6-0.3-1.2-0.4C36,74.9,30,75,30,75z"></path><path class="st12" d="M43.7,78c0,0,0.5,3.1,0,4.1c-0.5,1-2.6,1.7-2.6,1.7l-4.3-2.9c-2.4-0.5-3.5-0.3-3.9-1c-0.4-0.7-0.1-1-0.5-1.9
	c-0.4-0.9-0.4-2.1-0.7-2.6s-1.6-1.6-1.6-1.6s-1.2-1.6,0-2.6c1.2-1,0.4-1.4,2.8-1.2s4.2,2.4,4.5,3.2c0.4,0.9,0.4,0.7,2.1,2.2
	C41.2,77,43.7,78,43.7,78z"></path><path class="st15" d="M26.6,79.4c0,0-2.4,5.5-3,5.8c-0.6,0.2-5.3,0.5-5.8,0s-2.1-1.3-2.2-1.9c-0.1-0.6,0.2-6,0.6-6.9
	c0.4-0.9,0.7-4.6,2.9-4.5c2.2,0.1,5.4,0.3,5.8,1.2c0.4,1,1.2,1.3,1.7,2.2C27,76.4,26.6,79.4,26.6,79.4z"></path><path class="st14" d="M30.3,78.7c0,0-3.5,1.9-3.7,0.7s-0.9-3-0.9-3s0.1-2.5,0.9-3.7c0.8-1.2,3.5-1.5,3.5-1.5s3.1,1,2.3,2.6
	s-0.7,1.5-1.3,2.6C30.5,77.6,30.3,78.7,30.3,78.7z"></path><path class="st14" d="M21.2,75.5l-2.8,3.2c0,0-0.7,2.7,0,2.8c0.7,0.1,0.3-0.9,0.7,0.1c0.5,1-0.9,2,0.5,2.3c1.4,0.4,2.2,2.1,3.3,0
	c1.1-2.1,1.6-3.1,1.7-3.7c0.1-0.5-1-0.6,0-2.2c1-1.6,1-1.6,1-1.6H23L21.2,75.5z"></path><path class="st14" d="M33.9,83.3c0.3,0.6-2.7,2.2-2.7,2.2s-2.1,0.3-2.1,0c0-0.3-0.1-1.3,0.4-2.2c0.5-0.8,1.2-3.5,1.2-3.5
	s2.1-1.4,2.2,0.1C33,81.4,33.9,83.3,33.9,83.3z"></path><path class="st16" d="M19.1,60.1c0,0-0.4-2.2-1-2.2c-0.6,0-1.7,0.6-1.3,2.2c0.4,1.6,1,4.4,1.8,5.1c0.9,0.7,1.2,1.2,1.7,1.1
	s0.2,1.1,0.5-0.1C21.1,65,19.1,60.1,19.1,60.1z"></path><path class="st17" d="M19.9,56.6c0,0,2.6-0.6,2.9,0c0.4,0.6,0.9,2.7,0.7,3.3c-0.1,0.6,0.5,4.4,0,5.2c-0.5,0.8-0.7,1.2-1.7,1.1
	c-1.1-0.1-1.7-3.3-1.9-4c-0.3-0.7,0-4.4,0-4.4V56.6z"></path><path class="st18" d="M14.8,61.3c-0.5,0.4-1.3,1.1-0.9,2.7c0.5,1.6,1.6,1.9,2.7,2.3c1.2,0.4,1.4,0.9,2.5,0.5
	c1.1-0.5,1.1-0.5,1.1-0.5s-0.9-2.4-1.6-3.1S16.6,60,14.8,61.3z"></path><path class="st16" d="M18.8,70.1c0,0-4.6-1.4-3.3-2.6s-0.1-2.4,1.6-2.4c1.6,0,3.7-1.1,3.8,0s-1,1,0.1,1.1c1.1,0.1,1.7,0.7,1,1.2
	S18.8,70.1,18.8,70.1z"></path><path class="st19" d="M19.9,62.3c0,0,4.3-1.8,4.9-1.4c0.6,0.4,1.5,1,1.3,3c-0.1,2-0.2,2.8-1,2.8c-0.7,0.1-2.1,0-2.1,0l-2.3-0.5
	c0,0,0.2-0.1-0.1-1.1C20.5,64.1,19.9,62.3,19.9,62.3z"></path><path class="st20" d="M19.9,62.3l-1.2,0.8l-0.2,2c0,0,2.5-1.1,2.1,0l1.1-0.5L19.9,62.3z"></path><path class="st16" d="M40,77c0,0,0.4,2.2,1,2.2s1.7-0.6,1.3-2.2c-0.4-1.6-1-4.4-1.9-5.1c-0.9-0.7-1.2-1.2-1.7-1.1s-0.3-1.1-0.5,0.1
	S40,77,40,77z"></path><path class="st17" d="M39.2,80.5c0,0-2.6,0.6-2.9,0c-0.4-0.6-0.9-2.7-0.8-3.3c0.1-0.6-0.6-4.4,0-5.2c0.5-0.8,0.7-1.2,1.7-1.1
	c1.1,0.1,1.7,3.3,2,4c0.3,0.7,0,4.4,0,4.4L39.2,80.5z"></path><path class="st18" d="M44.3,75.7c0.5-0.4,1.3-1.1,0.8-2.7c-0.5-1.6-1.6-1.9-2.8-2.3c-1.2-0.4-1.4-0.9-2.5-0.4
	c-1.1,0.5-1.1,0.5-1.1,0.5s0.9,2.4,1.6,3.1C41,74.7,42.5,77.1,44.3,75.7z"></path><path class="st16" d="M40.3,67c0,0,4.6,1.4,3.4,2.6c-1.3,1.2,0.1,2.4-1.5,2.4c-1.6,0-3.7,1.1-3.8,0c-0.1-1.1,1-1-0.1-1.1
	c-1.1-0.1-1.7-0.7-1-1.2C37.9,69.2,40.3,67,40.3,67z"></path><path class="st19" d="M39.1,74.8c0,0-4.3,1.8-4.9,1.4s-1.5-1-1.4-3c0.1-2,0.2-2.8,1-2.8c0.7-0.1,2.1,0,2.1,0l2.3,0.5
	c0,0-0.2,0.1,0.1,1.1C38.6,73,39.1,74.8,39.1,74.8z"></path><path class="st20" d="M39.1,74.8l1.2-0.8l0.1-2c0,0-2.5,1.2-2.1,0l-1.1,0.5L39.1,74.8z"></path><path class="st17" d="M25.7,84.3c0,0,2.3-5.5,1.2-6.2c-1.1-0.7-3.3-1.2-3.7-1.4c-0.4-0.2-2,0.3-2.1,0.9c-0.1,0.7-1.2,1.8,0,2.7
	c1.2,0.9,2.5,0.8,2.7,1.6C24.2,82.9,25.7,84.3,25.7,84.3z"></path><path class="st16" d="M24,85.8c0,0-4.1,0.4-4.8-1.4c-0.7-1.8-0.5-4.6-0.5-4.6s0.2-0.6,2-0.5c1.8,0.2,3.3-0.5,3.3,1.1
	c0,1.6-0.7,0.4,0,1.6s1.8,2.3,1.8,2.3L24,85.8z"></path><path class="st18" d="M25.7,88c0,0-2.2,2.3-3.6,1.5c-1.3-0.9-2-0.7-2.5-2.9c-0.5-2.2-0.1-1.9,1-2.2c1.1-0.3,5.1,0,5.1,0
	C25.9,85.3,25.7,88,25.7,88z"></path><path class="st17" d="M25.7,84.3c0,0,3.9-0.6,4.5-0.2c0.6,0.4,0.5,1.9,0,2.8c-0.5,0.8,0.1,1.6-1.1,1.6S25.7,88,25.7,88l0.1-1.1
	L25.7,84.3z"></path><path class="st18" d="M30.2,80.4c-0.5-0.2-1.6-1-2.9-0.5c-1.3,0.5-1.5-0.2-1.5,2.1s0,2.3,0,2.3s1.2,1.9,3.1,1.4s2.3-0.6,2.6-1
	C31.6,84.4,31.2,80.9,30.2,80.4z"></path><path class="st20" d="M26.2,80.9c-0.5,0.1-2.4,1.3-2.1,1.8s0.9,1.7,0.5,1.6s-0.8,0.1-0.5,1c0.3,0.9-1.1,0.4,0.3,0.9s2.7,1.8,2.9,0.4
	c0.2-1.4-0.9-1.7-0.5-1.9c0.4-0.2,0.1-0.4,0.5-0.8c0.5-0.5,0-1,0-1L26.2,80.9z"></path><path class="st12" d="M49.6,37.9c0,0,3.3,5.2,3.3,5.4s0.5,3,0,3.8c-0.5,0.8-2.6,1.9-3.1,2.1s0.7,1.5-2.6,0.1s-3.6-0.8-4.9-3.3
	s0.3-4.7,0-5.4c-0.3-0.7,0.3-2.2,0.2-3.3c-0.2-1.1-0.6-1.8,0.5-2.2c1.1-0.3,1.7,0.7,3.2,1.3C47.5,37,49.6,37.9,49.6,37.9z"></path><path class="st13" d="M43.9,37.3c0,0-2.8-1.9-3.9,0c-1.1,1.9-1.3,4.2-1.3,5.2c0,1-1.4,0.7,0,3.1c1.4,2.3,0.5,3.3,2.3,3.6
	s1.8,0.3,1.8,0.3s2.8-0.8,2.9-0.7c0.1,0,2-0.7,1.8-2.2s0-3.2,0-3.2s0.9,0.5,0-2S43.9,37.3,43.9,37.3z"></path><path class="st13" d="M37.6,48.3c0,0,1.3,6.4,1.7,7.5c0.4,1.1,2.2,3.2,1.5,4c-0.7,0.8-1.8,1.7-4.2,1.1s-4.4-1-6.3-1.6
	s-3.8-0.8-3.6-2.3s0-3.6,0.6-4.4c0.6-0.7,2.3-3.9,2.8-4c0.5,0,0.6-0.3,1.2-0.4C31.7,48.2,37.6,48.3,37.6,48.3z"></path><path class="st12" d="M24,51.3c0,0-0.5,3.1,0,4.1c0.5,1,2.5,1.7,2.5,1.7l4.3-2.9c2.4-0.5,3.5-0.3,3.8-1c0.4-0.7,0.1-1,0.5-1.9
	s0.4-2.1,0.7-2.6c0.4-0.4,1.6-1.6,1.6-1.6s1.2-1.6,0-2.6s-0.4-1.4-2.8-1.2c-2.4,0.2-4.1,2.3-4.5,3.2c-0.4,0.8-0.4,0.7-2.1,2.2
	C26.5,50.2,24,51.3,24,51.3z"></path><path class="st15" d="M40.9,52.7c0,0,2.4,5.5,3,5.7c0.6,0.2,5.2,0.5,5.7,0c0.5-0.5,2.1-1.3,2.2-1.9c0.1-0.6-0.2-5.9-0.6-6.8
	c-0.4-0.9-0.7-4.6-2.9-4.4s-5.3,0.3-5.7,1.2c-0.4,1-1.2,1.3-1.6,2.2C40.5,49.6,40.9,52.7,40.9,52.7z"></path><path class="st14" d="M37.3,51.9c0,0,3.5,1.9,3.7,0.7c0.2-1.2,0.9-3,0.9-3s-0.1-2.5-0.9-3.7c-0.8-1.2-3.4-1.5-3.4-1.5s-3,1-2.3,2.6
	c0.7,1.6,0.7,1.5,1.3,2.6S37.3,51.9,37.3,51.9z"></path><path class="st14" d="M46.3,48.8l2.7,3.2c0,0,0.7,2.7,0,2.7c-0.7,0.1-0.2-0.9-0.7,0.1c-0.5,1,0.9,1.9-0.5,2.3s-2.2,2.1-3.3,0
	c-1.1-2.1-1.6-3.1-1.7-3.6c-0.1-0.5,1-0.6,0-2.1s-1-1.6-1-1.6h2.7L46.3,48.8z"></path><path class="st14" d="M33.8,56.5c-0.3,0.6,2.6,2.1,2.6,2.1s2.1,0.3,2.1,0c0-0.3,0.1-1.3-0.4-2.1c-0.5-0.8-1.1-3.4-1.1-3.4
	s-2.1-1.4-2.2,0.1C34.6,54.6,33.8,56.5,33.8,56.5z"></path><path class="st13" d="M45.5,39.1c0,0-0.5,4.5-1.5,5.4c-1,1-3.2,1.4-3.9,0.8c-0.7-0.6-2.8-3.4-2.8-3.4v-3.4l1.9-1.4
	c0,0,0.5,0.3,1.2,0.5C41.2,37.9,45.5,39.1,45.5,39.1z"></path><path class="st12" d="M39.1,47c0,0,2.4-4.2,2.4-5.6s-3.3-0.5-5.4-0.7c-2.1-0.1-3.4,0.1-3.9-0.1c-0.5-0.2-1.7-1.2-1.9,0
	c-0.2,1.2-0.6,3,0,3.9s1.9,4.1,2.2,4.2c0.2,0.1,1.8,0.4,2.3,0.7c0.5,0.4,1.7,0.5,1.7,0.5L39.1,47z"></path><path class="st14" d="M37.4,46.4c0.5-1.4-0.4-2.9-1.7-2.9c-1.3,0-2.2-1.2-2.5,0c-0.4,1.2-0.5,2.8,0,3.3c0.5,0.5-0.4,0.2,0.5,0.5
	C34.5,47.7,37.4,46.4,37.4,46.4z"></path><path class="st13" d="M22.1,46.8c0,0,3.2,6,3.6,6.4c0.5,0.4,1.2,1.9,2.5,1.5c1.3-0.4,2.3-2,2.3-2.5s2.2-5.7,2.2-6.6
	c0-0.8-1.3-2-2.1-2.7c-0.8-0.7-1.9-2.2-3.3-1.5s-1.6,0.9-2.1,1.5c-0.5,0.6-0.6,0.9-1.3,1.6C23.3,45.3,22.1,46.8,22.1,46.8z"></path><path class="st14" d="M24,47.6c0.2,0.6,1,2.9,1.2,3c0.2,0.1,1.6,1.2,1.6,1.2s1.1-0.1,1.7-1.2s1-1.2,1.4-1.8c0.3-0.6,0.3-0.7,0.7-1.7
	c0.4-1,0.8-1.6-0.4-2.5s-1.9-1.9-2.8-1.3s-1.1,1.2-1.8,1.8S24,47.6,24,47.6z"></path><path class="st16" d="M38.6,49.9c0,0,0.4-2.2,1-2.2s1.7,0.6,1.3,2.2c-0.4,1.6-1,4.3-1.8,5c-0.8,0.7-1.2,1.2-1.7,1.1
	c-0.5-0.1-0.2,1.1-0.5-0.1S38.6,49.9,38.6,49.9z"></path><path class="st17" d="M37.7,46.5c0,0-2.5-0.6-2.9,0c-0.4,0.6-0.8,2.7-0.7,3.3c0.1,0.6-0.5,4.3,0,5.1c0.5,0.8,0.7,1.2,1.7,1.1
	s1.7-3.3,1.9-3.9c0.3-0.7,0-4.4,0-4.4V46.5z"></path><path class="st18" d="M42.8,51.2c0.5,0.3,1.3,1.1,0.8,2.7c-0.5,1.6-1.6,1.9-2.7,2.3c-1.2,0.4-1.4,0.9-2.5,0.5
	c-1.1-0.5-1.1-0.5-1.1-0.5s0.9-2.4,1.5-3.1C39.5,52.2,41,49.9,42.8,51.2z"></path><path class="st16" d="M38.9,59.9c0,0,4.6-1.4,3.3-2.6C41,56.1,42.3,55,40.7,55c-1.6,0-3.6-1-3.7,0c-0.1,1,1,1-0.1,1
	c-1.1,0.1-1.7,0.7-1,1.2C36.5,57.7,38.9,59.9,38.9,59.9z"></path><path class="st19" d="M37.7,52.2c0,0-4.2-1.7-4.8-1.4s-1.5,1-1.3,3c0.1,2,0.2,2.7,1,2.8c0.7,0.1,2.1,0,2.1,0l2.2-0.5
	c0,0-0.2,0,0.1-1C37.2,54,37.7,52.2,37.7,52.2z"></path><path class="st20" d="M37.7,52.2l1.2,0.8l0.2,2c0,0-2.5-1.1-2.1,0l-1.1-0.5L37.7,52.2z"></path><path class="st17" d="M34.7,38.4c0,0-2.3-5.5-1.2-6.1c1.1-0.6,3.3-1.2,3.6-1.4s1.9,0.3,2.1,0.9c0.1,0.7,1.2,1.8,0,2.7
	s-2.5,0.8-2.7,1.6C36.3,37,34.7,38.4,34.7,38.4z"></path><path class="st16" d="M36.5,39.8c0,0,4,0.4,4.8-1.4c0.7-1.8,0.5-4.5,0.5-4.5s-0.2-0.6-2-0.5s-3.3-0.5-3.3,1.1s0.7,0.4,0,1.6
	c-0.7,1.2-1.8,2.3-1.8,2.3L36.5,39.8z"></path><path class="st18" d="M34.7,42c0,0,2.2,2.3,3.5,1.5c1.3-0.8,2-0.7,2.5-2.9c0.5-2.2,0.1-1.9-1-2.2c-1.1-0.3-5.1,0-5.1,0
	C34.6,39.4,34.7,42,34.7,42z"></path><path class="st17" d="M34.7,38.4c0,0-3.9-0.6-4.5-0.2s-0.5,1.9,0,2.7c0.5,0.8-0.1,1.6,1.1,1.6s3.4-0.5,3.4-0.5L34.7,41L34.7,38.4z"></path><path class="st18" d="M30.4,34.5c0.5-0.2,1.6-0.9,2.9-0.5c1.3,0.5,1.5-0.2,1.5,2.1c0,2.3,0,2.3,0,2.3s-1.2,1.9-3,1.4
	c-1.9-0.4-2.3-0.6-2.5-1C28.9,38.4,29.3,35,30.4,34.5z"></path><path class="st20" d="M34.3,35c0.5,0.1,2.4,1.3,2.1,1.8s-0.8,1.7-0.5,1.6c0.4,0,0.8,0.1,0.5,1s1,0.4-0.3,0.9
	c-1.3,0.5-2.7,1.8-2.9,0.4s0.8-1.7,0.5-1.9c-0.4-0.2-0.1-0.4-0.5-0.8c-0.4-0.5,0-1,0-1L34.3,35z"></path></g></svg>