<svg xmlns="http://www.w3.org/2000/svg" version="1.1" xmlns:xlink="http://www.w3.org/1999/xlink" xmlns:svgjs="http://svgjs.dev/svgjs" viewBox="0 0 108 108" style="" x="0" y="0"><style type="text/css">
	.st0{fill:#F067A6;}
	.st1{fill:#E981B4;}
	.st2{fill:#E94EBC;}
	.st3{fill:#C7559A;}
	.st4{fill:#D487B9;}
	.st5{fill:#C87AAC;}
	.st6{fill:#E993BF;}
	.st7{fill:#F6AFCD;}
	.st8{fill:#F17DB0;}
	.st9{fill:#F181B3;}
	.st10{fill:#EBA8CB;}
	.st11{fill:#B64D8D;}
	.st12{fill:none;stroke:#708530;stroke-width:1.1168;stroke-miterlimit:10;}
	.st13{fill:#62802F;}
	.st14{fill:#89AE78;}
	.st15{fill:#BEBC32;}
	.st16{fill:#92B83E;}
	.st17{fill:#76A747;}
	.st18{fill:#A5C939;}
	.st19{fill:#9EB97A;}
	.st20{fill:#506326;}
</style><g><path class="st0" d="M40,22.9c0,0-0.7,2.6-0.1,4s-0.5,4.9,4.4,8.8s9.6,5.8,11.4,5.7c1.8-0.1,10.4-1.8,10.4-1.8l2.2-8.1
	c0,0-2.9-2.2-4.3-3.4s-1.6-2.8-3.5-3.4c-1.9-0.5-5.6-3.5-8.1-3.1c-2.5,0.4-4.3-0.4-6.7,0.5C43.3,22.9,40,22.9,40,22.9z"></path><path class="st1" d="M72,43.1c0,0,2.1,1.8,1.1,2.8c-1,1-0.9,1.5-1.8,2.3c-0.9,0.8-1.5,1.3-2.7,1.6c-1.2,0.3-2,0.4-3.3,0
	c-1.3-0.4-1.6-1.3-1.4-2.1c0.3-0.8,0.4-5.6,0.8-6.1c0.4-0.5,0.2-2.3,1.3-2.1c1.1,0.1,4.3,0.9,4.3,0.9L72,43.1z"></path><path class="st2" d="M69.7,28.2c0,0,3,0,4.1,0.6c1.1,0.6,1.5,0.6,1.7,1.9c0.2,1.3-0.1,1.2,0.5,2.1c0.6,0.9,1,1.4,0.4,2
	s-0.3,0.5-1.2,1.1c-0.9,0.6-2.4,1.3-3.2,0.7c-0.8-0.6-1.9-1.4-2.3-1.8c-0.4-0.4-1.1-1.5-1.1-1.5L69.7,28.2z"></path><path class="st1" d="M52.4,21.6c0-0.5-0.1-0.9,0-1.6c0.1-0.7-0.2-1.4-1.1-1.9c-0.9-0.5-2.1-1-3.2-1.2c-1.1-0.2-2.3,0-2.4,0
	c-0.1,0,0,0.9,0.4,1.5c0.4,0.6,1.6,1.5,1.6,2.4c-0.1,0.9-0.3,1.5,0.2,1.8c0.4,0.3,1.7,0.6,1.7,0.6s0.4,0.5,1,0
	C51.2,22.7,52.4,21.6,52.4,21.6z"></path><path class="st1" d="M47.2,19.6c0,0-1-0.5-1.5,0.4c-0.6,1,0.1,1.3,0,2c-0.1,0.6,0.1,1,0,1.3c-0.1,0.3-0.4,1.5-0.8,1.8
	c-0.4,0.4-0.8,0.7-0.5,1.3c0.3,0.6,0,1.2,0.6,1.4c0.6,0.2,1.2,0.5,2.2,0c1-0.5,2-1.4,1.8-1.6c-0.2-0.2,0.4,0.3,0-0.7
	C48.7,24.7,47.2,19.6,47.2,19.6z"></path><path class="st2" d="M55.1,21.4c0.3-0.2,2.1-0.8,3-1.9c0.9-1.1,0.6-1.8,1.4-2.1c0.9-0.3,1.5,0.1,2.3,0c0.8-0.1,1.6-0.2,2.6-0.1
	c0.9,0.1,3.1,0.5,3.1,1s0.1,0.7-1.1,1.7s-2.9,2.6-2.9,3.3c0,0.7,0.1,1.4-0.2,2.7C63,27.3,64,27.7,62,28.2c-2,0.5-3.8,0.4-3.8,0.4
	l-2.8-1.4c0,0-0.6-0.9-0.9-1.8C54.3,24.6,55.1,21.4,55.1,21.4z"></path><path class="st1" d="M61.6,29.6c0,0,1.3-2.4,1.8-3.5c0.4-1.1-0.1-1.9,2-2.2c2.1-0.3,2.4-1,3.1,0s1.4,1.6,1.7,1.8
	c0.3,0.3-0.4,0.3,0,0.8c0.4,0.5,0.5,0.4,0.9,0.6c0.4,0.2,0.6,0.5,0.3,1.1s0.2,1.3,0.2,2.3c0,1,0.8,1.4-1,1.6c-1.8,0.3-3-0.4-3.7,0
	c-0.7,0.4-1.6,0.4-3.3,0.6c-1.7,0.2-3.2,0-3.2,0C60.4,31.9,61.6,29.6,61.6,29.6z"></path><path class="st3" d="M73.1,37.4c0,0,2.3,3.4,2,4.4c-0.3,1-0.7,3.1-1.7,3.1c-1,0-3.4-1.3-3.9-1.8c-0.5-0.4-2.3-2.4-2.1-2.8
	s1.2-1.7,1.2-1.7C70.9,37.9,73.1,37.4,73.1,37.4z"></path><path class="st4" d="M52.4,45c0,0-2,2.3-3.4,3.1s-3.9,2.5-4.8,2.8c-0.8,0.3-1.5,0-2.1,0s-0.8-0.5-0.9-0.8c-0.2-0.3,0.3-4.8,0-5.3
	c-0.3-0.4-1.3-1.2-0.6-2.6s1-3.1,2.6-3.6c1.6-0.6,1.8-1.1,2.9-1.2c1.1-0.1,4.4-0.8,5.2-0.6c0.8,0.2,2.1,2.6,2.3,2.8
	c0.1,0.1,0.1,0.2,0,1C53.6,41.4,52.4,45,52.4,45z"></path><path class="st0" d="M46.1,18.4c0,0-1-1.4-1.8-1.9c-0.8-0.6-1.9-0.5-1.9-0.5s0.2,0.9,0,1.7s-0.5,2.6,0.4,2.9c0.9,0.3,1.4,0.4,2.1,0
	c0.7-0.4,2.2-0.8,2.2-0.8L46.1,18.4z"></path><path class="st2" d="M39.5,20.1c-0.3,0.4-0.8,1.4-1,1.5c-0.3,0.1-1.7-0.6-2.3-0.4c-0.6,0.2-1.4,0.4-1.7,0.4c-0.3,0.1-1.2-1-0.9,0
	c0.3,1,1.4,1.4,2.3,1.8c0.9,0.4,1.7,1.5,1.9,2c0.2,0.4,0.3,0.4,0.6,0.8s1.2,0.8,1.4,0.9c0.3,0.1,2.4,0.8,2.8,0.6
	c0.4-0.1,1.3-2.2,1.2-2.6c-0.1-0.4,0-1.4-0.5-2.1s-0.7-1.5-1.1-1.6S39.5,20.1,39.5,20.1z"></path><path class="st1" d="M37.7,26.2c-0.4-0.1-1.2-0.3-1.6,0.4c-0.4,0.7-0.5,3.1,0,3.5c0.5,0.4,1.2,0.4,1.6,0.3c0.4-0.1,1.4-0.2,1.9-0.6
	c0.6-0.4,0.8-0.3,0.8-0.7c0.1-0.4,0.3-0.4,0-0.9c-0.3-0.4-0.6-1.4-0.6-1.4L37.7,26.2z"></path><path class="st0" d="M44.7,33.3c0,0-1.6-2.6-2.5-3.4s-1.6-1.1-2.7-0.8c-1.1,0.3-2.1,1.1-2.4,2.1c-0.4,1-1.1,2.6-2,3.2
	s-2.1-1-1.9,0.9c0.1,1.9-1,2.6,0.4,2.5s2.3,0.1,3-0.4c0.8-0.6,1.3-0.6,2.2,0s-0.1,0.9,1.6,1.1c1.7,0.2,1.5,0.7,2.8,0.1
	c1.3-0.6,2.9-1.2,2.9-1.2s0.9,1.8,0.9-0.6c0-2.4,0-3.2,0-3.2L44.7,33.3z"></path><path class="st5" d="M39.2,18.3c0,0,1.7-0.2,3,0s1.7,0.5,2.5,0.8c0.8,0.3,2-0.6,2.5,0.5c0.5,1.1,0.1,5.1-0.2,5.7s-1,2.2-1.4,3.6
	c-0.4,1.4-0.4,3.2-0.5,3.5c-0.1,0.2,0.4,1.4-0.5,0.8c-0.9-0.6-3.2-3.1-3.2-3.9c0-0.8-0.9-2.4-0.9-3.5S40,23.6,40,22.9
	c0-0.7-0.2-0.9-0.4-1.9C39.5,20.1,39.2,18.3,39.2,18.3z"></path><path class="st0" d="M73.8,35.4c-0.3-0.8-1.4-1.9-1.8-2.6c-0.4-0.7-0.9-1.1-1.6-1.3c-0.7-0.2-1.4-0.4-2.2,0
	c-0.8,0.4-1.9,1.3-2.2,1.3c-0.2,0-1.9-0.8-2.9-0.7c-0.9,0.1-3.1,1.5-3.1,1.5s-0.6,2.7,0,3.2c0.6,0.5,2.5,2.1,2.9,2.2
	c0.4,0,1.8-0.3,3.1,0.6c1.4,0.9,2.5,1.6,3.7,1.7c1.2,0.1,2.2,0.3,2.9-0.3c0.7-0.6,1.6-2.9,1.5-3.5C74.2,36.8,73.8,35.4,73.8,35.4z"></path><path class="st3" d="M54.8,44.3c0,0,1,1.3,2.6,1.7c1.6,0.4,3.2,0.5,3.1,1s-0.2,1.6-0.7,1.8s-0.1,1.2,0,1.3s2.1,0.8,3,0.6
	c0.9-0.1,2.5-0.9,2.5-0.9l0.8-1.3c0,0,0.2-0.1,0.9-0.4c0.8-0.3,1.6-0.5,1.6-1.4c0-0.9,0.2-2.1-0.5-2.9s-0.1-1.4-1.1-1.8
	s-2-0.1-3.1-0.3c-1.2-0.3-1.7-0.5-3.4-0.6s-2.9,0.1-2.9,0.1C56.4,42,54.8,44.3,54.8,44.3z"></path><path class="st2" d="M56,42.8c0,0,2.4,1.3,2.9,1.5c0.4,0.2,0,0.9,2.2,1.3c2.2,0.4,1.9-1.4,3.4-1.3c1.5,0,2.1,0.2,2.7-0.4
	c0.5-0.6,1-3,0.5-3.4c-0.5-0.4-2.5-1.9-3.2-1.9c-0.7-0.1-2.4-0.3-3-0.8c-0.6-0.5-2-1-2-1l-2.4,0c0,0-0.2,1.8-0.2,2.1
	c0,0.3,0,0.9-0.1,1.1C56.6,40.2,56,42.8,56,42.8z"></path><path class="st1" d="M56.9,34.4l3.2,2.3c0,0,0.7,1.5,0.4,2.2c-0.3,0.6-0.8,1.1-1,1.5c-0.3,0.3-1.5,1.9-2.6,2.9
	c-1.1,1-1.6,1.9-2.7,2.2c-1.1,0.3-1.8,0.6-2.4,0.3c-0.6-0.3-1.2-0.4-1.5-1.8c-0.3-1.4,0.4-2.4,0.5-3.3c0.1-0.9,0.8-3.8,1.1-4.3
	s0.8-0.9,0.8-0.9L56.9,34.4z"></path><path class="st6" d="M47.9,37.2c0,0-0.7,1-2.2-0.4c-1.6-1.4-3.2-1.7-2.4-2.8c0.8-1.1,1.2-3.6,0.9-4.3c-0.2-0.7-0.1-1.1,0-2.1
	c0.1-1-0.5-1.1,0.1-1.7s1.4-3.8,1.4-3.8s2.4-2.1,2.7-2s0.6-1.3,1.8-0.6c1.2,0.7,2.4,1.9,3.2,2.3c0.8,0.4,1.7,1.2,2,2.1
	s0.2,2,0.1,3.3s-1.3,3.6-1.7,4s-0.8,2.1-1.6,2.7c-0.8,0.6-0.6,0.7-1.9,1.5S47.9,37.2,47.9,37.2z"></path><path class="st7" d="M52.1,32.8c0,0-3.2-0.1-3.8,0.7s-1.3,3.3-1.3,3.3s-0.8,2.2-0.3,2.8c0.5,0.6,1.2,3.4,1.3,3.9
	c0.1,0.4,0.4,0.9,1.1,0.4s2.3-1.6,3.4-1.6c1-0.1,2.5-1.1,2.7-1.8s0.8-1.6,1.3-2.6c0.5-1.1,0-1.8-0.5-2.4s-1.1-1.9-1.2-2
	c-0.1-0.1-1.1-0.3-1.1-0.3L52.1,32.8z"></path><path class="st8" d="M53.7,27.6c0,0,1.4-3.2,1.7-3.7s-0.1-3.2-0.6-3.1c-0.6,0.1-3.6,0-4.5,0.4s-2.5,0.6-3,1.5
	c-0.5,0.9-0.8,1.8-1.1,2.4s0.3,1.1-0.4,2c-0.7,0.9-1,0.8,0,2c1,1.1,1.5,1.2,2.2,1.5c0.6,0.3,2.2,0.4,2.4,0.4c0.2,0,0.4,0,0.7,0
	s0.7,0.6,1.5,0C53.2,30.3,53.7,27.6,53.7,27.6z"></path><path class="st9" d="M59.3,26.5c0,0,0.7-0.9,1.1-1.8c0.4-0.9,0.7-1.9,0.1-2.6c-0.6-0.6-0.1-1.6-1.2-1.1s-1.3,0.9-2.2,1.4
	c-0.9,0.6-1.9,0.3-1.7,1.4c0.2,1,0.5,1.2,0.6,1.6c0,0.4-0.2,0.8,0.4,1c0.6,0.2,1.8,0.3,1.8,0.3L59.3,26.5z"></path><path class="st10" d="M52.4,30.9c0,0,0.2-2.7,0-3.3c-0.2-0.6,0.4-1.1,1.3-1.6c0.9-0.5,3.4-1.1,3.8-1.1c0.4,0.1,2.9,0.8,2.9,1.6
	c0.1,0.8,0,1.9,0.1,2.8c0.1,0.9,1.7,1.2-0.7,2.3c-2.4,1.1-4.4,1.4-5,2C54.1,34,54.5,34,53.3,34s-1.2,0-1.2,0s-1.7-0.9-1.8-1.2
	s0-1.9,0-1.9H52.4z"></path><path class="st11" d="M49.9,28.6c0,0,0.9,1.3,1.3,0.8c0.4-0.5,0.5-2.3,0.5-2.3s1.3,1.5,1.4,1.9c0.2,0.4-1.3,1.6-0.7,1.9
	c0.6,0.3,1.4,0.4,0.7,0.6c-0.7,0.2-1.5,0-1.5,0C50.9,30.9,49.9,28.6,49.9,28.6z"></path><path class="st0" d="M39.4,61.1c0,0-0.7,2.6-0.1,4c0.6,1.4-0.5,4.9,4.4,8.8s9.6,5.8,11.4,5.7c1.8-0.1,10.4-1.8,10.4-1.8l2.2-8.1
	c0,0-2.9-2.2-4.3-3.4c-1.4-1.2-1.6-2.8-3.5-3.4c-1.9-0.5-5.6-3.5-8.1-3.1c-2.5,0.4-4.3-0.4-6.7,0.5C42.8,61.1,39.4,61.1,39.4,61.1z"></path><path class="st1" d="M71.5,81.3c0,0,2.1,1.8,1.1,2.8c-1,1-0.9,1.5-1.8,2.3c-0.9,0.8-1.5,1.3-2.7,1.6c-1.2,0.3-2,0.4-3.3,0
	c-1.3-0.4-1.6-1.3-1.4-2.1c0.3-0.8,0.4-5.6,0.8-6.1c0.4-0.5,0.2-2.3,1.3-2.1s4.3,0.9,4.3,0.9L71.5,81.3z"></path><path class="st2" d="M69.2,66.4c0,0,3,0,4.1,0.6c1.1,0.6,1.5,0.6,1.7,1.9s-0.1,1.2,0.5,2.1c0.6,0.9,1,1.4,0.4,2s-0.3,0.5-1.2,1.1
	c-0.9,0.6-2.4,1.3-3.2,0.7s-1.9-1.4-2.3-1.8c-0.4-0.4-1.1-1.5-1.1-1.5L69.2,66.4z"></path><path class="st1" d="M51.9,59.7c0-0.5-0.1-0.9,0-1.6c0.1-0.7-0.2-1.4-1.1-1.9s-2.1-1-3.2-1.2s-2.3,0-2.4,0s0,0.9,0.4,1.5
	s1.6,1.5,1.6,2.4c-0.1,0.9-0.3,1.5,0.2,1.8c0.4,0.3,1.7,0.6,1.7,0.6s0.4,0.5,1,0C50.7,60.8,51.9,59.7,51.9,59.7z"></path><path class="st1" d="M46.7,57.8c0,0-1-0.5-1.5,0.4s0.1,1.3,0,2c-0.1,0.6,0.1,1,0,1.3s-0.4,1.5-0.8,1.8c-0.4,0.4-0.8,0.7-0.5,1.3
	s0,1.2,0.6,1.4c0.6,0.2,1.2,0.5,2.2,0s2-1.4,1.8-1.6c-0.2-0.2,0.4,0.3,0-0.7C48.2,62.8,46.7,57.8,46.7,57.8z"></path><path class="st2" d="M54.5,59.6c0.3-0.2,2.1-0.8,3-1.9s0.6-1.8,1.4-2.1s1.5,0.1,2.3,0s1.6-0.2,2.6-0.1c0.9,0.1,3.1,0.5,3.1,1
	s0.1,0.7-1.1,1.7c-1.1,1-2.9,2.6-2.9,3.3c0,0.7,0.1,1.4-0.2,2.7s0.7,1.6-1.3,2.1s-3.8,0.4-3.8,0.4l-2.8-1.4c0,0-0.6-0.9-0.9-1.8
	C53.7,62.7,54.5,59.6,54.5,59.6z"></path><path class="st1" d="M61.1,67.7c0,0,1.3-2.4,1.8-3.5c0.4-1.1-0.1-1.9,2-2.2c2.1-0.3,2.4-1,3.1,0c0.7,1,1.4,1.6,1.7,1.8
	c0.3,0.3-0.4,0.3,0,0.8c0.4,0.5,0.5,0.4,0.9,0.6s0.6,0.5,0.3,1.1c-0.3,0.6,0.2,1.3,0.2,2.3s0.8,1.4-1,1.6c-1.8,0.3-3-0.4-3.7,0
	c-0.7,0.4-1.6,0.4-3.3,0.6c-1.7,0.2-3.2,0-3.2,0C59.9,70.1,61.1,67.7,61.1,67.7z"></path><path class="st3" d="M72.6,75.6c0,0,2.3,3.4,2,4.4c-0.3,1-0.7,3.1-1.7,3.1c-1,0-3.4-1.3-3.9-1.8c-0.5-0.4-2.3-2.4-2.1-2.8
	c0.1-0.3,1.2-1.7,1.2-1.7C70.4,76,72.6,75.6,72.6,75.6z"></path><path class="st4" d="M51.9,83.2c0,0-2,2.3-3.4,3.1s-3.9,2.5-4.8,2.8c-0.8,0.3-1.5,0-2.1,0s-0.8-0.5-0.9-0.8c-0.2-0.3,0.3-4.8,0-5.3
	s-1.3-1.2-0.6-2.6s1-3.1,2.6-3.6c1.6-0.6,1.8-1.1,2.9-1.2c1.1-0.1,4.4-0.8,5.2-0.6c0.8,0.2,2.1,2.6,2.3,2.8c0.1,0.1,0.1,0.2,0,1
	C53,79.5,51.9,83.2,51.9,83.2z"></path><path class="st0" d="M45.6,56.5c0,0-1-1.4-1.8-1.9c-0.8-0.6-1.9-0.5-1.9-0.5s0.2,0.9,0,1.7c-0.2,0.8-0.5,2.6,0.4,2.9s1.4,0.4,2.1,0
	c0.7-0.4,2.2-0.8,2.2-0.8L45.6,56.5z"></path><path class="st2" d="M39,58.2c-0.3,0.4-0.8,1.4-1,1.5c-0.3,0.1-1.7-0.6-2.3-0.4c-0.6,0.2-1.4,0.4-1.7,0.4c-0.3,0.1-1.2-1-0.9,0
	c0.3,1,1.4,1.4,2.3,1.8c0.9,0.4,1.7,1.5,1.9,2c0.2,0.4,0.3,0.4,0.6,0.8s1.2,0.8,1.4,0.9c0.3,0.1,2.4,0.8,2.8,0.6
	c0.4-0.1,1.3-2.2,1.2-2.6c-0.1-0.4,0-1.4-0.5-2.1c-0.5-0.6-0.7-1.5-1.1-1.6C41.3,59.4,39,58.2,39,58.2z"></path><path class="st1" d="M37.2,64.4c-0.4-0.1-1.2-0.3-1.6,0.4c-0.4,0.7-0.5,3.1,0,3.5c0.5,0.4,1.2,0.4,1.6,0.3c0.4-0.1,1.4-0.2,1.9-0.6
	s0.8-0.3,0.8-0.7c0.1-0.4,0.3-0.4,0-0.9c-0.3-0.4-0.6-1.4-0.6-1.4L37.2,64.4z"></path><path class="st0" d="M44.2,71.5c0,0-1.6-2.6-2.5-3.4c-0.9-0.8-1.6-1.1-2.7-0.8s-2.1,1.1-2.4,2.1c-0.4,1-1.1,2.6-2,3.2
	s-2.1-1-1.9,0.9c0.1,1.9-1,2.6,0.4,2.5c1.4-0.1,2.3,0.1,3-0.4c0.8-0.6,1.3-0.6,2.2,0c0.9,0.6-0.1,0.9,1.6,1.1
	c1.7,0.2,1.5,0.7,2.8,0.1c1.3-0.6,2.9-1.2,2.9-1.2s0.9,1.8,0.9-0.6c0-2.4,0-3.2,0-3.2L44.2,71.5z"></path><path class="st5" d="M38.7,56.5c0,0,1.7-0.2,3,0c1.3,0.2,1.7,0.5,2.5,0.8c0.8,0.3,2-0.6,2.5,0.5c0.5,1.1,0.1,5.1-0.2,5.7
	c-0.3,0.6-1,2.2-1.4,3.6s-0.4,3.2-0.5,3.5s0.4,1.4-0.5,0.8c-0.9-0.6-3.2-3.1-3.2-3.9c0-0.8-0.9-2.4-0.9-3.5
	c-0.1-1.1-0.6-2.2-0.6-2.9s-0.2-0.9-0.4-1.9C39,58.2,38.7,56.5,38.7,56.5z"></path><path class="st0" d="M73.3,73.5c-0.3-0.8-1.4-1.9-1.8-2.6c-0.4-0.7-0.9-1.1-1.6-1.3c-0.7-0.2-1.4-0.4-2.2,0
	c-0.8,0.4-1.9,1.3-2.2,1.3s-1.9-0.8-2.9-0.7c-0.9,0.1-3.1,1.5-3.1,1.5s-0.6,2.7,0,3.2c0.6,0.5,2.5,2.1,2.9,2.2
	c0.4,0,1.8-0.3,3.1,0.6s2.5,1.6,3.7,1.7c1.2,0.1,2.2,0.3,2.9-0.3c0.7-0.6,1.6-2.9,1.5-3.5S73.3,73.5,73.3,73.5z"></path><path class="st3" d="M54.2,82.5c0,0,1,1.3,2.6,1.7s3.2,0.5,3.1,1c-0.1,0.5-0.2,1.6-0.7,1.8c-0.5,0.2-0.1,1.2,0,1.3s2.1,0.8,3,0.6
	c0.9-0.1,2.5-0.9,2.5-0.9l0.8-1.3c0,0,0.2-0.1,0.9-0.4c0.8-0.3,1.6-0.5,1.6-1.4c0-0.9,0.2-2.1-0.5-2.9s-0.1-1.4-1.1-1.8
	s-2-0.1-3.1-0.3c-1.2-0.3-1.7-0.5-3.4-0.6c-1.8-0.1-2.9,0.1-2.9,0.1C55.9,80.2,54.2,82.5,54.2,82.5z"></path><path class="st2" d="M55.4,81c0,0,2.4,1.3,2.9,1.5c0.4,0.2,0,0.9,2.2,1.3c2.2,0.4,1.9-1.4,3.4-1.3c1.5,0,2.1,0.2,2.7-0.4
	s1-3,0.5-3.4c-0.5-0.4-2.5-1.9-3.2-1.9c-0.7-0.1-2.4-0.3-3-0.8c-0.6-0.5-2-1-2-1l-2.4,0c0,0-0.2,1.8-0.2,2.1c0,0.3,0,0.9-0.1,1.1
	S55.4,81,55.4,81z"></path><path class="st1" d="M56.4,72.6l3.2,2.3c0,0,0.7,1.5,0.4,2.2c-0.3,0.6-0.8,1.1-1,1.5s-1.5,1.9-2.6,2.9c-1.1,1-1.6,1.9-2.7,2.2
	c-1.1,0.3-1.8,0.6-2.4,0.3c-0.6-0.3-1.2-0.4-1.5-1.8c-0.3-1.4,0.4-2.4,0.5-3.3c0.1-0.9,0.8-3.8,1.1-4.3c0.3-0.4,0.8-0.9,0.8-0.9
	L56.4,72.6z"></path><path class="st6" d="M47.4,75.4c0,0-0.7,1-2.2-0.4c-1.6-1.4-3.2-1.7-2.4-2.8c0.8-1.1,1.2-3.6,0.9-4.3c-0.2-0.7-0.1-1.1,0-2.1
	c0.1-1-0.5-1.1,0.1-1.7c0.5-0.6,1.4-3.8,1.4-3.8s2.4-2.1,2.7-2c0.3,0.1,0.6-1.3,1.8-0.6c1.2,0.7,2.4,1.9,3.2,2.3
	c0.8,0.4,1.7,1.2,2,2.1c0.2,0.9,0.2,2,0.1,3.3c-0.2,1.3-1.3,3.6-1.7,4s-0.8,2.1-1.6,2.7c-0.8,0.6-0.6,0.7-1.9,1.5
	C48.4,74.5,47.4,75.4,47.4,75.4z"></path><path class="st7" d="M51.6,70.9c0,0-3.2-0.1-3.8,0.7c-0.6,0.8-1.3,3.3-1.3,3.3s-0.8,2.2-0.3,2.8c0.5,0.6,1.2,3.4,1.3,3.9
	c0.1,0.4,0.4,0.9,1.1,0.4c0.7-0.4,2.3-1.6,3.4-1.6c1-0.1,2.5-1.1,2.7-1.8c0.3-0.6,0.8-1.6,1.3-2.6c0.5-1.1,0-1.8-0.5-2.4
	s-1.1-1.9-1.2-2c-0.1-0.1-1.1-0.3-1.1-0.3L51.6,70.9z"></path><path class="st8" d="M53.2,65.7c0,0,1.4-3.2,1.7-3.7c0.3-0.5-0.1-3.2-0.6-3.1s-3.6,0-4.5,0.4c-0.9,0.4-2.5,0.6-3,1.5
	s-0.8,1.8-1.1,2.4s0.3,1.1-0.4,2c-0.7,0.9-1,0.8,0,2s1.5,1.2,2.2,1.5c0.6,0.3,2.2,0.4,2.4,0.4c0.2,0,0.4,0,0.7,0
	c0.3,0,0.7,0.6,1.5,0C52.7,68.5,53.2,65.7,53.2,65.7z"></path><path class="st9" d="M58.8,64.7c0,0,0.7-0.9,1.1-1.8c0.4-0.9,0.7-1.9,0.1-2.6c-0.6-0.6-0.1-1.6-1.2-1.1c-1.1,0.6-1.3,0.9-2.2,1.4
	S54.7,61,54.9,62c0.2,1,0.5,1.2,0.6,1.6c0,0.4-0.2,0.8,0.4,1s1.8,0.3,1.8,0.3L58.8,64.7z"></path><path class="st10" d="M51.9,69c0,0,0.2-2.7,0-3.3c-0.2-0.6,0.4-1.1,1.3-1.6C54,63.6,56.6,63,57,63c0.4,0.1,2.9,0.8,2.9,1.6
	c0.1,0.8,0,1.9,0.1,2.8s1.7,1.2-0.7,2.3c-2.4,1.1-4.4,1.4-5,2c-0.6,0.5-0.3,0.5-1.4,0.5c-1.2,0-1.2,0-1.2,0s-1.7-0.9-1.8-1.2
	s0-1.9,0-1.9H51.9z"></path><path class="st11" d="M49.4,66.8c0,0,0.9,1.3,1.3,0.8s0.5-2.3,0.5-2.3s1.3,1.5,1.4,1.9c0.2,0.4-1.3,1.6-0.7,1.9
	c0.6,0.3,1.4,0.4,0.7,0.6c-0.7,0.2-1.5,0-1.5,0C50.4,69,49.4,66.8,49.4,66.8z"></path><path class="st12" d="M78.2,67.8c-1.1-2.4-4-6.4-6-9.2"></path><path class="st12" d="M83.3,61.8c-3.8,0.1-9.2-1-12.6-3.3"></path><path class="st12" d="M81.7,55c-2.9,3.4-5.1,6.7-9.2,4.2"></path><path class="st12" d="M63.8,54.4c-5.2-1.3-10.6-3.7-13.6-6.6"></path><path class="st12" d="M57.1,60.7c-1.8-5.3-6.5-12.5-7.4-14"></path><path class="st12" d="M59.8,48.1c-2.6,2.3-3.7,4.5-8.8,0.7"></path><path class="st13" d="M75,74.8c-1.2-1.8-2.3-1.8-0.6-6.7l1.8-4.9c0,0,1,0.5,2.1,1c1.1,0.5,5.6,2,5.6,5.9c0,3.9-0.5,6.3-0.7,7
	c-0.3,0.7-0.6,3.4-0.8,4"></path><path class="st13" d="M98.3,65.9c-2.8,0-5.3,3.6-9,2.9c-3.8-0.8-7.6-5.1-8.9-6.2c-1.3-1.1-2.2,0,0.5-1.2c2.7-1.2,2.4-2.2,5.1-2.7
	c2.6-0.5,7.4,1.7,8.2,3C95.1,63,98.3,65.9,98.3,65.9"></path><path class="st14" d="M78.4,58.8c0.7-0.3,1.8-0.1,5.2-1.5c3.4-1.4,6-3,5.4-5.8c-0.5-2.9-1.6-3-0.9-5.4l0.7-2.4c0,0-3,1.2-7,3.1
	c-4.1,1.9-4.2,6.9-3.9,8.8C78.2,57.6,78.4,58.8,78.4,58.8"></path><path class="st15" d="M76.6,59.6c0,0-2.3-1.1-5.6,0.3c-3.2,1.4-7.5,1.3-8.9-2.1c-1.5-3.4-3.4-4.8-3.4-4.8s0.1,0.5,2.9-0.9
	c2.7-1.4,7.5-1.2,9.9,1.1C73.7,55.5,76.6,59.6,76.6,59.6"></path><path class="st16" d="M59,72.4c0,0,2.4-6,2.4-9.3c0.1-3.4-0.3-5.2-2.8-6.5c-2.5-1.3-3.8-2.6-3.8-2.6s-0.8,4.5-2,6
	c-1.2,1.5-1.6,5.1-0.1,6.4C54.2,67.6,59,72.4,59,72.4"></path><path class="st17" d="M57.2,50.3c0,0.1,3,0,6.1-0.9c3.1-0.9,4.7-1.6,5.2-3.6c0.5-2,0.6-3.9,0.7-6c0.1-2.1-0.1-2.8,0.5-3.3
	c0.6-0.5-0.6,1-4.2,1.6c-3.6,0.6-5.6,0.4-6.5,2c-0.9,1.7,0,3.6-0.4,5.7C58.2,47.9,57.2,50.3,57.2,50.3"></path><path class="st12" d="M34.8,84.6c2.1-1.7,5.2-5.4,7.5-8.1"></path><path class="st12" d="M41.8,88.1c-1-3.7-1.3-9.2,0.1-13.1"></path><path class="st12" d="M48.1,84.8c-4-2-7.8-3.3-6.3-7.9"></path><path class="st12" d="M44.3,67.4c0-5.4,1-11.2,3.1-14.8"></path><path class="st12" d="M36.5,62.4c4.7-3,10.5-9.4,11.7-10.6"></path><path class="st12" d="M49.4,61.9c-2.8-2-5.2-2.5-2.9-8.4"></path><path class="st13" d="M27.1,83.2c1.5-1.6,1.2-2.7,6.3-2.2l5.2,0.5c0,0-0.2,1.1-0.4,2.3c-0.2,1.2-0.5,5.9-4.4,6.8c-3.8,1-6.2,1.1-7,1
	c-0.8-0.1-3.4,0.2-4.1,0.2"></path><path class="st18" d="M41.5,103.6c-0.7-2.7-4.8-4.2-5-8.1c-0.2-3.8,3-8.6,3.8-10.1c0.8-1.6-0.5-2.2,1.3,0.2c1.9,2.3,2.7,1.8,3.8,4.2
	c1.1,2.4,0.2,7.6-0.9,8.7C43.5,99.8,41.5,103.6,41.5,103.6"></path><path class="st14" d="M43.6,82.6c0.5,0.6,0.5,1.7,2.7,4.7c2.2,3,4.3,5.1,7,3.8c2.6-1.2,2.5-2.3,5-2.2l2.5,0.1c0,0-1.9-2.6-4.7-6.1
	c-2.8-3.5-7.7-2.4-9.5-1.6C44.7,82.1,43.6,82.6,43.6,82.6"></path><path class="st15" d="M42.3,81c0,0,0.5-2.5-1.7-5.3c-2.1-2.8-3.1-6.9-0.2-9.2c3-2.3,3.8-4.5,3.8-4.5s-0.5,0.3,1.6,2.5
	c2.1,2.3,3,7,1.4,9.8C45.6,77.2,42.3,81,42.3,81"></path><path class="st16" d="M25.6,67.1c0,0,6.4,0.8,9.7,0c3.3-0.8,5-1.6,5.6-4.4c0.6-2.8,1.6-4.4,1.6-4.4s-4.6,0.3-6.3-0.5
	c-1.7-0.8-5.3-0.4-6.2,1.5C29,61.3,25.6,67.1,25.6,67.1"></path><path class="st17" d="M46.6,59.9c0,0,0.7,2.9,2.4,5.7c1.7,2.8,2.7,4.2,4.8,4.2c2.1,0,3.9-0.3,6-0.8c2-0.4,2.7-0.8,3.3-0.3
	c0.6,0.5-1.1-0.3-2.6-3.7c-1.5-3.4-1.7-5.3-3.6-5.8c-1.8-0.5-3.5,0.9-5.6,1C49.2,60.3,46.6,59.9,46.6,59.9"></path><path class="st12" d="M23.8,39.7c1.8,2,5.7,4.9,8.5,7"></path><path class="st12" d="M20.6,46.9c3.6-1.2,9.1-1.7,13.1-0.6"></path><path class="st12" d="M24.2,53c1.8-4.1,2.9-7.9,7.6-6.7"></path><path class="st12" d="M41.4,48.3c5.4-0.3,11.3,0.4,14.9,2.3"></path><path class="st12" d="M46,40.3c3.2,4.5,9.9,10,11.2,11.2"></path><path class="st12" d="M47.1,53.1c1.8-2.9,2.2-5.3,8.2-3.3"></path><path class="st13" d="M24.7,32c1.6,1.4,2.7,1,2.5,6.2L27,43.3c0,0-1.1-0.2-2.3-0.3c-1.2-0.2-5.9-0.3-7.1-4c-1.1-3.8-1.4-6.2-1.3-6.9
	c0-0.8-0.4-3.4-0.4-4.1"></path><path class="st13" d="M5,47.4c2.7-0.9,4-5,7.8-5.4c3.8-0.4,8.7,2.6,10.3,3.3c1.6,0.7,2.1-0.6-0.1,1.3c-2.2,2-1.7,2.8-4,4
	c-2.4,1.2-7.6,0.6-8.8-0.5C9,49.2,5,47.4,5,47.4"></path><path class="st14" d="M26.2,48.3c-0.6,0.5-1.7,0.6-4.5,3c-2.9,2.4-4.8,4.6-3.5,7.2c1.4,2.6,2.4,2.4,2.4,4.9l0,2.5c0,0,2.5-2,5.8-5
	c3.3-3,2-7.8,1.2-9.6C26.7,49.4,26.2,48.3,26.2,48.3"></path><path class="st15" d="M27.7,47c0,0,2.5,0.3,5.2-1.9c2.7-2.3,6.8-3.5,9.2-0.6c2.4,2.8,4.7,3.6,4.7,3.6s-0.3-0.5-2.5,1.7
	c-2.2,2.2-6.9,3.4-9.8,1.9C31.6,50.1,27.7,47,27.7,47"></path><path class="st16" d="M40.7,29.7c0,0-0.5,6.4,0.4,9.6c0.9,3.2,1.8,4.9,4.6,5.4c2.8,0.5,4.4,1.4,4.4,1.4s-0.5-4.6,0.2-6.3
	c0.7-1.8,0.1-5.3-1.8-6.2C46.7,32.8,40.7,29.7,40.7,29.7"></path><path class="st17" d="M48.9,50.2c0,0-2.8,0.9-5.5,2.7c-2.7,1.8-4,2.9-3.9,5c0.1,2.1,0.5,3.9,1.1,5.9c0.5,2,0.9,2.7,0.5,3.3
	c-0.5,0.6,0.3-1.1,3.6-2.7c3.3-1.6,5.2-2,5.6-3.9c0.4-1.8-1.1-3.4-1.3-5.5C48.7,52.8,48.9,50.2,48.9,50.2"></path><path class="st12" d="M69.5,26.6c-2.2,1.5-5.8,4.9-8.3,7.3"></path><path class="st12" d="M62.9,22.4c0.6,3.7,0.3,9.3-1.5,13"></path><path class="st12" d="M56.3,25c3.7,2.4,7.4,4.1,5.4,8.5"></path><path class="st12" d="M58.3,42.7c-0.6,5.3-2.2,11-4.6,14.4"></path><path class="st12" d="M65.5,48.4c-5,2.5-11.4,8.2-12.8,9.3"></path><path class="st12" d="M52.6,47.6c2.6,2.3,4.9,3,2,8.6"></path><path class="st13" d="M77,28.8c-1.6,1.4-1.4,2.6-6.5,1.5l-5.1-1.1c0,0,0.3-1,0.7-2.2c0.4-1.2,1.2-5.8,5.1-6.3
	c3.9-0.5,6.3-0.4,7.1-0.3c0.8,0.2,3.4,0.2,4.1,0.2"></path><path class="st18" d="M64.8,6.9c0.4,2.8,4.4,4.7,4.1,8.5c-0.2,3.8-3.9,8.2-4.9,9.7c-0.9,1.5,0.3,2.2-1.3-0.3
	c-1.6-2.5-2.5-2.1-3.4-4.6c-0.8-2.5,0.6-7.6,1.8-8.6C62.5,10.6,64.8,6.9,64.8,6.9"></path><path class="st13" d="M60.6,27.6c-0.4-0.7-0.3-1.7-2.2-4.9c-1.9-3.2-3.8-5.5-6.5-4.6c-2.8,0.9-2.8,2-5.2,1.6l-2.4-0.4
	c0,0,1.6,2.8,4,6.5c2.4,3.7,7.4,3.2,9.3,2.6C59.5,28,60.6,27.6,60.6,27.6"></path><path class="st15" d="M61.7,29.3c0,0-0.7,2.5,1.1,5.5c1.8,3,2.4,7.2-0.8,9.2c-3.2,1.9-4.3,4.1-4.3,4.1s0.5-0.2-1.3-2.7
	c-1.8-2.5-2.3-7.3-0.3-9.9C58,32.7,61.7,29.3,61.7,29.3"></path><path class="st16" d="M76.8,44.9c0,0-6.2-1.5-9.6-1.1c-3.3,0.4-5.1,1.1-6,3.7c-0.9,2.7-2.1,4.2-2.1,4.2s4.6,0.2,6.2,1.2
	c1.6,1,5.3,0.9,6.4-0.8C72.8,50.3,76.8,44.9,76.8,44.9"></path><path class="st17" d="M55.2,49.8c0,0-0.4-2.9-1.8-5.9c-1.4-3-2.3-4.4-4.3-4.7c-2-0.2-3.9-0.1-6,0.1c-2.1,0.2-2.8,0.5-3.3,0
	c-0.5-0.5,1,0.5,2.2,4c1.1,3.5,1.2,5.5,2.9,6.1c1.8,0.7,3.6-0.5,5.7-0.4C52.7,49.2,55.2,49.8,55.2,49.8"></path><path class="st19" d="M57.3,64c-1.1-2.4-4-6.4-6-9.2"></path><path class="st19" d="M62.4,58c-3.8,0.1-9.2-1-12.6-3.3"></path><path class="st19" d="M60.8,51.2c-2.9,3.4-5.1,6.7-9.2,4.2"></path><path class="st19" d="M42.9,50.6c-5.2-1.3-10.6-3.7-13.6-6.6"></path><path class="st19" d="M36.2,56.9c-1.8-5.3-6.5-12.5-7.4-14"></path><path class="st19" d="M38.9,44.3c-2.6,2.3-3.7,4.5-8.8,0.7"></path><path class="st19" d="M54.1,71.1c-1.2-1.8-2.3-1.8-0.6-6.7l1.8-4.9c0,0,1,0.5,2.1,1c1.1,0.5,5.6,2,5.6,5.9c0,3.9-0.5,6.3-0.7,7
	c-0.3,0.7-0.6,3.4-0.8,4"></path><path class="st19" d="M77.4,62.1c-2.8,0-5.3,3.6-9,2.9c-3.8-0.8-7.6-5.1-8.9-6.2c-1.3-1.1-2.2,0,0.5-1.2c2.7-1.2,2.4-2.2,5.1-2.7
	c2.6-0.5,7.4,1.7,8.2,3C74.1,59.3,77.4,62.1,77.4,62.1"></path><path class="st19" d="M57.5,55c0.7-0.3,1.8-0.1,5.2-1.5c3.4-1.4,6-3,5.4-5.8c-0.5-2.9-1.6-3-0.9-5.4l0.7-2.4c0,0-3,1.2-7,3.1
	c-4.1,1.9-4.2,6.9-3.9,8.8C57.3,53.8,57.5,55,57.5,55"></path><path class="st19" d="M55.7,55.8c0,0-2.3-1.1-5.6,0.3c-3.2,1.4-7.5,1.3-8.9-2.1c-1.5-3.4-3.4-4.8-3.4-4.8s0.1,0.5,2.9-0.9
	s7.5-1.2,9.9,1.1C52.8,51.7,55.7,55.8,55.7,55.8"></path><path class="st19" d="M38.1,68.6c0,0,2.4-6,2.4-9.3c0.1-3.4-0.3-5.2-2.8-6.5c-2.5-1.3-3.8-2.6-3.8-2.6s-0.8,4.5-2,6
	c-1.2,1.5-1.6,5.1-0.1,6.4C33.3,63.9,38.1,68.6,38.1,68.6"></path><path class="st19" d="M36.3,46.5c0,0.1,3,0,6.1-0.9c3.1-0.9,4.7-1.6,5.2-3.6c0.5-2,0.6-3.9,0.7-6c0.1-2.1-0.1-2.8,0.5-3.3
	c0.6-0.5-0.6,1-4.2,1.6c-3.6,0.6-5.6,0.4-6.5,2c-0.9,1.7,0,3.6-0.4,5.7C37.3,44.1,36.3,46.5,36.3,46.5"></path><path class="st12" d="M82.4,44.3c-2.6-0.7-7.5-1-10.9-1.2"></path><path class="st12" d="M81.1,36.6c-2.3,3-6.6,6.5-10.6,7.7"></path><path class="st12" d="M74.7,33.5c0.8,4.4,2,8.2-2.6,9.7"></path><path class="st12" d="M63,46.8c-4.3,3.2-9.6,5.8-13.7,6.3"></path><path class="st12" d="M63.6,56.1c-5.2-2-13.8-2.9-15.5-3.2"></path><path class="st12" d="M55.5,46c0.1,3.4,1.1,5.7-5,7.3"></path><path class="st13" d="M85.8,51.3c-2.1-0.3-2.9,0.7-5.5-3.8L77.7,43c0,0,1-0.5,2.1-1c1.1-0.5,5.1-3,8.1-0.5c3,2.5,4.6,4.4,4.9,5
	c0.4,0.7,2.2,2.6,2.6,3.2"></path><path class="st13" d="M93.8,27.6c-1.8,2.2-0.5,6.4-3.5,8.8c-3,2.4-8.7,2.6-10.4,2.9c-1.7,0.3-1.4,1.7-0.7-1.2
	c0.8-2.9-0.2-3.3,1.1-5.6c1.3-2.3,6-4.7,7.6-4.5C89.5,28.3,93.8,27.6,93.8,27.6"></path><path class="st14" d="M75.6,38.4c0.2-0.7,1.1-1.4,2.1-5c1.1-3.6,1.5-6.5-1-7.9c-2.6-1.4-3.4-0.7-4.7-2.7l-1.4-2.1c0,0-1,3.1-2.1,7.4
	c-1.1,4.3,2.6,7.6,4.3,8.6C74.6,37.8,75.6,38.4,75.6,38.4"></path><path class="st15" d="M75.1,40.4c0,0-2.3,1.1-3.3,4.5c-1,3.4-3.7,6.6-7.3,5.6c-3.6-1-5.9-0.4-5.9-0.4s0.5,0.2,1.1-2.8
	c0.6-3,3.8-6.6,7.1-7C70.1,39.9,75.1,40.4,75.1,40.4"></path><path class="st16" d="M73.8,62c0,0-3.1-5.6-5.7-7.8c-2.6-2.2-4.2-3.1-6.8-1.9c-2.6,1.1-4.5,1.3-4.5,1.3s3,3.5,3.3,5.4
	c0.4,1.9,2.9,4.5,4.9,4.1C67.1,62.7,73.8,62,73.8,62"></path><path class="st17" d="M55.6,49.4c0.1,0,1.9-2.3,3.2-5.3c1.3-3,1.7-4.7,0.5-6.3c-1.2-1.7-2.6-3-4.1-4.3c-1.6-1.4-2.3-1.7-2.2-2.5
	c0-0.8,0.4,1.1-1.5,4.3c-1.8,3.2-3.2,4.5-2.5,6.3c0.7,1.7,2.8,2.3,4.1,3.9C54.4,47.1,55.6,49.4,55.6,49.4"></path><path class="st12" d="M67.8,88.5c0-2.7-0.9-7.5-1.5-10.9"></path><path class="st12" d="M75,85.3c-3.5-1.5-7.9-4.9-10-8.4"></path><path class="st12" d="M76.4,78.4c-4.1,1.8-7.5,3.9-10.1-0.2"></path><path class="st12" d="M60.6,70.2c-4.1-3.4-8-7.9-9.5-11.8"></path><path class="st12" d="M51.8,73.1c0.7-5.5-0.6-14-0.7-15.8"></path><path class="st12" d="M59.6,62.8c-3.3,0.9-5.2,2.5-8.3-3.1"></path><path class="st13" d="M61.9,93.5c-0.3-2.1-1.3-2.6,2.3-6.3l3.7-3.7c0,0,0.7,0.8,1.5,1.8c0.8,1,4.2,4.2,2.5,7.7
	c-1.7,3.6-3.1,5.5-3.7,6c-0.6,0.5-2,2.8-2.4,3.3"></path><path class="st18" d="M86.8,95.4c-2.6-1.2-6.3,1-9.4-1.3c-3.1-2.3-4.7-7.8-5.4-9.4c-0.7-1.6-2-1,1-0.9c3,0,3.2-1,5.7-0.3
	c2.6,0.7,6,4.6,6.2,6.2C85.1,91.4,86.8,95.4,86.8,95.4"></path><path class="st14" d="M71.8,80.4c0.8,0,1.6,0.7,5.3,0.9c3.7,0.2,6.7-0.1,7.4-3c0.7-2.8-0.2-3.4,1.5-5.2l1.7-1.8c0,0-3.2-0.2-7.7-0.2
	c-4.5,0-6.7,4.4-7.3,6.3C72.2,79.3,71.8,80.4,71.8,80.4"></path><path class="st15" d="M69.8,80.4c0,0-1.7-2-5.2-2.1c-3.5-0.1-7.3-2-7.2-5.7c0.1-3.7-1-5.8-1-5.8s-0.1,0.5,3,0.4
	c3.1-0.1,7.4,2.1,8.5,5.2C69,75.5,69.8,80.4,69.8,80.4"></path><path class="st16" d="M48.5,84.5c0,0,4.7-4.4,6.2-7.4c1.5-3,1.9-4.8,0.2-7.1c-1.7-2.2-2.3-4-2.3-4s-2.7,3.7-4.4,4.6
	c-1.7,0.8-3.7,3.9-2.8,5.8S48.5,84.5,48.5,84.5"></path><path class="st17" d="M56.3,63.7c0,0.1,2.7,1.3,5.9,1.8c3.2,0.5,5,0.5,6.3-1c1.3-1.6,2.2-3.2,3.2-5.1c1-1.8,1.1-2.6,1.8-2.8
	c0.7-0.2-1,0.6-4.5-0.4c-3.5-1-5.2-2-6.7-0.9c-1.5,1.1-1.5,3.3-2.8,4.9C58.2,62,56.3,63.7,56.3,63.7"></path><path class="st12" d="M26.2,68.5c2.7-0.1,7.4-1.3,10.8-2"></path><path class="st12" d="M29.7,75.5c1.4-3.6,4.5-8.1,7.9-10.4"></path><path class="st12" d="M36.7,76.6c-2-4-4.3-7.3-0.3-10.1"></path><path class="st12" d="M44,60.3c3.2-4.3,7.5-8.4,11.3-10"></path><path class="st12" d="M40.7,51.7c5.5,0.4,14-1.3,15.7-1.5"></path><path class="st12" d="M51.4,59c-1.1-3.3-2.7-5.1,2.7-8.4"></path><path class="st13" d="M20.8,62.8c2.1-0.4,2.5-1.5,6.4,2l3.8,3.5c0,0-0.8,0.7-1.7,1.6c-0.9,0.8-3.9,4.4-7.6,2.9
	c-3.6-1.5-5.6-2.8-6.2-3.4c-0.6-0.5-2.9-1.9-3.4-2.3"></path><path class="st13" d="M20.2,87.8c1-2.6-1.4-6.3,0.8-9.5c2.1-3.2,7.6-5.1,9.1-5.8c1.6-0.8,0.9-2,1,0.9c0.1,3,1.1,3.1,0.5,5.7
	c-0.6,2.6-4.3,6.2-5.9,6.5C24.1,85.9,20.2,87.8,20.2,87.8"></path><path class="st14" d="M34.4,72.1c0,0.8-0.6,1.6-0.6,5.4c0,3.7,0.5,6.7,3.3,7.3c2.9,0.6,3.4-0.3,5.3,1.2l1.9,1.6c0,0,0-3.2-0.2-7.7
	c-0.2-4.5-4.8-6.5-6.7-7C35.6,72.4,34.4,72.1,34.4,72.1"></path><path class="st15" d="M34.3,70.1c0,0,1.9-1.8,1.8-5.3c0-3.5,1.6-7.4,5.3-7.5c3.7-0.1,5.8-1.3,5.8-1.3S46.7,56,47,59
	c0.3,3.1-1.7,7.5-4.8,8.7C39.2,69,34.3,70.1,34.3,70.1"></path><path class="st16" d="M29.2,49c0,0,4.6,4.5,7.7,5.8c3.1,1.3,4.9,1.7,7.1-0.2c2.2-1.8,3.9-2.5,3.9-2.5S44,49.6,43.1,48
	c-0.9-1.7-4.1-3.5-5.9-2.5C35.4,46.4,29.2,49,29.2,49"></path><path class="st20" d="M50.3,55.7c-0.1,0-1.1,2.7-1.5,6c-0.3,3.2-0.3,5,1.4,6.2c1.6,1.2,3.3,2.1,5.2,2.9c1.9,0.9,2.7,1,2.8,1.7
	c0.2,0.7-0.7-0.9,0.1-4.5c0.8-3.6,1.8-5.3,0.6-6.8c-1.2-1.5-3.3-1.4-5.1-2.5C52.1,57.6,50.3,55.7,50.3,55.7"></path><path class="st12" d="M45.1,24.8c-0.3,2.7,0.1,7.5,0.3,11"></path><path class="st12" d="M37.6,27.3c3.3,1.9,7.3,5.7,9.1,9.4"></path><path class="st12" d="M35.5,34c4.2-1.4,7.8-3.1,10,1.2"></path><path class="st12" d="M50.4,43.7c3.8,3.8,7.1,8.7,8.2,12.7"></path><path class="st12" d="M59.4,41.8c-1.2,5.4-0.9,14-1,15.8"></path><path class="st12" d="M50.6,51.2c3.4-0.6,5.5-1.9,7.9,4"></path><path class="st13" d="M51.5,20.4c0,2.2,1.1,2.7-3,6l-4,3.2c0,0-0.6-0.9-1.3-1.9c-0.7-1-3.7-4.6-1.7-7.9c2.1-3.4,3.7-5.1,4.3-5.6
	c0.6-0.5,2.3-2.5,2.8-3"></path><path class="st18" d="M26.9,15.9c2.4,1.4,6.4-0.4,9.2,2.2c2.8,2.6,3.8,8.3,4.4,9.9c0.5,1.7,1.9,1.2-1.1,0.8
	c-2.9-0.4-3.2,0.6-5.7-0.3c-2.5-1-5.5-5.3-5.5-6.9C28.3,20.1,26.9,15.9,26.9,15.9"></path><path class="st13" d="M40.3,32.4c-0.8-0.1-1.5-0.8-5.2-1.4c-3.7-0.6-6.6-0.6-7.7,2.2c-1,2.7-0.2,3.4-2,5l-1.8,1.6c0,0,3.2,0.5,7.6,1
	c4.4,0.5,7.1-3.7,7.9-5.5C39.8,33.5,40.3,32.4,40.3,32.4"></path><path class="st15" d="M42.3,32.6c0,0,1.4,2.1,4.9,2.6c3.5,0.5,7.1,2.8,6.6,6.4c-0.5,3.7,0.4,5.9,0.4,5.9s0.1-0.5-2.9-0.7
	c-3.1-0.2-7.1-2.9-7.9-6.1C42.5,37.6,42.3,32.6,42.3,32.6"></path><path class="st16" d="M63.9,30.8c0,0-5.1,3.9-6.9,6.7c-1.8,2.9-2.4,4.6-0.9,7c1.5,2.4,1.9,4.2,1.9,4.2s3.1-3.4,4.8-4.1
	c1.8-0.6,4-3.5,3.4-5.4C65.5,37.4,63.9,30.8,63.9,30.8"></path><path class="st17" d="M54,50.6c0-0.1-2.5-1.5-5.7-2.4c-3.1-0.8-4.9-1-6.4,0.4c-1.5,1.4-2.6,3-3.7,4.7c-1.1,1.7-1.4,2.5-2.1,2.5
	c-0.8,0.1,1-0.5,4.4,0.8c3.4,1.4,5,2.6,6.6,1.6c1.6-0.9,1.9-3.1,3.3-4.6C51.8,52.2,54,50.6,54,50.6"></path><path class="st19" d="M66.2,58c-2.6-0.7-7.5-1-10.9-1.2"></path><path class="st19" d="M64.9,50.3c-2.3,3-6.6,6.5-10.6,7.7"></path><path class="st19" d="M58.5,47.2c0.8,4.4,2,8.2-2.6,9.7"></path><path class="st19" d="M46.7,60.6c-4.3,3.2-9.6,5.8-13.7,6.3"></path><path class="st19" d="M47.4,69.8c-5.2-2-13.8-2.9-15.5-3.2"></path><path class="st19" d="M39.3,59.7c0.1,3.4,1.1,5.7-5,7.3"></path><path class="st19" d="M69.6,65c-2.1-0.3-2.9,0.7-5.5-3.8l-2.6-4.4c0,0,1-0.5,2.1-1c1.1-0.5,5.1-3,8.1-0.5c3,2.5,4.6,4.4,4.9,5
	c0.4,0.7,2.2,2.6,2.6,3.2"></path><path class="st19" d="M77.6,41.3c-1.8,2.2-0.5,6.4-3.5,8.8c-3,2.4-8.7,2.6-10.4,2.9c-1.7,0.3-1.4,1.7-0.7-1.2
	c0.8-2.9-0.2-3.3,1.1-5.6c1.3-2.3,6-4.7,7.6-4.5C73.3,42,77.6,41.3,77.6,41.3"></path><path class="st19" d="M59.4,52.2c0.2-0.7,1.1-1.4,2.1-5c1.1-3.6,1.5-6.5-1-7.9c-2.6-1.4-3.4-0.7-4.7-2.7l-1.4-2.1c0,0-1,3.1-2.1,7.4
	c-1.1,4.3,2.6,7.6,4.3,8.6C58.4,51.6,59.4,52.2,59.4,52.2"></path><path class="st19" d="M58.9,54.1c0,0-2.3,1.1-3.3,4.5c-1,3.4-3.7,6.6-7.3,5.6c-3.6-1-5.9-0.4-5.9-0.4s0.5,0.2,1.1-2.8
	c0.6-3,3.8-6.6,7.1-7C53.9,53.7,58.9,54.1,58.9,54.1"></path><path class="st19" d="M57.6,75.7c0,0-3.1-5.6-5.7-7.8c-2.6-2.2-4.2-3.1-6.8-1.9c-2.6,1.1-4.5,1.3-4.5,1.3s3,3.5,3.3,5.4
	c0.4,1.9,2.9,4.5,4.9,4.1C50.9,76.4,57.6,75.7,57.6,75.7"></path><path class="st19" d="M39.4,63.1c0.1,0,1.9-2.3,3.2-5.3c1.3-3,1.7-4.7,0.5-6.3c-1.2-1.7-2.6-3-4.1-4.3c-1.6-1.4-2.3-1.7-2.2-2.5
	c0-0.8,0.4,1.1-1.5,4.3c-1.8,3.2-3.2,4.5-2.5,6.3c0.7,1.7,2.8,2.3,4.1,3.9C38.2,60.8,39.4,63.1,39.4,63.1"></path><path class="st0" d="M35.4,37.3c0,0-0.7,2.6-0.1,4c0.6,1.4-0.5,4.9,4.4,8.8s9.6,5.8,11.4,5.7c1.8-0.1,10.4-1.8,10.4-1.8l2.2-8.1
	c0,0-2.9-2.2-4.3-3.4c-1.4-1.2-1.6-2.8-3.5-3.4s-5.6-3.5-8.1-3.1c-2.5,0.4-4.3-0.4-6.7,0.5C38.8,37.3,35.4,37.3,35.4,37.3z"></path><path class="st1" d="M67.5,57.5c0,0,2.1,1.8,1.1,2.8c-1,1-0.9,1.5-1.8,2.3c-0.9,0.8-1.5,1.3-2.7,1.6c-1.2,0.3-2,0.4-3.3,0
	c-1.3-0.4-1.6-1.3-1.4-2.1c0.3-0.8,0.4-5.6,0.8-6.1c0.4-0.5,0.2-2.3,1.3-2.1c1.1,0.1,4.3,0.9,4.3,0.9L67.5,57.5z"></path><path class="st2" d="M65.2,42.5c0,0,3,0,4.1,0.6s1.5,0.6,1.7,1.9c0.2,1.3-0.1,1.2,0.5,2.1c0.6,0.9,1,1.4,0.4,2s-0.3,0.5-1.2,1.1
	c-0.9,0.6-2.4,1.3-3.2,0.7c-0.8-0.6-1.9-1.4-2.3-1.8s-1.1-1.5-1.1-1.5L65.2,42.5z"></path><path class="st1" d="M47.9,35.9c0-0.5-0.1-0.9,0-1.6c0.1-0.7-0.2-1.4-1.1-1.9c-0.9-0.5-2.1-1-3.2-1.2c-1.1-0.2-2.3,0-2.4,0
	s0,0.9,0.4,1.5c0.4,0.6,1.6,1.5,1.6,2.4c-0.1,0.9-0.3,1.5,0.2,1.8c0.4,0.3,1.7,0.6,1.7,0.6s0.4,0.5,1,0S47.9,35.9,47.9,35.9z"></path><path class="st1" d="M42.7,34c0,0-1-0.5-1.5,0.4c-0.6,1,0.1,1.3,0,2c-0.1,0.6,0.1,1,0,1.3s-0.4,1.5-0.8,1.8
	c-0.4,0.4-0.8,0.7-0.5,1.3c0.3,0.6,0,1.2,0.6,1.4c0.6,0.2,1.2,0.5,2.2,0c1-0.5,2-1.4,1.8-1.6c-0.2-0.2,0.4,0.3,0-0.7
	S42.7,34,42.7,34z"></path><path class="st2" d="M50.5,35.8c0.3-0.2,2.1-0.8,3-1.9s0.6-1.8,1.4-2.1c0.9-0.3,1.5,0.1,2.3,0c0.8-0.1,1.6-0.2,2.6-0.1
	c0.9,0.1,3.1,0.5,3.1,1s0.1,0.7-1.1,1.7c-1.1,1-2.9,2.6-2.9,3.3s0.1,1.4-0.2,2.7s0.7,1.6-1.3,2.1s-3.8,0.4-3.8,0.4l-2.8-1.4
	c0,0-0.6-0.9-0.9-1.8S50.5,35.8,50.5,35.8z"></path><path class="st1" d="M57.1,43.9c0,0,1.3-2.4,1.8-3.5c0.4-1.1-0.1-1.9,2-2.2s2.4-1,3.1,0c0.7,1,1.4,1.6,1.7,1.8
	c0.3,0.3-0.4,0.3,0,0.8c0.4,0.5,0.5,0.4,0.9,0.6c0.4,0.2,0.6,0.5,0.3,1.1s0.2,1.3,0.2,2.3c0,1,0.8,1.4-1,1.6s-3-0.4-3.7,0
	c-0.7,0.4-1.6,0.4-3.3,0.6c-1.7,0.2-3.2,0-3.2,0C55.9,46.3,57.1,43.9,57.1,43.9z"></path><path class="st3" d="M68.6,51.8c0,0,2.3,3.4,2,4.4c-0.3,1-0.7,3.1-1.7,3.1c-1,0-3.4-1.3-3.9-1.8c-0.5-0.4-2.3-2.4-2.1-2.8
	c0.1-0.3,1.2-1.7,1.2-1.7C66.4,52.2,68.6,51.8,68.6,51.8z"></path><path class="st2" d="M47.9,59.4c0,0-2,2.3-3.4,3.1c-1.3,0.8-3.9,2.5-4.8,2.8c-0.8,0.3-1.5,0-2.1,0s-0.8-0.5-0.9-0.8
	c-0.2-0.3,0.3-4.8,0-5.3s-1.3-1.2-0.6-2.6c0.7-1.4,1-3.1,2.6-3.6c1.6-0.6,1.8-1.1,2.9-1.2c1.1-0.1,4.4-0.8,5.2-0.6
	c0.8,0.2,2.1,2.6,2.3,2.8c0.1,0.1,0.1,0.2,0,1C49,55.7,47.9,59.4,47.9,59.4z"></path><path class="st0" d="M41.6,32.7c0,0-1-1.4-1.8-1.9c-0.8-0.6-1.9-0.5-1.9-0.5s0.2,0.9,0,1.7s-0.5,2.6,0.4,2.9c0.9,0.3,1.4,0.4,2.1,0
	c0.7-0.4,2.2-0.8,2.2-0.8L41.6,32.7z"></path><path class="st2" d="M35,34.4c-0.3,0.4-0.8,1.4-1,1.5c-0.3,0.1-1.7-0.6-2.3-0.4s-1.4,0.4-1.7,0.4c-0.3,0.1-1.2-1-0.9,0
	c0.3,1,1.4,1.4,2.3,1.8c0.9,0.4,1.7,1.5,1.9,2c0.2,0.4,0.3,0.4,0.6,0.8s1.2,0.8,1.4,0.9s2.4,0.8,2.8,0.6c0.4-0.1,1.3-2.2,1.2-2.6
	c-0.1-0.4,0-1.4-0.5-2.1s-0.7-1.5-1.1-1.6S35,34.4,35,34.4z"></path><path class="st1" d="M33.2,40.6c-0.4-0.1-1.2-0.3-1.6,0.4c-0.4,0.7-0.5,3.1,0,3.5c0.5,0.4,1.2,0.4,1.6,0.3c0.4-0.1,1.4-0.2,1.9-0.6
	c0.6-0.4,0.8-0.3,0.8-0.7c0.1-0.4,0.3-0.4,0-0.9c-0.3-0.4-0.6-1.4-0.6-1.4L33.2,40.6z"></path><path class="st0" d="M40.2,47.6c0,0-1.6-2.6-2.5-3.4c-0.9-0.8-1.6-1.1-2.7-0.8c-1.1,0.3-2.1,1.1-2.4,2.1s-1.1,2.6-2,3.2
	c-0.9,0.6-2.1-1-1.9,0.9c0.1,1.9-1,2.6,0.4,2.5c1.4-0.1,2.3,0.1,3-0.4c0.8-0.6,1.3-0.6,2.2,0s-0.1,0.9,1.6,1.1
	c1.7,0.2,1.5,0.7,2.8,0.1c1.3-0.6,2.9-1.2,2.9-1.2s0.9,1.8,0.9-0.6s0-3.2,0-3.2L40.2,47.6z"></path><path class="st3" d="M34.7,32.7c0,0,1.7-0.2,3,0c1.3,0.2,1.7,0.5,2.5,0.8c0.8,0.3,2-0.6,2.5,0.5c0.5,1.1,0.1,5.1-0.2,5.7
	c-0.3,0.6-1,2.2-1.4,3.6c-0.4,1.4-0.4,3.2-0.5,3.5c-0.1,0.2,0.4,1.4-0.5,0.8C39.3,47,37,44.5,37,43.7c0-0.8-0.9-2.4-0.9-3.5
	s-0.6-2.2-0.6-2.9s-0.2-0.9-0.4-1.9C35,34.4,34.7,32.7,34.7,32.7z"></path><path class="st0" d="M69.3,49.7c-0.3-0.8-1.4-1.9-1.8-2.6c-0.4-0.7-0.9-1.1-1.6-1.3c-0.7-0.2-1.4-0.4-2.2,0s-1.9,1.3-2.2,1.3
	c-0.2,0-1.9-0.8-2.9-0.7s-3.1,1.5-3.1,1.5s-0.6,2.7,0,3.2c0.6,0.5,2.5,2.1,2.9,2.2s1.8-0.3,3.1,0.6c1.4,0.9,2.5,1.6,3.7,1.7
	c1.2,0.1,2.2,0.3,2.9-0.3c0.7-0.6,1.6-2.9,1.5-3.5C69.6,51.2,69.3,49.7,69.3,49.7z"></path><path class="st3" d="M50.2,58.6c0,0,1,1.3,2.6,1.7c1.6,0.4,3.2,0.5,3.1,1c-0.1,0.5-0.2,1.6-0.7,1.8c-0.5,0.2-0.1,1.2,0,1.3
	s2.1,0.8,3,0.6s2.5-0.9,2.5-0.9l0.8-1.3c0,0,0.2-0.1,0.9-0.4c0.8-0.3,1.6-0.5,1.6-1.4c0-0.9,0.2-2.1-0.5-2.9
	c-0.6-0.8-0.1-1.4-1.1-1.8s-2-0.1-3.1-0.3c-1.2-0.3-1.7-0.5-3.4-0.6c-1.8-0.1-2.9,0.1-2.9,0.1C51.9,56.4,50.2,58.6,50.2,58.6z"></path><path class="st2" d="M51.4,57.1c0,0,2.4,1.3,2.9,1.5c0.4,0.2,0,0.9,2.2,1.3c2.2,0.4,1.9-1.4,3.4-1.3c1.5,0,2.1,0.2,2.7-0.4
	c0.5-0.6,1-3,0.5-3.4c-0.5-0.4-2.5-1.9-3.2-1.9c-0.7-0.1-2.4-0.3-3-0.8s-2-1-2-1l-2.4,0c0,0-0.2,1.8-0.2,2.1s0,0.9-0.1,1.1
	S51.4,57.1,51.4,57.1z"></path><path class="st1" d="M52.4,48.8l3.2,2.3c0,0,0.7,1.5,0.4,2.2s-0.8,1.1-1,1.5s-1.5,1.9-2.6,2.9c-1.1,1-1.6,1.9-2.7,2.2
	c-1.1,0.3-1.8,0.6-2.4,0.3c-0.6-0.3-1.2-0.4-1.5-1.8c-0.3-1.4,0.4-2.4,0.5-3.3c0.1-0.9,0.8-3.8,1.1-4.3c0.3-0.4,0.8-0.9,0.8-0.9
	L52.4,48.8z"></path><path class="st1" d="M43.4,51.5c0,0-0.7,1-2.2-0.4c-1.6-1.4-3.2-1.7-2.4-2.8c0.8-1.1,1.2-3.6,0.9-4.3c-0.2-0.7-0.1-1.1,0-2.1
	c0.1-1-0.5-1.1,0.1-1.7c0.5-0.6,1.4-3.8,1.4-3.8s2.4-2.1,2.7-2c0.3,0.1,0.6-1.3,1.8-0.6c1.2,0.7,2.4,1.9,3.2,2.3
	c0.8,0.4,1.7,1.2,2,2.1c0.2,0.9,0.2,2,0.1,3.3c-0.2,1.3-1.3,3.6-1.7,4s-0.8,2.1-1.6,2.7c-0.8,0.6-0.6,0.7-1.9,1.5
	S43.4,51.5,43.4,51.5z"></path><path class="st0" d="M47.6,47.1c0,0-3.2-0.1-3.8,0.7c-0.6,0.8-1.3,3.3-1.3,3.3s-0.8,2.2-0.3,2.8c0.5,0.6,1.2,3.4,1.3,3.9
	c0.1,0.4,0.4,0.9,1.1,0.4s2.3-1.6,3.4-1.6c1-0.1,2.5-1.1,2.7-1.8c0.3-0.6,0.8-1.6,1.3-2.6c0.5-1.1,0-1.8-0.5-2.4
	c-0.5-0.7-1.1-1.9-1.2-2c-0.1-0.1-1.1-0.3-1.1-0.3L47.6,47.1z"></path><path class="st0" d="M49.2,41.9c0,0,1.4-3.2,1.7-3.7c0.3-0.5-0.1-3.2-0.6-3.1c-0.6,0.1-3.6,0-4.5,0.4c-0.9,0.4-2.5,0.6-3,1.5
	c-0.5,0.9-0.8,1.8-1.1,2.4c-0.3,0.6,0.3,1.1-0.4,2c-0.7,0.9-1,0.8,0,2s1.5,1.2,2.2,1.5s2.2,0.4,2.4,0.4c0.2,0,0.4,0,0.7,0
	c0.3,0,0.7,0.6,1.5,0C48.7,44.7,49.2,41.9,49.2,41.9z"></path><path class="st0" d="M54.8,40.8c0,0,0.7-0.9,1.1-1.8c0.4-0.9,0.7-1.9,0.1-2.6c-0.6-0.6-0.1-1.6-1.2-1.1c-1.1,0.6-1.3,0.9-2.2,1.4
	c-0.9,0.6-1.9,0.3-1.7,1.4c0.2,1,0.5,1.2,0.6,1.6c0,0.4-0.2,0.8,0.4,1c0.6,0.2,1.8,0.3,1.8,0.3L54.8,40.8z"></path><path class="st1" d="M47.9,45.2c0,0,0.2-2.7,0-3.3c-0.2-0.6,0.4-1.1,1.3-1.6c0.9-0.5,3.4-1.1,3.8-1.1s2.9,0.8,2.9,1.6
	c0.1,0.8,0,1.9,0.1,2.8c0.1,0.9,1.7,1.2-0.7,2.3c-2.4,1.1-4.4,1.4-5,2c-0.6,0.5-0.3,0.5-1.4,0.5s-1.2,0-1.2,0s-1.7-0.9-1.8-1.2
	s0-1.9,0-1.9H47.9z"></path><path class="st11" d="M45.4,42.9c0,0,0.9,1.3,1.3,0.8s0.5-2.3,0.5-2.3s1.3,1.5,1.4,1.9c0.2,0.4-1.3,1.6-0.7,1.9
	c0.6,0.3,1.4,0.4,0.7,0.6c-0.7,0.2-1.5,0-1.5,0C46.4,45.2,45.4,42.9,45.4,42.9z"></path><path class="st0" d="M20.1,83.5c0,0,1.8,1.6,3.1,1.8c1.3,0.1,3.6,2.5,8.8,0.3c5.2-2.2,8.6-5.1,9.3-6.6c0.7-1.5,3-9,3-9l-5.5-5.2
	c0,0-3,1.3-4.5,1.9s-2.9,0.1-4.2,1.4c-1.2,1.3-5.2,2.9-5.9,5c-0.7,2.1-2.1,3.2-2.5,5.5C21.6,80.8,20.1,83.5,20.1,83.5z"></path><path class="st1" d="M49.8,66.8c0,0,2.3-0.9,2.7,0.4s0.8,1.3,1.1,2.4c0.3,1.1,0.4,1.7,0.1,2.8c-0.3,1-0.6,1.7-1.4,2.6
	s-1.7,0.7-2.2,0.2c-0.5-0.5-4.2-2.7-4.4-3.2c-0.2-0.5-1.7-1.1-1.1-1.9c0.6-0.8,2.5-3,2.5-3L49.8,66.8z"></path><path class="st2" d="M37,62.2c0,0,1.3-2.4,2.2-3c0.9-0.6,1.1-0.9,2.2-0.5c1.1,0.4,0.9,0.6,1.9,0.5s1.5-0.2,1.8,0.6
	c0.2,0.8,0.3,0.5,0.3,1.4c0.1,0.9,0,2.4-0.8,2.8c-0.8,0.4-1.9,0.9-2.4,1.1c-0.5,0.2-1.6,0.2-1.6,0.2L37,62.2z"></path><path class="st1" d="M24.3,73.1c-0.4-0.2-0.8-0.3-1.3-0.7c-0.5-0.4-1.2-0.4-1.9,0c-0.8,0.5-1.7,1.2-2.3,2c-0.6,0.8-1,1.8-1,1.9
	c-0.1,0.1,0.7,0.4,1.3,0.3s1.9-0.6,2.5-0.2c0.7,0.4,1.1,0.8,1.5,0.6c0.4-0.2,1.2-1.1,1.2-1.1s0.6-0.1,0.4-0.8
	C24.7,74.5,24.3,73.1,24.3,73.1z"></path><path class="st1" d="M20.6,76.3c0,0-0.8,0.5-0.3,1.4c0.5,0.9,1.1,0.5,1.6,0.8c0.5,0.3,0.9,0.3,1.1,0.6c0.2,0.3,1,0.9,1.1,1.4
	c0.1,0.5,0.2,0.9,0.8,1c0.6,0.1,0.9,0.5,1.4,0.1s0.9-0.7,1-1.8c0-1-0.3-2.2-0.5-2.1c-0.2,0.1,0.4-0.2-0.5-0.3
	C25.2,77.3,20.6,76.3,20.6,76.3z"></path><path class="st2" d="M25.4,70.9c0-0.3,0.3-2-0.2-3.2s-1.2-1.2-1-2c0.2-0.8,0.7-1.2,1-1.8c0.3-0.6,0.5-1.4,1-2.1
	c0.5-0.7,1.7-2.3,2.2-2c0.4,0.2,0.6,0.3,0.9,1.6c0.3,1.3,0.8,3.4,1.4,3.7c0.6,0.3,1.2,0.5,2,1.3c0.9,0.8,1.6,0.1,1.1,2
	c-0.4,1.8-1.3,3.2-1.3,3.2L30.1,73c0,0-0.9,0.1-1.8-0.1S25.4,70.9,25.4,70.9z"></path><path class="st1" d="M34.6,69.2c0,0-1.3-2.1-2-2.9s-1.6-0.7-0.9-2.5c0.7-1.8,0.3-2.3,1.3-2.5c1-0.1,1.9-0.5,2.2-0.6s0.1,0.4,0.6,0.3
	s0.5-0.2,0.9-0.5s0.7-0.3,1,0.2c0.3,0.5,1.1,0.4,1.9,0.9s1.4,0,0.9,1.5c-0.6,1.5-1.6,2.2-1.6,2.9c0,0.7-0.4,1.4-0.9,2.8
	c-0.6,1.4-1.4,2.5-1.4,2.5C36,71.1,34.6,69.2,34.6,69.2z"></path><path class="st3" d="M45.8,63.4c0,0,3.7-0.4,4.4,0.3c0.7,0.7,2.2,1.9,1.8,2.7s-2.5,2.1-3,2.3s-2.9,0.7-3.1,0.5
	c-0.2-0.2-0.8-1.7-0.8-1.7C45.1,65.4,45.8,63.4,45.8,63.4z"></path><path class="st2" d="M42.9,83.1c0,0,1,2.6,1,4c0.1,1.4,0.3,4.2,0.1,4.9c-0.2,0.8-0.7,1.2-0.9,1.7S42.4,94,42.1,94
	c-0.3,0-3.7-2.3-4.2-2.2c-0.5,0.1-1.5,0.5-2.3-0.6s-2-2.1-1.8-3.6c0.2-1.5-0.1-1.9,0.3-2.8s1.2-3.9,1.7-4.4c0.5-0.5,3-0.6,3.1-0.6
	c0.2,0,0.2,0,0.8,0.4C40.5,80.6,42.9,83.1,42.9,83.1z"></path><path class="st0" d="M19.1,76.7c0,0-1.5,0.2-2.3,0.6c-0.8,0.4-1.2,1.2-1.2,1.2s0.8,0.3,1.3,0.7s1.9,1.5,2.5,0.9
	c0.6-0.6,0.9-1,0.9-1.7c0-0.7,0.3-2.1,0.3-2.1L19.1,76.7z"></path><path class="st2" d="M17.7,82.6c0.2,0.4,0.8,1.2,0.7,1.4c-0.1,0.2-1.2,1.1-1.3,1.6s-0.3,1.3-0.4,1.5c-0.1,0.2-1.3,0.5-0.4,0.7
	c0.9,0.2,1.7-0.5,2.4-1.1s1.9-0.7,2.3-0.7c0.4,0,0.5,0,0.8-0.1c0.4-0.1,1.2-0.6,1.3-0.8s1.6-1.6,1.7-1.9s-1.2-2-1.5-2
	c-0.4-0.1-1.1-0.6-1.8-0.5c-0.7,0.1-1.5,0-1.7,0.2C19.6,81.2,17.7,82.6,17.7,82.6z"></path><path class="st1" d="M21.8,86.7c-0.2,0.3-0.8,0.8-0.4,1.4s2.3,1.7,2.8,1.5c0.5-0.2,0.8-0.8,0.9-1.2c0.1-0.4,0.4-1.2,0.4-1.8
	c-0.1-0.6,0.1-0.7-0.2-0.9c-0.3-0.2-0.2-0.4-0.7-0.4c-0.5,0-1.3-0.1-1.3-0.1L21.8,86.7z"></path><path class="st0" d="M30.4,84.1c0,0-2.7,0.1-3.7,0.5c-1,0.4-1.6,0.8-1.8,1.8c-0.2,1,0,2.1,0.6,2.8c0.7,0.7,1.6,1.9,1.7,3
	s-1.7,1.2-0.1,1.9c1.6,0.7,1.6,1.9,2.2,0.7s1.1-1.7,0.9-2.6c-0.1-0.8,0.1-1.3,0.9-1.7s0.7,0.4,1.6-0.8s1.2-0.9,1.3-2.2
	c0.1-1.3,0.3-2.8,0.3-2.8s1.8,0.1-0.1-1c-1.9-1-2.6-1.4-2.6-1.4L30.4,84.1z"></path><path class="st3" d="M16.2,82.1c0,0,0.6-1.4,1.3-2.4c0.7-0.9,1.1-1.2,1.7-1.6s0.4-1.9,1.5-1.8c1.1,0.1,4.1,2.1,4.5,2.6
	c0.4,0.5,1.3,1.7,2.3,2.6c1,0.9,2.4,1.7,2.6,1.8c0.2,0.2,1.3,0.3,0.4,0.7s-3.8,1.2-4.5,0.9c-0.6-0.3-2.3-0.4-3.2-0.8
	c-0.9-0.4-2-0.5-2.6-0.8s-0.8-0.2-1.6-0.5C17.7,82.6,16.2,82.1,16.2,82.1z"></path><path class="st0" d="M44.4,62c-0.7-0.1-2.1,0.3-2.8,0.3s-1.3,0.2-1.7,0.7c-0.4,0.5-0.9,1-0.9,1.7c0,0.8,0.2,2.1,0.1,2.3
	c-0.1,0.2-1.4,1.2-1.8,2c-0.4,0.8-0.1,3.1-0.1,3.1s1.8,1.6,2.5,1.4c0.7-0.3,2.8-1.1,2.9-1.4c0.2-0.3,0.5-1.5,1.8-2.2
	c1.3-0.7,2.3-1.3,2.9-2.2s1.2-1.7,1-2.4c-0.2-0.8-1.6-2.5-2.1-2.7C45.7,62.4,44.4,62,44.4,62z"></path><path class="st3" d="M43.3,80.9c0,0,1.4-0.2,2.4-1.3c1-1,1.8-2.3,2.1-2c0.4,0.3,1.2,0.8,1.1,1.3c-0.1,0.5,0.9,0.6,1,0.6
	c0.1,0,1.5-1.3,1.8-2.1s0.4-2.4,0.4-2.4l-0.7-1.1c0,0,0-0.2,0.1-0.9c0.1-0.7,0.3-1.5-0.4-1.9c-0.8-0.4-1.6-1-2.5-0.9
	s-1.2-0.5-1.9,0.2c-0.7,0.7-0.9,1.5-1.6,2.3s-1.1,1.1-1.9,2.5c-0.8,1.3-1.2,2.3-1.2,2.3C42.2,78.6,43.3,80.9,43.3,80.9z"></path><path class="st2" d="M42.7,79.3c0,0,2.1-1.4,2.4-1.6c0.4-0.3,0.7,0.4,2-1.1c1.3-1.5-0.3-2.1,0.4-3.2c0.7-1.2,1.1-1.6,0.8-2.3
	c-0.3-0.7-1.9-2.1-2.5-1.8c-0.5,0.3-2.6,1.2-2.9,1.7c-0.3,0.5-1.3,1.8-1.9,2s-1.6,1.1-1.6,1.1l-1,1.9c0,0,1.3,0.9,1.6,1.1
	c0.3,0.1,0.7,0.4,0.8,0.5C40.9,77.7,42.7,79.3,42.7,79.3z"></path><path class="st1" d="M36.4,75l3.2-1.5c0,0,1.5,0.1,1.9,0.6c0.4,0.5,0.6,1.1,0.7,1.4c0.1,0.3,0.9,2,1.2,3.3s0.8,2.1,0.6,3.1
	c-0.2,1-0.3,1.7-0.8,2s-0.9,0.8-2.1,0.4c-1.2-0.4-1.8-1.3-2.4-1.8c-0.6-0.5-2.7-2.3-2.9-2.7c-0.2-0.4-0.4-1-0.4-1L36.4,75z"></path><path class="st1" d="M34.8,83.3c0,0,0.5,1-1.3,1.6c-1.8,0.6-2.7,1.8-3.2,0.7c-0.6-1.1-2.3-2.5-3-2.6s-0.9-0.4-1.7-0.9
	c-0.8-0.5-1.1-0.1-1.3-0.8s-2.4-2.7-2.4-2.7s-0.6-2.8-0.4-3c0.3-0.2-0.8-1,0.3-1.7c1.1-0.7,2.5-1.1,3.2-1.5c0.7-0.4,1.6-0.9,2.5-0.7
	s1.7,0.7,2.7,1.4s2.3,2.5,2.4,3.1c0.2,0.6,1.4,1.5,1.5,2.4c0.1,0.9,0.3,0.7,0.4,2.1S34.8,83.3,34.8,83.3z"></path><path class="st0" d="M33.1,78.1c0,0-1.5,2.5-1,3.3s2.1,2.5,2.1,2.5s1.4,1.6,2,1.4c0.6-0.1,3.2,0.5,3.6,0.7c0.4,0.1,0.8,0.1,0.8-0.6
	c0-0.7-0.2-2.5,0.1-3.3c0.4-0.8,0.2-2.4-0.2-2.9c-0.4-0.5-0.9-1.3-1.5-2.2c-0.6-0.9-1.4-0.7-2.1-0.7c-0.7,0.1-2,0.1-2.1,0.1
	C34.7,76.3,34,77,34,77L33.1,78.1z"></path><path class="st0" d="M29.7,74.6c0,0-1.9-2.5-2.2-2.9s-2.5-1.3-2.7-0.8s-1.5,2.8-1.6,3.7c-0.1,0.9-0.6,2.2-0.1,3
	c0.5,0.8,1,1.4,1.4,1.9c0.4,0.5,1,0.3,1.4,1.2c0.4,0.9,0.2,1.1,1.5,0.8c1.3-0.3,1.6-0.7,2.1-1.1s1.3-1.6,1.3-1.7
	c0.1-0.2,0.2-0.3,0.3-0.5c0.1-0.2,0.7-0.3,0.6-1.2C31.6,76.2,29.7,74.6,29.7,74.6z"></path><path class="st0" d="M31.2,69.7c0,0-0.4-0.9-1-1.7c-0.5-0.7-1.2-1.4-2-1.2c-0.8,0.2-1.3-0.6-1.4,0.5c0,1.1,0.1,1.4,0.2,2.3
	s-0.5,1.6,0.3,2s1.2,0.1,1.5,0.2c0.4,0.2,0.6,0.5,0.9,0.1c0.4-0.4,1-1.3,1-1.3L31.2,69.7z"></path><path class="st1" d="M31.7,77c0,0-2-1.3-2.6-1.4s-0.7-0.8-0.7-1.7c0-0.9,0.6-3.2,0.8-3.5c0.2-0.3,1.8-2,2.5-1.7s1.5,0.8,2.3,1.1
	c0.8,0.3,1.7-0.8,1.5,1.5c-0.2,2.4-0.7,4.1-0.6,4.8c0.1,0.7,0.3,0.4-0.2,1.3C34,78.6,34,78.6,34,78.6s-1.5,0.9-1.7,0.9
	c-0.3,0-1.5-0.8-1.5-0.8L31.7,77z"></path><path class="st11" d="M28.8,78.1c0,0,1.4-0.1,1.2-0.6c-0.2-0.5-1.6-1.4-1.6-1.4s1.7-0.4,2.1-0.3c0.4,0,0.7,1.7,1.2,1.3
	c0.5-0.4,0.9-0.9,0.8-0.3c-0.2,0.6-0.6,1.2-0.6,1.2C31.1,78.2,28.8,78.1,28.8,78.1z"></path><path class="st3" d="M45.2,14.7c0,0,4.1-1.9,5.6-2.2s4-0.1,5.2,0c1.2,0.1,2.7-0.4,3.2-0.6c0.5-0.2,0.5-0.6,1.1-0.6
	c0.6,0,3.1-0.3,2.8,0.9s0,2.4,0.1,3.9c0.2,1.5,0.6,3-1.8,3.6c-2.4,0.6-4.7,1.6-7.1,1.8c-2.5,0.2-3,0.7-5.3,0
	c-2.3-0.7-1.4-0.5-3.9-1.7c-2.5-1.2-1.9-1-2.1-2c-0.2-1-0.5-2.4,0.3-2.5S45.2,14.7,45.2,14.7z"></path><path class="st3" d="M66.2,19.1c0,0,0.9,3.5,1,4.1c0.1,0.6-0.4,2.5-0.5,2.8s-1.4,0.5-1.4,0.5L63.3,25c0,0,0.1-2.1,0.3-2.5
	c0.1-0.4,0.4-1.4,0.4-1.4L66.2,19.1z"></path><path class="st0" d="M56,25c0,0,2.4,2.2,2.9,2.4c0.5,0.2,2.2,1.1,2.5,1.6c0.3,0.5,0,1.7,0.4,1.4s2.7-4.4,2.7-5.4c0-1,0.2-2.2,0-2.5
	c-0.2-0.3-1.1-1.6-1.3-1.7c-0.2-0.1-2.6-0.3-3.7,0.3c-1.1,0.6-2.2,1.2-2.3,1.4S56,25,56,25z"></path><path class="st2" d="M61.4,13.7c0-0.5-0.9-5-2.3-6.2c-1.4-1.2-3.5-1.7-4.4-1.4s-2.3,0.4-2.4,2.3s-1.3,2.1,0,3.8s1.1,2.9,2.3,3.5
	c1.2,0.6,3.9,1.1,3.9,1.1s0.3,0.3,1.2-0.6C60.6,15.3,61.4,13.7,61.4,13.7z"></path><path class="st1" d="M51.1,6.8c-0.7,0.3-2,2.2-3.1,3.5c-1.1,1.3-1.4,0.9-2.9,1.1s-2.2-1-3.4,0s-2.2,2-2.2,2.4s2,2.6,3.2,2.9
	c1.2,0.3,5,0,6.6,0c1.7,0,5.3-1.1,5.3-1.1s0.9-1,0.8-1.4s-2-2.2-2.1-2.8c-0.1-0.6-1-3-1-3L51.1,6.8z"></path><path class="st0" d="M42.2,15.5c0,0-3.4-0.7-3.4,0s1.5,1.6,2.1,2.1c0.6,0.5,1.7,0.9,1.7,0.9H44L42.2,15.5z"></path><path class="st2" d="M45.1,21.1c-0.2,0-2.6-0.6-4.2-0.8s-2.5-0.6-2.7-1.4c-0.2-0.8,0.1-2,1.4-1.6c1.3,0.4,2.2-0.5,2.6,0.4
	c0.4,0.9,1.1,0,1.9,0.9c0.8,0.9,1,0.8,1.1,1.2C45.3,20.1,45.1,21.1,45.1,21.1z"></path><path class="st0" d="M43.3,15.2c0.6,0,2.5-1.1,2.9-1.2c0.3-0.1,0.8,0.9,1.9,0.6c1.1-0.3,1.5-0.1,2.3-0.6c0.8-0.5,0.9-0.3,2.3,0
	c1.4,0.3,1.4,0.6,1.9,0.5c0.4-0.1,0.6,0,1.4,0.7c0.8,0.7,1,0.8,1.4,0.8s-1.5-0.4-1.8-1.8s0-2.8,0-2.8s2.6,1.7,3,2.3
	c0.5,0.6,0.2,1.2,1,1.5s1.3,0.7,1.9,0.8c0.7,0.1,1.3-0.1,1.4-0.8s-0.5-1.3,0-1.8c0.5-0.5,0.4-0.7,0.3-1.2s-1.3-1.2,0-0.8
	c1.4,0.3,1.5,0.8,1.7,1c0.2,0.2,0.2,0.2,0.2,0.2s1.4-0.7,2.1-0.8c0.7-0.1,0.8-0.4,1.4,0.4s0.8,0.9,0.8,1.4c0,0.5,0.6,1.2,0,1.3
	c-0.6,0.1-3.8,4.3-4.7,5.1c-0.9,0.8-2.5,1.6-5.6,1.9s-7.1-0.3-7.4-0.3c-0.3-0.1-3-2.8-5.2-2.5c-2.2,0.2-4.1-0.6-4.1-0.6l-0.9-1.9
	L41.4,16L43.3,15.2z"></path><path class="st3" d="M46.8,16c0,0,3.2,0.6,3.5,1.2c0.3,0.6,1.2,1.3,1.8,1.4c0.6,0.1,1.9,0.3,2.2,0c0.3-0.3,0.8,0.4,1.6,0
	c0.8-0.4,1.4-1.3,2-0.8s0.8,0.7,1.4,1c0.6,0.3,1.9,0.3,2.6,0c0.8-0.3,1.2-0.7,2.3-1.8s0.8-1.8,2.2-1.7s1,0.2,2.1,0
	c1-0.2,1.6,0.6,1.3,1.2c-0.3,0.5-2.3,1.8-3.6,2.7s-5.5,3.9-6.6,4c-1.1,0.1-5-0.1-6.3-0.4c-1.2-0.3-3.7-1.1-4.3-1.3
	c-0.5-0.2-0.9-2.9-2.4-2.3c-1.5,0.6-0.9-0.9-1.5-1.1c-0.5-0.2-0.5-0.2-0.5-0.2L46.8,16z"></path><path class="st1" d="M52.3,19.9c0.9,0.1,5.8,0.3,6.7,0.3c0.8,0,1.9-1.8,2.9-1.6c1,0.2,2.5-1,3.6-1.5c1.1-0.5,1.2-0.1,1.9-0.5
	s1.4-0.5,1.4-0.5s-0.3,1.7-1.4,3s-4.1,2.9-5,3.4c-0.9,0.5-3.6,1.4-4.4,1.9c-0.8,0.4-2.4,0.7-3.8,0.5c-1.4-0.2-0.6,0.4-2.9-0.3
	c-2.3-0.7-3.4-1.6-4.5-2.1c-1.1-0.5-0.1-1.2-1.7-1.4s-1.8-1.4-1.8-1.4s-0.4-0.4,0.7-0.2c1.1,0.2,0.8,0.5,1.8,0.5s1.2,0.2,1.7,0
	c0.6-0.2,0.5,0.3,1.4,0.6c0.9,0.2,0.6,0.2,1.5,0C51.2,20.4,52.3,19.9,52.3,19.9z"></path><path class="st3" d="M65.3,71.4c0,0,3.7,6.5,2.5,8.5c-1.2,1.9-2.7,9.4-1.6,9.7c1.1,0.3,4.2,0.1,5.4-0.7s4.8-5.6,5.1-6.4
	c0.3-0.8,4.5-1.9,2.9-6.2c-1.6-4.3-3-6.8-4.6-7.6s-1.5-0.7-3.4,0C69.7,69.4,65.3,71.4,65.3,71.4z"></path><path class="st2" d="M74.4,63.5c0,0,3.4,0.9,3.4,1.5s-1.4,3-1.7,3.7c-0.2,0.7-2.4,1.8-2,2.4c0,0-0.8-2.7-0.8-3.2
	c0-0.6-0.3-1.9,0-2.3C73.6,65.1,74.4,63.5,74.4,63.5z"></path><path class="st1" d="M68.6,64.9c0,0-0.3-1.6,0.8-2.3c1.1-0.7,1.7-1.2,2.7-0.3s2.8,1.7,2.6,3.7c-0.2,2.1-0.5,4.5-0.6,5.2
	s-0.2,1.9-1.2,3.2c-1,1.3-1,1.3-1,1.3s-1.8-3.6-2-4.5c-0.2-0.9-1.3-2.3-1.4-3.4C68.4,66.7,68.6,64.9,68.6,64.9z"></path><path class="st3" d="M64,66.7c-0.3,0.6-2.6,4.3-3.9,6s-2.3,3.5-1.5,4.5c0.8,1,2.6,1,4.1,1s2.5-0.2,3.7,0s2.6,0.7,2.8-1.1
	c0.2-1.7,0.4-1.4,0-3.2c-0.4-1.9,1.2-1.1-0.6-3.5C66.6,68,64,66.7,64,66.7z"></path><path class="st2" d="M68.2,75.8c-0.1-0.3-1.3-2.3-1.4-3.7s-1.1-3.7-1.7-4.7c-0.5-1-1.2-1.7-0.9-2.5c0.3-0.8-0.7-1.2,0.9-1.4
	c1.6-0.1,3.8,0.3,3.8,0.3s1.2,0.9,2,1.9c0.8,1,1.2,2.2,1.4,3c0.3,0.8,0.7,3.3,0.5,3.8c-0.2,0.5-0.5,1-0.6,1.7
	c-0.1,0.7-1.2,1.5-1.4,1.9c-0.1,0.3-0.8,0.8-0.8,0.8L68.2,75.8z"></path><path class="st0" d="M61,86c0,0-1.2,4.8-1.4,5.2s-1,2.7,0,3.3c1,0.6,2.6,1.5,3.9,1.7c1.2,0.1,1.5,0.6,1.7,0.6c0.2,0,2.2-1,2.2-1
	s1.8-1,2-2.3c0.2-1.2-0.3-2.9-0.8-3.6c-0.5-0.7-1.6-2.6-1.6-2.6s-1-1.4-2.1-1.4C63.9,86.1,61,86,61,86z"></path><path class="st0" d="M79.6,76.3c0,0,2.6,1.3,2.6,2.1c0,0.8,0.3,3.3-0.5,3.9c-0.8,0.6-0.6,2-2.1,0.4c-1.5-1.6-1.9-1.9-3.1-2.9
	c-1.2-1-2.2-1.5-2.2-1.5s-0.9-1.3,0-1.5c0.9-0.2,1.1-0.5,2.2-0.6C77.6,76.2,79.6,76.3,79.6,76.3z"></path><path class="st1" d="M74.7,79c0,0,1.3,0.2,3.1,2c1.8,1.8,1.7,2.5,1.7,2.5s1,0.5,0.8,0.9c-0.1,0.3-0.3,0.4,0,1.7
	c0.3,1.2,0.8,2.5,0,3.7c-0.8,1.2-1.9,2.3-2.3,2.6c-0.4,0.2-0.7,0.3-1.7,0c-1-0.3-1.3-1.2-1.6-2.2c-0.4-1-0.7-2.3-0.8-3.4
	c-0.1-1.1-0.2-2.3-0.6-3.1c-0.4-0.8-0.8-1.6-0.6-2.2C72.8,80.8,74.7,79,74.7,79z"></path><path class="st2" d="M73.9,82.4c0,0,0.7,1.2,1.2,2.9s0.2,3.5,0.5,4.3c0.3,0.8,0.4,1.1,0.6,1.9c0.2,0.8,1.8,1.4,1.1,2.5
	c-0.7,1.1-0.7,1.7-1.7,1.4c-1-0.3-2.4-1.9-2.6-2.2c-0.1-0.3-1.5-2.4-1.3-3.2c0.2-0.8,0.3-2.8,0.3-3.6s-0.1-1.8,0.3-2.6
	S73.9,82.4,73.9,82.4z"></path><path class="st1" d="M63.8,81.8c-0.5,0.3-3.6,1.5-4,1.7c-0.5,0.2-0.6,0.8-0.7,1.3c-0.1,0.6,0.8,1.6,1.3,1.7c0.5,0.1,1.4,0.7,2.1,0.6
	s1.9-0.3,2.5-1.2c0.6-0.8,2.3-1.1,2.1-2.2c-0.1-1.1-0.1-2.1-0.5-2C66.2,81.9,63.8,81.8,63.8,81.8z"></path><path class="st0" d="M65.7,77.6c0,0-1.9,1.7-2.3,1.9c-0.5,0.3-1.1,0.8-0.8,1.7s2.1,2.6,2.8,2.3c0.7-0.3,3.7-1.2,4-2.5
	c0.3-1.2,0.5-1.1,0.6-2.6c0.1-1.5-0.5-1.6-0.8-2.2c-0.3-0.6-1.5-1.4-1.5-1.4C67.4,75.6,65.7,77.6,65.7,77.6z"></path><path class="st0" d="M78.8,64.3c0,0,0.5-0.3,1.7,0c1.2,0.3,2.1,2,2.1,3c0.1,1-0.8,3.4-1,3.8c-0.1,0.4,1.2,1.2-1.6,1.4
	c-2.8,0.2-3.1,0.1-4.1,0.6c-1,0.4-0.2,0.9-2.1,1.7C72,75.6,72,75.6,72,75.6s-0.8-2.6,0.6-4.5s2.2-4.2,3-4.4
	C76.3,66.5,78.8,64.3,78.8,64.3z"></path><path class="st3" d="M78,72c0.3-0.2,2-1,2.8-0.3c0.7,0.7,0.9,1.7,0.5,2.8c-0.5,1.2-1.3,1.8-2.2,2.4c-0.9,0.6-2.3,0.9-3.5,0.9
	s-1.9,0.4-2.6,0c-0.7-0.4-0.7-0.9-0.8-1.6c-0.1-0.6,0.5,0.2,1.7-1.4c1.2-1.6,2.1-1,2.1-1.7C76,72.5,78,72,78,72z"></path><path class="st3" d="M61.6,87.6c0,0,1.6,3,2.2,3.6c0.6,0.6,1.9,0.6,2.4,1.2c0.6,0.6,1.2,2.9,1.9,3.7c0.7,0.8,2.5,0.8,3.5,0.4
	c1-0.3,2.3-4.7,2.3-5.1c0-0.4,0.7-4.7,0.6-5.4s-0.6-3.7-0.6-3.7s-4,0.6-4.4,0.9s-3.3,0.8-3.6,0.9s-1,1.2-1.7,1.5
	C63.5,86.1,61.6,87.6,61.6,87.6z"></path><path class="st2" d="M62.5,88.1c1,0.3,3.2,0.3,3.7,0.3s1.9,0.7,2.3,0.5c0.4-0.2,1.4,0.1,1.8-0.4c0.4-0.5,0.8-0.5,1.2-1.3
	s1.7-1.7,1.7-2.7c0-1,0.6-2.1,0.6-2.1l-1.8-2.9L70.5,81c0,0-0.2,0-1.6,0.8c-1.4,0.9-1.8,1.1-2.6,1.4c-0.8,0.3-1.8,0.7-2,1.3
	C64,85.1,62.5,88.1,62.5,88.1z"></path><path class="st0" d="M68.2,80.9c-0.1,0.2-0.7,1.2-0.2,1.4c0.5,0.3-0.2,0.2,1.5,0c1.7-0.2,2.1,0,3.3,0s2.3-1.3,2.5-1.9
	c0.2-0.6,0.3-2.6,0.3-2.6s-0.3-1-1.2-0.9c-1,0.1-2.1-0.2-2,0c0.1,0.2,0.4,0.6-0.7,1.5c-1.1,0.8-2.6,1.1-3,1.8
	C68.2,80.9,68.2,80.9,68.2,80.9z"></path><path class="st0" d="M69.1,73.9c0,0,0.2-0.2,1.4-0.3c1.2-0.1,2.4,0.8,2.4,0.8s0.7,1.3,0,1.9c-0.7,0.7-1.4,2.2-1.4,2.2
	s-0.3,1.1-0.9,0.6s-0.8-1.2-1.5-1.9c-0.8-0.6-0.9-1.4-0.9-1.4S68.4,74.1,69.1,73.9z"></path><path class="st11" d="M71.6,74c0.7,0.3,2.1-1,2.3-0.8c0.2,0.3,0.3,1,0,1.6s0.4,0.7,0.4,1.4c0,0.7,0-0.8,0,0.7s0,1.5,0,1.5
	s-0.7,0.3-1.3-0.6c-0.7-0.9-0.5-0.2-0.7-0.9c-0.1-0.7-2.5-0.3-1.4-0.8C72,75.6,71.6,74,71.6,74z"></path><path class="st3" d="M42.4,29.4c0,0-5.7,4.1-5.5,6.2c0.3,2.1-1.4,9-2.5,8.9c-1-0.2-3.6-1.6-4.3-2.7c-0.7-1.1-1.8-6.6-1.8-7.4
	c0-0.8-3-3.4,0-6.4s5.3-4.6,6.9-4.6c1.7-0.1,1.6,0,2.9,1.3S42.4,29.4,42.4,29.4z"></path><path class="st2" d="M37.8,19.1c0,0-3.2-0.6-3.4-0.1s0,3.1,0,3.8c-0.1,0.7,1.4,2.5,0.7,2.8c0,0,1.7-2,1.9-2.4s1-1.5,0.9-2
	C37.8,20.7,37.8,19.1,37.8,19.1z"></path><path class="st1" d="M42.2,22.6c0,0,0.9-1.2,0.2-2.2c-0.7-1-1-1.7-2.1-1.4c-1.2,0.4-3.1,0.3-3.7,2.1c-0.6,1.8-1.4,4-1.6,4.6
	c-0.2,0.6-0.5,1.7-0.3,3.2c0.3,1.5,0.3,1.5,0.3,1.5s2.9-2.3,3.5-3c0.5-0.7,2-1.5,2.5-2.3C41.6,24.2,42.2,22.6,42.2,22.6z"></path><path class="st3" d="M45.3,26c0.1,0.6,0.5,4.7,1,6.6s0.5,3.9-0.5,4.4c-1,0.5-2.6-0.2-3.8-0.8c-1.2-0.6-2-1.2-3.1-1.4
	c-1.1-0.2-2.5-0.5-2-2s0.2-1.3,1.3-2.7c1.1-1.4-0.6-1.4,1.9-2.7C42.6,26,45.3,26,45.3,26z"></path><path class="st2" d="M38.2,31.9c0.2-0.3,2-1.5,2.6-2.6s2.4-2.7,3.3-3.3s1.7-1,1.7-1.7c0.1-0.8,1.1-0.8-0.2-1.5
	c-1.3-0.7-3.3-1.2-3.3-1.2s-1.4,0.3-2.4,0.8c-1,0.5-1.9,1.4-2.4,2s-1.9,2.5-1.9,3c0,0.5,0,1-0.1,1.7c-0.2,0.6,0.5,1.8,0.4,2.1
	c0,0.3,0.4,1,0.4,1L38.2,31.9z"></path><path class="st0" d="M40.2,43.5c0,0-0.8,4.5-0.8,5s-0.2,2.7-1.3,2.8c-1.1,0.1-2.8,0.2-3.9-0.1c-1.1-0.4-1.5-0.1-1.7-0.2
	c-0.2-0.1-1.5-1.7-1.5-1.7s-1.1-1.6-0.8-2.7c0.3-1.1,1.4-2.3,2.1-2.7c0.7-0.4,2.4-1.5,2.4-1.5s1.4-0.8,2.3-0.3S40.2,43.5,40.2,43.5z
	"></path><path class="st0" d="M28.3,27.9c0,0-2.7,0.1-3,0.8c-0.3,0.7-1.6,2.7-1.2,3.5s-0.3,1.9,1.6,1.2s2.3-0.9,3.8-1.2
	c1.4-0.3,2.5-0.4,2.5-0.4s1.3-0.7,0.6-1.3c-0.7-0.5-0.7-0.8-1.6-1.4C30.1,28.6,28.3,27.9,28.3,27.9z"></path><path class="st1" d="M31.4,32.1c0,0-1.2-0.3-3.4,0.5c-2.2,0.8-2.5,1.5-2.5,1.5s-1,0-1,0.4c0,0.3,0.1,0.5-0.7,1.4
	c-0.8,0.9-1.6,1.8-1.4,3.1s0.7,2.8,1,3.1s0.5,0.5,1.4,0.7c0.9,0.1,1.5-0.5,2.3-1.2c0.7-0.7,1.5-1.6,2-2.5c0.5-0.9,1.1-1.9,1.8-2.4
	c0.7-0.5,1.4-1,1.4-1.6C32.3,34.4,31.4,32.1,31.4,32.1z"></path><path class="st2" d="M30.8,35.3c0,0-1.1,0.7-2.1,2c-1,1.3-1.6,2.9-2.1,3.4c-0.5,0.5-0.8,0.8-1.3,1.4s-2.1,0.5-1.9,1.7
	c0.1,1.2-0.1,1.8,0.9,1.8c1,0.1,2.8-0.6,3.1-0.9c0.2-0.2,2.3-1.4,2.4-2.2c0.1-0.7,0.9-2.5,1.1-3.2s0.8-1.5,0.8-2.3
	C31.6,36.4,30.8,35.3,30.8,35.3z"></path><path class="st1" d="M39.5,38.8c0.3,0.4,2.4,2.7,2.8,3s0.2,0.9,0.1,1.4c-0.1,0.5-1.3,1-1.8,1c-0.5-0.1-1.5,0-2-0.3
	c-0.5-0.3-1.4-1-1.6-2s-1.5-1.8-0.9-2.7c0.6-0.9,0.9-1.7,1.2-1.5C37.5,37.9,39.5,38.8,39.5,38.8z"></path><path class="st0" d="M39.6,34.5c0,0,0.9,2.1,1.2,2.6c0.3,0.4,0.6,1.1,0,1.7c-0.6,0.6-2.9,1.4-3.3,0.8c-0.5-0.5-2.6-2.5-2.4-3.7
	c0.2-1.2,0-1.2,0.6-2.5c0.5-1.3,1-1.1,1.5-1.5c0.5-0.4,1.8-0.6,1.8-0.6C39,32.1,39.6,34.5,39.6,34.5z"></path><path class="st0" d="M33.7,18c0,0-0.3-0.5-1.4-0.7s-2.6,0.9-3,1.7c-0.4,0.8-0.6,3.2-0.7,3.6s-1.5,0.6,0.8,1.8
	c2.3,1.3,2.6,1.4,3.2,2.1c0.7,0.7-0.2,0.9,1.1,2.3c1.3,1.4,1.3,1.4,1.3,1.4s1.7-1.9,1.3-4c-0.4-2.1-0.2-4.4-0.8-4.9S33.7,18,33.7,18
	z"></path><path class="st3" d="M31.4,24.8c-0.2-0.3-1.3-1.6-2.2-1.3c-0.9,0.3-1.4,1-1.5,2.2c-0.1,1.2,0.4,2,0.9,2.9c0.5,0.9,1.6,1.7,2.6,2.1
	c1.1,0.5,1.4,1.1,2.2,1c0.7-0.1,0.9-0.5,1.3-1c0.4-0.5-0.5,0-0.9-1.9c-0.4-1.9-1.4-1.7-1.1-2.3C32.9,26,31.4,24.8,31.4,24.8z"></path><path class="st3" d="M39.1,44.6c0,0-2.5,1.9-3.3,2.2c-0.7,0.3-1.8-0.3-2.5,0.1c-0.7,0.3-2.2,2-3.1,2.4c-0.9,0.4-2.4-0.3-3.1-1
	c-0.7-0.7-0.1-4.9,0.1-5.3s1.2-4.2,1.6-4.8c0.4-0.6,2-2.8,2-2.8s3.2,2.1,3.4,2.5c0.2,0.4,2.5,1.9,2.7,2.2c0.2,0.2,0.3,1.4,0.8,2
	S39.1,44.6,39.1,44.6z"></path><path class="st2" d="M38.1,44.6c-1-0.2-2.8-1-3.3-1.2s-1.9-0.2-2.2-0.5c-0.3-0.3-1.2-0.5-1.4-1.1c-0.2-0.6-0.5-0.7-0.5-1.6
	c0-0.8-0.7-2.1-0.3-2.9c0.4-0.8,0.3-2.1,0.3-2.1l2.6-1.8l0.7,1.9c0,0,0.2,0.1,1.1,1.3c0.9,1.3,1.1,1.6,1.7,2.2
	c0.6,0.6,1.2,1.3,1.2,1.9C38.1,41.5,38.1,44.6,38.1,44.6z"></path><path class="st0" d="M36.2,36.3c0,0.2,0.2,1.3-0.4,1.3c-0.5,0,0.1,0.3-1.2-0.6c-1.3-0.8-1.8-0.8-2.8-1.3c-1-0.5-1.4-2-1.4-2.6
	s0.8-2.3,0.8-2.3s0.6-0.7,1.4-0.3c0.8,0.4,1.8,0.7,1.7,0.8c-0.1,0.1-0.6,0.4,0,1.5c0.6,1.2,1.8,2,1.8,2.7
	C36.2,36.3,36.2,36.3,36.2,36.3z"></path><path class="st0" d="M38.2,30c0,0-0.1-0.3-1.1-0.9c-1-0.6-2.3-0.3-2.3-0.3s-1.1,0.8-0.8,1.6c0.3,0.8,0.3,2.4,0.3,2.4
	s-0.2,1.1,0.6,0.9c0.8-0.2,1.2-0.7,2-1c0.9-0.2,1.3-0.8,1.3-0.8S38.7,30.5,38.2,30z"></path><path class="st11" d="M36,29.1c-0.7,0-1.4-1.7-1.6-1.5c-0.3,0.2-0.7,0.8-0.6,1.4c0,0.6-0.6,0.5-0.9,1c-0.3,0.6,0.3-0.7-0.3,0.6
	C32,31.8,32,31.8,32,31.8s0.4,0.5,1.4,0c0.9-0.5,0.5,0,0.9-0.5s2.2,0.7,1.5-0.2C35,30.3,36,29.1,36,29.1z"></path><path class="st3" d="M64.5,34.3c0,0,7,2.7,7.3,4.9c0.3,2.3,3.9,9,5,8.5s3.3-2.6,3.8-4c0.4-1.3,0.1-7.3-0.2-8.2s2.2-4.3-1.8-6.7
	s-6.7-3.3-8.4-2.9c-1.7,0.4-1.6,0.4-2.6,2.2S64.5,34.3,64.5,34.3z"></path><path class="st2" d="M66.5,22.4c0,0,3.2-1.5,3.5-1c0.4,0.4,0.8,3.2,1.1,3.9c0.3,0.7-0.8,2.9,0,3.1c0,0-2.3-1.6-2.7-2
	c-0.4-0.4-1.4-1.3-1.5-1.8C66.9,24.1,66.5,22.4,66.5,22.4z"></path><path class="st1" d="M62.8,27.2c0,0-1.2-1-0.8-2.3s0.5-2.1,1.8-2c1.3,0.1,3.2-0.5,4.4,1.2c1.2,1.7,2.5,3.8,2.9,4.3s1,1.6,1.1,3.2
	s0.1,1.6,0.1,1.6s-3.7-1.6-4.4-2.2s-2.5-1-3.3-1.7C63.9,28.7,62.8,27.2,62.8,27.2z"></path><path class="st3" d="M60.5,31.6c0.1,0.6,0.7,5,0.8,7.1s0.5,4.2,1.7,4.4c1.2,0.3,2.7-0.9,3.7-1.9c1.1-1,1.8-1.8,2.8-2.3
	c1.1-0.6,2.4-1.2,1.5-2.6c-0.9-1.5-0.6-1.3-2.1-2.5c-1.5-1.2,0.2-1.6-2.7-2.3C63.3,30.8,60.5,31.6,60.5,31.6z"></path><path class="st2" d="M69.5,35.8c-0.3-0.2-2.5-1-3.4-1.9c-0.9-1-3.2-2.1-4.3-2.6c-1.1-0.4-2-0.6-2.3-1.3c-0.3-0.8-1.3-0.5-0.2-1.6
	c1.1-1.1,3.1-2.2,3.1-2.2s1.5-0.1,2.7,0.2c1.2,0.3,2.3,0.9,3.1,1.4s2.6,2.1,2.8,2.6c0.2,0.5,0.3,1.1,0.6,1.7s0,2,0.1,2.3
	c0.1,0.4-0.1,1.2-0.1,1.2L69.5,35.8z"></path><path class="st0" d="M70.6,48.3c0,0,2.1,4.5,2.2,5c0.1,0.5,0.9,2.7,2.1,2.5c1.2-0.2,3-0.5,4-1.2c1-0.7,1.6-0.5,1.7-0.6
	c0.2-0.1,1-2.2,1-2.2s0.7-2,0.1-3c-0.6-1.1-2.1-2-2.9-2.2S76,45.6,76,45.6s-1.7-0.5-2.5,0.3C72.8,46.5,70.6,48.3,70.6,48.3z"></path><path class="st0" d="M78.6,29c0,0,2.8-0.7,3.3,0c0.5,0.7,2.3,2.4,2.2,3.3c-0.2,1,0.9,1.9-1.3,1.6c-2.2-0.3-2.6-0.3-4.2-0.2
	c-1.6,0-2.6,0.3-2.6,0.3s-1.5-0.4-1-1.2c0.6-0.7,0.5-1.1,1.3-1.9C77,30.1,78.6,29,78.6,29z"></path><path class="st1" d="M76.6,34.2c0,0,1.1-0.7,3.7-0.4c2.5,0.2,2.9,0.8,2.9,0.8s1.1-0.2,1.2,0.1c0.1,0.4,0,0.5,1.1,1.3
	c1,0.7,2.2,1.4,2.3,2.8c0.2,1.4,0,3-0.2,3.4s-0.4,0.7-1.3,1.1s-1.7-0.1-2.7-0.7c-0.9-0.6-2-1.3-2.8-2.1c-0.8-0.8-1.6-1.7-2.5-2
	c-0.8-0.3-1.7-0.7-1.9-1.3C76.3,36.7,76.6,34.2,76.6,34.2z"></path><path class="st2" d="M78.1,37.3c0,0,1.3,0.4,2.7,1.5c1.4,1.1,2.4,2.6,3.1,3c0.7,0.4,1,0.6,1.7,1.1c0.7,0.5,2.3-0.1,2.5,1.2
	c0.2,1.3,0.5,1.8-0.4,2.2s-3.1,0.1-3.4-0.1c-0.3-0.2-2.7-0.9-3.1-1.6c-0.3-0.7-1.6-2.3-2-3s-1.3-1.3-1.4-2.1
	C77.6,38.6,78.1,37.3,78.1,37.3z"></path><path class="st1" d="M70,43.3c-0.2,0.5-1.8,3.4-2,3.9s0,1,0.3,1.5c0.3,0.5,1.6,0.7,2.1,0.5c0.5-0.2,1.6-0.4,2-0.8
	c0.4-0.4,1.2-1.5,1.2-2.5c-0.1-1,1-2.3,0.2-3.1c-0.8-0.8-1.4-1.5-1.6-1.2C71.9,41.8,70,43.3,70,43.3z"></path><path class="st0" d="M68.8,38.8c0,0-0.4,2.5-0.6,3c-0.2,0.5-0.3,1.3,0.5,1.8s3.3,0.7,3.7,0c0.3-0.7,2.1-3.3,1.5-4.4
	s-0.3-1.2-1.3-2.4c-0.9-1.2-1.4-0.9-2-1.2c-0.6-0.3-2-0.2-2-0.2C68.8,36.2,68.8,38.8,68.8,38.8z"></path><path class="st0" d="M70.4,20.2c0,0,0.2-0.6,1.3-1.1c1.1-0.5,2.9,0.3,3.6,1c0.7,0.7,1.5,3.1,1.7,3.5c0.2,0.4,1.7,0.2-0.3,2.1
	c-2,1.9-2.3,2.1-2.8,3c-0.5,0.9,0.4,0.9-0.5,2.7c-0.9,1.8-0.9,1.8-0.9,1.8s-2.3-1.5-2.4-3.8c-0.1-2.3-1-4.6-0.5-5.3
	C69.8,23.6,70.4,20.2,70.4,20.2z"></path><path class="st3" d="M74.7,26.6c0.1-0.4,0.9-2,1.9-2s1.8,0.7,2.2,1.9s0.1,2.2-0.2,3.3c-0.3,1.1-1.2,2.1-2.1,2.9
	c-1,0.8-1.2,1.5-2,1.6s-1.1-0.3-1.6-0.7c-0.5-0.4,0.5-0.2,0.4-2.2c-0.1-2,1-2.1,0.5-2.7C73.4,28.3,74.7,26.6,74.7,26.6z"></path><path class="st3" d="M72,49.1c0,0,3.1,1.2,4,1.4c0.8,0.1,1.8-0.8,2.6-0.6c0.8,0.1,2.8,1.5,3.8,1.7s2.4-1,2.9-1.9
	c0.5-0.9-1.2-5.1-1.5-5.4c-0.3-0.3-2.4-4-3-4.6s-2.8-2.4-2.8-2.4s-2.8,3-2.8,3.5s-2,2.7-2.2,3s0,1.5-0.3,2.2S72,49.1,72,49.1z"></path><path class="st2" d="M73,48.9c0.9-0.4,2.6-1.8,3.1-2.2c0.4-0.4,1.9-0.7,2.1-1.1c0.2-0.4,1.2-0.8,1.2-1.5c0-0.6,0.3-0.9,0.1-1.8
	s0.2-2.4-0.4-3.1c-0.6-0.8-0.9-2-0.9-2l-3.2-1.1l-0.2,2.2c0,0-0.2,0.1-0.7,1.7c-0.5,1.6-0.7,2-1.2,2.8c-0.4,0.8-0.9,1.7-0.7,2.3
	C72.3,45.7,73,48.9,73,48.9z"></path><path class="st0" d="M72.8,39.8c0.1,0.2,0.2,1.4,0.8,1.3c0.6-0.1,0,0.3,1.1-0.9s1.6-1.4,2.5-2.1c0.9-0.7,0.9-2.5,0.7-3.1
	s-1.5-2.2-1.5-2.2s-0.8-0.6-1.5,0.1c-0.7,0.7-1.7,1.2-1.5,1.3c0.2,0.1,0.7,0.2,0.4,1.6s-1.3,2.5-1.2,3.3
	C72.8,39.8,72.8,39.8,72.8,39.8z"></path><path class="st0" d="M69,33.8c0,0,0-0.3,0.9-1.2c0.9-0.9,2.3-1,2.3-1s1.3,0.5,1.2,1.5c-0.1,1,0.3,2.5,0.3,2.5s0.5,1.1-0.4,1
	c-0.9,0-1.4-0.5-2.4-0.4c-1,0-1.6-0.5-1.6-0.5S68.6,34.5,69,33.8z"></path><path class="st11" d="M71,32.3c0.7-0.2,1-2.1,1.3-2c0.3,0.1,0.9,0.6,1,1.3s0.8,0.3,1.2,0.8c0.4,0.5-0.5-0.6,0.4,0.5
	c1,1.2,1,1.2,1,1.2s-0.3,0.6-1.4,0.4s-0.5,0.2-1.1-0.3c-0.5-0.4-2.1,1.3-1.6,0.2S71,32.3,71,32.3z"></path></g></svg>