<?xml version="1.0" encoding="utf-8"?>
<!-- Generator: Adobe Illustrator 23.1.1, SVG Export Plug-In . SVG Version: 6.00 Build 0)  -->
<svg version="1.1" id="Layer_1" xmlns="http://www.w3.org/2000/svg" xmlns:xlink="http://www.w3.org/1999/xlink" x="0px" y="0px"
	 viewBox="0 0 108 108" style="enable-background:new 0 0 108 108;" xml:space="preserve">
<style type="text/css">
	.st0{fill:none;stroke:#708530;stroke-width:1.0127;stroke-miterlimit:10;}
	.st1{fill:#337034;}
	.st2{fill:#3F8133;}
	.st3{fill:#678B2B;}
	.st4{fill:#B0CC36;}
	.st5{fill:#639D3C;}
	.st6{fill:#A6BD39;}
	.st7{fill:#84B53A;}
	.st8{fill:#A5C939;}
	.st9{fill:#64791A;}
	.st10{fill:#72AA3A;}
	.st11{fill:#81842A;}
	.st12{fill:#8BAC30;}
	.st13{fill:#758A27;}
	.st14{fill:#598A34;}
	.st15{fill:#406C25;}
	.st16{fill:#4F7E2E;}
	.st17{fill:#5C8E36;}
	.st18{fill:#A5238C;}
	.st19{fill:#BF118C;}
	.st20{fill:#AD3190;}
	.st21{fill:#BF75AE;}
	.st22{fill:#C05291;}
	.st23{fill:#BF5EA2;}
	.st24{fill:#C1528A;}
	.st25{fill:#BF5CA1;}
	.st26{fill:#BF529C;}
	.st27{fill:#BA1C8B;}
	.st28{fill:#D269A6;}
	.st29{fill:#AC218C;}
	.st30{fill:#7E385D;}
	.st31{fill:#815577;}
</style>
<g>
	<path class="st0" d="M77.6,78.1c-0.4-2.7-2-7.4-3.1-10.8"/>
	<path class="st0" d="M84.2,74.1c-3.6-1.2-8.5-4.1-11.1-7.4"/>
	<path class="st0" d="M84.6,67c-3.7,2.2-6.8,4.7-9.9,0.8"/>
	<path class="st0" d="M67.8,60.4c-4.6-3-9.1-7.1-11-10.9"/>
	<path class="st0" d="M59.6,64.2c-0.2-5.6-2.6-14.1-3-15.8"/>
	<path class="st0" d="M65.8,53.1c-3.1,1.3-4.8,3-8.6-2.3"/>
	<path class="st1" d="M72.5,83.7c-0.6-2.1-1.7-2.5,1.4-6.5l3.1-4c0,0,0.8,0.8,1.7,1.7c0.9,0.9,4.7,3.8,3.6,7.5
		c-1.1,3.8-2.3,5.8-2.7,6.4c-0.5,0.6-1.6,3-1.9,3.6"/>
	<path class="st2" d="M97.3,83.1c-2.7-0.9-6.1,1.7-9.4-0.3c-3.4-2-5.8-7.4-6.7-8.9c-0.9-1.5-2.1-0.8,0.8-1c2.9-0.3,3-1.3,5.6-0.8
		c2.6,0.4,6.6,4.1,7,5.7C95,79.3,97.3,83.1,97.3,83.1"/>
	<path class="st3" d="M80.4,69.6c0.8-0.1,1.7,0.5,5.4,0.3c3.7-0.2,6.5-0.8,6.9-3.7c0.3-2.9-0.7-3.4,0.7-5.4l1.4-2
		c0,0-3.2,0.1-7.6,0.5c-4.4,0.4-5.9,5.1-6.3,7.1C80.5,68.4,80.4,69.6,80.4,69.6"/>
	<path class="st4" d="M78.4,69.8c0,0-1.9-1.8-5.4-1.6c-3.5,0.2-7.5-1.3-7.9-5c-0.4-3.8-1.9-5.8-1.9-5.8s0,0.5,3,0.1
		c3-0.5,7.5,1.4,9.1,4.4C76.9,64.9,78.4,69.8,78.4,69.8"/>
	<path class="st5" d="M58.1,76c0,0,4-4.9,5-8.1c1-3.2,1.2-5.1-0.9-7.2c-2-2.1-2.9-3.8-2.9-3.8s-2.1,4-3.6,5s-3,4.3-1.9,6.1
		C54.8,69.9,58.1,76,58.1,76"/>
	<path class="st6" d="M62.6,54.3c0,0.1,2.8,1,6,1.2c3.2,0.2,5,0,6-1.7c1.1-1.7,1.7-3.5,2.4-5.4c0.7-2,0.7-2.7,1.4-3
		c0.7-0.2-0.9,0.7-4.5,0.1c-3.6-0.6-5.4-1.5-6.7-0.2c-1.3,1.3-1,3.4-2,5.3C64.3,52.4,62.6,54.3,62.6,54.3"/>
	<path class="st0" d="M31.5,79.4c2.5-0.9,6.5-3.4,9.4-5.2"/>
	<path class="st0" d="M37.2,85.1c0.1-3.8,1.4-9.2,3.8-12.4"/>
	<path class="st0" d="M44.1,84.1c-3.2-3.2-6.5-5.7-3.7-9.7"/>
	<path class="st0" d="M45.4,66.2c1.5-5.1,4.2-10.4,7.2-13.1"/>
	<path class="st0" d="M39.4,58.9c5.3-1.3,12.7-5.4,14.2-6.1"/>
	<path class="st0" d="M51.9,62.8c-2.1-2.8-4.3-4.1-0.3-9"/>
	<path class="st7" d="M32,67.6c1.9-1,1.9-2.2,6.6,0.1l4.8,2.2c0,0-0.5,0.9-1.1,2c-0.6,1.1-2.2,5.4-6.1,5c-3.9-0.4-6.2-1.1-6.9-1.4
		c-0.7-0.3-3.3-1-4-1.2"/>
	<path class="st8" d="M39.5,94.9c0.1-2.8-3.4-5.7-2.5-9.4c0.9-3.7,5.4-7.1,6.5-8.4c1.2-1.2,0.1-2.2,1.2,0.6c1.1,2.8,2.1,2.7,2.4,5.3
		c0.3,2.7-2,7.3-3.4,8C42.5,91.9,39.5,94.9,39.5,94.9"/>
	<path class="st3" d="M40.4,80.5c0.3,0.7,0,1.8,1.3,5.4c1.3,3.6,2.7,6.3,5.6,6c2.9-0.3,3.1-1.3,5.4-0.4l2.3,1c0,0-1-3.1-2.7-7.4
		c-1.7-4.3-6.6-4.9-8.6-4.8C41.6,80.4,40.4,80.5,40.4,80.5"/>
	<path class="st9" d="M39.6,78.6c0,0,1.2-2.3-0.1-5.6c-1.2-3.4-1-7.7,2.5-8.8c3.5-1.2,4.9-3,4.9-3s-0.5,0.1,0.8,3
		c1.3,2.9,0.9,7.7-1.5,9.9C43.9,76.1,39.6,78.6,39.6,78.6"/>
	<path class="st5" d="M27.7,59.7c0,0,5.8,2.9,9.2,3.3c3.3,0.4,5.2,0.2,6.6-2.3c1.4-2.4,2.8-3.6,2.8-3.6s-4.4-1.3-5.9-2.6
		c-1.4-1.3-5-2.1-6.4-0.7C32.7,55.3,27.7,59.7,27.7,59.7"/>
	<path class="st6" d="M49.7,59.9c-0.1,0-0.1,3,0.6,6.2c0.8,3.2,1.4,4.9,3.4,5.6c1.9,0.7,3.8,1,5.9,1.3c2.1,0.3,2.8,0.1,3.2,0.8
		c0.4,0.7-0.9-0.7-1.4-4.4c-0.4-3.7-0.1-5.6-1.7-6.7c-1.6-1.1-3.6-0.3-5.6-1C52.1,61.2,49.7,59.9,49.7,59.9"/>
	<path class="st0" d="M33.8,32.9c1.1,2.5,4,6.6,6,9.6"/>
	<path class="st0" d="M28.8,38.7c3.8,0.1,9.2,1.4,12.6,3.9"/>
	<path class="st0" d="M30.4,45.7c2.9-3.3,5-6.6,9.1-3.8"/>
	<path class="st0" d="M48.2,47.1c5.2,1.6,10.6,4.2,13.5,7.3"/>
	<path class="st0" d="M54.8,41c1.8,5.4,6.5,12.9,7.4,14.5"/>
	<path class="st0" d="M52.2,53.6c2.6-2.2,3.6-4.3,8.8-0.4"/>
	<path class="st10" d="M37,25.9c1.2,1.9,2.3,1.9,0.6,6.8l-1.7,4.8c0,0-1-0.5-2.1-1.1c-1.1-0.6-5.6-2.2-5.6-6.2c0-4,0.4-6.3,0.7-7.1
		c0.3-0.7,0.6-3.4,0.8-4"/>
	<path class="st7" d="M13.8,33.9c2.8,0.1,5.2-3.5,9-2.5c3.7,0.9,7.5,5.4,8.9,6.7c1.3,1.2,2.2,0.1-0.5,1.2c-2.7,1.1-2.4,2.1-5,2.5
		c-2.6,0.4-7.4-2-8.2-3.4C17.1,36.9,13.8,33.9,13.8,33.9"/>
	<path class="st3" d="M33.6,42c-0.7,0.3-1.7,0-5.2,1.3c-3.4,1.3-5.9,2.7-5.4,5.7c0.5,2.9,1.6,3.1,0.9,5.5l-0.7,2.3c0,0,3-1.1,7-2.8
		c4-1.7,4.1-6.8,3.9-8.8C33.9,43.2,33.6,42,33.6,42"/>
	<path class="st4" d="M35.5,41.2c0,0,2.3,1.2,5.5-0.1c3.2-1.3,7.4-1,8.9,2.5c1.5,3.5,3.4,5,3.4,5s-0.1-0.5-2.8,0.8
		c-2.7,1.3-7.5,0.9-9.8-1.5C38.3,45.5,35.5,41.2,35.5,41.2"/>
	<path class="st5" d="M52.8,29.1c0,0-2.3,5.9-2.3,9.3c0,3.4,0.4,5.3,2.9,6.7c2.5,1.4,3.8,2.8,3.8,2.8s0.8-4.5,2-6
		c1.2-1.4,1.6-5.1,0-6.5C57.6,34.1,52.8,29.1,52.8,29.1"/>
	<path class="st11" d="M54.8,51.4c0-0.1-2.9-0.1-6,0.7c-3.1,0.8-4.7,1.5-5.2,3.4c-0.5,2-0.6,3.9-0.7,6c-0.1,2.1,0.1,2.9-0.5,3.3
		c-0.6,0.4,0.6-1,4.2-1.4c3.6-0.5,5.5-0.2,6.4-1.8c0.9-1.6,0-3.6,0.4-5.7C53.8,53.9,54.8,51.4,54.8,51.4"/>
	<path class="st0" d="M81.1,35.9c-2.6,0.6-6.9,2.7-10,4.1"/>
	<path class="st0" d="M76,29.6c-0.5,3.8-2.4,8.9-5.1,11.9"/>
	<path class="st0" d="M69.1,29.9c2.9,3.6,5.9,6.4,2.7,10"/>
	<path class="st0" d="M65.8,47.4c-2.1,4.9-5.2,9.8-8.5,12.1"/>
	<path class="st0" d="M71.1,55.4c-5.4,0.7-13.2,4-14.8,4.5"/>
	<path class="st0" d="M59,50.2c1.8,3,3.8,4.5-0.6,8.9"/>
	<path class="st10" d="M87.6,40.5c-2,0.8-2.1,1.9-6.6-0.8L76.5,37c0,0,0.6-0.9,1.3-1.9c0.7-1,2.8-5.1,6.6-4.3
		c3.9,0.8,6.1,1.7,6.8,2.1c0.7,0.4,3.2,1.3,3.8,1.6"/>
	<path class="st12" d="M82.3,15.5c-0.4,2.8,2.8,6,1.5,9.5c-1.3,3.6-6.1,6.5-7.4,7.6c-1.3,1.1-0.3,2.2-1.1-0.7s-1.8-2.9-1.9-5.5
		c-0.1-2.7,2.7-7,4.2-7.6C79,18.2,82.3,15.5,82.3,15.5"/>
	<path class="st7" d="M72.4,33.9c-0.2-0.8,0.2-1.8-0.7-5.5c-0.9-3.7-2-6.5-4.9-6.6c-2.9,0-3.2,1-5.4-0.2l-2.2-1.2c0,0,0.7,3.2,2,7.6
		c1.2,4.4,6.1,5.5,8.1,5.7S72.4,33.9,72.4,33.9"/>
	<path class="st4" d="M72.9,35.8c0,0-1.4,2.1-0.5,5.6c0.9,3.5,0.2,7.7-3.4,8.5c-3.6,0.8-5.3,2.4-5.3,2.4s0.5,0-0.5-3
		c-1-3-0.1-7.7,2.5-9.6C68.4,37.8,72.9,35.8,72.9,35.8"/>
	<path class="st5" d="M82.8,55.8c0,0-5.5-3.5-8.8-4.3c-3.3-0.7-5.2-0.7-6.8,1.5c-1.6,2.2-3.2,3.3-3.2,3.3s4.3,1.7,5.6,3.2
		c1.3,1.5,4.7,2.6,6.3,1.4C77.5,59.6,82.8,55.8,82.8,55.8"/>
	<path class="st13" d="M60.9,53.2c0.1,0,0.4-2.9,0-6.2c-0.4-3.3-0.9-5-2.8-5.9c-1.9-0.9-3.7-1.4-5.8-1.9c-2-0.5-2.8-0.4-3.2-1.1
		c-0.4-0.7,0.9,0.8,0.9,4.5c0.1,3.7-0.4,5.6,1,6.8c1.5,1.2,3.5,0.7,5.5,1.5C58.6,51.7,60.9,53.2,60.9,53.2"/>
	<path class="st10" d="M58.8,67.4c-0.4-2.7-2-7.4-3.1-10.8"/>
	<path class="st10" d="M65.4,63.4c-3.6-1.2-8.5-4.1-11.1-7.4"/>
	<path class="st10" d="M65.8,56.4c-3.7,2.2-6.8,4.7-9.9,0.8"/>
	<path class="st10" d="M49,49.8c-4.6-3-9.1-7.1-11-10.9"/>
	<path class="st10" d="M40.7,53.5c-0.2-5.6-2.6-14.1-3-15.8"/>
	<path class="st10" d="M46.9,42.4c-3.1,1.3-4.8,3-8.6-2.3"/>
	<path class="st14" d="M53.7,73.1c-0.6-2.1-1.7-2.5,1.4-6.5l3.1-4c0,0,0.8,0.8,1.7,1.7c0.9,0.9,4.7,3.8,3.6,7.5
		c-1.1,3.8-2.3,5.8-2.7,6.4c-0.5,0.6-1.6,3-1.9,3.6"/>
	<path class="st10" d="M78.5,72.4c-2.7-0.9-6.1,1.7-9.4-0.3c-3.4-2-5.8-7.4-6.7-8.9c-0.9-1.5-2.1-0.8,0.8-1c2.9-0.3,3-1.3,5.6-0.8
		c2.6,0.4,6.6,4.1,7,5.7C76.2,68.6,78.5,72.4,78.5,72.4"/>
	<path class="st15" d="M61.6,58.9c0.8-0.1,1.7,0.5,5.4,0.3c3.7-0.2,6.5-0.8,6.9-3.7c0.3-2.9-0.7-3.4,0.7-5.4l1.4-2
		c0,0-3.2,0.1-7.6,0.5c-4.4,0.4-5.9,5.1-6.3,7.1C61.7,57.7,61.6,58.9,61.6,58.9"/>
	<path class="st10" d="M59.6,59.1c0,0-1.9-1.8-5.4-1.6c-3.5,0.2-7.5-1.3-7.9-5c-0.4-3.8-1.9-5.8-1.9-5.8s0,0.5,3,0.1
		c3-0.5,7.5,1.4,9.1,4.4C58.1,54.2,59.6,59.1,59.6,59.1"/>
	<path class="st16" d="M39.2,65.3c0,0,4-4.9,5-8.1c1-3.2,1.2-5.1-0.9-7.2c-2-2.1-2.9-3.8-2.9-3.8s-2.1,4-3.6,5c-1.6,1-3,4.3-1.9,6.1
		C36,59.2,39.2,65.3,39.2,65.3"/>
	<path class="st17" d="M43.8,43.7c0,0.1,2.8,1,6,1.2c3.2,0.2,5,0,6-1.7c1.1-1.7,1.7-3.5,2.4-5.4c0.7-2,0.7-2.7,1.4-3
		c0.7-0.2-0.9,0.7-4.5,0.1c-3.6-0.6-5.4-1.5-6.7-0.2c-1.3,1.3-1,3.4-2,5.3C45.5,41.7,43.8,43.7,43.8,43.7"/>
	<path class="st0" d="M72,36c-2.7,0.1-7.4,1.1-10.7,1.8"/>
	<path class="st0" d="M68.3,28.9c-1.3,3.6-4.2,8.1-7.6,10.4"/>
	<path class="st0" d="M61.3,27.6c2.1,4.1,4.5,7.4,0.6,10.2"/>
	<path class="st0" d="M54.5,43.8c-3.1,4.3-7.2,8.3-11,9.9"/>
	<path class="st0" d="M58,52.7c-5.5-0.5-13.9,1-15.6,1.2"/>
	<path class="st0" d="M47.2,45c1.2,3.3,2.8,5.2-2.5,8.5"/>
	<path class="st10" d="M77.4,41.9c-2.1,0.3-2.5,1.4-6.4-2.2l-3.9-3.6c0,0,0.8-0.7,1.7-1.5c0.9-0.8,3.8-4.4,7.5-2.7
		c3.7,1.6,5.7,3,6.3,3.6c0.6,0.5,2.9,2,3.5,2.4"/>
	<path class="st2" d="M77.4,16.6c-1,2.6,1.5,6.4-0.5,9.5c-2,3.2-7.4,4.9-8.9,5.7c-1.5,0.7-0.8,2.1-1-0.9c-0.2-3-1.2-3.2-0.7-5.8
		c0.5-2.6,4.2-6.2,5.7-6.4C73.6,18.5,77.4,16.6,77.4,16.6"/>
	<path class="st3" d="M63.8,32.2c0-0.8,0.6-1.7,0.5-5.4c-0.1-3.8-0.6-6.7-3.5-7.4c-2.9-0.7-3.4,0.3-5.3-1.4l-1.9-1.6
		c0,0,0,3.2,0.3,7.8c0.3,4.5,4.9,6.7,6.8,7.2C62.6,31.9,63.8,32.2,63.8,32.2"/>
	<path class="st4" d="M63.9,34.2c0,0-1.8,1.7-1.7,5.3c0.1,3.6-1.4,7.5-5.1,7.4c-3.7,0-5.7,1.2-5.7,1.2s0.5,0.1,0.2-3
		c-0.4-3.1,1.5-7.5,4.5-8.7C59,35.1,63.9,34.2,63.9,34.2"/>
	<path class="st5" d="M69.5,55.6c0,0-4.7-4.6-7.8-6c-3.1-1.4-5-1.8-7,0c-2.1,1.8-3.8,2.5-3.8,2.5s3.9,2.6,4.8,4.3
		c1,1.7,4.1,3.6,5.9,2.7C63.4,58.2,69.5,55.6,69.5,55.6"/>
	<path class="st6" d="M48.4,48.3c0.1,0,1.1-2.7,1.3-6c0.2-3.3,0.2-5-1.5-6.3c-1.7-1.3-3.4-2.2-5.3-3.1c-1.9-0.9-2.7-1-2.9-1.8
		c-0.2-0.8,0.7,1,0,4.6c-0.7,3.6-1.6,5.3-0.4,6.8c1.2,1.5,3.4,1.5,5.1,2.7C46.5,46.4,48.4,48.3,48.4,48.3"/>
	<path class="st0" d="M72.2,83.1c-0.8-2.6-3.2-7.1-4.9-10.2"/>
	<path class="st0" d="M77.9,78c-3.8-0.5-9-2.6-12.1-5.4"/>
	<path class="st0" d="M77.1,70.9c-3.3,2.9-5.8,5.9-9.6,2.6"/>
	<path class="st0" d="M59.6,67.3c-5-2.2-10.1-5.5-12.6-8.9"/>
	<path class="st0" d="M52.2,72.5c-1.1-5.6-5-13.5-5.7-15.2"/>
	<path class="st0" d="M56.3,60.3c-2.8,1.8-4.2,3.8-8.8-0.7"/>
	<path class="st7" d="M60.6,81.1c-0.9-2-2.1-2.2,0.2-6.7l2.3-4.6c0,0,0.9,0.6,2,1.3c1.1,0.7,5.3,2.9,4.8,6.8
		c-0.5,3.9-1.2,6.2-1.6,6.9c-0.4,0.7-1,3.3-1.2,3.9"/>
	<path class="st8" d="M87.6,76.8c-2.8-0.4-5.6,2.8-9.3,1.4c-3.6-1.4-6.9-6.3-8-7.7c-1.2-1.4-2.2-0.4,0.6-1.2
		c2.8-0.8,2.7-1.8,5.3-1.8c2.6,0,7.1,2.9,7.8,4.4C84.7,73.4,87.6,76.8,87.6,76.8"/>
	<path class="st3" d="M73.5,74.1c0.7-0.2,1.7,0.2,5.3-0.6c3.6-0.8,6.3-2,6.1-4.9c-0.2-3-1.2-3.3-0.2-5.5l1-2.2c0,0-3.1,0.7-7.3,1.9
		c-4.2,1.2-4.9,6.2-4.9,8.2C73.4,72.9,73.5,74.1,73.5,74.1"/>
	<path class="st9" d="M71.5,74.7c0,0-2.2-1.5-5.5-0.6c-3.4,0.8-7.5,0.1-8.6-3.6c-1.1-3.7-2.8-5.4-2.8-5.4s0.1,0.5,2.9-0.4
		c2.9-1,7.6,0,9.6,2.7C69.2,70.1,71.5,74.7,71.5,74.7"/>
	<path class="st5" d="M52.7,84.5c0,0,3-5.6,3.5-8.9c0.4-3.4,0.3-5.3-2.1-7c-2.3-1.7-3.5-3.3-3.5-3.3s-1.3,4.4-2.7,5.6
		c-1.3,1.3-2.2,4.8-0.8,6.4C48.5,78.9,52.7,84.5,52.7,84.5"/>
	<path class="st6" d="M53.5,62.1c0,0.1,2.9,0.5,6.1,0.1c3.2-0.4,4.8-0.8,5.6-2.7c0.8-1.9,1.1-3.8,1.4-5.8c0.3-2.1,0.2-2.8,0.9-3.2
		c0.7-0.4-0.7,0.9-4.4,0.9c-3.6,0-5.5-0.5-6.6,1c-1.1,1.5-0.4,3.6-1.1,5.6C54.8,59.9,53.5,62.1,53.5,62.1"/>
	<path class="st0" d="M26.6,75c2.5-0.8,6.6-3.3,9.6-5"/>
	<path class="st0" d="M32.2,80.9c0.2-3.8,1.6-9.1,4.1-12.3"/>
	<path class="st0" d="M39.1,80c-3.1-3.3-6.3-5.9-3.5-9.7"/>
	<path class="st0" d="M40.9,62.2c1.7-5.1,4.4-10.2,7.5-12.9"/>
	<path class="st0" d="M35,54.7c5.3-1.1,12.8-5.1,14.4-5.8"/>
	<path class="st0" d="M47.4,58.9c-2.1-2.9-4.2-4.2-0.1-8.9"/>
	<path class="st1" d="M19.8,71c1.9-0.9,1.9-2.1,6.6,0.2l4.7,2.3c0,0-0.5,0.9-1.1,2c-0.6,1.1-2.3,5.4-6.2,4.9
		c-3.9-0.5-6.2-1.2-6.9-1.6c-0.7-0.4-3.3-1-3.9-1.3"/>
	<path class="st7" d="M27.1,95.5c0.2-2.8-3.3-5.7-2.2-9.4c1-3.7,5.5-7,6.7-8.2c1.2-1.2,0.2-2.2,1.2,0.6c1,2.9,2,2.7,2.3,5.4
		c0.3,2.7-2.1,7.2-3.5,7.9C30.1,92.5,27.1,95.5,27.1,95.5"/>
	<path class="st3" d="M35.5,76.3c0.3,0.7,0,1.8,1.1,5.4c1.2,3.6,2.5,6.4,5.4,6.2c2.9-0.2,3.1-1.3,5.4-0.2l2.3,1c0,0-1-3.1-2.6-7.4
		c-1.6-4.3-6.5-5-8.5-5C36.7,76.2,35.5,76.3,35.5,76.3"/>
	<path class="st4" d="M34.8,74.3c0,0,1.2-2.2,0.1-5.6C33.7,65.3,34,61,37.5,60c3.5-1.1,5-2.9,5-2.9s-0.5,0.1,0.7,3
		c1.2,2.9,0.7,7.7-1.7,9.8C39.1,72,34.8,74.3,34.8,74.3"/>
	<path class="st5" d="M23.3,55.2c0,0,5.8,3.1,9.1,3.5c3.3,0.4,5.2,0.3,6.6-2.1c1.5-2.4,2.9-3.5,2.9-3.5s-4.4-1.4-5.8-2.7
		c-1.4-1.4-4.9-2.3-6.4-0.8C28.3,50.9,23.3,55.2,23.3,55.2"/>
	<path class="st11" d="M45.3,56c-0.1,0-0.2,3,0.5,6.2c0.7,3.2,1.3,4.9,3.2,5.7c1.9,0.8,3.8,1.1,5.9,1.4c2.1,0.3,2.8,0.2,3.2,0.9
		s-0.9-0.7-1.3-4.4c-0.4-3.7,0-5.6-1.6-6.7c-1.6-1.1-3.6-0.4-5.6-1.1C47.7,57.3,45.3,56,45.3,56"/>
	<path class="st0" d="M30.7,27.3c0.6,2.7,2.5,7.3,3.8,10.6"/>
	<path class="st0" d="M24.4,31.7c3.7,0.9,8.7,3.5,11.5,6.7"/>
	<path class="st0" d="M24.5,38.8c3.6-2.5,6.4-5.2,9.8-1.5"/>
	<path class="st0" d="M41.6,44.2c4.7,2.7,9.5,6.5,11.7,10.1"/>
	<path class="st0" d="M49.6,39.9c0.5,5.6,3.6,13.9,4.1,15.6"/>
	<path class="st0" d="M44.2,51.5c3-1.5,4.5-3.3,8.7,1.7"/>
	<path class="st10" d="M35.4,21.2c0.7,2.1,1.9,2.4-0.9,6.6l-2.8,4.3c0,0-0.8-0.7-1.8-1.5c-1-0.8-5-3.4-4.1-7.3
		c0.9-3.8,1.9-6,2.3-6.6c0.4-0.6,1.4-3.1,1.7-3.7"/>
	<path class="st12" d="M10.8,23.6c2.7,0.7,5.9-2.1,9.4-0.3c3.5,1.8,6.2,7,7.2,8.5c1,1.5,2.1,0.6-0.7,1.1c-2.9,0.5-2.9,1.5-5.5,1.2
		c-2.6-0.3-6.8-3.6-7.3-5.2C13.3,27.3,10.8,23.6,10.8,23.6"/>
	<path class="st7" d="M28.5,36c-0.8,0.1-1.7-0.4-5.4,0c-3.7,0.5-6.5,1.3-6.6,4.2c-0.1,2.9,0.9,3.4-0.3,5.5L15,47.8
		c0,0,3.2-0.3,7.5-1.1c4.3-0.7,5.6-5.6,5.8-7.5C28.4,37.2,28.5,36,28.5,36"/>
	<path class="st4" d="M30.5,35.6c0,0,2,1.7,5.5,1.2c3.4-0.5,7.5,0.7,8.2,4.5c0.7,3.7,2.2,5.6,2.2,5.6s0-0.5-3,0.1
		c-3,0.7-7.6-0.9-9.3-3.7C32.3,40.5,30.5,35.6,30.5,35.6"/>
	<path class="st5" d="M50.3,28c0,0-3.6,5.2-4.4,8.5c-0.8,3.3-0.8,5.2,1.3,7.1c2.2,1.9,3.1,3.6,3.1,3.6s1.8-4.2,3.3-5.3
		c1.5-1.1,2.7-4.5,1.5-6.2C53.9,33.9,50.3,28,50.3,28"/>
	<path class="st13" d="M47.2,50c0-0.1-2.9-0.8-6.1-0.8c-3.2,0.1-4.9,0.3-5.9,2.1c-0.9,1.8-1.5,3.6-2,5.6c-0.5,2-0.5,2.8-1.2,3.1
		c-0.7,0.3,0.8-0.8,4.4-0.4c3.6,0.4,5.5,1.1,6.7-0.2c1.2-1.4,0.8-3.5,1.7-5.4C45.7,52.1,47.2,50,47.2,50"/>
	<path class="st10" d="M61.1,53.8c-2.7,0.1-7.4,1.1-10.7,1.8"/>
	<path class="st10" d="M57.3,46.7c-1.3,3.6-4.2,8.1-7.6,10.4"/>
	<path class="st10" d="M50.4,45.4c2.1,4.1,4.5,7.4,0.6,10.2"/>
	<path class="st10" d="M43.5,61.7c-3.1,4.3-7.2,8.3-11,9.9"/>
	<path class="st10" d="M47,70.5c-5.5-0.5-13.9,1-15.6,1.2"/>
	<path class="st10" d="M36.2,62.8c1.2,3.3,2.8,5.2-2.5,8.5"/>
	<path class="st14" d="M66.5,59.7c-2.1,0.3-2.5,1.4-6.4-2.2l-3.9-3.6c0,0,0.8-0.7,1.7-1.5c0.9-0.8,3.8-4.4,7.5-2.7
		c3.7,1.6,5.7,3,6.3,3.6c0.6,0.5,2.9,2,3.5,2.4"/>
	<path class="st10" d="M66.5,34.4C65.5,37,68,40.8,66,44c-2,3.2-7.4,4.9-8.9,5.7c-1.5,0.7-0.8,2.1-1-0.9c-0.2-3-1.2-3.2-0.7-5.8
		c0.5-2.6,4.2-6.2,5.7-6.4C62.7,36.3,66.5,34.4,66.5,34.4"/>
	<path class="st15" d="M52.8,50c0-0.8,0.6-1.7,0.5-5.4c-0.1-3.8-0.6-6.7-3.5-7.4c-2.9-0.7-3.4,0.3-5.3-1.4l-1.9-1.6
		c0,0,0,3.2,0.3,7.8c0.3,4.5,4.9,6.7,6.8,7.2C51.6,49.7,52.8,50,52.8,50"/>
	<path class="st1" d="M52.9,52c0,0-1.8,1.7-1.7,5.3c0.1,3.6-1.4,7.5-5.1,7.4c-3.7,0-5.7,1.2-5.7,1.2s0.5,0.1,0.2-3
		c-0.4-3.1,1.5-7.5,4.5-8.7C48.1,53,52.9,52,52.9,52"/>
	<path class="st16" d="M58.5,73.5c0,0-4.7-4.6-7.8-6c-3.1-1.4-5-1.8-7,0c-2.1,1.8-3.8,2.5-3.8,2.5s3.9,2.6,4.8,4.3
		c1,1.7,4.1,3.6,5.9,2.7C52.4,76,58.5,73.5,58.5,73.5"/>
	<path class="st17" d="M37.4,66.2c0.1,0,1.1-2.7,1.3-6c0.2-3.3,0.2-5-1.5-6.3c-1.7-1.3-3.4-2.2-5.3-3.1c-1.9-0.9-2.7-1-2.9-1.8
		c-0.2-0.8,0.7,1,0,4.6c-0.7,3.6-1.6,5.3-0.4,6.8c1.2,1.5,3.4,1.5,5.1,2.7C35.5,64.2,37.4,66.2,37.4,66.2"/>
	<circle class="st18" cx="36.7" cy="40.3" r="13.7"/>
	<ellipse class="st19" cx="37.5" cy="24.7" rx="1.3" ry="9.7"/>
	<ellipse transform="matrix(0.992 -0.126 0.126 0.992 -2.8629 4.5335)" class="st20" cx="34.4" cy="24.9" rx="1.3" ry="8.7"/>
	<ellipse transform="matrix(0.9026 -0.4305 0.4305 0.9026 -8.0564 16.4203)" class="st19" cx="32.3" cy="26" rx="1.3" ry="9.7"/>
	<ellipse transform="matrix(0.8076 -0.5898 0.5898 0.8076 -9.9618 22.264)" class="st20" cx="29.1" cy="26.4" rx="1.3" ry="9.2"/>
	<ellipse transform="matrix(0.766 -0.6428 0.6428 0.766 -11.5816 23.4426)" class="st19" cx="26.4" cy="27.6" rx="1.3" ry="9.7"/>
	<ellipse transform="matrix(0.7291 -0.6844 0.6844 0.7291 -14.1409 25.2311)" class="st21" cx="24.8" cy="30.5" rx="1.9" ry="9.7"/>
	<ellipse transform="matrix(0.5 -0.866 0.866 0.5 -16.47 36.3636)" class="st20" cx="23.3" cy="32.4" rx="1.3" ry="9"/>
	<ellipse transform="matrix(0.2747 -0.9615 0.9615 0.2747 -16.6472 47.6434)" class="st19" cx="23.3" cy="34.9" rx="1.3" ry="9.7"/>
	
		<ellipse transform="matrix(4.180236e-02 -0.9991 0.9991 4.180236e-02 -17.1871 57.5112)" class="st19" cx="21.4" cy="37.7" rx="1.3" ry="9"/>
	<ellipse transform="matrix(0.9934 -0.1143 0.1143 0.9934 -4.3918 2.7874)" class="st20" cx="22.1" cy="39.7" rx="9.7" ry="1.3"/>
	<ellipse transform="matrix(0.9848 -0.1736 0.1736 0.9848 -7.1861 4.4031)" class="st19" cx="21.6" cy="43.3" rx="8.8" ry="1.3"/>
	<ellipse transform="matrix(0.9817 -0.1904 0.1904 0.9817 -8.393 5.1678)" class="st20" cx="22.7" cy="46.3" rx="9.7" ry="1.3"/>
	<ellipse transform="matrix(0.7702 -0.6378 0.6378 0.7702 -24.4729 26.6063)" class="st22" cx="24.7" cy="47.3" rx="9.7" ry="1.8"/>
	<ellipse transform="matrix(0.766 -0.6428 0.6428 0.766 -25.9753 28.2744)" class="st20" cx="25.9" cy="49.8" rx="9.7" ry="1.3"/>
	<ellipse transform="matrix(0.5368 -0.8437 0.8437 0.5368 -31.1542 47.323)" class="st19" cx="27.5" cy="52" rx="9" ry="1.3"/>
	<ellipse transform="matrix(0.5 -0.866 0.866 0.5 -31.9387 52.6357)" class="st19" cx="29.6" cy="54" rx="9.7" ry="1.3"/>
	<ellipse transform="matrix(0.4202 -0.9075 0.9075 0.4202 -31.2473 62.3181)" class="st20" cx="33.1" cy="55.6" rx="9.7" ry="2.1"/>
	<ellipse transform="matrix(0.1736 -0.9848 0.9848 0.1736 -26.8422 80.3931)" class="st23" cx="34.5" cy="56.2" rx="8.9" ry="1.3"/>
	
		<ellipse transform="matrix(0.9992 -3.902515e-02 3.902515e-02 0.9992 -2.1614 1.4947)" class="st19" cx="37.2" cy="56.1" rx="1.3" ry="9.7"/>
	<ellipse transform="matrix(0.9848 -0.1736 0.1736 0.9848 -9.1621 7.8068)" class="st19" cx="40" cy="56.3" rx="1.3" ry="8.9"/>
	<ellipse transform="matrix(0.9669 -0.2551 0.2551 0.9669 -12.4573 12.837)" class="st20" cx="43.3" cy="54.4" rx="1.7" ry="9.7"/>
	<ellipse transform="matrix(0.866 -0.5 0.5 0.866 -20.9382 29.7386)" class="st19" cx="45" cy="53.9" rx="1.3" ry="8.5"/>
	<ellipse transform="matrix(0.7981 -0.6025 0.6025 0.7981 -21.8112 39.1717)" class="st19" cx="47.5" cy="52.1" rx="1.3" ry="9.7"/>
	<ellipse transform="matrix(0.484 -0.8751 0.8751 0.484 -19.2127 68.5129)" class="st24" cx="48.5" cy="50.5" rx="1.8" ry="8.4"/>
	<ellipse transform="matrix(0.4193 -0.9078 0.9078 0.4193 -14.243 74.3474)" class="st20" cx="51" cy="48.3" rx="1.3" ry="9.7"/>
	<ellipse transform="matrix(0.342 -0.9397 0.9397 0.342 -8.9082 78.8376)" class="st19" cx="51.8" cy="45.8" rx="1.3" ry="8.5"/>
	<ellipse transform="matrix(0.1195 -0.9928 0.9928 0.1195 3.1545 89.9076)" class="st20" cx="52.3" cy="43.2" rx="1.6" ry="9.7"/>
	<ellipse class="st19" cx="52.3" cy="40.5" rx="7.9" ry="1.3"/>
	
		<ellipse transform="matrix(0.9953 -9.660508e-02 9.660508e-02 0.9953 -3.3546 5.2715)" class="st20" cx="52.8" cy="37.3" rx="9.7" ry="1.7"/>
	<ellipse transform="matrix(0.9397 -0.342 0.342 0.9397 -8.8547 19.7396)" class="st19" cx="51.5" cy="35" rx="8.9" ry="1.3"/>
	<ellipse transform="matrix(0.7792 -0.6267 0.6267 0.7792 -9.0075 39.1019)" class="st25" cx="51" cy="32.3" rx="9.7" ry="1.3"/>
	<ellipse transform="matrix(0.766 -0.6428 0.6428 0.766 -7.9546 38.7879)" class="st20" cx="49.3" cy="30.3" rx="8.7" ry="1.3"/>
	<ellipse transform="matrix(0.7006 -0.7136 0.7136 0.7006 -6.0953 42.0997)" class="st19" cx="47.1" cy="28.3" rx="9.7" ry="1.3"/>
	<ellipse transform="matrix(0.5 -0.866 0.866 0.5 -0.2927 52.4616)" class="st19" cx="45.3" cy="26.5" rx="9.1" ry="1.3"/>
	<ellipse transform="matrix(0.4929 -0.8701 0.8701 0.4929 0.2966 49.8921)" class="st20" cx="43" cy="24.7" rx="9.7" ry="1.3"/>
	<ellipse transform="matrix(0.1736 -0.9848 0.9848 0.1736 8.7443 59.7793)" class="st19" cx="40" cy="24.7" rx="9" ry="1.3"/>
	
		<ellipse transform="matrix(1.466516e-02 -0.9999 0.9999 1.466516e-02 7.7512 64.1787)" class="st26" cx="36.4" cy="28.2" rx="7" ry="1.3"/>
	<ellipse transform="matrix(0.9662 -0.2577 0.2577 0.9662 -6.0853 9.6829)" class="st27" cx="33.9" cy="28.1" rx="1" ry="7.4"/>
	<ellipse transform="matrix(0.6657 -0.7462 0.7462 0.6657 -10.8818 33.3563)" class="st26" cx="31.8" cy="28.8" rx="1" ry="7.4"/>
	<ellipse transform="matrix(0.8198 -0.5726 0.5726 0.8198 -11.7195 22.4209)" class="st26" cx="29.8" cy="29.8" rx="1" ry="7.4"/>
	<ellipse transform="matrix(0.4892 -0.8722 0.8722 0.4892 -12.9892 41.5446)" class="st26" cx="29" cy="31.9" rx="1" ry="6.5"/>
	<ellipse transform="matrix(0.5745 -0.8185 0.8185 0.5745 -15.7431 35.9282)" class="st27" cx="26.7" cy="33.1" rx="1" ry="7.4"/>
	<ellipse transform="matrix(0.2808 -0.9598 0.9598 0.2808 -15.0818 49.4252)" class="st26" cx="25.4" cy="34.8" rx="1" ry="6.4"/>
	<ellipse transform="matrix(0.3358 -0.9419 0.9419 0.3358 -18.5298 48.0364)" class="st26" cx="24.8" cy="37.2" rx="1" ry="7.4"/>
	<ellipse transform="matrix(0.2108 -0.9775 0.9775 0.2108 -18.7502 55.8588)" class="st26" cx="25.2" cy="39.5" rx="1" ry="6.6"/>
	
		<ellipse transform="matrix(0.9963 -8.601020e-02 8.601020e-02 0.9963 -3.4953 2.2011)" class="st28" cx="23.8" cy="41.7" rx="7.4" ry="1"/>
	<ellipse transform="matrix(0.925 -0.38 0.38 0.925 -14.5467 13.0782)" class="st26" cx="25.9" cy="43.4" rx="6.3" ry="1"/>
	<ellipse transform="matrix(0.9068 -0.4216 0.4216 0.9068 -16.9788 15.0591)" class="st26" cx="25.6" cy="45.9" rx="7.4" ry="1"/>
	<ellipse transform="matrix(0.6657 -0.7462 0.7462 0.6657 -26.5754 35.6833)" class="st26" cx="26.5" cy="47.5" rx="7.3" ry="1.3"/>
	<ellipse transform="matrix(0.7079 -0.7063 0.7063 0.7079 -26.807 34.3525)" class="st28" cx="28.1" cy="49.6" rx="7.4" ry="1"/>
	<ellipse transform="matrix(0.4284 -0.9036 0.9036 0.4284 -29.2314 56.3259)" class="st26" cx="29.9" cy="51.3" rx="6.4" ry="1"/>
	<ellipse transform="matrix(0.4237 -0.9058 0.9058 0.4237 -28.8917 59.0396)" class="st26" cx="31.9" cy="52.2" rx="7.4" ry="1.1"/>
	
		<ellipse transform="matrix(8.830117e-02 -0.9961 0.9961 8.830117e-02 -21.8032 82.0135)" class="st26" cx="33.9" cy="52.9" rx="7.4" ry="1"/>
	<ellipse transform="matrix(0.9904 -0.138 0.138 0.9904 -7.0131 5.5408)" class="st28" cx="36.4" cy="53.3" rx="1.3" ry="7.4"/>
	<ellipse transform="matrix(0.9666 -0.2562 0.2562 0.9666 -12.1648 11.5189)" class="st26" cx="38.1" cy="52.4" rx="1" ry="6.5"/>
	<ellipse transform="matrix(0.9662 -0.2577 0.2577 0.9662 -12.2668 12.2407)" class="st26" cx="40.6" cy="52.9" rx="1" ry="7.4"/>
	<ellipse transform="matrix(0.8573 -0.5148 0.5148 0.8573 -20.8149 29.356)" class="st26" cx="42.5" cy="52.2" rx="1.1" ry="7.4"/>
	<ellipse transform="matrix(0.9066 -0.4219 0.4219 0.9066 -17.3627 23.5853)" class="st26" cx="44.6" cy="51" rx="1" ry="7.4"/>
	<ellipse transform="matrix(0.7079 -0.7063 0.7063 0.7079 -21.4915 46.3139)" class="st28" cx="45.3" cy="49.1" rx="1.4" ry="6.4"/>
	<ellipse transform="matrix(0.341 -0.94 0.94 0.341 -14.0722 76.3754)" class="st27" cx="47.4" cy="48.2" rx="1.4" ry="7.2"/>
	<ellipse transform="matrix(0.4237 -0.9058 0.9058 0.4237 -13.624 69.1673)" class="st26" cx="47.5" cy="45.3" rx="1" ry="5.9"/>
	<ellipse transform="matrix(0.2599 -0.9656 0.9656 0.2599 -5.5554 80.3795)" class="st26" cx="49.7" cy="43.8" rx="1" ry="7.4"/>
	<ellipse transform="matrix(0.2108 -0.9775 0.9775 0.2108 -0.9959 81.4842)" class="st28" cx="50" cy="41.4" rx="1.3" ry="6.6"/>
	
		<ellipse transform="matrix(0.9963 -8.601020e-02 8.601020e-02 0.9963 -3.2 4.4506)" class="st26" cx="50" cy="39.4" rx="7.4" ry="1"/>
	<ellipse transform="matrix(0.8884 -0.4591 0.4591 0.8884 -11.9703 26.6655)" class="st26" cx="48.9" cy="38" rx="6.4" ry="1.3"/>
	<ellipse transform="matrix(0.9068 -0.4216 0.4216 0.9068 -10.2168 23.878)" class="st28" cx="48.9" cy="35" rx="7.4" ry="1"/>
	<ellipse transform="matrix(0.9142 -0.4053 0.4053 0.9142 -9.4897 21.9641)" class="st26" cx="47.1" cy="33.4" rx="6.7" ry="1"/>
	<ellipse transform="matrix(0.7079 -0.7063 0.7063 0.7079 -8.6348 41.8874)" class="st26" cx="46.3" cy="31.4" rx="7.4" ry="1"/>
	<ellipse transform="matrix(0.5458 -0.8379 0.8379 0.5458 -5.7339 51.2797)" class="st26" cx="44.4" cy="30.9" rx="6.5" ry="1.4"/>
	<ellipse transform="matrix(0.4237 -0.9058 0.9058 0.4237 -1.5167 55.2582)" class="st28" cx="42.7" cy="28.8" rx="7.4" ry="1"/>
	<ellipse transform="matrix(0.2599 -0.9656 0.9656 0.2599 2.9256 59.9256)" class="st26" cx="40.6" cy="28.1" rx="7.4" ry="1"/>
	<ellipse transform="matrix(0.4256 -0.9049 0.9049 0.4256 -3.0072 50.5927)" class="st26" cx="38.3" cy="27.7" rx="7.4" ry="1"/>
	<ellipse class="st19" cx="37.2" cy="33.7" rx="0.5" ry="3.9"/>
	<ellipse transform="matrix(0.991 -0.1337 0.1337 0.991 -4.2455 5.1271)" class="st19" cx="36" cy="34.2" rx="0.5" ry="3.5"/>
	<ellipse transform="matrix(0.9397 -0.342 0.342 0.9397 -9.5484 13.9855)" class="st19" cx="34.9" cy="34.1" rx="0.5" ry="3.9"/>
	<ellipse transform="matrix(0.866 -0.5 0.5 0.866 -12.7577 21.5345)" class="st19" cx="33.8" cy="34.6" rx="0.5" ry="3.9"/>
	<ellipse transform="matrix(0.766 -0.6428 0.6428 0.766 -14.174 29.2219)" class="st23" cx="33.1" cy="34.1" rx="1.4" ry="4.7"/>
	<ellipse transform="matrix(0.566 -0.8244 0.8244 0.566 -15.8783 42.0425)" class="st19" cx="32" cy="36.1" rx="0.5" ry="3.9"/>
	<ellipse transform="matrix(0.5 -0.866 0.866 0.5 -16.3741 46.1843)" class="st19" cx="31.8" cy="37.3" rx="0.4" ry="3.4"/>
	<ellipse transform="matrix(0.342 -0.9397 0.9397 0.342 -14.8209 53.3917)" class="st19" cx="30.7" cy="37.3" rx="1.3" ry="4.3"/>
	
		<ellipse transform="matrix(6.019404e-02 -0.9982 0.9982 6.019404e-02 -10.5741 67.3862)" class="st23" cx="30.5" cy="39.3" rx="0.5" ry="3.9"/>
	<ellipse class="st19" cx="30.9" cy="40.6" rx="3.4" ry="0.7"/>
	<ellipse transform="matrix(0.9848 -0.1736 0.1736 0.9848 -6.8252 5.86)" class="st19" cx="30.1" cy="41.9" rx="4.4" ry="0.7"/>
	<ellipse transform="matrix(0.8682 -0.4962 0.4962 0.8682 -17.435 20.7076)" class="st23" cx="30.3" cy="43.2" rx="4.6" ry="0.5"/>
	<ellipse transform="matrix(0.866 -0.5 0.5 0.866 -17.7594 21.5413)" class="st19" cx="31.3" cy="43.9" rx="3.9" ry="0.5"/>
	<ellipse transform="matrix(0.766 -0.6428 0.6428 0.766 -21.7265 31.08)" class="st19" cx="31.8" cy="45.4" rx="4.4" ry="0.8"/>
	<ellipse transform="matrix(0.8573 -0.5148 0.5148 0.8573 -18.8538 23.4347)" class="st29" cx="32.8" cy="45.7" rx="3.9" ry="0.5"/>
	<ellipse transform="matrix(0.5 -0.866 0.866 0.5 -23.7082 52.2215)" class="st23" cx="33.4" cy="46.6" rx="4.4" ry="0.8"/>
	<ellipse transform="matrix(0.342 -0.9397 0.9397 0.342 -21.1161 63.6619)" class="st19" cx="34.9" cy="46.9" rx="3.9" ry="0.5"/>
	<ellipse class="st19" cx="36.4" cy="47.3" rx="0.9" ry="4"/>
	<ellipse class="st29" cx="37.2" cy="47.3" rx="0.5" ry="3.9"/>
	<ellipse transform="matrix(0.9848 -0.1736 0.1736 0.9848 -7.6147 7.3897)" class="st19" cx="38.4" cy="47.2" rx="0.5" ry="3.9"/>
	<ellipse transform="matrix(0.9816 -0.191 0.191 0.9816 -8.2308 8.4234)" class="st23" cx="39.6" cy="46.9" rx="0.5" ry="3.9"/>
	<ellipse transform="matrix(0.866 -0.5 0.5 0.866 -17.7045 26.751)" class="st19" cx="41.1" cy="46.4" rx="0.9" ry="4.2"/>
	<ellipse transform="matrix(0.7648 -0.6443 0.6443 0.7648 -19.661 37.572)" class="st19" cx="41.6" cy="45.7" rx="0.5" ry="3.9"/>
	<ellipse transform="matrix(0.6428 -0.766 0.766 0.6428 -19.2023 48.5617)" class="st19" cx="42.5" cy="44.9" rx="0.5" ry="3.9"/>
	<ellipse transform="matrix(0.5 -0.866 0.866 0.5 -16.2028 59.5931)" class="st23" cx="43.5" cy="43.8" rx="0.8" ry="4.2"/>
	<ellipse transform="matrix(0.4626 -0.8865 0.8865 0.4626 -14.4993 61.7064)" class="st19" cx="43.7" cy="42.8" rx="0.5" ry="3.9"/>
	<ellipse transform="matrix(0.1736 -0.9848 0.9848 0.1736 -5.3863 78.4574)" class="st19" cx="44.1" cy="42.4" rx="1.3" ry="4.2"/>
	<ellipse class="st19" cx="44.1" cy="40.3" rx="4" ry="0.7"/>
	<ellipse transform="matrix(0.9826 -0.1857 0.1857 0.9826 -6.5231 8.988)" class="st29" cx="44.7" cy="39.3" rx="4.7" ry="0.7"/>
	<ellipse transform="matrix(0.9397 -0.342 0.342 0.9397 -10.3202 17.2011)" class="st23" cx="43.6" cy="37.9" rx="4" ry="0.8"/>
	<ellipse transform="matrix(0.866 -0.5 0.5 0.866 -12.5027 26.4763)" class="st19" cx="43.2" cy="36.6" rx="4.2" ry="0.9"/>
	<ellipse transform="matrix(0.766 -0.6428 0.6428 0.766 -13.6056 35.4213)" class="st19" cx="41.9" cy="36.4" rx="3.3" ry="0.4"/>
	<ellipse transform="matrix(0.6428 -0.766 0.766 0.6428 -12.1349 44.4685)" class="st19" cx="41.6" cy="35.2" rx="3.9" ry="0.5"/>
	<ellipse transform="matrix(0.5 -0.866 0.866 0.5 -9.6147 52.4752)" class="st23" cx="40.6" cy="34.6" rx="3.9" ry="0.5"/>
	<ellipse transform="matrix(0.342 -0.9397 0.9397 0.342 -6.8061 59.7367)" class="st19" cx="39.3" cy="34.7" rx="3.2" ry="0.5"/>
	<ellipse transform="matrix(0.1736 -0.9848 0.9848 0.1736 -0.5499 65.7223)" class="st29" cx="38.9" cy="33.2" rx="4.6" ry="0.9"/>
	<circle class="st30" cx="37.5" cy="40.6" r="6.2"/>
	<path class="st31" d="M34.2,37.2c-0.7,0.4-1.6,0.4-1.6,0.4L32,39.1c0,0-1.1,1.3-0.2,1.6c0.8,0.3,1.6-0.7,1.1,0.7
		c-0.5,1.4-1.5,0.6-0.5,1.4c1,0.8,1,0.8,1,0.8s-1.4,0.4,0.1,0.8c1.5,0.3,2.9-0.5,3.3,0.5c0.4,1.1-1.1,1.3,0.4,1.1
		c1.5-0.2,2.5-0.6,2.5-0.6l-2.3-1.9c0,0-2.2-0.7-2.5-1.4c-0.3-0.8,0.2-0.2-0.5-1c-0.7-0.9-0.7,0-0.7-0.9s0.2-1.3,0.2-1.3
		s0.4-0.4,0.5-0.7S34.2,37.2,34.2,37.2z"/>
	<ellipse transform="matrix(0.9564 -0.2919 0.2919 0.9564 -9.3224 25.8496)" class="st18" cx="82" cy="44.2" rx="10.3" ry="11.4"/>
	<ellipse transform="matrix(0.9564 -0.2919 0.2919 0.9564 -5.7948 24.3488)" class="st19" cx="78.7" cy="31.6" rx="1" ry="8.1"/>
	<ellipse transform="matrix(0.9173 -0.3983 0.3983 0.9173 -6.5832 33.1819)" class="st20" cx="76.6" cy="32.4" rx="1" ry="7.3"/>
	<ellipse transform="matrix(0.7643 -0.6448 0.6448 0.7643 -4.0452 56.516)" class="st19" cx="75.3" cy="33.8" rx="1" ry="7.9"/>
	<ellipse transform="matrix(0.6401 -0.7683 0.7683 0.6401 -0.3927 68.7268)" class="st20" cx="73.2" cy="34.8" rx="1" ry="7.4"/>
	
		<ellipse transform="matrix(0.5884 -0.8085 0.8085 0.5884 2.885970e-02 72.7786)" class="st19" cx="71.5" cy="36.4" rx="1" ry="7.8"/>
	<ellipse transform="matrix(0.5454 -0.8382 0.8382 0.5454 -0.3757 77.2705)" class="st21" cx="71" cy="39" rx="1.5" ry="7.7"/>
	<ellipse transform="matrix(0.2724 -0.9622 0.9622 0.2724 11.8933 97.4974)" class="st20" cx="70.4" cy="40.9" rx="1" ry="7"/>
	
		<ellipse transform="matrix(1.209497e-02 -0.9999 0.9999 1.209497e-02 27.3347 113.2775)" class="st19" cx="71" cy="42.8" rx="1" ry="7.3"/>
	<ellipse transform="matrix(0.969 -0.247 0.247 0.969 -9.0561 18.7853)" class="st19" cx="70.4" cy="45.5" rx="6.7" ry="1.1"/>
	<ellipse transform="matrix(0.9115 -0.4112 0.4112 0.9115 -12.9747 33.4871)" class="st20" cx="71.3" cy="46.9" rx="7.3" ry="1.1"/>
	<ellipse transform="matrix(0.8821 -0.471 0.471 0.8821 -15.0247 39.7143)" class="st19" cx="71.8" cy="49.9" rx="6.6" ry="1.1"/>
	<ellipse transform="matrix(0.8731 -0.4875 0.4875 0.8731 -16.0438 42.3569)" class="st20" cx="73.4" cy="52" rx="7.3" ry="1.1"/>
	<ellipse transform="matrix(0.5035 -0.864 0.864 0.5035 -7.9939 90.8386)" class="st22" cx="75" cy="52.4" rx="7.6" ry="1.4"/>
	<ellipse transform="matrix(0.4992 -0.8665 0.8665 0.4992 -8.616 93.397)" class="st20" cx="76.5" cy="54.2" rx="7.6" ry="1"/>
	<ellipse transform="matrix(0.2206 -0.9754 0.9754 0.2206 6.7891 119.5998)" class="st19" cx="78.2" cy="55.6" rx="7.3" ry="1"/>
	<ellipse transform="matrix(0.1809 -0.9835 0.9835 0.1809 9.9879 125.2721)" class="st19" cx="80.2" cy="56.6" rx="7.9" ry="1"/>
	
		<ellipse transform="matrix(9.537746e-02 -0.9954 0.9954 9.537746e-02 18.2916 134.4638)" class="st20" cx="83.1" cy="57.2" rx="7.9" ry="1.6"/>
	<ellipse transform="matrix(0.9903 -0.1389 0.1389 0.9903 -7.1465 12.2534)" class="st23" cx="84.2" cy="57.3" rx="1" ry="7.3"/>
	<ellipse transform="matrix(0.9456 -0.3252 0.3252 0.9456 -13.7489 31.1051)" class="st19" cx="86.2" cy="56.7" rx="1" ry="8.1"/>
	<ellipse transform="matrix(0.8991 -0.4378 0.4378 0.8991 -15.6902 44.2932)" class="st19" cx="88.2" cy="56.2" rx="1" ry="7.4"/>
	<ellipse transform="matrix(0.8638 -0.5039 0.5039 0.8638 -14.9474 52.7642)" class="st20" cx="90.1" cy="54" rx="1.3" ry="8"/>
	<ellipse transform="matrix(0.7152 -0.6989 0.6989 0.7152 -11.2225 78.9332)" class="st19" cx="91.2" cy="53.2" rx="1" ry="6.9"/>
	<ellipse transform="matrix(0.6281 -0.7782 0.7782 0.6281 -5.4308 91.1272)" class="st19" cx="92.6" cy="51.2" rx="1" ry="7.8"/>
	<ellipse transform="matrix(0.2561 -0.9666 0.9666 0.2561 20.9927 126.8336)" class="st24" cx="92.9" cy="49.8" rx="1.4" ry="6.5"/>
	<ellipse transform="matrix(0.1783 -0.984 0.984 0.1783 30.688 131.6372)" class="st20" cx="94.2" cy="47.4" rx="1" ry="7.4"/>
	
		<ellipse transform="matrix(8.953693e-02 -0.996 0.996 8.953693e-02 40.6566 134.969)" class="st19" cx="94.2" cy="45.2" rx="1" ry="6.4"/>
	<ellipse transform="matrix(0.9868 -0.1618 0.1618 0.9868 -5.7332 15.7451)" class="st20" cx="93.8" cy="43.1" rx="7.3" ry="1.3"/>
	<ellipse transform="matrix(0.9564 -0.2919 0.2919 0.9564 -7.887 28.9764)" class="st19" cx="93.2" cy="40.9" rx="6" ry="1.1"/>
	<ellipse transform="matrix(0.9194 -0.3934 0.3934 0.9194 -7.5794 39.5713)" class="st20" cx="92.7" cy="38.3" rx="7.3" ry="1.4"/>
	<ellipse transform="matrix(0.7764 -0.6302 0.6302 0.7764 -2.7177 65.76)" class="st19" cx="91.3" cy="36.7" rx="6.8" ry="1"/>
	<ellipse transform="matrix(0.5174 -0.8558 0.8558 0.5174 13.8528 94.0159)" class="st25" cx="90.3" cy="34.7" rx="7.6" ry="1"/>
	<ellipse transform="matrix(0.4988 -0.8667 0.8667 0.4988 15.364 93.554)" class="st20" cx="88.6" cy="33.5" rx="6.8" ry="1"/>
	<ellipse transform="matrix(0.4133 -0.9106 0.9106 0.4133 21.2839 97.777)" class="st19" cx="86.5" cy="32.4" rx="7.7" ry="1"/>
	<ellipse transform="matrix(0.1807 -0.9835 0.9835 0.1807 38.6441 109.0233)" class="st19" cx="84.8" cy="31.3" rx="7.4" ry="1"/>
	<ellipse transform="matrix(0.1734 -0.9849 0.9849 0.1734 38.3835 106.5296)" class="st20" cx="82.7" cy="30.4" rx="7.9" ry="1"/>
	<ellipse transform="matrix(0.9903 -0.1389 0.1389 0.9903 -3.5298 11.4827)" class="st19" cx="80.5" cy="31" rx="1" ry="7.4"/>
	<ellipse transform="matrix(0.9602 -0.2793 0.2793 0.9602 -6.523 23.3936)" class="st26" cx="78.8" cy="34.6" rx="1" ry="5.8"/>
	<ellipse transform="matrix(0.8622 -0.5066 0.5066 0.8622 -7.1537 43.8249)" class="st27" cx="77" cy="35.1" rx="0.7" ry="6.2"/>
	<ellipse transform="matrix(0.4673 -0.8841 0.8841 0.4673 8.3517 86.1283)" class="st26" cx="75.6" cy="36.1" rx="0.8" ry="5.9"/>
	<ellipse transform="matrix(0.6553 -0.7554 0.7554 0.6553 -2.5757 69.1151)" class="st26" cx="74.4" cy="37.4" rx="0.8" ry="6"/>
	<ellipse transform="matrix(0.26 -0.9656 0.9656 0.26 17.2096 100.7943)" class="st26" cx="74.4" cy="39.2" rx="0.8" ry="5"/>
	<ellipse transform="matrix(0.3594 -0.9332 0.9332 0.3594 8.8384 94.1975)" class="st27" cx="73" cy="40.7" rx="0.8" ry="5.8"/>
	
		<ellipse transform="matrix(1.948660e-02 -0.9998 0.9998 1.948660e-02 28.8716 113.9671)" class="st26" cx="72.5" cy="42.3" rx="0.8" ry="4.9"/>
	
		<ellipse transform="matrix(8.198161e-02 -0.9966 0.9966 8.198161e-02 22.5518 113.0838)" class="st26" cx="72.7" cy="44.3" rx="0.8" ry="5.7"/>
	
		<ellipse transform="matrix(0.9982 -5.999624e-02 5.999624e-02 0.9982 -2.6337 4.4953)" class="st26" cx="73.5" cy="46.1" rx="5" ry="0.8"/>
	<ellipse transform="matrix(0.9241 -0.3822 0.3822 0.9241 -12.8412 31.565)" class="st28" cx="73" cy="48.1" rx="5.6" ry="0.8"/>
	<ellipse transform="matrix(0.7477 -0.664 0.664 0.7477 -13.6519 62.1269)" class="st26" cx="74.9" cy="49" rx="4.8" ry="0.8"/>
	<ellipse transform="matrix(0.7149 -0.6992 0.6992 0.7149 -14.2612 67.2534)" class="st26" cx="75.3" cy="51.1" rx="5.7" ry="0.8"/>
	<ellipse transform="matrix(0.3683 -0.9297 0.9297 0.3683 -0.2145 103.998)" class="st26" cx="76.4" cy="52.2" rx="5.8" ry="1"/>
	<ellipse transform="matrix(0.4226 -0.9063 0.9063 0.4226 -3.3817 101.6298)" class="st28" cx="78.1" cy="53.5" rx="5.9" ry="0.8"/>
	<ellipse transform="matrix(0.1055 -0.9944 0.9944 0.1055 17.2241 127.9836)" class="st26" cx="79.8" cy="54.4" rx="5.2" ry="0.7"/>
	<ellipse transform="matrix(0.1006 -0.9949 0.9949 0.1006 18.8008 130.2626)" class="st26" cx="81.5" cy="54.7" rx="6.1" ry="0.9"/>
	<ellipse transform="matrix(0.9766 -0.2151 0.2151 0.9766 -9.8566 19.1416)" class="st26" cx="83" cy="54.9" rx="0.7" ry="6.2"/>
	<ellipse transform="matrix(0.913 -0.4081 0.4081 0.913 -14.9002 39.4187)" class="st28" cx="84.9" cy="54.6" rx="1" ry="6.2"/>
	<ellipse transform="matrix(0.863 -0.5052 0.5052 0.863 -15.2845 50.7485)" class="st26" cx="85.9" cy="53.6" rx="0.7" ry="5.4"/>
	<ellipse transform="matrix(0.8622 -0.5066 0.5066 0.8622 -14.9514 51.8348)" class="st26" cx="87.8" cy="53.4" rx="0.7" ry="6.2"/>
	<ellipse transform="matrix(0.7038 -0.7104 0.7104 0.7038 -10.8565 78.7895)" class="st26" cx="89" cy="52.4" rx="0.9" ry="6"/>
	<ellipse transform="matrix(0.7701 -0.638 0.638 0.7701 -11.7903 69.3018)" class="st26" cx="90.2" cy="51" rx="0.7" ry="6.1"/>
	<ellipse transform="matrix(0.521 -0.8536 0.8536 0.521 1.0895 100.674)" class="st28" cx="90.2" cy="49.4" rx="1.1" ry="5"/>
	
		<ellipse transform="matrix(8.976635e-02 -0.996 0.996 8.976635e-02 35.4057 135.0544)" class="st27" cx="91.6" cy="48.2" rx="1.2" ry="5.5"/>
	<ellipse transform="matrix(0.1842 -0.9829 0.9829 0.1842 29.1813 126.7538)" class="st26" cx="90.9" cy="45.8" rx="0.8" ry="4.6"/>
	<ellipse transform="matrix(1 -4.696284e-03 4.696284e-03 1 -0.2064 0.4331)" class="st26" cx="92.1" cy="44.2" rx="5.6" ry="0.8"/>
	
		<ellipse transform="matrix(0.9982 -5.916384e-02 5.916384e-02 0.9982 -2.3323 5.5011)" class="st28" cx="91.7" cy="42.1" rx="5" ry="1"/>
	<ellipse transform="matrix(0.9241 -0.3822 0.3822 0.9241 -8.5577 37.972)" class="st26" cx="91.3" cy="40.5" rx="5.6" ry="0.8"/>
	<ellipse transform="matrix(0.6812 -0.7321 0.7321 0.6812 -0.3128 78.6135)" class="st26" cx="90.1" cy="39.7" rx="4.9" ry="1.1"/>
	<ellipse transform="matrix(0.7149 -0.6992 0.6992 0.7149 -0.6166 73.1753)" class="st28" cx="89.4" cy="37.3" rx="5.7" ry="0.8"/>
	<ellipse transform="matrix(0.7279 -0.6857 0.6857 0.7279 -1.0907 70.0806)" class="st26" cx="87.8" cy="36.4" rx="5.1" ry="0.8"/>
	<ellipse transform="matrix(0.4226 -0.9063 0.9063 0.4226 18.3469 98.7787)" class="st26" cx="86.7" cy="35" rx="5.9" ry="0.8"/>
	<ellipse transform="matrix(0.2283 -0.9736 0.9736 0.2283 31.6519 110.0187)" class="st26" cx="85.2" cy="35" rx="5.3" ry="1.1"/>
	<ellipse transform="matrix(0.1011 -0.9949 0.9949 0.1011 41.4346 113.3602)" class="st28" cx="83.4" cy="33.8" rx="6.1" ry="0.7"/>
	
		<ellipse transform="matrix(0.9983 -5.907788e-02 5.907788e-02 0.9983 -1.8423 4.8883)" class="st26" cx="81.8" cy="33.6" rx="0.7" ry="6.2"/>
	<ellipse transform="matrix(0.1031 -0.9947 0.9947 0.1031 38.2224 109.939)" class="st26" cx="80.1" cy="33.8" rx="6.1" ry="0.7"/>
	<ellipse transform="matrix(0.9564 -0.2919 0.2919 0.9564 -7.8077 25.2506)" class="st19" cx="80.7" cy="38.8" rx="0.4" ry="3.3"/>
	<ellipse transform="matrix(0.9144 -0.4048 0.4048 0.9144 -9.1248 35.7601)" class="st19" cx="80" cy="39.5" rx="0.4" ry="2.9"/>
	<ellipse transform="matrix(0.8185 -0.5745 0.5745 0.8185 -8.4049 52.6613)" class="st19" cx="79.1" cy="39.6" rx="0.4" ry="3.3"/>
	<ellipse transform="matrix(0.7149 -0.6992 0.6992 0.7149 -5.7802 66.3659)" class="st19" cx="78.5" cy="40.3" rx="0.4" ry="3.2"/>
	<ellipse transform="matrix(0.5953 -0.8035 0.8035 0.5953 -0.6743 78.7488)" class="st23" cx="77.8" cy="40" rx="1.1" ry="3.8"/>
	<ellipse transform="matrix(0.3493 -0.937 0.937 0.3493 11.2202 99.9276)" class="st19" cx="77.6" cy="41.9" rx="0.4" ry="3.1"/>
	<ellipse transform="matrix(0.272 -0.9623 0.9623 0.272 15.3369 105.9869)" class="st19" cx="77.7" cy="42.9" rx="0.4" ry="2.6"/>
	
		<ellipse transform="matrix(9.574690e-02 -0.9954 0.9954 9.574690e-02 26.6635 115.5549)" class="st19" cx="76.9" cy="43.1" rx="1.1" ry="3.3"/>
	<ellipse transform="matrix(0.9739 -0.2271 0.2271 0.9739 -8.1468 18.7169)" class="st23" cx="77.3" cy="44.8" rx="3" ry="0.4"/>
	<ellipse transform="matrix(0.9564 -0.2919 0.2919 0.9564 -9.9558 24.7328)" class="st19" cx="77.9" cy="45.7" rx="2.6" ry="0.6"/>
	<ellipse transform="matrix(0.882 -0.4712 0.4712 0.882 -12.9671 42.1074)" class="st19" cx="77.6" cy="47" rx="3.3" ry="0.6"/>
	<ellipse transform="matrix(0.6501 -0.7598 0.7598 0.6501 -9.0866 76.058)" class="st23" cx="78" cy="47.9" rx="3.5" ry="0.4"/>
	<ellipse transform="matrix(0.6464 -0.763 0.763 0.6464 -8.8876 77.3244)" class="st19" cx="79" cy="48.3" rx="3" ry="0.4"/>
	<ellipse transform="matrix(0.4978 -0.8673 0.8673 0.4978 -2.7392 93.8961)" class="st19" cx="79.7" cy="49.3" rx="3.5" ry="0.6"/>
	<ellipse transform="matrix(0.6325 -0.7746 0.7746 0.6325 -8.6446 80.5042)" class="st29" cx="80.5" cy="49.4" rx="3.1" ry="0.4"/>
	<ellipse transform="matrix(0.1796 -0.9837 0.9837 0.1796 17.38 120.7942)" class="st23" cx="81.1" cy="50" rx="3.6" ry="0.6"/>
	
		<ellipse transform="matrix(1.957816e-02 -0.9998 0.9998 1.957816e-02 30.8207 131.1385)" class="st19" cx="82.3" cy="49.9" rx="3.3" ry="0.4"/>
	<ellipse transform="matrix(0.9565 -0.2916 0.2916 0.9565 -10.8994 26.4908)" class="st19" cx="83.4" cy="49.8" rx="0.6" ry="3.3"/>
	<ellipse transform="matrix(0.9564 -0.2919 0.2919 0.9564 -10.8375 26.6976)" class="st29" cx="84.1" cy="49.7" rx="0.4" ry="3.3"/>
	<ellipse transform="matrix(0.8991 -0.4378 0.4378 0.8991 -13.0282 42.1421)" class="st19" cx="84.9" cy="49.3" rx="0.4" ry="3.3"/>
	<ellipse transform="matrix(0.8919 -0.4521 0.4521 0.8919 -12.824 43.9911)" class="st23" cx="85.6" cy="48.8" rx="0.4" ry="3.3"/>
	<ellipse transform="matrix(0.7165 -0.6976 0.6976 0.7165 -9.0141 74.04)" class="st19" cx="86.6" cy="48.1" rx="0.7" ry="3.4"/>
	<ellipse transform="matrix(0.5869 -0.8097 0.8097 0.5869 -2.5407 89.8796)" class="st19" cx="86.8" cy="47.4" rx="0.4" ry="3.2"/>
	<ellipse transform="matrix(0.44 -0.898 0.898 0.44 7.0103 104.3903)" class="st19" cx="87.2" cy="46.6" rx="0.4" ry="3.1"/>
	<ellipse transform="matrix(0.2736 -0.9619 0.9619 0.2736 19.9276 117.4199)" class="st23" cx="87.7" cy="45.5" rx="0.6" ry="3.3"/>
	<ellipse transform="matrix(0.2286 -0.9735 0.9735 0.2286 24.0504 119.7056)" class="st19" cx="87.6" cy="44.7" rx="0.4" ry="3"/>
	
		<ellipse transform="matrix(0.9952 -9.825079e-02 9.825079e-02 0.9952 -3.9269 8.8365)" class="st19" cx="87.8" cy="44.3" rx="3.1" ry="1"/>
	<ellipse transform="matrix(0.9564 -0.2919 0.2919 0.9564 -8.6225 27.3198)" class="st19" cx="87.2" cy="42.6" rx="3" ry="0.6"/>
	<ellipse transform="matrix(0.8756 -0.483 0.483 0.8756 -9.2415 47.427)" class="st29" cx="87.5" cy="41.7" rx="3.5" ry="0.6"/>
	<ellipse transform="matrix(0.7754 -0.6314 0.6314 0.7754 -6.3406 63.6613)" class="st23" cx="86.3" cy="40.7" rx="3.1" ry="0.6"/>
	
		<ellipse transform="matrix(0.6437 -0.7653 0.7653 0.6437 6.115173e-02 79.7578)" class="st19" cx="85.7" cy="39.8" rx="3.2" ry="0.8"/>
	<ellipse transform="matrix(0.4997 -0.8662 0.8662 0.4997 7.7669 93.3746)" class="st19" cx="84.7" cy="40" rx="2.6" ry="0.3"/>
	<ellipse transform="matrix(0.3422 -0.9396 0.9396 0.3422 18.6871 104.8876)" class="st19" cx="84.3" cy="39.1" rx="3.2" ry="0.4"/>
	<ellipse transform="matrix(0.1809 -0.9835 0.9835 0.1809 30.176 113.7689)" class="st23" cx="83.4" cy="38.8" rx="3.2" ry="0.4"/>
	
		<ellipse transform="matrix(1.938919e-02 -0.9998 0.9998 1.938919e-02 41.6445 120.8636)" class="st19" cx="82.4" cy="39.2" rx="2.7" ry="0.3"/>
	<ellipse transform="matrix(0.9902 -0.1394 0.1394 0.9902 -4.5063 11.7746)" class="st29" cx="81.8" cy="38.1" rx="0.7" ry="3.8"/>
	<ellipse transform="matrix(0.9564 -0.2919 0.2919 0.9564 -9.336 26.0346)" class="st30" cx="82.6" cy="44.3" rx="4.6" ry="5.1"/>
	<path class="st31" d="M79.4,42.2c-0.4,0.5-1.1,0.6-1.1,0.6l-0.1,1.4c0,0-0.5,1.2,0.2,1.3c0.7,0,1-0.9,1,0.3c0,1.3-0.9,0.8,0,1.3
		s0.9,0.4,0.9,0.4s-0.9,0.6,0.3,0.6c1.1-0.1,2-1.1,2.5-0.3s-0.5,1.3,0.5,0.8c1.1-0.5,1.6-1,1.6-1l-2.1-1c0,0-1.7-0.1-2.1-0.6
		s0.1-0.2-0.6-0.7s-0.5,0.1-0.7-0.5c-0.2-0.6-0.1-1.1-0.1-1.1s0.2-0.4,0.2-0.6C79.8,42.7,79.4,42.2,79.4,42.2z"/>
	
		<ellipse transform="matrix(0.9539 -0.3002 0.3002 0.9539 -20.4436 20.6973)" class="st18" cx="57.1" cy="76.9" rx="10.7" ry="9.6"/>
	<ellipse transform="matrix(0.9539 -0.3002 0.3002 0.9539 -17.3793 19.3821)" class="st19" cx="54.4" cy="66.3" rx="1" ry="6.8"/>
	<ellipse transform="matrix(0.9023 -0.4312 0.4312 0.9023 -23.8418 29.0577)" class="st20" cx="52.2" cy="67.1" rx="1" ry="6.2"/>
	<ellipse transform="matrix(0.7009 -0.7133 0.7133 0.7009 -33.571 56.6786)" class="st19" cx="50.8" cy="68.4" rx="1" ry="7"/>
	<ellipse transform="matrix(0.5496 -0.8354 0.8354 0.5496 -36.0755 71.8042)" class="st20" cx="48.6" cy="69.4" rx="1" ry="6.7"/>
	<ellipse transform="matrix(0.4911 -0.8711 0.8711 0.4911 -37.8895 76.7942)" class="st19" cx="46.8" cy="70.8" rx="0.9" ry="7.2"/>
	<ellipse transform="matrix(0.4395 -0.8982 0.8982 0.4395 -39.7894 82.4629)" class="st21" cx="46.2" cy="73.1" rx="1.4" ry="7.2"/>
	<ellipse transform="matrix(0.1716 -0.9852 0.9852 0.1716 -36.0419 106.732)" class="st20" cx="45.4" cy="74.8" rx="0.9" ry="6.9"/>
	
		<ellipse transform="matrix(0.9985 -5.412930e-02 5.412930e-02 0.9985 -4.0689 2.5994)" class="st19" cx="46" cy="76.4" rx="7.5" ry="0.9"/>
	<ellipse transform="matrix(0.9645 -0.2642 0.2642 0.9645 -19.2085 14.7331)" class="st19" cx="45.2" cy="78.8" rx="7" ry="0.9"/>
	<ellipse transform="matrix(0.918 -0.3965 0.3965 0.918 -27.9086 24.8325)" class="st20" cx="46.1" cy="79.9" rx="7.6" ry="0.9"/>
	<ellipse transform="matrix(0.8954 -0.4453 0.4453 0.8954 -31.8573 29.3222)" class="st19" cx="46.5" cy="82.5" rx="6.9" ry="0.9"/>
	<ellipse transform="matrix(0.8884 -0.4592 0.4592 0.8884 -33.3068 31.4114)" class="st20" cx="47.9" cy="84.2" rx="7.6" ry="0.9"/>
	<ellipse transform="matrix(0.5884 -0.8086 0.8086 0.5884 -47.8159 74.8782)" class="st22" cx="49.6" cy="84.4" rx="7.3" ry="1.3"/>
	<ellipse transform="matrix(0.582 -0.8132 0.8132 0.582 -48.4706 77.4026)" class="st20" cx="51.1" cy="85.8" rx="7.3" ry="0.9"/>
	<ellipse transform="matrix(0.3079 -0.9514 0.9514 0.3079 -46.1986 110.375)" class="st19" cx="52.8" cy="86.9" rx="6.5" ry="1"/>
	<ellipse transform="matrix(0.2644 -0.9644 0.9644 0.2644 -44.367 117.3402)" class="st19" cx="54.7" cy="87.8" rx="7" ry="1"/>
	<ellipse transform="matrix(0.1741 -0.9847 0.9847 0.1741 -39.0172 129.5181)" class="st20" cx="57.7" cy="88" rx="7" ry="1.6"/>
	<ellipse transform="matrix(0.9939 -0.1101 0.1101 0.9939 -9.3442 7.0153)" class="st23" cx="58.8" cy="88.1" rx="1" ry="6.2"/>
	<ellipse transform="matrix(0.9399 -0.3414 0.3414 0.9399 -26.1857 26.0278)" class="st19" cx="60.8" cy="87.4" rx="1" ry="6.8"/>
	<ellipse transform="matrix(0.8779 -0.4789 0.4789 0.8779 -33.8938 40.7684)" class="st19" cx="63" cy="86.8" rx="1" ry="6.3"/>
	<ellipse transform="matrix(0.8297 -0.5582 0.5582 0.8297 -36.2997 50.7427)" class="st20" cx="65" cy="84.9" rx="1.3" ry="6.9"/>
	<ellipse transform="matrix(0.6388 -0.7694 0.7694 0.6388 -40.7935 81.3291)" class="st19" cx="66.2" cy="84.1" rx="1" ry="6.1"/>
	<ellipse transform="matrix(0.5361 -0.8442 0.8442 0.5361 -38.0635 95.3484)" class="st19" cx="67.7" cy="82.3" rx="1" ry="7.1"/>
	<ellipse transform="matrix(0.1525 -0.9883 0.9883 0.1525 -22.3707 135.9534)" class="st24" cx="68.1" cy="81" rx="1.3" ry="6.4"/>
	
		<ellipse transform="matrix(8.758266e-02 -0.9962 0.9962 8.758266e-02 -15.2236 141.2366)" class="st20" cx="69.5" cy="78.9" rx="0.9" ry="7.5"/>
	
		<ellipse transform="matrix(1.018156e-02 -0.9999 0.9999 1.018156e-02 -8.1554 145.8299)" class="st19" cx="69.6" cy="77" rx="0.9" ry="6.5"/>
	<ellipse transform="matrix(0.9805 -0.1963 0.1963 0.9805 -13.411 15.0778)" class="st20" cx="69.4" cy="75.2" rx="7.6" ry="1.1"/>
	<ellipse transform="matrix(0.9539 -0.3002 0.3002 0.9539 -18.8509 24.0282)" class="st19" cx="68.8" cy="73.4" rx="6.2" ry="0.9"/>
	<ellipse transform="matrix(0.9244 -0.3815 0.3815 0.9244 -21.9525 31.5047)" class="st20" cx="68.5" cy="71.1" rx="7.6" ry="1.2"/>
	<ellipse transform="matrix(0.8138 -0.5811 0.5811 0.8138 -28.1044 51.9858)" class="st19" cx="67.1" cy="69.9" rx="6.9" ry="0.9"/>
	<ellipse transform="matrix(0.5983 -0.8013 0.8013 0.5983 -28.0972 80.3816)" class="st25" cx="66.1" cy="68.2" rx="7.3" ry="0.9"/>
	<ellipse transform="matrix(0.5823 -0.813 0.813 0.5823 -27.7664 80.4708)" class="st20" cx="64.4" cy="67.3" rx="6.5" ry="0.9"/>
	<ellipse transform="matrix(0.5022 -0.8648 0.8648 0.5022 -26.3896 87.0046)" class="st19" cx="62.4" cy="66.4" rx="7.2" ry="0.9"/>
	<ellipse transform="matrix(0.2646 -0.9644 0.9644 0.2646 -18.7083 106.7184)" class="st19" cx="60.6" cy="65.6" rx="6.6" ry="1"/>
	<ellipse transform="matrix(0.2561 -0.9666 0.9666 0.2561 -19.2861 104.8803)" class="st20" cx="58.5" cy="65" rx="7" ry="1"/>
	<ellipse transform="matrix(0.9939 -0.1102 0.1102 0.9939 -6.8899 6.6)" class="st19" cx="56.3" cy="65.7" rx="1" ry="6.3"/>
	<ellipse transform="matrix(0.9587 -0.2844 0.2844 0.9587 -17.3306 18.3085)" class="st26" cx="54.4" cy="68.8" rx="1" ry="4.9"/>
	<ellipse transform="matrix(0.8286 -0.5599 0.5599 0.8286 -29.8383 41.2573)" class="st27" cx="52.5" cy="69.4" rx="0.8" ry="5.3"/>
	<ellipse transform="matrix(0.3612 -0.9325 0.9325 0.3612 -33.0077 92.5447)" class="st26" cx="51" cy="70.4" rx="0.7" ry="5.6"/>
	<ellipse transform="matrix(0.5678 -0.8232 0.8232 0.5678 -37.3682 71.8643)" class="st26" cx="49.7" cy="71.5" rx="0.7" ry="5.4"/>
	
		<ellipse transform="matrix(0.1598 -0.9872 0.9872 0.1598 -30.4642 110.3357)" class="st26" cx="49.6" cy="73.1" rx="0.7" ry="4.9"/>
	
		<ellipse transform="matrix(0.2539 -0.9672 0.9672 0.2539 -36.0777 102.1025)" class="st27" cx="48.1" cy="74.4" rx="0.7" ry="5.6"/>
	
		<ellipse transform="matrix(0.9988 -4.862340e-02 4.862340e-02 0.9988 -3.6318 2.4024)" class="st26" cx="47.6" cy="75.8" rx="5" ry="0.7"/>
	
		<ellipse transform="matrix(4.477662e-03 -1 1 4.477662e-03 -30.2213 124.8379)" class="st26" cx="47.6" cy="77.6" rx="0.7" ry="5.8"/>
	<ellipse transform="matrix(0.9935 -0.1138 0.1138 0.9935 -8.6883 6.0236)" class="st26" cx="48.4" cy="79.1" rx="5.1" ry="0.7"/>
	<ellipse transform="matrix(0.9279 -0.3729 0.3729 0.9279 -26.7025 23.6523)" class="st28" cx="47.8" cy="80.9" rx="5.8" ry="0.7"/>
	<ellipse transform="matrix(0.7917 -0.6109 0.6109 0.7917 -39.4573 47.343)" class="st26" cx="49.7" cy="81.5" rx="4.9" ry="0.7"/>
	<ellipse transform="matrix(0.765 -0.644 0.644 0.765 -41.8941 51.783)" class="st26" cx="50" cy="83.3" rx="5.7" ry="0.7"/>
	<ellipse transform="matrix(0.4619 -0.8869 0.8869 0.4619 -47.1361 90.5683)" class="st26" cx="51.1" cy="84.1" rx="5.4" ry="1"/>
	<ellipse transform="matrix(0.511 -0.8596 0.8596 0.511 -47.4278 86.9381)" class="st28" cx="52.7" cy="85.2" rx="5.5" ry="0.7"/>
	
		<ellipse transform="matrix(0.1814 -0.9834 0.9834 0.1814 -39.9294 123.7635)" class="st26" cx="54.4" cy="85.9" rx="4.6" ry="0.7"/>
	<ellipse transform="matrix(0.176 -0.9844 0.9844 0.176 -38.4536 126.1185)" class="st26" cx="56.1" cy="86" rx="5.3" ry="0.9"/>
	<ellipse transform="matrix(0.9788 -0.2048 0.2048 0.9788 -16.3947 13.6399)" class="st26" cx="57.7" cy="86" rx="0.8" ry="5.2"/>
	<ellipse transform="matrix(0.8962 -0.4437 0.4437 0.8962 -31.8365 35.3856)" class="st28" cx="59.7" cy="85.7" rx="1" ry="5.2"/>
	<ellipse transform="matrix(0.8293 -0.5587 0.5587 0.8293 -36.9718 48.4086)" class="st26" cx="60.8" cy="84.7" rx="0.8" ry="4.6"/>
	<ellipse transform="matrix(0.8286 -0.5599 0.5599 0.8286 -36.5491 49.5722)" class="st26" cx="62.7" cy="84.5" rx="0.8" ry="5.3"/>
	<ellipse transform="matrix(0.6248 -0.7808 0.7808 0.6248 -41.2111 81.3231)" class="st26" cx="64" cy="83.5" rx="0.8" ry="5.4"/>
	<ellipse transform="matrix(0.7082 -0.7061 0.7061 0.7082 -39.017 70.1086)" class="st26" cx="65.3" cy="82.3" rx="0.7" ry="5.3"/>
	
		<ellipse transform="matrix(0.4107 -0.9118 0.9118 0.4107 -35.1791 107.2434)" class="st28" cx="65.4" cy="80.8" rx="1.1" ry="4.7"/>
	
		<ellipse transform="matrix(8.259746e-03 -1 1 8.259746e-03 -13.4399 145.8647)" class="st27" cx="66.8" cy="79.7" rx="1" ry="5.6"/>
	
		<ellipse transform="matrix(9.127664e-02 -0.9958 0.9958 9.127664e-02 -17.1669 136.6174)" class="st26" cx="66.3" cy="77.7" rx="0.7" ry="4.6"/>
	
		<ellipse transform="matrix(0.9977 -6.803707e-02 6.803707e-02 0.9977 -5.0298 4.772)" class="st26" cx="67.5" cy="76.2" rx="5.8" ry="0.7"/>
	<ellipse transform="matrix(0.9934 -0.1144 0.1144 0.9934 -8.0807 8.1811)" class="st28" cx="67.3" cy="74.5" rx="5.2" ry="0.9"/>
	<ellipse transform="matrix(0.9279 -0.3729 0.3729 0.9279 -22.4513 30.2178)" class="st26" cx="66.9" cy="73.1" rx="5.8" ry="0.7"/>
	<ellipse transform="matrix(0.7407 -0.6718 0.6718 0.7407 -31.6595 62.9303)" class="st26" cx="65.7" cy="72.5" rx="4.9" ry="0.9"/>
	<ellipse transform="matrix(0.765 -0.644 0.644 0.765 -30.1165 58.5064)" class="st28" cx="65.1" cy="70.5" rx="5.7" ry="0.7"/>
	<ellipse transform="matrix(0.7757 -0.631 0.631 0.7757 -29.8379 55.6955)" class="st26" cx="63.4" cy="69.8" rx="5.2" ry="0.7"/>
	<ellipse transform="matrix(0.511 -0.8596 0.8596 0.511 -28.4988 87.2406)" class="st26" cx="62.4" cy="68.7" rx="5.5" ry="0.7"/>
	<ellipse transform="matrix(0.3209 -0.9471 0.9471 0.3209 -23.7992 104.4244)" class="st26" cx="60.9" cy="68.8" rx="4.7" ry="1"/>
	<ellipse transform="matrix(0.1753 -0.9845 0.9845 0.1753 -17.974 114.1603)" class="st28" cx="59.2" cy="67.8" rx="5.3" ry="0.7"/>
	
		<ellipse transform="matrix(0.9999 -1.296963e-02 1.296963e-02 0.9999 -0.8744 0.7505)" class="st26" cx="57.4" cy="67.8" rx="0.8" ry="5.3"/>
	<ellipse transform="matrix(0.1776 -0.9841 0.9841 0.1776 -21.1635 110.7696)" class="st26" cx="55.7" cy="68" rx="5.3" ry="0.7"/>
	<ellipse transform="matrix(0.9539 -0.3002 0.3002 0.9539 -19.1236 20.1796)" class="st19" cx="56.1" cy="72.3" rx="0.4" ry="2.8"/>
	<ellipse transform="matrix(0.8985 -0.4389 0.4389 0.8985 -26.4042 31.6959)" class="st19" cx="55.3" cy="73" rx="0.4" ry="2.5"/>
	<ellipse transform="matrix(0.7708 -0.6371 0.6371 0.7708 -34.126 51.4696)" class="st19" cx="54.5" cy="73.2" rx="0.4" ry="2.8"/>
	<ellipse transform="matrix(0.6392 -0.769 0.769 0.6392 -37.3183 67.9489)" class="st19" cx="53.8" cy="73.7" rx="0.4" ry="2.9"/>
	<ellipse transform="matrix(0.483 -0.8756 0.8756 0.483 -36.9884 84.5477)" class="st23" cx="53.1" cy="73.6" rx="1.1" ry="3.5"/>
	<ellipse transform="matrix(0.2442 -0.9697 0.9697 0.2442 -33.0707 107.9687)" class="st19" cx="52.7" cy="75.2" rx="0.4" ry="3"/>
	<ellipse transform="matrix(0.1719 -0.9851 0.9851 0.1719 -31.137 115.0161)" class="st19" cx="52.8" cy="76" rx="0.3" ry="2.6"/>
	
		<ellipse transform="matrix(5.782390e-03 -1 1 5.782390e-03 -24.5609 127.8762)" class="st19" cx="52" cy="76.3" rx="0.9" ry="3.4"/>
	<ellipse transform="matrix(0.9687 -0.2482 0.2482 0.9687 -17.6518 15.414)" class="st23" cx="52.3" cy="77.7" rx="3.1" ry="0.4"/>
	<ellipse transform="matrix(0.9539 -0.3002 0.3002 0.9539 -21.122 19.4994)" class="st19" cx="52.9" cy="78.5" rx="2.7" ry="0.5"/>
	<ellipse transform="matrix(0.8954 -0.4452 0.4452 0.8954 -29.9291 31.7101)" class="st19" cx="52.5" cy="79.6" rx="3.4" ry="0.5"/>
	<ellipse transform="matrix(0.7119 -0.7023 0.7023 0.7119 -41.1775 60.3224)" class="st23" cx="52.9" cy="80.4" rx="3.5" ry="0.4"/>
	<ellipse transform="matrix(0.7092 -0.705 0.705 0.7092 -41.1543 61.4205)" class="st19" cx="53.9" cy="80.6" rx="3" ry="0.4"/>
	<ellipse transform="matrix(0.5833 -0.8123 0.8123 0.5833 -43.4318 78.2808)" class="st19" cx="54.6" cy="81.5" rx="3.3" ry="0.6"/>
	<ellipse transform="matrix(0.6977 -0.7164 0.7164 0.6977 -41.6086 64.3175)" class="st29" cx="55.4" cy="81.5" rx="3" ry="0.4"/>
	<ellipse transform="matrix(0.2659 -0.964 0.964 0.2659 -37.9008 114.1255)" class="st23" cx="56" cy="81.9" rx="3.2" ry="0.6"/>
	
		<ellipse transform="matrix(8.094516e-02 -0.9967 0.9967 8.094516e-02 -28.9449 132.1472)" class="st19" cx="57.2" cy="81.8" rx="2.8" ry="0.4"/>
	<ellipse transform="matrix(0.954 -0.2998 0.2998 0.954 -21.795 21.2527)" class="st19" cx="58.4" cy="81.7" rx="0.7" ry="2.8"/>
	<ellipse transform="matrix(0.9539 -0.3002 0.3002 0.9539 -21.7408 21.4724)" class="st29" cx="59" cy="81.5" rx="0.4" ry="2.8"/>
	<ellipse transform="matrix(0.878 -0.4787 0.4787 0.878 -31.5402 38.5694)" class="st19" cx="59.9" cy="81.1" rx="0.4" ry="2.8"/>
	<ellipse transform="matrix(0.8684 -0.4958 0.4958 0.8684 -32.0144 40.696)" class="st23" cx="60.7" cy="80.7" rx="0.4" ry="2.8"/>
	<ellipse transform="matrix(0.6371 -0.7708 0.7708 0.6371 -39.2707 76.5732)" class="st19" cx="61.7" cy="80" rx="0.7" ry="3"/>
	<ellipse transform="matrix(0.4894 -0.8721 0.8721 0.4894 -37.5989 94.5595)" class="st19" cx="62" cy="79.4" rx="0.4" ry="2.9"/>
	<ellipse transform="matrix(0.3334 -0.9428 0.9428 0.3334 -32.5308 111.2389)" class="st19" cx="62.4" cy="78.6" rx="0.4" ry="3"/>
	<ellipse transform="matrix(0.1706 -0.9853 0.9853 0.1706 -24.328 126.461)" class="st23" cx="63" cy="77.7" rx="0.5" ry="3.2"/>
	<ellipse transform="matrix(0.1323 -0.9912 0.9912 0.1323 -21.7549 129.0822)" class="st19" cx="62.8" cy="77" rx="0.4" ry="3"/>
	<ellipse transform="matrix(0.9887 -0.1499 0.1499 0.9887 -10.7756 10.3234)" class="st19" cx="63.1" cy="76.6" rx="3.3" ry="0.9"/>
	<ellipse transform="matrix(0.9539 -0.3002 0.3002 0.9539 -19.672 22.2651)" class="st19" cx="62.6" cy="75.2" rx="3.1" ry="0.5"/>
	<ellipse transform="matrix(0.8904 -0.4552 0.4552 0.8904 -26.9566 36.7828)" class="st29" cx="62.9" cy="74.4" rx="3.7" ry="0.5"/>
	<ellipse transform="matrix(0.8145 -0.5802 0.5802 0.8145 -31.2731 49.5066)" class="st23" cx="61.8" cy="73.7" rx="3.1" ry="0.6"/>
	<ellipse transform="matrix(0.7112 -0.703 0.703 0.7112 -33.5806 64.0436)" class="st19" cx="61.2" cy="72.9" rx="3.2" ry="0.7"/>
	<ellipse transform="matrix(0.5816 -0.8135 0.8135 0.5816 -34.2844 79.514)" class="st19" cx="60.2" cy="73.1" rx="2.5" ry="0.3"/>
	<ellipse transform="matrix(0.4329 -0.9015 0.9015 0.4329 -31.3617 94.8839)" class="st19" cx="59.7" cy="72.4" rx="2.9" ry="0.4"/>
	
		<ellipse transform="matrix(0.2644 -0.9644 0.9644 0.2644 -26.2749 109.8312)" class="st23" cx="58.9" cy="72.1" rx="2.9" ry="0.4"/>
	
		<ellipse transform="matrix(8.121171e-02 -0.9967 0.9967 8.121171e-02 -19.1739 124.3483)" class="st19" cx="57.9" cy="72.6" rx="2.3" ry="0.4"/>
	<ellipse transform="matrix(0.994 -0.1093 0.1093 0.994 -7.4871 6.6892)" class="st29" cx="57.3" cy="71.6" rx="0.7" ry="3.2"/>
	<ellipse transform="matrix(0.9539 -0.3002 0.3002 0.9539 -20.4388 20.8877)" class="st30" cx="57.8" cy="77" rx="4.8" ry="4.3"/>
	<path class="st31" d="M54.6,75.4c-0.5,0.4-1.1,0.6-1.1,0.6l-0.1,1.2c0,0-0.5,1.1,0.2,1.1c0.7,0,1.1-0.9,1,0.2
		c-0.1,1.1-1,0.8-0.1,1.1s0.9,0.3,0.9,0.3s-0.9,0.6,0.2,0.5c1.2-0.1,2.1-1,2.6-0.4c0.5,0.6-0.6,1.1,0.5,0.6s1.7-1,1.7-1l-2.1-0.7
		c0,0-1.8,0.1-2.2-0.4c-0.4-0.4,0.1-0.2-0.6-0.6c-0.7-0.4-0.5,0.1-0.7-0.4c-0.2-0.5-0.1-0.9-0.1-0.9s0.2-0.4,0.3-0.6
		C54.9,75.8,54.6,75.4,54.6,75.4z"/>
</g>
</svg>
