<?xml version="1.0" encoding="utf-8"?>
<!-- Generator: Adobe Illustrator 23.1.1, SVG Export Plug-In . SVG Version: 6.00 Build 0)  -->
<svg version="1.1" id="Layer_1" xmlns="http://www.w3.org/2000/svg" xmlns:xlink="http://www.w3.org/1999/xlink" x="0px" y="0px"
	 viewBox="0 0 108 108" style="enable-background:new 0 0 108 108;" xml:space="preserve">
<style type="text/css">
	.st0{fill:none;stroke:#718638;stroke-width:1.0127;stroke-miterlimit:10;}
	.st1{fill:#A6C339;}
	.st2{fill:#85B541;}
	.st3{fill:#91BC3E;}
	.st4{fill:#B0CC37;}
	.st5{fill:#93B93F;}
	.st6{fill:#A6BD3A;}
	.st7{fill:#A5C939;}
	.st8{fill:#72AA42;}
	.st9{fill:#342416;}
	.st10{fill:#FCEE1F;}
	.st11{fill:#F9E450;}
	.st12{fill:#FEDD29;}
	.st13{fill:#FFD210;}
</style>
<g>
	<path class="st0" d="M69.75,72.75c-0.06-2.42-1.01-6.76-1.68-9.84"/>
	<path class="st0" d="M76.16,69.63c-3.2-1.29-7.29-4.18-9.33-7.3"/>
	<path class="st0" d="M77.26,63.34c-3.63,1.75-6.65,3.78-9.15,0.14"/>
	<path class="st0" d="M62.65,56.43c-3.85-2.98-7.5-6.93-8.92-10.39"/>
	<path class="st0" d="M54.77,59.28c0.44-5.02-0.93-12.71-1.11-14.29"/>
	<path class="st0" d="M61.57,49.74c-2.98,0.93-4.66,2.38-7.6-2.56"/>
	<path class="st1" d="M64.53,77.49c-0.31-1.93-1.29-2.33,1.93-5.74l3.22-3.42c0,0,0.64,0.74,1.39,1.58
		c0.75,0.84,3.93,3.65,2.49,6.93c-1.43,3.28-2.67,5.06-3.15,5.58c-0.49,0.51-1.75,2.57-2.11,3.07"/>
	<path class="st2" d="M87.19,78.46c-2.35-0.98-5.72,1.13-8.56-0.86c-2.85-2-4.47-6.93-5.15-8.36c-0.68-1.42-1.84-0.81,0.84-0.86
		c2.69-0.05,2.84-0.96,5.17-0.4c2.33,0.56,5.56,4.04,5.78,5.48C85.48,74.9,87.19,78.46,87.19,78.46"/>
	<path class="st3" d="M73.17,65.36c0.7,0,1.48,0.57,4.86,0.62c3.38,0.05,6.04-0.31,6.63-2.89c0.59-2.58-0.24-3.09,1.21-4.79
		l1.45-1.7c0,0-2.91-0.09-6.96,0.02c-4.05,0.1-5.95,4.21-6.45,5.94C73.42,64.29,73.17,65.36,73.17,65.36"/>
	<path class="st4" d="M71.34,65.4c0,0-1.56-1.73-4.75-1.74c-3.19-0.02-6.69-1.59-6.69-4.97c0-3.38-1.09-5.24-1.09-5.24
		s-0.07,0.48,2.71,0.26c2.78-0.22,6.73,1.69,7.84,4.45C70.47,60.93,71.34,65.4,71.34,65.4"/>
	<path class="st5" d="M52.16,69.69c0,0,4.11-4.12,5.37-6.91c1.26-2.79,1.61-4.45-0.03-6.44c-1.63-1.98-2.23-3.57-2.23-3.57
		s-2.32,3.45-3.84,4.26c-1.52,0.8-3.2,3.63-2.38,5.3C49.87,64.01,52.16,69.69,52.16,69.69"/>
	<path class="st6" d="M58.59,50.67c0,0.05,2.46,1.07,5.39,1.43c2.93,0.35,4.51,0.33,5.66-1.13c1.15-1.46,1.93-3,2.75-4.7
		c0.82-1.7,0.92-2.39,1.6-2.55c0.67-0.16-0.85,0.59-4.08-0.21c-3.23-0.8-4.77-1.69-6.12-0.63c-1.34,1.05-1.3,3-2.39,4.56
		C60.31,49.01,58.59,50.67,58.59,50.67"/>
	<path class="st0" d="M27.6,71.09c2.34-0.65,6.3-2.64,9.13-4.04"/>
	<path class="st0" d="M32.19,76.53c0.46-3.42,2.26-8.09,4.79-10.83"/>
	<path class="st0" d="M38.56,76.06c-2.59-3.09-5.29-5.52-2.38-8.84"/>
	<path class="st0" d="M41.68,60.2c1.94-4.46,4.88-8.97,7.89-11.19"/>
	<path class="st0" d="M36.98,53.26c4.97-0.8,12.09-4.02,13.58-4.58"/>
	<path class="st0" d="M47.9,57.51c-1.64-2.66-3.46-3.94,0.62-8"/>
	<path class="st2" d="M21.72,67.19c1.79-0.77,1.94-1.82,6.04,0.46l4.1,2.28c0,0-0.56,0.8-1.19,1.73c-0.63,0.93-2.58,4.7-6.11,4.12
		c-3.53-0.59-5.56-1.34-6.18-1.69c-0.62-0.35-2.92-1.07-3.49-1.29"/>
	<path class="st7" d="M26.33,89.39c0.37-2.51-2.5-5.26-1.26-8.51s5.62-6.04,6.84-7.04c1.21-1.01,0.33-1.98,1.04,0.61
		c0.71,2.59,1.63,2.51,1.66,4.91c0.03,2.4-2.55,6.38-3.9,6.95C29.36,86.87,26.33,89.39,26.33,89.39"/>
	<path class="st3" d="M35.59,72.59c0.17,0.68-0.19,1.58,0.59,4.87c0.78,3.29,1.79,5.78,4.43,5.72c2.64-0.06,2.94-0.99,4.94,0l2,0.99
		c0,0-0.63-2.84-1.72-6.75c-1.1-3.9-5.54-4.74-7.34-4.8C36.7,72.57,35.59,72.59,35.59,72.59"/>
	<path class="st4" d="M35.11,70.83c0,0,1.29-1.93,0.52-5.03c-0.77-3.1-0.1-6.88,3.17-7.71c3.27-0.83,4.81-2.35,4.81-2.35
		s-0.48,0.05,0.41,2.69c0.89,2.64,0.01,6.94-2.4,8.69C39.23,68.88,35.11,70.83,35.11,70.83"/>
	<path class="st5" d="M26.24,53.28c0,0,5,2.98,8.02,3.51c3.01,0.54,4.71,0.47,6.23-1.6c1.52-2.07,2.92-3.04,2.92-3.04
		s-3.91-1.4-5.07-2.68c-1.15-1.28-4.3-2.21-5.73-1.01C31.19,49.67,26.24,53.28,26.24,53.28"/>
	<path class="st6" d="M46.26,54.85c-0.05,0.02-0.44,2.65-0.06,5.57c0.38,2.93,0.78,4.46,2.48,5.21c1.7,0.76,3.38,1.14,5.23,1.51
		c1.85,0.38,2.55,0.31,2.86,0.92c0.32,0.61-0.78-0.68-0.8-4.01c-0.01-3.33,0.46-5.04-0.89-6.08c-1.35-1.04-3.23-0.52-5.01-1.2
		C48.3,56.11,46.26,54.85,46.26,54.85"/>
	<path class="st0" d="M34.58,29.78c0.77,2.3,2.95,6.16,4.49,8.91"/>
	<path class="st0" d="M29.37,34.64c3.43,0.29,8.2,1.85,11.06,4.24"/>
	<path class="st0" d="M30.16,40.97c2.96-2.74,5.25-5.56,8.71-2.82"/>
	<path class="st0" d="M46.16,43.3c4.55,1.72,9.21,4.42,11.57,7.32"/>
	<path class="st0" d="M52.86,38.26c1.05,4.93,4.62,11.88,5.26,13.34"/>
	<path class="st0" d="M49.16,49.37c2.57-1.77,3.76-3.65,8.02,0.22"/>
	<path class="st1" d="M38.18,23.71c0.86,1.75,1.92,1.85-0.16,6.06l-2.07,4.21c0,0-0.83-0.52-1.79-1.1
		c-0.97-0.58-4.83-2.34-4.42-5.89c0.41-3.55,1.06-5.62,1.38-6.25c0.32-0.63,0.92-2.97,1.11-3.55"/>
	<path class="st2" d="M16.24,29.43c2.53,0.25,5.13-2.76,8.44-1.69c3.31,1.07,6.31,5.31,7.38,6.48c1.06,1.16,2,0.23-0.56,1.07
		c-2.55,0.84-2.43,1.75-4.83,1.9c-2.39,0.15-6.5-2.23-7.13-3.54C18.91,32.33,16.24,29.43,16.24,29.43"/>
	<path class="st3" d="M33.48,37.84c-0.67,0.21-1.59-0.11-4.83,0.83c-3.25,0.94-5.68,2.07-5.49,4.71c0.19,2.64,1.14,2.89,0.25,4.93
		l-0.89,2.05c0,0,2.81-0.77,6.65-2.06c3.85-1.29,4.45-5.77,4.42-7.57C33.56,38.94,33.48,37.84,33.48,37.84"/>
	<path class="st4" d="M35.22,37.27c0,0,2,1.19,5.05,0.27c3.06-0.92,6.86-0.45,7.86,2.78c0.99,3.23,2.58,4.69,2.58,4.69
		s-0.08-0.48-2.67,0.54c-2.59,1.02-6.93,0.36-8.8-1.96C37.36,41.28,35.22,37.27,35.22,37.27"/>
	<path class="st5" d="M52.3,27.53c0,0-2.72,5.14-3.11,8.18c-0.39,3.04-0.23,4.73,1.91,6.14c2.14,1.42,3.18,2.76,3.18,2.76
		s1.2-3.98,2.42-5.19c1.22-1.22,1.99-4.41,0.72-5.77C56.15,32.29,52.3,27.53,52.3,27.53"/>
	<path class="st6" d="M51.73,47.6c-0.02-0.05-2.67-0.31-5.57,0.22c-2.9,0.52-4.41,1-5.08,2.74c-0.67,1.73-0.97,3.43-1.25,5.3
		c-0.28,1.86-0.18,2.56-0.78,2.91c-0.6,0.35,0.64-0.82,3.96-1c3.32-0.18,5.06,0.21,6.03-1.19c0.97-1.4,0.36-3.25,0.94-5.06
		C50.58,49.7,51.73,47.6,51.73,47.6"/>
	<path class="st0" d="M77.38,35.37c-2.39,0.4-6.55,1.96-9.5,3.06"/>
	<path class="st0" d="M73.38,29.47c-0.82,3.35-3.1,7.81-5.91,10.27"/>
	<path class="st0" d="M67.01,29.26c2.25,3.35,4.68,6.05,1.43,9.04"/>
	<path class="st0" d="M62.23,44.7c-2.4,4.23-5.8,8.41-9.03,10.3"/>
	<path class="st0" d="M66.16,52.1c-5.03,0.27-12.45,2.71-13.99,3.12"/>
	<path class="st0" d="M55.76,46.72c1.35,2.82,3.02,4.28-1.46,7.89"/>
	<path class="st1" d="M82.81,39.87c-1.87,0.58-2.12,1.6-5.96-1.1l-3.84-2.7c0,0,0.64-0.74,1.37-1.6c0.72-0.86,3.06-4.4,6.51-3.45
		c3.45,0.96,5.39,1.92,5.96,2.33c0.58,0.41,2.79,1.37,3.34,1.65"/>
	<path class="st7" d="M80.57,17.3c-0.64,2.46,1.93,5.5,0.36,8.6c-1.57,3.1-6.23,5.41-7.54,6.28c-1.31,0.87-0.54,1.94-0.97-0.71
		c-0.43-2.65-1.35-2.67-1.13-5.06c0.22-2.39,3.21-6.07,4.61-6.49C77.29,19.49,80.57,17.3,80.57,17.3"/>
	<path class="st2" d="M69.59,33.02c-0.1-0.69,0.36-1.55-0.07-4.9c-0.42-3.35-1.16-5.94-3.8-6.16c-2.64-0.22-3.03,0.68-4.91-0.52
		l-1.88-1.2c0,0,0.32,2.89,1,6.89c0.68,4,5.01,5.3,6.79,5.55C68.49,32.93,69.59,33.02,69.59,33.02"/>
	<path class="st4" d="M69.88,34.83c0,0-1.49,1.79-1.05,4.95c0.44,3.16-0.63,6.85-3.97,7.33c-3.34,0.48-5.04,1.82-5.04,1.82
		s0.49,0-0.12-2.72c-0.61-2.72,0.72-6.9,3.3-8.39C65.58,36.33,69.88,34.83,69.88,34.83"/>
	<path class="st5" d="M76.84,53.22c0,0-4.66-3.49-7.6-4.34c-2.94-0.85-4.63-0.96-6.37,0.93c-1.73,1.9-3.22,2.71-3.22,2.71
		s3.74,1.81,4.76,3.2c1.01,1.39,4.04,2.66,5.59,1.61C71.54,56.29,76.84,53.22,76.84,53.22"/>
	<path class="st6" d="M57.1,49.54c0.05-0.01,0.72-2.59,0.65-5.53c-0.07-2.95-0.31-4.51-1.92-5.45c-1.61-0.93-3.24-1.49-5.04-2.05
		c-1.8-0.57-2.5-0.57-2.75-1.22c-0.25-0.64,0.71,0.76,0.37,4.07c-0.34,3.31-0.99,4.97,0.24,6.14c1.23,1.18,3.16,0.86,4.86,1.72
		C55.21,48.07,57.1,49.54,57.1,49.54"/>
	<path class="st8" d="M53.72,62.06c-0.06-2.42-1.01-6.76-1.68-9.84"/>
	<path class="st8" d="M60.13,58.94c-3.2-1.29-7.29-4.18-9.33-7.3"/>
	<path class="st8" d="M61.23,52.66c-3.63,1.75-6.65,3.78-9.15,0.14"/>
	<path class="st8" d="M46.62,45.74c-3.85-2.98-7.5-6.93-8.92-10.39"/>
	<path class="st8" d="M38.74,48.59c0.44-5.02-0.93-12.71-1.11-14.29"/>
	<path class="st8" d="M45.54,39.05c-2.98,0.93-4.66,2.38-7.6-2.56"/>
	<path class="st8" d="M48.5,66.8c-0.31-1.93-1.29-2.33,1.93-5.74l3.22-3.42c0,0,0.64,0.74,1.39,1.58c0.75,0.84,3.92,3.65,2.49,6.93
		c-1.43,3.28-2.67,5.06-3.15,5.57c-0.49,0.51-1.75,2.57-2.11,3.07"/>
	<path class="st8" d="M71.16,67.78c-2.34-0.98-5.72,1.13-8.56-0.86c-2.85-2-4.47-6.93-5.15-8.36c-0.68-1.42-1.84-0.81,0.84-0.86
		c2.69-0.05,2.84-0.96,5.17-0.4c2.33,0.56,5.56,4.04,5.78,5.48C69.45,64.22,71.16,67.78,71.16,67.78"/>
	<path class="st8" d="M57.14,54.68c0.7,0,1.48,0.57,4.86,0.62c3.38,0.05,6.04-0.31,6.63-2.89c0.59-2.58-0.24-3.09,1.21-4.79
		l1.45-1.7c0,0-2.91-0.09-6.96,0.02c-4.05,0.1-5.95,4.21-6.45,5.94C57.39,53.6,57.14,54.68,57.14,54.68"/>
	<path class="st8" d="M55.31,54.72c0,0-1.56-1.73-4.75-1.74c-3.19-0.02-6.69-1.59-6.69-4.97c0-3.38-1.09-5.24-1.09-5.24
		s-0.07,0.48,2.71,0.26c2.78-0.22,6.73,1.69,7.84,4.45C54.44,50.25,55.31,54.72,55.31,54.72"/>
	<path class="st8" d="M36.13,59.01c0,0,4.11-4.12,5.37-6.91c1.26-2.79,1.61-4.45-0.03-6.44c-1.63-1.98-2.23-3.57-2.23-3.57
		s-2.32,3.45-3.84,4.26c-1.52,0.8-3.2,3.63-2.38,5.3C33.84,53.33,36.13,59.01,36.13,59.01"/>
	<path class="st8" d="M42.56,39.99c0,0.05,2.46,1.07,5.39,1.43c2.93,0.35,4.51,0.33,5.66-1.13c1.15-1.46,1.93-3,2.75-4.7
		c0.82-1.7,0.92-2.39,1.6-2.55c0.67-0.16-0.85,0.59-4.08-0.21c-3.23-0.8-4.77-1.69-6.12-0.63c-1.34,1.05-1.3,3-2.39,4.56
		C44.27,38.32,42.56,39.99,42.56,39.99"/>
	<path class="st9" d="M39.85,47.35c0,4.81-3.9,8.7-8.7,8.7c-4.81,0-8.7-3.9-8.7-8.7c0-4.81,3.9-8.7,8.7-8.7
		C35.96,38.65,39.85,42.55,39.85,47.35"/>
	<path class="st10" d="M28.63,29.61c-0.25,0.78-0.85,3.26-0.88,4.52c-0.03,1.27-0.1,2.22,0.42,3.41c0.52,1.19,0.34,1.74,1.11,2.03
		c0.76,0.29,1.57-0.53,1.78-2.16c0.21-1.63,0.01-4.47-0.32-5.14C30.41,31.61,29.08,28.22,28.63,29.61"/>
	<path class="st10" d="M33.23,29.62c-0.45,0.69-1.66,2.93-2.02,4.14c-0.36,1.22-0.67,2.12-0.48,3.4c0.19,1.28-0.12,1.77,0.54,2.25
		c0.66,0.48,1.66-0.1,2.28-1.62c0.62-1.52,1.17-4.31,1.02-5.04C34.42,32.02,34.02,28.4,33.23,29.62"/>
	<path class="st11" d="M37.66,30.83c-0.61,0.55-2.36,2.39-3.02,3.48c-0.66,1.08-1.2,1.87-1.34,3.16c-0.14,1.29-0.57,1.68-0.06,2.31
		c0.51,0.63,1.63,0.33,2.62-0.98c1-1.31,2.25-3.86,2.29-4.61C38.2,33.45,38.74,29.85,37.66,30.83"/>
	<path class="st10" d="M41.64,33.15c-0.73,0.38-2.91,1.7-3.82,2.57c-0.92,0.88-1.64,1.5-2.12,2.71c-0.47,1.21-0.99,1.47-0.66,2.22
		c0.33,0.75,1.48,0.74,2.78-0.26c1.3-1,3.17-3.14,3.41-3.86C41.47,35.82,42.93,32.48,41.64,33.15"/>
	<path class="st11" d="M44.87,36.41c-0.81,0.17-3.25,0.89-4.36,1.49c-1.11,0.61-1.98,1.02-2.75,2.07c-0.77,1.05-1.34,1.17-1.21,1.97
		c0.13,0.81,1.24,1.1,2.76,0.47c1.52-0.63,3.88-2.21,4.29-2.84C44.02,38.95,46.29,36.11,44.87,36.41"/>
	<path class="st10" d="M47.15,40.41c-0.82-0.04-3.36,0.02-4.6,0.31c-1.23,0.3-2.17,0.47-3.19,1.28c-1.02,0.81-1.6,0.78-1.68,1.59
		c-0.09,0.81,0.91,1.38,2.54,1.17c1.63-0.22,4.32-1.13,4.88-1.63C45.66,42.63,48.6,40.48,47.15,40.41"/>
	<path class="st11" d="M48.31,44.85c-0.78-0.25-3.25-0.86-4.52-0.89c-1.27-0.03-2.22-0.11-3.41,0.41c-1.19,0.52-1.74,0.34-2.04,1.1
		c-0.29,0.76,0.52,1.57,2.15,1.79c1.63,0.21,4.46,0.03,5.14-0.31C46.3,46.62,49.7,45.3,48.31,44.85"/>
	<path class="st10" d="M48.28,49.45c-0.69-0.45-2.92-1.67-4.14-2.03c-1.22-0.36-2.12-0.68-3.4-0.49c-1.28,0.19-1.77-0.13-2.25,0.53
		c-0.48,0.66,0.1,1.66,1.62,2.28c1.52,0.63,4.3,1.18,5.04,1.03C45.88,50.63,49.5,50.24,48.28,49.45"/>
	<path class="st10" d="M47.06,53.88c-0.55-0.61-2.39-2.37-3.47-3.03c-1.08-0.66-1.87-1.2-3.16-1.35c-1.29-0.15-1.68-0.58-2.31-0.07
		c-0.64,0.51-0.34,1.62,0.97,2.62c1.3,1,3.85,2.26,4.6,2.31C44.44,54.4,48.04,54.96,47.06,53.88"/>
	<path class="st10" d="M43.97,58.35c-0.37-0.73-1.69-2.91-2.56-3.83c-0.87-0.92-1.49-1.65-2.7-2.13c-1.21-0.48-1.47-0.99-2.22-0.67
		c-0.75,0.33-0.74,1.48,0.26,2.79c1,1.3,3.13,3.18,3.85,3.42C41.3,58.18,44.63,59.65,43.97,58.35"/>
	<path class="st10" d="M41.46,61.07c-0.17-0.81-0.88-3.25-1.48-4.36c-0.6-1.11-1.02-1.98-2.06-2.75c-1.04-0.78-1.16-1.34-1.97-1.22
		c-0.81,0.12-1.1,1.24-0.48,2.76c0.63,1.52,2.2,3.88,2.83,4.3C38.93,60.21,41.76,62.49,41.46,61.07"/>
	<path class="st10" d="M37.46,63.34c0.04-0.82-0.01-3.36-0.3-4.6c-0.3-1.23-0.47-2.17-1.27-3.19c-0.81-1.02-0.78-1.6-1.59-1.69
		c-0.81-0.09-1.39,0.91-1.17,2.54c0.21,1.63,1.12,4.32,1.62,4.89C35.24,61.85,37.39,64.79,37.46,63.34"/>
	<path class="st10" d="M32.59,64.25c0.26-0.78,0.87-3.25,0.9-4.52c0.03-1.27,0.11-2.22-0.4-3.41c-0.51-1.19-0.33-1.74-1.09-2.04
		c-0.76-0.3-1.58,0.52-1.79,2.15c-0.22,1.63-0.04,4.47,0.3,5.14C30.83,62.23,32.14,65.63,32.59,64.25"/>
	<path class="st10" d="M28.08,64.01c0.45-0.69,1.68-2.92,2.04-4.13c0.36-1.22,0.68-2.12,0.5-3.4c-0.19-1.28,0.13-1.77-0.53-2.25
		c-0.66-0.48-1.66,0.09-2.29,1.61c-0.63,1.52-1.19,4.3-1.05,5.04C26.9,61.61,27.29,65.23,28.08,64.01"/>
	<path class="st11" d="M23.99,63.22c0.61-0.55,2.38-2.38,3.04-3.46c0.66-1.08,1.21-1.87,1.36-3.16c0.15-1.29,0.58-1.68,0.08-2.31
		c-0.51-0.64-1.62-0.34-2.63,0.96c-1,1.3-2.27,3.85-2.32,4.6C23.47,60.59,22.9,64.19,23.99,63.22"/>
	<path class="st10" d="M20.99,60.5c0.74-0.37,2.91-1.68,3.84-2.55c0.92-0.87,1.65-1.49,2.13-2.7c0.48-1.21,1-1.47,0.67-2.22
		c-0.33-0.75-1.48-0.75-2.79,0.25c-1.31,1-3.19,3.13-3.43,3.84C21.18,57.83,19.69,61.16,20.99,60.5"/>
	<path class="st11" d="M16.82,57.6c0.81-0.17,3.25-0.87,4.37-1.47c1.12-0.6,1.98-1.01,2.76-2.05c0.78-1.04,1.35-1.16,1.22-1.97
		c-0.12-0.81-1.24-1.11-2.76-0.48c-1.52,0.62-3.89,2.19-4.31,2.82C17.68,55.07,15.39,57.89,16.82,57.6"/>
	<path class="st11" d="M15.5,53.29c0.82,0.05,3.36,0,4.6-0.29c1.23-0.29,2.18-0.46,3.2-1.27c1.02-0.8,1.6-0.77,1.69-1.58
		c0.09-0.81-0.91-1.39-2.54-1.18c-1.63,0.21-4.32,1.11-4.89,1.6C16.99,51.07,14.05,53.21,15.5,53.29"/>
	<path class="st10" d="M14.07,48.93c0.78,0.26,3.25,0.87,4.52,0.91c1.27,0.04,2.22,0.12,3.41-0.39c1.19-0.51,1.75-0.33,2.04-1.09
		c0.3-0.76-0.52-1.58-2.14-1.8c-1.63-0.22-4.46-0.05-5.14,0.28C16.08,47.17,12.68,48.47,14.07,48.93"/>
	<path class="st10" d="M13.47,44.54c0.69,0.45,2.91,1.69,4.13,2.05c1.21,0.36,2.11,0.69,3.4,0.5c1.29-0.18,1.77,0.13,2.26-0.52
		c0.49-0.66-0.09-1.66-1.6-2.29c-1.51-0.63-4.3-1.2-5.04-1.06C15.88,43.37,12.25,43.74,13.47,44.54"/>
	<path class="st11" d="M15.51,40.12c0.55,0.61,2.37,2.38,3.45,3.05c1.08,0.67,1.86,1.21,3.15,1.37c1.29,0.15,1.68,0.59,2.31,0.08
		c0.64-0.51,0.34-1.62-0.95-2.63c-1.3-1.01-3.84-2.28-4.59-2.33C18.13,39.61,14.54,39.03,15.51,40.12"/>
	<path class="st11" d="M17.06,36.17c0.37,0.74,1.67,2.92,2.54,3.84c0.87,0.92,1.48,1.65,2.69,2.14c1.2,0.48,1.47,1,2.21,0.68
		c0.75-0.33,0.75-1.48-0.24-2.79c-0.99-1.31-3.12-3.2-3.83-3.44C19.73,36.35,16.41,34.86,17.06,36.17"/>
	<path class="st10" d="M20.35,32.96c0.17,0.81,0.86,3.25,1.46,4.37c0.6,1.12,1.01,1.98,2.04,2.76c1.04,0.78,1.16,1.35,1.96,1.23
		c0.81-0.12,1.11-1.23,0.49-2.75c-0.62-1.52-2.18-3.89-2.81-4.31C22.88,33.83,20.06,31.53,20.35,32.96"/>
	<path class="st11" d="M24.37,30.71c-0.05,0.82-0.01,3.36,0.28,4.6c0.29,1.24,0.46,2.18,1.26,3.2c0.8,1.02,0.77,1.6,1.58,1.69
		c0.81,0.09,1.39-0.9,1.19-2.53c-0.2-1.63-1.1-4.33-1.59-4.89C26.58,32.21,24.45,29.26,24.37,30.71"/>
	<path class="st12" d="M31.07,29.16c-0.32,0.76-1.12,3.17-1.25,4.43c-0.13,1.26-0.29,2.2,0.13,3.43c0.42,1.23,0.2,1.77,0.93,2.12
		c0.73,0.35,1.61-0.39,1.96-2c0.35-1.61,0.39-4.45,0.11-5.15C32.66,31.3,31.63,27.81,31.07,29.16"/>
	<path class="st13" d="M35.64,29.56c-0.5,0.65-1.9,2.77-2.36,3.96c-0.46,1.18-0.85,2.06-0.76,3.35c0.09,1.3-0.27,1.76,0.35,2.29
		c0.62,0.53,1.66,0.04,2.41-1.42c0.75-1.46,1.53-4.2,1.44-4.94C36.63,32.05,36.53,28.41,35.64,29.56"/>
	<path class="st12" d="M39.96,31.14c-0.65,0.5-2.56,2.19-3.31,3.21c-0.75,1.02-1.35,1.77-1.61,3.04c-0.25,1.27-0.72,1.63-0.26,2.3
		c0.46,0.68,1.59,0.47,2.69-0.75c1.1-1.22,2.57-3.65,2.67-4.4C40.27,33.8,41.12,30.25,39.96,31.14"/>
	<path class="st13" d="M43.24,34.13c-0.76,0.31-3.04,1.45-4.03,2.24c-0.99,0.8-1.77,1.35-2.34,2.52c-0.57,1.16-1.11,1.39-0.84,2.15
		c0.27,0.77,1.42,0.86,2.8-0.03c1.38-0.89,3.42-2.87,3.72-3.55C42.85,36.77,44.59,33.57,43.24,34.13"/>
	<path class="st12" d="M46.67,37.31c-0.82,0.1-3.31,0.61-4.47,1.12c-1.16,0.51-2.05,0.85-2.91,1.83c-0.86,0.98-1.43,1.05-1.37,1.86
		c0.06,0.81,1.14,1.2,2.71,0.7c1.56-0.5,4.05-1.88,4.52-2.47C45.6,39.76,48.11,37.12,46.67,37.31"/>
	<path class="st13" d="M47.66,42.14c-0.82-0.11-3.35-0.27-4.61-0.07c-1.25,0.19-2.2,0.29-3.29,1.01c-1.08,0.72-1.66,0.64-1.81,1.44
		c-0.15,0.8,0.79,1.46,2.44,1.38c1.64-0.08,4.4-0.76,5-1.21C46,44.24,49.11,42.34,47.66,42.14"/>
	<path class="st12" d="M49.07,46.36c-0.76-0.32-3.17-1.13-4.43-1.27c-1.26-0.14-2.2-0.29-3.44,0.12c-1.23,0.42-1.77,0.19-2.12,0.92
		c-0.36,0.73,0.39,1.61,1.99,1.96c1.6,0.35,4.45,0.4,5.15,0.13C46.92,47.95,50.41,46.92,49.07,46.36"/>
	<path class="st13" d="M48.97,50.58c-0.65-0.5-2.77-1.91-3.95-2.37c-1.18-0.46-2.05-0.85-3.35-0.77c-1.3,0.08-1.75-0.27-2.29,0.34
		c-0.53,0.62-0.04,1.66,1.42,2.41s4.19,1.54,4.94,1.46C46.48,51.56,50.12,51.48,48.97,50.58"/>
	<path class="st12" d="M47.38,54.9c-0.5-0.66-2.18-2.56-3.2-3.32c-1.02-0.75-1.76-1.36-3.04-1.61c-1.27-0.26-1.62-0.72-2.3-0.26
		c-0.68,0.46-0.47,1.59,0.74,2.7c1.21,1.11,3.65,2.57,4.39,2.69C44.72,55.2,48.26,56.06,47.38,54.9"/>
	<path class="st13" d="M44.29,58.65c-0.31-0.76-1.44-3.04-2.23-4.03c-0.79-0.99-1.35-1.77-2.51-2.35c-1.16-0.58-1.38-1.12-2.15-0.85
		c-0.77,0.26-0.87,1.41,0.02,2.8c0.89,1.38,2.86,3.43,3.54,3.73C41.64,58.25,44.83,60,44.29,58.65"/>
	<path class="st12" d="M41.19,61.59c-0.1-0.82-0.6-3.31-1.11-4.47c-0.51-1.16-0.85-2.06-1.82-2.92c-0.97-0.86-1.05-1.44-1.86-1.38
		c-0.81,0.06-1.2,1.14-0.71,2.71c0.5,1.57,1.87,4.06,2.46,4.52C38.74,60.52,41.37,63.03,41.19,61.59"/>
	<path class="st13" d="M37.26,63.35c0.11-0.82,0.28-3.35,0.09-4.61c-0.19-1.25-0.28-2.21-1-3.29c-0.72-1.08-0.64-1.66-1.44-1.81
		c-0.8-0.16-1.46,0.79-1.38,2.43c0.07,1.64,0.75,4.4,1.2,5.01C35.17,61.68,37.06,64.79,37.26,63.35"/>
	<path class="st12" d="M32.49,64.28c0.32-0.76,1.14-3.17,1.28-4.43c0.14-1.26,0.3-2.2-0.11-3.44c-0.41-1.23-0.19-1.77-0.92-2.13
		c-0.73-0.36-1.61,0.39-1.97,1.99c-0.35,1.6-0.41,4.45-0.14,5.15C30.9,62.13,31.92,65.62,32.49,64.28"/>
	<path class="st13" d="M27.91,63.85c0.51-0.65,1.92-2.76,2.38-3.94c0.46-1.18,0.86-2.05,0.78-3.35c-0.08-1.3,0.28-1.75-0.34-2.29
		c-0.61-0.54-1.66-0.05-2.42,1.41c-0.76,1.46-1.55,4.19-1.47,4.93C26.94,61.36,27.02,65,27.91,63.85"/>
	<path class="st12" d="M23.6,62.25c0.66-0.5,2.57-2.17,3.32-3.19c0.75-1.02,1.36-1.76,1.62-3.03c0.26-1.27,0.72-1.62,0.27-2.3
		c-0.45-0.68-1.59-0.47-2.7,0.74c-1.11,1.21-2.58,3.64-2.7,4.38C23.31,59.59,22.44,63.13,23.6,62.25"/>
	<path class="st13" d="M19.86,59.59c0.76-0.31,3.05-1.43,4.04-2.22c0.99-0.79,1.77-1.34,2.35-2.51c0.58-1.16,1.12-1.38,0.86-2.15
		c-0.26-0.77-1.41-0.87-2.8,0.01c-1.39,0.88-3.44,2.85-3.74,3.53C20.26,56.95,18.5,60.14,19.86,59.59"/>
	<path class="st12" d="M16.93,56.05c0.82-0.1,3.31-0.59,4.48-1.1c1.16-0.51,2.06-0.84,2.92-1.81c0.86-0.97,1.44-1.04,1.39-1.86
		c-0.05-0.81-1.14-1.21-2.71-0.71c-1.57,0.49-4.06,1.86-4.53,2.44C18,53.6,15.48,56.22,16.93,56.05"/>
	<path class="st13" d="M15.02,51.87c0.82,0.12,3.35,0.29,4.61,0.1c1.25-0.19,2.21-0.28,3.29-0.99c1.08-0.72,1.66-0.63,1.82-1.43
		c0.16-0.8-0.79-1.46-2.43-1.39c-1.64,0.07-4.4,0.74-5.01,1.19C16.69,49.78,13.58,51.66,15.02,51.87"/>
	<path class="st12" d="M14.26,47.33c0.76,0.32,3.16,1.15,4.42,1.29c1.26,0.15,2.2,0.31,3.44-0.1c1.23-0.41,1.77-0.18,2.13-0.91
		c0.36-0.73-0.38-1.61-1.98-1.97c-1.6-0.36-4.45-0.42-5.15-0.15C16.42,45.75,12.92,46.76,14.26,47.33"/>
	<path class="st13" d="M14.7,42.76c0.65,0.51,2.76,1.93,3.94,2.39c1.18,0.47,2.05,0.86,3.34,0.79c1.3-0.08,1.75,0.28,2.29-0.33
		c0.54-0.61,0.05-1.66-1.4-2.42c-1.46-0.76-4.18-1.56-4.93-1.48C17.19,41.79,13.55,41.86,14.7,42.76"/>
	<path class="st12" d="M16.31,38.45c0.49,0.66,2.16,2.58,3.18,3.33c1.02,0.76,1.75,1.37,3.03,1.63c1.27,0.26,1.62,0.73,2.3,0.28
		c0.68-0.45,0.48-1.59-0.73-2.7c-1.21-1.11-3.63-2.59-4.38-2.71C18.97,38.17,15.44,37.29,16.31,38.45"/>
	<path class="st13" d="M18.98,34.72c0.31,0.76,1.42,3.05,2.21,4.04c0.79,0.99,1.34,1.78,2.5,2.36c1.16,0.58,1.38,1.12,2.15,0.86
		c0.77-0.26,0.87-1.41,0-2.8c-0.88-1.39-2.84-3.45-3.52-3.75C21.62,35.13,18.44,33.36,18.98,34.72"/>
	<path class="st12" d="M22.53,31.8c0.1,0.82,0.58,3.31,1.09,4.48c0.5,1.16,0.83,2.06,1.8,2.93c0.97,0.87,1.04,1.44,1.85,1.39
		c0.81-0.05,1.21-1.13,0.72-2.7c-0.49-1.57-1.85-4.07-2.43-4.54C24.98,32.88,22.36,30.35,22.53,31.8"/>
	<path class="st13" d="M27.22,29.9c-0.12,0.81-0.3,3.35-0.11,4.61c0.18,1.25,0.27,2.21,0.98,3.29c0.71,1.09,0.63,1.66,1.43,1.82
		c0.8,0.16,1.46-0.78,1.4-2.42c-0.07-1.64-0.73-4.41-1.17-5.01C29.3,31.58,27.43,28.46,27.22,29.9"/>
	<path class="st9" d="M83.5,63.7c0,5.69-4.62,10.31-10.31,10.31c-5.69,0-10.31-4.62-10.31-10.31c0-5.69,4.62-10.31,10.31-10.31
		C78.88,53.39,83.5,58,83.5,63.7"/>
	<path class="st10" d="M70.21,42.68c-0.3,0.93-1.01,3.86-1.04,5.36c-0.03,1.5-0.12,2.63,0.5,4.04c0.62,1.41,0.41,2.06,1.31,2.41
		c0.9,0.34,1.86-0.63,2.11-2.56c0.25-1.93,0.02-5.29-0.38-6.09C72.31,45.05,70.74,41.03,70.21,42.68"/>
	<path class="st10" d="M75.65,42.69c-0.53,0.82-1.97,3.46-2.39,4.91c-0.42,1.44-0.8,2.51-0.57,4.03c0.23,1.52-0.14,2.1,0.64,2.67
		c0.78,0.57,1.96-0.12,2.7-1.92c0.74-1.8,1.39-5.1,1.21-5.98C77.07,45.53,76.59,41.24,75.65,42.69"/>
	<path class="st11" d="M80.91,44.13c-0.72,0.65-2.8,2.83-3.58,4.12c-0.78,1.28-1.42,2.22-1.59,3.75c-0.17,1.53-0.68,1.99-0.07,2.74
		c0.61,0.75,1.93,0.39,3.11-1.16c1.18-1.55,2.66-4.57,2.72-5.46C81.54,47.23,82.19,42.97,80.91,44.13"/>
	<path class="st10" d="M85.61,46.87c-0.87,0.44-3.44,2.01-4.53,3.05c-1.09,1.04-1.95,1.77-2.51,3.21c-0.56,1.43-1.18,1.75-0.78,2.63
		c0.39,0.88,1.76,0.88,3.3-0.31c1.54-1.19,3.76-3.72,4.04-4.57C85.41,50.03,87.15,46.08,85.61,46.87"/>
	<path class="st11" d="M89.44,50.74c-0.95,0.21-3.85,1.05-5.16,1.77c-1.32,0.72-2.34,1.21-3.25,2.45c-0.91,1.24-1.59,1.38-1.44,2.34
		c0.15,0.95,1.47,1.3,3.27,0.55c1.8-0.75,4.59-2.62,5.09-3.36C88.43,53.74,91.13,50.37,89.44,50.74"/>
	<path class="st10" d="M92.14,55.47c-0.97-0.05-3.99,0.02-5.45,0.37c-1.46,0.35-2.57,0.56-3.78,1.52c-1.2,0.96-1.89,0.92-1.99,1.88
		c-0.1,0.96,1.08,1.64,3.01,1.38c1.93-0.26,5.12-1.34,5.78-1.93C90.38,58.11,93.86,55.56,92.14,55.47"/>
	<path class="st11" d="M93.52,60.73c-0.93-0.3-3.86-1.02-5.36-1.05c-1.5-0.04-2.63-0.13-4.04,0.49c-1.41,0.61-2.07,0.4-2.41,1.3
		c-0.35,0.9,0.62,1.86,2.55,2.12c1.93,0.25,5.29,0.03,6.09-0.37C91.14,62.83,95.16,61.27,93.52,60.73"/>
	<path class="st10" d="M93.48,66.18c-0.82-0.53-3.46-1.98-4.9-2.41c-1.44-0.42-2.51-0.8-4.03-0.58c-1.52,0.23-2.1-0.15-2.67,0.63
		c-0.57,0.78,0.12,1.96,1.91,2.71c1.8,0.74,5.1,1.4,5.97,1.22C90.64,67.58,94.93,67.12,93.48,66.18"/>
	<path class="st10" d="M92.04,71.43c-0.65-0.73-2.83-2.81-4.11-3.59c-1.28-0.78-2.22-1.43-3.74-1.6c-1.53-0.17-1.99-0.69-2.74-0.08
		c-0.75,0.61-0.4,1.93,1.15,3.11c1.54,1.18,4.56,2.67,5.45,2.73C88.93,72.05,93.2,72.71,92.04,71.43"/>
	<path class="st10" d="M88.38,76.73c-0.44-0.87-2-3.45-3.04-4.54c-1.03-1.09-1.77-1.95-3.2-2.52c-1.43-0.57-1.74-1.18-2.63-0.79
		c-0.88,0.39-0.88,1.76,0.3,3.3c1.18,1.54,3.71,3.77,4.56,4.05C85.22,76.52,89.16,78.26,88.38,76.73"/>
	<path class="st10" d="M85.41,79.95c-0.2-0.95-1.04-3.85-1.76-5.17c-0.72-1.32-1.2-2.34-2.44-3.26c-1.24-0.92-1.38-1.59-2.33-1.44
		c-0.95,0.15-1.31,1.47-0.56,3.27c0.74,1.8,2.61,4.6,3.35,5.09C82.4,78.93,85.76,81.63,85.41,79.95"/>
	<path class="st10" d="M80.67,82.63c0.05-0.97-0.01-3.99-0.36-5.45c-0.35-1.46-0.55-2.58-1.51-3.78c-0.95-1.21-0.92-1.89-1.88-2
		c-0.96-0.11-1.64,1.08-1.39,3.01c0.25,1.93,1.33,5.12,1.92,5.79C78.03,80.87,80.58,84.35,80.67,82.63"/>
	<path class="st10" d="M74.9,83.71c0.3-0.93,1.03-3.85,1.07-5.35c0.04-1.5,0.13-2.63-0.48-4.04c-0.61-1.41-0.4-2.07-1.3-2.42
		c-0.9-0.35-1.87,0.62-2.12,2.55c-0.26,1.93-0.04,5.29,0.35,6.09C72.81,81.32,74.36,85.35,74.9,83.71"/>
	<path class="st10" d="M69.56,83.43c0.53-0.82,1.99-3.45,2.42-4.89c0.43-1.44,0.81-2.51,0.59-4.03c-0.22-1.52,0.15-2.1-0.63-2.67
		c-0.78-0.57-1.96,0.11-2.71,1.91c-0.75,1.8-1.41,5.1-1.24,5.97C68.16,80.58,68.61,84.87,69.56,83.43"/>
	<path class="st11" d="M64.71,82.49c0.73-0.65,2.82-2.82,3.6-4.1c0.79-1.28,1.43-2.21,1.61-3.74c0.18-1.53,0.69-1.99,0.09-2.74
		c-0.6-0.75-1.92-0.4-3.11,1.14c-1.19,1.54-2.69,4.56-2.75,5.44C64.09,79.38,63.42,83.64,64.71,82.49"/>
	<path class="st10" d="M61.16,79.27c0.87-0.44,3.45-1.99,4.54-3.03c1.09-1.03,1.96-1.76,2.53-3.19c0.57-1.43,1.18-1.74,0.8-2.62
		s-1.75-0.89-3.3,0.29c-1.55,1.18-3.78,3.7-4.06,4.55C61.37,76.11,59.62,80.05,61.16,79.27"/>
	<path class="st11" d="M56.21,75.83c0.96-0.2,3.85-1.03,5.17-1.74c1.32-0.71,2.35-1.2,3.27-2.43c0.92-1.23,1.59-1.37,1.45-2.33
		c-0.14-0.95-1.46-1.31-3.26-0.57c-1.8,0.74-4.61,2.6-5.1,3.34C57.23,72.83,54.52,76.19,56.21,75.83"/>
	<path class="st11" d="M54.65,70.73c0.97,0.06,3.99,0,5.45-0.34c1.46-0.35,2.58-0.55,3.79-1.5c1.21-0.95,1.9-0.91,2-1.87
		c0.11-0.96-1.07-1.65-3-1.4c-1.93,0.25-5.12,1.31-5.8,1.9C56.42,68.1,52.93,70.63,54.65,70.73"/>
	<path class="st10" d="M52.95,65.56c0.93,0.31,3.85,1.04,5.35,1.08c1.5,0.04,2.63,0.14,4.05-0.47c1.41-0.61,2.07-0.39,2.42-1.29
		c0.35-0.9-0.61-1.87-2.54-2.13c-1.93-0.26-5.29-0.06-6.09,0.33S51.31,65.02,52.95,65.56"/>
	<path class="st10" d="M52.25,60.37c0.82,0.53,3.45,2,4.89,2.43c1.44,0.43,2.51,0.82,4.03,0.6c1.52-0.22,2.1,0.16,2.67-0.62
		c0.57-0.78-0.11-1.96-1.9-2.72c-1.79-0.75-5.09-1.43-5.97-1.26C55.1,58.98,50.8,59.42,52.25,60.37"/>
	<path class="st11" d="M54.66,55.13c0.65,0.73,2.81,2.83,4.09,3.62c1.28,0.79,2.21,1.44,3.73,1.62c1.53,0.18,1.99,0.7,2.74,0.1
		c0.76-0.6,0.41-1.92-1.13-3.12c-1.54-1.19-4.55-2.7-5.44-2.76C57.77,54.52,53.51,53.84,54.66,55.13"/>
	<path class="st11" d="M56.5,50.45c0.44,0.87,1.99,3.46,3.01,4.55c1.03,1.1,1.76,1.96,3.19,2.54c1.43,0.57,1.74,1.19,2.62,0.8
		c0.89-0.39,0.89-1.75-0.28-3.3c-1.18-1.55-3.69-3.79-4.54-4.08C59.66,50.67,55.73,48.9,56.5,50.45"/>
	<path class="st10" d="M60.4,46.64c0.2,0.96,1.02,3.85,1.73,5.18c0.71,1.33,1.19,2.35,2.42,3.27c1.23,0.92,1.37,1.6,2.32,1.46
		c0.96-0.14,1.31-1.46,0.58-3.26c-0.73-1.8-2.59-4.61-3.32-5.11C63.39,47.68,60.05,44.95,60.4,46.64"/>
	<path class="st11" d="M65.15,43.99c-0.06,0.97-0.01,3.99,0.33,5.45c0.34,1.46,0.54,2.58,1.49,3.79c0.95,1.21,0.91,1.9,1.87,2.01
		c0.96,0.11,1.65-1.07,1.41-3c-0.24-1.93-1.3-5.13-1.88-5.8C67.78,45.76,65.25,42.26,65.15,43.99"/>
	<path class="st12" d="M73.09,42.14c-0.38,0.9-1.33,3.76-1.49,5.25c-0.16,1.49-0.34,2.61,0.16,4.07c0.5,1.46,0.23,2.09,1.1,2.51
		c0.87,0.42,1.91-0.47,2.32-2.37c0.41-1.9,0.46-5.27,0.13-6.1C74.98,44.68,73.75,40.55,73.09,42.14"/>
	<path class="st13" d="M78.51,42.62c-0.6,0.77-2.26,3.29-2.8,4.69c-0.54,1.4-1.01,2.43-0.9,3.97c0.1,1.54-0.32,2.08,0.41,2.71
		c0.73,0.63,1.96,0.04,2.85-1.69c0.89-1.73,1.81-4.97,1.71-5.85C79.68,45.56,79.57,41.25,78.51,42.62"/>
	<path class="st12" d="M83.63,44.49c-0.78,0.59-3.03,2.59-3.92,3.8c-0.89,1.21-1.6,2.09-1.9,3.6c-0.3,1.51-0.85,1.93-0.3,2.73
		c0.54,0.8,1.89,0.55,3.19-0.89c1.31-1.44,3.04-4.33,3.17-5.21C83.99,47.63,85,43.44,83.63,44.49"/>
	<path class="st13" d="M87.51,48.03c-0.9,0.37-3.6,1.71-4.77,2.66c-1.17,0.94-2.09,1.6-2.77,2.98c-0.68,1.38-1.32,1.64-1,2.55
		c0.32,0.91,1.68,1.02,3.31-0.03c1.64-1.05,4.06-3.39,4.41-4.21C87.05,51.16,89.11,47.37,87.51,48.03"/>
	<path class="st12" d="M91.57,51.8c-0.97,0.12-3.92,0.72-5.29,1.33c-1.37,0.61-2.43,1.01-3.45,2.16c-1.02,1.16-1.7,1.24-1.63,2.21
		c0.07,0.96,1.36,1.42,3.21,0.83c1.85-0.59,4.8-2.23,5.35-2.92C90.31,54.7,93.29,51.58,91.57,51.8"/>
	<path class="st13" d="M92.75,57.53c-0.97-0.13-3.97-0.32-5.46-0.09c-1.48,0.23-2.61,0.34-3.89,1.2c-1.28,0.85-1.96,0.76-2.15,1.71
		c-0.18,0.95,0.94,1.73,2.89,1.63c1.94-0.09,5.21-0.91,5.93-1.44C90.78,60.01,94.46,57.76,92.75,57.53"/>
	<path class="st12" d="M94.41,62.52c-0.9-0.38-3.76-1.34-5.25-1.5c-1.49-0.16-2.61-0.35-4.07,0.14c-1.46,0.49-2.09,0.23-2.51,1.1
		c-0.42,0.87,0.46,1.91,2.36,2.32c1.9,0.41,5.27,0.48,6.1,0.15C91.87,64.4,96.01,63.18,94.41,62.52"/>
	<path class="st13" d="M94.3,67.52c-0.77-0.6-3.28-2.27-4.68-2.81c-1.4-0.55-2.43-1.01-3.97-0.91c-1.54,0.1-2.08-0.32-2.71,0.4
		c-0.63,0.73-0.05,1.96,1.68,2.86c1.73,0.89,4.96,1.82,5.85,1.72C91.35,68.68,95.66,68.58,94.3,67.52"/>
	<path class="st12" d="M92.42,72.63c-0.59-0.78-2.58-3.04-3.79-3.93c-1.21-0.89-2.09-1.61-3.59-1.91c-1.51-0.3-1.92-0.85-2.73-0.31
		c-0.8,0.54-0.56,1.88,0.88,3.2c1.44,1.31,4.32,3.05,5.2,3.18C89.27,72.99,93.46,74.01,92.42,72.63"/>
	<path class="st13" d="M88.75,77.08c-0.37-0.9-1.71-3.6-2.64-4.78c-0.94-1.17-1.6-2.09-2.98-2.78c-1.38-0.68-1.64-1.32-2.55-1.01
		c-0.91,0.31-1.03,1.68,0.02,3.31c1.05,1.64,3.38,4.07,4.2,4.42C85.62,76.61,89.4,78.68,88.75,77.08"/>
	<path class="st12" d="M85.09,80.56c-0.12-0.97-0.71-3.92-1.32-5.3c-0.6-1.38-1-2.44-2.15-3.46c-1.15-1.02-1.24-1.7-2.2-1.63
		c-0.96,0.07-1.43,1.35-0.84,3.21c0.59,1.86,2.21,4.8,2.91,5.36C82.18,79.29,85.3,82.27,85.09,80.56"/>
	<path class="st13" d="M80.43,82.64c0.13-0.97,0.33-3.97,0.1-5.46c-0.23-1.48-0.33-2.61-1.18-3.9c-0.85-1.28-0.76-1.96-1.7-2.15
		c-0.95-0.19-1.73,0.94-1.64,2.88c0.09,1.94,0.89,5.21,1.42,5.93C77.95,80.67,80.19,84.35,80.43,82.64"/>
	<path class="st12" d="M74.77,83.75c0.38-0.9,1.35-3.75,1.52-5.24c0.17-1.49,0.35-2.61-0.13-4.07c-0.49-1.46-0.22-2.09-1.09-2.52
		c-0.87-0.42-1.91,0.46-2.33,2.36c-0.42,1.9-0.49,5.27-0.17,6.1C72.89,81.2,74.1,85.34,74.77,83.75"/>
	<path class="st13" d="M69.35,83.24c0.6-0.77,2.27-3.27,2.82-4.67c0.55-1.4,1.02-2.43,0.93-3.97c-0.09-1.54,0.33-2.08-0.4-2.71
		c-0.73-0.64-1.96-0.06-2.86,1.67c-0.9,1.73-1.84,4.96-1.74,5.84C68.2,80.29,68.29,84.6,69.35,83.24"/>
	<path class="st12" d="M64.25,81.35c0.78-0.59,3.04-2.57,3.94-3.78c0.89-1.21,1.61-2.08,1.92-3.59c0.31-1.51,0.86-1.92,0.32-2.72
		c-0.54-0.8-1.88-0.56-3.2,0.87c-1.31,1.43-3.06,4.31-3.2,5.19C63.9,78.2,62.87,82.39,64.25,81.35"/>
	<path class="st13" d="M59.81,78.19c0.9-0.37,3.61-1.7,4.78-2.63c1.17-0.94,2.1-1.59,2.79-2.97c0.69-1.38,1.33-1.63,1.01-2.55
		c-0.31-0.91-1.67-1.03-3.31,0.01c-1.64,1.04-4.07,3.37-4.43,4.19C60.29,75.06,58.21,78.84,59.81,78.19"/>
	<path class="st12" d="M56.34,74c0.97-0.12,3.92-0.7,5.3-1.3c1.38-0.6,2.44-0.99,3.46-2.15c1.02-1.15,1.71-1.24,1.64-2.2
		c-0.06-0.96-1.35-1.43-3.2-0.85c-1.86,0.58-4.81,2.2-5.37,2.89S54.63,74.21,56.34,74"/>
	<path class="st13" d="M54.08,69.04c0.97,0.14,3.97,0.34,5.46,0.12c1.49-0.22,2.61-0.33,3.9-1.17c1.28-0.85,1.97-0.75,2.15-1.7
		c0.19-0.95-0.93-1.73-2.87-1.65c-1.94,0.08-5.22,0.88-5.93,1.41C56.06,66.57,52.37,68.8,54.08,69.04"/>
	<path class="st12" d="M53.18,63.67c0.9,0.38,3.75,1.36,5.24,1.53c1.49,0.17,2.61,0.36,4.07-0.12c1.46-0.48,2.09-0.21,2.52-1.08
		c0.43-0.87-0.45-1.91-2.35-2.34c-1.9-0.42-5.27-0.5-6.1-0.18C55.73,61.8,51.59,63,53.18,63.67"/>
	<path class="st13" d="M53.7,58.25c0.77,0.6,3.27,2.28,4.66,2.83c1.4,0.55,2.43,1.03,3.96,0.94c1.54-0.09,2.08,0.33,2.72-0.39
		c0.64-0.73,0.06-1.96-1.66-2.87c-1.72-0.9-4.95-1.85-5.84-1.76C56.65,57.11,52.34,57.19,53.7,58.25"/>
	<path class="st12" d="M55.61,53.16c0.59,0.78,2.56,3.05,3.77,3.95c1.21,0.9,2.08,1.62,3.58,1.93c1.51,0.31,1.92,0.86,2.72,0.33
		c0.8-0.54,0.57-1.88-0.86-3.2c-1.43-1.32-4.31-3.07-5.19-3.21C58.76,52.82,54.57,51.77,55.61,53.16"/>
	<path class="st13" d="M58.77,48.73c0.36,0.91,1.69,3.61,2.62,4.79c0.93,1.18,1.59,2.1,2.96,2.79c1.37,0.69,1.63,1.33,2.55,1.02
		c0.91-0.31,1.04-1.67-0.01-3.31c-1.04-1.64-3.36-4.09-4.18-4.44C61.91,49.21,58.13,47.12,58.77,48.73"/>
	<path class="st12" d="M62.98,45.27c0.12,0.97,0.69,3.93,1.29,5.3c0.6,1.38,0.99,2.44,2.14,3.47c1.15,1.03,1.23,1.71,2.19,1.65
		c0.96-0.06,1.43-1.34,0.85-3.2c-0.58-1.86-2.19-4.82-2.88-5.38C65.88,46.55,62.78,43.55,62.98,45.27"/>
	<path class="st13" d="M68.54,43.02c-0.14,0.97-0.35,3.97-0.13,5.46c0.22,1.49,0.32,2.62,1.16,3.9c0.84,1.29,0.74,1.97,1.69,2.16
		c0.95,0.19,1.73-0.93,1.65-2.87c-0.08-1.94-0.86-5.22-1.39-5.94C71,45.01,68.78,41.31,68.54,43.02"/>
</g>
</svg>
