<?xml version="1.0" encoding="utf-8"?>
<!-- Generator: Adobe Illustrator 23.1.1, SVG Export Plug-In . SVG Version: 6.00 Build 0)  -->
<svg version="1.1" id="Layer_1" xmlns="http://www.w3.org/2000/svg" xmlns:xlink="http://www.w3.org/1999/xlink" x="0px" y="0px"
	 viewBox="0 0 108 108" style="enable-background:new 0 0 108 108;" xml:space="preserve">
<style type="text/css">
	.st0{fill:none;stroke:#708530;stroke-width:1.0127;stroke-miterlimit:10;}
	.st1{fill:#337034;}
	.st2{fill:#3F8133;}
	.st3{fill:#678B2B;}
	.st4{fill:#B0CC36;}
	.st5{fill:#639D3C;}
	.st6{fill:#84B53A;}
	.st7{fill:#A5C939;}
	.st8{fill:#64791A;}
	.st9{fill:#A6BD39;}
	.st10{fill:#72AA3A;}
	.st11{fill:#598A34;}
	.st12{fill:#81842A;}
	.st13{fill:#4F7E2E;}
	.st14{fill:#96AB89;}
	.st15{fill:#7A937E;}
	.st16{fill:#AA5895;}
	.st17{fill:#904F8B;}
	.st18{fill:#B089BF;}
	.st19{fill:#725585;}
	.st20{fill:#9E69A9;}
	.st21{fill:#AC87BD;}
	.st22{fill:#AA438C;}
	.st23{fill:#913778;}
	.st24{fill:#AE73DF;}
	.st25{fill:#BD5191;}
	.st26{fill:#BF88BC;}
	.st27{fill:#B66DA9;}
</style>
<g>
	<path class="st0" d="M34.3,58.2c-0.2,3,0.5,8.4,1,12.2"/>
	<path class="st0" d="M26.4,61c3.7,2,8.2,6.2,10.3,10.3"/>
	<path class="st0" d="M24.5,68.5c4.5-1.6,8.2-3.6,10.8,1.2"/>
	<path class="st1" d="M37.2,50.8c2.4,0.1,3.2-0.9,6.3,3.7l3.1,4.6c0,0-1.1,0.5-2.3,1.2c-1.2,0.7-5.5,3.6-9,1.1
		c-3.5-2.5-5.3-4.4-5.7-5c-0.5-0.7-2.6-2.7-3-3.2"/>
	<path class="st2" d="M14.3,48.7c2.7,1.5,6.9-0.5,10,2.3c3.2,2.8,4.6,9.1,5.3,10.9c0.7,1.8,2.1,1.3-1.1,0.9
		c-3.2-0.3-3.4,0.8-6.1-0.3c-2.7-1-6.2-5.7-6.3-7.5C15.9,53.2,14.3,48.7,14.3,48.7"/>
	<path class="st3" d="M29.5,66.7c-0.8-0.1-1.7-0.9-5.7-1.5c-4-0.6-7.2-0.5-8.1,2.5c-0.9,3.1,0,3.8-1.9,5.7L12,75.2
		c0,0,3.4,0.5,8.2,1c4.8,0.5,7.4-4.3,8.2-6.3C29.1,67.9,29.5,66.7,29.5,66.7"/>
	<path class="st4" d="M31.7,66.9c0,0,1.7,2.3,5.4,2.8c3.8,0.5,7.7,2.9,7.4,7c-0.3,4.1,0.8,6.5,0.8,6.5s0.1-0.6-3.2-0.7
		c-3.3-0.1-7.8-3.1-8.8-6.6C32.3,72.5,31.7,66.9,31.7,66.9"/>
	<path class="st5" d="M54.8,64.5c0,0-5.3,4.4-7,7.6c-1.8,3.2-2.3,5.2-0.6,7.8c1.7,2.7,2.3,4.7,2.3,4.7s3.1-3.9,4.9-4.6
		s4.1-3.9,3.3-6.1C56.9,71.7,54.8,64.5,54.8,64.5"/>
	<path class="st0" d="M83.9,66.4c-2.8,0.5-7.7,2.3-11.2,3.6"/>
	<path class="st0" d="M79,59.1c-0.9,4.1-3.5,9.5-6.7,12.5"/>
	<path class="st0" d="M71.5,58.7c2.8,4.1,5.7,7.5,1.9,11.1"/>
	<path class="st6" d="M80.9,78.9c-2.2,0.7-2.5,1.9-7.1-1.4l-4.6-3.4c0,0,0.7-0.9,1.6-1.9c0.8-1,3.5-5.3,7.6-4.1
		c4.1,1.2,6.4,2.5,7.1,3c0.7,0.5,3.3,1.7,4,2.1"/>
	<path class="st7" d="M78.5,48.1c-0.7,3,2.4,6.8,0.7,10.6c-1.8,3.8-7.2,6.5-8.8,7.6c-1.5,1-0.6,2.4-1.2-0.9
		c-0.6-3.3-1.7-3.3-1.5-6.2c0.2-2.9,3.6-7.4,5.3-7.9C74.7,50.8,78.5,48.1,78.5,48.1"/>
	<path class="st3" d="M74.6,63.4c-0.1-0.9,0.4-1.9-0.2-6c-0.6-4.1-1.5-7.3-4.7-7.6c-3.1-0.3-3.6,0.8-5.8-0.7l-2.3-1.5
		c0,0,0.5,3.6,1.4,8.5c0.9,4.9,6.1,6.6,8.2,6.9C73.3,63.3,74.6,63.4,74.6,63.4"/>
	<path class="st8" d="M75,65.6c0,0-1.7,2.2-1.1,6.1c0.6,3.9-0.5,8.4-4.5,8.9s-5.9,2.1-5.9,2.1s0.6,0-0.2-3.3
		c-0.8-3.3,0.7-8.4,3.7-10.2C70,67.4,75,65.6,75,65.6"/>
	<path class="st9" d="M60.3,83.4c0.1,0,0.8-3.2,0.6-6.8c-0.2-3.6-0.5-5.5-2.4-6.7c-1.9-1.2-3.9-1.9-6-2.6c-2.1-0.7-3-0.7-3.3-1.5
		c-0.3-0.8,0.9,0.9,0.6,5c-0.3,4.1-1,6.1,0.5,7.5c1.5,1.5,3.8,1.1,5.8,2.2C58,81.6,60.3,83.4,60.3,83.4"/>
	<path class="st0" d="M36.5,83.9c6,0.4,15-1.5,16.8-1.7"/>
	<path class="st5" d="M24,80.9c0,0,5.2,4.9,8.6,6.4c3.4,1.5,5.4,1.9,7.6-0.2c2.2-2.1,4.1-2.8,4.1-2.8S40,81.5,39,79.7
		c-1.1-1.8-4.5-3.8-6.4-2.8C30.6,78,24,80.9,24,80.9"/>
	<path class="st10" d="M52.2,73.6c-0.2,3,0.5,8.4,1,12.2"/>
	<path class="st10" d="M44.3,76.4c3.7,2,8.2,6.2,10.3,10.3"/>
	<path class="st10" d="M42.4,83.9c4.5-1.6,8.2-3.6,10.8,1.2"/>
	<path class="st11" d="M58.8,68.6c0.2,2.4,1.3,3-2.8,6.7L51.9,79c0,0-0.7-1-1.5-2.1c-0.8-1.1-4.3-5-2.3-8.8c2-3.8,3.6-5.8,4.3-6.3
		c0.6-0.6,2.3-2.9,2.8-3.4"/>
	<path class="st10" d="M32.2,64c2.7,1.5,6.9-0.5,10,2.3c3.2,2.8,4.6,9.1,5.3,10.9c0.7,1.8,2.1,1.3-1.1,0.9c-3.2-0.3-3.4,0.8-6.1-0.3
		c-2.7-1-6.2-5.7-6.3-7.5C33.8,68.6,32.2,64,32.2,64"/>
	<path class="st0" d="M41.1,54c0.3,3,1.9,8.2,3.1,11.9"/>
	<path class="st0" d="M33.9,58.2c3.9,1.4,9.1,4.6,11.8,8.3"/>
	<path class="st0" d="M33.3,66c4.1-2.4,7.4-5.1,10.8-0.8"/>
	<path class="st0" d="M51.3,73.5c4.9,3.4,9.6,8,11.7,12.1"/>
	<path class="st0" d="M60.3,69.5c0,6.2,2.5,15.5,2.9,17.4"/>
	<path class="st0" d="M53.3,81.6c3.4-1.3,5.2-3.2,9.2,2.6"/>
	<path class="st6" d="M53.1,58.5c0.6,2.3,1.8,2.8-1.6,7.2l-3.4,4.4c0,0-0.8-0.9-1.8-1.8c-1-1-5-4.2-3.7-8.3c1.3-4.1,2.6-6.4,3.1-7
		c0.5-0.7,1.8-3.3,2.2-3.9"/>
	<path class="st7" d="M23.3,57.5c2.9,1,6.6-1.8,10.2,0.5c3.6,2.3,6,8.2,7,9.9c1,1.7,2.3,0.9-0.9,1.1c-3.2,0.2-3.2,1.4-6.1,0.8
		c-2.8-0.5-7-4.6-7.4-6.3C25.7,61.7,23.3,57.5,23.3,57.5"/>
	<path class="st3" d="M37.9,63.3c-0.8,0-1.8-0.6-5.8-0.4c-4,0.2-7.1,0.8-7.5,4c-0.4,3.2,0.6,3.8-0.9,5.9l-1.5,2.2
		c0,0,3.4-0.1,8.2-0.5c4.8-0.4,6.6-5.6,7-7.7C37.7,64.6,37.9,63.3,37.9,63.3"/>
	<path class="st8" d="M40.1,63.1c0,0,2,2,5.8,1.8c3.8-0.2,8.1,1.5,8.4,5.6s1.9,6.4,1.9,6.4s0-0.6-3.2-0.1c-3.3,0.4-8.1-1.6-9.7-4.9
		C41.6,68.5,40.1,63.1,40.1,63.1"/>
	<path class="st5" d="M62.2,56.6c0,0-4.4,5.3-5.6,8.8c-1.2,3.5-1.4,5.6,0.7,7.9c2.1,2.3,3,4.2,3,4.2s2.4-4.4,4.1-5.5
		c1.7-1.1,3.4-4.7,2.2-6.7C65.6,63.4,62.2,56.6,62.2,56.6"/>
	<path class="st0" d="M88.2,72.2c-2.8,0.4-7.8,2.1-11.3,3.3"/>
	<path class="st0" d="M83.5,64.7c-1,4.1-3.7,9.4-7,12.3"/>
	<path class="st0" d="M75.9,64.2c2.7,4.2,5.5,7.6,1.7,11.1"/>
	<path class="st1" d="M94.7,77.9c-2.2,0.6-2.5,1.9-7.1-1.6L83,72.8c0,0,0.8-0.9,1.6-1.9c0.9-1,3.6-5.3,7.7-3.9
		c4.1,1.3,6.4,2.6,7.1,3.1c0.7,0.5,3.3,1.8,4,2.2"/>
	<path class="st6" d="M92,50.2c-0.8,3,2.3,6.8,0.4,10.6c-1.9,3.7-7.4,6.3-8.9,7.3c-1.6,1-0.6,2.4-1.1-0.9c-0.5-3.3-1.6-3.3-1.3-6.3
		c0.3-2.9,3.8-7.3,5.5-7.7C88.1,52.7,92,50.2,92,50.2"/>
	<path class="st3" d="M79,68.9c-0.1-0.9,0.4-1.9-0.1-6c-0.5-4.1-1.4-7.3-4.5-7.7c-3.1-0.4-3.6,0.7-5.8-0.9l-2.2-1.6
		c0,0,0.4,3.6,1.2,8.5c0.8,4.9,5.9,6.7,8,7.1C77.7,68.8,79,68.9,79,68.9"/>
	<path class="st4" d="M79.3,71.2c0,0-1.8,2.1-1.2,6c0.5,3.9-0.7,8.4-4.7,8.8c-4,0.4-6,2-6,2s0.6,0-0.1-3.3
		c-0.7-3.4,0.9-8.4,3.9-10.1C74.2,72.8,79.3,71.2,79.3,71.2"/>
	<path class="st12" d="M64.2,88.6c0.1,0,0.8-3.1,0.8-6.8c-0.1-3.6-0.4-5.5-2.3-6.8c-1.9-1.2-3.8-2-6-2.8c-2.1-0.8-3-0.8-3.3-1.6
		c-0.3-0.8,0.8,1,0.4,5c-0.4,4-1.2,6,0.3,7.5c1.5,1.5,3.7,1.2,5.8,2.3C62,86.7,64.2,88.6,64.2,88.6"/>
	<path class="st10" d="M67.3,82.9c4.2-3.9,9.5-7.4,13.8-8.3"/>
	<path class="st10" d="M65.4,72.7c5.8,1.7,15,1.9,16.9,2"/>
	<path class="st10" d="M75.4,83.2c-0.5-3.8-1.9-6.2,4.4-8.5"/>
	<path class="st13" d="M53.7,67.1c0,0,4.1,5.9,7.1,8.1c3,2.2,4.9,3,7.5,1.5c2.6-1.5,4.6-1.8,4.6-1.8s-3.6-3.6-4.3-5.6
		c-0.7-2-3.7-4.7-5.8-4.1C60.8,65.7,53.7,67.1,53.7,67.1"/>
	<path class="st14" d="M55.3,46.2c0,0,0.8,0.6-0.3,1.2c-1,0.6-2.3,1.2-2.6,1.6c-0.3,0.4-0.7,1.7-0.7,1.7s3.3-1.1,4-1.2
		c0.7-0.2,1.2-0.1,1.2-0.1s-0.4,1.2-0.4,1.8c-0.1,0.6-0.5,2.1-0.5,2.1s0.7-1.5,1.3-2c0.6-0.4,1.3-0.5,1.5-1c0.2-0.5,0.1-1.8,0.5-1.3
		c0.4,0.5,0.9,0.3,1.4,0.6c0.5,0.3,3.2,1.3,3.2,1.3S63,49.6,62.6,49c-0.4-0.6-0.4-0.7-1-1c-0.6-0.4-0.9-1.6-0.9-1.6l-1,0.8
		c0,0-0.5-2.3-1.8-1.6c-1.3,0.7-1.9-0.7-1.9-0.7L55.3,46.2z"/>
	<polygon class="st15" points="59.2,49 55.6,73.1 54.4,74.1 57.9,49.6 	"/>
	<path class="st16" d="M53.8,22.4c-1.4-1.5-1.5-2.3-3.6-1.5c-2.1,0.8-7.3,6.8-6.2,10.5c1,3.7,2.5,9.2,4.3,10.7
		c1.8,1.5,3.3,2.1,4.4,2.2c1.2,0.1,10.5-1.1,11-1.5c0.5-0.4-0.1-2.7,0.3-2.8c0.4-0.1,1.5-0.1,2.5-0.9c1.1-0.9,2.2-4.2,2.2-6.7
		c0-2.5-1.4-7.5-3.1-9.4c-1.8-1.9-3.5-2.7-5.2-3.1c-1.7-0.3-3-0.9-4,0.1c-1,1,0.6,1.3-1.1,1.8C53.8,22.4,53.8,22.4,53.8,22.4z"/>
	<path class="st17" d="M63,35.5c0.2-1.1,0.2-2.8-0.6-5.3c-0.9-2.5-0.2-3.6-1.9-5c-1.7-1.4-2.3-1.9-3.6-1.6c-1.4,0.3-2.3-0.5-2.6,0.7
		c-0.3,1.2,1.3,1.8-0.4,2.3c-1.7,0.5-1.8-0.6-2.4,0.4c-0.6,1.1-0.4,1.6-0.3,2.2c0.1,0.6,0.4,0.3,0.7,1.7c0.2,1.3-1.1-0.2,0.5,2
		c1.5,2.3,1,2.7,1.7,3.4c0.7,0.7,2.3,1.7,2.8,1.9s1.4,0.5,2.2,0.2C59.9,38.3,63,35.5,63,35.5z"/>
	<path class="st18" d="M52,43.2c0,0-1.2,1.4-0.8,2c0.4,0.7,0.8,0.9,2.2,0.9c1.5-0.1,2.4-1.2,3.1,0.2c0.7,1.4,0.5,2.3,1.2,1.9
		c0.8-0.4,0.7-0.2,2-1c1.3-0.8,1.1-1.3,2.1-1.2c1,0.1,2,1.8,3.1-0.2c1.1-2.1,2.1-4.7,0.5-7.1c-1.7-2.3-3.5-3.6-4.7-4.6
		c-1.2-1-4.2-4.1-4.2-4.1L55,34.5L52,43.2z"/>
	<path class="st19" d="M56,35.3c0.4,0.7,0.4,1.1,0.7,1.6c0.3,0.5-0.1,0.5,1,0.3c1.1-0.2,1.4-0.1,1.1-1.1c-0.3-1,0.2-1.6-0.3-2.4
		c-0.5-0.8-1.3-2-1.3-2l-1.1,0.5L56,35.3z"/>
	<path class="st20" d="M59.3,39.8c0,0,0.7,3.8,0.7,3.8c0,0-0.5,1.8-0.5,1.8s0.4-0.4,1.4-0.7c1.1-0.3,1.7,0.2,2.2-0.8
		c0.5-1,0.6-0.9-0.4-3c-1.1-2-1.3-1.3-1.7-2.4c-0.4-1,0.2-0.9-1-1.7C58.8,36.1,59.3,39.8,59.3,39.8z"/>
	<path class="st20" d="M57.9,45.6c0-0.4,0.1-3.5-0.4-5.4c-0.6-1.9,0.3-3.1,0.3-3.1s-1.7,4.1-1.4,5.5c0.3,1.4,0.2,0.2,0.3,1.4
		C56.7,45.2,57.9,45.6,57.9,45.6z"/>
	<path class="st20" d="M55.5,38.5c0.2,1-0.8,4.5-0.7,5.1c0.1,0.6-0.2,1.9-1.1,1.3c-0.9-0.6-0.7-2.7,0.1-3.5
		C54.6,40.6,55.5,38.5,55.5,38.5z"/>
	<path class="st21" d="M55.6,28.4c0.4-0.9,0.4-2,1.4-1.3c1,0.6,1.2,0.5,0.7,2.6c-0.6,2.1-1.2,6.6-2.4,6.7C54,36.5,52,43.2,52,43.2
		s2.6-8.6,2.9-10.8C55.2,30.1,55.6,28.4,55.6,28.4z"/>
	<path class="st21" d="M59.4,30.7c1.9,1.3,4.8,5,4.9,5.9c0.2,0.9,2.3,2.5,2.3,2.5s-3.9-2.7-5.1-3.3c-1.2-0.7-1.9-1.9-3-2
		C57.4,33.6,56.4,28.7,59.4,30.7z"/>
	<path class="st14" d="M33.7,42.3c0,0,1.4,0.3,0,1.5c-1.4,1.1-3.4,2.5-3.8,3c-0.4,0.6-0.7,2.3-0.7,2.3s5.3-2.9,6.4-3.4
		c1.1-0.5,1.9-0.7,1.9-0.7s-0.1,1.5,0,2.2s0,2.6,0,2.6s0.5-2,1.3-2.8s2-1.2,2-1.8c0-0.6-0.7-2,0.2-1.6c0.9,0.4,1.6-0.1,2.5,0
		c0.9,0.1,5.5,0,5.5,0s-1.9-1-2.8-1.5c-0.9-0.4-0.9-0.5-2-0.7s-2.1-1.3-2.1-1.3l-1.2,1.3c0,0-1.7-2.4-3.5-1c-1.8,1.3-3.1,0-3.1,0
		L33.7,42.3z"/>
	<polygon class="st15" points="40.9,43.8 47.9,70.8 45.8,72.7 39,45 	"/>
	<path class="st22" d="M25.7,14.6c-1.9-1.5-2.2-2.5-4.7-0.9S12,24.6,13.7,29s4.5,10.7,7.7,11.7c3.2,1,5.7,1,7.6,0.6
		c1.9-0.4,15.3-5.5,15.9-6.1c0.6-0.6-1.3-2.9-0.8-3.2s2-0.6,3-1.9c1-1.3,1-5.3,0-8s-4.5-8-7.2-9.8c-2.6-1.8-4.8-2.3-6.9-2.3
		s-3.7-0.3-4.7,1.2c-1,1.5,1,1.5-0.9,2.5C25.7,14.6,25.7,14.6,25.7,14.6z"/>
	<path class="st23" d="M40.9,27.3c-0.1-1.3-0.7-3.2-2.6-5.8c-1.9-2.6-1.3-4.1-3.8-5.3s-3.2-1.6-4.8-0.9s-2.9,0-3.1,1.6s2,1.8,0,2.9
		s-2.5-0.2-3.1,1.3c-0.6,1.5-0.3,2.1,0,2.8s0.6,0.3,1.2,1.8c0.6,1.6-1.6,0.1,1,2.3s2,2.9,3.2,3.5s3.8,1.2,4.5,1.2s2.2,0,3.2-0.6
		C37.7,31.5,40.9,27.3,40.9,27.3z"/>
	<path class="st24" d="M27.6,40.3c0,0-1.6,2.2-0.7,2.8c0.9,0.6,1.5,0.7,3.8,0c2.3-0.7,3.3-2.4,4.9-1.1s1.6,2.4,2.6,1.6
		c1-0.8,1-0.5,2.6-2c1.6-1.4,1.2-1.9,2.6-2.2c1.5-0.3,3.9,1.2,4.4-1.5c0.5-2.6,0.7-5.8-2.5-7.9c-3.2-2-6.1-2.9-8-3.7
		s-6.7-3.5-6.7-3.5l-0.9,5.8L27.6,40.3z"/>
	<path class="st19" d="M31.4,29.3c0.7,0.7,0.9,1.2,1.5,1.6c0.6,0.4,0,0.6,1.5,0c1.5-0.6,1.9-0.6,1.2-1.6c-0.7-1-0.3-1.9-1.2-2.6
		S32,24.8,32,24.8l-1.3,0.9L31.4,29.3z"/>
	<path class="st20" d="M37.4,33.3c0,0,2.5,4,2.5,4s0,2.2,0,2.2s0.4-0.6,1.9-1.3s2.6-0.5,2.9-1.8c0.3-1.3,0.4-1.3-1.9-3.1
		c-2.3-1.8-2.4-1-3.4-2c-1-1-0.1-1.1-2-1.6S37.4,33.3,37.4,33.3z"/>
	<path class="st20" d="M37.4,40.5c-0.2-0.4-1.1-4-2.5-5.9c-1.5-2-0.6-3.7-0.6-3.7s-1.2,5.4-0.3,6.9c0.9,1.5,0.4,0.1,0.9,1.5
		C35.5,40.5,37.4,40.5,37.4,40.5z"/>
	<path class="st20" d="M31.5,33.3c0.6,1.1,0.1,5.5,0.5,6.2c0.4,0.6,0.3,2.3-1.3,2c-1.6-0.3-1.9-2.8-0.9-4.1
		C30.8,36.2,31.5,33.3,31.5,33.3z"/>
	<path class="st21" d="M29.2,21.3c0.3-1.2,0.1-2.5,1.5-2c1.4,0.4,1.7,0.3,1.5,2.9c-0.2,2.6,0.2,8.2-1.5,8.8
		c-1.8,0.6-3.1,9.3-3.1,9.3s1.8-11.2,1.6-14C29,23.5,29.2,21.3,29.2,21.3z"/>
	<path class="st21" d="M34.6,22.9c2.9,1,7.9,4.2,8.5,5.2c0.6,1,4.1,2,4.1,2s-6.3-1.7-8.2-2c-1.9-0.3-3.2-1.5-4.7-1.4
		S30.2,21.4,34.6,22.9z"/>
	<path class="st14" d="M74,41.1c0,0-1,0.3,0,1.3c1,1,2.3,2.1,2.6,2.6c0.3,0.5,0.5,2.1,0.5,2.1c0,0-3.5-2.6-4.3-2.9
		c-0.7-0.4-1.3-0.5-1.3-0.5c0,0,0.1,1.3,0.1,1.9c-0.1,0.6,0.1,2.3,0.1,2.3c0,0-0.4-1.8-0.9-2.4c-0.5-0.6-1.4-0.9-1.4-1.4
		c-0.1-0.5,0.4-1.8-0.2-1.4c-0.6,0.4-1.1,0-1.7,0.2c-0.6,0.2-3.8,0.7-3.8,0.7c0,0,1.2-1.2,1.8-1.7c0.6-0.5,0.6-0.6,1.3-0.9
		c0.7-0.3,1.4-1.4,1.4-1.4c0.3,0.3,0.6,0.7,0.9,1c0,0,1.1-2.2,2.4-1.1c1.3,1.1,2.2-0.1,2.2-0.1C73.7,40.1,73.9,40.6,74,41.1z"/>
	<path class="st15" d="M69.2,42.8C68,50.8,67,58.9,66.4,67c0.4,0.5,0.9,0.9,1.3,1.4c0.7-8.3,1.6-16.5,2.8-24.7
		C70,43.4,69.6,43.1,69.2,42.8z"/>
	<path class="st25" d="M80.2,16.9c1.6-1.2,1.9-2,3.8-0.4c2.1,1.6,6.5,10.8,4.7,14.3c-1.7,3.5-4,8.6-6.3,9.2c-2.3,0.6-4,0.5-5.3,0.1
		c-1.2-0.7-10.8-4.3-11.4-4.5c-0.5-0.4,0.8-2.7,0.4-2.9c-0.4-0.2-1.5-0.3-2.3-1.2c-0.8-1-1.2-4.4-0.6-7c0.6-2.6,3.1-7.7,5.2-9.4
		c2.1-1.8,3.9-2.4,5.6-2.4c1.7,0,3-0.3,3.9,1c0.8,1.3-0.8,1.2,0.7,2.2C80.2,16.9,80.2,16.9,80.2,16.9z"/>
	<path class="st23" d="M68.5,28.4c0.1-1.2,0.4-2.9,1.8-5.3c1.4-2.4,0.9-3.7,2.9-4.8c2-1.1,2.6-1.5,3.9-0.8c1.3,0.7,2.4,0.1,2.4,1.5
		c0.1,1.4-1.7,1.4-0.1,2.6c1.6,1.1,2,0,2.4,1.3c0.4,1.3,0.2,1.8-0.1,2.5c-0.2,0.6-0.5,0.2-0.9,1.5c-0.5,1.3,1.2,0.2-0.8,1.9
		c-2,1.8-1.6,2.5-2.4,3c-0.9,0.5-2.8,1-3.3,1c-0.5,0-1.6,0.1-2.4-0.4C71,31.8,68.5,28.3,68.5,28.4z"/>
	<path class="st26" d="M78.3,39.3c0,0,1.1,2,0.4,2.5c-0.6,0.5-1,0.6-2.6-0.1c-1.6-0.6-2.3-2.1-3.4-0.9c-1.1,1.2-1,2.2-1.8,1.6
		c-0.7-0.6-0.7-0.4-1.9-1.5c-1.2-1.1-0.9-1.5-1.9-1.6c-1-0.1-2.6,1.5-3.2-0.7c-0.6-2.2-1-5,1.3-7.2c2.2-2.2,4.4-3.2,5.8-4
		c1.4-0.8,5.1-3.3,5.1-3.3c0.2,1.7,0.4,3.4,0.7,5.1C77.3,32.6,77.8,36,78.3,39.3z"/>
	<path class="st19" d="M75.6,29.7c-0.5,0.6-0.6,1-1.1,1.4c-0.4,0.4,0,0.5-1.1,0c-1.1-0.5-1.4-0.4-0.9-1.4c0.5-0.9,0.2-1.7,0.8-2.3
		c0.7-0.7,1.7-1.7,1.7-1.7c0.3,0.3,0.7,0.5,1,0.8C76,27.6,75.8,28.6,75.6,29.7z"/>
	<path class="st27" d="M71.2,33.4c0,0-1.7,3.7-1.6,3.7c0,0,0.1,1.9,0.1,1.9c0,0-0.3-0.5-1.4-1c-1.1-0.5-1.9-0.2-2.2-1.2
		c-0.3-1.1-0.4-1.1,1.2-2.9c1.6-1.8,1.7-1.1,2.4-2.1c0.7-1,0-1,1.4-1.5C72.6,29.8,71.2,33.4,71.2,33.4z"/>
	<path class="st20" d="M71.4,39.7c0.1-0.4,0.6-3.5,1.7-5.3c1-1.8,0.4-3.3,0.4-3.3c0,0,0.9,4.7,0.3,6c-0.6,1.3-0.3,0.1-0.6,1.3
		C72.8,39.6,71.4,39.7,71.4,39.7z"/>
	<path class="st20" d="M75.5,33.2c-0.4,1-0.1,4.9-0.3,5.4c-0.2,0.6-0.2,2,0.9,1.8c1.1-0.2,1.4-2.4,0.6-3.6
		C76.1,35.7,75.5,33.2,75.5,33.2z"/>
	<path class="st21" d="M77.3,22.7c-0.2-1,0-2.2-1.2-1.8c-1.1,0.4-1.3,0.3-1.2,2.6c0.1,2.3-0.1,7.2,1.2,7.7c1.3,0.5,2.2,8.2,2.1,8.2
		c0,0-1.1-9.9-1-12.3C77.4,24.6,77.3,22.7,77.3,22.7z"/>
	<path class="st21" d="M73.1,24.1c-2.2,0.9-5.9,4.2-6.3,5.1c-0.4,0.9-2.9,2.3-2.9,2.3c0,0,4.6-2.3,6-2.7c1.4-0.4,2.4-1.5,3.5-1.4
		C74.5,27.5,76.5,22.8,73.1,24.1z"/>
</g>
</svg>
