<svg xmlns="http://www.w3.org/2000/svg" version="1.1" xmlns:xlink="http://www.w3.org/1999/xlink" xmlns:svgjs="http://svgjs.dev/svgjs" viewBox="0 0 108 108" style="" x="0" y="0"><style type="text/css">
	.st0{fill:none;stroke:#708530;stroke-width:1.1442;stroke-miterlimit:10;}
	.st1{fill:#62802F;}
	.st2{fill:#89AE78;}
	.st3{fill:#BEBC32;}
	.st4{fill:#92B83E;}
	.st5{fill:#76A747;}
	.st6{fill:#A5C939;}
	.st7{fill:#9EB97A;}
	.st8{fill:#506326;}
	.st9{fill:#980B4E;}
	.st10{fill:#A63B56;}
	.st11{fill:#C8B7B6;}
	.st12{fill:#FCC700;}
	.st13{fill:#982452;}
	.st14{fill:#A48404;}
</style><g><path class="st0" d="M70.3,31.4c-2.6,0.9-7,3.3-10.1,5"></path><path class="st0" d="M64.8,25.5c-0.3,3.9-2.1,9.3-4.8,12.5"></path><path class="st0" d="M57.7,26.4c3.1,3.4,6.3,6,3.1,9.8"></path><path class="st0" d="M55,44.5c-2,5.1-5,10.4-8.3,13"></path><path class="st0" d="M60.6,52c-5.6,1.2-13.4,5.2-15.1,5.9"></path><path class="st0" d="M48.1,47.8c2,2.9,4.1,4.3-0.3,9.1"></path><path class="st1" d="M77.1,35.5c-2,1-2.1,2.2-6.8-0.2L65.5,33c0,0,0.6-0.9,1.3-2c0.7-1.1,2.7-5.4,6.7-5c4,0.5,6.3,1.2,7.1,1.6
	c0.7,0.4,3.4,1.1,4,1.3"></path><path class="st1" d="M70.8,10.7c-0.3,2.9,3.1,5.8,1.9,9.5c-1.2,3.7-6,7.1-7.4,8.3c-1.3,1.2-0.3,2.3-1.2-0.6c-0.9-2.9-2-2.8-2.1-5.5
	c-0.2-2.7,2.5-7.3,4-8C67.5,13.7,70.8,10.7,70.8,10.7"></path><path class="st2" d="M61.2,30.1c-0.2-0.8,0.1-1.8-0.9-5.5c-1-3.7-2.3-6.4-5.3-6.2c-3,0.2-3.3,1.3-5.6,0.3l-2.3-1
	c0,0,0.9,3.2,2.3,7.5c1.4,4.3,6.5,5.1,8.5,5C59.9,30.2,61.2,30.1,61.2,30.1"></path><path class="st3" d="M61.8,32.1c0,0-1.4,2.2-0.3,5.7c1,3.5,0.5,7.8-3.2,8.9c-3.7,1.1-5.3,2.9-5.3,2.9s0.5-0.1-0.6-3
	c-1.1-2.9-0.4-7.8,2.3-9.9C57.3,34.5,61.8,32.1,61.8,32.1"></path><path class="st4" d="M72.7,51.5c0,0-5.8-3.1-9.2-3.5c-3.4-0.4-5.3-0.3-7,2.1c-1.6,2.4-3.1,3.6-3.1,3.6s4.5,1.4,5.9,2.8
	c1.4,1.4,5,2.3,6.5,0.8C67.4,55.8,72.7,51.5,72.7,51.5"></path><path class="st5" d="M50.1,50.7c0.1,0,0.4-3-0.2-6.3c-0.6-3.3-1.1-5-3.1-5.8c-2-0.8-3.9-1.1-6-1.4c-2.1-0.3-2.9-0.2-3.3-0.9
	c-0.4-0.7,0.9,0.7,1.1,4.5c0.2,3.8-0.3,5.7,1.3,6.8c1.6,1.1,3.7,0.4,5.7,1.1C47.7,49.4,50.1,50.7,50.1,50.7"></path><path class="st0" d="M82.3,77.6c-1.5-2.3-4.9-6-7.4-8.5"></path><path class="st0" d="M86.7,70.8c-3.8,0.6-9.5,0.2-13.3-1.6"></path><path class="st0" d="M84.1,64.1c-2.5,3.8-4.2,7.5-8.8,5.5"></path><path class="st0" d="M65.9,65.9c-5.5-0.6-11.3-2.3-14.7-4.9"></path><path class="st0" d="M59.9,73.2c-2.5-5.1-8.3-11.8-9.4-13.2"></path><path class="st0" d="M61,60.1c-2.3,2.6-3.1,5-8.9,1.9"></path><path class="st1" d="M80,85.2c-1.4-1.7-2.6-1.5-1.5-6.7l1.1-5.2c0,0,1,0.3,2.3,0.7c1.2,0.4,5.9,1.2,6.4,5.3c0.5,4,0.4,6.5,0.2,7.2
	c-0.2,0.8-0.2,3.5-0.3,4.2"></path><path class="st6" d="M102.5,72.9c-2.8,0.4-4.9,4.4-8.8,4.2c-3.9-0.3-8.4-4.1-9.9-5.1c-1.5-1-2.3,0.3,0.3-1.3
	c2.6-1.6,2.2-2.6,4.8-3.4c2.6-0.8,7.7,0.7,8.8,1.9C98.8,70.5,102.5,72.9,102.5,72.9"></path><path class="st2" d="M81.3,68.4c0.7-0.4,1.8-0.3,5.1-2.2s5.7-3.8,4.7-6.7c-0.9-2.8-2-2.9-1.6-5.3l0.4-2.5c0,0-2.9,1.6-6.7,4.1
	c-3.9,2.5-3.3,7.5-2.8,9.5C80.9,67.2,81.3,68.4,81.3,68.4"></path><path class="st3" d="M79.6,69.5c0,0-2.5-0.8-5.6,1.1c-3.1,1.8-7.4,2.4-9.4-0.9c-2-3.3-4.1-4.4-4.1-4.4s0.2,0.5,2.8-1.3
	c2.6-1.8,7.5-2.3,10.2-0.3C76.1,65.7,79.6,69.5,79.6,69.5"></path><path class="st4" d="M63.5,84.9c0,0,1.6-6.4,1.2-9.8c-0.4-3.4-1-5.2-3.8-6.2c-2.7-1-4.2-2.2-4.2-2.2s-0.2,4.7-1.2,6.4
	c-1,1.7-1,5.4,0.8,6.5C58,80.7,63.5,84.9,63.5,84.9"></path><path class="st5" d="M58.6,62.7c0,0,3-0.4,6-1.8c3-1.4,4.6-2.3,4.8-4.4c0.3-2.1,0.1-4-0.1-6.1c-0.2-2.1-0.5-2.9,0.1-3.4
	c0.6-0.5-0.5,1.1-4.1,2.2s-5.6,1.1-6.3,3c-0.7,1.8,0.5,3.7,0.3,5.8C59.3,60.1,58.6,62.7,58.6,62.7"></path><path class="st0" d="M35.3,83.5c2.2-1.6,5.7-5.2,8.2-7.8"></path><path class="st0" d="M42.3,87.6c-0.8-3.8-0.7-9.5,1-13.3"></path><path class="st0" d="M48.9,84.6c-3.9-2.3-7.7-3.9-5.9-8.5"></path><path class="st0" d="M46.2,66.6c0.4-5.5,1.8-11.4,4.1-14.9"></path><path class="st0" d="M38.5,61c5-2.7,11.3-8.9,12.7-10.1"></path><path class="st0" d="M51.8,61.4c-2.8-2.2-5.2-2.9-2.4-8.7"></path><path class="st1" d="M27.6,81.6c1.6-1.5,1.4-2.7,6.6-1.8l5.2,0.9c0,0-0.3,1.1-0.6,2.3c-0.3,1.2-1,6-4.9,6.7c-4,0.7-6.4,0.7-7.2,0.6
	c-0.8-0.1-3.5,0-4.2,0"></path><path class="st1" d="M41,103.5c-0.6-2.8-4.7-4.6-4.6-8.6c0.1-3.9,3.7-8.6,4.6-10.1c0.9-1.5-0.4-2.2,1.3,0.3c1.7,2.5,2.7,2.1,3.6,4.6
	c0.9,2.5-0.3,7.8-1.5,8.9C43.2,99.6,41,103.5,41,103.5"></path><path class="st2" d="M44.4,82.1c0.4,0.7,0.4,1.8,2.5,5c2.1,3.2,4.1,5.5,6.9,4.4c2.8-1.1,2.7-2.2,5.3-1.9l2.5,0.3
	c0,0-1.7-2.8-4.4-6.5c-2.7-3.7-7.7-2.9-9.6-2.3C45.6,81.6,44.4,82.1,44.4,82.1"></path><path class="st3" d="M43.2,80.4c0,0,0.6-2.5-1.4-5.6c-2-3-2.7-7.3,0.4-9.4c3.2-2.1,4.2-4.3,4.2-4.3S46,61.3,48,63.8
	c2,2.5,2.7,7.4,0.8,10.2C46.9,76.8,43.2,80.4,43.2,80.4"></path><path class="st4" d="M27.1,65.1c0,0,6.5,1.3,9.9,0.7c3.4-0.6,5.2-1.3,6-4.1c0.8-2.8,1.9-4.3,1.9-4.3s-4.7,0-6.4-0.9
	c-1.7-0.9-5.4-0.7-6.5,1.1C31,59.4,27.1,65.1,27.1,65.1"></path><path class="st5" d="M49,59.1c0,0,0.5,3,2.1,6c1.5,3,2.5,4.4,4.6,4.6c2.1,0.2,4-0.1,6.1-0.4c2.1-0.3,2.8-0.6,3.4-0.1
	c0.6,0.5-1.1-0.4-2.4-4c-1.3-3.5-1.4-5.5-3.3-6.1c-1.8-0.6-3.6,0.7-5.8,0.6C51.6,59.7,49,59.1,49,59.1"></path><path class="st0" d="M27.4,35.4c1.2,2.5,4.3,6.4,6.4,9.3"></path><path class="st0" d="M22.3,41.7c3.9-0.2,9.5,0.8,13,3"></path><path class="st0" d="M24.2,48.6c2.9-3.5,5-7,9.3-4.5"></path><path class="st0" d="M42.4,48.7c5.4,1.2,11,3.5,14.1,6.4"></path><path class="st0" d="M49.1,42.1c1.9,5.4,7,12.6,8,14.1"></path><path class="st0" d="M46.7,55.1c2.6-2.4,3.6-4.7,9-1"></path><path class="st1" d="M30.5,28.1c1.2,1.8,2.4,1.8,0.8,6.8l-1.7,5c0,0-1-0.5-2.2-1c-1.2-0.5-5.8-1.9-5.9-5.9c-0.1-4,0.3-6.5,0.6-7.2
	c0.3-0.8,0.6-3.5,0.7-4.2"></path><path class="st6" d="M6.8,37.9c2.9-0.1,5.3-3.9,9.2-3.2c3.9,0.7,7.9,5,9.3,6.1c1.4,1.1,2.3-0.1-0.5,1.3c-2.7,1.3-2.4,2.3-5.1,2.9
	c-2.7,0.5-7.6-1.5-8.5-2.9C10.2,40.7,6.8,37.9,6.8,37.9"></path><path class="st1" d="M27.4,44.6c-0.7,0.3-1.8,0.1-5.3,1.7c-3.5,1.6-6,3.2-5.4,6.1c0.6,2.9,1.7,3.1,1,5.5l-0.7,2.4c0,0,3-1.3,7.1-3.3
	c4.1-2,4.1-7.2,3.8-9.2C27.6,45.8,27.4,44.6,27.4,44.6"></path><path class="st3" d="M29.2,43.7c0,0,2.4,1,5.7-0.5c3.3-1.5,7.6-1.6,9.2,1.9c1.6,3.5,3.6,4.8,3.6,4.8s-0.2-0.5-2.9,1
	c-2.7,1.5-7.7,1.5-10.2-0.8C32.3,47.9,29.2,43.7,29.2,43.7"></path><path class="st4" d="M46.9,30.2c0,0-2.2,6.2-2.2,9.6c0,3.5,0.5,5.3,3.1,6.6c2.6,1.3,4,2.6,4,2.6s0.7-4.6,1.9-6.2
	c1.2-1.5,1.5-5.2-0.1-6.6C51.9,34.9,46.9,30.2,46.9,30.2"></path><path class="st5" d="M49.3,52.7c0-0.1-3,0.1-6.2,1.1c-3.2,1-4.8,1.8-5.3,3.9c-0.5,2-0.5,4-0.6,6.1c0,2.1,0.2,2.9-0.4,3.4
	c-0.6,0.5,0.6-1,4.3-1.7c3.7-0.7,5.7-0.6,6.6-2.3c0.9-1.7-0.1-3.7,0.3-5.8C48.4,55.2,49.3,52.7,49.3,52.7"></path><path class="st7" d="M64,52.3c-2.6,0.9-7,3.3-10.1,5"></path><path class="st7" d="M58.5,46.4c-0.3,3.9-2.1,9.3-4.8,12.5"></path><path class="st7" d="M51.4,47.2c3.1,3.4,6.3,6,3.1,9.8"></path><path class="st7" d="M48.7,65.3c-2,5.1-5,10.4-8.3,13"></path><path class="st7" d="M54.3,72.9C48.7,74,40.9,78,39.2,78.8"></path><path class="st7" d="M41.8,68.6c2,2.9,4.1,4.3-0.3,9.1"></path><path class="st7" d="M70.8,56.4c-2,1-2.1,2.2-6.8-0.2l-4.7-2.4c0,0,0.6-0.9,1.3-2c0.7-1.1,2.7-5.4,6.7-5c4,0.5,6.3,1.2,7.1,1.6
	c0.7,0.4,3.4,1.1,4,1.3"></path><path class="st7" d="M64.5,31.5c-0.3,2.9,3.1,5.8,1.9,9.5c-1.2,3.7-6,7.1-7.4,8.3c-1.3,1.2-0.3,2.3-1.2-0.6c-0.9-2.9-2-2.8-2.1-5.5
	c-0.2-2.7,2.5-7.3,4-8C61.2,34.5,64.5,31.5,64.5,31.5"></path><path class="st7" d="M54.9,51c-0.2-0.8,0.1-1.8-0.9-5.5c-1-3.7-2.3-6.4-5.3-6.2c-3,0.2-3.3,1.3-5.6,0.3l-2.3-1c0,0,0.9,3.2,2.3,7.5
	c1.4,4.3,6.5,5.1,8.5,5C53.6,51.1,54.9,51,54.9,51"></path><path class="st7" d="M55.5,52.9c0,0-1.4,2.3-0.3,5.7c1,3.5,0.5,7.8-3.2,8.9c-3.7,1.1-5.3,2.9-5.3,2.9s0.5-0.1-0.6-3
	c-1.1-2.9-0.4-7.8,2.3-9.9C51,55.4,55.5,52.9,55.5,52.9"></path><path class="st7" d="M66.4,72.3c0,0-5.8-3.1-9.2-3.5c-3.4-0.4-5.3-0.3-7,2.1c-1.6,2.4-3.1,3.6-3.1,3.6s4.5,1.4,5.9,2.8
	c1.4,1.4,5,2.3,6.5,0.8C61,76.6,66.4,72.3,66.4,72.3"></path><path class="st7" d="M43.8,71.6c0.1,0,0.4-3-0.2-6.3c-0.6-3.3-1.1-5-3.1-5.8c-2-0.8-3.9-1.1-6-1.4c-2.1-0.3-2.9-0.2-3.3-0.9
	c-0.4-0.7,0.9,0.7,1.1,4.5c0.2,3.8-0.3,5.7,1.3,6.8c1.6,1.1,3.7,0.4,5.7,1.1C41.4,70.2,43.8,71.6,43.8,71.6"></path><path class="st0" d="M46.9,24.4c-1,2.6-1.9,7.5-2.5,11"></path><path class="st0" d="M38.9,24.8c2.8,2.7,5.8,7.5,6.6,11.7"></path><path class="st0" d="M35,30.9c4.6-0.2,8.6-1.1,9.6,3.8"></path><path class="st0" d="M47.2,44.5C49.9,49.3,52,55,52,59.2"></path><path class="st0" d="M56.7,44.9c-2.6,5-4.6,13.7-5.1,15.4"></path><path class="st0" d="M45.4,51.9c3.5,0.3,5.9-0.5,6.8,6"></path><path class="st1" d="M54.4,21.7c-0.5,2.1,0.3,3-4.5,5.2L45.1,29c0,0-0.3-1.1-0.8-2.3c-0.4-1.2-2.5-5.5,0.4-8.3
	c2.9-2.8,5-4.1,5.7-4.4c0.7-0.3,2.9-1.9,3.5-2.3"></path><path class="st1" d="M31.2,10.8c2,2,6.5,1.3,8.6,4.6c2.1,3.3,1.7,9.2,1.7,11c0.1,1.8,1.6,1.6-1.3,0.5c-2.8-1.1-3.4-0.2-5.6-1.8
	c-2.2-1.6-4-6.6-3.6-8.2C31.4,15.3,31.2,10.8,31.2,10.8"></path><path class="st2" d="M40.1,30.6c-0.7-0.3-1.3-1.2-4.8-2.8c-3.5-1.5-6.4-2.3-8.2,0.1c-1.7,2.4-1.1,3.3-3.3,4.5l-2.2,1.1
	c0,0,3,1.4,7.3,3c4.3,1.7,8-1.8,9.3-3.4C39.4,31.6,40.1,30.6,40.1,30.6"></path><path class="st3" d="M42,31.3c0,0,0.9,2.5,4.2,3.9c3.3,1.4,6.3,4.6,4.8,8.1c-1.5,3.5-1.1,5.9-1.1,5.9s0.3-0.5-2.7-1.5
	c-3-1-6.3-4.7-6.2-8.1C41,36.4,42,31.3,42,31.3"></path><path class="st4" d="M63.9,35.2c0,0-6.1,2.5-8.6,4.9c-2.5,2.4-3.6,3.9-2.8,6.7c0.8,2.8,0.8,4.7,0.8,4.7s3.9-2.6,5.9-2.8
	c1.9-0.2,4.9-2.4,4.8-4.5C63.8,42.1,63.9,35.2,63.9,35.2"></path><path class="st5" d="M48.9,52.2c0-0.1-2.1-2.2-5-3.8c-2.9-1.6-4.6-2.3-6.4-1.3c-1.8,1-3.3,2.3-4.9,3.7c-1.6,1.4-2,2.1-2.8,2
	c-0.8-0.1,1.1-0.2,4.2,2c3,2.2,4.2,3.8,6.1,3.3c1.9-0.5,2.7-2.6,4.5-3.7C46.4,53.2,48.9,52.2,48.9,52.2"></path><path class="st0" d="M90.1,44.4c-2.7-0.3-7.7,0-11.3,0.3"></path><path class="st0" d="M87.7,36.7c-2,3.4-5.9,7.5-9.7,9.2"></path><path class="st0" d="M80.9,34.5c1.4,4.4,3.1,8.1-1.4,10.2"></path><path class="st0" d="M70.7,49.7c-4,3.8-9,7.2-13.1,8.2"></path><path class="st0" d="M72.6,58.9c-5.5-1.3-14.4-1.1-16.2-1.1"></path><path class="st0" d="M63.1,49.8c0.6,3.5,1.9,5.6-4.1,8.1"></path><path class="st1" d="M94.6,51c-2.2,0-2.8,1.1-6.1-3.1l-3.3-4.2c0,0,0.9-0.6,2-1.3c1.1-0.7,4.7-3.8,8.2-1.6c3.4,2.1,5.2,3.8,5.7,4.4
	c0.5,0.6,2.6,2.4,3.1,2.9"></path><path class="st6" d="M99.4,25.9c-1.5,2.5,0.3,6.6-2.4,9.4c-2.7,2.9-8.5,3.9-10.2,4.4c-1.7,0.5-1.2,1.9-0.8-1.1
	c0.4-3-0.6-3.3,0.4-5.8c1-2.5,5.4-5.5,7.1-5.6C95.2,27.2,99.4,25.9,99.4,25.9"></path><path class="st2" d="M82.5,39.4c0.1-0.8,0.9-1.6,1.5-5.3c0.6-3.8,0.7-6.8-2.1-7.9c-2.8-1.1-3.5-0.2-5.2-2.1L75,22.1
	c0,0-0.6,3.2-1.1,7.8c-0.6,4.5,3.7,7.3,5.6,8.2C81.3,38.9,82.5,39.4,82.5,39.4"></path><path class="st3" d="M82.2,41.4c0,0-2.2,1.5-2.7,5c-0.5,3.6-2.9,7.2-6.7,6.7c-3.8-0.6-6,0.4-6,0.4s0.5,0.2,0.7-3
	c0.2-3.1,3-7.2,6.3-8C77.1,41.7,82.2,41.4,82.2,41.4"></path><path class="st4" d="M83.8,63.6c0,0-3.9-5.3-6.8-7.1c-2.9-1.9-4.7-2.5-7.2-1c-2.5,1.5-4.4,1.9-4.4,1.9s3.5,3.2,4.1,5
	c0.6,1.8,3.5,4.2,5.5,3.5C77.1,65.2,83.8,63.6,83.8,63.6"></path><path class="st5" d="M63.6,53.2c0.1,0,1.6-2.6,2.5-5.8c0.9-3.2,1.1-5-0.3-6.5c-1.4-1.5-3-2.7-4.8-3.8c-1.8-1.2-2.5-1.4-2.6-2.2
	c-0.1-0.8,0.5,1-0.9,4.5c-1.4,3.5-2.7,5.1-1.7,6.7c1,1.7,3.1,1.9,4.7,3.4C62,51,63.6,53.2,63.6,53.2"></path><path class="st0" d="M64.9,84.5c0.2-2.7-0.4-7.7-0.8-11.2"></path><path class="st0" d="M72.5,81.7c-3.5-1.8-7.7-5.5-9.7-9.2"></path><path class="st0" d="M74.4,74.7c-4.3,1.6-7.9,3.5-10.3-0.8"></path><path class="st0" d="M58.7,65.3c-4-3.8-7.7-8.6-8.9-12.7"></path><path class="st0" d="M49.5,67.7c1-5.6,0.3-14.4,0.3-16.2"></path><path class="st0" d="M58.2,57.7c-3.5,0.7-5.5,2.2-8.3-3.7"></path><path class="st1" d="M58.5,89.2c-0.1-2.2-1.2-2.8,2.8-6.2l4-3.5c0,0,0.6,0.9,1.4,1.9c0.8,1,4,4.5,2,8.1c-2,3.5-3.6,5.4-4.2,5.9
	c-0.6,0.5-2.2,2.7-2.7,3.2"></path><path class="st1" d="M83.9,92.8c-2.5-1.4-6.6,0.6-9.5-1.9c-3-2.6-4.3-8.3-4.9-10c-0.6-1.7-2-1.1,1-0.9c3,0.2,3.3-0.8,5.9,0.1
	c2.6,0.9,5.8,5.2,5.9,6.8C82.4,88.6,83.9,92.8,83.9,92.8"></path><path class="st2" d="M69.6,76.5c0.8,0.1,1.6,0.8,5.4,1.2c3.8,0.4,6.8,0.3,7.8-2.5c0.9-2.8,0.1-3.5,1.9-5.3l1.8-1.7
	c0,0-3.3-0.4-7.8-0.7c-4.6-0.3-7.2,4.1-7.9,6C70,75.4,69.6,76.5,69.6,76.5"></path><path class="st3" d="M67.5,76.4c0,0-1.6-2.1-5.2-2.5c-3.6-0.4-7.4-2.5-7-6.3c0.4-3.8-0.7-6-0.7-6s-0.1,0.5,3,0.6
	c3.1,0.1,7.4,2.6,8.3,5.9C67,71.3,67.5,76.4,67.5,76.4"></path><path class="st4" d="M45.5,79.1c0,0,5.1-4.2,6.8-7.2c1.7-3,2.3-4.8,0.7-7.2c-1.6-2.4-2.1-4.3-2.1-4.3s-3,3.6-4.8,4.4
	c-1.8,0.7-4,3.7-3.3,5.7C43.5,72.5,45.5,79.1,45.5,79.1"></path><path class="st8" d="M54.8,58.4c0,0.1,2.6,1.5,5.9,2.2c3.3,0.7,5,0.9,6.5-0.6c1.5-1.5,2.5-3.2,3.6-5c1.1-1.8,1.3-2.6,2.1-2.7
	c0.8-0.1-1,0.6-4.6-0.7c-3.5-1.3-5.2-2.4-6.8-1.4c-1.6,1-1.8,3.2-3.2,4.9C56.9,56.7,54.8,58.4,54.8,58.4"></path><path class="st0" d="M22.7,60c2.7,0.6,7.7,0.8,11.2,0.9"></path><path class="st0" d="M24.3,67.9c2.3-3.1,6.6-6.8,10.6-8.1"></path><path class="st0" d="M30.9,70.9c-0.9-4.5-2.3-8.3,2.4-10"></path><path class="st0" d="M42.6,56.9c4.3-3.4,9.7-6.2,13.9-6.8"></path><path class="st0" d="M41.7,47.5c5.4,1.9,14.2,2.6,16,2.8"></path><path class="st0" d="M50.2,57.6c-0.2-3.5-1.3-5.8,5-7.6"></path><path class="st1" d="M19,53c2.2,0.2,2.9-0.8,5.7,3.7l2.8,4.5c0,0-1,0.5-2.1,1.1c-1.1,0.6-5.1,3.3-8.3,0.8c-3.2-2.5-4.8-4.3-5.2-5
	c-0.4-0.7-2.3-2.6-2.8-3.2"></path><path class="st6" d="M11.5,77.5c1.7-2.3,0.4-6.6,3.4-9.1c3-2.5,8.8-2.9,10.6-3.3c1.8-0.3,1.4-1.8,0.7,1.2c-0.7,3,0.2,3.4-1,5.8
	c-1.3,2.4-6,4.9-7.6,4.8C15.9,76.6,11.5,77.5,11.5,77.5"></path><path class="st1" d="M29.8,65.9c-0.2,0.8-1,1.5-2.1,5.1c-1,3.7-1.4,6.7,1.3,8.1c2.7,1.4,3.5,0.6,4.9,2.7l1.4,2.1c0,0,0.9-3.2,2-7.6
	c1-4.5-2.9-7.7-4.7-8.7C30.9,66.4,29.8,65.9,29.8,65.9"></path><path class="st3" d="M30.3,63.9c0,0,2.3-1.2,3.2-4.7c0.9-3.5,3.6-6.9,7.3-5.9c3.7,1,6,0.3,6,0.3s-0.5-0.2-1.1,2.9
	c-0.5,3.1-3.8,6.9-7.1,7.3C35.4,64.2,30.3,63.9,30.3,63.9"></path><path class="st4" d="M31,41.7c0,0,3.3,5.7,6,7.8c2.7,2.2,4.4,3,7,1.8c2.6-1.2,4.5-1.4,4.5-1.4s-3.1-3.5-3.6-5.4
	c-0.4-1.9-3.1-4.5-5.1-4.1C37.9,40.8,31,41.7,31,41.7"></path><path class="st5" d="M50,54.1c-0.1,0-1.9,2.4-3.1,5.5c-1.2,3.1-1.6,4.8-0.4,6.5c1.3,1.7,2.7,3,4.4,4.3c1.6,1.4,2.4,1.7,2.3,2.5
	c0,0.8-0.4-1.1,1.4-4.4c1.8-3.3,3.2-4.7,2.4-6.5c-0.8-1.8-2.9-2.3-4.3-3.9C51.3,56.4,50,54.1,50,54.1"></path><path class="st7" d="M59,42.5c-1,2.6-1.9,7.5-2.5,11"></path><path class="st7" d="M50.9,42.9c2.8,2.7,5.8,7.5,6.6,11.7"></path><path class="st7" d="M47.1,49c4.6-0.2,8.6-1.1,9.6,3.8"></path><path class="st7" d="M59.3,62.6c2.7,4.8,4.8,10.5,4.8,14.7"></path><path class="st7" d="M68.7,63c-2.6,5-4.6,13.7-5.1,15.4"></path><path class="st7" d="M57.5,70c3.5,0.3,5.9-0.5,6.8,6"></path><path class="st7" d="M66.5,39.8C66,42,66.8,42.8,62,45l-4.8,2.2c0,0-0.3-1.1-0.8-2.3c-0.4-1.2-2.5-5.5,0.4-8.3
	c2.9-2.8,5-4.1,5.7-4.4c0.7-0.3,2.9-1.9,3.5-2.3"></path><path class="st7" d="M43.3,28.9c2,2,6.5,1.3,8.6,4.6c2.1,3.3,1.7,9.2,1.7,11c0.1,1.8,1.6,1.6-1.3,0.5c-2.8-1.1-3.4-0.2-5.6-1.8
	c-2.2-1.6-4-6.6-3.6-8.2C43.5,33.4,43.3,28.9,43.3,28.9"></path><path class="st7" d="M52.2,48.7c-0.7-0.3-1.3-1.2-4.8-2.8c-3.5-1.5-6.4-2.3-8.2,0.1c-1.7,2.4-1.1,3.3-3.3,4.5l-2.2,1.1
	c0,0,3,1.4,7.3,3c4.3,1.7,8-1.8,9.3-3.4C51.5,49.7,52.2,48.7,52.2,48.7"></path><path class="st7" d="M54.1,49.4c0,0,0.9,2.5,4.2,3.9c3.3,1.4,6.3,4.6,4.8,8.1c-1.5,3.5-1.1,5.9-1.1,5.9s0.3-0.5-2.7-1.5
	c-3-1-6.3-4.7-6.2-8.1C53.1,54.5,54.1,49.4,54.1,49.4"></path><path class="st7" d="M76,53.3c0,0-6.1,2.5-8.6,4.9c-2.5,2.4-3.6,3.9-2.8,6.7c0.8,2.8,0.8,4.7,0.8,4.7s3.9-2.6,5.9-2.8
	c1.9-0.2,4.9-2.4,4.8-4.5C75.9,60.2,76,53.3,76,53.3"></path><path class="st7" d="M61,70.4c0-0.1-2.1-2.2-5-3.8c-2.9-1.6-4.6-2.3-6.4-1.3c-1.8,1-3.3,2.3-4.9,3.7c-1.6,1.4-2,2.1-2.8,2
	c-0.8-0.1,1.1-0.3,4.2,2c3,2.2,4.2,3.8,6.1,3.3c1.9-0.5,2.7-2.6,4.5-3.7C58.5,71.3,61,70.4,61,70.4"></path><path class="st9" d="M46.9,70.4c0,0,3.2-0.5,3.4-1.6c0.2-1.1,0.5-3.4-1-4c-1.5-0.6-3.1-1.2-6.2,0c-3.1,1.2-4.8,2-5.5,2.5
	s-3,1.4-3.6,2.2c-0.6,0.7-2.1,3-2.1,3.6s3.2,2.8,3.6,2.8c0.4,0,2.3-0.4,2.8-0.7c0.5-0.4,0-0.4,2.2-1.3
	C42.6,72.9,46.9,70.4,46.9,70.4z"></path><path class="st10" d="M41.7,69.9c0,0-4.1-4.4-7-4.3s-5.7,0-6.7,0c-1,0-3,0.1-3.9,1.4c-0.9,1.3-2.1,3.8-2.5,5.6c-0.4,1.7-1.5,4,0,5.1
	c1.5,1.1,1.1,1.8,4.1,1.9c3,0.1,6,0.6,7.5,0c1.5-0.6,3.1-2.4,4.3-2.5c1.2-0.1,2.5,0.2,3.1-0.7s-1.5-1.7-0.1-2.5
	C41.8,72.9,41.7,69.9,41.7,69.9z"></path><path class="st9" d="M34.9,72c0,0-7.2,4.3-8.2,5c-1,0.7-3.3,3.4-3.1,5c0.2,1.6,3.1,7.5,4.2,8.1c1.1,0.5,1.9,1.5,2.7,2.5
	c0.8,1,1.5,1.5,2.6,1.5c1.2,0,3.1-0.8,3.1-0.8s2.2-4.9,2.5-5.7c0.3-0.8,1.8-2.7,2.4-4.5c0.6-1.8,2-3.4,1.4-4.9
	c-0.6-1.5,2.4-0.9-1.4-3.1S34.9,72,34.9,72z"></path><path class="st10" d="M41.7,78.9c0,0-3.8,5.9-4.7,7c-0.8,1.1-2.1,2.1-2.4,4.6s0.8,5.5,2.1,5.8c1.3,0.4,4.5,0.6,6.3,0.5
	s4.6-1.3,6.4-3.4c1.8-2.1,3.6-4.8,2.9-6.7s-1.1-2.4-2-4.1c-0.9-1.7-2-3.3-2.7-3.8s-1.9-1.6-2.5-1.8C44.7,76.8,41.7,78.9,41.7,78.9z"></path><path class="st9" d="M43.6,75.2c0,0,9.3-4.3,10.7-5.3c1.5-1,4.9-0.2,6,0.7s2.5,5,1.5,7.3S58.4,86.1,56,87s-4.5,0.8-5.6,0.5
	c-1.1-0.4-2.5-0.9-2.7-2.2c-0.2-1.3,0.4-3.8-1.1-5c-1.5-1.2-1.9-2.3-3-2.2C42.5,78.1,43.6,75.2,43.6,75.2z"></path><path class="st10" d="M40.4,73.8c-0.9,0.4,0.6-2.8,1.3-3.9s0.1-3,2.6-1.2c2.5,1.7,2.5,2.6,3.8,2.6s1.7,0,3.5-0.4
	c1.8-0.4,0.4-1,2.7-1c2.4,0,3.4,1,3.4,1s0.5,1-0.5,1.1c-0.9,0.1-5.5,0.9-6.8,3.1c-1.4,2.2,0.1,4-2.7,3.7c-2.8-0.3-3-0.9-4.1-0.8
	c-1.1,0.1-3.1-1.7-3.1-1.7L40.4,73.8z"></path><path class="st11" d="M33.3,72c-1.5,0.9-2.4,2.4-3.4,3s-0.6,1.9,0,2c0.6,0.1,3.6,1.7,3.1,2.5c-0.5,0.8-0.8,2.6,0.2,2.6
	c1,0-0.3,2.6,0.8,3.5c1.1,0.8,1.4,1.5,1.7,1.4c0.3,0,1.6,2.2,3.8,2.2c2.2,0,3.9,0.1,4.9,0c1-0.1,1.7-1.3,2.5-2.2
	c0.9-0.9,0.5-1.7,0.5-1.7l3.6,1.3c0,0-0.3-2.7-0.9-3.8c-0.6-1.1,1.2-4.6,1.6-5.7s0.5-2.7,1.5-3.6c1-0.8,1.5-1.4,1.5-1.4
	s-2.4,0.4-3.1,1.4s-3.4,2.7-4.5,3.6c-1.1,0.9-2.9,0.9-4,1c-1.1,0.1-3.7-0.5-3.1-1.7c0.6-1.3-1.2-3.3-0.1-3.6c1-0.4,1.7-0.2,2.8,0
	c1,0.2,1.5,0,3,0s2.7,0,3.2-0.2c0.4-0.2,0.1-0.3-1.1-1.2s-3.8-2.6-3.8-2.6S34.9,71.1,33.3,72z"></path><path class="st12" d="M44.4,82.1c0,0,1.7,2.6,1.4,3.4c-0.4,0.7-0.8,2.5-2.2,2.2s-2.5-0.5-3-1.4C40.1,85.3,41.2,81.5,44.4,82.1z"></path><path class="st9" d="M65.2,38.1c0,0-7.8,4.3-8,4.9c-0.2,0.6,0.2,1.1-0.5,2c-0.7,0.9-0.8,1.3-2.6,3.3c-1.8,2-2.7,5.7-2.3,6.2
	c0.5,0.5,0.6,1.5,2.1,1.5c1.5,0,4.8-0.4,5.7-0.5c0.9-0.1,4.9-0.6,5.2-0.7c0.3-0.1,2-1.4,2.5-2.4c0.5-1,1.5-2.5,1.5-3.3
	s0.4-1.4-0.4-2.9c-0.7-1.5-1.4-3.1-1.4-3.1L65.2,38.1z"></path><path class="st10" d="M69.9,51.7c-0.1-0.4-7.8-5.6-8.1-6.2c-0.3-0.5-0.9-2.1-0.5-4.3c0.5-2.2,1-4.6,2.6-4.6c1.6-0.1,1.2,0.2,2.2,0
	c1-0.2,1.5-0.7,2.3-0.9c0.7-0.2-0.4-0.2,0.7-0.2s2.5,0,2.5,0s0.6,0.5,3.4,0.7s6.2,0.6,8.3,0.8c2.1,0.2,2.9,1.8,2.7,3.1
	c-0.2,1.3-1.6,3.3-2.3,3.9c-0.6,0.6-5.4,6-5.8,6.6c-0.5,0.6-2.5,1.8-2.8,2.1c-0.4,0.3,0,0.8-1,0.4S69.9,51.7,69.9,51.7z"></path><path class="st9" d="M81.3,47.9c0,0,2-4.1,3.3-4.8c1.3-0.6,2.3-1.8,3.1-0.8c0.8,1,4,9.8,4.1,11c0.1,1.2,0.5,8.7,0,9.3
	c-0.5,0.6-1.6,1.4-3.4,1.2s-3.2,0.1-4.8-0.6c-1.6-0.7-4.6-1.8-4.6-1.8s-0.5-1-1.4-2c-0.8-1-1.2-2.5-1.4-3.3c-0.2-0.7,0.1-2.2,0-2.7
	s0.1-2.9,0.4-3.3C77.1,49.7,81.3,47.9,81.3,47.9z"></path><path class="st10" d="M76.4,61.5c0.2-0.2,3.7-1.2,4.3-1.1c0.5,0.1,1.7-0.1,2.9-0.7c1.2-0.6,2.7-0.6,4.2,0c1.5,0.6,2.9,3.7,2.5,6.3
	c-0.4,2.5-5.4,5.6-6,6.2c-0.6,0.6-2.4,2.2-3.8,2.9c-1.4,0.7-6.8,2-8.8,0.9c-2-1.1-4.6-4.3-3.7-5.5c0.8-1.2,2.5-3.9,2.6-4.6
	c0.2-0.7,0.9-2.8,1-3.1c0.1-0.3,0.5-0.9,1.1-1.1C73.2,61.5,76.4,61.5,76.4,61.5z"></path><path class="st13" d="M67.7,57.4c-0.3-0.5-4.2-3.9-5.9-4.2s-4.6-0.5-5.6,0.1c-1,0.6-2.6-1.3-2.3,2.7c0.4,4,3.3,9.6,3.6,10.6
	c0.4,1,3.8,6.4,5.1,6.6c1.3,0.3,4.2,0.6,4.2,0.6s1.5,0.5,2.2,0c0.7-0.5,1.5-1.8,1.9-2.7c0.4-0.9,0.6-0.9,0.6-3.4c0-2.5,0-3,0-4
	s0-2.8,0-3.5C71.5,59.6,67.7,57.4,67.7,57.4z"></path><path class="st11" d="M59.1,52.4c0,0,3.1,3.6,4.3,5.2c1.2,1.6,2.3,1.9,3.6,3.1s1.5,2.6,2,3.6c0.5,1,1.3,2.1,1.9,2.8
	c0.6,0.7-1.1,2.3,0,2.6c1.1,0.3,3.6-1.5,4.4-1.9c0.8-0.4,3.8-2.1,5.2-2.5s1.9-1.3,3.3-2.2s1.9-1.4,1.5-2.6c-0.3-1.3-1.9-4.6-2-5
	s-0.4-1.2-0.1-3.1c0.3-1.9,0.6-3.1,1.1-4.3s0.4-5,0.4-5s-0.5,2.7-4.2,3.2s-7.3,0.9-8.2,1.3s-3.4,1.6-3.4,1.6l-2.8-0.5
	c0,0-0.1,0.6-0.3,1.2c-0.2,0.6-0.5,1.5-1.1,2.2s0.5,1.1-1.2,1.1c-1.7,0-1.7,0-1.7,0L59.1,52.4z"></path><path class="st14" d="M69.5,56.1c0,0-2.2,1.6-1.8,3.2c0.4,1.6-0.2,2.9,0.9,3.5c1.1,0.5,0.9,1.5,1.9,0.8s2.2,0.8,3.2,0
	c1-0.8,1.8-2.2,2.6-2c0.9,0.2,2.2,1,1.8-0.6c-0.4-1.6-2.2-1.5-2.3-2.2s-0.3-1-0.7-1.8c-0.5-0.7-0.5-1.5-1.4-1.7
	c-0.9-0.3-2.2,0-2.2,0L69.5,56.1z"></path><path class="st9" d="M70.4,54.1c0,0,1-1.1,1.8-0.5s1.9,0.5,2.5,0.5s0.3,0.1,1,1.1c0.7,0.9-0.3,0.9-1,0.9s-1.3,0.5-1,1.1
	c0.3,0.6,0,1.6,0,1.6s-1.2,0-1.5,0s-0.1,0.1-0.7-0.3s-1.1-0.6-1.1-1.3s-0.9-1.1-0.9-1.1s-2-0.1-1.8-0.5s-0.5-0.2,0.2-0.5
	s0.6,0.4,1.1,0.1c0.5-0.3,0.5-0.3,0.5-0.3L70.4,54.1z"></path><path class="st12" d="M77.9,62.9c-0.5,0.1-2.1,0.1-2.7,1.2c-0.7,1.1-1.3,2.3-0.5,2.4c0.8,0.1,0.4,0,2,0c1.5,0,2.2-0.6,2.5-1
	c0.3-0.4,0.7,0,0.5-0.8C79.2,63.9,77.9,62.9,77.9,62.9z"></path><path class="st9" d="M42.6,19.6c0,0,7.8,4.3,8,4.9c0.2,0.6-0.2,1.1,0.5,2s0.8,1.3,2.6,3.3s2.7,5.7,2.3,6.2s-0.6,1.5-2.1,1.5
	c-1.5,0-4.8-0.4-5.7-0.5c-0.9-0.1-4.9-0.6-5.2-0.7s-2-1.4-2.5-2.4C40,33,39,31.5,39,30.7s-0.4-1.4,0.4-2.9c0.7-1.5,1.4-3.1,1.4-3.1
	L42.6,19.6z"></path><path class="st10" d="M37.9,33.1c0.1-0.4,7.8-5.6,8.1-6.2s0.9-2.1,0.5-4.3s-1-4.6-2.6-4.6c-1.6-0.1-1.2,0.2-2.2,0
	c-1-0.2-1.5-0.7-2.3-0.9c-0.7-0.2,0.4-0.2-0.7-0.2c-1.1,0-2.5,0-2.5,0s-0.6,0.5-3.4,0.7c-2.7,0.3-6.2,0.6-8.3,0.8
	c-2.1,0.2-2.9,1.8-2.7,3.1c0.2,1.3,1.6,3.3,2.3,3.9c0.6,0.6,5.4,6,5.8,6.6c0.5,0.6,2.5,1.8,2.8,2.1c0.4,0.3,0,0.8,1,0.4
	C34.6,34.3,37.9,33.1,37.9,33.1z"></path><path class="st9" d="M26.5,29.3c0,0-2-4.1-3.3-4.8c-1.3-0.6-2.3-1.8-3.1-0.8s-4,9.8-4.1,11c-0.1,1.2-0.5,8.7,0,9.3
	c0.5,0.6,1.6,1.4,3.4,1.2c1.7-0.2,3.2,0.1,4.8-0.6c1.6-0.7,4.6-1.8,4.6-1.8s0.5-1,1.4-2c0.8-1,1.2-2.5,1.4-3.3
	c0.2-0.7-0.1-2.2,0-2.7s-0.1-2.9-0.4-3.3C30.8,31.1,26.5,29.3,26.5,29.3z"></path><path class="st10" d="M31.5,43c-0.2-0.2-3.7-1.2-4.3-1.1c-0.5,0.1-1.7-0.1-2.9-0.7c-1.2-0.6-2.7-0.6-4.2,0c-1.5,0.6-2.9,3.7-2.5,6.3
	c0.4,2.5,5.4,5.6,6,6.2c0.6,0.6,2.4,2.2,3.8,2.9c1.4,0.7,6.8,2,8.8,0.9s4.6-4.3,3.7-5.5c-0.8-1.2-2.5-3.9-2.6-4.6s-0.9-2.8-1-3.1
	c-0.1-0.3-0.5-0.9-1.1-1.1C34.6,43,31.5,43,31.5,43z"></path><path class="st13" d="M40.2,38.9c0.3-0.5,4.2-3.9,5.9-4.2c1.7-0.3,4.6-0.5,5.6,0.1c1,0.6,2.6-1.3,2.3,2.7c-0.4,4-3.3,9.6-3.6,10.6
	c-0.4,1-3.8,6.4-5.1,6.6c-1.3,0.3-4.2,0.6-4.2,0.6s-1.5,0.5-2.2,0c-0.7-0.5-1.5-1.8-1.9-2.7s-0.6-0.9-0.6-3.4c0-2.5,0-3,0-4
	s0-2.8,0-3.5S40.2,38.9,40.2,38.9z"></path><path class="st11" d="M48.7,33.9c0,0-3.1,3.6-4.3,5.2c-1.2,1.6-2.3,1.9-3.6,3.1c-1.3,1.2-1.5,2.6-2,3.6c-0.5,1-1.3,2.1-1.9,2.8
	s1.1,2.3,0,2.6s-3.6-1.5-4.4-1.9c-0.8-0.4-3.8-2.1-5.2-2.5c-1.4-0.4-1.9-1.3-3.3-2.2s-1.9-1.4-1.5-2.6c0.3-1.3,1.9-4.6,2-5
	c0.1-0.4,0.4-1.2,0.1-3.1s-0.6-3.1-1.1-4.3c-0.5-1.2-0.4-5-0.4-5s0.5,2.7,4.2,3.2c3.7,0.5,7.3,0.9,8.2,1.3c0.9,0.5,3.4,1.6,3.4,1.6
	l2.8-0.5c0,0,0.1,0.6,0.3,1.2c0.2,0.6,0.5,1.5,1.1,2.2c0.5,0.7-0.5,1.1,1.2,1.1s1.7,0,1.7,0L48.7,33.9z"></path><path class="st14" d="M38.4,37.5c0,0,2.2,1.6,1.8,3.2s0.2,2.9-0.9,3.5c-1.1,0.5-0.9,1.5-1.9,0.8c-1-0.7-2.2,0.8-3.2,0
	c-1-0.8-1.8-2.2-2.6-2c-0.9,0.2-2.2,1-1.8-0.6c0.4-1.6,2.2-1.5,2.3-2.2c0.1-0.7,0.3-1,0.7-1.8s0.5-1.5,1.4-1.7c0.9-0.3,2.2,0,2.2,0
	L38.4,37.5z"></path><path class="st9" d="M37.4,35.5c0,0-1-1.1-1.8-0.5c-0.8,0.6-1.9,0.5-2.5,0.5c-0.5,0-0.3,0.1-1,1.1c-0.7,0.9,0.3,0.9,1,0.9
	s1.3,0.5,1,1.1c-0.3,0.6,0,1.6,0,1.6s1.2,0,1.5,0c0.3,0,0.1,0.1,0.7-0.3s1.1-0.6,1.1-1.3s0.9-1.1,0.9-1.1s2-0.1,1.8-0.5
	s0.5-0.2-0.2-0.5c-0.6-0.3-0.6,0.4-1.1,0.1c-0.5-0.3-0.5-0.3-0.5-0.3L37.4,35.5z"></path><path class="st12" d="M30,44.4c0.5,0.1,2.1,0.1,2.7,1.2s1.3,2.3,0.5,2.4c-0.8,0.1-0.4,0-2,0c-1.5,0-2.2-0.6-2.5-1
	c-0.3-0.4-0.7,0-0.5-0.8C28.6,45.4,30,44.4,30,44.4z"></path></g></svg>