<svg xmlns="http://www.w3.org/2000/svg" version="1.1" xmlns:xlink="http://www.w3.org/1999/xlink" xmlns:svgjs="http://svgjs.dev/svgjs" viewBox="0 0 108 108" style="" x="0" y="0"><style type="text/css">
	.st0{fill:none;stroke:#708530;stroke-width:1.1635;stroke-miterlimit:10;}
	.st1{fill:#7B9D41;}
	.st2{fill:#84B53A;}
	.st3{fill:#638629;}
	.st4{fill:#B0CC36;}
	.st5{fill:#92B83E;}
	.st6{fill:#A6BD39;}
	.st7{fill:#798828;}
	.st8{fill:#72AA3A;}
	.st9{fill:#AF2347;}
	.st10{fill:#BE1C44;}
	.st11{fill:#891249;}
	.st12{fill:#890435;}
	.st13{fill:#991D40;}
	.st14{fill:#B01B40;}
	.st15{fill:#921436;}
	.st16{fill:#C8C3BD;}
	.st17{fill:#A97200;}
	.st18{fill:#624000;}
	.st19{fill:#F8D61D;}
	.st20{fill:#78223D;}
	.st21{fill:#892B47;}
	.st22{fill:#BD166D;}
	.st23{fill:#89353C;}
	.st24{fill:#981C3F;}
	.st25{fill:#780E2E;}
	.st26{fill:#931B3D;}
	.st27{fill:#A3173A;}
	.st28{fill:#B51743;}
	.st29{fill:#A20A42;}
</style><g><path class="st0" d="M29.1,37.3c0.8,2.7,3.1,7.2,4.8,10.4"></path><path class="st0" d="M22.9,42.7c3.9,0.5,9.3,2.5,12.5,5.3"></path><path class="st0" d="M23.5,50c3.5-3,6.3-6.2,10.1-2.9"></path><path class="st0" d="M41.8,53.3c5.2,2.2,10.4,5.5,13,8.9"></path><path class="st0" d="M49.7,47.8c1,5.7,4.8,13.8,5.5,15.5"></path><path class="st0" d="M45,60.4c3-1.9,4.5-4,9.2,0.6"></path><path class="st1" d="M33.5,30.5c0.9,2,2.1,2.2-0.4,6.9l-2.6,4.7c0,0-0.9-0.6-2-1.3c-1.1-0.7-5.4-2.9-4.8-6.9
	c0.6-4.1,1.5-6.4,1.8-7.1c0.4-0.7,1.2-3.4,1.4-4"></path><path class="st2" d="M8,36.1c2.9,0.4,6-3,9.8-1.6c3.8,1.4,7,6.4,8.2,7.7c1.2,1.4,2.3,0.3-0.7,1.2c-3,0.9-2.9,1.9-5.6,2
	c-2.8,0.1-7.4-2.8-8-4.4C11,39.6,8,36.1,8,36.1"></path><path class="st3" d="M27.5,46.5c-0.8,0.2-1.8-0.2-5.6,0.8c-3.8,0.9-6.6,2.1-6.5,5.2c0.1,3,1.2,3.4,0.1,5.7l-1.1,2.3
	c0,0,3.3-0.8,7.7-2.1c4.5-1.3,5.4-6.4,5.4-8.5C27.5,47.8,27.5,46.5,27.5,46.5"></path><path class="st4" d="M29.5,45.9c0,0,2.2,1.5,5.8,0.5c3.5-0.9,7.9-0.2,8.9,3.5c1,3.7,2.8,5.5,2.8,5.5s-0.1-0.6-3.1,0.5
	c-3,1.1-8,0.1-10-2.6C31.8,50.6,29.5,45.9,29.5,45.9"></path><path class="st5" d="M49.5,35.5c0,0-3.3,5.8-3.9,9.3c-0.6,3.5-0.5,5.4,1.9,7.1c2.4,1.7,3.5,3.3,3.5,3.3s1.5-4.5,3-5.9
	c1.4-1.3,2.5-5,1.1-6.6C53.7,41.1,49.5,35.5,49.5,35.5"></path><path class="st6" d="M48,58.5c0-0.1-3-0.5-6.4,0c-3.4,0.5-5.1,1-5.9,2.9c-0.8,2-1.2,3.9-1.7,6c-0.4,2.1-0.3,2.9-1,3.3
	c-0.7,0.4,0.8-0.9,4.6-1c3.8-0.1,5.8,0.5,7-1.1c1.2-1.6,0.5-3.7,1.3-5.8C46.6,60.8,48,58.5,48,58.5"></path><path class="st0" d="M76.4,26.6c-2.4,1.4-6.2,4.8-8.9,7.2"></path><path class="st0" d="M69.6,21.9c0.5,3.9-0.1,9.7-2.1,13.4"></path><path class="st0" d="M62.7,24.3c3.8,2.7,7.5,4.6,5.3,9.1"></path><path class="st0" d="M64,42.9c-0.8,5.5-2.7,11.4-5.4,14.8"></path><path class="st0" d="M71.2,49.2C66,51.6,59,57.2,57.5,58.3"></path><path class="st0" d="M57.9,47.7c2.6,2.5,5,3.3,1.7,9.1"></path><path class="st2" d="M84,29.2c-1.8,1.4-1.6,2.6-6.8,1.3L72,29.2c0,0,0.4-1.1,0.8-2.3c0.4-1.2,1.5-6,5.6-6.4c4.1-0.4,6.6-0.2,7.4,0
	c0.8,0.2,3.6,0.3,4.3,0.4"></path><path class="st7" d="M72.3,5.9c0.3,2.9,4.3,5.1,3.9,9.1c-0.4,4-4.4,8.4-5.5,9.8c-1,1.5,0.2,2.3-1.3-0.4c-1.6-2.7-2.6-2.3-3.3-5
	c-0.7-2.7,0.9-7.8,2.3-8.9C69.7,9.6,72.3,5.9,72.3,5.9"></path><path class="st3" d="M67,27.3c-0.4-0.7-0.3-1.8-2.1-5.2c-1.8-3.4-3.7-5.9-6.6-5c-2.9,0.9-3,2-5.5,1.5L50.3,18c0,0,1.5,3,3.9,7
	c2.4,4,7.6,3.6,9.6,3.1C65.8,27.7,67,27.3,67,27.3"></path><path class="st4" d="M68.1,29.1c0,0-0.9,2.5,0.9,5.7c1.8,3.2,2.2,7.6-1.2,9.5c-3.4,1.9-4.6,4-4.6,4s0.5-0.2-1.3-2.9
	c-1.8-2.7-2.1-7.7,0.1-10.4C64.1,32.5,68.1,29.1,68.1,29.1"></path><path class="st5" d="M83.2,46c0,0-6.4-1.8-9.9-1.5c-3.5,0.3-5.4,0.9-6.4,3.6c-1.1,2.7-2.3,4.2-2.3,4.2s4.8,0.4,6.4,1.5
	c1.7,1.1,5.4,1.2,6.7-0.6C78.7,51.4,83.2,46,83.2,46"></path><path class="st6" d="M60.5,50.2c0.1,0-0.3-3.1-1.6-6.2c-1.3-3.1-2.2-4.7-4.3-5c-2.1-0.3-4.1-0.3-6.3-0.1c-2.2,0.1-2.9,0.4-3.5-0.2
	C44.3,38,46,39.2,47,42.8c1,3.7,1,5.7,2.8,6.5c1.8,0.8,3.7-0.4,5.9-0.2C57.8,49.4,60.5,50.2,60.5,50.2"></path><path class="st0" d="M80.9,74.5c-1.5-2.3-5.1-6-7.6-8.6"></path><path class="st0" d="M85.2,67.6c-3.9,0.7-9.6,0.4-13.5-1.4"></path><path class="st0" d="M82.5,60.8c-2.5,3.9-4.2,7.7-8.8,5.7"></path><path class="st0" d="M64,63c-5.6-0.6-11.5-2.2-15-4.7"></path><path class="st0" d="M58.1,70.6c-2.6-5.2-8.7-11.8-9.8-13.2"></path><path class="st0" d="M58.9,57.1c-2.3,2.7-3.1,5.2-9,2.1"></path><path class="st1" d="M78.7,82.3c-1.5-1.7-2.7-1.5-1.6-6.8l1-5.3c0,0,1.1,0.3,2.3,0.7c1.2,0.4,6,1.2,6.7,5.2c0.6,4.1,0.5,6.6,0.3,7.4
	c-0.2,0.8-0.1,3.6-0.2,4.3"></path><path class="st2" d="M101.4,69.5c-2.9,0.5-4.9,4.6-8.9,4.4c-4-0.2-8.6-4-10.1-5c-1.5-1-2.3,0.3,0.3-1.3c2.6-1.7,2.2-2.7,4.8-3.5
	c2.6-0.9,7.9,0.5,9,1.8C97.5,67,101.4,69.5,101.4,69.5"></path><path class="st3" d="M79.7,65.3c0.7-0.4,1.8-0.3,5.1-2.4c3.3-2,5.7-4,4.7-6.9c-1-2.9-2.1-2.9-1.7-5.4l0.4-2.5c0,0-2.9,1.7-6.8,4.3
	c-3.9,2.6-3.2,7.7-2.7,9.7C79.3,64.1,79.7,65.3,79.7,65.3"></path><path class="st4" d="M78,66.4c0,0-2.6-0.7-5.7,1.2c-3.1,1.9-7.5,2.5-9.5-0.8c-2.1-3.3-4.3-4.4-4.3-4.4s0.2,0.5,2.8-1.4
	c2.6-1.9,7.6-2.5,10.3-0.4C74.4,62.6,78,66.4,78,66.4"></path><path class="st5" d="M61.9,82.3c0,0,1.5-6.5,1-10c-0.5-3.5-1.2-5.3-4-6.2c-2.8-0.9-4.4-2.1-4.4-2.1s-0.1,4.8-1.1,6.5
	c-1,1.7-0.9,5.5,0.9,6.6C56.2,78.2,61.9,82.3,61.9,82.3"></path><path class="st6" d="M56.6,59.8c0,0,3-0.5,6.1-1.9c3.1-1.4,4.6-2.4,4.8-4.6c0.2-2.1,0-4.1-0.2-6.2c-0.2-2.2-0.6-2.9,0-3.5
	c0.6-0.6-0.5,1.1-4.1,2.3c-3.6,1.2-5.7,1.3-6.3,3.1c-0.7,1.8,0.6,3.7,0.5,5.9C57.2,57.2,56.6,59.8,56.6,59.8"></path><path class="st0" d="M31.7,81.1c2.5-1.2,6.7-4.1,9.6-6.2"></path><path class="st0" d="M37.9,86.4c-0.1-4,1.1-9.6,3.5-13.2"></path><path class="st0" d="M45.1,84.7c-3.5-3-7-5.3-4.3-9.6"></path><path class="st0" d="M45.8,66.2c1.4-5.4,3.9-11.1,7-14.1"></path><path class="st0" d="M39.2,59.1c5.5-1.8,13-6.7,14.6-7.6"></path><path class="st0" d="M52.4,62c-2.3-2.7-4.6-3.9-0.7-9.2"></path><path class="st1" d="M24.4,77.7c1.9-1.2,1.9-2.4,6.9-0.6l5.1,1.9c0,0-0.5,1-1,2.2c-0.5,1.2-2.1,5.8-6.2,5.8c-4.1,0-6.6-0.5-7.3-0.8
	c-0.8-0.3-3.5-0.7-4.2-0.8"></path><path class="st7" d="M33.6,102.1c0-2.9-3.8-5.5-3-9.4c0.8-3.9,5.3-7.9,6.5-9.2c1.2-1.4,0-2.3,1.3,0.5c1.3,2.8,2.3,2.6,2.8,5.3
	c0.5,2.7-1.8,7.7-3.2,8.6C36.6,98.6,33.6,102.1,33.6,102.1"></path><path class="st2" d="M41.1,81.3c0.3,0.7,0.1,1.8,1.5,5.4c1.5,3.6,3.1,6.2,6,5.7c3-0.5,3.2-1.7,5.6-0.9l2.4,0.8c0,0-1.2-3.1-3.2-7.4
	c-1.9-4.2-7.1-4.4-9.2-4.1C42.3,81.1,41.1,81.3,41.1,81.3"></path><path class="st4" d="M40.2,79.4c0,0,1.1-2.4-0.3-5.8c-1.4-3.4-1.3-7.8,2.2-9.3c3.6-1.5,5-3.5,5-3.5s-0.5,0.1,0.9,3
	c1.5,2.8,1.2,7.9-1.2,10.3C44.5,76.5,40.2,79.4,40.2,79.4"></path><path class="st5" d="M27,61.1c0,0,6.2,2.5,9.7,2.6c3.5,0.1,5.4-0.3,6.8-2.9c1.4-2.6,2.8-4,2.8-4s-4.7-0.9-6.2-2.1
	c-1.5-1.2-5.3-1.7-6.7-0.1C32,56.1,27,61.1,27,61.1"></path><path class="st6" d="M50,59.3c-0.1,0,0,3.1,0.9,6.3c0.9,3.3,1.7,4.9,3.7,5.5c2.1,0.6,4,0.7,6.2,0.8c2.2,0.1,2.9-0.1,3.4,0.5
	c0.5,0.6-1-0.6-1.6-4.4c-0.6-3.8-0.4-5.8-2.1-6.7c-1.7-0.9-3.8,0-5.9-0.5C52.6,60.4,50,59.3,50,59.3"></path><path class="st8" d="M50.1,44.4c0.8,2.7,3.1,7.2,4.8,10.4"></path><path class="st8" d="M43.9,49.8c3.9,0.5,9.3,2.5,12.5,5.3"></path><path class="st8" d="M44.5,57.1c3.5-3,6.3-6.2,10.1-2.9"></path><path class="st8" d="M62.8,60.4c5.2,2.2,10.4,5.5,13,8.9"></path><path class="st8" d="M70.7,54.9c1,5.7,4.8,13.8,5.5,15.5"></path><path class="st8" d="M66,67.5c3-1.9,4.5-4,9.2,0.6"></path><path class="st8" d="M54.4,37.6c0.9,2,2.1,2.2-0.4,6.9l-2.6,4.7c0,0-0.9-0.6-2-1.3C48.4,47.2,44,45,44.6,41c0.6-4.1,1.5-6.4,1.8-7.1
	c0.4-0.7,1.2-3.4,1.4-4"></path><path class="st8" d="M29,43.2c2.9,0.4,6-3,9.8-1.6c3.8,1.4,7,6.4,8.2,7.7c1.2,1.4,2.3,0.3-0.7,1.2c-3,0.9-2.9,1.9-5.6,2
	c-2.8,0.1-7.4-2.8-8-4.4C32,46.7,29,43.2,29,43.2"></path><path class="st8" d="M48.5,53.6c-0.8,0.2-1.8-0.2-5.6,0.8c-3.8,0.9-6.6,2.1-6.5,5.2c0.1,3,1.2,3.4,0.1,5.7l-1.1,2.3
	c0,0,3.3-0.8,7.7-2.1c4.5-1.3,5.4-6.4,5.4-8.5C48.5,54.9,48.5,53.6,48.5,53.6"></path><path class="st8" d="M50.5,53c0,0,2.2,1.5,5.8,0.5c3.5-0.9,7.9-0.2,8.9,3.5c1,3.7,2.8,5.5,2.8,5.5s-0.1-0.6-3.1,0.5
	c-3,1.1-8,0.1-10-2.6C52.8,57.7,50.5,53,50.5,53"></path><path class="st8" d="M70.5,42.5c0,0-3.3,5.8-3.9,9.3c-0.6,3.5-0.5,5.4,1.9,7.1c2.4,1.7,3.5,3.3,3.5,3.3s1.5-4.5,3-5.9
	c1.4-1.3,2.5-5,1.1-6.6C74.7,48.2,70.5,42.5,70.5,42.5"></path><path class="st8" d="M69,65.6c0-0.1-3-0.5-6.4,0c-3.4,0.5-5.1,1-5.9,2.9c-0.8,2-1.2,3.9-1.7,6c-0.4,2.1-0.3,2.9-1,3.3
	c-0.7,0.4,0.8-0.9,4.6-1c3.8-0.1,5.8,0.5,7-1.1c1.2-1.6,0.5-3.7,1.3-5.8C67.6,67.9,69,65.6,69,65.6"></path><path class="st0" d="M24.5,65.6c2.6,0.9,7.7,1.6,11.3,2.1"></path><path class="st0" d="M25.3,73.7c2.6-2.9,7.4-6.2,11.6-7.2"></path><path class="st0" d="M31.7,77.4c-0.5-4.6-1.5-8.7,3.5-9.9"></path><path class="st0" d="M44.9,64.3c4.7-3,10.4-5.4,14.7-5.5"></path><path class="st0" d="M44.9,54.7c5.2,2.5,14.1,4,15.9,4.4"></path><path class="st0" d="M52.5,65.8c0.2-3.6-0.7-6,5.8-7.2"></path><path class="st1" d="M21.4,58c2.2,0.4,3-0.5,5.4,4.3l2.4,4.8c0,0-1.1,0.4-2.3,0.9c-1.2,0.5-5.5,2.8-8.5,0c-3-2.8-4.4-4.9-4.8-5.6
	c-0.4-0.7-2.1-2.9-2.5-3.5"></path><path class="st2" d="M11.4,82.1c2-2.1,1-6.6,4.3-8.9c3.3-2.3,9.2-2.1,11-2.3c1.8-0.2,1.6-1.7,0.6,1.2c-1,2.9-0.1,3.4-1.6,5.7
	c-1.5,2.3-6.6,4.4-8.2,4.1C15.9,81.7,11.4,82.1,11.4,82.1"></path><path class="st3" d="M31.1,72.2c-0.3,0.8-1.2,1.4-2.6,5c-1.4,3.6-2,6.6,0.5,8.3c2.5,1.7,3.4,1,4.7,3.2l1.3,2.2c0,0,1.2-3.1,2.7-7.5
	c1.5-4.4-2.2-8.1-3.9-9.3C32.1,72.8,31.1,72.2,31.1,72.2"></path><path class="st4" d="M31.8,70.2c0,0,2.5-1,3.8-4.4c1.3-3.4,4.4-6.6,8-5.3c3.6,1.3,6.1,0.9,6.1,0.9s-0.5-0.3-1.4,2.8
	c-0.9,3.1-4.5,6.6-7.9,6.7C36.9,71,31.8,70.2,31.8,70.2"></path><path class="st5" d="M34.7,47.8c0,0,2.8,6.1,5.3,8.5c2.5,2.5,4.2,3.5,7,2.5c2.8-1,4.7-1,4.7-1s-2.8-3.9-3.1-5.8
	c-0.3-2-2.7-4.9-4.8-4.7C41.7,47.5,34.7,47.8,34.7,47.8"></path><path class="st6" d="M52.7,62.2c-0.1,0-2.1,2.2-3.7,5.3c-1.5,3-2.1,4.7-1,6.6c1.1,1.8,2.5,3.3,4,4.8c1.5,1.6,2.2,1.9,2.1,2.7
	c-0.1,0.8-0.3-1.2,1.8-4.3c2.1-3.2,3.7-4.5,3.1-6.4c-0.6-1.9-2.7-2.6-4-4.4C53.8,64.7,52.7,62.2,52.7,62.2"></path><path class="st0" d="M42.9,20.7c-0.2,2.8,0.4,7.8,0.8,11.4"></path><path class="st0" d="M35.2,23.5c3.5,1.8,7.8,5.6,9.8,9.4"></path><path class="st0" d="M33.2,30.6c4.4-1.6,8-3.5,10.5,0.9"></path><path class="st0" d="M49.1,40.2c4,3.9,7.8,8.8,9,12.9"></path><path class="st0" d="M58.4,37.9C57.3,43.6,58,52.5,58,54.3"></path><path class="st0" d="M49.5,48c3.5-0.7,5.6-2.2,8.4,3.8"></path><path class="st2" d="M49.4,15.9c0.1,2.2,1.2,2.8-2.9,6.3l-4.1,3.5c0,0-0.6-0.9-1.4-2c-0.8-1-4.1-4.6-2-8.2c2-3.6,3.6-5.5,4.3-6
	c0.6-0.5,2.3-2.7,2.8-3.3"></path><path class="st7" d="M23.6,12.1c2.6,1.4,6.7-0.6,9.7,2c3,2.6,4.3,8.4,4.9,10.2c0.6,1.7,2,1.1-1.1,0.9c-3.1-0.3-3.4,0.8-6-0.1
	c-2.6-0.9-5.9-5.3-6-6.9C25.2,16.4,23.6,12.1,23.6,12.1"></path><path class="st3" d="M38.1,28.8c-0.8-0.1-1.6-0.8-5.5-1.3c-3.9-0.5-6.9-0.4-7.9,2.5c-1,2.9-0.1,3.6-1.9,5.3l-1.9,1.8
	c0,0,3.3,0.4,8,0.8c4.6,0.4,7.3-4.1,8.1-6C37.7,30,38.1,28.8,38.1,28.8"></path><path class="st4" d="M40.2,28.9c0,0,1.6,2.2,5.2,2.5c3.6,0.4,7.5,2.6,7.1,6.5c-0.4,3.9,0.6,6.1,0.6,6.1s0.1-0.5-3.1-0.6
	c-3.2-0.1-7.5-2.7-8.4-6C40.7,34.1,40.2,28.9,40.2,28.9"></path><path class="st5" d="M62.6,26.3c0,0-5.2,4.2-7,7.3c-1.8,3-2.4,4.9-0.7,7.4c1.6,2.5,2.1,4.3,2.1,4.3s3.1-3.7,4.9-4.4
	c1.8-0.7,4.1-3.8,3.3-5.8C64.6,33,62.6,26.3,62.6,26.3"></path><path class="st6" d="M53,47.3c0-0.1-2.7-1.5-6-2.3c-3.3-0.7-5.1-0.9-6.6,0.6c-1.5,1.5-2.6,3.2-3.7,5c-1.1,1.8-1.3,2.6-2.1,2.7
	c-0.8,0.1,1-0.6,4.6,0.7c3.6,1.3,5.3,2.5,6.9,1.4c1.7-1,1.8-3.3,3.3-4.9C50.9,49,53,47.3,53,47.3"></path><path class="st0" d="M84.7,44.5c-2.8-0.1-7.8,0.8-11.4,1.3"></path><path class="st0" d="M81.5,37c-1.7,3.6-5.2,8.1-8.9,10.3"></path><path class="st0" d="M74.4,35.4c1.8,4.3,3.9,7.9-0.4,10.5"></path><path class="st0" d="M65.6,51.7c-3.6,4.2-8.4,8.2-12.5,9.6"></path><path class="st0" d="M68.4,60.9c-5.7-0.8-14.6,0.3-16.5,0.4"></path><path class="st0" d="M57.8,52.5c0.9,3.5,2.5,5.5-3.4,8.6"></path><path class="st1" d="M89.8,50.8c-2.2,0.2-2.7,1.3-6.5-2.6l-3.7-3.9c0,0,0.9-0.7,1.9-1.5c1-0.8,4.4-4.3,8.1-2.4
	c3.7,1.8,5.6,3.4,6.2,4c0.6,0.6,2.8,2.2,3.4,2.6"></path><path class="st2" d="M92.3,24.9c-1.3,2.6,1,6.6-1.5,9.8c-2.5,3.1-8.2,4.7-9.9,5.4c-1.7,0.7-1,2.1-0.9-1c0.1-3.1-0.9-3.3-0.2-6
	c0.8-2.6,5-6.1,6.6-6.3C88.1,26.6,92.3,24.9,92.3,24.9"></path><path class="st3" d="M76.4,40.2c0-0.8,0.7-1.7,1-5.5c0.3-3.9,0-7-2.9-7.8c-2.9-0.8-3.6,0.1-5.4-1.7l-1.9-1.8c0,0-0.3,3.3-0.4,8
	c-0.1,4.7,4.5,7.1,6.4,7.8C75.2,39.8,76.4,40.2,76.4,40.2"></path><path class="st4" d="M76.4,42.3c0,0-2.1,1.7-2.3,5.3c-0.2,3.7-2.2,7.6-6.1,7.4c-3.9-0.2-6.1,0.9-6.1,0.9s0.5,0.1,0.5-3.1
	c-0.1-3.2,2.3-7.6,5.6-8.7C71.2,43,76.4,42.3,76.4,42.3"></path><path class="st5" d="M80.1,64.6c0,0-4.5-5-7.6-6.6c-3.1-1.6-5-2.1-7.4-0.4c-2.4,1.8-4.2,2.3-4.2,2.3s3.8,2.9,4.7,4.7
	c0.8,1.8,4,3.9,5.9,3.1C73.5,66.8,80.1,64.6,80.1,64.6"></path><path class="st6" d="M58.7,56c0.1,0,1.4-2.8,2-6.1c0.6-3.3,0.7-5.2-1-6.6c-1.6-1.4-3.3-2.4-5.2-3.4c-1.9-1-2.7-1.2-2.8-2
	c-0.1-0.8,0.6,1-0.5,4.7c-1.1,3.7-2.2,5.4-1.1,7c1.1,1.6,3.4,1.7,5.1,3C56.9,54,58.7,56,58.7,56"></path><path class="st0" d="M61.8,88.5c0.5-2.7,0.5-7.8,0.4-11.5"></path><path class="st0" d="M69.7,86.5c-3.3-2.2-7.2-6.4-8.7-10.4"></path><path class="st0" d="M72.5,79.7c-4.5,1.1-8.4,2.7-10.3-2"></path><path class="st0" d="M57.7,68.5c-3.6-4.3-6.8-9.6-7.5-13.8"></path><path class="st0" d="M48.2,69.8c1.7-5.5,2-14.5,2.1-16.3"></path><path class="st0" d="M58.1,60.7c-3.6,0.3-5.8,1.6-7.9-4.7"></path><path class="st1" d="M54.8,92.6c0.1-2.2-0.9-2.9,3.5-6l4.4-3.1c0,0,0.5,1,1.2,2.1c0.6,1.1,3.5,5,1.2,8.4c-2.4,3.3-4.2,5.1-4.9,5.5
	c-0.7,0.5-2.6,2.5-3.1,3"></path><path class="st7" d="M80,99.1c-2.4-1.7-6.7-0.1-9.4-3c-2.7-2.9-3.4-8.9-3.8-10.6c-0.4-1.8-1.9-1.3,1.2-0.8c3,0.6,3.4-0.4,5.9,0.8
	c2.5,1.2,5.3,5.9,5.2,7.5C79,94.7,80,99.1,80,99.1"></path><path class="st2" d="M67.4,81c0.8,0.2,1.5,1,5.3,1.9c3.8,0.9,6.9,1.1,8.1-1.7c1.3-2.8,0.5-3.5,2.5-5.1l2-1.6c0,0-3.2-0.8-7.8-1.6
	c-4.6-0.8-7.7,3.3-8.7,5.1C67.9,79.9,67.4,81,67.4,81"></path><path class="st4" d="M65.3,80.6c0,0-1.3-2.3-4.9-3.1c-3.6-0.8-7.1-3.4-6.3-7.2c0.8-3.8,0-6.2,0-6.2s-0.2,0.5,3,0.9
	c3.2,0.4,7.2,3.5,7.8,6.9C65.4,75.4,65.3,80.6,65.3,80.6"></path><path class="st5" d="M42.7,80.9c0,0,5.6-3.7,7.7-6.5c2.1-2.8,2.9-4.6,1.5-7.2c-1.4-2.6-1.7-4.5-1.7-4.5s-3.4,3.3-5.3,3.9
	C43,67,40.5,69.8,41,71.9C41.5,74,42.7,80.9,42.7,80.9"></path><path class="st6" d="M54.5,61.1c0,0.1,2.5,1.8,5.7,2.9c3.2,1.1,5,1.4,6.6,0.1c1.6-1.4,2.9-2.9,4.2-4.6c1.3-1.7,1.6-2.5,2.4-2.5
	c0.8,0-1.1,0.5-4.5-1.2c-3.4-1.7-5-3-6.7-2.2c-1.8,0.9-2.2,3.1-3.8,4.6C56.8,59.6,54.5,61.1,54.5,61.1"></path><path class="st8" d="M42.3,52.5C45,53.4,50,54,53.6,54.5"></path><path class="st8" d="M43.2,60.6c2.6-2.9,7.4-6.2,11.6-7.2"></path><path class="st8" d="M49.5,64.3c-0.5-4.6-1.5-8.7,3.5-9.9"></path><path class="st8" d="M62.7,51.2c4.7-3,10.4-5.4,14.7-5.5"></path><path class="st8" d="M62.8,41.6c5.2,2.5,14.1,4,15.9,4.4"></path><path class="st8" d="M70.4,52.7c0.2-3.6-0.7-6,5.8-7.2"></path><path class="st8" d="M39.3,45c2.2,0.4,3-0.5,5.4,4.3l2.4,4.8c0,0-1.1,0.4-2.3,0.9c-1.2,0.5-5.5,2.8-8.5,0c-3-2.8-4.4-4.9-4.8-5.6
	c-0.4-0.7-2.1-2.9-2.5-3.5"></path><path class="st8" d="M29.3,69c2-2.1,1-6.6,4.3-8.9c3.3-2.3,9.2-2.1,11.1-2.3c1.8-0.2,1.6-1.7,0.6,1.2c-1,2.9-0.1,3.4-1.6,5.7
	c-1.5,2.3-6.6,4.4-8.2,4.1C33.8,68.6,29.3,69,29.3,69"></path><path class="st8" d="M48.9,59.1c-0.3,0.8-1.2,1.4-2.6,5c-1.4,3.6-2,6.6,0.5,8.3c2.5,1.7,3.4,1,4.7,3.2l1.3,2.2c0,0,1.2-3.1,2.7-7.5
	c1.5-4.4-2.2-8.1-3.9-9.3C50,59.8,48.9,59.1,48.9,59.1"></path><path class="st8" d="M49.6,57.1c0,0,2.5-1,3.8-4.4c1.3-3.4,4.4-6.6,8-5.3c3.6,1.3,6.1,0.9,6.1,0.9S67,48,66.1,51.1
	c-0.9,3.1-4.5,6.6-7.9,6.7C54.8,57.9,49.6,57.1,49.6,57.1"></path><path class="st8" d="M52.6,34.7c0,0,2.8,6.1,5.3,8.5c2.5,2.5,4.2,3.5,7,2.5c2.8-1,4.7-1,4.7-1s-2.8-3.9-3.1-5.8
	c-0.3-2-2.7-4.9-4.8-4.7C59.6,34.5,52.6,34.7,52.6,34.7"></path><path class="st8" d="M70.5,49.1c-0.1,0-2.1,2.2-3.7,5.3c-1.5,3-2.1,4.7-1,6.6c1.1,1.8,2.5,3.3,4,4.8c1.5,1.6,2.2,1.9,2.1,2.7
	c-0.1,0.8-0.3-1.2,1.8-4.3c2.1-3.2,3.7-4.5,3.1-6.4c-0.6-1.9-2.7-2.6-4-4.4C71.7,51.6,70.5,49.1,70.5,49.1"></path><path class="st9" d="M73.3,65.3c0,0-0.6-9.8-3.7-10.5c-3.1-0.6-6.4,1.1-7.2,2.5s-4.1,10.8-4,12.4c0.1,1.7-1.6,3.3,0.4,4.3
	s3.6,1.7,6.7,0c3.1-1.7,5.3-3,6.3-3.3c1-0.4,1-0.4,2.7-1.1s3.3,0.2,2.5-2C76.2,65.5,73.3,65.3,73.3,65.3z"></path><path class="st10" d="M63.6,73.8c-1.7,0.6-2.8,0.2-4.3-0.6c-0.5-0.2-0.5-0.3-0.2-1.3c0.2-0.6,0.4-1.3,0.3-2.1
	c-0.1-1.3,3.1-10.4,3.9-11.9c0.3-0.5,1.2-1.2,2.5-1.7c1.2-0.4,2.4-0.5,3.4-0.3c1.3,0.3,2.6,5.2,2.8,9.5l0.1,1l1,0.1
	c0,0,2.2,0.2,2.7,1.7c0,0.1,0,0.1,0.1,0.2c0,0-0.1,0-0.1,0c-0.4,0-1,0.1-1.6,0.3c-0.1,0-0.2,0.1-0.3,0.1c-1.7,0.7-1.7,0.7-2.7,1.1
	c-0.9,0.3-2.3,1.1-4.6,2.4l-1.9,1C64.5,73.5,64,73.7,63.6,73.8z"></path><path class="st11" d="M74.5,72c-0.3-0.3-5-3.3-7.5-2.6c-2.5,0.8-4.3,2.6-4.5,4.2c-0.2,1.6,3.3,10.1,6.5,11.4
	c3.2,1.3,6.6,3.1,7.9,3.5s1.5,0.7,3.3-0.2c1.8-0.9,3.7-2.3,3.8-4.2c0.2-1.9-2-6.7-2.8-8c-0.8-1.3-0.5-1.9-2.4-2.9
	C77.1,72.4,74.5,72,74.5,72z"></path><path class="st12" d="M79,87.7c-0.4,0.2-0.5,0.1-1.1-0.1c-0.2-0.1-0.4-0.1-0.6-0.2c-0.7-0.2-2.1-0.9-3.6-1.6
	c-1.3-0.6-2.7-1.3-4.2-1.9c-2.6-1.1-6-8.9-5.9-10.3c0.1-1,1.4-2.5,3.4-3.2c0.1,0,0.2-0.1,0.3-0.1c1.7-0.5,5.6,1.7,6.5,2.4L74,73
	l0.3,0c0,0,2.5,0.4,4.1,1.3c1,0.5,1.1,0.8,1.4,1.4c0.1,0.3,0.3,0.7,0.6,1.1c0.9,1.5,2.8,5.8,2.6,7.3c-0.2,1.6-2.1,2.8-3.2,3.3
	C79.5,87.5,79.2,87.6,79,87.7z"></path><path class="st13" d="M83.4,62.7c-0.4-1.6-0.7-6.5,0.9-8.4c1.6-1.9,3.3-5.3,5.4-3.4s6.8,7.6,7.8,9.5c1,1.9,2.6,5.2,2.4,6.8
	c-0.2,1.7,2,1.4-1,2.7s-4.4,3.3-6.7,2.4c-2.3-0.9-6.6-2.3-7.2-2.9C84.3,69,83.4,62.7,83.4,62.7z"></path><path class="st12" d="M94,71.4c-0.5,0.2-1,0.2-1.5,0c-0.7-0.3-1.6-0.6-2.4-0.9c-1.5-0.5-3.7-1.4-4.3-1.7c-0.3-0.8-0.9-3.7-1.3-6.2
	l0-0.1l0-0.1c-0.4-1.6-0.5-6,0.7-7.4c0.3-0.3,0.6-0.7,0.8-1.1c0.7-1,1.6-2.2,2.3-2.4c0.1,0,0.3-0.1,0.7,0.2c2,1.8,6.7,7.5,7.6,9.2
	c1.2,2.2,2.4,5,2.3,6.2c-0.1,0.6,0.1,1.1,0.3,1.5c-0.2,0.1-0.4,0.2-0.7,0.3c-1,0.5-1.8,1-2.6,1.4C95.1,70.8,94.5,71.2,94,71.4z"></path><path class="st14" d="M84.3,73.8c0,0,4.5-4.4,7.4-5.5c2.9-1,6.3-0.7,6.7,0.5s3.6,4.8,1.2,8.4c-2.3,3.6-5.2,6-6.9,7.9
	c-1.7,1.8-4.3,3-6.1,3c-1.8,0-5.5-1.5-6.1-3.3c-0.6-1.8-1.2-5.3-1-6.4c0.2-1.2,2-6.4,2-6.4L84.3,73.8z"></path><path class="st10" d="M88.4,86.6c-0.6,0.2-1.3,0.4-1.8,0.4c-1.6,0-4.7-1.4-5.1-2.6c-0.6-1.8-1.1-5.1-1-5.9c0.1-0.6,0.8-2.9,1.5-4.9
	l2.4,1.5l0.6-0.6c1.2-1.2,4.8-4.4,7-5.2c2.5-0.9,5-0.5,5.4-0.1c0.1,0.2,0.3,0.6,0.5,1.1c1.1,2,2.2,4.1,0.8,6.3
	c-1.7,2.6-3.7,4.6-5.3,6.3c-0.5,0.5-1,1-1.4,1.5C91,85.3,89.7,86.2,88.4,86.6z"></path><path class="st15" d="M74.7,63.9c0,0-8.9,0.8-10.1-1.3c-1.2-2-3-6.4-0.8-8.9c2.2-2.5,3.3-3.8,5.8-4.2c2.6-0.4,9.1-0.8,12.7-1.9
	s5.9-1.3,6.2-0.7c0.3,0.6,1,3.9,1,3.9s-2.5,3.7-3.9,5.8c-1.4,2.1-2,3.1-3.2,4.3c-1.2,1.3-5.1,2.7-5.1,2.7L74.7,63.9z"></path><path class="st12" d="M74.7,62.8c-4.3,0.4-8.6,0-9.1-0.7c-1.2-1.9-2.6-5.6-0.9-7.6l0.1-0.1c1.6-1.9,2.6-2.9,4-3.4
	c0.3-0.1,0.7-0.2,1.1-0.3c0.8-0.1,1.9-0.2,3.2-0.4c3.1-0.3,7.1-0.7,9.6-1.5c2.9-0.9,4.5-1,5-1c0.2,0.5,0.5,1.8,0.7,2.9
	c-0.7,1-2.5,3.8-3.6,5.5c-1.4,2.1-2,3-3.1,4.2c-0.7,0.8-3.1,1.8-4.5,2.3L74.7,62.8z"></path><path class="st16" d="M69.5,67.9c0,0-0.4-4.8,2.4-4.9c2.8-0.1,6.6-1.9,7.9-3.3c1.3-1.3,4.1-4.1,5-3.5s4.3,3.1,4.1,4.8
	c-0.2,1.7,0.7,1.5,1.7,4.4s2.4,4.6,1.5,7c-0.9,2.3-2.7,5.2-5.8,7.9c-3,2.7-4.2,4.1-5.1,2.8c-0.9-1.3-2.6-4.4-3.4-6
	c-0.8-1.6-2-4-4-4.3c-2-0.3-4.1-1-4.3-2.2C69.3,69.5,69.5,67.9,69.5,67.9z"></path><path class="st17" d="M76.7,70.3c0.8-0.7,4.1-2.3,5.7-2c1.6,0.3,1.7-1.8,2.5,1.2c0.8,3,1.4,4.8-0.4,5.7c-1.8,0.9-2.2,0.4-3.1,1
	c-0.9,0.6-2.5,1.3-4-0.4s-3.9-3.3-2.8-3.8S76.7,70.3,76.7,70.3z"></path><path class="st18" d="M77.8,77.1c0,0-0.8-2.7,0-3.8c0.8-1.1,1.2-1.8,2.2-2.3c1-0.5,1.6-1.4,2.5-0.9c0.9,0.5,1.6,1.7,1.9,2
	c0.4,0.3-0.9,0.9-0.1,1.7s0.1,1.3-1.5,1.9c-1.5,0.5-0.6-0.1-1.5,0.5C80.4,76.8,77.8,77.1,77.8,77.1z"></path><path class="st19" d="M83.4,77.2c0,0.4,2,1.2,3,0.2c1-1,3.7-2.6,3.7-3.5c0-0.9-1.7-2.3-1.8-2.1s-1.1-0.2-2.5,0.9
	c-1.4,1.1,0.3,2.1-1.3,2.5s-1.6,0.5-1.6,0.5L83.4,77.2z"></path><path class="st10" d="M55.7,37.8c0,0,8.7,3.3,8.5,6.2c-0.2,2.9-2.6,5.3-4,5.6c-1.4,0.3-10.7,0.6-12.2,0.1s-3.3,0.5-3.8-1.6
	s-0.7-3.6,1.6-5.9c2.3-2.3,4-3.8,4.5-4.6c0.6-0.8,0.6-0.8,1.6-2.1c1.1-1.3,0.6-3,2.4-1.7C56.2,35.2,55.7,37.8,55.7,37.8z"></path><path class="st12" d="M45.6,44c-1,1.4-0.8,2.4-0.5,3.9c0.1,0.5,0.1,0.5,1.2,0.5c0.6,0,1.3,0,2,0.3c1.1,0.4,10.1,0.2,11.7-0.1
	c0.5-0.1,1.4-0.7,2.1-1.8c0.7-0.9,1.1-2,1.1-2.9c0.1-1.3-4.1-3.7-7.9-5.1l-0.9-0.3l0.2-0.9c0,0,0.4-2-0.8-2.9
	c-0.1,0-0.1-0.1-0.1-0.1c0,0,0,0.1,0,0.1C53.5,35,53.3,35.5,53,36c-0.1,0.1-0.1,0.1-0.2,0.2c-1.1,1.3-1.1,1.3-1.6,2
	c-0.5,0.7-1.6,1.7-3.3,3.4l-1.4,1.4C46.2,43.3,45.9,43.6,45.6,44z"></path><path class="st20" d="M50,34.9c0.1,0.4,1.8,5.3,0.5,7.3c-1.3,2-3.4,3-4.9,2.8c-1.5-0.2-8.3-5.7-8.7-8.9c-0.4-3.2-1.2-6.6-1.2-8
	c0-1.3-0.3-1.5,1-2.8c1.2-1.3,3-2.6,4.7-2.2c1.8,0.4,5.5,3.6,6.5,4.7c1,1.1,1.6,1,2,2.9S50,34.9,50,34.9z"></path><path class="st21" d="M36.8,26.5c-0.2,0.3-0.2,0.4-0.2,1c0,0.2,0,0.4,0,0.6c0,0.7,0.3,2.1,0.5,3.7c0.2,1.3,0.5,2.8,0.7,4.2
	c0.3,2.6,6.6,7.7,7.9,8c0.9,0.2,2.6-0.5,3.7-2.1c0.1-0.1,0.1-0.2,0.2-0.2c0.9-1.4-0.2-5.4-0.6-6.4L48.9,35l0-0.2c0,0,0.2-2.3-0.2-4
	c-0.2-1-0.4-1.2-0.9-1.6c-0.2-0.2-0.5-0.5-0.9-0.8c-1.1-1.2-4.6-4.1-5.9-4.3c-1.5-0.3-3,1.1-3.8,1.9C37.1,26.1,37,26.3,36.8,26.5z"></path><path class="st22" d="M60.5,29.6c1.3,0.8,5.7,2.4,7.8,1.5c2.1-0.8,5.6-1.5,4.4-3.8c-1.2-2.3-5.2-8.1-6.7-9.5c-1.4-1.4-4-3.7-5.6-4
	c-1.5-0.3-0.7-2.1-2.7,0.2c-1.9,2.3-4,3-3.8,5.3s0.5,6.5,0.8,7.1C55.1,27,60.5,29.6,60.5,29.6z"></path><path class="st10" d="M55.3,17.8c-0.3,0.4-0.4,0.8-0.4,1.3c0.1,0.7,0.1,1.5,0.2,2.4c0.1,1.5,0.3,3.7,0.5,4.3
	c0.6,0.5,3.1,1.8,5.3,2.8l0.1,0l0.1,0c1.4,0.8,5.3,2.1,6.8,1.5c0.4-0.1,0.8-0.3,1.2-0.4c1-0.4,2.3-0.8,2.7-1.3
	c0.1-0.1,0.2-0.2,0-0.6c-1.2-2.2-5.2-8-6.5-9.3c-1.7-1.7-4-3.5-5-3.7c-0.6-0.1-1-0.4-1.3-0.7c-0.1,0.1-0.3,0.3-0.4,0.5
	c-0.7,0.8-1.3,1.4-1.9,1.9C56.1,17,55.6,17.4,55.3,17.8z"></path><path class="st23" d="M50.7,25.7c0,0,5.1-2.7,6.7-5s2.2-5.4,1.2-6.1c-1-0.7-3.5-4.5-7.3-3.4c-3.8,1.1-6.7,2.9-8.8,3.9
	s-3.8,2.9-4.2,4.5c-0.5,1.6,0,5.3,1.5,6.3c1.4,1,4.5,2.6,5.6,2.7c1.1,0.2,6.3,0.1,6.3,0.1L50.7,25.7z"></path><path class="st12" d="M40.1,18.5c-0.4,0.5-0.6,1-0.8,1.5c-0.4,1.4,0.1,4.5,1.1,5.2c1.5,1.1,4.3,2.4,5.1,2.5c0.6,0.1,2.9,0.1,4.8,0.1
	l-0.8-2.6l0.7-0.4c1.4-0.7,5.2-3,6.4-4.7c1.4-2,1.7-4.3,1.4-4.7c-0.2-0.1-0.5-0.4-0.8-0.8c-1.5-1.6-3.2-3-5.5-2.4
	c-2.8,0.8-5.1,2-7,3c-0.6,0.3-1.2,0.6-1.7,0.9C42,16.6,40.9,17.5,40.1,18.5z"></path><path class="st24" d="M57.3,36.9c0,0-2.9,7.6-1.3,9.2c1.5,1.7,5,4.4,7.8,3.2c2.8-1.2,4.2-1.8,5.2-4c1-2.2,2.9-7.8,4.8-10.7
	s2.6-4.8,2.1-5.3c-0.5-0.5-3.3-2-3.3-2s-4,1.2-6.2,1.8s-3.3,0.9-4.7,1.6c-1.4,0.7-3.7,3.8-3.7,3.8L57.3,36.9z"></path><path class="st12" d="M58.3,37.2c-1.4,3.7-2.1,7.6-1.6,8.2c1.4,1.5,4.4,3.9,6.6,2.9l0.1-0.1c2.1-0.9,3.3-1.4,4-2.5
	c0.2-0.3,0.4-0.6,0.5-0.9c0.3-0.6,0.7-1.6,1.1-2.7c1.1-2.7,2.4-6,3.8-8.1c1.6-2.3,2-3.6,2.1-4.1c-0.4-0.3-1.5-0.9-2.5-1.5
	c-1.1,0.3-4,1.2-5.8,1.7c-2.2,0.6-3.2,0.9-4.6,1.5c-0.8,0.4-2.4,2.2-3.2,3.3L58.3,37.2z"></path><path class="st16" d="M52.5,40.4c0,0,4.2,1.7,5-0.7c0.8-2.4,3.4-5.3,4.9-6c1.5-0.7,4.7-2.5,4.4-3.4c-0.3-1-1.8-4.6-3.3-5
	c-1.5-0.3-1.1-1-3.6-2.7c-2.4-1.7-3.6-3.4-5.9-3.2s-5.4,1-8.5,2.9c-3.2,1.9-4.7,2.6-3.8,3.7s3.3,3.5,4.6,4.7
	c1.2,1.1,3.1,2.8,2.9,4.7s-0.1,3.8,0.9,4.4C51,40.2,52.5,40.4,52.5,40.4z"></path><path class="st17" d="M52,33.4c0.8-0.5,3.1-3,3.2-4.4c0.1-1.5,2.1-1-0.4-2.5s-4-2.5-5.3-1.2c-1.3,1.3-0.9,1.8-1.7,2.5
	s-1.8,1.9-0.6,3.6s2.1,4.4,2.8,3.6C50.7,34.1,52,33.4,52,33.4z"></path><path class="st18" d="M46.1,30.5c0,0,2.2,1.5,3.4,1.1c1.2-0.4,1.9-0.6,2.6-1.3s1.7-1,1.4-2c-0.3-1-1.1-1.8-1.3-2.3
	c-0.2-0.4-1.1,0.5-1.6-0.4c-0.5-0.9-1.2-0.4-2,0.8s-0.1,0.5-0.9,1.2S46.1,30.5,46.1,30.5z"></path><path class="st19" d="M47.4,25.6c-0.3-0.1-0.6-2.1,0.5-2.7c1.1-0.6,3.2-2.5,4.1-2.3c0.9,0.2,1.6,2.1,1.5,2.2s-0.1,1-1.4,2
	c-1.4,0.9-1.8-0.9-2.6,0.4c-0.8,1.3-0.8,1.3-0.8,1.3L47.4,25.6z"></path><path class="st25" d="M42.3,72.5c0,0,1.7,10,5,10.4s6.5-1.9,7.1-3.4c0.6-1.5,3-11.5,2.7-13.3c-0.3-1.7,1.2-3.6-0.9-4.4
	c-2.2-0.8-3.9-1.4-6.9,0.8c-3,2.1-5.1,3.7-6.1,4.1s-1,0.5-2.7,1.4c-1.7,0.9-3.4,0.2-2.4,2.3S42.3,72.5,42.3,72.5z"></path><path class="st12" d="M51.4,62.6c1.7-0.8,2.8-0.5,4.5,0.2c0.5,0.2,0.5,0.2,0.3,1.4c-0.1,0.6-0.3,1.4-0.1,2.2c0.2,1.3-2,11-2.7,12.7
	c-0.2,0.5-1.1,1.4-2.4,2c-1.2,0.6-2.4,0.8-3.5,0.7c-1.4-0.1-3.2-5.1-4-9.4l-0.2-1l-1,0c0,0-2.3,0.1-3-1.4c0-0.1-0.1-0.1-0.1-0.2
	c0,0,0.1,0,0.1,0c0.4-0.1,1-0.2,1.6-0.5c0.1,0,0.2-0.1,0.3-0.1c1.7-0.9,1.7-0.9,2.6-1.4c0.9-0.4,2.3-1.4,4.4-3l1.8-1.3
	C50.5,63.1,50.9,62.8,51.4,62.6z"></path><path class="st12" d="M40.3,65.8c0.4,0.2,5.5,2.9,8,1.8c2.5-1.1,4.1-3.1,4.2-4.8c0.1-1.7-4.6-10-8-11.1c-3.5-1-7.1-2.5-8.6-2.7
	s-1.6-0.6-3.4,0.5c-1.7,1.1-3.5,2.8-3.5,4.8c0,2,2.8,6.6,3.8,7.9s0.8,1.9,2.8,2.7C37.6,65.6,40.3,65.8,40.3,65.8z"></path><path class="st12" d="M33.9,50c0.4-0.2,0.5-0.2,1.1-0.1c0.2,0,0.4,0.1,0.7,0.1c0.7,0.1,2.3,0.7,3.9,1.2c1.4,0.5,3,1,4.5,1.5
	c2.8,0.8,7.2,8.5,7.2,9.9c0,1.1-1.2,2.7-3.2,3.7c-0.1,0-0.2,0.1-0.3,0.1c-1.7,0.7-6-1.2-6.9-1.7l-0.2-0.1l-0.3,0
	c0,0-2.6-0.2-4.4-0.9c-1.1-0.4-1.2-0.7-1.6-1.3c-0.2-0.3-0.4-0.7-0.7-1.1c-1.1-1.4-3.5-5.7-3.5-7.2c0-1.7,1.8-3.1,3-3.8
	C33.4,50.3,33.7,50.1,33.9,50z"></path><path class="st26" d="M32.2,76.3c0.6,1.6,1.4,6.6,0,8.7c-1.4,2.1-2.8,5.8-5.2,4.1c-2.3-1.7-7.9-7.1-9.1-8.9s-3.2-5-3.3-6.8
	s-2.2-1.2,0.8-2.9s4.2-3.9,6.7-3.2s7.1,1.7,7.8,2.1C30.5,70,32.2,76.3,32.2,76.3z"></path><path class="st12" d="M20.3,68.6c0.5-0.3,1-0.3,1.5-0.2c0.7,0.2,1.7,0.4,2.6,0.7c1.6,0.4,4,1,4.7,1.3c0.4,0.7,1.3,3.7,2,6.2l0,0.1
	l0,0.1c0.6,1.6,1.2,6.1,0.1,7.7c-0.2,0.4-0.5,0.8-0.7,1.2c-0.6,1.1-1.4,2.4-2.1,2.7c-0.1,0.1-0.3,0.1-0.7-0.2
	c-2.2-1.7-7.7-7-8.9-8.7c-1.5-2.1-3-4.9-3-6.1c0-0.7-0.2-1.1-0.5-1.5c0.2-0.1,0.4-0.2,0.6-0.4c1-0.6,1.8-1.2,2.5-1.7
	C19.2,69.3,19.8,68.8,20.3,68.6z"></path><path class="st10" d="M30,65c0,0-4.1,5.1-7,6.4s-6.4,1.4-7,0.3c-0.6-1.2-4.2-4.6-2.2-8.5s4.7-6.8,6.2-8.9c1.5-2.1,4.1-3.6,6-3.8
	c1.9-0.2,5.8,1,6.7,2.7c0.8,1.7,1.9,5.3,1.8,6.5c-0.1,1.2-1.3,6.8-1.3,6.8L30,65z"></path><path class="st27" d="M24.3,52.2c0.6-0.3,1.3-0.5,1.8-0.6c1.6-0.2,5,0.9,5.5,2.1c0.9,1.8,1.7,5.1,1.7,6c0,0.7-0.5,3.1-1,5.2
	l-2.7-1.3l-0.6,0.7c-1.1,1.4-4.4,5.1-6.6,6.1c-2.5,1.2-5.1,1.1-5.5,0.7c-0.1-0.2-0.4-0.6-0.7-1c-1.4-1.9-2.7-4-1.5-6.4
	c1.5-2.9,3.3-5.2,4.8-7.1c0.5-0.6,0.9-1.2,1.3-1.7C21.8,53.9,23,52.8,24.3,52.2z"></path><path class="st28" d="M41,74.1c0,0,9-1.8,10.5,0.2c1.5,2,3.8,6.2,1.8,9.1s-2.9,4.2-5.5,5c-2.6,0.7-9.3,1.8-12.9,3.4
	c-3.5,1.6-5.9,2-6.3,1.4c-0.4-0.6-1.5-3.9-1.5-3.9s2.2-4.1,3.3-6.4c1.2-2.3,1.7-3.4,2.8-4.8c1.1-1.4,5-3.3,5-3.3L41,74.1z"></path><path class="st29" d="M41.1,75.2c4.4-0.9,8.9-1,9.5-0.3c1.4,1.8,3.4,5.5,1.8,7.7l-0.1,0.1c-1.5,2.1-2.3,3.3-3.7,4
	c-0.3,0.2-0.7,0.3-1.1,0.4c-0.8,0.2-1.9,0.5-3.3,0.8c-3.2,0.7-7.2,1.5-9.8,2.7c-2.9,1.3-4.5,1.5-5,1.5c-0.2-0.5-0.7-1.8-1.1-3
	c0.6-1.1,2.2-4.2,3.1-6c1.2-2.3,1.7-3.3,2.7-4.7c0.6-0.9,3-2.2,4.4-2.9L41.1,75.2z"></path><path class="st16" d="M45.9,69.4c0,0,1,4.9-1.9,5.3c-2.9,0.5-6.6,2.7-7.8,4.3s-3.7,4.7-4.8,4.1c-1-0.5-4.8-2.7-4.8-4.5
	c0-1.7-0.8-1.4-2.2-4.3c-1.4-2.9-3-4.5-2.3-7c0.7-2.5,2.2-5.7,5-8.8s3.9-4.7,5-3.5c1.1,1.2,3.2,4.2,4.2,5.8c1,1.5,2.5,3.9,4.6,4
	c2.1,0.1,4.3,0.5,4.7,1.8S45.9,69.4,45.9,69.4z"></path><path class="st17" d="M38.2,67.7c-0.7,0.8-3.9,2.8-5.6,2.7s-1.6,2.1-2.7-0.9c-1.1-3-1.9-4.8-0.2-5.9c1.8-1.2,2.2-0.7,3.1-1.4
	c0.9-0.7,2.5-1.6,4.2,0s4.4,3,3.4,3.6C39.3,66.4,38.2,67.7,38.2,67.7z"></path><path class="st18" d="M36.3,60.8c0,0,1.1,2.7,0.5,3.9c-0.7,1.3-1.1,2-2,2.6c-0.9,0.6-1.5,1.7-2.5,1.2c-1-0.4-1.8-1.5-2.2-1.8
	s0.8-1.1-0.1-1.8c-0.9-0.7-0.2-1.3,1.3-2.1c1.5-0.7,0.6,0,1.5-0.7C33.7,61.5,36.3,60.8,36.3,60.8z"></path><path class="st19" d="M30.5,61.3c-0.1-0.4-2.2-1-3.1,0.1s-3.5,3-3.4,4c0.1,1,2,2.1,2.1,2c0.1-0.1,1.1,0.1,2.5-1.2s-0.6-2.1,1-2.7
	c1.6-0.6,1.6-0.6,1.6-0.6L30.5,61.3z"></path></g></svg>