<?xml version="1.0" encoding="utf-8"?>
<!-- Generator: Adobe Illustrator 23.1.1, SVG Export Plug-In . SVG Version: 6.00 Build 0)  -->
<svg version="1.1" id="Layer_1" xmlns="http://www.w3.org/2000/svg" xmlns:xlink="http://www.w3.org/1999/xlink" x="0px" y="0px"
	 viewBox="0 0 108 108" style="enable-background:new 0 0 108 108;" xml:space="preserve">
<style type="text/css">
	.st0{fill:#529643;}
	.st1{fill:#568A41;}
	.st2{fill:#498B40;}
	.st3{fill:#4E9141;}
	.st4{fill:#578E4D;}
	.st5{fill:#699B40;}
	.st6{fill:#329345;}
	.st7{fill:#6E9C40;}
	.st8{fill:#578A41;}
	.st9{fill:#759D3F;}
	.st10{fill:#46873F;}
	.st11{fill:#4E8E40;}
	.st12{fill:#396430;}
	.st13{fill:#427035;}
	.st14{fill:#A41E22;}
	.st15{clip-path:url(#SVGID_2_);fill:#A41E22;}
	.st16{clip-path:url(#SVGID_4_);fill:#A41E22;}
	.st17{fill:#E67758;}
	.st18{fill:#E12F2A;}
	.st19{fill:#E45C37;}
	.st20{fill:#E23D27;}
	.st21{fill:#E24D2C;}
	.st22{clip-path:url(#SVGID_6_);fill:#E23D27;}
	.st23{clip-path:url(#SVGID_8_);fill:#E23D27;}
	.st24{clip-path:url(#SVGID_10_);fill:#A41E22;}
	.st25{clip-path:url(#SVGID_12_);fill:#E23D27;}
</style>
<g>
	<path class="st0" d="M49.18,62.71c-0.84-0.96-1.52-1.98-2.18-3.03c-0.66-1.04-1.26-2.11-1.8-3.21c-0.55-1.09-1.02-2.22-1.48-3.34
		c-0.47-1.12-0.91-2.25-1.34-3.39c-0.85-2.27-1.61-4.57-2.25-6.9c-0.61-2.33-1.1-4.7-1.28-7.14l0.58-0.16
		c1.52,2.06,2.73,4.2,3.82,6.37c1.06,2.17,2,4.38,2.85,6.61c0.42,1.12,0.83,2.24,1.21,3.36c0.39,1.13,0.77,2.26,1.07,3.41
		c0.31,1.16,0.56,2.34,0.74,3.54c0.19,1.21,0.36,2.43,0.37,3.73L49.18,62.71z"/>
	<path class="st0" d="M48.51,61.13c-1.72-1.75-3.29-3.62-4.82-5.51c-1.54-1.89-2.98-3.84-4.44-5.79c-1.45-1.95-2.87-3.93-4.28-5.91
		c-1.39-2-2.78-4-4.09-6.06l0.27-0.21c1.63,1.82,3.18,3.7,4.73,5.58c1.53,1.89,3.04,3.8,4.53,5.72c1.48,1.93,2.97,3.85,4.37,5.84
		c1.4,1.99,2.77,4.01,3.99,6.13L48.51,61.13z"/>
	<path class="st0" d="M48.54,61.16c-2.22-1.12-4.26-2.47-6.25-3.87c-1.99-1.41-3.88-2.93-5.76-4.48c-1.88-1.55-3.72-3.14-5.53-4.77
		c-1.8-1.65-3.58-3.32-5.25-5.12l0.21-0.27c2.12,1.24,4.14,2.61,6.14,4c1.99,1.4,3.95,2.86,5.87,4.35c1.92,1.5,3.83,3.01,5.63,4.64
		c1.81,1.63,3.57,3.33,5.15,5.25L48.54,61.16z"/>
	<path class="st1" d="M49.89,62.11c-2.34-1.76-4.78-3.27-7.37-4.49c-0.32-0.15-0.64-0.32-0.97-0.46c-0.33-0.13-0.66-0.27-0.99-0.41
		c-0.33-0.13-0.65-0.29-0.99-0.41l-1.01-0.36c-0.67-0.26-1.35-0.46-2.04-0.67c-0.68-0.23-1.38-0.38-2.07-0.55
		c-2.78-0.66-5.64-1.03-8.52-1.13c-2.88-0.11-5.78,0.07-8.67,0.43l-0.07-0.33c2.84-0.78,5.78-1.2,8.74-1.29
		c2.96-0.08,5.95,0.19,8.86,0.83c0.72,0.17,1.46,0.32,2.17,0.55c0.71,0.22,1.44,0.4,2.13,0.68l1.05,0.4
		c0.35,0.12,0.68,0.3,1.03,0.44c0.34,0.15,0.68,0.3,1.02,0.47c0.34,0.16,0.66,0.35,0.99,0.53c2.62,1.43,5.04,3.26,6.95,5.53
		L49.89,62.11z"/>
	<path class="st0" d="M48.62,61.2c-2.46-0.07-4.88-0.36-7.3-0.68c-2.41-0.33-4.81-0.75-7.2-1.21c-1.2-0.23-2.39-0.47-3.58-0.72
		c-1.19-0.24-2.38-0.51-3.57-0.78c-2.37-0.55-4.74-1.13-7.09-1.83l0.06-0.34c2.44,0.17,4.86,0.46,7.28,0.78
		c1.21,0.17,2.41,0.33,3.61,0.53c1.2,0.19,2.4,0.37,3.6,0.58c2.4,0.41,4.79,0.86,7.16,1.4c2.37,0.55,4.74,1.14,7.07,1.93L48.62,61.2
		z"/>
	<path class="st2" d="M54.61,60.44c-2.46-0.07-4.88-0.36-7.3-0.68c-2.41-0.33-4.81-0.75-7.2-1.21c-1.2-0.23-2.39-0.47-3.58-0.72
		c-1.19-0.24-2.38-0.51-3.57-0.78c-2.37-0.55-4.74-1.13-7.09-1.83l0.06-0.34c2.44,0.17,4.86,0.46,7.28,0.78
		c1.21,0.17,2.41,0.33,3.61,0.53c1.2,0.19,2.4,0.38,3.6,0.58c2.4,0.41,4.79,0.86,7.16,1.4c2.37,0.55,4.74,1.14,7.07,1.93
		L54.61,60.44z"/>
	<path class="st3" d="M51.31,62.5c-2.64-0.71-5.39-0.9-8.09-0.75l-1.01,0.08c-0.17,0.01-0.34,0.02-0.5,0.04
		c-0.17,0.02-0.34,0.04-0.5,0.13c-0.34,0.18-0.67,0.56-1,0.63c-0.16,0.05-0.33,0.01-0.49,0.02l-0.49,0c-0.66,0-1.32-0.02-1.97,0.02
		c-0.66,0.02-1.32,0.03-1.98,0.1c-0.66,0.04-1.32,0.08-1.98,0.17c-0.66,0.08-1.32,0.14-1.98,0.26c-0.66,0.1-1.32,0.18-1.97,0.33
		c-0.65,0.13-1.32,0.24-1.97,0.41c-2.62,0.58-5.22,1.38-7.81,2.31l-0.16-0.3c2.27-1.6,4.75-2.91,7.35-3.97
		c0.64-0.29,1.31-0.49,1.98-0.73c0.66-0.25,1.34-0.44,2.02-0.64c0.68-0.21,1.37-0.36,2.05-0.52c0.69-0.17,1.39-0.3,2.08-0.43
		c0.7-0.14,1.4-0.22,2.11-0.31c0.7-0.1,1.42-0.14,2.13-0.2l0.53-0.04c0.18-0.01,0.36-0.04,0.53,0.01c0.36,0.08,0.71,0.47,1.06,0.65
		c0.17,0.1,0.35,0.13,0.52,0.15c0.17,0.02,0.35,0.06,0.52,0.09l1.04,0.19c2.76,0.52,5.43,1.23,8.08,1.97L51.31,62.5z"/>
	<path class="st0" d="M48.7,61.19c-2.24,0.98-4.51,1.85-6.8,2.68c-1.14,0.43-2.29,0.81-3.44,1.22L35,66.25
		c-2.32,0.74-4.64,1.48-6.98,2.15c-2.34,0.68-4.69,1.32-7.07,1.86l-0.11-0.32c2.24-0.97,4.52-1.84,6.81-2.67
		c2.29-0.84,4.59-1.62,6.9-2.39l3.48-1.11c1.17-0.35,2.33-0.72,3.5-1.05c2.34-0.68,4.69-1.32,7.07-1.85L48.7,61.19z"/>
	<path class="st0" d="M48.74,61.18c-1.84,1.65-3.77,3.14-5.74,4.58c-1.97,1.44-3.99,2.8-6.03,4.12c-2.05,1.32-4.13,2.58-6.27,3.74
		c-2.14,1.16-4.33,2.26-6.64,3.15l-0.18-0.29c1.8-1.71,3.73-3.21,5.7-4.65c1.97-1.44,4-2.77,6.07-4.06
		c2.07-1.28,4.17-2.52,6.31-3.68c2.15-1.16,4.32-2.27,6.6-3.22L48.74,61.18z"/>
	<path class="st0" d="M48.77,61.15c-1.5,1.93-3.09,3.78-4.7,5.6c-1.61,1.83-3.26,3.62-4.93,5.39c-0.83,0.89-1.69,1.76-2.53,2.63
		c-0.86,0.86-1.71,1.73-2.58,2.58c-1.74,1.71-3.51,3.38-5.37,4.97l-0.25-0.23c1.49-1.94,3.07-3.8,4.68-5.62
		c0.8-0.91,1.63-1.81,2.44-2.71c0.83-0.89,1.65-1.78,2.5-2.66c1.68-1.76,3.38-3.5,5.13-5.2c1.74-1.7,3.5-3.38,5.35-4.99L48.77,61.15
		z"/>
	<path class="st4" d="M54.72,59.79c-2.34,1.73-4.58,3.51-6.66,5.44c-2.07,1.94-4,4.02-5.73,6.25c-1.73,2.23-3.25,4.61-4.57,7.11
		c-1.3,2.51-2.37,5.15-3.25,7.92l-0.34-0.06c0.17-2.93,0.92-5.83,2.05-8.57c1.12-2.74,2.65-5.32,4.48-7.66
		c1.82-2.34,3.94-4.45,6.27-6.26c2.33-1.81,4.87-3.34,7.57-4.47L54.72,59.79z"/>
	<path class="st5" d="M48.82,61.08c-0.37,2.41-0.86,4.8-1.42,7.18c-0.27,1.19-0.58,2.37-0.89,3.56c-0.32,1.18-0.66,2.36-1,3.54
		c-0.71,2.35-1.46,4.69-2.31,7.01c-0.84,2.32-1.76,4.63-2.82,6.9c-0.13-0.03-0.27-0.07-0.4-0.1c0.63-2.38,1.34-4.73,2.05-7.09
		c0.7-2.36,1.43-4.7,2.14-7.05c0.36-1.17,0.72-2.34,1.07-3.52c0.37-1.17,0.71-2.34,1.07-3.51c0.71-2.34,1.42-4.68,2.17-7
		C48.6,61.02,48.71,61.05,48.82,61.08"/>
	<path class="st0" d="M48.41,54.13c-0.37,2.41-0.86,4.8-1.42,7.18c-0.27,1.19-0.58,2.37-0.89,3.56c-0.32,1.18-0.66,2.36-1,3.54
		c-0.71,2.35-1.46,4.69-2.31,7.01c-0.84,2.32-1.76,4.63-2.82,6.9c-0.13-0.03-0.27-0.07-0.4-0.1c0.63-2.38,1.34-4.73,2.05-7.09
		c0.7-2.36,1.43-4.7,2.14-7.05c0.36-1.17,0.72-2.34,1.07-3.52c0.37-1.17,0.71-2.34,1.07-3.51c0.71-2.34,1.42-4.68,2.17-7
		C48.19,54.08,48.3,54.1,48.41,54.13"/>
	<path class="st0" d="M48.82,61.03c0.28,2.44,0.4,4.87,0.46,7.31c0.06,2.43,0.07,4.87,0.01,7.3c-0.02,1.22-0.06,2.43-0.11,3.65
		c-0.05,1.22-0.1,2.43-0.18,3.65c-0.15,2.43-0.34,4.86-0.66,7.29l-0.34,0c-0.24-2.44-0.35-4.87-0.42-7.31
		c-0.04-1.22-0.05-2.43-0.06-3.65c-0.02-1.22-0.01-2.43,0.01-3.65c0.02-2.43,0.11-4.86,0.25-7.3c0.14-2.43,0.35-4.86,0.7-7.29
		L48.82,61.03z"/>
	<path class="st0" d="M49.52,40.92c0.28,2.44,0.4,4.87,0.46,7.31c0.06,2.43,0.07,4.87,0.01,7.3c-0.02,1.22-0.06,2.43-0.11,3.65
		c-0.05,1.22-0.1,2.43-0.18,3.65c-0.15,2.43-0.34,4.86-0.66,7.29l-0.34,0c-0.24-2.44-0.35-4.87-0.42-7.31
		c-0.04-1.22-0.05-2.43-0.06-3.65c-0.02-1.22-0.01-2.43,0.01-3.65c0.02-2.43,0.11-4.86,0.25-7.3c0.14-2.43,0.35-4.86,0.7-7.29
		L49.52,40.92z"/>
	<path class="st6" d="M48.77,59.69c0.56,1.13,1.01,2.28,1.42,3.43c0.41,1.16,0.78,2.33,1.11,3.5c0.34,1.17,0.62,2.36,0.92,3.55
		c0.3,1.19,0.6,2.37,0.89,3.56c0.6,2.38,1.17,4.76,1.73,7.14c0.55,2.39,1.09,4.78,1.51,7.21c-0.14,0.03-0.28,0.06-0.41,0.09
		c-1.12-2.27-2.06-4.58-2.9-6.91c-0.84-2.33-1.6-4.68-2.26-7.04c-0.34-1.18-0.65-2.37-0.94-3.55c-0.29-1.19-0.59-2.37-0.81-3.57
		c-0.23-1.2-0.4-2.41-0.51-3.63c-0.11-1.22-0.16-2.45-0.09-3.71C48.55,59.73,48.66,59.71,48.77,59.69"/>
	<path class="st1" d="M48.8,60.95c0.83,0.94,1.54,1.94,2.23,2.96c0.68,1.02,1.31,2.06,1.91,3.12c0.6,1.06,1.15,2.15,1.71,3.23
		c0.55,1.08,1.1,2.17,1.64,3.26c1.08,2.18,2.12,4.38,3.13,6.6c1,2.22,1.97,4.46,2.85,6.74l-0.3,0.16c-1.37-2.03-2.64-4.11-3.88-6.21
		c-1.23-2.1-2.44-4.21-3.6-6.35c-0.58-1.07-1.16-2.14-1.73-3.22c-0.56-1.08-1.14-2.15-1.66-3.25c-0.52-1.1-1.01-2.22-1.46-3.36
		c-0.44-1.14-0.84-2.3-1.14-3.52L48.8,60.95z"/>
	<path class="st0" d="M48.78,60.93c1.79,1.68,3.47,3.45,5.13,5.26c1.66,1.81,3.28,3.66,4.94,5.48c0.82,0.92,1.65,1.84,2.49,2.75
		c0.83,0.92,1.66,1.84,2.5,2.76c1.67,1.84,3.36,3.68,5.02,5.55c-0.09,0.08-0.18,0.16-0.27,0.23c-1.91-1.65-3.74-3.37-5.53-5.11
		c-0.89-0.87-1.77-1.75-2.65-2.64c-0.86-0.89-1.72-1.79-2.57-2.68c-1.68-1.81-3.35-3.63-4.93-5.51c-1.57-1.88-3.07-3.82-4.4-5.88
		C48.6,61.07,48.69,61,48.78,60.93"/>
	<path class="st7" d="M48.75,60.9c0.64,0.16,1.24,0.36,1.83,0.58c0.59,0.22,1.17,0.46,1.73,0.72c1.13,0.51,2.22,1.08,3.29,1.69
		c2.13,1.23,4.12,2.65,6.14,4.07c2.01,1.42,4,2.89,5.96,4.43c1.95,1.55,3.89,3.12,5.72,4.89c-0.06,0.1-0.13,0.19-0.19,0.29
		c-2.46-0.83-4.75-1.89-7.01-3.01c-2.24-1.13-4.41-2.37-6.52-3.67c-2.1-1.32-4.17-2.66-6.07-4.23c-0.95-0.79-1.86-1.62-2.72-2.52
		c-0.43-0.45-0.85-0.92-1.24-1.41c-0.4-0.49-0.78-1-1.13-1.56C48.61,61.08,48.68,60.99,48.75,60.9"/>
	<path class="st0" d="M42.87,64.57c0.69-0.26,1.39-0.5,2.09-0.73c0.71-0.22,1.43-0.38,2.15-0.56c0.72-0.19,1.45-0.29,2.19-0.41
		c0.37-0.06,0.73-0.12,1.1-0.16l1.11-0.1c2.97-0.25,5.97-0.06,8.91,0.47c2.93,0.54,5.81,1.45,8.49,2.74
		c2.68,1.3,5.19,2.96,7.29,5.03l-0.22,0.26c-2.43-1.59-4.99-2.91-7.66-3.93c-2.66-1.02-5.43-1.75-8.23-2.2
		c-2.81-0.46-5.65-0.62-8.5-0.61l-1.07,0c-0.36,0-0.71,0.03-1.07,0.04c-0.71,0.04-1.44,0.03-2.15,0.11
		c-0.71,0.08-1.44,0.08-2.16,0.17c-0.72,0.08-1.44,0.15-2.18,0.2L42.87,64.57z"/>
	<path class="st8" d="M48.67,60.86c1.23-0.07,2.45-0.06,3.67-0.05c1.22,0.03,2.44,0.05,3.66,0.13c2.43,0.13,4.86,0.34,7.28,0.6
		c2.42,0.26,4.83,0.56,7.24,0.93c2.41,0.37,4.81,0.78,7.2,1.33l-0.03,0.34c-2.45,0.06-4.89-0.02-7.32-0.14
		c-2.43-0.11-4.86-0.31-7.28-0.53c-2.42-0.23-4.84-0.51-7.25-0.87c-1.21-0.17-2.41-0.39-3.61-0.61c-1.2-0.23-2.4-0.47-3.59-0.79
		L48.67,60.86z"/>
	<path class="st0" d="M44.77,61.47c1.1-0.56,2.22-1.04,3.34-1.52c1.13-0.47,2.26-0.93,3.4-1.35c2.28-0.86,4.58-1.64,6.91-2.37
		c2.32-0.73,4.65-1.43,7.01-2.05c2.35-0.63,4.72-1.22,7.13-1.67l0.1,0.32c-2.22,1.04-4.48,1.94-6.76,2.81
		c-2.28,0.87-4.58,1.67-6.88,2.43c-2.31,0.76-4.64,1.48-6.99,2.11c-1.17,0.32-2.36,0.61-3.55,0.89c-1.19,0.27-2.38,0.53-3.6,0.72
		L44.77,61.47z"/>
	<path class="st0" d="M48.49,60.86c2.42-0.47,4.84-0.86,7.26-1.25c2.42-0.37,4.84-0.74,7.26-1.08c2.42-0.35,4.83-0.7,7.25-1.02
		c2.42-0.33,4.83-0.66,7.25-0.92c0.02,0.11,0.04,0.22,0.06,0.33c-2.37,0.59-4.76,1.09-7.16,1.55c-2.4,0.46-4.81,0.86-7.23,1.23
		c-2.42,0.37-4.85,0.68-7.29,0.94c-2.44,0.25-4.89,0.46-7.35,0.55C48.52,61.09,48.5,60.97,48.49,60.86"/>
	<path class="st0" d="M48.49,60.94c1.75-1.79,3.7-3.39,5.79-4.78c2.1-1.39,4.33-2.57,6.66-3.53l1.76-0.68l1.79-0.59l1.81-0.51
		l1.84-0.42c2.46-0.51,4.96-0.78,7.46-0.79l0.02,0.34c-2.47,0.24-4.91,0.64-7.3,1.23l-1.78,0.48l-1.76,0.54l-1.74,0.62l-1.71,0.68
		c-2.26,0.96-4.46,2.09-6.55,3.38c-2.1,1.29-4.11,2.72-6.04,4.29L48.49,60.94z"/>
	<path class="st9" d="M48.55,60.9c1.83-1.61,3.72-3.15,5.62-4.67c0.95-0.76,1.91-1.51,2.87-2.26c0.96-0.75,1.93-1.48,2.9-2.22
		c1.94-1.48,3.9-2.91,5.89-4.31c2-1.39,4.01-2.76,6.1-4.03l0.2,0.27c-1.81,1.65-3.69,3.19-5.59,4.71c-1.91,1.51-3.84,2.99-5.8,4.44
		c-0.98,0.72-1.96,1.45-2.95,2.15c-0.98,0.72-1.98,1.42-2.97,2.12c-2,1.39-4.01,2.77-6.07,4.07L48.55,60.9z"/>
	<path class="st0" d="M48.11,62.8c1.15-2.2,2.51-4.23,3.93-6.21c1.42-1.98,2.97-3.86,4.52-5.73c1.56-1.87,3.16-3.71,4.8-5.51
		c1.65-1.79,3.32-3.57,5.12-5.25l0.26,0.21c-1.27,2.1-2.66,4.11-4.07,6.1c-1.42,1.98-2.89,3.92-4.39,5.84
		c-1.51,1.91-3.02,3.81-4.66,5.62c-1.64,1.81-3.34,3.56-5.25,5.14L48.11,62.8z"/>
	<path class="st0" d="M42.86,65.02c1.15-2.2,2.51-4.23,3.93-6.21c1.42-1.98,2.97-3.86,4.52-5.73c1.56-1.87,3.16-3.71,4.8-5.51
		c1.65-1.79,3.33-3.57,5.12-5.25l0.26,0.21c-1.27,2.1-2.66,4.11-4.07,6.1c-1.42,1.98-2.89,3.92-4.39,5.84
		c-1.51,1.91-3.02,3.81-4.66,5.62c-1.64,1.81-3.34,3.56-5.25,5.14L42.86,65.02z"/>
	<path class="st10" d="M47.87,62.46c-0.05-2.95,0.55-5.91,1.53-8.72c0.99-2.81,2.4-5.47,4.13-7.89c0.41-0.62,0.87-1.2,1.33-1.79
		c0.45-0.59,0.95-1.14,1.45-1.69c0.25-0.27,0.49-0.56,0.75-0.82c0.26-0.26,0.53-0.52,0.79-0.78l0.8-0.78l0.84-0.73
		c2.24-1.94,4.68-3.62,7.3-4.95l0.18,0.29c-2.33,1.75-4.54,3.6-6.56,5.64l-0.76,0.76l-0.72,0.8c-0.24,0.27-0.48,0.53-0.72,0.79
		c-0.24,0.26-0.46,0.55-0.69,0.82c-0.46,0.55-0.92,1.09-1.33,1.68c-0.42,0.57-0.87,1.13-1.25,1.73c-1.6,2.36-2.96,4.86-4.09,7.48
		c-1.14,2.62-1.98,5.36-2.62,8.2L47.87,62.46z"/>
	<path class="st0" d="M48.48,61c0.14-2.45,0.46-4.86,0.81-7.27c0.36-2.41,0.78-4.8,1.27-7.19l0.35-1.79l0.37-1.79
		c0.24-1.19,0.51-2.38,0.78-3.57c0.55-2.37,1.12-4.74,1.8-7.09l0.33,0.06c-0.22,2.43-0.54,4.85-0.89,7.26
		c-0.18,1.2-0.36,2.41-0.56,3.61l-0.3,1.8l-0.32,1.8c-0.41,2.4-0.89,4.78-1.42,7.16c-0.55,2.37-1.12,4.74-1.88,7.07L48.48,61z"/>
	<path class="st11" d="M48.48,61.04c-0.55-1.18-0.86-2.38-1.1-3.59c-0.23-1.2-0.35-2.42-0.41-3.63c-0.15-2.43-0.26-4.86-0.35-7.29
		c-0.08-2.43-0.14-4.87-0.13-7.31c-0.01-2.44,0.03-4.88,0.16-7.32l0.34-0.02c0.44,2.41,0.78,4.83,1.08,7.25
		c0.31,2.42,0.56,4.84,0.78,7.26c0.22,2.42,0.41,4.85,0.56,7.28c0.09,1.21,0.13,2.43,0.04,3.65c-0.08,1.22-0.24,2.45-0.64,3.7
		L48.48,61.04z"/>
	<path class="st0" d="M54.21,58.59c1.27,3-0.13,6.47-3.14,7.74c-3,1.27-6.47-0.13-7.74-3.14c-1.27-3,0.13-6.47,3.14-7.74
		C49.47,54.18,52.94,55.58,54.21,58.59"/>
	<path class="st0" d="M45.39,50.12c-0.84-0.96-1.52-1.98-2.18-3.03c-0.67-1.04-1.26-2.11-1.81-3.21c-0.55-1.09-1.02-2.22-1.48-3.34
		c-0.47-1.12-0.91-2.26-1.34-3.39c-0.85-2.27-1.61-4.57-2.25-6.9c-0.61-2.33-1.1-4.7-1.28-7.14l0.58-0.16
		c1.52,2.06,2.73,4.2,3.82,6.37c1.06,2.17,2,4.38,2.85,6.61c0.42,1.12,0.83,2.24,1.21,3.36c0.39,1.13,0.77,2.26,1.07,3.41
		c0.31,1.16,0.56,2.34,0.74,3.54c0.19,1.21,0.36,2.43,0.37,3.73L45.39,50.12z"/>
	<path class="st0" d="M44.73,48.54c-1.72-1.75-3.29-3.62-4.82-5.51c-1.54-1.89-2.98-3.84-4.44-5.79c-1.45-1.95-2.87-3.93-4.28-5.91
		c-1.39-2-2.78-4-4.09-6.06l0.27-0.21c1.63,1.82,3.18,3.7,4.73,5.58c1.53,1.89,3.04,3.8,4.53,5.72c1.48,1.93,2.97,3.85,4.37,5.85
		c1.4,1.99,2.77,4,3.99,6.13L44.73,48.54z"/>
	<path class="st0" d="M44.76,48.57c-2.22-1.12-4.26-2.47-6.25-3.88c-1.99-1.41-3.88-2.93-5.76-4.48c-1.88-1.55-3.72-3.14-5.53-4.77
		c-1.8-1.65-3.58-3.32-5.25-5.12l0.21-0.27c2.12,1.24,4.14,2.61,6.14,4c1.99,1.4,3.95,2.86,5.87,4.35c1.92,1.5,3.83,3.01,5.63,4.64
		c1.81,1.63,3.57,3.33,5.15,5.25L44.76,48.57z"/>
	<path class="st1" d="M46.1,49.51c-2.34-1.76-4.78-3.27-7.37-4.49c-0.32-0.15-0.64-0.32-0.97-0.46c-0.33-0.13-0.66-0.27-0.99-0.41
		c-0.33-0.13-0.65-0.29-0.99-0.41l-1.01-0.36c-0.67-0.26-1.35-0.46-2.04-0.67c-0.68-0.23-1.38-0.38-2.07-0.55
		c-2.78-0.66-5.64-1.03-8.52-1.13c-2.88-0.11-5.78,0.07-8.67,0.43l-0.07-0.33c2.84-0.78,5.78-1.2,8.74-1.29
		c2.96-0.08,5.95,0.19,8.86,0.83c0.72,0.17,1.46,0.32,2.17,0.55c0.71,0.22,1.44,0.4,2.13,0.68l1.05,0.4
		c0.35,0.13,0.68,0.3,1.03,0.44c0.34,0.15,0.68,0.3,1.02,0.47c0.34,0.16,0.66,0.35,0.99,0.53c2.62,1.43,5.04,3.26,6.95,5.53
		L46.1,49.51z"/>
	<path class="st0" d="M44.83,48.6c-2.46-0.07-4.88-0.36-7.3-0.68c-2.41-0.33-4.81-0.75-7.2-1.21c-1.2-0.23-2.39-0.47-3.58-0.72
		c-1.19-0.24-2.38-0.51-3.57-0.78c-2.37-0.55-4.74-1.13-7.09-1.83l0.06-0.33c2.44,0.17,4.86,0.46,7.28,0.78
		c1.21,0.17,2.41,0.33,3.61,0.53c1.2,0.19,2.4,0.38,3.6,0.58c2.4,0.41,4.79,0.86,7.16,1.4c2.37,0.55,4.74,1.14,7.07,1.93L44.83,48.6
		z"/>
	<path class="st2" d="M50.82,47.85c-2.46-0.07-4.88-0.36-7.3-0.68c-2.41-0.33-4.81-0.75-7.2-1.21c-1.2-0.23-2.39-0.47-3.58-0.72
		c-1.19-0.24-2.38-0.51-3.57-0.78c-2.37-0.55-4.74-1.13-7.09-1.83l0.06-0.33c2.44,0.17,4.86,0.46,7.28,0.78
		c1.21,0.17,2.41,0.33,3.61,0.53c1.2,0.19,2.41,0.37,3.6,0.58c2.4,0.41,4.79,0.86,7.16,1.4c2.37,0.55,4.74,1.14,7.07,1.93
		L50.82,47.85z"/>
	<path class="st3" d="M47.53,49.91c-2.63-0.71-5.39-0.9-8.09-0.75l-1.01,0.07c-0.17,0.02-0.34,0.02-0.5,0.04
		c-0.17,0.02-0.34,0.04-0.5,0.13c-0.34,0.18-0.67,0.56-1,0.63c-0.16,0.05-0.33,0.01-0.49,0.02l-0.49,0c-0.66,0-1.32-0.02-1.97,0.02
		c-0.66,0.02-1.32,0.03-1.98,0.1c-0.66,0.04-1.32,0.08-1.98,0.17c-0.66,0.08-1.32,0.14-1.98,0.26c-0.66,0.11-1.32,0.18-1.98,0.33
		c-0.65,0.13-1.32,0.24-1.97,0.41c-2.62,0.58-5.22,1.38-7.81,2.31l-0.16-0.3c2.27-1.6,4.75-2.91,7.35-3.97
		c0.64-0.29,1.31-0.49,1.98-0.73c0.66-0.25,1.34-0.44,2.02-0.64c0.68-0.21,1.37-0.36,2.05-0.52c0.69-0.17,1.39-0.3,2.08-0.43
		c0.7-0.14,1.4-0.22,2.11-0.31c0.71-0.1,1.42-0.14,2.13-0.2l0.53-0.04c0.18-0.01,0.36-0.04,0.53,0.01c0.36,0.08,0.71,0.47,1.06,0.65
		c0.17,0.1,0.35,0.13,0.52,0.15c0.17,0.02,0.35,0.06,0.52,0.09l1.04,0.19c2.76,0.52,5.43,1.23,8.08,1.97L47.53,49.91z"/>
	<path class="st0" d="M44.92,48.6c-2.24,0.98-4.51,1.85-6.8,2.68c-1.14,0.43-2.29,0.81-3.44,1.22l-3.46,1.16
		c-2.32,0.74-4.64,1.48-6.98,2.15c-2.34,0.68-4.69,1.32-7.07,1.86l-0.11-0.32c2.24-0.97,4.52-1.84,6.81-2.67
		c2.29-0.84,4.59-1.62,6.9-2.39l3.48-1.11c1.17-0.35,2.33-0.72,3.5-1.05c2.34-0.68,4.69-1.32,7.07-1.85L44.92,48.6z"/>
	<path class="st0" d="M44.95,48.58c-1.84,1.65-3.77,3.14-5.74,4.58c-1.97,1.44-3.98,2.8-6.03,4.12c-2.05,1.32-4.13,2.58-6.27,3.74
		c-2.15,1.16-4.33,2.26-6.64,3.15l-0.18-0.29c1.8-1.71,3.73-3.21,5.7-4.65c1.97-1.43,4-2.77,6.07-4.06
		c2.07-1.28,4.17-2.52,6.31-3.68c2.15-1.16,4.32-2.27,6.6-3.22L44.95,48.58z"/>
	<path class="st0" d="M44.99,48.55c-1.5,1.93-3.09,3.78-4.7,5.6c-1.61,1.83-3.26,3.61-4.93,5.39c-0.83,0.89-1.69,1.76-2.53,2.63
		c-0.86,0.86-1.71,1.73-2.58,2.58c-1.74,1.71-3.51,3.38-5.37,4.97l-0.25-0.23c1.49-1.94,3.07-3.8,4.68-5.62
		c0.8-0.92,1.63-1.81,2.45-2.71c0.83-0.89,1.65-1.78,2.5-2.66c1.68-1.76,3.38-3.5,5.13-5.2c1.74-1.7,3.5-3.38,5.35-4.99L44.99,48.55
		z"/>
	<path class="st4" d="M50.93,47.2c-2.34,1.73-4.57,3.51-6.66,5.44c-2.07,1.94-4,4.02-5.73,6.25c-1.73,2.23-3.25,4.61-4.57,7.11
		c-1.3,2.51-2.37,5.15-3.25,7.92l-0.34-0.06c0.17-2.93,0.92-5.83,2.05-8.57c1.12-2.74,2.65-5.32,4.48-7.66
		c1.82-2.34,3.94-4.45,6.27-6.26c2.33-1.81,4.87-3.34,7.57-4.47L50.93,47.2z"/>
	<path class="st5" d="M45.03,48.48c-0.37,2.41-0.86,4.8-1.42,7.18c-0.27,1.19-0.58,2.37-0.89,3.56c-0.32,1.18-0.66,2.36-1,3.53
		c-0.71,2.35-1.46,4.69-2.31,7.01c-0.84,2.32-1.76,4.63-2.82,6.9c-0.13-0.03-0.27-0.07-0.4-0.1c0.63-2.38,1.34-4.73,2.05-7.09
		c0.7-2.36,1.43-4.7,2.14-7.05c0.36-1.17,0.72-2.34,1.07-3.52c0.37-1.17,0.71-2.34,1.07-3.51c0.71-2.34,1.42-4.68,2.17-7
		C44.81,48.43,44.92,48.45,45.03,48.48"/>
	<path class="st0" d="M44.62,41.53c-0.37,2.41-0.86,4.8-1.42,7.18c-0.27,1.19-0.58,2.37-0.89,3.56c-0.32,1.18-0.66,2.36-1,3.54
		c-0.71,2.35-1.46,4.69-2.31,7.01c-0.84,2.32-1.76,4.63-2.82,6.9c-0.13-0.03-0.27-0.07-0.4-0.1c0.63-2.38,1.34-4.73,2.05-7.09
		c0.7-2.36,1.43-4.7,2.14-7.05c0.36-1.17,0.72-2.34,1.07-3.52c0.37-1.17,0.71-2.34,1.07-3.51c0.71-2.34,1.42-4.68,2.17-7
		C44.4,41.48,44.51,41.51,44.62,41.53"/>
	<path class="st0" d="M45.03,48.44c0.28,2.44,0.4,4.87,0.46,7.31c0.06,2.43,0.07,4.87,0.01,7.3c-0.02,1.22-0.06,2.43-0.11,3.65
		c-0.05,1.22-0.1,2.43-0.18,3.65c-0.15,2.43-0.34,4.86-0.66,7.29l-0.34,0c-0.24-2.44-0.35-4.87-0.42-7.31
		c-0.04-1.22-0.05-2.43-0.06-3.65c-0.02-1.22-0.01-2.43,0.01-3.65c0.02-2.43,0.11-4.86,0.25-7.3c0.14-2.43,0.34-4.86,0.7-7.29
		L45.03,48.44z"/>
	<path class="st0" d="M45.73,28.33c0.28,2.44,0.4,4.87,0.46,7.31c0.06,2.43,0.07,4.87,0.01,7.3c-0.02,1.22-0.06,2.43-0.11,3.65
		c-0.05,1.22-0.1,2.43-0.18,3.65c-0.15,2.43-0.34,4.86-0.66,7.29l-0.34,0c-0.24-2.44-0.35-4.87-0.42-7.31
		c-0.04-1.22-0.05-2.43-0.06-3.65c-0.02-1.22-0.01-2.43,0.01-3.65c0.02-2.43,0.11-4.86,0.25-7.3c0.14-2.43,0.35-4.86,0.7-7.29
		L45.73,28.33z"/>
	<path class="st6" d="M44.98,47.09c0.56,1.13,1.01,2.28,1.42,3.43c0.41,1.16,0.78,2.33,1.11,3.5c0.34,1.17,0.62,2.36,0.92,3.55
		c0.3,1.19,0.6,2.37,0.89,3.56c0.6,2.37,1.17,4.76,1.73,7.14c0.55,2.39,1.09,4.78,1.51,7.21c-0.14,0.03-0.27,0.06-0.41,0.09
		c-1.12-2.27-2.06-4.58-2.9-6.91c-0.84-2.33-1.6-4.68-2.26-7.04c-0.34-1.18-0.65-2.37-0.94-3.55c-0.29-1.19-0.59-2.38-0.81-3.58
		c-0.23-1.2-0.4-2.41-0.51-3.63c-0.11-1.22-0.16-2.45-0.09-3.71C44.76,47.14,44.87,47.11,44.98,47.09"/>
	<path class="st1" d="M45.01,48.36c0.83,0.94,1.54,1.94,2.23,2.96c0.68,1.02,1.31,2.06,1.91,3.12c0.6,1.06,1.15,2.15,1.71,3.23
		c0.55,1.08,1.1,2.17,1.64,3.26c1.08,2.18,2.12,4.38,3.13,6.6c1,2.22,1.97,4.46,2.85,6.74l-0.3,0.16c-1.37-2.03-2.64-4.11-3.88-6.21
		c-1.23-2.1-2.44-4.22-3.6-6.35c-0.59-1.07-1.16-2.14-1.73-3.22c-0.57-1.08-1.14-2.15-1.66-3.25c-0.52-1.1-1.01-2.22-1.46-3.36
		c-0.44-1.14-0.84-2.3-1.14-3.52L45.01,48.36z"/>
	<path class="st0" d="M44.99,48.33c1.79,1.68,3.47,3.45,5.13,5.26c1.66,1.81,3.28,3.66,4.94,5.48c0.82,0.92,1.65,1.84,2.49,2.75
		c0.83,0.92,1.66,1.84,2.5,2.76c1.67,1.84,3.36,3.68,5.02,5.55c-0.09,0.08-0.18,0.16-0.27,0.23c-1.91-1.65-3.74-3.37-5.53-5.11
		c-0.89-0.87-1.77-1.75-2.65-2.64c-0.86-0.89-1.72-1.79-2.57-2.69c-1.68-1.81-3.35-3.63-4.93-5.5c-1.57-1.88-3.07-3.82-4.4-5.88
		C44.82,48.48,44.9,48.4,44.99,48.33"/>
	<path class="st7" d="M44.96,48.3c0.64,0.16,1.24,0.36,1.83,0.58c0.59,0.22,1.17,0.46,1.73,0.72c1.13,0.51,2.22,1.08,3.29,1.69
		c2.13,1.23,4.12,2.65,6.14,4.07c2.01,1.42,4,2.89,5.96,4.43c1.95,1.55,3.89,3.12,5.72,4.89c-0.06,0.1-0.13,0.19-0.19,0.29
		c-2.46-0.83-4.75-1.89-7-3.01c-2.24-1.13-4.41-2.36-6.52-3.67c-2.1-1.32-4.17-2.66-6.07-4.23c-0.95-0.79-1.86-1.62-2.72-2.52
		c-0.43-0.45-0.85-0.92-1.24-1.41c-0.4-0.49-0.78-1-1.13-1.56C44.83,48.48,44.89,48.39,44.96,48.3"/>
	<path class="st0" d="M39.08,51.98c0.69-0.26,1.39-0.5,2.09-0.73c0.71-0.22,1.43-0.38,2.15-0.56c0.72-0.19,1.45-0.29,2.19-0.41
		c0.37-0.06,0.73-0.12,1.1-0.16l1.11-0.1c2.97-0.25,5.97-0.06,8.91,0.47c2.93,0.54,5.81,1.45,8.49,2.74
		c2.68,1.3,5.19,2.96,7.29,5.03l-0.21,0.26c-2.43-1.6-4.99-2.92-7.66-3.93c-2.66-1.02-5.43-1.75-8.23-2.2
		c-2.81-0.46-5.65-0.62-8.5-0.61l-1.07,0c-0.36,0-0.71,0.03-1.07,0.04c-0.71,0.04-1.44,0.03-2.15,0.11
		c-0.71,0.08-1.44,0.08-2.16,0.17c-0.72,0.08-1.44,0.15-2.18,0.2L39.08,51.98z"/>
	<path class="st8" d="M44.88,48.27c1.23-0.07,2.45-0.06,3.67-0.05c1.22,0.03,2.44,0.05,3.65,0.12c2.43,0.13,4.86,0.34,7.28,0.6
		c2.42,0.26,4.83,0.56,7.24,0.93c2.41,0.37,4.81,0.78,7.2,1.33l-0.03,0.34c-2.45,0.06-4.89-0.02-7.32-0.14
		c-2.43-0.11-4.86-0.31-7.28-0.53c-2.42-0.23-4.84-0.51-7.25-0.87c-1.2-0.17-2.41-0.39-3.61-0.61c-1.2-0.23-2.4-0.47-3.59-0.79
		L44.88,48.27z"/>
	<path class="st0" d="M40.98,48.87c1.1-0.56,2.22-1.04,3.34-1.52c1.13-0.47,2.26-0.93,3.4-1.35c2.28-0.86,4.58-1.64,6.91-2.37
		c2.32-0.73,4.65-1.43,7.01-2.05c2.35-0.63,4.72-1.22,7.13-1.67l0.1,0.32c-2.22,1.04-4.49,1.94-6.76,2.81
		c-2.28,0.87-4.58,1.67-6.88,2.43c-2.31,0.76-4.64,1.48-6.99,2.11c-1.17,0.32-2.36,0.61-3.55,0.89c-1.19,0.27-2.39,0.53-3.6,0.72
		L40.98,48.87z"/>
	<path class="st0" d="M44.7,48.27c2.42-0.47,4.84-0.86,7.26-1.25c2.42-0.37,4.84-0.74,7.26-1.08c2.42-0.35,4.83-0.7,7.25-1.02
		c2.42-0.33,4.83-0.66,7.26-0.93c0.02,0.11,0.04,0.22,0.06,0.33c-2.37,0.59-4.76,1.09-7.16,1.55c-2.4,0.46-4.81,0.86-7.23,1.23
		c-2.42,0.37-4.85,0.68-7.29,0.94c-2.44,0.26-4.89,0.46-7.36,0.55C44.73,48.49,44.72,48.38,44.7,48.27"/>
	<path class="st0" d="M44.7,48.34c1.75-1.79,3.7-3.39,5.79-4.78c2.1-1.39,4.33-2.57,6.66-3.52l1.76-0.68l1.79-0.59l1.81-0.51
		l1.84-0.42c2.46-0.51,4.96-0.78,7.46-0.79l0.02,0.34c-2.47,0.24-4.91,0.64-7.3,1.23l-1.78,0.48l-1.76,0.54l-1.74,0.62l-1.71,0.68
		c-2.26,0.96-4.46,2.09-6.55,3.38c-2.1,1.29-4.11,2.72-6.04,4.29L44.7,48.34z"/>
	<path class="st9" d="M44.76,48.3c1.83-1.61,3.72-3.15,5.62-4.68c0.95-0.76,1.91-1.51,2.87-2.26c0.96-0.75,1.93-1.48,2.9-2.22
		c1.94-1.47,3.9-2.9,5.89-4.31c2-1.39,4.01-2.76,6.1-4.03l0.2,0.27c-1.81,1.65-3.69,3.19-5.59,4.71c-1.91,1.51-3.84,2.99-5.8,4.44
		c-0.98,0.72-1.96,1.45-2.95,2.16c-0.98,0.72-1.98,1.42-2.97,2.12c-2,1.39-4.01,2.77-6.07,4.07L44.76,48.3z"/>
	<path class="st0" d="M44.32,50.21c1.15-2.2,2.51-4.23,3.93-6.21c1.42-1.98,2.97-3.86,4.52-5.73c1.56-1.87,3.16-3.71,4.8-5.51
		c1.65-1.79,3.33-3.57,5.12-5.25l0.26,0.21c-1.27,2.1-2.66,4.11-4.07,6.1c-1.42,1.98-2.89,3.92-4.39,5.84
		c-1.51,1.91-3.02,3.81-4.66,5.62c-1.64,1.81-3.34,3.56-5.25,5.14L44.32,50.21z"/>
	<path class="st0" d="M39.07,52.43c1.15-2.2,2.51-4.23,3.93-6.21c1.42-1.98,2.97-3.86,4.52-5.73c1.56-1.87,3.16-3.71,4.8-5.51
		c1.65-1.79,3.33-3.57,5.12-5.25l0.26,0.21c-1.27,2.1-2.66,4.11-4.07,6.1c-1.42,1.98-2.89,3.92-4.39,5.84
		c-1.51,1.91-3.02,3.81-4.66,5.62c-1.64,1.81-3.34,3.56-5.25,5.14L39.07,52.43z"/>
	<path class="st10" d="M44.08,49.86c-0.04-2.95,0.55-5.91,1.53-8.72c0.99-2.81,2.4-5.47,4.13-7.89c0.41-0.62,0.87-1.2,1.33-1.79
		c0.45-0.59,0.95-1.14,1.45-1.69c0.25-0.28,0.49-0.56,0.75-0.82c0.26-0.26,0.53-0.52,0.79-0.78l0.8-0.77l0.84-0.73
		c2.24-1.94,4.68-3.62,7.3-4.95L63.16,22c-2.33,1.75-4.54,3.6-6.56,5.64l-0.76,0.76l-0.72,0.8c-0.24,0.27-0.48,0.53-0.72,0.79
		c-0.24,0.27-0.46,0.55-0.69,0.82c-0.46,0.55-0.92,1.1-1.33,1.68c-0.42,0.57-0.87,1.13-1.25,1.73c-1.6,2.36-2.96,4.86-4.09,7.48
		c-1.13,2.62-1.98,5.35-2.62,8.2L44.08,49.86z"/>
	<path class="st0" d="M44.7,48.4c0.14-2.45,0.46-4.86,0.81-7.28c0.36-2.41,0.78-4.8,1.27-7.19l0.35-1.79l0.38-1.79
		c0.24-1.19,0.51-2.38,0.78-3.57c0.55-2.37,1.12-4.74,1.8-7.09l0.33,0.06c-0.22,2.43-0.54,4.85-0.89,7.26
		c-0.18,1.2-0.36,2.41-0.56,3.61l-0.3,1.8l-0.32,1.8c-0.41,2.4-0.89,4.78-1.42,7.16c-0.55,2.37-1.12,4.74-1.88,7.07L44.7,48.4z"/>
	<path class="st11" d="M44.69,48.45c-0.55-1.18-0.86-2.38-1.1-3.59c-0.23-1.2-0.35-2.42-0.41-3.63c-0.15-2.43-0.26-4.86-0.35-7.29
		c-0.08-2.43-0.14-4.87-0.13-7.31c-0.01-2.44,0.03-4.88,0.17-7.32l0.34-0.02c0.44,2.41,0.78,4.83,1.08,7.25
		c0.31,2.42,0.56,4.84,0.78,7.26c0.22,2.42,0.41,4.85,0.56,7.28c0.09,1.21,0.13,2.43,0.04,3.65c-0.09,1.22-0.24,2.45-0.64,3.7
		L44.69,48.45z"/>
	<path class="st0" d="M50.42,45.99c1.27,3-0.13,6.47-3.14,7.74c-3,1.27-6.47-0.13-7.74-3.14c-1.27-3,0.13-6.47,3.14-7.74
		C45.68,41.58,49.15,42.99,50.42,45.99"/>
	<path class="st0" d="M62.39,62.33c-0.84-0.96-1.52-1.98-2.18-3.03c-0.66-1.04-1.26-2.11-1.81-3.21c-0.55-1.09-1.02-2.21-1.48-3.34
		c-0.47-1.12-0.91-2.25-1.34-3.39c-0.85-2.27-1.61-4.57-2.25-6.9c-0.61-2.33-1.1-4.7-1.28-7.14l0.58-0.16
		c1.52,2.06,2.73,4.2,3.82,6.37c1.06,2.17,2,4.38,2.85,6.61c0.42,1.12,0.83,2.24,1.21,3.36c0.39,1.13,0.77,2.26,1.07,3.41
		c0.31,1.16,0.56,2.34,0.74,3.54c0.19,1.21,0.36,2.43,0.37,3.73L62.39,62.33z"/>
	<path class="st0" d="M61.73,60.75c-1.72-1.75-3.29-3.62-4.82-5.51c-1.54-1.89-2.98-3.84-4.44-5.79c-1.45-1.95-2.87-3.93-4.28-5.92
		c-1.39-2-2.78-4-4.09-6.06l0.27-0.21c1.63,1.82,3.18,3.69,4.73,5.58c1.53,1.89,3.04,3.8,4.53,5.72c1.48,1.93,2.97,3.85,4.37,5.85
		c1.4,1.99,2.77,4.01,3.99,6.13L61.73,60.75z"/>
	<path class="st0" d="M61.76,60.78c-2.22-1.12-4.26-2.47-6.25-3.88c-1.99-1.41-3.88-2.93-5.76-4.48c-1.88-1.55-3.72-3.14-5.53-4.77
		c-1.8-1.65-3.58-3.32-5.25-5.12l0.21-0.27c2.12,1.24,4.14,2.61,6.14,4c1.99,1.4,3.95,2.86,5.87,4.35c1.92,1.5,3.83,3.01,5.63,4.64
		c1.81,1.63,3.57,3.33,5.15,5.25L61.76,60.78z"/>
	<path class="st1" d="M63.11,61.72c-2.34-1.76-4.78-3.27-7.37-4.49c-0.32-0.15-0.64-0.32-0.97-0.46c-0.33-0.13-0.66-0.27-0.99-0.41
		c-0.33-0.13-0.65-0.29-0.99-0.41l-1.01-0.36c-0.67-0.26-1.35-0.46-2.04-0.67c-0.68-0.23-1.38-0.38-2.07-0.55
		c-2.78-0.66-5.64-1.03-8.52-1.13c-2.88-0.11-5.78,0.07-8.67,0.43l-0.07-0.33c2.84-0.78,5.78-1.2,8.74-1.29
		c2.96-0.08,5.95,0.19,8.86,0.83c0.72,0.17,1.46,0.32,2.17,0.55c0.71,0.22,1.44,0.4,2.13,0.68l1.05,0.4
		c0.35,0.12,0.68,0.3,1.03,0.44c0.34,0.15,0.68,0.3,1.02,0.47c0.34,0.16,0.66,0.35,0.99,0.53c2.62,1.43,5.04,3.26,6.95,5.53
		L63.11,61.72z"/>
	<path class="st0" d="M61.84,60.81c-2.46-0.07-4.88-0.36-7.3-0.68c-2.41-0.33-4.81-0.75-7.2-1.21c-1.2-0.23-2.39-0.47-3.58-0.72
		c-1.19-0.24-2.38-0.51-3.57-0.78c-2.37-0.55-4.74-1.13-7.09-1.83l0.06-0.34c2.44,0.17,4.86,0.46,7.28,0.78
		c1.21,0.17,2.41,0.33,3.61,0.53c1.2,0.19,2.4,0.38,3.6,0.58c2.4,0.41,4.79,0.86,7.16,1.4c2.37,0.55,4.74,1.14,7.07,1.93
		L61.84,60.81z"/>
	<path class="st2" d="M67.82,60.06c-2.46-0.07-4.88-0.36-7.3-0.68c-2.41-0.33-4.81-0.75-7.2-1.21c-1.2-0.23-2.39-0.47-3.58-0.72
		c-1.19-0.24-2.38-0.51-3.57-0.78c-2.37-0.55-4.74-1.13-7.09-1.83l0.06-0.33c2.44,0.17,4.86,0.46,7.28,0.78
		c1.21,0.17,2.41,0.33,3.61,0.53c1.2,0.19,2.4,0.38,3.6,0.58c2.4,0.41,4.79,0.86,7.16,1.4c2.37,0.55,4.74,1.14,7.07,1.93
		L67.82,60.06z"/>
	<path class="st3" d="M64.53,62.12c-2.64-0.71-5.39-0.9-8.09-0.75l-1.01,0.07c-0.17,0.02-0.34,0.02-0.5,0.04
		c-0.17,0.02-0.34,0.04-0.5,0.13c-0.34,0.18-0.67,0.56-1,0.63c-0.16,0.05-0.33,0.01-0.49,0.02l-0.49,0c-0.66,0-1.32-0.02-1.97,0.02
		c-0.66,0.02-1.32,0.03-1.98,0.1c-0.66,0.04-1.32,0.08-1.98,0.17c-0.66,0.08-1.32,0.14-1.98,0.26c-0.66,0.1-1.32,0.18-1.98,0.33
		c-0.65,0.13-1.32,0.24-1.97,0.41c-2.62,0.58-5.22,1.38-7.81,2.31l-0.16-0.3c2.27-1.6,4.75-2.91,7.35-3.97
		c0.64-0.29,1.31-0.49,1.98-0.73c0.66-0.25,1.34-0.44,2.02-0.64c0.68-0.21,1.37-0.36,2.05-0.52c0.69-0.17,1.39-0.3,2.08-0.43
		c0.7-0.14,1.4-0.22,2.11-0.31c0.7-0.1,1.42-0.14,2.13-0.2l0.53-0.04c0.18-0.01,0.36-0.04,0.53,0.01c0.36,0.08,0.71,0.47,1.06,0.66
		c0.17,0.1,0.35,0.12,0.52,0.14c0.17,0.02,0.35,0.06,0.52,0.09l1.04,0.19c2.76,0.52,5.43,1.23,8.08,1.97L64.53,62.12z"/>
	<path class="st0" d="M61.92,60.81c-2.24,0.98-4.51,1.85-6.8,2.68c-1.14,0.43-2.29,0.81-3.44,1.22l-3.46,1.16
		c-2.32,0.75-4.64,1.48-6.98,2.15c-2.34,0.68-4.69,1.32-7.07,1.86l-0.11-0.32c2.24-0.97,4.52-1.84,6.81-2.67
		c2.29-0.84,4.59-1.62,6.9-2.39l3.48-1.11c1.17-0.35,2.33-0.72,3.5-1.05c2.34-0.68,4.69-1.32,7.07-1.85L61.92,60.81z"/>
	<path class="st0" d="M61.96,60.79c-1.84,1.65-3.77,3.14-5.74,4.58c-1.97,1.44-3.99,2.8-6.03,4.12c-2.05,1.32-4.13,2.58-6.27,3.74
		c-2.14,1.16-4.33,2.26-6.64,3.15l-0.18-0.29c1.8-1.71,3.73-3.21,5.7-4.65c1.97-1.43,4-2.77,6.07-4.06
		c2.07-1.28,4.17-2.52,6.31-3.68c2.15-1.16,4.32-2.27,6.6-3.22L61.96,60.79z"/>
	<path class="st0" d="M61.99,60.76c-1.5,1.93-3.09,3.78-4.7,5.6c-1.61,1.83-3.26,3.62-4.93,5.39c-0.83,0.89-1.69,1.76-2.53,2.63
		c-0.86,0.86-1.71,1.73-2.58,2.58c-1.74,1.71-3.51,3.38-5.37,4.97l-0.25-0.23c1.49-1.94,3.07-3.8,4.68-5.62
		c0.8-0.91,1.63-1.81,2.44-2.71c0.83-0.88,1.65-1.78,2.5-2.66c1.68-1.76,3.38-3.5,5.13-5.2c1.74-1.7,3.5-3.38,5.35-4.99L61.99,60.76
		z"/>
	<path class="st4" d="M67.94,59.41c-2.34,1.73-4.57,3.51-6.66,5.44c-2.07,1.94-4,4.02-5.73,6.25c-1.73,2.23-3.25,4.61-4.57,7.12
		c-1.3,2.51-2.37,5.15-3.25,7.92l-0.34-0.06c0.17-2.93,0.92-5.83,2.05-8.57c1.12-2.74,2.65-5.32,4.48-7.66
		c1.82-2.34,3.94-4.45,6.27-6.26c2.33-1.81,4.87-3.34,7.57-4.47L67.94,59.41z"/>
	<path class="st5" d="M62.03,60.69c-0.37,2.41-0.86,4.8-1.42,7.18c-0.27,1.19-0.58,2.37-0.89,3.56c-0.32,1.18-0.66,2.36-1,3.54
		c-0.71,2.35-1.46,4.69-2.31,7.01c-0.84,2.32-1.76,4.63-2.82,6.9c-0.13-0.03-0.27-0.07-0.4-0.1c0.63-2.38,1.34-4.74,2.05-7.09
		c0.7-2.36,1.43-4.7,2.14-7.05c0.36-1.17,0.72-2.34,1.07-3.52c0.37-1.17,0.71-2.34,1.07-3.51c0.71-2.34,1.42-4.68,2.17-7
		C61.81,60.64,61.92,60.66,62.03,60.69"/>
	<path class="st0" d="M61.62,53.74c-0.37,2.41-0.86,4.8-1.42,7.18c-0.27,1.19-0.58,2.37-0.89,3.56c-0.32,1.18-0.66,2.36-1,3.54
		c-0.71,2.35-1.46,4.69-2.31,7.01c-0.84,2.32-1.76,4.63-2.82,6.9c-0.13-0.03-0.27-0.07-0.4-0.1c0.63-2.38,1.34-4.73,2.05-7.09
		c0.7-2.36,1.43-4.7,2.14-7.05c0.36-1.17,0.72-2.34,1.07-3.52c0.37-1.17,0.71-2.34,1.07-3.51c0.71-2.34,1.42-4.68,2.17-7
		C61.4,53.69,61.51,53.72,61.62,53.74"/>
	<path class="st0" d="M62.04,60.65c0.28,2.44,0.4,4.87,0.46,7.31c0.06,2.43,0.07,4.87,0.01,7.3c-0.02,1.22-0.06,2.43-0.11,3.65
		c-0.05,1.22-0.1,2.43-0.18,3.65c-0.15,2.43-0.34,4.86-0.66,7.29l-0.34,0c-0.24-2.44-0.35-4.87-0.42-7.31
		c-0.04-1.22-0.05-2.43-0.06-3.65c-0.02-1.22-0.01-2.43,0.01-3.65c0.02-2.43,0.11-4.86,0.25-7.3c0.14-2.43,0.35-4.86,0.7-7.29
		L62.04,60.65z"/>
	<path class="st0" d="M62.74,40.54c0.28,2.44,0.4,4.87,0.46,7.31c0.06,2.43,0.07,4.87,0.01,7.3c-0.02,1.22-0.06,2.43-0.11,3.65
		c-0.05,1.22-0.1,2.43-0.18,3.65c-0.15,2.43-0.34,4.86-0.66,7.29l-0.34,0c-0.24-2.44-0.35-4.87-0.42-7.31
		c-0.04-1.22-0.05-2.43-0.06-3.65c-0.02-1.22-0.01-2.43,0.01-3.65c0.02-2.43,0.11-4.86,0.25-7.3c0.14-2.43,0.35-4.86,0.7-7.29
		L62.74,40.54z"/>
	<path class="st6" d="M61.98,59.3c0.56,1.13,1.01,2.28,1.42,3.43c0.41,1.16,0.78,2.33,1.11,3.5c0.34,1.17,0.62,2.36,0.92,3.55
		c0.3,1.19,0.6,2.37,0.89,3.56c0.6,2.37,1.17,4.76,1.73,7.14c0.55,2.39,1.09,4.78,1.51,7.21c-0.14,0.03-0.28,0.06-0.41,0.09
		c-1.12-2.27-2.06-4.58-2.9-6.91c-0.84-2.33-1.6-4.68-2.26-7.04c-0.34-1.18-0.65-2.37-0.94-3.55c-0.29-1.19-0.59-2.38-0.81-3.58
		c-0.23-1.2-0.4-2.41-0.51-3.63c-0.11-1.22-0.16-2.45-0.09-3.71C61.76,59.35,61.87,59.32,61.98,59.3"/>
	<path class="st1" d="M62.02,60.57c0.83,0.94,1.54,1.94,2.23,2.96c0.68,1.02,1.31,2.06,1.91,3.12c0.6,1.06,1.15,2.15,1.71,3.23
		c0.55,1.08,1.1,2.17,1.64,3.26c1.08,2.18,2.12,4.38,3.13,6.6c1,2.22,1.97,4.46,2.85,6.74l-0.3,0.16c-1.37-2.03-2.64-4.11-3.88-6.21
		c-1.23-2.1-2.44-4.21-3.6-6.35c-0.59-1.07-1.16-2.14-1.73-3.22c-0.56-1.08-1.14-2.15-1.66-3.25c-0.52-1.1-1.01-2.22-1.46-3.36
		c-0.44-1.14-0.84-2.3-1.14-3.52L62.02,60.57z"/>
	<path class="st0" d="M61.99,60.54c1.79,1.68,3.47,3.45,5.13,5.26c1.66,1.81,3.28,3.66,4.94,5.48c0.82,0.92,1.65,1.84,2.49,2.75
		c0.83,0.92,1.66,1.84,2.5,2.76c1.67,1.84,3.36,3.68,5.02,5.56c-0.09,0.08-0.18,0.16-0.27,0.23c-1.91-1.65-3.74-3.37-5.53-5.11
		c-0.89-0.87-1.77-1.75-2.65-2.64c-0.86-0.89-1.72-1.79-2.57-2.68c-1.68-1.81-3.35-3.63-4.93-5.51c-1.57-1.88-3.07-3.82-4.4-5.88
		C61.82,60.69,61.91,60.61,61.99,60.54"/>
	<path class="st7" d="M61.96,60.51c0.64,0.16,1.24,0.36,1.83,0.58c0.59,0.22,1.17,0.46,1.73,0.72c1.13,0.51,2.22,1.08,3.29,1.69
		c2.13,1.23,4.12,2.65,6.14,4.07c2.01,1.43,4,2.89,5.96,4.43c1.95,1.55,3.89,3.12,5.72,4.89c-0.06,0.1-0.13,0.19-0.19,0.29
		c-2.46-0.83-4.75-1.89-7.01-3.01c-2.24-1.13-4.41-2.37-6.52-3.67c-2.1-1.32-4.17-2.66-6.07-4.23c-0.95-0.79-1.86-1.62-2.72-2.52
		c-0.43-0.45-0.85-0.92-1.25-1.41c-0.4-0.49-0.78-1-1.13-1.56C61.83,60.69,61.89,60.6,61.96,60.51"/>
	<path class="st0" d="M56.08,64.19c0.69-0.26,1.39-0.5,2.09-0.73c0.7-0.22,1.43-0.38,2.15-0.56c0.72-0.19,1.45-0.29,2.19-0.41
		c0.37-0.06,0.73-0.12,1.1-0.16l1.11-0.1c2.97-0.25,5.97-0.06,8.91,0.47c2.93,0.54,5.81,1.45,8.49,2.74
		c2.68,1.3,5.19,2.96,7.29,5.03l-0.21,0.26c-2.43-1.6-4.99-2.92-7.66-3.93c-2.66-1.02-5.43-1.75-8.23-2.2
		c-2.81-0.46-5.65-0.62-8.5-0.61l-1.07,0c-0.36,0-0.71,0.04-1.07,0.04c-0.71,0.04-1.44,0.03-2.15,0.11
		c-0.71,0.07-1.44,0.08-2.16,0.17c-0.72,0.08-1.44,0.15-2.18,0.2L56.08,64.19z"/>
	<path class="st8" d="M61.88,60.48c1.23-0.07,2.45-0.06,3.67-0.05c1.22,0.03,2.44,0.05,3.66,0.13c2.43,0.13,4.86,0.34,7.28,0.6
		c2.42,0.26,4.83,0.56,7.24,0.93c2.41,0.37,4.81,0.78,7.2,1.33l-0.03,0.34c-2.45,0.06-4.89-0.02-7.32-0.14
		c-2.43-0.11-4.86-0.31-7.28-0.53c-2.42-0.23-4.84-0.51-7.25-0.87c-1.21-0.17-2.41-0.39-3.61-0.61c-1.2-0.23-2.4-0.47-3.59-0.79
		L61.88,60.48z"/>
	<path class="st0" d="M57.99,61.08c1.1-0.56,2.22-1.04,3.34-1.52c1.13-0.47,2.26-0.93,3.4-1.35c2.28-0.86,4.58-1.64,6.9-2.37
		c2.32-0.73,4.65-1.43,7.01-2.05c2.35-0.63,4.72-1.22,7.13-1.67l0.1,0.32c-2.22,1.04-4.49,1.94-6.76,2.81
		c-2.28,0.87-4.58,1.67-6.88,2.43c-2.31,0.76-4.64,1.48-6.99,2.11c-1.17,0.32-2.36,0.61-3.55,0.89c-1.19,0.27-2.39,0.53-3.6,0.72
		L57.99,61.08z"/>
	<path class="st0" d="M61.71,60.48c2.42-0.47,4.84-0.86,7.26-1.25c2.42-0.37,4.84-0.74,7.26-1.08c2.42-0.35,4.83-0.7,7.25-1.02
		c2.42-0.33,4.83-0.66,7.25-0.93c0.02,0.11,0.04,0.22,0.06,0.33c-2.37,0.59-4.76,1.09-7.16,1.55c-2.4,0.46-4.81,0.86-7.23,1.23
		c-2.42,0.37-4.85,0.68-7.29,0.94c-2.44,0.26-4.89,0.46-7.35,0.55C61.73,60.7,61.72,60.59,61.71,60.48"/>
	<path class="st0" d="M61.7,60.55c1.75-1.79,3.7-3.39,5.79-4.78c2.1-1.38,4.33-2.57,6.66-3.52l1.76-0.68l1.79-0.59l1.81-0.51
		l1.84-0.42c2.46-0.51,4.96-0.78,7.46-0.79l0.02,0.34c-2.47,0.24-4.91,0.64-7.3,1.23l-1.78,0.48l-1.76,0.54l-1.74,0.62l-1.71,0.68
		c-2.26,0.96-4.46,2.09-6.55,3.38c-2.1,1.29-4.11,2.72-6.04,4.29L61.7,60.55z"/>
	<path class="st9" d="M61.76,60.51c1.83-1.61,3.72-3.15,5.62-4.67c0.95-0.76,1.91-1.51,2.87-2.26c0.96-0.75,1.93-1.48,2.9-2.22
		c1.94-1.48,3.9-2.91,5.89-4.31c2-1.39,4.01-2.76,6.1-4.03l0.2,0.27c-1.81,1.65-3.69,3.19-5.59,4.71c-1.91,1.51-3.84,2.99-5.8,4.44
		c-0.98,0.72-1.96,1.45-2.95,2.16c-0.98,0.72-1.98,1.42-2.97,2.12c-2,1.39-4.01,2.77-6.07,4.07L61.76,60.51z"/>
	<path class="st0" d="M61.32,62.42c1.15-2.2,2.51-4.23,3.93-6.21c1.43-1.98,2.97-3.86,4.52-5.73c1.56-1.87,3.16-3.71,4.8-5.51
		c1.65-1.79,3.33-3.57,5.12-5.25l0.27,0.21c-1.27,2.1-2.66,4.11-4.07,6.1c-1.42,1.98-2.89,3.92-4.39,5.84
		c-1.51,1.91-3.02,3.81-4.66,5.62c-1.64,1.81-3.34,3.56-5.25,5.14L61.32,62.42z"/>
	<path class="st0" d="M56.08,64.64c1.15-2.2,2.51-4.23,3.93-6.21c1.43-1.98,2.97-3.86,4.52-5.73c1.56-1.87,3.16-3.71,4.8-5.51
		c1.65-1.79,3.32-3.57,5.12-5.25l0.27,0.21c-1.27,2.1-2.66,4.11-4.07,6.1c-1.42,1.98-2.89,3.92-4.39,5.84
		c-1.51,1.91-3.02,3.81-4.66,5.62c-1.64,1.81-3.34,3.56-5.25,5.14L56.08,64.64z"/>
	<path class="st10" d="M61.08,62.07c-0.04-2.95,0.55-5.91,1.53-8.72c0.99-2.81,2.4-5.47,4.13-7.89c0.41-0.62,0.87-1.2,1.33-1.79
		c0.45-0.59,0.95-1.14,1.45-1.69c0.25-0.28,0.49-0.56,0.75-0.82c0.26-0.26,0.53-0.52,0.79-0.78l0.8-0.78l0.84-0.73
		c2.24-1.94,4.68-3.62,7.3-4.95l0.18,0.29c-2.33,1.75-4.54,3.6-6.56,5.64l-0.76,0.76l-0.72,0.8c-0.24,0.27-0.48,0.53-0.72,0.79
		c-0.24,0.27-0.46,0.55-0.69,0.82c-0.46,0.55-0.92,1.09-1.33,1.68c-0.42,0.57-0.87,1.13-1.25,1.73c-1.6,2.36-2.97,4.86-4.09,7.48
		c-1.14,2.62-1.98,5.35-2.62,8.2L61.08,62.07z"/>
	<path class="st0" d="M61.7,60.61c0.14-2.45,0.46-4.86,0.81-7.27c0.36-2.41,0.78-4.81,1.27-7.19l0.35-1.79l0.37-1.79
		c0.24-1.19,0.51-2.38,0.78-3.57c0.55-2.37,1.12-4.74,1.8-7.09l0.33,0.06c-0.22,2.43-0.54,4.85-0.89,7.26
		c-0.18,1.2-0.36,2.41-0.56,3.61l-0.3,1.8l-0.32,1.8c-0.41,2.4-0.89,4.78-1.42,7.16c-0.55,2.37-1.13,4.74-1.88,7.07L61.7,60.61z"/>
	<path class="st11" d="M61.7,60.66c-0.55-1.18-0.86-2.38-1.1-3.59c-0.23-1.2-0.35-2.42-0.41-3.63c-0.15-2.43-0.26-4.86-0.35-7.29
		c-0.08-2.43-0.14-4.87-0.13-7.31c-0.01-2.44,0.03-4.88,0.17-7.32l0.34-0.02c0.44,2.41,0.78,4.83,1.08,7.25
		c0.31,2.42,0.56,4.84,0.78,7.26c0.22,2.42,0.41,4.85,0.56,7.28c0.09,1.21,0.13,2.43,0.04,3.65c-0.09,1.22-0.24,2.45-0.64,3.7
		L61.7,60.66z"/>
	<path class="st0" d="M67.43,58.2c1.27,3-0.13,6.47-3.14,7.74c-3,1.27-6.47-0.13-7.74-3.14c-1.27-3,0.13-6.47,3.14-7.74
		C62.69,53.79,66.15,55.2,67.43,58.2"/>
	<path class="st0" d="M60.25,46.79c-0.84-0.96-1.52-1.98-2.18-3.03c-0.66-1.04-1.26-2.11-1.81-3.21c-0.55-1.09-1.02-2.22-1.48-3.34
		c-0.47-1.12-0.91-2.25-1.34-3.39c-0.85-2.27-1.61-4.57-2.25-6.9c-0.61-2.33-1.1-4.7-1.28-7.14l0.58-0.16
		c1.52,2.06,2.73,4.2,3.82,6.37c1.06,2.17,2,4.38,2.85,6.61c0.42,1.12,0.83,2.24,1.21,3.36c0.39,1.13,0.77,2.26,1.07,3.41
		c0.31,1.16,0.56,2.34,0.74,3.54c0.19,1.21,0.36,2.43,0.37,3.73L60.25,46.79z"/>
	<path class="st0" d="M59.59,45.21c-1.72-1.75-3.29-3.62-4.82-5.51c-1.54-1.89-2.98-3.84-4.44-5.79c-1.45-1.95-2.87-3.93-4.28-5.91
		c-1.39-2-2.78-4-4.09-6.06l0.27-0.21c1.63,1.82,3.18,3.7,4.73,5.58c1.53,1.89,3.04,3.8,4.53,5.72c1.48,1.93,2.97,3.85,4.37,5.84
		c1.4,1.99,2.77,4.01,3.99,6.13L59.59,45.21z"/>
	<path class="st0" d="M59.62,45.24c-2.22-1.12-4.26-2.47-6.25-3.87c-1.99-1.41-3.88-2.93-5.76-4.48c-1.88-1.55-3.72-3.14-5.53-4.77
		c-1.8-1.65-3.58-3.32-5.25-5.12l0.21-0.27c2.12,1.24,4.14,2.61,6.14,4c1.99,1.4,3.95,2.86,5.87,4.35c1.92,1.5,3.83,3.01,5.63,4.64
		c1.81,1.63,3.57,3.33,5.15,5.25L59.62,45.24z"/>
	<path class="st1" d="M60.96,46.18c-2.34-1.76-4.78-3.27-7.37-4.49c-0.32-0.15-0.64-0.32-0.97-0.46c-0.33-0.13-0.66-0.27-0.99-0.41
		c-0.33-0.13-0.65-0.29-0.99-0.41l-1.01-0.36c-0.67-0.26-1.35-0.46-2.04-0.67c-0.68-0.23-1.38-0.38-2.07-0.55
		c-2.78-0.67-5.64-1.03-8.52-1.13c-2.88-0.11-5.78,0.07-8.67,0.43l-0.07-0.33c2.84-0.78,5.78-1.2,8.74-1.29
		c2.96-0.08,5.95,0.19,8.86,0.83c0.72,0.17,1.46,0.32,2.17,0.55c0.71,0.22,1.44,0.4,2.13,0.68l1.05,0.4
		c0.35,0.12,0.68,0.3,1.03,0.44c0.34,0.15,0.68,0.3,1.02,0.47c0.34,0.16,0.66,0.35,0.99,0.53c2.62,1.43,5.04,3.26,6.95,5.53
		L60.96,46.18z"/>
	<path class="st0" d="M59.7,45.27c-2.46-0.07-4.88-0.36-7.3-0.68c-2.41-0.33-4.81-0.75-7.2-1.21c-1.2-0.23-2.39-0.47-3.58-0.72
		c-1.19-0.24-2.38-0.51-3.57-0.78c-2.37-0.55-4.74-1.13-7.09-1.83l0.06-0.34c2.44,0.17,4.86,0.46,7.28,0.78
		c1.21,0.17,2.41,0.33,3.61,0.53c1.2,0.19,2.4,0.38,3.6,0.58c2.4,0.41,4.79,0.86,7.16,1.4c2.37,0.55,4.74,1.14,7.07,1.93L59.7,45.27
		z"/>
	<path class="st2" d="M65.68,44.52c-2.46-0.07-4.88-0.36-7.3-0.68c-2.41-0.33-4.81-0.75-7.2-1.21c-1.2-0.23-2.39-0.47-3.58-0.72
		c-1.19-0.24-2.38-0.51-3.57-0.78c-2.37-0.55-4.74-1.13-7.09-1.83l0.06-0.34c2.44,0.17,4.86,0.46,7.28,0.78
		c1.21,0.17,2.41,0.33,3.61,0.53c1.2,0.19,2.4,0.38,3.6,0.58c2.4,0.41,4.79,0.86,7.16,1.4c2.37,0.55,4.74,1.14,7.07,1.93
		L65.68,44.52z"/>
	<path class="st3" d="M62.39,46.58c-2.64-0.71-5.39-0.9-8.09-0.75l-1.01,0.08c-0.17,0.01-0.34,0.02-0.5,0.04
		c-0.17,0.02-0.34,0.04-0.5,0.13c-0.34,0.18-0.67,0.56-1,0.63c-0.16,0.05-0.33,0.01-0.49,0.02l-0.49,0c-0.66,0-1.32-0.02-1.97,0.02
		c-0.66,0.02-1.32,0.03-1.98,0.1c-0.66,0.04-1.32,0.08-1.98,0.17c-0.66,0.08-1.32,0.14-1.98,0.26c-0.66,0.1-1.32,0.18-1.98,0.33
		c-0.65,0.13-1.32,0.24-1.97,0.41c-2.62,0.58-5.22,1.38-7.81,2.31l-0.16-0.3c2.27-1.6,4.75-2.91,7.35-3.97
		c0.64-0.29,1.31-0.49,1.98-0.73c0.66-0.25,1.34-0.44,2.02-0.64c0.68-0.21,1.37-0.36,2.05-0.52c0.69-0.17,1.39-0.3,2.08-0.43
		c0.7-0.14,1.4-0.22,2.11-0.31c0.7-0.1,1.42-0.14,2.13-0.2l0.53-0.04c0.18-0.01,0.36-0.04,0.53,0.01c0.36,0.08,0.71,0.47,1.06,0.66
		c0.17,0.1,0.35,0.13,0.52,0.15c0.17,0.02,0.35,0.06,0.52,0.09l1.04,0.19c2.76,0.52,5.43,1.23,8.08,1.97L62.39,46.58z"/>
	<path class="st0" d="M59.78,45.27c-2.24,0.98-4.51,1.85-6.8,2.68c-1.14,0.43-2.29,0.81-3.44,1.22l-3.46,1.16
		c-2.32,0.75-4.64,1.48-6.98,2.15c-2.34,0.68-4.69,1.32-7.07,1.86l-0.11-0.32c2.24-0.97,4.52-1.84,6.81-2.67
		c2.29-0.84,4.59-1.62,6.9-2.39l3.48-1.11c1.17-0.35,2.33-0.72,3.5-1.05c2.34-0.68,4.69-1.32,7.07-1.85L59.78,45.27z"/>
	<path class="st0" d="M59.82,45.25c-1.84,1.65-3.77,3.14-5.74,4.58c-1.97,1.44-3.99,2.8-6.03,4.12c-2.05,1.32-4.13,2.58-6.27,3.74
		c-2.14,1.16-4.33,2.26-6.64,3.15l-0.18-0.29c1.8-1.71,3.73-3.21,5.7-4.65c1.97-1.44,4-2.77,6.07-4.06
		c2.07-1.28,4.17-2.52,6.31-3.68c2.15-1.16,4.32-2.27,6.6-3.22L59.82,45.25z"/>
	<path class="st0" d="M59.85,45.22c-1.5,1.93-3.09,3.78-4.7,5.6c-1.61,1.83-3.26,3.62-4.93,5.39c-0.83,0.89-1.69,1.75-2.53,2.63
		c-0.86,0.86-1.71,1.73-2.58,2.58c-1.74,1.71-3.51,3.38-5.37,4.97l-0.25-0.23c1.49-1.94,3.07-3.8,4.68-5.62
		c0.8-0.91,1.63-1.81,2.44-2.71c0.83-0.89,1.65-1.78,2.5-2.66c1.68-1.76,3.38-3.5,5.13-5.2c1.74-1.7,3.5-3.38,5.35-4.99L59.85,45.22
		z"/>
	<path class="st4" d="M65.8,43.87c-2.34,1.73-4.58,3.51-6.66,5.44c-2.07,1.94-4,4.02-5.73,6.25c-1.73,2.23-3.25,4.61-4.57,7.11
		c-1.3,2.51-2.37,5.15-3.25,7.92l-0.34-0.06c0.17-2.93,0.92-5.83,2.05-8.57c1.12-2.74,2.65-5.32,4.48-7.66
		c1.82-2.34,3.94-4.45,6.27-6.26c2.33-1.81,4.87-3.34,7.57-4.47L65.8,43.87z"/>
	<path class="st5" d="M59.89,45.15c-0.37,2.41-0.86,4.8-1.42,7.18c-0.27,1.19-0.58,2.37-0.89,3.56c-0.32,1.18-0.66,2.36-1,3.54
		c-0.71,2.35-1.46,4.69-2.31,7.01c-0.84,2.32-1.76,4.63-2.82,6.9c-0.13-0.03-0.27-0.07-0.4-0.1c0.63-2.38,1.34-4.73,2.05-7.09
		c0.7-2.36,1.43-4.7,2.14-7.05c0.36-1.17,0.72-2.34,1.07-3.52c0.37-1.17,0.71-2.34,1.07-3.51c0.71-2.34,1.42-4.68,2.17-7
		C59.67,45.1,59.78,45.12,59.89,45.15"/>
	<path class="st0" d="M59.48,38.2c-0.37,2.41-0.86,4.8-1.42,7.18c-0.27,1.19-0.58,2.37-0.89,3.56c-0.32,1.18-0.66,2.36-1,3.54
		c-0.71,2.35-1.46,4.69-2.31,7.01c-0.84,2.32-1.76,4.63-2.82,6.9c-0.13-0.03-0.27-0.07-0.4-0.1c0.63-2.38,1.34-4.73,2.05-7.09
		c0.7-2.36,1.43-4.7,2.14-7.05c0.36-1.17,0.72-2.34,1.07-3.52c0.37-1.17,0.71-2.34,1.07-3.51c0.71-2.34,1.42-4.68,2.17-7
		C59.26,38.15,59.37,38.18,59.48,38.2"/>
	<path class="st0" d="M59.9,45.11c0.28,2.44,0.4,4.87,0.46,7.31c0.06,2.43,0.07,4.87,0.01,7.3c-0.02,1.22-0.06,2.43-0.11,3.65
		c-0.05,1.22-0.1,2.43-0.18,3.65c-0.15,2.43-0.34,4.86-0.66,7.29l-0.34,0c-0.24-2.44-0.35-4.87-0.42-7.31
		c-0.04-1.22-0.05-2.43-0.06-3.65c-0.02-1.22-0.01-2.43,0.01-3.65c0.02-2.43,0.11-4.86,0.25-7.3c0.14-2.43,0.35-4.86,0.7-7.29
		L59.9,45.11z"/>
	<path class="st0" d="M60.6,24.99c0.28,2.44,0.4,4.87,0.46,7.31c0.06,2.43,0.07,4.87,0.01,7.3c-0.02,1.22-0.06,2.43-0.11,3.65
		c-0.05,1.22-0.1,2.43-0.18,3.65c-0.15,2.43-0.34,4.86-0.66,7.29l-0.34,0c-0.24-2.44-0.35-4.87-0.42-7.31
		c-0.04-1.22-0.05-2.43-0.06-3.65c-0.02-1.22-0.01-2.43,0.01-3.65c0.02-2.43,0.11-4.86,0.25-7.3c0.14-2.43,0.35-4.86,0.7-7.29
		L60.6,24.99z"/>
	<path class="st6" d="M59.84,43.76c0.56,1.13,1.01,2.28,1.42,3.43c0.41,1.16,0.78,2.33,1.11,3.5c0.34,1.18,0.62,2.36,0.92,3.55
		c0.3,1.19,0.6,2.37,0.89,3.56c0.6,2.37,1.17,4.76,1.73,7.14c0.55,2.39,1.09,4.78,1.51,7.21c-0.14,0.03-0.28,0.06-0.41,0.09
		c-1.12-2.27-2.06-4.58-2.9-6.91c-0.84-2.33-1.6-4.68-2.26-7.04c-0.34-1.18-0.65-2.37-0.94-3.55c-0.29-1.19-0.59-2.37-0.81-3.57
		c-0.23-1.2-0.4-2.41-0.51-3.63c-0.11-1.22-0.16-2.45-0.09-3.71C59.62,43.8,59.73,43.78,59.84,43.76"/>
	<path class="st1" d="M59.88,45.03c0.83,0.94,1.54,1.94,2.23,2.96c0.68,1.02,1.31,2.06,1.91,3.12c0.6,1.06,1.15,2.15,1.71,3.23
		c0.55,1.08,1.1,2.17,1.64,3.26c1.08,2.18,2.12,4.38,3.13,6.6c1,2.22,1.97,4.46,2.85,6.74l-0.3,0.16c-1.37-2.03-2.64-4.11-3.88-6.21
		c-1.23-2.1-2.44-4.21-3.6-6.35c-0.59-1.07-1.16-2.14-1.73-3.22c-0.56-1.08-1.14-2.15-1.66-3.25c-0.52-1.1-1.01-2.22-1.46-3.36
		c-0.44-1.14-0.84-2.3-1.14-3.52L59.88,45.03z"/>
	<path class="st0" d="M59.85,45c1.79,1.68,3.47,3.45,5.13,5.26c1.66,1.81,3.28,3.66,4.94,5.48c0.82,0.92,1.65,1.84,2.49,2.75
		c0.83,0.92,1.66,1.84,2.5,2.76c1.67,1.84,3.36,3.68,5.02,5.56c-0.09,0.08-0.18,0.16-0.27,0.23c-1.91-1.65-3.74-3.37-5.53-5.11
		c-0.89-0.87-1.77-1.75-2.65-2.64c-0.86-0.89-1.72-1.79-2.57-2.68c-1.68-1.81-3.35-3.63-4.93-5.51c-1.57-1.88-3.07-3.82-4.4-5.88
		C59.68,45.14,59.77,45.07,59.85,45"/>
	<path class="st7" d="M59.82,44.97c0.64,0.16,1.24,0.36,1.83,0.58c0.59,0.22,1.17,0.46,1.73,0.72c1.13,0.51,2.22,1.08,3.29,1.69
		c2.13,1.23,4.12,2.65,6.14,4.07c2.01,1.43,4,2.89,5.96,4.43c1.95,1.55,3.89,3.12,5.72,4.89c-0.06,0.1-0.13,0.19-0.19,0.29
		c-2.46-0.83-4.75-1.89-7.01-3.01c-2.24-1.13-4.41-2.37-6.52-3.67c-2.1-1.32-4.17-2.66-6.07-4.23c-0.95-0.79-1.86-1.62-2.72-2.52
		c-0.43-0.45-0.85-0.92-1.25-1.41c-0.4-0.49-0.78-1-1.13-1.56C59.69,45.15,59.75,45.06,59.82,44.97"/>
	<path class="st0" d="M53.94,48.65c0.69-0.26,1.39-0.5,2.09-0.73c0.7-0.22,1.43-0.38,2.15-0.56c0.72-0.19,1.45-0.29,2.19-0.41
		c0.37-0.06,0.73-0.12,1.1-0.16l1.11-0.1c2.97-0.25,5.97-0.06,8.91,0.47c2.93,0.54,5.81,1.45,8.49,2.74
		c2.68,1.3,5.19,2.96,7.29,5.03l-0.21,0.26c-2.43-1.6-4.99-2.91-7.66-3.93c-2.66-1.02-5.43-1.75-8.23-2.2
		c-2.81-0.46-5.65-0.62-8.5-0.61l-1.07,0c-0.36,0-0.71,0.03-1.07,0.04c-0.71,0.04-1.44,0.03-2.15,0.11
		c-0.71,0.07-1.44,0.08-2.16,0.17c-0.72,0.08-1.44,0.15-2.18,0.2L53.94,48.65z"/>
	<path class="st8" d="M59.74,44.94c1.23-0.07,2.45-0.06,3.67-0.05c1.22,0.03,2.44,0.05,3.66,0.13c2.43,0.13,4.86,0.34,7.28,0.6
		c2.42,0.26,4.83,0.56,7.24,0.93c2.41,0.37,4.81,0.78,7.2,1.33l-0.03,0.34c-2.45,0.06-4.89-0.02-7.32-0.14
		c-2.43-0.11-4.86-0.31-7.28-0.53c-2.42-0.23-4.84-0.51-7.25-0.87c-1.21-0.17-2.41-0.39-3.61-0.61c-1.2-0.23-2.4-0.47-3.59-0.79
		L59.74,44.94z"/>
	<path class="st0" d="M55.85,45.54c1.1-0.56,2.22-1.04,3.34-1.52c1.13-0.47,2.26-0.93,3.4-1.35c2.28-0.86,4.58-1.64,6.9-2.37
		c2.32-0.73,4.65-1.43,7.01-2.05c2.35-0.63,4.72-1.22,7.13-1.67l0.1,0.32c-2.22,1.04-4.49,1.94-6.76,2.81
		c-2.28,0.87-4.58,1.67-6.88,2.43c-2.31,0.76-4.64,1.48-6.99,2.11c-1.17,0.32-2.36,0.61-3.55,0.89c-1.19,0.27-2.39,0.53-3.6,0.72
		L55.85,45.54z"/>
	<path class="st0" d="M59.57,44.93c2.42-0.47,4.84-0.86,7.26-1.25c2.42-0.37,4.84-0.74,7.26-1.08c2.42-0.35,4.83-0.7,7.25-1.02
		c2.42-0.33,4.83-0.66,7.25-0.93c0.02,0.11,0.04,0.22,0.06,0.33c-2.37,0.59-4.76,1.09-7.16,1.55c-2.4,0.46-4.81,0.86-7.23,1.23
		c-2.42,0.37-4.85,0.68-7.29,0.94c-2.44,0.25-4.89,0.46-7.35,0.55C59.59,45.16,59.58,45.05,59.57,44.93"/>
	<path class="st0" d="M59.56,45.01c1.75-1.79,3.7-3.39,5.79-4.78c2.1-1.39,4.33-2.57,6.66-3.53l1.76-0.68l1.79-0.59l1.81-0.51
		l1.84-0.42c2.46-0.51,4.96-0.78,7.46-0.79l0.02,0.34c-2.47,0.24-4.91,0.64-7.3,1.23l-1.78,0.48l-1.76,0.55l-1.74,0.62l-1.71,0.68
		c-2.26,0.96-4.46,2.09-6.55,3.38c-2.1,1.29-4.11,2.72-6.04,4.29L59.56,45.01z"/>
	<path class="st9" d="M59.62,44.97c1.83-1.61,3.72-3.15,5.62-4.67c0.95-0.76,1.91-1.51,2.87-2.26c0.96-0.75,1.93-1.48,2.9-2.22
		c1.94-1.48,3.9-2.91,5.89-4.31c2-1.39,4.01-2.76,6.1-4.03l0.2,0.27c-1.81,1.65-3.69,3.19-5.59,4.71c-1.91,1.51-3.84,2.99-5.8,4.44
		c-0.98,0.72-1.96,1.45-2.95,2.15c-0.98,0.72-1.98,1.42-2.97,2.12c-2,1.39-4.01,2.77-6.07,4.07L59.62,44.97z"/>
	<path class="st0" d="M59.18,46.88c1.15-2.2,2.51-4.23,3.93-6.21c1.43-1.98,2.97-3.86,4.52-5.73c1.56-1.87,3.16-3.71,4.8-5.51
		c1.65-1.79,3.32-3.57,5.12-5.25l0.27,0.21c-1.27,2.1-2.66,4.11-4.07,6.1c-1.42,1.98-2.89,3.92-4.39,5.84
		c-1.51,1.91-3.02,3.81-4.66,5.62c-1.64,1.81-3.34,3.56-5.25,5.14L59.18,46.88z"/>
	<path class="st0" d="M53.93,49.1c1.15-2.2,2.51-4.23,3.93-6.21c1.42-1.98,2.97-3.86,4.52-5.73c1.56-1.87,3.16-3.71,4.8-5.51
		c1.65-1.79,3.33-3.57,5.12-5.25l0.27,0.21c-1.27,2.1-2.66,4.11-4.07,6.1c-1.42,1.98-2.89,3.92-4.39,5.84
		c-1.51,1.91-3.02,3.81-4.66,5.62c-1.64,1.81-3.34,3.56-5.25,5.14L53.93,49.1z"/>
	<path class="st10" d="M58.94,46.53c-0.04-2.95,0.55-5.91,1.53-8.72c0.99-2.81,2.4-5.47,4.13-7.89c0.41-0.62,0.87-1.2,1.33-1.79
		c0.45-0.59,0.95-1.14,1.45-1.69c0.25-0.27,0.49-0.56,0.75-0.82c0.26-0.26,0.53-0.52,0.79-0.78l0.8-0.78l0.84-0.73
		c2.24-1.94,4.68-3.62,7.3-4.95l0.18,0.29c-2.33,1.75-4.54,3.6-6.56,5.64l-0.76,0.76l-0.72,0.8c-0.24,0.27-0.48,0.53-0.72,0.79
		c-0.24,0.26-0.46,0.55-0.69,0.82c-0.46,0.55-0.92,1.09-1.33,1.68c-0.42,0.57-0.87,1.13-1.25,1.73c-1.6,2.36-2.97,4.86-4.09,7.48
		c-1.14,2.62-1.98,5.35-2.62,8.2L58.94,46.53z"/>
	<path class="st0" d="M59.56,45.07c0.14-2.45,0.46-4.86,0.81-7.27c0.36-2.41,0.78-4.8,1.27-7.19l0.35-1.79l0.37-1.79
		c0.24-1.19,0.51-2.38,0.78-3.57c0.55-2.37,1.12-4.74,1.8-7.09l0.33,0.06c-0.22,2.43-0.54,4.85-0.89,7.26
		c-0.18,1.2-0.36,2.41-0.56,3.61l-0.3,1.8l-0.32,1.8c-0.41,2.4-0.89,4.78-1.42,7.16c-0.55,2.37-1.13,4.74-1.88,7.07L59.56,45.07z"/>
	<path class="st11" d="M59.56,45.12c-0.55-1.18-0.86-2.38-1.1-3.59c-0.23-1.2-0.35-2.42-0.41-3.63c-0.15-2.43-0.26-4.86-0.35-7.29
		c-0.08-2.43-0.14-4.87-0.13-7.31c-0.01-2.44,0.03-4.88,0.17-7.32l0.34-0.02c0.44,2.41,0.78,4.83,1.08,7.25
		c0.31,2.42,0.56,4.84,0.78,7.26c0.22,2.42,0.41,4.85,0.56,7.28c0.09,1.21,0.13,2.43,0.04,3.65c-0.09,1.22-0.24,2.45-0.64,3.7
		L59.56,45.12z"/>
	<path class="st0" d="M65.29,42.66c1.27,3-0.13,6.47-3.14,7.74c-3,1.27-6.47-0.13-7.74-3.14c-1.27-3,0.13-6.47,3.14-7.74
		C60.55,38.25,64.01,39.66,65.29,42.66"/>
	<path class="st12" d="M43.75,45.8c1.1,0.73,2.07,1.56,2.99,2.45c0.92,0.9,1.78,1.85,2.58,2.85c0.8,1.01,1.54,2.05,2.22,3.13
		c0.67,1.09,1.22,2.26,1.49,3.55l-0.84,0.44c-0.92-0.92-1.6-1.93-2.28-2.96c-0.64-1.05-1.36-2.04-2.06-3.05
		c-0.72-0.99-1.47-1.97-2.24-2.92c-0.78-0.94-1.59-1.9-2.43-2.76L43.75,45.8z"/>
	<path class="st13" d="M63.52,47.87c-1.01,2.54-2.15,5-3.44,7.41c-0.63,1.21-1.31,2.39-2.06,3.55c-0.75,1.15-1.56,2.27-2.54,3.27
		l-0.73-0.61c1.46-2.2,2.76-4.55,4.08-6.89l3.83-7.12L63.52,47.87z"/>
	<path class="st12" d="M51.11,64.06c1-2.37,2.05-4.72,3.07-7.06c0.52-1.17,0.99-2.34,1.48-3.51c0.47-1.16,0.99-2.31,1.33-3.45
		l0.95,0.05c0.11,1.44-0.23,2.76-0.63,4.01c-0.42,1.25-0.96,2.45-1.51,3.63c-0.56,1.18-1.17,2.33-1.81,3.46
		c-0.63,1.14-1.31,2.24-2.05,3.32L51.11,64.06z"/>
	<path class="st14" d="M30.14,43.31c0.22-1.41-1.73-3.54-1.18-4.61c0.55-1.07,0.26-0.74,1.5-2.26c1.24-1.53,1.32-2.61,2.66-2.6
		c1.34,0.01,1.52-0.31,3.28-0.22c1.76,0.09,2.37-0.39,3.11,0.42c0.74,0.81,1.31,0.16,1.31,1.6c-0.01,1.44-2.01,4.17-3.26,5.28
		c-1.26,1.11-2.01,2.08-3.4,2.13C32.75,43.08,29.88,44.93,30.14,43.31"/>
	<path class="st14" d="M36.42,35.5c0,0-0.25-0.82,0.08-2.08c0.33-1.26,0.05-2.37,0.96-2.64c0.91-0.27,0.81-0.93,1.54-0.1
		c0.72,0.83,0.81,1.19,0.9,2.24c0.09,1.05,0.28,0.39,0.17,1.62c-0.11,1.23-0.43,1.82-1.15,1.87c-0.72,0.05-1.2-0.18-1.2-0.18
		L36.42,35.5z"/>
	<path class="st14" d="M30.58,45.25c-0.14-0.41-0.53-2.49,0.32-3.19c0.85-0.71,1.51-1.68,2.39-2.25c0.89-0.57,1.21-1.65,2.08-1.46
		c0.87,0.19,2.04-0.15,2.04-0.15s0.9,0.3,1.75,1.53c0.85,1.23,4.08,7.04,4.08,7.04l3.13,2.11c0,0,0.62,0.88,0.15,1.53
		c-0.47,0.65-2,1.53-2.47,1.12c-0.47-0.41-7.25-1.93-7.25-1.93s-1.46-1.31-2.24-1.96C33.78,46.98,30.58,45.25,30.58,45.25"/>
	<path class="st14" d="M28.8,43.3c0.04,0.21,0.42,1.53,1.11,2.71c0.69,1.18,6.14,4.79,8.08,5.32c1.94,0.54,4.83,1.61,5.45,0.9
		c0.62-0.71,1.42-0.65,1.77-0.83c0.34-0.18-3.23-1.31-4.4-1.85c-1.17-0.54-7.61-2.67-8.27-3.69C31.89,44.84,28.3,40.45,28.8,43.3"/>
	<path class="st14" d="M38.43,30.18c0,0,2.49-0.43,2.9-0.07c0.42,0.36,4.15,3.05,4.7,3.53c0.55,0.48,1.67,1.46,1.8,2.16
		c0.14,0.7,0.86,1.42,0.44,2.12c-0.42,0.7-3.6-0.19-4.42-0.36c-0.82-0.17-3.77-2.42-3.77-2.42s-0.6-1.72-0.67-2.22
		C39.33,32.42,38.43,30.18,38.43,30.18"/>
	<path class="st14" d="M37.94,36.83c0,0-1.8,0.82-1.01,4.89c0.79,4.07,3.12,5.6,4.59,6.46c1.47,0.86,3.5,2.16,4.86,1.89
		c1.35-0.27,1.97,0.13,2.92-1.72c0.95-1.85,1.51-5.04,1.12-7.02c-0.39-1.98-2.3-5.3-3.28-5.96c-0.98-0.66-3.65-2.57-5.06-1.84
		C40.66,34.26,38.15,36.17,37.94,36.83"/>
	<g>
		<defs>
			<rect id="SVGID_1_" x="33.89" y="34.87" width="15.62" height="17.1"/>
		</defs>
		<clipPath id="SVGID_2_">
			<use xlink:href="#SVGID_1_"  style="overflow:visible;"/>
		</clipPath>
		<path class="st15" d="M33.89,48.14c1.45,1,6.23,3.83,6.23,3.83s1.97-0.36,2.91-0.26c0.93,0.1,0.64-0.49,1.99-1.06
			c1.35-0.58,1.95-1.26,1.95-1.26s0.63-0.74,1.11-1.27c0.49-0.54,0.83-0.82,0.95-2.06c0.12-1.24,0.46-4.62,0.46-4.62
			s-0.46-2.47-1.23-3.51c-0.77-1.04-1.21-0.98-1.91-1.67c-0.7-0.69-1.73-2.17-2.18-0.87c-0.45,1.29,0.24,2.38,0.24,2.38
			s1.82,1.23,2.42,2.42c0.6,1.19,1.28,1.3,0.71,2.06c-0.57,0.76-0.58,1.33-1.58,0.26c-1-1.07-3.19-3.47-4.61-4.03
			c-1.42-0.56-2.12-0.3-0.93,0.54c1.19,0.85,2.51,2.1,3.61,3.16c1.1,1.06,1.34,2.77,1.34,2.77s0.4,1.64-0.63,1.71
			c-1.03,0.07-2.28-1.7-2.32,0c-0.04,1.7-0.21,2.45-0.21,2.45l-2.16,0.59c0,0-1.35,0.35-2.09-0.59c-0.75-0.93-1.76-0.75-1.76-0.75
			L33.89,48.14z"/>
	</g>
	<path class="st14" d="M57.36,37.47c1.34-0.51,2.21-3.27,3.41-3.32c1.2-0.06,0.77-0.14,2.71,0.17c1.94,0.31,2.92-0.16,3.58,1.01
		c0.66,1.17,1.03,1.17,1.82,2.74c0.8,1.57,1.52,1.86,1.18,2.91c-0.34,1.04,0.52,1.22-0.74,1.93c-1.25,0.71-4.62,0.34-6.2-0.2
		c-1.58-0.54-2.81-0.71-3.54-1.9C58.85,39.63,55.83,38.06,57.36,37.47"/>
	<path class="st14" d="M67.26,39.03c0,0,0.59-0.62,1.84-0.97c1.25-0.34,2.08-1.14,2.77-0.48c0.68,0.66,1.21,0.24,0.86,1.28
		c-0.36,1.04-0.63,1.3-1.49,1.9c-0.86,0.6-0.2,0.44-1.32,0.95c-1.12,0.52-1.79,0.53-2.19-0.07c-0.4-0.6-0.44-1.13-0.44-1.13
		L67.26,39.03z"/>
	<path class="st14" d="M55.9,38.82c0.29-0.32,1.9-1.69,2.93-1.31c1.04,0.39,2.2,0.47,3.15,0.96c0.94,0.48,2.03,0.23,2.31,1.08
		c0.27,0.85,1.14,1.69,1.14,1.69s0.19,0.93-0.46,2.28c-0.64,1.35-4.08,7.04-4.08,7.04l-0.27,3.77c0,0-0.46,0.98-1.25,0.89
		c-0.8-0.09-2.33-0.98-2.2-1.59c0.12-0.61-1.93-7.25-1.93-7.25s0.41-1.92,0.59-2.92C55.99,42.46,55.9,38.82,55.9,38.82"/>
	<path class="st14" d="M56.7,36.31c-0.17,0.14-1.12,1.13-1.8,2.32c-0.68,1.19-1.1,7.7-0.6,9.66c0.5,1.95,1,4.99,1.93,5.17
		c0.93,0.19,1.27,0.91,1.6,1.12c0.33,0.21-0.47-3.45-0.58-4.74c-0.11-1.28-1.47-7.93-0.91-9.01C56.9,39.75,58.92,34.46,56.7,36.31"
		/>
	<path class="st14" d="M72.87,38.13c0,0,1.61,1.94,1.5,2.48c-0.11,0.54-0.58,5.12-0.72,5.83c-0.14,0.71-0.44,2.17-0.97,2.64
		c-0.54,0.47-0.81,1.45-1.62,1.44c-0.81-0.01-1.63-3.22-1.89-4.01c-0.26-0.79,0.22-4.48,0.22-4.48s1.19-1.37,1.59-1.69
		C71.38,40.03,72.87,38.13,72.87,38.13"/>
	<path class="st14" d="M66.86,41.02c0,0-1.6-1.16-4.74,1.56c-3.14,2.71-3.31,5.49-3.32,7.2c-0.02,1.7-0.13,4.11,0.78,5.15
		c0.9,1.04,0.86,1.78,2.94,1.67c2.08-0.1,5.12-1.2,6.64-2.53c1.53-1.33,3.45-4.63,3.54-5.81c0.09-1.18,0.41-4.45-0.92-5.31
		C70.44,42.09,67.54,40.87,66.86,41.02"/>
	<g>
		<defs>
			<rect id="SVGID_3_" x="54.82" y="43.13" width="17.18" height="12.46"/>
		</defs>
		<clipPath id="SVGID_4_">
			<use xlink:href="#SVGID_3_"  style="overflow:visible;"/>
		</clipPath>
		<path class="st16" d="M55.04,43.13c-0.14,1.75-0.22,7.31-0.22,7.31s1.3,1.53,1.67,2.39c0.38,0.86,0.74,0.31,1.91,1.2
			s2.06,1.07,2.06,1.07s0.95,0.17,1.66,0.33c0.71,0.16,1.13,0.31,2.27-0.2c1.14-0.51,4.23-1.9,4.23-1.9s1.91-1.63,2.43-2.82
			c0.52-1.19,0.25-1.54,0.5-2.49c0.25-0.95,1.02-2.58-0.33-2.33c-1.35,0.25-1.95,1.39-1.95,1.39s-0.16,2.19-0.89,3.31
			c-0.73,1.11-0.49,1.76-1.43,1.64c-0.94-0.11-1.44,0.16-1.01-1.24c0.43-1.4,1.42-4.5,1.2-6.01c-0.22-1.51-0.79-1.99-0.93-0.54
			c-0.14,1.45-0.57,3.23-0.94,4.71c-0.37,1.48-1.74,2.54-1.74,2.54s-1.23,1.16-1.8,0.31c-0.57-0.86,0.34-2.82-1.15-2.01
			c-1.5,0.81-2.23,1.04-2.23,1.04l-1.59-1.58c0,0-0.97-0.99-0.53-2.11c0.44-1.11-0.22-1.9-0.22-1.9L55.04,43.13z"/>
	</g>
	<path class="st17" d="M28.92,42.18c0.22-1.41-1.73-3.54-1.18-4.61c0.55-1.07,0.26-0.74,1.5-2.26c1.24-1.53,1.32-2.61,2.66-2.6
		c1.34,0.01,1.53-0.31,3.28-0.22c1.76,0.09,2.37-0.39,3.11,0.42c0.74,0.81,1.31,0.16,1.31,1.6c-0.01,1.44-2.01,4.17-3.26,5.28
		c-1.26,1.11-2.01,2.08-3.4,2.13C31.53,41.95,28.66,43.79,28.92,42.18"/>
	<path class="st18" d="M35.2,34.37c0,0-0.25-0.82,0.08-2.08c0.33-1.26,0.05-2.37,0.96-2.64c0.91-0.27,0.81-0.93,1.54-0.1
		c0.73,0.83,0.81,1.19,0.9,2.24c0.09,1.05,0.28,0.39,0.17,1.62c-0.11,1.23-0.43,1.82-1.15,1.87c-0.72,0.05-1.2-0.18-1.2-0.18
		L35.2,34.37z"/>
	<path class="st19" d="M29.36,44.11c-0.14-0.41-0.53-2.49,0.32-3.19c0.85-0.71,1.51-1.68,2.39-2.25c0.89-0.58,1.21-1.65,2.08-1.46
		c0.87,0.18,2.04-0.15,2.04-0.15s0.9,0.3,1.75,1.53c0.86,1.23,4.08,7.04,4.08,7.04l3.13,2.11c0,0,0.62,0.88,0.15,1.53
		c-0.47,0.65-2,1.53-2.47,1.12c-0.47-0.41-7.25-1.93-7.25-1.93s-1.46-1.31-2.24-1.96C32.56,45.85,29.36,44.11,29.36,44.11"/>
	<path class="st20" d="M27.58,42.17c0.04,0.22,0.42,1.53,1.11,2.71c0.69,1.18,6.14,4.79,8.08,5.33c1.94,0.54,4.83,1.61,5.45,0.9
		c0.62-0.71,1.42-0.65,1.77-0.83c0.34-0.18-3.23-1.31-4.4-1.85s-7.61-2.67-8.27-3.69C30.67,43.71,27.08,39.32,27.58,42.17"/>
	<path class="st21" d="M37.21,29.05c0,0,2.49-0.43,2.9-0.07c0.42,0.36,4.15,3.05,4.7,3.53c0.55,0.48,1.67,1.46,1.81,2.16
		c0.14,0.7,0.85,1.42,0.44,2.12c-0.42,0.7-3.6-0.19-4.42-0.36c-0.82-0.17-3.77-2.42-3.77-2.42s-0.6-1.72-0.67-2.22
		C38.11,31.29,37.21,29.05,37.21,29.05"/>
	<path class="st20" d="M36.72,35.7c0,0-1.8,0.82-1.01,4.89c0.79,4.07,3.12,5.6,4.59,6.46c1.47,0.86,3.5,2.15,4.85,1.89
		s1.97,0.13,2.92-1.72c0.95-1.86,1.51-5.04,1.12-7.02c-0.39-1.98-2.3-5.3-3.28-5.96c-0.98-0.66-3.65-2.57-5.06-1.84
		C39.44,33.13,36.93,35.03,36.72,35.7"/>
	<g>
		<defs>
			<rect id="SVGID_5_" x="32.67" y="33.73" width="15.62" height="17.1"/>
		</defs>
		<clipPath id="SVGID_6_">
			<use xlink:href="#SVGID_5_"  style="overflow:visible;"/>
		</clipPath>
		<path class="st22" d="M32.67,47.01c1.45,1,6.23,3.83,6.23,3.83s1.97-0.36,2.91-0.26c0.93,0.1,0.64-0.49,1.99-1.06
			c1.35-0.58,1.95-1.26,1.95-1.26s0.63-0.74,1.11-1.27c0.49-0.54,0.83-0.82,0.95-2.06c0.12-1.24,0.46-4.62,0.46-4.62
			s-0.46-2.47-1.23-3.51c-0.77-1.04-1.21-0.98-1.91-1.67c-0.7-0.69-1.73-2.17-2.18-0.87c-0.45,1.29,0.24,2.38,0.24,2.38
			s1.82,1.23,2.42,2.42s1.28,1.3,0.71,2.06c-0.57,0.76-0.58,1.33-1.58,0.26c-1-1.07-3.2-3.47-4.61-4.03
			c-1.42-0.56-2.12-0.3-0.93,0.54c1.19,0.85,2.51,2.1,3.61,3.16c1.1,1.06,1.34,2.77,1.34,2.77s0.4,1.64-0.63,1.71
			c-1.03,0.07-2.28-1.7-2.32,0c-0.04,1.7-0.21,2.45-0.21,2.45l-2.16,0.59c0,0-1.34,0.35-2.09-0.59c-0.75-0.93-1.76-0.75-1.76-0.75
			L32.67,47.01z"/>
	</g>
	<path class="st17" d="M57.36,35.72c1.34-0.51,2.21-3.27,3.41-3.32c1.2-0.06,0.77-0.14,2.71,0.17c1.94,0.31,2.92-0.16,3.58,1.01
		c0.66,1.17,1.03,1.17,1.82,2.74c0.8,1.57,1.52,1.86,1.18,2.91c-0.34,1.05,0.52,1.22-0.74,1.93c-1.25,0.71-4.62,0.34-6.2-0.2
		c-1.58-0.54-2.81-0.71-3.54-1.89C58.85,37.87,55.83,36.3,57.36,35.72"/>
	<path class="st18" d="M67.26,37.28c0,0,0.59-0.62,1.84-0.97c1.25-0.34,2.08-1.14,2.77-0.48c0.68,0.66,1.21,0.24,0.86,1.28
		c-0.36,1.04-0.63,1.3-1.49,1.9c-0.86,0.6-0.2,0.44-1.32,0.95c-1.12,0.52-1.79,0.53-2.19-0.07c-0.4-0.6-0.44-1.13-0.44-1.13
		L67.26,37.28z"/>
	<path class="st19" d="M55.9,37.07c0.29-0.32,1.9-1.69,2.93-1.31c1.04,0.39,2.2,0.47,3.15,0.96c0.94,0.49,2.03,0.23,2.31,1.08
		c0.27,0.85,1.14,1.69,1.14,1.69s0.19,0.93-0.46,2.28c-0.64,1.35-4.08,7.04-4.08,7.04l-0.27,3.77c0,0-0.46,0.98-1.25,0.89
		c-0.8-0.09-2.33-0.98-2.2-1.59c0.12-0.61-1.93-7.25-1.93-7.25s0.41-1.92,0.59-2.92C55.99,40.71,55.9,37.07,55.9,37.07"/>
	<path class="st20" d="M56.7,34.56c-0.17,0.14-1.12,1.13-1.8,2.32c-0.68,1.19-1.1,7.7-0.6,9.66c0.5,1.95,1,4.99,1.93,5.17
		c0.93,0.19,1.27,0.91,1.6,1.12c0.33,0.21-0.47-3.45-0.58-4.74c-0.11-1.28-1.47-7.93-0.91-9.01C56.9,38,58.92,32.71,56.7,34.56"/>
	<path class="st21" d="M72.87,36.38c0,0,1.61,1.94,1.5,2.48c-0.11,0.54-0.58,5.12-0.72,5.83c-0.14,0.71-0.44,2.17-0.97,2.64
		c-0.54,0.47-0.81,1.45-1.62,1.44c-0.81-0.02-1.63-3.22-1.89-4.01c-0.26-0.79,0.22-4.48,0.22-4.48s1.19-1.37,1.59-1.69
		C71.38,38.28,72.87,36.38,72.87,36.38"/>
	<path class="st20" d="M66.86,39.27c0,0-1.6-1.16-4.74,1.56c-3.14,2.71-3.31,5.5-3.32,7.2c-0.02,1.7-0.13,4.11,0.78,5.15
		c0.9,1.04,0.86,1.78,2.94,1.67c2.08-0.1,5.12-1.2,6.64-2.53c1.53-1.33,3.45-4.63,3.54-5.81c0.09-1.18,0.41-4.45-0.92-5.31
		C70.44,40.34,67.54,39.12,66.86,39.27"/>
	<g>
		<defs>
			<rect id="SVGID_7_" x="54.82" y="41.38" width="17.18" height="12.46"/>
		</defs>
		<clipPath id="SVGID_8_">
			<use xlink:href="#SVGID_7_"  style="overflow:visible;"/>
		</clipPath>
		<path class="st23" d="M55.04,41.38c-0.14,1.75-0.22,7.31-0.22,7.31s1.3,1.53,1.67,2.39c0.38,0.86,0.74,0.31,1.91,1.2
			c1.17,0.89,2.06,1.07,2.06,1.07s0.95,0.17,1.66,0.33c0.71,0.16,1.13,0.31,2.27-0.2c1.14-0.51,4.23-1.9,4.23-1.9
			s1.91-1.63,2.43-2.82c0.52-1.19,0.25-1.54,0.5-2.49c0.25-0.95,1.02-2.58-0.33-2.33c-1.35,0.25-1.95,1.39-1.95,1.39
			s-0.16,2.19-0.89,3.31c-0.73,1.11-0.49,1.76-1.43,1.64c-0.94-0.11-1.44,0.16-1.01-1.24c0.43-1.4,1.42-4.5,1.2-6.01
			c-0.22-1.51-0.79-1.99-0.93-0.54c-0.14,1.45-0.57,3.23-0.94,4.71c-0.37,1.48-1.74,2.54-1.74,2.54s-1.23,1.16-1.8,0.31
			c-0.57-0.86,0.34-2.82-1.15-2.01c-1.5,0.81-2.23,1.04-2.23,1.04l-1.59-1.58c0,0-0.97-0.99-0.53-2.11c0.44-1.11-0.22-1.9-0.22-1.9
			L55.04,41.38z"/>
	</g>
	<path class="st14" d="M51.78,77.04c-1.43-0.09-3.37,2.04-4.48,1.59c-1.11-0.45-0.76-0.19-2.39-1.29c-1.63-1.1-2.72-1.08-2.83-2.42
		c-0.11-1.34-0.44-1.49-0.51-3.25c-0.07-1.76-0.6-2.33,0.14-3.13c0.74-0.81,0.04-1.32,1.48-1.44c1.44-0.12,4.33,1.62,5.55,2.78
		c1.21,1.15,2.26,1.82,2.42,3.2C51.32,74.45,53.41,77.14,51.78,77.04"/>
	<path class="st14" d="M43.44,71.48c0,0-0.79,0.32-2.08,0.11c-1.28-0.21-2.37,0.17-2.72-0.72c-0.35-0.88-1-0.73-0.24-1.52
		c0.76-0.8,1.11-0.91,2.15-1.1c1.03-0.19,0.36-0.31,1.6-0.31s1.85,0.27,1.96,0.98c0.11,0.71-0.07,1.21-0.07,1.21L43.44,71.48z"/>
	<path class="st14" d="M53.67,76.42c-0.4,0.17-2.43,0.75-3.21-0.04c-0.78-0.78-1.81-1.35-2.46-2.18c-0.65-0.83-1.75-1.05-1.65-1.94
		c0.11-0.89-0.33-2.01-0.33-2.01s0.22-0.92,1.37-1.88c1.15-0.96,6.65-4.69,6.65-4.69l1.82-3.31c0,0,0.82-0.7,1.51-0.29
		c0.69,0.41,1.71,1.86,1.34,2.36c-0.37,0.5-1.28,7.39-1.28,7.39s-1.18,1.57-1.75,2.41C55.11,73.08,53.67,76.42,53.67,76.42"/>
	<path class="st14" d="M51.89,78.37c0.21-0.06,1.48-0.56,2.6-1.35c1.12-0.79,4.22-6.54,4.58-8.52c0.36-1.98,1.17-4.95,0.41-5.51
		c-0.76-0.56-0.78-1.36-0.99-1.69c-0.21-0.32-1.02,3.33-1.45,4.55c-0.43,1.21-1.98,7.82-2.94,8.56
		C53.15,75.16,49.1,79.12,51.89,78.37"/>
	<path class="st14" d="M37.97,69.95c0,0-0.65-2.44-0.33-2.88c0.32-0.45,2.67-4.41,3.09-5c0.43-0.59,1.3-1.79,1.99-1.99
		c0.68-0.2,1.34-0.98,2.07-0.63c0.73,0.35,0.14,3.61,0.04,4.44c-0.1,0.83-2.07,3.97-2.07,3.97s-1.66,0.75-2.15,0.87
		C40.11,68.86,37.97,69.95,37.97,69.95"/>
	<path class="st14" d="M44.63,69.84c0,0,0.97,1.72,4.96,0.57c3.99-1.15,5.3-3.61,6.03-5.15c0.73-1.54,1.83-3.68,1.45-5.01
		c-0.38-1.32-0.04-1.97-1.98-2.75c-1.93-0.78-5.15-1.05-7.09-0.48c-1.94,0.57-5.07,2.77-5.64,3.8c-0.57,1.03-2.23,3.87-1.38,5.2
		C41.82,67.37,43.95,69.7,44.63,69.84"/>
	<g>
		<defs>
			<rect id="SVGID_9_" x="42.07" y="57.91" width="17.44" height="14.95"/>
		</defs>
		<clipPath id="SVGID_10_">
			<use xlink:href="#SVGID_9_"  style="overflow:visible;"/>
		</clipPath>
		<path class="st24" d="M56.25,72.87c0.86-1.53,3.26-6.55,3.26-6.55s-0.54-1.93-0.52-2.87c0.02-0.94-0.54-0.59-1.24-1.89
			c-0.69-1.3-1.43-1.83-1.43-1.83s-0.79-0.56-1.37-0.99c-0.58-0.44-0.89-0.76-2.14-0.77c-1.25-0.01-4.64-0.05-4.64-0.05
			s-2.42,0.68-3.39,1.54s-0.87,1.29-1.49,2.05c-0.63,0.76-2,1.92-0.68,2.25c1.33,0.34,2.35-0.45,2.35-0.45s1.06-1.92,2.19-2.63
			c1.13-0.71,1.18-1.39,1.98-0.89c0.81,0.5,1.37,0.46,0.4,1.55c-0.97,1.09-3.17,3.49-3.6,4.95c-0.43,1.46-0.11,2.14,0.62,0.88
			c0.74-1.26,1.87-2.69,2.82-3.88c0.95-1.19,2.64-1.58,2.64-1.58s1.6-0.54,1.76,0.47c0.16,1.02-1.49,2.42,0.21,2.31
			c1.7-0.11,2.46-0.01,2.46-0.01l0.78,2.1c0,0,0.47,1.31-0.4,2.14c-0.86,0.83-0.59,1.82-0.59,1.82L56.25,72.87z"/>
	</g>
	<path class="st17" d="M51.5,77.91c-1.43-0.09-3.37,2.04-4.48,1.59c-1.11-0.45-0.76-0.19-2.39-1.29c-1.63-1.1-2.72-1.08-2.83-2.42
		c-0.11-1.34-0.44-1.49-0.51-3.25c-0.07-1.76-0.6-2.32,0.14-3.13c0.74-0.81,0.04-1.32,1.48-1.44c1.44-0.12,4.33,1.62,5.55,2.78
		c1.21,1.15,2.26,1.82,2.42,3.2C51.04,75.33,53.13,78.02,51.5,77.91"/>
	<path class="st18" d="M43.16,72.35c0,0-0.79,0.32-2.08,0.11c-1.28-0.21-2.37,0.17-2.71-0.72c-0.35-0.88-1-0.73-0.24-1.52
		c0.76-0.8,1.11-0.91,2.15-1.1c1.03-0.19,0.36-0.31,1.6-0.31s1.85,0.27,1.96,0.98C43.95,70.5,43.77,71,43.77,71L43.16,72.35z"/>
	<path class="st19" d="M53.39,77.3c-0.4,0.17-2.43,0.75-3.21-0.04c-0.78-0.78-1.8-1.35-2.46-2.18c-0.65-0.83-1.75-1.05-1.65-1.94
		c0.11-0.89-0.33-2.01-0.33-2.01s0.22-0.92,1.37-1.88c1.15-0.96,6.65-4.69,6.65-4.69l1.82-3.31c0,0,0.82-0.7,1.51-0.29
		c0.69,0.41,1.71,1.86,1.34,2.36c-0.37,0.5-1.28,7.39-1.28,7.39s-1.18,1.57-1.75,2.41C54.83,73.95,53.39,77.3,53.39,77.3"/>
	<path class="st20" d="M51.61,79.24c0.21-0.06,1.48-0.56,2.6-1.35c1.12-0.79,4.22-6.54,4.58-8.52c0.36-1.98,1.17-4.95,0.41-5.51
		s-0.78-1.36-0.99-1.69c-0.21-0.33-1.02,3.33-1.45,4.55c-0.43,1.21-1.98,7.82-2.94,8.56C52.87,76.03,48.82,79.99,51.61,79.24"/>
	<path class="st21" d="M37.69,70.83c0,0-0.65-2.44-0.33-2.88c0.32-0.45,2.67-4.41,3.09-4.99c0.43-0.59,1.3-1.79,1.99-1.99
		c0.68-0.2,1.34-0.98,2.07-0.63c0.73,0.35,0.14,3.61,0.04,4.44c-0.1,0.83-2.07,3.97-2.07,3.97s-1.66,0.75-2.15,0.87
		C39.83,69.73,37.69,70.83,37.69,70.83"/>
	<path class="st20" d="M44.35,70.72c0,0,0.97,1.72,4.96,0.57c3.99-1.15,5.3-3.61,6.03-5.15c0.73-1.54,1.83-3.68,1.45-5.01
		c-0.38-1.32-0.04-1.97-1.98-2.75c-1.93-0.78-5.15-1.05-7.09-0.48c-1.94,0.57-5.07,2.77-5.64,3.8c-0.57,1.03-2.23,3.87-1.38,5.2
		C41.55,68.24,43.67,70.57,44.35,70.72"/>
	<g>
		<defs>
			<rect id="SVGID_11_" x="41.79" y="58.79" width="17.44" height="14.95"/>
		</defs>
		<clipPath id="SVGID_12_">
			<use xlink:href="#SVGID_11_"  style="overflow:visible;"/>
		</clipPath>
		<path class="st25" d="M55.97,73.74c0.86-1.53,3.26-6.55,3.26-6.55s-0.54-1.93-0.52-2.87c0.02-0.94-0.54-0.59-1.24-1.89
			c-0.69-1.3-1.43-1.83-1.43-1.83s-0.79-0.56-1.37-1c-0.58-0.44-0.89-0.76-2.14-0.76c-1.25-0.01-4.64-0.05-4.64-0.05
			s-2.42,0.68-3.39,1.54c-0.97,0.86-0.87,1.29-1.49,2.05c-0.63,0.76-2,1.92-0.68,2.25c1.33,0.34,2.35-0.45,2.35-0.45
			s1.06-1.92,2.19-2.63c1.13-0.71,1.18-1.39,1.98-0.89c0.81,0.5,1.37,0.46,0.4,1.55c-0.97,1.09-3.17,3.49-3.6,4.95
			c-0.43,1.46-0.11,2.14,0.62,0.88c0.74-1.26,1.87-2.69,2.82-3.88c0.95-1.19,2.64-1.58,2.64-1.58s1.6-0.54,1.76,0.47
			c0.16,1.02-1.49,2.42,0.21,2.31c1.7-0.11,2.46-0.01,2.46-0.01l0.78,2.1c0,0,0.47,1.31-0.4,2.14c-0.86,0.83-0.59,1.82-0.59,1.82
			L55.97,73.74z"/>
	</g>
</g>
</svg>
