<svg xmlns="http://www.w3.org/2000/svg" version="1.1" xmlns:xlink="http://www.w3.org/1999/xlink" xmlns:svgjs="http://svgjs.dev/svgjs" viewBox="0 0 108 108" style="" x="0" y="0"><style type="text/css">
	.st0{fill:#5B7642;}
	.st1{fill:#99BA3C;}
	.st2{fill:#6E9B37;}
	.st3{fill:none;stroke:#E3CE72;stroke-width:0.6902;stroke-miterlimit:10;}
	.st4{fill:#866D6C;}
	.st5{fill:#E566A6;}
	.st6{fill:#C49EED;}
	.st7{fill:#E62EFC;}
	.st8{fill:#C65BA2;}
	.st9{fill:#CA3493;}
	.st10{fill:#EF60A3;}
	.st11{fill:none;stroke:#E3CE72;stroke-width:0.5188;stroke-miterlimit:10;}
	.st12{fill:none;stroke:#E3CE72;stroke-width:0.6478;stroke-miterlimit:10;}
</style><g><path class="st0" d="M42,29.6c1.8,1,0.5,3-0.1,3.5c1.8,0.4,2,1.7,0.8,3.3c1-0.2,2.9,0.4,1.3,1.9c2-0.5,3.9,0.7,4,3
	c2.3-1.1,7.7,1.3,8.4,2.3c0,0,0-0.1,0-0.1c-3-4.9-9.6-16-12-20.2C44.3,25.2,43.9,28.2,42,29.6"></path><path class="st0" d="M57.7,35.9c-1.9-1.9-0.9-3.6,0.2-3.9c-2.4-0.5-3.2-2.4-2.1-4c-2.4,0.7-3.3-0.9-2.6-2.4
	c-2.4,0.4-2.4-0.5-2.5-1.8c-2.2,0-5.2,0-6.4-0.6c0,0,0,0,0,0c2.4,4.1,9,15.3,12,20.2C56.1,40.4,56.5,36.7,57.7,35.9"></path><path class="st0" d="M48,51.4c1.8,1,0.5,3-0.1,3.5c1.8,0.4,2,1.7,0.8,3.3c1-0.2,2.9,0.4,1.3,1.9c2-0.5,3.9,0.7,4,3
	c2.3-1.1,7.7,1.3,8.4,2.3c0,0,0-0.1,0-0.1c-3-4.9-9.6-16-12-20.2C50.4,47,49.9,50,48,51.4"></path><path class="st0" d="M63.7,57.7c-1.9-1.9-0.9-3.6,0.2-3.9c-2.4-0.5-3.2-2.4-2.1-4c-2.4,0.7-3.3-0.9-2.5-2.4
	c-2.4,0.4-2.4-0.5-2.5-1.8c-2.2,0-5.2,0-6.4-0.6c0,0,0,0,0,0c2.4,4.1,9,15.3,12,20.2C62.1,62.2,62.5,58.5,63.7,57.7"></path><path class="st0" d="M59.4,44.7c1.5-0.8,2.7,0.7,2.9,1.3c1-1,2.1-0.7,3.1,0.6c0.2-0.7,1.2-1.8,2-0.2c0.2-1.5,1.8-2.2,3.7-1.5
	c-0.3-1.9,3.1-4.4,4-4.5l-0.1,0c-4.3,0.1-15.2,0.4-19.8,0.6C56.8,41.6,59,42.9,59.4,44.7"></path><path class="st0" d="M69.9,36.9c-2,0.5-2.9-0.7-2.7-1.5c-1.2,1.4-2.8,1.2-3.6-0.1c-0.4,1.8-2,1.8-2.7,0.8c-0.7,1.7-1.3,1.4-2.3,0.9
	c-0.9,1.4-2.3,3.3-3.3,4c0,0,0,0,0,0c4.6-0.1,15.5-0.4,19.8-0.6C72.7,39.4,70.1,37.9,69.9,36.9"></path><path class="st0" d="M23.7,46.1c1.5-0.8,2.7,0.7,2.9,1.3c1-1,2.1-0.7,3.1,0.6c0.2-0.7,1.2-1.8,2-0.2c0.2-1.5,1.8-2.2,3.7-1.5
	c-0.3-1.9,3.1-4.4,4-4.5c0,0-0.1,0-0.1,0c-4.3,0.1-15.2,0.4-19.8,0.6C21.1,43,23.3,44.4,23.7,46.1"></path><path class="st0" d="M34.1,38.3c-2,0.5-2.9-0.7-2.7-1.5c-1.2,1.4-2.8,1.2-3.6-0.1c-0.4,1.8-2,1.8-2.7,0.8c-0.7,1.7-1.3,1.4-2.3,0.9
	c-0.9,1.4-2.3,3.3-3.3,4c0,0,0,0,0,0c4.6-0.1,15.5-0.4,19.8-0.6C36.9,40.8,34.3,39.3,34.1,38.3"></path><path class="st0" d="M31.7,37.9c1.5-0.8,2.7,0.7,2.9,1.3c1-1,2.1-0.7,3.1,0.6c0.2-0.7,1.2-1.8,2-0.2c0.2-1.5,1.8-2.2,3.7-1.5
	c-0.3-1.9,3.1-4.4,4-4.5c0,0-0.1,0-0.1,0c-4.3,0.1-15.2,0.4-19.8,0.6C29.1,34.8,31.3,36.1,31.7,37.9"></path><path class="st0" d="M42.2,30.1c-2,0.5-2.9-0.7-2.7-1.5c-1.2,1.4-2.8,1.2-3.6-0.1c-0.4,1.8-2,1.8-2.7,0.8c-0.7,1.7-1.3,1.4-2.3,0.9
	c-0.9,1.4-2.3,3.3-3.3,4c0,0,0,0,0,0c4.6-0.1,15.5-0.4,19.8-0.6C45,32.6,42.4,31.1,42.2,30.1"></path><path class="st0" d="M58,46.2c-0.1-2.3,2.4-2.8,3.2-2.8c-0.6-1.8,0.3-2.9,2.5-3.4c-0.8-0.6-1.4-2.4,0.9-2.5
	c-1.6-1.1-1.6-3.4,0.3-5.2c-2.4-0.7-3.5-6.2-3.1-7.3c0,0-0.1,0.1-0.1,0.1c-2.3,5.2-8,18.3-10.5,23.8C52.8,47.6,55.6,45.7,58,46.2"></path><path class="st0" d="M54.5,29.3c-0.5,2.6-2.4,3-3.4,2.4c0.9,2.2-0.2,4.1-2.2,4.2c1.9,1.5,1,3.3-0.6,3.6c1.6,1.8,0.9,2.4-0.2,3.3
	c1.1,1.9,2.6,4.6,2.8,6.2c0,0,0,0,0,0c2.4-5.5,8.2-18.6,10.5-23.8C59.2,27.5,55.9,29.7,54.5,29.3"></path><path class="st0" d="M53.3,37.5c-2.1,0.6-2.9-1.8-2.9-2.6c-1.6,1-2.8,0.3-3.4-1.8c-0.5,0.9-2.3,1.9-2.5-0.4c-1,1.8-3.3,2.3-5.3,0.8
	c-0.6,2.5-6.4,4.7-7.7,4.6c0,0,0.1,0.1,0.1,0.1c6.2,1.3,20.4,4.4,25.6,5.6C55.5,42.4,53.2,40,53.3,37.5"></path><path class="st0" d="M37.1,44.6c2.9-0.1,3.7,1.9,3.2,3c2.1-1.4,4.2-0.7,4.9,1.4c1-2.3,3.1-1.8,3.8-0.2c1.3-2.1,2-1.4,3.2-0.5
	c1.5-1.6,3.6-3.8,4.9-4.3c0,0,0,0,0,0c-5.2-1.2-19.4-4.3-25.6-5.6C34.4,40.2,37.3,43.1,37.1,44.6"></path><path class="st0" d="M45.4,47.3c-2.1,0.6-2.9-1.8-2.9-2.6c-1.6,1-2.8,0.3-3.4-1.8c-0.5,0.9-2.3,1.9-2.5-0.4c-1,1.8-3.3,2.3-5.3,0.8
	c-0.6,2.5-6.4,4.7-7.7,4.6c0,0,0.1,0.1,0.1,0.1c6.2,1.3,20.4,4.4,25.6,5.6C47.6,52.3,45.3,49.8,45.4,47.3"></path><path class="st0" d="M29.3,54.4c2.9-0.1,3.7,1.9,3.2,3c2.1-1.4,4.2-0.7,4.9,1.4c1-2.3,3.1-1.8,3.8-0.2c1.3-2.1,2-1.4,3.2-0.5
	c1.5-1.6,3.6-3.8,4.9-4.3c0,0,0,0,0,0c-5.2-1.2-19.4-4.3-25.6-5.6C26.5,50,29.4,53,29.3,54.4"></path><path class="st0" d="M45,44.1c1,1.8-1.1,2.8-1.9,2.9c1.3,1.3,0.9,2.5-1,3.3c1,0.3,2.3,1.8,0.2,2.3c2,0.6,2.9,2.6,1.9,4.6
	c2.6,0.2,5.9,5.1,6,6.3l0.1-0.1c0-5.7,0-18.7,0.1-23.5C49.3,41.6,47.4,43.9,45,44.1"></path><path class="st0" d="M55.2,57.6c-0.7-2.6,1.1-3.5,2.2-3.3c-1.8-1.7-1.5-3.7,0.3-4.5c-2.4-0.6-2.3-2.5-1-3.3
	c-2.3-0.9-1.8-1.6-1.2-2.8c-1.9-1.1-4.4-2.7-5.2-3.8c0,0,0,0,0,0c-0.1,4.8-0.1,17.8-0.1,23.5C51.6,60.6,53.8,57.7,55.2,57.6"></path><path class="st0" d="M55,50c1.5,0.1,1.5,2,1.2,2.5c1.4-0.2,2,0.7,1.5,2.3c0.6-0.4,2.1-0.5,1.4,1.2c1.3-0.9,2.9-0.3,3.4,1.7
	c1.4-1.6,5.7-0.4,6.4,0.6c0,0,0-0.1,0-0.1c-1.4-2.3-4.1-5.7-7.2-8.2c-3-2.6-6.4-4.3-8.2-5.1C54.6,46,55.8,48.3,55,50"></path><path class="st0" d="M67.8,50.1c-2-1.2-2.1-3.1-1.6-3.9c-1.8,0.4-3.1-0.9-3.4-2.8C61.8,45,60.4,44,60,42.6c-1.2,1.3-1.7,0.7-2.5-0.2
	c-1.2,1-3,2.3-4,2.5l0,0c1.8,0.8,5.2,2.5,8.2,5.1c3.1,2.5,5.8,5.9,7.2,8.2C68.3,55,67.4,51.2,67.8,50.1"></path><path class="st1" d="M57.9,43c1.1-2,3.5-1.1,4.2-0.7c0.4-1.9,1.8-2.3,3.9-1.6c-0.3-0.9,0.1-2.8,2.1-1.7c-0.8-1.8,0.4-3.7,3-4.3
	c-1.7-1.9,0.3-7.1,1.2-7.9c0,0-0.1,0-0.1,0c-4.7,3.2-16.5,11.3-21.5,14.7C52.8,41.5,56.2,41.4,57.9,43"></path><path class="st2" d="M63.9,26.9c-1.8,2-3.7,1.3-4.1,0.2c-0.4,2.4-2.3,3.4-4,2.4c0.8,2.3-0.9,3.4-2.4,2.8c0.4,2.4-0.5,2.5-1.9,2.7
	c0,2.2-0.2,5.3-0.8,6.7c0,0,0,0,0,0c4.9-3.4,16.8-11.5,21.5-14.7C68.8,27.7,64.8,27.9,63.9,26.9"></path><path class="st1" d="M47.2,34.8c-1.8-1.3-0.4-3.6,0.3-4.2c-1.9-0.7-2.1-2.2-0.7-4c-1.1,0.1-3.1-0.7-1.3-2.4c-2.2,0.4-4.1-1.3-4.1-4
	c-2.5,1.1-8.1-2.3-8.9-3.6c0,0.1,0,0.1,0,0.2c2.9,6.1,9.5,20.1,11.8,25.2C44.4,39.8,45,36.3,47.2,34.8"></path><path class="st2" d="M30.7,25.7c1.9,2.4,0.8,4.4-0.4,4.7c2.6,0.9,3.3,3.1,2,5c2.6-0.6,3.5,1.4,2.6,3.1c2.6-0.2,2.5,0.8,2.5,2.4
	c2.3,0.2,5.5,0.6,6.8,1.3c0,0,0,0,0,0c-2.4-5.2-8.9-19.1-11.8-25.2C32.6,20.6,32,24.9,30.7,25.7"></path><path class="st1" d="M36.7,41c-1.1,1.7-3.3,0.9-3.9,0.5c-0.5,1.6-1.8,2-3.6,1.2c0.2,0.8-0.3,2.5-2.1,1.4c0.5,1.6-0.8,3.4-3.2,3.9
	c1.3,1.8-1.3,6.7-2.4,7.5c0,0,0.1,0,0.1,0c5.3-3.3,17.5-10.7,22.1-13.5C41.6,42.3,38.3,42.5,36.7,41"></path><path class="st2" d="M29.9,55.3c2-1.9,3.9-1.4,4.3-0.5c0.5-2.1,2.6-3.1,4.4-2.4c-0.8-1.9,1-2.9,2.6-2.5c-0.4-2,0.5-2.1,1.9-2.4
	c0-1.8,0-4.4,0.5-5.5c0,0,0,0,0,0c-4.5,2.7-16.8,10.2-22.1,13.5C25,54.8,29,54.5,29.9,55.3"></path><path class="st1" d="M42.4,47.3c0.4,2.3-2.3,2.6-3.2,2.4c0.9,1.9,0,3-2.3,3.1c0.9,0.8,1.8,2.9-0.7,2.5c1.9,1.5,2.2,4,0.3,5.7
	c2.7,1.3,4.5,7.8,4.2,9.2c0,0,0.1-0.1,0.1-0.1c2.1-6.1,7.1-19.9,9-25C48.1,46.4,45.1,48.1,42.4,47.3"></path><path class="st2" d="M48.4,65.9c0.2-3,2.5-3.3,3.6-2.6c-1.3-2.6-0.3-4.6,2-4.7c-2.4-1.7-1.6-3.6,0.2-4c-2.1-1.9-1.3-2.5-0.2-3.5
	c-1.6-2-3.8-4.7-4.2-6.2c0,0,0,0,0,0c-1.9,5.1-6.9,18.9-9,25C43.4,67.6,46.9,65.4,48.4,65.9"></path><path class="st1" d="M55.9,54.2c1.5,0.1,1.5,2,1.2,2.5c1.4-0.2,2,0.7,1.5,2.3c0.6-0.4,2.1-0.5,1.4,1.2c1.3-0.9,2.9-0.3,3.4,1.7
	c1.4-1.6,5.7-0.4,6.4,0.6c0,0,0-0.1,0-0.1c-1.4-2.3-4.1-5.7-7.2-8.2c-3-2.6-6.4-4.3-8.2-5.1C55.4,50.2,56.6,52.5,55.9,54.2"></path><path class="st2" d="M68.7,54.3c-2-1.2-2.1-3.1-1.6-3.9c-1.8,0.4-3.1-0.9-3.4-2.8c-1.1,1.6-2.5,0.6-2.9-0.8
	c-1.2,1.3-1.7,0.7-2.5-0.2c-1.2,1-3,2.3-4,2.5l0,0c1.8,0.8,5.2,2.5,8.2,5.1c3.1,2.5,5.8,5.9,7.2,8.2C69.2,59.1,68.2,55.4,68.7,54.3"></path><path class="st0" d="M79.4,63.5c0.3-2-2.1-2.2-2.9-2c0.8-1.7-0.1-2.6-2.1-2.7c0.8-0.7,1.5-2.5-0.7-2.2c1.6-1.3,1.8-3.5,0.1-5
	c2.3-1.1,3.6-6.9,3.3-8.1c0,0,0.1,0.1,0.1,0.1c2.1,5.3,6.9,17.4,8.7,21.8C84.4,64.3,81.7,62.8,79.4,63.5"></path><path class="st0" d="M84,47.2c0.3,2.6,2.3,2.9,3.3,2.2c-1.1,2.3-0.1,4,1.9,4.1c-2,1.5-1.3,3.2,0.3,3.5c-1.8,1.7-1.1,2.2-0.1,3
	c-1.3,1.7-3.1,4.1-3.5,5.4c0,0,0,0,0,0c-1.8-4.4-6.7-16.5-8.7-21.8C79.5,45.7,82.6,47.7,84,47.2"></path><path class="st0" d="M65.8,45.4c0.3-2-2.1-2.2-2.9-2c0.8-1.7-0.1-2.6-2.1-2.7c0.8-0.7,1.5-2.5-0.7-2.2c1.6-1.3,1.8-3.5,0.1-5
	c2.3-1.1,3.6-6.9,3.3-8.1c0,0,0.1,0.1,0.1,0.1c2.1,5.3,6.9,17.4,8.7,21.8C70.7,46.2,68.1,44.8,65.8,45.4"></path><path class="st0" d="M70.3,29.1c0.3,2.6,2.3,2.9,3.3,2.2c-1.1,2.2-0.1,4,1.9,4.1c-2,1.5-1.3,3.2,0.3,3.5c-1.8,1.7-1.1,2.2-0.1,3
	c-1.3,1.7-3.1,4.1-3.5,5.4c0,0,0,0,0,0c-1.8-4.4-6.7-16.5-8.7-21.8C65.8,27.6,69,29.6,70.3,29.1"></path><path class="st0" d="M78.1,40.5c1.6-0.7,1.1-2.6,0.8-3.1c1.4-0.2,1.9-1.2,1.4-2.9c0.7,0.3,2.1,0.1,1.4-1.5c1.3,0.7,2.9-0.1,3.4-2
	c1.3,1.4,5.4,0.2,6-0.4c0,0,0,0.1,0,0.1C88.4,34,81.5,42.5,78.6,46C78.9,44.4,79.2,41.9,78.1,40.5"></path><path class="st0" d="M90.7,36.9c-1.6,1.2-1.2,2.7-0.4,3.1c-1.8,0.1-2.7,1.5-2.1,2.9c-1.7-0.8-2.6,0.5-2.3,1.6
	c-1.8-0.5-1.9,0.2-2.2,1.3c-1.7-0.1-4.1-0.2-5.2,0.2c0,0,0,0,0,0c2.9-3.5,9.8-12,12.5-15.4C90.3,33.1,90,36.2,90.7,36.9"></path><path class="st0" d="M55.2,68c1.6-0.7,1.1-2.6,0.8-3.1c1.4-0.2,1.9-1.2,1.4-2.9c0.7,0.3,2.1,0.1,1.4-1.5c1.3,0.7,2.9-0.1,3.4-2
	c1.3,1.4,5.4,0.2,6-0.4c0,0,0,0.1,0,0.1c-2.7,3.3-9.6,11.8-12.5,15.4C56.1,71.9,56.3,69.4,55.2,68"></path><path class="st0" d="M67.8,64.4c-1.6,1.2-1.2,2.7-0.4,3.1c-1.8,0.1-2.7,1.5-2.1,2.9c-1.7-0.8-2.6,0.5-2.3,1.6
	c-1.8-0.5-1.9,0.2-2.2,1.3c-1.7-0.1-4.1-0.2-5.2,0.2c0,0,0,0,0,0c2.9-3.5,9.8-12,12.5-15.4C67.5,60.6,67.1,63.7,67.8,64.4"></path><path class="st0" d="M66.6,66.6c1.6-0.7,1.1-2.6,0.8-3.1c1.4-0.2,1.9-1.2,1.4-2.9c0.7,0.3,2.1,0.1,1.4-1.5c1.3,0.7,2.9-0.1,3.4-2
	c1.3,1.4,5.4,0.2,6-0.4c0,0,0,0.1,0,0.1c-2.7,3.3-9.6,11.8-12.5,15.4C67.5,70.5,67.8,68,66.6,66.6"></path><path class="st0" d="M79.2,63c-1.6,1.2-1.2,2.7-0.4,3.1c-1.8,0.1-2.7,1.5-2.1,2.9c-1.7-0.8-2.6,0.5-2.3,1.6
	c-1.8-0.5-1.9,0.2-2.2,1.3c-1.7-0.1-4-0.2-5.2,0.2c0,0,0,0,0,0c2.9-3.5,9.8-12,12.5-15.4C78.9,59.3,78.5,62.3,79.2,63"></path><path class="st0" d="M76,40.7c1.7,1.5,3.7-0.2,4.1-0.9c1.1,1.6,2.5,1.5,4.2,0.1c0,1,1.1,2.6,2.6,0.8c-0.1,2,1.7,3.4,4.3,3
	c-0.9,2.3,2.8,6.5,3.9,6.9c0,0-0.1,0-0.1,0c-5.5-1.4-19.5-4.8-25.3-6.2C71.8,44,75,42.9,76,40.7"></path><path class="st0" d="M87.3,53.7c-2.4-1.2-3.9,0.1-3.9,1.2c-1.2-2.1-3.3-2.3-4.6-0.8c0-2.4-2-2.8-3.2-1.8c-0.5-2.4-1.3-2.1-2.7-1.9
	c-0.8-2.1-2.1-4.9-3.2-6c0,0,0,0,0,0c5.8,1.4,19.8,4.8,25.3,6.2C91.6,51.2,87.8,52.4,87.3,53.7"></path><path class="st0" d="M80.1,49.7c-1.7,1.3-0.4,3.4,0.3,3.9c-1.8,0.7-2,2.1-0.7,3.8c-1-0.1-2.9,0.7-1.2,2.2c-2.1-0.3-3.9,1.2-3.9,3.7
	c-2.4-1.1-7.6,2.2-8.4,3.4c0,0,0-0.1,0-0.2c2.8-5.7,8.9-18.8,11.1-23.7C77.5,45,78.1,48.3,80.1,49.7"></path><path class="st0" d="M64.6,58.2c1.8-2.3,0.8-4.1-0.4-4.4c2.4-0.8,3.1-2.9,1.9-4.7c2.4,0.6,3.3-1.3,2.4-2.9c2.4,0.2,2.4-0.8,2.4-2.2
	c2.2-0.2,5.2-0.5,6.4-1.2c0,0,0,0,0,0c-2.2,4.9-8.4,18-11.1,23.7C66.4,63.1,65.9,59,64.6,58.2"></path><path class="st0" d="M67.5,50c-1.7,1.3-0.4,3.4,0.3,3.9c-1.8,0.7-2,2.1-0.7,3.8c-1-0.1-2.9,0.7-1.2,2.2c-2.1-0.3-3.9,1.2-3.9,3.7
	c-2.4-1.1-7.6,2.2-8.4,3.4c0,0,0-0.1,0-0.2c2.8-5.7,8.9-18.8,11.1-23.7C64.9,45.2,65.5,48.5,67.5,50"></path><path class="st0" d="M52,58.5c1.8-2.3,0.8-4.1-0.4-4.4c2.4-0.8,3.1-2.9,1.9-4.7C56,50,56.8,48,56,46.5c2.4,0.2,2.4-0.8,2.4-2.2
	c2.2-0.2,5.2-0.5,6.4-1.2c0,0,0,0,0,0c-2.2,4.9-8.4,18-11.1,23.7C53.8,63.3,53.3,59.2,52,58.5"></path><path class="st0" d="M69.8,52.2c-0.8-1.9-2.9-0.8-3.5-0.3c-0.2-1.9-1.4-2.2-3.2-1.2c0.3-1,0-2.9-1.7-1.5c0.7-2-0.3-3.9-2.5-4.3
	c1.4-2.2-0.4-7.8-1.3-8.6c0,0,0.1,0,0.1,0c4.5,3.5,14.9,11.4,18.7,14.2C74.4,50.4,71.4,50.5,69.8,52.2"></path><path class="st0" d="M65.3,35.9c1.6,2.1,3.5,1.3,3.9,0.2c0.2,2.5,2,3.5,3.8,2.5C72,41,73.5,42,75,41.4c-0.6,2.4,0.2,2.4,1.5,2.6
	c-0.2,2.2-0.5,5.1-0.2,6.4c0,0,0,0,0,0c-3.8-2.9-14.2-10.7-18.7-14.2C60.7,37,64.4,37,65.3,35.9"></path><path class="st0" d="M71.2,40.7c0.9-1.3-0.7-2.4-1.3-2.5c1-0.9,0.7-2-0.9-2.6c0.7-0.2,1.7-1.4-0.1-1.8c1.5-0.5,2-2.1,0.7-3.8
	c2.1-0.2,3.8-4.3,3.5-5.4c0,0,0.1,0.1,0.1,0.1c1,2.5,2,6.7,2.1,10.7c0.2,4-0.5,7.7-0.9,9.6C74.1,43.5,73,41.2,71.2,40.7"></path><path class="st0" d="M78.9,30.5c-0.2,2.3,1.2,3.5,2.1,3.6c-1.4,1.2-1.2,3,0.2,4.4c-1.9-0.1-2,1.6-1.1,2.8c-1.8,0.1-1.5,0.9-1.3,2.1
	c-1.5,0.4-3.6,1-4.4,1.6c0,0,0,0,0,0c0.5-1.9,1.2-5.6,0.9-9.6c-0.1-4-1.2-8.2-2.1-10.7C75.4,27.1,77.7,30.2,78.9,30.5"></path><path class="st1" d="M78.5,42.7c2.2,0.3,3-2.1,3.1-2.9c1.7,0.8,3,0,3.6-2.2c0.5,0.8,2.3,1.6,2.6-0.7c0.9,1.7,3.2,2,5.2,0.3
	c0.5,2.5,5.8,4.1,7,3.8c0,0-0.1,0.1-0.1,0.1c-5.4,1.7-19.1,6.2-24.8,8C76.6,47.7,78.8,45.1,78.5,42.7"></path><path class="st2" d="M94.9,47.7c-2.7,0.2-3.2,2.1-2.7,3.1c-2.1-1.1-4.1-0.2-4.3,1.7c-1.3-2-3.2-1.3-3.7,0.2C82.6,51,82,51.7,81,52.6
	c-1.8-1.3-4.3-3.1-5.9-3.4c0,0,0,0,0,0c5.7-1.9,19.4-6.3,24.8-8C97.3,43.3,94.7,46.4,94.9,47.7"></path><path class="st1" d="M78.5,56.2c-0.1,2.3,2.6,2.5,3.5,2.3c-0.6,1.9,0.5,3,2.7,3c-0.8,0.8-1.3,2.9,1.1,2.5c-1.6,1.5-1.5,4,0.6,5.7
	c-2.4,1.3-3.1,7.8-2.6,9.2c0,0-0.1-0.1-0.1-0.1c-3.1-6-10.2-19.7-12.8-24.7C72.8,55.4,76,57,78.5,56.2"></path><path class="st2" d="M75.7,74.8c-0.7-3-3-3.3-4-2.5c0.9-2.6-0.5-4.5-2.7-4.6c2.1-1.7,1-3.6-0.8-3.9c1.7-1.9,0.9-2.5-0.3-3.4
	c1.2-2,2.9-4.7,3.1-6.2c0,0,0,0,0,0c2.7,5,9.8,18.7,12.8,24.7C80.9,76.4,77.1,74.2,75.7,74.8"></path><path class="st1" d="M67.1,60.7c-2-0.2-2.7,2-2.7,2.8c-1.6-0.6-2.7,0.2-3.2,2.1c-0.5-0.7-2.2-1.3-2.4,0.8c-1-1.4-3.2-1.5-5,0.2
	c-0.6-2.1-6.1-3-7.4-2.6c0,0,0.1-0.1,0.1-0.1c5.9-2.2,19.2-7.4,24.1-9.3C69.1,56.1,67,58.6,67.1,60.7"></path><path class="st2" d="M51.7,57.4c2.8-0.4,3.5-2.3,3-3.2c2,0.9,4-0.1,4.6-2c1,1.8,2.9,1,3.6-0.5c1.3,1.6,2,0.9,3-0.1
	c1.4,1.1,3.4,2.7,4.7,2.9c0,0,0,0,0,0c-4.9,1.9-18.3,7.1-24.1,9.3C49.1,61.7,51.8,58.6,51.7,57.4"></path><path class="st1" d="M65.7,52.3c-1.5-1.7-3.4,0.2-3.8,1.1c-1-1.9-2.4-1.9-3.8,0c0-1.2-1.2-3.2-2.4-1c0-2.4-1.8-4.2-4.3-3.7
	c0.6-2.9-3.5-8.3-4.8-8.9c0.1,0,0.1,0,0.1,0c6.1,2,20.1,6.5,25.3,8.1C69.9,48.4,66.7,49.7,65.7,52.3"></path><path class="st2" d="M54.6,36.3c2.5,1.6,4.2,0.1,4.3-1.3c1.2,2.6,3.4,3,4.9,1.2c-0.1,2.9,1.9,3.5,3.3,2.2c0.2,2.8,1.2,2.6,2.6,2.3
	c0.6,2.5,1.4,5.8,2.3,7.1c0,0,0,0,0,0c-5.2-1.6-19.2-6.1-25.3-8.1C50.1,39.3,54,37.8,54.6,36.3"></path><path class="st1" d="M68.4,37.5c0.9-1.3-0.7-2.4-1.3-2.5c1-0.9,0.7-2-0.9-2.6c0.7-0.2,1.7-1.4-0.1-1.8c1.5-0.5,2.1-2.1,0.8-3.8
	c2.1-0.2,3.8-4.3,3.5-5.4c0,0,0.1,0.1,0.1,0.1c1,2.5,2,6.7,2.2,10.7c0.2,4-0.5,7.7-0.9,9.6C71.3,40.3,70.2,38,68.4,37.5"></path><path class="st2" d="M76.1,27.3c-0.2,2.3,1.2,3.5,2.1,3.6c-1.4,1.2-1.2,3,0.2,4.4c-1.9-0.1-2,1.6-1.1,2.8c-1.8,0.1-1.5,0.9-1.3,2.1
	c-1.5,0.4-3.6,1-4.4,1.6c0,0,0,0,0,0c0.5-1.9,1.2-5.6,0.9-9.6c-0.1-4-1.2-8.2-2.2-10.7C72.6,23.9,74.9,27,76.1,27.3"></path><path class="st0" d="M45,83.7c-0.7-1.9,1.5-2.6,2.3-2.6c-1.1-1.5-0.5-2.6,1.5-3.1c-0.9-0.5-2-2.1,0.2-2.3c-1.9-0.9-2.5-3-1.2-4.9
	c-2.5-0.6-5.1-5.9-5.1-7.1c0,0,0,0.1-0.1,0.1c-0.8,5.7-2.8,18.5-3.5,23.2C40.3,85.6,42.6,83.6,45,83.7"></path><path class="st0" d="M36.9,68.9c0.3,2.7-1.6,3.3-2.7,2.9c1.6,1.9,1,3.9-1,4.4c2.3,1,2,2.8,0.5,3.4c2.1,1.2,1.5,1.9,0.8,2.9
	c1.7,1.4,4,3.3,4.6,4.5c0,0,0,0,0,0c0.8-4.7,2.7-17.6,3.5-23.2C40.9,66.4,38.3,69,36.9,68.9"></path><path class="st0" d="M54.2,63.1c-0.7-1.9,1.5-2.6,2.3-2.6c-1.1-1.5-0.5-2.6,1.5-3.1c-0.9-0.5-2-2.1,0.2-2.3c-1.9-0.9-2.5-3-1.2-4.9
	c-2.5-0.6-5.1-5.9-5.1-7.1c0,0,0,0.1-0.1,0.1C51,48.8,49,61.7,48.3,66.4C49.5,64.9,51.8,62.9,54.2,63.1"></path><path class="st0" d="M46,48.2c0.3,2.7-1.6,3.3-2.7,2.9c1.6,1.9,1,3.9-1,4.4c2.3,1,2,2.8,0.5,3.4c2.1,1.2,1.5,1.9,0.8,2.9
	c1.7,1.4,4,3.3,4.6,4.5c0,0,0,0,0,0c0.8-4.7,2.7-17.6,3.5-23.2C50.1,45.7,47.5,48.3,46,48.2"></path><path class="st0" d="M41.1,61c-1.7-0.3-1.6-2.3-1.5-2.9c-1.5,0.1-2.1-0.8-2-2.5c-0.6,0.5-2.1,0.6-1.7-1.1c-1.1,1-2.8,0.6-3.8-1.1
	c-1,1.6-5.2,1.4-6,1c0,0,0,0.1,0.1,0.1c3.4,2.6,12.1,9.3,15.7,12.1C41.1,65,40.3,62.6,41.1,61"></path><path class="st0" d="M28,60.4c1.8,0.8,1.8,2.4,1.1,2.9c1.8-0.3,3,0.9,2.7,2.4c1.5-1.1,2.6-0.1,2.6,1.1c1.6-0.8,1.9-0.2,2.4,0.7
	c1.6-0.5,3.9-1.1,5.1-1c0,0,0,0,0,0c-3.6-2.8-12.2-9.5-15.7-12.1C27.5,56.6,28.5,59.5,28,60.4"></path><path class="st0" d="M69.6,82.6c-1.7-0.3-1.6-2.3-1.5-2.9c-1.5,0.1-2.1-0.8-2-2.5c-0.6,0.5-2.1,0.6-1.7-1.1c-1.1,1-2.8,0.6-3.8-1.1
	c-1,1.6-5.2,1.4-6,1c0,0,0,0.1,0.1,0.1c3.4,2.6,12.1,9.3,15.7,12.1C69.6,86.6,68.8,84.2,69.6,82.6"></path><path class="st0" d="M56.5,82c1.9,0.8,1.8,2.4,1.1,2.9c1.8-0.3,3,0.9,2.7,2.4c1.5-1.1,2.6-0.1,2.6,1.1c1.6-0.8,1.9-0.2,2.4,0.7
	c1.6-0.5,3.9-1.1,5.1-1c0,0,0,0,0,0c-3.6-2.8-12.2-9.5-15.7-12.1C56,78.2,57,81.1,56.5,82"></path><path class="st0" d="M58.2,83.8c-1.7-0.3-1.6-2.3-1.5-2.9c-1.5,0.1-2.1-0.8-2-2.5c-0.6,0.5-2.1,0.6-1.7-1.1c-1.1,1-2.8,0.6-3.8-1.1
	c-1,1.6-5.2,1.4-6,1c0,0,0,0.1,0.1,0.1c3.4,2.6,12.1,9.3,15.7,12.1C58.2,87.9,57.4,85.5,58.2,83.8"></path><path class="st0" d="M45.1,83.2c1.8,0.8,1.8,2.4,1.1,2.9c1.8-0.3,3,0.9,2.7,2.4c1.5-1.1,2.6-0.1,2.6,1.1c1.6-0.8,1.9-0.2,2.4,0.7
	c1.6-0.5,3.9-1.1,5.1-1l0,0c-3.6-2.8-12.2-9.5-15.7-12.1C44.6,79.5,45.6,82.3,45.1,83.2"></path><path class="st0" d="M43.1,60.8c-1.4,1.8-3.6,0.7-4.2,0.1c-0.7,1.8-2.1,2.1-4.1,1c0.2,0.9-0.5,2.8-2.3,1.4c0.6,1.9-0.9,3.7-3.5,3.9
	c1.4,2.1-1.2,7-2.2,7.6c0,0,0.1,0,0.1,0c5-2.6,17.9-9.1,23.2-11.8C48,63,44.6,62.6,43.1,60.8"></path><path class="st0" d="M35.1,76c2-1.7,3.8-0.8,4.1,0.3c0.7-2.3,2.7-3,4.3-1.8c-0.5-2.4,1.3-3.2,2.7-2.4c-0.1-2.4,0.8-2.4,2.2-2.4
	c0.3-2.2,0.9-5.3,1.7-6.6c0,0,0,0,0,0c-5.4,2.7-18.2,9.2-23.2,11.8C30.3,74.5,34.3,74.8,35.1,76"></path><path class="st0" d="M41.2,70.4c2,0.8,1.1,3.2,0.6,3.9c1.9,0.2,2.4,1.6,1.5,3.5c1-0.4,3,0,1.7,1.9c1.9-0.8,4,0.3,4.6,2.7
	c2.1-1.6,7.9,0.4,8.9,1.4c0,0,0-0.1,0-0.1c-4-5-12.9-16.3-16.2-20.6C42.7,65.3,42.9,68.6,41.2,70.4"></path><path class="st0" d="M58.2,75.2c-2.3-1.8-1.7-3.8-0.6-4.4c-2.5-0.2-3.7-2.2-2.9-4.1c-2.3,1.1-3.5-0.6-3-2.2
	c-2.3,0.7-2.5-0.2-2.8-1.6c-2.2,0.3-5.2,0.7-6.5,0.3c0,0,0,0,0,0c3.3,4.2,12.2,15.6,16.2,20.6C57.6,80.4,57.2,76.3,58.2,75.2"></path><path class="st0" d="M53.5,67.8c2,0.8,1.1,3.2,0.6,3.9c1.9,0.2,2.4,1.6,1.5,3.5c1-0.4,3,0,1.7,1.9c1.9-0.8,4,0.3,4.6,2.7
	c2.1-1.6,7.9,0.4,8.9,1.4c0,0,0-0.1,0-0.1c-4-5-12.9-16.3-16.2-20.6C55,62.7,55.2,66,53.5,67.8"></path><path class="st0" d="M70.5,72.6c-2.3-1.8-1.7-3.8-0.6-4.4c-2.5-0.2-3.7-2.2-2.9-4.1c-2.3,1.1-3.5-0.6-3-2.2
	c-2.3,0.7-2.5-0.2-2.8-1.6c-2.2,0.3-5.2,0.7-6.5,0.3c0,0,0,0,0,0c3.3,4.2,12.2,15.6,16.2,20.6C69.9,77.8,69.5,73.7,70.5,72.6"></path><path class="st0" d="M51.8,70.6c0.3-2,2.6-1.5,3.3-1.1C55,67.7,56,67,58,67.6c-0.5-0.9-0.6-2.9,1.3-1.9c-1.1-1.8-0.6-3.9,1.5-4.8
	c-1.8-1.8-1.3-7.7-0.7-8.7c0,0-0.1,0-0.1,0.1c-3.6,4.4-11.9,14.4-15,18.1C46.9,69.8,49.8,69.2,51.8,70.6"></path><path class="st0" d="M52.5,53.7c-1.1,2.4-3.1,2.1-3.8,1.1c0.3,2.5-1.1,3.8-3.1,3.3c1.5,2,0.2,3.4-1.4,3.2c1.2,2.1,0.3,2.4-0.9,2.9
	c0.7,2.1,1.7,4.9,1.6,6.2c0,0,0,0,0,0c3.1-3.7,11.4-13.7,15-18.1C57.2,53.6,53.6,54.5,52.5,53.7"></path><path class="st0" d="M47.8,59.7c-1.2-1,0.1-2.5,0.7-2.7c-1.2-0.7-1.1-1.8,0.2-2.7c-0.8-0.1-2-1-0.3-1.8c-1.6-0.1-2.5-1.6-1.6-3.5
	c-2.1,0.3-4.7-3.3-4.6-4.5c0,0,0,0.1-0.1,0.1c-0.4,2.6-0.4,7,0.3,10.9c0.7,3.9,2.2,7.4,3.1,9.2C45.6,63,46.2,60.5,47.8,59.7"></path><path class="st0" d="M38,51.5c0.7,2.2-0.4,3.7-1.3,4c1.7,0.8,1.9,2.7,0.8,4.3c1.8-0.5,2.3,1.1,1.7,2.5C41,62,40.9,62.8,41,64
	c1.6,0,3.8,0.1,4.7,0.6c0,0,0,0,0,0c-0.9-1.7-2.4-5.2-3.1-9.2c-0.8-3.9-0.7-8.3-0.3-10.9C40.7,47.4,39.1,50.9,38,51.5"></path><path class="st1" d="M41.2,63.3c-2.1,0.8-3.4-1.3-3.7-2.1c-1.5,1.2-2.9,0.6-4-1.3c-0.3,0.9-1.9,2.1-2.7-0.1c-0.5,1.9-2.7,2.6-5,1.4
	c0.1,2.5-4.7,5.3-5.9,5.3c0,0,0.1,0,0.1,0.1c5.6,0.5,20,1.7,25.9,2.2C44.1,67.7,41.4,65.6,41.2,63.3"></path><path class="st2" d="M26.3,71.9c2.6-0.4,3.6,1.3,3.3,2.4c1.8-1.6,3.9-1.1,4.6,0.7c0.8-2.3,2.8-2,3.6-0.6c1.2-2.1,2-1.6,3.2-0.9
	c1.4-1.7,3.5-4,4.9-4.7c0,0,0,0,0,0c-6-0.5-20.3-1.8-25.9-2.2C23,68.1,26.2,70.5,26.3,71.9"></path><path class="st1" d="M44.3,76.4c0.6,2.2-2,3-2.9,3c1,1.8,0.2,3-2,3.6c0.9,0.6,1.9,2.5-0.5,2.7c1.9,1.1,2.4,3.6,0.7,5.7
	c2.7,0.7,4.8,6.9,4.6,8.4c0,0,0.1-0.1,0.1-0.1c1.6-6.6,5.4-21.5,6.9-27C49.6,74.3,46.9,76.6,44.3,76.4"></path><path class="st2" d="M51.2,93.9c0-3.1,2.1-3.9,3.3-3.3c-1.4-2.3-0.6-4.5,1.6-5.1c-2.4-1.2-1.8-3.3-0.1-4c-2.1-1.5-1.4-2.2-0.5-3.4
	c-1.7-1.6-3.9-3.9-4.4-5.3c0,0,0,0,0,0c-1.5,5.5-5.3,20.4-6.9,27C46.5,96.7,49.7,93.7,51.2,93.9"></path><path class="st1" d="M56.3,78.3c1.9-0.6,3.1,1.4,3.3,2.1c1.4-0.9,2.7-0.4,3.6,1.3c0.3-0.8,1.9-1.7,2.5,0.2c0.6-1.6,2.7-2.1,5-0.9
	c0.1-2.2,5.3-4.3,6.6-4.3c0,0-0.1,0-0.1-0.1c-6.2-0.8-20.4-2.8-25.6-3.6C53.4,74.2,56,76.2,56.3,78.3"></path><path class="st2" d="M70.6,71.5c-2.8,0.2-3.9-1.4-3.7-2.4c-1.8,1.3-3.9,0.8-4.9-0.9c-0.6,2-2.6,1.6-3.6,0.3c-0.9,1.8-1.7,1.3-3,0.6
	c-1.1,1.4-2.8,3.4-3.9,3.9c0,0,0,0,0,0c5.2,0.8,19.4,2.8,25.6,3.6C74.1,75.1,70.7,72.7,70.6,71.5"></path><path class="st1" d="M55.8,69.8c1.1-2,3.4-0.5,4,0.2c0.5-2.1,1.9-2.4,3.7-0.9c-0.2-1.2,0.4-3.4,2.1-1.5c-0.5-2.4,0.8-4.5,3.4-4.6
	c-1.3-2.7,1.5-8.9,2.6-9.8c0,0-0.1,0-0.2,0C66,56.6,53.4,64.1,48.7,66.8C50.9,66.9,54.3,67.5,55.8,69.8"></path><path class="st2" d="M63,51.6c-2.1,2.2-4,1-4.4-0.3C58,54.1,55.9,55,54,53.6c0.8,2.8-1.1,3.8-2.7,2.9c0.4,2.8-0.5,2.8-2,2.8
	c0,2.5-0.1,6-0.6,7.5c0,0,0,0,0,0c4.7-2.7,17.3-10.3,22.8-13.6C68,53.5,63.9,53,63,51.6"></path><path class="st1" d="M49.8,55.9c-1.2-1,0.1-2.5,0.7-2.7c-1.2-0.7-1.1-1.8,0.2-2.7c-0.8-0.1-2-1-0.3-1.8c-1.6-0.1-2.5-1.6-1.6-3.5
	c-2.1,0.3-4.7-3.3-4.6-4.5c0,0,0,0.1-0.1,0.1c-0.4,2.6-0.4,7,0.3,10.9c0.7,3.9,2.2,7.4,3.1,9.2C47.7,59.3,48.2,56.8,49.8,55.9"></path><path class="st2" d="M40,47.8c0.7,2.2-0.4,3.7-1.3,4c1.7,0.8,1.9,2.7,0.8,4.3c1.8-0.5,2.3,1.1,1.7,2.5c1.8-0.3,1.7,0.5,1.8,1.8
	c1.6,0,3.8,0.1,4.7,0.6c0,0,0,0,0,0c-0.9-1.7-2.4-5.2-3.1-9.2c-0.8-3.9-0.7-8.3-0.3-10.9C42.7,43.7,41.1,47.1,40,47.8"></path><path class="st0" d="M29.6,38.1c2,0,1.8,2.4,1.5,3.2c1.8-0.5,2.6,0.5,2.3,2.5c0.8-0.7,2.8-1,2,1.1c1.6-1.4,3.8-1.1,4.9,0.8
	c1.5-2.1,7.4-2.4,8.5-1.9c0,0,0-0.1-0.1-0.1c-4.9-2.9-16-9.7-20-12.3C29.7,33.1,30.7,36,29.6,38.1"></path><path class="st0" d="M46.4,36.4c-2.6-0.8-2.5-2.7-1.6-3.6c-2.4,0.7-3.9-0.6-3.7-2.6c-1.8,1.7-3.4,0.7-3.4-0.9c-2,1.5-2.3,0.7-3-0.4
	c-1.9,1-4.6,2.4-5.9,2.5c0,0,0,0,0,0c4.1,2.5,15.1,9.4,20,12.3C47.1,41.1,45.7,37.7,46.4,36.4"></path><path class="st0" d="M45.1,54.6c2,0,1.8,2.4,1.5,3.2c1.8-0.5,2.6,0.5,2.3,2.5c0.8-0.7,2.8-1,2,1.1c1.6-1.4,3.8-1.1,4.9,0.8
	c1.5-2.1,7.4-2.4,8.5-1.9c0,0,0-0.1-0.1-0.1c-4.9-2.9-16-9.7-20-12.3C45.1,49.6,46.1,52.5,45.1,54.6"></path><path class="st0" d="M61.9,53c-2.6-0.8-2.5-2.7-1.6-3.6c-2.4,0.7-3.9-0.6-3.7-2.6c-1.8,1.7-3.4,0.7-3.4-0.9c-2,1.5-2.3,0.7-3-0.4
	c-1.9,1-4.6,2.4-5.9,2.5c0,0,0,0,0,0c4.1,2.5,15.1,9.4,20,12.3C62.6,57.6,61.2,54.2,61.9,53"></path><path class="st0" d="M52.1,43.4c1-1.4,2.7-0.6,3.2-0.2c0.4-1.4,1.5-1.6,3.1-0.9c-0.2-0.7,0.3-2.1,1.7-1.1c-0.5-1.4,0.5-2.8,2.5-3.1
	c-1.1-1.5,0.7-5.3,1.4-5.9l-0.1,0c-3.7,2.1-13.3,7.5-17.3,9.7C48.3,41.9,50.9,42,52.1,43.4"></path><path class="st0" d="M57.7,31.6c-1.5,1.4-2.9,0.7-3.1-0.1c-0.4,1.8-2,2.4-3.2,1.5c0.5,1.8-0.9,2.5-2,1.9c0.1,1.8-0.6,1.8-1.6,1.9
	c-0.2,1.7-0.5,4-1.1,5.1c0,0,0,0,0,0c4-2.2,13.5-7.6,17.3-9.7C61.4,32.6,58.3,32.4,57.7,31.6"></path><path class="st0" d="M21.1,61.3c1-1.4,2.7-0.6,3.2-0.2c0.4-1.4,1.5-1.6,3.1-0.9c-0.2-0.7,0.3-2.1,1.7-1.1c-0.5-1.4,0.5-2.8,2.5-3.1
	c-1.1-1.5,0.7-5.3,1.4-5.9c0,0-0.1,0-0.1,0c-3.7,2.1-13.3,7.5-17.3,9.7C17.3,59.7,19.9,59.9,21.1,61.3"></path><path class="st0" d="M26.7,49.5c-1.5,1.4-2.9,0.7-3.1-0.1c-0.4,1.8-2,2.4-3.2,1.5c0.5,1.8-0.9,2.5-2,1.9c0.1,1.8-0.6,1.8-1.6,1.9
	c-0.2,1.7-0.5,4-1.1,5.1c0,0,0,0,0,0c4-2.2,13.5-7.6,17.3-9.7C30.4,50.4,27.3,50.3,26.7,49.5"></path><path class="st0" d="M24.4,50.2c1-1.4,2.7-0.6,3.2-0.2c0.4-1.4,1.5-1.6,3.1-0.9c-0.2-0.7,0.3-2.1,1.7-1.1c-0.5-1.4,0.5-2.8,2.5-3.1
	c-1.1-1.5,0.7-5.3,1.4-5.9c0,0-0.1,0-0.1,0C32.5,41.2,23,46.6,19,48.8C20.6,48.7,23.2,48.9,24.4,50.2"></path><path class="st0" d="M30,38.4c-1.5,1.4-2.9,0.7-3.1-0.1c-0.4,1.8-2,2.4-3.2,1.5c0.5,1.8-0.9,2.5-2,1.9c0.1,1.8-0.6,1.8-1.6,1.9
	c-0.2,1.7-0.5,4-1.1,5.1c0,0,0,0,0,0c4-2.2,13.5-7.6,17.3-9.7C33.7,39.4,30.6,39.3,30,38.4"></path><path class="st0" d="M51.5,45.4c-1.1-2,0.8-3.6,1.5-3.9c-1.4-1.3-1.1-2.8,0.6-4.2c-1-0.2-2.4-1.5-0.4-2.7c-2-0.2-3-2.2-2.2-4.7
	c-2.5,0.5-6-3.8-6.2-5c0,0,0,0.1,0,0.1c0.4,5.6,1.4,20,1.8,26C47.5,49,49.2,46,51.5,45.4"></path><path class="st0" d="M40.6,32c0.8,2.5-0.8,3.8-1.9,3.7c1.8,1.5,1.7,3.7,0,4.7c2.4,0.4,2.4,2.5,1.2,3.5c2.2,0.9,1.9,1.7,1.4,3
	c1.9,1.2,4.5,2.9,5.4,4.1c0,0,0,0,0,0c-0.4-6-1.4-20.3-1.8-26C43.8,28.2,41.9,31.8,40.6,32"></path><path class="st0" d="M43.3,39.8c-1.5,1.5-3.4-0.2-3.8-0.9c-1,1.7-2.4,1.6-3.8,0c0,1-1.1,2.8-2.4,0.8c0,2.1-1.8,3.6-4.3,3.2
	c0.6,2.5-3.4,7.1-4.7,7.7c0,0,0.1,0,0.1,0c6.1-1.7,20.1-5.6,25.3-6.9C47.5,43.2,44.3,42.1,43.3,39.8"></path><path class="st0" d="M32.3,53.6c2.5-1.4,4.2,0,4.3,1.1c1.2-2.2,3.4-2.6,4.9-1.1c-0.1-2.5,1.9-3,3.2-1.9c0.2-2.4,1.1-2.2,2.6-2
	c0.6-2.1,1.4-5,2.3-6.1c0,0,0,0,0,0c-5.2,1.4-19.1,5.2-25.3,6.9C27.8,51.1,31.7,52.3,32.3,53.6"></path><path class="st0" d="M40.9,52.2c-1.5,1.5-3.4-0.2-3.8-0.9c-1,1.7-2.4,1.6-3.8,0c0,1-1.1,2.8-2.4,0.8c0,2.1-1.8,3.6-4.3,3.2
	c0.6,2.5-3.4,7.1-4.7,7.7c0,0,0.1,0,0.1,0c6.1-1.7,20.1-5.6,25.3-6.9C45.1,55.6,42,54.4,40.9,52.2"></path><path class="st0" d="M29.9,66c2.5-1.4,4.2,0,4.3,1.1c1.2-2.2,3.4-2.6,4.9-1.1c-0.1-2.5,1.9-3,3.2-1.9c0.2-2.4,1.1-2.2,2.6-2
	c0.6-2.1,1.4-5,2.3-6.1c0,0,0,0,0,0C42,57.4,28.1,61.2,21.9,63C25.4,63.4,29.3,64.6,29.9,66"></path><path class="st0" d="M39.1,49.6c1.7,1.1,0.3,3-0.3,3.5c1.8,0.5,1.9,1.8,0.6,3.3c1-0.1,2.9,0.5,1.2,2c2.1-0.4,3.8,1,3.8,3.2
	c2.4-1,7.6,1.7,8.3,2.8l0-0.1c-2.7-5-8.7-16.6-10.8-20.8C41.7,45.3,41.1,48.3,39.1,49.6"></path><path class="st0" d="M54.4,56.8c-1.8-2-0.7-3.6,0.4-3.9c-2.4-0.7-3.1-2.5-1.8-4.1c-2.4,0.6-3.2-1.1-2.4-2.5
	c-2.4,0.2-2.3-0.6-2.4-1.9c-2.2-0.1-5.1-0.3-6.4-0.9c0,0,0,0,0,0C44,47.7,50,59.2,52.7,64.2C52.6,61.1,53.1,57.5,54.4,56.8"></path><path class="st0" d="M50.7,50.1c1.4-0.7,2.2,1.1,2.2,1.7c1.1-0.8,2-0.3,2.4,1.3c0.4-0.7,1.7-1.4,1.8,0.4c0.7-1.4,2.4-1.7,3.8-0.1
	c0.5-2,4.9-3,5.9-2.5c0,0-0.1-0.1-0.1-0.1c-2.3-1.4-6.3-3.1-10.2-3.9c-3.9-0.9-7.7-0.8-9.6-0.7C48.4,46.8,50.5,48.3,50.7,50.1"></path><path class="st0" d="M62,44.2c-2.3-0.2-3.3-1.8-3.2-2.7c-1.4,1.2-3.2,0.7-4.3-0.9c-0.2,1.9-1.9,1.7-2.9,0.6
	c-0.4,1.7-1.2,1.3-2.3,0.9c-0.6,1.5-1.6,3.4-2.4,4.1l0,0c1.9-0.1,5.7-0.2,9.6,0.7c3.9,0.8,7.9,2.6,10.2,3.9
	C64.7,48.3,62.1,45.5,62,44.2"></path><path class="st1" d="M49.9,42.6c0.1-2.3,2.6-2.6,3.4-2.5c-0.5-1.9,0.5-2.9,2.7-3.2c-0.7-0.6-1.2-2.5,1.1-2.5
	c-1.6-1.2-1.4-3.5,0.6-5.2c-2.3-0.9-3-6.4-2.6-7.5c0,0-0.1,0.1-0.1,0.1c-2.6,5-9.3,17.7-12.1,23C44.7,43.6,47.7,41.9,49.9,42.6"></path><path class="st2" d="M47.8,25.5c-0.6,2.6-2.7,2.8-3.5,2.1c0.8,2.3-0.5,4-2.4,4c1.8,1.6,0.8,3.4-0.8,3.6c1.5,1.9,0.7,2.4-0.4,3.3
	c1,2,2.3,4.8,2.4,6.4c0,0,0,0,0,0c2.8-5.3,9.5-18,12.1-23C52.5,24,49,26,47.8,25.5"></path><path class="st1" d="M36.6,40.3c-2.3-0.3-2-3-1.7-3.8c-2,0.3-2.9-1-2.5-3.2c-0.9,0.6-3.1,0.8-2.3-1.5c-1.8,1.3-4.2,0.8-5.5-1.6
	c-1.7,2.2-8.3,1.7-9.5,1c0,0,0.1,0.1,0.1,0.1c5.4,4,17.7,13.4,22.2,16.8C36.5,46,35.4,42.6,36.6,40.3"></path><path class="st2" d="M17.8,39.9c2.8,1.2,2.7,3.5,1.8,4.3c2.7-0.4,4.4,1.2,4.1,3.5c2-1.7,3.7-0.3,3.7,1.5c2.2-1.4,2.6-0.5,3.3,0.9
	c2.2-0.9,5.1-2.1,6.6-2c0,0,0,0,0,0c-4.5-3.5-16.8-12.8-22.2-16.8C17.1,34.5,18.6,38.6,17.8,39.9"></path><path class="st1" d="M30.2,50.7c-0.2,2-2.5,2.3-3.2,2.2c0.3,1.6-0.7,2.6-2.6,2.8c0.6,0.6,0.9,2.4-1.2,2.2c1.3,1.2,0.9,3.4-1.1,4.9
	c2,1,1.9,6.5,1.3,7.8c0,0,0.1-0.1,0.1-0.1c3.2-5.4,10.5-17.7,13.3-22.2C35.2,49.6,32.3,51.2,30.2,50.7"></path><path class="st2" d="M30.9,66.5c0.9-2.6,2.8-3,3.6-2.4c-0.5-2.1,0.8-3.9,2.8-4.2c-1.6-1.3-0.5-3.1,1.1-3.4c-1.3-1.5-0.5-2.1,0.6-3
	c-0.9-1.6-2-3.9-2.1-5.1c0,0,0,0,0,0c-2.8,4.5-10.1,16.8-13.3,22.2C26.3,68.3,29.7,66.2,30.9,66.5"></path><path class="st1" d="M38.2,53.6c1.5,1.8-0.8,3.3-1.7,3.6c1.7,1.3,1.4,2.7-0.6,3.8c1.2,0.2,3,1.7,0.6,2.6c2.4,0.4,3.8,2.5,2.9,4.9
	c3-0.1,7.6,4.8,8,6.2c0,0,0-0.1,0-0.1c-1-6.4-3-20.9-3.7-26.3C42.8,50.1,41,53,38.2,53.6"></path><path class="st2" d="M52.2,67.2c-1.2-2.8,0.7-4.1,2-4c-2.4-1.6-2.4-3.9-0.4-5.1c-2.9-0.4-3.1-2.5-1.7-3.6c-2.8-0.7-2.3-1.6-1.8-3
	c-2.3-1-5.5-2.4-6.6-3.5c0,0,0,0,0,0c0.7,5.4,2.7,19.9,3.7,26.3C48.5,71.2,50.6,67.5,52.2,67.2"></path><path class="st1" d="M53.3,53.4c1.4-0.7,2.2,1.1,2.2,1.7c1.1-0.8,2-0.3,2.4,1.3c0.4-0.7,1.7-1.4,1.8,0.4c0.7-1.4,2.4-1.7,3.8-0.1
	c0.5-2,4.9-3,5.9-2.5c0,0-0.1-0.1-0.1-0.1c-2.3-1.4-6.3-3.1-10.2-3.9c-3.9-0.9-7.7-0.8-9.6-0.7C51.1,50.1,53.2,51.6,53.3,53.4"></path><path class="st2" d="M64.7,47.6c-2.3-0.2-3.3-1.8-3.2-2.7c-1.4,1.2-3.2,0.7-4.3-0.9c-0.2,1.9-1.9,1.7-2.9,0.6
	c-0.4,1.7-1.2,1.3-2.3,0.9c-0.6,1.5-1.6,3.4-2.4,4.1l0,0c1.9-0.1,5.7-0.2,9.6,0.7c3.9,0.8,7.9,2.6,10.2,3.9
	C67.4,51.6,64.8,48.8,64.7,47.6"></path><path class="st0" d="M78.5,50.7c-0.7-1.9-2.9-1-3.5-0.5c-0.1-1.9-1.3-2.3-3.1-1.4c0.4-1,0.1-2.9-1.6-1.6c0.8-1.9-0.1-3.9-2.3-4.5
	c1.5-2.1,0-7.8-0.8-8.7c0,0,0.1,0,0.1,0c4.3,3.8,14.2,12.2,17.9,15.3C83.3,49.1,80.2,49.1,78.5,50.7"></path><path class="st0" d="M75,34.2c1.5,2.2,3.4,1.5,3.9,0.5c0.1,2.5,1.8,3.6,3.6,2.7c-1.1,2.3,0.4,3.4,1.9,2.9c-0.8,2.3,0.1,2.4,1.3,2.7
	c-0.4,2.2-0.8,5.1-0.5,6.4c0,0,0,0,0,0c-3.7-3.1-13.6-11.5-17.9-15.3C70.3,35,74,35.2,75,34.2"></path><path class="st0" d="M58.1,41.1c-0.7-1.9-2.9-1-3.5-0.5c-0.1-1.9-1.3-2.3-3.1-1.4c0.4-1,0.1-2.9-1.6-1.6c0.8-1.9-0.1-3.9-2.3-4.5
	c1.5-2.1,0-7.8-0.8-8.7c0,0,0.1,0,0.1,0c4.3,3.8,14.2,12.2,17.9,15.3C62.8,39.5,59.8,39.4,58.1,41.1"></path><path class="st0" d="M54.5,24.5c1.5,2.2,3.4,1.5,3.9,0.5c0.1,2.5,1.8,3.6,3.6,2.7c-1.1,2.3,0.4,3.4,1.9,2.9
	c-0.8,2.3,0.1,2.4,1.3,2.7c-0.4,2.2-0.8,5.1-0.5,6.4c0,0,0,0,0,0C61,36.7,51.1,28.2,46.8,24.5C49.8,25.3,53.5,25.6,54.5,24.5"></path><path class="st0" d="M66.6,31c1.1-1.4-0.2-2.8-0.8-3.1c1.2-0.9,1.1-2-0.1-3.2c0.7,0,1.9-0.9,0.5-2c1.5,0,2.5-1.4,2.1-3.3
	c1.8,0.6,4.9-2.3,5.1-3.2c0,0,0,0.1,0,0.1c-0.9,4.2-3,14.9-3.9,19.4C69.2,34.1,68.3,31.7,66.6,31"></path><path class="st0" d="M76.1,22c-0.9,1.8,0.2,2.9,1.1,2.9c-1.5,1-1.7,2.6-0.5,3.5c-1.8,0.1-2.1,1.6-1.2,2.5c-1.8,0.4-1.6,1.1-1.3,2.1
	c-1.6,0.7-3.7,1.7-4.5,2.6c0,0,0,0,0,0c0.9-4.5,3.1-15.2,3.9-19.4C74.1,18.8,75.1,21.6,76.1,22"></path><path class="st0" d="M59.1,65.9c1.1-1.4-0.2-2.8-0.8-3.1c1.2-0.9,1.1-2-0.1-3.2c0.7,0,1.9-0.9,0.5-2c1.5,0,2.5-1.4,2.1-3.3
	c1.8,0.6,4.9-2.3,5.1-3.2c0,0,0,0.1,0,0.1c-0.9,4.2-3,14.9-3.9,19.4C61.7,69,60.8,66.7,59.1,65.9"></path><path class="st0" d="M68.6,57c-0.9,1.8,0.2,2.9,1.1,2.9c-1.5,1-1.7,2.6-0.5,3.5c-1.8,0.1-2.1,1.6-1.2,2.5c-1.8,0.4-1.6,1.1-1.3,2.1
	c-1.6,0.7-3.7,1.7-4.5,2.6c0,0,0,0,0,0c0.9-4.5,3.1-15.2,3.9-19.4C66.6,53.8,67.7,56.6,68.6,57"></path><path class="st0" d="M68.6,59.4c1.1-1.4-0.2-2.8-0.8-3.1c1.2-0.9,1.1-2-0.1-3.2c0.7,0,1.9-0.9,0.5-2c1.5,0,2.5-1.4,2.1-3.3
	c1.8,0.6,4.9-2.3,5.1-3.2c0,0,0,0.1,0,0.1c-0.9,4.2-3,14.9-3.9,19.4C71.2,62.5,70.3,60.1,68.6,59.4"></path><path class="st0" d="M78.1,50.4c-0.9,1.8,0.2,2.9,1.1,2.9c-1.5,1-1.7,2.6-0.5,3.5c-1.8,0.1-2.1,1.6-1.2,2.5
	c-1.8,0.4-1.6,1.1-1.3,2.1c-1.6,0.7-3.7,1.7-4.5,2.6c0,0,0,0,0,0c0.9-4.5,3.1-15.2,3.9-19.4C76,47.2,77.1,50.1,78.1,50.4"></path><path class="st0" d="M64.9,32.2c2.2,0.5,3.2-1.9,3.3-2.7c1.7,0.9,3,0.2,3.8-1.9c0.5,0.9,2.2,1.8,2.7-0.5c0.8,1.8,3,2.2,5.2,0.6
	c0.3,2.5,5.5,4.5,6.7,4.3c0,0-0.1,0.1-0.1,0.1c-5.5,1.3-19.4,4.8-25.3,6.3C62.7,37,65,34.5,64.9,32.2"></path><path class="st0" d="M80.9,38.4c-2.7,0-3.4,1.9-2.9,2.9c-2-1.3-4-0.5-4.5,1.4c-1.2-2.1-3.1-1.6-3.7-0.1c-1.5-1.9-2.2-1.2-3.3-0.4
	c-1.7-1.5-4.1-3.4-5.6-3.9c0,0,0,0,0,0c5.8-1.4,19.8-4.9,25.3-6.3C83.6,34.1,80.8,37,80.9,38.4"></path><path class="st0" d="M72.7,38.2c-0.9,1.9,1.2,3.2,2.1,3.3c-1.3,1.4-0.8,2.7,1.2,3.7c-1,0.4-2.3,1.9-0.1,2.6c-2,0.7-2.9,2.8-1.7,5.1
	c-2.6,0.2-5.7,5.5-5.8,6.9c0,0,0-0.1-0.1-0.1c-0.2-6.4-0.9-20.8-1.2-26.2C68.2,35.2,70.2,37.9,72.7,38.2"></path><path class="st0" d="M63,52.9c0.6-2.9-1.2-4-2.4-3.7c1.8-1.8,1.4-4-0.5-5c2.4-0.6,2.3-2.7,0.8-3.7c2.2-1,1.7-1.8,1.1-3.1
	c1.8-1.2,4.3-2.9,5.1-4.1c0,0,0,0,0,0c0.3,5.3,1,19.8,1.2,26.2C66.8,56.4,64.4,53.1,63,52.9"></path><path class="st0" d="M61.6,44.3c-0.9,1.9,1.2,3.2,2.1,3.3c-1.3,1.4-0.8,2.7,1.2,3.7c-1,0.4-2.3,1.9-0.1,2.6c-2,0.7-2.9,2.8-1.7,5.1
	c-2.6,0.2-5.7,5.5-5.8,6.9c0,0,0-0.1-0.1-0.1C57,59.3,56.3,44.8,56,39.5C57.2,41.3,59.2,44,61.6,44.3"></path><path class="st0" d="M51.9,59c0.6-2.9-1.2-4-2.4-3.7c1.8-1.8,1.4-4-0.5-5c2.4-0.6,2.3-2.7,0.8-3.7c2.2-1,1.7-1.8,1.1-3.1
	c1.8-1.2,4.3-2.9,5.1-4.1c0,0,0,0,0,0c0.3,5.3,1,19.8,1.2,26.2C55.8,62.5,53.4,59.1,51.9,59"></path><path class="st0" d="M64.7,45.2c-1.6-1.3-3,0.6-3.2,1.4c-1.1-1.5-2.3-1.3-3.4,0.4c-0.2-1-1.4-2.6-2.2-0.5c-0.3-2.1-2.1-3.3-4.2-2.7
	c0.2-2.6-4-6.7-5.2-7c0,0,0.1,0,0.1,0c5.6,1,18.4,3.2,23.2,3.9C68,41.4,65.4,42.9,64.7,45.2"></path><path class="st0" d="M53.2,32.9c2.4,1.1,3.7-0.4,3.6-1.6c1.4,2.1,3.4,2.1,4.5,0.5c0.2,2.5,2.1,2.7,3.1,1.5c0.5,2.4,1.3,2,2.5,1.6
	c0.8,2,1.9,4.8,2.8,5.8c0,0,0,0,0,0c-4.7-0.8-17.6-2.9-23.2-3.9C49.6,35.9,52.9,34.3,53.2,32.9"></path><path class="st0" d="M60.6,34.4c0.2-1.5-1.7-1.8-2.3-1.6c0.5-1.3-0.3-2-2-1.9c0.5-0.5,0.8-2-0.9-1.6c1.1-1.1,0.8-2.8-1.1-3.7
	c1.8-1.1,1.4-5.6,0.5-6.4c0,0,0.1,0,0.1,0.1c2,1.8,4.9,5,6.9,8.5c2.1,3.4,3.2,7.1,3.6,9C64.5,35.5,62.4,34,60.6,34.4"></path><path class="st0" d="M62.7,21.8c0.9,2.1,2.7,2.6,3.6,2.2c-0.7,1.7,0.4,3.3,2.2,3.8c-1.8,0.8-1,2.3,0.3,3c-1.5,1-0.9,1.5-0.2,2.5
	c-1.2,1.1-2.8,2.6-3.1,3.5c0,0,0,0,0,0c-0.5-1.9-1.6-5.5-3.6-9c-2-3.5-4.9-6.7-6.9-8.5C58,20.4,61.5,22,62.7,21.8"></path><path class="st1" d="M68,32.7c2.1-0.8,1.7-3.3,1.4-4c1.9-0.1,2.6-1.4,2.2-3.6c0.8,0.5,2.8,0.4,2-1.8c1.6,1.1,3.7,0.3,4.7-2.2
	c1.6,1.9,7,0.9,8,0.2c0,0,0,0.1-0.1,0.1c-4,4-14,14.3-18.2,18.6C68.7,38,69.3,34.7,68,32.7"></path><path class="st2" d="M84.9,29.6C82.7,31,83,33,84,33.6c-2.4,0-3.7,1.7-3,3.6c-2.1-1.2-3.5,0.3-3.1,1.9c-2.3-0.8-2.5,0.1-3,1.4
	c-2.2-0.3-5.3-0.7-6.8-0.3c0,0,0,0,0,0c4.2-4.3,14.2-14.6,18.2-18.6C84.9,24.6,84.1,28.5,84.9,29.6"></path><path class="st1" d="M74.3,44.7c1,2,3.5,1,4.2,0.4c0.4,2,1.8,2.4,3.8,1.4c-0.3,1,0.2,3.2,2.1,1.7c-0.7,2.1,0.5,4.3,3.2,4.7
	c-1.5,2.3,0.9,8.4,2,9.4c-0.1,0-0.1,0-0.2,0c-5.5-3.9-18.2-12.7-22.9-15.9C68.9,46.6,72.4,46.6,74.3,44.7"></path><path class="st2" d="M80.4,62.5c-2-2.3-4.2-1.5-4.7-0.4c-0.4-2.7-2.5-3.8-4.6-2.8c1-2.5-0.8-3.7-2.6-3.1c0.6-2.5-0.4-2.6-1.9-2.9
	c0.2-2.3,0.4-5.5-0.1-6.9c0,0,0,0,0,0c4.7,3.2,17.3,12,22.9,15.9C85.8,61.5,81.5,61.3,80.4,62.5"></path><path class="st1" d="M66.3,54c-1.8,0.8-1.5,3.1-1.1,3.7c-1.7,0.2-2.3,1.4-1.8,3.4c-0.8-0.4-2.5-0.1-1.8,1.8
	c-1.5-0.8-3.5,0.2-4.4,2.5c-1.5-1.6-6.8,0.2-7.8,1.1c0,0,0-0.1,0.1-0.1c4.2-4.7,13.6-15.5,17-19.5C65.9,49,65.2,52.2,66.3,54"></path><path class="st2" d="M51.1,58.2c2.2-1.7,2-3.6,1.2-4.2c2.2-0.2,3.5-2,3.1-3.9c1.8,1.1,3.1-0.5,2.9-2.1c1.9,0.8,2.1-0.1,2.7-1.5
	c1.8,0.3,4.3,0.8,5.5,0.4c0,0,0,0,0,0c-3.5,4-12.9,14.8-17,19.5C50.8,63.2,51.8,59.2,51.1,58.2"></path><path class="st1" d="M61.2,47.3c-2.2-0.8-2.9,1.8-2.9,2.7c-1.7-1.3-3-0.5-3.4,1.8c-0.6-1-2.5-2.3-2.6,0.3c-1.2-2.2-3.6-2.9-5.6-1.3
	c-0.8-2.9-6.9-5.8-8.4-5.7c0,0,0.1-0.1,0.1-0.1c6.4-1,20.8-3.6,26.2-4.6C63,41.9,60.9,44.5,61.2,47.3"></path><path class="st2" d="M43.9,38.2c3,0.3,3.7-1.9,3.2-3.1c2.3,1.8,4.4,1.1,5-1.2c1.2,2.7,3.3,2.2,3.9,0.5c1.5,2.4,2.2,1.7,3.4,0.8
	c1.7,1.9,4,4.5,5.4,5.2c0,0,0,0,0,0c-5.3,1-19.8,3.5-26.2,4.6C41.3,42.9,44.1,39.8,43.9,38.2"></path><path class="st1" d="M56.7,32.9c0.2-1.5-1.7-1.8-2.3-1.6c0.5-1.3-0.3-2-2-1.9c0.5-0.5,0.8-2-0.9-1.6c1.1-1.1,0.8-2.8-1.1-3.7
	c1.8-1.1,1.4-5.6,0.5-6.4c0,0,0.1,0,0.1,0.1c2,1.8,4.9,5,6.9,8.5c2.1,3.4,3.2,7.1,3.6,9C60.5,34,58.4,32.4,56.7,32.9"></path><path class="st2" d="M58.8,20.2c0.9,2.1,2.7,2.6,3.6,2.2c-0.7,1.7,0.4,3.3,2.2,3.8c-1.8,0.8-1,2.3,0.3,3c-1.5,1-0.9,1.5-0.2,2.5
	c-1.2,1-2.8,2.6-3.1,3.5c0,0,0,0,0,0c-0.5-1.9-1.6-5.5-3.6-9c-2-3.5-4.9-6.7-6.9-8.5C54.1,18.9,57.6,20.5,58.8,20.2"></path><path class="st0" d="M57.4,84.7c-1.5-1.3,0.1-3,0.8-3.4c-1.7-0.8-1.7-2.1-0.1-3.4c-1,0-2.8-0.9-0.9-2.1c-2.1,0-3.6-1.5-3.3-3.7
	c-2.5,0.6-7.2-2.8-7.8-4c0,0,0,0.1,0,0.1c1.9,5.4,6.1,17.7,7.7,22.2C54.2,88.5,55.2,85.7,57.4,84.7"></path><path class="st0" d="M43.3,75.3c1.5,2.2,0.2,3.7-1,3.8c2.3,1,2.7,3,1.2,4.3c2.5-0.2,3,1.6,2,2.8c2.4,0.1,2.2,1,2,2.2
	c2.1,0.4,5,1.1,6.2,1.9c0,0,0,0,0,0c-1.5-4.6-5.7-16.8-7.7-22.2C45.8,71.2,44.7,74.8,43.3,75.3"></path><path class="st0" d="M55.9,62.1c-1.5-1.3,0.1-3,0.8-3.4c-1.7-0.8-1.7-2.1-0.1-3.4c-1,0-2.8-0.9-0.9-2.1c-2.1,0-3.6-1.5-3.3-3.7
	c-2.5,0.6-7.2-2.8-7.8-4c0,0,0,0.1,0,0.1c1.9,5.4,6.1,17.7,7.7,22.2C52.7,65.9,53.7,63.1,55.9,62.1"></path><path class="st0" d="M41.9,52.7c1.5,2.2,0.2,3.7-1,3.8c2.3,1,2.7,3,1.2,4.4c2.5-0.2,3,1.6,2,2.8c2.4,0.1,2.2,1,2,2.2
	c2.1,0.4,5,1.1,6.2,1.9c0,0,0,0,0,0c-1.5-4.6-5.7-16.8-7.7-22.2C44.3,48.6,43.2,52.2,41.9,52.7"></path><path class="st0" d="M43.4,66.3c-1.7,0.5-2.5-1.2-2.6-1.9c-1.2,0.8-2.2,0.3-2.9-1.2c-0.3,0.7-1.6,1.5-2-0.2
	c-0.5,1.4-2.2,1.8-3.9,0.8c-0.1,1.9-3.9,3.7-4.8,3.6c0,0,0.1,0,0.1,0.1c4.2,0.7,15,2.7,19.5,3.4C45.3,69.9,43.4,68.2,43.4,66.3"></path><path class="st0" d="M31.5,71.9c2-0.1,2.7,1.3,2.3,2.1c1.5-1.1,3-0.6,3.5,0.8c0.8-1.7,2.3-1.3,2.8-0.2c1-1.5,1.6-1.1,2.5-0.5
	c1.2-1.2,2.9-2.8,4.1-3.2c0,0,0,0,0,0c-4.5-0.8-15.3-2.7-19.5-3.4C29.3,68.8,31.6,70.9,31.5,71.9"></path><path class="st0" d="M78.7,72.2c-1.7,0.5-2.5-1.2-2.6-1.9c-1.2,0.8-2.2,0.3-2.9-1.2c-0.3,0.7-1.6,1.5-2-0.2
	c-0.5,1.4-2.2,1.8-3.9,0.8c-0.1,1.9-3.9,3.7-4.8,3.6c0,0,0.1,0,0.1,0.1c4.2,0.7,15,2.7,19.5,3.4C80.6,75.8,78.7,74,78.7,72.2"></path><path class="st0" d="M66.8,77.8c2-0.1,2.7,1.3,2.3,2.1c1.5-1.1,3-0.6,3.5,0.8c0.8-1.7,2.3-1.3,2.8-0.2c1-1.5,1.6-1.1,2.5-0.5
	c1.2-1.2,2.9-2.8,4.1-3.2c0,0,0,0,0,0c-4.5-0.8-15.3-2.7-19.5-3.4C64.6,74.7,66.9,76.7,66.8,77.8"></path><path class="st0" d="M69.1,78.6c-1.7,0.5-2.5-1.2-2.6-1.9c-1.2,0.8-2.2,0.3-2.9-1.2c-0.3,0.7-1.6,1.5-2-0.2
	c-0.5,1.4-2.2,1.8-3.9,0.8c-0.1,1.9-3.9,3.7-4.8,3.6c0,0,0.1,0,0.1,0.1c4.2,0.7,15,2.7,19.5,3.5C71.1,82.2,69.2,80.4,69.1,78.6"></path><path class="st0" d="M57.3,84.2c2-0.1,2.7,1.3,2.3,2.1c1.5-1.1,3-0.6,3.5,0.8c0.8-1.7,2.3-1.3,2.8-0.2c1-1.5,1.6-1.1,2.5-0.5
	c1.2-1.2,2.9-2.8,4.1-3.2l0,0c-4.5-0.8-15.3-2.7-19.5-3.5C55.1,81.1,57.3,83.1,57.3,84.2"></path><path class="st0" d="M45.1,65.2c-0.4,2.2-2.9,2.3-3.7,2.1c0.2,1.9-0.9,2.8-3.1,2.8c0.6,0.7,0.9,2.7-1.4,2.3c1.4,1.4,0.9,3.6-1.3,5
	c2.2,1.2,2.2,6.8,1.6,7.8c0,0,0.1-0.1,0.1-0.1c3.3-4.6,11.6-16.3,15.1-21.2C50.4,64.9,47.3,66.1,45.1,65.2"></path><path class="st0" d="M45,82.4c1-2.5,3-2.5,3.8-1.6c-0.5-2.3,1-3.9,3-3.6c-1.5-1.9-0.3-3.5,1.3-3.4c-1.2-2.1-0.4-2.5,0.8-3.2
	c-0.7-2.1-1.7-5.1-1.5-6.6c0,0,0,0,0,0c-3.5,4.9-11.8,16.6-15.1,21.2C40.1,83.3,43.8,81.8,45,82.4"></path><path class="st0" d="M47.9,74.6c2.1-0.2,2.5,2.3,2.3,3.1c1.8-0.7,2.8,0.3,3,2.4c0.7-0.8,2.6-1.4,2.4,0.9c1.3-1.6,3.7-1.6,5.4,0.3
	c1.1-2.4,7.2-3.3,8.5-2.9c0,0-0.1-0.1-0.1-0.1c-5.8-2.5-19-8.5-23.9-10.7C46.8,69.4,48.5,72.3,47.9,74.6"></path><path class="st0" d="M65.2,71c-2.9-0.5-3.2-2.6-2.6-3.6c-2.4,1-4.3-0.2-4.5-2.3c-1.5,2-3.3,1.1-3.7-0.6c-1.7,1.7-2.3,1-3.2-0.1
	c-1.8,1.3-4.3,3-5.6,3.3c0,0,0,0,0,0c4.9,2.2,18.1,8.2,23.9,10.7C67,75.8,64.7,72.4,65.2,71"></path><path class="st0" d="M57.6,66.6c2.1-0.2,2.5,2.3,2.3,3.1c1.8-0.7,2.8,0.3,3,2.4c0.7-0.8,2.6-1.4,2.4,0.9c1.3-1.6,3.7-1.6,5.4,0.3
	c1.1-2.4,7.2-3.3,8.5-2.9c0,0-0.1-0.1-0.1-0.1c-5.8-2.5-19-8.5-23.9-10.7C56.5,61.3,58.2,64.2,57.6,66.6"></path><path class="st0" d="M74.9,63c-2.9-0.5-3.2-2.6-2.6-3.6c-2.4,1-4.3-0.2-4.5-2.3c-1.5,2-3.3,1.1-3.7-0.6c-1.7,1.7-2.3,1-3.2-0.1
	c-1.8,1.3-4.3,3-5.6,3.3c0,0,0,0,0,0c4.9,2.2,18.1,8.2,23.9,10.7C76.7,67.8,74.4,64.3,74.9,63"></path><path class="st0" d="M57.4,69.8c-0.6-1.9,1.7-2.5,2.5-2.5c-1-1.6-0.4-2.6,1.6-3c-0.9-0.5-1.9-2.2,0.3-2.3c-1.8-1-2.3-3.2-0.9-4.9
	c-2.5-0.7-4.8-6.2-4.6-7.4c0,0-0.1,0.1-0.1,0.1c-1.1,5.6-3.8,18.3-4.9,23C52.6,71.5,55,69.6,57.4,69.8"></path><path class="st0" d="M50.1,54.5c0.1,2.7-1.8,3.2-2.8,2.7c1.4,2,0.8,3.9-1.2,4.3c2.2,1.1,1.8,2.9,0.3,3.5c2,1.4,1.4,2,0.6,3
	c1.6,1.5,3.8,3.5,4.3,4.8c0,0,0,0,0,0c1-4.7,3.7-17.4,4.9-23C54.3,52.3,51.5,54.8,50.1,54.5"></path><path class="st0" d="M48.8,62c-1.5-0.4-1-2.3-0.7-2.7c-1.4,0-1.8-1.1-1.1-2.5c-0.7,0.3-2.2,0-1.1-1.4c-1.4,0.6-2.9-0.3-3-2.4
	c-1.7,1.2-5.7-0.7-6.2-1.8c0,0,0,0.1,0,0.1c0.9,2.5,2.9,6.4,5.4,9.5c2.4,3.2,5.4,5.5,7,6.7C48.4,66,47.7,63.5,48.8,62"></path><path class="st0" d="M36.2,59.4c1.7,1.6,1.4,3.5,0.7,4.1c1.9,0,2.9,1.5,2.7,3.4c1.4-1.3,2.5-0.1,2.6,1.4c1.4-1.1,1.7-0.3,2.4,0.7
	c1.4-0.7,3.4-1.6,4.4-1.6c0,0,0,0,0,0c-1.6-1.1-4.6-3.5-7-6.7c-2.5-3.1-4.5-7-5.4-9.5C36.7,54.5,36.9,58.3,36.2,59.4"></path><path class="st1" d="M44.5,68.3c-1.5,1.7-3.7,0.4-4.2-0.2c-0.8,1.7-2.3,1.9-4.1,0.7c0.1,1-0.7,2.7-2.4,1.2c0.4,1.9-1.1,3.6-3.8,3.6
	c1.2,2.2-1.7,6.9-2.8,7.5c0,0,0.1,0,0.1,0c5.2-2.2,18.5-7.8,24-10.1C49.2,70.8,45.9,70.3,44.5,68.3"></path><path class="st2" d="M35.4,82.9c2.1-1.6,3.9-0.5,4.1,0.6c0.8-2.2,2.9-2.8,4.4-1.5c-0.3-2.4,1.6-3.1,2.9-2.2c0.1-2.4,1-2.3,2.4-2.3
	c0.5-2.2,1.3-5.2,2.2-6.4c0,0,0,0,0,0c-5.5,2.3-18.8,7.9-24,10.1C30.7,81,34.7,81.7,35.4,82.9"></path><path class="st1" d="M53.4,78.5c1.5,1.7-0.3,3.6-1.1,4c1.7,1.1,1.6,2.6-0.1,4.1c1.1,0.1,2.9,1.3,0.8,2.6c2.2,0.1,3.8,2.1,3.2,4.7
	c2.7-0.6,7.5,3.9,8,5.3c0-0.1,0-0.1,0-0.2C62.5,92.5,59,77.5,57.7,72C57.1,74.2,55.8,77.5,53.4,78.5"></path><path class="st2" d="M67.6,90.7c-1.4-2.8,0.1-4.4,1.4-4.5c-2.3-1.4-2.6-3.7-0.9-5.3c-2.7,0.1-3.1-2.1-1.9-3.5
	c-2.6-0.3-2.3-1.3-2-2.8c-2.2-0.7-5.3-1.7-6.4-2.7c0,0,0,0,0,0c1.3,5.5,4.8,20.5,6.5,27.1C64.7,95.4,66.2,91.3,67.6,90.7"></path><path class="st1" d="M64.9,74.5c1.4-1.4,3.4-0.2,3.9,0.3c0.8-1.5,2.2-1.6,3.8-0.5c-0.1-0.8,0.9-2.4,2.3-1c-0.2-1.7,1.4-3.2,4-3.1
	c-0.9-2,2.7-6.3,3.9-6.9c0,0-0.1,0-0.1,0c-5.9,2.2-19.4,7-24.4,8.7C60.4,72.3,63.6,72.8,64.9,74.5"></path><path class="st2" d="M74.4,61.9c-2.4,1.5-4.1,0.5-4.3-0.4c-1,2-3.1,2.5-4.8,1.5c0.4,2-1.6,2.7-3,2c0,2-0.9,1.9-2.4,1.9
	c-0.3,1.8-0.9,4.3-1.6,5.3c0,0,0,0,0,0c5-1.7,18.5-6.5,24.4-8.7C79.1,63.5,75.1,62.9,74.4,61.9"></path><path class="st1" d="M60.5,67.2c0-2.3,2.7-2.1,3.6-1.7c-0.5-2.1,0.6-3,2.9-2.5c-0.8-0.9-1.2-3.2,1.2-2.3c-1.6-1.9-1.3-4.4,0.9-5.6
	c-2.4-1.8-2.8-8.6-2.2-9.9c0,0-0.1,0.1-0.1,0.1c-3.3,5.5-11,18.1-13.8,22.7C54.8,67,58.1,65.9,60.5,67.2"></path><path class="st2" d="M58.4,47.8c-0.9,2.9-3.1,2.8-4.1,1.8c0.8,2.8-0.6,4.5-2.9,4.2c2,2.1,0.8,3.9-1,3.8c1.7,2.3,0.8,2.7-0.5,3.4
	c1.2,2.3,2.7,5.3,2.9,6.9c0,0,0,0,0,0c2.9-4.6,10.5-17.1,13.8-22.7C63.8,47.2,59.9,48.6,58.4,47.8"></path><path class="st1" d="M48.8,57.8c-1.5-0.4-1-2.3-0.7-2.7c-1.4,0-1.8-1.1-1.1-2.5c-0.7,0.3-2.2,0-1.1-1.4c-1.4,0.6-2.9-0.3-3-2.4
	c-1.7,1.2-5.7-0.7-6.2-1.8c0,0,0,0.1,0,0.1c0.9,2.5,2.9,6.4,5.4,9.5c2.4,3.2,5.4,5.5,7,6.7C48.4,61.8,47.8,59.3,48.8,57.8"></path><path class="st2" d="M36.3,55.1c1.7,1.6,1.4,3.5,0.7,4.1c1.9,0,2.9,1.5,2.7,3.4c1.4-1.3,2.5-0.1,2.6,1.4c1.4-1.1,1.7-0.3,2.4,0.7
	c1.4-0.7,3.4-1.6,4.4-1.6c0,0,0,0,0,0c-1.6-1.1-4.6-3.5-7-6.7c-2.5-3.1-4.5-7-5.4-9.5C36.8,50.2,37,54.1,36.3,55.1"></path><path class="st3" d="M12.3,39.3c0,0,5,3.6,17.3,4.5"></path><path class="st3" d="M16,36.9c0,0,5.7,4.6,12.6,5.9"></path><line class="st3" x1="19.3" y1="32.7" x2="28.6" y2="40.6"></line><line class="st3" x1="22.3" y1="29.3" x2="29.9" y2="39.9"></line><line class="st3" x1="26" y1="26.7" x2="31" y2="37.8"></line><line class="st3" x1="44.8" y1="48.6" x2="31" y2="43.3"></line><path class="st3" d="M18.2,47.8c0,0,9.9-1.7,11.4-2.4"></path><path class="st3" d="M32.7,45.9c0,0,1.3,8.9-1.7,14.4"></path><line class="st3" x1="33.3" y1="25.9" x2="33.3" y2="39.9"></line><path class="st4" d="M28.6,36.7c0,0.1,0.5,0.8-1,0.7c-1.5-0.2-1.5-1-1.5-0.2c0.1,0.8,0.7,1.5,0,1.7c-0.7,0.2-2.2,0-2.2,0
	s1.9,1.1,1.3,1.8c-0.6,0.7-1.3,0.8-1.3,0.8s0.9,1.5,0.5,1.3s-1.5-0.5-1.8-0.8s2.8,0.4,1.3,1.2s-3.1,0.6-1.5,0.7
	c1.6,0.2,3.1-0.4,2.8,0.4s-1.6,1.7-1.8,1.7c-0.2-0.1,0.7,1.4,0.7,1.4s1.2,0.4,1.6,0.4c0.4,0,1.4,0.6,2,0.4s1-0.8,1.6-0.4
	c0.6,0.5,0.6-1.4,1.5,0c0.9,1.4,0.2,1.3,1.2,1.6c1,0.3,1.2-0.1,1.8-0.7c0.6-0.6-0.6-0.1,0.9-0.8s2.6-1.2,2.9-2
	c0.3-0.8,0.3-1.2,0.5-2.6c0.2-1.3,1.5-1.6,0-3.4c-1.5-1.8-1.5-3.4-2.4-2.9s-2.8-0.3-3.3-0.9c-0.5-0.7-0.9-1.3-1.3-1.1
	c-0.4,0.2-0.7,1.4-0.7,1.4L28.6,36.7z"></path><path class="st5" d="M43.4,23.2c-0.6,0.2-0.9,0.3-1.5,0.6c-0.6,0.4-1.5,0.7-1.6,0.7c-0.1,0,0.9,0.9,0.3,1c-0.6,0.1-0.5,0.4-0.7,0.7
	c-0.2,0.3-0.1,0.3-0.7,1.2c-0.5,0.8-0.2,1.2,0.5,1.5c0.7,0.3,1.7-0.3,1.7,0c0.1,1-0.7,1.5,0,1.8s1.6-0.4,1.6-0.4s0.6,1.4,1.8,1.1
	c1.2-0.3,2.6-0.7,2.2-1.7s-1-1.6-0.9-2c0.1-0.5,1.3-0.6,1.3-0.6s0.6,0,1.3-0.8c0.7-0.8-0.3-1.2,0.8-1.5c1.1-0.3,2.4-1.2,1.7-1.5
	c-0.6-0.3-1.4,0.1-1.7,0c-0.3-0.1-0.6,0-0.4-0.7c0.2-0.6,0.1-1-0.3-0.9c-0.4,0.1-0.4,0.1-0.4,0.1s-0.5-0.8-1.3-0.1
	c-0.8,0.7-1,0.6-1.3,1.4S44,23,43.4,23.2z"></path><path class="st5" d="M18.9,54.8c0,0-1.2-2.3-2.7-1.6c-1.5,0.7-2.4,0.6-2.8,1.6c-0.4,1-0.7,1.6,0.7,2.1c1.4,0.5,3.1,0.9,3.1,0.9
	s-1.7,1.2-1.9,1.3S14,59.6,14.2,61c0.2,1.4,0,1.9,0.6,1.9s1.5-0.2,1.6,0s-1.1,2-0.4,2.2s0.2,0.6,1.7,0c1.5-0.6,1.8-2.4,2-2.9
	c0.2-0.5,0.6-0.2,0.7,0.7s0.2,1.7,0.7,1.8c0.4,0.2,0.8,0.1,2.1-0.4c1.2-0.5,1.8-1.3,1.9-1.7s-0.7-1.7-0.8-2.3
	c-0.1-0.6-1.1-0.4-0.3-1.4c0.8-1,2.1-2.3,2.1-2.5c0-0.2-1.4-2.1-1.6-2.5c-0.2-0.4-0.4-1.7-0.9-1.5s-0.9,0.6-2,1
	C20.4,53.9,18.9,54.8,18.9,54.8z"></path><path class="st5" d="M38.8,54.5c0,0,2.9-1.8,4.2-2c1.3-0.1,1.5-0.1,2.1,0c0.6,0.1,1,1.7,1,2s0.4,0.7,0.2,1.1c-0.2,0.4-0.6,0.7-1.1,1
	c-0.5,0.3-2.7,1.3-3.2,1.3c-0.5,0,0,0.9,0.2,1.1c0.2,0.2,1.2,2.9,1.2,3.6s0.2,1.2-0.2,1.3c-0.4,0.1-1-0.4-1.2-0.6
	c-0.2-0.2-0.6,0-0.7,0.6c-0.2,0.5,0.8,1.4-1,1.1s-2.4-0.6-2.8-1.8s-0.2-2.5-0.4-2.9c-0.2-0.4-0.9,0.2-1.5,0.7
	c-0.7,0.5-1.5,0.9-2.5,1c-1,0.2-1.9-0.6-2.1-1c-0.2-0.4-1.6-0.4-1.2-1.2c0.4-0.7,0.1-0.9,2-2.1c1.9-1.2,3.5-2.1,3.9-2.1
	c0.4,0,1.6,0.5-0.7-0.9s-3.4-1-3.5-1.8s-0.1-1.1-0.4-1.7c-0.2-0.6-0.8-1.3,0.1-1.2c0.9,0.1,3.1,1.2,3.8,1.6c0.7,0.4,0.9,1.1,1,0.6
	s-1.3-1.1-0.9-2.2c0.4-1.1,1-1.8,1.3-2s0.9-0.2,1.5-0.4s1-0.1,1.4,0.6c0.4,0.7,1.4,1.2,1.4,2c0,0.7-0.4,1.1-0.6,1.7
	C39.7,52.6,38.8,54.5,38.8,54.5z"></path><ellipse transform="matrix(0.1082 -0.9941 0.9941 0.1082 11.6345 66.4031)" class="st6" cx="42.8" cy="26.7" rx="0.7" ry="1.1"></ellipse><path class="st7" d="M48.3,43.8c-0.6-1-1.6-2.5-1.8-2c-0.2,0.5-0.3,3.2,0,3.8c0.3,0.6,1.1,1.6,0.4,1.4s-2.3-1.2-2.8-1.1
	c-0.5,0.1-0.4-0.1-0.9,0.7c-0.4,0.7-1,1.1-1.1,1.2c-0.1,0.1,0.1,0.7,1,1.2s0.5,0.7,2,0.8c1.5,0.1,2.1,0,2.1,0l-1.9,1.7
	c0,0-0.6,3.7-0.2,4.4c0.3,0.7,0.2,1.8,1.1,1.8c0.9,0.1,1-0.2,1.8-0.8s1.5-1.9,1.4-2.4s0.7-0.8,1-0.1c0.2,0.7,0.3,2.8,1.2,3.3
	c0.9,0.5,1.5,1.1,2.2,0.9s1.1,0.4,1.2-0.7c0.1-1.1-0.2-2-0.2-2s1.7,1.2,2.1,0c0.4-1.2,0.4-2.9-0.4-3.4c-0.9-0.5-1.8-0.9-2.3-1.2
	c-0.6-0.3-1.4-0.7-0.7-1.1s3.1-1.4,3.1-1.4s0.2-1,0.3-1.3s0.1-1,0.1-1l-1.3-0.1c0,0-0.1-1.8-0.5-1.9s-1.3-0.1-2,0.2
	c-0.7,0.2-2.3-0.1-2.6,0.6c-0.4,0.6-0.2,0.3-0.4,1.2S48.8,44.9,48.3,43.8z"></path><circle class="st6" cx="49.1" cy="49.9" r="1.3"></circle><path class="st7" d="M43.6,33c-0.4-0.4-1.1-1-2.2-2.4s-2-3.3-2.8-2.5c-0.7,0.8,0.4,2.2,0.9,2.9c0.5,0.7,0.4,1.2,0.5,1.5
	s0.9,0.7,1.4,0.8c0.5,0.1,2.3,0.7,1.1,0.8c-1.2,0.1-2.7,0.1-3.9,1.5c-1.2,1.4-2.4,1.6-1,1.8s1.5,0.2,2.2,0s2.8-0.8,2.8-0.8
	s1.1-0.8,1-0.3c-0.1,0.5-1.3,1.2-0.7,2.3c0.6,1-0.3,2.6,0.7,3.1c1,0.5,2,0,2.2,0c0.2,0,0.7,0.2,1.1-0.5c0.4-0.6-0.5-1.3,0-2.1
	c0.5-0.7,0.9-1.9,0.7-2.3s-0.8-0.1,1.2,0.3s4,0.2,4.5-0.2s0.8-0.7,0.5-1c-0.3-0.3-1-0.6-0.5-0.7c0.5-0.1,2.2-1,0.9-2.1
	c-1.3-1.1-0.3-1.7-2-1.2c-1.7,0.6-2.6,0.7-2.6,0.7s-0.9-0.2-0.7-0.7c0.1-0.5,1-1.8,0.7-2.8c-0.3-0.9-1.4-2.6-2.1-2.4
	s-1.7,0.5-2.1,1.5c-0.4,1-0.5,1.7-0.8,2.1c-0.3,0.5-0.3,1.2-0.3,1.2L43.6,33z"></path><path class="st7" d="M26.9,64.3c-1,0.4-2.5,1.8-3.8,0c-1.3-1.8-2.4-1.6-1.7-3c0.7-1.4-0.8-2.2,1.8-1.8s2.5,1,3.7,1.1
	s0.8,0.8,1.2,0.1c0.4-0.7-0.3-2-0.9-2.9c-0.5-0.9-0.5-1.5-0.3-1.4c0.2,0,0.9,0.8,1.8,2.2c0.9,1.4,0.9,1.4,0.9,1.4s1.4-1.2,2.3-1.4
	c0.9-0.2,2.1-0.6,2.6-0.2c0.4,0.4,0.4,2.1,0.9,2.7c0.5,0.5,0.6,1.2,0,1.3c-0.6,0.2-1.4,0.2-1.4,0.2s0.6,0.7,1.8,2s1.7,2.3,1.3,3.1
	s-1,1.1-1.6,1c-0.5-0.2-1.5-0.7-2-1.2C33.1,67,32,65.8,32,66s0.5,2,0.1,3.1c-0.5,1.1-0.7,1.9-1.4,2s-1.5,0.3-1.4-0.3s0.7-1.6,0-1.4
	c-0.7,0.2,0.2,1-1.1,0.7c-1.3-0.3-1.9-0.9-2-1.6S25.4,67,26,66.2c0.6-0.8,0.8-0.9,1-1.1S27.6,64.1,26.9,64.3z"></path><path class="st8" d="M26.9,49.5c0,0-1.3-2.9-1.8-3.3c-0.5-0.4-1.5-0.5-1.1,1.1c0.4,1.5,0.5,1.9,0.6,2.5s1.2,0.9,0,1.3
	c-1.2,0.4-1.3,0.3-2.8,0.4s-2.5-2-2.5,0.4c-0.1,2.4-0.4,2.5,1,2.9c1.4,0.4,2.4,0.5,2.8,0.4s1.8,0,0.9,0s-1.7,0.4-1.4,2
	c0.3,1.6,0,1.6,0.6,2.2c0.6,0.7,0.7,0.6,1,0.2c0.3-0.5,0.9-0.7,1-0.2c0.1,0.5-0.3,1.1,0.5,0.5c0.7-0.6,0.9-1,1.1-1.9
	c0.2-0.9-0.4-1.3,0.3-1.7s0.1-0.7,1.3-0.6c1.2,0.1,3.5,0.8,3.8,0c0.3-0.8,1-1.8,0.4-2c-0.6-0.2-3.4-1.4-3.4-1.4l-1.1-0.6
	c0,0,1.9-1.2,2.5-1.7c0.6-0.5,0.5-2,0.3-2.4c-0.1-0.3-0.6-1.5-1.5-1c-0.9,0.5-1.4,1-1.6,1.4S26.9,49.5,26.9,49.5z"></path><ellipse transform="matrix(0.9659 -0.2589 0.2589 0.9659 -12.8783 8.5318)" class="st6" cx="26" cy="53.2" rx="0.7" ry="1.3"></ellipse><path class="st8" d="M10.8,35.9c0,0.3,0.1,1.4-0.6,0.9c-0.7-0.5,0.4-1.3-1.6-1.5s-2.9-0.8-3.1,0c-0.2,0.8-0.6,1.4,0,1.7
	s1.4,0.4,1,0.8c-0.4,0.4-1.1,0.6-1.4,0.6s-2,2.1,0,2.6c2,0.5,3.6-0.4,3.9,0.3s-0.4,2-0.8,2.1c-0.5,0.1-1.2,1-1.2,1.7
	c0.1,0.8-0.2,1.2,0.5,1.4s0.9,0.1,1.5,0s1.8-0.7,1.8-0.6c0,0.1,0.9-0.3,1.3-0.5c0.5-0.3,0.6-1.3,0.6-1.3s0.4,0.4,0.7,0.6
	c0.3,0.3,0.5,0.6,1.4,0.4c1-0.3,1.5-0.6,1.2-1.5c-0.3-0.9-1.9-1.9-2.1-2.6c-0.3-0.7,1.3-1.5,1.6-2c0.3-0.5,1.3-1.9,1.1-2.2
	c-0.2-0.3-1.1,0.2-1.9,0S14,36.8,14,35.8s0.1-1.7-0.8-3c-0.9-1.3-2.1-1.9-2.3-1.9s-1.2,1.5-1,1.9c0.2,0.5,0.4,0.7,0.6,1.2
	C10.7,34.5,10.8,35.9,10.8,35.9z"></path><ellipse transform="matrix(0.2671 -0.9637 0.9637 0.2671 -30.1942 41.23)" class="st6" cx="12" cy="40.5" rx="1.2" ry="0.6"></ellipse><path class="st9" d="M24.1,24.8c0-0.2-0.3-4.5-0.8-4.8c-0.6-0.3-0.3,0.9-0.6,1.2c-0.3,0.3-0.9-0.7-1.1-1c-0.2-0.3,0-1.5-1-0.3
	c-1,1.2-1.6,1.9-1.3,2.8c0.3,0.8,2,2.4,1,2.7c-1,0.3-1.4,0.2-2.8,0c-1.4-0.2-2.1-0.6-2.3,0.2c-0.2,0.8,0.3,1.4,0.3,1.4
	s-0.9-0.1-0.6,1c0.3,1.1,0.1,1.4,1.1,1.5s2.3,0.2,2.6,0.4c0.3,0.2-1.4,0.9-1.8,1.9c-0.4,1-0.3,2.4,0,2.7c0.3,0.3-0.3,1.1,0.9,0.7
	s2.5-1,2.8-1.2c0.3-0.2-0.6-1,0.3-0.8c0.8,0.2,2.3,0.6,2.7-0.1c0.4-0.8,1-1.4,0.7-2.1c-0.3-0.7-1-1.6-0.3-1.6c0.7,0,1.7,0.3,2.6-0.1
	c0.9-0.4,1-1,1.5-1.9s0.3-1.8,0-2.2c-0.3-0.4-0.1-0.8-0.9-0.8C26.2,24.3,24.1,24.8,24.1,24.8z"></path><path class="st7" d="M15.6,47c0,0,1.5-4,2.1-4.3c0.6-0.2,1.2,0,0.8,1c-0.4,1-1.4,3.2-1.4,3.2s2,0,2.5,0.5c0.5,0.5,2.1,1.4,1.2,2.6
	c-1,1.2-1.5,0.8-2.5,0.3c-1-0.5-1.5-0.5-1.5-0.5s0.2,2.1,0,3.6c-0.2,1.5,0.5,1.7-1.1,2c-1.6,0.3-2.3,1.2-2.5,0.3s-0.3-1.7-0.4-2.1
	c-0.1-0.4,0.8-1.9,0-1.5c-0.8,0.4-1,1-1.8,1.2c-0.9,0.2-1.3,0.2-1.3-0.3c0-0.5,0.3-1.8,0.4-2c0.1-0.2-1.2-1.4-1.3-1.7
	s-0.1-0.7,0.7-1.3c0.7-0.6,1-0.7,0.9-1.1c-0.1-0.4-0.7-0.9-0.4-1.1c0.2-0.2,2.9,0.8,2.9,0.8s-1.2,0.1-0.5-1.2
	c0.6-1.3,0.6-2.4,1.3-2.2c0.7,0.2,1.4,0.1,1.9,0.5c0.5,0.5,0.4,0.2,0.6,0.9S15.6,47,15.6,47z"></path><path class="st7" d="M32.9,22.3c0,0-2-2.3-2.7-2.3s-1.7-0.2-1.8,1.1s-0.3,2,0.4,2.7c0.7,0.7,0.6,1,1,1.4s1.1,0.6,1.1,0.9
	c0,0.3-2.4,0.7-3.1,1.1c-0.7,0.4-2.4,0.2-2,1.1c0.5,0.9,0.3,1.1,1.7,0.9s2.5-0.6,2.5-0.6s-0.8,1-0.8,1.7c-0.1,0.7,1.1,2.4,1.6,2.3
	c0.4-0.1,1.4,0,1.7-0.2c0.3-0.2,1.8-1.1,1.9-1.6c0.1-0.5,0-2,0-2s0.6,1,1.9,0.9s1-0.1,1.9-0.5s0.7,0.1,1.6-0.9
	c0.9-1.1,1.1-2.6,0.5-2.9C39.9,25.2,38.3,25,38,25c-0.2,0-1.1,0.1-0.7-0.7c0.5-0.8,2-2.5,2.4-3.1c0.4-0.6,1-2,0.4-1.8
	c-0.7,0.2-1.2,1.3-1.4,0.9s0.8-1.3-0.7-1.8c-1.5-0.4-1.7-0.9-2.4,0c-0.7,0.9-1,0.9-1.1,1.7c0,0.8,0.3,1.5,0,2
	C34.3,22.7,32.9,22.3,32.9,22.3z"></path><ellipse transform="matrix(5.672108e-02 -0.9984 0.9984 5.672108e-02 -38.6599 73.9486)" class="st6" cx="19.8" cy="57.4" rx="1.3" ry="0.6"></ellipse><ellipse transform="matrix(5.672108e-02 -0.9984 0.9984 5.672108e-02 -34.4459 61.4147)" class="st6" cx="15.3" cy="48.9" rx="1" ry="0.6"></ellipse><circle class="st6" cx="37.5" cy="55.9" r="1"></circle><ellipse transform="matrix(0.9777 -0.2099 0.2099 0.9777 -4.8611 7.6242)" class="st6" cx="33.5" cy="26.7" rx="1.1" ry="0.7"></ellipse><ellipse transform="matrix(0.2671 -0.9637 0.9637 0.2671 -11.4222 41.8021)" class="st6" cx="21.8" cy="28.4" rx="1.2" ry="0.6"></ellipse><ellipse transform="matrix(0.3995 -0.9167 0.9167 0.3995 -5.0565 61.9766)" class="st6" cx="44.8" cy="34.8" rx="0.7" ry="1.1"></ellipse><ellipse transform="matrix(0.3995 -0.9167 0.9167 0.3995 -39.6481 64.7574)" class="st6" cx="29.6" cy="62.6" rx="0.9" ry="1.4"></ellipse><path class="st10" d="M36.9,38.9c-0.1-0.4-1-2.3-1.7-3.1c-0.7-0.9-1.6-2-2.5-1.4c-0.9,0.6-1.7,0.2-1,1.7c0.7,1.5,0.8,2,1,2.3
	s1.6,0.7-0.1,0.6c-1.7-0.1-3.2-0.4-3.6,0.3c-0.4,0.7-0.9,2.5,0,2.7c0.9,0.2,1.9,0.4,2.6,0.3c0.7-0.1,1.7,0.3,2,0s0.9-0.3,0.9-0.3
	s-0.7,1.5-0.9,2.3c-0.2,0.8-0.6,1.8-0.3,2.3s0.9,0.8,1.6,0.4s1.5-2.1,1.9-2.5s-0.1-0.9,1-0.4c1.1,0.6,2.5,1.2,3.9,0.8
	c1.5-0.4,1.5-0.9,1.5-1.2s1-0.3,1.1-1.3c0.1-1-0.4-2.4-1-2.6c-0.6-0.2-3.3,0.4-3.1-0.3c0.1-0.7,2-2.2,2.1-2.7
	c0.2-0.5,0.8-2.1-0.1-2.5c-0.9-0.3-2-0.6-2.4-0.3s-1.5,1.4-1.5,1.8c0.1,0.4-0.4,0.9-0.5,1.1C37.9,37,36.9,38.9,36.9,38.9z"></path><ellipse transform="matrix(0.3995 -0.9167 0.9167 0.3995 -15.3054 57.9141)" class="st6" cx="36.6" cy="40.6" rx="0.9" ry="1.4"></ellipse><path class="st11" d="M61.8,29.7c0,0,3.7,2.7,13,3.4"></path><path class="st11" d="M64.6,28c0,0,4.3,3.5,9.5,4.4"></path><line class="st11" x1="67" y1="24.8" x2="74" y2="30.8"></line><line class="st11" x1="69.3" y1="22.3" x2="75" y2="30.2"></line><line class="st11" x1="72.1" y1="20.3" x2="75.8" y2="28.7"></line><line class="st11" x1="86.2" y1="36.8" x2="75.8" y2="32.7"></line><path class="st11" d="M66.3,36.1c0,0,7.5-1.2,8.6-1.8"></path><path class="st11" d="M77.1,34.8c0,0,1,6.7-1.3,10.8"></path><line class="st11" x1="77.6" y1="19.7" x2="77.6" y2="30.2"></line><path class="st4" d="M74,27.8c0,0.1,0.4,0.6-0.7,0.5c-1.1-0.1-1.2-0.7-1.1-0.1c0,0.6,0.5,1.1,0,1.3c-0.5,0.2-1.6,0-1.6,0
	s1.4,0.8,1,1.4c-0.5,0.6-1,0.6-1,0.6s0.7,1.1,0.4,1c-0.3-0.1-1.1-0.4-1.4-0.6c-0.3-0.2,2.1,0.3,1,0.9c-1.1,0.6-2.3,0.4-1.1,0.6
	c1.2,0.1,2.3-0.3,2.1,0.3c-0.3,0.6-1.2,1.3-1.4,1.3c-0.2-0.1,0.5,1.1,0.5,1.1s0.9,0.3,1.2,0.3c0.3,0,1,0.5,1.5,0.3
	c0.5-0.2,0.7-0.6,1.2-0.3s0.5-1.1,1.1,0s0.2,1,0.9,1.2c0.7,0.2,0.9-0.1,1.3-0.6c0.4-0.5-0.5-0.1,0.7-0.6s2-0.9,2.2-1.5
	c0.3-0.6,0.2-0.9,0.4-1.9c0.2-1,1.1-1.2,0-2.6s-1.1-2.5-1.8-2.2c-0.7,0.3-2.1-0.2-2.5-0.7c-0.4-0.5-0.7-1-1-0.9
	c-0.3,0.1-0.5,1.1-0.5,1.1L74,27.8z"></path><path class="st5" d="M85.2,17.7c-0.5,0.2-0.7,0.2-1.2,0.5c-0.5,0.3-1.1,0.5-1.2,0.5s0.7,0.7,0.2,0.7s-0.4,0.3-0.5,0.5
	c-0.1,0.2-0.1,0.3-0.5,0.9s-0.2,0.9,0.4,1.1c0.5,0.2,1.3-0.2,1.3,0c0.1,0.8-0.6,1.1,0,1.3s1.2-0.3,1.2-0.3s0.5,1.1,1.4,0.8
	c0.9-0.2,2-0.6,1.7-1.3c-0.3-0.7-0.7-1.2-0.6-1.5s1-0.4,1-0.4s0.4,0,0.9-0.6S89,19,89.8,18.8s1.8-0.9,1.3-1.1s-1.1,0.1-1.3,0
	s-0.4,0-0.3-0.5c0.1-0.5,0.1-0.7-0.3-0.6c-0.3,0.1-0.3,0.1-0.3,0.1s-0.4-0.6-1-0.1c-0.6,0.5-0.8,0.4-1,1
	C86.8,18.2,85.6,17.5,85.2,17.7z"></path><path class="st5" d="M66.8,41.4c0,0-0.9-1.7-2-1.2c-1.2,0.5-1.8,0.5-2.1,1.2s-0.5,1.2,0.6,1.6c1.1,0.4,2.3,0.7,2.3,0.7
	s-1.3,0.9-1.4,1c-0.1,0.1-1.1,0.4-0.9,1.4c0.1,1.1,0,1.4,0.5,1.4c0.4,0,1.1-0.1,1.2,0s-0.8,1.5-0.3,1.6c0.5,0.1,0.1,0.5,1.2,0
	s1.4-1.8,1.5-2.2c0.1-0.4,0.5-0.1,0.5,0.6c0,0.7,0.2,1.2,0.5,1.4s0.6,0.1,1.5-0.3c0.9-0.4,1.4-1,1.4-1.3c0.1-0.3-0.5-1.3-0.6-1.8
	c-0.1-0.5-0.8-0.3-0.2-1.1c0.6-0.7,1.6-1.7,1.5-1.9c0-0.1-1.1-1.6-1.2-1.9c-0.1-0.3-0.3-1.3-0.7-1.1c-0.4,0.1-0.7,0.4-1.5,0.7
	C67.9,40.7,66.8,41.4,66.8,41.4z"></path><path class="st5" d="M81.7,41.2c0,0,2.2-1.4,3.2-1.5c1-0.1,1.2,0,1.6,0c0.5,0,0.7,1.3,0.7,1.5c0,0.2,0.3,0.5,0.2,0.8
	s-0.5,0.5-0.8,0.7s-2,1-2.4,1c-0.4,0,0,0.7,0.1,0.8c0.1,0.1,0.9,2.2,0.9,2.7c0,0.5,0.2,0.9-0.1,1c-0.3,0.1-0.7-0.3-0.9-0.4
	s-0.4,0-0.6,0.4s0.6,1-0.8,0.9s-1.8-0.4-2.1-1.4c-0.3-1-0.1-1.9-0.3-2.2c-0.2-0.3-0.6,0.2-1.2,0.6c-0.5,0.4-1.2,0.6-1.9,0.8
	c-0.7,0.1-1.4-0.4-1.6-0.7c-0.2-0.3-1.2-0.3-0.9-0.9c0.3-0.6,0-0.7,1.5-1.6c1.4-0.9,2.6-1.6,2.9-1.6s1.2,0.4-0.6-0.6
	c-1.8-1-2.5-0.8-2.6-1.4c-0.1-0.6-0.1-0.8-0.3-1.3c-0.2-0.5-0.6-1,0-0.9c0.6,0.1,2.3,0.9,2.9,1.2c0.6,0.3,0.7,0.8,0.8,0.4
	c0.1-0.4-1-0.8-0.6-1.6c0.3-0.8,0.7-1.3,1-1.5c0.2-0.2,0.7-0.2,1.1-0.3c0.4-0.1,0.8,0,1.1,0.5c0.3,0.5,1.1,0.9,1.1,1.5
	c0,0.6-0.3,0.8-0.5,1.2S81.7,41.2,81.7,41.2z"></path><ellipse transform="matrix(0.1082 -0.9941 0.9941 0.1082 55.3862 102.3707)" class="st6" cx="84.8" cy="20.3" rx="0.5" ry="0.8"></ellipse><path class="st7" d="M88.8,33.2c-0.4-0.8-1.2-1.9-1.3-1.5s-0.2,2.4,0,2.9c0.2,0.5,0.8,1.2,0.3,1.1s-1.7-0.9-2.1-0.8
	c-0.4,0-0.3,0-0.6,0.5c-0.3,0.6-0.8,0.8-0.8,0.9c0,0,0,0.5,0.7,0.9s0.4,0.6,1.5,0.6c1.1,0,1.6,0,1.6,0l-1.4,1.2c0,0-0.4,2.8-0.2,3.3
	c0.2,0.6,0.2,1.3,0.8,1.4c0.6,0,0.7-0.2,1.3-0.6c0.6-0.4,1.2-1.4,1.1-1.8c-0.1-0.4,0.5-0.6,0.7-0.1c0.2,0.5,0.2,2.1,0.9,2.5
	c0.7,0.4,1.2,0.8,1.7,0.6c0.5-0.2,0.8,0.3,0.9-0.6c0-0.8-0.2-1.5-0.2-1.5s1.2,0.9,1.6,0c0.3-0.9,0.3-2.2-0.3-2.5s-1.3-0.7-1.8-0.9
	c-0.4-0.2-1.1-0.5-0.5-0.8c0.5-0.3,2.3-1,2.3-1s0.2-0.7,0.2-1c0-0.2,0-0.8,0-0.8l-1-0.1c0,0-0.1-1.3-0.4-1.4s-1,0-1.5,0.1
	s-1.7,0-2,0.4s-0.2,0.2-0.3,0.9C90,35.8,89.3,34,88.8,33.2z"></path><circle class="st6" cx="89.5" cy="37.7" r="1"></circle><path class="st7" d="M85.3,25.1c-0.3-0.3-0.8-0.7-1.7-1.8c-0.8-1.1-1.5-2.4-2.1-1.8c-0.6,0.6,0.3,1.7,0.6,2.2
	c0.4,0.6,0.3,0.9,0.4,1.1s0.7,0.6,1.1,0.6c0.4,0,1.8,0.5,0.8,0.6c-0.9,0.1-2,0.1-2.9,1.1c-0.9,1.1-1.8,1.2-0.8,1.3
	c1,0.1,1.2,0.1,1.7,0s2.1-0.6,2.1-0.6s0.8-0.6,0.8-0.2c0,0.4-1,0.9-0.5,1.7c0.5,0.8-0.2,1.9,0.5,2.3c0.7,0.4,1.5,0,1.7,0
	c0.1,0,0.6,0.1,0.8-0.3c0.3-0.5-0.4-1,0-1.6c0.4-0.6,0.7-1.4,0.5-1.7c-0.2-0.3-0.6-0.1,0.9,0.2c1.5,0.3,3,0.2,3.4-0.1
	c0.4-0.3,0.6-0.5,0.4-0.7c-0.2-0.2-0.8-0.4-0.4-0.5c0.4-0.1,1.6-0.7,0.7-1.6c-1-0.8-0.2-1.3-1.5-0.9c-1.2,0.4-2,0.6-2,0.6
	s-0.7-0.1-0.6-0.5s0.8-1.4,0.6-2.1c-0.2-0.7-1.1-1.9-1.6-1.8s-1.2,0.4-1.6,1.2c-0.3,0.8-0.4,1.2-0.6,1.6s-0.2,0.9-0.2,0.9L85.3,25.1
	z"></path><path class="st7" d="M72.8,48.6c-0.8,0.3-1.9,1.3-2.9,0c-1-1.3-1.8-1.2-1.3-2.2S68.1,44.7,70,45c1.9,0.3,1.9,0.8,2.8,0.8
	s0.6,0.6,0.9,0.1c0.3-0.5-0.2-1.5-0.7-2.2c-0.4-0.7-0.4-1.1-0.2-1.1c0.2,0,0.7,0.6,1.4,1.6c0.7,1,0.7,1,0.7,1s1.1-0.9,1.8-1
	c0.7-0.1,1.6-0.4,1.9-0.1c0.3,0.3,0.3,1.6,0.7,2c0.4,0.4,0.5,0.9,0,1c-0.5,0.1-1,0.2-1,0.2s0.5,0.5,1.3,1.5c0.9,0.9,1.3,1.7,1,2.3
	s-0.8,0.9-1.2,0.7s-1.1-0.5-1.5-0.9c-0.4-0.4-1.2-1.3-1.2-1.1c0,0.2,0.4,1.5,0,2.3c-0.4,0.8-0.5,1.4-1,1.5s-1.1,0.2-1.1-0.2
	c0.1-0.5,0.6-1.2,0-1.1c-0.6,0.1,0.1,0.7-0.8,0.5c-1-0.2-1.4-0.7-1.5-1.2c-0.1-0.6-0.6-1.1-0.2-1.6s0.6-0.7,0.8-0.8
	C73.1,49,73.3,48.4,72.8,48.6z"></path><path class="st8" d="M72.8,37.5c0,0-1-2.2-1.4-2.5s-1.1-0.3-0.8,0.8c0.3,1.2,0.3,1.4,0.4,1.9s0.9,0.7,0,1c-0.9,0.3-1,0.2-2.1,0.3
	c-1.1,0-1.8-1.5-1.9,0.3c0,1.8-0.3,1.8,0.7,2.2c1,0.3,1.8,0.4,2.1,0.3c0.3,0,1.3,0,0.7,0s-1.3,0.3-1.1,1.5c0.2,1.2,0,1.2,0.5,1.7
	s0.5,0.5,0.7,0.1c0.2-0.4,0.6-0.5,0.7-0.1c0.1,0.4-0.2,0.9,0.3,0.4c0.5-0.5,0.7-0.7,0.8-1.4c0.2-0.7-0.3-1,0.2-1.3
	c0.5-0.3,0-0.5,1-0.4c0.9,0.1,2.6,0.6,2.9,0c0.2-0.6,0.7-1.3,0.3-1.5s-2.6-1.1-2.6-1.1l-0.8-0.4c0,0,1.4-0.9,1.9-1.3
	s0.3-1.5,0.2-1.8s-0.4-1.1-1.1-0.7c-0.7,0.4-1.1,0.7-1.2,1S72.8,37.5,72.8,37.5z"></path><ellipse transform="matrix(0.9659 -0.2589 0.2589 0.9659 -7.948 20.0269)" class="st6" cx="72.1" cy="40.2" rx="0.5" ry="1"></ellipse><path class="st8" d="M60.6,27.2c0,0.2,0.1,1.1-0.4,0.7s0.3-1-1.2-1.2s-2.2-0.6-2.3,0s-0.5,1.1,0,1.3c0.5,0.2,1.1,0.3,0.8,0.6
	s-0.8,0.4-1,0.4c-0.2,0-1.5,1.6,0,2s2.7-0.3,2.9,0.2s-0.3,1.5-0.6,1.6s-0.9,0.7-0.9,1.3s-0.1,0.9,0.3,1c0.5,0.1,0.7,0.1,1.1,0
	s1.4-0.5,1.4-0.4c0,0.1,0.7-0.2,1-0.4s0.5-1,0.5-1s0.3,0.3,0.5,0.5s0.3,0.5,1.1,0.3c0.7-0.2,1.2-0.4,0.9-1.1
	c-0.2-0.7-1.4-1.4-1.6-1.9s1-1.1,1.2-1.5c0.2-0.4,1-1.4,0.8-1.6c-0.1-0.2-0.8,0.1-1.4,0c-0.6-0.1-0.6-0.1-0.6-0.9s0-1.3-0.6-2.2
	c-0.7-1-1.6-1.4-1.7-1.4S59.8,24.6,60,25c0.1,0.3,0.3,0.5,0.4,0.9S60.6,27.2,60.6,27.2z"></path><ellipse transform="matrix(0.2671 -0.9637 0.9637 0.2671 15.6027 81.8123)" class="st6" cx="61.6" cy="30.6" rx="0.9" ry="0.5"></ellipse><path class="st9" d="M70.7,18.9c0-0.1-0.2-3.3-0.6-3.6c-0.4-0.2-0.2,0.7-0.4,0.9c-0.2,0.2-0.7-0.5-0.8-0.7c-0.1-0.2,0-1.1-0.8-0.2
	s-1.2,1.4-1,2.1c0.3,0.6,1.5,1.8,0.7,2c-0.7,0.2-1.1,0.1-2.1,0s-1.6-0.5-1.7,0.1s0.2,1,0.2,1s-0.7-0.1-0.4,0.7
	c0.2,0.8,0,1.1,0.8,1.2c0.8,0.1,1.7,0.1,2,0.3c0.2,0.1-1,0.7-1.3,1.4s-0.2,1.8,0,2s-0.2,0.8,0.7,0.5c0.9-0.3,1.9-0.7,2.1-0.9
	s-0.4-0.8,0.2-0.6c0.6,0.1,1.7,0.5,2-0.1c0.3-0.6,0.8-1,0.5-1.6c-0.2-0.5-0.8-1.2-0.2-1.2c0.5,0,1.3,0.2,2,0s0.8-0.8,1.1-1.4
	c0.3-0.7,0.2-1.4,0-1.7c-0.2-0.3-0.1-0.6-0.7-0.6S70.7,18.9,70.7,18.9z"></path><path class="st7" d="M64.3,35.6c0,0,1.2-3,1.6-3.2s0.9,0,0.6,0.8c-0.3,0.7-1.1,2.4-1.1,2.4s1.5,0,1.8,0.4c0.4,0.4,1.6,1.1,0.9,2
	s-1.1,0.6-1.9,0.2s-1.1-0.4-1.1-0.4s0.2,1.6,0,2.7c-0.2,1.2,0.3,1.3-0.9,1.5c-1.2,0.2-1.7,0.9-1.9,0.2s-0.2-1.3-0.3-1.6
	s0.6-1.4,0-1.2s-0.7,0.7-1.4,0.9c-0.6,0.2-1,0.2-1-0.2s0.2-1.3,0.3-1.5c0-0.1-0.9-1.1-1-1.3s0-0.5,0.5-1c0.6-0.5,0.7-0.5,0.6-0.9
	c-0.1-0.3-0.5-0.7-0.3-0.8c0.2-0.2,2.2,0.6,2.2,0.6s-0.9,0.1-0.4-0.9s0.4-1.8,1-1.7c0.6,0.1,1.1,0.1,1.4,0.4
	c0.4,0.4,0.3,0.1,0.5,0.7C64.7,34.4,64.3,35.6,64.3,35.6z"></path><path class="st7" d="M77.3,17c0,0-1.5-1.7-2-1.7s-1.2-0.2-1.3,0.9c-0.1,1-0.2,1.5,0.3,2c0.5,0.6,0.4,0.7,0.8,1.1s0.8,0.5,0.8,0.7
	c0,0.2-1.8,0.6-2.3,0.8c-0.5,0.3-1.8,0.1-1.5,0.8c0.4,0.7,0.3,0.8,1.3,0.7c1.1-0.1,1.9-0.4,1.9-0.4s-0.6,0.7-0.6,1.2
	s0.9,1.8,1.2,1.7c0.3,0,1.1,0,1.3-0.1c0.2-0.1,1.4-0.8,1.5-1.2s0-1.5,0-1.5s0.4,0.8,1.4,0.6c1-0.1,0.8-0.1,1.4-0.4
	c0.7-0.3,0.6,0.1,1.2-0.7s0.8-1.9,0.4-2.2S81.3,19,81.2,19s-0.9,0-0.5-0.6c0.4-0.6,1.5-1.9,1.8-2.3c0.3-0.4,0.8-1.5,0.3-1.3
	c-0.5,0.1-0.9,1-1.1,0.7c-0.1-0.3,0.6-1-0.5-1.3c-1.1-0.3-1.3-0.6-1.8,0c-0.5,0.6-0.8,0.7-0.8,1.3s0.2,1.2,0,1.5S77.3,17,77.3,17z"></path><ellipse transform="matrix(5.672108e-02 -0.9984 0.9984 5.672108e-02 20.2923 108.2779)" class="st6" cx="67.4" cy="43.4" rx="1" ry="0.4"></ellipse><ellipse transform="matrix(5.672108e-02 -0.9984 0.9984 5.672108e-02 23.4595 98.8577)" class="st6" cx="64" cy="37" rx="0.8" ry="0.4"></ellipse><circle class="st6" cx="80.8" cy="42.2" r="0.8"></circle><ellipse transform="matrix(0.9777 -0.2099 0.2099 0.9777 -2.532 16.767)" class="st6" cx="77.7" cy="20.3" rx="0.8" ry="0.5"></ellipse><ellipse transform="matrix(0.2671 -0.9637 0.9637 0.2671 29.7114 82.2423)" class="st6" cx="68.9" cy="21.6" rx="0.9" ry="0.5"></ellipse><ellipse transform="matrix(0.3995 -0.9167 0.9167 0.3995 27.5512 94.9085)" class="st6" cx="86.2" cy="26.4" rx="0.5" ry="0.8"></ellipse><ellipse transform="matrix(0.3995 -0.9167 0.9167 0.3995 1.5528 96.9985)" class="st6" cx="74.8" cy="47.3" rx="0.6" ry="1"></ellipse><path class="st10" d="M80.3,29.4c0-0.3-0.7-1.7-1.3-2.4c-0.6-0.6-1.2-1.5-1.8-1.1c-0.6,0.4-1.2,0.1-0.7,1.2c0.5,1.1,0.6,1.5,0.7,1.7
	s1.2,0.6,0,0.5c-1.2-0.1-2.4-0.3-2.7,0.2c-0.3,0.6-0.7,1.8,0,2c0.7,0.2,1.4,0.3,2,0.2s1.2,0.2,1.5,0s0.7-0.3,0.7-0.3
	s-0.5,1.1-0.6,1.7c-0.1,0.6-0.4,1.4-0.2,1.8c0.2,0.4,0.7,0.6,1.2,0.3c0.5-0.3,1.2-1.6,1.4-1.9c0.3-0.3,0-0.7,0.8-0.3
	c0.8,0.4,1.8,0.9,3,0.6c1.1-0.3,1.2-0.6,1.2-0.9s0.7-0.2,0.8-1c0.1-0.7-0.3-1.8-0.8-1.9c-0.5-0.1-2.4,0.3-2.4-0.2
	c0.1-0.6,1.5-1.7,1.6-2s0.6-1.6,0-1.9s-1.5-0.5-1.8-0.3c-0.3,0.2-1.2,1.1-1.1,1.4c0,0.3-0.3,0.7-0.4,0.8S80.3,29.4,80.3,29.4z"></path><ellipse transform="matrix(0.3995 -0.9167 0.9167 0.3995 19.8484 91.8551)" class="st6" cx="80" cy="30.8" rx="0.6" ry="1"></ellipse><path class="st12" d="M84.9,68.1c0,0-4.7,3.3-16.2,4.2"></path><path class="st12" d="M81.5,65.9c0,0-5.3,4.3-11.8,5.5"></path><line class="st12" x1="78.4" y1="62" x2="69.7" y2="69.4"></line><line class="st12" x1="75.6" y1="58.8" x2="68.5" y2="68.6"></line><line class="st12" x1="72.1" y1="56.3" x2="67.4" y2="66.8"></line><line class="st12" x1="54.5" y1="76.9" x2="67.4" y2="71.8"></line><path class="st12" d="M79.4,76.1c0,0-9.3-1.6-10.7-2.2"></path><path class="st12" d="M65.8,74.4c0,0-1.2,8.3,1.6,13.5"></path><line class="st12" x1="65.3" y1="55.6" x2="65.3" y2="68.6"></line><path class="st4" d="M69.7,65.7c0,0.1-0.5,0.8,0.9,0.6c1.4-0.2,1.4-0.9,1.4-0.2s-0.7,1.4,0,1.6c0.7,0.2,2.1,0,2.1,0s-1.8,1-1.2,1.7
	c0.6,0.7,1.2,0.8,1.2,0.8s-0.9,1.4-0.5,1.3c0.4-0.1,1.4-0.5,1.7-0.8c0.3-0.3-2.6,0.4-1.3,1.1c1.4,0.7,2.9,0.5,1.4,0.7
	c-1.5,0.2-2.9-0.3-2.6,0.4c0.3,0.7,1.5,1.6,1.7,1.6c0.2-0.1-0.6,1.3-0.6,1.3s-1.2,0.4-1.5,0.4c-0.4,0-1.3,0.6-1.9,0.3
	c-0.6-0.2-0.9-0.8-1.5-0.3c-0.5,0.4-0.6-1.3-1.4,0c-0.8,1.3-0.2,1.2-1.1,1.5c-0.9,0.3-1.1-0.1-1.6-0.7c-0.5-0.6,0.6-0.1-0.8-0.8
	c-1.4-0.7-2.4-1.1-2.8-1.8c-0.3-0.8-0.3-1.2-0.5-2.4s-1.4-1.5,0-3.2c1.4-1.7,1.4-3.1,2.3-2.8s2.6-0.2,3.1-0.9
	c0.5-0.6,0.8-1.2,1.3-1.1c0.4,0.2,0.7,1.3,0.7,1.3L69.7,65.7z"></path><path class="st5" d="M55.8,53.1c0.6,0.2,0.9,0.3,1.4,0.6c0.6,0.3,1.4,0.6,1.5,0.6c0.1,0-0.9,0.8-0.3,0.9c0.6,0.1,0.5,0.3,0.7,0.6
	c0.2,0.3,0.1,0.3,0.6,1.1c0.5,0.8,0.2,1.2-0.4,1.4c-0.6,0.3-1.6-0.3-1.6,0c-0.1,0.9,0.7,1.4,0,1.6s-1.5-0.4-1.5-0.4s-0.6,1.3-1.7,1
	c-1.1-0.3-2.4-0.7-2.1-1.6c0.3-0.9,0.9-1.5,0.8-1.9c-0.1-0.4-1.2-0.5-1.2-0.5s-0.5,0-1.2-0.7s0.3-1.2-0.8-1.4
	c-1.1-0.3-2.2-1.1-1.6-1.4c0.6-0.3,1.3,0.1,1.6,0c0.3-0.1,0.6,0,0.4-0.6c-0.1-0.6-0.1-0.9,0.3-0.8c0.4,0.1,0.4,0.1,0.4,0.1
	s0.5-0.8,1.2-0.1c0.8,0.7,0.9,0.5,1.2,1.3C53.8,53.6,55.2,52.8,55.8,53.1z"></path><path class="st5" d="M78.8,82.7c0,0,1.1-2.2,2.5-1.5c1.4,0.6,2.2,0.6,2.6,1.5s0.6,1.5-0.7,2c-1.3,0.4-2.9,0.8-2.9,0.8
	s1.6,1.1,1.8,1.3c0.2,0.1,1.3,0.5,1.1,1.8c-0.2,1.3,0,1.8-0.6,1.8c-0.6,0-1.4-0.2-1.5,0c-0.1,0.2,1,1.9,0.4,2
	c-0.6,0.2-0.2,0.6-1.6,0c-1.4-0.6-1.7-2.3-1.9-2.7c-0.2-0.5-0.6-0.2-0.6,0.7s-0.2,1.6-0.6,1.7c-0.4,0.2-0.8,0.1-1.9-0.4
	c-1.2-0.5-1.7-1.3-1.8-1.6c-0.1-0.3,0.7-1.6,0.7-2.2c0.1-0.6,1-0.4,0.3-1.3c-0.8-0.9-2-2.2-1.9-2.3c0-0.2,1.3-2,1.5-2.3
	c0.2-0.3,0.4-1.6,0.9-1.4c0.5,0.2,0.8,0.5,1.9,0.9S78.8,82.7,78.8,82.7z"></path><path class="st5" d="M60.1,82.4c0,0-2.8-1.7-4-1.8c-1.2-0.1-1.4-0.1-2,0s-0.9,1.6-0.9,1.8s-0.4,0.6-0.2,1c0.2,0.4,0.6,0.6,1,0.9
	s2.5,1.3,3,1.3s0,0.9-0.2,1c-0.2,0.2-1.1,2.7-1.1,3.3s-0.2,1.1,0.2,1.2c0.4,0.1,0.9-0.3,1.2-0.5c0.2-0.2,0.5,0,0.7,0.5
	c0.2,0.5-0.7,1.3,1,1.1s2.2-0.5,2.6-1.7s0.2-2.4,0.4-2.7c0.2-0.3,0.8,0.2,1.4,0.7c0.6,0.5,1.4,0.8,2.4,1s1.8-0.5,2-0.9
	c0.2-0.4,1.5-0.4,1.1-1.1c-0.4-0.7-0.1-0.9-1.8-2c-1.8-1.1-3.3-2-3.6-2s-1.5,0.5,0.7-0.8s3.2-1,3.3-1.7c0.1-0.7,0.1-1,0.3-1.6
	s0.7-1.2-0.1-1.1c-0.8,0.1-2.9,1.1-3.6,1.5s-0.9,1-1,0.5c-0.1-0.5,1.2-1,0.8-2c-0.4-1-0.9-1.7-1.2-1.9c-0.3-0.2-0.9-0.2-1.4-0.3
	c-0.5-0.1-1-0.1-1.3,0.6c-0.3,0.6-1.3,1.2-1.3,1.8c0,0.7,0.4,1,0.6,1.6C59.2,80.6,60.1,82.4,60.1,82.4z"></path><ellipse transform="matrix(0.9941 -0.1082 0.1082 0.9941 -5.7647 6.4244)" class="st6" cx="56.3" cy="56.3" rx="1" ry="0.6"></ellipse><path class="st7" d="M51.2,72.4c0.5-1,1.5-2.4,1.7-1.9s0.2,3,0,3.6c-0.2,0.6-1,1.5-0.4,1.3s2.1-1.1,2.6-1.1c0.5,0.1,0.4-0.1,0.8,0.6
	s1,1.1,1,1.1c0.1,0-0.1,0.6-0.9,1.1c-0.9,0.5-0.5,0.7-1.8,0.7s-2,0-2,0l1.8,1.6c0,0,0.5,3.5,0.2,4.1c-0.3,0.7-0.2,1.7-1,1.7
	c-0.8,0.1-0.9-0.2-1.7-0.7c-0.7-0.5-1.4-1.8-1.3-2.2c0.1-0.5-0.7-0.7-0.9-0.1s-0.3,2.6-1.2,3.1c-0.9,0.5-1.4,1-2.1,0.8
	c-0.6-0.2-1,0.3-1.1-0.7c-0.1-1,0.2-1.8,0.2-1.8s-1.6,1.1-2,0c-0.4-1.1-0.4-2.7,0.4-3.2c0.8-0.4,1.7-0.8,2.2-1.1
	c0.5-0.3,1.3-0.7,0.7-1C45.8,78,43.6,77,43.6,77s-0.2-0.9-0.3-1.2c-0.1-0.3-0.1-1-0.1-1l1.2-0.1c0,0,0.1-1.7,0.5-1.8
	c0.3-0.1,1.2-0.1,1.8,0.2c0.6,0.2,2.1-0.1,2.5,0.5c0.3,0.6,0.2,0.3,0.3,1.2S50.7,73.4,51.2,72.4z"></path><circle class="st6" cx="50.4" cy="78.1" r="1.2"></circle><path class="st7" d="M55.6,62.2c0.3-0.3,1-0.9,2.1-2.2c1-1.3,1.9-3.1,2.6-2.3c0.7,0.7-0.3,2.1-0.8,2.8c-0.5,0.7-0.3,1.1-0.5,1.4
	s-0.9,0.7-1.3,0.7s-2.2,0.6-1,0.7s2.5,0.1,3.6,1.4s2.2,1.5,1,1.7s-1.4,0.2-2.1,0s-2.6-0.7-2.6-0.7s-1-0.7-1-0.3
	c0.1,0.5,1.2,1.2,0.6,2.1c-0.6,1,0.3,2.4-0.6,2.9s-1.9,0-2.1,0c-0.2,0-0.7,0.1-1-0.4c-0.3-0.6,0.5-1.3,0-2c-0.5-0.7-0.9-1.8-0.6-2.1
	c0.2-0.3,0.7-0.1-1.2,0.3c-1.9,0.4-3.8,0.2-4.2-0.2c-0.4-0.4-0.7-0.6-0.4-0.9c0.3-0.3,0.9-0.5,0.4-0.6c-0.5-0.1-2.1-0.9-0.8-2
	c1.2-1,0.3-1.6,1.8-1.1c1.6,0.5,2.5,0.7,2.5,0.7s0.8-0.2,0.7-0.6c-0.1-0.5-0.9-1.7-0.7-2.6c0.2-0.9,1.3-2.4,2-2.2s1.6,0.5,2,1.4
	c0.4,1,0.5,1.6,0.8,2c0.3,0.5,0.3,1.2,0.3,1.2L55.6,62.2z"></path><path class="st7" d="M71.2,91.6c1,0.4,2.4,1.7,3.6,0c1.2-1.7,2.3-1.5,1.6-2.8c-0.7-1.3,0.7-2-1.7-1.7s-2.4,0.9-3.5,1
	s-0.7,0.7-1.1,0.1c-0.4-0.6,0.3-1.9,0.8-2.7c0.5-0.8,0.5-1.4,0.3-1.3c-0.2,0-0.8,0.8-1.7,2c-0.9,1.3-0.9,1.3-0.9,1.3
	s-1.3-1.1-2.2-1.3c-0.9-0.2-2-0.5-2.4-0.2c-0.4,0.4-0.4,2-0.9,2.5s-0.6,1.1,0,1.2c0.6,0.2,1.3,0.2,1.3,0.2s-0.6,0.7-1.7,1.8
	c-1.1,1.2-1.6,2.1-1.2,2.9s1,1.1,1.5,0.9c0.5-0.2,1.4-0.7,1.9-1.1c0.5-0.5,1.5-1.6,1.5-1.3c0,0.3-0.5,1.8-0.1,2.9
	c0.5,1,0.6,1.7,1.3,1.9c0.7,0.2,1.4,0.3,1.4-0.3c-0.1-0.6-0.7-1.5,0-1.3c0.7,0.2-0.2,0.9,1.1,0.6c1.2-0.3,1.7-0.8,1.8-1.5
	s0.8-1.3,0.2-2c-0.6-0.7-0.7-0.9-1-1C70.9,92.2,70.6,91.4,71.2,91.6z"></path><path class="st8" d="M71.2,77.7c0,0,1.2-2.7,1.7-3.1s1.4-0.4,1,1s-0.4,1.8-0.5,2.4c-0.1,0.6-1.2,0.9,0,1.2c1.2,0.3,1.2,0.3,2.6,0.3
	c1.4,0.1,2.3-1.9,2.4,0.4c0.1,2.2,0.4,2.3-0.9,2.7c-1.3,0.4-2.3,0.5-2.6,0.4c-0.3-0.1-1.6,0-0.8,0s1.6,0.4,1.3,1.9
	c-0.3,1.5,0,1.5-0.6,2.1s-0.6,0.6-0.9,0.2c-0.3-0.4-0.8-0.6-0.9-0.2c-0.1,0.5,0.2,1.1-0.4,0.5c-0.7-0.6-0.8-0.9-1-1.8
	c-0.2-0.9,0.3-1.3-0.3-1.6s0-0.7-1.2-0.5c-1.2,0.1-3.3,0.8-3.6,0c-0.3-0.8-0.9-1.7-0.4-1.9s3.2-1.3,3.2-1.3l1-0.6
	c0,0-1.8-1.2-2.4-1.6c-0.6-0.5-0.4-1.9-0.3-2.2c0.1-0.3,0.5-1.4,1.4-0.9c0.9,0.5,1.3,0.9,1.5,1.3C70.6,76.8,71.2,77.7,71.2,77.7z"></path><ellipse transform="matrix(0.2589 -0.9659 0.9659 0.2589 -24.9148 129.8141)" class="st6" cx="72.1" cy="81.1" rx="1.2" ry="0.6"></ellipse><path class="st8" d="M86.4,65c0,0.3-0.1,1.3,0.5,0.8c0.7-0.5-0.4-1.2,1.5-1.5c1.9-0.2,2.7-0.7,2.9,0c0.2,0.7,0.6,1.3,0,1.6
	s-1.3,0.4-1,0.8c0.4,0.4,1.1,0.5,1.3,0.5c0.2,0,1.9,2,0,2.5c-1.9,0.5-3.3-0.4-3.6,0.3s0.4,1.9,0.8,2c0.4,0.1,1.2,0.9,1.1,1.6
	c-0.1,0.7,0.2,1.1-0.4,1.3c-0.6,0.2-0.8,0.1-1.4,0c-0.5-0.1-1.7-0.6-1.7-0.5c0,0.1-0.8-0.3-1.3-0.5c-0.4-0.2-0.6-1.2-0.6-1.2
	s-0.4,0.4-0.7,0.6c-0.3,0.2-0.4,0.6-1.3,0.4c-0.9-0.2-1.5-0.5-1.2-1.4s1.8-1.8,2-2.4c0.2-0.7-1.2-1.4-1.5-1.9s-1.2-1.8-1-2.1
	c0.2-0.3,1,0.2,1.8,0c0.7-0.2,0.8-0.2,0.7-1.1c-0.1-0.9-0.1-1.6,0.8-2.8s1.9-1.8,2.2-1.8c0.2,0,1.2,1.4,1,1.8
	c-0.2,0.4-0.3,0.7-0.6,1.1C86.5,63.6,86.4,65,86.4,65z"></path><ellipse transform="matrix(0.9637 -0.2671 0.2671 0.9637 -15.3948 25.2828)" class="st6" cx="85.2" cy="69.2" rx="0.6" ry="1.2"></ellipse><path class="st9" d="M73.9,54.5c0-0.2,0.2-4.2,0.8-4.5c0.5-0.3,0.3,0.8,0.5,1.2c0.2,0.3,0.8-0.7,1-0.9s0-1.4,1-0.3
	c1,1.1,1.5,1.8,1.2,2.6c-0.3,0.8-1.8,2.2-0.9,2.5s1.3,0.2,2.7,0c1.3-0.2,2-0.6,2.2,0.2c0.2,0.8-0.2,1.3-0.2,1.3s0.8-0.1,0.5,0.9
	s-0.1,1.3-1,1.5c-1,0.1-2.2,0.2-2.5,0.4c-0.3,0.2,1.3,0.8,1.7,1.8c0.4,0.9,0.3,2.2,0,2.5c-0.3,0.3,0.3,1-0.9,0.6s-2.4-0.9-2.6-1.1
	c-0.2-0.2,0.5-1-0.2-0.8s-2.2,0.6-2.5-0.1c-0.4-0.7-1-1.3-0.7-1.9c0.3-0.7,1-1.5,0.3-1.5s-1.6,0.3-2.5-0.1c-0.8-0.4-1-1-1.4-1.8
	c-0.4-0.9-0.3-1.7,0-2.1c0.3-0.4,0.1-0.8,0.8-0.8C71.9,54.1,73.9,54.5,73.9,54.5z"></path><path class="st7" d="M81.9,75.4c0,0-1.4-3.8-2-4s-1.1,0-0.7,0.9c0.3,0.9,1.3,3,1.3,3s-1.9,0-2.3,0.5c-0.5,0.5-2,1.3-1.1,2.5
	c0.9,1.1,1.4,0.7,2.4,0.3s1.4-0.5,1.4-0.5s-0.2,2,0,3.4s-0.4,1.6,1.1,1.9c1.5,0.3,2.2,1.1,2.4,0.3c0.2-0.8,0.3-1.6,0.3-2
	c0.1-0.3-0.7-1.8,0-1.4c0.7,0.3,0.9,0.9,1.7,1.1s1.3,0.2,1.3-0.3c0-0.5-0.3-1.7-0.3-1.9c-0.1-0.2,1.1-1.3,1.2-1.6
	c0.1-0.3,0.1-0.6-0.6-1.2c-0.7-0.6-0.9-0.7-0.8-1.1c0.1-0.4,0.6-0.9,0.4-1c-0.2-0.2-2.8,0.7-2.8,0.7s1.1,0.1,0.5-1.1
	c-0.6-1.2-0.6-2.2-1.2-2.1c-0.7,0.1-1.3,0.1-1.8,0.5c-0.5,0.4-0.4,0.2-0.6,0.9C81.3,74,81.9,75.4,81.9,75.4z"></path><path class="st7" d="M65.6,52.2c0,0,1.9-2.1,2.5-2.1c0.6,0,1.5-0.2,1.7,1.1c0.1,1.3,0.2,1.9-0.4,2.6c-0.6,0.7-0.5,0.9-1,1.3
	c-0.4,0.4-1,0.6-1,0.9s2.2,0.7,2.9,1s2.3,0.2,1.8,1c-0.4,0.8-0.3,1-1.6,0.9c-1.3-0.1-2.4-0.5-2.4-0.5s0.7,0.9,0.8,1.6
	c0,0.6-1.1,2.2-1.5,2.2c-0.4-0.1-1.4,0-1.6-0.2c-0.2-0.2-1.7-1-1.8-1.5c-0.1-0.5,0-1.8,0-1.8s-0.5,1-1.8,0.8
	c-1.2-0.2-0.9-0.1-1.8-0.5c-0.9-0.4-0.7,0.1-1.5-0.9c-0.8-1-1-2.4-0.5-2.7c0.6-0.3,2.1-0.5,2.3-0.5s1.1,0.1,0.6-0.7
	c-0.5-0.7-1.9-2.4-2.2-2.9c-0.3-0.5-1-1.8-0.3-1.7c0.6,0.2,1.1,1.3,1.3,0.9c0.2-0.4-0.8-1.3,0.7-1.7c1.4-0.4,1.6-0.8,2.2,0
	c0.6,0.8,1,0.9,1,1.6c0,0.7-0.3,1.4,0,1.8C64.3,52.5,65.6,52.2,65.6,52.2z"></path><ellipse transform="matrix(0.9984 -5.672108e-02 5.672108e-02 0.9984 -4.7041 4.5562)" class="st6" cx="77.9" cy="85.1" rx="0.6" ry="1.2"></ellipse><ellipse transform="matrix(0.9984 -5.672108e-02 5.672108e-02 0.9984 -4.245 4.7843)" class="st6" cx="82.2" cy="77.2" rx="0.6" ry="0.9"></ellipse><circle class="st6" cx="61.3" cy="83.7" r="1"></circle><ellipse transform="matrix(0.2099 -0.9777 0.9777 0.2099 -3.6548 108.1128)" class="st6" cx="65.1" cy="56.3" rx="0.6" ry="1"></ellipse><ellipse transform="matrix(0.9637 -0.2671 0.2671 0.9637 -12.7052 22.4241)" class="st6" cx="76.1" cy="57.9" rx="0.6" ry="1.2"></ellipse><ellipse transform="matrix(0.9167 -0.3995 0.3995 0.9167 -21.0105 27.0841)" class="st6" cx="54.5" cy="63.9" rx="1" ry="0.6"></ellipse><ellipse transform="matrix(0.9167 -0.3995 0.3995 0.9167 -30.2447 34.9441)" class="st6" cx="68.7" cy="90" rx="1.3" ry="0.8"></ellipse><path class="st10" d="M61.8,67.7c0.1-0.3,0.9-2.1,1.6-2.9c0.7-0.8,1.5-1.8,2.3-1.3s1.6,0.2,0.9,1.6c-0.6,1.4-0.7,1.8-0.9,2.1
	c-0.2,0.3-1.5,0.7,0.1,0.6c1.6-0.1,3-0.4,3.4,0.3c0.4,0.7,0.9,2.3,0,2.5s-1.8,0.4-2.5,0.3c-0.7-0.1-1.6,0.3-1.8,0S64,70.5,64,70.5
	s0.6,1.4,0.8,2.1c0.2,0.7,0.5,1.7,0.3,2.2c-0.2,0.5-0.9,0.7-1.5,0.3c-0.6-0.4-1.4-2-1.8-2.4c-0.3-0.3,0.1-0.9-1-0.3
	c-1,0.5-2.3,1.1-3.7,0.7c-1.4-0.3-1.4-0.8-1.4-1.2c0-0.3-0.9-0.3-1-1.2c-0.1-0.9,0.4-2.2,1-2.4c0.6-0.2,3.1,0.4,2.9-0.3
	c-0.1-0.7-1.8-2.1-2-2.5c-0.2-0.5-0.7-2,0.1-2.3c0.8-0.3,1.8-0.6,2.2-0.3c0.4,0.3,1.4,1.3,1.4,1.7c-0.1,0.4,0.4,0.9,0.5,1
	S61.8,67.7,61.8,67.7z"></path><ellipse transform="matrix(0.9167 -0.3995 0.3995 0.9167 -22.539 30.6202)" class="st6" cx="62.2" cy="69.4" rx="1.3" ry="0.8"></ellipse></g></svg>