<svg xmlns="http://www.w3.org/2000/svg" version="1.1" xmlns:xlink="http://www.w3.org/1999/xlink" xmlns:svgjs="http://svgjs.dev/svgjs" viewBox="0 0 108 108" style="" x="0" y="0"><style type="text/css">
	.st0{fill:none;stroke:#708530;stroke-width:1.0633;stroke-miterlimit:10;}
	.st1{fill:#62802F;}
	.st2{fill:#89AE78;}
	.st3{fill:#BEBC32;}
	.st4{fill:#92B83E;}
	.st5{fill:#76A747;}
	.st6{fill:#A5C939;}
	.st7{fill:#9EB97A;}
	.st8{fill:#5B7952;}
	.st9{fill:#506326;}
	.st10{fill:#909023;}
	.st11{fill:#527A30;}
	.st12{fill:#5B6F48;}
	.st13{fill:#718759;}
	.st14{fill:#006D45;}
	.st15{fill:#847335;}
	.st16{fill:#B1980B;}
	.st17{fill:#DE4E2D;}
	.st18{fill:#DC2F5D;}
	.st19{fill:#F05151;}
	.st20{fill:#FF2B63;}
	.st21{fill:#DE3322;}
	.st22{fill:#FCE5EF;}
	.st23{fill:#D82E5C;}
	.st24{fill:#EF4431;}
	.st25{fill:#EE372B;}
</style><g><path class="st0" d="M77.5,64.1c-1.1-2.3-3.8-6.1-5.7-8.8"></path><path class="st0" d="M82.3,58.5c-3.6,0.1-8.8-1-12-3.1"></path><path class="st0" d="M80.8,51.9c-2.8,3.2-4.8,6.4-8.8,4"></path><path class="st0" d="M63.8,51.4c-4.9-1.3-10.1-3.5-12.9-6.3"></path><path class="st0" d="M57.4,57.4c-1.7-5-6.2-11.9-7-13.3"></path><path class="st0" d="M60,45.4c-2.5,2.1-3.5,4.2-8.4,0.7"></path><path class="st1" d="M74.4,70.9c-1.1-1.7-2.2-1.7-0.5-6.3l1.7-4.6c0,0,0.9,0.4,2,0.9c1.1,0.5,5.3,1.9,5.3,5.6c0,3.8-0.5,6-0.7,6.7
	c-0.3,0.7-0.6,3.2-0.7,3.8"></path><path class="st1" d="M96.7,62.4c-2.7,0-5,3.5-8.6,2.7c-3.6-0.7-7.2-4.8-8.4-5.9c-1.2-1.1-2.1,0,0.5-1.2c2.6-1.2,2.3-2.1,4.8-2.5
	c2.5-0.4,7,1.6,7.9,2.9C93.5,59.6,96.7,62.4,96.7,62.4"></path><path class="st2" d="M77.7,55.6c0.7-0.3,1.7-0.1,4.9-1.4c3.3-1.4,5.7-2.8,5.2-5.6c-0.5-2.7-1.5-2.9-0.8-5.1l0.7-2.2
	c0,0-2.8,1.1-6.7,2.9c-3.9,1.8-4,6.5-3.7,8.4C77.5,54.5,77.7,55.6,77.7,55.6"></path><path class="st3" d="M75.9,56.4c0,0-2.2-1-5.3,0.3c-3.1,1.3-7.1,1.3-8.5-2c-1.4-3.3-3.2-4.6-3.2-4.6s0.1,0.5,2.7-0.9
	c2.6-1.4,7.2-1.2,9.4,1C73.2,52.4,75.9,56.4,75.9,56.4"></path><path class="st4" d="M59.2,68.5c0,0,2.2-5.7,2.3-8.9c0-3.2-0.3-5-2.7-6.2c-2.4-1.2-3.6-2.5-3.6-2.5s-0.8,4.3-1.9,5.7
	c-1.1,1.4-1.6,4.8-0.1,6.1C54.7,64,59.2,68.5,59.2,68.5"></path><path class="st5" d="M57.5,47.5c0,0,2.8,0,5.8-0.9c3-0.9,4.5-1.6,5-3.4c0.5-1.9,0.6-3.7,0.7-5.7c0.1-2-0.1-2.7,0.5-3.1
	c0.6-0.4-0.6,0.9-4,1.5c-3.4,0.6-5.3,0.4-6.2,1.9c-0.9,1.6,0,3.4-0.4,5.4C58.5,45.2,57.5,47.5,57.5,47.5"></path><path class="st0" d="M36.2,80.1c2-1.6,5-5.2,7.1-7.7"></path><path class="st0" d="M42.9,83.5c-1-3.5-1.2-8.7,0.1-12.4"></path><path class="st0" d="M48.8,80.3c-3.8-1.9-7.4-3.1-6-7.5"></path><path class="st0" d="M45.2,63.8c0-5.1,1-10.7,2.9-14.1"></path><path class="st0" d="M37.8,59c4.5-2.9,10-8.9,11.2-10.1"></path><path class="st0" d="M50.1,58.6c-2.7-1.9-5-2.4-2.7-8"></path><path class="st1" d="M28.9,78.8c1.4-1.5,1.1-2.6,6-2.1l4.9,0.5c0,0-0.2,1-0.4,2.2c-0.2,1.2-0.5,5.6-4.2,6.5c-3.6,0.9-5.9,1-6.7,0.9
	c-0.7-0.1-3.3,0.2-3.9,0.2"></path><path class="st6" d="M42.6,98.3c-0.7-2.6-4.6-4-4.8-7.7c-0.2-3.6,2.9-8.2,3.7-9.6c0.7-1.5-0.5-2,1.3,0.2c1.8,2.2,2.6,1.7,3.6,4
	c1,2.3,0.2,7.2-0.9,8.3C44.5,94.6,42.6,98.3,42.6,98.3"></path><path class="st2" d="M44.5,78.2c0.5,0.6,0.5,1.6,2.6,4.4s4.1,4.8,6.7,3.7c2.5-1.2,2.4-2.2,4.8-2.1l2.3,0.1c0,0-1.8-2.5-4.5-5.8
	c-2.7-3.3-7.3-2.3-9.1-1.6C45.5,77.8,44.5,78.2,44.5,78.2"></path><path class="st3" d="M43.3,76.7c0,0,0.4-2.4-1.6-5.1c-2-2.7-3-6.6-0.2-8.7c2.8-2.2,3.7-4.3,3.7-4.3s-0.4,0.3,1.5,2.4
	c2,2.2,2.9,6.7,1.3,9.4C46.4,73.1,43.3,76.7,43.3,76.7"></path><path class="st4" d="M27.4,63.5c0,0,6.1,0.8,9.2,0c3.1-0.7,4.7-1.5,5.3-4.1c0.6-2.6,1.5-4.1,1.5-4.1s-4.4,0.3-6-0.5
	c-1.6-0.7-5.1-0.3-5.9,1.4C30.7,58,27.4,63.5,27.4,63.5"></path><path class="st5" d="M47.4,56.7c0,0,0.7,2.7,2.3,5.4c1.6,2.7,2.6,4,4.6,4c2,0,3.7-0.3,5.7-0.7c1.9-0.4,2.6-0.8,3.1-0.3
	c0.6,0.5-1-0.3-2.4-3.5c-1.4-3.2-1.7-5.1-3.4-5.5c-1.7-0.4-3.3,0.8-5.3,0.9C49.9,57.1,47.4,56.7,47.4,56.7"></path><path class="st0" d="M25.7,37.4c1.7,1.9,5.4,4.7,8,6.7"></path><path class="st0" d="M22.7,44.3c3.4-1.2,8.7-1.6,12.4-0.5"></path><path class="st0" d="M26.1,50c1.7-3.9,2.7-7.5,7.2-6.3"></path><path class="st0" d="M42.4,45.6c5.1-0.2,10.7,0.4,14.2,2.2"></path><path class="st0" d="M46.8,38c3.1,4.3,9.4,9.5,10.6,10.7"></path><path class="st0" d="M47.9,50.2c1.7-2.8,2.1-5.1,7.8-3.1"></path><path class="st1" d="M26.6,30.1c1.6,1.3,2.6,1,2.4,5.9l-0.2,4.9c0,0-1-0.2-2.2-0.3c-1.2-0.2-5.6-0.2-6.7-3.8
	c-1.1-3.6-1.3-5.9-1.3-6.6c0-0.7-0.4-3.2-0.4-3.9"></path><path class="st1" d="M7.8,44.7c2.5-0.8,3.8-4.8,7.4-5.1c3.6-0.3,8.3,2.5,9.8,3.2c1.5,0.7,2-0.6-0.1,1.3c-2.1,1.9-1.6,2.7-3.9,3.8
	c-2.2,1.1-7.2,0.6-8.3-0.4C11.6,46.4,7.8,44.7,7.8,44.7"></path><path class="st2" d="M28,45.6c-0.6,0.5-1.6,0.6-4.3,2.8c-2.7,2.3-4.6,4.4-3.3,6.8c1.3,2.5,2.3,2.3,2.3,4.6l0,2.3
	c0,0,2.4-1.9,5.5-4.8c3.2-2.8,1.9-7.4,1.1-9.1C28.5,46.7,28,45.6,28,45.6"></path><path class="st3" d="M29.4,44.4c0,0,2.4,0.3,5-1.8c2.6-2.2,6.4-3.3,8.7-0.6c2.3,2.7,4.4,3.4,4.4,3.4s-0.3-0.4-2.3,1.6
	c-2.1,2.1-6.5,3.2-9.3,1.8C33.1,47.3,29.4,44.4,29.4,44.4"></path><path class="st4" d="M41.8,27.9c0,0-0.5,6.1,0.4,9.2c0.9,3.1,1.8,4.6,4.4,5.1c2.7,0.5,4.2,1.3,4.2,1.3s-0.5-4.3,0.2-6
	c0.7-1.7,0.1-5.1-1.7-5.9C47.5,30.8,41.8,27.9,41.8,27.9"></path><path class="st5" d="M49.6,47.4c0,0-2.7,0.8-5.3,2.5c-2.6,1.7-3.8,2.8-3.8,4.8c0.1,2,0.5,3.7,1,5.6c0.5,1.9,0.9,2.5,0.5,3.1
	c-0.4,0.6,0.3-1.1,3.4-2.6c3.1-1.6,5-1.9,5.3-3.7c0.4-1.8-1-3.3-1.2-5.3C49.4,49.9,49.6,47.4,49.6,47.4"></path><path class="st0" d="M69.2,24.9c-2.1,1.4-5.5,4.6-7.9,6.9"></path><path class="st0" d="M62.9,20.9c0.6,3.6,0.3,8.8-1.4,12.4"></path><path class="st0" d="M56.7,23.4c3.6,2.3,7,3.9,5.1,8.1"></path><path class="st0" d="M58.5,40.3c-0.5,5.1-2.1,10.5-4.4,13.7"></path><path class="st0" d="M65.4,45.7c-4.7,2.4-10.9,7.8-12.2,8.8"></path><path class="st0" d="M53.1,44.9c2.5,2.2,4.7,2.9,1.9,8.2"></path><path class="st1" d="M76.3,27c-1.6,1.3-1.4,2.4-6.2,1.4l-4.8-1c0,0,0.3-1,0.7-2.1c0.3-1.1,1.1-5.5,4.8-6c3.7-0.5,6-0.4,6.7-0.2
	c0.7,0.2,3.3,0.2,3.9,0.2"></path><path class="st6" d="M64.8,6.2c0.4,2.6,4.2,4.5,3.9,8.1c-0.2,3.6-3.7,7.8-4.6,9.2c-0.9,1.4,0.3,2.1-1.2-0.3c-1.5-2.4-2.4-2-3.2-4.4
	c-0.8-2.4,0.6-7.2,1.7-8.2C62.5,9.7,64.8,6.2,64.8,6.2"></path><path class="st1" d="M60.7,25.9c-0.4-0.6-0.3-1.6-2.1-4.7c-1.8-3.1-3.6-5.2-6.2-4.3c-2.6,0.9-2.6,1.9-5,1.5l-2.3-0.4
	c0,0,1.5,2.7,3.8,6.2c2.3,3.6,7,3,8.9,2.5C59.6,26.3,60.7,25.9,60.7,25.9"></path><path class="st3" d="M61.8,27.5c0,0-0.7,2.3,1.1,5.2c1.7,2.9,2.3,6.9-0.8,8.7c-3,1.9-4.1,3.9-4.1,3.9s0.5-0.2-1.3-2.6
	c-1.7-2.4-2.2-6.9-0.3-9.5C58.3,30.8,61.8,27.5,61.8,27.5"></path><path class="st4" d="M76.1,42.4c0,0-5.9-1.4-9.1-1c-3.2,0.4-4.9,1-5.7,3.6c-0.9,2.5-2,4-2,4s4.4,0.2,5.9,1.1c1.6,0.9,5,0.9,6.1-0.8
	C72.3,47.5,76.1,42.4,76.1,42.4"></path><path class="st5" d="M55.6,47c0,0-0.4-2.8-1.7-5.6c-1.3-2.8-2.2-4.2-4.1-4.4c-1.9-0.2-3.7-0.1-5.7,0.1c-2,0.2-2.6,0.5-3.2,0
	c-0.5-0.5,1,0.4,2.1,3.8c1.1,3.3,1.1,5.2,2.8,5.8c1.7,0.6,3.4-0.5,5.4-0.4C53.2,46.4,55.6,47,55.6,47"></path><path class="st7" d="M57.6,60.5c-1.1-2.3-3.8-6.1-5.7-8.8"></path><path class="st7" d="M62.4,54.8c-3.6,0.1-8.8-1-12-3.1"></path><path class="st7" d="M60.9,48.3c-2.8,3.2-4.8,6.4-8.8,4"></path><path class="st7" d="M43.9,47.8C39,46.5,33.8,44.2,31,41.5"></path><path class="st7" d="M37.5,53.8c-1.7-5-6.2-11.9-7-13.3"></path><path class="st7" d="M40.1,41.8c-2.5,2.1-3.5,4.2-8.4,0.7"></path><path class="st7" d="M54.5,67.3c-1.1-1.7-2.2-1.7-0.5-6.3l1.7-4.6c0,0,0.9,0.4,2,0.9c1.1,0.5,5.3,1.9,5.3,5.6c0,3.8-0.5,6-0.7,6.7
	c-0.3,0.7-0.6,3.2-0.8,3.8"></path><path class="st7" d="M76.7,58.8c-2.7,0-5,3.5-8.6,2.7c-3.6-0.7-7.2-4.8-8.4-5.9c-1.2-1.1-2.1,0,0.5-1.2c2.6-1.2,2.3-2.1,4.8-2.5
	c2.5-0.4,7,1.6,7.9,2.9C73.6,56,76.7,58.8,76.7,58.8"></path><path class="st7" d="M57.8,52c0.7-0.3,1.7-0.1,4.9-1.4c3.3-1.4,5.7-2.8,5.2-5.6c-0.5-2.7-1.5-2.9-0.8-5.1l0.7-2.2
	c0,0-2.8,1.1-6.7,2.9c-3.9,1.8-4,6.5-3.7,8.4C57.6,50.8,57.8,52,57.8,52"></path><path class="st7" d="M56,52.8c0,0-2.2-1-5.3,0.3c-3.1,1.3-7.1,1.3-8.5-2c-1.4-3.3-3.2-4.6-3.2-4.6s0.1,0.5,2.7-0.9
	c2.6-1.4,7.2-1.2,9.4,1C53.3,48.8,56,52.8,56,52.8"></path><path class="st7" d="M39.3,64.9c0,0,2.2-5.7,2.3-8.9c0-3.2-0.3-5-2.7-6.2c-2.4-1.2-3.6-2.5-3.6-2.5s-0.8,4.3-1.9,5.7
	c-1.1,1.4-1.6,4.8-0.1,6.1C34.8,60.4,39.3,64.9,39.3,64.9"></path><path class="st7" d="M37.6,43.9c0,0,2.8,0,5.8-0.9c3-0.9,4.5-1.6,5-3.4c0.5-1.9,0.6-3.7,0.7-5.7c0.1-2-0.1-2.7,0.5-3.1
	c0.6-0.4-0.6,0.9-4,1.5c-3.4,0.6-5.3,0.4-6.2,1.9c-0.9,1.6,0,3.4-0.4,5.4C38.6,41.6,37.6,43.9,37.6,43.9"></path><path class="st0" d="M81.5,41.8c-2.5-0.6-7.1-0.9-10.4-1.2"></path><path class="st0" d="M80.2,34.4c-2.2,2.9-6.3,6.1-10.1,7.3"></path><path class="st0" d="M74.2,31.5c0.7,4.2,1.9,7.8-2.5,9.3"></path><path class="st0" d="M63,44.2c-4.1,3-9.2,5.6-13.1,6"></path><path class="st0" d="M63.6,53c-4.9-1.9-13.1-2.8-14.7-3"></path><path class="st0" d="M55.9,43.4c0.1,3.3,1.1,5.4-4.8,6.9"></path><path class="st1" d="M84.8,48.4c-2-0.2-2.7,0.6-5.2-3.6L77,40.6c0,0,0.9-0.4,2-0.9c1.1-0.5,4.8-2.9,7.7-0.5c2.9,2.4,4.3,4.2,4.7,4.8
	c0.4,0.6,2.1,2.5,2.5,3"></path><path class="st1" d="M92.3,25.8c-1.7,2.1-0.5,6.1-3.4,8.4c-2.8,2.3-8.3,2.5-9.9,2.8c-1.6,0.3-1.3,1.6-0.6-1.1
	c0.7-2.7-0.1-3.1,1.1-5.3c1.2-2.2,5.7-4.4,7.2-4.2C88.2,26.5,92.3,25.8,92.3,25.8"></path><path class="st2" d="M75,36.2c0.2-0.7,1-1.3,2-4.7c1-3.4,1.4-6.2-1-7.5c-2.4-1.3-3.2-0.7-4.5-2.6l-1.3-2c0,0-0.9,2.9-2,7
	c-1.1,4.1,2.5,7.2,4.1,8.2C74,35.6,75,36.2,75,36.2"></path><path class="st3" d="M74.5,38c0,0-2.2,1.1-3.1,4.3c-0.9,3.2-3.5,6.3-7,5.3c-3.4-1-5.6-0.4-5.6-0.4s0.5,0.2,1.1-2.7
	c0.6-2.9,3.7-6.3,6.8-6.6C69.8,37.6,74.5,38,74.5,38"></path><path class="st4" d="M73.3,58.7c0,0-3-5.3-5.4-7.4c-2.4-2.1-4-2.9-6.5-1.8c-2.5,1.1-4.3,1.2-4.3,1.2s2.8,3.3,3.2,5.1
	c0.4,1.8,2.7,4.3,4.7,3.9C66.9,59.3,73.3,58.7,73.3,58.7"></path><path class="st5" d="M56,46.6c0.1,0,1.8-2.2,3-5c1.2-2.9,1.6-4.5,0.5-6c-1.1-1.6-2.5-2.8-3.9-4.1c-1.5-1.3-2.1-1.6-2.1-2.3
	c0-0.7,0.4,1-1.4,4.1c-1.7,3-3.1,4.3-2.4,6c0.7,1.7,2.7,2.2,3.9,3.7C54.8,44.4,56,46.6,56,46.6"></path><path class="st0" d="M67.6,83.8c0-2.5-0.8-7.1-1.4-10.4"></path><path class="st0" d="M74.4,80.8c-3.3-1.5-7.5-4.6-9.5-8"></path><path class="st0" d="M75.8,74.2c-3.9,1.7-7.1,3.7-9.6-0.2"></path><path class="st0" d="M60.7,66.5c-3.9-3.3-7.6-7.5-9-11.2"></path><path class="st0" d="M52.3,69.2c0.6-5.3-0.5-13.4-0.7-15"></path><path class="st0" d="M59.8,59.4c-3.2,0.9-5,2.3-7.9-2.9"></path><path class="st1" d="M62,88.6c-0.3-2-1.3-2.5,2.2-6l3.5-3.5c0,0,0.6,0.8,1.4,1.7c0.8,0.9,4,4,2.4,7.4c-1.6,3.4-3,5.2-3.5,5.7
	c-0.5,0.5-1.9,2.6-2.3,3.2"></path><path class="st6" d="M85.7,90.4c-2.4-1.1-6,1-9-1.2c-2.9-2.2-4.5-7.4-5.1-8.9c-0.7-1.5-1.9-0.9,0.9-0.9c2.8,0,3-0.9,5.4-0.2
	c2.4,0.7,5.7,4.4,5.9,5.9C84,86.6,85.7,90.4,85.7,90.4"></path><path class="st2" d="M71.4,76.2c0.7,0,1.5,0.6,5.1,0.8c3.5,0.2,6.4-0.1,7.1-2.8c0.7-2.7-0.1-3.3,1.4-5l1.6-1.7c0,0-3-0.2-7.3-0.2
	c-4.3,0-6.4,4.2-7,6C71.7,75.1,71.4,76.2,71.4,76.2"></path><path class="st3" d="M69.5,76.2c0,0-1.6-1.9-4.9-2c-3.4-0.1-7-1.9-6.9-5.4c0.1-3.5-1-5.5-1-5.5s-0.1,0.5,2.8,0.4
	c2.9-0.1,7,2,8.1,4.9C68.7,71.5,69.5,76.2,69.5,76.2"></path><path class="st4" d="M49.2,80c0,0,4.5-4.2,5.9-7.1c1.4-2.9,1.8-4.6,0.2-6.8c-1.6-2.1-2.2-3.8-2.2-3.8s-2.5,3.5-4.2,4.3
	c-1.6,0.8-3.5,3.7-2.7,5.5C47,74,49.2,80,49.2,80"></path><path class="st5" d="M56.6,60.3c0,0.1,2.5,1.2,5.6,1.7c3.1,0.5,4.7,0.5,6-1c1.3-1.5,2.1-3.1,3-4.8c0.9-1.8,1-2.5,1.8-2.6
	c0.7-0.1-0.9,0.6-4.3-0.4s-5-1.9-6.4-0.9c-1.4,1.1-1.5,3.1-2.7,4.7C58.5,58.6,56.6,60.3,56.6,60.3"></path><path class="st0" d="M27.9,64.8c2.5-0.1,7.1-1.2,10.3-2"></path><path class="st0" d="M31.3,71.5c1.3-3.4,4.2-7.7,7.5-9.9"></path><path class="st0" d="M38,72.5c-1.9-3.8-4.1-6.9-0.3-9.6"></path><path class="st0" d="M44.9,57.1c3.1-4.1,7.1-8,10.7-9.6"></path><path class="st0" d="M41.8,48.8c5.3,0.4,13.3-1.2,15-1.4"></path><path class="st0" d="M51.9,55.8c-1-3.1-2.6-4.9,2.5-8"></path><path class="st1" d="M22.9,59.4c2-0.4,2.4-1.4,6.1,1.9l3.6,3.3c0,0-0.8,0.7-1.6,1.5c-0.9,0.8-3.8,4.2-7.2,2.7
	c-3.5-1.4-5.4-2.7-5.9-3.2c-0.5-0.5-2.7-1.8-3.3-2.2"></path><path class="st1" d="M22.3,83.2c1-2.5-1.3-6,0.7-9c2-3,7.2-4.8,8.7-5.6c1.5-0.7,0.8-1.9,0.9,0.9c0.1,2.8,1.1,3,0.5,5.4
	c-0.5,2.5-4.1,5.9-5.6,6.2C26,81.4,22.3,83.2,22.3,83.2"></path><path class="st8" d="M35.8,68.3c0,0.7-0.6,1.6-0.6,5.1c0,3.5,0.4,6.3,3.2,6.9c2.7,0.6,3.2-0.3,5.1,1.2l1.8,1.5c0,0,0-3.1-0.1-7.3
	c-0.2-4.3-4.5-6.2-6.4-6.7C36.9,68.5,35.8,68.3,35.8,68.3"></path><path class="st3" d="M35.7,66.3c0,0,1.8-1.7,1.7-5c0-3.4,1.5-7.1,5.1-7.1C46,54.1,48,53,48,53s-0.5-0.1-0.2,2.9
	c0.3,2.9-1.6,7.1-4.5,8.3C40.4,65.3,35.7,66.3,35.7,66.3"></path><path class="st4" d="M30.8,46.3c0,0,4.4,4.2,7.4,5.5c3,1.3,4.7,1.6,6.8-0.2c2.1-1.8,3.7-2.4,3.7-2.4s-3.7-2.4-4.5-3.9
	c-0.9-1.6-3.9-3.3-5.6-2.4C36.7,43.8,30.8,46.3,30.8,46.3"></path><path class="st9" d="M50.9,52.7c-0.1,0-1.1,2.6-1.4,5.7c-0.3,3.1-0.3,4.7,1.3,5.9c1.6,1.2,3.2,2,5,2.8c1.8,0.8,2.5,0.9,2.7,1.6
	c0.2,0.7-0.6-0.9,0.1-4.3c0.8-3.4,1.7-5,0.5-6.4c-1.1-1.4-3.2-1.3-4.8-2.4C52.7,54.4,50.9,52.7,50.9,52.7"></path><path class="st0" d="M46,23.2c-0.3,2.5,0.1,7.2,0.3,10.5"></path><path class="st0" d="M38.9,25.6c3.1,1.8,7,5.4,8.6,8.9"></path><path class="st0" d="M36.8,31.9c4-1.3,7.5-3,9.5,1.2"></path><path class="st0" d="M51,41.2c3.6,3.6,6.8,8.3,7.8,12.1"></path><path class="st0" d="M59.6,39.4c-1.2,5.2-0.9,13.4-0.9,15"></path><path class="st0" d="M51.2,48.4c3.2-0.5,5.2-1.8,7.5,3.8"></path><path class="st1" d="M52.1,19.1c0,2.1,1,2.6-2.8,5.7l-3.8,3.1c0,0-0.6-0.9-1.2-1.8c-0.7-1-3.6-4.4-1.6-7.6c2-3.2,3.5-4.9,4.1-5.3
	c0.6-0.5,2.2-2.4,2.6-2.9"></path><path class="st6" d="M28.7,14.8c2.3,1.4,6.1-0.4,8.8,2.1c2.7,2.5,3.6,7.9,4.1,9.4c0.5,1.6,1.8,1.1-1,0.8c-2.8-0.3-3.1,0.6-5.4-0.3
	c-2.3-0.9-5.2-5-5.2-6.5C29.9,18.7,28.7,14.8,28.7,14.8"></path><path class="st1" d="M41.4,30.4c-0.7-0.1-1.5-0.8-5-1.4c-3.5-0.5-6.3-0.5-7.3,2c-1,2.6-0.2,3.3-1.9,4.8l-1.8,1.6c0,0,3,0.5,7.2,1
	c4.2,0.5,6.8-3.5,7.6-5.2C41,31.5,41.4,30.4,41.4,30.4"></path><path class="st10" d="M43.3,30.7c0,0,1.4,2,4.7,2.5c3.3,0.5,6.7,2.6,6.2,6.1c-0.5,3.5,0.4,5.6,0.4,5.6s0.1-0.5-2.8-0.7
	c-2.9-0.2-6.8-2.7-7.5-5.8C43.5,35.4,43.3,30.7,43.3,30.7"></path><path class="st4" d="M63.8,29c0,0-4.9,3.7-6.6,6.4c-1.7,2.7-2.3,4.4-0.9,6.7c1.4,2.3,1.8,4,1.8,4s2.9-3.3,4.6-3.9
	c1.7-0.6,3.9-3.3,3.2-5.2C65.4,35.2,63.8,29,63.8,29"></path><path class="st11" d="M54.4,47.8c0-0.1-2.4-1.5-5.4-2.3c-3-0.8-4.6-1-6.1,0.4c-1.4,1.4-2.4,2.8-3.5,4.5c-1.1,1.6-1.3,2.4-2,2.4
	c-0.7,0.1,1-0.5,4.2,0.8c3.2,1.3,4.7,2.4,6.3,1.5c1.5-0.9,1.8-2.9,3.1-4.4C52.4,49.3,54.4,47.8,54.4,47.8"></path><path class="st7" d="M66.1,54.9c-2.5-0.6-7.1-0.9-10.4-1.2"></path><path class="st7" d="M64.8,47.5c-2.2,2.9-6.3,6.1-10.1,7.3"></path><path class="st7" d="M58.8,44.6c0.7,4.2,1.9,7.8-2.5,9.3"></path><path class="st7" d="M47.5,57.3c-4.1,3-9.2,5.6-13.1,6"></path><path class="st7" d="M48.1,66.1c-4.9-1.9-13.1-2.8-14.7-3"></path><path class="st7" d="M40.5,56.4c0.1,3.3,1.1,5.4-4.8,6.9"></path><path class="st7" d="M69.3,61.5c-2-0.2-2.7,0.6-5.2-3.6l-2.5-4.2c0,0,0.9-0.4,2-0.9c1.1-0.5,4.8-2.9,7.7-0.5
	c2.9,2.4,4.3,4.2,4.7,4.8c0.4,0.6,2.1,2.5,2.5,3"></path><path class="st7" d="M76.9,38.9c-1.7,2.1-0.5,6.1-3.4,8.4c-2.8,2.3-8.3,2.5-9.9,2.8C62,50.4,62.3,51.7,63,49
	c0.7-2.7-0.1-3.1,1.1-5.3c1.2-2.2,5.7-4.4,7.2-4.2C72.8,39.6,76.9,38.9,76.9,38.9"></path><path class="st12" d="M59.6,49.3c0.2-0.7,1-1.3,2-4.7c1-3.4,1.4-6.2-1-7.5c-2.4-1.3-3.2-0.7-4.5-2.6l-1.3-2c0,0-0.9,2.9-2,7
	c-1.1,4.1,2.5,7.2,4.1,8.2C58.6,48.7,59.6,49.3,59.6,49.3"></path><path class="st7" d="M59.1,51.1c0,0-2.2,1.1-3.1,4.3c-0.9,3.2-3.5,6.3-7,5.3c-3.4-1-5.6-0.4-5.6-0.4s0.5,0.2,1.1-2.7
	c0.6-2.9,3.7-6.3,6.8-6.6C54.3,50.7,59.1,51.1,59.1,51.1"></path><path class="st13" d="M57.9,71.7c0,0-3-5.3-5.4-7.4c-2.4-2.1-4-2.9-6.5-1.8c-2.5,1.1-4.3,1.2-4.3,1.2s2.8,3.3,3.2,5.1
	c0.4,1.8,2.7,4.3,4.7,3.9C51.5,72.4,57.9,71.7,57.9,71.7"></path><path class="st14" d="M40.6,59.7c0.1,0,1.8-2.2,3-5c1.2-2.9,1.6-4.5,0.5-6c-1.1-1.6-2.5-2.8-3.9-4.1c-1.5-1.3-2.1-1.6-2.1-2.3
	c0-0.7,0.4,1-1.4,4.1c-1.7,3-3.1,4.3-2.4,6c0.7,1.7,2.7,2.2,3.9,3.7C39.4,57.5,40.6,59.7,40.6,59.7"></path><path class="st0" d="M79.6,57.5c-1.6-2-5.2-4.9-7.7-7.1"></path><path class="st0" d="M82.9,50.7c-3.5,1-8.7,1.2-12.4,0"></path><path class="st0" d="M79.8,44.8c-1.9,3.8-3.1,7.4-7.5,6"></path><path class="st0" d="M63.2,48.5c-5.1,0-10.7-0.9-14.1-2.9"></path><path class="st0" d="M58.5,56c-2.9-4.4-9-9.9-10.1-11.1"></path><path class="st0" d="M58,43.7c-1.9,2.7-2.3,5-8,2.8"></path><path class="st1" d="M78.4,64.8c-1.5-1.4-2.6-1.1-2.1-6l0.5-4.9c0,0,1,0.2,2.2,0.4c1.2,0.2,5.6,0.5,6.5,4.1c0.9,3.6,1.1,5.9,1,6.7
	c-0.1,0.7,0.2,3.3,0.2,3.9"></path><path class="st1" d="M97.8,51c-2.6,0.7-4,4.6-7.7,4.8c-3.6,0.2-8.2-2.9-9.7-3.6c-1.5-0.7-2,0.5,0.1-1.3c2.2-1.8,1.7-2.6,4-3.7
	c2.3-1,7.2-0.2,8.3,0.8C94.1,49.1,97.8,51,97.8,51"></path><path class="st2" d="M77.7,49.1c0.6-0.5,1.6-0.5,4.4-2.6c2.8-2.1,4.8-4.2,3.6-6.7c-1.2-2.5-2.2-2.4-2.1-4.7l0.1-2.3
	c0,0-2.5,1.8-5.8,4.5c-3.3,2.7-2.2,7.3-1.5,9.1C77.2,48.1,77.7,49.1,77.7,49.1"></path><path class="st3" d="M76.2,50.3c0,0-2.4-0.4-5.1,1.6c-2.7,2-6.6,3-8.7,0.2c-2.2-2.8-4.3-3.6-4.3-3.6s0.3,0.4,2.4-1.5
	c2.2-2,6.7-2.9,9.4-1.4C72.6,47.2,76.2,50.3,76.2,50.3"></path><path class="st4" d="M63.1,66.3c0,0,0.8-6.1,0-9.2c-0.8-3.1-1.5-4.7-4.2-5.3c-2.6-0.6-4.2-1.5-4.2-1.5s0.3,4.4-0.4,6
	c-0.7,1.6-0.3,5.1,1.4,5.9C57.5,63,63.1,66.3,63.1,66.3"></path><path class="st5" d="M56.2,46.4c0,0,2.7-0.7,5.4-2.3c2.7-1.6,4-2.6,4-4.6c0-2-0.3-3.7-0.8-5.7c-0.4-1.9-0.8-2.6-0.3-3.1
	c0.5-0.6-0.3,1-3.5,2.5c-3.2,1.4-5,1.7-5.5,3.4c-0.4,1.7,0.9,3.3,1,5.3C56.5,43.9,56.2,46.4,56.2,46.4"></path><path class="st0" d="M43.6,83.3c1.5-2,3.5-6.3,5-9.2"></path><path class="st0" d="M50.9,84.8c-1.8-3.1-3.3-8.2-3-12.1"></path><path class="st0" d="M55.9,80.3c-4.1-0.9-7.9-1.2-7.7-5.8"></path><path class="st0" d="M48.3,65.2c-1.3-4.9-1.7-10.6-0.7-14.4"></path><path class="st0" d="M39.9,62.4c3.6-3.9,7.4-11.1,8.3-12.6"></path><path class="st0" d="M51.7,58.9c-3.1-1.1-5.4-1-4.6-7"></path><path class="st1" d="M36.2,83.8c1-1.8,0.4-2.8,5.3-3.5l4.9-0.8c0,0,0,1,0.1,2.2c0.1,1.2,0.9,5.6-2.4,7.3c-3.3,1.8-5.5,2.5-6.2,2.6
	c-0.7,0.1-3.1,1-3.7,1.2"></path><path class="st6" d="M54.4,99.2c-1.3-2.3-5.5-2.8-6.5-6.2c-1.1-3.5,0.8-8.6,1.1-10.2c0.4-1.6-1-1.9,1.3-0.2c2.3,1.7,3,1,4.5,3
	c1.6,2,2,6.9,1.2,8.3C55.3,95.2,54.4,99.2,54.4,99.2"></path><path class="st2" d="M51.2,79.3c0.6,0.4,0.9,1.4,3.6,3.7c2.8,2.2,5.2,3.6,7.4,1.9c2.2-1.8,1.8-2.7,4.1-3.2l2.3-0.5
	c0,0-2.4-2-5.8-4.5c-3.4-2.5-7.6-0.4-9.2,0.8C52.1,78.6,51.2,79.3,51.2,79.3"></path><path class="st3" d="M49.7,78.2c0,0-0.2-2.4-2.8-4.5c-2.6-2.1-4.5-5.6-2.3-8.4c2.2-2.8,2.5-5,2.5-5s-0.4,0.4,2.1,2
	c2.4,1.6,4.5,5.7,3.6,8.7C51.9,73.9,49.7,78.2,49.7,78.2"></path><path class="st4" d="M31,69.4c0,0,6.1-0.8,8.9-2.3c2.8-1.5,4.2-2.6,4.1-5.3c-0.1-2.7,0.5-4.4,0.5-4.4s-4.1,1.4-5.9,1
	c-1.8-0.3-5,0.9-5.4,2.9C32.8,63.2,31,69.4,31,69.4"></path><path class="st5" d="M48.6,57.8c0,0,1.3,2.5,3.5,4.7c2.2,2.2,3.5,3.2,5.4,2.7c1.9-0.5,3.5-1.2,5.3-2.1c1.8-0.9,2.3-1.4,3-1.1
	c0.7,0.3-1.1-0.1-3.2-2.8c-2.2-2.7-2.9-4.5-4.7-4.5c-1.8,0-3,1.7-4.9,2.2C51.1,57.5,48.6,57.8,48.6,57.8"></path><path class="st0" d="M22.8,44.5c2.1,1.4,6.4,3.2,9.5,4.5"></path><path class="st0" d="M21.6,51.9c3-2,8-3.8,11.9-3.6"></path><path class="st0" d="M26.3,56.6c0.7-4.2,0.8-8,5.4-7.9"></path><path class="st0" d="M41.1,48.3c4.9-1.5,10.5-2.3,14.3-1.4"></path><path class="st0" d="M43.4,39.8c4,3.4,11.5,6.9,13,7.7"></path><path class="st0" d="M47.5,51.4c1-3.1,0.8-5.4,6.8-5"></path><path class="st1" d="M21.9,37.2c1.8,0.9,2.8,0.3,3.8,5.1l1,4.8c0,0-1,0.1-2.2,0.2c-1.2,0.1-5.5,1.2-7.5-2c-2-3.2-2.7-5.3-2.9-6.1
	c-0.1-0.7-1.2-3.1-1.4-3.7"></path><path class="st1" d="M7.4,56.1c2.3-1.4,2.5-5.6,5.9-6.8c3.4-1.2,8.7,0.3,10.3,0.6c1.6,0.3,1.8-1.1,0.2,1.2c-1.6,2.3-0.9,3-2.8,4.7
	c-1.9,1.7-6.8,2.3-8.2,1.7C11.5,56.7,7.4,56.1,7.4,56.1"></path><path class="st2" d="M27.1,51.9c-0.4,0.6-1.4,0.9-3.5,3.8c-2.1,2.9-3.4,5.4-1.5,7.4c1.9,2.1,2.8,1.7,3.4,3.9l0.6,2.3
	c0,0,1.8-2.4,4.2-6c2.4-3.5,0-7.7-1.2-9.1C27.8,52.8,27.1,51.9,27.1,51.9"></path><path class="st3" d="M28.1,50.3c0,0,2.4-0.3,4.4-3c1.9-2.7,5.4-4.8,8.3-2.8c2.9,2,5.2,2.2,5.2,2.2s-0.4-0.3-1.9,2.2
	c-1.5,2.5-5.5,4.8-8.6,4.1C32.5,52.3,28.1,50.3,28.1,50.3"></path><path class="st4" d="M36,31.2c0,0,1.1,6,2.7,8.8c1.6,2.8,2.9,4.1,5.5,3.9c2.7-0.2,4.4,0.2,4.4,0.2s-1.6-4.1-1.3-5.9
	c0.2-1.8-1.2-4.9-3.1-5.2C42.3,32.7,36,31.2,36,31.2"></path><path class="st5" d="M48.5,48.2c0,0-2.4,1.5-4.5,3.8c-2.1,2.3-3,3.7-2.4,5.5c0.6,1.9,1.4,3.5,2.4,5.2c1,1.7,1.5,2.2,1.2,2.9
	c-0.3,0.7,0-1.1,2.6-3.4c2.6-2.3,4.3-3.1,4.2-4.9c-0.1-1.8-1.8-2.9-2.5-4.8C48.9,50.7,48.5,48.2,48.5,48.2"></path><path class="st0" d="M61.9,21.6c-1.7,1.9-4.2,5.8-5.9,8.7"></path><path class="st0" d="M54.8,19.2c1.5,3.3,2.5,8.5,1.7,12.3"></path><path class="st0" d="M49.3,23.2c4,1.3,7.8,2,7,6.6"></path><path class="st0" d="M55.3,39.1c0.7,5.1,0.6,10.7-0.8,14.4"></path><path class="st0" d="M63.4,42.7c-4,3.5-8.6,10.3-9.6,11.6"></path><path class="st0" d="M51.3,44.9c2.9,1.5,5.3,1.6,3.9,7.5"></path><path class="st1" d="M69.3,21.8c-1.2,1.7-0.7,2.7-5.6,2.9L58.7,25c0,0,0.1-1,0.1-2.2c0-1.2-0.3-5.6,3.2-7.1c3.5-1.4,5.7-1.9,6.4-1.9
	c0.7,0,3.2-0.7,3.8-0.8"></path><path class="st6" d="M52.9,4.5c1.1,2.4,5.1,3.3,5.8,6.9c0.7,3.6-1.7,8.5-2.2,10.1c-0.5,1.6,0.8,2-1.3,0c-2.1-1.9-2.8-1.3-4.2-3.5
	c-1.4-2.1-1.3-7.1-0.4-8.4C51.6,8.5,52.9,4.5,52.9,4.5"></path><path class="st1" d="M53.9,24.6c-0.5-0.5-0.7-1.5-3.2-4c-2.5-2.5-4.8-4.2-7.1-2.7c-2.3,1.5-2.1,2.5-4.4,2.7l-2.3,0.2
	c0,0,2.1,2.2,5.3,5.1c3.1,2.9,7.6,1.2,9.2,0.2C52.9,25.3,53.9,24.6,53.9,24.6"></path><path class="st3" d="M55.3,25.9c0,0-0.1,2.4,2.3,4.8c2.4,2.3,3.9,6.1,1.4,8.6c-2.5,2.6-3,4.8-3,4.8s0.4-0.3-1.9-2.2
	c-2.3-1.9-3.8-6.2-2.7-9.1C52.7,30,55.3,25.9,55.3,25.9"></path><path class="st4" d="M72.9,36.7c0,0-6.1,0.1-9.1,1.3c-3,1.2-4.5,2.2-4.7,4.9c-0.2,2.7-0.9,4.3-0.9,4.3s4.3-0.9,6-0.4
	c1.7,0.5,5.1-0.4,5.7-2.3C70.5,42.7,72.9,36.7,72.9,36.7"></path><path class="st5" d="M54.2,46.4c0,0-1.1-2.6-3-5c-2-2.4-3.2-3.5-5.1-3.3c-1.9,0.3-3.6,0.9-5.5,1.5c-1.9,0.7-2.4,1.1-3.1,0.8
	c-0.6-0.4,1.1,0.2,2.9,3.1c1.9,3,2.4,4.8,4.2,4.9c1.8,0.2,3.2-1.3,5.1-1.7C51.7,46.4,54.2,46.4,54.2,46.4"></path><path class="st7" d="M59.5,58.9c-1.6-2-5.2-4.9-7.7-7.1"></path><path class="st7" d="M62.8,52.2c-3.5,1-8.7,1.2-12.4,0"></path><path class="st7" d="M59.6,46.3c-1.9,3.8-3.1,7.4-7.5,6"></path><path class="st7" d="M43.1,50C38,50,32.4,49.1,29,47.1"></path><path class="st7" d="M38.4,57.4c-2.9-4.4-9-9.9-10.1-11.1"></path><path class="st7" d="M37.8,45.1c-1.9,2.7-2.3,5-8,2.8"></path><path class="st7" d="M58.2,66.2c-1.5-1.4-2.6-1.1-2.1-6l0.5-4.9c0,0,1,0.2,2.2,0.4c1.2,0.2,5.6,0.5,6.5,4.1c0.9,3.6,1.1,5.9,1,6.7
	c-0.1,0.7,0.2,3.3,0.2,3.9"></path><path class="st7" d="M77.6,52.4c-2.6,0.7-4,4.6-7.7,4.8c-3.6,0.2-8.2-2.9-9.7-3.6c-1.5-0.7-2,0.5,0.1-1.3c2.2-1.8,1.7-2.6,4-3.7
	c2.3-1,7.2-0.2,8.3,0.8C73.9,50.6,77.6,52.4,77.6,52.4"></path><path class="st7" d="M57.5,50.6c0.6-0.5,1.6-0.5,4.4-2.6c2.8-2.1,4.8-4.2,3.6-6.7c-1.2-2.5-2.2-2.4-2.1-4.7l0.1-2.3
	c0,0-2.5,1.8-5.8,4.5c-3.3,2.7-2.2,7.3-1.5,9.1C57.1,49.6,57.5,50.6,57.5,50.6"></path><path class="st7" d="M56,51.8c0,0-2.4-0.4-5.1,1.6c-2.7,2-6.6,3-8.7,0.2C40.1,50.8,38,50,38,50s0.3,0.4,2.4-1.5
	c2.2-2,6.7-2.9,9.4-1.4C52.4,48.7,56,51.8,56,51.8"></path><path class="st7" d="M42.9,67.7c0,0,0.8-6.1,0-9.2c-0.8-3.1-1.5-4.7-4.2-5.3c-2.6-0.6-4.2-1.5-4.2-1.5s0.3,4.4-0.4,6
	c-0.7,1.6-0.3,5.1,1.4,5.9C37.4,64.5,42.9,67.7,42.9,67.7"></path><path class="st7" d="M36,47.8c0,0,2.7-0.7,5.4-2.3c2.7-1.6,4-2.6,4-4.6c0-2-0.3-3.7-0.8-5.7c-0.4-1.9-0.8-2.6-0.3-3.1
	c0.5-0.6-0.3,1-3.5,2.5c-3.2,1.4-5,1.7-5.5,3.4c-0.4,1.7,0.9,3.3,1,5.3C36.3,45.3,36,47.8,36,47.8"></path><path class="st0" d="M78,34.8c-2.5,0-7.1,0.9-10.4,1.5"></path><path class="st0" d="M74.9,28c-1.4,3.3-4.6,7.5-7.9,9.6"></path><path class="st0" d="M68.3,26.7c1.7,3.9,3.8,7.1-0.1,9.6"></path><path class="st0" d="M60.6,41.8c-3.2,4-7.5,7.7-11.2,9.1"></path><path class="st0" d="M63.4,50.1c-5.3-0.6-13.4,0.6-15,0.8"></path><path class="st0" d="M53.6,42.7c0.9,3.2,2.4,5-2.9,7.9"></path><path class="st1" d="M82.8,40.4c-2,0.3-2.5,1.3-6-2.2l-3.5-3.5c0,0,0.8-0.6,1.7-1.4c0.9-0.8,3.9-4,7.3-2.4c3.4,1.6,5.2,2.9,5.8,3.5
	c0.5,0.5,2.6,1.9,3.2,2.3"></path><path class="st1" d="M84.5,16.7c-1.1,2.4,1,6-1.2,9c-2.2,2.9-7.4,4.5-8.9,5.2c-1.5,0.7-0.9,1.9-0.9-0.9c0-2.8-0.9-3-0.3-5.4
	c0.7-2.4,4.4-5.7,5.9-5.9C80.7,18.4,84.5,16.7,84.5,16.7"></path><path class="st2" d="M70.3,31c0-0.7,0.6-1.5,0.8-5.1c0.2-3.5-0.2-6.4-2.8-7c-2.7-0.7-3.3,0.2-5-1.4l-1.7-1.6c0,0-0.2,3.1-0.2,7.3
	c0,4.3,4.2,6.4,6,6.9C69.2,30.7,70.3,31,70.3,31"></path><path class="st3" d="M70.3,32.9c0,0-1.9,1.6-2,4.9c-0.1,3.4-1.9,7-5.4,6.9c-3.5-0.1-5.5,1-5.5,1s0.5,0.1,0.4-2.8
	c-0.1-2.9,2-7,4.9-8.1C65.6,33.7,70.3,32.9,70.3,32.9"></path><path class="st4" d="M74.2,53.2c0,0-4.2-4.4-7.1-5.8c-2.9-1.4-4.6-1.8-6.8-0.2c-2.1,1.7-3.8,2.2-3.8,2.2s3.6,2.5,4.4,4.1
	c0.8,1.6,3.7,3.5,5.5,2.7C68.2,55.4,74.2,53.2,74.2,53.2"></path><path class="st5" d="M54.5,45.9c0.1,0,1.2-2.5,1.7-5.6c0.5-3.1,0.5-4.7-1-6c-1.5-1.3-3.1-2.1-4.9-3c-1.8-0.9-2.5-1-2.6-1.7
	c-0.1-0.7,0.6,0.9-0.3,4.3c-0.9,3.4-1.9,5-0.8,6.4c1.1,1.4,3.1,1.4,4.7,2.6C52.8,44,54.5,45.9,54.5,45.9"></path><path class="st0" d="M75,79c-0.6-2.5-2.6-6.7-4-9.7"></path><path class="st0" d="M80.8,74.3c-3.6-0.6-8.4-2.6-11.2-5.3"></path><path class="st0" d="M80.5,67.6c-3.3,2.6-5.9,5.4-9.3,2.2"></path><path class="st0" d="M64,63.9c-4.6-2.2-9.3-5.4-11.5-8.6"></path><path class="st0" d="M56.6,68.6c-0.7-5.2-3.9-12.8-4.4-14.4"></path><path class="st0" d="M61.3,57.3c-2.8,1.6-4.2,3.5-8.4-0.9"></path><path class="st1" d="M70.7,85.1c-0.8-1.9-1.9-2.1,0.7-6.3l2.5-4.2c0,0,0.8,0.6,1.8,1.3c1,0.7,4.9,2.8,4.1,6.5
	c-0.7,3.7-1.6,5.8-2,6.4c-0.4,0.6-1.2,3-1.5,3.6"></path><path class="st6" d="M94.2,80.9c-2.6-0.5-5.6,2.5-9,1.1c-3.4-1.4-6.2-6.1-7.2-7.4c-1-1.3-2.1-0.4,0.7-1.1c2.7-0.7,2.7-1.6,5.2-1.6
	c2.5,0,6.6,2.9,7.2,4.3C91.6,77.6,94.2,80.9,94.2,80.9"></path><path class="st2" d="M76.8,70.7c0.7-0.2,1.6,0.2,5.1-0.5c3.5-0.7,6.1-1.7,6.1-4.5c0-2.8-1-3.1,0.1-5.2l1.1-2.1c0,0-3,0.6-7.1,1.6
	c-4.1,1-5.1,5.7-5.2,7.6C76.8,69.5,76.8,70.7,76.8,70.7"></path><path class="st3" d="M74.9,71.1c0,0-2-1.4-5.3-0.7c-3.3,0.7-7.2-0.1-8-3.6c-0.8-3.5-2.3-5.1-2.3-5.1s0,0.5,2.8-0.4
	c2.8-0.9,7.3,0.2,9.1,2.8C73,66.7,74.9,71.1,74.9,71.1"></path><path class="st4" d="M56.3,79.9c0,0,3.3-5.2,3.9-8.3c0.7-3.1,0.6-4.9-1.5-6.6c-2.1-1.7-3.1-3.1-3.1-3.1s-1.6,4.1-3,5.2
	c-1.4,1.2-2.4,4.4-1.2,6C52.6,74.6,56.3,79.9,56.3,79.9"></path><path class="st5" d="M58.5,58.9c0,0.1,2.8,0.5,5.8,0.2c3.1-0.3,4.7-0.7,5.5-2.5c0.8-1.8,1.3-3.5,1.7-5.4c0.4-1.9,0.4-2.7,1.1-3
	c0.7-0.3-0.7,0.8-4.2,0.7s-5.3-0.6-6.4,0.8c-1.1,1.4-0.6,3.4-1.4,5.2C59.9,56.9,58.5,58.9,58.5,58.9"></path><path class="st0" d="M31.8,70.5c2.4-0.7,6.6-2.9,9.5-4.5"></path><path class="st0" d="M36.8,76.1c0.4-3.6,2.2-8.6,4.8-11.5"></path><path class="st0" d="M43.5,75.4c-2.8-3.2-5.7-5.7-2.7-9.2"></path><path class="st0" d="M46.4,58.7c1.9-4.7,4.9-9.5,8-11.9"></path><path class="st0" d="M41.3,51.5c5.2-1,12.6-4.5,14.2-5.1"></path><path class="st0" d="M52.8,55.7c-1.8-2.8-3.7-4.1,0.5-8.4"></path><path class="st1" d="M25.6,66.5c1.9-0.9,2-2,6.4,0.3l4.4,2.3c0,0-0.6,0.9-1.2,1.8c-0.6,1-2.6,5-6.3,4.5c-3.7-0.5-5.9-1.3-6.5-1.6
	c-0.7-0.3-3.1-1.1-3.7-1.3"></path><path class="st1" d="M30.9,89.7c0.3-2.6-2.7-5.5-1.5-8.9c1.2-3.4,5.8-6.5,7-7.6c1.3-1.1,0.3-2.1,1.1,0.6c0.8,2.7,1.8,2.6,1.9,5.1
	c0.1,2.5-2.5,6.8-3.9,7.4C34.1,87,30.9,89.7,30.9,89.7"></path><path class="st8" d="M40.3,71.9c0.2,0.7-0.2,1.7,0.7,5.1c0.9,3.4,2,6,4.8,5.9c2.8-0.1,3.1-1.1,5.2-0.1l2.1,1c0,0-0.7-3-2-7
	c-1.2-4.1-5.9-4.8-7.8-4.9C41.4,71.8,40.3,71.9,40.3,71.9"></path><path class="st3" d="M39.7,70c0,0,1.3-2.1,0.4-5.3c-0.9-3.2-0.3-7.2,3.1-8.2c3.4-0.9,5-2.6,5-2.6s-0.5,0.1,0.5,2.8
	c1,2.8,0.2,7.3-2.3,9.2C44,67.9,39.7,70,39.7,70"></path><path class="st4" d="M30,51.8c0,0,5.3,3,8.5,3.5c3.2,0.5,5,0.4,6.5-1.8c1.5-2.2,3-3.3,3-3.3s-4.1-1.4-5.4-2.7
	c-1.2-1.3-4.6-2.2-6-0.9C35.1,47.9,30,51.8,30,51.8"></path><path class="st9" d="M51.1,53c-0.1,0-0.4,2.8,0.1,5.9c0.5,3.1,0.9,4.7,2.7,5.4c1.8,0.8,3.6,1.1,5.5,1.5c1.9,0.4,2.7,0.3,3,0.9
	c0.3,0.6-0.8-0.7-0.9-4.2c-0.1-3.5,0.4-5.3-1.1-6.4c-1.4-1.1-3.4-0.5-5.3-1.1C53.2,54.3,51.1,53,51.1,53"></path><path class="st0" d="M39,25.7c0.4,2.5,1.9,6.9,2.9,10.1"></path><path class="st0" d="M32.6,29.7c3.5,1,8.1,3.5,10.6,6.5"></path><path class="st0" d="M32.2,36.4c3.6-2.3,6.5-4.7,9.5-1.2"></path><path class="st0" d="M48.3,41.9c4.4,2.6,8.7,6.3,10.5,9.8"></path><path class="st0" d="M56.2,38c0.1,5.3,2.5,13.1,2.9,14.8"></path><path class="st0" d="M50.2,48.7c3-1.3,4.6-3,8.2,1.8"></path><path class="st1" d="M43.8,20.2c0.6,2,1.6,2.3-1.3,6.2l-2.9,3.9c0,0-0.8-0.7-1.6-1.5c-0.9-0.8-4.5-3.3-3.4-6.9
	c1.1-3.6,2.2-5.6,2.6-6.2c0.4-0.6,1.5-2.9,1.8-3.5"></path><path class="st6" d="M20.1,21.8c2.6,0.7,5.8-1.9,9-0.1c3.2,1.7,5.5,6.7,6.4,8.1c0.9,1.4,2,0.6-0.8,1c-2.8,0.4-2.8,1.3-5.3,1
	c-2.5-0.3-6.3-3.5-6.7-5C22.3,25.4,20.1,21.8,20.1,21.8"></path><path class="st1" d="M36.3,33.8c-0.7,0.1-1.6-0.4-5.1-0.1c-3.5,0.3-6.3,1-6.6,3.8c-0.3,2.8,0.6,3.2-0.7,5.1l-1.3,1.9
	c0,0,3-0.3,7.3-0.8c4.2-0.6,5.7-5.1,6-7C36.1,35,36.3,33.8,36.3,33.8"></path><path class="st10" d="M38.2,33.6c0,0,1.8,1.6,5.2,1.2c3.3-0.4,7.2,0.9,7.6,4.4c0.4,3.5,1.8,5.3,1.8,5.3s0-0.5-2.9,0
	c-2.9,0.6-7.2-1-8.7-3.7C39.6,38.1,38.2,33.6,38.2,33.6"></path><path class="st4" d="M57.7,26.8c0,0-3.8,4.8-4.8,7.8c-1,3.1-1.1,4.8,0.8,6.7c1.9,1.9,2.8,3.5,2.8,3.5s2-3.9,3.5-4.9
	c1.5-1,2.9-4.2,1.9-5.8C60.7,32.5,57.7,26.8,57.7,26.8"></path><path class="st11" d="M53.2,47.4c0-0.1-2.7-0.8-5.8-0.8c-3.1,0-4.7,0.2-5.8,1.9c-1,1.7-1.7,3.4-2.3,5.2c-0.6,1.9-0.7,2.6-1.4,2.9
	c-0.7,0.2,0.8-0.7,4.3-0.3c3.5,0.5,5.2,1.2,6.5-0.1c1.3-1.3,1-3.3,1.9-5C51.6,49.4,53.2,47.4,53.2,47.4"></path><path class="st7" d="M66.3,51.3c-2.5,0-7.1,0.9-10.4,1.5"></path><path class="st7" d="M63.2,44.5c-1.4,3.3-4.6,7.5-7.9,9.6"></path><path class="st7" d="M56.6,43.2c1.7,3.9,3.8,7.1-0.1,9.6"></path><path class="st7" d="M48.9,58.3c-3.2,4-7.5,7.7-11.2,9.1"></path><path class="st7" d="M51.7,66.7c-5.3-0.6-13.4,0.6-15,0.8"></path><path class="st7" d="M41.9,59.3c0.9,3.2,2.4,5-2.9,7.9"></path><path class="st7" d="M71.1,56.9c-2,0.3-2.5,1.3-6-2.2l-3.5-3.5c0,0,0.8-0.6,1.7-1.4c0.9-0.8,3.9-4,7.3-2.4c3.4,1.6,5.2,2.9,5.8,3.5
	c0.5,0.5,2.6,1.9,3.2,2.3"></path><path class="st7" d="M72.8,33.2c-1.1,2.4,1,6-1.2,9c-2.2,2.9-7.4,4.5-8.9,5.2c-1.5,0.7-0.9,1.9-0.9-0.9c0-2.8-0.9-3-0.3-5.4
	c0.7-2.4,4.4-5.7,5.9-5.9C69,34.9,72.8,33.2,72.8,33.2"></path><path class="st12" d="M58.6,47.5c0-0.7,0.6-1.5,0.8-5.1c0.2-3.5-0.2-6.4-2.8-7c-2.7-0.7-3.3,0.2-5-1.4l-1.7-1.6c0,0-0.2,3-0.2,7.3
	c0,4.3,4.2,6.4,6,6.9C57.5,47.2,58.6,47.5,58.6,47.5"></path><path class="st7" d="M58.6,49.4c0,0-1.9,1.6-2,4.9c-0.1,3.4-1.9,7-5.4,6.9c-3.5-0.1-5.5,1-5.5,1s0.5,0.1,0.4-2.8s2-7,4.9-8.1
	C53.9,50.2,58.6,49.4,58.6,49.4"></path><path class="st13" d="M62.6,69.7c0,0-4.2-4.4-7.1-5.8c-2.9-1.4-4.6-1.8-6.8-0.2c-2.1,1.7-3.8,2.2-3.8,2.2s3.6,2.5,4.4,4.1
	c0.8,1.6,3.7,3.5,5.5,2.7C56.5,71.9,62.6,69.7,62.6,69.7"></path><path class="st14" d="M42.8,62.4c0.1,0,1.2-2.5,1.7-5.6c0.5-3.1,0.5-4.7-1-6c-1.5-1.3-3.1-2.1-4.9-3c-1.8-0.9-2.5-1-2.6-1.7
	c-0.1-0.7,0.6,0.9-0.3,4.3c-0.9,3.4-1.9,5-0.8,6.4c1.1,1.4,3.1,1.4,4.7,2.6C41.1,60.6,42.8,62.4,42.8,62.4"></path><path class="st18" d="M65.7,33.4c0-1.2-2.7-5.3-4.5-6.8c-1.8-1.5-4-2.7-3.9-4.8c0.2-2.1-0.7-5.5,3-6.9s10.5-3.3,10.5-3.3
	s1.2,3.3,1.8,4.5c0.6,1.2,1.3,5.5,0.7,6.9c-0.6,1.5-2.1,4-2.8,5.5c-0.7,1.5-3.5,6-3.5,6L65.7,33.4z"></path><path class="st19" d="M65.8,35c0,0,3.2-8.4,5.3-10.3c2.1-1.9,3-3.9,4.6-3.5s6.9,4.1,8.1,5.1c1.2,1,3.2,4.4,3.3,4.7
	c0.1,0.3-2.5,3.3-4.5,5c-2.1,1.7-6.8,2.1-6.8,2.1s-4.8-0.9-5.5-1.1c-0.7-0.2-0.9-0.6-1.6-0.7C68,36.2,65.8,35,65.8,35z"></path><path class="st20" d="M64.7,34.8c-0.5,0.1-4.2,3.7-8.2,4.1s-5.7,0.3-6.2-0.7s-2.4-4.9-1.5-6.7c0.9-1.8,1.2-5.3,1.2-5.3
	s4.3-0.2,5-0.5c0.7-0.3,1.7-1.5,3.8-1.1s3.9,4.4,4.9,5c1,0.5,1.4,2,1.7,2.9C65.7,33.4,64.7,34.8,64.7,34.8z"></path><path class="st21" d="M65.8,35.9c0,0,2,9.7-0.4,11.9c-2.4,2.2-6.6,5.3-7.7,5.6c-1.1,0.3-4.7,1.7-4.7,1.7s0.9-6.5,1.1-8.2
	c0.3-1.6,2.2-6.4,3.9-7.3c1.6-0.9,3.4-2.6,3.9-3c0.5-0.4,2.8-1.9,2.8-1.9L65.8,35.9z"></path><path class="st20" d="M67.8,34.8c0,0,6.8,1.1,8,3.4s2.2,7.7,2.1,8.5c-0.1,0.8-0.9,3.2-1.5,3.9s-2,1.6-2.9,0.5
	c-0.9-1.1-4.1-4.8-5.1-6.2s-2.5-3-2.6-4.5s-0.8-2.1-0.4-3.3C65.8,35.9,67.8,34.8,67.8,34.8z"></path><polygon class="st22" points="65.4,32.5 68.1,32.5 67.8,34.8 65.4,37.1 64.7,34.8 "></polygon><path class="st20" d="M28.4,53.6c0,0-1.5-0.9-7.5-1.5s-6.1-2.5-10.6,0s-4.5,2.6-5.7,3.5s-0.9,1.6-0.9,1.6s3.6,5.1,6.2,8
	s8.5,3.8,8.5,3.8s4.2-2.8,4.6-4c0.4-1.2,1.8-3.1,3.6-5c1.8-1.9,2.3-2.7,2.8-3c0.5-0.3,1.4-1.5,1.4-1.5L28.4,53.6z"></path><path class="st23" d="M31.4,53.1c0.3-0.4-2.9-13.4-4-14.1c-1.1-0.7-4.2-4-5.5-4.9c-1.3-0.9-5.3-3.4-5.3-3.4s-5.7,10.2-6,12
	s0.3,5.4,2.1,6.6c1.8,1.2,7.5,2.1,8.3,2.8c0.9,0.7,9.9,3.3,9.9,3.3L31.4,53.1z"></path><path class="st20" d="M33.8,54.6c0,0,7.8-5.1,9.8-7.1c2-2,5.8-8.1,5.9-8.5c0.1-0.4,0.9-3,0.9-3s-6.1-2.6-7.6-2.8
	c-1.5-0.3-3.9-1.2-5.7-1.2c-1.7,0-2.7-1-4.6,1.9c-2,2.9-1.8,4.4-1.7,6.5c0.1,2.1,0.5,4.8,0.5,6.6s0,4.2,0,5.2s-0.3,2.1-0.3,2.1
	L33.8,54.6z"></path><path class="st24" d="M32.3,55.3c0,0,3.1-0.8,5.1-1.8c2-0.9,8.4-4.9,10.6-5.3s5.5,1.1,6.3,2.5c0.9,1.4,3.2,10.8,2.1,12.3
	c-1.1,1.5-5.2,4.2-6.4,3.9c-1.2-0.3-6.6-3.3-8.8-3.9c-2.1-0.7-5.2-2.1-6.1-2.6s-2.6-1.9-2.8-2.5c-0.3-0.6-0.9-2-0.9-2L32.3,55.3z"></path><path class="st25" d="M31.1,54.3c0,0-5.6,7.1-5.9,8.5c-0.3,1.4-3.6,8.2-3.7,9.3s1.1,2.2,1.5,2.7c0.4,0.4,2.6,5,3.3,5.6
	c0.6,0.6,1.6,1.4,4,0.4S42,76.4,43,75.4c1-1,1.7-5.1,1-6.4c-0.7-1.3-3.6-4.4-5.3-5.9c-1.7-1.6-2.9-2.6-3.6-3.6
	c-0.7-1.1-2.8-4.1-2.8-4.1L31.1,54.3z"></path><path class="st22" d="M29.4,52.7c-0.2,0.1-0.9,0.9-0.9,0.9s0.1,0.4,0,0.7c-0.1,0.3,0,1.1,0,1.1s-1.1,0.1,0,0.8
	c1.1,0.7,1.1,0.7,1.1,0.7s1.9,0.8,1.9,0c0-0.8,0.9-0.6,0.9-0.6c0-0.9,0.8-1.6,0.6-2c-0.2-0.3,0.2-0.3,0-0.7c-0.2-0.4,0.1,0-0.2-0.4
	c-0.3-0.4-1.3-0.1-1.3-0.1L29.4,52.7z"></path><path class="st18" d="M75.7,64.3c0-0.9,0.3-12.8,0-14.2c-0.3-1.3-1.5-2.2-2.7-2.5c-1.2-0.3-3.9-0.9-4.6-1.4
	c-0.7-0.4-1.4-0.7-1.4-0.7s-7,5.6-8,7.1c-0.9,1.5-3.3,5.1-2.2,6.1c1.1,1,8.4,5,10.1,4.8s5.8,0.7,5.8,0.7l2.3,1.6L75.7,64.3z"></path><path class="st19" d="M73.1,65.9c0,0-7-2.1-8.8-2.2c-1.8-0.1-9.1-0.8-10.2,0s-1.9,2.5-2.9,3.7s-2.6,1.9-2.6,1.9s2.5,2.5,3.1,4.6
	s3.8,6.3,4.9,6.4c1.1,0.1,6.5-2.8,8.4-5.1c2-2.3,7.5-6.8,7.5-6.8l2-1.1L73.1,65.9z"></path><path class="st20" d="M76.2,67.6c0,0,1,5.1,1.2,7.9S74.7,85.7,72.7,87c-2.1,1.4-4.3,2.7-5.9,3.3c-1.6,0.7-2.6,0.8-2.6,0.8
	s-2.4-5.1-3.1-6.6C60.4,83,61,81.1,62,80.3c1-0.9,8.1-8.4,8.3-9c0.3-0.6,2.7-4.4,2.7-4.4L76.2,67.6z"></path><path class="st20" d="M75.7,64.3c0,0,1.6-5.1,1.7-8.6c0.2-3.4,1.5-5.4,2.5-6.4s5.9-2.5,7.4-2.5c1.5,0,5.1,0.9,5.1,0.9
	s2.7,3.3,2.6,3.9s1,6.8-0.4,8.1C93,61,89.9,62.1,87,63.3c-2.9,1.1-3.7,1.2-5.7,1.7c-2,0.5-4.9,0.9-4.9,0.9L75.7,64.3z"></path><path class="st23" d="M75.8,71.1c0,0,5.7,6.9,7,7.2s4.4-1.6,5.1-1.9c0.7-0.3,3.4-0.4,4.2,0s3-0.6,3.2-0.9c0.2-0.3,2.2-5.7,1.9-8.6
	s-1.5-4.8-3.9-5.1c-2.3-0.3-7,0.7-8.6,1.4s-4.3,2.1-5.7,2.6c-1.4,0.5-2.8,1.7-2.8,1.7s-0.3,0.8-0.5,1C75.5,68.9,75.8,71.1,75.8,71.1
	z"></path><polygon class="st22" points="73.7,64.2 76,63.3 78,66.3 75.7,68.6 73.3,67.8 73,66.9 73.1,65.9 "></polygon></g></svg>