<svg id="Layer_1" data-name="Layer 1" xmlns="http://www.w3.org/2000/svg" viewBox="0 0 108 108">
  <defs>
    <style>
      .cls-1 {
        fill: #5ab267;
      }

      .cls-2 {
        fill: #c567ea;
      }

      .cls-3 {
        fill: #a24bdb;
      }

      .cls-4 {
        fill: #ff9100;
      }

      .cls-5 {
        fill: #e681fa;
      }

      .cls-6 {
        fill: #fabe2c;
      }

      .cls-7 {
        fill: #fed843;
      }
    </style>
  </defs>
  <g>
    <path class="cls-1" d="M22.11,42.89V36.66h6.23A19.08,19.08,0,0,1,47.4,55.72V62H41.17A19.08,19.08,0,0,1,22.11,42.89Z"/>
    <path class="cls-1" d="M66.83,62H60.6V55.72A19.08,19.08,0,0,1,79.66,36.66h6.23v6.23A19.08,19.08,0,0,1,66.83,62Z"/>
    <g>
      <path class="cls-2" d="M76.89,80.42,70.69,69l-11.37-.09L57,72.64a6.39,6.39,0,0,0,.38,10.86,6.53,6.53,0,0,0,3,.85,2.81,2.81,0,0,1,1.29.36,2.75,2.75,0,0,1,.95.94,6.53,6.53,0,0,0,2.22,2.12,6.41,6.41,0,0,0,8.76-2.35,6.34,6.34,0,0,0,.83-2.74Z"/>
      <path class="cls-2" d="M84.4,65.29a6.33,6.33,0,0,0,2-2.09,6.43,6.43,0,0,0-5.3-9.62,2.66,2.66,0,0,1-1.26-.39,3,3,0,0,1-1-.9,6.53,6.53,0,0,0-2.21-2.13,6.39,6.39,0,0,0-9.6,5.1l-1.79,5L70.69,69l10.94.2Z"/>
    </g>
    <path class="cls-3" d="M67,55.26a6.26,6.26,0,0,0-2.09-2,6.43,6.43,0,0,0-8.76,2.35,6.55,6.55,0,0,0-.86,3,3.13,3.13,0,0,1-.14.81A2.66,2.66,0,0,1,54,60.83a6.56,6.56,0,0,0-2.13,2.22A6.39,6.39,0,0,0,57,72.64L70.69,69Z"/>
    <path class="cls-3" d="M85.22,82.29a6.51,6.51,0,0,0,.89-3,2.6,2.6,0,0,1,.32-1.22,2.7,2.7,0,0,1,1-1,7,7,0,0,0,2.27-2.21,6.48,6.48,0,0,0-2.49-8.77,6.69,6.69,0,0,0-2.78-.83L70.69,69l3.67,13.71a6.53,6.53,0,0,0,2.09,2,6.42,6.42,0,0,0,8.77-2.35Z"/>
    <circle class="cls-4" cx="70.69" cy="68.97" r="6.41"/>
    <g>
      <path class="cls-5" d="M50.33,68.49l-13-.36-5.76,9.81,2.09,3.9a6.39,6.39,0,0,0,9.59,5.1,6.56,6.56,0,0,0,2.22-2.13,2.68,2.68,0,0,1,2.24-1.29,6.55,6.55,0,0,0,3-.86A6.43,6.43,0,0,0,53,73.9a6.26,6.26,0,0,0-2-2.09Z"/>
      <path class="cls-5" d="M41,54.42a6.39,6.39,0,0,0-9.6-5.09,6.35,6.35,0,0,0-2.21,2.13,3.1,3.1,0,0,1-2.24,1.29,6.41,6.41,0,0,0-5.3,9.62,6.53,6.53,0,0,0,2,2.09L27,68.51l10.27-.38L43,58.75Z"/>
    </g>
    <path class="cls-2" d="M23.6,64.46a6.55,6.55,0,0,0-2.78.83,6.47,6.47,0,0,0-2.49,8.76,6.92,6.92,0,0,0,2.28,2.22,3.22,3.22,0,0,1,.63.53,2.64,2.64,0,0,1,.65,1.71,6.58,6.58,0,0,0,.89,2.95,6.39,6.39,0,0,0,10.86.38l3.67-13.71Z"/>
    <path class="cls-2" d="M56.12,62.21A6.53,6.53,0,0,0,54,60a2.83,2.83,0,0,1-.9-.89,2.8,2.8,0,0,1-.39-1.36,6.43,6.43,0,0,0-9.62-5.29,6.33,6.33,0,0,0-2.09,2L37.31,68.13,51,71.81A6.56,6.56,0,0,0,53.77,71a6.43,6.43,0,0,0,2.35-8.77Z"/>
    <circle class="cls-6" cx="37.31" cy="68.13" r="6.41"/>
    <g>
      <path class="cls-5" d="M65.09,45.43,54,38.61l-9.89,5.62L44,48.65a6.41,6.41,0,0,0,8.75,8.47A2.8,2.8,0,0,1,54,56.8a2.61,2.61,0,0,1,1.29.33,6.43,6.43,0,0,0,9.4-5.69A6.38,6.38,0,0,0,64,48.65Z"/>
      <path class="cls-5" d="M64,28.58a6.42,6.42,0,0,0-8.75-8.48,2.65,2.65,0,0,1-1.29.29,2.76,2.76,0,0,1-1.29-.29A6.41,6.41,0,0,0,44,28.58l.95,5.22L54,38.61l9.58-5.3Z"/>
    </g>
    <g>
      <path class="cls-2" d="M55.29,57.13a6.43,6.43,0,0,0,9.4-5.69A6.38,6.38,0,0,0,64,48.65l1-3.22L54,38.61V56.8A2.61,2.61,0,0,1,55.29,57.13Z"/>
      <path class="cls-2" d="M64,28.58a6.42,6.42,0,0,0-8.75-8.48,2.65,2.65,0,0,1-1.29.29V38.61l9.58-5.3Z"/>
      <path class="cls-2" d="M44,28.58a6.38,6.38,0,0,0-9.2,5.76,6.54,6.54,0,0,0,.73,3,2.74,2.74,0,0,1,.28.77,2.63,2.63,0,0,1-.28,1.81A6.39,6.39,0,0,0,44,48.65l10-10Z"/>
    </g>
    <path class="cls-3" d="M73.24,42.89a6.4,6.4,0,0,0-.73-3,2.7,2.7,0,0,1,0-2.59,6.43,6.43,0,0,0-5.68-9.4,6.36,6.36,0,0,0-2.79.66l-10,10,10,10a6.38,6.38,0,0,0,9.2-5.76Z"/>
    <circle class="cls-7" cx="54" cy="38.61" r="6.41"/>
    <path class="cls-6" d="M60.41,38.61A6.42,6.42,0,0,0,54,32.2V45A6.42,6.42,0,0,0,60.41,38.61Z"/>
  </g>
</svg>
