<?xml version="1.0" encoding="utf-8"?>
<!-- Generator: Adobe Illustrator 23.1.1, SVG Export Plug-In . SVG Version: 6.00 Build 0)  -->
<svg version="1.1" id="Layer_1" xmlns="http://www.w3.org/2000/svg" xmlns:xlink="http://www.w3.org/1999/xlink" x="0px" y="0px"
	 viewBox="0 0 108 108" style="enable-background:new 0 0 108 108;" xml:space="preserve">
<style type="text/css">
	.st0{fill:none;stroke:#708530;stroke-width:1.0127;stroke-miterlimit:10;}
	.st1{fill:#337034;}
	.st2{fill:#3F8133;}
	.st3{fill:#678B2B;}
	.st4{fill:#B0CC36;}
	.st5{fill:#639D3C;}
	.st6{fill:#A6BD39;}
	.st7{fill:#84B53A;}
	.st8{fill:#A5C939;}
	.st9{fill:#64791A;}
	.st10{fill:#72AA3A;}
	.st11{fill:#81842A;}
	.st12{fill:#8BAC30;}
	.st13{fill:#758A27;}
	.st14{fill:#598A34;}
	.st15{fill:#406C25;}
	.st16{fill:#4F7E2E;}
	.st17{fill:#5C8E36;}
	.st18{fill:#D5D5D5;}
	.st19{fill:#F6F6F6;}
	.st20{fill:#FFFFFF;}
	.st21{fill:#7F8071;}
	.st22{fill:#B6B6AA;}
	.st23{fill:#7F4D08;}
	.st24{fill:#84540C;}
	.st25{fill:#A69219;}
	.st26{fill:#938A2B;}
	.st27{fill:#82824E;}
	.st28{fill:#A59172;}
	.st29{fill:#BBB0B0;}
</style>
<g>
<path class="st0" d="M78.9,74.1c-0.4-2.6-1.9-7.2-3-10.5"/>
<path class="st0" d="M85.2,70.3c-3.5-1.1-8.2-4-10.7-7.2"/>
<path class="st0" d="M85.6,63.5C82,65.6,79.1,68,76,64.3"/>
<path class="st0" d="M69.4,57.1c-4.4-2.9-8.7-6.9-10.7-10.5"/>
<path class="st0" d="M61.4,60.7c-0.2-5.4-2.5-13.6-2.9-15.3"/>
<path class="st0" d="M67.4,50c-3,1.2-4.6,2.9-8.3-2.2"/>
<path class="st1" d="M74,79.6c-0.6-2.1-1.6-2.4,1.3-6.3l3-3.9c0,0,0.8,0.8,1.7,1.6c0.9,0.8,4.6,3.6,3.5,7.3
	c-1.1,3.6-2.2,5.6-2.6,6.2c-0.5,0.6-1.5,2.9-1.8,3.5"/>
<path class="st2" d="M97.9,79c-2.6-0.9-5.9,1.6-9.1-0.3c-3.2-1.9-5.6-7.1-6.4-8.6c-0.9-1.5-2-0.7,0.8-1c2.8-0.3,2.9-1.2,5.4-0.8
	c2.5,0.4,6.3,3.9,6.8,5.5C95.7,75.3,97.9,79,97.9,79"/>
<path class="st3" d="M81.6,65.9c0.7-0.1,1.6,0.5,5.2,0.3c3.6-0.2,6.3-0.8,6.6-3.6c0.3-2.8-0.6-3.3,0.7-5.2l1.3-1.9
	c0,0-3.1,0.1-7.3,0.5c-4.3,0.4-5.7,5-6.1,6.9C81.7,64.8,81.6,65.9,81.6,65.9"/>
<path class="st4" d="M79.6,66.1c0,0-1.9-1.7-5.2-1.5c-3.4,0.2-7.2-1.2-7.7-4.9c-0.4-3.6-1.8-5.6-1.8-5.6s0,0.5,2.9,0.1
	c2.9-0.4,7.3,1.3,8.8,4.2C78.2,61.4,79.6,66.1,79.6,66.1"/>
<path class="st5" d="M60,72.1c0,0,3.8-4.7,4.8-7.8c1-3.1,1.1-4.9-0.8-6.9c-2-2-2.8-3.7-2.8-3.7s-2,3.9-3.5,4.9
	c-1.5,1-2.9,4.1-1.9,5.9C56.9,66.2,60,72.1,60,72.1"/>
<path class="st6" d="M64.4,51.2c0,0.1,2.7,1,5.8,1.1c3.1,0.2,4.8,0,5.8-1.6c1-1.7,1.7-3.4,2.3-5.3c0.7-1.9,0.7-2.6,1.4-2.9
	c0.7-0.2-0.8,0.7-4.3,0.1c-3.5-0.6-5.2-1.5-6.5-0.2c-1.3,1.2-1,3.3-1.9,5.1C66,49.3,64.4,51.2,64.4,51.2"/>
<path class="st0" d="M34.3,75.4c2.4-0.9,6.3-3.3,9.1-5"/>
<path class="st0" d="M39.8,81c0.1-3.7,1.4-8.9,3.7-12"/>
<path class="st0" d="M46.5,80c-3.1-3.1-6.2-5.5-3.6-9.3"/>
<path class="st0" d="M47.8,62.7c1.5-4.9,4-10,6.9-12.6"/>
<path class="st0" d="M42,55.6c5.1-1.2,12.2-5.2,13.7-5.9"/>
<path class="st0" d="M54,59.3c-2.1-2.7-4.1-4-0.3-8.6"/>
<path class="st7" d="M34.8,64c1.8-1,1.8-2.1,6.4,0.1l4.6,2.2c0,0-0.5,0.9-1,2c-0.5,1.1-2.1,5.2-5.9,4.9c-3.8-0.4-6-1-6.7-1.4
	c-0.7-0.3-3.2-0.9-3.8-1.1"/>
<path class="st8" d="M42.1,90.4c0.1-2.7-3.3-5.5-2.4-9.1c0.9-3.6,5.2-6.9,6.3-8.1c1.2-1.2,0.1-2.2,1.2,0.6c1.1,2.7,2,2.6,2.4,5.2
	c0.3,2.6-1.9,7.1-3.2,7.8C45,87.5,42.1,90.4,42.1,90.4"/>
<path class="st3" d="M42.9,76.5c0.3,0.7,0,1.7,1.2,5.2c1.2,3.5,2.6,6.1,5.4,5.8c2.8-0.3,3-1.3,5.2-0.4l2.2,0.9c0,0-1-3-2.6-7.1
	c-1.6-4.1-6.4-4.7-8.3-4.6C44.1,76.4,42.9,76.5,42.9,76.5"/>
<path class="st9" d="M42.2,74.6c0,0,1.1-2.2-0.1-5.5c-1.2-3.3-1-7.4,2.4-8.5c3.3-1.1,4.8-2.9,4.8-2.9s-0.5,0.1,0.8,2.9
	c1.3,2.8,0.9,7.5-1.4,9.5C46.3,72.2,42.2,74.6,42.2,74.6"/>
<path class="st5" d="M30.7,56.4c0,0,5.6,2.8,8.9,3.2c3.2,0.4,5,0.2,6.4-2.2c1.3-2.3,2.7-3.5,2.7-3.5s-4.3-1.2-5.7-2.5
	c-1.4-1.3-4.8-2.1-6.1-0.7C35.5,52.1,30.7,56.4,30.7,56.4"/>
<path class="st6" d="M52,56.6c0,0-0.1,2.9,0.6,6c0.8,3.1,1.4,4.7,3.3,5.4c1.9,0.7,3.7,1,5.7,1.2c2,0.3,2.7,0.1,3.1,0.8
	c0.4,0.6-0.9-0.7-1.3-4.3c-0.4-3.6-0.1-5.5-1.7-6.5c-1.5-1-3.5-0.3-5.4-0.9C54.2,57.8,52,56.6,52,56.6"/>
<path class="st0" d="M36.6,30.5c1.1,2.4,3.9,6.4,5.8,9.3"/>
<path class="st0" d="M31.7,36.1c3.6,0.1,8.9,1.4,12.2,3.8"/>
<path class="st0" d="M33.3,42.9c2.8-3.2,4.8-6.4,8.8-3.7"/>
<path class="st0" d="M50.4,44.2c5,1.5,10.2,4.1,13.1,7"/>
<path class="st0" d="M56.8,38.3c1.7,5.2,6.3,12.4,7.2,14"/>
<path class="st0" d="M54.3,50.5c2.5-2.1,3.5-4.2,8.5-0.3"/>
<path class="st10" d="M39.6,23.7c1.1,1.8,2.2,1.8,0.6,6.5l-1.7,4.7c0,0-0.9-0.5-2-1.1c-1.1-0.6-5.4-2.2-5.4-6c0-3.9,0.4-6.1,0.7-6.8
	c0.3-0.7,0.6-3.3,0.7-3.9"/>
<path class="st7" d="M17.2,31.5c2.7,0.1,5.1-3.3,8.7-2.4c3.6,0.9,7.3,5.3,8.6,6.4c1.3,1.2,2.1,0.1-0.5,1.2c-2.6,1.1-2.3,2.1-4.8,2.4
	c-2.5,0.3-7.1-1.9-7.9-3.3C20.4,34.4,17.2,31.5,17.2,31.5"/>
<path class="st3" d="M36.4,39.2c-0.7,0.3-1.7,0-5,1.2c-3.3,1.3-5.7,2.6-5.2,5.5c0.5,2.8,1.6,3,0.9,5.3l-0.7,2.3c0,0,2.9-1,6.7-2.7
	c3.9-1.7,4-6.5,3.7-8.5C36.6,40.4,36.4,39.2,36.4,39.2"/>
<path class="st4" d="M38.2,38.5c0,0,2.2,1.1,5.3-0.1c3.1-1.2,7.2-1,8.6,2.4c1.4,3.4,3.3,4.9,3.3,4.9s-0.1-0.5-2.7,0.8
	c-2.6,1.3-7.2,0.9-9.5-1.5C40.9,42.7,38.2,38.5,38.2,38.5"/>
<path class="st5" d="M54.9,26.8c0,0-2.2,5.7-2.3,9c0,3.3,0.3,5.1,2.8,6.5s3.7,2.7,3.7,2.7s0.8-4.4,1.9-5.8c1.1-1.4,1.6-4.9,0-6.3
	C59.6,31.6,54.9,26.8,54.9,26.8"/>
<path class="st11" d="M56.8,48.4c0-0.1-2.8-0.1-5.8,0.6c-3,0.8-4.5,1.4-5,3.3c-0.5,1.9-0.6,3.8-0.7,5.8c-0.1,2,0.1,2.8-0.5,3.2
	c-0.6,0.4,0.6-0.9,4-1.4c3.5-0.4,5.3-0.1,6.2-1.7c0.9-1.6,0-3.5,0.4-5.5C55.9,50.7,56.8,48.4,56.8,48.4"/>
<path class="st0" d="M82.3,33.4c-2.5,0.6-6.6,2.6-9.6,4"/>
<path class="st0" d="M77.4,27.3c-0.4,3.7-2.3,8.6-5,11.5"/>
<path class="st0" d="M70.6,27.6c2.8,3.4,5.7,6.2,2.6,9.6"/>
<path class="st0" d="M67.5,44.5c-2,4.7-5.1,9.5-8.2,11.7"/>
<path class="st0" d="M72.6,52.2c-5.3,0.7-12.8,3.8-14.3,4.4"/>
<path class="st0" d="M60.9,47.2c1.8,2.9,3.7,4.4-0.6,8.6"/>
<path class="st10" d="M88.6,37.8c-1.9,0.8-2,1.9-6.4-0.7l-4.4-2.6c0,0,0.6-0.8,1.2-1.8c0.7-1,2.7-5,6.4-4.2c3.7,0.8,5.9,1.7,6.6,2.1
	c0.7,0.4,3.1,1.3,3.7,1.5"/>
<path class="st12" d="M83.4,13.7c-0.4,2.7,2.7,5.8,1.4,9.2c-1.3,3.4-5.9,6.3-7.2,7.3c-1.3,1-0.3,2.1-1.1-0.7
	c-0.8-2.8-1.8-2.8-1.8-5.4c-0.1-2.6,2.6-6.8,4-7.3C80.2,16.3,83.4,13.7,83.4,13.7"/>
<path class="st7" d="M73.8,31.4c-0.2-0.7,0.2-1.7-0.7-5.3c-0.9-3.6-2-6.3-4.8-6.3c-2.8,0-3.1,0.9-5.2-0.2L61,18.4
	c0,0,0.7,3.1,1.9,7.3c1.2,4.3,5.9,5.3,7.8,5.5C72.6,31.4,73.8,31.4,73.8,31.4"/>
<path class="st4" d="M74.3,33.3c0,0-1.3,2-0.5,5.4c0.8,3.4,0.2,7.4-3.3,8.2c-3.5,0.8-5.1,2.3-5.1,2.3s0.5,0-0.5-2.9
	c-1-2.9-0.1-7.5,2.4-9.3C70,35.3,74.3,33.3,74.3,33.3"/>
<path class="st5" d="M83.9,52.6c0,0-5.3-3.4-8.5-4.1c-3.2-0.7-5-0.7-6.6,1.5c-1.6,2.2-3.1,3.2-3.1,3.2s4.2,1.7,5.4,3.1
	c1.2,1.4,4.6,2.6,6.1,1.3C78.7,56.3,83.9,52.6,83.9,52.6"/>
<path class="st13" d="M62.7,50.1c0.1,0,0.4-2.8,0-6c-0.4-3.2-0.9-4.8-2.7-5.7c-1.8-0.9-3.6-1.4-5.6-1.8c-2-0.5-2.7-0.4-3-1.1
	c-0.3-0.7,0.8,0.8,0.9,4.3c0.1,3.6-0.4,5.4,1,6.6c1.4,1.2,3.4,0.7,5.3,1.5C60.5,48.7,62.7,50.1,62.7,50.1"/>
<path class="st10" d="M60.7,63.8c-0.4-2.6-1.9-7.2-3-10.5"/>
<path class="st10" d="M67,60c-3.5-1.1-8.2-4-10.7-7.2"/>
<path class="st10" d="M67.4,53.1c-3.6,2.2-6.5,4.6-9.6,0.8"/>
<path class="st10" d="M51.2,46.8c-4.4-2.9-8.7-6.9-10.7-10.5"/>
<path class="st10" d="M43.3,50.4c-0.2-5.4-2.5-13.6-2.9-15.3"/>
<path class="st10" d="M49.2,39.7c-3,1.2-4.6,2.9-8.3-2.2"/>
<path class="st14" d="M55.8,69.3c-0.6-2.1-1.6-2.4,1.3-6.3l3-3.9c0,0,0.8,0.8,1.7,1.6c0.9,0.8,4.6,3.6,3.5,7.3
	c-1.1,3.6-2.2,5.6-2.6,6.2c-0.4,0.6-1.5,2.9-1.8,3.5"/>
<path class="st10" d="M79.7,68.7c-2.6-0.9-5.9,1.6-9.1-0.3c-3.2-1.9-5.6-7.1-6.4-8.6c-0.9-1.5-2-0.7,0.8-1c2.8-0.3,2.9-1.2,5.4-0.8
	c2.5,0.4,6.3,3.9,6.8,5.5C77.5,65,79.7,68.7,79.7,68.7"/>
<path class="st15" d="M63.4,55.6c0.7-0.1,1.6,0.5,5.2,0.3c3.6-0.2,6.3-0.8,6.6-3.6c0.3-2.8-0.6-3.3,0.7-5.2l1.3-1.9
	c0,0-3.1,0.1-7.3,0.5c-4.3,0.4-5.7,5-6.1,6.9C63.5,54.4,63.4,55.6,63.4,55.6"/>
<path class="st10" d="M61.5,55.8c0,0-1.9-1.7-5.2-1.5c-3.4,0.2-7.2-1.2-7.7-4.9c-0.4-3.6-1.8-5.6-1.8-5.6s0,0.5,2.9,0.1
	c2.9-0.4,7.3,1.3,8.8,4.2C60,51,61.5,55.8,61.5,55.8"/>
<path class="st16" d="M41.8,61.8c0,0,3.8-4.7,4.8-7.8c1-3.1,1.1-4.9-0.8-6.9c-2-2-2.8-3.7-2.8-3.7s-2,3.9-3.5,4.9
	c-1.5,1-2.9,4.1-1.9,5.9C38.7,55.9,41.8,61.8,41.8,61.8"/>
<path class="st17" d="M46.2,40.9c0,0.1,2.7,1,5.8,1.1c3.1,0.2,4.8,0,5.8-1.6c1-1.7,1.7-3.4,2.3-5.3c0.7-1.9,0.7-2.6,1.4-2.9
	c0.7-0.2-0.8,0.7-4.3,0.1c-3.5-0.6-5.2-1.5-6.5-0.2c-1.3,1.2-1,3.3-1.9,5.1C47.8,39,46.2,40.9,46.2,40.9"/>
<path class="st0" d="M73.5,33.5c-2.6,0.1-7.1,1.1-10.3,1.8"/>
<path class="st0" d="M69.9,26.6c-1.2,3.4-4.1,7.8-7.3,10"/>
<path class="st0" d="M63.2,25.3c2,3.9,4.3,7.2,0.6,9.9"/>
<path class="st0" d="M56.5,41.1c-3,4.1-7,8-10.6,9.6"/>
<path class="st0" d="M59.9,49.6c-5.3-0.5-13.4,0.9-15.1,1.1"/>
<path class="st0" d="M49.5,42.2c1.1,3.2,2.7,5-2.4,8.2"/>
<path class="st10" d="M78.7,39.2c-2,0.3-2.4,1.4-6.2-2.1l-3.8-3.5c0,0,0.8-0.7,1.6-1.5c0.9-0.8,3.7-4.2,7.2-2.6
	c3.5,1.6,5.5,2.9,6,3.4c0.6,0.5,2.8,1.9,3.3,2.3"/>
<path class="st2" d="M78.7,14.7c-0.9,2.5,1.5,6.2-0.5,9.2c-2,3.1-7.1,4.8-8.6,5.5c-1.5,0.7-0.8,2-0.9-0.9c-0.2-2.9-1.1-3.1-0.7-5.6
	c0.5-2.5,4-6,5.5-6.2C75,16.6,78.7,14.7,78.7,14.7"/>
<path class="st3" d="M65.5,29.8c0-0.8,0.5-1.6,0.4-5.2c-0.1-3.6-0.6-6.5-3.4-7.2c-2.8-0.7-3.3,0.2-5.1-1.3l-1.9-1.6
	c0,0,0,3.1,0.3,7.5c0.3,4.4,4.7,6.4,6.6,7C64.3,29.5,65.5,29.8,65.5,29.8"/>
<path class="st4" d="M65.6,31.7c0,0-1.8,1.7-1.6,5.1c0.1,3.4-1.4,7.2-4.9,7.2c-3.6,0-5.5,1.1-5.5,1.1s0.5,0.1,0.2-2.9
	c-0.4-3,1.5-7.2,4.4-8.4C60.9,32.7,65.6,31.7,65.6,31.7"/>
<path class="st5" d="M71,52.5c0,0-4.5-4.5-7.6-5.8c-3-1.4-4.8-1.8-6.8,0C54.6,48.4,53,49,53,49s3.8,2.5,4.7,4.2
	c0.9,1.6,4,3.5,5.7,2.6C65.1,54.9,71,52.5,71,52.5"/>
<path class="st6" d="M50.6,45.4c0.1,0,1-2.6,1.3-5.8c0.2-3.2,0.1-4.9-1.5-6.1c-1.6-1.3-3.3-2.1-5.1-3c-1.8-0.9-2.6-1-2.8-1.7
	c-0.2-0.7,0.7,0.9,0,4.4c-0.7,3.5-1.6,5.1-0.4,6.6c1.2,1.5,3.2,1.4,4.9,2.6C48.8,43.5,50.6,45.4,50.6,45.4"/>
<path class="st0" d="M73.6,78.9c-0.8-2.5-3.1-6.8-4.7-9.9"/>
<path class="st0" d="M79.2,74c-3.6-0.5-8.7-2.5-11.7-5.2"/>
<path class="st0" d="M78.4,67.2c-3.2,2.8-5.6,5.7-9.2,2.5"/>
<path class="st0" d="M61.5,63.7c-4.8-2.1-9.7-5.3-12.2-8.6"/>
<path class="st0" d="M54.3,68.7c-1.1-5.4-4.8-13.1-5.5-14.7"/>
<path class="st0" d="M58.3,57c-2.7,1.7-4,3.7-8.5-0.7"/>
<path class="st7" d="M62.4,77c-0.9-1.9-2-2.1,0.2-6.5l2.2-4.4c0,0,0.9,0.6,1.9,1.3c1,0.7,5.1,2.8,4.6,6.6c-0.5,3.8-1.2,6-1.5,6.7
	c-0.3,0.7-1,3.1-1.2,3.8"/>
<path class="st8" d="M88.5,72.9c-2.7-0.4-5.5,2.7-9,1.3c-3.5-1.4-6.6-6.1-7.8-7.4c-1.1-1.3-2.1-0.4,0.6-1.1c2.7-0.7,2.6-1.7,5.1-1.8
	c2.5,0,6.9,2.8,7.5,4.2C85.7,69.6,88.5,72.9,88.5,72.9"/>
<path class="st3" d="M74.9,70.3c0.7-0.2,1.7,0.2,5.1-0.6c3.4-0.8,6-1.9,5.9-4.7c-0.2-2.9-1.2-3.2-0.2-5.3l1-2.2c0,0-3,0.7-7.1,1.8
	c-4.1,1.2-4.8,5.9-4.7,7.9C74.8,69.1,74.9,70.3,74.9,70.3"/>
<path class="st9" d="M73,70.8c0,0-2.1-1.4-5.4-0.6c-3.2,0.8-7.3,0.1-8.3-3.5c-1-3.5-2.7-5.2-2.7-5.2s0.1,0.5,2.8-0.4
	c2.8-0.9,7.3,0,9.3,2.6C70.8,66.4,73,70.8,73,70.8"/>
<path class="st5" d="M54.8,80.3c0,0,2.9-5.4,3.4-8.6c0.4-3.2,0.3-5.1-2-6.7c-2.3-1.7-3.3-3.2-3.3-3.2s-1.3,4.2-2.6,5.4
	c-1.3,1.2-2.1,4.6-0.8,6.2C50.8,74.9,54.8,80.3,54.8,80.3"/>
<path class="st6" d="M55.6,58.7c0,0.1,2.8,0.5,5.9,0.1c3.1-0.4,4.7-0.8,5.4-2.6c0.7-1.8,1-3.6,1.4-5.6c0.3-2,0.2-2.7,0.8-3.1
	c0.6-0.3-0.7,0.8-4.2,0.8c-3.5,0-5.4-0.5-6.4,0.9c-1,1.5-0.4,3.5-1,5.4C56.8,56.5,55.6,58.7,55.6,58.7"/>
<path class="st0" d="M29.6,71.2c2.4-0.8,6.4-3.1,9.2-4.8"/>
<path class="st0" d="M35,76.8c0.1-3.7,1.6-8.8,4-11.9"/>
<path class="st0" d="M41.6,76c-3-3.2-6.1-5.7-3.4-9.4"/>
<path class="st0" d="M43.4,58.8c1.6-4.9,4.3-9.9,7.2-12.4"/>
<path class="st0" d="M37.7,51.5c5.2-1.1,12.4-4.9,13.9-5.6"/>
<path class="st0" d="M49.7,55.6c-2-2.8-4-4.1-0.1-8.6"/>
<path class="st1" d="M23,67.2c1.8-0.9,1.9-2.1,6.4,0.2l4.6,2.3c0,0-0.5,0.9-1.1,1.9c-0.6,1-2.3,5.2-6,4.7c-3.8-0.5-6-1.2-6.7-1.5
	c-0.7-0.3-3.2-1-3.8-1.2"/>
<path class="st7" d="M30.1,90.9c0.1-2.7-3.2-5.5-2.2-9.1c1-3.6,5.3-6.8,6.5-7.9c1.2-1.1,0.2-2.2,1.2,0.6c1,2.8,2,2.6,2.2,5.2
	c0.3,2.6-2.1,7-3.4,7.7C33,88.1,30.1,90.9,30.1,90.9"/>
<path class="st3" d="M38.2,72.4c0.2,0.7,0,1.7,1.1,5.2c1.1,3.5,2.5,6.1,5.2,6c2.8-0.2,3-1.2,5.2-0.2l2.2,1c0,0-0.9-3-2.5-7.2
	c-1.5-4.2-6.3-4.8-8.2-4.8C39.3,72.3,38.2,72.4,38.2,72.4"/>
<path class="st4" d="M37.5,70.5c0,0,1.2-2.1,0.1-5.4c-1.1-3.3-0.8-7.4,2.6-8.5c3.4-1,4.8-2.8,4.8-2.8s-0.5,0.1,0.7,2.9
	c1.2,2.8,0.7,7.5-1.7,9.5C41.6,68.2,37.5,70.5,37.5,70.5"/>
<path class="st5" d="M26.4,52c0,0,5.6,3,8.8,3.4c3.2,0.4,5,0.3,6.4-2s2.8-3.4,2.8-3.4s-4.3-1.3-5.6-2.6c-1.3-1.3-4.8-2.2-6.1-0.8
	C31.3,47.9,26.4,52,26.4,52"/>
<path class="st11" d="M47.7,52.8c-0.1,0-0.2,2.9,0.5,6c0.7,3.1,1.3,4.8,3.1,5.5c1.9,0.7,3.7,1.1,5.7,1.4c2,0.3,2.7,0.2,3.1,0.9
	s-0.9-0.7-1.2-4.3c-0.3-3.6,0-5.5-1.5-6.5c-1.5-1.1-3.5-0.4-5.4-1C49.9,54,47.7,52.8,47.7,52.8"/>
<path class="st0" d="M33.6,25.1c0.5,2.6,2.4,7.1,3.7,10.3"/>
<path class="st0" d="M27.5,29.3c3.6,0.9,8.4,3.4,11.1,6.4"/>
<path class="st0" d="M27.6,36.2c3.4-2.4,6.2-5,9.5-1.5"/>
<path class="st0" d="M44.1,41.4c4.6,2.6,9.2,6.3,11.3,9.8"/>
<path class="st0" d="M51.8,37.2c0.5,5.4,3.4,13.4,3.9,15.1"/>
<path class="st0" d="M46.6,48.4c2.9-1.4,4.4-3.2,8.4,1.6"/>
<path class="st10" d="M38.1,19.2c0.7,2,1.8,2.3-0.9,6.4l-2.7,4.1c0,0-0.8-0.7-1.8-1.5c-0.9-0.8-4.8-3.3-3.9-7
	c0.9-3.7,1.8-5.8,2.2-6.4c0.4-0.6,1.3-3,1.6-3.6"/>
<path class="st12" d="M14.3,21.5c2.6,0.7,5.7-2,9.1-0.3c3.4,1.7,6,6.7,7,8.2c1,1.4,2.1,0.6-0.7,1c-2.8,0.4-2.8,1.4-5.3,1.2
	c-2.5-0.3-6.6-3.5-7.1-5C16.8,25.1,14.3,21.5,14.3,21.5"/>
<path class="st7" d="M31.4,33.4c-0.7,0.1-1.7-0.4-5.2,0c-3.5,0.4-6.2,1.2-6.3,4.1c-0.1,2.8,0.9,3.3-0.3,5.3l-1.2,2c0,0,3-0.3,7.2-1
	c4.2-0.7,5.4-5.4,5.6-7.3C31.4,34.6,31.4,33.4,31.4,33.4"/>
<path class="st4" d="M33.3,33.1c0,0,2,1.6,5.3,1.2c3.3-0.5,7.3,0.7,7.9,4.3c0.7,3.6,2.2,5.4,2.2,5.4s0-0.5-2.9,0.1
	c-2.9,0.6-7.3-0.8-9-3.6C35.1,37.8,33.3,33.1,33.3,33.1"/>
<path class="st5" d="M52.5,25.7c0,0-3.5,5-4.2,8.2c-0.8,3.2-0.8,5,1.3,6.9c2.1,1.9,3,3.5,3,3.5s1.7-4,3.2-5.1c1.4-1.1,2.6-4.3,1.4-6
	C56,31.5,52.5,25.7,52.5,25.7"/>
<path class="st13" d="M49.5,47c0-0.1-2.8-0.8-5.9-0.7c-3.1,0.1-4.8,0.3-5.7,2C37,50,36.5,51.8,36,53.7c-0.5,1.9-0.5,2.7-1.2,3
	c-0.7,0.3,0.8-0.8,4.3-0.4c3.5,0.4,5.3,1.1,6.5-0.2c1.2-1.3,0.8-3.4,1.6-5.2C48,49,49.5,47,49.5,47"/>
<path class="st10" d="M62.9,50.7c-2.6,0.1-7.1,1.1-10.3,1.8"/>
<path class="st10" d="M59.3,43.8c-1.2,3.4-4.1,7.8-7.3,10"/>
<path class="st10" d="M52.6,42.6c2,3.9,4.3,7.2,0.6,9.9"/>
<path class="st10" d="M45.9,58.3c-3,4.1-7,8-10.6,9.6"/>
<path class="st10" d="M49.3,66.8c-5.3-0.5-13.4,0.9-15.1,1.1"/>
<path class="st10" d="M38.9,59.4c1.1,3.2,2.7,5-2.4,8.2"/>
<path class="st14" d="M68.1,56.4c-2,0.3-2.4,1.4-6.2-2.1l-3.8-3.5c0,0,0.8-0.7,1.6-1.5c0.9-0.8,3.7-4.2,7.2-2.6
	c3.5,1.6,5.5,2.9,6,3.4c0.6,0.5,2.8,1.9,3.3,2.3"/>
<path class="st10" d="M68.1,32c-0.9,2.5,1.5,6.2-0.5,9.2c-2,3.1-7.1,4.8-8.6,5.5c-1.5,0.7-0.8,2-0.9-0.9c-0.2-2.9-1.1-3.1-0.7-5.6
	c0.5-2.5,4-6,5.5-6.2C64.5,33.8,68.1,32,68.1,32"/>
<path class="st15" d="M54.9,47c0-0.8,0.5-1.6,0.4-5.2c-0.1-3.6-0.6-6.5-3.4-7.2c-2.8-0.7-3.3,0.2-5.1-1.3L45,31.7c0,0,0,3.1,0.3,7.5
	c0.3,4.4,4.7,6.4,6.6,7C53.8,46.7,54.9,47,54.9,47"/>
<path class="st1" d="M55,49c0,0-1.8,1.7-1.6,5.1c0.1,3.4-1.4,7.2-4.9,7.2c-3.6,0-5.5,1.1-5.5,1.1s0.5,0.1,0.2-2.9
	c-0.4-3,1.5-7.2,4.4-8.4C50.4,49.9,55,49,55,49"/>
<path class="st16" d="M60.5,69.7c0,0-4.5-4.5-7.6-5.8c-3-1.4-4.8-1.8-6.8,0c-2,1.7-3.7,2.4-3.7,2.4s3.8,2.5,4.7,4.2
	c0.9,1.6,4,3.5,5.7,2.6C54.6,72.1,60.5,69.7,60.5,69.7"/>
<path class="st17" d="M40,62.6c0.1,0,1-2.6,1.3-5.8c0.2-3.2,0.1-4.9-1.5-6.1c-1.6-1.3-3.3-2.1-5.1-3c-1.8-0.9-2.6-1-2.8-1.7
	c-0.2-0.7,0.7,0.9,0,4.4c-0.7,3.5-1.6,5.1-0.4,6.6c1.2,1.5,3.2,1.4,4.9,2.6C38.2,60.8,40,62.6,40,62.6"/>
<path class="st0" d="M87.4,59.4c-1.6-2.1-5.3-5.2-7.9-7.5"/>
<path class="st0" d="M90.9,52.9c-3.6,0.8-9.1,0.7-12.9-0.8"/>
<path class="st0" d="M87.8,46.8c-2,3.7-3.3,7.2-7.9,5.6"/>
<path class="st0" d="M70.6,49.5c-5.3-0.3-11-1.5-14.5-3.7"/>
<path class="st0" d="M65.6,56.7c-2.9-4.6-9.1-10.4-10.3-11.7"/>
<path class="st0" d="M65.3,44.4c-2,2.6-2.5,4.8-8.3,2.3"/>
<path class="st1" d="M86,66.6c-1.5-1.5-2.6-1.2-2.1-6.1l0.6-4.9c0,0,1,0.3,2.2,0.5c1.2,0.3,5.8,0.8,6.7,4.5c0.9,3.7,1,6,0.9,6.7
	c-0.1,0.7,0.2,3.3,0.2,3.9"/>
<path class="st2" d="M106.3,54c-2.7,0.6-4.2,4.4-8,4.4c-3.8,0-8.4-3.3-9.9-4.2c-1.5-0.8-2.1,0.4,0.2-1.2c2.3-1.6,1.8-2.5,4.2-3.4
	c2.4-0.9,7.5,0.2,8.6,1.3C102.5,51.9,106.3,54,106.3,54"/>
<path class="st3" d="M85.6,51c0.6-0.4,1.7-0.4,4.6-2.4c3-2,5.1-3.9,3.9-6.5c-1.2-2.6-2.2-2.5-2.1-4.9l0.2-2.3c0,0-2.6,1.7-6,4.2
	c-3.5,2.5-2.4,7.2-1.7,9C85.1,49.9,85.6,51,85.6,51"/>
<path class="st4" d="M84,52.1c0,0-2.5-0.6-5.3,1.3c-2.8,1.9-6.9,2.6-9.1-0.3c-2.2-2.9-4.4-3.9-4.4-3.9s0.3,0.5,2.5-1.4
	c2.3-1.8,7-2.5,9.7-0.8C80.3,48.8,84,52.1,84,52.1"/>
<path class="st5" d="M70.1,67.3c0,0,0.9-6,0.2-9.2c-0.7-3.2-1.5-4.8-4.2-5.5c-2.7-0.7-4.3-1.8-4.3-1.8s0.2,4.4-0.6,6
	c-0.8,1.6-0.4,5,1.4,6C64.4,63.7,70.1,67.3,70.1,67.3"/>
<path class="st6" d="M63.3,47c0,0,2.8-0.5,5.6-2c2.8-1.4,4.1-2.4,4.2-4.4c0.1-2-0.3-3.7-0.7-5.7c-0.4-2-0.8-2.6-0.3-3.2
	c0.5-0.5-0.4,1-3.7,2.3c-3.3,1.2-5.3,1.4-5.7,3.1c-0.5,1.7,0.8,3.4,0.9,5.4C63.7,44.5,63.3,47,63.3,47"/>
<path class="st0" d="M49.7,83.1c1.6-2,3.8-6,5.3-8.9"/>
<path class="st0" d="M57.2,85.1c-1.8-3.2-3.3-8.3-2.9-12.2"/>
<path class="st0" d="M62.4,80.9c-4.3-1.1-8.2-1.6-7.8-6.2"/>
<path class="st0" d="M54.8,65.3c-1.2-5-1.6-10.7-0.4-14.4"/>
<path class="st0" d="M46.2,62.1C50,58.4,54.1,51.4,55,50"/>
<path class="st0" d="M58.5,59.3c-3.2-1.3-5.6-1.3-4.7-7.3"/>
<path class="st7" d="M44.3,73c1.1-1.7,0.5-2.7,5.6-3.2l5.1-0.5c0,0,0,1,0.1,2.2c0.1,1.2,0.8,5.6-2.6,7.2c-3.5,1.6-5.7,2.2-6.5,2.2
	c-0.8,0.1-3.2,0.8-3.9,1"/>
<path class="st8" d="M64,92.1c-1.3-2.4-5.6-3.1-6.6-6.6c-1-3.5,1-8.6,1.4-10.2c0.4-1.6-1-1.9,1.3-0.1c2.3,1.8,3.1,1.2,4.6,3.3
	c1.6,2.1,1.9,7,1.1,8.3C65,88.1,64,92.1,64,92.1"/>
<path class="st3" d="M57.6,79.6c0.6,0.5,0.9,1.5,3.7,3.9c2.8,2.4,5.3,3.9,7.6,2.3c2.3-1.6,1.9-2.6,4.3-2.9l2.4-0.3
	c0,0-2.4-2.1-5.9-4.8c-3.5-2.7-7.9-0.8-9.5,0.2C58.5,79,57.6,79.6,57.6,79.6"/>
<path class="st9" d="M56,78.4c0,0-0.1-2.4-2.8-4.7c-2.7-2.2-4.6-5.9-2.3-8.6c2.3-2.7,2.7-4.9,2.7-4.9s-0.4,0.3,2.1,2.1
	c2.5,1.8,4.5,6,3.6,8.9C58.3,74.3,56,78.4,56,78.4"/>
<path class="st5" d="M36.9,68.5c0,0,6.3-0.4,9.3-1.7c3-1.3,4.4-2.4,4.4-5.1c0-2.7,0.6-4.4,0.6-4.4s-4.3,1.1-6.2,0.7
	c-1.8-0.4-5.2,0.6-5.6,2.5C38.8,62.4,36.9,68.5,36.9,68.5"/>
<path class="st6" d="M55.3,57.9c0,0,1.3,2.6,3.6,4.9c2.2,2.3,3.6,3.4,5.6,3c2-0.4,3.7-1,5.5-1.8c1.9-0.8,2.4-1.3,3.1-0.9
	c0.7,0.3-1.1-0.1-3.3-3c-2.2-2.9-2.9-4.6-4.7-4.7c-1.9-0.1-3.1,1.5-5.1,2C57.9,57.8,55.3,57.9,55.3,57.9"/>
<path class="st0" d="M28.8,43.2c2.2,1.5,6.6,3.6,9.7,5"/>
<path class="st0" d="M27.5,50.5c3.2-1.8,8.3-3.3,12.4-2.9"/>
<path class="st0" d="M32.3,55.5c0.8-4.1,0.9-7.9,5.7-7.6"/>
<path class="st0" d="M47.7,48c5.1-1.2,10.9-1.7,14.8-0.6"/>
<path class="st0" d="M50.2,39.7c4.1,3.6,11.8,7.5,13.3,8.4"/>
<path class="st0" d="M54.3,51.5c1.1-3.1,0.9-5.4,7.1-4.6"/>
<path class="st10" d="M28,35.8c1.9,1,2.9,0.5,3.8,5.3l0.9,4.9c0,0-1.1,0-2.3,0.1c-1.2,0.1-5.7,0.9-7.7-2.5c-2-3.3-2.7-5.5-2.9-6.2
	c-0.1-0.7-1.1-3.1-1.3-3.7"/>
<path class="st7" d="M12.6,53.9c2.4-1.3,2.7-5.4,6.2-6.5c3.6-1,8.9,0.8,10.6,1.2c1.7,0.4,1.9-1,0.2,1.3c-1.7,2.2-1,3-3,4.5
	c-2,1.6-7.1,1.9-8.5,1.2C16.9,54.8,12.6,53.9,12.6,53.9"/>
<path class="st3" d="M33.1,50.9c-0.4,0.6-1.4,0.9-3.7,3.6c-2.2,2.8-3.6,5.2-1.7,7.4c1.9,2.2,2.9,1.8,3.4,4.1l0.6,2.3
	c0,0,1.9-2.3,4.4-5.7c2.5-3.4,0.1-7.6-1.1-9.2C33.9,51.8,33.1,50.9,33.1,50.9"/>
<path class="st4" d="M34.3,49.3c0,0,2.5-0.2,4.6-2.8c2.1-2.6,5.7-4.5,8.6-2.3c3,2.2,5.3,2.5,5.3,2.5s-0.4-0.4-2,2.1
	c-1.6,2.4-5.8,4.4-8.9,3.6C38.7,51.5,34.3,49.3,34.3,49.3"/>
<path class="st5" d="M42.8,30.7c0,0,1,6.1,2.6,8.9c1.6,2.9,2.9,4.2,5.7,4.2c2.8-0.1,4.6,0.5,4.6,0.5s-1.5-4.2-1.3-5.9
	c0.3-1.8-1.1-5-3.1-5.4C49.2,32.5,42.8,30.7,42.8,30.7"/>
<path class="st11" d="M55.4,48.4c0,0-2.5,1.3-4.7,3.5c-2.2,2.2-3.2,3.5-2.6,5.4c0.5,1.9,1.4,3.5,2.4,5.3c1,1.8,1.5,2.3,1.2,3
	c-0.3,0.7,0-1.1,2.8-3.2c2.8-2.1,4.5-2.8,4.5-4.6c-0.1-1.8-1.8-3-2.5-4.9C55.7,50.9,55.4,48.4,55.4,48.4"/>
<path class="st0" d="M69.7,22.5c-1.8,1.8-4.4,5.6-6.3,8.3"/>
<path class="st0" d="M62.4,19.8c1.5,3.4,2.4,8.6,1.5,12.4"/>
<path class="st0" d="M56.7,23.4c4.1,1.6,8,2.4,7.1,7"/>
<path class="st0" d="M62.6,39.6c0.7,5.1,0.4,10.7-1.1,14.3"/>
<path class="st0" d="M70.8,43.7c-4.2,3.2-9.1,9.8-10.1,11"/>
<path class="st0" d="M58.3,45.3c3,1.6,5.4,1.9,3.9,7.7"/>
<path class="st10" d="M77.3,23.2c-1.2,1.6-0.8,2.7-5.9,2.6l-5.1,0c0,0,0.1-1,0.1-2.2c0.1-1.2-0.2-5.6,3.4-6.9
	c3.6-1.2,5.9-1.5,6.7-1.5c0.8,0,3.3-0.5,4-0.6"/>
<path class="st12" d="M60.7,5c1,2.5,5.3,3.6,5.9,7.2c0.7,3.6-1.9,8.4-2.5,9.9c-0.6,1.5,0.8,2-1.3,0c-2.1-2-2.9-1.5-4.3-3.7
	c-1.4-2.2-1.2-7.2-0.2-8.4C59.3,8.9,60.7,5,60.7,5"/>
<path class="st7" d="M61.4,25.2c-0.5-0.5-0.7-1.6-3.3-4.2c-2.6-2.6-4.9-4.4-7.3-3.1c-2.4,1.4-2.2,2.4-4.6,2.5l-2.4,0.1
	c0,0,2.2,2.3,5.4,5.4c3.2,3.1,7.8,1.6,9.5,0.7C60.4,25.7,61.4,25.2,61.4,25.2"/>
<path class="st4" d="M62.8,26.5c0,0-0.1,2.4,2.3,4.9c2.4,2.5,3.9,6.3,1.3,8.7c-2.6,2.4-3.2,4.6-3.2,4.6s0.4-0.3-1.9-2.3
	c-2.3-2-3.9-6.4-2.6-9.2C60.1,30.4,62.8,26.5,62.8,26.5"/>
<path class="st5" d="M80.9,38.3c0,0-6.3-0.2-9.4,0.8c-3.1,1-4.7,1.9-4.9,4.6c-0.3,2.7-1,4.3-1,4.3s4.4-0.7,6.2-0.1
	c1.8,0.6,5.2-0.1,5.9-1.9C78.2,44.1,80.9,38.3,80.9,38.3"/>
<path class="st13" d="M61.3,46.9c0,0-1.1-2.7-3-5.2c-2-2.5-3.2-3.7-5.2-3.6c-2,0.2-3.8,0.6-5.7,1.2c-1.9,0.6-2.5,1-3.2,0.6
	c-0.6-0.4,1.1,0.2,3,3.3c1.9,3.1,2.4,4.9,4.2,5.2c1.8,0.3,3.3-1.1,5.3-1.4C58.7,46.7,61.3,46.9,61.3,46.9"/>
<path class="st10" d="M66.5,59.7c-1.6-2.1-5.3-5.2-7.9-7.5"/>
<path class="st10" d="M70,53.2C66.4,54,61,54,57.2,52.5"/>
<path class="st10" d="M66.9,47.1c-2,3.7-3.3,7.2-7.9,5.6"/>
<path class="st10" d="M49.7,49.9c-5.3-0.3-11-1.5-14.5-3.7"/>
<path class="st10" d="M44.7,57c-2.9-4.6-9.1-10.4-10.3-11.7"/>
<path class="st10" d="M44.4,44.7c-2,2.6-2.5,4.8-8.3,2.3"/>
<path class="st14" d="M65,66.9c-1.5-1.5-2.6-1.2-2.1-6.1l0.6-4.9c0,0,1,0.3,2.2,0.5c1.2,0.3,5.8,0.8,6.7,4.5c0.9,3.7,1,6,0.9,6.7
	c-0.1,0.7,0.2,3.3,0.2,3.9"/>
<path class="st10" d="M85.4,54.3c-2.7,0.6-4.2,4.4-8,4.4c-3.8,0-8.4-3.3-9.9-4.2c-1.5-0.8-2.1,0.4,0.2-1.2c2.3-1.6,1.8-2.5,4.2-3.4
	c2.4-0.9,7.5,0.2,8.6,1.3C81.6,52.2,85.4,54.3,85.4,54.3"/>
<path class="st15" d="M64.7,51.3c0.6-0.4,1.7-0.4,4.6-2.4c3-2,5.1-3.9,3.9-6.5C72,39.9,71,40,71.1,37.6l0.2-2.3c0,0-2.6,1.7-6,4.2
	c-3.5,2.5-2.4,7.2-1.7,9C64.2,50.2,64.7,51.3,64.7,51.3"/>
<path class="st10" d="M63.1,52.4c0,0-2.5-0.6-5.3,1.3c-2.8,1.9-6.9,2.6-9.1-0.3c-2.2-2.9-4.4-3.9-4.4-3.9s0.3,0.5,2.5-1.4
	c2.3-1.8,7-2.5,9.7-0.8C59.4,49.1,63.1,52.4,63.1,52.4"/>
<path class="st16" d="M49.2,67.6c0,0,0.9-6,0.2-9.2c-0.7-3.2-1.5-4.8-4.2-5.5c-2.7-0.7-4.3-1.8-4.3-1.8s0.2,4.4-0.6,6
	c-0.8,1.6-0.4,5,1.4,6C43.5,64,49.2,67.6,49.2,67.6"/>
<path class="st17" d="M42.4,47.3c0,0,2.8-0.5,5.6-2c2.8-1.4,4.1-2.4,4.2-4.4c0.1-2-0.3-3.7-0.7-5.7c-0.4-2-0.8-2.6-0.3-3.2
	c0.5-0.5-0.4,1-3.7,2.3c-3.3,1.2-5.3,1.4-5.7,3.1c-0.5,1.7,0.8,3.4,0.9,5.4C42.8,44.8,42.4,47.3,42.4,47.3"/>
<path class="st0" d="M62.2,27.1c-2.2,1.3-5.6,4.5-8,6.8"/>
<path class="st0" d="M55.5,23c0.7,3.6,0.5,8.8-1.2,12.3"/>
<path class="st0" d="M49.1,25.3c3.7,2.4,7.4,4,5.5,8.2"/>
<path class="st0" d="M51.4,42.2c-0.5,5.1-1.9,10.5-4.3,13.6"/>
<path class="st0" d="M58.6,47.9c-4.9,2.3-11.1,7.6-12.4,8.6"/>
<path class="st0" d="M45.9,46.8c2.6,2.2,4.9,3,2.1,8.2"/>
<path class="st10" d="M69.6,29.3c-1.6,1.3-1.4,2.4-6.4,1.3l-5-1.1c0,0,0.3-1,0.6-2.1c0.3-1.1,1-5.5,4.9-5.9c3.8-0.4,6.2-0.3,6.9-0.1
	c0.8,0.2,3.4,0.2,4,0.3"/>
<path class="st2" d="M57.2,8.3c0.5,2.6,4.4,4.6,4.2,8.2c-0.2,3.6-3.7,7.7-4.6,9.1c-0.9,1.4,0.3,2.1-1.3-0.3
	c-1.6-2.4-2.5-2.1-3.4-4.5c-0.9-2.4,0.4-7.2,1.6-8.1C54.9,11.7,57.2,8.3,57.2,8.3"/>
<path class="st3" d="M53.4,28c-0.4-0.6-0.3-1.6-2.3-4.7c-1.9-3.1-3.8-5.3-6.5-4.5c-2.7,0.8-2.7,1.9-5.1,1.4l-2.4-0.4
	c0,0,1.6,2.7,4.1,6.3c2.5,3.6,7.3,3.2,9.2,2.7C52.3,28.3,53.4,28,53.4,28"/>
<path class="st4" d="M54.5,29.6c0,0-0.7,2.3,1.2,5.2c1.9,2.9,2.5,6.9-0.6,8.7c-3.1,1.8-4.2,3.8-4.2,3.8s0.5-0.2-1.3-2.6
	c-1.8-2.4-2.4-7-0.5-9.5C50.9,32.8,54.5,29.6,54.5,29.6"/>
<path class="st5" d="M69.7,44.7c0,0-6.2-1.5-9.5-1.2c-3.3,0.3-5,0.9-5.9,3.4c-0.9,2.5-2,3.9-2,3.9s4.5,0.3,6.1,1.2s5.2,1,6.3-0.7
	C65.8,49.8,69.7,44.7,69.7,44.7"/>
<path class="st6" d="M48.5,49c0,0-0.5-2.8-1.8-5.6c-1.4-2.8-2.3-4.3-4.3-4.5c-2-0.3-3.9-0.2-5.9,0c-2,0.2-2.7,0.4-3.3-0.1
	c-0.5-0.5,1,0.5,2.2,3.8c1.2,3.4,1.3,5.2,3,5.9c1.8,0.7,3.5-0.4,5.6-0.3C46,48.3,48.5,49,48.5,49"/>
<path class="st0" d="M85.3,66.2c-2-1.8-6.1-4.3-9-6.1"/>
<path class="st0" d="M87.6,59.2c-3.4,1.4-8.7,2.3-12.7,1.4"/>
<path class="st0" d="M83.5,53.6c-1.3,4-2,7.7-6.7,6.8"/>
<path class="st0" d="M67.1,59.2C61.9,59.8,56,59.6,52.2,58"/>
<path class="st0" d="M63.5,67.2c-3.7-4.1-10.8-8.8-12.2-9.9"/>
<path class="st0" d="M61,55c-1.5,2.9-1.6,5.2-7.7,3.7"/>
<path class="st7" d="M74.7,70.2c-1.8-1.2-2.8-0.8-3.1-5.7l-0.3-4.9c0,0,1.1,0.1,2.3,0.2c1.2,0.1,5.8-0.2,7.3,3.3
	c1.5,3.5,2,5.8,2.1,6.5c0,0.7,0.7,3.2,0.9,3.9"/>
<path class="st8" d="M95.1,53.4c-2.5,1-3.4,5.1-7.1,5.7c-3.7,0.6-8.8-1.9-10.5-2.5c-1.6-0.6-2,0.8-0.1-1.3c2-2,1.3-2.8,3.5-4.1
	c2.2-1.3,7.3-1.1,8.6-0.2C91,52,95.1,53.4,95.1,53.4"/>
<path class="st3" d="M82,58.2c0.5-0.5,1.6-0.7,4.1-3.1c2.6-2.5,4.2-4.7,2.6-7.1c-1.6-2.4-2.6-2.1-2.9-4.5l-0.3-2.3
	c0,0-2.2,2.1-5.2,5.1c-2.9,3.1-1.1,7.5-0.1,9.2C81.4,57.2,82,58.2,82,58.2"/>
<path class="st9" d="M80.7,59.5c0,0-2.5-0.1-4.9,2.2c-2.4,2.3-6.2,3.7-8.9,1.2c-2.7-2.5-5-3.1-5-3.1s0.3,0.4,2.2-1.8
	c1.9-2.2,6.3-3.7,9.4-2.4C76.5,56.8,80.7,59.5,80.7,59.5"/>
<path class="st5" d="M69.8,76.9c0,0-0.2-6.1-1.5-9.1c-1.3-3-2.3-4.5-5.1-4.8c-2.8-0.3-4.5-1-4.5-1s1,4.3,0.5,6
	c-0.5,1.7,0.5,5.1,2.4,5.7C63.6,74.3,69.8,76.9,69.8,76.9"/>
<path class="st6" d="M59.5,57.9c0,0,2.7-1,5.1-2.9c2.5-1.9,3.6-3.1,3.3-5c-0.3-1.9-0.9-3.7-1.7-5.5c-0.7-1.9-1.2-2.5-0.8-3.1
	c0.4-0.6-0.2,1.1-3.2,2.9c-3,1.8-4.9,2.3-5,4c-0.2,1.8,1.4,3.2,1.8,5.2C59.5,55.4,59.5,57.9,59.5,57.9"/>
<path class="st0" d="M43.4,81.8c1.7-1.9,3.9-6,5.5-8.8"/>
<path class="st0" d="M50.9,84c-1.7-3.3-3.1-8.4-2.6-12.3"/>
<path class="st0" d="M56.3,79.9c-4.2-1.2-8.2-1.8-7.7-6.4"/>
<path class="st0" d="M49,64.2c-1.1-5-1.3-10.7-0.1-14.4"/>
<path class="st0" d="M40.5,60.8c3.9-3.6,8.2-10.5,9.1-11.9"/>
<path class="st0" d="M52.8,58.2c-3.1-1.4-5.5-1.5-4.5-7.4"/>
<path class="st1" d="M35.8,81.8c1.1-1.7,0.6-2.7,5.6-3.1l5.1-0.4c0,0,0,1,0,2.2c0,1.2,0.7,5.6-2.8,7.1c-3.5,1.5-5.8,2-6.5,2.1
	c-0.8,0.1-3.3,0.7-3.9,0.9"/>
<path class="st7" d="M53.9,98.6c-1.3-2.4-5.5-3.2-6.5-6.8c-1-3.6,1.2-8.5,1.6-10.1c0.4-1.6-1-1.9,1.3-0.1c2.3,1.9,3,1.3,4.6,3.4
	c1.5,2.1,1.8,7.1,0.9,8.3C54.9,94.7,53.9,98.6,53.9,98.6"/>
<path class="st3" d="M51.5,78.5C52,79,52.3,80,55,82.5c2.8,2.4,5.2,4.1,7.5,2.5c2.3-1.6,2-2.6,4.4-2.8l2.4-0.3c0,0-2.3-2.1-5.8-4.9
	c-3.4-2.8-7.9-1-9.5,0C52.4,77.9,51.5,78.5,51.5,78.5"/>
<path class="st4" d="M49.9,77.3c0,0-0.1-2.4-2.7-4.7c-2.6-2.3-4.4-6-2.1-8.6c2.4-2.6,2.8-4.8,2.8-4.8s-0.4,0.3,2.1,2.1
	c2.5,1.8,4.4,6.1,3.4,9C52.3,73.2,49.9,77.3,49.9,77.3"/>
<path class="st5" d="M31,67c0,0,6.3-0.3,9.3-1.5c3-1.3,4.5-2.3,4.5-5c0-2.7,0.7-4.3,0.7-4.3s-4.3,1-6.2,0.6
	c-1.8-0.5-5.2,0.5-5.7,2.4C33.1,60.9,31,67,31,67"/>
<path class="st11" d="M49.7,56.8c0,0,1.3,2.6,3.5,4.9c2.2,2.4,3.5,3.5,5.5,3.2c2-0.3,3.7-1,5.6-1.7c1.9-0.7,2.4-1.2,3.1-0.8
	s-1.1-0.1-3.2-3.1c-2.1-2.9-2.8-4.7-4.6-4.8c-1.9-0.1-3.2,1.4-5.2,1.8C52.3,56.7,49.7,56.8,49.7,56.8"/>
<path class="st0" d="M23.5,40.1c1.8,2,5.6,4.9,8.4,7"/>
<path class="st0" d="M20.4,46.8c3.5-1,9-1.3,12.9-0.1"/>
<path class="st0" d="M24,52.7c1.7-3.8,2.8-7.5,7.4-6.1"/>
<path class="st0" d="M40.9,48.8c5.3-0.1,11.1,0.8,14.7,2.7"/>
<path class="st0" d="M45.4,41.3c3.2,4.4,9.8,9.8,11.1,11"/>
<path class="st0" d="M46.5,53.6c1.8-2.7,2.1-5,8.1-2.9"/>
<path class="st10" d="M24.4,32.8c1.6,1.4,2.7,1.1,2.5,6l-0.2,4.9c0,0-1.1-0.2-2.3-0.4c-1.2-0.2-5.8-0.4-7-4.1
	c-1.1-3.6-1.4-5.9-1.4-6.6c0-0.7-0.4-3.3-0.4-3.9"/>
<path class="st12" d="M5.1,46.8c2.6-0.7,3.9-4.7,7.7-4.9c3.8-0.2,8.6,2.8,10.2,3.5c1.6,0.7,2.1-0.5-0.1,1.3c-2.2,1.8-1.7,2.6-4,3.7
	c-2.3,1.1-7.4,0.3-8.6-0.7C9,48.6,5.1,46.8,5.1,46.8"/>
<path class="st7" d="M25.9,48.4c-0.6,0.5-1.6,0.5-4.4,2.7c-2.8,2.2-4.8,4.2-3.4,6.7c1.3,2.5,2.4,2.4,2.4,4.7l0,2.3
	c0,0,2.5-1.8,5.7-4.6c3.3-2.7,1.9-7.4,1.1-9.1C26.5,49.4,25.9,48.4,25.9,48.4"/>
<path class="st4" d="M27.4,47.2c0,0,2.5,0.4,5.1-1.7c2.6-2.1,6.6-3.1,9-0.3c2.4,2.8,4.6,3.6,4.6,3.6s-0.3-0.4-2.4,1.6
	c-2.1,2-6.7,3-9.6,1.5C31.3,50.3,27.4,47.2,27.4,47.2"/>
<path class="st5" d="M40.1,31.1c0,0-0.5,6.1,0.5,9.2c0.9,3.1,1.8,4.7,4.6,5.3c2.7,0.6,4.4,1.5,4.4,1.5s-0.5-4.4,0.1-6
	c0.7-1.7,0.1-5.1-1.8-5.9C46,34.2,40.1,31.1,40.1,31.1"/>
<path class="st13" d="M48.3,50.9c0,0-2.8,0.7-5.4,2.4c-2.7,1.6-4,2.7-3.9,4.6c0.1,2,0.5,3.7,1.1,5.7c0.5,1.9,0.9,2.6,0.5,3.1
	c-0.4,0.6,0.3-1,3.5-2.5c3.2-1.5,5.1-1.7,5.5-3.5c0.4-1.7-1.1-3.3-1.3-5.3C48.1,53.4,48.3,50.9,48.3,50.9"/>
<path class="st10" d="M61.8,47.3c-2.2,1.3-5.6,4.5-8,6.7"/>
<path class="st10" d="M55.2,43.2c0.7,3.6,0.5,8.8-1.2,12.3"/>
<path class="st10" d="M48.8,45.5c3.7,2.4,7.4,4,5.5,8.2"/>
<path class="st10" d="M51,62.4C50.5,67.5,49,72.9,46.7,76"/>
<path class="st10" d="M58.2,68.1c-4.9,2.3-11.1,7.6-12.4,8.6"/>
<path class="st10" d="M45.5,67c2.6,2.2,4.9,3,2.1,8.2"/>
<path class="st14" d="M69.2,49.6c-1.6,1.3-1.4,2.4-6.4,1.3l-5-1.1c0,0,0.3-1,0.6-2.1c0.3-1.1,1-5.5,4.9-5.9c3.8-0.4,6.2-0.3,6.9-0.1
	c0.8,0.2,3.4,0.2,4,0.3"/>
<path class="st10" d="M56.8,28.5c0.5,2.6,4.4,4.6,4.2,8.2c-0.2,3.6-3.7,7.7-4.6,9.1c-0.9,1.4,0.3,2.1-1.3-0.3
	c-1.6-2.4-2.5-2.1-3.4-4.5c-0.9-2.4,0.4-7.2,1.6-8.1C54.5,31.9,56.8,28.5,56.8,28.5"/>
<path class="st15" d="M53,48.2c-0.4-0.6-0.3-1.6-2.3-4.7c-1.9-3.1-3.8-5.3-6.5-4.5c-2.7,0.8-2.7,1.9-5.1,1.4L36.7,40
	c0,0,1.6,2.7,4.1,6.3c2.5,3.6,7.3,3.2,9.2,2.7C51.9,48.5,53,48.2,53,48.2"/>
<path class="st1" d="M54.1,49.8c0,0-0.7,2.3,1.2,5.2c1.9,2.9,2.5,6.9-0.6,8.7c-3.1,1.8-4.2,3.8-4.2,3.8s0.5-0.2-1.3-2.6
	c-1.8-2.4-2.4-7-0.5-9.5C50.5,53,54.1,49.8,54.1,49.8"/>
<path class="st16" d="M69.3,64.9c0,0-6.2-1.5-9.5-1.2c-3.3,0.3-5,0.9-5.9,3.4c-0.9,2.5-2,3.9-2,3.9s4.5,0.3,6.1,1.2
	c1.6,1,5.2,1,6.2-0.7C65.4,70,69.3,64.9,69.3,64.9"/>
<path class="st17" d="M48.1,69.2c0,0-0.5-2.8-1.8-5.6c-1.4-2.8-2.3-4.3-4.3-4.5c-2-0.3-3.9-0.2-5.9,0c-2,0.2-2.7,0.4-3.3-0.1
	c-0.5-0.5,1,0.5,2.2,3.8c1.2,3.4,1.3,5.2,3,5.9c1.8,0.7,3.5-0.4,5.6-0.3C45.6,68.5,48.1,69.2,48.1,69.2"/>
<path class="st18" d="M50,31.7c-2.8,0.7-5.6,1.6-6,3.2c-0.4,1.6-1.1,2.4,0,3.4s2.7,1.1,2.7,1.1s-0.7,0.7,0,1.6
	c0.7,0.9,1.8,0.7,1.8,0.7s-0.8,1.3,0.4,2.1c1.2,0.7,3.3,0.6,5.1,0c1.8-0.6,2.7-2.7,3.4-4.1c0.7-1.5-0.1-3,0-3.8
	c0.1-0.7,0-2.3-0.5-2.8c-0.5-0.5-1.5-0.9-2.2-1.3c-0.7-0.5-1.6-1-2-1C52.3,30.7,50,31.7,50,31.7z"/>
<path class="st19" d="M59.8,36.4c-0.3,0.5-0.8,3.5,0,5s3.5,3.9,4.6,4c1.1,0.1,2.4-0.5,3-1.2c0.5-0.7,0-1.5,0-1.5s0.9,0.5,2.2,0.4
	c1.2-0.1,2.2-0.6,2-1.1c-0.1-0.5-0.1-0.5-0.1-0.5s1.4,0.6,2-0.6c0.7-1.2,0.8-3.4,0-5c-0.8-1.6-2.3-1.7-4.2-2.4c-1.9-0.7-3-1-3.9-1
	c-0.9,0-2.6,0-2.6,0L59.8,36.4z"/>
<path class="st18" d="M66,31.4c0.4,0,2.4,0.7,3.8,0c1.4-0.7,3.7-1.1,3.4-2.3s-0.4-2.6-1.2-2.8c-0.8-0.2-0.5-1-1.4-1.7
	s-1.8-1.1-2.4-1.6s0.1-1.2-1.5-1.2c-1.6,0-2.6-1-3.1,0c-0.5,1-1.8,1.5-2.2,2.3c-0.4,0.9-0.3,1.2-0.5,2.4s-1.1,1.9,0,2.5
	S66,31.4,66,31.4z"/>
<path class="st20" d="M60.9,26.6c0.2-1.2,0-2.9-0.5-4.3S60,20.8,58.7,20s-1.5-1.7-2.6-0.9S55,20.6,55,20.6s-0.6-0.1-1-0.4
	c-0.4-0.2-0.5-0.6-1.7-0.1s-1.4,0.4-1.7,1.3c-0.3,0.9-0.3,0.9-0.3,0.9s0,1.2-0.7,1c-0.7-0.2-0.9,0-1.8,0.6s-1.8,0.9-1.6,1.9
	c0.1,1.1-1.2,0.7,0,2.2s2.3,1.7,4.4,2.2c2.1,0.5,4.4-0.1,5.4,0.5c0.9,0.6,2.6,0,2.6,0L60.9,26.6z"/>
<path class="st21" d="M58.2,25.5c0.3,0,0.6,0,0.9,0c1.1,0.2,2.4-0.1,2.4-0.1s2.2-0.3,2.6,0.2c0.4,0.4,0.8,0.8,0.9,1.3
	c0.1,0.5,0.4,0.9,0.8,1s0.7,0,0.9,0.7c0.3,0.7,0-0.1,0.3,0.7c0.3,0.9,0.5,0.7,1.1,1.7c0.5,1,0.5,0.9,0,2c-0.5,1.1-0.9-0.5-1.3,1
	c-0.3,1.4,0.6,0.4-0.3,1.4s-1.1,1-1.8,1.1c-0.7,0.1-0.5-0.7-1.6,0c-1.1,0.7-2.1,1.5-2.1,1.5l-1.2-0.2l-2.3-0.6c0,0-0.8,1.5-1.5,0.9
	c-0.7-0.6-0.7-1-1.2-1.2c-0.5-0.2-1.4-0.7-2.2-1.3c-0.8-0.6-0.1-0.7-1.4-1.6c-1.2-0.9-0.6-2.3-0.6-2.3s0.2-1.5,0.6-1.9
	s1.4-1.3,1.5-1.7c0.1-0.4-0.9,0.7,0.1-0.4c1.1-1.1,1.4-1.2,1.8-1.3c0.4-0.1,0.8-0.8,0.8-0.8C56.4,25.7,57.5,25.6,58.2,25.5z"/>
<path class="st22" d="M58.2,24.2c0.3,0,0.6,0,0.9,0c1.1,0.2,2.4-0.1,2.4-0.1s2.2-0.3,2.6,0.2c0.4,0.4,0.8,0.8,0.9,1.3
	c0.1,0.5,0.4,0.9,0.8,1s0.7,0,0.9,0.7c0.3,0.7,0-0.1,0.3,0.7c0.3,0.9,0.5,0.7,1.1,1.7s0.5,0.9,0,2c-0.5,1.1-0.9-0.5-1.3,1
	c-0.3,1.4,0.6,0.4-0.3,1.4c-0.9,1-1.1,1-1.8,1.1c-0.7,0.1-0.5-0.7-1.6,0c-1.1,0.7-2.1,1.5-2.1,1.5l-1.2-0.2l-2.3-0.6
	c0,0-0.8,1.5-1.5,0.9c-0.7-0.6-0.7-1-1.2-1.2c-0.5-0.2-1.4-0.7-2.2-1.3c-0.8-0.6-0.1-0.7-1.4-1.6c-1.2-0.9-0.6-2.3-0.6-2.3
	s0.2-1.5,0.6-1.9s1.4-1.3,1.5-1.7c0.1-0.4-0.9,0.7,0.1-0.4c1.1-1.1,1.4-1.2,1.8-1.3c0.4-0.1,0.8-0.8,0.8-0.8
	C56.4,24.3,57.5,24.3,58.2,24.2z"/>
<path class="st23" d="M56.4,28.3c0.3-0.1,1.2-0.2,1.4,0s-0.4,0.3,0,0.5s0.9-0.1,0.6,0.6c-0.2,0.6,1.1,1.5,0.2,1.3s-0.9-0.2-1.4-0.3
	c-0.5,0-1.1,1-1.2,0.3c-0.1-0.7-0.3-1.1-0.3-1.1L56.4,28.3z"/>
<path class="st24" d="M62.7,26.9c-0.5,0.1-0.6,0.1-0.8,0.7s0.4,0.3-0.2,0.6c-0.6,0.3-0.9,0.9-0.9,0.9c0.4,1.3,0.9,1.8,1.2,1.6
	s0.3,0,0.7-0.3c0.3-0.3,0.7-0.7,0.5-1.1s0-1,0.1-1.1c0.1-0.1,0.1-0.3,0-0.5S62.7,26.9,62.7,26.9z"/>
<path class="st25" d="M67.5,27c-0.4-0.3-0.5-0.3-1,0c-0.5,0.2,0.1,0.4-0.5,0.2c-0.6-0.2-1.2,0.1-1.2,0.1c-0.5,0.9-0.4,1.6-0.1,1.6
	s0.2,0.2,0.6,0.2c0.4,0,0.9,0,1-0.4c0.1-0.4,0.6-0.6,0.7-0.6c0.1,0,0.3-0.1,0.3-0.3C67.4,27.6,67.5,27,67.5,27z"/>
<path class="st26" d="M61.5,32.1c0.3,0.1,1.3,0.4,1.3,0.4s-0.3,0.5-0.6,0.8c-0.3,0.3-0.5,0.6-1.2,0.5s-1.3-0.7-1.5-0.9
	c-0.1-0.1-0.6-0.4-0.6-0.4c0.6-0.6,1.4-0.4,1.4-0.4"/>
<path class="st24" d="M65.3,32.5c0,0-1.3-0.1-1,0.4c0.3,0.6,0.5,0.6,1,0.6c0.5-0.1,1.4-0.8,1.4-0.8s-0.3-0.2-0.8-0.2
	C65.3,32.5,65.3,32.5,65.3,32.5z"/>
<path class="st27" d="M56.7,32c0.2,1-0.1,1.2-0.7,1.5s-1.2,0.7-1.4,0.3s-0.1-0.4,0-0.9s0.4-1.1,0.7-0.9C55.7,32.2,56.7,32,56.7,32z"
	/>
<path class="st24" d="M58.5,33.5c0.3,0.3,0.9,0.1,0.4,0.5c-0.5,0.3-1,0.5-1.4,0.5c-0.4,0.1-0.7-0.3-0.7-0.3S58,33,58.5,33.5z"/>
<path class="st24" d="M53.3,29.6c0-0.3,0.8,0.7,0.7,1.1s-0.5,1.1-0.7,1.1c-0.3,0-0.6-1.1-0.6-1.1s-0.8-0.4-0.5-0.7
	C52.5,29.7,53.4,30.1,53.3,29.6z"/>
<path class="st28" d="M66.1,29.6c0-0.3,0.8,0.7,0.7,1.1s-0.5,1.1-0.7,1.1c-0.3,0-0.6-1.1-0.6-1.1S64.7,30.3,65,30
	C65.3,29.7,66.2,30.1,66.1,29.6z"/>
<path class="st24" d="M59.8,26.9c0.3,0,1-0.3,1-0.3s0.3-0.5,0.4-0.7s-0.5-1-0.5-1s-0.7,0-1,0c-0.3,0-0.5,0.2-0.5,0.4
	c0,0.3,0.1-0.2,0,0.3C59.3,26,59.8,26.9,59.8,26.9z"/>
<path class="st26" d="M57.3,26.9c-0.6,0.1-0.6-0.3-1.3,0s-0.8,0.9-0.9,0.6c-0.4-0.8-0.5-1.4,0-1.7c0.5-0.2,0.5,0.2,1,0
	s0.4-0.3,0.8,0c0.4,0.3,0.2-0.4,0.4,0.3C57.3,26.9,57.3,26.9,57.3,26.9z"/>
<polygon class="st21" points="65.1,38.1 66.2,40.5 66.8,41.8 "/>
<path class="st29" d="M66.7,39c-0.2-0.4-1.6-0.8-1.6-0.8s2,2.7,1.7,3.6"/>
<path class="st29" d="M69,36c0.3,0.1,2.1,1.3,2.3,2.1s0,1.8,0,1.8L69,36z"/>
<path class="st29" d="M53.3,37.4c0,0-0.5,2.3-1.1,2.5c-0.7,0.2-1.7,1.1-1.7,1.1L53.3,37.4z"/>
<path class="st29" d="M51.3,36l-3.7,1.4c0,0,0-1.4,1.8-1.4S51.3,36,51.3,36z"/>
<path class="st29" d="M51.3,24.5l1.6,1.7c0,0-1.6,0.7-1.6-0.5S51.3,24.5,51.3,24.5z"/>
<path class="st29" d="M55.7,21.4c0.4,0.4,1.1,2,1.1,2L55.4,24L55.7,21.4z"/>
<path class="st29" d="M67.7,24l-1.8,1.3C65.9,25.4,67.7,23.1,67.7,24z"/>
<path class="st29" d="M69,27.6c0,0,1.2-1,1.6-0.7c0.4,0.3,0.7,0.7,0.7,0.7l-2.9,1.2L69,27.6z"/>
<path class="st18" d="M41.3,64.6c2.2,0.5,4.3,0.8,5.2-0.1c0.9-0.9,1.7-1.2,1.4-2.3s-1.3-1.6-1.3-1.6s0.8-0.3,0.7-1
	c-0.1-0.8-0.9-1.1-0.9-1.1s1.1-0.6,0.6-1.5c-0.5-0.9-2-1.5-3.4-1.7c-1.4-0.2-2.9,0.9-4,1.6c-1.1,0.7-1.2,2.1-1.6,2.5
	c-0.4,0.4-1,1.5-0.8,2c0.2,0.5,0.6,1.1,0.9,1.6c0.2,0.5,0.7,1.2,0.9,1.3C39.4,64.5,41.3,64.6,41.3,64.6z"/>
<path class="st19" d="M36.8,58.3c0.4-0.2,2-2.1,2.1-3.3c0.1-1.2-0.7-3.7-1.4-4.2c-0.7-0.4-1.8-0.5-2.5-0.2c-0.7,0.3-0.6,1-0.6,1
	s-0.4-0.6-1.3-1c-0.9-0.3-1.7-0.3-1.8,0S31.2,51,31.2,51s-0.6-0.9-1.6-0.3s-1.9,2-2.1,3.3c-0.1,1.3,0.8,1.9,1.8,3s1.6,1.6,2.2,2
	s1.7,0.9,1.7,0.9L36.8,58.3z"/>
<path class="st18" d="M30.6,59.5c-0.3-0.1-1.3-1.3-2.5-1.3c-1.2,0-2.9-0.5-3.2,0.4c-0.3,0.9-0.8,1.8-0.3,2.3c0.4,0.4,0,0.8,0.2,1.6
	s0.7,1.3,1,1.9s-0.6,0.8,0.5,1.3c1.1,0.5,1.3,1.5,2.1,1c0.8-0.5,1.8-0.4,2.4-0.8c0.6-0.4,0.7-0.7,1.4-1.4c0.7-0.7,1.5-0.9,1.1-1.7
	C32.6,62,30.6,59.5,30.6,59.5z"/>
<path class="st20" d="M32,64.4c-0.6,0.8-1.2,1.9-1.4,3c-0.2,1.1-0.4,1.1,0.1,2.1c0.5,1,0.3,1.6,1.4,1.4c1.1-0.2,1.3-0.6,1.3-0.6
	s0.3,0.3,0.5,0.6s0.1,0.6,1.1,0.7c1,0.1,1.1,0.2,1.7-0.3c0.6-0.5,0.6-0.5,0.6-0.5s0.5-0.8,0.8-0.4c0.3,0.4,0.6,0.3,1.4,0.2
	c0.8-0.1,1.5,0,1.9-0.7c0.4-0.8,1.1-0.1,0.9-1.4c-0.2-1.4-0.8-1.9-2-2.9c-1.2-1-3-1.4-3.4-2.1s-1.7-0.9-1.7-0.9L32,64.4z"/>
<path class="st21" d="M33.4,66c-0.2-0.1-0.4-0.2-0.6-0.3c-0.6-0.5-1.6-0.7-1.6-0.7s-1.6-0.5-1.6-1c-0.1-0.4-0.2-0.8-0.1-1.2
	c0.1-0.4,0.1-0.7-0.1-0.9c-0.2-0.2-0.4-0.2-0.3-0.8c0.1-0.6-0.1,0.1,0.1-0.6c0.2-0.7-0.1-0.7,0-1.5c0-0.8,0-0.8,0.8-1.3
	c0.8-0.6,0.4,0.6,1.2-0.2S31,57,32,56.7c1-0.3,1.1-0.3,1.6-0.1c0.5,0.1,0.1,0.7,1.1,0.5c1-0.1,2-0.3,2-0.3l0.7,0.5l1.3,1.2
	c0,0,1.1-0.7,1.3-0.1c0.2,0.6,0,0.9,0.3,1.2c0.3,0.3,0.6,0.9,0.9,1.6c0.3,0.7-0.2,0.5,0.2,1.5c0.5,1-0.5,1.7-0.5,1.7
	s-0.8,0.9-1.2,1.1c-0.5,0.2-1.4,0.4-1.7,0.6s0.9-0.2-0.2,0.2c-1.2,0.4-1.4,0.3-1.7,0.3c-0.3,0-0.9,0.3-0.9,0.3
	C34.6,66.5,33.9,66.1,33.4,66z"/>
<path class="st22" d="M32.9,66.9c-0.2-0.1-0.4-0.2-0.6-0.3c-0.6-0.5-1.6-0.7-1.6-0.7s-1.6-0.5-1.6-1c-0.1-0.4-0.2-0.8-0.1-1.2
	c0.1-0.4,0.1-0.7-0.1-0.9s-0.4-0.2-0.3-0.8c0.1-0.6-0.1,0.1,0.1-0.6c0.2-0.7-0.1-0.7,0-1.5s0-0.8,0.8-1.3c0.8-0.6,0.4,0.6,1.2-0.2
	c0.8-0.8-0.2-0.5,0.8-0.8c1-0.3,1.1-0.3,1.6-0.1s0.1,0.7,1.1,0.5c1-0.1,2-0.3,2-0.3l0.7,0.5l1.3,1.2c0,0,1.1-0.7,1.3-0.1
	c0.2,0.6,0,0.9,0.3,1.2c0.3,0.3,0.6,0.9,0.9,1.6c0.3,0.7-0.2,0.5,0.2,1.5s-0.5,1.7-0.5,1.7s-0.8,0.9-1.2,1.1
	c-0.5,0.2-1.4,0.4-1.7,0.6s0.9-0.2-0.2,0.2c-1.2,0.4-1.4,0.3-1.7,0.3c-0.3,0-0.9,0.3-0.9,0.3C34.1,67.4,33.3,67,32.9,66.9z"/>
<path class="st23" d="M35.7,64.8c-0.2,0-0.9-0.3-0.9-0.5c-0.1-0.2,0.4,0,0.2-0.3c-0.2-0.3-0.6-0.2-0.2-0.6s-0.1-1.3,0.4-0.9
	c0.5,0.4,0.5,0.5,0.8,0.6c0.3,0.2,1.1-0.3,0.9,0.2s-0.3,0.8-0.3,0.8L35.7,64.8z"/>
<path class="st24" d="M30.9,63.6c0.4,0.1,0.4,0.1,0.8-0.2c0.4-0.3-0.1-0.3,0.4-0.3c0.5,0,1-0.3,1-0.3c0.3-1,0.1-1.5-0.2-1.5
	c-0.3,0-0.2-0.1-0.5,0c-0.3,0.1-0.8,0.3-0.8,0.6c0,0.3-0.4,0.7-0.5,0.7c-0.1,0-0.2,0.2-0.2,0.3C30.9,63,30.9,63.6,30.9,63.6z"/>
<path class="st25" d="M27.8,61.9c0.2,0.3,0.2,0.3,0.6,0.4s0.1-0.3,0.4,0c0.3,0.3,0.8,0.3,0.8,0.3c0.7-0.4,0.9-0.9,0.8-1
	c-0.2-0.1-0.1-0.2-0.3-0.3c-0.2-0.1-0.6-0.3-0.8-0.1c-0.2,0.2-0.7,0.2-0.7,0.2c-0.1,0-0.2,0-0.3,0.1C28.1,61.6,27.8,61.9,27.8,61.9z
	"/>
<path class="st26" d="M33.9,60.5c-0.2-0.1-0.6-0.7-0.6-0.7s0.4-0.2,0.7-0.3c0.3-0.1,0.6-0.2,1,0.1s0.6,0.9,0.6,1.1
	c0,0.1,0.2,0.5,0.2,0.5c-0.7,0.2-1.1-0.2-1.1-0.2"/>
<path class="st24" d="M31.5,59c0,0,0.8,0.5,0.8,0c0-0.5-0.1-0.6-0.4-0.7c-0.4-0.1-1.3,0.1-1.3,0.1s0.1,0.2,0.5,0.4
	C31.5,59,31.5,59,31.5,59z"/>
<path class="st27" d="M37,62.2c0.3-0.7,0.5-0.8,1-0.8c0.5,0,1.1,0,1,0.2c-0.1,0.3-0.1,0.3-0.4,0.6c-0.3,0.3-0.7,0.6-0.8,0.4
	S37,62.2,37,62.2z"/>
<path class="st24" d="M36.5,60.6c0-0.3-0.5-0.4-0.1-0.5c0.5-0.1,0.9,0,1.1,0.1c0.3,0.1,0.3,0.4,0.3,0.4S36.6,61.1,36.5,60.6z"/>
<path class="st24" d="M38.3,64.9c-0.1,0.2-0.3-0.7,0-1c0.3-0.3,0.7-0.5,0.9-0.4c0.2,0.1,0,0.9,0,0.9s0.3,0.5,0,0.6
	S38.5,64.6,38.3,64.9z"/>
<path class="st28" d="M29.8,60.7c-0.1,0.2-0.3-0.7,0-1c0.3-0.3,0.7-0.5,0.9-0.4c0.2,0.1,0,0.9,0,0.9s0.3,0.5,0,0.6
	C30.4,60.8,30,60.3,29.8,60.7z"/>
<path class="st24" d="M32.9,64.5c-0.2-0.1-0.8-0.1-0.8-0.1s-0.4,0.2-0.6,0.3c-0.2,0.1-0.1,0.8-0.1,0.8s0.5,0.2,0.6,0.3
	c0.2,0.1,0.4,0,0.5-0.1c0.1-0.2-0.1,0.1,0.1-0.2S32.9,64.5,32.9,64.5z"/>
<path class="st26" d="M34.5,65.4c0.4,0.1,0.2,0.4,0.9,0.4c0.6,0,0.9-0.4,0.9-0.1c-0.1,0.6-0.3,1.1-0.7,1.1c-0.4,0-0.3-0.3-0.6-0.3
	c-0.3,0-0.4,0.1-0.5-0.3c-0.1-0.3-0.3,0.2-0.1-0.3C34.5,65.4,34.5,65.4,34.5,65.4z"/>
<polygon class="st21" points="34,55.4 34.3,53.4 34.4,52.4 "/>
<path class="st29" d="M33.3,54.3c0,0.4,0.7,1.1,0.7,1.1s-0.2-2.5,0.4-3"/>
<path class="st29" d="M30.6,55.5c-0.2-0.2-0.8-1.6-0.6-2.2c0.2-0.6,0.7-1.2,0.7-1.2L30.6,55.5z"/>
<path class="st29" d="M41.5,59.7c0,0,1.3-1.4,1.8-1.3c0.5,0.1,1.6-0.2,1.6-0.2L41.5,59.7z"/>
<path class="st29" d="M42.3,61.4l3,0.3c0,0-0.6,1-1.8,0.3C42.3,61.4,42.3,61.4,42.3,61.4z"/>
<path class="st29" d="M37.5,69l-0.4-1.6c0,0,1.3,0.1,0.9,0.9C37.5,69,37.5,69,37.5,69z"/>
<path class="st29" d="M33.3,69.5c-0.1-0.4,0.1-1.7,0.1-1.7l1.2,0L33.3,69.5z"/>
<path class="st29" d="M26.5,63.8l1.7-0.3C28.2,63.5,26.1,64.5,26.5,63.8z"/>
<path class="st29" d="M27.1,61c0,0-1.2,0.3-1.4-0.1c-0.2-0.3-0.2-0.7-0.2-0.7l2.4,0.2L27.1,61z"/>
<path class="st18" d="M57.9,57c1.7,1.4,3.4,2.8,3.1,4c-0.3,1.2-0.1,2-1.2,2.4c-1.1,0.4-2.3,0-2.3,0s0.2,0.7-0.6,1.1
	c-0.8,0.4-1.5,0-1.5,0s0.1,1.2-1,1.3c-1.1,0.2-2.6-0.6-3.6-1.5c-1-1-1-2.7-0.9-3.9s1.2-2.1,1.4-2.7c0.2-0.6,0.8-1.6,1.4-1.8
	s1.4-0.2,2-0.3s1.5-0.2,1.8-0.1S57.9,57,57.9,57z"/>
<path class="st19" d="M49.3,57.5c0,0.4-0.7,2.7-1.8,3.5s-3.9,1.7-4.7,1.5c-0.8-0.2-1.6-1-1.7-1.7s0.5-1,0.5-1s-0.8,0.1-1.7-0.4
	s-1.3-1.1-1-1.4c0.3-0.3,0.3-0.3,0.3-0.3s-1.2,0-1.2-1s0.7-2.7,1.8-3.5c1.2-0.9,2.3-0.5,3.9-0.5c1.6,0,2.5,0.2,3.1,0.5
	c0.7,0.3,1.8,0.8,1.8,0.8L49.3,57.5z"/>
<path class="st18" d="M46.7,52.1c-0.3-0.1-2-0.2-2.7-1.1s-2.2-1.9-1.6-2.6s1.2-1.7,1.9-1.6c0.7,0.1,0.7-0.5,1.6-0.8
	c0.8-0.3,1.6-0.3,2.3-0.4c0.7-0.1,0.4-0.9,1.5-0.4s2.2,0.1,2.2,0.9c0,0.8,0.7,1.6,0.7,2.3c0,0.7-0.3,1-0.5,1.9
	c-0.2,0.9,0.1,1.7-0.9,1.8C50.2,52.1,46.7,52.1,46.7,52.1z"/>
<path class="st20" d="M52.1,50.2c0.3-0.9,1.1-2.1,1.9-2.9c0.9-0.8,0.7-1,2-1.2c1.3-0.2,1.7-0.8,2.1,0.2c0.5,0.9,0.2,1.4,0.2,1.4
	s0.5,0.1,0.8,0s0.6-0.3,1.3,0.4c0.7,0.7,0.9,0.7,0.8,1.4c-0.1,0.7-0.1,0.7-0.1,0.7s-0.4,0.9,0.1,0.9s0.7,0.3,1,0.9s0.9,1.1,0.4,1.9
	c-0.5,0.7,0.6,0.9-0.8,1.6c-1.4,0.7-2.2,0.5-3.9,0.3c-1.7-0.3-3.1-1.4-4-1.2c-0.9,0.2-1.8-0.8-1.8-0.8L52.1,50.2z"/>
<path class="st21" d="M54.4,50.3c-0.2-0.1-0.4-0.2-0.6-0.2c-0.8-0.2-1.6-0.8-1.6-0.8s-1.4-0.8-1.9-0.6s-0.9,0.3-1.1,0.6
	c-0.3,0.3-0.6,0.5-0.9,0.5c-0.3,0-0.5-0.2-0.9,0.2c-0.5,0.4,0-0.1-0.5,0.4c-0.5,0.5-0.7,0.4-1.4,0.9s-0.7,0.5-0.7,1.4
	c0,1,0.8,0,0.6,1.1c-0.3,1.1-0.6,0.1-0.3,1.1s0.4,1,0.8,1.3c0.4,0.3,0.7-0.4,1.2,0.5c0.5,0.8,0.9,1.6,0.9,1.6l0.9,0.2l1.9,0.2
	c0,0,0,1.3,0.7,1c0.7-0.2,0.8-0.5,1.3-0.5s1.2-0.1,2-0.3c0.8-0.2,0.4-0.5,1.5-0.7c1.2-0.2,1.3-1.5,1.3-1.5s0.4-1.1,0.3-1.6
	s-0.5-1.3-0.4-1.6c0-0.3,0.4,0.8,0-0.3s-0.5-1.2-0.8-1.5c-0.2-0.2-0.3-0.8-0.3-0.8C55.6,50.9,54.8,50.5,54.4,50.3z"/>
<path class="st22" d="M54.9,49.3c-0.2-0.1-0.4-0.2-0.6-0.2c-0.8-0.2-1.6-0.8-1.6-0.8s-1.4-0.8-1.9-0.6s-0.9,0.3-1.1,0.6
	c-0.3,0.3-0.6,0.5-0.9,0.5s-0.5-0.2-0.9,0.2c-0.5,0.4,0-0.1-0.5,0.4c-0.5,0.5-0.7,0.4-1.4,0.9s-0.7,0.5-0.7,1.4c0,1,0.8,0,0.6,1.1
	c-0.3,1.1-0.6,0.1-0.3,1.1s0.4,1,0.8,1.3c0.4,0.3,0.7-0.4,1.2,0.5c0.5,0.8,0.9,1.6,0.9,1.6l0.9,0.2l1.9,0.2c0,0,0,1.3,0.7,1
	c0.7-0.2,0.8-0.5,1.3-0.5s1.2-0.1,2-0.3s0.4-0.5,1.5-0.7c1.2-0.2,1.3-1.5,1.3-1.5s0.4-1.1,0.3-1.6c-0.1-0.5-0.5-1.3-0.4-1.6
	c0-0.3,0.4,0.8,0-0.3s-0.5-1.2-0.8-1.5c-0.2-0.2-0.3-0.8-0.3-0.8C56,49.9,55.3,49.6,54.9,49.3z"/>
<path class="st23" d="M54.6,52.8c-0.2-0.2-0.8-0.5-1-0.4c-0.2,0.1,0.2,0.3-0.2,0.4c-0.4,0.1-0.6-0.3-0.7,0.2
	c-0.1,0.5-1.3,0.7-0.6,0.9c0.7,0.1,0.7,0.1,1.1,0.2c0.4,0.1,0.4,1,0.7,0.5s0.6-0.7,0.6-0.7L54.6,52.8z"/>
<path class="st24" d="M50.7,49.9c0.3,0.2,0.4,0.3,0.3,0.7c-0.1,0.5-0.4,0.1-0.1,0.5c0.3,0.4,0.3,0.9,0.3,0.9c-0.7,0.8-1.3,1-1.4,0.8
	s-0.2-0.1-0.4-0.4c-0.1-0.3-0.2-0.7,0.1-1c0.3-0.2,0.4-0.7,0.4-0.8s0-0.3,0.2-0.4C50.1,50.2,50.7,49.9,50.7,49.9z"/>
<path class="st25" d="M47.3,48.6c0.4-0.1,0.4,0,0.7,0.3c0.3,0.3-0.2,0.3,0.3,0.3c0.5,0,0.8,0.4,0.8,0.4c0,0.8-0.3,1.2-0.5,1.2
	s-0.2,0.1-0.5,0c-0.3-0.1-0.7-0.3-0.6-0.6s-0.2-0.6-0.3-0.6c-0.1,0-0.2-0.2-0.1-0.3C47.1,49,47.3,48.6,47.3,48.6z"/>
<path class="st26" d="M49.6,53.9c-0.2,0-1.1-0.1-1.1-0.1s0.1,0.4,0.1,0.7s0.2,0.6,0.7,0.7s1.2-0.1,1.4-0.2c0.1,0,0.6-0.1,0.6-0.1
	c-0.2-0.6-0.9-0.7-0.9-0.7"/>
<path class="st24" d="M46.8,53.1c0,0,1,0.3,0.6,0.6c-0.4,0.3-0.6,0.3-0.9,0.1s-0.7-1-0.7-1s0.3-0.1,0.7,0.1
	C46.8,53.1,46.8,53.1,46.8,53.1z"/>
<path class="st27" d="M53,55.3c-0.5,0.6-0.4,0.9-0.1,1.2c0.3,0.4,0.6,0.9,0.9,0.6c0.2-0.2,0.3-0.3,0.3-0.6s0.1-0.9-0.1-0.8
	S53,55.3,53,55.3z"/>
<path class="st24" d="M51.3,55.9c-0.3,0.1-0.7-0.2-0.5,0.2c0.2,0.4,0.5,0.6,0.8,0.8s0.6,0,0.6,0S51.7,55.6,51.3,55.9z"/>
<path class="st24" d="M56.3,54.6c0.1-0.2-0.8,0.2-0.9,0.6c-0.1,0.4-0.1,0.9,0.1,1c0.2,0.1,0.8-0.6,0.8-0.6s0.7-0.1,0.6-0.3
	C56.8,54.9,56.1,54.9,56.3,54.6z"/>
<path class="st28" d="M47.3,50.8c0.1-0.2-0.8,0.2-0.9,0.6c-0.1,0.4-0.1,0.9,0.1,1c0.2,0.1,0.8-0.6,0.8-0.6s0.7-0.1,0.6-0.3
	C47.8,51.2,47,51.2,47.3,50.8z"/>
<path class="st24" d="M52.7,50.7c-0.2-0.1-0.6-0.5-0.6-0.5s0-0.4-0.1-0.6c0-0.2,0.7-0.6,0.7-0.6s0.5,0.2,0.7,0.3s0.3,0.3,0.2,0.5
	s0-0.2-0.1,0.2C53.4,50.3,52.7,50.7,52.7,50.7z"/>
<path class="st26" d="M54.5,51.5c0.4,0.3,0.5-0.1,0.9,0.4s0.2,0.9,0.4,0.7c0.5-0.4,0.9-0.9,0.6-1.2c-0.3-0.3-0.4,0-0.7-0.3
	c-0.2-0.2-0.2-0.3-0.6-0.2c-0.4,0.1,0-0.4-0.4,0.1C54.5,51.5,54.5,51.5,54.5,51.5z"/>
<polygon class="st21" points="44.9,57.2 43.2,58.5 42.4,59.3 "/>
<path class="st29" d="M43.4,57.3c0.3-0.2,1.5-0.1,1.5-0.1s-2.4,1.4-2.5,2.1"/>
<path class="st29" d="M42.9,54.5c-0.3,0-1.9,0.3-2.4,0.8c-0.4,0.5-0.7,1.3-0.7,1.3L42.9,54.5z"/>
<path class="st29" d="M53.5,60.2c0,0-0.5,1.8-0.1,2.1c0.4,0.3,0.8,1.3,0.8,1.3L53.5,60.2z"/>
<path class="st29" d="M55.4,59.7l2.1,2.1c0,0,0.5-1-0.8-1.6S55.4,59.7,55.4,59.7z"/>
<path class="st29" d="M59.6,51.6l-1.7,0.7c0,0,0.9,1,1.3,0.1C59.6,51.6,59.6,51.6,59.6,51.6z"/>
<path class="st29" d="M57.6,48.1c-0.5,0.2-1.5,1.1-1.5,1.1l0.7,0.9L57.6,48.1z"/>
<path class="st29" d="M48.2,46.4l0.8,1.5C49,47.9,48.5,45.7,48.2,46.4z"/>
<path class="st29" d="M46,48.6c0,0-0.5-1.1-0.9-1s-0.8,0.3-0.8,0.3l1.6,1.7L46,48.6z"/>
<path class="st18" d="M42.1,38.5c2.6-0.2,5.1-0.3,6,0.9s1.8,1.7,1.2,2.8c-0.5,1.1-1.8,1.7-1.8,1.7s0.8,0.4,0.6,1.3
	c-0.3,0.9-1.2,1.1-1.2,1.1s1.1,0.9,0.4,1.8c-0.7,0.9-2.5,1.5-4.2,1.5c-1.7,0-3.2-1.4-4.3-2.4c-1.1-1-1-2.5-1.3-3.1
	c-0.4-0.6-0.8-1.9-0.5-2.5c0.3-0.6,0.9-1.1,1.3-1.7s1-1.3,1.3-1.4C39.9,38.3,42.1,38.5,42.1,38.5z"/>
<path class="st19" d="M35.7,45.1c0.4,0.3,1.9,2.7,1.8,4.1c-0.2,1.4-1.5,4.2-2.4,4.6c-0.8,0.4-2.2,0.3-2.9-0.1
	c-0.7-0.5-0.5-1.2-0.5-1.2s-0.6,0.7-1.7,0.9c-1,0.2-2,0.1-2.1-0.3C28,52.6,28,52.6,28,52.6s-0.9,0.9-1.9,0.1s-1.9-2.6-1.8-4.1
	s1.3-2.1,2.6-3.2c1.3-1.1,2.1-1.6,2.9-1.9c0.8-0.3,2.1-0.7,2.1-0.7L35.7,45.1z"/>
<path class="st18" d="M28.9,42.8c-0.3,0.1-1.7,1.3-3.1,1.1c-1.4-0.2-3.4,0.1-3.6-0.9s-0.6-2.2,0-2.6c0.6-0.4,0.1-1,0.5-1.8
	c0.4-0.8,1.1-1.4,1.4-2c0.4-0.6-0.5-1,0.8-1.4c1.3-0.5,1.8-1.5,2.6-0.9c0.8,0.6,2,0.7,2.6,1.3c0.6,0.6,0.7,0.9,1.3,1.9
	c0.7,0.9,1.6,1.3,0.9,2.1C31.6,40.2,28.9,42.8,28.9,42.8z"/>
<path class="st20" d="M31.4,37.3c-0.6-1-1-2.4-1.1-3.7c0-1.3-0.3-1.3,0.5-2.4c0.8-1.1,0.6-1.8,1.8-1.4c1.2,0.4,1.4,0.9,1.4,0.9
	s0.4-0.3,0.7-0.6c0.2-0.3,0.2-0.6,1.4-0.6c1.2,0.1,1.3-0.1,1.9,0.6c0.6,0.7,0.6,0.7,0.6,0.7s0.4,1,0.9,0.6s0.8-0.3,1.7,0
	s1.7,0.2,2,1.1c0.3,0.9,1.3,0.2,0.8,1.8s-1.3,2-2.8,3.1s-3.7,1.2-4.2,1.9c-0.6,0.8-2.1,0.7-2.1,0.7L31.4,37.3z"/>
<path class="st21" d="M33.2,35.7c-0.2,0.1-0.5,0.1-0.7,0.3c-0.8,0.5-2,0.6-2,0.6s-1.9,0.4-2.1,0.9c-0.2,0.5-0.4,0.9-0.3,1.3
	c0.1,0.4,0,0.8-0.3,1s-0.6,0.2-0.5,0.9c0,0.7,0-0.1,0,0.7c0.1,0.8-0.2,0.8-0.3,1.7c-0.1,1-0.1,0.9,0.7,1.7s0.6-0.6,1.4,0.4
	c0.8,1.1-0.3,0.5,0.8,1.1c1.1,0.5,1.2,0.5,1.8,0.4c0.6-0.1,0.2-0.8,1.3-0.5c1.1,0.3,2.2,0.6,2.2,0.6l0.9-0.5l1.7-1.2
	c0,0,1.2,1,1.5,0.3c0.3-0.7,0.2-1,0.6-1.3s0.9-1,1.3-1.7c0.5-0.7-0.1-0.6,0.6-1.7c0.7-1-0.3-2.1-0.3-2.1s-0.7-1.1-1.2-1.4
	s-1.6-0.7-1.8-1c-0.2-0.3,1,0.3-0.2-0.3c-1.3-0.6-1.5-0.6-1.9-0.6c-0.4,0-1-0.5-1-0.5C34.7,35.3,33.8,35.6,33.2,35.7z"/>
<path class="st22" d="M32.8,34.6c-0.2,0.1-0.5,0.1-0.7,0.3c-0.8,0.5-2,0.6-2,0.6s-1.9,0.4-2.1,0.9s-0.4,0.9-0.3,1.3
	c0.1,0.4,0,0.8-0.3,1c-0.3,0.2-0.6,0.2-0.5,0.9s0-0.1,0,0.7S26.7,41,26.6,42c-0.1,1-0.1,0.9,0.7,1.7c0.9,0.8,0.6-0.6,1.4,0.4
	c0.8,1.1-0.3,0.5,0.8,1.1c1.1,0.5,1.2,0.5,1.8,0.4c0.6-0.1,0.2-0.8,1.3-0.5c1.1,0.3,2.2,0.6,2.2,0.6l0.9-0.5l1.7-1.2
	c0,0,1.2,1,1.5,0.3c0.3-0.7,0.2-1,0.6-1.3s0.9-1,1.3-1.7c0.5-0.7-0.1-0.6,0.6-1.7c0.7-1-0.3-2.1-0.3-2.1s-0.7-1.1-1.2-1.4
	c-0.5-0.3-1.6-0.7-1.8-1s1,0.3-0.2-0.3s-1.5-0.6-1.9-0.6c-0.4,0-1-0.5-1-0.5C34.2,34.3,33.3,34.5,32.8,34.6z"/>
<path class="st23" d="M35.7,37.5c-0.3,0-1,0.2-1.1,0.4c-0.1,0.2,0.4,0.1,0.2,0.4c-0.3,0.3-0.7,0.2-0.3,0.7c0.4,0.5-0.4,1.5,0.3,1.1
	c0.7-0.4,0.6-0.5,1.1-0.6c0.4-0.2,1.3,0.5,1.1-0.1c-0.2-0.6-0.2-1-0.2-1L35.7,37.5z"/>
<path class="st24" d="M30,38.1c0.4-0.1,0.5-0.1,0.9,0.4c0.4,0.4-0.2,0.4,0.4,0.4c0.6,0,1,0.5,1,0.5c0.2,1.1-0.1,1.7-0.4,1.6
	c-0.3-0.1-0.3,0.1-0.6,0c-0.4-0.1-0.9-0.4-0.8-0.8s-0.3-0.8-0.4-0.9c-0.1,0-0.2-0.2-0.2-0.4S30,38.1,30,38.1z"/>
<path class="st25" d="M26.1,39.6c0.2-0.3,0.3-0.3,0.8-0.3c0.5,0,0.1,0.3,0.5,0c0.4-0.3,1-0.3,1-0.3c0.8,0.6,0.9,1.2,0.7,1.3
	c-0.2,0.1-0.1,0.2-0.4,0.3c-0.3,0.1-0.8,0.3-1,0c-0.2-0.3-0.7-0.3-0.8-0.3c-0.1,0-0.3,0-0.4-0.2C26.3,40,26.1,39.6,26.1,39.6z"/>
<path class="st26" d="M32.8,42.1c-0.2,0.1-0.9,0.7-0.9,0.7s0.4,0.3,0.8,0.5c0.3,0.2,0.7,0.4,1.2,0.1s0.8-1,0.9-1.1
	c0.1-0.1,0.3-0.5,0.3-0.5c-0.7-0.4-1.3,0-1.3,0"/>
<path class="st24" d="M29.8,43.5c0,0,1-0.5,1,0.1c0,0.5-0.2,0.6-0.6,0.7c-0.4,0.1-1.5-0.3-1.5-0.3s0.1-0.2,0.6-0.4
	S29.8,43.5,29.8,43.5z"/>
<path class="st27" d="M36.7,40.7c0.2,0.8,0.5,0.9,1.1,1s1.3,0.2,1.2-0.1c0-0.3,0-0.4-0.3-0.7c-0.3-0.4-0.7-0.8-0.9-0.6
	C37.7,40.5,36.7,40.7,36.7,40.7z"/>
<path class="st24" d="M35.8,42.4c-0.1,0.3-0.7,0.4-0.2,0.5c0.5,0.1,1,0.1,1.3,0.1c0.3-0.1,0.5-0.4,0.5-0.4S36,41.9,35.8,42.4z"/>
<path class="st24" d="M38.6,37.7c-0.1-0.3-0.5,0.8-0.2,1.1c0.2,0.4,0.8,0.7,1,0.7c0.2-0.1,0.1-1,0.1-1s0.5-0.6,0.2-0.7
	S38.8,38.1,38.6,37.7z"/>
<path class="st28" d="M28.1,41.3c-0.1-0.3-0.5,0.8-0.2,1.1c0.2,0.4,0.8,0.7,1,0.7c0.2-0.1,0.1-1,0.1-1s0.5-0.6,0.2-0.7
	C28.8,41.2,28.3,41.8,28.1,41.3z"/>
<path class="st24" d="M32.3,37.3c-0.2,0.1-1,0-1,0S31,37,30.8,36.9c-0.2-0.1,0-1,0-1s0.6-0.2,0.8-0.3c0.2-0.1,0.5,0,0.6,0.2
	s-0.1-0.1,0.1,0.2C32.5,36.5,32.3,37.3,32.3,37.3z"/>
<path class="st26" d="M34.4,36.6c0.5-0.1,0.4-0.4,1.1-0.4c0.7,0.1,1,0.6,1,0.3c0-0.7-0.1-1.3-0.6-1.4c-0.5,0-0.4,0.3-0.8,0.3
	c-0.4,0-0.4-0.1-0.6,0.2c-0.2,0.3-0.3-0.3-0.2,0.3C34.4,36.6,34.4,36.6,34.4,36.6z"/>
<polygon class="st21" points="32,48 31.9,50.3 31.9,51.5 "/>
<path class="st29" d="M31,49.2c0-0.4,1-1.2,1-1.2s-0.7,2.8-0.1,3.5"/>
<path class="st29" d="M28.1,47.4c-0.2,0.2-1.2,1.7-1.1,2.4s0.6,1.5,0.6,1.5L28.1,47.4z"/>
<path class="st29" d="M41.4,44.1c0,0,1.2,1.8,1.8,1.7s1.8,0.4,1.8,0.4L41.4,44.1z"/>
<path class="st29" d="M42.6,42.4l3.5,0.1c0,0-0.5-1.2-2-0.7C42.6,42.4,42.6,42.4,42.6,42.4z"/>
<path class="st29" d="M38.5,32.9l-0.7,1.8c0,0,1.6,0.1,1.1-0.9C38.5,32.9,38.5,32.9,38.5,32.9z"/>
<path class="st29" d="M33.8,31.6c-0.2,0.5-0.2,1.9-0.2,1.9l1.4,0.2L33.8,31.6z"/>
<path class="st29" d="M24.9,37.2l1.9,0.6C26.8,37.8,24.6,36.4,24.9,37.2z"/>
<path class="st29" d="M25.1,40.5c0,0-1.3-0.5-1.6-0.1c-0.3,0.3-0.4,0.8-0.4,0.8l2.8,0.2L25.1,40.5z"/>
<path class="st18" d="M56.6,75c-2.6-0.2-5.1-0.6-5.7-1.9c-0.6-1.3-1.4-2-0.6-3c0.8-1,2.1-1.3,2.1-1.3s-0.7-0.5-0.3-1.4
	c0.5-0.8,1.4-0.9,1.4-0.9s-0.9-1,0-1.9c0.9-0.8,2.8-1,4.4-0.7c1.7,0.3,2.8,1.9,3.7,3.1c0.8,1.2,0.4,2.7,0.7,3.3c0.2,0.6,0.4,2,0,2.5
	c-0.4,0.5-1.1,1-1.6,1.5c-0.5,0.5-1.2,1.1-1.6,1.1C58.8,75.6,56.6,75,56.6,75z"/>
<path class="st19" d="M64.2,69.5c-0.3-0.4-1.3-2.9-0.9-4.3c0.4-1.4,2.4-3.9,3.3-4.1c0.9-0.3,2.2,0,2.8,0.6c0.6,0.6,0.3,1.3,0.3,1.3
	s0.7-0.6,1.8-0.6c1.1-0.1,2,0.2,2,0.7c0,0.4,0,0.4,0,0.4s1.1-0.7,1.9,0.2c0.8,1,1.3,2.8,0.9,4.3s-1.7,1.8-3.2,2.7s-2.4,1.3-3.2,1.4
	c-0.8,0.1-2.2,0.4-2.2,0.4L64.2,69.5z"/>
<path class="st18" d="M70.5,72.9c0.4-0.1,2-1,3.3-0.5s3.4,0.4,3.3,1.5c0,1.1,0.1,2.3-0.6,2.6c-0.7,0.3-0.3,0.9-0.9,1.7
	c-0.6,0.7-1.3,1.2-1.8,1.7c-0.5,0.5,0.3,1-1.1,1.3c-1.4,0.2-2.1,1.2-2.7,0.4c-0.6-0.8-1.8-1-2.3-1.7c-0.5-0.7-0.5-1-0.9-2
	s-1.3-1.5-0.5-2.2C67.3,75,70.5,72.9,70.5,72.9z"/>
<path class="st20" d="M66.9,77.9c0.4,1,0.5,2.5,0.3,3.8c-0.2,1.2,0,1.3-1,2.2c-1,0.9-1,1.7-2.1,1.1c-1.1-0.6-1.2-1.1-1.2-1.1
	s-0.5,0.2-0.8,0.5c-0.3,0.3-0.3,0.6-1.5,0.4c-1.1-0.2-1.3-0.1-1.7-0.9s-0.4-0.8-0.4-0.8s-0.2-1.1-0.8-0.7c-0.5,0.3-0.8,0.1-1.6-0.3
	s-1.7-0.5-1.8-1.5c-0.1-1-1.2-0.5-0.4-1.9c0.8-1.4,1.7-1.8,3.4-2.5c1.8-0.7,3.9-0.5,4.6-1.2c0.7-0.7,2.2-0.4,2.2-0.4L66.9,77.9z"/>
<path class="st21" d="M64.8,79.2c0.3,0,0.5,0,0.7-0.1c0.9-0.3,2.1-0.3,2.1-0.3s1.9-0.1,2.2-0.5c0.3-0.4,0.6-0.8,0.6-1.3
	s0.2-0.8,0.5-1s0.6-0.1,0.7-0.8c0.1-0.7,0,0.1,0.1-0.7s0.3-0.7,0.6-1.6s0.3-0.8-0.4-1.7c-0.7-0.9-0.7,0.5-1.3-0.6
	c-0.6-1.2,0.4-0.5-0.6-1.2s-1.1-0.7-1.7-0.7S68.1,69.4,67,69C66,68.5,65,68,65,68l-1,0.4l-1.9,0.9c0,0-1-1.1-1.4-0.5
	c-0.5,0.6-0.4,0.9-0.8,1.2s-1,0.8-1.6,1.5s0,0.7-0.9,1.6c-0.9,0.9-0.1,2.1-0.1,2.1s0.5,1.2,0.9,1.6s1.4,1,1.6,1.3
	c0.2,0.3-1-0.5,0.2,0.3s1.4,0.8,1.8,0.9c0.4,0.1,0.9,0.6,0.9,0.6C63.3,79.3,64.2,79.2,64.8,79.2z"/>
<path class="st22" d="M65,80.3c0.3,0,0.5,0,0.7-0.1c0.9-0.3,2.1-0.3,2.1-0.3s1.9-0.1,2.2-0.5c0.3-0.4,0.6-0.8,0.6-1.3
	c0-0.4,0.2-0.8,0.5-1s0.6-0.1,0.7-0.8c0.1-0.7,0,0.1,0.1-0.7s0.3-0.7,0.6-1.6s0.3-0.8-0.4-1.7c-0.7-0.9-0.7,0.5-1.3-0.6
	c-0.6-1.2,0.4-0.5-0.6-1.2c-1-0.7-1.1-0.7-1.7-0.7s-0.3,0.7-1.4,0.2c-1.1-0.5-2.1-1-2.1-1l-1,0.4l-1.9,0.9c0,0-1-1.1-1.4-0.5
	s-0.4,0.9-0.8,1.2c-0.4,0.3-1,0.8-1.6,1.5c-0.6,0.6,0,0.7-0.9,1.6s-0.1,2.1-0.1,2.1s0.5,1.2,0.9,1.6s1.4,1,1.6,1.3
	c0.2,0.3-1-0.5,0.2,0.3s1.4,0.8,1.8,0.9c0.4,0.1,0.9,0.6,0.9,0.6C63.5,80.5,64.5,80.4,65,80.3z"/>
<path class="st23" d="M62.7,77c0.3,0.1,1.1,0,1.2-0.2c0.1-0.2-0.4-0.2-0.1-0.5s0.8-0.1,0.5-0.6c-0.3-0.5,0.7-1.4-0.1-1.1
	c-0.7,0.3-0.7,0.3-1.2,0.4c-0.4,0.1-1.1-0.7-1.1-0.1s0,1,0,1L62.7,77z"/>
<path class="st24" d="M68.5,77.4c-0.5,0-0.5,0-0.8-0.5c-0.3-0.5,0.3-0.3-0.3-0.5s-0.9-0.7-0.9-0.7c0.1-1.2,0.5-1.7,0.8-1.5
	c0.3,0.1,0.3,0,0.6,0.1c0.3,0.2,0.8,0.5,0.6,0.9c-0.1,0.4,0.2,0.9,0.2,0.9c0.1,0.1,0.2,0.3,0.1,0.5C68.8,76.8,68.5,77.4,68.5,77.4z"
	/>
<path class="st25" d="M72.6,76.6c-0.3,0.3-0.4,0.3-0.8,0.2s0-0.4-0.5-0.1s-1,0.1-1,0.1c-0.6-0.7-0.7-1.3-0.4-1.4
	c0.3-0.1,0.2-0.2,0.5-0.3c0.3-0.1,0.8-0.1,1,0.2s0.6,0.4,0.7,0.4c0.1,0,0.3,0.1,0.3,0.2C72.4,76.1,72.6,76.6,72.6,76.6z"/>
<path class="st26" d="M66.5,73c0.2-0.1,1-0.6,1-0.6s-0.4-0.3-0.7-0.6c-0.3-0.3-0.6-0.5-1.1-0.3s-1,0.8-1.1,1
	c-0.1,0.1-0.4,0.5-0.4,0.5c0.6,0.5,1.3,0.2,1.3,0.2"/>
<path class="st24" d="M69.7,72.1c0,0-1.1,0.3-1-0.2c0.2-0.5,0.3-0.6,0.8-0.6c0.5,0,1.4,0.5,1.4,0.5s-0.2,0.2-0.7,0.3
	C69.7,72.1,69.7,72.1,69.7,72.1z"/>
<path class="st27" d="M62.4,73.7c0-0.9-0.3-1-0.8-1.2c-0.6-0.2-1.2-0.4-1.3-0.1c-0.1,0.3-0.1,0.4,0.2,0.8s0.5,0.9,0.7,0.7
	C61.4,73.8,62.4,73.7,62.4,73.7z"/>
<path class="st24" d="M63.6,72.2c0.2-0.3,0.8-0.2,0.3-0.5c-0.5-0.2-1-0.3-1.3-0.3c-0.4,0-0.6,0.3-0.6,0.3S63.3,72.7,63.6,72.2z"/>
<path class="st24" d="M59.9,76.4c0,0.3,0.6-0.7,0.4-1.1s-0.6-0.8-0.8-0.8c-0.2,0-0.3,1-0.3,1s-0.6,0.5-0.3,0.7
	C59.1,76.4,59.8,75.9,59.9,76.4z"/>
<path class="st28" d="M70.9,74.5c0,0.3,0.6-0.7,0.4-1.1c-0.2-0.4-0.6-0.8-0.8-0.8c-0.2,0-0.3,1-0.3,1s-0.6,0.5-0.3,0.7
	C70.2,74.5,70.9,74.1,70.9,74.5z"/>
<path class="st24" d="M66,77.8c0.3,0,0.9,0.1,0.9,0.1s0.3,0.4,0.5,0.5s-0.2,1-0.2,1s-0.6,0.1-0.8,0.1s-0.4-0.1-0.5-0.3
	c-0.1-0.2,0.1,0.2-0.1-0.2C65.6,78.6,66,77.8,66,77.8z"/>
<path class="st26" d="M63.8,78.1c-0.5,0-0.4,0.4-1.1,0.2c-0.7-0.2-0.9-0.7-0.9-0.4c-0.2,0.7-0.2,1.3,0.3,1.4s0.4-0.2,0.8-0.1
	c0.4,0.1,0.4,0.2,0.7-0.1c0.3-0.3,0.3,0.3,0.3-0.3C63.8,78.1,63.8,78.1,63.8,78.1z"/>
<polygon class="st21" points="68.5,67.3 69,65 69.3,63.9 "/>
<path class="st29" d="M69.8,66.3c-0.1,0.4-1.3,1-1.3,1s1.2-2.7,0.8-3.4"/>
<path class="st29" d="M72.3,68.5c0.3-0.1,1.6-1.4,1.6-2.2c0-0.7-0.3-1.6-0.3-1.6L72.3,68.5z"/>
<path class="st29" d="M58.4,69.6c0,0-0.8-2-1.4-2c-0.6,0-1.7-0.7-1.7-0.7L58.4,69.6z"/>
<path class="st29" d="M56.9,71.1l-3.5-0.7c0,0,0.3,1.3,1.9,1C56.9,71.1,56.9,71.1,56.9,71.1z"/>
<path class="st29" d="M59,81.1l1.1-1.7c0,0-1.5-0.4-1.3,0.7S59,81.1,59,81.1z"/>
<path class="st29" d="M63.4,83.1c0.3-0.4,0.6-1.9,0.6-1.9l-1.3-0.4L63.4,83.1z"/>
<path class="st29" d="M73.3,79.1l-1.8-0.9C71.5,78.2,73.4,79.9,73.3,79.1z"/>
<path class="st29" d="M73.8,75.8c0,0,1.2,0.7,1.5,0.4c0.3-0.3,0.5-0.7,0.5-0.7l-2.7-0.6L73.8,75.8z"/>
<path class="st18" d="M68.4,55.1c-2.4,0.5-4.7,0.8-5.7-0.2c-1-1-1.9-1.4-1.5-2.5s1.5-1.8,1.5-1.8s-0.8-0.3-0.7-1.2
	c0.1-0.9,1-1.2,1-1.2s-1.2-0.7-0.6-1.7s2.2-1.6,3.7-1.8c1.6-0.2,3.2,1,4.3,1.8c1.1,0.8,1.2,2.3,1.7,2.8c0.4,0.5,1,1.7,0.8,2.2
	s-0.7,1.2-1,1.7c-0.3,0.6-0.8,1.3-1.1,1.4C70.5,54.9,68.4,55.1,68.4,55.1z"/>
<path class="st19" d="M73.5,48.1c-0.4-0.3-2.1-2.3-2.2-3.6c-0.1-1.4,0.9-4.1,1.6-4.6c0.7-0.5,2-0.5,2.7-0.2c0.7,0.4,0.7,1.1,0.7,1.1
	s0.5-0.7,1.4-1c0.9-0.3,1.8-0.3,2,0.1c0.1,0.4,0.1,0.4,0.1,0.4s0.7-0.9,1.7-0.3c1,0.7,2.1,2.2,2.2,3.6s-0.9,2.1-2,3.3
	s-1.7,1.8-2.4,2.1c-0.7,0.3-1.9,0.9-1.9,0.9L73.5,48.1z"/>
<path class="st18" d="M80.2,49.6c0.3-0.1,1.5-1.4,2.8-1.3s3.2-0.5,3.5,0.5c0.3,1,0.8,2,0.3,2.5c-0.5,0.5,0,0.9-0.2,1.7
	c-0.3,0.8-0.8,1.4-1.1,2c-0.3,0.6,0.6,0.8-0.6,1.4c-1.2,0.6-1.4,1.6-2.3,1.1c-0.8-0.5-1.9-0.4-2.6-0.9c-0.7-0.5-0.7-0.8-1.5-1.6
	c-0.7-0.8-1.6-1-1.1-1.9S80.2,49.6,80.2,49.6z"/>
<path class="st20" d="M78.6,54.9c0.7,0.8,1.3,2.1,1.5,3.3c0.2,1.2,0.5,1.2-0.2,2.3s-0.3,1.8-1.5,1.5c-1.2-0.2-1.4-0.7-1.4-0.7
	s-0.4,0.3-0.5,0.6s-0.1,0.6-1.2,0.7c-1.1,0.1-1.2,0.2-1.8-0.3s-0.6-0.6-0.6-0.6s-0.5-0.9-0.9-0.5c-0.4,0.4-0.7,0.3-1.6,0.2
	s-1.7,0-2-0.8c-0.4-0.8-1.2-0.1-1-1.6s0.9-2.1,2.2-3.2c1.3-1.1,3.3-1.5,3.7-2.3c0.4-0.8,1.9-0.9,1.9-0.9L78.6,54.9z"/>
<path class="st21" d="M77.1,56.6c0.2-0.1,0.4-0.2,0.6-0.3c0.7-0.5,1.8-0.8,1.8-0.8s1.7-0.6,1.8-1c0.1-0.5,0.2-0.9,0.1-1.3
	c-0.1-0.4-0.1-0.8,0.2-1s0.5-0.2,0.4-0.9c-0.1-0.6,0.1,0.1-0.1-0.6c-0.2-0.7,0.1-0.7,0-1.6c0-0.9,0-0.8-0.9-1.5
	c-0.9-0.6-0.5,0.7-1.4-0.2s0.2-0.5-0.9-0.9s-1.2-0.3-1.8-0.2c-0.5,0.2-0.1,0.7-1.2,0.6c-1.1-0.1-2.2-0.3-2.2-0.3l-0.7,0.6l-1.4,1.3
	c0,0-1.2-0.8-1.5-0.1s-0.1,1-0.4,1.3c-0.3,0.4-0.7,1-1,1.7s0.2,0.6-0.3,1.6c-0.5,1.1,0.6,1.9,0.6,1.9s0.8,1,1.3,1.2s1.6,0.5,1.8,0.7
	c0.3,0.2-1-0.2,0.3,0.2s1.5,0.4,1.9,0.3c0.4,0,1,0.3,1,0.3C75.8,57.2,76.6,56.8,77.1,56.6z"/>
<path class="st22" d="M77.7,57.6c0.2-0.1,0.4-0.2,0.6-0.3c0.7-0.5,1.8-0.8,1.8-0.8s1.7-0.6,1.8-1c0.1-0.5,0.2-0.9,0.1-1.3
	c-0.1-0.4-0.1-0.8,0.2-1s0.5-0.2,0.4-0.9c-0.1-0.6,0.1,0.1-0.1-0.6c-0.2-0.7,0.1-0.7,0-1.6c0-0.9,0-0.8-0.9-1.5
	c-0.9-0.6-0.5,0.7-1.4-0.2s0.2-0.5-0.9-0.9c-1.1-0.4-1.2-0.3-1.8-0.2s-0.1,0.7-1.2,0.6c-1.1-0.1-2.2-0.3-2.2-0.3l-0.7,0.6L72,49.4
	c0,0-1.2-0.8-1.5-0.1s-0.1,1-0.4,1.3s-0.7,1-1,1.7c-0.3,0.7,0.2,0.6-0.3,1.6c-0.5,1.1,0.6,1.9,0.6,1.9s0.8,1,1.3,1.2
	c0.5,0.2,1.6,0.5,1.8,0.7c0.3,0.2-1-0.2,0.3,0.2c1.3,0.4,1.5,0.4,1.9,0.3c0.4,0,1,0.3,1,0.3C76.3,58.1,77.2,57.8,77.7,57.6z"/>
<path class="st23" d="M74.5,55.3c0.3,0,0.9-0.3,1-0.5c0.1-0.2-0.4,0-0.2-0.4c0.2-0.3,0.7-0.3,0.2-0.7c-0.4-0.4,0.1-1.4-0.4-1
	c-0.6,0.4-0.5,0.5-0.9,0.7c-0.4,0.2-1.2-0.3-1,0.2c0.3,0.5,0.3,0.9,0.3,0.9L74.5,55.3z"/>
<path class="st24" d="M79.8,54c-0.4,0.1-0.5,0.1-0.9-0.2c-0.4-0.3,0.1-0.4-0.4-0.3c-0.5,0-1-0.4-1-0.4c-0.3-1.1-0.1-1.6,0.2-1.6
	c0.3,0,0.2-0.1,0.6,0s0.9,0.3,0.9,0.7s0.4,0.8,0.5,0.8c0.1,0,0.2,0.2,0.2,0.4S79.8,54,79.8,54z"/>
<path class="st25" d="M83.2,52.3c-0.2,0.3-0.2,0.4-0.7,0.4c-0.5,0-0.1-0.3-0.5,0S81.2,53,81.2,53c-0.8-0.5-1-1-0.8-1.1
	c0.2-0.2,0.1-0.2,0.4-0.4s0.7-0.3,0.9-0.1c0.2,0.2,0.7,0.2,0.8,0.2c0.1,0,0.3,0,0.4,0.1C82.9,51.9,83.2,52.3,83.2,52.3z"/>
<path class="st26" d="M76.6,50.7c0.2-0.2,0.7-0.8,0.7-0.8s-0.5-0.2-0.8-0.4c-0.3-0.2-0.7-0.3-1.1,0.1c-0.4,0.3-0.7,1-0.7,1.2
	c0,0.1-0.2,0.5-0.2,0.5c0.7,0.3,1.2-0.2,1.2-0.2"/>
<path class="st24" d="M79.2,49c0,0-0.9,0.5-0.9,0c0-0.5,0.1-0.6,0.5-0.8s1.4,0.1,1.4,0.1s-0.1,0.2-0.5,0.4C79.2,49,79.2,49,79.2,49z
	"/>
<path class="st27" d="M73.2,52.4c-0.3-0.8-0.6-0.8-1.1-0.8c-0.6,0-1.2-0.1-1.1,0.2c0.1,0.3,0.1,0.4,0.4,0.7s0.8,0.6,0.9,0.4
	C72.3,52.7,73.2,52.4,73.2,52.4z"/>
<path class="st24" d="M73.8,50.7c0.1-0.3,0.6-0.4,0.1-0.5c-0.5-0.1-0.9,0-1.3,0.1c-0.3,0.1-0.4,0.4-0.4,0.4S73.7,51.2,73.8,50.7z"/>
<path class="st24" d="M71.8,55.4c0.1,0.2,0.3-0.8,0-1.1s-0.8-0.6-1-0.5s0,1,0,1s-0.4,0.6-0.1,0.7S71.6,55,71.8,55.4z"/>
<path class="st28" d="M81.1,50.9c0.1,0.2,0.3-0.8,0-1.1c-0.3-0.3-0.8-0.6-1-0.5c-0.2,0.1,0,1,0,1s-0.4,0.6-0.1,0.7
	C80.4,51,80.9,50.5,81.1,50.9z"/>
<path class="st24" d="M77.7,55.1c0.2-0.1,0.9-0.1,0.9-0.1s0.4,0.2,0.6,0.3c0.2,0.1,0.1,0.9,0.1,0.9s-0.5,0.2-0.7,0.3
	c-0.2,0.1-0.4,0-0.6-0.1c-0.1-0.2,0.1,0.1-0.1-0.2C77.7,55.9,77.7,55.1,77.7,55.1z"/>
<path class="st26" d="M75.9,56c-0.5,0.1-0.3,0.4-0.9,0.5c-0.7,0-1-0.4-1-0.1c0.1,0.7,0.3,1.2,0.7,1.2c0.5,0,0.3-0.3,0.7-0.3
	c0.4,0,0.4,0.1,0.6-0.3c0.1-0.3,0.4,0.2,0.1-0.3C75.9,56,75.9,56,75.9,56z"/>
<polygon class="st21" points="76.6,45 76.3,42.9 76.2,41.7 "/>
<path class="st29" d="M77.4,43.8c0,0.4-0.8,1.2-0.8,1.2s0.2-2.7-0.4-3.3"/>
<path class="st29" d="M80.3,45.2c0.2-0.2,0.9-1.7,0.7-2.4s-0.8-1.3-0.8-1.3L80.3,45.2z"/>
<path class="st29" d="M68.3,49.7c0,0-1.4-1.5-1.9-1.4S64.6,48,64.6,48L68.3,49.7z"/>
<path class="st29" d="M67.4,51.4l-3.3,0.3c0,0,0.6,1.1,2,0.4C67.4,51.4,67.4,51.4,67.4,51.4z"/>
<path class="st29" d="M72.5,59.8l0.4-1.8c0,0-1.5,0.1-0.9,0.9C72.5,59.8,72.5,59.8,72.5,59.8z"/>
<path class="st29" d="M77.1,60.5c0.1-0.5-0.1-1.8-0.1-1.8l-1.3,0L77.1,60.5z"/>
<path class="st29" d="M84.7,54.4L82.8,54C82.8,54,85.1,55.1,84.7,54.4z"/>
<path class="st29" d="M84,51.3c0,0,1.3,0.3,1.5,0s0.2-0.8,0.2-0.8l-2.6,0.2L84,51.3z"/>
</g>
</svg>
