<?xml version="1.0" encoding="utf-8"?>
<!-- Generator: Adobe Illustrator 23.1.1, SVG Export Plug-In . SVG Version: 6.00 Build 0)  -->
<svg version="1.1" id="Layer_1" xmlns="http://www.w3.org/2000/svg" xmlns:xlink="http://www.w3.org/1999/xlink" x="0px" y="0px"
	 viewBox="0 0 108 108" style="enable-background:new 0 0 108 108;" xml:space="preserve">
<style type="text/css">
	.st0{fill:none;stroke:#718638;stroke-width:1.0127;stroke-miterlimit:10;}
	.st1{fill:#A6C339;}
	.st2{fill:#85B541;}
	.st3{fill:#91BC3E;}
	.st4{fill:#B0CC37;}
	.st5{fill:#93B93F;}
	.st6{fill:#A6BD3A;}
	.st7{fill:#A5C939;}
	.st8{fill:#72AA42;}
	.st9{fill:#D2DEE0;}
	.st10{fill:#75C6DC;}
	.st11{fill:#8ACBDE;}
	.st12{fill:#74BAE7;}
	.st13{fill:#71CEE3;}
	.st14{fill:#46BEDE;}
	.st15{fill:#76C3DB;}
	.st16{fill:#8ABFD6;}
	.st17{fill:#7BBAD5;}
	.st18{fill:#7ABAD5;}
	.st19{fill:#6CCFF6;}
	.st20{fill:#91CDDE;}
	.st21{fill:#9ECCDB;}
	.st22{fill:#A3D2DF;}
	.st23{fill:#DBEAB6;}
	.st24{fill:#57A198;}
</style>
<g>
	<path class="st0" d="M70.08,73.82c-0.06-2.42-1.01-6.76-1.68-9.84"/>
	<path class="st0" d="M76.48,70.71c-3.2-1.29-7.29-4.18-9.33-7.3"/>
	<path class="st0" d="M77.59,64.42c-3.63,1.75-6.65,3.78-9.15,0.14"/>
	<path class="st0" d="M62.98,57.5c-3.85-2.98-7.5-6.93-8.92-10.39"/>
	<path class="st0" d="M55.1,60.36c0.44-5.02-0.93-12.71-1.11-14.29"/>
	<path class="st0" d="M61.89,50.81c-2.98,0.93-4.66,2.38-7.6-2.56"/>
	<path class="st1" d="M64.86,78.56c-0.31-1.93-1.29-2.33,1.93-5.74L70,69.4c0,0,0.64,0.74,1.39,1.58c0.75,0.84,3.93,3.65,2.49,6.93
		c-1.43,3.28-2.67,5.06-3.15,5.57c-0.49,0.51-1.75,2.57-2.11,3.07"/>
	<path class="st2" d="M87.51,79.54c-2.35-0.98-5.72,1.13-8.56-0.86c-2.85-2-4.47-6.93-5.15-8.36c-0.68-1.43-1.84-0.81,0.84-0.86
		c2.69-0.05,2.84-0.96,5.17-0.4s5.56,4.04,5.78,5.48C85.81,75.98,87.51,79.54,87.51,79.54"/>
	<path class="st3" d="M73.5,66.44c0.7,0,1.48,0.57,4.86,0.62c3.38,0.05,6.04-0.31,6.63-2.89c0.59-2.58-0.24-3.09,1.21-4.79l1.45-1.7
		c0,0-2.91-0.09-6.96,0.02c-4.05,0.1-5.95,4.21-6.45,5.94C73.75,65.37,73.5,66.44,73.5,66.44"/>
	<path class="st4" d="M71.67,66.48c0,0-1.56-1.73-4.75-1.74c-3.19-0.02-6.69-1.59-6.69-4.97s-1.09-5.24-1.09-5.24
		s-0.07,0.48,2.71,0.26c2.78-0.22,6.73,1.69,7.84,4.45C70.79,62.01,71.67,66.48,71.67,66.48"/>
	<path class="st5" d="M52.48,70.77c0,0,4.11-4.12,5.37-6.91c1.26-2.79,1.61-4.45-0.03-6.44c-1.63-1.98-2.23-3.57-2.23-3.57
		s-2.32,3.45-3.84,4.26c-1.52,0.8-3.2,3.63-2.38,5.3C50.19,65.09,52.48,70.77,52.48,70.77"/>
	<path class="st6" d="M58.91,51.75c0,0.05,2.46,1.07,5.39,1.43c2.93,0.35,4.51,0.33,5.66-1.13c1.15-1.46,1.93-3,2.75-4.7
		c0.82-1.7,0.92-2.39,1.6-2.55c0.67-0.16-0.85,0.59-4.08-0.21c-3.23-0.8-4.77-1.69-6.12-0.63c-1.34,1.05-1.3,3-2.39,4.56
		C60.63,50.09,58.91,51.75,58.91,51.75"/>
	<path class="st0" d="M27.92,72.16c2.34-0.65,6.3-2.64,9.13-4.04"/>
	<path class="st0" d="M32.52,77.61c0.46-3.41,2.26-8.09,4.79-10.83"/>
	<path class="st0" d="M38.88,77.14c-2.59-3.09-5.29-5.52-2.38-8.84"/>
	<path class="st0" d="M42,61.28c1.94-4.46,4.88-8.97,7.89-11.19"/>
	<path class="st0" d="M37.31,54.34c4.97-0.8,12.09-4.02,13.58-4.58"/>
	<path class="st0" d="M48.22,58.59c-1.64-2.66-3.45-3.94,0.62-8"/>
	<path class="st2" d="M22.05,68.26c1.79-0.77,1.94-1.82,6.04,0.46l4.1,2.28c0,0-0.56,0.8-1.19,1.73c-0.63,0.93-2.58,4.7-6.11,4.12
		c-3.53-0.59-5.56-1.34-6.18-1.69c-0.62-0.35-2.92-1.07-3.49-1.29"/>
	<path class="st7" d="M26.66,90.47c0.37-2.51-2.5-5.26-1.26-8.51c1.24-3.25,5.62-6.04,6.84-7.04c1.22-1.01,0.33-1.98,1.04,0.61
		c0.71,2.59,1.63,2.51,1.66,4.91c0.03,2.4-2.55,6.38-3.9,6.95C29.69,87.95,26.66,90.47,26.66,90.47"/>
	<path class="st3" d="M35.92,73.67c0.17,0.68-0.19,1.58,0.59,4.87c0.78,3.29,1.79,5.78,4.43,5.72c2.64-0.06,2.94-0.99,4.94,0l2,0.99
		c0,0-0.63-2.84-1.72-6.75c-1.1-3.9-5.54-4.74-7.34-4.8C37.02,73.65,35.92,73.67,35.92,73.67"/>
	<path class="st4" d="M35.44,71.91c0,0,1.29-1.93,0.52-5.03c-0.77-3.1-0.1-6.88,3.17-7.7c3.27-0.83,4.82-2.35,4.82-2.35
		s-0.48,0.05,0.41,2.69c0.89,2.64,0.01,6.94-2.4,8.69C39.55,69.96,35.44,71.91,35.44,71.91"/>
	<path class="st5" d="M26.57,54.36c0,0,5,2.98,8.01,3.51c3.01,0.54,4.71,0.46,6.23-1.6c1.52-2.07,2.92-3.04,2.92-3.04
		s-3.91-1.4-5.07-2.68c-1.15-1.28-4.3-2.21-5.73-1.01C31.51,50.74,26.57,54.36,26.57,54.36"/>
	<path class="st6" d="M46.59,55.93c-0.05,0.02-0.44,2.65-0.06,5.57c0.38,2.93,0.78,4.46,2.48,5.21c1.7,0.76,3.38,1.14,5.23,1.51
		c1.85,0.38,2.55,0.31,2.86,0.92c0.32,0.61-0.78-0.68-0.8-4.01c-0.01-3.33,0.46-5.04-0.89-6.08c-1.35-1.04-3.23-0.52-5.01-1.2
		C48.62,57.18,46.59,55.93,46.59,55.93"/>
	<path class="st0" d="M34.91,30.86c0.77,2.3,2.95,6.16,4.5,8.91"/>
	<path class="st0" d="M29.7,35.72c3.43,0.29,8.2,1.85,11.06,4.24"/>
	<path class="st0" d="M30.49,42.05c2.96-2.74,5.25-5.56,8.71-2.82"/>
	<path class="st0" d="M46.48,44.37c4.55,1.72,9.21,4.42,11.57,7.32"/>
	<path class="st0" d="M53.18,39.33c1.05,4.93,4.62,11.88,5.26,13.34"/>
	<path class="st0" d="M49.49,50.45c2.57-1.77,3.76-3.65,8.02,0.22"/>
	<path class="st1" d="M38.51,24.79c0.86,1.75,1.92,1.85-0.16,6.06l-2.07,4.21c0,0-0.83-0.52-1.79-1.1
		c-0.96-0.58-4.82-2.34-4.42-5.89c0.41-3.55,1.06-5.62,1.38-6.25c0.32-0.63,0.92-2.97,1.11-3.55"/>
	<path class="st2" d="M16.56,30.51c2.53,0.25,5.13-2.76,8.44-1.69c3.31,1.07,6.31,5.31,7.38,6.48c1.07,1.16,2,0.23-0.56,1.07
		c-2.55,0.84-2.43,1.75-4.82,1.9c-2.39,0.15-6.5-2.23-7.13-3.54C19.23,33.41,16.56,30.51,16.56,30.51"/>
	<path class="st3" d="M33.8,38.92c-0.67,0.21-1.58-0.11-4.83,0.83c-3.25,0.94-5.69,2.07-5.49,4.71c0.19,2.64,1.14,2.89,0.25,4.93
		l-0.89,2.05c0,0,2.81-0.77,6.65-2.06c3.85-1.29,4.45-5.77,4.42-7.57C33.88,40.02,33.8,38.92,33.8,38.92"/>
	<path class="st4" d="M35.54,38.35c0,0,2,1.19,5.05,0.27c3.06-0.92,6.86-0.45,7.85,2.78c0.99,3.23,2.59,4.69,2.59,4.69
		s-0.08-0.48-2.67,0.55c-2.59,1.02-6.93,0.36-8.8-1.96C37.69,42.36,35.54,38.35,35.54,38.35"/>
	<path class="st5" d="M52.62,28.61c0,0-2.72,5.14-3.11,8.18c-0.39,3.04-0.23,4.73,1.91,6.14c2.14,1.42,3.18,2.76,3.18,2.76
		s1.2-3.98,2.42-5.19c1.22-1.22,1.99-4.41,0.72-5.77C56.48,33.37,52.62,28.61,52.62,28.61"/>
	<path class="st6" d="M52.06,48.68c-0.02-0.05-2.67-0.31-5.57,0.22c-2.9,0.52-4.41,1-5.08,2.74c-0.67,1.73-0.96,3.43-1.25,5.3
		c-0.28,1.86-0.18,2.56-0.78,2.91c-0.6,0.35,0.64-0.82,3.96-1c3.32-0.18,5.06,0.21,6.03-1.19c0.97-1.4,0.36-3.25,0.94-5.06
		C50.91,50.78,52.06,48.68,52.06,48.68"/>
	<path class="st0" d="M77.71,36.45c-2.39,0.4-6.55,1.96-9.5,3.06"/>
	<path class="st0" d="M73.71,30.54c-0.82,3.35-3.1,7.81-5.91,10.27"/>
	<path class="st0" d="M67.33,30.34c2.25,3.35,4.68,6.05,1.43,9.04"/>
	<path class="st0" d="M62.55,45.78c-2.4,4.23-5.8,8.41-9.03,10.3"/>
	<path class="st0" d="M66.49,53.18c-5.03,0.27-12.45,2.71-13.99,3.12"/>
	<path class="st0" d="M56.08,47.8c1.35,2.82,3.02,4.28-1.46,7.89"/>
	<path class="st1" d="M83.14,40.94c-1.87,0.58-2.12,1.6-5.96-1.1l-3.84-2.7c0,0,0.64-0.74,1.37-1.6c0.72-0.86,3.06-4.4,6.51-3.45
		c3.45,0.96,5.39,1.92,5.96,2.33c0.58,0.41,2.79,1.37,3.34,1.65"/>
	<path class="st7" d="M80.9,18.38c-0.64,2.46,1.93,5.5,0.36,8.6c-1.57,3.1-6.23,5.41-7.54,6.28c-1.31,0.87-0.54,1.94-0.97-0.71
		c-0.43-2.65-1.35-2.67-1.13-5.06c0.22-2.39,3.21-6.07,4.61-6.49C77.62,20.57,80.9,18.38,80.9,18.38"/>
	<path class="st2" d="M69.91,34.1c-0.1-0.69,0.36-1.55-0.07-4.9c-0.42-3.35-1.16-5.94-3.8-6.16c-2.64-0.22-3.03,0.68-4.91-0.52
		l-1.88-1.2c0,0,0.32,2.89,1,6.89c0.68,4,5.01,5.3,6.79,5.55C68.81,34.01,69.91,34.1,69.91,34.1"/>
	<path class="st4" d="M70.21,35.91c0,0-1.49,1.79-1.05,4.95c0.44,3.16-0.63,6.85-3.97,7.33c-3.34,0.48-5.04,1.82-5.04,1.82
		s0.49,0-0.12-2.72c-0.61-2.72,0.72-6.9,3.3-8.39C65.91,37.41,70.21,35.91,70.21,35.91"/>
	<path class="st5" d="M77.17,54.29c0,0-4.66-3.49-7.6-4.34c-2.94-0.85-4.63-0.96-6.37,0.94c-1.73,1.9-3.22,2.71-3.22,2.71
		s3.74,1.81,4.76,3.2c1.01,1.39,4.04,2.66,5.59,1.61C71.87,57.36,77.17,54.29,77.17,54.29"/>
	<path class="st6" d="M57.43,50.62c0.05-0.01,0.72-2.59,0.65-5.53c-0.07-2.95-0.31-4.51-1.92-5.45c-1.61-0.93-3.24-1.49-5.04-2.05
		c-1.8-0.57-2.5-0.57-2.75-1.22c-0.25-0.65,0.71,0.76,0.37,4.07c-0.34,3.31-0.99,4.97,0.24,6.14c1.23,1.18,3.16,0.86,4.86,1.72
		C55.54,49.15,57.43,50.62,57.43,50.62"/>
	<path class="st8" d="M54.05,63.14c-0.06-2.42-1.01-6.76-1.68-9.84"/>
	<path class="st8" d="M60.45,60.02c-3.2-1.29-7.29-4.18-9.33-7.3"/>
	<path class="st8" d="M61.56,53.73c-3.63,1.75-6.65,3.78-9.15,0.14"/>
	<path class="st8" d="M46.95,46.82c-3.85-2.98-7.5-6.93-8.91-10.39"/>
	<path class="st8" d="M39.06,49.67c0.44-5.02-0.93-12.71-1.11-14.29"/>
	<path class="st8" d="M45.86,40.13c-2.98,0.93-4.66,2.38-7.6-2.56"/>
	<path class="st8" d="M48.82,67.88c-0.31-1.93-1.29-2.33,1.93-5.74l3.22-3.42c0,0,0.64,0.74,1.39,1.58
		c0.75,0.84,3.93,3.65,2.49,6.93c-1.43,3.28-2.67,5.06-3.15,5.57c-0.49,0.51-1.75,2.57-2.11,3.07"/>
	<path class="st8" d="M71.48,68.86c-2.34-0.98-5.72,1.13-8.56-0.86c-2.85-1.99-4.47-6.93-5.15-8.36c-0.68-1.42-1.84-0.81,0.84-0.86
		c2.69-0.05,2.83-0.96,5.17-0.4s5.56,4.04,5.78,5.48C69.78,65.3,71.48,68.86,71.48,68.86"/>
	<path class="st8" d="M57.47,55.76c0.7,0,1.48,0.57,4.86,0.62c3.38,0.05,6.04-0.31,6.63-2.89c0.59-2.58-0.24-3.09,1.21-4.79
		l1.45-1.7c0,0-2.91-0.09-6.96,0.02c-4.05,0.1-5.95,4.21-6.45,5.94C57.72,54.68,57.47,55.76,57.47,55.76"/>
	<path class="st8" d="M55.64,55.79c0,0-1.56-1.73-4.75-1.74c-3.19-0.02-6.69-1.59-6.69-4.97c0-3.38-1.09-5.24-1.09-5.24
		s-0.07,0.48,2.71,0.26c2.78-0.22,6.73,1.69,7.84,4.45C54.76,51.32,55.64,55.79,55.64,55.79"/>
	<path class="st8" d="M36.45,60.08c0,0,4.11-4.12,5.37-6.91c1.26-2.79,1.61-4.45-0.03-6.44c-1.63-1.98-2.23-3.57-2.23-3.57
		s-2.32,3.45-3.84,4.26c-1.52,0.8-3.2,3.63-2.38,5.3C34.16,54.41,36.45,60.08,36.45,60.08"/>
	<path class="st8" d="M42.88,41.06c0,0.05,2.46,1.07,5.39,1.43c2.93,0.35,4.51,0.33,5.66-1.13c1.15-1.46,1.93-3,2.75-4.7
		c0.82-1.7,0.92-2.39,1.6-2.55c0.67-0.16-0.85,0.59-4.08-0.21c-3.23-0.8-4.77-1.69-6.12-0.63c-1.34,1.05-1.3,3-2.39,4.56
		C44.6,39.4,42.88,41.06,42.88,41.06"/>
	<path class="st9" d="M55.95,39.85c0,7.69-6.23,13.92-13.92,13.92c-7.69,0-13.92-6.23-13.92-13.92c0-7.69,6.23-13.92,13.92-13.92
		C49.72,25.93,55.95,32.17,55.95,39.85"/>
	<path class="st10" d="M44.17,27.07c0.06-0.14,0.33-1.29,0.2-1.94c-0.13-0.65-0.15-1.83-1.5-2.12c-1.34-0.29-2.47,0.18-2.93,0.82
		c-0.46,0.64-0.28,2.18-0.3,2.91c-0.03,0.73,0.37,1.6,0.82,2.04c0.44,0.44,0.6,0.9,1.1,1.05c0.49,0.15,0.2,0.66,0.7,0.07
		c0.5-0.59,0.8-0.56,0.97-0.84C43.4,28.8,44.17,27.07,44.17,27.07"/>
	<path class="st11" d="M39.53,26.98c0.01-0.15-0.15-1.32-0.51-1.88c-0.35-0.56-0.8-1.66-2.16-1.44c-1.36,0.21-2.24,1.06-2.44,1.82
		c-0.2,0.76,0.52,2.13,0.76,2.83c0.24,0.69,0.92,1.36,1.5,1.61c0.57,0.25,0.89,0.62,1.4,0.59c0.51-0.04,0.42,0.54,0.68-0.18
		c0.26-0.73,0.54-0.81,0.61-1.13C39.43,28.88,39.53,26.98,39.53,26.98"/>
	<path class="st10" d="M35.16,28.57c-0.05-0.15-0.62-1.18-1.15-1.58s-1.34-1.26-2.53-0.57c-1.19,0.69-1.71,1.79-1.63,2.57
		c0.09,0.78,1.25,1.8,1.73,2.37c0.47,0.56,1.35,0.94,1.98,0.97c0.63,0.03,1.05,0.26,1.52,0.05c0.47-0.22,0.59,0.36,0.57-0.41
		c-0.02-0.77,0.21-0.95,0.16-1.27C35.75,30.38,35.16,28.57,35.16,28.57"/>
	<path class="st10" d="M31.66,31.62c-0.1-0.12-1-0.88-1.64-1.06c-0.64-0.18-1.7-0.69-2.57,0.37c-0.87,1.07-0.96,2.29-0.6,2.99
		c0.36,0.7,1.82,1.23,2.46,1.59c0.64,0.36,1.6,0.39,2.19,0.2c0.6-0.2,1.08-0.13,1.44-0.5c0.36-0.37,0.68,0.12,0.38-0.59
		c-0.29-0.71-0.14-0.96-0.3-1.24C32.85,33.09,31.66,31.62,31.66,31.62"/>
	<path class="st11" d="M29.48,35.72c-0.13-0.08-1.25-0.46-1.91-0.4c-0.66,0.06-1.84-0.04-2.26,1.27c-0.42,1.31-0.07,2.48,0.51,3
		c0.59,0.52,2.14,0.5,2.87,0.6c0.73,0.1,1.63-0.21,2.12-0.6c0.49-0.4,0.96-0.51,1.16-0.98c0.2-0.48,0.68-0.13,0.15-0.69
		c-0.53-0.56-0.48-0.85-0.73-1.05C31.12,36.67,29.48,35.72,29.48,35.72"/>
	<path class="st10" d="M28.91,40.33c-0.15-0.02-1.33,0.02-1.93,0.31c-0.6,0.29-1.73,0.62-1.66,2c0.07,1.37,0.82,2.34,1.56,2.62
		c0.74,0.28,2.18-0.3,2.89-0.46c0.72-0.16,1.45-0.78,1.76-1.32c0.31-0.55,0.71-0.82,0.73-1.33c0.02-0.52,0.59-0.36-0.11-0.69
		c-0.7-0.33-0.75-0.62-1.06-0.72C30.79,40.62,28.91,40.33,28.91,40.33"/>
	<path class="st11" d="M30.04,44.84c-0.15,0.03-1.24,0.49-1.69,0.98c-0.45,0.49-1.39,1.2-0.83,2.46c0.56,1.26,1.61,1.89,2.39,1.89
		c0.79-0.01,1.92-1.06,2.53-1.47c0.61-0.41,1.07-1.25,1.17-1.87c0.1-0.62,0.37-1.02,0.2-1.51c-0.17-0.49,0.42-0.55-0.35-0.61
		c-0.77-0.06-0.92-0.31-1.25-0.29C31.9,44.44,30.04,44.84,30.04,44.84"/>
	<path class="st10" d="M32.71,48.64c-0.13,0.08-0.98,0.9-1.23,1.52c-0.25,0.62-0.87,1.62,0.11,2.59c0.97,0.97,2.18,1.19,2.91,0.9
		c0.73-0.29,1.42-1.68,1.84-2.28c0.42-0.6,0.56-1.55,0.42-2.16c-0.13-0.61-0.02-1.08-0.35-1.48c-0.33-0.39,0.19-0.66-0.55-0.44
		c-0.74,0.22-0.97,0.04-1.27,0.17C34.3,47.6,32.71,48.64,32.71,48.64"/>
	<path class="st11" d="M36.56,51.23c-0.09,0.13-0.59,1.2-0.6,1.86c-0.01,0.66-0.23,1.82,1.03,2.38c1.26,0.56,2.46,0.33,3.04-0.2
		c0.58-0.53,0.72-2.08,0.9-2.79c0.18-0.71-0.04-1.64-0.38-2.17c-0.34-0.52-0.41-1.01-0.86-1.25c-0.45-0.25-0.06-0.68-0.67-0.22
		c-0.61,0.47-0.89,0.39-1.12,0.62C37.67,49.69,36.56,51.23,36.56,51.23"/>
	<path class="st10" d="M41.09,52.27c-0.04,0.15-0.12,1.33,0.11,1.95c0.23,0.62,0.44,1.78,1.81,1.85c1.37,0.07,2.41-0.57,2.76-1.28
		c0.35-0.7-0.07-2.2-0.16-2.92c-0.09-0.73-0.62-1.52-1.13-1.89c-0.51-0.37-0.74-0.79-1.25-0.86c-0.51-0.07-0.3-0.62-0.7,0.04
		c-0.4,0.66-0.7,0.68-0.83,0.98C41.57,50.44,41.09,52.27,41.09,52.27"/>
	<path class="st11" d="M45.69,51.62c0.02,0.15,0.36,1.28,0.8,1.78c0.44,0.5,1.05,1.51,2.36,1.08c1.31-0.43,2.05-1.4,2.12-2.18
		c0.08-0.78-0.85-2.02-1.2-2.67c-0.34-0.65-1.13-1.2-1.73-1.36c-0.61-0.16-0.98-0.48-1.48-0.36c-0.5,0.12-0.5-0.47-0.64,0.29
		c-0.14,0.76-0.4,0.89-0.42,1.21C45.48,49.73,45.69,51.62,45.69,51.62"/>
	<path class="st10" d="M49.75,49.36c0.07,0.14,0.8,1.07,1.39,1.38c0.59,0.31,1.52,1.03,2.59,0.16c1.07-0.87,1.41-2.04,1.2-2.8
		c-0.21-0.76-1.52-1.58-2.08-2.06c-0.55-0.48-1.48-0.71-2.1-0.65c-0.62,0.07-1.08-0.09-1.51,0.2c-0.43,0.29-0.64-0.26-0.49,0.5
		c0.14,0.76-0.06,0.97,0.04,1.28C48.88,47.67,49.75,49.36,49.75,49.36"/>
	<path class="st11" d="M52.72,45.79c0.11,0.1,1.13,0.71,1.79,0.79c0.66,0.08,1.79,0.42,2.48-0.78c0.68-1.19,0.58-2.41,0.11-3.04
		c-0.47-0.63-1.99-0.93-2.68-1.18c-0.69-0.25-1.64-0.13-2.2,0.15c-0.56,0.29-1.04,0.3-1.34,0.72c-0.29,0.42-0.69-0.02-0.28,0.64
		c0.4,0.66,0.29,0.93,0.5,1.18C51.31,44.53,52.72,45.79,52.72,45.79"/>
	<path class="st10" d="M54.23,41.4c0.14,0.06,1.31,0.26,1.95,0.1c0.64-0.16,1.82-0.25,2.03-1.61c0.21-1.36-0.32-2.46-0.98-2.88
		s-2.19-0.15-2.93-0.14c-0.73,0.01-1.58,0.46-2,0.93c-0.42,0.47-0.87,0.65-0.99,1.16c-0.12,0.5-0.65,0.23-0.03,0.7
		c0.61,0.47,0.61,0.76,0.89,0.92C52.45,40.72,54.23,41.4,54.23,41.4"/>
	<path class="st11" d="M54.05,36.75c0.15,0,1.31-0.23,1.85-0.61c0.54-0.38,1.61-0.89,1.32-2.23c-0.29-1.34-1.18-2.18-1.95-2.34
		c-0.77-0.16-2.1,0.64-2.78,0.92c-0.68,0.28-1.31,1-1.53,1.58c-0.22,0.59-0.57,0.92-0.51,1.43c0.07,0.51-0.52,0.45,0.22,0.67
		c0.74,0.22,0.84,0.49,1.16,0.54C52.15,36.76,54.05,36.75,54.05,36.75"/>
	<path class="st10" d="M52.22,32.48c0.14-0.06,1.14-0.68,1.51-1.24c0.37-0.55,1.18-1.41,0.43-2.56c-0.75-1.15-1.88-1.61-2.66-1.48
		c-0.78,0.13-1.73,1.35-2.27,1.85c-0.54,0.5-0.86,1.4-0.86,2.03c0,0.63-0.21,1.06,0.04,1.52c0.25,0.45-0.32,0.61,0.44,0.54
		s0.96,0.16,1.28,0.09C50.45,33.17,52.22,32.48,52.22,32.48"/>
	<path class="st11" d="M48.99,29.15c0.11-0.1,0.82-1.05,0.97-1.7c0.15-0.65,0.6-1.74-0.51-2.54c-1.12-0.81-2.34-0.83-3.02-0.43
		c-0.68,0.4-1.13,1.88-1.45,2.54c-0.32,0.66-0.3,1.62-0.08,2.2c0.23,0.58,0.19,1.07,0.58,1.41c0.39,0.34-0.09,0.68,0.61,0.35
		c0.7-0.33,0.95-0.19,1.22-0.37C47.58,30.43,48.99,29.15,48.99,29.15"/>
	<path class="st12" d="M41.13,30.05c0.02-0.13,0-1.1-0.24-1.59c-0.24-0.49-0.5-1.43-1.63-1.38c-1.13,0.05-1.94,0.66-2.17,1.26
		c-0.23,0.61,0.23,1.8,0.36,2.39c0.13,0.59,0.63,1.2,1.07,1.46c0.45,0.26,0.67,0.6,1.09,0.61c0.43,0.02,0.29,0.48,0.57-0.09
		c0.28-0.57,0.52-0.61,0.6-0.87C40.87,31.59,41.13,30.05,41.13,30.05"/>
	<path class="st13" d="M37.24,31.08c-0.03-0.12-0.43-1.01-0.84-1.37c-0.41-0.36-1.02-1.12-2.04-0.63c-1.02,0.49-1.52,1.36-1.5,2.01
		c0.02,0.65,0.92,1.56,1.27,2.06c0.35,0.49,1.05,0.86,1.56,0.92c0.51,0.07,0.85,0.29,1.25,0.13c0.4-0.15,0.46,0.33,0.49-0.3
		c0.03-0.64,0.24-0.77,0.21-1.03C37.61,32.61,37.24,31.08,37.24,31.08"/>
	<path class="st14" d="M34.07,33.57c-0.08-0.1-0.79-0.76-1.31-0.93c-0.52-0.17-1.38-0.63-2.13,0.22c-0.75,0.85-0.87,1.85-0.59,2.44
		c0.27,0.59,1.46,1.08,1.97,1.39c0.52,0.32,1.3,0.38,1.8,0.24c0.5-0.14,0.89-0.07,1.2-0.37c0.31-0.29,0.55,0.13,0.33-0.47
		c-0.22-0.6-0.08-0.8-0.21-1.03C35.01,34.82,34.07,33.57,34.07,33.57"/>
	<path class="st15" d="M32.13,37.09c-0.11-0.06-1.03-0.39-1.57-0.34c-0.54,0.05-1.51-0.04-1.87,1.04c-0.36,1.08-0.07,2.04,0.41,2.48
		c0.48,0.43,1.76,0.42,2.36,0.51c0.6,0.09,1.35-0.16,1.75-0.49c0.4-0.32,0.79-0.42,0.96-0.81c0.17-0.39,0.56-0.1,0.12-0.57
		c-0.44-0.46-0.39-0.7-0.6-0.87C33.48,37.88,32.13,37.09,32.13,37.09"/>
	<path class="st14" d="M31.73,41.1c-0.13-0.02-1.1,0.05-1.58,0.31c-0.48,0.26-1.41,0.56-1.31,1.69c0.1,1.13,0.74,1.91,1.35,2.12
		c0.61,0.21,1.79-0.3,2.37-0.46c0.59-0.15,1.17-0.68,1.42-1.14c0.24-0.46,0.57-0.69,0.57-1.12c0-0.43,0.47-0.31-0.11-0.57
		c-0.58-0.26-0.63-0.49-0.89-0.57C33.28,41.29,31.73,41.1,31.73,41.1"/>
	<path class="st13" d="M32.93,44.94c-0.12,0.03-0.99,0.48-1.33,0.9c-0.34,0.43-1.08,1.07-0.55,2.07c0.53,1,1.43,1.46,2.07,1.42
		c0.65-0.05,1.52-0.98,2-1.35c0.48-0.37,0.81-1.08,0.86-1.6c0.04-0.52,0.25-0.86,0.08-1.25c-0.17-0.39,0.31-0.47-0.32-0.48
		c-0.64-0.01-0.78-0.2-1.04-0.17C34.43,44.51,32.93,44.94,32.93,44.94"/>
	<path class="st16" d="M35.54,48c-0.1,0.08-0.72,0.83-0.87,1.35c-0.15,0.53-0.57,1.4,0.31,2.12c0.88,0.71,1.89,0.79,2.46,0.49
		c0.58-0.3,1.02-1.5,1.31-2.03c0.29-0.53,0.32-1.32,0.16-1.81c-0.16-0.49-0.11-0.89-0.42-1.18c-0.31-0.29,0.1-0.56-0.49-0.31
		c-0.59,0.24-0.8,0.12-1.03,0.25C36.75,47.01,35.54,48,35.54,48"/>
	<path class="st13" d="M39.14,49.79c-0.06,0.11-0.34,1.04-0.27,1.59c0.07,0.54,0.03,1.52,1.12,1.83c1.09,0.31,2.04-0.02,2.46-0.52
		c0.41-0.5,0.35-1.78,0.41-2.38c0.06-0.6-0.22-1.34-0.56-1.73c-0.34-0.39-0.45-0.77-0.85-0.92c-0.4-0.15-0.12-0.55-0.57-0.1
		c-0.45,0.46-0.68,0.42-0.84,0.63C39.87,48.41,39.14,49.79,39.14,49.79"/>
	<path class="st17" d="M43.16,50.03c-0.01,0.13,0.09,1.09,0.37,1.57c0.28,0.47,0.62,1.38,1.74,1.24c1.12-0.14,1.87-0.82,2.06-1.44
		c0.18-0.62-0.38-1.77-0.56-2.35c-0.18-0.58-0.73-1.14-1.19-1.37c-0.47-0.22-0.72-0.54-1.14-0.52c-0.42,0.02-0.33-0.46-0.56,0.13
		c-0.23,0.59-0.46,0.66-0.53,0.91C43.29,48.47,43.16,50.03,43.16,50.03"/>
	<path class="st13" d="M46.95,48.67c0.04,0.12,0.52,0.97,0.96,1.29c0.44,0.32,1.11,1.03,2.09,0.46c0.98-0.57,1.4-1.49,1.33-2.13
		c-0.08-0.65-1.04-1.48-1.44-1.94c-0.39-0.46-1.12-0.77-1.63-0.79c-0.52-0.02-0.87-0.21-1.25-0.03c-0.38,0.18-0.49-0.29-0.47,0.34
		c0.02,0.64-0.17,0.78-0.13,1.05C46.46,47.18,46.95,48.67,46.95,48.67"/>
	<path class="st13" d="M49.9,45.93c0.08,0.1,0.86,0.69,1.39,0.82c0.53,0.13,1.43,0.51,2.1-0.4c0.67-0.91,0.71-1.92,0.38-2.48
		c-0.32-0.56-1.54-0.95-2.08-1.22c-0.54-0.27-1.33-0.27-1.81-0.09c-0.48,0.18-0.88,0.15-1.16,0.47c-0.28,0.32-0.56-0.08-0.29,0.5
		c0.27,0.58,0.15,0.79,0.3,1.01C48.86,44.76,49.9,45.93,49.9,45.93"/>
	<path class="st18" d="M51.54,42.25c0.11,0.06,1.06,0.3,1.6,0.21c0.54-0.09,1.51-0.09,1.78-1.19c0.26-1.1-0.1-2.04-0.62-2.43
		c-0.52-0.39-1.79-0.27-2.39-0.31s-1.33,0.28-1.7,0.63c-0.37,0.36-0.75,0.48-0.89,0.88c-0.13,0.4-0.55,0.15-0.07,0.57
		c0.47,0.43,0.45,0.67,0.67,0.82C50.12,41.58,51.54,42.25,51.54,42.25"/>
	<path class="st19" d="M51.6,38.22c0.13,0.01,1.09-0.14,1.55-0.44c0.46-0.3,1.36-0.68,1.17-1.79c-0.19-1.12-0.89-1.84-1.52-1.99
		s-1.75,0.45-2.32,0.66c-0.57,0.2-1.11,0.78-1.32,1.25c-0.2,0.48-0.51,0.74-0.47,1.16c0.04,0.42-0.44,0.35,0.16,0.56
		c0.6,0.21,0.67,0.44,0.94,0.49C50.04,38.17,51.6,38.22,51.6,38.22"/>
	<path class="st13" d="M50.08,34.5c0.12-0.04,0.95-0.56,1.25-1.01c0.31-0.45,0.98-1.15,0.37-2.11c-0.61-0.95-1.54-1.34-2.19-1.24
		c-0.64,0.1-1.44,1.11-1.88,1.52c-0.44,0.41-0.72,1.15-0.72,1.67c0,0.52-0.18,0.88,0.02,1.25c0.2,0.38-0.27,0.5,0.36,0.45
		c0.63-0.05,0.79,0.14,1.05,0.08C48.62,35.06,50.08,34.5,50.08,34.5"/>
	<path class="st13" d="M47.22,31.67c0.09-0.09,0.65-0.88,0.76-1.42c0.1-0.54,0.45-1.45-0.49-2.08c-0.94-0.64-1.95-0.63-2.5-0.28
		c-0.55,0.35-0.89,1.58-1.13,2.13c-0.25,0.55-0.21,1.34-0.01,1.82c0.2,0.48,0.18,0.88,0.51,1.14c0.33,0.27-0.05,0.56,0.51,0.27
		c0.57-0.29,0.78-0.18,1-0.34C46.1,32.75,47.22,31.67,47.22,31.67"/>
	<path class="st13" d="M43.48,30.18c0.05-0.12,0.25-1.07,0.14-1.6c-0.12-0.54-0.15-1.51-1.27-1.73c-1.11-0.22-2.04,0.19-2.41,0.72
		c-0.37,0.53-0.2,1.8-0.21,2.41s0.33,1.31,0.7,1.67c0.37,0.36,0.51,0.73,0.92,0.85c0.41,0.12,0.17,0.54,0.58,0.05
		c0.41-0.49,0.65-0.48,0.79-0.7C42.87,31.63,43.48,30.18,43.48,30.18"/>
	<path class="st20" d="M43.46,33.85c0.05-0.1,0.24-0.93,0.15-1.4c-0.09-0.47-0.11-1.32-1.08-1.53c-0.97-0.21-1.79,0.13-2.12,0.59
		c-0.33,0.46-0.2,1.57-0.22,2.1c-0.02,0.53,0.27,1.16,0.59,1.48c0.32,0.32,0.44,0.65,0.79,0.76c0.36,0.11,0.14,0.48,0.5,0.05
		c0.36-0.42,0.57-0.41,0.7-0.6C42.9,35.1,43.46,33.85,43.46,33.85"/>
	<path class="st20" d="M39.86,33.8c-0.02-0.11-0.29-0.92-0.62-1.27c-0.33-0.35-0.8-1.06-1.73-0.72c-0.93,0.34-1.44,1.06-1.48,1.63
		c-0.04,0.57,0.67,1.44,0.93,1.9c0.26,0.46,0.84,0.84,1.28,0.94c0.44,0.1,0.72,0.32,1.08,0.22c0.36-0.1,0.37,0.33,0.46-0.22
		c0.08-0.55,0.27-0.65,0.27-0.88C40.06,35.16,39.86,33.8,39.86,33.8"/>
	<path class="st20" d="M36.79,35.67c-0.07-0.09-0.73-0.62-1.2-0.75c-0.46-0.12-1.24-0.48-1.85,0.3c-0.61,0.78-0.66,1.66-0.39,2.17
		c0.27,0.5,1.33,0.87,1.8,1.12c0.47,0.25,1.16,0.27,1.59,0.12c0.43-0.15,0.78-0.11,1.03-0.38c0.25-0.27,0.49,0.08,0.27-0.43
		c-0.22-0.51-0.11-0.69-0.24-0.89C37.68,36.72,36.79,35.67,36.79,35.67"/>
	<path class="st20" d="M35.18,38.89c-0.11-0.04-0.95-0.14-1.41,0c-0.46,0.14-1.3,0.25-1.41,1.24c-0.1,0.99,0.32,1.76,0.82,2.04
		c0.49,0.28,1.59,0.03,2.12,0c0.53-0.04,1.12-0.39,1.41-0.74c0.28-0.35,0.6-0.5,0.67-0.87c0.07-0.37,0.46-0.19,0-0.51
		c-0.46-0.32-0.47-0.53-0.67-0.63C36.49,39.31,35.18,38.89,35.18,38.89"/>
	<path class="st20" d="M35.52,42.47c-0.11,0.03-0.88,0.39-1.19,0.75c-0.31,0.36-0.97,0.9-0.54,1.8c0.44,0.89,1.21,1.32,1.77,1.3
		c0.57-0.02,1.36-0.82,1.79-1.13c0.43-0.31,0.74-0.93,0.8-1.38c0.05-0.45,0.24-0.74,0.11-1.09c-0.13-0.35,0.29-0.4-0.27-0.43
		s-0.67-0.2-0.91-0.18C36.85,42.13,35.52,42.47,35.52,42.47"/>
	<path class="st20" d="M37.7,45.32c-0.08,0.08-0.54,0.8-0.61,1.27c-0.07,0.47-0.35,1.28,0.5,1.81c0.84,0.53,1.73,0.48,2.19,0.16
		c0.47-0.32,0.72-1.41,0.92-1.9c0.2-0.49,0.14-1.18-0.05-1.59c-0.19-0.41-0.19-0.76-0.49-0.98c-0.3-0.22,0.03-0.49-0.46-0.22
		c-0.48,0.27-0.68,0.19-0.86,0.33C38.65,44.33,37.7,45.32,37.7,45.32"/>
	<path class="st20" d="M41.07,46.59c-0.02,0.11-0.04,0.96,0.15,1.4c0.19,0.44,0.39,1.27,1.38,1.27c0.99,0,1.72-0.51,1.95-1.03
		c0.23-0.52-0.14-1.58-0.23-2.1c-0.09-0.52-0.51-1.07-0.89-1.32c-0.38-0.25-0.56-0.54-0.93-0.58c-0.37-0.03-0.24-0.44-0.5,0.06
		s-0.48,0.52-0.56,0.74C41.35,45.24,41.07,46.59,41.07,46.59"/>
	<path class="st20" d="M44.59,45.87c0.04,0.11,0.48,0.84,0.87,1.11c0.39,0.27,1,0.87,1.84,0.34c0.84-0.53,1.19-1.34,1.11-1.9
		c-0.08-0.56-0.95-1.27-1.31-1.66c-0.35-0.39-1-0.64-1.45-0.65c-0.45-0.01-0.77-0.16-1.1,0.01c-0.33,0.17-0.43-0.24-0.4,0.31
		c0.03,0.56-0.13,0.69-0.08,0.92C44.12,44.58,44.59,45.87,44.59,45.87"/>
	<path class="st20" d="M47.2,43.4c0.09,0.07,0.85,0.46,1.33,0.48c0.48,0.02,1.31,0.21,1.74-0.68c0.43-0.89,0.3-1.77-0.07-2.2
		c-0.37-0.43-1.48-0.57-1.99-0.71c-0.51-0.15-1.19-0.02-1.58,0.22c-0.39,0.24-0.74,0.27-0.93,0.59c-0.19,0.32-0.49,0.02-0.17,0.48
		c0.32,0.45,0.26,0.65,0.42,0.82C46.12,42.56,47.2,43.4,47.2,43.4"/>
	<path class="st20" d="M48.1,39.91c0.11,0.01,0.96-0.06,1.38-0.3c0.42-0.23,1.22-0.52,1.12-1.5c-0.11-0.99-0.68-1.66-1.23-1.83
		c-0.54-0.17-1.56,0.3-2.07,0.45c-0.51,0.15-1.01,0.62-1.22,1.02c-0.2,0.4-0.48,0.62-0.47,0.99s-0.41,0.28,0.11,0.49
		c0.52,0.21,0.57,0.42,0.79,0.48C46.74,39.78,48.1,39.91,48.1,39.91"/>
	<path class="st20" d="M47.02,36.49c0.1-0.05,0.78-0.56,1.01-0.98c0.23-0.42,0.76-1.09,0.15-1.87s-1.46-1.04-2.01-0.9
		c-0.55,0.14-1.16,1.08-1.51,1.48c-0.35,0.39-0.53,1.06-0.49,1.51c0.04,0.45-0.08,0.78,0.12,1.09c0.21,0.31-0.2,0.46,0.35,0.36
		c0.55-0.09,0.7,0.06,0.92-0.02C45.79,37.1,47.02,36.49,47.02,36.49"/>
	<path class="st21" d="M43.22,36.11c0.04-0.08,0.18-0.72,0.11-1.08c-0.07-0.36-0.08-1.02-0.83-1.18c-0.75-0.16-1.38,0.1-1.63,0.46
		c-0.26,0.36-0.15,1.21-0.17,1.62c-0.02,0.41,0.21,0.89,0.46,1.14c0.25,0.25,0.34,0.5,0.61,0.58c0.27,0.08,0.11,0.37,0.39,0.04
		c0.28-0.33,0.44-0.31,0.54-0.46C42.79,37.08,43.22,36.11,43.22,36.11"/>
	<path class="st22" d="M40.87,36.11c-0.02-0.08-0.26-0.69-0.53-0.95c-0.27-0.26-0.65-0.79-1.36-0.49c-0.7,0.3-1.07,0.87-1.08,1.31
		c-0.01,0.44,0.57,1.08,0.79,1.43c0.22,0.34,0.68,0.61,1.02,0.67c0.34,0.06,0.56,0.22,0.84,0.13c0.27-0.09,0.3,0.24,0.34-0.19
		c0.04-0.43,0.18-0.51,0.18-0.69C41.07,37.15,40.87,36.11,40.87,36.11"/>
	<path class="st22" d="M38.95,37.45c-0.06-0.06-0.61-0.42-0.97-0.48c-0.36-0.06-0.99-0.27-1.39,0.38c-0.41,0.65-0.38,1.33-0.13,1.69
		c0.25,0.36,1.08,0.56,1.46,0.72c0.38,0.15,0.91,0.11,1.22-0.03c0.32-0.15,0.59-0.14,0.76-0.37c0.17-0.23,0.38,0.02,0.17-0.35
		c-0.21-0.38-0.14-0.52-0.25-0.67C39.71,38.19,38.95,37.45,38.95,37.45"/>
	<path class="st21" d="M38.15,39.65c-0.08-0.02-0.74,0-1.07,0.17c-0.33,0.16-0.96,0.34-0.93,1.1c0.04,0.76,0.45,1.3,0.86,1.46
		c0.41,0.16,1.21-0.16,1.61-0.25c0.4-0.09,0.81-0.43,0.98-0.73c0.17-0.3,0.4-0.45,0.41-0.74c0.01-0.29,0.33-0.2-0.06-0.39
		c-0.39-0.19-0.42-0.35-0.59-0.4C39.19,39.82,38.15,39.65,38.15,39.65"/>
	<path class="st22" d="M38.74,41.92c-0.08,0.04-0.61,0.43-0.79,0.75c-0.18,0.32-0.6,0.83-0.13,1.44c0.47,0.61,1.11,0.81,1.54,0.71
		c0.42-0.1,0.9-0.82,1.18-1.12c0.28-0.3,0.42-0.81,0.39-1.16c-0.03-0.35,0.07-0.6-0.09-0.84c-0.15-0.24,0.15-0.35-0.27-0.28
		c-0.42,0.07-0.54-0.05-0.71,0C39.69,41.46,38.74,41.92,38.74,41.92"/>
	<path class="st22" d="M40.53,43.43c-0.04,0.07-0.25,0.7-0.21,1.06c0.04,0.37-0.01,1.02,0.72,1.25c0.73,0.23,1.38,0.03,1.67-0.3
		c0.29-0.33,0.27-1.19,0.32-1.6c0.05-0.4-0.12-0.91-0.34-1.18c-0.22-0.27-0.29-0.53-0.55-0.64c-0.27-0.11-0.07-0.37-0.38-0.08
		c-0.31,0.3-0.47,0.27-0.58,0.41C41.05,42.51,40.53,43.43,40.53,43.43"/>
	<path class="st21" d="M42.86,43.66c0.01,0.09,0.19,0.72,0.43,1c0.24,0.28,0.57,0.84,1.3,0.62c0.73-0.23,1.15-0.76,1.2-1.2
		c0.05-0.44-0.46-1.13-0.65-1.49c-0.19-0.36-0.62-0.67-0.95-0.77c-0.34-0.09-0.54-0.27-0.82-0.21c-0.28,0.06-0.27-0.27-0.36,0.16
		c-0.08,0.42-0.23,0.49-0.24,0.67C42.76,42.6,42.86,43.66,42.86,43.66"/>
	<path class="st22" d="M44.9,42.5c0.06,0.07,0.57,0.48,0.93,0.57c0.36,0.09,0.95,0.36,1.42-0.24c0.47-0.61,0.5-1.28,0.29-1.67
		c-0.21-0.38-1.03-0.66-1.39-0.85c-0.36-0.19-0.89-0.2-1.22-0.08c-0.33,0.12-0.6,0.09-0.79,0.3s-0.38-0.06-0.21,0.33
		c0.17,0.39,0.09,0.53,0.19,0.69C44.21,41.7,44.9,42.5,44.9,42.5"/>
	<path class="st21" d="M45.91,40.39c0.08,0.02,0.74,0.07,1.08-0.06c0.35-0.13,0.99-0.25,1.03-1.01c0.04-0.76-0.32-1.34-0.71-1.54
		c-0.39-0.19-1.22,0.04-1.63,0.09c-0.4,0.05-0.85,0.35-1.05,0.63c-0.2,0.28-0.44,0.41-0.48,0.7c-0.04,0.29-0.34,0.17,0.02,0.39
		c0.37,0.22,0.38,0.39,0.55,0.46C44.89,40.12,45.91,40.39,45.91,40.39"/>
	<path class="st22" d="M45.53,38.08c0.08-0.03,0.64-0.37,0.85-0.67s0.67-0.77,0.27-1.42c-0.41-0.65-1.03-0.91-1.46-0.85
		c-0.43,0.07-0.98,0.74-1.28,1.01c-0.3,0.27-0.49,0.77-0.5,1.12c0,0.35-0.13,0.59,0.01,0.84c0.13,0.26-0.19,0.33,0.24,0.31
		c0.43-0.03,0.53,0.1,0.71,0.06C44.54,38.45,45.53,38.08,45.53,38.08"/>
	<path class="st23" d="M42.12,44.05c-0.35,0.17-0.78,0-0.78,0s0.17-0.65-0.32-0.38c-0.49,0.27-1.15,0.46-1.15,0.46l-1.06-0.46
		l-0.55-0.54l-0.83-0.29c0,0,0.26-0.33,0.55-0.52c0.29-0.19,1.06-0.4,0.35-0.5c-0.72-0.1-1.41-0.4-1.41-0.4v-0.56h0.69l-1.18-0.49
		c0,0-1.35-0.4-1.01-0.63c0.35-0.23,1.24,0,1.24,0l1.7,0.46c0,0-2.82-1.3-2.99-1.61c-0.17-0.31-0.17-0.83-0.17-0.83
		s-0.03-0.18,0.69,0.23c0.72,0.41,0.86,0.46,1.24,0.61c0.37,0.15,0.55,0.32,0.55,0.32l0.52-0.14l0.47,0.17c0,0,0.65-0.07,0-0.95
		c-0.65-0.89-1.45-1.68-1.34-1.81c0.12-0.14,0.61-0.14,0.61-0.14l1.12,1.47l0.35,0.38l0.2-0.63l0.09-0.87h1.01l1.06-0.06l0.37,0.2
		l0.17-0.78c0,0,0.03-1.52,0.14-1.6c0.11-0.09,0.4,0.71,0.4,0.71l0.46,1.68c0,0-0.58,1.36,0,0.8c0.58-0.57,0.75-1.58,0.75-1.58
		s0.23-0.88,0.52-0.9c0.29-0.02,0.66,0.28,0.66,0.28l-0.58,1.77l-0.23,0.98l0.11,0.52l0.69-0.41l0.75-1.64c0,0,1.06-1.09,1.18-0.95
		c0.11,0.14-0.49,1.47-0.49,1.47l-0.84,1.12c0,0,0.81,0.26,0.63,0.61c-0.17,0.35-0.95,0.54-0.95,0.54l-0.35,0.44
		c0,0,0.32,0.38,1.32,0c1.01-0.37,1.52-0.62,1.64-0.44c0.11,0.18-0.55,0.73-1.32,1.07c-0.78,0.35-1.41,0.66-1.41,0.66l-0.81,0.78
		l-0.34,0.68c0,0,0.92,0.15,0.92,0.81c0,0.67,0.37,0.76-0.17,1c-0.55,0.24-1.04-0.19-1.04-0.19L43.5,43.3h-0.66l-0.34,0.46
		L42.12,44.05z"/>
	<path class="st24" d="M40.11,40.14c-0.06,0.11-0.14,0.69,0.52,0.84c0.66,0.14,1.27,0,1.27,0l1.06-0.27l0.6-0.43l0.46-1.12
		c0,0,0.23-0.26-0.2-0.58c-0.43-0.31-1.3-0.46-1.3-0.46s-0.3-0.49-0.86-0.26c-0.55,0.23-0.78,0.72-0.78,0.72s-0.66,0.24-0.78,0.18
		c-0.12-0.06-0.26,0.14-0.26,0.14S40.31,39.73,40.11,40.14"/>
	<path class="st9" d="M51.53,75.63c0,6.74-5.47,12.21-12.21,12.21s-12.21-5.47-12.21-12.21c0-6.74,5.47-12.21,12.21-12.21
		S51.53,68.89,51.53,75.63"/>
	<path class="st10" d="M41.2,64.42c0.06-0.12,0.29-1.13,0.18-1.7c-0.11-0.57-0.13-1.61-1.31-1.86c-1.18-0.25-2.17,0.16-2.57,0.72
		c-0.4,0.56-0.24,1.91-0.27,2.55c-0.02,0.64,0.33,1.41,0.72,1.79c0.39,0.39,0.53,0.79,0.96,0.92c0.43,0.13,0.17,0.58,0.61,0.06
		c0.44-0.51,0.7-0.49,0.85-0.73C40.52,65.94,41.2,64.42,41.2,64.42"/>
	<path class="st11" d="M37.13,64.34c0.01-0.14-0.13-1.16-0.44-1.65c-0.31-0.49-0.7-1.45-1.89-1.26c-1.19,0.19-1.97,0.93-2.14,1.6
		c-0.17,0.67,0.46,1.87,0.67,2.48c0.21,0.61,0.81,1.2,1.31,1.42c0.5,0.22,0.78,0.55,1.23,0.51c0.45-0.03,0.37,0.48,0.59-0.16
		c0.23-0.64,0.47-0.71,0.53-0.99C37.04,66.01,37.13,64.34,37.13,64.34"/>
	<path class="st10" d="M33.3,65.74c-0.04-0.13-0.54-1.04-1.01-1.38c-0.47-0.35-1.17-1.1-2.22-0.5c-1.05,0.6-1.5,1.57-1.43,2.26
		c0.08,0.69,1.1,1.58,1.51,2.08c0.41,0.49,1.18,0.82,1.73,0.85c0.55,0.03,0.92,0.23,1.33,0.04c0.41-0.19,0.51,0.31,0.5-0.36
		c-0.02-0.68,0.19-0.83,0.14-1.11C33.81,67.32,33.3,65.74,33.3,65.74"/>
	<path class="st10" d="M30.22,68.41c-0.08-0.11-0.88-0.77-1.44-0.93c-0.56-0.16-1.49-0.61-2.25,0.33c-0.76,0.94-0.84,2.01-0.52,2.62
		c0.32,0.61,1.59,1.08,2.16,1.4c0.56,0.31,1.4,0.34,1.92,0.17c0.52-0.17,0.95-0.11,1.26-0.44c0.31-0.33,0.59,0.11,0.34-0.52
		c-0.26-0.63-0.12-0.85-0.27-1.09C31.27,69.7,30.22,68.41,30.22,68.41"/>
	<path class="st11" d="M28.31,72.01c-0.12-0.07-1.1-0.41-1.68-0.35c-0.58,0.05-1.61-0.03-1.98,1.11c-0.37,1.15-0.06,2.17,0.45,2.63
		c0.52,0.46,1.88,0.44,2.51,0.53c0.64,0.09,1.43-0.18,1.86-0.53c0.43-0.35,0.84-0.45,1.02-0.86c0.18-0.42,0.59-0.11,0.13-0.6
		c-0.47-0.49-0.42-0.74-0.64-0.92C29.75,72.84,28.31,72.01,28.31,72.01"/>
	<path class="st10" d="M27.81,76.05c-0.13-0.02-1.17,0.01-1.69,0.27c-0.52,0.26-1.52,0.55-1.45,1.75c0.06,1.2,0.72,2.05,1.37,2.3
		c0.65,0.24,1.91-0.26,2.54-0.41c0.63-0.14,1.27-0.68,1.55-1.16c0.27-0.48,0.63-0.72,0.64-1.17c0.01-0.45,0.51-0.32-0.1-0.61
		c-0.61-0.29-0.66-0.54-0.93-0.63C29.46,76.31,27.81,76.05,27.81,76.05"/>
	<path class="st11" d="M28.8,80c-0.13,0.03-1.09,0.43-1.48,0.86c-0.4,0.43-1.22,1.06-0.73,2.16c0.49,1.1,1.41,1.66,2.1,1.65
		c0.69,0,1.69-0.93,2.22-1.29c0.53-0.36,0.94-1.09,1.03-1.64c0.08-0.54,0.33-0.89,0.18-1.32c-0.15-0.43,0.37-0.48-0.31-0.53
		c-0.67-0.05-0.81-0.27-1.09-0.26C30.43,79.65,28.8,80,28.8,80"/>
	<path class="st10" d="M31.14,83.34c-0.11,0.07-0.86,0.79-1.07,1.33c-0.22,0.54-0.76,1.42,0.09,2.27c0.85,0.85,1.91,1.04,2.55,0.79
		c0.64-0.25,1.24-1.47,1.61-2c0.37-0.53,0.49-1.36,0.37-1.89c-0.12-0.54-0.02-0.95-0.31-1.3c-0.29-0.34,0.17-0.58-0.48-0.39
		c-0.65,0.19-0.85,0.04-1.11,0.15C32.54,82.43,31.14,83.34,31.14,83.34"/>
	<path class="st11" d="M34.52,85.61c-0.08,0.11-0.52,1.05-0.52,1.63c-0.01,0.58-0.2,1.6,0.9,2.09c1.1,0.49,2.16,0.29,2.67-0.18
		c0.51-0.47,0.63-1.82,0.79-2.45c0.16-0.62-0.03-1.44-0.33-1.9c-0.3-0.46-0.36-0.88-0.75-1.1c-0.4-0.22-0.05-0.6-0.59-0.19
		c-0.54,0.41-0.78,0.34-0.98,0.54C35.5,84.26,34.52,85.61,34.52,85.61"/>
	<path class="st10" d="M38.5,86.52c-0.04,0.13-0.11,1.16,0.09,1.71c0.2,0.55,0.39,1.56,1.59,1.63c1.2,0.06,2.12-0.5,2.43-1.12
		c0.31-0.62-0.06-1.93-0.14-2.56c-0.08-0.64-0.55-1.33-0.99-1.66c-0.45-0.32-0.65-0.7-1.1-0.76c-0.45-0.06-0.26-0.54-0.62,0.03
		c-0.35,0.58-0.61,0.6-0.72,0.86C38.92,84.91,38.5,86.52,38.5,86.52"/>
	<path class="st11" d="M42.53,85.95c0.01,0.13,0.32,1.13,0.7,1.56c0.38,0.44,0.92,1.32,2.07,0.95c1.15-0.37,1.8-1.23,1.86-1.92
		c0.07-0.69-0.75-1.77-1.05-2.34c-0.3-0.57-0.99-1.05-1.52-1.19c-0.53-0.14-0.85-0.42-1.3-0.31c-0.44,0.1-0.44-0.41-0.56,0.25
		c-0.12,0.67-0.36,0.78-0.37,1.06C42.35,84.29,42.53,85.95,42.53,85.95"/>
	<path class="st10" d="M46.09,83.97c0.06,0.12,0.7,0.94,1.22,1.21c0.52,0.27,1.34,0.9,2.27,0.14c0.94-0.76,1.23-1.79,1.05-2.46
		c-0.18-0.67-1.34-1.39-1.82-1.81c-0.49-0.42-1.3-0.63-1.85-0.57c-0.55,0.06-0.95-0.08-1.32,0.17c-0.37,0.25-0.56-0.23-0.43,0.44
		c0.12,0.67-0.05,0.85,0.04,1.12C45.33,82.49,46.09,83.97,46.09,83.97"/>
	<path class="st11" d="M48.7,80.84c0.1,0.09,0.99,0.62,1.57,0.69c0.58,0.07,1.57,0.36,2.17-0.68c0.6-1.05,0.51-2.11,0.1-2.67
		c-0.41-0.55-1.75-0.82-2.35-1.04c-0.6-0.22-1.44-0.12-1.93,0.13c-0.49,0.25-0.91,0.26-1.17,0.64s-0.6-0.01-0.25,0.56
		c0.35,0.58,0.26,0.82,0.44,1.04C47.46,79.73,48.7,80.84,48.7,80.84"/>
	<path class="st10" d="M50.02,76.99c0.13,0.05,1.15,0.23,1.71,0.08c0.56-0.14,1.6-0.22,1.78-1.41c0.19-1.19-0.28-2.16-0.86-2.53
		c-0.58-0.37-1.92-0.14-2.57-0.12c-0.64,0.01-1.38,0.4-1.75,0.82c-0.37,0.41-0.76,0.57-0.87,1.01c-0.11,0.44-0.57,0.2-0.03,0.62
		c0.54,0.41,0.53,0.67,0.78,0.81C48.46,76.4,50.02,76.99,50.02,76.99"/>
	<path class="st11" d="M49.86,72.91c0.14,0,1.15-0.2,1.63-0.54c0.48-0.34,1.41-0.78,1.16-1.96c-0.25-1.18-1.04-1.91-1.71-2.05
		c-0.68-0.14-1.84,0.56-2.44,0.8c-0.6,0.24-1.15,0.87-1.34,1.39c-0.19,0.51-0.5,0.81-0.45,1.26c0.06,0.45-0.46,0.39,0.19,0.59
		c0.65,0.19,0.74,0.43,1.02,0.48C48.2,72.92,49.86,72.91,49.86,72.91"/>
	<path class="st10" d="M48.26,69.17c0.13-0.05,1-0.6,1.33-1.08c0.32-0.48,1.04-1.23,0.38-2.24c-0.66-1.01-1.65-1.41-2.33-1.3
		c-0.68,0.11-1.52,1.19-1.99,1.63s-0.76,1.23-0.75,1.78c0,0.55-0.18,0.93,0.03,1.33c0.21,0.4-0.28,0.53,0.39,0.48
		c0.67-0.05,0.84,0.14,1.12,0.08C46.71,69.77,48.26,69.17,48.26,69.17"/>
	<path class="st11" d="M45.42,66.25c0.1-0.09,0.72-0.92,0.85-1.49c0.13-0.57,0.53-1.52-0.45-2.23c-0.98-0.71-2.05-0.73-2.64-0.38
		c-0.59,0.35-0.99,1.65-1.27,2.23c-0.28,0.58-0.27,1.42-0.07,1.93c0.2,0.51,0.17,0.94,0.51,1.23c0.34,0.3-0.08,0.6,0.53,0.3
		c0.61-0.29,0.84-0.17,1.07-0.33C44.19,67.37,45.42,66.25,45.42,66.25"/>
	<path class="st12" d="M38.53,67.03c0.02-0.11,0-0.96-0.21-1.4c-0.21-0.43-0.44-1.25-1.43-1.21c-0.99,0.04-1.7,0.58-1.9,1.11
		c-0.21,0.53,0.2,1.58,0.31,2.09c0.11,0.52,0.55,1.05,0.94,1.28c0.39,0.23,0.59,0.52,0.96,0.54c0.37,0.02,0.26,0.43,0.5-0.08
		c0.25-0.5,0.46-0.54,0.53-0.76C38.31,68.38,38.53,67.03,38.53,67.03"/>
	<path class="st13" d="M35.12,67.94c-0.03-0.11-0.38-0.89-0.74-1.2c-0.36-0.32-0.89-0.98-1.79-0.55c-0.9,0.43-1.34,1.2-1.32,1.77
		c0.02,0.57,0.8,1.37,1.11,1.8c0.31,0.43,0.92,0.75,1.37,0.81c0.45,0.06,0.74,0.25,1.09,0.12c0.35-0.13,0.4,0.29,0.43-0.27
		c0.03-0.56,0.21-0.67,0.19-0.91C35.44,69.27,35.12,67.94,35.12,67.94"/>
	<path class="st14" d="M32.34,70.12c-0.07-0.09-0.7-0.66-1.15-0.82c-0.46-0.15-1.21-0.55-1.87,0.19c-0.66,0.75-0.76,1.62-0.52,2.14
		c0.24,0.52,1.28,0.95,1.73,1.22c0.45,0.28,1.14,0.33,1.58,0.21c0.44-0.12,0.78-0.06,1.05-0.32c0.27-0.26,0.48,0.11,0.29-0.42
		c-0.19-0.52-0.07-0.7-0.18-0.91C33.16,71.22,32.34,70.12,32.34,70.12"/>
	<path class="st15" d="M30.64,73.21c-0.1-0.06-0.9-0.34-1.38-0.3s-1.33-0.03-1.64,0.91c-0.31,0.94-0.06,1.79,0.36,2.17
		c0.42,0.38,1.55,0.37,2.07,0.44c0.53,0.08,1.18-0.14,1.53-0.43c0.35-0.29,0.7-0.36,0.84-0.71c0.15-0.34,0.49-0.09,0.11-0.5
		c-0.38-0.41-0.34-0.62-0.52-0.76C31.82,73.9,30.64,73.21,30.64,73.21"/>
	<path class="st14" d="M30.28,76.72c-0.11-0.01-0.96,0.04-1.39,0.27c-0.42,0.23-1.24,0.49-1.15,1.48c0.08,0.99,0.65,1.67,1.19,1.86
		c0.54,0.18,1.57-0.27,2.08-0.4c0.51-0.13,1.03-0.59,1.24-1c0.21-0.4,0.5-0.61,0.5-0.98c0-0.37,0.42-0.27-0.1-0.5
		c-0.51-0.23-0.56-0.43-0.78-0.5C31.65,76.89,30.28,76.72,30.28,76.72"/>
	<path class="st13" d="M31.34,80.09c-0.11,0.03-0.87,0.42-1.17,0.79c-0.3,0.37-0.94,0.94-0.48,1.81c0.47,0.88,1.25,1.29,1.82,1.24
		c0.57-0.04,1.34-0.86,1.75-1.19c0.42-0.33,0.71-0.95,0.75-1.4c0.04-0.45,0.22-0.75,0.07-1.1c-0.15-0.34,0.27-0.42-0.29-0.42
		c-0.56-0.01-0.68-0.18-0.91-0.15C32.66,79.71,31.34,80.09,31.34,80.09"/>
	<path class="st16" d="M33.63,82.78c-0.09,0.07-0.64,0.72-0.77,1.19c-0.13,0.46-0.5,1.23,0.27,1.86c0.77,0.63,1.66,0.69,2.16,0.43
		c0.51-0.26,0.89-1.31,1.15-1.78c0.26-0.46,0.28-1.16,0.14-1.59c-0.14-0.43-0.1-0.78-0.36-1.04c-0.27-0.26,0.09-0.49-0.43-0.28
		c-0.52,0.21-0.7,0.1-0.9,0.22C34.69,81.91,33.63,82.78,33.63,82.78"/>
	<path class="st13" d="M36.79,84.35c-0.05,0.1-0.3,0.91-0.24,1.39c0.06,0.48,0.02,1.33,0.98,1.6c0.96,0.27,1.79-0.01,2.16-0.45
		c0.36-0.44,0.3-1.56,0.36-2.09c0.06-0.53-0.19-1.17-0.49-1.52c-0.3-0.34-0.39-0.68-0.74-0.81c-0.35-0.13-0.11-0.48-0.5-0.08
		c-0.39,0.4-0.6,0.37-0.74,0.55C37.43,83.13,36.79,84.35,36.79,84.35"/>
	<path class="st17" d="M40.31,84.56c-0.01,0.11,0.08,0.96,0.33,1.37c0.24,0.41,0.54,1.21,1.53,1.09c0.99-0.13,1.64-0.72,1.8-1.26
		c0.16-0.55-0.33-1.55-0.49-2.06c-0.16-0.51-0.64-1.01-1.05-1.2c-0.41-0.2-0.63-0.47-1-0.45c-0.37,0.02-0.29-0.4-0.49,0.12
		c-0.2,0.52-0.41,0.57-0.46,0.8C40.43,83.19,40.31,84.56,40.31,84.56"/>
	<path class="st13" d="M43.64,83.36c0.04,0.11,0.45,0.85,0.84,1.14c0.39,0.29,0.97,0.9,1.83,0.4c0.86-0.5,1.23-1.3,1.16-1.87
		c-0.07-0.56-0.92-1.3-1.26-1.7c-0.34-0.4-0.98-0.67-1.43-0.69c-0.45-0.02-0.76-0.19-1.1-0.02c-0.34,0.16-0.43-0.26-0.41,0.3
		c0.02,0.56-0.15,0.69-0.11,0.92C43.2,82.06,43.64,83.36,43.64,83.36"/>
	<path class="st13" d="M46.22,80.96c0.07,0.08,0.75,0.61,1.22,0.72c0.47,0.11,1.25,0.45,1.84-0.35c0.59-0.8,0.62-1.68,0.34-2.18
		c-0.28-0.49-1.35-0.84-1.83-1.07c-0.47-0.24-1.17-0.23-1.59-0.07c-0.42,0.16-0.77,0.13-1.02,0.41c-0.25,0.28-0.49-0.07-0.26,0.44
		c0.23,0.51,0.13,0.69,0.26,0.89C45.31,79.93,46.22,80.96,46.22,80.96"/>
	<path class="st18" d="M47.66,77.73c0.1,0.05,0.93,0.26,1.4,0.18c0.47-0.08,1.33-0.08,1.56-1.04c0.23-0.97-0.09-1.79-0.54-2.13
		c-0.45-0.34-1.57-0.24-2.1-0.27c-0.53-0.03-1.17,0.24-1.49,0.56c-0.33,0.31-0.66,0.42-0.78,0.78c-0.12,0.35-0.48,0.13-0.06,0.5
		c0.42,0.37,0.39,0.58,0.59,0.72S47.66,77.73,47.66,77.73"/>
	<path class="st19" d="M47.72,74.2c0.11,0,0.96-0.12,1.36-0.38c0.4-0.26,1.19-0.59,1.02-1.57c-0.17-0.98-0.79-1.61-1.34-1.75
		c-0.55-0.14-1.54,0.4-2.04,0.58c-0.5,0.18-0.98,0.68-1.16,1.1c-0.18,0.42-0.44,0.65-0.41,1.02c0.03,0.37-0.39,0.31,0.14,0.49
		c0.53,0.18,0.59,0.38,0.82,0.43S47.72,74.2,47.72,74.2"/>
	<path class="st13" d="M46.38,70.93c0.1-0.04,0.83-0.49,1.1-0.89c0.27-0.4,0.86-1.01,0.32-1.85c-0.54-0.84-1.36-1.17-1.92-1.08
		c-0.56,0.09-1.26,0.97-1.65,1.33c-0.39,0.36-0.63,1.01-0.63,1.46c0,0.45-0.15,0.77,0.02,1.1c0.18,0.33-0.24,0.44,0.32,0.4
		c0.56-0.04,0.69,0.12,0.92,0.07C45.1,71.42,46.38,70.93,46.38,70.93"/>
	<path class="st13" d="M43.88,68.45c0.08-0.08,0.57-0.78,0.66-1.25c0.09-0.47,0.4-1.27-0.43-1.83c-0.82-0.56-1.71-0.55-2.19-0.25
		c-0.48,0.3-0.78,1.39-1,1.87c-0.22,0.48-0.18,1.18-0.01,1.59c0.18,0.42,0.16,0.77,0.45,1c0.29,0.23-0.05,0.49,0.45,0.24
		c0.5-0.26,0.69-0.16,0.88-0.3C42.89,69.4,43.88,68.45,43.88,68.45"/>
	<path class="st13" d="M40.59,67.15c0.04-0.1,0.22-0.94,0.12-1.41c-0.1-0.47-0.13-1.32-1.11-1.51c-0.98-0.19-1.79,0.17-2.11,0.63
		c-0.32,0.47-0.17,1.58-0.18,2.11c-0.01,0.53,0.29,1.15,0.62,1.47c0.33,0.31,0.45,0.64,0.81,0.75c0.36,0.1,0.15,0.47,0.51,0.04
		c0.36-0.43,0.57-0.42,0.69-0.62C40.06,68.41,40.59,67.15,40.59,67.15"/>
	<path class="st20" d="M40.57,70.36c0.04-0.09,0.21-0.82,0.13-1.23c-0.08-0.41-0.1-1.16-0.95-1.34c-0.85-0.18-1.57,0.12-1.86,0.52
		c-0.29,0.41-0.18,1.38-0.19,1.85c-0.02,0.46,0.24,1.01,0.52,1.29c0.28,0.28,0.38,0.57,0.7,0.67c0.31,0.1,0.12,0.42,0.44,0.05
		c0.32-0.37,0.5-0.36,0.61-0.53C40.09,71.46,40.57,70.36,40.57,70.36"/>
	<path class="st20" d="M37.42,70.32c-0.01-0.1-0.26-0.8-0.54-1.11c-0.29-0.31-0.7-0.93-1.52-0.64c-0.82,0.3-1.27,0.93-1.3,1.43
		c-0.03,0.5,0.58,1.26,0.82,1.67c0.23,0.4,0.74,0.74,1.13,0.82c0.39,0.09,0.63,0.28,0.94,0.2c0.32-0.09,0.33,0.29,0.4-0.2
		c0.07-0.48,0.24-0.57,0.24-0.77C37.59,71.52,37.42,70.32,37.42,70.32"/>
	<path class="st20" d="M34.73,71.97c-0.06-0.08-0.64-0.55-1.05-0.65c-0.41-0.11-1.09-0.42-1.62,0.26c-0.54,0.69-0.58,1.46-0.34,1.9
		c0.24,0.44,1.16,0.76,1.57,0.98c0.41,0.22,1.02,0.23,1.39,0.1c0.38-0.13,0.68-0.09,0.9-0.34c0.22-0.24,0.43,0.07,0.23-0.38
		c-0.19-0.45-0.1-0.61-0.21-0.78C35.5,72.89,34.73,71.97,34.73,71.97"/>
	<path class="st20" d="M33.31,74.78c-0.09-0.03-0.84-0.12-1.24,0c-0.4,0.13-1.14,0.22-1.24,1.09c-0.09,0.87,0.28,1.54,0.72,1.79
		c0.43,0.25,1.39,0.03,1.86,0c0.46-0.03,0.98-0.34,1.23-0.65c0.25-0.31,0.53-0.44,0.59-0.76c0.06-0.32,0.4-0.17,0-0.44
		c-0.4-0.28-0.41-0.46-0.59-0.56C34.46,75.15,33.31,74.78,33.31,74.78"/>
	<path class="st20" d="M33.61,77.92c-0.1,0.02-0.77,0.34-1.05,0.66c-0.27,0.32-0.85,0.79-0.47,1.58c0.38,0.78,1.06,1.16,1.56,1.14
		c0.5-0.02,1.19-0.71,1.57-0.99c0.38-0.27,0.65-0.81,0.7-1.21c0.05-0.4,0.21-0.65,0.09-0.96c-0.12-0.3,0.25-0.36-0.24-0.38
		c-0.49-0.02-0.59-0.18-0.8-0.16C34.78,77.63,33.61,77.92,33.61,77.92"/>
	<path class="st20" d="M35.53,80.43c-0.07,0.07-0.48,0.7-0.54,1.11c-0.06,0.42-0.3,1.12,0.44,1.58c0.74,0.46,1.51,0.42,1.92,0.14
		c0.41-0.28,0.63-1.24,0.81-1.67c0.17-0.43,0.12-1.03-0.05-1.39c-0.17-0.36-0.17-0.67-0.43-0.86c-0.26-0.2,0.02-0.44-0.4-0.19
		c-0.43,0.24-0.59,0.16-0.76,0.29C36.36,79.56,35.53,80.43,35.53,80.43"/>
	<path class="st20" d="M38.48,81.54c-0.02,0.1-0.03,0.84,0.13,1.23c0.17,0.39,0.34,1.11,1.21,1.11c0.87,0,1.51-0.44,1.71-0.9
		c0.2-0.46-0.12-1.39-0.2-1.85c-0.08-0.46-0.44-0.94-0.78-1.16c-0.33-0.21-0.49-0.48-0.82-0.5c-0.32-0.03-0.21-0.38-0.44,0.05
		c-0.23,0.43-0.42,0.45-0.49,0.65C38.72,80.36,38.48,81.54,38.48,81.54"/>
	<path class="st20" d="M41.57,80.91c0.03,0.09,0.42,0.73,0.77,0.97c0.34,0.24,0.88,0.77,1.61,0.3c0.74-0.46,1.04-1.18,0.97-1.67
		c-0.07-0.49-0.84-1.11-1.15-1.46c-0.31-0.34-0.88-0.56-1.27-0.57c-0.4-0.01-0.67-0.14-0.96,0.01c-0.29,0.15-0.38-0.21-0.35,0.27
		c0.03,0.49-0.11,0.61-0.07,0.81C41.15,79.78,41.57,80.91,41.57,80.91"/>
	<path class="st20" d="M43.86,78.74c0.08,0.06,0.74,0.4,1.16,0.42c0.42,0.02,1.15,0.18,1.53-0.6c0.38-0.78,0.26-1.55-0.06-1.93
		c-0.32-0.38-1.3-0.5-1.75-0.63c-0.45-0.13-1.04-0.01-1.38,0.19c-0.34,0.21-0.65,0.24-0.81,0.52c-0.17,0.28-0.43,0.02-0.15,0.42
		c0.28,0.4,0.23,0.57,0.37,0.72C42.91,78,43.86,78.74,43.86,78.74"/>
	<path class="st20" d="M44.65,75.69c0.1,0.01,0.84-0.06,1.21-0.26c0.37-0.21,1.07-0.46,0.98-1.32c-0.09-0.87-0.6-1.45-1.08-1.6
		c-0.48-0.15-1.37,0.27-1.81,0.39c-0.45,0.13-0.89,0.54-1.07,0.9c-0.18,0.36-0.42,0.54-0.42,0.87c0.01,0.33-0.36,0.25,0.1,0.43
		c0.45,0.19,0.5,0.37,0.69,0.42C43.45,75.57,44.65,75.69,44.65,75.69"/>
	<path class="st20" d="M43.7,72.68c0.09-0.04,0.68-0.49,0.89-0.86c0.2-0.37,0.67-0.95,0.13-1.64c-0.54-0.68-1.28-0.91-1.76-0.79
		c-0.48,0.13-1.02,0.95-1.33,1.3c-0.31,0.35-0.47,0.93-0.43,1.33c0.04,0.4-0.07,0.68,0.11,0.96c0.18,0.27-0.17,0.4,0.31,0.32
		c0.48-0.08,0.61,0.05,0.81-0.01C42.62,73.21,43.7,72.68,43.7,72.68"/>
	<path class="st21" d="M40.36,72.35c0.03-0.07,0.16-0.63,0.1-0.95c-0.06-0.32-0.07-0.89-0.73-1.03c-0.65-0.14-1.21,0.09-1.43,0.4
		c-0.22,0.31-0.13,1.06-0.15,1.42c-0.01,0.36,0.18,0.78,0.4,1c0.22,0.22,0.3,0.44,0.54,0.51c0.24,0.07,0.1,0.32,0.34,0.04
		c0.25-0.29,0.39-0.27,0.47-0.41C39.99,73.2,40.36,72.35,40.36,72.35"/>
	<path class="st22" d="M38.31,72.35c-0.01-0.07-0.23-0.61-0.46-0.83c-0.23-0.22-0.57-0.69-1.19-0.43c-0.62,0.26-0.94,0.76-0.94,1.15
		c-0.01,0.38,0.5,0.95,0.69,1.25c0.19,0.3,0.6,0.54,0.9,0.59c0.3,0.05,0.49,0.19,0.73,0.11c0.24-0.08,0.26,0.21,0.3-0.17
		c0.04-0.38,0.16-0.45,0.16-0.61S38.31,72.35,38.31,72.35"/>
	<path class="st22" d="M36.62,73.53c-0.05-0.05-0.53-0.37-0.86-0.42s-0.86-0.24-1.22,0.33c-0.36,0.57-0.33,1.16-0.12,1.48
		c0.22,0.32,0.95,0.49,1.28,0.63c0.33,0.14,0.8,0.1,1.07-0.03c0.28-0.13,0.51-0.13,0.67-0.33c0.15-0.2,0.33,0.02,0.15-0.31
		c-0.18-0.33-0.12-0.46-0.22-0.58C37.29,74.17,36.62,73.53,36.62,73.53"/>
	<path class="st21" d="M35.91,75.45c-0.07-0.01-0.65,0-0.94,0.15c-0.29,0.14-0.84,0.3-0.81,0.97c0.03,0.67,0.39,1.14,0.75,1.28
		c0.36,0.14,1.06-0.14,1.41-0.22c0.35-0.08,0.71-0.38,0.86-0.64c0.15-0.26,0.35-0.4,0.36-0.65c0.01-0.25,0.29-0.17-0.05-0.34
		c-0.34-0.16-0.36-0.3-0.51-0.35C36.83,75.6,35.91,75.45,35.91,75.45"/>
	<path class="st22" d="M36.44,77.44c-0.07,0.03-0.53,0.38-0.69,0.66c-0.16,0.28-0.52,0.73-0.11,1.26c0.41,0.53,0.98,0.71,1.35,0.62
		c0.37-0.09,0.79-0.72,1.03-0.99c0.24-0.26,0.37-0.71,0.34-1.02c-0.02-0.3,0.06-0.53-0.08-0.74c-0.14-0.21,0.13-0.31-0.24-0.25
		c-0.37,0.06-0.47-0.04-0.62,0C37.27,77.04,36.44,77.44,36.44,77.44"/>
	<path class="st22" d="M38,78.77c-0.04,0.06-0.22,0.61-0.19,0.93c0.03,0.32-0.01,0.9,0.63,1.1c0.64,0.2,1.21,0.03,1.46-0.26
		c0.25-0.29,0.24-1.04,0.28-1.4c0.05-0.36-0.11-0.8-0.3-1.03c-0.19-0.24-0.25-0.47-0.48-0.56c-0.23-0.1-0.06-0.33-0.34-0.07
		c-0.27,0.26-0.41,0.24-0.51,0.36C38.46,77.96,38,78.77,38,78.77"/>
	<path class="st21" d="M40.05,78.97c0.01,0.08,0.17,0.63,0.38,0.87c0.21,0.25,0.5,0.74,1.14,0.54c0.64-0.2,1.01-0.67,1.05-1.05
		c0.04-0.38-0.41-0.99-0.57-1.31c-0.16-0.32-0.54-0.59-0.84-0.67c-0.29-0.08-0.47-0.24-0.72-0.18c-0.25,0.05-0.24-0.23-0.31,0.14
		s-0.2,0.43-0.21,0.59S40.05,78.97,40.05,78.97"/>
	<path class="st22" d="M41.84,77.96c0.05,0.06,0.5,0.42,0.81,0.5c0.31,0.08,0.84,0.32,1.25-0.21c0.41-0.53,0.44-1.13,0.26-1.46
		c-0.18-0.34-0.9-0.58-1.22-0.75c-0.32-0.17-0.78-0.17-1.07-0.07c-0.29,0.1-0.52,0.08-0.69,0.26c-0.17,0.19-0.33-0.05-0.18,0.29
		c0.15,0.35,0.08,0.47,0.16,0.6C41.24,77.25,41.84,77.96,41.84,77.96"/>
	<path class="st21" d="M42.73,76.1c0.07,0.02,0.65,0.06,0.95-0.06c0.3-0.11,0.87-0.22,0.9-0.89c0.03-0.67-0.28-1.18-0.63-1.35
		c-0.34-0.17-1.07,0.04-1.43,0.08c-0.36,0.04-0.74,0.3-0.92,0.55c-0.18,0.25-0.39,0.36-0.42,0.61c-0.03,0.25-0.3,0.15,0.02,0.34
		c0.32,0.2,0.33,0.34,0.48,0.4C41.83,75.87,42.73,76.1,42.73,76.1"/>
	<path class="st22" d="M42.39,74.08c0.07-0.02,0.56-0.32,0.75-0.59c0.18-0.27,0.59-0.68,0.23-1.24c-0.36-0.57-0.9-0.8-1.28-0.75
		c-0.38,0.06-0.86,0.64-1.12,0.88c-0.27,0.24-0.43,0.68-0.44,0.98c0,0.31-0.11,0.52,0,0.74c0.12,0.22-0.16,0.29,0.21,0.27
		c0.38-0.02,0.47,0.09,0.62,0.06C41.52,74.4,42.39,74.08,42.39,74.08"/>
	<path class="st23" d="M39.4,79.31c-0.3,0.15-0.68,0-0.68,0s0.15-0.57-0.28-0.33c-0.43,0.23-1.01,0.4-1.01,0.4l-0.93-0.4l-0.48-0.48
		l-0.73-0.26c0,0,0.23-0.29,0.48-0.46c0.25-0.17,0.93-0.35,0.3-0.44C35.44,77.27,34.83,77,34.83,77v-0.49h0.61l-1.03-0.43
		c0,0-1.19-0.35-0.88-0.55c0.3-0.21,1.08,0,1.08,0l1.49,0.4c0,0-2.47-1.14-2.62-1.41c-0.15-0.28-0.15-0.73-0.15-0.73
		s-0.03-0.16,0.61,0.2c0.63,0.36,0.76,0.4,1.08,0.53c0.33,0.13,0.48,0.28,0.48,0.28l0.45-0.12l0.42,0.15c0,0,0.57-0.06,0-0.84
		c-0.57-0.78-1.27-1.47-1.17-1.59c0.1-0.12,0.53-0.12,0.53-0.12l0.99,1.29l0.3,0.33l0.18-0.55l0.08-0.76h0.88l0.93-0.05l0.33,0.18
		l0.15-0.69c0,0,0.02-1.33,0.13-1.41c0.1-0.08,0.35,0.62,0.35,0.62l0.4,1.47c0,0-0.5,1.2,0,0.7c0.51-0.5,0.66-1.39,0.66-1.39
		s0.2-0.77,0.46-0.79c0.25-0.01,0.58,0.25,0.58,0.25l-0.51,1.55l-0.2,0.86l0.1,0.45l0.61-0.36l0.66-1.43c0,0,0.93-0.96,1.03-0.83
		c0.1,0.13-0.43,1.29-0.43,1.29l-0.73,0.98c0,0,0.71,0.23,0.56,0.53c-0.15,0.3-0.83,0.47-0.83,0.47l-0.3,0.39c0,0,0.28,0.33,1.16,0
		c0.88-0.33,1.34-0.54,1.44-0.39c0.1,0.16-0.48,0.64-1.16,0.94c-0.68,0.3-1.24,0.58-1.24,0.58l-0.71,0.68l-0.3,0.6
		c0,0,0.81,0.13,0.81,0.71c0,0.58,0.33,0.67-0.15,0.88c-0.48,0.21-0.91-0.17-0.91-0.17l-0.4-0.55h-0.58l-0.3,0.4L39.4,79.31z"/>
	<path class="st24" d="M37.63,75.88c-0.05,0.1-0.13,0.61,0.46,0.73c0.58,0.13,1.11,0,1.11,0l0.93-0.23l0.53-0.37l0.4-0.99
		c0,0,0.2-0.23-0.18-0.51c-0.38-0.28-1.14-0.4-1.14-0.4s-0.27-0.43-0.75-0.23c-0.49,0.2-0.69,0.63-0.69,0.63s-0.58,0.21-0.68,0.16
		c-0.1-0.06-0.23,0.12-0.23,0.12S37.81,75.53,37.63,75.88"/>
	<path class="st9" d="M84.57,60.57c0,6.9-5.59,12.49-12.49,12.49c-6.9,0-12.49-5.59-12.49-12.49c0-6.9,5.59-12.49,12.49-12.49
		C78.98,48.08,84.57,53.67,84.57,60.57"/>
	<path class="st10" d="M74,49.1c0.06-0.13,0.3-1.16,0.18-1.74c-0.11-0.58-0.14-1.64-1.34-1.9c-1.21-0.26-2.22,0.16-2.63,0.74
		c-0.41,0.57-0.25,1.96-0.27,2.61c-0.02,0.66,0.33,1.44,0.73,1.83c0.4,0.4,0.54,0.81,0.99,0.94c0.44,0.13,0.18,0.59,0.63,0.07
		c0.45-0.53,0.71-0.51,0.87-0.75C73.31,50.65,74,49.1,74,49.1"/>
	<path class="st11" d="M69.84,49.02c0.01-0.14-0.14-1.19-0.46-1.69c-0.32-0.51-0.72-1.49-1.94-1.29c-1.22,0.19-2.01,0.95-2.19,1.63
		c-0.18,0.68,0.47,1.91,0.68,2.54c0.21,0.62,0.83,1.22,1.34,1.45c0.51,0.23,0.8,0.56,1.26,0.53c0.46-0.03,0.38,0.49,0.61-0.16
		c0.23-0.65,0.48-0.73,0.54-1.01C69.75,50.72,69.84,49.02,69.84,49.02"/>
	<path class="st10" d="M65.92,50.45c-0.04-0.13-0.55-1.06-1.03-1.42c-0.48-0.36-1.2-1.13-2.27-0.51c-1.07,0.62-1.54,1.61-1.46,2.31
		c0.08,0.7,1.12,1.62,1.55,2.12c0.42,0.51,1.21,0.84,1.77,0.87c0.56,0.03,0.95,0.24,1.36,0.04c0.42-0.2,0.53,0.32,0.51-0.37
		c-0.02-0.69,0.19-0.85,0.15-1.14C66.45,52.06,65.92,50.45,65.92,50.45"/>
	<path class="st10" d="M62.78,53.18c-0.09-0.11-0.9-0.79-1.47-0.95c-0.57-0.16-1.53-0.62-2.3,0.34c-0.78,0.96-0.86,2.05-0.53,2.68
		c0.32,0.63,1.63,1.11,2.21,1.43c0.58,0.32,1.43,0.35,1.97,0.18c0.53-0.17,0.97-0.12,1.29-0.45c0.32-0.33,0.61,0.11,0.34-0.53
		C64.01,55.23,64.14,55,64,54.75C63.85,54.5,62.78,53.18,62.78,53.18"/>
	<path class="st11" d="M60.82,56.86c-0.12-0.07-1.12-0.42-1.71-0.36c-0.59,0.05-1.65-0.03-2.03,1.14c-0.38,1.17-0.07,2.22,0.46,2.69
		c0.53,0.47,1.92,0.45,2.57,0.54c0.65,0.09,1.46-0.18,1.9-0.54c0.44-0.36,0.86-0.46,1.04-0.88c0.18-0.43,0.61-0.11,0.13-0.62
		c-0.48-0.5-0.43-0.76-0.65-0.94C62.3,57.71,60.82,56.86,60.82,56.86"/>
	<path class="st10" d="M60.31,61c-0.14-0.02-1.2,0.01-1.73,0.28c-0.53,0.26-1.55,0.56-1.49,1.79c0.07,1.23,0.74,2.1,1.4,2.35
		c0.66,0.25,1.95-0.27,2.59-0.42c0.64-0.15,1.3-0.7,1.58-1.18c0.28-0.49,0.64-0.73,0.65-1.2c0.02-0.46,0.53-0.32-0.1-0.62
		s-0.67-0.56-0.95-0.65C62,61.26,60.31,61,60.31,61"/>
	<path class="st11" d="M61.32,65.04c-0.14,0.03-1.11,0.44-1.52,0.88c-0.4,0.44-1.25,1.08-0.75,2.2c0.5,1.13,1.44,1.7,2.15,1.69
		c0.71,0,1.73-0.95,2.27-1.32c0.55-0.37,0.96-1.12,1.05-1.67c0.09-0.56,0.33-0.91,0.18-1.35c-0.15-0.44,0.37-0.49-0.32-0.54
		c-0.69-0.06-0.83-0.28-1.12-0.26C62.99,64.68,61.32,65.04,61.32,65.04"/>
	<path class="st10" d="M63.72,68.45c-0.12,0.08-0.88,0.81-1.1,1.36c-0.22,0.55-0.78,1.45,0.09,2.33c0.87,0.87,1.95,1.07,2.61,0.81
		c0.66-0.26,1.27-1.51,1.65-2.05c0.38-0.54,0.5-1.39,0.38-1.94c-0.12-0.55-0.02-0.97-0.31-1.33c-0.3-0.35,0.17-0.59-0.49-0.4
		c-0.67,0.2-0.87,0.04-1.14,0.16C65.14,67.52,63.72,68.45,63.72,68.45"/>
	<path class="st11" d="M67.18,70.78c-0.08,0.11-0.53,1.07-0.54,1.67c-0.01,0.6-0.2,1.64,0.92,2.14c1.13,0.5,2.2,0.3,2.73-0.18
		c0.52-0.48,0.65-1.86,0.81-2.5c0.16-0.64-0.03-1.48-0.34-1.95c-0.31-0.47-0.36-0.9-0.77-1.13c-0.41-0.22-0.05-0.61-0.6-0.19
		c-0.55,0.42-0.8,0.35-1.01,0.55C68.17,69.4,67.18,70.78,67.18,70.78"/>
	<path class="st10" d="M71.24,71.71c-0.04,0.13-0.11,1.19,0.1,1.75c0.21,0.56,0.4,1.6,1.63,1.66c1.23,0.06,2.17-0.51,2.48-1.15
		c0.32-0.63-0.07-1.97-0.15-2.62c-0.08-0.65-0.56-1.37-1.02-1.69c-0.46-0.33-0.66-0.71-1.12-0.77c-0.46-0.06-0.27-0.56-0.63,0.04
		c-0.36,0.59-0.62,0.61-0.74,0.88C71.67,70.06,71.24,71.71,71.24,71.71"/>
	<path class="st11" d="M75.36,71.12c0.01,0.14,0.32,1.15,0.72,1.6s0.94,1.35,2.12,0.97c1.17-0.38,1.84-1.26,1.9-1.96
		c0.07-0.7-0.77-1.82-1.08-2.4c-0.31-0.58-1.01-1.08-1.55-1.22c-0.54-0.14-0.88-0.43-1.33-0.32c-0.45,0.11-0.45-0.42-0.57,0.26
		c-0.13,0.68-0.36,0.79-0.38,1.08C75.18,69.43,75.36,71.12,75.36,71.12"/>
	<path class="st10" d="M79,69.09c0.06,0.12,0.72,0.96,1.24,1.24c0.53,0.28,1.37,0.92,2.32,0.15c0.96-0.78,1.26-1.83,1.07-2.51
		c-0.19-0.68-1.37-1.42-1.86-1.85c-0.5-0.43-1.33-0.64-1.89-0.58c-0.56,0.06-0.97-0.08-1.35,0.18c-0.38,0.26-0.57-0.23-0.44,0.45
		c0.13,0.68-0.05,0.87,0.04,1.15C78.23,67.58,79,69.09,79,69.09"/>
	<path class="st11" d="M81.68,65.9c0.1,0.09,1.01,0.64,1.6,0.71c0.59,0.07,1.61,0.37,2.22-0.7s0.52-2.16,0.1-2.73
		c-0.42-0.57-1.79-0.84-2.4-1.06c-0.62-0.23-1.47-0.12-1.97,0.14c-0.5,0.26-0.93,0.27-1.2,0.65c-0.26,0.38-0.62-0.01-0.25,0.58
		c0.36,0.59,0.26,0.83,0.45,1.06C80.41,64.76,81.68,65.9,81.68,65.9"/>
	<path class="st10" d="M83.02,61.95c0.13,0.05,1.17,0.23,1.75,0.08c0.58-0.15,1.63-0.23,1.82-1.45c0.19-1.22-0.29-2.21-0.88-2.58
		c-0.6-0.38-1.97-0.14-2.62-0.13c-0.66,0.01-1.42,0.41-1.79,0.83c-0.37,0.42-0.78,0.59-0.89,1.04c-0.11,0.45-0.58,0.21-0.03,0.63
		c0.55,0.42,0.54,0.68,0.8,0.83C81.43,61.35,83.02,61.95,83.02,61.95"/>
	<path class="st11" d="M82.87,57.79c0.14,0,1.18-0.2,1.66-0.55c0.49-0.34,1.44-0.8,1.18-2c-0.26-1.21-1.06-1.96-1.75-2.1
		s-1.89,0.58-2.5,0.82c-0.61,0.25-1.17,0.89-1.37,1.42c-0.2,0.53-0.51,0.83-0.46,1.28c0.06,0.46-0.47,0.4,0.2,0.6
		c0.66,0.2,0.75,0.44,1.04,0.49C81.16,57.8,82.87,57.79,82.87,57.79"/>
	<path class="st10" d="M81.23,53.96c0.13-0.05,1.03-0.61,1.36-1.11c0.33-0.5,1.06-1.26,0.39-2.3c-0.67-1.03-1.69-1.44-2.39-1.33
		c-0.7,0.12-1.55,1.21-2.03,1.66c-0.48,0.45-0.78,1.25-0.77,1.82c0,0.56-0.18,0.96,0.04,1.36c0.22,0.41-0.29,0.54,0.4,0.49
		c0.69-0.06,0.86,0.14,1.15,0.08C79.64,54.57,81.23,53.96,81.23,53.96"/>
	<path class="st11" d="M78.32,50.97c0.1-0.09,0.74-0.94,0.87-1.52c0.13-0.58,0.54-1.56-0.46-2.28c-1-0.72-2.1-0.74-2.71-0.38
		c-0.61,0.36-1.01,1.69-1.3,2.28c-0.29,0.59-0.27,1.45-0.07,1.97c0.21,0.52,0.17,0.96,0.52,1.26c0.35,0.3-0.08,0.61,0.55,0.31
		c0.63-0.3,0.86-0.17,1.1-0.33C77.06,52.11,78.32,50.97,78.32,50.97"/>
	<path class="st12" d="M71.28,51.77c0.02-0.11,0-0.99-0.21-1.43c-0.21-0.44-0.45-1.28-1.46-1.24c-1.02,0.04-1.74,0.59-1.95,1.13
		c-0.21,0.54,0.2,1.61,0.32,2.14c0.12,0.53,0.56,1.08,0.96,1.31c0.4,0.24,0.6,0.53,0.98,0.55c0.38,0.02,0.26,0.44,0.51-0.08
		c0.25-0.51,0.47-0.55,0.54-0.78C71.05,53.15,71.28,51.77,71.28,51.77"/>
	<path class="st13" d="M67.79,52.7c-0.03-0.11-0.39-0.91-0.76-1.23c-0.37-0.32-0.92-1.01-1.83-0.57c-0.92,0.44-1.37,1.22-1.35,1.81
		c0.02,0.58,0.82,1.4,1.14,1.84c0.31,0.44,0.94,0.77,1.4,0.83c0.46,0.06,0.76,0.26,1.12,0.12c0.36-0.13,0.41,0.3,0.44-0.27
		c0.03-0.57,0.21-0.69,0.19-0.93C68.12,54.06,67.79,52.7,67.79,52.7"/>
	<path class="st14" d="M64.94,54.93c-0.07-0.09-0.71-0.68-1.18-0.83c-0.47-0.15-1.24-0.57-1.91,0.2c-0.67,0.76-0.78,1.66-0.53,2.19
		c0.25,0.53,1.31,0.97,1.77,1.25c0.46,0.28,1.17,0.34,1.61,0.21c0.45-0.13,0.8-0.06,1.08-0.33c0.28-0.26,0.49,0.11,0.3-0.42
		c-0.2-0.54-0.08-0.72-0.19-0.93C65.78,56.05,64.94,54.93,64.94,54.93"/>
	<path class="st15" d="M63.2,58.09c-0.1-0.06-0.92-0.35-1.41-0.3c-0.49,0.04-1.36-0.03-1.68,0.93c-0.32,0.97-0.06,1.83,0.37,2.22
		c0.43,0.39,1.58,0.38,2.12,0.46c0.54,0.08,1.21-0.15,1.57-0.44c0.36-0.29,0.71-0.37,0.86-0.72c0.15-0.35,0.5-0.09,0.11-0.51
		c-0.39-0.42-0.35-0.63-0.54-0.78C64.41,58.79,63.2,58.09,63.2,58.09"/>
	<path class="st14" d="M62.84,61.68c-0.11-0.02-0.98,0.04-1.42,0.27c-0.43,0.23-1.26,0.5-1.18,1.52c0.09,1.01,0.66,1.71,1.21,1.9
		c0.55,0.19,1.6-0.27,2.13-0.41c0.53-0.14,1.05-0.61,1.27-1.02c0.22-0.41,0.51-0.62,0.51-1c0-0.38,0.42-0.28-0.1-0.51
		c-0.52-0.23-0.57-0.44-0.8-0.51C64.23,61.85,62.84,61.68,62.84,61.68"/>
	<path class="st13" d="M63.92,65.13c-0.11,0.03-0.89,0.43-1.2,0.81c-0.31,0.38-0.97,0.96-0.49,1.86c0.48,0.9,1.28,1.31,1.86,1.27
		c0.58-0.04,1.37-0.88,1.79-1.21c0.43-0.33,0.73-0.97,0.77-1.44c0.04-0.46,0.22-0.77,0.07-1.12c-0.15-0.35,0.28-0.42-0.29-0.43
		c-0.57-0.01-0.7-0.18-0.93-0.15C65.27,64.74,63.92,65.13,63.92,65.13"/>
	<path class="st16" d="M66.26,67.88c-0.09,0.07-0.65,0.74-0.78,1.21c-0.13,0.47-0.51,1.26,0.28,1.9c0.79,0.64,1.69,0.71,2.21,0.44
		c0.52-0.27,0.91-1.35,1.18-1.82c0.26-0.47,0.29-1.18,0.15-1.62c-0.15-0.44-0.1-0.8-0.37-1.06c-0.28-0.26,0.09-0.5-0.44-0.28
		c-0.53,0.22-0.71,0.11-0.92,0.23C67.35,66.99,66.26,67.88,66.26,67.88"/>
	<path class="st13" d="M69.49,69.48c-0.05,0.1-0.31,0.94-0.24,1.42c0.06,0.49,0.02,1.36,1,1.64c0.98,0.28,1.83-0.02,2.2-0.46
		c0.37-0.45,0.31-1.6,0.37-2.14c0.06-0.54-0.2-1.2-0.5-1.55c-0.31-0.35-0.4-0.69-0.76-0.83c-0.36-0.13-0.11-0.5-0.51-0.09
		c-0.4,0.41-0.61,0.38-0.76,0.57C70.15,68.24,69.49,69.48,69.49,69.48"/>
	<path class="st17" d="M73.1,69.69c-0.01,0.11,0.09,0.98,0.33,1.41s0.55,1.24,1.56,1.11c1.01-0.13,1.68-0.73,1.85-1.29
		c0.16-0.56-0.34-1.59-0.5-2.11c-0.16-0.52-0.65-1.03-1.07-1.23c-0.42-0.2-0.64-0.48-1.02-0.46c-0.38,0.02-0.3-0.41-0.5,0.12
		c-0.21,0.53-0.42,0.59-0.47,0.82C73.21,68.29,73.1,69.69,73.1,69.69"/>
	<path class="st13" d="M76.5,68.47c0.04,0.11,0.46,0.87,0.86,1.16c0.4,0.29,1,0.92,1.88,0.41c0.88-0.51,1.26-1.33,1.19-1.91
		c-0.07-0.58-0.94-1.33-1.29-1.74c-0.35-0.42-1-0.69-1.47-0.71c-0.46-0.02-0.78-0.19-1.12-0.03c-0.34,0.17-0.44-0.26-0.42,0.31
		c0.02,0.57-0.15,0.7-0.11,0.94C76.05,67.14,76.5,68.47,76.5,68.47"/>
	<path class="st13" d="M79.14,66.01c0.08,0.09,0.77,0.62,1.25,0.73c0.48,0.11,1.28,0.46,1.89-0.36c0.61-0.82,0.63-1.72,0.34-2.23
		c-0.29-0.51-1.38-0.85-1.87-1.1c-0.48-0.24-1.19-0.24-1.63-0.08c-0.43,0.16-0.79,0.13-1.04,0.42c-0.25,0.29-0.5-0.07-0.26,0.45
		c0.24,0.52,0.13,0.71,0.26,0.91C78.21,64.96,79.14,66.01,79.14,66.01"/>
	<path class="st18" d="M80.61,62.72c0.1,0.05,0.95,0.27,1.43,0.18c0.48-0.08,1.36-0.08,1.59-1.07c0.24-0.99-0.09-1.83-0.56-2.18
		c-0.47-0.35-1.61-0.24-2.15-0.28c-0.54-0.03-1.19,0.25-1.53,0.57c-0.34,0.32-0.68,0.43-0.8,0.79c-0.12,0.36-0.49,0.13-0.07,0.51
		c0.42,0.38,0.4,0.6,0.6,0.73C79.34,62.12,80.61,62.72,80.61,62.72"/>
	<path class="st19" d="M80.67,59.11c0.11,0,0.98-0.13,1.39-0.39c0.41-0.27,1.22-0.61,1.05-1.61c-0.17-1-0.8-1.65-1.37-1.79
		c-0.57-0.14-1.57,0.41-2.08,0.59c-0.51,0.18-1,0.69-1.18,1.12c-0.18,0.43-0.45,0.66-0.42,1.04c0.03,0.38-0.4,0.31,0.14,0.5
		c0.54,0.18,0.6,0.39,0.84,0.44C79.27,59.05,80.67,59.11,80.67,59.11"/>
	<path class="st13" d="M79.31,55.76c0.11-0.04,0.85-0.5,1.12-0.91c0.28-0.41,0.88-1.04,0.33-1.89c-0.55-0.86-1.39-1.2-1.96-1.11
		c-0.57,0.09-1.29,0.99-1.69,1.36c-0.4,0.37-0.65,1.03-0.65,1.5c0,0.46-0.16,0.79,0.02,1.12c0.18,0.34-0.24,0.45,0.33,0.4
		c0.57-0.04,0.71,0.12,0.94,0.07C77.99,56.26,79.31,55.76,79.31,55.76"/>
	<path class="st13" d="M76.74,53.22c0.08-0.08,0.59-0.79,0.68-1.28c0.09-0.48,0.4-1.3-0.44-1.87c-0.84-0.57-1.75-0.56-2.24-0.25
		c-0.49,0.31-0.79,1.42-1.02,1.91c-0.22,0.49-0.19,1.2-0.01,1.63c0.18,0.43,0.16,0.79,0.46,1.03c0.3,0.24-0.05,0.51,0.46,0.24
		c0.51-0.26,0.7-0.17,0.9-0.3C75.73,54.2,76.74,53.22,76.74,53.22"/>
	<path class="st13" d="M73.38,51.89c0.04-0.1,0.23-0.96,0.12-1.44c-0.1-0.48-0.14-1.35-1.14-1.55c-1-0.19-1.83,0.17-2.16,0.65
		c-0.33,0.48-0.17,1.62-0.19,2.16c-0.01,0.54,0.3,1.18,0.63,1.5c0.33,0.32,0.46,0.66,0.83,0.76c0.37,0.1,0.15,0.48,0.52,0.04
		c0.36-0.44,0.58-0.43,0.71-0.63C72.84,53.19,73.38,51.89,73.38,51.89"/>
	<path class="st20" d="M73.36,55.18c0.04-0.09,0.21-0.84,0.13-1.26c-0.08-0.42-0.1-1.19-0.97-1.37c-0.87-0.19-1.6,0.12-1.9,0.53
		c-0.3,0.42-0.18,1.41-0.2,1.89c-0.02,0.47,0.24,1.04,0.53,1.33c0.29,0.29,0.39,0.58,0.71,0.68c0.32,0.1,0.13,0.43,0.45,0.05
		c0.33-0.38,0.51-0.36,0.63-0.54C72.86,56.3,73.36,55.18,73.36,55.18"/>
	<path class="st20" d="M70.14,55.14c-0.01-0.1-0.26-0.82-0.56-1.14c-0.3-0.31-0.71-0.95-1.55-0.65c-0.84,0.3-1.29,0.95-1.33,1.46
		c-0.03,0.51,0.6,1.29,0.83,1.71c0.24,0.41,0.76,0.75,1.15,0.84c0.4,0.09,0.64,0.29,0.96,0.2c0.32-0.09,0.33,0.29,0.41-0.2
		c0.08-0.49,0.24-0.58,0.25-0.79C70.31,56.36,70.14,55.14,70.14,55.14"/>
	<path class="st20" d="M67.38,56.82c-0.06-0.08-0.66-0.56-1.07-0.67c-0.42-0.11-1.11-0.43-1.66,0.27c-0.55,0.7-0.59,1.49-0.35,1.94
		c0.24,0.45,1.19,0.78,1.61,1c0.42,0.22,1.04,0.24,1.42,0.1c0.38-0.13,0.7-0.1,0.92-0.34c0.23-0.25,0.44,0.07,0.24-0.39
		c-0.2-0.46-0.1-0.62-0.21-0.8C68.18,57.76,67.38,56.82,67.38,56.82"/>
	<path class="st20" d="M65.94,59.7c-0.1-0.03-0.85-0.13-1.27,0c-0.41,0.13-1.17,0.22-1.26,1.11c-0.09,0.89,0.29,1.58,0.73,1.83
		c0.44,0.25,1.42,0.03,1.9,0c0.47-0.03,1.01-0.35,1.26-0.67c0.25-0.32,0.54-0.45,0.6-0.78c0.06-0.33,0.41-0.17,0-0.45
		c-0.41-0.28-0.42-0.47-0.6-0.57C67.11,60.08,65.94,59.7,65.94,59.7"/>
	<path class="st20" d="M66.24,62.91c-0.1,0.02-0.79,0.35-1.07,0.67c-0.28,0.33-0.87,0.81-0.48,1.61c0.39,0.8,1.08,1.19,1.59,1.17
		c0.51-0.02,1.22-0.73,1.61-1.01c0.39-0.28,0.67-0.83,0.72-1.23c0.05-0.4,0.22-0.67,0.1-0.98c-0.12-0.31,0.26-0.36-0.24-0.38
		c-0.5-0.02-0.61-0.18-0.81-0.16C67.43,62.61,66.24,62.91,66.24,62.91"/>
	<path class="st20" d="M68.2,65.47c-0.07,0.07-0.49,0.71-0.55,1.14c-0.07,0.42-0.31,1.15,0.45,1.62c0.76,0.47,1.55,0.43,1.97,0.15
		c0.42-0.29,0.65-1.27,0.83-1.71c0.18-0.44,0.13-1.06-0.05-1.43c-0.17-0.37-0.17-0.68-0.44-0.88c-0.27-0.2,0.03-0.44-0.41-0.2
		c-0.44,0.25-0.61,0.17-0.78,0.3C69.05,64.58,68.2,65.47,68.2,65.47"/>
	<path class="st20" d="M71.22,66.61c-0.02,0.1-0.03,0.86,0.14,1.26c0.17,0.4,0.35,1.14,1.24,1.14c0.89,0,1.54-0.45,1.75-0.92
		c0.2-0.47-0.12-1.42-0.21-1.89s-0.45-0.96-0.8-1.18c-0.34-0.22-0.51-0.49-0.84-0.52c-0.33-0.03-0.21-0.39-0.45,0.05
		c-0.24,0.44-0.43,0.47-0.5,0.66C71.47,65.4,71.22,66.61,71.22,66.61"/>
	<path class="st20" d="M74.38,65.96c0.03,0.1,0.43,0.75,0.78,0.99c0.35,0.24,0.9,0.78,1.65,0.31c0.76-0.47,1.07-1.2,0.99-1.71
		c-0.08-0.5-0.86-1.14-1.17-1.49c-0.32-0.35-0.9-0.58-1.3-0.58c-0.41-0.01-0.69-0.15-0.99,0.01c-0.3,0.15-0.39-0.22-0.36,0.28
		c0.03,0.5-0.12,0.62-0.07,0.83C73.96,64.81,74.38,65.96,74.38,65.96"/>
	<path class="st20" d="M76.72,63.74c0.08,0.06,0.76,0.41,1.19,0.43c0.43,0.02,1.18,0.19,1.56-0.61c0.39-0.8,0.27-1.58-0.06-1.97
		c-0.33-0.39-1.33-0.51-1.79-0.64c-0.46-0.13-1.06-0.01-1.41,0.2c-0.35,0.21-0.66,0.24-0.83,0.53c-0.17,0.29-0.45,0.02-0.15,0.43
		c0.29,0.41,0.23,0.59,0.37,0.74C75.75,62.99,76.72,63.74,76.72,63.74"/>
	<path class="st20" d="M77.53,60.62c0.1,0.01,0.86-0.06,1.24-0.27c0.37-0.21,1.1-0.46,1-1.35c-0.1-0.89-0.61-1.49-1.1-1.64
		c-0.49-0.15-1.4,0.27-1.85,0.4c-0.46,0.13-0.91,0.55-1.09,0.92c-0.18,0.36-0.43,0.55-0.42,0.89c0.01,0.33-0.37,0.25,0.1,0.44
		c0.46,0.19,0.51,0.38,0.71,0.43C76.3,60.5,77.53,60.62,77.53,60.62"/>
	<path class="st20" d="M76.56,57.55c0.09-0.04,0.7-0.51,0.91-0.88c0.21-0.38,0.68-0.98,0.13-1.68c-0.55-0.7-1.31-0.93-1.8-0.8
		c-0.49,0.13-1.04,0.97-1.36,1.33c-0.32,0.35-0.48,0.95-0.44,1.36c0.04,0.4-0.07,0.7,0.11,0.98c0.18,0.28-0.18,0.41,0.32,0.33
		c0.49-0.08,0.63,0.05,0.83-0.01C75.45,58.09,76.56,57.55,76.56,57.55"/>
	<path class="st21" d="M73.15,57.21c0.03-0.07,0.17-0.64,0.1-0.97c-0.06-0.32-0.08-0.91-0.75-1.06c-0.67-0.14-1.23,0.09-1.46,0.41
		c-0.23,0.32-0.14,1.09-0.15,1.45c-0.01,0.37,0.19,0.8,0.41,1.02c0.22,0.22,0.3,0.45,0.55,0.52c0.25,0.07,0.1,0.33,0.35,0.04
		c0.25-0.29,0.4-0.28,0.48-0.42C72.76,58.08,73.15,57.21,73.15,57.21"/>
	<path class="st22" d="M71.05,57.21c-0.02-0.08-0.23-0.62-0.47-0.85c-0.24-0.23-0.59-0.71-1.22-0.44c-0.63,0.27-0.96,0.78-0.97,1.17
		c-0.01,0.39,0.51,0.97,0.71,1.28c0.2,0.31,0.61,0.55,0.92,0.6c0.31,0.05,0.5,0.2,0.75,0.12c0.25-0.08,0.27,0.21,0.31-0.17
		c0.04-0.38,0.17-0.46,0.16-0.62C71.22,58.14,71.05,57.21,71.05,57.21"/>
	<path class="st22" d="M69.32,58.41c-0.06-0.06-0.55-0.38-0.87-0.43c-0.33-0.05-0.88-0.24-1.25,0.34c-0.37,0.58-0.34,1.19-0.12,1.52
		c0.22,0.32,0.97,0.5,1.31,0.64c0.34,0.14,0.81,0.1,1.1-0.03c0.28-0.13,0.53-0.13,0.68-0.33c0.15-0.21,0.34,0.02,0.15-0.31
		c-0.19-0.34-0.13-0.47-0.22-0.6C70,59.07,69.32,58.41,69.32,58.41"/>
	<path class="st21" d="M68.6,60.39c-0.08-0.01-0.67,0-0.96,0.15c-0.3,0.15-0.86,0.31-0.83,0.99c0.03,0.68,0.4,1.17,0.77,1.31
		c0.37,0.14,1.09-0.14,1.44-0.22c0.36-0.08,0.73-0.38,0.88-0.65c0.16-0.27,0.36-0.41,0.37-0.66c0.01-0.26,0.29-0.18-0.05-0.35
		c-0.35-0.17-0.37-0.31-0.53-0.36C69.53,60.54,68.6,60.39,68.6,60.39"/>
	<path class="st22" d="M69.13,62.42c-0.07,0.03-0.54,0.38-0.7,0.67c-0.16,0.29-0.53,0.74-0.12,1.29c0.42,0.54,1,0.73,1.38,0.63
		c0.38-0.09,0.81-0.74,1.06-1.01c0.25-0.27,0.38-0.73,0.35-1.04c-0.03-0.31,0.06-0.54-0.08-0.75c-0.14-0.22,0.14-0.31-0.24-0.25
		c-0.38,0.06-0.48-0.04-0.64,0C69.99,62.01,69.13,62.42,69.13,62.42"/>
	<path class="st22" d="M70.73,63.78c-0.04,0.07-0.23,0.63-0.19,0.95c0.03,0.33-0.01,0.92,0.64,1.12c0.65,0.21,1.24,0.03,1.5-0.27
		c0.26-0.3,0.24-1.07,0.29-1.43c0.05-0.36-0.11-0.81-0.31-1.05c-0.2-0.24-0.26-0.48-0.49-0.57c-0.24-0.1-0.07-0.34-0.34-0.07
		c-0.28,0.27-0.42,0.24-0.52,0.37C71.2,62.95,70.73,63.78,70.73,63.78"/>
	<path class="st21" d="M72.83,63.98c0.01,0.08,0.17,0.64,0.39,0.89c0.22,0.25,0.52,0.76,1.17,0.55c0.65-0.2,1.03-0.69,1.07-1.08
		c0.04-0.39-0.42-1.02-0.58-1.34c-0.17-0.32-0.55-0.6-0.86-0.69c-0.3-0.08-0.48-0.24-0.74-0.19c-0.25,0.06-0.25-0.24-0.32,0.14
		c-0.08,0.38-0.21,0.44-0.22,0.6C72.73,63.03,72.83,63.98,72.83,63.98"/>
	<path class="st22" d="M74.66,62.94c0.05,0.06,0.51,0.43,0.83,0.51c0.32,0.08,0.86,0.33,1.28-0.21c0.42-0.54,0.45-1.15,0.26-1.5
		c-0.19-0.34-0.92-0.59-1.24-0.76c-0.32-0.17-0.8-0.18-1.1-0.07c-0.29,0.1-0.53,0.08-0.71,0.27c-0.17,0.19-0.34-0.05-0.18,0.3
		c0.15,0.35,0.08,0.48,0.17,0.62C74.04,62.22,74.66,62.94,74.66,62.94"/>
	<path class="st21" d="M75.56,61.05c0.07,0.02,0.66,0.06,0.97-0.06c0.31-0.11,0.89-0.22,0.92-0.91c0.03-0.68-0.29-1.2-0.64-1.38
		c-0.35-0.17-1.1,0.04-1.46,0.08c-0.36,0.05-0.76,0.31-0.94,0.57c-0.18,0.25-0.4,0.37-0.43,0.63c-0.03,0.25-0.31,0.15,0.02,0.35
		c0.33,0.2,0.34,0.35,0.49,0.41C74.65,60.81,75.56,61.05,75.56,61.05"/>
	<path class="st22" d="M75.22,58.98c0.07-0.03,0.58-0.33,0.77-0.6c0.19-0.27,0.6-0.69,0.24-1.27c-0.36-0.58-0.93-0.82-1.31-0.76
		c-0.39,0.06-0.88,0.66-1.15,0.9c-0.27,0.25-0.44,0.69-0.45,1c0,0.31-0.11,0.53,0.01,0.76c0.12,0.23-0.17,0.3,0.22,0.28
		c0.38-0.02,0.48,0.09,0.64,0.06C74.34,59.3,75.22,58.98,75.22,58.98"/>
	<path class="st23" d="M72.16,64.33c-0.31,0.15-0.7,0-0.7,0s0.15-0.58-0.28-0.34c-0.44,0.24-1.03,0.41-1.03,0.41l-0.96-0.41
		L68.7,63.5l-0.75-0.26c0,0,0.23-0.29,0.49-0.47c0.26-0.17,0.96-0.36,0.31-0.45c-0.65-0.09-1.27-0.36-1.27-0.36v-0.5h0.62
		l-1.06-0.44c0,0-1.21-0.36-0.9-0.56c0.31-0.21,1.11,0,1.11,0l1.52,0.41c0,0-2.53-1.16-2.68-1.45c-0.16-0.28-0.16-0.75-0.16-0.75
		s-0.03-0.17,0.62,0.2c0.65,0.37,0.77,0.41,1.11,0.55c0.34,0.13,0.49,0.29,0.49,0.29l0.46-0.12l0.43,0.15c0,0,0.58-0.06,0-0.86
		c-0.58-0.8-1.3-1.5-1.2-1.63c0.1-0.12,0.54-0.12,0.54-0.12l1.01,1.32l0.31,0.34l0.18-0.57l0.08-0.78h0.9l0.95-0.05l0.34,0.18
		l0.15-0.7c0,0,0.02-1.36,0.13-1.44c0.1-0.08,0.36,0.63,0.36,0.63l0.41,1.51c0,0-0.52,1.22,0,0.71c0.52-0.51,0.67-1.42,0.67-1.42
		s0.21-0.79,0.47-0.8c0.26-0.02,0.59,0.26,0.59,0.26l-0.52,1.59l-0.21,0.88l0.1,0.46l0.62-0.37l0.67-1.47c0,0,0.95-0.98,1.06-0.85
		c0.1,0.13-0.44,1.32-0.44,1.32l-0.75,1c0,0,0.72,0.23,0.57,0.55c-0.16,0.31-0.85,0.49-0.85,0.49L74.9,60.3c0,0,0.28,0.34,1.19,0
		c0.9-0.34,1.37-0.56,1.47-0.39c0.1,0.16-0.49,0.65-1.19,0.96c-0.7,0.31-1.27,0.59-1.27,0.59l-0.72,0.7l-0.31,0.61
		c0,0,0.83,0.13,0.83,0.73s0.34,0.68-0.15,0.9c-0.49,0.22-0.93-0.17-0.93-0.17l-0.41-0.57h-0.59l-0.31,0.41L72.16,64.33z"/>
	<path class="st24" d="M70.36,60.82c-0.05,0.1-0.13,0.62,0.46,0.75c0.59,0.13,1.14,0,1.14,0l0.95-0.24l0.54-0.38l0.41-1.01
		c0,0,0.21-0.24-0.18-0.52c-0.39-0.28-1.16-0.41-1.16-0.41s-0.27-0.44-0.77-0.23c-0.5,0.21-0.7,0.64-0.7,0.64s-0.59,0.22-0.7,0.16
		c-0.1-0.06-0.23,0.12-0.23,0.12S70.54,60.46,70.36,60.82"/>
</g>
</svg>
