<?xml version="1.0" encoding="utf-8"?>
<svg version="1.1" id="Layer_1" x="0px" y="0px" viewBox="0 0 9.9 99" style="enable-background:new 0 0 9.9 99;" xmlns="http://www.w3.org/2000/svg">
  <style type="text/css">
	.st0{fill:#838C92;stroke:#231F20;stroke-width:0.25;stroke-miterlimit:10;}
	.st1{fill:#6A7277;stroke:#231F20;stroke-width:0.25;stroke-miterlimit:10;}
	.st2{opacity:0.21;fill:#FFFFFF;}
</style>
  <g>
    <rect x="11.612" y="51.5" transform="matrix(0, -1, 1, 0, -43.341515, 109.686172)" class="st0" width="97.106" height="1.3" style=""/>
    <rect x="3.699" y="51.5" transform="matrix(0, -1, 1, 0, -51.050316, 101.764755)" class="st0" width="97.106" height="1.3" style=""/>
    <rect x="1.13" y="97.232" class="st0" width="7.7" height="1.336" style=""/>
    <rect x="0.13" y="96.924" class="st1" width="1.9" height="1.953" style=""/>
    <rect x="7.83" y="96.924" class="st1" width="1.9" height="1.953" style=""/>
    <rect x="1.13" y="0.435" class="st0" width="7.7" height="1.336" style=""/>
    <rect x="0.13" y="0.126" class="st1" width="1.9" height="1.953" style=""/>
    <rect x="7.83" y="0.126" class="st1" width="1.9" height="1.953" style=""/>
    <rect x="2.03" y="0.845" class="st2" width="5.7" height="0.411" style=""/>
    <rect x="2.03" y="97.644" class="st2" width="5.7" height="0.411" style=""/>
    <rect x="4.932" y="51.9" transform="matrix(0, -1, 1, 0, -51.049618, 101.733208)" class="st2" width="94.743" height="0.4" style=""/>
    <rect x="12.742" y="51.9" transform="matrix(0, -1, 1, 0, -43.352417, 109.642693)" class="st2" width="94.743" height="0.4" style=""/>
  </g>
</svg>