<svg xmlns="http://www.w3.org/2000/svg" version="1.1" xmlns:xlink="http://www.w3.org/1999/xlink" xmlns:svgjs="http://svgjs.dev/svgjs" viewBox="0 0 85.7 146.2" style="" x="0" y="0"><style type="text/css">
	.st0{fill:none;stroke:#B49271;stroke-width:1.5935;stroke-miterlimit:10;}
	.st1{fill:none;stroke:#A57C65;stroke-width:1.5935;stroke-miterlimit:10;}
	.st2{fill:none;stroke:#9D7A5F;stroke-width:4.5596;stroke-miterlimit:10;}
	.st3{fill:#5C4836;}
	.st4{fill:none;stroke:#F7ECE2;stroke-width:1.75;stroke-miterlimit:10;}
</style><g><line class="st0" x1="64.6" y1="15.8" x2="64.6" y2="131"></line><line class="st1" x1="69" y1="12.5" x2="69" y2="133.2"></line><line class="st0" x1="73.5" y1="10.9" x2="73.5" y2="136.3"></line><line class="st1" x1="77.9" y1="7.3" x2="77.9" y2="138.3"></line><line class="st0" x1="83.8" y1="11.9" x2="59.9" y2="25.8"></line><line class="st1" x1="83.8" y1="19.7" x2="59.9" y2="31.8"></line><line class="st0" x1="83.8" y1="27.4" x2="59.9" y2="37.8"></line><line class="st1" x1="83.8" y1="35.1" x2="59.9" y2="43.8"></line><line class="st0" x1="83.8" y1="42.8" x2="59.9" y2="49.7"></line><line class="st1" x1="83.8" y1="50.5" x2="59.9" y2="55.7"></line><line class="st0" x1="83.8" y1="58.2" x2="59.9" y2="61.7"></line><line class="st1" x1="83.8" y1="65.9" x2="59.9" y2="67.7"></line><line class="st0" x1="83.8" y1="73.6" x2="59.9" y2="73.6"></line><line class="st1" x1="83.8" y1="81.3" x2="59.9" y2="79.6"></line><line class="st0" x1="83.8" y1="89.1" x2="59.9" y2="85.6"></line><line class="st1" x1="83.8" y1="96.8" x2="59.9" y2="91.6"></line><line class="st0" x1="83.8" y1="104.5" x2="59.9" y2="97.5"></line><line class="st1" x1="83.8" y1="112.2" x2="59.9" y2="103.5"></line><line class="st0" x1="83.8" y1="119.9" x2="59.9" y2="109.5"></line><line class="st1" x1="83.8" y1="127.6" x2="59.9" y2="115.5"></line><line class="st0" x1="83.8" y1="135.3" x2="59.9" y2="121.4"></line><polygon class="st2" points="83.5,142.2 83.5,4 59.4,18.3 59.4,127.9 "></polygon><rect x="2.3" y="18.3" class="st3" width="54.8" height="109.6"></rect><line class="st4" x1="2.3" y1="45.7" x2="57.1" y2="45.7"></line><line class="st4" x1="2.3" y1="73.1" x2="57.1" y2="73.1"></line><line class="st4" x1="2.3" y1="100.5" x2="57.1" y2="100.5"></line><line class="st4" x1="29.7" y1="18.3" x2="29.7" y2="127.9"></line><rect x="2.3" y="18.3" class="st2" width="54.8" height="109.6"></rect></g></svg>