<svg xmlns="http://www.w3.org/2000/svg" version="1.1" xmlns:xlink="http://www.w3.org/1999/xlink" xmlns:svgjs="http://svgjs.dev/svgjs" viewBox="0 0 82.8 138.3" style="" x="0" y="0"><style type="text/css">
	.st0{fill:none;stroke:#B49271;stroke-width:1.5935;stroke-miterlimit:10;}
	.st1{fill:none;stroke:#A57C65;stroke-width:1.5935;stroke-miterlimit:10;}
	.st2{fill:#5C4836;}
	.st3{fill:none;stroke:#F7ECE2;stroke-width:1.75;stroke-miterlimit:10;}
	.st4{fill:none;stroke:#9D7A5F;stroke-width:4.5596;stroke-miterlimit:10;}
</style><g><line class="st0" x1="12" y1="21.1" x2="70.4" y2="21.1"></line><line class="st1" x1="8.7" y1="16.7" x2="72.6" y2="16.7"></line><line class="st0" x1="7.1" y1="12.3" x2="75.7" y2="12.3"></line><line class="st1" x1="4.9" y1="7.8" x2="77.8" y2="7.8"></line><rect x="14" y="26.4" class="st2" width="54.8" height="109.6"></rect><line class="st3" x1="14" y1="53.8" x2="68.8" y2="53.8"></line><line class="st3" x1="14" y1="81.2" x2="68.8" y2="81.2"></line><line class="st3" x1="14" y1="108.6" x2="68.8" y2="108.6"></line><line class="st3" x1="41.4" y1="26.4" x2="41.4" y2="136"></line><rect x="14" y="26.4" class="st4" width="54.8" height="109.6"></rect><line class="st0" x1="10.2" y1="2.3" x2="19.9" y2="25.8"></line><line class="st0" x1="15.9" y1="2.3" x2="23.8" y2="25.8"></line><line class="st0" x1="21.6" y1="2.3" x2="27.7" y2="25.8"></line><line class="st0" x1="27.2" y1="2.3" x2="31.7" y2="25.8"></line><line class="st0" x1="32.9" y1="2.3" x2="35.6" y2="25.8"></line><line class="st0" x1="38.6" y1="2.3" x2="39.5" y2="25.8"></line><line class="st0" x1="44.3" y1="2.3" x2="43.4" y2="25.8"></line><line class="st0" x1="49.9" y1="2.3" x2="47.3" y2="25.8"></line><line class="st0" x1="55.6" y1="2.3" x2="51.2" y2="25.8"></line><line class="st0" x1="61.3" y1="2.3" x2="55.1" y2="25.8"></line><line class="st0" x1="66.9" y1="2.3" x2="59" y2="25.8"></line><line class="st0" x1="72.6" y1="2.3" x2="62.9" y2="25.8"></line><polygon class="st4" points="79.3,2.3 3.5,2.3 14,26.4 68.8,26.4 "></polygon></g></svg>