<svg xmlns="http://www.w3.org/2000/svg" version="1.1" xmlns:xlink="http://www.w3.org/1999/xlink" xmlns:svgjs="http://svgjs.dev/svgjs" viewBox="0 0 110.2 138.3" style="" x="0" y="0"><style type="text/css">
	.st0{fill:none;stroke:#B49271;stroke-width:1.5935;stroke-miterlimit:10;}
	.st1{fill:none;stroke:#A57C65;stroke-width:1.5935;stroke-miterlimit:10;}
	.st2{fill:#5C4836;}
	.st3{fill:none;stroke:#F7ECE2;stroke-width:1.75;stroke-miterlimit:10;}
	.st4{fill:none;stroke:#9D7A5F;stroke-width:4.5596;stroke-miterlimit:10;}
</style><g><line class="st0" x1="12" y1="21.1" x2="97.8" y2="21.1"></line><line class="st1" x1="8.7" y1="16.7" x2="100" y2="16.7"></line><line class="st0" x1="7.1" y1="12.3" x2="103.1" y2="12.3"></line><line class="st1" x1="3.5" y1="7.8" x2="105.1" y2="7.8"></line><rect x="14" y="26.4" class="st2" width="82.2" height="109.6"></rect><line class="st3" x1="14" y1="53.8" x2="96.2" y2="53.8"></line><line class="st3" x1="14" y1="81.2" x2="96.2" y2="81.2"></line><line class="st3" x1="14" y1="108.6" x2="96.2" y2="108.6"></line><line class="st3" x1="41.4" y1="26.4" x2="41.4" y2="136"></line><line class="st3" x1="68.8" y1="26.4" x2="68.8" y2="136"></line><rect x="14" y="26.4" class="st4" width="82.2" height="109.6"></rect><line class="st0" x1="12" y1="2.3" x2="21.7" y2="25.8"></line><line class="st0" x1="18.3" y1="2.3" x2="26.6" y2="25.8"></line><line class="st0" x1="24.5" y1="2.3" x2="31.4" y2="25.8"></line><line class="st0" x1="30.7" y1="2.3" x2="36.3" y2="25.8"></line><line class="st0" x1="37" y1="2.3" x2="41.1" y2="25.8"></line><line class="st0" x1="43.2" y1="2.3" x2="46" y2="25.8"></line><line class="st0" x1="49.4" y1="2.3" x2="50.8" y2="25.8"></line><line class="st0" x1="55.6" y1="2.3" x2="55.6" y2="25.8"></line><line class="st0" x1="61.9" y1="2.3" x2="60.5" y2="25.8"></line><line class="st0" x1="68.1" y1="2.3" x2="65.3" y2="25.8"></line><line class="st0" x1="74.3" y1="2.3" x2="70.2" y2="25.8"></line><line class="st0" x1="80.6" y1="2.3" x2="75" y2="25.8"></line><line class="st0" x1="86.8" y1="2.3" x2="79.9" y2="25.8"></line><line class="st0" x1="93" y1="2.3" x2="84.7" y2="25.8"></line><line class="st0" x1="99.2" y1="2.3" x2="89.5" y2="25.8"></line><polygon class="st4" points="106.7,2.3 3.5,2.3 14,26.4 96.2,26.4 "></polygon></g></svg>