<svg xmlns="http://www.w3.org/2000/svg" version="1.1" xmlns:xlink="http://www.w3.org/1999/xlink" xmlns:svgjs="http://svgjs.dev/svgjs" viewBox="0 0 101.7 107.6" style="" x="0" y="0"><style type="text/css">
	.st0{fill:#5C4836;}
	.st1{fill:none;stroke:#F7ECE2;stroke-width:1.75;stroke-miterlimit:10;}
	.st2{fill:none;stroke:#9D7A5F;stroke-width:3.355;stroke-miterlimit:10;}
	.st3{fill:none;stroke:#B49271;stroke-width:1.1725;stroke-miterlimit:10;}
	.st4{fill:none;stroke:#A57C65;stroke-width:1.1725;stroke-miterlimit:10;}
</style><g><rect x="1.7" y="13.4" transform="matrix(-1.836970e-16 1 -1 -1.836970e-16 95.7846 11.7655)" class="st0" width="80.7" height="80.7"></rect><line class="st1" x1="62.2" y1="13.4" x2="62.2" y2="94.1"></line><line class="st1" x1="42" y1="13.4" x2="42" y2="94.1"></line><line class="st1" x1="21.8" y1="13.4" x2="21.8" y2="94.1"></line><line class="st1" x1="82.3" y1="33.6" x2="1.7" y2="33.6"></line><line class="st1" x1="82.3" y1="53.8" x2="1.7" y2="53.8"></line><line class="st1" x1="82.3" y1="73.9" x2="1.7" y2="73.9"></line><rect x="1.7" y="13.4" transform="matrix(-1.836970e-16 1 -1 -1.836970e-16 95.7846 11.7655)" class="st2" width="80.7" height="80.7"></rect><line class="st3" x1="86.2" y1="11.7" x2="86.2" y2="96.4"></line><line class="st4" x1="89.5" y1="9.2" x2="89.5" y2="98"></line><line class="st3" x1="92.7" y1="8" x2="92.7" y2="100.3"></line><line class="st4" x1="96" y1="5.4" x2="96" y2="101.8"></line><line class="st3" x1="100.3" y1="8.8" x2="82.8" y2="19"></line><line class="st4" x1="100.3" y1="14.5" x2="82.8" y2="23.4"></line><line class="st3" x1="100.3" y1="20.1" x2="82.8" y2="27.8"></line><line class="st4" x1="100.3" y1="25.8" x2="82.8" y2="32.2"></line><line class="st3" x1="100.3" y1="31.5" x2="82.8" y2="36.6"></line><line class="st4" x1="100.3" y1="37.2" x2="82.8" y2="41"></line><line class="st3" x1="100.3" y1="42.8" x2="82.8" y2="45.4"></line><line class="st4" x1="100.3" y1="48.5" x2="82.8" y2="49.8"></line><line class="st3" x1="100.3" y1="54.2" x2="82.8" y2="54.2"></line><line class="st4" x1="100.3" y1="59.9" x2="82.8" y2="58.6"></line><line class="st3" x1="100.3" y1="65.5" x2="82.8" y2="63"></line><line class="st4" x1="100.3" y1="71.2" x2="82.8" y2="67.4"></line><line class="st3" x1="100.3" y1="76.9" x2="82.8" y2="71.8"></line><line class="st4" x1="100.3" y1="82.6" x2="82.8" y2="76.2"></line><line class="st3" x1="100.3" y1="88.2" x2="82.8" y2="80.6"></line><line class="st4" x1="100.3" y1="93.9" x2="82.8" y2="85"></line><line class="st3" x1="100.3" y1="99.6" x2="82.8" y2="89.4"></line><polygon class="st2" points="100.1,104.6 100.1,2.9 82.3,13.4 82.3,94.1 "></polygon></g></svg>