<svg xmlns="http://www.w3.org/2000/svg" version="1.1" xmlns:xlink="http://www.w3.org/1999/xlink" xmlns:svgjs="http://svgjs.dev/svgjs" viewBox="0 0 108 108" style="" x="0" y="0"><style type="text/css">
	.st0{fill:#5C4836;}
	.st1{fill:none;stroke:#F7ECE2;stroke-width:1.7376;stroke-miterlimit:10;}
	.st2{fill:none;stroke:#9D7A5F;stroke-width:3.3312;stroke-miterlimit:10;}
	.st3{fill:none;stroke:#B49271;stroke-width:1.1642;stroke-miterlimit:10;}
	.st4{fill:none;stroke:#A57C65;stroke-width:1.1642;stroke-miterlimit:10;}
</style><g><rect x="14" y="22.2" class="st0" width="80.1" height="80.1"></rect><line class="st1" x1="14" y1="42.3" x2="94.1" y2="42.3"></line><line class="st1" x1="14" y1="62.3" x2="94.1" y2="62.3"></line><line class="st1" x1="14" y1="82.3" x2="94.1" y2="82.3"></line><line class="st1" x1="34" y1="22.2" x2="34" y2="102.3"></line><line class="st1" x1="54.1" y1="22.2" x2="54.1" y2="102.3"></line><line class="st1" x1="74.1" y1="22.2" x2="74.1" y2="102.3"></line><rect x="14" y="22.2" class="st2" width="80.1" height="80.1"></rect><line class="st3" x1="12.2" y1="18.4" x2="96.4" y2="18.4"></line><line class="st4" x1="9.8" y1="15.2" x2="98" y2="15.2"></line><line class="st3" x1="8.7" y1="11.9" x2="100.2" y2="11.9"></line><line class="st4" x1="6" y1="8.7" x2="101.7" y2="8.7"></line><line class="st3" x1="9.4" y1="4.4" x2="19.5" y2="21.8"></line><line class="st4" x1="15" y1="4.4" x2="23.9" y2="21.8"></line><line class="st3" x1="20.7" y1="4.4" x2="28.3" y2="21.8"></line><line class="st4" x1="26.3" y1="4.4" x2="32.6" y2="21.8"></line><line class="st3" x1="31.9" y1="4.4" x2="37" y2="21.8"></line><line class="st4" x1="37.6" y1="4.4" x2="41.4" y2="21.8"></line><line class="st3" x1="43.2" y1="4.4" x2="45.7" y2="21.8"></line><line class="st4" x1="48.8" y1="4.4" x2="50.1" y2="21.8"></line><line class="st3" x1="54.5" y1="4.4" x2="54.5" y2="21.8"></line><line class="st4" x1="60.1" y1="4.4" x2="58.8" y2="21.8"></line><line class="st3" x1="65.7" y1="4.4" x2="63.2" y2="21.8"></line><line class="st4" x1="71.4" y1="4.4" x2="67.6" y2="21.8"></line><line class="st3" x1="77" y1="4.4" x2="71.9" y2="21.8"></line><line class="st4" x1="82.6" y1="4.4" x2="76.3" y2="21.8"></line><line class="st3" x1="88.3" y1="4.4" x2="80.7" y2="21.8"></line><line class="st4" x1="93.9" y1="4.4" x2="85" y2="21.8"></line><line class="st3" x1="99.5" y1="4.4" x2="89.4" y2="21.8"></line><polygon class="st2" points="104.5,4.6 3.6,4.6 14,22.2 94.1,22.2 "></polygon></g></svg>