<?xml version="1.0" encoding="utf-8"?>
<!-- Generator: Adobe Illustrator 27.3.1, SVG Export Plug-In . SVG Version: 6.00 Build 0)  -->
<svg version="1.1" id="Layer_1" xmlns="http://www.w3.org/2000/svg" xmlns:xlink="http://www.w3.org/1999/xlink" x="0px" y="0px"
	 viewBox="0 0 108 108" style="enable-background:new 0 0 108 108;" xml:space="preserve">
<style type="text/css">
	.st0{fill:#9B693C;}
	.st1{fill:#946330;}
	.st2{fill:#9C6A45;}
	.st3{fill:#C78D51;}
	.st4{fill:#9B6943;}
	.st5{fill:#C78650;}
	.st6{fill:#B17846;}
</style>
<g>
	<polygon class="st0" points="40.8,22.1 40.8,98.4 39.7,98.8 39.7,21.9 	"/>
	<polygon class="st0" points="87.3,17.3 87.3,103.7 86.1,103.7 83.2,103.3 82.7,17.8 	"/>
	<polygon class="st1" points="81.1,32.2 81.1,94.2 79.9,94.2 79.5,31.7 	"/>
	<polygon class="st1" points="77.7,30.7 76.9,95.5 75.7,95.5 76.2,30.7 	"/>
	<path class="st2" d="M92.2,14.5L68,0.9h-1.3c0,0,0,0.3,0.6,0.8S68,2.5,68.2,3c0.3,0.5,0.7,1,0.7,1l21.2,11.7L92.2,14.5z"/>
	<path class="st2" d="M85.7,17.5L58.7,3h-1.6c0,0,0.5,0,1,0.8c0.5,0.8,0.3,1.7,0.5,1.8s2.1,1.5,2.1,1.5l19.6,10.2L85.7,17.5"/>
	<path class="st2" d="M78.5,18.4L49.4,4.3H48c0,0,0.7,0.8,1.1,1.3c0.4,0.5,0.9,1,0.9,1l0.7,0.4L74,18L78.5,18.4"/>
	<path class="st2" d="M69,18.4L40.8,5.6h-1.4c0,0,0.1,0.5,0.5,0.7c0.5,0.3,0.5,0.2,0.9,0.8c0.4,0.6,0.8,1.3,1.1,1.2
		c0.3,0,1.2,0.2,1.2,0.2l21.7,9.8H69z"/>
	<path class="st2" d="M62.4,19.2L32.1,6.8h-1.2c0,0,1.4,1.3,1.9,1.8c0.5,0.5,1.1,0.7,1.1,0.7l23,9.6L62.4,19.2z"/>
	<path class="st2" d="M53.8,20.2L24.6,7.8h-1.5c0,0,0.7,0.9,1.3,1.4C25,9.7,25.6,10,25.6,10l1.2,0.7l23,9.5H53.8z"/>
	<path class="st2" d="M46.5,20.2l-29.2-11h-1.3c0,0,1.4,0.8,1.7,1.2s1,0.7,1.2,0.9c0.2,0.3,22.8,9.5,22.8,9.5L46.5,20.2z"/>
	<path class="st3" d="M98.4,8.3L29.2,18.6v2.2c0,0,1.5,0.1,1.9,0c0.4-0.1,0.4-1,1.3,0s0.6,1.4,1.3,1.8s0.7,0.4,0.7,0.4h1.2l56.5-6.3
		l0.1-1.4c0,0,2-0.1,2.5-1c0.5-0.9,0.7-1.8,1.3-2s2.3-0.4,2.3-0.4V8.3z"/>
	<polygon class="st4" points="38,17.3 38,21.5 37,21.5 22.8,16.5 22.5,12 	"/>
	<polygon class="st4" points="85.4,10.7 85.4,15.7 84.2,16.7 70.7,9.4 75,6.6 77.4,6.2 	"/>
	<polygon class="st5" points="86.9,17.3 86.9,103.7 85.7,103.7 82.1,103.1 81.6,17.6 	"/>
	<polygon class="st6" points="84.6,33 72.9,28.6 72.9,30.8 84.6,35 	"/>
	<polygon class="st6" points="84.6,40.4 72.9,37.1 72.9,39.3 84.6,42.5 	"/>
	<polygon class="st6" points="84.6,47.9 72.9,45 72.9,47.2 84.6,50 	"/>
	<polygon class="st6" points="84.6,54.8 72.9,53.6 72.9,55.8 84.6,56.9 	"/>
	<polygon class="st6" points="84.1,62.4 72.5,61.8 72.5,64 84.1,64.5 	"/>
	<polygon class="st6" points="84.1,69.9 72.5,69.8 72.5,72 84.1,72 	"/>
	<polygon class="st6" points="84.1,77.3 72.5,78.2 72.5,80.4 84.1,79.3 	"/>
	<polygon class="st6" points="84.1,84.6 72.5,87.2 72.5,89.4 84.1,86.6 	"/>
	<polygon class="st6" points="84.1,91.9 72.9,96 72.9,98.2 84.1,93.9 	"/>
	<polygon class="st1" points="33.9,35.2 33.7,91.7 32.5,91.7 32.3,35.2 	"/>
	<polygon class="st1" points="29.7,33.8 28.7,92.5 27.5,92.5 28.1,33.8 	"/>
	<polygon class="st0" points="72.5,10.4 72.5,106.7 74,106.1 74,11.4 	"/>
	<polygon class="st5" points="67.5,10.9 67.5,106.2 72.5,106.7 72.5,10.4 	"/>
	<polygon class="st5" points="35.7,23.1 35.7,98.8 39.7,98.8 39.7,22.4 	"/>
	<polygon class="st6" points="38.1,36 24.5,32 24.5,34.2 38.1,38 	"/>
	<polygon class="st6" points="38.1,43.1 24.5,39.4 24.5,41.6 38.1,45.1 	"/>
	<polygon class="st6" points="38.1,49.9 25,46.9 25,49.1 38.1,51.9 	"/>
	<polygon class="st6" points="38.1,56 24.5,54.9 24.5,57.1 38.1,58.1 	"/>
	<polygon class="st6" points="37.7,62.8 25,62.1 25,64.3 37.7,64.8 	"/>
	<polygon class="st6" points="37.7,69.4 24.5,69.3 24.5,71.5 37.7,71.5 	"/>
	<polygon class="st6" points="37.7,76.1 24.5,76.6 24.5,78.8 37.7,78.1 	"/>
	<polygon class="st6" points="37.7,82.9 24.3,84.2 24.3,86.4 37.7,84.9 	"/>
	<polygon class="st6" points="37.7,90 24.5,91.7 24.5,93.9 37.7,92.1 	"/>
	<polygon class="st0" points="25,17.3 25,102.1 23.5,102.6 23.5,16.7 	"/>
	<polygon class="st5" points="18.8,16.4 18.8,101.4 23.5,102.6 23.5,15.2 	"/>
	<path class="st3" d="M85,2.7L11,13.6v1c0,0,0.9-0.3,1.7,0c0.8,0.3,1.1,0,1.6,0.8c0.5,0.7,0.5,0.9,1,1.2s0.5,0.5,0.7,0.7
		c0.2,0.2,1.2,0.7,1.2,0.7L78,10.1l-0.1-2.3c0,0,1.9-0.2,2.3-0.7s1.8-2.6,2.4-2.9S85,3.7,85,3.7V2.7z"/>
</g>
</svg>
