<?xml version="1.0" encoding="utf-8"?>
<!-- Generator: Adobe Illustrator 27.3.1, SVG Export Plug-In . SVG Version: 6.00 Build 0)  -->
<svg version="1.1" id="Layer_1" xmlns="http://www.w3.org/2000/svg" xmlns:xlink="http://www.w3.org/1999/xlink" x="0px" y="0px"
	 viewBox="0 0 108 108" style="enable-background:new 0 0 108 108;" xml:space="preserve">
<style type="text/css">
	.st0{fill:#6A4519;}
	.st1{fill:#8C5B29;}
	.st2{fill:#7C5122;}
	.st3{fill:#AA6F37;}
	.st4{fill:#8B4E1E;}
</style>
<g>
	<path class="st0" d="M49.9,11.2c14,3.6,19,15.2,19.5,22.8l2.6-0.2l-1.4-8.6L60,12.6l-6.1-2.4l-2.5-0.4L49.9,11.2z"/>
	<path class="st1" d="M50.6,7.2c12,1.3,23.1,14.2,23.1,26.8l-2.9-0.4c-0.7-7.2-6.6-21.1-22.5-23.2L50.6,7.2z"/>
	<path class="st2" d="M44.8,7.4C24.3,8.9,20.8,29.8,20.6,33h2.6l5.9-14.7c0,0,10.1-7.6,10.2-7.7c0.2-0.1,3.6-1.4,3.8-1.5
		C43.4,8.9,44.8,7.4,44.8,7.4z"/>
	<path class="st1" d="M60.1,8.9C79.5,12.1,82,29.8,82.6,34.2l2.6-1l-6.1-16.1L70,9.9c0,0-4-1.3-4.4-1.3c-0.4-0.1-4.6-0.5-4.6-0.5
		L60.1,8.9z"/>
	<polygon class="st3" points="83,31.1 70.5,31.8 70.5,33.2 83,32.7 	"/>
	<path class="st3" d="M79.4,21.5c-0.1,0-12.1,1.1-12.1,1.1l0.6,1.1l12.2-0.9L79.4,21.5z"/>
	<polygon class="st1" points="79.1,20.8 67.6,21.9 67.3,22.6 79.4,21.5 	"/>
	<path class="st3" d="M72.9,13.7c-0.1,0-11.9,1.6-11.9,1.6l0.9,0.8l11.8-1.4L72.9,13.7z"/>
	<path class="st1" d="M71.6,13c-0.5,0-10.2,1.2-10.2,1.2L61,15.3l11.9-1.6L71.6,13z"/>
	<polygon class="st3" points="65.1,9.7 53.4,11.6 52.8,10.9 64.5,8.9 	"/>
	<polygon class="st1" points="32.4,31 24.3,32.1 23.4,31.5 32.7,30.7 	"/>
	<polygon class="st3" points="74.1,33.6 74.1,102 70.2,102.6 70.2,33.6 	"/>
	<polygon class="st2" points="68.5,33.6 68.5,101.1 70.2,102.6 70.2,33.6 	"/>
	<polygon class="st3" points="26,32.4 26,104.5 21.8,105.2 21.8,32.4 	"/>
	<polygon class="st2" points="20,32.4 20,104.2 21.8,105.2 21.8,32.4 	"/>
	<polygon class="st4" points="72.9,66 73.7,64.6 74.4,63.3 75.2,62 75.8,60.9 76.6,59.5 77.4,58.1 78.2,56.8 78.9,55.5 79.7,54.2 
		80.4,52.9 81.2,51.5 82,50.1 82,52.7 81.9,52.9 81.1,54.2 80.4,55.6 79.6,56.9 78.9,58.2 78.1,59.5 77.3,60.9 76.6,62.3 75.9,63.4 
		75.1,64.7 74.4,66 73.6,67.4 72.9,68.6 72.9,68.5 72.9,66.1 	"/>
	<polygon class="st4" points="72.9,71.5 73.7,70.2 74.4,68.9 75.2,67.5 75.9,66.2 76.7,64.9 77.3,63.7 78.1,62.4 78.9,60.9 
		79.6,59.6 80.3,58.3 81.1,57 81.9,55.6 81.9,55.8 82,55.7 82,58 81.8,58.4 81,59.7 80.3,60.9 79.6,62.3 78.8,63.8 78,65.1 
		77.4,66.2 76.6,67.6 75.9,68.9 75.1,70.3 74.4,71.6 73.6,73 73,74 72.9,73.7 72.9,71.6 	"/>
	<polygon class="st4" points="73,76.8 73.7,75.4 74.3,74.4 75.1,73.1 75.9,71.8 76.6,70.4 77.4,69.1 78.2,67.8 78.8,66.7 79.6,65.3 
		80.4,63.9 81.2,62.5 81.9,61.4 82,61.7 82,63.7 81.9,63.9 81.1,65.2 80.3,66.7 79.5,68 78.9,69.2 78.1,70.5 77.3,71.8 76.6,73.2 
		75.8,74.5 75,75.8 74.4,76.9 73.6,78.2 73,79.3 72.9,79 72.9,77 	"/>
	<polygon class="st4" points="73.1,82.4 73.9,81 74.5,79.9 75.3,78.6 75.8,77.5 76.6,76.1 77.4,74.8 78.2,73.4 78.9,72.1 79.7,70.7 
		80.3,69.6 81.1,68.2 81.9,66.7 82,66.9 82,69.2 81.8,69.6 81,71 80.4,72.1 79.6,73.5 78.9,74.8 78.1,76.2 77.3,77.6 76.5,78.9 
		76,80 75.2,81.3 74.6,82.4 73.8,83.8 73.2,85 72.9,84.4 72.9,82.8 	"/>
	<polygon class="st4" points="73.1,87.8 73.9,86.4 74.5,85.2 75.3,83.9 75.9,82.9 76.7,81.5 77.3,80.5 78.1,79.1 78.9,77.8 
		79.7,76.4 80.4,75.1 81.2,73.7 81.9,72.6 82,72.9 82,75 81.9,75.1 81.2,76.4 80.4,77.8 79.6,79.1 78.8,80.6 78,81.9 77.4,82.9 
		76.6,84.3 76,85.3 75.2,86.6 74.6,87.8 73.8,89.2 72.9,90.7 72.9,88.1 	"/>
	<polygon class="st4" points="75.3,89.3 76,88.1 76.8,86.9 77.4,85.9 78.2,84.6 78.8,83.6 79.6,82.3 80.5,80.9 81.3,79.7 82,78.5 
		82,81 82,81 81.2,82.3 80.3,83.7 79.5,85 78.9,86 78.1,87.3 77.5,88.2 76.7,89.5 76,90.7 75.7,91.1 75.5,91.5 74.9,91.4 74.6,90.9 
		74.5,90.6 	"/>
	<polygon class="st4" points="78.4,90 79,89.1 79.8,87.7 80.4,86.8 81.2,85.4 82,84 82,86.5 81.8,86.8 81,88.2 80.4,89.1 79.6,90.5 
		79.1,91.4 78.9,91.7 78.6,92.2 77.9,92 77.7,91.5 77.6,91.3 	"/>
	<polygon class="st4" points="80.5,92.2 81.3,90.8 81.9,89.9 81.9,90 82,90 82,92.1 82,92.2 81.6,92.8 80.7,92.6 80.3,92.5 	"/>
	<polygon class="st4" points="73.6,48.1 74.4,46.7 74.7,46.1 75.5,46.1 76.2,46.1 75.9,46.8 75.1,48.1 74.3,49.4 73.5,50.8 
		72.9,51.9 72.9,49.6 72.9,49.3 	"/>
	<polygon class="st4" points="73.5,53.5 74.3,52.2 75,50.9 75.8,49.5 76.6,48.2 77.3,46.9 77.7,46.2 78.4,46.2 79.2,46.2 78.8,47 
		78,48.3 77.3,49.6 76.5,50.9 75.8,52.3 75,53.6 74.3,54.9 73.5,56.3 72.9,57.4 72.9,55.1 72.9,54.7 	"/>
	<polygon class="st4" points="72.9,60.4 73.7,59 74.3,57.9 75.1,56.5 75.8,55.1 76.6,53.8 77.3,52.5 78.1,51.1 78.8,49.8 79.5,48.4 
		80.4,46.9 80.7,46.3 81.6,46.3 82,46.3 82,46.7 81.9,46.9 81.2,48.2 80.3,49.8 79.5,51.2 78.8,52.5 78,53.9 77.3,55.2 76.5,56.5 
		75.8,57.9 75,59.3 74.4,60.4 73.6,61.8 72.9,63 72.9,62.9 72.9,60.4 	"/>
	<path class="st3" d="M81.2,48.2l0.7-1.3c0,0.1,0.1,0.1,0.1,0.2v2.5C81.8,49.2,81.5,48.7,81.2,48.2z"/>
	<polygon class="st3" points="79.5,51.2 80.3,49.8 81.2,51.5 80.4,52.9 	"/>
	<polygon class="st3" points="81.9,55.6 81.1,54.2 81.9,52.9 82,53.1 82,55.3 	"/>
	<polygon class="st3" points="78.8,49.8 78,48.3 78.8,47 79.5,48.4 	"/>
	<polygon class="st3" points="76.5,50.9 77.3,49.6 78.1,51.1 77.3,52.5 	"/>
	<polygon class="st3" points="81.9,61.4 81,59.7 81.8,58.4 82,58.8 82,61.1 	"/>
	<polygon class="st3" points="75.8,49.5 75.1,48.1 75.9,46.8 76.6,48.2 	"/>
	<polygon class="st3" points="79.6,56.9 80.4,55.6 81.1,57 80.3,58.3 	"/>
	<polygon class="st3" points="78,53.9 78.8,52.5 79.7,54.2 78.9,55.5 	"/>
	<polygon class="st3" points="79.6,62.3 80.3,60.9 81.2,62.5 80.4,63.9 	"/>
	<polygon class="st3" points="78.1,59.5 78.9,58.2 79.6,59.6 78.9,60.9 	"/>
	<polygon class="st3" points="72.9,46.8 73.6,48.1 72.9,49.3 	"/>
	<polygon class="st3" points="81.9,66.7 81.1,65.2 81.9,63.9 82,64.1 82,66.5 	"/>
	<polygon class="st3" points="75.8,55.1 75,53.6 75.8,52.3 76.6,53.8 	"/>
	<polygon class="st3" points="74.3,52.2 73.5,50.8 74.3,49.4 75,50.9 	"/>
	<polygon class="st3" points="76.5,56.5 77.3,55.2 78.2,56.8 77.4,58.1 	"/>
	<polygon class="st3" points="78.1,62.4 77.3,63.7 76.6,62.3 77.3,60.9 	"/>
	<polygon class="st3" points="81.9,72.6 81,71 81.8,69.6 82,70.1 82,72.4 	"/>
	<polygon class="st3" points="78,65.1 78.8,63.8 79.6,65.3 78.8,66.7 	"/>
	<polygon class="st3" points="74.3,57.9 73.5,56.3 74.3,54.9 75.1,56.5 	"/>
	<polygon class="st3" points="79.5,68 80.3,66.7 81.1,68.2 80.3,69.6 	"/>
	<polygon class="st3" points="76.6,59.5 75.8,60.9 75,59.3 75.8,57.9 	"/>
	<polygon class="st3" points="72.9,54.7 72.9,52.2 73.5,53.5 	"/>
	<polygon class="st3" points="78.2,67.8 77.4,69.1 76.6,67.6 77.4,66.2 	"/>
	<polygon class="st3" points="79.6,73.5 80.4,72.1 81.2,73.7 80.4,75.1 	"/>
	<polygon class="st3" points="75.2,62 74.4,63.3 73.6,61.8 74.4,60.4 	"/>
	<polygon class="st3" points="78.1,70.5 78.9,69.2 79.7,70.7 78.9,72.1 	"/>
	<polygon class="st3" points="73.7,59 72.9,60.4 72.9,60.3 72.9,57.4 	"/>
	<polygon class="st3" points="81.2,76.4 81.9,75.1 82,75.3 82,78.1 	"/>
	<polygon class="st3" points="76.7,64.9 75.9,66.2 75.1,64.7 75.9,63.4 	"/>
	<polygon class="st3" points="78.9,74.8 79.7,76.4 78.9,77.8 78.1,76.2 	"/>
	<polygon class="st3" points="81.2,82.3 82,81 82,81.1 82,84 	"/>
	<polygon class="st3" points="75.2,67.5 74.4,68.9 73.6,67.4 74.4,66 	"/>
	<polygon class="st3" points="72.9,63 73.7,64.6 72.9,66 72.9,65.8 72.9,63.1 	"/>
	<polygon class="st3" points="76.6,70.4 75.9,71.8 75.1,70.3 75.9,68.9 	"/>
	<polygon class="st3" points="79.6,79.1 80.4,77.8 81.3,79.7 80.5,80.9 	"/>
	<polygon class="st3" points="78.2,73.4 77.4,74.8 76.6,73.2 77.3,71.8 	"/>
	<polygon class="st3" points="78.1,79.1 77.3,80.5 76.5,78.9 77.3,77.6 	"/>
	<polygon class="st3" points="81.2,85.4 80.4,86.8 79.5,85 80.3,83.7 	"/>
	<polygon class="st3" points="72.9,68.6 73.7,70.2 72.9,71.5 72.9,71.4 72.9,68.7 	"/>
	<polygon class="st3" points="75.1,73.1 74.3,74.4 73.6,73 74.4,71.6 	"/>
	<polygon class="st3" points="78.8,80.6 79.6,82.3 78.8,83.6 78,81.9 	"/>
	<polygon class="st3" points="76.6,76.1 75.8,77.5 75,75.8 75.8,74.5 	"/>
	<polygon class="st3" points="81.9,89.9 81,88.2 81.8,86.8 82,87.2 82,89.6 	"/>
	<polygon class="st3" points="72.9,68.5 72.9,68.6 72.9,68.7 	"/>
	<polygon class="st3" points="78.2,84.6 77.4,85.9 76.6,84.3 77.4,82.9 	"/>
	<polygon class="st3" points="76.7,81.5 75.9,82.9 75.2,81.3 76,80 	"/>
	<polygon class="st3" points="78.9,86 79.8,87.7 79,89.1 78.1,87.3 	"/>
	<polygon class="st3" points="73,74 73.7,75.4 73,76.8 72.9,76.6 72.9,74.3 	"/>
	<polygon class="st3" points="81.3,90.8 80.5,92.2 79.6,90.5 80.4,89.1 	"/>
	<polygon class="st3" points="75.3,78.6 74.5,79.9 73.6,78.2 74.4,76.9 	"/>
	<polygon class="st3" points="78.4,90 77.6,91.3 76.7,89.5 77.5,88.2 	"/>
	<polygon class="st3" points="75.3,83.9 74.5,85.2 73.8,83.8 74.6,82.4 	"/>
	<polygon class="st3" points="76,85.3 76.8,86.9 76,88.1 75.2,86.6 	"/>
	<polygon class="st3" points="73,79.3 73.9,81 73.1,82.4 72.9,81.9 72.9,79.6 	"/>
	<polygon class="st3" points="73.2,85 73.9,86.4 73.1,87.8 72.9,87.3 72.9,85.5 	"/>
	<polygon class="st3" points="75.3,89.3 74.5,90.6 73.8,89.2 74.6,87.8 	"/>
	<polygon class="st3" points="72.9,62.9 72.9,63 72.9,63.1 	"/>
	<polygon class="st3" points="81.9,55.6 82,55.3 82,55.7 81.9,55.8 	"/>
	<polygon class="st3" points="72.9,73.7 73,74 72.9,74.3 	"/>
	<polygon class="st3" points="82,61.7 81.9,61.4 82,61.1 	"/>
	<polygon class="st3" points="72.9,79 73,79.3 72.9,79.6 	"/>
	<polygon class="st3" points="82,66.9 81.9,66.7 82,66.5 	"/>
	<polygon class="st3" points="72.9,84.4 73.2,85 72.9,85.5 	"/>
	<polygon class="st3" points="82,72.9 81.9,72.6 82,72.4 	"/>
	<polygon class="st3" points="81.9,89.9 82,89.6 82,90 81.9,90 	"/>
	<polygon class="st3" points="82,92.2 82,92.3 82,92.9 81.6,92.8 	"/>
	<polygon class="st3" points="79.1,91.4 79.6,92.4 78.6,92.2 	"/>
	<polygon class="st3" points="75.7,93.1 75.7,93.1 75.7,93.1 	"/>
	<polygon class="st3" points="76,90.7 76.5,91.7 75.5,91.5 	"/>
	<polygon class="st3" points="72.9,49.6 72.8,49.4 72.9,49.3 	"/>
	<polygon class="st3" points="72.9,55.1 72.8,54.9 72.9,54.7 	"/>
	<path class="st3" d="M80.7,46.3l-0.3,0.6c-0.1-0.2-0.3-0.4-0.4-0.6L80.7,46.3z"/>
	<polygon class="st3" points="77.7,46.2 77.3,46.9 76.9,46.2 	"/>
	<polygon class="st3" points="74.4,46.7 74,46.1 74.7,46.1 	"/>
	<polygon class="st3" points="82.2,46.4 82,46.7 82,46.3 	"/>
	<polygon class="st4" points="23.9,66.8 24.6,65.3 25.3,63.8 26,62.3 26.6,61.1 27.3,59.6 28.1,58 28.8,56.5 29.5,55.1 30.2,53.6 
		30.9,52.1 31.6,50.6 32.4,49 32.4,51.8 32.3,52 31.6,53.5 30.9,55 30.2,56.6 29.5,57.9 28.8,59.4 28,61 27.3,62.5 26.7,63.8 
		26,65.3 25.3,66.7 24.6,68.2 23.9,69.6 23.9,69.4 23.8,66.9 	"/>
	<polygon class="st4" points="24,72.7 24.7,71.2 25.4,69.8 26.1,68.3 26.8,66.8 27.5,65.3 28.1,64 28.8,62.5 29.5,60.9 30.2,59.4 
		30.9,58 31.6,56.5 32.3,54.9 32.4,55.1 32.5,55.1 32.5,57.5 32.3,57.9 31.6,59.4 31,60.8 30.2,62.3 29.5,63.9 28.8,65.4 28.2,66.7 
		27.5,68.2 26.8,69.7 26.1,71.2 25.4,72.7 24.7,74.2 24.1,75.4 23.9,75 23.9,72.9 	"/>
	<polygon class="st4" points="24.1,78.4 24.8,76.9 25.4,75.7 26.1,74.2 26.8,72.7 27.5,71.2 28.2,69.8 29,68.3 29.6,67 30.3,65.5 
		31.1,63.9 31.8,62.4 32.4,61.1 32.6,61.4 32.6,63.6 32.5,63.8 31.8,65.3 31,67 30.3,68.5 29.7,69.7 28.9,71.2 28.2,72.7 27.5,74.2 
		26.8,75.6 26,77.2 25.5,78.3 24.8,79.8 24.2,81 24,80.7 24,78.5 	"/>
	<polygon class="st4" points="24.3,84.3 25,82.8 25.6,81.6 26.3,80.1 26.9,78.9 27.6,77.4 28.3,75.8 29,74.3 29.7,72.8 30.5,71.3 
		31,70 31.8,68.5 32.6,66.8 32.7,67 32.7,69.5 32.5,70 31.8,71.5 31.2,72.7 30.4,74.2 29.7,75.8 29,77.3 28.3,78.8 27.6,80.4 
		27,81.5 26.3,83.1 25.7,84.3 25,85.8 24.4,87.1 24.1,86.5 24.1,84.8 	"/>
	<polygon class="st4" points="24.4,90.1 25.1,88.6 25.7,87.3 26.5,85.8 27,84.6 27.8,83.1 28.3,82 29.1,80.5 29.8,78.9 30.5,77.4 
		31.3,75.9 32,74.4 32.6,73.2 32.7,73.5 32.8,75.7 32.7,75.8 32,77.3 31.2,78.8 30.5,80.3 29.7,81.9 29,83.4 28.5,84.6 27.7,86.1 
		27.2,87.2 26.4,88.7 25.8,90 25.1,91.5 24.2,93.3 24.2,90.5 	"/>
	<polygon class="st4" points="26.5,91.6 27.2,90.3 27.9,88.8 28.5,87.7 29.3,86.3 29.8,85.2 30.6,83.7 31.4,82.2 32.2,80.8 
		32.8,79.5 32.9,82.1 32.8,82.2 32.1,83.6 31.3,85.2 30.5,86.6 29.9,87.7 29.2,89.2 28.6,90.2 27.9,91.7 27.2,93 27,93.4 26.7,93.9 
		26.1,93.8 25.9,93.3 25.8,93 	"/>
	<polygon class="st4" points="29.5,92.1 30.1,91 30.8,89.5 31.4,88.4 32.1,87 32.9,85.4 33,88.1 32.8,88.4 32,89.9 31.5,91 
		30.7,92.5 30.2,93.5 30,93.9 29.8,94.4 29.1,94.3 28.9,93.7 28.8,93.6 	"/>
	<polygon class="st4" points="31.6,94.2 32.3,92.7 32.9,91.6 32.9,91.8 33,91.8 33.1,94 33,94.2 32.7,94.8 31.8,94.7 31.4,94.6 	"/>
	<polygon class="st4" points="24.2,47.6 25,46 25.3,45.3 26.1,45.3 26.7,45.3 26.4,46 25.7,47.5 24.9,49 24.2,50.4 23.6,51.7 
		23.6,49.2 23.6,48.9 	"/>
	<polygon class="st4" points="24.3,53.4 25,51.9 25.7,50.4 26.4,48.9 27.1,47.4 27.8,46 28.2,45.2 28.8,45.2 29.6,45.1 29.2,45.9 
		28.5,47.4 27.8,48.9 27.1,50.4 26.4,51.9 25.7,53.4 25,54.8 24.3,56.3 23.7,57.6 23.6,55.1 23.6,54.7 	"/>
	<polygon class="st4" points="23.8,60.8 24.5,59.2 25.1,58 25.8,56.5 26.5,54.9 27.2,53.4 27.9,52 28.6,50.4 29.3,49 30,47.5 
		30.8,45.7 31.1,45.1 31.9,45 32.3,45 32.3,45.4 32.2,45.6 31.6,47 30.7,48.9 30,50.4 29.3,51.9 28.6,53.4 27.9,54.8 27.2,56.4 
		26.5,57.9 25.8,59.4 25.2,60.7 24.5,62.2 23.8,63.6 23.8,63.5 23.7,60.8 	"/>
	<path class="st3" d="M31.6,47l0.7-1.5c0,0.1,0.1,0.1,0.1,0.2l0,2.7C32.2,48.1,31.9,47.6,31.6,47z"/>
	<polygon class="st3" points="30,50.4 30.7,48.9 31.6,50.6 30.9,52.1 	"/>
	<polygon class="st3" points="32.3,54.9 31.6,53.5 32.3,52 32.4,52.3 32.5,54.6 	"/>
	<polygon class="st3" points="29.3,49 28.5,47.4 29.2,45.9 30,47.5 	"/>
	<polygon class="st3" points="27.1,50.4 27.8,48.9 28.6,50.4 27.9,52 	"/>
	<polygon class="st3" points="32.4,61.1 31.6,59.4 32.3,57.9 32.5,58.4 32.6,60.8 	"/>
	<polygon class="st3" points="26.4,48.9 25.7,47.5 26.4,46 27.1,47.4 	"/>
	<polygon class="st3" points="30.2,56.6 30.9,55 31.6,56.5 30.9,58 	"/>
	<polygon class="st3" points="28.6,53.4 29.3,51.9 30.2,53.6 29.5,55.1 	"/>
	<polygon class="st3" points="30.2,62.3 31,60.8 31.8,62.4 31.1,63.9 	"/>
	<polygon class="st3" points="28.8,59.4 29.5,57.9 30.2,59.4 29.5,60.9 	"/>
	<polygon class="st3" points="23.5,46.2 24.2,47.6 23.6,48.9 	"/>
	<polygon class="st3" points="32.6,66.8 31.8,65.3 32.5,63.8 32.6,64 32.6,66.6 	"/>
	<polygon class="st3" points="26.5,54.9 25.7,53.4 26.4,51.9 27.2,53.4 	"/>
	<polygon class="st3" points="25,51.9 24.2,50.4 24.9,49 25.7,50.4 	"/>
	<polygon class="st3" points="27.2,56.4 27.9,54.8 28.8,56.5 28.1,58 	"/>
	<polygon class="st3" points="28.8,62.5 28.1,64 27.3,62.5 28,61 	"/>
	<polygon class="st3" points="32.6,73.2 31.8,71.5 32.5,70 32.7,70.4 32.7,72.9 	"/>
	<polygon class="st3" points="28.8,65.4 29.5,63.9 30.3,65.5 29.6,67 	"/>
	<polygon class="st3" points="25.1,58 24.3,56.3 25,54.8 25.8,56.5 	"/>
	<polygon class="st3" points="30.3,68.5 31,67 31.8,68.5 31,70 	"/>
	<polygon class="st3" points="27.3,59.6 26.6,61.1 25.8,59.4 26.5,57.9 	"/>
	<polygon class="st3" points="23.6,54.7 23.6,52.1 24.3,53.4 	"/>
	<polygon class="st3" points="29,68.3 28.2,69.8 27.5,68.2 28.2,66.7 	"/>
	<polygon class="st3" points="30.4,74.2 31.2,72.7 32,74.4 31.3,75.9 	"/>
	<polygon class="st3" points="26,62.3 25.3,63.8 24.5,62.2 25.2,60.7 	"/>
	<polygon class="st3" points="28.9,71.2 29.7,69.7 30.5,71.3 29.7,72.8 	"/>
	<polygon class="st3" points="24.5,59.2 23.8,60.8 23.7,60.7 23.7,57.7 	"/>
	<polygon class="st3" points="32,77.3 32.7,75.8 32.8,76 32.8,79.1 	"/>
	<polygon class="st3" points="27.5,65.3 26.8,66.8 26,65.3 26.7,63.8 	"/>
	<polygon class="st3" points="29.7,75.8 30.5,77.4 29.8,78.9 29,77.3 	"/>
	<polygon class="st3" points="32.1,83.6 32.8,82.2 32.9,82.2 32.9,85.3 	"/>
	<polygon class="st3" points="26.1,68.3 25.4,69.8 24.6,68.2 25.3,66.7 	"/>
	<polygon class="st3" points="23.8,63.6 24.6,65.3 23.9,66.8 23.8,66.6 23.8,63.7 	"/>
	<polygon class="st3" points="27.5,71.2 26.8,72.7 26.1,71.2 26.8,69.7 	"/>
	<polygon class="st3" points="30.5,80.3 31.2,78.8 32.2,80.8 31.4,82.2 	"/>
	<polygon class="st3" points="29,74.3 28.3,75.8 27.5,74.2 28.2,72.7 	"/>
	<polygon class="st3" points="29.1,80.5 28.3,82 27.6,80.4 28.3,78.8 	"/>
	<polygon class="st3" points="32.1,87 31.4,88.4 30.5,86.6 31.3,85.2 	"/>
	<polygon class="st3" points="23.9,69.6 24.7,71.2 24,72.7 23.9,72.6 23.9,69.7 	"/>
	<polygon class="st3" points="26.1,74.2 25.4,75.7 24.7,74.2 25.4,72.7 	"/>
	<polygon class="st3" points="29.7,81.9 30.6,83.7 29.8,85.2 29,83.4 	"/>
	<polygon class="st3" points="27.6,77.4 26.9,78.9 26,77.2 26.8,75.6 	"/>
	<polygon class="st3" points="32.9,91.6 32,89.9 32.8,88.4 33,88.8 33,91.3 	"/>
	<polygon class="st3" points="23.9,69.4 23.9,69.6 23.9,69.7 	"/>
	<polygon class="st3" points="29.3,86.3 28.5,87.7 27.7,86.1 28.5,84.6 	"/>
	<polygon class="st3" points="27.8,83.1 27,84.6 26.3,83.1 27,81.5 	"/>
	<polygon class="st3" points="29.9,87.7 30.8,89.5 30.1,91 29.2,89.2 	"/>
	<polygon class="st3" points="24.1,75.4 24.8,76.9 24.1,78.4 24,78.2 24,75.7 	"/>
	<polygon class="st3" points="32.3,92.7 31.6,94.2 30.7,92.5 31.5,91 	"/>
	<polygon class="st3" points="26.3,80.1 25.6,81.6 24.8,79.8 25.5,78.3 	"/>
	<polygon class="st3" points="29.5,92.1 28.8,93.6 27.9,91.7 28.6,90.2 	"/>
	<polygon class="st3" points="26.5,85.8 25.7,87.3 25,85.8 25.7,84.3 	"/>
	<polygon class="st3" points="27.2,87.2 27.9,88.8 27.2,90.3 26.4,88.7 	"/>
	<polygon class="st3" points="24.2,81 25,82.8 24.3,84.3 24.1,83.8 24,81.3 	"/>
	<polygon class="st3" points="24.4,87.1 25.1,88.6 24.4,90.1 24.2,89.7 24.1,87.7 	"/>
	<polygon class="st3" points="26.5,91.6 25.8,93 25.1,91.5 25.8,90 	"/>
	<polygon class="st3" points="23.8,63.5 23.8,63.6 23.8,63.7 	"/>
	<polygon class="st3" points="32.3,54.9 32.5,54.6 32.5,55.1 32.4,55.1 	"/>
	<polygon class="st3" points="23.9,75 24.1,75.4 24,75.7 	"/>
	<polygon class="st3" points="32.6,61.4 32.4,61.1 32.6,60.8 	"/>
	<polygon class="st3" points="24,80.7 24.2,81 24,81.3 	"/>
	<polygon class="st3" points="32.7,67 32.6,66.8 32.6,66.6 	"/>
	<polygon class="st3" points="24.1,86.5 24.4,87.1 24.1,87.7 	"/>
	<polygon class="st3" points="32.7,73.5 32.6,73.2 32.7,72.9 	"/>
	<polygon class="st3" points="32.9,91.6 33,91.3 33,91.8 32.9,91.8 	"/>
	<polygon class="st3" points="33,94.2 33.1,94.3 33.1,94.9 32.7,94.8 	"/>
	<polygon class="st3" points="30.2,93.5 30.7,94.5 29.8,94.4 	"/>
	<polygon class="st3" points="27,95.6 27,95.6 27,95.6 	"/>
	<polygon class="st3" points="27.2,93 27.7,94.1 26.7,93.9 	"/>
	<polygon class="st3" points="23.6,49.2 23.5,49.1 23.6,48.9 	"/>
	<polygon class="st3" points="23.6,55.1 23.6,54.9 23.6,54.7 	"/>
	<path class="st3" d="M31.1,45.1l-0.3,0.7c-0.1-0.2-0.2-0.4-0.4-0.6L31.1,45.1z"/>
	<polygon class="st3" points="28.2,45.2 27.8,46 27.4,45.2 	"/>
	<polygon class="st3" points="25,46 24.6,45.4 25.3,45.3 	"/>
	<polygon class="st3" points="32.5,45 32.3,45.4 32.3,45 	"/>
	<polygon class="st2" points="83.8,33.2 82,33.2 82,105.1 83.8,106.1 	"/>
	<polygon class="st3" points="83.1,92.6 73.2,90.6 72.2,90.8 82.9,93.1 	"/>
	<path class="st1" d="M82.7,94.5c-0.1,0-10.5-2.2-10.5-2.2v-1.6l10.8,2.3L82.7,94.5z"/>
	<polygon class="st3" points="34.9,95.1 24.9,93 23.9,93.2 34.7,95.6 	"/>
	<path class="st1" d="M34.4,97c-0.1,0-10.5-2.2-10.5-2.2v-1.6l10.8,2.3L34.4,97z"/>
	<polygon class="st1" points="82.9,44.6 82.9,46.4 72.2,46 72.2,44.2 	"/>
	<polygon class="st1" points="31.1,43.6 23,43.9 23,45.7 31.1,45.5 	"/>
	<path class="st1" d="M42.2,11.3c-4.3,1.2-14.2,5.5-16.8,20.9l-3,0.2C23.5,18.6,34.9,7.1,48.7,7.1c0.6,0,1.2,0,1.9,0.1L42.2,11.3z"
		/>
	<polygon class="st3" points="41.8,12.3 33.5,13.6 34.2,14.8 40.1,14 	"/>
	<polygon class="st1" points="42.2,11.6 34.7,12.6 33.5,13.6 41.8,12.3 	"/>
	<polygon class="st1" points="37,18.9 27.6,20.2 26.9,21.3 36.8,20.1 	"/>
	<polygon class="st3" points="36.2,21.3 27.9,22.3 26.9,21.3 36.8,20.1 	"/>
	<path class="st3" d="M33.3,29.2c0,0-9.4,1-9.5,1.1c-0.1,0.1-0.5,1.2-0.5,1.2l9.3-0.8L33.3,29.2z"/>
	<path class="st3" d="M36.7,31.8C36.5,25.2,45,6.6,62.4,9.2s21.2,20.7,21.5,25l3.4-0.5C86.7,21.9,75.8,5.3,60.7,5.3
		c-14.8,0-25.4,7.7-29,26.5H36.7z"/>
	<polygon class="st3" points="37.3,31.4 37.3,107.3 33.2,107.8 33.2,31.4 	"/>
	<polygon class="st2" points="31.1,31.4 31.1,106.7 33.2,107.8 33.2,31.4 	"/>
	<polygon class="st3" points="87.9,33.2 83.8,33.2 83.8,106.1 87.9,105.6 	"/>
</g>
</svg>
