<?xml version="1.0" encoding="utf-8"?>
<!-- Generator: Adobe Illustrator 23.1.1, SVG Export Plug-In . SVG Version: 6.00 Build 0)  -->
<svg version="1.1" id="Layer_3" xmlns="http://www.w3.org/2000/svg" xmlns:xlink="http://www.w3.org/1999/xlink" x="0px" y="0px"
	 viewBox="0 0 108 108" style="enable-background:new 0 0 108 108;" xml:space="preserve">
<style type="text/css">
	.st0{fill:#674A30;}
	.st1{fill:#D31C23;stroke:#000000;stroke-linejoin:round;stroke-miterlimit:10;}
	.st2{fill:#B71A1F;}
	.st3{fill:none;stroke:#000000;stroke-linejoin:round;stroke-miterlimit:10;}
	.st4{fill:#7D5A3C;stroke:#231F20;stroke-linejoin:round;stroke-miterlimit:10;}
	.st5{fill:#951619;}
	.st6{fill:#FFFFFF;}
	.st7{fill:none;stroke:#FFFFFF;stroke-width:1.5899;stroke-linejoin:round;stroke-miterlimit:10;}
	.st8{fill:none;stroke:#FFFFFF;stroke-width:1.5899;stroke-miterlimit:10;}
	.st9{fill:none;}
	.st10{fill:#FFFFFF;stroke:#231F20;stroke-linejoin:round;stroke-miterlimit:10;}
</style>
<g>
	<polygon class="st0" points="5.6,86.4 54.9,71.1 85.7,73.2 102.4,73.3 68.8,87.1 	"/>
	<polygon class="st1" points="70.1,52.3 66.5,52.3 66.4,52.3 66.4,84.7 66.4,84.7 89.1,75.6 89.1,43.2 	"/>
	<polygon class="st2" points="66.3,78.4 66.4,81.5 66.4,78.4 	"/>
	<polygon class="st2" points="89.1,69.3 66.4,78.4 66.4,81.5 89.1,72.4 	"/>
	<polygon class="st2" points="66.3,72.6 66.3,75.6 66.4,75.6 66.4,72.5 	"/>
	<polygon class="st2" points="89.1,63.5 66.4,72.5 66.4,75.6 89.1,66.6 	"/>
	<polygon class="st2" points="66.2,66.7 66.2,69.8 66.4,69.7 66.4,66.7 	"/>
	<polygon class="st2" points="89.1,57.6 66.4,66.7 66.4,69.7 89.1,60.7 	"/>
	<polygon class="st2" points="66.2,60.9 66.2,64 66.4,63.9 66.4,60.8 	"/>
	<polygon class="st2" points="89.1,51.8 66.4,60.8 66.4,63.9 89.1,54.8 	"/>
	<polygon class="st2" points="66.1,55.1 66.1,58.1 66.4,58 66.4,55 	"/>
	<polygon class="st2" points="89.1,45.9 66.4,55 66.4,58 89.1,49 	"/>
	<polygon class="st3" points="70.1,52.3 66.5,52.3 66.4,52.3 66.4,84.7 66.4,84.7 89.1,75.6 89.1,43.2 	"/>
	<polygon class="st4" points="66.5,17.8 43.7,26.8 61.9,37.5 70.1,52.3 92.9,43.2 84.6,28.4 	"/>
	<polygon class="st1" points="68.8,52 60.7,38.6 43.7,28.7 26.7,38.6 18.6,52 21,52 21,84.7 66.4,84.7 66.4,52 	"/>
	<rect x="21" y="78.6" class="st2" width="45.3" height="2.9"/>
	<rect x="21" y="72.7" class="st2" width="45.3" height="2.9"/>
	<rect x="21" y="66.9" class="st2" width="45.3" height="2.9"/>
	<rect x="21" y="61.1" class="st2" width="45.3" height="2.9"/>
	<rect x="21" y="55.2" class="st2" width="45.3" height="2.9"/>
	<polygon class="st2" points="67.2,49.4 20.2,49.4 19.1,51.1 18.6,52 19.1,52 21,52 21,52.3 66.4,52.3 66.4,52 68.8,52 	"/>
	<polygon class="st2" points="21.9,46.5 65.4,46.5 63.7,43.6 23.7,43.6 	"/>
	<polygon class="st2" points="26.7,38.6 25.5,40.6 61.9,40.6 60.7,38.6 59.2,37.7 28.2,37.7 	"/>
	<polygon class="st2" points="49.2,31.9 38.2,31.9 33.2,34.8 54.1,34.8 	"/>
	<rect x="32.2" y="61.1" class="st5" width="23" height="23.6"/>
	<path class="st6" d="M56,84.7H31.4V60.3H56V84.7z M33,84.7h21.4V61.9H33V84.7z"/>
	<polyline class="st7" points="32.2,84.7 43.7,61.1 55.2,84.7 	"/>
	<line class="st8" x1="43.7" y1="61.6" x2="43.7" y2="84.7"/>
	<g>
		<rect x="38.6" y="40.9" class="st5" width="10.3" height="9.1"/>
		<path class="st6" d="M48,41.7v7.5h-8.7v-7.5H48 M49.6,40.1H37.8v10.7h11.8V40.1L49.6,40.1z"/>
	</g>
	<polygon class="st3" points="68.8,52 60.7,38.6 43.7,28.7 26.7,38.6 18.6,52 21,52 21,84.7 66.4,84.7 66.4,52 	"/>
	<polygon class="st9" points="43.7,30.5 27.9,39.8 20.9,52.3 66.5,52.3 59.5,39.8 	"/>
	<polygon class="st10" points="27.9,39.8 43.7,30.5 59.5,39.8 66.5,52.3 70.1,52.3 61.9,37.5 43.7,26.8 25.5,37.5 17.3,52.3 
		20.9,52.3 	"/>
</g>
</svg>
