<?xml version="1.0" encoding="utf-8"?>
<!-- Generator: Adobe Illustrator 23.1.1, SVG Export Plug-In . SVG Version: 6.00 Build 0)  -->
<svg version="1.1" id="Layer_1" xmlns="http://www.w3.org/2000/svg" xmlns:xlink="http://www.w3.org/1999/xlink" x="0px" y="0px"
	 viewBox="0 0 35.7 45.5" style="enable-background:new 0 0 35.7 45.5;" xml:space="preserve">
<style type="text/css">
	.st0{fill:#C99362;}
	.st1{fill:#C4A36F;}
	.st2{fill:#B88C5B;}
	.st3{fill:#A2784E;}
	.st4{fill:#CFA775;}
	.st5{fill:#BE8B5C;}
	.st6{fill:#D09978;}
	.st7{fill:#AB7E4C;}
</style>
<g>
	<rect x="3.4" y="19.8" class="st0" width="29" height="3"/>
	<rect x="3.4" y="16.8" class="st1" width="29" height="3"/>
	<rect x="3.4" y="13.8" class="st0" width="29" height="3"/>
	<rect x="3.4" y="10.8" class="st2" width="29" height="3"/>
	<rect x="3.4" y="7.8" class="st0" width="29" height="3"/>
	<rect x="3.4" y="4.8" class="st1" width="29" height="3"/>
	<rect x="3.4" y="1.8" class="st0" width="29" height="3"/>
	<g>
		<rect x="3.4" y="25.2" class="st3" width="29.7" height="2.2"/>
		<rect x="3.4" y="27.5" class="st4" width="29.7" height="1.4"/>
	</g>
	<g>
		<path class="st0" d="M6.7,44.2c1.1,0.1,2.2,0.2,3.3,0.3c0-0.5,0-1.1,0.1-1.6c-1.1-0.1-2.2-0.2-3.2-0.3C6.8,43.1,6.8,43.6,6.7,44.2
			z"/>
		<path class="st0" d="M11,27.5c-0.9-0.1-2,0.1-2.9,0c-0.5,6.7-0.8,8.4-1.3,15.1c1.1,0.1,2.2,0.2,3.2,0.3
			C10.4,36.2,10.7,34.2,11,27.5z"/>
	</g>
	<g>
		<path class="st0" d="M13,44.7c1.1,0.1,2.2,0.1,3.3,0.1c0-0.6,0-1.1,0-1.6c-1.1,0-2.2-0.1-3.2-0.1C13,43.6,13,44.2,13,44.7z"/>
		<path class="st5" d="M16.5,27.5c-0.9,0-1.9,0-2.8,0c-0.2,6.7-0.4,8.9-0.6,15.6c1.1,0.1,2.2,0.1,3.2,0.1
			C16.3,36.5,16.4,34.2,16.5,27.5z"/>
	</g>
	<g>
		<path class="st0" d="M19.3,44.9c1.1,0,2.2,0,3.3-0.1c0-0.6,0-1.1,0-1.6c-1.1,0.1-2.2,0.1-3.2,0.1C19.3,43.8,19.3,44.3,19.3,44.9z"
			/>
		<path class="st0" d="M21.9,27.5c-0.9,0.1-1.9,0-2.8,0c0.1,6.8,0.1,9,0.2,15.8c1.1,0,2.2,0,3.2-0.1C22.3,36.4,22.1,34.2,21.9,27.5z
			"/>
	</g>
	<g>
		<path class="st0" d="M25.6,44.6c1.1-0.1,2.2-0.2,3.3-0.3c0-0.6-0.1-1.1-0.1-1.6c-1.1,0.1-2.2,0.2-3.2,0.3
			C25.5,43.5,25.6,44.1,25.6,44.6z"/>
		<path class="st6" d="M27.4,27.5c-1,0-1.9,0-2.9,0c0.3,6.8,0.7,8.7,1,15.5c1.1-0.1,2.2-0.2,3.2-0.3C28.3,35.9,27.9,34.2,27.4,27.5z
			"/>
	</g>
	<g>
		<path class="st3" d="M17.9,43.5c6.4,0,12.4-0.6,16.9-1.6c0.1,0,0.2-0.1,0.3-0.1v-1.6H0.8v1.6c0.1,0,0.2,0.1,0.3,0.1
			C5.5,43,11.5,43.5,17.9,43.5z"/>
		<path class="st4" d="M34.8,41.9c-4.5,1-10.5,1.6-16.9,1.6S5.5,43,1,41.9c-0.1,0-0.2-0.1-0.3-0.1v1.6c1.2,0.3,2.4,0.5,3.8,0.7
			c4,0.6,8.6,0.9,13.4,0.9s9.5-0.3,13.4-0.9c1.3-0.2,2.6-0.4,3.8-0.7v-1.6C35,41.9,34.9,41.9,34.8,41.9z"/>
	</g>
	<g>
		<path class="st0" d="M0,44.8c1.1,0.2,2.2,0.4,3.2,0.6c0-0.5,0.1-1.1,0.1-1.6c-1.1-0.2-2.1-0.3-3.2-0.5C0.1,43.7,0.1,44.2,0,44.8z"
			/>
		<path class="st2" d="M3.4,24.5c-0.9-0.1-0.1-1-1-1.2c-0.7,6.6-1.5,13.3-2.2,19.9c1.1,0.2,2.1,0.4,3.2,0.5c0.4-4,0.7-8,1.1-11.9
			C4.7,29.1,3.1,27.2,3.4,24.5z"/>
	</g>
	<g>
		<path class="st0" d="M32.5,45.5c1.1-0.2,2.2-0.3,3.2-0.5c-0.1-0.6-0.1-1.1-0.2-1.6c-1.1,0.2-2.1,0.3-3.2,0.5
			C32.4,44.4,32.4,45,32.5,45.5z"/>
		<path class="st2" d="M33.3,23.1c-0.9,0.2,0.3,0.2-0.6,0.3c0.2,2.7-1.7,5.6-1.4,8.4c0.4,4,0.7,8.1,1.1,12.1
			c1.1-0.2,2.1-0.3,3.2-0.5C34.8,36.6,34.1,29.8,33.3,23.1z"/>
	</g>
	<rect x="1.5" class="st7" width="2.9" height="31.8"/>
	<rect x="31.3" class="st7" width="2.9" height="31.8"/>
</g>
</svg>
