<?xml version="1.0" encoding="utf-8"?>
<!-- Generator: Adobe Illustrator 24.0.0, SVG Export Plug-In . SVG Version: 6.00 Build 0)  -->
<svg version="1.1" id="Layer_1" xmlns="http://www.w3.org/2000/svg" xmlns:xlink="http://www.w3.org/1999/xlink" x="0px" y="0px"
	 viewBox="0 0 61.1 7.9" style="enable-background:new 0 0 61.1 7.9;" xml:space="preserve">
<style type="text/css">
	.st0{fill:#9B9DA0;stroke:#010101;stroke-miterlimit:10;}
	.st1{fill:#A3A5A8;}
	.st2{fill:#010101;}
	.st3{fill:none;stroke:#7A7B7D;stroke-width:0.8568;stroke-linecap:round;stroke-miterlimit:10;}
</style>
<g>
	<g>
		<rect x="3.9" y="2.2" class="st0" width="52.9" height="3.4"/>
		<g>
			<circle class="st1" cx="3.9" cy="3.9" r="3.9"/>
			<path class="st2" d="M3.9,1c1.6,0,2.9,1.3,2.9,2.9S5.5,6.8,3.9,6.8S1,5.5,1,3.9S2.3,1,3.9,1 M3.9,0C1.7,0,0,1.7,0,3.9
				s1.7,3.9,3.9,3.9s3.9-1.7,3.9-3.9S6.1,0,3.9,0L3.9,0z"/>
		</g>
		<g>
			<path class="st1" d="M57.2,7.8c-2.2,0-3.9-1.7-3.9-3.9S55,0,57.2,0s3.9,1.7,3.9,3.9C61.1,6.1,59.4,7.8,57.2,7.8z"/>
			<path class="st2" d="M57.2,1c1.6,0,2.9,1.3,2.9,2.9s-1.3,2.9-2.9,2.9s-2.9-1.3-2.9-2.9S55.6,1,57.2,1 M57.2,0
				c-2.2,0-3.9,1.7-3.9,3.9s1.7,3.9,3.9,3.9s3.9-1.7,3.9-3.9S59.4,0,57.2,0L57.2,0z"/>
		</g>
	</g>
	<line class="st3" x1="8.5" y1="7" x2="52.6" y2="7"/>
</g>
</svg>
