<?xml version="1.0" encoding="utf-8"?>
<!-- Generator: Adobe Illustrator 23.1.1, SVG Export Plug-In . SVG Version: 6.00 Build 0)  -->
<svg version="1.1" id="Layer_2" xmlns="http://www.w3.org/2000/svg" xmlns:xlink="http://www.w3.org/1999/xlink" x="0px" y="0px"
	 viewBox="0 0 108 108" style="enable-background:new 0 0 108 108;" xml:space="preserve">
<style type="text/css">
	.st0{fill:#59471D;stroke:#000000;stroke-linejoin:round;stroke-miterlimit:10;}
	.st1{fill:#91733B;stroke:#000000;stroke-miterlimit:10;}
	.st2{fill:#FFFFFF;stroke:#000000;stroke-miterlimit:10;}
	.st3{fill:#59471D;stroke:#000000;stroke-miterlimit:10;}
	.st4{fill:#FFD100;stroke:#ADA000;stroke-width:0.5;stroke-miterlimit:10;}
	.st5{fill:#E7DBCA;}
	.st6{fill:#FCF9E5;}
	.st7{fill:none;stroke:#95979A;stroke-width:0.2181;stroke-miterlimit:10;}
	.st8{fill:none;stroke:#95979A;stroke-width:0.2326;stroke-miterlimit:10;}
	.st9{fill:#8A6E37;stroke:#000000;stroke-linejoin:round;stroke-miterlimit:10;}
</style>
<g>
	<polygon class="st0" points="12,89.7 38.6,72.6 100.3,73.6 68.5,90.4 	"/>
	<rect x="78.2" y="64.1" class="st1" width="4.7" height="15.7"/>
	<polygon class="st1" points="45,19.5 25.2,40.2 25.2,71.9 64.7,71.9 64.7,40.2 	"/>
	<rect x="25.2" y="71.9" class="st1" width="4.7" height="15.7"/>
	<rect x="60" y="71.9" class="st1" width="4.7" height="15.7"/>
	<line class="st2" x1="25.2" y1="67.8" x2="64.7" y2="67.8"/>
	<line class="st2" x1="25.2" y1="63.5" x2="64.7" y2="63.5"/>
	<line class="st2" x1="25.2" y1="59.2" x2="64.7" y2="59.2"/>
	<line class="st2" x1="25.2" y1="54.9" x2="64.7" y2="54.9"/>
	<line class="st2" x1="25.2" y1="50.6" x2="64.7" y2="50.6"/>
	<line class="st2" x1="25.2" y1="46.4" x2="64.7" y2="46.4"/>
	<line class="st2" x1="25.2" y1="42.1" x2="64.7" y2="42.1"/>
	<line class="st2" x1="26.1" y1="37.8" x2="62.7" y2="37.8"/>
	<line class="st2" x1="31.9" y1="33.5" x2="58.8" y2="33.5"/>
	<line class="st2" x1="34.6" y1="29.2" x2="55" y2="29.2"/>
	<line class="st2" x1="39.7" y1="24.9" x2="51.4" y2="24.9"/>
	<rect x="37.6" y="55.1" class="st3" width="14.7" height="16.9"/>
	<rect x="40.2" y="34.1" class="st3" width="9.8" height="9.8"/>
	<rect x="39.1" y="70" class="st1" width="2.1" height="17.7"/>
	<rect x="48.7" y="70" class="st1" width="2.1" height="17.7"/>
	
		<rect x="43.9" y="68.8" transform="matrix(4.612228e-11 -1 1 4.612228e-11 -27.6015 117.5463)" class="st1" width="2.1" height="7.5"/>
	
		<rect x="43.9" y="75.1" transform="matrix(4.612228e-11 -1 1 4.612228e-11 -33.8465 123.7913)" class="st1" width="2.1" height="7.5"/>
	
		<rect x="43.9" y="81.3" transform="matrix(4.612228e-11 -1 1 4.612228e-11 -40.0915 130.0363)" class="st1" width="2.1" height="7.5"/>
	<polygon class="st4" points="41.2,41.3 40.8,41.4 38.6,42.1 40.7,42.3 39.1,43.5 41.2,43.5 39.9,45 42.1,43.8 42.8,45 43.5,43.1 
		44.4,44.7 45.4,43.1 46,45 46.9,43.1 47.9,45 48.7,43.5 50.8,45 49.8,43.1 50.8,42.6 48.7,41.7 49.8,40.3 47.7,41.3 45.6,39.8 
		45.6,41.3 44.4,39.8 43,41.4 42.1,39.8 	"/>
	<path class="st5" d="M45.7,41.3c-0.8,0-1.5-0.9-1.5-2c0-0.2,0-0.4,0.1-0.5c-0.2,0.3-0.4,0.8-0.4,1.3c0,1.1,0.7,2,1.5,2
		c0.7,0,1.2-0.6,1.4-1.4C46.5,41,46.1,41.3,45.7,41.3z"/>
	<path class="st6" d="M45.7,41.3c0.4,0,0.8-0.3,1.1-0.7c0-0.2,0.1-0.3,0.1-0.5c0-1.1-0.7-2-1.5-2c-0.4,0-0.8,0.3-1.1,0.7
		c0,0.2-0.1,0.3-0.1,0.5C44.2,40.4,44.9,41.3,45.7,41.3z"/>
	<ellipse class="st7" cx="45.4" cy="40.1" rx="1.5" ry="2"/>
	<path class="st5" d="M48.1,42.1c-0.9-0.2-1.4-1.2-1.2-2.3c0-0.2,0.1-0.4,0.2-0.5c-0.3,0.3-0.5,0.8-0.6,1.3
		c-0.2,1.1,0.3,2.2,1.2,2.3c0.7,0.1,1.4-0.4,1.8-1.2C49,42,48.5,42.2,48.1,42.1z"/>
	<path class="st6" d="M48.1,42.1c0.5,0.1,0.9-0.1,1.3-0.5c0.1-0.2,0.1-0.3,0.2-0.5c0.2-1.1-0.3-2.2-1.2-2.3
		c-0.5-0.1-0.9,0.1-1.3,0.5c-0.1,0.2-0.1,0.3-0.2,0.5C46.7,40.9,47.2,42,48.1,42.1z"/>
	<ellipse transform="matrix(0.1884 -0.9821 0.9821 0.1884 -1.1387 80.2407)" class="st8" cx="48" cy="40.8" rx="2.1" ry="1.6"/>
	<path class="st5" d="M43.4,41.9c-0.8,0.2-1.8-0.5-2.1-1.6c-0.1-0.2-0.1-0.4-0.1-0.6c-0.1,0.4-0.1,0.9,0,1.4
		c0.3,1.1,1.3,1.8,2.1,1.6c0.7-0.2,1.1-1,1-1.9C44.1,41.4,43.8,41.8,43.4,41.9z"/>
	<path class="st6" d="M43.4,41.9c0.5-0.1,0.8-0.5,0.9-1c0-0.2,0-0.4-0.1-0.6c-0.3-1.1-1.3-1.8-2.1-1.6c-0.5,0.1-0.8,0.5-0.9,1
		c0,0.2,0,0.4,0.1,0.6C41.6,41.5,42.5,42.2,43.4,41.9z"/>
	<ellipse transform="matrix(0.9617 -0.2741 0.2741 0.9617 -9.5524 13.2642)" class="st8" cx="42.7" cy="40.8" rx="1.6" ry="2.1"/>
	<polygon class="st9" points="82.9,79.9 85.6,78.9 85.6,63.2 82.9,64.1 	"/>
	<polygon class="st9" points="64.7,71.9 85.6,63.5 85.6,34.9 64.7,40.2 	"/>
	<polygon class="st3" points="22.8,44.9 20.7,42.8 45,17.4 68.5,42.1 66.4,44.1 45,21.6 	"/>
	<polygon class="st0" points="45,17.4 66.5,13.9 89,35.9 68.5,42.1 	"/>
	<polygon class="st0" points="68.5,42.1 66.4,44.1 87.2,37.8 89,35.9 	"/>
	<polygon class="st9" points="64.7,87.7 67.4,86.7 67.4,71 64.7,71.9 	"/>
	<polygon class="st9" points="29.9,87.7 32.7,86.1 32.7,71.9 29.9,71.9 	"/>
	<line class="st2" x1="64.7" y1="67.8" x2="85.6" y2="60"/>
	<line class="st2" x1="64.7" y1="63.5" x2="85.6" y2="56"/>
	<line class="st2" x1="64.7" y1="59.2" x2="85.6" y2="52"/>
	<line class="st2" x1="64.7" y1="54.9" x2="85.6" y2="48"/>
	<line class="st2" x1="64.7" y1="50.6" x2="85.6" y2="44.1"/>
	<line class="st2" x1="64.7" y1="46.4" x2="85.6" y2="40.4"/>
</g>
</svg>
