<svg xmlns="http://www.w3.org/2000/svg" version="1.1" xmlns:xlink="http://www.w3.org/1999/xlink" xmlns:svgjs="http://svgjs.dev/svgjs" viewBox="0 0 75.4 39.7" style="" x="0" y="0"><style type="text/css">
	.st0{display:none;}
	.st1{fill:#888C91;}
</style><g><g id="Layer_2" class="st0">
	
		<image style="display:inline;overflow:visible;" width="380" height="742" xlink:href="../../../../../../../Users/dalelanford/Desktop/Screenshot 2024-03-14 at 11.09.21 AM.png" transform="matrix(0.1556 0 0 0.1556 14.7088 -37.9302)">
	</image>
</g><g id="Layer_3">
	<path class="st1" d="M0,0v39.7h75.4V0H0z M34.3,28c0,2.6-2.1,4.7-4.7,4.7H11.8C9.1,32.7,7,30.6,7,28V11.8C7,9.1,9.1,7,11.8,7h17.8
		c2.6,0,4.7,2.1,4.7,4.7V28z M68.4,28c0,2.6-2.1,4.7-4.7,4.7H45.9c-2.6,0-4.7-2.1-4.7-4.7V11.8c0-2.6,2.1-4.7,4.7-4.7h17.8
		c2.6,0,4.7,2.1,4.7,4.7V28z"></path>
</g></g></svg>