<?xml version="1.0" encoding="utf-8"?>
<!-- Generator: Adobe Illustrator 23.1.1, SVG Export Plug-In . SVG Version: 6.00 Build 0)  -->
<svg version="1.1" id="Layer_1" xmlns="http://www.w3.org/2000/svg" xmlns:xlink="http://www.w3.org/1999/xlink" x="0px" y="0px"
	 viewBox="0 0 45.9 45.8" style="enable-background:new 0 0 45.9 45.8;" xml:space="preserve">
<style type="text/css">
	.st0{opacity:0.45;enable-background:new    ;}
	.st1{opacity:0.67;fill:#FFFFFF;stroke:#939598;stroke-width:0.5;stroke-miterlimit:10;enable-background:new    ;}
	.st2{opacity:0.22;fill:#FFFFFF;enable-background:new    ;}
	.st3{opacity:0.78;fill:#FFFFFF;enable-background:new    ;}
</style>
<g>
	<path class="st0" d="M0.8,0.4c0.9,0,1.4-0.1,6.2,0.2s7.9,0.2,10.7,0s6.5-0.6,10,0c3.5,0.7,7.5,0.1,9,0.1c2.4,0,7.2,0,8.6-0.3
		c0,1.9-0.2,2.4,0,3.6c0.2,1.2-0.2,13,0,15.1s0.4,12.7,0.1,14.6c-0.3,1.9-0.2,5.7,0.2,8c0.1,1,0,3.4,0,3.4s-5.6,0-9,0
		s-10.6,0.5-13,0C21.3,44.6,12,46,9.5,45.3s-8.8,0.2-8.8,0.2s0-10.6,0-12.9c0-2.3-0.3-11.7,0-14.1c0.4-3.1-0.4-9-0.4-10.9
		C0,5.6,0.8,0.4,0.8,0.4z"/>
	<path class="st1" d="M0.8,0.4c0.9,0,1.4-0.1,6.2,0.2s7.9,0.2,10.7,0s6.5-0.6,10,0c3.5,0.7,7.5,0.1,9,0.1c2.4,0,7.2,0,8.6-0.3
		c0,1.9-0.2,2.4,0,3.6c0.2,1.2-0.2,13,0,15.1s0.4,12.7,0.1,14.6c-0.3,1.9-0.2,5.7,0.2,8c0.1,1,0,3.4,0,3.4s-5.6,0-9,0
		s-10.6,0.5-13,0C21.3,44.6,12,46,9.5,45.3s-8.8,0.2-8.8,0.2s0-10.6,0-12.9c0-2.3-0.3-11.7,0-14.1c0.4-3.1-0.4-9-0.4-10.9
		C0,5.6,0.8,0.4,0.8,0.4z"/>
	<polygon class="st2" points="42.9,3 42.3,6 42,8.6 43,11.2 43.2,13.8 42,16.4 41.9,19 42.3,21.6 42,24.2 41.9,26.7 43.6,29.3 
		43.7,31.9 43.1,34.5 42.5,37.1 43.2,39.7 41.7,41.5 39.9,42.1 37.3,43.4 34.7,41.2 32.1,41.2 29.6,42.3 27,42.5 24.4,42.8 
		21.8,43.4 19.2,42.7 16.6,41.5 14,43 11.4,41.5 8.9,42.7 6.3,43.1 3.5,42.4 2.6,39.7 3.1,37.1 3.6,34.5 3.9,31.9 3.1,29.4 
		4.3,26.8 4.2,24.2 3.1,21.6 2.9,19 3.6,16.4 4.2,13.8 2.8,11.2 2.7,8.6 3.8,6.1 3,2.7 6.3,4 8.8,3.9 11.4,4.3 14,4 16.6,3.2 
		19.2,2.8 21.8,3.1 24.4,4.1 26.9,3.9 29.5,4.2 32.1,4.4 34.7,3.8 37.3,2.9 40,4.2 	"/>
	<path class="st3" d="M11.6,6.1c-0.2,1.8-1.8,12.4-3.3,14.4c-1.4,2-4,10.1-4.1,11.2S4.1,39,3.7,40.5s-0.3,3.3,0.4,2.2
		c0.7-1.1,0.4-6.5,1.5-8.5c1.1-2.1,4.1-3.3,4-7.3s2.1-7.5,2-9.7s0.5-3.3,0.5-5.1S11.6,6.1,11.6,6.1z"/>
	<path class="st3" d="M19.4,17.6c0,0-2.2,7.1-1.7,10.5s2.8,9.3,4.4,11.4c1.6,2.1,3.7,3.5,3.7,3.5s0.3-1.8,0-3.4s-4.2-4.6-4.9-7
		s-0.7-5.8-0.8-8S19.4,17.6,19.4,17.6z"/>
	<path class="st3" d="M19.9,1.1c0.5,0.9,9.2,14.6,9.8,15.4c0.5,0.8,3.9,8.1,4.8,8.7c0.9,0.6,0.9,2.9,0.9,2.9S29.8,19,29,18
		s-3.2-5.1-6.1-7.7s-4.1-7.6-4.4-8.2s-0.5-1-0.5-1H19.9z"/>
</g>
</svg>
