<?xml version="1.0" encoding="utf-8"?>
<!-- Generator: Adobe Illustrator 23.1.1, SVG Export Plug-In . SVG Version: 6.00 Build 0)  -->
<svg version="1.1" id="Layer_2" xmlns="http://www.w3.org/2000/svg" xmlns:xlink="http://www.w3.org/1999/xlink" x="0px" y="0px"
	 viewBox="0 0 108 108" style="enable-background:new 0 0 108 108;" xml:space="preserve">
<style type="text/css">
	.st0{fill:#4B3620;}
	.st1{fill:#B9AB67;}
	.st2{fill:#231F20;}
	.st3{fill:none;stroke:#7B7C7F;stroke-width:1.3441;stroke-linejoin:round;stroke-miterlimit:10;}
	.st4{fill:none;stroke:#231F20;stroke-width:1.3211;stroke-miterlimit:10;}
	.st5{fill:#785B3D;}
	.st6{fill:#7B7C7F;}
	.st7{fill:#664C32;}
	.st8{fill:#C5A14F;}
	.st9{fill:#8F9355;}
	.st10{fill:#C2A388;}
	.st11{fill:#C3BA92;}
</style>
<g>
	<path class="st0" d="M21.7,71.3c0,0-1.4-1.8-1.4-0.2c0,1.6-6,1-6,2c0,1,2.7,2.2,2.7,2.2H93c0,0,1-0.5,1-1.5s-0.5-1.3-0.8-1.4
		c-0.3-0.1-1.1-0.1-1.8-0.7s-2.9-0.9-4-1.4c-1-0.4-5.4-2-6.3-1.9C80.2,68.5,61.6,66,59,66.8s-4.2,0.4-8.6,1.1
		c-4.4,0.7-14.7,2.4-14.7,2.4S30.8,70,29,69.8c-1.9-0.2-4.6-1.4-5.5-1.1c-0.8,0.3-2.4,1.1-2.4,1.1L21.7,71.3z"/>
	
		<rect x="76.1" y="16.6" transform="matrix(0.9835 0.1807 -0.1807 0.9835 7.0088 -13.3877)" class="st1" width="1.8" height="30.4"/>
	<rect x="73.7" y="42.4" transform="matrix(0.9835 0.1807 -0.1807 0.9835 9.2804 -12.7528)" class="st2" width="1.8" height="4.4"/>
	<path class="st3" d="M79.7,16.8c2.2,0.4,4.4-1.1,4.8-3.4l-8.1-1.5C76,14.2,77.5,16.4,79.7,16.8z"/>
	<path class="st4" d="M76.5,58.3c0.8-3.4,1.5-6.8,2-10.3c0.1-0.7-0.4-1.4-1-1.5c-2.1-0.3-4.3-0.5-6.4-0.8c-0.7-0.1-1.3,0.4-1.4,1.1
		c-0.4,3.1-1.1,6.3-1.8,9.4"/>
	<path class="st4" d="M72.8,45.9c-0.5,3.7-1.2,7.3-2,10.9"/>
	<path class="st4" d="M75.5,46.3c-0.5,3.8-1.2,7.5-2.1,11.2"/>
	<path class="st5" d="M88.2,69.2c-2.1-1-1.3-0.6-1.8-1.9c-0.6-1.4-1-0.7-2.2-1.5c-1.3-0.8-0.7-0.4-2.4-1.3c-1.7-0.8-0.3-1.3-1-3.2
		c-0.7-1.9-1.9-1.7-2.6-2.4c-0.7-0.7-1.4-1.9-1.9-2.9c-0.6-1-0.7-0.1-2.1,0.6c-1.4,0.7-1.1,0.1-2.9-0.6c-1.8-0.7-0.1-1.1,0-2.8
		c0.1-1.7-1.9-0.7-3.5-1.8c-1.5-1.1-1.4-0.6-4.7-2.4c-3.3-1.8-1.5,0-3.1-1.8c-0.9-1.1-1.8-1.2-3.1-1.1c-1.5,0.6-2.3,1.2-2.1,2.3
		c0.5,1.8,1.9,2.2-0.1,2.8c-2,0.6-2.8,0-4.1,1.5c-1.3,1.5-2.8,3.1-2.5,4.9c0.3,1.8-0.6,1.9-1.7,2.6c-1.1,0.7-1.7-0.1-1.7,1.3
		c0,1.4,0.3,1.3,1,2c0.7,0.7,1.1,0.9-0.3,2.7c-1.4,1.8-0.3,3.3-0.7,3.9c-0.4,0.6-0.1-0.1,1,1.1c0.5,0.5,1.3,1.2,1.9,1.9h41.2
		c0.7-0.3,1.5-1.2,1.8-1.9C91.1,70.3,90.2,70.1,88.2,69.2z"/>
	<path class="st6" d="M49.1,76C49.1,76,49.2,76,49.1,76L49.1,76z"/>
	<path class="st7" d="M45.7,71.2c-1.1-1.3-1.4-0.6-1-1.1c0.4-0.6-0.7-2.1,0.7-3.9c1.4-1.8,1-1.9,0.3-2.7c-0.7-0.7-1-0.5-1-2
		c0-1.4,0.6-0.6,1.7-1.3c1.1-0.7,1.9-0.8,1.7-2.6c-0.3-1.8,1.3-3.3,2.5-4.9c1.3-1.5,2.1-1,4.1-1.5c2-0.6,0.5-1,0.1-2.8
		c-0.3-1.1,0.6-1.7,2.1-2.3c-0.8,0.1-1.8,0.3-3.1,0.4c-3.3,0.3-3.1,1.9-3.3,2.5c-0.3,0.6-2.9,1.5-4.2,2.9c-1.3,1.4-2.6,0.8-4.3,1.4
		s-4.3,0.1-6.7,1.9c-2.4,1.8-1.7,2.5-2.4,4.3c-0.7,1.8-3.5,1.4-6.1,1c-2.6-0.4-6.8,0.1-5.3,3.9c1.5,3.9-1.5,2.5-1.5,3.2
		c0,0.7-1,2.2-0.8,2.9c0.1,0.5-0.4,1.6-0.3,2.5h28.9C47,72.4,46.2,71.7,45.7,71.2z"/>
	<path class="st8" d="M41,56.5c-1.5,1-1.1,1.1-1.4,1.8S38.4,59,39,59.5c0.6,0.5,1.1,1.1,1.4,0.1s0-1.5,0.6-1.3
		c0.6,0.2,0.1,1.5,0.9,1.2c0.8-0.3,1.6,0.1,1.7-0.7c0.1-0.8,0.1-0.7-0.5-1.1c-0.6-0.4-0.5-0.5-0.1-0.8c0.4-0.3,1.4-1,0.6-1.2
		c-0.7-0.2-0.7-0.8-1.2,0c-0.5,0.8-0.5,1.6-0.5,1.6L41,56.5z"/>
	<path class="st8" d="M35.6,67.3c1.5,1,1.1,1.1,1.4,1.8s1.2,0.7,0.6,1.2c-0.6,0.5-1.1,1.1-1.4,0.1c-0.3-1,0-1.5-0.6-1.3
		c-0.6,0.2-0.1,1.5-0.9,1.2c-0.8-0.3-1.6,0.1-1.7-0.7c-0.1-0.8-0.1-0.7,0.5-1.1c0.6-0.4,0.5-0.5,0.1-0.8c-0.4-0.3-1.4-1-0.6-1.2
		c0.7-0.2,0.7-0.8,1.2,0s0.5,1.6,0.5,1.6L35.6,67.3z"/>
	<path class="st8" d="M78.2,67.3c-1.3-1.2-1.4-0.8-2.1-0.9s-0.9-1-1.3-0.3c-0.4,0.7-0.8,1.3,0.2,1.4c1,0.1,1.5-0.3,1.4,0.3
		c-0.1,0.6-1.4,0.4-1,1.1c0.5,0.7,0.3,1.6,1,1.5c0.8-0.1,0.7-0.1,0.9-0.7c0.3-0.7,0.4-0.6,0.7-0.3c0.4,0.3,1.3,1.1,1.3,0.4
		c0-0.8,0.6-0.9-0.3-1.2c-0.9-0.3-1.6-0.1-1.6-0.1L78.2,67.3z"/>
	<path class="st8" d="M54.4,52.1c0.9,1.5,1.1,1.1,1.8,1.5c0.7,0.3,0.6,1.2,1.2,0.7c0.5-0.6,1.1-1,0.2-1.4c-1-0.3-1.5-0.1-1.3-0.7
		c0.3-0.6,1.5,0,1.2-0.8s0.2-1.6-0.6-1.7c-0.8-0.1-0.7-0.1-1.1,0.4s-0.5,0.5-0.8,0.1c-0.3-0.4-0.9-1.4-1.1-0.7
		c-0.2,0.7-0.8,0.7-0.1,1.2s1.5,0.6,1.5,0.6L54.4,52.1z"/>
	<path class="st9" d="M40.4,66.7c0.1,0,0.2,0,0.3,0c0-0.1,0.1-0.2,0.1-0.4c0.1,0.1,0.2,0.2,0.2,0.3c0.1,0,0.2-0.1,0.3-0.1
		c0-0.1,0-0.2,0-0.4c0.1,0.1,0.2,0.1,0.2,0.2c0.1-0.1,0.2-0.1,0.3-0.2c0.1-0.2,0.1-0.3,0.2-0.5c0,0.1,0.1,0.2,0.1,0.3
		c0.1-0.1,0.3-0.2,0.4-0.3c0.1-0.2,0.2-0.3,0.2-0.5c0,0.1,0,0.1,0,0.2c0.1-0.1,0.3-0.2,0.4-0.3c0-0.1,0.1-0.2,0.1-0.3
		c0,0,0.1,0.1,0.1,0.1c0.1-0.1,0.1-0.1,0.2-0.2c0-0.2,0-0.3,0-0.5c0.1,0,0.3,0,0.4,0.1c0,0,0,0,0,0c-0.1-0.1-0.1-0.2-0.2-0.3
		c0.1,0,0.3,0,0.4,0c0,0,0,0,0,0c0-0.1-0.1-0.2-0.1-0.3c0.1,0,0.2,0,0.3,0c0.2-0.3,0.2-0.5,0.1-0.8c-0.1-0.2-0.3-0.4-0.7-0.4
		c-0.1,0.1-0.2,0.2-0.2,0.2c0-0.1-0.1-0.1-0.1-0.2c-0.1,0-0.3,0-0.4,0c-0.1,0.1-0.2,0.2-0.3,0.2c0,0-0.3-0.1-0.4-0.1
		c-0.3,0.1-0.5,0.2-0.8,0.3c0,0.1,0,0.2,0,0.2c-0.1,0-0.2,0-0.2,0c-0.2,0.1-0.4,0.2-0.6,0.4c-0.1,0.1-0.2,0.1-0.2,0.2
		c0,0.1,0.1,0.2,0.1,0.3c-0.2,0-0.4,0.1-0.6,0.1c-0.2,0.3-0.4,0.6-0.6,0.9c0.1,0,0.1,0,0.2,0.1c0,0.1,0.1,0.3,0.1,0.4
		c-0.1,0.1-0.2,0.3-0.3,0.4c-0.1,0-0.2,0.1-0.3,0.1c0,0.4,0.1,0.7,0.4,0.9c0,0,0,0,0,0c0.1-0.2,0.1-0.4,0.1-0.4
		C40.3,66.4,40.4,66.5,40.4,66.7z"/>
	<path class="st9" d="M30.4,69.1c0-0.1,0-0.2-0.1-0.2c-0.1,0-0.2,0-0.3,0c0.1-0.1,0.1-0.2,0.2-0.2c0-0.1-0.1-0.2-0.2-0.2
		c-0.1,0-0.2,0-0.3,0c0-0.1,0.1-0.1,0.1-0.2c-0.1-0.1-0.1-0.1-0.2-0.2c-0.1,0-0.3-0.1-0.4-0.1c0.1,0,0.1-0.1,0.2-0.1
		c-0.1-0.1-0.2-0.2-0.3-0.3c-0.1,0-0.3-0.1-0.4-0.1c0.1,0,0.1-0.1,0.2-0.1c-0.1-0.1-0.2-0.2-0.3-0.2c-0.1,0-0.2,0-0.3,0
		c0,0,0-0.1,0.1-0.1c-0.1,0-0.1-0.1-0.2-0.1c-0.1,0-0.2,0.1-0.4,0.1c0-0.1,0-0.2,0-0.3c0,0,0,0,0,0c-0.1,0.1-0.1,0.1-0.2,0.2
		c0-0.1-0.1-0.2-0.1-0.3c0,0,0,0,0,0c-0.1,0.1-0.1,0.1-0.2,0.2c0-0.1,0-0.2,0-0.2c-0.2-0.1-0.5-0.1-0.6,0c-0.1,0.1-0.2,0.3-0.2,0.6
		c0.1,0.1,0.1,0.1,0.1,0.1c0,0.1-0.1,0.1-0.1,0.2c0,0.1,0,0.2,0.1,0.3c0.1,0.1,0.2,0.1,0.2,0.2c0,0,0,0.3,0,0.3
		c0.1,0.2,0.2,0.4,0.4,0.6c0.1,0,0.1,0,0.1,0c0,0.1,0,0.1,0,0.2c0.1,0.1,0.2,0.3,0.4,0.4c0.1,0,0.1,0.1,0.2,0.1
		c0.1,0,0.1-0.1,0.2-0.1c0.1,0.1,0.1,0.3,0.2,0.4c0.3,0.1,0.5,0.2,0.8,0.3c0-0.1,0-0.1,0-0.2c0.1,0,0.2-0.1,0.3-0.1
		c0.1,0,0.3,0.1,0.4,0.1c0,0.1,0.1,0.1,0.1,0.2c0.3-0.1,0.5-0.2,0.6-0.5c0,0,0,0,0,0c-0.2,0-0.3,0-0.3,0
		C30.2,69.2,30.3,69.2,30.4,69.1z"/>
	<path class="st9" d="M59.8,66.1c0,0.1,0,0.2,0,0.4c0.1,0,0.3,0.1,0.4,0.1c-0.1,0.1-0.2,0.2-0.3,0.3c0.1,0.1,0.1,0.3,0.2,0.4
		c0.1,0,0.3,0,0.4,0c-0.1,0.1-0.2,0.2-0.2,0.3c0.1,0.1,0.2,0.3,0.3,0.4c0.2,0.1,0.4,0.1,0.6,0.2c-0.1,0-0.2,0.1-0.3,0.2
		c0.1,0.2,0.3,0.3,0.4,0.5c0.2,0.1,0.4,0.2,0.6,0.2c-0.1,0-0.2,0.1-0.3,0.1c0.1,0.1,0.3,0.3,0.4,0.4c0.1,0,0.3,0.1,0.4,0.1
		c0,0-0.1,0.1-0.1,0.1c0.1,0.1,0.2,0.1,0.2,0.2c0.2,0,0.4,0,0.6-0.1c0,0.2,0,0.3,0,0.5c0,0,0,0,0,0c0.1-0.1,0.2-0.2,0.3-0.2
		c0,0.2,0.1,0.3,0.1,0.5c0,0,0,0,0,0c0.1-0.1,0.2-0.1,0.3-0.2c0,0.1,0,0.2,0,0.4c0.3,0.2,0.7,0.2,0.9,0.1c0.3-0.1,0.4-0.4,0.5-0.9
		c-0.1-0.1-0.2-0.2-0.2-0.2c0.1-0.1,0.1-0.1,0.2-0.2c0-0.1,0-0.3,0-0.5c-0.1-0.1-0.2-0.2-0.3-0.3c0,0,0.1-0.4,0.1-0.5
		c-0.1-0.3-0.3-0.6-0.5-1c-0.1,0-0.2,0-0.2,0c0-0.1,0-0.2,0-0.3c-0.1-0.2-0.3-0.4-0.5-0.6c-0.1-0.1-0.2-0.2-0.2-0.3
		c-0.1,0.1-0.2,0.1-0.4,0.2c-0.1-0.2-0.1-0.4-0.2-0.6c-0.4-0.3-0.7-0.5-1.1-0.6c0,0.1,0,0.1-0.1,0.2c-0.2,0-0.3,0.1-0.5,0.2
		c-0.2-0.1-0.4-0.2-0.6-0.3c0-0.1-0.1-0.2-0.1-0.3c-0.5,0-0.8,0.2-1,0.6c0,0,0,0,0,0c0.3,0.1,0.4,0.1,0.4,0.1
		C60.1,65.9,60,66,59.8,66.1z"/>
	<path class="st9" d="M69.6,58.8c-0.1,0.1-0.2,0.2-0.3,0.2c-0.1-0.1-0.3-0.2-0.4-0.2c0,0.2,0,0.3,0,0.5c-0.1,0.1-0.3,0.1-0.4,0.1
		c-0.1-0.1-0.2-0.2-0.3-0.3c0,0.1,0,0.3-0.1,0.4c-0.2,0-0.3,0-0.5,0.1c-0.2-0.1-0.4-0.2-0.6-0.3c0,0.1,0.1,0.2,0.1,0.3
		c-0.2,0-0.4,0-0.7,0c-0.2-0.1-0.4-0.2-0.6-0.3c0,0.1,0.1,0.2,0.1,0.3c-0.2,0-0.4,0-0.6,0c-0.1-0.1-0.3-0.2-0.4-0.2
		c0,0.1,0,0.1,0,0.2c-0.1,0-0.2,0-0.3,0c-0.1-0.2-0.2-0.3-0.4-0.5c-0.1,0.1-0.2,0.2-0.3,0.4c0,0,0,0-0.1,0c0-0.1,0-0.3-0.1-0.4
		c-0.2,0.1-0.3,0.2-0.5,0.3c0,0,0,0-0.1,0c0-0.1-0.1-0.3-0.1-0.4c-0.1,0.1-0.2,0.2-0.3,0.3c-0.4-0.2-0.6-0.4-0.7-0.7
		c-0.1-0.3,0-0.6,0.3-1c0.2,0,0.3,0,0.3,0c0-0.1,0-0.2,0-0.3c0.1-0.1,0.2-0.2,0.4-0.3c0.2,0,0.3,0,0.5,0c0,0,0.2-0.4,0.3-0.4
		c0.3-0.1,0.7-0.3,1.1-0.3c0.1,0.1,0.1,0.2,0.1,0.2c0.1-0.1,0.1-0.2,0.2-0.2c0.3,0,0.6-0.1,0.9-0.1c0.1,0,0.2,0,0.4,0
		c0,0.1,0.1,0.3,0.1,0.4c0.2-0.1,0.4-0.2,0.7-0.3c0.5,0.1,0.9,0.2,1.3,0.4c0,0.1-0.1,0.1-0.1,0.2c0.1,0.2,0.2,0.3,0.2,0.5
		c0.2,0.1,0.4,0.1,0.6,0.2c0.1,0,0.2-0.1,0.3-0.1c0.3,0.4,0.4,0.8,0.3,1.2c0,0,0,0,0,0c-0.2-0.2-0.4-0.3-0.4-0.3
		C69.5,58.4,69.5,58.6,69.6,58.8z"/>
	<path class="st10" d="M52.4,56.4c0.8,0.2,1.6-1.1,2.1,0c0.5,1.1-0.2,1.8,0,2.3c0.2,0.5,0.3,1.1,0.3,1.4c0,0.3-1.4,0.8-1.2-0.3
		c0.2-1.1,0.3-1.7,0-2.2c-0.3-0.5-0.7-0.2-0.7-0.2s0.2,0.7-0.5,0.1C51.8,56.8,52.4,56.4,52.4,56.4z"/>
	<path class="st10" d="M49.4,67.4c0.6-0.6-0.2-1.9,0.9-1.9c1.2,0.1,1.5,1,2,1c0.5,0,1.1,0.2,1.4,0.4c0.2,0.1,0.1,1.5-0.8,0.9
		c-0.9-0.6-1.4-1-1.9-1s-0.5,0.6-0.5,0.6s0.7,0.2-0.1,0.4C49.5,68.2,49.4,67.4,49.4,67.4z"/>
	<path class="st11" d="M62,52.7c0.5-1.4,1.3-1.8,1.9-1.5c0.6,0.3,1.7-0.4,1.7,0.6c0.1,1,0.4,1.6-0.9,0.8c-1.3-0.7-2.3-0.5-2,0
		c0.3,0.5,0.6,0.1,0.6,0.9c0,0.8,1,0.5,0,0.8c-0.9,0.4-1.2,0.7-2.5,0c-1.2-0.7-1.8-0.4-1.5-0.9s1.2,0,1.3,0.2
		c0.2,0.2,1.5,0.2,1.4,0.2c-0.1,0-0.4,0.3-0.7-0.4c-0.3-0.7-0.6-1.3-0.6-1.3C61.2,52.7,62,52.7,62,52.7z"/>
	<path class="st5" d="M43.3,69.5c-0.2,1.1-0.7,1.5-1.2,1.3c-0.5-0.2-1.1,0.5-1.3-0.2c-0.2-0.7-0.5-1,0.6-0.7c1,0.4,1.7,0.1,1.4-0.3
		c-0.3-0.3-0.4,0-0.5-0.6c-0.1-0.6-0.7-0.2-0.1-0.6c0.6-0.4,0.8-0.7,1.7-0.3c1,0.4,1.3,0,1.2,0.5c-0.2,0.4-0.8,0.2-1,0
		c-0.2-0.1-1.1,0-1,0c0.1,0,0.2-0.2,0.5,0.2c0.3,0.4,0.6,0.9,0.6,0.9C43.9,69.4,43.3,69.5,43.3,69.5z"/>
	<path class="st5" d="M35.7,62.3c-0.2,1.1-0.7,1.5-1.2,1.3c-0.5-0.2-1.1,0.5-1.3-0.2c-0.2-0.7-0.5-1,0.6-0.7c1,0.4,1.7,0.1,1.4-0.3
		c-0.3-0.3-0.4,0-0.5-0.6c-0.1-0.6-0.7-0.2-0.1-0.6s0.8-0.7,1.7-0.3c1,0.4,1.3,0,1.2,0.5c-0.2,0.4-0.8,0.2-1,0s-1.1,0-1,0
		s0.2-0.2,0.5,0.2c0.3,0.4,0.6,0.9,0.6,0.9C36.2,62.2,35.7,62.3,35.7,62.3z"/>
	<path class="st7" d="M57.2,62.3c-0.2,1.1-0.7,1.5-1.2,1.3c-0.5-0.2-1.1,0.5-1.3-0.2c-0.2-0.7-0.5-1,0.6-0.7c1,0.4,1.7,0.1,1.4-0.3
		c-0.3-0.3-0.4,0-0.5-0.6c-0.1-0.6-0.7-0.2-0.1-0.6s0.8-0.7,1.7-0.3c1,0.4,1.3,0,1.2,0.5c-0.2,0.4-0.8,0.2-1,0s-1.1,0-1,0
		c0.1,0,0.2-0.2,0.5,0.2c0.3,0.4,0.6,0.9,0.6,0.9C57.8,62.2,57.2,62.3,57.2,62.3z"/>
	<path class="st7" d="M69.6,63.8c-0.2,1.1-0.7,1.5-1.2,1.3c-0.5-0.2-1.1,0.5-1.3-0.2c-0.2-0.7-0.5-1,0.6-0.7c1,0.4,1.7,0.1,1.4-0.3
		c-0.3-0.3-0.4,0-0.5-0.6c-0.1-0.6-0.7-0.2-0.1-0.6c0.6-0.4,0.8-0.7,1.7-0.3c1,0.4,1.3,0,1.2,0.5c-0.2,0.4-0.8,0.2-1,0
		c-0.2-0.1-1.1,0-1,0c0.1,0,0.2-0.2,0.5,0.2c0.3,0.4,0.6,0.9,0.6,0.9C70.1,63.7,69.6,63.8,69.6,63.8z"/>
	<path class="st7" d="M57.2,69.8c-0.2,1.1-0.7,1.5-1.2,1.3c-0.5-0.2-1.1,0.5-1.3-0.2c-0.2-0.7-0.5-1,0.6-0.7c1,0.4,1.7,0.1,1.4-0.3
		s-0.4,0-0.5-0.6c-0.1-0.6-0.7-0.2-0.1-0.6s0.8-0.7,1.7-0.3c1,0.4,1.3,0,1.2,0.5c-0.2,0.4-0.8,0.2-1,0c-0.2-0.1-1.1,0-1,0
		c0.1,0,0.2-0.2,0.5,0.2c0.3,0.4,0.6,0.9,0.6,0.9C57.8,69.7,57.2,69.8,57.2,69.8z"/>
	<path class="st7" d="M60.2,50.6c-0.2,1.1-0.7,1.5-1.2,1.3c-0.5-0.2-1.1,0.5-1.3-0.2c-0.2-0.7-0.5-1,0.6-0.7c1,0.4,1.7,0.1,1.4-0.3
		c-0.3-0.3-0.4,0-0.5-0.6C59,49.6,58.4,50,59,49.6s0.8-0.7,1.7-0.3c1,0.4,1.3,0,1.2,0.5c-0.2,0.4-0.8,0.2-1,0c-0.2-0.1-1.1,0-1,0
		c0.1,0,0.2-0.2,0.5,0.2c0.3,0.4,0.6,0.9,0.6,0.9C60.8,50.5,60.2,50.6,60.2,50.6z"/>
	<path class="st7" d="M83.7,69.5c-0.2,1.1-0.7,1.5-1.2,1.3s-1.1,0.5-1.3-0.2c-0.2-0.7-0.5-1,0.6-0.7c1,0.4,1.7,0.1,1.4-0.3
		c-0.3-0.3-0.4,0-0.5-0.6s-0.7-0.2-0.1-0.6c0.6-0.4,0.8-0.7,1.7-0.3c1,0.4,1.3,0,1.2,0.5s-0.8,0.2-1,0c-0.2-0.1-1.1,0-1,0
		c0.1,0,0.2-0.2,0.5,0.2c0.3,0.4,0.6,0.9,0.6,0.9C84.3,69.4,83.7,69.5,83.7,69.5z"/>
	<path class="st5" d="M23.8,69.5c-0.2,1.1-0.7,1.5-1.2,1.3c-0.5-0.2-1.1,0.5-1.3-0.2c-0.2-0.7-0.5-1,0.6-0.7c1,0.4,1.7,0.1,1.4-0.3
		c-0.3-0.3-0.4,0-0.5-0.6c-0.1-0.6-0.7-0.2-0.1-0.6c0.6-0.4,0.8-0.7,1.7-0.3c1,0.4,1.3,0,1.2,0.5s-0.8,0.2-1,0c-0.2-0.1-1.1,0-1,0
		c0.1,0,0.2-0.2,0.5,0.2c0.3,0.4,0.6,0.9,0.6,0.9C24.3,69.4,23.8,69.5,23.8,69.5z"/>
</g>
</svg>
