<?xml version="1.0" encoding="utf-8"?>
<!-- Generator: Adobe Illustrator 23.1.1, SVG Export Plug-In . SVG Version: 6.00 Build 0)  -->
<svg version="1.1" id="Layer_1" xmlns="http://www.w3.org/2000/svg" xmlns:xlink="http://www.w3.org/1999/xlink" x="0px" y="0px"
	 viewBox="0 0 38.5 30.2" style="enable-background:new 0 0 38.5 30.2;" xml:space="preserve">
<style type="text/css">
	.st0{fill:#ACB4B9;}
	.st1{fill:#63686C;}
	.st2{fill:#9BA3A8;}
	.st3{fill:#7EB5DC;}
	.st4{fill:#88BCDF;}
</style>
<g>
	<rect x="12.7" y="2" class="st0" width="13.1" height="9.2"/>
	<rect class="st1" width="38.5" height="6.9"/>
	<rect y="2" class="st2" width="38.5" height="3"/>
	<path class="st3" d="M23.6,21.6c-1-2.1-1.1-1.7-4.3-7.2c-3.2,5.5-3.3,5.2-4.3,7.2c-1.8,3.9-0.4,8.6,4.3,8.6S25.4,25.5,23.6,21.6z"
		/>
	<path class="st4" d="M21.8,21.9c0.4,0.9,0.4,2,0,3c-0.8,2-3.1,3-5.2,2.2c-0.5-0.2-0.9-0.5-1.3-0.8c0.4,1,1.2,1.8,2.2,2.2
		c2,0.8,4.3-0.2,5.2-2.2C23.4,24.7,23,23,21.8,21.9z"/>
</g>
</svg>
