<?xml version="1.0" encoding="utf-8"?>
<!-- Generator: Adobe Illustrator 23.1.1, SVG Export Plug-In . SVG Version: 6.00 Build 0)  -->
<svg version="1.1" id="Layer_1" xmlns="http://www.w3.org/2000/svg" xmlns:xlink="http://www.w3.org/1999/xlink" x="0px" y="0px"
	 viewBox="0 0 79.8 12.5" style="enable-background:new 0 0 79.8 12.5;" xml:space="preserve">
<style type="text/css">
	.st0{fill:#D4D5D6;}
	.st1{fill:#767679;}
	.st2{fill:#C5C6C8;}
	.st3{fill:#8D9092;}
	.st4{fill:#6E6F72;}
	.st5{fill:#A3A5A8;}
	.st6{fill:#AFB0B2;}
	.st7{fill:#C0C2C4;}
	.st8{fill:#A5A7AA;}
	.st9{fill:#A1A2A5;}
	.st10{fill:#95969A;stroke:#BDBEC0;stroke-width:0.5;stroke-miterlimit:10;}
</style>
<g>
	<rect x="11" y="1.3" class="st0" width="59.3" height="9.3"/>
	<g>
		<path class="st1" d="M23,7.2c0.4-0.2,0.9,0,1.3,0.1c0.5,0.2,1,0.5,1.1,1s-0.1,0.9-0.3,1.4c-0.2,0.3-0.4,0.9-0.8,1.1
			c-0.4,0.2-0.9-0.1-1.3-0.2c-0.5-0.2-1-0.4-1.2-0.9s0-1.1,0.3-1.5C22.3,7.8,22.6,7.4,23,7.2z"/>
		<path class="st2" d="M18.2,1.3c0.4-0.2,0.9,0,1.3,0.1c0.5,0.2,1,0.5,1.1,1s-0.1,0.9-0.3,1.4C20.2,4,20,4.6,19.6,4.8
			c-0.4,0.2-0.9-0.1-1.3-0.2c-0.5-0.2-1-0.4-1.2-0.9s0-1.1,0.3-1.5C17.5,1.9,17.8,1.5,18.2,1.3z"/>
		<path class="st3" d="M15.3,6.2c0.9,0.4,1.6,0.6,2.1,1.3c0.6,0.8,0.9,1.6,0.5,2.4s-1.2,1.1-2.1,1.2c-0.8,0.1-1.6-0.1-2.5-0.4
			c-0.9-0.4-1.7-0.8-2.1-1.4c-0.6-0.8-0.8-1.7-0.5-2.5c0.3-0.8,1.1-1.4,2.1-1.5C13.6,5.2,14.4,5.8,15.3,6.2z"/>
		<path class="st3" d="M29.6,2.2c0.9,0.4,1.7,0.6,2.1,1.3c0.6,0.8,0.9,1.6,0.6,2.4c-0.3,0.8-1.2,1.1-2.1,1.2
			c-0.8,0.1-1.6-0.1-2.5-0.4c-0.9-0.4-1.7-0.8-2.1-1.4c-0.6-0.8-0.8-1.7-0.5-2.5c0.3-0.8,1.1-1.4,2.1-1.5C28,1.2,28.7,1.9,29.6,2.2z
			"/>
		<path class="st3" d="M38.7,3.2c0.5,0.7,1,1.2,1,1.8c0.1,0.8,0,1.6-0.6,2c-0.6,0.4-1.3,0.3-2.1,0c-0.6-0.2-1.1-0.7-1.6-1.4
			c-0.5-0.7-0.9-1.3-1-1.9c-0.1-0.8,0.1-1.6,0.7-2c0.6-0.4,1.4-0.5,2.2-0.2C37.9,1.8,38.2,2.6,38.7,3.2z"/>
		<path class="st3" d="M18.9,3.4c0.5,0.7,1,1.2,1,1.8c0.1,0.8,0,1.6-0.6,2c-0.6,0.4-1.3,0.3-2.1,0c-0.6-0.2-1.1-0.7-1.6-1.4
			c-0.5-0.7-0.9-1.3-1-1.9c-0.1-0.8,0.1-1.6,0.7-2s1.4-0.5,2.2-0.2C18.2,2,18.4,2.8,18.9,3.4z"/>
		<path class="st4" d="M40.6,6.2C39.6,6,38.8,6,38.2,5.5c-0.8-0.6-1.3-1.3-1.2-2.2s0.8-1.3,1.7-1.7c0.7-0.3,1.5-0.4,2.5-0.2
			c1,0.1,1.8,0.3,2.4,0.8c0.8,0.6,1.2,1.4,1.1,2.3s-0.7,1.6-1.6,2C42.4,6.8,41.5,6.3,40.6,6.2z"/>
		<path class="st5" d="M26.4,6.2c0.7,0,1.6,0.2,2.1,0.5c0.7,0.4,1,1.2,1,1.8c0,0.7-0.5,1.2-1.1,1.7c-0.5,0.3-1.2,0.3-1.9,0.3
			c-0.7,0-1.5,0.2-2-0.1c-0.7-0.4-0.8-1.1-0.8-1.7c0-0.7,0.1-1.4,0.7-1.8C24.9,6.6,25.6,6.3,26.4,6.2z"/>
		<path class="st1" d="M49,1.6c0.8,0.3,1.3,0.9,1.7,1.5c0.5,0.7,1,1.5,0.8,2.2c-0.3,0.7-1.2,0.8-2.1,0.9c-0.7,0.1-1.3-0.1-2.1-0.4
			c-0.8-0.3-1.6-0.5-2-1.1c-0.5-0.7-0.5-1.5-0.2-2.2c0.3-0.7,0.8-1.1,1.7-1.2C47.4,1.2,48.2,1.3,49,1.6z"/>
		<path class="st6" d="M20.9,6.2c0.8,0.1,1.5,0.5,2,1c0.7,0.6,1.4,1.1,1.3,1.9s-1,1.1-1.8,1.4c-0.7,0.3-1.3,0.3-2.2,0.2
			c-0.8-0.1-1.6-0.1-2.2-0.6c-0.7-0.6-0.9-1.3-0.8-2c0.1-0.8,0.5-1.3,1.3-1.6C19.3,6.2,20.1,6.1,20.9,6.2z"/>
		<path class="st1" d="M23.8,1.1c0.9,0.2,1.6,0.9,2.1,1.5c0.6,0.7,1.1,1.5,0.9,2.3c-0.2,0.8-1.1,1.1-2,1.3c-0.7,0.2-1.6,0.8-2.5,0.5
			c-0.9-0.2-1.5-1.1-2-1.6c-0.6-0.7-1.3-1.5-1.1-2.3c0.2-0.8,1.2-1.3,2.1-1.5C22,1.1,23,0.9,23.8,1.1z"/>
		<path class="st1" d="M38.5,10.8c-0.9,0.3-1.8,0-2.5-0.1c-0.9-0.2-1.7-0.8-2-1.5c-0.2-0.8,0.4-1.5,1-2.2c0.5-0.6,1-1.5,1.8-1.8
			c0.9-0.3,1.8,0.2,2.5,0.3c0.9,0.2,1.9,0.6,2.1,1.4c0.2,0.8-0.3,1.7-0.9,2.4C40,9.9,39.3,10.6,38.5,10.8z"/>
		<path class="st3" d="M48.5,5.7c0.8,0.3,1.3,1,1.7,1.6c0.5,0.7,0.8,1.5,0.5,2.2c-0.3,0.7-1.1,0.8-1.9,0.9c-0.7,0.1-1.5,0.5-2.3,0.1
			s-1.2-1.2-1.5-1.7c-0.5-0.7-0.9-1.5-0.7-2.2c0.3-0.7,1.2-1,2-1.1C46.8,5.5,47.7,5.4,48.5,5.7z"/>
		<path class="st1" d="M34.1,1.6c0.8,0.3,1.3,1,1.7,1.6c0.5,0.7,0.8,1.5,0.5,2.2s-1.1,0.8-1.9,0.9c-0.7,0.1-1.5,0.5-2.3,0.1
			c-0.8-0.3-1.2-1.2-1.5-1.7c-0.5-0.7-1-1.5-0.7-2.2c0.3-0.7,1.2-1,2-1.1C32.4,1.3,33.3,1.3,34.1,1.6z"/>
		<path class="st7" d="M32.4,5.7c0.8,0.3,1.3,1,1.7,1.6c0.5,0.7,0.8,1.5,0.5,2.2c-0.3,0.7-1.1,0.8-1.9,0.9c-0.7,0.1-1.5,0.5-2.3,0.1
			s-1.2-1.2-1.5-1.7c-0.5-0.7-1-1.5-0.7-2.2c0.3-0.7,1.2-1,2-1.1C30.8,5.5,31.7,5.4,32.4,5.7z"/>
		<path class="st2" d="M41.1,7c0.4-0.6,1-1.1,1.5-1.4c0.6-0.3,1.5-0.2,2,0.2c0.5,0.3,0.7,1,0.7,1.7c0,0.6-0.4,1.1-0.8,1.7
			c-0.4,0.6-0.7,1.2-1.2,1.5c-0.6,0.3-1.3,0-1.8-0.3c-0.5-0.3-1.1-0.8-1-1.5C40.6,8.4,40.8,7.6,41.1,7z"/>
		<path class="st8" d="M44,1.6c0.6-0.2,1.3,0,1.8,0.1c0.7,0.2,1.3,0.6,1.5,1.3s-0.1,1.3-0.4,1.8c-0.3,0.5-0.5,1.3-1.1,1.5
			S44.5,6.2,44,6c-0.7-0.2-1.4-0.5-1.6-1.2c-0.2-0.7,0-1.5,0.4-2C43,2.4,43.4,1.8,44,1.6z"/>
		<path class="st8" d="M12.6,1.4c0.6-0.2,1.3,0,1.8,0.1c0.6,0.2,1.3,0.6,1.5,1.3s-0.1,1.3-0.4,1.8c-0.3,0.5-0.5,1.3-1.1,1.5
			S13.2,6,12.6,5.8C12,5.6,11.2,5.3,11,4.7c-0.2-0.7,0-1.5,0.4-2C11.6,2.2,12,1.6,12.6,1.4z"/>
		<path class="st1" d="M58,7.2c-0.4-0.2-0.9,0-1.3,0.1c-0.5,0.2-0.9,0.5-1.1,1s0.1,0.9,0.3,1.4c0.2,0.3,0.4,0.9,0.8,1.1
			c0.4,0.2,0.9-0.1,1.3-0.2c0.5-0.2,1-0.4,1.2-0.9s0-1.1-0.3-1.5C58.7,7.7,58.4,7.3,58,7.2z"/>
		<path class="st3" d="M66,6c-0.9,0.4-1.7,0.6-2.1,1.3c-0.6,0.8-0.9,1.6-0.6,2.4s1.2,1.1,2.1,1.2c0.8,0.1,1.6-0.1,2.4-0.4
			c0.9-0.4,1.7-0.8,2.1-1.4c0.6-0.8,0.8-1.7,0.5-2.5c-0.3-0.8-1.1-1.4-2.1-1.5C67.6,4.9,66.9,5.6,66,6z"/>
		<path class="st3" d="M51.4,2.2c-0.9,0.4-1.7,0.6-2.1,1.3c-0.6,0.8-0.9,1.6-0.5,2.4C49,6.6,49.9,6.9,50.8,7
			c0.8,0.1,1.6-0.1,2.4-0.4c0.9-0.4,1.7-0.8,2.1-1.4c0.6-0.8,0.8-1.7,0.5-2.5c-0.3-0.8-1.1-1.4-2.1-1.5C53,1.1,52.2,1.8,51.4,2.2z"
			/>
		<path class="st3" d="M42.3,3.2c-0.5,0.7-1,1.2-1,1.8c-0.1,0.8,0,1.6,0.6,2c0.6,0.4,1.3,0.3,2.1,0c0.6-0.2,1.1-0.7,1.6-1.4
			c0.5-0.7,0.9-1.3,1-1.9c0.1-0.8-0.1-1.6-0.7-2c-0.6-0.4-1.4-0.5-2.2-0.2C43.1,1.7,42.8,2.5,42.3,3.2z"/>
		<path class="st3" d="M62.1,3.3c-0.5,0.7-1,1.2-1,1.8c-0.1,0.8,0,1.6,0.6,2c0.6,0.4,1.3,0.3,2.1,0c0.6-0.2,1.1-0.7,1.6-1.4
			c0.5-0.7,0.9-1.3,1-1.9c0.1-0.8-0.1-1.6-0.7-2s-1.4-0.5-2.2-0.2C62.8,1.9,62.5,2.7,62.1,3.3z"/>
		<path class="st4" d="M40.4,6.1c1-0.1,1.8-0.2,2.4-0.7c0.8-0.6,1.3-1.3,1.2-2.2s-0.8-1.3-1.7-1.7c-0.7-0.3-1.5-0.4-2.5-0.2
			c-0.9,0.1-1.8,0.3-2.4,0.8c-0.8,0.6-1.2,1.4-1.1,2.3s0.7,1.6,1.6,2C38.6,6.7,39.5,6.2,40.4,6.1z"/>
		<path class="st5" d="M54.6,6.2c-0.7,0-1.6,0.2-2.1,0.5c-0.7,0.4-1,1.2-1,1.8c0,0.7,0.5,1.2,1.1,1.7c0.5,0.3,1.2,0.3,1.9,0.3
			c0.7,0,1.5,0.2,2-0.1c0.7-0.4,0.8-1.1,0.8-1.7c0-0.7-0.1-1.4-0.7-1.8C56.1,6.5,55.4,6.2,54.6,6.2z"/>
		<path class="st1" d="M32,1.6c-0.8,0.3-1.3,0.9-1.7,1.5c-0.5,0.7-1,1.5-0.8,2.2c0.3,0.7,1.2,0.8,2.1,0.9c0.7,0.1,1.3-0.1,2.1-0.4
			c0.8-0.3,1.5-0.5,2-1.1c0.5-0.7,0.5-1.5,0.2-2.2c-0.3-0.7-0.8-1.1-1.7-1.2C33.6,1.1,32.8,1.2,32,1.6z"/>
		<path class="st6" d="M60.1,6.1c-0.8,0.1-1.4,0.5-2,1c-0.7,0.6-1.4,1.1-1.3,1.9s1,1.1,1.8,1.4c0.7,0.3,1.3,0.3,2.2,0.2
			c0.8-0.1,1.6-0.1,2.2-0.6c0.7-0.6,0.9-1.3,0.8-2c-0.1-0.8-0.5-1.3-1.3-1.6C61.7,6.1,60.9,6,60.1,6.1z"/>
		<path class="st1" d="M57,1.2c-0.9,0.2-1.6,0.9-2.2,1.5c-0.7,0.7-1.1,1.6-0.9,2.4S55,6.3,56,6.6c0.8,0.2,1.7,0.8,2.6,0.5
			s1.5-1.1,2.1-1.7C61.3,4.7,62,3.8,61.8,3c-0.2-0.8-1.2-1.3-2.2-1.6C58.9,1.2,57.9,1,57,1.2z"/>
		<path class="st9" d="M42.5,10.8c0.9,0.3,1.8,0,2.5-0.1c0.9-0.2,1.7-0.8,2-1.5c0.2-0.8-0.4-1.5-1-2.2c-0.5-0.6-1-1.5-1.8-1.8
			c-0.9-0.3-1.8,0.2-2.5,0.3c-0.9,0.2-1.9,0.6-2.1,1.4c-0.2,0.8,0.3,1.7,0.9,2.4C41,9.8,41.7,10.5,42.5,10.8z"/>
		<path class="st3" d="M32.5,5.6c-0.8,0.3-1.3,1-1.7,1.6c-0.5,0.7-0.8,1.5-0.5,2.2s1.1,0.8,1.9,0.9c0.7,0.1,1.5,0.5,2.3,0.1
			s1.2-1.2,1.5-1.7c0.5-0.7,0.9-1.5,0.7-2.2c-0.3-0.7-1.2-1-2-1.1C34.1,5.4,33.3,5.3,32.5,5.6z"/>
		<path class="st3" d="M60.1,1.6c-0.8,0.3-1.3,1-1.7,1.6c-0.5,0.7-0.8,1.5-0.5,2.2s1.1,0.8,1.9,0.9c0.7,0.1,1.5,0.5,2.3,0.1
			s1.2-1.2,1.5-1.7c0.5-0.7,0.9-1.5,0.7-2.2c-0.3-0.7-1.2-1-2-1.1C61.7,1.3,60.8,1.3,60.1,1.6z"/>
		<path class="st1" d="M46.9,1.5c-0.8,0.3-1.3,1-1.7,1.6c-0.5,0.7-0.8,1.5-0.5,2.2c0.3,0.7,1.1,0.8,1.9,0.9c0.7,0.1,1.5,0.5,2.3,0.1
			s1.2-1.2,1.5-1.7c0.5-0.7,0.9-1.5,0.7-2.2c-0.3-0.7-1.2-1-2-1.1C48.6,1.2,47.7,1.2,46.9,1.5z"/>
		<path class="st7" d="M48.5,5.9c-0.7,0.3-1.2,1-1.6,1.5c-0.5,0.7-0.7,1.5-0.4,2.1c0.3,0.6,1.1,0.8,1.9,0.9c0.6,0.1,1.5,0.5,2.2,0.1
			c0.7-0.3,1.1-1.1,1.5-1.6c0.5-0.7,0.9-1.5,0.6-2.1c-0.3-0.6-1.2-1-1.9-1.1C50.1,5.6,49.2,5.6,48.5,5.9z"/>
		<path class="st2" d="M65.5,4.3c-0.4-0.6-1-1.1-1.5-1.4c-0.6-0.3-1.5-0.2-2,0.2c-0.5,0.3-0.7,1-0.7,1.7c0,0.6,0.4,1.1,0.8,1.7
			c0.4,0.6,0.7,1.2,1.2,1.5c0.6,0.3,1.3,0,1.8-0.3c0.5-0.3,1.1-0.8,1-1.5C66,5.6,65.9,4.9,65.5,4.3z"/>
		<path class="st2" d="M21.4,4.9c-0.4-0.6-1-1.1-1.5-1.4c-0.6-0.3-1.5-0.2-2,0.2c-0.5,0.3-0.7,1-0.7,1.7c0,0.6,0.4,1.1,0.8,1.7
			c0.4,0.6,0.7,1.2,1.2,1.5c0.6,0.3,1.3,0,1.8-0.3c0.5-0.3,1.1-0.8,1-1.5C22,6.2,21.8,5.5,21.4,4.9z"/>
		<path class="st8" d="M37,1.5c-0.6-0.2-1.3,0-1.8,0.1c-0.7,0.2-1.3,0.6-1.5,1.3s0.1,1.3,0.4,1.8c0.3,0.5,0.5,1.3,1.1,1.5
			s1.3-0.1,1.8-0.3c0.7-0.2,1.4-0.5,1.6-1.2c0.2-0.7,0-1.5-0.4-2C38,2.3,37.6,1.7,37,1.5z"/>
		<path class="st8" d="M68.4,1.3c-0.6-0.2-1.3,0-1.8,0.1c-0.7,0.2-1.3,0.6-1.5,1.3s0.1,1.3,0.4,1.8C65.8,5,66,5.8,66.6,6
			s1.3-0.1,1.8-0.3C69,5.6,69.8,5.2,70,4.6c0.2-0.7,0-1.5-0.4-2C69.3,2.1,68.9,1.5,68.4,1.3z"/>
		<path class="st2" d="M25.3,4c-0.5-0.2-1.2,0-1.7,0.1c-0.6,0.2-1.2,0.6-1.5,1.2c-0.2,0.6,0.1,1.2,0.4,1.7c0.3,0.5,0.5,1.2,1,1.4
			c0.5,0.2,1.2-0.1,1.7-0.3c0.6-0.2,1.3-0.5,1.5-1.1c0.2-0.6,0-1.4-0.3-1.9C26.2,4.8,25.8,4.2,25.3,4z"/>
		<path class="st1" d="M13,6c-0.2,0.5-0.1,1.2,0,1.7c0.2,0.6,0.5,1.2,1.2,1.5c0.6,0.3,1.2,0,1.8-0.3c0.5-0.2,1.2-0.4,1.4-1
			c0.2-0.5-0.1-1.2-0.2-1.7c-0.2-0.6-0.4-1.3-1-1.6c-0.6-0.3-1.4,0-1.9,0.3C13.8,5.1,13.3,5.4,13,6z"/>
	</g>
	<rect x="67.5" y="0.2" class="st10" width="12" height="12"/>
	<rect x="0.2" y="0.2" class="st10" width="12" height="12"/>
</g>
</svg>
