<?xml version="1.0" encoding="utf-8"?>
<!-- Generator: Adobe Illustrator 23.1.1, SVG Export Plug-In . SVG Version: 6.00 Build 0)  -->
<svg version="1.1" id="Layer_1" xmlns="http://www.w3.org/2000/svg" xmlns:xlink="http://www.w3.org/1999/xlink" x="0px" y="0px"
	 viewBox="0 0 108 108" style="enable-background:new 0 0 108 108;" xml:space="preserve">
<style>
      .cls-1 {
        fill: #515254;
      }

      .cls-2 {
        fill: #454748;
      }

      .cls-3 {
        fill: #a9abae;
      }

      .cls-4 {
        fill: #fcc358;
      }

      .cls-5 {
        fill: #e68225;
      }

      .cls-6 {
        fill: #77787b;
        stroke: #6d6e71;
        stroke-miterlimit: 10;
        stroke-width: 0.6px;
      }
    </style>
<g>
    <path class="cls-1" d="M 93.92 54.76 L 86.83 60.86 L 84.38 58.86 L 81.22 60.69 C 81.22 60.69 70.33 71.08 69 70.94 C 67.67 70.8 55.56 65.77 55.56 65.77 L 52.37 65.77 L 35.16 68.52 L 29 64.17 L 26.8 60.81 L 23.64 59.1 L 19.3 59.1 L 14.06 54.73 L 15 69.51 C 15 74.67 18.26 79.41 23.67 83.12 L 26.8 85 C 34.732 89.003 43.485 91.109 52.37 91.15 L 55.51 91.15 C 64.417 91.134 73.196 89.038 81.15 85.03 L 84.31 83.12 C 89.72 79.44 93 74.75 93 69.55 C 92.989 68.986 92.932 68.424 92.83 67.87 L 93.92 54.76 Z"/>
    <ellipse class="cls-2" cx="54.02" cy="50.39" rx="37.6" ry="16.9"/>
    <path class="cls-3" d="M 14.06 53 L 15 67.82 L 19.33 74.54 L 23.67 81.39 L 26.83 83.31 L 45.93 87.31 L 52.4 89.43 L 55.54 89.43 L 81.18 83.31 L 84.34 81.4 L 90.74 71.21 L 92.84 66.02 L 93.84 53.02 L 86.75 59.12 L 84.3 57.12 L 81.15 59 C 81.15 59 70.26 69.34 68.94 69.21 C 67.62 69.08 55.5 64 55.5 64 L 52.37 64 L 35.16 66.79 L 29 62.44 L 26.8 59.08 L 23.64 57.35 L 19.3 57.35 L 14.06 53 Z"/>
    <path class="cls-4" d="M 64.13 58.41 L 69.56 57.6 C 69.56 57.6 74.82 49.2 74.82 47.97 C 74.82 46.74 72.2 32.57 71.82 32.57 C 71.44 32.57 64.4 32.43 64.2 32.57 C 64 32.71 58 47 58 47 L 64.15 58.4"/>
    <path class="cls-5" d="M 56.81 17.48 C 59.021 21.489 60.1 26.025 59.93 30.6 C 54.93 21.81 50.59 13.8 38.76 9.82 C 43.65 17.53 49.76 31.82 42.56 41.44 C 39.28 40.08 38.89 31.76 40.14 25.95 C 26.19 32.57 27.22 44.86 33 56.19 C 43.101 59.077 53.692 59.833 64.1 58.41 C 68.37 52.27 71.1 44.01 68.92 36.88 C 75.02 41.88 73.29 50.19 69.53 57.6 C 71.31 57.3 73.29 56.41 75.01 56.05 C 79.69 37.52 75.71 25.59 56.81 17.48 Z"/>
    <path class="cls-6" d="M 26.8 73.26 L 26.8 83.34 C 34.736 87.328 43.488 89.423 52.37 89.46 L 52.37 78.55 C 43.584 78.464 34.899 76.667 26.8 73.26 Z"/>
    <path class="cls-6" d="M 84.38 72.12 L 84.38 81.43 C 89.79 77.7 93.05 73.02 93.05 67.82 C 93.044 67.226 92.987 66.634 92.88 66.05 C 90.381 68.505 87.513 70.553 84.38 72.12 Z"/>
    <path class="cls-6" d="M 15.25 65.33 C 15.082 66.149 14.998 66.984 15 67.82 C 15 72.97 18.26 77.7 23.67 81.43 L 23.67 71.65 C 20.534 70.023 17.688 67.887 15.25 65.33 Z"/>
    <path class="cls-6" d="M 55.58 78.59 L 55.58 89.46 C 64.485 89.432 73.262 87.337 81.22 83.34 L 81.22 73.63 C 73.066 76.898 64.364 78.582 55.58 78.59 Z"/>
    <path class="cls-6" d="M 19.79 53.3 C 19.43 52.586 19.235 51.8 19.22 51 C 19.22 48 22.03 45.14 26.71 42.91 L 26.71 38.75 C 18.93 42.53 14.06 47.91 14.06 53.87 C 14.09 55.807 14.598 57.707 15.54 59.4 C 17.491 62.703 20.287 65.426 23.64 67.29 L 23.64 57.35 C 22.023 56.362 20.695 54.965 19.79 53.3 Z"/>
    <path class="cls-6" d="M 52.37 74.57 L 52.37 64 C 42 63.87 32.8 62 26.73 59.13 L 26.73 69 C 34.792 72.632 43.528 74.53 52.37 74.57 Z"/>
    <path class="cls-6" d="M 81.22 69 L 81.22 58.94 C 75.22 61.87 66.01 63.78 55.58 63.94 L 55.58 74.57 C 64.422 74.53 73.158 72.632 81.22 69 Z"/>
    <path class="cls-6" d="M 92 60.24 C 93.25 58.346 93.943 56.139 94 53.87 C 94 47.49 88.41 41.79 79.69 38 L 79.69 42.34 C 85.17 44.64 88.53 47.68 88.53 51.02 C 88.512 51.935 88.268 52.832 87.82 53.63 C 86.959 55.063 85.782 56.28 84.38 57.19 L 84.38 67.26 C 87.431 65.543 90.04 63.14 92 60.24 Z"/>
  </g>
</svg>
