<?xml version="1.0" encoding="utf-8"?>
<!-- Generator: Adobe Illustrator 23.1.1, SVG Export Plug-In . SVG Version: 6.00 Build 0)  -->
<svg version="1.1" id="Layer_1" xmlns="http://www.w3.org/2000/svg" xmlns:xlink="http://www.w3.org/1999/xlink" x="0px" y="0px"
	 viewBox="0 0 54 33" style="enable-background:new 0 0 54 33;" xml:space="preserve">
  <style type="text/css">
	.st0{fill:#A9ABAE;stroke:#A9ABAE;stroke-width:0.9558;stroke-miterlimit:10;}
	.st1{fill:#FFFFFF;stroke:#A9ABAE;stroke-width:1.9116;stroke-miterlimit:10;}
	.st2{fill:none;stroke:#000000;stroke-width:0.9558;stroke-miterlimit:10;}
	.st3{fill:none;stroke:#A9ABAE;stroke-width:0.9558;stroke-miterlimit:10;}
	.st4{opacity:0.59;fill:#DFE4E2;}
	.st5{fill:none;stroke:#A9ABAE;stroke-width:1.9116;stroke-miterlimit:10;}
	.st6{fill:none;stroke:#737577;stroke-width:1.9116;stroke-miterlimit:10;}
</style>
  <g>
    <path class="st0" d="M 46.92 13.156 L 46.92 19.516 C 49.556 19.568 52.038 18.068 53.02 15.431 L 46.92 13.156 Z" style=""/>
    <line class="st1" x1="46.816" y1="13.105" x2="53.28" y2="15.535" style=""/>
    <line class="st2" x1="46.816" y1="13.105" x2="53.28" y2="15.535" style=""/>
    <rect class="st4" width="45.81" height="30.351" style="" x="1.006" y="1.006"/>
    <line class="st5" x1="1.006" y1="15.328" x2="46.816" y2="15.328" style=""/>
    <line class="st5" x1="9.382" y1="1.006" x2="9.382" y2="31.357" style=""/>
    <line class="st5" x1="19.051" y1="1.006" x2="19.051" y2="31.357" style=""/>
    <line class="st5" x1="28.719" y1="1.006" x2="28.719" y2="31.357" style=""/>
    <line class="st5" x1="38.388" y1="1.006" x2="38.388" y2="31.357" style=""/>
    <rect class="st6" width="45.81" height="30.351" style="" x="1.006" y="1.006"/>
    <rect class="st2" width="45.81" height="30.351" style="" x="1.006" y="1.006"/>
    <line class="st2" x1="1.006" y1="15.328" x2="46.816" y2="15.328" style=""/>
    <line class="st2" x1="9.382" y1="1.006" x2="9.382" y2="31.357" style=""/>
    <line class="st2" x1="19.051" y1="1.006" x2="19.051" y2="31.357" style=""/>
    <line class="st2" x1="28.719" y1="1.006" x2="28.719" y2="31.357" style=""/>
    <line class="st2" x1="38.388" y1="1.006" x2="38.388" y2="31.357" style=""/>
  </g>
</svg>