<?xml version="1.0" encoding="utf-8"?>
<!-- Generator: Adobe Illustrator 23.1.1, SVG Export Plug-In . SVG Version: 6.00 Build 0)  -->
<svg version="1.1" id="Layer_1" xmlns="http://www.w3.org/2000/svg" xmlns:xlink="http://www.w3.org/1999/xlink" x="0px" y="0px"
	 viewBox="0 0 88.5 78.1" style="enable-background:new 0 0 88.5 78.1;" xml:space="preserve">
<style type="text/css">
	.st0{fill:#9B7749;}
	.st1{fill:#AD8F69;}
	.st2{fill:#916A37;}
	.st3{fill:#BDA687;}
	.st4{fill:#8E9092;stroke:#6D6F71;stroke-width:0.75;stroke-miterlimit:10;}
	.st5{fill:#BA7962;stroke:#6D6F71;stroke-width:0.5;stroke-miterlimit:10;}
</style>
<g>
	<polygon class="st0" points="17.8,0 17.8,22 0,22 0,36.2 17.8,36.2 26.4,36.2 88.5,36.2 88.5,0 	"/>
	<polygon class="st1" points="26.4,36.2 17.8,36.2 0,36.2 0,54.8 17.8,54.8 17.8,71.9 88.5,71.9 88.5,36.2 	"/>
	<polygon class="st2" points="42.4,60.5 42.4,60.5 42.4,78.1 52.1,78.1 52.1,60.5 52.1,60.5 52.1,49.1 	"/>
	<polygon class="st3" points="52.1,49.1 52.1,60.5 52.1,60.5 52.1,78.1 61.8,78.1 61.8,60.5 61.8,60.5 61.8,60.5 	"/>
	<g>
		<rect x="79.4" y="23" class="st4" width="4.5" height="8.3"/>
		<line class="st5" x1="79.4" y1="23" x2="83.9" y2="31.3"/>
		<line class="st5" x1="83.9" y1="23" x2="79.4" y2="31.3"/>
	</g>
</g>
</svg>
