<?xml version="1.0" encoding="utf-8"?>
<!-- Generator: Adobe Illustrator 23.1.1, SVG Export Plug-In . SVG Version: 6.00 Build 0)  -->
<svg version="1.1" id="Layer_1" xmlns="http://www.w3.org/2000/svg" xmlns:xlink="http://www.w3.org/1999/xlink" x="0px" y="0px"
	 viewBox="0 0 93.1 72.3" style="enable-background:new 0 0 93.1 72.3;" xml:space="preserve">
<style type="text/css">
	.st0{fill:#9B7749;}
	.st1{fill:#AD8F69;}
	.st2{fill:#916A37;}
	.st3{fill:#BDA687;}
	.st4{fill:#9D7A4D;}
	.st5{fill:#8E9092;stroke:#6D6F71;stroke-width:0.75;stroke-miterlimit:10;}
	.st6{fill:#BA7962;stroke:#6D6F71;stroke-width:0.5;stroke-miterlimit:10;}
</style>
<g>
	<g>
		<polygon class="st0" points="78.8,46.5 93,20.7 0,20.7 14.2,46.5 		"/>
		<polygon class="st1" points="14.2,46.5 0,72.3 93,72.3 78.8,46.5 		"/>
		<polygon class="st2" points="14.2,46.5 0,20.7 0,20.7 0,46.5 0,72.3 0,72.3 		"/>
		<polygon class="st3" points="93.1,46.5 93.1,20.7 93,20.7 78.8,46.5 93,72.3 93.1,72.3 		"/>
	</g>
	<g>
		<polygon class="st4" points="57.1,0.2 57.1,0 31.4,0 5.6,0 5.6,0.1 31.4,14.3 		"/>
		<polygon class="st2" points="31.4,17.2 31.4,14.3 5.6,0.1 5.6,17.2 5.6,21.1 31.4,46.5 		"/>
		<polygon class="st3" points="57.1,21.9 57.1,17.2 57.1,0.2 31.4,14.3 31.4,17.2 31.4,46.5 		"/>
	</g>
	<g>
		<polygon class="st2" points="50.5,66.9 50.5,67.1 59.2,67.1 59.2,52.7 		"/>
		<polygon class="st3" points="67.9,66.9 59.2,52.7 59.2,67.1 67.9,67.1 		"/>
	</g>
	<g>
		<polygon class="st2" points="20.6,66.9 20.6,67.1 29.3,67.1 29.3,52.7 		"/>
		<polygon class="st3" points="38,66.9 29.3,52.7 29.3,67.1 38,67.1 		"/>
	</g>
	<g>
		<rect x="86.9" y="42" class="st5" width="4.5" height="8.3"/>
		<line class="st6" x1="86.9" y1="42" x2="91.4" y2="50.3"/>
		<line class="st6" x1="91.4" y1="42" x2="86.9" y2="50.3"/>
	</g>
</g>
</svg>
