<?xml version="1.0" encoding="utf-8"?>
<!-- Generator: Adobe Illustrator 23.1.1, SVG Export Plug-In . SVG Version: 6.00 Build 0)  -->
<svg version="1.1" id="Layer_1" xmlns="http://www.w3.org/2000/svg" xmlns:xlink="http://www.w3.org/1999/xlink" x="0px" y="0px"
	 viewBox="0 0 77.9 78.4" style="enable-background:new 0 0 77.9 78.4;" xml:space="preserve">
<style type="text/css">
	.st0{fill:#9B7749;}
	.st1{fill:#916A37;}
	.st2{fill:#AD8F69;}
	.st3{fill:#BDA687;}
</style>
<g>
	<polygon class="st0" points="33.3,33.8 0,33.8 0,56.1 33.3,56.1 55.5,56.1 55.5,55.8 	"/>
	<polygon class="st1" points="33.3,0 33.3,33.8 55.5,55.8 55.5,33.8 55.5,0 	"/>
	<polygon class="st2" points="55.8,56.1 55.5,56.1 33.3,56.1 0,56.1 0,78.3 33.3,78.3 33.3,78.4 55.5,78.4 77.9,78.4 77.9,78.3 
		77.9,77.7 	"/>
	<polygon class="st3" points="77.9,0 55.5,0 55.5,33.8 55.5,55.8 55.8,56.1 77.9,77.7 77.9,78.3 	"/>
</g>
</svg>
