<?xml version="1.0" encoding="utf-8"?>
<!-- Generator: Adobe Illustrator 23.1.1, SVG Export Plug-In . SVG Version: 6.00 Build 0)  -->
<svg version="1.1" id="Layer_1" xmlns="http://www.w3.org/2000/svg" xmlns:xlink="http://www.w3.org/1999/xlink" x="0px" y="0px"
	 viewBox="0 0 93.1 72.3" style="enable-background:new 0 0 93.1 72.3;" xml:space="preserve">
<style type="text/css">
	.st0{fill:#9B7749;}
	.st1{fill:#AD8F69;}
	.st2{fill:#916A37;}
	.st3{fill:#BDA687;}
	.st4{fill:#9D7A4D;}
	.st5{fill:#8E9092;stroke:#6D6F71;stroke-width:0.75;stroke-miterlimit:10;}
	.st6{fill:#BA7962;stroke:#6D6F71;stroke-width:0.5;stroke-miterlimit:10;}
</style>
<g>
	<g>
		<g>
			<polygon class="st0" points="78.8,46.5 93,20.7 0,20.7 14.2,46.5 			"/>
			<polygon class="st1" points="14.2,46.5 0,72.3 93,72.3 78.8,46.5 			"/>
			<polygon class="st2" points="14.2,46.5 0,20.7 0,20.7 0,46.5 0,72.3 0,72.3 			"/>
			<polygon class="st3" points="93.1,46.5 93.1,20.7 93,20.7 78.8,46.5 93,72.3 93.1,72.3 			"/>
		</g>
		<g>
			<polygon class="st4" points="72.3,0.2 72.3,0 46.5,0 20.7,0 20.7,0.1 46.5,14.3 			"/>
			<polygon class="st2" points="46.5,17.2 46.5,14.3 20.7,0.1 20.7,17.2 20.7,21.1 46.5,46.5 			"/>
			<polygon class="st3" points="72.3,21.9 72.3,17.2 72.3,0.2 46.5,14.3 46.5,17.2 46.5,46.5 			"/>
		</g>
		<g>
			<rect x="86.9" y="42" class="st5" width="4.5" height="8.3"/>
			<line class="st6" x1="86.9" y1="42" x2="91.4" y2="50.3"/>
			<line class="st6" x1="91.4" y1="42" x2="86.9" y2="50.3"/>
		</g>
	</g>
	<g>
		<g>
			<polygon class="st2" points="52.8,66.9 52.8,67.1 61.5,67.1 61.5,52.7 			"/>
			<polygon class="st3" points="70.2,66.9 61.5,52.7 61.5,67.1 70.2,67.1 			"/>
		</g>
		<g>
			<polygon class="st2" points="22.9,66.9 22.9,67.1 31.6,67.1 31.6,52.7 			"/>
			<polygon class="st3" points="40.3,66.9 31.6,52.7 31.6,67.1 40.3,67.1 			"/>
		</g>
	</g>
</g>
</svg>
