<?xml version="1.0" encoding="utf-8"?>
<!-- Generator: Adobe Illustrator 23.1.1, SVG Export Plug-In . SVG Version: 6.00 Build 0)  -->
<svg version="1.1" id="Layer_1" xmlns="http://www.w3.org/2000/svg" xmlns:xlink="http://www.w3.org/1999/xlink" x="0px" y="0px"
	 viewBox="0 0 93.1 79.3" style="enable-background:new 0 0 93.1 79.3;" xml:space="preserve">
<style type="text/css">
	.st0{fill:#916A37;}
	.st1{fill:#9D7A4D;}
	.st2{fill:#9B7749;}
	.st3{fill:#AD8F69;}
	.st4{fill:#BDA687;}
</style>
<g>
	<g>
		<polygon class="st0" points="0,27.8 0,27.8 0,53.6 0,79.3 0,79.3 22.7,53.6 		"/>
		<g>
			<polygon class="st1" points="93,0 93,0 61.9,0 77.4,13.7 			"/>
			<g>
				<polygon class="st2" points="77.4,45.5 61.9,27.8 61.9,27.8 0,27.8 22.7,53.6 61.9,53.6 70.3,53.6 				"/>
				<polygon class="st3" points="70.3,53.6 61.9,53.6 22.7,53.6 0,79.3 61.9,79.3 61.9,79.3 93,79.3 77.4,61.7 				"/>
				<polygon class="st0" points="77.4,27.8 77.4,13.7 61.9,0 61.9,27.8 77.4,45.5 				"/>
				<polygon class="st4" points="93,0 77.4,13.7 77.4,27.8 77.4,45.5 70.3,53.6 77.4,61.7 93,79.3 93.1,79.3 				"/>
			</g>
		</g>
	</g>
	<g>
		<polygon class="st0" points="52.7,73.6 52.7,73.8 61.4,73.8 61.4,59.4 		"/>
		<polygon class="st4" points="70.2,73.6 61.4,59.4 61.4,73.8 70.2,73.8 		"/>
	</g>
	<g>
		<polygon class="st0" points="22.8,73.6 22.8,73.8 31.5,73.8 31.5,59.4 		"/>
		<polygon class="st4" points="40.3,73.6 31.5,59.4 31.5,73.8 40.3,73.8 		"/>
	</g>
</g>
</svg>
