<?xml version="1.0" encoding="utf-8"?>
<svg version="1.1" id="Layer_1" x="0px" y="0px" viewBox="0 0 78.3 55.5" style="enable-background:new 0 0 78.3 55.5;" xmlns="http://www.w3.org/2000/svg" xmlns:bx="https://boxy-svg.com">
  <style type="text/css">
	.st0{fill:#3FBFE2;}
	.st1{fill:#3AAECF;}
	.st2{fill:#65C4E4;}
	.st3{fill:none;stroke:#BEBFC1;stroke-width:3.0188;stroke-miterlimit:10;}
</style>
  <g transform="matrix(1, 0, 0, 1, 0.025902, -0.008347)" bx:origin="0 0">
    <path class="st0" d="M 34.9 6.1 C 24.4 6.1 15 9 8.2 13.8 C 6.6 16.7 5.7 19.9 5.7 23.2 C 5.7 37.7 22.45 50.998 43.25 50.998 C 53.65 50.998 63.2 46.4 70 41.6 C 71.6 38.7 72.5 35.5 72.5 32.2 C 72.5 17.8 55.7 6.1 34.9 6.1 Z"/>
    <path class="st1" d="M 76.7 27.8 C 76.7 13.3 59.9 1.6 39.1 1.6 C 24.5 1.6 11.8 7.4 5.6 15.9 C 12.5 10 23 6.2 34.8 6.2 C 55.6 6.2 72.4 18 72.4 32.4 C 72.4 36.7 70.9 40.8 68.3 44.3 C 73.6 39.8 76.7 34 76.7 27.8 Z"/>
    <path class="st2" d="M 5.7 23.2 C 5.7 19.9 6.6 16.7 8.2 13.8 C 7.3 14.4 6.4 15.1 5.7 15.8 C 3 19.4 1.5 23.4 1.5 27.7 C 1.5 42.2 18.4 54 39.1 54 C 50.9 54 61.4 50.2 68.3 44.3 C 68.9 43.5 69.5 42.6 70 41.7 C 63.2 46.5 53.8 49.5 43.3 49.5 C 22.5 49.4 5.7 37.7 5.7 23.2 Z"/>
    <ellipse class="st3" cx="39.1" cy="27.8" rx="37.6" ry="26.2"/>
  </g>
</svg>