<?xml version="1.0" encoding="utf-8"?>
<!-- Generator: Adobe Illustrator 23.1.1, SVG Export Plug-In . SVG Version: 6.00 Build 0)  -->
<svg version="1.1" id="Layer_1" xmlns="http://www.w3.org/2000/svg" xmlns:xlink="http://www.w3.org/1999/xlink" x="0px" y="0px"
	 viewBox="0 0 63.3 56.1" style="enable-background:new 0 0 63.3 56.1;" xml:space="preserve">
<style type="text/css">
	.st0{fill:#817B6A;}
	.st1{fill:#938B79;}
	.st2{fill:#B8AB93;}
</style>
<g>
	<g>
		
			<rect x="28.9" y="16.3" transform="matrix(5.091045e-11 -1 1 5.091045e-11 -16.2784 79.6243)" class="st0" width="5.6" height="63.3"/>
		
			<rect x="28.9" y="-23.5" transform="matrix(5.025764e-11 -1 1 5.025764e-11 23.5021 39.8438)" class="st0" width="5.6" height="63.3"/>
	</g>
	<g>
		<rect x="3.6" class="st1" width="5.6" height="56.1"/>
		<rect x="16.2" class="st1" width="5.6" height="56.1"/>
		<rect x="28.9" class="st1" width="5.6" height="56.1"/>
		<rect x="41.5" class="st1" width="5.6" height="56.1"/>
		<rect x="54.2" class="st1" width="5.6" height="56.1"/>
	</g>
	<g>
		<rect x="9.2" y="2.6" class="st2" width="7.1" height="2.8"/>
		<rect x="9.2" y="11" class="st2" width="7.1" height="2.8"/>
		<rect x="9.2" y="42.4" class="st2" width="7.1" height="2.8"/>
		<rect x="9.2" y="50.7" class="st2" width="7.1" height="2.8"/>
		<rect x="47.1" y="2.6" class="st2" width="7.1" height="2.8"/>
		<rect x="47.1" y="11" class="st2" width="7.1" height="2.8"/>
		<rect x="47.1" y="42.4" class="st2" width="7.1" height="2.8"/>
		<rect x="47.1" y="50.7" class="st2" width="7.1" height="2.8"/>
	</g>
</g>
</svg>
