<?xml version="1.0" encoding="utf-8"?>
<!-- Generator: Adobe Illustrator 23.1.1, SVG Export Plug-In . SVG Version: 6.00 Build 0)  -->
<svg version="1.1" id="Layer_1" xmlns="http://www.w3.org/2000/svg" xmlns:xlink="http://www.w3.org/1999/xlink" x="0px" y="0px"
	 viewBox="0 0 49.8 49.8" style="enable-background:new 0 0 49.8 49.8;" xml:space="preserve">
<style type="text/css">
	.st0{fill:#C49561;}
	.st1{fill:#B88C5B;}
	.st2{fill:#C4A36F;}
	.st3{fill:#CFA775;}
	.st4{fill:none;stroke:#C09C6D;stroke-width:1.0063;stroke-miterlimit:10;}
</style>
<g>
	<g>
		<g>
			<path class="st0" d="M24.9,4.5C20,4.5,15.6,6.2,12.1,9h25.5C34.1,6.2,29.7,4.5,24.9,4.5z"/>
			<g>
				<path class="st1" d="M8,13.6h33.8c-1.2-1.7-2.6-3.2-4.2-4.5H12.1C10.5,10.3,9.1,11.9,8,13.6z"/>
			</g>
			<path class="st0" d="M5.7,18.1H44c-0.6-1.6-1.3-3.1-2.2-4.5H8C7,15,6.3,16.5,5.7,18.1z"/>
			<g>
				<path class="st2" d="M4.7,22.6h40.4c-0.2-1.6-0.5-3.1-1.1-4.5H5.7C5.2,19.5,4.8,21,4.7,22.6z"/>
			</g>
			<path class="st0" d="M4.5,24.9c0,0.8,0,1.5,0.1,2.3h40.4c0.1-0.7,0.1-1.5,0.1-2.3c0-0.8-0.1-1.5-0.1-2.3H4.7
				C4.6,23.4,4.5,24.1,4.5,24.9z"/>
			<g>
				<path class="st1" d="M5.7,31.7H44c0.5-1.4,0.9-2.9,1.1-4.5H4.7C4.8,28.7,5.2,30.2,5.7,31.7z"/>
			</g>
			<path class="st0" d="M8,36.2h33.8c0.9-1.4,1.7-2.9,2.2-4.5H5.7C6.3,33.3,7,34.8,8,36.2z"/>
			<g>
				<path class="st2" d="M41.8,36.2H8c1.2,1.7,2.5,3.2,4.2,4.5h25.5C39.2,39.4,40.6,37.9,41.8,36.2z"/>
			</g>
			<path class="st0" d="M24.9,45.2c4.8,0,9.3-1.7,12.8-4.5H12.1C15.6,43.5,20,45.2,24.9,45.2z"/>
		</g>

	<path class="st3" d="M24.9,49.3c-13.4,0-24.4-10.9-24.4-24.4S11.4,0.5,24.9,0.5s24.4,10.9,24.4,24.4S38.3,49.3,24.9,49.3z
		 M24.9,4.5c-11.2,0-20.4,9.1-20.4,20.3s9.1,20.3,20.3,20.3s20.3-9.1,20.3-20.3S36.1,4.5,24.9,4.5z"/>
	<path class="st4" d="M24.9,0.5C11.4,0.5,0.5,11.4,0.5,24.9s10.9,24.4,24.4,24.4s24.4-10.9,24.4-24.4S38.3,0.5,24.9,0.5z"/>
	</g>
</g>
</svg>
