<?xml version="1.0" encoding="utf-8"?>
<svg version="1.1" id="Layer_1" x="0px" y="0px" viewBox="0 0 39.5 58.1" style="enable-background:new 0 0 39.5 58.1;" xmlns="http://www.w3.org/2000/svg">
  <style type="text/css">
	.st0{fill:none;stroke:#ACCEED;stroke-width:0.5;stroke-miterlimit:10;}
	.st1{fill:none;stroke:#D0D9ED;stroke-width:0.5;stroke-miterlimit:10;}
	.st2{fill:none;stroke:#D0D9ED;stroke-width:0.4414;stroke-miterlimit:10;}
	.st3{fill:none;stroke:#C6D7EE;stroke-width:0.5;stroke-miterlimit:10;}
	.st4{fill:none;stroke:#ACCEED;stroke-width:0.4694;stroke-miterlimit:10;}
	.st5{fill:none;stroke:#8BC4E9;stroke-width:0.5;stroke-miterlimit:10;}
	.st6{fill:none;stroke:#83C2E9;stroke-width:0.5;stroke-miterlimit:10;}
	.st7{fill:#B3B5B7;}
	.st8{fill:#9DA0A2;}
	.st9{fill:#4F4E49;}
	.st10{fill:#787B7D;}
	.st11{fill:#918B89;}
	.st12{fill:#87888B;}
	.st13{fill:none;stroke:#9DA0A2;stroke-width:0.5;stroke-miterlimit:10;}
	.st14{fill:none;stroke:#807A74;stroke-width:0.5;stroke-miterlimit:10;}
</style>
  <g>
    <path class="st0" d="M19.4,5c-0.4-3.1-6.3-11.6-8,6.6"/>
    <path class="st1" d="M20,6c-0.4-3.1-6.3-12.1-8,6"/>
    <path class="st2" d="M19.7,4.8c-0.3-3.1-6.4-11.2-7.7,6.9"/>
    <path class="st0" d="M20.7,5.2c-0.4-3.1-6.3-12.1-8,6"/>
    <path class="st0" d="M19.7,5c0.4-3.1,6.5-11.4,8.2,6.7"/>
    <path class="st3" d="M19.1,5.3c0.4-3.1,6.5-11.4,8.2,6.7"/>
    <path class="st4" d="M19.1,5.2c0.3-3.1,5.6-12.1,7.1,6"/>
    <path class="st5" d="M9.6,11.8C9,9.6,4.1,9.8,5.3,22.5"/>
    <path class="st0" d="M9.4,11.3C8.8,9.1,3.9,9.3,5.1,22"/>
    <path class="st6" d="M29.8,11.8c0.6-2.2,5.5-2,4.3,10.7"/>
    <path class="st0" d="M29.8,11.3c0.6-2.2,5.5-2,4.3,10.7"/>
    <path class="st7" d="M19.4,58.1h6.9c0,0,0.8-0.6,1-1.2s0.5-5.5,0-5.9s-0.9-0.1-1.1-0.7s0.7,0.2,0-1.3s-1.5-2.8-1.5-2.8 s-0.6-3-0.9-4.7s0.2-3.5,0.5-4s0.4-1.2,0.1-1.4s-0.3-0.6,0-0.9s0.1-0.3,0.2-0.9c0.1-0.5,0.6-0.9-0.1-1.2s-5.2,0-5.2,0h0.2 c0,0-4.6-0.3-5.2,0s-0.2,0.7-0.1,1.2c0.1,0.5-0.1,0.6,0.2,0.9s0.2,0.7,0,0.9s-0.1,0.9,0.1,1.4s0.8,2.4,0.5,4s-0.9,4.7-0.9,4.7 s-0.8,1.3-1.5,2.8s0.2,0.7,0,1.3s-0.6,0.4-1.1,0.7c-0.5,0.4-0.2,5.4,0,5.9c0.2,0.5,1,1.2,1,1.2h6.9"/>
    <path class="st7" d="M19.4,12.5h2.8v-1.7c0,0-0.8-0.7-1-1.1s-0.1-1.1,0-1.4c0.2-0.3,0.5-0.5,0.6-1.1s0-1.7,0.3-2.1 c0.3-0.4,0.7-1.1,0.7-1.1s-1.5-0.3-2-0.3c-0.5,0-1.4,0-1.4,0s-0.9,0-1.4,0c-0.5,0-2,0.3-2,0.3s0.3,0.7,0.7,1.1 c0.3,0.4,0.1,1.5,0.3,2.1s0.4,0.7,0.6,1.1c0.2,0.3,0.2,1,0,1.4c-0.1,0.4-1,1.1-1,1.1v1.7H19.4"/>
    <path class="st8" d="M38.5,23.7c0.1,0.1,1.2,0,0.9,0.5s-0.2,0.6-0.4,1.2c-0.3,0.5-0.6,0.5-0.5,0.9s0.4,0.1,0.1,0.7 c-0.2,0.5-1.7,1.5-2.1,1.7c-0.4,0.2-3.9,3.2-4.7,3.7c-0.8,0.5-4.2,1.6-5.3,1.9c-1.1,0.3-5.1,0.5-6.8,0.4c-1.7,0-5.7-0.2-6.8-0.4 c-1.1-0.3-4.5-1.4-5.3-1.9c-0.8-0.5-4.3-3.4-4.7-3.7S1,27.5,0.8,27c-0.2-0.5,0-0.3,0.1-0.7s-0.2-0.4-0.5-0.9 c-0.3-0.5-0.2-0.7-0.4-1.2s0.9-0.5,1-0.7L38.5,23.7z"/>
    <path class="st10" d="M14.6,22.3c0.1-0.2,0.3-0.3,0.6-0.5C7.7,22,2.2,22.7,2.2,23.6c0,0.9,5.6,1.6,13.2,1.8 C15,24.6,14.1,22.8,14.6,22.3z"/>
    <path class="st10" d="M37.3,23.6c0-0.9-5.7-1.6-13.3-1.8c0.2,0.2,0.5,0.3,0.6,0.5c0.4,0.5-0.4,2.3-0.9,3.1 C31.5,25.2,37.3,24.5,37.3,23.6z"/>
    <path class="st11" d="M19.4,11c0,0,0.1,0,0.2,0c0.1,0,0.1,0,0.2,0H19.4z"/>
    <path class="st12" d="M31.7,11.3C31.3,11.2,21,11,19.6,11c-1.4,0-11.7,0.2-12.2,0.3c-0.4,0.2-0.3,0.2-0.1,0.6c0.1,0.4,0.6,0.6,1,1 c0.4,0.3,0,0.3,0,0.7c0,0.4,2.6,2.2,3.4,2.9c0.8,0.6,2.4,1.8,2.6,1.9c0.3,0.1,1,0.4,1.6,0.5c0.6,0.1,0.5,0.5,0.5,1.4 c0.1,0.6-0.7,1.1-1.3,1.6c-0.2,0.2-0.4,0.3-0.6,0.5c-0.4,0.5,0.4,2.3,0.9,3.1c1.4,0,2.8,0.1,4.3,0.1c1.4,0,2.7,0,4,0 c0.5-0.8,1.3-2.6,0.9-3.1c-0.1-0.2-0.4-0.3-0.6-0.5c-0.6-0.4-1.3-1-1.3-1.6c0.1-0.9,0-1.3,0.5-1.4c0.6-0.1,1.4-0.4,1.6-0.5 c0.3-0.1,1.9-1.2,2.6-1.9c0.8-0.6,3.3-2.5,3.4-2.9c0-0.4-0.4-0.4,0-0.7c0.4-0.3,0.9-0.6,1-1C32,11.6,32.2,11.5,31.7,11.3z"/>
    <path class="st13" d="M17.1,37.4c0,0-0.3,9.9-1.2,12"/>
    <line class="st13" x1="19.4" y1="37.7" x2="19.6" y2="49.4"/>
    <path class="st13" d="M21.7,37.7c0,0,0.3,9.3,1.2,10.7"/>
    <line class="st14" x1="17.8" y1="19" x2="17.1" y2="21.1"/>
    <line class="st14" x1="19.4" y1="19" x2="19.4" y2="20.8"/>
    <line class="st14" x1="21" y1="19" x2="21.7" y2="21.1"/>
  </g>
</svg>