<?xml version="1.0" encoding="utf-8"?>
<!-- Generator: Adobe Illustrator 23.1.1, SVG Export Plug-In . SVG Version: 6.00 Build 0)  -->
<svg version="1.1" id="Layer_1" xmlns="http://www.w3.org/2000/svg" xmlns:xlink="http://www.w3.org/1999/xlink" x="0px" y="0px"
	 viewBox="0 0 57.1 57.1" style="enable-background:new 0 0 57.1 57.1;" xml:space="preserve">
<style type="text/css">
	.st0{fill:#A09681;}
	.st1{fill:#C2B59B;}
	.st2{fill:#958C79;}
	.st3{fill:#B1A58E;}
	.st4{fill:none;stroke:#A89D87;stroke-width:0.9445;stroke-miterlimit:10;}
	.st5{fill:none;stroke:#938B78;stroke-width:1.0063;stroke-miterlimit:10;}
	.st6{fill:none;stroke:#A59A85;stroke-width:1.0063;stroke-miterlimit:10;}
	.st7{fill:none;stroke:#B5A992;stroke-width:1.0063;stroke-miterlimit:10;}
	.st8{fill:none;stroke:#8C8371;stroke-width:1.0063;stroke-miterlimit:10;}
</style>
<g>
	<polygon class="st0" points="0.5,56.6 56.6,56.6 28.5,28.5 	"/>
	<polygon class="st1" points="56.6,0.5 0.5,0.5 28.5,28.5 	"/>
	<polygon class="st2" points="0.5,0.5 0.5,56.6 28.5,28.5 	"/>
	<polygon class="st3" points="28.5,28.5 56.6,56.6 56.6,0.5 	"/>
	<rect x="0.5" y="0.5" class="st4" width="56.1" height="56.1"/>
	<g>
		<line class="st5" x1="7.4" y1="54.1" x2="50.4" y2="54.1"/>
		<line class="st5" x1="12.8" y1="48.9" x2="44.9" y2="48.9"/>
		<line class="st5" x1="18.2" y1="43.6" x2="39.5" y2="43.6"/>
		<line class="st5" x1="23.6" y1="38.4" x2="34.1" y2="38.4"/>
	</g>
	<g>
		<line class="st6" x1="52.6" y1="50.5" x2="52.6" y2="7.5"/>
		<line class="st6" x1="47.4" y1="45.1" x2="47.4" y2="12.9"/>
		<line class="st6" x1="42.2" y1="39.7" x2="42.2" y2="18.4"/>
		<line class="st6" x1="37" y1="34.2" x2="37" y2="23.8"/>
	</g>
	<g>
		<line class="st7" x1="50.4" y1="4.6" x2="7.4" y2="4.6"/>
		<line class="st7" x1="44.9" y1="9.9" x2="12.8" y2="9.9"/>
		<line class="st7" x1="39.5" y1="15.1" x2="18.2" y2="15.1"/>
		<line class="st7" x1="34.1" y1="20.3" x2="23.6" y2="20.3"/>
	</g>
	<g>
		<line class="st8" x1="3.5" y1="7.5" x2="3.5" y2="50.5"/>
		<line class="st8" x1="8.7" y1="12.9" x2="8.7" y2="45.1"/>
		<line class="st8" x1="13.9" y1="18.4" x2="13.9" y2="39.7"/>
		<line class="st8" x1="19.2" y1="23.8" x2="19.2" y2="34.2"/>
	</g>
</g>
</svg>
