<?xml version="1.0" encoding="utf-8"?>
<!-- Generator: Adobe Illustrator 23.1.1, SVG Export Plug-In . SVG Version: 6.00 Build 0)  -->
<svg version="1.1" id="Layer_1" xmlns="http://www.w3.org/2000/svg" xmlns:xlink="http://www.w3.org/1999/xlink" x="0px" y="0px"
	 viewBox="0 0 21.7 80.6" style="enable-background:new 0 0 21.7 80.6;" xml:space="preserve">
<style type="text/css">
	.st0{fill:#C4C3C3;}
	.st1{fill:#E0DDDC;}
	.st2{fill:#A7A6A7;}
	.st3{fill:#ADADAD;}
	.st4{fill:#CDCBCB;}
	.st5{fill:#B4B2B2;}
	.st6{fill:#CBCACA;}
	.st7{fill:#9C9B9D;}
	.st8{fill:#9C9B9C;}
	.st9{fill:#929293;}
	.st10{fill:#9F9F9F;}
	.st11{fill:#D5D5D7;}
	.st12{fill:#8E8E8F;}
	.st13{fill:#E7E8E9;}
</style>
<g>
	<g>
		<path class="st0" d="M20.7,72.7c0.1,0.1,0.5,1,0.6,1.4c0.2,0.3,0.4,2.1,0.3,2.6s-1.1,2.1-3.7,2.8c-2.6,0.7-7.9,1.5-10.4,1
			C5,80,1.4,78.8,0.9,77.6s-0.5-2.5-0.3-3c0.2-0.5,1.2-2.1,1.3-2.2s3.7,0.6,4.6,0.7s5.5,1.1,6.5,1C14.1,74.1,20.7,72.7,20.7,72.7z"
			/>
		<path class="st1" d="M20,70.9c0,0,1.6,1.3,1.4,1.9s-3.2,3-4.1,3.2s-9.5,1.1-10.3,0.8S1,74.9,0.7,74.2c-0.3-0.7,0.6-2.5,1.1-2.8
			s0.6,0,0.6,0.1C2.4,71.7,20,70.9,20,70.9z"/>
		<path class="st2" d="M15.7,68.8c0.2,0,4,1.9,4.4,2.4s0.2,2.7-0.7,3c-0.9,0.3-1.2,1.3-6,1.6S3.5,74.6,2.6,74S1.6,72,2,71.4
			s2.4-1.8,3.2-2.2c0.8-0.3,6.5-1,7.3-1C13.4,68.2,15.7,68.8,15.7,68.8z"/>
		<path class="st1" d="M6.5,2c0,0,0.1,0.2,0.4,0.5s0,0.4,0.3,0.7c0.3,0.3,0.1,0.7,0.1,0.9c0,0.3-0.4,0.6-0.7,1c-0.2,0.4-0.9,2-1,2.4
			c-0.1,0.4-1.4,5.7-1.5,6c-0.1,0.3,0,0.2,0.3,0.5c0.3,0.2,1.6,1.7,2.1,2s2.6,0.5,2.9,0.5c0.3,0,3.6-0.5,3.6-0.5l1.7-0.1
			c0,0-0.2,1.8-0.2,1.9c0,0.1,0.2,0.5,0.5,0.9c0.3,0.4,1.9,1.7,2.3,2.1c0.4,0.4,1.3,1.8,1.5,2.6c0.2,0.7,0.1,3.1,0,3.3
			c-0.1,0.1,0.4,0.3,0.7,0.8c0.3,0.5,0.1,1.1-0.2,1.6c-0.3,0.5-0.1,0.7-0.1,1c0,0.3,0.4,1.9,0.7,2.6c0.3,0.7-0.3,4.9-0.4,5
			c-0.1,0.2-0.1,0.9-0.4,1.5c-0.3,0.6-0.9,2.2-1.1,2.5c-0.2,0.3-0.1,1.2-0.3,1.7s-0.9,1.6-0.9,1.9c-0.1,0.2,0.3,6,0.3,6.8
			c0,0.8,0.5,8.7,0.3,9.4c-0.2,0.7-0.3,1.5-0.7,2.2c-0.4,0.7-2,3.4-2.7,4.1c-0.7,0.7-0.8,1.1-0.8,1.3s0.7,1.2,0.9,1.7
			c0.3,0.4,0.1,1,0,1.6c-0.1,0.6-0.6,0.8-1.2,1c-0.6,0.2-1.8-0.1-2-0.3c-0.2-0.2-0.2-1.5,0-1.6c0.1-0.1-0.1-0.8-0.5-0.8
			c-0.4,0-0.3-0.4-0.7-1c-0.3-0.6,0.2-1.5,0.2-1.5s-0.4,0.5-0.7,0.7c-0.2,0.2-1,0.6-1.6,1.1s-1.1,0.4-1.8,0.5
			c-0.6,0-0.6-0.3-0.7-0.7C5,69.5,5.6,68.5,6,68.2s1.4-1.5,1.7-1.8s0.7-2.8,0.8-3c0-0.2-0.1-0.8-0.2-1.1c-0.1-0.3-1.2-2.8-1.4-3.2
			c-0.1-0.4-1.1-3.4-1.2-3.6c-0.1-0.2-0.4-1.4-0.4-1.6s-0.9-1.3-1.1-2C3.8,51.4,4,46.6,4,46.4s-0.4-0.5-0.7-0.8s0.4-0.9,0.6-1.5
			c0.2-0.6-0.1-3.8-0.1-4.2c0-0.4-0.9-1.1-1.1-1.5c-0.3-0.4,0.3-1.8,0.5-1.9s0.5-3.6,0.5-3.9c0-0.3,0.7-4.2,0.8-4.4s0-3.5,0-3.9
			s0.4-0.7,0.6-1C5.1,23.1,5,21.2,5,20.7c0-0.5-0.2-0.8-0.5-0.9c-0.3-0.1-3.9-4.5-4.2-4.9s-0.3-2.1-0.2-2.4c0.2-0.3,2.6-5,2.9-5.4
			c0.3-0.4,0.4-2.8,0.5-3.5s0.2-0.5,0.6-0.5s1.9-1.3,1.9-1.3L6.5,2z M14.3,29.3c0,0-0.1,0.3-0.1,0.6c0,0.3,0.8,1.6,0.9,2.1
			s-0.1,1.1,0,1.5s1,4,0.9,4.1s0.7,0,1-0.2c0.3-0.2,0-0.8-0.3-1.3c-0.3-0.5-0.5-2.9-0.6-3.4c-0.1-0.4-0.7-3.1-0.7-3.1L14.3,29.3z"/>
		<path class="st3" d="M6.6,0.4c0.3,0,1.6-0.1,2.3-0.1c0.7,0,2.2,0.1,2.6,0.2s0.4,0.4,0.4,0.4s0.5,0,0.8,0.3
			c0.3,0.3-0.6,2.4-0.6,2.5s-0.5,1.6-0.3,1.8c0.2,0.2,0,1.5,0,1.5s-1,9.5-1,9.6s-4.2-0.4-4.2-0.4s-2-13.7-2-13.8S4.2,1.1,4.1,0.7
			c0-0.4,0.3-0.5,0.7-0.7c0.4-0.2,0.8,0.5,0.8,0.5S6.3,0.4,6.6,0.4z M10.8,2.5l-0.4,0.3c0,0,0,1.8,0,1.9S11.1,5,11.1,5
			s0.2-0.7,0.2-0.9c0-0.3-0.2-0.2-0.2-0.4c0-0.2,0-0.5-0.1-0.6c-0.1-0.2,0.2-0.3,0.4-0.4c0.2-0.1,0.2-0.3,0.2-0.4c0,0-0.4,0-0.4,0
			L10.8,2.5z"/>
		<path class="st4" d="M9.1,13.1c0,0,0.1,0.9,0.2,1c0.1,0.1,0.2,0.2,0.3,0.4c0.1,0.3,0.2,0.9,0.3,1.1s0.9,1.9,1.1,2.1s0.5,0.6,1,0.5
			c0.6-0.1,1.4-0.6,1.9-1s0.9-0.9,1.2-1.3c0.3-0.4,1-1,0.7-1.2c-0.2-0.2-0.8,0.2-1.1,0.1c-0.4-0.2-0.8-0.8-1.2-0.9
			c-0.4-0.2-0.7-0.1-1,0c-0.4,0.1-0.6,0.1-1-0.1c-0.4-0.2-0.9-0.2-1.1-0.2c-0.1,0-0.5-0.1-0.6-0.2C9.7,13.2,9.1,13.1,9.1,13.1z"/>
		<path class="st5" d="M12.1,8.4c-0.2,0.1-1.1,0.3-1.7,0.8c-0.6,0.5-1,1.2-1.1,1.4S8.5,10.8,8.4,11c-0.1,0.2-0.1,0.5,0,0.9
			c0.1,0.5,0,0.7,0.4,0.9c0.4,0.2,1,0.6,1.6,0.6c0.5,0,1.8,0.5,2.3,0.4s1.5,0.4,1.7,0.5c0.2,0.1,1.4,0.3,1.4,0.3s-0.6,1-0.7,1.2
			c-0.2,0.2-0.6,0.8-0.1,0.7c0.5-0.1,1-0.5,1.2-1c0.2-0.5,0.2-1,0.3-1.2c0.1-0.2,0.1-0.2,0.6-0.6c0.4-0.4,0.3-0.9,0.5-1.4
			c0.3-0.5,1-0.4,0.7-1.2c-0.3-0.8,0-1.5-0.6-1.8c-0.6-0.3-0.6-1-0.9-1.2c-0.2-0.2-0.7-0.9-1.1-1c-0.4-0.1-1.1-0.5-1.8-0.5
			c-0.7,0-0.8,0.3-1.1,0.4c-0.3,0.1-0.6-0.1-0.6,0.3C12.2,8,12.1,8.4,12.1,8.4z"/>
		<path class="st6" d="M7.4,16.6c0.2,0.2,0.9,2,0.8,2.3c0,0.3-0.5,1.3,0.3,1.4c0.8,0.1,1.3,0.1,1.6-0.5c0.4-0.6,0.6-1.8,0.3-2.2
			c-0.3-0.3-0.5-1-0.5-1l-2.6-0.4V16.6z"/>
		<path class="st7" d="M11.6,15c0,0,1.4,0.2,1.5,0.2c0.1,0,0.5-0.1,0.5-0.1s-1,0.5-1.2,0.4C12.3,15.5,11.6,15,11.6,15z"/>
		<path class="st7" d="M9.8,14.4c0.1,0,0.6,0.3,0.7,0.4c0.1,0.1,0,0.5,0,0.5l0,0.6c0,0-0.2-0.6-0.3-0.8C10.2,15,9.8,14.4,9.8,14.4z"
			/>
		<path class="st7" d="M10.6,16.9c0,0,0.7,0.1,0.8,0s0.3-0.1,0.3-0.1s-0.1,0.3,0.2,0.4c0.2,0.1,0.7,0.3,0.5,0.3c-0.2,0-0.5,0-0.6,0
			c-0.2,0-0.6-0.1-0.6-0.2C11,17.2,10.6,16.9,10.6,16.9z"/>
		<path class="st0" d="M5.3,22.6c0.3-0.2,1.7-1,2.2-1.2c0.5-0.2,1.4-0.5,2.2-0.4c0.8,0.1,2.2,0.7,2.8,1.1c0.6,0.4,2.3,1.4,2.5,1.7
			s1.4,1.4,1.6,1.9s0.9,1.2,1.3,1.3c0.3,0.1,1.4,0,1.8,0.3c0.3,0.3,0.5,2,0.1,2.2s-2.3-0.1-2.6,0c-0.3,0.1-2.1,0.2-2.1,0.2l-0.7-0.3
			c0,0,0.2-0.8,0.3-1.1c0.1-0.3,1-1.5,1-1.7c0-0.2,0-0.9,0-0.9s-0.2,0.6-0.6,0.8c-0.3,0.2-0.9,1.4-0.9,1.7c0,0.3-0.1,1.6,0.1,1.8
			c0.2,0.2,1.2,1.8,1.2,2.1c0,0.3-0.3,0.6-0.5,0.7c-0.2,0.1,0,0.3,0,0.5c0.1,0.2-0.4-1-1-1.3c-0.6-0.3-1.7-0.7-2.2-0.8
			s-1.6-0.1-1.3,0.1s1.1,0.5,0.9,1.1c-0.1,0.5-1,0.9-1,1.1c0.1,0.1,1.5,3.2,1.5,3.6c0,0.4,0,3.3,0,3.7c0.1,0.4-0.3,2.5-0.6,2.8
			c-0.2,0.4-0.7,1.8-0.5,2.6s0.3,1.7,0,2c-0.3,0.3-0.6,1.8-0.3,2.5c0.3,0.7,0.6,3.1,0.1,3.4c-0.4,0.3-1.3,0.5-1.6,0s-1.3-2.1-1-2.6
			c0.3-0.5,0.7-2.2,0.6-2.6c-0.1-0.4,0-0.9-0.4-0.7c-0.4,0.1-0.3,0.7-0.5,1.2s-1,1.5-1.3,1.8c-0.3,0.3-0.9,0.8-0.7,1.3
			s0.5,2.3,0.4,2.8C6.1,55.6,6,56.8,6,56.6c-0.1-0.2-2-3.4-2.2-4c-0.2-0.6-0.1-4.1,0-4.5c0.1-0.4,0-2.3-0.1-2.9
			c-0.1-0.6,0.1-2.9,0-3.4c-0.1-0.4-0.8-4.1-0.6-4.7c0.2-0.6,1-4.5,1.1-4.9c0.1-0.4-0.1-1.7,0.2-2.5c0.3-0.8,0.3-4.3,0.3-4.7
			S4.4,24,4.6,23.8C4.8,23.5,5.3,22.6,5.3,22.6z"/>
		<path class="st8" d="M17.3,37.7c0,0,0,0.7-0.3,1c-0.4,0.3-1.9,1.6-2.3,2c-0.4,0.4-0.9,0.8-0.9,0.9s0.3,0.4,0.7,0.2
			c0.4-0.2,1.2-0.6,1.3-0.7c0.1-0.1,0.3-0.3,0.3,0.4c0,0.6-0.3,3-0.3,3.1c0,0.1-0.7,1-0.4,0.9c0.3-0.1,1-0.8,1.1-1
			c0.1-0.2,0.4-1,0.4-1s0,1,0,1.2c0.1,0.2-0.3,1-0.3,1s0.4,6.9,0.4,6.2s-1.2-3.6-1.2-3.6s0.3,2.1-0.7,2.3s-1.4,0.2-1.8-0.3
			s-1-2.4-1-2.5s0.7,0.2,1.4,0.6c0.8,0.4,1.3,0.4,1.4,0c0.1-0.4,0.2-0.4-0.4-0.8s-1.9-1.9-1.9-2.3s-0.6-3.4-0.6-4
			c0-0.5,0.7,3.1,1.2,3.6c0.6,0.5,1.4,0.4,1.3,0.2c-0.2-0.2-1.6-2.7-1.7-3.1c-0.1-0.4-0.1-2.2,0-1.9c0.1,0.3,0.7,0.6,1,0.3
			s0.1-1.7,0.5-1.5c0.4,0.2,1,0.6,1,0.3s-0.1-0.9,0.2-1c0.3-0.1,1-0.1,1-0.1L17.3,37.7z"/>
		<path class="st2" d="M12.6,50.1c0.3,0.2,0.6,2,1,2.3c0.4,0.3,1.2,1.4,0.6,0.9c-0.6-0.5-2.3-2.1-2.5-2.7c-0.2-0.6-0.4-2.4-0.4-2.4
			L12.6,50.1z"/>
		<path class="st2" d="M11.9,52c0.1,0.2,0.7,1.8,1.2,2s1.7,0.1,1.9,0s-0.9,0.7-1.4,0.7c-0.5,0-1.3-1-0.8,0.5
			c0.5,1.5,0.4,2.9,0.6,3.1c0.2,0.2,0.7-0.1,1-0.4c0.3-0.3,0.2,0.3,0,0.5c-0.2,0.2-1.2,0.7-1.6,0.3c-0.4-0.4-0.8-3.8-1-4.3
			C11.7,53.9,11.9,52,11.9,52z"/>
		<path class="st2" d="M17.3,61.5c-0.2-0.4,0-1.2-0.4-1.1c-0.4,0-0.4-0.6-0.8-0.5c-0.4,0.1-0.7,0.4-0.3,0.8c0.4,0.4,1.1,1.1,0.9,1.3
			c-0.2,0.2-0.3,0.5-0.2,0.8c0,0.3,0,0.5,0,0.5L17.3,61.5z"/>
		<path class="st2" d="M14.2,67.9c-0.4,0.1-1.5,0.4-2-0.2S10.8,66,11,66.2s0.1,2.6,0,2.8s0.2,1.6,0,1.4s-1.2-1.7-1.2-1.7
			s0.6-2.4,0.5-2.8s0-2,0-2s-0.6-3.5-0.4-4.4c0.1-0.9,0-4.3,0-4.6c-0.1-0.3,0.2-0.7,0.3-0.7c0.1,0,0.6,0.4,0.5,0.7s1,1.7,1.2,2.5
			s1.3,2.1,1.1,2.2s-1.1,0.2-1.6-1.3c-0.5-1.5-1.3-3-1.2-2.5c0,0.5-0.3,3,0.2,3.6c0.5,0.6,1,1.1,1,1.4c0,0.2-0.5,0.4-0.5,0.4
			s-0.2,1.6,0.2,2.4c0.3,0.9,1.1,2.7,1.5,3c0.4,0.2,0.8,0.4,1.1-0.1c0.3-0.4,0.6-3.6,0.8-3.8s0.4,1.4,0.3,1.7
			c-0.1,0.2,0-0.1,0.3-0.3c0.3-0.2,0.9,0.2,0.5,0.6s-1.1,1-1.1,1.3C14.4,66.4,14.2,67.9,14.2,67.9z"/>
		<path class="st2" d="M8.7,63c0.1,0,1.1,0,1.1,0s0.3,0.3,0,0.4c-0.3,0.1-0.8,0.1-0.7,0.2s0.1,0.4,0.2,1c0,0.5-0.1,1.3-0.3,1.5
			c-0.2,0.1-0.2,0.6-0.6,0.9c-0.4,0.3-0.4,0.7-0.8,1c-0.3,0.3-0.9,0.3-0.7,0c0.1-0.3,0.7-1,0.9-1.4c0.2-0.4,0.4-1.3,0.5-1.6
			c0.1-0.3,0.4-0.9,0.2-1.1C8.4,63.7,8.7,63,8.7,63z"/>
		<path class="st2" d="M11.5,67.5c-0.1,0.1-0.4,0.9-0.2,1s0.2,0.8,0.1,0.9c-0.1,0.1,0.1,0.6,0,0.8c-0.1,0.2-0.1,0.8,0.2,0.8
			s0.7,0.1,0.7-0.5c0-0.6-0.3-0.8,0-1.2c0.3-0.5,0.5-0.9,0.3-1C12.4,68.1,11.5,67.5,11.5,67.5z"/>
		<path class="st2" d="M11.8,71.8v1.3c0,0,0.4,0.2,0.4,0C12.3,73,11.8,71.8,11.8,71.8z"/>
		<polygon class="st2" points="12.7,71.8 13.1,72.9 12.9,73.2 		"/>
		<polygon class="st2" points="8.1,68.8 6.9,68.8 5.6,69.9 5.9,68.6 6.5,68.2 		"/>
		<path class="st2" d="M15.7,66c0.1,0.1,0,2.9,0,3.2c0,0.3-0.5,1.3-0.9,1.6c-0.4,0.3-0.9-0.5-1-0.7s-0.6-1.7-0.3-1.9
			c0.3-0.2,0.9-1.2,1-1.3C14.6,66.7,15.7,66,15.7,66z"/>
		<path class="st2" d="M8.7,30.9c0,0,0.3,0.2,0.3,0.6c-0.1,0.4-0.1,1.5-0.6,1.5C8,32.8,7.9,32.7,8,32.2c0.1-0.5-0.3-1.2-0.6-0.8
			c-0.3,0.4-1.2,0.5-0.8,1.1C6.9,33,7.8,33.6,7.4,34c-0.4,0.3-1.5,0.3-1.6-0.7c-0.1-1.1,0-1.7,0.6-1.9c0.6-0.2,1.4-0.6,1.6-0.6
			S8.7,30.9,8.7,30.9z"/>
		<path class="st9" d="M9.1,34.5c0,0.3-0.7,3.1-0.4,3.5c0.3,0.4,1.5,0.8,1.4,1.2c-0.2,0.5-1.5,1.6-1.9,1.8c-0.4,0.2-1.2,1.2-1.8,1.3
			s-1.3,0.3-1.7,0.4s1.1-0.5,1.3-1c0.1-0.4,1.3-5.6,1.4-6.2c0.1-0.6,1-1.9,1.1-1c0.1,0.9-1,5.1-1,5.3c0,0.2,0.9-1,0.8-1.1
			S9.1,34.5,9.1,34.5z"/>
		<path class="st2" d="M6.1,34.5c-0.1,0.2-2.5,3-2.6,3c-0.1,0,0.1-1.2,0.3-1.5s1.9-2,1.9-2L6.1,34.5z"/>
		<path class="st2" d="M9.8,23c0.3,0.2,1,3.8,0.7,4.3s-1.2,2.1-1.2,2.2c0,0.1,1-0.2,1.3-1c0.2-0.8,0.5-1.9,0.2-2.9
			C10.5,24.6,9.8,23,9.8,23z"/>
		<path class="st2" d="M12.3,24.7c-0.1,0.2,0.1,2.8,0.3,3.2c0.3,0.4,0.5,1.4,0.7,1.6c0.2,0.2-0.3,0.4-0.5,0c-0.3-0.4-1.3-2.1-1.2-2
			c0.1,0.1,0.7,1.7,0.9,2.2c0.2,0.5-0.4,0.9-0.5,0.6c-0.1-0.4-0.7-1.8-0.8-2.2s0.7-1.5,0.6-1.8C11.8,25.9,12.3,24.7,12.3,24.7z"/>
		<path class="st2" d="M10.2,21.7c0.3,0.2,0.9,1.5,1.1,2s0.3,1.6,0.2,1.3C11.3,24.8,10.2,21.7,10.2,21.7z"/>
		<path class="st10" d="M9.6,10.6c0.3,0.1,3,0.8,3.4,0.9c0.4,0.1,2,0.8,2,0.8s0.5-0.7,0.2-0.7c-0.3,0-2.5-1-2.9-1
			c-0.4,0-1.5,0.1-1.3-0.2c0.2-0.3,0.8-0.5,0.9-0.7c0.1-0.2,0.8-0.4,0.8-0.6c0-0.2-0.4-0.2-0.6,0c-0.2,0.2-1,0.9-1.2,1
			s-0.8,0.2-0.8,0.2L9.6,10.6z"/>
		<path class="st11" d="M12.7,8.4c0.1,0,0.4-0.2,0.7-0.5c0.3-0.3,1.1-0.2,0.8,0s0,1.1,0.4,1.1c0.4,0,1,0.3,1.1,0.5
			c0.1,0.2,0.8,0.2,0.9,0.2c0.1,0.1,0,0.5,0,0.6c0,0.2,0.6,1.2,0.6,1.2s-1.2-1.1-1.4-0.9c-0.2,0.2,0.2-0.2-0.6-0.7
			c-0.8-0.5-0.7-0.4-1.1-0.6S14,8.8,13.7,8.7C13.4,8.5,12.7,8.4,12.7,8.4z"/>
		<path class="st10" d="M15,13.1c-0.2,0-1.1,0.3-1.4,0c-0.3-0.3-0.6-0.6-0.8-0.9c-0.3-0.3-0.7,0.5-1.1,0.4c-0.4-0.1-0.9-0.2-1.1-0.4
			c-0.2-0.2-1.4-0.6-1.2-0.3c0.2,0.3,1.1,0.6,1.1,0.7c0,0.1-0.2,0.4,0.1,0.3c0.3,0,0.6,0.2,1.1,0.3c0.5,0.1,0.6,0.1,0.8,0
			c0.2-0.1,1,0.7,1.2,0.4c0.2-0.3,1.2-0.1,1.3,0.1s0.3,0.6,0.5,0.3c0.1-0.2,0.4-0.5,0.7-0.8c0.3-0.3,0.1-1.4,0.1-1.3
			c0,0.1-0.2,1.3-0.5,1.3S15,13.1,15,13.1z"/>
		<path class="st12" d="M7.8,42.1c0,0.2-0.9,6.3-0.9,6.3s-0.1,0.7-0.3,0.8c-0.2,0.1-1.1,1.1-1.1,1.1s0.8-2.1,0.8-2.3
			C6.4,47.7,7.8,42.1,7.8,42.1z"/>
		<path class="st2" d="M6.2,43.3c-0.1,0.2-1.6,4.9-1.5,5.1c0.1,0.2,0.4,2.3,0.4,2.3s-0.3,0.5-0.4,0c-0.1-0.5-0.6-3.8-0.5-4.2
			c0.1-0.4,0.6-3,0.6-3s-0.2,3.1-0.2,3C4.8,46.3,6.2,43.3,6.2,43.3z"/>
		<path class="st1" d="M8.4,16.8c0,0.1,0.5,1.2,0.4,1.6c0,0.5-0.2,1.2,0,1.2c0.2,0,0.9-0.1,0.8-0.5c-0.1-0.4-0.2-0.9-0.3-1.2
			c0-0.3-0.1-0.6-0.3-0.7C8.9,17,8.4,16.8,8.4,16.8z"/>
		<path class="st2" d="M1.8,14.4c0,0,1.1,2.3,2,2.7s2.2,1.4,2.3,1.7c0.1,0.3-0.4,1.8-0.4,1.8s-1.7-2.8-2.3-3.1
			C2.9,17.2,1.5,15,1.5,15L1.8,14.4z"/>
		<path class="st4" d="M8.1,15.3c-0.3-0.2-0.9-6.4-0.8-6.4s3.8-0.3,3.7-0.6c-0.1-0.3,0.4-1.7,0-1.8s-4.1,0.3-4.1,0S6,4,6.1,3.6
			c0.1-0.4,0.4-1.2,0.6-1.4C6.8,2.1,6.2,0.9,6.1,1C6,1,5.2,1.7,5.2,1.7c-0.1,0,1.3,8.2,1.3,8.2s0.5,2.9,0.5,3.1
			C7,13,8.1,15.3,8.1,15.3z"/>
	</g>
	<path class="st13" d="M18.2,30.5c0,0,1.4,2.6,1.2,3c-0.1,0.4-0.4,4-0.4,4l-0.6,2.4c0,0-0.5-1.4-0.2-2.2c0.3-0.8,0.5-2.8,0.2-3.9
		S18,32,17.8,31.6S18.2,30.5,18.2,30.5z"/>
</g>
</svg>
