<?xml version="1.0" encoding="utf-8"?>
<!-- Generator: Adobe Illustrator 23.1.1, SVG Export Plug-In . SVG Version: 6.00 Build 0)  -->
<svg version="1.1" id="Layer_1" xmlns="http://www.w3.org/2000/svg" xmlns:xlink="http://www.w3.org/1999/xlink" x="0px" y="0px"
	 viewBox="0 0 28 57.3" style="enable-background:new 0 0 28 57.3;" xml:space="preserve">
<style type="text/css">
	.st0{fill:#A2A4A7;}
	.st1{fill:#86898C;}
	.st2{fill:#B3B5B7;}
	.st3{fill:#9B9D9F;}
	.st4{fill:none;stroke:#C4C5C7;stroke-width:0.3815;stroke-linejoin:round;stroke-miterlimit:10;}
	.st5{fill:#7E8082;}
</style>
<g>
	<polygon class="st0" points="0.5,45.7 2.8,53.7 28,51.4 23.6,43.7 	"/>
	<polygon class="st1" points="0,48.2 2.6,57.3 2.8,53.7 0.5,45.7 	"/>
	<polygon class="st2" points="27.6,54.8 2.6,57.3 2.8,53.7 28,51.4 	"/>
	<path class="st3" d="M5.4,45.9c0,0-1.3,0.8-1.7,1s-1.2,1.1-0.8,2.2c0.4,1.1,2,2.5,5,2.8s11.4-0.4,13-1.1c1.6-0.7,4.1-2,4-2.6
		s-0.4-1.5-1.6-2.3c-1.3-0.8-5.1-0.6-5.5-0.5c-0.4,0.1-6.9,0.8-7.2,0.8S5.4,45.9,5.4,45.9z"/>
	<path class="st2" d="M6.2,7.3L5.4,46.5c0,0-0.1,1.6,1.7,2.1c1.9,0.5,5.5,0.8,8.7,0.3c3.3-0.5,5-1.4,5.4-1.8
		c0.3-0.3,0.4-1.1,0.4-1.1L20.3,6.7L6.2,7.3z"/>
	<g>
		<line class="st4" x1="7.1" y1="8.9" x2="6.7" y2="47.8"/>
		<line class="st4" x1="8.9" y1="9.2" x2="8.5" y2="48.2"/>
		<line class="st4" x1="10.8" y1="8.6" x2="10.8" y2="48.7"/>
		<line class="st4" x1="13.4" y1="8.9" x2="13.5" y2="48.7"/>
		<line class="st4" x1="15.3" y1="8.6" x2="15.9" y2="48.9"/>
		<line class="st4" x1="17.1" y1="8.6" x2="18.4" y2="48.2"/>
		<line class="st4" x1="18.3" y1="8.3" x2="20.1" y2="47.4"/>
		<line class="st4" x1="19.7" y1="8.3" x2="21.2" y2="46.3"/>
	</g>
	<path class="st3" d="M5.1,7c0,0,0.6,0.9,1.3,1.2s11.2,0.2,11.9,0.1s1.9-0.5,2.2-0.8s1.2-1.2,1.2-1.2L5.1,7z"/>
	<path class="st5" d="M5.1,5.8c0,0,0.6,1.3,1.3,1.7s11.2,0.3,11.9,0.2c0.8-0.2,1.9-0.7,2.2-1.2s1.2-1.8,1.2-1.8L5.1,5.8z"/>
	<polygon class="st0" points="1.1,0.8 2.9,4.1 25.9,3.3 22.3,0 	"/>
	<path class="st1" d="M1.1,0.8v3c0,0,2,3.3,2,3.2s-0.1-3-0.1-3L1.1,0.8z"/>
	<polygon class="st2" points="2.9,4.1 26.2,3.3 26,6 3,7.1 	"/>
</g>
</svg>
