<?xml version="1.0" encoding="utf-8"?>
<!-- Generator: Adobe Illustrator 23.1.1, SVG Export Plug-In . SVG Version: 6.00 Build 0)  -->
<svg version="1.1" id="Layer_1" xmlns="http://www.w3.org/2000/svg" xmlns:xlink="http://www.w3.org/1999/xlink" x="0px" y="0px"
	 viewBox="0 0 45.5 45.5" style="enable-background:new 0 0 45.5 45.5;" xml:space="preserve">
<style type="text/css">
	.st0{fill:#6F8E3B;}
	.st1{fill:#7E9D3D;}
	.st2{fill:#82A43E;}
	.st3{fill:none;stroke:#76963C;stroke-width:0.9671;stroke-miterlimit:10;}
</style>
<g>
	<circle class="st0" cx="22.8" cy="22.8" r="22.8"/>
	<polygon class="st1" points="43.2,22.3 43.1,25.3 42.6,28.2 41.6,31 41,34.1 38.9,36.4 35.6,37.2 33.5,39.2 31.5,41.7 28.2,41.1 
		25.8,43.7 22.7,43.8 19.7,43.2 16.6,43.1 13.7,42.1 12.2,38.8 10,37.1 6.7,36.2 4.4,34.1 4.1,30.8 2.4,28.3 2.9,25.2 2.8,22.3 
		2.9,19.5 2.2,16.3 3.1,13.4 5.4,11.2 7,8.8 8.8,6.3 11,4.1 14.7,4.7 16.7,1.7 19.8,2.2 22.7,1.8 25.6,2 28.3,3.4 31,4.3 33.5,5.5 
		35.6,7.5 39,8.3 40.2,11.1 42.3,13.4 43,16.4 43.2,19.4 	"/>
	<g>
		<polygon class="st2" points="34.6,22.3 34.7,25.6 32.8,28.2 31.1,30.8 28.6,32.6 25.9,34.1 22.7,34.2 19.4,34.7 16.4,33.3 
			13.5,31.6 12.4,28.3 10.5,25.6 10.3,22.3 10.7,19.1 11.9,16.1 13.9,13.5 16.2,11 19.4,9.9 22.7,10.5 25.8,10.7 29.1,11.3 31,14 
			34,15.8 35.2,19 		"/>
		<polygon class="st3" points="34.6,22.3 34.7,25.6 32.8,28.2 31.1,30.8 28.6,32.6 25.9,34.1 22.7,34.2 19.4,34.7 16.4,33.3 
			13.5,31.6 12.4,28.3 10.5,25.6 10.3,22.3 10.7,19.1 11.9,16.1 13.9,13.5 16.2,11 19.4,9.9 22.7,10.5 25.8,10.7 29.1,11.3 31,14 
			34,15.8 35.2,19 		"/>
	</g>
</g>
</svg>
