<?xml version="1.0" encoding="utf-8"?>
<!-- Generator: Adobe Illustrator 23.1.1, SVG Export Plug-In . SVG Version: 6.00 Build 0)  -->
<svg version="1.1" id="Layer_1" xmlns="http://www.w3.org/2000/svg" xmlns:xlink="http://www.w3.org/1999/xlink" x="0px" y="0px"
	 viewBox="0 0 46.4 46.4" style="enable-background:new 0 0 46.4 46.4;" xml:space="preserve">
<style type="text/css">
	.st0{fill:#6F8E3B;}
	.st1{fill:#7E9D3D;}
	.st2{fill:#82A43E;}
</style>
<g>
	<rect class="st0" width="46.4" height="46.4"/>
	<g>
		<polygon class="st1" points="44.2,44 41.1,43.4 38.4,43.1 35.6,44.1 32.9,44.3 30.2,43.1 27.5,43 24.8,43.3 22.1,43.1 19.4,42.9 
			16.7,44.7 13.9,44.8 11.2,44.2 8.5,43.6 5.8,44.2 3.8,42.8 3.2,40.8 1.9,38.1 4.2,35.4 4.2,32.7 3,30 2.9,27.3 2.5,24.6 1.9,21.8 
			2.6,19.1 3.9,16.4 2.3,13.7 3.8,11 2.6,8.3 2.2,5.5 2.9,2.7 5.8,1.7 8.5,2.2 11.2,2.7 13.9,3.1 16.6,2.2 19.3,3.5 22,3.4 
			24.8,2.2 27.5,2 30.2,2.7 32.9,3.3 35.6,1.9 38.3,1.8 41.1,3 44.5,2.1 43.2,5.5 43.4,8.3 42.9,11 43.2,13.7 44,16.4 44.5,19.1 
			44.2,21.8 43.1,24.5 43.3,27.2 43.1,30 42.8,32.7 43.5,35.4 44.3,38.1 43,40.9 		"/>
		<polygon class="st2" points="35.4,35.2 32.9,34.8 30.2,35.4 27.5,34.9 24.8,35.6 22.1,36.1 19.4,35.4 16.7,34.7 13.9,34.7 
			11.1,35.5 11.6,32.7 11.7,30 10.6,27.3 11.8,24.6 10.5,21.8 10.9,19.1 11.2,16.4 11.9,13.7 11.2,11 13.9,10.7 16.6,11.4 
			19.3,10.8 22.1,11.3 24.8,10.9 27.5,11.1 30.2,11.1 32.9,10.4 36,10.6 36.1,13.7 35.2,16.4 35.5,19.1 35.3,21.8 35.1,24.5 
			35.7,27.3 35.6,30 35.8,32.7 		"/>
	</g>
</g>
</svg>
