<?xml version="1.0" encoding="utf-8"?>
<!-- Generator: Adobe Illustrator 23.1.1, SVG Export Plug-In . SVG Version: 6.00 Build 0)  -->
<svg version="1.1" id="Layer_1" xmlns="http://www.w3.org/2000/svg" xmlns:xlink="http://www.w3.org/1999/xlink" x="0px" y="0px"
	 viewBox="0 0 22.8 75.9" style="enable-background:new 0 0 22.8 75.9;" xml:space="preserve">
<style type="text/css">
	.st0{fill:none;stroke:#9E8B69;stroke-width:2;stroke-miterlimit:10;}
	.st1{fill:none;stroke:#A99872;stroke-width:2;stroke-miterlimit:10;}
	.st2{fill:none;stroke:#B39869;stroke-width:2;stroke-miterlimit:10;}
</style>
<g>
	<line class="st0" x1="1" y1="60.9" x2="21.8" y2="60.9"/>
	<line class="st0" x1="1" y1="50" x2="21.8" y2="50"/>
	<line class="st0" x1="1" y1="39.1" x2="21.8" y2="39.1"/>
	<line class="st0" x1="1" y1="28.2" x2="21.8" y2="28.2"/>
	<line class="st0" x1="1" y1="17.3" x2="21.8" y2="17.3"/>
	<line class="st0" x1="1" y1="6.4" x2="21.8" y2="6.4"/>
	<rect x="1" y="1" class="st1" width="20.8" height="65.3"/>
	<line class="st1" x1="21.8" y1="66.3" x2="21.8" y2="75.9"/>
	<line class="st1" x1="1" y1="66.3" x2="1" y2="75.9"/>
	<polyline class="st2" points="6.2,1 6.2,66.3 6.2,66.3 	"/>
	<polyline class="st1" points="11.4,1 11.4,66.3 11.4,66.3 	"/>
	<polyline class="st2" points="16.6,1 16.6,66.3 16.6,66.3 	"/>
	<line class="st1" x1="1" y1="55.4" x2="21.8" y2="55.4"/>
	<line class="st1" x1="1" y1="44.5" x2="21.8" y2="44.5"/>
	<line class="st1" x1="1" y1="33.6" x2="21.8" y2="33.6"/>
	<line class="st1" x1="1" y1="22.7" x2="21.8" y2="22.7"/>
	<line class="st1" x1="1" y1="11.8" x2="21.8" y2="11.8"/>
</g>
</svg>
