<?xml version="1.0" encoding="utf-8"?>
<!-- Generator: Adobe Illustrator 23.1.1, SVG Export Plug-In . SVG Version: 6.00 Build 0)  -->
<svg version="1.1" id="Layer_1" xmlns="http://www.w3.org/2000/svg" xmlns:xlink="http://www.w3.org/1999/xlink" x="0px" y="0px"
	 viewBox="0 0 75.9 22.8" width="100%" height="100%" style="enable-background:new 0 0 75.9 22.8;" xml:space="preserve">
<style type="text/css">
	.st0{fill:none;stroke:#9E8B69;stroke-width:2;stroke-miterlimit:10;}
	.st1{fill:none;stroke:#A99872;stroke-width:2;stroke-miterlimit:10;}
	.st2{fill:none;stroke:#B39869;stroke-width:2;stroke-miterlimit:10;}
</style>
<g>
	<line class="st0" x1="60.9" y1="21.8" x2="60.9" y2="1"/>
	<line class="st0" x1="50" y1="21.8" x2="50" y2="1"/>
	<line class="st0" x1="39.1" y1="21.8" x2="39.1" y2="1"/>
	<line class="st0" x1="28.2" y1="21.8" x2="28.2" y2="1"/>
	<line class="st0" x1="17.3" y1="21.8" x2="17.3" y2="1"/>
	<line class="st0" x1="6.4" y1="21.8" x2="6.4" y2="1"/>
	<rect x="1" y="1" class="st1" width="65.3" height="20.8"/>
	<line class="st1" x1="66.3" y1="1" x2="75.9" y2="1"/>
	<line class="st1" x1="66.3" y1="21.8" x2="75.9" y2="21.8"/>
	<polyline class="st2" points="1,16.6 66.3,16.6 66.3,16.6 	"/>
	<polyline class="st1" points="1,11.4 66.3,11.4 66.3,11.4 	"/>
	<polyline class="st2" points="1,6.2 66.3,6.2 66.3,6.2 	"/>
	<line class="st1" x1="55.4" y1="21.8" x2="55.4" y2="1"/>
	<line class="st1" x1="44.5" y1="21.8" x2="44.5" y2="1"/>
	<line class="st1" x1="33.6" y1="21.8" x2="33.6" y2="1"/>
	<line class="st1" x1="22.7" y1="21.8" x2="22.7" y2="1"/>
	<line class="st1" x1="11.8" y1="21.8" x2="11.8" y2="1"/>
</g>
</svg>
