<?xml version="1.0" encoding="utf-8"?>
<!-- Generator: Adobe Illustrator 23.1.1, SVG Export Plug-In . SVG Version: 6.00 Build 0)  -->
<svg version="1.1" id="Layer_1" xmlns="http://www.w3.org/2000/svg" xmlns:xlink="http://www.w3.org/1999/xlink" x="0px" y="0px"
	 viewBox="0 0 108 108" width="100%" height="100%" style="enable-background:new 0 0 108 108;" xml:space="preserve">
<style type="text/css">
	.st0{fill-rule:evenodd;clip-rule:evenodd;fill:#79A23F;}
	.st1{opacity:0.34;fill:#68431A;}
	.st2{fill:none;stroke:#718537;stroke-width:0.6452;stroke-miterlimit:10;}
	.st3{fill:#A5C239;}
	.st4{fill:#84B541;}
	.st5{fill:#91BB3E;}
	.st6{fill:#AFCB36;}
	.st7{fill:#92B83F;}
	.st8{fill:#A5BE3B;}
	.st9{fill:#A4C839;}
	.st10{fill:#72AA42;}
	.st11{fill:#E7B645;}
	.st12{fill:#F5A233;}
</style>
<g>
	<g>
		<path class="st0" d="M74.32,78.82c-0.09-0.04-0.1-0.08-0.14-0.13c0,0,0,0,0.02,0.02C74.23,78.77,74.31,78.78,74.32,78.82
			c3.48,2.49,10.03-3.91,3.73-6.43c-0.3,0.04-0.67-0.08-0.96-0.31h0c0.34,0.11,0.62,0.21,0.95,0.31c0.58,0.02,1.14-0.31,1.52-0.73
			c1.13,0.13,2.5-0.86,1.27-2.53c1.61,0.31,1.55-1.34,0.92-2.24c2.86-0.25,4.86-2.13,5.27-4.81c0.5-3.01-0.99-7.4-4.27-8.13
			c-0.07-0.11-0.08-0.19-0.11-0.25c1.87-0.33,2.69-1.8,1.2-3.32c1.93-0.46,1.6-3.57-1.71-1.71c3.16-0.77,3.01-5.27,0.93-6.39
			c0-0.94-0.16-1.82-0.56-2.57c-0.89-1.82-2.96-2.99-5.13-3.09c0.1-1.97-1.91-3.32-3.75-2.72c-0.56-0.94-1.4-1.71-2.36-2.09
			c0.73-2.42-3.16-4.47-4.79-1.67c0.11-1.21-0.66-1.98-1.59-2.28c-0.61-1.4-1.94-1.51-3.2-1.04c-0.16-0.11-0.35-0.15-0.53-0.25
			c-0.27-2.57-2.04-4.85-4.27-5.45c-2.73-0.79-6.14,1.04-7.09,3.95c-0.29-0.02-0.56-0.08-0.81-0.02c-2.3-2.88-9.46-1.48-6.32,3.8
			c0.2,0.17,0.35,0.44,0.48,0.69c0,0,0,0,0.02,0.02c-0.18-0.27-0.34-0.46-0.5-0.71c-1.25-0.98-3.64,0.06-3.13,1.67
			c-0.92,0.06-1.78,0.42-2.36,1.02c-2.55-2.24-5.72-2.03-7.92,0.06c-2.45,2.34-4.09,7.56-0.67,9.95c-1.95-1.84-4.2-1.23-3.88,1.3
			c-1.85-0.81-3.44,1.88,0.31,2.38c-3.85-1.65-7.18,4.93-2.81,5.93c-3.26,0.33-2.86,5.24,0.35,5.72c-2.35,1.07-2.09,3.66-0.58,4.81
			c-0.2,0.71,0,1.48,1.33,1.88c-1.15,0.54-0.81,1.4-0.13,1.94c-1.61,1.61,0.19,5.14,3,3.97c-0.78,0.88-0.65,1.98-0.07,2.78
			c-0.36,1.5,0.61,2.42,1.88,2.78c0.3,0.96,0.88,1.42,1.77,1.53c0.1,0.38,0.47,0.77,1.07,1.11c0.42,1.25,1.37,1.76,2.09,1.28
			c0.05-0.15,0.13-0.31,0.24-0.46c0.03,0,0.11,0.04,0.16,0.02c-0.13,0.17-0.25,0.35-0.4,0.44c-0.49,1.46,1.12,2.86,2.77,3.3
			c0.02,0.71,0.45,1.23,1.04,1.63c0.45,1.78,1.56,3.38,3.07,4.05c2.61,1.27,6.33,0.08,7.74-2.68c0.14-0.06,0.33,0,0.46-0.06
			c0.06,0.06,0.18,0.11,0.24,0.17c1.26,2.49,5.83,3.09,7.02,0.67c1.11,0.33,2.41,0.11,3.4-0.56c0.71-0.15,1.33-0.65,1.59-1.46
			c0.59,1.94,3.15,1.02,2.81-1.17c0.02,0.02,0.07,0.02,0.1,0c1.1,3.68,5.34,5.5,8.23,4.35C74.39,86.03,76.07,81.85,74.32,78.82z"/>
		<path class="st1" d="M81.57,62.15l-1.99-0.42l-3.97-0.91l-0.02,0l-0.15-0.01c-1.14-0.08-2.28-0.08-3.42-0.04
			c-1.07,0.04-2.15,0.11-3.21,0.39c-0.29-0.48-0.73-0.53-1.12-0.74l-1.28-0.56l-2.55-1.12c-0.95-0.4-1.9-0.79-2.85-1.18
			c0.27-1.07,0.39-2.01,0.29-2.84c1.05-0.5,2.1-1.06,3.09-1.71c0.37-0.24,0.72-0.5,1.07-0.76c0.19,0.13,0.4,0.13,0.61,0.17
			l1.09,0.18l2.17,0.37l4.36,0.67c1.46,0.21,2.91,0.41,4.38,0.59c1.47,0.16,2.93,0.35,4.41,0.48l0.25-1.16
			c-1.43-0.38-2.87-0.7-4.31-1.04c-1.44-0.32-2.89-0.63-4.34-0.93l-4.35-0.85l-2.08-0.38c0.68-0.7,1.33-1.44,1.88-2.24
			c0.72-1.03,1.3-2.14,1.78-3.28l7.64-0.76l-0.05-1.19l-6.87-0.05c0.12-0.37,0.24-0.75,0.33-1.13c0.62-2.24,0.76-4.54,0.89-6.81
			l-1.19-0.06c-0.25,2.19-0.52,4.38-1.22,6.44c-0.66,2.06-1.6,4.01-2.9,5.67c-1.29,1.67-2.93,3.01-4.77,4.05
			c-1.11,0.64-2.3,1.15-3.53,1.63c-0.58-0.31-1.15-0.56-1.4-0.77c-0.37-0.31-0.9-0.76-1.45-1.15l-0.81-12.59
			c0.06-0.05,0.13-0.11,0.19-0.16l0.65-0.51l1.36-1.02l2.77-2l5.6-3.93l-0.65-0.99l-5.81,3.65l-2.89,1.87l-1.36,0.92l-0.53-8.23
			l-1.19,0.04l0.1,9.46c-0.01,0.01-0.02,0.02-0.03,0.03l0.03,0.02l0.05,4.71c-0.03-0.03-0.05-0.05-0.08-0.08
			c-0.6-0.57-1.22-1.11-1.85-1.64c-0.09-0.07-0.18-0.13-0.27-0.21L49.03,29.3l-1.15,0.3l2.03,8.81c-0.5-0.36-1.01-0.71-1.53-1.05
			c-1.36-0.9-2.78-1.72-4.21-2.49c-1.44-0.76-2.92-1.45-4.4-2.11l-0.49,1.08c1.44,0.69,2.87,1.41,4.26,2.2
			c1.39,0.78,2.77,1.59,4.08,2.48c1.32,0.89,2.6,1.83,3.81,2.84c0.6,0.51,1.2,1.03,1.75,1.58c0.28,0.27,0.55,0.55,0.82,0.84
			c0.1,0.1,0.19,0.21,0.29,0.32l0.06,6.02c-0.84,0.36-1.45,0.98-1.45,0.98s-0.4,0.34-0.91,0.83l-10.27-5.34
			c-0.33-0.67-0.82-1.23-1.21-1.85l-1.76-2.57c-1.21-1.69-2.41-3.39-3.68-5.04l-0.99,0.66c1.04,1.8,2.16,3.56,3.27,5.32l1.71,2.61
			c0.3,0.41,0.55,0.87,0.84,1.29c-0.66,0-1.31,0.07-1.96,0.09l-3.54,0.2c-2.36,0.17-4.71,0.35-7.07,0.61l0.06,1.19
			c2.37,0.04,4.73-0.02,7.09-0.07l3.54-0.14c0.89-0.06,1.78-0.01,2.66-0.2l2.71,1.65l-6.61,3.94l-10.94,1.78l0.19,1.17l11.04-1.8
			l0.06-0.01l0.11-0.05l8.62-3.54l4.12,2.51c-0.09,0.18-0.15,0.35-0.18,0.5c-0.17,1.04,0.37,2.13,0.65,3.38l-4.6,3.74l-19.87-1.1
			l-0.09,1.18l11.8,1.23l-9.12,7.06l0.69,0.97l11.74-7.68l3.95,0.41l-0.54,4.08c-0.13,0.95-0.25,1.89-0.38,2.84L31.99,75.1
			l0.35,1.14l11.33-3.01c-0.01,0.02-0.01,0.05-0.01,0.07l-1.97,10.32l1.16,0.24l2.36-10.27c0.44-1.7,0.67-3.45,0.98-5.18l0.81-4.74
			l3.9-2.34c0.17,0.2,0.47,0.34,1,0.48c0.56,0.15,1.06,0.24,1.48,0.3l2.06,12.31l-4.1,12.01l1.11,0.41l4.08-10.33l6.54,9.51l1-0.64
			l-6.84-11.38L56.5,61.8c0.63-0.19,1.2-0.36,1.2-0.36s1.24-0.63,2.17-1.59c1.06,0.37,2.12,0.73,3.18,1.08l2.66,0.84l1.33,0.42
			c0.19,0.04,0.38,0.12,0.57,0.18l0.78,3.93l0.44,2.16l0.23,1.09l0.14,0.6c0.03,0.13,0.1,0.29,0.18,0.43l0.15,0.26
			c0.79,1.28,1.6,2.49,2.41,3.73l2.44,3.67l1.01-0.63l-2.19-3.81c-0.72-1.27-1.46-2.56-2.13-3.81l-0.11-0.22
			c0-0.02-0.02-0.02-0.02-0.08l-0.08-0.48l-0.16-1.08l-0.3-2.17l-0.46-3.47c0.73,0.03,1.46-0.01,2.19-0.07
			c0.63-0.05,1.26-0.12,1.89-0.2l4.75,11.44l1.11-0.41l-3.61-11.07l3.07,0.7l2.01,0.42c0.7,0.13,1.3,0.27,2.13,0.33v-1.19
			C82.94,62.42,82.21,62.28,81.57,62.15z"/>
		<g>
			<path class="st2" d="M70.17,79.18c-0.04-1.54-0.65-4.31-1.07-6.27"/>
			<path class="st2" d="M74.25,77.19c-2.04-0.82-4.65-2.66-5.94-4.65"/>
			<path class="st2" d="M74.95,73.19c-2.32,1.12-4.24,2.41-5.83,0.09"/>
			<path class="st2" d="M65.64,68.79c-2.45-1.9-4.78-4.41-5.68-6.62"/>
			<path class="st2" d="M60.62,70.6c0.28-3.2-0.59-8.1-0.71-9.1"/>
			<path class="st2" d="M64.95,64.52c-1.9,0.6-2.97,1.52-4.84-1.63"/>
			<path class="st3" d="M66.84,82.2c-0.2-1.23-0.82-1.48,1.23-3.66c2.05-2.18,2.05-2.18,2.05-2.18s0.41,0.47,0.89,1.01
				c0.48,0.53,2.5,2.33,1.59,4.41c-0.91,2.09-1.7,3.22-2.01,3.55c-0.31,0.33-1.12,1.64-1.34,1.96"/>
			<path class="st4" d="M81.27,82.82c-1.49-0.62-3.64,0.72-5.45-0.55s-2.85-4.42-3.28-5.32c-0.43-0.91-1.17-0.51,0.54-0.55
				c1.71-0.03,1.81-0.61,3.29-0.26c1.49,0.35,3.54,2.57,3.68,3.49C80.19,80.56,81.27,82.82,81.27,82.82z"/>
			<path class="st5" d="M72.35,74.48c0.45,0,0.94,0.36,3.1,0.4c2.15,0.03,3.85-0.2,4.23-1.84c0.38-1.64-0.15-1.97,0.77-3.05
				s0.92-1.08,0.92-1.08s-1.85-0.06-4.44,0.01s-3.79,2.68-4.11,3.78C72.5,73.79,72.35,74.48,72.35,74.48z"/>
			<path class="st6" d="M71.18,74.5c0,0-0.99-1.1-3.03-1.11c-2.03-0.01-4.26-1.01-4.26-3.16c0-2.15-0.7-3.34-0.7-3.34
				s-0.04,0.31,1.73,0.17c1.77-0.14,4.28,1.08,4.99,2.84C70.62,71.66,71.18,74.5,71.18,74.5z"/>
			<path class="st7" d="M58.96,77.24c0,0,2.62-2.62,3.42-4.4c0.8-1.78,1.02-2.84-0.02-4.1c-1.04-1.26-1.42-2.28-1.42-2.28
				s-1.48,2.2-2.44,2.71s-2.04,2.31-1.52,3.38C57.5,73.62,58.96,77.24,58.96,77.24z"/>
			<path class="st8" d="M63.06,65.12c0,0.03,1.57,0.68,3.43,0.91c1.87,0.22,2.87,0.21,3.61-0.72c0.73-0.93,1.23-1.91,1.75-2.99
				c0.52-1.08,0.59-1.52,1.02-1.63c0.43-0.1-0.54,0.38-2.6-0.13s-3.04-1.07-3.9-0.4c-0.85,0.67-0.83,1.91-1.52,2.91
				S63.06,65.12,63.06,65.12z"/>
		</g>
		<g>
			<path class="st2" d="M35.99,79.48c1.49-0.42,4.02-1.68,5.81-2.58"/>
			<path class="st2" d="M38.92,82.95c0.29-2.17,1.44-5.16,3.05-6.9"/>
			<path class="st2" d="M42.98,82.65c-1.65-1.97-3.37-3.52-1.51-5.63"/>
			<path class="st2" d="M44.96,72.54c1.24-2.84,3.11-5.72,5.03-7.13"/>
			<path class="st2" d="M41.97,68.12c3.17-0.51,7.7-2.56,8.65-2.92"/>
			<path class="st2" d="M48.92,70.83c-1.04-1.69-2.2-2.51,0.4-5.09"/>
			<path class="st4" d="M32.25,76.99c1.14-0.49,1.24-1.16,3.85,0.29c2.61,1.45,2.61,1.45,2.61,1.45s-0.36,0.51-0.76,1.1
				c-0.4,0.59-1.64,2.99-3.89,2.62c-2.25-0.37-3.54-0.86-3.94-1.08c-0.39-0.22-1.86-0.68-2.23-0.82"/>
			<path class="st9" d="M35.19,91.14c0.24-1.6-1.59-3.35-0.8-5.42c0.79-2.07,3.58-3.84,4.36-4.49c0.77-0.64,0.21-1.26,0.66,0.39
				c0.45,1.65,1.04,1.6,1.06,3.13c0.02,1.53-1.63,4.06-2.48,4.42S35.19,91.14,35.19,91.14z"/>
			<path class="st5" d="M41.09,80.44c0.11,0.43-0.12,1,0.37,3.1c0.5,2.1,1.14,3.68,2.82,3.64c1.68-0.04,1.87-0.63,3.15,0
				s1.27,0.63,1.27,0.63s-0.4-1.81-1.1-4.3c-0.7-2.49-3.53-3.02-4.67-3.06C41.79,80.42,41.09,80.44,41.09,80.44z"/>
			<path class="st6" d="M40.78,79.31c0,0,0.82-1.23,0.33-3.21c-0.49-1.97-0.06-4.38,2.02-4.91c2.09-0.53,3.07-1.49,3.07-1.49
				s-0.31,0.03,0.26,1.72s0.01,4.42-1.53,5.54C43.4,78.07,40.78,79.31,40.78,79.31z"/>
			<path class="st7" d="M35.13,68.13c0,0,3.19,1.9,5.1,2.24c1.92,0.34,3,0.3,3.97-1.02c0.97-1.32,1.86-1.94,1.86-1.94
				s-2.49-0.89-3.23-1.7c-0.73-0.81-2.74-1.41-3.65-0.64S35.13,68.13,35.13,68.13z"/>
			<path class="st8" d="M47.88,69.13c-0.03,0.01-0.28,1.69-0.04,3.55s0.5,2.84,1.58,3.32c1.08,0.48,2.15,0.72,3.33,0.96
				c1.18,0.24,1.62,0.2,1.82,0.59c0.2,0.39-0.5-0.43-0.51-2.55c-0.01-2.12,0.3-3.21-0.57-3.88s-2.06-0.33-3.19-0.76
				C49.18,69.94,47.88,69.13,47.88,69.13z"/>
		</g>
		<g>
			<path class="st2" d="M27.94,48.02c0.49,1.46,1.88,3.93,2.86,5.68"/>
			<path class="st2" d="M24.62,51.11c2.19,0.18,5.22,1.18,7.04,2.7"/>
			<path class="st2" d="M25.13,55.15c1.89-1.75,3.34-3.54,5.55-1.79"/>
			<path class="st2" d="M35.32,56.63c2.9,1.09,5.86,2.82,7.37,4.66"/>
			<path class="st2" d="M39.58,53.42c0.67,3.14,2.94,7.57,3.35,8.5"/>
			<path class="st2" d="M37.23,60.5c1.64-1.13,2.4-2.32,5.11,0.14"/>
			<path class="st3" d="M30.24,44.15c0.55,1.12,1.22,1.18-0.1,3.86c-1.32,2.68-1.32,2.68-1.32,2.68s-0.53-0.33-1.14-0.7
				s-3.07-1.49-2.81-3.75c0.26-2.26,0.68-3.58,0.88-3.98c0.2-0.4,0.59-1.89,0.71-2.26"/>
			<path class="st4" d="M16.26,47.79c1.61,0.16,3.27-1.76,5.37-1.08s4.02,3.39,4.7,4.13s1.27,0.15-0.35,0.68
				c-1.63,0.53-1.55,1.11-3.07,1.21s-4.14-1.42-4.54-2.26C17.96,49.64,16.26,47.79,16.26,47.79z"/>
			<path class="st5" d="M27.24,53.15c-0.43,0.13-1.01-0.07-3.08,0.53c-2.07,0.6-3.62,1.32-3.5,3c0.12,1.68,0.73,1.84,0.16,3.14
				s-0.57,1.3-0.57,1.3s1.79-0.49,4.24-1.31c2.45-0.82,2.84-3.68,2.82-4.82C27.29,53.85,27.24,53.15,27.24,53.15z"/>
			<path class="st6" d="M28.35,52.79c0,0,1.27,0.76,3.22,0.17c1.95-0.59,4.37-0.28,5,1.77c0.63,2.06,1.65,2.99,1.65,2.99
				s-0.05-0.31-1.7,0.35s-4.41,0.23-5.61-1.25C29.71,55.35,28.35,52.79,28.35,52.79z"/>
			<path class="st7" d="M39.23,46.59c0,0-1.73,3.28-1.98,5.21c-0.25,1.93-0.15,3.01,1.22,3.91c1.36,0.9,2.03,1.76,2.03,1.76
				s0.77-2.53,1.54-3.31c0.78-0.77,1.27-2.81,0.46-3.67C41.68,49.62,39.23,46.59,39.23,46.59z"/>
			<path class="st8" d="M38.87,59.37c-0.01-0.03-1.7-0.19-3.55,0.14c-1.85,0.33-2.81,0.64-3.24,1.75c-0.43,1.11-0.61,2.19-0.79,3.37
				c-0.18,1.19-0.11,1.63-0.49,1.85c-0.38,0.22,0.41-0.52,2.52-0.63c2.12-0.11,3.22,0.13,3.84-0.76c0.62-0.89,0.23-2.07,0.6-3.23
				S38.87,59.37,38.87,59.37z"/>
		</g>
		<g>
			<path class="st2" d="M52.14,85.05c0.82-1.31,1.85-3.94,2.58-5.81"/>
			<path class="st2" d="M56.64,85.65c-1.24-1.81-2.4-4.79-2.37-7.16"/>
			<path class="st2" d="M59.44,82.71c-2.55-0.35-4.86-0.34-4.9-3.15"/>
			<path class="st2" d="M54.13,73.89c-0.99-2.93-1.54-6.32-1.06-8.66"/>
			<path class="st2" d="M48.94,72.62c2-2.51,3.99-7.07,4.45-7.98"/>
			<path class="st2" d="M55.91,69.96c-1.91-0.55-3.31-0.38-3.13-4.04"/>
			<path class="st3" d="M47.7,85.72c0.52-1.13,0.14-1.69,3.05-2.37s2.91-0.68,2.91-0.68s0.08,0.62,0.18,1.33
				c0.1,0.71,0.79,3.32-1.12,4.55c-1.92,1.23-3.2,1.75-3.64,1.85c-0.44,0.1-1.84,0.75-2.2,0.89"/>
			<path class="st4" d="M59.37,94.23c-0.9-1.35-3.43-1.42-4.24-3.48s0.07-5.25,0.21-6.25c0.14-0.99-0.69-1.08,0.75-0.16
				c1.44,0.92,1.84,0.49,2.88,1.61c1.04,1.12,1.53,4.1,1.13,4.94C59.72,91.74,59.37,94.23,59.37,94.23z"/>
			<path class="st5" d="M56.56,82.34c0.37,0.25,0.59,0.83,2.36,2.05c1.77,1.22,3.32,1.96,4.54,0.81c1.22-1.16,0.96-1.73,2.33-2.11
				c1.37-0.39,1.37-0.39,1.37-0.39s-1.51-1.07-3.7-2.45c-2.19-1.37-4.64,0.14-5.51,0.88S56.56,82.34,56.56,82.34z"/>
			<path class="st6" d="M55.57,81.71c0,0-0.22-1.46-1.91-2.6s-2.99-3.2-1.8-4.99s1.27-3.17,1.27-3.17s-0.21,0.23,1.35,1.1
				c1.55,0.87,2.97,3.27,2.59,5.13C56.68,79.03,55.57,81.71,55.57,81.71z"/>
			<path class="st7" d="M43.88,77.23c0,0,3.63-0.74,5.29-1.77c1.65-1.04,2.42-1.8,2.25-3.42s0.08-2.68,0.08-2.68
				s-2.45,1.01-3.54,0.91c-1.09-0.11-2.98,0.8-3.13,1.97S43.88,77.23,43.88,77.23z"/>
			<path class="st8" d="M54,69.4c-0.02,0.03,0.93,1.44,2.36,2.66s2.27,1.77,3.4,1.4c1.13-0.37,2.08-0.91,3.11-1.52
				c1.03-0.61,1.33-0.94,1.75-0.79c0.41,0.15-0.66,0.02-2.09-1.55c-1.43-1.56-1.94-2.58-3.02-2.49c-1.08,0.09-1.75,1.14-2.88,1.58
				S54,69.4,54,69.4z"/>
		</g>
		<g>
			<path class="st2" d="M65.17,33.21c-1.52,0.26-4.17,1.25-6.05,1.95"/>
			<path class="st2" d="M62.63,29.46c-0.52,2.13-1.98,4.98-3.76,6.54"/>
			<path class="st2" d="M58.56,29.32c1.43,2.13,2.98,3.85,0.91,5.76"/>
			<path class="st2" d="M55.52,39.16c-1.53,2.69-3.69,5.36-5.75,6.56"/>
			<path class="st2" d="M58.03,43.87c-3.2,0.17-7.93,1.73-8.91,1.99"/>
			<path class="st2" d="M51.4,40.45c0.86,1.79,1.92,2.73-0.93,5.02"/>
			<path class="st3" d="M68.63,36.08c-1.19,0.37-1.35,1.02-3.79-0.7c-2.44-1.72-2.44-1.72-2.44-1.72s0.41-0.47,0.87-1.02
				c0.46-0.55,1.95-2.8,4.14-2.2c2.2,0.61,3.43,1.23,3.8,1.49c0.37,0.26,1.78,0.87,2.13,1.05"/>
			<path class="st9" d="M67.2,21.7c-0.41,1.57,1.23,3.5,0.23,5.48s-3.97,3.44-4.81,4s-0.34,1.23-0.62-0.45
				c-0.27-1.69-0.86-1.7-0.72-3.22c0.14-1.52,2.05-3.87,2.94-4.14C65.11,23.1,67.2,21.7,67.2,21.7z"/>
			<path class="st4" d="M60.21,31.72c-0.06-0.44,0.23-0.99-0.04-3.12c-0.27-2.14-0.74-3.78-2.42-3.92
				c-1.68-0.14-1.93,0.43-3.13-0.33c-1.2-0.76-1.2-0.76-1.2-0.76s0.21,1.84,0.64,4.39c0.43,2.55,3.19,3.37,4.32,3.53
				C59.51,31.66,60.21,31.72,60.21,31.72z"/>
			<path class="st6" d="M60.39,32.87c0,0-0.95,1.14-0.67,3.15c0.28,2.02-0.4,4.36-2.53,4.67s-3.21,1.16-3.21,1.16s0.31,0-0.08-1.73
				c-0.39-1.73,0.46-4.39,2.1-5.34C57.65,33.83,60.39,32.87,60.39,32.87z"/>
			<path class="st7" d="M64.83,44.58c0,0-2.97-2.22-4.84-2.76c-1.87-0.54-2.95-0.61-4.06,0.6c-1.1,1.21-2.05,1.73-2.05,1.73
				s2.39,1.15,3.03,2.04c0.64,0.89,2.57,1.69,3.56,1.03C61.45,46.54,64.83,44.58,64.83,44.58z"/>
			<path class="st8" d="M52.25,42.24c0.03-0.01,0.46-1.65,0.41-3.53c-0.04-1.88-0.2-2.87-1.22-3.47c-1.03-0.6-2.07-0.95-3.21-1.31
				c-1.15-0.36-1.59-0.37-1.75-0.78c-0.16-0.41,0.45,0.48,0.23,2.59c-0.22,2.11-0.63,3.16,0.15,3.91c0.79,0.75,2.01,0.55,3.09,1.09
				C51.05,41.31,52.25,42.24,52.25,42.24z"/>
		</g>
		<g>
			<path class="st2" d="M35.29,34.19c-0.14,1.54,0.14,4.35,0.33,6.35"/>
			<path class="st2" d="M31,35.68c1.93,1.05,4.3,3.19,5.35,5.32"/>
			<path class="st2" d="M29.83,39.57c2.43-0.84,4.49-1.89,5.8,0.6"/>
			<path class="st2" d="M38.56,45.04c2.21,2.17,4.23,4.94,4.86,7.24"/>
			<path class="st2" d="M43.76,43.83c-0.65,3.14-0.37,8.11-0.37,9.13"/>
			<path class="st2" d="M38.74,49.36c1.95-0.37,3.13-1.16,4.61,2.19"/>
			<path class="st3" d="M38.94,31.58c0.05,1.24,0.64,1.57-1.65,3.49s-2.29,1.92-2.29,1.92s-0.35-0.52-0.76-1.1
				c-0.41-0.59-2.21-2.6-1.06-4.57c1.15-1.97,2.07-3,2.41-3.29c0.35-0.29,1.3-1.5,1.56-1.78"/>
			<path class="st9" d="M24.69,29.27c1.41,0.79,3.7-0.29,5.35,1.19s2.31,4.72,2.63,5.67s1.11,0.65-0.6,0.48
				c-1.7-0.17-1.87,0.39-3.3-0.13s-3.21-2.97-3.24-3.9C25.5,31.65,24.69,29.27,24.69,29.27z"/>
			<path class="st4" d="M32.57,38.6c-0.44-0.05-0.9-0.47-3.03-0.76c-2.13-0.29-3.85-0.25-4.41,1.33c-0.57,1.59-0.08,1.98-1.12,2.94
				c-1.04,0.96-1.04,0.96-1.04,0.96s1.83,0.27,4.41,0.51c2.57,0.24,4.08-2.22,4.52-3.27C32.33,39.26,32.57,38.6,32.57,38.6z"/>
			<path class="st6" d="M33.73,38.72c0,0,0.86,1.21,2.88,1.46c2.02,0.25,4.11,1.51,3.86,3.64c-0.25,2.14,0.3,3.4,0.3,3.4
				s0.08-0.3-1.7-0.37c-1.77-0.07-4.13-1.57-4.63-3.4S33.73,38.72,33.73,38.72z"/>
			<path class="st7" d="M46.19,37.44c0,0-2.91,2.3-3.91,3.97s-1.35,2.7-0.47,4.07c0.88,1.38,1.14,2.43,1.14,2.43s1.72-2.01,2.75-2.4
				c1.02-0.39,2.3-2.05,1.9-3.18C47.21,41.2,46.19,37.44,46.19,37.44z"/>
			<path class="st8" d="M40.7,48.99c0-0.03-1.47-0.86-3.3-1.31c-1.83-0.44-2.83-0.55-3.67,0.29c-0.84,0.84-1.45,1.75-2.09,2.77
				c-0.64,1.01-0.76,1.44-1.2,1.49C30,52.28,31.02,51.92,33,52.67s2.89,1.42,3.82,0.86c0.93-0.57,1.04-1.8,1.85-2.71
				C39.48,49.91,40.7,48.99,40.7,48.99z"/>
		</g>
		<g>
			<path class="st2" d="M51.11,30.25c-1.1,1.08-2.71,3.41-3.85,5.06"/>
			<path class="st2" d="M46.87,28.62c0.79,2.05,1.23,5.21,0.66,7.52"/>
			<path class="st2" d="M43.47,30.84c2.4,0.93,4.65,1.45,4.04,4.2"/>
			<path class="st2" d="M46.6,40.65c0.29,3.08,0.04,6.5-0.96,8.67"/>
			<path class="st2" d="M51.35,43.08c-2.53,1.98-5.52,5.96-6.17,6.73"/>
			<path class="st2" d="M43.95,44.06c1.73,0.98,3.14,1.14,2.11,4.65"/>
			<path class="st3" d="M55.59,30.62c-0.76,0.98-0.52,1.61-3.51,1.6s-2.99-0.01-2.99-0.01s0.07-0.62,0.13-1.33
				c0.06-0.71-0.01-3.41,2.14-4.17s3.52-0.96,3.97-0.96c0.45,0,1.96-0.3,2.35-0.35"/>
			<path class="st9" d="M46.19,19.64c0.56,1.52,3.01,2.17,3.32,4.36c0.31,2.19-1.28,5.1-1.65,6.03c-0.37,0.93,0.43,1.21-0.77-0.02
				s-1.68-0.9-2.44-2.23c-0.76-1.33-0.54-4.34,0.04-5.07C45.27,21.98,46.19,19.64,46.19,19.64z"/>
			<path class="st4" d="M46.18,31.86c-0.3-0.32-0.38-0.94-1.82-2.54c-1.44-1.6-2.77-2.68-4.23-1.83c-1.46,0.85-1.34,1.46-2.76,1.52
				c-1.42,0.06-1.42,0.06-1.42,0.06s1.22,1.39,3.03,3.24s4.55,0.94,5.57,0.42S46.18,31.86,46.18,31.86z"/>
			<path class="st6" d="M47,32.7c0,0-0.13,1.48,1.26,2.97s2.17,3.81,0.6,5.27c-1.57,1.47-1.97,2.79-1.97,2.79s0.25-0.18-1.06-1.38
				c-1.31-1.2-2.14-3.87-1.33-5.59C45.3,35.05,47,32.7,47,32.7z"/>
			<path class="st7" d="M57.34,39.77c0,0-3.7-0.12-5.55,0.5s-2.77,1.19-2.98,2.81c-0.21,1.62-0.69,2.59-0.69,2.59
				s2.61-0.42,3.65-0.06c1.04,0.36,3.08-0.09,3.51-1.2C55.69,43.3,57.34,39.77,57.34,39.77z"/>
			<path class="st8" d="M45.68,45.04c0.02-0.02-0.57-1.61-1.68-3.13c-1.11-1.52-1.81-2.25-2.99-2.15c-1.18,0.1-2.24,0.41-3.38,0.76
				s-1.51,0.61-1.88,0.37c-0.37-0.24,0.65,0.14,1.68,1.99c1.03,1.85,1.29,2.96,2.37,3.12c1.07,0.17,1.96-0.7,3.16-0.87
				C44.16,44.97,45.68,45.04,45.68,45.04z"/>
		</g>
		<g>
			<path class="st2" d="M27.9,65.22c1.43,0.57,4.21,1.11,6.18,1.49"/>
			<path class="st2" d="M28.12,69.76c1.56-1.55,4.28-3.22,6.62-3.62"/>
			<path class="st2" d="M31.52,71.99c-0.11-2.57-0.54-4.84,2.22-5.39"/>
			<path class="st2" d="M39.24,65.17c2.71-1.5,5.94-2.65,8.33-2.6"/>
			<path class="st2" d="M39.55,59.84c2.83,1.52,7.67,2.65,8.65,2.94"/>
			<path class="st2" d="M43.43,66.22c0.2-1.98-0.22-3.33,3.41-3.8"/>
			<path class="st3" d="M26.44,60.98c1.21,0.3,1.69-0.17,2.88,2.57s1.19,2.74,1.19,2.74s-0.59,0.19-1.27,0.42
				c-0.68,0.23-3.12,1.38-4.68-0.28s-2.29-2.83-2.47-3.25s-1.07-1.67-1.27-2.01"/>
			<path class="st9" d="M20.17,73.99c1.16-1.13,0.78-3.63,2.66-4.79s5.18-0.87,6.19-0.91c1-0.04,0.94-0.88,0.29,0.71
				c-0.65,1.59-0.15,1.9-1.06,3.13c-0.91,1.23-3.76,2.24-4.66,2S20.17,73.99,20.17,73.99z"/>
			<path class="st4" d="M31.36,69.08c-0.17,0.41-0.71,0.72-1.59,2.69c-0.88,1.97-1.34,3.62,0.02,4.61c1.36,0.99,1.87,0.64,2.5,1.91
				c0.63,1.28,0.63,1.28,0.63,1.28s0.78-1.68,1.74-4.08s-0.97-4.54-1.85-5.27C31.93,69.5,31.36,69.08,31.36,69.08z"/>
			<path class="st6" d="M31.8,68c0,0,1.4-0.48,2.21-2.34c0.81-1.87,2.61-3.52,4.59-2.67c1.98,0.85,3.34,0.68,3.34,0.68
				s-0.26-0.16-0.84,1.52c-0.57,1.68-2.68,3.51-4.58,3.47C34.64,68.61,31.8,68,31.8,68z"/>
			<path class="st7" d="M34.11,55.69c0,0,1.38,3.44,2.69,4.88s2.2,2.06,3.77,1.6c1.57-0.46,2.65-0.41,2.65-0.41
				s-1.44-2.22-1.53-3.32c-0.09-1.09-1.32-2.78-2.5-2.73C38.01,55.78,34.11,55.69,34.11,55.69z"/>
			<path class="st8" d="M43.63,64.24c-0.03-0.01-1.25,1.17-2.19,2.79c-0.94,1.63-1.33,2.56-0.76,3.6c0.57,1.04,1.27,1.88,2.06,2.79
				c0.79,0.91,1.17,1.14,1.09,1.58s-0.13-0.65,1.15-2.33s2.19-2.37,1.91-3.42c-0.28-1.05-1.43-1.51-2.07-2.55
				S43.63,64.24,43.63,64.24z"/>
		</g>
		<g>
			<path class="st2" d="M76.82,44.26c-1.5-0.38-4.32-0.53-6.33-0.65"/>
			<path class="st2" d="M76,39.79c-1.33,1.74-3.81,3.76-6.07,4.48"/>
			<path class="st2" d="M72.33,38.04c0.46,2.53,1.18,4.73-1.48,5.64"/>
			<path class="st2" d="M65.59,45.83c-2.48,1.85-5.53,3.42-7.9,3.7"/>
			<path class="st2" d="M66,51.15c-3.01-1.13-7.96-1.6-8.96-1.76"/>
			<path class="st2" d="M61.3,45.35c0.07,1.99,0.67,3.27-2.87,4.23"/>
			<path class="st3" d="M78.84,48.27c-1.24-0.14-1.65,0.39-3.2-2.16s-1.55-2.56-1.55-2.56s0.56-0.27,1.21-0.58
				c0.64-0.32,2.91-1.79,4.68-0.35s2.65,2.5,2.88,2.89c0.23,0.39,1.28,1.51,1.52,1.82"/>
			<path class="st9" d="M83.3,34.53c-1,1.27-0.28,3.7-1.99,5.11c-1.71,1.41-5.02,1.56-6.01,1.73c-0.99,0.17-0.81,0.99-0.38-0.66
				c0.43-1.66-0.1-1.9,0.64-3.24c0.74-1.34,3.43-2.72,4.35-2.61C80.83,34.97,83.3,34.53,83.3,34.53z"/>
			<path class="st4" d="M72.87,40.9c0.12-0.43,0.6-0.81,1.21-2.88c0.61-2.07,0.84-3.76-0.64-4.56c-1.48-0.8-1.94-0.38-2.73-1.56
				c-0.79-1.18-0.79-1.18-0.79-1.18s-0.55,1.77-1.18,4.28s1.57,4.37,2.54,4.97C72.25,40.56,72.87,40.9,72.87,40.9z"/>
			<path class="st6" d="M72.58,42.02c0,0-1.32,0.66-1.88,2.62c-0.55,1.96-2.12,3.84-4.19,3.26c-2.07-0.58-3.4-0.22-3.4-0.22
				s0.28,0.12,0.62-1.62c0.34-1.74,2.19-3.84,4.07-4.05S72.58,42.02,72.58,42.02z"/>
			<path class="st7" d="M71.94,54.53c0,0-1.83-3.23-3.32-4.48s-2.46-1.74-3.95-1.08c-1.5,0.66-2.57,0.76-2.57,0.76
				s1.72,2.01,1.96,3.08c0.23,1.07,1.68,2.58,2.85,2.37C68.07,54.97,71.94,54.53,71.94,54.53z"/>
			<path class="st8" d="M61.37,47.34c0.03,0.01,1.08-1.33,1.8-3.06c0.72-1.74,0.98-2.71,0.27-3.67c-0.7-0.96-1.51-1.7-2.41-2.49
				c-0.9-0.79-1.31-0.97-1.29-1.41c0.02-0.44,0.22,0.62-0.82,2.47s-1.85,2.64-1.43,3.65s1.62,1.31,2.39,2.24
				C60.64,46,61.37,47.34,61.37,47.34z"/>
		</g>
		<g>
			<path class="st2" d="M77.85,60.11c-1.02-1.16-3.26-2.88-4.85-4.11"/>
			<path class="st2" d="M79.69,55.96c-2.09,0.68-5.27,0.95-7.54,0.26"/>
			<path class="st2" d="M77.66,52.44c-1.05,2.34-1.7,4.57-4.41,3.82"/>
			<path class="st2" d="M67.7,55.05c-3.1,0.12-6.5-0.3-8.61-1.42"/>
			<path class="st2" d="M65.02,59.67c-1.84-2.63-5.66-5.82-6.4-6.52"/>
			<path class="st2" d="M64.43,52.24c-1.07,1.68-1.3,3.07-4.76,1.86"/>
			<path class="st3" d="M77.24,64.56c-0.94-0.81-1.58-0.61-1.41-3.59C76,57.98,76,57.98,76,57.98s0.62,0.1,1.33,0.2
				c0.71,0.1,3.41,0.17,4.05,2.36c0.64,2.19,0.77,3.56,0.75,4.01c-0.03,0.45,0.2,1.97,0.23,2.36"/>
			<path class="st9" d="M88.69,55.75c-1.54,0.48-2.32,2.89-4.53,3.09c-2.21,0.19-5.02-1.55-5.94-1.97s-1.23,0.36,0.06-0.76
				c1.29-1.13,0.99-1.63,2.36-2.31c1.37-0.68,4.37-0.31,5.06,0.31S88.69,55.75,88.69,55.75z"/>
			<path class="st4" d="M76.49,55.1c0.34-0.29,0.96-0.33,2.63-1.69c1.67-1.36,2.82-2.63,2.05-4.13c-0.77-1.5-1.39-1.41-1.37-2.83
				c0.01-1.42,0.01-1.42,0.01-1.42s-1.46,1.15-3.39,2.86s-1.18,4.49-0.71,5.54S76.49,55.1,76.49,55.1z"/>
			<path class="st6" d="M75.61,55.87c0,0-1.47-0.2-3.03,1.1c-1.56,1.3-3.92,1.97-5.3,0.32c-1.38-1.65-2.68-2.11-2.68-2.11
				s0.16,0.26,1.43-0.98s3.97-1.93,5.65-1.04C73.35,54.05,75.61,55.87,75.61,55.87z"/>
			<path class="st7" d="M68.01,65.82c0,0,0.32-3.69-0.21-5.57c-0.53-1.88-1.04-2.83-2.65-3.13c-1.61-0.3-2.55-0.83-2.55-0.83
				s0.28,2.63-0.13,3.65c-0.41,1.02-0.07,3.08,1.01,3.56C64.57,63.99,68.01,65.82,68.01,65.82z"/>
			<path class="st8" d="M63.36,53.91c0.02,0.02,1.64-0.48,3.21-1.51c1.57-1.03,2.34-1.68,2.3-2.87s-0.29-2.25-0.59-3.42
				c-0.3-1.16-0.53-1.54-0.27-1.9c0.26-0.35-0.17,0.64-2.08,1.57c-1.9,0.93-3.02,1.13-3.24,2.2c-0.22,1.06,0.6,2,0.71,3.2
				C63.51,52.4,63.36,53.91,63.36,53.91z"/>
		</g>
		<g>
			<g>
				<path class="st10" d="M52.23,63.28c-0.04-1.54-0.65-4.31-1.07-6.27"/>
				<path class="st10" d="M56.31,61.29c-2.04-0.82-4.65-2.66-5.94-4.65"/>
				<path class="st10" d="M57.01,57.28c-2.31,1.12-4.24,2.41-5.83,0.09"/>
				<path class="st10" d="M47.7,52.88c-2.45-1.9-4.78-4.41-5.68-6.62"/>
				<path class="st10" d="M42.68,54.7c0.28-3.2-0.59-8.1-0.71-9.1"/>
				<path class="st10" d="M47.01,48.62c-1.9,0.6-2.97,1.52-4.84-1.63"/>
				<g>
					<path class="st10" d="M48.9,66.29c-0.2-1.23-0.82-1.48,1.23-3.66c2.05-2.18,2.05-2.18,2.05-2.18s0.41,0.47,0.88,1.01
						c0.48,0.53,2.5,2.33,1.59,4.41s-1.7,3.22-2.01,3.55s-1.12,1.64-1.34,1.96"/>
				</g>
				<g>
					<path class="st10" d="M63.33,66.92c-1.49-0.62-3.64,0.72-5.45-0.55s-2.85-4.42-3.28-5.32c-0.43-0.91-1.17-0.51,0.54-0.55
						c1.71-0.03,1.81-0.61,3.29-0.26c1.49,0.35,3.54,2.57,3.68,3.49C62.25,64.65,63.33,66.92,63.33,66.92z"/>
				</g>
				<g>
					<path class="st10" d="M54.41,58.57c0.45,0,0.94,0.36,3.1,0.4c2.15,0.03,3.85-0.2,4.23-1.84c0.38-1.64-0.15-1.97,0.77-3.05
						S63.42,53,63.42,53s-1.85-0.06-4.44,0.01c-2.58,0.07-3.79,2.68-4.11,3.78C54.56,57.89,54.41,58.57,54.41,58.57z"/>
				</g>
				<g>
					<path class="st10" d="M53.24,58.6c0,0-0.99-1.1-3.03-1.11c-2.03-0.01-4.26-1.01-4.26-3.16c0-2.15-0.7-3.34-0.7-3.34
						s-0.04,0.31,1.73,0.17c1.77-0.14,4.28,1.08,4.99,2.84C52.68,55.75,53.24,58.6,53.24,58.6z"/>
				</g>
				<g>
					<path class="st10" d="M41.02,61.33c0,0,2.62-2.62,3.42-4.4c0.8-1.78,1.02-2.84-0.02-4.1C43.38,51.57,43,50.56,43,50.56
						s-1.48,2.2-2.44,2.71c-0.97,0.51-2.04,2.31-1.52,3.38C39.56,57.71,41.02,61.33,41.02,61.33z"/>
				</g>
				<g>
					<path class="st10" d="M45.11,49.21c0,0.03,1.57,0.68,3.43,0.91s2.87,0.21,3.61-0.72c0.73-0.93,1.23-1.91,1.75-2.99
						s0.59-1.52,1.02-1.63c0.43-0.1-0.54,0.38-2.6-0.13s-3.04-1.07-3.9-0.4c-0.85,0.67-0.83,1.91-1.52,2.91S45.11,49.21,45.11,49.21
						z"/>
				</g>
			</g>
		</g>
	</g>
	<g>
		<path class="st11" d="M67.97,80.03c-1.21-1.97-2.92-7.6-1.65-9.5c-0.34,0.1-0.69,0.22-1.05,0.38c-0.02,0.01-0.04,0.02-0.06,0.03
			c-1.21,0.56-2.45,1.7-2.77,4.32c-0.32,2.67,0.7,6.67,3.75,7.97c1.91,0.82,3.75,0.42,4.97-0.06c0.72-0.28,1.22-0.6,1.39-0.7
			C71.61,82.98,69.18,82,67.97,80.03z"/>
		<path class="st12" d="M74.26,75.42c-1.09-2.85-3.82-6.07-7.94-4.89c-1.27,1.9,0.45,7.53,1.65,9.5c1.21,1.97,3.63,2.96,4.57,2.45
			C72.99,82.19,75.44,78.5,74.26,75.42z"/>
	</g>
	<g>
		<path class="st11" d="M49.78,79.48c-1.21-1.97-2.92-7.6-1.65-9.5c-0.34,0.1-0.69,0.22-1.05,0.38c-0.02,0.01-0.04,0.02-0.06,0.03
			c-1.21,0.56-2.45,1.7-2.77,4.32c-0.32,2.67,0.7,6.67,3.75,7.97c1.91,0.82,3.75,0.42,4.97-0.06c0.72-0.28,1.22-0.6,1.39-0.7
			C53.42,82.43,50.99,81.45,49.78,79.48z"/>
		<path class="st12" d="M56.07,74.87c-1.09-2.85-3.82-6.07-7.94-4.89c-1.27,1.9,0.45,7.53,1.65,9.5c1.21,1.97,3.63,2.96,4.57,2.45
			C54.8,81.64,57.25,77.95,56.07,74.87z"/>
	</g>
	<g>
		<path class="st11" d="M31.1,68.02c1.18-1.98,5.36-6.12,7.64-5.89c-0.24-0.26-0.52-0.51-0.83-0.75c-0.02-0.01-0.04-0.03-0.05-0.04
			c-1.06-0.81-2.65-1.38-5.11-0.44c-2.51,0.96-5.58,3.72-5.31,7.03c0.17,2.07,1.37,3.52,2.36,4.37c0.59,0.51,1.1,0.8,1.27,0.9
			C30.18,72.62,29.92,70.01,31.1,68.02z"/>
		<path class="st12" d="M38.11,71.45c2.01-2.29,3.59-6.21,0.63-9.31c-2.28-0.24-6.46,3.9-7.64,5.89c-1.18,1.98-0.93,4.59-0.04,5.19
			C31.53,73.47,35.93,73.92,38.11,71.45z"/>
	</g>
	<g>
		<path class="st11" d="M26.85,45.84c2.19-0.72,8.06-1.11,9.63,0.56c-0.02-0.35-0.06-0.72-0.13-1.11c0-0.02-0.01-0.04-0.01-0.07
			c-0.27-1.31-1.09-2.78-3.58-3.68c-2.52-0.92-6.65-0.85-8.62,1.83c-1.23,1.68-1.27,3.56-1.08,4.85c0.11,0.77,0.3,1.33,0.37,1.51
			C23.14,48.7,24.66,46.56,26.85,45.84z"/>
		<path class="st12" d="M29.9,53.01c3.02-0.41,6.78-2.33,6.58-6.61c-1.56-1.67-7.43-1.29-9.63-0.56c-2.19,0.72-3.71,2.86-3.43,3.89
			C23.6,50.23,26.63,53.45,29.9,53.01z"/>
	</g>
	<g>
		<path class="st11" d="M60.23,52.38c2.19-0.72,8.06-1.11,9.63,0.56c-0.02-0.35-0.06-0.72-0.13-1.11c0-0.02-0.01-0.04-0.01-0.07
			c-0.27-1.31-1.09-2.78-3.58-3.68c-2.52-0.92-6.65-0.85-8.62,1.83c-1.23,1.68-1.27,3.56-1.08,4.85c0.11,0.77,0.3,1.33,0.37,1.51
			C56.52,55.24,58.04,53.1,60.23,52.38z"/>
		<path class="st12" d="M63.28,59.55c3.02-0.41,6.78-2.33,6.58-6.61c-1.56-1.67-7.43-1.29-9.63-0.56c-2.19,0.72-3.71,2.86-3.43,3.89
			C56.98,56.77,60.01,59.99,63.28,59.55z"/>
	</g>
	<g>
		<path class="st11" d="M40.81,38.05c-1.21-1.97-2.92-7.6-1.65-9.5c-0.34,0.1-0.69,0.22-1.05,0.38c-0.02,0.01-0.04,0.02-0.06,0.03
			c-1.21,0.56-2.45,1.7-2.77,4.32c-0.32,2.67,0.7,6.67,3.75,7.97c1.91,0.82,3.75,0.42,4.97-0.06c0.72-0.28,1.22-0.6,1.39-0.7
			C44.44,41,42.01,40.02,40.81,38.05z"/>
		<path class="st12" d="M47.1,33.44c-1.09-2.85-3.82-6.07-7.94-4.89c-1.27,1.9,0.45,7.53,1.65,9.5c1.21,1.97,3.63,2.96,4.57,2.45
			C45.83,40.21,48.27,36.52,47.1,33.44z"/>
	</g>
	<g>
		<path class="st11" d="M64.5,33.71c-1.86,1.37-7.31,3.57-9.32,2.47c0.13,0.33,0.28,0.67,0.47,1.01c0.01,0.02,0.02,0.04,0.03,0.06
			c0.66,1.16,1.91,2.3,4.55,2.38c2.69,0.08,6.58-1.28,7.62-4.43c0.65-1.98,0.09-3.77-0.49-4.94c-0.35-0.69-0.7-1.16-0.82-1.32
			C67.13,29.83,66.36,32.34,64.5,33.71z"/>
		<path class="st12" d="M59.37,27.85c-2.74,1.33-5.72,4.34-4.19,8.34c2.01,1.1,7.46-1.1,9.32-2.47c1.86-1.37,2.63-3.88,2.04-4.77
			C66.22,28.53,62.33,26.41,59.37,27.85z"/>
	</g>
	<g>
		<path class="st11" d="M75.48,45.87c-2.29-0.28-7.76-2.45-8.46-4.63c-0.14,0.33-0.25,0.68-0.35,1.06
			c-0.01,0.02-0.01,0.04-0.02,0.06c-0.32,1.3-0.2,2.98,1.66,4.86c1.89,1.91,5.65,3.61,8.57,2.04c1.83-0.99,2.67-2.67,3.05-3.92
			c0.23-0.74,0.29-1.33,0.31-1.52C80.06,44.87,77.78,46.15,75.48,45.87z"/>
		<path class="st12" d="M75.8,38.08c-2.9-0.93-7.13-0.79-8.78,3.16c0.7,2.18,6.17,4.35,8.46,4.63c2.29,0.28,4.58-1,4.76-2.05
			C80.3,43.29,78.94,39.08,75.8,38.08z"/>
	</g>
	<g>
		<path class="st11" d="M78.43,63.68c-2.11-0.94-6.71-4.61-6.74-6.9c-0.23,0.27-0.44,0.57-0.65,0.91c-0.01,0.02-0.02,0.04-0.03,0.06
			c-0.68,1.15-1.06,2.79,0.16,5.13c1.25,2.38,4.35,5.11,7.6,4.45c2.04-0.41,3.33-1.77,4.06-2.86c0.43-0.64,0.67-1.18,0.75-1.37
			C83.1,64.06,80.54,64.62,78.43,63.68z"/>
		<path class="st12" d="M81.01,56.32c-2.5-1.73-6.59-2.84-9.32,0.46c0.03,2.29,4.63,5.96,6.74,6.9c2.11,0.94,4.67,0.38,5.16-0.57
			C83.79,62.62,83.73,58.2,81.01,56.32z"/>
	</g>
	<g>
		<path class="st11" d="M44.69,60.84c-1.21-1.97-2.92-7.6-1.65-9.5c-0.34,0.1-0.69,0.22-1.05,0.38c-0.02,0.01-0.04,0.02-0.06,0.03
			c-1.21,0.56-2.45,1.7-2.77,4.32c-0.32,2.67,0.7,6.67,3.75,7.97c1.91,0.82,3.75,0.42,4.97-0.06c0.72-0.28,1.22-0.6,1.39-0.7
			C48.33,63.8,45.9,62.81,44.69,60.84z"/>
		<path class="st12" d="M50.98,56.23c-1.09-2.85-3.82-6.07-7.94-4.89c-1.27,1.9,0.45,7.53,1.65,9.5c1.21,1.97,3.63,2.96,4.57,2.45
			C49.71,63,52.16,59.31,50.98,56.23z"/>
	</g>
</g>
</svg>
