<svg xmlns="http://www.w3.org/2000/svg" version="1.1" xmlns:xlink="http://www.w3.org/1999/xlink" xmlns:svgjs="http://svgjs.dev/svgjs" viewBox="0 0 108 108" style="" x="0" y="0"><style type="text/css">
	.st0{fill-rule:evenodd;clip-rule:evenodd;fill:#678D32;}
	.st1{opacity:0.34;fill:#694000;}
	.st2{fill:none;stroke:#708430;stroke-width:0.8396;stroke-miterlimit:10;}
	.st3{fill:#A5C239;}
	.st4{fill:#83B43B;}
	.st5{fill:#90BB3A;}
	.st6{fill:#507525;}
	.st7{fill:#91B73E;}
	.st8{fill:#A4C839;}
	.st9{fill:#AFCB36;}
	.st10{fill:#A5BD39;}
	.st11{fill:#73AA3A;}
	.st12{fill:#321131;}
	.st13{fill:#482547;}
	.st14{fill:#533B57;}
</style><g><path class="st0" d="M82.7,81.5c-0.1,0-0.1-0.1-0.2-0.2c0,0,0,0,0,0C82.6,81.4,82.7,81.4,82.7,81.5c4.5,3.2,13-5.1,4.9-8.4
	c-0.4,0-0.9-0.1-1.2-0.4h0c0.4,0.1,0.8,0.3,1.2,0.4c0.8,0,1.5-0.4,2-0.9c1.5,0.2,3.3-1.1,1.6-3.3c2.1,0.4,2-1.7,1.2-2.9
	c3.7-0.3,6.3-2.8,6.9-6.3c0.6-3.9-1.3-9.6-5.6-10.6c-0.1-0.1-0.1-0.2-0.1-0.3c2.4-0.4,3.5-2.3,1.6-4.3c2.5-0.6,2.1-4.6-2.2-2.2
	c4.1-1,3.9-6.9,1.2-8.3c0-1.2-0.2-2.4-0.7-3.3c-1.2-2.4-3.9-3.9-6.7-4c0.1-2.6-2.5-4.3-4.9-3.5c-0.7-1.2-1.8-2.2-3.1-2.7
	c1-3.1-4.1-5.8-6.2-2.2c0.1-1.6-0.9-2.6-2.1-3c-0.8-1.8-2.5-2-4.2-1.3c-0.2-0.1-0.4-0.2-0.7-0.3c-0.4-3.3-2.7-6.3-5.6-7.1
	c-3.5-1-8,1.3-9.2,5.1c-0.4,0-0.7-0.1-1.1,0c-3-3.7-12.3-1.9-8.2,4.9c0.3,0.2,0.5,0.6,0.6,0.9c0,0,0,0,0,0c-0.2-0.4-0.4-0.6-0.6-0.9
	c-1.6-1.3-4.7,0.1-4.1,2.2c-1.2,0.1-2.3,0.5-3.1,1.3c-3.3-2.9-7.4-2.6-10.3,0.1c-3.2,3-5.3,9.8-0.9,13c-2.5-2.4-5.5-1.6-5.1,1.7
	c-2.4-1-4.5,2.4,0.4,3.1c-5-2.1-9.3,6.4-3.7,7.7c-4.2,0.4-3.7,6.8,0.5,7.4c-3.1,1.4-2.7,4.8-0.8,6.3c-0.3,0.9,0,1.9,1.7,2.4
	c-1.5,0.7-1,1.8-0.2,2.5c-2.1,2.1,0.2,6.7,3.9,5.2c-1,1.1-0.8,2.6-0.1,3.6c-0.5,1.9,0.8,3.1,2.4,3.6c0.4,1.2,1.1,1.8,2.3,2
	c0.1,0.5,0.6,1,1.4,1.4c0.5,1.6,1.8,2.3,2.7,1.7c0.1-0.2,0.2-0.4,0.3-0.6c0,0,0.1,0,0.2,0c-0.2,0.2-0.3,0.4-0.5,0.6
	c-0.6,1.9,1.5,3.7,3.6,4.3c0,0.9,0.6,1.6,1.3,2.1c0.6,2.3,2,4.4,4,5.3c3.4,1.6,8.2,0.1,10.1-3.5c0.2-0.1,0.4,0,0.6-0.1
	c0.1,0.1,0.2,0.1,0.3,0.2c1.6,3.2,7.6,4,9.1,0.9c1.4,0.4,3.1,0.1,4.4-0.7c0.9-0.2,1.7-0.8,2.1-1.9c0.8,2.5,4.1,1.3,3.7-1.5
	c0,0,0.1,0,0.1,0c1.4,4.8,6.9,7.2,10.7,5.7C82.8,90.8,85,85.4,82.7,81.5z"></path><path class="st1" d="M92.1,59.8l-2.6-0.5L84.4,58l0,0l-0.2,0c-1.5-0.1-3-0.1-4.5-0.1c-1.4,0.1-2.8,0.1-4.2,0.5c-0.4-0.6-1-0.7-1.5-1
	l-1.7-0.7l-3.3-1.5c-1.2-0.5-2.5-1-3.7-1.5c0.4-1.4,0.5-2.6,0.4-3.7c1.4-0.7,2.7-1.4,4-2.2c0.5-0.3,0.9-0.6,1.4-1
	c0.2,0.2,0.5,0.2,0.8,0.2l1.4,0.2l2.8,0.5l5.7,0.9c1.9,0.3,3.8,0.5,5.7,0.8c1.9,0.2,3.8,0.5,5.7,0.6l0.3-1.5
	c-1.9-0.5-3.7-0.9-5.6-1.4c-1.9-0.4-3.8-0.8-5.6-1.2l-5.7-1.1L74,44.4c0.9-0.9,1.7-1.9,2.4-2.9c0.9-1.3,1.7-2.8,2.3-4.3l9.9-1
	l-0.1-1.5l-8.9-0.1c0.2-0.5,0.3-1,0.4-1.5c0.8-2.9,1-5.9,1.2-8.9l-1.5-0.1c-0.3,2.8-0.7,5.7-1.6,8.4c-0.9,2.7-2.1,5.2-3.8,7.4
	c-1.7,2.2-3.8,3.9-6.2,5.3c-1.4,0.8-3,1.5-4.6,2.1c-0.8-0.4-1.5-0.7-1.8-1c-0.5-0.4-1.2-1-1.9-1.5l-1.1-16.4
	c0.1-0.1,0.2-0.1,0.2-0.2l0.9-0.7l1.8-1.3l3.6-2.6l7.3-5.1l-0.8-1.3L64.2,22l-3.8,2.4l-1.8,1.2L58,14.9L56.4,15l0.1,12.3
	c0,0,0,0,0,0l0,0l0.1,6.1c0,0-0.1-0.1-0.1-0.1c-0.8-0.7-1.6-1.4-2.4-2.1c-0.1-0.1-0.2-0.2-0.3-0.3l-4-14l-1.5,0.4l2.6,11.5
	c-0.7-0.5-1.3-0.9-2-1.4c-1.8-1.2-3.6-2.2-5.5-3.2c-1.9-1-3.8-1.9-5.7-2.7l-0.6,1.4c1.9,0.9,3.7,1.8,5.5,2.9c1.8,1,3.6,2.1,5.3,3.2
	c1.7,1.2,3.4,2.4,5,3.7c0.8,0.7,1.6,1.3,2.3,2.1c0.4,0.4,0.7,0.7,1.1,1.1c0.1,0.1,0.3,0.3,0.4,0.4l0.1,7.8c-1.1,0.5-1.9,1.3-1.9,1.3
	s-0.5,0.4-1.2,1.1l-13.4-6.9c-0.4-0.9-1.1-1.6-1.6-2.4l-2.3-3.3c-1.6-2.2-3.1-4.4-4.8-6.6L30.3,28c1.4,2.3,2.8,4.6,4.3,6.9l2.2,3.4
	c0.4,0.5,0.7,1.1,1.1,1.7c-0.9,0-1.7,0.1-2.6,0.1l-4.6,0.3c-3.1,0.2-6.1,0.5-9.2,0.8l0.1,1.5c3.1,0,6.2,0,9.2-0.1l4.6-0.2
	c1.2-0.1,2.3,0,3.5-0.3l3.5,2.1l-8.6,5.1l-14.2,2.3l0.2,1.5L34.3,51l0.1,0l0.1-0.1l11.2-4.6l5.4,3.3c-0.1,0.2-0.2,0.5-0.2,0.7
	c-0.2,1.4,0.5,2.8,0.8,4.4l-6,4.9l-25.9-1.4l-0.1,1.5l15.3,1.6l-11.9,9.2l0.9,1.3l15.3-10l5.1,0.5l-0.7,5.3
	c-0.2,1.2-0.3,2.5-0.5,3.7l-15.7,5.4l0.4,1.5l14.7-3.9c0,0,0,0.1,0,0.1l-2.6,13.4l1.5,0.3l3.1-13.4c0.6-2.2,0.9-4.5,1.3-6.7l1.1-6.2
	l5.1-3.1c0.2,0.3,0.6,0.4,1.3,0.6c0.7,0.2,1.4,0.3,1.9,0.4l2.7,16l-5.3,15.6l1.5,0.5l5.3-13.4l8.5,12.4l1.3-0.8l-8.9-14.8l-1-15.9
	c0.8-0.2,1.6-0.5,1.6-0.5s1.6-0.8,2.8-2.1c1.4,0.5,2.8,0.9,4.1,1.4l3.5,1.1l1.7,0.5c0.3,0.1,0.5,0.2,0.7,0.2l1,5.1l0.6,2.8l0.3,1.4
	l0.2,0.8c0,0.2,0.1,0.4,0.2,0.6l0.2,0.3c1,1.7,2.1,3.2,3.1,4.8l3.2,4.8l1.3-0.8l-2.9-5c-0.9-1.7-1.9-3.3-2.8-5l-0.1-0.3
	c0,0,0,0,0-0.1L78.2,69l-0.2-1.4l-0.4-2.8L77,60.2c1,0,1.9,0,2.9-0.1c0.8-0.1,1.6-0.2,2.5-0.3l6.2,14.9l1.4-0.5l-4.7-14.4l4,0.9
	l2.6,0.5c0.9,0.2,1.7,0.4,2.8,0.4v-1.5C93.9,60.1,93,59.9,92.1,59.8z"></path><path class="st2" d="M77.3,81.9c-0.1-2-0.8-5.6-1.4-8.2"></path><path class="st2" d="M82.6,79.3c-2.6-1.1-6-3.5-7.7-6.1"></path><path class="st2" d="M83.5,74.1c-3,1.5-5.5,3.1-7.6,0.1"></path><path class="st2" d="M71.4,68.4c-3.2-2.5-6.2-5.7-7.4-8.6"></path><path class="st2" d="M64.9,70.8c0.4-4.2-0.8-10.5-0.9-11.8"></path><path class="st2" d="M70.5,62.9c-2.5,0.8-3.9,2-6.3-2.1"></path><path class="st3" d="M72.9,85.9c-0.3-1.6-1.1-1.9,1.6-4.8c2.7-2.8,2.7-2.8,2.7-2.8s0.5,0.6,1.2,1.3c0.6,0.7,3.3,3,2.1,5.7
	c-1.2,2.7-2.2,4.2-2.6,4.6c-0.4,0.4-1.5,2.1-1.7,2.5"></path><path class="st4" d="M91.7,86.7c-1.9-0.8-4.7,0.9-7.1-0.7c-2.4-1.7-3.7-5.7-4.3-6.9c-0.6-1.2-1.5-0.7,0.7-0.7c2.2,0,2.4-0.8,4.3-0.3
	c1.9,0.5,4.6,3.3,4.8,4.5S91.7,86.7,91.7,86.7z"></path><path class="st5" d="M80.1,75.8c0.6,0,1.2,0.5,4,0.5c2.8,0,5-0.3,5.5-2.4c0.5-2.1-0.2-2.6,1-4s1.2-1.4,1.2-1.4s-2.4-0.1-5.8,0
	c-3.4,0.1-4.9,3.5-5.3,4.9S80.1,75.8,80.1,75.8z"></path><path class="st6" d="M78.6,75.8c0,0-1.3-1.4-3.9-1.4c-2.6,0-5.5-1.3-5.5-4.1c0-2.8-0.9-4.3-0.9-4.3s-0.1,0.4,2.2,0.2
	c2.3-0.2,5.6,1.4,6.5,3.7C77.9,72.1,78.6,75.8,78.6,75.8z"></path><path class="st7" d="M62.7,79.4c0,0,3.4-3.4,4.5-5.7c1-2.3,1.3-3.7,0-5.3c-1.4-1.6-1.8-3-1.8-3s-1.9,2.9-3.2,3.5
	c-1.3,0.7-2.7,3-2,4.4C60.8,74.7,62.7,79.4,62.7,79.4z"></path><path class="st6" d="M68,63.6c0,0,2,0.9,4.5,1.2c2.4,0.3,3.7,0.3,4.7-0.9c1-1.2,1.6-2.5,2.3-3.9c0.7-1.4,0.8-2,1.3-2.1
	c0.6-0.1-0.7,0.5-3.4-0.2c-2.7-0.7-4-1.4-5.1-0.5c-1.1,0.9-1.1,2.5-2,3.8S68,63.6,68,63.6z"></path><path class="st2" d="M32.8,82.3c1.9-0.5,5.2-2.2,7.6-3.4"></path><path class="st2" d="M36.6,86.8c0.4-2.8,1.9-6.7,4-9"></path><path class="st2" d="M41.9,86.4c-2.1-2.6-4.4-4.6-2-7.3"></path><path class="st2" d="M44.5,73.3c1.6-3.7,4-7.4,6.5-9.3"></path><path class="st2" d="M40.6,67.5c4.1-0.7,10-3.3,11.3-3.8"></path><path class="st2" d="M49.6,71.1c-1.4-2.2-2.9-3.3,0.5-6.6"></path><path class="st6" d="M27.9,79.1c1.5-0.6,1.6-1.5,5,0.4c3.4,1.9,3.4,1.9,3.4,1.9s-0.5,0.7-1,1.4c-0.5,0.8-2.1,3.9-5.1,3.4
	s-4.6-1.1-5.1-1.4c-0.5-0.3-2.4-0.9-2.9-1.1"></path><path class="st8" d="M31.8,97.5c0.3-2.1-2.1-4.4-1-7.1s4.7-5,5.7-5.8s0.3-1.6,0.9,0.5c0.6,2.1,1.3,2.1,1.4,4.1c0,2-2.1,5.3-3.2,5.8
	C34.3,95.4,31.8,97.5,31.8,97.5z"></path><path class="st5" d="M39.4,83.6c0.1,0.6-0.2,1.3,0.5,4c0.6,2.7,1.5,4.8,3.7,4.7c2.2,0,2.4-0.8,4.1,0s1.7,0.8,1.7,0.8
	s-0.5-2.4-1.4-5.6s-4.6-3.9-6.1-4C40.4,83.5,39.4,83.6,39.4,83.6z"></path><path class="st9" d="M39,82.1c0,0,1.1-1.6,0.4-4.2c-0.6-2.6-0.1-5.7,2.6-6.4c2.7-0.7,4-1.9,4-1.9s-0.4,0,0.3,2.2
	c0.7,2.2,0,5.7-2,7.2C42.4,80.5,39,82.1,39,82.1z"></path><path class="st7" d="M31.7,67.6c0,0,4.1,2.5,6.6,2.9c2.5,0.4,3.9,0.4,5.2-1.3s2.4-2.5,2.4-2.5s-3.2-1.2-4.2-2.2
	c-1-1.1-3.6-1.8-4.7-0.8C35.8,64.6,31.7,67.6,31.7,67.6z"></path><path class="st10" d="M48.3,68.9c0,0-0.4,2.2-0.1,4.6c0.3,2.4,0.6,3.7,2.1,4.3s2.8,0.9,4.3,1.3c1.5,0.3,2.1,0.3,2.4,0.8
	s-0.7-0.6-0.7-3.3c0-2.8,0.4-4.2-0.7-5c-1.1-0.9-2.7-0.4-4.2-1S48.3,68.9,48.3,68.9z"></path><path class="st2" d="M22.3,41.4c0.6,1.9,2.4,5.1,3.7,7.4"></path><path class="st2" d="M18,45.4c2.8,0.2,6.8,1.5,9.2,3.5"></path><path class="st2" d="M18.7,50.7c2.5-2.3,4.3-4.6,7.2-2.3"></path><path class="st2" d="M31.9,52.6c3.8,1.4,7.6,3.7,9.6,6.1"></path><path class="st2" d="M37.5,48.4c0.9,4.1,3.8,9.8,4.4,11.1"></path><path class="st2" d="M34.4,57.6c2.1-1.5,3.1-3,6.6,0.2"></path><path class="st3" d="M25.3,36.3c0.7,1.5,1.6,1.5-0.1,5c-1.7,3.5-1.7,3.5-1.7,3.5s-0.7-0.4-1.5-0.9c-0.8-0.5-4-1.9-3.7-4.9
	s0.9-4.7,1.1-5.2c0.3-0.5,0.8-2.5,0.9-2.9"></path><path class="st4" d="M7.1,41.1c2.1,0.2,4.3-2.3,7-1.4c2.7,0.9,5.2,4.4,6.1,5.4c0.9,1,1.7,0.2-0.5,0.9s-2,1.5-4,1.6s-5.4-1.8-5.9-2.9
	C9.3,43.5,7.1,41.1,7.1,41.1z"></path><path class="st6" d="M21.4,48.1c-0.6,0.2-1.3-0.1-4,0.7s-4.7,1.7-4.6,3.9c0.2,2.2,0.9,2.4,0.2,4.1c-0.7,1.7-0.7,1.7-0.7,1.7
	s2.3-0.6,5.5-1.7c3.2-1.1,3.7-4.8,3.7-6.3C21.5,49,21.4,48.1,21.4,48.1z"></path><path class="st9" d="M22.9,47.6c0,0,1.7,1,4.2,0.2s5.7-0.4,6.5,2.3c0.8,2.7,2.1,3.9,2.1,3.9s-0.1-0.4-2.2,0.5
	c-2.1,0.8-5.7,0.3-7.3-1.6C24.6,50.9,22.9,47.6,22.9,47.6z"></path><path class="st7" d="M37,39.5c0,0-2.3,4.3-2.6,6.8c-0.3,2.5-0.2,3.9,1.6,5.1c1.8,1.2,2.6,2.3,2.6,2.3s1-3.3,2-4.3
	c1-1,1.7-3.7,0.6-4.8C40.2,43.5,37,39.5,37,39.5z"></path><path class="st10" d="M36.5,56.2c0,0-2.2-0.3-4.6,0.2s-3.7,0.8-4.2,2.3c-0.6,1.4-0.8,2.8-1,4.4c-0.2,1.5-0.1,2.1-0.6,2.4
	c-0.5,0.3,0.5-0.7,3.3-0.8s4.2,0.2,5-1s0.3-2.7,0.8-4.2C35.6,57.9,36.5,56.2,36.5,56.2z"></path><path class="st2" d="M53.8,89.6c1.1-1.7,2.4-5.1,3.4-7.6"></path><path class="st2" d="M59.7,90.3c-1.6-2.4-3.1-6.2-3.1-9.3"></path><path class="st2" d="M63.3,86.5c-3.3-0.5-6.3-0.4-6.4-4.1"></path><path class="st2" d="M56.4,75c-1.3-3.8-2-8.2-1.4-11.3"></path><path class="st2" d="M49.7,73.4c2.6-3.3,5.2-9.2,5.8-10.4"></path><path class="st2" d="M58.7,69.9c-2.5-0.7-4.3-0.5-4.1-5.3"></path><path class="st3" d="M48,90.4c0.7-1.5,0.2-2.2,4-3.1s3.8-0.9,3.8-0.9s0.1,0.8,0.2,1.7c0.1,0.9,1,4.3-1.5,5.9s-4.2,2.3-4.7,2.4
	c-0.6,0.1-2.4,1-2.9,1.2"></path><path class="st6" d="M63.2,101.5c-1.2-1.8-4.5-1.8-5.5-4.5s0.1-6.8,0.3-8.1c0.2-1.3-0.9-1.4,1-0.2s2.4,0.6,3.8,2.1
	c1.4,1.5,2,5.3,1.5,6.4C63.7,98.3,63.2,101.5,63.2,101.5z"></path><path class="st6" d="M59.6,86c0.5,0.3,0.8,1.1,3.1,2.7s4.3,2.6,5.9,1c1.6-1.5,1.3-2.2,3-2.8c1.8-0.5,1.8-0.5,1.8-0.5s-2-1.4-4.8-3.2
	s-6,0.2-7.2,1.1C60.2,85.4,59.6,86,59.6,86z"></path><path class="st6" d="M58.3,85.2c0,0-0.3-1.9-2.5-3.4c-2.2-1.5-3.9-4.2-2.3-6.5c1.5-2.3,1.7-4.1,1.7-4.1s-0.3,0.3,1.8,1.4
	c2,1.1,3.9,4.3,3.4,6.7C59.7,81.7,58.3,85.2,58.3,85.2z"></path><path class="st7" d="M43.1,79.4c0,0,4.7-1,6.9-2.3c2.1-1.3,3.2-2.3,2.9-4.5s0.1-3.5,0.1-3.5s-3.2,1.3-4.6,1.2
	c-1.4-0.1-3.9,1-4.1,2.6C44.1,74.4,43.1,79.4,43.1,79.4z"></path><path class="st6" d="M56.2,69.2c0,0,1.2,1.9,3.1,3.5c1.9,1.6,3,2.3,4.4,1.8c1.5-0.5,2.7-1.2,4.1-2s1.7-1.2,2.3-1
	c0.5,0.2-0.9,0-2.7-2c-1.9-2-2.5-3.4-3.9-3.2s-2.3,1.5-3.7,2.1S56.2,69.2,56.2,69.2z"></path><path class="st2" d="M70.8,22.1c-2,0.3-5.4,1.6-7.9,2.5"></path><path class="st2" d="M67.5,17.2c-0.7,2.8-2.6,6.5-4.9,8.5"></path><path class="st2" d="M62.2,17.1c1.9,2.8,3.9,5,1.2,7.5"></path><path class="st2" d="M58.2,29.9c-2,3.5-4.8,7-7.5,8.5"></path><path class="st2" d="M61.5,36c-4.2,0.2-10.3,2.2-11.6,2.6"></path><path class="st2" d="M52.9,31.5c1.1,2.3,2.5,3.5-1.2,6.5"></path><path class="st3" d="M75.3,25.8c-1.5,0.5-1.8,1.3-4.9-0.9c-3.2-2.2-3.2-2.2-3.2-2.2s0.5-0.6,1.1-1.3c0.6-0.7,2.5-3.6,5.4-2.9
	c2.9,0.8,4.5,1.6,4.9,1.9c0.5,0.3,2.3,1.1,2.8,1.4"></path><path class="st8" d="M73.4,7.1c-0.5,2,1.6,4.6,0.3,7.1s-5.2,4.5-6.3,5.2c-1.1,0.7-0.4,1.6-0.8-0.6s-1.1-2.2-0.9-4.2s2.7-5,3.8-5.4
	S73.4,7.1,73.4,7.1z"></path><path class="st4" d="M64.3,20.2c-0.1-0.6,0.3-1.3-0.1-4.1c-0.4-2.8-1-4.9-3.1-5.1c-2.2-0.2-2.5,0.6-4.1-0.4c-1.6-1-1.6-1-1.6-1
	s0.3,2.4,0.8,5.7c0.6,3.3,4.2,4.4,5.6,4.6C63.4,20.1,64.3,20.2,64.3,20.2z"></path><path class="st6" d="M64.6,21.7c0,0-1.2,1.5-0.9,4.1c0.4,2.6-0.5,5.7-3.3,6.1c-2.8,0.4-4.2,1.5-4.2,1.5s0.4,0-0.1-2.3s0.6-5.7,2.7-7
	C61,22.9,64.6,21.7,64.6,21.7z"></path><path class="st7" d="M70.3,36.9c0,0-3.9-2.9-6.3-3.6c-2.4-0.7-3.8-0.8-5.3,0.8c-1.4,1.6-2.7,2.2-2.7,2.2s3.1,1.5,3.9,2.6
	c0.8,1.2,3.4,2.2,4.6,1.3C65.9,39.5,70.3,36.9,70.3,36.9z"></path><path class="st10" d="M54,33.9c0,0,0.6-2.1,0.5-4.6s-0.3-3.7-1.6-4.5s-2.7-1.2-4.2-1.7c-1.5-0.5-2.1-0.5-2.3-1s0.6,0.6,0.3,3.4
	c-0.3,2.7-0.8,4.1,0.2,5.1s2.6,0.7,4,1.4S54,33.9,54,33.9z"></path><path class="st2" d="M31.9,23.4c-0.2,2,0.2,5.7,0.4,8.3"></path><path class="st2" d="M26.3,25.3c2.5,1.4,5.6,4.1,7,6.9"></path><path class="st2" d="M24.8,30.4c3.2-1.1,5.8-2.5,7.5,0.8"></path><path class="st2" d="M36.1,37.5c2.9,2.8,5.5,6.4,6.3,9.4"></path><path class="st2" d="M42.9,35.9c-0.9,4.1-0.5,10.6-0.5,11.9"></path><path class="st2" d="M36.4,43.1c2.5-0.5,4.1-1.5,6,2.9"></path><path class="st3" d="M36.6,20c0.1,1.6,0.8,2-2.1,4.5s-3,2.5-3,2.5s-0.5-0.7-1-1.4c-0.5-0.8-2.9-3.4-1.4-5.9c1.5-2.6,2.7-3.9,3.1-4.3
	c0.5-0.4,1.7-1.9,2-2.3"></path><path class="st6" d="M18.1,17c1.8,1,4.8-0.4,7,1.5s3,6.1,3.4,7.4s1.4,0.8-0.8,0.6c-2.2-0.2-2.4,0.5-4.3-0.2
	c-1.9-0.7-4.2-3.9-4.2-5.1C19.1,20.1,18.1,17,18.1,17z"></path><path class="st4" d="M28.4,29.1c-0.6-0.1-1.2-0.6-3.9-1s-5-0.3-5.7,1.7s-0.1,2.6-1.5,3.8s-1.4,1.3-1.4,1.3s2.4,0.4,5.7,0.7
	s5.3-2.9,5.9-4.3C28,30,28.4,29.1,28.4,29.1z"></path><path class="st9" d="M29.9,29.3c0,0,1.1,1.6,3.7,1.9c2.6,0.3,5.4,2,5,4.7s0.4,4.4,0.4,4.4s0.1-0.4-2.2-0.5c-2.3-0.1-5.4-2-6-4.4
	C30.1,33,29.9,29.3,29.9,29.3z"></path><path class="st7" d="M46.1,27.6c0,0-3.8,3-5.1,5.2c-1.3,2.2-1.8,3.5-0.6,5.3s1.5,3.2,1.5,3.2s2.2-2.6,3.6-3.1c1.3-0.5,3-2.7,2.5-4.1
	C47.4,32.5,46.1,27.6,46.1,27.6z"></path><path class="st6" d="M38.9,42.6c0,0-1.9-1.1-4.3-1.7c-2.4-0.6-3.7-0.7-4.8,0.4c-1.1,1.1-1.9,2.3-2.7,3.6c-0.8,1.3-1,1.9-1.6,1.9
	s0.8-0.4,3.3,0.6s3.8,1.9,5,1.1s1.4-2.3,2.4-3.5C37.4,43.8,38.9,42.6,38.9,42.6z"></path><path class="st2" d="M52.5,18.3c-1.4,1.4-3.5,4.4-5,6.6"></path><path class="st2" d="M47,16.1c1,2.7,1.6,6.8,0.9,9.8"></path><path class="st2" d="M42.5,19c3.1,1.2,6,1.9,5.3,5.5"></path><path class="st2" d="M46.6,31.8c0.4,4,0,8.5-1.3,11.3"></path><path class="st2" d="M52.8,34.9c-3.3,2.6-7.2,7.8-8,8.8"></path><path class="st2" d="M43.2,36.2c2.3,1.3,4.1,1.5,2.7,6.1"></path><path class="st3" d="M58.3,18.7c-1,1.3-0.7,2.1-4.6,2.1c-3.9,0-3.9,0-3.9,0s0.1-0.8,0.2-1.7c0.1-0.9,0-4.4,2.8-5.4s4.6-1.2,5.2-1.2
	c0.6,0,2.5-0.4,3.1-0.5"></path><path class="st6" d="M46.1,4.5c0.7,2,3.9,2.8,4.3,5.7c0.4,2.9-1.7,6.6-2.1,7.8c-0.5,1.2,0.6,1.6-1,0s-2.2-1.2-3.2-2.9
	c-1-1.7-0.7-5.7,0.1-6.6C44.9,7.5,46.1,4.5,46.1,4.5z"></path><path class="st4" d="M46.1,20.4c-0.4-0.4-0.5-1.2-2.4-3.3s-3.6-3.5-5.5-2.4c-1.9,1.1-1.7,1.9-3.6,2c-1.8,0.1-1.8,0.1-1.8,0.1
	s1.6,1.8,3.9,4.2s5.9,1.2,7.2,0.5C45.3,20.8,46.1,20.4,46.1,20.4z"></path><path class="st6" d="M47.1,21.4c0,0-0.2,1.9,1.6,3.9c1.8,1.9,2.8,5,0.8,6.9S47,35.8,47,35.8s0.3-0.2-1.4-1.8c-1.7-1.6-2.8-5-1.7-7.3
	S47.1,21.4,47.1,21.4z"></path><path class="st7" d="M60.6,30.6c0,0-4.8-0.2-7.2,0.7c-2.4,0.8-3.6,1.5-3.9,3.7c-0.3,2.1-0.9,3.4-0.9,3.4s3.4-0.5,4.7-0.1
	c1.3,0.5,4-0.1,4.6-1.6C58.4,35.2,60.6,30.6,60.6,30.6z"></path><path class="st6" d="M45.4,37.5c0,0-0.7-2.1-2.2-4.1c-1.4-2-2.3-2.9-3.9-2.8c-1.5,0.1-2.9,0.5-4.4,1c-1.5,0.5-2,0.8-2.4,0.5
	c-0.5-0.3,0.8,0.2,2.2,2.6s1.7,3.8,3.1,4.1s2.6-0.9,4.1-1.1C43.4,37.4,45.4,37.5,45.4,37.5z"></path><path class="st2" d="M22.3,63.8c1.9,0.7,5.5,1.4,8,1.9"></path><path class="st2" d="M22.6,69.7c2-2,5.6-4.2,8.6-4.7"></path><path class="st2" d="M27,72.6c-0.1-3.3-0.7-6.3,2.9-7"></path><path class="st2" d="M37,63.7c3.5-2,7.7-3.4,10.8-3.4"></path><path class="st2" d="M37.4,56.8c3.7,2,10,3.5,11.2,3.8"></path><path class="st2" d="M42.5,65.1c0.3-2.6-0.3-4.3,4.4-4.9"></path><path class="st6" d="M20.4,58.2c1.6,0.4,2.2-0.2,3.7,3.3c1.5,3.6,1.5,3.6,1.5,3.6s-0.8,0.2-1.7,0.5s-4.1,1.8-6.1-0.4
	c-2-2.2-3-3.7-3.2-4.2c-0.2-0.5-1.4-2.2-1.6-2.6"></path><path class="st6" d="M12.2,75.2c1.5-1.5,1-4.7,3.5-6.2s6.7-1.1,8-1.2c1.3,0,1.2-1.1,0.4,0.9c-0.8,2.1-0.2,2.5-1.4,4.1
	c-1.2,1.6-4.9,2.9-6.1,2.6S12.2,75.2,12.2,75.2z"></path><path class="st4" d="M26.8,68.8c-0.2,0.5-0.9,0.9-2.1,3.5s-1.7,4.7,0,6c1.8,1.3,2.4,0.8,3.3,2.5c0.8,1.7,0.8,1.7,0.8,1.7
	s1-2.2,2.3-5.3c1.2-3.1-1.3-5.9-2.4-6.9S26.8,68.8,26.8,68.8z"></path><path class="st9" d="M27.4,67.4c0,0,1.8-0.6,2.9-3c1.1-2.4,3.4-4.6,6-3.5c2.6,1.1,4.4,0.9,4.4,0.9s-0.3-0.2-1.1,2
	c-0.7,2.2-3.5,4.6-6,4.5S27.4,67.4,27.4,67.4z"></path><path class="st7" d="M30.4,51.4c0,0,1.8,4.5,3.5,6.4c1.7,1.9,2.9,2.7,4.9,2.1c2-0.6,3.5-0.5,3.5-0.5s-1.9-2.9-2-4.3
	c-0.1-1.4-1.7-3.6-3.3-3.6C35.4,51.5,30.4,51.4,30.4,51.4z"></path><path class="st10" d="M42.7,62.5c0,0-1.6,1.5-2.8,3.6c-1.2,2.1-1.7,3.3-1,4.7c0.7,1.4,1.7,2.5,2.7,3.6c1,1.2,1.5,1.5,1.4,2
	c-0.1,0.6-0.2-0.8,1.5-3c1.7-2.2,2.8-3.1,2.5-4.5c-0.4-1.4-1.9-2-2.7-3.3C43.4,64.3,42.7,62.5,42.7,62.5z"></path><path class="st2" d="M85.9,36.5c-1.9-0.5-5.6-0.7-8.2-0.8"></path><path class="st2" d="M84.9,30.7c-1.7,2.3-5,4.9-7.9,5.8"></path><path class="st2" d="M80.1,28.4c0.6,3.3,1.5,6.1-1.9,7.3"></path><path class="st2" d="M71.3,38.5c-3.2,2.4-7.2,4.5-10.3,4.8"></path><path class="st2" d="M71.8,45.5c-3.9-1.5-10.4-2.1-11.7-2.3"></path><path class="st2" d="M65.7,37.9c0.1,2.6,0.9,4.3-3.7,5.5"></path><path class="st6" d="M88.6,41.7c-1.6-0.2-2.1,0.5-4.2-2.8c-2-3.3-2-3.3-2-3.3s0.7-0.3,1.6-0.8s3.8-2.3,6.1-0.5
	c2.3,1.9,3.4,3.3,3.8,3.8c0.3,0.5,1.7,2,2,2.4"></path><path class="st8" d="M94.4,23.8c-1.3,1.7-0.4,4.8-2.6,6.6c-2.2,1.8-6.5,2-7.8,2.3c-1.3,0.2-1.1,1.3-0.5-0.9c0.6-2.2-0.1-2.5,0.8-4.2
	c1-1.7,4.5-3.5,5.7-3.4C91.1,24.4,94.4,23.8,94.4,23.8z"></path><path class="st4" d="M80.8,32.1c0.2-0.6,0.8-1.1,1.6-3.7s1.1-4.9-0.8-5.9c-1.9-1-2.5-0.5-3.6-2c-1-1.5-1-1.5-1-1.5s-0.7,2.3-1.5,5.6
	c-0.8,3.3,2,5.7,3.3,6.5C80,31.7,80.8,32.1,80.8,32.1z"></path><path class="st9" d="M80.4,33.6c0,0-1.7,0.9-2.4,3.4s-2.8,5-5.5,4.2s-4.4-0.3-4.4-0.3s0.4,0.2,0.8-2.1c0.4-2.3,2.8-5,5.3-5.3
	C76.7,33.3,80.4,33.6,80.4,33.6z"></path><path class="st7" d="M79.6,49.9c0,0-2.4-4.2-4.3-5.8c-1.9-1.6-3.2-2.3-5.1-1.4s-3.3,1-3.3,1s2.2,2.6,2.5,4c0.3,1.4,2.2,3.4,3.7,3.1
	C74.5,50.4,79.6,49.9,79.6,49.9z"></path><path class="st6" d="M65.8,40.5c0,0,1.4-1.7,2.3-4c0.9-2.3,1.3-3.5,0.4-4.8c-0.9-1.2-2-2.2-3.1-3.2c-1.2-1-1.7-1.3-1.7-1.8
	c0-0.6,0.3,0.8-1.1,3.2c-1.4,2.4-2.4,3.4-1.9,4.7c0.5,1.3,2.1,1.7,3.1,2.9C64.9,38.8,65.8,40.5,65.8,40.5z"></path><path class="st2" d="M87.3,57.1c-1.3-1.5-4.2-3.7-6.3-5.3"></path><path class="st2" d="M89.7,51.7c-2.7,0.9-6.9,1.2-9.8,0.3"></path><path class="st2" d="M87,47.1c-1.4,3.1-2.2,5.9-5.7,5"></path><path class="st2" d="M74.1,50.5c-4,0.2-8.5-0.4-11.2-1.8"></path><path class="st2" d="M70.6,56.5c-2.4-3.4-7.4-7.6-8.3-8.5"></path><path class="st2" d="M69.8,46.9c-1.4,2.2-1.7,4-6.2,2.4"></path><path class="st3" d="M86.5,62.9c-1.2-1.1-2.1-0.8-1.8-4.7s0.2-3.9,0.2-3.9s0.8,0.1,1.7,0.3c0.9,0.1,4.4,0.2,5.3,3.1
	c0.8,2.8,1,4.6,1,5.2c0,0.6,0.3,2.6,0.3,3.1"></path><path class="st6" d="M101.4,51.4c-2,0.6-3,3.8-5.9,4c-2.9,0.3-6.5-2-7.7-2.6c-1.2-0.5-1.6,0.5,0.1-1c1.7-1.5,1.3-2.1,3.1-3
	s5.7-0.4,6.6,0.4S101.4,51.4,101.4,51.4z"></path><path class="st6" d="M85.5,50.6c0.4-0.4,1.2-0.4,3.4-2.2c2.2-1.8,3.7-3.4,2.7-5.4c-1-2-1.8-1.8-1.8-3.7c0-1.8,0-1.8,0-1.8
	s-1.9,1.5-4.4,3.7c-2.5,2.2-1.5,5.8-0.9,7.2C85.1,49.8,85.5,50.6,85.5,50.6z"></path><path class="st6" d="M84.4,51.6c0,0-1.9-0.3-3.9,1.4c-2,1.7-5.1,2.6-6.9,0.4c-1.8-2.1-3.5-2.7-3.5-2.7s0.2,0.3,1.9-1.3
	c1.6-1.6,5.2-2.5,7.3-1.4C81.4,49.2,84.4,51.6,84.4,51.6z"></path><path class="st7" d="M74.5,64.5c0,0,0.4-4.8-0.3-7.2s-1.4-3.7-3.4-4.1c-2.1-0.4-3.3-1.1-3.3-1.1s0.4,3.4-0.2,4.7s-0.1,4,1.3,4.6
	C70,62.2,74.5,64.5,74.5,64.5z"></path><path class="st6" d="M68.4,49c0,0,2.1-0.6,4.2-2c2-1.3,3-2.2,3-3.7s-0.4-2.9-0.8-4.4s-0.7-2-0.3-2.5c0.3-0.5-0.2,0.8-2.7,2
	c-2.5,1.2-3.9,1.5-4.2,2.9c-0.3,1.4,0.8,2.6,0.9,4.2C68.6,47.1,68.4,49,68.4,49z"></path><path class="st11" d="M53.9,61.2c-0.1-2-0.8-5.6-1.4-8.2"></path><path class="st11" d="M59.2,58.6c-2.6-1.1-6-3.5-7.7-6.1"></path><path class="st11" d="M60.2,53.4c-3,1.5-5.5,3.1-7.6,0.1"></path><path class="st11" d="M48,47.7c-3.2-2.5-6.2-5.7-7.4-8.6"></path><path class="st11" d="M41.5,50.1c0.4-4.2-0.8-10.5-0.9-11.8"></path><path class="st11" d="M47.1,42.2c-2.5,0.8-3.9,2-6.3-2.1"></path><path class="st6" d="M49.6,65.2c-0.3-1.6-1.1-1.9,1.6-4.8s2.7-2.8,2.7-2.8s0.5,0.6,1.2,1.3s3.3,3,2.1,5.7c-1.2,2.7-2.2,4.2-2.6,4.6
	c-0.4,0.4-1.5,2.1-1.7,2.5"></path><path class="st11" d="M68.4,66c-1.9-0.8-4.7,0.9-7.1-0.7c-2.4-1.7-3.7-5.7-4.3-6.9c-0.6-1.2-1.5-0.7,0.7-0.7s2.4-0.8,4.3-0.3
	c1.9,0.5,4.6,3.3,4.8,4.5C67,63,68.4,66,68.4,66z"></path><path class="st11" d="M56.8,55.1c0.6,0,1.2,0.5,4,0.5c2.8,0,5-0.3,5.5-2.4c0.5-2.1-0.2-2.6,1-4s1.2-1.4,1.2-1.4s-2.4-0.1-5.8,0
	c-3.4,0.1-4.9,3.5-5.3,4.9C57,54.2,56.8,55.1,56.8,55.1z"></path><path class="st11" d="M55.2,55.1c0,0-1.3-1.4-3.9-1.4c-2.6,0-5.5-1.3-5.5-4.1c0-2.8-0.9-4.3-0.9-4.3s-0.1,0.4,2.2,0.2
	c2.3-0.2,5.6,1.4,6.5,3.7S55.2,55.1,55.2,55.1z"></path><path class="st11" d="M39.3,58.7c0,0,3.4-3.4,4.5-5.7c1-2.3,1.3-3.7,0-5.3c-1.4-1.6-1.8-3-1.8-3s-1.9,2.9-3.2,3.5
	c-1.3,0.7-2.7,3-2,4.4C37.4,54,39.3,58.7,39.3,58.7z"></path><path class="st11" d="M44.7,42.9c0,0,2,0.9,4.5,1.2c2.4,0.3,3.7,0.3,4.7-0.9c1-1.2,1.6-2.5,2.3-3.9s0.8-2,1.3-2.1s-0.7,0.5-3.4-0.2
	c-2.7-0.7-4-1.4-5.1-0.5s-1.1,2.5-2,3.8C46.1,41.6,44.7,42.9,44.7,42.9z"></path><path class="st12" d="M26.9,79.1c0-0.9,0.3-1.7,0.7-2.4c-0.9,0.8-1.5,1.9-1.5,3.2c0,2.4,1.9,4.3,4.3,4.3c1.5,0,2.8-0.8,3.6-2
	c-0.8,0.7-1.8,1.1-2.9,1.1C28.8,83.4,26.9,81.5,26.9,79.1z"></path><path class="st13" d="M30.5,75.6c-1.1,0-2.1,0.4-2.9,1.1c-0.5,0.7-0.7,1.5-0.7,2.4c0,2.4,1.9,4.3,4.3,4.3c1.1,0,2.1-0.4,2.9-1.1
	c0.5-0.7,0.7-1.5,0.7-2.4C34.8,77.5,32.8,75.6,30.5,75.6z"></path><ellipse transform="matrix(0.5475 -0.8368 0.8368 0.5475 -51.1209 61.8496)" class="st14" cx="31.6" cy="78.2" rx="1" ry="1.3"></ellipse><path class="st12" d="M23.6,71.5c0-0.9,0.3-1.7,0.7-2.4c-0.9,0.8-1.5,1.9-1.5,3.2c0,2.4,1.9,4.3,4.3,4.3c1.5,0,2.8-0.8,3.6-2
	c-0.8,0.7-1.8,1.1-2.9,1.1C25.5,75.9,23.6,73.9,23.6,71.5z"></path><path class="st13" d="M27.2,68.1c-1.1,0-2.1,0.4-2.9,1.1c-0.5,0.7-0.7,1.5-0.7,2.4c0,2.4,1.9,4.3,4.3,4.3c1.1,0,2.1-0.4,2.9-1.1
	c0.5-0.7,0.7-1.5,0.7-2.4C31.5,70,29.6,68.1,27.2,68.1z"></path><ellipse transform="matrix(0.5475 -0.8368 0.8368 0.5475 -46.2863 55.6962)" class="st14" cx="28.4" cy="70.6" rx="1" ry="1.3"></ellipse><path class="st12" d="M33,72.1c0-0.9,0.3-1.7,0.7-2.4c-0.9,0.8-1.5,1.9-1.5,3.2c0,2.4,1.9,4.3,4.3,4.3c1.5,0,2.8-0.8,3.6-2
	c-0.8,0.7-1.8,1.1-2.9,1.1C34.9,76.4,33,74.5,33,72.1z"></path><path class="st13" d="M36.5,68.6c-1.1,0-2.1,0.4-2.9,1.1c-0.5,0.7-0.7,1.5-0.7,2.4c0,2.4,1.9,4.3,4.3,4.3c1.1,0,2.1-0.4,2.9-1.1
	c0.5-0.7,0.7-1.5,0.7-2.4C40.9,70.6,38.9,68.6,36.5,68.6z"></path><ellipse transform="matrix(0.5475 -0.8368 0.8368 0.5475 -42.5157 63.7857)" class="st14" cx="37.7" cy="71.2" rx="1" ry="1.3"></ellipse><path class="st12" d="M17.9,54c0-0.9,0.3-1.7,0.7-2.4c-0.9,0.8-1.5,1.9-1.5,3.2c0,2.4,1.9,4.3,4.3,4.3c1.5,0,2.8-0.8,3.6-2
	c-0.8,0.7-1.8,1.1-2.9,1.1C19.9,58.3,17.9,56.4,17.9,54z"></path><path class="st13" d="M21.5,50.5c-1.1,0-2.1,0.4-2.9,1.1c-0.5,0.7-0.7,1.5-0.7,2.4c0,2.4,1.9,4.3,4.3,4.3c1.1,0,2.1-0.4,2.9-1.1
	c0.5-0.7,0.7-1.5,0.7-2.4C25.8,52.4,23.9,50.5,21.5,50.5z"></path><ellipse transform="matrix(0.5475 -0.8368 0.8368 0.5475 -34.1695 43.0091)" class="st14" cx="22.7" cy="53.1" rx="1" ry="1.3"></ellipse><path class="st12" d="M26.5,50.5c0-0.9,0.3-1.7,0.7-2.4c-0.9,0.8-1.5,1.9-1.5,3.2c0,2.4,1.9,4.3,4.3,4.3c1.5,0,2.8-0.8,3.6-2
	c-0.8,0.7-1.8,1.1-2.9,1.1C28.4,54.9,26.5,52.9,26.5,50.5z"></path><path class="st13" d="M30.1,47c-1.1,0-2.1,0.4-2.9,1.1c-0.5,0.7-0.7,1.5-0.7,2.4c0,2.4,1.9,4.3,4.3,4.3c1.1,0,2.1-0.4,2.9-1.1
	c0.5-0.7,0.7-1.5,0.7-2.4C34.4,49,32.5,47,30.1,47z"></path><ellipse transform="matrix(0.5475 -0.8368 0.8368 0.5475 -27.3784 48.6241)" class="st14" cx="31.3" cy="49.6" rx="1" ry="1.3"></ellipse><path class="st12" d="M13.3,35.2c0-0.9,0.3-1.7,0.7-2.4c-0.9,0.8-1.5,1.9-1.5,3.2c0,2.4,1.9,4.3,4.3,4.3c1.5,0,2.8-0.8,3.6-2
	c-0.8,0.7-1.8,1.1-2.9,1.1C15.3,39.6,13.3,37.6,13.3,35.2z"></path><path class="st13" d="M16.9,31.7c-1.1,0-2.1,0.4-2.9,1.1c-0.5,0.7-0.7,1.5-0.7,2.4c0,2.4,1.9,4.3,4.3,4.3c1.1,0,2.1-0.4,2.9-1.1
	c0.5-0.7,0.7-1.5,0.7-2.4C21.2,33.7,19.3,31.7,16.9,31.7z"></path><ellipse transform="matrix(0.5475 -0.8368 0.8368 0.5475 -20.5334 30.6717)" class="st14" cx="18.1" cy="34.3" rx="1" ry="1.3"></ellipse><path class="st12" d="M21.5,31.2c0-0.9,0.3-1.7,0.7-2.4c-0.9,0.8-1.5,1.9-1.5,3.2c0,2.4,1.9,4.3,4.3,4.3c1.5,0,2.8-0.8,3.6-2
	c-0.8,0.7-1.8,1.1-2.9,1.1C23.5,35.6,21.5,33.6,21.5,31.2z"></path><path class="st13" d="M25.1,27.7c-1.1,0-2.1,0.4-2.9,1.1c-0.5,0.7-0.7,1.5-0.7,2.4c0,2.4,1.9,4.3,4.3,4.3c1.1,0,2.1-0.4,2.9-1.1
	c0.5-0.7,0.7-1.5,0.7-2.4C29.5,29.7,27.5,27.7,25.1,27.7z"></path><ellipse transform="matrix(0.5475 -0.8368 0.8368 0.5475 -13.4752 35.7287)" class="st14" cx="26.3" cy="30.3" rx="1" ry="1.3"></ellipse><path class="st12" d="M45.8,51.5c0-0.9,0.3-1.7,0.7-2.4C45.6,49.9,45,51,45,52.3c0,2.4,1.9,4.3,4.3,4.3c1.5,0,2.8-0.8,3.6-2
	c-0.8,0.7-1.8,1.1-2.9,1.1C47.7,55.8,45.8,53.9,45.8,51.5z"></path><path class="st13" d="M49.3,48c-1.1,0-2.1,0.4-2.9,1.1c-0.5,0.7-0.7,1.5-0.7,2.4c0,2.4,1.9,4.3,4.3,4.3c1.1,0,2.1-0.4,2.9-1.1
	c0.5-0.7,0.7-1.5,0.7-2.4C53.7,49.9,51.7,48,49.3,48z"></path><ellipse transform="matrix(0.5475 -0.8368 0.8368 0.5475 -19.4537 65.16)" class="st14" cx="50.5" cy="50.6" rx="1" ry="1.3"></ellipse><path class="st12" d="M51,42.1c0-0.9,0.3-1.7,0.7-2.4c-0.9,0.8-1.5,1.9-1.5,3.2c0,2.4,1.9,4.3,4.3,4.3c1.5,0,2.8-0.8,3.6-2
	c-0.8,0.7-1.8,1.1-2.9,1.1C53,46.4,51,44.5,51,42.1z"></path><path class="st13" d="M54.6,38.6c-1.1,0-2.1,0.4-2.9,1.1c-0.5,0.7-0.7,1.5-0.7,2.4c0,2.4,1.9,4.3,4.3,4.3c1.1,0,2.1-0.4,2.9-1.1
	c0.5-0.7,0.7-1.5,0.7-2.4C59,40.5,57,38.6,54.6,38.6z"></path><ellipse transform="matrix(0.5475 -0.8368 0.8368 0.5475 -9.226 65.3451)" class="st14" cx="55.8" cy="41.2" rx="1" ry="1.3"></ellipse><path class="st12" d="M46.6,87.5c0-0.9,0.3-1.7,0.7-2.4c-0.9,0.8-1.5,1.9-1.5,3.2c0,2.4,1.9,4.3,4.3,4.3c1.5,0,2.8-0.8,3.6-2
	c-0.8,0.7-1.8,1.1-2.9,1.1C48.5,91.9,46.6,89.9,46.6,87.5z"></path><path class="st13" d="M50.2,84c-1.1,0-2.1,0.4-2.9,1.1c-0.5,0.7-0.7,1.5-0.7,2.4c0,2.4,1.9,4.3,4.3,4.3c1.1,0,2.1-0.4,2.9-1.1
	c0.5-0.7,0.7-1.5,0.7-2.4C54.5,86,52.5,84,50.2,84z"></path><ellipse transform="matrix(0.5475 -0.8368 0.8368 0.5475 -49.2577 82.1442)" class="st14" cx="51.3" cy="86.6" rx="1" ry="1.3"></ellipse><path class="st12" d="M54.7,81.3c0-0.9,0.3-1.7,0.7-2.4c-0.9,0.8-1.5,1.9-1.5,3.2c0,2.4,1.9,4.3,4.3,4.3c1.5,0,2.8-0.8,3.6-2
	c-0.8,0.7-1.8,1.1-2.9,1.1C56.6,85.6,54.7,83.7,54.7,81.3z"></path><path class="st13" d="M58.2,77.8c-1.1,0-2.1,0.4-2.9,1.1c-0.5,0.7-0.7,1.5-0.7,2.4c0,2.4,1.9,4.3,4.3,4.3c1.1,0,2.1-0.4,2.9-1.1
	c0.5-0.7,0.7-1.5,0.7-2.4C62.6,79.7,60.6,77.8,58.2,77.8z"></path><ellipse transform="matrix(0.5475 -0.8368 0.8368 0.5475 -40.3563 86.0874)" class="st14" cx="59.4" cy="80.4" rx="1" ry="1.3"></ellipse><path class="st12" d="M52,68.6c0-0.9,0.3-1.7,0.7-2.4c-0.9,0.8-1.5,1.9-1.5,3.2c0,2.4,1.9,4.3,4.3,4.3c1.5,0,2.8-0.8,3.6-2
	c-0.8,0.7-1.8,1.1-2.9,1.1C54,72.9,52,71,52,68.6z"></path><path class="st13" d="M55.6,65.1c-1.1,0-2.1,0.4-2.9,1.1c-0.5,0.7-0.7,1.5-0.7,2.4c0,2.4,1.9,4.3,4.3,4.3c1.1,0,2.1-0.4,2.9-1.1
	c0.5-0.7,0.7-1.5,0.7-2.4C60,67,58,65.1,55.6,65.1z"></path><ellipse transform="matrix(0.5475 -0.8368 0.8368 0.5475 -30.9171 78.1635)" class="st14" cx="56.8" cy="67.7" rx="1" ry="1.3"></ellipse><path class="st12" d="M60.3,61.8c0-0.9,0.3-1.7,0.7-2.4c-0.9,0.8-1.5,1.9-1.5,3.2c0,2.4,1.9,4.3,4.3,4.3c1.5,0,2.8-0.8,3.6-2
	c-0.8,0.7-1.8,1.1-2.9,1.1C62.3,66.1,60.3,64.1,60.3,61.8z"></path><path class="st13" d="M63.9,58.3c-1.1,0-2.1,0.4-2.9,1.1c-0.5,0.7-0.7,1.5-0.7,2.4c0,2.4,1.9,4.3,4.3,4.3c1.1,0,2.1-0.4,2.9-1.1
	c0.5-0.7,0.7-1.5,0.7-2.4C68.3,60.2,66.3,58.3,63.9,58.3z"></path><ellipse transform="matrix(0.5475 -0.8368 0.8368 0.5475 -21.4641 82.0067)" class="st14" cx="65.1" cy="60.9" rx="1" ry="1.3"></ellipse><path class="st12" d="M88.3,54c0-0.9,0.3-1.7,0.7-2.4c-0.9,0.8-1.5,1.9-1.5,3.2c0,2.4,1.9,4.3,4.3,4.3c1.5,0,2.8-0.8,3.6-2
	c-0.8,0.7-1.8,1.1-2.9,1.1C90.3,58.3,88.3,56.4,88.3,54z"></path><path class="st13" d="M91.9,50.5c-1.1,0-2.1,0.4-2.9,1.1c-0.5,0.7-0.7,1.5-0.7,2.4c0,2.4,1.9,4.3,4.3,4.3c1.1,0,2.1-0.4,2.9-1.1
	c0.5-0.7,0.7-1.5,0.7-2.4C96.2,52.4,94.3,50.5,91.9,50.5z"></path><ellipse transform="matrix(0.5475 -0.8368 0.8368 0.5475 -2.316 101.9186)" class="st14" cx="93.1" cy="53.1" rx="1" ry="1.3"></ellipse><path class="st12" d="M77.4,53.5c0-0.9,0.3-1.7,0.7-2.4c-0.9,0.8-1.5,1.9-1.5,3.2c0,2.4,1.9,4.3,4.3,4.3c1.5,0,2.8-0.8,3.6-2
	c-0.8,0.7-1.8,1.1-2.9,1.1C79.3,57.8,77.4,55.9,77.4,53.5z"></path><path class="st13" d="M81,50c-1.1,0-2.1,0.4-2.9,1.1c-0.5,0.7-0.7,1.5-0.7,2.4c0,2.4,1.9,4.3,4.3,4.3c1.1,0,2.1-0.4,2.9-1.1
	c0.5-0.7,0.7-1.5,0.7-2.4C85.3,51.9,83.3,50,81,50z"></path><ellipse transform="matrix(0.5475 -0.8368 0.8368 0.5475 -6.8496 92.5242)" class="st14" cx="82.1" cy="52.6" rx="1" ry="1.3"></ellipse><path class="st12" d="M85.1,45.8c0-0.9,0.3-1.7,0.7-2.4c-0.9,0.8-1.5,1.9-1.5,3.2c0,2.4,1.9,4.3,4.3,4.3c1.5,0,2.8-0.8,3.6-2
	c-0.8,0.7-1.8,1.1-2.9,1.1C87,50.1,85.1,48.2,85.1,45.8z"></path><path class="st13" d="M88.7,42.3c-1.1,0-2.1,0.4-2.9,1.1c-0.5,0.7-0.7,1.5-0.7,2.4c0,2.4,1.9,4.3,4.3,4.3c1.1,0,2.1-0.4,2.9-1.1
	c0.5-0.7,0.7-1.5,0.7-2.4C93,44.2,91.1,42.3,88.7,42.3z"></path><ellipse transform="matrix(0.5475 -0.8368 0.8368 0.5475 3.1269 95.4997)" class="st14" cx="89.9" cy="44.9" rx="1" ry="1.3"></ellipse><path class="st12" d="M68.3,24.9c0-0.9,0.3-1.7,0.7-2.4c-0.9,0.8-1.5,1.9-1.5,3.2c0,2.4,1.9,4.3,4.3,4.3c1.5,0,2.8-0.8,3.6-2
	c-0.8,0.7-1.8,1.1-2.9,1.1C70.2,29.2,68.3,27.3,68.3,24.9z"></path><path class="st13" d="M71.8,21.4c-1.1,0-2.1,0.4-2.9,1.1c-0.5,0.7-0.7,1.5-0.7,2.4c0,2.4,1.9,4.3,4.3,4.3c1.1,0,2.1-0.4,2.9-1.1
	c0.5-0.7,0.7-1.5,0.7-2.4C76.2,23.3,74.2,21.4,71.8,21.4z"></path><ellipse transform="matrix(0.5475 -0.8368 0.8368 0.5475 12.9637 71.963)" class="st14" cx="73" cy="24" rx="1" ry="1.3"></ellipse><path class="st12" d="M73.8,34.7c0-0.9,0.3-1.7,0.7-2.4c-0.9,0.8-1.5,1.9-1.5,3.2c0,2.4,1.9,4.3,4.3,4.3c1.5,0,2.8-0.8,3.6-2
	c-0.8,0.7-1.8,1.1-2.9,1.1C75.7,39.1,73.8,37.1,73.8,34.7z"></path><path class="st13" d="M77.4,31.2c-1.1,0-2.1,0.4-2.9,1.1c-0.5,0.7-0.7,1.5-0.7,2.4c0,2.4,1.9,4.3,4.3,4.3c1.1,0,2.1-0.4,2.9-1.1
	c0.5-0.7,0.7-1.5,0.7-2.4C81.7,33.2,79.8,31.2,77.4,31.2z"></path><ellipse transform="matrix(0.5475 -0.8368 0.8368 0.5475 7.2348 81.0208)" class="st14" cx="78.5" cy="33.8" rx="1" ry="1.3"></ellipse><path class="st12" d="M79,26.2c0-0.9,0.3-1.7,0.7-2.4c-0.9,0.8-1.5,1.9-1.5,3.2c0,2.4,1.9,4.3,4.3,4.3c1.5,0,2.8-0.8,3.6-2
	c-0.8,0.7-1.8,1.1-2.9,1.1C80.9,30.5,79,28.6,79,26.2z"></path><path class="st13" d="M82.6,22.7c-1.1,0-2.1,0.4-2.9,1.1c-0.5,0.7-0.7,1.5-0.7,2.4c0,2.4,1.9,4.3,4.3,4.3c1.1,0,2.1-0.4,2.9-1.1
	c0.5-0.7,0.7-1.5,0.7-2.4C86.9,24.6,85,22.7,82.6,22.7z"></path><ellipse transform="matrix(0.5475 -0.8368 0.8368 0.5475 16.7388 81.5336)" class="st14" cx="83.8" cy="25.3" rx="1" ry="1.3"></ellipse><path class="st12" d="M55.4,25.7c0-0.9,0.3-1.7,0.7-2.4c-0.9,0.8-1.5,1.9-1.5,3.2c0,2.4,1.9,4.3,4.3,4.3c1.5,0,2.8-0.8,3.6-2
	c-0.8,0.7-1.8,1.1-2.9,1.1C57.3,30,55.4,28.1,55.4,25.7z"></path><path class="st13" d="M59,22.2c-1.1,0-2.1,0.4-2.9,1.1c-0.5,0.7-0.7,1.5-0.7,2.4c0,2.4,1.9,4.3,4.3,4.3c1.1,0,2.1-0.4,2.9-1.1
	c0.5-0.7,0.7-1.5,0.7-2.4C63.3,24.1,61.4,22.2,59,22.2z"></path><ellipse transform="matrix(0.5475 -0.8368 0.8368 0.5475 6.468 61.5437)" class="st14" cx="60.1" cy="24.8" rx="1" ry="1.3"></ellipse><path class="st12" d="M48.5,12.9c0-0.9,0.3-1.7,0.7-2.4c-0.9,0.8-1.5,1.9-1.5,3.2c0,2.4,1.9,4.3,4.3,4.3c1.5,0,2.8-0.8,3.6-2
	c-0.8,0.7-1.8,1.1-2.9,1.1C50.4,17.2,48.5,15.3,48.5,12.9z"></path><path class="st13" d="M52,9.4c-1.1,0-2.1,0.4-2.9,1.1c-0.5,0.7-0.7,1.5-0.7,2.4c0,2.4,1.9,4.3,4.3,4.3c1.1,0,2.1-0.4,2.9-1.1
	c0.5-0.7,0.7-1.5,0.7-2.4C56.4,11.3,54.4,9.4,52,9.4z"></path><ellipse transform="matrix(0.5475 -0.8368 0.8368 0.5475 14.0691 49.9509)" class="st14" cx="53.2" cy="12" rx="1" ry="1.3"></ellipse><path class="st12" d="M39.9,19.4c0-0.9,0.3-1.7,0.7-2.4c-0.9,0.8-1.5,1.9-1.5,3.2c0,2.4,1.9,4.3,4.3,4.3c1.5,0,2.8-0.8,3.6-2
	c-0.8,0.7-1.8,1.1-2.9,1.1C41.8,23.8,39.9,21.8,39.9,19.4z"></path><path class="st13" d="M43.5,15.9c-1.1,0-2.1,0.4-2.9,1.1c-0.5,0.7-0.7,1.5-0.7,2.4c0,2.4,1.9,4.3,4.3,4.3c1.1,0,2.1-0.4,2.9-1.1
	c0.5-0.7,0.7-1.5,0.7-2.4C47.8,17.9,45.9,15.9,43.5,15.9z"></path><ellipse transform="matrix(0.5475 -0.8368 0.8368 0.5475 4.6888 45.7363)" class="st14" cx="44.6" cy="18.5" rx="1" ry="1.3"></ellipse><path class="st12" d="M33.8,35.2c0-0.9,0.3-1.7,0.7-2.4c-0.9,0.8-1.5,1.9-1.5,3.2c0,2.4,1.9,4.3,4.3,4.3c1.5,0,2.8-0.8,3.6-2
	c-0.8,0.7-1.8,1.1-2.9,1.1C35.8,39.6,33.8,37.6,33.8,35.2z"></path><path class="st13" d="M37.4,31.7c-1.1,0-2.1,0.4-2.9,1.1c-0.5,0.7-0.7,1.5-0.7,2.4c0,2.4,1.9,4.3,4.3,4.3c1.1,0,2.1-0.4,2.9-1.1
	c0.5-0.7,0.7-1.5,0.7-2.4C41.8,33.7,39.8,31.7,37.4,31.7z"></path><ellipse transform="matrix(0.5475 -0.8368 0.8368 0.5475 -11.2484 47.8432)" class="st14" cx="38.6" cy="34.3" rx="1" ry="1.3"></ellipse><path class="st12" d="M27.6,19.9c0-0.9,0.3-1.7,0.7-2.4c-0.9,0.8-1.5,1.9-1.5,3.2c0,2.4,1.9,4.3,4.3,4.3c1.5,0,2.8-0.8,3.6-2
	c-0.8,0.7-1.8,1.1-2.9,1.1C29.6,24.3,27.6,22.3,27.6,19.9z"></path><path class="st13" d="M31.2,16.4c-1.1,0-2.1,0.4-2.9,1.1c-0.5,0.7-0.7,1.5-0.7,2.4c0,2.4,1.9,4.3,4.3,4.3c1.1,0,2.1-0.4,2.9-1.1
	c0.5-0.7,0.7-1.5,0.7-2.4C35.6,18.4,33.6,16.4,31.2,16.4z"></path><ellipse transform="matrix(0.5475 -0.8368 0.8368 0.5475 -1.2483 35.7259)" class="st14" cx="32.4" cy="19" rx="1" ry="1.3"></ellipse><path class="st12" d="M64.7,46.2c0-0.9,0.3-1.7,0.7-2.4c-0.9,0.8-1.5,1.9-1.5,3.2c0,2.4,1.9,4.3,4.3,4.3c1.5,0,2.8-0.8,3.6-2
	c-0.8,0.7-1.8,1.1-2.9,1.1C66.6,50.5,64.7,48.6,64.7,46.2z"></path><path class="st13" d="M68.3,42.7c-1.1,0-2.1,0.4-2.9,1.1c-0.5,0.7-0.7,1.5-0.7,2.4c0,2.4,1.9,4.3,4.3,4.3c1.1,0,2.1-0.4,2.9-1.1
	c0.5-0.7,0.7-1.5,0.7-2.4C72.6,44.6,70.6,42.7,68.3,42.7z"></path><ellipse transform="matrix(0.5475 -0.8368 0.8368 0.5475 -6.4886 78.5938)" class="st14" cx="69.4" cy="45.3" rx="1" ry="1.3"></ellipse><path class="st12" d="M35.5,59.7c0-0.9,0.3-1.7,0.7-2.4c-0.9,0.8-1.5,1.9-1.5,3.2c0,2.4,1.9,4.3,4.3,4.3c1.5,0,2.8-0.8,3.6-2
	c-0.8,0.7-1.8,1.1-2.9,1.1C37.5,64.1,35.5,62.1,35.5,59.7z"></path><path class="st13" d="M39.1,56.2c-1.1,0-2.1,0.4-2.9,1.1c-0.5,0.7-0.7,1.5-0.7,2.4c0,2.4,1.9,4.3,4.3,4.3c1.1,0,2.1-0.4,2.9-1.1
	c0.5-0.7,0.7-1.5,0.7-2.4C43.5,58.2,41.5,56.2,39.1,56.2z"></path><ellipse transform="matrix(0.5475 -0.8368 0.8368 0.5475 -30.9878 60.3427)" class="st14" cx="40.3" cy="58.8" rx="1" ry="1.3"></ellipse><path class="st12" d="M38.6,9.7c0-0.9,0.3-1.7,0.7-2.4c-0.9,0.8-1.5,1.9-1.5,3.2c0,2.4,1.9,4.3,4.3,4.3c1.5,0,2.8-0.8,3.6-2
	C45.1,13.6,44.1,14,43,14C40.6,14,38.6,12,38.6,9.7z"></path><path class="st13" d="M42.2,6.2c-1.1,0-2.1,0.4-2.9,1.1c-0.5,0.7-0.7,1.5-0.7,2.4c0,2.4,1.9,4.3,4.3,4.3c1.1,0,2.1-0.4,2.9-1.1
	c0.5-0.7,0.7-1.5,0.7-2.4C46.6,8.1,44.6,6.2,42.2,6.2z"></path><ellipse transform="matrix(0.5475 -0.8368 0.8368 0.5475 12.3161 40.2779)" class="st14" cx="43.4" cy="8.8" rx="1" ry="1.3"></ellipse><path class="st12" d="M69.6,81.9c0-0.9,0.3-1.7,0.7-2.4c-0.9,0.8-1.5,1.9-1.5,3.2c0,2.4,1.9,4.3,4.3,4.3c1.5,0,2.8-0.8,3.6-2
	c-0.8,0.7-1.8,1.1-2.9,1.1C71.5,86.3,69.6,84.3,69.6,81.9z"></path><path class="st13" d="M73.2,78.4c-1.1,0-2.1,0.4-2.9,1.1c-0.5,0.7-0.7,1.5-0.7,2.4c0,2.4,1.9,4.3,4.3,4.3c1.1,0,2.1-0.4,2.9-1.1
	c0.5-0.7,0.7-1.5,0.7-2.4C77.5,80.4,75.6,78.4,73.2,78.4z"></path><ellipse transform="matrix(0.5475 -0.8368 0.8368 0.5475 -34.1682 98.8842)" class="st14" cx="74.4" cy="81" rx="1" ry="1.3"></ellipse><path class="st12" d="M79,77.5c0-0.9,0.3-1.7,0.7-2.4c-0.9,0.8-1.5,1.9-1.5,3.2c0,2.4,1.9,4.3,4.3,4.3c1.5,0,2.8-0.8,3.6-2
	c-0.8,0.7-1.8,1.1-2.9,1.1C80.9,81.8,79,79.9,79,77.5z"></path><path class="st13" d="M82.6,74c-1.1,0-2.1,0.4-2.9,1.1c-0.5,0.7-0.7,1.5-0.7,2.4c0,2.4,1.9,4.3,4.3,4.3c1.1,0,2.1-0.4,2.9-1.1
	c0.5-0.7,0.7-1.5,0.7-2.4C86.9,75.9,85,74,82.6,74z"></path><ellipse transform="matrix(0.5475 -0.8368 0.8368 0.5475 -26.1771 104.7391)" class="st14" cx="83.8" cy="76.6" rx="1" ry="1.3"></ellipse><path class="st12" d="M71.3,71.1c0-0.9,0.3-1.7,0.7-2.4c-0.9,0.8-1.5,1.9-1.5,3.2c0,2.4,1.9,4.3,4.3,4.3c1.5,0,2.8-0.8,3.6-2
	c-0.8,0.7-1.8,1.1-2.9,1.1C73.2,75.5,71.3,73.5,71.3,71.1z"></path><path class="st13" d="M74.9,67.6c-1.1,0-2.1,0.4-2.9,1.1c-0.5,0.7-0.7,1.5-0.7,2.4c0,2.4,1.9,4.3,4.3,4.3c1.1,0,2.1-0.4,2.9-1.1
	c0.5-0.7,0.7-1.5,0.7-2.4C79.2,69.6,77.2,67.6,74.9,67.6z"></path><ellipse transform="matrix(0.5475 -0.8368 0.8368 0.5475 -24.366 95.3992)" class="st14" cx="76" cy="70.2" rx="1" ry="1.3"></ellipse></g></svg>