<?xml version="1.0" encoding="utf-8"?>
<!-- Generator: Adobe Illustrator 23.1.1, SVG Export Plug-In . SVG Version: 6.00 Build 0)  -->
<svg version="1.1" id="Layer_1" xmlns="http://www.w3.org/2000/svg" xmlns:xlink="http://www.w3.org/1999/xlink" x="0px" y="0px"
	 viewBox="0 0 108 108" style="enable-background:new 0 0 108 108;" xml:space="preserve">
<style type="text/css">
	.st0{fill:none;stroke:#718537;stroke-width:1.0129;stroke-miterlimit:10;}
	.st1{fill:#A5C239;}
	.st2{fill:#84B541;}
	.st3{fill:#91BB3E;}
	.st4{fill:#AFCB36;}
	.st5{fill:#92B83F;}
	.st6{fill:#A5BE3B;}
	.st7{fill:#A4C839;}
	.st8{fill:#72AA42;}
	.st9{fill:none;}
	.st10{fill:#202145;}
	.st11{fill:#2F3A5B;}
	.st12{opacity:0.44;}
	.st13{fill:#FFFFFF;}
</style>
<g>
	<g>
		<g>
			<path class="st0" d="M69.22,76.11c-0.06-2.42-1.01-6.76-1.68-9.84"/>
			<path class="st0" d="M75.63,72.99c-3.2-1.28-7.29-4.17-9.33-7.3"/>
			<path class="st0" d="M76.73,66.7c-3.63,1.75-6.65,3.78-9.15,0.14"/>
			<path class="st0" d="M62.12,59.79c-3.85-2.98-7.5-6.93-8.92-10.4"/>
			<path class="st0" d="M54.24,62.64c0.44-5.02-0.93-12.71-1.11-14.29"/>
			<path class="st0" d="M61.04,53.1c-2.98,0.94-4.66,2.38-7.6-2.57"/>
			<path class="st1" d="M64,80.85c-0.31-1.93-1.29-2.33,1.93-5.74c3.22-3.42,3.22-3.42,3.22-3.42s0.64,0.74,1.39,1.58
				s3.92,3.65,2.49,6.93c-1.43,3.28-2.67,5.06-3.15,5.57c-0.49,0.51-1.75,2.57-2.11,3.07"/>
			<path class="st2" d="M86.66,81.83c-2.34-0.98-5.72,1.13-8.56-0.86c-2.85-1.99-4.47-6.93-5.15-8.36
				c-0.68-1.42-1.84-0.81,0.84-0.86c2.69-0.05,2.84-0.96,5.17-0.4c2.33,0.56,5.56,4.04,5.78,5.48
				C84.95,78.27,86.66,81.83,86.66,81.83z"/>
			<path class="st3" d="M72.64,68.73c0.7,0,1.48,0.57,4.86,0.62c3.38,0.05,6.04-0.31,6.63-2.89s-0.24-3.09,1.21-4.79
				c1.45-1.7,1.45-1.7,1.45-1.7s-2.91-0.09-6.96,0.01c-4.05,0.1-5.95,4.21-6.45,5.94C72.89,67.65,72.64,68.73,72.64,68.73z"/>
			<path class="st4" d="M70.81,68.76c0,0-1.56-1.73-4.75-1.74c-3.19-0.01-6.69-1.59-6.69-4.97c0-3.38-1.09-5.24-1.09-5.24
				s-0.07,0.48,2.71,0.26s6.73,1.69,7.84,4.45S70.81,68.76,70.81,68.76z"/>
			<path class="st5" d="M51.63,73.05c0,0,4.11-4.12,5.37-6.91c1.26-2.79,1.61-4.45-0.03-6.43s-2.23-3.57-2.23-3.57
				s-2.32,3.45-3.84,4.26c-1.52,0.8-3.2,3.63-2.38,5.3S51.63,73.05,51.63,73.05z"/>
			<path class="st6" d="M58.06,54.03c0,0.05,2.46,1.07,5.39,1.43c2.93,0.35,4.51,0.33,5.66-1.13c1.15-1.46,1.93-3,2.75-4.7
				c0.82-1.7,0.92-2.39,1.6-2.55s-0.85,0.59-4.08-0.21s-4.77-1.69-6.12-0.63c-1.34,1.05-1.3,3-2.39,4.57
				C59.78,52.37,58.06,54.03,58.06,54.03z"/>
		</g>
		<g>
			<path class="st0" d="M27.07,74.45c2.33-0.65,6.3-2.64,9.13-4.04"/>
			<path class="st0" d="M31.66,79.89c0.46-3.41,2.26-8.09,4.79-10.83"/>
			<path class="st0" d="M38.03,79.42c-2.59-3.09-5.29-5.52-2.38-8.84"/>
			<path class="st0" d="M41.15,63.56c1.94-4.46,4.87-8.97,7.89-11.19"/>
			<path class="st0" d="M36.45,56.62c4.97-0.8,12.1-4.02,13.58-4.58"/>
			<path class="st0" d="M47.37,60.87c-1.64-2.66-3.45-3.94,0.62-8"/>
			<path class="st2" d="M21.19,70.55c1.79-0.77,1.94-1.82,6.04,0.46s4.1,2.28,4.1,2.28s-0.56,0.8-1.19,1.73
				c-0.63,0.93-2.58,4.7-6.11,4.11c-3.53-0.59-5.56-1.34-6.18-1.69s-2.92-1.07-3.49-1.29"/>
			<path class="st7" d="M25.8,92.75c0.37-2.51-2.5-5.26-1.26-8.51c1.24-3.25,5.62-6.04,6.84-7.04c1.21-1.01,0.33-1.98,1.04,0.61
				c0.71,2.59,1.63,2.51,1.66,4.91c0.03,2.4-2.55,6.38-3.9,6.94C28.84,90.23,25.8,92.75,25.8,92.75z"/>
			<path class="st3" d="M35.06,75.95c0.17,0.68-0.19,1.58,0.59,4.87s1.78,5.78,4.43,5.72c2.64-0.06,2.94-0.99,4.94,0
				c2,0.99,2,0.99,2,0.99s-0.63-2.84-1.72-6.75c-1.1-3.9-5.54-4.74-7.34-4.8C36.17,75.93,35.06,75.95,35.06,75.95z"/>
			<path class="st4" d="M34.58,74.19c0,0,1.29-1.93,0.52-5.03c-0.77-3.1-0.1-6.88,3.17-7.71c3.27-0.83,4.81-2.35,4.81-2.35
				s-0.48,0.05,0.41,2.69c0.89,2.64,0.01,6.94-2.4,8.69C38.7,72.24,34.58,74.19,34.58,74.19z"/>
			<path class="st5" d="M25.71,56.64c0,0,5,2.98,8.01,3.51c3.01,0.54,4.71,0.46,6.23-1.6c1.52-2.07,2.92-3.04,2.92-3.04
				s-3.91-1.4-5.07-2.68s-4.3-2.21-5.73-1.01C30.66,53.03,25.71,56.64,25.71,56.64z"/>
			<path class="st6" d="M45.73,58.21c-0.05,0.02-0.44,2.65-0.06,5.57c0.38,2.93,0.78,4.45,2.48,5.21c1.7,0.76,3.38,1.13,5.23,1.51
				s2.55,0.31,2.86,0.92c0.32,0.61-0.78-0.68-0.8-4.01s0.46-5.04-0.89-6.08c-1.35-1.04-3.23-0.52-5.01-1.2
				C47.76,59.47,45.73,58.21,45.73,58.21z"/>
		</g>
		<g>
			<path class="st0" d="M34.05,33.14c0.77,2.3,2.95,6.16,4.5,8.91"/>
			<path class="st0" d="M28.84,38c3.43,0.29,8.2,1.85,11.06,4.24"/>
			<path class="st0" d="M29.63,44.34c2.96-2.74,5.25-5.56,8.71-2.82"/>
			<path class="st0" d="M45.63,46.66c4.55,1.72,9.21,4.42,11.57,7.32"/>
			<path class="st0" d="M52.33,41.62c1.05,4.93,4.62,11.88,5.26,13.34"/>
			<path class="st0" d="M48.63,52.73c2.57-1.77,3.76-3.65,8.02,0.22"/>
			<path class="st1" d="M37.65,27.08c0.86,1.75,1.92,1.85-0.16,6.06s-2.07,4.21-2.07,4.21s-0.83-0.52-1.79-1.1
				c-0.96-0.58-4.82-2.34-4.42-5.89s1.06-5.62,1.38-6.25c0.32-0.63,0.92-2.97,1.11-3.55"/>
			<path class="st2" d="M15.71,32.79c2.53,0.25,5.13-2.76,8.44-1.69s6.31,5.31,7.38,6.48c1.07,1.16,2,0.23-0.56,1.07
				s-2.43,1.75-4.82,1.9s-6.5-2.23-7.13-3.54C18.38,35.7,15.71,32.79,15.71,32.79z"/>
			<path class="st3" d="M32.95,41.2c-0.67,0.21-1.58-0.11-4.83,0.83c-3.25,0.94-5.69,2.07-5.49,4.71c0.19,2.64,1.14,2.89,0.25,4.93
				s-0.89,2.05-0.89,2.05s2.81-0.77,6.65-2.06s4.45-5.77,4.42-7.57S32.95,41.2,32.95,41.2z"/>
			<path class="st4" d="M34.69,40.63c0,0,2,1.19,5.05,0.27c3.06-0.92,6.86-0.45,7.85,2.78c0.99,3.23,2.59,4.69,2.59,4.69
				s-0.08-0.48-2.67,0.54c-2.59,1.02-6.93,0.36-8.8-1.96S34.69,40.63,34.69,40.63z"/>
			<path class="st5" d="M51.77,30.9c0,0-2.72,5.14-3.11,8.18s-0.23,4.73,1.91,6.14c2.14,1.42,3.18,2.76,3.18,2.76
				s1.2-3.98,2.42-5.19c1.22-1.22,1.99-4.41,0.72-5.77C55.62,35.65,51.77,30.9,51.77,30.9z"/>
			<path class="st6" d="M51.2,50.97c-0.02-0.05-2.67-0.31-5.57,0.22c-2.9,0.52-4.41,1-5.08,2.74s-0.96,3.43-1.25,5.3
				s-0.18,2.56-0.78,2.91c-0.6,0.35,0.64-0.82,3.96-1s5.06,0.21,6.03-1.19c0.97-1.4,0.36-3.25,0.94-5.06
				C50.05,53.06,51.2,50.97,51.2,50.97z"/>
		</g>
		<g>
			<path class="st0" d="M76.85,38.73c-2.39,0.4-6.55,1.96-9.5,3.06"/>
			<path class="st0" d="M72.86,32.83c-0.82,3.35-3.1,7.81-5.91,10.27"/>
			<path class="st0" d="M66.48,32.62c2.25,3.35,4.68,6.05,1.43,9.04"/>
			<path class="st0" d="M61.7,48.06c-2.4,4.23-5.8,8.41-9.03,10.3"/>
			<path class="st0" d="M65.63,55.47c-5.03,0.27-12.45,2.71-13.99,3.12"/>
			<path class="st0" d="M55.23,50.08c1.35,2.82,3.02,4.28-1.47,7.88"/>
			<path class="st1" d="M82.28,43.23c-1.87,0.58-2.12,1.61-5.96-1.1c-3.84-2.7-3.84-2.7-3.84-2.7s0.64-0.74,1.37-1.6
				c0.72-0.86,3.06-4.4,6.51-3.45c3.45,0.96,5.39,1.92,5.96,2.33c0.58,0.41,2.79,1.37,3.34,1.65"/>
			<path class="st7" d="M80.04,20.66c-0.64,2.46,1.93,5.5,0.36,8.6c-1.57,3.1-6.23,5.41-7.55,6.28c-1.31,0.87-0.54,1.94-0.97-0.71
				c-0.43-2.65-1.35-2.67-1.13-5.06s3.21-6.08,4.61-6.49C76.76,22.85,80.04,20.66,80.04,20.66z"/>
			<path class="st2" d="M69.06,36.39c-0.1-0.69,0.36-1.55-0.07-4.9s-1.16-5.94-3.8-6.16c-2.64-0.22-3.03,0.68-4.91-0.52
				s-1.88-1.2-1.88-1.2s0.32,2.89,1,6.89s5.01,5.3,6.79,5.55C67.96,36.29,69.06,36.39,69.06,36.39z"/>
			<path class="st4" d="M69.35,38.19c0,0-1.49,1.79-1.05,4.95s-0.63,6.85-3.97,7.33c-3.34,0.48-5.04,1.82-5.04,1.82
				s0.48,0-0.12-2.72c-0.61-2.72,0.72-6.9,3.3-8.39C65.05,39.69,69.35,38.19,69.35,38.19z"/>
			<path class="st5" d="M76.31,56.58c0,0-4.66-3.49-7.6-4.34c-2.94-0.85-4.63-0.96-6.37,0.94s-3.22,2.71-3.22,2.71
				s3.74,1.81,4.76,3.2c1.01,1.39,4.04,2.65,5.59,1.61C71.01,59.65,76.31,56.58,76.31,56.58z"/>
			<path class="st6" d="M56.57,52.9c0.05-0.01,0.72-2.59,0.65-5.54c-0.07-2.95-0.31-4.51-1.92-5.45c-1.61-0.93-3.24-1.49-5.04-2.05
				c-1.8-0.57-2.5-0.57-2.75-1.22s0.71,0.76,0.37,4.07c-0.34,3.31-0.99,4.97,0.24,6.14s3.16,0.86,4.86,1.72
				C54.68,51.44,56.57,52.9,56.57,52.9z"/>
		</g>
		<g>
			<g>
				<path class="st8" d="M53.19,65.42c-0.06-2.42-1.01-6.76-1.68-9.84"/>
				<path class="st8" d="M59.6,62.3c-3.2-1.28-7.29-4.17-9.33-7.3"/>
				<path class="st8" d="M60.7,56.02c-3.63,1.75-6.65,3.78-9.15,0.14"/>
				<path class="st8" d="M46.09,49.1c-3.85-2.98-7.5-6.93-8.92-10.4"/>
				<path class="st8" d="M38.21,51.95c0.44-5.02-0.93-12.71-1.11-14.29"/>
				<path class="st8" d="M45.01,42.41c-2.98,0.94-4.66,2.38-7.6-2.57"/>
				<g>
					<path class="st8" d="M47.97,70.16c-0.31-1.93-1.29-2.33,1.93-5.74C53.11,61,53.11,61,53.11,61s0.64,0.74,1.39,1.58
						c0.75,0.84,3.92,3.65,2.49,6.93c-1.43,3.28-2.67,5.06-3.15,5.57c-0.49,0.51-1.75,2.57-2.11,3.07"/>
				</g>
				<g>
					<path class="st8" d="M70.63,71.14c-2.34-0.98-5.72,1.13-8.56-0.86c-2.85-1.99-4.47-6.93-5.15-8.36
						c-0.68-1.42-1.84-0.81,0.84-0.86c2.69-0.05,2.84-0.96,5.17-0.4c2.33,0.56,5.56,4.04,5.78,5.48
						C68.92,67.58,70.63,71.14,70.63,71.14z"/>
				</g>
				<g>
					<path class="st8" d="M56.61,58.04c0.7,0,1.48,0.57,4.86,0.62c3.38,0.05,6.04-0.31,6.63-2.89s-0.24-3.09,1.21-4.79
						c1.45-1.7,1.45-1.7,1.45-1.7s-2.91-0.09-6.96,0.01c-4.05,0.1-5.95,4.21-6.45,5.94C56.86,56.97,56.61,58.04,56.61,58.04z"/>
				</g>
				<g>
					<path class="st8" d="M54.78,58.08c0,0-1.56-1.73-4.75-1.74c-3.19-0.01-6.69-1.59-6.69-4.97c0-3.38-1.09-5.24-1.09-5.24
						s-0.07,0.48,2.71,0.26s6.73,1.69,7.84,4.45C53.91,53.61,54.78,58.08,54.78,58.08z"/>
				</g>
				<g>
					<path class="st8" d="M35.6,62.37c0,0,4.11-4.12,5.37-6.91c1.26-2.79,1.61-4.45-0.03-6.43s-2.23-3.57-2.23-3.57
						s-2.32,3.45-3.84,4.26c-1.52,0.8-3.2,3.63-2.38,5.3C33.31,56.69,35.6,62.37,35.6,62.37z"/>
				</g>
				<g>
					<path class="st8" d="M42.03,43.35c0,0.05,2.46,1.07,5.39,1.43c2.93,0.35,4.51,0.33,5.66-1.13s1.93-3,2.75-4.7
						c0.82-1.7,0.92-2.39,1.6-2.55c0.67-0.16-0.85,0.59-4.08-0.21s-4.77-1.69-6.12-0.63s-1.3,3-2.39,4.57
						C43.74,41.68,42.03,43.35,42.03,43.35z"/>
				</g>
			</g>
		</g>
	</g>
	<g>
		<path class="st9" d="M29.25,70.7l0.08-0.04c-0.03-0.03-0.06-0.05-0.09-0.08c0,0.01,0,0.02,0.01,0.03
			C29.25,70.63,29.25,70.67,29.25,70.7z"/>
		<path class="st10" d="M38.13,72.72c-0.01,0-0.02,0.01-0.02,0.01l0.02,0.01C38.12,72.73,38.12,72.73,38.13,72.72z"/>
		<path class="st11" d="M27.03,82.6c-0.49-0.11-0.88-0.52-0.95-1.04c-0.06-0.42,0.1-0.82,0.39-1.09c-0.2-0.19-0.35-0.44-0.39-0.74
			c-0.06-0.44,0.12-0.86,0.44-1.13c-0.23-0.19-0.39-0.46-0.44-0.78c-0.08-0.54,0.21-1.06,0.68-1.29c-0.12-0.16-0.2-0.35-0.23-0.57
			c-0.09-0.61,0.28-1.17,0.84-1.36c-0.02-0.05-0.03-0.11-0.04-0.17c-0.1-0.68,0.38-1.31,1.06-1.41c0.21-0.03,0.42,0,0.61,0.07
			c0-0.01-0.01-0.02-0.01-0.04c-0.1-0.68,0.38-1.31,1.06-1.41c0.42-0.06,0.82,0.1,1.09,0.39c-0.07-0.67,0.54-1.3,1.38-1.42
			c0.24-0.03,0.47-0.02,0.68,0.03c0.23-0.36,0.67-0.64,1.2-0.72c0.86-0.12,1.63,0.33,1.73,1.02c0,0.02,0,0.04,0.01,0.07
			c0.25-0.31,0.65-0.55,1.13-0.62c0.86-0.12,1.63,0.33,1.73,1.02c0.02,0.13,0.01,0.26-0.02,0.38c0.15-0.07,0.32-0.12,0.5-0.14
			c0.33-0.05,0.65-0.01,0.92,0.1c-0.27-0.43-0.85-0.69-1.49-0.63c0.07-0.18,0.11-0.36,0.08-0.56c-0.1-0.68-0.87-1.14-1.73-1.02
			c-0.18,0.03-0.35,0.08-0.5,0.14c0.03-0.12,0.04-0.25,0.02-0.38c-0.1-0.68-0.87-1.14-1.73-1.02c-0.48,0.07-0.89,0.3-1.13,0.62
			c0-0.02,0-0.04-0.01-0.07c-0.1-0.68-0.87-1.14-1.73-1.02c-0.53,0.08-0.97,0.35-1.2,0.72c-0.21-0.05-0.44-0.06-0.68-0.03
			c-0.84,0.12-1.45,0.75-1.38,1.42c-0.27-0.29-0.67-0.45-1.09-0.39c-0.68,0.1-1.16,0.73-1.06,1.41c0,0.01,0,0.02,0.01,0.04
			c-0.19-0.07-0.4-0.1-0.61-0.07c-0.68,0.1-1.16,0.73-1.06,1.41c0.01,0.06,0.02,0.11,0.04,0.17c-0.56,0.19-0.93,0.75-0.84,1.36
			c0.03,0.21,0.11,0.41,0.23,0.57c-0.47,0.23-0.75,0.74-0.68,1.29c0.05,0.32,0.21,0.59,0.44,0.78c-0.32,0.27-0.5,0.69-0.44,1.13
			c0.04,0.3,0.18,0.55,0.39,0.74c-0.29,0.27-0.45,0.67-0.39,1.09c0.07,0.52,0.46,0.92,0.95,1.04c-0.36,0.26-0.57,0.71-0.51,1.19
			c0.1,0.68,0.73,1.16,1.41,1.06c0.18-0.03,0.35-0.09,0.5-0.18c0,0.07,0,0.14,0.01,0.2c0.04,0.25,0.15,0.48,0.31,0.66
			C26.58,83.09,26.76,82.79,27.03,82.6z M29.33,70.66l-0.08,0.04c0-0.03,0-0.06-0.01-0.09c0-0.01,0-0.02-0.01-0.03
			C29.27,70.6,29.3,70.63,29.33,70.66z"/>
		<path class="st10" d="M39.75,74.13c-0.07,0.01-0.13,0.01-0.2,0.01l0.14,0.16C39.7,74.23,39.72,74.18,39.75,74.13z"/>
		<path class="st10" d="M31.47,72.8l0.08-0.04c-0.03-0.03-0.06-0.05-0.09-0.08c0,0.01,0,0.02,0.01,0.03
			C31.47,72.74,31.47,72.77,31.47,72.8z"/>
		<path class="st10" d="M37.53,72.02c-0.07,0.01-0.13,0.01-0.2,0.01l0.14,0.16C37.48,72.13,37.5,72.08,37.53,72.02z"/>
		<path class="st10" d="M35.91,70.62c-0.01,0-0.02,0.01-0.02,0.01l0.02,0.01C35.9,70.63,35.91,70.62,35.91,70.62z"/>
		<path class="st10" d="M27.63,83.82c0.31-0.04,0.57-0.2,0.76-0.41c0.25,0.41,0.73,0.65,1.23,0.58c0.25-0.04,0.48-0.15,0.66-0.31
			c0.26,0.24,0.63,0.36,1.01,0.31c0.48-0.07,0.85-0.4,1-0.82c0.24,0.45,0.74,0.73,1.28,0.65c0.63-0.09,1.08-0.63,1.07-1.24
			c0.26,0.22,0.61,0.34,0.98,0.28c0.47-0.07,0.84-0.39,1-0.8c0.22,0.11,0.47,0.15,0.72,0.11c0.68-0.1,1.16-0.73,1.06-1.41
			c0-0.01,0-0.02-0.01-0.03c0.18,0.06,0.38,0.09,0.58,0.06c0.68-0.1,1.16-0.73,1.06-1.41c-0.01-0.04-0.01-0.08-0.02-0.12
			c0.84-0.13,1.43-0.78,1.34-1.45c-0.04-0.31-0.23-0.57-0.49-0.75c0.5-0.27,0.81-0.75,0.74-1.24c-0.06-0.45-0.43-0.81-0.92-0.96
			c0.43-0.28,0.68-0.72,0.62-1.17c-0.06-0.43-0.4-0.78-0.85-0.94c0.1-0.19,0.14-0.4,0.1-0.62c-0.02-0.14-0.07-0.27-0.14-0.39
			c-0.27-0.11-0.59-0.15-0.92-0.1c-0.18,0.03-0.35,0.08-0.5,0.14c0.03-0.12,0.04-0.25,0.02-0.38c-0.1-0.68-0.87-1.14-1.73-1.02
			c-0.48,0.07-0.89,0.3-1.13,0.62c0-0.02,0-0.04-0.01-0.07c-0.1-0.68-0.87-1.14-1.73-1.02c-0.53,0.08-0.97,0.35-1.2,0.72
			c-0.21-0.05-0.44-0.06-0.68-0.03c-0.84,0.12-1.45,0.75-1.38,1.42c-0.27-0.29-0.67-0.45-1.09-0.39c-0.68,0.1-1.16,0.73-1.06,1.41
			c0,0.01,0,0.02,0.01,0.04c-0.19-0.07-0.4-0.1-0.61-0.07c-0.68,0.1-1.16,0.73-1.06,1.41c0.01,0.06,0.02,0.11,0.04,0.17
			c-0.56,0.19-0.93,0.75-0.84,1.36c0.03,0.21,0.11,0.41,0.23,0.57c-0.47,0.23-0.75,0.74-0.68,1.29c0.05,0.32,0.21,0.59,0.44,0.78
			c-0.32,0.27-0.5,0.69-0.44,1.13c0.04,0.3,0.18,0.55,0.39,0.74c-0.29,0.27-0.45,0.67-0.39,1.09c0.07,0.52,0.46,0.92,0.95,1.04
			c-0.27,0.19-0.45,0.49-0.5,0.82C26.8,83.72,27.2,83.89,27.63,83.82z M39.75,74.13c-0.02,0.05-0.04,0.11-0.06,0.17l-0.14-0.16
			C39.61,74.14,39.68,74.13,39.75,74.13z M38.13,72.72c0,0.01,0,0.01,0,0.02l-0.02-0.01C38.11,72.73,38.12,72.72,38.13,72.72z
			 M37.53,72.02c-0.02,0.05-0.04,0.11-0.06,0.17l-0.14-0.16C37.39,72.03,37.46,72.03,37.53,72.02z M35.91,70.62
			c0,0.01,0,0.01,0,0.02l-0.02-0.01C35.89,70.62,35.9,70.62,35.91,70.62z M31.55,72.76l-0.08,0.04c0-0.03,0-0.06-0.01-0.09
			c0-0.01,0-0.02-0.01-0.03C31.49,72.71,31.52,72.73,31.55,72.76z"/>
		<g class="st12">
			
				<ellipse transform="matrix(0.9902 -0.1399 0.1399 0.9902 -10.9235 5.6803)" class="st13" cx="34.95" cy="80.55" rx="1.57" ry="1.25"/>
			
				<ellipse transform="matrix(0.9902 -0.1399 0.1399 0.9902 -11.0538 5.0702)" class="st13" cx="30.54" cy="81.17" rx="1.57" ry="1.25"/>
			
				<ellipse transform="matrix(0.9902 -0.1399 0.1399 0.9902 -10.6102 5.2495)" class="st13" cx="32.04" cy="78.11" rx="1.57" ry="1.25"/>
			
				<ellipse transform="matrix(0.9902 -0.1399 0.1399 0.9902 -10.9478 4.5645)" class="st13" cx="27" cy="80.17" rx="1.57" ry="1.25"/>
			
				<ellipse transform="matrix(0.9902 -0.1399 0.1399 0.9902 -10.4531 5.911)" class="st13" cx="36.83" cy="77.32" rx="1.57" ry="1.25"/>
			
				<ellipse transform="matrix(0.9902 -0.1399 0.1399 0.9902 -10.0161 5.6686)" class="st13" cx="35.32" cy="74.09" rx="1.57" ry="1.25"/>
			
				<ellipse transform="matrix(0.9902 -0.1399 0.1399 0.9902 -9.575 5.6299)" class="st13" cx="35.26" cy="70.93" rx="1.57" ry="1.25"/>
			
				<ellipse transform="matrix(0.9902 -0.1399 0.1399 0.9902 -9.9569 6.1943)" class="st13" cx="39.09" cy="73.93" rx="1.57" ry="1.25"/>
			
				<ellipse transform="matrix(0.9902 -0.1399 0.1399 0.9902 -10.0698 5.1425)" class="st13" cx="31.55" cy="74.21" rx="1.57" ry="1.25"/>
			
				<ellipse transform="matrix(0.9902 -0.1399 0.1399 0.9902 -10.5108 4.682)" class="st13" cx="28.05" cy="77.12" rx="1.57" ry="1.25"/>
			
				<ellipse transform="matrix(0.9902 -0.1399 0.1399 0.9902 -10.1188 4.4455)" class="st13" cx="26.57" cy="74.21" rx="1.57" ry="1.25"/>
			
				<ellipse transform="matrix(0.9902 -0.1399 0.1399 0.9902 -9.647 5.0139)" class="st13" cx="30.85" cy="71.14" rx="1.57" ry="1.25"/>
		</g>
	</g>
	<g>
		<path class="st9" d="M31.41,31.18l0.08,0.03c0-0.04-0.01-0.08-0.01-0.12c-0.01,0.01-0.01,0.02-0.02,0.03
			C31.45,31.13,31.43,31.16,31.41,31.18z"/>
		<path class="st10" d="M36.36,38.82c-0.01,0-0.02-0.01-0.02-0.01l0.01,0.02C36.35,38.83,36.35,38.82,36.36,38.82z"/>
		<path class="st11" d="M21.52,38.16c-0.27-0.42-0.27-0.98,0.04-1.41c0.25-0.34,0.64-0.52,1.04-0.51c-0.01-0.28,0.06-0.56,0.24-0.8
			c0.26-0.36,0.69-0.54,1.1-0.51c-0.03-0.3,0.04-0.61,0.23-0.86c0.32-0.44,0.89-0.61,1.38-0.45c0.03-0.2,0.1-0.4,0.23-0.57
			c0.36-0.49,1.02-0.64,1.55-0.39c0.03-0.05,0.06-0.1,0.09-0.15c0.41-0.56,1.19-0.68,1.74-0.27c0.17,0.13,0.3,0.29,0.39,0.47
			c0.01-0.01,0.01-0.02,0.02-0.03c0.41-0.56,1.19-0.68,1.74-0.27c0.34,0.25,0.52,0.64,0.51,1.04c0.42-0.53,1.29-0.55,1.98-0.05
			c0.19,0.14,0.35,0.31,0.47,0.49c0.42-0.1,0.93,0.01,1.37,0.32c0.7,0.51,0.93,1.38,0.53,1.93c-0.01,0.02-0.03,0.03-0.04,0.05
			c0.4-0.05,0.85,0.06,1.24,0.35c0.7,0.51,0.93,1.38,0.53,1.93c-0.08,0.11-0.17,0.19-0.28,0.26c0.16,0.06,0.31,0.14,0.46,0.25
			c0.27,0.2,0.47,0.45,0.59,0.72c0.11-0.5-0.13-1.09-0.63-1.5c0.18-0.07,0.33-0.19,0.44-0.34c0.41-0.56,0.17-1.42-0.53-1.93
			c-0.15-0.11-0.3-0.19-0.46-0.25c0.11-0.07,0.2-0.15,0.28-0.26c0.41-0.56,0.17-1.42-0.53-1.93c-0.39-0.29-0.85-0.4-1.24-0.35
			c0.01-0.02,0.03-0.03,0.04-0.05c0.41-0.56,0.17-1.42-0.53-1.93c-0.43-0.32-0.94-0.42-1.37-0.32c-0.12-0.18-0.28-0.35-0.47-0.49
			c-0.68-0.5-1.56-0.47-1.98,0.05c0.01-0.4-0.17-0.79-0.51-1.04c-0.56-0.41-1.34-0.29-1.74,0.27c-0.01,0.01-0.01,0.02-0.02,0.03
			c-0.09-0.18-0.22-0.35-0.39-0.47c-0.56-0.41-1.34-0.29-1.74,0.27c-0.03,0.05-0.06,0.1-0.09,0.15c-0.53-0.26-1.19-0.11-1.55,0.39
			c-0.13,0.17-0.2,0.37-0.23,0.57c-0.5-0.16-1.06,0.01-1.38,0.45c-0.19,0.26-0.26,0.57-0.23,0.86c-0.42-0.03-0.84,0.15-1.1,0.51
			c-0.18,0.24-0.25,0.52-0.24,0.8c-0.39-0.01-0.79,0.17-1.04,0.51c-0.31,0.43-0.31,0.99-0.04,1.41c-0.44-0.07-0.91,0.11-1.19,0.5
			c-0.41,0.56-0.29,1.34,0.27,1.74c0.15,0.11,0.31,0.18,0.48,0.21c-0.05,0.05-0.09,0.1-0.14,0.15c-0.15,0.21-0.23,0.45-0.24,0.68
			C20.85,38.2,21.19,38.11,21.52,38.16z M31.49,31.21l-0.08-0.03c0.02-0.02,0.04-0.05,0.06-0.07c0.01-0.01,0.01-0.02,0.02-0.03
			C31.49,31.12,31.49,31.17,31.49,31.21z"/>
		<path class="st10" d="M36.54,40.96c-0.05-0.04-0.1-0.09-0.15-0.13l-0.01,0.21C36.43,41.01,36.48,40.98,36.54,40.96z"/>
		<path class="st10" d="M31.53,34.24l0.08,0.03c0-0.04-0.01-0.08-0.01-0.12c-0.01,0.01-0.01,0.02-0.02,0.03
			C31.57,34.19,31.55,34.21,31.53,34.24z"/>
		<path class="st10" d="M36.42,37.9c-0.05-0.04-0.1-0.09-0.15-0.13l-0.01,0.21C36.31,37.95,36.36,37.92,36.42,37.9z"/>
		<path class="st10" d="M36.24,35.76c-0.01,0-0.02-0.01-0.02-0.01l0.01,0.02C36.22,35.77,36.23,35.77,36.24,35.76z"/>
		<path class="st10" d="M21.09,39.46c0.25,0.18,0.55,0.26,0.83,0.24c-0.1,0.47,0.07,0.97,0.48,1.28c0.21,0.15,0.45,0.23,0.68,0.24
			c0.02,0.35,0.2,0.69,0.51,0.92c0.39,0.28,0.89,0.31,1.29,0.11c-0.14,0.49,0.02,1.04,0.46,1.36c0.51,0.37,1.21,0.3,1.63-0.14
			c0.03,0.34,0.21,0.67,0.5,0.89c0.38,0.28,0.87,0.31,1.28,0.12c0.08,0.23,0.23,0.43,0.44,0.59c0.56,0.41,1.34,0.29,1.74-0.27
			c0.01-0.01,0.01-0.02,0.02-0.03c0.09,0.17,0.21,0.33,0.38,0.45c0.56,0.41,1.34,0.29,1.74-0.27c0.02-0.03,0.05-0.07,0.07-0.1
			c0.69,0.49,1.57,0.44,1.97-0.1c0.18-0.25,0.24-0.56,0.17-0.88c0.55,0.15,1.1,0.03,1.4-0.38c0.27-0.37,0.26-0.88,0.01-1.32
			c0.5,0.1,0.99-0.04,1.26-0.41c0.26-0.35,0.26-0.83,0.04-1.27c0.2-0.07,0.38-0.19,0.51-0.37c0.08-0.12,0.14-0.25,0.17-0.38
			c-0.12-0.27-0.32-0.52-0.59-0.72c-0.15-0.11-0.3-0.19-0.46-0.25c0.11-0.07,0.2-0.15,0.28-0.26c0.41-0.56,0.17-1.42-0.53-1.93
			c-0.39-0.29-0.85-0.4-1.24-0.35c0.01-0.02,0.03-0.03,0.04-0.05c0.41-0.56,0.17-1.42-0.53-1.93c-0.43-0.32-0.94-0.42-1.37-0.32
			c-0.12-0.18-0.28-0.35-0.47-0.49c-0.68-0.5-1.56-0.47-1.98,0.05c0.01-0.4-0.17-0.79-0.51-1.04c-0.56-0.41-1.34-0.29-1.74,0.27
			c-0.01,0.01-0.01,0.02-0.02,0.03c-0.09-0.18-0.22-0.35-0.39-0.47c-0.56-0.41-1.34-0.29-1.74,0.27c-0.03,0.05-0.06,0.1-0.09,0.15
			c-0.53-0.26-1.19-0.11-1.55,0.39c-0.13,0.17-0.2,0.37-0.23,0.57c-0.5-0.16-1.06,0.01-1.38,0.45c-0.19,0.26-0.26,0.57-0.23,0.86
			c-0.42-0.03-0.84,0.15-1.1,0.51c-0.18,0.24-0.25,0.52-0.24,0.8c-0.39-0.01-0.79,0.17-1.04,0.51c-0.31,0.43-0.31,0.99-0.04,1.41
			c-0.33-0.05-0.66,0.04-0.93,0.24C20.57,38.8,20.74,39.2,21.09,39.46z M36.54,40.96c-0.05,0.02-0.11,0.05-0.16,0.08l0.01-0.21
			C36.44,40.87,36.49,40.91,36.54,40.96z M36.36,38.82c-0.01,0-0.01,0.01-0.02,0.01l-0.01-0.02C36.34,38.81,36.35,38.82,36.36,38.82
			z M36.42,37.9c-0.05,0.02-0.11,0.05-0.16,0.08l0.01-0.21C36.31,37.82,36.36,37.86,36.42,37.9z M36.24,35.76
			c-0.01,0-0.01,0.01-0.02,0.01l-0.01-0.02C36.22,35.76,36.23,35.76,36.24,35.76z M31.62,34.26l-0.08-0.03
			c0.02-0.02,0.04-0.05,0.06-0.07c0.01-0.01,0.01-0.02,0.02-0.03C31.61,34.18,31.61,34.22,31.62,34.26z"/>
		<g class="st12">
			
				<ellipse transform="matrix(0.5903 -0.8072 0.8072 0.5903 -22.3501 40.3947)" class="st13" cx="28.62" cy="42.22" rx="1.25" ry="1.57"/>
			
				<ellipse transform="matrix(0.5903 -0.8072 0.8072 0.5903 -21.7012 36.4197)" class="st13" cx="25.03" cy="39.59" rx="1.25" ry="1.57"/>
			
				<ellipse transform="matrix(0.5903 -0.8072 0.8072 0.5903 -19.4547 38.5396)" class="st13" cx="28.24" cy="38.44" rx="1.25" ry="1.57"/>
			
				<ellipse transform="matrix(0.5903 -0.8072 0.8072 0.5903 -19.876 33.628)" class="st13" cx="23.19" cy="36.39" rx="1.25" ry="1.57"/>
			
				<ellipse transform="matrix(0.5903 -0.8072 0.8072 0.5903 -20.0638 42.8866)" class="st13" cx="32.22" cy="41.21" rx="1.25" ry="1.57"/>
			
				<ellipse transform="matrix(0.5903 -0.8072 0.8072 0.5903 -16.8663 42.4551)" class="st13" cx="33.39" cy="37.84" rx="1.25" ry="1.57"/>
			
				<ellipse transform="matrix(0.5903 -0.8072 0.8072 0.5903 -14.1234 43.2582)" class="st13" cx="35.55" cy="35.54" rx="1.25" ry="1.57"/>
			
				<ellipse transform="matrix(0.5903 -0.8072 0.8072 0.5903 -17.7453 45.7552)" class="st13" cx="36.2" cy="40.36" rx="1.25" ry="1.57"/>
			
				<ellipse transform="matrix(0.5903 -0.8072 0.8072 0.5903 -15.9538 39.1655)" class="st13" cx="30.61" cy="35.3" rx="1.25" ry="1.57"/>
			
				<ellipse transform="matrix(0.5903 -0.8072 0.8072 0.5903 -17.5244 35.3609)" class="st13" cx="26.07" cy="34.94" rx="1.25" ry="1.57"/>
			
				<ellipse transform="matrix(0.5903 -0.8072 0.8072 0.5903 -14.6117 34.8594)" class="st13" cx="27.04" cy="31.82" rx="1.25" ry="1.57"/>
			
				<ellipse transform="matrix(0.5903 -0.8072 0.8072 0.5903 -13.1098 39.3851)" class="st13" cx="32.25" cy="32.61" rx="1.25" ry="1.57"/>
		</g>
	</g>
	<g>
		<path class="st9" d="M63.14,74.7l-0.04-0.08c-0.03,0.03-0.06,0.06-0.09,0.09c0.01,0,0.02,0,0.03,0
			C63.07,74.7,63.11,74.7,63.14,74.7z"/>
		<path class="st10" d="M65.61,65.94c0,0.01,0.01,0.02,0.01,0.02l0.01-0.02C65.62,65.94,65.61,65.94,65.61,65.94z"/>
		<path class="st11" d="M74.91,77.52c-0.14,0.48-0.56,0.85-1.09,0.9c-0.42,0.04-0.81-0.14-1.07-0.44c-0.2,0.19-0.46,0.32-0.76,0.35
			c-0.45,0.04-0.86-0.16-1.11-0.49c-0.2,0.22-0.48,0.37-0.8,0.4c-0.55,0.05-1.04-0.26-1.25-0.74c-0.17,0.11-0.36,0.18-0.58,0.2
			c-0.61,0.05-1.16-0.34-1.31-0.91c-0.06,0.01-0.11,0.02-0.17,0.03c-0.69,0.06-1.29-0.44-1.35-1.13c-0.02-0.21,0.02-0.42,0.1-0.61
			c-0.01,0-0.02,0-0.04,0.01c-0.69,0.06-1.29-0.44-1.35-1.13c-0.04-0.42,0.14-0.82,0.44-1.07c-0.67,0.03-1.27-0.6-1.34-1.45
			c-0.02-0.24,0-0.47,0.06-0.68c-0.35-0.25-0.61-0.7-0.66-1.24c-0.08-0.86,0.42-1.61,1.1-1.67c0.02,0,0.04,0,0.07,0
			c-0.3-0.26-0.52-0.68-0.56-1.16c-0.08-0.86,0.42-1.61,1.1-1.67c0.13-0.01,0.26,0,0.38,0.04c-0.06-0.16-0.1-0.33-0.12-0.51
			c-0.03-0.33,0.03-0.65,0.15-0.92c-0.45,0.24-0.74,0.81-0.71,1.46c-0.17-0.08-0.36-0.12-0.55-0.11c-0.69,0.06-1.18,0.81-1.1,1.67
			c0.02,0.18,0.06,0.35,0.12,0.51c-0.12-0.04-0.25-0.05-0.38-0.04c-0.69,0.06-1.18,0.81-1.1,1.67c0.04,0.48,0.26,0.9,0.56,1.16
			c-0.02,0-0.04,0-0.07,0c-0.69,0.06-1.18,0.81-1.1,1.67c0.05,0.54,0.31,0.99,0.66,1.24c-0.06,0.21-0.08,0.44-0.06,0.68
			c0.08,0.85,0.67,1.48,1.34,1.45c-0.3,0.25-0.48,0.65-0.44,1.07c0.06,0.69,0.67,1.19,1.35,1.13c0.01,0,0.02,0,0.04-0.01
			c-0.08,0.18-0.12,0.39-0.1,0.61c0.06,0.69,0.67,1.19,1.35,1.13c0.06-0.01,0.11-0.02,0.17-0.03c0.16,0.57,0.7,0.96,1.31,0.91
			c0.21-0.02,0.41-0.09,0.58-0.2c0.21,0.48,0.71,0.79,1.25,0.74c0.32-0.03,0.6-0.18,0.8-0.4c0.25,0.33,0.66,0.53,1.11,0.49
			c0.3-0.03,0.56-0.16,0.76-0.35c0.25,0.3,0.65,0.48,1.07,0.44c0.53-0.05,0.95-0.42,1.09-0.9c0.24,0.38,0.68,0.61,1.16,0.57
			c0.69-0.06,1.19-0.67,1.13-1.35c-0.02-0.18-0.07-0.35-0.16-0.5c0.07,0,0.14,0.01,0.2,0c0.26-0.02,0.49-0.12,0.67-0.27
			C75.38,78,75.09,77.8,74.91,77.52z M63.1,74.62l0.04,0.08c-0.03,0-0.06,0-0.09,0c-0.01,0-0.02,0-0.03,0
			C63.04,74.68,63.07,74.65,63.1,74.62z"/>
		<path class="st10" d="M67.09,64.39c0,0.07,0,0.13,0,0.2l0.16-0.13C67.2,64.44,67.15,64.42,67.09,64.39z"/>
		<path class="st10" d="M65.35,72.59l-0.04-0.08c-0.03,0.03-0.06,0.06-0.09,0.09c0.01,0,0.02,0,0.03,0
			C65.29,72.59,65.32,72.59,65.35,72.59z"/>
		<path class="st10" d="M64.88,66.5c0,0.07,0,0.13,0,0.2l0.16-0.13C64.99,66.55,64.93,66.53,64.88,66.5z"/>
		<path class="st10" d="M63.39,68.05c0,0.01,0.01,0.02,0.01,0.02l0.01-0.02C63.41,68.05,63.4,68.05,63.39,68.05z"/>
		<path class="st10" d="M76.17,76.98c-0.03-0.31-0.17-0.58-0.37-0.78c0.42-0.23,0.69-0.7,0.64-1.2c-0.02-0.26-0.12-0.49-0.27-0.67
			c0.25-0.25,0.39-0.61,0.36-0.99c-0.04-0.48-0.35-0.87-0.77-1.04c0.46-0.22,0.77-0.7,0.72-1.24c-0.06-0.63-0.57-1.11-1.19-1.13
			c0.23-0.25,0.37-0.6,0.33-0.96c-0.04-0.47-0.34-0.86-0.75-1.04c0.12-0.21,0.17-0.46,0.15-0.72c-0.06-0.69-0.67-1.19-1.35-1.13
			c-0.01,0-0.02,0-0.03,0c0.07-0.18,0.1-0.37,0.09-0.58c-0.06-0.69-0.67-1.19-1.35-1.13c-0.04,0-0.08,0.01-0.12,0.02
			c-0.09-0.84-0.7-1.47-1.38-1.41c-0.31,0.03-0.58,0.2-0.78,0.45c-0.25-0.51-0.71-0.84-1.21-0.8c-0.46,0.04-0.83,0.39-1,0.87
			c-0.26-0.44-0.68-0.71-1.14-0.67c-0.44,0.04-0.79,0.36-0.98,0.8c-0.19-0.1-0.4-0.16-0.61-0.14c-0.14,0.01-0.28,0.06-0.4,0.12
			c-0.12,0.27-0.18,0.58-0.15,0.92c0.02,0.18,0.06,0.35,0.12,0.51C64.6,65,64.47,64.99,64.34,65c-0.69,0.06-1.18,0.81-1.1,1.67
			c0.04,0.48,0.26,0.9,0.56,1.16c-0.02,0-0.04,0-0.07,0c-0.69,0.06-1.18,0.81-1.1,1.67c0.05,0.54,0.31,0.99,0.66,1.24
			c-0.06,0.21-0.08,0.44-0.06,0.68c0.08,0.85,0.67,1.48,1.34,1.45c-0.3,0.25-0.48,0.65-0.44,1.07c0.06,0.69,0.67,1.19,1.35,1.13
			c0.01,0,0.02,0,0.04-0.01c-0.08,0.18-0.12,0.39-0.1,0.61c0.06,0.69,0.67,1.19,1.35,1.13c0.06-0.01,0.11-0.02,0.17-0.03
			c0.16,0.57,0.7,0.96,1.31,0.91c0.21-0.02,0.41-0.09,0.58-0.2c0.21,0.48,0.71,0.79,1.25,0.74c0.32-0.03,0.6-0.18,0.8-0.4
			c0.25,0.33,0.66,0.53,1.11,0.49c0.3-0.03,0.56-0.16,0.76-0.35c0.25,0.3,0.65,0.48,1.07,0.44c0.53-0.05,0.95-0.42,1.09-0.9
			c0.18,0.28,0.47,0.48,0.79,0.54C76.02,77.81,76.2,77.42,76.17,76.98z M67.09,64.39c0.05,0.03,0.11,0.05,0.16,0.07l-0.16,0.13
			C67.1,64.53,67.1,64.46,67.09,64.39z M65.61,65.94c0.01,0,0.01,0,0.02,0.01l-0.01,0.02C65.61,65.96,65.61,65.95,65.61,65.94z
			 M64.88,66.5c0.05,0.03,0.11,0.05,0.16,0.07l-0.16,0.13C64.88,66.64,64.88,66.57,64.88,66.5z M63.39,68.05
			c0.01,0,0.01,0,0.02,0.01l-0.01,0.02C63.4,68.07,63.4,68.06,63.39,68.05z M65.31,72.51l0.04,0.08c-0.03,0-0.06,0-0.09,0
			c-0.01,0-0.02,0-0.03,0C65.26,72.57,65.29,72.54,65.31,72.51z"/>
		<g class="st12">
			
				<ellipse transform="matrix(0.996 -0.0895 0.0895 0.996 -5.9241 6.8325)" class="st13" cx="73.27" cy="69.51" rx="1.25" ry="1.57"/>
			
				<ellipse transform="matrix(0.996 -0.0895 0.0895 0.996 -6.319 6.8858)" class="st13" cx="73.66" cy="73.94" rx="1.25" ry="1.57"/>
			
				<ellipse transform="matrix(0.996 -0.0895 0.0895 0.996 -6.1833 6.6121)" class="st13" cx="70.68" cy="72.29" rx="1.25" ry="1.57"/>
			
				<ellipse transform="matrix(0.996 -0.0895 0.0895 0.996 -6.6358 6.7937)" class="st13" cx="72.48" cy="77.43" rx="1.25" ry="1.57"/>
			
				<ellipse transform="matrix(0.996 -0.0895 0.0895 0.996 -5.7544 6.5442)" class="st13" cx="70.14" cy="67.47" rx="1.25" ry="1.57"/>
			
				<ellipse transform="matrix(0.996 -0.0895 0.0895 0.996 -5.8875 6.2541)" class="st13" cx="66.83" cy="68.81" rx="1.25" ry="1.57"/>
			
				<ellipse transform="matrix(0.996 -0.0895 0.0895 0.996 -5.8907 5.9714)" class="st13" cx="63.68" cy="68.71" rx="1.25" ry="1.57"/>
			
				<ellipse transform="matrix(0.996 -0.0895 0.0895 0.996 -5.5499 6.242)" class="st13" cx="66.87" cy="65.04" rx="1.25" ry="1.57"/>
			
				<ellipse transform="matrix(0.996 -0.0895 0.0895 0.996 -6.2251 6.2628)" class="st13" cx="66.76" cy="72.58" rx="1.25" ry="1.57"/>
			
				<ellipse transform="matrix(0.996 -0.0895 0.0895 0.996 -6.5397 6.5212)" class="st13" cx="69.49" cy="76.22" rx="1.25" ry="1.57"/>
			
				<ellipse transform="matrix(0.996 -0.0895 0.0895 0.996 -6.6713 6.2601)" class="st13" cx="66.51" cy="77.56" rx="1.25" ry="1.57"/>
			
				<ellipse transform="matrix(0.996 -0.0895 0.0895 0.996 -6.2865 5.9873)" class="st13" cx="63.66" cy="73.13" rx="1.25" ry="1.57"/>
		</g>
	</g>
	<g>
		<path class="st9" d="M50.85,47.01l0.08-0.04c-0.03-0.03-0.06-0.05-0.09-0.08c0,0.01,0,0.02,0.01,0.03
			C50.84,46.95,50.85,46.98,50.85,47.01z"/>
		<path class="st10" d="M59.72,49.03c-0.01,0-0.02,0.01-0.02,0.01l0.02,0.01C59.72,49.04,59.72,49.04,59.72,49.03z"/>
		<path class="st11" d="M48.63,58.91c-0.49-0.11-0.88-0.52-0.95-1.04c-0.06-0.42,0.1-0.82,0.39-1.09c-0.2-0.19-0.35-0.44-0.39-0.74
			c-0.06-0.44,0.12-0.86,0.44-1.13c-0.23-0.19-0.39-0.46-0.44-0.78c-0.08-0.54,0.21-1.06,0.68-1.29c-0.12-0.16-0.2-0.35-0.23-0.57
			c-0.09-0.61,0.28-1.17,0.84-1.36c-0.02-0.05-0.03-0.11-0.04-0.17c-0.1-0.68,0.38-1.31,1.06-1.41c0.21-0.03,0.42,0,0.61,0.07
			c0-0.01-0.01-0.02-0.01-0.04c-0.1-0.68,0.38-1.31,1.06-1.41c0.42-0.06,0.82,0.1,1.09,0.39c-0.07-0.67,0.54-1.3,1.38-1.42
			c0.24-0.03,0.47-0.02,0.68,0.03c0.23-0.36,0.67-0.64,1.2-0.72c0.86-0.12,1.63,0.33,1.73,1.02c0,0.02,0,0.04,0.01,0.07
			c0.25-0.31,0.65-0.55,1.13-0.62c0.86-0.12,1.63,0.33,1.73,1.02c0.02,0.13,0.01,0.26-0.02,0.38c0.15-0.07,0.32-0.12,0.5-0.14
			c0.33-0.05,0.65-0.01,0.92,0.1c-0.27-0.43-0.85-0.69-1.49-0.63c0.07-0.18,0.11-0.36,0.08-0.56c-0.1-0.68-0.87-1.14-1.73-1.02
			c-0.18,0.03-0.35,0.08-0.5,0.14c0.03-0.12,0.04-0.25,0.02-0.38c-0.1-0.68-0.87-1.14-1.73-1.02c-0.48,0.07-0.89,0.3-1.13,0.62
			c0-0.02,0-0.04-0.01-0.07c-0.1-0.68-0.87-1.14-1.73-1.02c-0.53,0.08-0.97,0.35-1.2,0.72c-0.21-0.05-0.44-0.06-0.68-0.03
			c-0.84,0.12-1.45,0.75-1.38,1.42c-0.27-0.29-0.67-0.45-1.09-0.39c-0.68,0.1-1.16,0.73-1.06,1.41c0,0.01,0,0.02,0.01,0.04
			c-0.19-0.07-0.4-0.1-0.61-0.07c-0.68,0.1-1.16,0.73-1.06,1.41c0.01,0.06,0.02,0.11,0.04,0.17c-0.56,0.19-0.93,0.75-0.84,1.36
			c0.03,0.21,0.11,0.41,0.23,0.57c-0.47,0.23-0.75,0.74-0.68,1.29c0.05,0.32,0.21,0.59,0.44,0.78c-0.32,0.27-0.5,0.69-0.44,1.13
			c0.04,0.3,0.18,0.55,0.39,0.74c-0.29,0.27-0.45,0.67-0.39,1.09c0.07,0.52,0.46,0.92,0.95,1.04c-0.36,0.26-0.57,0.71-0.51,1.19
			c0.1,0.68,0.73,1.16,1.41,1.06c0.18-0.03,0.35-0.09,0.5-0.18c0,0.07,0,0.14,0.01,0.2c0.04,0.25,0.15,0.48,0.31,0.66
			C48.17,59.4,48.36,59.11,48.63,58.91z M50.93,46.97l-0.08,0.04c0-0.03,0-0.06-0.01-0.09c0-0.01,0-0.02-0.01-0.03
			C50.86,46.91,50.89,46.94,50.93,46.97z"/>
		<path class="st10" d="M61.34,50.44c-0.07,0.01-0.13,0.01-0.2,0.01l0.14,0.16C61.3,50.55,61.32,50.49,61.34,50.44z"/>
		<path class="st10" d="M53.07,49.11l0.08-0.04c-0.03-0.03-0.06-0.05-0.09-0.08c0,0.01,0,0.02,0.01,0.03
			C53.06,49.05,53.06,49.08,53.07,49.11z"/>
		<path class="st10" d="M59.12,48.33c-0.07,0.01-0.13,0.01-0.2,0.01l0.14,0.16C59.08,48.44,59.1,48.39,59.12,48.33z"/>
		<path class="st10" d="M57.5,46.93c-0.01,0-0.02,0.01-0.02,0.01l0.02,0.01C57.5,46.94,57.5,46.93,57.5,46.93z"/>
		<path class="st10" d="M49.23,60.14c0.31-0.04,0.57-0.2,0.76-0.41c0.25,0.41,0.73,0.65,1.23,0.58c0.25-0.04,0.48-0.15,0.66-0.31
			c0.26,0.24,0.63,0.36,1.01,0.31c0.48-0.07,0.85-0.4,1-0.82c0.24,0.45,0.74,0.73,1.28,0.65c0.63-0.09,1.08-0.63,1.07-1.24
			c0.26,0.22,0.61,0.34,0.98,0.28c0.47-0.07,0.84-0.39,1-0.8c0.22,0.11,0.47,0.15,0.72,0.11c0.68-0.1,1.16-0.73,1.06-1.41
			c0-0.01,0-0.02-0.01-0.03c0.18,0.06,0.38,0.09,0.58,0.06c0.68-0.1,1.16-0.73,1.06-1.41c-0.01-0.04-0.01-0.08-0.02-0.12
			c0.84-0.13,1.43-0.78,1.34-1.45c-0.04-0.31-0.23-0.57-0.49-0.75c0.5-0.27,0.81-0.75,0.74-1.24c-0.06-0.45-0.43-0.81-0.92-0.96
			c0.43-0.28,0.68-0.72,0.62-1.17c-0.06-0.43-0.4-0.78-0.85-0.94c0.1-0.19,0.14-0.4,0.1-0.62c-0.02-0.14-0.07-0.27-0.14-0.39
			c-0.27-0.11-0.59-0.15-0.92-0.1c-0.18,0.03-0.35,0.08-0.5,0.14c0.03-0.12,0.04-0.25,0.02-0.38c-0.1-0.68-0.87-1.14-1.73-1.02
			c-0.48,0.07-0.89,0.3-1.13,0.62c0-0.02,0-0.04-0.01-0.07c-0.1-0.68-0.87-1.14-1.73-1.02c-0.53,0.08-0.97,0.35-1.2,0.72
			c-0.21-0.05-0.44-0.06-0.68-0.03c-0.84,0.12-1.45,0.75-1.38,1.42c-0.27-0.29-0.67-0.45-1.09-0.39c-0.68,0.1-1.16,0.73-1.06,1.41
			c0,0.01,0,0.02,0.01,0.04c-0.19-0.07-0.4-0.1-0.61-0.07c-0.68,0.1-1.16,0.73-1.06,1.41c0.01,0.06,0.02,0.11,0.04,0.17
			c-0.56,0.19-0.93,0.75-0.84,1.36c0.03,0.21,0.11,0.41,0.23,0.57c-0.47,0.23-0.75,0.74-0.68,1.29c0.05,0.32,0.21,0.59,0.44,0.78
			c-0.32,0.27-0.5,0.69-0.44,1.13c0.04,0.3,0.18,0.55,0.39,0.74c-0.29,0.27-0.45,0.67-0.39,1.09c0.07,0.52,0.46,0.92,0.95,1.04
			c-0.27,0.19-0.45,0.49-0.5,0.82C48.39,60.03,48.8,60.2,49.23,60.14z M61.34,50.44c-0.02,0.05-0.04,0.11-0.06,0.17l-0.14-0.16
			C61.21,50.45,61.27,50.44,61.34,50.44z M59.72,49.03c0,0.01,0,0.01,0,0.02l-0.02-0.01C59.71,49.04,59.71,49.03,59.72,49.03z
			 M59.12,48.33c-0.02,0.05-0.04,0.11-0.06,0.17l-0.14-0.16C58.99,48.34,59.06,48.34,59.12,48.33z M57.5,46.93c0,0.01,0,0.01,0,0.02
			l-0.02-0.01C57.49,46.93,57.49,46.93,57.5,46.93z M53.14,49.07l-0.08,0.04c0-0.03,0-0.06-0.01-0.09c0-0.01,0-0.02-0.01-0.03
			C53.08,49.02,53.11,49.05,53.14,49.07z"/>
		<g class="st12">
			
				<ellipse transform="matrix(0.9902 -0.1399 0.1399 0.9902 -7.3977 8.4681)" class="st13" cx="56.54" cy="56.86" rx="1.57" ry="1.25"/>
			
				<ellipse transform="matrix(0.9902 -0.1399 0.1399 0.9902 -7.5281 7.8579)" class="st13" cx="52.14" cy="57.48" rx="1.57" ry="1.25"/>
			
				<ellipse transform="matrix(0.9902 -0.1399 0.1399 0.9902 -7.0845 8.0372)" class="st13" cx="53.64" cy="54.42" rx="1.57" ry="1.25"/>
			
				<ellipse transform="matrix(0.9902 -0.1399 0.1399 0.9902 -7.4221 7.3522)" class="st13" cx="48.59" cy="56.48" rx="1.57" ry="1.25"/>
			
				<ellipse transform="matrix(0.9902 -0.1399 0.1399 0.9902 -6.9274 8.6988)" class="st13" cx="58.42" cy="53.63" rx="1.57" ry="1.25"/>
			
				<ellipse transform="matrix(0.9902 -0.1399 0.1399 0.9902 -6.4903 8.4563)" class="st13" cx="56.91" cy="50.4" rx="1.57" ry="1.25"/>
			
				<ellipse transform="matrix(0.9902 -0.1399 0.1399 0.9902 -6.0493 8.4177)" class="st13" cx="56.86" cy="47.24" rx="1.57" ry="1.25"/>
			
				<ellipse transform="matrix(0.9902 -0.1399 0.1399 0.9902 -6.4312 8.9821)" class="st13" cx="60.68" cy="50.24" rx="1.57" ry="1.25"/>
			
				<ellipse transform="matrix(0.9902 -0.1399 0.1399 0.9902 -6.544 7.9302)" class="st13" cx="53.14" cy="50.52" rx="1.57" ry="1.25"/>
			
				<ellipse transform="matrix(0.9902 -0.1399 0.1399 0.9902 -6.9851 7.4698)" class="st13" cx="49.65" cy="53.43" rx="1.57" ry="1.25"/>
			
				<ellipse transform="matrix(0.9902 -0.1399 0.1399 0.9902 -6.593 7.2333)" class="st13" cx="48.16" cy="50.52" rx="1.57" ry="1.25"/>
			
				<ellipse transform="matrix(0.9902 -0.1399 0.1399 0.9902 -6.1213 7.8017)" class="st13" cx="52.44" cy="47.45" rx="1.57" ry="1.25"/>
		</g>
	</g>
	<g>
		<path class="st9" d="M75.39,37.82l-0.03,0.08c0.04,0,0.08,0,0.12,0c-0.01-0.01-0.02-0.01-0.02-0.02
			C75.44,37.86,75.41,37.84,75.39,37.82z"/>
		<path class="st10" d="M67.41,42.2c0-0.01,0.01-0.02,0.01-0.02l-0.02,0.01C67.41,42.19,67.41,42.19,67.41,42.2z"/>
		<path class="st11" d="M69.15,27.44c0.44-0.24,1-0.2,1.4,0.15c0.32,0.27,0.47,0.68,0.43,1.07c0.28,0.01,0.55,0.1,0.78,0.3
			c0.34,0.29,0.49,0.72,0.43,1.14c0.3-0.01,0.6,0.09,0.85,0.29c0.42,0.36,0.54,0.93,0.35,1.41c0.2,0.04,0.39,0.13,0.55,0.27
			c0.47,0.4,0.57,1.06,0.27,1.57c0.05,0.03,0.09,0.06,0.14,0.1c0.53,0.45,0.59,1.23,0.14,1.76c-0.14,0.16-0.31,0.28-0.5,0.36
			c0.01,0.01,0.02,0.01,0.03,0.02c0.53,0.45,0.59,1.23,0.14,1.76c-0.28,0.32-0.68,0.47-1.07,0.43c0.49,0.45,0.46,1.33-0.09,1.97
			c-0.16,0.18-0.34,0.33-0.53,0.43c0.07,0.43-0.07,0.93-0.42,1.34c-0.56,0.66-1.44,0.83-1.97,0.39c-0.02-0.01-0.03-0.03-0.05-0.05
			c0.03,0.4-0.12,0.84-0.44,1.22c-0.56,0.66-1.44,0.83-1.97,0.39c-0.1-0.08-0.18-0.19-0.24-0.3c-0.07,0.15-0.16,0.3-0.28,0.44
			c-0.22,0.26-0.48,0.44-0.76,0.54c0.49,0.15,1.1-0.05,1.54-0.52c0.06,0.18,0.16,0.34,0.31,0.47c0.53,0.45,1.41,0.27,1.97-0.39
			c0.12-0.14,0.21-0.29,0.28-0.44c0.06,0.11,0.14,0.21,0.24,0.3c0.53,0.45,1.41,0.27,1.97-0.39c0.32-0.37,0.46-0.82,0.44-1.22
			c0.02,0.02,0.03,0.03,0.05,0.05c0.53,0.45,1.41,0.27,1.97-0.39c0.35-0.41,0.49-0.91,0.42-1.34c0.19-0.11,0.37-0.25,0.53-0.43
			c0.55-0.65,0.59-1.52,0.09-1.97c0.39,0.04,0.8-0.11,1.07-0.43c0.45-0.53,0.38-1.31-0.14-1.76c-0.01-0.01-0.02-0.01-0.03-0.02
			c0.19-0.07,0.36-0.19,0.5-0.36c0.45-0.53,0.38-1.31-0.14-1.76c-0.04-0.04-0.09-0.07-0.14-0.1c0.3-0.51,0.19-1.18-0.27-1.57
			c-0.16-0.14-0.35-0.23-0.55-0.27c0.19-0.48,0.07-1.06-0.35-1.41c-0.25-0.21-0.55-0.3-0.85-0.29c0.06-0.41-0.08-0.85-0.43-1.14
			c-0.23-0.19-0.5-0.29-0.78-0.3c0.04-0.39-0.11-0.8-0.43-1.07c-0.4-0.34-0.96-0.38-1.4-0.15c0.1-0.44-0.04-0.91-0.41-1.22
			c-0.53-0.45-1.31-0.38-1.76,0.14c-0.12,0.14-0.2,0.3-0.25,0.47c-0.04-0.05-0.09-0.1-0.14-0.15c-0.2-0.17-0.43-0.26-0.67-0.29
			C69.16,26.78,69.22,27.12,69.15,27.44z M75.36,37.9l0.03-0.08c0.02,0.02,0.04,0.04,0.07,0.06c0.01,0.01,0.02,0.01,0.02,0.02
			C75.44,37.9,75.4,37.9,75.36,37.9z"/>
		<path class="st10" d="M65.27,42.23c0.05-0.05,0.09-0.1,0.14-0.14l-0.21-0.02C65.23,42.12,65.25,42.17,65.27,42.23z"/>
		<path class="st10" d="M72.34,37.72L72.3,37.8c0.04,0,0.08,0,0.12,0c-0.01-0.01-0.02-0.01-0.02-0.02
			C72.38,37.76,72.36,37.74,72.34,37.72z"/>
		<path class="st10" d="M68.32,42.32c0.05-0.05,0.09-0.1,0.14-0.14l-0.21-0.02C68.28,42.21,68.31,42.27,68.32,42.32z"/>
		<path class="st10" d="M70.47,42.3c0-0.01,0.01-0.02,0.01-0.02l-0.02,0.01C70.46,42.29,70.47,42.29,70.47,42.3z"/>
		<path class="st10" d="M67.88,26.93c-0.2,0.24-0.3,0.53-0.3,0.81c-0.46-0.14-0.98,0-1.31,0.39c-0.17,0.2-0.26,0.43-0.29,0.67
			c-0.35,0-0.71,0.15-0.96,0.44c-0.31,0.37-0.37,0.86-0.2,1.28c-0.48-0.18-1.04-0.05-1.39,0.36c-0.41,0.48-0.39,1.18,0.02,1.64
			c-0.34,0.01-0.68,0.16-0.92,0.44c-0.31,0.36-0.37,0.85-0.21,1.26c-0.23,0.06-0.45,0.2-0.62,0.39c-0.45,0.53-0.38,1.31,0.14,1.76
			c0.01,0.01,0.02,0.01,0.03,0.02c-0.18,0.07-0.34,0.19-0.47,0.34c-0.45,0.53-0.38,1.31,0.14,1.76c0.03,0.03,0.06,0.05,0.09,0.07
			c-0.54,0.66-0.56,1.53-0.04,1.97c0.24,0.2,0.55,0.28,0.87,0.24c-0.19,0.54-0.11,1.1,0.28,1.42c0.35,0.3,0.85,0.32,1.32,0.11
			c-0.13,0.49-0.03,0.99,0.32,1.28c0.33,0.28,0.81,0.32,1.26,0.13c0.06,0.21,0.17,0.39,0.33,0.53c0.11,0.09,0.24,0.16,0.37,0.2
			c0.27-0.1,0.54-0.28,0.76-0.54c0.12-0.14,0.21-0.29,0.28-0.44c0.06,0.11,0.14,0.21,0.24,0.3c0.53,0.45,1.4,0.27,1.97-0.39
			c0.32-0.37,0.46-0.82,0.44-1.22c0.02,0.02,0.03,0.03,0.05,0.05c0.53,0.45,1.41,0.27,1.97-0.39c0.35-0.41,0.49-0.91,0.42-1.34
			c0.19-0.11,0.37-0.25,0.53-0.43c0.55-0.65,0.59-1.52,0.09-1.97c0.39,0.04,0.8-0.11,1.07-0.43c0.45-0.53,0.38-1.31-0.14-1.76
			c-0.01-0.01-0.02-0.01-0.03-0.02c0.19-0.07,0.36-0.19,0.5-0.36c0.45-0.53,0.38-1.31-0.14-1.76c-0.04-0.04-0.09-0.07-0.14-0.1
			c0.3-0.51,0.19-1.18-0.27-1.57c-0.16-0.14-0.35-0.23-0.55-0.27c0.19-0.48,0.07-1.06-0.35-1.41c-0.25-0.21-0.55-0.3-0.85-0.29
			c0.06-0.41-0.08-0.85-0.43-1.14c-0.23-0.19-0.5-0.29-0.78-0.3c0.04-0.39-0.11-0.8-0.43-1.07c-0.4-0.34-0.96-0.38-1.4-0.15
			c0.07-0.32,0.01-0.67-0.17-0.95C68.58,26.45,68.16,26.6,67.88,26.93z M65.27,42.23c-0.02-0.06-0.04-0.11-0.07-0.16l0.21,0.02
			C65.36,42.13,65.32,42.18,65.27,42.23z M67.41,42.2c0-0.01-0.01-0.01-0.01-0.02l0.02-0.01C67.42,42.19,67.42,42.19,67.41,42.2z
			 M68.32,42.32c-0.02-0.06-0.04-0.11-0.07-0.16l0.21,0.02C68.42,42.23,68.37,42.28,68.32,42.32z M70.47,42.3
			c0-0.01-0.01-0.01-0.01-0.02l0.02-0.01C70.48,42.29,70.47,42.29,70.47,42.3z M72.3,37.8l0.03-0.08c0.02,0.02,0.04,0.04,0.07,0.06
			c0.01,0.01,0.02,0.01,0.02,0.02C72.39,37.8,72.35,37.8,72.3,37.8z"/>
		<g class="st12">
			
				<ellipse transform="matrix(0.6474 -0.7622 0.7622 0.6474 -3.3174 61.3021)" class="st13" cx="64.59" cy="34.24" rx="1.57" ry="1.25"/>
			
				<ellipse transform="matrix(0.6474 -0.7622 0.7622 0.6474 0.2833 62.3016)" class="st13" cx="67.47" cy="30.84" rx="1.57" ry="1.25"/>
			
				<ellipse transform="matrix(0.6474 -0.7622 0.7622 0.6474 -1.8985 64.1596)" class="st13" cx="68.39" cy="34.13" rx="1.57" ry="1.25"/>
			
				<ellipse transform="matrix(0.6474 -0.7622 0.7622 0.6474 2.674 64.2665)" class="st13" cx="70.79" cy="29.24" rx="1.57" ry="1.25"/>
			
				<ellipse transform="matrix(0.6474 -0.7622 0.7622 0.6474 -5.8464 63.1594)" class="st13" cx="65.33" cy="37.9" rx="1.57" ry="1.25"/>
			
				<ellipse transform="matrix(0.6474 -0.7622 0.7622 0.6474 -5.7709 66.152)" class="st13" cx="68.6" cy="39.31" rx="1.57" ry="1.25"/>
			
				<ellipse transform="matrix(0.6474 -0.7622 0.7622 0.6474 -6.7883 68.6008)" class="st13" cx="70.74" cy="41.64" rx="1.57" ry="1.25"/>
			
				<ellipse transform="matrix(0.6474 -0.7622 0.7622 0.6474 -8.7259 65.0084)" class="st13" cx="65.89" cy="41.93" rx="1.57" ry="1.25"/>
			
				<ellipse transform="matrix(0.6474 -0.7622 0.7622 0.6474 -2.8289 67.3254)" class="st13" cx="71.34" cy="36.72" rx="1.57" ry="1.25"/>
			
				<ellipse transform="matrix(0.6474 -0.7622 0.7622 0.6474 0.8385 66.2607)" class="st13" cx="72.02" cy="32.22" rx="1.57" ry="1.25"/>
			
				<ellipse transform="matrix(0.6474 -0.7622 0.7622 0.6474 1.0072 68.9977)" class="st13" cx="75.07" cy="33.41" rx="1.57" ry="1.25"/>
			
				<ellipse transform="matrix(0.6474 -0.7622 0.7622 0.6474 -3.3183 69.9263)" class="st13" cx="73.91" cy="38.55" rx="1.57" ry="1.25"/>
		</g>
	</g>
</g>
</svg>
