<?xml version="1.0" encoding="utf-8"?>
<!-- Generator: Adobe Illustrator 23.1.1, SVG Export Plug-In . SVG Version: 6.00 Build 0)  -->
<svg version="1.1" id="Layer_1" xmlns="http://www.w3.org/2000/svg" xmlns:xlink="http://www.w3.org/1999/xlink" x="0px" y="0px"
	 viewBox="0 0 108 108" style="enable-background:new 0 0 108 108;" xml:space="preserve">
<style type="text/css">
	
		.st0{fill-rule:evenodd;clip-rule:evenodd;fill:none;stroke:#9ABC62;stroke-width:2.2174;stroke-linecap:round;stroke-miterlimit:10;}
	.st1{fill:#9CAF5F;}
	.st2{fill:#D9C791;}
	.st3{fill:#CAB87F;}
	.st4{fill:#CDB086;}
	.st5{fill-rule:evenodd;clip-rule:evenodd;fill:#CFBD83;}
	.st6{fill-rule:evenodd;clip-rule:evenodd;fill:#BFAF79;}
	.st7{fill:#CFBD83;}
	.st8{fill-rule:evenodd;clip-rule:evenodd;fill:#B9A975;}
	.st9{fill:#B9A975;}
	.st10{fill:#E0CB89;}
	.st11{fill:#89B763;}
	.st12{fill:#85B340;}
</style>
<g>
	<path class="st0" d="M73.9,50.9c-0.5-0.1-5,0.3-6.8-0.5c-1.8-0.8-4.7-1.8-4.7-1.8"/>
	<path class="st1" d="M70.5,48.1c0.4,1.3-0.2,2.3-0.7,3.8c-0.6,1.6-1.3,2.8-1.5,3.6c-0.1,0.9,0.5,2,0.7,3.9c0.2,1.9,0.6,3.6,0.6,3.6
		s3.4-1.7,5.7-0.3s4.1,3.3,4.5,3.8c0.4,0.4,1.7-4.3,2.4-5.7c0.7-1.4,3.4-2.1,3.9-2.3c0.5-0.2,9.4-2.3,9.4-2.3s-4.8-3-6.5-4.3
		c-1.7-1.3-5.3-6.8-4.7-9.3s2-4.8,2-4.8s-4.4,2.4-5.9,2.6c-1.4,0.2-6-0.3-6.5-0.5c-0.5-0.3-1.4-2-1.4-2s-0.3,2.1-1.1,3.3
		s-1.6,3.4-1.6,4.6C69.8,47,70.3,47.5,70.5,48.1z"/>
	<circle class="st2" cx="32.7" cy="60" r="18.6"/>
	<path class="st3" d="M19.6,56.1c0-5,2-9.5,5.1-12.8c-6,2.9-10.1,9.3-10.6,16.8c-0.7,10.3,8.3,18.6,18.6,18.6
		c5.3,0,10.1-2.2,13.5-5.8c-2.4,1.2-5.1,1.8-8,1.8C27.9,74.7,19.6,66.3,19.6,56.1z"/>
	<ellipse transform="matrix(0.3949 -0.9187 0.9187 0.3949 -17.6843 66.4666)" class="st4" cx="41.6" cy="46.7" rx="1.4" ry="1.9"/>
	<path class="st5" d="M36.7,56.3c0.8-1.3,0.2-1.9,1.3-1.5c1.1,0.4,1.1,0.4,1.7-0.1s1-2.8,0.8-1.7c-0.2,1.2-0.6,2.7-1.3,2.6
		c-0.7-0.1-0.1-0.1-0.7-0.1c-0.6,0-0.4-0.5-0.6,0S36.7,56.3,36.7,56.3z"/>
	<path class="st5" d="M37.7,51c-1.4,0.6-1.2,1.4-1.9,0.5c-0.6-1-0.7-0.9-1.5-0.9s-2.4,1.7-1.6,0.9c0.8-0.8,2-1.9,2.6-1.4
		c0.5,0.5,0,0.1,0.5,0.5s0,0.7,0.5,0.4C36.8,50.7,37.7,51,37.7,51z"/>
	<path class="st5" d="M27.5,56.9c1.1-0.9,0.8-1.7,1.7-1c0.9,0.7,0.9,0.7,1.7,0.4c0.8-0.3,1.8-2.4,1.3-1.3c-0.5,1-1.4,2.4-2.1,2.1
		c-0.7-0.3-0.1-0.1-0.7-0.3c-0.6-0.2-0.2-0.6-0.6-0.2S27.5,56.9,27.5,56.9z"/>
	<path class="st5" d="M36.9,60.9c1.3,0.8,1.9,0.2,1.5,1.3c-0.4,1.1-0.4,1.1,0.1,1.7c0.5,0.6,2.8,1,1.6,0.8s-2.7-0.6-2.6-1.3
		c0.1-0.7,0.1-0.1,0.1-0.7s0.5-0.4,0-0.6S36.9,60.9,36.9,60.9z"/>
	<path class="st5" d="M28.9,64.7c1.4-0.6,1.2-1.4,1.9-0.5c0.7,1,0.7,0.9,1.5,0.9c0.8-0.1,2.4-1.8,1.6-0.9s-2,1.9-2.6,1.4
		c-0.5-0.5,0-0.1-0.5-0.5c-0.5-0.4,0-0.7-0.5-0.4S28.9,64.7,28.9,64.7z"/>
	<path class="st5" d="M28.4,57.9c-0.8,1.2-0.2,1.9-1.3,1.4c-1.1-0.4-1.1-0.4-1.7,0.1c-0.6,0.5-1,2.8-0.8,1.6
		c0.2-1.1,0.6-2.7,1.4-2.6c0.7,0.1,0.1,0.1,0.7,0.1s0.4,0.5,0.6,0C27.5,58.1,28.4,57.9,28.4,57.9z"/>
	<path class="st5" d="M28.2,49.4c-0.7,1.3,0,1.9-1.1,1.6c-1.1-0.3-1.1-0.3-1.7,0.3s-0.7,2.9-0.7,1.7s0.4-2.8,1.1-2.7
		c0.7,0,0.1,0.1,0.7,0c0.6-0.1,0.5,0.5,0.6-0.1C27.4,49.7,28.2,49.4,28.2,49.4z"/>
	<path class="st5" d="M27.5,46.7c1.5-0.2,1.6-1.1,1.9,0c0.4,1.1,0.4,1.1,1.2,1.2c0.8,0.2,2.8-1.1,1.8-0.4c-1,0.6-2.5,1.3-2.9,0.7
		c-0.4-0.6,0-0.1-0.4-0.6c-0.4-0.5,0.1-0.7-0.4-0.5C28.3,47.3,27.5,46.7,27.5,46.7z"/>
	<path class="st5" d="M44.3,52.6c1.5,0.2,1.8-0.7,1.9,0.5c0.1,1.2,0.1,1.1,0.9,1.5c0.7,0.3,2.9-0.4,1.8,0s-2.7,0.7-2.9,0
		c-0.2-0.7,0-0.1-0.2-0.7c-0.3-0.6,0.3-0.6-0.3-0.6C44.9,53.3,44.3,52.6,44.3,52.6z"/>
	<path class="st5" d="M43.8,60c1.3,0.8,1.9,0.2,1.5,1.3c-0.4,1.1-0.4,1.1,0.1,1.7s2.8,1,1.6,0.8s-2.7-0.6-2.6-1.3s0.1-0.1,0.1-0.7
		s0.5-0.4,0-0.6C44,60.9,43.8,60,43.8,60z"/>
	<path class="st5" d="M42,66.6c-0.4,1.4,0.4,1.8-0.8,1.8c-1.2-0.1-1.1,0-1.6,0.6c-0.4,0.7-0.1,3-0.3,1.8c-0.2-1.1-0.3-2.8,0.5-2.9
		c0.7-0.1,0.1,0.1,0.7-0.1s0.6,0.4,0.6-0.2C41.2,67,42,66.6,42,66.6z"/>
	<path class="st5" d="M24.4,63c0.7,0.7,1.4,0.5,0.6,1s-0.9,0.7-1.3,0.5c-0.4-0.2-0.5-0.7-0.3-0.6c0.2,0.1,0.3,0,0.6,0.1
		c0.3,0.1,0.7,0,0.8-0.1C24.8,63.8,24.4,63,24.4,63z"/>
	<path class="st5" d="M22.9,58c-0.8,0.6-0.6,1.3-1,0.4s-0.6-1-0.3-1.4c0.3-0.4,0.7-0.5,0.6-0.3C22,57,22,57,21.9,57.3
		s-0.1,0.6,0,0.8C22.1,58.3,22.9,58,22.9,58z"/>
	<path class="st5" d="M29.7,53.2c-0.8,0.5-0.8,1.2-1.1,0.3c-0.3-0.9-0.4-1.1-0.1-1.4s0.8-0.3,0.6-0.2c-0.1,0.2-0.1,0.3-0.3,0.6
		c-0.2,0.3-0.2,0.6-0.1,0.8C28.8,53.4,29.7,53.2,29.7,53.2z"/>
	<path class="st5" d="M33.5,59.5c0.6,0.8,1.3,0.8,0.3,1.1c-0.9,0.3-1.1,0.5-1.4,0.2S32,60,32.2,60.2c0.2,0.1,0.3,0.1,0.6,0.2
		s0.6,0.1,0.8,0C33.8,60.4,33.5,59.5,33.5,59.5z"/>
	<path class="st5" d="M34.7,54.8c-0.6,0.8-0.4,1.4-1,0.6s-0.8-0.9-0.6-1.3c0.2-0.4,0.6-0.6,0.6-0.4c-0.1,0.2,0,0.3-0.1,0.6
		c-0.1,0.3,0,0.7,0.2,0.8C34,55.3,34.7,54.8,34.7,54.8z"/>
	<path class="st5" d="M35.2,46.6c-0.8,0.6-0.7,1.3-1.1,0.3s-0.5-1.1-0.2-1.4s0.8-0.4,0.6-0.2c-0.1,0.2-0.1,0.3-0.2,0.6
		c-0.1,0.3-0.1,0.6,0,0.8C34.4,46.8,35.2,46.6,35.2,46.6z"/>
	<path class="st5" d="M30.3,43.7c0.9,0.5,1.5,0.1,0.8,0.8c-0.7,0.7-0.8,0.9-1.2,0.8c-0.4-0.1-0.7-0.5-0.5-0.5c0.2,0,0.3,0,0.6,0
		c0.3,0,0.6-0.2,0.7-0.3C30.9,44.3,30.3,43.7,30.3,43.7z"/>
	<path class="st5" d="M25.7,48c-0.8,0.6-0.7,1.3-1.1,0.3c-0.3-0.9-0.5-1.1-0.2-1.4c0.3-0.3,0.8-0.4,0.6-0.2
		c-0.1,0.2-0.1,0.3-0.2,0.6c-0.1,0.3-0.1,0.6,0,0.8C24.9,48.3,25.7,48,25.7,48z"/>
	<path class="st5" d="M22.5,54c-0.9,0.3-1.1,1-1.1,0s-0.2-1.2,0.2-1.4s0.8-0.2,0.7,0c-0.2,0.1-0.2,0.2-0.4,0.5
		c-0.2,0.2-0.3,0.6-0.2,0.8C21.7,54.1,22.5,54,22.5,54z"/>
	<path class="st5" d="M40.8,58.5c0.7,0.7,1.4,0.5,0.5,1c-0.8,0.5-1,0.7-1.3,0.5s-0.5-0.7-0.3-0.6c0.2,0.1,0.3,0,0.6,0.1
		c0.3,0.1,0.7,0,0.8-0.1C41.2,59.2,40.8,58.5,40.8,58.5z"/>
	<path class="st5" d="M37.2,66.5c0.6,0.8,1.3,0.7,0.4,1.1c-0.9,0.4-1,0.5-1.4,0.3c-0.4-0.3-0.4-0.7-0.2-0.6c0.2,0.1,0.3,0.1,0.6,0.2
		c0.3,0.1,0.6,0.1,0.8,0S37.2,66.5,37.2,66.5z"/>
	<path class="st5" d="M32.1,69.3c-0.6,0.8-0.3,1.4-0.9,0.7c-0.6-0.8-0.8-0.9-0.6-1.3c0.2-0.4,0.6-0.6,0.5-0.4s0,0.3,0,0.6
		s0.1,0.6,0.2,0.8C31.4,69.8,32.1,69.3,32.1,69.3z"/>
	<path class="st5" d="M30,61c-0.6,0.8-0.3,1.4-0.9,0.7c-0.6-0.8-0.8-0.9-0.6-1.3C28.6,60,29,59.8,29,60c-0.1,0.2,0,0.3,0,0.6
		c0,0.3,0.1,0.6,0.2,0.8C29.3,61.5,30,61,30,61z"/>
	<path class="st5" d="M22.9,61.3c-0.6,0.8-0.3,1.4-0.9,0.7c-0.6-0.8-0.8-0.9-0.6-1.3c0.2-0.4,0.6-0.6,0.5-0.4c-0.1,0.2,0,0.3,0,0.6
		s0.1,0.6,0.2,0.8C22.2,61.8,22.9,61.3,22.9,61.3z"/>
	<path class="st5" d="M42.2,69.6c1,0.2,1.4-0.4,1,0.5c-0.4,0.9-0.4,1.1-0.8,1.2S41.5,71,41.8,71c0.2,0,0.3-0.1,0.6-0.2
		c0.3-0.1,0.5-0.4,0.6-0.6C42.9,70,42.2,69.6,42.2,69.6z"/>
	<path class="st5" d="M47.9,60.5c-1,0.1-1.2,0.8-1.1-0.2c0.1-1,0-1.2,0.5-1.4c0.4-0.2,0.9,0,0.7,0.1s-0.2,0.2-0.5,0.4
		C47.1,59.6,47,60,47,60.1C47,60.3,47.9,60.5,47.9,60.5z"/>
	<path class="st5" d="M42.9,62.9c0.3,0.3,0.9,0.8,0.3,0.9c-0.6,0.1-1.2,0.3-1,0C42.3,63.5,42.9,62.9,42.9,62.9z"/>
	<path class="st5" d="M32.8,57.2c0.3,0.3,0.9,0.8,0.3,0.9s-1.2,0.3-1,0S32.8,57.2,32.8,57.2z"/>
	<path class="st5" d="M42.4,56.1c0.3,0.3,0.9,0.8,0.3,0.9c-0.6,0.1-1.2,0.3-1,0C41.8,56.7,42.4,56.1,42.4,56.1z"/>
	<path class="st5" d="M39.7,49.8c0.3,0.3,0.9,0.8,0.3,0.9c-0.6,0.1-1.2,0.3-1,0C39.1,50.4,39.7,49.8,39.7,49.8z"/>
	<path class="st5" d="M30.9,50.4c0.3,0.3,0.9,0.8,0.3,0.9c-0.6,0.1-1.2,0.3-1,0C30.3,51,30.9,50.4,30.9,50.4z"/>
	<path class="st5" d="M26.1,54.2c0.3,0.3,0.9,0.8,0.3,0.9c-0.6,0.1-1.2,0.3-1,0C25.5,54.8,26.1,54.2,26.1,54.2z"/>
	<path class="st5" d="M27.7,62.4c0.3,0.3,0.9,0.8,0.3,0.9c-0.6,0.1-1.2,0.3-1,0C27.1,63,27.7,62.4,27.7,62.4z"/>
	<path class="st5" d="M26.7,67.2c0.3,0.3,0.9,0.8,0.3,0.9c-0.6,0.1-1.2,0.3-1,0C26.1,67.8,26.7,67.2,26.7,67.2z"/>
	<path class="st5" d="M46.8,66.6c0.3,0.3,0.9,0.8,0.3,0.9c-0.6,0.1-1.2,0.3-1,0S46.8,66.6,46.8,66.6z"/>
	<path class="st5" d="M23.6,56.9c0.7-0.4,0.6,1.5,0.2,0.9c-0.4-0.6-0.7-1.4-0.7-1.4S23.3,57,23.6,56.9z"/>
	<path class="st5" d="M31,53.1c0.7-0.4,0.6,1.5,0.2,0.9c-0.4-0.6-0.7-1.4-0.7-1.4S30.7,53.3,31,53.1z"/>
	<path class="st5" d="M30.5,60.2c0.7-0.4,0.6,1.5,0.2,0.9c-0.4-0.6-0.7-1.4-0.7-1.4S30.2,60.4,30.5,60.2z"/>
	<path class="st5" d="M36,57.9c0.7-0.4,0.6,1.5,0.2,0.9c-0.4-0.6-0.7-1.4-0.7-1.4S35.7,58,36,57.9z"/>
	<path class="st5" d="M43.4,50.4c0.7-0.4,0.6,1.5,0.2,0.9c-0.4-0.6-0.7-1.4-0.7-1.4S43.1,50.5,43.4,50.4z"/>
	<path class="st6" d="M45,56.7c0.7-0.4,0.6,1.5,0.2,0.9c-0.4-0.6-0.7-1.4-0.7-1.4S44.7,56.9,45,56.7z"/>
	<path class="st5" d="M48.7,62.1c0.7-0.4,0.6,1.5,0.2,0.9c-0.4-0.6-0.7-1.4-0.7-1.4S48.4,62.3,48.7,62.1z"/>
	<path class="st5" d="M35.9,71.8c0.7-0.4,0.6,1.5,0.2,0.9c-0.4-0.6-0.7-1.4-0.7-1.4S35.6,72,35.9,71.8z"/>
	<path class="st5" d="M29.1,69.7c0.7-0.4,0.6,1.5,0.2,0.9c-0.4-0.6-0.7-1.4-0.7-1.4S28.8,69.9,29.1,69.7z"/>
	<path class="st5" d="M23.1,50.1c-0.6,0.2-0.7,0.4-0.4,0.5c0.4,0.1,0.5,0.2,0.6,0C23.4,50.4,23.1,50.1,23.1,50.1z"/>
	<path class="st5" d="M27.7,48.3c-0.1,0.4,0,0.9-0.3,0.5c-0.3-0.5-0.1-0.7-0.1-0.7L27.7,48.3z"/>
	<path class="st5" d="M37,44.1c0.3-0.1,0.5,0,0.5,0.3c0,0.3-0.1,0.6-0.2,0.5c-0.2-0.2-0.4-0.6-0.4-0.6L37,44.1z"/>
	<path class="st5" d="M33.1,42.4c0.3,0.2,1.6,0.8,1.3,1c-0.2,0.2-0.7,1-1,1c-0.3,0-0.8,0-0.5-0.3c0.3-0.3,0.8-0.4,0.6-0.7
		s-0.2-0.1-0.4-0.4C32.9,42.7,33.1,42.4,33.1,42.4z"/>
	<path class="st5" d="M26.7,43.2c-0.5,0.4-0.7,1-0.6,1.1c0.1,0.2,0.4,0.6,0.8,0.5s1,0.1,1.1-0.3S27.8,44,27.7,44s-0.6,0-0.6-0.1
		C27,43.7,26.7,43.2,26.7,43.2z"/>
	<path class="st5" d="M22.1,48.5c-0.1,0.4-0.2,0.7,0.4,0.5s0.9-0.2,0.9-0.5c0-0.4-0.3-0.3-0.5-0.1C22.7,48.6,22.1,48.5,22.1,48.5z"
		/>
	<path class="st5" d="M37.8,47.7c0.5,0,1.6,0.4,1.2,0.6c-0.4,0.2-0.3,0.6-0.8,0.5c-0.6-0.1-1.5-0.3-1.4-0.5c0.1-0.2,0.3,0,0.9,0
		C38.3,48.2,37.8,47.7,37.8,47.7z"/>
	<path class="st5" d="M39.9,43.5c-0.2,0-0.6,0.5-0.5,0.8c0.1,0.3,0.2,0.7,0.5,0.6c0.3-0.2,0.6,0,0.5-0.3c-0.1-0.4-0.4-0.6-0.5-0.7
		C39.9,43.7,39.9,43.5,39.9,43.5z"/>
	<path class="st5" d="M46.8,50c0.4,0.4,1,0.7,0.6,1.1c-0.4,0.4-0.6,0.9-1,0.3c-0.3-0.5-0.5-1-0.4-1S46.8,50,46.8,50z"/>
	<path class="st5" d="M50.7,57.1c0,0.6,0,1.4-0.5,1c-0.6-0.4-1.1-0.8-1.1-1c0-0.2,0-0.6,0.4-0.1c0.4,0.5,0.4,0.5,0.6,0.5
		C50.2,57.5,50.7,57.1,50.7,57.1z"/>
	<path class="st5" d="M49.9,60.6c0.1,0.3,0.6,1.3,0,1c-0.6-0.2-1-0.3-1-0.5c0-0.2,0.4-0.3,0.5-0.1c0.1,0.2,0.3,0.5,0.4,0.3
		C49.8,61,49.9,60.6,49.9,60.6z"/>
	<path class="st5" d="M47,64.8c-0.3,0.1-0.5,0.6-0.3,0.7c0.2,0.1,0.6,0.3,0.8,0.1c0.2-0.2,0.5-0.6,0.2-0.5c-0.3,0.1-0.8,0.3-0.8,0.1
		C46.9,65.1,47,64.8,47,64.8z"/>
	<path class="st5" d="M43.4,65.9c0.5,0.2,1.3,0.7,0.9,0.7c-0.3,0.1-0.6,0.1-0.6-0.1C43.7,66.4,43.4,65.9,43.4,65.9z"/>
	<path class="st5" d="M39.3,66.1c-0.1,0.2-0.2,0.7,0,0.8c0.2,0.1,0.8-0.2,0.8-0.2c0-0.1-0.5-0.2-0.5-0.2L39.3,66.1z"/>
	<path class="st5" d="M35.6,63.1c0.4,0.3,1.2,0.8,0.9,1.4c-0.3,0.6-0.2,0.4-0.6,0.9c-0.4,0.5-1,0.9-0.7,0.4s0.8-0.8,0.7-1.1
		s-0.1-0.4-0.6-0.4c-0.4,0-0.4-0.4,0-0.3c0.4,0.1,0.6,0.1,0.6,0C35.8,63.9,35.6,63.1,35.6,63.1z"/>
	<path class="st5" d="M34.3,61.4c-0.1,0.4,0,1.3,0.3,1c0.4-0.3,0.7-0.6,0.6-0.7c-0.1-0.2-0.3,0-0.5,0S34.3,61.4,34.3,61.4z"/>
	<path class="st5" d="M33.2,68.5c0.1,0.4,0.1,1,0.6,0.6c0.5-0.4,0.7-0.8,0.5-0.8s-0.5,0.6-0.6,0.5S33.2,68.5,33.2,68.5z"/>
	<path class="st5" d="M33.1,71.3c0,0.5,0.3,1.1,0.6,0.8c0.3-0.4,0.7-0.5,0.6-0.8c-0.1-0.3-0.5-0.5-0.6-0.2
		C33.6,71.4,33.1,71.3,33.1,71.3z"/>
	<path class="st5" d="M39.6,71.9c0.2,0.3,0.8,0.6,0,0.7c-0.8,0.1-1,0-1-0.3c0-0.3-0.1-0.8,0-0.6C38.8,71.9,39.6,71.9,39.6,71.9z"/>
	<path class="st5" d="M45,70.6c0.5-0.3,0.8-0.3,1.2-0.2c0.4,0.1,1.1,0.3,0.4,0.6c-0.7,0.3-0.8,0-1.7,0.3s-1.1-0.3-0.6-0.3
		c0.4-0.1,0.7,0,0.7-0.1S45,70.4,45,70.4"/>
	<path class="st5" d="M37.7,52.5c0,0.6,0.4,1.2-0.3,0.8c-0.7-0.4-0.8-0.7-0.8-0.8c0-0.1,0.6-0.4,0.6-0.3
		C37.2,52.3,37.7,52.5,37.7,52.5z"/>
	<path class="st5" d="M41.3,61.6c-0.3,0.8-0.6,2.2,0,1.5c0.6-0.7,0.8-1,0.8-1.1c0-0.1-0.4,0-0.5-0.1C41.5,61.8,41.3,61.6,41.3,61.6z
		"/>
	<path class="st7" d="M42.9,52.8c0.1,1.1,0.2,2.1-0.4,1.4s-0.9-1.3-0.7-1.1c0.2,0.1,0.6,0.8,0.7,0.5S42.9,52.8,42.9,52.8z"/>
	<path class="st7" d="M41.5,50.2c0,0.2,0.4,1.2,0.2,1.5c-0.2,0.3-0.7,0.9-0.4,1.1s1.1,0.7,1.3,0.1c0.2-0.6,0.1-0.9-0.4-0.8
		s-0.6,0.5-0.3,0s0.4-0.3,0.3-0.8c-0.1-0.5-0.1-0.5-0.3-0.7C41.9,50.5,41.5,50.2,41.5,50.2z"/>
	<path class="st7" d="M44.5,47.5c-0.2,0.2-0.7,1.5-0.5,1.7c0.3,0.2,0.7,1.3,0.9,1s0.7-0.7,0.6-1c-0.1-0.3-0.2-0.1-0.6-0.3
		c-0.4-0.3-0.5-0.5-0.5-0.6s-0.1-0.7-0.1-0.7"/>
	<path class="st7" d="M26.1,65.1c-0.2,0.1-1,0.4-0.8,0.7c0.2,0.3,1.1,0.7,1.2,0.3c0.1-0.3,0.6-0.6,0.1-0.6c-0.5,0-0.7,0.4-0.9,0.1
		C25.5,65.4,26.1,65.1,26.1,65.1z"/>
	<path class="st7" d="M24,54.2c0.3,0,1,0.8,0.3,0.8c-0.7,0-1.3,0.3-1.3,0S24,54.2,24,54.2z"/>
	<path class="st8" d="M20.2,73.6c0.8-1.3,0.2-1.9,1.3-1.5s1.1,0.4,1.7-0.1c0.6-0.5,1-2.8,0.8-1.7s-0.6,2.7-1.3,2.6
		c-0.7-0.1-0.1-0.1-0.7-0.1c-0.6,0-0.4-0.5-0.6,0C21.1,73.4,20.2,73.6,20.2,73.6z"/>
	<path class="st8" d="M22.1,69.8c-1.4,0.6-1.2,1.4-1.9,0.5c-0.6-1-0.7-0.9-1.5-0.9c-0.8,0-2.4,1.7-1.6,0.9c0.8-0.8,2-1.9,2.6-1.4
		c0.5,0.5,0,0.1,0.5,0.5c0.5,0.4,0,0.7,0.5,0.4C21.2,69.4,22.1,69.8,22.1,69.8z"/>
	<path class="st8" d="M14.3,61.5c1.1-0.9,0.8-1.7,1.7-1c0.9,0.7,0.9,0.7,1.7,0.4c0.8-0.3,1.8-2.4,1.3-1.3s-1.4,2.4-2.1,2.1
		c-0.7-0.3-0.1-0.1-0.7-0.3c-0.6-0.2-0.2-0.6-0.6-0.2S14.3,61.5,14.3,61.5z"/>
	<path class="st8" d="M29.3,73.9c1.3,0.8,1.9,0.2,1.5,1.3s-0.4,1.1,0.1,1.7s2.8,1,1.6,0.8s-2.7-0.6-2.6-1.3c0.1-0.7,0.1-0.1,0.1-0.7
		s0.5-0.4,0-0.6S29.3,73.9,29.3,73.9z"/>
	<path class="st8" d="M34.6,76.2c1.4-0.6,1.2-1.4,1.9-0.5s0.7,0.9,1.5,0.9c0.8-0.1,2.4-1.8,1.6-0.9c-0.8,0.8-2,1.9-2.6,1.4
		c-0.5-0.5,0-0.1-0.5-0.5c-0.5-0.4,0-0.7-0.5-0.4C35.5,76.5,34.6,76.2,34.6,76.2z"/>
	<path class="st8" d="M28.9,72.7c-0.7,1.3,0,1.9-1.1,1.6s-1.1-0.3-1.7,0.3s-0.7,2.9-0.7,1.7c0.1-1.2,0.4-2.8,1.1-2.7
		c0.7,0,0.1,0.1,0.7,0c0.6-0.1,0.5,0.5,0.6-0.1C28,72.9,28.9,72.7,28.9,72.7z"/>
	<path class="st8" d="M14.1,57.6c1.5-0.2,1.6-1.1,1.9,0c0.4,1.1,0.4,1.1,1.2,1.2C18,59,20,57.8,19,58.4s-2.5,1.3-2.9,0.7
		c-0.4-0.6,0-0.1-0.4-0.6c-0.4-0.5,0.1-0.7-0.4-0.5C14.9,58.1,14.1,57.6,14.1,57.6z"/>
	<path class="st8" d="M18.3,57.2c-0.8,0.6-0.6,1.3-1,0.4c-0.4-0.9-0.6-1-0.3-1.4c0.3-0.4,0.7-0.5,0.6-0.3c-0.1,0.2-0.1,0.3-0.2,0.6
		c-0.1,0.3-0.1,0.6,0,0.8C17.5,57.5,18.3,57.2,18.3,57.2z"/>
	<path class="st8" d="M26.6,75.7c0.6,0.8,1.3,0.8,0.3,1.1c-0.9,0.3-1.1,0.5-1.4,0.2c-0.3-0.3-0.4-0.8-0.2-0.6s0.3,0.1,0.6,0.2
		c0.3,0.1,0.6,0.1,0.8,0S26.6,75.7,26.6,75.7z"/>
	<path class="st8" d="M26.8,71.9c-0.6,0.8-0.4,1.4-1,0.6s-0.8-0.9-0.6-1.3s0.6-0.6,0.6-0.4c-0.1,0.2,0,0.3-0.1,0.6
		c-0.1,0.3,0,0.7,0.2,0.8C26.1,72.4,26.8,71.9,26.8,71.9z"/>
	<path class="st8" d="M17.2,64.5c-0.8,0.6-0.7,1.3-1.1,0.3c-0.3-0.9-0.5-1.1-0.2-1.4c0.3-0.3,0.8-0.4,0.6-0.2
		c-0.1,0.2-0.1,0.3-0.2,0.6c-0.1,0.3-0.1,0.6,0,0.8S17.2,64.5,17.2,64.5z"/>
	<path class="st8" d="M17,53.6c0.9,0.5,1.5,0.1,0.8,0.8c-0.7,0.7-0.8,0.9-1.2,0.8c-0.4-0.1-0.7-0.5-0.5-0.5c0.2,0,0.3,0,0.6,0
		c0.3,0,0.6-0.2,0.7-0.3C17.6,54.2,17,53.6,17,53.6z"/>
	<path class="st8" d="M17.4,67.2c-0.8,0.6-0.7,1.3-1.1,0.3c-0.3-0.9-0.5-1.1-0.2-1.4c0.3-0.3,0.8-0.4,0.6-0.2
		c-0.1,0.2-0.1,0.3-0.2,0.6s-0.1,0.6,0,0.8C16.6,67.4,17.4,67.2,17.4,67.2z"/>
	<path class="st8" d="M20.8,48.6c-0.9,0.3-1.1,1-1.1,0c-0.1-1-0.2-1.2,0.2-1.4s0.8-0.2,0.7,0c-0.2,0.1-0.2,0.2-0.4,0.5
		s-0.3,0.6-0.2,0.8S20.8,48.6,20.8,48.6z"/>
	<path class="st8" d="M33.9,74.6c0.7,0.7,1.4,0.5,0.5,1s-1,0.7-1.3,0.5c-0.4-0.2-0.5-0.7-0.3-0.6c0.2,0.1,0.3,0,0.6,0.1
		s0.7,0,0.8-0.1C34.3,75.3,33.9,74.6,33.9,74.6z"/>
	<path class="st8" d="M21.7,67.8c0.3,0.3,0.9,0.8,0.3,0.9c-0.6,0.1-1.2,0.3-1,0C21.1,68.4,21.7,67.8,21.7,67.8z"/>
	<path class="st8" d="M19.6,63.5c0.3,0.3,0.9,0.8,0.3,0.9s-1.2,0.3-1,0C19,64.1,19.6,63.5,19.6,63.5z"/>
	<path class="st8" d="M19.2,49.3c0.3,0.3,0.9,0.8,0.3,0.9c-0.6,0.1-1.2,0.3-1,0C18.6,49.9,19.2,49.3,19.2,49.3z"/>
	<path class="st8" d="M17.4,59.5c0.3,0.3,0.9,0.8,0.3,0.9c-0.6,0.1-1.2,0.3-1,0C16.8,60.1,17.4,59.5,17.4,59.5z"/>
	<path class="st8" d="M16.7,52c0.7-0.4,0.6,1.5,0.2,0.9c-0.4-0.6-0.7-1.4-0.7-1.4S16.4,52.2,16.7,52z"/>
	<path class="st8" d="M22.7,69.8c0.7-0.4,0.6,1.5,0.2,0.9c-0.4-0.6-0.7-1.4-0.7-1.4S22.4,70,22.7,69.8z"/>
	<path class="st8" d="M22.2,66.7c0.7-0.4,0.6,1.5,0.2,0.9c-0.4-0.6-0.7-1.4-0.7-1.4S21.9,66.9,22.2,66.7z"/>
	<path class="st8" d="M19.7,61.1c-0.6,0.2-0.7,0.4-0.4,0.5c0.4,0.1,0.5,0.2,0.6,0C20,61.4,19.7,61.1,19.7,61.1z"/>
	<path class="st8" d="M18.3,62.7c-0.1,0.4-0.2,0.7,0.4,0.5s0.9-0.2,0.9-0.5c0-0.4-0.3-0.3-0.5-0.1C18.8,62.8,18.3,62.7,18.3,62.7z"
		/>
	<path class="st8" d="M19.8,65.7c0.5,0,1.6,0.4,1.2,0.6c-0.4,0.2-0.3,0.6-0.8,0.5c-0.6-0.1-1.5-0.3-1.4-0.5c0.1-0.2,0.3,0,0.9,0
		C20.2,66.2,19.8,65.7,19.8,65.7z"/>
	<path class="st8" d="M41.2,75c-0.1,0.2-0.2,0.7,0,0.8c0.2,0.1,0.8-0.2,0.8-0.2c0-0.1-0.5-0.2-0.5-0.2L41.2,75z"/>
	<path class="st8" d="M23.9,72.4c0.4,0.3,1.2,0.8,0.9,1.4c-0.3,0.6-0.2,0.4-0.6,0.9c-0.4,0.5-1,0.9-0.7,0.4c0.2-0.5,0.8-0.8,0.7-1.1
		c-0.1-0.3-0.1-0.4-0.6-0.4c-0.4,0-0.4-0.4,0-0.3c0.4,0.1,0.6,0.1,0.6,0C24.1,73.2,23.9,72.4,23.9,72.4z"/>
	<path class="st8" d="M28,76c-0.1,0.4,0,1.3,0.3,1s0.7-0.6,0.6-0.7c-0.1-0.2-0.3,0-0.5,0S28,76,28,76z"/>
	<path class="st8" d="M34.8,77.3c0.2,0.3,0.8,0.6,0,0.7c-0.8,0.1-1,0-1-0.3c0-0.3-0.1-0.8,0-0.6C33.9,77.3,34.8,77.3,34.8,77.3z"/>
	<path class="st8" d="M19.7,70.4c0,0.6,0.4,1.2-0.3,0.8s-0.8-0.7-0.8-0.8c0-0.1,0.6-0.4,0.6-0.3C19.1,70.3,19.7,70.4,19.7,70.4z"/>
	<path class="st9" d="M18.9,51.5c0.3,0,1,0.8,0.3,0.8c-0.7,0-1.3,0.3-1.3,0C17.9,52.1,18.9,51.5,18.9,51.5z"/>
	<circle class="st10" cx="68.1" cy="75.6" r="20"/>
	<path class="st7" d="M73,89.5c5.4-0.3,10.1-2.6,13.5-6.2c-2.9,6.6-9.5,11.4-17.5,12.3c-11,1.3-20.4-8-21-19.1
		c-0.3-5.7,1.9-11,5.5-14.8c-1.1,2.7-1.7,5.6-1.6,8.7C52.6,81.5,62,90.1,73,89.5z"/>
	<ellipse transform="matrix(0.9253 -0.3793 0.3793 0.9253 -17.9484 28.1298)" class="st4" cx="62.4" cy="59.6" rx="2.1" ry="1.5"/>
	<path class="st5" d="M71.9,71.1c1.3-0.9,2-0.3,1.5-1.4c-0.5-1.1-0.4-1.1,0.1-1.8s3-1.2,1.7-0.9c-1.2,0.2-2.9,0.8-2.7,1.5
		c0.1,0.8,0.1,0.1,0.1,0.8c0,0.7,0.6,0.4,0,0.7C72.1,70.1,71.9,71.1,71.9,71.1z"/>
	<path class="st5" d="M77.5,69.8c-0.5,1.5-1.5,1.4-0.4,2c1.1,0.6,1,0.7,1,1.5c0,0.9-1.7,2.7-0.9,1.8c0.9-0.9,1.9-2.3,1.4-2.8
		s-0.2,0-0.6-0.6c-0.4-0.5-0.7,0-0.4-0.5C77.9,70.7,77.5,69.8,77.5,69.8z"/>
	<path class="st5" d="M71.7,81c1-1.3,1.8-0.9,1-1.8c-0.8-0.9-0.8-0.9-0.5-1.8c0.3-0.8,2.4-2,1.4-1.4c-1.1,0.6-2.5,1.6-2.1,2.3
		c0.4,0.7,0.1,0.1,0.4,0.7s0.7,0.2,0.2,0.6S71.7,81,71.7,81z"/>
	<path class="st5" d="M66.9,71.2c-0.9-1.3-0.3-2-1.4-1.5c-1.1,0.5-1.1,0.5-1.8-0.1c-0.7-0.5-1.2-3-0.9-1.7s0.8,2.9,1.5,2.7
		c0.8-0.1,0.1-0.1,0.8-0.1c0.7,0,0.4-0.6,0.7,0C66,71,66.9,71.2,66.9,71.2z"/>
	<path class="st5" d="M63.2,79.9c0.6-1.5,1.5-1.4,0.4-2c-1.1-0.7-1-0.7-1-1.5c0-0.9,1.8-2.7,0.9-1.8s-1.9,2.3-1.4,2.8s0.2,0,0.6,0.6
		c0.4,0.5,0.7,0,0.4,0.5C62.8,79,63.2,79.9,63.2,79.9z"/>
	<path class="st5" d="M70.6,80.1c-1.3,0.9-2,0.3-1.5,1.5s0.5,1.1,0,1.8c-0.5,0.7-2.9,1.2-1.7,1c1.2-0.3,2.9-0.8,2.7-1.6
		C70,82,70,82.7,70,82c0-0.7-0.6-0.4,0-0.7C70.5,81.1,70.6,80.1,70.6,80.1z"/>
	<path class="st5" d="M79.7,79.9c-1.4,0.8-2,0.1-1.6,1.3c0.4,1.2,0.4,1.2-0.2,1.8c-0.6,0.7-3,0.9-1.8,0.8s2.9-0.5,2.9-1.3
		c-0.1-0.8-0.1-0.1-0.1-0.8c0-0.7-0.5-0.5,0-0.7S79.7,79.9,79.7,79.9z"/>
	<path class="st5" d="M82.7,80.5c0.1-1.6,1.1-1.7-0.1-2.1c-1.2-0.3-1.2-0.4-1.4-1.2c-0.2-0.8,1-3,0.4-1.9s-1.3,2.7-0.6,3.1
		s0.2,0,0.7,0.4c0.5,0.4,0.7-0.2,0.5,0.4C82,79.7,82.7,80.5,82.7,80.5z"/>
	<path class="st5" d="M75.5,62.8c-0.2-1.6,0.6-1.9-0.6-2c-1.2,0-1.2-0.1-1.6-0.9c-0.4-0.8,0.2-3.2-0.1-2s-0.6,2.9,0.2,3.1
		c0.8,0.2,0.1-0.1,0.8,0.2c0.6,0.3,0.6-0.3,0.6,0.3C74.7,62.2,75.5,62.8,75.5,62.8z"/>
	<path class="st5" d="M67.5,63.7c-0.9-1.3-0.3-2-1.4-1.5c-1.1,0.5-1.1,0.5-1.8-0.1c-0.7-0.5-1.2-3-0.9-1.7s0.8,2.9,1.5,2.7
		S65,63,65.6,63c0.7,0,0.4-0.6,0.7,0C66.6,63.5,67.5,63.7,67.5,63.7z"/>
	<path class="st5" d="M60.6,65.9c-1.5,0.5-2-0.3-1.9,0.9c0.1,1.2,0.1,1.2-0.6,1.7c-0.7,0.5-3.2,0.2-1.9,0.4c1.2,0.1,3,0.1,3.1-0.6
		c0.1-0.8-0.1-0.1,0.1-0.8c0.2-0.7-0.4-0.6,0.2-0.7C60.1,66.8,60.6,65.9,60.6,65.9z"/>
	<path class="st5" d="M65.3,84.8c-0.8-0.7-0.6-1.5-1.1-0.6c-0.5,0.9-0.7,1.1-0.5,1.5s0.7,0.6,0.6,0.3c-0.1-0.2-0.1-0.3-0.1-0.6
		c-0.1-0.3,0-0.7,0.1-0.9C64.5,84.3,65.3,84.8,65.3,84.8z"/>
	<path class="st5" d="M70.8,86.1c-0.6,0.8-1.4,0.7-0.4,1.1c1,0.4,1.1,0.6,1.5,0.3s0.5-0.8,0.2-0.7c-0.2,0.1-0.3,0.1-0.6,0.2
		c-0.3,0.1-0.7,0.1-0.9,0C70.5,86.9,70.8,86.1,70.8,86.1z"/>
	<path class="st5" d="M75.6,78.6c-0.5,0.9-1.3,0.9-0.2,1.2c1,0.3,1.2,0.4,1.5,0c0.3-0.3,0.3-0.9,0.1-0.7c-0.2,0.2-0.3,0.1-0.6,0.3
		c-0.3,0.2-0.7,0.2-0.9,0.1C75.4,79.4,75.6,78.6,75.6,78.6z"/>
	<path class="st5" d="M68.6,74.7c-0.9-0.5-0.9-1.3-1.2-0.3c-0.3,1-0.5,1.2-0.1,1.5c0.3,0.3,0.9,0.4,0.7,0.2
		c-0.2-0.2-0.1-0.3-0.3-0.6c-0.2-0.3-0.2-0.7-0.1-0.9C67.7,74.5,68.6,74.7,68.6,74.7z"/>
	<path class="st5" d="M73.6,73.2c-0.8,0.7-1.5,0.5-0.6,1.1s1,0.8,1.4,0.5s0.6-0.7,0.4-0.6s-0.3,0-0.7,0.1s-0.7,0-0.8-0.2
		C73.1,74,73.6,73.2,73.6,73.2z"/>
	<path class="st5" d="M82.4,72.3c-0.6,0.9-1.3,0.9-0.3,1.2c1,0.3,1.2,0.5,1.5,0.1c0.3-0.3,0.4-0.8,0.2-0.7c-0.2,0.2-0.3,0.1-0.6,0.3
		c-0.3,0.2-0.7,0.2-0.9,0.1S82.4,72.3,82.4,72.3z"/>
	<path class="st5" d="M85.8,77.4c-0.6-0.9-0.2-1.6-0.9-0.8c-0.7,0.8-0.9,0.9-0.8,1.3c0.1,0.5,0.6,0.7,0.5,0.5c-0.1-0.2,0-0.3,0-0.7
		s0.1-0.7,0.3-0.8C85.1,76.8,85.8,77.4,85.8,77.4z"/>
	<path class="st5" d="M81.4,82.6c-0.6,0.9-1.3,0.9-0.3,1.2s1.2,0.5,1.5,0.1s0.4-0.8,0.2-0.7s-0.3,0.1-0.6,0.3
		c-0.3,0.2-0.7,0.2-0.9,0.1S81.4,82.6,81.4,82.6z"/>
	<path class="st5" d="M75.1,86.3c-0.3,1-1,1.2,0,1.2c1.1,0,1.3,0.1,1.5-0.3c0.2-0.4,0.1-0.9,0-0.7c-0.1,0.2-0.3,0.2-0.5,0.4
		c-0.3,0.2-0.6,0.3-0.8,0.3C75.1,87.2,75.1,86.3,75.1,86.3z"/>
	<path class="st5" d="M69.3,66.8c-0.8-0.7-0.6-1.5-1.1-0.5s-0.7,1.1-0.4,1.5c0.3,0.4,0.8,0.5,0.6,0.3c-0.1-0.2-0.1-0.3-0.2-0.6
		c-0.1-0.3,0-0.7,0.1-0.9S69.3,66.8,69.3,66.8z"/>
	<path class="st5" d="M61,71.2c-0.9-0.6-0.8-1.4-1.2-0.4c-0.4,1-0.5,1.2-0.2,1.5s0.8,0.4,0.7,0.2c-0.1-0.2-0.1-0.3-0.2-0.6
		c-0.1-0.3-0.1-0.7,0-0.9C60.1,70.9,61,71.2,61,71.2z"/>
	<path class="st5" d="M58.1,76.7c-0.8,0.7-1.5,0.4-0.7,1s1,0.8,1.4,0.6s0.6-0.7,0.4-0.6c-0.2,0.1-0.3,0-0.7,0.1
		c-0.3,0.1-0.7,0-0.8-0.2C57.6,77.5,58.1,76.7,58.1,76.7z"/>
	<path class="st5" d="M67.2,78.6c-0.8,0.7-1.5,0.4-0.7,1c0.9,0.6,1,0.8,1.4,0.6c0.4-0.2,0.6-0.7,0.4-0.6c-0.2,0.1-0.3,0-0.7,0.1
		c-0.3,0.1-0.7,0-0.8-0.2C66.7,79.4,67.2,78.6,67.2,78.6z"/>
	<path class="st5" d="M67.2,86.2c-0.8,0.7-1.5,0.4-0.7,1c0.9,0.6,1,0.8,1.4,0.6c0.4-0.2,0.6-0.7,0.4-0.6s-0.3,0-0.7,0.1
		c-0.3,0.1-0.7,0-0.8-0.2C66.7,87,67.2,86.2,67.2,86.2z"/>
	<path class="st5" d="M57.3,65.9c-0.2-1,0.4-1.5-0.6-1.1c-1,0.5-1.2,0.5-1.2,1c0,0.5,0.3,0.9,0.3,0.6s0.1-0.3,0.2-0.6
		c0.1-0.3,0.4-0.6,0.6-0.6C56.9,65.1,57.3,65.9,57.3,65.9z"/>
	<path class="st5" d="M66.9,59.4c-0.1,1.1-0.8,1.4,0.2,1.2c1-0.2,1.3-0.1,1.4-0.6s0-0.9-0.1-0.7c-0.1,0.2-0.2,0.2-0.4,0.5
		c-0.2,0.3-0.5,0.5-0.7,0.4S66.9,59.4,66.9,59.4z"/>
	<path class="st5" d="M64.4,64.9c-0.4-0.3-0.9-0.9-1-0.2c-0.1,0.6-0.3,1.3,0.1,1.1C63.8,65.5,64.4,64.9,64.4,64.9z"/>
	<path class="st5" d="M71.2,75.3c-0.4-0.3-0.9-0.9-1-0.2s-0.3,1.3,0.1,1.1C70.5,76,71.2,75.3,71.2,75.3z"/>
	<path class="st5" d="M71.8,65c-0.4-0.3-0.9-0.9-1-0.2s-0.3,1.3,0.1,1.1C71.2,65.7,71.8,65,71.8,65z"/>
	<path class="st5" d="M78.7,67.6c-0.4-0.3-0.9-0.9-1-0.2c-0.1,0.6-0.3,1.3,0.1,1.1C78.1,68.2,78.7,67.6,78.7,67.6z"/>
	<path class="st5" d="M78.6,77.1c-0.4-0.3-0.9-0.9-1-0.2s-0.3,1.3,0.1,1.1S78.6,77.1,78.6,77.1z"/>
	<path class="st5" d="M74.7,82.5c-0.4-0.3-0.9-0.9-1-0.2s-0.3,1.3,0.1,1.1C74.1,83.1,74.7,82.5,74.7,82.5z"/>
	<path class="st5" d="M65.8,81.2c-0.4-0.3-0.9-0.9-1-0.2c-0.1,0.6-0.3,1.3,0.1,1.1C65.2,81.8,65.8,81.2,65.8,81.2z"/>
	<path class="st5" d="M60.7,82.4c-0.4-0.3-0.9-0.9-1-0.2s-0.3,1.3,0.1,1.1C60.1,83.1,60.7,82.4,60.7,82.4z"/>
	<path class="st5" d="M60.3,60.8c-0.4-0.3-0.9-0.9-1-0.2c-0.1,0.6-0.3,1.3,0.1,1.1C59.7,61.5,60.3,60.8,60.3,60.8z"/>
	<path class="st5" d="M72,85.2c0.4-0.7-1.6-0.6-1-0.1c0.7,0.5,1.6,0.6,1.6,0.6S71.8,85.6,72,85.2z"/>
	<path class="st5" d="M75.7,77.1c0.4-0.7-1.6-0.6-1-0.1c0.7,0.5,1.6,0.6,1.6,0.6S75.5,77.4,75.7,77.1z"/>
	<path class="st5" d="M68,78c0.4-0.7-1.6-0.6-1-0.1c0.7,0.5,1.6,0.6,1.6,0.6S67.8,78.3,68,78z"/>
	<path class="st5" d="M70.3,71.9c0.4-0.7-1.6-0.6-1-0.1c0.7,0.5,1.6,0.6,1.6,0.6S70.1,72.3,70.3,71.9z"/>
	<path class="st5" d="M77.9,63.7c0.4-0.7-1.6-0.6-1-0.1s1.6,0.6,1.6,0.6S77.8,64,77.9,63.7z"/>
	<path class="st5" d="M71,62.2c0.4-0.7-1.6-0.6-1-0.1s1.6,0.6,1.6,0.6S70.8,62.6,71,62.2z"/>
	<path class="st5" d="M65,58.6c0.4-0.7-1.6-0.6-1-0.1c0.7,0.5,1.6,0.6,1.6,0.6S64.8,58.9,65,58.6z"/>
	<path class="st5" d="M55.3,72.8c0.4-0.7-1.6-0.6-1-0.1c0.7,0.5,1.6,0.6,1.6,0.6S55.1,73.1,55.3,72.8z"/>
	<path class="st5" d="M57.8,79.9c0.4-0.7-1.6-0.6-1-0.1c0.7,0.5,1.6,0.6,1.6,0.6S57.7,80.3,57.8,79.9z"/>
	<path class="st5" d="M79.3,85.4c-0.2,0.7-0.4,0.8-0.6,0.4c-0.1-0.4-0.2-0.6,0-0.6C78.9,85.1,79.3,85.4,79.3,85.4z"/>
	<path class="st5" d="M80.9,80.4c-0.4,0.2-1,0-0.5,0.3c0.5,0.3,0.7,0.1,0.7,0.1L80.9,80.4z"/>
	<path class="st5" d="M85,70.2c0.1-0.3,0-0.6-0.3-0.5c-0.3,0.1-0.7,0.1-0.5,0.3c0.2,0.2,0.7,0.4,0.7,0.4L85,70.2z"/>
	<path class="st5" d="M87,74.3c-0.2-0.4-1-1.7-1.2-1.4c-0.2,0.3-1,0.8-1,1.1c0,0.3,0,0.9,0.3,0.5c0.3-0.3,0.4-0.9,0.7-0.7
		s0.1,0.2,0.5,0.5S87,74.3,87,74.3z"/>
	<path class="st5" d="M86.5,81.2c-0.4,0.6-1,0.8-1.2,0.7c-0.2-0.1-0.6-0.4-0.6-0.8c0.1-0.4-0.2-1.1,0.3-1.2c0.5-0.1,0.6,0.1,0.6,0.3
		c0,0.2,0,0.6,0.2,0.7C86,81,86.5,81.2,86.5,81.2z"/>
	<path class="st5" d="M81.1,86.4c-0.4,0.2-0.7,0.2-0.6-0.4s0.1-1,0.5-1c0.4,0,0.4,0.3,0.2,0.5C80.9,85.8,81.1,86.4,81.1,86.4z"/>
	<path class="st5" d="M81.1,69.6c0-0.6-0.5-1.6-0.7-1.2s-0.6,0.3-0.5,0.9c0.2,0.6,0.4,1.6,0.6,1.5c0.3-0.2-0.1-0.4,0-1
		S81.1,69.6,81.1,69.6z"/>
	<path class="st5" d="M85.5,67c0,0.2-0.5,0.7-0.8,0.6c-0.3-0.1-0.8-0.2-0.6-0.5c0.2-0.3-0.1-0.7,0.3-0.5c0.4,0.1,0.6,0.4,0.8,0.5
		S85.5,67,85.5,67z"/>
	<path class="st5" d="M78.2,60c-0.4-0.4-0.8-1-1.2-0.6c-0.4,0.4-0.9,0.7-0.3,1s1.1,0.5,1.1,0.4C77.7,60.6,78.2,60,78.2,60z"/>
	<path class="st5" d="M70.3,56.2c-0.7,0-1.5,0-1,0.6s0.9,1.2,1.1,1.1c0.2-0.1,0.6-0.1,0.1-0.4C70,57.1,69.9,57,70,56.8
		C70,56.7,70.3,56.2,70.3,56.2z"/>
	<path class="st5" d="M66.6,57.2c-0.3-0.1-1.4-0.6-1.1,0.1c0.3,0.7,0.4,1.1,0.6,1c0.2-0.1,0.3-0.4,0.1-0.5c-0.2-0.1-0.5-0.3-0.3-0.4
		S66.6,57.2,66.6,57.2z"/>
	<path class="st5" d="M62.2,60.5c-0.1,0.3-0.6,0.5-0.7,0.3c-0.1-0.2-0.4-0.6-0.2-0.8c0.2-0.2,0.6-0.6,0.5-0.2
		c-0.1,0.4-0.2,0.8-0.1,0.8C62,60.7,62.2,60.5,62.2,60.5z"/>
	<path class="st5" d="M61.2,64.4c-0.2-0.5-0.8-1.3-0.8-1c-0.1,0.4-0.1,0.7,0.1,0.7C60.7,64.2,61.2,64.4,61.2,64.4z"/>
	<path class="st5" d="M61.3,68.9c-0.2,0.2-0.8,0.3-0.8,0s0.1-0.9,0.2-0.9c0.1,0,0.2,0.5,0.2,0.5L61.3,68.9z"/>
	<path class="st5" d="M64.6,72.7c-0.4-0.4-1-1.3-1.6-0.9s-0.4,0.2-0.9,0.7s-0.9,1.1-0.4,0.8c0.5-0.3,0.9-0.9,1.1-0.8
		c0.3,0.1,0.4,0.1,0.5,0.6s0.5,0.4,0.3,0c-0.1-0.4-0.2-0.6,0-0.6C63.7,72.5,64.6,72.7,64.6,72.7z"/>
	<path class="st5" d="M66.6,74c-0.4,0.1-1.4,0.1-1.1-0.3c0.3-0.4,0.6-0.8,0.8-0.7c0.2,0.1,0,0.3,0.1,0.5C66.4,73.7,66.6,74,66.6,74z
		"/>
	<path class="st5" d="M58.9,75.5c-0.4-0.1-1.1-0.1-0.6-0.6c0.4-0.5,0.9-0.8,0.8-0.6c0,0.2-0.6,0.5-0.5,0.7S58.9,75.5,58.9,75.5z"/>
	<path class="st5" d="M56,75.7c-0.5,0-1.2-0.3-0.9-0.7s0.5-0.7,0.8-0.7c0.3,0.1,0.5,0.5,0.2,0.6C55.8,75.2,56,75.7,56,75.7z"/>
	<path class="st5" d="M55,68.8c-0.3-0.2-0.7-0.8-0.8,0c-0.1,0.8,0,1.1,0.3,1.1c0.3,0,0.9,0.1,0.7,0S55,68.8,55,68.8z"/>
	<path class="st5" d="M56.1,62.9c0.2-0.6,0.3-0.9,0.2-1.3c-0.1-0.4-0.4-1.1-0.7-0.4c-0.3,0.7,0.1,0.9-0.3,1.8s0.3,1.1,0.4,0.6
		c0.1-0.5-0.1-0.7,0.1-0.8c0.2-0.1,0.4,0.1,0.4,0.1"/>
	<path class="st5" d="M75.9,69.9c-0.6,0-1.3-0.3-0.9,0.4c0.4,0.7,0.8,0.8,0.9,0.9c0.1,0,0.4-0.7,0.3-0.7
		C76.2,70.5,75.9,69.9,75.9,69.9z"/>
	<path class="st5" d="M81.6,65.3c-0.6,0-1.3-0.3-0.9,0.4c0.4,0.7,0.8,0.8,0.9,0.9s0.4-0.7,0.3-0.7C81.9,65.8,81.6,65.3,81.6,65.3z"
		/>
	<path class="st5" d="M65.9,66.5c-0.9,0.4-2.3,0.7-1.6,0.1c0.7-0.6,1-0.9,1.2-0.9c0.1,0,0,0.4,0.2,0.5
		C65.8,66.3,65.9,66.5,65.9,66.5z"/>
	<path class="st7" d="M75.3,64.3c-1.2,0-2.3-0.1-1.5,0.5c0.8,0.6,1.4,0.9,1.2,0.7c-0.2-0.2-0.9-0.6-0.6-0.8S75.3,64.3,75.3,64.3z"/>
	<path class="st7" d="M78.2,65.6c-0.2,0-1.4-0.4-1.7-0.2s-0.9,0.8-1.1,0.5c-0.3-0.4-0.8-1.2-0.2-1.4c0.6-0.2,1-0.2,0.9,0.4
		c-0.1,0.5-0.5,0.7,0,0.3c0.5-0.3,0.3-0.5,0.9-0.4c0.6,0.1,0.5,0,0.7,0.2S78.2,65.6,78.2,65.6z"/>
	<path class="st7" d="M80.9,62.3c-0.2,0.2-1.6,0.9-1.8,0.6s-1.5-0.6-1.1-1c0.4-0.3,0.7-0.8,1-0.7c0.3,0.1,0.1,0.2,0.4,0.6
		s0.5,0.5,0.7,0.5c0.2,0,0.8,0.1,0.8,0.1"/>
	<path class="st7" d="M63,83c-0.1,0.2-0.4,1.1-0.7,0.9s-0.8-1.1-0.4-1.2s0.6-0.7,0.6-0.2c0,0.5-0.4,0.8-0.1,1S63,83,63,83z"/>
	<path class="st7" d="M74.8,84.7c0-0.3-0.9-1-0.9-0.3s-0.2,1.4,0.1,1.4C74.3,85.8,74.8,84.7,74.8,84.7z"/>
	<path class="st8" d="M54.1,89.7c1.3-0.9,2-0.3,1.5-1.4c-0.5-1.1-0.4-1.1,0.1-1.8c0.5-0.7,3-1.2,1.7-0.9s-2.9,0.8-2.7,1.5
		c0.1,0.8,0.1,0.1,0.1,0.8s0.6,0.4,0,0.7C54.3,88.8,54.1,89.7,54.1,89.7z"/>
	<path class="st8" d="M58.2,87.5c-0.5,1.5-1.5,1.4-0.4,2c1.1,0.6,1,0.7,1,1.5c0,0.9-1.7,2.7-0.9,1.8c0.9-0.9,1.9-2.3,1.4-2.8
		c-0.6-0.6-0.2,0-0.6-0.6c-0.4-0.5-0.7,0-0.4-0.5S58.2,87.5,58.2,87.5z"/>
	<path class="st8" d="M67.5,95.4c1-1.3,1.8-0.9,1-1.8c-0.8-0.9-0.8-0.9-0.5-1.8c0.3-0.8,2.4-2,1.4-1.4s-2.5,1.6-2.1,2.3
		c0.4,0.7,0.1,0.1,0.4,0.7c0.2,0.6,0.7,0.2,0.2,0.6C67.4,94.4,67.5,95.4,67.5,95.4z"/>
	<path class="st8" d="M53.4,80c-0.9-1.3-0.3-2-1.4-1.5s-1.1,0.5-1.8-0.1c-0.7-0.5-1.2-3-0.9-1.7s0.8,2.9,1.5,2.7
		c0.8-0.1,0.1-0.1,0.8-0.1s0.4-0.6,0.7,0C52.4,79.9,53.4,80,53.4,80z"/>
	<path class="st8" d="M50.6,74.4c0.6-1.5,1.5-1.4,0.4-2c-1.1-0.7-1-0.7-1-1.5c0-0.9,1.8-2.7,0.9-1.8c-0.9,0.9-1.9,2.3-1.4,2.8
		s0.2,0,0.6,0.6s0.7,0,0.4,0.5C50.2,73.5,50.6,74.4,50.6,74.4z"/>
	<path class="st8" d="M54.7,80.3c-1.4,0.8-2,0.1-1.6,1.3c0.4,1.2,0.4,1.2-0.2,1.8c-0.6,0.7-3,0.9-1.8,0.8s2.9-0.5,2.9-1.3
		c-0.1-0.8-0.1-0.1-0.1-0.8s-0.5-0.5,0-0.7C54.5,81.3,54.7,80.3,54.7,80.3z"/>
	<path class="st8" d="M71.7,95.5c0.1-1.6,1.1-1.7-0.1-2.1c-1.2-0.3-1.2-0.4-1.4-1.2c-0.2-0.8,1-3,0.4-1.9c-0.6,1.1-1.3,2.7-0.6,3.1
		s0.2,0,0.7,0.4c0.5,0.4,0.7-0.2,0.5,0.4C71,94.7,71.7,95.5,71.7,95.5z"/>
	<path class="st8" d="M71.9,91c-0.6,0.8-1.4,0.7-0.4,1.1c1,0.4,1.1,0.6,1.5,0.3s0.5-0.8,0.2-0.7s-0.3,0.1-0.6,0.2
		c-0.3,0.1-0.7,0.1-0.9,0C71.6,91.8,71.9,91,71.9,91z"/>
	<path class="st8" d="M51.6,83c-0.9-0.5-0.9-1.3-1.2-0.3c-0.3,1-0.5,1.2-0.1,1.5c0.3,0.3,0.9,0.4,0.7,0.2c-0.2-0.2-0.1-0.3-0.3-0.6
		s-0.2-0.7-0.1-0.9C50.7,82.8,51.6,83,51.6,83z"/>
	<path class="st8" d="M55.6,82.6c-0.8,0.7-1.5,0.5-0.6,1.1s1,0.8,1.4,0.5s0.6-0.7,0.4-0.6c-0.2,0.1-0.3,0-0.7,0.1s-0.7,0-0.8-0.2
		C55.1,83.3,55.6,82.6,55.6,82.6z"/>
	<path class="st8" d="M64.1,92.5c-0.6,0.9-1.3,0.9-0.3,1.2c1,0.3,1.2,0.5,1.5,0.1s0.4-0.8,0.2-0.7c-0.2,0.2-0.3,0.1-0.6,0.3
		s-0.7,0.2-0.9,0.1C63.8,93.4,64.1,92.5,64.1,92.5z"/>
	<path class="st8" d="M75.8,92.2c-0.6-0.9-0.2-1.6-0.9-0.8s-0.9,0.9-0.8,1.3c0.1,0.5,0.6,0.7,0.5,0.5c-0.1-0.2,0-0.3,0-0.7
		c0-0.3,0.1-0.7,0.3-0.8C75.1,91.6,75.8,92.2,75.8,92.2z"/>
	<path class="st8" d="M61.2,92.4c-0.6,0.9-1.3,0.9-0.3,1.2c1,0.3,1.2,0.5,1.5,0.1c0.3-0.3,0.4-0.8,0.2-0.7c-0.2,0.2-0.3,0.1-0.6,0.3
		c-0.3,0.2-0.7,0.2-0.9,0.1C61,93.3,61.2,92.4,61.2,92.4z"/>
	<path class="st8" d="M81,87.8c-0.3,1-1,1.2,0,1.2c1.1,0,1.3,0.1,1.5-0.3s0.1-0.9,0-0.7c-0.1,0.2-0.3,0.2-0.5,0.4
		c-0.3,0.2-0.6,0.3-0.8,0.3C81,88.7,81,87.8,81,87.8z"/>
	<path class="st8" d="M52.4,75.1c-0.8-0.7-0.6-1.5-1.1-0.5c-0.5,0.9-0.7,1.1-0.4,1.5s0.8,0.5,0.6,0.3c-0.1-0.2-0.1-0.3-0.2-0.6
		c-0.1-0.3,0-0.7,0.1-0.9C51.6,74.7,52.4,75.1,52.4,75.1z"/>
	<path class="st8" d="M60.3,87.8c-0.4-0.3-0.9-0.9-1-0.2c-0.1,0.6-0.3,1.3,0.1,1.1C59.7,88.5,60.3,87.8,60.3,87.8z"/>
	<path class="st8" d="M65,89.9c-0.4-0.3-0.9-0.9-1-0.2c-0.1,0.6-0.3,1.3,0.1,1.1C64.4,90.5,65,89.9,65,89.9z"/>
	<path class="st8" d="M80.3,89.6c-0.4-0.3-0.9-0.9-1-0.2c-0.1,0.6-0.3,1.3,0.1,1.1C79.7,90.3,80.3,89.6,80.3,89.6z"/>
	<path class="st8" d="M69.5,92.1c-0.4-0.3-0.9-0.9-1-0.2s-0.3,1.3,0.1,1.1C68.9,92.8,69.5,92.1,69.5,92.1z"/>
	<path class="st8" d="M77.5,92.4c0.4-0.7-1.6-0.6-1-0.1c0.7,0.5,1.6,0.6,1.6,0.6S77.4,92.7,77.5,92.4z"/>
	<path class="st8" d="M58.1,86.9c0.4-0.7-1.6-0.6-1-0.1c0.7,0.5,1.6,0.6,1.6,0.6S57.9,87.2,58.1,86.9z"/>
	<path class="st8" d="M61.5,87.3c0.4-0.7-1.6-0.6-1-0.1c0.7,0.5,1.6,0.6,1.6,0.6S61.3,87.6,61.5,87.3z"/>
	<path class="st8" d="M67.7,89.7c-0.2,0.7-0.4,0.8-0.6,0.4c-0.1-0.4-0.2-0.6,0-0.6C67.3,89.4,67.7,89.7,67.7,89.7z"/>
	<path class="st8" d="M66,91.3c-0.4,0.2-0.7,0.2-0.6-0.4c0.1-0.6,0.1-1,0.5-1c0.4,0,0.4,0.3,0.2,0.5C65.9,90.7,66,91.3,66,91.3z"/>
	<path class="st8" d="M62.7,89.8c0-0.6-0.5-1.6-0.7-1.2c-0.2,0.4-0.6,0.3-0.5,0.9c0.2,0.6,0.4,1.6,0.6,1.5c0.3-0.2-0.1-0.4,0-1
		C62.1,89.3,62.7,89.8,62.7,89.8z"/>
	<path class="st8" d="M51.6,67.3c-0.2,0.2-0.8,0.3-0.8,0c-0.1-0.2,0.1-0.9,0.2-0.9s0.2,0.5,0.2,0.5L51.6,67.3z"/>
	<path class="st8" d="M55.2,85.8c-0.4-0.4-1-1.3-1.6-0.9c-0.6,0.4-0.4,0.2-0.9,0.7c-0.5,0.5-0.9,1.1-0.4,0.8
		c0.5-0.3,0.9-0.9,1.1-0.8s0.4,0.1,0.5,0.6c0,0.5,0.5,0.4,0.3,0c-0.1-0.4-0.2-0.6,0-0.6C54.4,85.6,55.2,85.8,55.2,85.8z"/>
	<path class="st8" d="M51.2,81.5c-0.4,0.1-1.4,0.1-1.1-0.3c0.3-0.4,0.6-0.8,0.8-0.7c0.2,0.1,0,0.3,0.1,0.5
		C51,81.3,51.2,81.5,51.2,81.5z"/>
	<path class="st8" d="M49.5,74.3c-0.3-0.2-0.7-0.8-0.8,0c-0.1,0.8,0,1.1,0.3,1.1c0.3,0,0.9,0.1,0.7,0C49.5,75.2,49.5,74.3,49.5,74.3
		z"/>
	<path class="st8" d="M57.6,90.2c-0.6,0-1.3-0.3-0.9,0.4c0.4,0.7,0.8,0.8,0.9,0.9c0.1,0,0.4-0.7,0.3-0.7S57.6,90.2,57.6,90.2z"/>
	<path class="st9" d="M77.9,90c0-0.3-0.9-1-0.9-0.3c0,0.8-0.2,1.4,0.1,1.4C77.4,91.1,77.9,90,77.9,90z"/>
	<path class="st0" d="M41.6,46.7c0,0,0.7-4.1,3.9-4.7c3.2-0.6,6.6-0.2,10.3-0.5c3.7-0.3,6.2,1,10-1.1c3.7-2.1,5.6-3,6.6-4.8
		c1-1.8,2.3-5.4,2.3-5.4"/>
	<path class="st0" d="M61.9,58.8c-0.6-1.4-2.4-4.5-2.3-6.3c0.1-1.9,2.3-2.4,2.7-3.9c0.4-1.5,0.7-2.3,0.9-3.3
		c0.1-0.9,0.3-3.9,0.3-3.9"/>
	<path class="st0" d="M42.3,30.6c0.3,0.4,6.2,5.6,7.2,6.3c1,0.7,1.8,4.6,1.8,4.6"/>
	<path class="st0" d="M66.2,28.3c0,0,2.2,5.4,1.9,6.1s0.9,4,0.9,4"/>
	<path class="st11" d="M66.1,32.9c0.9-0.8,1.9-0.7,3.4-0.8c1.5-0.1,2.7,0,3.5-0.2c0.7-0.2,1.4-1.1,2.8-2c1.4-0.9,2.7-1.8,2.7-1.8
		S75.8,26,76,23.6c0.2-2.4,1.1-4.6,1.3-5s-4.1,0.3-5.4,0.2c-1.3,0-3-1.9-3.3-2.3c-0.3-0.3-5.3-6.7-5.3-6.7s-0.6,5-1,6.8
		c-0.4,1.8-3.4,6.8-5.7,7.3c-2.3,0.5-4.6,0.2-4.6,0.2s3.6,2.6,4.3,3.7c0.7,1.1,2,4.9,2,5.4c0,0.5-1.1,1.9-1.1,1.9s1.8-0.5,3.1-0.4
		c1.3,0.2,3.4,0,4.3-0.5C65.4,33.8,65.6,33.3,66.1,32.9z"/>
	<path class="st12" d="M44,32.5c0,0,2.5,2.7,4.1,0.7s2.9-3,3.5-5.2s1.1-3.3,1.1-3.3s-0.5,0.5-2-1.1s-5.1-7.7-5.1-7.7
		s-1.4,2.3-2.5,2.5c-1.1,0.2,0,1.4-2.5,1.1c-2.5-0.3-8.3-0.9-9.1-1.3c-0.8-0.4-2.4-0.5-3.2-0.9c-0.9-0.4-2.4-0.9-2.4-0.9
		s0.4,2.9,1.2,3.8c0.8,0.9,3.5,8.4,3.4,10.5c-0.1,2.1-1.3,5.5-2.2,6c-0.9,0.5-1.9,0.4-1.9,1s-0.3,0.7,1.9,1.2s6.3,1.2,8.2,2.8
		s2,1.8,2.3,2.4c0.3,0.6-0.1-0.5,1.5-1.6c1.6-1.1,3.8-1.2,4.2-2.6c0.5-1.4,0.7-1.4,0.9-2.6c0.1-1.2-0.7-2-0.8-2.7
		C44.3,33.8,44,32.5,44,32.5z"/>
</g>
</svg>
