<?xml version="1.0" encoding="utf-8"?>
<!-- Generator: Adobe Illustrator 23.1.1, SVG Export Plug-In . SVG Version: 6.00 Build 0)  -->
<svg version="1.1" id="Layer_1" xmlns="http://www.w3.org/2000/svg" xmlns:xlink="http://www.w3.org/1999/xlink" x="0px" y="0px"
	 viewBox="0 0 108 108" style="enable-background:new 0 0 108 108;" xml:space="preserve">
<style type="text/css">
	.st0{fill:none;stroke:#BB6263;stroke-width:2.2599;stroke-miterlimit:10;}
	.st1{fill:#234057;}
	.st2{fill:#33556F;}
	.st3{fill:#286276;}
	.st4{fill:none;stroke:#CB6B6C;stroke-width:2.2599;stroke-miterlimit:10;}
	.st5{fill:none;stroke:#CB6462;stroke-width:2.2599;stroke-miterlimit:10;}
	.st6{fill:#355974;}
	.st7{fill:#5A9B3C;}
	.st8{fill:#63AA43;}
	.st9{fill:#A6C339;}
</style>
<g>
	<path class="st0" d="M57.6,52.1c-0.9-0.1-9.8,4.8-12.2,5.2C43,57.7,40,59.1,40,59.1"/>
	<circle class="st1" cx="28.7" cy="81.3" r="10.6"/>
	<path class="st2" d="M24.2,81.9c-1.1-3.4,0-6.9,2.4-9.1c-4.6,1.5-7.1,6.4-5.6,11c1.5,4.6,6.4,7.1,11,5.7c1.2-0.4,2.3-1.1,3.2-1.9
		c0,0,0,0,0,0C30.6,89,25.7,86.5,24.2,81.9z"/>
	<circle class="st1" cx="53.2" cy="79.3" r="10.6"/>
	<path class="st2" d="M48.6,79.9c-1.1-3.4,0-6.9,2.4-9.1c-4.6,1.5-7.1,6.4-5.6,11c1.5,4.6,6.4,7.1,11,5.7c1.2-0.4,2.3-1.1,3.2-1.9
		c0,0,0,0,0,0C55,87.1,50.1,84.5,48.6,79.9z"/>
	<circle class="st1" cx="39.5" cy="60.3" r="10.6"/>
	<path class="st3" d="M35,60.9c-1.1-3.4,0-6.9,2.4-9.1c-4.6,1.5-7.1,6.4-5.6,11c1.5,4.6,6.4,7.1,11,5.7c1.2-0.4,2.3-1.1,3.2-1.9
		c0,0,0,0,0,0C41.4,68.1,36.4,65.5,35,60.9z"/>
	<path class="st4" d="M30.4,80.7c0,0,1.6-6.7,4-9.6c2.4-2.9,4.5-5.5,6.8-7.1c2.3-1.6,12.9-7.5,12.9-7.5s-0.1,8.7-0.5,10.4
		c-0.4,1.7,1.3,9,0.8,11.2"/>
	<path class="st4" d="M54.2,56.5c0,0,4.8-6.1,5.7-7.7s2-3.6,2.4-4.5s1.9-6,1.9-6"/>
	<path class="st5" d="M61.8,46.7c0,0,0.2,1.9,1.1,5.1c0.9,3.3,7,11,7,11"/>
	<circle class="st1" cx="72" cy="64.8" r="10.6"/>
	<path class="st6" d="M67.5,65.5c-1.1-3.4,0-6.9,2.4-9.1c-4.6,1.5-7.1,6.4-5.6,11c1.5,4.6,6.4,7.1,11,5.7c1.2-0.4,2.3-1.1,3.2-1.9
		c0,0,0,0,0,0C73.9,72.6,68.9,70.1,67.5,65.5z"/>
	<path class="st7" d="M86,37.1c-1.3,0.9-2.7,1.8-4,2.7c-2,1.5-4,2.9-6.3,3.9c-2.9,1.2-7.1,1.6-9.8,0.8c0.4-1.2,0.7-2.4,1.1-3.5
		c1.4-3.5,4.1-5.8,7.5-7.1c3.5-1.4,7.1-1.8,10.8-1.7c2.7,0.1,5.4,0.5,8.1,0.8c0.3,0,0.5,0.1,0.8,0.1c0,0.1,0,0.2,0,0.2
		c-2.1,1.6-3.3,3.8-4.6,6c-1.4,2.4-2.7,4.9-4.3,7.1c-2.8,3.9-6.7,5.9-11.7,5.7c-2.5-0.1-4.7-0.8-6.7-2.4c0,0-0.1-0.1-0.1-0.1
		c-0.9-1.6-2.5-1.7-4-1.8c-1.1-0.1-1.4-0.5-1.2-1.9c0.9,0.2,1.9,0.4,2.8,0.5c5.8,0.9,11-0.4,15.5-4.2C81.9,40.7,83.9,38.9,86,37.1
		C86,37.1,86,37.1,86,37.1"/>
	<path class="st8" d="M50.1,15.7c0.5,0.5,0.9,1,1.4,1.5c5.5,6.2,10.1,13,13.3,20.7c0.2,0.4,0.3,0.8,0.5,1.3c0.2,0.4,0.1,0.7-0.5,0.6
		c0,0-0.1,0-0.1,0c-1.9-0.1-1.9-0.1-2.5-2c-0.2-0.6-0.4-1.2-0.6-1.7c-1,0.1-1.9,0.3-2.9,0.2c-2.4-0.2-4.2-1.7-5.7-3.4
		c-2.4-2.8-4-6.1-5.2-9.5c-1.5-4.3-2.5-8.6-2.6-13.2c0-0.3,0-0.5,0-0.9c0.4,0.2,0.7,0.3,1,0.4c6.4,3,12.1,7,16.5,12.7
		c1.5,2,2.6,4.1,2.8,6.6c0.1,1.4-0.3,3.1-1.1,4.1c-3.9-6.6-8.4-12.6-14.2-17.6C50.2,15.6,50.2,15.7,50.1,15.7"/>
	<path class="st9" d="M56.1,40.2c-4.4-2.5-8.9-3-13.7-2.1c-4.1,0.8-7.6,2.9-10.6,5.8c0.2-0.2,0.5-0.3,0.7-0.5
		c3.5-2.4,7.3-4.2,11.6-4.5c7.1-0.6,12.5,2.3,16.2,8.4c0.1,0.1,0.2,0.3,0.2,0.4c0,0.1,0,0.2,0,0.4c-0.8,0-1.6,0.1-2.4,0
		c-0.2,0-0.5-0.3-0.6-0.6c-0.5-0.7-1-1.4-1.4-2.2c-0.3-0.4-0.5-0.4-1-0.3c-2.4,0.8-4.7,1.7-7.2,2.3c-3,0.7-6,0.4-9,0.2
		c-1.7-0.1-3.4-0.3-5-0.3c-2.9,0-5.3,1.2-7.5,3.1c-0.2,0.2-0.4,0.3-0.6,0.5c0,0-0.1,0-0.3,0.1c0.2-1,0.4-2,0.6-3
		c0.9-3.9,2.4-7.6,5.4-10.4c3.2-3.1,7.1-4.4,11.5-4.3c3.6,0,6.8,1.1,9.6,3.3c1.2,0.9,2.1,2.1,3.2,3.1C56,39.8,56,39.9,56.1,40.2"/>
</g>
</svg>
