<?xml version="1.0" encoding="utf-8"?>
<!-- Generator: Adobe Illustrator 23.1.1, SVG Export Plug-In . SVG Version: 6.00 Build 0)  -->
<svg version="1.1" id="Layer_1" xmlns="http://www.w3.org/2000/svg" xmlns:xlink="http://www.w3.org/1999/xlink" x="0px" y="0px"
	 viewBox="0 0 108 108" style="enable-background:new 0 0 108 108;" xml:space="preserve">
<style type="text/css">
	.st0{fill-rule:evenodd;clip-rule:evenodd;fill:#79A23F;}
	.st1{opacity:0.34;fill:#68431A;}
	.st2{fill:none;stroke:#718537;stroke-width:0.6452;stroke-miterlimit:10;}
	.st3{fill:#A5C239;}
	.st4{fill:#84B541;}
	.st5{fill:#91BB3E;}
	.st6{fill:#AFCB36;}
	.st7{fill:#92B83F;}
	.st8{fill:#A5BE3B;}
	.st9{fill:#A4C839;}
	.st10{fill:#72AA42;}
	.st11{fill:#542732;}
	.st12{fill:#7B5352;stroke:#542732;stroke-width:0.122;stroke-miterlimit:10;}
</style>
<g>
	<g>
		<path class="st0" d="M75.21,79.51c-0.09-0.04-0.1-0.08-0.14-0.13c0,0,0,0,0.02,0.02C75.12,79.45,75.19,79.47,75.21,79.51
			c3.48,2.49,10.03-3.91,3.73-6.43c-0.3,0.04-0.67-0.08-0.96-0.31h0c0.34,0.11,0.62,0.21,0.95,0.31c0.58,0.02,1.14-0.31,1.52-0.73
			c1.13,0.13,2.5-0.86,1.27-2.53c1.61,0.31,1.55-1.34,0.92-2.24c2.86-0.25,4.86-2.13,5.27-4.81c0.5-3.01-0.99-7.4-4.27-8.13
			c-0.07-0.11-0.08-0.19-0.11-0.25c1.87-0.33,2.69-1.8,1.2-3.32c1.93-0.46,1.6-3.57-1.71-1.71c3.16-0.77,3.01-5.27,0.93-6.39
			c0-0.94-0.16-1.82-0.56-2.57c-0.89-1.82-2.96-2.99-5.13-3.09c0.1-1.97-1.91-3.32-3.75-2.72c-0.56-0.94-1.4-1.71-2.36-2.09
			c0.73-2.42-3.16-4.47-4.79-1.67c0.11-1.21-0.66-1.98-1.59-2.28c-0.61-1.4-1.94-1.51-3.2-1.04c-0.16-0.11-0.35-0.15-0.53-0.25
			c-0.27-2.57-2.04-4.85-4.27-5.45c-2.73-0.79-6.14,1.04-7.09,3.95c-0.29-0.02-0.56-0.08-0.81-0.02c-2.3-2.88-9.46-1.48-6.32,3.8
			c0.2,0.17,0.35,0.44,0.48,0.69c0,0,0,0,0.02,0.02c-0.18-0.27-0.34-0.46-0.5-0.71c-1.25-0.98-3.64,0.06-3.13,1.67
			c-0.92,0.06-1.78,0.42-2.36,1.02c-2.55-2.24-5.72-2.03-7.92,0.06c-2.45,2.34-4.09,7.56-0.67,9.95c-1.95-1.84-4.2-1.23-3.88,1.3
			c-1.85-0.81-3.44,1.88,0.31,2.38c-3.85-1.65-7.18,4.93-2.81,5.93c-3.26,0.33-2.86,5.24,0.35,5.72c-2.35,1.07-2.09,3.66-0.58,4.81
			c-0.2,0.71,0,1.48,1.33,1.88c-1.15,0.54-0.81,1.4-0.13,1.94c-1.61,1.61,0.19,5.14,3,3.97c-0.78,0.88-0.65,1.98-0.07,2.78
			c-0.36,1.5,0.61,2.42,1.88,2.78c0.3,0.96,0.88,1.42,1.77,1.53c0.1,0.38,0.47,0.77,1.07,1.11c0.42,1.25,1.37,1.76,2.09,1.28
			c0.05-0.15,0.13-0.31,0.24-0.46c0.03,0,0.11,0.04,0.16,0.02c-0.13,0.17-0.25,0.35-0.4,0.44c-0.49,1.46,1.12,2.86,2.77,3.3
			c0.02,0.71,0.45,1.23,1.04,1.63c0.45,1.78,1.56,3.38,3.07,4.05c2.61,1.27,6.33,0.08,7.74-2.68c0.14-0.06,0.33,0,0.46-0.06
			c0.06,0.06,0.18,0.11,0.24,0.17c1.26,2.49,5.83,3.09,7.02,0.67c1.11,0.33,2.41,0.11,3.4-0.56c0.71-0.15,1.33-0.65,1.59-1.46
			c0.59,1.94,3.15,1.02,2.81-1.17c0.02,0.02,0.07,0.02,0.1,0c1.1,3.68,5.34,5.5,8.23,4.35C75.28,86.72,76.96,82.54,75.21,79.51z"/>
		<path class="st1" d="M82.46,62.83l-1.99-0.42l-3.97-0.91l-0.02,0l-0.15-0.01c-1.14-0.08-2.28-0.08-3.42-0.04
			c-1.07,0.04-2.15,0.11-3.21,0.39c-0.29-0.48-0.73-0.53-1.12-0.74l-1.28-0.56l-2.55-1.12c-0.95-0.4-1.9-0.79-2.85-1.18
			c0.27-1.07,0.39-2.01,0.29-2.84c1.05-0.5,2.1-1.06,3.09-1.71c0.37-0.24,0.72-0.5,1.07-0.76c0.19,0.13,0.4,0.13,0.61,0.17
			l1.09,0.18l2.17,0.37l4.36,0.67c1.46,0.21,2.91,0.41,4.38,0.59c1.47,0.16,2.93,0.35,4.41,0.48l0.25-1.16
			c-1.43-0.38-2.87-0.7-4.31-1.04c-1.44-0.32-2.89-0.63-4.34-0.93l-4.35-0.85l-2.08-0.38c0.68-0.7,1.33-1.44,1.88-2.24
			c0.72-1.03,1.3-2.14,1.78-3.28l7.64-0.76l-0.05-1.19l-6.87-0.05c0.12-0.37,0.24-0.75,0.33-1.13c0.62-2.24,0.76-4.54,0.89-6.81
			l-1.19-0.06c-0.25,2.19-0.52,4.38-1.22,6.44c-0.66,2.06-1.6,4.01-2.9,5.67c-1.29,1.67-2.93,3.01-4.77,4.05
			c-1.11,0.64-2.3,1.15-3.53,1.63c-0.58-0.31-1.15-0.56-1.4-0.77c-0.37-0.31-0.9-0.76-1.45-1.15L56.88,38.8
			c0.06-0.05,0.13-0.11,0.19-0.16l0.65-0.51l1.36-1.02l2.77-2l5.6-3.93l-0.65-0.99l-5.81,3.65L58.1,35.7l-1.36,0.92l-0.53-8.23
			l-1.19,0.04l0.1,9.46c-0.01,0.01-0.02,0.02-0.03,0.03l0.03,0.02l0.05,4.71c-0.03-0.03-0.05-0.05-0.08-0.08
			c-0.6-0.57-1.22-1.11-1.85-1.64c-0.09-0.07-0.18-0.13-0.27-0.21l-3.05-10.74l-1.15,0.3l2.03,8.81c-0.5-0.36-1.01-0.71-1.53-1.05
			c-1.36-0.9-2.78-1.72-4.21-2.49c-1.44-0.76-2.92-1.45-4.4-2.11l-0.49,1.08c1.44,0.69,2.87,1.41,4.26,2.2
			c1.39,0.78,2.77,1.59,4.08,2.48c1.32,0.89,2.6,1.83,3.81,2.84c0.6,0.51,1.2,1.03,1.75,1.58c0.28,0.27,0.55,0.55,0.82,0.84
			c0.1,0.1,0.19,0.21,0.29,0.32l0.06,6.02c-0.84,0.36-1.45,0.98-1.45,0.98s-0.4,0.34-0.91,0.83l-10.27-5.34
			c-0.33-0.67-0.82-1.23-1.21-1.85l-1.76-2.57c-1.21-1.69-2.41-3.39-3.68-5.04l-0.99,0.66c1.04,1.8,2.16,3.56,3.27,5.32l1.71,2.61
			c0.3,0.41,0.55,0.87,0.84,1.29c-0.66,0-1.31,0.07-1.96,0.09l-3.54,0.2c-2.36,0.17-4.71,0.35-7.07,0.61l0.06,1.19
			c2.37,0.04,4.73-0.02,7.09-0.07l3.54-0.14c0.89-0.06,1.78-0.01,2.66-0.2L44.32,51l-6.61,3.94l-10.94,1.78l0.19,1.17L38,56.1
			l0.06-0.01l0.11-0.05l8.62-3.54l4.12,2.51c-0.09,0.18-0.15,0.35-0.18,0.5c-0.17,1.04,0.37,2.13,0.65,3.38l-4.6,3.74l-19.87-1.1
			l-0.09,1.18l11.8,1.23l-9.12,7.06l0.69,0.97l11.74-7.68l3.95,0.41l-0.54,4.08c-0.13,0.95-0.25,1.89-0.38,2.84l-12.07,4.15
			l0.35,1.14l11.33-3.01c-0.01,0.02-0.01,0.05-0.01,0.07l-1.97,10.32l1.16,0.24l2.36-10.27c0.44-1.7,0.67-3.45,0.98-5.18l0.81-4.74
			L51.8,62c0.17,0.2,0.47,0.34,1,0.48c0.56,0.15,1.06,0.24,1.48,0.3l2.06,12.31l-4.1,12.01l1.11,0.41l4.08-10.33l6.54,9.51l1-0.64
			l-6.84-11.38l-0.73-12.19c0.63-0.19,1.2-0.36,1.2-0.36s1.24-0.63,2.17-1.59c1.06,0.37,2.12,0.73,3.18,1.08l2.66,0.84l1.33,0.42
			c0.19,0.04,0.38,0.12,0.57,0.18l0.78,3.93l0.44,2.16l0.23,1.09l0.14,0.6c0.03,0.13,0.1,0.29,0.18,0.43l0.15,0.26
			c0.79,1.28,1.6,2.49,2.41,3.73l2.44,3.67l1.01-0.63l-2.19-3.81c-0.72-1.27-1.46-2.56-2.13-3.81l-0.11-0.22
			c0-0.02-0.02-0.02-0.02-0.08l-0.08-0.48l-0.16-1.08l-0.3-2.17l-0.46-3.47c0.73,0.03,1.46-0.01,2.19-0.07
			c0.63-0.05,1.26-0.12,1.89-0.2l4.75,11.44l1.11-0.41l-3.61-11.07l3.07,0.7L82.23,64c0.7,0.13,1.3,0.27,2.13,0.33v-1.19
			C83.83,63.1,83.1,62.96,82.46,62.83z"/>
		<g>
			<path class="st2" d="M71.05,79.86c-0.04-1.54-0.65-4.31-1.07-6.27"/>
			<path class="st2" d="M75.13,77.88c-2.04-0.82-4.65-2.66-5.94-4.65"/>
			<path class="st2" d="M75.84,73.87c-2.31,1.12-4.24,2.41-5.83,0.09"/>
			<path class="st2" d="M66.53,69.47c-2.45-1.9-4.78-4.41-5.68-6.62"/>
			<path class="st2" d="M61.51,71.28c0.28-3.2-0.59-8.1-0.71-9.1"/>
			<path class="st2" d="M65.84,65.21c-1.9,0.6-2.97,1.52-4.84-1.63"/>
			<path class="st3" d="M67.73,82.88c-0.2-1.23-0.82-1.48,1.23-3.66S71,77.05,71,77.05s0.41,0.47,0.88,1.01
				c0.48,0.53,2.5,2.33,1.59,4.41c-0.91,2.09-1.7,3.22-2.01,3.55c-0.31,0.33-1.12,1.64-1.34,1.96"/>
			<path class="st4" d="M82.16,83.51c-1.49-0.62-3.64,0.72-5.45-0.55s-2.85-4.42-3.28-5.32c-0.43-0.91-1.17-0.51,0.54-0.55
				c1.71-0.03,1.81-0.61,3.29-0.26c1.49,0.35,3.54,2.57,3.68,3.49C81.08,81.24,82.16,83.51,82.16,83.51z"/>
			<path class="st5" d="M73.23,75.16c0.45,0,0.94,0.36,3.1,0.4c2.15,0.03,3.85-0.2,4.23-1.84c0.38-1.64-0.15-1.97,0.77-3.05
				s0.92-1.08,0.92-1.08s-1.85-0.06-4.44,0.01s-3.79,2.68-4.11,3.78S73.23,75.16,73.23,75.16z"/>
			<path class="st6" d="M72.07,75.18c0,0-0.99-1.1-3.03-1.11c-2.03-0.01-4.26-1.01-4.26-3.16c0-2.15-0.7-3.34-0.7-3.34
				s-0.04,0.31,1.73,0.17c1.77-0.14,4.28,1.08,4.99,2.84C71.51,72.34,72.07,75.18,72.07,75.18z"/>
			<path class="st7" d="M59.85,77.92c0,0,2.62-2.62,3.42-4.4s1.02-2.84-0.02-4.1c-1.04-1.26-1.42-2.28-1.42-2.28
				s-1.48,2.2-2.44,2.71c-0.97,0.51-2.04,2.31-1.52,3.38C58.39,74.3,59.85,77.92,59.85,77.92z"/>
			<path class="st8" d="M63.94,65.8c0,0.03,1.57,0.68,3.43,0.91c1.87,0.22,2.87,0.21,3.61-0.72c0.73-0.93,1.23-1.91,1.75-2.99
				c0.52-1.08,0.59-1.52,1.02-1.63c0.43-0.1-0.54,0.38-2.6-0.13c-2.06-0.51-3.04-1.07-3.9-0.4c-0.85,0.67-0.83,1.91-1.52,2.91
				S63.94,65.8,63.94,65.8z"/>
		</g>
		<g>
			<path class="st2" d="M36.88,80.16c1.49-0.42,4.02-1.68,5.81-2.58"/>
			<path class="st2" d="M39.81,83.63c0.29-2.17,1.44-5.16,3.05-6.9"/>
			<path class="st2" d="M43.86,83.33c-1.65-1.97-3.37-3.52-1.51-5.63"/>
			<path class="st2" d="M45.85,73.23c1.24-2.84,3.11-5.72,5.03-7.13"/>
			<path class="st2" d="M42.86,68.8c3.17-0.51,7.7-2.56,8.65-2.92"/>
			<path class="st2" d="M49.81,71.51c-1.04-1.69-2.2-2.51,0.4-5.09"/>
			<path class="st4" d="M33.14,77.67c1.14-0.49,1.24-1.16,3.85,0.29s2.61,1.45,2.61,1.45s-0.36,0.51-0.76,1.1
				c-0.4,0.59-1.64,2.99-3.89,2.62s-3.54-0.86-3.94-1.08c-0.39-0.22-1.86-0.68-2.23-0.82"/>
			<path class="st9" d="M36.07,91.82c0.24-1.6-1.59-3.35-0.8-5.42c0.79-2.07,3.58-3.84,4.36-4.49s0.21-1.26,0.66,0.39
				s1.04,1.6,1.06,3.13c0.02,1.53-1.63,4.06-2.48,4.42S36.07,91.82,36.07,91.82z"/>
			<path class="st5" d="M41.97,81.12c0.11,0.43-0.12,1,0.37,3.1c0.5,2.1,1.14,3.68,2.82,3.64c1.68-0.04,1.87-0.63,3.15,0
				s1.27,0.63,1.27,0.63s-0.4-1.81-1.1-4.3c-0.7-2.49-3.53-3.02-4.67-3.06C42.68,81.1,41.97,81.12,41.97,81.12z"/>
			<path class="st6" d="M41.67,79.99c0,0,0.82-1.23,0.33-3.21s-0.06-4.38,2.02-4.91c2.09-0.53,3.07-1.49,3.07-1.49
				s-0.31,0.03,0.26,1.72c0.57,1.68,0.01,4.42-1.53,5.54C44.29,78.76,41.67,79.99,41.67,79.99z"/>
			<path class="st7" d="M36.02,68.82c0,0,3.19,1.9,5.1,2.24c1.92,0.34,3,0.3,3.97-1.02c0.97-1.32,1.86-1.94,1.86-1.94
				s-2.49-0.89-3.23-1.7s-2.74-1.41-3.65-0.64S36.02,68.82,36.02,68.82z"/>
			<path class="st8" d="M48.77,69.82c-0.03,0.01-0.28,1.69-0.04,3.55c0.24,1.86,0.5,2.84,1.58,3.32c1.08,0.48,2.15,0.72,3.33,0.96
				c1.18,0.24,1.62,0.2,1.82,0.59c0.2,0.39-0.5-0.43-0.51-2.55c-0.01-2.12,0.3-3.21-0.57-3.88s-2.06-0.33-3.19-0.76
				C50.06,70.62,48.77,69.82,48.77,69.82z"/>
		</g>
		<g>
			<path class="st2" d="M28.83,48.7c0.49,1.46,1.88,3.93,2.86,5.68"/>
			<path class="st2" d="M25.51,51.8c2.19,0.18,5.22,1.18,7.04,2.7"/>
			<path class="st2" d="M26.01,55.83c1.89-1.75,3.34-3.54,5.55-1.79"/>
			<path class="st2" d="M36.2,57.31c2.9,1.09,5.86,2.82,7.37,4.66"/>
			<path class="st2" d="M40.47,54.1c0.67,3.14,2.94,7.57,3.35,8.5"/>
			<path class="st2" d="M38.11,61.18c1.64-1.13,2.4-2.32,5.11,0.14"/>
			<path class="st3" d="M31.12,44.84c0.55,1.12,1.22,1.18-0.1,3.86c-1.32,2.68-1.32,2.68-1.32,2.68s-0.53-0.33-1.14-0.7
				c-0.61-0.37-3.07-1.49-2.81-3.75c0.26-2.26,0.68-3.58,0.88-3.98s0.59-1.89,0.71-2.26"/>
			<path class="st4" d="M17.14,48.48c1.61,0.16,3.27-1.76,5.37-1.08s4.02,3.39,4.7,4.13c0.68,0.74,1.27,0.15-0.35,0.68
				s-1.55,1.11-3.07,1.21c-1.53,0.1-4.14-1.42-4.54-2.26S17.14,48.48,17.14,48.48z"/>
			<path class="st5" d="M28.12,53.83c-0.43,0.13-1.01-0.07-3.08,0.53s-3.62,1.32-3.5,3c0.12,1.68,0.73,1.84,0.16,3.14
				c-0.57,1.3-0.57,1.3-0.57,1.3s1.79-0.49,4.24-1.31s2.84-3.68,2.82-4.82C28.18,54.53,28.12,53.83,28.12,53.83z"/>
			<path class="st6" d="M29.23,53.47c0,0,1.27,0.76,3.22,0.17c1.95-0.59,4.37-0.28,5,1.77c0.63,2.06,1.65,2.99,1.65,2.99
				s-0.05-0.31-1.7,0.35c-1.65,0.65-4.41,0.23-5.61-1.25C30.6,56.03,29.23,53.47,29.23,53.47z"/>
			<path class="st7" d="M40.11,47.27c0,0-1.73,3.28-1.98,5.21c-0.25,1.93-0.15,3.01,1.22,3.91c1.36,0.9,2.03,1.76,2.03,1.76
				s0.77-2.53,1.54-3.31c0.78-0.77,1.27-2.81,0.46-3.67S40.11,47.27,40.11,47.27z"/>
			<path class="st8" d="M39.75,60.05c-0.01-0.03-1.7-0.19-3.55,0.14s-2.81,0.64-3.24,1.75c-0.43,1.11-0.61,2.19-0.79,3.37
				c-0.18,1.19-0.11,1.63-0.49,1.85c-0.38,0.22,0.41-0.52,2.52-0.63c2.12-0.11,3.22,0.13,3.84-0.76s0.23-2.07,0.6-3.23
				C39.02,61.39,39.75,60.05,39.75,60.05z"/>
		</g>
		<g>
			<path class="st2" d="M53.02,85.73c0.82-1.31,1.85-3.94,2.58-5.81"/>
			<path class="st2" d="M57.52,86.34c-1.24-1.81-2.4-4.79-2.37-7.16"/>
			<path class="st2" d="M60.33,83.39c-2.55-0.35-4.86-0.34-4.9-3.15"/>
			<path class="st2" d="M55.01,74.57c-0.99-2.93-1.54-6.32-1.06-8.66"/>
			<path class="st2" d="M49.83,73.3c2-2.51,3.99-7.07,4.45-7.98"/>
			<path class="st2" d="M56.8,70.64c-1.91-0.55-3.31-0.38-3.13-4.04"/>
			<path class="st3" d="M48.58,86.41c0.52-1.13,0.14-1.69,3.05-2.37c2.91-0.68,2.91-0.68,2.91-0.68s0.08,0.62,0.18,1.33
				c0.1,0.71,0.79,3.32-1.12,4.55c-1.92,1.23-3.2,1.75-3.64,1.85c-0.44,0.1-1.84,0.75-2.2,0.89"/>
			<path class="st4" d="M60.26,94.91c-0.9-1.35-3.43-1.42-4.24-3.48c-0.81-2.06,0.07-5.25,0.21-6.25c0.14-0.99-0.69-1.08,0.75-0.16
				c1.44,0.92,1.84,0.49,2.88,1.61c1.04,1.12,1.53,4.1,1.13,4.94C60.61,92.42,60.26,94.91,60.26,94.91z"/>
			<path class="st5" d="M57.44,83.02c0.37,0.25,0.59,0.83,2.36,2.05c1.77,1.22,3.32,1.96,4.54,0.81c1.22-1.16,0.96-1.73,2.33-2.11
				c1.37-0.39,1.37-0.39,1.37-0.39s-1.51-1.07-3.7-2.45c-2.19-1.37-4.64,0.14-5.51,0.88C57.95,82.54,57.44,83.02,57.44,83.02z"/>
			<path class="st6" d="M56.46,82.4c0,0-0.22-1.46-1.91-2.6s-2.99-3.2-1.8-4.99c1.19-1.79,1.27-3.17,1.27-3.17s-0.21,0.23,1.35,1.1
				c1.55,0.87,2.97,3.27,2.59,5.13C57.57,79.72,56.46,82.4,56.46,82.4z"/>
			<path class="st7" d="M44.77,77.91c0,0,3.63-0.74,5.29-1.77c1.65-1.04,2.42-1.8,2.25-3.42s0.08-2.68,0.08-2.68
				s-2.45,1.01-3.54,0.91c-1.09-0.11-2.98,0.8-3.13,1.97S44.77,77.91,44.77,77.91z"/>
			<path class="st8" d="M54.89,70.09c-0.02,0.03,0.93,1.44,2.36,2.66c1.43,1.22,2.27,1.77,3.4,1.4c1.13-0.37,2.08-0.91,3.11-1.52
				c1.03-0.61,1.33-0.94,1.75-0.79s-0.66,0.02-2.09-1.55c-1.43-1.56-1.94-2.58-3.02-2.49c-1.08,0.09-1.75,1.14-2.88,1.58
				C56.38,69.81,54.89,70.09,54.89,70.09z"/>
		</g>
		<g>
			<path class="st2" d="M66.06,33.9c-1.52,0.26-4.17,1.25-6.05,1.95"/>
			<path class="st2" d="M63.51,30.14c-0.52,2.13-1.98,4.98-3.76,6.54"/>
			<path class="st2" d="M59.45,30.01c1.43,2.13,2.98,3.85,0.91,5.76"/>
			<path class="st2" d="M56.4,39.84c-1.53,2.69-3.69,5.36-5.75,6.56"/>
			<path class="st2" d="M58.91,44.56c-3.2,0.17-7.93,1.73-8.91,1.99"/>
			<path class="st2" d="M52.28,41.13c0.86,1.79,1.92,2.73-0.93,5.02"/>
			<path class="st3" d="M69.51,36.76c-1.19,0.37-1.35,1.02-3.79-0.7c-2.44-1.72-2.44-1.72-2.44-1.72s0.41-0.47,0.87-1.02
				c0.46-0.55,1.95-2.8,4.14-2.2c2.2,0.61,3.43,1.23,3.8,1.49c0.37,0.26,1.78,0.87,2.13,1.05"/>
			<path class="st9" d="M68.09,22.39c-0.41,1.57,1.23,3.5,0.23,5.48s-3.97,3.44-4.81,4c-0.84,0.56-0.34,1.23-0.62-0.45
				c-0.27-1.69-0.86-1.7-0.72-3.22s2.05-3.87,2.94-4.14S68.09,22.39,68.09,22.39z"/>
			<path class="st4" d="M61.09,32.4c-0.06-0.44,0.23-0.99-0.04-3.12c-0.27-2.14-0.74-3.78-2.42-3.92c-1.68-0.14-1.93,0.43-3.13-0.33
				c-1.2-0.76-1.2-0.76-1.2-0.76s0.21,1.84,0.64,4.39c0.43,2.55,3.19,3.37,4.32,3.53S61.09,32.4,61.09,32.4z"/>
			<path class="st6" d="M61.28,33.55c0,0-0.95,1.14-0.67,3.15c0.28,2.02-0.4,4.36-2.53,4.67c-2.13,0.3-3.21,1.16-3.21,1.16
				s0.31,0-0.08-1.73c-0.39-1.73,0.46-4.39,2.1-5.34S61.28,33.55,61.28,33.55z"/>
			<path class="st7" d="M65.71,45.27c0,0-2.97-2.22-4.84-2.76c-1.87-0.54-2.95-0.61-4.06,0.6c-1.1,1.21-2.05,1.73-2.05,1.73
				s2.39,1.15,3.03,2.04c0.64,0.89,2.57,1.69,3.56,1.03C62.34,47.22,65.71,45.27,65.71,45.27z"/>
			<path class="st8" d="M53.14,42.92c0.03-0.01,0.46-1.65,0.41-3.53c-0.04-1.88-0.2-2.87-1.22-3.47c-1.03-0.6-2.07-0.95-3.21-1.31
				c-1.15-0.36-1.59-0.37-1.75-0.78s0.45,0.48,0.23,2.59s-0.63,3.16,0.15,3.91c0.79,0.75,2.01,0.55,3.09,1.09
				C51.94,41.99,53.14,42.92,53.14,42.92z"/>
		</g>
		<g>
			<path class="st2" d="M36.17,34.87c-0.14,1.54,0.14,4.35,0.33,6.35"/>
			<path class="st2" d="M31.89,36.36c1.93,1.05,4.3,3.19,5.35,5.32"/>
			<path class="st2" d="M30.72,40.26c2.43-0.84,4.49-1.89,5.8,0.6"/>
			<path class="st2" d="M39.44,45.72c2.21,2.17,4.23,4.94,4.86,7.24"/>
			<path class="st2" d="M44.64,44.51c-0.65,3.14-0.37,8.11-0.37,9.13"/>
			<path class="st2" d="M39.63,50.04c1.95-0.37,3.13-1.16,4.61,2.19"/>
			<path class="st3" d="M39.83,32.26c0.05,1.24,0.64,1.57-1.65,3.49s-2.29,1.92-2.29,1.92s-0.35-0.52-0.76-1.1s-2.21-2.6-1.06-4.57
				c1.15-1.97,2.07-3,2.41-3.29s1.3-1.5,1.56-1.78"/>
			<path class="st9" d="M25.57,29.95c1.41,0.79,3.7-0.29,5.35,1.19c1.65,1.47,2.31,4.72,2.63,5.67c0.32,0.95,1.11,0.65-0.6,0.48
				c-1.7-0.17-1.87,0.39-3.3-0.13c-1.43-0.53-3.21-2.97-3.24-3.9C26.38,32.33,25.57,29.95,25.57,29.95z"/>
			<path class="st4" d="M33.46,39.28c-0.44-0.05-0.9-0.47-3.03-0.76s-3.85-0.25-4.41,1.33c-0.57,1.59-0.08,1.98-1.12,2.94
				c-1.04,0.96-1.04,0.96-1.04,0.96s1.83,0.27,4.41,0.51c2.57,0.24,4.08-2.22,4.52-3.27C33.22,39.95,33.46,39.28,33.46,39.28z"/>
			<path class="st6" d="M34.62,39.4c0,0,0.86,1.21,2.88,1.46c2.02,0.25,4.11,1.51,3.86,3.64c-0.25,2.14,0.3,3.4,0.3,3.4
				s0.08-0.3-1.7-0.37c-1.77-0.07-4.13-1.57-4.63-3.4C34.84,42.29,34.62,39.4,34.62,39.4z"/>
			<path class="st7" d="M47.07,38.12c0,0-2.91,2.3-3.91,3.97c-1.01,1.67-1.35,2.7-0.47,4.07s1.14,2.43,1.14,2.43s1.72-2.01,2.75-2.4
				s2.3-2.05,1.9-3.18C48.1,41.88,47.07,38.12,47.07,38.12z"/>
			<path class="st8" d="M41.58,49.67c0-0.03-1.47-0.86-3.3-1.31c-1.83-0.44-2.83-0.55-3.67,0.29c-0.84,0.84-1.45,1.75-2.09,2.77
				c-0.64,1.01-0.76,1.44-1.2,1.49c-0.44,0.05,0.58-0.31,2.56,0.44s2.89,1.42,3.82,0.86s1.04-1.8,1.85-2.71
				C40.37,50.59,41.58,49.67,41.58,49.67z"/>
		</g>
		<g>
			<path class="st2" d="M52,30.93c-1.1,1.08-2.71,3.41-3.85,5.06"/>
			<path class="st2" d="M47.76,29.3c0.79,2.05,1.23,5.21,0.66,7.52"/>
			<path class="st2" d="M44.35,31.52c2.4,0.93,4.65,1.45,4.04,4.2"/>
			<path class="st2" d="M47.48,41.33c0.29,3.08,0.04,6.5-0.96,8.67"/>
			<path class="st2" d="M52.24,43.76c-2.53,1.98-5.52,5.96-6.17,6.73"/>
			<path class="st2" d="M44.84,44.74c1.73,0.98,3.14,1.14,2.11,4.65"/>
			<path class="st3" d="M56.47,31.3c-0.76,0.98-0.52,1.61-3.51,1.6c-2.99-0.01-2.99-0.01-2.99-0.01s0.07-0.62,0.13-1.33
				c0.06-0.71-0.01-3.41,2.14-4.17c2.15-0.76,3.52-0.96,3.97-0.96c0.45,0,1.96-0.3,2.35-0.35"/>
			<path class="st9" d="M47.08,20.33c0.56,1.52,3.01,2.17,3.32,4.36s-1.28,5.1-1.65,6.03c-0.37,0.93,0.43,1.21-0.77-0.02
				c-1.19-1.23-1.68-0.9-2.44-2.23s-0.54-4.34,0.04-5.07S47.08,20.33,47.08,20.33z"/>
			<path class="st4" d="M47.07,32.55c-0.3-0.32-0.38-0.94-1.82-2.54c-1.44-1.6-2.77-2.68-4.23-1.83c-1.46,0.85-1.34,1.46-2.76,1.52
				c-1.42,0.06-1.42,0.06-1.42,0.06s1.22,1.39,3.03,3.24c1.81,1.84,4.55,0.94,5.57,0.42C46.46,32.9,47.07,32.55,47.07,32.55z"/>
			<path class="st6" d="M47.88,33.38c0,0-0.13,1.48,1.26,2.97s2.17,3.81,0.6,5.27c-1.57,1.47-1.97,2.79-1.97,2.79
				s0.25-0.18-1.06-1.38c-1.31-1.2-2.14-3.87-1.33-5.59C46.18,35.73,47.88,33.38,47.88,33.38z"/>
			<path class="st7" d="M58.22,40.45c0,0-3.7-0.12-5.55,0.5c-1.85,0.63-2.77,1.19-2.98,2.81c-0.21,1.62-0.69,2.59-0.69,2.59
				s2.61-0.42,3.65-0.06s3.08-0.09,3.51-1.2C56.57,43.98,58.22,40.45,58.22,40.45z"/>
			<path class="st8" d="M46.57,45.72c0.02-0.02-0.57-1.61-1.68-3.13c-1.11-1.52-1.81-2.25-2.99-2.15c-1.18,0.1-2.24,0.41-3.38,0.76
				s-1.51,0.61-1.88,0.37c-0.37-0.24,0.65,0.14,1.68,1.99c1.03,1.85,1.29,2.96,2.37,3.12c1.07,0.17,1.96-0.7,3.16-0.87
				C45.05,45.65,46.57,45.72,46.57,45.72z"/>
		</g>
		<g>
			<path class="st2" d="M28.79,65.91c1.43,0.57,4.21,1.11,6.18,1.49"/>
			<path class="st2" d="M29,70.44c1.56-1.55,4.28-3.22,6.62-3.62"/>
			<path class="st2" d="M32.4,72.67c-0.11-2.57-0.54-4.84,2.22-5.39"/>
			<path class="st2" d="M40.12,65.85c2.71-1.5,5.94-2.65,8.33-2.6"/>
			<path class="st2" d="M40.44,60.52c2.83,1.52,7.67,2.65,8.65,2.94"/>
			<path class="st2" d="M44.31,66.9c0.2-1.98-0.22-3.33,3.41-3.8"/>
			<path class="st3" d="M27.33,61.66c1.21,0.3,1.69-0.17,2.88,2.57c1.19,2.74,1.19,2.74,1.19,2.74s-0.59,0.19-1.27,0.42
				c-0.68,0.23-3.12,1.38-4.68-0.28c-1.56-1.66-2.29-2.83-2.47-3.25c-0.18-0.41-1.07-1.67-1.27-2.01"/>
			<path class="st9" d="M21.06,74.67c1.16-1.13,0.78-3.63,2.66-4.79c1.88-1.16,5.18-0.87,6.19-0.91c1-0.04,0.94-0.88,0.29,0.71
				c-0.65,1.59-0.15,1.9-1.06,3.13s-3.76,2.24-4.66,2S21.06,74.67,21.06,74.67z"/>
			<path class="st4" d="M32.25,69.77c-0.17,0.41-0.71,0.72-1.59,2.69c-0.88,1.97-1.34,3.62,0.02,4.61s1.87,0.64,2.5,1.91
				c0.63,1.28,0.63,1.28,0.63,1.28s0.78-1.68,1.74-4.08c0.96-2.4-0.97-4.54-1.85-5.27S32.25,69.77,32.25,69.77z"/>
			<path class="st6" d="M32.69,68.69c0,0,1.4-0.48,2.21-2.34c0.81-1.87,2.61-3.52,4.59-2.67c1.98,0.85,3.34,0.68,3.34,0.68
				s-0.26-0.16-0.84,1.52c-0.57,1.68-2.68,3.51-4.58,3.47C35.52,69.3,32.69,68.69,32.69,68.69z"/>
			<path class="st7" d="M35,56.38c0,0,1.38,3.44,2.69,4.88c1.32,1.44,2.2,2.06,3.77,1.6c1.57-0.46,2.65-0.41,2.65-0.41
				s-1.44-2.22-1.53-3.32c-0.09-1.09-1.32-2.78-2.5-2.73C38.9,56.46,35,56.38,35,56.38z"/>
			<path class="st8" d="M44.51,64.92c-0.03-0.01-1.25,1.17-2.19,2.79c-0.94,1.63-1.33,2.56-0.76,3.6s1.27,1.88,2.06,2.79
				c0.79,0.91,1.17,1.14,1.09,1.58c-0.08,0.43-0.13-0.65,1.15-2.33c1.28-1.69,2.19-2.37,1.91-3.42c-0.28-1.05-1.43-1.51-2.07-2.55
				S44.51,64.92,44.51,64.92z"/>
		</g>
		<g>
			<path class="st2" d="M77.7,44.94c-1.5-0.38-4.32-0.53-6.33-0.65"/>
			<path class="st2" d="M76.88,40.47c-1.33,1.74-3.81,3.76-6.07,4.48"/>
			<path class="st2" d="M73.22,38.72c0.46,2.53,1.18,4.73-1.48,5.64"/>
			<path class="st2" d="M66.48,46.51c-2.48,1.85-5.53,3.42-7.9,3.7"/>
			<path class="st2" d="M66.88,51.83c-3.01-1.13-7.96-1.6-8.96-1.76"/>
			<path class="st2" d="M62.19,46.03c0.07,1.99,0.67,3.27-2.87,4.23"/>
			<path class="st3" d="M79.72,48.95c-1.24-0.14-1.65,0.39-3.2-2.16s-1.55-2.56-1.55-2.56s0.56-0.27,1.21-0.58s2.91-1.79,4.68-0.35
				c1.77,1.44,2.65,2.5,2.88,2.89c0.23,0.39,1.28,1.51,1.52,1.82"/>
			<path class="st9" d="M84.19,35.21c-1,1.27-0.28,3.7-1.99,5.11c-1.71,1.41-5.02,1.56-6.01,1.73s-0.81,0.99-0.38-0.66
				c0.43-1.66-0.1-1.9,0.64-3.24s3.43-2.72,4.35-2.61C81.71,35.65,84.19,35.21,84.19,35.21z"/>
			<path class="st4" d="M73.76,41.58c0.12-0.43,0.6-0.81,1.21-2.88c0.61-2.07,0.84-3.76-0.64-4.56c-1.48-0.8-1.94-0.38-2.73-1.56
				C70.8,31.4,70.8,31.4,70.8,31.4s-0.55,1.77-1.18,4.28s1.57,4.37,2.54,4.97C73.14,41.24,73.76,41.58,73.76,41.58z"/>
			<path class="st6" d="M73.47,42.71c0,0-1.32,0.66-1.88,2.62s-2.12,3.84-4.19,3.26c-2.07-0.58-3.4-0.22-3.4-0.22
				s0.28,0.12,0.62-1.62c0.34-1.74,2.19-3.84,4.07-4.05C70.58,42.48,73.47,42.71,73.47,42.71z"/>
			<path class="st7" d="M72.83,55.21c0,0-1.83-3.23-3.32-4.48s-2.46-1.74-3.95-1.08c-1.5,0.66-2.57,0.76-2.57,0.76
				s1.72,2.01,1.96,3.08c0.23,1.07,1.68,2.58,2.85,2.37C68.95,55.65,72.83,55.21,72.83,55.21z"/>
			<path class="st8" d="M62.25,48.02c0.03,0.01,1.08-1.33,1.8-3.06c0.72-1.74,0.98-2.71,0.27-3.67s-1.51-1.7-2.41-2.49
				c-0.9-0.79-1.31-0.97-1.29-1.41c0.02-0.44,0.22,0.62-0.82,2.47c-1.04,1.84-1.85,2.64-1.43,3.65c0.42,1,1.62,1.31,2.39,2.24
				S62.25,48.02,62.25,48.02z"/>
		</g>
		<g>
			<path class="st2" d="M78.73,60.79c-1.02-1.16-3.26-2.88-4.85-4.11"/>
			<path class="st2" d="M80.58,56.64c-2.09,0.68-5.27,0.95-7.54,0.26"/>
			<path class="st2" d="M78.54,53.12c-1.05,2.34-1.7,4.57-4.41,3.82"/>
			<path class="st2" d="M68.58,55.74c-3.1,0.12-6.5-0.3-8.61-1.42"/>
			<path class="st2" d="M65.91,60.36c-1.84-2.63-5.66-5.82-6.4-6.52"/>
			<path class="st2" d="M65.31,52.92c-1.07,1.68-1.3,3.07-4.76,1.86"/>
			<path class="st3" d="M78.13,65.24c-0.94-0.81-1.58-0.61-1.41-3.59s0.17-2.98,0.17-2.98s0.62,0.1,1.33,0.2
				c0.71,0.1,3.41,0.17,4.05,2.36c0.64,2.19,0.77,3.56,0.75,4.01s0.2,1.97,0.23,2.36"/>
			<path class="st9" d="M89.58,56.43c-1.54,0.48-2.32,2.89-4.53,3.09c-2.21,0.19-5.02-1.55-5.94-1.97s-1.23,0.36,0.06-0.76
				c1.29-1.13,0.99-1.63,2.36-2.31c1.37-0.68,4.37-0.31,5.06,0.31S89.58,56.43,89.58,56.43z"/>
			<path class="st4" d="M77.38,55.78c0.34-0.29,0.96-0.33,2.63-1.69c1.67-1.36,2.82-2.63,2.05-4.13c-0.77-1.5-1.39-1.41-1.37-2.83
				c0.01-1.42,0.01-1.42,0.01-1.42s-1.46,1.15-3.39,2.86c-1.93,1.71-1.18,4.49-0.71,5.54S77.38,55.78,77.38,55.78z"/>
			<path class="st6" d="M76.5,56.55c0,0-1.47-0.2-3.03,1.1s-3.92,1.97-5.3,0.32c-1.38-1.65-2.68-2.11-2.68-2.11s0.16,0.26,1.43-0.98
				c1.27-1.24,3.97-1.93,5.65-1.04C74.24,54.73,76.5,56.55,76.5,56.55z"/>
			<path class="st7" d="M68.9,66.51c0,0,0.32-3.69-0.21-5.57c-0.53-1.88-1.04-2.83-2.65-3.13s-2.55-0.83-2.55-0.83
				s0.28,2.63-0.13,3.65c-0.41,1.02-0.07,3.08,1.01,3.56C65.46,64.67,68.9,66.51,68.9,66.51z"/>
			<path class="st8" d="M64.24,54.59c0.02,0.02,1.64-0.48,3.21-1.51c1.57-1.03,2.34-1.68,2.3-2.87c-0.04-1.18-0.29-2.25-0.59-3.42
				c-0.3-1.16-0.53-1.54-0.27-1.9s-0.17,0.64-2.08,1.57c-1.9,0.93-3.02,1.13-3.24,2.2c-0.22,1.06,0.6,2,0.71,3.2
				C64.4,53.08,64.24,54.59,64.24,54.59z"/>
		</g>
		<g>
			<g>
				<path class="st10" d="M53.11,63.96c-0.04-1.54-0.65-4.31-1.07-6.27"/>
				<path class="st10" d="M57.19,61.97c-2.04-0.82-4.65-2.66-5.94-4.65"/>
				<path class="st10" d="M57.9,57.97c-2.31,1.12-4.24,2.41-5.83,0.09"/>
				<path class="st10" d="M48.59,53.56c-2.45-1.9-4.78-4.41-5.68-6.62"/>
				<path class="st10" d="M43.57,55.38c0.28-3.2-0.59-8.1-0.71-9.1"/>
				<path class="st10" d="M47.9,49.3c-1.9,0.6-2.97,1.52-4.84-1.63"/>
				<g>
					<path class="st10" d="M49.79,66.98c-0.2-1.23-0.82-1.48,1.23-3.66c2.05-2.18,2.05-2.18,2.05-2.18s0.41,0.47,0.88,1.01
						s2.5,2.33,1.59,4.41s-1.7,3.22-2.01,3.55c-0.31,0.33-1.12,1.64-1.34,1.96"/>
				</g>
				<g>
					<path class="st10" d="M64.22,67.6c-1.49-0.62-3.64,0.72-5.45-0.55c-1.81-1.27-2.85-4.42-3.28-5.32s-1.17-0.51,0.54-0.55
						c1.71-0.03,1.81-0.61,3.29-0.26s3.54,2.57,3.68,3.49C63.13,65.33,64.22,67.6,64.22,67.6z"/>
				</g>
				<g>
					<path class="st10" d="M55.29,59.25c0.45,0,0.94,0.36,3.1,0.4c2.15,0.03,3.85-0.2,4.23-1.84c0.38-1.64-0.15-1.97,0.77-3.05
						c0.92-1.08,0.92-1.08,0.92-1.08s-1.85-0.06-4.44,0.01c-2.58,0.07-3.79,2.68-4.11,3.78C55.45,58.57,55.29,59.25,55.29,59.25z"/>
				</g>
				<g>
					<path class="st10" d="M54.13,59.28c0,0-0.99-1.1-3.03-1.11c-2.03-0.01-4.26-1.01-4.26-3.16c0-2.15-0.7-3.34-0.7-3.34
						s-0.04,0.31,1.73,0.17c1.77-0.14,4.28,1.08,4.99,2.84C53.57,56.43,54.13,59.28,54.13,59.28z"/>
				</g>
				<g>
					<path class="st10" d="M41.9,62.01c0,0,2.62-2.62,3.42-4.4c0.8-1.78,1.02-2.84-0.02-4.1c-1.04-1.26-1.42-2.28-1.42-2.28
						s-1.48,2.2-2.44,2.71s-2.04,2.31-1.52,3.38C40.45,58.4,41.9,62.01,41.9,62.01z"/>
				</g>
				<g>
					<path class="st10" d="M46,49.9c0,0.03,1.57,0.68,3.43,0.91c1.87,0.22,2.87,0.21,3.61-0.72c0.73-0.93,1.23-1.91,1.75-2.99
						c0.52-1.08,0.59-1.52,1.02-1.63c0.43-0.1-0.54,0.38-2.6-0.13c-2.06-0.51-3.04-1.07-3.9-0.4s-0.83,1.91-1.52,2.91
						C47.1,48.84,46,49.9,46,49.9z"/>
				</g>
			</g>
		</g>
	</g>
	<g>
		<path class="st11" d="M41.45,84.41c0.03-0.65,0.31-0.33,0.74-0.48c0.43-0.15,0.49-0.54,1.02-1.21c0.52-0.67,0.83-1.38,1.05-1.63
			c0.21-0.26,0.31-4.13,0.31-4.13s-0.64-0.94-0.52-0.53c0.12,0.41-0.09,2.81-0.5,3.83c-0.42,1.02-0.71,0.36-0.29-0.37
			c0.42-0.73,0.11-2.56,0.11-2.56s0-1.48-0.06-2.14s-0.4-0.64-0.5-0.27s-0.83,1.95-1.15,2.38c-0.32,0.43,0.12-1.08,0.12-1.08
			s0.2-0.97,0.45-1.81c0.25-0.84-0.62-0.45-0.62-0.45l-1.37-0.55c0,0-0.11-0.5-0.32-1.07c-0.21-0.57-1.29-0.07-2.05,0.21
			c-0.75,0.28-4.86,5.19-4.86,5.19s-0.47,1.7-0.57,1.78c-0.1,0.08-0.1-0.59-0.16-1.58c-0.06-0.99,2.42-3.37,2.73-3.69
			c0.31-0.33,3.04-2.49,3.04-2.49l-0.78-0.12c0,0-1.51,0.56-2.54,1.2s-1.47,1.62-2.46,2.57c-0.22,0.21-0.41,0.45-0.59,0.7
			c-0.64,2.47-0.14,4.55,1.43,5.59c1.87,1.25,4.1,2.39,4.66,2.71c0.54,0.3,2.64,1,3.76,0.58C41.48,84.81,41.44,84.61,41.45,84.41z"
			/>
		<path class="st12" d="M45.08,77.14c-1.46-4.05-1.8-5.17-1.71-5.3c0.09-0.14,0.05-0.44-0.26-0.49c-0.9-0.13-1.78-0.06-2.97-0.2
			s-6.65,0.41-7.95,3.5c-0.21,0.5-0.37,0.98-0.5,1.46c0.17-0.25,0.37-0.49,0.59-0.7c0.99-0.94,1.43-1.93,2.46-2.57
			s2.54-1.2,2.54-1.2l0.78,0.12c0,0-2.73,2.17-3.04,2.49c-0.31,0.33-2.79,2.7-2.73,3.69c0.06,0.99,0.06,1.66,0.16,1.58
			c0.1-0.08,0.57-1.78,0.57-1.78s4.11-4.91,4.86-5.19c0.75-0.28,1.84-0.78,2.05-0.21c0.21,0.57,0.32,1.07,0.32,1.07l1.37,0.55
			c0,0,0.87-0.39,0.62,0.45c-0.25,0.84-0.45,1.81-0.45,1.81s-0.44,1.51-0.12,1.08c0.32-0.43,1.05-2.01,1.15-2.38s0.44-0.39,0.5,0.27
			s0.06,2.14,0.06,2.14s0.31,1.82-0.11,2.56c-0.42,0.73-0.13,1.4,0.29,0.37c0.42-1.02,0.62-3.42,0.5-3.83
			c-0.12-0.41,0.52,0.53,0.52,0.53s-0.1,3.88-0.31,4.13c-0.21,0.26-0.52,0.97-1.05,1.63c-0.52,0.67-0.58,1.06-1.02,1.21
			c-0.43,0.15-0.71-0.17-0.74,0.48c-0.01,0.21,0.03,0.41,0.1,0.58c0.06-0.02,0.11-0.04,0.16-0.07
			C42.78,84.37,46.54,81.19,45.08,77.14z"/>
	</g>
	<g>
		<path class="st11" d="M24.38,63.87c0.48-0.43,0.45-0.01,0.86,0.19c0.41,0.2,0.73-0.03,1.58-0.12c0.84-0.09,1.57-0.37,1.9-0.4
			c0.33-0.03,3.17-2.68,3.17-2.68s0.22-1.11,0.01-0.74c-0.21,0.37-2.06,1.91-3.09,2.33c-1.02,0.42-0.75-0.25,0.07-0.47
			c0.82-0.21,1.9-1.71,1.9-1.71s1.06-1.04,1.48-1.54c0.43-0.5,0.17-0.73-0.15-0.54c-0.33,0.19-1.97,0.78-2.5,0.85
			c-0.53,0.07,0.85-0.67,0.85-0.67s0.83-0.54,1.61-0.95c0.78-0.41-0.12-0.76-0.12-0.76l-0.57-1.36c0,0,0.28-0.43,0.54-0.97
			c0.26-0.55-0.86-0.97-1.59-1.31c-0.73-0.34-7.11,0.18-7.11,0.18s-1.55,0.86-1.67,0.84c-0.13-0.01,0.35-0.48,1.02-1.22
			c0.67-0.74,4.1-0.63,4.55-0.65c0.45-0.01,3.91,0.41,3.91,0.41l-0.46-0.64c0,0-1.46-0.68-2.64-0.97c-1.18-0.29-2.19,0.09-3.55,0.05
			c-0.3-0.01-0.61,0.02-0.91,0.07c-2.21,1.27-3.34,3.09-2.98,4.95c0.42,2.21,1.17,4.6,1.34,5.22c0.16,0.59,1.14,2.58,2.23,3.09
			C24.11,64.18,24.22,64.01,24.38,63.87z"/>
		<path class="st12" d="M32.09,61.36c1.86-3.88,2.42-4.9,2.58-4.94c0.16-0.03,0.35-0.27,0.16-0.53c-0.54-0.74-1.21-1.31-1.94-2.26
			s-4.96-4.45-8.07-3.21c-0.5,0.2-0.96,0.42-1.39,0.67c0.3-0.05,0.61-0.08,0.91-0.07c1.36,0.04,2.38-0.33,3.55-0.05
			c1.18,0.29,2.64,0.97,2.64,0.97l0.46,0.64c0,0-3.46-0.43-3.91-0.41c-0.45,0.01-3.88-0.09-4.55,0.65c-0.67,0.74-1.14,1.2-1.02,1.22
			c0.13,0.01,1.67-0.84,1.67-0.84s6.38-0.52,7.11-0.18c0.73,0.34,1.84,0.76,1.59,1.31c-0.26,0.55-0.54,0.97-0.54,0.97l0.57,1.36
			c0,0,0.89,0.35,0.12,0.76c-0.78,0.41-1.61,0.95-1.61,0.95s-1.38,0.74-0.85,0.67c0.53-0.07,2.17-0.66,2.5-0.85
			c0.33-0.19,0.58,0.04,0.15,0.54c-0.43,0.5-1.48,1.54-1.48,1.54s-1.08,1.5-1.9,1.71c-0.82,0.21-1.09,0.89-0.07,0.47
			c1.02-0.42,2.88-1.96,3.09-2.33c0.21-0.37-0.01,0.74-0.01,0.74s-2.83,2.65-3.17,2.68c-0.33,0.03-1.06,0.3-1.9,0.4
			c-0.84,0.09-1.16,0.33-1.58,0.12c-0.41-0.2-0.38-0.62-0.86-0.19c-0.16,0.14-0.27,0.31-0.35,0.48c0.05,0.03,0.11,0.05,0.16,0.07
			C25.34,64.79,30.24,65.24,32.09,61.36z"/>
	</g>
	<g>
		<path class="st11" d="M32.42,44.03c0.56-0.33,0.44,0.07,0.81,0.35c0.37,0.28,0.73,0.11,1.57,0.18c0.85,0.07,1.61-0.07,1.94-0.03
			c0.33,0.03,3.62-2.03,3.62-2.03s0.42-1.05,0.15-0.73c-0.28,0.33-2.39,1.49-3.47,1.71c-1.08,0.22-0.69-0.39,0.15-0.44
			c0.84-0.05,2.19-1.32,2.19-1.32s1.23-0.82,1.75-1.24c0.52-0.41,0.31-0.69-0.05-0.56c-0.36,0.13-2.08,0.4-2.62,0.36
			c-0.53-0.03,0.97-0.5,0.97-0.5s0.92-0.38,1.76-0.63c0.84-0.26,0.03-0.76,0.03-0.76l-0.31-1.44c0,0,0.36-0.37,0.71-0.86
			c0.35-0.49-0.66-1.12-1.31-1.59c-0.65-0.47-7.02-1.17-7.02-1.17s-1.68,0.55-1.8,0.51c-0.12-0.04,0.44-0.41,1.23-1.01
			c0.79-0.6,4.14,0.15,4.59,0.23c0.44,0.07,3.76,1.14,3.76,1.14l-0.33-0.72c0,0-1.3-0.94-2.41-1.45c-1.1-0.5-2.17-0.33-3.5-0.63
			c-0.3-0.07-0.6-0.1-0.91-0.1c-2.41,0.83-3.86,2.4-3.86,4.29c0,2.25,0.28,4.74,0.33,5.38c0.05,0.61,0.63,2.75,1.6,3.45
			C32.1,44.28,32.24,44.13,32.42,44.03z"/>
		<path class="st12" d="M40.47,43.02c2.56-3.46,3.31-4.36,3.47-4.36c0.16,0,0.4-0.2,0.26-0.49c-0.39-0.83-0.94-1.51-1.48-2.59
			c-0.54-1.08-4.03-5.31-7.32-4.68c-0.53,0.1-1.03,0.23-1.49,0.39c0.3,0.01,0.61,0.03,0.91,0.1c1.33,0.3,2.4,0.12,3.5,0.63
			c1.1,0.5,2.41,1.45,2.41,1.45l0.33,0.72c0,0-3.32-1.07-3.76-1.14c-0.44-0.07-3.79-0.82-4.59-0.23c-0.79,0.6-1.35,0.97-1.23,1.01
			c0.12,0.04,1.8-0.51,1.8-0.51s6.37,0.7,7.02,1.17c0.65,0.47,1.67,1.1,1.31,1.59c-0.35,0.49-0.71,0.86-0.71,0.86l0.31,1.44
			c0,0,0.81,0.51-0.03,0.76c-0.84,0.26-1.76,0.63-1.76,0.63s-1.5,0.47-0.97,0.5c0.53,0.03,2.26-0.24,2.62-0.36
			c0.36-0.13,0.57,0.15,0.05,0.56c-0.52,0.41-1.75,1.24-1.75,1.24s-1.35,1.27-2.19,1.32c-0.84,0.05-1.24,0.66-0.15,0.44
			c1.08-0.22,3.19-1.38,3.47-1.71c0.28-0.33-0.15,0.73-0.15,0.73s-3.28,2.06-3.62,2.03c-0.33-0.03-1.09,0.1-1.94,0.03
			c-0.85-0.07-1.2,0.1-1.57-0.18c-0.37-0.28-0.25-0.68-0.81-0.35c-0.18,0.11-0.32,0.25-0.43,0.4c0.05,0.04,0.1,0.07,0.15,0.1
			C33.19,45.11,37.91,46.48,40.47,43.02z"/>
	</g>
	<g>
		<path class="st11" d="M52.98,28.51c0.46,0.46,0.04,0.45-0.13,0.87c-0.17,0.42,0.08,0.73,0.23,1.56c0.15,0.83,0.47,1.54,0.52,1.87
			c0.05,0.33,2.88,2.98,2.88,2.98s1.13,0.14,0.74-0.04c-0.39-0.18-2.05-1.93-2.53-2.92c-0.49-0.99,0.2-0.77,0.47,0.04
			c0.27,0.8,1.84,1.78,1.84,1.78s1.11,0.98,1.64,1.38s0.75,0.12,0.53-0.19c-0.21-0.32-0.91-1.92-1.02-2.44
			c-0.11-0.52,0.73,0.81,0.73,0.81s0.6,0.79,1.06,1.54c0.46,0.75,0.75-0.17,0.75-0.17l1.32-0.66c0,0,0.45,0.25,1.01,0.47
			c0.56,0.22,0.91-0.92,1.2-1.67c0.29-0.75-0.65-7.08-0.65-7.08s-0.96-1.48-0.95-1.61c0.01-0.13,0.51,0.32,1.28,0.93
			c0.78,0.62,0.91,4.05,0.95,4.49c0.04,0.45-0.15,3.93-0.15,3.93l0.61-0.51c0,0,0.58-1.5,0.79-2.7s-0.24-2.18-0.28-3.54
			c-0.01-0.3-0.06-0.61-0.13-0.9c-1.42-2.12-3.31-3.12-5.13-2.64c-2.18,0.57-4.51,1.48-5.12,1.69c-0.58,0.2-2.5,1.31-2.93,2.43
			C52.66,28.26,52.84,28.36,52.98,28.51z"/>
		<path class="st12" d="M56,36.04c4,1.59,5.05,2.09,5.1,2.24c0.04,0.15,0.29,0.33,0.54,0.13c0.7-0.59,1.22-1.29,2.13-2.09
			c0.9-0.8,4.11-5.25,2.66-8.27c-0.23-0.49-0.49-0.93-0.76-1.34c0.07,0.29,0.12,0.6,0.13,0.9c0.05,1.36,0.49,2.35,0.28,3.54
			s-0.79,2.7-0.79,2.7l-0.61,0.51c0,0,0.19-3.48,0.15-3.93c-0.04-0.45-0.17-3.88-0.95-4.49c-0.78-0.62-1.28-1.06-1.28-0.93
			c-0.01,0.13,0.95,1.61,0.95,1.61s0.94,6.33,0.65,7.08c-0.29,0.75-0.64,1.89-1.2,1.67c-0.56-0.22-1.01-0.47-1.01-0.47l-1.32,0.66
			c0,0-0.29,0.92-0.75,0.17c-0.46-0.75-1.06-1.54-1.06-1.54s-0.83-1.33-0.73-0.81c0.11,0.52,0.8,2.12,1.02,2.44
			c0.21,0.32,0,0.59-0.53,0.19S57,34.64,57,34.64s-1.57-0.98-1.84-1.78c-0.27-0.8-0.96-1.03-0.47-0.04
			c0.49,0.99,2.15,2.74,2.53,2.92c0.39,0.18-0.74,0.04-0.74,0.04s-2.83-2.65-2.88-2.98c-0.05-0.33-0.37-1.03-0.52-1.87
			c-0.15-0.83-0.4-1.14-0.23-1.56c0.17-0.42,0.59-0.42,0.13-0.87c-0.15-0.15-0.33-0.25-0.5-0.32c-0.02,0.06-0.04,0.11-0.05,0.17
			C52.13,29.53,52.01,34.45,56,36.04z"/>
	</g>
	<g>
		<path class="st11" d="M78.91,39c-0.34,0.55-0.43,0.14-0.88,0.07c-0.45-0.07-0.69,0.24-1.47,0.58c-0.78,0.34-1.39,0.81-1.7,0.94
			c-0.31,0.13-2.24,3.49-2.24,3.49s0.12,1.13,0.21,0.71c0.09-0.42,1.41-2.43,2.27-3.13c0.85-0.7,0.79,0.02,0.07,0.46
			c-0.72,0.44-1.31,2.2-1.31,2.2s-0.7,1.31-0.97,1.91c-0.26,0.6,0.05,0.75,0.31,0.47s1.66-1.33,2.14-1.55s-0.62,0.89-0.62,0.89
			s-0.63,0.76-1.26,1.38c-0.62,0.62,0.33,0.69,0.33,0.69l0.95,1.13c0,0-0.14,0.49-0.23,1.09c-0.08,0.6,1.11,0.67,1.9,0.79
			c0.8,0.11,6.75-2.26,6.75-2.26s1.23-1.27,1.35-1.3c0.13-0.02-0.19,0.57-0.62,1.46c-0.42,0.9-3.73,1.81-4.16,1.95
			s-3.86,0.75-3.86,0.75l0.63,0.48c0,0,1.59,0.22,2.8,0.15c1.21-0.07,2.07-0.73,3.38-1.09c0.29-0.08,0.58-0.2,0.85-0.34
			c1.74-1.86,2.28-3.93,1.4-5.6c-1.05-1.99-2.47-4.06-2.82-4.6c-0.33-0.52-1.85-2.13-3.03-2.3C79.07,38.63,79.02,38.82,78.91,39z"/>
		<path class="st12" d="M72.27,43.67c-0.64,4.26-0.88,5.4-1.02,5.48s-0.26,0.36,0,0.55c0.73,0.55,1.54,0.9,2.52,1.59
			c0.98,0.7,6.05,2.8,8.66,0.7c0.42-0.34,0.8-0.69,1.13-1.05c-0.27,0.14-0.56,0.26-0.85,0.34c-1.32,0.36-2.17,1.02-3.38,1.09
			c-1.21,0.07-2.8-0.15-2.8-0.15l-0.63-0.48c0,0,3.43-0.61,3.86-0.75s3.74-1.05,4.16-1.95c0.42-0.9,0.74-1.49,0.62-1.46
			c-0.13,0.02-1.35,1.3-1.35,1.3s-5.95,2.37-6.75,2.26c-0.8-0.11-1.99-0.19-1.9-0.79c0.08-0.6,0.23-1.09,0.23-1.09l-0.95-1.13
			c0,0-0.96-0.07-0.33-0.69c0.62-0.62,1.26-1.38,1.26-1.38s1.1-1.12,0.62-0.89s-1.88,1.27-2.14,1.55s-0.57,0.13-0.31-0.47
			c0.26-0.6,0.97-1.91,0.97-1.91s0.59-1.75,1.31-2.2c0.72-0.44,0.78-1.17-0.07-0.46c-0.85,0.7-2.17,2.72-2.27,3.13
			c-0.09,0.42-0.21-0.71-0.21-0.71s1.93-3.36,2.24-3.49c0.31-0.13,0.92-0.6,1.7-0.94c0.78-0.34,1.02-0.65,1.47-0.58
			c0.45,0.07,0.54,0.48,0.88-0.07c0.11-0.18,0.16-0.37,0.19-0.56c-0.06-0.01-0.12-0.01-0.17-0.02C77.72,38.4,72.9,39.41,72.27,43.67
			z"/>
	</g>
	<g>
		<path class="st11" d="M84.56,67.82c-0.57-0.3-0.17-0.42-0.13-0.87c0.04-0.46-0.29-0.68-0.67-1.43c-0.38-0.76-0.9-1.34-1.04-1.64
			c-0.14-0.3-3.62-2.02-3.62-2.02s-1.12,0.19-0.7,0.25c0.42,0.07,2.52,1.26,3.27,2.07c0.75,0.81,0.03,0.79-0.46,0.1
			c-0.49-0.69-2.27-1.18-2.27-1.18s-1.35-0.62-1.97-0.85s-0.75,0.1-0.45,0.34c0.3,0.24,1.43,1.57,1.68,2.04
			c0.25,0.47-0.93-0.56-0.93-0.56s-0.8-0.59-1.46-1.17c-0.66-0.58-0.67,0.38-0.67,0.38l-1.07,1.01c0,0-0.5-0.11-1.1-0.16
			c-0.6-0.05-0.61,1.15-0.67,1.95c-0.06,0.8,2.67,6.6,2.67,6.6s1.35,1.15,1.38,1.27s-0.58-0.16-1.5-0.52
			c-0.92-0.37-2.03-3.61-2.2-4.03c-0.17-0.42-0.99-3.8-0.99-3.8l-0.44,0.66c0,0-0.12,1.6,0.02,2.81c0.15,1.2,0.85,2.02,1.29,3.31
			c0.1,0.29,0.23,0.56,0.39,0.83c1.97,1.62,4.07,2.04,5.68,1.05c1.92-1.17,3.9-2.71,4.42-3.09c0.5-0.36,2.01-1.98,2.11-3.17
			C84.94,67.97,84.74,67.92,84.56,67.82z"/>
		<path class="st12" d="M79.49,61.48c-4.29-0.37-5.44-0.54-5.53-0.68c-0.09-0.14-0.38-0.23-0.55,0.03c-0.5,0.76-0.8,1.59-1.44,2.61
			c-0.64,1.02-2.42,6.21-0.17,8.68c0.36,0.4,0.74,0.75,1.11,1.06c-0.15-0.26-0.29-0.54-0.39-0.83c-0.44-1.29-1.15-2.11-1.29-3.31
			c-0.15-1.2-0.02-2.81-0.02-2.81l0.44-0.66c0,0,0.82,3.39,0.99,3.8c0.17,0.42,1.28,3.66,2.2,4.03c0.92,0.37,1.53,0.65,1.5,0.52
			s-1.38-1.27-1.38-1.27s-2.73-5.79-2.67-6.6c0.06-0.8,0.07-2,0.67-1.95c0.6,0.05,1.1,0.16,1.1,0.16l1.07-1.01
			c0,0,0.01-0.96,0.67-0.38c0.66,0.58,1.46,1.17,1.46,1.17s1.18,1.03,0.93,0.56c-0.25-0.47-1.38-1.8-1.68-2.04
			c-0.3-0.24-0.17-0.56,0.45-0.34s1.97,0.85,1.97,0.85s1.79,0.49,2.27,1.18c0.49,0.69,1.21,0.71,0.46-0.1
			c-0.75-0.81-2.84-2-3.27-2.07c-0.42-0.07,0.7-0.25,0.7-0.25s3.48,1.72,3.62,2.02c0.14,0.3,0.66,0.88,1.04,1.64
			c0.38,0.76,0.71,0.98,0.67,1.43c-0.04,0.46-0.45,0.57,0.13,0.87c0.18,0.1,0.38,0.14,0.57,0.16c0-0.06,0.01-0.12,0-0.17
			C85.08,66.6,83.78,61.86,79.49,61.48z"/>
	</g>
	<g>
		<path class="st11" d="M65.7,87.46c-0.32-0.56,0.08-0.44,0.36-0.8c0.28-0.36,0.12-0.72,0.2-1.57c0.08-0.84-0.04-1.61,0-1.94
			c0.04-0.33-1.97-3.65-1.97-3.65s-1.05-0.44-0.72-0.16c0.32,0.28,1.45,2.41,1.65,3.5c0.2,1.09-0.4,0.68-0.44-0.16
			c-0.04-0.84-1.29-2.21-1.29-2.21s-0.8-1.25-1.21-1.77c-0.4-0.52-0.68-0.32-0.56,0.04c0.12,0.36,0.36,2.09,0.32,2.62
			c-0.04,0.53-0.48-0.97-0.48-0.97s-0.36-0.92-0.6-1.77c-0.24-0.84-0.76-0.04-0.76-0.04l-1.45,0.28c0,0-0.36-0.36-0.84-0.72
			c-0.48-0.36-1.13,0.64-1.61,1.29c-0.48,0.64-1.29,7-1.29,7s0.52,1.69,0.48,1.81c-0.04,0.12-0.4-0.44-0.98-1.25
			c-0.58-0.8,0.22-4.14,0.3-4.58c0.08-0.44,1.21-3.74,1.21-3.74l-0.72,0.32c0,0-0.96,1.29-1.49,2.38s-0.36,2.16-0.68,3.49
			c-0.07,0.29-0.1,0.6-0.12,0.9c0.79,2.42,2.34,3.9,4.23,3.93c2.25,0.04,4.74-0.2,5.39-0.24c0.61-0.04,2.76-0.59,3.48-1.54
			C65.95,87.79,65.81,87.64,65.7,87.46z"/>
		<path class="st12" d="M64.83,79.39c-3.42-2.61-4.3-3.38-4.3-3.54c0-0.16-0.19-0.4-0.48-0.27c-0.83,0.38-1.53,0.91-2.61,1.43
			c-1.09,0.52-5.38,3.94-4.8,7.24c0.09,0.53,0.22,1.03,0.37,1.49c0.01-0.3,0.04-0.61,0.12-0.9c0.32-1.33,0.16-2.39,0.68-3.49
			s1.49-2.38,1.49-2.38l0.72-0.32c0,0-1.13,3.3-1.21,3.74c-0.08,0.44-0.88,3.78-0.3,4.58c0.58,0.8,0.94,1.37,0.98,1.25
			c0.04-0.12-0.48-1.81-0.48-1.81s0.8-6.35,1.29-7c0.48-0.64,1.13-1.65,1.61-1.29c0.48,0.36,0.84,0.72,0.84,0.72l1.45-0.28
			c0,0,0.52-0.8,0.76,0.04c0.24,0.84,0.6,1.77,0.6,1.77s0.44,1.51,0.48,0.97c0.04-0.53-0.2-2.26-0.32-2.62
			c-0.12-0.36,0.16-0.56,0.56-0.04c0.4,0.52,1.21,1.77,1.21,1.77s1.25,1.37,1.29,2.21c0.04,0.84,0.64,1.25,0.44,0.16
			c-0.2-1.09-1.33-3.22-1.65-3.5c-0.32-0.28,0.72,0.16,0.72,0.16s2.01,3.32,1.97,3.65c-0.04,0.33,0.08,1.1,0,1.94
			c-0.08,0.84,0.08,1.21-0.2,1.57c-0.28,0.36-0.68,0.24-0.36,0.8c0.1,0.18,0.25,0.33,0.4,0.44c0.04-0.05,0.07-0.1,0.1-0.14
			C66.8,86.71,68.25,82,64.83,79.39z"/>
	</g>
	<g>
		<path class="st11" d="M59.55,60.59c-0.45-0.47-0.03-0.45,0.16-0.87c0.19-0.42-0.06-0.73-0.18-1.57c-0.12-0.84-0.43-1.55-0.47-1.88
			c-0.04-0.33-2.79-3.07-2.79-3.07s-1.12-0.18-0.74,0.02c0.38,0.2,1.98,1.99,2.44,3c0.46,1.01-0.23,0.76-0.47-0.05
			c-0.24-0.81-1.78-1.84-1.78-1.84s-1.08-1.02-1.6-1.43c-0.52-0.41-0.74-0.15-0.54,0.17c0.2,0.32,0.85,1.94,0.94,2.47
			c0.09,0.53-0.7-0.83-0.7-0.83s-0.57-0.81-1.01-1.57c-0.44-0.76-0.75,0.14-0.75,0.14l-1.34,0.62c0,0-0.44-0.26-0.99-0.5
			c-0.56-0.24-0.94,0.89-1.25,1.63c-0.31,0.74,0.43,7.1,0.43,7.1s0.91,1.51,0.9,1.64s-0.5-0.33-1.25-0.97
			c-0.76-0.64-0.78-4.07-0.81-4.52c-0.03-0.45,0.27-3.92,0.27-3.92l-0.63,0.49c0,0-0.63,1.48-0.87,2.67
			c-0.24,1.19,0.17,2.19,0.17,3.55c0,0.3,0.04,0.61,0.1,0.91c1.35,2.16,3.21,3.22,5.05,2.8c2.2-0.5,4.56-1.33,5.17-1.53
			c0.59-0.18,2.54-1.23,3.01-2.33C59.87,60.85,59.69,60.74,59.55,60.59z"/>
		<path class="st12" d="M56.77,52.97c-3.94-1.72-4.99-2.25-5.03-2.4c-0.04-0.16-0.28-0.34-0.53-0.15c-0.72,0.56-1.26,1.25-2.19,2.02
			c-0.93,0.77-4.27,5.11-2.92,8.18c0.22,0.49,0.46,0.95,0.72,1.36c-0.06-0.3-0.1-0.6-0.1-0.91c-0.01-1.37-0.42-2.36-0.17-3.55
			c0.24-1.19,0.87-2.67,0.87-2.67l0.63-0.49c0,0-0.3,3.47-0.27,3.92c0.03,0.45,0.05,3.88,0.81,4.52c0.76,0.64,1.24,1.1,1.25,0.97
			s-0.9-1.64-0.9-1.64s-0.74-6.36-0.43-7.1c0.31-0.74,0.7-1.87,1.25-1.63c0.56,0.24,0.99,0.5,0.99,0.5l1.34-0.62
			c0,0,0.31-0.91,0.75-0.14c0.44,0.76,1.01,1.57,1.01,1.57s0.79,1.36,0.7,0.83c-0.09-0.53-0.74-2.15-0.94-2.47
			c-0.2-0.32,0.02-0.59,0.54-0.17c0.52,0.41,1.6,1.43,1.6,1.43s1.54,1.03,1.78,1.84c0.24,0.81,0.92,1.06,0.47,0.05
			c-0.46-1.01-2.06-2.8-2.44-3c-0.38-0.2,0.74-0.02,0.74-0.02s2.75,2.74,2.79,3.07c0.04,0.33,0.34,1.04,0.47,1.88
			c0.12,0.84,0.37,1.15,0.18,1.57c-0.19,0.42-0.61,0.4-0.16,0.87c0.14,0.15,0.32,0.26,0.49,0.33c0.02-0.05,0.04-0.11,0.06-0.16
			C60.43,59.6,60.71,54.68,56.77,52.97z"/>
	</g>
</g>
</svg>
