<?xml version="1.0" encoding="utf-8"?>
<!-- Generator: Adobe Illustrator 27.7.0, SVG Export Plug-In . SVG Version: 6.00 Build 0)  -->
<svg version="1.1" id="Layer_1" xmlns="http://www.w3.org/2000/svg" xmlns:xlink="http://www.w3.org/1999/xlink" x="0px" y="0px"
	 viewBox="0 0 108 108" style="enable-background:new 0 0 108 108;" xml:space="preserve">
<style type="text/css">
	.st0{fill-rule:evenodd;clip-rule:evenodd;fill:#78A23B;}
	.st1{opacity:0.34;fill:#694000;}
	.st2{fill:none;stroke:#708430;stroke-width:0.7859;stroke-miterlimit:10;}
	.st3{fill:#A5C239;}
	.st4{fill:#83B43B;}
	.st5{fill:#90BB3A;}
	.st6{fill:#AFCB36;}
	.st7{fill:#91B73E;}
	.st8{fill:#A5BD39;}
	.st9{fill:#A4C839;}
	.st10{fill:#73AA3A;}
	.st11{fill:none;stroke:#3D4E18;stroke-miterlimit:10;}
	.st12{fill:#841517;}
	.st13{fill:#A50D12;}
	.st14{fill:#B32227;}
	.st15{opacity:0.34;fill:#FFFFFF;}
	.st16{fill:#638D35;}
</style>
<g>
	<path class="st0" d="M79.8,80.1c-0.1,0-0.1-0.1-0.2-0.2c0,0,0,0,0,0C79.6,80,79.7,80,79.8,80.1c4.2,3,12.2-4.8,4.5-7.8
		c-0.4,0-0.8-0.1-1.2-0.4h0c0.4,0.1,0.8,0.3,1.2,0.4c0.7,0,1.4-0.4,1.8-0.9c1.4,0.2,3-1.1,1.5-3.1c2,0.4,1.9-1.6,1.1-2.7
		c3.5-0.3,5.9-2.6,6.4-5.9c0.6-3.7-1.2-9-5.2-9.9c-0.1-0.1-0.1-0.2-0.1-0.3c2.3-0.4,3.3-2.2,1.5-4c2.4-0.6,2-4.3-2.1-2.1
		c3.9-0.9,3.7-6.4,1.1-7.8c0-1.1-0.2-2.2-0.7-3.1c-1.1-2.2-3.6-3.6-6.2-3.8c0.1-2.4-2.3-4-4.6-3.3c-0.7-1.1-1.7-2.1-2.9-2.5
		c0.9-2.9-3.8-5.4-5.8-2c0.1-1.5-0.8-2.4-1.9-2.8c-0.7-1.7-2.4-1.8-3.9-1.3c-0.2-0.1-0.4-0.2-0.6-0.3c-0.3-3.1-2.5-5.9-5.2-6.6
		c-3.3-1-7.5,1.3-8.6,4.8c-0.4,0-0.7-0.1-1,0c-2.8-3.5-11.5-1.8-7.7,4.6c0.2,0.2,0.4,0.5,0.6,0.8c0,0,0,0,0,0
		c-0.2-0.3-0.4-0.6-0.6-0.9c-1.5-1.2-4.4,0.1-3.8,2c-1.1,0.1-2.2,0.5-2.9,1.2c-3.1-2.7-7-2.5-9.6,0.1c-3,2.9-5,9.2-0.8,12.1
		c-2.4-2.2-5.1-1.5-4.7,1.6c-2.2-1-4.2,2.3,0.4,2.9c-4.7-2-8.7,6-3.4,7.2c-4,0.4-3.5,6.4,0.4,7c-2.9,1.3-2.5,4.5-0.7,5.9
		c-0.2,0.9,0,1.8,1.6,2.3c-1.4,0.7-1,1.7-0.2,2.4c-2,2,0.2,6.3,3.7,4.8c-0.9,1.1-0.8,2.4-0.1,3.4c-0.4,1.8,0.7,2.9,2.3,3.4
		c0.4,1.2,1.1,1.7,2.2,1.9c0.1,0.5,0.6,0.9,1.3,1.4c0.5,1.5,1.7,2.1,2.5,1.6c0.1-0.2,0.2-0.4,0.3-0.6c0,0,0.1,0,0.2,0
		c-0.2,0.2-0.3,0.4-0.5,0.5c-0.6,1.8,1.4,3.5,3.4,4c0,0.9,0.5,1.5,1.3,2c0.5,2.2,1.9,4.1,3.7,4.9c3.2,1.5,7.7,0.1,9.4-3.3
		c0.2-0.1,0.4,0,0.6-0.1c0.1,0.1,0.2,0.1,0.3,0.2c1.5,3,7.1,3.8,8.6,0.8c1.3,0.4,2.9,0.1,4.1-0.7c0.9-0.2,1.6-0.8,1.9-1.8
		c0.7,2.4,3.8,1.2,3.4-1.4c0,0,0.1,0,0.1,0c1.3,4.5,6.5,6.7,10,5.3C79.8,88.9,81.9,83.8,79.8,80.1z"/>
	<path class="st1" d="M88.6,59.8l-2.4-0.5l-4.8-1.1l0,0l-0.2,0c-1.4-0.1-2.8-0.1-4.2-0.1c-1.3,0-2.6,0.1-3.9,0.5
		c-0.3-0.6-0.9-0.6-1.4-0.9L70.1,57L67,55.6c-1.2-0.5-2.3-1-3.5-1.4c0.3-1.3,0.5-2.5,0.4-3.5c1.3-0.6,2.6-1.3,3.8-2.1
		c0.4-0.3,0.9-0.6,1.3-0.9c0.2,0.2,0.5,0.2,0.7,0.2l1.3,0.2l2.6,0.4l5.3,0.8c1.8,0.3,3.6,0.5,5.3,0.7c1.8,0.2,3.6,0.4,5.4,0.6
		l0.3-1.4c-1.7-0.5-3.5-0.8-5.2-1.3c-1.8-0.4-3.5-0.8-5.3-1.1l-5.3-1l-2.5-0.5c0.8-0.8,1.6-1.7,2.3-2.7c0.9-1.3,1.6-2.6,2.2-4
		l9.3-0.9l-0.1-1.4L77,36.2c0.1-0.5,0.3-0.9,0.4-1.4c0.8-2.7,0.9-5.5,1.1-8.3L77,26.5c-0.3,2.7-0.6,5.3-1.5,7.8
		c-0.8,2.5-1.9,4.9-3.5,6.9c-1.6,2-3.6,3.7-5.8,4.9c-1.4,0.8-2.8,1.4-4.3,2c-0.7-0.4-1.4-0.7-1.7-0.9c-0.5-0.4-1.1-0.9-1.8-1.4
		l-1-15.3c0.1-0.1,0.2-0.1,0.2-0.2l0.8-0.6l1.7-1.2l3.4-2.4l6.8-4.8L69.5,20l-7.1,4.4l-3.5,2.3l-1.7,1.1l-0.6-10l-1.4,0.1l0.1,11.5
		c0,0,0,0,0,0l0,0l0.1,5.7c0,0-0.1-0.1-0.1-0.1c-0.7-0.7-1.5-1.4-2.3-2c-0.1-0.1-0.2-0.2-0.3-0.2l-3.7-13.1l-1.4,0.4L50,30.9
		c-0.6-0.4-1.2-0.9-1.9-1.3c-1.7-1.1-3.4-2.1-5.1-3c-1.8-0.9-3.6-1.8-5.4-2.6l-0.6,1.3c1.8,0.8,3.5,1.7,5.2,2.7c1.7,0.9,3.4,1.9,5,3
		c1.6,1.1,3.2,2.2,4.6,3.5c0.7,0.6,1.5,1.3,2.1,1.9c0.3,0.3,0.7,0.7,1,1c0.1,0.1,0.2,0.3,0.4,0.4l0.1,7.3c-1,0.4-1.8,1.2-1.8,1.2
		s-0.5,0.4-1.1,1l-12.5-6.5c-0.4-0.8-1-1.5-1.5-2.3l-2.1-3.1c-1.5-2.1-2.9-4.1-4.5-6.1l-1.2,0.8c1.3,2.2,2.6,4.3,4,6.5l2.1,3.2
		c0.4,0.5,0.7,1.1,1,1.6c-0.8,0-1.6,0.1-2.4,0.1l-4.3,0.2c-2.9,0.2-5.7,0.4-8.6,0.7l0.1,1.4c2.9,0,5.8,0,8.6-0.1l4.3-0.2
		c1.1-0.1,2.2,0,3.2-0.2l3.3,2l-8.1,4.8l-13.3,2.2l0.2,1.4l13.5-2.2l0.1,0l0.1-0.1l10.5-4.3l5,3.1c-0.1,0.2-0.2,0.4-0.2,0.6
		c-0.2,1.3,0.4,2.6,0.8,4.1l-5.6,4.6l-24.2-1.3l-0.1,1.4l14.4,1.5l-11.1,8.6l0.8,1.2l14.3-9.4l4.8,0.5l-0.7,5
		c-0.2,1.2-0.3,2.3-0.5,3.5l-14.7,5.1l0.4,1.4l13.8-3.7c0,0,0,0.1,0,0.1L40,85.9l1.4,0.3l2.9-12.5c0.5-2.1,0.8-4.2,1.2-6.3l1-5.8
		l4.8-2.9c0.2,0.2,0.6,0.4,1.2,0.6c0.7,0.2,1.3,0.3,1.8,0.4l2.5,15l-5,14.6l1.4,0.5l5-12.6l8,11.6l1.2-0.8l-8.3-13.9L58,59.4
		c0.8-0.2,1.5-0.4,1.5-0.4s1.5-0.8,2.6-1.9c1.3,0.4,2.6,0.9,3.9,1.3l3.2,1l1.6,0.5c0.2,0.1,0.5,0.1,0.7,0.2l0.9,4.8l0.5,2.6l0.3,1.3
		l0.2,0.7c0,0.2,0.1,0.4,0.2,0.5l0.2,0.3c1,1.6,1.9,3,2.9,4.5l3,4.5l1.2-0.8L78.4,74c-0.9-1.5-1.8-3.1-2.6-4.6l-0.1-0.3
		c0,0,0,0,0-0.1l-0.1-0.6l-0.2-1.3L75,64.4l-0.6-4.2c0.9,0,1.8,0,2.7-0.1c0.8-0.1,1.5-0.1,2.3-0.2l5.8,13.9l1.4-0.5l-4.4-13.5
		l3.7,0.9l2.4,0.5c0.8,0.2,1.6,0.3,2.6,0.4v-1.4C90.3,60.1,89.4,59.9,88.6,59.8z"/>
	<path class="st2" d="M74.7,80.5c0-1.9-0.8-5.2-1.3-7.6"/>
	<path class="st2" d="M79.7,78.1c-2.5-1-5.7-3.2-7.2-5.7"/>
	<path class="st2" d="M80.5,73.2c-2.8,1.4-5.2,2.9-7.1,0.1"/>
	<path class="st2" d="M69.2,67.9c-3-2.3-5.8-5.4-6.9-8.1"/>
	<path class="st2" d="M63.1,70.1c0.3-3.9-0.7-9.9-0.9-11.1"/>
	<path class="st2" d="M68.3,62.7c-2.3,0.7-3.6,1.8-5.9-2"/>
	<path class="st3" d="M70.6,84.2c-0.2-1.5-1-1.8,1.5-4.5c2.5-2.7,2.5-2.7,2.5-2.7s0.5,0.6,1.1,1.2c0.6,0.7,3,2.8,1.9,5.4
		c-1.1,2.5-2.1,3.9-2.4,4.3c-0.4,0.4-1.4,2-1.6,2.4"/>
	<path class="st4" d="M88.2,85c-1.8-0.8-4.4,0.9-6.6-0.7c-2.2-1.5-3.5-5.4-4-6.5c-0.5-1.1-1.4-0.6,0.7-0.7s2.2-0.7,4-0.3
		c1.8,0.4,4.3,3.1,4.5,4.3C86.9,82.2,88.2,85,88.2,85z"/>
	<path class="st5" d="M77.3,74.8c0.5,0,1.2,0.4,3.8,0.5c2.6,0,4.7-0.2,5.1-2.2c0.5-2-0.2-2.4,0.9-3.7c1.1-1.3,1.1-1.3,1.1-1.3
		s-2.3-0.1-5.4,0c-3.1,0.1-4.6,3.3-5,4.6C77.5,74,77.3,74.8,77.3,74.8z"/>
	<path class="st6" d="M75.9,74.8c0,0-1.2-1.3-3.7-1.4S67,72.2,67,69.6c0-2.6-0.8-4.1-0.8-4.1s-0.1,0.4,2.1,0.2s5.2,1.3,6.1,3.5
		C75.2,71.4,75.9,74.8,75.9,74.8z"/>
	<path class="st7" d="M61,78.2c0,0,3.2-3.2,4.2-5.4c1-2.2,1.2-3.5,0-5S63.5,65,63.5,65s-1.8,2.7-3,3.3c-1.2,0.6-2.5,2.8-1.8,4.1
		C59.3,73.8,61,78.2,61,78.2z"/>
	<path class="st8" d="M66,63.4c0,0,1.9,0.8,4.2,1.1c2.3,0.3,3.5,0.3,4.4-0.9c0.9-1.1,1.5-2.3,2.1-3.6s0.7-1.9,1.2-2
		c0.5-0.1-0.7,0.5-3.2-0.2s-3.7-1.3-4.7-0.5c-1,0.8-1,2.3-1.9,3.5C67.4,62.1,66,63.4,66,63.4z"/>
	<path class="st2" d="M33.1,80.9c1.8-0.5,4.9-2,7.1-3.1"/>
	<path class="st2" d="M36.6,85.1c0.4-2.6,1.8-6.3,3.7-8.4"/>
	<path class="st2" d="M41.6,84.7c-2-2.4-4.1-4.3-1.8-6.9"/>
	<path class="st2" d="M44,72.4c1.5-3.5,3.8-7,6.1-8.7"/>
	<path class="st2" d="M40.3,67.1c3.9-0.6,9.4-3.1,10.5-3.6"/>
	<path class="st2" d="M48.8,70.4c-1.3-2.1-2.7-3.1,0.5-6.2"/>
	<path class="st4" d="M28.5,77.9c1.4-0.6,1.5-1.4,4.7,0.4s3.2,1.8,3.2,1.8s-0.4,0.6-0.9,1.3c-0.5,0.7-2,3.6-4.7,3.2
		c-2.7-0.5-4.3-1-4.8-1.3c-0.5-0.3-2.3-0.8-2.7-1"/>
	<path class="st9" d="M32.1,95.1c0.3-1.9-1.9-4.1-1-6.6c1-2.5,4.4-4.7,5.3-5.5c0.9-0.8,0.3-1.5,0.8,0.5c0.5,2,1.3,2,1.3,3.8
		c0,1.9-2,5-3,5.4S32.1,95.1,32.1,95.1z"/>
	<path class="st5" d="M39.3,82.1c0.1,0.5-0.1,1.2,0.5,3.8s1.4,4.5,3.4,4.4c2.1,0,2.3-0.8,3.8,0c1.6,0.8,1.6,0.8,1.6,0.8
		s-0.5-2.2-1.3-5.2c-0.9-3-4.3-3.7-5.7-3.7S39.3,82.1,39.3,82.1z"/>
	<path class="st6" d="M38.9,80.7c0,0,1-1.5,0.4-3.9c-0.6-2.4-0.1-5.3,2.5-6c2.5-0.6,3.7-1.8,3.7-1.8s-0.4,0,0.3,2.1
		c0.7,2,0,5.4-1.9,6.7C42.1,79.2,38.9,80.7,38.9,80.7z"/>
	<path class="st7" d="M32,67.1c0,0,3.9,2.3,6.2,2.7c2.3,0.4,3.7,0.4,4.8-1.2s2.3-2.4,2.3-2.4s-3-1.1-3.9-2.1c-0.9-1-3.3-1.7-4.4-0.8
		C35.9,64.3,32,67.1,32,67.1z"/>
	<path class="st8" d="M47.5,68.3c0,0-0.3,2.1,0,4.3c0.3,2.3,0.6,3.5,1.9,4c1.3,0.6,2.6,0.9,4.1,1.2c1.4,0.3,2,0.2,2.2,0.7
		c0.2,0.5-0.6-0.5-0.6-3.1c0-2.6,0.4-3.9-0.7-4.7s-2.5-0.4-3.9-0.9C49.1,69.3,47.5,68.3,47.5,68.3z"/>
	<path class="st2" d="M23.3,42.6c0.6,1.8,2.3,4.8,3.5,6.9"/>
	<path class="st2" d="M19.2,46.3c2.7,0.2,6.4,1.4,8.6,3.3"/>
	<path class="st2" d="M19.8,51.3c2.3-2.1,4.1-4.3,6.8-2.2"/>
	<path class="st2" d="M32.2,53.1c3.5,1.3,7.1,3.4,9,5.7"/>
	<path class="st2" d="M37.4,49.1c0.8,3.8,3.6,9.2,4.1,10.3"/>
	<path class="st2" d="M34.6,57.8c2-1.4,2.9-2.8,6.2,0.2"/>
	<path class="st3" d="M26.1,37.9c0.7,1.4,1.5,1.4-0.1,4.7s-1.6,3.3-1.6,3.3s-0.6-0.4-1.4-0.9c-0.7-0.5-3.7-1.8-3.4-4.6
		c0.3-2.8,0.8-4.4,1.1-4.9c0.2-0.5,0.7-2.3,0.9-2.8"/>
	<path class="st4" d="M9,42.3c2,0.2,4-2.1,6.5-1.3s4.9,4.1,5.7,5s1.6,0.2-0.4,0.8c-2,0.6-1.9,1.4-3.7,1.5c-1.9,0.1-5-1.7-5.5-2.7
		C11.1,44.5,9,42.3,9,42.3z"/>
	<path class="st5" d="M22.4,48.8c-0.5,0.2-1.2-0.1-3.7,0.6c-2.5,0.7-4.4,1.6-4.3,3.7c0.1,2,0.9,2.2,0.2,3.8
		c-0.7,1.6-0.7,1.6-0.7,1.6s2.2-0.6,5.2-1.6s3.5-4.5,3.4-5.9S22.4,48.8,22.4,48.8z"/>
	<path class="st6" d="M23.7,48.4c0,0,1.5,0.9,3.9,0.2s5.3-0.3,6.1,2.2c0.8,2.5,2,3.6,2,3.6s-0.1-0.4-2.1,0.4c-2,0.8-5.4,0.3-6.8-1.5
		C25.4,51.5,23.7,48.4,23.7,48.4z"/>
	<path class="st7" d="M37,40.8c0,0-2.1,4-2.4,6.3c-0.3,2.4-0.2,3.7,1.5,4.8c1.7,1.1,2.5,2.1,2.5,2.1s0.9-3.1,1.9-4
		c0.9-0.9,1.5-3.4,0.6-4.5C40,44.5,37,40.8,37,40.8z"/>
	<path class="st8" d="M36.6,56.4c0,0-2.1-0.2-4.3,0.2c-2.3,0.4-3.4,0.8-3.9,2.1s-0.7,2.7-1,4.1c-0.2,1.4-0.1,2-0.6,2.3
		c-0.5,0.3,0.5-0.6,3.1-0.8s3.9,0.2,4.7-0.9c0.8-1.1,0.3-2.5,0.7-3.9C35.7,58,36.6,56.4,36.6,56.4z"/>
	<path class="st2" d="M52.7,87.7c1-1.6,2.2-4.8,3.1-7.1"/>
	<path class="st2" d="M58.2,88.4c-1.5-2.2-2.9-5.8-2.9-8.7"/>
	<path class="st2" d="M61.6,84.8c-3.1-0.4-5.9-0.4-6-3.8"/>
	<path class="st2" d="M55.2,74.1c-1.2-3.6-1.9-7.7-1.3-10.5"/>
	<path class="st2" d="M48.8,72.5c2.4-3.1,4.9-8.6,5.4-9.7"/>
	<path class="st2" d="M57.3,69.3c-2.3-0.7-4-0.5-3.8-4.9"/>
	<path class="st3" d="M47.3,88.5c0.6-1.4,0.2-2.1,3.7-2.9c3.5-0.8,3.5-0.8,3.5-0.8s0.1,0.8,0.2,1.6c0.1,0.9,1,4-1.4,5.5
		c-2.3,1.5-3.9,2.1-4.4,2.2c-0.5,0.1-2.2,0.9-2.7,1.1"/>
	<path class="st4" d="M61.5,98.9c-1.1-1.6-4.2-1.7-5.2-4.2s0.1-6.4,0.3-7.6c0.2-1.2-0.8-1.3,0.9-0.2c1.8,1.1,2.2,0.6,3.5,2
		c1.3,1.4,1.9,5,1.4,6C62,95.8,61.5,98.9,61.5,98.9z"/>
	<path class="st5" d="M58.1,84.4c0.5,0.3,0.7,1,2.9,2.5c2.2,1.5,4,2.4,5.5,1c1.5-1.4,1.2-2.1,2.8-2.6c1.7-0.5,1.7-0.5,1.7-0.5
		s-1.8-1.3-4.5-3s-5.7,0.2-6.7,1.1S58.1,84.4,58.1,84.4z"/>
	<path class="st6" d="M56.9,83.6c0,0-0.3-1.8-2.3-3.2c-2.1-1.4-3.6-3.9-2.2-6.1c1.5-2.2,1.5-3.9,1.5-3.9s-0.3,0.3,1.6,1.3
		c1.9,1.1,3.6,4,3.2,6.2C58.3,80.3,56.9,83.6,56.9,83.6z"/>
	<path class="st7" d="M42.7,78.1c0,0,4.4-0.9,6.4-2.2c2-1.3,2.9-2.2,2.7-4.2s0.1-3.3,0.1-3.3s-3,1.2-4.3,1.1s-3.6,1-3.8,2.4
		C43.6,73.5,42.7,78.1,42.7,78.1z"/>
	<path class="st8" d="M55,68.6c0,0,1.1,1.8,2.9,3.2c1.7,1.5,2.8,2.2,4.1,1.7s2.5-1.1,3.8-1.9c1.3-0.7,1.6-1.2,2.1-1
		c0.5,0.2-0.8,0-2.5-1.9c-1.7-1.9-2.4-3.1-3.7-3s-2.1,1.4-3.5,1.9S55,68.6,55,68.6z"/>
	<path class="st2" d="M68.6,24.5c-1.9,0.3-5.1,1.5-7.4,2.4"/>
	<path class="st2" d="M65.5,20c-0.6,2.6-2.4,6.1-4.6,8"/>
	<path class="st2" d="M60.6,19.8c1.7,2.6,3.6,4.7,1.1,7"/>
	<path class="st2" d="M56.8,31.8c-1.9,3.3-4.5,6.5-7,8"/>
	<path class="st2" d="M59.9,37.5c-3.9,0.2-9.7,2.1-10.9,2.4"/>
	<path class="st2" d="M51.8,33.3c1,2.2,2.3,3.3-1.1,6.1"/>
	<path class="st3" d="M72.8,28c-1.4,0.4-1.6,1.2-4.6-0.9s-3-2.1-3-2.1s0.5-0.6,1.1-1.2c0.6-0.7,2.4-3.4,5-2.7
		c2.7,0.7,4.2,1.5,4.6,1.8c0.4,0.3,2.2,1.1,2.6,1.3"/>
	<path class="st9" d="M71.1,10.5c-0.5,1.9,1.5,4.3,0.3,6.7c-1.2,2.4-4.8,4.2-5.9,4.9c-1,0.7-0.4,1.5-0.8-0.6c-0.3-2.1-1-2.1-0.9-3.9
		c0.2-1.9,2.5-4.7,3.6-5C68.5,12.2,71.1,10.5,71.1,10.5z"/>
	<path class="st4" d="M62.6,22.7c-0.1-0.5,0.3-1.2-0.1-3.8s-0.9-4.6-2.9-4.8c-2-0.2-2.4,0.5-3.8-0.4c-1.5-0.9-1.5-0.9-1.5-0.9
		s0.2,2.2,0.8,5.3s3.9,4.1,5.3,4.3C61.7,22.6,62.6,22.7,62.6,22.7z"/>
	<path class="st6" d="M62.8,24.1c0,0-1.2,1.4-0.8,3.8s-0.5,5.3-3.1,5.7C56.3,34,55,35.1,55,35.1s0.4,0-0.1-2.1
		c-0.5-2.1,0.6-5.4,2.6-6.5S62.8,24.1,62.8,24.1z"/>
	<path class="st7" d="M68.2,38.4c0,0-3.6-2.7-5.9-3.4c-2.3-0.7-3.6-0.7-4.9,0.7c-1.3,1.5-2.5,2.1-2.5,2.1s2.9,1.4,3.7,2.5
		c0.8,1.1,3.1,2.1,4.3,1.2C64.1,40.8,68.2,38.4,68.2,38.4z"/>
	<path class="st8" d="M52.9,35.5c0,0,0.6-2,0.5-4.3c-0.1-2.3-0.2-3.5-1.5-4.2s-2.5-1.2-3.9-1.6C46.6,25,46,25,45.8,24.5
		s0.5,0.6,0.3,3.2c-0.3,2.6-0.8,3.9,0.2,4.8c1,0.9,2.4,0.7,3.8,1.3C51.4,34.4,52.9,35.5,52.9,35.5z"/>
	<path class="st2" d="M32.2,25.7c-0.2,1.9,0.2,5.3,0.4,7.7"/>
	<path class="st2" d="M27,27.5c2.3,1.3,5.2,3.9,6.5,6.5"/>
	<path class="st2" d="M25.6,32.3c3-1,5.5-2.3,7.1,0.7"/>
	<path class="st2" d="M36.2,38.9c2.7,2.6,5.1,6,5.9,8.8"/>
	<path class="st2" d="M42.5,37.5c-0.8,3.8-0.4,9.9-0.4,11.1"/>
	<path class="st2" d="M36.4,44.2c2.4-0.4,3.8-1.4,5.6,2.7"/>
	<path class="st3" d="M36.7,22.5c0.1,1.5,0.8,1.9-2,4.2s-2.8,2.3-2.8,2.3s-0.4-0.6-0.9-1.3c-0.5-0.7-2.7-3.2-1.3-5.6s2.5-3.7,2.9-4
		c0.4-0.4,1.6-1.8,1.9-2.2"/>
	<path class="st9" d="M19.3,19.7c1.7,1,4.5-0.4,6.5,1.4s2.8,5.7,3.2,6.9c0.4,1.2,1.3,0.8-0.7,0.6c-2.1-0.2-2.3,0.5-4-0.2
		c-1.7-0.6-3.9-3.6-4-4.7C20.3,22.6,19.3,19.7,19.3,19.7z"/>
	<path class="st4" d="M28.9,31.1c-0.5-0.1-1.1-0.6-3.7-0.9c-2.6-0.3-4.7-0.3-5.4,1.6s-0.1,2.4-1.4,3.6c-1.3,1.2-1.3,1.2-1.3,1.2
		s2.2,0.3,5.4,0.6s5-2.7,5.5-4C28.6,31.9,28.9,31.1,28.9,31.1z"/>
	<path class="st6" d="M30.3,31.2c0,0,1,1.5,3.5,1.8s5,1.8,4.7,4.4c-0.3,2.6,0.4,4.1,0.4,4.1s0.1-0.4-2.1-0.5c-2.2-0.1-5-1.9-5.6-4.1
		C30.6,34.8,30.3,31.2,30.3,31.2z"/>
	<path class="st7" d="M45.5,29.7c0,0-3.5,2.8-4.8,4.8c-1.2,2-1.6,3.3-0.6,5c1.1,1.7,1.4,3,1.4,3s2.1-2.4,3.3-2.9
		c1.2-0.5,2.8-2.5,2.3-3.9S45.5,29.7,45.5,29.7z"/>
	<path class="st8" d="M38.8,43.7c0,0-1.8-1.1-4-1.6c-2.2-0.5-3.4-0.7-4.5,0.4c-1,1-1.8,2.1-2.5,3.4c-0.8,1.2-0.9,1.8-1.5,1.8
		c-0.5,0.1,0.7-0.4,3.1,0.5s3.5,1.7,4.7,1c1.1-0.7,1.3-2.2,2.3-3.3C37.3,44.9,38.8,43.7,38.8,43.7z"/>
	<path class="st2" d="M51.5,20.9c-1.3,1.3-3.3,4.2-4.7,6.2"/>
	<path class="st2" d="M46.3,18.9c1,2.5,1.5,6.3,0.8,9.2"/>
	<path class="st2" d="M42.2,21.6c2.9,1.1,5.7,1.8,4.9,5.1"/>
	<path class="st2" d="M46,33.6c0.3,3.8,0,7.9-1.2,10.6"/>
	<path class="st2" d="M51.8,36.6c-3.1,2.4-6.7,7.3-7.5,8.2"/>
	<path class="st2" d="M42.8,37.7c2.1,1.2,3.8,1.4,2.6,5.7"/>
	<path class="st3" d="M56.9,21.4c-0.9,1.2-0.6,2-4.3,1.9s-3.6,0-3.6,0s0.1-0.8,0.2-1.6c0.1-0.9,0-4.2,2.6-5.1
		c2.6-0.9,4.3-1.2,4.8-1.2c0.5,0,2.4-0.4,2.9-0.4"/>
	<path class="st9" d="M45.5,8c0.7,1.8,3.7,2.6,4,5.3c0.4,2.7-1.6,6.2-2,7.3c-0.4,1.1,0.5,1.5-0.9,0s-2-1.1-3-2.7
		c-0.9-1.6-0.7-5.3,0-6.2C44.4,10.9,45.5,8,45.5,8z"/>
	<path class="st4" d="M45.5,22.9c-0.4-0.4-0.5-1.1-2.2-3.1c-1.8-1.9-3.4-3.3-5.2-2.2c-1.8,1-1.6,1.8-3.4,1.9
		C33,19.5,33,19.5,33,19.5s1.5,1.7,3.7,3.9c2.2,2.2,5.5,1.1,6.8,0.5C44.7,23.3,45.5,22.9,45.5,22.9z"/>
	<path class="st6" d="M46.5,23.9c0,0-0.2,1.8,1.5,3.6s2.6,4.6,0.7,6.4s-2.4,3.4-2.4,3.4s0.3-0.2-1.3-1.7c-1.6-1.5-2.6-4.7-1.6-6.8
		C44.4,26.8,46.5,23.9,46.5,23.9z"/>
	<path class="st7" d="M59.1,32.5c0,0-4.5-0.2-6.8,0.6c-2.2,0.8-3.4,1.4-3.6,3.4s-0.8,3.2-0.8,3.2s3.2-0.5,4.4-0.1
		c1.3,0.4,3.8-0.1,4.3-1.5S59.1,32.5,59.1,32.5z"/>
	<path class="st8" d="M44.9,38.9c0,0-0.7-2-2-3.8c-1.4-1.8-2.2-2.7-3.6-2.6s-2.7,0.5-4.1,0.9c-1.4,0.4-1.8,0.7-2.3,0.4
		c-0.4-0.3,0.8,0.2,2,2.4c1.3,2.3,1.6,3.6,2.9,3.8c1.3,0.2,2.4-0.9,3.9-1.1C43,38.8,44.9,38.9,44.9,38.9z"/>
	<path class="st2" d="M82.8,38c-1.8-0.5-5.3-0.6-7.7-0.8"/>
	<path class="st2" d="M81.8,32.5c-1.6,2.1-4.6,4.6-7.4,5.5"/>
	<path class="st2" d="M77.3,30.4c0.6,3.1,1.4,5.8-1.8,6.9"/>
	<path class="st2" d="M69.1,39.9c-3,2.3-6.7,4.2-9.6,4.5"/>
	<path class="st2" d="M69.6,46.4c-3.7-1.4-9.7-2-10.9-2.1"/>
	<path class="st2" d="M63.9,39.3c0.1,2.4,0.8,4-3.5,5.1"/>
	<path class="st3" d="M85.3,42.9c-1.5-0.2-2,0.5-3.9-2.6s-1.9-3.1-1.9-3.1s0.7-0.3,1.5-0.7s3.5-2.2,5.7-0.4c2.2,1.8,3.2,3,3.5,3.5
		s1.6,1.8,1.9,2.2"/>
	<path class="st9" d="M90.7,26.1c-1.2,1.5-0.3,4.5-2.4,6.2c-2.1,1.7-6.1,1.9-7.3,2.1c-1.2,0.2-1,1.2-0.5-0.8s-0.1-2.3,0.8-3.9
		c0.9-1.6,4.2-3.3,5.3-3.2C87.7,26.7,90.7,26.1,90.7,26.1z"/>
	<path class="st4" d="M78,33.9c0.1-0.5,0.7-1,1.5-3.5c0.7-2.5,1-4.6-0.8-5.6c-1.8-1-2.4-0.5-3.3-1.9c-1-1.4-1-1.4-1-1.4
		s-0.7,2.2-1.4,5.2c-0.8,3.1,1.9,5.3,3.1,6.1C77.2,33.5,78,33.9,78,33.9z"/>
	<path class="st6" d="M77.6,35.3c0,0-1.6,0.8-2.3,3.2c-0.7,2.4-2.6,4.7-5.1,4c-2.5-0.7-4.1-0.3-4.1-0.3s0.3,0.2,0.8-2
		c0.4-2.1,2.7-4.7,5-4.9C74.1,35,77.6,35.3,77.6,35.3z"/>
	<path class="st7" d="M76.9,50.5c0,0-2.2-3.9-4-5.5c-1.8-1.5-3-2.1-4.8-1.3c-1.8,0.8-3.1,0.9-3.1,0.9s2.1,2.4,2.4,3.8
		c0.3,1.3,2,3.1,3.5,2.9C72.1,51,76.9,50.5,76.9,50.5z"/>
	<path class="st8" d="M64,41.7c0,0,1.3-1.6,2.2-3.7c0.9-2.1,1.2-3.3,0.3-4.5c-0.9-1.2-1.8-2.1-2.9-3S62,29.3,62,28.8s0.3,0.8-1,3
		s-2.3,3.2-1.7,4.4c0.5,1.2,2,1.6,2.9,2.7C63.1,40.1,64,41.7,64,41.7z"/>
	<path class="st2" d="M84,57.3c-1.2-1.4-4-3.5-5.9-5"/>
	<path class="st2" d="M86.3,52.2c-2.5,0.8-6.4,1.2-9.2,0.3"/>
	<path class="st2" d="M83.8,48c-1.3,2.9-2.1,5.6-5.4,4.6"/>
	<path class="st2" d="M71.7,51.1c-3.8,0.2-7.9-0.4-10.5-1.7"/>
	<path class="st2" d="M68.4,56.8c-2.2-3.2-6.9-7.1-7.8-7.9"/>
	<path class="st2" d="M67.7,47.7c-1.3,2-1.6,3.7-5.8,2.3"/>
	<path class="st3" d="M83.3,62.7c-1.1-1-1.9-0.7-1.7-4.4c0.2-3.6,0.2-3.6,0.2-3.6s0.7,0.1,1.6,0.2c0.9,0.1,4.2,0.2,4.9,2.9
		c0.8,2.7,0.9,4.3,0.9,4.9s0.2,2.4,0.3,2.9"/>
	<path class="st9" d="M97.3,52c-1.9,0.6-2.8,3.5-5.5,3.8c-2.7,0.2-6.1-1.9-7.2-2.4s-1.5,0.4,0.1-0.9c1.6-1.4,1.2-2,2.9-2.8
		c1.7-0.8,5.3-0.4,6.2,0.4C94.5,50.7,97.3,52,97.3,52z"/>
	<path class="st4" d="M82.4,51.2c0.4-0.4,1.2-0.4,3.2-2.1s3.4-3.2,2.5-5c-0.9-1.8-1.7-1.7-1.7-3.4c0-1.7,0-1.7,0-1.7
		s-1.8,1.4-4.1,3.5c-2.4,2.1-1.4,5.5-0.9,6.7S82.4,51.2,82.4,51.2z"/>
	<path class="st6" d="M81.3,52.1c0,0-1.8-0.2-3.7,1.3s-4.8,2.4-6.5,0.4c-1.7-2-3.3-2.6-3.3-2.6s0.2,0.3,1.7-1.2s4.8-2.4,6.9-1.3
		S81.3,52.1,81.3,52.1z"/>
	<path class="st7" d="M72.1,64.3c0,0,0.4-4.5-0.3-6.8c-0.6-2.3-1.3-3.4-3.2-3.8c-2-0.4-3.1-1-3.1-1s0.3,3.2-0.2,4.4
		c-0.5,1.2-0.1,3.8,1.2,4.3C67.9,62,72.1,64.3,72.1,64.3z"/>
	<path class="st8" d="M66.4,49.7c0,0,2-0.6,3.9-1.8c1.9-1.3,2.8-2.1,2.8-3.5c0-1.4-0.4-2.7-0.7-4.2c-0.4-1.4-0.6-1.9-0.3-2.3
		s-0.2,0.8-2.5,1.9s-3.7,1.4-3.9,2.7c-0.3,1.3,0.7,2.4,0.9,3.9C66.6,47.9,66.4,49.7,66.4,49.7z"/>
	<path class="st10" d="M52.8,61.2c0-1.9-0.8-5.2-1.3-7.6"/>
	<path class="st10" d="M57.8,58.7c-2.5-1-5.7-3.2-7.2-5.7"/>
	<path class="st10" d="M58.7,53.9c-2.8,1.4-5.2,2.9-7.1,0.1"/>
	<path class="st10" d="M47.3,48.5c-3-2.3-5.8-5.4-6.9-8.1"/>
	<path class="st10" d="M41.2,50.7c0.3-3.9-0.7-9.9-0.9-11.1"/>
	<path class="st10" d="M46.5,43.3c-2.3,0.7-3.6,1.8-5.9-2"/>
	<path class="st10" d="M48.8,64.8c-0.2-1.5-1-1.8,1.5-4.5c2.5-2.7,2.5-2.7,2.5-2.7s0.5,0.6,1.1,1.2c0.6,0.7,3,2.8,1.9,5.4
		c-1.1,2.5-2.1,3.9-2.4,4.3C53,69,52,70.6,51.7,71"/>
	<path class="st10" d="M66.4,65.6c-1.8-0.8-4.4,0.9-6.6-0.7s-3.5-5.4-4-6.5c-0.5-1.1-1.4-0.6,0.7-0.7s2.2-0.7,4-0.3s4.3,3.1,4.5,4.3
		C65,62.8,66.4,65.6,66.4,65.6z"/>
	<path class="st10" d="M55.5,55.4c0.5,0,1.2,0.4,3.8,0.5s4.7-0.2,5.1-2.2c0.5-2-0.2-2.4,0.9-3.7c1.1-1.3,1.1-1.3,1.1-1.3
		s-2.3-0.1-5.4,0s-4.6,3.3-5,4.6S55.5,55.4,55.5,55.4z"/>
	<path class="st10" d="M54.1,55.5c0,0-1.2-1.3-3.7-1.4c-2.5,0-5.2-1.2-5.2-3.9c0-2.6-0.8-4.1-0.8-4.1s-0.1,0.4,2.1,0.2
		c2.2-0.2,5.2,1.3,6.1,3.5C53.4,52,54.1,55.5,54.1,55.5z"/>
	<path class="st10" d="M39.2,58.8c0,0,3.2-3.2,4.2-5.4c1-2.2,1.2-3.5,0-5s-1.7-2.8-1.7-2.8s-1.8,2.7-3,3.3c-1.2,0.6-2.5,2.8-1.8,4.1
		S39.2,58.8,39.2,58.8z"/>
	<path class="st10" d="M44.2,44c0,0,1.9,0.8,4.2,1.1s3.5,0.3,4.4-0.9c0.9-1.1,1.5-2.3,2.1-3.6s0.7-1.9,1.2-2s-0.7,0.5-3.2-0.2
		c-2.5-0.6-3.7-1.3-4.7-0.5c-1,0.8-1,2.3-1.9,3.5C45.5,42.7,44.2,44,44.2,44z"/>
	<path class="st11" d="M60.9,80.9c1-4.7,3.2-11.8,3.4-14c2.2,3.5,4.4,10.7,6.5,13.4"/>
	<path class="st12" d="M66.3,83.6c0-1.1-0.2-2.1-0.8-3c-0.2-0.3-0.4-0.5-0.7-0.7c-0.2-0.1-0.4-0.3-0.7-0.3c-0.1,0-0.3-0.1-0.4-0.1
		c0.3,0.2,0.5,0.4,0.7,0.7c0.6,0.9,0.9,1.9,0.8,3c0,0.1,0,0.1,0,0.2c0,1.4-0.5,2.6-1.3,3.6c-1,1.2-2.5,1.9-4.1,1.9
		c-0.4,0-0.8,0-1.2-0.1c0.7,0.3,1.5,0.5,2.3,0.5c1.7,0,3.1-0.8,4.1-1.9c0.8-1,1.3-2.2,1.3-3.6C66.3,83.7,66.3,83.7,66.3,83.6z"/>
	<path class="st13" d="M63.9,87c0.8-1,1.3-2.2,1.3-3.6c0-0.1,0-0.1,0-0.2c0-1.1-0.2-2.1-0.8-3c-0.2-0.3-0.4-0.5-0.7-0.7
		c-0.8-0.1-1.5,0-2.2,0.2c-0.3,0.1-0.7,0.1-1,0c-0.6-0.1-1.2-0.3-1.8-0.3c-0.6,0-1.1,0.2-1.5,0.4c-0.3,0.2-0.6,0.5-0.9,0.9
		c-0.5,0.8-0.7,1.7-0.7,2.6c0,0.1,0,0.1,0,0.2c0,0,0,0,0,0.1c0,0,0,0.1,0,0.1c0,1.4,0.5,2.6,1.3,3.5c0.5,0.6,1.1,1.1,1.8,1.4
		c0.4,0.1,0.8,0.1,1.2,0.1C61.4,88.9,62.9,88.1,63.9,87z"/>
	<path class="st14" d="M57.1,80.7c1-0.7,2.1,0.2,3.7,0.2c1.4,0,1.7-0.5,2.7-0.4c1.9,0.1,1.5,2-0.7,2c-1.9,0-4.6-0.3-5.1-0.5
		C57.2,81.7,56,81.4,57.1,80.7z"/>
	<path class="st15" d="M59.8,88.4c-0.6-0.3-1.2-0.8-1.7-1.3c-0.7-0.9-1.2-2-1.2-3.3c0,0,0-0.1,0-0.1c0,0,0,0,0-0.1c0,0,0-0.1,0-0.2
		c0-0.9,0.2-1.7,0.6-2.4c0.2-0.4,0.5-0.7,0.8-0.9c0.2-0.1,0.3-0.2,0.5-0.2c0,0,0,0-0.1,0c-0.5,0-1,0.1-1.4,0.4
		c-0.3,0.2-0.6,0.5-0.8,0.9C56.2,82,56,82.8,56,83.6c0,0.1,0,0.1,0,0.2c0,0,0,0,0,0.1c0,0,0,0.1,0,0.1c0,1.3,0.4,2.4,1.2,3.3
		c0.5,0.6,1,1,1.7,1.3c0.4,0.1,0.7,0.1,1.1,0.1c0.4,0,0.9-0.1,1.3-0.2c-0.1,0-0.2,0-0.3,0C60.6,88.5,60.2,88.4,59.8,88.4z"/>
	<path class="st12" d="M76.1,78c-0.6-0.8-1.5-1.4-2.5-1.7c-0.3-0.1-0.7-0.1-1-0.1c-0.2,0-0.5,0.1-0.7,0.2c-0.1,0.1-0.3,0.1-0.4,0.2
		c0.3,0,0.6,0,1,0.1c1.1,0.3,1.9,0.9,2.5,1.7c0,0,0.1,0.1,0.1,0.1c0.9,1,1.3,2.3,1.3,3.6c0,1.5-0.6,3.1-1.9,4.1
		c-0.3,0.3-0.7,0.5-1,0.7c0.8-0.2,1.5-0.6,2.1-1.1c1.3-1.1,1.9-2.6,1.9-4.1c0-1.3-0.4-2.5-1.3-3.6C76.1,78.1,76.1,78.1,76.1,78z"/>
	<path class="st13" d="M76.4,82.2c0-1.3-0.4-2.5-1.3-3.6c0,0-0.1-0.1-0.1-0.1c-0.6-0.8-1.5-1.4-2.5-1.7c-0.3-0.1-0.7-0.1-1-0.1
		c-0.6,0.4-1.1,1-1.6,1.6c-0.2,0.3-0.5,0.5-0.8,0.7c-0.5,0.3-1.1,0.6-1.6,1c-0.4,0.4-0.7,0.8-0.9,1.3c-0.1,0.4-0.1,0.8-0.1,1.3
		c0.2,0.9,0.5,1.7,1.1,2.4c0,0,0.1,0.1,0.1,0.1c0,0,0,0,0,0c0,0,0,0.1,0.1,0.1c0.9,1,2,1.7,3.3,1.9c0.8,0.1,1.5,0.1,2.3-0.1
		c0.4-0.2,0.7-0.4,1-0.7C75.7,85.2,76.4,83.7,76.4,82.2z"/>
	<path class="st14" d="M67.1,81.7c0.3-1.1,1.8-1.2,2.9-2.3c1-0.9,0.9-1.5,1.8-2.1c1.5-1.1,2.4,0.6,0.7,2c-1.5,1.2-3.7,2.7-4.3,2.9
		C67.9,82.5,66.8,82.9,67.1,81.7z"/>
	<path class="st15" d="M74.2,85.8C73.5,86,72.7,86,72,85.9c-1.1-0.2-2.2-0.8-3-1.7c0,0,0-0.1-0.1-0.1c0,0,0,0,0,0
		c0,0-0.1-0.1-0.1-0.1c-0.6-0.6-0.9-1.4-1.1-2.2c-0.1-0.4,0-0.8,0.1-1.2c0.1-0.2,0.1-0.3,0.2-0.5c0,0,0,0,0,0
		c-0.4,0.4-0.7,0.8-0.8,1.2c-0.1,0.4-0.1,0.8-0.1,1.2c0.1,0.8,0.5,1.6,1.1,2.2c0,0,0.1,0.1,0.1,0.1c0,0,0,0,0,0c0,0,0,0.1,0.1,0.1
		c0.8,1,1.9,1.5,3,1.7c0.7,0.1,1.4,0.1,2.1-0.1c0.3-0.2,0.6-0.4,0.9-0.6c0.3-0.3,0.6-0.6,0.9-1c-0.1,0.1-0.2,0.2-0.2,0.2
		C74.8,85.5,74.5,85.7,74.2,85.8z"/>
	<path class="st11" d="M80.2,63.7c-3.9-2.9-9.3-7.9-11.2-9c4.1-0.5,11.5,0.6,14.9-0.2"/>
	<path class="st12" d="M84.9,60c-0.9-0.5-1.9-0.7-3-0.5c-0.3,0.1-0.7,0.2-0.9,0.3c-0.2,0.1-0.4,0.3-0.6,0.5
		c-0.1,0.1-0.2,0.2-0.2,0.4c0.3-0.2,0.6-0.3,0.9-0.3c1.1-0.2,2.1,0,3,0.5c0.1,0,0.1,0,0.2,0.1c1.2,0.6,2.2,1.6,2.7,2.7
		c0.6,1.4,0.7,3.1,0,4.6c-0.2,0.4-0.4,0.7-0.6,1c0.6-0.5,1.1-1.1,1.5-1.9c0.7-1.5,0.7-3.1,0-4.6c-0.5-1.1-1.4-2.1-2.7-2.7
		C85,60,85,60,84.9,60z"/>
	<path class="st13" d="M86.9,63.6c-0.5-1.1-1.4-2.1-2.7-2.7c-0.1,0-0.1,0-0.2-0.1c-0.9-0.5-1.9-0.7-3-0.5c-0.3,0.1-0.6,0.2-0.9,0.3
		c-0.4,0.6-0.6,1.4-0.8,2.1c-0.1,0.3-0.2,0.7-0.4,0.9c-0.4,0.5-0.7,1-1,1.5c-0.2,0.5-0.3,1-0.3,1.5c0.1,0.4,0.2,0.8,0.5,1.2
		c0.5,0.8,1.2,1.3,2.1,1.7c0,0,0.1,0,0.1,0.1c0,0,0,0,0.1,0c0,0,0.1,0,0.1,0.1c1.2,0.6,2.5,0.7,3.8,0.4c0.7-0.2,1.5-0.5,2.1-1
		c0.2-0.3,0.5-0.7,0.6-1C87.6,66.7,87.6,65,86.9,63.6z"/>
	<path class="st14" d="M78.3,67.1c-0.2-1.2,1.1-1.9,1.7-3.3c0.6-1.2,0.2-1.7,0.7-2.6c0.9-1.6,2.5-0.5,1.5,1.5
		c-0.8,1.7-2.2,4-2.6,4.4C79.4,67.5,78.5,68.3,78.3,67.1z"/>
	<path class="st15" d="M86.5,67.9c-0.6,0.5-1.2,0.8-1.9,1c-1.1,0.3-2.3,0.2-3.5-0.3c0,0-0.1,0-0.1,0c0,0,0,0-0.1,0
		c0,0-0.1,0-0.1-0.1c-0.8-0.3-1.4-0.9-1.9-1.6c-0.2-0.4-0.4-0.7-0.4-1.1c0-0.2,0-0.4,0-0.6c0,0,0,0,0,0.1c-0.2,0.5-0.3,1-0.2,1.4
		c0.1,0.4,0.2,0.8,0.4,1.1c0.5,0.7,1.1,1.2,1.9,1.6c0,0,0.1,0,0.1,0.1c0,0,0,0,0.1,0c0,0,0.1,0,0.1,0c1.1,0.5,2.4,0.6,3.5,0.3
		c0.7-0.2,1.3-0.5,1.9-1c0.2-0.3,0.4-0.6,0.6-1c0.2-0.4,0.3-0.8,0.4-1.2c0,0.1-0.1,0.2-0.1,0.3C86.9,67.3,86.7,67.6,86.5,67.9z"/>
	<path class="st12" d="M84,48.8c-1,0.2-1.9,0.7-2.6,1.6c-0.2,0.3-0.4,0.6-0.5,0.9c-0.1,0.2-0.1,0.5-0.1,0.7c0,0.2,0,0.3,0,0.4
		c0.1-0.3,0.3-0.6,0.5-0.8c0.7-0.8,1.6-1.3,2.6-1.6c0.1,0,0.1,0,0.2-0.1c1.3-0.4,2.6-0.2,3.8,0.3c1.4,0.7,2.5,1.9,2.9,3.5
		c0.1,0.4,0.2,0.8,0.2,1.2c0.1-0.8,0.1-1.6-0.1-2.4c-0.4-1.6-1.5-2.8-2.9-3.5c-1.1-0.5-2.5-0.7-3.8-0.3C84.1,48.8,84.1,48.8,84,48.8
		z"/>
	<path class="st13" d="M87.9,50.3c-1.1-0.5-2.5-0.7-3.8-0.3c-0.1,0-0.1,0-0.2,0.1c-1,0.2-1.9,0.7-2.6,1.6c-0.2,0.3-0.4,0.5-0.5,0.8
		c0.1,0.8,0.4,1.4,0.8,2.1c0.2,0.3,0.3,0.7,0.3,1c0,0.6,0.1,1.2,0.2,1.8c0.2,0.6,0.4,1,0.8,1.3c0.3,0.3,0.7,0.5,1.1,0.6
		c0.9,0.3,1.8,0.2,2.7,0c0.1,0,0.1,0,0.2,0c0,0,0,0,0.1,0c0,0,0.1,0,0.1,0c1.3-0.3,2.4-1.1,3.1-2.1c0.4-0.6,0.8-1.4,0.9-2.1
		c0-0.4-0.1-0.8-0.2-1.2C90.4,52.2,89.3,51,87.9,50.3z"/>
	<path class="st14" d="M83.6,58.5c-0.9-0.8-0.4-2.1-0.8-3.6c-0.4-1.3-0.9-1.5-1.1-2.5c-0.4-1.9,1.6-1.9,2.2,0.2
		c0.5,1.9,0.9,4.5,0.8,5.1C84.6,58.1,84.5,59.3,83.6,58.5z"/>
	<path class="st15" d="M90.3,53.8c-0.1,0.7-0.4,1.4-0.8,2c-0.7,0.9-1.7,1.7-2.9,2c0,0-0.1,0-0.1,0c0,0,0,0-0.1,0c0,0-0.1,0-0.1,0
		c-0.8,0.2-1.6,0.2-2.5,0c-0.4-0.1-0.8-0.3-1.1-0.6c-0.1-0.1-0.3-0.3-0.4-0.4c0,0,0,0,0,0.1c0.1,0.5,0.4,0.9,0.7,1.2
		c0.3,0.3,0.6,0.4,1.1,0.6c0.8,0.2,1.7,0.2,2.5,0c0,0,0.1,0,0.1,0c0,0,0,0,0.1,0c0,0,0.1,0,0.1,0c1.2-0.3,2.2-1,2.9-2
		c0.4-0.6,0.7-1.3,0.8-2c0-0.4-0.1-0.7-0.2-1.1c-0.1-0.4-0.3-0.8-0.5-1.2c0,0.1,0.1,0.2,0.1,0.3C90.2,53.1,90.3,53.5,90.3,53.8z"/>
	<path class="st11" d="M58.9,22.8c-3,3.7-8.2,9-9.4,10.9c-0.3-4.2,1-11.5,0.4-14.9"/>
	<path class="st12" d="M55.4,17.9c-0.5,0.9-0.8,1.9-0.6,3c0,0.3,0.1,0.7,0.3,1c0.1,0.2,0.3,0.4,0.5,0.6c0.1,0.1,0.2,0.2,0.4,0.3
		c-0.2-0.3-0.2-0.6-0.3-0.9c-0.1-1.1,0.1-2.1,0.6-3c0-0.1,0-0.1,0.1-0.2c0.6-1.2,1.6-2.1,2.8-2.6c1.4-0.6,3.1-0.6,4.5,0.2
		c0.4,0.2,0.7,0.4,1,0.7c-0.5-0.6-1.1-1.2-1.8-1.5c-1.5-0.8-3.1-0.8-4.5-0.2c-1.2,0.5-2.2,1.4-2.8,2.6
		C55.4,17.8,55.4,17.9,55.4,17.9z"/>
	<path class="st13" d="M59,16c-1.2,0.5-2.2,1.4-2.8,2.6c0,0.1,0,0.1-0.1,0.2c-0.5,0.9-0.8,1.9-0.6,3c0,0.3,0.1,0.6,0.3,0.9
		c0.6,0.4,1.3,0.7,2.1,0.9c0.3,0.1,0.7,0.3,0.9,0.5c0.5,0.4,1,0.8,1.5,1.1c0.5,0.3,1,0.4,1.5,0.3c0.4,0,0.8-0.2,1.2-0.4
		c0.8-0.5,1.4-1.2,1.8-2c0,0,0.1-0.1,0.1-0.1c0,0,0,0,0-0.1c0,0,0-0.1,0.1-0.1c0.6-1.2,0.8-2.5,0.5-3.7c-0.2-0.8-0.5-1.5-1-2.1
		c-0.3-0.3-0.6-0.5-1-0.7C62.1,15.5,60.5,15.4,59,16z"/>
	<path class="st14" d="M62.2,24.8c-1.2,0.2-1.8-1.1-3.2-1.9c-1.2-0.6-1.7-0.3-2.6-0.8c-1.6-1-0.4-2.5,1.6-1.5
		c1.7,0.9,3.9,2.4,4.3,2.8C62.6,23.7,63.5,24.6,62.2,24.8z"/>
	<path class="st15" d="M63.3,16.6c0.4,0.6,0.7,1.2,0.9,1.9c0.2,1.1,0.1,2.3-0.5,3.5c0,0,0,0.1,0,0.1c0,0,0,0,0,0.1
		c0,0,0,0.1-0.1,0.1c-0.4,0.8-0.9,1.4-1.7,1.8c-0.4,0.2-0.8,0.4-1.1,0.4c-0.2,0-0.4,0-0.6,0c0,0,0,0,0.1,0c0.5,0.2,1,0.3,1.4,0.3
		c0.4,0,0.8-0.2,1.1-0.4c0.7-0.5,1.3-1.1,1.7-1.8c0,0,0-0.1,0.1-0.1c0,0,0,0,0-0.1c0,0,0-0.1,0-0.1c0.6-1.1,0.7-2.3,0.5-3.5
		c-0.2-0.7-0.5-1.4-0.9-1.9c-0.3-0.2-0.6-0.4-0.9-0.6c-0.4-0.2-0.8-0.3-1.2-0.4c0.1,0,0.2,0.1,0.3,0.1C62.7,16.2,63,16.4,63.3,16.6z
		"/>
	<path class="st12" d="M44.1,18.4c0.2,1,0.7,2,1.5,2.7c0.3,0.2,0.5,0.4,0.8,0.5c0.2,0.1,0.5,0.2,0.7,0.2c0.2,0,0.3,0,0.4,0
		c-0.3-0.1-0.6-0.3-0.8-0.5c-0.8-0.7-1.3-1.7-1.5-2.7c0-0.1,0-0.1,0-0.2c-0.3-1.3-0.1-2.7,0.5-3.8c0.7-1.4,2-2.4,3.6-2.8
		c0.4-0.1,0.8-0.1,1.2-0.1c-0.8-0.2-1.6-0.2-2.4,0c-1.6,0.4-2.9,1.4-3.6,2.8c-0.6,1.1-0.8,2.4-0.5,3.8
		C44.1,18.3,44.1,18.3,44.1,18.4z"/>
	<path class="st13" d="M45.8,14.6c-0.6,1.1-0.8,2.4-0.5,3.8c0,0.1,0,0.1,0,0.2c0.2,1,0.7,2,1.5,2.7c0.3,0.2,0.5,0.4,0.8,0.5
		c0.8-0.1,1.5-0.3,2.1-0.7c0.3-0.2,0.7-0.2,1-0.2c0.6,0,1.2,0,1.8-0.2c0.6-0.1,1-0.4,1.4-0.8c0.3-0.3,0.5-0.7,0.7-1.1
		c0.3-0.9,0.3-1.8,0.1-2.7c0-0.1,0-0.1,0-0.2c0,0,0,0,0-0.1c0,0,0-0.1,0-0.1c-0.3-1.3-1-2.4-2-3.2c-0.6-0.5-1.3-0.8-2.1-1
		c-0.4,0-0.8,0-1.2,0.1C47.7,12.2,46.5,13.2,45.8,14.6z"/>
	<path class="st14" d="M53.8,19.2c-0.8,0.9-2.1,0.3-3.7,0.7c-1.3,0.3-1.5,0.9-2.5,1c-1.9,0.3-1.9-1.7,0.3-2.1
		c1.9-0.4,4.5-0.7,5.1-0.6C53.5,18.2,54.6,18.3,53.8,19.2z"/>
	<path class="st15" d="M49.4,12.3c0.7,0.2,1.4,0.5,1.9,0.9c0.9,0.7,1.6,1.7,1.9,2.9c0,0,0,0.1,0,0.1c0,0,0,0,0,0.1c0,0,0,0.1,0,0.1
		c0.2,0.8,0.2,1.7-0.1,2.5c-0.1,0.4-0.3,0.8-0.6,1c-0.1,0.1-0.3,0.2-0.4,0.3c0,0,0,0,0.1,0c0.5-0.1,0.9-0.4,1.3-0.7
		c0.3-0.3,0.5-0.6,0.6-1c0.3-0.8,0.3-1.6,0.1-2.5c0,0,0-0.1,0-0.1c0,0,0,0,0-0.1c0,0,0-0.1,0-0.1c-0.3-1.2-1-2.2-1.9-2.9
		c-0.6-0.4-1.2-0.7-1.9-0.9c-0.4,0-0.7,0-1.1,0.1c-0.4,0.1-0.8,0.3-1.2,0.5c0.1,0,0.2-0.1,0.3-0.1C48.7,12.4,49,12.3,49.4,12.3z"/>
	<path class="st11" d="M37.4,28.9c1.5,4.6,3.2,11.7,4.2,13.7c-3.7-1.9-9.2-7-12.4-8.3"/>
	<path class="st12" d="M31.3,29.3c0.5,0.9,1.2,1.7,2.2,2.1c0.3,0.1,0.6,0.2,1,0.3c0.2,0,0.5,0,0.7-0.1c0.1,0,0.3-0.1,0.4-0.2
		c-0.3,0-0.6-0.1-0.9-0.3c-1-0.5-1.7-1.2-2.2-2.1c0-0.1-0.1-0.1-0.1-0.2c-0.7-1.2-0.9-2.5-0.7-3.7c0.3-1.5,1.2-2.9,2.6-3.7
		c0.4-0.2,0.7-0.4,1.1-0.5c-0.8,0.1-1.6,0.3-2.3,0.7c-1.4,0.8-2.3,2.2-2.6,3.7c-0.2,1.2,0,2.6,0.7,3.7
		C31.3,29.2,31.3,29.2,31.3,29.3z"/>
	<path class="st13" d="M31.7,25.2c-0.2,1.2,0,2.6,0.7,3.7c0,0.1,0.1,0.1,0.1,0.2c0.5,0.9,1.2,1.7,2.2,2.1c0.3,0.1,0.6,0.2,0.9,0.3
		c0.7-0.3,1.3-0.8,1.8-1.3c0.2-0.2,0.6-0.4,0.9-0.5c0.6-0.2,1.2-0.4,1.7-0.7c0.5-0.3,0.9-0.7,1.1-1.1c0.2-0.4,0.3-0.8,0.3-1.3
		c0-0.9-0.2-1.8-0.7-2.6c0,0-0.1-0.1-0.1-0.1c0,0,0,0,0-0.1c0,0,0-0.1,0-0.1c-0.7-1.2-1.7-2-2.9-2.4c-0.7-0.3-1.5-0.4-2.3-0.3
		c-0.4,0.1-0.7,0.3-1.1,0.5C32.9,22.3,32,23.7,31.7,25.2z"/>
	<path class="st14" d="M40.8,27.2c-0.5,1.1-1.9,0.9-3.3,1.7c-1.2,0.7-1.2,1.3-2.1,1.7c-1.7,0.8-2.3-1-0.4-2.1c1.7-1,4.1-2,4.7-2.2
		C40.2,26.3,41.3,26,40.8,27.2z"/>
	<path class="st15" d="M34.5,21.9c0.7-0.1,1.4,0,2.1,0.3c1.1,0.4,2,1.2,2.7,2.2c0,0,0,0.1,0,0.1c0,0,0,0,0,0c0,0,0.1,0.1,0.1,0.1
		c0.5,0.7,0.7,1.5,0.7,2.4c0,0.4-0.1,0.8-0.3,1.2c-0.1,0.2-0.2,0.3-0.3,0.5c0,0,0,0,0.1,0c0.5-0.3,0.8-0.6,1-1
		c0.2-0.3,0.3-0.7,0.3-1.2c0-0.9-0.2-1.7-0.7-2.4c0,0,0-0.1-0.1-0.1c0,0,0,0,0,0c0,0,0-0.1,0-0.1c-0.6-1.1-1.6-1.8-2.7-2.2
		c-0.7-0.2-1.4-0.3-2.1-0.3c-0.4,0.1-0.7,0.3-1,0.5c-0.4,0.2-0.7,0.5-1,0.8c0.1-0.1,0.2-0.1,0.3-0.2C33.8,22.2,34.2,22,34.5,21.9z"
		/>
	<path class="st12" d="M25.8,39c1,0.4,2,0.5,3.1,0.2c0.3-0.1,0.6-0.2,0.9-0.4c0.2-0.1,0.4-0.3,0.5-0.5c0.1-0.1,0.1-0.3,0.2-0.4
		c-0.3,0.2-0.6,0.3-0.9,0.4c-1.1,0.3-2.1,0.2-3.1-0.2c-0.1,0-0.1,0-0.2-0.1c-1.3-0.5-2.3-1.3-2.9-2.4c-0.8-1.3-1-3-0.4-4.5
		c0.1-0.4,0.3-0.8,0.5-1.1c-0.6,0.6-1,1.2-1.3,2c-0.6,1.6-0.3,3.2,0.4,4.5c0.6,1.1,1.6,2,2.9,2.4C25.6,39,25.7,39,25.8,39z"/>
	<path class="st13" d="M23.4,35.6c0.6,1.1,1.6,2,2.9,2.4c0.1,0,0.1,0,0.2,0.1c1,0.4,2,0.5,3.1,0.2c0.3-0.1,0.6-0.2,0.9-0.4
		c0.3-0.7,0.5-1.4,0.6-2.2c0-0.3,0.2-0.7,0.3-1c0.3-0.5,0.6-1,0.8-1.6c0.2-0.5,0.2-1.1,0.1-1.6c-0.1-0.4-0.3-0.8-0.6-1.2
		c-0.6-0.7-1.3-1.2-2.2-1.5c-0.1,0-0.1,0-0.2-0.1c0,0,0,0-0.1,0c0,0-0.1,0-0.1,0c-1.3-0.5-2.6-0.4-3.8,0C24.7,29,24,29.5,23.5,30
		c-0.2,0.3-0.4,0.7-0.5,1.1C22.4,32.7,22.6,34.3,23.4,35.6z"/>
	<path class="st14" d="M31.6,31.3c0.3,1.1-0.9,2-1.4,3.4c-0.4,1.3-0.1,1.8-0.5,2.7c-0.8,1.7-2.4,0.7-1.7-1.4
		c0.7-1.8,1.8-4.2,2.2-4.7C30.6,31,31.3,30.1,31.6,31.3z"/>
	<path class="st15" d="M23.4,31.3c0.5-0.5,1.1-0.9,1.8-1.1c1.1-0.4,2.3-0.4,3.5,0c0,0,0.1,0,0.1,0c0,0,0,0,0.1,0c0,0,0.1,0,0.1,0
		c0.8,0.3,1.5,0.7,2,1.4c0.3,0.3,0.5,0.7,0.6,1.1c0,0.2,0.1,0.4,0.1,0.6c0,0,0,0,0-0.1c0.2-0.5,0.2-1,0.1-1.4
		c-0.1-0.4-0.3-0.7-0.6-1.1c-0.5-0.7-1.2-1.1-2-1.4c0,0-0.1,0-0.1,0c0,0,0,0-0.1,0c0,0-0.1,0-0.1,0c-1.2-0.4-2.4-0.4-3.5,0
		c-0.7,0.2-1.3,0.6-1.8,1.1c-0.2,0.3-0.4,0.6-0.5,1c-0.1,0.4-0.2,0.8-0.3,1.3c0-0.1,0.1-0.2,0.1-0.3C23.1,32,23.2,31.7,23.4,31.3z"
		/>
	<path class="st11" d="M76.7,39.2C72,39.8,64.6,40,62.4,40.5c2.6-3.2,8.7-7.7,10.6-10.5"/>
	<path class="st12" d="M77.5,33.2c-1,0.3-1.9,0.9-2.5,1.8c-0.2,0.3-0.4,0.6-0.4,0.9c-0.1,0.2-0.1,0.5-0.1,0.7c0,0.2,0,0.3,0.1,0.4
		c0.1-0.3,0.2-0.6,0.4-0.9c0.6-0.9,1.5-1.5,2.5-1.8c0.1,0,0.1,0,0.2-0.1c1.3-0.4,2.6-0.4,3.8,0.1c1.4,0.6,2.6,1.7,3.2,3.3
		c0.1,0.4,0.2,0.8,0.3,1.2c0.1-0.8,0-1.6-0.3-2.4c-0.5-1.6-1.7-2.7-3.2-3.3c-1.2-0.5-2.5-0.5-3.8-0.1C77.6,33.1,77.6,33.1,77.5,33.2
		z"/>
	<path class="st13" d="M81.5,34.4c-1.2-0.5-2.5-0.5-3.8-0.1c-0.1,0-0.1,0-0.2,0.1c-1,0.3-1.9,0.9-2.5,1.8c-0.2,0.3-0.3,0.6-0.4,0.9
		c0.2,0.7,0.5,1.4,0.9,2.1c0.2,0.3,0.3,0.6,0.3,1c0.1,0.6,0.1,1.2,0.4,1.8c0.2,0.5,0.5,1,0.9,1.3c0.3,0.3,0.7,0.4,1.2,0.5
		c0.9,0.2,1.8,0.1,2.7-0.2c0.1,0,0.1,0,0.2-0.1c0,0,0,0,0.1,0c0,0,0.1,0,0.1,0c1.3-0.4,2.3-1.3,2.9-2.4c0.4-0.7,0.7-1.4,0.8-2.2
		c0-0.4-0.1-0.8-0.3-1.2C84.1,36.1,82.9,34.9,81.5,34.4z"/>
	<path class="st14" d="M77.8,42.9c-1-0.7-0.5-2.1-1.1-3.6c-0.5-1.3-1-1.4-1.3-2.4c-0.5-1.8,1.5-2.1,2.2,0c0.6,1.8,1.2,4.4,1.2,5
		C78.8,42.4,78.8,43.6,77.8,42.9z"/>
	<path class="st15" d="M84.1,37.7c-0.1,0.7-0.3,1.4-0.7,2c-0.6,1-1.5,1.8-2.7,2.2c0,0-0.1,0-0.1,0c0,0,0,0-0.1,0c0,0-0.1,0-0.1,0
		c-0.8,0.3-1.6,0.4-2.5,0.2c-0.4-0.1-0.8-0.3-1.1-0.5c-0.1-0.1-0.3-0.2-0.4-0.4c0,0,0,0,0,0.1c0.2,0.5,0.5,0.9,0.8,1.2
		c0.3,0.2,0.7,0.4,1.1,0.5c0.8,0.2,1.7,0.1,2.5-0.2c0,0,0.1,0,0.1,0c0,0,0,0,0.1,0c0,0,0.1,0,0.1,0c1.2-0.4,2.1-1.2,2.7-2.2
		c0.4-0.6,0.6-1.3,0.7-2c0-0.4-0.1-0.7-0.2-1.1c-0.1-0.4-0.3-0.8-0.6-1.2c0,0.1,0.1,0.2,0.1,0.3C84,37,84.1,37.4,84.1,37.7z"/>
	<path class="st12" d="M69.1,25.8c-0.6,0.9-0.9,1.9-0.8,3c0,0.3,0.1,0.7,0.2,1c0.1,0.2,0.2,0.4,0.4,0.6c0.1,0.1,0.2,0.2,0.3,0.3
		c-0.1-0.3-0.2-0.6-0.2-1c-0.1-1.1,0.2-2.1,0.8-3c0-0.1,0.1-0.1,0.1-0.2c0.7-1.2,1.8-2,3-2.4c1.5-0.5,3.1-0.4,4.5,0.5
		c0.4,0.2,0.7,0.5,1,0.7c-0.4-0.7-1-1.2-1.7-1.7c-1.4-0.8-3.1-1-4.5-0.5c-1.2,0.4-2.3,1.2-3,2.4C69.1,25.7,69.1,25.7,69.1,25.8z"/>
	<path class="st13" d="M72.9,24.1c-1.2,0.4-2.3,1.2-3,2.4c0,0.1-0.1,0.1-0.1,0.2c-0.6,0.9-0.9,1.9-0.8,3c0,0.3,0.1,0.7,0.2,1
		c0.6,0.5,1.3,0.8,2,1c0.3,0.1,0.6,0.3,0.9,0.5c0.5,0.4,0.9,0.8,1.4,1.2c0.5,0.3,1,0.4,1.5,0.4c0.4,0,0.8-0.1,1.2-0.4
		c0.8-0.4,1.5-1.1,1.9-1.9c0,0,0.1-0.1,0.1-0.1c0,0,0,0,0-0.1c0,0,0-0.1,0.1-0.1c0.7-1.2,0.9-2.5,0.7-3.7c-0.1-0.8-0.4-1.5-0.8-2.2
		c-0.3-0.3-0.6-0.5-1-0.7C76,23.8,74.3,23.6,72.9,24.1z"/>
	<path class="st14" d="M75.5,33c-1.2,0.1-1.7-1.3-3.1-2c-1.2-0.7-1.7-0.4-2.5-1c-1.5-1.1-0.2-2.5,1.7-1.4c1.7,1,3.7,2.6,4.1,3.1
		C76,32.1,76.8,32.9,75.5,33z"/>
	<path class="st15" d="M77.1,25c0.4,0.6,0.7,1.3,0.8,2c0.2,1.1,0,2.4-0.7,3.4c0,0,0,0.1-0.1,0.1c0,0,0,0,0,0.1c0,0-0.1,0.1-0.1,0.1
		c-0.4,0.7-1,1.3-1.8,1.7c-0.4,0.2-0.8,0.3-1.2,0.3c-0.2,0-0.4,0-0.6-0.1c0,0,0,0,0,0c0.5,0.3,0.9,0.4,1.4,0.4
		c0.4,0,0.8-0.1,1.2-0.3c0.8-0.4,1.3-1,1.8-1.7c0,0,0.1-0.1,0.1-0.1c0,0,0,0,0-0.1c0,0,0-0.1,0.1-0.1c0.6-1.1,0.8-2.3,0.7-3.4
		c-0.1-0.7-0.4-1.4-0.8-2c-0.3-0.3-0.6-0.5-0.9-0.7c-0.4-0.2-0.8-0.4-1.2-0.5c0.1,0.1,0.2,0.1,0.3,0.2C76.5,24.5,76.8,24.8,77.1,25z
		"/>
	<path class="st12" d="M70.5,46.9c0-1.1-0.2-2.1-0.8-3c-0.2-0.3-0.4-0.5-0.7-0.7c-0.2-0.1-0.4-0.3-0.7-0.3c-0.1,0-0.3-0.1-0.4-0.1
		c0.3,0.2,0.5,0.4,0.7,0.7c0.6,0.9,0.9,1.9,0.8,3c0,0.1,0,0.1,0,0.2c0,1.4-0.5,2.6-1.3,3.6c-1,1.2-2.5,1.9-4.1,1.9
		c-0.4,0-0.8,0-1.2-0.1c0.7,0.3,1.5,0.5,2.3,0.5c1.7,0,3.1-0.8,4.1-1.9c0.8-1,1.3-2.2,1.3-3.6C70.5,47,70.5,47,70.5,46.9z"/>
	<path class="st13" d="M68.1,50.3c0.8-1,1.3-2.2,1.3-3.6c0-0.1,0-0.1,0-0.2c0-1.1-0.2-2.1-0.8-3c-0.2-0.3-0.4-0.5-0.7-0.7
		c-0.8-0.1-1.5,0-2.2,0.2c-0.3,0.1-0.7,0.1-1,0c-0.6-0.1-1.2-0.3-1.8-0.3c-0.6,0-1.1,0.2-1.5,0.4c-0.3,0.2-0.6,0.5-0.9,0.9
		c-0.5,0.8-0.7,1.7-0.7,2.6c0,0.1,0,0.1,0,0.2c0,0,0,0,0,0.1c0,0,0,0.1,0,0.1c0,1.4,0.5,2.6,1.3,3.5c0.5,0.6,1.1,1.1,1.8,1.4
		c0.4,0.1,0.8,0.1,1.2,0.1C65.6,52.2,67.1,51.5,68.1,50.3z"/>
	<path class="st14" d="M61.3,44c1-0.7,2.1,0.2,3.7,0.2c1.4,0,1.7-0.5,2.7-0.4c1.9,0.1,1.5,2-0.7,2c-1.9,0-4.6-0.3-5.1-0.5
		C61.4,45.1,60.3,44.7,61.3,44z"/>
	<path class="st15" d="M64.1,51.7c-0.6-0.3-1.2-0.8-1.7-1.3c-0.7-0.9-1.2-2-1.2-3.3c0,0,0-0.1,0-0.1c0,0,0,0,0-0.1c0,0,0-0.1,0-0.2
		c0-0.9,0.2-1.7,0.6-2.4c0.2-0.4,0.5-0.7,0.8-0.9c0.2-0.1,0.3-0.2,0.5-0.2c0,0,0,0-0.1,0c-0.5,0-1,0.1-1.4,0.4
		c-0.3,0.2-0.6,0.5-0.8,0.9c-0.4,0.7-0.6,1.5-0.6,2.4c0,0.1,0,0.1,0,0.2c0,0,0,0,0,0.1c0,0,0,0.1,0,0.1c0,1.3,0.4,2.4,1.2,3.3
		c0.5,0.6,1,1,1.7,1.3c0.4,0.1,0.7,0.1,1.1,0.1c0.4,0,0.9-0.1,1.3-0.2c-0.1,0-0.2,0-0.3,0C64.8,51.8,64.4,51.8,64.1,51.7z"/>
	<path class="st16" d="M42.8,37.1c1.4-1.4,0.9-4.4,3.2-5.8c2.3-1.4,6.3-1.1,7.5-1.1c1.2,0,1.1-1.1,0.4,0.9s-0.2,2.3-1.3,3.8
		c-1.1,1.5-4.6,2.7-5.7,2.4C45.9,37,42.8,37.1,42.8,37.1z"/>
	<path class="st16" d="M63.8,54.5c1.4-1.4,0.9-4.4,3.2-5.8c2.3-1.4,6.3-1.1,7.5-1.1c1.2,0,1.1-1.1,0.4,0.9s-0.2,2.3-1.3,3.8
		c-1.1,1.5-4.6,2.7-5.7,2.4C66.8,54.4,63.8,54.5,63.8,54.5z"/>
	<path class="st4" d="M42,38.7c-0.2,0.5-0.9,0.9-1.9,3.3c-1.1,2.4-1.6,4.4,0,5.6c1.7,1.2,2.3,0.8,3,2.3c0.8,1.6,0.8,1.6,0.8,1.6
		s1-2,2.1-5s-1.2-5.5-2.3-6.4C42.7,39.2,42,38.7,42,38.7z"/>
	<path class="st8" d="M64.7,32.7c0,0-1.5,1.4-2.7,3.4c-1.1,2-1.6,3.1-0.9,4.4c0.7,1.3,1.5,2.3,2.5,3.4c1,1.1,1.4,1.4,1.3,1.9
		c-0.1,0.5-0.2-0.8,1.4-2.8s2.7-2.9,2.3-4.2c-0.3-1.3-1.7-1.8-2.5-3.1C65.4,34.4,64.7,32.7,64.7,32.7z"/>
	<path class="st11" d="M33.9,74.9c3.9-2.9,10.2-6.7,11.8-8.2c-0.7,4.1-3.8,10.9-4.1,14.4"/>
	<path class="st12" d="M36.1,80.5c0.7-0.8,1.2-1.7,1.3-2.8c0-0.3,0-0.7-0.1-1c-0.1-0.2-0.1-0.5-0.3-0.7c-0.1-0.1-0.2-0.2-0.3-0.3
		c0.1,0.3,0.1,0.6,0.1,1c-0.1,1.1-0.6,2-1.3,2.8c0,0-0.1,0.1-0.1,0.1c-0.9,1-2.1,1.6-3.3,1.8c-1.5,0.2-3.1-0.2-4.4-1.3
		c-0.3-0.3-0.6-0.6-0.8-0.9c0.3,0.7,0.8,1.4,1.4,1.9c1.2,1.1,2.8,1.5,4.4,1.3c1.2-0.2,2.4-0.8,3.3-1.8C36,80.6,36.1,80.5,36.1,80.5z
		"/>
	<path class="st13" d="M32.1,81.4c1.2-0.2,2.4-0.8,3.3-1.8c0,0,0.1-0.1,0.1-0.1c0.7-0.8,1.2-1.7,1.3-2.8c0-0.3,0-0.7-0.1-1
		c-0.5-0.6-1.1-1-1.8-1.3c-0.3-0.2-0.6-0.4-0.8-0.7c-0.4-0.5-0.7-1-1.2-1.4c-0.4-0.4-0.9-0.6-1.4-0.7c-0.4-0.1-0.8,0-1.3,0.1
		c-0.9,0.3-1.6,0.8-2.2,1.5c0,0-0.1,0.1-0.1,0.1c0,0,0,0,0,0c0,0-0.1,0-0.1,0.1c-0.9,1-1.4,2.3-1.4,3.5c0,0.8,0.1,1.5,0.4,2.3
		c0.2,0.3,0.5,0.6,0.8,0.9C28.9,81.2,30.5,81.6,32.1,81.4z"/>
	<path class="st14" d="M31.2,72.2c1.2,0.1,1.5,1.6,2.7,2.6c1,0.9,1.6,0.7,2.3,1.5c1.3,1.4-0.3,2.5-1.9,1c-1.4-1.3-3.2-3.3-3.5-3.8
		C30.5,73,29.9,72,31.2,72.2z"/>
	<path class="st15" d="M28.1,79.8c-0.3-0.7-0.4-1.4-0.4-2.1c0-1.2,0.5-2.3,1.3-3.2c0,0,0,0,0.1-0.1c0,0,0,0,0,0c0,0,0.1-0.1,0.1-0.1
		c0.6-0.7,1.2-1.1,2.1-1.4c0.4-0.1,0.8-0.2,1.2-0.1c0.2,0,0.4,0.1,0.5,0.2c0,0,0,0,0,0c-0.4-0.4-0.8-0.6-1.3-0.6
		c-0.4-0.1-0.8,0-1.2,0.1c-0.8,0.3-1.5,0.7-2.1,1.4c0,0-0.1,0.1-0.1,0.1c0,0,0,0,0,0c0,0,0,0-0.1,0.1c-0.8,0.9-1.3,2.1-1.3,3.2
		c0,0.7,0.1,1.4,0.4,2.1c0.2,0.3,0.5,0.6,0.7,0.8c0.3,0.3,0.7,0.5,1.1,0.7c-0.1-0.1-0.2-0.1-0.3-0.2C28.6,80.3,28.3,80.1,28.1,79.8z
		"/>
	<path class="st12" d="M47.1,82.8c0.1-1.1-0.2-2.1-0.8-3c-0.2-0.3-0.4-0.5-0.7-0.7c-0.2-0.1-0.4-0.3-0.7-0.3c-0.1,0-0.3-0.1-0.4-0.1
		c0.3,0.2,0.5,0.4,0.7,0.7c0.6,0.9,0.8,1.9,0.8,3c0,0.1,0,0.1,0,0.2c0,1.4-0.6,2.6-1.4,3.5c-1,1.2-2.5,1.9-4.2,1.8
		c-0.4,0-0.8-0.1-1.2-0.2c0.7,0.4,1.5,0.6,2.3,0.6c1.6,0,3.1-0.7,4.2-1.8c0.8-0.9,1.4-2.2,1.4-3.5C47.1,82.9,47.1,82.9,47.1,82.8z"
		/>
	<path class="st13" d="M44.6,86.1c0.8-0.9,1.4-2.2,1.4-3.5c0-0.1,0-0.1,0-0.2c0.1-1.1-0.2-2.1-0.8-3c-0.2-0.3-0.4-0.5-0.7-0.7
		c-0.8-0.1-1.5,0-2.2,0.1c-0.3,0.1-0.7,0.1-1,0c-0.6-0.1-1.2-0.3-1.8-0.3c-0.6,0-1.1,0.1-1.5,0.4c-0.4,0.2-0.7,0.5-0.9,0.9
		c-0.5,0.8-0.7,1.6-0.7,2.6c0,0.1,0,0.1,0,0.2c0,0,0,0,0,0.1c0,0,0,0.1,0,0.1c0,1.4,0.4,2.6,1.2,3.6c0.5,0.6,1.1,1.1,1.8,1.5
		c0.4,0.1,0.8,0.2,1.2,0.2C42,88,43.5,87.3,44.6,86.1z"/>
	<path class="st14" d="M37.9,79.6c1-0.7,2.1,0.2,3.7,0.3c1.4,0,1.7-0.5,2.7-0.4c1.9,0.2,1.4,2.1-0.8,2c-1.9-0.1-4.5-0.4-5.1-0.7
		C38,80.7,36.9,80.3,37.9,79.6z"/>
	<path class="st15" d="M40.5,87.4c-0.6-0.3-1.2-0.8-1.6-1.4c-0.7-0.9-1.1-2.1-1.1-3.3c0,0,0-0.1,0-0.1c0,0,0,0,0-0.1
		c0-0.1,0-0.1,0-0.2c0-0.9,0.2-1.7,0.7-2.4c0.2-0.4,0.5-0.7,0.8-0.9c0.2-0.1,0.3-0.2,0.5-0.2c0,0,0,0-0.1,0c-0.5,0-1,0.1-1.4,0.4
		c-0.3,0.2-0.6,0.5-0.8,0.9c-0.5,0.7-0.7,1.5-0.7,2.4c0,0.1,0,0.1,0,0.2c0,0,0,0,0,0.1c0,0,0,0.1,0,0.1c0,1.3,0.4,2.4,1.1,3.3
		c0.4,0.6,1,1,1.6,1.4c0.4,0.1,0.7,0.1,1.1,0.2c0.4,0,0.9,0,1.3-0.1c-0.1,0-0.2,0-0.3,0C41.2,87.5,40.8,87.5,40.5,87.4z"/>
	<path class="st11" d="M23.3,51.2c4.4,1.9,10.9,5.4,13,6.1c-3.9,1.5-11.3,2.2-14.5,3.7"/>
	<path class="st12" d="M19.5,56c1,0.3,2.1,0.2,3.1-0.2c0.3-0.1,0.6-0.3,0.8-0.5c0.2-0.2,0.3-0.4,0.4-0.6c0.1-0.1,0.1-0.3,0.2-0.4
		c-0.2,0.2-0.5,0.4-0.8,0.5c-1,0.4-2,0.5-3.1,0.2c-0.1,0-0.1,0-0.2,0c-1.3-0.3-2.5-1-3.2-2c-1-1.2-1.4-2.8-1.1-4.4
		c0.1-0.4,0.2-0.8,0.4-1.2c-0.5,0.6-0.8,1.4-1,2.2c-0.3,1.6,0.1,3.2,1.1,4.4c0.8,1,1.9,1.7,3.2,2C19.4,56,19.5,56,19.5,56z"/>
	<path class="st13" d="M16.7,52.9c0.8,1,1.9,1.7,3.2,2c0.1,0,0.1,0,0.2,0c1,0.3,2.1,0.2,3.1-0.2c0.3-0.1,0.6-0.3,0.8-0.5
		c0.2-0.7,0.3-1.5,0.3-2.2c0-0.3,0.1-0.7,0.2-1c0.2-0.6,0.5-1.1,0.6-1.7c0.1-0.6,0.1-1.1-0.1-1.6c-0.2-0.4-0.4-0.7-0.8-1.1
		c-0.7-0.6-1.5-1-2.4-1.2c-0.1,0-0.1,0-0.2,0c0,0,0,0-0.1,0c0,0-0.1,0-0.1,0c-1.3-0.3-2.6,0-3.7,0.5c-0.7,0.4-1.3,0.9-1.8,1.5
		c-0.2,0.4-0.3,0.7-0.4,1.2C15.3,50.1,15.8,51.7,16.7,52.9z"/>
	<path class="st14" d="M24.3,47.5c0.5,1.1-0.6,2.1-0.9,3.6c-0.3,1.3,0.2,1.8-0.1,2.7c-0.5,1.8-2.3,1-1.8-1.1
		c0.4-1.9,1.2-4.4,1.5-4.9C23.2,47.4,23.8,46.4,24.3,47.5z"/>
	<path class="st15" d="M16.2,48.7c0.4-0.6,1-1,1.6-1.4c1-0.5,2.2-0.8,3.5-0.5c0,0,0.1,0,0.1,0c0,0,0,0,0.1,0c0,0,0.1,0,0.1,0
		c0.8,0.2,1.6,0.5,2.2,1.1c0.3,0.3,0.6,0.6,0.7,1c0.1,0.2,0.1,0.4,0.1,0.5c0,0,0,0,0-0.1c0.1-0.5,0.1-1-0.1-1.4
		c-0.1-0.4-0.4-0.7-0.7-1c-0.6-0.6-1.4-0.9-2.2-1.1c0,0-0.1,0-0.1,0c0,0,0,0-0.1,0c0,0-0.1,0-0.1,0c-1.2-0.2-2.4,0-3.5,0.5
		c-0.6,0.3-1.2,0.8-1.6,1.4c-0.2,0.3-0.3,0.7-0.3,1.1c-0.1,0.4-0.1,0.9-0.1,1.3c0-0.1,0-0.2,0-0.3C15.9,49.4,16,49,16.2,48.7z"/>
	<path class="st12" d="M23.1,66.6c0.9-0.5,1.7-1.2,2.2-2.2c0.2-0.3,0.3-0.6,0.3-1c0-0.2,0-0.5,0-0.7c0-0.1-0.1-0.3-0.1-0.4
		c0,0.3-0.1,0.6-0.3,0.9c-0.5,1-1.3,1.7-2.2,2.2c-0.1,0-0.1,0.1-0.2,0.1c-1.2,0.7-2.5,0.8-3.8,0.6c-1.5-0.3-2.9-1.2-3.7-2.7
		c-0.2-0.4-0.3-0.7-0.5-1.1c0,0.8,0.2,1.6,0.6,2.3c0.8,1.4,2.2,2.4,3.7,2.7c1.2,0.3,2.6,0.1,3.8-0.6C23,66.7,23,66.7,23.1,66.6z"/>
	<path class="st13" d="M19,66.1c1.2,0.3,2.6,0.1,3.8-0.6c0.1,0,0.1-0.1,0.2-0.1c0.9-0.5,1.7-1.2,2.2-2.2c0.2-0.3,0.2-0.6,0.3-0.9
		c-0.3-0.7-0.7-1.3-1.2-1.9c-0.2-0.3-0.4-0.6-0.5-0.9c-0.2-0.6-0.3-1.2-0.7-1.7c-0.3-0.5-0.7-0.9-1.1-1.1c-0.4-0.2-0.8-0.3-1.3-0.3
		c-0.9,0-1.8,0.2-2.6,0.6c0,0-0.1,0-0.1,0.1c0,0,0,0-0.1,0c0,0-0.1,0-0.1,0c-1.2,0.6-2,1.7-2.5,2.8c-0.3,0.7-0.4,1.5-0.4,2.3
		c0.1,0.4,0.3,0.8,0.5,1.1C16.1,64.9,17.4,65.8,19,66.1z"/>
	<path class="st14" d="M21.2,57.1c1.1,0.5,0.9,2,1.6,3.3c0.7,1.2,1.3,1.2,1.7,2.1c0.8,1.7-1.1,2.3-2.1,0.3c-0.9-1.7-1.9-4.2-2-4.7
		C20.3,57.7,20.1,56.6,21.2,57.1z"/>
	<path class="st15" d="M15.8,63.2c0-0.7,0.1-1.4,0.4-2.1c0.4-1.1,1.2-2,2.3-2.6c0,0,0.1,0,0.1,0c0,0,0,0,0,0c0,0,0.1,0,0.1-0.1
		c0.7-0.4,1.5-0.6,2.4-0.6c0.4,0,0.8,0.1,1.2,0.3c0.2,0.1,0.3,0.2,0.5,0.3c0,0,0,0,0-0.1c-0.3-0.5-0.6-0.8-1-1
		C21.4,57.1,21,57,20.5,57c-0.9,0-1.7,0.2-2.4,0.6c0,0-0.1,0-0.1,0.1c0,0,0,0,0,0c0,0-0.1,0-0.1,0c-1.1,0.6-1.9,1.5-2.3,2.6
		c-0.3,0.7-0.4,1.4-0.4,2.1c0.1,0.4,0.2,0.7,0.4,1c0.2,0.4,0.5,0.7,0.8,1c-0.1-0.1-0.1-0.2-0.2-0.3C16,63.9,15.9,63.6,15.8,63.2z"/>
	<path class="st3" d="M46.3,63c1.5,0.4,2.1-0.2,3.5,3.1c1.5,3.3,1.5,3.3,1.5,3.3s-0.7,0.2-1.6,0.5s-3.8,1.7-5.7-0.3
		c-1.9-2-2.8-3.5-3-4c-0.2-0.5-1.3-2-1.5-2.4"/>
	<path class="st12" d="M41.4,49.3c-1.1,0.1-2,0.5-2.8,1.2c-0.3,0.2-0.5,0.5-0.6,0.8c-0.1,0.2-0.2,0.5-0.2,0.7c0,0.2,0,0.3,0,0.4
		c0.1-0.3,0.4-0.5,0.6-0.8c0.8-0.7,1.8-1.1,2.8-1.2c0.1,0,0.1,0,0.2,0c1.4-0.2,2.7,0.2,3.7,0.8c1.3,0.8,2.2,2.2,2.4,3.8
		c0.1,0.4,0.1,0.8,0,1.2c0.2-0.7,0.3-1.6,0.2-2.4c-0.2-1.6-1.1-3-2.4-3.8c-1.1-0.7-2.4-1-3.7-0.8C41.6,49.2,41.5,49.3,41.4,49.3z"/>
	<path class="st13" d="M45.1,51.2c-1.1-0.7-2.4-1-3.7-0.8c-0.1,0-0.1,0-0.2,0c-1.1,0.1-2,0.5-2.8,1.2c-0.3,0.2-0.5,0.5-0.6,0.8
		c0,0.8,0.2,1.5,0.5,2.2c0.1,0.3,0.2,0.7,0.1,1c-0.1,0.6-0.1,1.2,0,1.8c0.1,0.6,0.3,1,0.6,1.4c0.3,0.3,0.6,0.6,1.1,0.8
		c0.9,0.4,1.7,0.5,2.7,0.3c0.1,0,0.1,0,0.2,0c0,0,0,0,0.1,0c0,0,0.1,0,0.1,0c1.3-0.2,2.5-0.8,3.4-1.7c0.5-0.6,0.9-1.2,1.2-2
		c0-0.4,0-0.8,0-1.2C47.3,53.4,46.4,52.1,45.1,51.2z"/>
	<path class="st14" d="M39.7,58.8c-0.8-0.9-0.1-2.1-0.3-3.7c-0.2-1.3-0.7-1.6-0.8-2.6c-0.1-1.9,1.8-1.7,2.1,0.5
		c0.2,1.9,0.3,4.6,0.1,5.2C40.8,58.6,40.6,59.7,39.7,58.8z"/>
	<path class="st15" d="M47,55.1c-0.2,0.7-0.6,1.3-1.1,1.8c-0.8,0.8-1.9,1.4-3.1,1.6c0,0-0.1,0-0.1,0c0,0,0,0-0.1,0c0,0-0.1,0-0.1,0
		c-0.8,0.1-1.7,0-2.5-0.3c-0.4-0.2-0.7-0.4-1-0.7c-0.1-0.1-0.2-0.3-0.3-0.5c0,0,0,0,0,0.1c0.1,0.5,0.3,1,0.6,1.3
		c0.2,0.3,0.6,0.5,1,0.7c0.8,0.3,1.6,0.4,2.5,0.3c0,0,0.1,0,0.1,0c0,0,0,0,0.1,0c0,0,0.1,0,0.1,0c1.2-0.2,2.3-0.7,3.1-1.6
		c0.5-0.5,0.9-1.2,1.1-1.8c0-0.4,0-0.7,0-1.1c-0.1-0.4-0.2-0.9-0.3-1.2c0,0.1,0,0.2,0.1,0.3C47,54.3,47,54.7,47,55.1z"/>
	<path class="st7" d="M31.5,55.1c0,0,1.7,4.2,3.3,5.9c1.6,1.8,2.7,2.5,4.6,2c1.9-0.6,3.2-0.5,3.2-0.5s-1.8-2.7-1.9-4
		s-1.6-3.4-3.1-3.3C36.2,55.2,31.5,55.1,31.5,55.1z"/>
	<path class="st6" d="M56.3,71.1c0,0,1.7-0.6,2.7-2.9c1-2.3,3.2-4.3,5.6-3.2c2.4,1,4.1,0.8,4.1,0.8s-0.3-0.2-1,1.9
		c-0.7,2-3.3,4.3-5.6,4.2C59.7,71.8,56.3,71.1,56.3,71.1z"/>
	<path class="st12" d="M55.2,40c0-1.1-0.2-2.1-0.8-3c-0.2-0.3-0.4-0.5-0.7-0.7c-0.2-0.1-0.4-0.3-0.7-0.3c-0.1,0-0.3-0.1-0.4-0.1
		c0.3,0.2,0.5,0.4,0.7,0.7c0.6,0.9,0.9,1.9,0.8,3c0,0.1,0,0.1,0,0.2c0,1.4-0.5,2.6-1.3,3.6c-1,1.2-2.5,1.9-4.1,1.9
		c-0.4,0-0.8,0-1.2-0.1c0.7,0.3,1.5,0.5,2.3,0.5c1.7,0,3.1-0.8,4.1-1.9c0.8-1,1.3-2.2,1.3-3.6C55.2,40.2,55.2,40.1,55.2,40z"/>
	<path class="st13" d="M52.8,43.4c0.8-1,1.3-2.2,1.3-3.6c0-0.1,0-0.1,0-0.2c0-1.1-0.2-2.1-0.8-3c-0.2-0.3-0.4-0.5-0.7-0.7
		c-0.8-0.1-1.5,0-2.2,0.2c-0.3,0.1-0.7,0.1-1,0c-0.6-0.1-1.2-0.3-1.8-0.3c-0.6,0-1.1,0.2-1.5,0.4c-0.3,0.2-0.6,0.5-0.9,0.9
		c-0.5,0.8-0.7,1.7-0.7,2.6c0,0.1,0,0.1,0,0.2c0,0,0,0,0,0.1c0,0,0,0.1,0,0.1c0,1.4,0.5,2.6,1.3,3.5c0.5,0.6,1.1,1.1,1.8,1.4
		c0.4,0.1,0.8,0.1,1.2,0.1C50.3,45.3,51.8,44.6,52.8,43.4z"/>
	<path class="st14" d="M46,37.1c1-0.7,2.1,0.2,3.7,0.2c1.4,0,1.7-0.5,2.7-0.4c1.9,0.1,1.5,2-0.7,2c-1.9,0-4.6-0.3-5.1-0.5
		C46.1,38.2,44.9,37.8,46,37.1z"/>
	<path class="st15" d="M48.7,44.8c-0.6-0.3-1.2-0.8-1.7-1.3c-0.7-0.9-1.2-2-1.2-3.3c0,0,0-0.1,0-0.1c0,0,0,0,0-0.1c0,0,0-0.1,0-0.2
		c0-0.9,0.2-1.7,0.6-2.4c0.2-0.4,0.5-0.7,0.8-0.9c0.2-0.1,0.3-0.2,0.5-0.2c0,0,0,0-0.1,0c-0.5,0-1,0.1-1.4,0.4
		c-0.3,0.2-0.6,0.5-0.8,0.9c-0.4,0.7-0.6,1.5-0.6,2.4c0,0.1,0,0.1,0,0.2c0,0,0,0,0,0.1c0,0,0,0.1,0,0.1c0,1.3,0.4,2.4,1.2,3.3
		c0.5,0.6,1,1,1.7,1.3c0.4,0.1,0.7,0.1,1.1,0.1c0.4,0,0.9-0.1,1.3-0.2c-0.1,0-0.2,0-0.3,0C49.5,44.9,49.1,44.9,48.7,44.8z"/>
	<path class="st12" d="M64.9,62.7c0-1.1-0.2-2.1-0.8-3c-0.2-0.3-0.4-0.5-0.7-0.7c-0.2-0.1-0.4-0.3-0.7-0.3c-0.1,0-0.3-0.1-0.4-0.1
		c0.3,0.2,0.5,0.4,0.7,0.7c0.6,0.9,0.9,1.9,0.8,3c0,0.1,0,0.1,0,0.2c0,1.4-0.5,2.6-1.3,3.6c-1,1.2-2.5,1.9-4.1,1.9
		c-0.4,0-0.8,0-1.2-0.1c0.7,0.3,1.5,0.5,2.3,0.5c1.7,0,3.1-0.8,4.1-1.9c0.8-1,1.3-2.2,1.3-3.6C64.9,62.9,64.9,62.8,64.9,62.7z"/>
	<path class="st13" d="M62.5,66.1c0.8-1,1.3-2.2,1.3-3.6c0-0.1,0-0.1,0-0.2c0-1.1-0.2-2.1-0.8-3c-0.2-0.3-0.4-0.5-0.7-0.7
		c-0.8-0.1-1.5,0-2.2,0.2c-0.3,0.1-0.7,0.1-1,0c-0.6-0.1-1.2-0.3-1.8-0.3c-0.6,0-1.1,0.2-1.5,0.4c-0.3,0.2-0.6,0.5-0.9,0.9
		c-0.5,0.8-0.7,1.7-0.7,2.6c0,0.1,0,0.1,0,0.2c0,0,0,0,0,0.1c0,0,0,0.1,0,0.1c0,1.4,0.5,2.6,1.3,3.5c0.5,0.6,1.1,1.1,1.8,1.4
		c0.4,0.1,0.8,0.1,1.2,0.1C60,68,61.5,67.3,62.5,66.1z"/>
	<path class="st14" d="M55.7,59.8c1-0.7,2.1,0.2,3.7,0.2c1.4,0,1.7-0.5,2.7-0.4c1.9,0.1,1.5,2-0.7,2c-1.9,0-4.6-0.3-5.1-0.5
		C55.7,60.9,54.6,60.5,55.7,59.8z"/>
	<path class="st15" d="M58.4,67.5c-0.6-0.3-1.2-0.8-1.7-1.3c-0.7-0.9-1.2-2-1.2-3.3c0,0,0-0.1,0-0.1c0,0,0,0,0-0.1c0,0,0-0.1,0-0.2
		c0-0.9,0.2-1.7,0.6-2.4c0.2-0.4,0.5-0.7,0.8-0.9c0.2-0.1,0.3-0.2,0.5-0.2c0,0,0,0-0.1,0c-0.5,0-1,0.1-1.4,0.4
		c-0.3,0.2-0.6,0.5-0.8,0.9c-0.4,0.7-0.6,1.5-0.6,2.4c0,0.1,0,0.1,0,0.2c0,0,0,0,0,0.1c0,0,0,0.1,0,0.1c0,1.3,0.4,2.4,1.2,3.3
		c0.5,0.6,1,1,1.7,1.3c0.4,0.1,0.7,0.1,1.1,0.1c0.4,0,0.9-0.1,1.3-0.2c-0.1,0-0.2,0-0.3,0C59.1,67.6,58.8,67.6,58.4,67.5z"/>
</g>
</svg>
