<?xml version="1.0" encoding="utf-8"?>
<!-- Generator: Adobe Illustrator 23.1.1, SVG Export Plug-In . SVG Version: 6.00 Build 0)  -->
<svg version="1.1" id="Layer_1" xmlns="http://www.w3.org/2000/svg" xmlns:xlink="http://www.w3.org/1999/xlink" x="0px" y="0px"
	 viewBox="0 0 108 108" style="enable-background:new 0 0 108 108;" xml:space="preserve">
<style type="text/css">
	.st0{fill:none;stroke:#27272F;stroke-width:2;stroke-miterlimit:10;}
	.st1{fill:none;stroke:#27272F;stroke-miterlimit:10;}
	.st2{fill:#2A7036;}
	.st3{fill:none;stroke:#C0EA96;stroke-linecap:round;stroke-miterlimit:10;}
	.st4{fill:#514258;}
	.st5{fill:#27272F;}
	.st6{fill:#40475B;}
	.st7{fill:#415666;}
	.st8{fill:#464D62;}
	.st9{fill:#97A8B9;}
	.st10{fill:#2E7B2D;}
	.st11{fill:#549542;}
</style>
<g>
	<path class="st0" d="M63.7,41.2c0,0-7.6,6.1-7.7,7.2c-0.1,1.1,9.2,11.9,9.3,12s-3.5,7.4-3.5,7.4s-4.7-5.2-6.6-4.4
		c-1.9,0.8-3.5,6.8-3.7,8.3c-0.2,1.5,0.4,8.1-0.5,9.6s-1.3,8.5-0.6,9.6"/>
	<line class="st0" x1="51" y1="77" x2="61.8" y2="84.3"/>
	<path class="st1" d="M54.4,61.6c-1.9,1.5-7.5,4.4-7.5,4.4"/>
	<path class="st0" d="M43.9,53.2c1.3,0.6,8.1,6.2,8.1,6.2l1-6"/>
	<path class="st0" d="M59.8,38.1c0,0-5.4,3.4-5.5,3.9s-0.1,10.9,0,11c0.1,0.1,3.3,15.7,3.3,15.7l3.9,10.9l-1.8,5.8l-4.5,4.7"/>
	<path class="st0" d="M75.2,36.5c0,0-5,4-5.7,7.9c-0.7,3.8-0.5,10.1-0.6,11.3c0,1.2-0.9,9.4-4.3,10.9c-3.4,1.5-4.8,3.2-4,5.1
		c0.8,1.9,1.5,11.4,1.2,12.7"/>
	<path class="st2" d="M61.6,16.1c0,0,4.4,3.9,6.2,4.8c1.8,0.9,8.4,4.7,9.8,5.5s2.8,4.4,3.1,4.1c0.3-0.3-1,1.9-1,1.9h-3.1
		c0,0-4.2,0.3-4.8,0c-0.7-0.3-4.4-2.8-5.5-2.9c-1.1-0.1-5.3-1.7-5.3-1.7s-2.6-2.2-2.2-2.9C59.2,24.3,61.6,16.1,61.6,16.1z"/>
	<line class="st3" x1="42.9" y1="33.2" x2="38.9" y2="37.4"/>
	<circle class="st4" cx="36.5" cy="42.7" r="6.2"/>
	<path class="st5" d="M37.1,46.9c-2.6,0-4.8-2.1-4.8-4.8c0-0.4,0.1-0.8,0.2-1.2c-0.6,0.8-0.9,1.7-0.9,2.8c0,2.6,2.1,4.8,4.8,4.8
		c2.2,0,4.1-1.5,4.6-3.6C40.1,46.1,38.7,46.9,37.1,46.9z"/>
	<circle class="st6" cx="45.7" cy="42.9" r="6.6"/>
	<circle class="st6" cx="66.3" cy="42.7" r="6.2"/>
	<circle class="st7" cx="65.6" cy="29.3" r="6.9"/>
	<circle class="st6" cx="74.4" cy="36.5" r="5.5"/>
	<circle class="st6" cx="60.2" cy="35.7" r="5.5"/>
	<circle class="st6" cx="54.1" cy="39.4" r="5.3"/>
	<circle class="st8" cx="68.4" cy="46.6" r="6.4"/>
	<circle class="st4" cx="43.5" cy="53.6" r="5.9"/>
	<circle class="st6" cx="66.8" cy="59.4" r="6.2"/>
	<circle class="st7" cx="55" cy="50.8" r="6.8"/>
	<circle class="st8" cx="54.1" cy="61.6" r="6.2"/>
	<circle class="st6" cx="46.5" cy="66.6" r="5.1"/>
	<circle class="st6" cx="60.6" cy="69.5" r="5.4"/>
	<circle class="st6" cx="51" cy="77.3" r="5.8"/>
	<circle class="st4" cx="62.1" cy="72.9" r="6.1"/>
	<circle class="st8" cx="48.7" cy="81.2" r="5.4"/>
	<circle class="st6" cx="61.8" cy="84.3" r="5.8"/>
	<circle class="st7" cx="52.4" cy="92" r="5.5"/>
	<ellipse class="st9" cx="42.7" cy="54.8" rx="1.8" ry="2.3"/>
	<circle class="st9" cx="35.5" cy="45.1" r="1.5"/>
	<ellipse class="st9" cx="47.6" cy="43.6" rx="1.1" ry="1.6"/>
	<ellipse class="st9" cx="54.4" cy="50.7" rx="0.8" ry="1.2"/>
	<ellipse class="st9" cx="59.5" cy="51.2" rx="0.7" ry="1.8"/>
	<circle class="st9" cx="53.9" cy="62.6" r="1.5"/>
	<circle class="st9" cx="46.4" cy="66.9" r="1.2"/>
	<circle class="st9" cx="51.7" cy="77" r="0.7"/>
	<circle class="st9" cx="48.5" cy="82.9" r="0.9"/>
	<ellipse class="st9" cx="63.5" cy="73.8" rx="0.5" ry="0.9"/>
	<circle class="st9" cx="67.4" cy="59.6" r="1"/>
	<circle class="st9" cx="69.2" cy="47.4" r="1.6"/>
	<circle class="st9" cx="65.3" cy="41" r="0.7"/>
	<ellipse class="st9" cx="59.8" cy="34.9" rx="0.4" ry="0.8"/>
	<ellipse class="st9" cx="65.4" cy="29.2" rx="1.4" ry="1.8"/>
	<circle class="st9" cx="75.2" cy="37.3" r="0.8"/>
	<circle class="st9" cx="61" cy="85.4" r="1.1"/>
	<circle class="st9" cx="52.1" cy="92.5" r="1"/>
	<circle class="st9" cx="54.1" cy="38.7" r="0.9"/>
	<ellipse class="st9" cx="60" cy="68" rx="0.6" ry="1.1"/>
	<path class="st10" d="M51.1,15.4c0.7-0.7,5-4.3,5-4.3H58l2.3-0.6v2.4l2.8,0.4l-0.9,1.3l0.9,0.7v1.5v2.5v2.3c0,0-0.4,1.2-0.6,1.5
		c-0.1,0.3-0.6,3-0.6,3l-1,1.5l-0.3,1.7l-2.1,0.9l-1.4,1l-1.4,1.5h-2.3L52,34.6l-1.7,1h-1.9L46.6,39c0,0-1,1.3-0.9,1.7
		c0.1,0.3,0.6,1.8,0,2.2c-0.7,0.4-1,4.1-1.2,3.7c-0.2-0.3-4.6-4.6-4.7-5c-0.1-0.3-2-1-1.9-1.3c0.1-0.3,0-2,0-2s-1.9-1-2.2-1.5
		c-0.3-0.6-1-3-1.8-3s-1.4,0.4-1.8,0c-0.3-0.4-1.5-1.2-1.5-1.2s0.2-1.7,0-2s-1.7-0.9-1.5-1.3c0.1-0.4,1-2.3,1-2.3s-1.7-1.3-1-1.9
		c0.7-0.6,0.9-1.7,1.2-2.1c0.3-0.4,2-1.2,1.9-2.1s2-3.1,2-3.1s2.8-2.9,3-3.3s3.2-1.8,3.2-1.8l4.1-2.3l2.1,1.2l1.2-0.6l2.4,0.4
		L51.1,15.4z"/>
	<path class="st11" d="M48.3,16.1c-0.3-0.4-3.2-1.6-5.4-1.4c-2.2,0.2-2.7,1.5-4.4,3c-1.8,1.5-3.7,3.5-4.1,4.2
		c-0.3,0.7-2,3.7-1.7,4.5c0.3,0.8,3.6,5.9,5.2,8.2s2.8,4.2,4,3.4c1.1-0.8,2.4-1.7,2.5-3.4c0.1-1.8,0.5-0.1,1.6-0.9s2-0.8,1.6-2.6
		c-0.3-1.9,0.1-5.4,1.1-4.6c1,0.8,3.3,6.9,3.3,3.1s-0.6-4.2-1-5.5s3.4-1.1,4-0.3s2.1,2,2.3-0.7c0.2-2.7,2.2-2.6,1.1-5.2
		c-1.1-2.6-0.8-4.9-1.9-4.2c-1.1,0.7-5.6,3.1-6.6,3.2S48.3,16.1,48.3,16.1z"/>
	<path class="st3" d="M48.7,18.9c0,0-4.8,11.7-5.3,12.4C43,32.1,41.7,39,41.7,39l1.3,3"/>
	<path class="st3" d="M36.5,34.5c0,0,9.1-10.1,9.5-10.1l4.5,7.4"/>
	<path class="st3" d="M37.9,15.4c0.6,0.1,12.6,3.7,13.1,4.5c0.6,0.8,3,5.6,3.1,6.3s0.9,4.3,0.9,4.3"/>
	<polyline class="st3" points="48.7,18.9 42.4,20.5 34.7,27.8 32.1,31 	"/>
	<line class="st3" x1="36.3" y1="26.4" x2="31.7" y2="26.4"/>
	<path class="st3" d="M40.9,21.2c-0.1,0-7,0-7,0"/>
	<path class="st3" d="M50,19.3c0.4-0.7,3-2.7,4.1-3.1c1.1-0.3,6.5,0,6.5,0"/>
	<path class="st3" d="M51,19.9c1.2,0.3,5.5,1.3,6.5,1.3s2.3,0.7,2.3,0.7"/>
	<path class="st5" d="M55.6,54.1c-2.6,0-4.8-2.1-4.8-4.8c0-0.4,0.1-0.8,0.2-1.2c-0.6,0.8-0.9,1.7-0.9,2.8c0,2.6,2.1,4.8,4.8,4.8
		c2.2,0,4.1-1.5,4.6-3.6C58.6,53.3,57.2,54.1,55.6,54.1z"/>
	<path class="st5" d="M67.6,63.3c-2.6,0-4.8-2.1-4.8-4.8c0-0.4,0.1-0.8,0.2-1.2c-0.6,0.8-0.9,1.7-0.9,2.8c0,2.6,2.1,4.8,4.8,4.8
		c2.2,0,4.1-1.5,4.6-3.6C70.6,62.5,69.2,63.3,67.6,63.3z"/>
	<path class="st5" d="M62.6,76.4c-2.6,0-4.8-2.1-4.8-4.8c0-0.4,0.1-0.8,0.2-1.2c-0.6,0.8-0.9,1.7-0.9,2.8c0,2.6,2.1,4.8,4.8,4.8
		c2.2,0,4.1-1.5,4.6-3.6C65.7,75.6,64.2,76.4,62.6,76.4z"/>
	<path class="st5" d="M62.4,87.6c-2.6,0-4.8-2.1-4.8-4.8c0-0.4,0.1-0.8,0.2-1.2c-0.6,0.8-0.9,1.7-0.9,2.8c0,2.6,2.1,4.8,4.8,4.8
		c2.2,0,4.1-1.5,4.6-3.6C65.4,86.8,64,87.6,62.4,87.6z"/>
	<path class="st5" d="M54.2,65.5c-2.6,0-4.8-2.1-4.8-4.8c0-0.4,0.1-0.8,0.2-1.2c-0.6,0.8-0.9,1.7-0.9,2.8c0,2.6,2.1,4.8,4.8,4.8
		c2.2,0,4.1-1.5,4.6-3.6C57.3,64.7,55.8,65.5,54.2,65.5z"/>
	<path class="st5" d="M44.2,56.7c-2.6,0-4.8-2.1-4.8-4.8c0-0.4,0.1-0.8,0.2-1.2c-0.6,0.8-0.9,1.7-0.9,2.8c0,2.6,2.1,4.8,4.8,4.8
		c2.2,0,4.1-1.5,4.6-3.6C47.2,55.9,45.8,56.7,44.2,56.7z"/>
	<path class="st5" d="M69.2,50.4c-2.6,0-4.8-2.1-4.8-4.8c0-0.4,0.1-0.8,0.2-1.2c-0.6,0.8-0.9,1.7-0.9,2.8c0,2.6,2.1,4.8,4.8,4.8
		c2.2,0,4.1-1.5,4.6-3.6C72.3,49.6,70.8,50.4,69.2,50.4z"/>
	<path class="st5" d="M66.1,45.1c-2.6,0-4.8-2.1-4.8-4.8c0-0.4,0.1-0.8,0.2-1.2c-0.6,0.8-0.9,1.7-0.9,2.8c0,2.6,2.1,4.8,4.8,4.8
		c2.2,0,4.1-1.5,4.6-3.6C69.1,44.3,67.7,45.1,66.1,45.1z"/>
	<path class="st5" d="M75.4,39.6c-2.6,0-4.8-2.1-4.8-4.8c0-0.4,0.1-0.8,0.2-1.2c-0.6,0.8-0.9,1.7-0.9,2.8c0,2.6,2.1,4.8,4.8,4.8
		c2.2,0,4.1-1.5,4.6-3.6C78.4,38.8,77,39.6,75.4,39.6z"/>
	<path class="st5" d="M66.1,33.7c-2.6,0-4.8-2.1-4.8-4.8c0-0.4,0.1-0.8,0.2-1.2c-0.6,0.8-0.9,1.7-0.9,2.8c0,2.6,2.1,4.8,4.8,4.8
		c2.2,0,4.1-1.5,4.6-3.6C69.1,32.9,67.7,33.7,66.1,33.7z"/>
	<path class="st5" d="M54.4,42.5c-2.6,0-4.8-2.1-4.8-4.8c0-0.4,0.1-0.8,0.2-1.2c-0.6,0.8-0.9,1.7-0.9,2.8c0,2.6,2.1,4.8,4.8,4.8
		c2.2,0,4.1-1.5,4.6-3.6C57.4,41.7,56,42.5,54.4,42.5z"/>
	<path class="st5" d="M51.8,81.2c-2.6,0-4.8-2.1-4.8-4.8c0-0.4,0.1-0.8,0.2-1.2c-0.6,0.8-0.9,1.7-0.9,2.8c0,2.6,2.1,4.8,4.8,4.8
		c2.2,0,4.1-1.5,4.6-3.6C54.9,80.4,53.5,81.2,51.8,81.2z"/>
	<path class="st5" d="M53.2,95.4c-2.6,0-4.8-2.1-4.8-4.8c0-0.4,0.1-0.8,0.2-1.2c-0.6,0.8-0.9,1.7-0.9,2.8c0,2.6,2.1,4.8,4.8,4.8
		c2.2,0,4.1-1.5,4.6-3.6C56.2,94.6,54.8,95.4,53.2,95.4z"/>
</g>
</svg>
