<svg xmlns="http://www.w3.org/2000/svg" version="1.1" xmlns:xlink="http://www.w3.org/1999/xlink" xmlns:svgjs="http://svgjs.dev/svgjs" viewBox="0 0 108 108" style="" x="0" y="0"><style type="text/css">
	.st0{fill-rule:evenodd;clip-rule:evenodd;fill:#678D32;}
	.st1{opacity:0.34;fill:#694000;}
	.st2{fill:none;stroke:#708430;stroke-width:0.8396;stroke-miterlimit:10;}
	.st3{fill:#A5C239;}
	.st4{fill:#83B43B;}
	.st5{fill:#90BB3A;}
	.st6{fill:#507525;}
	.st7{fill:#91B73E;}
	.st8{fill:#A4C839;}
	.st9{fill:#AFCB36;}
	.st10{fill:#A5BD39;}
	.st11{fill:#73AA3A;}
	.st12{fill:#324E8E;}
	.st13{fill:#4363A4;}
	.st14{fill:#37589E;}
	.st15{fill:#273E75;}
</style><g><path class="st0" d="M82.7,81.5c-0.1,0-0.1-0.1-0.2-0.2c0,0,0,0,0,0C82.6,81.4,82.7,81.4,82.7,81.5c4.5,3.2,13-5.1,4.9-8.4
	c-0.4,0-0.9-0.1-1.2-0.4h0c0.4,0.1,0.8,0.3,1.2,0.4c0.8,0,1.5-0.4,2-0.9c1.5,0.2,3.3-1.1,1.6-3.3c2.1,0.4,2-1.7,1.2-2.9
	c3.7-0.3,6.3-2.8,6.9-6.3c0.6-3.9-1.3-9.6-5.6-10.6c-0.1-0.1-0.1-0.2-0.1-0.3c2.4-0.4,3.5-2.3,1.6-4.3c2.5-0.6,2.1-4.6-2.2-2.2
	c4.1-1,3.9-6.9,1.2-8.3c0-1.2-0.2-2.4-0.7-3.3c-1.2-2.4-3.9-3.9-6.7-4c0.1-2.6-2.5-4.3-4.9-3.5c-0.7-1.2-1.8-2.2-3.1-2.7
	c1-3.1-4.1-5.8-6.2-2.2c0.1-1.6-0.9-2.6-2.1-3c-0.8-1.8-2.5-2-4.2-1.3c-0.2-0.1-0.4-0.2-0.7-0.3c-0.4-3.3-2.7-6.3-5.6-7.1
	c-3.5-1-8,1.3-9.2,5.1c-0.4,0-0.7-0.1-1.1,0c-3-3.7-12.3-1.9-8.2,4.9c0.3,0.2,0.5,0.6,0.6,0.9c0,0,0,0,0,0c-0.2-0.4-0.4-0.6-0.6-0.9
	c-1.6-1.3-4.7,0.1-4.1,2.2c-1.2,0.1-2.3,0.5-3.1,1.3c-3.3-2.9-7.4-2.6-10.3,0.1c-3.2,3-5.3,9.8-0.9,13c-2.5-2.4-5.5-1.6-5.1,1.7
	c-2.4-1-4.5,2.4,0.4,3.1c-5-2.1-9.3,6.4-3.7,7.7c-4.2,0.4-3.7,6.8,0.5,7.4c-3.1,1.4-2.7,4.8-0.8,6.3c-0.3,0.9,0,1.9,1.7,2.4
	c-1.5,0.7-1,1.8-0.2,2.5c-2.1,2.1,0.2,6.7,3.9,5.2c-1,1.1-0.8,2.6-0.1,3.6c-0.5,1.9,0.8,3.1,2.4,3.6c0.4,1.2,1.1,1.8,2.3,2
	c0.1,0.5,0.6,1,1.4,1.4c0.5,1.6,1.8,2.3,2.7,1.7c0.1-0.2,0.2-0.4,0.3-0.6c0,0,0.1,0,0.2,0c-0.2,0.2-0.3,0.4-0.5,0.6
	c-0.6,1.9,1.5,3.7,3.6,4.3c0,0.9,0.6,1.6,1.3,2.1c0.6,2.3,2,4.4,4,5.3c3.4,1.6,8.2,0.1,10.1-3.5c0.2-0.1,0.4,0,0.6-0.1
	c0.1,0.1,0.2,0.1,0.3,0.2c1.6,3.2,7.6,4,9.1,0.9c1.4,0.4,3.1,0.1,4.4-0.7c0.9-0.2,1.7-0.8,2.1-1.9c0.8,2.5,4.1,1.3,3.7-1.5
	c0,0,0.1,0,0.1,0c1.4,4.8,6.9,7.2,10.7,5.7C82.8,90.8,85,85.4,82.7,81.5z"></path><path class="st1" d="M92.1,59.8l-2.6-0.5L84.4,58l0,0l-0.2,0c-1.5-0.1-3-0.1-4.5-0.1c-1.4,0.1-2.8,0.1-4.2,0.5c-0.4-0.6-1-0.7-1.5-1
	l-1.7-0.7l-3.3-1.5c-1.2-0.5-2.5-1-3.7-1.5c0.4-1.4,0.5-2.6,0.4-3.7c1.4-0.7,2.7-1.4,4-2.2c0.5-0.3,0.9-0.6,1.4-1
	c0.2,0.2,0.5,0.2,0.8,0.2l1.4,0.2l2.8,0.5l5.7,0.9c1.9,0.3,3.8,0.5,5.7,0.8c1.9,0.2,3.8,0.5,5.7,0.6l0.3-1.5
	c-1.9-0.5-3.7-0.9-5.6-1.4c-1.9-0.4-3.8-0.8-5.6-1.2l-5.7-1.1L74,44.4c0.9-0.9,1.7-1.9,2.4-2.9c0.9-1.3,1.7-2.8,2.3-4.3l9.9-1
	l-0.1-1.5l-8.9-0.1c0.2-0.5,0.3-1,0.4-1.5c0.8-2.9,1-5.9,1.2-8.9l-1.5-0.1c-0.3,2.8-0.7,5.7-1.6,8.4c-0.9,2.7-2.1,5.2-3.8,7.4
	c-1.7,2.2-3.8,3.9-6.2,5.3c-1.4,0.8-3,1.5-4.6,2.1c-0.8-0.4-1.5-0.7-1.8-1c-0.5-0.4-1.2-1-1.9-1.5l-1.1-16.4
	c0.1-0.1,0.2-0.1,0.2-0.2l0.9-0.7l1.8-1.3l3.6-2.6l7.3-5.1l-0.8-1.3L64.2,22l-3.8,2.4l-1.8,1.2L58,14.9L56.4,15l0.1,12.3
	c0,0,0,0,0,0l0,0l0.1,6.1c0,0-0.1-0.1-0.1-0.1c-0.8-0.7-1.6-1.4-2.4-2.1c-0.1-0.1-0.2-0.2-0.3-0.3l-4-14l-1.5,0.4l2.6,11.5
	c-0.7-0.5-1.3-0.9-2-1.4c-1.8-1.2-3.6-2.2-5.5-3.2c-1.9-1-3.8-1.9-5.7-2.7l-0.6,1.4c1.9,0.9,3.7,1.8,5.5,2.9c1.8,1,3.6,2.1,5.3,3.2
	c1.7,1.2,3.4,2.4,5,3.7c0.8,0.7,1.6,1.3,2.3,2.1c0.4,0.4,0.7,0.7,1.1,1.1c0.1,0.1,0.3,0.3,0.4,0.4l0.1,7.8c-1.1,0.5-1.9,1.3-1.9,1.3
	s-0.5,0.4-1.2,1.1l-13.4-6.9c-0.4-0.9-1.1-1.6-1.6-2.4l-2.3-3.3c-1.6-2.2-3.1-4.4-4.8-6.6L30.3,28c1.4,2.3,2.8,4.6,4.3,6.9l2.2,3.4
	c0.4,0.5,0.7,1.1,1.1,1.7c-0.9,0-1.7,0.1-2.6,0.1l-4.6,0.3c-3.1,0.2-6.1,0.5-9.2,0.8l0.1,1.5c3.1,0,6.2,0,9.2-0.1l4.6-0.2
	c1.2-0.1,2.3,0,3.5-0.3l3.5,2.1l-8.6,5.1l-14.2,2.3l0.2,1.5L34.3,51l0.1,0l0.1-0.1l11.2-4.6l5.4,3.3c-0.1,0.2-0.2,0.5-0.2,0.7
	c-0.2,1.4,0.5,2.8,0.8,4.4l-6,4.9l-25.9-1.4l-0.1,1.5l15.3,1.6l-11.9,9.2l0.9,1.3l15.3-10l5.1,0.5l-0.7,5.3
	c-0.2,1.2-0.3,2.5-0.5,3.7l-15.7,5.4l0.4,1.5l14.7-3.9c0,0,0,0.1,0,0.1l-2.6,13.4l1.5,0.3l3.1-13.4c0.6-2.2,0.9-4.5,1.3-6.7l1.1-6.2
	l5.1-3.1c0.2,0.3,0.6,0.4,1.3,0.6c0.7,0.2,1.4,0.3,1.9,0.4l2.7,16l-5.3,15.6l1.5,0.5l5.3-13.4l8.5,12.4l1.3-0.8l-8.9-14.8l-1-15.9
	c0.8-0.2,1.6-0.5,1.6-0.5s1.6-0.8,2.8-2.1c1.4,0.5,2.8,0.9,4.1,1.4l3.5,1.1l1.7,0.5c0.3,0.1,0.5,0.2,0.7,0.2l1,5.1l0.6,2.8l0.3,1.4
	l0.2,0.8c0,0.2,0.1,0.4,0.2,0.6l0.2,0.3c1,1.7,2.1,3.2,3.1,4.8l3.2,4.8l1.3-0.8l-2.9-5c-0.9-1.7-1.9-3.3-2.8-5l-0.1-0.3
	c0,0,0,0,0-0.1L78.2,69l-0.2-1.4l-0.4-2.8L77,60.2c1,0,1.9,0,2.9-0.1c0.8-0.1,1.6-0.2,2.5-0.3l6.2,14.9l1.4-0.5l-4.7-14.4l4,0.9
	l2.6,0.5c0.9,0.2,1.7,0.4,2.8,0.4v-1.5C93.9,60.1,93,59.9,92.1,59.8z"></path><path class="st2" d="M77.3,81.9c-0.1-2-0.8-5.6-1.4-8.2"></path><path class="st2" d="M82.6,79.3c-2.6-1.1-6-3.5-7.7-6.1"></path><path class="st2" d="M83.5,74.1c-3,1.5-5.5,3.1-7.6,0.1"></path><path class="st2" d="M71.4,68.4c-3.2-2.5-6.2-5.7-7.4-8.6"></path><path class="st2" d="M64.9,70.8c0.4-4.2-0.8-10.5-0.9-11.8"></path><path class="st2" d="M70.5,62.9c-2.5,0.8-3.9,2-6.3-2.1"></path><path class="st3" d="M72.9,85.9c-0.3-1.6-1.1-1.9,1.6-4.8c2.7-2.8,2.7-2.8,2.7-2.8s0.5,0.6,1.2,1.3c0.6,0.7,3.3,3,2.1,5.7
	c-1.2,2.7-2.2,4.2-2.6,4.6c-0.4,0.4-1.5,2.1-1.7,2.5"></path><path class="st4" d="M91.7,86.7c-1.9-0.8-4.7,0.9-7.1-0.7c-2.4-1.7-3.7-5.7-4.3-6.9c-0.6-1.2-1.5-0.7,0.7-0.7c2.2,0,2.4-0.8,4.3-0.3
	c1.9,0.5,4.6,3.3,4.8,4.5S91.7,86.7,91.7,86.7z"></path><path class="st5" d="M80.1,75.8c0.6,0,1.2,0.5,4,0.5c2.8,0,5-0.3,5.5-2.4c0.5-2.1-0.2-2.6,1-4s1.2-1.4,1.2-1.4s-2.4-0.1-5.8,0
	c-3.4,0.1-4.9,3.5-5.3,4.9S80.1,75.8,80.1,75.8z"></path><path class="st6" d="M78.6,75.8c0,0-1.3-1.4-3.9-1.4c-2.6,0-5.5-1.3-5.5-4.1c0-2.8-0.9-4.3-0.9-4.3s-0.1,0.4,2.2,0.2
	c2.3-0.2,5.6,1.4,6.5,3.7C77.9,72.1,78.6,75.8,78.6,75.8z"></path><path class="st7" d="M62.7,79.4c0,0,3.4-3.4,4.5-5.7c1-2.3,1.3-3.7,0-5.3c-1.4-1.6-1.8-3-1.8-3s-1.9,2.9-3.2,3.5
	c-1.3,0.7-2.7,3-2,4.4C60.8,74.7,62.7,79.4,62.7,79.4z"></path><path class="st6" d="M68,63.6c0,0,2,0.9,4.5,1.2c2.4,0.3,3.7,0.3,4.7-0.9c1-1.2,1.6-2.5,2.3-3.9c0.7-1.4,0.8-2,1.3-2.1
	c0.6-0.1-0.7,0.5-3.4-0.2c-2.7-0.7-4-1.4-5.1-0.5c-1.1,0.9-1.1,2.5-2,3.8S68,63.6,68,63.6z"></path><path class="st2" d="M32.8,82.3c1.9-0.5,5.2-2.2,7.6-3.4"></path><path class="st2" d="M36.6,86.8c0.4-2.8,1.9-6.7,4-9"></path><path class="st2" d="M41.9,86.4c-2.1-2.6-4.4-4.6-2-7.3"></path><path class="st2" d="M44.5,73.3c1.6-3.7,4-7.4,6.5-9.3"></path><path class="st2" d="M40.6,67.5c4.1-0.7,10-3.3,11.3-3.8"></path><path class="st2" d="M49.6,71.1c-1.4-2.2-2.9-3.3,0.5-6.6"></path><path class="st6" d="M27.9,79.1c1.5-0.6,1.6-1.5,5,0.4c3.4,1.9,3.4,1.9,3.4,1.9s-0.5,0.7-1,1.4c-0.5,0.8-2.1,3.9-5.1,3.4
	s-4.6-1.1-5.1-1.4c-0.5-0.3-2.4-0.9-2.9-1.1"></path><path class="st8" d="M31.8,97.5c0.3-2.1-2.1-4.4-1-7.1s4.7-5,5.7-5.8s0.3-1.6,0.9,0.5c0.6,2.1,1.3,2.1,1.4,4.1c0,2-2.1,5.3-3.2,5.8
	C34.3,95.4,31.8,97.5,31.8,97.5z"></path><path class="st5" d="M39.4,83.6c0.1,0.6-0.2,1.3,0.5,4c0.6,2.7,1.5,4.8,3.7,4.7c2.2,0,2.4-0.8,4.1,0s1.7,0.8,1.7,0.8
	s-0.5-2.4-1.4-5.6s-4.6-3.9-6.1-4C40.4,83.5,39.4,83.6,39.4,83.6z"></path><path class="st9" d="M39,82.1c0,0,1.1-1.6,0.4-4.2c-0.6-2.6-0.1-5.7,2.6-6.4c2.7-0.7,4-1.9,4-1.9s-0.4,0,0.3,2.2
	c0.7,2.2,0,5.7-2,7.2C42.4,80.5,39,82.1,39,82.1z"></path><path class="st7" d="M31.7,67.6c0,0,4.1,2.5,6.6,2.9c2.5,0.4,3.9,0.4,5.2-1.3s2.4-2.5,2.4-2.5s-3.2-1.2-4.2-2.2
	c-1-1.1-3.6-1.8-4.7-0.8C35.8,64.6,31.7,67.6,31.7,67.6z"></path><path class="st10" d="M48.3,68.9c0,0-0.4,2.2-0.1,4.6c0.3,2.4,0.6,3.7,2.1,4.3s2.8,0.9,4.3,1.3c1.5,0.3,2.1,0.3,2.4,0.8
	s-0.7-0.6-0.7-3.3c0-2.8,0.4-4.2-0.7-5c-1.1-0.9-2.7-0.4-4.2-1S48.3,68.9,48.3,68.9z"></path><path class="st2" d="M22.3,41.4c0.6,1.9,2.4,5.1,3.7,7.4"></path><path class="st2" d="M18,45.4c2.8,0.2,6.8,1.5,9.2,3.5"></path><path class="st2" d="M18.7,50.7c2.5-2.3,4.3-4.6,7.2-2.3"></path><path class="st2" d="M31.9,52.6c3.8,1.4,7.6,3.7,9.6,6.1"></path><path class="st2" d="M37.5,48.4c0.9,4.1,3.8,9.8,4.4,11.1"></path><path class="st2" d="M34.4,57.6c2.1-1.5,3.1-3,6.6,0.2"></path><path class="st3" d="M25.3,36.3c0.7,1.5,1.6,1.5-0.1,5c-1.7,3.5-1.7,3.5-1.7,3.5s-0.7-0.4-1.5-0.9c-0.8-0.5-4-1.9-3.7-4.9
	s0.9-4.7,1.1-5.2c0.3-0.5,0.8-2.5,0.9-2.9"></path><path class="st4" d="M7.1,41.1c2.1,0.2,4.3-2.3,7-1.4c2.7,0.9,5.2,4.4,6.1,5.4c0.9,1,1.7,0.2-0.5,0.9s-2,1.5-4,1.6s-5.4-1.8-5.9-2.9
	C9.3,43.5,7.1,41.1,7.1,41.1z"></path><path class="st6" d="M21.4,48.1c-0.6,0.2-1.3-0.1-4,0.7s-4.7,1.7-4.6,3.9c0.2,2.2,0.9,2.4,0.2,4.1c-0.7,1.7-0.7,1.7-0.7,1.7
	s2.3-0.6,5.5-1.7c3.2-1.1,3.7-4.8,3.7-6.3C21.5,49,21.4,48.1,21.4,48.1z"></path><path class="st9" d="M22.9,47.6c0,0,1.7,1,4.2,0.2s5.7-0.4,6.5,2.3c0.8,2.7,2.1,3.9,2.1,3.9s-0.1-0.4-2.2,0.5
	c-2.1,0.8-5.7,0.3-7.3-1.6C24.6,50.9,22.9,47.6,22.9,47.6z"></path><path class="st7" d="M37,39.5c0,0-2.3,4.3-2.6,6.8c-0.3,2.5-0.2,3.9,1.6,5.1c1.8,1.2,2.6,2.3,2.6,2.3s1-3.3,2-4.3
	c1-1,1.7-3.7,0.6-4.8C40.2,43.5,37,39.5,37,39.5z"></path><path class="st10" d="M36.5,56.2c0,0-2.2-0.3-4.6,0.2s-3.7,0.8-4.2,2.3c-0.6,1.4-0.8,2.8-1,4.4c-0.2,1.5-0.1,2.1-0.6,2.4
	c-0.5,0.3,0.5-0.7,3.3-0.8s4.2,0.2,5-1s0.3-2.7,0.8-4.2C35.6,57.9,36.5,56.2,36.5,56.2z"></path><path class="st2" d="M53.8,89.6c1.1-1.7,2.4-5.1,3.4-7.6"></path><path class="st2" d="M59.7,90.3c-1.6-2.4-3.1-6.2-3.1-9.3"></path><path class="st2" d="M63.3,86.5c-3.3-0.5-6.3-0.4-6.4-4.1"></path><path class="st2" d="M56.4,75c-1.3-3.8-2-8.2-1.4-11.3"></path><path class="st2" d="M49.7,73.4c2.6-3.3,5.2-9.2,5.8-10.4"></path><path class="st2" d="M58.7,69.9c-2.5-0.7-4.3-0.5-4.1-5.3"></path><path class="st3" d="M48,90.4c0.7-1.5,0.2-2.2,4-3.1s3.8-0.9,3.8-0.9s0.1,0.8,0.2,1.7c0.1,0.9,1,4.3-1.5,5.9s-4.2,2.3-4.7,2.4
	c-0.6,0.1-2.4,1-2.9,1.2"></path><path class="st6" d="M63.2,101.5c-1.2-1.8-4.5-1.8-5.5-4.5s0.1-6.8,0.3-8.1c0.2-1.3-0.9-1.4,1-0.2s2.4,0.6,3.8,2.1
	c1.4,1.5,2,5.3,1.5,6.4C63.7,98.3,63.2,101.5,63.2,101.5z"></path><path class="st6" d="M59.6,86c0.5,0.3,0.8,1.1,3.1,2.7s4.3,2.6,5.9,1c1.6-1.5,1.3-2.2,3-2.8c1.8-0.5,1.8-0.5,1.8-0.5s-2-1.4-4.8-3.2
	s-6,0.2-7.2,1.1C60.2,85.4,59.6,86,59.6,86z"></path><path class="st6" d="M58.3,85.2c0,0-0.3-1.9-2.5-3.4c-2.2-1.5-3.9-4.2-2.3-6.5c1.5-2.3,1.7-4.1,1.7-4.1s-0.3,0.3,1.8,1.4
	c2,1.1,3.9,4.3,3.4,6.7C59.7,81.7,58.3,85.2,58.3,85.2z"></path><path class="st7" d="M43.1,79.4c0,0,4.7-1,6.9-2.3c2.1-1.3,3.2-2.3,2.9-4.5s0.1-3.5,0.1-3.5s-3.2,1.3-4.6,1.2
	c-1.4-0.1-3.9,1-4.1,2.6C44.1,74.4,43.1,79.4,43.1,79.4z"></path><path class="st6" d="M56.2,69.2c0,0,1.2,1.9,3.1,3.5c1.9,1.6,3,2.3,4.4,1.8c1.5-0.5,2.7-1.2,4.1-2s1.7-1.2,2.3-1
	c0.5,0.2-0.9,0-2.7-2c-1.9-2-2.5-3.4-3.9-3.2s-2.3,1.5-3.7,2.1S56.2,69.2,56.2,69.2z"></path><path class="st2" d="M70.8,22.1c-2,0.3-5.4,1.6-7.9,2.5"></path><path class="st2" d="M67.5,17.2c-0.7,2.8-2.6,6.5-4.9,8.5"></path><path class="st2" d="M62.2,17.1c1.9,2.8,3.9,5,1.2,7.5"></path><path class="st2" d="M58.2,29.9c-2,3.5-4.8,7-7.5,8.5"></path><path class="st2" d="M61.5,36c-4.2,0.2-10.3,2.2-11.6,2.6"></path><path class="st2" d="M52.9,31.5c1.1,2.3,2.5,3.5-1.2,6.5"></path><path class="st3" d="M75.3,25.8c-1.5,0.5-1.8,1.3-4.9-0.9c-3.2-2.2-3.2-2.2-3.2-2.2s0.5-0.6,1.1-1.3c0.6-0.7,2.5-3.6,5.4-2.9
	c2.9,0.8,4.5,1.6,4.9,1.9c0.5,0.3,2.3,1.1,2.8,1.4"></path><path class="st8" d="M73.4,7.1c-0.5,2,1.6,4.6,0.3,7.1s-5.2,4.5-6.3,5.2c-1.1,0.7-0.4,1.6-0.8-0.6s-1.1-2.2-0.9-4.2s2.7-5,3.8-5.4
	S73.4,7.1,73.4,7.1z"></path><path class="st4" d="M64.3,20.2c-0.1-0.6,0.3-1.3-0.1-4.1c-0.4-2.8-1-4.9-3.1-5.1c-2.2-0.2-2.5,0.6-4.1-0.4c-1.6-1-1.6-1-1.6-1
	s0.3,2.4,0.8,5.7c0.6,3.3,4.2,4.4,5.6,4.6C63.4,20.1,64.3,20.2,64.3,20.2z"></path><path class="st6" d="M64.6,21.7c0,0-1.2,1.5-0.9,4.1c0.4,2.6-0.5,5.7-3.3,6.1c-2.8,0.4-4.2,1.5-4.2,1.5s0.4,0-0.1-2.3s0.6-5.7,2.7-7
	C61,22.9,64.6,21.7,64.6,21.7z"></path><path class="st7" d="M70.3,36.9c0,0-3.9-2.9-6.3-3.6c-2.4-0.7-3.8-0.8-5.3,0.8c-1.4,1.6-2.7,2.2-2.7,2.2s3.1,1.5,3.9,2.6
	c0.8,1.2,3.4,2.2,4.6,1.3C65.9,39.5,70.3,36.9,70.3,36.9z"></path><path class="st10" d="M54,33.9c0,0,0.6-2.1,0.5-4.6s-0.3-3.7-1.6-4.5s-2.7-1.2-4.2-1.7c-1.5-0.5-2.1-0.5-2.3-1s0.6,0.6,0.3,3.4
	c-0.3,2.7-0.8,4.1,0.2,5.1s2.6,0.7,4,1.4S54,33.9,54,33.9z"></path><path class="st2" d="M31.9,23.4c-0.2,2,0.2,5.7,0.4,8.3"></path><path class="st2" d="M26.3,25.3c2.5,1.4,5.6,4.1,7,6.9"></path><path class="st2" d="M24.8,30.4c3.2-1.1,5.8-2.5,7.5,0.8"></path><path class="st2" d="M36.1,37.5c2.9,2.8,5.5,6.4,6.3,9.4"></path><path class="st2" d="M42.9,35.9c-0.9,4.1-0.5,10.6-0.5,11.9"></path><path class="st2" d="M36.4,43.1c2.5-0.5,4.1-1.5,6,2.9"></path><path class="st3" d="M36.6,20c0.1,1.6,0.8,2-2.1,4.5s-3,2.5-3,2.5s-0.5-0.7-1-1.4c-0.5-0.8-2.9-3.4-1.4-5.9c1.5-2.6,2.7-3.9,3.1-4.3
	c0.5-0.4,1.7-1.9,2-2.3"></path><path class="st6" d="M18.1,17c1.8,1,4.8-0.4,7,1.5s3,6.1,3.4,7.4s1.4,0.8-0.8,0.6c-2.2-0.2-2.4,0.5-4.3-0.2
	c-1.9-0.7-4.2-3.9-4.2-5.1C19.1,20.1,18.1,17,18.1,17z"></path><path class="st4" d="M28.4,29.1c-0.6-0.1-1.2-0.6-3.9-1s-5-0.3-5.7,1.7s-0.1,2.6-1.5,3.8s-1.4,1.3-1.4,1.3s2.4,0.4,5.7,0.7
	s5.3-2.9,5.9-4.3C28,30,28.4,29.1,28.4,29.1z"></path><path class="st9" d="M29.9,29.3c0,0,1.1,1.6,3.7,1.9c2.6,0.3,5.4,2,5,4.7s0.4,4.4,0.4,4.4s0.1-0.4-2.2-0.5c-2.3-0.1-5.4-2-6-4.4
	C30.1,33,29.9,29.3,29.9,29.3z"></path><path class="st7" d="M46.1,27.6c0,0-3.8,3-5.1,5.2c-1.3,2.2-1.8,3.5-0.6,5.3s1.5,3.2,1.5,3.2s2.2-2.6,3.6-3.1c1.3-0.5,3-2.7,2.5-4.1
	C47.4,32.5,46.1,27.6,46.1,27.6z"></path><path class="st6" d="M38.9,42.6c0,0-1.9-1.1-4.3-1.7c-2.4-0.6-3.7-0.7-4.8,0.4c-1.1,1.1-1.9,2.3-2.7,3.6c-0.8,1.3-1,1.9-1.6,1.9
	s0.8-0.4,3.3,0.6s3.8,1.9,5,1.1s1.4-2.3,2.4-3.5C37.4,43.8,38.9,42.6,38.9,42.6z"></path><path class="st2" d="M52.5,18.3c-1.4,1.4-3.5,4.4-5,6.6"></path><path class="st2" d="M47,16.1c1,2.7,1.6,6.8,0.9,9.8"></path><path class="st2" d="M42.5,19c3.1,1.2,6,1.9,5.3,5.5"></path><path class="st2" d="M46.6,31.8c0.4,4,0,8.5-1.3,11.3"></path><path class="st2" d="M52.8,34.9c-3.3,2.6-7.2,7.8-8,8.8"></path><path class="st2" d="M43.2,36.2c2.3,1.3,4.1,1.5,2.7,6.1"></path><path class="st3" d="M58.3,18.7c-1,1.3-0.7,2.1-4.6,2.1c-3.9,0-3.9,0-3.9,0s0.1-0.8,0.2-1.7c0.1-0.9,0-4.4,2.8-5.4s4.6-1.2,5.2-1.2
	c0.6,0,2.5-0.4,3.1-0.5"></path><path class="st6" d="M46.1,4.5c0.7,2,3.9,2.8,4.3,5.7c0.4,2.9-1.7,6.6-2.1,7.8c-0.5,1.2,0.6,1.6-1,0s-2.2-1.2-3.2-2.9
	c-1-1.7-0.7-5.7,0.1-6.6C44.9,7.5,46.1,4.5,46.1,4.5z"></path><path class="st4" d="M46.1,20.4c-0.4-0.4-0.5-1.2-2.4-3.3s-3.6-3.5-5.5-2.4c-1.9,1.1-1.7,1.9-3.6,2c-1.8,0.1-1.8,0.1-1.8,0.1
	s1.6,1.8,3.9,4.2s5.9,1.2,7.2,0.5C45.3,20.8,46.1,20.4,46.1,20.4z"></path><path class="st6" d="M47.1,21.4c0,0-0.2,1.9,1.6,3.9c1.8,1.9,2.8,5,0.8,6.9S47,35.8,47,35.8s0.3-0.2-1.4-1.8c-1.7-1.6-2.8-5-1.7-7.3
	S47.1,21.4,47.1,21.4z"></path><path class="st7" d="M60.6,30.6c0,0-4.8-0.2-7.2,0.7c-2.4,0.8-3.6,1.5-3.9,3.7c-0.3,2.1-0.9,3.4-0.9,3.4s3.4-0.5,4.7-0.1
	c1.3,0.5,4-0.1,4.6-1.6C58.4,35.2,60.6,30.6,60.6,30.6z"></path><path class="st6" d="M45.4,37.5c0,0-0.7-2.1-2.2-4.1c-1.4-2-2.3-2.9-3.9-2.8c-1.5,0.1-2.9,0.5-4.4,1c-1.5,0.5-2,0.8-2.4,0.5
	c-0.5-0.3,0.8,0.2,2.2,2.6s1.7,3.8,3.1,4.1s2.6-0.9,4.1-1.1C43.4,37.4,45.4,37.5,45.4,37.5z"></path><path class="st2" d="M22.3,63.8c1.9,0.7,5.5,1.4,8,1.9"></path><path class="st2" d="M22.6,69.7c2-2,5.6-4.2,8.6-4.7"></path><path class="st2" d="M27,72.6c-0.1-3.3-0.7-6.3,2.9-7"></path><path class="st2" d="M37,63.7c3.5-2,7.7-3.4,10.8-3.4"></path><path class="st2" d="M37.4,56.8c3.7,2,10,3.5,11.2,3.8"></path><path class="st2" d="M42.5,65.1c0.3-2.6-0.3-4.3,4.4-4.9"></path><path class="st6" d="M20.4,58.2c1.6,0.4,2.2-0.2,3.7,3.3c1.5,3.6,1.5,3.6,1.5,3.6s-0.8,0.2-1.7,0.5s-4.1,1.8-6.1-0.4
	c-2-2.2-3-3.7-3.2-4.2c-0.2-0.5-1.4-2.2-1.6-2.6"></path><path class="st6" d="M12.2,75.2c1.5-1.5,1-4.7,3.5-6.2s6.7-1.1,8-1.2c1.3,0,1.2-1.1,0.4,0.9c-0.8,2.1-0.2,2.5-1.4,4.1
	c-1.2,1.6-4.9,2.9-6.1,2.6S12.2,75.2,12.2,75.2z"></path><path class="st4" d="M26.8,68.8c-0.2,0.5-0.9,0.9-2.1,3.5s-1.7,4.7,0,6c1.8,1.3,2.4,0.8,3.3,2.5c0.8,1.7,0.8,1.7,0.8,1.7
	s1-2.2,2.3-5.3c1.2-3.1-1.3-5.9-2.4-6.9S26.8,68.8,26.8,68.8z"></path><path class="st9" d="M27.4,67.4c0,0,1.8-0.6,2.9-3c1.1-2.4,3.4-4.6,6-3.5c2.6,1.1,4.4,0.9,4.4,0.9s-0.3-0.2-1.1,2
	c-0.7,2.2-3.5,4.6-6,4.5S27.4,67.4,27.4,67.4z"></path><path class="st7" d="M30.4,51.4c0,0,1.8,4.5,3.5,6.4c1.7,1.9,2.9,2.7,4.9,2.1c2-0.6,3.5-0.5,3.5-0.5s-1.9-2.9-2-4.3
	c-0.1-1.4-1.7-3.6-3.3-3.6C35.4,51.5,30.4,51.4,30.4,51.4z"></path><path class="st10" d="M42.7,62.5c0,0-1.6,1.5-2.8,3.6c-1.2,2.1-1.7,3.3-1,4.7c0.7,1.4,1.7,2.5,2.7,3.6c1,1.2,1.5,1.5,1.4,2
	c-0.1,0.6-0.2-0.8,1.5-3c1.7-2.2,2.8-3.1,2.5-4.5c-0.4-1.4-1.9-2-2.7-3.3C43.4,64.3,42.7,62.5,42.7,62.5z"></path><path class="st2" d="M85.9,36.5c-1.9-0.5-5.6-0.7-8.2-0.8"></path><path class="st2" d="M84.9,30.7c-1.7,2.3-5,4.9-7.9,5.8"></path><path class="st2" d="M80.1,28.4c0.6,3.3,1.5,6.1-1.9,7.3"></path><path class="st2" d="M71.3,38.5c-3.2,2.4-7.2,4.5-10.3,4.8"></path><path class="st2" d="M71.8,45.5c-3.9-1.5-10.4-2.1-11.7-2.3"></path><path class="st2" d="M65.7,37.9c0.1,2.6,0.9,4.3-3.7,5.5"></path><path class="st6" d="M88.6,41.7c-1.6-0.2-2.1,0.5-4.2-2.8c-2-3.3-2-3.3-2-3.3s0.7-0.3,1.6-0.8s3.8-2.3,6.1-0.5
	c2.3,1.9,3.4,3.3,3.8,3.8c0.3,0.5,1.7,2,2,2.4"></path><path class="st8" d="M94.4,23.8c-1.3,1.7-0.4,4.8-2.6,6.6c-2.2,1.8-6.5,2-7.8,2.3c-1.3,0.2-1.1,1.3-0.5-0.9c0.6-2.2-0.1-2.5,0.8-4.2
	c1-1.7,4.5-3.5,5.7-3.4C91.1,24.4,94.4,23.8,94.4,23.8z"></path><path class="st4" d="M80.8,32.1c0.2-0.6,0.8-1.1,1.6-3.7s1.1-4.9-0.8-5.9c-1.9-1-2.5-0.5-3.6-2c-1-1.5-1-1.5-1-1.5s-0.7,2.3-1.5,5.6
	c-0.8,3.3,2,5.7,3.3,6.5C80,31.7,80.8,32.1,80.8,32.1z"></path><path class="st9" d="M80.4,33.6c0,0-1.7,0.9-2.4,3.4s-2.8,5-5.5,4.2s-4.4-0.3-4.4-0.3s0.4,0.2,0.8-2.1c0.4-2.3,2.8-5,5.3-5.3
	C76.7,33.3,80.4,33.6,80.4,33.6z"></path><path class="st7" d="M79.6,49.9c0,0-2.4-4.2-4.3-5.8c-1.9-1.6-3.2-2.3-5.1-1.4s-3.3,1-3.3,1s2.2,2.6,2.5,4c0.3,1.4,2.2,3.4,3.7,3.1
	C74.5,50.4,79.6,49.9,79.6,49.9z"></path><path class="st6" d="M65.8,40.5c0,0,1.4-1.7,2.3-4c0.9-2.3,1.3-3.5,0.4-4.8c-0.9-1.2-2-2.2-3.1-3.2c-1.2-1-1.7-1.3-1.7-1.8
	c0-0.6,0.3,0.8-1.1,3.2c-1.4,2.4-2.4,3.4-1.9,4.7c0.5,1.3,2.1,1.7,3.1,2.9C64.9,38.8,65.8,40.5,65.8,40.5z"></path><path class="st2" d="M87.3,57.1c-1.3-1.5-4.2-3.7-6.3-5.3"></path><path class="st2" d="M89.7,51.7c-2.7,0.9-6.9,1.2-9.8,0.3"></path><path class="st2" d="M87,47.1c-1.4,3.1-2.2,5.9-5.7,5"></path><path class="st2" d="M74.1,50.5c-4,0.2-8.5-0.4-11.2-1.8"></path><path class="st2" d="M70.6,56.5c-2.4-3.4-7.4-7.6-8.3-8.5"></path><path class="st2" d="M69.8,46.9c-1.4,2.2-1.7,4-6.2,2.4"></path><path class="st3" d="M86.5,62.9c-1.2-1.1-2.1-0.8-1.8-4.7s0.2-3.9,0.2-3.9s0.8,0.1,1.7,0.3c0.9,0.1,4.4,0.2,5.3,3.1
	c0.8,2.8,1,4.6,1,5.2c0,0.6,0.3,2.6,0.3,3.1"></path><path class="st6" d="M101.4,51.4c-2,0.6-3,3.8-5.9,4c-2.9,0.3-6.5-2-7.7-2.6c-1.2-0.5-1.6,0.5,0.1-1c1.7-1.5,1.3-2.1,3.1-3
	s5.7-0.4,6.6,0.4S101.4,51.4,101.4,51.4z"></path><path class="st6" d="M85.5,50.6c0.4-0.4,1.2-0.4,3.4-2.2c2.2-1.8,3.7-3.4,2.7-5.4c-1-2-1.8-1.8-1.8-3.7c0-1.8,0-1.8,0-1.8
	s-1.9,1.5-4.4,3.7c-2.5,2.2-1.5,5.8-0.9,7.2C85.1,49.8,85.5,50.6,85.5,50.6z"></path><path class="st6" d="M84.4,51.6c0,0-1.9-0.3-3.9,1.4c-2,1.7-5.1,2.6-6.9,0.4c-1.8-2.1-3.5-2.7-3.5-2.7s0.2,0.3,1.9-1.3
	c1.6-1.6,5.2-2.5,7.3-1.4C81.4,49.2,84.4,51.6,84.4,51.6z"></path><path class="st7" d="M74.5,64.5c0,0,0.4-4.8-0.3-7.2s-1.4-3.7-3.4-4.1c-2.1-0.4-3.3-1.1-3.3-1.1s0.4,3.4-0.2,4.7s-0.1,4,1.3,4.6
	C70,62.2,74.5,64.5,74.5,64.5z"></path><path class="st6" d="M68.4,49c0,0,2.1-0.6,4.2-2c2-1.3,3-2.2,3-3.7s-0.4-2.9-0.8-4.4s-0.7-2-0.3-2.5c0.3-0.5-0.2,0.8-2.7,2
	c-2.5,1.2-3.9,1.5-4.2,2.9c-0.3,1.4,0.8,2.6,0.9,4.2C68.6,47.1,68.4,49,68.4,49z"></path><path class="st11" d="M53.9,61.2c-0.1-2-0.8-5.6-1.4-8.2"></path><path class="st11" d="M59.2,58.6c-2.6-1.1-6-3.5-7.7-6.1"></path><path class="st11" d="M60.2,53.4c-3,1.5-5.5,3.1-7.6,0.1"></path><path class="st11" d="M48,47.7c-3.2-2.5-6.2-5.7-7.4-8.6"></path><path class="st11" d="M41.5,50.1c0.4-4.2-0.8-10.5-0.9-11.8"></path><path class="st11" d="M47.1,42.2c-2.5,0.8-3.9,2-6.3-2.1"></path><path class="st6" d="M49.6,65.2c-0.3-1.6-1.1-1.9,1.6-4.8s2.7-2.8,2.7-2.8s0.5,0.6,1.2,1.3s3.3,3,2.1,5.7c-1.2,2.7-2.2,4.2-2.6,4.6
	c-0.4,0.4-1.5,2.1-1.7,2.5"></path><path class="st11" d="M68.4,66c-1.9-0.8-4.7,0.9-7.1-0.7c-2.4-1.7-3.7-5.7-4.3-6.9c-0.6-1.2-1.5-0.7,0.7-0.7s2.4-0.8,4.3-0.3
	c1.9,0.5,4.6,3.3,4.8,4.5C67,63,68.4,66,68.4,66z"></path><path class="st11" d="M56.8,55.1c0.6,0,1.2,0.5,4,0.5c2.8,0,5-0.3,5.5-2.4c0.5-2.1-0.2-2.6,1-4s1.2-1.4,1.2-1.4s-2.4-0.1-5.8,0
	c-3.4,0.1-4.9,3.5-5.3,4.9C57,54.2,56.8,55.1,56.8,55.1z"></path><path class="st11" d="M55.2,55.1c0,0-1.3-1.4-3.9-1.4c-2.6,0-5.5-1.3-5.5-4.1c0-2.8-0.9-4.3-0.9-4.3s-0.1,0.4,2.2,0.2
	c2.3-0.2,5.6,1.4,6.5,3.7S55.2,55.1,55.2,55.1z"></path><path class="st11" d="M39.3,58.7c0,0,3.4-3.4,4.5-5.7c1-2.3,1.3-3.7,0-5.3c-1.4-1.6-1.8-3-1.8-3s-1.9,2.9-3.2,3.5
	c-1.3,0.7-2.7,3-2,4.4C37.4,54,39.3,58.7,39.3,58.7z"></path><path class="st11" d="M44.7,42.9c0,0,2,0.9,4.5,1.2c2.4,0.3,3.7,0.3,4.7-0.9c1-1.2,1.6-2.5,2.3-3.9s0.8-2,1.3-2.1s-0.7,0.5-3.4-0.2
	c-2.7-0.7-4-1.4-5.1-0.5s-1.1,2.5-2,3.8C46.1,41.6,44.7,42.9,44.7,42.9z"></path><path class="st12" d="M31.1,92.3c0.2-1.2,2.6-10.4,3.6-12c1-1.6,3.4-2.1,4.8-2.6c-1.6,0.9-3.2,2.2-3.6,3.3c-0.6,2-2.7,9.5-2.9,10.7
	c-0.2,1.3-0.8,4.9-1.3,5.4c-0.4,0.5-1.1,1.4-0.6,2.2c0.1,0.1,0.1,0.4,0.2,0.7c-0.5-0.2-0.9-0.5-1.2-0.8
	C29.1,98.1,30.9,93.6,31.1,92.3z"></path><path class="st13" d="M33.6,99c1.1-1.1,4.5-5.6,5.3-7.8s2.5-12,1.4-13c0,0-0.1-0.2-0.4-0.4C41.1,77.6,42,79,42,79
	c1.1,1-0.6,10.9-1.4,13s-4.3,6.6-5.3,7.8c-0.8,0.8-2.6,0.9-3.9,0.3c0-0.2,0-0.4-0.1-0.5C32.2,99.7,33.1,99.5,33.6,99z"></path><path class="st14" d="M31.8,97.3c0.4-0.5,1.1-4.2,1.3-5.4c0.2-1.3,2.3-8.8,2.9-10.7c0.3-1.1,2-2.4,3.6-3.3c0,0,0,0,0.1,0
	c0.1,0,0.2-0.1,0.4-0.1c0.2,0.2,0.4,0.4,0.4,0.4c1.1,1-0.6,10.9-1.4,13s-4.3,6.6-5.3,7.8c-0.5,0.5-1.4,0.7-2.3,0.7
	c0-0.1,0-0.1-0.1-0.2C30.7,98.7,31.4,97.8,31.8,97.3z"></path><path class="st15" d="M34.4,98c0,0-2-0.6-2.1,0.4C32.3,99.3,36.7,99.3,34.4,98z"></path><path class="st12" d="M33.2,87.1c0.9-1,6.7-9,7.2-10.9c0.5-1.8-0.9-3.9-1.7-5.2c0.5,1.8,0.7,3.9,0.1,4.9c-1.2,1.8-5.8,8.5-6.7,9.5
	c-0.9,1-3.4,4-3.5,4.7c-0.1,0.7-0.3,1.8-1.4,1.9c-0.2,0-0.4,0.2-0.7,0.4c0.6,0.2,1.1,0.3,1.7,0.3C30,92.5,32.3,88.1,33.2,87.1z"></path><path class="st13" d="M25.6,89.9c0.1-1.5,1.1-7.2,2.2-9.2c1.2-2.1,8.1-10.1,9.9-10c0,0,0.3,0,0.7,0c-0.9-0.9-2.8-0.6-2.8-0.6
	c-1.8-0.1-8.7,8-9.9,10c-1.2,2.1-2.1,7.7-2.2,9.2c-0.1,1.1,1.4,2.5,2.9,3.1c0.2-0.1,0.3-0.2,0.5-0.3C26.1,91.4,25.6,90.6,25.6,89.9z
	"></path><path class="st14" d="M28.4,90c0.1-0.7,2.6-3.7,3.5-4.7c0.9-1,5.6-7.7,6.7-9.5c0.7-1,0.4-3.1-0.1-4.9c0,0,0,0,0,0
	c-0.1-0.1-0.2-0.2-0.2-0.3c-0.4,0-0.7,0-0.7,0c-1.8-0.1-8.7,8-9.9,10c-1.2,2.1-2.1,7.7-2.2,9.2c0,0.7,0.5,1.5,1.3,2.1
	c0.1,0,0.2-0.1,0.2-0.1C28.2,91.8,28.3,90.7,28.4,90z"></path><path class="st15" d="M25.8,88.6c0,0,2.1,1,1.4,1.7S22.8,87.9,25.8,88.6z"></path><path class="st12" d="M40.6,90.1c-0.1-1.3-0.4-11.2,0.3-13c0.6-1.8,3-2.7,4.4-3.3c-1.4,1.2-2.8,2.8-2.8,4
	c-0.1,2.1-0.1,10.3,0.1,11.6c0.2,1.3,0.6,5.2,0.3,5.8c-0.3,0.6-0.8,1.6,0,2.4c0.1,0.1,0.3,0.4,0.4,0.7c-0.6-0.1-1.1-0.4-1.6-0.7
	C40.1,96.4,40.7,91.4,40.6,90.1z"></path><path class="st13" d="M45.2,96.7c0.8-1.3,3.2-6.5,3.4-8.9S47.7,74.9,46.2,74c0,0-0.2-0.2-0.5-0.4c1.3-0.3,2.6,1,2.6,1
	c1.5,0.9,2.7,11.5,2.4,13.9c-0.2,2.4-2.6,7.5-3.4,8.9c-0.6,1-2.5,1.3-4.1,0.9c-0.1-0.2-0.2-0.4-0.2-0.5C44,97.7,44.8,97.3,45.2,96.7
	z"></path><path class="st14" d="M42.8,95.2c0.3-0.6-0.1-4.5-0.3-5.8c-0.2-1.3-0.2-9.5-0.1-11.6c0-1.2,1.4-2.8,2.8-4c0,0,0,0,0.1,0
	c0.1-0.1,0.2-0.1,0.4-0.1c0.3,0.2,0.5,0.4,0.5,0.4c1.5,0.9,2.7,11.5,2.4,13.9s-2.6,7.5-3.4,8.9c-0.4,0.6-1.2,0.9-2.2,1
	c0-0.1-0.1-0.1-0.1-0.2C42.1,96.8,42.5,95.8,42.8,95.2z"></path><path class="st15" d="M45.8,95.5c0,0-2.3-0.4-2.1,0.7C43.9,97.2,48.7,96.6,45.8,95.5z"></path><path class="st12" d="M81.1,84.7c-1.1-0.6-9.2-5.4-10.4-6.9c-1.2-1.4-1.1-3.8-1.1-5.3c0.4,1.8,1.2,3.7,2.2,4.4
	c1.7,1.1,8.3,5.3,9.5,5.8c1.2,0.5,4.4,2.2,4.8,2.7c0.4,0.6,1,1.4,1.9,1.2c0.2,0,0.4,0,0.7,0c-0.3,0.4-0.7,0.8-1.1,0.9
	C86,88.3,82.2,85.2,81.1,84.7z"></path><path class="st13" d="M88.2,84.2c-0.8-1.3-4.1-6-5.9-7.3c-1.8-1.4-10.8-5.8-12.1-5c0,0-0.2,0.1-0.5,0.2c0.3-1.2,1.8-1.6,1.8-1.6
	c1.3-0.8,10.3,3.7,12.1,5c1.8,1.4,5.2,6,5.9,7.3c0.6,1,0.1,2.7-0.8,3.9c-0.2,0-0.4-0.1-0.5-0.1C88.5,85.7,88.5,84.8,88.2,84.2z"></path><path class="st14" d="M86,85.4c-0.4-0.6-3.7-2.2-4.8-2.7c-1.2-0.5-7.8-4.7-9.5-5.8c-1-0.6-1.8-2.6-2.2-4.4c0,0,0,0,0-0.1
	c0-0.1,0-0.3,0-0.4c0.3-0.1,0.5-0.2,0.5-0.2c1.3-0.8,10.3,3.7,12.1,5c1.8,1.4,5.2,6,5.9,7.3c0.4,0.6,0.3,1.5,0,2.4
	c-0.1,0-0.1,0-0.2,0C87.1,86.9,86.4,86,86,85.4z"></path><path class="st15" d="M87.4,83.1c0,0-1.2,1.7-0.2,2.1C88.1,85.6,89.4,81.3,87.4,83.1z"></path><path class="st12" d="M76.6,81.2c-0.7-1.1-6.8-9-8.4-10c-1.6-1-4-0.2-5.5,0.2c1.9,0,3.9,0.4,4.7,1.3c1.4,1.6,6.5,8,7.2,9.2
	c0.7,1.2,2.8,4.4,3.5,4.7c0.6,0.3,1.6,0.8,1.5,1.9c0,0.2,0,0.5,0.1,0.8c0.4-0.5,0.7-1,0.8-1.5C81,85.8,77.4,82.3,76.6,81.2z"></path><path class="st13" d="M77.2,89.3c-1.5-0.5-6.6-3.1-8.2-4.8c-1.7-1.7-7.4-10.6-6.8-12.3c0,0,0-0.3,0.1-0.6c-1.2,0.6-1.4,2.5-1.4,2.5
	c-0.6,1.7,5.2,10.6,6.8,12.3c1.7,1.7,6.8,4.2,8.2,4.8c1.1,0.4,2.7-0.6,3.8-1.9c-0.1-0.2-0.1-0.4-0.1-0.5
	C78.8,89.2,77.9,89.5,77.2,89.3z"></path><path class="st14" d="M78.1,86.6c-0.6-0.3-2.8-3.5-3.5-4.7c-0.7-1.2-5.8-7.5-7.2-9.2c-0.8-0.9-2.8-1.3-4.7-1.3c0,0,0,0-0.1,0
	c-0.1,0-0.2,0.1-0.4,0.1c-0.1,0.4-0.1,0.6-0.1,0.6c-0.6,1.7,5.2,10.6,6.8,12.3c1.7,1.7,6.8,4.2,8.2,4.8c0.7,0.2,1.6,0,2.4-0.6
	c0-0.1,0-0.2,0-0.2C79.7,87.4,78.7,86.9,78.1,86.6z"></path><path class="st15" d="M76,88.7c0,0,1.5-1.8,2.1-0.8S74.5,91.4,76,88.7z"></path><path class="st12" d="M81.6,75c-1.3-0.2-10.9-2.8-12.4-4c-1.5-1.1-1.7-3.6-2-5.1c0.7,1.7,1.9,3.5,3,3.9c2,0.7,9.9,3,11.2,3.2
	c1.3,0.2,5.2,0.9,5.7,1.4c0.5,0.5,1.3,1.2,2.3,0.7c0.2-0.1,0.4-0.1,0.8-0.2c-0.3,0.5-0.7,1-1.1,1.3C87.5,77.2,82.9,75.2,81.6,75z"></path><path class="st13" d="M89.3,72.4c-1-1.1-5.3-4.9-7.5-5.8c-2.2-0.9-12.6-2.8-14-1.6c0,0-0.2,0.1-0.5,0.4c0.1-1.3,1.7-2.2,1.7-2.2
	c1.3-1.2,11.8,0.7,14,1.6c2.2,0.9,6.5,4.7,7.5,5.8c0.8,0.8,0.5,2.8-0.3,4.2c-0.2,0-0.4,0-0.5,0.1C89.8,73.9,89.8,72.9,89.3,72.4z"></path><path class="st14" d="M87.1,74.3c-0.5-0.5-4.3-1.2-5.7-1.4c-1.3-0.2-9.2-2.5-11.2-3.2c-1.1-0.4-2.3-2.1-3-3.9c0,0,0,0,0-0.1
	c0-0.1,0-0.3,0-0.4c0.3-0.2,0.5-0.4,0.5-0.4c1.3-1.2,11.8,0.7,14,1.6c2.2,0.9,6.5,4.7,7.5,5.8c0.5,0.5,0.5,1.5,0.3,2.4
	c-0.1,0-0.2,0-0.2,0.1C88.5,75.5,87.6,74.7,87.1,74.3z"></path><path class="st15" d="M88.3,71.5c0,0-1,2.1,0,2.2C89.4,73.8,90.2,69.1,88.3,71.5z"></path><path class="st12" d="M57.8,16.2c0.2,0.7,1.2,5.7,0.8,6.7c-0.4,1-2.4,1.7-3.6,2.2c1.2-0.8,2.2-1.7,2.2-2.4c-0.1-1.1-0.8-5.3-1-5.9
	c-0.3-0.7-0.9-2.6-0.7-3c0.2-0.4,0.5-0.9-0.2-1.2c-0.1-0.1-0.3-0.2-0.4-0.3c0.5,0,1,0.1,1.4,0.2C57.7,12.9,57.6,15.5,57.8,16.2z"></path><path class="st13" d="M53.2,13.3c-0.6,0.8-2.3,3.7-2.3,4.9c0,1.2,1.8,6.5,3.2,6.8c0,0,0.2,0.1,0.5,0.2c-1.1,0.3-2.4-0.2-2.4-0.2
	c-1.4-0.3-3.2-5.6-3.2-6.8c0-1.2,1.7-4.1,2.3-4.9c0.4-0.6,2.1-0.9,3.6-0.9c0.1,0.1,0.2,0.2,0.3,0.2C54.2,12.6,53.5,12.9,53.2,13.3z"></path><path class="st14" d="M55.4,13.8c-0.2,0.4,0.4,2.3,0.7,3c0.3,0.7,0.9,4.8,1,5.9c0.1,0.6-1,1.6-2.2,2.4c0,0,0,0,0,0
	c-0.1,0-0.2,0.1-0.3,0.1c-0.3-0.1-0.5-0.2-0.5-0.2c-1.4-0.3-3.2-5.6-3.2-6.8c0-1.2,1.7-4.1,2.3-4.9c0.3-0.3,1-0.6,1.9-0.8
	c0,0,0.1,0.1,0.1,0.1C56,12.9,55.6,13.4,55.4,13.8z"></path><path class="st15" d="M52.7,13.9c0,0,2.1,0,1.8-0.6C54.3,12.8,50.1,13.7,52.7,13.9z"></path><path class="st12" d="M57.7,19.2c-0.5,0.7-3.1,5.8-2.9,6.8c0.2,1,2.2,1.8,3.4,2.3c-1.1-0.8-2-1.8-1.8-2.5c0.5-1.1,2.5-5.4,3-6
	c0.5-0.7,1.8-2.6,1.7-3c-0.1-0.4-0.3-0.9,0.6-1.2c0.2-0.1,0.3-0.2,0.5-0.3c-0.6,0-1.2,0-1.7,0.1C58.8,15.8,58.1,18.5,57.7,19.2z"></path><path class="st13" d="M63.8,16.3c0.4,0.8,1.5,3.8,1.1,5.1c-0.4,1.3-4,6.6-5.8,6.9c0,0-0.2,0.1-0.6,0.1c1.2,0.3,2.8-0.2,2.8-0.2
	c1.7-0.3,5.4-5.6,5.8-6.9c0.4-1.3-0.7-4.3-1.1-5.1c-0.3-0.6-2.1-1-3.8-1c-0.1,0.1-0.2,0.2-0.4,0.2C62.8,15.7,63.6,16,63.8,16.3z"></path><path class="st14" d="M61.1,16.8c0.1,0.4-1.2,2.3-1.7,3c-0.5,0.7-2.5,4.9-3,6c-0.3,0.6,0.7,1.6,1.8,2.5c0,0,0,0,0,0
	c0.1,0,0.2,0.1,0.3,0.1c0.4-0.1,0.6-0.1,0.6-0.1c1.7-0.3,5.4-5.6,5.8-6.9c0.4-1.3-0.7-4.3-1.1-5.1c-0.2-0.4-1-0.7-1.9-0.8
	c-0.1,0-0.1,0.1-0.2,0.1C60.8,15.9,61,16.5,61.1,16.8z"></path><path class="st15" d="M64.1,17.1c0,0-2.3-0.1-1.9-0.6C62.7,15.9,67.2,16.8,64.1,17.1z"></path><path class="st12" d="M49.7,19.1c0.6,0.6,4.2,5.6,4.3,6.6c0,1-1.9,1.9-2.9,2.5c0.9-0.9,1.7-1.9,1.3-2.5c-0.7-1.1-3.5-5.2-4.2-5.8
	c-0.6-0.6-2.4-2.5-2.3-2.9c0.1-0.4,0.2-0.9-0.8-1.2c-0.2,0-0.4-0.1-0.6-0.3c0.6,0,1.2,0,1.7,0.1C47.9,15.8,49.1,18.4,49.7,19.1z"></path><path class="st13" d="M43.1,16.6c-0.3,0.8-0.7,3.9-0.1,5.1c0.6,1.2,5.3,6.3,7.1,6.5c0,0,0.3,0.1,0.6,0.1c-1.1,0.4-2.8,0-2.8,0
	c-1.8-0.2-6.5-5.3-7.1-6.5c-0.6-1.2-0.2-4.3,0.1-5.1c0.2-0.6,1.9-1.1,3.5-1.2c0.1,0.1,0.3,0.2,0.4,0.2
	C43.9,15.9,43.2,16.2,43.1,16.6z"></path><path class="st14" d="M45.8,16.9c-0.1,0.4,1.6,2.3,2.3,2.9c0.6,0.6,3.5,4.8,4.2,5.8c0.4,0.6-0.3,1.7-1.3,2.5c0,0,0,0,0,0
	c-0.1,0.1-0.2,0.1-0.3,0.1c-0.4-0.1-0.6-0.1-0.6-0.1c-1.8-0.2-6.5-5.3-7.1-6.5c-0.6-1.2-0.2-4.3,0.1-5.1c0.1-0.4,0.8-0.7,1.7-0.9
	c0.1,0,0.1,0.1,0.2,0.1C46,16,45.9,16.5,45.8,16.9z"></path><path class="st15" d="M42.9,17.3c0,0,2.3-0.2,1.7-0.7S39.8,17.3,42.9,17.3z"></path><path class="st12" d="M16.6,23.2c1.2,0.4,9.7,4.4,11.1,5.8c1.3,1.3,1.5,3.7,1.6,5.2c-0.6-1.8-1.6-3.6-2.6-4.1c-1.8-1-8.8-4.4-10-4.8
	c-1.2-0.4-4.6-1.7-5.1-2.2c-0.4-0.5-1.2-1.3-2-1C9.4,22,9.1,22,8.8,22c0.3-0.5,0.6-0.8,1-1.1C11.3,20.1,15.4,22.8,16.6,23.2z"></path><path class="st13" d="M9.6,24.3c0.9,1.3,4.7,5.5,6.6,6.7s11.3,4.7,12.6,3.8c0,0,0.2-0.1,0.5-0.3c-0.1,1.2-1.6,1.8-1.6,1.8
	c-1.2,0.9-10.6-2.6-12.6-3.8s-5.7-5.4-6.6-6.7C7.8,25,8.1,23.2,8.8,22c0.2,0,0.4,0,0.5,0C9.1,22.9,9.2,23.8,9.6,24.3z"></path><path class="st14" d="M11.5,23c0.4,0.5,3.9,1.8,5.1,2.2c1.2,0.4,8.2,3.9,10,4.8c1,0.5,2,2.4,2.6,4.1c0,0,0,0,0,0.1
	c0,0.1,0,0.3,0,0.4c-0.3,0.2-0.5,0.3-0.5,0.3c-1.2,0.9-10.6-2.6-12.6-3.8s-5.7-5.4-6.6-6.7c-0.4-0.6-0.5-1.5-0.2-2.4
	c0.1,0,0.1,0,0.2,0C10.4,21.6,11.1,22.4,11.5,23z"></path><path class="st15" d="M10.4,25.4c0,0,1-1.8,0-2.1S8.6,27.4,10.4,25.4z"></path><path class="st12" d="M21.3,26.2c0.8,1,7.6,8.2,9.4,9.1c1.7,0.8,4-0.2,5.5-0.7c-1.9,0.2-3.9,0-4.8-0.8c-1.5-1.5-7.3-7.3-8.1-8.4
	c-0.8-1.1-3.3-4.1-3.9-4.3c-0.7-0.2-1.7-0.6-1.7-1.7c0-0.2-0.1-0.5-0.2-0.8c-0.3,0.5-0.6,1.1-0.6,1.6C16.6,22,20.5,25.2,21.3,26.2z"></path><path class="st13" d="M19.9,18.2c1.5,0.4,6.8,2.4,8.7,3.9c1.8,1.5,8.4,9.8,8,11.6c0,0,0,0.3-0.1,0.7c1.1-0.7,1.1-2.6,1.1-2.6
	c0.4-1.7-6.2-10-8-11.6c-1.8-1.5-7.2-3.5-8.7-3.9c-1.1-0.3-2.7,0.9-3.5,2.3c0.1,0.2,0.1,0.4,0.2,0.5C18.4,18.4,19.3,18.1,19.9,18.2z
	"></path><path class="st14" d="M19.3,21c0.7,0.2,3.1,3.2,3.9,4.3c0.8,1.1,6.5,6.9,8.1,8.4c0.9,0.8,2.9,1,4.8,0.8c0,0,0,0,0.1,0
	c0.1,0,0.2-0.1,0.3-0.2c0.1-0.4,0.1-0.7,0.1-0.7c0.4-1.7-6.2-10-8-11.6c-1.8-1.5-7.2-3.5-8.7-3.9c-0.7-0.2-1.5,0.2-2.3,0.8
	c0,0.1,0,0.2,0,0.2C17.7,20.4,18.7,20.8,19.3,21z"></path><path class="st15" d="M21.3,18.6c0,0-1.3,1.9-2,1C18.7,18.7,22.5,15.8,21.3,18.6z"></path><path class="st12" d="M17,32.9c1.3,0.1,11.1,1.7,12.7,2.7c1.6,1,2.1,3.4,2.5,4.9c-0.9-1.6-2.2-3.3-3.4-3.5c-2.1-0.5-10.1-2-11.5-2
	c-1.3-0.1-5.2-0.4-5.8-0.8c-0.6-0.4-1.4-1-2.3-0.4c-0.2,0.1-0.4,0.2-0.7,0.2c0.2-0.6,0.6-1.1,1-1.4C10.9,31.3,15.7,32.8,17,32.9z"></path><path class="st13" d="M9.6,36.2c1.2,1,5.8,4.3,8.1,5c2.3,0.7,12.9,1.5,14.1,0.2c0,0,0.2-0.2,0.5-0.4c0,1.3-1.5,2.4-1.5,2.4
	c-1.2,1.3-11.8,0.5-14.1-0.2c-2.3-0.7-6.9-4-8.1-5c-0.8-0.8-0.8-2.7-0.1-4.2c0.2,0,0.4-0.1,0.5-0.1C8.9,34.8,9.1,35.7,9.6,36.2z"></path><path class="st14" d="M11.6,34.2c0.6,0.4,4.4,0.8,5.8,0.8c1.3,0.1,9.4,1.6,11.5,2c1.2,0.3,2.5,1.9,3.4,3.5c0,0,0,0,0,0.1
	c0,0.1,0,0.3,0,0.4c-0.3,0.3-0.5,0.4-0.5,0.4c-1.2,1.3-11.8,0.5-14.1-0.2c-2.3-0.7-6.9-4-8.1-5c-0.5-0.5-0.7-1.4-0.6-2.4
	c0.1,0,0.2-0.1,0.2-0.1C10.2,33.1,11,33.7,11.6,34.2z"></path><path class="st15" d="M10.7,37.1c0,0,0.8-2.2-0.3-2.2C9.4,34.9,9.1,39.7,10.7,37.1z"></path><path class="st12" d="M90.7,29.8c-0.8,0.9-7.6,7.5-9.4,8.3c-1.7,0.8-4,0-5.4-0.3c1.9,0.1,3.9-0.2,4.8-1c1.5-1.3,7.3-6.6,8.1-7.6
	c0.8-1,3.3-3.7,3.9-3.9c0.7-0.2,1.7-0.6,1.7-1.5c0-0.2,0.1-0.4,0.2-0.7c0.3,0.4,0.5,0.9,0.6,1.3C95.5,26,91.5,28.8,90.7,29.8z"></path><path class="st13" d="M92.1,22.8c-1.5,0.4-6.8,2.4-8.6,3.8s-8.5,8.9-8,10.4c0,0,0,0.2,0.1,0.6c-1.1-0.6-1.1-2.2-1.1-2.2
	c-0.4-1.5,6.2-9,8-10.4s7.1-3.4,8.6-3.8c1.1-0.3,2.6,0.6,3.5,1.8c-0.1,0.2-0.1,0.3-0.2,0.5C93.7,22.9,92.8,22.7,92.1,22.8z"></path><path class="st14" d="M92.7,25.2c-0.7,0.2-3.1,3-3.9,3.9c-0.8,1-6.6,6.3-8.1,7.6c-0.9,0.8-2.9,1-4.8,1c0,0,0,0-0.1,0
	c-0.1,0-0.2-0.1-0.3-0.1c-0.1-0.3-0.1-0.6-0.1-0.6c-0.4-1.5,6.2-9,8-10.4s7.1-3.4,8.6-3.8c0.7-0.2,1.5,0.1,2.3,0.6
	c0,0.1,0,0.1,0,0.2C94.4,24.6,93.4,25,92.7,25.2z"></path><path class="st15" d="M90.8,23.3c0,0,1.3,1.6,1.9,0.8C93.4,23.2,89.6,20.9,90.8,23.3z"></path><path class="st12" d="M81.5,26.7c-0.6,1.2-5.6,9.7-7.1,10.9c-1.5,1.2-4,0.7-5.5,0.5c1.9-0.3,3.8-0.9,4.5-1.9c1.2-1.8,5.5-8.7,6-10
	c0.5-1.2,2.3-4.7,2.8-5.1c0.6-0.4,1.5-1,1.2-2c0-0.2,0-0.5,0-0.8c0.4,0.4,0.8,0.9,1,1.4C85.2,21.6,82,25.5,81.5,26.7z"></path><path class="st13" d="M81,18.6c-1.4,0.7-6.1,3.8-7.6,5.7c-1.4,1.9-6,11.4-5.2,13.1c0,0,0.1,0.3,0.2,0.6c-1.2-0.5-1.7-2.3-1.7-2.3
	C66,34.2,70.6,24.6,72,22.7s6.2-5,7.6-5.7c1-0.5,2.8,0.3,4,1.4c0,0.2-0.1,0.4-0.1,0.6C82.6,18.5,81.7,18.3,81,18.6z"></path><path class="st14" d="M82.3,21.2c-0.6,0.4-2.3,3.9-2.8,5.1c-0.5,1.2-4.8,8.2-6,10c-0.7,1-2.6,1.6-4.5,1.9c0,0,0,0-0.1,0
	c-0.1,0-0.3-0.1-0.4-0.1c-0.1-0.4-0.2-0.6-0.2-0.6c-0.8-1.6,3.8-11.2,5.2-13.1c1.4-1.9,6.2-5,7.6-5.7c0.6-0.3,1.5-0.1,2.4,0.3
	c0,0.1,0,0.2,0,0.2C83.7,20.2,82.8,20.8,82.3,21.2z"></path><path class="st15" d="M79.9,19.3c0,0,1.7,1.6,2.1,0.5S78,16.9,79.9,19.3z"></path><path class="st12" d="M18.9,73.9c1.2-0.4,9.8-4.4,11.1-5.7c1.3-1.3,1.5-3.7,1.7-5.2c-0.6,1.7-1.6,3.6-2.7,4.1
	c-1.8,0.9-8.9,4.3-10.1,4.7c-1.2,0.4-4.6,1.7-5.1,2.2c-0.4,0.5-1.2,1.3-2,1c-0.2-0.1-0.4-0.1-0.7,0c0.3,0.5,0.6,0.8,1,1.1
	C13.6,76.9,17.7,74.3,18.9,73.9z"></path><path class="st13" d="M11.9,72.7c0.9-1.2,4.7-5.5,6.7-6.6s11.4-4.6,12.6-3.7c0,0,0.2,0.1,0.5,0.3c-0.1-1.2-1.6-1.8-1.6-1.8
	c-1.2-0.9-10.6,2.5-12.6,3.7s-5.8,5.4-6.7,6.6c-0.7,0.9-0.4,2.7,0.4,3.9c0.2,0,0.4,0,0.5,0C11.4,74.1,11.5,73.2,11.9,72.7z"></path><path class="st14" d="M13.9,74.1c0.4-0.5,3.9-1.8,5.1-2.2c1.2-0.4,8.2-3.8,10.1-4.7c1-0.5,2-2.4,2.7-4.1c0,0,0,0,0-0.1
	c0-0.1,0-0.3,0-0.4c-0.3-0.2-0.5-0.3-0.5-0.3C30,61.4,20.6,64.9,18.6,66s-5.8,5.4-6.7,6.6c-0.4,0.6-0.5,1.5-0.3,2.3
	c0.1,0,0.1,0,0.2,0C12.7,75.4,13.4,74.6,13.9,74.1z"></path><path class="st15" d="M12.8,71.6c0,0,1,1.8,0,2.1S11,69.6,12.8,71.6z"></path><path class="st12" d="M19.5,64.2c1.3-0.1,11.1-1.6,12.8-2.6c1.6-0.9,2.1-3.4,2.5-4.9c-0.9,1.6-2.2,3.2-3.4,3.5
	c-2.1,0.4-10.1,1.9-11.5,1.9c-1.3,0-5.2,0.4-5.8,0.8c-0.6,0.4-1.4,1-2.3,0.4c-0.2-0.1-0.4-0.2-0.7-0.2c0.2,0.6,0.6,1.1,0.9,1.4
	C13.3,65.7,18.1,64.3,19.5,64.2z"></path><path class="st13" d="M12.1,60.8c1.2-1,5.8-4.3,8.1-4.9c2.3-0.6,12.9-1.4,14.1-0.1c0,0,0.2,0.2,0.5,0.4c0-1.3-1.5-2.4-1.5-2.4
	c-1.2-1.3-11.8-0.6-14.1,0.1s-7,3.9-8.1,4.9c-0.9,0.7-0.8,2.7-0.1,4.2c0.2,0,0.4,0.1,0.5,0.2C11.4,62.2,11.6,61.3,12.1,60.8z"></path><path class="st14" d="M14,62.9c0.6-0.4,4.4-0.7,5.8-0.8c1.3,0,9.4-1.5,11.5-1.9c1.2-0.2,2.5-1.9,3.4-3.5c0,0,0,0,0-0.1
	c0-0.1,0-0.3,0-0.4c-0.3-0.3-0.5-0.4-0.5-0.4c-1.2-1.3-11.8-0.6-14.1,0.1c-2.3,0.6-7,3.9-8.1,4.9c-0.5,0.5-0.7,1.4-0.6,2.4
	c0.1,0,0.2,0.1,0.2,0.1C12.6,63.9,13.5,63.3,14,62.9z"></path><path class="st15" d="M13.2,60c0,0,0.8,2.2-0.3,2.2C11.8,62.1,11.5,57.3,13.2,60z"></path><path class="st12" d="M90.6,45.5c-1.3,0.1-10.6,1.3-12.3,2.2c-1.7,0.8-2.5,3.1-3.1,4.5c1.1-1.5,2.6-2.9,3.7-3.2
	c2-0.4,9.7-1.6,11-1.6c1.3,0,4.9-0.2,5.5-0.6c0.6-0.4,1.5-0.9,2.2-0.3c0.1,0.1,0.4,0.2,0.7,0.2c-0.1-0.5-0.4-1-0.7-1.3
	C96.6,44.2,91.9,45.4,90.6,45.5z"></path><path class="st13" d="M97,48.7c-1.2,0.9-6.1,3.9-8.3,4.4c-2.2,0.5-12.2,1.1-13.1-0.1c0,0-0.2-0.2-0.4-0.4c-0.2,1.2,1,2.2,1,2.2
	C77,56,87,55.5,89.2,54.9c2.2-0.5,7.1-3.5,8.3-4.4c0.9-0.7,1.2-2.5,0.8-3.8c-0.2,0-0.3-0.1-0.5-0.1C97.8,47.4,97.5,48.3,97,48.7z"></path><path class="st14" d="M95.5,46.8c-0.6,0.4-4.3,0.6-5.5,0.6c-1.3,0-9,1.2-11,1.6c-1.1,0.2-2.6,1.7-3.7,3.2c0,0,0,0,0,0
	c-0.1,0.1-0.1,0.2-0.1,0.4c0.2,0.2,0.4,0.4,0.4,0.4c0.9,1.2,10.9,0.7,13.1,0.1c2.2-0.5,7.1-3.5,8.3-4.4c0.6-0.4,0.9-1.3,0.9-2.2
	c-0.1,0-0.1-0.1-0.2-0.1C97,45.8,96.1,46.4,95.5,46.8z"></path><path class="st15" d="M95.8,49.5c0,0-0.4-2,0.6-2S96.9,51.9,95.8,49.5z"></path><path class="st12" d="M55.9,37.3c-0.4,1-2.5,8.7-2.3,10.1c0.2,1.3,2.2,1.8,3.3,2.2c-1.1-0.8-2-1.9-1.8-2.8c0.4-1.6,1.9-8,2.4-9
	c0.4-1.1,1.5-4.1,1.4-4.5c-0.2-0.5-0.4-1.2,0.5-1.8c0.1-0.1,0.3-0.3,0.5-0.6c-0.6,0.2-1.1,0.4-1.5,0.7
	C56.7,32.5,56.3,36.3,55.9,37.3z"></path><path class="st13" d="M61.4,31.7c0.5,1,1.6,4.7,1.4,6.5c-0.3,1.8-3.3,10.1-4.9,11c0,0-0.2,0.2-0.5,0.4c1.1,0.1,2.6-1.1,2.6-1.1
	c1.6-0.9,4.6-9.2,4.9-11S63.9,32,63.4,31c-0.3-0.7-2-0.7-3.5-0.3c-0.1,0.2-0.2,0.3-0.3,0.4C60.4,31.1,61.2,31.3,61.4,31.7z"></path><path class="st14" d="M58.9,33.1c0.2,0.5-0.9,3.5-1.4,4.5c-0.4,1.1-2,7.4-2.4,9c-0.2,0.9,0.7,2,1.8,2.8c0,0,0,0,0,0
	c0.1,0,0.2,0,0.3,0.1c0.3-0.2,0.5-0.4,0.5-0.4c1.6-0.9,4.6-9.2,4.9-11c0.3-1.8-0.9-5.6-1.4-6.5c-0.2-0.4-0.9-0.6-1.8-0.6
	c-0.1,0.1-0.1,0.1-0.2,0.2C58.6,32,58.8,32.7,58.9,33.1z"></path><path class="st15" d="M61.7,32.6c0,0-2.2,0.5-1.8-0.3C60.3,31.4,64.5,31.4,61.7,32.6z"></path><path class="st12" d="M42.3,54.3c0,0.8,1.2,6.4,2,7.4c0.8,1,3.1,1.5,4.4,1.9c-1.5-0.7-2.9-1.6-3.1-2.3c-0.3-1.2-1.4-5.9-1.4-6.6
	c0-0.8-0.2-3-0.5-3.3c-0.4-0.4-0.9-0.9-0.3-1.3c0.1-0.1,0.2-0.2,0.2-0.4c-0.5,0.1-1,0.2-1.3,0.4C41.1,50.7,42.3,53.5,42.3,54.3z"></path><path class="st13" d="M45.6,50.5c0.9,0.8,3.8,3.7,4.3,5.1c0.5,1.3,0.9,7.3-0.4,7.9c0,0-0.2,0.1-0.4,0.2c1.2,0.2,2.2-0.6,2.2-0.6
	c1.3-0.5,0.9-6.5,0.4-7.9c-0.5-1.3-3.4-4.3-4.3-5.1c-0.7-0.6-2.4-0.7-3.8-0.5c0,0.1-0.1,0.2-0.2,0.3C44.4,50,45.2,50.2,45.6,50.5z"></path><path class="st14" d="M43.7,51.4c0.4,0.4,0.5,2.6,0.5,3.3c0,0.8,1.1,5.4,1.4,6.6c0.2,0.7,1.6,1.6,3.1,2.3c0,0,0,0,0,0
	c0.1,0,0.2,0.1,0.4,0.1c0.3-0.1,0.4-0.2,0.4-0.2c1.3-0.5,0.9-6.5,0.4-7.9c-0.5-1.3-3.4-4.3-4.3-5.1c-0.4-0.3-1.2-0.5-2.2-0.6
	c0,0-0.1,0.1-0.1,0.1C42.8,50.5,43.3,51,43.7,51.4z"></path><path class="st15" d="M46.4,51.2c0,0-2,0.2-2-0.4C44.4,50.2,48.8,50.6,46.4,51.2z"></path><path class="st12" d="M51.4,56.4c-0.3,0.8-1.9,6.7-1.5,7.8c0.4,1.1,2.6,1.8,3.9,2.3c-1.3-0.8-2.4-1.9-2.3-2.6
	c0.2-1.3,1.3-6.1,1.7-6.9c0.4-0.8,1.3-3.1,1-3.5c-0.2-0.4-0.5-1,0.3-1.4c0.2-0.1,0.3-0.2,0.5-0.4c-0.6,0-1.2,0.1-1.6,0.3
	C51.8,52.6,51.7,55.6,51.4,56.4z"></path><path class="st13" d="M56.9,52.8c0.6,0.9,2.3,4.1,2.2,5.6c-0.1,1.4-2.6,7.6-4.3,8.1c0,0-0.2,0.1-0.6,0.2c1.2,0.3,2.7-0.4,2.7-0.4
	c1.6-0.4,4.2-6.6,4.3-8.1c0.1-1.4-1.6-4.7-2.2-5.6c-0.4-0.6-2.3-1-4-0.9C55,51.9,54.9,52,54.8,52C55.8,52.2,56.6,52.4,56.9,52.8z"></path><path class="st14" d="M54.3,53.5c0.2,0.4-0.7,2.7-1,3.5c-0.4,0.8-1.5,5.6-1.7,6.9c-0.1,0.7,1,1.8,2.3,2.6c0,0,0,0,0,0
	c0.1,0,0.2,0.1,0.4,0.1c0.3-0.1,0.6-0.2,0.6-0.2c1.6-0.4,4.2-6.6,4.3-8.1c0.1-1.4-1.6-4.7-2.2-5.6c-0.3-0.4-1.1-0.7-2.1-0.8
	c-0.1,0-0.1,0.1-0.2,0.1C53.8,52.5,54.1,53.1,54.3,53.5z"></path><path class="st15" d="M57.3,53.6c0,0-2.3,0.1-2-0.6S60.3,53.1,57.3,53.6z"></path></g></svg>