<?xml version="1.0" encoding="utf-8"?>
<!-- Generator: Adobe Illustrator 23.1.1, SVG Export Plug-In . SVG Version: 6.00 Build 0)  -->
<svg version="1.1" id="Layer_1" xmlns="http://www.w3.org/2000/svg" xmlns:xlink="http://www.w3.org/1999/xlink" x="0px" y="0px"
	 viewBox="0 0 108 108" style="enable-background:new 0 0 108 108;" xml:space="preserve">
<style type="text/css">
	.st0{fill-rule:evenodd;clip-rule:evenodd;fill:#79A23F;}
	.st1{opacity:0.34;fill:#68431A;}
	.st2{fill:none;stroke:#718537;stroke-width:0.6452;stroke-miterlimit:10;}
	.st3{fill:#A5C239;}
	.st4{fill:#84B541;}
	.st5{fill:#91BB3E;}
	.st6{fill:#AFCB36;}
	.st7{fill:#92B83F;}
	.st8{fill:#A5BE3B;}
	.st9{fill:#A4C839;}
	.st10{fill:#72AA42;}
	.st11{fill:#60451A;}
	.st12{fill:#775622;}
	.st13{fill:#9A752B;}
</style>
<g>
	<g>
		<path class="st0" d="M74.9,79.29c-0.09-0.04-0.1-0.08-0.14-0.13c0,0,0,0,0.02,0.02C74.81,79.24,74.88,79.26,74.9,79.29
			c3.48,2.49,10.03-3.91,3.73-6.43c-0.3,0.04-0.67-0.08-0.96-0.31h0c0.34,0.11,0.62,0.21,0.95,0.31c0.58,0.02,1.14-0.31,1.52-0.73
			c1.13,0.13,2.5-0.86,1.27-2.53c1.61,0.31,1.55-1.34,0.92-2.24c2.86-0.25,4.86-2.13,5.27-4.81c0.5-3.01-0.99-7.4-4.27-8.13
			c-0.07-0.11-0.08-0.19-0.11-0.25c1.87-0.33,2.69-1.8,1.2-3.32c1.93-0.46,1.6-3.57-1.71-1.71c3.16-0.77,3.01-5.27,0.93-6.39
			c0-0.94-0.16-1.82-0.56-2.57c-0.89-1.82-2.96-2.99-5.13-3.09c0.1-1.97-1.91-3.32-3.75-2.72c-0.56-0.94-1.4-1.71-2.36-2.09
			c0.73-2.42-3.16-4.47-4.79-1.67c0.11-1.21-0.66-1.98-1.59-2.28c-0.61-1.4-1.94-1.51-3.2-1.04c-0.16-0.11-0.35-0.15-0.53-0.25
			c-0.27-2.57-2.04-4.85-4.27-5.45c-2.73-0.79-6.14,1.04-7.09,3.95c-0.29-0.02-0.56-0.08-0.81-0.02c-2.3-2.88-9.46-1.48-6.32,3.8
			c0.2,0.17,0.35,0.44,0.48,0.69c0,0,0,0,0.02,0.02c-0.18-0.27-0.34-0.46-0.5-0.71c-1.25-0.98-3.64,0.06-3.13,1.67
			c-0.92,0.06-1.78,0.42-2.36,1.02c-2.55-2.24-5.72-2.03-7.92,0.06c-2.45,2.34-4.09,7.56-0.67,9.95c-1.95-1.84-4.2-1.23-3.88,1.3
			c-1.85-0.81-3.44,1.88,0.31,2.38c-3.85-1.65-7.18,4.93-2.81,5.93c-3.26,0.33-2.86,5.24,0.35,5.72c-2.35,1.07-2.09,3.66-0.58,4.81
			c-0.2,0.71,0,1.48,1.33,1.88c-1.15,0.54-0.81,1.4-0.13,1.94c-1.61,1.61,0.19,5.14,3,3.97c-0.78,0.88-0.65,1.98-0.07,2.78
			c-0.36,1.5,0.61,2.42,1.88,2.78c0.3,0.96,0.88,1.42,1.77,1.53c0.1,0.38,0.47,0.77,1.07,1.11c0.42,1.25,1.37,1.76,2.09,1.28
			c0.05-0.15,0.13-0.31,0.24-0.46c0.03,0,0.11,0.04,0.16,0.02c-0.13,0.17-0.25,0.35-0.4,0.44c-0.49,1.46,1.12,2.86,2.77,3.3
			c0.02,0.71,0.45,1.23,1.04,1.63c0.45,1.78,1.56,3.38,3.07,4.05c2.61,1.27,6.33,0.08,7.74-2.68c0.14-0.06,0.33,0,0.46-0.06
			c0.06,0.06,0.18,0.11,0.24,0.17c1.26,2.49,5.83,3.09,7.02,0.67c1.11,0.33,2.41,0.11,3.4-0.56c0.71-0.15,1.33-0.65,1.59-1.46
			c0.59,1.94,3.15,1.02,2.81-1.17c0.02,0.02,0.07,0.02,0.1,0c1.1,3.68,5.34,5.5,8.23,4.35C74.97,86.51,76.65,82.33,74.9,79.29z"/>
		<path class="st1" d="M82.15,62.62l-1.99-0.42L76.2,61.3l-0.02,0l-0.15-0.01c-1.14-0.08-2.28-0.08-3.42-0.04
			c-1.07,0.04-2.15,0.11-3.21,0.39c-0.29-0.48-0.73-0.53-1.12-0.74L67,60.33l-2.55-1.12c-0.95-0.4-1.9-0.79-2.85-1.18
			c0.27-1.07,0.39-2.01,0.29-2.84c1.05-0.5,2.1-1.06,3.09-1.71c0.37-0.24,0.72-0.5,1.07-0.76c0.19,0.13,0.4,0.13,0.61,0.17
			l1.09,0.18l2.17,0.37l4.36,0.67c1.46,0.21,2.91,0.41,4.38,0.59c1.47,0.16,2.93,0.35,4.41,0.48l0.25-1.16
			c-1.43-0.38-2.87-0.7-4.31-1.04c-1.44-0.32-2.89-0.63-4.34-0.93l-4.35-0.85l-2.08-0.38c0.68-0.7,1.33-1.44,1.88-2.24
			c0.72-1.03,1.3-2.14,1.78-3.28l7.64-0.76l-0.05-1.19l-6.87-0.05c0.12-0.37,0.24-0.75,0.33-1.13c0.62-2.24,0.76-4.54,0.89-6.81
			l-1.19-0.06c-0.25,2.19-0.52,4.38-1.22,6.44c-0.66,2.06-1.6,4.01-2.9,5.67c-1.29,1.67-2.93,3.01-4.77,4.05
			c-1.11,0.64-2.3,1.15-3.53,1.63c-0.58-0.31-1.15-0.56-1.4-0.77c-0.37-0.31-0.9-0.76-1.45-1.15l-0.81-12.59
			c0.06-0.05,0.13-0.11,0.19-0.16l0.65-0.51l1.36-1.02l2.77-2l5.6-3.93l-0.65-0.99l-5.81,3.65l-2.89,1.87l-1.36,0.92l-0.53-8.23
			l-1.19,0.04l0.1,9.46c-0.01,0.01-0.02,0.02-0.03,0.03l0.03,0.02l0.05,4.71c-0.03-0.03-0.05-0.05-0.08-0.08
			c-0.6-0.57-1.22-1.11-1.85-1.64c-0.09-0.07-0.18-0.13-0.27-0.21l-3.05-10.74l-1.15,0.3l2.03,8.81c-0.5-0.36-1.01-0.71-1.53-1.05
			c-1.36-0.9-2.78-1.72-4.21-2.49c-1.44-0.76-2.92-1.45-4.4-2.11l-0.49,1.08c1.44,0.69,2.87,1.41,4.26,2.2
			c1.39,0.78,2.77,1.59,4.08,2.48c1.32,0.89,2.6,1.83,3.81,2.84c0.6,0.51,1.2,1.03,1.75,1.58c0.28,0.27,0.55,0.55,0.82,0.84
			c0.1,0.1,0.19,0.21,0.29,0.32l0.06,6.02c-0.84,0.36-1.45,0.98-1.45,0.98s-0.4,0.34-0.91,0.83l-10.27-5.34
			c-0.33-0.67-0.82-1.23-1.21-1.85l-1.76-2.57c-1.21-1.69-2.41-3.39-3.68-5.04l-0.99,0.66c1.04,1.8,2.16,3.56,3.27,5.32l1.71,2.61
			c0.3,0.41,0.55,0.87,0.84,1.29c-0.66,0-1.31,0.07-1.96,0.09L35,47.75c-2.36,0.17-4.71,0.35-7.07,0.61l0.06,1.19
			c2.37,0.04,4.73-0.02,7.09-0.07l3.54-0.14c0.89-0.06,1.78-0.01,2.66-0.2l2.71,1.65l-6.61,3.94l-10.94,1.78l0.19,1.17l11.04-1.8
			l0.06-0.01l0.11-0.05l8.62-3.54l4.12,2.51c-0.09,0.18-0.15,0.35-0.18,0.5c-0.17,1.04,0.37,2.13,0.65,3.38l-4.6,3.74l-19.87-1.1
			l-0.09,1.18l11.8,1.23l-9.12,7.06l0.69,0.97l11.74-7.68l3.95,0.41l-0.54,4.08c-0.13,0.95-0.25,1.89-0.38,2.84l-12.07,4.15
			l0.35,1.14l11.33-3.01c-0.01,0.02-0.01,0.05-0.01,0.07l-1.97,10.32l1.16,0.24l2.36-10.27c0.44-1.7,0.67-3.45,0.98-5.18l0.81-4.74
			l3.9-2.34c0.17,0.2,0.47,0.34,1,0.48c0.56,0.15,1.06,0.24,1.48,0.3l2.06,12.31l-4.1,12.01l1.11,0.41l4.08-10.33l6.54,9.51l1-0.64
			l-6.84-11.38l-0.73-12.19c0.63-0.19,1.2-0.36,1.2-0.36s1.24-0.63,2.17-1.59c1.06,0.37,2.12,0.73,3.18,1.08l2.66,0.84l1.33,0.42
			c0.19,0.04,0.38,0.12,0.57,0.18l0.78,3.93l0.44,2.16l0.23,1.09l0.14,0.6c0.03,0.13,0.1,0.29,0.18,0.43l0.15,0.26
			c0.79,1.28,1.6,2.49,2.41,3.73l2.44,3.67l1.01-0.63l-2.19-3.81c-0.72-1.27-1.46-2.56-2.13-3.81l-0.11-0.22
			c0-0.02-0.02-0.02-0.02-0.08l-0.08-0.48l-0.16-1.08l-0.3-2.17l-0.46-3.47c0.73,0.03,1.46-0.01,2.19-0.07
			c0.63-0.05,1.26-0.12,1.89-0.2l4.75,11.44l1.11-0.41l-3.61-11.07l3.07,0.7l2.01,0.42c0.7,0.13,1.3,0.27,2.13,0.33v-1.19
			C83.52,62.89,82.79,62.75,82.15,62.62z"/>
		<g>
			<path class="st2" d="M70.74,79.65c-0.04-1.54-0.65-4.31-1.07-6.27"/>
			<path class="st2" d="M74.82,77.67c-2.04-0.82-4.65-2.66-5.94-4.65"/>
			<path class="st2" d="M75.53,73.66c-2.31,1.12-4.24,2.41-5.83,0.09"/>
			<path class="st2" d="M66.22,69.26c-2.45-1.9-4.78-4.41-5.68-6.62"/>
			<path class="st2" d="M61.2,71.07c0.28-3.2-0.59-8.1-0.71-9.1"/>
			<path class="st2" d="M65.53,65c-1.9,0.6-2.97,1.52-4.84-1.63"/>
			<path class="st3" d="M67.42,82.67c-0.2-1.23-0.82-1.48,1.23-3.66s2.05-2.18,2.05-2.18s0.41,0.47,0.88,1.01s2.5,2.33,1.59,4.41
				c-0.91,2.09-1.7,3.22-2.01,3.55c-0.31,0.33-1.12,1.64-1.34,1.96"/>
			<path class="st4" d="M81.85,83.3c-1.49-0.62-3.64,0.72-5.45-0.55s-2.85-4.42-3.28-5.32c-0.43-0.91-1.17-0.51,0.54-0.55
				c1.71-0.03,1.81-0.61,3.29-0.26c1.49,0.35,3.54,2.57,3.68,3.49C80.77,81.03,81.85,83.3,81.85,83.3z"/>
			<path class="st5" d="M72.92,74.95c0.45,0,0.94,0.36,3.1,0.4s3.85-0.2,4.23-1.84c0.38-1.64-0.15-1.97,0.77-3.05
				c0.92-1.08,0.92-1.08,0.92-1.08s-1.85-0.06-4.44,0.01s-3.79,2.68-4.11,3.78C73.08,74.27,72.92,74.95,72.92,74.95z"/>
			<path class="st6" d="M71.76,74.97c0,0-0.99-1.1-3.03-1.11s-4.26-1.01-4.26-3.16c0-2.15-0.7-3.34-0.7-3.34s-0.04,0.31,1.73,0.17
				c1.77-0.14,4.28,1.08,4.99,2.84C71.2,72.13,71.76,74.97,71.76,74.97z"/>
			<path class="st7" d="M59.54,77.71c0,0,2.62-2.62,3.42-4.4c0.8-1.78,1.02-2.84-0.02-4.1c-1.04-1.26-1.42-2.28-1.42-2.28
				s-1.48,2.2-2.44,2.71s-2.04,2.31-1.52,3.38C58.08,74.09,59.54,77.71,59.54,77.71z"/>
			<path class="st8" d="M63.63,65.59c0,0.03,1.57,0.68,3.43,0.91c1.87,0.22,2.87,0.21,3.61-0.72c0.73-0.93,1.23-1.91,1.75-2.99
				c0.52-1.08,0.59-1.52,1.02-1.63c0.43-0.1-0.54,0.38-2.6-0.13c-2.06-0.51-3.04-1.07-3.9-0.4c-0.85,0.67-0.83,1.91-1.52,2.91
				C64.73,64.53,63.63,65.59,63.63,65.59z"/>
		</g>
		<g>
			<path class="st2" d="M36.57,79.95c1.49-0.42,4.02-1.68,5.81-2.58"/>
			<path class="st2" d="M39.5,83.42c0.29-2.17,1.44-5.16,3.05-6.9"/>
			<path class="st2" d="M43.55,83.12c-1.65-1.97-3.37-3.52-1.51-5.63"/>
			<path class="st2" d="M45.54,73.02c1.24-2.84,3.11-5.72,5.03-7.13"/>
			<path class="st2" d="M42.55,68.59c3.17-0.51,7.7-2.56,8.65-2.92"/>
			<path class="st2" d="M49.5,71.3c-1.04-1.69-2.2-2.51,0.4-5.09"/>
			<path class="st4" d="M32.83,77.46c1.14-0.49,1.24-1.16,3.85,0.29c2.61,1.45,2.61,1.45,2.61,1.45s-0.36,0.51-0.76,1.1
				c-0.4,0.59-1.64,2.99-3.89,2.62s-3.54-0.86-3.94-1.08c-0.39-0.22-1.86-0.68-2.23-0.82"/>
			<path class="st9" d="M35.76,91.61c0.24-1.6-1.59-3.35-0.8-5.42c0.79-2.07,3.58-3.84,4.36-4.49s0.21-1.26,0.66,0.39
				c0.45,1.65,1.04,1.6,1.06,3.13c0.02,1.53-1.63,4.06-2.48,4.42S35.76,91.61,35.76,91.61z"/>
			<path class="st5" d="M41.66,80.91c0.11,0.43-0.12,1,0.37,3.1c0.5,2.1,1.14,3.68,2.82,3.64c1.68-0.04,1.87-0.63,3.15,0
				s1.27,0.63,1.27,0.63s-0.4-1.81-1.1-4.3c-0.7-2.49-3.53-3.02-4.67-3.06C42.37,80.89,41.66,80.91,41.66,80.91z"/>
			<path class="st6" d="M41.36,79.78c0,0,0.82-1.23,0.33-3.21c-0.49-1.97-0.06-4.38,2.02-4.91c2.09-0.53,3.07-1.49,3.07-1.49
				s-0.31,0.03,0.26,1.72c0.57,1.68,0.01,4.42-1.53,5.54S41.36,79.78,41.36,79.78z"/>
			<path class="st7" d="M35.71,68.61c0,0,3.19,1.9,5.1,2.24c1.92,0.34,3,0.3,3.97-1.02c0.97-1.32,1.86-1.94,1.86-1.94
				s-2.49-0.89-3.23-1.7c-0.73-0.81-2.74-1.41-3.65-0.64S35.71,68.61,35.71,68.61z"/>
			<path class="st8" d="M48.46,69.61c-0.03,0.01-0.28,1.69-0.04,3.55s0.5,2.84,1.58,3.32c1.08,0.48,2.15,0.72,3.33,0.96
				c1.18,0.24,1.62,0.2,1.82,0.59c0.2,0.39-0.5-0.43-0.51-2.55c-0.01-2.12,0.3-3.21-0.57-3.88s-2.06-0.33-3.19-0.76
				C49.75,70.41,48.46,69.61,48.46,69.61z"/>
		</g>
		<g>
			<path class="st2" d="M28.52,48.49c0.49,1.46,1.88,3.93,2.86,5.68"/>
			<path class="st2" d="M25.2,51.59c2.19,0.18,5.22,1.18,7.04,2.7"/>
			<path class="st2" d="M25.7,55.62c1.89-1.75,3.34-3.54,5.55-1.79"/>
			<path class="st2" d="M35.89,57.1c2.9,1.09,5.86,2.82,7.37,4.66"/>
			<path class="st2" d="M40.16,53.89c0.67,3.14,2.94,7.57,3.35,8.5"/>
			<path class="st2" d="M37.8,60.97c1.64-1.13,2.4-2.32,5.11,0.14"/>
			<path class="st3" d="M30.81,44.63c0.55,1.12,1.22,1.18-0.1,3.86c-1.32,2.68-1.32,2.68-1.32,2.68s-0.53-0.33-1.14-0.7
				c-0.61-0.37-3.07-1.49-2.81-3.75c0.26-2.26,0.68-3.58,0.88-3.98s0.59-1.89,0.71-2.26"/>
			<path class="st4" d="M16.83,48.27c1.61,0.16,3.27-1.76,5.37-1.08c2.11,0.68,4.02,3.39,4.7,4.13s1.27,0.15-0.35,0.68
				c-1.63,0.53-1.55,1.11-3.07,1.21c-1.53,0.1-4.14-1.42-4.54-2.26S16.83,48.27,16.83,48.27z"/>
			<path class="st5" d="M27.82,53.62c-0.43,0.13-1.01-0.07-3.08,0.53c-2.07,0.6-3.62,1.32-3.5,3c0.12,1.68,0.73,1.84,0.16,3.14
				s-0.57,1.3-0.57,1.3s1.79-0.49,4.24-1.31s2.84-3.68,2.82-4.82C27.87,54.32,27.82,53.62,27.82,53.62z"/>
			<path class="st6" d="M28.92,53.26c0,0,1.27,0.76,3.22,0.17c1.95-0.59,4.37-0.28,5,1.77c0.63,2.06,1.65,2.99,1.65,2.99
				s-0.05-0.31-1.7,0.35s-4.41,0.23-5.61-1.25C30.29,55.82,28.92,53.26,28.92,53.26z"/>
			<path class="st7" d="M39.8,47.06c0,0-1.73,3.28-1.98,5.21c-0.25,1.93-0.15,3.01,1.22,3.91c1.36,0.9,2.03,1.76,2.03,1.76
				s0.77-2.53,1.54-3.31c0.78-0.77,1.27-2.81,0.46-3.67C42.26,50.09,39.8,47.06,39.8,47.06z"/>
			<path class="st8" d="M39.44,59.84c-0.01-0.03-1.7-0.19-3.55,0.14c-1.85,0.33-2.81,0.64-3.24,1.75c-0.43,1.11-0.61,2.19-0.79,3.37
				c-0.18,1.19-0.11,1.63-0.49,1.85c-0.38,0.22,0.41-0.52,2.52-0.63c2.12-0.11,3.22,0.13,3.84-0.76s0.23-2.07,0.6-3.23
				C38.71,61.18,39.44,59.84,39.44,59.84z"/>
		</g>
		<g>
			<path class="st2" d="M52.71,85.52c0.82-1.31,1.85-3.94,2.58-5.81"/>
			<path class="st2" d="M57.21,86.13c-1.24-1.81-2.4-4.79-2.37-7.16"/>
			<path class="st2" d="M60.02,83.18c-2.55-0.35-4.86-0.34-4.9-3.15"/>
			<path class="st2" d="M54.7,74.36c-0.99-2.93-1.54-6.32-1.06-8.66"/>
			<path class="st2" d="M49.52,73.09c2-2.51,3.99-7.07,4.45-7.98"/>
			<path class="st2" d="M56.49,70.43c-1.91-0.55-3.31-0.38-3.13-4.04"/>
			<path class="st3" d="M48.27,86.19c0.52-1.13,0.14-1.69,3.05-2.37s2.91-0.68,2.91-0.68s0.08,0.62,0.18,1.33s0.79,3.32-1.12,4.55
				s-3.2,1.75-3.64,1.85c-0.44,0.1-1.84,0.75-2.2,0.89"/>
			<path class="st4" d="M59.95,94.7c-0.9-1.35-3.43-1.42-4.24-3.48s0.07-5.25,0.21-6.25c0.14-0.99-0.69-1.08,0.75-0.16
				c1.44,0.92,1.84,0.49,2.88,1.61c1.04,1.12,1.53,4.1,1.13,4.94C60.3,92.21,59.95,94.7,59.95,94.7z"/>
			<path class="st5" d="M57.13,82.81c0.37,0.25,0.59,0.83,2.36,2.05s3.32,1.96,4.54,0.81c1.22-1.16,0.96-1.73,2.33-2.11
				s1.37-0.39,1.37-0.39s-1.51-1.07-3.7-2.45c-2.19-1.37-4.64,0.14-5.51,0.88S57.13,82.81,57.13,82.81z"/>
			<path class="st6" d="M56.15,82.19c0,0-0.22-1.46-1.91-2.6s-2.99-3.2-1.8-4.99s1.27-3.17,1.27-3.17s-0.21,0.23,1.35,1.1
				c1.55,0.87,2.97,3.27,2.59,5.13C57.26,79.51,56.15,82.19,56.15,82.19z"/>
			<path class="st7" d="M44.46,77.7c0,0,3.63-0.74,5.29-1.77c1.65-1.04,2.42-1.8,2.25-3.42s0.08-2.68,0.08-2.68
				s-2.45,1.01-3.54,0.91c-1.09-0.11-2.98,0.8-3.13,1.97C45.25,73.88,44.46,77.7,44.46,77.7z"/>
			<path class="st8" d="M54.58,69.88c-0.02,0.03,0.93,1.44,2.36,2.66c1.43,1.22,2.27,1.77,3.4,1.4c1.13-0.37,2.08-0.91,3.11-1.52
				c1.03-0.61,1.33-0.94,1.75-0.79c0.41,0.15-0.66,0.02-2.09-1.55c-1.43-1.56-1.94-2.58-3.02-2.49c-1.08,0.09-1.75,1.14-2.88,1.58
				S54.58,69.88,54.58,69.88z"/>
		</g>
		<g>
			<path class="st2" d="M65.75,33.69c-1.52,0.26-4.17,1.25-6.05,1.95"/>
			<path class="st2" d="M63.2,29.93c-0.52,2.13-1.98,4.98-3.76,6.54"/>
			<path class="st2" d="M59.14,29.8c1.43,2.13,2.98,3.85,0.91,5.76"/>
			<path class="st2" d="M56.09,39.63c-1.53,2.69-3.69,5.36-5.75,6.56"/>
			<path class="st2" d="M58.6,44.35c-3.2,0.17-7.93,1.73-8.91,1.99"/>
			<path class="st2" d="M51.97,40.92c0.86,1.79,1.92,2.73-0.93,5.02"/>
			<path class="st3" d="M69.21,36.55c-1.19,0.37-1.35,1.02-3.79-0.7c-2.44-1.72-2.44-1.72-2.44-1.72s0.41-0.47,0.87-1.02
				c0.46-0.55,1.95-2.8,4.14-2.2c2.2,0.61,3.43,1.23,3.8,1.49c0.37,0.26,1.78,0.87,2.13,1.05"/>
			<path class="st9" d="M67.78,22.18c-0.41,1.57,1.23,3.5,0.23,5.48c-1,1.97-3.97,3.44-4.81,4c-0.84,0.56-0.34,1.23-0.62-0.45
				c-0.27-1.69-0.86-1.7-0.72-3.22s2.05-3.87,2.94-4.14C65.69,23.57,67.78,22.18,67.78,22.18z"/>
			<path class="st4" d="M60.78,32.19c-0.06-0.44,0.23-0.99-0.04-3.12s-0.74-3.78-2.42-3.92c-1.68-0.14-1.93,0.43-3.13-0.33
				c-1.2-0.76-1.2-0.76-1.2-0.76s0.21,1.84,0.64,4.39c0.43,2.55,3.19,3.37,4.32,3.53C60.08,32.13,60.78,32.19,60.78,32.19z"/>
			<path class="st6" d="M60.97,33.34c0,0-0.95,1.14-0.67,3.15c0.28,2.02-0.4,4.36-2.53,4.67c-2.13,0.3-3.21,1.16-3.21,1.16
				s0.31,0-0.08-1.73c-0.39-1.73,0.46-4.39,2.1-5.34C58.23,34.3,60.97,33.34,60.97,33.34z"/>
			<path class="st7" d="M65.4,45.06c0,0-2.97-2.22-4.84-2.76c-1.87-0.54-2.95-0.61-4.06,0.6c-1.1,1.21-2.05,1.73-2.05,1.73
				s2.39,1.15,3.03,2.04c0.64,0.89,2.57,1.69,3.56,1.03C62.03,47.01,65.4,45.06,65.4,45.06z"/>
			<path class="st8" d="M52.83,42.71c0.03-0.01,0.46-1.65,0.41-3.53c-0.04-1.88-0.2-2.87-1.22-3.47c-1.03-0.6-2.07-0.95-3.21-1.31
				c-1.15-0.36-1.59-0.37-1.75-0.78s0.45,0.48,0.23,2.59c-0.22,2.11-0.63,3.16,0.15,3.91c0.79,0.75,2.01,0.55,3.09,1.09
				C51.63,41.78,52.83,42.71,52.83,42.71z"/>
		</g>
		<g>
			<path class="st2" d="M35.86,34.66c-0.14,1.54,0.14,4.35,0.33,6.35"/>
			<path class="st2" d="M31.58,36.15c1.93,1.05,4.3,3.19,5.35,5.32"/>
			<path class="st2" d="M30.41,40.05c2.43-0.84,4.49-1.89,5.8,0.6"/>
			<path class="st2" d="M39.13,45.51c2.21,2.17,4.23,4.94,4.86,7.24"/>
			<path class="st2" d="M44.33,44.3c-0.65,3.14-0.37,8.11-0.37,9.13"/>
			<path class="st2" d="M39.32,49.83c1.95-0.37,3.13-1.16,4.61,2.19"/>
			<path class="st3" d="M39.52,32.05c0.05,1.24,0.64,1.57-1.65,3.49s-2.29,1.92-2.29,1.92s-0.35-0.52-0.76-1.1
				c-0.41-0.59-2.21-2.6-1.06-4.57s2.07-3,2.41-3.29s1.3-1.5,1.56-1.78"/>
			<path class="st9" d="M25.26,29.74c1.41,0.79,3.7-0.29,5.35,1.19s2.31,4.72,2.63,5.67s1.11,0.65-0.6,0.48
				c-1.7-0.17-1.87,0.39-3.3-0.13c-1.43-0.53-3.21-2.97-3.24-3.9C26.07,32.12,25.26,29.74,25.26,29.74z"/>
			<path class="st4" d="M33.15,39.07c-0.44-0.05-0.9-0.47-3.03-0.76s-3.85-0.25-4.41,1.33s-0.08,1.98-1.12,2.94
				c-1.04,0.96-1.04,0.96-1.04,0.96s1.83,0.27,4.41,0.51s4.08-2.22,4.52-3.27C32.91,39.73,33.15,39.07,33.15,39.07z"/>
			<path class="st6" d="M34.31,39.19c0,0,0.86,1.21,2.88,1.46c2.02,0.25,4.11,1.51,3.86,3.64c-0.25,2.14,0.3,3.4,0.3,3.4
				s0.08-0.3-1.7-0.37c-1.77-0.07-4.13-1.57-4.63-3.4S34.31,39.19,34.31,39.19z"/>
			<path class="st7" d="M46.77,37.91c0,0-2.91,2.3-3.91,3.97c-1.01,1.67-1.35,2.7-0.47,4.07c0.88,1.38,1.14,2.43,1.14,2.43
				s1.72-2.01,2.75-2.4s2.3-2.05,1.9-3.18C47.79,41.67,46.77,37.91,46.77,37.91z"/>
			<path class="st8" d="M41.27,49.46c0-0.03-1.47-0.86-3.3-1.31c-1.83-0.44-2.83-0.55-3.67,0.29c-0.84,0.84-1.45,1.75-2.09,2.77
				c-0.64,1.01-0.76,1.44-1.2,1.49c-0.44,0.05,0.58-0.31,2.56,0.44s2.89,1.42,3.82,0.86c0.93-0.57,1.04-1.8,1.85-2.71
				C40.06,50.38,41.27,49.46,41.27,49.46z"/>
		</g>
		<g>
			<path class="st2" d="M51.69,30.72c-1.1,1.08-2.71,3.41-3.85,5.06"/>
			<path class="st2" d="M47.45,29.09c0.79,2.05,1.23,5.21,0.66,7.52"/>
			<path class="st2" d="M44.04,31.31c2.4,0.93,4.65,1.45,4.04,4.2"/>
			<path class="st2" d="M47.17,41.12c0.29,3.08,0.04,6.5-0.96,8.67"/>
			<path class="st2" d="M51.93,43.55c-2.53,1.98-5.52,5.96-6.17,6.73"/>
			<path class="st2" d="M44.53,44.53c1.73,0.98,3.14,1.14,2.11,4.65"/>
			<path class="st3" d="M56.16,31.09c-0.76,0.98-0.52,1.61-3.51,1.6c-2.99-0.01-2.99-0.01-2.99-0.01s0.07-0.62,0.13-1.33
				c0.06-0.71-0.01-3.41,2.14-4.17c2.15-0.76,3.52-0.96,3.97-0.96s1.96-0.3,2.35-0.35"/>
			<path class="st9" d="M46.77,20.12c0.56,1.52,3.01,2.17,3.32,4.36c0.31,2.19-1.28,5.1-1.65,6.03c-0.37,0.93,0.43,1.21-0.77-0.02
				c-1.19-1.23-1.68-0.9-2.44-2.23s-0.54-4.34,0.04-5.07S46.77,20.12,46.77,20.12z"/>
			<path class="st4" d="M46.76,32.34c-0.3-0.32-0.38-0.94-1.82-2.54s-2.77-2.68-4.23-1.83c-1.46,0.85-1.34,1.46-2.76,1.52
				c-1.42,0.06-1.42,0.06-1.42,0.06s1.22,1.39,3.03,3.24c1.81,1.84,4.55,0.94,5.57,0.42C46.15,32.69,46.76,32.34,46.76,32.34z"/>
			<path class="st6" d="M47.57,33.17c0,0-0.13,1.48,1.26,2.97c1.38,1.49,2.17,3.81,0.6,5.27s-1.97,2.79-1.97,2.79
				s0.25-0.18-1.06-1.38s-2.14-3.87-1.33-5.59C45.87,35.52,47.57,33.17,47.57,33.17z"/>
			<path class="st7" d="M57.91,40.24c0,0-3.7-0.12-5.55,0.5c-1.85,0.63-2.77,1.19-2.98,2.81c-0.21,1.62-0.69,2.59-0.69,2.59
				s2.61-0.42,3.65-0.06s3.08-0.09,3.51-1.2C56.26,43.77,57.91,40.24,57.91,40.24z"/>
			<path class="st8" d="M46.26,45.51c0.02-0.02-0.57-1.61-1.68-3.13c-1.11-1.52-1.81-2.25-2.99-2.15c-1.18,0.1-2.24,0.41-3.38,0.76
				s-1.51,0.61-1.88,0.37c-0.37-0.24,0.65,0.14,1.68,1.99c1.03,1.85,1.29,2.96,2.37,3.12c1.07,0.17,1.96-0.7,3.16-0.87
				C44.74,45.44,46.26,45.51,46.26,45.51z"/>
		</g>
		<g>
			<path class="st2" d="M28.48,65.7c1.43,0.57,4.21,1.11,6.18,1.49"/>
			<path class="st2" d="M28.69,70.23c1.56-1.55,4.28-3.22,6.62-3.62"/>
			<path class="st2" d="M32.09,72.46c-0.11-2.57-0.54-4.84,2.22-5.39"/>
			<path class="st2" d="M39.82,65.64c2.71-1.5,5.94-2.65,8.33-2.6"/>
			<path class="st2" d="M40.13,60.31c2.83,1.52,7.67,2.65,8.65,2.94"/>
			<path class="st2" d="M44,66.69c0.2-1.98-0.22-3.33,3.41-3.8"/>
			<path class="st3" d="M27.02,61.45c1.21,0.3,1.69-0.17,2.88,2.57c1.19,2.74,1.19,2.74,1.19,2.74s-0.59,0.19-1.27,0.42
				c-0.68,0.23-3.12,1.38-4.68-0.28c-1.56-1.66-2.29-2.83-2.47-3.25c-0.18-0.41-1.07-1.67-1.27-2.01"/>
			<path class="st9" d="M20.75,74.46c1.16-1.13,0.78-3.63,2.66-4.79c1.88-1.16,5.18-0.87,6.19-0.91c1-0.04,0.94-0.88,0.29,0.71
				c-0.65,1.59-0.15,1.9-1.06,3.13c-0.91,1.23-3.76,2.24-4.66,2C23.26,74.36,20.75,74.46,20.75,74.46z"/>
			<path class="st4" d="M31.94,69.56c-0.17,0.41-0.71,0.72-1.59,2.69c-0.88,1.97-1.34,3.62,0.02,4.61c1.36,0.99,1.87,0.64,2.5,1.91
				c0.63,1.28,0.63,1.28,0.63,1.28s0.78-1.68,1.74-4.08c0.96-2.4-0.97-4.54-1.85-5.27C32.51,69.97,31.94,69.56,31.94,69.56z"/>
			<path class="st6" d="M32.38,68.47c0,0,1.4-0.48,2.21-2.34s2.61-3.52,4.59-2.67s3.34,0.68,3.34,0.68s-0.26-0.16-0.84,1.52
				c-0.57,1.68-2.68,3.51-4.58,3.47S32.38,68.47,32.38,68.47z"/>
			<path class="st7" d="M34.69,56.17c0,0,1.38,3.44,2.69,4.88s2.2,2.06,3.77,1.6c1.57-0.46,2.65-0.41,2.65-0.41
				s-1.44-2.22-1.53-3.32s-1.32-2.78-2.5-2.73C38.59,56.25,34.69,56.17,34.69,56.17z"/>
			<path class="st8" d="M44.21,64.71c-0.03-0.01-1.25,1.17-2.19,2.79c-0.94,1.63-1.33,2.56-0.76,3.6c0.57,1.04,1.27,1.88,2.06,2.79
				c0.79,0.91,1.17,1.14,1.09,1.58s-0.13-0.65,1.15-2.33c1.28-1.69,2.19-2.37,1.91-3.42c-0.28-1.05-1.43-1.51-2.07-2.55
				C44.75,66.14,44.21,64.71,44.21,64.71z"/>
		</g>
		<g>
			<path class="st2" d="M77.4,44.73c-1.5-0.38-4.32-0.53-6.33-0.65"/>
			<path class="st2" d="M76.57,40.26c-1.33,1.74-3.81,3.76-6.07,4.48"/>
			<path class="st2" d="M72.91,38.51c0.46,2.53,1.18,4.73-1.48,5.64"/>
			<path class="st2" d="M66.17,46.3c-2.48,1.85-5.53,3.42-7.9,3.7"/>
			<path class="st2" d="M66.57,51.62c-3.01-1.13-7.96-1.6-8.96-1.76"/>
			<path class="st2" d="M61.88,45.82c0.07,1.99,0.67,3.27-2.87,4.23"/>
			<path class="st3" d="M79.41,48.74c-1.24-0.14-1.65,0.39-3.2-2.16s-1.55-2.56-1.55-2.56s0.56-0.27,1.21-0.58s2.91-1.79,4.68-0.35
				c1.77,1.44,2.65,2.5,2.88,2.89c0.23,0.39,1.28,1.51,1.52,1.82"/>
			<path class="st9" d="M83.88,35c-1,1.27-0.28,3.7-1.99,5.11c-1.71,1.41-5.02,1.56-6.01,1.73s-0.81,0.99-0.38-0.66
				c0.43-1.66-0.1-1.9,0.64-3.24s3.43-2.72,4.35-2.61C81.4,35.44,83.88,35,83.88,35z"/>
			<path class="st4" d="M73.45,41.37c0.12-0.43,0.6-0.81,1.21-2.88c0.61-2.07,0.84-3.76-0.64-4.56c-1.48-0.8-1.94-0.38-2.73-1.56
				c-0.79-1.18-0.79-1.18-0.79-1.18s-0.55,1.77-1.18,4.28s1.57,4.37,2.54,4.97C72.83,41.03,73.45,41.37,73.45,41.37z"/>
			<path class="st6" d="M73.16,42.5c0,0-1.32,0.66-1.88,2.62c-0.55,1.96-2.12,3.84-4.19,3.26c-2.07-0.58-3.4-0.22-3.4-0.22
				s0.28,0.12,0.62-1.62c0.34-1.74,2.19-3.84,4.07-4.05S73.16,42.5,73.16,42.5z"/>
			<path class="st7" d="M72.52,55c0,0-1.83-3.23-3.32-4.48c-1.5-1.25-2.46-1.74-3.95-1.08s-2.57,0.76-2.57,0.76s1.72,2.01,1.96,3.08
				s1.68,2.58,2.85,2.37S72.52,55,72.52,55z"/>
			<path class="st8" d="M61.94,47.81c0.03,0.01,1.08-1.33,1.8-3.06c0.72-1.74,0.98-2.71,0.27-3.67c-0.7-0.96-1.51-1.7-2.41-2.49
				c-0.9-0.79-1.31-0.97-1.29-1.41c0.02-0.44,0.22,0.62-0.82,2.47s-1.85,2.64-1.43,3.65s1.62,1.31,2.39,2.24
				C61.22,46.47,61.94,47.81,61.94,47.81z"/>
		</g>
		<g>
			<path class="st2" d="M78.42,60.58c-1.02-1.16-3.26-2.88-4.85-4.11"/>
			<path class="st2" d="M80.27,56.43c-2.09,0.68-5.27,0.95-7.54,0.26"/>
			<path class="st2" d="M78.23,52.91c-1.05,2.34-1.7,4.57-4.41,3.82"/>
			<path class="st2" d="M68.27,55.53c-3.1,0.12-6.5-0.3-8.61-1.42"/>
			<path class="st2" d="M65.6,60.15c-1.84-2.63-5.66-5.82-6.4-6.52"/>
			<path class="st2" d="M65,52.71c-1.07,1.68-1.3,3.07-4.76,1.86"/>
			<path class="st3" d="M77.82,65.03c-0.94-0.81-1.58-0.61-1.41-3.59c0.17-2.98,0.17-2.98,0.17-2.98s0.62,0.1,1.33,0.2
				s3.41,0.17,4.05,2.36c0.64,2.19,0.77,3.56,0.75,4.01c-0.03,0.45,0.2,1.97,0.23,2.36"/>
			<path class="st9" d="M89.27,56.22c-1.54,0.48-2.32,2.89-4.53,3.09c-2.21,0.19-5.02-1.55-5.94-1.97
				c-0.91-0.42-1.23,0.36,0.06-0.76c1.29-1.13,0.99-1.63,2.36-2.31s4.37-0.31,5.06,0.31C86.98,55.18,89.27,56.22,89.27,56.22z"/>
			<path class="st4" d="M77.07,55.57c0.34-0.29,0.96-0.33,2.63-1.69s2.82-2.63,2.05-4.13c-0.77-1.5-1.39-1.41-1.37-2.83
				s0.01-1.42,0.01-1.42s-1.46,1.15-3.39,2.86c-1.93,1.71-1.18,4.49-0.71,5.54C76.75,54.95,77.07,55.57,77.07,55.57z"/>
			<path class="st6" d="M76.19,56.34c0,0-1.47-0.2-3.03,1.1s-3.92,1.97-5.3,0.32c-1.38-1.65-2.68-2.11-2.68-2.11
				s0.16,0.26,1.43-0.98c1.27-1.24,3.97-1.93,5.65-1.04C73.93,54.52,76.19,56.34,76.19,56.34z"/>
			<path class="st7" d="M68.59,66.3c0,0,0.32-3.69-0.21-5.57c-0.53-1.88-1.04-2.83-2.65-3.13s-2.55-0.83-2.55-0.83
				s0.28,2.63-0.13,3.65c-0.41,1.02-0.07,3.08,1.01,3.56S68.59,66.3,68.59,66.3z"/>
			<path class="st8" d="M63.93,54.38c0.02,0.02,1.64-0.48,3.21-1.51c1.57-1.03,2.34-1.68,2.3-2.87s-0.29-2.25-0.59-3.42
				c-0.3-1.16-0.53-1.54-0.27-1.9c0.26-0.35-0.17,0.64-2.08,1.57c-1.9,0.93-3.02,1.13-3.24,2.2c-0.22,1.06,0.6,2,0.71,3.2
				C64.09,52.87,63.93,54.38,63.93,54.38z"/>
		</g>
		<g>
			<g>
				<path class="st10" d="M52.8,63.75c-0.04-1.54-0.65-4.31-1.07-6.27"/>
				<path class="st10" d="M56.88,61.76c-2.04-0.82-4.65-2.66-5.94-4.65"/>
				<path class="st10" d="M57.59,57.76c-2.31,1.12-4.24,2.41-5.83,0.09"/>
				<path class="st10" d="M48.28,53.35c-2.45-1.9-4.78-4.41-5.68-6.62"/>
				<path class="st10" d="M43.26,55.17c0.28-3.2-0.59-8.1-0.71-9.1"/>
				<path class="st10" d="M47.59,49.09c-1.9,0.6-2.97,1.52-4.84-1.63"/>
				<g>
					<path class="st10" d="M49.48,66.77c-0.2-1.23-0.82-1.48,1.23-3.66c2.05-2.18,2.05-2.18,2.05-2.18s0.41,0.47,0.88,1.01
						c0.48,0.53,2.5,2.33,1.59,4.41c-0.91,2.09-1.7,3.22-2.01,3.55s-1.12,1.64-1.34,1.96"/>
				</g>
				<g>
					<path class="st10" d="M63.91,67.39c-1.49-0.62-3.64,0.72-5.45-0.55s-2.85-4.42-3.28-5.32C54.74,60.61,54,61,55.71,60.97
						c1.71-0.03,1.81-0.61,3.29-0.26c1.49,0.35,3.54,2.57,3.68,3.49C62.82,65.12,63.91,67.39,63.91,67.39z"/>
				</g>
				<g>
					<path class="st10" d="M54.98,59.04c0.45,0,0.94,0.36,3.1,0.4c2.15,0.03,3.85-0.2,4.23-1.84c0.38-1.64-0.15-1.97,0.77-3.05
						S64,53.47,64,53.47s-1.85-0.06-4.44,0.01c-2.58,0.07-3.79,2.68-4.11,3.78C55.14,58.36,54.98,59.04,54.98,59.04z"/>
				</g>
				<g>
					<path class="st10" d="M53.82,59.07c0,0-0.99-1.1-3.03-1.11c-2.03-0.01-4.26-1.01-4.26-3.16c0-2.15-0.7-3.34-0.7-3.34
						s-0.04,0.31,1.73,0.17c1.77-0.14,4.28,1.08,4.99,2.84S53.82,59.07,53.82,59.07z"/>
				</g>
				<g>
					<path class="st10" d="M41.59,61.8c0,0,2.62-2.62,3.42-4.4c0.8-1.78,1.02-2.84-0.02-4.1c-1.04-1.26-1.42-2.28-1.42-2.28
						s-1.48,2.2-2.44,2.71c-0.97,0.51-2.04,2.31-1.52,3.38S41.59,61.8,41.59,61.8z"/>
				</g>
				<g>
					<path class="st10" d="M45.69,49.69c0,0.03,1.57,0.68,3.43,0.91c1.87,0.22,2.87,0.21,3.61-0.72c0.73-0.93,1.23-1.91,1.75-2.99
						c0.52-1.08,0.59-1.52,1.02-1.63s-0.54,0.38-2.6-0.13c-2.06-0.51-3.04-1.07-3.9-0.4s-0.83,1.91-1.52,2.91
						C46.79,48.63,45.69,49.69,45.69,49.69z"/>
				</g>
			</g>
		</g>
	</g>
	<g>
		<path class="st11" d="M55.85,75.37c0.54,2.01,0.21,4.37-1.1,6.44c-2.27,3.58-6.6,4.89-9.68,2.94c-0.65-0.41-1.19-0.94-1.62-1.54
			c0.4,1.47,1.26,2.75,2.56,3.58c3.08,1.95,7.41,0.64,9.68-2.94C57.48,81.02,57.45,77.63,55.85,75.37z"/>
		<path class="st12" d="M54.74,81.81c1.31-2.06,1.64-4.43,1.1-6.44c-0.43-0.6-0.97-1.13-1.62-1.54c-3.08-1.95-7.41-0.64-9.68,2.94
			c-1.31,2.06-1.64,4.43-1.1,6.43c0.43,0.6,0.97,1.13,1.62,1.54C48.14,86.7,52.47,85.38,54.74,81.81z"/>
		
			<ellipse transform="matrix(0.5359 -0.8443 0.8443 0.5359 -42.2228 77.354)" class="st13" cx="49.25" cy="77.08" rx="2.72" ry="1.51"/>
	</g>
	<g>
		<path class="st11" d="M39.68,69c-1.12,1.75-3.09,3.1-5.49,3.53c-4.17,0.74-8.07-1.57-8.7-5.16c-0.13-0.76-0.11-1.51,0.05-2.23
			c-0.82,1.29-1.18,2.79-0.91,4.3c0.64,3.59,4.53,5.9,8.7,5.16C36.62,74.02,39.09,71.71,39.68,69z"/>
		<path class="st12" d="M34.19,72.53c2.41-0.43,4.38-1.78,5.49-3.53c0.16-0.72,0.18-1.48,0.05-2.23c-0.64-3.59-4.53-5.9-8.7-5.16
			c-2.41,0.43-4.38,1.78-5.49,3.53c-0.16,0.72-0.18,1.48-0.05,2.23C26.12,70.96,30.02,73.27,34.19,72.53z"/>
		
			<ellipse transform="matrix(0.9846 -0.1747 0.1747 0.9846 -10.883 6.9366)" class="st13" cx="33.96" cy="65.29" rx="2.72" ry="1.51"/>
	</g>
	<g>
		<path class="st11" d="M54.28,47.19c1.84,0.97,3.35,2.82,3.97,5.18c1.08,4.1-0.9,8.17-4.42,9.1c-0.74,0.2-1.49,0.23-2.23,0.14
			c1.35,0.71,2.87,0.94,4.36,0.55c3.52-0.93,5.5-5,4.42-9.1C59.53,49.83,57.03,47.55,54.28,47.19z"/>
		<path class="st12" d="M58.25,52.37c-0.62-2.36-2.13-4.22-3.97-5.18c-0.73-0.1-1.49-0.06-2.23,0.14c-3.52,0.93-5.5,5-4.42,9.1
			c0.62,2.36,2.13,4.22,3.97,5.18c0.73,0.1,1.49,0.06,2.23-0.14C57.35,60.54,59.33,56.46,58.25,52.37z"/>
		
			<ellipse transform="matrix(0.9669 -0.2551 0.2551 0.9669 -11.8815 14.7862)" class="st13" cx="51.05" cy="53.19" rx="1.51" ry="2.72"/>
	</g>
	<g>
		<path class="st11" d="M32.85,42.43c0.47,2.03,0.04,4.38-1.34,6.39c-2.4,3.49-6.78,4.64-9.78,2.58c-0.63-0.44-1.15-0.98-1.56-1.6
			c0.34,1.48,1.16,2.79,2.43,3.67c3,2.07,7.38,0.91,9.78-2.58C34.27,48.14,34.37,44.75,32.85,42.43z"/>
		<path class="st12" d="M31.51,48.82c1.39-2.01,1.81-4.36,1.34-6.39c-0.41-0.62-0.93-1.16-1.56-1.6c-3-2.07-7.38-0.91-9.78,2.58
			c-1.39,2.01-1.81,4.36-1.34,6.39c0.41,0.62,0.93,1.16,1.56,1.6C24.73,53.46,29.1,52.31,31.51,48.82z"/>
		
			<ellipse transform="matrix(0.5669 -0.8238 0.8238 0.5669 -24.8184 40.5885)" class="st13" cx="26.19" cy="43.9" rx="2.72" ry="1.51"/>
	</g>
	<g>
		<path class="st11" d="M38.39,24.19c2.07,0.12,4.21,1.19,5.75,3.08c2.67,3.29,2.55,7.81-0.28,10.11c-0.6,0.48-1.26,0.83-1.97,1.04
			c1.52,0.09,3.01-0.33,4.2-1.3c2.83-2.3,2.95-6.83,0.28-10.11C44.27,24.43,41.05,23.39,38.39,24.19z"/>
		<path class="st12" d="M44.15,27.28c-1.54-1.9-3.68-2.96-5.75-3.08c-0.71,0.21-1.38,0.56-1.97,1.04c-2.83,2.3-2.95,6.83-0.28,10.11
			c1.54,1.9,3.68,2.96,5.75,3.08c0.71-0.21,1.38-0.56,1.97-1.04C46.7,35.09,46.82,30.56,44.15,27.28z"/>
		
			<ellipse transform="matrix(0.7758 -0.631 0.631 0.7758 -11.0489 30.8841)" class="st13" cx="37.93" cy="30.99" rx="1.51" ry="2.72"/>
	</g>
	<g>
		<path class="st11" d="M85.33,50.13c-1.33,1.59-3.46,2.67-5.91,2.78c-4.23,0.19-7.79-2.61-7.96-6.25
			c-0.03-0.77,0.09-1.51,0.34-2.21c-0.98,1.17-1.53,2.61-1.46,4.15c0.16,3.64,3.72,6.44,7.96,6.25
			C81.64,54.71,84.39,52.74,85.33,50.13z"/>
		<path class="st12" d="M79.42,52.92c2.44-0.11,4.57-1.19,5.91-2.78c0.25-0.7,0.37-1.44,0.34-2.21c-0.16-3.64-3.72-6.44-7.96-6.25
			c-2.44,0.11-4.57,1.19-5.91,2.78c-0.25,0.7-0.37,1.44-0.34,2.21C71.63,50.31,75.19,53.1,79.42,52.92z"/>
		
			<ellipse transform="matrix(0.999 -0.0445 0.0445 0.999 -1.9566 3.6155)" class="st13" cx="80.15" cy="45.71" rx="2.72" ry="1.51"/>
	</g>
	<g>
		<path class="st11" d="M68.25,66.07c2.07-0.2,4.35,0.52,6.16,2.15c3.15,2.83,3.73,7.32,1.29,10.03c-0.51,0.57-1.12,1.02-1.79,1.34
			c1.52-0.15,2.92-0.79,3.95-1.93c2.44-2.71,1.86-7.2-1.29-10.03C74.09,65.39,70.75,64.86,68.25,66.07z"/>
		<path class="st12" d="M74.41,68.23c-1.82-1.63-4.09-2.36-6.16-2.15c-0.67,0.32-1.27,0.77-1.79,1.34
			c-2.44,2.71-1.86,7.2,1.29,10.03c1.82,1.63,4.09,2.36,6.16,2.15c0.67-0.32,1.27-0.77,1.79-1.34
			C78.14,75.55,77.56,71.06,74.41,68.23z"/>
		
			<ellipse transform="matrix(0.6685 -0.7437 0.7437 0.6685 -31.3619 75.3613)" class="st13" cx="68.85" cy="72.86" rx="1.51" ry="2.72"/>
	</g>
	<g>
		<path class="st11" d="M67.14,27.12c0.83,1.9,0.86,4.29-0.13,6.53c-1.71,3.87-5.8,5.82-9.13,4.35c-0.7-0.31-1.31-0.75-1.83-1.28
			c0.61,1.39,1.66,2.53,3.07,3.15c3.33,1.47,7.42-0.48,9.13-4.35C69.6,32.46,69.07,29.11,67.14,27.12z"/>
		<path class="st12" d="M67.01,33.65c0.99-2.24,0.96-4.62,0.13-6.53c-0.51-0.53-1.13-0.97-1.83-1.28c-3.33-1.47-7.42,0.48-9.13,4.35
			c-0.99,2.24-0.96,4.62-0.13,6.53c0.51,0.53,1.13,0.97,1.83,1.28C61.21,39.47,65.3,37.52,67.01,33.65z"/>
		
			<ellipse transform="matrix(0.4037 -0.9149 0.9149 0.4037 9.0383 73.4633)" class="st13" cx="60.88" cy="29.8" rx="2.72" ry="1.51"/>
	</g>
</g>
</svg>
