<?xml version="1.0" encoding="utf-8"?>
<!-- Generator: Adobe Illustrator 23.1.1, SVG Export Plug-In . SVG Version: 6.00 Build 0)  -->
<svg version="1.1" id="Layer_1" xmlns="http://www.w3.org/2000/svg" xmlns:xlink="http://www.w3.org/1999/xlink" x="0px" y="0px"
	 viewBox="0 0 108 108" style="enable-background:new 0 0 108 108;" xml:space="preserve">
<style type="text/css">
	.st0{fill-rule:evenodd;clip-rule:evenodd;fill:#79A23F;}
	.st1{opacity:0.34;fill:#68431A;}
	.st2{fill:none;stroke:#718537;stroke-width:0.6452;stroke-miterlimit:10;}
	.st3{fill:#A5C239;}
	.st4{fill:#84B541;}
	.st5{fill:#91BB3E;}
	.st6{fill:#AFCB36;}
	.st7{fill:#92B83F;}
	.st8{fill:#A5BE3B;}
	.st9{fill:#A4C839;}
	.st10{fill:#72AA42;}
	.st11{fill:#684A1F;}
	.st12{fill:#A68150;}
	.st13{fill:#916027;}
	.st14{fill:#523A16;}
</style>
<g>
	<g>
		<path class="st0" d="M74.31,77.9c-0.09-0.04-0.1-0.08-0.14-0.13c0,0,0,0,0.02,0.02C74.22,77.84,74.29,77.86,74.31,77.9
			c3.48,2.49,10.03-3.91,3.73-6.43c-0.3,0.04-0.67-0.08-0.96-0.31h0c0.34,0.11,0.62,0.21,0.95,0.31c0.58,0.02,1.14-0.31,1.52-0.73
			c1.13,0.13,2.5-0.86,1.27-2.53c1.61,0.31,1.55-1.34,0.92-2.24c2.86-0.25,4.86-2.13,5.27-4.81c0.5-3.01-0.99-7.4-4.27-8.13
			c-0.07-0.11-0.08-0.19-0.11-0.25c1.87-0.33,2.69-1.8,1.2-3.32c1.93-0.46,1.6-3.57-1.71-1.71c3.16-0.77,3.01-5.27,0.93-6.39
			c0-0.94-0.16-1.82-0.56-2.57c-0.89-1.82-2.96-2.99-5.13-3.09c0.1-1.97-1.91-3.32-3.75-2.72c-0.56-0.94-1.4-1.71-2.36-2.09
			c0.73-2.42-3.16-4.47-4.79-1.67c0.11-1.21-0.66-1.98-1.59-2.28c-0.61-1.4-1.94-1.51-3.2-1.04c-0.16-0.11-0.35-0.15-0.53-0.25
			c-0.27-2.57-2.04-4.85-4.27-5.45c-2.73-0.79-6.14,1.04-7.09,3.95c-0.29-0.02-0.56-0.08-0.81-0.02c-2.3-2.88-9.46-1.48-6.32,3.8
			c0.2,0.17,0.35,0.44,0.48,0.69c0,0,0,0,0.02,0.02c-0.18-0.27-0.34-0.46-0.5-0.71c-1.25-0.98-3.64,0.06-3.13,1.67
			c-0.92,0.06-1.78,0.42-2.36,1.02c-2.55-2.24-5.72-2.03-7.92,0.06c-2.45,2.34-4.09,7.56-0.67,9.95c-1.95-1.84-4.2-1.23-3.88,1.3
			c-1.85-0.81-3.44,1.88,0.31,2.38c-3.85-1.65-7.18,4.93-2.81,5.93c-3.26,0.33-2.86,5.24,0.35,5.72c-2.35,1.07-2.09,3.66-0.58,4.81
			c-0.2,0.71,0,1.48,1.33,1.88c-1.15,0.54-0.81,1.4-0.13,1.94c-1.61,1.61,0.19,5.14,3,3.97c-0.78,0.88-0.65,1.98-0.07,2.78
			c-0.36,1.5,0.61,2.42,1.88,2.78c0.3,0.96,0.88,1.42,1.77,1.53c0.1,0.38,0.47,0.77,1.07,1.11c0.42,1.25,1.37,1.76,2.09,1.28
			c0.05-0.15,0.13-0.31,0.24-0.46c0.03,0,0.11,0.04,0.16,0.02c-0.13,0.17-0.25,0.35-0.4,0.44c-0.49,1.46,1.12,2.86,2.77,3.3
			c0.02,0.71,0.45,1.23,1.04,1.63c0.45,1.78,1.56,3.38,3.07,4.05c2.61,1.27,6.33,0.08,7.74-2.68c0.14-0.06,0.33,0,0.46-0.06
			c0.06,0.06,0.18,0.11,0.24,0.17c1.26,2.49,5.83,3.09,7.02,0.67c1.11,0.33,2.41,0.11,3.4-0.56c0.71-0.15,1.33-0.65,1.59-1.46
			c0.59,1.94,3.15,1.02,2.81-1.17c0.02,0.02,0.07,0.02,0.1,0c1.1,3.68,5.34,5.5,8.23,4.35C74.38,85.11,76.06,80.93,74.31,77.9z"/>
		<path class="st1" d="M81.56,61.23l-1.99-0.42l-3.97-0.91l-0.02,0l-0.15-0.01c-1.14-0.08-2.28-0.08-3.42-0.04
			c-1.07,0.04-2.15,0.11-3.21,0.39c-0.29-0.48-0.73-0.53-1.12-0.74l-1.28-0.56l-2.55-1.12c-0.95-0.4-1.9-0.79-2.85-1.18
			c0.27-1.07,0.39-2.01,0.29-2.84c1.05-0.5,2.1-1.06,3.09-1.71c0.37-0.24,0.72-0.5,1.07-0.76c0.19,0.13,0.4,0.13,0.61,0.17
			l1.09,0.18l2.17,0.37l4.36,0.67c1.46,0.21,2.91,0.41,4.38,0.59c1.47,0.16,2.93,0.35,4.41,0.48l0.25-1.16
			c-1.43-0.38-2.87-0.7-4.31-1.04c-1.44-0.32-2.89-0.63-4.34-0.93l-4.35-0.85l-2.08-0.38c0.68-0.7,1.33-1.44,1.88-2.24
			c0.72-1.03,1.3-2.14,1.78-3.28l7.64-0.76l-0.05-1.19l-6.87-0.05c0.12-0.37,0.24-0.75,0.33-1.13c0.62-2.24,0.76-4.54,0.89-6.81
			l-1.19-0.06c-0.25,2.19-0.52,4.38-1.22,6.44c-0.66,2.06-1.6,4.01-2.9,5.67c-1.29,1.67-2.93,3.01-4.77,4.05
			c-1.11,0.64-2.3,1.15-3.53,1.63c-0.58-0.31-1.15-0.56-1.4-0.77c-0.37-0.31-0.9-0.76-1.45-1.15l-0.81-12.59
			c0.06-0.05,0.13-0.11,0.19-0.16l0.65-0.51l1.36-1.02l2.77-2l5.6-3.93l-0.65-0.99l-5.81,3.65l-2.89,1.87l-1.36,0.92l-0.53-8.23
			l-1.19,0.04l0.1,9.46c-0.01,0.01-0.02,0.02-0.03,0.03l0.03,0.02l0.05,4.71c-0.03-0.03-0.05-0.05-0.08-0.08
			c-0.6-0.57-1.22-1.11-1.85-1.64c-0.09-0.07-0.18-0.13-0.27-0.21l-3.05-10.74l-1.15,0.3l2.03,8.81c-0.5-0.36-1.01-0.71-1.53-1.05
			c-1.36-0.9-2.78-1.72-4.21-2.49c-1.44-0.76-2.92-1.45-4.4-2.11l-0.49,1.08c1.44,0.69,2.87,1.41,4.26,2.2
			c1.39,0.78,2.77,1.59,4.08,2.48c1.32,0.89,2.6,1.83,3.81,2.84c0.6,0.51,1.2,1.03,1.75,1.58c0.28,0.27,0.55,0.55,0.82,0.84
			c0.1,0.1,0.19,0.21,0.29,0.32l0.06,6.02c-0.84,0.36-1.45,0.98-1.45,0.98s-0.4,0.34-0.91,0.83l-10.27-5.34
			c-0.33-0.67-0.82-1.23-1.21-1.85l-1.76-2.57c-1.21-1.69-2.41-3.39-3.68-5.04l-0.99,0.66c1.04,1.8,2.16,3.56,3.27,5.32l1.71,2.61
			c0.3,0.41,0.55,0.87,0.84,1.29c-0.66,0-1.31,0.07-1.96,0.09l-3.54,0.2c-2.36,0.17-4.71,0.35-7.07,0.61l0.06,1.19
			c2.37,0.04,4.73-0.02,7.09-0.07l3.54-0.14c0.89-0.06,1.78-0.01,2.66-0.2l2.71,1.65l-6.61,3.94l-10.94,1.78l0.19,1.17l11.04-1.8
			l0.06-0.01l0.11-0.05l8.62-3.54l4.12,2.51c-0.09,0.18-0.15,0.35-0.18,0.5c-0.17,1.04,0.37,2.13,0.65,3.38l-4.6,3.74l-19.87-1.1
			l-0.09,1.18l11.8,1.23L28.6,69.4l0.69,0.97l11.74-7.68l3.95,0.41l-0.54,4.08c-0.13,0.95-0.25,1.89-0.38,2.84l-12.07,4.15
			l0.35,1.14l11.33-3.01c-0.01,0.02-0.01,0.05-0.01,0.07l-1.97,10.32l1.16,0.24l2.36-10.27c0.44-1.7,0.67-3.45,0.98-5.18l0.81-4.74
			l3.9-2.34c0.17,0.2,0.47,0.34,1,0.48c0.56,0.15,1.06,0.24,1.48,0.3l2.06,12.31l-4.1,12.01l1.11,0.41l4.08-10.33l6.54,9.51l1-0.64
			l-6.84-11.38l-0.73-12.19c0.63-0.19,1.2-0.36,1.2-0.36s1.24-0.63,2.17-1.59c1.06,0.37,2.12,0.73,3.18,1.08l2.66,0.84l1.33,0.42
			c0.19,0.04,0.38,0.12,0.57,0.18l0.78,3.93l0.44,2.16l0.23,1.09l0.14,0.6c0.03,0.13,0.1,0.29,0.18,0.43l0.15,0.26
			c0.79,1.28,1.6,2.49,2.41,3.73l2.44,3.67l1.01-0.63l-2.19-3.81c-0.72-1.27-1.46-2.56-2.13-3.81l-0.11-0.22
			c0-0.02-0.02-0.02-0.02-0.08l-0.08-0.48l-0.16-1.08l-0.3-2.17l-0.46-3.47c0.73,0.03,1.46-0.01,2.19-0.07
			c0.63-0.05,1.26-0.12,1.89-0.2l4.75,11.44l1.11-0.41l-3.61-11.07l3.07,0.7l2.01,0.42c0.7,0.13,1.3,0.27,2.13,0.33v-1.19
			C82.93,61.5,82.2,61.35,81.56,61.23z"/>
		<g>
			<path class="st2" d="M70.15,78.26c-0.04-1.54-0.65-4.31-1.07-6.27"/>
			<path class="st2" d="M74.23,76.27c-2.04-0.82-4.65-2.66-5.94-4.65"/>
			<path class="st2" d="M74.94,72.26c-2.31,1.12-4.24,2.41-5.83,0.09"/>
			<path class="st2" d="M65.63,67.86c-2.45-1.9-4.78-4.41-5.68-6.62"/>
			<path class="st2" d="M60.61,69.68c0.28-3.2-0.59-8.1-0.71-9.1"/>
			<path class="st2" d="M64.94,63.6c-1.9,0.6-2.97,1.52-4.84-1.63"/>
			<path class="st3" d="M66.83,81.27c-0.2-1.23-0.82-1.48,1.23-3.66c2.05-2.18,2.05-2.18,2.05-2.18s0.41,0.47,0.88,1.01
				c0.48,0.53,2.5,2.33,1.59,4.41c-0.91,2.09-1.7,3.22-2.01,3.55c-0.31,0.33-1.12,1.64-1.34,1.96"/>
			<path class="st4" d="M81.26,81.9c-1.49-0.62-3.64,0.72-5.45-0.55s-2.85-4.42-3.28-5.32s-1.17-0.51,0.54-0.55
				c1.71-0.03,1.81-0.61,3.29-0.26c1.49,0.35,3.54,2.57,3.68,3.49S81.26,81.9,81.26,81.9z"/>
			<path class="st5" d="M72.33,73.55c0.45,0,0.94,0.36,3.1,0.4c2.15,0.03,3.85-0.2,4.23-1.84c0.38-1.64-0.15-1.97,0.77-3.05
				s0.92-1.08,0.92-1.08s-1.85-0.06-4.44,0.01c-2.58,0.07-3.79,2.68-4.11,3.78S72.33,73.55,72.33,73.55z"/>
			<path class="st6" d="M71.17,73.58c0,0-0.99-1.1-3.03-1.11c-2.03-0.01-4.26-1.01-4.26-3.16s-0.7-3.34-0.7-3.34
				s-0.04,0.31,1.73,0.17c1.77-0.14,4.28,1.08,4.99,2.84C70.61,70.73,71.17,73.58,71.17,73.58z"/>
			<path class="st7" d="M58.95,76.31c0,0,2.62-2.62,3.42-4.4c0.8-1.78,1.02-2.84-0.02-4.1s-1.42-2.28-1.42-2.28s-1.48,2.2-2.44,2.71
				c-0.97,0.51-2.04,2.31-1.52,3.38C57.49,72.69,58.95,76.31,58.95,76.31z"/>
			<path class="st8" d="M63.04,64.19c0,0.03,1.57,0.68,3.43,0.91c1.87,0.22,2.87,0.21,3.61-0.72c0.73-0.93,1.23-1.91,1.75-2.99
				c0.52-1.08,0.59-1.52,1.02-1.63c0.43-0.1-0.54,0.38-2.6-0.13c-2.06-0.51-3.04-1.07-3.9-0.4c-0.85,0.67-0.83,1.91-1.52,2.91
				C64.14,63.13,63.04,64.19,63.04,64.19z"/>
		</g>
		<g>
			<path class="st2" d="M35.98,78.55c1.49-0.42,4.02-1.68,5.81-2.58"/>
			<path class="st2" d="M38.91,82.02c0.29-2.17,1.44-5.16,3.05-6.9"/>
			<path class="st2" d="M42.96,81.72c-1.65-1.97-3.37-3.52-1.51-5.63"/>
			<path class="st2" d="M44.95,71.62c1.24-2.84,3.11-5.72,5.03-7.13"/>
			<path class="st2" d="M41.96,67.19c3.17-0.51,7.7-2.56,8.65-2.92"/>
			<path class="st2" d="M48.91,69.9c-1.04-1.69-2.2-2.51,0.4-5.09"/>
			<path class="st4" d="M32.24,76.07c1.14-0.49,1.24-1.16,3.85,0.29c2.61,1.45,2.61,1.45,2.61,1.45s-0.36,0.51-0.76,1.1
				c-0.4,0.59-1.64,2.99-3.89,2.62c-2.25-0.37-3.54-0.86-3.94-1.08c-0.39-0.22-1.86-0.68-2.23-0.82"/>
			<path class="st9" d="M35.17,90.21c0.24-1.6-1.59-3.35-0.8-5.42c0.79-2.07,3.58-3.84,4.36-4.49c0.77-0.64,0.21-1.26,0.66,0.39
				s1.04,1.6,1.06,3.13c0.02,1.53-1.63,4.06-2.48,4.42C37.11,88.6,35.17,90.21,35.17,90.21z"/>
			<path class="st5" d="M41.07,79.51c0.11,0.43-0.12,1,0.37,3.1s1.14,3.68,2.82,3.64c1.68-0.04,1.87-0.63,3.15,0
				s1.27,0.63,1.27,0.63s-0.4-1.81-1.1-4.3c-0.7-2.49-3.53-3.02-4.67-3.06C41.78,79.5,41.07,79.51,41.07,79.51z"/>
			<path class="st6" d="M40.77,78.39c0,0,0.82-1.23,0.33-3.21s-0.06-4.38,2.02-4.91c2.09-0.53,3.07-1.49,3.07-1.49
				s-0.31,0.03,0.26,1.72c0.57,1.68,0.01,4.42-1.53,5.54C43.39,77.15,40.77,78.39,40.77,78.39z"/>
			<path class="st7" d="M35.12,67.21c0,0,3.19,1.9,5.1,2.24c1.92,0.34,3,0.3,3.97-1.02c0.97-1.32,1.86-1.94,1.86-1.94
				s-2.49-0.89-3.23-1.7s-2.74-1.41-3.65-0.64C38.27,64.91,35.12,67.21,35.12,67.21z"/>
			<path class="st8" d="M47.87,68.21c-0.03,0.01-0.28,1.69-0.04,3.55c0.24,1.86,0.5,2.84,1.58,3.32c1.08,0.48,2.15,0.72,3.33,0.96
				c1.18,0.24,1.62,0.2,1.82,0.59c0.2,0.39-0.5-0.43-0.51-2.55c-0.01-2.12,0.3-3.21-0.57-3.88c-0.86-0.66-2.06-0.33-3.19-0.76
				C49.16,69.01,47.87,68.21,47.87,68.21z"/>
		</g>
		<g>
			<path class="st2" d="M27.93,47.09c0.49,1.46,1.88,3.93,2.86,5.68"/>
			<path class="st2" d="M24.61,50.19c2.19,0.18,5.22,1.18,7.04,2.7"/>
			<path class="st2" d="M25.11,54.22c1.89-1.75,3.34-3.54,5.55-1.79"/>
			<path class="st2" d="M35.3,55.7c2.9,1.09,5.86,2.82,7.37,4.66"/>
			<path class="st2" d="M39.57,52.49c0.67,3.14,2.94,7.57,3.35,8.5"/>
			<path class="st2" d="M37.21,59.57c1.64-1.13,2.4-2.32,5.11,0.14"/>
			<path class="st3" d="M30.22,43.23c0.55,1.12,1.22,1.18-0.1,3.86c-1.32,2.68-1.32,2.68-1.32,2.68s-0.53-0.33-1.14-0.7
				c-0.61-0.37-3.07-1.49-2.81-3.75c0.26-2.26,0.68-3.58,0.88-3.98s0.59-1.89,0.71-2.26"/>
			<path class="st4" d="M16.24,46.87c1.61,0.16,3.27-1.76,5.37-1.08s4.02,3.39,4.7,4.13s1.27,0.15-0.35,0.68
				c-1.63,0.53-1.55,1.11-3.07,1.21c-1.53,0.1-4.14-1.42-4.54-2.26S16.24,46.87,16.24,46.87z"/>
			<path class="st5" d="M27.23,52.23c-0.43,0.13-1.01-0.07-3.08,0.53c-2.07,0.6-3.62,1.32-3.5,3c0.12,1.68,0.73,1.84,0.16,3.14
				c-0.57,1.3-0.57,1.3-0.57,1.3s1.79-0.49,4.24-1.31c2.45-0.82,2.84-3.68,2.82-4.82C27.28,52.93,27.23,52.23,27.23,52.23z"/>
			<path class="st6" d="M28.33,51.86c0,0,1.27,0.76,3.22,0.17c1.95-0.59,4.37-0.28,5,1.77c0.63,2.06,1.65,2.99,1.65,2.99
				s-0.05-0.31-1.7,0.35c-1.65,0.65-4.41,0.23-5.61-1.25C29.7,54.42,28.33,51.86,28.33,51.86z"/>
			<path class="st7" d="M39.21,45.66c0,0-1.73,3.28-1.98,5.21c-0.25,1.93-0.15,3.01,1.22,3.91c1.36,0.9,2.03,1.76,2.03,1.76
				s0.77-2.53,1.54-3.31c0.78-0.77,1.27-2.81,0.46-3.67C41.67,48.69,39.21,45.66,39.21,45.66z"/>
			<path class="st8" d="M38.85,58.45c-0.01-0.03-1.7-0.19-3.55,0.14s-2.81,0.64-3.24,1.75s-0.61,2.19-0.79,3.37
				c-0.18,1.19-0.11,1.63-0.49,1.85s0.41-0.52,2.52-0.63s3.22,0.13,3.84-0.76c0.62-0.89,0.23-2.07,0.6-3.23
				C38.12,59.78,38.85,58.45,38.85,58.45z"/>
		</g>
		<g>
			<path class="st2" d="M52.12,84.12c0.82-1.31,1.85-3.94,2.58-5.81"/>
			<path class="st2" d="M56.62,84.73c-1.24-1.81-2.4-4.79-2.37-7.16"/>
			<path class="st2" d="M59.43,81.78c-2.55-0.35-4.86-0.34-4.9-3.15"/>
			<path class="st2" d="M54.11,72.96c-0.99-2.93-1.54-6.32-1.06-8.66"/>
			<path class="st2" d="M48.93,71.7c2-2.51,3.99-7.07,4.45-7.98"/>
			<path class="st2" d="M55.9,69.03c-1.91-0.55-3.31-0.38-3.13-4.04"/>
			<path class="st3" d="M47.68,84.8c0.52-1.13,0.14-1.69,3.05-2.37c2.91-0.68,2.91-0.68,2.91-0.68s0.08,0.62,0.18,1.33
				c0.1,0.71,0.79,3.32-1.12,4.55s-3.2,1.75-3.64,1.85c-0.44,0.1-1.84,0.75-2.2,0.89"/>
			<path class="st4" d="M59.36,93.31c-0.9-1.35-3.43-1.42-4.24-3.48c-0.81-2.06,0.07-5.25,0.21-6.25c0.14-0.99-0.69-1.08,0.75-0.16
				c1.44,0.92,1.84,0.49,2.88,1.61c1.04,1.12,1.53,4.1,1.13,4.94C59.71,90.82,59.36,93.31,59.36,93.31z"/>
			<path class="st5" d="M56.54,81.41c0.37,0.25,0.59,0.83,2.36,2.05c1.77,1.22,3.32,1.96,4.54,0.81c1.22-1.16,0.96-1.73,2.33-2.11
				s1.37-0.39,1.37-0.39s-1.51-1.07-3.7-2.45c-2.19-1.37-4.64,0.14-5.51,0.88C57.05,80.93,56.54,81.41,56.54,81.41z"/>
			<path class="st6" d="M55.56,80.79c0,0-0.22-1.46-1.91-2.6s-2.99-3.2-1.8-4.99c1.19-1.79,1.27-3.17,1.27-3.17s-0.21,0.23,1.35,1.1
				c1.55,0.87,2.97,3.27,2.59,5.13S55.56,80.79,55.56,80.79z"/>
			<path class="st7" d="M43.87,76.3c0,0,3.63-0.74,5.29-1.77c1.65-1.04,2.42-1.8,2.25-3.42c-0.17-1.63,0.08-2.68,0.08-2.68
				s-2.45,1.01-3.54,0.91c-1.09-0.11-2.98,0.8-3.13,1.97C44.66,72.48,43.87,76.3,43.87,76.3z"/>
			<path class="st8" d="M53.99,68.48c-0.02,0.03,0.93,1.44,2.36,2.66c1.43,1.22,2.27,1.77,3.4,1.4c1.13-0.37,2.08-0.91,3.11-1.52
				c1.03-0.61,1.33-0.94,1.75-0.79c0.41,0.15-0.66,0.02-2.09-1.55c-1.43-1.56-1.94-2.58-3.02-2.49c-1.08,0.09-1.75,1.14-2.88,1.58
				C55.48,68.2,53.99,68.48,53.99,68.48z"/>
		</g>
		<g>
			<path class="st2" d="M65.16,32.29c-1.52,0.26-4.17,1.25-6.05,1.95"/>
			<path class="st2" d="M62.61,28.53c-0.52,2.13-1.98,4.98-3.76,6.54"/>
			<path class="st2" d="M58.55,28.4c1.43,2.13,2.98,3.85,0.91,5.76"/>
			<path class="st2" d="M55.5,38.23c-1.53,2.69-3.69,5.36-5.75,6.56"/>
			<path class="st2" d="M58.01,42.95c-3.2,0.17-7.93,1.73-8.91,1.99"/>
			<path class="st2" d="M51.38,39.52c0.86,1.79,1.92,2.73-0.93,5.02"/>
			<path class="st3" d="M68.61,35.15c-1.19,0.37-1.35,1.02-3.79-0.7c-2.44-1.72-2.44-1.72-2.44-1.72s0.41-0.47,0.87-1.02
				s1.95-2.8,4.14-2.2c2.2,0.61,3.43,1.23,3.8,1.49c0.37,0.26,1.78,0.87,2.13,1.05"/>
			<path class="st9" d="M67.19,20.78c-0.41,1.57,1.23,3.5,0.23,5.48s-3.97,3.44-4.81,4c-0.84,0.56-0.34,1.23-0.62-0.45
				c-0.27-1.69-0.86-1.7-0.72-3.22c0.14-1.52,2.05-3.87,2.94-4.14C65.1,22.17,67.19,20.78,67.19,20.78z"/>
			<path class="st4" d="M60.19,30.79c-0.06-0.44,0.23-0.99-0.04-3.12c-0.27-2.14-0.74-3.78-2.42-3.92s-1.93,0.43-3.13-0.33
				c-1.2-0.76-1.2-0.76-1.2-0.76s0.21,1.84,0.64,4.39c0.43,2.55,3.19,3.37,4.32,3.53C59.49,30.74,60.19,30.79,60.19,30.79z"/>
			<path class="st6" d="M60.38,31.95c0,0-0.95,1.14-0.67,3.15c0.28,2.02-0.4,4.36-2.53,4.67c-2.13,0.3-3.21,1.16-3.21,1.16
				s0.31,0-0.08-1.73c-0.39-1.73,0.46-4.39,2.1-5.34C57.64,32.9,60.38,31.95,60.38,31.95z"/>
			<path class="st7" d="M64.81,43.66c0,0-2.97-2.22-4.84-2.76c-1.87-0.54-2.95-0.61-4.06,0.6c-1.1,1.21-2.05,1.73-2.05,1.73
				s2.39,1.15,3.03,2.04c0.64,0.89,2.57,1.69,3.56,1.03C61.44,45.61,64.81,43.66,64.81,43.66z"/>
			<path class="st8" d="M52.24,41.32c0.03-0.01,0.46-1.65,0.41-3.53c-0.04-1.88-0.2-2.87-1.22-3.47c-1.03-0.6-2.07-0.95-3.21-1.31
				c-1.15-0.36-1.59-0.37-1.75-0.78c-0.16-0.41,0.45,0.48,0.23,2.59s-0.63,3.16,0.15,3.91c0.79,0.75,2.01,0.55,3.09,1.09
				C51.04,40.38,52.24,41.32,52.24,41.32z"/>
		</g>
		<g>
			<path class="st2" d="M35.27,33.26c-0.14,1.54,0.14,4.35,0.33,6.35"/>
			<path class="st2" d="M30.99,34.76c1.93,1.05,4.3,3.19,5.35,5.32"/>
			<path class="st2" d="M29.82,38.65c2.43-0.84,4.49-1.89,5.8,0.6"/>
			<path class="st2" d="M38.54,44.12c2.21,2.17,4.23,4.94,4.86,7.24"/>
			<path class="st2" d="M43.74,42.9c-0.65,3.14-0.37,8.11-0.37,9.13"/>
			<path class="st2" d="M38.73,48.43c1.95-0.37,3.13-1.16,4.61,2.19"/>
			<path class="st3" d="M38.93,30.65c0.05,1.24,0.64,1.57-1.65,3.49c-2.29,1.92-2.29,1.92-2.29,1.92s-0.35-0.52-0.76-1.1
				s-2.21-2.6-1.06-4.57c1.15-1.97,2.07-3,2.41-3.29s1.3-1.5,1.56-1.78"/>
			<path class="st9" d="M24.67,28.34c1.41,0.79,3.7-0.29,5.35,1.19c1.65,1.47,2.31,4.72,2.63,5.67s1.11,0.65-0.6,0.48
				c-1.7-0.17-1.87,0.39-3.3-0.13c-1.43-0.53-3.21-2.97-3.24-3.9C25.48,30.72,24.67,28.34,24.67,28.34z"/>
			<path class="st4" d="M32.56,37.68c-0.44-0.05-0.9-0.47-3.03-0.76c-2.13-0.29-3.85-0.25-4.41,1.33c-0.57,1.59-0.08,1.98-1.12,2.94
				c-1.04,0.96-1.04,0.96-1.04,0.96s1.83,0.27,4.41,0.51c2.57,0.24,4.08-2.22,4.52-3.27C32.32,38.34,32.56,37.68,32.56,37.68z"/>
			<path class="st6" d="M33.72,37.79c0,0,0.86,1.21,2.88,1.46c2.02,0.25,4.11,1.51,3.86,3.64c-0.25,2.14,0.3,3.4,0.3,3.4
				s0.08-0.3-1.7-0.37c-1.77-0.07-4.13-1.57-4.63-3.4C33.94,40.68,33.72,37.79,33.72,37.79z"/>
			<path class="st7" d="M46.17,36.51c0,0-2.91,2.3-3.91,3.97s-1.35,2.7-0.47,4.07s1.14,2.43,1.14,2.43s1.72-2.01,2.75-2.4
				s2.3-2.05,1.9-3.18C47.2,40.27,46.17,36.51,46.17,36.51z"/>
			<path class="st8" d="M40.68,48.06c0-0.03-1.47-0.86-3.3-1.31c-1.83-0.44-2.83-0.55-3.67,0.29s-1.45,1.75-2.09,2.77
				c-0.64,1.01-0.76,1.44-1.2,1.49c-0.44,0.05,0.58-0.31,2.56,0.44s2.89,1.42,3.82,0.86s1.04-1.8,1.85-2.71
				C39.47,48.99,40.68,48.06,40.68,48.06z"/>
		</g>
		<g>
			<path class="st2" d="M51.1,29.32c-1.1,1.08-2.71,3.41-3.85,5.06"/>
			<path class="st2" d="M46.86,27.7c0.79,2.05,1.23,5.21,0.66,7.52"/>
			<path class="st2" d="M43.45,29.91c2.4,0.93,4.65,1.45,4.04,4.2"/>
			<path class="st2" d="M46.58,39.72c0.29,3.08,0.04,6.5-0.96,8.67"/>
			<path class="st2" d="M51.34,42.15c-2.53,1.98-5.52,5.96-6.17,6.73"/>
			<path class="st2" d="M43.94,43.14c1.73,0.98,3.14,1.14,2.11,4.65"/>
			<path class="st3" d="M55.57,29.69c-0.76,0.98-0.52,1.61-3.51,1.6c-2.99-0.01-2.99-0.01-2.99-0.01s0.07-0.62,0.13-1.33
				s-0.01-3.41,2.14-4.17c2.15-0.76,3.52-0.96,3.97-0.96s1.96-0.3,2.35-0.35"/>
			<path class="st9" d="M46.18,18.72c0.56,1.52,3.01,2.17,3.32,4.36c0.31,2.19-1.28,5.1-1.65,6.03c-0.37,0.93,0.43,1.21-0.77-0.02
				c-1.19-1.23-1.68-0.9-2.44-2.23s-0.54-4.34,0.04-5.07C45.26,21.06,46.18,18.72,46.18,18.72z"/>
			<path class="st4" d="M46.17,30.94c-0.3-0.32-0.38-0.94-1.82-2.54s-2.77-2.68-4.23-1.83c-1.46,0.85-1.34,1.46-2.76,1.52
				c-1.42,0.06-1.42,0.06-1.42,0.06s1.22,1.39,3.03,3.24s4.55,0.94,5.57,0.42C45.56,31.29,46.17,30.94,46.17,30.94z"/>
			<path class="st6" d="M46.98,31.77c0,0-0.13,1.48,1.26,2.97s2.17,3.81,0.6,5.27c-1.57,1.47-1.97,2.79-1.97,2.79
				s0.25-0.18-1.06-1.38c-1.31-1.2-2.14-3.87-1.33-5.59C45.28,34.12,46.98,31.77,46.98,31.77z"/>
			<path class="st7" d="M57.32,38.84c0,0-3.7-0.12-5.55,0.5s-2.77,1.19-2.98,2.81c-0.21,1.62-0.69,2.59-0.69,2.59
				s2.61-0.42,3.65-0.06s3.08-0.09,3.51-1.2C55.67,42.38,57.32,38.84,57.32,38.84z"/>
			<path class="st8" d="M45.67,44.12c0.02-0.02-0.57-1.61-1.68-3.13c-1.11-1.52-1.81-2.25-2.99-2.15c-1.18,0.1-2.24,0.41-3.38,0.76
				s-1.51,0.61-1.88,0.37s0.65,0.14,1.68,1.99c1.03,1.85,1.29,2.96,2.37,3.12c1.07,0.17,1.96-0.7,3.16-0.87
				C44.15,44.04,45.67,44.12,45.67,44.12z"/>
		</g>
		<g>
			<path class="st2" d="M27.89,64.3c1.43,0.57,4.21,1.11,6.18,1.49"/>
			<path class="st2" d="M28.1,68.83c1.56-1.55,4.28-3.22,6.62-3.62"/>
			<path class="st2" d="M31.5,71.06c-0.11-2.57-0.54-4.84,2.22-5.39"/>
			<path class="st2" d="M39.22,64.25c2.71-1.5,5.94-2.65,8.33-2.6"/>
			<path class="st2" d="M39.54,58.92c2.83,1.52,7.67,2.65,8.65,2.94"/>
			<path class="st2" d="M43.41,65.29c0.2-1.98-0.22-3.33,3.41-3.8"/>
			<path class="st3" d="M26.43,60.05c1.21,0.3,1.69-0.17,2.88,2.57c1.19,2.74,1.19,2.74,1.19,2.74s-0.59,0.19-1.27,0.42
				c-0.68,0.23-3.12,1.38-4.68-0.28c-1.56-1.66-2.29-2.83-2.47-3.25c-0.18-0.41-1.07-1.67-1.27-2.01"/>
			<path class="st9" d="M20.16,73.06c1.16-1.13,0.78-3.63,2.66-4.79C24.7,67.11,28,67.4,29,67.36c1-0.04,0.94-0.88,0.29,0.71
				c-0.65,1.59-0.15,1.9-1.06,3.13s-3.76,2.24-4.66,2C22.67,72.96,20.16,73.06,20.16,73.06z"/>
			<path class="st4" d="M31.35,68.16c-0.17,0.41-0.71,0.72-1.59,2.69c-0.88,1.97-1.34,3.62,0.02,4.61c1.36,0.99,1.87,0.64,2.5,1.91
				c0.63,1.28,0.63,1.28,0.63,1.28s0.78-1.68,1.74-4.08c0.96-2.4-0.97-4.54-1.85-5.27C31.92,68.57,31.35,68.16,31.35,68.16z"/>
			<path class="st6" d="M31.79,67.08c0,0,1.4-0.48,2.21-2.34c0.81-1.87,2.61-3.52,4.59-2.67c1.98,0.85,3.34,0.68,3.34,0.68
				s-0.26-0.16-0.84,1.52c-0.57,1.68-2.68,3.51-4.58,3.47S31.79,67.08,31.79,67.08z"/>
			<path class="st7" d="M34.1,54.77c0,0,1.38,3.44,2.69,4.88c1.32,1.44,2.2,2.06,3.77,1.6c1.57-0.46,2.65-0.41,2.65-0.41
				s-1.44-2.22-1.53-3.32c-0.09-1.09-1.32-2.78-2.5-2.73C38,54.86,34.1,54.77,34.1,54.77z"/>
			<path class="st8" d="M43.61,63.32c-0.03-0.01-1.25,1.17-2.19,2.79c-0.94,1.63-1.33,2.56-0.76,3.6c0.57,1.04,1.27,1.88,2.06,2.79
				s1.17,1.14,1.09,1.58s-0.13-0.65,1.15-2.33s2.19-2.37,1.91-3.42c-0.28-1.05-1.43-1.51-2.07-2.55S43.61,63.32,43.61,63.32z"/>
		</g>
		<g>
			<path class="st2" d="M76.81,43.33c-1.5-0.38-4.32-0.53-6.33-0.65"/>
			<path class="st2" d="M75.98,38.87c-1.33,1.74-3.81,3.76-6.07,4.48"/>
			<path class="st2" d="M72.32,37.11c0.46,2.53,1.18,4.73-1.48,5.64"/>
			<path class="st2" d="M65.58,44.9c-2.48,1.85-5.53,3.42-7.9,3.7"/>
			<path class="st2" d="M65.98,50.23c-3.01-1.13-7.96-1.6-8.96-1.76"/>
			<path class="st2" d="M61.29,44.42c0.07,1.99,0.67,3.27-2.87,4.23"/>
			<path class="st3" d="M78.82,47.34c-1.24-0.14-1.65,0.39-3.2-2.16s-1.55-2.56-1.55-2.56s0.56-0.27,1.21-0.58s2.91-1.79,4.68-0.35
				s2.65,2.5,2.88,2.89c0.23,0.39,1.28,1.51,1.52,1.82"/>
			<path class="st9" d="M83.29,33.61c-1,1.27-0.28,3.7-1.99,5.11c-1.71,1.41-5.02,1.56-6.01,1.73c-0.99,0.17-0.81,0.99-0.38-0.66
				c0.43-1.66-0.1-1.9,0.64-3.24c0.74-1.34,3.43-2.72,4.35-2.61C80.81,34.04,83.29,33.61,83.29,33.61z"/>
			<path class="st4" d="M72.86,39.97c0.12-0.43,0.6-0.81,1.21-2.88c0.61-2.07,0.84-3.76-0.64-4.56c-1.48-0.8-1.94-0.38-2.73-1.56
				c-0.79-1.18-0.79-1.18-0.79-1.18s-0.55,1.77-1.18,4.28s1.57,4.37,2.54,4.97C72.24,39.63,72.86,39.97,72.86,39.97z"/>
			<path class="st6" d="M72.57,41.1c0,0-1.32,0.66-1.88,2.62c-0.55,1.96-2.12,3.84-4.19,3.26c-2.07-0.58-3.4-0.22-3.4-0.22
				s0.28,0.12,0.62-1.62c0.34-1.74,2.19-3.84,4.07-4.05S72.57,41.1,72.57,41.1z"/>
			<path class="st7" d="M71.93,53.61c0,0-1.83-3.23-3.32-4.48s-2.46-1.74-3.95-1.08c-1.5,0.66-2.57,0.76-2.57,0.76
				s1.72,2.01,1.96,3.08c0.23,1.07,1.68,2.58,2.85,2.37S71.93,53.61,71.93,53.61z"/>
			<path class="st8" d="M61.35,46.41c0.03,0.01,1.08-1.33,1.8-3.06c0.72-1.74,0.98-2.71,0.27-3.67c-0.7-0.96-1.51-1.7-2.41-2.49
				c-0.9-0.79-1.31-0.97-1.29-1.41c0.02-0.44,0.22,0.62-0.82,2.47s-1.85,2.64-1.43,3.65c0.42,1,1.62,1.31,2.39,2.24
				C60.62,45.07,61.35,46.41,61.35,46.41z"/>
		</g>
		<g>
			<path class="st2" d="M77.83,59.18c-1.02-1.16-3.26-2.88-4.85-4.11"/>
			<path class="st2" d="M79.68,55.03c-2.09,0.68-5.27,0.95-7.54,0.26"/>
			<path class="st2" d="M77.64,51.51c-1.05,2.34-1.7,4.57-4.41,3.82"/>
			<path class="st2" d="M67.68,54.13c-3.1,0.12-6.5-0.3-8.61-1.42"/>
			<path class="st2" d="M65.01,58.75c-1.84-2.63-5.66-5.82-6.4-6.52"/>
			<path class="st2" d="M64.41,51.31c-1.07,1.68-1.3,3.07-4.76,1.86"/>
			<path class="st3" d="M77.23,63.63c-0.94-0.81-1.58-0.61-1.41-3.59c0.17-2.98,0.17-2.98,0.17-2.98s0.62,0.1,1.33,0.2
				c0.71,0.1,3.41,0.17,4.05,2.36c0.64,2.19,0.77,3.56,0.75,4.01c-0.03,0.45,0.2,1.97,0.23,2.36"/>
			<path class="st9" d="M88.68,54.82c-1.54,0.48-2.32,2.89-4.53,3.09c-2.21,0.19-5.02-1.55-5.94-1.97s-1.23,0.36,0.06-0.76
				c1.29-1.13,0.99-1.63,2.36-2.31c1.37-0.68,4.37-0.31,5.06,0.31S88.68,54.82,88.68,54.82z"/>
			<path class="st4" d="M76.48,54.18c0.34-0.29,0.96-0.33,2.63-1.69c1.67-1.36,2.82-2.63,2.05-4.13c-0.77-1.5-1.39-1.41-1.37-2.83
				c0.01-1.42,0.01-1.42,0.01-1.42s-1.46,1.15-3.39,2.86c-1.93,1.71-1.18,4.49-0.71,5.54S76.48,54.18,76.48,54.18z"/>
			<path class="st6" d="M75.6,54.94c0,0-1.47-0.2-3.03,1.1s-3.92,1.97-5.3,0.32s-2.68-2.11-2.68-2.11s0.16,0.26,1.43-0.98
				c1.27-1.24,3.97-1.93,5.65-1.04C73.34,53.12,75.6,54.94,75.6,54.94z"/>
			<path class="st7" d="M68,64.9c0,0,0.32-3.69-0.21-5.57c-0.53-1.88-1.04-2.83-2.65-3.13c-1.61-0.3-2.55-0.83-2.55-0.83
				s0.28,2.63-0.13,3.65c-0.41,1.02-0.07,3.08,1.01,3.56C64.56,63.07,68,64.9,68,64.9z"/>
			<path class="st8" d="M63.34,52.99c0.02,0.02,1.64-0.48,3.21-1.51c1.57-1.03,2.34-1.68,2.3-2.87c-0.04-1.18-0.29-2.25-0.59-3.42
				c-0.3-1.16-0.53-1.54-0.27-1.9s-0.17,0.64-2.08,1.57c-1.9,0.93-3.02,1.13-3.24,2.2c-0.22,1.06,0.6,2,0.71,3.2
				C63.5,51.47,63.34,52.99,63.34,52.99z"/>
		</g>
		<g>
			<g>
				<path class="st10" d="M52.21,62.35c-0.04-1.54-0.65-4.31-1.07-6.27"/>
				<path class="st10" d="M56.29,60.36c-2.04-0.82-4.65-2.66-5.94-4.65"/>
				<path class="st10" d="M57,56.36c-2.31,1.12-4.24,2.41-5.83,0.09"/>
				<path class="st10" d="M47.69,51.95c-2.45-1.9-4.78-4.41-5.68-6.62"/>
				<path class="st10" d="M42.67,53.77c0.28-3.2-0.59-8.1-0.71-9.1"/>
				<path class="st10" d="M47,47.69c-1.9,0.6-2.97,1.52-4.84-1.63"/>
				<g>
					<path class="st10" d="M48.89,65.37c-0.2-1.23-0.82-1.48,1.23-3.66c2.05-2.18,2.05-2.18,2.05-2.18s0.41,0.47,0.88,1.01
						c0.48,0.53,2.5,2.33,1.59,4.41c-0.91,2.09-1.7,3.22-2.01,3.55s-1.12,1.64-1.34,1.96"/>
				</g>
				<g>
					<path class="st10" d="M63.32,65.99c-1.49-0.62-3.64,0.72-5.45-0.55c-1.81-1.27-2.85-4.42-3.28-5.32
						c-0.43-0.91-1.17-0.51,0.54-0.55s1.81-0.61,3.29-0.26s3.54,2.57,3.68,3.49S63.32,65.99,63.32,65.99z"/>
				</g>
				<g>
					<path class="st10" d="M54.39,57.65c0.45,0,0.94,0.36,3.1,0.4c2.15,0.03,3.85-0.2,4.23-1.84c0.38-1.64-0.15-1.97,0.77-3.05
						c0.92-1.08,0.92-1.08,0.92-1.08s-1.85-0.06-4.44,0.01c-2.58,0.07-3.79,2.68-4.11,3.78C54.55,56.96,54.39,57.65,54.39,57.65z"/>
				</g>
				<g>
					<path class="st10" d="M53.23,57.67c0,0-0.99-1.1-3.03-1.11c-2.03-0.01-4.26-1.01-4.26-3.16c0-2.15-0.7-3.34-0.7-3.34
						s-0.04,0.31,1.73,0.17s4.28,1.08,4.99,2.84C52.67,54.82,53.23,57.67,53.23,57.67z"/>
				</g>
				<g>
					<path class="st10" d="M41,60.4c0,0,2.62-2.62,3.42-4.4c0.8-1.78,1.02-2.84-0.02-4.1c-1.04-1.26-1.42-2.28-1.42-2.28
						s-1.48,2.2-2.44,2.71c-0.97,0.51-2.04,2.31-1.52,3.38C39.55,56.79,41,60.4,41,60.4z"/>
				</g>
				<g>
					<path class="st10" d="M45.1,48.29c0,0.03,1.57,0.68,3.43,0.91s2.87,0.21,3.61-0.72s1.23-1.91,1.75-2.99s0.59-1.52,1.02-1.63
						c0.43-0.1-0.54,0.38-2.6-0.13c-2.06-0.51-3.04-1.07-3.9-0.4c-0.85,0.67-0.83,1.91-1.52,2.91C46.2,47.23,45.1,48.29,45.1,48.29z
						"/>
				</g>
			</g>
		</g>
	</g>
	<g>
		<path class="st11" d="M51.7,76.93c0.94,1.12,1.52,2.62,1.52,4.28c0,3.45-2.49,6.24-5.55,6.24c-1.19,0-2.29-0.42-3.19-1.14
			c1.01,1.21,2.45,1.96,4.04,1.96c3.07,0,5.55-2.79,5.55-6.24C54.06,79.93,53.12,78.06,51.7,76.93z"/>
		<path class="st12" d="M44.13,81.91c0-2.28,0.89-4.31,2.29-5.66c-2.03,0.93-3.47,3.17-3.47,5.78c0,1.66,0.58,3.17,1.52,4.28
			c0.53,0.42,1.14,0.74,1.78,0.93c-0.14-0.1-0.28-0.2-0.41-0.31C44.78,85.63,44.13,83.86,44.13,81.91z"/>
		<path class="st13" d="M53.21,81.22c0-1.66-0.58-3.17-1.52-4.28c-0.42-0.33-0.88-0.6-1.38-0.79c-0.14,0.55-0.9,0.97-1.82,0.97
			c-0.92,0-1.67-0.42-1.82-0.97c-0.09,0.04-0.18,0.07-0.27,0.11c-1.4,1.34-2.29,3.38-2.29,5.66c0,1.95,0.65,3.72,1.71,5.03
			c0.13,0.11,0.27,0.21,0.41,0.31c0.45,0.13,0.92,0.2,1.41,0.2C50.73,87.46,53.21,84.66,53.21,81.22z"/>
		<path class="st14" d="M48.5,77.11c0.92,0,1.67-0.42,1.82-0.97c-0.57-0.22-1.18-0.34-1.82-0.34c-0.64,0-1.25,0.12-1.82,0.34
			C46.83,76.69,47.59,77.11,48.5,77.11z"/>
	</g>
	<g>
		<path class="st11" d="M31.84,68.46c0.52,1.37,0.56,2.98,0.02,4.54c-1.14,3.25-4.41,5.07-7.3,4.06c-1.12-0.39-2.02-1.15-2.64-2.13
			c0.56,1.47,1.66,2.66,3.16,3.18c2.89,1.01,6.17-0.8,7.3-4.06C33.08,72.06,32.82,69.99,31.84,68.46z"/>
		<path class="st12" d="M23.05,70.66c0.75-2.15,2.27-3.78,4.03-4.58c-2.23,0.2-4.32,1.84-5.18,4.31c-0.55,1.57-0.5,3.18,0.02,4.54
			c0.36,0.57,0.83,1.07,1.38,1.47c-0.1-0.14-0.19-0.28-0.28-0.43C22.44,74.38,22.41,72.5,23.05,70.66z"/>
		<path class="st13" d="M31.86,73c0.55-1.57,0.5-3.18-0.02-4.54c-0.29-0.45-0.63-0.86-1.04-1.2c-0.32,0.47-1.17,0.61-2.03,0.31
			c-0.86-0.3-1.44-0.95-1.4-1.51c-0.1,0-0.19,0.01-0.29,0.02c-1.76,0.81-3.28,2.43-4.03,4.58c-0.64,1.84-0.61,3.73-0.04,5.32
			c0.09,0.15,0.18,0.29,0.28,0.43c0.38,0.27,0.8,0.5,1.26,0.66C27.45,78.07,30.72,76.25,31.86,73z"/>
		<path class="st14" d="M28.77,67.57c0.86,0.3,1.72,0.16,2.03-0.31c-0.46-0.4-1-0.71-1.6-0.93c-0.6-0.21-1.22-0.3-1.83-0.28
			C27.33,66.62,27.91,67.26,28.77,67.57z"/>
	</g>
	<g>
		<path class="st11" d="M25.85,48.7c1.27,0.71,2.35,1.92,2.93,3.47c1.22,3.22-0.12,6.72-2.99,7.8c-1.11,0.42-2.29,0.42-3.39,0.07
			c1.37,0.77,2.98,0.97,4.47,0.4c2.87-1.08,4.21-4.58,2.99-7.8C29.12,50.66,27.59,49.25,25.85,48.7z"/>
		<path class="st12" d="M20.53,56.03c-0.81-2.13-0.69-4.35,0.14-6.1c-1.57,1.59-2.12,4.19-1.2,6.64c0.59,1.55,1.66,2.76,2.93,3.47
			c0.65,0.21,1.32,0.29,2,0.24c-0.17-0.04-0.33-0.09-0.49-0.14C22.46,59.28,21.22,57.86,20.53,56.03z"/>
		<path class="st13" d="M28.79,52.17c-0.59-1.55-1.66-2.76-2.93-3.47c-0.51-0.16-1.04-0.25-1.57-0.25c0.06,0.56-0.5,1.22-1.36,1.55
			c-0.86,0.32-1.71,0.2-2.04-0.26c-0.07,0.07-0.14,0.13-0.21,0.2c-0.83,1.75-0.95,3.97-0.14,6.1c0.69,1.82,1.93,3.25,3.38,4.1
			c0.16,0.06,0.33,0.1,0.49,0.14c0.47-0.04,0.93-0.13,1.39-0.31C28.67,58.89,30.01,55.39,28.79,52.17z"/>
		<path class="st14" d="M22.93,49.99c0.86-0.32,1.42-0.98,1.36-1.55c-0.61-0.01-1.23,0.1-1.82,0.32c-0.6,0.23-1.12,0.56-1.58,0.96
			C21.22,50.19,22.07,50.31,22.93,49.99z"/>
	</g>
	<g>
		<path class="st11" d="M42.08,41.9c-1.35,0.55-2.96,0.64-4.54,0.13c-3.28-1.06-5.18-4.28-4.23-7.2c0.37-1.13,1.1-2.05,2.06-2.69
			c-1.46,0.59-2.62,1.73-3.1,3.24c-0.94,2.92,0.95,6.14,4.23,7.2C38.5,43.22,40.56,42.91,42.08,41.9z"/>
		<path class="st12" d="M39.67,33.16c2.17,0.7,3.83,2.18,4.68,3.92c-0.26-2.22-1.95-4.27-4.44-5.08c-1.58-0.51-3.19-0.42-4.54,0.13
			c-0.57,0.38-1.05,0.85-1.44,1.41c0.14-0.1,0.28-0.2,0.42-0.29C35.93,32.64,37.81,32.57,39.67,33.16z"/>
		<path class="st13" d="M37.54,42.02c1.58,0.51,3.19,0.42,4.54-0.13c0.45-0.3,0.84-0.66,1.18-1.07c-0.48-0.31-0.64-1.16-0.36-2.03
			c0.28-0.87,0.91-1.46,1.48-1.43c-0.01-0.1-0.02-0.19-0.03-0.29c-0.85-1.74-2.51-3.22-4.68-3.92c-1.85-0.6-3.74-0.52-5.32,0.08
			c-0.14,0.09-0.28,0.19-0.42,0.29c-0.26,0.39-0.48,0.81-0.63,1.28C32.36,37.74,34.26,40.96,37.54,42.02z"/>
		<path class="st14" d="M42.89,38.81c-0.28,0.87-0.12,1.72,0.36,2.03c0.39-0.47,0.69-1.02,0.89-1.62c0.2-0.61,0.27-1.22,0.23-1.83
			C43.81,37.34,43.18,37.93,42.89,38.81z"/>
	</g>
	<g>
		<path class="st11" d="M55.83,21.87c1.36,0.52,2.6,1.57,3.4,3.02c1.67,3.02,0.84,6.67-1.85,8.15c-1.04,0.57-2.21,0.74-3.34,0.55
			c1.47,0.57,3.09,0.53,4.48-0.24c2.69-1.48,3.51-5.13,1.85-8.15C59.35,23.35,57.63,22.17,55.83,21.87z"/>
		<path class="st12" d="M51.61,29.88c-1.1-2-1.3-4.21-0.73-6.06c-1.33,1.79-1.51,4.45-0.24,6.74c0.8,1.45,2.03,2.49,3.4,3.02
			c0.67,0.11,1.35,0.1,2.01-0.05c-0.17-0.02-0.34-0.04-0.51-0.07C53.98,32.82,52.55,31.59,51.61,29.88z"/>
		<path class="st13" d="M59.23,24.88c-0.8-1.45-2.03-2.49-3.4-3.02c-0.53-0.09-1.06-0.1-1.59-0.03c0.14,0.55-0.32,1.28-1.12,1.72
			c-0.8,0.44-1.67,0.44-2.06,0.03c-0.06,0.07-0.12,0.15-0.18,0.23c-0.57,1.85-0.37,4.07,0.73,6.06c0.94,1.71,2.37,2.94,3.93,3.58
			c0.17,0.03,0.34,0.06,0.51,0.07c0.46-0.1,0.91-0.27,1.33-0.5C60.07,31.55,60.9,27.9,59.23,24.88z"/>
		<path class="st14" d="M53.12,23.56c0.8-0.44,1.26-1.18,1.12-1.72c-0.61,0.08-1.2,0.27-1.76,0.58c-0.56,0.31-1.03,0.71-1.42,1.18
			C51.45,24,52.32,24,53.12,23.56z"/>
	</g>
	<g>
		<path class="st11" d="M75.64,35.57c1.19,0.85,2.13,2.16,2.54,3.77c0.86,3.34-0.84,6.67-3.81,7.44c-1.15,0.3-2.32,0.17-3.38-0.3
			c1.28,0.91,2.86,1.28,4.4,0.88c2.97-0.77,4.68-4.1,3.81-7.44C78.68,37.88,77.31,36.31,75.64,35.57z"/>
		<path class="st12" d="M69.56,42.29c-0.57-2.21-0.22-4.4,0.8-6.05c-1.74,1.41-2.56,3.93-1.91,6.47c0.42,1.61,1.35,2.92,2.54,3.77
			c0.62,0.28,1.29,0.43,1.96,0.46c-0.16-0.06-0.32-0.12-0.47-0.2C71.13,45.73,70.05,44.18,69.56,42.29z"/>
		<path class="st13" d="M78.19,39.34c-0.42-1.61-1.35-2.92-2.54-3.77c-0.49-0.22-1-0.36-1.53-0.42c0,0.57-0.63,1.16-1.52,1.39
			c-0.89,0.23-1.73,0.01-2-0.48c-0.08,0.06-0.16,0.12-0.23,0.18c-1.02,1.65-1.37,3.85-0.8,6.05c0.49,1.89,1.56,3.44,2.92,4.44
			c0.16,0.07,0.31,0.14,0.47,0.2c0.47,0.02,0.94-0.03,1.41-0.16C77.34,46.01,79.05,42.68,78.19,39.34z"/>
		<path class="st14" d="M72.6,36.54c0.89-0.23,1.51-0.82,1.52-1.39c-0.61-0.07-1.23-0.04-1.85,0.12c-0.62,0.16-1.18,0.43-1.67,0.79
			C70.87,36.55,71.71,36.77,72.6,36.54z"/>
	</g>
	<g>
		<path class="st11" d="M82.42,60.52c0.08,1.46-0.35,3.01-1.35,4.34c-2.06,2.76-5.73,3.52-8.18,1.68c-0.95-0.71-1.58-1.71-1.88-2.82
			c0.09,1.57,0.79,3.03,2.07,3.98c2.46,1.83,6.12,1.08,8.18-1.68C82.52,64.33,82.89,62.28,82.42,60.52z"/>
		<path class="st12" d="M73.37,59.99c1.36-1.83,3.29-2.93,5.22-3.17c-2.18-0.47-4.67,0.47-6.24,2.56c-0.99,1.33-1.43,2.88-1.35,4.34
			c0.18,0.66,0.47,1.27,0.87,1.81c-0.05-0.16-0.1-0.33-0.14-0.49C71.67,63.36,72.21,61.55,73.37,59.99z"/>
		<path class="st13" d="M81.07,64.86c0.99-1.33,1.43-2.88,1.35-4.34c-0.14-0.52-0.35-1.01-0.63-1.46c-0.44,0.35-1.3,0.24-2.03-0.31
			c-0.73-0.55-1.09-1.34-0.88-1.86c-0.09-0.03-0.19-0.05-0.28-0.07c-1.92,0.24-3.86,1.34-5.22,3.17c-1.17,1.56-1.7,3.37-1.63,5.06
			c0.04,0.17,0.09,0.33,0.14,0.49c0.28,0.38,0.62,0.71,1.01,1.01C75.35,68.38,79.01,67.63,81.07,64.86z"/>
		<path class="st14" d="M79.75,58.75c0.73,0.55,1.59,0.66,2.03,0.31c-0.32-0.52-0.74-0.98-1.25-1.36c-0.51-0.38-1.07-0.65-1.66-0.81
			C78.66,57.42,79.02,58.2,79.75,58.75z"/>
	</g>
	<g>
		<path class="st11" d="M69.54,71.37c1.27,0.73,2.32,1.95,2.89,3.51c1.18,3.24-0.2,6.72-3.08,7.77c-1.12,0.41-2.3,0.39-3.39,0.03
			c1.36,0.79,2.97,1,4.46,0.46c2.88-1.05,4.26-4.53,3.08-7.77C72.79,73.38,71.27,71.95,69.54,71.37z"/>
		<path class="st12" d="M64.14,78.64c-0.78-2.14-0.64-4.36,0.21-6.1c-1.59,1.57-2.17,4.16-1.28,6.62c0.57,1.56,1.63,2.78,2.89,3.51
			c0.65,0.21,1.32,0.31,2,0.26c-0.16-0.04-0.33-0.09-0.49-0.15C66.03,81.91,64.81,80.48,64.14,78.64z"/>
		<path class="st13" d="M72.44,74.88c-0.57-1.56-1.63-2.78-2.89-3.51c-0.51-0.17-1.03-0.26-1.56-0.27c0.05,0.56-0.52,1.22-1.38,1.53
			c-0.86,0.31-1.72,0.18-2.04-0.29c-0.07,0.06-0.14,0.13-0.21,0.2c-0.85,1.74-0.99,3.96-0.21,6.1c0.67,1.83,1.89,3.27,3.33,4.14
			c0.16,0.06,0.33,0.11,0.49,0.15c0.47-0.03,0.94-0.12,1.39-0.29C72.24,81.59,73.62,78.12,72.44,74.88z"/>
		<path class="st14" d="M66.6,72.63c0.86-0.31,1.43-0.97,1.38-1.53c-0.61-0.01-1.23,0.08-1.83,0.3c-0.6,0.22-1.13,0.54-1.59,0.95
			C64.89,72.81,65.74,72.94,66.6,72.63z"/>
	</g>
	<g>
		<path class="st11" d="M62.96,45.24c1.2,0.83,2.16,2.12,2.61,3.72c0.92,3.32-0.72,6.68-3.68,7.5c-1.15,0.32-2.32,0.21-3.38-0.24
			c1.3,0.89,2.88,1.23,4.41,0.8c2.96-0.82,4.6-4.18,3.68-7.5C66.04,47.49,64.64,45.95,62.96,45.24z"/>
		<path class="st12" d="M57,52.07c-0.61-2.2-0.3-4.4,0.69-6.07c-1.71,1.44-2.49,3.98-1.79,6.5c0.44,1.6,1.4,2.9,2.61,3.72
			c0.63,0.26,1.29,0.41,1.97,0.42c-0.16-0.06-0.32-0.12-0.48-0.19C58.63,55.48,57.53,53.95,57,52.07z"/>
		<path class="st13" d="M65.57,48.96c-0.44-1.6-1.4-2.9-2.61-3.72c-0.49-0.21-1.01-0.34-1.54-0.39c0.01,0.57-0.61,1.17-1.49,1.42
			c-0.88,0.25-1.72,0.05-2.01-0.44c-0.08,0.06-0.15,0.12-0.23,0.18c-0.99,1.67-1.3,3.87-0.69,6.07c0.52,1.88,1.63,3.41,3,4.39
			c0.16,0.07,0.32,0.13,0.48,0.19c0.47,0.01,0.94-0.05,1.41-0.18C64.85,55.64,66.5,52.28,65.57,48.96z"/>
		<path class="st14" d="M59.93,46.26c0.88-0.25,1.5-0.85,1.49-1.42c-0.61-0.06-1.23-0.02-1.84,0.16c-0.61,0.17-1.17,0.45-1.66,0.82
			C58.21,46.31,59.05,46.51,59.93,46.26z"/>
	</g>
	<g>
		<path class="st11" d="M53.12,60.14c-0.39,1.41-1.31,2.73-2.68,3.67c-2.85,1.95-6.56,1.47-8.29-1.06
			c-0.67-0.98-0.94-2.13-0.86-3.28c-0.42,1.52-0.24,3.12,0.66,4.44c1.73,2.53,5.44,3.01,8.29,1.06
			C51.98,63.78,52.99,61.96,53.12,60.14z"/>
		<path class="st12" d="M44.73,56.7c1.88-1.29,4.07-1.7,5.96-1.3c-1.91-1.15-4.57-1.07-6.73,0.4c-1.37,0.94-2.29,2.26-2.68,3.67
			c-0.05,0.68,0.03,1.36,0.24,2c0-0.17,0.01-0.34,0.02-0.51C42.03,59.34,43.13,57.8,44.73,56.7z"/>
		<path class="st13" d="M50.44,63.81c1.37-0.94,2.29-2.26,2.68-3.67c0.04-0.53,0-1.07-0.12-1.58c-0.53,0.19-1.31-0.2-1.82-0.95
			c-0.52-0.76-0.6-1.62-0.23-2.05c-0.08-0.06-0.16-0.11-0.25-0.16c-1.9-0.39-4.08,0.02-5.96,1.3c-1.61,1.1-2.7,2.64-3.19,4.26
			c-0.02,0.17-0.02,0.34-0.02,0.51c0.14,0.45,0.35,0.88,0.63,1.28C43.88,65.28,47.59,65.76,50.44,63.81z"/>
		<path class="st14" d="M51.17,57.6c0.52,0.76,1.29,1.14,1.82,0.95c-0.14-0.6-0.38-1.17-0.74-1.69c-0.36-0.53-0.81-0.96-1.31-1.31
			C50.57,55.99,50.66,56.85,51.17,57.6z"/>
	</g>
</g>
</svg>
