<?xml version="1.0" encoding="utf-8"?>
<!-- Generator: Adobe Illustrator 23.1.1, SVG Export Plug-In . SVG Version: 6.00 Build 0)  -->
<svg version="1.1" id="Layer_1" xmlns="http://www.w3.org/2000/svg" xmlns:xlink="http://www.w3.org/1999/xlink" x="0px" y="0px"
	 viewBox="0 0 108 108" style="enable-background:new 0 0 108 108;" xml:space="preserve">
<style type="text/css">
	.st0{fill:#F68F3B;stroke:#FAAD68;stroke-miterlimit:10;}
	.st1{fill:#F4CC6F;}
	.st2{fill:#ED7503;}
	.st3{fill:#F9A614;}
	.st4{fill:#EFAE3C;}
	.st5{fill:#F1DBBD;}
	.st6{fill:#F79903;stroke:#FAAD68;stroke-miterlimit:10;}
	.st7{fill:#97C063;}
	.st8{fill:#EB8F23;}
	.st9{fill:#548728;}
	.st10{fill:#FBC174;}
</style>
<g>
	<path class="st0" d="M83.5,60.5c-0.3-0.7-2.7-7.4-9.9-8.7c-7.2-1.2-11.1-2.8-15.6,1.9s-8.5,12.2-6,18.3c2.5,6.1,8.2,13.2,11.1,14.3
		s8.8-0.8,10-2.2c1.2-1.4,6.6-8,6.6-8.7S83.5,60.5,83.5,60.5z"/>
	<path class="st1" d="M82.8,58.7c-2-1.8-6.6-2.2-10.9,0S61.7,66.3,61,71.2c-0.7,5-2.7,11.9,3,14.5s15.5,0.9,18.8-4.4
		C86.1,75.9,90.1,65.2,82.8,58.7z"/>
	<path class="st2" d="M57.3,58.7c0,0-2.7,3.9-2,8.2s1.3,7.9,2,8.8s1.7,3.6,1.1,3.7c-0.6,0.1-6.2-5.2-6.3-8.2c0-3-0.9-5.2,0-7.8
		c0.9-2.6,1.6-4,2.1-4.7S57.3,58.7,57.3,58.7z"/>
	<path class="st1" d="M72.3,58.7c0.4,0,0.7-0.1,1-0.3c0.5-0.3,1.1-0.5,1.7-0.6c0.5-0.1,1-0.2,1.4-0.4c0.2-0.1,0.5-0.1,0.8-0.1
		c0.6,0.1,1.3,0.3,1.9-0.3c0.2-0.2,0.4-0.2,0.6,0.1c0.2,0.3,0.4,0.3,0.7,0.3c0.2,0,0.3,0,0.4,0.2c0.3,0.3,0.6,0.5,1,0.5
		c0.3,0,0.6,0.2,0.7,0.3c0.2,0.4,0.5,0.6,0.9,0.6c0.1,0,0.2,0.2,0.2,0.3c0.1,0.3,0.2,0.6,0.4,0.9c0.2,0.4,0.3,0.7,0.8,0.7
		c0.2,0,0.4,0.3,0.5,0.5c0.2,0.8,0.7,1.5,0.9,2.3c0.2,0.8,0.9,1.4,1,2.3c0,0.1,0.1,0.2,0.1,0.2c-0.2,0.6,0,1.2-0.1,1.7
		c-0.2,0.9,0.1,1.6,0.4,2.4c0.2,0.5,0,1.6-0.5,1.9c-0.4,0.3-0.4,0.8-0.5,1.2c-0.3,0.8-0.5,1.7-1,2.5c-0.1,0.1-0.2,0.3-0.3,0.4
		c-0.1,0.1-0.3,0.3-0.2,0.4c0.1,0.7-0.1,1-0.8,1.2c-0.2,0-0.2,0.3-0.2,0.4c0,0.9-0.3,1.1-1.1,1.1c-0.3,0-0.3,0.2-0.4,0.3
		c-0.2,0.3-0.4,0.6-0.8,0.7c-0.2,0.1-0.3,0.3-0.4,0.5c-0.5,0.8-0.6,2-1.7,2.3c-0.7,0.1-1.2,0.6-1.9,0.6c-0.3,0-0.4,0.3-0.6,0.4
		c-0.5,0.3-1.1,0.6-1.5,1.1c-0.3,0.3-0.5,0.4-0.9,0.3c-1.1-0.1-2.1,0.3-3,0.8c-0.4,0.2-0.8,0.2-1.1,0c-0.3-0.2-0.7-0.2-1-0.2
		c-0.4,0-0.8,0.2-1.3-0.1c-0.2-0.1-0.4,0-0.5,0.2c-0.3,0.4-0.6,0.4-1,0c-0.2-0.2-0.5-0.1-0.8-0.1c-0.2,0-0.4,0-0.4-0.3
		c0-0.4-0.3-0.4-0.5-0.4c-0.4,0-0.6-0.1-0.8-0.4c-0.1-0.2-0.2-0.3-0.5-0.4c-0.2-0.1-0.4-0.2-0.6-0.4c-0.2-0.2-0.3-0.4,0.1-0.6
		c0,0,0-0.4-0.2-0.5c-0.3-0.2-0.4-0.5-0.6-0.7c-0.2-0.2-0.6-0.6,0.1-0.7c0.2,0,0.2-0.3,0.1-0.3c-0.4-0.1-0.5-0.7-1-0.6
		c-0.1,0-0.2,0-0.3-0.1c-0.3-0.3-0.7-0.6-0.5-1.2c0.2-0.4-0.1-0.8-0.1-1.2c-0.1-0.6,0.1-1.1,0-1.7c-0.1-0.4-0.1-0.8-0.1-1.3
		c0-0.3,0.1-0.5,0.3-0.7c0.4-0.5,0.9-0.9,0.8-1.5c0-0.1,0-0.3,0-0.3c-0.6-0.3-0.2-0.5,0-0.7c0.3-0.4,0.2-0.8,0-1.1
		c-0.2-0.3-0.1-0.4,0.1-0.5c0.4-0.3,0.8-0.7,0.7-1.3c0-0.2,0.1-0.3,0.3-0.4c0.3-0.2,0.3-0.4,0-0.6c-0.1-0.1-0.3-0.1-0.2-0.3
		c0.1-0.2,0.3-0.2,0.4-0.1c0.5,0.2,0.7,0,0.7-0.4c0-0.2,0.1-0.3,0.2-0.5c0.3-0.4,0.8-0.7,0.7-1.3c0-0.1,0.2-0.3,0.3-0.4
		c0.3-0.4,0.8-0.7,1-1.3c0.1-0.4,0.6-0.7,1-0.9c0.6-0.5,0.8-1.1,1-1.7c0.1-0.4,0.4-0.7,0.5-1.1c0,0,0,0,0,0c0.3-0.1,0.7,0.2,0.9-0.2
		c0.2,0,0.4,0,0.6,0c0.4,0.1,0.3-0.2,0.3-0.4c0,0,0,0,0,0C71.1,59.5,71.8,59.2,72.3,58.7L72.3,58.7z M81.9,77.2c0.2,0,0.3,0,0.4-0.2
		c0.2,0,0.3-0.1,0.3-0.2c0.3,0,0.5-0.2,0.6-0.5c0.6-1.1,1.1-2.2,1.3-3.4c0.1-0.6,0.6-1.1,0.4-1.8c0-0.2,0.1-0.4,0.1-0.7
		c0.4-0.9,0.3-1.8-0.2-2.6c-0.2-0.4-1.4-0.9-1.5-0.6c-0.4,0.6-1.1,0.9-1.5,1.5c-0.2,0.3-0.5,0.5-0.8,0.4c-0.2-0.2-0.9,0-1,0.3
		c-0.1,0.4-0.4,0.6-0.6,0.8c-0.8,0.6-1.8,1-2.8,0.7c-0.1,0-0.2,0-0.2-0.1c-0.3-0.5-0.9-1-0.7-1.8c0.3-1.3-0.2-2.6-0.3-3.9
		c0-0.1-0.1-0.3-0.3-0.3c-0.2,0-0.2,0.2-0.2,0.3c0,0.3,0,0.5,0,0.8c0.1,1.2,0.3,2.4-0.5,3.4c-0.3,0.4-0.4,1-1.1,1
		c-0.3,0-0.8,0-0.9,0.4c-0.2,0.5-0.4,0.4-0.7,0.2c-0.1-0.1-0.3,0-0.5-0.1c0.3-0.4,0.8-0.5,1.2-0.6c0.4-0.1,0.6-0.4,0.9-0.7
		c0.1-0.2,0.1-0.4-0.1-0.5c-0.3-0.1-0.3-0.2-0.3-0.5c0-0.4-0.2-0.7-0.2-1c0-0.2-0.1-0.3-0.4-0.3c-0.2,0-0.4,0-0.5-0.3
		c0-0.4,0.3-0.6,0.6-0.8c0.2-0.1,0.3-0.1,0.5,0.1c0.4,0.5,0.7,1,0.4,1.7c-0.2,0.4,0.1,1,0.3,0.8c0.4-0.2,0.8-0.4,1-0.7
		c0.2-0.4,0.4-1.1,0.1-1.5c-0.4-0.6-0.2-1.1-0.2-1.7c0-0.6,0.2-1.3,0-1.9c-0.2-0.9-1.4-1.4-1.9-0.9c-0.4,0.4-0.8,0.5-1.2,0.6
		c-1,0.3-1.7,1-2.1,1.7c-0.6,0.9-1.5,1.5-2.3,2.2c-1,1-1.6,2-1.4,3.4c0.1,0.7,0.3,0.8,1,0.9c1.2,0.1,2.5-0.3,3.7,0.2
		c0.1,0,0.2,0,0.3-0.1c0.2-0.2,0.4-0.1,0.6-0.1c-0.2,0.4-0.5,0.5-0.9,0.5c-0.3,0-0.7-0.1-1.1,0.1c0.4,0.2,0.9,0.3,1.1,0.6
		c1.4,1.4,1.7,3.1,1.1,4.9c-0.1,0.3-0.1,0.7-0.4,1c-0.1,0.1-0.1,0.3,0.1,0.3c0.1,0,0.2-0.1,0.2-0.2c0.1-0.2,0.1-0.6,0.5-0.6
		c-0.4,1-0.8,2.1-1.3,3.1c-0.2,0.3,0,0.7-0.3,0.8c-0.4,0.2-0.3,0.4-0.2,0.7c0.2,1.5,1,2.3,2.5,2.4c0.6,0,1.2,0.1,1.5-0.5
		c-0.2,0-0.4,0.1-0.6,0.2C73.2,84.3,73,84.4,73,84c0-0.3,0.3-0.3,0.5-0.4c0.3-0.1,0.6-0.1,0.9-0.3c0.5,0.1,1-0.2,1.5-0.2
		c0.5,0,0.9-0.1,1.3-0.5c0.4-0.3,0.8-0.5,1.3-0.7c0.4-0.1,0.6-0.3,0.7-0.7c0.2-0.7,0.1-1.4,0.4-2c0.1-0.3,0.1-0.7,0-1
		c-0.1-0.2-0.2-0.4-0.5-0.4c-1.1-0.1-1.9-0.9-2.6-1.6c-0.4-0.4-0.8-0.6-1.3-0.5c-0.5,0.1-1.1,0-1.5,0.5c-0.1,0.1-0.3,0.1-0.5,0.1
		c0.2-0.3,0.6-0.4,0.8-0.6c0.5-0.4,1.6-0.3,2.1,0c0.5,0.4,1,0.9,1.7,1.1c0,0.2,0,0.4,0.3,0.4c0,0,0.1-0.1,0.1-0.1
		c0-0.2-0.2-0.3-0.4-0.4c0-0.2-0.1-0.4-0.3-0.5c-1.1-1.1-1-2.7-0.2-3.8c0.3-0.4,0.5-1,1.2-1.1c-0.1,0.4-0.4,0.7-0.7,1
		c-0.7,0.6-0.8,1.6-0.3,2.2c0.1,0.1,0,0.2,0,0.3c-0.1,0.5,0.1,1.2,0.5,1.4c0.6,0.3,0.8,1.2,1.6,1c0.1,0,0.1,0.1,0.2,0.1
		c0.6,0.5,0.8,0.5,1.4-0.1C81.3,77.3,81.6,77.3,81.9,77.2z M68,76.3c0.2-0.6,0.3-1.1,0.8-1.3c0.5-0.2,1-0.4,1.5-0.5
		c0.4-0.1,0.6-0.3,0.5-0.7c-0.1-1.2-1.2-2.2-2.5-2c-0.5,0.1-1,0.1-1.5,0.1c-0.7,0-1.4,0-1.8,0.7c-0.2,0.3-0.4,0.7-0.6,1
		c-0.5,1-1.2,2-1,3.2c0,0.2,0,0.3,0,0.5c-0.1,0.2,0,0.4,0.1,0.5c0.5,0.3,0.3,1,0.8,1.3c0.1,0,0.1,0.2,0,0.3c-0.2,0.4,0.4,0.8,0,1.2
		c0,0,0,0.1,0,0.1c0.3,0.4,0.6,0.8,0.9,1.1c0.1,0.1,0.4,0.1,0.6,0.3c0.4,0.5,1,0.6,1.6,0.8c0.6,0.2,1-0.3,1.4-0.5
		c0.4-0.2,0.6-0.4,0.7-0.9c0-0.4,0.2-0.8,0.5-1.1c0.3-0.3,0.6-0.8,0.6-1.3c0-0.7,0.2-1.3,0.3-2c0.1-0.7,0.7-1.2,0.5-2
		c0-0.2,0.1-0.4-0.2-0.4c-0.2-0.1-0.4,0-0.5,0.1C69.9,75.6,69,75.8,68,76.3z M83.8,64.5c0.1-0.6,0.1-1.2-0.4-1.5
		c-1.1-0.8-2.4-1.4-3.4-2.4c0,0-0.1,0-0.1,0c-0.6,0.2-1-0.4-1.6-0.2c-0.5,0.2-1.1,0.4-1.6,0.6c-0.3,0.1-0.6,0.4-0.9,0.6
		c-0.4,0.2-0.1,0.7-0.3,0.9c-0.4,0.7-0.4,1.3,0.1,2c0.2,0.3,0,0.9,0.2,1.3c0,0.1,0,0.3,0.2,0.3c0.2,0,0.2-0.1,0.3-0.2
		c0.3-0.4,0.5-0.8,0.7-1.2c0.1-0.3,0.2-0.4,0.5-0.4c0.3,0,0.3,0.2,0.3,0.4c0,0.2,0,0.4,0.3,0.4c0.2,0,0.3,0.1,0.2,0.2
		c-0.2,0.2-0.4,0.5-0.6,0.5c-0.3,0-0.7,0-0.6,0.4c0,0.3,0.2,0.6,0.4,0.9c0.1,0.1,0.4,0,0.4,0.2c0,0.2-0.3,0.2-0.4,0.3
		c-0.4,0.2-0.9,0.5-1.2,0.8c-0.3,0.3,0.3,1.5,0.7,1.6c0.7,0.2,1.3-0.2,2-0.3c0.2,0,0.3-0.4,0.5-0.6c0.1-0.2,0.2-0.6,0.3-0.6
		c0.7,0,1-0.4,1.5-0.9c0.3-0.3,0.8-0.6,1.2-0.7c0.3-0.1,0.7-0.2,0.8-0.4C83.3,66,84.2,65.4,83.8,64.5z"/>
	<path class="st3" d="M87.8,75.3C87.9,75.3,87.9,75.3,87.8,75.3c0.1,0,0.1,0,0.1,0C88,75.4,87.9,75.4,87.8,75.3
		C87.9,75.4,87.9,75.3,87.8,75.3z"/>
	<path class="st4" d="M68,76.3c0.9-0.5,1.9-0.6,2.6-1.3c0.1-0.1,0.3-0.2,0.5-0.1c0.2,0.1,0.1,0.3,0.2,0.4c0.2,0.7-0.3,1.3-0.5,2
		c-0.2,0.7-0.3,1.3-0.3,2c0,0.5-0.2,0.9-0.6,1.3c-0.3,0.3-0.5,0.7-0.5,1.1c0,0.5-0.3,0.7-0.7,0.9c-0.5,0.2-0.8,0.7-1.4,0.5
		c-0.6-0.2-1.2-0.3-1.6-0.8c-0.2-0.2-0.4-0.2-0.6-0.3c-0.4-0.3-0.6-0.7-0.9-1.1c0,0,0-0.1,0-0.1c0.5-0.4-0.1-0.8,0-1.2
		c0-0.1,0-0.2,0-0.3c-0.4-0.3-0.3-1-0.8-1.3c-0.1-0.1-0.2-0.3-0.1-0.5c0.1-0.2,0.1-0.3,0-0.5c-0.2-1.2,0.4-2.2,1-3.2
		c0.2-0.3,0.4-0.7,0.6-1c0.5-0.7,1.1-0.7,1.8-0.7c0.5,0,1,0,1.5-0.1c1.4-0.3,2.4,0.8,2.5,2c0,0.4-0.1,0.6-0.5,0.7
		c-0.5,0.2-1,0.3-1.5,0.5C68.3,75.2,68.2,75.7,68,76.3z M69,81.5c-0.1-0.1,0-0.5-0.3-0.3c-0.4,0.2-0.7,0.4-0.8,0.9
		c-0.1,0.2-0.1,0.3,0.2,0.4C68.3,82.5,69,81.9,69,81.5z M67.1,81.2c-0.3,0-1,0.5-0.9,0.7c0,0.2,0.2,0.3,0.3,0.2
		c0.3-0.2,0.9-0.1,1-0.6C67.6,81.3,67.3,81.2,67.1,81.2z M66.7,73c0.3-0.1,0.6-0.2,0.7-0.4c0-0.1,0.1-0.2,0-0.3
		c-0.2-0.2-0.4,0-0.6,0.1c0,0-0.1,0-0.2,0c-0.2-0.1-0.3,0-0.3,0.2C66.4,72.9,66.6,73,66.7,73z M69,72.3c-0.2,0-0.3,0.2-0.3,0.4
		c0,0.2,0.2,0.2,0.3,0.1c0.1-0.1,0.4,0,0.4-0.3C69.4,72.4,69.2,72.3,69,72.3z"/>
	<path class="st4" d="M71.2,70.9c-0.2,0-0.5,0-0.6,0.1c-0.1,0.1-0.2,0.1-0.3,0.1c-1.2-0.4-2.5-0.1-3.7-0.2c-0.7,0-0.9-0.1-1-0.9
		c-0.2-1.4,0.4-2.5,1.4-3.4c0.8-0.7,1.6-1.3,2.3-2.2c0.5-0.7,1.2-1.5,2.1-1.7c0.4-0.1,0.8-0.3,1.2-0.6c0.6-0.6,1.7,0,1.9,0.9
		c0.1,0.7,0,1.3,0,1.9c0,0.6-0.2,1.1,0.2,1.7c0.3,0.4,0,1.1-0.1,1.5c-0.1,0.3-0.6,0.5-1,0.7c-0.2,0.1-0.5-0.4-0.3-0.8
		c0.3-0.7,0-1.2-0.4-1.7c-0.2-0.2-0.3-0.2-0.5-0.1c-0.3,0.2-0.6,0.3-0.6,0.8c0,0.3,0.3,0.3,0.5,0.3c0.2,0,0.3,0.1,0.4,0.3
		c0,0.4,0.2,0.7,0.2,1c0,0.2,0,0.4,0.3,0.5c0.3,0.1,0.3,0.3,0.1,0.5c-0.2,0.3-0.4,0.6-0.9,0.7C71.9,70.4,71.4,70.5,71.2,70.9
		C71.2,70.9,71.2,70.9,71.2,70.9z M68.3,69c0.5,0.2,1,0.1,1.5-0.2c0.2-0.1,0.3-0.3,0.3-0.6c-0.1-0.4-0.4-0.4-0.7-0.5
		c-0.2-0.1-0.4,0-0.6,0.2c0,0.1-0.1,0.2-0.1,0.2C69.2,68.7,68.7,68.8,68.3,69z"/>
	<path class="st4" d="M83.8,64.5c0.4,0.9-0.5,1.5-0.7,2.2c-0.1,0.2-0.5,0.3-0.8,0.4c-0.5,0.1-1,0.4-1.2,0.7
		c-0.4,0.5-0.7,0.9-1.5,0.9c-0.1,0-0.2,0.4-0.3,0.6c-0.1,0.2-0.3,0.6-0.5,0.6c-0.7,0.1-1.3,0.5-2,0.3c-0.4-0.1-1-1.3-0.7-1.6
		c0.3-0.3,0.8-0.6,1.2-0.8c0.2-0.1,0.4-0.1,0.4-0.3c0-0.3-0.3-0.1-0.4-0.2c-0.2-0.3-0.3-0.6-0.4-0.9c0-0.4,0.3-0.3,0.6-0.4
		c0.3,0,0.5-0.3,0.6-0.5c0.1-0.2,0-0.3-0.2-0.2c-0.3,0-0.3-0.2-0.3-0.4c0-0.2,0-0.4-0.3-0.4c-0.3,0-0.4,0.1-0.5,0.4
		c-0.1,0.5-0.4,0.8-0.7,1.2c-0.1,0.1-0.1,0.2-0.3,0.2c-0.2,0-0.1-0.2-0.2-0.3c-0.2-0.4,0.1-0.9-0.2-1.3c-0.5-0.7-0.4-1.3-0.1-2
		c0.1-0.3-0.1-0.7,0.3-0.9c0.3-0.2,0.6-0.5,0.9-0.6c0.6-0.1,1.1-0.4,1.6-0.6c0.6-0.2,1.1,0.3,1.6,0.2c0,0,0.1,0,0.1,0
		c1,1,2.3,1.6,3.4,2.4C83.9,63.4,84,64,83.8,64.5z M78.2,61.5c0.1-0.2-0.1-0.4-0.3-0.4c-0.2,0-0.4,0.2-0.6,0.4
		c-0.2,0.4-0.4,0.8-0.8,0.9c-0.2,0.1-0.3,0.5-0.2,0.7c0.1,0.2,0.3,0.2,0.4,0.1C77.3,63.1,78.2,62.1,78.2,61.5z M81.3,63
		c0-0.1,0-0.3-0.2-0.3c-0.3,0-0.6,0-0.9-0.2c-0.1-0.1-0.3,0-0.2,0.2c0.2,0.4,0,0.6-0.3,0.8c-0.1,0-0.1,0.1-0.1,0.2
		c0,0.1,0.1,0.1,0.2,0.1c0.3-0.2,0.7-0.1,1-0.3C81,63.5,81.2,63.3,81.3,63z M82.3,64.1c0,0.1-0.1,0.4,0.2,0.4
		c0.3,0.1,0.4-0.1,0.6-0.3c0.1-0.2,0.2-0.4,0.3-0.7c0-0.1,0-0.2-0.2-0.3C82.9,63.3,82.3,63.9,82.3,64.1z M78.2,67.2
		C78.2,67.2,78.2,67.2,78.2,67.2C78.2,67.2,78.2,67.2,78.2,67.2C78.2,67.2,78.2,67.2,78.2,67.2C78.2,67.3,78.2,67.2,78.2,67.2z"/>
	<path class="st4" d="M81,69.1c0.4,0,0.6-0.1,0.8-0.4c0.4-0.6,1.1-0.8,1.5-1.5c0.2-0.3,1.3,0.2,1.5,0.6c0.4,0.9,0.6,1.7,0.2,2.6
		c-0.3-0.1-0.2-0.2-0.1-0.4c0.1-0.5,0.2-1.1-0.1-1.6c-0.2-0.3-0.6-0.5-0.7-0.2c-0.1,0.3-0.3,0.6-0.2,1c0.1,0.4,0.4,1.1-0.3,1.4
		c-0.1,0.1-0.5,0.3-0.3,0.5c0.2,0.3,0.4,0.6,0.7,0.8c0.3,0.2,0.5,0.1,0.7-0.2c0.1-0.2,0-0.4,0.2-0.6c0.2,0.7-0.3,1.2-0.4,1.8
		c-0.3,1.2-0.7,2.3-1.3,3.4c-0.1,0.3-0.3,0.5-0.6,0.5c-0.1-0.1,0.2-0.3,0-0.4c-0.2-0.1-0.4-0.1-0.6,0c-0.3,0.2-0.6,0.3-1,0.4
		c-0.2,0-0.3,0.1-0.3,0.3c0,0.2,0.2,0.2,0.3,0.2c-0.6,0.7-0.8,0.7-1.4,0.1c-0.1,0-0.1-0.1-0.2-0.1c-0.8,0.1-1-0.7-1.6-1
		c-0.3-0.2-0.5-0.8-0.5-1.4c0-0.1,0.1-0.2,0-0.3c-0.5-0.6-0.4-1.6,0.3-2.2c0.3-0.3,0.6-0.5,0.7-1C79.5,70.9,80.2,69.9,81,69.1z
		 M84,73.8c-0.1-0.2,0-0.5-0.3-0.6c-0.2-0.1-0.4,0.1-0.6,0.2c-0.6,0.3-0.6,1-1.1,1.4c-0.1,0.1-0.1,0.4,0,0.4c0.3,0.1,0.9,0.3,1,0.1
		C83.4,74.9,83.9,74.5,84,73.8z M81.3,75.5c-0.5-0.2-1,0.3-1.5,0.2c-0.2,0-0.2,0.2-0.2,0.3c0,0.2,0.2,0.1,0.3,0.1
		c0.7,0,1.4-0.2,2.1-0.3c0.1,0,0.2,0,0.2-0.2c0-0.1-0.1-0.2-0.2-0.2C81.8,75.5,81.6,75.5,81.3,75.5z M84.4,72.5
		c0-0.2-0.1-0.2-0.2-0.2c-0.3,0-0.2,0.3-0.3,0.5c0,0.1,0,0.2,0.1,0.2C84.2,72.8,84.3,72.6,84.4,72.5z"/>
	<path class="st4" d="M73,84c0.1,0.3,0.3,0.2,0.5,0.2c0.2-0.1,0.4-0.2,0.6-0.2c-0.4,0.6-1,0.5-1.5,0.5c-1.5-0.1-2.3-0.9-2.5-2.4
		c0-0.3-0.2-0.5,0.2-0.7c0.3-0.2,0.1-0.5,0.3-0.8c0.6-1,0.9-2,1.3-3.1c0,0,0,0,0,0c0.4-0.4,1.1-0.5,1.2-1.1l0,0c0.2,0,0.4,0,0.5-0.1
		c0.4-0.4,1-0.4,1.5-0.5c0.5-0.1,0.9,0.1,1.3,0.5c0.7,0.7,1.5,1.5,2.6,1.6c0.3,0,0.4,0.1,0.5,0.4c0.1,0.3,0.2,0.7,0,1
		c-0.3,0.6-0.3,1.3-0.4,2c-0.1,0.4-0.3,0.6-0.7,0.7c-0.5,0.1-0.9,0.4-1.3,0.7c-0.4,0.3-0.8,0.4-1.3,0.5c-0.5,0-0.9,0.3-1.5,0.2
		c0.7-0.8,1.7-1.1,2.7-1.3c0.2,0,0.6,0,0.7-0.3c0.2-0.2,0.2-0.4,0.2-0.7c0.4,0.1,0.8-0.1,0.9-0.5c0.1-0.6,0.5-1.3,0.2-2
		c-0.1-0.2-0.2-0.5-0.4-0.5c-0.3,0-0.4,0.3-0.5,0.5c-0.1,0.4-0.1,0.8-0.1,1.3c0,0.3,0.1,0.6-0.1,0.9c-0.3,0-0.1-0.4-0.4-0.4
		c-0.4,0.4-0.3,0.9-0.4,1.3c-0.2,0-0.5,0.1-0.7,0c-0.3-0.1-0.4-0.1-0.6,0.1c0,0.1-0.1,0.1-0.2,0.1c-0.6-0.1-1.1,0.2-1.7-0.2
		c-0.4-0.2-0.9,0-0.9,0.3c0.1,0.8-0.4,0.8-0.9,0.8c-0.3,0-0.3,0.2-0.3,0.3c-0.1,0.2-0.1,0.3,0.1,0.4C72.3,83.7,72.6,84,73,84z
		 M73.5,78.3c-0.1-0.2-0.1-0.4-0.3-0.4c-0.2,0-0.4-0.1-0.4,0.2c-0.1,0.4-0.4,0.6-0.8,0.7c-0.3,0.1-0.3,0.3-0.2,0.4
		c0.1,0.2,0.8,0.3,0.9,0.1c0.2-0.4,0.2-0.8,0.8-0.8C73.5,78.5,73.5,78.4,73.5,78.3z M74,81.1c0.3,0,0.5,0,0.5-0.3c0-0.4,0-0.8,0.4-1
		c0.1-0.1,0.1-0.2,0.1-0.3c0-0.1-0.1-0.1-0.2-0.1c-0.4,0.1-1.1,1-1.2,1.3C73.6,81,73.7,81.1,74,81.1z M75.1,76.1
		c-0.3,0.3-0.8,0.4-0.9,0.9c0,0.1-0.1,0.3,0.1,0.4c0.1,0.1,0.2,0,0.4,0c0.3-0.2,0.5-0.5,0.8-0.7c0.1-0.1,0-0.3,0-0.4
		C75.3,76.2,75.2,76.1,75.1,76.1z"/>
	<path class="st5" d="M81,69.1c-0.8,0.8-1.5,1.8-2.6,2.3c-0.7,0.1-0.9,0.7-1.2,1.1c-0.8,1.1-0.9,2.7,0.2,3.8
		c0.2,0.2,0.3,0.3,0.3,0.5l0,0c-0.7-0.2-1.2-0.6-1.7-1.1c-0.5-0.4-1.6-0.4-2.1,0c-0.3,0.2-0.6,0.3-0.8,0.6c0,0,0,0,0,0
		c-0.6,0.1-1,0.5-1.2,1.1c0,0,0,0,0,0c-0.4,0.1-0.3,0.4-0.5,0.6c-0.1,0.1-0.1,0.2-0.2,0.2c-0.2,0-0.2-0.2-0.1-0.3
		c0.2-0.3,0.3-0.7,0.4-1c0.6-1.9,0.3-3.5-1.1-4.9c-0.3-0.3-0.7-0.4-1.1-0.6c0.4-0.2,0.7-0.1,1.1-0.1c0.4,0,0.7-0.1,0.9-0.5
		c0,0,0,0,0,0c0.2,0,0.4,0,0.5,0.1c0.4,0.2,0.6,0.3,0.7-0.2c0.1-0.4,0.7-0.4,0.9-0.4c0.7,0,0.8-0.6,1.1-1c0.8-1,0.6-2.2,0.5-3.4
		c0-0.3-0.1-0.5,0-0.8c0-0.1,0-0.3,0.2-0.3c0.2,0,0.3,0.2,0.3,0.3c0.1,1.3,0.6,2.6,0.3,3.9c-0.2,0.7,0.4,1.2,0.7,1.8
		c0,0.1,0.1,0.1,0.2,0.1c1.1,0.2,2-0.1,2.8-0.7c0.2-0.2,0.5-0.4,0.6-0.8C80.1,69.1,80.8,68.9,81,69.1z"/>
	<path class="st3" d="M73,84c-0.3-0.1-0.6-0.3-0.9-0.4c-0.2-0.1-0.2-0.2-0.1-0.4c0.1-0.1,0.1-0.3,0.3-0.3c0.5,0,1,0,0.9-0.8
		c0-0.3,0.5-0.6,0.9-0.3c0.6,0.3,1.1,0.1,1.7,0.2c0.1,0,0.2,0,0.2-0.1c0.1-0.3,0.3-0.3,0.6-0.1c0.2,0.1,0.5,0,0.7,0
		c0.2,0,0.4,0,0.6,0c-0.1,0.3-0.5,0.3-0.7,0.3c-1,0.1-2,0.4-2.7,1.3c-0.3,0.2-0.6,0.2-0.9,0.3C73.3,83.7,73,83.8,73,84z"/>
	<path class="st3" d="M85,71.1c-0.2,0.1-0.1,0.4-0.2,0.6c-0.2,0.3-0.4,0.4-0.7,0.2c-0.3-0.2-0.5-0.5-0.7-0.8
		c-0.2-0.3,0.2-0.5,0.3-0.5c0.7-0.3,0.4-1,0.3-1.4c-0.1-0.4,0.1-0.7,0.2-1c0.1-0.3,0.5-0.1,0.7,0.2c0.3,0.5,0.2,1.1,0.1,1.6
		c0,0.2-0.1,0.3,0.1,0.4C85,70.7,85,70.9,85,71.1z"/>
	<path class="st3" d="M81,77.3c-0.1,0-0.3,0-0.3-0.2c0-0.2,0.1-0.2,0.3-0.3c0.3-0.1,0.7-0.2,1-0.4c0.2-0.1,0.5-0.1,0.6,0
		c0.2,0.1-0.1,0.3,0,0.4c-0.1,0.1-0.2,0.2-0.3,0.2c-0.2,0-0.3,0.1-0.4,0.2C81.6,77.3,81.3,77.3,81,77.3z"/>
	<path class="st5" d="M77.7,76.8c0.2,0,0.4,0.1,0.4,0.4c0,0-0.1,0.1-0.1,0.1C77.7,77.2,77.7,77,77.7,76.8
		C77.7,76.8,77.7,76.8,77.7,76.8z"/>
	<path class="st4" d="M81.9,77.2c0.1-0.1,0.2-0.2,0.4-0.2C82.2,77.3,82.1,77.3,81.9,77.2z"/>
	<path class="st2" d="M69,81.5c0,0.4-0.7,1-1,0.9c-0.3,0-0.2-0.2-0.2-0.4c0.1-0.4,0.5-0.7,0.8-0.9C69,81,68.9,81.4,69,81.5z"/>
	<path class="st2" d="M67.1,81.2c0.2,0,0.4,0.1,0.4,0.3c-0.2,0.5-0.7,0.4-1,0.6c-0.1,0.1-0.3,0-0.3-0.2
		C66.2,81.7,66.8,81.2,67.1,81.2z"/>
	<path class="st1" d="M66.7,73c-0.2,0-0.3-0.2-0.3-0.4c0-0.2,0.1-0.3,0.3-0.2c0.1,0,0.1,0,0.2,0c0.2-0.1,0.4-0.3,0.6-0.1
		c0,0,0,0.2,0,0.3C67.3,72.9,67.1,73,66.7,73z"/>
	<path class="st1" d="M69,72.3c0.2,0,0.4,0.1,0.4,0.3c0,0.3-0.3,0.2-0.4,0.3c-0.1,0.1-0.3,0-0.3-0.1C68.7,72.5,68.8,72.3,69,72.3z"
		/>
	<path class="st3" d="M68.3,69c0.4-0.2,0.9-0.2,0.4-0.8c0,0,0-0.1,0.1-0.2c0.1-0.2,0.4-0.3,0.6-0.2c0.2,0.1,0.6,0.1,0.7,0.5
		c0,0.3-0.1,0.4-0.3,0.6C69.3,69.1,68.8,69.2,68.3,69z"/>
	<path class="st3" d="M78.2,61.5c0,0.5-0.9,1.5-1.4,1.7c-0.1,0-0.4,0.1-0.4-0.1c-0.1-0.3,0-0.6,0.2-0.7c0.5-0.2,0.6-0.6,0.8-0.9
		c0.1-0.2,0.3-0.4,0.6-0.4C78.1,61.1,78.2,61.3,78.2,61.5z"/>
	<path class="st3" d="M81.3,63c-0.1,0.3-0.3,0.4-0.6,0.6c-0.3,0.1-0.7,0-1,0.3c-0.1,0-0.1,0-0.2-0.1c0-0.1,0-0.2,0.1-0.2
		c0.4-0.2,0.5-0.4,0.3-0.8c-0.1-0.2,0.1-0.3,0.2-0.2c0.3,0.2,0.6,0.2,0.9,0.2C81.3,62.8,81.3,62.9,81.3,63z"/>
	<path class="st3" d="M82.3,64.1c0-0.2,0.6-0.8,0.8-0.8c0.1,0,0.2,0.1,0.2,0.3c-0.1,0.2-0.1,0.5-0.3,0.7c-0.1,0.2-0.3,0.4-0.6,0.3
		C82.2,64.5,82.3,64.2,82.3,64.1z"/>
	<path class="st1" d="M78.2,67.2C78.2,67.2,78.2,67.3,78.2,67.2C78.2,67.2,78.2,67.2,78.2,67.2C78.2,67.2,78.2,67.2,78.2,67.2
		C78.2,67.2,78.2,67.2,78.2,67.2z"/>
	<path class="st3" d="M84,73.8c-0.1,0.7-0.5,1.1-0.9,1.4c-0.2,0.2-0.7,0-1-0.1c-0.1,0-0.1-0.3,0-0.4c0.4-0.4,0.5-1.1,1.1-1.4
		c0.2-0.1,0.4-0.3,0.6-0.2C83.9,73.3,83.9,73.6,84,73.8z"/>
	<path class="st1" d="M81.3,75.5c0.3,0,0.5,0,0.7,0c0.1,0,0.2,0.1,0.2,0.2c0,0.2-0.1,0.2-0.2,0.2c-0.7,0.1-1.4,0.3-2.1,0.3
		c-0.1,0-0.3,0-0.3-0.1c0-0.2,0.1-0.4,0.2-0.3C80.3,75.7,80.8,75.3,81.3,75.5z"/>
	<path class="st3" d="M84.4,72.5c-0.1,0.2-0.2,0.4-0.3,0.4c-0.1,0-0.2-0.1-0.1-0.2c0.1-0.2,0-0.4,0.3-0.5
		C84.3,72.3,84.4,72.3,84.4,72.5z"/>
	<path class="st3" d="M78,80.9c0.2-0.3,0.1-0.6,0.1-0.9c0-0.4,0-0.9,0.1-1.3c0.1-0.3,0.2-0.5,0.5-0.5c0.3,0,0.4,0.2,0.4,0.5
		c0.2,0.7-0.1,1.3-0.2,2c-0.1,0.4-0.5,0.5-0.9,0.5C78,81,78,80.9,78,80.9z"/>
	<path class="st3" d="M73.5,78.3c0,0.1,0,0.2-0.1,0.2c-0.5,0-0.6,0.5-0.8,0.8c-0.1,0.2-0.9,0.1-0.9-0.1c-0.1-0.2-0.1-0.4,0.2-0.4
		c0.4-0.1,0.7-0.3,0.8-0.7c0.1-0.3,0.3-0.2,0.4-0.2C73.4,77.9,73.5,78.1,73.5,78.3z"/>
	<path class="st2" d="M74,81.1c-0.3,0-0.4-0.1-0.4-0.4c0-0.4,0.8-1.3,1.2-1.3c0.1,0,0.2,0,0.2,0.1c0,0.1,0,0.3-0.1,0.3
		c-0.4,0.3-0.4,0.6-0.4,1C74.6,81.1,74.3,81.1,74,81.1z"/>
	<path class="st2" d="M75.1,76.1c0.1,0,0.2,0,0.2,0.1c0,0.1,0.2,0.3,0,0.4c-0.3,0.2-0.5,0.5-0.8,0.7c-0.1,0.1-0.3,0.1-0.4,0
		c-0.1-0.1-0.1-0.2-0.1-0.4C74.2,76.5,74.8,76.4,75.1,76.1z"/>
	<path class="st2" d="M78,80.9c0,0.1,0,0.1,0,0.2c0,0.3,0,0.5-0.2,0.7c-0.2,0-0.4,0-0.6,0c0.2-0.4,0-0.9,0.4-1.3
		C77.8,80.5,77.7,80.9,78,80.9z"/>
	<path class="st1" d="M71.9,77.5c0.2-0.7,0.6-1.1,1.2-1.1C73,77,72.3,77.1,71.9,77.5z"/>
	<path class="st1" d="M59.2,58.2c0,0,0.1,0,0.1,0c0.6-0.3,1.1-0.8,1.6-1.3c0.5-0.2,1.1-0.3,1.6-0.6c0.3-0.1,0.6-0.4,0.9-0.3
		c0.2,0.1,0.4,0,0.6,0c0.8,0,1.5-0.5,2.3-0.4c0.2,0,0.6-0.4,0.7,0.1c0.1,0.4-0.4,0.3-0.6,0.5c-0.1,0.1-0.3,0.1-0.3,0.3
		c0,0.2,0.2,0.2,0.4,0.2c0.7,0,1.4-0.2,2.2-0.2c0.7,0,1.3,0.3,2,0.3c0.1,0,0.4,0.1,0.4,0.3c0,0.2-0.2,0.2-0.4,0.3
		c-0.1,0-0.3-0.1-0.4,0.1c0.6,0.3,1.2,0.7,1.9,0.6c0.1,0,0.1,0.1,0.2,0.2c-0.3,0.1-0.6-0.1-0.8,0.2c-0.3,0-0.5,0-0.8,0
		c0.1-0.5-0.3-0.6-0.6-0.7c-0.4-0.2-0.8-0.3-1.2,0c-0.1,0.1-0.3,0.2,0,0.3c0.1,0,0.1,0.2,0.1,0.2c-0.1,0.2-0.2,0.4-0.5,0.4
		c-0.3,0-0.5-0.2-0.7-0.4C67.7,58,68,58,68,57.9c0.1-0.1,0.1-0.2,0-0.3c-0.3-0.3-0.1-0.5,0.1-0.7c-0.3,0-0.7-0.2-0.8,0.1
		c-0.2,0.6-0.6,0.8-1.1,1C66.1,58,66,58.1,66,58.3c0,0.2,0.2,0.1,0.3,0.1c0.2,0,0.3,0.1,0.3,0.3c0,0.2,0,0.4-0.3,0.4
		c-0.4,0-0.4,0.3-0.4,0.6c0,0.6-0.2,0.7-0.7,0.4c-0.4-0.2-0.9,0-1.1-0.5c0,0-0.2,0-0.3,0c-0.3,0.1-0.6,0.2-0.9,0
		c-0.1-0.1-0.3,0-0.4,0.2c0,0.1,0,0.2,0.1,0.2c0.7-0.1,0.9,0.4,1.1,0.9C64,61.1,64,61,64.2,61c0.3-0.1,0.7-0.3,1,0.1
		c0.1,0.1,0.3,0.1,0.4,0c0.2-0.2,0.5-0.2,0.8-0.3c-0.2,0.5-0.7,0.7-1.1,1c-0.3,0-0.3,0.2-0.3,0.4c0,0,0,0,0,0
		c-0.1,0-0.2,0.1-0.2,0.2c-0.4,0.1-0.5,0.6-0.9,0.8c-0.2,0-0.3,0-0.4,0.1c-0.5,0.4-1.2,0.2-1.7,0.3c-0.2,0-0.7-0.1-1-0.1
		c-0.3,0-0.6,0.1-1-0.1c0.7-0.4,0.9-1,0.8-1.7c0,0,0-0.1,0-0.1c0.1-0.2,0.1-0.4-0.2-0.5c-0.2-0.1-0.4,0-0.5,0.2
		c-0.1,0.2-0.2,0.4-0.5,0.3c-0.3-0.2,0-0.4,0-0.6c0-0.3,0.2-0.6-0.1-0.7c-0.7-0.3-0.8-0.6-0.5-1.3C58.9,58.8,59.1,58.5,59.2,58.2z
		 M60,59.7c0.2,0,0.9-1,0.9-1.2c0-0.1-0.1-0.2-0.3-0.2c-0.1,0-0.3,0-0.3,0.2c0,0.3-0.1,0.5-0.4,0.6c-0.1,0.1-0.2,0.3-0.2,0.4
		C59.8,59.7,59.9,59.7,60,59.7z"/>
	<path class="st6" d="M54.8,40.1c-3.7-1.9-1.5-2.5-6.6-2.4c-5.1,0.1-16.2,5.3-21,8.9s-14.7,12-12.9,19.9c1.8,8,5.8,18.1,15,17.6
		c9.1-0.5,20.1-7.5,22.9-12.3c2.8-4.8,8.7-17.2,8.5-20.9c-0.1-3.7-1.6-7.6-3-8.5C56.4,41.6,54.8,40.1,54.8,40.1z"/>
	<path class="st7" d="M54.8,40.1c0,0-1.5-0.3-0.8,0.6c0.7,0.9,0.7,1.9,2.2,1.9c1.6-0.1,0.8,1.1,1.6-0.1c0.7-1.1,0.2-2.1,0.9-4.2
		s2-4.5,2.6-5.2s3.3-1.8,4.8-1.7c1.5,0.1,2.9-0.8,2-1.1c-0.9-0.3-2.3,0-3.3,0c-1,0-3.6,1.5-3.7,1.2s-0.6-2-0.3-3.1
		c0.3-1.1,1.3-4.2,1.3-5.3c0-1.1-0.3-1.5-1.8-2.9c-1.4-1.3-1.5-2.9-4.2-3.4s-5,0-5,0s-1.3,1.8,0,1.8s3-0.4,4.3,0
		c1.4,0.4,3.8,1.4,4,2.1s1.4,1.3,1.3,2.5c0,1.2-0.9,3.7-1.3,4.7c-0.4,1,0.4,3.7,0,4.2c-0.4,0.4-1.2,1.9-1.7,3.1
		c-0.5,1.2,0.3,1.6-1.3,3.2C54.8,40.1,54.8,40.1,54.8,40.1z"/>
	<path class="st7" d="M52.4,17.3c0,0-0.4,4.4-1.8,6.6c-1.4,2.2-8.2,11.8-11.8,11.8c-3.6,0-7.2,0.2-8.6-0.4c-1.4-0.7-5.8-2.1-5.5-2.5
		s8.8-7.6,9.6-8.4c0.8-0.8,6.6-5,7.9-5.5S52.4,17.3,52.4,17.3z"/>
	<path class="st8" d="M56.1,59.6c0,0-6.7,14.7-8.7,15.9s-12.6,6.7-14,7s-5.6,0.7-7.7-0.4c-2.1-1.1-6.3-2-6.4-4.9
		c-0.1-2.9,0.7-7.3,0.7-7.3s-1.8-0.8,2.4,1.5s6.5,4.7,10.5,3.6c4-1.2,8.6-2.3,10.5-4.7c1.9-2.4,3.3-6.7,5.7-8.3
		c2.4-1.7,3.9-2.7,4.9-3.6C55,57.4,57.1,57.6,56.1,59.6z"/>
	<path class="st9" d="M51.8,17.4c0,0-13.1,7-13.4,7.5c-0.3,0.5-10,4.9-10,4.9l-2.6,1.8c0,0,1.7-4.4,2.1-7.2c0.4-2.8,4.2-7.8,6.5-8.8
		c2.3-1,6.3-1.9,8.8-1.5s5.7,1.3,6.6,1.5C50.6,15.9,51.8,17.4,51.8,17.4z"/>
	<path class="st10" d="M22.2,57.8c0.1-0.3,0.1-0.6,0.6-0.7c0.4,0,0.2-0.5,0.4-0.6c0.4-0.2,0.1-0.4,0-0.6c-0.2-0.3-0.3-0.5-0.1-0.8
		c0.2-0.3,0.6-0.2,0.9-0.1c0.4,0.2,1,0,1.2,0.6c0,0,0.2,0.1,0.3,0c0.3-0.1,0.6-0.2,0.9,0.2c0.2,0.2,0.3-0.1,0.4-0.2
		c0.1-0.1,0.2-0.2,0-0.4c-0.3-0.2-0.6-0.6-1.1-0.5c-0.1,0-0.3,0-0.4-0.1c-0.4-0.2-0.8-0.2-1.2,0c-0.2,0.1-0.4,0.1-0.5,0
		c-0.1-0.1,0-0.3,0.1-0.4c0.2-0.4,0.3-0.7,0.2-1.3c-0.1-0.6,0.5-1.1,1-1.2c0.4-0.2,0.7-0.5,1-0.7c0.1-0.1,0.2-0.2,0.3-0.2
		c0.8,0.2,1.1-0.6,1.6-0.9c0.2-0.1,0.3-0.4,0.4-0.6c0.1-0.3,0.3-0.5,0.6-0.5c0.4,0,0.6-0.4,0.9-0.7c0.1-0.1,0.1-0.2,0-0.3
		c-0.1-0.1-0.2,0-0.3,0c-0.3,0.1-0.7,0.2-1,0.5c-0.1,0.1-0.3,0.1-0.4,0c-0.1-0.2,0.1-0.2,0.2-0.3c0.3-0.4,0.6-0.7,1.1-0.9
		c0.2-0.1,0.3-0.1,0.4,0.1c0.1,0.4,0.3,0.3,0.5,0.1c0.5-0.4,1-0.6,1.3-1.2c0.1-0.2,0.4-0.1,0.6-0.1c0.2,0,0.2,0.2,0.2,0.3
		c0,0.4,0.2,0.4,0.4,0.1c0,0,0.1,0,0.1-0.1c0.3-0.8,1-1.2,1.4-1.9c0.1-0.2,0.2-0.2,0.3-0.3c0.7-0.3,1.3-0.6,2-0.8
		c0.2-0.1,0.4-0.1,0.4-0.2c0.3-0.6,0.8-0.4,1.3-0.4c1-0.1,2.1-0.1,3.1-0.4c0.4-0.1,0.8,0,1.2-0.1c0.5-0.2,0.8-0.6,1.2-1
		c0.4-0.4,0.7-0.5,1.1-0.1c0.2,0.2,0.3,0.3,0.6,0.2c0.2-0.1,0.1-0.3,0.2-0.5c0-0.2,0-0.4,0.2-0.4c1.1,0,2.3,0,3.4,0
		c0,0.2-0.1,0.2-0.2,0.2c-0.1,0-0.4-0.1-0.4,0.2c0,0.2,0.2,0.2,0.4,0.3c1.3,0.3,2.5,0.6,3.7,1.1c0.2,0.1,0.4,0.2,0.4,0.5
		c0,0.2-0.1,0.3-0.3,0.4c-0.6,0.4-1.3,0.2-1.9,0.2c-0.4,0-0.7,0.1-0.6,0.6c0,0.2-0.1,0.3-0.3,0.3c-0.6,0.1-1.2,0.2-1.7,0.8
		c-0.3,0.4-0.8,0.5-1.3,0.4c-1-0.1-1.9,0.3-2.9,0.3c-0.4,0-0.8,0.2-1.2,0.2c-0.1,0-0.2,0-0.1,0c0.1,0.8-0.9,0.5-1.1,1.1
		c-0.1,0.3-0.7,0.2-0.9-0.1c-0.1-0.1-0.2-0.3-0.3-0.2c-0.6,0.5-1.4,0.2-2,0.7c0,0.2,0.1,0.1,0.2,0.1c0.3,0,0.4,0.3,0.4,0.6
		c0,0.2-0.1,0.5-0.4,0.5c-0.3,0.1-0.6,0.3-0.9,0.2c-0.2,0-0.3,0.1-0.4,0.2c-0.2,0.9-1,0.6-1.5,0.8c-0.4,0.2-0.7,0.5-1,0.6
		c-0.2,0.1-0.2,0.3-0.1,0.4c0.2,0.5-0.1,0.5-0.4,0.5c-0.2,0-0.4-0.1-0.5-0.1c-0.4,0-0.7,0-0.6,0.6c0.1,0.3-0.1,0.4-0.3,0.4
		c-0.4,0-0.7,0-1.1,0c-0.5-0.1-0.8,0.2-1,0.7c0.5-0.1,0.9,0.3,1.2,0.4c0.1,0.1,0.2,0.2,0.2,0.3c0,0.2-0.2,0.1-0.3,0.1
		c-0.6,0-1,0.4-1.6,0.5c-0.2,0.1-0.3,0.1-0.5,0.1c-0.6,0.1-1.1,0.2-1.4,0.8c-0.1,0.2-0.3,0.3-0.5,0.3c-0.1,0-0.2,0-0.2,0.1
		c-0.4,0.6-1.2,0.7-1.8,1.1c-0.3,0.2-0.8,0.2-1.1,0.5c-0.1,0.1-0.3,0.1-0.5,0c-0.4-0.2-0.7-0.3-1,0.1C22.8,58,22.4,57.8,22.2,57.8
		C22.2,57.8,22.2,57.8,22.2,57.8z M35.6,44.1c0.1,0.2,0.2,0.2,0.3,0.2c0.6,0,1.2-0.4,1.8-0.2c0.2,0,0.4,0,0.4-0.2
		c0.1-0.2-0.1-0.2-0.2-0.3c-0.1,0-0.1-0.1-0.1-0.2c0.1-0.2,0.1-0.4-0.2-0.4c-0.2,0-0.4,0.1-0.4,0.3c0,0.1,0,0.3-0.2,0.3
		C36.5,43.7,36.1,44.1,35.6,44.1z M29.8,53.6c0-0.1-0.1-0.2-0.1-0.2c-0.4,0-0.7,0-1.1,0.2c-0.1,0.1-0.2,0.2-0.1,0.3
		c0.2,0.2,0.3,0.3,0.6,0.2C29.5,54,29.7,53.9,29.8,53.6z"/>
	<path class="st10" d="M23.4,66c-0.1-0.4-0.5-0.2-0.7-0.4c-0.3-0.2-0.4-0.4-0.1-0.7c0.1-0.1,0.2-0.2,0.3-0.4c0.1-0.2,0-0.4-0.1-0.4
		c-0.7,0.1-0.3-0.3-0.3-0.5c0-0.2-0.1-0.4-0.1-0.6c0-0.3,0-0.7,0.4-0.8c0.3-0.1,0.4,0,0.4,0.3c0,0.2,0,0.4,0.1,0.5
		c0.1,0.2,0.1,1,0.6,0.2c0.1-0.2,0.4-0.1,0.4,0.2c0,0.2,0,0.4,0.4,0.4c0.1,0,0.4,0.1,0.4-0.1c0-0.2,0-0.5-0.3-0.6
		c-0.5-0.1-0.4-0.7-0.8-1c-0.2-0.1,0.2-0.8,0.5-0.8c0.3,0,0.6,0,0.9-0.1c0.2,0,0.4,0.1,0.4-0.2c0-0.2-0.1-0.4-0.4-0.4
		c-0.1,0-0.2,0-0.3,0c-0.3,0-0.3-0.2-0.2-0.4c0.2-0.3,0.3-0.6,0.8-0.5c0.1,0,0.3,0,0.3-0.1c0.2-0.5,0.6-0.4,0.9-0.2
		c0.3,0.1,0.6,0.1,0.9,0.2l0,0c0,0.3,0,0.7,0,1c0.3,0.2,0.2-0.5,0.6-0.2c0.3,0.3,0.3,1,0,1.1c-0.4,0.2-0.6,0.5-0.5,1
		c0,0.2,0.1,0.3,0.3,0.3c0.2,0,0.2-0.2,0.3-0.3c0.1-0.2,0-0.7,0.4-0.5c0.3,0.1,0.2,0.5,0.2,0.8c0,0.2-0.1,0.2-0.2,0.3
		c-0.2,0.2-0.2,0.3-0.1,0.6c0.2,0.3,0,0.7-0.4,0.9c-0.4,0.2-0.8,0.4-1.2-0.1c-0.1-0.1-0.2-0.1-0.2,0c-0.1,0.1-0.2,0.1-0.2,0.3
		c0.2,0.7,1.1,1.1,1.6,0.7c0.2-0.1,0.4-0.2,0.6,0c0.2,0.1,0.3,0.4,0.2,0.6c-0.1,0.2-0.1,0.4-0.4,0.4c-0.5,0-1.2,0.9-1.2,1.4
		c0,0.2,0.2,0.4,0,0.5c-0.3,0.1-0.6,0.1-0.8-0.1c-0.1-0.1-0.3-0.2-0.4-0.3c-0.2-0.1-0.3,0-0.4,0.2c-0.2,0.2,0,0.2,0.1,0.2
		c0.1,0,0.2,0.1,0.2,0.2c0,0.5,0.3,0.9,0.1,1.4c0,0.1,0,0.3,0,0.4c0.2,0.4,0.3,0.7-0.2,1c-0.6,0.4-0.8,0.3-1.2-0.1
		c-0.1-0.1-0.1-0.2-0.2-0.2c-0.8-0.2-0.8-1-1.1-1.6c0.2,0.1,0.5,0.1,0.6,0.4c0,0.1,0.1,0.1,0.1,0.1c0.5,0.1,0.8-0.2,1-0.5
		c0.1-0.2,0.3-0.6-0.2-0.8c-0.2-0.1-0.3-0.5-0.7-0.4c0,0,0,0,0,0c0-0.1-0.1-0.2-0.2-0.2c-0.3-0.3-0.6-0.7-0.4-1.1
		c0.1-0.4,0-0.6-0.2-0.9C23.6,66.1,23.6,66,23.4,66L23.4,66z"/>
	<path class="st10" d="M46.5,50.3c0.4,0,0.3-0.3,0.4-0.5c0.1-0.4,0.2-0.6,0.6-0.7c0.3-0.1,0.4-0.3,0.4-0.5c0.6,0.1,0.9-0.3,1.4-0.5
		c0.3-0.2,0.5-0.3,0.7,0.1c0.3,0.4,0.8,0.2,1.2,0.1c0.2-0.1,0.5-0.1,0.7-0.1c0.3,0,0.6,0,0.9-0.2c0.4-0.2,0.8,0,1,0.4
		c0.3,0.5,0.2,1.1-0.2,1.6c-0.3,0.3-0.7,0.7-0.5,1.4c0.2,0.7-0.6,1.5-1.4,1.4c-0.3,0-0.4,0-0.4,0.3c-0.2,0.8-0.5,1.5-1.2,2
		c-0.2,0.1-0.4,0.4-0.2,0.8c0.2,0.5-0.4,0.5-0.6,0.6c-0.2,0.1-0.4,0-0.6-0.1c-0.4-0.2-0.8-0.1-0.9,0.3c0,0.1,0,0.2-0.1,0.2
		c-0.8,0-1.2,0.7-1.8,0.8c-0.5,0.1-0.9-0.2-1.2-0.5c-0.3-0.2-0.1-0.7,0-1c0.1-0.2,0.2-0.4,0.2-0.7c0-0.2,0-0.4-0.2-0.5
		c-0.5-0.1-0.4-0.5-0.4-0.8c0-0.3,0.3-0.5,0.6-0.3c0.4,0.3,0.5,0,0.6-0.3c0.1-0.3,0.2-0.5,0.6-0.3c0.4,0.2,0.6,0,0.5-0.4
		c0-0.2,0.1-0.4,0.1-0.6c0-0.2,0.1-0.4,0-0.5C46,51.3,46.3,50.8,46.5,50.3z M50.2,49.5c0.2,0,0.5,0,0.7-0.1c0.1,0,0.3-0.1,0.2-0.2
		c0-0.2-0.9-0.6-1.1-0.5c-0.2,0.2-0.7,0.2-0.6,0.6C49.5,49.7,49.9,49.4,50.2,49.5z"/>
	<path class="st9" d="M66.7,29.9c0.2-1.4,2.2-3.8,6.7-3.7c4.5,0,10.9,1.4,13.6,2.7c2.6,1.3,5,3.1,5.9,4.5c1,1.4,2.2,3,1.9,3.4
		c-0.3,0.4-11.1-2.6-12.7-3.1c-1.5-0.4-13-2-13-2L66.7,29.9z"/>
	<path class="st7" d="M66.7,30.8c0,0,9.6,0.6,11,0.9s13.9,3.5,13.9,3.5l3.2,1.5c0,0-1.3,2.4-4.3,2.8c-3,0.5-13.1,1-15.7,0
		s-2-0.6-2.5-1c-0.6-0.3-4-2.6-4.5-2.9c-0.6-0.4-0.7-2.6-1.1-3.1C66.2,32,66.7,30.8,66.7,30.8z"/>
</g>
</svg>
