<?xml version="1.0" encoding="utf-8"?>
<svg version="1.1" id="Layer_1" x="0px" y="0px" viewBox="0 0 108 108" style="enable-background:new 0 0 108 108;" xmlns="http://www.w3.org/2000/svg">
  <style type="text/css">
	.st0{fill-rule:evenodd;clip-rule:evenodd;fill:#698E3C;}
	.st1{fill:none;stroke:#718537;stroke-width:1.0129;stroke-miterlimit:10;}
	.st2{fill:#7AB242;}
	.st3{fill:#4F9844;}
	.st4{fill:#6B9F41;}
	.st5{fill:#78B354;}
	.st6{fill:#68AD44;}
	.st7{fill:#C77629;}
	.st8{fill:#F9AA5E;}
	.st9{fill:#F79028;}
	.st10{fill:#F9B374;}
</style>
  <g>
    <path class="st0" d="M 77.4 79.53 C 77.31 79.49 77.3 79.45 77.26 79.4 C 77.26 79.4 77.26 79.4 77.28 79.42 C 77.31 79.48 77.38 79.5 77.4 79.53 C 80.88 82.02 87.43 75.62 81.13 73.1 C 80.83 73.14 80.46 73.02 80.17 72.79 C 80.51 72.9 80.79 73 81.12 73.1 C 81.7 73.12 82.26 72.79 82.64 72.37 C 83.77 72.5 85.14 71.51 83.91 69.84 C 85.52 70.15 85.46 68.5 84.83 67.6 C 87.69 67.35 89.69 65.47 90.1 62.79 C 90.6 59.78 89.11 55.39 85.83 54.66 C 85.76 54.55 85.75 54.47 85.72 54.41 C 87.59 54.08 88.41 52.61 86.92 51.09 C 88.85 50.63 88.52 47.52 85.21 49.38 C 88.37 48.61 88.22 44.11 86.14 42.99 C 86.14 42.05 85.98 41.17 85.58 40.42 C 84.69 38.6 82.62 37.43 80.45 37.33 C 80.55 35.36 78.54 34.01 76.7 34.61 C 76.14 33.67 75.3 32.9 74.34 32.52 C 75.07 30.1 71.18 28.05 69.55 30.85 C 69.66 29.64 68.89 28.87 67.96 28.57 C 67.35 27.17 66.02 27.06 64.76 27.53 C 64.6 27.42 64.41 27.38 64.23 27.28 C 63.96 24.71 62.19 22.43 59.96 21.83 C 57.23 21.04 53.82 22.87 52.87 25.78 C 52.58 25.76 52.31 25.7 52.06 25.76 C 49.76 22.88 42.6 24.28 45.74 29.56 C 45.94 29.73 46.09 30 46.22 30.25 C 46.22 30.25 46.22 30.25 46.24 30.27 C 46.06 30 45.9 29.81 45.74 29.56 C 44.49 28.58 42.1 29.62 42.61 31.23 C 41.69 31.29 40.83 31.65 40.25 32.25 C 37.7 30.01 34.53 30.22 32.33 32.31 C 29.88 34.65 28.24 39.87 31.66 42.26 C 29.71 40.42 27.46 41.03 27.78 43.56 C 25.93 42.75 24.34 45.44 28.09 45.94 C 24.24 44.29 20.91 50.87 25.28 51.87 C 22.02 52.2 22.42 57.11 25.63 57.59 C 23.28 58.66 23.54 61.25 25.05 62.4 C 24.85 63.11 25.05 63.88 26.38 64.28 C 25.23 64.82 25.57 65.68 26.25 66.22 C 24.64 67.83 26.44 71.36 29.25 70.19 C 28.47 71.07 28.6 72.17 29.18 72.97 C 28.82 74.47 29.79 75.39 31.06 75.75 C 31.36 76.71 31.94 77.17 32.83 77.28 C 32.93 77.66 33.3 78.05 33.9 78.39 C 34.32 79.64 35.27 80.15 35.99 79.67 C 36.04 79.52 36.12 79.36 36.23 79.21 C 36.26 79.21 36.34 79.25 36.39 79.23 C 36.26 79.4 36.14 79.58 35.99 79.67 C 35.5 81.13 37.11 82.53 38.76 82.97 C 38.78 83.68 39.21 84.2 39.8 84.6 C 40.25 86.38 41.36 87.98 42.87 88.65 C 45.48 89.92 49.2 88.73 50.61 85.97 C 50.75 85.91 50.94 85.97 51.07 85.91 C 51.13 85.97 51.25 86.02 51.31 86.08 C 52.57 88.57 57.14 89.17 58.33 86.75 C 59.44 87.08 60.74 86.86 61.73 86.19 C 62.44 86.04 63.06 85.54 63.32 84.73 C 63.91 86.67 66.47 85.75 66.13 83.56 C 66.15 83.58 66.2 83.58 66.23 83.56 C 67.33 87.24 71.57 89.06 74.46 87.91 C 77.47 86.75 79.15 82.56 77.4 79.53 Z"/>
    <path class="st1" d="M 78.86 41.08 C 76.47 41.48 72.31 43.04 69.36 44.14"/>
    <path class="st1" d="M 74.87 35.18 C 74.05 38.53 71.77 42.99 68.96 45.45"/>
    <path class="st1" d="M 68.49 34.98 C 70.74 38.33 73.17 41.03 69.92 44.02"/>
    <path class="st1" d="M 63.71 50.42 C 61.31 54.65 57.91 58.83 54.68 60.72"/>
    <path class="st1" d="M 67.65 57.82 C 62.62 58.09 55.2 60.53 53.66 60.94"/>
    <path class="st1" d="M 57.24 52.44 C 58.59 55.26 60.26 56.72 55.77 60.32"/>
    <ellipse transform="matrix(0.177099, -0.984193, 0.984193, 0.177099, 33.381296, 98.069019)" class="st2" cx="75.34" cy="29.07" rx="8.14" ry="3.2"/>
    <ellipse transform="matrix(0.978021, -0.208505, 0.208505, 0.978021, -6.380978, 18.482342)" class="st3" cx="84.47" cy="39.49" rx="8.14" ry="3.2"/>
    <ellipse transform="matrix(0.999391, -0.0349, 0.0349, 0.999391, -1.962307, 2.599005)" class="st4" cx="73.36" cy="57.46" rx="8.14" ry="3.2"/>
    <ellipse transform="matrix(0.533195, -0.845992, 0.845992, 0.533195, -17.278671, 66.666442)" class="st5" cx="51.77" cy="48.99" rx="3.2" ry="8.14"/>
    <ellipse transform="matrix(0.559215, -0.829023, 0.829023, 0.559215, -9.315944, 74.976085)" class="st6" cx="65.85" cy="46.25" rx="8.14" ry="3.2"/>
    <ellipse transform="matrix(0.650717, -0.75932, 0.75932, 0.650717, -1.060996, 58.491344)" class="st2" cx="63.05" cy="30.4" rx="3.2" ry="8.14"/>
    <path class="st1" d="M 48.86 29.88 C 48.31 32.24 48.14 36.68 48.01 39.83"/>
    <path class="st1" d="M 41.88 31.28 C 44.65 33.33 47.89 37.16 49.06 40.7"/>
    <path class="st1" d="M 39.22 37.08 C 43.18 36.3 46.61 35.1 48.11 39.25"/>
    <path class="st1" d="M 51.62 47.46 C 54.59 51.31 57.13 56.05 57.63 59.77"/>
    <path class="st1" d="M 59.97 46.69 C 58.28 51.44 57.66 59.22 57.44 60.8"/>
    <path class="st1" d="M 50.98 54.21 C 54.1 54.06 56.1 53.08 57.69 58.61"/>
    <ellipse transform="matrix(0.543691, -0.839286, 0.839286, 0.543691, -7.287247, 43.570141)" class="st2" cx="36.42" cy="28.49" rx="3.2" ry="8.14"/>
    <ellipse transform="matrix(0.185605, -0.982625, 0.982625, 0.185605, 16.691579, 68.324804)" class="st3" cx="49.56" cy="24.09" rx="8.14" ry="3.2"/>
    <ellipse transform="matrix(0.353982, -0.935252, 0.935252, 0.353982, 1.344696, 84.501588)" class="st4" cx="61.84" cy="41.28" rx="8.14" ry="3.2"/>
    <ellipse transform="matrix(0.81871, -0.574207, 0.574207, 0.81871, -24.976772, 36.736837)" class="st5" cx="45.69" cy="57.92" rx="8.14" ry="3.2"/>
    <ellipse transform="matrix(0.836135, -0.548523, 0.548523, 0.836135, -16.103324, 33.844179)" class="st6" cx="48.6" cy="43.87" rx="3.2" ry="8.14"/>
    <ellipse transform="matrix(0.893586, -0.448893, 0.448893, 0.893586, -14.603437, 19.058441)" class="st2" cx="32.9" cy="40.33" rx="8.14" ry="3.2"/>
    <path class="st1" d="M 29.69 49.24 C 31.23 51.11 34.65 53.94 37.07 55.96"/>
    <path class="st1" d="M 26.57 55.65 C 29.88 54.69 34.89 54.45 38.41 55.66"/>
    <path class="st1" d="M 29.57 61.28 C 31.35 57.66 32.48 54.21 36.69 55.54"/>
    <path class="st1" d="M 45.34 57.73 C 50.2 57.71 55.52 58.57 58.77 60.43"/>
    <path class="st1" d="M 49.79 50.63 C 52.53 54.86 58.35 60.07 59.47 61.2"/>
    <path class="st1" d="M 50.31 62.33 C 52.08 59.76 52.52 57.58 57.88 59.67"/>
    <ellipse transform="matrix(0.941536, -0.336913, 0.336913, 0.941536, -18.410195, 10.495387)" class="st2" cx="21.04" cy="58.29" rx="8.14" ry="3.2"/>
    <ellipse transform="matrix(0.74399, -0.668191, 0.668191, 0.74399, -23.65083, 28.620326)" class="st3" cx="25.52" cy="45.18" rx="3.2" ry="8.14"/>
    <ellipse transform="matrix(0.849042, -0.528326, 0.528326, 0.849042, -17.190927, 31.5608)" class="st4" cx="46.63" cy="45.86" rx="3.2" ry="8.14"/>
    <ellipse transform="matrix(0.040699, -0.999171, 0.999171, 0.040699, -20.71688, 116.004054)" class="st5" cx="50.05" cy="68.79" rx="8.14" ry="3.2"/>
    <ellipse transform="matrix(0.071702, -0.997426, 0.997426, 0.071702, -20.064083, 94.34685)" class="st6" cx="40.66" cy="57.95" rx="3.2" ry="8.14"/>
    <ellipse transform="matrix(0.185798, -0.982588, 0.982588, 0.185798, -44.03962, 83.416015)" class="st2" cx="28.31" cy="68.28" rx="8.14" ry="3.2"/>
    <path class="st1" d="M 33.84 68.84 C 36.15 69.57 40.56 70.07 43.69 70.44"/>
    <path class="st1" d="M 34.71 75.92 C 36.96 73.31 41.03 70.38 44.64 69.47"/>
    <path class="st1" d="M 40.29 79 C 39.81 74.99 38.88 71.48 43.13 70.3"/>
    <path class="st1" d="M 51.58 67.43 C 55.64 64.76 60.57 62.58 64.31 62.37"/>
    <path class="st1" d="M 51.44 59.05 C 56.04 61.1 63.76 62.3 65.32 62.64"/>
    <path class="st1" d="M 58.26 68.57 C 58.34 65.45 57.52 63.38 63.15 62.22"/>
    <ellipse transform="matrix(0.605585, -0.79578, 0.79578, 0.605585, -52.141554, 57.08209)" class="st2" cx="31.51" cy="81.14" rx="8.14" ry="3.2"/>
    <ellipse transform="matrix(0.259392, -0.965772, 0.965772, 0.259392, -44.559286, 77.305217)" class="st3" cx="28.12" cy="67.71" rx="3.2" ry="8.14"/>
    <ellipse transform="matrix(0.423701, -0.905802, 0.905802, 0.423701, -24.80116, 74.557237)" class="st4" cx="46.19" cy="56.77" rx="3.2" ry="8.14"/>
    <ellipse transform="matrix(0.85977, -0.510682, 0.510682, 0.85977, -29.221594, 41.833439)" class="st5" cx="61.56" cy="74.13" rx="3.2" ry="8.14"/>
    <ellipse transform="matrix(0.875226, -0.483714, 0.483714, 0.875226, -27.981247, 31.860064)" class="st6" cx="47.77" cy="70.17" rx="8.14" ry="3.2"/>
    <ellipse transform="matrix(0.924988, -0.379995, 0.379995, 0.924988, -29.281392, 22.780887)" class="st2" cx="43.06" cy="85.56" rx="3.2" ry="8.14"/>
    <path class="st1" d="M 79.29 62.47 C 77.22 61.2 73.06 59.65 70.11 58.54"/>
    <path class="st1" d="M 80.15 55.39 C 77.33 57.38 72.68 59.25 68.95 59.26"/>
    <path class="st1" d="M 75.47 51.05 C 74.97 55.05 75.03 58.68 70.62 58.81"/>
    <path class="st1" d="M 61.73 59.56 C 57.14 61.17 51.84 62.1 48.16 61.4"/>
    <path class="st1" d="M 59.85 67.73 C 55.87 64.63 48.67 61.6 47.24 60.9"/>
    <path class="st1" d="M 55.53 56.84 C 54.7 59.85 55 62.05 49.25 61.83"/>
    <ellipse transform="matrix(0.779589, -0.626291, 0.626291, 0.779589, -13.368645, 64.19272)" class="st2" cx="84.51" cy="51.09" rx="8.14" ry="3.2"/>
    <ellipse transform="matrix(0.484615, -0.874727, 0.874727, 0.484615, -13.230765, 107.447628)" class="st3" cx="84.56" cy="64.95" rx="3.2" ry="8.14"/>
    <ellipse transform="matrix(0.62961, -0.776912, 0.776912, 0.62961, -31.473754, 76.404078)" class="st4" cx="64.39" cy="71.21" rx="3.2" ry="8.14"/>
    <ellipse transform="matrix(0.957537, -0.288311, 0.288311, 0.957537, -12.327523, 17.621137)" class="st5" cx="53.66" cy="50.65" rx="3.2" ry="8.14"/>
    <ellipse transform="matrix(0.966035, -0.258409, 0.258409, 0.966035, -12.700292, 19.039476)" class="st6" cx="66.09" cy="57.82" rx="8.14" ry="3.2"/>
    <ellipse transform="matrix(0.989314, -0.145802, 0.145802, 0.989314, -5.624914, 11.313045)" class="st2" cx="74.37" cy="44.02" rx="3.2" ry="8.14"/>
    <path class="st1" d="M 63.09 81.78 C 61.94 79.65 59.12 76.21 57.13 73.77"/>
    <path class="st1" d="M 67.38 76.1 C 63.95 76.4 58.99 75.68 55.76 73.82"/>
    <path class="st1" d="M 65.52 69.99 C 63.07 73.2 61.3 76.37 57.43 74.26"/>
    <path class="st1" d="M 49.36 70.45 C 44.58 69.54 39.53 67.67 36.7 65.22"/>
    <path class="st1" d="M 43.63 76.56 C 41.75 71.89 37.05 65.65 36.16 64.32"/>
    <path class="st1" d="M 45.37 64.98 C 43.14 67.16 42.29 69.22 37.43 66.14"/>
    <ellipse transform="matrix(0.988731, -0.149705, 0.149705, 0.988731, -10.339895, 11.814254)" class="st2" cx="73.32" cy="74.57" rx="8.14" ry="3.2"/>
    <ellipse transform="matrix(0.85855, -0.51273, 0.51273, 0.85855, -35.004598, 46.288657)" class="st3" cx="66.4" cy="86.58" rx="3.2" ry="8.14"/>
    <ellipse transform="matrix(0.934746, -0.355317, 0.355317, 0.934746, -26.096508, 21.615062)" class="st4" cx="45.81" cy="81.85" rx="3.2" ry="8.14"/>
    <ellipse transform="matrix(0.231909, -0.972737, 0.972737, 0.231909, -21.09262, 90.663029)" class="st5" cx="46.87" cy="58.69" rx="8.14" ry="3.2"/>
    <ellipse transform="matrix(0.26211, -0.965038, 0.965038, 0.26211, -28.797247, 104.606415)" class="st6" cx="54" cy="71.13" rx="3.2" ry="8.14"/>
    <ellipse transform="matrix(0.371098, -0.928594, 0.928594, 0.371098, -16.012146, 103.087339)" class="st2" cx="68.1" cy="63.37" rx="8.14" ry="3.2"/>
    <path class="st7" d="M 57.59 78.91 C 58.53 80.03 59.11 81.53 59.11 83.19 C 59.11 86.64 56.62 89.43 53.56 89.43 C 52.37 89.43 51.27 89.01 50.37 88.29 C 51.38 89.5 52.82 90.25 54.41 90.25 C 57.48 90.25 59.96 87.46 59.96 84.01 C 59.95 81.91 59.02 80.04 57.59 78.91 Z"/>
    <path class="st8" d="M 50.02 83.89 C 50.02 81.61 50.91 79.58 52.31 78.23 C 50.28 79.16 48.84 81.4 48.84 84.01 C 48.84 85.67 49.42 87.18 50.36 88.29 C 50.89 88.71 51.5 89.03 52.14 89.22 C 52 89.12 51.86 89.02 51.73 88.91 C 50.67 87.61 50.02 85.84 50.02 83.89 Z"/>
    <path class="st9" d="M 59.11 83.2 C 59.11 81.54 58.53 80.03 57.59 78.92 C 57.17 78.59 56.71 78.32 56.21 78.13 C 56.07 78.68 55.31 79.1 54.39 79.1 C 53.47 79.1 52.72 78.68 52.57 78.13 C 52.48 78.17 52.39 78.2 52.3 78.24 C 50.9 79.58 50.01 81.62 50.01 83.9 C 50.01 85.85 50.66 87.62 51.72 88.93 C 51.85 89.04 51.99 89.14 52.13 89.24 C 52.58 89.37 53.05 89.44 53.54 89.44 C 56.62 89.44 59.11 86.65 59.11 83.2 Z"/>
    <path class="st10" d="M 54.4 79.09 C 55.32 79.09 56.07 78.67 56.22 78.12 C 55.65 77.9 55.04 77.78 54.4 77.78 C 53.76 77.78 53.15 77.9 52.58 78.12 C 52.72 78.67 53.48 79.09 54.4 79.09 Z"/>
    <path class="st7" d="M 41.41 75.77 C 40.63 77 39.36 78 37.77 78.49 C 34.48 79.52 31.07 77.97 30.16 75.04 C 29.81 73.9 29.88 72.73 30.3 71.65 C 29.45 72.98 29.16 74.57 29.63 76.09 C 30.54 79.02 33.95 80.56 37.24 79.54 C 39.26 78.91 40.76 77.47 41.41 75.77 Z"/>
    <path class="st8" d="M 34.41 70.02 C 36.59 69.34 38.79 69.59 40.49 70.52 C 39 68.85 36.44 68.15 33.94 68.93 C 32.36 69.42 31.09 70.42 30.3 71.65 C 30.06 72.28 29.93 72.96 29.94 73.63 C 29.99 73.47 30.05 73.31 30.11 73.15 C 31.05 71.75 32.55 70.6 34.41 70.02 Z"/>
    <path class="st9" d="M 37.77 78.49 C 39.35 78 40.62 77 41.41 75.77 C 41.6 75.27 41.72 74.75 41.76 74.22 C 41.19 74.25 40.57 73.65 40.3 72.77 C 40.03 71.9 40.2 71.05 40.68 70.75 C 40.62 70.67 40.56 70.6 40.49 70.53 C 38.79 69.59 36.58 69.35 34.41 70.03 C 32.55 70.61 31.05 71.76 30.12 73.16 C 30.06 73.32 30 73.48 29.95 73.64 C 29.96 74.11 30.03 74.58 30.17 75.05 C 31.07 77.97 34.48 79.52 37.77 78.49 Z"/>
    <path class="st10" d="M 40.3 72.77 C 40.57 73.64 41.2 74.24 41.76 74.22 C 41.8 73.61 41.74 72.99 41.55 72.38 C 41.36 71.77 41.06 71.23 40.68 70.75 C 40.2 71.05 40.03 71.9 40.3 72.77 Z"/>
    <path class="st7" d="M 34.89 53.63 C 33.95 54.75 32.57 55.58 30.94 55.88 C 27.55 56.49 24.36 54.53 23.82 51.51 C 23.61 50.34 23.83 49.18 24.38 48.17 C 23.37 49.38 22.88 50.92 23.16 52.49 C 23.7 55.51 26.89 57.47 30.28 56.86 C 32.36 56.48 34.03 55.23 34.89 53.63 Z"/>
    <path class="st8" d="M 28.66 47.05 C 30.9 46.65 33.06 47.17 34.63 48.31 C 33.36 46.47 30.9 45.45 28.33 45.91 C 26.7 46.2 25.31 47.03 24.38 48.16 C 24.06 48.76 23.85 49.41 23.78 50.08 C 23.85 49.93 23.93 49.77 24.01 49.62 C 25.11 48.35 26.74 47.4 28.66 47.05 Z"/>
    <path class="st9" d="M 30.94 55.88 C 32.57 55.59 33.96 54.76 34.89 53.63 C 35.14 53.16 35.33 52.66 35.43 52.14 C 34.87 52.09 34.32 51.42 34.16 50.52 C 34 49.62 34.28 48.8 34.79 48.56 C 34.74 48.48 34.69 48.4 34.63 48.32 C 33.06 47.18 30.9 46.66 28.66 47.06 C 26.74 47.4 25.11 48.36 24.01 49.63 C 23.93 49.78 23.85 49.93 23.78 50.09 C 23.73 50.56 23.74 51.03 23.83 51.51 C 24.36 54.53 27.55 56.48 30.94 55.88 Z"/>
    <path class="st10" d="M 34.16 50.52 C 34.32 51.42 34.87 52.09 35.43 52.14 C 35.55 51.54 35.56 50.92 35.45 50.29 C 35.34 49.66 35.11 49.08 34.79 48.56 C 34.28 48.8 34 49.62 34.16 50.52 Z"/>
    <path class="st7" d="M 45.46 35.76 C 44.13 36.35 42.52 36.49 40.92 36.04 C 37.61 35.09 35.6 31.93 36.45 28.98 C 36.78 27.84 37.49 26.9 38.42 26.22 C 36.98 26.86 35.86 28.03 35.42 29.56 C 34.57 32.51 36.58 35.67 39.89 36.62 C 41.93 37.2 43.98 36.82 45.46 35.76 Z"/>
    <path class="st8" d="M 42.76 27.11 C 44.95 27.74 46.66 29.16 47.57 30.87 C 47.24 28.66 45.48 26.66 42.97 25.94 C 41.38 25.48 39.77 25.62 38.43 26.22 C 37.88 26.62 37.4 27.11 37.04 27.68 C 37.17 27.57 37.31 27.47 37.45 27.37 C 39 26.71 40.88 26.57 42.76 27.11 Z"/>
    <path class="st9" d="M 40.92 36.03 C 42.51 36.49 44.12 36.35 45.46 35.75 C 45.9 35.44 46.28 35.07 46.6 34.65 C 46.11 34.36 45.92 33.52 46.17 32.64 C 46.42 31.76 47.03 31.15 47.6 31.16 C 47.59 31.06 47.58 30.97 47.56 30.87 C 46.65 29.16 44.94 27.74 42.75 27.11 C 40.88 26.57 39 26.71 37.44 27.37 C 37.3 27.47 37.16 27.57 37.03 27.68 C 36.78 28.08 36.58 28.51 36.45 28.98 C 35.61 31.92 37.61 35.08 40.92 36.03 Z"/>
    <path class="st10" d="M 46.17 32.64 C 45.92 33.52 46.11 34.36 46.6 34.65 C 46.97 34.16 47.26 33.61 47.43 33 C 47.61 32.39 47.66 31.77 47.6 31.16 C 47.04 31.14 46.42 31.76 46.17 32.64 Z"/>
    <path class="st7" d="M 60.52 28.61 C 61.54 27.56 62.98 26.84 64.63 26.68 C 68.06 26.34 71.09 28.54 71.39 31.59 C 71.51 32.77 71.2 33.91 70.57 34.88 C 71.67 33.75 72.28 32.25 72.12 30.67 C 71.82 27.62 68.79 25.42 65.36 25.76 C 63.27 25.96 61.51 27.07 60.52 28.61 Z"/>
    <path class="st8" d="M 66.23 35.65 C 63.96 35.88 61.85 35.19 60.37 33.93 C 61.49 35.86 63.86 37.07 66.47 36.81 C 68.12 36.65 69.56 35.92 70.58 34.88 C 70.95 34.31 71.21 33.68 71.33 33.01 C 71.25 33.16 71.16 33.3 71.06 33.45 C 69.86 34.63 68.17 35.45 66.23 35.65 Z"/>
    <path class="st9" d="M 64.64 26.67 C 62.99 26.83 61.55 27.56 60.53 28.6 C 60.24 29.05 60.02 29.54 59.88 30.05 C 60.44 30.14 60.93 30.85 61.02 31.76 C 61.11 32.67 60.77 33.47 60.24 33.66 C 60.28 33.75 60.33 33.83 60.38 33.92 C 61.86 35.18 63.97 35.86 66.24 35.64 C 68.18 35.45 69.88 34.62 71.08 33.44 C 71.18 33.3 71.26 33.15 71.35 33 C 71.44 32.54 71.46 32.06 71.41 31.58 C 71.09 28.53 68.07 26.33 64.64 26.67 Z"/>
    <path class="st10" d="M 61.01 31.77 C 60.92 30.86 60.43 30.15 59.87 30.06 C 59.71 30.65 59.64 31.27 59.71 31.9 C 59.77 32.53 59.95 33.13 60.23 33.67 C 60.76 33.47 61.1 32.68 61.01 31.77 Z"/>
    <path class="st7" d="M 79.23 43.13 C 80.68 42.92 82.26 43.23 83.67 44.1 C 86.6 45.92 87.66 49.51 86.04 52.11 C 85.41 53.12 84.47 53.83 83.39 54.22 C 84.95 54 86.34 53.18 87.18 51.82 C 88.8 49.21 87.74 45.63 84.81 43.81 C 83.02 42.71 80.95 42.51 79.23 43.13 Z"/>
    <path class="st8" d="M 79.47 52.19 C 77.53 50.99 76.28 49.16 75.87 47.26 C 75.58 49.48 76.73 51.88 78.95 53.26 C 80.36 54.14 81.94 54.44 83.39 54.23 C 84.03 54 84.62 53.66 85.12 53.21 C 84.96 53.28 84.8 53.34 84.64 53.39 C 82.97 53.6 81.12 53.22 79.47 52.19 Z"/>
    <path class="st9" d="M 83.67 44.1 C 82.26 43.22 80.68 42.92 79.23 43.13 C 78.73 43.31 78.25 43.56 77.83 43.88 C 78.22 44.29 78.18 45.16 77.69 45.93 C 77.21 46.71 76.45 47.13 75.91 46.96 C 75.89 47.06 75.88 47.15 75.87 47.25 C 76.27 49.15 77.53 50.98 79.47 52.18 C 81.13 53.21 82.97 53.59 84.65 53.38 C 84.81 53.32 84.97 53.26 85.13 53.2 C 85.48 52.89 85.79 52.52 86.05 52.11 C 87.66 49.51 86.6 45.92 83.67 44.1 Z"/>
    <path class="st10" d="M 77.7 45.93 C 78.18 45.15 78.23 44.29 77.84 43.88 C 77.35 44.25 76.92 44.7 76.59 45.24 C 76.25 45.78 76.04 46.36 75.92 46.96 C 76.46 47.13 77.21 46.71 77.7 45.93 Z"/>
    <path class="st7" d="M 74.28 67.01 C 75.73 66.83 77.31 67.17 78.7 68.07 C 81.59 69.95 82.58 73.55 80.92 76.13 C 80.27 77.13 79.32 77.82 78.23 78.19 C 79.79 78 81.2 77.2 82.07 75.87 C 83.74 73.3 82.75 69.69 79.85 67.81 C 78.08 66.66 76 66.43 74.28 67.01 Z"/>
    <path class="st8" d="M 74.34 76.07 C 72.43 74.83 71.21 72.97 70.84 71.07 C 70.51 73.28 71.61 75.7 73.81 77.13 C 75.2 78.03 76.78 78.37 78.23 78.19 C 78.87 77.97 79.47 77.64 79.98 77.2 C 79.82 77.26 79.66 77.32 79.5 77.37 C 77.81 77.55 75.97 77.13 74.34 76.07 Z"/>
    <path class="st9" d="M 78.7 68.07 C 77.31 67.17 75.73 66.83 74.28 67.01 C 73.77 67.18 73.3 67.42 72.87 67.73 C 73.25 68.15 73.19 69.01 72.69 69.78 C 72.19 70.55 71.43 70.96 70.89 70.78 C 70.87 70.88 70.85 70.97 70.84 71.07 C 71.21 72.97 72.43 74.83 74.34 76.07 C 75.98 77.13 77.82 77.55 79.49 77.37 C 79.65 77.32 79.81 77.26 79.97 77.2 C 80.33 76.89 80.64 76.54 80.91 76.13 C 82.58 73.55 81.59 69.95 78.7 68.07 Z"/>
    <path class="st10" d="M 72.69 69.79 C 73.19 69.02 73.25 68.16 72.87 67.74 C 72.37 68.1 71.94 68.54 71.59 69.08 C 71.24 69.61 71.01 70.19 70.89 70.79 C 71.42 70.96 72.19 70.55 72.69 69.79 Z"/>
    <path class="st7" d="M 61.9 48.35 C 63.26 47.83 64.88 47.78 66.44 48.33 C 69.7 49.46 71.52 52.73 70.51 55.63 C 70.12 56.75 69.36 57.65 68.39 58.27 C 69.86 57.71 71.04 56.6 71.57 55.1 C 72.58 52.2 70.76 48.94 67.5 47.8 C 65.51 47.11 63.44 47.38 61.9 48.35 Z"/>
    <path class="st8" d="M 64.12 57.14 C 61.97 56.39 60.34 54.88 59.53 53.12 C 59.74 55.34 61.38 57.44 63.85 58.3 C 65.42 58.85 67.03 58.8 68.39 58.28 C 68.96 57.92 69.46 57.45 69.86 56.9 C 69.72 57 69.58 57.1 69.43 57.18 C 67.84 57.75 65.96 57.78 64.12 57.14 Z"/>
    <path class="st9" d="M 66.45 48.33 C 64.88 47.78 63.27 47.83 61.91 48.35 C 61.46 48.64 61.05 48.99 60.71 49.39 C 61.18 49.71 61.33 50.56 61.03 51.42 C 60.73 52.28 60.08 52.86 59.52 52.82 C 59.52 52.92 59.53 53.01 59.54 53.11 C 60.35 54.87 61.98 56.38 64.13 57.13 C 65.97 57.77 67.86 57.74 69.45 57.17 C 69.6 57.08 69.74 56.99 69.88 56.89 C 70.15 56.51 70.38 56.09 70.54 55.63 C 71.52 52.73 69.7 49.46 66.45 48.33 Z"/>
    <path class="st10" d="M 61.02 51.43 C 61.32 50.57 61.17 49.71 60.7 49.4 C 60.3 49.86 59.99 50.4 59.78 51 C 59.57 51.6 59.48 52.22 59.51 52.83 C 60.07 52.87 60.72 52.29 61.02 51.43 Z"/>
    <path class="st7" d="M 51.42 53.18 C 52.36 54.3 52.94 55.8 52.94 57.46 C 52.94 60.91 50.45 63.7 47.39 63.7 C 46.2 63.7 45.1 63.28 44.2 62.56 C 45.21 63.77 46.65 64.52 48.24 64.52 C 51.31 64.52 53.79 61.73 53.79 58.28 C 53.78 56.18 52.85 54.31 51.42 53.18 Z"/>
    <path class="st8" d="M 43.85 58.16 C 43.85 55.88 44.74 53.85 46.14 52.5 C 44.11 53.43 42.67 55.67 42.67 58.28 C 42.67 59.94 43.25 61.45 44.19 62.56 C 44.72 62.98 45.33 63.3 45.97 63.49 C 45.83 63.39 45.69 63.29 45.56 63.18 C 44.5 61.88 43.85 60.11 43.85 58.16 Z"/>
    <path class="st9" d="M 52.94 57.47 C 52.94 55.81 52.36 54.3 51.42 53.19 C 51 52.86 50.54 52.59 50.04 52.4 C 49.9 52.95 49.14 53.37 48.22 53.37 C 47.3 53.37 46.55 52.95 46.4 52.4 C 46.31 52.44 46.22 52.47 46.13 52.51 C 44.73 53.85 43.84 55.89 43.84 58.17 C 43.84 60.12 44.49 61.89 45.55 63.2 C 45.68 63.31 45.82 63.41 45.96 63.51 C 46.41 63.64 46.88 63.71 47.37 63.71 C 50.45 63.71 52.94 60.91 52.94 57.47 Z"/>
    <path class="st10" d="M 48.23 53.36 C 49.15 53.36 49.9 52.94 50.05 52.39 C 49.48 52.17 48.87 52.05 48.23 52.05 C 47.59 52.05 46.98 52.17 46.41 52.39 C 46.56 52.94 47.31 53.36 48.23 53.36 Z"/>
  </g>
</svg>