<?xml version="1.0" encoding="utf-8"?>
<svg version="1.1" id="Layer_1" x="0px" y="0px" viewBox="0 0 108 108" style="enable-background:new 0 0 108 108;" xmlns="http://www.w3.org/2000/svg">
  <style type="text/css">
	.st0{fill-rule:evenodd;clip-rule:evenodd;fill:#698E3C;}
	.st1{fill:none;stroke:#718537;stroke-width:1.0129;stroke-miterlimit:10;}
	.st2{fill:#7AB242;}
	.st3{fill:#4F9844;}
	.st4{fill:#6B9F41;}
	.st5{fill:#78B354;}
	.st6{fill:#68AD44;}
	.st7{fill:#9B1C1F;}
	.st8{fill:#ECA053;}
	.st9{fill:#C05D28;}
	.st10{fill:#E56E25;}
	.st11{fill:#A24E24;}
</style>
  <g>
    <path class="st0" d="M 75.71 77.32 C 75.62 77.28 75.61 77.24 75.57 77.19 C 75.57 77.19 75.57 77.19 75.59 77.21 C 75.62 77.27 75.7 77.29 75.71 77.32 C 79.19 79.81 85.74 73.41 79.44 70.89 C 79.14 70.93 78.77 70.81 78.48 70.58 C 78.82 70.69 79.1 70.79 79.43 70.89 C 80.01 70.91 80.57 70.58 80.95 70.16 C 82.08 70.29 83.45 69.3 82.22 67.63 C 83.83 67.94 83.77 66.29 83.14 65.39 C 86 65.14 88 63.26 88.41 60.58 C 88.91 57.57 87.42 53.18 84.14 52.45 C 84.07 52.34 84.06 52.26 84.03 52.2 C 85.9 51.87 86.72 50.4 85.23 48.88 C 87.16 48.42 86.83 45.31 83.52 47.17 C 86.68 46.4 86.53 41.9 84.45 40.78 C 84.45 39.84 84.29 38.96 83.89 38.21 C 83 36.39 80.93 35.22 78.76 35.12 C 78.86 33.15 76.85 31.8 75.01 32.4 C 74.45 31.46 73.61 30.69 72.65 30.31 C 73.38 27.89 69.49 25.84 67.86 28.64 C 67.97 27.43 67.2 26.66 66.27 26.36 C 65.66 24.96 64.33 24.85 63.07 25.32 C 62.91 25.21 62.72 25.17 62.54 25.07 C 62.27 22.5 60.5 20.22 58.27 19.62 C 55.54 18.83 52.13 20.66 51.18 23.57 C 50.89 23.55 50.62 23.49 50.37 23.55 C 48.07 20.67 40.91 22.07 44.05 27.35 C 44.25 27.52 44.4 27.79 44.53 28.04 C 44.53 28.04 44.53 28.04 44.55 28.06 C 44.37 27.79 44.21 27.6 44.05 27.35 C 42.8 26.37 40.41 27.41 40.92 29.02 C 40 29.08 39.14 29.44 38.56 30.04 C 36.01 27.8 32.84 28.01 30.64 30.1 C 28.19 32.44 26.55 37.66 29.97 40.05 C 28.02 38.21 25.77 38.82 26.09 41.35 C 24.24 40.54 22.65 43.23 26.4 43.73 C 22.55 42.08 19.22 48.66 23.59 49.66 C 20.33 49.99 20.73 54.9 23.94 55.38 C 21.59 56.45 21.85 59.04 23.36 60.19 C 23.16 60.9 23.36 61.67 24.69 62.07 C 23.54 62.61 23.88 63.47 24.56 64.01 C 22.95 65.62 24.75 69.15 27.56 67.98 C 26.78 68.86 26.91 69.96 27.49 70.76 C 27.13 72.26 28.1 73.18 29.37 73.54 C 29.67 74.5 30.25 74.96 31.14 75.07 C 31.24 75.45 31.61 75.84 32.21 76.18 C 32.63 77.43 33.58 77.94 34.3 77.46 C 34.35 77.31 34.43 77.15 34.54 77 C 34.57 77 34.65 77.04 34.7 77.02 C 34.57 77.19 34.45 77.37 34.3 77.46 C 33.81 78.92 35.42 80.32 37.07 80.76 C 37.09 81.47 37.52 81.99 38.11 82.39 C 38.56 84.17 39.67 85.77 41.18 86.44 C 43.79 87.71 47.51 86.52 48.92 83.76 C 49.06 83.7 49.25 83.76 49.38 83.7 C 49.44 83.76 49.56 83.81 49.62 83.87 C 50.88 86.36 55.45 86.96 56.64 84.54 C 57.75 84.87 59.05 84.65 60.04 83.98 C 60.75 83.83 61.37 83.33 61.63 82.52 C 62.22 84.46 64.78 83.54 64.44 81.35 C 64.46 81.37 64.51 81.37 64.54 81.35 C 65.64 85.03 69.88 86.85 72.77 85.7 C 75.79 84.54 77.47 80.35 75.71 77.32 Z"/>
    <path class="st1" d="M 77.18 38.87 C 74.79 39.27 70.63 40.83 67.68 41.93"/>
    <path class="st1" d="M 73.19 32.97 C 72.37 36.32 70.09 40.78 67.28 43.24"/>
    <path class="st1" d="M 66.81 32.77 C 69.06 36.12 71.49 38.82 68.24 41.81"/>
    <path class="st1" d="M 62.03 48.21 C 59.63 52.44 56.23 56.62 53 58.51"/>
    <path class="st1" d="M 65.97 55.61 C 60.94 55.88 53.52 58.32 51.98 58.73"/>
    <path class="st1" d="M 55.56 50.23 C 56.91 53.05 58.58 54.51 54.09 58.11"/>
    <ellipse transform="matrix(0.177099, -0.984193, 0.984193, 0.177099, 34.172778, 94.594227)" class="st2" cx="73.65" cy="26.86" rx="8.14" ry="3.2"/>
    <ellipse transform="matrix(0.978021, -0.208505, 0.208505, 0.978021, -5.956932, 18.082983)" class="st3" cx="82.79" cy="37.28" rx="8.14" ry="3.2"/>
    <ellipse transform="matrix(0.999391, -0.0349, 0.0349, 0.999391, -1.886123, 2.538785)" class="st4" cx="71.67" cy="55.25" rx="8.14" ry="3.2"/>
    <ellipse transform="matrix(0.533195, -0.845992, 0.845992, 0.533195, -16.193696, 64.211442)" class="st5" cx="50.09" cy="46.78" rx="3.2" ry="8.14"/>
    <ellipse transform="matrix(0.559215, -0.829023, 0.829023, 0.559215, -8.224669, 72.607077)" class="st6" cx="64.17" cy="44.04" rx="8.14" ry="3.2"/>
    <ellipse transform="matrix(0.650717, -0.75932, 0.75932, 0.650717, 0.030177, 56.441948)" class="st2" cx="61.37" cy="28.19" rx="3.2" ry="8.14"/>
    <path class="st1" d="M 47.18 27.66 C 46.63 30.02 46.46 34.46 46.33 37.61"/>
    <path class="st1" d="M 40.2 29.07 C 42.97 31.12 46.21 34.95 47.38 38.49"/>
    <path class="st1" d="M 37.54 34.87 C 41.5 34.09 44.93 32.89 46.43 37.04"/>
    <path class="st1" d="M 49.94 45.25 C 52.91 49.1 55.45 53.84 55.95 57.56"/>
    <path class="st1" d="M 58.28 44.48 C 56.59 49.23 55.97 57.01 55.75 58.59"/>
    <path class="st1" d="M 49.3 51.99 C 52.42 51.84 54.42 50.86 56.01 56.39"/>
    <ellipse transform="matrix(0.543691, -0.839286, 0.839286, 0.543691, -6.199495, 41.149444)" class="st2" cx="34.74" cy="26.28" rx="3.2" ry="8.14"/>
    <ellipse transform="matrix(0.185605, -0.982625, 0.982625, 0.185605, 17.493941, 64.871473)" class="st3" cx="47.88" cy="21.88" rx="8.14" ry="3.2"/>
    <ellipse transform="matrix(0.353982, -0.935252, 0.935252, 0.353982, 2.32536, 81.500232)" class="st4" cx="60.16" cy="39.07" rx="8.14" ry="3.2"/>
    <ellipse transform="matrix(0.81871, -0.574207, 0.574207, 0.81871, -24.012339, 35.370049)" class="st5" cx="44.01" cy="55.71" rx="8.14" ry="3.2"/>
    <ellipse transform="matrix(0.836135, -0.548523, 0.548523, 0.836135, -15.166315, 32.559317)" class="st6" cx="46.92" cy="41.66" rx="3.2" ry="8.14"/>
    <ellipse transform="matrix(0.893586, -0.448893, 0.448893, 0.893586, -13.790177, 18.068123)" class="st2" cx="31.21" cy="38.12" rx="8.14" ry="3.2"/>
    <path class="st1" d="M 28.01 47.03 C 29.55 48.9 32.97 51.73 35.39 53.75"/>
    <path class="st1" d="M 24.89 53.44 C 28.2 52.48 33.21 52.24 36.73 53.45"/>
    <path class="st1" d="M 27.89 59.07 C 29.67 55.45 30.8 52 35.01 53.33"/>
    <path class="st1" d="M 43.66 55.52 C 48.52 55.5 53.84 56.36 57.09 58.22"/>
    <path class="st1" d="M 48.11 48.42 C 50.85 52.65 56.67 57.86 57.79 58.99"/>
    <path class="st1" d="M 48.63 60.12 C 50.4 57.55 50.84 55.37 56.2 57.46"/>
    <ellipse transform="matrix(0.941536, -0.336913, 0.336913, 0.941536, -17.763608, 9.799344)" class="st2" cx="19.36" cy="56.08" rx="8.14" ry="3.2"/>
    <ellipse transform="matrix(0.74399, -0.668191, 0.668191, 0.74399, -22.604366, 26.930318)" class="st3" cx="23.84" cy="42.97" rx="3.2" ry="8.14"/>
    <ellipse transform="matrix(0.849042, -0.528326, 0.528326, 0.849042, -16.276801, 30.338348)" class="st4" cx="44.95" cy="43.65" rx="3.2" ry="8.14"/>
    <ellipse transform="matrix(0.040699, -0.999171, 0.999171, 0.040699, -20.121845, 112.202494)" class="st5" cx="48.37" cy="66.58" rx="8.14" ry="3.2"/>
    <ellipse transform="matrix(0.071702, -0.997426, 0.997426, 0.071702, -19.420622, 90.616807)" class="st6" cx="38.97" cy="55.74" rx="3.2" ry="8.14"/>
    <ellipse transform="matrix(0.185798, -0.982588, 0.982588, 0.185798, -43.237148, 79.963134)" class="st2" cx="26.63" cy="66.07" rx="8.14" ry="3.2"/>
    <path class="st1" d="M 32.16 66.63 C 34.47 67.36 38.88 67.86 42.01 68.23"/>
    <path class="st1" d="M 33.03 73.71 C 35.28 71.1 39.35 68.17 42.96 67.26"/>
    <path class="st1" d="M 38.61 76.79 C 38.13 72.78 37.2 69.28 41.45 68.09"/>
    <path class="st1" d="M 49.9 65.22 C 53.96 62.55 58.89 60.37 62.63 60.16"/>
    <path class="st1" d="M 49.76 56.84 C 54.36 58.89 62.08 60.09 63.64 60.43"/>
    <path class="st1" d="M 56.58 66.36 C 56.66 63.24 55.84 61.17 61.47 60.01"/>
    <ellipse transform="matrix(0.605585, -0.79578, 0.79578, 0.605585, -51.04582, 54.871587)" class="st2" cx="29.83" cy="78.93" rx="8.14" ry="3.2"/>
    <ellipse transform="matrix(0.259392, -0.965772, 0.965772, 0.259392, -43.670159, 74.043452)" class="st3" cx="26.44" cy="65.5" rx="3.2" ry="8.14"/>
    <ellipse transform="matrix(0.423701, -0.905802, 0.905802, 0.423701, -23.768153, 71.759537)" class="st4" cx="44.51" cy="54.56" rx="3.2" ry="8.14"/>
    <ellipse transform="matrix(0.85977, -0.510682, 0.510682, 0.85977, -28.328685, 40.664403)" class="st5" cx="59.88" cy="71.92" rx="3.2" ry="8.14"/>
    <ellipse transform="matrix(0.875226, -0.483714, 0.483714, 0.875226, -27.121771, 30.770696)" class="st6" cx="46.09" cy="67.96" rx="8.14" ry="3.2"/>
    <ellipse transform="matrix(0.924988, -0.379995, 0.379995, 0.924988, -28.567523, 21.97577)" class="st2" cx="41.37" cy="83.35" rx="3.2" ry="8.14"/>
    <path class="st1" d="M 77.61 60.26 C 75.54 58.99 71.38 57.44 68.43 56.33"/>
    <path class="st1" d="M 78.47 53.18 C 75.65 55.17 71 57.04 67.27 57.05"/>
    <path class="st1" d="M 73.79 48.84 C 73.29 52.84 73.35 56.47 68.94 56.6"/>
    <path class="st1" d="M 60.05 57.35 C 55.46 58.96 50.16 59.89 46.48 59.19"/>
    <path class="st1" d="M 58.16 65.52 C 54.18 62.42 46.98 59.39 45.55 58.69"/>
    <path class="st1" d="M 53.84 54.63 C 53.01 57.64 53.31 59.84 47.56 59.62"/>
    <ellipse transform="matrix(0.779589, -0.626291, 0.626291, 0.779589, -12.354882, 62.651909)" class="st2" cx="82.83" cy="48.88" rx="8.14" ry="3.2"/>
    <ellipse transform="matrix(0.484615, -0.874727, 0.874727, 0.484615, -12.163878, 104.836722)" class="st3" cx="82.88" cy="62.74" rx="3.2" ry="8.14"/>
    <ellipse transform="matrix(0.62961, -0.776912, 0.776912, 0.62961, -30.379312, 74.278278)" class="st4" cx="62.71" cy="69" rx="3.2" ry="8.14"/>
    <ellipse transform="matrix(0.957537, -0.288311, 0.288311, 0.957537, -11.761537, 17.0423)" class="st5" cx="51.98" cy="48.44" rx="3.2" ry="8.14"/>
    <ellipse transform="matrix(0.966035, -0.258409, 0.258409, 0.966035, -12.186011, 18.529839)" class="st6" cx="64.4" cy="55.61" rx="8.14" ry="3.2"/>
    <ellipse transform="matrix(0.989314, -0.145802, 0.145802, 0.989314, -5.320586, 11.044271)" class="st2" cx="72.69" cy="41.81" rx="3.2" ry="8.14"/>
    <path class="st1" d="M 61.4 79.57 C 60.25 77.44 57.43 74 55.44 71.56"/>
    <path class="st1" d="M 65.7 73.89 C 62.27 74.19 57.31 73.47 54.08 71.61"/>
    <path class="st1" d="M 63.84 67.78 C 61.39 70.99 59.62 74.16 55.75 72.05"/>
    <path class="st1" d="M 47.68 68.24 C 42.9 67.33 37.85 65.46 35.02 63.01"/>
    <path class="st1" d="M 41.95 74.35 C 40.07 69.68 35.37 63.44 34.48 62.11"/>
    <path class="st1" d="M 43.68 62.77 C 41.45 64.95 40.6 67.01 35.74 63.93"/>
    <ellipse transform="matrix(0.988731, -0.149705, 0.149705, 0.988731, -10.027833, 11.537614)" class="st2" cx="71.64" cy="72.36" rx="8.14" ry="3.2"/>
    <ellipse transform="matrix(0.85855, -0.51273, 0.51273, 0.85855, -34.108849, 45.113416)" class="st3" cx="64.71" cy="84.37" rx="3.2" ry="8.14"/>
    <ellipse transform="matrix(0.934746, -0.355317, 0.355317, 0.934746, -25.420692, 20.873234)" class="st4" cx="44.13" cy="79.64" rx="3.2" ry="8.14"/>
    <ellipse transform="matrix(0.231909, -0.972737, 0.972737, 0.231909, -20.234223, 87.328788)" class="st5" cx="45.18" cy="56.48" rx="8.14" ry="3.2"/>
    <ellipse transform="matrix(0.26211, -0.965038, 0.965038, 0.26211, -27.905045, 101.351674)" class="st6" cx="52.32" cy="68.92" rx="3.2" ry="8.14"/>
    <ellipse transform="matrix(0.371098, -0.928594, 0.928594, 0.371098, -15.017265, 100.135142)" class="st2" cx="66.42" cy="61.16" rx="8.14" ry="3.2"/>
    <path class="st7" d="M 56.31 77.18 C 56.29 77.16 56.27 77.15 56.26 77.13 C 56.26 77.14 56.27 77.14 56.27 77.15 C 56.28 77.16 56.29 77.17 56.31 77.18 Z"/>
    <path class="st7" d="M 54.84 76.35 C 55.35 76.56 55.82 76.83 56.26 77.15 C 56.26 77.14 56.25 77.14 56.25 77.13 C 55.86 76.77 55.44 76.46 54.98 76.19 C 54.94 76.25 54.89 76.3 54.84 76.35 Z"/>
    <path class="st8" d="M 45.37 82.71 C 45.37 79.91 47.05 77.5 49.46 76.43 C 49.25 76.24 49.09 76.02 49 75.79 C 46.49 76.81 44.71 79.27 44.71 82.15 C 44.71 83.51 45.11 84.77 45.79 85.83 C 46.25 86.55 46.83 87.17 47.52 87.67 C 47.11 87.28 46.75 86.84 46.45 86.36 C 45.77 85.31 45.37 84.06 45.37 82.71 Z"/>
    <path class="st9" d="M 58.45 82.15 C 58.45 80.19 57.63 78.43 56.31 77.18 C 56.29 77.17 56.28 77.16 56.27 77.15 C 56.94 78.21 57.34 79.47 57.34 80.82 C 57.34 84.61 54.27 87.69 50.47 87.69 C 48.97 87.69 47.58 87.2 46.45 86.38 C 46.75 86.86 47.11 87.3 47.52 87.69 C 48.66 88.53 50.06 89.03 51.59 89.03 C 55.37 89.02 58.45 85.95 58.45 82.15 Z"/>
    <path class="st10" d="M 52.11 77.29 C 51.01 77.29 50.04 76.95 49.46 76.43 C 47.05 77.5 45.37 79.9 45.37 82.71 C 45.37 84.06 45.76 85.31 46.44 86.38 C 47.57 87.2 48.96 87.69 50.46 87.69 C 54.25 87.69 57.33 84.62 57.33 80.82 C 57.33 79.47 56.94 78.22 56.26 77.15 C 55.82 76.83 55.35 76.56 54.84 76.35 C 54.27 76.92 53.26 77.29 52.11 77.29 Z"/>
    <path class="st11" d="M 51.58 75.28 C 50.67 75.28 49.8 75.46 49 75.79 C 49.09 76.02 49.25 76.24 49.46 76.43 C 50.04 76.95 51.01 77.29 52.11 77.29 C 53.27 77.29 54.28 76.91 54.84 76.35 C 54.89 76.3 54.94 76.25 54.98 76.19 C 53.98 75.62 52.82 75.28 51.58 75.28 Z"/>
    <path class="st7" d="M 35.58 61.99 C 35.56 61.97 35.54 61.96 35.53 61.94 C 35.53 61.95 35.54 61.95 35.54 61.96 C 35.55 61.97 35.56 61.98 35.58 61.99 Z"/>
    <path class="st7" d="M 34.11 61.16 C 34.62 61.37 35.09 61.64 35.53 61.96 C 35.53 61.95 35.52 61.95 35.52 61.94 C 35.13 61.58 34.71 61.27 34.25 61 C 34.21 61.06 34.16 61.11 34.11 61.16 Z"/>
    <path class="st8" d="M 24.65 67.52 C 24.65 64.72 26.33 62.31 28.74 61.24 C 28.53 61.05 28.37 60.83 28.28 60.6 C 25.77 61.62 23.99 64.08 23.99 66.96 C 23.99 68.32 24.39 69.58 25.07 70.64 C 25.53 71.36 26.11 71.98 26.8 72.48 C 26.39 72.09 26.03 71.65 25.73 71.17 C 25.04 70.12 24.65 68.87 24.65 67.52 Z"/>
    <path class="st9" d="M 37.72 66.97 C 37.72 65.01 36.9 63.25 35.58 62 C 35.56 61.99 35.55 61.98 35.54 61.97 C 36.21 63.03 36.61 64.29 36.61 65.64 C 36.61 69.43 33.54 72.51 29.74 72.51 C 28.24 72.51 26.85 72.02 25.72 71.2 C 26.02 71.68 26.38 72.12 26.79 72.51 C 27.93 73.35 29.33 73.85 30.86 73.85 C 34.64 73.83 37.72 70.76 37.72 66.97 Z"/>
    <path class="st10" d="M 31.38 62.11 C 30.28 62.11 29.31 61.77 28.73 61.25 C 26.32 62.32 24.64 64.72 24.64 67.53 C 24.64 68.88 25.03 70.13 25.71 71.2 C 26.84 72.02 28.23 72.51 29.73 72.51 C 33.52 72.51 36.6 69.44 36.6 65.64 C 36.6 64.29 36.21 63.04 35.53 61.97 C 35.09 61.65 34.62 61.38 34.11 61.17 C 33.55 61.73 32.54 62.11 31.38 62.11 Z"/>
    <path class="st11" d="M 30.85 60.1 C 29.94 60.1 29.07 60.28 28.27 60.61 C 28.36 60.84 28.52 61.06 28.73 61.25 C 29.31 61.77 30.28 62.11 31.38 62.11 C 32.54 62.11 33.55 61.73 34.11 61.17 C 34.16 61.12 34.21 61.07 34.25 61.01 C 33.25 60.43 32.09 60.1 30.85 60.1 Z"/>
    <path class="st7" d="M 35.58 38.46 C 35.56 38.44 35.54 38.43 35.53 38.41 C 35.53 38.42 35.54 38.42 35.54 38.43 C 35.55 38.43 35.56 38.45 35.58 38.46 Z"/>
    <path class="st7" d="M 34.11 37.63 C 34.62 37.84 35.09 38.11 35.53 38.43 C 35.53 38.42 35.52 38.42 35.52 38.41 C 35.13 38.05 34.71 37.74 34.25 37.47 C 34.21 37.52 34.16 37.58 34.11 37.63 Z"/>
    <path class="st8" d="M 24.65 43.98 C 24.65 41.18 26.33 38.77 28.74 37.7 C 28.53 37.51 28.37 37.29 28.28 37.06 C 25.77 38.08 23.99 40.54 23.99 43.42 C 23.99 44.78 24.39 46.04 25.07 47.1 C 25.53 47.82 26.11 48.44 26.8 48.94 C 26.39 48.55 26.03 48.11 25.73 47.63 C 25.04 46.59 24.65 45.33 24.65 43.98 Z"/>
    <path class="st9" d="M 37.72 43.43 C 37.72 41.47 36.9 39.71 35.58 38.46 C 35.56 38.45 35.55 38.44 35.54 38.43 C 36.21 39.49 36.61 40.75 36.61 42.1 C 36.61 45.89 33.54 48.97 29.74 48.97 C 28.24 48.97 26.85 48.48 25.72 47.66 C 26.02 48.14 26.38 48.58 26.79 48.97 C 27.93 49.81 29.33 50.31 30.86 50.31 C 34.64 50.3 37.72 47.22 37.72 43.43 Z"/>
    <path class="st10" d="M 31.38 38.57 C 30.28 38.57 29.31 38.23 28.73 37.71 C 26.32 38.78 24.64 41.18 24.64 43.99 C 24.64 45.34 25.03 46.59 25.71 47.66 C 26.84 48.48 28.23 48.97 29.73 48.97 C 33.52 48.97 36.6 45.9 36.6 42.1 C 36.6 40.75 36.21 39.5 35.53 38.43 C 35.09 38.11 34.62 37.84 34.11 37.63 C 33.55 38.19 32.54 38.57 31.38 38.57 Z"/>
    <path class="st11" d="M 30.85 36.56 C 29.94 36.56 29.07 36.74 28.27 37.07 C 28.36 37.3 28.52 37.52 28.73 37.71 C 29.31 38.23 30.28 38.57 31.38 38.57 C 32.54 38.57 33.55 38.19 34.11 37.63 C 34.16 37.58 34.21 37.53 34.25 37.47 C 33.25 36.89 32.09 36.56 30.85 36.56 Z"/>
    <path class="st7" d="M 49.68 23.49 C 49.66 23.47 49.64 23.46 49.63 23.44 C 49.63 23.45 49.64 23.45 49.64 23.46 C 49.65 23.47 49.67 23.48 49.68 23.49 Z"/>
    <path class="st7" d="M 48.21 22.66 C 48.72 22.87 49.19 23.14 49.63 23.46 C 49.63 23.45 49.62 23.45 49.62 23.44 C 49.23 23.08 48.81 22.77 48.35 22.5 C 48.31 22.56 48.27 22.61 48.21 22.66 Z"/>
    <path class="st8" d="M 38.75 29.02 C 38.75 26.22 40.43 23.81 42.84 22.74 C 42.63 22.55 42.47 22.33 42.38 22.1 C 39.87 23.12 38.09 25.58 38.09 28.46 C 38.09 29.82 38.49 31.08 39.17 32.14 C 39.63 32.86 40.21 33.48 40.9 33.98 C 40.49 33.59 40.13 33.15 39.83 32.67 C 39.14 31.62 38.75 30.37 38.75 29.02 Z"/>
    <path class="st9" d="M 51.82 28.47 C 51.82 26.51 51 24.75 49.68 23.5 C 49.66 23.49 49.65 23.48 49.64 23.47 C 50.31 24.53 50.71 25.79 50.71 27.14 C 50.71 30.93 47.64 34.01 43.84 34.01 C 42.34 34.01 40.95 33.52 39.82 32.7 C 40.12 33.18 40.48 33.62 40.89 34.01 C 42.03 34.85 43.43 35.35 44.96 35.35 C 48.75 35.33 51.82 32.26 51.82 28.47 Z"/>
    <path class="st10" d="M 45.48 23.61 C 44.38 23.61 43.41 23.27 42.83 22.75 C 40.42 23.82 38.74 26.22 38.74 29.03 C 38.74 30.38 39.13 31.63 39.81 32.7 C 40.94 33.52 42.33 34.01 43.83 34.01 C 47.62 34.01 50.7 30.94 50.7 27.14 C 50.7 25.79 50.31 24.54 49.63 23.47 C 49.19 23.15 48.72 22.88 48.21 22.67 C 47.65 23.23 46.64 23.61 45.48 23.61 Z"/>
    <path class="st11" d="M 44.95 21.6 C 44.04 21.6 43.17 21.78 42.37 22.11 C 42.46 22.34 42.62 22.56 42.83 22.75 C 43.41 23.27 44.38 23.61 45.48 23.61 C 46.64 23.61 47.65 23.23 48.21 22.67 C 48.26 22.62 48.31 22.57 48.35 22.51 C 47.35 21.93 46.19 21.6 44.95 21.6 Z"/>
    <path class="st7" d="M 73.16 26.55 C 73.14 26.53 73.12 26.52 73.11 26.5 C 73.11 26.51 73.12 26.51 73.12 26.52 C 73.13 26.53 73.15 26.54 73.16 26.55 Z"/>
    <path class="st7" d="M 71.7 25.72 C 72.21 25.93 72.68 26.2 73.12 26.52 C 73.12 26.51 73.11 26.51 73.11 26.5 C 72.72 26.14 72.3 25.83 71.84 25.56 C 71.79 25.62 71.75 25.67 71.7 25.72 Z"/>
    <path class="st8" d="M 62.23 32.08 C 62.23 29.28 63.91 26.87 66.32 25.8 C 66.11 25.61 65.95 25.39 65.86 25.16 C 63.35 26.18 61.57 28.64 61.57 31.52 C 61.57 32.88 61.97 34.14 62.65 35.2 C 63.11 35.92 63.69 36.54 64.38 37.04 C 63.97 36.65 63.61 36.21 63.31 35.73 C 62.62 34.68 62.23 33.43 62.23 32.08 Z"/>
    <path class="st9" d="M 75.3 31.53 C 75.3 29.57 74.48 27.81 73.16 26.56 C 73.14 26.55 73.13 26.54 73.12 26.53 C 73.79 27.59 74.19 28.85 74.19 30.2 C 74.19 33.99 71.12 37.07 67.32 37.07 C 65.82 37.07 64.43 36.58 63.3 35.76 C 63.6 36.24 63.96 36.68 64.37 37.07 C 65.51 37.91 66.91 38.41 68.44 38.41 C 72.23 38.39 75.3 35.32 75.3 31.53 Z"/>
    <path class="st10" d="M 68.96 26.67 C 67.86 26.67 66.89 26.33 66.31 25.81 C 63.9 26.88 62.22 29.28 62.22 32.09 C 62.22 33.44 62.61 34.69 63.29 35.76 C 64.42 36.58 65.81 37.07 67.31 37.07 C 71.1 37.07 74.18 34 74.18 30.2 C 74.18 28.85 73.79 27.6 73.11 26.53 C 72.67 26.21 72.2 25.94 71.69 25.73 C 71.13 26.29 70.12 26.67 68.96 26.67 Z"/>
    <path class="st11" d="M 68.43 24.66 C 67.52 24.66 66.65 24.84 65.85 25.17 C 65.94 25.4 66.1 25.62 66.31 25.81 C 66.89 26.33 67.86 26.67 68.96 26.67 C 70.12 26.67 71.13 26.29 71.69 25.73 C 71.74 25.68 71.79 25.63 71.83 25.57 C 70.83 24.99 69.67 24.66 68.43 24.66 Z"/>
    <path class="st7" d="M 87.52 46.78 C 87.5 46.76 87.48 46.75 87.47 46.73 C 87.47 46.74 87.48 46.74 87.48 46.75 C 87.49 46.75 87.5 46.77 87.52 46.78 Z"/>
    <path class="st7" d="M 86.05 45.95 C 86.56 46.16 87.03 46.43 87.47 46.75 C 87.47 46.74 87.46 46.74 87.46 46.73 C 87.07 46.37 86.65 46.06 86.19 45.79 C 86.15 45.84 86.1 45.9 86.05 45.95 Z"/>
    <path class="st8" d="M 76.58 52.3 C 76.58 49.5 78.26 47.09 80.67 46.02 C 80.46 45.83 80.3 45.61 80.21 45.38 C 77.7 46.4 75.92 48.86 75.92 51.74 C 75.92 53.1 76.32 54.36 77 55.42 C 77.46 56.14 78.04 56.76 78.73 57.26 C 78.32 56.87 77.96 56.43 77.66 55.95 C 76.98 54.91 76.58 53.65 76.58 52.3 Z"/>
    <path class="st9" d="M 89.65 51.75 C 89.65 49.79 88.83 48.03 87.51 46.78 C 87.49 46.77 87.48 46.76 87.47 46.75 C 88.14 47.81 88.54 49.07 88.54 50.42 C 88.54 54.21 85.47 57.29 81.67 57.29 C 80.17 57.29 78.78 56.8 77.65 55.98 C 77.95 56.46 78.31 56.9 78.72 57.29 C 79.86 58.13 81.26 58.63 82.79 58.63 C 86.58 58.62 89.65 55.54 89.65 51.75 Z"/>
    <path class="st10" d="M 83.32 46.89 C 82.22 46.89 81.25 46.55 80.67 46.03 C 78.26 47.1 76.58 49.5 76.58 52.31 C 76.58 53.66 76.97 54.91 77.65 55.98 C 78.78 56.8 80.17 57.29 81.67 57.29 C 85.46 57.29 88.54 54.22 88.54 50.42 C 88.54 49.07 88.15 47.82 87.47 46.75 C 87.03 46.43 86.56 46.16 86.05 45.95 C 85.48 46.51 84.47 46.89 83.32 46.89 Z"/>
    <path class="st11" d="M 82.79 44.88 C 81.88 44.88 81.01 45.06 80.21 45.39 C 80.3 45.62 80.46 45.84 80.67 46.03 C 81.25 46.55 82.22 46.89 83.32 46.89 C 84.48 46.89 85.49 46.51 86.05 45.95 C 86.1 45.9 86.15 45.85 86.19 45.79 C 85.19 45.21 84.03 44.88 82.79 44.88 Z"/>
    <path class="st7" d="M 76.09 69.38 C 76.07 69.36 76.05 69.35 76.04 69.33 C 76.04 69.34 76.05 69.34 76.05 69.35 C 76.06 69.36 76.08 69.37 76.09 69.38 Z"/>
    <path class="st7" d="M 74.63 68.55 C 75.14 68.76 75.61 69.03 76.05 69.35 C 76.05 69.34 76.04 69.34 76.04 69.33 C 75.65 68.97 75.23 68.66 74.77 68.39 C 74.73 68.45 74.68 68.5 74.63 68.55 Z"/>
    <path class="st8" d="M 65.16 74.91 C 65.16 72.11 66.84 69.7 69.25 68.63 C 69.04 68.44 68.88 68.22 68.79 67.99 C 66.28 69.01 64.5 71.47 64.5 74.35 C 64.5 75.71 64.9 76.97 65.58 78.03 C 66.04 78.75 66.62 79.37 67.31 79.87 C 66.9 79.48 66.54 79.04 66.24 78.56 C 65.55 77.51 65.16 76.25 65.16 74.91 Z"/>
    <path class="st9" d="M 78.23 74.35 C 78.23 72.39 77.41 70.63 76.09 69.38 C 76.07 69.37 76.06 69.36 76.05 69.35 C 76.72 70.41 77.12 71.67 77.12 73.02 C 77.12 76.81 74.05 79.89 70.25 79.89 C 68.75 79.89 67.36 79.4 66.23 78.58 C 66.53 79.06 66.89 79.5 67.3 79.89 C 68.44 80.73 69.84 81.23 71.37 81.23 C 75.16 81.22 78.23 78.14 78.23 74.35 Z"/>
    <path class="st10" d="M 71.9 69.49 C 70.8 69.49 69.83 69.15 69.25 68.63 C 66.84 69.7 65.16 72.1 65.16 74.91 C 65.16 76.26 65.55 77.51 66.23 78.58 C 67.36 79.4 68.75 79.89 70.25 79.89 C 74.04 79.89 77.12 76.82 77.12 73.02 C 77.12 71.67 76.73 70.42 76.05 69.35 C 75.61 69.03 75.14 68.76 74.63 68.55 C 74.06 69.12 73.05 69.49 71.9 69.49 Z"/>
    <path class="st11" d="M 71.36 67.48 C 70.45 67.48 69.58 67.66 68.78 67.99 C 68.87 68.22 69.03 68.44 69.24 68.63 C 69.82 69.15 70.79 69.49 71.89 69.49 C 73.05 69.49 74.06 69.11 74.62 68.55 C 74.67 68.5 74.72 68.45 74.76 68.39 C 73.76 67.82 72.6 67.48 71.36 67.48 Z"/>
    <path class="st7" d="M 71.54 47.43 C 71.52 47.41 71.5 47.4 71.49 47.38 C 71.49 47.39 71.5 47.39 71.5 47.4 C 71.51 47.41 71.52 47.42 71.54 47.43 Z"/>
    <path class="st7" d="M 70.07 46.6 C 70.58 46.81 71.05 47.08 71.49 47.4 C 71.49 47.39 71.48 47.39 71.48 47.38 C 71.09 47.02 70.67 46.71 70.21 46.44 C 70.17 46.5 70.12 46.55 70.07 46.6 Z"/>
    <path class="st8" d="M 60.6 52.96 C 60.6 50.16 62.28 47.75 64.69 46.68 C 64.48 46.49 64.32 46.27 64.23 46.04 C 61.72 47.06 59.94 49.52 59.94 52.4 C 59.94 53.76 60.34 55.02 61.02 56.08 C 61.48 56.8 62.06 57.42 62.75 57.92 C 62.34 57.53 61.98 57.09 61.68 56.61 C 61 55.56 60.6 54.31 60.6 52.96 Z"/>
    <path class="st9" d="M 73.68 52.4 C 73.68 50.44 72.86 48.68 71.54 47.43 C 71.52 47.42 71.51 47.41 71.5 47.4 C 72.17 48.46 72.57 49.72 72.57 51.07 C 72.57 54.86 69.5 57.94 65.7 57.94 C 64.2 57.94 62.81 57.45 61.68 56.63 C 61.98 57.11 62.34 57.55 62.75 57.94 C 63.89 58.78 65.29 59.28 66.82 59.28 C 70.6 59.27 73.68 56.2 73.68 52.4 Z"/>
    <path class="st10" d="M 67.34 47.54 C 66.24 47.54 65.27 47.2 64.69 46.68 C 62.28 47.75 60.6 50.15 60.6 52.96 C 60.6 54.31 60.99 55.56 61.67 56.63 C 62.8 57.45 64.19 57.94 65.69 57.94 C 69.48 57.94 72.56 54.87 72.56 51.07 C 72.56 49.72 72.17 48.47 71.49 47.4 C 71.05 47.08 70.58 46.81 70.07 46.6 C 69.5 47.17 68.49 47.54 67.34 47.54 Z"/>
    <path class="st11" d="M 66.81 45.53 C 65.9 45.53 65.03 45.71 64.23 46.04 C 64.32 46.27 64.48 46.49 64.69 46.68 C 65.27 47.2 66.24 47.54 67.34 47.54 C 68.5 47.54 69.51 47.16 70.07 46.6 C 70.12 46.55 70.17 46.5 70.21 46.44 C 69.21 45.87 68.05 45.53 66.81 45.53 Z"/>
    <path class="st7" d="M 53.65 52.62 C 53.63 52.6 53.61 52.59 53.6 52.57 C 53.6 52.58 53.61 52.58 53.61 52.59 C 53.63 52.6 53.64 52.61 53.65 52.62 Z"/>
    <path class="st7" d="M 52.19 51.79 C 52.7 52 53.17 52.27 53.61 52.59 C 53.61 52.58 53.6 52.58 53.6 52.57 C 53.21 52.21 52.79 51.9 52.33 51.63 C 52.29 51.69 52.24 51.74 52.19 51.79 Z"/>
    <path class="st8" d="M 42.72 58.15 C 42.72 55.35 44.4 52.94 46.81 51.87 C 46.6 51.68 46.44 51.46 46.35 51.23 C 43.84 52.25 42.06 54.71 42.06 57.59 C 42.06 58.95 42.46 60.21 43.14 61.27 C 43.6 61.99 44.18 62.61 44.87 63.11 C 44.46 62.72 44.1 62.28 43.8 61.8 C 43.12 60.75 42.72 59.5 42.72 58.15 Z"/>
    <path class="st9" d="M 55.79 57.6 C 55.79 55.64 54.97 53.88 53.65 52.63 C 53.63 52.62 53.62 52.61 53.61 52.6 C 54.28 53.66 54.68 54.92 54.68 56.27 C 54.68 60.06 51.61 63.14 47.81 63.14 C 46.31 63.14 44.92 62.65 43.79 61.83 C 44.09 62.31 44.45 62.75 44.86 63.14 C 46 63.98 47.4 64.48 48.93 64.48 C 52.72 64.46 55.79 61.39 55.79 57.6 Z"/>
    <path class="st10" d="M 49.46 52.74 C 48.36 52.74 47.39 52.4 46.81 51.88 C 44.4 52.95 42.72 55.35 42.72 58.16 C 42.72 59.51 43.11 60.76 43.79 61.83 C 44.92 62.65 46.31 63.14 47.81 63.14 C 51.6 63.14 54.68 60.07 54.68 56.27 C 54.68 54.92 54.29 53.67 53.61 52.6 C 53.17 52.28 52.7 52.01 52.19 51.8 C 51.62 52.36 50.61 52.74 49.46 52.74 Z"/>
    <path class="st11" d="M 48.93 50.73 C 48.02 50.73 47.15 50.91 46.35 51.24 C 46.44 51.47 46.6 51.69 46.81 51.88 C 47.39 52.4 48.36 52.74 49.46 52.74 C 50.62 52.74 51.63 52.36 52.19 51.8 C 52.24 51.75 52.29 51.7 52.33 51.64 C 51.33 51.06 50.17 50.73 48.93 50.73 Z"/>
  </g>
</svg>