<?xml version="1.0" encoding="utf-8"?>
<!-- Generator: Adobe Illustrator 23.1.1, SVG Export Plug-In . SVG Version: 6.00 Build 0)  -->
<svg version="1.1" id="Layer_1" xmlns="http://www.w3.org/2000/svg" xmlns:xlink="http://www.w3.org/1999/xlink" x="0px" y="0px"
	 viewBox="0 0 108 108" style="enable-background:new 0 0 108 108;" xml:space="preserve">
<style type="text/css">
	.st0{fill:none;stroke:#718537;stroke-width:0.9632;stroke-miterlimit:10;}
	.st1{fill:#A5C239;}
	.st2{fill:#84B541;}
	.st3{fill:#91BB3E;}
	.st4{fill:#AFCB36;}
	.st5{fill:#92B83F;}
	.st6{fill:#A5BE3B;}
	.st7{fill:#6A963F;}
	.st8{fill:#7CAE41;}
	.st9{fill:#9BAC3A;}
	.st10{fill:#567E39;}
	.st11{fill:#A4C839;}
	.st12{fill:#4E9B44;}
	.st13{fill:#72AA42;}
	.st14{fill:#619440;}
	.st15{fill:#072443;stroke:#231F20;stroke-width:0.4022;stroke-miterlimit:10;}
	.st16{fill:#072443;}
	.st17{fill:#0E3456;}
	.st18{fill:#256C91;}
	.st19{fill:#004B74;}
	.st20{fill:#0D3D60;}
	.st21{fill:#072443;stroke:#231F20;stroke-width:0.362;stroke-miterlimit:10;}
	.st22{fill:#072443;stroke:#231F20;stroke-width:0.354;stroke-miterlimit:10;}
</style>
<g>
	<g>
		<g>
			<path class="st0" d="M72.33,72.26c-0.06-2.3-0.96-6.43-1.6-9.36"/>
			<path class="st0" d="M78.42,69.29c-3.04-1.22-6.94-3.97-8.87-6.94"/>
			<path class="st0" d="M79.48,63.31c-3.46,1.67-6.32,3.59-8.7,0.13"/>
			<path class="st0" d="M65.58,56.74c-3.66-2.83-7.13-6.59-8.48-9.89"/>
			<path class="st0" d="M58.09,59.45c0.42-4.77-0.88-12.09-1.06-13.59"/>
			<path class="st0" d="M64.55,50.38c-2.83,0.89-4.44,2.27-7.23-2.44"/>
			<path class="st1" d="M67.37,76.76c-0.29-1.83-1.23-2.21,1.83-5.46c3.06-3.25,3.06-3.25,3.06-3.25s0.61,0.71,1.32,1.5
				c0.71,0.8,3.73,3.47,2.37,6.59c-1.36,3.12-2.53,4.81-3,5.3c-0.46,0.49-1.66,2.45-2,2.92"/>
			<path class="st2" d="M88.91,77.69c-2.23-0.93-5.43,1.08-8.14-0.82c-2.71-1.9-4.25-6.59-4.9-7.95c-0.64-1.35-1.75-0.77,0.8-0.82
				s2.7-0.91,4.92-0.38c2.22,0.53,5.29,3.84,5.49,5.21S88.91,77.69,88.91,77.69z"/>
			<path class="st3" d="M75.59,65.24c0.67,0,1.41,0.54,4.62,0.59c3.21,0.05,5.75-0.3,6.31-2.75c0.56-2.45-0.23-2.94,1.15-4.55
				c1.38-1.61,1.38-1.61,1.38-1.61s-2.77-0.09-6.62,0.01c-3.86,0.1-5.66,4-6.13,5.65C75.82,64.21,75.59,65.24,75.59,65.24z"/>
			<path class="st4" d="M73.85,65.27c0,0-1.48-1.64-4.52-1.65c-3.04-0.01-6.36-1.51-6.36-4.72c0-3.21-1.04-4.99-1.04-4.99
				s-0.06,0.46,2.58,0.25c2.64-0.21,6.4,1.61,7.45,4.24C73.01,61.02,73.85,65.27,73.85,65.27z"/>
			<path class="st5" d="M55.6,69.35c0,0,3.91-3.92,5.11-6.57c1.2-2.65,1.53-4.23-0.03-6.12s-2.12-3.4-2.12-3.4s-2.2,3.28-3.65,4.05
				c-1.45,0.76-3.04,3.45-2.27,5.04C53.43,63.95,55.6,69.35,55.6,69.35z"/>
			<path class="st6" d="M61.72,51.27c0,0.05,2.34,1.02,5.12,1.36c2.79,0.33,4.29,0.32,5.39-1.07s1.83-2.85,2.61-4.47
				c0.78-1.62,0.88-2.28,1.52-2.43c0.64-0.15-0.81,0.56-3.88-0.2s-4.54-1.6-5.82-0.6s-1.23,2.86-2.27,4.34
				C63.35,49.68,61.72,51.27,61.72,51.27z"/>
		</g>
		<g>
			<path class="st0" d="M32.25,70.68c2.22-0.62,5.99-2.51,8.68-3.84"/>
			<path class="st0" d="M36.62,75.85c0.44-3.25,2.15-7.7,4.56-10.3"/>
			<path class="st0" d="M42.67,75.41c-2.46-2.94-5.03-5.25-2.26-8.4"/>
			<path class="st0" d="M45.64,60.33c1.85-4.24,4.64-8.53,7.5-10.64"/>
			<path class="st0" d="M41.17,53.72c4.73-0.77,11.5-3.82,12.92-4.36"/>
			<path class="st0" d="M51.55,57.77c-1.56-2.53-3.28-3.74,0.59-7.6"/>
			<path class="st7" d="M26.66,66.97c1.71-0.73,1.84-1.73,5.74,0.44c3.9,2.17,3.9,2.17,3.9,2.17s-0.53,0.76-1.13,1.65
				c-0.6,0.89-2.45,4.47-5.81,3.91c-3.36-0.56-5.29-1.28-5.87-1.61s-2.78-1.01-3.32-1.23"/>
			<path class="st8" d="M31.04,88.08c0.35-2.39-2.38-5.01-1.2-8.09c1.17-3.09,5.35-5.74,6.5-6.7c1.16-0.96,0.31-1.89,0.99,0.58
				c0.67,2.46,1.55,2.39,1.58,4.67c0.03,2.28-2.43,6.07-3.7,6.6C33.93,85.68,31.04,88.08,31.04,88.08z"/>
			<path class="st3" d="M39.85,72.11c0.16,0.64-0.18,1.5,0.56,4.63c0.74,3.13,1.7,5.5,4.21,5.44s2.8-0.94,4.7,0s1.9,0.94,1.9,0.94
				s-0.6-2.7-1.64-6.42c-1.04-3.71-5.27-4.5-6.98-4.56C40.9,72.09,39.85,72.11,39.85,72.11z"/>
			<path class="st9" d="M39.39,70.43c0,0,1.23-1.84,0.5-4.79c-0.73-2.95-0.1-6.54,3.02-7.33c3.11-0.79,4.58-2.23,4.58-2.23
				s-0.46,0.05,0.39,2.56s0.01,6.6-2.28,8.27C43.31,68.58,39.39,70.43,39.39,70.43z"/>
			<path class="st5" d="M30.96,53.74c0,0,4.76,2.83,7.62,3.34c2.86,0.51,4.48,0.44,5.93-1.52c1.45-1.97,2.77-2.89,2.77-2.89
				s-3.72-1.33-4.82-2.54c-1.1-1.21-4.09-2.1-5.44-0.96S30.96,53.74,30.96,53.74z"/>
			<path class="st6" d="M50,55.24c-0.05,0.02-0.42,2.52-0.06,5.3c0.36,2.78,0.74,4.24,2.36,4.96c1.62,0.72,3.21,1.08,4.97,1.44
				c1.76,0.36,2.42,0.29,2.72,0.88c0.3,0.58-0.75-0.65-0.76-3.81c-0.01-3.16,0.44-4.79-0.84-5.79c-1.28-0.99-3.07-0.49-4.77-1.14
				C51.93,56.43,50,55.24,50,55.24z"/>
		</g>
		<g>
			<path class="st0" d="M38.89,31.4c0.73,2.19,2.81,5.86,4.27,8.48"/>
			<path class="st0" d="M33.94,36.02c3.26,0.28,7.8,1.76,10.52,4.03"/>
			<path class="st0" d="M34.69,42.04c2.81-2.61,4.99-5.29,8.28-2.68"/>
			<path class="st0" d="M49.9,44.25c4.33,1.63,8.75,4.2,11.01,6.96"/>
			<path class="st0" d="M56.27,39.46c1,4.69,4.39,11.3,5,12.68"/>
			<path class="st0" d="M52.75,50.03c2.45-1.68,3.58-3.47,7.62,0.21"/>
			<path class="st1" d="M42.31,25.63c0.82,1.67,1.82,1.76-0.15,5.76s-1.97,4-1.97,4s-0.79-0.5-1.7-1.05s-4.59-2.22-4.2-5.6
				c0.39-3.38,1.01-5.35,1.31-5.95s0.87-2.83,1.06-3.38"/>
			<path class="st10" d="M21.44,31.07c2.4,0.23,4.88-2.62,8.02-1.6c3.14,1.02,6,5.05,7.01,6.16s1.9,0.22-0.53,1.01
				c-2.43,0.8-2.31,1.66-4.59,1.81s-6.18-2.12-6.78-3.37C23.99,33.83,21.44,31.07,21.44,31.07z"/>
			<path class="st3" d="M37.84,39.06c-0.64,0.2-1.51-0.1-4.6,0.79c-3.09,0.9-5.41,1.97-5.22,4.48s1.08,2.75,0.24,4.69
				c-0.85,1.95-0.85,1.95-0.85,1.95s2.67-0.73,6.33-1.96c3.66-1.23,4.23-5.49,4.21-7.2C37.92,40.11,37.84,39.06,37.84,39.06z"/>
			<path class="st4" d="M39.49,38.52c0,0,1.9,1.13,4.81,0.26c2.91-0.88,6.53-0.42,7.47,2.65s2.46,4.46,2.46,4.46
				s-0.07-0.46-2.54,0.52c-2.47,0.97-6.59,0.34-8.37-1.86C41.54,42.34,39.49,38.52,39.49,38.52z"/>
			<path class="st5" d="M55.74,29.26c0,0-2.59,4.89-2.95,7.78s-0.22,4.49,1.82,5.84s3.02,2.62,3.02,2.62s1.14-3.78,2.3-4.94
				c1.16-1.16,1.9-4.19,0.69-5.49C59.4,33.79,55.74,29.26,55.74,29.26z"/>
			<path class="st6" d="M55.2,48.35c-0.02-0.05-2.53-0.29-5.3,0.21c-2.76,0.5-4.19,0.95-4.83,2.61s-0.92,3.27-1.19,5.04
				c-0.27,1.77-0.17,2.43-0.74,2.76c-0.57,0.33,0.61-0.78,3.77-0.95c3.16-0.17,4.81,0.2,5.74-1.13c0.93-1.33,0.34-3.09,0.9-4.82
				C54.1,50.34,55.2,48.35,55.2,48.35z"/>
		</g>
		<g>
			<path class="st0" d="M79.59,36.71c-2.27,0.38-6.23,1.86-9.04,2.91"/>
			<path class="st0" d="M75.79,31.1c-0.78,3.18-2.95,7.43-5.62,9.76"/>
			<path class="st0" d="M69.72,30.91c2.14,3.19,4.45,5.75,1.36,8.59"/>
			<path class="st0" d="M65.18,45.59c-2.28,4.02-5.51,7.99-8.59,9.79"/>
			<path class="st0" d="M68.92,52.63c-4.78,0.26-11.84,2.58-13.31,2.97"/>
			<path class="st0" d="M59.03,47.51c1.28,2.68,2.87,4.07-1.39,7.5"/>
			<path class="st1" d="M84.75,40.99c-1.77,0.55-2.02,1.53-5.66-1.04c-3.65-2.57-3.65-2.57-3.65-2.57s0.61-0.7,1.3-1.52
				c0.69-0.82,2.91-4.19,6.19-3.28c3.28,0.91,5.12,1.83,5.67,2.22c0.55,0.39,2.66,1.3,3.17,1.57"/>
			<path class="st11" d="M82.62,19.53c-0.61,2.34,1.83,5.23,0.34,8.18s-5.92,5.14-7.17,5.97c-1.25,0.83-0.51,1.84-0.92-0.68
				c-0.41-2.52-1.28-2.54-1.07-4.81c0.21-2.27,3.06-5.78,4.38-6.18C79.5,21.61,82.62,19.53,82.62,19.53z"/>
			<path class="st12" d="M72.18,34.48c-0.1-0.66,0.34-1.47-0.07-4.66c-0.4-3.19-1.11-5.65-3.61-5.86s-2.88,0.64-4.67-0.49
				c-1.79-1.14-1.79-1.14-1.79-1.14s0.31,2.75,0.95,6.55c0.64,3.8,4.76,5.04,6.46,5.27C71.13,34.4,72.18,34.48,72.18,34.48z"/>
			<path class="st4" d="M72.46,36.2c0,0-1.41,1.7-1,4.71c0.42,3.01-0.6,6.51-3.77,6.97c-3.18,0.45-4.79,1.74-4.79,1.74
				s0.46,0-0.12-2.59c-0.58-2.59,0.69-6.56,3.14-7.98C68.37,37.63,72.46,36.2,72.46,36.2z"/>
			<path class="st5" d="M79.08,53.69c0,0-4.43-3.32-7.22-4.13s-4.41-0.91-6.05,0.89s-3.06,2.58-3.06,2.58s3.56,1.72,4.52,3.04
				c0.96,1.32,3.84,2.52,5.31,1.53S79.08,53.69,79.08,53.69z"/>
			<path class="st6" d="M60.31,50.19c0.05-0.01,0.68-2.46,0.62-5.26c-0.06-2.8-0.29-4.29-1.82-5.18c-1.53-0.89-3.08-1.41-4.79-1.95
				c-1.71-0.54-2.38-0.55-2.62-1.16s0.67,0.72,0.35,3.87s-0.94,4.72,0.23,5.84c1.17,1.12,3,0.82,4.62,1.63
				C58.51,48.79,60.31,50.19,60.31,50.19z"/>
		</g>
		<g>
			<g>
				<path class="st13" d="M57.09,62.1c-0.06-2.3-0.96-6.43-1.6-9.36"/>
				<path class="st13" d="M63.18,59.13c-3.04-1.22-6.94-3.97-8.87-6.94"/>
				<path class="st13" d="M64.23,53.15c-3.46,1.67-6.32,3.59-8.7,0.13"/>
				<path class="st13" d="M50.34,46.58c-3.66-2.83-7.13-6.59-8.48-9.89"/>
				<path class="st13" d="M42.84,49.29c0.42-4.77-0.88-12.09-1.06-13.59"/>
				<path class="st13" d="M49.31,40.22c-2.83,0.89-4.44,2.27-7.23-2.44"/>
				<g>
					<path class="st14" d="M52.12,66.6c-0.29-1.83-1.23-2.21,1.83-5.46c3.06-3.25,3.06-3.25,3.06-3.25s0.61,0.71,1.32,1.5
						c0.71,0.8,3.73,3.47,2.37,6.59c-1.36,3.12-2.53,4.81-3,5.3c-0.46,0.49-1.66,2.45-2,2.92"/>
				</g>
				<g>
					<path class="st14" d="M73.67,67.53c-2.23-0.93-5.43,1.08-8.14-0.82c-2.71-1.9-4.25-6.59-4.9-7.95
						c-0.64-1.35-1.75-0.77,0.8-0.82c2.55-0.05,2.7-0.91,4.92-0.38c2.22,0.53,5.29,3.84,5.49,5.21
						C72.05,64.15,73.67,67.53,73.67,67.53z"/>
				</g>
				<g>
					<path class="st14" d="M60.34,55.07c0.67,0,1.41,0.54,4.62,0.59c3.21,0.05,5.75-0.3,6.31-2.75c0.56-2.45-0.23-2.94,1.15-4.55
						c1.38-1.61,1.38-1.61,1.38-1.61s-2.77-0.09-6.62,0.01c-3.86,0.1-5.66,4-6.13,5.65S60.34,55.07,60.34,55.07z"/>
				</g>
				<g>
					<path class="st14" d="M58.6,55.11c0,0-1.48-1.64-4.52-1.65c-3.04-0.01-6.36-1.51-6.36-4.72s-1.04-4.99-1.04-4.99
						S46.62,44.2,49.26,44s6.4,1.61,7.45,4.24C57.77,50.86,58.6,55.11,58.6,55.11z"/>
				</g>
				<g>
					<path class="st13" d="M40.36,59.19c0,0,3.91-3.92,5.11-6.57c1.2-2.65,1.53-4.23-0.03-6.12s-2.12-3.4-2.12-3.4
						s-2.2,3.28-3.65,4.05c-1.45,0.76-3.04,3.45-2.27,5.04C38.18,53.79,40.36,59.19,40.36,59.19z"/>
				</g>
				<g>
					<path class="st13" d="M46.47,41.1c0,0.05,2.34,1.02,5.12,1.36c2.79,0.33,4.29,0.32,5.39-1.07s1.83-2.85,2.61-4.47
						c0.78-1.62,0.88-2.28,1.52-2.43c0.64-0.15-0.81,0.56-3.88-0.2c-3.07-0.76-4.54-1.6-5.82-0.6c-1.28,1-1.23,2.86-2.27,4.34
						C48.11,39.52,46.47,41.1,46.47,41.1z"/>
				</g>
			</g>
		</g>
	</g>
	<g>
		<path class="st15" d="M48.18,63.05c-2.1,0.21-2.88,0.14-3.88,1.35c-1,1.21-1.9,3.22-3.12,5.45c-1.23,2.23-1.56,5.69-1.45,7.02
			c0.11,1.34-0.11,2.79,0.56,3.79c0.67,1,1,2.23,2.56,2.23s3.23,0.22,3.57-2.23c0.33-2.45,1.23-5.02,2.23-6.24s2.23-3.57,2.45-4.68
			s0.78-2.23,0.56-3.9C51.43,64.17,48.74,63,48.18,63.05z"/>
		<circle class="st16" cx="44.68" cy="64.37" r="1.32"/>
		<circle class="st16" cx="43.06" cy="66.1" r="1.32"/>
		<circle class="st16" cx="42.04" cy="68.42" r="1.32"/>
		<circle class="st17" cx="40.41" cy="73.18" r="1.32"/>
		<circle class="st18" cx="41.03" cy="70.77" r="1.32"/>
		<circle class="st16" cx="40.08" cy="75.44" r="1.32"/>
		<circle class="st18" cx="40.08" cy="78.09" r="1.32"/>
		<circle class="st17" cx="41.03" cy="80.26" r="1.32"/>
		<circle class="st19" cx="42.04" cy="82.02" r="1.32"/>
		<circle class="st16" cx="44" cy="82.02" r="1.32"/>
		<circle class="st18" cx="45.71" cy="81.24" r="1.32"/>
		<circle class="st16" cx="46.65" cy="79.21" r="1.32"/>
		<circle class="st17" cx="44.99" cy="79.41" r="1.32"/>
		<circle class="st16" cx="43.26" cy="79.92" r="1.32"/>
		<circle class="st16" cx="42.35" cy="78.73" r="1.32"/>
		<circle class="st16" cx="41.74" cy="76.43" r="1.32"/>
		<circle class="st17" cx="43.36" cy="77.27" r="1.32"/>
		<circle class="st16" cx="45.33" cy="77.27" r="1.32"/>
		<circle class="st16" cx="47.03" cy="77.27" r="1.32"/>
		<circle class="st19" cx="47.97" cy="75.61" r="1.32"/>
		<circle class="st18" cx="49.06" cy="73.78" r="1.32"/>
		<circle class="st16" cx="49.87" cy="72.01" r="1.32"/>
		<circle class="st16" cx="50.75" cy="70.29" r="1.32"/>
		<circle class="st18" cx="51.19" cy="68.42" r="1.32"/>
		<circle class="st16" cx="51.19" cy="66.1" r="1.32"/>
		<circle class="st16" cx="50.38" cy="64.51" r="1.32"/>
		<circle class="st19" cx="48.55" cy="63.45" r="1.32"/>
		<circle class="st16" cx="46.65" cy="63.45" r="1.32"/>
		<circle class="st20" cx="45.8" cy="65.15" r="1.32"/>
		<circle class="st16" cx="44.58" cy="66.78" r="1.32"/>
		<circle class="st17" cx="44" cy="68.42" r="1.32"/>
		<circle class="st16" cx="43.06" cy="70.29" r="1.32"/>
		<circle class="st16" cx="42.68" cy="71.86" r="1.32"/>
		<circle class="st19" cx="42.35" cy="74.02" r="1.32"/>
		<circle class="st16" cx="44" cy="74.94" r="1.32"/>
		<circle class="st17" cx="44.14" cy="72.7" r="1.32"/>
		<circle class="st16" cx="45.71" cy="75.35" r="1.32"/>
		<circle class="st16" cx="47.01" cy="73.78" r="1.32"/>
		<circle class="st16" cx="45.91" cy="72.98" r="1.32"/>
		<circle class="st16" cx="44.99" cy="70.77" r="1.32"/>
		<circle class="st17" cx="47.97" cy="72.09" r="1.32"/>
		<circle class="st19" cx="46.65" cy="70.77" r="1.32"/>
		<circle class="st16" cx="46.18" cy="68.97" r="1.32"/>
		<circle class="st16" cx="48.55" cy="70.12" r="1.32"/>
		<circle class="st16" cx="49.06" cy="68.42" r="1.32"/>
		<circle class="st17" cx="49.3" cy="66.89" r="1.32"/>
		<circle class="st16" cx="48.55" cy="65.45" r="1.32"/>
		<circle class="st16" cx="47.03" cy="66.1" r="1.32"/>
		<circle class="st16" cx="46.31" cy="67.57" r="1.32"/>
		<circle class="st16" cx="47.5" cy="68.11" r="1.32"/>
	</g>
	<g>
		<path class="st21" d="M46.63,55.37c-0.81-1.72-0.99-2.4-2.32-2.89c-1.33-0.48-3.3-0.64-5.56-1c-2.26-0.37-5.29,0.39-6.39,0.89
			c-1.1,0.5-2.4,0.75-3.05,1.62c-0.65,0.87-1.59,1.52-1.12,2.85c0.47,1.32,0.79,2.81,2.97,2.35s4.62-0.47,5.97,0.01
			c1.34,0.48,3.7,0.81,4.71,0.67c1.01-0.15,2.13-0.01,3.48-0.7C46.67,58.46,46.84,55.82,46.63,55.37z"/>
		<circle class="st16" cx="44.46" cy="52.8" r="1.19"/>
		<circle class="st16" cx="42.5" cy="51.95" r="1.19"/>
		<circle class="st16" cx="40.23" cy="51.78" r="1.19"/>
		<circle class="st17" cx="35.7" cy="51.84" r="1.19"/>
		<circle class="st18" cx="37.93" cy="51.63" r="1.19"/>
		<circle class="st16" cx="33.68" cy="52.24" r="1.19"/>
		<circle class="st18" cx="31.44" cy="53.04" r="1.19"/>
		<circle class="st17" cx="29.88" cy="54.5" r="1.19"/>
		<circle class="st19" cx="28.69" cy="55.88" r="1.19"/>
		<circle class="st16" cx="29.29" cy="57.55" r="1.19"/>
		<circle class="st18" cx="30.46" cy="58.76" r="1.19"/>
		<circle class="st16" cx="32.47" cy="58.95" r="1.19"/>
		<circle class="st17" cx="31.8" cy="57.6" r="1.19"/>
		<circle class="st16" cx="30.84" cy="56.29" r="1.19"/>
		<circle class="st16" cx="31.58" cy="55.16" r="1.19"/>
		<circle class="st16" cx="33.34" cy="53.94" r="1.19"/>
		<circle class="st17" cx="33.12" cy="55.57" r="1.19"/>
		<circle class="st16" cx="33.71" cy="57.24" r="1.19"/>
		<circle class="st16" cx="34.23" cy="58.68" r="1.19"/>
		<circle class="st19" cx="35.92" cy="58.98" r="1.19"/>
		<circle class="st18" cx="37.8" cy="59.35" r="1.19"/>
		<circle class="st16" cx="39.54" cy="59.51" r="1.19"/>
		<circle class="st16" cx="41.27" cy="59.73" r="1.19"/>
		<circle class="st18" cx="42.99" cy="59.54" r="1.19"/>
		<circle class="st16" cx="44.95" cy="58.84" r="1.19"/>
		<circle class="st16" cx="46.06" cy="57.67" r="1.19"/>
		<circle class="st19" cx="46.4" cy="55.8" r="1.19"/>
		<circle class="st16" cx="45.83" cy="54.19" r="1.19"/>
		<circle class="st20" cx="44.13" cy="53.99" r="1.19"/>
		<circle class="st16" cx="42.39" cy="53.44" r="1.19"/>
		<circle class="st17" cx="40.82" cy="53.45" r="1.19"/>
		<circle class="st16" cx="38.95" cy="53.21" r="1.19"/>
		<circle class="st16" cx="37.51" cy="53.36" r="1.19"/>
		<circle class="st19" cx="35.57" cy="53.74" r="1.19"/>
		<circle class="st16" cx="35.29" cy="55.41" r="1.19"/>
		<circle class="st17" cx="37.23" cy="54.85" r="1.19"/>
		<circle class="st16" cx="35.46" cy="56.98" r="1.19"/>
		<circle class="st16" cx="37.18" cy="57.61" r="1.19"/>
		<circle class="st16" cx="37.53" cy="56.43" r="1.19"/>
		<circle class="st16" cx="39.12" cy="54.99" r="1.19"/>
		<circle class="st17" cx="38.9" cy="57.92" r="1.19"/>
		<circle class="st19" cx="39.62" cy="56.4" r="1.19"/>
		<circle class="st16" cx="41.01" cy="55.45" r="1.19"/>
		<circle class="st16" cx="40.75" cy="57.81" r="1.19"/>
		<circle class="st16" cx="42.34" cy="57.73" r="1.19"/>
		<circle class="st17" cx="43.71" cy="57.47" r="1.19"/>
		<circle class="st16" cx="44.7" cy="56.41" r="1.19"/>
		<circle class="st16" cx="43.7" cy="55.31" r="1.19"/>
		<circle class="st16" cx="42.23" cy="55.15" r="1.19"/>
		<circle class="st16" cx="42.13" cy="56.32" r="1.19"/>
	</g>
	<g>
		<path class="st15" d="M50.32,46.48c0.56-2.04,0.9-2.74,0.13-4.11c-0.77-1.37-2.33-2.92-3.97-4.87s-4.75-3.49-6.04-3.87
			c-1.29-0.37-2.56-1.1-3.74-0.84c-1.18,0.27-2.44,0.14-3,1.6c-0.56,1.46-1.37,2.94,0.8,4.13s4.24,2.94,5.03,4.32
			c0.79,1.38,2.53,3.36,3.49,3.97c0.96,0.61,1.8,1.53,3.44,1.92C48.12,49.11,50.18,47.01,50.32,46.48z"/>
		<circle class="st16" cx="50.34" cy="42.74" r="1.32"/>
		<circle class="st16" cx="49.31" cy="40.6" r="1.32"/>
		<circle class="st16" cx="47.51" cy="38.82" r="1.32"/>
		<circle class="st17" cx="43.65" cy="35.6" r="1.32"/>
		<circle class="st18" cx="45.68" cy="37.03" r="1.32"/>
		<circle class="st16" cx="41.65" cy="34.48" r="1.32"/>
		<circle class="st18" cx="39.18" cy="33.53" r="1.32"/>
		<circle class="st17" cx="36.82" cy="33.64" r="1.32"/>
		<circle class="st19" cx="34.81" cy="33.95" r="1.32"/>
		<circle class="st16" cx="34.11" cy="35.78" r="1.32"/>
		<circle class="st18" cx="34.23" cy="37.65" r="1.32"/>
		<circle class="st16" cx="35.79" cy="39.26" r="1.32"/>
		<circle class="st17" cx="36.19" cy="37.64" r="1.32"/>
		<circle class="st16" cx="36.34" cy="35.84" r="1.32"/>
		<circle class="st16" cx="37.77" cy="35.42" r="1.32"/>
		<circle class="st16" cx="40.14" cy="35.67" r="1.32"/>
		<circle class="st17" cx="38.77" cy="36.88" r="1.32"/>
		<circle class="st16" cx="38.07" cy="38.72" r="1.32"/>
		<circle class="st16" cx="37.46" cy="40.31" r="1.32"/>
		<circle class="st19" cx="38.67" cy="41.78" r="1.32"/>
		<circle class="st18" cx="39.99" cy="43.45" r="1.32"/>
		<circle class="st16" cx="41.35" cy="44.84" r="1.32"/>
		<circle class="st16" cx="42.64" cy="46.29" r="1.32"/>
		<circle class="st18" cx="44.23" cy="47.37" r="1.32"/>
		<circle class="st16" cx="46.4" cy="48.2" r="1.32"/>
		<circle class="st16" cx="48.18" cy="48.01" r="1.32"/>
		<circle class="st19" cx="49.82" cy="46.67" r="1.32"/>
		<circle class="st16" cx="50.5" cy="44.9" r="1.32"/>
		<circle class="st20" cx="49.22" cy="43.5" r="1.32"/>
		<circle class="st16" cx="48.13" cy="41.78" r="1.32"/>
		<circle class="st17" cx="46.81" cy="40.65" r="1.32"/>
		<circle class="st16" cx="45.4" cy="39.1" r="1.32"/>
		<circle class="st16" cx="44.07" cy="38.19" r="1.32"/>
		<circle class="st19" cx="42.17" cy="37.11" r="1.32"/>
		<circle class="st16" cx="40.72" cy="38.32" r="1.32"/>
		<circle class="st17" cx="42.76" cy="39.25" r="1.32"/>
		<circle class="st16" cx="39.73" cy="39.76" r="1.32"/>
		<circle class="st16" cx="40.73" cy="41.54" r="1.32"/>
		<circle class="st16" cx="41.87" cy="40.8" r="1.32"/>
		<circle class="st16" cx="44.26" cy="40.73" r="1.32"/>
		<circle class="st17" cx="41.95" cy="43.04" r="1.32"/>
		<circle class="st19" cx="43.66" cy="42.28" r="1.32"/>
		<circle class="st16" cx="45.52" cy="42.49" r="1.32"/>
		<circle class="st16" cx="43.59" cy="44.29" r="1.32"/>
		<circle class="st16" cx="45" cy="45.37" r="1.32"/>
		<circle class="st17" cx="46.34" cy="46.14" r="1.32"/>
		<circle class="st16" cx="47.95" cy="45.96" r="1.32"/>
		<circle class="st16" cx="47.89" cy="44.31" r="1.32"/>
		<circle class="st16" cx="46.77" cy="43.11" r="1.32"/>
		<circle class="st16" cx="45.84" cy="44.03" r="1.32"/>
	</g>
	<g>
		<path class="st22" d="M57.56,46.34c1.84,0.24,2.5,0.46,3.6-0.38c1.1-0.84,2.27-2.38,3.77-4.04s2.48-4.56,2.65-5.73
			c0.17-1.17,0.66-2.37,0.28-3.36c-0.37-0.99-0.41-2.11-1.75-2.43c-1.34-0.31-2.72-0.84-3.5,1.19c-0.78,2.03-2.06,4.05-3.17,4.9
			s-2.63,2.61-3.04,3.52c-0.42,0.91-1.12,1.75-1.26,3.23C55,44.73,57.08,46.28,57.56,46.34z"/>
		<circle class="st16" cx="60.83" cy="45.91" r="1.16"/>
		<circle class="st16" cx="62.57" cy="44.76" r="1.16"/>
		<circle class="st16" cx="63.91" cy="42.98" r="1.16"/>
		<circle class="st17" cx="66.26" cy="39.23" r="1.16"/>
		<circle class="st18" cx="65.24" cy="41.17" r="1.16"/>
		<circle class="st16" cx="67" cy="37.36" r="1.16"/>
		<circle class="st18" cx="67.53" cy="35.09" r="1.16"/>
		<circle class="st17" cx="67.15" cy="33.04" r="1.16"/>
		<circle class="st19" cx="66.64" cy="31.33" r="1.16"/>
		<circle class="st16" cx="64.96" cy="30.93" r="1.16"/>
		<circle class="st18" cx="63.34" cy="31.26" r="1.16"/>
		<circle class="st16" cx="62.13" cy="32.81" r="1.16"/>
		<circle class="st17" cx="63.59" cy="32.97" r="1.16"/>
		<circle class="st16" cx="65.17" cy="32.88" r="1.16"/>
		<circle class="st16" cx="65.71" cy="34.08" r="1.16"/>
		<circle class="st16" cx="65.78" cy="36.18" r="1.16"/>
		<circle class="st17" cx="64.55" cy="35.13" r="1.16"/>
		<circle class="st16" cx="62.87" cy="34.73" r="1.16"/>
		<circle class="st16" cx="61.41" cy="34.39" r="1.16"/>
		<circle class="st19" cx="60.27" cy="35.62" r="1.16"/>
		<circle class="st18" cx="58.97" cy="36.97" r="1.16"/>
		<circle class="st16" cx="57.92" cy="38.32" r="1.16"/>
		<circle class="st16" cx="56.82" cy="39.62" r="1.16"/>
		<circle class="st18" cx="56.06" cy="41.14" r="1.16"/>
		<circle class="st16" cx="55.6" cy="43.12" r="1.16"/>
		<circle class="st16" cx="55.97" cy="44.65" r="1.16"/>
		<circle class="st19" cx="57.33" cy="45.92" r="1.16"/>
		<circle class="st16" cx="58.96" cy="46.31" r="1.16"/>
		<circle class="st20" cx="60.02" cy="45.02" r="1.16"/>
		<circle class="st16" cx="61.4" cy="43.88" r="1.16"/>
		<circle class="st17" cx="62.22" cy="42.58" r="1.16"/>
		<circle class="st16" cx="63.41" cy="41.17" r="1.16"/>
		<circle class="st16" cx="64.05" cy="39.91" r="1.16"/>
		<circle class="st19" cx="64.76" cy="38.12" r="1.16"/>
		<circle class="st16" cx="63.53" cy="37" r="1.16"/>
		<circle class="st17" cx="62.97" cy="38.89" r="1.16"/>
		<circle class="st16" cx="62.16" cy="36.31" r="1.16"/>
		<circle class="st16" cx="60.73" cy="37.39" r="1.16"/>
		<circle class="st16" cx="61.51" cy="38.3" r="1.16"/>
		<circle class="st16" cx="61.85" cy="40.37" r="1.16"/>
		<circle class="st17" cx="59.56" cy="38.64" r="1.16"/>
		<circle class="st19" cx="60.43" cy="40.04" r="1.16"/>
		<circle class="st16" cx="60.47" cy="41.68" r="1.16"/>
		<circle class="st16" cx="58.67" cy="40.21" r="1.16"/>
		<circle class="st16" cx="57.89" cy="41.57" r="1.16"/>
		<circle class="st17" cx="57.38" cy="42.83" r="1.16"/>
		<circle class="st16" cx="57.73" cy="44.21" r="1.16"/>
		<circle class="st16" cx="59.16" cy="43.96" r="1.16"/>
		<circle class="st16" cx="60.07" cy="42.85" r="1.16"/>
		<circle class="st16" cx="59.17" cy="42.14" r="1.16"/>
	</g>
	<g>
		<path class="st15" d="M62.55,65.46c-0.97,1.88-1.45,2.49-0.98,3.99c0.47,1.5,1.67,3.34,2.87,5.58c1.2,2.24,3.92,4.4,5.1,5.04
			s2.28,1.61,3.48,1.6c1.21-0.01,2.42,0.37,3.27-0.94c0.85-1.31,1.95-2.59,0.07-4.21c-1.88-1.62-3.54-3.76-4.02-5.27
			c-0.48-1.51-1.78-3.81-2.59-4.61c-0.81-0.79-1.45-1.87-2.97-2.59C65.26,63.34,62.81,64.96,62.55,65.46z"/>
		<circle class="st16" cx="61.76" cy="69.11" r="1.32"/>
		<circle class="st16" cx="62.32" cy="71.41" r="1.32"/>
		<circle class="st16" cx="63.71" cy="73.53" r="1.32"/>
		<circle class="st17" cx="66.82" cy="77.49" r="1.32"/>
		<circle class="st18" cx="65.14" cy="75.66" r="1.32"/>
		<circle class="st16" cx="68.54" cy="79" r="1.32"/>
		<circle class="st18" cx="70.76" cy="80.44" r="1.32"/>
		<circle class="st17" cx="73.09" cy="80.82" r="1.32"/>
		<circle class="st19" cx="75.12" cy="80.94" r="1.32"/>
		<circle class="st16" cx="76.19" cy="79.29" r="1.32"/>
		<circle class="st18" cx="76.46" cy="77.43" r="1.32"/>
		<circle class="st16" cx="75.27" cy="75.53" r="1.32"/>
		<circle class="st17" cx="74.54" cy="77.04" r="1.32"/>
		<circle class="st16" cx="74.02" cy="78.77" r="1.32"/>
		<circle class="st16" cx="72.53" cy="78.88" r="1.32"/>
		<circle class="st16" cx="70.26" cy="78.14" r="1.32"/>
		<circle class="st17" cx="71.86" cy="77.24" r="1.32"/>
		<circle class="st16" cx="72.93" cy="75.59" r="1.32"/>
		<circle class="st16" cx="73.85" cy="74.16" r="1.32"/>
		<circle class="st19" cx="72.98" cy="72.47" r="1.32"/>
		<circle class="st18" cx="72.03" cy="70.56" r="1.32"/>
		<circle class="st16" cx="70.99" cy="68.92" r="1.32"/>
		<circle class="st16" cx="70.02" cy="67.24" r="1.32"/>
		<circle class="st18" cx="68.7" cy="65.85" r="1.32"/>
		<circle class="st16" cx="66.75" cy="64.59" r="1.32"/>
		<circle class="st16" cx="64.97" cy="64.4" r="1.32"/>
		<circle class="st19" cx="63.09" cy="65.37" r="1.32"/>
		<circle class="st16" cx="62.06" cy="66.96" r="1.32"/>
		<circle class="st20" cx="63.02" cy="68.59" r="1.32"/>
		<circle class="st16" cx="63.72" cy="70.5" r="1.32"/>
		<circle class="st17" cx="64.78" cy="71.88" r="1.32"/>
		<circle class="st16" cx="65.84" cy="73.69" r="1.32"/>
		<circle class="st16" cx="66.94" cy="74.86" r="1.32"/>
		<circle class="st19" cx="68.58" cy="76.32" r="1.32"/>
		<circle class="st16" cx="70.25" cy="75.43" r="1.32"/>
		<circle class="st17" cx="68.45" cy="74.1" r="1.32"/>
		<circle class="st16" cx="71.52" cy="74.22" r="1.32"/>
		<circle class="st16" cx="70.91" cy="72.28" r="1.32"/>
		<circle class="st16" cx="69.64" cy="72.77" r="1.32"/>
		<circle class="st16" cx="67.29" cy="72.34" r="1.32"/>
		<circle class="st17" cx="70.03" cy="70.55" r="1.32"/>
		<circle class="st19" cx="68.2" cy="70.94" r="1.32"/>
		<circle class="st16" cx="66.42" cy="70.36" r="1.32"/>
		<circle class="st16" cx="68.68" cy="68.99" r="1.32"/>
		<circle class="st16" cx="67.53" cy="67.64" r="1.32"/>
		<circle class="st17" cx="66.38" cy="66.61" r="1.32"/>
		<circle class="st16" cx="64.77" cy="66.46" r="1.32"/>
		<circle class="st16" cx="64.48" cy="68.08" r="1.32"/>
		<circle class="st16" cx="65.33" cy="69.48" r="1.32"/>
		<circle class="st16" cx="66.43" cy="68.78" r="1.32"/>
	</g>
	<g>
		<path class="st15" d="M80.18,49.4c-1.32-1.65-1.68-2.35-3.24-2.53c-1.56-0.19-3.73,0.15-6.27,0.33s-5.62,1.77-6.69,2.59
			c-1.06,0.82-2.4,1.42-2.88,2.52c-0.48,1.11-1.33,2.05-0.48,3.36s1.57,2.84,3.81,1.79s4.88-1.69,6.45-1.51
			c1.57,0.18,4.21-0.06,5.26-0.48c1.06-0.42,2.3-0.55,3.58-1.65C81.01,52.74,80.53,49.84,80.18,49.4z"/>
		<circle class="st16" cx="77.18" cy="47.18" r="1.32"/>
		<circle class="st16" cx="74.85" cy="46.75" r="1.32"/>
		<circle class="st16" cx="72.34" cy="47.15" r="1.32"/>
		<circle class="st17" cx="67.46" cy="48.37" r="1.32"/>
		<circle class="st18" cx="69.82" cy="47.58" r="1.32"/>
		<circle class="st16" cx="65.38" cy="49.32" r="1.32"/>
		<circle class="st18" cx="63.16" cy="50.75" r="1.32"/>
		<circle class="st17" cx="61.85" cy="52.72" r="1.32"/>
		<circle class="st19" cx="60.91" cy="54.53" r="1.32"/>
		<circle class="st16" cx="61.98" cy="56.18" r="1.32"/>
		<circle class="st18" cx="63.56" cy="57.19" r="1.32"/>
		<circle class="st16" cx="65.78" cy="56.88" r="1.32"/>
		<circle class="st17" cx="64.71" cy="55.59" r="1.32"/>
		<circle class="st16" cx="63.34" cy="54.41" r="1.32"/>
		<circle class="st16" cx="63.85" cy="53.01" r="1.32"/>
		<circle class="st16" cx="65.45" cy="51.24" r="1.32"/>
		<circle class="st17" cx="65.62" cy="53.06" r="1.32"/>
		<circle class="st16" cx="66.69" cy="54.72" r="1.32"/>
		<circle class="st16" cx="67.61" cy="56.15" r="1.32"/>
		<circle class="st19" cx="69.52" cy="56.04" r="1.32"/>
		<circle class="st18" cx="71.64" cy="55.96" r="1.32"/>
		<circle class="st16" cx="73.57" cy="55.68" r="1.32"/>
		<circle class="st16" cx="75.5" cy="55.49" r="1.32"/>
		<circle class="st18" cx="77.31" cy="54.85" r="1.32"/>
		<circle class="st16" cx="79.26" cy="53.59" r="1.32"/>
		<circle class="st16" cx="80.15" cy="52.04" r="1.32"/>
		<circle class="st19" cx="80.05" cy="49.93" r="1.32"/>
		<circle class="st16" cx="79.02" cy="48.34" r="1.32"/>
		<circle class="st20" cx="77.13" cy="48.54" r="1.32"/>
		<circle class="st16" cx="75.1" cy="48.4" r="1.32"/>
		<circle class="st17" cx="73.41" cy="48.8" r="1.32"/>
		<circle class="st16" cx="71.33" cy="49.02" r="1.32"/>
		<circle class="st16" cx="69.81" cy="49.56" r="1.32"/>
		<circle class="st19" cx="67.81" cy="50.45" r="1.32"/>
		<circle class="st16" cx="67.93" cy="52.34" r="1.32"/>
		<circle class="st17" cx="69.89" cy="51.24" r="1.32"/>
		<circle class="st16" cx="68.51" cy="53.99" r="1.32"/>
		<circle class="st16" cx="70.53" cy="54.23" r="1.32"/>
		<circle class="st16" cx="70.61" cy="52.87" r="1.32"/>
		<circle class="st16" cx="71.97" cy="50.91" r="1.32"/>
		<circle class="st17" cx="72.47" cy="54.13" r="1.32"/>
		<circle class="st19" cx="72.87" cy="52.3" r="1.32"/>
		<circle class="st16" cx="74.13" cy="50.93" r="1.32"/>
		<circle class="st16" cx="74.45" cy="53.54" r="1.32"/>
		<circle class="st16" cx="76.15" cy="53.05" r="1.32"/>
		<circle class="st17" cx="77.56" cy="52.42" r="1.32"/>
		<circle class="st16" cx="78.37" cy="51.01" r="1.32"/>
		<circle class="st16" cx="77" cy="50.09" r="1.32"/>
		<circle class="st16" cx="75.37" cy="50.28" r="1.32"/>
		<circle class="st16" cx="75.56" cy="51.57" r="1.32"/>
	</g>
</g>
</svg>
