<?xml version="1.0" encoding="utf-8"?>
<!-- Generator: Adobe Illustrator 23.1.1, SVG Export Plug-In . SVG Version: 6.00 Build 0)  -->
<svg version="1.1" id="Layer_1" xmlns="http://www.w3.org/2000/svg" xmlns:xlink="http://www.w3.org/1999/xlink" x="0px" y="0px"
	 viewBox="0 0 108 108" style="enable-background:new 0 0 108 108;" xml:space="preserve">
<style type="text/css">
	.st0{fill-rule:evenodd;clip-rule:evenodd;fill:#79A23F;}
	.st1{opacity:0.34;fill:#68431A;}
	.st2{fill:none;stroke:#718537;stroke-width:0.6452;stroke-miterlimit:10;}
	.st3{fill:#A5C239;}
	.st4{fill:#84B541;}
	.st5{fill:#91BB3E;}
	.st6{fill:#AFCB36;}
	.st7{fill:#92B83F;}
	.st8{fill:#A5BE3B;}
	.st9{fill:#A4C839;}
	.st10{fill:#72AA42;}
	.st11{fill:#F15C34;}
	.st12{fill:#C44C29;}
	.st13{fill:#F68A48;}
</style>
<g>
	<g>
		<path class="st0" d="M76.84,78.1c-0.09-0.04-0.1-0.08-0.14-0.13c0,0,0,0,0.02,0.02C76.75,78.05,76.82,78.07,76.84,78.1
			c3.48,2.49,10.03-3.91,3.73-6.43c-0.3,0.04-0.67-0.08-0.96-0.31h0c0.34,0.11,0.62,0.21,0.95,0.31c0.58,0.02,1.14-0.31,1.52-0.73
			c1.13,0.13,2.5-0.86,1.27-2.53c1.61,0.31,1.55-1.34,0.92-2.24c2.86-0.25,4.86-2.13,5.27-4.81c0.5-3.01-0.99-7.4-4.27-8.13
			c-0.07-0.11-0.08-0.19-0.11-0.25c1.87-0.33,2.69-1.8,1.2-3.32c1.93-0.46,1.6-3.57-1.71-1.71c3.16-0.77,3.01-5.27,0.93-6.39
			c0-0.94-0.16-1.82-0.56-2.57c-0.89-1.82-2.96-2.99-5.13-3.09c0.1-1.97-1.91-3.32-3.75-2.72c-0.56-0.94-1.4-1.71-2.36-2.09
			c0.73-2.42-3.16-4.47-4.79-1.67c0.11-1.21-0.66-1.98-1.59-2.28c-0.61-1.4-1.94-1.51-3.2-1.04c-0.16-0.11-0.35-0.15-0.53-0.25
			c-0.27-2.57-2.04-4.85-4.27-5.45c-2.73-0.79-6.14,1.04-7.09,3.95c-0.29-0.02-0.56-0.08-0.81-0.02c-2.3-2.88-9.46-1.48-6.32,3.8
			c0.2,0.17,0.35,0.44,0.48,0.69c0,0,0,0,0.02,0.02c-0.18-0.27-0.34-0.46-0.5-0.71c-1.25-0.98-3.64,0.06-3.13,1.67
			c-0.92,0.06-1.78,0.42-2.36,1.02c-2.55-2.24-5.72-2.03-7.92,0.06c-2.45,2.34-4.09,7.56-0.67,9.95c-1.95-1.84-4.2-1.23-3.88,1.3
			c-1.85-0.81-3.44,1.88,0.31,2.38c-3.85-1.65-7.18,4.93-2.81,5.93c-3.26,0.33-2.86,5.24,0.35,5.72c-2.35,1.07-2.09,3.66-0.58,4.81
			c-0.2,0.71,0,1.48,1.33,1.88c-1.15,0.54-0.81,1.4-0.13,1.94c-1.61,1.61,0.19,5.14,3,3.97c-0.78,0.88-0.65,1.98-0.07,2.78
			c-0.36,1.5,0.61,2.42,1.88,2.78c0.3,0.96,0.88,1.42,1.77,1.53c0.1,0.38,0.47,0.77,1.07,1.11c0.42,1.25,1.37,1.76,2.09,1.28
			c0.05-0.15,0.13-0.31,0.24-0.46c0.03,0,0.11,0.04,0.16,0.02c-0.13,0.17-0.25,0.35-0.4,0.44c-0.49,1.46,1.12,2.86,2.77,3.3
			c0.02,0.71,0.45,1.23,1.04,1.63c0.45,1.78,1.56,3.38,3.07,4.05c2.61,1.27,6.33,0.08,7.74-2.68c0.14-0.06,0.33,0,0.46-0.06
			c0.06,0.06,0.18,0.11,0.24,0.17c1.26,2.49,5.83,3.09,7.02,0.67c1.11,0.33,2.41,0.11,3.4-0.56c0.71-0.15,1.33-0.65,1.59-1.46
			c0.59,1.94,3.15,1.02,2.81-1.17c0.02,0.02,0.07,0.02,0.1,0c1.1,3.68,5.34,5.5,8.23,4.35C76.91,85.32,78.59,81.13,76.84,78.1z"/>
		<path class="st1" d="M84.09,61.43l-1.99-0.42l-3.97-0.91l-0.02,0l-0.15-0.01c-1.14-0.08-2.28-0.08-3.42-0.04
			c-1.07,0.04-2.15,0.11-3.21,0.39c-0.29-0.48-0.73-0.53-1.12-0.74l-1.28-0.56l-2.55-1.12c-0.95-0.4-1.9-0.79-2.85-1.18
			c0.27-1.07,0.39-2.01,0.29-2.84c1.05-0.5,2.1-1.06,3.09-1.71c0.37-0.24,0.72-0.5,1.07-0.76c0.19,0.13,0.4,0.13,0.61,0.17
			l1.09,0.18l2.17,0.37l4.36,0.67c1.46,0.21,2.91,0.41,4.38,0.59c1.47,0.16,2.93,0.35,4.41,0.48l0.25-1.16
			c-1.43-0.38-2.87-0.7-4.31-1.04c-1.44-0.32-2.89-0.63-4.34-0.93L72.25,50l-2.08-0.38c0.68-0.7,1.33-1.44,1.88-2.24
			c0.72-1.03,1.3-2.14,1.78-3.28l7.64-0.76l-0.05-1.19l-6.87-0.05c0.12-0.37,0.24-0.75,0.33-1.13c0.62-2.24,0.76-4.54,0.89-6.81
			l-1.19-0.06c-0.25,2.19-0.52,4.38-1.22,6.44c-0.66,2.06-1.6,4.01-2.9,5.67c-1.29,1.67-2.93,3.01-4.77,4.05
			c-1.11,0.64-2.3,1.15-3.53,1.63c-0.58-0.31-1.15-0.56-1.4-0.77c-0.37-0.31-0.9-0.76-1.45-1.15l-0.81-12.59
			c0.06-0.05,0.13-0.11,0.19-0.16l0.65-0.51l1.36-1.02l2.77-2l5.6-3.93l-0.65-0.99l-5.81,3.65l-2.89,1.87l-1.36,0.92l-0.53-8.23
			l-1.19,0.04l0.1,9.46c-0.01,0.01-0.02,0.02-0.03,0.03l0.03,0.02l0.05,4.71c-0.03-0.03-0.05-0.05-0.08-0.08
			c-0.6-0.57-1.22-1.11-1.85-1.64c-0.09-0.07-0.18-0.13-0.27-0.21l-3.05-10.74l-1.15,0.3l2.03,8.81c-0.5-0.36-1.01-0.71-1.53-1.05
			c-1.36-0.9-2.78-1.72-4.21-2.49c-1.44-0.76-2.92-1.45-4.4-2.11l-0.49,1.08c1.44,0.69,2.87,1.41,4.26,2.2
			c1.39,0.78,2.77,1.59,4.08,2.48c1.32,0.89,2.6,1.83,3.81,2.84c0.6,0.51,1.2,1.03,1.75,1.58c0.28,0.27,0.55,0.55,0.82,0.84
			c0.1,0.1,0.19,0.21,0.29,0.32l0.06,6.02c-0.84,0.36-1.45,0.98-1.45,0.98s-0.4,0.34-0.91,0.83l-10.27-5.34
			c-0.33-0.67-0.82-1.23-1.21-1.85l-1.76-2.57c-1.21-1.69-2.41-3.39-3.68-5.04l-0.99,0.66c1.04,1.8,2.16,3.56,3.27,5.32l1.71,2.61
			c0.3,0.41,0.55,0.87,0.84,1.29c-0.66,0-1.31,0.07-1.96,0.09l-3.54,0.2c-2.36,0.17-4.71,0.35-7.07,0.61l0.06,1.19
			c2.37,0.04,4.73-0.02,7.09-0.07l3.54-0.14c0.89-0.06,1.78-0.01,2.66-0.2l2.71,1.65l-6.61,3.94L28.4,55.32l0.19,1.17l11.04-1.8
			l0.06-0.01l0.11-0.05l8.62-3.54l4.12,2.51c-0.09,0.18-0.15,0.35-0.18,0.5c-0.17,1.04,0.37,2.13,0.65,3.38l-4.6,3.74l-19.87-1.1
			l-0.09,1.18l11.8,1.23l-9.12,7.06l0.69,0.97l11.74-7.68l3.95,0.41l-0.54,4.08c-0.13,0.95-0.25,1.89-0.38,2.84l-12.07,4.15
			l0.35,1.14l11.33-3.01c-0.01,0.02-0.01,0.05-0.01,0.07l-1.97,10.32l1.16,0.24l2.36-10.27c0.44-1.7,0.67-3.45,0.98-5.18l0.81-4.74
			l3.9-2.34c0.17,0.2,0.47,0.34,1,0.48c0.56,0.15,1.06,0.24,1.48,0.3l2.06,12.31l-4.1,12.01l1.11,0.41l4.08-10.33l6.54,9.51l1-0.64
			l-6.84-11.38l-0.73-12.19c0.63-0.19,1.2-0.36,1.2-0.36s1.24-0.63,2.17-1.59c1.06,0.37,2.12,0.73,3.18,1.08l2.66,0.84l1.33,0.42
			c0.19,0.04,0.38,0.12,0.57,0.18l0.78,3.93l0.44,2.16l0.23,1.09l0.14,0.6c0.03,0.13,0.1,0.29,0.18,0.43l0.15,0.26
			c0.79,1.28,1.6,2.49,2.41,3.73l2.44,3.67l1.01-0.63l-2.19-3.81c-0.72-1.27-1.46-2.56-2.13-3.81l-0.11-0.22
			c0-0.02-0.02-0.02-0.02-0.08l-0.08-0.48l-0.16-1.08l-0.3-2.17l-0.46-3.47c0.73,0.03,1.46-0.01,2.19-0.07
			c0.63-0.05,1.26-0.12,1.89-0.2l4.75,11.44l1.11-0.41l-3.61-11.07l3.07,0.7l2.01,0.42c0.7,0.13,1.3,0.27,2.13,0.33v-1.19
			C85.46,61.7,84.73,61.56,84.09,61.43z"/>
		<g>
			<path class="st2" d="M72.68,78.46c-0.04-1.54-0.65-4.31-1.07-6.27"/>
			<path class="st2" d="M76.76,76.48c-2.04-0.82-4.65-2.66-5.94-4.65"/>
			<path class="st2" d="M77.47,72.47c-2.32,1.12-4.24,2.41-5.83,0.09"/>
			<path class="st2" d="M68.16,68.07c-2.45-1.9-4.78-4.41-5.68-6.62"/>
			<path class="st2" d="M63.14,69.88c0.28-3.2-0.59-8.1-0.71-9.1"/>
			<path class="st2" d="M67.47,63.81c-1.9,0.6-2.97,1.52-4.84-1.63"/>
			<path class="st3" d="M69.36,81.48c-0.2-1.23-0.82-1.48,1.23-3.66c2.05-2.18,2.05-2.18,2.05-2.18s0.41,0.47,0.89,1.01
				s2.5,2.33,1.59,4.41c-0.91,2.09-1.7,3.22-2.01,3.55c-0.31,0.33-1.12,1.64-1.34,1.96"/>
			<path class="st4" d="M83.79,82.1c-1.49-0.62-3.64,0.72-5.45-0.55c-1.81-1.27-2.85-4.42-3.28-5.32c-0.43-0.91-1.17-0.51,0.54-0.55
				c1.71-0.03,1.81-0.61,3.29-0.26c1.49,0.35,3.54,2.57,3.68,3.49C82.71,79.84,83.79,82.1,83.79,82.1z"/>
			<path class="st5" d="M74.86,73.76c0.45,0,0.94,0.36,3.1,0.4c2.15,0.03,3.85-0.2,4.23-1.84c0.38-1.64-0.15-1.97,0.77-3.05
				s0.92-1.08,0.92-1.08s-1.85-0.06-4.44,0.01c-2.58,0.07-3.79,2.68-4.11,3.78C75.02,73.08,74.86,73.76,74.86,73.76z"/>
			<path class="st6" d="M73.7,73.78c0,0-0.99-1.1-3.03-1.11s-4.26-1.01-4.26-3.16c0-2.15-0.7-3.34-0.7-3.34s-0.04,0.31,1.73,0.17
				c1.77-0.14,4.28,1.08,4.99,2.84S73.7,73.78,73.7,73.78z"/>
			<path class="st7" d="M61.48,76.52c0,0,2.62-2.62,3.42-4.4c0.8-1.78,1.02-2.84-0.02-4.1c-1.04-1.26-1.42-2.28-1.42-2.28
				s-1.48,2.2-2.44,2.71c-0.97,0.51-2.04,2.31-1.52,3.38C60.02,72.9,61.48,76.52,61.48,76.52z"/>
			<path class="st8" d="M65.57,64.4c0,0.03,1.57,0.68,3.43,0.91c1.87,0.22,2.87,0.21,3.61-0.72c0.73-0.93,1.23-1.91,1.75-2.99
				c0.52-1.08,0.59-1.52,1.02-1.63c0.43-0.1-0.54,0.38-2.6-0.13c-2.06-0.51-3.04-1.07-3.9-0.4c-0.85,0.67-0.83,1.91-1.52,2.91
				C66.67,63.34,65.57,64.4,65.57,64.4z"/>
		</g>
		<g>
			<path class="st2" d="M38.51,78.76c1.49-0.42,4.02-1.68,5.81-2.58"/>
			<path class="st2" d="M41.44,82.23c0.29-2.17,1.44-5.16,3.05-6.9"/>
			<path class="st2" d="M45.49,81.93c-1.65-1.97-3.37-3.52-1.51-5.63"/>
			<path class="st2" d="M47.48,71.82c1.24-2.84,3.11-5.72,5.03-7.13"/>
			<path class="st2" d="M44.49,67.4c3.17-0.51,7.7-2.56,8.65-2.92"/>
			<path class="st2" d="M51.44,70.11c-1.04-1.69-2.2-2.51,0.4-5.09"/>
			<path class="st4" d="M34.77,76.27c1.14-0.49,1.24-1.16,3.85,0.29c2.61,1.45,2.61,1.45,2.61,1.45s-0.36,0.51-0.76,1.1
				c-0.4,0.59-1.64,2.99-3.89,2.62s-3.54-0.86-3.94-1.08c-0.39-0.22-1.86-0.68-2.23-0.82"/>
			<path class="st9" d="M37.7,90.42c0.24-1.6-1.59-3.35-0.8-5.42c0.79-2.07,3.58-3.84,4.36-4.49c0.77-0.64,0.21-1.26,0.66,0.39
				c0.45,1.65,1.04,1.6,1.06,3.13c0.02,1.53-1.63,4.06-2.48,4.42S37.7,90.42,37.7,90.42z"/>
			<path class="st5" d="M43.6,79.72c0.11,0.43-0.12,1,0.37,3.1c0.5,2.1,1.14,3.68,2.82,3.64c1.68-0.04,1.87-0.63,3.15,0
				s1.27,0.63,1.27,0.63s-0.4-1.81-1.1-4.3c-0.7-2.49-3.53-3.02-4.67-3.06S43.6,79.72,43.6,79.72z"/>
			<path class="st6" d="M43.3,78.59c0,0,0.82-1.23,0.33-3.21c-0.49-1.97-0.06-4.38,2.02-4.91c2.09-0.53,3.07-1.49,3.07-1.49
				s-0.31,0.03,0.26,1.72c0.57,1.68,0.01,4.42-1.53,5.54C45.92,77.35,43.3,78.59,43.3,78.59z"/>
			<path class="st7" d="M37.65,67.42c0,0,3.19,1.9,5.1,2.24c1.92,0.34,3,0.3,3.97-1.02c0.97-1.32,1.86-1.94,1.86-1.94
				s-2.49-0.89-3.23-1.7c-0.73-0.81-2.74-1.41-3.65-0.64C40.8,65.11,37.65,67.42,37.65,67.42z"/>
			<path class="st8" d="M50.4,68.42c-0.03,0.01-0.28,1.69-0.04,3.55c0.24,1.86,0.5,2.84,1.58,3.32c1.08,0.48,2.15,0.72,3.33,0.96
				c1.18,0.24,1.62,0.2,1.82,0.59c0.2,0.39-0.5-0.43-0.51-2.55c-0.01-2.12,0.3-3.21-0.57-3.88c-0.86-0.66-2.06-0.33-3.19-0.76
				S50.4,68.42,50.4,68.42z"/>
		</g>
		<g>
			<path class="st2" d="M30.46,47.3c0.49,1.46,1.88,3.93,2.86,5.68"/>
			<path class="st2" d="M27.14,50.39c2.19,0.18,5.22,1.18,7.04,2.7"/>
			<path class="st2" d="M27.64,54.43c1.89-1.75,3.34-3.54,5.55-1.79"/>
			<path class="st2" d="M37.83,55.91c2.9,1.09,5.86,2.82,7.37,4.66"/>
			<path class="st2" d="M42.1,52.7c0.67,3.14,2.94,7.57,3.35,8.5"/>
			<path class="st2" d="M39.74,59.78c1.64-1.13,2.4-2.32,5.11,0.14"/>
			<path class="st3" d="M32.75,43.44c0.55,1.12,1.22,1.18-0.1,3.86s-1.32,2.68-1.32,2.68s-0.53-0.33-1.14-0.7
				c-0.61-0.37-3.07-1.49-2.81-3.75c0.26-2.26,0.68-3.58,0.88-3.98c0.2-0.4,0.59-1.89,0.71-2.26"/>
			<path class="st4" d="M18.77,47.08c1.61,0.16,3.27-1.76,5.37-1.08s4.02,3.39,4.7,4.13c0.68,0.74,1.27,0.15-0.35,0.68
				c-1.63,0.53-1.55,1.11-3.07,1.21c-1.53,0.1-4.14-1.42-4.54-2.26S18.77,47.08,18.77,47.08z"/>
			<path class="st5" d="M29.76,52.43c-0.43,0.13-1.01-0.07-3.08,0.53s-3.62,1.32-3.5,3c0.12,1.68,0.73,1.84,0.16,3.14
				s-0.57,1.3-0.57,1.3s1.79-0.49,4.24-1.31s2.84-3.68,2.82-4.82S29.76,52.43,29.76,52.43z"/>
			<path class="st6" d="M30.86,52.07c0,0,1.27,0.76,3.22,0.17c1.95-0.59,4.37-0.28,5,1.77c0.63,2.06,1.65,2.99,1.65,2.99
				s-0.05-0.31-1.7,0.35c-1.65,0.65-4.41,0.23-5.61-1.25C32.23,54.63,30.86,52.07,30.86,52.07z"/>
			<path class="st7" d="M41.74,45.87c0,0-1.73,3.28-1.98,5.21c-0.25,1.93-0.15,3.01,1.22,3.91c1.36,0.9,2.03,1.76,2.03,1.76
				s0.77-2.53,1.54-3.31c0.78-0.77,1.27-2.81,0.46-3.67C44.2,48.9,41.74,45.87,41.74,45.87z"/>
			<path class="st8" d="M41.38,58.65c-0.01-0.03-1.7-0.19-3.55,0.14c-1.85,0.33-2.81,0.64-3.24,1.75c-0.43,1.11-0.61,2.19-0.79,3.37
				c-0.18,1.19-0.11,1.63-0.49,1.85s0.41-0.52,2.52-0.63c2.12-0.11,3.22,0.13,3.84-0.76s0.23-2.07,0.6-3.23
				C40.65,59.99,41.38,58.65,41.38,58.65z"/>
		</g>
		<g>
			<path class="st2" d="M54.66,84.33c0.82-1.31,1.85-3.94,2.58-5.81"/>
			<path class="st2" d="M59.15,84.93c-1.24-1.81-2.4-4.79-2.37-7.16"/>
			<path class="st2" d="M61.96,81.99c-2.55-0.35-4.86-0.34-4.9-3.15"/>
			<path class="st2" d="M56.64,73.17c-0.99-2.93-1.54-6.32-1.06-8.66"/>
			<path class="st2" d="M51.46,71.9c2-2.51,3.99-7.07,4.45-7.98"/>
			<path class="st2" d="M58.43,69.24c-1.91-0.55-3.31-0.38-3.13-4.04"/>
			<path class="st3" d="M50.21,85c0.52-1.13,0.14-1.69,3.05-2.37s2.91-0.68,2.91-0.68s0.08,0.62,0.18,1.33
				c0.1,0.71,0.79,3.32-1.12,4.55s-3.2,1.75-3.64,1.85s-1.84,0.75-2.2,0.89"/>
			<path class="st4" d="M61.89,93.51c-0.9-1.35-3.43-1.42-4.24-3.48c-0.81-2.06,0.07-5.25,0.21-6.25c0.14-0.99-0.69-1.08,0.75-0.16
				s1.84,0.49,2.88,1.61c1.04,1.12,1.53,4.1,1.13,4.94C62.24,91.02,61.89,93.51,61.89,93.51z"/>
			<path class="st5" d="M59.07,81.62c0.37,0.25,0.59,0.83,2.36,2.05c1.77,1.22,3.32,1.96,4.54,0.81c1.22-1.16,0.96-1.73,2.33-2.11
				c1.37-0.39,1.37-0.39,1.37-0.39s-1.51-1.07-3.7-2.45s-4.64,0.14-5.51,0.88C59.58,81.14,59.07,81.62,59.07,81.62z"/>
			<path class="st6" d="M58.09,81c0,0-0.22-1.46-1.91-2.6s-2.99-3.2-1.8-4.99s1.27-3.17,1.27-3.17s-0.21,0.23,1.35,1.1
				c1.55,0.87,2.97,3.27,2.59,5.13C59.2,78.32,58.09,81,58.09,81z"/>
			<path class="st7" d="M46.4,76.51c0,0,3.63-0.74,5.29-1.77c1.65-1.04,2.42-1.8,2.25-3.42c-0.17-1.63,0.08-2.68,0.08-2.68
				s-2.45,1.01-3.54,0.91c-1.09-0.11-2.98,0.8-3.13,1.97C47.19,72.69,46.4,76.51,46.4,76.51z"/>
			<path class="st8" d="M56.52,68.68c-0.02,0.03,0.93,1.44,2.36,2.66c1.43,1.22,2.27,1.77,3.4,1.4s2.08-0.91,3.11-1.52
				c1.03-0.61,1.33-0.94,1.75-0.79c0.41,0.15-0.66,0.02-2.09-1.55c-1.43-1.56-1.94-2.58-3.02-2.49c-1.08,0.09-1.75,1.14-2.88,1.58
				S56.52,68.68,56.52,68.68z"/>
		</g>
		<g>
			<path class="st2" d="M67.69,32.5c-1.52,0.26-4.17,1.25-6.05,1.95"/>
			<path class="st2" d="M65.14,28.74c-0.52,2.13-1.98,4.98-3.76,6.54"/>
			<path class="st2" d="M61.08,28.6c1.43,2.13,2.98,3.85,0.91,5.76"/>
			<path class="st2" d="M58.03,38.44c-1.53,2.69-3.69,5.36-5.75,6.56"/>
			<path class="st2" d="M60.54,43.16c-3.2,0.17-7.93,1.73-8.91,1.99"/>
			<path class="st2" d="M53.91,39.73c0.86,1.79,1.92,2.73-0.93,5.02"/>
			<path class="st3" d="M71.15,35.36c-1.19,0.37-1.35,1.02-3.79-0.7c-2.44-1.72-2.44-1.72-2.44-1.72s0.41-0.47,0.87-1.02
				c0.46-0.55,1.95-2.8,4.14-2.2s3.43,1.23,3.8,1.49s1.78,0.87,2.13,1.05"/>
			<path class="st9" d="M69.72,20.99c-0.41,1.57,1.23,3.5,0.23,5.48s-3.97,3.44-4.81,4c-0.84,0.56-0.34,1.23-0.62-0.45
				c-0.27-1.69-0.86-1.7-0.72-3.22c0.14-1.52,2.05-3.87,2.94-4.14C67.63,22.38,69.72,20.99,69.72,20.99z"/>
			<path class="st4" d="M62.72,31c-0.06-0.44,0.23-0.99-0.04-3.12s-0.74-3.78-2.42-3.92c-1.68-0.14-1.93,0.43-3.13-0.33
				c-1.2-0.76-1.2-0.76-1.2-0.76s0.21,1.84,0.64,4.39s3.19,3.37,4.32,3.53C62.02,30.94,62.72,31,62.72,31z"/>
			<path class="st6" d="M62.91,32.15c0,0-0.95,1.14-0.67,3.15c0.28,2.02-0.4,4.36-2.53,4.67c-2.13,0.3-3.21,1.16-3.21,1.16
				s0.31,0-0.08-1.73c-0.39-1.73,0.46-4.39,2.1-5.34S62.91,32.15,62.91,32.15z"/>
			<path class="st7" d="M67.34,43.87c0,0-2.97-2.22-4.84-2.76c-1.87-0.54-2.95-0.61-4.06,0.6c-1.1,1.21-2.05,1.73-2.05,1.73
				s2.39,1.15,3.03,2.04c0.64,0.89,2.57,1.69,3.56,1.03C63.97,45.82,67.34,43.87,67.34,43.87z"/>
			<path class="st8" d="M54.77,41.52c0.03-0.01,0.46-1.65,0.41-3.53c-0.04-1.88-0.2-2.87-1.22-3.47c-1.03-0.6-2.07-0.95-3.21-1.31
				c-1.15-0.36-1.59-0.37-1.75-0.78c-0.16-0.41,0.45,0.48,0.23,2.59s-0.63,3.16,0.15,3.91c0.79,0.75,2.01,0.55,3.09,1.09
				S54.77,41.52,54.77,41.52z"/>
		</g>
		<g>
			<path class="st2" d="M37.8,33.47c-0.14,1.54,0.14,4.35,0.33,6.35"/>
			<path class="st2" d="M33.52,34.96c1.93,1.05,4.3,3.19,5.35,5.32"/>
			<path class="st2" d="M32.35,38.86c2.43-0.84,4.49-1.89,5.8,0.6"/>
			<path class="st2" d="M41.07,44.32c2.21,2.17,4.23,4.94,4.86,7.24"/>
			<path class="st2" d="M46.27,43.11c-0.65,3.14-0.37,8.11-0.37,9.13"/>
			<path class="st2" d="M41.26,48.64c1.95-0.37,3.13-1.16,4.61,2.19"/>
			<path class="st3" d="M41.46,30.86c0.05,1.24,0.64,1.57-1.65,3.49c-2.29,1.92-2.29,1.92-2.29,1.92s-0.35-0.52-0.76-1.1
				s-2.21-2.6-1.06-4.57c1.15-1.97,2.07-3,2.41-3.29s1.3-1.5,1.56-1.78"/>
			<path class="st9" d="M27.2,28.55c1.41,0.79,3.7-0.29,5.35,1.19s2.31,4.72,2.63,5.67s1.11,0.65-0.6,0.48
				c-1.7-0.17-1.87,0.39-3.3-0.13c-1.43-0.53-3.21-2.97-3.24-3.9C28.01,30.93,27.2,28.55,27.2,28.55z"/>
			<path class="st4" d="M35.09,37.88c-0.44-0.05-0.9-0.47-3.03-0.76s-3.85-0.25-4.41,1.33c-0.57,1.59-0.08,1.98-1.12,2.94
				c-1.04,0.96-1.04,0.96-1.04,0.96s1.83,0.27,4.41,0.51c2.57,0.24,4.08-2.22,4.52-3.27C34.85,38.54,35.09,37.88,35.09,37.88z"/>
			<path class="st6" d="M36.25,38c0,0,0.86,1.21,2.88,1.46c2.02,0.25,4.11,1.51,3.86,3.64c-0.25,2.14,0.3,3.4,0.3,3.4
				s0.08-0.3-1.7-0.37c-1.77-0.07-4.13-1.57-4.63-3.4C36.47,40.89,36.25,38,36.25,38z"/>
			<path class="st7" d="M48.71,36.72c0,0-2.91,2.3-3.91,3.97c-1.01,1.67-1.35,2.7-0.47,4.07s1.14,2.43,1.14,2.43s1.72-2.01,2.75-2.4
				c1.02-0.39,2.3-2.05,1.9-3.18C49.73,40.48,48.71,36.72,48.71,36.72z"/>
			<path class="st8" d="M43.21,48.27c0-0.03-1.47-0.86-3.3-1.31c-1.83-0.44-2.83-0.55-3.67,0.29c-0.84,0.84-1.45,1.75-2.09,2.77
				c-0.64,1.01-0.76,1.44-1.2,1.49c-0.44,0.05,0.58-0.31,2.56,0.44s2.89,1.42,3.82,0.86s1.04-1.8,1.85-2.71
				C42,49.19,43.21,48.27,43.21,48.27z"/>
		</g>
		<g>
			<path class="st2" d="M53.63,29.53c-1.1,1.08-2.71,3.41-3.85,5.06"/>
			<path class="st2" d="M49.39,27.9c0.79,2.05,1.23,5.21,0.66,7.52"/>
			<path class="st2" d="M45.98,30.12c2.4,0.93,4.65,1.45,4.04,4.2"/>
			<path class="st2" d="M49.12,39.93c0.29,3.08,0.04,6.5-0.96,8.67"/>
			<path class="st2" d="M53.87,42.36c-2.53,1.98-5.52,5.96-6.17,6.73"/>
			<path class="st2" d="M46.47,43.34c1.73,0.98,3.14,1.14,2.11,4.65"/>
			<path class="st3" d="M58.1,29.9c-0.76,0.98-0.52,1.61-3.51,1.6c-2.99-0.01-2.99-0.01-2.99-0.01s0.07-0.62,0.13-1.33
				c0.06-0.71-0.01-3.41,2.14-4.17c2.15-0.76,3.52-0.96,3.97-0.96s1.96-0.3,2.35-0.35"/>
			<path class="st9" d="M48.71,18.93c0.56,1.52,3.01,2.17,3.32,4.36c0.31,2.19-1.28,5.1-1.65,6.03c-0.37,0.93,0.43,1.21-0.77-0.02
				c-1.19-1.23-1.68-0.9-2.44-2.23s-0.54-4.34,0.04-5.07C47.79,21.27,48.71,18.93,48.71,18.93z"/>
			<path class="st4" d="M48.7,31.15c-0.3-0.32-0.38-0.94-1.82-2.54s-2.77-2.68-4.23-1.83c-1.46,0.85-1.34,1.46-2.76,1.52
				c-1.42,0.06-1.42,0.06-1.42,0.06s1.22,1.39,3.03,3.24c1.81,1.84,4.55,0.94,5.57,0.42C48.09,31.5,48.7,31.15,48.7,31.15z"/>
			<path class="st6" d="M49.51,31.98c0,0-0.13,1.48,1.26,2.97c1.38,1.49,2.17,3.81,0.6,5.27c-1.57,1.47-1.97,2.79-1.97,2.79
				s0.25-0.18-1.06-1.38c-1.31-1.2-2.14-3.87-1.33-5.59C47.81,34.33,49.51,31.98,49.51,31.98z"/>
			<path class="st7" d="M59.85,39.05c0,0-3.7-0.12-5.55,0.5c-1.85,0.63-2.77,1.19-2.98,2.81c-0.21,1.62-0.69,2.59-0.69,2.59
				s2.61-0.42,3.65-0.06c1.04,0.36,3.08-0.09,3.51-1.2C58.21,42.58,59.85,39.05,59.85,39.05z"/>
			<path class="st8" d="M48.2,44.32c0.02-0.02-0.57-1.61-1.68-3.13c-1.11-1.52-1.81-2.25-2.99-2.15c-1.18,0.1-2.24,0.41-3.38,0.76
				s-1.51,0.61-1.88,0.37c-0.37-0.24,0.65,0.14,1.68,1.99c1.03,1.85,1.29,2.96,2.37,3.12c1.07,0.17,1.96-0.7,3.16-0.87
				C46.68,44.25,48.2,44.32,48.2,44.32z"/>
		</g>
		<g>
			<path class="st2" d="M30.42,64.5c1.43,0.57,4.21,1.11,6.18,1.49"/>
			<path class="st2" d="M30.63,69.04c1.56-1.55,4.28-3.22,6.62-3.62"/>
			<path class="st2" d="M34.03,71.27c-0.11-2.57-0.54-4.84,2.22-5.39"/>
			<path class="st2" d="M41.76,64.45c2.71-1.5,5.94-2.65,8.33-2.6"/>
			<path class="st2" d="M42.07,59.12c2.83,1.52,7.67,2.65,8.65,2.94"/>
			<path class="st2" d="M45.94,65.5c0.2-1.98-0.22-3.33,3.41-3.8"/>
			<path class="st3" d="M28.96,60.26c1.21,0.3,1.69-0.17,2.88,2.57c1.19,2.74,1.19,2.74,1.19,2.74s-0.59,0.19-1.27,0.42
				c-0.68,0.23-3.12,1.38-4.68-0.28c-1.56-1.66-2.29-2.83-2.47-3.25c-0.18-0.41-1.07-1.67-1.27-2.01"/>
			<path class="st9" d="M22.69,73.27c1.16-1.13,0.78-3.63,2.66-4.79c1.88-1.16,5.18-0.87,6.19-0.91s0.94-0.88,0.29,0.71
				c-0.65,1.59-0.15,1.9-1.06,3.13c-0.91,1.23-3.76,2.24-4.66,2C25.2,73.17,22.69,73.27,22.69,73.27z"/>
			<path class="st4" d="M33.88,68.36c-0.17,0.41-0.71,0.72-1.59,2.69c-0.88,1.97-1.34,3.62,0.02,4.61c1.36,0.99,1.87,0.64,2.5,1.91
				c0.63,1.28,0.63,1.28,0.63,1.28s0.78-1.68,1.74-4.08c0.96-2.4-0.97-4.54-1.85-5.27C34.45,68.78,33.88,68.36,33.88,68.36z"/>
			<path class="st6" d="M34.32,67.28c0,0,1.4-0.48,2.21-2.34c0.81-1.87,2.61-3.52,4.59-2.67c1.98,0.85,3.34,0.68,3.34,0.68
				s-0.26-0.16-0.84,1.52c-0.57,1.68-2.68,3.51-4.58,3.47S34.32,67.28,34.32,67.28z"/>
			<path class="st7" d="M36.63,54.98c0,0,1.38,3.44,2.69,4.88c1.32,1.44,2.2,2.06,3.77,1.6c1.57-0.46,2.65-0.41,2.65-0.41
				s-1.44-2.22-1.53-3.32c-0.09-1.09-1.32-2.78-2.5-2.73C40.53,55.06,36.63,54.98,36.63,54.98z"/>
			<path class="st8" d="M46.15,63.52c-0.03-0.01-1.25,1.17-2.19,2.79c-0.94,1.63-1.33,2.56-0.76,3.6c0.57,1.04,1.27,1.88,2.06,2.79
				c0.79,0.91,1.17,1.14,1.09,1.58s-0.13-0.65,1.15-2.33s2.19-2.37,1.91-3.42c-0.28-1.05-1.43-1.51-2.07-2.55
				S46.15,63.52,46.15,63.52z"/>
		</g>
		<g>
			<path class="st2" d="M79.34,43.54c-1.5-0.38-4.32-0.53-6.33-0.65"/>
			<path class="st2" d="M78.51,39.07c-1.33,1.74-3.81,3.76-6.07,4.48"/>
			<path class="st2" d="M74.85,37.32c0.46,2.53,1.18,4.73-1.48,5.64"/>
			<path class="st2" d="M68.11,45.11c-2.48,1.85-5.53,3.42-7.9,3.7"/>
			<path class="st2" d="M68.51,50.43c-3.01-1.13-7.96-1.6-8.96-1.76"/>
			<path class="st2" d="M63.82,44.63c0.07,1.99,0.67,3.27-2.87,4.23"/>
			<path class="st3" d="M81.35,47.55c-1.24-0.14-1.65,0.39-3.2-2.16s-1.55-2.56-1.55-2.56s0.56-0.27,1.21-0.58
				c0.64-0.32,2.91-1.79,4.68-0.35c1.77,1.44,2.65,2.5,2.88,2.89c0.23,0.39,1.28,1.51,1.52,1.82"/>
			<path class="st9" d="M85.82,33.81c-1,1.27-0.28,3.7-1.99,5.11c-1.71,1.41-5.02,1.56-6.01,1.73c-0.99,0.17-0.81,0.99-0.38-0.66
				c0.43-1.66-0.1-1.9,0.64-3.24s3.43-2.72,4.35-2.61C83.35,34.25,85.82,33.81,85.82,33.81z"/>
			<path class="st4" d="M75.39,40.18c0.12-0.43,0.6-0.81,1.21-2.88c0.61-2.07,0.84-3.76-0.64-4.56c-1.48-0.8-1.94-0.38-2.73-1.56
				c-0.79-1.18-0.79-1.18-0.79-1.18s-0.55,1.77-1.18,4.28c-0.63,2.51,1.57,4.37,2.54,4.97C74.77,39.84,75.39,40.18,75.39,40.18z"/>
			<path class="st6" d="M75.1,41.31c0,0-1.32,0.66-1.88,2.62c-0.55,1.96-2.12,3.84-4.19,3.26c-2.07-0.58-3.4-0.22-3.4-0.22
				s0.28,0.12,0.62-1.62c0.34-1.74,2.19-3.84,4.07-4.05S75.1,41.31,75.1,41.31z"/>
			<path class="st7" d="M74.46,53.81c0,0-1.83-3.23-3.32-4.48s-2.46-1.74-3.95-1.08s-2.57,0.76-2.57,0.76s1.72,2.01,1.96,3.08
				c0.23,1.07,1.68,2.58,2.85,2.37S74.46,53.81,74.46,53.81z"/>
			<path class="st8" d="M63.88,46.62c0.03,0.01,1.08-1.33,1.8-3.06s0.98-2.71,0.27-3.67c-0.7-0.96-1.51-1.7-2.41-2.49
				c-0.9-0.79-1.31-0.97-1.29-1.41c0.02-0.44,0.22,0.62-0.82,2.47c-1.04,1.84-1.85,2.64-1.43,3.65c0.42,1,1.62,1.31,2.39,2.24
				S63.88,46.62,63.88,46.62z"/>
		</g>
		<g>
			<path class="st2" d="M80.36,59.39c-1.02-1.16-3.26-2.88-4.85-4.11"/>
			<path class="st2" d="M82.21,55.24c-2.09,0.68-5.27,0.95-7.54,0.26"/>
			<path class="st2" d="M80.17,51.72c-1.05,2.34-1.7,4.57-4.41,3.82"/>
			<path class="st2" d="M70.21,54.34c-3.1,0.12-6.5-0.3-8.61-1.42"/>
			<path class="st2" d="M67.54,58.96c-1.84-2.63-5.66-5.82-6.4-6.52"/>
			<path class="st2" d="M66.94,51.52c-1.07,1.68-1.3,3.07-4.76,1.86"/>
			<path class="st3" d="M79.76,63.84c-0.94-0.81-1.58-0.61-1.41-3.59s0.17-2.98,0.17-2.98s0.62,0.1,1.33,0.2
				c0.71,0.1,3.41,0.17,4.05,2.36c0.64,2.19,0.77,3.56,0.75,4.01c-0.03,0.45,0.2,1.97,0.23,2.36"/>
			<path class="st9" d="M91.21,55.03c-1.54,0.48-2.32,2.89-4.53,3.09c-2.21,0.19-5.02-1.55-5.94-1.97
				c-0.91-0.42-1.23,0.36,0.06-0.76c1.29-1.13,0.99-1.63,2.36-2.31c1.37-0.68,4.37-0.31,5.06,0.31
				C88.92,53.99,91.21,55.03,91.21,55.03z"/>
			<path class="st4" d="M79.01,54.38c0.34-0.29,0.96-0.33,2.63-1.69s2.82-2.63,2.05-4.13c-0.77-1.5-1.39-1.41-1.37-2.83
				c0.01-1.42,0.01-1.42,0.01-1.42s-1.46,1.15-3.39,2.86c-1.93,1.71-1.18,4.49-0.71,5.54C78.69,53.76,79.01,54.38,79.01,54.38z"/>
			<path class="st6" d="M78.13,55.15c0,0-1.47-0.2-3.03,1.1s-3.92,1.97-5.3,0.32c-1.38-1.65-2.68-2.11-2.68-2.11
				s0.16,0.26,1.43-0.98c1.27-1.24,3.97-1.93,5.65-1.04C75.87,53.33,78.13,55.15,78.13,55.15z"/>
			<path class="st7" d="M70.53,65.11c0,0,0.32-3.69-0.21-5.57s-1.04-2.83-2.65-3.13s-2.55-0.83-2.55-0.83s0.28,2.63-0.13,3.65
				s-0.07,3.08,1.01,3.56S70.53,65.11,70.53,65.11z"/>
			<path class="st8" d="M65.87,53.19c0.02,0.02,1.64-0.48,3.21-1.51c1.57-1.03,2.34-1.68,2.3-2.87c-0.04-1.19-0.29-2.25-0.59-3.42
				c-0.3-1.16-0.53-1.54-0.27-1.9c0.26-0.35-0.17,0.64-2.08,1.57c-1.9,0.93-3.02,1.13-3.24,2.2s0.6,2,0.71,3.2
				C66.03,51.68,65.87,53.19,65.87,53.19z"/>
		</g>
		<g>
			<g>
				<path class="st10" d="M54.74,62.56c-0.04-1.54-0.65-4.31-1.07-6.27"/>
				<path class="st10" d="M58.82,60.57c-2.04-0.82-4.65-2.66-5.94-4.65"/>
				<path class="st10" d="M59.53,56.57c-2.31,1.12-4.24,2.41-5.83,0.09"/>
				<path class="st10" d="M50.22,52.16c-2.45-1.9-4.78-4.41-5.68-6.62"/>
				<path class="st10" d="M45.2,53.98c0.28-3.2-0.59-8.1-0.71-9.1"/>
				<path class="st10" d="M49.53,47.9c-1.9,0.6-2.97,1.52-4.84-1.63"/>
				<g>
					<path class="st10" d="M51.42,65.58c-0.2-1.23-0.82-1.48,1.23-3.66c2.05-2.18,2.05-2.18,2.05-2.18s0.41,0.47,0.88,1.01
						s2.5,2.33,1.59,4.41c-0.91,2.09-1.7,3.22-2.01,3.55s-1.12,1.64-1.34,1.96"/>
				</g>
				<g>
					<path class="st10" d="M65.85,66.2c-1.49-0.62-3.64,0.72-5.45-0.55c-1.81-1.27-2.85-4.42-3.28-5.32
						c-0.43-0.91-1.17-0.51,0.54-0.55c1.71-0.03,1.81-0.61,3.29-0.26s3.54,2.57,3.68,3.49C64.76,63.93,65.85,66.2,65.85,66.2z"/>
				</g>
				<g>
					<path class="st10" d="M56.92,57.85c0.45,0,0.94,0.36,3.1,0.4c2.15,0.03,3.85-0.2,4.23-1.84c0.38-1.64-0.15-1.97,0.77-3.05
						s0.92-1.08,0.92-1.08s-1.85-0.06-4.44,0.01s-3.79,2.68-4.11,3.78C57.08,57.17,56.92,57.85,56.92,57.85z"/>
				</g>
				<g>
					<path class="st10" d="M55.76,57.88c0,0-0.99-1.1-3.03-1.11c-2.03-0.01-4.26-1.01-4.26-3.16s-0.7-3.34-0.7-3.34
						s-0.04,0.31,1.73,0.17c1.77-0.14,4.28,1.08,4.99,2.84S55.76,57.88,55.76,57.88z"/>
				</g>
				<g>
					<path class="st10" d="M43.53,60.61c0,0,2.62-2.62,3.42-4.4c0.8-1.78,1.02-2.84-0.02-4.1c-1.04-1.26-1.42-2.28-1.42-2.28
						s-1.48,2.2-2.44,2.71c-0.97,0.51-2.04,2.31-1.52,3.38C42.08,56.99,43.53,60.61,43.53,60.61z"/>
				</g>
				<g>
					<path class="st10" d="M47.63,48.5c0,0.03,1.57,0.68,3.43,0.91s2.87,0.21,3.61-0.72s1.23-1.91,1.75-2.99s0.59-1.52,1.02-1.63
						c0.43-0.1-0.54,0.38-2.6-0.13c-2.06-0.51-3.04-1.07-3.9-0.4s-0.83,1.91-1.52,2.91C48.73,47.44,47.63,48.5,47.63,48.5z"/>
				</g>
			</g>
		</g>
	</g>
	<g>
		<path class="st11" d="M35.08,66.89c-0.2-0.84-0.6-1.55-1.09-2.16c-0.49-0.62-0.87-1.11-2.07-1.3c-1.2-0.19-5.12-0.18-6.55,1.56
			c-1.43,1.75-3.04,3.66-2.86,4.96c0.17,1.3,0.38,1.86,0.54,2.02c0.16,0.16,0.73,0.87,0.73,0.87s-0.24,0.64,0.81,2.01
			c1.06,1.37,3.47,2.34,4.08,2.26c0.61-0.08,4.55-0.73,6.52-3.35c1.97-2.63,1.65-3.53,1.24-4.44S35.18,67.32,35.08,66.89z"/>
		<path class="st12" d="M24.08,72.56c0,0,2.46-2.86,3.7-3.86c1.24-1-2.47,1.34-3.12,2.03S24.08,72.56,24.08,72.56z"/>
		<path class="st13" d="M32.91,65.71c-0.13-0.11-1.51-1.28-2.23-1.2s-2.82,1.02-3.36,1.26s-1.75,0.96-2.08,1.38s-0.69,0.71-0.93,1.2
			c-0.25,0.49-0.63,1.7-0.84,1.29c-0.2-0.41-0.03-1.92,0.2-2.17c0.23-0.25,0.9-2.22,1.72-2.7c0.82-0.48,2.62-1.01,3.62-1.33
			c1-0.32,1.97-0.16,2.61-0.05c0.64,0.11,1.58,0.63,1.79,1.04c0.21,0.41,0.31,1.04,0.31,1.04s-0.2,0.44-0.2,0.62
			C33.5,66.27,33.28,66.02,32.91,65.71z"/>
		<path class="st13" d="M36.12,69.03c0,0-1.05,1.38-1.36,1.76s-0.18,1.25-0.83,1.82c-0.65,0.57-0.36,0.67-1.42,1.33
			c-1.06,0.66-1.11,0.69-1.89,1.12s-1.09,0.8-1.59,0.79c-0.5-0.01-0.71-0.31-1.53-0.32c-0.82,0-0.83-0.08-0.3,0.18
			s1.4,0.47,2.18,0.43c0.79-0.05,1.91-0.56,3.01-1.09c1.1-0.54,2.03-1.73,2.55-2.34c0.52-0.61,1.02-1.56,1.09-1.9
			c0.06-0.34,0.1-0.74,0.11-0.98C36.15,69.59,36.12,69.03,36.12,69.03z"/>
		<path class="st12" d="M34.54,67.05c-0.21-0.25-0.66-1.12-0.66-0.28c0,0.84-0.2,0.76,0.21,1.13c0.41,0.37,0.57,0.65,0.82,0.66
			c0.25,0,0.57-0.03,0.5-0.29C35.33,68.01,34.72,67.28,34.54,67.05z"/>
	</g>
	<g>
		<path class="st11" d="M31.63,40.73c-0.82-0.26-1.64-0.27-2.41-0.16s-1.39,0.19-2.17,1.13c-0.78,0.94-2.76,4.32-1.98,6.44
			c0.78,2.12,1.61,4.48,2.82,4.99c1.21,0.51,1.8,0.62,2.01,0.56s1.13-0.19,1.13-0.19s0.43,0.54,2.15,0.32
			c1.72-0.21,3.78-1.8,4.02-2.36s1.69-4.29,0.43-7.32c-1.26-3.03-2.2-3.22-3.19-3.33S32.06,40.86,31.63,40.73z"/>
		<path class="st12" d="M30.92,53.08c0,0-1.21-3.57-1.44-5.15c-0.23-1.57-0.1,2.81,0.16,3.72C29.91,52.55,30.92,53.08,30.92,53.08z"
			/>
		<path class="st13" d="M29.51,42c-0.16,0.06-1.87,0.66-2.16,1.31c-0.29,0.66-0.56,2.95-0.62,3.54c-0.07,0.59-0.07,2,0.13,2.49
			c0.2,0.49,0.26,0.95,0.56,1.41c0.29,0.46,1.14,1.41,0.69,1.38s-1.67-0.95-1.77-1.28c-0.1-0.33-1.46-1.9-1.46-2.85
			c0-0.95,0.46-2.77,0.7-3.79s0.86-1.78,1.28-2.27c0.42-0.5,1.35-1.05,1.8-1.01s1.05,0.26,1.05,0.26s0.27,0.39,0.43,0.49
			C30.3,41.77,29.97,41.84,29.51,42z"/>
		<path class="st13" d="M34,40.92c0,0,0.66,1.61,0.82,2.07c0.16,0.46,0.98,0.79,1.15,1.64c0.16,0.85,0.39,0.65,0.43,1.9
			c0.03,1.25,0.03,1.31,0,2.2c-0.03,0.88,0.13,1.34-0.13,1.77c-0.26,0.43-0.63,0.45-1.05,1.16s-0.5,0.68,0,0.35s1.12-0.96,1.48-1.66
			c0.36-0.7,0.49-1.93,0.59-3.15s-0.46-2.63-0.72-3.38c-0.26-0.75-0.82-1.67-1.08-1.9c-0.26-0.23-0.59-0.46-0.79-0.59
			C34.49,41.18,34,40.92,34,40.92z"/>
		<path class="st12" d="M31.5,41.28c-0.32,0.05-1.3,0-0.58,0.43s0.56,0.56,1.08,0.39c0.52-0.16,0.85-0.16,0.98-0.38
			s0.26-0.51,0-0.57C32.72,41.08,31.78,41.23,31.5,41.28z"/>
	</g>
	<g>
		<path class="st11" d="M54.25,34.58c0.61-0.61,0.99-1.33,1.26-2.07c0.26-0.74,0.48-1.32,0-2.45c-0.47-1.12-2.56-4.44-4.8-4.73
			s-4.72-0.64-5.73,0.2c-1.01,0.84-1.38,1.31-1.43,1.53s-0.35,1.09-0.35,1.09s-0.67,0.13-1.28,1.76s-0.15,4.18,0.24,4.66
			c0.39,0.47,3.03,3.48,6.3,3.76c3.27,0.28,3.87-0.47,4.42-1.3S53.93,34.9,54.25,34.58z"/>
		<path class="st12" d="M43.62,28.26c0,0,3.73,0.57,5.23,1.09s-2.45-1.38-3.37-1.57C44.55,27.6,43.62,28.26,43.62,28.26z"/>
		<path class="st13" d="M54.1,32.11c0.02-0.17,0.28-1.96-0.17-2.52c-0.45-0.56-2.36-1.85-2.85-2.18c-0.49-0.33-1.74-0.98-2.27-1.03
			c-0.53-0.05-0.96-0.21-1.51-0.16s-1.78,0.36-1.54-0.03c0.24-0.39,1.61-1.04,1.95-0.98c0.34,0.06,2.36-0.42,3.2,0.02
			c0.84,0.44,2.24,1.69,3.04,2.37c0.8,0.68,1.18,1.59,1.43,2.19s0.31,1.68,0.07,2.07c-0.24,0.39-0.72,0.81-0.72,0.81
			s-0.48,0.06-0.64,0.16C53.94,32.92,54.03,32.59,54.1,32.11z"/>
		<path class="st13" d="M52.99,36.6c0,0-1.73-0.16-2.21-0.23c-0.48-0.07-1.15,0.51-1.98,0.26c-0.83-0.25-0.76,0.05-1.88-0.5
			c-1.12-0.55-1.18-0.58-1.95-1.01c-0.77-0.44-1.25-0.5-1.51-0.93s-0.11-0.77-0.54-1.47c-0.43-0.7-0.37-0.75-0.31-0.16
			c0.06,0.59,0.34,1.44,0.79,2.08c0.45,0.64,1.48,1.33,2.52,1.98c1.04,0.65,2.55,0.81,3.34,0.92s1.86,0.04,2.19-0.08
			c0.32-0.13,0.68-0.31,0.89-0.43C52.53,36.91,52.99,36.6,52.99,36.6z"/>
		<path class="st12" d="M53.82,34.21c0.1-0.31,0.6-1.15-0.11-0.71c-0.71,0.44-0.75,0.24-0.85,0.78c-0.1,0.54-0.25,0.83-0.12,1.05
			c0.13,0.22,0.33,0.47,0.51,0.27C53.43,35.39,53.73,34.48,53.82,34.21z"/>
	</g>
	<g>
		<path class="st11" d="M55.62,87.22c0.61-0.61,0.99-1.33,1.26-2.07s0.48-1.32,0-2.45s-2.56-4.44-4.8-4.73
			c-2.24-0.29-4.72-0.64-5.73,0.2c-1.01,0.84-1.38,1.31-1.43,1.53s-0.35,1.09-0.35,1.09s-0.67,0.13-1.28,1.76
			c-0.6,1.62-0.15,4.18,0.24,4.66c0.39,0.47,3.03,3.48,6.3,3.76c3.27,0.28,3.87-0.47,4.42-1.3C54.82,88.82,55.31,87.54,55.62,87.22z
			"/>
		<path class="st12" d="M44.99,80.9c0,0,3.73,0.57,5.23,1.09c1.5,0.52-2.45-1.38-3.37-1.57S44.99,80.9,44.99,80.9z"/>
		<path class="st13" d="M55.47,84.76c0.02-0.17,0.28-1.96-0.17-2.52c-0.45-0.56-2.36-1.85-2.85-2.18c-0.49-0.33-1.74-0.98-2.27-1.03
			c-0.53-0.05-0.96-0.21-1.51-0.16s-1.78,0.36-1.54-0.03c0.24-0.39,1.61-1.04,1.95-0.98c0.34,0.06,2.36-0.42,3.2,0.02
			s2.24,1.69,3.04,2.37c0.8,0.68,1.18,1.58,1.43,2.19c0.25,0.6,0.31,1.68,0.07,2.07c-0.24,0.39-0.72,0.81-0.72,0.81
			s-0.48,0.06-0.64,0.16C55.31,85.56,55.4,85.23,55.47,84.76z"/>
		<path class="st13" d="M54.36,89.24c0,0-1.73-0.16-2.21-0.23c-0.48-0.07-1.15,0.51-1.98,0.26c-0.83-0.25-0.76,0.05-1.88-0.5
			c-1.12-0.55-1.18-0.58-1.95-1.01c-0.77-0.44-1.25-0.5-1.51-0.93c-0.26-0.43-0.11-0.77-0.54-1.47s-0.37-0.75-0.31-0.16
			c0.06,0.59,0.34,1.44,0.79,2.08c0.45,0.64,1.48,1.33,2.52,1.98s2.55,0.81,3.34,0.92c0.79,0.11,1.86,0.04,2.19-0.08
			s0.68-0.31,0.89-0.43C53.9,89.55,54.36,89.24,54.36,89.24z"/>
		<path class="st12" d="M55.19,86.85c0.1-0.31,0.6-1.15-0.11-0.71c-0.71,0.44-0.75,0.24-0.85,0.78c-0.1,0.54-0.25,0.83-0.12,1.05
			c0.13,0.22,0.33,0.47,0.51,0.27C54.8,88.03,55.1,87.12,55.19,86.85z"/>
	</g>
	<g>
		<path class="st11" d="M66.57,35.35c-0.63,0.58-1.05,1.29-1.34,2.01s-0.53,1.3-0.1,2.45c0.43,1.14,2.37,4.55,4.6,4.92
			c2.23,0.38,4.69,0.83,5.73,0.04s1.43-1.25,1.49-1.46c0.06-0.21,0.4-1.07,0.4-1.07s0.68-0.11,1.35-1.7
			c0.67-1.6,0.32-4.17-0.05-4.66c-0.37-0.49-2.88-3.6-6.14-4.02s-3.89,0.31-4.47,1.11C67.44,33.78,66.9,35.05,66.57,35.35z"/>
		<path class="st12" d="M76.93,42.11c0,0-3.7-0.73-5.18-1.31s2.39,1.48,3.3,1.71S76.93,42.11,76.93,42.11z"/>
		<path class="st13" d="M66.62,37.82c-0.03,0.16-0.36,1.95,0.06,2.53c0.42,0.58,2.28,1.95,2.76,2.3c0.48,0.35,1.7,1.05,2.23,1.13
			c0.52,0.07,0.95,0.25,1.5,0.22c0.54-0.03,1.79-0.29,1.53,0.09c-0.26,0.38-1.65,0.97-1.99,0.9c-0.33-0.08-2.37,0.32-3.2-0.16
			s-2.17-1.78-2.94-2.49c-0.77-0.71-1.11-1.63-1.33-2.24c-0.22-0.61-0.24-1.69,0.02-2.07c0.26-0.38,0.75-0.78,0.75-0.78
			s0.48-0.04,0.64-0.13C66.82,37.02,66.71,37.35,66.62,37.82z"/>
		<path class="st13" d="M67.92,33.38c0,0,1.72,0.23,2.2,0.32c0.48,0.09,1.17-0.46,1.99-0.18c0.82,0.28,0.76-0.02,1.86,0.58
			c1.1,0.59,1.15,0.62,1.91,1.09s1.23,0.55,1.47,0.99c0.24,0.44,0.08,0.77,0.48,1.49c0.4,0.72,0.34,0.77,0.3,0.17
			c-0.04-0.59-0.28-1.45-0.7-2.11C77,35.08,76,34.35,74.99,33.66s-2.51-0.91-3.29-1.06c-0.78-0.15-1.86-0.12-2.19-0.01
			c-0.33,0.11-0.69,0.28-0.9,0.39C68.39,33.09,67.92,33.38,67.92,33.38z"/>
		<path class="st12" d="M66.99,35.74c-0.12,0.31-0.64,1.12,0.08,0.71c0.73-0.41,0.76-0.21,0.88-0.74c0.12-0.54,0.28-0.82,0.16-1.04
			s-0.31-0.48-0.5-0.29C67.43,34.58,67.09,35.47,66.99,35.74z"/>
	</g>
	<g>
		<path class="st11" d="M78.81,52.82c-0.65,0.57-1.08,1.26-1.39,1.98c-0.31,0.72-0.57,1.29-0.17,2.44c0.4,1.15,2.25,4.61,4.46,5.05
			c2.21,0.44,4.66,0.96,5.73,0.19c1.06-0.77,1.46-1.21,1.53-1.42c0.07-0.21,0.43-1.06,0.43-1.06s0.68-0.09,1.39-1.66
			s0.43-4.16,0.08-4.66c-0.36-0.5-2.78-3.68-6.03-4.18c-3.24-0.5-3.89,0.2-4.5,0.99C79.73,51.27,79.15,52.52,78.81,52.82z"/>
		<path class="st12" d="M88.99,59.85c0,0-3.68-0.82-5.14-1.45c-1.46-0.62,2.35,1.55,3.26,1.79C88.01,60.44,88.99,59.85,88.99,59.85z
			"/>
		<path class="st13" d="M78.8,55.28c-0.03,0.16-0.41,1.94-0.01,2.53s2.23,2.01,2.7,2.37c0.47,0.36,1.67,1.1,2.2,1.18
			s0.95,0.27,1.49,0.26c0.55-0.01,1.8-0.24,1.53,0.13c-0.27,0.37-1.68,0.93-2.01,0.84c-0.33-0.09-2.38,0.25-3.19-0.24
			s-2.12-1.84-2.88-2.57c-0.75-0.73-1.07-1.66-1.27-2.28s-0.19-1.69,0.07-2.07c0.27-0.37,0.77-0.76,0.77-0.76s0.48-0.03,0.64-0.11
			C79.01,54.49,78.9,54.81,78.8,55.28z"/>
		<path class="st13" d="M80.21,50.89c0,0,1.71,0.28,2.19,0.38c0.48,0.1,1.18-0.43,2-0.13s0.76,0.01,1.84,0.63
			c1.08,0.62,1.14,0.65,1.88,1.14c0.74,0.49,1.22,0.59,1.44,1.03s0.06,0.77,0.44,1.5c0.39,0.73,0.32,0.78,0.3,0.18
			c-0.02-0.59-0.24-1.45-0.65-2.13c-0.41-0.67-1.39-1.42-2.38-2.14s-2.48-0.98-3.26-1.15c-0.78-0.17-1.85-0.17-2.19-0.07
			c-0.33,0.1-0.7,0.26-0.91,0.36C80.69,50.6,80.21,50.89,80.21,50.89z"/>
		<path class="st12" d="M79.22,53.21c-0.13,0.3-0.67,1.11,0.06,0.71s0.77-0.19,0.9-0.72c0.13-0.53,0.31-0.81,0.19-1.04
			c-0.11-0.22-0.3-0.49-0.49-0.3S79.33,52.95,79.22,53.21z"/>
	</g>
	<g>
		<path class="st11" d="M68.78,70.28c-0.79,0.33-1.43,0.84-1.96,1.42c-0.53,0.58-0.95,1.04-0.95,2.26c0,1.22,0.64,5.09,2.59,6.22
			c1.95,1.13,4.1,2.41,5.36,2.03c1.25-0.38,1.78-0.68,1.91-0.85c0.13-0.18,0.75-0.87,0.75-0.87s0.67,0.14,1.86-1.13
			s1.76-3.8,1.58-4.39c-0.17-0.59-1.45-4.38-4.36-5.9c-2.91-1.52-3.75-1.07-4.58-0.51S69.2,70.11,68.78,70.28z"/>
		<path class="st12" d="M76.14,80.22c0,0-3.22-1.97-4.4-3.03c-1.18-1.06,1.72,2.22,2.5,2.75C75.03,80.47,76.14,80.22,76.14,80.22z"
			/>
		<path class="st13" d="M67.97,72.61c-0.09,0.14-1.02,1.7-0.82,2.39c0.19,0.69,1.46,2.62,1.79,3.12c0.33,0.5,1.23,1.58,1.69,1.83
			s0.81,0.56,1.33,0.73s1.78,0.35,1.41,0.62c-0.37,0.27-1.89,0.34-2.18,0.15s-2.33-0.53-2.94-1.26s-1.41-2.43-1.89-3.36
			s-0.47-1.92-0.47-2.57c0-0.65,0.36-1.66,0.74-1.93s0.97-0.47,0.97-0.47s0.46,0.13,0.65,0.1C68.43,71.93,68.22,72.2,67.97,72.61z"
			/>
		<path class="st13" d="M70.73,68.91c0,0,1.53,0.82,1.95,1.06c0.42,0.25,1.26-0.02,1.93,0.53c0.67,0.55,0.72,0.25,1.54,1.19
			s0.86,0.99,1.41,1.69s0.96,0.95,1.03,1.44c0.07,0.5-0.2,0.75-0.07,1.56c0.13,0.81,0.05,0.84,0.22,0.27
			c0.17-0.57,0.24-1.45,0.07-2.22c-0.17-0.77-0.86-1.8-1.56-2.8s-2.04-1.73-2.72-2.14c-0.68-0.41-1.7-0.76-2.05-0.77
			c-0.35-0.01-0.75,0.02-0.98,0.05C71.28,68.8,70.73,68.91,70.73,68.91z"/>
		<path class="st12" d="M69.04,70.79c-0.22,0.25-1,0.83-0.17,0.7c0.83-0.13,0.78,0.07,1.08-0.39c0.3-0.46,0.55-0.67,0.52-0.92
			c-0.04-0.25-0.12-0.56-0.37-0.44C69.85,69.85,69.23,70.57,69.04,70.79z"/>
	</g>
	<g>
		<path class="st11" d="M64.82,48.52c-0.82-0.26-1.64-0.27-2.41-0.16c-0.78,0.11-1.39,0.19-2.17,1.13
			c-0.78,0.94-2.76,4.32-1.98,6.44c0.78,2.12,1.61,4.48,2.82,4.99c1.21,0.51,1.8,0.62,2.01,0.56s1.13-0.19,1.13-0.19
			s0.43,0.54,2.15,0.32c1.72-0.21,3.78-1.8,4.02-2.36c0.24-0.56,1.69-4.29,0.43-7.32s-2.2-3.22-3.19-3.33S65.25,48.65,64.82,48.52z"
			/>
		<path class="st12" d="M64.11,60.87c0,0-1.21-3.57-1.44-5.15s-0.1,2.81,0.16,3.72C63.1,60.34,64.11,60.87,64.11,60.87z"/>
		<path class="st13" d="M62.7,49.79c-0.16,0.06-1.87,0.66-2.16,1.31c-0.29,0.66-0.56,2.95-0.62,3.54c-0.07,0.59-0.07,2,0.13,2.49
			c0.2,0.49,0.26,0.95,0.56,1.41s1.14,1.41,0.69,1.38c-0.46-0.03-1.67-0.95-1.77-1.28c-0.1-0.33-1.46-1.9-1.46-2.85
			c0-0.95,0.46-2.77,0.7-3.79s0.86-1.78,1.28-2.27c0.42-0.5,1.35-1.05,1.8-1.01s1.05,0.26,1.05,0.26s0.27,0.39,0.43,0.49
			C63.49,49.56,63.16,49.63,62.7,49.79z"/>
		<path class="st13" d="M67.19,48.71c0,0,0.66,1.61,0.82,2.07c0.16,0.46,0.98,0.79,1.15,1.64c0.16,0.85,0.39,0.65,0.43,1.9
			s0.03,1.31,0,2.2s0.13,1.34-0.13,1.77c-0.26,0.43-0.63,0.45-1.05,1.16s-0.5,0.68,0,0.35c0.5-0.33,1.12-0.96,1.48-1.66
			c0.36-0.7,0.49-1.93,0.59-3.15c0.1-1.22-0.46-2.63-0.72-3.38c-0.26-0.75-0.82-1.67-1.08-1.9s-0.59-0.46-0.79-0.59
			C67.68,48.97,67.19,48.71,67.19,48.71z"/>
		<path class="st12" d="M64.69,49.07c-0.32,0.05-1.3,0-0.58,0.43c0.72,0.43,0.56,0.56,1.08,0.39s0.85-0.16,0.98-0.38
			c0.13-0.21,0.26-0.51,0-0.57C65.91,48.87,64.97,49.02,64.69,49.07z"/>
	</g>
	<g>
		<path class="st11" d="M54.55,57.7c-0.35-0.79-0.87-1.41-1.47-1.92c-0.59-0.52-1.06-0.93-2.28-0.9c-1.22,0.03-5.07,0.76-6.15,2.74
			c-1.08,1.98-2.32,4.16-1.91,5.4c0.41,1.24,0.72,1.76,0.9,1.89c0.18,0.13,0.88,0.73,0.88,0.73s-0.12,0.68,1.17,1.83
			c1.29,1.15,3.84,1.67,4.42,1.48s4.34-1.55,5.8-4.49c1.45-2.94,0.98-3.77,0.41-4.59C55.75,59.04,54.73,58.11,54.55,57.7z"/>
		<path class="st12" d="M44.78,65.29c0,0,1.89-3.26,2.93-4.47c1.03-1.21-2.18,1.77-2.69,2.57C44.51,64.18,44.78,65.29,44.78,65.29z"
			/>
		<path class="st13" d="M52.2,56.94c-0.15-0.08-1.72-0.98-2.41-0.77c-0.69,0.21-2.59,1.52-3.08,1.86s-1.55,1.27-1.79,1.74
			s-0.54,0.82-0.7,1.35s-0.31,1.79-0.59,1.42c-0.27-0.36-0.38-1.88-0.2-2.17c0.18-0.29,0.47-2.35,1.19-2.97
			c0.72-0.63,2.39-1.47,3.32-1.97s1.91-0.52,2.56-0.53c0.65-0.01,1.67,0.33,1.95,0.69c0.28,0.37,0.49,0.96,0.49,0.96
			s-0.12,0.47-0.09,0.65C52.89,57.38,52.62,57.18,52.2,56.94z"/>
		<path class="st13" d="M55.97,59.61c0,0-0.78,1.55-1.02,1.98s0.05,1.26-0.48,1.94c-0.53,0.68-0.23,0.73-1.15,1.57
			c-0.92,0.84-0.97,0.89-1.65,1.44c-0.69,0.56-0.93,0.98-1.42,1.07c-0.49,0.08-0.75-0.18-1.57-0.03s-0.84,0.07-0.26,0.23
			c0.57,0.16,1.46,0.21,2.22,0.02c0.76-0.19,1.78-0.9,2.76-1.63s1.68-2.08,2.07-2.77s0.72-1.72,0.72-2.06s-0.04-0.75-0.07-0.98
			S55.97,59.61,55.97,59.61z"/>
		<path class="st12" d="M54.05,57.96c-0.25-0.21-0.85-0.98-0.7-0.15c0.15,0.82-0.05,0.79,0.42,1.07s0.68,0.54,0.93,0.49
			c0.25-0.04,0.56-0.14,0.43-0.38C55,58.76,54.27,58.15,54.05,57.96z"/>
	</g>
</g>
</svg>
