<?xml version="1.0" encoding="utf-8"?>
<svg version="1.1" id="Layer_1" x="0px" y="0px" viewBox="0 0 108 108" style="enable-background:new 0 0 108 108;" xmlns="http://www.w3.org/2000/svg">
  <style type="text/css">
	.st0{opacity:0.84;}
	.st1{fill-rule:evenodd;clip-rule:evenodd;fill:#698E3C;}
	.st2{fill:none;stroke:#718537;stroke-width:1.0129;stroke-miterlimit:10;}
	.st3{fill:#7AB242;}
	.st4{fill:#4F9844;}
	.st5{fill:#6B9F41;}
	.st6{fill:#78B354;}
	.st7{fill:#68AD44;}
	.st8{fill:#6A8B60;}
	.st9{fill:#7BA278;}
	.st10{fill:#5F8057;}
</style>
  <g>
    <path class="st1" d="M 76.43 77.81 C 76.34 77.77 76.33 77.73 76.29 77.68 C 76.29 77.68 76.29 77.68 76.31 77.7 C 76.34 77.76 76.42 77.78 76.43 77.81 C 79.91 80.3 86.46 73.9 80.16 71.38 C 79.86 71.42 79.49 71.3 79.2 71.07 C 79.54 71.18 79.82 71.28 80.15 71.38 C 80.73 71.4 81.29 71.07 81.67 70.65 C 82.8 70.78 84.17 69.79 82.94 68.12 C 84.55 68.43 84.49 66.78 83.86 65.88 C 86.72 65.63 88.72 63.75 89.13 61.07 C 89.63 58.06 88.14 53.67 84.86 52.94 C 84.79 52.83 84.78 52.75 84.75 52.69 C 86.62 52.36 87.44 50.89 85.95 49.37 C 87.88 48.91 87.55 45.8 84.24 47.66 C 87.4 46.89 87.25 42.39 85.17 41.27 C 85.17 40.33 85.01 39.45 84.61 38.7 C 83.72 36.88 81.65 35.71 79.48 35.61 C 79.58 33.64 77.57 32.29 75.73 32.89 C 75.17 31.95 74.33 31.18 73.37 30.8 C 74.1 28.38 70.21 26.33 68.58 29.13 C 68.69 27.92 67.92 27.15 66.99 26.85 C 66.38 25.45 65.05 25.34 63.79 25.81 C 63.63 25.7 63.44 25.66 63.26 25.56 C 62.99 22.99 61.22 20.71 58.99 20.11 C 56.26 19.32 52.85 21.15 51.9 24.06 C 51.61 24.04 51.34 23.98 51.09 24.04 C 48.79 21.16 41.63 22.56 44.77 27.84 C 44.97 28.01 45.12 28.28 45.25 28.53 C 45.25 28.53 45.25 28.53 45.27 28.55 C 45.09 28.28 44.93 28.09 44.77 27.84 C 43.52 26.86 41.13 27.9 41.64 29.51 C 40.72 29.57 39.86 29.93 39.28 30.53 C 36.73 28.29 33.56 28.5 31.36 30.59 C 28.91 32.93 27.27 38.15 30.69 40.54 C 28.74 38.7 26.49 39.31 26.81 41.84 C 24.96 41.03 23.37 43.72 27.12 44.22 C 23.27 42.57 19.94 49.15 24.31 50.15 C 21.05 50.48 21.45 55.39 24.66 55.87 C 22.31 56.94 22.57 59.53 24.08 60.68 C 23.88 61.39 24.08 62.16 25.41 62.56 C 24.26 63.1 24.6 63.96 25.28 64.5 C 23.67 66.11 25.47 69.64 28.28 68.47 C 27.5 69.35 27.63 70.45 28.21 71.25 C 27.85 72.75 28.82 73.67 30.09 74.03 C 30.39 74.99 30.97 75.45 31.86 75.56 C 31.96 75.94 32.33 76.33 32.93 76.67 C 33.35 77.92 34.3 78.43 35.02 77.95 C 35.07 77.8 35.15 77.64 35.26 77.49 C 35.29 77.49 35.37 77.53 35.42 77.51 C 35.29 77.68 35.17 77.86 35.02 77.95 C 34.53 79.41 36.14 80.81 37.79 81.25 C 37.81 81.96 38.24 82.48 38.83 82.88 C 39.28 84.66 40.39 86.26 41.9 86.93 C 44.51 88.2 48.23 87.01 49.64 84.25 C 49.78 84.19 49.97 84.25 50.1 84.19 C 50.16 84.25 50.28 84.3 50.34 84.36 C 51.6 86.85 56.17 87.45 57.36 85.03 C 58.47 85.36 59.77 85.14 60.76 84.47 C 61.47 84.32 62.09 83.82 62.35 83.01 C 62.94 84.95 65.5 84.03 65.16 81.84 C 65.18 81.86 65.23 81.86 65.26 81.84 C 66.36 85.52 70.6 87.34 73.49 86.19 C 76.51 85.03 78.18 80.84 76.43 77.81 Z"/>
    <path class="st2" d="M 77.9 39.36 C 75.51 39.76 71.35 41.32 68.4 42.42"/>
    <path class="st2" d="M 73.9 33.46 C 73.08 36.81 70.8 41.27 67.99 43.73"/>
    <path class="st2" d="M 67.53 33.26 C 69.78 36.61 72.21 39.31 68.96 42.3"/>
    <path class="st2" d="M 62.75 48.7 C 60.35 52.93 56.95 57.11 53.72 59"/>
    <path class="st2" d="M 66.68 56.1 C 61.65 56.37 54.23 58.81 52.69 59.22"/>
    <path class="st2" d="M 56.28 50.72 C 57.63 53.54 59.3 55 54.81 58.6"/>
    <ellipse transform="matrix(0.177099, -0.984193, 0.984193, 0.177099, 34.281082, 95.704521)" class="st3" cx="74.37" cy="27.35" rx="8.14" ry="3.2"/>
    <ellipse transform="matrix(0.978021, -0.208505, 0.208505, 0.978021, -6.04345, 18.243574)" class="st4" cx="83.5" cy="37.77" rx="8.14" ry="3.2"/>
    <ellipse transform="matrix(0.999391, -0.0349, 0.0349, 0.999391, -1.902816, 2.564189)" class="st5" cx="72.39" cy="55.74" rx="8.14" ry="3.2"/>
    <ellipse transform="matrix(0.533195, -0.845992, 0.845992, 0.533195, -16.273389, 65.047735)" class="st6" cx="50.81" cy="47.27" rx="3.2" ry="8.14"/>
    <ellipse transform="matrix(0.559215, -0.829023, 0.829023, 0.559215, -8.314691, 73.418487)" class="st7" cx="64.89" cy="44.53" rx="8.14" ry="3.2"/>
    <ellipse transform="matrix(0.650717, -0.75932, 0.75932, 0.650717, -0.091345, 57.158453)" class="st3" cx="62.08" cy="28.68" rx="3.2" ry="8.14"/>
    <path class="st2" d="M 47.9 28.15 C 47.35 30.51 47.18 34.95 47.05 38.1"/>
    <path class="st2" d="M 40.91 29.56 C 43.68 31.61 46.92 35.44 48.09 38.98"/>
    <path class="st2" d="M 38.26 35.36 C 42.22 34.58 45.65 33.38 47.15 37.53"/>
    <path class="st2" d="M 50.65 45.74 C 53.62 49.59 56.16 54.33 56.66 58.05"/>
    <path class="st2" d="M 59 44.97 C 57.31 49.72 56.69 57.5 56.47 59.08"/>
    <path class="st2" d="M 50.02 52.48 C 53.14 52.33 55.14 51.35 56.73 56.88"/>
    <ellipse transform="matrix(0.543691, -0.839286, 0.839286, 0.543691, -6.283381, 41.975938)" class="st3" cx="35.46" cy="26.77" rx="3.2" ry="8.14"/>
    <ellipse transform="matrix(0.185605, -0.982625, 0.982625, 0.185605, 17.596926, 65.976392)" class="st4" cx="48.6" cy="22.37" rx="8.14" ry="3.2"/>
    <ellipse transform="matrix(0.353982, -0.935252, 0.935252, 0.353982, 2.330696, 82.488602)" class="st5" cx="60.87" cy="39.56" rx="8.14" ry="3.2"/>
    <ellipse transform="matrix(0.81871, -0.574207, 0.574207, 0.81871, -24.16365, 35.871247)" class="st6" cx="44.72" cy="56.2" rx="8.14" ry="3.2"/>
    <ellipse transform="matrix(0.836135, -0.548523, 0.548523, 0.836135, -15.317651, 33.033517)" class="st7" cx="47.63" cy="42.15" rx="3.2" ry="8.14"/>
    <ellipse transform="matrix(0.893586, -0.448893, 0.448893, 0.893586, -13.933863, 18.442625)" class="st3" cx="31.93" cy="38.61" rx="8.14" ry="3.2"/>
    <path class="st2" d="M 28.73 47.52 C 30.27 49.39 33.69 52.22 36.11 54.24"/>
    <path class="st2" d="M 25.6 53.93 C 28.91 52.97 33.92 52.73 37.44 53.94"/>
    <path class="st2" d="M 28.6 59.56 C 30.38 55.94 31.51 52.49 35.72 53.82"/>
    <path class="st2" d="M 44.37 56.01 C 49.23 55.99 54.55 56.85 57.8 58.71"/>
    <path class="st2" d="M 48.83 48.91 C 51.57 53.14 57.39 58.35 58.51 59.48"/>
    <path class="st2" d="M 49.35 60.61 C 51.12 58.04 51.56 55.86 56.92 57.95"/>
    <ellipse transform="matrix(0.941536, -0.336913, 0.336913, 0.941536, -17.886841, 10.069936)" class="st3" cx="20.08" cy="56.57" rx="8.14" ry="3.2"/>
    <ellipse transform="matrix(0.74399, -0.668191, 0.668191, 0.74399, -22.748155, 27.535717)" class="st4" cx="24.56" cy="43.46" rx="3.2" ry="8.14"/>
    <ellipse transform="matrix(0.849042, -0.528326, 0.528326, 0.849042, -16.427444, 30.791845)" class="st5" cx="45.67" cy="44.14" rx="3.2" ry="8.14"/>
    <ellipse transform="matrix(0.040699, -0.999171, 0.999171, 0.040699, -19.92293, 113.390378)" class="st6" cx="49.09" cy="67.07" rx="8.14" ry="3.2"/>
    <ellipse transform="matrix(0.071702, -0.997426, 0.997426, 0.071702, -19.243136, 91.788227)" class="st7" cx="39.69" cy="56.23" rx="3.2" ry="8.14"/>
    <ellipse transform="matrix(0.185798, -0.982588, 0.982588, 0.185798, -43.134342, 81.067923)" class="st3" cx="27.35" cy="66.56" rx="8.14" ry="3.2"/>
    <path class="st2" d="M 32.87 67.12 C 35.18 67.85 39.59 68.35 42.72 68.72"/>
    <path class="st2" d="M 33.74 74.2 C 35.99 71.59 40.06 68.66 43.67 67.75"/>
    <path class="st2" d="M 39.33 77.28 C 38.85 73.27 37.92 69.76 42.17 68.58"/>
    <path class="st2" d="M 50.61 65.71 C 54.67 63.04 59.6 60.86 63.34 60.65"/>
    <path class="st2" d="M 50.48 57.33 C 55.08 59.38 62.8 60.58 64.36 60.92"/>
    <path class="st2" d="M 57.29 66.85 C 57.37 63.73 56.55 61.66 62.18 60.5"/>
    <ellipse transform="matrix(0.605585, -0.79578, 0.79578, 0.605585, -51.152802, 55.636381)" class="st3" cx="30.55" cy="79.42" rx="8.14" ry="3.2"/>
    <ellipse transform="matrix(0.259392, -0.965772, 0.965772, 0.259392, -43.611938, 75.100138)" class="st4" cx="27.16" cy="65.99" rx="3.2" ry="8.14"/>
    <ellipse transform="matrix(0.423701, -0.905802, 0.905802, 0.423701, -23.798454, 72.692537)" class="st5" cx="45.23" cy="55.05" rx="3.2" ry="8.14"/>
    <ellipse transform="matrix(0.85977, -0.510682, 0.510682, 0.85977, -28.478355, 41.099807)" class="st6" cx="60.6" cy="72.41" rx="3.2" ry="8.14"/>
    <ellipse transform="matrix(0.875226, -0.483714, 0.483714, 0.875226, -27.269397, 31.179195)" class="st7" cx="46.81" cy="68.45" rx="8.14" ry="3.2"/>
    <ellipse transform="matrix(0.924988, -0.379995, 0.379995, 0.924988, -28.700012, 22.285371)" class="st3" cx="42.09" cy="83.84" rx="3.2" ry="8.14"/>
    <path class="st2" d="M 78.33 60.75 C 76.26 59.48 72.1 57.93 69.15 56.82"/>
    <path class="st2" d="M 79.19 53.67 C 76.37 55.66 71.72 57.53 67.99 57.54"/>
    <path class="st2" d="M 74.51 49.33 C 74.01 53.33 74.07 56.96 69.66 57.09"/>
    <path class="st2" d="M 60.77 57.84 C 56.18 59.45 50.88 60.38 47.2 59.68"/>
    <path class="st2" d="M 58.88 66.01 C 54.9 62.91 47.7 59.88 46.27 59.18"/>
    <path class="st2" d="M 54.56 55.12 C 53.73 58.13 54.03 60.33 48.28 60.11"/>
    <ellipse transform="matrix(0.779589, -0.626291, 0.626291, 0.779589, -12.50367, 63.209708)" class="st3" cx="83.55" cy="49.37" rx="8.14" ry="3.2"/>
    <ellipse transform="matrix(0.484615, -0.874727, 0.874727, 0.484615, -12.222702, 105.717533)" class="st4" cx="83.6" cy="63.23" rx="3.2" ry="8.14"/>
    <ellipse transform="matrix(0.62961, -0.776912, 0.776912, 0.62961, -30.494326, 75.017784)" class="st5" cx="63.43" cy="69.49" rx="3.2" ry="8.14"/>
    <ellipse transform="matrix(0.957537, -0.288311, 0.288311, 0.957537, -11.872469, 17.27019)" class="st6" cx="52.7" cy="48.93" rx="3.2" ry="8.14"/>
    <ellipse transform="matrix(0.966035, -0.258409, 0.258409, 0.966035, -12.288441, 18.732029)" class="st7" cx="65.12" cy="56.1" rx="8.14" ry="3.2"/>
    <ellipse transform="matrix(0.989314, -0.145802, 0.145802, 0.989314, -5.384397, 11.154166)" class="st3" cx="73.41" cy="42.3" rx="3.2" ry="8.14"/>
    <path class="st2" d="M 62.12 80.06 C 60.97 77.93 58.15 74.49 56.16 72.05"/>
    <path class="st2" d="M 66.42 74.38 C 62.99 74.68 58.03 73.96 54.8 72.1"/>
    <path class="st2" d="M 64.56 68.27 C 62.11 71.48 60.34 74.65 56.47 72.54"/>
    <path class="st2" d="M 48.4 68.73 C 43.62 67.82 38.57 65.95 35.74 63.5"/>
    <path class="st2" d="M 42.66 74.84 C 40.78 70.17 36.08 63.93 35.19 62.6"/>
    <path class="st2" d="M 44.4 63.26 C 42.17 65.44 41.32 67.5 36.46 64.42"/>
    <ellipse transform="matrix(0.988731, -0.149705, 0.149705, 0.988731, -10.093157, 11.650602)" class="st3" cx="72.35" cy="72.85" rx="8.14" ry="3.2"/>
    <ellipse transform="matrix(0.85855, -0.51273, 0.51273, 0.85855, -34.258798, 45.551012)" class="st4" cx="65.43" cy="84.86" rx="3.2" ry="8.14"/>
    <ellipse transform="matrix(0.934746, -0.355317, 0.355317, 0.934746, -25.548135, 21.160324)" class="st5" cx="44.85" cy="80.13" rx="3.2" ry="8.14"/>
    <ellipse transform="matrix(0.231909, -0.972737, 0.972737, 0.231909, -20.159647, 88.403914)" class="st6" cx="45.9" cy="56.97" rx="8.14" ry="3.2"/>
    <ellipse transform="matrix(0.26211, -0.965038, 0.965038, 0.26211, -27.848371, 102.40659)" class="st7" cx="53.04" cy="69.41" rx="3.2" ry="8.14"/>
    <ellipse transform="matrix(0.371098, -0.928594, 0.928594, 0.371098, -15.021059, 101.110237)" class="st3" cx="67.14" cy="61.65" rx="8.14" ry="3.2"/>
    <path class="st8" d="M 65.57 76.24 C 65.66 76.62 65.76 77 65.88 77.38 C 65.83 77.13 65.79 76.88 65.75 76.63 C 65.69 76.5 65.63 76.37 65.57 76.24 Z"/>
    <path class="st9" d="M 90.05 73.81 C 90.05 73.81 90.05 73.81 90.05 73.81 C 88.54 71.73 87.04 69.95 82.95 68.81 C 78.86 67.67 74.4 66.92 70.69 68.13 C 68.92 68.71 65.17 69.79 65.17 72.22 C 65.17 73.17 65.22 74.66 65.58 76.24 C 65.64 76.37 65.7 76.5 65.76 76.63 C 65.58 75.47 65.56 74.42 65.56 73.68 C 65.56 71.26 69.32 70.17 71.08 69.59 C 74.79 68.38 79.25 69.14 83.34 70.27 C 87.08 71.31 88.65 72.89 90.05 74.74 C 90.18 74.91 90.31 75.09 90.44 75.27 C 90.55 75.42 90.65 75.59 90.73 75.77 C 90.65 75.02 90.43 74.34 90.05 73.81 Z"/>
    <path class="st10" d="M 70.39 82.66 C 75.31 84.85 84.14 85.46 87.33 83.04 C 89.74 81.21 90.94 78.11 90.72 75.78 C 90.64 75.6 90.54 75.43 90.43 75.28 C 90.3 75.1 90.17 74.93 90.04 74.75 C 89.87 76.89 88.69 79.37 86.65 80.93 C 83.46 83.35 74.63 82.75 69.71 80.55 C 67.75 79.68 66.52 78.22 65.76 76.64 C 65.8 76.88 65.84 77.13 65.89 77.39 C 66.56 79.46 67.87 81.54 70.39 82.66 Z"/>
    <path class="st8" d="M 83.33 70.28 C 79.24 69.14 74.78 68.39 71.07 69.6 C 69.3 70.18 65.55 71.27 65.55 73.69 C 65.55 74.42 65.58 75.47 65.75 76.64 C 66.52 78.22 67.74 79.67 69.7 80.55 C 74.62 82.74 83.45 83.35 86.64 80.93 C 88.69 79.38 89.86 76.9 90.03 74.75 C 88.65 72.9 87.07 71.32 83.33 70.28 Z"/>
    <path class="st8" d="M 43.06 57.54 C 43.15 57.92 43.25 58.3 43.37 58.68 C 43.32 58.43 43.28 58.18 43.24 57.93 C 43.18 57.8 43.12 57.67 43.06 57.54 Z"/>
    <path class="st9" d="M 67.54 55.11 C 67.54 55.11 67.54 55.11 67.54 55.11 C 66.03 53.03 64.53 51.25 60.44 50.11 C 56.35 48.97 51.89 48.22 48.18 49.43 C 46.41 50.01 42.66 51.09 42.66 53.52 C 42.66 54.47 42.71 55.96 43.07 57.54 C 43.13 57.67 43.19 57.8 43.25 57.93 C 43.07 56.77 43.05 55.72 43.05 54.98 C 43.05 52.56 46.81 51.47 48.57 50.89 C 52.28 49.68 56.74 50.44 60.83 51.57 C 64.57 52.61 66.14 54.19 67.54 56.04 C 67.67 56.21 67.8 56.39 67.93 56.57 C 68.04 56.72 68.14 56.89 68.22 57.07 C 68.14 56.32 67.92 55.64 67.54 55.11 Z"/>
    <path class="st10" d="M 47.88 63.96 C 52.8 66.15 61.63 66.76 64.82 64.34 C 67.23 62.51 68.43 59.41 68.21 57.08 C 68.13 56.9 68.03 56.73 67.92 56.58 C 67.79 56.4 67.66 56.23 67.53 56.05 C 67.36 58.19 66.18 60.67 64.14 62.23 C 60.95 64.65 52.12 64.05 47.2 61.85 C 45.24 60.98 44.01 59.52 43.25 57.94 C 43.29 58.18 43.33 58.43 43.38 58.69 C 44.05 60.76 45.36 62.84 47.88 63.96 Z"/>
    <path class="st8" d="M 60.82 51.58 C 56.73 50.44 52.27 49.69 48.56 50.9 C 46.79 51.48 43.04 52.56 43.04 54.99 C 43.04 55.72 43.07 56.77 43.24 57.94 C 44.01 59.52 45.23 60.97 47.19 61.85 C 52.11 64.04 60.94 64.65 64.13 62.23 C 66.18 60.68 67.35 58.2 67.52 56.05 C 66.14 54.2 64.56 52.62 60.82 51.58 Z"/>
    <path class="st8" d="M 35.67 58.9 C 35.34 58.71 34.99 58.52 34.62 58.35 C 34.84 58.48 35.05 58.62 35.25 58.76 C 35.4 58.81 35.54 58.86 35.67 58.9 Z"/>
    <path class="st9" d="M 20.77 78.47 C 20.77 78.47 20.77 78.47 20.77 78.47 C 23.32 78.78 25.65 78.9 29.27 76.68 C 32.89 74.46 36.48 71.71 38.12 68.17 C 38.9 66.48 40.67 62.99 38.89 61.34 C 38.19 60.69 37.07 59.71 35.67 58.9 C 35.53 58.85 35.4 58.81 35.26 58.76 C 36.23 59.42 37.02 60.12 37.56 60.62 C 39.33 62.27 37.57 65.76 36.79 67.45 C 35.15 70.99 31.55 73.74 27.94 75.96 C 24.64 77.99 22.4 78.06 20.1 77.82 C 19.88 77.8 19.67 77.77 19.45 77.75 C 19.26 77.73 19.07 77.68 18.88 77.62 C 19.48 78.09 20.12 78.39 20.77 78.47 Z"/>
    <path class="st10" d="M 27.69 58.05 C 22.73 60.15 16.27 66.2 15.87 70.19 C 15.57 73.19 17.02 76.19 18.87 77.62 C 19.06 77.68 19.25 77.73 19.44 77.75 C 19.66 77.78 19.88 77.8 20.09 77.82 C 18.64 76.23 17.62 73.69 17.88 71.13 C 18.28 67.14 24.74 61.09 29.7 58.99 C 31.68 58.15 33.57 58.24 35.25 58.76 C 35.05 58.62 34.83 58.48 34.62 58.35 C 32.64 57.43 30.23 56.97 27.69 58.05 Z"/>
    <path class="st8" d="M 27.93 75.96 C 31.55 73.74 35.14 70.99 36.78 67.45 C 37.56 65.76 39.33 62.27 37.55 60.62 C 37.01 60.12 36.23 59.43 35.25 58.76 C 33.57 58.24 31.67 58.15 29.7 58.99 C 24.74 61.09 18.28 67.14 17.88 71.13 C 17.62 73.69 18.64 76.24 20.09 77.82 C 22.4 78.07 24.63 77.99 27.93 75.96 Z"/>
    <path class="st8" d="M 59.64 42.65 C 60.02 42.61 60.41 42.55 60.81 42.47 C 60.55 42.49 60.3 42.51 60.05 42.51 C 59.92 42.56 59.78 42.6 59.64 42.65 Z"/>
    <path class="st9" d="M 60.08 18.05 C 60.08 18.05 60.08 18.05 60.08 18.05 C 57.84 19.31 55.89 20.59 54.29 24.52 C 52.69 28.45 51.42 32.79 52.19 36.62 C 52.56 38.44 53.2 42.3 55.61 42.58 C 56.56 42.69 58.04 42.82 59.65 42.64 C 59.79 42.6 59.93 42.55 60.06 42.51 C 58.88 42.55 57.84 42.46 57.11 42.37 C 54.7 42.09 54.06 38.23 53.69 36.41 C 52.92 32.59 54.19 28.24 55.79 24.31 C 57.26 20.72 59.01 19.34 61.01 18.17 C 61.2 18.06 61.39 17.95 61.58 17.84 C 61.75 17.75 61.93 17.67 62.11 17.61 C 61.35 17.59 60.65 17.73 60.08 18.05 Z"/>
    <path class="st10" d="M 66.58 38.61 C 69.33 33.98 70.96 25.28 68.93 21.83 C 67.4 19.23 64.46 17.67 62.11 17.61 C 61.92 17.67 61.74 17.75 61.58 17.84 C 61.39 17.95 61.2 18.06 61.01 18.17 C 63.12 18.59 65.44 20.04 66.75 22.26 C 68.78 25.71 67.15 34.41 64.4 39.04 C 63.3 40.89 61.72 41.93 60.06 42.51 C 60.31 42.5 60.56 42.49 60.82 42.47 C 62.96 42.04 65.17 40.98 66.58 38.61 Z"/>
    <path class="st8" d="M 55.79 24.31 C 54.19 28.24 52.92 32.58 53.69 36.41 C 54.06 38.23 54.7 42.09 57.11 42.37 C 57.84 42.46 58.88 42.55 60.06 42.51 C 61.72 41.93 63.31 40.88 64.4 39.04 C 67.15 34.41 68.78 25.71 66.75 22.26 C 65.45 20.05 63.12 18.59 61.01 18.17 C 59.01 19.34 57.26 20.72 55.79 24.31 Z"/>
    <path class="st8" d="M 39 49.89 C 38.98 49.59 38.96 49.28 38.91 48.97 C 38.92 49.17 38.92 49.37 38.91 49.56 C 38.94 49.67 38.97 49.78 39 49.89 Z"/>
    <path class="st9" d="M 19.78 48.47 C 19.78 48.47 19.78 48.47 19.78 48.47 C 20.66 50.28 21.59 51.86 24.59 53.28 C 27.59 54.71 30.94 55.89 33.96 55.45 C 35.4 55.24 38.45 54.91 38.77 53.04 C 38.9 52.3 39.06 51.15 39 49.88 C 38.97 49.77 38.94 49.66 38.91 49.55 C 38.89 50.47 38.77 51.29 38.67 51.85 C 38.34 53.72 35.3 54.05 33.86 54.26 C 30.84 54.7 27.49 53.51 24.49 52.09 C 21.75 50.79 20.74 49.36 19.92 47.74 C 19.84 47.59 19.77 47.44 19.69 47.28 C 19.62 47.15 19.57 47 19.53 46.85 C 19.48 47.46 19.56 48.01 19.78 48.47 Z"/>
    <path class="st10" d="M 36.15 44.28 C 32.65 41.92 25.92 40.27 23.13 41.71 C 21.03 42.8 19.68 45.03 19.53 46.86 C 19.57 47.01 19.62 47.15 19.69 47.29 C 19.77 47.45 19.84 47.6 19.92 47.75 C 20.34 46.12 21.58 44.36 23.37 43.44 C 26.16 42 32.89 43.66 36.39 46.01 C 37.79 46.95 38.54 48.23 38.91 49.56 C 38.91 49.37 38.91 49.17 38.91 48.97 C 38.67 47.27 37.94 45.49 36.15 44.28 Z"/>
    <path class="st8" d="M 24.49 52.1 C 27.49 53.53 30.84 54.71 33.86 54.27 C 35.3 54.06 38.35 53.73 38.67 51.86 C 38.77 51.29 38.89 50.48 38.91 49.56 C 38.53 48.24 37.78 46.95 36.39 46.01 C 32.89 43.65 26.16 42 23.37 43.44 C 21.58 44.36 20.34 46.12 19.92 47.75 C 20.74 49.36 21.75 50.8 24.49 52.1 Z"/>
    <path class="st8" d="M 51.01 36.84 C 51.18 36.59 51.34 36.33 51.5 36.05 C 51.38 36.21 51.26 36.37 51.14 36.52 C 51.1 36.63 51.06 36.74 51.01 36.84 Z"/>
    <path class="st9" d="M 36.57 24.08 C 36.57 24.08 36.57 24.09 36.57 24.08 C 36.18 26.05 35.96 27.87 37.48 30.82 C 39.01 33.77 40.95 36.74 43.62 38.22 C 44.89 38.93 47.52 40.5 48.91 39.21 C 49.46 38.7 50.28 37.88 51 36.83 C 51.05 36.73 51.09 36.62 51.13 36.52 C 50.56 37.24 49.97 37.82 49.55 38.21 C 48.16 39.5 45.53 37.92 44.26 37.22 C 41.59 35.74 39.64 32.77 38.12 29.82 C 36.72 27.12 36.79 25.38 37.11 23.59 C 37.14 23.42 37.17 23.25 37.2 23.08 C 37.23 22.93 37.28 22.79 37.33 22.64 C 36.94 23.1 36.67 23.58 36.57 24.08 Z"/>
    <path class="st10" d="M 52.13 30.65 C 50.77 26.66 46.41 21.26 43.32 20.72 C 40.99 20.31 38.57 21.27 37.34 22.64 C 37.28 22.78 37.23 22.93 37.21 23.08 C 37.18 23.25 37.15 23.42 37.12 23.59 C 38.44 22.55 40.49 21.9 42.47 22.25 C 45.56 22.79 49.92 28.18 51.28 32.18 C 51.82 33.77 51.64 35.25 51.14 36.53 C 51.26 36.38 51.38 36.22 51.5 36.06 C 52.33 34.55 52.83 32.7 52.13 30.65 Z"/>
    <path class="st8" d="M 38.12 29.82 C 39.65 32.77 41.59 35.74 44.26 37.22 C 45.53 37.93 48.16 39.5 49.55 38.21 C 49.97 37.82 50.56 37.24 51.13 36.52 C 51.63 35.24 51.81 33.76 51.27 32.17 C 49.91 28.18 45.55 22.78 42.46 22.24 C 40.48 21.89 38.43 22.54 37.11 23.58 C 36.8 25.38 36.73 27.12 38.12 29.82 Z"/>
    <path class="st8" d="M 70.24 44.96 C 70.48 45.05 70.73 45.13 70.98 45.2 C 70.82 45.14 70.67 45.07 70.52 45 C 70.43 44.99 70.34 44.98 70.24 44.96 Z"/>
    <path class="st9" d="M 77.79 30.57 C 77.79 30.57 77.79 30.57 77.79 30.57 C 76.09 30.65 74.56 30.83 72.45 32.67 C 70.34 34.51 68.3 36.7 67.62 39.19 C 67.3 40.38 66.53 42.84 67.87 43.72 C 68.4 44.07 69.23 44.58 70.24 44.96 C 70.33 44.98 70.43 44.99 70.52 45 C 69.81 44.67 69.22 44.31 68.82 44.04 C 67.48 43.16 68.25 40.69 68.57 39.51 C 69.25 37.02 71.29 34.83 73.4 32.99 C 75.33 31.3 76.77 31.01 78.3 30.91 C 78.44 30.9 78.59 30.89 78.73 30.89 C 78.86 30.88 78.98 30.89 79.11 30.91 C 78.67 30.68 78.22 30.55 77.79 30.57 Z"/>
    <path class="st10" d="M 75.54 44.64 C 78.54 42.72 82.08 38.07 81.9 35.43 C 81.77 33.44 80.49 31.65 79.12 30.92 C 78.99 30.9 78.86 30.89 78.74 30.9 C 78.59 30.91 78.45 30.91 78.31 30.92 C 79.43 31.79 80.37 33.34 80.49 35.03 C 80.67 37.67 77.13 42.33 74.13 44.24 C 72.94 45 71.69 45.15 70.54 45 C 70.69 45.07 70.84 45.13 71 45.2 C 72.38 45.59 74 45.62 75.54 44.64 Z"/>
    <path class="st8" d="M 73.4 33 C 71.29 34.84 69.25 37.03 68.57 39.52 C 68.25 40.71 67.48 43.17 68.82 44.05 C 69.23 44.32 69.82 44.68 70.52 45.01 C 71.67 45.16 72.92 45.01 74.11 44.25 C 77.11 42.33 80.65 37.68 80.47 35.04 C 80.36 33.35 79.41 31.8 78.29 30.93 C 76.78 31.01 75.33 31.31 73.4 33 Z"/>
    <path class="st8" d="M 55.45 92.37 C 55.71 92.22 55.98 92.06 56.24 91.89 C 56.06 91.98 55.88 92.07 55.71 92.15 C 55.62 92.23 55.53 92.3 55.45 92.37 Z"/>
    <path class="st9" d="M 48.25 74.5 C 48.25 74.5 48.25 74.5 48.25 74.5 C 47.02 76.09 46.01 77.61 46.05 80.93 C 46.09 84.25 46.5 87.78 48.23 90.3 C 49.05 91.5 50.69 94.09 52.51 93.56 C 53.23 93.35 54.33 92.99 55.44 92.37 C 55.53 92.3 55.61 92.22 55.7 92.15 C 54.86 92.54 54.08 92.79 53.53 92.95 C 51.71 93.48 50.07 90.9 49.25 89.69 C 47.53 87.17 47.12 83.64 47.07 80.32 C 47.03 77.28 47.87 75.75 48.96 74.3 C 49.06 74.16 49.17 74.03 49.27 73.89 C 49.36 73.77 49.47 73.66 49.58 73.56 C 49.03 73.78 48.57 74.1 48.25 74.5 Z"/>
    <path class="st10" d="M 59.22 87.34 C 59.79 83.16 58.31 76.39 55.79 74.52 C 53.89 73.11 51.29 72.89 49.58 73.56 C 49.46 73.66 49.36 73.77 49.27 73.89 C 49.16 74.03 49.06 74.16 48.96 74.3 C 50.61 73.96 52.73 74.3 54.35 75.5 C 56.87 77.37 58.35 84.14 57.78 88.32 C 57.55 89.99 56.73 91.23 55.71 92.15 C 55.89 92.07 56.06 91.98 56.24 91.89 C 57.65 90.92 58.93 89.48 59.22 87.34 Z"/>
    <path class="st8" d="M 47.07 80.32 C 47.11 83.64 47.52 87.17 49.25 89.69 C 50.07 90.89 51.71 93.48 53.53 92.95 C 54.08 92.79 54.86 92.54 55.7 92.15 C 56.72 91.23 57.55 89.99 57.77 88.32 C 58.34 84.14 56.86 77.37 54.34 75.5 C 52.72 74.3 50.6 73.96 48.95 74.3 C 47.87 75.75 47.03 77.29 47.07 80.32 Z"/>
    <path class="st8" d="M 75.93 64.59 C 76.17 64.79 76.42 64.98 76.68 65.16 C 76.53 65.02 76.38 64.89 76.24 64.75 C 76.13 64.71 76.03 64.65 75.93 64.59 Z"/>
    <path class="st9" d="M 90.29 51.25 C 90.28 51.25 90.28 51.25 90.29 51.25 C 88.33 50.66 86.52 50.25 83.38 51.5 C 80.24 52.75 77.04 54.42 75.27 56.98 C 74.43 58.2 72.57 60.7 73.74 62.24 C 74.2 62.85 74.95 63.76 75.94 64.6 C 76.04 64.66 76.14 64.71 76.25 64.76 C 75.58 64.11 75.05 63.45 74.7 62.99 C 73.53 61.45 75.39 58.95 76.23 57.73 C 78 55.17 81.2 53.5 84.34 52.25 C 87.21 51.11 88.97 51.35 90.75 51.85 C 90.92 51.9 91.08 51.95 91.25 52 C 91.4 52.04 91.54 52.11 91.68 52.18 C 91.25 51.73 90.78 51.4 90.29 51.25 Z"/>
    <path class="st10" d="M 82.08 66.35 C 86.26 65.37 92.15 61.5 93.01 58.42 C 93.66 56.1 92.92 53.55 91.66 52.18 C 91.52 52.11 91.38 52.04 91.23 52 C 91.06 51.95 90.89 51.9 90.73 51.85 C 91.65 53.29 92.1 55.43 91.55 57.4 C 90.69 60.47 84.8 64.35 80.62 65.33 C 78.95 65.72 77.48 65.39 76.23 64.76 C 76.37 64.9 76.52 65.03 76.67 65.17 C 78.11 66.16 79.94 66.85 82.08 66.35 Z"/>
    <path class="st8" d="M 84.32 52.25 C 81.18 53.5 77.98 55.17 76.21 57.73 C 75.37 58.95 73.51 61.45 74.68 62.99 C 75.03 63.46 75.56 64.11 76.23 64.76 C 77.48 65.39 78.96 65.72 80.62 65.33 C 84.8 64.35 90.69 60.48 91.55 57.4 C 92.1 55.43 91.65 53.29 90.73 51.85 C 88.95 51.35 87.19 51.11 84.32 52.25 Z"/>
  </g>
</svg>