<?xml version="1.0" encoding="utf-8"?>
<!-- Generator: Adobe Illustrator 23.1.1, SVG Export Plug-In . SVG Version: 6.00 Build 0)  -->
<svg version="1.1" id="Layer_1" xmlns="http://www.w3.org/2000/svg" xmlns:xlink="http://www.w3.org/1999/xlink" x="0px" y="0px"
	 viewBox="0 0 108 108" style="enable-background:new 0 0 108 108;" xml:space="preserve">
<style type="text/css">
	.st0{fill-rule:evenodd;clip-rule:evenodd;fill:#79A23F;}
	.st1{opacity:0.34;fill:#68431A;}
	.st2{fill:none;stroke:#718537;stroke-width:0.6452;stroke-miterlimit:10;}
	.st3{fill:#A5C239;}
	.st4{fill:#84B541;}
	.st5{fill:#91BB3E;}
	.st6{fill:#AFCB36;}
	.st7{fill:#92B83F;}
	.st8{fill:#A5BE3B;}
	.st9{fill:#A4C839;}
	.st10{fill:#72AA42;}
	.st11{fill:#C9C85C;}
	.st12{fill:#E4E266;}
	.st13{fill:#959152;}
</style>
<g>
	<g>
		<path class="st0" d="M76.99,79.29c-0.09-0.04-0.1-0.08-0.14-0.13c0,0,0,0,0.02,0.02C76.9,79.24,76.98,79.26,76.99,79.29
			c3.48,2.49,10.03-3.91,3.73-6.43c-0.3,0.04-0.67-0.08-0.96-0.31h0c0.34,0.11,0.62,0.21,0.95,0.31c0.58,0.02,1.14-0.31,1.52-0.73
			c1.13,0.13,2.5-0.86,1.27-2.53c1.61,0.31,1.55-1.34,0.92-2.24c2.86-0.25,4.86-2.13,5.27-4.81c0.5-3.01-0.99-7.4-4.27-8.13
			c-0.07-0.11-0.08-0.19-0.11-0.25c1.87-0.33,2.69-1.8,1.2-3.32c1.93-0.46,1.6-3.57-1.71-1.71c3.16-0.77,3.01-5.27,0.93-6.39
			c0-0.94-0.16-1.82-0.56-2.57c-0.89-1.82-2.96-2.99-5.13-3.09c0.1-1.97-1.91-3.32-3.75-2.72c-0.56-0.94-1.4-1.71-2.36-2.09
			c0.73-2.42-3.16-4.47-4.79-1.67c0.11-1.21-0.66-1.98-1.59-2.28c-0.61-1.4-1.94-1.51-3.2-1.04c-0.16-0.11-0.35-0.15-0.53-0.25
			c-0.27-2.57-2.04-4.85-4.27-5.45c-2.73-0.79-6.14,1.04-7.09,3.95c-0.29-0.02-0.56-0.08-0.81-0.02c-2.3-2.88-9.46-1.48-6.32,3.8
			c0.2,0.17,0.35,0.44,0.48,0.69c0,0,0,0,0.02,0.02c-0.18-0.27-0.34-0.46-0.5-0.71c-1.25-0.98-3.64,0.06-3.13,1.67
			c-0.92,0.06-1.78,0.42-2.36,1.02c-2.55-2.24-5.72-2.03-7.92,0.06c-2.45,2.34-4.09,7.56-0.67,9.95c-1.95-1.84-4.2-1.23-3.88,1.3
			c-1.85-0.81-3.44,1.88,0.31,2.38c-3.85-1.65-7.18,4.93-2.81,5.93c-3.26,0.33-2.86,5.24,0.35,5.72c-2.35,1.07-2.09,3.66-0.58,4.81
			c-0.2,0.71,0,1.48,1.33,1.88c-1.15,0.54-0.81,1.4-0.13,1.94c-1.61,1.61,0.19,5.14,3,3.97c-0.78,0.88-0.65,1.98-0.07,2.78
			c-0.36,1.5,0.61,2.42,1.88,2.78c0.3,0.96,0.88,1.42,1.77,1.53c0.1,0.38,0.47,0.77,1.07,1.11c0.42,1.25,1.37,1.76,2.09,1.28
			c0.05-0.15,0.13-0.31,0.24-0.46c0.03,0,0.11,0.04,0.16,0.02c-0.13,0.17-0.25,0.35-0.4,0.44c-0.49,1.46,1.12,2.86,2.77,3.3
			c0.02,0.71,0.45,1.23,1.04,1.63c0.45,1.78,1.56,3.38,3.07,4.05c2.61,1.27,6.33,0.08,7.74-2.68c0.14-0.06,0.33,0,0.46-0.06
			c0.06,0.06,0.18,0.11,0.24,0.17c1.26,2.49,5.83,3.09,7.02,0.67c1.11,0.33,2.41,0.11,3.4-0.56c0.71-0.15,1.33-0.65,1.59-1.46
			c0.59,1.94,3.15,1.02,2.81-1.17c0.02,0.02,0.07,0.02,0.1,0c1.1,3.68,5.34,5.5,8.23,4.35C77.06,86.51,78.74,82.33,76.99,79.29z"/>
		<path class="st1" d="M84.24,62.62l-1.99-0.42l-3.97-0.91l-0.02,0l-0.15-0.01c-1.14-0.08-2.28-0.08-3.42-0.04
			c-1.07,0.04-2.15,0.11-3.21,0.39c-0.29-0.48-0.73-0.53-1.12-0.74l-1.28-0.56l-2.55-1.12c-0.95-0.4-1.9-0.79-2.85-1.18
			c0.27-1.07,0.39-2.01,0.29-2.84c1.05-0.5,2.1-1.06,3.09-1.71c0.37-0.24,0.72-0.5,1.07-0.76c0.19,0.13,0.4,0.13,0.61,0.17
			l1.09,0.18l2.17,0.37l4.36,0.67c1.46,0.21,2.91,0.41,4.38,0.59c1.47,0.16,2.93,0.35,4.41,0.48l0.25-1.16
			c-1.43-0.38-2.87-0.7-4.31-1.04c-1.44-0.32-2.89-0.63-4.34-0.93l-4.35-0.85l-2.08-0.38c0.68-0.7,1.33-1.44,1.88-2.24
			c0.72-1.03,1.3-2.14,1.78-3.28l7.64-0.76l-0.05-1.19l-6.87-0.05c0.12-0.37,0.24-0.75,0.33-1.13c0.62-2.24,0.76-4.54,0.89-6.81
			l-1.19-0.06c-0.25,2.19-0.52,4.38-1.22,6.44c-0.66,2.06-1.6,4.01-2.9,5.67c-1.29,1.67-2.93,3.01-4.77,4.05
			c-1.11,0.64-2.3,1.15-3.53,1.63c-0.58-0.31-1.15-0.56-1.4-0.77c-0.37-0.31-0.9-0.76-1.45-1.15l-0.81-12.59
			c0.06-0.05,0.13-0.11,0.19-0.16l0.65-0.51l1.36-1.02l2.77-2l5.6-3.93l-0.65-0.99l-5.81,3.65l-2.89,1.87l-1.36,0.92l-0.53-8.23
			l-1.19,0.04l0.1,9.46c-0.01,0.01-0.02,0.02-0.03,0.03l0.03,0.02l0.05,4.71c-0.03-0.03-0.05-0.05-0.08-0.08
			c-0.6-0.57-1.22-1.11-1.85-1.64c-0.09-0.07-0.18-0.13-0.27-0.21L51.7,29.77l-1.15,0.3l2.03,8.81c-0.5-0.36-1.01-0.71-1.53-1.05
			c-1.36-0.9-2.78-1.72-4.21-2.49c-1.44-0.76-2.92-1.45-4.4-2.11l-0.49,1.08c1.44,0.69,2.87,1.41,4.26,2.2
			c1.39,0.78,2.77,1.59,4.08,2.48c1.32,0.89,2.6,1.83,3.81,2.84c0.6,0.51,1.2,1.03,1.75,1.58c0.28,0.27,0.55,0.55,0.82,0.84
			c0.1,0.1,0.19,0.21,0.29,0.32l0.06,6.02c-0.84,0.36-1.45,0.98-1.45,0.98s-0.4,0.34-0.91,0.83l-10.27-5.34
			c-0.33-0.67-0.82-1.23-1.21-1.85l-1.76-2.57c-1.21-1.69-2.41-3.39-3.68-5.04l-0.99,0.66c1.04,1.8,2.16,3.56,3.27,5.32l1.71,2.61
			c0.3,0.41,0.55,0.87,0.84,1.29c-0.66,0-1.31,0.07-1.96,0.09l-3.54,0.2c-2.36,0.17-4.71,0.35-7.07,0.61l0.06,1.19
			c2.37,0.04,4.73-0.02,7.09-0.07l3.54-0.14c0.89-0.06,1.78-0.01,2.66-0.2l2.71,1.65l-6.61,3.94l-10.94,1.78l0.19,1.17l11.04-1.8
			l0.06-0.01l0.11-0.05l8.62-3.54l4.12,2.51c-0.09,0.18-0.15,0.35-0.18,0.5c-0.17,1.04,0.37,2.13,0.65,3.38l-4.6,3.74l-19.87-1.1
			l-0.09,1.18l11.8,1.23l-9.12,7.06l0.69,0.97l11.74-7.68l3.95,0.41l-0.54,4.08c-0.13,0.95-0.25,1.89-0.38,2.84l-12.07,4.15
			l0.35,1.14l11.33-3.01c-0.01,0.02-0.01,0.05-0.01,0.07l-1.97,10.32l1.16,0.24l2.36-10.27c0.44-1.7,0.67-3.45,0.98-5.18l0.81-4.74
			l3.9-2.34c0.17,0.2,0.47,0.34,1,0.48c0.56,0.15,1.06,0.24,1.48,0.3l2.06,12.31l-4.1,12.01l1.11,0.41l4.08-10.33l6.54,9.51l1-0.64
			l-6.84-11.38l-0.73-12.19c0.63-0.19,1.2-0.36,1.2-0.36s1.24-0.63,2.17-1.59c1.06,0.37,2.12,0.73,3.18,1.08l2.66,0.84l1.33,0.42
			c0.19,0.04,0.38,0.12,0.57,0.18l0.78,3.93l0.44,2.16l0.23,1.09l0.14,0.6c0.03,0.13,0.1,0.29,0.18,0.43l0.15,0.26
			c0.79,1.28,1.6,2.49,2.41,3.73l2.44,3.67l1.01-0.63l-2.19-3.81c-0.72-1.27-1.46-2.56-2.13-3.81l-0.11-0.22
			c0-0.02-0.02-0.02-0.02-0.08l-0.08-0.48l-0.16-1.08l-0.3-2.17l-0.46-3.47c0.73,0.03,1.46-0.01,2.19-0.07
			c0.63-0.05,1.26-0.12,1.89-0.2l4.75,11.44l1.11-0.41l-3.61-11.07l3.07,0.7l2.01,0.42c0.7,0.13,1.3,0.27,2.13,0.33v-1.19
			C85.61,62.89,84.88,62.75,84.24,62.62z"/>
		<g>
			<path class="st2" d="M72.84,79.65c-0.04-1.54-0.65-4.31-1.07-6.27"/>
			<path class="st2" d="M76.92,77.67c-2.04-0.82-4.65-2.66-5.94-4.65"/>
			<path class="st2" d="M77.62,73.66c-2.32,1.12-4.24,2.41-5.83,0.09"/>
			<path class="st2" d="M68.31,69.26c-2.45-1.9-4.78-4.41-5.68-6.62"/>
			<path class="st2" d="M63.29,71.07c0.28-3.2-0.59-8.1-0.71-9.1"/>
			<path class="st2" d="M67.62,65c-1.9,0.6-2.97,1.52-4.84-1.63"/>
			<path class="st3" d="M69.51,82.67c-0.2-1.23-0.82-1.48,1.23-3.66c2.05-2.18,2.05-2.18,2.05-2.18s0.41,0.47,0.89,1.01
				c0.48,0.53,2.5,2.33,1.59,4.41c-0.91,2.09-1.7,3.22-2.01,3.55c-0.31,0.33-1.12,1.64-1.34,1.96"/>
			<path class="st4" d="M83.94,83.3c-1.49-0.62-3.64,0.72-5.45-0.55s-2.85-4.42-3.28-5.32c-0.43-0.91-1.17-0.51,0.54-0.55
				c1.71-0.03,1.81-0.61,3.29-0.26c1.49,0.35,3.54,2.57,3.68,3.49C82.86,81.03,83.94,83.3,83.94,83.3z"/>
			<path class="st5" d="M75.02,74.95c0.45,0,0.94,0.36,3.1,0.4c2.15,0.03,3.85-0.2,4.23-1.84c0.38-1.64-0.15-1.97,0.77-3.05
				s0.92-1.08,0.92-1.08s-1.85-0.06-4.44,0.01s-3.79,2.68-4.11,3.78C75.17,74.27,75.02,74.95,75.02,74.95z"/>
			<path class="st6" d="M73.85,74.97c0,0-0.99-1.1-3.03-1.11c-2.03-0.01-4.26-1.01-4.26-3.16c0-2.15-0.7-3.34-0.7-3.34
				s-0.04,0.31,1.73,0.17c1.77-0.14,4.28,1.08,4.99,2.84C73.29,72.13,73.85,74.97,73.85,74.97z"/>
			<path class="st7" d="M61.63,77.71c0,0,2.62-2.62,3.42-4.4c0.8-1.78,1.02-2.84-0.02-4.1c-1.04-1.26-1.42-2.28-1.42-2.28
				s-1.48,2.2-2.44,2.71s-2.04,2.31-1.52,3.38C60.17,74.09,61.63,77.71,61.63,77.71z"/>
			<path class="st8" d="M65.73,65.59c0,0.03,1.57,0.68,3.43,0.91c1.87,0.22,2.87,0.21,3.61-0.72c0.73-0.93,1.23-1.91,1.75-2.99
				c0.52-1.08,0.59-1.52,1.02-1.63c0.43-0.1-0.54,0.38-2.6-0.13s-3.04-1.07-3.9-0.4c-0.85,0.67-0.83,1.91-1.52,2.91
				S65.73,65.59,65.73,65.59z"/>
		</g>
		<g>
			<path class="st2" d="M38.66,79.95c1.49-0.42,4.02-1.68,5.81-2.58"/>
			<path class="st2" d="M41.59,83.42c0.29-2.17,1.44-5.16,3.05-6.9"/>
			<path class="st2" d="M45.65,83.12c-1.65-1.97-3.37-3.52-1.51-5.63"/>
			<path class="st2" d="M47.63,73.02c1.24-2.84,3.11-5.72,5.03-7.13"/>
			<path class="st2" d="M44.64,68.59c3.17-0.51,7.7-2.56,8.65-2.92"/>
			<path class="st2" d="M51.59,71.3c-1.04-1.69-2.2-2.51,0.4-5.09"/>
			<path class="st4" d="M34.92,77.46c1.14-0.49,1.24-1.16,3.85,0.29c2.61,1.45,2.61,1.45,2.61,1.45s-0.36,0.51-0.76,1.1
				c-0.4,0.59-1.64,2.99-3.89,2.62c-2.25-0.37-3.54-0.86-3.94-1.08c-0.39-0.22-1.86-0.68-2.23-0.82"/>
			<path class="st9" d="M37.86,91.61c0.24-1.6-1.59-3.35-0.8-5.42c0.79-2.07,3.58-3.84,4.36-4.49c0.77-0.64,0.21-1.26,0.66,0.39
				c0.45,1.65,1.04,1.6,1.06,3.13c0.02,1.53-1.63,4.06-2.48,4.42S37.86,91.61,37.86,91.61z"/>
			<path class="st5" d="M43.76,80.91c0.11,0.43-0.12,1,0.37,3.1c0.5,2.1,1.14,3.68,2.82,3.64c1.68-0.04,1.87-0.63,3.15,0
				s1.27,0.63,1.27,0.63s-0.4-1.81-1.1-4.3c-0.7-2.49-3.53-3.02-4.67-3.06C44.46,80.89,43.76,80.91,43.76,80.91z"/>
			<path class="st6" d="M43.45,79.78c0,0,0.82-1.23,0.33-3.21c-0.49-1.97-0.06-4.38,2.02-4.91s3.07-1.49,3.07-1.49
				s-0.31,0.03,0.26,1.72c0.57,1.68,0.01,4.42-1.53,5.54S43.45,79.78,43.45,79.78z"/>
			<path class="st7" d="M37.8,68.61c0,0,3.19,1.9,5.1,2.24c1.92,0.34,3,0.3,3.97-1.02c0.97-1.32,1.86-1.94,1.86-1.94
				s-2.49-0.89-3.23-1.7c-0.73-0.81-2.74-1.41-3.65-0.64S37.8,68.61,37.8,68.61z"/>
			<path class="st8" d="M50.55,69.61c-0.03,0.01-0.28,1.69-0.04,3.55s0.5,2.84,1.58,3.32c1.08,0.48,2.15,0.72,3.33,0.96
				c1.18,0.24,1.62,0.2,1.82,0.59c0.2,0.39-0.5-0.43-0.51-2.55c-0.01-2.12,0.3-3.21-0.57-3.88s-2.06-0.33-3.19-0.76
				C51.85,70.41,50.55,69.61,50.55,69.61z"/>
		</g>
		<g>
			<path class="st2" d="M30.61,48.49c0.49,1.46,1.88,3.93,2.86,5.68"/>
			<path class="st2" d="M27.29,51.59c2.19,0.18,5.22,1.18,7.04,2.7"/>
			<path class="st2" d="M27.8,55.62c1.89-1.75,3.34-3.54,5.55-1.79"/>
			<path class="st2" d="M37.99,57.1c2.9,1.09,5.86,2.82,7.37,4.66"/>
			<path class="st2" d="M42.25,53.89c0.67,3.14,2.94,7.57,3.35,8.5"/>
			<path class="st2" d="M39.9,60.97c1.64-1.13,2.4-2.32,5.11,0.14"/>
			<path class="st3" d="M32.91,44.63c0.55,1.12,1.22,1.18-0.1,3.86c-1.32,2.68-1.32,2.68-1.32,2.68s-0.53-0.33-1.14-0.7
				s-3.07-1.49-2.81-3.75c0.26-2.26,0.68-3.58,0.88-3.98c0.2-0.4,0.59-1.89,0.71-2.26"/>
			<path class="st4" d="M18.93,48.27c1.61,0.16,3.27-1.76,5.37-1.08c2.11,0.68,4.02,3.39,4.7,4.13s1.27,0.15-0.35,0.68
				c-1.63,0.53-1.55,1.11-3.07,1.21s-4.14-1.42-4.54-2.26S18.93,48.27,18.93,48.27z"/>
			<path class="st5" d="M29.91,53.62c-0.43,0.13-1.01-0.07-3.08,0.53c-2.07,0.6-3.62,1.32-3.5,3c0.12,1.68,0.73,1.84,0.16,3.14
				s-0.57,1.3-0.57,1.3s1.79-0.49,4.24-1.31s2.84-3.68,2.82-4.82C29.96,54.32,29.91,53.62,29.91,53.62z"/>
			<path class="st6" d="M31.02,53.26c0,0,1.27,0.76,3.22,0.17c1.95-0.59,4.37-0.28,5,1.77c0.63,2.06,1.65,2.99,1.65,2.99
				s-0.05-0.31-1.7,0.35s-4.41,0.23-5.61-1.25S31.02,53.26,31.02,53.26z"/>
			<path class="st7" d="M41.9,47.06c0,0-1.73,3.28-1.98,5.21c-0.25,1.93-0.15,3.01,1.22,3.91c1.36,0.9,2.03,1.76,2.03,1.76
				s0.77-2.53,1.54-3.31c0.78-0.77,1.27-2.81,0.46-3.67C44.35,50.09,41.9,47.06,41.9,47.06z"/>
			<path class="st8" d="M41.54,59.84c-0.01-0.03-1.7-0.19-3.55,0.14c-1.85,0.33-2.81,0.64-3.24,1.75s-0.61,2.19-0.79,3.37
				c-0.18,1.19-0.11,1.63-0.49,1.85c-0.38,0.22,0.41-0.52,2.52-0.63c2.12-0.11,3.22,0.13,3.84-0.76c0.62-0.89,0.23-2.07,0.6-3.23
				S41.54,59.84,41.54,59.84z"/>
		</g>
		<g>
			<path class="st2" d="M54.81,85.52c0.82-1.31,1.85-3.94,2.58-5.81"/>
			<path class="st2" d="M59.31,86.13c-1.24-1.81-2.4-4.79-2.37-7.16"/>
			<path class="st2" d="M62.11,83.18c-2.55-0.35-4.86-0.34-4.9-3.15"/>
			<path class="st2" d="M56.8,74.36c-0.99-2.93-1.54-6.32-1.06-8.66"/>
			<path class="st2" d="M51.61,73.09c2-2.51,3.99-7.07,4.45-7.98"/>
			<path class="st2" d="M58.58,70.43c-1.91-0.55-3.31-0.38-3.13-4.04"/>
			<path class="st3" d="M50.37,86.19c0.52-1.13,0.14-1.69,3.05-2.37s2.91-0.68,2.91-0.68s0.08,0.62,0.18,1.33
				c0.1,0.71,0.79,3.32-1.12,4.55c-1.92,1.23-3.2,1.75-3.64,1.85c-0.44,0.1-1.84,0.75-2.2,0.89"/>
			<path class="st4" d="M62.04,94.7c-0.9-1.35-3.43-1.42-4.24-3.48s0.07-5.25,0.21-6.25c0.14-0.99-0.69-1.08,0.75-0.16
				c1.44,0.92,1.84,0.49,2.88,1.61c1.04,1.12,1.53,4.1,1.13,4.94C62.39,92.21,62.04,94.7,62.04,94.7z"/>
			<path class="st5" d="M59.23,82.81c0.37,0.25,0.59,0.83,2.36,2.05c1.77,1.22,3.32,1.96,4.54,0.81c1.22-1.16,0.96-1.73,2.33-2.11
				c1.37-0.39,1.37-0.39,1.37-0.39s-1.51-1.07-3.7-2.45c-2.19-1.37-4.64,0.14-5.51,0.88S59.23,82.81,59.23,82.81z"/>
			<path class="st6" d="M58.24,82.19c0,0-0.22-1.46-1.91-2.6s-2.99-3.2-1.8-4.99s1.27-3.17,1.27-3.17s-0.21,0.23,1.35,1.1
				c1.55,0.87,2.97,3.27,2.59,5.13C59.35,79.51,58.24,82.19,58.24,82.19z"/>
			<path class="st7" d="M46.55,77.7c0,0,3.63-0.74,5.29-1.77c1.65-1.04,2.42-1.8,2.25-3.42s0.08-2.68,0.08-2.68
				s-2.45,1.01-3.54,0.91c-1.09-0.11-2.98,0.8-3.13,1.97C47.34,73.88,46.55,77.7,46.55,77.7z"/>
			<path class="st8" d="M56.67,69.88c-0.02,0.03,0.93,1.44,2.36,2.66s2.27,1.77,3.4,1.4c1.13-0.37,2.08-0.91,3.11-1.52
				c1.03-0.61,1.33-0.94,1.75-0.79c0.41,0.15-0.66,0.02-2.09-1.55c-1.43-1.56-1.94-2.58-3.02-2.49c-1.08,0.09-1.75,1.14-2.88,1.58
				S56.67,69.88,56.67,69.88z"/>
		</g>
		<g>
			<path class="st2" d="M67.84,33.69c-1.52,0.26-4.17,1.25-6.05,1.95"/>
			<path class="st2" d="M65.3,29.93c-0.52,2.13-1.98,4.98-3.76,6.54"/>
			<path class="st2" d="M61.23,29.8c1.43,2.13,2.98,3.85,0.91,5.76"/>
			<path class="st2" d="M58.19,39.63c-1.53,2.69-3.69,5.36-5.75,6.56"/>
			<path class="st2" d="M60.7,44.35c-3.2,0.17-7.93,1.73-8.91,1.99"/>
			<path class="st2" d="M54.07,40.92c0.86,1.79,1.92,2.73-0.93,5.02"/>
			<path class="st3" d="M71.3,36.55c-1.19,0.37-1.35,1.02-3.79-0.7c-2.44-1.72-2.44-1.72-2.44-1.72s0.41-0.47,0.87-1.02
				c0.46-0.55,1.95-2.8,4.14-2.2c2.2,0.61,3.43,1.23,3.8,1.49c0.37,0.26,1.78,0.87,2.13,1.05"/>
			<path class="st9" d="M69.87,22.18c-0.41,1.57,1.23,3.5,0.23,5.48s-3.97,3.44-4.81,4c-0.84,0.56-0.34,1.23-0.62-0.45
				s-0.86-1.7-0.72-3.22c0.14-1.52,2.05-3.87,2.94-4.14S69.87,22.18,69.87,22.18z"/>
			<path class="st4" d="M62.88,32.19c-0.06-0.44,0.23-0.99-0.04-3.12c-0.27-2.14-0.74-3.78-2.42-3.92
				c-1.68-0.14-1.93,0.43-3.13-0.33c-1.2-0.76-1.2-0.76-1.2-0.76s0.21,1.84,0.64,4.39c0.43,2.55,3.19,3.37,4.32,3.53
				C62.18,32.13,62.88,32.19,62.88,32.19z"/>
			<path class="st6" d="M63.06,33.34c0,0-0.95,1.14-0.67,3.15c0.28,2.02-0.4,4.36-2.53,4.67c-2.13,0.3-3.21,1.16-3.21,1.16
				s0.31,0-0.08-1.73c-0.39-1.73,0.46-4.39,2.1-5.34C60.32,34.3,63.06,33.34,63.06,33.34z"/>
			<path class="st7" d="M67.5,45.06c0,0-2.97-2.22-4.84-2.76c-1.87-0.54-2.95-0.61-4.06,0.6c-1.1,1.21-2.05,1.73-2.05,1.73
				s2.39,1.15,3.03,2.04c0.64,0.89,2.57,1.69,3.56,1.03C64.12,47.01,67.5,45.06,67.5,45.06z"/>
			<path class="st8" d="M54.92,42.71c0.03-0.01,0.46-1.65,0.41-3.53c-0.04-1.88-0.2-2.87-1.22-3.47c-1.03-0.6-2.07-0.95-3.21-1.31
				c-1.15-0.36-1.59-0.37-1.75-0.78s0.45,0.48,0.23,2.59c-0.22,2.11-0.63,3.16,0.15,3.91c0.79,0.75,2.01,0.55,3.09,1.09
				C53.72,41.78,54.92,42.71,54.92,42.71z"/>
		</g>
		<g>
			<path class="st2" d="M37.96,34.66c-0.14,1.54,0.14,4.35,0.33,6.35"/>
			<path class="st2" d="M33.67,36.15c1.93,1.05,4.3,3.19,5.35,5.32"/>
			<path class="st2" d="M32.5,40.05c2.43-0.84,4.49-1.89,5.8,0.6"/>
			<path class="st2" d="M41.23,45.51c2.21,2.17,4.23,4.94,4.86,7.24"/>
			<path class="st2" d="M46.43,44.3c-0.65,3.14-0.37,8.11-0.37,9.13"/>
			<path class="st2" d="M41.41,49.83c1.95-0.37,3.13-1.16,4.61,2.19"/>
			<path class="st3" d="M41.61,32.05c0.05,1.24,0.64,1.57-1.65,3.49s-2.29,1.92-2.29,1.92s-0.35-0.52-0.76-1.1
				c-0.41-0.59-2.21-2.6-1.06-4.57c1.15-1.97,2.07-3,2.41-3.29c0.35-0.29,1.3-1.5,1.56-1.78"/>
			<path class="st9" d="M27.36,29.74c1.41,0.79,3.7-0.29,5.35,1.19c1.65,1.47,2.31,4.72,2.63,5.67s1.11,0.65-0.6,0.48
				c-1.7-0.17-1.87,0.39-3.3-0.13c-1.43-0.53-3.21-2.97-3.24-3.9C28.17,32.12,27.36,29.74,27.36,29.74z"/>
			<path class="st4" d="M35.24,39.07c-0.44-0.05-0.9-0.47-3.03-0.76s-3.85-0.25-4.41,1.33s-0.08,1.98-1.12,2.94
				c-1.04,0.96-1.04,0.96-1.04,0.96s1.83,0.27,4.41,0.51s4.08-2.22,4.52-3.27C35,39.73,35.24,39.07,35.24,39.07z"/>
			<path class="st6" d="M36.4,39.19c0,0,0.86,1.21,2.88,1.46c2.02,0.25,4.11,1.51,3.86,3.64c-0.25,2.14,0.3,3.4,0.3,3.4
				s0.08-0.3-1.7-0.37c-1.77-0.07-4.13-1.57-4.63-3.4S36.4,39.19,36.4,39.19z"/>
			<path class="st7" d="M48.86,37.91c0,0-2.91,2.3-3.91,3.97c-1.01,1.67-1.35,2.7-0.47,4.07c0.88,1.38,1.14,2.43,1.14,2.43
				s1.72-2.01,2.75-2.4c1.02-0.39,2.3-2.05,1.9-3.18C49.88,41.67,48.86,37.91,48.86,37.91z"/>
			<path class="st8" d="M43.37,49.46c0-0.03-1.47-0.86-3.3-1.31c-1.83-0.44-2.83-0.55-3.67,0.29c-0.84,0.84-1.45,1.75-2.09,2.77
				c-0.64,1.01-0.76,1.44-1.2,1.49c-0.44,0.05,0.58-0.31,2.56,0.44c1.98,0.75,2.89,1.42,3.82,0.86c0.93-0.57,1.04-1.8,1.85-2.71
				C42.15,50.38,43.37,49.46,43.37,49.46z"/>
		</g>
		<g>
			<path class="st2" d="M53.78,30.72c-1.1,1.08-2.71,3.41-3.85,5.06"/>
			<path class="st2" d="M49.54,29.09c0.79,2.05,1.23,5.21,0.66,7.52"/>
			<path class="st2" d="M46.14,31.31c2.4,0.93,4.65,1.45,4.04,4.2"/>
			<path class="st2" d="M49.27,41.12c0.29,3.08,0.04,6.5-0.96,8.67"/>
			<path class="st2" d="M54.02,43.55c-2.53,1.98-5.52,5.96-6.17,6.73"/>
			<path class="st2" d="M46.62,44.53c1.73,0.98,3.14,1.14,2.11,4.65"/>
			<path class="st3" d="M58.26,31.09c-0.76,0.98-0.52,1.61-3.51,1.6s-2.99-0.01-2.99-0.01s0.07-0.62,0.13-1.33
				c0.06-0.71-0.01-3.41,2.14-4.17c2.15-0.76,3.52-0.96,3.97-0.96c0.45,0,1.96-0.3,2.35-0.35"/>
			<path class="st9" d="M48.86,20.12c0.56,1.52,3.01,2.17,3.32,4.36c0.31,2.19-1.28,5.1-1.65,6.03c-0.37,0.93,0.43,1.21-0.77-0.02
				c-1.19-1.23-1.68-0.9-2.44-2.23c-0.76-1.33-0.54-4.34,0.04-5.07S48.86,20.12,48.86,20.12z"/>
			<path class="st4" d="M48.85,32.34c-0.3-0.32-0.38-0.94-1.82-2.54c-1.44-1.6-2.77-2.68-4.23-1.83s-1.34,1.46-2.76,1.52
				c-1.42,0.06-1.42,0.06-1.42,0.06s1.22,1.39,3.03,3.24c1.81,1.84,4.55,0.94,5.57,0.42C48.25,32.69,48.85,32.34,48.85,32.34z"/>
			<path class="st6" d="M49.67,33.17c0,0-0.13,1.48,1.26,2.97c1.38,1.49,2.17,3.81,0.6,5.27c-1.57,1.47-1.97,2.79-1.97,2.79
				s0.25-0.18-1.06-1.38c-1.31-1.2-2.14-3.87-1.33-5.59C47.97,35.52,49.67,33.17,49.67,33.17z"/>
			<path class="st7" d="M60.01,40.24c0,0-3.7-0.12-5.55,0.5c-1.85,0.63-2.77,1.19-2.98,2.81c-0.21,1.62-0.69,2.59-0.69,2.59
				s2.61-0.42,3.65-0.06c1.04,0.36,3.08-0.09,3.51-1.2C58.36,43.77,60.01,40.24,60.01,40.24z"/>
			<path class="st8" d="M48.35,45.51c0.02-0.02-0.57-1.61-1.68-3.13c-1.11-1.52-1.81-2.25-2.99-2.15c-1.18,0.1-2.24,0.41-3.38,0.76
				s-1.51,0.61-1.88,0.37c-0.37-0.24,0.65,0.14,1.68,1.99c1.03,1.85,1.29,2.96,2.37,3.12c1.07,0.17,1.96-0.7,3.16-0.87
				C46.83,45.44,48.35,45.51,48.35,45.51z"/>
		</g>
		<g>
			<path class="st2" d="M30.57,65.7c1.43,0.57,4.21,1.11,6.18,1.49"/>
			<path class="st2" d="M30.79,70.23c1.56-1.55,4.28-3.22,6.62-3.62"/>
			<path class="st2" d="M34.19,72.46c-0.11-2.57-0.54-4.84,2.22-5.39"/>
			<path class="st2" d="M41.91,65.64c2.71-1.5,5.94-2.65,8.33-2.6"/>
			<path class="st2" d="M42.22,60.31c2.83,1.52,7.67,2.65,8.65,2.94"/>
			<path class="st2" d="M46.1,66.69c0.2-1.98-0.22-3.33,3.41-3.8"/>
			<path class="st3" d="M29.11,61.45c1.21,0.3,1.69-0.17,2.88,2.57c1.19,2.74,1.19,2.74,1.19,2.74s-0.59,0.19-1.27,0.42
				c-0.68,0.23-3.12,1.38-4.68-0.28c-1.56-1.66-2.29-2.83-2.47-3.25s-1.07-1.67-1.27-2.01"/>
			<path class="st9" d="M22.84,74.46c1.16-1.13,0.78-3.63,2.66-4.79s5.18-0.87,6.19-0.91c1-0.04,0.94-0.88,0.29,0.71
				c-0.65,1.59-0.15,1.9-1.06,3.13c-0.91,1.23-3.76,2.24-4.66,2C25.35,74.36,22.84,74.46,22.84,74.46z"/>
			<path class="st4" d="M34.03,69.56c-0.17,0.41-0.71,0.72-1.59,2.69c-0.88,1.97-1.34,3.62,0.02,4.61s1.87,0.64,2.5,1.91
				c0.63,1.28,0.63,1.28,0.63,1.28s0.78-1.68,1.74-4.08s-0.97-4.54-1.85-5.27C34.6,69.97,34.03,69.56,34.03,69.56z"/>
			<path class="st6" d="M34.47,68.47c0,0,1.4-0.48,2.21-2.34s2.61-3.52,4.59-2.67c1.98,0.85,3.34,0.68,3.34,0.68
				s-0.26-0.16-0.84,1.52c-0.57,1.68-2.68,3.51-4.58,3.47S34.47,68.47,34.47,68.47z"/>
			<path class="st7" d="M36.78,56.17c0,0,1.38,3.44,2.69,4.88s2.2,2.06,3.77,1.6c1.57-0.46,2.65-0.41,2.65-0.41
				s-1.44-2.22-1.53-3.32c-0.09-1.09-1.32-2.78-2.5-2.73S36.78,56.17,36.78,56.17z"/>
			<path class="st8" d="M46.3,64.71c-0.03-0.01-1.25,1.17-2.19,2.79c-0.94,1.63-1.33,2.56-0.76,3.6c0.57,1.04,1.27,1.88,2.06,2.79
				c0.79,0.91,1.17,1.14,1.09,1.58s-0.13-0.65,1.15-2.33s2.19-2.37,1.91-3.42c-0.28-1.05-1.43-1.51-2.07-2.55
				C46.84,66.14,46.3,64.71,46.3,64.71z"/>
		</g>
		<g>
			<path class="st2" d="M79.49,44.73c-1.5-0.38-4.32-0.53-6.33-0.65"/>
			<path class="st2" d="M78.67,40.26c-1.33,1.74-3.81,3.76-6.07,4.48"/>
			<path class="st2" d="M75,38.51c0.46,2.53,1.18,4.73-1.48,5.64"/>
			<path class="st2" d="M68.26,46.3c-2.48,1.85-5.53,3.42-7.9,3.7"/>
			<path class="st2" d="M68.67,51.62c-3.01-1.13-7.96-1.6-8.96-1.76"/>
			<path class="st2" d="M63.97,45.82c0.07,1.99,0.67,3.27-2.87,4.23"/>
			<path class="st3" d="M81.51,48.74c-1.24-0.14-1.65,0.39-3.2-2.16s-1.55-2.56-1.55-2.56s0.56-0.27,1.21-0.58
				c0.64-0.32,2.91-1.79,4.68-0.35c1.77,1.44,2.65,2.5,2.88,2.89c0.23,0.39,1.28,1.51,1.52,1.82"/>
			<path class="st9" d="M85.97,35c-1,1.27-0.28,3.7-1.99,5.11c-1.71,1.41-5.02,1.56-6.01,1.73s-0.81,0.99-0.38-0.66
				c0.43-1.66-0.1-1.9,0.64-3.24s3.43-2.72,4.35-2.61C83.5,35.44,85.97,35,85.97,35z"/>
			<path class="st4" d="M75.54,41.37c0.12-0.43,0.6-0.81,1.21-2.88c0.61-2.07,0.84-3.76-0.64-4.56c-1.48-0.8-1.94-0.38-2.73-1.56
				c-0.79-1.18-0.79-1.18-0.79-1.18s-0.55,1.77-1.18,4.28s1.57,4.37,2.54,4.97C74.92,41.03,75.54,41.37,75.54,41.37z"/>
			<path class="st6" d="M75.25,42.5c0,0-1.32,0.66-1.88,2.62c-0.55,1.96-2.12,3.84-4.19,3.26s-3.4-0.22-3.4-0.22
				s0.28,0.12,0.62-1.62c0.34-1.74,2.19-3.84,4.07-4.05S75.25,42.5,75.25,42.5z"/>
			<path class="st7" d="M74.61,55c0,0-1.83-3.23-3.32-4.48c-1.5-1.25-2.46-1.74-3.95-1.08c-1.5,0.66-2.57,0.76-2.57,0.76
				s1.72,2.01,1.96,3.08c0.23,1.07,1.68,2.58,2.85,2.37C70.74,55.44,74.61,55,74.61,55z"/>
			<path class="st8" d="M64.04,47.81c0.03,0.01,1.08-1.33,1.8-3.06s0.98-2.71,0.27-3.67c-0.7-0.96-1.51-1.7-2.41-2.49
				c-0.9-0.79-1.31-0.97-1.29-1.41c0.02-0.44,0.22,0.62-0.82,2.47s-1.85,2.64-1.43,3.65s1.62,1.31,2.39,2.24
				C63.31,46.47,64.04,47.81,64.04,47.81z"/>
		</g>
		<g>
			<path class="st2" d="M80.52,60.58c-1.02-1.16-3.26-2.88-4.85-4.11"/>
			<path class="st2" d="M82.36,56.43c-2.09,0.68-5.27,0.95-7.54,0.26"/>
			<path class="st2" d="M80.33,52.91c-1.05,2.34-1.7,4.57-4.41,3.82"/>
			<path class="st2" d="M70.37,55.53c-3.1,0.12-6.5-0.3-8.61-1.42"/>
			<path class="st2" d="M67.69,60.15c-1.84-2.63-5.66-5.82-6.4-6.52"/>
			<path class="st2" d="M67.1,52.71c-1.07,1.68-1.3,3.07-4.76,1.86"/>
			<path class="st3" d="M79.91,65.03c-0.94-0.81-1.58-0.61-1.41-3.59c0.17-2.98,0.17-2.98,0.17-2.98s0.62,0.1,1.33,0.2
				c0.71,0.1,3.41,0.17,4.05,2.36c0.64,2.19,0.77,3.56,0.75,4.01c-0.03,0.45,0.2,1.97,0.23,2.36"/>
			<path class="st9" d="M91.36,56.22c-1.54,0.48-2.32,2.89-4.53,3.09c-2.21,0.19-5.02-1.55-5.94-1.97
				c-0.91-0.42-1.23,0.36,0.06-0.76c1.29-1.13,0.99-1.63,2.36-2.31c1.37-0.68,4.37-0.31,5.06,0.31S91.36,56.22,91.36,56.22z"/>
			<path class="st4" d="M79.16,55.57c0.34-0.29,0.96-0.33,2.63-1.69c1.67-1.36,2.82-2.63,2.05-4.13c-0.77-1.5-1.39-1.41-1.37-2.83
				c0.01-1.42,0.01-1.42,0.01-1.42s-1.46,1.15-3.39,2.86c-1.93,1.71-1.18,4.49-0.71,5.54C78.84,54.95,79.16,55.57,79.16,55.57z"/>
			<path class="st6" d="M78.28,56.34c0,0-1.47-0.2-3.03,1.1c-1.56,1.3-3.92,1.97-5.3,0.32c-1.38-1.65-2.68-2.11-2.68-2.11
				s0.16,0.26,1.43-0.98s3.97-1.93,5.65-1.04C76.02,54.52,78.28,56.34,78.28,56.34z"/>
			<path class="st7" d="M70.68,66.3c0,0,0.32-3.69-0.21-5.57c-0.53-1.88-1.04-2.83-2.65-3.13s-2.55-0.83-2.55-0.83
				s0.28,2.63-0.13,3.65c-0.41,1.02-0.07,3.08,1.01,3.56S70.68,66.3,70.68,66.3z"/>
			<path class="st8" d="M66.03,54.38c0.02,0.02,1.64-0.48,3.21-1.51c1.57-1.03,2.34-1.68,2.3-2.87s-0.29-2.25-0.59-3.42
				c-0.3-1.16-0.53-1.54-0.27-1.9c0.26-0.35-0.17,0.64-2.08,1.57c-1.9,0.93-3.02,1.13-3.24,2.2c-0.22,1.06,0.6,2,0.71,3.2
				C66.18,52.87,66.03,54.38,66.03,54.38z"/>
		</g>
		<g>
			<g>
				<path class="st10" d="M54.9,63.75c-0.04-1.54-0.65-4.31-1.07-6.27"/>
				<path class="st10" d="M58.98,61.76c-2.04-0.82-4.65-2.66-5.94-4.65"/>
				<path class="st10" d="M59.68,57.76c-2.31,1.12-4.24,2.41-5.83,0.09"/>
				<path class="st10" d="M50.37,53.35c-2.45-1.9-4.78-4.41-5.68-6.62"/>
				<path class="st10" d="M45.35,55.17c0.28-3.2-0.59-8.1-0.71-9.1"/>
				<path class="st10" d="M49.68,49.09c-1.9,0.6-2.97,1.52-4.84-1.63"/>
				<g>
					<path class="st10" d="M51.57,66.77c-0.2-1.23-0.82-1.48,1.23-3.66c2.05-2.18,2.05-2.18,2.05-2.18s0.41,0.47,0.88,1.01
						c0.48,0.53,2.5,2.33,1.59,4.41c-0.91,2.09-1.7,3.22-2.01,3.55s-1.12,1.64-1.34,1.96"/>
				</g>
				<g>
					<path class="st10" d="M66,67.39c-1.49-0.62-3.64,0.72-5.45-0.55s-2.85-4.42-3.28-5.32c-0.43-0.91-1.17-0.51,0.54-0.55
						c1.71-0.03,1.81-0.61,3.29-0.26c1.49,0.35,3.54,2.57,3.68,3.49C64.92,65.12,66,67.39,66,67.39z"/>
				</g>
				<g>
					<path class="st10" d="M57.08,59.04c0.45,0,0.94,0.36,3.1,0.4c2.15,0.03,3.85-0.2,4.23-1.84s-0.15-1.97,0.77-3.05
						s0.92-1.08,0.92-1.08s-1.85-0.06-4.44,0.01c-2.58,0.07-3.79,2.68-4.11,3.78C57.23,58.36,57.08,59.04,57.08,59.04z"/>
				</g>
				<g>
					<path class="st10" d="M55.91,59.07c0,0-0.99-1.1-3.03-1.11c-2.03-0.01-4.26-1.01-4.26-3.16c0-2.15-0.7-3.34-0.7-3.34
						s-0.04,0.31,1.73,0.17c1.77-0.14,4.28,1.08,4.99,2.84C55.35,56.22,55.91,59.07,55.91,59.07z"/>
				</g>
				<g>
					<path class="st10" d="M43.69,61.8c0,0,2.62-2.62,3.42-4.4c0.8-1.78,1.02-2.84-0.02-4.1c-1.04-1.26-1.42-2.28-1.42-2.28
						s-1.48,2.2-2.44,2.71c-0.97,0.51-2.04,2.31-1.52,3.38C42.23,58.18,43.69,61.8,43.69,61.8z"/>
				</g>
				<g>
					<path class="st10" d="M47.78,49.69c0,0.03,1.57,0.68,3.43,0.91s2.87,0.21,3.61-0.72c0.73-0.93,1.23-1.91,1.75-2.99
						c0.52-1.08,0.59-1.52,1.02-1.63c0.43-0.1-0.54,0.38-2.6-0.13s-3.04-1.07-3.9-0.4s-0.83,1.91-1.52,2.91
						C48.88,48.63,47.78,49.69,47.78,49.69z"/>
				</g>
			</g>
		</g>
	</g>
	<g>
		<path class="st11" d="M46.61,85.11c1.43,2.85,5.35,3.5,6.38,3.39c1.02-0.11,4.65-1.24,5.06-3.85c0.17-1.09,0.09-2.21-0.09-3.23
			c-0.07,0.28-0.13,0.54-0.18,0.76c-0.19,0.74-0.35,2.21-1.02,2.96c-0.67,0.75-1.86,1.02-3.23,1.43c-1.37,0.4-1.75-0.19-3.26-0.7
			c-1.51-0.51-2.23-1.75-2.99-3.01c-0.37-0.61-0.55-1.52-0.64-2.49C46.03,81.67,45.73,83.34,46.61,85.11z"/>
		<path class="st12" d="M57.02,77.95c-0.34-1.08-0.6-3.79-1.7-4.83c-0.04,0.61-0.82,1.09-1.79,1.09c-0.93,0-1.7-0.46-1.78-1.04
			c-0.56,0.25-1.03,0.65-1.33,1.28c-0.7,1.48-1.43,2.72-2.5,3.96c-0.41,0.47-0.91,1.14-1.28,1.95c0.09,0.97,0.27,1.88,0.64,2.49
			c0.75,1.26,1.48,2.5,2.99,3.01c1.51,0.51,1.88,1.1,3.26,0.7c1.37-0.4,2.56-0.67,3.23-1.43c0.67-0.75,0.84-2.22,1.02-2.96
			c0.05-0.21,0.12-0.48,0.18-0.76C57.71,80,57.27,78.74,57.02,77.95z"/>
		<path class="st13" d="M53.54,74.21c0.96,0,1.74-0.48,1.79-1.09c-0.18-0.17-0.39-0.3-0.63-0.37c-0.14-0.04-0.28-0.06-0.44-0.05
			c-0.75,0.04-1.55,0.11-2.25,0.37c-0.08,0.03-0.17,0.06-0.25,0.1C51.84,73.75,52.61,74.21,53.54,74.21z"/>
	</g>
	<g>
		<path class="st11" d="M27.76,70c-0.97,3.04,1.39,6.24,2.2,6.88c0.81,0.64,4.2,2.36,6.31,0.77c0.88-0.67,1.61-1.52,2.19-2.37
			c-0.24,0.15-0.47,0.3-0.66,0.41c-0.65,0.4-1.79,1.34-2.8,1.41c-1.01,0.07-2.04-0.56-3.31-1.23c-1.26-0.67-1.12-1.36-1.84-2.77
			c-0.72-1.42-0.38-2.81-0.04-4.24c0.17-0.7,0.67-1.47,1.28-2.23C29.75,67.13,28.36,68.12,27.76,70z"/>
		<path class="st12" d="M40.22,72.14c0.51-1.01,2.22-3.14,2.15-4.65c-0.45,0.41-1.35,0.21-2.04-0.46c-0.67-0.65-0.9-1.51-0.55-1.98
			c-0.58-0.21-1.19-0.25-1.84-0.01c-1.53,0.57-2.92,0.95-4.55,1.09c-0.62,0.05-1.45,0.19-2.28,0.5c-0.61,0.76-1.12,1.53-1.28,2.23
			c-0.34,1.43-0.69,2.83,0.04,4.24c0.72,1.42,0.58,2.1,1.84,2.77c1.26,0.67,2.3,1.3,3.31,1.23c1.01-0.07,2.15-1.01,2.8-1.41
			c0.19-0.11,0.42-0.26,0.66-0.41C39.28,74.09,39.84,72.88,40.22,72.14z"/>
		<path class="st13" d="M40.33,67.03c0.69,0.67,1.59,0.87,2.04,0.46c-0.01-0.25-0.07-0.49-0.19-0.7c-0.07-0.12-0.16-0.24-0.28-0.34
			c-0.56-0.49-1.19-1-1.87-1.3c-0.08-0.04-0.16-0.07-0.25-0.1C39.43,65.52,39.66,66.38,40.33,67.03z"/>
	</g>
	<g>
		<path class="st11" d="M23.78,45.4c-2.47,2.02-2.23,6-1.89,6.97c0.33,0.97,2.24,4.27,4.87,4.08c1.1-0.08,2.17-0.4,3.13-0.8
			c-0.28,0-0.56-0.01-0.78-0.01c-0.76-0.02-2.23,0.15-3.11-0.34c-0.88-0.49-1.41-1.58-2.11-2.83c-0.7-1.25-0.2-1.75-0.04-3.33
			c0.17-1.58,1.21-2.57,2.28-3.58c0.52-0.49,1.36-0.87,2.29-1.17C27,44.07,25.3,44.15,23.78,45.4z"/>
		<path class="st12" d="M33.06,53.97c0.98-0.57,3.57-1.42,4.34-2.73c-0.6,0.09-1.25-0.56-1.46-1.5c-0.21-0.91,0.07-1.75,0.62-1.97
			c-0.37-0.49-0.86-0.86-1.54-1.01c-1.6-0.35-2.97-0.79-4.41-1.56c-0.55-0.3-1.31-0.63-2.18-0.82c-0.93,0.3-1.77,0.68-2.29,1.17
			c-1.07,1.01-2.11,2-2.28,3.58c-0.17,1.58-0.66,2.08,0.04,3.33c0.7,1.25,1.22,2.34,2.11,2.83c0.88,0.49,2.35,0.32,3.11,0.34
			c0.22,0.01,0.49,0.01,0.78,0.01C31.22,55.09,32.34,54.39,33.06,53.97z"/>
		<path class="st13" d="M35.94,49.74c0.21,0.94,0.86,1.59,1.46,1.5c0.13-0.22,0.21-0.45,0.22-0.7c0.01-0.14-0.01-0.29-0.05-0.44
			c-0.2-0.72-0.45-1.49-0.86-2.11c-0.05-0.07-0.1-0.15-0.15-0.22C36.01,47.99,35.73,48.83,35.94,49.74z"/>
	</g>
	<g>
		<path class="st11" d="M44.31,25.2c-2.9-1.32-6.36,0.65-7.09,1.37c-0.73,0.73-2.84,3.89-1.51,6.17c0.56,0.96,1.32,1.77,2.1,2.46
			c-0.12-0.26-0.24-0.5-0.33-0.7c-0.32-0.69-1.12-1.94-1.07-2.94c0.05-1.01,0.8-1.96,1.61-3.14c0.81-1.18,1.48-0.95,2.97-1.5
			c1.49-0.55,2.84-0.04,4.22,0.47c0.67,0.25,1.38,0.84,2.06,1.54C46.92,27.51,46.1,26.02,44.31,25.2z"/>
		<path class="st12" d="M40.71,37.31c0.95,0.63,2.85,2.57,4.36,2.69c-0.35-0.5-0.05-1.37,0.7-1.97c0.72-0.59,1.6-0.71,2.04-0.31
			c0.27-0.55,0.39-1.15,0.23-1.83c-0.39-1.59-0.6-3.01-0.54-4.65c0.02-0.62-0.01-1.46-0.23-2.32c-0.68-0.7-1.39-1.29-2.06-1.54
			c-1.38-0.51-2.72-1.02-4.22-0.47c-1.49,0.55-2.16,0.33-2.97,1.5c-0.81,1.18-1.56,2.13-1.61,3.14c-0.05,1.01,0.75,2.25,1.07,2.94
			c0.09,0.2,0.21,0.45,0.33,0.7C38.88,36.15,40.01,36.85,40.71,37.31z"/>
		<path class="st13" d="M45.77,38.03c-0.75,0.6-1.05,1.47-0.7,1.97c0.25,0.02,0.5-0.01,0.72-0.11c0.13-0.06,0.26-0.14,0.37-0.24
			c0.56-0.5,1.14-1.06,1.52-1.7c0.05-0.08,0.09-0.15,0.13-0.23C47.38,37.32,46.49,37.44,45.77,38.03z"/>
	</g>
	<g>
		<path class="st11" d="M73.46,36.06c0.77-3.09-1.79-6.14-2.64-6.72c-0.85-0.58-4.34-2.09-6.34-0.37c-0.84,0.72-1.51,1.62-2.04,2.51
			c0.23-0.17,0.45-0.33,0.63-0.46c0.62-0.44,1.7-1.45,2.7-1.58c1-0.13,2.08,0.43,3.38,1.02c1.3,0.59,1.21,1.28,2.02,2.65
			c0.81,1.37,0.56,2.78,0.31,4.23c-0.12,0.7-0.57,1.51-1.14,2.31C71.66,39.04,72.98,37.97,73.46,36.06z"/>
		<path class="st12" d="M60.9,34.71c-0.45,1.04-2.01,3.27-1.85,4.77c0.43-0.43,1.34-0.29,2.07,0.33c0.71,0.61,0.99,1.45,0.68,1.95
			c0.59,0.17,1.2,0.18,1.84-0.11c1.49-0.67,2.85-1.14,4.47-1.37c0.62-0.09,1.43-0.28,2.24-0.64c0.56-0.8,1.02-1.6,1.14-2.31
			c0.25-1.45,0.5-2.86-0.31-4.23c-0.81-1.37-0.71-2.06-2.02-2.65c-1.3-0.59-2.38-1.15-3.38-1.02c-1,0.13-2.08,1.14-2.7,1.58
			c-0.18,0.13-0.4,0.29-0.63,0.46C61.71,32.71,61.23,33.95,60.9,34.71z"/>
		<path class="st13" d="M61.11,39.82c-0.73-0.63-1.64-0.77-2.07-0.33c0.03,0.25,0.1,0.49,0.24,0.69c0.08,0.12,0.18,0.23,0.3,0.32
			c0.59,0.46,1.25,0.92,1.95,1.18c0.08,0.03,0.17,0.06,0.25,0.08C62.1,41.27,61.82,40.43,61.11,39.82z"/>
	</g>
	<g>
		<path class="st11" d="M81.67,63.78c3.17,0.37,5.86-2.56,6.33-3.47c0.47-0.91,1.52-4.57-0.44-6.34c-0.82-0.74-1.79-1.29-2.75-1.7
			c0.19,0.21,0.38,0.41,0.53,0.57c0.52,0.56,1.65,1.5,1.91,2.48c0.26,0.98-0.16,2.11-0.58,3.48c-0.42,1.37-1.12,1.36-2.37,2.34
			c-1.25,0.98-2.69,0.91-4.16,0.84c-0.71-0.03-1.57-0.38-2.43-0.83C78.48,62.37,79.71,63.55,81.67,63.78z"/>
		<path class="st12" d="M81.41,51.15c-1.09-0.31-3.5-1.58-4.97-1.23c0.48,0.37,0.46,1.29-0.07,2.09c-0.51,0.78-1.31,1.17-1.84,0.92
			c-0.09,0.6-0.02,1.22,0.34,1.81c0.85,1.4,1.49,2.68,1.93,4.26c0.17,0.6,0.46,1.38,0.92,2.14c0.86,0.46,1.72,0.8,2.43,0.83
			c1.47,0.06,2.9,0.14,4.16-0.84c1.25-0.98,1.96-0.97,2.37-2.34c0.42-1.37,0.84-2.51,0.58-3.48c-0.26-0.98-1.4-1.92-1.91-2.48
			c-0.15-0.16-0.34-0.36-0.53-0.57C83.5,51.69,82.21,51.37,81.41,51.15z"/>
		<path class="st13" d="M76.37,52c0.53-0.8,0.55-1.72,0.07-2.09c-0.25,0.06-0.47,0.16-0.65,0.32c-0.11,0.09-0.2,0.21-0.28,0.34
			c-0.38,0.65-0.76,1.36-0.93,2.08c-0.02,0.09-0.04,0.17-0.05,0.26C75.06,53.17,75.86,52.78,76.37,52z"/>
	</g>
	<g>
		<path class="st11" d="M70.13,82.39c2.93,1.25,6.35-0.8,7.05-1.55c0.71-0.74,2.75-3.96,1.36-6.21c-0.58-0.94-1.36-1.74-2.16-2.41
			c0.13,0.25,0.25,0.5,0.35,0.7c0.34,0.68,1.16,1.91,1.14,2.92c-0.02,1.01-0.75,1.98-1.54,3.18c-0.78,1.2-1.45,0.99-2.93,1.58
			c-1.48,0.59-2.83,0.11-4.23-0.36c-0.68-0.23-1.4-0.8-2.1-1.49C67.46,80.15,68.31,81.62,70.13,82.39z"/>
		<path class="st12" d="M73.43,70.2c-0.96-0.61-2.91-2.5-4.42-2.58c0.36,0.49,0.08,1.37-0.65,1.99c-0.71,0.6-1.59,0.75-2.03,0.36
			c-0.26,0.55-0.36,1.16-0.18,1.83c0.43,1.58,0.67,2.99,0.65,4.63c-0.01,0.62,0.05,1.46,0.28,2.32c0.7,0.68,1.42,1.25,2.1,1.49
			c1.39,0.48,2.75,0.95,4.23,0.36c1.48-0.59,2.15-0.38,2.93-1.58c0.78-1.2,1.51-2.17,1.54-3.18c0.02-1.01-0.8-2.23-1.14-2.92
			c-0.1-0.2-0.22-0.44-0.35-0.7C75.28,71.31,74.14,70.64,73.43,70.2z"/>
		<path class="st13" d="M68.35,69.6c0.73-0.62,1.01-1.5,0.65-1.99c-0.25-0.01-0.5,0.02-0.72,0.13c-0.13,0.06-0.25,0.14-0.37,0.25
			c-0.54,0.51-1.11,1.09-1.47,1.74c-0.04,0.08-0.08,0.16-0.12,0.24C66.77,70.35,67.64,70.2,68.35,69.6z"/>
	</g>
	<g>
		<path class="st11" d="M55.82,63.27c1.43,2.85,5.35,3.5,6.38,3.39c1.02-0.11,4.65-1.24,5.06-3.85c0.17-1.09,0.09-2.21-0.09-3.23
			c-0.07,0.28-0.13,0.54-0.18,0.76c-0.19,0.74-0.35,2.21-1.02,2.96c-0.67,0.75-1.86,1.02-3.23,1.43c-1.37,0.4-1.75-0.19-3.26-0.7
			c-1.51-0.51-2.23-1.75-2.99-3.01c-0.37-0.61-0.55-1.52-0.64-2.49C55.24,59.83,54.94,61.5,55.82,63.27z"/>
		<path class="st12" d="M66.23,56.11c-0.34-1.08-0.6-3.79-1.7-4.83c-0.04,0.61-0.82,1.09-1.79,1.09c-0.93,0-1.7-0.46-1.78-1.04
			c-0.56,0.25-1.03,0.65-1.33,1.28c-0.7,1.48-1.43,2.72-2.5,3.96c-0.41,0.47-0.91,1.14-1.28,1.95c0.09,0.97,0.27,1.88,0.64,2.49
			c0.75,1.26,1.48,2.5,2.99,3.01c1.51,0.51,1.88,1.1,3.26,0.7c1.37-0.4,2.56-0.67,3.23-1.43c0.67-0.75,0.84-2.22,1.02-2.96
			c0.05-0.21,0.12-0.48,0.18-0.76C66.92,58.16,66.48,56.91,66.23,56.11z"/>
		<path class="st13" d="M62.75,52.37c0.96,0,1.74-0.48,1.79-1.09c-0.18-0.17-0.39-0.3-0.63-0.37c-0.14-0.04-0.28-0.06-0.44-0.05
			c-0.75,0.04-1.55,0.11-2.25,0.37c-0.08,0.03-0.17,0.06-0.25,0.1C61.05,51.92,61.82,52.37,62.75,52.37z"/>
	</g>
	<g>
		<path class="st11" d="M40.49,53.45c0.02,3.19,3.26,5.5,4.22,5.86c0.96,0.36,4.72,0.95,6.24-1.22c0.64-0.91,1.06-1.94,1.35-2.94
			c-0.18,0.22-0.36,0.43-0.5,0.6c-0.49,0.58-1.29,1.82-2.23,2.2c-0.94,0.38-2.12,0.1-3.53-0.15c-1.41-0.24-1.49-0.94-2.61-2.07
			c-1.13-1.12-1.23-2.56-1.35-4.02c-0.06-0.71,0.18-1.61,0.53-2.52C41.49,50.11,40.48,51.48,40.49,53.45z"/>
		<path class="st12" d="M53,51.64c0.17-1.12,1.14-3.67,0.61-5.09c-0.31,0.53-1.22,0.62-2.08,0.19c-0.84-0.41-1.32-1.16-1.14-1.72
			c-0.61-0.02-1.21,0.13-1.76,0.56c-1.28,1.02-2.48,1.81-3.99,2.44c-0.58,0.24-1.32,0.62-2.01,1.18c-0.35,0.91-0.59,1.8-0.53,2.52
			c0.12,1.47,0.22,2.9,1.35,4.02c1.13,1.12,1.2,1.82,2.61,2.07c1.41,0.24,2.59,0.53,3.53,0.15c0.94-0.38,1.73-1.62,2.23-2.2
			c0.14-0.17,0.32-0.38,0.5-0.6C52.71,53.78,52.87,52.46,53,51.64z"/>
		<path class="st13" d="M51.52,46.74c0.86,0.42,1.78,0.34,2.08-0.19c-0.09-0.24-0.22-0.45-0.4-0.61c-0.11-0.09-0.23-0.18-0.38-0.24
			c-0.69-0.3-1.44-0.59-2.18-0.66c-0.09-0.01-0.18-0.02-0.27-0.02C50.2,45.58,50.69,46.33,51.52,46.74z"/>
	</g>
</g>
</svg>
