<?xml version="1.0" encoding="utf-8"?>
<svg version="1.1" id="Layer_1" x="0px" y="0px" viewBox="0 0 108 108" style="enable-background:new 0 0 108 108;" xmlns="http://www.w3.org/2000/svg">
  <style type="text/css">
	.st0{fill-rule:evenodd;clip-rule:evenodd;fill:#698E3C;}
	.st1{fill:none;stroke:#718537;stroke-width:1.0129;stroke-miterlimit:10;}
	.st2{fill:#7AB242;}
	.st3{fill:#4F9844;}
	.st4{fill:#6B9F41;}
	.st5{fill:#78B354;}
	.st6{fill:#68AD44;}
	.st7{fill:#F26F24;}
	.st8{fill:#D96627;}
	.st9{fill:#9F8B34;}
</style>
  <g>
    <path class="st0" d="M 77.46 76.88 C 77.37 76.84 77.36 76.8 77.32 76.75 C 77.32 76.75 77.32 76.75 77.34 76.77 C 77.37 76.83 77.45 76.85 77.46 76.88 C 80.94 79.37 87.49 72.97 81.19 70.45 C 80.89 70.49 80.52 70.37 80.23 70.14 C 80.57 70.25 80.85 70.35 81.18 70.45 C 81.76 70.47 82.32 70.14 82.7 69.72 C 83.83 69.85 85.2 68.86 83.97 67.19 C 85.58 67.5 85.52 65.85 84.89 64.95 C 87.75 64.7 89.75 62.82 90.16 60.14 C 90.66 57.13 89.17 52.74 85.89 52.01 C 85.82 51.9 85.81 51.82 85.78 51.76 C 87.65 51.43 88.47 49.96 86.98 48.44 C 88.91 47.98 88.58 44.87 85.27 46.73 C 88.43 45.96 88.28 41.46 86.2 40.34 C 86.2 39.4 86.04 38.52 85.64 37.77 C 84.75 35.95 82.68 34.78 80.51 34.68 C 80.61 32.71 78.6 31.36 76.76 31.96 C 76.2 31.02 75.36 30.25 74.4 29.87 C 75.13 27.45 71.24 25.4 69.61 28.2 C 69.72 26.99 68.95 26.22 68.02 25.92 C 67.41 24.52 66.08 24.41 64.82 24.88 C 64.66 24.77 64.47 24.73 64.29 24.63 C 64.02 22.06 62.25 19.78 60.02 19.18 C 57.29 18.39 53.88 20.22 52.93 23.13 C 52.64 23.11 52.37 23.05 52.12 23.11 C 49.82 20.23 42.66 21.63 45.8 26.91 C 46 27.08 46.15 27.35 46.28 27.6 C 46.28 27.6 46.28 27.6 46.3 27.62 C 46.12 27.35 45.96 27.16 45.8 26.91 C 44.55 25.93 42.16 26.97 42.67 28.58 C 41.75 28.64 40.89 29 40.31 29.6 C 37.76 27.36 34.59 27.57 32.39 29.66 C 29.94 32 28.3 37.22 31.72 39.61 C 29.77 37.77 27.52 38.38 27.84 40.91 C 25.99 40.1 24.4 42.79 28.15 43.29 C 24.3 41.64 20.97 48.22 25.34 49.22 C 22.08 49.55 22.48 54.46 25.69 54.94 C 23.34 56.01 23.6 58.6 25.11 59.75 C 24.91 60.46 25.11 61.23 26.44 61.63 C 25.29 62.17 25.63 63.03 26.31 63.57 C 24.7 65.18 26.5 68.71 29.31 67.54 C 28.53 68.42 28.66 69.52 29.24 70.32 C 28.88 71.82 29.85 72.74 31.12 73.1 C 31.42 74.06 32 74.52 32.89 74.63 C 32.99 75.01 33.36 75.4 33.96 75.74 C 34.38 76.99 35.33 77.5 36.05 77.02 C 36.1 76.87 36.18 76.71 36.29 76.56 C 36.32 76.56 36.4 76.6 36.45 76.58 C 36.32 76.75 36.2 76.93 36.05 77.02 C 35.56 78.48 37.17 79.88 38.82 80.32 C 38.84 81.03 39.27 81.55 39.86 81.95 C 40.31 83.73 41.42 85.33 42.93 86 C 45.54 87.27 49.26 86.08 50.67 83.32 C 50.81 83.26 51 83.32 51.13 83.26 C 51.19 83.32 51.31 83.37 51.37 83.43 C 52.63 85.92 57.2 86.52 58.39 84.1 C 59.5 84.43 60.8 84.21 61.79 83.54 C 62.5 83.39 63.12 82.89 63.38 82.08 C 63.97 84.02 66.53 83.1 66.19 80.91 C 66.21 80.93 66.26 80.93 66.29 80.91 C 67.39 84.59 71.63 86.41 74.52 85.26 C 77.54 84.1 79.21 79.91 77.46 76.88 Z"/>
    <path class="st1" d="M 78.93 38.43 C 76.54 38.83 72.38 40.39 69.43 41.49"/>
    <path class="st1" d="M 74.93 32.53 C 74.11 35.88 71.83 40.34 69.02 42.8"/>
    <path class="st1" d="M 68.56 32.33 C 70.81 35.68 73.24 38.38 69.99 41.37"/>
    <path class="st1" d="M 63.78 47.77 C 61.38 52 57.98 56.18 54.75 58.07"/>
    <path class="st1" d="M 67.71 55.17 C 62.68 55.44 55.26 57.88 53.72 58.29"/>
    <path class="st1" d="M 57.31 49.79 C 58.66 52.61 60.33 54.07 55.84 57.67"/>
    <ellipse transform="matrix(0.177099, -0.984193, 0.984193, 0.177099, 36.043875, 95.95211)" class="st2" cx="75.4" cy="26.42" rx="8.14" ry="3.2"/>
    <ellipse transform="matrix(0.978021, -0.208505, 0.208505, 0.978021, -5.826867, 18.437799)" class="st3" cx="84.53" cy="36.84" rx="8.14" ry="3.2"/>
    <ellipse transform="matrix(0.999391, -0.0349, 0.0349, 0.999391, -1.869607, 2.599581)" class="st4" cx="73.42" cy="54.81" rx="8.14" ry="3.2"/>
    <ellipse transform="matrix(0.533195, -0.845992, 0.845992, 0.533195, -15.005791, 65.484422)" class="st5" cx="51.84" cy="46.34" rx="3.2" ry="8.14"/>
    <ellipse transform="matrix(0.559215, -0.829023, 0.829023, 0.559215, -7.089685, 73.862021)" class="st6" cx="65.92" cy="43.6" rx="8.14" ry="3.2"/>
    <ellipse transform="matrix(0.650717, -0.75932, 0.75932, 0.650717, 0.974556, 57.615189)" class="st2" cx="63.11" cy="27.75" rx="3.2" ry="8.14"/>
    <path class="st1" d="M 48.93 27.22 C 48.38 29.58 48.21 34.02 48.08 37.17"/>
    <path class="st1" d="M 41.94 28.63 C 44.71 30.68 47.95 34.51 49.12 38.05"/>
    <path class="st1" d="M 39.29 34.43 C 43.25 33.65 46.68 32.45 48.18 36.6"/>
    <path class="st1" d="M 51.68 44.81 C 54.65 48.66 57.19 53.4 57.69 57.12"/>
    <path class="st1" d="M 60.03 44.04 C 58.34 48.79 57.72 56.57 57.5 58.15"/>
    <path class="st1" d="M 51.05 51.55 C 54.17 51.4 56.17 50.42 57.76 55.95"/>
    <ellipse transform="matrix(0.543691, -0.839286, 0.839286, 0.543691, -5.032785, 42.415413)" class="st2" cx="36.49" cy="25.84" rx="3.2" ry="8.14"/>
    <ellipse transform="matrix(0.185605, -0.982625, 0.982625, 0.185605, 19.349445, 66.23042)" class="st3" cx="49.63" cy="21.44" rx="8.14" ry="3.2"/>
    <ellipse transform="matrix(0.353982, -0.935252, 0.935252, 0.353982, 3.86587, 82.850337)" class="st4" cx="61.9" cy="38.63" rx="8.14" ry="3.2"/>
    <ellipse transform="matrix(0.81871, -0.574207, 0.574207, 0.81871, -23.442853, 36.293765)" class="st5" cx="45.75" cy="55.27" rx="8.14" ry="3.2"/>
    <ellipse transform="matrix(0.836135, -0.548523, 0.548523, 0.836135, -14.638666, 33.445771)" class="st6" cx="48.66" cy="41.22" rx="3.2" ry="8.14"/>
    <ellipse transform="matrix(0.893586, -0.448893, 0.448893, 0.893586, -13.406655, 18.805704)" class="st2" cx="32.96" cy="37.68" rx="8.14" ry="3.2"/>
    <path class="st1" d="M 29.76 46.59 C 31.3 48.46 34.72 51.29 37.14 53.31"/>
    <path class="st1" d="M 26.63 53 C 29.94 52.04 34.95 51.8 38.47 53.01"/>
    <path class="st1" d="M 29.63 58.63 C 31.41 55.01 32.54 51.56 36.75 52.89"/>
    <path class="st1" d="M 45.4 55.08 C 50.26 55.06 55.58 55.92 58.83 57.78"/>
    <path class="st1" d="M 49.86 47.98 C 52.6 52.21 58.42 57.42 59.54 58.55"/>
    <path class="st1" d="M 50.38 59.68 C 52.15 57.11 52.59 54.93 57.95 57.02"/>
    <ellipse transform="matrix(0.941536, -0.336913, 0.336913, 0.941536, -17.513266, 10.362482)" class="st2" cx="21.11" cy="55.64" rx="8.14" ry="3.2"/>
    <ellipse transform="matrix(0.74399, -0.668191, 0.668191, 0.74399, -21.862952, 27.985399)" class="st3" cx="25.59" cy="42.53" rx="3.2" ry="8.14"/>
    <ellipse transform="matrix(0.849042, -0.528326, 0.528326, 0.849042, -15.780562, 31.195311)" class="st4" cx="46.7" cy="43.21" rx="3.2" ry="8.14"/>
    <ellipse transform="matrix(0.040699, -0.999171, 0.999171, 0.040699, -18.005755, 113.526548)" class="st5" cx="50.12" cy="66.14" rx="8.14" ry="3.2"/>
    <ellipse transform="matrix(0.071702, -0.997426, 0.997426, 0.071702, -17.359514, 91.951555)" class="st6" cx="40.72" cy="55.3" rx="3.2" ry="8.14"/>
    <ellipse transform="matrix(0.185798, -0.982588, 0.982588, 0.185798, -41.381952, 81.322006)" class="st2" cx="28.38" cy="65.63" rx="8.14" ry="3.2"/>
    <path class="st1" d="M 33.9 66.19 C 36.21 66.92 40.62 67.42 43.75 67.79"/>
    <path class="st1" d="M 34.77 73.27 C 37.02 70.66 41.09 67.73 44.7 66.82"/>
    <path class="st1" d="M 40.36 76.35 C 39.88 72.34 38.95 68.83 43.2 67.65"/>
    <path class="st1" d="M 51.64 64.78 C 55.7 62.11 60.63 59.93 64.37 59.72"/>
    <path class="st1" d="M 51.51 56.4 C 56.11 58.45 63.83 59.65 65.39 59.99"/>
    <path class="st1" d="M 58.32 65.92 C 58.4 62.8 57.58 60.73 63.21 59.57"/>
    <ellipse transform="matrix(0.605585, -0.79578, 0.79578, 0.605585, -50.006503, 56.088648)" class="st2" cx="31.58" cy="78.49" rx="8.14" ry="3.2"/>
    <ellipse transform="matrix(0.259392, -0.965772, 0.965772, 0.259392, -41.951057, 75.4053)" class="st3" cx="28.19" cy="65.06" rx="3.2" ry="8.14"/>
    <ellipse transform="matrix(0.423701, -0.905802, 0.905802, 0.423701, -22.362554, 73.08894)" class="st4" cx="46.26" cy="54.12" rx="3.2" ry="8.14"/>
    <ellipse transform="matrix(0.85977, -0.510682, 0.510682, 0.85977, -27.85894, 41.495058)" class="st5" cx="61.63" cy="71.48" rx="3.2" ry="8.14"/>
    <ellipse transform="matrix(0.875226, -0.483714, 0.483714, 0.875226, -26.691011, 31.561134)" class="st6" cx="47.84" cy="67.52" rx="8.14" ry="3.2"/>
    <ellipse transform="matrix(0.924988, -0.379995, 0.379995, 0.924988, -28.269306, 22.606856)" class="st2" cx="43.12" cy="82.91" rx="3.2" ry="8.14"/>
    <path class="st1" d="M 79.36 59.82 C 77.29 58.55 73.13 57 70.18 55.89"/>
    <path class="st1" d="M 80.22 52.74 C 77.4 54.73 72.75 56.6 69.02 56.61"/>
    <path class="st1" d="M 75.54 48.4 C 75.04 52.4 75.1 56.03 70.69 56.16"/>
    <path class="st1" d="M 61.8 56.91 C 57.21 58.52 51.91 59.45 48.23 58.75"/>
    <path class="st1" d="M 59.91 65.08 C 55.93 61.98 48.73 58.95 47.3 58.25"/>
    <path class="st1" d="M 55.59 54.19 C 54.76 57.2 55.06 59.4 49.31 59.18"/>
    <ellipse transform="matrix(0.779589, -0.626291, 0.626291, 0.779589, -11.694067, 63.64939)" class="st2" cx="84.58" cy="48.44" rx="8.14" ry="3.2"/>
    <ellipse transform="matrix(0.484615, -0.874727, 0.874727, 0.484615, -10.878392, 106.138672)" class="st3" cx="84.63" cy="62.3" rx="3.2" ry="8.14"/>
    <ellipse transform="matrix(0.62961, -0.776912, 0.776912, 0.62961, -29.390125, 75.473104)" class="st4" cx="64.46" cy="68.56" rx="3.2" ry="8.14"/>
    <ellipse transform="matrix(0.957537, -0.288311, 0.288311, 0.957537, -11.560496, 17.527535)" class="st5" cx="53.73" cy="48" rx="3.2" ry="8.14"/>
    <ellipse transform="matrix(0.966035, -0.258409, 0.258409, 0.966035, -12.013069, 18.966471)" class="st6" cx="66.15" cy="55.17" rx="8.14" ry="3.2"/>
    <ellipse transform="matrix(0.989314, -0.145802, 0.145802, 0.989314, -5.23781, 11.294281)" class="st2" cx="74.44" cy="41.37" rx="3.2" ry="8.14"/>
    <path class="st1" d="M 63.15 79.13 C 62 77 59.19 73.57 57.2 71.12"/>
    <path class="st1" d="M 67.45 73.45 C 64.02 73.75 59.06 73.03 55.83 71.17"/>
    <path class="st1" d="M 65.59 67.34 C 63.14 70.55 61.37 73.72 57.5 71.61"/>
    <path class="st1" d="M 49.43 67.8 C 44.65 66.89 39.6 65.02 36.77 62.57"/>
    <path class="st1" d="M 43.69 73.91 C 41.81 69.24 37.11 63 36.22 61.67"/>
    <path class="st1" d="M 45.43 62.33 C 43.2 64.51 42.35 66.57 37.49 63.49"/>
    <ellipse transform="matrix(0.988731, -0.149705, 0.149705, 0.988731, -9.942385, 11.794235)" class="st2" cx="73.38" cy="71.92" rx="8.14" ry="3.2"/>
    <ellipse transform="matrix(0.85855, -0.51273, 0.51273, 0.85855, -33.636225, 45.947391)" class="st3" cx="66.46" cy="83.93" rx="3.2" ry="8.14"/>
    <ellipse transform="matrix(0.934746, -0.355317, 0.355317, 0.934746, -25.150365, 21.465484)" class="st4" cx="45.88" cy="79.2" rx="3.2" ry="8.14"/>
    <ellipse transform="matrix(0.231909, -0.972737, 0.972737, 0.231909, -18.464021, 88.690857)" class="st5" cx="46.93" cy="56.04" rx="8.14" ry="3.2"/>
    <ellipse transform="matrix(0.26211, -0.965038, 0.965038, 0.26211, -26.190946, 102.713645)" class="st6" cx="54.07" cy="68.48" rx="3.2" ry="8.14"/>
    <ellipse transform="matrix(0.371098, -0.928594, 0.928594, 0.371098, -13.509762, 101.481231)" class="st2" cx="68.17" cy="60.72" rx="8.14" ry="3.2"/>
    <path class="st7" d="M 46.68 85.36 C 47.06 85.51 47.1 86.86 47.55 86.94 C 48.01 87.02 48.09 87.36 48.63 87.54 C 49.17 87.73 50.09 88.94 51.17 89.02 C 52.25 89.1 52.88 89.02 53.79 88.48 C 54.71 87.94 56.21 83.81 56.87 81.61 C 57.25 80.34 57.43 78.84 57.51 77.79 C 56.61 76.86 54.78 76.06 54.37 75.86 C 53.95 75.65 52.29 75.28 52.29 75.28 C 51.54 75.28 49.12 75.32 47.96 76.07 C 46.79 76.82 44.59 79.94 45.29 82.48 C 45.48 83.17 45.77 83.97 46.1 84.77 C 46.34 85.03 46.55 85.31 46.68 85.36 Z"/>
    <path class="st8" d="M 49.18 89.65 C 50.43 90.36 52.14 90.32 53.72 89.65 C 55.3 88.98 57.89 84.23 58.3 83.24 C 58.72 82.24 58.47 78.82 57.59 77.87 C 57.57 77.85 57.55 77.82 57.52 77.8 C 57.44 78.85 57.26 80.35 56.88 81.62 C 56.21 83.83 54.71 87.95 53.8 88.49 C 52.88 89.03 52.26 89.11 51.18 89.03 C 50.1 88.95 49.18 87.74 48.64 87.55 C 48.1 87.36 48.01 87.02 47.56 86.95 C 47.1 86.87 47.07 85.52 46.69 85.37 C 46.56 85.32 46.35 85.04 46.13 84.79 C 47.01 86.92 48.27 89.13 49.18 89.65 Z"/>
    <path class="st9" d="M 49.31 74.67 C 48.31 74.65 48.14 74.69 48.19 74.98 C 48.23 75.27 48.43 75.69 48.75 76.02 C 49.07 76.35 48.52 76.35 49.32 76.35 C 50.12 76.35 50.4 76.1 50.99 76.35 C 51.58 76.6 51.95 76.77 52.24 76.89 C 52.53 77.01 53.36 76.89 53.66 76.89 C 53.96 76.89 53.91 76.63 54.45 76.95 C 54.99 77.27 55.23 77.44 55.61 77.39 C 55.99 77.35 55.89 77.72 56.28 77.4 C 56.67 77.08 57.07 76.89 57.07 76.39 C 57.07 75.89 57.61 75.77 56.57 75.64 C 55.53 75.51 55.46 75.85 54.93 75.27 C 54.4 74.69 54.45 74.36 53.82 74.67 C 53.2 74.98 52.94 75.4 52.77 75.06 C 52.61 74.73 52.69 74.6 52.53 74.19 C 52.36 73.77 51.96 73.52 51.85 73.69 C 51.74 73.86 52.03 73.9 51.4 74.23 C 50.78 74.56 50.03 74.67 50.03 74.67 L 49.31 74.67 L 49.31 74.67 Z"/>
    <path class="st7" d="M 28.44 66.22 C 28.48 66.63 27.3 67.29 27.45 67.73 C 27.6 68.17 27.34 68.4 27.42 68.97 C 27.51 69.54 26.87 70.91 27.3 71.91 C 27.73 72.91 28.1 73.42 29.01 73.98 C 29.92 74.54 34.26 73.93 36.53 73.49 C 37.83 73.24 39.24 72.69 40.21 72.27 C 40.61 71.04 40.46 69.05 40.45 68.59 C 40.44 68.12 39.99 66.48 39.99 66.48 C 39.64 65.82 38.47 63.7 37.26 63.02 C 36.05 62.34 32.26 61.85 30.34 63.66 C 29.82 64.15 29.25 64.78 28.69 65.45 C 28.57 65.77 28.42 66.09 28.44 66.22 Z"/>
    <path class="st8" d="M 25.82 70.44 C 25.78 71.88 26.61 73.37 27.94 74.45 C 29.27 75.54 34.67 75.6 35.75 75.5 C 36.83 75.4 39.73 73.58 40.17 72.36 C 40.18 72.33 40.19 72.3 40.2 72.27 C 39.24 72.69 37.82 73.24 36.52 73.49 C 34.26 73.93 29.91 74.54 29 73.98 C 28.09 73.42 27.73 72.91 27.29 71.91 C 26.86 70.91 27.5 69.54 27.41 68.97 C 27.32 68.4 27.58 68.17 27.44 67.73 C 27.29 67.29 28.47 66.62 28.43 66.22 C 28.42 66.08 28.56 65.76 28.68 65.45 C 27.21 67.25 25.85 69.39 25.82 70.44 Z"/>
    <path class="st9" d="M 39.11 63.55 C 38.66 62.66 38.55 62.53 38.31 62.7 C 38.07 62.87 37.8 63.25 37.65 63.68 C 37.5 64.11 37.25 63.64 37.62 64.34 C 37.99 65.04 38.35 65.18 38.4 65.81 C 38.45 66.44 38.48 66.85 38.51 67.17 C 38.54 67.49 39.04 68.16 39.17 68.42 C 39.31 68.68 39.52 68.52 39.49 69.15 C 39.46 69.78 39.43 70.07 39.64 70.38 C 39.85 70.7 39.48 70.78 39.95 70.98 C 40.42 71.17 40.77 71.44 41.21 71.21 C 41.65 70.98 42.02 71.4 41.64 70.42 C 41.26 69.44 40.94 69.53 41.2 68.8 C 41.47 68.06 41.78 67.94 41.21 67.54 C 40.64 67.13 40.15 67.1 40.37 66.8 C 40.59 66.5 40.74 66.52 41.03 66.17 C 41.32 65.83 41.35 65.36 41.15 65.34 C 40.95 65.32 41.05 65.6 40.46 65.2 C 39.87 64.8 39.43 64.19 39.43 64.19 L 39.11 63.55 Z"/>
    <path class="st7" d="M 25.66 42.31 C 25.45 42.66 24.11 42.46 23.95 42.9 C 23.79 43.34 23.45 43.36 23.17 43.86 C 22.89 44.36 21.55 45.06 21.28 46.11 C 21.01 47.16 20.99 47.79 21.37 48.79 C 21.75 49.79 25.55 51.97 27.62 53 C 28.81 53.59 30.26 54.02 31.27 54.28 C 32.34 53.55 33.44 51.88 33.71 51.52 C 33.99 51.15 34.64 49.57 34.64 49.57 C 34.77 48.83 35.14 46.44 34.6 45.17 C 34.06 43.89 31.36 41.18 28.73 41.45 C 28.01 41.52 27.18 41.67 26.33 41.86 C 26.04 42.03 25.73 42.19 25.66 42.31 Z"/>
    <path class="st8" d="M 21.01 44.04 C 20.1 45.15 19.85 46.84 20.23 48.51 C 20.62 50.18 24.85 53.54 25.77 54.12 C 26.68 54.7 30.09 55.04 31.19 54.34 C 31.22 54.32 31.24 54.3 31.27 54.29 C 30.25 54.03 28.8 53.6 27.62 53.01 C 25.56 51.98 21.75 49.79 21.37 48.8 C 20.99 47.8 21.02 47.17 21.28 46.12 C 21.55 45.07 22.89 44.37 23.17 43.87 C 23.45 43.37 23.79 43.34 23.95 42.91 C 24.11 42.47 25.45 42.67 25.66 42.32 C 25.73 42.2 26.04 42.04 26.33 41.86 C 24.07 42.37 21.67 43.23 21.01 44.04 Z"/>
    <path class="st9" d="M 35.74 46.72 C 35.93 45.74 35.92 45.57 35.63 45.56 C 35.34 45.55 34.89 45.68 34.51 45.93 C 34.13 46.18 34.22 45.65 34.09 46.43 C 33.95 47.21 34.15 47.54 33.81 48.07 C 33.47 48.6 33.24 48.94 33.06 49.21 C 32.89 49.48 32.87 50.32 32.82 50.61 C 32.77 50.9 33.04 50.9 32.63 51.38 C 32.22 51.86 32.02 52.07 31.99 52.45 C 31.97 52.83 31.62 52.67 31.87 53.11 C 32.12 53.55 32.23 53.98 32.73 54.06 C 33.22 54.15 33.25 54.7 33.55 53.7 C 33.85 52.7 33.53 52.57 34.2 52.15 C 34.86 51.73 35.18 51.83 34.98 51.16 C 34.78 50.49 34.41 50.16 34.77 50.06 C 35.13 49.96 35.23 50.06 35.67 49.97 C 36.11 49.88 36.42 49.53 36.28 49.39 C 36.14 49.25 36.04 49.53 35.82 48.86 C 35.6 48.19 35.62 47.43 35.62 47.43 L 35.74 46.72 Z"/>
    <path class="st7" d="M 40.66 24.91 C 40.31 25.12 39.21 24.32 38.87 24.64 C 38.53 24.95 38.21 24.81 37.73 25.13 C 37.25 25.44 35.73 25.43 35.01 26.24 C 34.28 27.05 33.97 27.59 33.84 28.65 C 33.71 29.71 36.06 33.41 37.4 35.29 C 38.17 36.37 39.25 37.43 40.03 38.13 C 41.32 37.98 43.07 37.02 43.47 36.82 C 43.89 36.62 45.2 35.53 45.2 35.53 C 45.66 34.94 47.1 33 47.22 31.62 C 47.34 30.24 46.21 26.58 43.77 25.59 C 43.1 25.32 42.3 25.06 41.46 24.83 C 41.13 24.84 40.77 24.84 40.66 24.91 Z"/>
    <path class="st8" d="M 35.73 24.27 C 34.41 24.83 33.4 26.2 32.96 27.87 C 32.52 29.54 34.7 34.48 35.24 35.42 C 35.78 36.36 38.63 38.25 39.93 38.14 C 39.96 38.14 39.99 38.13 40.03 38.13 C 39.25 37.43 38.17 36.37 37.4 35.29 C 36.06 33.41 33.71 29.71 33.84 28.65 C 33.97 27.59 34.29 27.05 35.01 26.24 C 35.74 25.43 37.25 25.45 37.73 25.13 C 38.21 24.82 38.53 24.96 38.87 24.64 C 39.21 24.33 40.31 25.12 40.66 24.91 C 40.78 24.84 41.13 24.84 41.47 24.82 C 39.22 24.21 36.7 23.86 35.73 24.27 Z"/>
    <path class="st9" d="M 47.51 33.51 C 48.14 32.73 48.21 32.57 47.95 32.43 C 47.69 32.28 47.24 32.19 46.78 32.24 C 46.32 32.29 46.65 31.86 46.17 32.48 C 45.69 33.11 45.71 33.49 45.15 33.8 C 44.6 34.11 44.24 34.3 43.96 34.46 C 43.68 34.61 43.27 35.35 43.1 35.58 C 42.93 35.81 43.16 35.94 42.57 36.17 C 41.99 36.4 41.71 36.49 41.51 36.82 C 41.31 37.15 41.08 36.84 41.1 37.35 C 41.12 37.86 41.02 38.29 41.41 38.59 C 41.81 38.9 41.57 39.4 42.31 38.65 C 43.04 37.9 42.83 37.64 43.61 37.58 C 44.39 37.52 44.63 37.75 44.77 37.07 C 44.9 36.38 44.73 35.92 45.1 36 C 45.47 36.08 45.51 36.22 45.94 36.34 C 46.37 36.46 46.81 36.3 46.75 36.11 C 46.69 35.92 46.48 36.12 46.59 35.43 C 46.7 34.74 47.08 34.07 47.08 34.07 L 47.51 33.51 Z"/>
    <path class="st7" d="M 70.47 23.99 C 70.16 23.72 70.58 22.43 70.18 22.21 C 69.77 21.98 69.81 21.64 69.36 21.28 C 68.91 20.92 68.46 19.48 67.46 19.03 C 66.47 18.59 65.85 18.46 64.81 18.66 C 63.76 18.86 60.97 22.24 59.6 24.1 C 58.81 25.17 58.14 26.52 57.71 27.48 C 58.25 28.66 59.7 30.02 60.02 30.35 C 60.34 30.69 61.79 31.6 61.79 31.6 C 62.5 31.85 64.79 32.62 66.14 32.31 C 67.49 32 70.62 29.8 70.81 27.16 C 70.86 26.44 70.86 25.6 70.82 24.73 C 70.68 24.42 70.57 24.08 70.47 23.99 Z"/>
    <path class="st8" d="M 69.56 19.11 C 68.62 18.02 67 17.49 65.28 17.58 C 63.57 17.68 59.54 21.28 58.81 22.08 C 58.08 22.88 57.17 26.18 57.67 27.38 C 57.68 27.41 57.7 27.44 57.71 27.47 C 58.14 26.51 58.81 25.15 59.6 24.09 C 60.97 22.23 63.77 18.85 64.81 18.65 C 65.86 18.45 66.47 18.58 67.46 19.02 C 68.45 19.46 68.91 20.91 69.36 21.27 C 69.81 21.63 69.77 21.98 70.18 22.2 C 70.59 22.43 70.16 23.71 70.47 23.98 C 70.57 24.07 70.68 24.4 70.81 24.72 C 70.69 22.41 70.24 19.9 69.56 19.11 Z"/>
    <path class="st9" d="M 64.41 33.17 C 65.34 33.53 65.52 33.54 65.57 33.25 C 65.63 32.96 65.58 32.5 65.39 32.08 C 65.21 31.66 65.72 31.84 64.97 31.58 C 64.22 31.31 63.87 31.45 63.4 31.02 C 62.93 30.59 62.64 30.31 62.41 30.09 C 62.18 29.87 61.35 29.71 61.08 29.61 C 60.81 29.51 60.76 29.77 60.35 29.29 C 59.95 28.81 59.78 28.57 59.41 28.48 C 59.04 28.39 59.26 28.08 58.78 28.25 C 58.3 28.42 57.86 28.46 57.7 28.93 C 57.53 29.4 56.98 29.34 57.92 29.8 C 58.86 30.27 59.04 29.98 59.34 30.7 C 59.64 31.42 59.49 31.72 60.18 31.64 C 60.87 31.56 61.26 31.25 61.3 31.62 C 61.34 31.99 61.22 32.08 61.24 32.53 C 61.26 32.98 61.55 33.35 61.71 33.23 C 61.87 33.11 61.61 32.97 62.31 32.87 C 63.01 32.77 63.75 32.92 63.75 32.92 L 64.41 33.17 Z"/>
    <path class="st7" d="M 83.91 44.63 C 84.04 44.24 85.39 44.14 85.45 43.68 C 85.51 43.22 85.84 43.12 86 42.57 C 86.16 42.02 87.33 41.05 87.36 39.96 C 87.39 38.87 87.28 38.25 86.7 37.36 C 86.12 36.47 81.93 35.17 79.69 34.6 C 78.4 34.28 76.9 34.17 75.84 34.14 C 74.96 35.08 74.24 36.95 74.06 37.37 C 73.87 37.8 73.58 39.48 73.58 39.48 C 73.62 40.23 73.77 42.64 74.57 43.77 C 75.37 44.9 78.6 46.96 81.1 46.13 C 81.78 45.9 82.56 45.58 83.35 45.21 C 83.6 44.99 83.86 44.76 83.91 44.63 Z"/>
    <path class="st8" d="M 88.08 41.94 C 88.73 40.66 88.61 38.95 87.87 37.4 C 87.13 35.85 82.27 33.49 81.25 33.12 C 80.23 32.75 76.83 33.16 75.92 34.08 C 75.9 34.1 75.87 34.13 75.85 34.15 C 76.9 34.18 78.41 34.29 79.7 34.61 C 81.94 35.17 86.13 36.48 86.71 37.37 C 87.29 38.26 87.41 38.88 87.37 39.97 C 87.34 41.06 86.17 42.03 86.01 42.58 C 85.85 43.13 85.51 43.23 85.46 43.69 C 85.4 44.15 84.05 44.25 83.92 44.64 C 83.88 44.77 83.61 45 83.36 45.23 C 85.45 44.23 87.61 42.87 88.08 41.94 Z"/>
    <path class="st9" d="M 73.11 42.51 C 73.14 43.51 73.18 43.67 73.47 43.62 C 73.76 43.56 74.17 43.34 74.48 43.01 C 74.8 42.68 74.82 43.22 74.79 42.43 C 74.75 41.64 74.49 41.36 74.71 40.77 C 74.93 40.18 75.08 39.79 75.19 39.5 C 75.3 39.2 75.14 38.38 75.12 38.09 C 75.11 37.8 74.84 37.85 75.14 37.3 C 75.43 36.74 75.59 36.5 75.53 36.12 C 75.47 35.74 75.85 35.83 75.5 35.45 C 75.16 35.07 74.96 34.68 74.46 34.71 C 73.96 34.74 73.81 34.2 73.73 35.24 C 73.65 36.28 73.99 36.34 73.43 36.9 C 72.87 37.45 72.54 37.43 72.88 38.04 C 73.22 38.65 73.65 38.89 73.32 39.07 C 72.99 39.25 72.87 39.17 72.46 39.36 C 72.05 39.55 71.82 39.96 71.99 40.06 C 72.16 40.17 72.19 39.87 72.55 40.48 C 72.91 41.09 73.05 41.83 73.05 41.83 L 73.11 42.51 Z"/>
    <path class="st7" d="M 87.9 66.23 C 88.06 65.86 89.42 65.87 89.51 65.41 C 89.6 64.96 89.95 64.88 90.15 64.35 C 90.36 63.82 91.6 62.94 91.72 61.86 C 91.84 60.78 91.78 60.15 91.27 59.22 C 90.76 58.29 86.69 56.64 84.51 55.9 C 83.26 55.47 81.76 55.24 80.71 55.13 C 79.76 56 78.9 57.8 78.68 58.2 C 78.46 58.61 78.02 60.26 78.02 60.26 C 77.99 61.01 77.95 63.43 78.66 64.62 C 79.37 65.81 82.41 68.13 84.98 67.51 C 85.68 67.34 86.48 67.09 87.3 66.78 C 87.56 66.56 87.84 66.36 87.9 66.23 Z"/>
    <path class="st8" d="M 92.27 63.89 C 93.02 62.67 93.04 60.96 92.43 59.35 C 91.82 57.74 87.16 55 86.18 54.55 C 85.2 54.1 81.77 54.23 80.79 55.07 C 80.77 55.09 80.74 55.11 80.72 55.14 C 81.77 55.26 83.26 55.49 84.52 55.91 C 86.7 56.65 90.77 58.3 91.28 59.23 C 91.79 60.16 91.85 60.79 91.73 61.87 C 91.61 62.95 90.37 63.82 90.16 64.36 C 89.95 64.89 89.61 64.97 89.52 65.42 C 89.43 65.87 88.07 65.86 87.91 66.24 C 87.85 66.37 87.57 66.57 87.31 66.78 C 89.47 65.96 91.73 64.78 92.27 63.89 Z"/>
    <path class="st9" d="M 77.31 63.23 C 77.25 64.23 77.29 64.4 77.58 64.36 C 77.87 64.32 78.3 64.14 78.64 63.84 C 78.98 63.54 78.97 64.08 78.99 63.29 C 79.02 62.5 78.78 62.2 79.05 61.62 C 79.32 61.05 79.5 60.68 79.64 60.39 C 79.78 60.1 79.68 59.27 79.69 58.97 C 79.7 58.68 79.44 58.71 79.77 58.18 C 80.11 57.65 80.28 57.42 80.25 57.03 C 80.22 56.65 80.59 56.76 80.28 56.36 C 79.97 55.96 79.8 55.55 79.3 55.53 C 78.8 55.51 78.69 54.97 78.53 56 C 78.37 57.04 78.7 57.12 78.1 57.63 C 77.5 58.14 77.17 58.08 77.46 58.72 C 77.75 59.36 78.16 59.63 77.82 59.78 C 77.48 59.93 77.36 59.84 76.94 59.99 C 76.52 60.14 76.25 60.53 76.42 60.65 C 76.58 60.77 76.63 60.48 76.95 61.12 C 77.26 61.76 77.34 62.51 77.34 62.51 L 77.31 63.23 Z"/>
    <path class="st7" d="M 67.38 82 C 67.79 81.99 68.35 83.22 68.8 83.12 C 69.25 83.01 69.46 83.29 70.03 83.25 C 70.6 83.21 71.92 83.97 72.95 83.62 C 73.98 83.27 74.52 82.95 75.16 82.1 C 75.79 81.24 75.57 76.86 75.32 74.57 C 75.18 73.25 74.75 71.8 74.42 70.8 C 73.23 70.3 71.23 70.28 70.78 70.25 C 70.32 70.22 68.63 70.52 68.63 70.52 C 67.94 70.81 65.73 71.79 64.95 72.94 C 64.17 74.09 63.35 77.82 65 79.89 C 65.45 80.45 66.02 81.07 66.64 81.68 C 66.94 81.83 67.24 82 67.38 82 Z"/>
    <path class="st8" d="M 71.35 84.98 C 72.78 85.14 74.33 84.44 75.53 83.21 C 76.73 81.98 77.25 76.6 77.25 75.52 C 77.24 74.44 75.68 71.39 74.5 70.85 C 74.47 70.84 74.44 70.82 74.41 70.81 C 74.74 71.81 75.17 73.26 75.31 74.58 C 75.56 76.87 75.78 81.25 75.15 82.11 C 74.52 82.97 73.97 83.29 72.94 83.63 C 71.91 83.98 70.6 83.22 70.02 83.26 C 69.45 83.3 69.24 83.02 68.79 83.13 C 68.34 83.24 67.78 82 67.37 82.01 C 67.23 82.01 66.93 81.84 66.62 81.69 C 68.29 83.31 70.32 84.86 71.35 84.98 Z"/>
    <path class="st9" d="M 65.63 71.14 C 64.7 71.51 64.56 71.61 64.72 71.87 C 64.88 72.13 65.22 72.43 65.64 72.61 C 66.06 72.79 65.56 73.01 66.29 72.7 C 67.02 72.39 67.19 72.05 67.82 72.05 C 68.45 72.05 68.86 72.06 69.18 72.06 C 69.5 72.06 70.22 71.62 70.48 71.51 C 70.75 71.4 70.61 71.17 71.23 71.25 C 71.85 71.33 72.14 71.39 72.47 71.21 C 72.8 71.02 72.86 71.4 73.09 70.95 C 73.32 70.5 73.62 70.18 73.43 69.72 C 73.24 69.26 73.69 68.93 72.68 69.22 C 71.67 69.51 71.74 69.85 71.02 69.51 C 70.31 69.18 70.22 68.86 69.76 69.39 C 69.31 69.92 69.23 70.41 68.95 70.16 C 68.67 69.92 68.7 69.77 68.38 69.45 C 68.06 69.13 67.6 69.06 67.56 69.25 C 67.52 69.45 67.81 69.37 67.36 69.92 C 66.91 70.47 66.26 70.86 66.26 70.86 L 65.63 71.14 Z"/>
    <path class="st7" d="M 60.23 56.87 C 60.61 57.02 60.65 58.37 61.1 58.45 C 61.56 58.53 61.64 58.87 62.18 59.05 C 62.72 59.24 63.64 60.45 64.72 60.53 C 65.8 60.61 66.43 60.53 67.34 59.99 C 68.26 59.45 69.76 55.32 70.42 53.12 C 70.8 51.85 70.98 50.35 71.06 49.3 C 70.16 48.37 68.33 47.57 67.92 47.37 C 67.5 47.16 65.84 46.79 65.84 46.79 C 65.09 46.79 62.67 46.83 61.51 47.58 C 60.34 48.33 58.14 51.45 58.84 53.99 C 59.03 54.68 59.32 55.48 59.65 56.28 C 59.89 56.54 60.11 56.82 60.23 56.87 Z"/>
    <path class="st8" d="M 62.73 61.16 C 63.98 61.87 65.69 61.83 67.27 61.16 C 68.85 60.49 71.44 55.74 71.85 54.75 C 72.26 53.76 72.02 50.33 71.14 49.38 C 71.12 49.36 71.1 49.33 71.07 49.31 C 70.99 50.36 70.81 51.86 70.43 53.13 C 69.76 55.34 68.26 59.46 67.35 60 C 66.43 60.54 65.81 60.62 64.73 60.54 C 63.65 60.46 62.73 59.25 62.19 59.06 C 61.65 58.87 61.56 58.53 61.11 58.46 C 60.65 58.38 60.62 57.03 60.24 56.88 C 60.11 56.83 59.9 56.55 59.68 56.3 C 60.56 58.43 61.82 60.64 62.73 61.16 Z"/>
    <path class="st9" d="M 62.86 46.19 C 61.86 46.17 61.69 46.21 61.74 46.5 C 61.78 46.79 61.98 47.21 62.3 47.54 C 62.62 47.87 62.07 47.87 62.87 47.87 C 63.67 47.87 63.95 47.62 64.54 47.87 C 65.12 48.12 65.5 48.29 65.79 48.41 C 66.08 48.53 66.91 48.41 67.21 48.41 C 67.51 48.41 67.46 48.15 68 48.47 C 68.54 48.79 68.78 48.96 69.16 48.91 C 69.54 48.87 69.44 49.24 69.83 48.92 C 70.22 48.6 70.62 48.41 70.62 47.91 C 70.62 47.41 71.16 47.29 70.12 47.16 C 69.08 47.03 69.01 47.37 68.48 46.79 C 67.95 46.21 68 45.88 67.37 46.19 C 66.75 46.5 66.49 46.92 66.32 46.58 C 66.16 46.25 66.24 46.12 66.08 45.71 C 65.91 45.29 65.51 45.04 65.4 45.21 C 65.29 45.38 65.58 45.42 64.95 45.75 C 64.33 46.08 63.58 46.19 63.58 46.19 L 62.86 46.19 Z"/>
    <path class="st7" d="M 40.8 50.48 C 40.95 50.86 40 51.82 40.26 52.21 C 40.52 52.6 40.33 52.89 40.57 53.41 C 40.81 53.93 40.57 55.43 41.25 56.27 C 41.94 57.11 42.43 57.51 43.45 57.8 C 44.47 58.09 48.49 56.33 50.55 55.29 C 51.73 54.69 52.94 53.78 53.76 53.12 C 53.81 51.83 53.12 49.95 52.99 49.52 C 52.85 49.07 51.97 47.61 51.97 47.61 C 51.45 47.07 49.76 45.35 48.41 45.02 C 47.06 44.69 43.28 45.25 41.93 47.52 C 41.56 48.14 41.18 48.89 40.83 49.69 C 40.81 50 40.75 50.35 40.8 50.48 Z"/>
    <path class="st8" d="M 39.42 55.25 C 39.77 56.64 40.98 57.85 42.55 58.54 C 44.12 59.23 49.34 57.82 50.35 57.43 C 51.36 57.04 53.66 54.5 53.75 53.21 C 53.75 53.18 53.75 53.14 53.75 53.11 C 52.94 53.78 51.73 54.68 50.54 55.28 C 48.48 56.32 44.46 58.08 43.44 57.79 C 42.42 57.5 41.92 57.11 41.24 56.26 C 40.55 55.42 40.8 53.92 40.56 53.4 C 40.32 52.88 40.51 52.58 40.25 52.2 C 39.99 51.81 40.94 50.85 40.79 50.47 C 40.74 50.34 40.79 50 40.82 49.66 C 39.9 51.79 39.17 54.23 39.42 55.25 Z"/>
    <path class="st9" d="M 50.35 45 C 49.68 44.26 49.53 44.17 49.35 44.4 C 49.17 44.63 49.01 45.07 48.98 45.52 C 48.95 45.97 48.58 45.59 49.13 46.16 C 49.68 46.73 50.06 46.77 50.28 47.37 C 50.5 47.97 50.64 48.35 50.75 48.65 C 50.86 48.95 51.53 49.46 51.73 49.67 C 51.93 49.88 52.09 49.67 52.24 50.28 C 52.38 50.89 52.43 51.18 52.72 51.43 C 53.01 51.68 52.67 51.86 53.18 51.92 C 53.68 51.98 54.09 52.14 54.45 51.8 C 54.81 51.46 55.28 51.76 54.65 50.92 C 54.02 50.08 53.73 50.26 53.79 49.47 C 53.85 48.69 54.12 48.49 53.46 48.25 C 52.8 48.01 52.32 48.11 52.45 47.77 C 52.58 47.43 52.73 47.4 52.91 46.99 C 53.1 46.58 53 46.12 52.8 46.15 C 52.6 46.18 52.77 46.42 52.1 46.2 C 51.43 45.98 50.83 45.51 50.83 45.51 L 50.35 45 Z"/>
  </g>
</svg>