<?xml version="1.0" encoding="utf-8"?>
<!-- Generator: Adobe Illustrator 23.1.1, SVG Export Plug-In . SVG Version: 6.00 Build 0)  -->
<svg version="1.1" id="Layer_1" xmlns="http://www.w3.org/2000/svg" xmlns:xlink="http://www.w3.org/1999/xlink" x="0px" y="0px"
	 viewBox="0 0 108 108" style="enable-background:new 0 0 108 108;" xml:space="preserve">
<style type="text/css">
	.st0{fill-rule:evenodd;clip-rule:evenodd;fill:#79A23F;}
	.st1{opacity:0.34;fill:#68431A;}
	.st2{fill:none;stroke:#718537;stroke-width:0.6452;stroke-miterlimit:10;}
	.st3{fill:#A5C239;}
	.st4{fill:#84B541;}
	.st5{fill:#91BB3E;}
	.st6{fill:#AFCB36;}
	.st7{fill:#92B83F;}
	.st8{fill:#A5BE3B;}
	.st9{fill:#A4C839;}
	.st10{fill:#72AA42;}
	.st11{fill:#541C39;}
	.st12{fill:#622546;}
	.st13{fill:#713559;}
</style>
<g>
	<g>
		<path class="st0" d="M74.65,76.56c-0.09-0.04-0.1-0.08-0.14-0.13c0,0,0,0,0.02,0.02C74.56,76.5,74.64,76.52,74.65,76.56
			c3.48,2.49,10.03-3.91,3.73-6.43c-0.3,0.04-0.67-0.08-0.96-0.31h0c0.34,0.11,0.62,0.21,0.95,0.31c0.58,0.02,1.14-0.31,1.52-0.73
			c1.13,0.13,2.5-0.86,1.27-2.53c1.61,0.31,1.55-1.34,0.92-2.24c2.86-0.25,4.86-2.13,5.27-4.81c0.5-3.01-0.99-7.4-4.27-8.13
			c-0.07-0.11-0.08-0.19-0.11-0.25c1.87-0.33,2.69-1.8,1.2-3.32c1.93-0.46,1.6-3.57-1.71-1.71c3.16-0.77,3.01-5.27,0.93-6.39
			c0-0.94-0.16-1.82-0.56-2.57c-0.89-1.82-2.96-2.99-5.13-3.09c0.1-1.97-1.91-3.32-3.75-2.72c-0.56-0.94-1.4-1.71-2.36-2.09
			c0.73-2.42-3.16-4.47-4.79-1.67c0.11-1.21-0.66-1.98-1.59-2.28c-0.61-1.4-1.94-1.51-3.2-1.04c-0.16-0.11-0.35-0.15-0.53-0.25
			c-0.27-2.57-2.04-4.85-4.27-5.45c-2.73-0.79-6.14,1.04-7.09,3.95c-0.29-0.02-0.56-0.08-0.81-0.02c-2.3-2.88-9.46-1.48-6.32,3.8
			c0.2,0.17,0.35,0.44,0.48,0.69c0,0,0,0,0.02,0.02c-0.18-0.27-0.34-0.46-0.5-0.71c-1.25-0.98-3.64,0.06-3.13,1.67
			c-0.92,0.06-1.78,0.42-2.36,1.02c-2.55-2.24-5.72-2.03-7.92,0.06c-2.45,2.34-4.09,7.56-0.67,9.95c-1.95-1.84-4.2-1.23-3.88,1.3
			c-1.85-0.81-3.44,1.88,0.31,2.38c-3.85-1.65-7.18,4.93-2.81,5.93c-3.26,0.33-2.86,5.24,0.35,5.72c-2.35,1.07-2.09,3.66-0.58,4.81
			c-0.2,0.71,0,1.48,1.33,1.88c-1.15,0.54-0.81,1.4-0.13,1.94c-1.61,1.61,0.19,5.14,3,3.97c-0.78,0.88-0.65,1.98-0.07,2.78
			c-0.36,1.5,0.61,2.42,1.88,2.78c0.3,0.96,0.88,1.42,1.77,1.53c0.1,0.38,0.47,0.77,1.07,1.11c0.42,1.25,1.37,1.76,2.09,1.28
			c0.05-0.15,0.13-0.31,0.24-0.46c0.03,0,0.11,0.04,0.16,0.02c-0.13,0.17-0.25,0.35-0.4,0.44c-0.49,1.46,1.12,2.86,2.77,3.3
			c0.02,0.71,0.45,1.23,1.04,1.63c0.45,1.78,1.56,3.38,3.07,4.05c2.61,1.27,6.33,0.08,7.74-2.68c0.14-0.06,0.33,0,0.46-0.06
			c0.06,0.06,0.18,0.11,0.24,0.17c1.26,2.49,5.83,3.09,7.02,0.67c1.11,0.33,2.41,0.11,3.4-0.56c0.71-0.15,1.33-0.65,1.59-1.46
			c0.59,1.94,3.15,1.02,2.81-1.17c0.02,0.02,0.07,0.02,0.1,0c1.1,3.68,5.34,5.5,8.23,4.35C74.72,83.77,76.4,79.59,74.65,76.56z"/>
		<path class="st1" d="M81.9,59.89l-1.99-0.42l-3.97-0.91l-0.02,0l-0.15-0.01c-1.14-0.08-2.28-0.08-3.42-0.04
			c-1.07,0.04-2.15,0.11-3.21,0.39c-0.29-0.48-0.73-0.53-1.12-0.74l-1.28-0.56l-2.55-1.12c-0.95-0.4-1.9-0.79-2.85-1.18
			c0.27-1.07,0.39-2.01,0.29-2.84c1.05-0.5,2.1-1.06,3.09-1.71c0.37-0.24,0.72-0.5,1.07-0.76c0.19,0.13,0.4,0.13,0.61,0.17
			l1.09,0.18l2.17,0.37l4.36,0.67c1.46,0.21,2.91,0.41,4.38,0.59c1.47,0.16,2.93,0.35,4.41,0.48l0.25-1.16
			c-1.43-0.38-2.87-0.7-4.31-1.04c-1.44-0.32-2.89-0.63-4.34-0.93l-4.35-0.85l-2.08-0.38c0.68-0.7,1.33-1.44,1.88-2.24
			c0.72-1.03,1.3-2.14,1.78-3.28l7.64-0.76l-0.05-1.19l-6.87-0.05c0.12-0.37,0.24-0.75,0.33-1.13c0.62-2.24,0.76-4.54,0.89-6.81
			l-1.19-0.06c-0.25,2.19-0.52,4.38-1.22,6.44c-0.66,2.06-1.6,4.01-2.9,5.67c-1.29,1.67-2.93,3.01-4.77,4.05
			c-1.11,0.64-2.3,1.15-3.53,1.63c-0.58-0.31-1.15-0.56-1.4-0.77c-0.37-0.31-0.9-0.76-1.45-1.15l-0.81-12.59
			c0.06-0.05,0.13-0.11,0.19-0.16l0.65-0.51l1.36-1.02l2.77-2l5.6-3.93l-0.65-0.99l-5.81,3.65l-2.89,1.87l-1.36,0.92l-0.53-8.23
			l-1.19,0.04l0.1,9.46c-0.01,0.01-0.02,0.02-0.03,0.03l0.03,0.02l0.05,4.71c-0.03-0.03-0.05-0.05-0.08-0.08
			c-0.6-0.57-1.22-1.11-1.85-1.64c-0.09-0.07-0.18-0.13-0.27-0.21l-3.05-10.74l-1.15,0.3l2.03,8.81c-0.5-0.36-1.01-0.71-1.53-1.05
			c-1.36-0.9-2.78-1.72-4.21-2.49c-1.44-0.76-2.92-1.45-4.4-2.11l-0.49,1.08c1.44,0.69,2.87,1.41,4.26,2.2
			c1.39,0.78,2.77,1.59,4.08,2.48c1.32,0.89,2.6,1.83,3.81,2.84c0.6,0.51,1.2,1.03,1.75,1.58c0.28,0.27,0.55,0.55,0.82,0.84
			c0.1,0.1,0.19,0.21,0.29,0.32l0.06,6.02c-0.84,0.36-1.45,0.98-1.45,0.98s-0.4,0.34-0.91,0.83l-10.27-5.34
			c-0.33-0.67-0.82-1.23-1.21-1.85l-1.76-2.57c-1.21-1.69-2.41-3.39-3.68-5.04l-0.99,0.66c1.04,1.8,2.16,3.56,3.27,5.32l1.71,2.61
			c0.3,0.41,0.55,0.87,0.84,1.29c-0.66,0-1.31,0.07-1.96,0.09l-3.54,0.2c-2.36,0.17-4.71,0.35-7.07,0.61l0.06,1.19
			c2.37,0.04,4.73-0.02,7.09-0.07l3.54-0.14c0.89-0.06,1.78-0.01,2.66-0.2l2.71,1.65L37.15,52l-10.94,1.78l0.19,1.17l11.04-1.8
			l0.06-0.01l0.11-0.05l8.62-3.54l4.12,2.51c-0.09,0.18-0.15,0.35-0.18,0.5c-0.17,1.04,0.37,2.13,0.65,3.38l-4.6,3.74l-19.87-1.1
			l-0.09,1.18l11.8,1.23l-9.12,7.06l0.69,0.97l11.74-7.68l3.95,0.41l-0.54,4.08c-0.13,0.95-0.25,1.89-0.38,2.84l-12.07,4.15
			l0.35,1.14L44,70.96c-0.01,0.02-0.01,0.05-0.01,0.07l-1.97,10.32l1.16,0.24l2.36-10.27c0.44-1.7,0.67-3.45,0.98-5.18l0.81-4.74
			l3.9-2.34c0.17,0.2,0.47,0.34,1,0.48c0.56,0.15,1.06,0.24,1.48,0.3l2.06,12.31l-4.1,12.01l1.11,0.41l4.08-10.33l6.54,9.51l1-0.64
			l-6.84-11.38l-0.73-12.19c0.63-0.19,1.2-0.36,1.2-0.36s1.24-0.63,2.17-1.59c1.06,0.37,2.12,0.73,3.18,1.08l2.66,0.84l1.33,0.42
			c0.19,0.04,0.38,0.12,0.57,0.18l0.78,3.93l0.44,2.16l0.23,1.09l0.14,0.6c0.03,0.13,0.1,0.29,0.18,0.43l0.15,0.26
			c0.79,1.28,1.6,2.49,2.41,3.73l2.44,3.67l1.01-0.63l-2.19-3.81c-0.72-1.27-1.46-2.56-2.13-3.81l-0.11-0.22
			c0-0.02-0.02-0.02-0.02-0.08l-0.08-0.48l-0.16-1.08l-0.3-2.17l-0.46-3.47c0.73,0.03,1.46-0.01,2.19-0.07
			c0.63-0.05,1.26-0.12,1.89-0.2l4.75,11.44L80.21,71l-3.61-11.07l3.07,0.7l2.01,0.42c0.7,0.13,1.3,0.27,2.13,0.33V60.2
			C83.27,60.16,82.54,60.01,81.9,59.89z"/>
		<g>
			<path class="st2" d="M70.5,76.92c-0.04-1.54-0.65-4.31-1.07-6.27"/>
			<path class="st2" d="M74.58,74.93c-2.04-0.82-4.65-2.66-5.94-4.65"/>
			<path class="st2" d="M75.28,70.93c-2.32,1.12-4.24,2.41-5.83,0.09"/>
			<path class="st2" d="M65.97,66.52c-2.45-1.9-4.78-4.41-5.68-6.62"/>
			<path class="st2" d="M60.95,68.34c0.28-3.2-0.59-8.1-0.71-9.1"/>
			<path class="st2" d="M65.28,62.26c-1.9,0.6-2.97,1.52-4.84-1.63"/>
			<path class="st3" d="M67.17,79.94c-0.2-1.23-0.82-1.48,1.23-3.66c2.05-2.18,2.05-2.18,2.05-2.18s0.41,0.47,0.89,1.01
				c0.48,0.53,2.5,2.33,1.59,4.41c-0.91,2.09-1.7,3.22-2.01,3.55c-0.31,0.33-1.12,1.64-1.34,1.96"/>
			<path class="st4" d="M81.6,80.56c-1.49-0.62-3.64,0.72-5.45-0.55s-2.85-4.42-3.28-5.32s-1.17-0.51,0.54-0.55
				c1.71-0.03,1.81-0.61,3.29-0.26c1.49,0.35,3.54,2.57,3.68,3.49C80.52,78.29,81.6,80.56,81.6,80.56z"/>
			<path class="st5" d="M72.68,72.22c0.45,0,0.94,0.36,3.1,0.4c2.15,0.03,3.85-0.2,4.23-1.84c0.38-1.64-0.15-1.97,0.77-3.05
				s0.92-1.08,0.92-1.08s-1.85-0.06-4.44,0.01c-2.58,0.07-3.79,2.68-4.11,3.78C72.83,71.53,72.68,72.22,72.68,72.22z"/>
			<path class="st6" d="M71.51,72.24c0,0-0.99-1.1-3.03-1.11s-4.26-1.01-4.26-3.16c0-2.15-0.7-3.34-0.7-3.34s-0.04,0.31,1.73,0.17
				s4.28,1.08,4.99,2.84C70.95,69.39,71.51,72.24,71.51,72.24z"/>
			<path class="st7" d="M59.29,74.97c0,0,2.62-2.62,3.42-4.4c0.8-1.78,1.02-2.84-0.02-4.1c-1.04-1.26-1.42-2.28-1.42-2.28
				s-1.48,2.2-2.44,2.71c-0.97,0.51-2.04,2.31-1.52,3.38C57.83,71.36,59.29,74.97,59.29,74.97z"/>
			<path class="st8" d="M63.38,62.86c0,0.03,1.57,0.68,3.43,0.91c1.87,0.22,2.87,0.21,3.61-0.72c0.73-0.93,1.23-1.91,1.75-2.99
				c0.52-1.08,0.59-1.52,1.02-1.63c0.43-0.1-0.54,0.38-2.6-0.13c-2.06-0.51-3.04-1.07-3.9-0.4c-0.85,0.67-0.83,1.91-1.52,2.91
				C64.48,61.8,63.38,62.86,63.38,62.86z"/>
		</g>
		<g>
			<path class="st2" d="M36.32,77.22c1.49-0.42,4.02-1.68,5.81-2.58"/>
			<path class="st2" d="M39.25,80.68c0.29-2.17,1.44-5.16,3.05-6.9"/>
			<path class="st2" d="M43.3,80.38c-1.65-1.97-3.37-3.52-1.51-5.63"/>
			<path class="st2" d="M45.29,70.28c1.24-2.84,3.11-5.72,5.03-7.13"/>
			<path class="st2" d="M42.3,65.86c3.17-0.51,7.7-2.56,8.65-2.92"/>
			<path class="st2" d="M49.25,68.57c-1.04-1.69-2.2-2.51,0.4-5.09"/>
			<path class="st4" d="M32.58,74.73c1.14-0.49,1.24-1.16,3.85,0.29c2.61,1.45,2.61,1.45,2.61,1.45s-0.36,0.51-0.76,1.1
				c-0.4,0.59-1.64,2.99-3.89,2.62c-2.25-0.37-3.54-0.86-3.94-1.08c-0.39-0.22-1.86-0.68-2.23-0.82"/>
			<path class="st9" d="M35.52,88.88c0.24-1.6-1.59-3.35-0.8-5.42c0.79-2.07,3.58-3.84,4.36-4.49c0.77-0.64,0.21-1.26,0.66,0.39
				s1.04,1.6,1.06,3.13c0.02,1.53-1.63,4.06-2.48,4.42C37.45,87.27,35.52,88.88,35.52,88.88z"/>
			<path class="st5" d="M41.42,78.18c0.11,0.43-0.12,1,0.37,3.1s1.14,3.68,2.82,3.64c1.68-0.04,1.87-0.63,3.15,0
				s1.27,0.63,1.27,0.63s-0.4-1.81-1.1-4.3c-0.7-2.49-3.53-3.02-4.67-3.06C42.12,78.16,41.42,78.18,41.42,78.18z"/>
			<path class="st6" d="M41.11,77.05c0,0,0.82-1.23,0.33-3.21s-0.06-4.38,2.02-4.91c2.09-0.53,3.07-1.49,3.07-1.49
				s-0.31,0.03,0.26,1.72c0.57,1.68,0.01,4.42-1.53,5.54C43.73,75.81,41.11,77.05,41.11,77.05z"/>
			<path class="st7" d="M35.46,65.87c0,0,3.19,1.9,5.1,2.24c1.92,0.34,3,0.3,3.97-1.02c0.97-1.32,1.86-1.94,1.86-1.94
				s-2.49-0.89-3.23-1.7s-2.74-1.41-3.65-0.64S35.46,65.87,35.46,65.87z"/>
			<path class="st8" d="M48.21,66.87c-0.03,0.01-0.28,1.69-0.04,3.55c0.24,1.86,0.5,2.84,1.58,3.32c1.08,0.48,2.15,0.72,3.33,0.96
				c1.18,0.24,1.62,0.2,1.82,0.59c0.2,0.39-0.5-0.43-0.51-2.55c-0.01-2.12,0.3-3.21-0.57-3.88c-0.86-0.66-2.06-0.33-3.19-0.76
				C49.51,67.67,48.21,66.87,48.21,66.87z"/>
		</g>
		<g>
			<path class="st2" d="M28.27,45.76c0.49,1.46,1.88,3.93,2.86,5.68"/>
			<path class="st2" d="M24.95,48.85c2.19,0.18,5.22,1.18,7.04,2.7"/>
			<path class="st2" d="M25.45,52.89c1.89-1.75,3.34-3.54,5.55-1.79"/>
			<path class="st2" d="M35.64,54.37c2.9,1.09,5.86,2.82,7.37,4.66"/>
			<path class="st2" d="M39.91,51.16c0.67,3.14,2.94,7.57,3.35,8.5"/>
			<path class="st2" d="M37.56,58.24c1.64-1.13,2.4-2.32,5.11,0.14"/>
			<path class="st3" d="M30.56,41.89c0.55,1.12,1.22,1.18-0.1,3.86c-1.32,2.68-1.32,2.68-1.32,2.68s-0.53-0.33-1.14-0.7
				c-0.61-0.37-3.07-1.49-2.81-3.75c0.26-2.26,0.68-3.58,0.88-3.98s0.59-1.89,0.71-2.26"/>
			<path class="st4" d="M16.58,45.53c1.61,0.16,3.27-1.76,5.37-1.08s4.02,3.39,4.7,4.13s1.27,0.15-0.35,0.68
				c-1.63,0.53-1.55,1.11-3.07,1.21c-1.53,0.1-4.14-1.42-4.54-2.26S16.58,45.53,16.58,45.53z"/>
			<path class="st5" d="M27.57,50.89c-0.43,0.13-1.01-0.07-3.08,0.53c-2.07,0.6-3.62,1.32-3.5,3c0.12,1.68,0.73,1.84,0.16,3.14
				s-0.57,1.3-0.57,1.3s1.79-0.49,4.24-1.31c2.45-0.82,2.84-3.68,2.82-4.82C27.62,51.59,27.57,50.89,27.57,50.89z"/>
			<path class="st6" d="M28.67,50.53c0,0,1.27,0.76,3.22,0.17c1.95-0.59,4.37-0.28,5,1.77c0.63,2.06,1.65,2.99,1.65,2.99
				s-0.05-0.31-1.7,0.35c-1.65,0.65-4.41,0.23-5.61-1.25C30.04,53.08,28.67,50.53,28.67,50.53z"/>
			<path class="st7" d="M39.56,44.33c0,0-1.73,3.28-1.98,5.21c-0.25,1.93-0.15,3.01,1.22,3.91c1.36,0.9,2.03,1.76,2.03,1.76
				s0.77-2.53,1.54-3.31c0.78-0.77,1.27-2.81,0.46-3.67C42.01,47.36,39.56,44.33,39.56,44.33z"/>
			<path class="st8" d="M39.2,57.11c-0.01-0.03-1.7-0.19-3.55,0.14s-2.81,0.64-3.24,1.75s-0.61,2.19-0.79,3.37
				c-0.18,1.19-0.11,1.63-0.49,1.85s0.41-0.52,2.52-0.63s3.22,0.13,3.84-0.76s0.23-2.07,0.6-3.23C38.46,58.44,39.2,57.11,39.2,57.11
				z"/>
		</g>
		<g>
			<path class="st2" d="M52.47,82.79c0.82-1.31,1.85-3.94,2.58-5.81"/>
			<path class="st2" d="M56.97,83.39c-1.24-1.81-2.4-4.79-2.37-7.16"/>
			<path class="st2" d="M59.77,80.45c-2.55-0.35-4.86-0.34-4.9-3.15"/>
			<path class="st2" d="M54.45,71.63c-0.99-2.93-1.54-6.32-1.06-8.66"/>
			<path class="st2" d="M49.27,70.36c2-2.51,3.99-7.07,4.45-7.98"/>
			<path class="st2" d="M56.24,67.7c-1.91-0.55-3.31-0.38-3.13-4.04"/>
			<path class="st3" d="M48.03,83.46c0.52-1.13,0.14-1.69,3.05-2.37c2.91-0.68,2.91-0.68,2.91-0.68s0.08,0.62,0.18,1.33
				c0.1,0.71,0.79,3.32-1.12,4.55c-1.92,1.23-3.2,1.75-3.64,1.85c-0.44,0.1-1.84,0.75-2.2,0.89"/>
			<path class="st4" d="M59.7,91.97c-0.9-1.35-3.43-1.42-4.24-3.48c-0.81-2.06,0.07-5.25,0.21-6.25c0.14-0.99-0.69-1.08,0.75-0.16
				c1.44,0.92,1.84,0.49,2.88,1.61c1.04,1.12,1.53,4.1,1.13,4.94C60.05,89.48,59.7,91.97,59.7,91.97z"/>
			<path class="st5" d="M56.89,80.08c0.37,0.25,0.59,0.83,2.36,2.05c1.77,1.22,3.32,1.96,4.54,0.81c1.22-1.16,0.96-1.73,2.33-2.11
				c1.37-0.39,1.37-0.39,1.37-0.39s-1.51-1.07-3.7-2.45c-2.19-1.37-4.64,0.14-5.51,0.88C57.4,79.6,56.89,80.08,56.89,80.08z"/>
			<path class="st6" d="M55.9,79.45c0,0-0.22-1.46-1.91-2.6s-2.99-3.2-1.8-4.99s1.27-3.17,1.27-3.17s-0.21,0.23,1.35,1.1
				c1.55,0.87,2.97,3.27,2.59,5.13S55.9,79.45,55.9,79.45z"/>
			<path class="st7" d="M44.21,74.96c0,0,3.63-0.74,5.29-1.77c1.65-1.04,2.42-1.8,2.25-3.42c-0.17-1.63,0.08-2.68,0.08-2.68
				s-2.45,1.01-3.54,0.91c-1.09-0.11-2.98,0.8-3.13,1.97S44.21,74.96,44.21,74.96z"/>
			<path class="st8" d="M54.33,67.14c-0.02,0.03,0.93,1.44,2.36,2.66s2.27,1.77,3.4,1.4c1.13-0.37,2.08-0.91,3.11-1.52
				c1.03-0.61,1.33-0.94,1.75-0.79c0.41,0.15-0.66,0.02-2.09-1.55c-1.43-1.56-1.94-2.58-3.02-2.49c-1.08,0.09-1.75,1.14-2.88,1.58
				C55.83,66.86,54.33,67.14,54.33,67.14z"/>
		</g>
		<g>
			<path class="st2" d="M65.5,30.95c-1.52,0.26-4.17,1.25-6.05,1.95"/>
			<path class="st2" d="M62.95,27.19c-0.52,2.13-1.98,4.98-3.76,6.54"/>
			<path class="st2" d="M58.89,27.06c1.43,2.13,2.98,3.85,0.91,5.76"/>
			<path class="st2" d="M55.85,36.9c-1.53,2.69-3.69,5.36-5.75,6.56"/>
			<path class="st2" d="M58.35,41.61c-3.2,0.17-7.93,1.73-8.91,1.99"/>
			<path class="st2" d="M51.73,38.19c0.86,1.79,1.92,2.73-0.93,5.02"/>
			<path class="st3" d="M68.96,33.82c-1.19,0.37-1.35,1.02-3.79-0.7c-2.44-1.72-2.44-1.72-2.44-1.72s0.41-0.47,0.87-1.02
				c0.46-0.55,1.95-2.8,4.14-2.2c2.2,0.61,3.43,1.23,3.8,1.49s1.78,0.87,2.13,1.05"/>
			<path class="st9" d="M67.53,19.44c-0.41,1.57,1.23,3.5,0.23,5.48s-3.97,3.44-4.81,4c-0.84,0.56-0.34,1.23-0.62-0.45
				c-0.27-1.69-0.86-1.7-0.72-3.22c0.14-1.52,2.05-3.87,2.94-4.14C65.44,20.84,67.53,19.44,67.53,19.44z"/>
			<path class="st4" d="M60.53,29.46c-0.06-0.44,0.23-0.99-0.04-3.12c-0.27-2.14-0.74-3.78-2.42-3.92
				c-1.68-0.14-1.93,0.43-3.13-0.33s-1.2-0.76-1.2-0.76s0.21,1.84,0.64,4.39c0.43,2.55,3.19,3.37,4.32,3.53
				C59.83,29.4,60.53,29.46,60.53,29.46z"/>
			<path class="st6" d="M60.72,30.61c0,0-0.95,1.14-0.67,3.15c0.28,2.02-0.4,4.36-2.53,4.67c-2.13,0.3-3.21,1.16-3.21,1.16
				s0.31,0-0.08-1.73c-0.39-1.73,0.46-4.39,2.1-5.34C57.98,31.56,60.72,30.61,60.72,30.61z"/>
			<path class="st7" d="M65.16,42.32c0,0-2.97-2.22-4.84-2.76c-1.87-0.54-2.95-0.61-4.06,0.6c-1.1,1.21-2.05,1.73-2.05,1.73
				s2.39,1.15,3.03,2.04c0.64,0.89,2.57,1.69,3.56,1.03C61.78,44.28,65.16,42.32,65.16,42.32z"/>
			<path class="st8" d="M52.58,39.98c0.03-0.01,0.46-1.65,0.41-3.53c-0.04-1.88-0.2-2.87-1.22-3.47c-1.03-0.6-2.07-0.95-3.21-1.31
				c-1.15-0.36-1.59-0.37-1.75-0.78s0.45,0.48,0.23,2.59s-0.63,3.16,0.15,3.91c0.79,0.75,2.01,0.55,3.09,1.09
				C51.38,39.05,52.58,39.98,52.58,39.98z"/>
		</g>
		<g>
			<path class="st2" d="M35.62,31.93c-0.14,1.54,0.14,4.35,0.33,6.35"/>
			<path class="st2" d="M31.33,33.42c1.93,1.05,4.3,3.19,5.35,5.32"/>
			<path class="st2" d="M30.16,37.31c2.43-0.84,4.49-1.89,5.8,0.6"/>
			<path class="st2" d="M38.88,42.78c2.21,2.17,4.23,4.94,4.86,7.24"/>
			<path class="st2" d="M44.08,41.57c-0.65,3.14-0.37,8.11-0.37,9.13"/>
			<path class="st2" d="M39.07,47.09c1.95-0.37,3.13-1.16,4.61,2.19"/>
			<path class="st3" d="M39.27,29.32c0.05,1.24,0.64,1.57-1.65,3.49s-2.29,1.92-2.29,1.92s-0.35-0.52-0.76-1.1
				c-0.41-0.59-2.21-2.6-1.06-4.57c1.15-1.97,2.07-3,2.41-3.29s1.3-1.5,1.56-1.78"/>
			<path class="st9" d="M25.01,27c1.41,0.79,3.7-0.29,5.35,1.19c1.65,1.47,2.31,4.72,2.63,5.67s1.11,0.65-0.6,0.48
				c-1.7-0.17-1.87,0.39-3.3-0.13c-1.43-0.53-3.21-2.97-3.24-3.9S25.01,27,25.01,27z"/>
			<path class="st4" d="M32.9,36.34c-0.44-0.05-0.9-0.47-3.03-0.76c-2.13-0.29-3.85-0.25-4.41,1.33c-0.57,1.59-0.08,1.98-1.12,2.94
				c-1.04,0.96-1.04,0.96-1.04,0.96s1.83,0.27,4.41,0.51c2.57,0.24,4.08-2.22,4.52-3.27C32.66,37,32.9,36.34,32.9,36.34z"/>
			<path class="st6" d="M34.06,36.45c0,0,0.86,1.21,2.88,1.46c2.02,0.25,4.11,1.51,3.86,3.64c-0.25,2.14,0.3,3.4,0.3,3.4
				s0.08-0.3-1.7-0.37c-1.77-0.07-4.13-1.57-4.63-3.4S34.06,36.45,34.06,36.45z"/>
			<path class="st7" d="M46.52,35.18c0,0-2.91,2.3-3.91,3.97s-1.35,2.7-0.47,4.07s1.14,2.43,1.14,2.43s1.72-2.01,2.75-2.4
				s2.3-2.05,1.9-3.18S46.52,35.18,46.52,35.18z"/>
			<path class="st8" d="M41.02,46.73c0-0.03-1.47-0.86-3.3-1.31c-1.83-0.44-2.83-0.55-3.67,0.29s-1.45,1.75-2.09,2.77
				c-0.64,1.01-0.76,1.44-1.2,1.49s0.58-0.31,2.56,0.44s2.89,1.42,3.82,0.86s1.04-1.8,1.85-2.71
				C39.81,47.65,41.02,46.73,41.02,46.73z"/>
		</g>
		<g>
			<path class="st2" d="M51.44,27.99c-1.1,1.08-2.71,3.41-3.85,5.06"/>
			<path class="st2" d="M47.2,26.36c0.79,2.05,1.23,5.21,0.66,7.52"/>
			<path class="st2" d="M43.79,28.58c2.4,0.93,4.65,1.45,4.04,4.2"/>
			<path class="st2" d="M46.93,38.39c0.29,3.08,0.04,6.5-0.96,8.67"/>
			<path class="st2" d="M51.68,40.82c-2.53,1.98-5.52,5.96-6.17,6.73"/>
			<path class="st2" d="M44.28,41.8c1.73,0.98,3.14,1.14,2.11,4.65"/>
			<path class="st3" d="M55.92,28.36c-0.76,0.98-0.52,1.61-3.51,1.6c-2.99-0.01-2.99-0.01-2.99-0.01s0.07-0.62,0.13-1.33
				c0.06-0.71-0.01-3.41,2.14-4.17c2.15-0.76,3.52-0.96,3.97-0.96s1.96-0.3,2.35-0.35"/>
			<path class="st9" d="M46.52,17.38c0.56,1.52,3.01,2.17,3.32,4.36s-1.28,5.1-1.65,6.03c-0.37,0.93,0.43,1.21-0.77-0.02
				c-1.19-1.23-1.68-0.9-2.44-2.23s-0.54-4.34,0.04-5.07C45.6,19.72,46.52,17.38,46.52,17.38z"/>
			<path class="st4" d="M46.51,29.6c-0.3-0.32-0.38-0.94-1.82-2.54s-2.77-2.68-4.23-1.83c-1.46,0.85-1.34,1.46-2.76,1.52
				c-1.42,0.06-1.42,0.06-1.42,0.06s1.22,1.39,3.03,3.24c1.81,1.84,4.55,0.94,5.57,0.42S46.51,29.6,46.51,29.6z"/>
			<path class="st6" d="M47.33,30.44c0,0-0.13,1.48,1.26,2.97s2.17,3.81,0.6,5.27c-1.57,1.47-1.97,2.79-1.97,2.79
				s0.25-0.18-1.06-1.38c-1.31-1.2-2.14-3.87-1.33-5.59C45.63,32.79,47.33,30.44,47.33,30.44z"/>
			<path class="st7" d="M57.67,37.51c0,0-3.7-0.12-5.55,0.5c-1.85,0.63-2.77,1.19-2.98,2.81c-0.21,1.62-0.69,2.59-0.69,2.59
				s2.61-0.42,3.65-0.06s3.08-0.09,3.51-1.2C56.02,41.04,57.67,37.51,57.67,37.51z"/>
			<path class="st8" d="M46.01,42.78c0.02-0.02-0.57-1.61-1.68-3.13c-1.11-1.52-1.81-2.25-2.99-2.15c-1.18,0.1-2.24,0.41-3.38,0.76
				s-1.51,0.61-1.88,0.37s0.65,0.14,1.68,1.99c1.03,1.85,1.29,2.96,2.37,3.12c1.07,0.17,1.96-0.7,3.16-0.87
				C44.49,42.7,46.01,42.78,46.01,42.78z"/>
		</g>
		<g>
			<path class="st2" d="M28.23,62.96c1.43,0.57,4.21,1.11,6.18,1.49"/>
			<path class="st2" d="M28.45,67.5c1.56-1.55,4.28-3.22,6.62-3.62"/>
			<path class="st2" d="M31.85,69.72c-0.11-2.57-0.54-4.84,2.22-5.39"/>
			<path class="st2" d="M39.57,62.91c2.71-1.5,5.94-2.65,8.33-2.6"/>
			<path class="st2" d="M39.88,57.58c2.83,1.52,7.67,2.65,8.65,2.94"/>
			<path class="st2" d="M43.76,63.96c0.2-1.98-0.22-3.33,3.41-3.8"/>
			<path class="st3" d="M26.77,58.71c1.21,0.3,1.69-0.17,2.88,2.57c1.19,2.74,1.19,2.74,1.19,2.74s-0.59,0.19-1.27,0.42
				c-0.68,0.23-3.12,1.38-4.68-0.28c-1.56-1.66-2.29-2.83-2.47-3.25c-0.18-0.41-1.07-1.67-1.27-2.01"/>
			<path class="st9" d="M20.5,71.73c1.16-1.13,0.78-3.63,2.66-4.79c1.88-1.16,5.18-0.87,6.19-0.91c1-0.04,0.94-0.88,0.29,0.71
				c-0.65,1.59-0.15,1.9-1.06,3.13s-3.76,2.24-4.66,2C23.01,71.63,20.5,71.73,20.5,71.73z"/>
			<path class="st4" d="M31.69,66.82c-0.17,0.41-0.71,0.72-1.59,2.69s-1.34,3.62,0.02,4.61c1.36,0.99,1.87,0.64,2.5,1.91
				c0.63,1.28,0.63,1.28,0.63,1.28s0.78-1.68,1.74-4.08c0.96-2.4-0.97-4.54-1.85-5.27S31.69,66.82,31.69,66.82z"/>
			<path class="st6" d="M32.13,65.74c0,0,1.4-0.48,2.21-2.34s2.61-3.52,4.59-2.67c1.98,0.85,3.34,0.68,3.34,0.68
				s-0.26-0.16-0.84,1.52s-2.68,3.51-4.58,3.47S32.13,65.74,32.13,65.74z"/>
			<path class="st7" d="M34.44,53.43c0,0,1.38,3.44,2.69,4.88s2.2,2.06,3.77,1.6c1.57-0.46,2.65-0.41,2.65-0.41
				s-1.44-2.22-1.53-3.32c-0.09-1.09-1.32-2.78-2.5-2.73C38.34,53.52,34.44,53.43,34.44,53.43z"/>
			<path class="st8" d="M43.96,61.98c-0.03-0.01-1.25,1.17-2.19,2.79c-0.94,1.63-1.33,2.56-0.76,3.6c0.57,1.04,1.27,1.88,2.06,2.79
				s1.17,1.14,1.09,1.58c-0.08,0.43-0.13-0.65,1.15-2.33s2.19-2.37,1.91-3.42c-0.28-1.05-1.43-1.51-2.07-2.55
				S43.96,61.98,43.96,61.98z"/>
		</g>
		<g>
			<path class="st2" d="M77.15,41.99c-1.5-0.38-4.32-0.53-6.33-0.65"/>
			<path class="st2" d="M76.33,37.53c-1.33,1.74-3.81,3.76-6.07,4.48"/>
			<path class="st2" d="M72.66,35.78c0.46,2.53,1.18,4.73-1.48,5.64"/>
			<path class="st2" d="M65.92,43.57c-2.48,1.85-5.53,3.42-7.9,3.7"/>
			<path class="st2" d="M66.32,48.89c-3.01-1.13-7.96-1.6-8.96-1.76"/>
			<path class="st2" d="M61.63,43.09c0.07,1.99,0.67,3.27-2.87,4.23"/>
			<path class="st3" d="M79.16,46.01c-1.24-0.14-1.65,0.39-3.2-2.16s-1.55-2.56-1.55-2.56s0.56-0.27,1.21-0.58
				c0.64-0.32,2.91-1.79,4.68-0.35c1.77,1.44,2.65,2.5,2.88,2.89c0.23,0.39,1.28,1.51,1.52,1.82"/>
			<path class="st9" d="M83.63,32.27c-1,1.27-0.28,3.7-1.99,5.11c-1.71,1.41-5.02,1.56-6.01,1.73c-0.99,0.17-0.81,0.99-0.38-0.66
				s-0.1-1.9,0.64-3.24c0.74-1.34,3.43-2.72,4.35-2.61C81.16,32.71,83.63,32.27,83.63,32.27z"/>
			<path class="st4" d="M73.2,38.63c0.12-0.43,0.6-0.81,1.21-2.88c0.61-2.07,0.84-3.76-0.64-4.56c-1.48-0.8-1.94-0.38-2.73-1.56
				c-0.79-1.18-0.79-1.18-0.79-1.18s-0.55,1.77-1.18,4.28c-0.63,2.51,1.57,4.37,2.54,4.97C72.58,38.3,73.2,38.63,73.2,38.63z"/>
			<path class="st6" d="M72.91,39.76c0,0-1.32,0.66-1.88,2.62c-0.55,1.96-2.12,3.84-4.19,3.26c-2.07-0.58-3.4-0.22-3.4-0.22
				s0.28,0.12,0.62-1.62c0.34-1.74,2.19-3.84,4.07-4.05S72.91,39.76,72.91,39.76z"/>
			<path class="st7" d="M72.27,52.27c0,0-1.83-3.23-3.32-4.48s-2.46-1.74-3.95-1.08c-1.5,0.66-2.57,0.76-2.57,0.76
				s1.72,2.01,1.96,3.08c0.23,1.07,1.68,2.58,2.85,2.37S72.27,52.27,72.27,52.27z"/>
			<path class="st8" d="M61.69,45.08c0.03,0.01,1.08-1.33,1.8-3.06c0.72-1.74,0.98-2.71,0.27-3.67c-0.7-0.96-1.51-1.7-2.41-2.49
				c-0.9-0.79-1.31-0.97-1.29-1.41c0.02-0.44,0.22,0.62-0.82,2.47s-1.85,2.64-1.43,3.65c0.42,1,1.62,1.31,2.39,2.24
				C60.97,43.74,61.69,45.08,61.69,45.08z"/>
		</g>
		<g>
			<path class="st2" d="M78.17,57.84c-1.02-1.16-3.26-2.88-4.85-4.11"/>
			<path class="st2" d="M80.02,53.7c-2.09,0.68-5.27,0.95-7.54,0.26"/>
			<path class="st2" d="M77.98,50.18c-1.05,2.34-1.7,4.57-4.41,3.82"/>
			<path class="st2" d="M68.02,52.79c-3.1,0.12-6.5-0.3-8.61-1.42"/>
			<path class="st2" d="M65.35,57.41c-1.84-2.63-5.66-5.82-6.4-6.52"/>
			<path class="st2" d="M64.75,49.97c-1.07,1.68-1.3,3.07-4.76,1.86"/>
			<path class="st3" d="M77.57,62.29c-0.94-0.81-1.58-0.61-1.41-3.59s0.17-2.98,0.17-2.98s0.62,0.1,1.33,0.2
				c0.71,0.1,3.41,0.17,4.05,2.36c0.64,2.19,0.77,3.56,0.75,4.01c-0.03,0.45,0.2,1.97,0.23,2.36"/>
			<path class="st9" d="M89.02,53.49c-1.54,0.48-2.32,2.89-4.53,3.09c-2.21,0.19-5.02-1.55-5.94-1.97s-1.23,0.36,0.06-0.76
				c1.29-1.13,0.99-1.63,2.36-2.31c1.37-0.68,4.37-0.31,5.06,0.31C86.73,52.45,89.02,53.49,89.02,53.49z"/>
			<path class="st4" d="M76.82,52.84c0.34-0.29,0.96-0.33,2.63-1.69s2.82-2.63,2.05-4.13c-0.77-1.5-1.39-1.41-1.37-2.83
				c0.01-1.42,0.01-1.42,0.01-1.42s-1.46,1.15-3.39,2.86c-1.93,1.71-1.18,4.49-0.71,5.54C76.5,52.22,76.82,52.84,76.82,52.84z"/>
			<path class="st6" d="M75.94,53.61c0,0-1.47-0.2-3.03,1.1s-3.92,1.97-5.3,0.32c-1.38-1.65-2.68-2.11-2.68-2.11
				s0.16,0.26,1.43-0.98c1.27-1.24,3.97-1.93,5.65-1.04C73.68,51.79,75.94,53.61,75.94,53.61z"/>
			<path class="st7" d="M68.34,63.56c0,0,0.32-3.69-0.21-5.57c-0.53-1.88-1.04-2.83-2.65-3.13c-1.61-0.3-2.55-0.83-2.55-0.83
				s0.28,2.63-0.13,3.65c-0.41,1.02-0.07,3.08,1.01,3.56C64.9,61.73,68.34,63.56,68.34,63.56z"/>
			<path class="st8" d="M63.68,51.65c0.02,0.02,1.64-0.48,3.21-1.51c1.57-1.03,2.34-1.68,2.3-2.87s-0.29-2.25-0.59-3.42
				c-0.3-1.16-0.53-1.54-0.27-1.9c0.26-0.35-0.17,0.64-2.08,1.57c-1.9,0.93-3.02,1.13-3.24,2.2c-0.22,1.06,0.6,2,0.71,3.2
				C63.84,50.14,63.68,51.65,63.68,51.65z"/>
		</g>
		<g>
			<g>
				<path class="st10" d="M52.55,61.01c-0.04-1.54-0.65-4.31-1.07-6.27"/>
				<path class="st10" d="M56.63,59.03c-2.04-0.82-4.65-2.66-5.94-4.65"/>
				<path class="st10" d="M57.34,55.02c-2.31,1.12-4.24,2.41-5.83,0.09"/>
				<path class="st10" d="M48.03,50.62c-2.45-1.9-4.78-4.41-5.68-6.62"/>
				<path class="st10" d="M43.01,52.43c0.28-3.2-0.59-8.1-0.71-9.1"/>
				<path class="st10" d="M47.34,46.36c-1.9,0.6-2.97,1.52-4.84-1.63"/>
				<g>
					<path class="st10" d="M49.23,64.03c-0.2-1.23-0.82-1.48,1.23-3.66c2.05-2.18,2.05-2.18,2.05-2.18s0.41,0.47,0.88,1.01
						c0.48,0.53,2.5,2.33,1.59,4.41c-0.91,2.09-1.7,3.22-2.01,3.55c-0.31,0.33-1.12,1.64-1.34,1.96"/>
				</g>
				<g>
					<path class="st10" d="M63.66,64.66c-1.49-0.62-3.64,0.72-5.45-0.55c-1.81-1.27-2.85-4.42-3.28-5.32
						c-0.43-0.91-1.17-0.51,0.54-0.55c1.71-0.03,1.81-0.61,3.29-0.26s3.54,2.57,3.68,3.49S63.66,64.66,63.66,64.66z"/>
				</g>
				<g>
					<path class="st10" d="M54.73,56.31c0.45,0,0.94,0.36,3.1,0.4c2.15,0.03,3.85-0.2,4.23-1.84c0.38-1.64-0.15-1.97,0.77-3.05
						s0.92-1.08,0.92-1.08s-1.85-0.06-4.44,0.01c-2.58,0.07-3.79,2.68-4.11,3.78C54.89,55.63,54.73,56.31,54.73,56.31z"/>
				</g>
				<g>
					<path class="st10" d="M53.57,56.33c0,0-0.99-1.1-3.03-1.11c-2.03-0.01-4.26-1.01-4.26-3.16c0-2.15-0.7-3.34-0.7-3.34
						s-0.04,0.31,1.73,0.17s4.28,1.08,4.99,2.84C53.01,53.49,53.57,56.33,53.57,56.33z"/>
				</g>
				<g>
					<path class="st10" d="M41.35,59.07c0,0,2.62-2.62,3.42-4.4c0.8-1.78,1.02-2.84-0.02-4.1c-1.04-1.26-1.42-2.28-1.42-2.28
						s-1.48,2.2-2.44,2.71c-0.97,0.51-2.04,2.31-1.52,3.38C39.89,55.45,41.35,59.07,41.35,59.07z"/>
				</g>
				<g>
					<path class="st10" d="M45.44,46.95c0,0.03,1.57,0.68,3.43,0.91s2.87,0.21,3.61-0.72c0.73-0.93,1.23-1.91,1.75-2.99
						s0.59-1.52,1.02-1.63c0.43-0.1-0.54,0.38-2.6-0.13c-2.06-0.51-3.04-1.07-3.9-0.4c-0.85,0.67-0.83,1.91-1.52,2.91
						S45.44,46.95,45.44,46.95z"/>
				</g>
			</g>
		</g>
	</g>
	<g>
		<path class="st11" d="M39.61,75.79c-0.28-0.65-0.33-0.96-0.87-1.48s-2.26-1.23-3.37-0.96c-1.11,0.27-3.41,1.99-3.85,2.72
			c-0.44,0.73-1.82,3.71-1.24,5.13c0.58,1.41,1.4,2.12,2.8,2.48c1.4,0.36,5.76-3.64,5.8-3.7C38.91,79.92,39.61,75.79,39.61,75.79z"
			/>
		<path class="st12" d="M40.56,75.92c-0.1-0.06-0.96-0.62-1.51-0.75c-0.55-0.13-2,0.44-2.76,1.02c-0.76,0.58-3.02,3.06-3.51,4.45
			c-0.48,1.39-0.63,2.33-0.18,3.03c0.44,0.7,3.17,2.87,5.46,1.88c2.28-0.99,4.06-3.72,4.32-4.38s0.55-2.43,0.09-3.23
			C42.01,77.14,40.83,76.08,40.56,75.92z"/>
		
			<ellipse transform="matrix(0.602 -0.7985 0.7985 0.602 -47.6477 62.4521)" class="st13" cx="38.82" cy="79.02" rx="1.72" ry="1.5"/>
		<path class="st13" d="M37.01,75.5c0.02,0.01,0.03,0.03,0.05,0.04c0.07-0.53-0.11-1.06-0.53-1.37c-0.66-0.5-1.66-0.29-2.24,0.47
			c-0.56,0.74-0.5,1.73,0.11,2.24c0.04-0.31,0.16-0.63,0.37-0.91C35.35,75.22,36.35,75.01,37.01,75.5z"/>
	</g>
	<g>
		<path class="st11" d="M30.61,56.51c-0.11-0.7-0.07-1.01-0.46-1.65c-0.39-0.64-1.87-1.77-3.02-1.79c-1.14-0.03-3.81,1.05-4.42,1.64
			c-0.61,0.59-2.71,3.12-2.51,4.64s0.81,2.41,2.07,3.11c1.26,0.7,6.5-2.05,6.55-2.09C28.88,60.33,30.61,56.51,30.61,56.51z"/>
		<path class="st12" d="M31.5,56.88c-0.09-0.09-0.77-0.85-1.27-1.11c-0.5-0.27-2.05-0.09-2.93,0.28c-0.88,0.36-3.7,2.18-4.53,3.4
			c-0.82,1.22-1.2,2.09-0.95,2.88s2.33,3.59,4.79,3.21s4.88-2.56,5.3-3.12c0.41-0.57,1.15-2.2,0.91-3.1
			C32.59,58.43,31.72,57.11,31.5,56.88z"/>
		
			<ellipse transform="matrix(0.7864 -0.6177 0.6177 0.7864 -30.5128 30.6225)" class="st13" cx="29.03" cy="59.43" rx="1.72" ry="1.5"/>
		<path class="st13" d="M28.18,55.57c0.01,0.02,0.02,0.03,0.04,0.05c0.2-0.5,0.16-1.05-0.16-1.46c-0.51-0.65-1.53-0.7-2.28-0.11
			c-0.73,0.57-0.93,1.54-0.47,2.19c0.12-0.29,0.32-0.56,0.59-0.78C26.64,54.87,27.67,54.92,28.18,55.57z"/>
	</g>
	<g>
		<path class="st11" d="M35.01,36c0.38-0.59,0.61-0.81,0.74-1.55c0.12-0.74-0.25-2.56-1.09-3.33c-0.84-0.77-3.56-1.71-4.41-1.66
			c-0.85,0.04-4.1,0.57-4.94,1.84s-0.97,2.35-0.48,3.71c0.49,1.36,6.24,2.73,6.31,2.73C31.19,37.74,35.01,36,35.01,36z"/>
		<path class="st12" d="M35.44,36.86c-0.01-0.12-0.03-1.15-0.23-1.68c-0.2-0.53-1.49-1.41-2.39-1.72c-0.9-0.31-4.22-0.79-5.65-0.41
			c-1.42,0.38-2.28,0.78-2.61,1.55c-0.33,0.76-0.6,4.23,1.5,5.57s5.36,1.28,6.05,1.12c0.68-0.16,2.32-0.9,2.72-1.73
			C35.23,38.74,35.45,37.17,35.44,36.86z"/>
		
			<ellipse transform="matrix(0.0512 -0.9987 0.9987 0.0512 -6.8493 67.1063)" class="st13" cx="31.89" cy="37.16" rx="1.5" ry="1.72"/>
		<path class="st13" d="M33.79,33.69c0,0.02,0,0.04-0.01,0.06c0.48-0.24,0.81-0.69,0.84-1.21c0.04-0.83-0.69-1.54-1.65-1.59
			c-0.93-0.05-1.71,0.55-1.79,1.35c0.28-0.14,0.61-0.22,0.96-0.2C33.1,32.15,33.83,32.86,33.79,33.69z"/>
	</g>
	<g>
		<path class="st11" d="M48.88,20.44c-0.61-0.35-0.84-0.57-1.58-0.66c-0.74-0.09-2.55,0.38-3.27,1.26
			c-0.73,0.88-1.52,3.65-1.44,4.49s0.78,4.06,2.1,4.84c1.32,0.78,2.39,0.85,3.73,0.29s2.4-6.37,2.4-6.44S48.88,20.44,48.88,20.44z"
			/>
		<path class="st12" d="M49.72,19.98c-0.12,0.01-1.14,0.09-1.66,0.31c-0.52,0.23-1.33,1.56-1.59,2.48
			c-0.26,0.92-0.57,4.26-0.12,5.66c0.45,1.4,0.9,2.23,1.68,2.53c0.78,0.29,4.26,0.38,5.49-1.78s1-5.42,0.81-6.09
			s-1.02-2.27-1.87-2.63C51.61,20.08,50.03,19.94,49.72,19.98z"/>
		<ellipse class="st13" cx="50.2" cy="23.5" rx="1.5" ry="1.72"/>
		<path class="st13" d="M46.63,21.78c0.02,0,0.04,0,0.06,0c-0.27-0.47-0.73-0.78-1.25-0.78c-0.83,0-1.5,0.77-1.5,1.72
			c0,0.93,0.64,1.68,1.44,1.72c-0.16-0.27-0.25-0.6-0.25-0.95C45.13,22.55,45.8,21.78,46.63,21.78z"/>
	</g>
	<g>
		<path class="st11" d="M65.55,32.83c-0.2,0.68-0.37,0.95-0.28,1.69c0.08,0.74,0.95,2.39,1.97,2.9c1.02,0.51,3.9,0.66,4.7,0.38
			c0.8-0.28,3.78-1.68,4.24-3.14c0.46-1.46,0.28-2.52-0.56-3.7s-6.75-0.9-6.82-0.88C68.74,30.1,65.55,32.83,65.55,32.83z"/>
		<path class="st12" d="M64.9,32.11c0.04,0.12,0.34,1.09,0.68,1.55c0.34,0.46,1.82,0.95,2.77,0.99c0.95,0.05,4.28-0.41,5.54-1.16
			c1.26-0.76,1.97-1.38,2.08-2.21c0.11-0.83-0.59-4.24-2.98-4.94c-2.39-0.71-5.51,0.25-6.12,0.59c-0.61,0.34-1.98,1.51-2.14,2.42
			S64.8,31.82,64.9,32.11z"/>
		
			<ellipse transform="matrix(0.974 -0.2263 0.2263 0.974 -5.2117 16.2433)" class="st13" cx="68.23" cy="30.85" rx="1.72" ry="1.5"/>
		<path class="st13" d="M67.36,34.71c0-0.02-0.01-0.04-0.01-0.06c-0.39,0.37-0.59,0.88-0.47,1.39c0.19,0.81,1.09,1.29,2.02,1.07
			c0.9-0.21,1.5-1,1.35-1.79c-0.23,0.21-0.53,0.38-0.87,0.46C68.45,36,67.54,35.52,67.36,34.71z"/>
	</g>
	<g>
		<path class="st11" d="M78.63,49.67c-0.7,0.11-1.01,0.08-1.65,0.48c-0.64,0.4-1.75,1.89-1.76,3.03c-0.02,1.14,1.09,3.8,1.69,4.4
			c0.59,0.6,3.15,2.68,4.66,2.47c1.51-0.22,2.4-0.84,3.09-2.1c0.69-1.26-2.11-6.48-2.15-6.53C82.47,51.37,78.63,49.67,78.63,49.67z"
			/>
		<path class="st12" d="M78.99,48.78c-0.09,0.09-0.84,0.78-1.1,1.28s-0.07,2.05,0.31,2.93c0.37,0.88,2.22,3.68,3.45,4.49
			c1.23,0.81,2.1,1.18,2.89,0.92c0.79-0.26,3.56-2.37,3.17-4.82s-2.61-4.86-3.18-5.26s-2.22-1.13-3.11-0.88
			C80.53,47.68,79.22,48.56,78.99,48.78z"/>
		
			<ellipse transform="matrix(0.7803 -0.6254 0.6254 0.7803 -14.1197 62.2733)" class="st13" cx="81.57" cy="51.23" rx="1.5" ry="1.72"/>
		<path class="st13" d="M77.71,52.12c0.02-0.01,0.03-0.02,0.05-0.04c-0.5-0.2-1.05-0.15-1.46,0.18c-0.65,0.52-0.69,1.54-0.09,2.28
			c0.58,0.72,1.55,0.91,2.2,0.44c-0.29-0.11-0.57-0.31-0.79-0.59C77.03,53.66,77.07,52.64,77.71,52.12z"/>
	</g>
	<g>
		<path class="st11" d="M75.32,65.26c-0.7-0.04-1-0.15-1.71,0.1c-0.71,0.25-2.12,1.45-2.39,2.56c-0.27,1.11,0.22,3.95,0.66,4.67
			c0.45,0.72,2.47,3.32,4,3.45c1.52,0.13,2.53-0.28,3.48-1.36s-0.61-6.78-0.64-6.85C78.68,67.77,75.32,65.26,75.32,65.26z"/>
		<path class="st12" d="M75.88,64.47c-0.1,0.06-0.99,0.58-1.36,1.01c-0.37,0.43-0.52,1.98-0.35,2.92c0.17,0.94,1.34,4.08,2.36,5.15
			c1.02,1.07,1.78,1.62,2.61,1.54c0.83-0.07,4-1.51,4.16-4c0.16-2.48-1.46-5.32-1.92-5.84c-0.47-0.52-1.91-1.6-2.83-1.55
			C77.62,63.74,76.14,64.31,75.88,64.47z"/>
		<ellipse transform="matrix(0.9 -0.4359 0.4359 0.9 -21.6096 40.6702)" class="st13" cx="77.84" cy="67.44" rx="1.5" ry="1.72"/>
		<path class="st13" d="M73.88,67.44c0.02-0.01,0.04-0.02,0.06-0.02c-0.44-0.3-0.99-0.38-1.46-0.15c-0.75,0.36-1.01,1.35-0.6,2.21
			c0.4,0.84,1.31,1.24,2.04,0.92c-0.26-0.18-0.48-0.43-0.64-0.75C72.87,68.79,73.14,67.8,73.88,67.44z"/>
	</g>
	<g>
		<path class="st11" d="M59.11,77.59c-0.61-0.35-0.84-0.57-1.58-0.66c-0.74-0.09-2.55,0.38-3.27,1.26
			c-0.73,0.88-1.52,3.65-1.44,4.49s0.78,4.06,2.1,4.84s2.39,0.85,3.73,0.29c1.33-0.55,2.4-6.37,2.4-6.44S59.11,77.59,59.11,77.59z"
			/>
		<path class="st12" d="M59.95,77.12c-0.12,0.01-1.14,0.09-1.66,0.31c-0.52,0.23-1.33,1.56-1.59,2.48s-0.57,4.26-0.12,5.66
			c0.45,1.4,0.9,2.23,1.68,2.53c0.78,0.29,4.26,0.38,5.49-1.78c1.23-2.16,1-5.42,0.81-6.09c-0.19-0.68-1.02-2.27-1.87-2.63
			C61.84,77.23,60.26,77.09,59.95,77.12z"/>
		<ellipse class="st13" cx="60.43" cy="80.65" rx="1.5" ry="1.72"/>
		<path class="st13" d="M56.86,78.92c0.02,0,0.04,0,0.06,0c-0.27-0.47-0.73-0.78-1.25-0.78c-0.83,0-1.5,0.77-1.5,1.72
			c0,0.93,0.64,1.68,1.44,1.72c-0.16-0.27-0.25-0.6-0.25-0.95C55.36,79.7,56.04,78.92,56.86,78.92z"/>
	</g>
	<g>
		<path class="st11" d="M64.1,49.58c-0.61-0.35-0.84-0.57-1.58-0.66c-0.74-0.09-2.55,0.38-3.27,1.26c-0.73,0.88-1.52,3.65-1.44,4.49
			s0.78,4.06,2.1,4.84s2.39,0.85,3.73,0.29c1.33-0.55,2.4-6.37,2.4-6.44S64.1,49.58,64.1,49.58z"/>
		<path class="st12" d="M64.94,49.12c-0.12,0.01-1.14,0.09-1.66,0.31c-0.52,0.23-1.33,1.56-1.59,2.48s-0.57,4.26-0.12,5.66
			c0.45,1.4,0.9,2.23,1.68,2.53c0.78,0.29,4.26,0.38,5.49-1.78s1-5.42,0.81-6.09c-0.19-0.68-1.02-2.27-1.87-2.63
			C66.83,49.22,65.26,49.08,64.94,49.12z"/>
		<ellipse class="st13" cx="65.42" cy="52.64" rx="1.5" ry="1.72"/>
		<path class="st13" d="M61.86,50.92c0.02,0,0.04,0,0.06,0c-0.27-0.47-0.73-0.78-1.25-0.78c-0.83,0-1.5,0.77-1.5,1.72
			c0,0.93,0.64,1.68,1.44,1.72c-0.16-0.27-0.25-0.6-0.25-0.95C60.36,51.69,61.03,50.92,61.86,50.92z"/>
	</g>
	<g>
		<path class="st11" d="M50.53,52.03c-0.3-0.64-0.35-0.95-0.91-1.45c-0.56-0.5-2.29-1.17-3.4-0.87c-1.1,0.3-3.36,2.09-3.78,2.82
			s-1.72,3.76-1.1,5.16s1.46,2.08,2.86,2.4s5.65-3.8,5.7-3.85C49.94,56.18,50.53,52.03,50.53,52.03z"/>
		<path class="st12" d="M51.48,52.14c-0.11-0.06-0.98-0.59-1.53-0.71c-0.55-0.12-1.99,0.5-2.73,1.09s-2.94,3.14-3.38,4.54
			c-0.45,1.4-0.56,2.34-0.1,3.03s3.25,2.78,5.51,1.73c2.26-1.05,3.96-3.83,4.2-4.49c0.24-0.66,0.48-2.44,0-3.23
			C52.96,53.32,51.76,52.29,51.48,52.14z"/>
		
			<ellipse transform="matrix(0.5802 -0.8145 0.8145 0.5802 -24.1118 63.7944)" class="st13" cx="49.83" cy="55.29" rx="1.72" ry="1.5"/>
		<path class="st13" d="M47.92,51.82c0.02,0.01,0.03,0.03,0.05,0.04c0.05-0.54-0.14-1.05-0.57-1.36c-0.67-0.48-1.67-0.24-2.22,0.53
			c-0.54,0.76-0.46,1.74,0.17,2.24c0.03-0.31,0.15-0.63,0.35-0.92C46.25,51.58,47.25,51.34,47.92,51.82z"/>
	</g>
</g>
</svg>
