<?xml version="1.0" encoding="utf-8"?>
<svg version="1.1" id="Layer_1" x="0px" y="0px" viewBox="0 0 108 108" style="enable-background:new 0 0 108 108;" xmlns="http://www.w3.org/2000/svg">
  <style type="text/css">
	.st0{opacity:0.84;}
	.st1{fill-rule:evenodd;clip-rule:evenodd;fill:#698E3C;}
	.st2{fill:none;stroke:#718537;stroke-width:1.0129;stroke-miterlimit:10;}
	.st3{fill:#7AB242;}
	.st4{fill:#4F9844;}
	.st5{fill:#6B9F41;}
	.st6{fill:#78B354;}
	.st7{fill:#68AD44;}
	.st8{fill:#D84456;}
	.st9{fill:#C44C29;}
	.st10{fill:#DC7079;}
</style>
  <g>
    <path class="st1" d="M 77.98 74.78 C 77.89 74.74 77.88 74.7 77.84 74.65 C 77.84 74.65 77.84 74.65 77.86 74.67 C 77.89 74.72 77.97 74.74 77.98 74.78 C 81.46 77.27 88.01 70.87 81.71 68.35 C 81.41 68.39 81.04 68.27 80.75 68.04 C 81.09 68.15 81.37 68.25 81.7 68.35 C 82.28 68.37 82.84 68.04 83.22 67.62 C 84.35 67.75 85.72 66.76 84.49 65.09 C 86.1 65.4 86.04 63.75 85.41 62.85 C 88.27 62.6 90.27 60.72 90.68 58.04 C 91.18 55.03 89.69 50.64 86.41 49.91 C 86.34 49.8 86.33 49.72 86.3 49.66 C 88.17 49.33 88.99 47.86 87.5 46.34 C 89.43 45.88 89.1 42.77 85.79 44.63 C 88.95 43.86 88.8 39.36 86.72 38.24 C 86.72 37.3 86.56 36.42 86.16 35.67 C 85.27 33.85 83.2 32.68 81.03 32.58 C 81.13 30.61 79.12 29.26 77.28 29.86 C 76.72 28.92 75.88 28.15 74.92 27.77 C 75.65 25.35 71.76 23.3 70.13 26.1 C 70.24 24.89 69.47 24.12 68.54 23.82 C 67.93 22.42 66.6 22.31 65.34 22.78 C 65.18 22.67 64.99 22.63 64.81 22.53 C 64.54 19.96 62.77 17.68 60.54 17.08 C 57.81 16.29 54.4 18.12 53.45 21.03 C 53.16 21.01 52.89 20.95 52.64 21.01 C 50.34 18.13 43.18 19.53 46.32 24.81 C 46.52 24.98 46.67 25.25 46.8 25.5 C 46.8 25.5 46.8 25.5 46.82 25.52 C 46.64 25.25 46.48 25.06 46.32 24.81 C 45.07 23.83 42.68 24.87 43.19 26.48 C 42.27 26.54 41.41 26.9 40.83 27.5 C 38.28 25.26 35.11 25.47 32.91 27.56 C 30.46 29.9 28.82 35.12 32.24 37.51 C 30.29 35.67 28.04 36.28 28.36 38.81 C 26.51 38 24.92 40.69 28.67 41.19 C 24.82 39.54 21.49 46.12 25.86 47.12 C 22.6 47.45 23 52.36 26.21 52.84 C 23.86 53.91 24.12 56.5 25.63 57.65 C 25.43 58.36 25.63 59.13 26.96 59.53 C 25.81 60.07 26.15 60.93 26.83 61.47 C 25.22 63.08 27.02 66.61 29.83 65.44 C 29.05 66.32 29.18 67.42 29.76 68.22 C 29.4 69.72 30.37 70.64 31.64 71 C 31.94 71.96 32.52 72.42 33.41 72.53 C 33.51 72.91 33.88 73.3 34.48 73.64 C 34.9 74.89 35.85 75.4 36.57 74.92 C 36.62 74.77 36.7 74.61 36.81 74.46 C 36.84 74.46 36.92 74.5 36.97 74.48 C 36.84 74.65 36.72 74.83 36.57 74.92 C 36.08 76.38 37.69 77.78 39.34 78.22 C 39.36 78.93 39.79 79.45 40.38 79.85 C 40.83 81.63 41.94 83.23 43.45 83.9 C 46.06 85.17 49.78 83.98 51.19 81.22 C 51.33 81.16 51.52 81.22 51.65 81.16 C 51.71 81.22 51.83 81.27 51.89 81.33 C 53.15 83.82 57.72 84.42 58.91 82 C 60.02 82.33 61.32 82.11 62.31 81.44 C 63.02 81.29 63.64 80.79 63.9 79.98 C 64.49 81.92 67.05 81 66.71 78.81 C 66.73 78.83 66.78 78.83 66.81 78.81 C 67.91 82.49 72.15 84.31 75.04 83.16 C 78.05 81.99 79.73 77.81 77.98 74.78 Z"/>
    <path class="st2" d="M 79.45 36.32 C 77.06 36.72 72.9 38.28 69.95 39.38"/>
    <path class="st2" d="M 75.45 30.42 C 74.63 33.77 72.35 38.23 69.54 40.69"/>
    <path class="st2" d="M 69.07 30.22 C 71.32 33.57 73.75 36.27 70.5 39.26"/>
    <path class="st2" d="M 64.29 45.66 C 61.89 49.89 58.49 54.07 55.26 55.96"/>
    <path class="st2" d="M 68.23 53.06 C 63.2 53.33 55.78 55.77 54.24 56.18"/>
    <path class="st2" d="M 57.82 47.68 C 59.17 50.5 60.84 51.96 56.35 55.56"/>
    <ellipse transform="matrix(0.177099, -0.984193, 0.984193, 0.177099, 38.544063, 94.726708)" class="st3" cx="75.92" cy="24.31" rx="8.14" ry="3.2"/>
    <ellipse transform="matrix(0.978021, -0.208505, 0.208505, 0.978021, -5.375869, 18.499347)" class="st4" cx="85.05" cy="34.74" rx="8.14" ry="3.2"/>
    <ellipse transform="matrix(0.999391, -0.0349, 0.0349, 0.999391, -1.795703, 2.616361)" class="st5" cx="73.94" cy="52.7" rx="8.14" ry="3.2"/>
    <ellipse transform="matrix(0.533195, -0.845992, 0.845992, 0.533195, -12.981004, 64.938112)" class="st6" cx="52.35" cy="44.23" rx="3.2" ry="8.14"/>
    <ellipse transform="matrix(0.559215, -0.829023, 0.829023, 0.559215, -5.114145, 73.361867)" class="st7" cx="66.43" cy="41.49" rx="8.14" ry="3.2"/>
    <ellipse transform="matrix(0.650717, -0.75932, 0.75932, 0.650717, 2.75589, 57.271837)" class="st3" cx="63.63" cy="25.64" rx="3.2" ry="8.14"/>
    <path class="st2" d="M 49.45 25.12 C 48.9 27.48 48.73 31.92 48.6 35.07"/>
    <path class="st2" d="M 42.46 26.52 C 45.23 28.57 48.47 32.4 49.64 35.94"/>
    <path class="st2" d="M 39.81 32.32 C 43.77 31.54 47.2 30.34 48.7 34.49"/>
    <path class="st2" d="M 52.2 42.7 C 55.17 46.55 57.71 51.29 58.21 55.01"/>
    <path class="st2" d="M 60.55 41.93 C 58.86 46.68 58.24 54.46 58.02 56.04"/>
    <path class="st2" d="M 51.56 49.45 C 54.68 49.3 56.68 48.32 58.27 53.85"/>
    <ellipse transform="matrix(0.543691, -0.839286, 0.839286, 0.543691, -3.02761, 41.887688)" class="st3" cx="37.01" cy="23.73" rx="3.2" ry="8.14"/>
    <ellipse transform="matrix(0.185605, -0.982625, 0.982625, 0.185605, 21.842093, 65.022145)" class="st4" cx="50.15" cy="19.33" rx="8.14" ry="3.2"/>
    <ellipse transform="matrix(0.353982, -0.935252, 0.935252, 0.353982, 6.171378, 81.972375)" class="st5" cx="62.42" cy="36.52" rx="8.14" ry="3.2"/>
    <ellipse transform="matrix(0.81871, -0.574207, 0.574207, 0.81871, -22.138543, 36.208691)" class="st6" cx="46.27" cy="53.16" rx="8.14" ry="3.2"/>
    <ellipse transform="matrix(0.836135, -0.548523, 0.548523, 0.836135, -13.397735, 33.384257)" class="st7" cx="49.18" cy="39.11" rx="3.2" ry="8.14"/>
    <ellipse transform="matrix(0.893586, -0.448893, 0.448893, 0.893586, -12.405463, 18.813669)" class="st3" cx="33.48" cy="35.57" rx="8.14" ry="3.2"/>
    <path class="st2" d="M 30.28 44.49 C 31.82 46.36 35.24 49.19 37.66 51.21"/>
    <path class="st2" d="M 27.15 50.89 C 30.46 49.93 35.47 49.69 38.99 50.9"/>
    <path class="st2" d="M 30.15 56.52 C 31.93 52.9 33.06 49.45 37.27 50.78"/>
    <path class="st2" d="M 45.92 52.97 C 50.78 52.95 56.1 53.81 59.35 55.67"/>
    <path class="st2" d="M 50.38 45.87 C 53.12 50.1 58.94 55.31 60.06 56.44"/>
    <path class="st2" d="M 50.9 57.57 C 52.67 55 53.11 52.82 58.47 54.91"/>
    <ellipse transform="matrix(0.941536, -0.336913, 0.336913, 0.941536, -16.772756, 10.413665)" class="st3" cx="21.62" cy="53.53" rx="8.14" ry="3.2"/>
    <ellipse transform="matrix(0.74399, -0.668191, 0.668191, 0.74399, -20.322067, 27.791472)" class="st4" cx="26.11" cy="40.42" rx="3.2" ry="8.14"/>
    <ellipse transform="matrix(0.849042, -0.528326, 0.528326, 0.849042, -14.588829, 31.150511)" class="st5" cx="47.22" cy="41.1" rx="3.2" ry="8.14"/>
    <ellipse transform="matrix(0.040699, -0.999171, 0.999171, 0.040699, -15.403415, 112.021327)" class="st6" cx="50.63" cy="64.03" rx="8.14" ry="3.2"/>
    <ellipse transform="matrix(0.071702, -0.997426, 0.997426, 0.071702, -14.77686, 90.510876)" class="st7" cx="41.24" cy="53.19" rx="3.2" ry="8.14"/>
    <ellipse transform="matrix(0.185798, -0.982588, 0.982588, 0.185798, -38.889575, 80.113995)" class="st3" cx="28.89" cy="63.52" rx="8.14" ry="3.2"/>
    <path class="st2" d="M 34.42 64.09 C 36.73 64.82 41.14 65.32 44.27 65.69"/>
    <path class="st2" d="M 35.29 71.16 C 37.54 68.55 41.61 65.62 45.22 64.71"/>
    <path class="st2" d="M 40.88 74.24 C 40.4 70.23 39.47 66.73 43.72 65.54"/>
    <path class="st2" d="M 52.16 62.67 C 56.22 60 61.15 57.82 64.89 57.61"/>
    <path class="st2" d="M 52.02 54.29 C 56.62 56.34 64.34 57.54 65.9 57.88"/>
    <path class="st2" d="M 58.84 63.81 C 58.92 60.69 58.1 58.62 63.73 57.46"/>
    <ellipse transform="matrix(0.605585, -0.79578, 0.79578, 0.605585, -48.125036, 55.668907)" class="st3" cx="32.1" cy="76.39" rx="8.14" ry="3.2"/>
    <ellipse transform="matrix(0.259392, -0.965772, 0.965772, 0.259392, -39.532213, 74.343868)" class="st4" cx="28.71" cy="62.95" rx="3.2" ry="8.14"/>
    <ellipse transform="matrix(0.423701, -0.905802, 0.905802, 0.423701, -20.155049, 72.342743)" class="st5" cx="46.77" cy="52.01" rx="3.2" ry="8.14"/>
    <ellipse transform="matrix(0.85977, -0.510682, 0.510682, 0.85977, -26.709963, 41.463586)" class="st6" cx="62.14" cy="69.37" rx="3.2" ry="8.14"/>
    <ellipse transform="matrix(0.875226, -0.483714, 0.483714, 0.875226, -25.606894, 31.548396)" class="st7" cx="48.36" cy="65.41" rx="8.14" ry="3.2"/>
    <ellipse transform="matrix(0.924988, -0.379995, 0.379995, 0.924988, -27.42951, 22.64523)" class="st3" cx="43.64" cy="80.8" rx="3.2" ry="8.14"/>
    <path class="st2" d="M 79.87 57.71 C 77.8 56.44 73.64 54.89 70.69 53.78"/>
    <path class="st2" d="M 80.73 50.64 C 77.91 52.63 73.26 54.5 69.53 54.51"/>
    <path class="st2" d="M 76.06 46.29 C 75.56 50.29 75.62 53.92 71.21 54.05"/>
    <path class="st2" d="M 62.32 54.81 C 57.73 56.42 52.43 57.35 48.75 56.65"/>
    <path class="st2" d="M 60.43 62.97 C 56.45 59.87 49.25 56.84 47.82 56.14"/>
    <path class="st2" d="M 56.11 52.08 C 55.28 55.09 55.58 57.29 49.83 57.07"/>
    <ellipse transform="matrix(0.779589, -0.626291, 0.626291, 0.779589, -10.25988, 63.508761)" class="st3" cx="85.1" cy="46.33" rx="8.14" ry="3.2"/>
    <ellipse transform="matrix(0.484615, -0.874727, 0.874727, 0.484615, -8.767843, 105.504823)" class="st4" cx="85.15" cy="60.19" rx="3.2" ry="8.14"/>
    <ellipse transform="matrix(0.62961, -0.776912, 0.776912, 0.62961, -27.560805, 75.094232)" class="st5" cx="64.97" cy="66.45" rx="3.2" ry="8.14"/>
    <ellipse transform="matrix(0.957537, -0.288311, 0.288311, 0.957537, -10.930792, 17.587318)" class="st6" cx="54.24" cy="45.89" rx="3.2" ry="8.14"/>
    <ellipse transform="matrix(0.966035, -0.258409, 0.258409, 0.966035, -11.450868, 19.02865)" class="st7" cx="66.67" cy="53.06" rx="8.14" ry="3.2"/>
    <ellipse transform="matrix(0.989314, -0.145802, 0.145802, 0.989314, -4.924912, 11.347211)" class="st3" cx="74.96" cy="39.27" rx="3.2" ry="8.14"/>
    <path class="st2" d="M 63.67 77.02 C 62.52 74.89 59.7 71.45 57.71 69.01"/>
    <path class="st2" d="M 67.97 71.34 C 64.54 71.64 59.58 70.92 56.35 69.06"/>
    <path class="st2" d="M 66.11 65.24 C 63.66 68.45 61.89 71.62 58.02 69.51"/>
    <path class="st2" d="M 49.95 65.69 C 45.17 64.78 40.12 62.91 37.29 60.46"/>
    <path class="st2" d="M 44.21 71.8 C 42.33 67.13 37.63 60.89 36.74 59.56"/>
    <path class="st2" d="M 45.95 60.22 C 43.72 62.4 42.87 64.46 38.01 61.38"/>
    <ellipse transform="matrix(0.988731, -0.149705, 0.149705, 0.988731, -9.62099, 11.848002)" class="st3" cx="73.9" cy="69.81" rx="8.14" ry="3.2"/>
    <ellipse transform="matrix(0.85855, -0.51273, 0.51273, 0.85855, -32.482185, 45.914511)" class="st4" cx="66.98" cy="81.82" rx="3.2" ry="8.14"/>
    <ellipse transform="matrix(0.934746, -0.355317, 0.355317, 0.934746, -24.367652, 21.511889)" class="st5" cx="46.39" cy="77.09" rx="3.2" ry="8.14"/>
    <ellipse transform="matrix(0.231909, -0.972737, 0.972737, 0.231909, -16.016246, 87.575096)" class="st6" cx="47.45" cy="53.93" rx="8.14" ry="3.2"/>
    <ellipse transform="matrix(0.26211, -0.965038, 0.965038, 0.26211, -23.774872, 101.657481)" class="st7" cx="54.59" cy="66.37" rx="3.2" ry="8.14"/>
    <ellipse transform="matrix(0.371098, -0.928594, 0.928594, 0.371098, -11.227074, 100.636023)" class="st3" cx="68.69" cy="58.61" rx="8.14" ry="3.2"/>
    <path class="st8" d="M 78.44 62.85 C 77.81 63.43 77.39 64.14 77.1 64.86 C 76.81 65.59 76.57 66.16 77 67.31 C 77.43 68.46 79.37 71.86 81.6 72.23 C 83.83 72.61 86.29 73.06 87.33 72.27 C 88.37 71.48 88.76 71.02 88.82 70.81 C 88.88 70.6 89.22 69.74 89.22 69.74 C 89.22 69.74 89.9 69.63 90.57 68.04 C 91.24 66.44 90.89 63.87 90.52 63.38 C 90.15 62.89 87.64 59.78 84.38 59.36 C 81.12 58.95 80.49 59.67 79.91 60.47 C 79.31 61.27 78.77 62.54 78.44 62.85 Z"/>
    <path class="st9" d="M 88.8 69.6 C 88.8 69.6 85.1 68.87 83.62 68.29 C 82.14 67.71 86.01 69.77 86.92 70 C 87.84 70.22 88.8 69.6 88.8 69.6 Z"/>
    <path class="st10" d="M 78.49 65.31 C 78.46 65.47 78.13 67.26 78.55 67.84 C 78.97 68.42 80.83 69.79 81.31 70.14 C 81.79 70.49 83.01 71.19 83.54 71.27 C 84.06 71.34 84.49 71.52 85.04 71.49 C 85.58 71.46 86.83 71.2 86.57 71.58 C 86.31 71.96 84.92 72.55 84.58 72.48 C 84.25 72.4 82.21 72.8 81.38 72.32 C 80.55 71.85 79.21 70.54 78.44 69.83 C 77.67 69.12 77.33 68.2 77.11 67.59 C 76.89 66.98 76.87 65.9 77.13 65.52 C 77.39 65.14 77.88 64.74 77.88 64.74 C 77.88 64.74 78.36 64.7 78.52 64.61 C 78.69 64.52 78.58 64.84 78.49 65.31 Z"/>
    <path class="st10" d="M 79.79 60.88 C 79.79 60.88 81.51 61.11 81.99 61.2 C 82.47 61.29 83.16 60.74 83.98 61.02 C 84.8 61.3 84.74 61 85.84 61.6 C 86.94 62.19 86.99 62.22 87.75 62.69 C 88.5 63.16 88.98 63.24 89.22 63.68 C 89.46 64.12 89.3 64.45 89.7 65.17 C 90.1 65.89 90.04 65.94 90 65.34 C 89.96 64.74 89.72 63.89 89.3 63.23 C 88.87 62.57 87.87 61.84 86.86 61.15 C 85.85 60.46 84.35 60.24 83.57 60.09 C 82.79 59.94 81.71 59.97 81.38 60.08 C 81.05 60.19 80.69 60.36 80.48 60.47 C 80.26 60.58 79.79 60.88 79.79 60.88 Z"/>
    <path class="st9" d="M 78.86 63.23 C 78.74 63.54 78.22 64.35 78.94 63.94 C 79.67 63.53 79.7 63.73 79.82 63.2 C 79.94 62.66 80.1 62.38 79.98 62.16 C 79.86 61.94 79.67 61.68 79.48 61.87 C 79.29 62.06 78.96 62.96 78.86 63.23 Z"/>
    <path class="st8" d="M 78.51 44.8 C 78.36 45.64 78.44 46.46 78.64 47.22 C 78.84 47.98 79 48.58 80.02 49.24 C 81.05 49.9 84.64 51.46 86.65 50.43 C 88.66 49.4 90.9 48.29 91.26 47.03 C 91.62 45.77 91.65 45.17 91.57 44.96 C 91.49 44.75 91.25 43.86 91.25 43.86 C 91.25 43.86 91.73 43.37 91.31 41.69 C 90.89 40.01 89.07 38.15 88.48 37.98 C 87.89 37.81 84.01 36.82 81.16 38.44 C 78.3 40.06 78.23 41.01 78.25 42.01 C 78.27 43.01 78.59 44.35 78.51 44.8 Z"/>
    <path class="st9" d="M 90.85 43.99 C 90.85 43.99 87.45 45.63 85.92 46.05 C 84.39 46.47 88.72 45.81 89.59 45.44 C 90.46 45.07 90.85 43.99 90.85 43.99 Z"/>
    <path class="st10" d="M 80.03 46.74 C 80.1 46.89 80.91 48.51 81.59 48.73 C 82.28 48.94 84.59 48.92 85.18 48.92 C 85.77 48.92 87.17 48.74 87.64 48.49 C 88.11 48.24 88.55 48.11 88.97 47.77 C 89.39 47.42 90.23 46.47 90.25 46.92 C 90.27 47.38 89.51 48.69 89.2 48.83 C 88.89 48.97 87.49 50.51 86.55 50.62 C 85.61 50.73 83.74 50.5 82.7 50.39 C 81.65 50.28 80.83 49.75 80.29 49.4 C 79.75 49.05 79.09 48.19 79.07 47.73 C 79.05 47.27 79.2 46.66 79.2 46.66 C 79.2 46.66 79.56 46.34 79.64 46.17 C 79.72 46 79.81 46.31 80.03 46.74 Z"/>
    <path class="st10" d="M 78.41 42.41 C 78.41 42.41 79.93 41.56 80.36 41.35 C 80.8 41.13 81.02 40.28 81.85 40.01 C 82.68 39.74 82.45 39.54 83.68 39.36 C 84.91 39.18 84.98 39.17 85.86 39.09 C 86.74 39.01 87.18 38.8 87.63 39 C 88.08 39.21 88.15 39.57 88.91 39.9 C 89.67 40.23 89.64 40.31 89.26 39.86 C 88.87 39.41 88.17 38.87 87.43 38.59 C 86.69 38.32 85.46 38.34 84.23 38.39 C 83.01 38.44 81.68 39.17 80.96 39.52 C 80.24 39.87 79.4 40.54 79.2 40.82 C 79 41.11 78.82 41.46 78.71 41.67 C 78.61 41.89 78.41 42.41 78.41 42.41 Z"/>
    <path class="st9" d="M 79.07 44.86 C 79.16 45.18 79.23 46.15 79.56 45.38 C 79.9 44.61 80.05 44.76 79.82 44.26 C 79.59 43.76 79.56 43.43 79.33 43.33 C 79.1 43.23 78.79 43.13 78.76 43.4 C 78.73 43.66 78.99 44.58 79.07 44.86 Z"/>
    <path class="st8" d="M 62.45 31.59 C 62.63 32.43 63.03 33.14 63.51 33.77 C 63.99 34.39 64.37 34.89 65.57 35.1 C 66.77 35.31 70.69 35.36 72.14 33.63 C 73.59 31.9 75.23 30.01 75.07 28.71 C 74.91 27.41 74.71 26.84 74.56 26.68 C 74.41 26.52 73.84 25.8 73.84 25.8 C 73.84 25.8 74.09 25.16 73.05 23.78 C 72.01 22.4 69.61 21.39 69 21.46 C 68.39 21.53 64.44 22.12 62.43 24.72 C 60.42 27.32 60.73 28.23 61.13 29.14 C 61.54 30.04 62.36 31.15 62.45 31.59 Z"/>
    <path class="st9" d="M 73.52 26.07 C 73.52 26.07 71.02 28.9 69.77 29.88 C 68.52 30.86 72.26 28.57 72.91 27.89 C 73.57 27.21 73.52 26.07 73.52 26.07 Z"/>
    <path class="st10" d="M 64.61 32.79 C 64.74 32.9 66.11 34.09 66.82 34.02 C 67.53 33.95 69.66 33.04 70.2 32.8 C 70.74 32.56 71.97 31.86 72.3 31.45 C 72.63 31.04 73 30.75 73.25 30.27 C 73.5 29.79 73.91 28.58 74.11 28.99 C 74.31 29.4 74.11 30.91 73.88 31.16 C 73.64 31.41 72.95 33.37 72.13 33.84 C 71.3 34.31 69.5 34.81 68.49 35.12 C 67.48 35.43 66.52 35.25 65.88 35.14 C 65.24 35.02 64.31 34.49 64.11 34.08 C 63.91 33.67 63.82 33.04 63.82 33.04 C 63.82 33.04 64.03 32.61 64.03 32.42 C 64.03 32.23 64.24 32.48 64.61 32.79 Z"/>
    <path class="st10" d="M 61.44 29.43 C 61.44 29.43 62.51 28.06 62.83 27.69 C 63.15 27.32 63.03 26.45 63.68 25.88 C 64.34 25.31 64.05 25.21 65.12 24.57 C 66.19 23.92 66.24 23.89 67.03 23.48 C 67.82 23.07 68.13 22.7 68.63 22.72 C 69.13 22.74 69.33 23.04 70.16 23.06 C 70.98 23.07 70.99 23.15 70.46 22.89 C 69.93 22.62 69.07 22.4 68.28 22.43 C 67.49 22.46 66.36 22.96 65.25 23.48 C 64.14 24 63.19 25.18 62.67 25.79 C 62.15 26.39 61.63 27.33 61.56 27.67 C 61.49 28.01 61.45 28.41 61.44 28.65 C 61.42 28.87 61.44 29.43 61.44 29.43 Z"/>
    <path class="st9" d="M 63 31.43 C 63.2 31.69 63.64 32.56 63.66 31.72 C 63.67 30.88 63.87 30.96 63.46 30.59 C 63.06 30.22 62.9 29.93 62.65 29.92 C 62.4 29.91 62.08 29.95 62.15 30.21 C 62.22 30.47 62.82 31.2 63 31.43 Z"/>
    <path class="st8" d="M 43.2 21.05 C 42.36 21.23 41.64 21.62 41.02 22.1 C 40.4 22.58 39.9 22.95 39.69 24.15 C 39.48 25.35 39.42 29.27 41.14 30.73 C 42.86 32.19 44.75 33.83 46.05 33.68 C 47.35 33.53 47.92 33.33 48.08 33.18 C 48.24 33.03 48.97 32.46 48.97 32.46 C 48.97 32.46 49.61 32.71 51 31.68 C 52.39 30.65 53.4 28.25 53.33 27.64 C 53.26 27.03 52.68 23.07 50.09 21.06 C 47.5 19.05 46.59 19.35 45.67 19.74 C 44.75 20.14 43.64 20.96 43.2 21.05 Z"/>
    <path class="st9" d="M 48.69 32.14 C 48.69 32.14 45.87 29.63 44.9 28.38 C 43.92 27.12 46.2 30.87 46.88 31.53 C 47.54 32.19 48.69 32.14 48.69 32.14 Z"/>
    <path class="st10" d="M 41.99 23.2 C 41.88 23.33 40.69 24.69 40.76 25.41 C 40.83 26.13 41.73 28.25 41.97 28.8 C 42.2 29.35 42.9 30.57 43.31 30.9 C 43.72 31.23 44.01 31.6 44.49 31.85 C 44.97 32.1 46.18 32.51 45.77 32.71 C 45.36 32.91 43.85 32.71 43.6 32.47 C 43.35 32.23 41.4 31.54 40.93 30.71 C 40.46 29.88 39.97 28.07 39.67 27.07 C 39.37 26.06 39.55 25.1 39.66 24.46 C 39.78 23.82 40.31 22.89 40.73 22.69 C 41.15 22.49 41.77 22.4 41.77 22.4 C 41.77 22.4 42.2 22.61 42.39 22.61 C 42.56 22.62 42.31 22.84 41.99 23.2 Z"/>
    <path class="st10" d="M 45.36 20.05 C 45.36 20.05 46.72 21.12 47.09 21.44 C 47.46 21.76 48.33 21.64 48.9 22.3 C 49.46 22.96 49.57 22.68 50.21 23.74 C 50.85 24.81 50.89 24.86 51.29 25.65 C 51.7 26.44 52.07 26.75 52.05 27.25 C 52.03 27.75 51.72 27.95 51.71 28.78 C 51.7 29.61 51.61 29.61 51.88 29.08 C 52.15 28.55 52.38 27.69 52.35 26.91 C 52.32 26.12 51.83 24.99 51.31 23.88 C 50.79 22.77 49.61 21.82 49.01 21.29 C 48.41 20.76 47.47 20.24 47.13 20.17 C 46.79 20.1 46.39 20.06 46.15 20.05 C 45.92 20.03 45.36 20.05 45.36 20.05 Z"/>
    <path class="st9" d="M 43.36 21.6 C 43.1 21.8 42.23 22.24 43.07 22.25 C 43.91 22.26 43.83 22.46 44.2 22.06 C 44.58 21.66 44.86 21.5 44.87 21.25 C 44.88 21 44.85 20.68 44.59 20.75 C 44.33 20.82 43.59 21.42 43.36 21.6 Z"/>
    <path class="st8" d="M 23.88 37.98 C 23.25 38.56 22.83 39.27 22.54 39.99 C 22.25 40.72 22.01 41.29 22.44 42.44 C 22.87 43.58 24.81 46.99 27.04 47.36 C 29.27 47.74 31.73 48.19 32.77 47.4 C 33.81 46.61 34.2 46.15 34.26 45.94 C 34.32 45.73 34.66 44.87 34.66 44.87 C 34.66 44.87 35.34 44.76 36.01 43.17 C 36.68 41.57 36.33 39 35.96 38.51 C 35.59 38.02 33.08 34.91 29.82 34.49 C 26.56 34.08 25.93 34.8 25.35 35.6 C 24.75 36.4 24.21 37.67 23.88 37.98 Z"/>
    <path class="st9" d="M 34.24 44.73 C 34.24 44.73 30.54 44 29.06 43.42 C 27.58 42.84 31.45 44.9 32.36 45.13 C 33.27 45.36 34.24 44.73 34.24 44.73 Z"/>
    <path class="st10" d="M 23.93 40.44 C 23.9 40.6 23.57 42.39 23.99 42.97 C 24.41 43.55 26.27 44.92 26.75 45.27 C 27.23 45.62 28.45 46.32 28.98 46.4 C 29.5 46.47 29.93 46.65 30.48 46.62 C 31.03 46.59 32.27 46.33 32.01 46.71 C 31.75 47.09 30.36 47.68 30.02 47.61 C 29.69 47.53 27.65 47.93 26.82 47.45 C 25.99 46.98 24.65 45.67 23.88 44.96 C 23.11 44.25 22.77 43.33 22.55 42.72 C 22.33 42.11 22.31 41.03 22.57 40.65 C 22.83 40.27 23.32 39.87 23.32 39.87 C 23.32 39.87 23.8 39.83 23.96 39.74 C 24.12 39.64 24.02 39.97 23.93 40.44 Z"/>
    <path class="st10" d="M 25.23 36.01 C 25.23 36.01 26.95 36.24 27.43 36.33 C 27.91 36.42 28.6 35.87 29.42 36.15 C 30.24 36.43 30.18 36.13 31.28 36.73 C 32.38 37.32 32.43 37.35 33.19 37.82 C 33.94 38.29 34.42 38.37 34.66 38.81 C 34.9 39.25 34.74 39.58 35.14 40.3 C 35.54 41.02 35.48 41.07 35.44 40.47 C 35.4 39.88 35.16 39.02 34.74 38.36 C 34.31 37.7 33.31 36.97 32.3 36.28 C 31.29 35.59 29.79 35.37 29.01 35.22 C 28.23 35.07 27.15 35.1 26.82 35.21 C 26.49 35.32 26.13 35.49 25.92 35.6 C 25.7 35.71 25.23 36.01 25.23 36.01 Z"/>
    <path class="st9" d="M 24.29 38.36 C 24.17 38.67 23.65 39.48 24.37 39.07 C 25.1 38.66 25.13 38.86 25.25 38.33 C 25.37 37.79 25.53 37.51 25.41 37.29 C 25.29 37.07 25.1 36.81 24.91 37 C 24.72 37.19 24.4 38.09 24.29 38.36 Z"/>
    <path class="st8" d="M 21.45 63.54 C 21.55 64.39 21.88 65.14 22.3 65.81 C 22.72 66.47 23.05 67 24.22 67.32 C 25.4 67.64 29.29 68.06 30.9 66.47 C 32.51 64.89 34.32 63.16 34.28 61.85 C 34.25 60.54 34.1 59.96 33.96 59.79 C 33.82 59.62 33.32 58.84 33.32 58.84 C 33.32 58.84 33.63 58.23 32.73 56.75 C 31.83 55.27 29.53 54.05 28.92 54.06 C 28.31 54.07 24.31 54.29 22.07 56.69 C 19.83 59.09 20.04 60.02 20.36 60.97 C 20.68 61.92 21.4 63.09 21.45 63.54 Z"/>
    <path class="st9" d="M 33 59.09 C 33 59.09 30.25 61.67 28.91 62.53 C 27.57 63.39 31.51 61.46 32.23 60.85 C 32.94 60.23 33 59.09 33 59.09 Z"/>
    <path class="st10" d="M 23.48 64.94 C 23.6 65.06 24.85 66.37 25.57 66.37 C 26.29 66.37 28.49 65.66 29.05 65.48 C 29.61 65.3 30.9 64.72 31.27 64.33 C 31.64 63.95 32.03 63.7 32.32 63.24 C 32.62 62.78 33.13 61.62 33.29 62.05 C 33.45 62.48 33.11 63.96 32.85 64.19 C 32.59 64.42 31.72 66.3 30.85 66.69 C 29.98 67.08 28.14 67.41 27.11 67.62 C 26.08 67.83 25.14 67.57 24.51 67.39 C 23.88 67.22 23 66.6 22.84 66.16 C 22.68 65.72 22.65 65.1 22.65 65.1 C 22.65 65.1 22.89 64.69 22.92 64.5 C 22.95 64.31 23.15 64.59 23.48 64.94 Z"/>
    <path class="st10" d="M 20.65 61.29 C 20.65 61.29 21.84 60.03 22.19 59.69 C 22.54 59.35 22.5 58.47 23.21 57.97 C 23.92 57.47 23.64 57.34 24.77 56.8 C 25.89 56.26 25.95 56.23 26.77 55.89 C 27.59 55.55 27.94 55.22 28.44 55.28 C 28.94 55.34 29.11 55.67 29.93 55.76 C 30.75 55.85 30.75 55.93 30.25 55.62 C 29.75 55.3 28.91 55 28.13 54.96 C 27.35 54.92 26.17 55.31 25.02 55.72 C 23.87 56.13 22.81 57.22 22.23 57.77 C 21.65 58.32 21.05 59.21 20.94 59.54 C 20.84 59.87 20.77 60.27 20.73 60.5 C 20.68 60.74 20.65 61.29 20.65 61.29 Z"/>
    <path class="st9" d="M 22.01 63.43 C 22.19 63.7 22.54 64.61 22.64 63.78 C 22.73 62.95 22.92 63.04 22.55 62.63 C 22.18 62.22 22.05 61.92 21.8 61.89 C 21.55 61.86 21.23 61.86 21.28 62.13 C 21.32 62.39 21.85 63.19 22.01 63.43 Z"/>
    <path class="st8" d="M 41.29 71.43 C 40.55 70.99 39.76 70.79 38.98 70.71 C 38.2 70.63 37.58 70.57 36.6 71.3 C 35.62 72.03 32.9 74.85 33.16 77.09 C 33.42 79.33 33.68 81.82 34.73 82.6 C 35.78 83.38 36.33 83.62 36.55 83.62 C 36.77 83.62 37.69 83.7 37.69 83.7 C 37.69 83.7 37.98 84.32 39.7 84.52 C 41.42 84.71 43.8 83.66 44.16 83.17 C 44.52 82.68 46.81 79.39 46.29 76.15 C 45.77 72.91 44.91 72.51 43.97 72.17 C 43.04 71.82 41.67 71.66 41.29 71.43 Z"/>
    <path class="st9" d="M 37.71 83.27 C 37.71 83.27 37.37 79.51 37.51 77.93 C 37.66 76.35 36.76 80.64 36.8 81.58 C 36.84 82.52 37.71 83.27 37.71 83.27 Z"/>
    <path class="st10" d="M 38.93 72.17 C 38.76 72.19 36.96 72.37 36.52 72.94 C 36.08 73.51 35.29 75.68 35.09 76.24 C 34.89 76.8 34.56 78.17 34.63 78.69 C 34.71 79.21 34.66 79.68 34.84 80.19 C 35.02 80.71 35.62 81.83 35.18 81.69 C 34.74 81.55 33.78 80.38 33.76 80.03 C 33.74 79.69 32.79 77.84 33.01 76.92 C 33.23 76 34.11 74.34 34.58 73.4 C 35.05 72.46 35.84 71.88 36.36 71.49 C 36.88 71.1 37.91 70.79 38.35 70.93 C 38.79 71.07 39.31 71.43 39.31 71.43 C 39.31 71.43 39.49 71.88 39.62 72.01 C 39.75 72.13 39.41 72.12 38.93 72.17 Z"/>
    <path class="st10" d="M 43.55 72.17 C 43.55 72.17 43.81 73.89 43.86 74.37 C 43.91 74.85 44.63 75.36 44.59 76.23 C 44.55 77.1 44.82 76.96 44.56 78.18 C 44.3 79.4 44.28 79.46 44.05 80.32 C 43.82 81.18 43.86 81.66 43.51 82.01 C 43.16 82.36 42.79 82.3 42.21 82.89 C 41.63 83.48 41.57 83.43 42.13 83.23 C 42.69 83.03 43.44 82.56 43.96 81.96 C 44.47 81.36 44.89 80.2 45.27 79.04 C 45.65 77.88 45.44 76.38 45.36 75.58 C 45.28 74.79 44.95 73.76 44.75 73.48 C 44.55 73.2 44.28 72.9 44.12 72.72 C 43.97 72.54 43.55 72.17 43.55 72.17 Z"/>
    <path class="st9" d="M 41.03 71.93 C 40.7 71.9 39.77 71.63 40.37 72.21 C 40.97 72.79 40.78 72.88 41.33 72.85 C 41.88 72.82 42.2 72.89 42.37 72.72 C 42.55 72.54 42.74 72.29 42.5 72.16 C 42.26 72.03 41.32 71.96 41.03 71.93 Z"/>
    <path class="st8" d="M 65.1 74.73 C 64.27 74.53 63.45 74.57 62.68 74.72 C 61.91 74.88 61.3 75 60.58 75.98 C 59.86 76.97 58.1 80.47 59.01 82.53 C 59.92 84.6 60.9 86.9 62.14 87.33 C 63.38 87.76 63.97 87.83 64.18 87.76 C 64.39 87.69 65.29 87.5 65.29 87.5 C 65.29 87.5 65.75 88.01 67.45 87.68 C 69.15 87.36 71.11 85.65 71.31 85.07 C 71.52 84.49 72.72 80.68 71.27 77.73 C 69.82 74.79 68.87 74.66 67.87 74.61 C 66.89 74.59 65.53 74.84 65.1 74.73 Z"/>
    <path class="st9" d="M 65.18 87.1 C 65.18 87.1 63.74 83.61 63.41 82.06 C 63.08 80.5 63.49 84.87 63.81 85.76 C 64.13 86.64 65.18 87.1 65.18 87.1 Z"/>
    <path class="st10" d="M 63.07 76.14 C 62.92 76.21 61.25 76.91 60.99 77.59 C 60.74 78.26 60.62 80.57 60.59 81.16 C 60.56 81.75 60.65 83.16 60.88 83.64 C 61.11 84.12 61.2 84.57 61.53 85.01 C 61.85 85.45 62.76 86.34 62.3 86.34 C 61.84 86.34 60.57 85.5 60.46 85.18 C 60.34 84.86 58.89 83.38 58.83 82.43 C 58.77 81.48 59.12 79.64 59.29 78.6 C 59.46 77.56 60.04 76.77 60.42 76.25 C 60.8 75.73 61.7 75.12 62.16 75.12 C 62.62 75.12 63.22 75.31 63.22 75.31 C 63.22 75.31 63.52 75.68 63.68 75.77 C 63.84 75.86 63.51 75.95 63.07 76.14 Z"/>
    <path class="st10" d="M 67.48 74.77 C 67.48 74.77 68.24 76.33 68.43 76.78 C 68.62 77.23 69.46 77.5 69.68 78.34 C 69.9 79.18 70.11 78.97 70.23 80.21 C 70.34 81.45 70.35 81.52 70.37 82.4 C 70.39 83.29 70.59 83.73 70.35 84.17 C 70.11 84.61 69.75 84.66 69.37 85.39 C 68.99 86.12 68.92 86.1 69.39 85.74 C 69.86 85.38 70.44 84.71 70.76 83.99 C 71.08 83.27 71.13 82.03 71.15 80.81 C 71.17 79.59 70.52 78.21 70.21 77.48 C 69.9 76.75 69.29 75.86 69.01 75.65 C 68.73 75.44 68.39 75.23 68.19 75.11 C 67.99 74.99 67.48 74.77 67.48 74.77 Z"/>
    <path class="st9" d="M 65 75.29 C 64.68 75.36 63.71 75.37 64.45 75.75 C 65.2 76.13 65.04 76.27 65.55 76.07 C 66.06 75.87 66.39 75.85 66.51 75.63 C 66.63 75.41 66.74 75.1 66.47 75.06 C 66.21 75.01 65.28 75.23 65 75.29 Z"/>
    <path class="st8" d="M 46.15 61.71 C 45.52 62.29 45.1 63 44.81 63.72 C 44.52 64.45 44.28 65.02 44.71 66.17 C 45.14 67.32 47.08 70.72 49.31 71.09 C 51.54 71.47 54 71.92 55.04 71.13 C 56.08 70.34 56.47 69.88 56.53 69.67 C 56.59 69.46 56.93 68.6 56.93 68.6 C 56.93 68.6 57.61 68.49 58.28 66.9 C 58.95 65.3 58.6 62.73 58.23 62.24 C 57.86 61.75 55.35 58.64 52.09 58.22 C 48.83 57.81 48.2 58.53 47.62 59.33 C 47.03 60.13 46.48 61.4 46.15 61.71 Z"/>
    <path class="st9" d="M 56.52 68.46 C 56.52 68.46 52.82 67.73 51.34 67.15 C 49.86 66.57 53.73 68.63 54.64 68.86 C 55.56 69.08 56.52 68.46 56.52 68.46 Z"/>
    <path class="st10" d="M 46.21 64.17 C 46.18 64.33 45.85 66.12 46.27 66.7 C 46.69 67.28 48.55 68.65 49.03 69 C 49.51 69.35 50.73 70.05 51.26 70.13 C 51.78 70.2 52.21 70.38 52.76 70.35 C 53.31 70.32 54.55 70.06 54.29 70.44 C 54.03 70.82 52.64 71.41 52.3 71.34 C 51.96 71.27 49.93 71.66 49.1 71.18 C 48.27 70.7 46.93 69.4 46.16 68.69 C 45.39 67.98 45.05 67.06 44.83 66.45 C 44.61 65.84 44.59 64.76 44.85 64.38 C 45.11 64 45.6 63.6 45.6 63.6 C 45.6 63.6 46.08 63.56 46.24 63.47 C 46.4 63.38 46.29 63.7 46.21 64.17 Z"/>
    <path class="st10" d="M 47.5 59.74 C 47.5 59.74 49.22 59.97 49.7 60.06 C 50.18 60.15 50.87 59.6 51.69 59.88 C 52.51 60.16 52.45 59.86 53.55 60.46 C 54.65 61.05 54.7 61.08 55.46 61.55 C 56.22 62.02 56.69 62.1 56.93 62.54 C 57.17 62.98 57.01 63.31 57.41 64.03 C 57.81 64.75 57.75 64.8 57.71 64.2 C 57.67 63.61 57.43 62.75 57.01 62.09 C 56.58 61.43 55.58 60.7 54.57 60.01 C 53.56 59.32 52.06 59.1 51.28 58.95 C 50.5 58.8 49.42 58.83 49.09 58.94 C 48.76 59.05 48.4 59.22 48.19 59.33 C 47.97 59.44 47.5 59.74 47.5 59.74 Z"/>
    <path class="st9" d="M 46.57 62.09 C 46.45 62.4 45.93 63.21 46.65 62.8 C 47.38 62.39 47.41 62.59 47.53 62.06 C 47.65 61.52 47.81 61.24 47.69 61.02 C 47.57 60.8 47.38 60.54 47.19 60.73 C 47.01 60.93 46.67 61.82 46.57 62.09 Z"/>
    <path class="st8" d="M 54.78 42.31 C 54.15 42.89 53.73 43.6 53.44 44.32 C 53.15 45.05 52.91 45.62 53.34 46.77 C 53.77 47.91 55.71 51.32 57.94 51.69 C 60.17 52.07 62.63 52.52 63.67 51.73 C 64.71 50.94 65.1 50.48 65.16 50.27 C 65.22 50.06 65.56 49.2 65.56 49.2 C 65.56 49.2 66.24 49.09 66.91 47.5 C 67.58 45.9 67.23 43.33 66.86 42.84 C 66.49 42.35 63.98 39.24 60.72 38.82 C 57.46 38.41 56.83 39.13 56.25 39.93 C 55.65 40.74 55.11 42.01 54.78 42.31 Z"/>
    <path class="st9" d="M 65.14 49.07 C 65.14 49.07 61.44 48.34 59.96 47.76 C 58.48 47.18 62.35 49.24 63.26 49.47 C 64.18 49.69 65.14 49.07 65.14 49.07 Z"/>
    <path class="st10" d="M 54.83 44.78 C 54.8 44.94 54.47 46.73 54.89 47.31 C 55.31 47.89 57.17 49.26 57.65 49.61 C 58.13 49.96 59.35 50.66 59.88 50.74 C 60.4 50.81 60.83 50.99 61.38 50.96 C 61.93 50.93 63.17 50.67 62.91 51.05 C 62.65 51.43 61.26 52.02 60.92 51.95 C 60.59 51.87 58.55 52.27 57.72 51.79 C 56.89 51.31 55.55 50.01 54.78 49.3 C 54.01 48.59 53.67 47.67 53.45 47.06 C 53.23 46.45 53.21 45.37 53.47 44.99 C 53.73 44.61 54.22 44.21 54.22 44.21 C 54.22 44.21 54.7 44.17 54.86 44.08 C 55.02 43.98 54.91 44.3 54.83 44.78 Z"/>
    <path class="st10" d="M 56.12 40.34 C 56.12 40.34 57.84 40.57 58.32 40.66 C 58.8 40.75 59.49 40.2 60.31 40.48 C 61.13 40.76 61.07 40.46 62.17 41.06 C 63.27 41.65 63.32 41.68 64.08 42.15 C 64.84 42.62 65.31 42.7 65.55 43.14 C 65.79 43.58 65.63 43.91 66.03 44.63 C 66.43 45.35 66.37 45.4 66.33 44.8 C 66.29 44.21 66.05 43.35 65.63 42.69 C 65.2 42.03 64.2 41.3 63.19 40.61 C 62.18 39.92 60.68 39.7 59.9 39.55 C 59.12 39.4 58.04 39.43 57.71 39.54 C 57.38 39.65 57.02 39.82 56.81 39.93 C 56.6 40.05 56.12 40.34 56.12 40.34 Z"/>
    <path class="st9" d="M 55.19 42.7 C 55.07 43.01 54.55 43.82 55.27 43.41 C 56 43 56.03 43.2 56.15 42.67 C 56.27 42.13 56.43 41.85 56.31 41.63 C 56.19 41.41 56 41.15 55.81 41.34 C 55.63 41.53 55.29 42.43 55.19 42.7 Z"/>
  </g>
</svg>