<?xml version="1.0" encoding="utf-8"?>
<svg version="1.1" id="Layer_1" x="0px" y="0px" viewBox="0 0 108 108" style="enable-background:new 0 0 108 108;" xmlns="http://www.w3.org/2000/svg">
  <style type="text/css">
	.st0{fill-rule:evenodd;clip-rule:evenodd;fill:#698E3C;}
	.st1{fill:none;stroke:#718537;stroke-width:1.0129;stroke-miterlimit:10;}
	.st2{fill:#7AB242;}
	.st3{fill:#4F9844;}
	.st4{fill:#6B9F41;}
	.st5{fill:#78B354;}
	.st6{fill:#68AD44;}
	.st7{fill:#E3C122;}
	.st8{fill:#FEE600;}
	.st9{fill:#FFEDB8;}
</style>
  <g>
    <path class="st0" d="M 75.79 81.06 C 75.7 81.02 75.69 80.98 75.65 80.93 C 75.65 80.93 75.65 80.93 75.67 80.95 C 75.7 81 75.77 81.02 75.79 81.06 C 79.27 83.55 85.82 77.15 79.52 74.63 C 79.22 74.67 78.85 74.55 78.56 74.32 C 78.9 74.43 79.18 74.53 79.51 74.63 C 80.09 74.65 80.65 74.32 81.03 73.9 C 82.16 74.03 83.53 73.04 82.3 71.37 C 83.91 71.68 83.85 70.03 83.22 69.13 C 86.08 68.88 88.08 67 88.49 64.32 C 88.99 61.31 87.5 56.92 84.22 56.19 C 84.15 56.08 84.14 56 84.11 55.94 C 85.98 55.61 86.8 54.14 85.31 52.62 C 87.24 52.16 86.91 49.05 83.6 50.91 C 86.76 50.14 86.61 45.64 84.53 44.52 C 84.53 43.58 84.37 42.7 83.97 41.95 C 83.08 40.13 81.01 38.96 78.84 38.86 C 78.94 36.89 76.93 35.54 75.09 36.14 C 74.53 35.2 73.69 34.43 72.73 34.05 C 73.46 31.63 69.57 29.58 67.94 32.38 C 68.05 31.17 67.28 30.4 66.35 30.1 C 65.74 28.7 64.41 28.59 63.15 29.06 C 62.99 28.95 62.8 28.91 62.62 28.81 C 62.35 26.24 60.58 23.96 58.35 23.36 C 55.62 22.57 52.21 24.4 51.26 27.31 C 50.97 27.29 50.7 27.23 50.45 27.29 C 48.15 24.41 40.99 25.81 44.13 31.09 C 44.33 31.26 44.48 31.53 44.61 31.78 C 44.61 31.78 44.61 31.78 44.63 31.8 C 44.45 31.53 44.29 31.34 44.13 31.09 C 42.88 30.11 40.49 31.15 41 32.76 C 40.08 32.82 39.22 33.18 38.64 33.78 C 36.09 31.54 32.92 31.75 30.72 33.84 C 28.27 36.18 26.63 41.4 30.05 43.79 C 28.1 41.95 25.85 42.56 26.17 45.09 C 24.32 44.28 22.73 46.97 26.48 47.47 C 22.63 45.82 19.3 52.4 23.67 53.4 C 20.41 53.73 20.81 58.64 24.02 59.12 C 21.67 60.19 21.93 62.78 23.44 63.93 C 23.24 64.64 23.44 65.41 24.77 65.81 C 23.62 66.35 23.96 67.21 24.64 67.75 C 23.03 69.36 24.83 72.89 27.64 71.72 C 26.86 72.6 26.99 73.7 27.57 74.5 C 27.21 76 28.18 76.92 29.45 77.28 C 29.75 78.24 30.33 78.7 31.22 78.81 C 31.32 79.19 31.69 79.58 32.29 79.92 C 32.71 81.17 33.66 81.68 34.38 81.2 C 34.43 81.05 34.51 80.89 34.62 80.74 C 34.65 80.74 34.73 80.78 34.78 80.76 C 34.65 80.93 34.53 81.11 34.38 81.2 C 33.89 82.66 35.5 84.06 37.15 84.5 C 37.17 85.21 37.6 85.73 38.19 86.13 C 38.64 87.91 39.75 89.51 41.26 90.18 C 43.87 91.45 47.59 90.26 49 87.5 C 49.14 87.44 49.33 87.5 49.46 87.44 C 49.52 87.5 49.64 87.55 49.7 87.61 C 50.96 90.1 55.53 90.7 56.72 88.28 C 57.83 88.61 59.13 88.39 60.12 87.72 C 60.83 87.57 61.45 87.07 61.71 86.26 C 62.3 88.2 64.86 87.28 64.52 85.09 C 64.54 85.11 64.59 85.11 64.62 85.09 C 65.72 88.77 69.96 90.59 72.85 89.44 C 75.86 88.27 77.54 84.09 75.79 81.06 Z"/>
    <path class="st1" d="M 77.25 42.6 C 74.86 43 70.7 44.56 67.75 45.66"/>
    <path class="st1" d="M 73.26 36.7 C 72.44 40.05 70.16 44.51 67.35 46.97"/>
    <path class="st1" d="M 66.88 36.5 C 69.13 39.85 71.56 42.55 68.31 45.54"/>
    <path class="st1" d="M 62.1 51.94 C 59.7 56.17 56.3 60.35 53.07 62.24"/>
    <path class="st1" d="M 66.04 59.34 C 61.01 59.61 53.59 62.05 52.05 62.46"/>
    <path class="st1" d="M 55.63 53.96 C 56.98 56.78 58.65 58.24 54.16 61.84"/>
    <ellipse transform="matrix(0.177099, -0.984193, 0.984193, 0.177099, 30.559803, 97.736031)" class="st2" cx="73.73" cy="30.59" rx="8.14" ry="3.2"/>
    <ellipse transform="matrix(0.978021, -0.208505, 0.208505, 0.978021, -6.733551, 18.180003)" class="st3" cx="82.86" cy="41.02" rx="8.14" ry="3.2"/>
    <ellipse transform="matrix(0.999391, -0.0349, 0.0349, 0.999391, -2.016421, 2.54362)" class="st4" cx="71.75" cy="58.98" rx="8.14" ry="3.2"/>
    <ellipse transform="matrix(0.533195, -0.845992, 0.845992, 0.533195, -19.316767, 66.014461)" class="st5" cx="50.16" cy="50.51" rx="3.2" ry="8.14"/>
    <ellipse transform="matrix(0.559215, -0.829023, 0.829023, 0.559215, -11.286253, 74.31162)" class="st6" cx="64.24" cy="47.77" rx="8.14" ry="3.2"/>
    <ellipse transform="matrix(0.650717, -0.75932, 0.75932, 0.650717, -2.777999, 57.800085)" class="st2" cx="61.44" cy="31.92" rx="3.2" ry="8.14"/>
    <path class="st1" d="M 47.25 31.4 C 46.7 33.76 46.53 38.2 46.4 41.35"/>
    <path class="st1" d="M 40.27 32.8 C 43.04 34.85 46.28 38.68 47.45 42.22"/>
    <path class="st1" d="M 37.61 38.6 C 41.57 37.82 45 36.62 46.5 40.77"/>
    <path class="st1" d="M 50.01 48.98 C 52.98 52.83 55.52 57.57 56.02 61.29"/>
    <path class="st1" d="M 58.36 48.21 C 56.67 52.96 56.05 60.74 55.83 62.32"/>
    <path class="st1" d="M 49.37 55.73 C 52.49 55.58 54.49 54.6 56.08 60.13"/>
    <ellipse transform="matrix(0.543691, -0.839286, 0.839286, 0.543691, -9.29834, 42.912978)" class="st2" cx="34.81" cy="30.01" rx="3.2" ry="8.14"/>
    <ellipse transform="matrix(0.185605, -0.982625, 0.982625, 0.185605, 13.88615, 67.981359)" class="st3" cx="47.95" cy="25.61" rx="8.14" ry="3.2"/>
    <ellipse transform="matrix(0.353982, -0.935252, 0.935252, 0.353982, -1.117561, 83.978491)" class="st4" cx="60.23" cy="42.8" rx="8.14" ry="3.2"/>
    <ellipse transform="matrix(0.81871, -0.574207, 0.574207, 0.81871, -26.141966, 36.088011)" class="st5" cx="44.08" cy="59.44" rx="8.14" ry="3.2"/>
    <ellipse transform="matrix(0.836135, -0.548523, 0.548523, 0.836135, -17.201203, 33.210188)" class="st6" cx="46.99" cy="45.39" rx="3.2" ry="8.14"/>
    <ellipse transform="matrix(0.893586, -0.448893, 0.448893, 0.893586, -15.457449, 18.497674)" class="st2" cx="31.29" cy="41.85" rx="8.14" ry="3.2"/>
    <path class="st1" d="M 28.08 50.76 C 29.62 52.63 33.04 55.46 35.46 57.48"/>
    <path class="st1" d="M 24.96 57.17 C 28.27 56.21 33.28 55.97 36.8 57.18"/>
    <path class="st1" d="M 27.96 62.8 C 29.74 59.18 30.87 55.73 35.08 57.06"/>
    <path class="st1" d="M 43.73 59.25 C 48.59 59.23 53.91 60.09 57.16 61.95"/>
    <path class="st1" d="M 48.18 52.15 C 50.92 56.38 56.74 61.59 57.86 62.72"/>
    <path class="st1" d="M 48.7 63.85 C 50.47 61.28 50.91 59.1 56.27 61.19"/>
    <ellipse transform="matrix(0.941536, -0.336913, 0.336913, 0.941536, -19.016658, 10.041812)" class="st2" cx="19.43" cy="59.81" rx="8.14" ry="3.2"/>
    <ellipse transform="matrix(0.74399, -0.668191, 0.668191, 0.74399, -25.079032, 27.933957)" class="st3" cx="23.91" cy="46.7" rx="3.2" ry="8.14"/>
    <ellipse transform="matrix(0.849042, -0.528326, 0.528326, 0.849042, -18.237401, 30.939694)" class="st4" cx="45.02" cy="47.38" rx="3.2" ry="8.14"/>
    <ellipse transform="matrix(0.040699, -0.999171, 0.999171, 0.040699, -23.780739, 115.854397)" class="st5" cx="48.44" cy="70.31" rx="8.14" ry="3.2"/>
    <ellipse transform="matrix(0.071702, -0.997426, 0.997426, 0.071702, -23.075418, 94.152706)" class="st6" cx="39.05" cy="59.47" rx="3.2" ry="8.14"/>
    <ellipse transform="matrix(0.185798, -0.982588, 0.982588, 0.185798, -46.844804, 83.07244)" class="st2" cx="26.7" cy="69.8" rx="8.14" ry="3.2"/>
    <path class="st1" d="M 32.23 70.36 C 34.54 71.09 38.95 71.59 42.08 71.96"/>
    <path class="st1" d="M 33.1 77.44 C 35.35 74.83 39.42 71.9 43.03 70.99"/>
    <path class="st1" d="M 38.68 80.52 C 38.2 76.51 37.27 73.01 41.52 71.82"/>
    <path class="st1" d="M 49.97 68.95 C 54.03 66.28 58.96 64.1 62.7 63.89"/>
    <path class="st1" d="M 49.83 60.57 C 54.43 62.62 62.15 63.82 63.71 64.16"/>
    <path class="st1" d="M 56.65 70.09 C 56.73 66.97 55.91 64.9 61.54 63.74"/>
    <ellipse transform="matrix(0.605585, -0.79578, 0.79578, 0.605585, -53.986649, 56.400842)" class="st2" cx="29.9" cy="82.66" rx="8.14" ry="3.2"/>
    <ellipse transform="matrix(0.259392, -0.965772, 0.965772, 0.259392, -47.220255, 76.876776)" class="st3" cx="26.51" cy="69.23" rx="3.2" ry="8.14"/>
    <ellipse transform="matrix(0.423701, -0.905802, 0.905802, 0.423701, -27.106461, 73.975339)" class="st4" cx="44.58" cy="58.29" rx="3.2" ry="8.14"/>
    <ellipse transform="matrix(0.85977, -0.510682, 0.510682, 0.85977, -30.224015, 41.224616)" class="st5" cx="59.95" cy="75.65" rx="3.2" ry="8.14"/>
    <ellipse transform="matrix(0.875226, -0.483714, 0.483714, 0.875226, -28.917626, 31.271102)" class="st6" cx="46.16" cy="71.69" rx="8.14" ry="3.2"/>
    <ellipse transform="matrix(0.924988, -0.379995, 0.379995, 0.924988, -29.980106, 22.283212)" class="st2" cx="41.45" cy="87.08" rx="3.2" ry="8.14"/>
    <path class="st1" d="M 77.68 63.99 C 75.61 62.72 71.45 61.17 68.5 60.06"/>
    <path class="st1" d="M 78.54 56.91 C 75.72 58.9 71.07 60.77 67.34 60.78"/>
    <path class="st1" d="M 73.86 52.57 C 73.36 56.57 73.42 60.2 69.01 60.33"/>
    <path class="st1" d="M 60.12 61.09 C 55.53 62.7 50.23 63.63 46.55 62.93"/>
    <path class="st1" d="M 58.24 69.25 C 54.26 66.15 47.06 63.12 45.63 62.42"/>
    <path class="st1" d="M 53.92 58.36 C 53.09 61.37 53.39 63.57 47.64 63.35"/>
    <ellipse transform="matrix(0.779589, -0.626291, 0.626291, 0.779589, -14.675949, 63.519647)" class="st2" cx="82.9" cy="52.61" rx="8.14" ry="3.2"/>
    <ellipse transform="matrix(0.484615, -0.874727, 0.874727, 0.484615, -15.390782, 106.823064)" class="st3" cx="82.95" cy="66.47" rx="3.2" ry="8.14"/>
    <ellipse transform="matrix(0.62961, -0.776912, 0.776912, 0.62961, -33.251656, 75.716545)" class="st4" cx="62.78" cy="72.73" rx="3.2" ry="8.14"/>
    <ellipse transform="matrix(0.957537, -0.288311, 0.288311, 0.957537, -12.83438, 17.221463)" class="st5" cx="52.05" cy="52.17" rx="3.2" ry="8.14"/>
    <ellipse transform="matrix(0.966035, -0.258409, 0.258409, 0.966035, -13.14785, 18.675107)" class="st6" cx="64.48" cy="59.34" rx="8.14" ry="3.2"/>
    <ellipse transform="matrix(0.989314, -0.145802, 0.145802, 0.989314, -5.863795, 11.094621)" class="st2" cx="72.76" cy="45.55" rx="3.2" ry="8.14"/>
    <path class="st1" d="M 61.48 83.3 C 60.33 81.17 57.51 77.73 55.52 75.29"/>
    <path class="st1" d="M 65.77 77.62 C 62.34 77.92 57.38 77.2 54.15 75.34"/>
    <path class="st1" d="M 63.91 71.52 C 61.46 74.73 59.69 77.9 55.82 75.79"/>
    <path class="st1" d="M 47.75 71.97 C 42.97 71.06 37.92 69.19 35.09 66.74"/>
    <path class="st1" d="M 42.02 78.08 C 40.14 73.41 35.44 67.17 34.55 65.84"/>
    <path class="st1" d="M 43.76 66.5 C 41.53 68.68 40.68 70.74 35.82 67.66"/>
    <ellipse transform="matrix(0.988731, -0.149705, 0.149705, 0.988731, -10.585653, 11.590399)" class="st2" cx="71.71" cy="76.09" rx="8.14" ry="3.2"/>
    <ellipse transform="matrix(0.85855, -0.51273, 0.51273, 0.85855, -36.012063, 45.678131)" class="st3" cx="64.79" cy="88.1" rx="3.2" ry="8.14"/>
    <ellipse transform="matrix(0.934746, -0.355317, 0.355317, 0.934746, -26.74186, 21.142165)" class="st4" cx="44.2" cy="83.37" rx="3.2" ry="8.14"/>
    <ellipse transform="matrix(0.231909, -0.972737, 0.972737, 0.231909, -23.808462, 90.26496)" class="st5" cx="45.26" cy="60.21" rx="8.14" ry="3.2"/>
    <ellipse transform="matrix(0.26211, -0.965038, 0.965038, 0.26211, -31.452888, 104.174934)" class="st6" cx="52.39" cy="72.65" rx="3.2" ry="8.14"/>
    <ellipse transform="matrix(0.371098, -0.928594, 0.928594, 0.371098, -18.436741, 102.548756)" class="st2" cx="66.49" cy="64.89" rx="8.14" ry="3.2"/>
    <path class="st7" d="M 71.82 90.32 C 74.99 90.69 77.68 87.76 78.15 86.85 C 78.62 85.94 79.67 82.28 77.71 80.51 C 76.89 79.77 75.92 79.22 74.96 78.81 C 75.15 79.02 75.34 79.22 75.49 79.38 C 76.01 79.94 77.14 80.88 77.4 81.86 C 77.66 82.84 77.24 83.97 76.82 85.34 C 76.4 86.71 75.7 86.7 74.45 87.68 C 73.2 88.66 71.76 88.59 70.29 88.52 C 69.58 88.49 68.72 88.14 67.86 87.69 C 68.63 88.91 69.86 90.09 71.82 90.32 Z"/>
    <path class="st8" d="M 71.55 77.68 C 70.46 77.37 68.05 76.1 66.58 76.45 C 67.06 76.82 67.04 77.74 66.51 78.54 C 66 79.32 65.2 79.71 64.67 79.46 C 64.58 80.06 64.65 80.68 65.01 81.27 C 65.86 82.67 66.5 83.95 66.94 85.53 C 67.11 86.13 67.4 86.91 67.86 87.67 C 68.72 88.13 69.58 88.47 70.29 88.5 C 71.76 88.56 73.19 88.64 74.45 87.66 C 75.7 86.68 76.41 86.69 76.82 85.32 C 77.24 83.95 77.66 82.81 77.4 81.84 C 77.14 80.86 76 79.92 75.49 79.36 C 75.34 79.2 75.15 79 74.96 78.79 C 73.64 78.23 72.36 77.91 71.55 77.68 Z"/>
    <path class="st9" d="M 66.52 78.54 C 67.05 77.74 67.07 76.82 66.59 76.45 C 66.34 76.51 66.12 76.61 65.94 76.77 C 65.83 76.86 65.74 76.98 65.66 77.11 C 65.28 77.76 64.9 78.47 64.73 79.19 C 64.71 79.28 64.69 79.36 64.68 79.45 C 65.2 79.71 66 79.32 66.52 78.54 Z"/>
    <path class="st7" d="M 36.29 82.56 C 35.83 85.72 38.68 88.49 39.58 88.99 C 40.48 89.49 44.11 90.64 45.93 88.72 C 46.69 87.92 47.27 86.96 47.71 86.02 C 47.5 86.21 47.29 86.39 47.13 86.54 C 46.55 87.04 45.58 88.15 44.6 88.38 C 43.62 88.61 42.49 88.16 41.14 87.7 C 39.78 87.25 39.81 86.55 38.87 85.26 C 37.93 83.97 38.04 82.55 38.14 81.08 C 38.19 80.37 38.56 79.52 39.04 78.67 C 37.78 79.41 36.57 80.61 36.29 82.56 Z"/>
    <path class="st8" d="M 48.92 82.64 C 49.26 81.56 50.6 79.19 50.29 77.7 C 49.91 78.17 48.99 78.12 48.2 77.58 C 47.44 77.05 47.07 76.24 47.33 75.71 C 46.73 75.6 46.11 75.65 45.51 76 C 44.09 76.81 42.79 77.41 41.2 77.81 C 40.59 77.96 39.8 78.23 39.03 78.68 C 38.55 79.53 38.18 80.38 38.13 81.09 C 38.03 82.56 37.91 83.99 38.86 85.27 C 39.81 86.55 39.77 87.25 41.13 87.71 C 42.49 88.16 43.61 88.62 44.59 88.39 C 45.57 88.16 46.55 87.05 47.12 86.55 C 47.29 86.41 47.49 86.22 47.7 86.03 C 48.32 84.72 48.67 83.44 48.92 82.64 Z"/>
    <path class="st9" d="M 48.2 77.58 C 48.99 78.13 49.91 78.18 50.29 77.7 C 50.24 77.45 50.14 77.23 49.98 77.04 C 49.89 76.93 49.78 76.83 49.64 76.75 C 49 76.35 48.31 75.96 47.58 75.77 C 47.49 75.75 47.41 75.73 47.32 75.71 C 47.07 76.24 47.44 77.05 48.2 77.58 Z"/>
    <path class="st7" d="M 18.43 63.47 C 16.96 66.3 18.76 69.86 19.45 70.62 C 20.14 71.38 23.19 73.65 25.54 72.44 C 26.52 71.93 27.38 71.21 28.1 70.47 C 27.84 70.58 27.58 70.69 27.38 70.77 C 26.67 71.06 25.39 71.79 24.39 71.69 C 23.38 71.59 22.47 70.79 21.34 69.92 C 20.21 69.05 20.46 68.4 19.99 66.88 C 19.52 65.36 20.09 64.05 20.67 62.69 C 20.95 62.03 21.58 61.35 22.31 60.71 C 20.87 60.97 19.34 61.71 18.43 63.47 Z"/>
    <path class="st8" d="M 30.35 67.67 C 31.03 66.76 33.06 64.95 33.25 63.45 C 32.73 63.77 31.88 63.43 31.32 62.65 C 30.77 61.9 30.69 61.01 31.11 60.6 C 30.58 60.3 29.98 60.15 29.3 60.28 C 27.69 60.59 26.26 60.73 24.63 60.59 C 24.01 60.54 23.17 60.53 22.3 60.7 C 21.57 61.34 20.94 62.02 20.66 62.68 C 20.08 64.03 19.51 65.35 19.98 66.87 C 20.45 68.39 20.2 69.04 21.33 69.91 C 22.46 70.78 23.38 71.58 24.38 71.68 C 25.39 71.78 26.67 71.05 27.37 70.76 C 27.57 70.68 27.83 70.57 28.09 70.46 C 29.1 69.43 29.85 68.34 30.35 67.67 Z"/>
    <path class="st9" d="M 31.32 62.65 C 31.89 63.43 32.74 63.77 33.25 63.45 C 33.28 63.2 33.26 62.95 33.18 62.72 C 33.13 62.59 33.06 62.46 32.96 62.33 C 32.49 61.75 31.96 61.14 31.34 60.73 C 31.27 60.68 31.19 60.63 31.11 60.59 C 30.69 61.01 30.77 61.89 31.32 62.65 Z"/>
    <path class="st7" d="M 28.67 35.87 C 25.49 35.7 22.98 38.79 22.57 39.73 C 22.16 40.67 21.34 44.39 23.41 46.03 C 24.28 46.72 25.28 47.2 26.26 47.56 C 26.05 47.36 25.85 47.18 25.69 47.03 C 25.14 46.5 23.95 45.63 23.63 44.68 C 23.31 43.72 23.66 42.56 23.99 41.17 C 24.32 39.78 25.02 39.74 26.21 38.69 C 27.4 37.63 28.84 37.62 30.31 37.59 C 31.02 37.58 31.9 37.87 32.79 38.27 C 31.95 37.07 30.64 35.98 28.67 35.87 Z"/>
    <path class="st8" d="M 29.73 48.46 C 30.84 48.7 33.32 49.82 34.77 49.38 C 34.26 49.04 34.23 48.12 34.71 47.29 C 35.17 46.48 35.95 46.04 36.49 46.26 C 36.55 45.65 36.44 45.04 36.04 44.47 C 35.1 43.13 34.39 41.88 33.84 40.34 C 33.63 39.75 33.3 38.99 32.78 38.26 C 31.89 37.86 31.02 37.57 30.3 37.58 C 28.83 37.61 27.39 37.63 26.2 38.68 C 25.01 39.74 24.31 39.77 23.98 41.16 C 23.65 42.55 23.3 43.71 23.62 44.67 C 23.94 45.63 25.13 46.5 25.68 47.02 C 25.84 47.17 26.04 47.36 26.25 47.55 C 27.61 48.05 28.91 48.29 29.73 48.46 Z"/>
    <path class="st9" d="M 34.71 47.29 C 34.23 48.12 34.27 49.04 34.77 49.38 C 35.01 49.31 35.23 49.19 35.4 49.01 C 35.5 48.91 35.59 48.79 35.66 48.65 C 36 47.98 36.33 47.25 36.45 46.51 C 36.46 46.42 36.48 46.33 36.48 46.25 C 35.94 46.04 35.17 46.48 34.71 47.29 Z"/>
    <path class="st7" d="M 47.42 23.47 C 44.84 21.59 41.06 22.83 40.2 23.39 C 39.34 23.96 36.64 26.63 37.48 29.13 C 37.83 30.18 38.41 31.13 39.04 31.96 C 38.97 31.68 38.91 31.42 38.85 31.2 C 38.68 30.46 38.15 29.08 38.4 28.1 C 38.65 27.12 39.58 26.34 40.61 25.35 C 41.64 24.36 42.25 24.71 43.82 24.47 C 45.39 24.23 46.61 25 47.86 25.77 C 48.47 26.15 49.05 26.87 49.57 27.69 C 49.51 26.25 49.01 24.63 47.42 23.47 Z"/>
    <path class="st8" d="M 41.46 34.61 C 42.26 35.42 43.74 37.7 45.19 38.12 C 44.95 37.56 45.42 36.77 46.27 36.33 C 47.1 35.9 47.99 35.95 48.33 36.43 C 48.71 35.95 48.95 35.38 48.92 34.68 C 48.86 33.04 48.94 31.61 49.32 30.02 C 49.47 29.41 49.6 28.59 49.56 27.7 C 49.03 26.88 48.46 26.16 47.85 25.78 C 46.6 25 45.39 24.24 43.81 24.48 C 42.24 24.72 41.63 24.37 40.6 25.36 C 39.57 26.35 38.64 27.13 38.39 28.11 C 38.14 29.09 38.67 30.47 38.84 31.21 C 38.89 31.42 38.96 31.69 39.03 31.97 C 39.91 33.11 40.87 34.02 41.46 34.61 Z"/>
    <path class="st9" d="M 46.27 36.33 C 45.42 36.77 44.95 37.56 45.19 38.12 C 45.43 38.19 45.68 38.21 45.92 38.16 C 46.06 38.13 46.2 38.08 46.34 38 C 46.99 37.62 47.66 37.19 48.17 36.64 C 48.23 36.57 48.29 36.51 48.34 36.44 C 47.99 35.95 47.1 35.9 46.27 36.33 Z"/>
    <path class="st7" d="M 78.01 32.98 C 78.5 29.83 75.67 27.03 74.77 26.52 C 73.87 26.02 70.26 24.83 68.42 26.73 C 67.65 27.52 67.07 28.48 66.62 29.41 C 66.83 29.22 67.04 29.04 67.21 28.9 C 67.79 28.4 68.77 27.3 69.76 27.08 C 70.74 26.86 71.87 27.32 73.22 27.79 C 74.57 28.26 74.54 28.96 75.47 30.25 C 76.4 31.54 76.28 32.97 76.16 34.44 C 76.1 35.15 75.73 36 75.24 36.84 C 76.49 36.12 77.7 34.93 78.01 32.98 Z"/>
    <path class="st8" d="M 65.37 32.78 C 65.02 33.86 63.66 36.22 63.96 37.7 C 64.35 37.23 65.26 37.29 66.05 37.84 C 66.81 38.38 67.17 39.19 66.9 39.72 C 67.5 39.84 68.11 39.79 68.72 39.45 C 70.15 38.65 71.46 38.06 73.05 37.67 C 73.66 37.52 74.45 37.26 75.22 36.82 C 75.71 35.98 76.09 35.13 76.14 34.42 C 76.26 32.95 76.38 31.52 75.45 30.23 C 74.52 28.94 74.55 28.24 73.2 27.77 C 71.85 27.3 70.73 26.84 69.74 27.06 C 68.76 27.28 67.77 28.39 67.19 28.88 C 67.02 29.02 66.82 29.2 66.6 29.39 C 66 30.72 65.63 31.99 65.37 32.78 Z"/>
    <path class="st9" d="M 66.05 37.85 C 65.27 37.29 64.35 37.24 63.96 37.71 C 64.01 37.96 64.1 38.18 64.26 38.37 C 64.35 38.48 64.46 38.58 64.59 38.67 C 65.22 39.07 65.92 39.48 66.64 39.67 C 66.73 39.69 66.81 39.71 66.9 39.73 C 67.17 39.2 66.81 38.39 66.05 37.85 Z"/>
    <path class="st7" d="M 89.29 63.97 C 91.9 62.14 91.95 58.15 91.69 57.16 C 91.43 56.16 89.77 52.74 87.13 52.73 C 86.02 52.73 84.93 52.97 83.95 53.3 C 84.23 53.33 84.51 53.35 84.73 53.37 C 85.49 53.44 86.96 53.39 87.81 53.94 C 88.66 54.49 89.1 55.62 89.7 56.92 C 90.3 58.22 89.77 58.68 89.49 60.24 C 89.21 61.81 88.09 62.71 86.95 63.64 C 86.4 64.09 85.53 64.41 84.58 64.64 C 85.98 65.06 87.68 65.11 89.29 63.97 Z"/>
    <path class="st8" d="M 80.67 54.74 C 79.65 55.24 77.01 55.9 76.14 57.14 C 76.75 57.09 77.34 57.79 77.49 58.74 C 77.63 59.66 77.29 60.48 76.73 60.66 C 77.06 61.17 77.52 61.58 78.19 61.78 C 79.76 62.25 81.09 62.79 82.47 63.67 C 83 64.01 83.73 64.4 84.59 64.65 C 85.54 64.42 86.41 64.1 86.96 63.65 C 88.1 62.72 89.21 61.81 89.5 60.25 C 89.78 58.68 90.31 58.22 89.71 56.93 C 89.11 55.63 88.66 54.5 87.82 53.95 C 86.97 53.4 85.5 53.45 84.74 53.38 C 84.52 53.36 84.25 53.34 83.96 53.31 C 82.59 53.75 81.42 54.38 80.67 54.74 Z"/>
    <path class="st9" d="M 77.49 58.74 C 77.35 57.79 76.75 57.09 76.14 57.14 C 76 57.35 75.9 57.57 75.87 57.82 C 75.85 57.96 75.86 58.11 75.89 58.26 C 76.04 58.99 76.23 59.78 76.59 60.43 C 76.63 60.51 76.68 60.58 76.73 60.66 C 77.29 60.49 77.63 59.66 77.49 58.74 Z"/>
    <path class="st7" d="M 72.06 55.62 C 72.49 52.46 69.62 49.71 68.71 49.22 C 67.81 48.73 64.17 47.61 62.36 49.54 C 61.6 50.35 61.04 51.31 60.61 52.26 C 60.82 52.07 61.02 51.88 61.19 51.74 C 61.76 51.23 62.73 50.12 63.71 49.88 C 64.69 49.64 65.82 50.09 67.18 50.53 C 68.54 50.97 68.52 51.67 69.47 52.95 C 70.42 54.22 70.32 55.65 70.23 57.12 C 70.18 57.83 69.82 58.68 69.35 59.54 C 70.6 58.79 71.79 57.58 72.06 55.62 Z"/>
    <path class="st8" d="M 59.43 55.65 C 59.1 56.74 57.78 59.12 58.1 60.6 C 58.48 60.12 59.4 60.16 60.19 60.71 C 60.96 61.24 61.33 62.04 61.07 62.57 C 61.67 62.68 62.29 62.62 62.89 62.26 C 64.3 61.43 65.6 60.82 67.19 60.41 C 67.79 60.25 68.58 59.98 69.35 59.53 C 69.82 58.68 70.19 57.83 70.23 57.11 C 70.32 55.64 70.42 54.21 69.47 52.94 C 68.52 51.67 68.54 50.97 67.18 50.52 C 65.82 50.08 64.69 49.63 63.71 49.87 C 62.73 50.11 61.77 51.23 61.19 51.73 C 61.03 51.87 60.82 52.06 60.61 52.25 C 60.01 53.57 59.67 54.85 59.43 55.65 Z"/>
    <path class="st9" d="M 60.19 60.7 C 59.4 60.16 58.48 60.12 58.1 60.59 C 58.15 60.84 58.25 61.06 58.41 61.25 C 58.5 61.36 58.61 61.46 58.75 61.54 C 59.39 61.93 60.09 62.32 60.81 62.51 C 60.9 62.53 60.98 62.55 61.07 62.57 C 61.33 62.04 60.96 61.23 60.19 60.7 Z"/>
    <path class="st7" d="M 47.52 64.85 C 50.69 65.22 53.38 62.29 53.85 61.38 C 54.32 60.47 55.37 56.81 53.41 55.04 C 52.59 54.3 51.62 53.75 50.66 53.34 C 50.85 53.55 51.04 53.75 51.19 53.91 C 51.71 54.47 52.84 55.41 53.1 56.39 C 53.36 57.37 52.94 58.5 52.52 59.87 C 52.1 61.24 51.4 61.23 50.15 62.21 C 48.9 63.19 47.46 63.12 45.99 63.05 C 45.28 63.02 44.42 62.67 43.56 62.22 C 44.33 63.44 45.56 64.62 47.52 64.85 Z"/>
    <path class="st8" d="M 47.26 52.21 C 46.17 51.9 43.76 50.63 42.29 50.98 C 42.77 51.35 42.75 52.27 42.22 53.07 C 41.71 53.85 40.91 54.24 40.38 53.99 C 40.29 54.59 40.36 55.21 40.72 55.8 C 41.57 57.2 42.21 58.48 42.65 60.06 C 42.82 60.66 43.11 61.44 43.57 62.2 C 44.43 62.66 45.29 63 46 63.03 C 47.47 63.09 48.9 63.17 50.16 62.19 C 51.41 61.21 52.12 61.22 52.53 59.85 C 52.95 58.48 53.37 57.34 53.11 56.37 C 52.85 55.39 51.71 54.45 51.2 53.89 C 51.05 53.73 50.86 53.53 50.67 53.32 C 49.35 52.76 48.06 52.44 47.26 52.21 Z"/>
    <path class="st9" d="M 42.22 53.07 C 42.75 52.27 42.77 51.35 42.29 50.98 C 42.04 51.04 41.82 51.14 41.64 51.3 C 41.53 51.39 41.44 51.51 41.36 51.64 C 40.98 52.29 40.6 53 40.43 53.72 C 40.41 53.81 40.39 53.89 40.38 53.98 C 40.91 54.24 41.71 53.85 42.22 53.07 Z"/>
  </g>
</svg>