<?xml version="1.0" encoding="utf-8"?>
<!-- Generator: Adobe Illustrator 23.1.1, SVG Export Plug-In . SVG Version: 6.00 Build 0)  -->
<svg version="1.1" id="Layer_1" xmlns="http://www.w3.org/2000/svg" xmlns:xlink="http://www.w3.org/1999/xlink" x="0px" y="0px"
	 viewBox="0 0 108 108" style="enable-background:new 0 0 108 108;" xml:space="preserve">
<style type="text/css">
	.st0{fill:none;stroke:#718537;stroke-width:1.0129;stroke-miterlimit:10;}
	.st1{fill:#A5C239;}
	.st2{fill:#84B541;}
	.st3{fill:#91BB3E;}
	.st4{fill:#AFCB36;}
	.st5{fill:#92B83F;}
	.st6{fill:#A5BE3B;}
	.st7{fill:#A4C839;}
	.st8{fill:#72AA42;}
	.st9{fill:none;}
	.st10{fill:#202145;}
	.st11{fill:#C32127;}
	.st12{fill:#EB2227;}
	.st13{opacity:0.44;}
	.st14{fill:#FFFFFF;}
</style>
<g>
	<g>
		<g>
			<path class="st0" d="M72.12,74.84c-0.06-2.42-1.01-6.76-1.68-9.84"/>
			<path class="st0" d="M78.53,71.72c-3.2-1.28-7.29-4.17-9.33-7.3"/>
			<path class="st0" d="M79.64,65.44c-3.63,1.75-6.65,3.78-9.15,0.14"/>
			<path class="st0" d="M65.03,58.52c-3.85-2.98-7.5-6.93-8.92-10.4"/>
			<path class="st0" d="M57.14,61.37c0.44-5.02-0.93-12.71-1.11-14.29"/>
			<path class="st0" d="M63.94,51.83c-2.98,0.94-4.66,2.38-7.6-2.57"/>
			<path class="st1" d="M66.9,79.58c-0.31-1.93-1.29-2.33,1.93-5.74c3.22-3.42,3.22-3.42,3.22-3.42s0.64,0.74,1.39,1.58
				s3.92,3.65,2.49,6.93c-1.43,3.28-2.67,5.06-3.15,5.57c-0.49,0.51-1.75,2.57-2.11,3.07"/>
			<path class="st2" d="M89.56,80.56c-2.34-0.98-5.72,1.13-8.56-0.86c-2.85-1.99-4.47-6.93-5.15-8.36
				c-0.68-1.42-1.84-0.81,0.84-0.86c2.69-0.05,2.84-0.96,5.17-0.4c2.33,0.56,5.56,4.04,5.78,5.48S89.56,80.56,89.56,80.56z"/>
			<path class="st3" d="M75.55,67.46c0.7,0,1.48,0.57,4.86,0.62c3.38,0.05,6.04-0.31,6.63-2.89s-0.24-3.09,1.21-4.79
				c1.45-1.7,1.45-1.7,1.45-1.7s-2.91-0.09-6.96,0.01c-4.05,0.1-5.95,4.21-6.45,5.94C75.79,66.38,75.55,67.46,75.55,67.46z"/>
			<path class="st4" d="M73.72,67.5c0,0-1.56-1.73-4.75-1.74c-3.19-0.01-6.69-1.59-6.69-4.97c0-3.38-1.09-5.24-1.09-5.24
				s-0.07,0.48,2.71,0.26c2.78-0.22,6.73,1.69,7.84,4.45C72.84,63.03,73.72,67.5,73.72,67.5z"/>
			<path class="st5" d="M54.53,71.79c0,0,4.11-4.12,5.37-6.91c1.26-2.79,1.61-4.45-0.03-6.43c-1.63-1.98-2.23-3.57-2.23-3.57
				s-2.32,3.45-3.84,4.26c-1.52,0.8-3.2,3.63-2.38,5.3C52.24,66.11,54.53,71.79,54.53,71.79z"/>
			<path class="st6" d="M60.96,52.77c0,0.05,2.46,1.07,5.39,1.43c2.93,0.35,4.51,0.33,5.66-1.13s1.93-3,2.75-4.7
				c0.82-1.7,0.92-2.39,1.6-2.55s-0.85,0.59-4.08-0.21s-4.77-1.69-6.12-0.63s-1.3,3-2.39,4.57C62.68,51.1,60.96,52.77,60.96,52.77z"
				/>
		</g>
		<g>
			<path class="st0" d="M29.97,73.18c2.33-0.65,6.3-2.64,9.13-4.04"/>
			<path class="st0" d="M34.57,78.63c0.46-3.41,2.26-8.09,4.79-10.83"/>
			<path class="st0" d="M40.93,78.16c-2.59-3.09-5.29-5.52-2.38-8.84"/>
			<path class="st0" d="M44.05,62.3c1.94-4.46,4.87-8.97,7.89-11.19"/>
			<path class="st0" d="M39.35,55.35c4.97-0.8,12.1-4.02,13.58-4.58"/>
			<path class="st0" d="M50.27,59.6c-1.64-2.66-3.45-3.94,0.62-8"/>
			<path class="st2" d="M24.1,69.28c1.79-0.77,1.94-1.82,6.04,0.46s4.1,2.28,4.1,2.28s-0.56,0.8-1.19,1.73s-2.58,4.7-6.11,4.11
				c-3.53-0.59-5.56-1.34-6.18-1.69c-0.62-0.35-2.92-1.07-3.49-1.29"/>
			<path class="st7" d="M28.7,91.49c0.37-2.51-2.5-5.26-1.26-8.51c1.24-3.25,5.62-6.04,6.84-7.04c1.21-1.01,0.33-1.98,1.04,0.61
				c0.71,2.59,1.63,2.51,1.66,4.91s-2.55,6.38-3.9,6.94C31.74,88.96,28.7,91.49,28.7,91.49z"/>
			<path class="st3" d="M37.97,74.69c0.17,0.68-0.19,1.58,0.59,4.87s1.78,5.78,4.43,5.72c2.64-0.06,2.94-0.99,4.94,0
				c2,0.99,2,0.99,2,0.99s-0.63-2.84-1.72-6.75s-5.54-4.74-7.34-4.8C39.07,74.66,37.97,74.69,37.97,74.69z"/>
			<path class="st4" d="M37.48,72.92c0,0,1.29-1.93,0.52-5.03c-0.77-3.1-0.1-6.88,3.17-7.71c3.27-0.83,4.81-2.35,4.81-2.35
				s-0.48,0.05,0.41,2.69c0.89,2.64,0.01,6.94-2.4,8.69C41.6,70.98,37.48,72.92,37.48,72.92z"/>
			<path class="st5" d="M28.62,55.37c0,0,5,2.98,8.01,3.51c3.01,0.54,4.71,0.46,6.23-1.6s2.92-3.04,2.92-3.04s-3.91-1.4-5.07-2.68
				s-4.3-2.21-5.73-1.01C33.56,51.76,28.62,55.37,28.62,55.37z"/>
			<path class="st6" d="M48.63,56.95c-0.05,0.02-0.44,2.65-0.06,5.57c0.38,2.93,0.78,4.45,2.48,5.21c1.7,0.76,3.38,1.13,5.23,1.51
				s2.55,0.31,2.86,0.92c0.32,0.61-0.78-0.68-0.8-4.01c-0.01-3.33,0.46-5.04-0.89-6.08c-1.35-1.04-3.23-0.52-5.01-1.2
				C50.67,58.2,48.63,56.95,48.63,56.95z"/>
		</g>
		<g>
			<path class="st0" d="M36.96,31.87c0.77,2.3,2.95,6.16,4.5,8.91"/>
			<path class="st0" d="M31.75,36.74c3.43,0.29,8.2,1.85,11.06,4.24"/>
			<path class="st0" d="M32.53,43.07c2.96-2.74,5.25-5.56,8.71-2.82"/>
			<path class="st0" d="M48.53,45.39c4.55,1.72,9.21,4.42,11.57,7.32"/>
			<path class="st0" d="M55.23,40.35c1.05,4.93,4.62,11.88,5.26,13.34"/>
			<path class="st0" d="M51.53,51.47c2.57-1.77,3.76-3.65,8.02,0.22"/>
			<path class="st1" d="M40.56,25.81c0.86,1.75,1.92,1.85-0.16,6.06c-2.07,4.21-2.07,4.21-2.07,4.21s-0.83-0.52-1.79-1.1
				c-0.96-0.58-4.82-2.34-4.42-5.89c0.41-3.55,1.06-5.62,1.38-6.25c0.32-0.63,0.92-2.97,1.11-3.55"/>
			<path class="st2" d="M18.61,31.52c2.53,0.25,5.13-2.76,8.44-1.69c3.31,1.07,6.31,5.31,7.38,6.48c1.07,1.16,2,0.23-0.56,1.07
				s-2.43,1.75-4.82,1.9s-6.5-2.23-7.13-3.54C21.28,34.43,18.61,31.52,18.61,31.52z"/>
			<path class="st3" d="M35.85,39.94c-0.67,0.21-1.58-0.11-4.83,0.83s-5.69,2.07-5.49,4.71s1.14,2.89,0.25,4.93
				c-0.89,2.05-0.89,2.05-0.89,2.05s2.81-0.77,6.65-2.06s4.45-5.77,4.42-7.57S35.85,39.94,35.85,39.94z"/>
			<path class="st4" d="M37.59,39.36c0,0,2,1.19,5.05,0.27c3.06-0.92,6.86-0.45,7.85,2.78s2.59,4.69,2.59,4.69s-0.08-0.48-2.67,0.54
				c-2.59,1.02-6.93,0.36-8.8-1.96C39.74,43.38,37.59,39.36,37.59,39.36z"/>
			<path class="st5" d="M54.67,29.63c0,0-2.72,5.14-3.11,8.18c-0.39,3.04-0.23,4.73,1.91,6.14s3.18,2.76,3.18,2.76
				s1.2-3.98,2.42-5.19c1.22-1.22,1.99-4.41,0.72-5.77S54.67,29.63,54.67,29.63z"/>
			<path class="st6" d="M54.11,49.7c-0.02-0.05-2.67-0.31-5.57,0.22c-2.9,0.52-4.41,1-5.08,2.74c-0.67,1.74-0.96,3.43-1.25,5.3
				s-0.18,2.56-0.78,2.91c-0.6,0.35,0.64-0.82,3.96-1s5.06,0.21,6.03-1.19c0.97-1.4,0.36-3.25,0.94-5.06
				C52.95,51.79,54.11,49.7,54.11,49.7z"/>
		</g>
		<g>
			<path class="st0" d="M79.75,37.46c-2.39,0.4-6.55,1.96-9.5,3.06"/>
			<path class="st0" d="M75.76,31.56c-0.82,3.35-3.1,7.81-5.91,10.27"/>
			<path class="st0" d="M69.38,31.36c2.25,3.35,4.68,6.05,1.43,9.04"/>
			<path class="st0" d="M64.6,46.8c-2.4,4.23-5.8,8.41-9.03,10.3"/>
			<path class="st0" d="M68.54,54.2c-5.03,0.27-12.45,2.71-13.99,3.12"/>
			<path class="st0" d="M58.13,48.82c1.35,2.82,3.02,4.28-1.47,7.88"/>
			<path class="st1" d="M85.18,41.96c-1.87,0.58-2.12,1.61-5.96-1.1c-3.84-2.7-3.84-2.7-3.84-2.7s0.64-0.74,1.37-1.6
				c0.72-0.86,3.06-4.4,6.51-3.45c3.45,0.96,5.39,1.92,5.96,2.33c0.58,0.41,2.79,1.37,3.34,1.65"/>
			<path class="st7" d="M82.95,19.39c-0.64,2.46,1.93,5.5,0.36,8.6c-1.57,3.1-6.23,5.41-7.55,6.28c-1.31,0.87-0.54,1.94-0.97-0.71
				s-1.35-2.67-1.13-5.06s3.21-6.08,4.61-6.49C79.66,21.58,82.95,19.39,82.95,19.39z"/>
			<path class="st2" d="M71.96,35.12c-0.1-0.69,0.36-1.55-0.07-4.9s-1.16-5.94-3.8-6.16c-2.64-0.22-3.03,0.68-4.91-0.52
				c-1.88-1.2-1.88-1.2-1.88-1.2s0.32,2.89,1,6.89s5.01,5.3,6.79,5.55C70.86,35.03,71.96,35.12,71.96,35.12z"/>
			<path class="st4" d="M72.25,36.93c0,0-1.49,1.79-1.05,4.95s-0.63,6.85-3.97,7.33c-3.34,0.48-5.04,1.82-5.04,1.82
				s0.48,0-0.12-2.72c-0.61-2.72,0.72-6.9,3.3-8.39C67.95,38.42,72.25,36.93,72.25,36.93z"/>
			<path class="st5" d="M79.22,55.31c0,0-4.66-3.49-7.6-4.34s-4.63-0.96-6.37,0.94c-1.73,1.9-3.22,2.71-3.22,2.71
				s3.74,1.81,4.76,3.2c1.01,1.39,4.04,2.65,5.59,1.61C73.92,58.38,79.22,55.31,79.22,55.31z"/>
			<path class="st6" d="M59.48,51.63c0.05-0.01,0.72-2.59,0.65-5.54s-0.31-4.51-1.92-5.45s-3.24-1.49-5.04-2.05
				c-1.8-0.57-2.5-0.57-2.75-1.22s0.71,0.76,0.37,4.07s-0.99,4.97,0.24,6.14s3.16,0.86,4.86,1.72
				C57.59,50.17,59.48,51.63,59.48,51.63z"/>
		</g>
		<g>
			<g>
				<path class="st8" d="M56.09,64.16c-0.06-2.42-1.01-6.76-1.68-9.84"/>
				<path class="st8" d="M62.5,61.04c-3.2-1.28-7.29-4.17-9.33-7.3"/>
				<path class="st8" d="M63.61,54.75c-3.63,1.75-6.65,3.78-9.15,0.14"/>
				<path class="st8" d="M48.99,47.84c-3.85-2.98-7.5-6.93-8.92-10.4"/>
				<path class="st8" d="M41.11,50.69c0.44-5.02-0.93-12.71-1.11-14.29"/>
				<path class="st8" d="M47.91,41.15c-2.98,0.94-4.66,2.38-7.6-2.57"/>
				<g>
					<path class="st8" d="M50.87,68.9c-0.31-1.93-1.29-2.33,1.93-5.74c3.22-3.42,3.22-3.42,3.22-3.42s0.64,0.74,1.39,1.58
						c0.75,0.84,3.92,3.65,2.49,6.93s-2.67,5.06-3.15,5.57c-0.49,0.51-1.75,2.57-2.11,3.07"/>
				</g>
				<g>
					<path class="st8" d="M73.53,69.87c-2.34-0.98-5.72,1.13-8.56-0.86c-2.85-1.99-4.47-6.93-5.15-8.36
						c-0.68-1.42-1.84-0.81,0.84-0.86c2.69-0.05,2.84-0.96,5.17-0.4c2.33,0.56,5.56,4.04,5.78,5.48
						C71.83,66.31,73.53,69.87,73.53,69.87z"/>
				</g>
				<g>
					<path class="st8" d="M59.52,56.77c0.7,0,1.48,0.57,4.86,0.62c3.38,0.05,6.04-0.31,6.63-2.89c0.59-2.58-0.24-3.09,1.21-4.79
						c1.45-1.7,1.45-1.7,1.45-1.7s-2.91-0.09-6.96,0.01c-4.05,0.1-5.95,4.21-6.45,5.94C59.76,55.7,59.52,56.77,59.52,56.77z"/>
				</g>
				<g>
					<path class="st8" d="M57.69,56.81c0,0-1.56-1.73-4.75-1.74s-6.69-1.59-6.69-4.97c0-3.38-1.09-5.24-1.09-5.24
						s-0.07,0.48,2.71,0.26c2.78-0.22,6.73,1.69,7.84,4.45C56.81,52.34,57.69,56.81,57.69,56.81z"/>
				</g>
				<g>
					<path class="st8" d="M38.5,61.1c0,0,4.11-4.12,5.37-6.91c1.26-2.79,1.61-4.45-0.03-6.43c-1.63-1.98-2.23-3.57-2.23-3.57
						s-2.32,3.45-3.84,4.26c-1.52,0.8-3.2,3.63-2.38,5.3C36.21,55.42,38.5,61.1,38.5,61.1z"/>
				</g>
				<g>
					<path class="st8" d="M44.93,42.08c0,0.05,2.46,1.07,5.39,1.43c2.93,0.35,4.51,0.33,5.66-1.13c1.15-1.46,1.93-3,2.75-4.7
						c0.82-1.7,0.92-2.39,1.6-2.55c0.67-0.16-0.85,0.59-4.08-0.21s-4.77-1.69-6.12-0.63s-1.3,3-2.39,4.57
						C46.65,40.42,44.93,42.08,44.93,42.08z"/>
				</g>
			</g>
		</g>
	</g>
	<g>
		<path class="st9" d="M41.42,74.96l-0.03,0.08c0.04,0,0.08,0,0.12,0c-0.01-0.01-0.02-0.01-0.02-0.02
			C41.46,75,41.44,74.98,41.42,74.96z"/>
		<path class="st10" d="M33.44,79.34c0-0.01,0.01-0.02,0.01-0.02l-0.02,0.01C33.43,79.33,33.44,79.33,33.44,79.34z"/>
		<path class="st11" d="M35.17,64.58c0.44-0.24,1-0.2,1.4,0.15C36.89,65,37.04,65.41,37,65.8c0.28,0.01,0.55,0.1,0.78,0.3
			c0.34,0.29,0.49,0.72,0.43,1.14c0.3-0.01,0.6,0.09,0.85,0.29c0.42,0.36,0.54,0.93,0.35,1.41c0.2,0.04,0.39,0.13,0.55,0.27
			c0.47,0.4,0.57,1.06,0.27,1.57c0.05,0.03,0.09,0.06,0.14,0.1c0.53,0.45,0.59,1.23,0.14,1.76c-0.14,0.16-0.31,0.28-0.5,0.36
			c0.01,0.01,0.02,0.01,0.03,0.02c0.53,0.45,0.59,1.23,0.14,1.76c-0.28,0.32-0.68,0.47-1.07,0.43c0.49,0.45,0.46,1.33-0.09,1.97
			c-0.16,0.18-0.34,0.33-0.53,0.43c0.07,0.43-0.07,0.93-0.42,1.34c-0.56,0.66-1.44,0.83-1.97,0.39c-0.02-0.01-0.03-0.03-0.05-0.05
			c0.03,0.4-0.12,0.84-0.44,1.22c-0.56,0.66-1.44,0.83-1.97,0.39c-0.1-0.08-0.18-0.19-0.24-0.3c-0.07,0.15-0.16,0.3-0.28,0.44
			c-0.22,0.26-0.48,0.44-0.76,0.54c0.49,0.15,1.1-0.05,1.54-0.52c0.06,0.18,0.16,0.34,0.31,0.47c0.53,0.45,1.41,0.27,1.97-0.39
			c0.12-0.14,0.21-0.29,0.28-0.44c0.06,0.11,0.14,0.21,0.24,0.3c0.53,0.45,1.41,0.27,1.97-0.39c0.32-0.37,0.46-0.82,0.44-1.22
			c0.02,0.02,0.03,0.03,0.05,0.05c0.53,0.45,1.41,0.27,1.97-0.39c0.35-0.41,0.49-0.91,0.42-1.34c0.19-0.11,0.37-0.25,0.53-0.43
			c0.55-0.65,0.59-1.52,0.09-1.97c0.39,0.04,0.8-0.11,1.07-0.43c0.45-0.53,0.38-1.31-0.14-1.76c-0.01-0.01-0.02-0.01-0.03-0.02
			c0.19-0.07,0.36-0.19,0.5-0.36c0.45-0.53,0.38-1.31-0.14-1.76c-0.04-0.04-0.09-0.07-0.14-0.1c0.3-0.51,0.19-1.18-0.27-1.57
			c-0.16-0.14-0.35-0.23-0.55-0.27c0.19-0.48,0.07-1.06-0.35-1.41c-0.25-0.21-0.55-0.3-0.85-0.29c0.06-0.41-0.08-0.85-0.43-1.14
			c-0.23-0.19-0.5-0.29-0.78-0.3c0.04-0.39-0.11-0.8-0.43-1.07c-0.4-0.34-0.96-0.38-1.4-0.15c0.1-0.44-0.04-0.91-0.41-1.22
			c-0.53-0.45-1.31-0.38-1.76,0.14c-0.12,0.14-0.2,0.3-0.25,0.47c-0.04-0.05-0.09-0.1-0.14-0.15c-0.2-0.17-0.43-0.26-0.67-0.29
			C35.18,63.92,35.24,64.26,35.17,64.58z M41.38,75.04l0.03-0.08c0.02,0.02,0.04,0.04,0.07,0.06c0.01,0.01,0.02,0.01,0.02,0.02
			C41.47,75.04,41.43,75.04,41.38,75.04z"/>
		<path class="st10" d="M31.29,79.36c0.05-0.05,0.09-0.1,0.14-0.14l-0.21-0.02C31.25,79.25,31.27,79.31,31.29,79.36z"/>
		<path class="st10" d="M38.36,74.86l-0.03,0.08c0.04,0,0.08,0,0.12,0c-0.01-0.01-0.02-0.01-0.02-0.02
			C38.4,74.9,38.38,74.88,38.36,74.86z"/>
		<path class="st10" d="M34.35,79.46c0.05-0.05,0.09-0.1,0.14-0.14l-0.21-0.02C34.31,79.35,34.33,79.41,34.35,79.46z"/>
		<path class="st10" d="M36.49,79.44c0-0.01,0.01-0.02,0.01-0.02l-0.02,0.01C36.49,79.43,36.49,79.43,36.49,79.44z"/>
		<path class="st12" d="M33.91,64.07c-0.2,0.24-0.3,0.53-0.3,0.81c-0.46-0.14-0.98,0-1.31,0.39c-0.17,0.2-0.26,0.43-0.29,0.67
			c-0.35,0-0.71,0.15-0.96,0.44c-0.31,0.37-0.37,0.86-0.2,1.28c-0.48-0.18-1.04-0.05-1.39,0.36c-0.41,0.48-0.39,1.18,0.02,1.64
			c-0.34,0.01-0.68,0.16-0.92,0.44c-0.31,0.36-0.37,0.85-0.21,1.26c-0.23,0.06-0.45,0.2-0.62,0.39c-0.45,0.53-0.38,1.31,0.14,1.76
			c0.01,0.01,0.02,0.01,0.03,0.02c-0.18,0.07-0.34,0.19-0.47,0.34c-0.45,0.53-0.38,1.31,0.14,1.76c0.03,0.03,0.06,0.05,0.09,0.07
			c-0.54,0.66-0.56,1.53-0.04,1.97c0.24,0.2,0.55,0.28,0.87,0.24c-0.19,0.54-0.11,1.1,0.28,1.42c0.35,0.3,0.85,0.32,1.32,0.11
			c-0.13,0.49-0.03,0.99,0.32,1.28c0.33,0.28,0.81,0.32,1.26,0.13c0.06,0.21,0.17,0.39,0.33,0.53c0.11,0.09,0.24,0.16,0.37,0.2
			c0.27-0.1,0.54-0.28,0.76-0.54c0.12-0.14,0.21-0.29,0.28-0.44c0.06,0.11,0.14,0.21,0.24,0.3c0.53,0.45,1.41,0.27,1.97-0.39
			c0.32-0.37,0.46-0.82,0.44-1.22c0.02,0.02,0.03,0.03,0.05,0.05c0.53,0.45,1.41,0.27,1.97-0.39c0.35-0.41,0.49-0.91,0.42-1.34
			c0.19-0.11,0.37-0.25,0.53-0.43c0.55-0.65,0.59-1.52,0.09-1.97c0.39,0.04,0.8-0.11,1.07-0.43c0.45-0.53,0.38-1.31-0.14-1.76
			c-0.01-0.01-0.02-0.01-0.03-0.02c0.19-0.07,0.36-0.19,0.5-0.36c0.45-0.53,0.38-1.31-0.14-1.76c-0.04-0.04-0.09-0.07-0.14-0.1
			c0.3-0.51,0.19-1.18-0.27-1.57c-0.16-0.14-0.35-0.23-0.55-0.27c0.19-0.48,0.07-1.06-0.35-1.41c-0.25-0.21-0.55-0.3-0.85-0.29
			c0.06-0.41-0.08-0.85-0.43-1.14c-0.23-0.19-0.5-0.29-0.78-0.3c0.04-0.39-0.11-0.8-0.43-1.07c-0.4-0.34-0.96-0.38-1.4-0.15
			c0.07-0.32,0.01-0.67-0.17-0.95C34.6,63.59,34.19,63.74,33.91,64.07z M31.29,79.36c-0.02-0.06-0.04-0.11-0.07-0.16l0.21,0.02
			C31.39,79.27,31.34,79.31,31.29,79.36z M33.44,79.34c0-0.01-0.01-0.01-0.01-0.02l0.02-0.01C33.45,79.32,33.44,79.33,33.44,79.34z
			 M34.35,79.46c-0.02-0.06-0.04-0.11-0.07-0.16l0.21,0.02C34.44,79.37,34.4,79.41,34.35,79.46z M36.49,79.44
			c0-0.01-0.01-0.01-0.01-0.02l0.02-0.01C36.5,79.42,36.5,79.43,36.49,79.44z M38.33,74.94l0.03-0.08c0.02,0.02,0.04,0.04,0.07,0.06
			c0.01,0.01,0.02,0.01,0.02,0.02C38.41,74.94,38.37,74.94,38.33,74.94z"/>
		<g class="st13">
			
				<ellipse transform="matrix(0.6474 -0.7622 0.7622 0.6474 -43.6054 48.5027)" class="st14" cx="30.61" cy="71.37" rx="1.57" ry="1.25"/>
			
				<ellipse transform="matrix(0.6474 -0.7622 0.7622 0.6474 -40.0047 49.5022)" class="st14" cx="33.49" cy="67.98" rx="1.57" ry="1.25"/>
			
				<ellipse transform="matrix(0.6474 -0.7622 0.7622 0.6474 -42.1865 51.3602)" class="st14" cx="34.41" cy="71.27" rx="1.57" ry="1.25"/>
			
				<ellipse transform="matrix(0.6474 -0.7622 0.7622 0.6474 -37.614 51.4672)" class="st14" cx="36.81" cy="66.38" rx="1.57" ry="1.25"/>
			
				<ellipse transform="matrix(0.6474 -0.7622 0.7622 0.6474 -46.1344 50.36)" class="st14" cx="31.36" cy="75.04" rx="1.57" ry="1.25"/>
			
				<ellipse transform="matrix(0.6474 -0.7622 0.7622 0.6474 -46.0589 53.3526)" class="st14" cx="34.63" cy="76.45" rx="1.57" ry="1.25"/>
			
				<ellipse transform="matrix(0.6474 -0.7622 0.7622 0.6474 -47.0763 55.8014)" class="st14" cx="36.76" cy="78.77" rx="1.57" ry="1.25"/>
			
				<ellipse transform="matrix(0.6474 -0.7622 0.7622 0.6474 -49.0139 52.209)" class="st14" cx="31.91" cy="79.07" rx="1.57" ry="1.25"/>
			
				<ellipse transform="matrix(0.6474 -0.7622 0.7622 0.6474 -43.1169 54.526)" class="st14" cx="37.37" cy="73.86" rx="1.57" ry="1.25"/>
			
				<ellipse transform="matrix(0.6474 -0.7622 0.7622 0.6474 -39.4495 53.4613)" class="st14" cx="38.05" cy="69.36" rx="1.57" ry="1.25"/>
			
				<ellipse transform="matrix(0.6474 -0.7622 0.7622 0.6474 -39.2808 56.1983)" class="st14" cx="41.09" cy="70.55" rx="1.57" ry="1.25"/>
			
				<ellipse transform="matrix(0.6474 -0.7622 0.7622 0.6474 -43.6063 57.1269)" class="st14" cx="39.93" cy="75.69" rx="1.57" ry="1.25"/>
		</g>
	</g>
	<g>
		<path class="st9" d="M75.71,69.31l0.06,0.06c0.01-0.04,0.03-0.08,0.05-0.11c-0.01,0.01-0.02,0.01-0.03,0.02
			C75.77,69.28,75.74,69.3,75.71,69.31z"/>
		<path class="st10" d="M76.79,78.34c-0.01-0.01-0.01-0.01-0.02-0.02l0,0.02C76.78,78.35,76.78,78.35,76.79,78.34z"/>
		<path class="st11" d="M63.76,71.22c-0.06-0.5,0.19-1,0.66-1.24c0.38-0.2,0.81-0.18,1.16,0c0.11-0.25,0.3-0.48,0.57-0.61
			c0.4-0.21,0.85-0.18,1.21,0.03c0.1-0.28,0.3-0.52,0.59-0.67c0.49-0.26,1.06-0.16,1.44,0.2c0.11-0.17,0.27-0.31,0.46-0.41
			c0.54-0.28,1.2-0.13,1.56,0.34c0.05-0.03,0.09-0.06,0.15-0.09c0.61-0.32,1.36-0.08,1.68,0.53c0.1,0.19,0.15,0.4,0.14,0.6
			c0.01-0.01,0.02-0.01,0.03-0.02c0.61-0.32,1.36-0.08,1.68,0.53c0.2,0.38,0.18,0.81,0,1.16c0.61-0.29,1.4,0.07,1.8,0.82
			c0.11,0.21,0.18,0.43,0.2,0.65c0.42,0.1,0.83,0.42,1.08,0.89c0.4,0.77,0.23,1.65-0.38,1.97c-0.02,0.01-0.04,0.02-0.06,0.03
			c0.38,0.13,0.74,0.43,0.96,0.86c0.4,0.77,0.23,1.65-0.38,1.97c-0.12,0.06-0.24,0.1-0.37,0.11c0.12,0.12,0.22,0.26,0.3,0.43
			c0.16,0.3,0.22,0.61,0.22,0.9c0.32-0.4,0.37-1.03,0.09-1.62c0.19,0.01,0.38-0.02,0.55-0.11c0.61-0.32,0.78-1.2,0.38-1.97
			c-0.08-0.16-0.19-0.3-0.3-0.43c0.13-0.01,0.25-0.05,0.37-0.11c0.61-0.32,0.78-1.2,0.38-1.97c-0.23-0.43-0.58-0.73-0.96-0.86
			c0.02-0.01,0.04-0.02,0.06-0.03c0.61-0.32,0.78-1.2,0.38-1.97c-0.25-0.48-0.66-0.8-1.08-0.89c-0.03-0.22-0.09-0.44-0.2-0.65
			c-0.39-0.75-1.19-1.11-1.8-0.82c0.18-0.35,0.2-0.78,0-1.16c-0.32-0.61-1.07-0.85-1.68-0.53c-0.01,0.01-0.02,0.01-0.03,0.02
			c0-0.2-0.04-0.41-0.14-0.6c-0.32-0.61-1.07-0.85-1.68-0.53c-0.05,0.03-0.1,0.06-0.15,0.09c-0.36-0.47-1.02-0.62-1.56-0.34
			c-0.19,0.1-0.35,0.24-0.46,0.41c-0.38-0.36-0.95-0.46-1.44-0.2c-0.28,0.15-0.49,0.39-0.59,0.67c-0.36-0.21-0.82-0.24-1.21-0.03
			c-0.26,0.14-0.46,0.36-0.57,0.61c-0.35-0.18-0.78-0.2-1.16,0c-0.47,0.25-0.71,0.75-0.66,1.24c-0.37-0.25-0.86-0.3-1.29-0.08
			c-0.61,0.32-0.85,1.07-0.53,1.68c0.09,0.16,0.2,0.3,0.34,0.4c-0.06,0.02-0.13,0.05-0.19,0.08c-0.23,0.12-0.4,0.3-0.52,0.51
			C63.14,70.95,63.48,71.03,63.76,71.22z M75.78,69.37l-0.06-0.06c0.03-0.01,0.06-0.02,0.08-0.04c0.01,0,0.02-0.01,0.03-0.02
			C75.81,69.29,75.79,69.33,75.78,69.37z"/>
		<path class="st10" d="M76.01,80.34c-0.03-0.06-0.05-0.12-0.08-0.18l-0.1,0.19C75.89,80.34,75.95,80.34,76.01,80.34z"/>
		<path class="st10" d="M74.48,72.1l0.06,0.06c0.01-0.04,0.03-0.08,0.05-0.11c-0.01,0.01-0.02,0.01-0.03,0.02
			C74.54,72.08,74.51,72.09,74.48,72.1z"/>
		<path class="st10" d="M77.25,77.55c-0.03-0.06-0.05-0.12-0.08-0.18l-0.1,0.19C77.13,77.54,77.19,77.54,77.25,77.55z"/>
		<path class="st10" d="M78.03,75.55c-0.01-0.01-0.01-0.01-0.02-0.02l0,0.02C78.01,75.55,78.02,75.55,78.03,75.55z"/>
		<path class="st12" d="M62.8,72.19c0.14,0.27,0.38,0.47,0.64,0.58c-0.3,0.38-0.37,0.91-0.13,1.36c0.12,0.23,0.3,0.4,0.51,0.52
			c-0.13,0.33-0.13,0.71,0.05,1.05c0.22,0.43,0.66,0.67,1.11,0.67c-0.35,0.38-0.44,0.94-0.19,1.42c0.29,0.56,0.95,0.8,1.53,0.59
			c-0.12,0.32-0.11,0.69,0.06,1.02c0.22,0.42,0.65,0.66,1.09,0.67c-0.03,0.24,0.01,0.49,0.13,0.72c0.32,0.61,1.07,0.85,1.68,0.53
			c0.01-0.01,0.02-0.01,0.03-0.02c0,0.19,0.05,0.39,0.14,0.57c0.32,0.61,1.07,0.85,1.68,0.53c0.04-0.02,0.07-0.04,0.1-0.06
			c0.41,0.74,1.21,1.09,1.81,0.77c0.28-0.14,0.46-0.4,0.54-0.71c0.42,0.38,0.98,0.51,1.42,0.28c0.41-0.21,0.61-0.67,0.59-1.18
			c0.41,0.31,0.9,0.4,1.31,0.19c0.39-0.2,0.6-0.63,0.59-1.12c0.21,0.03,0.43-0.01,0.62-0.11c0.13-0.07,0.23-0.16,0.32-0.27
			c0.01-0.29-0.06-0.61-0.22-0.9c-0.08-0.16-0.19-0.3-0.3-0.43c0.13-0.01,0.25-0.05,0.37-0.11c0.61-0.32,0.78-1.2,0.38-1.97
			c-0.23-0.43-0.58-0.73-0.96-0.86c0.02-0.01,0.04-0.02,0.06-0.03c0.61-0.32,0.78-1.2,0.38-1.97c-0.25-0.48-0.66-0.8-1.08-0.89
			c-0.03-0.22-0.09-0.44-0.2-0.65c-0.39-0.75-1.19-1.11-1.8-0.82c0.18-0.35,0.2-0.78,0-1.16c-0.32-0.61-1.07-0.85-1.68-0.53
			c-0.01,0.01-0.02,0.01-0.03,0.02c0-0.2-0.04-0.41-0.14-0.6c-0.32-0.61-1.07-0.85-1.68-0.53c-0.05,0.03-0.1,0.06-0.15,0.09
			c-0.36-0.47-1.02-0.62-1.56-0.34c-0.19,0.1-0.35,0.24-0.46,0.41c-0.38-0.36-0.95-0.46-1.44-0.2c-0.28,0.15-0.49,0.39-0.59,0.67
			c-0.36-0.21-0.82-0.24-1.21-0.03c-0.26,0.14-0.46,0.36-0.57,0.61c-0.35-0.18-0.78-0.2-1.16,0c-0.47,0.25-0.71,0.75-0.66,1.24
			c-0.27-0.19-0.61-0.26-0.94-0.2C62.62,71.37,62.6,71.81,62.8,72.19z M76.01,80.34c-0.06,0-0.12,0-0.17,0l0.1-0.19
			C75.96,80.22,75.98,80.28,76.01,80.34z M76.79,78.34c-0.01,0-0.01,0-0.02,0l0-0.02C76.78,78.33,76.79,78.34,76.79,78.34z
			 M77.25,77.55c-0.06,0-0.12,0-0.17,0l0.1-0.19C77.19,77.42,77.22,77.49,77.25,77.55z M78.03,75.55c-0.01,0-0.01,0-0.02,0l0-0.02
			C78.02,75.54,78.02,75.54,78.03,75.55z M74.54,72.16l-0.06-0.06c0.03-0.01,0.06-0.02,0.08-0.04c0.01,0,0.02-0.01,0.03-0.02
			C74.57,72.09,74.56,72.13,74.54,72.16z"/>
		<g class="st13">
			
				<ellipse transform="matrix(0.8856 -0.4645 0.4645 0.8856 -28.4035 40.672)" class="st14" cx="68.35" cy="77.98" rx="1.25" ry="1.57"/>
			
				<ellipse transform="matrix(0.8856 -0.4645 0.4645 0.8856 -26.8097 39.261)" class="st14" cx="66.28" cy="74.04" rx="1.25" ry="1.57"/>
			
				<ellipse transform="matrix(0.8856 -0.4645 0.4645 0.8856 -26.598 40.8797)" class="st14" cx="69.67" cy="74.42" rx="1.25" ry="1.57"/>
			
				<ellipse transform="matrix(0.8856 -0.4645 0.4645 0.8856 -25.1295 38.7276)" class="st14" cx="66.04" cy="70.37" rx="1.25" ry="1.57"/>
			
				<ellipse transform="matrix(0.8856 -0.4645 0.4645 0.8856 -28.2998 42.4564)" class="st14" cx="72.02" cy="78.67" rx="1.25" ry="1.57"/>
			
				<ellipse transform="matrix(0.8856 -0.4645 0.4645 0.8856 -26.8462 43.348)" class="st14" cx="74.56" cy="76.16" rx="1.25" ry="1.57"/>
			
				<ellipse transform="matrix(0.8856 -0.4645 0.4645 0.8856 -25.9913 44.5933)" class="st14" cx="77.51" cy="75.05" rx="1.25" ry="1.57"/>
			
				<ellipse transform="matrix(0.8856 -0.4645 0.4645 0.8856 -28.3088 44.4057)" class="st14" cx="75.97" cy="79.66" rx="1.25" ry="1.57"/>
			
				<ellipse transform="matrix(0.8856 -0.4645 0.4645 0.8856 -25.3735 42.3057)" class="st14" cx="73.18" cy="72.65" rx="1.25" ry="1.57"/>
			
				<ellipse transform="matrix(0.8856 -0.4645 0.4645 0.8856 -24.7454 40.2229)" class="st14" cx="69.26" cy="70.34" rx="1.25" ry="1.57"/>
			
				<ellipse transform="matrix(0.8856 -0.4645 0.4645 0.8856 -23.3851 40.9907)" class="st14" cx="71.5" cy="67.96" rx="1.25" ry="1.57"/>
			
				<ellipse transform="matrix(0.8856 -0.4645 0.4645 0.8856 -24.2822 43.3459)" class="st14" cx="75.83" cy="70.96" rx="1.25" ry="1.57"/>
		</g>
	</g>
	<g>
		<path class="st9" d="M60.97,50.02l0.06,0.06c0.01-0.04,0.03-0.08,0.05-0.11c-0.01,0.01-0.02,0.01-0.03,0.02
			C61.03,49.99,61,50,60.97,50.02z"/>
		<path class="st10" d="M62.05,59.05c-0.01-0.01-0.01-0.01-0.02-0.02l0,0.02C62.04,59.05,62.04,59.05,62.05,59.05z"/>
		<path class="st11" d="M49.01,51.92c-0.06-0.5,0.19-1,0.66-1.24c0.38-0.2,0.81-0.18,1.16,0c0.11-0.25,0.3-0.48,0.57-0.61
			c0.4-0.21,0.85-0.18,1.21,0.03c0.1-0.28,0.3-0.52,0.59-0.67c0.49-0.26,1.06-0.16,1.44,0.2c0.11-0.17,0.27-0.31,0.46-0.41
			c0.54-0.28,1.2-0.13,1.56,0.34c0.05-0.03,0.09-0.06,0.15-0.09c0.61-0.32,1.36-0.08,1.68,0.53c0.1,0.19,0.15,0.4,0.14,0.6
			c0.01-0.01,0.02-0.01,0.03-0.02c0.61-0.32,1.36-0.08,1.68,0.53c0.2,0.38,0.18,0.81,0,1.16c0.61-0.29,1.4,0.07,1.8,0.82
			c0.11,0.21,0.18,0.43,0.2,0.65c0.42,0.1,0.83,0.42,1.08,0.89c0.4,0.77,0.23,1.65-0.38,1.97c-0.02,0.01-0.04,0.02-0.06,0.03
			c0.38,0.13,0.74,0.43,0.96,0.86c0.4,0.77,0.23,1.65-0.38,1.97c-0.12,0.06-0.24,0.1-0.37,0.11c0.12,0.12,0.22,0.26,0.3,0.43
			c0.16,0.3,0.22,0.61,0.22,0.9c0.32-0.4,0.37-1.03,0.09-1.62c0.19,0.01,0.38-0.02,0.55-0.11c0.61-0.32,0.78-1.2,0.38-1.97
			c-0.08-0.16-0.19-0.3-0.3-0.43c0.13-0.01,0.25-0.05,0.37-0.11c0.61-0.32,0.78-1.2,0.38-1.97c-0.23-0.43-0.58-0.73-0.96-0.86
			c0.02-0.01,0.04-0.02,0.06-0.03c0.61-0.32,0.78-1.2,0.38-1.97c-0.25-0.48-0.66-0.8-1.08-0.89c-0.03-0.22-0.09-0.44-0.2-0.65
			c-0.39-0.75-1.19-1.11-1.8-0.82c0.18-0.35,0.2-0.78,0-1.16c-0.32-0.61-1.07-0.85-1.68-0.53c-0.01,0.01-0.02,0.01-0.03,0.02
			c0-0.2-0.04-0.41-0.14-0.6c-0.32-0.61-1.07-0.85-1.68-0.53c-0.05,0.03-0.1,0.06-0.15,0.09c-0.36-0.47-1.02-0.62-1.56-0.34
			c-0.19,0.1-0.35,0.24-0.46,0.41c-0.38-0.36-0.95-0.46-1.44-0.2c-0.28,0.15-0.49,0.39-0.59,0.67c-0.36-0.21-0.82-0.24-1.21-0.03
			c-0.26,0.14-0.46,0.36-0.57,0.61c-0.35-0.18-0.78-0.2-1.16,0c-0.47,0.25-0.71,0.75-0.66,1.24c-0.37-0.25-0.86-0.3-1.29-0.08
			c-0.61,0.32-0.85,1.07-0.53,1.68c0.09,0.16,0.2,0.3,0.34,0.4c-0.06,0.02-0.13,0.05-0.19,0.08c-0.23,0.12-0.4,0.3-0.52,0.51
			C48.4,51.66,48.74,51.74,49.01,51.92z M61.04,50.08l-0.06-0.06c0.03-0.01,0.06-0.02,0.08-0.04c0.01,0,0.02-0.01,0.03-0.02
			C61.07,50,61.05,50.04,61.04,50.08z"/>
		<path class="st10" d="M61.27,61.05c-0.03-0.06-0.05-0.12-0.08-0.18l-0.1,0.19C61.15,61.05,61.21,61.05,61.27,61.05z"/>
		<path class="st10" d="M59.74,52.81l0.06,0.06c0.01-0.04,0.03-0.08,0.05-0.11c-0.01,0.01-0.02,0.01-0.03,0.02
			C59.79,52.79,59.77,52.8,59.74,52.81z"/>
		<path class="st10" d="M62.51,58.25c-0.03-0.06-0.05-0.12-0.08-0.18l-0.1,0.19C62.39,58.25,62.45,58.25,62.51,58.25z"/>
		<path class="st10" d="M63.29,56.26c-0.01-0.01-0.01-0.01-0.02-0.02l0,0.02C63.27,56.26,63.28,56.26,63.29,56.26z"/>
		<path class="st12" d="M48.06,52.9c0.14,0.27,0.38,0.47,0.64,0.58c-0.3,0.38-0.37,0.91-0.13,1.36c0.12,0.23,0.3,0.4,0.51,0.52
			c-0.13,0.33-0.13,0.71,0.05,1.05c0.22,0.43,0.66,0.67,1.11,0.67c-0.35,0.38-0.44,0.94-0.19,1.42c0.29,0.56,0.95,0.8,1.53,0.59
			c-0.12,0.32-0.11,0.69,0.06,1.02c0.22,0.42,0.65,0.66,1.09,0.67c-0.03,0.24,0.01,0.49,0.13,0.72c0.32,0.61,1.07,0.85,1.68,0.53
			c0.01-0.01,0.02-0.01,0.03-0.02c0,0.19,0.05,0.39,0.14,0.57c0.32,0.61,1.07,0.85,1.68,0.53c0.04-0.02,0.07-0.04,0.1-0.06
			c0.41,0.74,1.21,1.09,1.81,0.77c0.28-0.14,0.46-0.4,0.54-0.71c0.42,0.38,0.98,0.51,1.42,0.28c0.41-0.21,0.61-0.67,0.59-1.18
			c0.41,0.31,0.9,0.4,1.31,0.19c0.39-0.2,0.6-0.63,0.59-1.12c0.21,0.03,0.43-0.01,0.62-0.11c0.13-0.07,0.23-0.16,0.32-0.27
			c0.01-0.29-0.06-0.61-0.22-0.9c-0.08-0.16-0.19-0.3-0.3-0.43c0.13-0.01,0.25-0.05,0.37-0.11c0.61-0.32,0.78-1.2,0.38-1.97
			c-0.23-0.43-0.58-0.73-0.96-0.86c0.02-0.01,0.04-0.02,0.06-0.03c0.61-0.32,0.78-1.2,0.38-1.97c-0.25-0.48-0.66-0.8-1.08-0.89
			c-0.03-0.22-0.09-0.44-0.2-0.65c-0.39-0.75-1.19-1.11-1.8-0.82c0.18-0.35,0.2-0.78,0-1.16c-0.32-0.61-1.07-0.85-1.68-0.53
			c-0.01,0.01-0.02,0.01-0.03,0.02c0-0.2-0.04-0.41-0.14-0.6c-0.32-0.61-1.07-0.85-1.68-0.53c-0.05,0.03-0.1,0.06-0.15,0.09
			c-0.36-0.47-1.02-0.62-1.56-0.34c-0.19,0.1-0.35,0.24-0.46,0.41c-0.38-0.36-0.95-0.46-1.44-0.2c-0.28,0.15-0.49,0.39-0.59,0.67
			c-0.36-0.21-0.82-0.24-1.21-0.03c-0.26,0.14-0.46,0.36-0.57,0.61c-0.35-0.18-0.78-0.2-1.16,0c-0.47,0.25-0.71,0.75-0.66,1.24
			c-0.27-0.19-0.61-0.26-0.94-0.2C47.88,52.08,47.86,52.52,48.06,52.9z M61.27,61.05c-0.06,0-0.12,0-0.17,0l0.1-0.19
			C61.21,60.93,61.24,60.99,61.27,61.05z M62.05,59.05c-0.01,0-0.01,0-0.02,0l0-0.02C62.04,59.04,62.04,59.05,62.05,59.05z
			 M62.51,58.25c-0.06,0-0.12,0-0.17,0l0.1-0.19C62.45,58.13,62.48,58.19,62.51,58.25z M63.29,56.26c-0.01,0-0.01,0-0.02,0l0-0.02
			C63.27,56.24,63.28,56.25,63.29,56.26z M59.8,52.87l-0.06-0.06c0.03-0.01,0.06-0.02,0.08-0.04c0.01,0,0.02-0.01,0.03-0.02
			C59.83,52.79,59.81,52.83,59.8,52.87z"/>
		<g class="st13">
			
				<ellipse transform="matrix(0.8856 -0.4645 0.4645 0.8856 -21.129 31.6168)" class="st14" cx="53.61" cy="58.69" rx="1.25" ry="1.57"/>
			
				<ellipse transform="matrix(0.8856 -0.4645 0.4645 0.8856 -19.5352 30.2058)" class="st14" cx="51.54" cy="54.75" rx="1.25" ry="1.57"/>
			
				<ellipse transform="matrix(0.8856 -0.4645 0.4645 0.8856 -19.3235 31.8245)" class="st14" cx="54.93" cy="55.13" rx="1.25" ry="1.57"/>
			
				<ellipse transform="matrix(0.8856 -0.4645 0.4645 0.8856 -17.855 29.6723)" class="st14" cx="51.3" cy="51.08" rx="1.25" ry="1.57"/>
			
				<ellipse transform="matrix(0.8856 -0.4645 0.4645 0.8856 -21.0254 33.4011)" class="st14" cx="57.28" cy="59.37" rx="1.25" ry="1.57"/>
			
				<ellipse transform="matrix(0.8856 -0.4645 0.4645 0.8856 -19.5718 34.2928)" class="st14" cx="59.82" cy="56.87" rx="1.25" ry="1.57"/>
			
				<ellipse transform="matrix(0.8856 -0.4645 0.4645 0.8856 -18.7168 35.5381)" class="st14" cx="62.77" cy="55.76" rx="1.25" ry="1.57"/>
			
				<ellipse transform="matrix(0.8856 -0.4645 0.4645 0.8856 -21.0343 35.3505)" class="st14" cx="61.23" cy="60.37" rx="1.25" ry="1.57"/>
			
				<ellipse transform="matrix(0.8856 -0.4645 0.4645 0.8856 -18.099 33.2505)" class="st14" cx="58.44" cy="53.36" rx="1.25" ry="1.57"/>
			
				<ellipse transform="matrix(0.8856 -0.4645 0.4645 0.8856 -17.471 31.1677)" class="st14" cx="54.52" cy="51.04" rx="1.25" ry="1.57"/>
			
				<ellipse transform="matrix(0.8856 -0.4645 0.4645 0.8856 -16.1106 31.9355)" class="st14" cx="56.76" cy="48.67" rx="1.25" ry="1.57"/>
			
				<ellipse transform="matrix(0.8856 -0.4645 0.4645 0.8856 -17.0077 34.2906)" class="st14" cx="61.09" cy="51.66" rx="1.25" ry="1.57"/>
		</g>
	</g>
	<g>
		<path class="st9" d="M40.23,48.36l-0.09-0.02c0.01,0.04,0.02,0.08,0.02,0.12c0-0.01,0.01-0.02,0.01-0.03
			C40.2,48.41,40.21,48.38,40.23,48.36z"/>
		<path class="st10" d="M34.47,41.31c0.01,0,0.02,0,0.02,0.01l-0.01-0.02C34.48,41.3,34.48,41.31,34.47,41.31z"/>
		<path class="st11" d="M49.3,40.32c0.31,0.39,0.37,0.94,0.11,1.4c-0.21,0.37-0.58,0.59-0.97,0.62c0.05,0.27,0,0.56-0.15,0.82
			c-0.22,0.39-0.62,0.61-1.04,0.62c0.06,0.29,0.02,0.61-0.14,0.89c-0.27,0.48-0.81,0.7-1.33,0.6c0,0.2-0.06,0.4-0.17,0.59
			c-0.3,0.53-0.94,0.75-1.5,0.55c-0.02,0.05-0.04,0.1-0.07,0.15c-0.34,0.6-1.11,0.8-1.7,0.46c-0.19-0.11-0.34-0.26-0.44-0.43
			c-0.01,0.01-0.01,0.02-0.02,0.03c-0.34,0.6-1.11,0.8-1.7,0.46c-0.37-0.21-0.59-0.58-0.62-0.98c-0.36,0.57-1.22,0.69-1.96,0.27
			c-0.21-0.12-0.38-0.27-0.52-0.44c-0.41,0.14-0.93,0.1-1.39-0.17c-0.75-0.43-1.08-1.26-0.74-1.86c0.01-0.02,0.02-0.04,0.04-0.06
			c-0.39,0.1-0.85,0.03-1.27-0.21c-0.75-0.43-1.08-1.26-0.74-1.86c0.07-0.11,0.15-0.21,0.25-0.29c-0.16-0.04-0.33-0.11-0.49-0.2
			c-0.29-0.17-0.52-0.39-0.67-0.65c-0.05,0.51,0.24,1.07,0.79,1.42c-0.17,0.09-0.31,0.22-0.4,0.39c-0.34,0.6-0.01,1.43,0.74,1.86
			c0.16,0.09,0.32,0.15,0.49,0.2c-0.1,0.08-0.18,0.18-0.25,0.29c-0.34,0.6-0.01,1.43,0.74,1.86c0.42,0.24,0.89,0.31,1.27,0.21
			c-0.01,0.02-0.03,0.04-0.04,0.06c-0.34,0.6-0.01,1.43,0.74,1.86c0.47,0.27,0.98,0.32,1.39,0.17c0.14,0.17,0.31,0.32,0.52,0.44
			c0.74,0.42,1.6,0.3,1.96-0.27c0.03,0.39,0.25,0.77,0.62,0.98c0.6,0.34,1.36,0.14,1.7-0.46c0.01-0.01,0.01-0.02,0.02-0.03
			c0.11,0.17,0.25,0.32,0.44,0.43c0.6,0.34,1.36,0.14,1.7-0.46c0.03-0.05,0.05-0.1,0.07-0.15c0.56,0.2,1.19-0.02,1.5-0.55
			c0.11-0.19,0.16-0.39,0.17-0.59c0.51,0.1,1.05-0.13,1.33-0.6c0.16-0.28,0.2-0.59,0.14-0.89c0.42-0.01,0.82-0.24,1.04-0.62
			c0.15-0.26,0.19-0.55,0.15-0.82c0.39-0.03,0.76-0.25,0.97-0.62c0.26-0.46,0.2-1.01-0.11-1.4c0.45,0.02,0.89-0.21,1.13-0.63
			c0.34-0.6,0.14-1.36-0.46-1.7c-0.16-0.09-0.33-0.14-0.5-0.16c0.04-0.05,0.08-0.11,0.12-0.17c0.13-0.22,0.18-0.47,0.16-0.71
			C49.95,40.22,49.63,40.34,49.3,40.32z M40.15,48.34l0.09,0.02c-0.02,0.03-0.03,0.05-0.05,0.08c-0.01,0.01-0.01,0.02-0.01,0.03
			C40.16,48.42,40.16,48.38,40.15,48.34z"/>
		<path class="st10" d="M34.06,39.21c0.06,0.04,0.11,0.07,0.16,0.11l-0.02-0.21C34.16,39.15,34.11,39.18,34.06,39.21z"/>
		<path class="st10" d="M39.77,45.33l-0.09-0.02c0.01,0.04,0.02,0.08,0.02,0.12c0-0.01,0.01-0.02,0.01-0.03
			C39.74,45.38,39.76,45.36,39.77,45.33z"/>
		<path class="st10" d="M34.52,42.23c0.06,0.04,0.11,0.07,0.16,0.11l-0.02-0.21C34.62,42.17,34.57,42.2,34.52,42.23z"/>
		<path class="st10" d="M34.93,44.33c0.01,0,0.02,0,0.02,0.01l-0.01-0.02C34.94,44.32,34.94,44.33,34.93,44.33z"/>
		<path class="st12" d="M49.57,38.99c-0.27-0.15-0.57-0.2-0.85-0.14c0.05-0.48-0.18-0.96-0.62-1.21c-0.22-0.13-0.47-0.18-0.71-0.16
			c-0.06-0.35-0.27-0.67-0.61-0.86c-0.42-0.24-0.91-0.21-1.29,0.03c0.09-0.5-0.14-1.03-0.61-1.3c-0.55-0.31-1.23-0.17-1.61,0.32
			c-0.07-0.34-0.28-0.64-0.6-0.83c-0.41-0.24-0.9-0.21-1.28,0.02c-0.11-0.22-0.28-0.41-0.5-0.53c-0.6-0.34-1.36-0.14-1.7,0.46
			c-0.01,0.01-0.01,0.02-0.02,0.03c-0.1-0.16-0.25-0.3-0.42-0.4c-0.6-0.34-1.36-0.14-1.7,0.46c-0.02,0.03-0.04,0.07-0.05,0.11
			c-0.74-0.41-1.61-0.27-1.95,0.32c-0.15,0.27-0.17,0.59-0.08,0.89c-0.56-0.09-1.1,0.1-1.35,0.53c-0.23,0.4-0.16,0.9,0.14,1.32
			c-0.51-0.04-0.98,0.15-1.21,0.55c-0.22,0.38-0.16,0.86,0.1,1.26c-0.19,0.09-0.35,0.24-0.46,0.42c-0.07,0.12-0.11,0.26-0.13,0.4
			c0.15,0.25,0.38,0.48,0.67,0.65c0.16,0.09,0.32,0.15,0.49,0.2c-0.1,0.08-0.18,0.18-0.25,0.29c-0.34,0.6-0.01,1.43,0.74,1.86
			c0.42,0.24,0.89,0.31,1.27,0.21c-0.01,0.02-0.03,0.04-0.04,0.06c-0.34,0.6-0.01,1.43,0.74,1.86c0.47,0.27,0.98,0.32,1.39,0.17
			c0.14,0.17,0.31,0.32,0.52,0.44c0.74,0.42,1.6,0.3,1.96-0.27c0.03,0.39,0.25,0.77,0.62,0.98c0.6,0.34,1.36,0.14,1.7-0.46
			c0.01-0.01,0.01-0.02,0.02-0.03c0.11,0.17,0.25,0.32,0.44,0.43c0.6,0.34,1.36,0.14,1.7-0.46c0.03-0.05,0.05-0.1,0.07-0.15
			c0.56,0.2,1.19-0.02,1.5-0.55c0.11-0.19,0.16-0.39,0.17-0.59c0.51,0.1,1.05-0.13,1.33-0.6c0.16-0.28,0.2-0.59,0.14-0.89
			c0.42-0.01,0.82-0.24,1.04-0.62c0.15-0.26,0.19-0.55,0.15-0.82c0.39-0.03,0.76-0.25,0.97-0.62c0.26-0.46,0.2-1.01-0.11-1.4
			c0.33,0.01,0.66-0.11,0.9-0.34C50.17,39.58,49.95,39.2,49.57,38.99z M34.06,39.21c0.05-0.03,0.1-0.06,0.15-0.1l0.02,0.21
			C34.17,39.28,34.11,39.24,34.06,39.21z M34.47,41.31c0.01,0,0.01-0.01,0.02-0.01l0.01,0.02C34.49,41.31,34.48,41.31,34.47,41.31z
			 M34.52,42.23c0.05-0.03,0.1-0.06,0.15-0.1l0.02,0.21C34.63,42.3,34.57,42.26,34.52,42.23z M34.93,44.33
			c0.01,0,0.01-0.01,0.02-0.01l0.01,0.02C34.95,44.34,34.94,44.34,34.93,44.33z M39.69,45.32l0.09,0.02
			c-0.02,0.03-0.03,0.05-0.05,0.08c-0.01,0.01-0.01,0.02-0.01,0.03C39.7,45.4,39.7,45.36,39.69,45.32z"/>
		<g class="st13">
			
				<ellipse transform="matrix(0.4976 -0.8674 0.8674 0.4976 -11.1696 54.8751)" class="st14" cx="41.79" cy="37.08" rx="1.25" ry="1.57"/>
			
				<ellipse transform="matrix(0.4976 -0.8674 0.8674 0.4976 -11.1512 59.3353)" class="st14" cx="45.65" cy="39.29" rx="1.25" ry="1.57"/>
			
				<ellipse transform="matrix(0.4976 -0.8674 0.8674 0.4976 -13.9926 57.4308)" class="st14" cx="42.58" cy="40.79" rx="1.25" ry="1.57"/>
			
				<ellipse transform="matrix(0.4976 -0.8674 0.8674 0.4976 -12.634 62.7182)" class="st14" cx="47.83" cy="42.27" rx="1.25" ry="1.57"/>
			
				<ellipse transform="matrix(0.4976 -0.8674 0.8674 0.4976 -14.1225 52.5717)" class="st14" cx="38.32" cy="38.48" rx="1.25" ry="1.57"/>
			
				<ellipse transform="matrix(0.4976 -0.8674 0.8674 0.4976 -17.5359 53.6279)" class="st14" cx="37.53" cy="41.95" rx="1.25" ry="1.57"/>
			
				<ellipse transform="matrix(0.4976 -0.8674 0.8674 0.4976 -20.6786 53.2525)" class="st14" cx="35.63" cy="44.48" rx="1.25" ry="1.57"/>
			
				<ellipse transform="matrix(0.4976 -0.8674 0.8674 0.4976 -17.1796 49.8628)" class="st14" cx="34.46" cy="39.76" rx="1.25" ry="1.57"/>
			
				<ellipse transform="matrix(0.4976 -0.8674 0.8674 0.4976 -17.9307 57.3877)" class="st14" cx="40.58" cy="44.17" rx="1.25" ry="1.57"/>
			
				<ellipse transform="matrix(0.4976 -0.8674 0.8674 0.4976 -15.5194 61.2557)" class="st14" cx="45.12" cy="44.03" rx="1.25" ry="1.57"/>
			
				<ellipse transform="matrix(0.4976 -0.8674 0.8674 0.4976 -18.6089 62.3363)" class="st14" cx="44.51" cy="47.23" rx="1.25" ry="1.57"/>
			
				<ellipse transform="matrix(0.4976 -0.8674 0.8674 0.4976 -21.077 57.6681)" class="st14" cx="39.25" cy="47.03" rx="1.25" ry="1.57"/>
		</g>
	</g>
	<g>
		<path class="st9" d="M67.34,31.46l0.04-0.08c-0.04-0.01-0.08-0.01-0.12-0.02c0.01,0.01,0.01,0.01,0.02,0.02
			C67.3,31.41,67.32,31.44,67.34,31.46z"/>
		<path class="st10" d="M75.91,28.4c0,0.01-0.01,0.01-0.01,0.02l0.02,0C75.91,28.41,75.91,28.4,75.91,28.4z"/>
		<path class="st11" d="M71.87,42.7c-0.47,0.16-1.01,0.04-1.36-0.37c-0.28-0.32-0.36-0.75-0.26-1.13c-0.27-0.05-0.53-0.19-0.73-0.42
			c-0.29-0.34-0.37-0.79-0.24-1.19c-0.3-0.04-0.58-0.18-0.79-0.42c-0.36-0.42-0.39-1-0.12-1.45c-0.19-0.07-0.36-0.19-0.5-0.35
			c-0.4-0.46-0.39-1.14-0.02-1.6c-0.04-0.04-0.08-0.08-0.12-0.12c-0.45-0.52-0.39-1.31,0.14-1.76c0.16-0.14,0.35-0.23,0.55-0.27
			c-0.01-0.01-0.02-0.02-0.02-0.03c-0.45-0.52-0.39-1.31,0.14-1.76c0.32-0.28,0.75-0.36,1.13-0.26c-0.42-0.53-0.24-1.38,0.4-1.94
			c0.18-0.16,0.38-0.27,0.59-0.34c0-0.43,0.22-0.9,0.63-1.25c0.66-0.56,1.55-0.59,2-0.07c0.01,0.02,0.03,0.04,0.04,0.05
			c0.04-0.4,0.25-0.81,0.62-1.13c0.66-0.56,1.55-0.59,2-0.07c0.09,0.1,0.15,0.21,0.19,0.33c0.09-0.14,0.21-0.27,0.35-0.39
			c0.25-0.22,0.55-0.36,0.83-0.41c-0.46-0.22-1.09-0.13-1.6,0.27c-0.03-0.19-0.11-0.36-0.23-0.51c-0.45-0.52-1.34-0.49-2,0.07
			c-0.14,0.12-0.25,0.25-0.35,0.39c-0.04-0.12-0.1-0.23-0.19-0.33c-0.45-0.52-1.34-0.49-2,0.07c-0.37,0.32-0.59,0.73-0.62,1.13
			c-0.01-0.02-0.03-0.04-0.04-0.05c-0.45-0.52-1.34-0.49-2,0.07c-0.41,0.35-0.63,0.82-0.63,1.25c-0.2,0.07-0.41,0.19-0.59,0.34
			c-0.64,0.55-0.82,1.41-0.4,1.94c-0.38-0.1-0.81-0.02-1.13,0.26c-0.52,0.45-0.58,1.24-0.14,1.76c0.01,0.01,0.02,0.02,0.02,0.03
			c-0.2,0.04-0.39,0.13-0.55,0.27c-0.52,0.45-0.58,1.24-0.14,1.76c0.04,0.04,0.08,0.08,0.12,0.12c-0.37,0.46-0.38,1.13,0.02,1.6
			c0.14,0.16,0.31,0.28,0.5,0.35c-0.27,0.45-0.23,1.03,0.12,1.45c0.21,0.24,0.49,0.39,0.79,0.42c-0.13,0.4-0.05,0.85,0.24,1.19
			c0.19,0.23,0.45,0.37,0.73,0.42c-0.1,0.38-0.02,0.8,0.26,1.13c0.34,0.4,0.89,0.53,1.36,0.37c-0.16,0.42-0.1,0.91,0.21,1.27
			c0.45,0.52,1.24,0.58,1.76,0.14c0.14-0.12,0.25-0.26,0.32-0.42c0.03,0.06,0.07,0.11,0.12,0.17c0.17,0.2,0.38,0.33,0.61,0.39
			C71.75,43.35,71.75,43,71.87,42.7z M67.38,31.39l-0.04,0.08c-0.02-0.02-0.04-0.05-0.06-0.07c-0.01-0.01-0.01-0.01-0.02-0.02
			C67.3,31.38,67.34,31.38,67.38,31.39z"/>
		<path class="st10" d="M78.03,28.71c-0.05,0.04-0.11,0.08-0.16,0.12l0.2,0.05C78.05,28.83,78.04,28.77,78.03,28.71z"/>
		<path class="st10" d="M70.34,32.04l0.04-0.08c-0.04-0.01-0.08-0.01-0.12-0.02c0.01,0.01,0.01,0.01,0.02,0.02
			C70.31,31.99,70.32,32.02,70.34,32.04z"/>
		<path class="st10" d="M75.03,28.13c-0.05,0.04-0.11,0.08-0.16,0.12l0.2,0.05C75.05,28.25,75.04,28.19,75.03,28.13z"/>
		<path class="st10" d="M72.91,27.82c0,0.01-0.01,0.01-0.01,0.02l0.02,0C72.91,27.83,72.91,27.82,72.91,27.82z"/>
		<path class="st12" d="M73.03,43.4c0.24-0.2,0.38-0.47,0.42-0.76c0.43,0.21,0.96,0.16,1.35-0.18c0.2-0.17,0.33-0.38,0.39-0.61
			c0.35,0.06,0.72-0.03,1.01-0.28c0.37-0.31,0.5-0.79,0.4-1.23c0.44,0.25,1.02,0.22,1.43-0.14c0.48-0.41,0.57-1.11,0.24-1.62
			c0.34,0.05,0.7-0.05,0.98-0.29c0.36-0.31,0.5-0.78,0.41-1.21c0.24-0.03,0.47-0.12,0.67-0.29c0.52-0.45,0.58-1.24,0.14-1.76
			c-0.01-0.01-0.02-0.02-0.02-0.02c0.19-0.04,0.37-0.13,0.52-0.26c0.52-0.45,0.58-1.24,0.14-1.76c-0.03-0.03-0.05-0.06-0.08-0.09
			c0.63-0.56,0.79-1.42,0.35-1.94c-0.2-0.24-0.5-0.36-0.82-0.37c0.28-0.5,0.28-1.07-0.05-1.45c-0.3-0.35-0.79-0.45-1.29-0.31
			c0.21-0.47,0.19-0.97-0.11-1.32c-0.29-0.33-0.75-0.44-1.22-0.33c-0.02-0.21-0.1-0.41-0.24-0.58c-0.09-0.11-0.21-0.19-0.33-0.25
			c-0.29,0.06-0.58,0.19-0.83,0.41c-0.14,0.12-0.25,0.25-0.35,0.39c-0.04-0.12-0.1-0.23-0.19-0.33c-0.45-0.52-1.34-0.49-2,0.07
			c-0.37,0.32-0.59,0.73-0.62,1.13c-0.01-0.02-0.03-0.04-0.04-0.05c-0.45-0.52-1.34-0.49-2,0.07c-0.41,0.35-0.63,0.82-0.63,1.25
			c-0.2,0.07-0.41,0.19-0.59,0.34c-0.64,0.55-0.82,1.41-0.4,1.94c-0.38-0.1-0.81-0.02-1.13,0.26c-0.52,0.45-0.58,1.24-0.14,1.76
			c0.01,0.01,0.02,0.02,0.02,0.03c-0.2,0.04-0.39,0.13-0.55,0.27c-0.52,0.45-0.58,1.24-0.14,1.76c0.04,0.04,0.08,0.08,0.12,0.12
			c-0.37,0.46-0.38,1.13,0.02,1.6c0.14,0.16,0.31,0.28,0.5,0.35c-0.27,0.45-0.23,1.03,0.12,1.45c0.21,0.24,0.49,0.39,0.79,0.42
			c-0.13,0.4-0.05,0.85,0.24,1.19c0.19,0.23,0.45,0.37,0.73,0.42c-0.1,0.38-0.02,0.8,0.26,1.13c0.34,0.4,0.89,0.53,1.36,0.37
			c-0.12,0.31-0.12,0.65,0.02,0.96C72.27,43.77,72.7,43.68,73.03,43.4z M78.03,28.71c0.01,0.06,0.02,0.12,0.04,0.17l-0.2-0.05
			C77.92,28.79,77.98,28.75,78.03,28.71z M75.91,28.4c0,0.01,0.01,0.01,0.01,0.02l-0.02,0C75.9,28.41,75.9,28.4,75.91,28.4z
			 M75.03,28.13c0.01,0.06,0.02,0.12,0.04,0.17l-0.2-0.05C74.92,28.21,74.98,28.17,75.03,28.13z M72.91,27.82
			c0,0.01,0.01,0.01,0.01,0.02l-0.02,0C72.9,27.83,72.9,27.82,72.91,27.82z M70.39,31.97l-0.04,0.08c-0.02-0.02-0.04-0.05-0.06-0.07
			c-0.01-0.01-0.01-0.01-0.02-0.02C70.3,31.96,70.34,31.96,70.39,31.97z"/>
		<g class="st13">
			
				<ellipse transform="matrix(0.7596 -0.6504 0.6504 0.7596 -5.2591 59.1889)" class="st14" cx="77.44" cy="36.71" rx="1.57" ry="1.25"/>
			
				<ellipse transform="matrix(0.7596 -0.6504 0.6504 0.7596 -7.9536 57.6863)" class="st14" cx="74.06" cy="39.6" rx="1.57" ry="1.25"/>
			
				<ellipse transform="matrix(0.7596 -0.6504 0.6504 0.7596 -5.8415 56.62)" class="st14" cx="73.67" cy="36.21" rx="1.57" ry="1.25"/>
			
				<ellipse transform="matrix(0.7596 -0.6504 0.6504 0.7596 -9.4894 55.6444)" class="st14" cx="70.53" cy="40.66" rx="1.57" ry="1.25"/>
			
				<ellipse transform="matrix(0.7596 -0.6504 0.6504 0.7596 -2.8686 58.1908)" class="st14" cx="77.29" cy="32.98" rx="1.57" ry="1.25"/>
			
				<ellipse transform="matrix(0.7596 -0.6504 0.6504 0.7596 -2.3468 55.775)" class="st14" cx="74.28" cy="31.06" rx="1.57" ry="1.25"/>
			
				<ellipse transform="matrix(0.7596 -0.6504 0.6504 0.7596 -1.0539 54.0082)" class="st14" cx="72.54" cy="28.43" rx="1.57" ry="1.25"/>
			
				<ellipse transform="matrix(0.7596 -0.6504 0.6504 0.7596 -0.1983 57.2676)" class="st14" cx="77.37" cy="28.9" rx="1.57" ry="1.25"/>
			
				<ellipse transform="matrix(0.7596 -0.6504 0.6504 0.7596 -4.4789 54.261)" class="st14" cx="71.16" cy="33.19" rx="1.57" ry="1.25"/>
			
				<ellipse transform="matrix(0.7596 -0.6504 0.6504 0.7596 -7.6287 54.4016)" class="st14" cx="69.78" cy="37.52" rx="1.57" ry="1.25"/>
			
				<ellipse transform="matrix(0.7596 -0.6504 0.6504 0.7596 -7.2314 52.1728)" class="st14" cx="66.96" cy="35.87" rx="1.57" ry="1.25"/>
			
				<ellipse transform="matrix(0.7596 -0.6504 0.6504 0.7596 -3.5801 52.2694)" class="st14" cx="68.92" cy="30.98" rx="1.57" ry="1.25"/>
		</g>
	</g>
</g>
</svg>
