<?xml version="1.0" encoding="utf-8"?>
<!-- Generator: Adobe Illustrator 23.1.1, SVG Export Plug-In . SVG Version: 6.00 Build 0)  -->
<svg version="1.1" id="Layer_1" xmlns="http://www.w3.org/2000/svg" xmlns:xlink="http://www.w3.org/1999/xlink" x="0px" y="0px"
	 viewBox="0 0 108 108" style="enable-background:new 0 0 108 108;" xml:space="preserve">
<style type="text/css">
	.st0{fill:none;stroke:#718537;stroke-width:1.0129;stroke-miterlimit:10;}
	.st1{fill:#A5C239;}
	.st2{fill:#84B541;}
	.st3{fill:#91BB3E;}
	.st4{fill:#AFCB36;}
	.st5{fill:#92B83F;}
	.st6{fill:#A5BE3B;}
	.st7{fill:#A4C839;}
	.st8{fill:#72AA42;}
	.st9{fill:#5B833A;}
	.st10{fill:#C1393A;}
	.st11{fill:#C12328;}
	.st12{fill:#AE1F24;}
	.st13{fill:#901A1D;}
</style>
<g>
	<g>
		<g>
			<path class="st0" d="M72.12,75.39c-0.06-2.42-1.01-6.76-1.68-9.84"/>
			<path class="st0" d="M78.52,72.27c-3.2-1.28-7.29-4.17-9.33-7.3"/>
			<path class="st0" d="M79.63,65.99c-3.63,1.75-6.65,3.78-9.15,0.14"/>
			<path class="st0" d="M65.02,59.07c-3.85-2.98-7.5-6.93-8.92-10.4"/>
			<path class="st0" d="M57.13,61.92c0.44-5.02-0.93-12.71-1.11-14.29"/>
			<path class="st0" d="M63.93,52.38c-2.98,0.94-4.66,2.38-7.6-2.57"/>
			<path class="st1" d="M66.89,80.13c-0.31-1.93-1.29-2.33,1.93-5.74c3.22-3.42,3.22-3.42,3.22-3.42s0.64,0.74,1.39,1.58
				s3.92,3.65,2.49,6.93c-1.43,3.28-2.67,5.06-3.15,5.57s-1.75,2.57-2.11,3.07"/>
			<path class="st2" d="M89.55,81.11c-2.34-0.98-5.72,1.13-8.56-0.86c-2.85-1.99-4.47-6.93-5.15-8.36s-1.84-0.81,0.84-0.86
				s2.84-0.96,5.17-0.4c2.33,0.56,5.56,4.04,5.78,5.48C87.85,77.55,89.55,81.11,89.55,81.11z"/>
			<path class="st3" d="M75.54,68.01c0.7,0,1.48,0.57,4.86,0.62c3.38,0.05,6.04-0.31,6.63-2.89c0.59-2.58-0.24-3.09,1.21-4.79
				c1.45-1.7,1.45-1.7,1.45-1.7s-2.91-0.09-6.96,0.01c-4.05,0.1-5.95,4.21-6.45,5.94C75.78,66.93,75.54,68.01,75.54,68.01z"/>
			<path class="st4" d="M73.71,68.04c0,0-1.56-1.73-4.75-1.74c-3.19-0.01-6.69-1.59-6.69-4.97c0-3.38-1.09-5.24-1.09-5.24
				s-0.07,0.48,2.71,0.26c2.78-0.22,6.73,1.69,7.84,4.45C72.83,63.58,73.71,68.04,73.71,68.04z"/>
			<path class="st5" d="M54.52,72.34c0,0,4.11-4.12,5.37-6.91c1.26-2.79,1.61-4.45-0.03-6.43s-2.23-3.57-2.23-3.57
				s-2.32,3.45-3.84,4.26c-1.52,0.8-3.2,3.63-2.38,5.3S54.52,72.34,54.52,72.34z"/>
			<path class="st6" d="M60.95,53.32c0,0.05,2.46,1.07,5.39,1.43c2.93,0.35,4.51,0.33,5.66-1.13s1.93-3,2.75-4.7
				c0.82-1.7,0.92-2.39,1.6-2.55s-0.85,0.59-4.08-0.21s-4.77-1.69-6.12-0.63s-1.3,3-2.39,4.57C62.67,51.65,60.95,53.32,60.95,53.32z
				"/>
		</g>
		<g>
			<path class="st0" d="M29.96,73.73c2.33-0.65,6.3-2.64,9.13-4.04"/>
			<path class="st0" d="M34.56,79.17c0.46-3.41,2.26-8.09,4.79-10.83"/>
			<path class="st0" d="M40.92,78.71c-2.59-3.09-5.29-5.52-2.38-8.84"/>
			<path class="st0" d="M44.04,62.84c1.94-4.46,4.87-8.97,7.89-11.19"/>
			<path class="st0" d="M39.35,55.9c4.97-0.8,12.1-4.02,13.58-4.58"/>
			<path class="st0" d="M50.26,60.15c-1.64-2.66-3.45-3.94,0.62-8"/>
			<path class="st2" d="M24.09,69.83c1.79-0.77,1.94-1.82,6.04,0.46s4.1,2.28,4.1,2.28s-0.56,0.8-1.19,1.73s-2.58,4.7-6.11,4.11
				s-5.56-1.34-6.18-1.69c-0.62-0.35-2.92-1.07-3.49-1.29"/>
			<path class="st7" d="M28.7,92.03c0.37-2.51-2.5-5.26-1.26-8.51c1.24-3.25,5.62-6.04,6.84-7.04c1.21-1.01,0.33-1.98,1.04,0.61
				c0.71,2.59,1.63,2.51,1.66,4.91s-2.55,6.38-3.9,6.94C31.73,89.51,28.7,92.03,28.7,92.03z"/>
			<path class="st3" d="M37.96,75.24c0.17,0.68-0.19,1.58,0.59,4.87c0.78,3.29,1.78,5.78,4.43,5.72c2.64-0.06,2.94-0.99,4.94,0
				c2,0.99,2,0.99,2,0.99s-0.63-2.84-1.72-6.75c-1.1-3.9-5.54-4.74-7.34-4.8C39.06,75.21,37.96,75.24,37.96,75.24z"/>
			<path class="st4" d="M37.47,73.47c0,0,1.29-1.93,0.52-5.03c-0.77-3.1-0.1-6.88,3.17-7.71c3.27-0.83,4.81-2.35,4.81-2.35
				s-0.48,0.05,0.41,2.69c0.89,2.64,0.01,6.94-2.4,8.69C41.59,71.53,37.47,73.47,37.47,73.47z"/>
			<path class="st5" d="M28.61,55.92c0,0,5,2.98,8.01,3.51c3.01,0.54,4.71,0.46,6.23-1.6s2.92-3.04,2.92-3.04s-3.91-1.4-5.07-2.68
				s-4.3-2.21-5.73-1.01C33.55,52.31,28.61,55.92,28.61,55.92z"/>
			<path class="st6" d="M48.63,57.49c-0.05,0.02-0.44,2.65-0.06,5.57c0.38,2.93,0.78,4.45,2.48,5.21s3.38,1.13,5.23,1.51
				c1.85,0.38,2.55,0.31,2.86,0.92c0.32,0.61-0.78-0.68-0.8-4.01c-0.01-3.33,0.46-5.04-0.89-6.08c-1.35-1.04-3.23-0.52-5.01-1.2
				C50.66,58.75,48.63,57.49,48.63,57.49z"/>
		</g>
		<g>
			<path class="st0" d="M36.95,32.42c0.77,2.3,2.95,6.16,4.5,8.91"/>
			<path class="st0" d="M31.74,37.28c3.43,0.29,8.2,1.85,11.06,4.24"/>
			<path class="st0" d="M32.53,43.62c2.96-2.74,5.25-5.56,8.71-2.82"/>
			<path class="st0" d="M48.52,45.94c4.55,1.72,9.21,4.42,11.57,7.32"/>
			<path class="st0" d="M55.22,40.9c1.05,4.93,4.62,11.88,5.26,13.34"/>
			<path class="st0" d="M51.52,52.02c2.57-1.77,3.76-3.65,8.02,0.22"/>
			<path class="st1" d="M40.55,26.36c0.86,1.75,1.92,1.85-0.16,6.06c-2.07,4.21-2.07,4.21-2.07,4.21s-0.83-0.52-1.79-1.1
				c-0.96-0.58-4.82-2.34-4.42-5.89s1.06-5.62,1.38-6.25c0.32-0.63,0.92-2.97,1.11-3.55"/>
			<path class="st2" d="M18.6,32.07c2.53,0.25,5.13-2.76,8.44-1.69c3.31,1.07,6.31,5.31,7.38,6.48c1.07,1.16,2,0.23-0.56,1.07
				s-2.43,1.75-4.82,1.9s-6.5-2.23-7.13-3.54C21.27,34.98,18.6,32.07,18.6,32.07z"/>
			<path class="st3" d="M35.84,40.48c-0.67,0.21-1.58-0.11-4.83,0.83c-3.25,0.94-5.69,2.07-5.49,4.71s1.14,2.89,0.25,4.93
				c-0.89,2.05-0.89,2.05-0.89,2.05s2.81-0.77,6.65-2.06s4.45-5.77,4.42-7.57C35.92,41.58,35.84,40.48,35.84,40.48z"/>
			<path class="st4" d="M37.58,39.91c0,0,2,1.19,5.05,0.27c3.06-0.92,6.86-0.45,7.85,2.78s2.59,4.69,2.59,4.69S53,47.18,50.4,48.2
				c-2.59,1.02-6.93,0.36-8.8-1.96C39.73,43.93,37.58,39.91,37.58,39.91z"/>
			<path class="st5" d="M54.66,30.18c0,0-2.72,5.14-3.11,8.18s-0.23,4.73,1.91,6.14s3.18,2.76,3.18,2.76s1.2-3.98,2.42-5.19
				c1.22-1.22,1.99-4.41,0.72-5.77S54.66,30.18,54.66,30.18z"/>
			<path class="st6" d="M54.1,50.25c-0.02-0.05-2.67-0.31-5.57,0.22c-2.9,0.52-4.41,1-5.08,2.74c-0.67,1.74-0.96,3.43-1.25,5.3
				c-0.28,1.86-0.18,2.56-0.78,2.91c-0.6,0.35,0.64-0.82,3.96-1c3.32-0.18,5.06,0.21,6.03-1.19c0.97-1.4,0.36-3.25,0.94-5.06
				S54.1,50.25,54.1,50.25z"/>
		</g>
		<g>
			<path class="st0" d="M79.74,38.01c-2.39,0.4-6.55,1.96-9.5,3.06"/>
			<path class="st0" d="M75.75,32.11c-0.82,3.35-3.1,7.81-5.91,10.27"/>
			<path class="st0" d="M69.37,31.9c2.25,3.35,4.68,6.05,1.43,9.04"/>
			<path class="st0" d="M64.59,47.35c-2.4,4.23-5.8,8.41-9.03,10.3"/>
			<path class="st0" d="M68.53,54.75c-5.03,0.27-12.45,2.71-13.99,3.12"/>
			<path class="st0" d="M58.12,49.37c1.35,2.82,3.02,4.28-1.47,7.88"/>
			<path class="st1" d="M85.17,42.51c-1.87,0.58-2.12,1.61-5.96-1.1c-3.84-2.7-3.84-2.7-3.84-2.7s0.64-0.74,1.37-1.6
				c0.72-0.86,3.06-4.4,6.51-3.45c3.45,0.96,5.39,1.92,5.96,2.33s2.79,1.37,3.34,1.65"/>
			<path class="st7" d="M82.94,19.94c-0.64,2.46,1.93,5.5,0.36,8.6s-6.23,5.41-7.55,6.28c-1.31,0.87-0.54,1.94-0.97-0.71
				c-0.43-2.65-1.35-2.67-1.13-5.06s3.21-6.08,4.61-6.49C79.65,22.13,82.94,19.94,82.94,19.94z"/>
			<path class="st2" d="M71.95,35.67c-0.1-0.69,0.36-1.55-0.07-4.9s-1.16-5.94-3.8-6.16c-2.64-0.22-3.03,0.68-4.91-0.52
				c-1.88-1.2-1.88-1.2-1.88-1.2s0.32,2.89,1,6.89c0.68,4,5.01,5.3,6.79,5.55C70.85,35.57,71.95,35.67,71.95,35.67z"/>
			<path class="st4" d="M72.25,37.47c0,0-1.49,1.79-1.05,4.95s-0.63,6.85-3.97,7.33c-3.34,0.48-5.04,1.82-5.04,1.82
				s0.48,0-0.12-2.72c-0.61-2.72,0.72-6.9,3.3-8.39C67.95,38.97,72.25,37.47,72.25,37.47z"/>
			<path class="st5" d="M79.21,55.86c0,0-4.66-3.49-7.6-4.34s-4.63-0.96-6.37,0.94c-1.73,1.9-3.22,2.71-3.22,2.71
				s3.74,1.81,4.76,3.2c1.01,1.39,4.04,2.65,5.59,1.61C73.91,58.93,79.21,55.86,79.21,55.86z"/>
			<path class="st6" d="M59.47,52.18c0.05-0.01,0.72-2.59,0.65-5.54s-0.31-4.51-1.92-5.45c-1.61-0.93-3.24-1.49-5.04-2.05
				c-1.8-0.57-2.5-0.57-2.75-1.22c-0.25-0.64,0.71,0.76,0.37,4.07c-0.34,3.31-0.99,4.97,0.24,6.14s3.16,0.86,4.86,1.72
				C57.58,50.72,59.47,52.18,59.47,52.18z"/>
		</g>
		<g>
			<g>
				<path class="st8" d="M56.09,64.7c-0.06-2.42-1.01-6.76-1.68-9.84"/>
				<path class="st8" d="M62.49,61.59c-3.2-1.28-7.29-4.17-9.33-7.3"/>
				<path class="st8" d="M63.6,55.3c-3.63,1.75-6.65,3.78-9.15,0.14"/>
				<path class="st8" d="M48.99,48.38c-3.85-2.98-7.5-6.93-8.92-10.4"/>
				<path class="st8" d="M41.1,51.24c0.44-5.02-0.93-12.71-1.11-14.29"/>
				<path class="st8" d="M47.9,41.69c-2.98,0.94-4.66,2.38-7.6-2.57"/>
				<g>
					<path class="st8" d="M50.86,69.44c-0.31-1.93-1.29-2.33,1.93-5.74s3.22-3.42,3.22-3.42s0.64,0.74,1.39,1.58
						c0.75,0.84,3.92,3.65,2.49,6.93s-2.67,5.06-3.15,5.57c-0.49,0.51-1.75,2.57-2.11,3.07"/>
				</g>
				<g>
					<path class="st8" d="M73.52,70.42c-2.34-0.98-5.72,1.13-8.56-0.86c-2.85-1.99-4.47-6.93-5.15-8.36
						c-0.68-1.42-1.84-0.81,0.84-0.86c2.69-0.05,2.84-0.96,5.17-0.4c2.33,0.56,5.56,4.04,5.78,5.48
						C71.82,66.86,73.52,70.42,73.52,70.42z"/>
				</g>
				<g>
					<path class="st8" d="M59.51,57.32c0.7,0,1.48,0.57,4.86,0.62c3.38,0.05,6.04-0.31,6.63-2.89c0.59-2.58-0.24-3.09,1.21-4.79
						c1.45-1.7,1.45-1.7,1.45-1.7s-2.91-0.09-6.96,0.01s-5.95,4.21-6.45,5.94C59.75,56.25,59.51,57.32,59.51,57.32z"/>
				</g>
				<g>
					<path class="st8" d="M57.68,57.36c0,0-1.56-1.73-4.75-1.74c-3.19-0.01-6.69-1.59-6.69-4.97c0-3.38-1.09-5.24-1.09-5.24
						s-0.07,0.48,2.71,0.26s6.73,1.69,7.84,4.45C56.8,52.89,57.68,57.36,57.68,57.36z"/>
				</g>
				<g>
					<path class="st8" d="M38.49,61.65c0,0,4.11-4.12,5.37-6.91c1.26-2.79,1.61-4.45-0.03-6.43c-1.63-1.98-2.23-3.57-2.23-3.57
						s-2.32,3.45-3.84,4.26c-1.52,0.8-3.2,3.63-2.38,5.3S38.49,61.65,38.49,61.65z"/>
				</g>
				<g>
					<path class="st8" d="M44.92,42.63c0,0.05,2.46,1.07,5.39,1.43c2.93,0.35,4.51,0.33,5.66-1.13c1.15-1.46,1.93-3,2.75-4.7
						c0.82-1.7,0.92-2.39,1.6-2.55c0.67-0.16-0.85,0.59-4.08-0.21c-3.23-0.8-4.77-1.69-6.12-0.63c-1.34,1.05-1.3,3-2.39,4.57
						C46.64,40.97,44.92,42.63,44.92,42.63z"/>
				</g>
			</g>
		</g>
	</g>
	<g>
		<path class="st9" d="M39.95,65.52c-0.05-0.03-0.11-0.07-0.16-0.1c-1.07-0.66-2.35-1.44-2.63-1.74c-0.29-0.32-0.4-0.78-0.4-0.78
			s1.24,0.53,1.59,0.82c0.35,0.28,0.96,0.5,1.06,0.5s-0.14-0.46-0.57-1.03c-0.43-0.57-2.55-3.23-2.62-3.47
			c-0.07-0.25,0.14-0.99,0.5-0.32c0.35,0.67,2.59,3.37,2.69,3.4s0.07-1.52,0.32-1.84c0.25-0.32,1.28-1.97,1.74-1.83
			c0.46,0.13,0.99,0.06,0.71,0.74s-1.35,1.74-1.38,2.46c-0.04,0.73,0.28,1.72,0.5,1.72s0.25,0.92,0.43-0.78
			c0.18-1.7,0.19-2.34,0.54-2.73c0.35-0.39,0.81-1.67,0.91-0.53c0.11,1.13,0.25,3.19,0.32,4.01c0.07,0.82,0.18,1.67,0.25,1.52
			c0.07-0.14-0.07-1.17,0.71-2.45c0.78-1.28,1.17-1.56,1.95-1.67s1.67-0.25,1.81-0.04c0.14,0.21,0.28-0.3,0.21,0.95
			c-0.07,1.25-0.18,2.1-0.96,2.88c-0.78,0.78-0.64,0.99-1.52,1.21c-0.89,0.21-0.82-0.28-0.89,0.21c-0.07,0.5,0.07,0.74,1.1,0.74
			c1.03,0,2.3,0.25,2.91,0c0.6-0.25,1.89-0.46,2.18-0.5c0.3-0.04,0.78,0.07,0.47,0.35s-1.25,1.45-2.52,1.56s-2.26-0.11-2.76-0.32
			c-0.5-0.21-1.45-0.39-1.1,0s0.11,0.71,1.24,1.17c1.13,0.46,1.74,0.46,3.07,0.67c1.33,0.21,2.58,0.35,1.87,1.1
			s-1.55,1.24-2.32,0.64s-1.76-1.21-2.37-1.28c-0.6-0.07-1.35-0.64-2.09-1.1c-0.74-0.46-2.16-1.03-2.52-1.49
			c-0.35-0.46-0.57-0.21-1.17-0.89"/>
		<path class="st10" d="M31.19,74.82c0.78-2.8,4.22-6.13,5.42-6.84c1.21-0.71,3.23-0.46,5.78,0c1.3,0.24,2.29,0.82,3.11,1.45
			c-0.09-0.15-0.16-0.28-0.21-0.37c-0.5-0.96-2.2-2.2-2.2-2.2c-1.28-0.85-2.62-2.66-5.17-3.12c-2.55-0.46-4.57-0.71-5.78,0
			c-1.21,0.71-4.64,4.04-5.42,6.84c-0.78,2.8-2.87,10.56-2.59,12.02c0.28,1.45,0.28,2.69,1.56,3.4c0.98,0.55,1.88,0.9,2.92,0.92
			c-0.01-0.03-0.01-0.06-0.02-0.09C28.32,85.39,30.41,77.62,31.19,74.82z"/>
		<path class="st11" d="M29.6,86.86c1.49-0.25,4.32-1.52,7.9-2.09c3.58-0.57,6.95-1.67,8.19-2.8c1.24-1.13,3.12-5,3.12-6.1
			c0-0.99-2.47-4.98-3.3-6.43c-0.83-0.63-1.81-1.22-3.11-1.45c-2.55-0.46-4.57-0.71-5.78,0c-1.21,0.71-4.64,4.04-5.42,6.84
			c-0.78,2.8-2.87,10.56-2.59,12.02c0.01,0.03,0.01,0.06,0.02,0.09C28.93,86.94,29.26,86.91,29.6,86.86z"/>
		<g>
			<g>
				<g>
					
						<ellipse transform="matrix(0.5566 -0.8308 0.8308 0.5566 -39.6532 56.5714)" class="st12" cx="33.17" cy="65.43" rx="1.1" ry="0.88"/>
				</g>
				<circle class="st13" cx="33.17" cy="65.43" r="0.46"/>
			</g>
		</g>
		<g>
			<g>
				<g>
					
						<ellipse transform="matrix(0.5566 -0.8308 0.8308 0.5566 -42.5976 55.8728)" class="st12" cx="31.04" cy="67.84" rx="1.1" ry="0.88"/>
				</g>
				<circle class="st13" cx="31.04" cy="67.84" r="0.46"/>
			</g>
		</g>
		<g>
			<g>
				<g>
					
						<ellipse transform="matrix(0.5566 -0.8308 0.8308 0.5566 -46.0794 55.5233)" class="st12" cx="28.98" cy="70.93" rx="1.1" ry="0.88"/>
				</g>
				<circle class="st13" cx="28.98" cy="70.93" r="0.46"/>
			</g>
		</g>
		<g>
			<g>
				<g>
					
						<ellipse transform="matrix(0.5566 -0.8308 0.8308 0.5566 -48.5778 55.6756)" class="st12" cx="27.87" cy="73.35" rx="1.1" ry="0.88"/>
				</g>
				<circle class="st13" cx="27.87" cy="73.35" r="0.46"/>
			</g>
		</g>
		<g>
			<g>
				<g>
					
						<ellipse transform="matrix(0.5566 -0.8308 0.8308 0.5566 -52.0777 57.0572)" class="st12" cx="27.41" cy="77.32" rx="1.1" ry="0.88"/>
				</g>
				<circle class="st13" cx="27.41" cy="77.32" r="0.46"/>
			</g>
		</g>
		<g>
			<g>
				<g>
					
						<ellipse transform="matrix(0.5566 -0.8308 0.8308 0.5566 -55.4749 57.8517)" class="st12" cx="26.46" cy="80.9" rx="1.1" ry="0.88"/>
				</g>
				<circle class="st13" cx="26.46" cy="80.9" r="0.46"/>
			</g>
		</g>
		<g>
			<g>
				<g>
					
						<ellipse transform="matrix(0.5566 -0.8308 0.8308 0.5566 -57.7417 60.764)" class="st12" cx="28.05" cy="84.48" rx="1.1" ry="0.88"/>
				</g>
				<circle class="st13" cx="28.05" cy="84.48" r="0.46"/>
			</g>
		</g>
		<g>
			<g>
				<g>
					
						<ellipse transform="matrix(0.5566 -0.8308 0.8308 0.5566 -54.3447 60.8805)" class="st12" cx="29.86" cy="81.35" rx="1.1" ry="0.88"/>
				</g>
				<circle class="st13" cx="29.86" cy="81.35" r="0.46"/>
			</g>
		</g>
		<g>
			<g>
				<g>
					
						<ellipse transform="matrix(0.5566 -0.8308 0.8308 0.5566 -49.985 59.8156)" class="st12" cx="31.04" cy="76.74" rx="1.1" ry="0.88"/>
				</g>
				<circle class="st13" cx="31.04" cy="76.74" r="0.46"/>
			</g>
		</g>
		<g>
			<g>
				<g>
					
						<ellipse transform="matrix(0.5566 -0.8308 0.8308 0.5566 -45.9908 58.4488)" class="st12" cx="31.76" cy="72.31" rx="1.1" ry="0.88"/>
				</g>
				<circle class="st13" cx="31.76" cy="72.31" r="0.46"/>
			</g>
		</g>
		<g>
			<g>
				<g>
					
						<ellipse transform="matrix(0.5566 -0.8308 0.8308 0.5566 -42.3542 59.518)" class="st12" cx="34.58" cy="69.44" rx="1.1" ry="0.88"/>
				</g>
				<circle class="st13" cx="34.58" cy="69.44" r="0.46"/>
			</g>
		</g>
		<g>
			<g>
				<g>
					
						<ellipse transform="matrix(0.5566 -0.8308 0.8308 0.5566 -39.0305 61.645)" class="st12" cx="38.24" cy="67.39" rx="1.1" ry="0.88"/>
				</g>
				<circle class="st13" cx="38.24" cy="67.39" r="0.46"/>
			</g>
		</g>
		<g>
			<g>
				<g>
					
						<ellipse transform="matrix(0.5566 -0.8308 0.8308 0.5566 -41.7272 64.5893)" class="st12" cx="39.65" cy="71.39" rx="1.1" ry="0.88"/>
				</g>
				<circle class="st13" cx="39.65" cy="71.39" r="0.46"/>
			</g>
		</g>
		<g>
			<g>
				<g>
					
						<ellipse transform="matrix(0.5566 -0.8308 0.8308 0.5566 -45.16 62.268)" class="st12" cx="35.75" cy="73.44" rx="1.1" ry="0.88"/>
				</g>
				<circle class="st13" cx="35.75" cy="73.44" r="0.46"/>
			</g>
		</g>
		<g>
			<g>
				<g>
					
						<ellipse transform="matrix(0.5566 -0.8308 0.8308 0.5566 -48.4169 62.7537)" class="st12" cx="34.58" cy="76.74" rx="1.1" ry="0.88"/>
				</g>
				<circle class="st13" cx="34.58" cy="76.74" r="0.46"/>
			</g>
		</g>
		<g>
			<g>
				<g>
					
						<ellipse transform="matrix(0.5566 -0.8308 0.8308 0.5566 -51.7787 63.0429)" class="st12" cx="33.17" cy="80.03" rx="1.1" ry="0.88"/>
				</g>
				<circle class="st13" cx="33.17" cy="80.03" r="0.46"/>
			</g>
		</g>
		<g>
			<g>
				<g>
					
						<ellipse transform="matrix(0.5566 -0.8308 0.8308 0.5566 -54.6937 64.3571)" class="st12" cx="32.95" cy="83.42" rx="1.1" ry="0.88"/>
				</g>
				<circle class="st13" cx="32.95" cy="83.42" r="0.46"/>
			</g>
		</g>
		<g>
			<g>
				<g>
					
						<ellipse transform="matrix(0.5566 -0.8308 0.8308 0.5566 -50.7657 65.5124)" class="st12" cx="35.99" cy="80.32" rx="1.1" ry="0.88"/>
				</g>
				<circle class="st13" cx="35.99" cy="80.32" r="0.46"/>
			</g>
		</g>
		<g>
			<g>
				<g>
					
						<ellipse transform="matrix(0.5566 -0.8308 0.8308 0.5566 -45.8904 66.3249)" class="st12" cx="39.19" cy="76.15" rx="1.1" ry="0.88"/>
				</g>
				<circle class="st13" cx="39.19" cy="76.15" r="0.46"/>
			</g>
		</g>
		<g>
			<g>
				<g>
					
						<ellipse transform="matrix(0.5566 -0.8308 0.8308 0.5566 -48.4859 67.7101)" class="st12" cx="39.19" cy="79.28" rx="1.1" ry="0.88"/>
				</g>
				<circle class="st13" cx="39.19" cy="79.28" r="0.46"/>
			</g>
		</g>
		<g>
			<g>
				<g>
					
						<ellipse transform="matrix(0.5566 -0.8308 0.8308 0.5566 -51.3875 68.5218)" class="st12" cx="38.5" cy="82.4" rx="1.1" ry="0.88"/>
				</g>
				<circle class="st13" cx="38.5" cy="82.4" r="0.46"/>
			</g>
		</g>
		<g>
			<g>
				<g>
					
						<ellipse transform="matrix(0.5566 -0.8308 0.8308 0.5566 -48.3534 70.3721)" class="st12" cx="41.75" cy="80.49" rx="1.1" ry="0.88"/>
				</g>
				<circle class="st13" cx="41.75" cy="80.49" r="0.46"/>
			</g>
		</g>
		<g>
			<g>
				<g>
					
						<ellipse transform="matrix(0.5566 -0.8308 0.8308 0.5566 -44.7769 69.8253)" class="st12" cx="43.03" cy="76.86" rx="1.1" ry="0.88"/>
				</g>
				<circle class="st13" cx="43.03" cy="76.86" r="0.46"/>
			</g>
		</g>
		<g>
			<g>
				<g>
					
						<ellipse transform="matrix(0.5566 -0.8308 0.8308 0.5566 -42.1379 67.9304)" class="st12" cx="42.57" cy="73.44" rx="1.1" ry="0.88"/>
				</g>
				<circle class="st13" cx="42.57" cy="73.44" r="0.46"/>
			</g>
		</g>
		<g>
			<g>
				<g>
					
						<ellipse transform="matrix(0.5566 -0.8308 0.8308 0.5566 -42.1651 71.231)" class="st12" cx="45.65" cy="75.12" rx="1.1" ry="0.88"/>
				</g>
				<circle class="st13" cx="45.65" cy="75.12" r="0.46"/>
			</g>
		</g>
		<g>
			<g>
				<g>
					
						<ellipse transform="matrix(0.5566 -0.8308 0.8308 0.5566 -38.9268 65.9397)" class="st12" cx="42.31" cy="69.44" rx="1.1" ry="0.88"/>
				</g>
				<circle class="st13" cx="42.31" cy="69.44" r="0.46"/>
			</g>
		</g>
	</g>
	<g>
		<path class="st9" d="M61.2,63.63c-0.05,0.03-0.11,0.06-0.16,0.1c-1.07,0.65-2.36,1.43-2.76,1.53c-0.42,0.11-0.88-0.01-0.88-0.01
			s1.04-0.86,1.46-1.04c0.41-0.18,0.88-0.62,0.93-0.72s-0.47-0.09-1.17,0.03c-0.7,0.12-4.04,0.78-4.29,0.73
			c-0.25-0.05-0.82-0.58-0.05-0.59s4.18-0.75,4.26-0.83s-1.32-0.76-1.49-1.13s-1.16-2.04-0.83-2.39s0.51-0.85,0.98-0.29
			c0.47,0.56,0.92,2,1.55,2.36c0.63,0.37,1.66,0.54,1.75,0.35c0.1-0.19,0.93,0.2-0.5-0.74s-1.99-1.25-2.17-1.74
			c-0.19-0.49-1.11-1.48-0.05-1.06c1.06,0.43,2.95,1.25,3.7,1.56c0.76,0.31,1.56,0.61,1.47,0.48c-0.09-0.13-1.07-0.48-1.85-1.75
			c-0.77-1.28-0.85-1.76-0.58-2.5c0.26-0.74,0.55-1.59,0.8-1.62c0.25-0.03-0.14-0.39,0.94,0.25c1.08,0.64,1.78,1.12,2.12,2.18
			c0.33,1.05,0.59,1.02,0.37,1.91s-0.63,0.59-0.22,0.88c0.41,0.29,0.69,0.28,1.17-0.63c0.47-0.91,1.28-1.93,1.34-2.58
			s0.46-1.89,0.56-2.17s0.42-0.66,0.53-0.25c0.11,0.41,0.72,1.78,0.23,2.95c-0.49,1.17-1.13,1.96-1.55,2.3
			c-0.42,0.34-1.01,1.11-0.51,0.98c0.51-0.14,0.68,0.23,1.61-0.56c0.93-0.79,1.21-1.34,2.01-2.42s1.5-2.13,1.83-1.15
			c0.33,0.98,0.39,1.95-0.5,2.35s-1.88,1.01-2.22,1.51c-0.34,0.5-1.19,0.9-1.94,1.35c-0.75,0.45-1.91,1.45-2.48,1.55
			s-0.45,0.41-1.32,0.63"/>
		<path class="st10" d="M65.44,75.69c-2.13-1.98-3.5-6.57-3.58-7.96c-0.07-1.4,1.08-3.08,2.66-5.13c0.81-1.05,1.78-1.65,2.72-2.1
			c-0.18,0.01-0.32,0.01-0.42,0.01c-1.08,0-2.96,0.94-2.96,0.94c-1.34,0.74-3.57,1.11-5.15,3.16c-1.58,2.05-2.73,3.73-2.66,5.13
			c0.07,1.4,1.45,5.98,3.58,7.96c2.13,1.98,8.06,7.41,9.48,7.83c1.42,0.42,2.52,0.99,3.74,0.18c0.94-0.62,1.66-1.26,2.16-2.17
			c-0.03-0.01-0.06-0.02-0.09-0.03C73.49,83.09,67.56,77.67,65.44,75.69z"/>
		<path class="st11" d="M75.39,82.64c0.46-1.44,0.64-4.54,1.78-7.98c1.14-3.44,1.72-6.93,1.28-8.56c-0.44-1.62-3-5.07-3.98-5.58
			c-0.88-0.46-5.55-0.1-7.23-0.03c-0.94,0.44-1.91,1.05-2.72,2.1c-1.58,2.05-2.73,3.73-2.66,5.13c0.07,1.4,1.45,5.98,3.58,7.96
			c2.13,1.98,8.06,7.41,9.48,7.83c0.03,0.01,0.06,0.02,0.09,0.03C75.15,83.26,75.28,82.97,75.39,82.64z"/>
		<g>
			<g>
				<g>
					
						<ellipse transform="matrix(0.8764 -0.4815 0.4815 0.8764 -26.3481 36.5324)" class="st12" cx="58.01" cy="69.61" rx="0.88" ry="1.1"/>
				</g>
				<circle class="st13" cx="58.01" cy="69.61" r="0.46"/>
			</g>
		</g>
		<g>
			<g>
				<g>
					
						<ellipse transform="matrix(0.8764 -0.4815 0.4815 0.8764 -27.6476 37.4613)" class="st12" cx="59.17" cy="72.6" rx="0.88" ry="1.1"/>
				</g>
				<circle class="st13" cx="59.17" cy="72.6" r="0.46"/>
			</g>
		</g>
		<g>
			<g>
				<g>
					
						<ellipse transform="matrix(0.8764 -0.4815 0.4815 0.8764 -28.9947 38.7252)" class="st12" cx="60.96" cy="75.86" rx="0.88" ry="1.1"/>
				</g>
				<circle class="st13" cx="60.96" cy="75.86" r="0.46"/>
			</g>
		</g>
		<g>
			<g>
				<g>
					
						<ellipse transform="matrix(0.8764 -0.4815 0.4815 0.8764 -29.801 39.7719)" class="st12" cx="62.6" cy="77.96" rx="0.88" ry="1.1"/>
				</g>
				<circle class="st13" cx="62.6" cy="77.96" r="0.46"/>
			</g>
		</g>
		<g>
			<g>
				<g>
					
						<ellipse transform="matrix(0.8764 -0.4815 0.4815 0.8764 -30.4657 41.6437)" class="st12" cx="65.91" cy="80.19" rx="0.88" ry="1.1"/>
				</g>
				<circle class="st13" cx="65.91" cy="80.19" r="0.46"/>
			</g>
		</g>
		<g>
			<g>
				<g>
					
						<ellipse transform="matrix(0.8764 -0.4815 0.4815 0.8764 -31.3284 43.2708)" class="st12" cx="68.65" cy="82.68" rx="0.88" ry="1.1"/>
				</g>
				<circle class="st13" cx="68.65" cy="82.68" r="0.46"/>
			</g>
		</g>
		<g>
			<g>
				<g>
					
						<ellipse transform="matrix(0.8764 -0.4815 0.4815 0.8764 -30.9563 45.1831)" class="st12" cx="72.56" cy="82.91" rx="0.88" ry="1.1"/>
				</g>
				<circle class="st13" cx="72.56" cy="82.91" r="0.46"/>
			</g>
		</g>
		<g>
			<g>
				<g>
					
						<ellipse transform="matrix(0.8764 -0.4815 0.4815 0.8764 -29.7313 43.8721)" class="st12" cx="70.62" cy="79.87" rx="0.88" ry="1.1"/>
				</g>
				<circle class="st13" cx="70.62" cy="79.87" r="0.46"/>
			</g>
		</g>
		<g>
			<g>
				<g>
					
						<ellipse transform="matrix(0.8764 -0.4815 0.4815 0.8764 -28.6423 41.7682)" class="st12" cx="67.07" cy="76.7" rx="0.88" ry="1.1"/>
				</g>
				<circle class="st13" cx="67.07" cy="76.7" r="0.46"/>
			</g>
		</g>
		<g>
			<g>
				<g>
					
						<ellipse transform="matrix(0.8764 -0.4815 0.4815 0.8764 -27.8002 39.705)" class="st12" cx="63.47" cy="74.02" rx="0.88" ry="1.1"/>
				</g>
				<circle class="st13" cx="63.47" cy="74.02" r="0.46"/>
			</g>
		</g>
		<g>
			<g>
				<g>
					
						<ellipse transform="matrix(0.8764 -0.4815 0.4815 0.8764 -26.113 38.6292)" class="st12" cx="62.21" cy="70.2" rx="0.88" ry="1.1"/>
				</g>
				<circle class="st13" cx="62.21" cy="70.2" r="0.46"/>
			</g>
		</g>
		<g>
			<g>
				<g>
					
						<ellipse transform="matrix(0.8764 -0.4815 0.4815 0.8764 -24.1137 38.045)" class="st12" cx="62.08" cy="66.01" rx="0.88" ry="1.1"/>
				</g>
				<circle class="st13" cx="62.08" cy="66.01" r="0.46"/>
			</g>
		</g>
		<g>
			<g>
				<g>
					
						<ellipse transform="matrix(0.8764 -0.4815 0.4815 0.8764 -23.878 40.1394)" class="st12" cx="66.28" cy="66.6" rx="0.88" ry="1.1"/>
				</g>
				<circle class="st13" cx="66.28" cy="66.6" r="0.46"/>
			</g>
		</g>
		<g>
			<g>
				<g>
					
						<ellipse transform="matrix(0.8764 -0.4815 0.4815 0.8764 -25.9925 40.6996)" class="st12" cx="66.31" cy="71" rx="0.88" ry="1.1"/>
				</g>
				<circle class="st13" cx="66.31" cy="71" r="0.46"/>
			</g>
		</g>
		<g>
			<g>
				<g>
					
						<ellipse transform="matrix(0.8764 -0.4815 0.4815 0.8764 -26.9293 42.1638)" class="st12" cx="68.69" cy="73.56" rx="0.88" ry="1.1"/>
				</g>
				<circle class="st13" cx="68.69" cy="73.56" r="0.46"/>
			</g>
		</g>
		<g>
			<g>
				<g>
					
						<ellipse transform="matrix(0.8764 -0.4815 0.4815 0.8764 -27.9807 43.6015)" class="st12" cx="70.97" cy="76.32" rx="0.88" ry="1.1"/>
				</g>
				<circle class="st13" cx="70.97" cy="76.32" r="0.46"/>
			</g>
		</g>
		<g>
			<g>
				<g>
					
						<ellipse transform="matrix(0.8764 -0.4815 0.4815 0.8764 -28.4693 45.2172)" class="st12" cx="73.87" cy="78.08" rx="0.88" ry="1.1"/>
				</g>
				<circle class="st13" cx="73.87" cy="78.08" r="0.46"/>
			</g>
		</g>
		<g>
			<g>
				<g>
					
						<ellipse transform="matrix(0.8764 -0.4815 0.4815 0.8764 -26.6468 44.0554)" class="st12" cx="72.52" cy="73.95" rx="0.88" ry="1.1"/>
				</g>
				<circle class="st13" cx="72.52" cy="73.95" r="0.46"/>
			</g>
		</g>
		<g>
			<g>
				<g>
					
						<ellipse transform="matrix(0.8764 -0.4815 0.4815 0.8764 -24.6321 42.3978)" class="st12" cx="70.3" cy="69.2" rx="0.88" ry="1.1"/>
				</g>
				<circle class="st13" cx="70.3" cy="69.2" r="0.46"/>
			</g>
		</g>
		<g>
			<g>
				<g>
					
						<ellipse transform="matrix(0.8764 -0.4815 0.4815 0.8764 -24.9815 43.9109)" class="st12" cx="73.07" cy="70.63" rx="0.88" ry="1.1"/>
				</g>
				<circle class="st13" cx="73.07" cy="70.63" r="0.46"/>
			</g>
		</g>
		<g>
			<g>
				<g>
					
						<ellipse transform="matrix(0.8764 -0.4815 0.4815 0.8764 -25.6654 45.3469)" class="st12" cx="75.53" cy="72.68" rx="0.88" ry="1.1"/>
				</g>
				<circle class="st13" cx="75.53" cy="72.68" r="0.46"/>
			</g>
		</g>
		<g>
			<g>
				<g>
					
						<ellipse transform="matrix(0.8764 -0.4815 0.4815 0.8764 -23.8766 44.7818)" class="st12" cx="75.32" cy="68.92" rx="0.88" ry="1.1"/>
				</g>
				<circle class="st13" cx="75.32" cy="68.92" r="0.46"/>
			</g>
		</g>
		<g>
			<g>
				<g>
					
						<ellipse transform="matrix(0.8764 -0.4815 0.4815 0.8764 -22.8532 43.1693)" class="st12" cx="72.69" cy="66.12" rx="0.88" ry="1.1"/>
				</g>
				<circle class="st13" cx="72.69" cy="66.12" r="0.46"/>
			</g>
		</g>
		<g>
			<g>
				<g>
					
						<ellipse transform="matrix(0.8764 -0.4815 0.4815 0.8764 -22.6913 41.462)" class="st12" cx="69.45" cy="64.95" rx="0.88" ry="1.1"/>
				</g>
				<circle class="st13" cx="69.45" cy="64.95" r="0.46"/>
			</g>
		</g>
		<g>
			<g>
				<g>
					
						<ellipse transform="matrix(0.8764 -0.4815 0.4815 0.8764 -21.3877 42.618)" class="st12" cx="72.35" cy="62.98" rx="0.88" ry="1.1"/>
				</g>
				<circle class="st13" cx="72.35" cy="62.98" r="0.46"/>
			</g>
		</g>
		<g>
			<g>
				<g>
					
						<ellipse transform="matrix(0.8764 -0.4815 0.4815 0.8764 -22.3692 39.4939)" class="st12" cx="65.77" cy="63.33" rx="0.88" ry="1.1"/>
				</g>
				<circle class="st13" cx="65.77" cy="63.33" r="0.46"/>
			</g>
		</g>
	</g>
	<g>
		<path class="st9" d="M46.89,42.6c0.04-0.05,0.08-0.1,0.12-0.15c0.79-0.98,1.74-2.14,2.07-2.38c0.35-0.25,0.83-0.29,0.83-0.29
			s-0.69,1.16-1.02,1.47c-0.33,0.31-0.62,0.88-0.63,0.99c-0.01,0.11,0.48-0.08,1.09-0.43c0.62-0.35,3.53-2.11,3.79-2.15
			c0.26-0.04,0.97,0.27,0.25,0.53c-0.71,0.26-3.68,2.12-3.73,2.23c-0.05,0.1,1.5,0.27,1.79,0.56c0.28,0.29,1.78,1.52,1.59,1.96
			c-0.19,0.44-0.19,0.98-0.82,0.61c-0.63-0.37-1.55-1.56-2.26-1.69c-0.72-0.13-1.74,0.06-1.77,0.27c-0.03,0.21-0.95,0.13,0.72,0.52
			s2.29,0.5,2.64,0.89c0.34,0.39,1.55,1.02,0.41,0.97c-1.14-0.04-3.19-0.17-4.01-0.21c-0.82-0.04-1.67-0.04-1.54,0.05
			c0.13,0.09,1.17,0.08,2.33,1.02c1.16,0.94,1.39,1.36,1.4,2.15s0.03,1.68-0.2,1.8s0.26,0.32-0.97,0.09s-2.06-0.45-2.73-1.33
			c-0.67-0.88-0.9-0.76-1-1.67c-0.09-0.91,0.39-0.77-0.09-0.91c-0.48-0.14-0.75-0.03-0.88,0.99c-0.13,1.02-0.55,2.25-0.38,2.88
			c0.17,0.63,0.21,1.93,0.21,2.23s-0.17,0.76-0.41,0.42c-0.24-0.34-1.28-1.43-1.22-2.7c0.06-1.27,0.4-2.23,0.68-2.69
			s0.58-1.39,0.14-1.09c-0.43,0.3-0.72,0.01-1.32,1.08c-0.61,1.06-0.68,1.67-1.07,2.96c-0.38,1.29-0.69,2.51-1.33,1.71
			c-0.64-0.81-1.03-1.7-0.33-2.38c0.7-0.69,1.43-1.59,1.57-2.18s0.81-1.25,1.36-1.93s1.3-2.01,1.81-2.3
			c0.5-0.29,0.29-0.53,1.03-1.04"/>
		<path class="st10" d="M38.81,32.7c2.67,1.14,5.53,4.98,6.07,6.27c0.55,1.29,0.03,3.26-0.76,5.73c-0.4,1.26-1.11,2.16-1.85,2.9
			c0.16-0.07,0.3-0.12,0.39-0.16c1.01-0.37,2.47-1.89,2.47-1.89c1.01-1.15,2.98-2.25,3.77-4.72c0.79-2.47,1.3-4.44,0.76-5.73
			c-0.55-1.29-3.4-5.13-6.07-6.27c-2.67-1.14-10.1-4.23-11.57-4.14c-1.48,0.09-2.71-0.07-3.58,1.1c-0.67,0.9-1.14,1.75-1.3,2.77
			c0.03,0,0.06,0,0.09,0C28.71,28.47,36.14,31.56,38.81,32.7z"/>
		<path class="st11" d="M27.09,29.55c0.05,1.51,0.95,4.49,1.04,8.11c0.09,3.62,0.74,7.11,1.71,8.48c0.96,1.38,4.55,3.75,5.64,3.89
			c0.98,0.13,5.26-1.79,6.81-2.43c0.73-0.74,1.44-1.64,1.85-2.9c0.79-2.47,1.3-4.44,0.76-5.73c-0.55-1.29-3.4-5.13-6.07-6.27
			c-2.67-1.14-10.1-4.23-11.57-4.14c-0.03,0-0.06,0-0.09,0C27.1,28.88,27.08,29.2,27.09,29.55z"/>
		<g>
			<g>
				<g>
					
						<ellipse transform="matrix(0.6605 -0.7508 0.7508 0.6605 -10.7013 48.1209)" class="st12" cx="47.86" cy="35.89" rx="0.88" ry="1.1"/>
				</g>
				<circle class="st13" cx="47.86" cy="35.89" r="0.46"/>
			</g>
		</g>
		<g>
			<g>
				<g>
					
						<ellipse transform="matrix(0.6605 -0.7508 0.7508 0.6605 -9.5981 45.7137)" class="st12" cx="45.75" cy="33.47" rx="0.88" ry="1.1"/>
				</g>
				<circle class="st13" cx="45.75" cy="33.47" r="0.46"/>
			</g>
		</g>
		<g>
			<g>
				<g>
					
						<ellipse transform="matrix(0.6605 -0.7508 0.7508 0.6605 -8.7025 42.7855)" class="st12" cx="42.96" cy="31.02" rx="0.88" ry="1.1"/>
				</g>
				<circle class="st13" cx="42.96" cy="31.02" r="0.46"/>
			</g>
		</g>
		<g>
			<g>
				<g>
					
						<ellipse transform="matrix(0.6605 -0.7508 0.7508 0.6605 -8.4058 40.6155)" class="st12" cx="40.71" cy="29.6" rx="0.88" ry="1.1"/>
				</g>
				<circle class="st13" cx="40.71" cy="29.6" r="0.46"/>
			</g>
		</g>
		<g>
			<g>
				<g>
					
						<ellipse transform="matrix(0.6605 -0.7508 0.7508 0.6605 -8.9927 37.3756)" class="st12" cx="36.83" cy="28.63" rx="0.88" ry="1.1"/>
				</g>
				<circle class="st13" cx="36.83" cy="28.63" r="0.46"/>
			</g>
		</g>
		<g>
			<g>
				<g>
					
						<ellipse transform="matrix(0.6605 -0.7508 0.7508 0.6605 -9.0932 34.3244)" class="st12" cx="33.41" cy="27.22" rx="0.88" ry="1.1"/>
				</g>
				<circle class="st13" cx="33.41" cy="27.22" r="0.46"/>
			</g>
		</g>
		<g>
			<g>
				<g>
					
						<ellipse transform="matrix(0.6605 -0.7508 0.7508 0.6605 -11.2047 31.8809)" class="st12" cx="29.65" cy="28.33" rx="0.88" ry="1.1"/>
				</g>
				<circle class="st13" cx="29.65" cy="28.33" r="0.46"/>
			</g>
		</g>
		<g>
			<g>
				<g>
					
						<ellipse transform="matrix(0.6605 -0.7508 0.7508 0.6605 -11.8858 34.7761)" class="st12" cx="32.51" cy="30.53" rx="0.88" ry="1.1"/>
				</g>
				<circle class="st13" cx="32.51" cy="30.53" r="0.46"/>
			</g>
		</g>
		<g>
			<g>
				<g>
					
						<ellipse transform="matrix(0.6605 -0.7508 0.7508 0.6605 -11.7178 38.6996)" class="st12" cx="36.93" cy="32.31" rx="0.88" ry="1.1"/>
				</g>
				<circle class="st13" cx="36.93" cy="32.31" r="0.46"/>
			</g>
		</g>
		<g>
			<g>
				<g>
					
						<ellipse transform="matrix(0.6605 -0.7508 0.7508 0.6605 -11.2282 42.3611)" class="st12" cx="41.23" cy="33.6" rx="0.88" ry="1.1"/>
				</g>
				<circle class="st13" cx="41.23" cy="33.6" r="0.46"/>
			</g>
		</g>
		<g>
			<g>
				<g>
					
						<ellipse transform="matrix(0.6605 -0.7508 0.7508 0.6605 -12.7678 45.299)" class="st12" cx="43.71" cy="36.77" rx="0.88" ry="1.1"/>
				</g>
				<circle class="st13" cx="43.71" cy="36.77" r="0.46"/>
			</g>
		</g>
		<g>
			<g>
				<g>
					
						<ellipse transform="matrix(0.6605 -0.7508 0.7508 0.6605 -15.1617 47.7873)" class="st12" cx="45.26" cy="40.66" rx="0.88" ry="1.1"/>
				</g>
				<circle class="st13" cx="45.26" cy="40.66" r="0.46"/>
			</g>
		</g>
		<g>
			<g>
				<g>
					
						<ellipse transform="matrix(0.6605 -0.7508 0.7508 0.6605 -17.2271 44.9695)" class="st12" cx="41.11" cy="41.53" rx="0.88" ry="1.1"/>
				</g>
				<circle class="st13" cx="41.11" cy="41.53" r="0.46"/>
			</g>
		</g>
		<g>
			<g>
				<g>
					
						<ellipse transform="matrix(0.6605 -0.7508 0.7508 0.6605 -14.6478 42.4207)" class="st12" cx="39.58" cy="37.41" rx="0.88" ry="1.1"/>
				</g>
				<circle class="st13" cx="39.58" cy="37.41" r="0.46"/>
			</g>
		</g>
		<g>
			<g>
				<g>
					
						<ellipse transform="matrix(0.6605 -0.7508 0.7508 0.6605 -14.5074 39.5426)" class="st12" cx="36.47" cy="35.81" rx="0.88" ry="1.1"/>
				</g>
				<circle class="st13" cx="36.47" cy="35.81" r="0.46"/>
			</g>
		</g>
		<g>
			<g>
				<g>
					
						<ellipse transform="matrix(0.6605 -0.7508 0.7508 0.6605 -14.1805 36.6082)" class="st12" cx="33.39" cy="33.98" rx="0.88" ry="1.1"/>
				</g>
				<circle class="st13" cx="33.39" cy="33.98" r="0.46"/>
			</g>
		</g>
		<g>
			<g>
				<g>
					
						<ellipse transform="matrix(0.6605 -0.7508 0.7508 0.6605 -14.8096 33.8818)" class="st12" cx="30.06" cy="33.32" rx="0.88" ry="1.1"/>
				</g>
				<circle class="st13" cx="30.06" cy="33.32" r="0.46"/>
			</g>
		</g>
		<g>
			<g>
				<g>
					
						<ellipse transform="matrix(0.6605 -0.7508 0.7508 0.6605 -16.473 37.055)" class="st12" cx="32.74" cy="36.74" rx="0.88" ry="1.1"/>
				</g>
				<circle class="st13" cx="32.74" cy="36.74" r="0.46"/>
			</g>
		</g>
		<g>
			<g>
				<g>
					
						<ellipse transform="matrix(0.6605 -0.7508 0.7508 0.6605 -18.0043 41.0998)" class="st12" cx="36.44" cy="40.46" rx="0.88" ry="1.1"/>
				</g>
				<circle class="st13" cx="36.44" cy="40.46" r="0.46"/>
			</g>
		</g>
		<g>
			<g>
				<g>
					
						<ellipse transform="matrix(0.6605 -0.7508 0.7508 0.6605 -18.749 38.6355)" class="st12" cx="33.35" cy="40.05" rx="0.88" ry="1.1"/>
				</g>
				<circle class="st13" cx="33.35" cy="40.05" r="0.46"/>
			</g>
		</g>
		<g>
			<g>
				<g>
					
						<ellipse transform="matrix(0.6605 -0.7508 0.7508 0.6605 -18.9492 36.0066)" class="st12" cx="30.34" cy="38.96" rx="0.88" ry="1.1"/>
				</g>
				<circle class="st13" cx="30.34" cy="38.96" r="0.46"/>
			</g>
		</g>
		<g>
			<g>
				<g>
					
						<ellipse transform="matrix(0.6605 -0.7508 0.7508 0.6605 -21.056 38.2939)" class="st12" cx="31.82" cy="42.43" rx="0.88" ry="1.1"/>
				</g>
				<circle class="st13" cx="31.82" cy="42.43" r="0.46"/>
			</g>
		</g>
		<g>
			<g>
				<g>
					
						<ellipse transform="matrix(0.6605 -0.7508 0.7508 0.6605 -21.1986 41.4566)" class="st12" cx="35.24" cy="44.17" rx="0.88" ry="1.1"/>
				</g>
				<circle class="st13" cx="35.24" cy="44.17" r="0.46"/>
			</g>
		</g>
		<g>
			<g>
				<g>
					
						<ellipse transform="matrix(0.6605 -0.7508 0.7508 0.6605 -20.024 44.0454)" class="st12" cx="38.69" cy="44.16" rx="0.88" ry="1.1"/>
				</g>
				<circle class="st13" cx="38.69" cy="44.16" r="0.46"/>
			</g>
		</g>
		<g>
			<g>
				<g>
					
						<ellipse transform="matrix(0.6605 -0.7508 0.7508 0.6605 -22.8518 43.4575)" class="st12" cx="36.63" cy="47" rx="0.88" ry="1.1"/>
				</g>
				<circle class="st13" cx="36.63" cy="47" r="0.46"/>
			</g>
		</g>
		<g>
			<g>
				<g>
					
						<ellipse transform="matrix(0.6605 -0.7508 0.7508 0.6605 -18.865 47.1416)" class="st12" cx="42.69" cy="44.43" rx="0.88" ry="1.1"/>
				</g>
				<circle class="st13" cx="42.69" cy="44.43" r="0.46"/>
			</g>
		</g>
	</g>
	<g>
		<path class="st9" d="M67.74,44.75c0.05,0.03,0.1,0.07,0.16,0.1c1.05,0.69,2.31,1.51,2.58,1.82c0.28,0.33,0.37,0.79,0.37,0.79
			s-1.22-0.57-1.57-0.86c-0.35-0.29-0.94-0.53-1.05-0.53c-0.11,0,0.13,0.46,0.54,1.04c0.41,0.58,2.45,3.3,2.51,3.55
			c0.06,0.25-0.17,0.99-0.51,0.3c-0.33-0.68-2.48-3.44-2.59-3.48s-0.12,1.52-0.38,1.83c-0.26,0.31-1.34,1.93-1.79,1.78
			c-0.46-0.15-0.99-0.09-0.69-0.76s1.4-1.7,1.46-2.42c0.06-0.72-0.23-1.73-0.44-1.73c-0.21-0.01-0.22-0.93-0.45,0.77
			s-0.27,2.33-0.62,2.71c-0.36,0.38-0.86,1.64-0.93,0.5c-0.07-1.14-0.15-3.2-0.2-4.01c-0.05-0.82-0.13-1.67-0.2-1.53
			c-0.08,0.14,0.03,1.17-0.78,2.42c-0.82,1.25-1.22,1.52-2,1.61c-0.78,0.08-1.67,0.2-1.81-0.02s-0.29,0.29-0.18-0.95
			c0.11-1.25,0.24-2.09,1.04-2.85c0.8-0.76,0.67-0.97,1.56-1.16c0.89-0.19,0.81,0.31,0.89-0.19c0.09-0.49-0.05-0.75-1.08-0.78
			c-1.03-0.03-2.3-0.32-2.91-0.09s-1.9,0.4-2.2,0.43c-0.3,0.03-0.77-0.09-0.45-0.37c0.32-0.27,1.29-1.41,2.56-1.48
			c1.27-0.07,2.26,0.18,2.74,0.4c0.49,0.23,1.44,0.43,1.1,0.03c-0.34-0.4-0.08-0.71-1.2-1.21c-1.12-0.5-1.73-0.51-3.05-0.77
			s-2.57-0.43-1.83-1.16c0.74-0.72,1.59-1.19,2.34-0.57c0.75,0.63,1.73,1.26,2.33,1.35c0.6,0.09,1.33,0.68,2.06,1.16
			c0.73,0.48,2.13,1.09,2.47,1.57c0.34,0.47,0.56,0.23,1.14,0.92"/>
		<path class="st10" d="M76.77,35.72c-0.87,2.77-4.4,6-5.63,6.67c-1.23,0.67-3.24,0.36-5.77-0.18c-1.29-0.27-2.26-0.89-3.07-1.55
			c0.08,0.16,0.15,0.28,0.19,0.38c0.47,0.97,2.13,2.26,2.13,2.26c1.25,0.89,2.54,2.74,5.08,3.28c2.54,0.54,4.55,0.85,5.77,0.18
			c1.23-0.67,4.76-3.9,5.63-6.67c0.87-2.77,3.19-10.47,2.96-11.93s-0.2-2.7-1.45-3.45c-0.96-0.58-1.85-0.96-2.89-1.01
			c0,0.03,0.01,0.06,0.01,0.09C79.96,25.25,77.64,32.94,76.77,35.72z"/>
		<path class="st11" d="M78.73,23.74c-1.5,0.2-4.37,1.39-7.96,1.85c-3.6,0.46-6.99,1.45-8.27,2.55c-1.27,1.1-3.27,4.9-3.3,6
			c-0.03,0.99,2.31,5.05,3.1,6.53c0.81,0.66,1.77,1.27,3.07,1.55c2.54,0.54,4.55,0.85,5.77,0.18c1.23-0.67,4.76-3.9,5.63-6.67
			c0.87-2.77,3.19-10.47,2.96-11.93c0-0.03-0.01-0.06-0.01-0.09C79.4,23.68,79.08,23.69,78.73,23.74z"/>
		<g>
			<g>
				<g>
					
						<ellipse transform="matrix(0.5818 -0.8133 0.8133 0.5818 -5.4773 79.4273)" class="st12" cx="74.5" cy="45.04" rx="1.1" ry="0.88"/>
				</g>
				<circle class="st13" cx="74.5" cy="45.04" r="0.46"/>
			</g>
		</g>
		<g>
			<g>
				<g>
					
						<ellipse transform="matrix(0.5818 -0.8133 0.8133 0.5818 -2.6523 80.2366)" class="st12" cx="76.7" cy="42.7" rx="1.1" ry="0.88"/>
				</g>
				<circle class="st13" cx="76.7" cy="42.7" r="0.46"/>
			</g>
		</g>
		<g>
			<g>
				<g>
					
						<ellipse transform="matrix(0.5818 -0.8133 0.8133 0.5818 0.7098 80.7314)" class="st12" cx="78.87" cy="39.68" rx="1.1" ry="0.88"/>
				</g>
				<circle class="st13" cx="78.87" cy="39.68" r="0.46"/>
			</g>
		</g>
		<g>
			<g>
				<g>
					
						<ellipse transform="matrix(0.5818 -0.8133 0.8133 0.5818 3.1402 80.6954)" class="st12" cx="80.05" cy="37.29" rx="1.1" ry="0.88"/>
				</g>
				<circle class="st13" cx="80.05" cy="37.29" r="0.46"/>
			</g>
		</g>
		<g>
			<g>
				<g>
					
						<ellipse transform="matrix(0.5818 -0.8133 0.8133 0.5818 6.5973 79.5116)" class="st12" cx="80.62" cy="33.34" rx="1.1" ry="0.88"/>
				</g>
				<circle class="st13" cx="80.62" cy="33.34" r="0.46"/>
			</g>
		</g>
		<g>
			<g>
				<g>
					
						<ellipse transform="matrix(0.5818 -0.8133 0.8133 0.5818 9.9284 78.8928)" class="st12" cx="81.69" cy="29.79" rx="1.1" ry="0.88"/>
				</g>
				<circle class="st13" cx="81.69" cy="29.79" r="0.46"/>
			</g>
		</g>
		<g>
			<g>
				<g>
					
						<ellipse transform="matrix(0.5818 -0.8133 0.8133 0.5818 12.2576 76.169)" class="st12" cx="80.2" cy="26.16" rx="1.1" ry="0.88"/>
				</g>
				<circle class="st13" cx="80.2" cy="26.16" r="0.46"/>
			</g>
		</g>
		<g>
			<g>
				<g>
					
						<ellipse transform="matrix(0.5818 -0.8133 0.8133 0.5818 8.9674 75.9041)" class="st12" cx="78.3" cy="29.23" rx="1.1" ry="0.88"/>
				</g>
				<circle class="st13" cx="78.3" cy="29.23" r="0.46"/>
			</g>
		</g>
		<g>
			<g>
				<g>
					
						<ellipse transform="matrix(0.5818 -0.8133 0.8133 0.5818 4.6905 76.7421)" class="st12" cx="76.98" cy="33.81" rx="1.1" ry="0.88"/>
				</g>
				<circle class="st13" cx="76.98" cy="33.81" r="0.46"/>
			</g>
		</g>
		<g>
			<g>
				<g>
					
						<ellipse transform="matrix(0.5818 -0.8133 0.8133 0.5818 0.7547 77.8895)" class="st12" cx="76.12" cy="38.21" rx="1.1" ry="0.88"/>
				</g>
				<circle class="st13" cx="76.12" cy="38.21" r="0.46"/>
			</g>
		</g>
		<g>
			<g>
				<g>
					
						<ellipse transform="matrix(0.5818 -0.8133 0.8133 0.5818 -2.7254 76.6897)" class="st12" cx="73.22" cy="41" rx="1.1" ry="0.88"/>
				</g>
				<circle class="st13" cx="73.22" cy="41" r="0.46"/>
			</g>
		</g>
		<g>
			<g>
				<g>
					
						<ellipse transform="matrix(0.5818 -0.8133 0.8133 0.5818 -5.8545 74.4777)" class="st12" cx="69.5" cy="42.93" rx="1.1" ry="0.88"/>
				</g>
				<circle class="st13" cx="69.5" cy="42.93" r="0.46"/>
			</g>
		</g>
		<g>
			<g>
				<g>
					
						<ellipse transform="matrix(0.5818 -0.8133 0.8133 0.5818 -3.1068 71.742)" class="st12" cx="68.21" cy="38.89" rx="1.1" ry="0.88"/>
				</g>
				<circle class="st13" cx="68.21" cy="38.89" r="0.46"/>
			</g>
		</g>
		<g>
			<g>
				<g>
					
						<ellipse transform="matrix(0.5818 -0.8133 0.8133 0.5818 0.1195 74.1473)" class="st12" cx="72.17" cy="36.96" rx="1.1" ry="0.88"/>
				</g>
				<circle class="st13" cx="72.17" cy="36.96" r="0.46"/>
			</g>
		</g>
		<g>
			<g>
				<g>
					
						<ellipse transform="matrix(0.5818 -0.8133 0.8133 0.5818 3.3007 73.8218)" class="st12" cx="73.44" cy="33.7" rx="1.1" ry="0.88"/>
				</g>
				<circle class="st13" cx="73.44" cy="33.7" r="0.46"/>
			</g>
		</g>
		<g>
			<g>
				<g>
					
						<ellipse transform="matrix(0.5818 -0.8133 0.8133 0.5818 6.5748 73.6916)" class="st12" cx="74.95" cy="30.45" rx="1.1" ry="0.88"/>
				</g>
				<circle class="st13" cx="74.95" cy="30.45" r="0.46"/>
			</g>
		</g>
		<g>
			<g>
				<g>
					
						<ellipse transform="matrix(0.5818 -0.8133 0.8133 0.5818 9.4614 72.547)" class="st12" cx="75.28" cy="27.07" rx="1.1" ry="0.88"/>
				</g>
				<circle class="st13" cx="75.28" cy="27.07" r="0.46"/>
			</g>
		</g>
		<g>
			<g>
				<g>
					
						<ellipse transform="matrix(0.5818 -0.8133 0.8133 0.5818 5.7026 71.2507)" class="st12" cx="72.14" cy="30.08" rx="1.1" ry="0.88"/>
				</g>
				<circle class="st13" cx="72.14" cy="30.08" r="0.46"/>
			</g>
		</g>
		<g>
			<g>
				<g>
					
						<ellipse transform="matrix(0.5818 -0.8133 0.8133 0.5818 1.0095 70.2445)" class="st12" cx="68.82" cy="34.14" rx="1.1" ry="0.88"/>
				</g>
				<circle class="st13" cx="68.82" cy="34.14" r="0.46"/>
			</g>
		</g>
		<g>
			<g>
				<g>
					
						<ellipse transform="matrix(0.5818 -0.8133 0.8133 0.5818 3.5892 69.0168)" class="st12" cx="68.91" cy="31.02" rx="1.1" ry="0.88"/>
				</g>
				<circle class="st13" cx="68.91" cy="31.02" r="0.46"/>
			</g>
		</g>
		<g>
			<g>
				<g>
					
						<ellipse transform="matrix(0.5818 -0.8133 0.8133 0.5818 6.4403 68.3591)" class="st12" cx="69.7" cy="27.92" rx="1.1" ry="0.88"/>
				</g>
				<circle class="st13" cx="69.7" cy="27.92" r="0.46"/>
			</g>
		</g>
		<g>
			<g>
				<g>
					
						<ellipse transform="matrix(0.5818 -0.8133 0.8133 0.5818 3.5797 66.4285)" class="st12" cx="66.39" cy="29.73" rx="1.1" ry="0.88"/>
				</g>
				<circle class="st13" cx="66.39" cy="29.73" r="0.46"/>
			</g>
		</g>
		<g>
			<g>
				<g>
					
						<ellipse transform="matrix(0.5818 -0.8133 0.8133 0.5818 0.0858 66.799)" class="st12" cx="65" cy="33.32" rx="1.1" ry="0.88"/>
				</g>
				<circle class="st13" cx="65" cy="33.32" r="0.46"/>
			</g>
		</g>
		<g>
			<g>
				<g>
					
						<ellipse transform="matrix(0.5818 -0.8133 0.8133 0.5818 -2.559 68.5192)" class="st12" cx="65.35" cy="36.75" rx="1.1" ry="0.88"/>
				</g>
				<circle class="st13" cx="65.35" cy="36.75" r="0.46"/>
			</g>
		</g>
		<g>
			<g>
				<g>
					
						<ellipse transform="matrix(0.5818 -0.8133 0.8133 0.5818 -2.3851 65.3186)" class="st12" cx="62.33" cy="34.98" rx="1.1" ry="0.88"/>
				</g>
				<circle class="st13" cx="62.33" cy="34.98" r="0.46"/>
			</g>
		</g>
		<g>
			<g>
				<g>
					
						<ellipse transform="matrix(0.5818 -0.8133 0.8133 0.5818 -5.763 70.3068)" class="st12" cx="65.49" cy="40.76" rx="1.1" ry="0.88"/>
				</g>
				<circle class="st13" cx="65.49" cy="40.76" r="0.46"/>
			</g>
		</g>
	</g>
</g>
</svg>
