<?xml version="1.0" encoding="utf-8"?>
<svg version="1.1" x="0px" y="0px" viewBox="0 0 38.4 39.4" width="38.4" height="39.4" style="enable-background:new 0 0 38.4 39.4;" xmlns="http://www.w3.org/2000/svg">
  <style type="text/css">
	.st0{fill:#919396;}
	.st1{fill:#888A8C;}
	.st2{fill:#7D7E81;}
</style>
  <g>
    <rect class="st0" width="38.4" height="39.4"/>
    <path class="st1" d="M 17.9 38.5 C 18.6 38.5 19 39 19.6 39.2 C 16.7 39.2 13.9 39.2 11 39.2 C 10.8 39.2 10.5 39.4 10.3 39.2 C 10.6 39.1 11 39 10.5 38.6 C 10.4 38.5 10.1 38.5 10.3 38.3 C 10.4 38.1 10.7 38.1 10.8 38.2 C 11.3 38.6 11.7 38.4 12.1 38.2 C 13.2 37.7 14.3 37.1 15.5 37.9 C 16.3 37.8 17.1 38.1 17.9 38.5 Z"/>
    <path class="st1" d="M 32.8 38.7 C 33.1 38.6 33.5 38.5 33 38.1 C 32.9 38 32.6 38 32.8 37.7 C 32.9 37.6 33.1 37.5 33.3 37.6 C 33.9 38.1 34.5 37.7 35 37.4 C 36.1 36.8 37.1 36.7 38.2 37.2 C 38.5 37.6 38.4 38.2 38.4 38.6 C 38.4 38.9 38.2 38.6 38 38.6 C 36.9 38.6 35.8 38.7 34.7 38.6 C 34.1 38.7 33.4 39.2 32.8 38.7 Z"/>
    <path class="st1" d="M 36.9 30.7 C 37 30.5 36.7 30.2 37.2 30.2 C 37.6 30.2 37.9 30.4 38.3 30.2 C 38.5 30.5 38.7 30.8 38.3 31.1 C 37.9 31 37.5 31.1 37.2 31.4 C 36.9 31.7 36.6 31.8 36.2 31.6 C 35.9 31.3 36.1 31.1 36.4 31 C 36.6 30.9 36.8 30.9 36.9 30.7 Z"/>
    <path class="st1" d="M 36.9 8.6 C 37 8.4 36.7 8.1 37.2 8.1 C 37.6 8.1 37.9 8.3 38.3 8.1 C 38.5 8.4 38.7 8.7 38.3 9 C 37.9 8.9 37.5 9 37.2 9.3 C 36.9 9.6 36.6 9.7 36.2 9.5 C 35.9 9.2 36.1 9 36.4 8.9 C 36.6 8.8 36.8 8.9 36.9 8.6 Z"/>
    <path class="st1" d="M 27.2 38.5 C 27.4 38.3 27.6 38.1 27.9 38.2 C 29 38.5 30.1 38 31.2 38.5 C 29.8 38.7 28.5 38.7 27.2 38.5 Z"/>
    <path class="st1" d="M 5.6 38.7 C 5.8 38.5 6 38.3 6.3 38.4 C 7.4 38.7 8.5 38.2 9.6 38.7 C 8.2 39 6.9 38.9 5.6 38.7 Z"/>
    <path class="st1" d="M 38.4 34.7 C 36.7 34.7 36.7 34.7 36.2 33.9 C 37 34 37.6 34.5 38.4 34.3 C 38.3 34.5 38.4 34.6 38.4 34.7 Z"/>
    <path class="st1" d="M 38.4 12.7 C 37.6 12.5 36.7 12.9 36.1 11.9 C 36.9 12 37.6 12.5 38.4 12.3 C 38.3 12.4 38.4 12.6 38.4 12.7 Z"/>
    <path class="st2" d="M -0.1 12.8 C 0 12.8 0.1 12.8 0.1 12.8 C 0.4 12.7 0.6 12.8 0.8 13 C 0.9 13.1 0.9 13.2 0.7 13.3 C 0.5 13.4 0.2 13.4 0 13.2 C 0 13.1 -0.1 13.1 -0.1 13 C -0.1 13 -0.1 12.9 -0.1 12.8 Z"/>
    <path class="st1" d="M -0.1 34.9 C 0 34.9 0.1 34.9 0.1 34.9 C 0.4 34.8 0.6 34.9 0.8 35.1 C 0.9 35.2 0.9 35.3 0.7 35.4 C 0.5 35.5 0.2 35.5 0 35.3 C -0.1 35.2 -0.1 35.2 -0.2 35.1 C -0.1 35 -0.1 34.9 -0.1 34.9 Z"/>
    <path class="st2" d="M 5.4 12.5 C 5.9 12.6 6.2 12.8 6.6 13.1 C 6.8 13.2 7 13.2 6.9 13.5 C 6.8 13.7 6.7 13.8 6.5 13.9 C 6.1 14 5.7 13.9 5.4 13.7 C 4.9 13.4 5.6 13.1 5.4 12.7 C 5.4 12.6 5.4 12.6 5.4 12.5 C 5.4 12.5 5.4 12.5 5.4 12.5 Z"/>
    <path class="st1" d="M 28.4 12.5 C 28.9 12.6 29.2 12.8 29.6 13.1 C 29.8 13.2 30 13.2 29.9 13.5 C 29.8 13.7 29.7 13.8 29.5 13.9 C 29.1 14 28.7 13.9 28.4 13.7 C 27.9 13.4 28.6 13.1 28.4 12.7 C 28.4 12.6 28.4 12.6 28.4 12.5 C 28.4 12.5 28.4 12.5 28.4 12.5 Z"/>
    <path class="st1" d="M 28.4 34.5 C 28.9 34.6 29.2 34.8 29.6 35.1 C 29.8 35.2 30 35.2 29.9 35.5 C 29.8 35.7 29.7 35.8 29.5 35.9 C 29.1 36 28.7 35.9 28.4 35.7 C 27.9 35.4 28.6 35.1 28.4 34.7 C 28.4 34.7 28.4 34.6 28.4 34.5 C 28.4 34.5 28.4 34.5 28.4 34.5 Z"/>
    <path class="st1" d="M 5.4 34.5 C 5.9 34.6 6.2 34.8 6.6 35.1 C 6.8 35.2 7 35.2 6.9 35.5 C 6.8 35.7 6.7 35.8 6.5 35.9 C 6.1 36 5.7 35.9 5.4 35.7 C 4.9 35.4 5.6 35.1 5.4 34.7 C 5.4 34.7 5.4 34.6 5.4 34.5 C 5.4 34.5 5.4 34.5 5.4 34.5 Z"/>
    <path class="st1" d="M 14.7 15.5 C 14.4 15.7 14.1 16.2 13.8 16.1 C 13.4 16.1 13 15.6 13 15.3 C 13 14.9 13.6 14.9 14 14.8 C 14.3 14.8 14.5 15.1 14.7 15.5 Z"/>
    <path class="st1" d="M 36.8 14.8 C 37.2 14.9 37.5 15.1 37.5 15.4 C 37.5 15.9 36.9 15.9 36.6 16.2 C 36.3 15.9 35.8 15.7 35.8 15.3 C 36 15 36.5 15 36.8 14.8 Z"/>
    <path class="st1" d="M 21.2 12 C 21.8 12.3 22.7 12 23.1 12.9 C 23.1 13 23.1 13 23 13.1 C 22.2 13.1 21.5 13 21 12.4 C 20.9 12.1 21 12 21.2 12 Z"/>
    <path class="st1" d="M 21.2 34 C 21.8 34.3 22.7 34 23.1 34.9 C 23.1 35 23.1 35 23 35.1 C 22.2 35.1 21.5 35 21 34.4 C 20.9 34.1 21 34 21.2 34 Z"/>
    <path class="st1" d="M 17.6 16.2 C 16.9 16.1 16.4 15.4 15.6 15.8 C 15.5 15.9 15.2 15.6 15.2 15.4 C 15.3 15.1 15.5 15.2 15.7 15.2 C 16.4 15.3 17.1 15.5 17.7 16 C 17.7 16.1 17.6 16.1 17.6 16.2 Z"/>
    <path class="st1" d="M 22.3 6.5 C 22.6 6.6 22.9 6.8 23 7.2 C 23.1 7.4 22.8 7.6 22.6 7.6 C 22.4 7.5 21.9 7.6 22 7.1 C 22 6.8 21.8 6.5 22.3 6.5 Z"/>
    <path class="st1" d="M 22.3 28.5 C 22.6 28.6 22.9 28.8 23 29.1 C 23.1 29.4 22.8 29.5 22.6 29.5 C 22.3 29.5 21.9 29.5 22 29 C 22 28.9 21.7 28.5 22.3 28.5 Z"/>
    <path class="st1" d="M 11.8 9.2 C 12.6 9.2 13.3 8.9 14.2 8.6 C 13.9 9.2 13.4 9.2 13.1 9.5 C 12.7 9.9 12.3 8.9 11.8 9.2 Z"/>
    <path class="st1" d="M 11.8 31.1 C 12.2 31.1 12.6 31.1 12.9 31 C 13.3 30.9 13.6 30.7 14.1 30.6 C 13.8 31.2 13.3 31.2 13 31.5 C 12.7 31.8 12.3 31.1 11.8 31.1 Z"/>
    <path class="st1" d="M 28.6 23 C 28.3 22.8 28.3 22.5 28.1 22.2 C 28 22 28.3 21.9 28.4 22 C 28.7 22.1 29.1 22.1 29 22.5 C 29.1 22.7 28.9 22.9 28.6 23 Z"/>
    <path class="st1" d="M 6.1 22.4 C 6 22.7 5.9 23 5.6 23 C 5.2 22.9 5.2 22.5 5.1 22.2 C 5 21.9 5.4 21.9 5.5 22 C 5.8 22 6.1 22.1 6.1 22.4 Z"/>
    <path class="st1" d="M 32 1.6 C 31.9 1.9 31.8 2.2 31.5 2.2 C 31.1 2.2 31.1 1.7 31 1.4 C 30.9 1.2 31.1 1.1 31.3 1.1 C 31.6 1.2 32 1.2 32 1.6 Z"/>
    <path class="st1" d="M 5.5 1.4 C 5.4 1.7 5.2 2 5 2 C 4.6 1.9 4.6 1.4 4.5 1.2 C 4.4 0.9 4.7 0.9 4.9 0.9 C 5.2 1 5.5 1 5.5 1.4 Z"/>
    <path class="st1" d="M 14.6 32.8 C 14.3 32.8 14 32.8 14.1 32.4 C 14.2 32.1 14.5 31.9 14.8 31.9 C 15.1 31.9 15.2 32.2 15.2 32.5 C 15.2 32.9 14.9 32.7 14.6 32.8 Z"/>
    <path class="st1" d="M 14.7 10.8 C 14.4 10.8 14 10.7 14.1 10.4 C 14.2 10.1 14.5 9.9 14.8 9.9 C 15.1 9.9 15.2 10.2 15.2 10.5 C 15.2 10.9 14.8 10.7 14.7 10.8 Z"/>
    <path class="st1" d="M 36.9 8.6 C 37 9.2 36 8.9 36.2 9.6 C 35.7 9.7 35.3 9.1 34.8 9.2 C 35.5 9 36.2 9 36.9 8.6 Z"/>
    <path class="st1" d="M 36.9 30.7 C 37 31.3 36 31 36.2 31.6 C 35.7 31.7 35.3 31.1 34.8 31.2 C 35.5 31 36.2 31 36.9 30.7 Z"/>
    <path class="st1" d="M 5 18.5 C 4.4 18.3 3.9 18.6 3.4 18.7 C 3.2 18.7 3 18.7 3 18.4 C 3 18.2 3.3 18.2 3.4 18.2 C 3.9 18.3 4.5 18 5 18.5 Z"/>
    <path class="st1" d="M 33.8 5.9 C 33.5 5.9 33.2 6 32.9 6 C 32.6 6 32.6 5.7 32.5 5.5 C 32.5 5.4 32.5 5.2 32.6 5.2 C 32.9 5.1 33.1 5.2 32.9 5.5 C 33.2 5.6 33.5 5.7 33.8 5.7 C 33.8 5.8 33.8 5.9 33.8 5.9 Z"/>
    <path class="st1" d="M 10.8 5.9 C 10.5 5.9 10.2 6 9.9 6 C 9.6 6 9.6 5.7 9.5 5.5 C 9.5 5.3 9.5 5.2 9.7 5.2 C 9.9 5.2 10.1 5.3 9.9 5.5 C 10.2 5.6 10.5 5.7 10.8 5.7 C 10.8 5.8 10.8 5.8 10.8 5.9 Z"/>
    <path class="st1" d="M 10.8 27.9 C 10.5 27.9 10.3 28 10.1 28 C 9.8 28.1 9.6 27.9 9.5 27.6 C 9.4 27.3 9.7 27 10 27.2 C 10.2 27.3 9.8 27.4 10 27.5 C 10.1 27.6 10.3 27.6 10.5 27.6 C 10.6 27.7 10.7 27.7 10.8 27.9 Z"/>
    <path class="st1" d="M 33.8 27.9 C 33.5 27.9 33.2 28 32.9 28 C 32.6 28 32.6 27.7 32.5 27.5 C 32.5 27.3 32.5 27.2 32.7 27.2 C 33 27.2 33.1 27.3 32.9 27.5 C 33.2 27.6 33.5 27.7 33.8 27.7 C 33.8 27.8 33.8 27.9 33.8 27.9 Z"/>
    <path class="st1" d="M 27.9 18.5 C 27.2 18.1 26.5 19 25.9 18.4 C 26.6 18.3 27.3 18 27.9 18.5 Z"/>
    <path class="st1" d="M 12.8 21.3 C 12.2 21.3 11.8 21.3 11.4 21.3 C 11.2 21.3 10.9 21.1 11 20.8 C 11.1 20.6 11.3 20.8 11.4 20.8 C 11.8 21 12.3 20.9 12.8 21.3 Z"/>
    <path class="st1" d="M 21.2 12 C 21.1 12.1 21.1 12.2 21 12.3 C 20.7 12.3 20.3 12.5 20 12.2 C 20 12.2 20 12 20.1 11.9 C 20.4 11.6 20.7 11.8 21.2 12 C 21.1 11.9 21.1 12 21.2 12 Z"/>
    <path class="st1" d="M 21.2 34 C 21.1 34.1 21.1 34.2 21 34.3 C 20.7 34.3 20.3 34.5 20 34.2 C 20 34.2 20 34 20.1 33.9 C 20.4 33.6 20.7 33.8 21.2 34 C 21.1 33.9 21.1 34 21.2 34 Z"/>
    <path class="st1" d="M 17.4 38 C 16.6 37.8 15.8 37.6 15 37.3 C 16 37.1 16.8 37.3 17.4 38 Z"/>
    <path class="st1" d="M 35.6 21.3 C 35.2 21.3 34.8 21.3 34.4 21.3 C 34.2 21.3 33.9 21.1 34 20.8 C 34.1 20.6 34.3 20.8 34.4 20.8 C 34.8 21 35.2 21 35.6 21.3 Z"/>
    <path class="st1" d="M 12.5 14.2 C 13 14.2 13.4 14.3 13.9 14.3 C 13.2 14.9 12.9 14.8 12.5 14.2 Z"/>
    <path class="st1" d="M 35.5 14.2 C 36 14.2 36.4 14.3 37.1 14.3 C 35.9 14.8 35.9 14.8 35.5 14.2 Z"/>
    <path class="st1" d="M 9.6 18.1 C 9.9 18.1 10.1 18.2 10.3 18.2 C 10.5 18.2 10.8 18.2 10.7 18.5 C 10.6 18.8 10.3 18.7 10.1 18.6 C 9.9 18.6 9.7 18.5 9.6 18.1 Z"/>
    <path class="st1" d="M 32.5 18.1 C 32.8 18.2 32.9 18.2 33.1 18.2 C 33.3 18.3 33.7 18.1 33.8 18.5 C 33.9 18.6 33.8 18.7 33.7 18.8 C 33.4 18.9 33.1 18.8 32.9 18.6 C 32.7 18.4 32.7 18.3 32.5 18.1 Z"/>
    <path class="st1" d="M 35.4 36.2 C 36 36.3 36.4 36.3 36.9 36.4 C 36 36.9 35.9 36.8 35.4 36.2 Z"/>
    <path class="st1" d="M 15.9 10.9 C 16.6 10.8 16.8 11.4 17.2 11.8 C 16.9 12 16.5 11.9 16.5 11.6 C 16.4 11.2 16 11.3 15.9 10.9 Z"/>
    <path class="st1" d="M 15.9 33 C 16.6 32.9 16.8 33.5 17.2 33.9 C 16.9 34.1 16.5 34 16.5 33.7 C 16.4 33.2 16 33.3 15.9 33 Z"/>
    <path class="st1" d="M 31.3 11.8 C 31.7 11.9 32 12.1 32.3 12.1 C 32.7 12.2 32.4 12.4 32.4 12.5 C 32.4 12.7 32.1 12.8 32.1 12.7 C 32 12.4 31.5 12.3 31.3 11.8 Z"/>
    <path class="st1" d="M 8.5 33.9 C 8.8 34 9.1 34.1 9.4 34.2 C 9.5 34.2 9.7 34.2 9.6 34.4 C 9.6 34.6 9.5 34.7 9.4 34.8 C 9.3 34.9 9.1 34.8 9.1 34.7 C 9 34.3 8.5 34.4 8.5 33.9 Z"/>
    <path class="st1" d="M 17.6 16.2 C 17.6 16.1 17.6 16.1 17.6 16 C 18.2 16 18.3 16.7 18.8 16.8 C 18.6 16.8 18.5 16.8 18.3 16.8 C 18 16.9 17.5 17.1 17.8 16.4 C 17.9 16.4 17.7 16.3 17.6 16.2 Z"/>
    <path class="st1" d="M 1.8 17.6 C 1.4 18.1 1 18.3 0.2 18.3 C 0.9 18 1.1 17.5 1.8 17.6 Z"/>
    <path class="st1" d="M 24.8 17.6 C 24.4 18.1 24 18.3 23.5 18.2 C 23.9 18.1 24.1 17.5 24.8 17.6 Z"/>
    <path class="st1" d="M 21.3 18.2 C 21.7 18.1 22.1 17.8 22.7 17.9 C 22.2 18.5 21.8 18.4 21.3 18.2 Z"/>
    <path class="st1" d="M 31.5 33.9 C 31.8 34 32.1 34.1 32.4 34.2 C 32.8 34.3 32.5 34.5 32.5 34.6 C 32.5 34.8 32.2 34.9 32.2 34.8 C 32 34.3 31.4 34.4 31.5 33.9 Z"/>
    <path class="st1" d="M 21.1 19 C 20.5 19.2 20.5 19.2 19.6 19.1 C 20.1 18.7 20.2 18.7 21.1 19 Z"/>
    <path class="st2" d="M 8.4 11.9 C 8.8 12 9.1 12.1 9.3 12.2 C 9.7 12.3 9.4 12.5 9.4 12.6 C 9.4 12.8 9.1 12.9 9.1 12.7 C 9 12.3 8.5 12.4 8.4 11.9 Z"/>
    <path class="st1" d="M 32.1 20 C 32.5 19.9 32.9 19.9 33.3 19.9 C 32.6 20.7 32.6 20.7 32.1 20 Z"/>
    <path class="st1" d="M 9.1 20 C 9.5 19.9 9.9 19.9 10.3 19.9 C 9.6 20.7 9.6 20.7 9.1 20 Z"/>
    <path class="st1" d="M 21.5 8.5 C 20.8 8.7 20.1 8.7 19.5 8.6 C 19.5 8.5 19.5 8.4 19.5 8.4 C 20.1 8.5 20.8 8.5 21.5 8.5 Z"/>
    <path class="st2" d="M 3.3 8.7 C 3.6 8.8 3.8 8.9 4 9 C 4.2 9 4.4 9.1 4.3 9.3 C 4.2 9.4 4 9.5 3.9 9.4 C 3.7 9.2 3.2 9.2 3.3 8.7 Z"/>
    <path class="st1" d="M 26.2 8.7 C 26.3 8.7 26.4 8.7 26.4 8.8 C 26.7 9 27.1 8.9 27.2 9.3 C 27.2 9.3 27.1 9.5 27 9.5 C 26.7 9.4 26.4 9.2 26.2 8.7 Z"/>
    <path class="st1" d="M 26.2 30.7 C 26.5 30.8 26.7 30.9 27 31 C 27.1 31.1 27.4 31.1 27.2 31.3 C 27.1 31.4 26.9 31.5 26.8 31.3 C 26.6 31.2 26.2 31.2 26.2 30.7 Z"/>
    <path class="st1" d="M 3.2 30.7 C 3.3 30.7 3.4 30.7 3.4 30.8 C 3.6 31 4.1 30.9 4.2 31.3 C 4.2 31.3 4.1 31.5 4 31.5 C 3.7 31.4 3.4 31.2 3.2 30.7 Z"/>
    <path class="st1" d="M 21.5 30.7 C 20.8 30.7 20.2 30.7 19.5 30.7 C 19.5 30.6 19.5 30.6 19.5 30.5 C 20.2 30.5 20.8 30.5 21.5 30.5 C 21.5 30.6 21.5 30.6 21.5 30.7 Z"/>
    <path class="st1" d="M 2.1 21.2 C 2.1 21.1 2.1 21.1 2.1 21.1 C 2.5 20.9 2.9 20.8 3.3 20.9 C 3.6 21 3.3 21.2 2.8 21.2 C 2.6 21.2 2.3 21.2 2.1 21.2 Z"/>
    <path class="st1" d="M 15.3 1.7 C 15.7 1.6 16 1.2 16.3 1.5 C 16.4 1.6 16.4 1.8 16.3 1.9 C 16 2.1 15.7 1.9 15.3 1.7 Z"/>
    <path class="st1" d="M 16.1 36.6 C 16.5 36.4 16.9 36.5 17.4 36.6 C 17 36.7 16.6 36.9 16.1 36.6 Z"/>
    <path class="st1" d="M 12.4 29.3 C 12.8 29.1 13.2 29 13.7 29.5 C 13.2 29.5 12.8 29.6 12.4 29.3 Z"/>
    <path class="st1" d="M 36.5 29.5 C 36.1 29.4 35.7 29.7 35.3 29.4 C 35.9 29 35.9 29 36.5 29.5 Z"/>
    <path class="st1" d="M 28.4 12.5 C 28.4 12.6 28.4 12.6 28.4 12.7 C 28.1 12.7 27.8 12.7 27.6 12.7 C 27.9 12.5 28 11.9 28.5 12.1 C 28.6 12.1 28.4 12.3 28.4 12.5 Z"/>
    <path class="st2" d="M 5.4 12.5 C 5.4 12.6 5.4 12.6 5.4 12.7 C 5.1 12.7 4.8 12.7 4.6 12.7 C 4.9 12.5 5 11.9 5.5 12.1 C 5.7 12.1 5.4 12.3 5.4 12.5 Z"/>
    <path class="st1" d="M 16 14.5 C 16.6 14.3 17 14.4 17.4 14.6 C 17 14.7 16.6 14.9 16 14.5 Z"/>
    <path class="st1" d="M 28.4 34.5 C 28.4 34.6 28.4 34.6 28.4 34.7 C 28.1 34.7 27.8 34.7 27.6 34.7 C 27.9 34.5 28 33.9 28.5 34.1 C 28.6 34.1 28.4 34.4 28.4 34.5 Z"/>
    <path class="st1" d="M 12.2 7.3 C 12.8 7.1 13.2 7.1 13.7 7.5 C 13.2 7.5 12.8 7.6 12.2 7.3 Z"/>
    <path class="st1" d="M 5.4 34.5 C 5.4 34.6 5.4 34.6 5.4 34.7 C 5.1 34.7 4.8 34.7 4.6 34.7 C 4.9 34.5 5 33.9 5.5 34.1 C 5.7 34.1 5.4 34.4 5.4 34.5 Z"/>
    <path class="st2" d="M 15 21.9 C 15.3 21.7 15.5 21.4 15.8 21.7 C 15.9 21.8 15.9 22.1 15.8 22.2 C 15.6 22.3 15.3 22.2 15 21.9 Z"/>
    <path class="st1" d="M 25.1 21.2 C 25.5 20.9 25.9 20.8 26.3 20.9 C 26.6 21 26.3 21.3 26 21.2 C 25.6 21.2 25.3 21.2 25.1 21.2 Z"/>
    <path class="st1" d="M 36.5 7.5 C 36.1 7.4 35.7 7.7 35.3 7.4 C 36 7 36 7 36.5 7.5 Z"/>
    <path class="st1" d="M 2.3 25.4 C 2.7 25.3 3.2 25.1 3.2 25.9 C 2.8 26.1 2.6 25.6 2.3 25.4 Z"/>
    <path class="st2" d="M 26.3 25.9 C 25.8 25.9 25.6 25.6 25.3 25.5 C 26 25.2 26 25.2 26.3 25.9 Z"/>
    <path class="st2" d="M 10.7 26.6 C 11.1 26.4 11.5 26.4 11.9 26.7 C 11.4 26.9 11 26.7 10.7 26.6 Z"/>
    <path class="st1" d="M 34.8 26.7 C 34.4 26.9 34 26.8 33.6 26.6 C 34.2 26.3 34.2 26.3 34.8 26.7 Z"/>
    <path class="st1" d="M 3.3 3.9 C 2.8 4 2.6 3.6 2.3 3.5 C 3 3.2 3 3.2 3.3 3.9 Z"/>
    <path class="st1" d="M 25.1 3.4 C 25.7 3.3 26.2 3.1 26.2 3.9 C 25.8 4 25.6 3.6 25.1 3.4 Z"/>
    <path class="st1" d="M 17.1 13.1 C 16.6 12.8 16.2 13 15.7 12.9 C 16.2 12.4 16.6 12.1 17.1 13.1 Z"/>
    <path class="st1" d="M 11.9 4.6 C 11.4 4.8 11 4.7 10.7 4.5 C 11 4.4 11.4 4.2 11.9 4.6 Z"/>
    <path class="st1" d="M 34.9 4.6 C 34.4 4.8 34 4.7 33.7 4.5 C 34 4.4 34.4 4.2 34.9 4.6 Z"/>
    <path class="st1" d="M 15.6 34.9 C 16.2 34.4 16.7 34.2 17 35 C 16.6 34.9 16.2 34.9 15.6 34.9 Z"/>
    <path class="st1" d="M 32.9 31.6 C 32.5 31.8 32.7 32.5 32.1 32.3 C 32.1 31.9 32.2 31.5 32.9 31.6 Z"/>
    <path class="st2" d="M 17 25.8 C 16.4 25.8 16.2 25.5 15.8 25.1 C 16.3 25.2 16.7 25.3 17 25.8 Z"/>
    <path class="st2" d="M 2 9.4 C 1.5 9.6 1.3 10 0.8 9.8 C 1.1 9.4 1.4 9.1 2 9.4 Z"/>
    <path class="st1" d="M 24.8 31.4 C 24.5 31.6 24.3 32 23.7 31.8 C 24.1 31.4 24.3 31.2 24.8 31.4 Z"/>
    <path class="st1" d="M 28.4 24.4 C 28.7 23.9 29.2 24.2 29.8 24.2 C 29.3 24.5 28.8 24.3 28.4 24.4 Z"/>
    <path class="st1" d="M 23.7 9.7 C 24.1 9.4 24.3 9.1 24.9 9.3 C 24.5 9.5 24.4 10 23.7 9.7 Z"/>
    <path class="st2" d="M 20.7 23.5 C 21.1 23.3 21.4 23.1 21.7 23.3 C 21.8 23.4 21.8 23.5 21.7 23.6 C 21.4 23.8 21.1 23.6 20.7 23.5 Z"/>
    <path class="st1" d="M 23 35.1 C 23 35 23 35 23.1 34.9 C 23.4 34.8 23.7 34.8 23.9 35.1 C 24 35.2 24 35.3 23.8 35.4 C 23.4 35.5 23.1 35.4 23 35.1 Z"/>
    <path class="st1" d="M 6.6 24.4 C 6.2 24.4 5.8 24.4 5.3 24.4 C 5.7 23.8 6.2 24.3 6.6 24.2 C 6.6 24.2 6.6 24.3 6.6 24.4 Z"/>
    <path class="st1" d="M 23 13 C 23 12.9 23 12.9 23.1 12.8 C 23.4 12.7 23.7 12.7 23.9 13 C 24 13.1 24 13.2 23.8 13.3 C 23.4 13.5 23.1 13.4 23 13 Z"/>
    <path class="st1" d="M 15.8 3 C 16.4 3.1 16.7 3.2 16.9 3.7 C 16.4 3.8 16.1 3.5 15.8 3 Z"/>
    <path class="st1" d="M 29.6 2.4 C 29.2 2.4 28.8 2.4 28.3 2.4 C 28.7 1.8 29.2 2.2 29.6 2.2 C 29.6 2.2 29.6 2.3 29.6 2.4 Z"/>
    <path class="st1" d="M 5.3 2.4 C 5.9 1.8 6.3 2.2 6.7 2.3 C 6.2 2.4 5.8 2.4 5.3 2.4 Z"/>
    <path class="st1" d="M 20.7 1.5 C 21.1 1.3 21.4 1.1 21.7 1.3 C 21.8 1.4 21.8 1.5 21.7 1.6 C 21.4 1.8 21.1 1.6 20.7 1.5 Z"/>
    <path class="st1" d="M 0.7 31.7 C 1.1 31.4 1.3 31.1 1.9 31.3 C 1.5 31.6 1.3 32 0.7 31.7 Z"/>
    <path class="st1" d="M 31.5 5.7 C 31.4 6.1 31.1 6.3 30.7 6.3 C 30.7 6.3 30.6 6.2 30.6 6.1 C 30.8 5.6 31.3 6 31.5 5.7 Z"/>
    <path class="st1" d="M 8.7 5.5 C 8.4 6.1 8.1 6.2 7.8 6.2 C 7.8 6.2 7.7 6.1 7.7 6 C 7.8 5.7 8.3 5.9 8.7 5.5 Z"/>
    <path class="st1" d="M 31.6 27.7 C 31.4 28.2 31.1 28.4 30.7 28.3 C 30.4 28.2 30.6 27.9 30.8 28 C 31.1 27.9 31.3 27.7 31.6 27.7 Z"/>
    <path class="st1" d="M 8.6 27.7 C 8.4 28.2 8.1 28.4 7.7 28.2 C 7.4 28.1 7.6 27.8 7.8 27.9 C 8.1 27.9 8.3 27.7 8.6 27.7 Z"/>
  </g>
</svg>
