<?xml version="1.0" encoding="utf-8"?>
<!-- Generator: Adobe Illustrator 23.1.1, SVG Export Plug-In . SVG Version: 6.00 Build 0)  -->
<svg version="1.1" id="Layer_1" xmlns="http://www.w3.org/2000/svg" xmlns:xlink="http://www.w3.org/1999/xlink" x="0px" y="0px"
	 viewBox="0 0 53.5 51.2" style="enable-background:new 0 0 53.5 51.2;" xml:space="preserve">
<style type="text/css">
	.st0{fill:#70923B;}
	.st1{fill:#597B2C;}
	.st2{fill:#7FA244;}
	.st3{fill:#A4C25D;}
	.st4{fill:#626262;}
	.st5{fill:#557729;}
	.st6{fill:#83A647;}
	.st7{fill:#5F5F5F;}
</style>
<g>
	<path class="st0" d="M53.2,12.6L53.2,12.6l0-4.2l0,0l0-0.2c0-0.6,0-1.2,0-1.8c0-0.6,0-1.1,0-1.7l0-0.6l0,0V0.1l-0.6,0
		c-0.7,0-1.4,0-2.1,0c-0.6,0-1.3,0-1.9,0l-0.6,0l-0.5,0l-0.6,0c-3.6,0.3-7.2,0.9-10.7,2l-0.6,0.2l-0.4,0.1l-0.5,0.2
		c-3.5,1.1-6.8,2.6-9.9,4.4l-0.5,0.3L24,7.6l-0.5,0.3c-3.1,1.9-6,4.2-8.6,6.7L14.5,15l-0.3,0.3l-0.4,0.4c-2.6,2.7-4.9,5.6-6.8,8.8
		L6.8,25l-0.3,0.4L6.2,26c-1.9,3.4-3.3,6.9-4.4,10.7l-0.1,0.5l0,0l0,0l0,0l0,0l-0.2,0.6l-0.1,0.6C0.5,42.3,0,46.4,0,50.6v0.6l4.2,0
		v0l4.6,0v0l3.9,0v0l4.2,0v0l4.2,0v0l4.6,0l0-0.6c0-0.9,0-1.8,0.1-2.7l0-0.5L26,47c0.3-2,0.7-3.9,1.4-5.7l0.1-0.4l0.2-0.4
		c0.7-1.7,1.7-3.3,2.8-4.8l0.2-0.3l0.2-0.3c1.1-1.4,2.4-2.7,3.8-3.9l0.3-0.3l0.3-0.2c1.4-1.1,3-2,4.6-2.8l0.4-0.2l0.4-0.2
		c1.6-0.7,3.4-1.3,5.1-1.6l0.4-0.1l0.4-0.1c1.3-0.2,3.1-0.4,4.8-0.4c0.4,0,0.8,0,1.2,0l0.6,0l0-0.6c0-0.6,0-1.2,0-1.8
		c0-0.6,0-1.1,0-1.7l0-0.6l0,0v-4.2l0,0l0-0.2c0-0.6,0-1.2,0-1.8c0-0.6,0-1.1,0-1.7L53.2,12.6z"/>
	<path class="st1" d="M50.5,4.8c0.1-0.2-0.3-0.6,0.3-0.6c0.4,0,0.8,0.2,1.3,0c0.2,0.3,0.4,0.7,0,1c-0.5-0.1-0.9,0-1.3,0.4
		c-0.3,0.3-0.7,0.5-1.2,0.2c-0.3-0.4-0.2-0.6,0.2-0.8C50.1,5.1,50.4,5.1,50.5,4.8z"/>
	<path class="st1" d="M45.6,14.3c0.1-0.2-0.3-0.6,0.3-0.6c0.4,0,0.8,0.2,1.3,0c0.2,0.3,0.4,0.7,0,1c-0.5-0.1-0.9,0-1.3,0.4
		c-0.3,0.3-0.7,0.5-1.2,0.2c-0.3-0.4-0.2-0.6,0.2-0.8C45.3,14.5,45.5,14.6,45.6,14.3z"/>
	<path class="st2" d="M52.3,9.5c-2-0.1-2-0.1-2.7-0.9c0.9,0.1,1.7,0.7,2.7,0.5C52.3,9.3,52.3,9.4,52.3,9.5z"/>
	<path class="st3" d="M51.7,17.6c-0.9-0.2-2,0.2-2.7-0.9c1,0.1,1.8,0.7,2.7,0.5C51.7,17.3,51.7,17.5,51.7,17.6z"/>
	<path class="st4" d="M8,27.7c0.1,0,0.2,0,0.3,0c0.4-0.2,0.6,0,0.8,0.3c0.1,0.1,0.1,0.2-0.1,0.3c-0.3,0.1-0.6,0.1-0.8-0.1
		C8.1,28.1,8.1,28,8,28C8,27.9,8,27.8,8,27.7z"/>
	<path class="st1" d="M5.6,34.8c0.1,0,0.2,0,0.3,0c0.4-0.2,0.6,0,0.8,0.3c0.1,0.1,0.1,0.2-0.1,0.3c-0.3,0.1-0.6,0.1-0.8-0.1
		c-0.1-0.1-0.1-0.1-0.2-0.2C5.6,35,5.6,34.9,5.6,34.8z"/>
	<path class="st3" d="M15.6,17.4c0.6,0.1,1,0.4,1.4,0.7c0.2,0.1,0.5,0.2,0.4,0.5c-0.1,0.2-0.3,0.4-0.5,0.4c-0.5,0.1-0.9,0-1.3-0.3
		c-0.6-0.4,0.2-0.8,0.1-1.2C15.6,17.6,15.6,17.5,15.6,17.4C15.6,17.4,15.6,17.4,15.6,17.4z"/>
	<path class="st1" d="M43.2,17.4c0.6,0.1,1,0.4,1.4,0.7c0.2,0.1,0.5,0.2,0.4,0.5c-0.1,0.2-0.3,0.4-0.5,0.4c-0.5,0.1-0.9,0-1.3-0.3
		c-0.6-0.4,0.2-0.8,0.1-1.2C43.1,17.6,43.1,17.5,43.2,17.4C43.2,17.4,43.2,17.4,43.2,17.4z"/>
	<path class="st1" d="M40.4,9.3c0.6,0.1,1,0.4,1.4,0.7c0.2,0.1,0.5,0.2,0.4,0.5c-0.1,0.2-0.3,0.4-0.5,0.4c-0.5,0.1-0.9,0-1.3-0.3
		c-0.6-0.4,0.2-0.8,0.1-1.2C40.3,9.5,40.3,9.4,40.4,9.3C40.3,9.4,40.3,9.3,40.4,9.3z"/>
	<path class="st3" d="M14.2,44.5c0.6,0.1,1,0.4,1.4,0.7c0.2,0.1,0.5,0.2,0.4,0.5c-0.1,0.2-0.3,0.4-0.5,0.4c-0.5,0.1-0.9,0-1.3-0.3
		c-0.6-0.4,0.2-0.8,0.1-1.2C14.1,44.6,14.1,44.6,14.2,44.5C14.1,44.5,14.2,44.5,14.2,44.5z"/>
	<path class="st3" d="M26.7,21c-0.4,0.3-0.7,0.8-1.1,0.7c-0.4,0-1-0.6-1-1c0-0.5,0.7-0.5,1.1-0.5C26.2,20.2,26.5,20.5,26.7,21z"/>
	<path class="st1" d="M43.2,21.4c0.5,0.1,0.9,0.3,0.9,0.7c0,0.5-0.7,0.5-1,0.9c-0.3-0.3-1-0.6-0.9-1.1
		C42.1,21.5,42.8,21.6,43.2,21.4z"/>
	<path class="st2" d="M34.5,16.8c0.8,0.3,1.8,0.1,2.2,1c0.1,0.1,0,0.2-0.1,0.2c-0.9,0-1.7-0.2-2.4-0.9C34.2,17,34.3,16.9,34.5,16.8z
		"/>
	<path class="st2" d="M29.5,30.3c0.8,0.3,1.8,0.1,2.2,1c0.1,0.1,0,0.2-0.1,0.2c-0.9,0-1.7-0.2-2.4-0.9
		C29.2,30.5,29.3,30.4,29.5,30.3z"/>
	<path class="st2" d="M30.2,21.7c-0.8-0.1-1.5-1-2.4-0.4c-0.2,0.1-0.5-0.2-0.5-0.5c0.1-0.3,0.3-0.2,0.6-0.2c0.9,0.1,1.7,0.4,2.4,0.9
		C30.3,21.6,30.3,21.6,30.2,21.7z"/>
	<path class="st3" d="M35.8,10.4c0.4,0.1,0.7,0.4,0.8,0.8c0.1,0.3-0.3,0.5-0.5,0.4c-0.3-0.1-0.9,0.1-0.7-0.6
		C35.5,10.7,35.2,10.4,35.8,10.4z"/>
	<path class="st1" d="M7.2,45.2c0.4,0.1,0.7,0.4,0.9,0.8c0.1,0.3-0.3,0.5-0.5,0.5c-0.3-0.1-0.9,0-0.8-0.6
		C6.8,45.6,6.5,45.2,7.2,45.2z"/>
	<path class="st1" d="M23.3,13.5c1-0.1,1.9-0.4,2.9-0.8c-0.3,0.7-1,0.7-1.3,1.1C24.3,14.3,23.9,13.2,23.3,13.5z"/>
	<path class="st1" d="M19.9,30.4c0.5,0,0.9,0,1.4-0.1c0.4-0.1,0.9-0.3,1.4-0.5c-0.3,0.7-1,0.7-1.3,1.1C21,31.2,20.5,30.4,19.9,30.4z
		"/>
	<path class="st1" d="M44.6,24.8c-0.3-0.2-0.4-0.6-0.5-1c-0.1-0.2,0.2-0.3,0.4-0.3c0.3,0.1,0.8,0.1,0.8,0.6
		C45.2,24.5,45,24.7,44.6,24.8z"/>
	<path class="st3" d="M16.4,29c-0.1,0.3-0.3,0.7-0.6,0.6c-0.5-0.1-0.5-0.6-0.6-0.9c-0.1-0.3,0.3-0.3,0.5-0.3
		C16.1,28.5,16.4,28.6,16.4,29z"/>
	<path class="st3" d="M44,3.3c-0.1,0.3-0.3,0.7-0.6,0.7c-0.5,0-0.4-0.6-0.6-0.9c-0.1-0.2,0.2-0.3,0.4-0.3C43.5,2.8,43.9,2.8,44,3.3z
		"/>
	<path class="st3" d="M30.7,13.1c-0.1,0.3-0.3,0.6-0.6,0.6c-0.5-0.1-0.5-0.6-0.6-0.9c-0.1-0.3,0.3-0.3,0.5-0.3
		C30.3,12.6,30.7,12.6,30.7,13.1z"/>
	<path class="st2" d="M23.3,32.4c-0.3,0-0.7,0-0.7-0.4c0.1-0.4,0.4-0.6,0.8-0.6c0.4,0,0.4,0.4,0.5,0.7
		C23.9,32.5,23.6,32.3,23.3,32.4z"/>
	<path class="st2" d="M26.7,15.4c-0.4,0-0.8-0.1-0.7-0.5c0.1-0.3,0.4-0.6,0.8-0.6c0.4,0,0.4,0.4,0.4,0.7
		C27.3,15.5,26.9,15.3,26.7,15.4z"/>
	<path class="st3" d="M50.8,13.4c0.2,0.7-1,0.4-0.8,1.1c-0.6,0.2-1-0.6-1.7-0.5C49.2,13.9,50.1,13.8,50.8,13.4z"/>
	<path class="st2" d="M50.5,4.8c0.2,0.7-1,0.4-0.8,1.1c-0.6,0.2-1-0.6-1.7-0.5C48.9,5.3,49.7,5.2,50.5,4.8z"/>
	<path class="st2" d="M15.1,24.5c-0.7-0.3-1.3,0.1-1.9,0.2c-0.2,0-0.5,0-0.5-0.3c0-0.3,0.3-0.2,0.5-0.2
		C13.8,24.2,14.5,23.9,15.1,24.5z"/>
	<path class="st2" d="M49.6,9.7c-0.4,0-0.7,0.1-1.1,0.1c-0.3,0-0.4-0.3-0.4-0.6c0-0.1,0-0.3,0.2-0.3c0.3-0.1,0.6,0,0.4,0.4
		c0.3,0.1,0.7,0.2,1,0.3C49.6,9.6,49.6,9.6,49.6,9.7z"/>
	<path class="st2" d="M22.7,11.7c-0.4,0-0.7,0.1-1.1,0.1c-0.3,0-0.4-0.3-0.4-0.6c0-0.2,0-0.3,0.2-0.4c0.3,0,0.5,0.1,0.3,0.4
		c0.3,0.1,0.7,0.2,1,0.3C22.7,11.6,22.7,11.7,22.7,11.7z"/>
	<path class="st2" d="M20.7,36.7c-0.3,0.1-0.6,0.1-0.9,0.2c-0.4,0.1-0.6-0.1-0.7-0.5c-0.1-0.4,0.2-0.7,0.6-0.4
		c0.2,0.1-0.2,0.2,0,0.4c0.2,0.1,0.4,0.1,0.6,0.2C20.4,36.5,20.6,36.4,20.7,36.7z"/>
	<path class="st2" d="M21,44.5c-0.4,0-0.7,0.1-1.1,0.1c-0.3,0-0.4-0.3-0.5-0.6c0-0.2,0-0.3,0.2-0.4c0.3,0,0.5,0.1,0.3,0.4
		c0.3,0.1,0.7,0.2,1,0.3C21,44.3,21,44.4,21,44.5z"/>
	<path class="st1" d="M42.6,24.4c-0.8-0.5-1.6,0.6-2.4-0.1C41,24.2,41.8,23.9,42.6,24.4z"/>
	<path class="st1" d="M24.4,27.7c-0.7,0-1.2,0-1.6,0c-0.3,0-0.6-0.2-0.4-0.5c0.1-0.3,0.3,0,0.5,0C23.3,27.4,23.8,27.3,24.4,27.7z"/>
	<path class="st3" d="M34.5,16.8c-0.1,0.1-0.2,0.3-0.2,0.4c-0.4,0-0.8,0.2-1.2-0.1c0,0,0-0.3,0.1-0.3C33.6,16.3,34,16.6,34.5,16.8
		C34.4,16.7,34.5,16.8,34.5,16.8z"/>
	<path class="st2" d="M31.1,33.8C31,33.9,31,34,30.9,34.2c-0.4,0-0.8,0.2-1.2-0.1c0,0,0-0.3,0.1-0.3C30.2,33.3,30.6,33.6,31.1,33.8
		C31.1,33.7,31.1,33.8,31.1,33.8z"/>
	<path class="st1" d="M51.3,22.9c-0.5,0-1,0-1.4,0c-0.3,0-0.6-0.2-0.4-0.5c0.1-0.3,0.3,0,0.5,0C50.4,22.5,50.9,22.5,51.3,22.9z"/>
	<path class="st2" d="M24.1,19.3c0.6,0.1,1.1,0.1,1.7,0.1C24.9,20.2,24.6,20.1,24.1,19.3z"/>
	<path class="st3" d="M51.6,19.4c0.6,0,1.1,0.1,1.9,0.2C52.2,20.1,52.2,20.1,51.6,19.4z"/>
	<path class="st1" d="M20.6,24c0.3,0,0.6,0.1,0.9,0.1c0.3,0,0.6,0,0.5,0.4c-0.1,0.3-0.5,0.2-0.7,0.1C21,24.6,20.8,24.4,20.6,24z"/>
	<path class="st2" d="M48.1,23.9c0.4,0.1,0.5,0.1,0.7,0.2c0.3,0.1,0.7-0.1,0.9,0.3c0.1,0.1,0,0.3-0.2,0.3c-0.4,0.1-0.7,0-1-0.3
		C48.4,24.3,48.3,24.2,48.1,23.9z"/>
	<path class="st2" d="M28.1,15.6c0.8-0.1,1.1,0.5,1.6,1c-0.4,0.2-0.9,0.1-0.9-0.2C28.8,15.9,28.3,16,28.1,15.6z"/>
	<path class="st2" d="M24.8,32.6c0.8-0.1,1.1,0.5,1.5,1c-0.4,0.2-0.9,0.1-0.9-0.3C25.4,32.9,25,33,24.8,32.6z"/>
	<path class="st1" d="M46.7,16.6c0.5,0.2,0.9,0.3,1.2,0.4c0.5,0.1,0.1,0.3,0.1,0.5c0,0.2-0.4,0.4-0.4,0.2
		C47.4,17.3,46.9,17.2,46.7,16.6z"/>
	<path class="st1" d="M17.8,43.7c0.4,0.1,0.7,0.2,1.1,0.3c0.1,0,0.3,0,0.2,0.2c-0.1,0.2-0.2,0.4-0.3,0.5c-0.1,0.1-0.3,0-0.3-0.1
		C18.5,44.2,17.9,44.3,17.8,43.7z"/>
	<path class="st2" d="M30.2,21.7c0-0.1,0-0.2,0-0.2c0.7,0,0.9,0.8,1.5,1c-0.2,0-0.4,0-0.6,0.1c-0.4,0.1-0.9,0.3-0.6-0.5
		C30.6,22,30.3,21.8,30.2,21.7z"/>
	<path class="st1" d="M11.3,23.4c-0.5,0.6-1,0.8-1.9,0.8C10.2,23.9,10.5,23.3,11.3,23.4z"/>
	<path class="st5" d="M38.8,23.4c-0.5,0.6-1,0.8-1.6,0.7C37.8,23.9,38.1,23.2,38.8,23.4z"/>
	<path class="st5" d="M34.7,24.1c0.5-0.2,1-0.4,1.6-0.3C35.8,24.4,35.2,24.3,34.7,24.1z"/>
	<path class="st1" d="M44,8.6c0.4,0.1,0.7,0.3,1,0.3c0.5,0.1,0.1,0.3,0.1,0.5c0,0.2-0.4,0.3-0.4,0.2C44.7,9.1,44,9.2,44,8.6z"/>
	<path class="st5" d="M34.4,25c-0.8,0.3-0.8,0.3-1.8,0.1C33.2,24.7,33.4,24.7,34.4,25z"/>
	<path class="st2" d="M19.2,16.7c0.5,0.1,0.8,0.3,1.1,0.3c0.5,0.1,0.1,0.4,0.1,0.5c0,0.2-0.4,0.3-0.4,0.1
		C19.9,17.2,19.3,17.3,19.2,16.7z"/>
	<path class="st2" d="M47.2,21.4c0.5-0.1,0.9-0.1,1.4-0.2C47.7,22.1,47.7,22.1,47.2,21.4z"/>
	<path class="st2" d="M20.1,26.2c0.5-0.1,0.9-0.1,1.4-0.2C20.6,26.9,20.6,26.9,20.1,26.2z"/>
	<path class="st3" d="M34.9,12.8C34.1,13,33.3,13,32.4,13c0-0.1,0-0.2,0-0.3C33.3,12.7,34.1,12.7,34.9,12.8z"/>
	<path class="st1" d="M14.1,20.5c0.4,0.1,0.6,0.2,0.9,0.3c0.2,0.1,0.4,0.1,0.3,0.4c-0.1,0.1-0.3,0.2-0.4,0.1
		C14.5,21.1,14,21.1,14.1,20.5z"/>
	<path class="st3" d="M40.5,13c0.2,0,0.3,0,0.3,0.1c0.3,0.3,0.8,0.1,1,0.6c0,0-0.1,0.2-0.2,0.2C41.1,13.8,40.7,13.6,40.5,13z"/>
	<path class="st3" d="M11.9,47.7c0.4,0.1,0.6,0.2,0.9,0.3c0.2,0.1,0.4,0.1,0.3,0.4c-0.1,0.2-0.3,0.2-0.5,0
		C12.3,48.3,11.9,48.3,11.9,47.7z"/>
	<path class="st3" d="M11.5,40c0.2,0,0.2,0,0.3,0.1c0.3,0.3,0.8,0.1,1,0.6c0,0-0.1,0.2-0.2,0.2C12.1,40.8,11.7,40.6,11.5,40z"/>
	<path class="st1" d="M6.2,47.7c-0.8,0-1.6,0-2.4,0c0-0.1,0-0.1,0-0.2c0.8,0,1.6,0,2.4,0C6.2,47.6,6.2,47.6,6.2,47.7z"/>
	<path class="st2" d="M11.6,27.6c0-0.1,0-0.2,0-0.2c0.4-0.2,0.9-0.4,1.4-0.2c0.3,0.1,0,0.4-0.6,0.4C12.2,27.6,11.9,27.6,11.6,27.6z"
		/>
	<path class="st2" d="M32.9,7.7c0.5-0.2,0.8-0.5,1.2-0.2c0.1,0.1,0.1,0.4,0,0.5C33.7,8.3,33.4,8,32.9,7.7z"/>
	<path class="st1" d="M20.6,28.3c0.5-0.3,1-0.3,1.5,0.2C21.5,28.5,21.1,28.7,20.6,28.3z"/>
	<path class="st3" d="M50.1,3.5c-0.5-0.1-1,0.2-1.4-0.1C49.4,2.9,49.4,2.9,50.1,3.5z"/>
	<path class="st6" d="M43.2,17.4c0,0.1,0,0.1,0,0.2c-0.3,0-0.7,0-1,0c0.4-0.2,0.5-0.9,1.1-0.7C43.5,17,43.2,17.2,43.2,17.4z"/>
	<path class="st6" d="M15.6,17.4c0,0.1,0,0.1,0,0.2c-0.3,0-0.7,0-1,0c0.4-0.2,0.5-0.9,1.1-0.7C15.9,17,15.6,17.2,15.6,17.4z"/>
	<path class="st1" d="M28.2,19.8c0.7-0.2,1.2-0.1,1.7,0.1C29.5,19.9,29,20.2,28.2,19.8z"/>
	<path class="st6" d="M40.4,9.3c0,0.1,0,0.1,0,0.2c-0.3,0-0.7,0-1,0c0.4-0.2,0.5-0.9,1.1-0.7C40.6,8.9,40.3,9.1,40.4,9.3z"/>
	<path class="st2" d="M23.7,11.3c0.7-0.2,1.2-0.3,1.8,0.2C24.9,11.5,24.4,11.7,23.7,11.3z"/>
	<path class="st6" d="M14.2,44.5c0,0.1,0,0.1,0,0.2c-0.3,0-0.7,0-1,0c0.4-0.2,0.5-0.9,1.1-0.7C14.5,44,14.2,44.3,14.2,44.5z"/>
	<path class="st2" d="M27.1,28.4c0.4-0.2,0.6-0.5,1-0.3c0.1,0.1,0.1,0.5,0,0.5C27.8,28.9,27.5,28.7,27.1,28.4z"/>
	<path class="st5" d="M39.2,27.6c0.4-0.4,0.9-0.5,1.4-0.3c0.3,0.1,0,0.4-0.4,0.4C39.8,27.6,39.5,27.6,39.2,27.6z"/>
	<path class="st2" d="M52.9,11.6c-0.5-0.1-1,0.2-1.4-0.1C52.2,11,52.2,11,52.9,11.6z"/>
	<path class="st1" d="M10.4,33.8c0.5-0.1,1.1-0.4,1.1,0.5C11,34.6,10.8,34,10.4,33.8z"/>
	<path class="st2" d="M11.9,42.1c-0.6,0.1-0.8-0.3-1.1-0.5C11.7,41.3,11.7,41.3,11.9,42.1z"/>
	<path class="st2" d="M20.4,35.1c0.5-0.3,0.9-0.3,1.5,0.1C21.3,35.5,20.9,35.3,20.4,35.1z"/>
	<path class="st3" d="M22.2,43c-0.5,0.2-1,0.1-1.5-0.1C21.5,42.6,21.5,42.6,22.2,43z"/>
	<path class="st2" d="M27.3,17.2c-0.6,0.1-0.8-0.3-1.1-0.5C27,16.4,27,16.4,27.3,17.2z"/>
	<path class="st1" d="M39.2,6.8c0.7-0.1,1.3-0.3,1.4,0.6C40.1,7.5,39.8,7,39.2,6.8z"/>
	<path class="st2" d="M29.6,18.1c-0.6-0.3-1.1-0.2-1.7-0.3C28.6,17.4,29.1,17,29.6,18.1z"/>
	<path class="st1" d="M19.5,15.5c-0.6,0.2-1,0.1-1.5-0.2C18.5,15.2,18.9,15.1,19.5,15.5z"/>
	<path class="st2" d="M50.9,8.2c-0.6,0.2-1,0.1-1.5-0.2C49.9,7.9,50.3,7.8,50.9,8.2z"/>
	<path class="st3" d="M24.5,34.9c0.7-0.6,1.3-0.8,1.7,0.1C25.7,34.8,25.2,34.8,24.5,34.9z"/>
	<path class="st1" d="M19.9,48.8c-0.5,0.2-0.3,1-1,0.8C19,49.1,19.1,48.6,19.9,48.8z"/>
	<path class="st2" d="M5.2,42.5c-0.7,0-1-0.3-1.4-0.8C4.4,41.8,4.8,42,5.2,42.5z"/>
	<path class="st2" d="M12.6,21.2c-0.6,0.2-0.9,0.7-1.5,0.5C11.5,21.3,11.8,21,12.6,21.2z"/>
	<path class="st3" d="M10.2,48.5c-0.4,0.2-0.6,0.7-1.3,0.5C9.3,48.6,9.6,48.3,10.2,48.5z"/>
	<path class="st3" d="M14.5,40.3c0.4-0.6,0.9-0.2,1.7-0.3C15.5,40.5,15,40.2,14.5,40.3z"/>
	<path class="st3" d="M37.6,14.2c0.4-0.3,0.7-0.7,1.5-0.5C38.5,14,38.3,14.5,37.6,14.2z"/>
	<path class="st5" d="M33.9,30.3c0.5-0.3,0.8-0.5,1.2-0.2c0.1,0.1,0.2,0.3,0,0.3C34.7,30.6,34.4,30.4,33.9,30.3z"/>
	<path class="st3" d="M26.8,36.3c0-0.1,0.1-0.1,0.1-0.2c0.4-0.1,0.7-0.1,0.9,0.2c0.1,0.2,0.1,0.2-0.1,0.3
		C27.3,36.8,27,36.7,26.8,36.3z"/>
	<path class="st7" d="M15.6,32.6c-0.5,0-1,0-1.5,0c0.5-0.7,1-0.2,1.5-0.3C15.6,32.4,15.6,32.5,15.6,32.6z"/>
	<path class="st1" d="M36.6,18c0-0.1,0.1-0.1,0.1-0.2c0.4-0.1,0.7-0.1,0.9,0.2c0.1,0.2,0.1,0.2-0.1,0.3C37.1,18.6,36.8,18.4,36.6,18
		z"/>
	<path class="st2" d="M28,6.4c0.7,0.1,1.1,0.3,1.4,0.8C28.8,7.2,28.5,6.9,28,6.4z"/>
	<path class="st2" d="M44.6,5.6c-0.5,0-1,0-1.5,0c0.5-0.7,1.1-0.2,1.5-0.3C44.6,5.4,44.6,5.5,44.6,5.6z"/>
	<path class="st5" d="M29.7,15.4c0.7-0.6,1.2-0.3,1.6-0.1C30.9,15.4,30.4,15.4,29.7,15.4z"/>
	<path class="st2" d="M33.9,4.5c0.5-0.3,0.8-0.5,1.2-0.2c0.1,0.1,0.2,0.3,0,0.3C34.7,4.9,34.4,4.7,33.9,4.5z"/>
	<path class="st2" d="M8.6,41.2c0.5-0.3,0.8-0.7,1.4-0.4C9.5,41,9.3,41.5,8.6,41.2z"/>
	<path class="st1" d="M46.9,9.4c-0.2,0.5-0.5,0.7-0.9,0.6c-0.1,0-0.2-0.2-0.1-0.2C46.1,9.4,46.6,9.8,46.9,9.4z"/>
	<path class="st2" d="M28.6,10.4c-0.3,0.7-0.6,0.9-1.1,0.9c-0.1,0-0.2-0.2-0.2-0.2C27.6,10.6,28.2,10.9,28.6,10.4z"/>
	<path class="st2" d="M18.4,44.2c-0.3,0.5-0.6,0.8-1,0.6c-0.3-0.1-0.1-0.4,0.2-0.4C17.8,44.4,18,44.2,18.4,44.2z"/>
	<path class="st1" d="M18,36.4c-0.3,0.5-0.6,0.8-1,0.6c-0.3-0.1-0.1-0.4,0.2-0.4C17.4,36.7,17.6,36.5,18,36.4z"/>
</g>
</svg>
