<?xml version="1.0" encoding="utf-8"?>
<!-- Generator: Adobe Illustrator 23.1.1, SVG Export Plug-In . SVG Version: 6.00 Build 0)  -->
<svg version="1.1" id="Layer_1" xmlns="http://www.w3.org/2000/svg" xmlns:xlink="http://www.w3.org/1999/xlink" x="0px" y="0px"
	 viewBox="0 0 53.6 51.2" style="enable-background:new 0 0 53.6 51.2;" xml:space="preserve">
<style type="text/css">
	.st0{fill:#ECECEC;}
	.st1{fill:#A87E66;}
	.st2{fill:#DDC492;}
	.st3{fill:#CEC6B7;}
	.st4{fill:#998360;}
	.st5{fill:#B3A491;}
	.st6{fill:#CCB395;}
	.st7{fill:#B29473;}
</style>
<g>
	<path class="st0" d="M53.2,12.6L53.2,12.6l0-4.2l0,0l0-0.2c0-0.6,0-1.2,0-1.8c0-0.6,0-1.1,0-1.7l0-0.6l0,0V0.1l-0.6,0
		c-0.7,0-1.4,0-2.1,0c-0.6,0-1.3,0-1.9,0l-0.6,0l-0.5,0l-0.6,0c-3.6,0.3-7.2,0.9-10.7,2l-0.6,0.2l-0.4,0.1l-0.5,0.2
		c-3.5,1.1-6.8,2.6-9.9,4.4l-0.5,0.3L24,7.6l-0.5,0.3c-3.1,1.9-6,4.2-8.6,6.7L14.5,15l-0.3,0.3l-0.4,0.4c-2.6,2.7-4.9,5.6-6.8,8.8
		L6.8,25l-0.3,0.4L6.2,26c-1.9,3.4-3.3,6.9-4.4,10.7l-0.1,0.5l0,0l0,0l0,0l0,0l-0.2,0.6l-0.1,0.6C0.5,42.3,0,46.4,0,50.6v0.6l4.2,0
		v0l4.6,0v0l3.9,0v0l4.2,0v0l4.2,0v0l4.6,0l0-0.6c0-0.9,0-1.8,0.1-2.7l0-0.5L26,47c0.3-2,0.7-3.9,1.4-5.7l0.1-0.4l0.2-0.4
		c0.7-1.7,1.7-3.3,2.8-4.8l0.2-0.3l0.2-0.3c1.1-1.4,2.4-2.7,3.8-3.9l0.3-0.3l0.3-0.2c1.4-1.1,3-2,4.6-2.8l0.4-0.2l0.4-0.2
		c1.6-0.7,3.4-1.3,5.1-1.6l0.4-0.1l0.4-0.1c1.3-0.2,3.1-0.4,4.8-0.4c0.4,0,0.8,0,1.2,0l0.6,0l0-0.6c0-0.6,0-1.2,0-1.8
		c0-0.6,0-1.1,0-1.7l0-0.6l0,0v-4.2l0,0l0-0.2c0-0.6,0-1.2,0-1.8c0-0.6,0-1.1,0-1.7L53.2,12.6z"/>
	<path class="st1" d="M51.1,15.5c0,0.2,0,0.4,0,0.6c-0.3,1.5,0.3,2.3,1.8,2.7c0.3,0.1,0.5,0.3,0.7,0.6V9.9c-0.1,0.3-0.2,0.5-0.4,0.7
		C51.4,11.8,50.8,13.4,51.1,15.5z"/>
	<path class="st2" d="M45.6,6.6c1.7,1.7,3.4,3.3,5.1,5c1-0.9,1.9-1.7,2.8-2.6c0,0,0.1,0,0.1,0V0.4h-8c-0.1,1.6-0.3,3.3-0.4,5
		C45.2,5.8,45.3,6.3,45.6,6.6z"/>
	<path class="st3" d="M38.7,21c0.1-0.1,0.3-0.2,0.4-0.3c0.1-0.1,0.1-0.3,0.2-0.4c-0.1-0.3-0.2-0.6-0.3-0.9C38,16.9,37,14.5,36.1,12
		c-0.4-1.3-1.2-2.1-2.4-2.6c-1.6-0.6-2.6-0.4-3.6,1.1c-1.7,2.5-3.4,5-5.2,7.6c-0.9,1.3-0.7,2.1,0.9,2.7c1.4,0.6,2.9,1.2,4.4,1.8
		c1.6,0.6,3.3,1.8,4.7,1.5C36.3,23.8,37.4,22.1,38.7,21z"/>
	<path class="st4" d="M41,20.2c1.5,0.1,3,0,4.5,0c1.9,0,3.2-1.4,4.7-2.2c0.1,0,0.2-0.2,0.2-0.3c0-1.7,0-3.5,0-5.2
		c0-0.2-0.2-0.4-0.4-0.6c-1.6-1.5-3.2-3.1-4.8-4.6c-0.2-0.2-0.8-0.3-1-0.2c-2.5,1-5.1,2-7.7,3.1c1.2,3.2,2.4,6.3,3.7,9.4
		C40.1,19.9,40.6,20.1,41,20.2z"/>
	<path class="st5" d="M33.9,25.1c-3-1.2-6-2.4-9.1-3.7c-1.1,2.6-2.2,5.2-3.3,7.7c2.7,1.8,5.4,3.6,8,5.4c0.2-0.1,0.3-0.2,0.3-0.2
		c1.1-1.1,2.3-2.3,3.4-3.4c0.5-0.5,1.1-1,1.2-1.6c0.1-1.3-0.1-2.6-0.2-3.8C34.3,25.3,34.1,25.1,33.9,25.1z"/>
	<path class="st4" d="M28.5,34.8c-2.2-1.6-4.5-3-6.8-4.6c-0.6-0.4-1-0.3-1.5,0c-1.1,0.7-2.4,1.4-3.5,2.2c-0.4,0.3-0.8,1-0.9,1.5
		c-0.1,0.4-0.1,0.8-0.1,1.2l0,0c-0.2,1.1-1,8.6,0.5,9.2c1.4,0.6,3.3,1.7,4.9,0.7c1.6-1,2.5-1.3,3.6-2.2s3.8-2.7,3.7-3.8
		c0.2-0.9,0.5-1.9,0.6-2.8C29,35.7,28.8,35.1,28.5,34.8z"/>
	<path class="st1" d="M22.8,19.2c-1.2-0.5-2.3-1.1-3.5-1.5c-0.4-0.1-0.9,0-1.3,0.2c-0.6,0.3-1.2,0.7-1.9,1c-0.3,0.1-0.5,0.3-0.8,0.4
		c-0.1,0-0.1,0-0.1,0.1c-0.5,0.4-1.3,0.7-1.6,1.3c-0.6,1.3-2.4,8.3-1.1,9.8c1.3,1.4,1.4,1.7,2.7,1.4c0.4-0.1,0.8-0.1,1.1-0.2
		c0.1,0,0.1-0.1,0.2-0.1c3.2-1.4,5.3-3.7,6.2-7.1c0.3-0.9,0.7-1.8,1.1-2.7C24.2,20.7,23.9,19.8,22.8,19.2z"/>
	<path class="st6" d="M52.6,25.5l0.6,0l0-0.6c0-0.6,0-1.2,0-1.8c0-0.6,0-1.1,0-1.7l0-0.6l0,0v-1.3c-2-1.4-3.8-0.5-5.5,0.8
		c-0.3,0.2-0.6,0.7-0.5,1c0.1,1.4,0.3,2.8,0.4,4.2c1.2-0.1,2.5-0.2,3.8-0.2C51.8,25.5,52.2,25.5,52.6,25.5z"/>
	<path class="st2" d="M32.3,6.7c0.1-1.1,0.1-2.2,0.2-3.3c-2.3,0.9-4.4,1.9-6.6,3.1c1.2,0.6,2.4,1.2,3.6,1.8
		C31.2,9.1,32.2,8.6,32.3,6.7z"/>
	<path class="st1" d="M33.5,8.3c0.9,0.4,2,1.1,2.9,0.8c2.5-0.8,4.9-1.9,7.3-2.9c0.3-0.1,0.7-0.7,0.7-1c0.2-1.5,0.3-3,0.5-4.4
		c0-0.1,0.1-0.3,0.2-0.4h-0.6c-2.7,0.4-5.4,0.9-8,1.7l-0.6,0.2l-0.4,0.1l-0.5,0.2c-0.5,0.2-1,0.4-1.5,0.5c-0.1,1.2-0.1,2.5-0.2,3.7
		C33.1,7.4,33.2,8.2,33.5,8.3z"/>
	<path class="st7" d="M40.4,21c-0.3,0-0.6,0.2-0.8,0.4c-1.3,1.1-2.5,2.1-3.7,3.2c-0.3,0.3-0.5,0.8-0.5,1.2c0,2.5,0.1,3.3,1,4.3
		c1.2-0.8,2.4-1.6,3.7-2.2l0.4-0.2l0.4-0.2c1.6-0.7,3.4-1.3,5.1-1.6l0.4-0.1l0.4-0.1c0,0,0.1,0,0.1,0c-0.2-1.6-0.3-3.2-0.5-4.9
		C44.2,21,42.3,21,40.4,21z"/>
	<path class="st3" d="M2.8,42.6c0.1-0.1,0.3-0.2,0.4-0.3c0.1-0.1,0.1-0.3,0.2-0.4C3.2,41.6,3.1,41.3,3,41c-0.4-1.2-0.9-2.3-1.4-3.5
		l-0.1,0.3l-0.1,0.6c-0.5,2.2-0.9,4.4-1.1,6.7C1.2,44.3,1.9,43.4,2.8,42.6z"/>
	<path class="st4" d="M5,41.8c1.5,0.1,3,0,4.5,0c1.9,0,3.2-1.4,4.7-2.2c0.1,0,0.2-0.2,0.2-0.3c0-1.7,0-3.5,0-5.2
		c0-0.2-0.2-0.4-0.4-0.6c-1.6-1.5-3.2-3.1-4.8-4.6c-0.2-0.2-0.8-0.3-1-0.2c-1.3,0.5-2.7,1-4,1.6c-0.8,1.9-1.5,3.8-2.1,5.8
		c0.7,1.7,1.3,3.4,2,5.1C4.2,41.5,4.7,41.8,5,41.8z"/>
	<path class="st7" d="M11.1,50.1c-0.2-2.4-0.5-4.9-0.8-7.4c-2,0-3.9,0-5.9,0c-0.3,0-0.6,0.2-0.8,0.4C2.5,44,1.3,45,0.2,46
		C0.1,47.5,0,49.1,0,50.6v0.6l4.2,0v0l4.6,0v0l1.5,0c0.1,0,0.1-0.1,0.2-0.1C10.8,50.9,11.1,50.4,11.1,50.1z"/>
	<path class="st1" d="M19.4,16.8c1.3,0.6,2.7,1.2,4.1,1.8c2.1-3.1,4.2-6.1,6.3-9.2c-1.6-0.8-3.3-1.6-4.9-2.4c0,0,0,0,0,0l-0.5,0.3
		L24,7.6l-0.5,0.3c-2.2,1.4-4.3,2.9-6.2,4.5c0.4,1.2,0.9,2.4,1.4,3.6C18.8,16.4,19.1,16.7,19.4,16.8z"/>
	<path class="st6" d="M13.6,19.7c0.4-0.3,3.9-2.2,4.3-2.5c0.5-0.3-0.2-1.4-0.4-2c-0.1-0.3-0.5-1.3-0.9-2.2c-0.6,0.5-1.1,1-1.7,1.5
		L14.5,15l-0.3,0.3l-0.4,0.4c-1.2,1.3-2.4,2.6-3.4,4c0.4,0.2,0.8,0.4,1.1,0.5C12.3,20.5,13.2,20,13.6,19.7z"/>
	<path class="st7" d="M8.7,27.9c0.9,0,1.9,1.1,2.4,1.1s0-0.9,0.2-1.4c0.3-0.4,0.7-4.9,0.9-5.5c0.2-0.6-0.1-1.1-0.2-1.2
		c-0.1-0.1-1.1-0.4-2-0.8c-1,1.4-2,2.8-2.9,4.3L6.8,25l-0.3,0.4L6.2,26c-0.5,0.9-1,1.8-1.4,2.7c0.2,0,0.4,0,0.6,0
		C7.4,28.7,7.8,27.9,8.7,27.9z"/>
	<path class="st5" d="M14.4,41.8c-0.3-0.7-2-0.3-2-0.3c-1.1,0.1-1,1.2-1,1.5s0.3,3.5,0.4,4c0.1,0.3,0.1,2.5,0.3,4.2l0.7,0v0l3.7,0
		c-0.1-1.7-0.5-3.9-0.5-4.3C15.9,46.3,14.7,42.5,14.4,41.8z"/>
	<path class="st5" d="M17.1,46c-0.3,0.3-0.6,1.2-0.3,1.9c0.2,0.5,0,2,0.3,3.4l4,0v0l4.6,0l0-0.6c0-0.9,0-1.8,0.1-2.7l0-0.5L26,47
		c0.2-1.5,0.5-2.9,1-4.3c-1.9,1.2-5.3,3.2-5.9,3.5C20.3,46.6,17.7,45.5,17.1,46z"/>
</g>
</svg>
