<?xml version="1.0" encoding="utf-8"?>
<!-- Generator: Adobe Illustrator 23.1.1, SVG Export Plug-In . SVG Version: 6.00 Build 0)  -->
<svg version="1.1" id="Layer_1" xmlns="http://www.w3.org/2000/svg" xmlns:xlink="http://www.w3.org/1999/xlink" x="0px" y="0px"
	 viewBox="0 0 53.2 51.2" style="enable-background:new 0 0 53.2 51.2;" xml:space="preserve">
<style type="text/css">
	.st0{fill:#877249;}
	.st1{fill:#9E8358;}
	.st2{fill:#A4895C;}
</style>
<g>
	<path class="st0" d="M53.2,12.6L53.2,12.6l0-4.2l0,0l0-0.2c0-0.6,0-1.2,0-1.8c0-0.6,0-1.1,0-1.7l0-0.6l0,0V0.1l-0.6,0
		c-0.7,0-1.4,0-2.1,0c-0.6,0-1.3,0-1.9,0l-0.6,0l-0.5,0l-0.6,0c-3.6,0.3-7.2,0.9-10.7,2l-0.6,0.2l-0.4,0.1l-0.5,0.2
		c-3.5,1.1-6.8,2.6-9.9,4.4l-0.5,0.3L24,7.6l-0.5,0.3c-3.1,1.9-6,4.2-8.6,6.7L14.5,15l-0.3,0.3l-0.4,0.4c-2.6,2.7-4.9,5.6-6.8,8.8
		L6.8,25l-0.3,0.4L6.2,26c-1.9,3.4-3.3,6.9-4.4,10.7l-0.1,0.5l0,0l0,0l0,0l0,0l-0.2,0.6l-0.1,0.6C0.5,42.3,0,46.4,0,50.6v0.6l4.2,0
		v0l4.6,0v0l3.9,0v0l4.2,0v0l4.2,0v0l4.6,0l0-0.6c0-0.9,0-1.8,0.1-2.7l0-0.5L26,47c0.3-2,0.7-3.9,1.4-5.7l0.1-0.4l0.2-0.4
		c0.7-1.7,1.7-3.3,2.8-4.8l0.2-0.3l0.2-0.3c1.1-1.4,2.4-2.7,3.8-3.9l0.3-0.3l0.3-0.2c1.4-1.1,3-2,4.6-2.8l0.4-0.2l0.4-0.2
		c1.6-0.7,3.4-1.3,5.1-1.6l0.4-0.1l0.4-0.1c1.3-0.2,3.1-0.4,4.8-0.4c0.4,0,0.8,0,1.2,0l0.6,0l0-0.6c0-0.6,0-1.2,0-1.8
		c0-0.6,0-1.1,0-1.7l0-0.6l0,0v-4.2l0,0l0-0.2c0-0.6,0-1.2,0-1.8c0-0.6,0-1.1,0-1.7L53.2,12.6z"/>
	<g>
		<polygon class="st1" points="3.6,48.3 4.8,43.5 4.2,39 5.7,39 4.4,38.4 5.8,38.5 4.5,37.9 6,38 4.6,37.4 7.7,32.8 8.7,27.4 
			10.1,27.8 9,26.8 10.4,27.4 9.3,26.4 10.6,27 9.5,26 13.6,22.6 15.9,17.7 17.1,18.5 16.3,17.3 17.4,18.2 16.6,17 17.8,17.9 
			17,16.6 21.7,14.4 25.1,10.3 26.1,11.4 25.6,10 26.5,11.1 25.9,9.8 26.9,10.9 26.4,9.5 31.5,8.5 35.7,5.3 36.5,6.6 36.3,5.1 
			37.2,6.4 37.2,4.9 42.5,5.1 47.3,3 47.7,4.4 47.9,3 48.2,4.4 48.3,2.9 48.6,4.4 48.8,2.9 49.2,4.3 50.3,3.4 48.9,4.2 50.3,4.7 
			48.9,5.6 50.3,6.5 48.9,7.1 50.3,7.7 49.6,8.5 50.3,7.6 48.9,8 50.3,8.3 48.8,10.1 50.1,12 49.5,12.8 50.3,11.9 48.9,12.6 
			50.3,13.1 48.9,14 50.3,14.9 48.9,15.5 50.3,16.1 49.6,16.8 50.3,16 48.9,16.3 50.3,16.7 48.8,18.4 50.1,20.3 49.5,21 50.3,20.2 
			48.9,20.9 50.3,21.5 48.9,21.7 49.7,22.7 47.7,21.4 46.2,23 45.7,21.7 45.6,23.1 45.2,21.8 45.3,23.2 42,22.6 39.6,25 38.8,23.8 
			39.1,25.2 38.4,24 38.8,25.4 35.4,25.5 33.7,28.5 32.6,27.5 33.3,28.8 32.2,27.8 33,29 29.7,30 28.7,33.3 27.4,32.6 28.4,33.7 
			27.1,33 28.2,34 25.2,35.9 25.1,39.4 23.7,39.1 24.9,39.9 23.5,39.6 24.8,40.3 22.4,43.1 23.2,46.6 21.7,46.7 23.1,47.2 
			21.6,47.3 22.3,48.3 13,46.9 		"/>
	</g>
	<g>
		<polygon class="st2" points="9.3,43.3 10.3,41.6 9.1,40.2 10.6,40.2 9.3,39.6 10.8,39.6 9.5,38.7 12.4,34.7 13.1,29.8 14.5,30.3 
			13.4,29.3 14.8,29.9 13.6,29 15,29.5 13.8,28.6 17.6,25.6 19.5,21.2 20.7,22 19.9,20.8 21.2,21.6 20.5,20.3 24.8,18.4 27.7,14.6 
			28.7,15.7 28.2,14.3 29.3,15.3 28.9,13.9 33.6,13.1 37.3,10.1 38,11.4 37.8,9.9 38.6,11.2 38.6,9.7 41.8,10.4 45.2,9 43.6,13.1 
			44.8,17.1 44.3,17.8 45,16.6 43.8,17.2 45.1,17.9 44.2,16.8 44.3,18.3 40.5,17.8 37.6,20.4 36.7,19.2 37,20.6 36.2,19.4 
			36.7,20.8 32.8,21.2 30.6,24.4 29.5,23.5 30.1,24.9 29,23.9 29.8,25.1 26.1,26.5 24.8,30.2 23.4,29.6 24.4,30.7 23.1,30 
			24.1,31.1 20.9,33.4 20.5,37.5 19,37.2 20.2,38.1 18.8,37.8 20,38.5 17.9,40.2 18.2,43.3 13.6,41.8 		"/>
	</g>
</g>
</svg>
