<?xml version="1.0" encoding="utf-8"?>
<!-- Generator: Adobe Illustrator 23.1.1, SVG Export Plug-In . SVG Version: 6.00 Build 0)  -->
<svg version="1.1" id="Layer_1" xmlns="http://www.w3.org/2000/svg" xmlns:xlink="http://www.w3.org/1999/xlink" x="0px" y="0px"
	 viewBox="0 0 46.4 46.4" width="46.4" height="46.4" style="enable-background:new 0 0 46.4 46.4;" xml:space="preserve">
<style type="text/css">
	.st0{fill:#76603A;}
	.st1{fill:#8E7347;}
	.st2{fill:#95794A;}
</style>
<g>
	<rect x="0" y="0" class="st0" width="46.4" height="46.4"/>
	<g>
		<polygon class="st1" points="44,2.2 43.4,5.3 43.1,8 44.1,10.8 44.3,13.5 43.1,16.2 43,18.9 43.3,21.6 43.1,24.3 42.9,27 
			44.7,29.8 44.8,32.5 44.2,35.2 43.6,37.9 44.3,40.6 42.8,42.6 40.8,43.2 38.1,44.5 35.4,42.2 32.7,42.3 30,43.4 27.3,43.5 
			24.6,43.9 21.9,44.5 19.1,43.8 16.4,42.5 13.7,44.1 11,42.6 8.3,43.8 5.6,44.2 2.7,43.5 1.7,40.6 2.2,37.9 2.7,35.2 3.1,32.5 
			2.3,29.8 3.5,27.1 3.4,24.4 2.2,21.6 2,18.9 2.7,16.2 3.3,13.5 1.9,10.8 1.8,8.1 3,5.3 2.1,1.9 5.6,3.2 8.3,3 11,3.5 13.7,3.2 
			16.4,2.4 19.1,2 21.8,2.2 24.5,3.4 27.3,3.1 30,3.4 32.7,3.6 35.4,3 38.1,2.1 40.9,3.4 		"/>
		<polygon class="st2" points="35.2,11 34.8,13.5 35.4,16.2 34.9,18.9 35.6,21.6 36.1,24.3 35.4,27 34.7,29.8 34.7,32.5 35.5,35.3 
			32.7,34.8 30,34.7 27.3,35.8 24.6,34.6 21.8,35.9 19.1,35.5 16.4,35.2 13.7,34.5 11,35.2 10.7,32.5 11.4,29.8 10.8,27.1 
			11.3,24.4 10.9,21.6 11.1,18.9 11.1,16.2 10.4,13.5 10.6,10.4 13.7,10.3 16.4,11.2 19.1,10.9 21.8,11.1 24.5,11.3 27.3,10.7 
			30,10.8 32.7,10.6 		"/>
	</g>
</g>
</svg>
