<?xml version="1.0" encoding="utf-8"?>
<!-- Generator: Adobe Illustrator 23.1.1, SVG Export Plug-In . SVG Version: 6.00 Build 0)  -->
<svg version="1.1" id="Layer_1" xmlns="http://www.w3.org/2000/svg" xmlns:xlink="http://www.w3.org/1999/xlink" x="0px" y="0px"
	 viewBox="0 0 57.1 57.2" style="enable-background:new 0 0 57.1 57.2;" width="57.1" height="57.2" xml:space="preserve">
<style type="text/css">
	.st0{fill:#5E843A;}
	.st1{fill:#4A6B32;}
	.st2{fill:#6E963E;}
	.st3{fill:#96BB4A;}
	.st4{fill:#626262;}
	.st5{fill:#466730;}
	.st6{fill:#729A3F;}
	.st7{fill:#5F5F5F;}
</style>
<g>
	<path class="st0" d="M56.9,14.1c0.4,1.6,0.2,3.2,0.2,4.7c-0.5,0.5-1,0.4-1.5,0.1c0.3,0.5,1.1-0.1,1.5,0.4c-0.1,1.4-0.2,2.8-0.2,4.2
		c0.1,1.8,0.3,3.7,0.2,5.5c-0.1,3,0,6-0.1,9.1c-0.1,1.6,0,3.2,0.1,4.8c0,0.6,0.1,1.2-0.3,1.7c-0.2,1-1.3,0.4-1.8,1
		c-0.5,0.2-1.1,0.4-1.6,0.6c0.1,0,0.3,0,0.4,0c0.6,0.2,1-0.1,1.4-0.5c0.5-0.5,1.1-0.8,1.5,0.1c0.4,1.6,0.2,3.2,0.2,4.7
		c-0.5,0.5-1.1,0.3-1.5,0.1c0.3,0.5,1.1-0.1,1.5,0.4c-0.2,1.2,0.3,2.6-0.3,3.8c-0.2,0.6-0.7,0.6-1.1,0.4c-1-0.4-1.9-0.2-2.8,0.2
		c-1.1,0.7-2.5,0.6-3.6,1.4c-0.1,0.1-0.4,0-0.6-0.1c-0.1,0-0.3,0-0.4,0c-1.9,0-3.9-0.2-5.8,0c-4.7,0.4-9.3,0.2-14,0.2
		c-0.9-0.1-1.7-0.5-2.6-0.7c-1-0.8-2.1-0.8-3.2-0.7c-1.9-1-3.6-0.4-5.3,0.6c-0.1,0.1-0.2,0.1-0.3,0.1c-0.6,0-1.3-0.1-1.6,0.6
		c-0.1,0.2-0.5,0.1-0.7-0.1c-0.1,0-0.3,0-0.4,0c-1.9,0-3.9-0.2-5.8,0c-2.5,0.5-5.1,0-7.7,0.2C0.2,57.2,0,56.9,0,56.3
		c0-1.5,0-3.1,0-4.6c0.3-0.1,0-0.2,0-0.3c0-10.5,0-21,0-31.5c0.3-0.1,0-0.2,0-0.3c0-2.8,0.1-5.5,0.1-8.3C0.1,8.1,0.2,4.9,0,1.6
		C0,0.3,0.6-0.3,1.8,0.1C2.7,0.4,3.5,0,4.3,0.1c9.2,0.1,18.4,0.1,27.6,0.1c4.5,0,9,0,13.5-0.1c3.6,0,7.2,0,10.7,0c0.8,0,1,0.1,1,1
		c-0.1,3.5,0,7,0,10.5c0,0.4,0.1,0.9-0.3,1.3c-0.2,1-1.3,0.4-1.8,1c-0.5,0.2-1.1,0.4-1.6,0.6c0.1,0,0.3,0,0.4,0
		c0.6,0.2,1-0.1,1.4-0.5C55.8,13.5,56.5,13.2,56.9,14.1z"/>
	<g>
		<path class="st0" d="M26.1,55.9c1,0.1,1.6,0.8,2.5,1.2c-4.2,0-8.5,0.1-12.8,0.1c-0.4,0-0.8,0.1-1.1-0.2c0.5-0.1,1-0.2,0.3-0.8
			c-0.2-0.1-0.6-0.2-0.3-0.5c0.2-0.3,0.5-0.3,0.8-0.1c0.7,0.6,1.3,0.3,2,0c1.6-0.8,3.3-1.6,5.1-0.5C23.8,54.9,24.9,55.4,26.1,55.9z"
			/>
		<path class="st0" d="M48.8,56.9c0.5-0.1,1-0.3,0.3-0.8c-0.2-0.1-0.6-0.2-0.3-0.5c0.2-0.2,0.5-0.3,0.7-0.2c0.9,0.8,1.7,0.2,2.5-0.2
			c1.6-0.8,3.1-1,4.8-0.3c0.4,0.5,0.2,1.2,0.3,1.8c0.1,0.4-0.3,0.4-0.6,0.4c-1.6,0-3.2,0.1-4.8-0.1C50.7,57,49.7,57.6,48.8,56.9z"/>
		<path class="st1" d="M54.9,45.3c0.1-0.2-0.3-0.8,0.4-0.7c0.5,0,1.1,0.3,1.6,0c0.3,0.4,0.5,0.8,0.1,1.2c-0.6-0.2-1.1,0-1.6,0.4
			c-0.4,0.4-0.9,0.6-1.4,0.3c-0.4-0.5-0.2-0.7,0.3-0.9C54.4,45.6,54.8,45.7,54.9,45.3z"/>
		<path class="st1" d="M54.9,13.5c0.1-0.2-0.3-0.8,0.4-0.7c0.5,0,1.1,0.3,1.6,0c0.3,0.4,0.5,0.8,0.1,1.2c-0.6-0.2-1.1,0-1.6,0.4
			c-0.4,0.4-0.9,0.6-1.4,0.3c-0.4-0.5-0.2-0.7,0.3-0.9C54.4,13.8,54.8,13.9,54.9,13.5z"/>
		<path class="st2" d="M42.6,56.9c0.3-0.3,0.7-0.5,1-0.4c1.6,0.4,3.3-0.3,4.8,0.4C46.5,57.3,44.5,57.2,42.6,56.9z"/>
		<path class="st2" d="M8.5,56.9c0.3-0.3,0.7-0.5,1-0.4c1.6,0.4,3.3-0.3,4.8,0.4C12.4,57.3,10.4,57.2,8.5,56.9z"/>
		<path class="st2" d="M57.1,51.2c-2.5-0.1-2.5-0.1-3.3-1.1c1.2,0.1,2.1,0.9,3.3,0.6C57.1,50.8,57.1,51,57.1,51.2z"/>
		<path class="st3" d="M57.1,19.4c-1.1-0.2-2.5,0.3-3.4-1.1c1.2,0.1,2.2,0.9,3.3,0.6C57.1,19,57.1,19.2,57.1,19.4z"/>
		<path class="st4" d="M0,19.6c0.1,0,0.3,0,0.4,0c0.5-0.2,0.7,0,1,0.3c0.1,0.2,0.1,0.3-0.1,0.4c-0.4,0.2-0.7,0.2-1-0.2
			C0.2,20,0.1,19.9,0,19.9C0,19.8,0,19.7,0,19.6z"/>
		<path class="st1" d="M0,51.4c0.1,0,0.3,0,0.4,0c0.5-0.2,0.7,0,1,0.3c0.1,0.2,0.1,0.3-0.1,0.4c-0.4,0.2-0.7,0.2-1-0.2
			c-0.1-0.1-0.2-0.2-0.3-0.2C0,51.6,0,51.5,0,51.4z"/>
		<path class="st3" d="M8.3,19.1C9,19.2,9.5,19.6,10,20c0.2,0.2,0.6,0.2,0.5,0.6c-0.1,0.3-0.4,0.5-0.7,0.5c-0.6,0.1-1.2,0-1.7-0.3
			c-0.7-0.5,0.3-0.9,0.1-1.4C8.2,19.3,8.2,19.2,8.3,19.1C8.2,19.1,8.3,19.1,8.3,19.1z"/>
		<path class="st1" d="M42.3,19.1c0.7,0.1,1.2,0.5,1.8,0.9c0.2,0.2,0.6,0.2,0.5,0.6c-0.1,0.3-0.4,0.5-0.7,0.5
			c-0.6,0.1-1.2,0-1.7-0.3c-0.7-0.5,0.3-0.9,0.1-1.4C42.3,19.3,42.3,19.2,42.3,19.1C42.3,19.1,42.3,19.1,42.3,19.1z"/>
		<path class="st1" d="M42.3,50.9c0.7,0.1,1.2,0.5,1.8,0.9c0.2,0.2,0.6,0.2,0.5,0.6c-0.1,0.3-0.4,0.5-0.7,0.5
			c-0.6,0.1-1.2,0-1.7-0.3c-0.7-0.5,0.3-0.9,0.1-1.4C42.3,51.1,42.3,51,42.3,50.9C42.3,50.9,42.3,50.9,42.3,50.9z"/>
		<path class="st3" d="M8.3,50.9C9,51,9.5,51.4,10,51.8c0.2,0.2,0.6,0.2,0.5,0.6c-0.1,0.3-0.4,0.5-0.7,0.5c-0.6,0.1-1.2,0-1.7-0.3
			c-0.7-0.5,0.3-0.9,0.1-1.4C8.2,51.1,8.2,51,8.3,50.9C8.2,50.9,8.3,50.9,8.3,50.9z"/>
		<path class="st3" d="M22,23.5c-0.4,0.3-0.9,1-1.3,0.9c-0.5-0.1-1.2-0.7-1.2-1.2c0-0.6,0.9-0.6,1.4-0.7
			C21.4,22.5,21.7,22.9,22,23.5z"/>
		<path class="st1" d="M54.8,22.5c0.6,0.1,1.1,0.4,1.1,0.9c0,0.7-0.9,0.7-1.3,1.1c-0.4-0.4-1.2-0.8-1.1-1.3
			C53.5,22.6,54.4,22.7,54.8,22.5z"/>
		<path class="st2" d="M31.6,18.3c0.9,0.4,2.2,0.1,2.8,1.3c0.1,0.1,0,0.2-0.1,0.3c-1.1,0-2.2-0.2-3-1.1
			C31.2,18.5,31.3,18.4,31.6,18.3z"/>
		<path class="st2" d="M31.6,50.1c0.9,0.4,2.2,0.1,2.8,1.3c0.1,0.1,0,0.2-0.1,0.3c-1.1,0.1-2.2-0.2-3-1.1
			C31.2,50.4,31.3,50.2,31.6,50.1z"/>
		<path class="st2" d="M26.3,24.4c-1-0.2-1.8-1.2-3-0.5c-0.2,0.1-0.7-0.2-0.6-0.6s0.4-0.3,0.7-0.2c1.1,0.1,2.1,0.5,2.9,1.1
			C26.4,24.2,26.4,24.3,26.3,24.4z"/>
		<path class="st3" d="M33.2,10.4c0.4,0.1,0.9,0.5,1,1c0.1,0.4-0.4,0.6-0.7,0.5c-0.4-0.1-1.1,0.1-0.9-0.8
			C32.8,10.8,32.5,10.4,33.2,10.4z"/>
		<path class="st1" d="M33.2,42.2c0.4,0.1,0.9,0.5,1,0.9c0.2,0.4-0.3,0.6-0.6,0.6c-0.4-0.1-1.1,0.1-0.9-0.7
			C32.8,42.7,32.4,42.2,33.2,42.2z"/>
		<path class="st1" d="M17.7,14.3c1.2-0.1,2.3-0.4,3.5-0.9c-0.4,0.9-1.2,0.9-1.7,1.3C19,15.3,18.5,13.8,17.7,14.3z"/>
		<path class="st1" d="M17.8,45.9c0.6,0,1.1,0,1.7-0.1c0.5-0.1,1.1-0.4,1.8-0.6c-0.4,0.9-1.2,0.9-1.7,1.3C19,47,18.4,45.9,17.8,45.9
			z"/>
		<path class="st1" d="M42.6,34.3c-0.4-0.3-0.5-0.8-0.7-1.2c-0.1-0.3,0.2-0.4,0.5-0.3c0.4,0.1,1,0.1,0.9,0.7
			C43.3,33.9,43,34.1,42.6,34.3z"/>
		<path class="st3" d="M9.3,33.4c-0.1,0.4-0.3,0.8-0.7,0.8C8,34.2,8,33.5,7.8,33.1c-0.1-0.4,0.3-0.4,0.6-0.3
			C8.8,32.8,9.3,32.9,9.3,33.4z"/>
		<path class="st3" d="M43.4,1.6c-0.1,0.4-0.3,0.8-0.7,0.8c-0.6,0-0.5-0.7-0.8-1.1c-0.2-0.3,0.2-0.4,0.4-0.4C42.8,1,43.3,1,43.4,1.6
			z"/>
		<path class="st3" d="M9.3,1.7C9.2,2,8.9,2.5,8.6,2.4C8,2.3,8,1.7,7.8,1.3C7.7,0.9,8.2,0.9,8.4,0.9C8.8,1,9.3,1.1,9.3,1.7z"/>
		<path class="st2" d="M21.9,48.4c-0.4,0-0.9-0.1-0.8-0.5c0.1-0.4,0.5-0.8,1-0.8c0.5,0,0.5,0.4,0.6,0.8
			C22.7,48.5,22.2,48.3,21.9,48.4z"/>
		<path class="st2" d="M22,16.6c-0.5,0-1-0.1-0.9-0.6c0.1-0.4,0.5-0.8,1-0.8c0.5,0,0.5,0.5,0.5,0.9C22.7,16.7,22.2,16.5,22,16.6z"/>
		<path class="st3" d="M54.9,13.5c0.2,0.8-1.3,0.4-1,1.3c-0.8,0.2-1.3-0.7-2.1-0.6C52.8,14.1,53.9,14,54.9,13.5z"/>
		<path class="st2" d="M54.9,45.3c0.2,0.8-1.3,0.4-1,1.3c-0.8,0.2-1.3-0.7-2.1-0.6C52.8,45.9,53.9,45.8,54.9,45.3z"/>
		<path class="st2" d="M7.6,27.8C6.8,27.5,6,27.9,5.2,28c-0.3,0-0.7,0-0.7-0.4c0-0.3,0.4-0.3,0.6-0.3C6,27.5,6.9,27.1,7.6,27.8z"/>
		<path class="st2" d="M50.3,9.5c-0.4,0-0.9,0.2-1.3,0.1c-0.4,0-0.5-0.4-0.5-0.7c0-0.2,0-0.4,0.2-0.4C49,8.5,49.3,8.5,49,9
			c0.4,0.1,0.9,0.2,1.3,0.3C50.3,9.4,50.3,9.5,50.3,9.5z"/>
		<path class="st2" d="M16.2,9.5c-0.4,0-0.9,0.2-1.3,0.1c-0.4,0-0.5-0.4-0.6-0.7c0-0.2,0-0.4,0.3-0.5C15,8.5,15.2,8.6,15,9
			c0.4,0.1,0.8,0.2,1.3,0.3C16.2,9.4,16.2,9.5,16.2,9.5z"/>
		<path class="st2" d="M16.3,41.3c-0.4,0.1-0.7,0.1-1.1,0.2c-0.5,0.1-0.7-0.2-0.8-0.6c-0.2-0.5,0.3-0.8,0.7-0.6
			c0.3,0.2-0.3,0.3,0,0.4c0.2,0.1,0.5,0.1,0.7,0.2C15.9,41.1,16.2,41,16.3,41.3z"/>
		<path class="st2" d="M50.3,41.3c-0.4,0.1-0.9,0.2-1.3,0.1c-0.4,0-0.5-0.4-0.6-0.7c0-0.2,0-0.4,0.3-0.4c0.4,0,0.6,0.1,0.3,0.5
			c0.4,0.1,0.9,0.2,1.3,0.3C50.3,41.2,50.3,41.3,50.3,41.3z"/>
		<path class="st1" d="M41.6,27.8c-1-0.6-2,0.8-3-0.2C39.6,27.5,40.6,27.1,41.6,27.8z"/>
		<path class="st1" d="M19.1,31.8c-0.8,0-1.4,0-2,0c-0.3,0-0.7-0.3-0.5-0.7c0.1-0.4,0.4,0,0.6,0C17.8,31.4,18.4,31.3,19.1,31.8z"/>
		<path class="st3" d="M31.6,18.3c-0.1,0.2-0.2,0.3-0.3,0.5c-0.5,0-1,0.2-1.5-0.2c0,0,0-0.3,0.1-0.4C30.4,17.7,31,18.1,31.6,18.3
			C31.5,18.3,31.6,18.3,31.6,18.3z"/>
		<path class="st2" d="M31.6,50.1c-0.1,0.2-0.2,0.3-0.3,0.5c-0.5,0-1,0.2-1.5-0.2c0-0.1,0-0.3,0.1-0.4C30.4,49.5,31,49.9,31.6,50.1
			C31.5,50.1,31.6,50.1,31.6,50.1z"/>
		<path class="st2" d="M26.1,55.9c-1.2-0.3-2.4-0.6-3.5-0.9C23.9,54.6,25.1,54.9,26.1,55.9z"/>
		<path class="st1" d="M53,31.8c-0.6,0-1.2,0-1.8,0c-0.3,0-0.7-0.3-0.5-0.7c0.1-0.4,0.4,0,0.6,0C51.8,31.4,52.5,31.3,53,31.8z"/>
		<path class="st2" d="M18.7,21.5c0.7,0.1,1.4,0.1,2.1,0.2C19.7,22.5,19.3,22.5,18.7,21.5z"/>
		<path class="st3" d="M52.8,21.5c0.7,0.1,1.4,0.1,2.3,0.2C53.4,22.5,53.4,22.5,52.8,21.5z"/>
		<path class="st1" d="M14.5,27.2c0.4,0.1,0.7,0.1,1.1,0.2c0.3,0,0.8,0,0.7,0.5c-0.1,0.4-0.6,0.2-0.9,0.2
			C14.9,27.9,14.6,27.7,14.5,27.2z"/>
		<path class="st2" d="M48.4,27.1c0.4,0.1,0.6,0.2,0.8,0.2c0.4,0.1,0.9-0.2,1.1,0.4c0.1,0.2,0,0.3-0.2,0.4c-0.5,0.1-0.9,0-1.2-0.3
			C48.7,27.6,48.6,27.5,48.4,27.1z"/>
		<path class="st2" d="M52.7,53.3c0.8,0.1,1.5,0.2,2.3,0.2C53.5,54.3,53.4,54.3,52.7,53.3z"/>
		<path class="st2" d="M23.8,16.8c1-0.1,1.4,0.7,1.9,1.3c-0.5,0.3-1.1,0.1-1.1-0.3C24.5,17.2,24,17.3,23.8,16.8z"/>
		<path class="st2" d="M23.8,48.7c1-0.1,1.4,0.7,1.9,1.3c-0.5,0.2-1.1,0.1-1.1-0.3C24.5,49,24,49.1,23.8,48.7z"/>
		<path class="st1" d="M46.7,18.1c0.7,0.2,1.1,0.4,1.5,0.5c0.6,0.1,0.2,0.4,0.1,0.6c0,0.3-0.4,0.5-0.5,0.2
			C47.6,18.9,47,18.9,46.7,18.1z"/>
		<path class="st1" d="M12.8,50c0.5,0.2,0.9,0.3,1.3,0.4c0.1,0,0.4,0,0.3,0.2c-0.1,0.2-0.2,0.5-0.3,0.6c-0.1,0.1-0.4,0.1-0.4-0.1
			C13.6,50.6,12.8,50.7,12.8,50z"/>
		<path class="st2" d="M26.3,24.4c0-0.1,0-0.2,0-0.3c0.8,0,1.1,1,1.8,1.2c-0.2,0-0.5,0-0.7,0.1c-0.5,0.1-1.2,0.4-0.7-0.6
			C26.8,24.7,26.4,24.5,26.3,24.4z"/>
		<path class="st1" d="M2.9,26.5c-0.6,0.7-1.2,1-2.3,0.9C1.5,27.1,1.9,26.4,2.9,26.5z"/>
		<path class="st5" d="M37,26.5c-0.6,0.7-1.2,1-1.9,0.9C35.7,27.1,36,26.3,37,26.5z"/>
		<path class="st5" d="M31.9,27.4c0.6-0.2,1.2-0.5,2-0.4C33.2,27.7,32.5,27.6,31.9,27.4z"/>
		<path class="st1" d="M46.9,50c0.5,0.1,0.9,0.3,1.3,0.4c0.6,0.1,0.2,0.4,0.1,0.6c0,0.3-0.5,0.4-0.5,0.2
			C47.7,50.6,46.8,50.7,46.9,50z"/>
		<path class="st5" d="M31.5,28.5c-0.9,0.3-0.9,0.3-2.2,0.2C30.1,28.1,30.2,28.1,31.5,28.5z"/>
		<path class="st2" d="M12.7,18.2c0.6,0.2,1,0.3,1.4,0.4c0.6,0.1,0.1,0.5,0.1,0.6c0,0.3-0.5,0.4-0.5,0.2
			C13.6,18.8,12.8,18.9,12.7,18.2z"/>
		<path class="st2" d="M47.8,29.9c0.7-0.1,1.2-0.1,1.8-0.2C48.5,30.9,48.5,30.9,47.8,29.9z"/>
		<path class="st2" d="M13.8,29.9c0.7-0.1,1.2-0.1,1.8-0.2C14.4,30.9,14.4,30.9,13.8,29.9z"/>
		<path class="st3" d="M32.1,13.4c-1,0.3-2,0.2-3,0.2c0-0.1,0-0.2,0-0.3C30.1,13.3,31.1,13.3,32.1,13.4z"/>
		<path class="st1" d="M5.1,13.6c0.4,0.2,0.8,0.3,1.1,0.4c0.2,0.1,0.5,0.2,0.3,0.5c-0.1,0.2-0.4,0.3-0.5,0.1
			C5.7,14.3,5,14.3,5.1,13.6z"/>
		<path class="st3" d="M39.1,13.6c0.2,0,0.3,0,0.4,0.1c0.4,0.3,1,0.2,1.2,0.7c0,0-0.2,0.2-0.2,0.2C39.8,14.6,39.3,14.3,39.1,13.6z"
			/>
		<path class="st3" d="M39.1,45.4c0.4,0.2,0.8,0.3,1.1,0.4c0.2,0.1,0.6,0.2,0.4,0.5c-0.1,0.2-0.4,0.2-0.7,0
			C39.6,46.1,39.1,46,39.1,45.4z"/>
		<path class="st3" d="M5,45.4c0.2,0.1,0.3,0.1,0.4,0.1c0.4,0.3,1,0.1,1.2,0.7c0,0.1-0.2,0.2-0.2,0.2C5.8,46.3,5.2,46.2,5,45.4z"/>
		<path class="st1" d="M32.1,45.4c-1,0-2,0-3,0c0-0.1,0-0.2,0-0.2c1,0,2,0,3,0C32.1,45.2,32.1,45.3,32.1,45.4z"/>
		<path class="st2" d="M3.3,31.7c0-0.1,0-0.2,0-0.2c0.5-0.3,1.2-0.5,1.7-0.2c0.4,0.2,0,0.5-0.7,0.5C4,31.7,3.7,31.7,3.3,31.7z"/>
		<path class="st2" d="M22.3,0.8c0.7-0.2,1-0.7,1.4-0.3c0.1,0.1,0.1,0.5,0,0.6C23.3,1.5,23,1.2,22.3,0.8z"/>
		<path class="st2" d="M24.1,53.9c0.6-0.3,1.3-0.2,1.9,0C25.4,54.1,24.8,54.3,24.1,53.9z"/>
		<path class="st1" d="M18.6,43.4c0.6-0.3,1.2-0.4,1.9,0.3C19.7,43.7,19.2,43.8,18.6,43.4z"/>
		<path class="st3" d="M54.4,43.7c-0.6-0.1-1.2,0.2-1.8-0.2C53.5,43,53.5,43,54.4,43.7z"/>
		<path class="st6" d="M42.3,19.1c0,0.1,0,0.2,0,0.2c-0.4,0-0.8,0-1.2,0c0.5-0.3,0.6-1.2,1.3-0.9C42.7,18.5,42.3,18.9,42.3,19.1z"/>
		<path class="st6" d="M8.3,19.1c0,0.1,0,0.2,0,0.2c-0.4,0-0.8,0-1.2,0c0.5-0.3,0.6-1.2,1.3-0.9C8.6,18.5,8.3,18.9,8.3,19.1z"/>
		<path class="st1" d="M23.9,22c0.9-0.2,1.5-0.2,2.1,0.1C25.4,22.2,24.8,22.5,23.9,22z"/>
		<path class="st6" d="M42.3,50.9c0,0.1,0,0.2,0,0.2c-0.4,0-0.8,0-1.2,0c0.5-0.3,0.6-1.2,1.3-0.9C42.7,50.3,42.3,50.7,42.3,50.9z"/>
		<path class="st2" d="M18.3,11.6c0.9-0.3,1.5-0.3,2.2,0.3C19.7,11.8,19.2,12,18.3,11.6z"/>
		<path class="st6" d="M8.3,50.9c0,0.1,0,0.2,0,0.2c-0.4,0-0.8,0-1.2,0c0.5-0.3,0.6-1.2,1.3-0.9C8.6,50.3,8.3,50.7,8.3,50.9z"/>
		<path class="st2" d="M22.5,32.7c0.5-0.3,0.8-0.7,1.2-0.4c0.1,0.1,0.1,0.6,0,0.7C23.3,33.2,22.9,33.1,22.5,32.7z"/>
		<path class="st5" d="M37.4,31.7c0.5-0.5,1.1-0.6,1.7-0.4c0.4,0.1,0.1,0.5-0.5,0.5C38.2,31.7,37.8,31.7,37.4,31.7z"/>
		<path class="st2" d="M54.4,11.8c-0.6-0.1-1.2,0.2-1.8-0.2C53.5,11.2,53.5,11.2,54.4,11.8z"/>
		<path class="st1" d="M3.7,37.8c0.6-0.1,1.4-0.5,1.4,0.7C4.4,38.7,4.1,38,3.7,37.8z"/>
		<path class="st2" d="M39.1,38.5c-0.7,0.1-1-0.4-1.4-0.6C38.8,37.5,38.8,37.5,39.1,38.5z"/>
		<path class="st2" d="M16,39.4c0.6-0.4,1.2-0.3,1.8,0.1C17.1,39.9,16.6,39.5,16,39.4z"/>
		<path class="st3" d="M51.8,39.5c-0.7,0.3-1.2,0.1-1.8-0.1C50.9,39,50.9,39,51.8,39.5z"/>
		<path class="st2" d="M5.1,6.6C4.4,6.8,4.1,6.2,3.7,6C4.7,5.7,4.7,5.7,5.1,6.6z"/>
		<path class="st1" d="M37.5,5.9c0.9-0.2,1.6-0.4,1.7,0.7C38.5,6.8,38.2,6.2,37.5,5.9z"/>
		<path class="st2" d="M25.5,19.9c-0.7-0.4-1.3-0.2-2.1-0.3C24.3,19,24.9,18.6,25.5,19.9z"/>
		<path class="st1" d="M17.8,7.7C17.1,8,16.6,7.8,16,7.5C16.6,7.3,17.1,7.2,17.8,7.7z"/>
		<path class="st2" d="M51.9,7.7c-0.8,0.2-1.3,0.1-1.8-0.2C50.6,7.3,51.2,7.2,51.9,7.7z"/>
		<path class="st3" d="M23.4,51.5c0.9-0.8,1.6-1,2.1,0.1C24.9,51.4,24.3,51.4,23.4,51.5z"/>
		<path class="st1" d="M49,46.7c-0.6,0.2-0.3,1.3-1.2,1C47.9,47.1,48,46.5,49,46.7z"/>
		<path class="st2" d="M25.4,38.3c-0.8,0-1.2-0.4-1.8-1C24.4,37.4,24.9,37.6,25.4,38.3z"/>
		<path class="st2" d="M3.2,14.5c-0.7,0.3-1,0.9-1.9,0.6C1.9,14.6,2.2,14.2,3.2,14.5z"/>
		<path class="st3" d="M37,46.4c-0.4,0.2-0.7,0.8-1.6,0.6C35.9,46.4,36.3,46.1,37,46.4z"/>
		<path class="st3" d="M42.4,36.2c0.5-0.8,1.2-0.3,2.1-0.3C43.6,36.5,42.9,36.1,42.4,36.2z"/>
		<path class="st3" d="M35.4,15.1c0.5-0.4,0.9-0.9,1.8-0.6C36.6,14.8,36.3,15.4,35.4,15.1z"/>
		<path class="st5" d="M30.9,35c0.6-0.3,1-0.6,1.5-0.2c0.1,0.1,0.2,0.3,0,0.4C31.9,35.4,31.5,35.2,30.9,35z"/>
		<path class="st3" d="M34.2,51.7c0-0.1,0.1-0.2,0.1-0.3c0.5-0.2,0.8-0.2,1.1,0.3c0.1,0.2,0.1,0.3-0.1,0.4
			C34.9,52.3,34.5,52.1,34.2,51.7z"/>
		<path class="st7" d="M10.1,36.2c-0.6,0-1.2,0-1.9,0c0.6-0.8,1.3-0.2,1.9-0.3C10.1,36,10.1,36.1,10.1,36.2z"/>
		<path class="st1" d="M34.2,19.9c0-0.1,0.1-0.2,0.1-0.3c0.5-0.2,0.8-0.2,1.1,0.3c0.1,0.2,0.1,0.3-0.1,0.4
			C34.9,20.5,34.5,20.3,34.2,19.9z"/>
		<path class="st2" d="M23.6,5.4c0.8,0.2,1.4,0.3,1.7,1C24.5,6.5,24.2,6.1,23.6,5.4z"/>
		<path class="st2" d="M44.1,4.4c-0.6,0-1.2,0-1.9,0c0.7-0.8,1.3-0.2,1.9-0.3C44.1,4.2,44.1,4.3,44.1,4.4z"/>
		<path class="st5" d="M8,4.5c0.8-0.8,1.4-0.4,2-0.1C9.5,4.4,8.9,4.5,8,4.5z"/>
		<path class="st2" d="M30.9,3.2c0.6-0.4,1-0.6,1.4-0.3c0.1,0.1,0.2,0.3,0,0.4C31.9,3.6,31.5,3.4,30.9,3.2z"/>
		<path class="st2" d="M1.3,46.9c0.6-0.4,0.9-0.9,1.8-0.5C2.5,46.6,2.2,47.2,1.3,46.9z"/>
		<path class="st1" d="M47,9.2c-0.2,0.6-0.6,0.8-1.2,0.8c-0.1,0-0.2-0.2-0.2-0.2C45.9,9.2,46.6,9.7,47,9.2z"/>
		<path class="st2" d="M13.1,8.9c-0.4,0.9-0.8,1.1-1.3,1.1c-0.1,0-0.2-0.2-0.2-0.2C11.9,9.2,12.5,9.6,13.1,8.9z"/>
		<path class="st2" d="M47.1,41c-0.3,0.7-0.8,1-1.3,0.8c-0.4-0.2-0.1-0.5,0.2-0.5C46.4,41.3,46.6,41.1,47.1,41z"/>
		<path class="st1" d="M13,41c-0.3,0.7-0.8,1-1.3,0.8c-0.4-0.2-0.1-0.5,0.2-0.5C12.3,41.3,12.5,41.1,13,41z"/>
	</g>
</g>
</svg>
