<?xml version="1.0" encoding="utf-8"?>
<!-- Generator: Adobe Illustrator 23.1.1, SVG Export Plug-In . SVG Version: 6.00 Build 0)  -->
<svg version="1.1" id="Layer_1" xmlns="http://www.w3.org/2000/svg" xmlns:xlink="http://www.w3.org/1999/xlink" x="0px" y="0px"
	 viewBox="0 0 46.5 46.5" width="46.5" height="46.5" style="enable-background:new 0 0 46.5 46.5;" xml:space="preserve">
<style type="text/css">
	.st0{fill:#6C6D70;}
	.st1{fill:#D4D5D6;}
	.st2{fill:#B9BBBC;}
	.st3{fill:#A3A5A8;}
	.st4{fill:#86898A;}
	.st5{fill:#626568;}
	.st6{fill:#6C756E;}
	.st7{fill:#C5C6C8;}
	.st8{fill:#8A8C8F;}
	.st9{fill:#959699;}
	.st10{fill:#AFB0B2;}
	.st11{fill:#A1A2A5;}
	.st12{fill:#767679;}
	.st13{fill:#BFC0C2;}
	.st14{fill:#A5A7AA;}
	.st15{fill:#8D9092;}
</style>
<g>
	<g>
		<rect x="0" y="0" class="st0" width="46.4" height="46.4"/>
		<g>
			<polygon class="st1" points="44,2.2 43.4,5.4 43.1,8.1 44.1,10.8 44.3,13.5 43,16.2 43,18.9 43.3,21.7 43,24.4 42.9,27.1 
				44.7,29.8 44.8,32.5 44.2,35.2 43.6,37.9 44.2,40.7 42.8,42.6 40.8,43.2 38.1,44.6 35.4,42.2 32.7,42.3 30,43.4 27.3,43.6 
				24.6,44 21.8,44.6 19.1,43.9 16.4,42.6 13.7,44.1 11,42.6 8.3,43.8 5.5,44.3 2.7,43.6 1.7,40.7 2.2,38 2.7,35.3 3.1,32.5 
				2.2,29.8 3.5,27.1 3.4,24.4 2.2,21.7 2,19 2.7,16.3 3.3,13.5 1.9,10.8 1.8,8.1 3,5.4 2.1,1.9 5.5,3.2 8.2,3.1 11,3.6 13.7,3.3 
				16.4,2.4 19.1,2 21.8,2.3 24.5,3.4 27.2,3.1 30,3.4 32.7,3.7 35.4,3 38.1,2.1 40.9,3.5 			"/>
			<polygon class="st2" points="35.2,11.1 34.8,13.5 35.4,16.2 34.9,19 35.6,21.7 36.1,24.4 35.4,27.1 34.7,29.8 34.7,32.5 
				35.5,35.3 32.7,34.9 30,34.8 27.3,35.9 24.5,34.6 21.8,35.9 19.1,35.6 16.4,35.3 13.7,34.5 10.9,35.3 10.7,32.5 11.4,29.8 
				10.8,27.1 11.3,24.4 10.9,21.7 11.1,19 11.1,16.3 10.3,13.5 10.6,10.4 13.7,10.3 16.4,11.2 19.1,10.9 21.8,11.1 24.5,11.4 
				27.2,10.7 30,10.9 32.7,10.7 			"/>
		</g>
	</g>
	<g>
		<path class="st3" d="M21.1,39.8c0.5,0.1,1,0.2,1.4,0.4c0.5,0.2,1.1,0.2,1.5,0.6c0.4,0.4,0.7,0.9,0.9,1.4c0.2,0.5-0.2,1.1-0.3,1.6
			c-0.1,0.5-0.1,1.1-0.4,1.5c-0.3,0.3-0.8,0.7-1.3,0.9c-0.4,0.2-1-0.1-1.5,0c-0.5,0-0.9-0.3-1.4-0.4c-0.5-0.1-0.9-0.2-1.3-0.4
			c-0.5-0.2-1.1-0.1-1.5-0.5c-0.4-0.4-0.4-0.9-0.6-1.4c-0.2-0.5-0.8-1-0.7-1.5c0.1-0.5,0.7-0.8,1.1-1.2c0.3-0.3,0.9-0.3,1.3-0.5
			c0.4-0.2,0.8-0.8,1.3-0.8C20.1,39.4,20.6,39.7,21.1,39.8z"/>
		<path class="st4" d="M45.4,18.1c-0.6,0.9-1.5,1.3-2.3,1.7c-1,0.4-2,0.8-2.8,0.3c-0.8-0.5-1.2-1.6-1.2-2.7c0-0.9,0.3-1.9,0.9-2.8
			c0.6-0.9,1.4-1.3,2.3-1.7c1-0.4,2-0.9,2.8-0.4c0.8,0.5,0.7,1.7,0.8,2.7C45.9,16.2,46,17.2,45.4,18.1z"/>
		<path class="st4" d="M45.7,37.6c-0.6,0.9-1.5,1.3-2.3,1.7c-1,0.4-2,0.8-2.8,0.3c-0.8-0.5-1.2-1.6-1.2-2.7c0-0.9,0.3-1.9,0.9-2.8
			c0.6-0.9,1.4-1.3,2.3-1.7c1-0.4,2-0.9,2.8-0.4c0.8,0.5,0.7,1.7,0.8,2.7C46.1,35.7,46.3,36.7,45.7,37.6z"/>
		<path class="st4" d="M33.6,34.4c-0.6,0.9-1.5,1.3-2.3,1.7c-1,0.4-2,0.8-2.8,0.3c-0.8-0.5-1.2-1.6-1.2-2.7c0-0.9,0.3-1.9,0.9-2.8
			c0.6-0.9,1.4-1.3,2.3-1.7c1-0.4,2-0.9,2.8-0.4c0.8,0.5,0.7,1.7,0.8,2.7C34,32.5,34.2,33.5,33.6,34.4z"/>
		<path class="st4" d="M36.7,13.1c-0.6,0.9-1.5,1.3-2.3,1.7c-1,0.4-2,0.8-2.8,0.3c-0.8-0.5-1.2-1.6-1.2-2.7c0-0.9,0.3-1.9,0.9-2.8
			c0.6-0.9,1.4-1.3,2.3-1.7c1-0.4,2-0.9,2.8-0.4c0.8,0.5,0.7,1.7,0.8,2.7C37.1,11.2,37.2,12.2,36.7,13.1z"/>
		<path class="st4" d="M29.5,30.6c-0.6,0.9-1.5,1.3-2.3,1.7c-1,0.4-2,0.8-2.8,0.3c-0.8-0.5-1.2-1.6-1.2-2.7c0-0.9,0.3-1.9,0.9-2.8
			c0.6-0.9,1.4-1.3,2.3-1.7c1-0.4,2-0.9,2.8-0.4c0.8,0.5,0.7,1.7,0.8,2.7C29.9,28.7,30,29.7,29.5,30.6z"/>
		<path class="st4" d="M17.9,27.7c-0.6,0.9-1.5,1.3-2.3,1.7c-1,0.4-2,0.8-2.8,0.3c-0.8-0.5-1.2-1.6-1.2-2.7c0-0.9,0.3-1.9,0.9-2.8
			c0.6-0.9,1.4-1.3,2.3-1.7c1-0.4,2-0.9,2.8-0.4c0.8,0.5,0.7,1.7,0.8,2.7C18.4,25.8,18.5,26.8,17.9,27.7z"/>
		<path class="st5" d="M29,22.1c0.8,0.9,1.5,1.7,1.6,2.6c0.2,1.2,0,2.3-0.8,3c-0.8,0.7-2,0.8-3.1,0.5c-0.9-0.3-1.6-1.2-2.4-2.1
			c-0.8-0.9-1.9-1.7-2-2.6c-0.2-1.2,0.7-2.1,1.5-2.8c0.8-0.7,1.8-1.2,2.9-0.9C27.7,20.1,28.3,21.2,29,22.1z"/>
		<path class="st6" d="M40.4,2c0.6,0.7,1.1,1.2,1.2,2c0.2,0.9,0,1.7-0.6,2.2s-1.5,0.6-2.3,0.4C38,6.4,37.5,5.7,36.9,5
			c-0.6-0.7-1.4-1.2-1.5-2c-0.2-0.9,0.5-1.6,1.1-2.1c0.6-0.5,1.3-0.9,2.2-0.7C39.4,0.5,39.8,1.3,40.4,2z"/>
		<path class="st5" d="M18.7,12.1c0.3,1.2,0.5,2.2,0.2,3.1c-0.4,1.1-1,2.1-2.1,2.3c-1,0.2-2.2-0.2-3-1c-0.7-0.7-0.9-1.8-1.1-3
			c-0.3-1.2-0.9-2.3-0.6-3.2c0.4-1.1,1.6-1.5,2.6-1.8c1-0.2,2.1-0.3,3,0.6C18.4,9.8,18.4,11,18.7,12.1z"/>
		<path class="st5" d="M13.7,31.9c0.5,1.1,0.9,2,0.8,3c-0.1,1.2-0.6,2.2-1.5,2.7s-2.2,0.3-3.1-0.4c-0.8-0.5-1.2-1.6-1.7-2.7
			c-0.5-1.1-1.3-2.1-1.2-3.1c0.1-1.2,1.3-1.8,2.2-2.3s2-0.7,3-0.1C12.9,29.6,13.2,30.8,13.7,31.9z"/>
		<path class="st5" d="M37.1,40.8c-0.8,0.8-1.6,1.6-2.5,1.8c-1.2,0.3-2.3,0.2-3-0.5c-0.7-0.7-1-1.9-0.7-3.1c0.2-0.9,1.1-1.7,1.9-2.5
			c0.8-0.8,1.5-2,2.4-2.2c1.2-0.3,2.2,0.6,2.9,1.3c0.7,0.7,1.4,1.7,1.1,2.8C39,39.3,38,39.9,37.1,40.8z"/>
		<path class="st5" d="M32.6,10.2c-0.9,0.8-1.7,1.4-2.6,1.6c-1.2,0.2-2.3,0-3-0.8c-0.7-0.8-0.8-2-0.5-3.1c0.3-0.9,1.2-1.6,2.1-2.4
			c0.9-0.8,1.7-1.9,2.6-2C32.4,3.3,33.3,4.3,34,5c0.7,0.8,1.2,1.8,0.9,2.9C34.5,8.9,33.5,9.5,32.6,10.2z"/>
		<path class="st5" d="M6.9,22.8c-0.6,1-1,2-1.9,2.5c-1,0.6-2.2,0.9-3.1,0.4s-1.5-1.6-1.6-2.8c0-1,0.5-1.9,1.1-3
			c0.6-1,0.9-2.3,1.7-2.8c1-0.6,2.2-0.1,3.1,0.4s1.8,1.2,1.9,2.4C8.2,20.9,7.4,21.8,6.9,22.8z"/>
		<path class="st3" d="M21.7,6.9c1.1-0.4,2.4-0.6,3.4-0.4c1.2,0.2,2.2,1.2,2.5,2.2c0.4,1,0,2.1-0.7,3c-0.6,0.8-1.6,1.1-2.7,1.6
			s-2.1,1.1-3.1,0.9C20,14,19.4,13,19,12s-0.7-2.1,0-3.1C19.6,8.2,20.6,7.3,21.7,6.9z"/>
		<path class="st7" d="M32.2,0.9c0.7-0.4,1.7-0.7,2.4-0.7c0.9,0,1.7,0.6,2.1,1.3c0.4,0.7,0.2,1.5-0.2,2.3c-0.3,0.6-1,1-1.8,1.5
			c-0.7,0.4-1.4,1-2.1,1c-0.9,0-1.4-0.7-1.8-1.3c-0.4-0.7-0.7-1.5-0.3-2.2C30.9,2.1,31.5,1.3,32.2,0.9z"/>
		<path class="st7" d="M15.5,7.5c0.9,0,1.8,0.3,2.4,0.7c0.7,0.5,1.1,1.5,1,2.2s-0.7,1.4-1.4,1.8c-0.6,0.3-1.4,0.3-2.3,0.2
			c-0.9,0-1.7,0.1-2.3-0.3c-0.7-0.5-0.8-1.3-0.8-2.1s0.2-1.6,1-2C13.8,7.7,14.7,7.4,15.5,7.5z"/>
		<path class="st3" d="M20.7,32.6c0.9-0.8,2.1-1.3,3.1-1.5c1.2-0.2,2.4,0.4,3.1,1.2c0.7,0.8,0.7,2,0.3,3.1c-0.3,0.9-1.1,1.6-2,2.3
			s-1.7,1.7-2.6,1.8c-1.2,0.2-2-0.6-2.7-1.4c-0.7-0.8-1.3-1.8-0.9-2.9C19.1,34.5,19.8,33.4,20.7,32.6z"/>
		<path class="st3" d="M8.1,21.6C8.9,20.7,10,20,11,19.8c1.2-0.3,2.5,0.1,3.2,0.8s0.9,1.9,0.7,3.1c-0.2,1-0.9,1.7-1.7,2.6
			s-1.4,1.9-2.4,2.2c-1.2,0.3-2.1-0.3-2.9-1c-0.8-0.7-1.5-1.6-1.3-2.8C6.8,23.7,7.3,22.5,8.1,21.6z"/>
		<path class="st3" d="M1.8,9.4c0.8-0.9,1.9-1.6,2.9-1.8c1.2-0.3,2.5,0.1,3.2,0.8s0.9,1.9,0.7,3.1c-0.2,1-0.9,1.7-1.7,2.6
			S5.3,16,4.4,16.2c-1.2,0.3-2.1-0.3-2.9-1S0,13.6,0.2,12.4C0.4,11.5,1,10.3,1.8,9.4z"/>
		<path class="st3" d="M1.8,39.2c0.8-0.9,1.9-1.6,2.9-1.8c1.2-0.3,2.5,0.1,3.2,0.8s0.9,1.9,0.7,3.1c-0.2,0.9-0.9,1.7-1.7,2.6
			S5.3,45.7,4.4,46c-1.2,0.3-2.1-0.3-2.9-1S0,43.4,0.2,42.2C0.4,41.2,1,40.1,1.8,39.2z"/>
		<path class="st3" d="M4,0.7c1.1-0.4,2.4-0.6,3.4-0.4c1.2,0.2,2.2,1.2,2.5,2.2c0.4,1,0,2.1-0.7,3C8.6,6.2,7.6,6.6,6.5,7
			S4.4,8.1,3.4,7.9C2.2,7.7,1.6,6.7,1.2,5.8s-0.7-2.1,0-3.1C1.9,1.9,2.9,1.1,4,0.7z"/>
		<path class="st3" d="M39.6,38.3c1.1-0.4,2.4-0.6,3.4-0.4c1.2,0.2,2.2,1.2,2.6,2.2c0.4,1,0,2.1-0.7,3.1c-0.6,0.8-1.6,1.1-2.7,1.6
			C41,45,40,45.7,39,45.5c-1.2-0.2-1.8-1.2-2.2-2.2c-0.4-1-0.7-2.1,0-3.1C37.5,39.5,38.5,38.7,39.6,38.3z"/>
		<path class="st8" d="M15.4,36.4c1.1,0.3,2.2,1.1,2.9,1.8c0.8,0.9,1,2.3,0.7,3.3c-0.3,1-1.3,1.6-2.5,1.9c-0.9,0.2-1.9-0.1-3.1-0.4
			s-2.3-0.5-3-1.2c-0.8-0.9-0.6-2-0.3-3c0.3-1,0.8-2.1,2-2.4C13,36.1,14.3,36.1,15.4,36.4z"/>
		<path class="st9" d="M44.7,6.4C44.2,7,44,7.8,43.5,8.2c-0.6,0.4-1.4,0.4-2,0.5c-0.8,0.1-1.6,0.5-2.2,0.1c-0.6-0.4-0.5-1.4-0.6-2.1
			c-0.1-0.7-0.1-1.3,0.1-2c0.2-0.7,0.5-1.2,0.9-1.8c0.4-0.6,0.5-1.6,1.1-2c0.6-0.4,1.5-0.8,2.1-0.9c0.8-0.1,1.7,0.1,2.3,0.5
			c0.6,0.4,1.1,1.2,1.3,2c0.1,0.7-0.1,1.5-0.3,2.3C45.9,5.4,45.1,5.8,44.7,6.4z"/>
		<path class="st9" d="M8.2,12.9c-0.7-0.3-1.5-0.3-2-0.7c-0.6-0.5-0.7-1.2-1-1.8C4.9,9.7,4.3,8.9,4.5,8.3c0.2-0.7,1.2-0.8,1.9-1.2
			c0.6-0.3,1.2-0.4,2-0.4c0.7,0,1.3,0.2,2,0.4s1.7,0.1,2.2,0.5c0.6,0.5,1.1,1.2,1.4,1.8c0.3,0.7,0.3,1.7,0,2.3
			c-0.2,0.7-0.9,1.4-1.6,1.7c-0.6,0.3-1.5,0.3-2.2,0.3C9.5,13.9,8.9,13.2,8.2,12.9z"/>
		<path class="st9" d="M38,26.5c0.6,0.4,1.4,0.6,1.8,1.1c0.5,0.6,0.5,1.4,0.6,2c0.1,0.7,0.6,1.6,0.2,2.2c-0.4,0.6-1.3,0.6-2.1,0.7
			c-0.6,0.2-1.3,0.2-2,0c-0.7-0.2-1.2-0.4-1.9-0.8c-0.6-0.4-1.6-0.5-2-1c-0.5-0.6-0.9-1.4-1-2.1c-0.1-0.7,0-1.7,0.4-2.3
			c0.4-0.6,1.2-1.2,1.9-1.4c0.6-0.2,1.5,0,2.3,0.2C36.9,25.3,37.4,26.1,38,26.5z"/>
		<path class="st9" d="M5.9,40.2c0.2-0.7,0-1.5,0.4-2.1c0.4-0.7,1.1-0.9,1.7-1.2c0.7-0.4,1.3-1.1,2-0.9c0.7,0.2,1,1.1,1.4,1.7
			c0.4,0.6,0.6,1.1,0.7,1.9c0.1,0.7,0,1.3-0.2,2.1c-0.2,0.7,0.1,1.7-0.2,2.2c-0.4,0.7-1,1.3-1.6,1.6c-0.7,0.4-1.6,0.5-2.3,0.4
			s-1.5-0.7-1.9-1.3c-0.4-0.6-0.5-1.4-0.6-2.2C5.1,41.6,5.8,40.9,5.9,40.2z"/>
		<path class="st9" d="M22.5,20.2c0.3,0.7,1,1.2,1,1.9c0.1,0.8-0.3,1.4-0.5,2c-0.2,0.7-0.3,1.7-0.9,2S20.7,26,20,25.8
			c-0.6-0.2-1.2-0.5-1.7-1c-0.5-0.5-0.8-1-1.2-1.7c-0.3-0.7-1.2-1.2-1.3-1.8c-0.1-0.8,0-1.7,0.2-2.3c0.2-0.7,0.9-1.5,1.5-1.8
			c0.6-0.3,1.6-0.5,2.3-0.2c0.6,0.2,1.3,0.8,1.9,1.3C22.2,18.7,22.2,19.6,22.5,20.2z"/>
		<path class="st10" d="M25.7,0.7c1.1,0.5,1.7,1.2,2.3,2c0.7,1,1.4,2,1,3c-0.4,1-1.7,1.1-2.9,1.3c-1,0.1-1.8-0.1-2.9-0.6
			c-1.1-0.5-2.1-0.8-2.7-1.5c-0.7-1-0.7-2-0.3-3c0.4-1,1.2-1.5,2.4-1.7C23.6,0.1,24.6,0.2,25.7,0.7z"/>
		<path class="st10" d="M42.8,24.1c1.1,0.5,1.7,1.2,2.3,2c0.7,1,1.4,2,1,3c-0.4,0.9-1.7,1.1-2.9,1.3c-1,0.1-1.8-0.1-2.9-0.6
			c-1.1-0.5-2.1-0.8-2.7-1.6c-0.7-1-0.7-2-0.3-3c0.4-1,1.2-1.5,2.4-1.7C40.7,23.5,41.7,23.7,42.8,24.1z"/>
		<path class="st10" d="M30,33c1.1,0.5,1.7,1.2,2.3,2c0.7,1,1.4,2,1,3c-0.4,0.9-1.7,1.1-2.9,1.3c-1,0.1-1.8-0.1-2.9-0.6
			c-1.1-0.5-2.1-0.8-2.7-1.6c-0.7-1-0.7-2-0.3-2.9c0.4-0.9,1.2-1.5,2.4-1.7C27.8,32.4,28.9,32.6,30,33z"/>
		<path class="st10" d="M33.3,39.9c1.1,0.5,1.7,1.2,2.3,2c0.7,1,1.4,2,1,3c-0.4,0.9-1.7,1.1-2.9,1.3c-1,0.1-1.8-0.1-2.9-0.6
			c-1.1-0.5-2.1-0.8-2.7-1.6c-0.7-1-0.7-2-0.3-2.9c0.4-0.9,1.2-1.5,2.4-1.7C31.2,39.3,32.2,39.4,33.3,39.9z"/>
		<path class="st10" d="M7.7,24.7c1.1,0.5,1.7,1.2,2.3,2c0.7,1,1.4,2,1,3c-0.4,0.9-1.7,1.1-2.9,1.3c-1,0.1-1.8-0.1-2.9-0.6
			c-1.1-0.5-2.1-0.8-2.7-1.6c-0.7-1-0.7-2-0.3-3c0.4-1,1.2-1.5,2.4-1.7C5.6,24.1,6.6,24.3,7.7,24.7z"/>
		<path class="st11" d="M43,22.4c0.9,0.4,1.7,0.6,2.1,1.3c0.6,0.8,0.9,1.6,0.6,2.4s-1.2,1.1-2.1,1.2c-0.8,0.1-1.6-0.1-2.4-0.4
			c-0.9-0.4-1.7-0.8-2.1-1.4c-0.6-0.8-0.8-1.7-0.5-2.5c0.3-0.8,1.1-1.4,2.1-1.5C41.4,21.3,42.1,22,43,22.4z"/>
		<path class="st12" d="M28.4,12.9c1.1,0.3,2,1.2,2.7,1.9c0.8,0.9,1.4,2,1.1,3s-1.4,1.4-2.6,1.7c-0.9,0.3-2.1,1-3.2,0.7
			c-1.1-0.3-1.9-1.4-2.5-2.1c-0.8-0.9-1.7-2-1.4-2.9c0.3-1,1.5-1.7,2.7-2C26.1,12.9,27.3,12.6,28.4,12.9z"/>
		<path class="st12" d="M16,2.1c1.1-0.4,2.3-0.2,3.3-0.1c1.2,0.2,2.3,0.8,2.7,1.8c0.4,1-0.3,2-1.1,2.9c-0.6,0.8-1.1,2-2.2,2.4
			c-1.1,0.4-2.3,0-3.3-0.2c-1.2-0.2-2.5-0.6-2.9-1.6s0.2-2.2,1-3.2C14.1,3.5,14.9,2.6,16,2.1z"/>
		<path class="st12" d="M39.4,18.2c1.2,0,2.3,0.6,3.1,1.1c1,0.6,1.9,1.6,1.9,2.6s-1,1.7-2,2.3c-0.8,0.5-1.8,1.5-2.9,1.5
			s-2.2-0.8-3-1.3c-1-0.6-2.1-1.4-2.1-2.5s1-2,2-2.6C37.1,18.8,38.2,18.2,39.4,18.2z"/>
		<path class="st12" d="M26.3,38.4c1.2-0.2,2.3,0.1,3.2,0.4c1.1,0.4,2.2,1.1,2.4,2.2c0.2,1-0.6,1.9-1.5,2.7
			c-0.7,0.7-1.4,1.8-2.5,2.1s-2.3-0.4-3.2-0.7c-1.1-0.4-2.4-1-2.6-2c-0.2-1,0.6-2.2,1.4-3C24.2,39.5,25.1,38.7,26.3,38.4z"/>
		<path class="st12" d="M36.4,29.6c1.2-0.2,2.3,0.1,3.2,0.4c1.1,0.4,2.2,1.1,2.4,2.2s-0.6,1.9-1.5,2.7c-0.7,0.7-1.4,1.8-2.5,2.1
			s-2.3-0.4-3.2-0.7c-1.1-0.4-2.4-1-2.6-2c-0.2-1,0.6-2.2,1.4-3C34.3,30.6,35.3,29.8,36.4,29.6z"/>
		<path class="st12" d="M37.3,9.5c1.2-0.2,2.3,0.2,3.2,0.6c1.1,0.4,2.1,1.2,2.3,2.2c0.2,1-0.7,1.9-1.6,2.6c-0.7,0.6-1.5,1.8-2.6,2
			c-1.2,0.2-2.3-0.5-3.2-0.8C34.3,15.6,33,15,32.9,14c-0.2-1,0.7-2.1,1.6-2.9C35.2,10.4,36.2,9.7,37.3,9.5z"/>
		<path class="st13" d="M36.4,3.7c1.2-0.2,2.3,0.2,3.2,0.6c1.1,0.4,2.1,1.2,2.3,2.2c0.2,1-0.7,1.9-1.6,2.6c-0.7,0.6-1.5,1.8-2.6,2
			c-1.2,0.2-2.3-0.5-3.2-0.8c-1.1-0.4-2.3-1.1-2.5-2.1c-0.2-1,0.7-2.1,1.6-2.9C34.3,4.7,35.3,3.9,36.4,3.7z"/>
		<path class="st12" d="M7.4,29.4c1,0.6,1.7,1.7,2.1,2.5c0.6,1.1,0.8,2.3,0.3,3.2s-1.7,1-2.9,1c-1,0-2.3,0.4-3.3-0.2
			c-1-0.6-1.5-1.8-1.9-2.7c-0.6-1.1-1.1-2.3-0.6-3.2c0.5-0.9,1.9-1.2,3.1-1.2C5.1,28.8,6.4,28.8,7.4,29.4z"/>
		<path class="st12" d="M10.7,13.3c1.1,0.5,1.8,1.5,2.4,2.2c0.7,1,1.1,2.2,0.7,3.1c-0.4,1-1.6,1.2-2.8,1.3c-1,0.1-2.2,0.7-3.3,0.2
			c-1.1-0.5-1.7-1.7-2.2-2.5c-0.7-1-1.4-2.2-1-3.1c0.4-1,1.7-1.4,2.9-1.6C8.4,13,9.6,12.9,10.7,13.3z"/>
		<path class="st6" d="M16.3,33.5c0.9-0.1,1.7-0.2,2.3,0.2c0.8,0.4,1.4,1,1.5,1.8c0.1,0.8-0.3,1.6-1.1,2.1c-0.6,0.4-1.4,0.5-2.3,0.5
			c-0.9,0.1-1.8,0.4-2.5,0.1c-0.8-0.4-1-1.3-1-2.1s0-1.6,0.7-2.2C14.5,33.5,15.4,33.6,16.3,33.5z"/>
		<path class="st6" d="M6.1,36.9c0.6,0.7,1.1,1.2,1.2,2c0.2,0.9,0,1.7-0.6,2.2s-1.5,0.6-2.3,0.4c-0.7-0.2-1.2-0.9-1.8-1.6
			c-0.6-0.7-1.4-1.2-1.5-2c-0.1-0.9,0.5-1.6,1.1-2.1c0.6-0.5,1.3-0.9,2.2-0.7C5.1,35.5,5.6,36.3,6.1,36.9z"/>
		<path class="st14" d="M7.1,19.6c0.9,0,1.7,0.1,2.3,0.5c0.8,0.5,1.3,1.2,1.2,2c0,0.8-0.6,1.5-1.4,2c-0.6,0.3-1.5,0.2-2.4,0.2
			C6,24.2,5,24.4,4.4,24c-0.8-0.5-0.8-1.5-0.7-2.2c0-0.8,0.2-1.6,1-2C5.3,19.4,6.2,19.6,7.1,19.6z"/>
		<path class="st6" d="M5.3,6.9c0.6,0.7,1.1,1.2,1.2,2c0.2,0.9,0,1.7-0.6,2.2s-1.5,0.6-2.3,0.4c-0.7-0.2-1.2-0.9-1.8-1.6
			C1.2,9.2,0.4,8.7,0.2,8C0.1,7.1,0.8,6.4,1.4,5.9C2,5.4,2.7,4.9,3.6,5.2C4.3,5.4,4.7,6.2,5.3,6.9z"/>
		<path class="st6" d="M38.5,26.7c0.1,0.9,0.1,1.7-0.2,2.3c-0.4,0.8-1,1.4-1.8,1.5s-1.6-0.4-2.1-1.1c-0.4-0.6-0.4-1.4-0.5-2.3
			c-0.1-0.9-0.4-1.8-0.1-2.5c0.4-0.8,1.4-1,2.1-1c0.8-0.1,1.6,0,2.2,0.8C38.5,24.9,38.4,25.8,38.5,26.7z"/>
		<path class="st10" d="M43,8.6c0.9,0.2,1.6,0.3,2.2,0.8c0.7,0.6,1.1,1.3,1,2.1c-0.1,0.8-0.8,1.4-1.6,1.8c-0.7,0.3-1.5,0.1-2.4-0.1
			c-0.9-0.2-1.9-0.1-2.4-0.5c-0.7-0.6-0.6-1.6-0.4-2.3c0.1-0.8,0.4-1.6,1.3-1.9C41.3,8.1,42.2,8.4,43,8.6z"/>
		<path class="st7" d="M38.9,36.4c-0.2,0.8-0.7,1.7-1.2,2.2c-0.6,0.6-1.7,0.8-2.4,0.6c-0.7-0.2-1.2-0.9-1.5-1.8
			c-0.2-0.7,0-1.4,0.2-2.3s0.3-1.7,0.8-2.2c0.6-0.6,1.5-0.5,2.2-0.3c0.7,0.2,1.6,0.5,1.8,1.4C39.1,34.6,39.2,35.6,38.9,36.4z"/>
		<path class="st7" d="M17.7,30.7c0.5,0.7,0.9,1.6,0.9,2.3c0.1,0.9-0.5,1.8-1.1,2.2c-0.6,0.4-1.5,0.4-2.3,0
			c-0.7-0.3-1.1-0.9-1.6-1.6c-0.5-0.7-1.2-1.3-1.2-2c-0.1-0.9,0.5-1.5,1.1-1.9s1.4-0.9,2.2-0.5C16.5,29.5,17.2,30,17.7,30.7z"/>
		<path class="st7" d="M13.8,13.3c0.7,0.5,1.3,1.3,1.5,2c0.3,0.8,0.1,1.8-0.4,2.4c-0.5,0.6-1.3,0.8-2.2,0.7c-0.7-0.1-1.3-0.6-2-1.1
			c-0.7-0.5-1.5-0.9-1.7-1.6c-0.3-0.8,0.1-1.6,0.5-2.2s1.1-1.2,2-1.1C12.2,12.4,13.1,12.8,13.8,13.3z"/>
		<path class="st7" d="M27.8,20.6c0.8-0.3,1.8-0.3,2.5-0.2c0.9,0.2,1.5,0.9,1.8,1.7c0.2,0.7-0.1,1.5-0.6,2.2c-0.5,0.5-1.2,0.8-2,1.1
			c-0.8,0.3-1.6,0.7-2.3,0.6c-0.9-0.2-1.2-0.9-1.5-1.7s-0.4-1.6,0.1-2.3C26.3,21.4,27,20.9,27.8,20.6z"/>
		<path class="st7" d="M38,15.6c0.7,0.6,1.2,1.3,1.4,2c0.3,0.8,0,1.8-0.5,2.4s-1.4,0.7-2.2,0.6c-0.7-0.1-1.3-0.6-2-1.2
			c-0.7-0.6-1.4-1-1.7-1.7c-0.3-0.8,0.2-1.5,0.6-2.1c0.5-0.6,1.1-1.2,2-1C36.4,14.7,37.3,15,38,15.6z"/>
		<path class="st7" d="M1.7,31.8c0.7-0.5,1.6-0.9,2.3-1.1c0.9-0.1,1.8,0.3,2.3,0.9c0.5,0.6,0.5,1.5,0.2,2.3
			c-0.2,0.7-0.8,1.2-1.5,1.7c-0.7,0.5-1.2,1.2-1.9,1.3c-0.9,0.1-1.5-0.4-2-1s-1-1.3-0.7-2.2C0.5,33.1,1,32.3,1.7,31.8z"/>
		<path class="st7" d="M0.9,14.9c0.5-0.7,1.2-1.4,1.8-1.7c0.8-0.4,1.8-0.2,2.4,0.2c0.6,0.4,0.9,1.3,0.8,2.1c0,0.7-0.5,1.3-0.9,2.1
			c-0.5,0.7-0.8,1.5-1.5,1.8c-0.8,0.4-1.6,0-2.2-0.4c-0.6-0.4-1.3-1-1.3-1.9C0.2,16.5,0.5,15.6,0.9,14.9z"/>
		<path class="st14" d="M42.9,3.6c0.6-0.2,1.3,0,1.9,0.1c0.7,0.2,1.4,0.7,1.6,1.4c0.3,0.7-0.1,1.3-0.5,2c-0.3,0.5-0.5,1.3-1.1,1.6
			c-0.6,0.2-1.3-0.1-1.9-0.3c-0.7-0.2-1.5-0.5-1.7-1.2c-0.3-0.7,0-1.5,0.4-2.2C41.9,4.4,42.3,3.8,42.9,3.6z"/>
		<path class="st14" d="M11.5,1.1c0.6-0.2,1.3,0,1.9,0.1c0.7,0.2,1.4,0.7,1.6,1.4c0.3,0.7-0.1,1.3-0.5,2c-0.3,0.5-0.5,1.3-1.1,1.6
			c-0.6,0.2-1.3-0.1-1.9-0.3c-0.7-0.2-1.5-0.5-1.7-1.2c-0.3-0.7,0-1.5,0.4-2.2C10.5,1.9,10.9,1.3,11.5,1.1z"/>
		<path class="st14" d="M2.2,18.9c0.6-0.2,1.3,0,1.9,0.1c0.7,0.2,1.4,0.7,1.6,1.4c0.3,0.7-0.1,1.3-0.5,2c-0.3,0.5-0.5,1.3-1.1,1.6
			c-0.6,0.2-1.4-0.1-1.9-0.3c-0.7-0.2-1.5-0.5-1.7-1.2c-0.3-0.7,0-1.5,0.4-2.2C1.2,19.7,1.6,19.1,2.2,18.9z"/>
		<path class="st14" d="M42.6,28.2c0.6-0.2,1.3-0.1,1.9,0.1c0.7,0.2,1.4,0.7,1.6,1.4c0.3,0.7-0.1,1.3-0.5,2
			c-0.3,0.5-0.5,1.3-1.1,1.6s-1.3-0.1-1.9-0.3c-0.7-0.2-1.5-0.5-1.7-1.2c-0.3-0.7,0-1.5,0.4-2.2C41.5,29,42,28.4,42.6,28.2z"/>
		<path class="st14" d="M42.6,41c0.6-0.2,1.3-0.1,1.9,0.1c0.7,0.2,1.4,0.7,1.6,1.4c0.3,0.7-0.1,1.3-0.5,2c-0.3,0.5-0.5,1.3-1.1,1.6
			s-1.3-0.1-1.9-0.3c-0.7-0.2-1.5-0.5-1.7-1.2s0-1.5,0.4-2.2C41.5,41.8,42,41.2,42.6,41z"/>
		<path class="st14" d="M13.6,41c0.6-0.2,1.3-0.1,1.9,0.1c0.7,0.2,1.4,0.7,1.6,1.4c0.3,0.7-0.1,1.3-0.5,2c-0.3,0.5-0.5,1.3-1.1,1.6
			c-0.6,0.2-1.3-0.1-1.9-0.3c-0.7-0.2-1.5-0.5-1.7-1.2c-0.3-0.7,0-1.5,0.4-2.2C12.6,41.8,13,41.2,13.6,41z"/>
		<path class="st14" d="M21.2,14.3c0.6-0.2,1.3,0,1.9,0.1c0.7,0.2,1.4,0.7,1.6,1.4c0.3,0.7-0.1,1.3-0.5,2c-0.3,0.5-0.5,1.3-1.1,1.6
			c-0.6,0.2-1.3-0.1-1.9-0.3c-0.7-0.2-1.5-0.5-1.7-1.2c-0.3-0.7,0-1.5,0.4-2.2C20.1,15.2,20.6,14.6,21.2,14.3z"/>
		<path class="st14" d="M11.2,3.3c0.6-0.2,1.3,0,1.9,0.1c0.7,0.2,1.4,0.7,1.6,1.4c0.3,0.7-0.1,1.3-0.5,2c-0.3,0.5-0.5,1.3-1.1,1.6
			c-0.6,0.2-1.3-0.1-1.9-0.3c-0.7-0.2-1.5-0.5-1.7-1.2c-0.3-0.7,0-1.5,0.4-2.2C10.1,4.2,10.6,3.6,11.2,3.3z"/>
		<path class="st14" d="M32.1,19.1c0.6-0.2,1.3,0,1.9,0.1c0.7,0.2,1.4,0.7,1.6,1.4c0.3,0.7-0.1,1.3-0.5,2c-0.3,0.5-0.5,1.3-1.1,1.6
			c-0.6,0.2-1.3-0.1-1.9-0.3c-0.7-0.2-1.5-0.5-1.7-1.2c-0.3-0.7,0-1.5,0.4-2.2C31.1,19.9,31.5,19.3,32.1,19.1z"/>
		<path class="st14" d="M24.5,29.2c0.6-0.2,1.3-0.1,1.9,0.1c0.7,0.2,1.4,0.7,1.6,1.4c0.3,0.7-0.1,1.3-0.5,2
			c-0.3,0.5-0.5,1.3-1.1,1.6s-1.3-0.1-1.9-0.3c-0.7-0.2-1.5-0.5-1.7-1.2s0-1.5,0.4-2.2C23.5,30,23.9,29.4,24.5,29.2z"/>
		<path class="st14" d="M42.6,18.6c0.6-0.2,1.3,0,1.9,0.1c0.7,0.2,1.4,0.7,1.6,1.4c0.3,0.7-0.1,1.3-0.5,2c-0.3,0.5-0.5,1.3-1.1,1.6
			c-0.6,0.2-1.3-0.1-1.9-0.3c-0.7-0.2-1.5-0.5-1.7-1.2c-0.3-0.7,0-1.5,0.4-2.2C41.5,19.4,42,18.8,42.6,18.6z"/>
		<path class="st15" d="M18.6,15.6c0.9,0.4,1.7,0.6,2.1,1.3c0.6,0.8,0.9,1.6,0.5,2.4s-1.2,1.1-2.1,1.2c-0.8,0.1-1.6-0.1-2.5-0.4
			c-0.9-0.4-1.7-0.8-2.1-1.4c-0.6-0.8-0.8-1.7-0.5-2.5c0.3-0.8,1.1-1.4,2.1-1.5C17,14.5,17.7,15.2,18.6,15.6z"/>
		<path class="st15" d="M15.4,5.7c0.9,0.4,1.7,0.6,2.1,1.3c0.6,0.8,0.9,1.6,0.5,2.4s-1.2,1.1-2.1,1.2c-0.8,0.1-1.6-0.1-2.5-0.4
			c-0.9-0.4-1.7-0.8-2.1-1.4C10.8,8,10.6,7,10.9,6.3c0.3-0.8,1.1-1.4,2.1-1.5C13.8,4.7,14.6,5.3,15.4,5.7z"/>
		<path class="st15" d="M31.7,28.2c0.9,0.4,1.7,0.6,2.1,1.3c0.6,0.8,0.9,1.6,0.5,2.4s-1.2,1.1-2.1,1.2c-0.8,0.1-1.6-0.1-2.5-0.4
			c-0.9-0.4-1.7-0.8-2.1-1.4c-0.6-0.8-0.8-1.7-0.5-2.5s1.1-1.4,2.1-1.5C30.1,27.1,30.8,27.8,31.7,28.2z"/>
		<path class="st15" d="M4.9,25.3c0.9,0.4,1.7,0.6,2.1,1.3c0.6,0.8,0.9,1.6,0.5,2.4s-1.2,1.1-2.1,1.2c-0.8,0.1-1.6-0.1-2.5-0.4
			c-0.9-0.4-1.7-0.8-2.1-1.4c-0.6-0.8-0.8-1.7-0.5-2.5c0.3-0.8,1.1-1.4,2.1-1.5C3.3,24.3,4,24.9,4.9,25.3z"/>
		<path class="st15" d="M12.1,34.5c0.9,0.4,1.7,0.6,2.1,1.3c0.6,0.8,0.9,1.6,0.5,2.4s-1.2,1.1-2.1,1.2c-0.8,0.1-1.6-0.1-2.5-0.4
			c-0.9-0.4-1.7-0.8-2.1-1.4c-0.6-0.8-0.8-1.7-0.5-2.5s1.1-1.4,2.1-1.5C10.5,33.4,11.2,34.1,12.1,34.5z"/>
		<path class="st15" d="M33.2,38.5c0.9,0.4,1.7,0.6,2.1,1.3c0.6,0.8,0.9,1.6,0.6,2.4s-1.2,1.1-2.1,1.2c-0.8,0.1-1.6-0.1-2.5-0.4
			c-0.9-0.4-1.7-0.8-2.1-1.4c-0.6-0.8-0.8-1.7-0.5-2.5s1.1-1.4,2.1-1.5C31.6,37.4,32.3,38.1,33.2,38.5z"/>
		<path class="st15" d="M24.2,24.7c0.9,0.4,1.7,0.6,2.1,1.3c0.6,0.8,0.9,1.6,0.5,2.4s-1.2,1.1-2.1,1.2c-0.8,0.1-1.6-0.1-2.5-0.4
			c-0.9-0.4-1.7-0.8-2.1-1.4c-0.6-0.8-0.8-1.7-0.5-2.5c0.3-0.8,1.1-1.4,2.1-1.5C22.5,23.7,23.3,24.3,24.2,24.7z"/>
		<path class="st15" d="M31.7,1.2c0.9,0.4,1.7,0.6,2.1,1.3c0.6,0.8,0.9,1.6,0.5,2.4S33.2,6,32.2,6.1c-0.8,0.1-1.6-0.1-2.5-0.4
			c-0.9-0.4-1.7-0.8-2.1-1.4c-0.6-0.8-0.8-1.7-0.5-2.5c0.3-0.8,1.1-1.4,2.1-1.5C30.1,0.2,30.8,0.9,31.7,1.2z"/>
		<path class="st15" d="M17.6,1.2c0.9,0.4,1.7,0.6,2.1,1.3c0.6,0.8,0.9,1.6,0.5,2.4S19.1,6,18.1,6.1c-0.8,0.1-1.6-0.1-2.4-0.4
			c-0.9-0.4-1.7-0.8-2.1-1.4c-0.6-0.8-0.8-1.7-0.5-2.5c0.3-0.8,1.1-1.4,2.1-1.5C16,0.2,16.7,0.9,17.6,1.2z"/>
	</g>
</g>
</svg>
