<?xml version="1.0" encoding="utf-8"?>
<svg version="1.1" id="Layer_1" x="0px" y="0px" viewBox="0 0 46.2 46.3" width="46.2" height="46.3" style="enable-background:new 0 0 46.2 46.3;" xmlns="http://www.w3.org/2000/svg">
  <style type="text/css">
	.st0{fill:#754C29;}
	.st1{fill:#714926;}
	.st2{fill:#3C2415;}
	.st3{fill:#8B5E3C;}
	.st4{fill:#A97C50;}
	.st5{fill:#594A42;}
	.st6{fill:#C49A6C;}
	.st7{fill:#C2B59B;}
</style>
  <g>
    <rect class="st0" width="46.3" height="46.3"/>
    <path class="st1" d="M21.1,45.2c0.8,0.1,1.3,0.7,2,1c-3.4,0-6.9,0-10.3,0.1c-0.3,0-0.6,0.1-0.9-0.2c0.4-0.1,0.8-0.2,0.3-0.7 c-0.1-0.1-0.5-0.1-0.3-0.4c0.1-0.2,0.4-0.3,0.6-0.1c0.5,0.5,1,0.2,1.6,0c1.3-0.6,2.6-1.3,4.1-0.4C19.3,44.4,20.2,44.8,21.1,45.2z"/>
    <path class="st1" d="M39.5,46.1c0.4-0.1,0.8-0.2,0.3-0.7c-0.1-0.1-0.5-0.1-0.3-0.4c0.1-0.2,0.4-0.3,0.5-0.1c0.8,0.6,1.4,0.2,2-0.2 c1.3-0.7,2.5-0.8,3.9-0.2c0.4,0.4,0.2,1,0.3,1.5c0.1,0.4-0.2,0.3-0.5,0.3c-1.3,0-2.6,0.1-3.9-0.1C41,46.1,40.2,46.6,39.5,46.1z"/>
    <path class="st2" d="M44.4,36.7c0.1-0.2-0.3-0.6,0.3-0.6c0.4,0,0.8,0.2,1.3,0c0.2,0.3,0.4,0.7,0,1c-0.5-0.1-0.9,0-1.3,0.4 c-0.3,0.3-0.7,0.5-1.2,0.2c-0.3-0.4-0.2-0.6,0.2-0.8C44,36.9,44.3,37,44.4,36.7z"/>
    <path class="st2" d="M44.4,10.9c0.1-0.2-0.3-0.6,0.3-0.6c0.4,0,0.8,0.2,1.3,0c0.2,0.3,0.4,0.7,0,1c-0.5-0.1-0.9,0-1.3,0.4 c-0.3,0.3-0.7,0.5-1.2,0.2c-0.3-0.4-0.2-0.6,0.2-0.8C44,11.2,44.3,11.2,44.4,10.9z"/>
    <path class="st3" d="M34.4,46.1c0.2-0.2,0.5-0.4,0.8-0.4c1.3,0.3,2.7-0.3,3.9,0.4C37.6,46.4,36,46.3,34.4,46.1z"/>
    <path class="st3" d="M6.9,46.1c0.2-0.2,0.5-0.4,0.8-0.4c1.3,0.3,2.7-0.3,3.9,0.4C10,46.4,8.5,46.3,6.9,46.1z"/>
    <path class="st3" d="M46.2,41.4c-2-0.1-2-0.1-2.7-0.9c0.9,0.1,1.7,0.7,2.7,0.5C46.2,41.1,46.2,41.3,46.2,41.4z"/>
    <path class="st4" d="M46.2,15.7c-0.9-0.2-2,0.2-2.7-0.9c1,0.1,1.8,0.7,2.7,0.5C46.2,15.4,46.2,15.5,46.2,15.7z"/>
    <path class="st5" d="M0,15.8c0.1,0,0.2,0,0.3,0c0.4-0.2,0.6,0,0.8,0.3c0.1,0.1,0.1,0.2-0.1,0.3c-0.3,0.1-0.6,0.1-0.8-0.1 c-0.1-0.1-0.1-0.1-0.2-0.2C0,16,0,15.9,0,15.8z"/>
    <path class="st2" d="M0,41.6c0.1,0,0.2,0,0.3,0c0.4-0.2,0.6,0,0.8,0.3c0.1,0.1,0.1,0.2-0.1,0.3c-0.3,0.1-0.6,0.1-0.8-0.1 c-0.1-0.1-0.1-0.1-0.2-0.2C0,41.7,0,41.7,0,41.6z"/>
    <path class="st4" d="M6.7,15.4c0.6,0.1,1,0.4,1.4,0.7c0.2,0.1,0.5,0.2,0.4,0.5C8.4,16.9,8.2,17,8,17.1c-0.5,0.1-0.9,0-1.3-0.3 c-0.6-0.4,0.2-0.8,0.1-1.2C6.6,15.6,6.6,15.6,6.7,15.4C6.7,15.5,6.7,15.4,6.7,15.4z"/>
    <path class="st2" d="M34.3,15.4c0.6,0.1,1,0.4,1.4,0.7c0.2,0.1,0.5,0.2,0.4,0.5c-0.1,0.2-0.3,0.4-0.5,0.4c-0.5,0.1-0.9,0-1.3-0.3 c-0.6-0.4,0.2-0.8,0.1-1.2C34.2,15.6,34.2,15.6,34.3,15.4C34.2,15.5,34.2,15.4,34.3,15.4z"/>
    <path class="st2" d="M34.3,41.2c0.6,0.1,1,0.4,1.4,0.7c0.2,0.1,0.5,0.2,0.4,0.5c-0.1,0.2-0.3,0.4-0.5,0.4c-0.5,0.1-0.9,0-1.3-0.3 c-0.6-0.4,0.2-0.8,0.1-1.2C34.2,41.3,34.2,41.3,34.3,41.2C34.2,41.2,34.2,41.2,34.3,41.2z"/>
    <path class="st4" d="M6.7,41.2c0.6,0.1,1,0.4,1.4,0.7c0.2,0.1,0.5,0.2,0.4,0.5c-0.1,0.2-0.3,0.4-0.5,0.4c-0.5,0.1-0.9,0-1.3-0.3 c-0.6-0.4,0.2-0.8,0.1-1.2C6.6,41.3,6.6,41.3,6.7,41.2C6.7,41.2,6.7,41.2,6.7,41.2z"/>
    <path class="st4" d="M17.8,19c-0.4,0.3-0.7,0.8-1.1,0.7c-0.4,0-1-0.6-1-1c0-0.5,0.7-0.5,1.1-0.5C17.3,18.2,17.6,18.5,17.8,19z"/>
    <path class="st2" d="M44.4,18.2c0.5,0.1,0.9,0.3,0.9,0.7c0,0.5-0.7,0.5-1,0.9c-0.3-0.3-1-0.6-0.9-1.1C43.3,18.3,44,18.3,44.4,18.2z "/>
    <path class="st3" d="M25.6,14.8c0.8,0.3,1.8,0.1,2.2,1c0.1,0.1,0,0.2-0.1,0.2c-0.9,0-1.7-0.2-2.4-0.9C25.3,15,25.4,14.9,25.6,14.8z "/>
    <path class="st3" d="M25.6,40.6c0.8,0.3,1.8,0.1,2.2,1c0.1,0.1,0,0.2-0.1,0.2c-0.9,0-1.7-0.2-2.4-0.9 C25.3,40.7,25.4,40.6,25.6,40.6z"/>
    <path class="st3" d="M21.3,19.7c-0.8-0.1-1.5-1-2.4-0.4c-0.2,0.1-0.5-0.2-0.5-0.5c0.1-0.3,0.3-0.2,0.6-0.2c0.9,0.1,1.7,0.4,2.4,0.9 C21.4,19.6,21.3,19.7,21.3,19.7z"/>
    <path class="st4" d="M26.9,8.4c0.4,0.1,0.7,0.4,0.8,0.8c0.1,0.3-0.3,0.5-0.5,0.4c-0.3-0.1-0.9,0.1-0.7-0.6 C26.6,8.8,26.3,8.4,26.9,8.4z"/>
    <path class="st2" d="M26.9,34.2c0.4,0.1,0.7,0.4,0.9,0.8c0.1,0.3-0.3,0.5-0.5,0.5c-0.3-0.1-0.9,0-0.8-0.6 C26.5,34.6,26.2,34.2,26.9,34.2z"/>
    <path class="st2" d="M14.3,11.5c1-0.1,1.9-0.4,2.9-0.8c-0.3,0.7-1,0.7-1.3,1.1C15.4,12.4,15,11.2,14.3,11.5z"/>
    <path class="st2" d="M14.4,37.1c0.5,0,0.9,0,1.4-0.1c0.4-0.1,0.9-0.3,1.4-0.5c-0.3,0.7-1,0.7-1.3,1.1C15.4,38,14.9,37.1,14.4,37.1z "/>
    <path class="st2" d="M34.4,27.7c-0.3-0.2-0.4-0.6-0.5-1c-0.1-0.2,0.2-0.3,0.4-0.3c0.3,0.1,0.8,0.1,0.8,0.6 C35,27.4,34.8,27.6,34.4,27.7z"/>
    <path class="st4" d="M7.5,27c-0.1,0.3-0.3,0.7-0.6,0.6c-0.5-0.1-0.5-0.6-0.6-0.9c-0.1-0.3,0.3-0.3,0.5-0.3 C7.1,26.6,7.5,26.6,7.5,27z"/>
    <path class="st4" d="M35.1,1.3c-0.1,0.3-0.3,0.7-0.6,0.7c-0.5,0-0.4-0.6-0.6-0.9c-0.1-0.2,0.2-0.3,0.4-0.3 C34.6,0.8,35,0.8,35.1,1.3z"/>
    <path class="st4" d="M7.5,1.3C7.4,1.6,7.2,2,6.9,1.9C6.5,1.9,6.4,1.4,6.3,1C6.2,0.7,6.6,0.7,6.8,0.8C7.1,0.8,7.5,0.9,7.5,1.3z"/>
    <path class="st3" d="M17.7,39.1c-0.3,0-0.7,0-0.7-0.4c0.1-0.4,0.4-0.6,0.8-0.6c0.4,0,0.4,0.4,0.5,0.7C18.4,39.2,18,39.1,17.7,39.1z "/>
    <path class="st3" d="M17.8,13.4c-0.4,0-0.8-0.1-0.7-0.5c0.1-0.3,0.4-0.6,0.8-0.6c0.4,0,0.4,0.4,0.4,0.7 C18.4,13.5,18,13.3,17.8,13.4z"/>
    <path class="st4" d="M44.4,10.9c0.2,0.7-1,0.4-0.8,1.1c-0.6,0.2-1-0.6-1.7-0.5C42.8,11.4,43.6,11.3,44.4,10.9z"/>
    <path class="st3" d="M44.4,36.7c0.2,0.7-1,0.4-0.8,1.1c-0.6,0.2-1-0.6-1.7-0.5C42.8,37.1,43.6,37,44.4,36.7z"/>
    <path class="st3" d="M6.1,22.5c-0.7-0.3-1.3,0.1-1.9,0.2c-0.2,0-0.5,0-0.5-0.3c0-0.3,0.3-0.2,0.5-0.2C4.8,22.2,5.6,21.9,6.1,22.5z"/>
    <path class="st3" d="M40.7,7.7c-0.4,0-0.7,0.1-1.1,0.1c-0.3,0-0.4-0.3-0.4-0.6c0-0.1,0-0.3,0.2-0.3c0.3-0.1,0.6,0,0.4,0.4 c0.3,0.1,0.7,0.2,1,0.3C40.7,7.6,40.7,7.7,40.7,7.7z"/>
    <path class="st3" d="M13.1,7.7c-0.4,0-0.7,0.1-1.1,0.1c-0.3,0-0.4-0.3-0.4-0.6c0-0.2,0-0.3,0.2-0.4c0.3,0,0.5,0.1,0.3,0.4 c0.3,0.1,0.7,0.2,1,0.3C13.2,7.6,13.1,7.7,13.1,7.7z"/>
    <path class="st3" d="M13.2,33.4c-0.3,0.1-0.6,0.1-0.9,0.2c-0.4,0.1-0.6-0.1-0.7-0.5c-0.1-0.4,0.2-0.7,0.6-0.4 c0.2,0.1-0.2,0.2,0,0.4c0.2,0.1,0.4,0.1,0.6,0.2C12.9,33.3,13.1,33.2,13.2,33.4z"/>
    <path class="st3" d="M40.7,33.5c-0.4,0-0.7,0.1-1.1,0.1c-0.3,0-0.4-0.3-0.5-0.6c0-0.2,0-0.3,0.2-0.4c0.3,0,0.5,0.1,0.3,0.4 c0.3,0.1,0.7,0.2,1,0.3C40.7,33.4,40.7,33.4,40.7,33.5z"/>
    <path class="st2" d="M33.7,22.5c-0.8-0.5-1.6,0.6-2.4-0.1C32.1,22.2,32.9,21.9,33.7,22.5z"/>
    <path class="st2" d="M15.5,25.8c-0.7,0-1.2,0-1.6,0c-0.3,0-0.6-0.2-0.4-0.5c0.1-0.3,0.3,0,0.5,0C14.4,25.4,14.9,25.3,15.5,25.8z"/>
    <path class="st4" d="M25.6,14.8c-0.1,0.1-0.2,0.3-0.2,0.4c-0.4,0-0.8,0.2-1.2-0.1c0,0,0-0.3,0.1-0.3C24.6,14.3,25.1,14.6,25.6,14.8 C25.5,14.8,25.5,14.8,25.6,14.8z"/>
    <path class="st3" d="M25.6,40.6c-0.1,0.1-0.2,0.3-0.2,0.4c-0.4,0-0.8,0.2-1.2-0.1c0,0,0-0.3,0.1-0.3C24.6,40.1,25.1,40.4,25.6,40.6 C25.5,40.5,25.5,40.5,25.6,40.6z"/>
    <path class="st3" d="M21.1,45.2c-1-0.3-1.9-0.5-2.9-0.8C19.3,44.2,20.3,44.4,21.1,45.2z"/>
    <path class="st2" d="M42.9,25.8c-0.5,0-1,0-1.4,0c-0.3,0-0.6-0.2-0.4-0.5c0.1-0.3,0.3,0,0.5,0C41.9,25.4,42.5,25.3,42.9,25.8z"/>
    <path class="st3" d="M15.2,17.4c0.6,0.1,1.1,0.1,1.7,0.1C16,18.2,15.6,18.2,15.2,17.4z"/>
    <path class="st4" d="M42.7,17.4c0.6,0,1.1,0.1,1.9,0.2C43.2,18.2,43.2,18.2,42.7,17.4z"/>
    <path class="st2" d="M11.7,22c0.3,0,0.6,0.1,0.9,0.1c0.3,0,0.6,0,0.5,0.4c-0.1,0.3-0.5,0.2-0.7,0.1C12.1,22.6,11.8,22.4,11.7,22z"/>
    <path class="st3" d="M39.1,21.9c0.4,0.1,0.5,0.1,0.7,0.2c0.3,0.1,0.7-0.1,0.9,0.3c0.1,0.1,0,0.3-0.2,0.3c-0.4,0.1-0.7,0-1-0.3 C39.4,22.3,39.4,22.2,39.1,21.9z"/>
    <path class="st3" d="M42.7,43.1c0.7,0.1,1.2,0.1,1.8,0.2C43.3,43.9,43.2,43.9,42.7,43.1z"/>
    <path class="st3" d="M19.2,13.6c0.8-0.1,1.1,0.5,1.6,1c-0.4,0.2-0.9,0.1-0.9-0.2C19.8,13.9,19.4,14,19.2,13.6z"/>
    <path class="st3" d="M19.2,39.4c0.8-0.1,1.1,0.5,1.5,1c-0.4,0.2-0.9,0.1-0.9-0.3C19.8,39.7,19.4,39.7,19.2,39.4z"/>
    <path class="st2" d="M37.8,14.7c0.5,0.2,0.9,0.3,1.2,0.4c0.5,0.1,0.1,0.3,0.1,0.5c0,0.2-0.4,0.4-0.4,0.2 C38.5,15.3,38,15.3,37.8,14.7z"/>
    <path class="st2" d="M10.3,40.5c0.4,0.1,0.7,0.2,1.1,0.3c0.1,0,0.3,0,0.2,0.2c-0.1,0.2-0.2,0.4-0.3,0.5c-0.1,0.1-0.3,0-0.3-0.1 C11,40.9,10.4,41,10.3,40.5z"/>
    <path class="st3" d="M21.3,19.7c0-0.1,0-0.2,0-0.2c0.7,0,0.9,0.8,1.5,1c-0.2,0-0.4,0-0.6,0.1c-0.4,0.1-0.9,0.3-0.6-0.5 C21.7,20,21.4,19.8,21.3,19.7z"/>
    <path class="st2" d="M2.4,21.4c-0.5,0.6-1,0.8-1.9,0.8C1.2,21.9,1.5,21.3,2.4,21.4z"/>
    <path class="st6" d="M29.9,21.4c-0.5,0.6-1,0.8-1.6,0.7C28.9,22,29.1,21.3,29.9,21.4z"/>
    <path class="st6" d="M25.8,22.2c0.5-0.2,1-0.4,1.6-0.3C26.8,22.4,26.3,22.3,25.8,22.2z"/>
    <path class="st2" d="M37.9,40.5c0.4,0.1,0.7,0.3,1,0.3c0.5,0.1,0.1,0.3,0.1,0.5c0,0.2-0.4,0.3-0.4,0.2C38.6,41,37.9,41.1,37.9,40.5 z"/>
    <path class="st6" d="M25.5,23c-0.8,0.3-0.8,0.3-1.8,0.1C24.3,22.7,24.5,22.7,25.5,23z"/>
    <path class="st3" d="M10.3,14.7c0.5,0.1,0.8,0.3,1.1,0.3c0.5,0.1,0.1,0.4,0.1,0.5c0,0.2-0.4,0.3-0.4,0.1 C11,15.2,10.4,15.3,10.3,14.7z"/>
    <path class="st3" d="M38.7,24.2c0.5-0.1,0.9-0.1,1.4-0.2C39.3,25,39.3,25,38.7,24.2z"/>
    <path class="st3" d="M11.2,24.2c0.5-0.1,0.9-0.1,1.4-0.2C11.7,25,11.7,25,11.2,24.2z"/>
    <path class="st4" d="M26,10.8c-0.8,0.3-1.6,0.2-2.5,0.2c0-0.1,0-0.2,0-0.3C24.3,10.7,25.1,10.8,26,10.8z"/>
    <path class="st2" d="M4.1,11c0.4,0.1,0.6,0.2,0.9,0.3c0.2,0.1,0.4,0.1,0.3,0.4c-0.1,0.1-0.3,0.2-0.4,0.1C4.6,11.6,4.1,11.6,4.1,11z "/>
    <path class="st4" d="M31.6,11c0.2,0,0.3,0,0.3,0.1c0.3,0.3,0.8,0.1,1,0.6c0,0-0.1,0.2-0.2,0.2C32.2,11.8,31.8,11.6,31.6,11z"/>
    <path class="st4" d="M31.7,36.7c0.4,0.1,0.6,0.2,0.9,0.3c0.2,0.1,0.4,0.1,0.3,0.4c-0.1,0.2-0.3,0.2-0.5,0 C32.1,37.3,31.6,37.3,31.7,36.7z"/>
    <path class="st4" d="M4.1,36.7c0.2,0,0.2,0,0.3,0.1c0.3,0.3,0.8,0.1,1,0.6c0,0-0.1,0.2-0.2,0.2C4.7,37.5,4.2,37.4,4.1,36.7z"/>
    <path class="st2" d="M26,36.7c-0.8,0-1.6,0-2.4,0c0-0.1,0-0.1,0-0.2c0.8,0,1.6,0,2.4,0C25.9,36.6,25.9,36.6,26,36.7z"/>
    <path class="st3" d="M2.7,25.7c0-0.1,0-0.2,0-0.2c0.4-0.2,0.9-0.4,1.4-0.2c0.3,0.1,0,0.4-0.6,0.4C3.3,25.6,3,25.7,2.7,25.7z"/>
    <path class="st3" d="M18.1,0.7c0.5-0.2,0.8-0.5,1.2-0.2c0.1,0.1,0.1,0.4,0,0.5C18.9,1.2,18.6,1,18.1,0.7z"/>
    <path class="st3" d="M19.5,43.6c0.5-0.2,1-0.1,1.5,0C20.5,43.8,20,43.9,19.5,43.6z"/>
    <path class="st2" d="M15.1,35.1c0.5-0.3,1-0.3,1.5,0.2C16,35.3,15.5,35.4,15.1,35.1z"/>
    <path class="st4" d="M44,35.3c-0.5-0.1-1,0.2-1.4-0.1C43.3,34.8,43.3,34.8,44,35.3z"/>
    <path class="st7" d="M34.3,15.4c0,0.1,0,0.1,0,0.2c-0.3,0-0.7,0-1,0c0.4-0.2,0.5-0.9,1.1-0.7C34.5,15,34.3,15.3,34.3,15.4z"/>
    <path class="st7" d="M6.7,15.4c0,0.1,0,0.1,0,0.2c-0.3,0-0.7,0-1,0c0.4-0.2,0.5-0.9,1.1-0.7C7,15,6.7,15.3,6.7,15.4z"/>
    <path class="st2" d="M19.3,17.8c0.7-0.2,1.2-0.1,1.7,0.1C20.5,18,20,18.2,19.3,17.8z"/>
    <path class="st7" d="M34.3,41.2c0,0.1,0,0.1,0,0.2c-0.3,0-0.7,0-1,0c0.4-0.2,0.5-0.9,1.1-0.7C34.5,40.7,34.3,41,34.3,41.2z"/>
    <path class="st3" d="M14.8,9.3c0.7-0.2,1.2-0.3,1.8,0.2C16,9.6,15.5,9.7,14.8,9.3z"/>
    <path class="st7" d="M6.7,41.2c0,0.1,0,0.1,0,0.2c-0.3,0-0.7,0-1,0c0.4-0.2,0.5-0.9,1.1-0.7C7,40.7,6.7,41,6.7,41.2z"/>
    <path class="st3" d="M18.2,26.4c0.4-0.2,0.6-0.5,1-0.3c0.1,0.1,0.1,0.5,0,0.5C18.9,26.9,18.6,26.7,18.2,26.4z"/>
    <path class="st6" d="M30.3,25.6c0.4-0.4,0.9-0.5,1.4-0.3c0.3,0.1,0,0.4-0.4,0.4C30.9,25.6,30.6,25.6,30.3,25.6z"/>
    <path class="st3" d="M44,9.6c-0.5-0.1-1,0.2-1.4-0.1C43.3,9,43.3,9,44,9.6z"/>
    <path class="st2" d="M3,30.6c0.5-0.1,1.1-0.4,1.1,0.5C3.5,31.3,3.4,30.7,3,30.6z"/>
    <path class="st3" d="M31.7,31.1c-0.6,0.1-0.8-0.3-1.1-0.5C31.4,30.3,31.4,30.3,31.7,31.1z"/>
    <path class="st3" d="M13,31.9c0.5-0.3,0.9-0.3,1.5,0.1C13.8,32.2,13.4,32,13,31.9z"/>
    <path class="st4" d="M41.9,32c-0.5,0.2-1,0.1-1.5-0.1C41.2,31.6,41.2,31.6,41.9,32z"/>
    <path class="st3" d="M4.1,5.4C3.6,5.5,3.3,5,3,4.9C3.8,4.6,3.8,4.6,4.1,5.4z"/>
    <path class="st2" d="M30.3,4.8c0.7-0.1,1.3-0.3,1.4,0.6C31.1,5.5,30.9,5,30.3,4.8z"/>
    <path class="st3" d="M20.7,16.1c-0.6-0.3-1.1-0.2-1.7-0.3C19.6,15.4,20.1,15,20.7,16.1z"/>
    <path class="st2" d="M14.4,6.2c-0.6,0.2-1,0.1-1.5-0.2C13.4,5.9,13.9,5.8,14.4,6.2z"/>
    <path class="st3" d="M42,6.2c-0.6,0.2-1,0.1-1.5-0.2C41,5.9,41.4,5.8,42,6.2z"/>
    <path class="st4" d="M18.9,41.7c0.7-0.6,1.3-0.8,1.7,0.1C20.1,41.6,19.6,41.6,18.9,41.7z"/>
    <path class="st2" d="M39.7,37.8c-0.5,0.2-0.3,1-1,0.8C38.7,38.1,38.8,37.6,39.7,37.8z"/>
    <path class="st3" d="M20.5,31c-0.7,0-1-0.3-1.4-0.8C19.8,30.2,20.2,30.4,20.5,31z"/>
    <path class="st3" d="M2.6,11.8C2,12,1.8,12.5,1.1,12.2C1.5,11.8,1.8,11.5,2.6,11.8z"/>
    <path class="st4" d="M29.9,37.5c-0.4,0.2-0.6,0.7-1.3,0.5C29.1,37.6,29.4,37.3,29.9,37.5z"/>
    <path class="st4" d="M34.3,29.3c0.4-0.6,0.9-0.2,1.7-0.3C35.3,29.5,34.7,29.2,34.3,29.3z"/>
    <path class="st4" d="M28.7,12.2c0.4-0.3,0.7-0.7,1.5-0.5C29.6,12,29.4,12.5,28.7,12.2z"/>
    <path class="st6" d="M25,28.3c0.5-0.3,0.8-0.5,1.2-0.2c0.1,0.1,0.2,0.3,0,0.3C25.8,28.7,25.5,28.5,25,28.3z"/>
    <path class="st4" d="M27.7,41.8c0-0.1,0.1-0.1,0.1-0.2c0.4-0.1,0.7-0.1,0.9,0.2c0.1,0.2,0.1,0.2-0.1,0.3 C28.2,42.3,27.9,42.2,27.7,41.8z"/>
    <path class="st5" d="M8.2,29.3c-0.5,0-1,0-1.5,0c0.5-0.7,1-0.2,1.5-0.3C8.1,29.1,8.1,29.2,8.2,29.3z"/>
    <path class="st2" d="M27.7,16.1c0-0.1,0.1-0.1,0.1-0.2c0.4-0.1,0.7-0.1,0.9,0.2c0.1,0.2,0.1,0.2-0.1,0.3 C28.2,16.6,27.9,16.4,27.7,16.1z"/>
    <path class="st3" d="M19.1,4.4c0.7,0.1,1.1,0.3,1.4,0.8C19.9,5.3,19.5,4.9,19.1,4.4z"/>
    <path class="st3" d="M35.7,3.6c-0.5,0-1,0-1.5,0c0.5-0.7,1.1-0.2,1.5-0.3C35.7,3.4,35.7,3.5,35.7,3.6z"/>
    <path class="st6" d="M6.5,3.6C7.2,3,7.7,3.3,8.2,3.6C7.7,3.6,7.2,3.6,6.5,3.6z"/>
    <path class="st3" d="M25,2.6c0.5-0.3,0.8-0.5,1.2-0.2c0.1,0.1,0.2,0.3,0,0.3C25.8,2.9,25.5,2.7,25,2.6z"/>
    <path class="st3" d="M1.1,37.9c0.5-0.3,0.8-0.7,1.4-0.4C2,37.7,1.8,38.2,1.1,37.9z"/>
    <path class="st2" d="M38,7.5c-0.2,0.5-0.5,0.7-0.9,0.6c-0.1,0-0.2-0.2-0.1-0.2C37.2,7.4,37.7,7.9,38,7.5z"/>
    <path class="st3" d="M10.6,7.2C10.3,8,9.9,8.1,9.5,8.1c-0.1,0-0.2-0.2-0.2-0.2C9.6,7.4,10.1,7.7,10.6,7.2z"/>
    <path class="st3" d="M38.1,33.2c-0.3,0.5-0.6,0.8-1,0.6c-0.3-0.1-0.1-0.4,0.2-0.4C37.5,33.4,37.7,33.2,38.1,33.2z"/>
    <path class="st2" d="M10.5,33.2c-0.3,0.5-0.6,0.8-1,0.6c-0.3-0.1-0.1-0.4,0.2-0.4C10,33.4,10.2,33.2,10.5,33.2z"/>
  </g>
</svg>
