<?xml version="1.0" encoding="utf-8"?>
<!-- Generator: Adobe Illustrator 23.1.1, SVG Export Plug-In . SVG Version: 6.00 Build 0)  -->
<svg version="1.1" id="Layer_1" xmlns="http://www.w3.org/2000/svg" xmlns:xlink="http://www.w3.org/1999/xlink" x="0px" y="0px"
	 viewBox="0 0 38.5 38.5" width="38.5" height="38.5" style="enable-background:new 0 0 38.5 38.5;" xml:space="preserve">
<style type="text/css">
	.st0{fill:#D7B981;}
	.st1{fill:#C2A685;}
	.st2{fill:#996C54;}
	.st3{fill:#876A45;}
	.st4{fill:#89724F;}
	.st5{fill:#C8CACA;}
	.st6{fill:#C4BCAA;}
	.st7{fill:#A48360;}
	.st8{fill:#A59581;}
</style>
<g>
	<path class="st0" d="M26.1,37.7c-0.6-3.7-3.2-5.8-6.2-7.7c-1.6,1.5-3.3,3-4.7,4.7c-0.7,0.8-0.7,2.1-1,3.2c-0.1,0.2-0.2,0.4-0.4,0.6
		h12.9c-0.2-0.1-0.3-0.2-0.5-0.3C26.2,38.1,26.1,37.9,26.1,37.7z"/>
	<path class="st1" d="M38.2,19.3c-2.1-1.5-3.9-0.6-5.6,0.7c-0.3,0.2-0.6,0.7-0.5,1c0.2,2.4,0.5,4.7,0.8,7.1c0.1,0.4,0.4,0.8,0.7,1.2
		c1.5,1.4,3,2.8,4.4,4.3c0.2,0.2,0.4,0.6,0.5,0.9V19.3C38.4,19.3,38.3,19.4,38.2,19.3z"/>
	<path class="st2" d="M36,15.1c0,0.2,0,0.4,0,0.6c-0.3,1.5,0.3,2.3,1.8,2.7c0.3,0.1,0.5,0.3,0.7,0.6V9.5c-0.1,0.3-0.2,0.5-0.4,0.7
		C36.3,11.4,35.7,13,36,15.1z"/>
	<path class="st3" d="M37.2,38.5h1.3v-2.9c-0.2,0.9-0.7,1.8-1.1,2.7C37.4,38.4,37.3,38.4,37.2,38.5z"/>
	<path class="st4" d="M13.4,34.4c-2.2-1.6-4.5-3-6.8-4.6c-0.6-0.4-1-0.3-1.5,0c-1.2,0.8-2.4,1.4-3.5,2.2c-0.4,0.3-0.8,1-0.9,1.5
		c-0.2,1.4-0.2,2.8-0.3,4.2c0,0.3-0.1,0.5-0.2,0.8h13c0.2-0.9,0.5-1.9,0.6-2.8C13.9,35.3,13.7,34.7,13.4,34.4z"/>
	<path class="st4" d="M37.6,34.5c-1.7-1.7-3.4-3.4-5.2-5.1c-2.1,1.3-4.2,2.6-6.2,3.8c-0.2,0.1-0.4,0.3-0.6,0.4
		c0.6,1.6,1.2,3.2,1.7,4.8c0,0,0,0,0,0h9.3c0.4-1.1,0.8-2,1.2-3C37.8,35.2,37.8,34.7,37.6,34.5z"/>
	<path class="st0" d="M30.5,6.1c1.7,1.7,3.4,3.3,5.2,5c1-0.9,1.9-1.7,2.8-2.6c0,0,0.1,0,0.1,0V0h-8c-0.1,1.7-0.3,3.3-0.4,5
		C30.1,5.3,30.2,5.9,30.5,6.1z"/>
	<path class="st2" d="M1.3,31.2c3.2-1.4,5.3-3.7,6.2-7.1c0.2-0.9,0.8-1.8,1.1-2.7c0.5-1.1,0.2-2-1-2.5c-1.2-0.5-2.3-1.1-3.5-1.5
		c-0.4-0.1-0.9,0-1.3,0.2C1.9,18,1,18.6,0,19v12.5c0.4-0.1,0.8-0.1,1.1-0.2C1.2,31.3,1.2,31.2,1.3,31.2z"/>
	<path class="st4" d="M2.6,7.3c1.9-2.1,3-4.3,1.6-7.2H0v9.7c0.6-0.4,1.2-0.8,1.6-1.2C2,8.2,2.2,7.6,2.6,7.3z"/>
	<path class="st1" d="M2.9,16.2c-1-2.1-1.2-4.7-2.9-6.3v8.6C0.6,17.4,2.1,17.2,2.9,16.2z"/>
	<path class="st0" d="M5.3,0.6C5.2,3,6.5,4.4,8.7,5.2c2,0.7,3.8,1.8,5.7,2.7c1.7,0.8,2.7,0.3,2.8-1.6c0.1-1.9,0.2-3.9,0.4-5.8
		c0-0.2,0.1-0.4,0.2-0.5H4.9C5,0.1,5.2,0.2,5.3,0.3C5.3,0.4,5.3,0.5,5.3,0.6z"/>
	<path class="st2" d="M18.4,7.9c0.9,0.4,2,1.1,2.8,0.8c2.5-0.8,4.9-1.9,7.3-2.9c0.3-0.2,0.7-0.7,0.7-1c0.2-1.5,0.3-3,0.5-4.4
		c0-0.1,0.1-0.3,0.2-0.4H18.4c-0.1,2.2-0.2,4.3-0.3,6.5C18,7,18.1,7.8,18.4,7.9z"/>
	<path class="st5" d="M38,33.6c-1.4-1.5-2.9-2.9-4.4-4.3c-0.3-0.3-0.7-0.8-0.7-1.2c-0.3-2.3-0.6-4.7-0.8-7.1c0-0.3,0.2-0.8,0.5-1
		c1.7-1.3,3.5-2.3,5.6-0.7c0.1,0,0.2,0,0.3,0v-0.5c-0.2-0.2-0.4-0.5-0.7-0.6c-1.4-0.4-2.1-1.2-1.8-2.7c0-0.2,0-0.4,0-0.6
		c-0.3-2.1,0.2-3.8,2.1-5c0.2-0.1,0.3-0.4,0.4-0.7V8.6c0,0-0.1,0-0.1,0c-0.9,0.8-1.8,1.7-2.8,2.6c-1.8-1.7-3.5-3.3-5.2-5
		c-0.3-0.3-0.3-0.8-0.3-1.2c0.1-1.7,0.3-3.3,0.4-5h-0.6c-0.1,0.1-0.2,0.3-0.2,0.4c-0.2,1.5-0.3,3-0.5,4.4c-0.1,0.4-0.4,0.9-0.7,1
		c-2.4,1-4.8,2.1-7.3,2.9c-0.8,0.2-2-0.4-2.8-0.8C18.1,7.8,18,7,18,6.5c0.1-2.2,0.2-4.3,0.3-6.5h-0.6c-0.1,0.2-0.2,0.3-0.2,0.5
		c-0.2,1.9-0.3,3.8-0.4,5.8c-0.1,1.8-1.1,2.4-2.8,1.6c-1.9-0.9-3.7-2-5.7-2.7C6.5,4.4,5.2,3,5.3,0.6c0-0.1,0-0.2,0-0.2
		C5.2,0.2,5,0.1,4.9,0H4.2c1.4,2.9,0.3,5.2-1.6,7.2C2.2,7.6,2,8.2,1.6,8.5C1.2,8.9,0.6,9.2,0,9.7v0.2c1.7,1.6,1.9,4.2,2.9,6.3
		c-0.9,1-2.4,1.2-2.9,2.3V19c1-0.5,1.9-1,2.8-1.5c0.4-0.2,0.9-0.3,1.3-0.2c1.2,0.4,2.4,1,3.5,1.5c1.1,0.5,1.5,1.4,1,2.5
		c-0.4,0.9-0.9,1.7-1.1,2.7c-0.9,3.4-3,5.8-6.2,7.1c-0.1,0-0.1,0.1-0.2,0.1c-0.3,0.1-0.7,0.1-1.1,0.2v7h0.3c0.1-0.2,0.1-0.5,0.2-0.8
		c0.1-1.4,0.1-2.8,0.3-4.2C0.8,33,1.2,32.3,1.6,32c1.1-0.8,2.3-1.4,3.5-2.2c0.5-0.3,1-0.4,1.5,0c2.2,1.6,4.6,3,6.8,4.6
		c0.3,0.2,0.5,0.9,0.5,1.3c-0.1,0.9-0.4,1.9-0.6,2.8h0.6c0.2-0.2,0.3-0.3,0.4-0.6c0.3-1.1,0.3-2.4,1-3.2c1.4-1.7,3.1-3.2,4.7-4.7
		c2.9,1.9,5.5,4,6.2,7.7c0,0.2,0.1,0.3,0.2,0.4c0.2,0.1,0.3,0.2,0.5,0.3h0.5c0,0,0,0,0,0c-0.6-1.6-1.1-3.2-1.7-4.8
		c0.3-0.2,0.4-0.3,0.6-0.4c2-1.3,4.1-2.5,6.2-3.8c1.8,1.7,3.5,3.3,5.2,5.1c0.2,0.2,0.2,0.7,0.1,1.1c-0.3,0.9-0.7,1.8-1.2,3h0.7
		c0.1-0.1,0.2-0.1,0.2-0.2c0.4-0.9,0.8-1.8,1.1-2.7v-1C38.4,34.2,38.2,33.9,38,33.6z M28.9,6.7c0.3-0.1,0.8,0,1,0.2
		c1.6,1.5,3.2,3,4.8,4.6c0.2,0.2,0.4,0.4,0.4,0.6c0,1.7,0,3.5,0,5.2c0,0.1-0.1,0.2-0.2,0.3c-1.5,0.8-2.8,2.2-4.7,2.2
		c-1.5,0-3,0-4.5,0c-0.3,0-0.9-0.3-1-0.6c-1.2-3.1-2.4-6.2-3.7-9.4C23.9,8.7,26.4,7.7,28.9,6.7z M8.4,18.2C7,17.6,5.6,17,4.3,16.4
		c-0.3-0.1-0.6-0.5-0.7-0.8c-0.7-1.6-1.3-3.3-1.8-5c-0.1-0.3-0.1-0.8,0.1-1C3.1,8,4.3,6.3,5.6,4.5c3.1,1.5,6,3,9.1,4.5
		C12.6,12.1,10.5,15.1,8.4,18.2z M19.4,28.9c-0.1,0.6-0.7,1.1-1.2,1.6c-1.1,1.2-2.3,2.3-3.4,3.4c-0.1,0.1-0.1,0.1-0.3,0.2
		c-2.7-1.8-5.3-3.5-8-5.4c1.1-2.6,2.2-5.1,3.3-7.7c3.1,1.2,6.1,2.5,9.1,3.7c0.2,0.1,0.4,0.2,0.4,0.4C19.3,26.3,19.5,27.6,19.4,28.9z
		 M19.7,23.7c-1.4,0.3-3.1-0.9-4.7-1.5c-1.5-0.6-2.9-1.2-4.4-1.8c-1.5-0.6-1.8-1.4-0.9-2.7c1.7-2.5,3.4-5,5.2-7.6
		c1-1.4,2.1-1.7,3.6-1.1c1.3,0.5,2,1.3,2.4,2.6c0.8,2.5,1.9,4.9,2.8,7.3c0.1,0.3,0.2,0.6,0.3,1C24.1,20,24,20.1,24,20.3
		c-0.1,0.1-0.2,0.2-0.4,0.3C22.3,21.7,21.2,23.4,19.7,23.7z M31.3,29c-1.9,1.2-3.8,2.4-5.8,3.5c-0.3,0.2-0.8,0.1-1.1-0.1
		c-0.5-0.3-1-0.7-1.4-1.1c-2.8-2.3-2.8-2.3-2.9-5.9c0-0.4,0.2-0.9,0.5-1.2c1.2-1.1,2.5-2.2,3.8-3.2c0.2-0.2,0.5-0.4,0.8-0.4
		c1.9,0,3.8,0,5.8,0c0.3,2.6,0.6,5,0.8,7.4C31.9,28.3,31.6,28.8,31.3,29z"/>
	<path class="st6" d="M23.6,20.6c0.1-0.1,0.3-0.2,0.4-0.3c0.1-0.1,0.1-0.3,0.2-0.4c-0.1-0.3-0.2-0.7-0.3-1c-0.9-2.4-2-4.8-2.8-7.3
		c-0.4-1.3-1.2-2.1-2.4-2.6C17,8.5,15.9,8.7,15,10.1c-1.7,2.5-3.5,5-5.2,7.6c-0.9,1.3-0.7,2.1,0.9,2.7c1.5,0.6,2.9,1.2,4.4,1.8
		c1.6,0.6,3.3,1.8,4.7,1.5C21.2,23.4,22.3,21.7,23.6,20.6z"/>
	<path class="st4" d="M25.9,19.8c1.5,0.1,3,0,4.5,0c1.9,0,3.2-1.4,4.7-2.2c0.1,0,0.2-0.2,0.2-0.3c0-1.7,0-3.5,0-5.2
		c0-0.2-0.2-0.4-0.4-0.6C33.2,10,31.6,8.4,30,6.9c-0.2-0.2-0.8-0.3-1-0.2c-2.5,1-5.1,2-7.7,3.1c1.2,3.2,2.4,6.3,3.7,9.4
		C25,19.5,25.5,19.7,25.9,19.8z"/>
	<path class="st7" d="M25.3,20.6c-0.3,0-0.6,0.2-0.8,0.4c-1.3,1.1-2.5,2.1-3.8,3.2c-0.3,0.3-0.5,0.8-0.5,1.2
		c0.1,3.6,0.1,3.6,2.9,5.9c0.5,0.4,0.9,0.8,1.4,1.1c0.3,0.2,0.8,0.3,1.1,0.1c2-1.1,3.9-2.3,5.8-3.5c0.3-0.2,0.6-0.7,0.6-1
		c-0.2-2.4-0.5-4.9-0.8-7.4C29.1,20.6,27.2,20.6,25.3,20.6z"/>
	<path class="st8" d="M18.8,24.7c-3-1.2-6-2.4-9.1-3.7c-1.1,2.6-2.2,5.2-3.3,7.7c2.7,1.8,5.4,3.6,8,5.4c0.2-0.1,0.2-0.2,0.3-0.2
		c1.1-1.1,2.3-2.2,3.4-3.4c0.5-0.5,1.2-1,1.2-1.6c0.1-1.3-0.1-2.6-0.2-3.8C19.2,24.9,19,24.7,18.8,24.7z"/>
	<path class="st2" d="M5.6,4.5C4.3,6.3,3.1,8,1.9,9.7c-0.2,0.2-0.2,0.7-0.1,1c0.6,1.7,1.2,3.3,1.8,5C3.7,16,4,16.3,4.3,16.4
		C5.6,17,7,17.6,8.4,18.2c2.1-3.1,4.2-6.1,6.3-9.2C11.6,7.5,8.6,6,5.6,4.5z"/>
</g>
</svg>
