<?xml version="1.0" encoding="utf-8"?>
<!-- Generator: Adobe Illustrator 27.3.1, SVG Export Plug-In . SVG Version: 6.00 Build 0)  -->
<svg version="1.1" id="Layer_1" xmlns="http://www.w3.org/2000/svg" xmlns:xlink="http://www.w3.org/1999/xlink" x="0px" y="0px"
	 viewBox="0 0 108 108" width="108" height="108" style="enable-background:new 0 0 108 108;" xml:space="preserve">
<style type="text/css">
	.st0{fill:#9ECCE5;}
	.st1{fill:#0499CF;}
</style>
<g>
	<rect class="st0" width="108" height="108"/>
	<path class="st1" d="M90,11.6c-5.3,0-8.1-1.2-10.5-2.2c-2.1-0.9-3.8-1.6-7.5-1.6c-3.7,0-5.4,0.7-7.5,1.6c-2.5,1-5.2,2.2-10.5,2.2
		c-5.3,0-8.1-1.2-10.5-2.2c-2.1-0.9-3.8-1.6-7.5-1.6c-3.7,0-5.4,0.7-7.5,1.6c-2.4,1-5.2,2.2-10.5,2.2c-5.3,0-8.1-1.2-10.5-2.2
		C5.4,8.5,3.7,7.8,0,7.8V0c5.3,0,8.1,1.2,10.5,2.2c2.1,0.9,3.8,1.6,7.5,1.6c3.7,0,5.4-0.7,7.5-1.6C27.9,1.2,30.7,0,36,0
		c5.3,0,8.1,1.2,10.5,2.2c2.1,0.9,3.8,1.6,7.5,1.6c3.7,0,5.4-0.7,7.5-1.6C63.9,1.2,66.7,0,72,0c5.3,0,8.1,1.2,10.5,2.2
		c2.1,0.9,3.8,1.6,7.5,1.6s5.4-0.7,7.5-1.6c2.5-1,5.2-2.2,10.5-2.2v7.7c-3.7,0-5.4,0.7-7.5,1.6C98.1,10.4,95.3,11.6,90,11.6z"/>
	<path class="st1" d="M90,22.3c-5.3,0-8.1-1.2-10.5-2.2c-2.1-0.9-3.8-1.6-7.5-1.6c-3.7,0-5.4,0.7-7.5,1.6c-2.5,1-5.2,2.2-10.5,2.2
		c-5.3,0-8.1-1.2-10.5-2.2c-2.1-0.9-3.8-1.6-7.5-1.6c-3.7,0-5.4,0.7-7.5,1.6c-2.5,1-5.2,2.2-10.5,2.2c-5.3,0-8.1-1.2-10.5-2.2
		c-2.1-0.9-3.8-1.6-7.5-1.6v-7.7c5.3,0,8.1,1.2,10.5,2.2c2.1,0.9,3.8,1.6,7.5,1.6c3.7,0,5.4-0.7,7.5-1.6c2.5-1,5.2-2.2,10.5-2.2
		c5.3,0,8.1,1.2,10.5,2.2c2.1,0.9,3.8,1.6,7.5,1.6c3.7,0,5.4-0.7,7.5-1.6c2.5-1,5.2-2.2,10.5-2.2c5.3,0,8.1,1.2,10.5,2.2
		c2.1,0.9,3.8,1.6,7.5,1.6s5.4-0.7,7.5-1.6c2.5-1,5.2-2.2,10.5-2.2v7.7c-3.7,0-5.4,0.7-7.5,1.6C98.1,21.1,95.3,22.3,90,22.3z"/>
	<path class="st1" d="M90,33c-5.3,0-8.1-1.2-10.5-2.2c-2.1-0.9-3.8-1.6-7.5-1.6c-3.7,0-5.4,0.7-7.5,1.6c-2.5,1-5.2,2.2-10.5,2.2
		c-5.3,0-8.1-1.2-10.5-2.2c-2.1-0.9-3.8-1.6-7.5-1.6c-3.7,0-5.4,0.7-7.5,1.6c-2.5,1-5.2,2.2-10.5,2.2c-5.3,0-8.1-1.2-10.5-2.2
		c-2.1-0.9-3.8-1.6-7.5-1.6v-7.7c5.3,0,8.1,1.2,10.5,2.2c2.1,0.9,3.8,1.6,7.5,1.6c3.7,0,5.4-0.7,7.5-1.6c2.5-1,5.2-2.2,10.5-2.2
		c5.3,0,8.1,1.2,10.5,2.2c2.1,0.9,3.8,1.6,7.5,1.6c3.7,0,5.4-0.7,7.5-1.6c2.5-1,5.2-2.2,10.5-2.2c5.3,0,8.1,1.2,10.5,2.2
		c2.1,0.9,3.8,1.6,7.5,1.6s5.4-0.7,7.5-1.6c2.5-1,5.2-2.2,10.5-2.2v7.7c-3.7,0-5.4,0.7-7.5,1.6C98.1,31.8,95.3,33,90,33z"/>
	<path class="st1" d="M90,43.7c-5.3,0-8.1-1.2-10.5-2.2c-2.1-0.9-3.8-1.6-7.5-1.6c-3.7,0-5.4,0.7-7.5,1.6c-2.5,1-5.2,2.2-10.5,2.2
		c-5.3,0-8.1-1.2-10.5-2.2c-2.1-0.9-3.8-1.6-7.5-1.6c-3.7,0-5.4,0.7-7.5,1.6c-2.5,1-5.2,2.2-10.5,2.2c-5.3,0-8.1-1.2-10.5-2.2
		c-2.1-0.9-3.8-1.6-7.5-1.6v-7.7c5.3,0,8.1,1.2,10.5,2.2c2.1,0.9,3.8,1.6,7.5,1.6c3.7,0,5.4-0.7,7.5-1.6c2.5-1,5.2-2.2,10.5-2.2
		c5.3,0,8.1,1.2,10.5,2.2c2.1,0.9,3.8,1.6,7.5,1.6c3.7,0,5.4-0.7,7.5-1.6c2.5-1,5.2-2.2,10.5-2.2c5.3,0,8.1,1.2,10.5,2.2
		c2.1,0.9,3.8,1.6,7.5,1.6s5.4-0.7,7.5-1.6c2.5-1,5.2-2.2,10.5-2.2v7.7c-3.7,0-5.4,0.7-7.5,1.6C98.1,42.5,95.3,43.7,90,43.7z"/>
	<path class="st1" d="M90,54.4c-5.3,0-8.1-1.2-10.5-2.2c-2.1-0.9-3.8-1.6-7.5-1.6c-3.7,0-5.4,0.7-7.5,1.6c-2.5,1-5.2,2.2-10.5,2.2
		c-5.3,0-8.1-1.2-10.5-2.2c-2.1-0.9-3.8-1.6-7.5-1.6c-3.7,0-5.4,0.7-7.5,1.6c-2.5,1-5.2,2.2-10.5,2.2c-5.3,0-8.1-1.2-10.5-2.2
		c-2.1-0.9-3.8-1.6-7.5-1.6v-7.7c5.3,0,8.1,1.2,10.5,2.2c2.1,0.9,3.8,1.6,7.5,1.6c3.7,0,5.4-0.7,7.5-1.6c2.5-1,5.2-2.2,10.5-2.2
		c5.3,0,8.1,1.2,10.5,2.2c2.1,0.9,3.8,1.6,7.5,1.6c3.7,0,5.4-0.7,7.5-1.6c2.5-1,5.2-2.2,10.5-2.2c5.3,0,8.1,1.2,10.5,2.2
		c2.1,0.9,3.8,1.6,7.5,1.6s5.4-0.7,7.5-1.6c2.5-1,5.2-2.2,10.5-2.2v7.7c-3.7,0-5.4,0.7-7.5,1.6C98.1,53.2,95.3,54.4,90,54.4z"/>
	<path class="st1" d="M90,65.1c-5.3,0-8.1-1.2-10.5-2.2c-2.1-0.9-3.8-1.6-7.5-1.6c-3.7,0-5.4,0.7-7.5,1.6c-2.5,1-5.2,2.2-10.5,2.2
		c-5.3,0-8.1-1.2-10.5-2.2c-2.1-0.9-3.8-1.6-7.5-1.6c-3.7,0-5.4,0.7-7.5,1.6c-2.5,1-5.2,2.2-10.5,2.2c-5.3,0-8.1-1.2-10.5-2.2
		C5.4,62,3.7,61.3,0,61.3v-7.7c5.3,0,8.1,1.2,10.5,2.2c2.1,0.9,3.8,1.6,7.5,1.6c3.7,0,5.4-0.7,7.5-1.6c2.5-1,5.2-2.2,10.5-2.2
		c5.3,0,8.1,1.2,10.5,2.2c2.1,0.9,3.8,1.6,7.5,1.6c3.7,0,5.4-0.7,7.5-1.6c2.5-1,5.2-2.2,10.5-2.2c5.3,0,8.1,1.2,10.5,2.2
		c2.1,0.9,3.8,1.6,7.5,1.6s5.4-0.7,7.5-1.6c2.5-1,5.2-2.2,10.5-2.2v7.7c-3.7,0-5.4,0.7-7.5,1.6C98.1,63.9,95.3,65.1,90,65.1z"/>
	<path class="st1" d="M90,75.8c-5.3,0-8.1-1.2-10.5-2.2C77.4,72.7,75.7,72,72,72c-3.7,0-5.4,0.7-7.5,1.6c-2.5,1-5.2,2.2-10.5,2.2
		c-5.3,0-8.1-1.2-10.5-2.2C41.4,72.7,39.7,72,36,72c-3.7,0-5.4,0.7-7.5,1.6c-2.5,1-5.2,2.2-10.5,2.2c-5.3,0-8.1-1.2-10.5-2.2
		C5.4,72.7,3.7,72,0,72v-7.7c5.3,0,8.1,1.2,10.5,2.2c2.1,0.9,3.8,1.6,7.5,1.6c3.7,0,5.4-0.7,7.5-1.6c2.5-1,5.2-2.2,10.5-2.2
		c5.3,0,8.1,1.2,10.5,2.2c2.1,0.9,3.8,1.6,7.5,1.6c3.7,0,5.4-0.7,7.5-1.6c2.5-1,5.2-2.2,10.5-2.2c5.3,0,8.1,1.2,10.5,2.2
		c2.1,0.9,3.8,1.6,7.5,1.6s5.4-0.7,7.5-1.6c2.5-1,5.2-2.2,10.5-2.2V72c-3.7,0-5.4,0.7-7.5,1.6C98.1,74.6,95.3,75.8,90,75.8z"/>
	<path class="st1" d="M90,86.5c-5.3,0-8.1-1.2-10.5-2.2c-2.1-0.9-3.8-1.6-7.5-1.6c-3.7,0-5.4,0.7-7.5,1.6c-2.5,1-5.2,2.2-10.5,2.2
		c-5.3,0-8.1-1.2-10.5-2.2c-2.1-0.9-3.8-1.6-7.5-1.6c-3.7,0-5.4,0.7-7.5,1.6c-2.5,1-5.2,2.2-10.5,2.2c-5.3,0-8.1-1.2-10.5-2.2
		c-2.1-0.9-3.8-1.6-7.5-1.6v-7.7c5.3,0,8.1,1.2,10.5,2.2c2.1,0.9,3.8,1.6,7.5,1.6c3.7,0,5.4-0.7,7.5-1.6c2.5-1,5.2-2.2,10.5-2.2
		c5.3,0,8.1,1.2,10.5,2.2c2.1,0.9,3.8,1.6,7.5,1.6c3.7,0,5.4-0.7,7.5-1.6c2.5-1,5.2-2.2,10.5-2.2c5.3,0,8.1,1.2,10.5,2.2
		c2.1,0.9,3.8,1.6,7.5,1.6s5.4-0.7,7.5-1.6c2.5-1,5.2-2.2,10.5-2.2v7.7c-3.7,0-5.4,0.7-7.5,1.6C98.1,85.3,95.3,86.5,90,86.5z"/>
	<path class="st1" d="M90,97.2c-5.3,0-8.1-1.2-10.5-2.2c-2.1-0.9-3.8-1.6-7.5-1.6c-3.7,0-5.4,0.7-7.5,1.6c-2.5,1-5.2,2.2-10.5,2.2
		c-5.3,0-8.1-1.2-10.5-2.2c-2.1-0.9-3.8-1.6-7.5-1.6c-3.7,0-5.4,0.7-7.5,1.6c-2.5,1-5.2,2.2-10.5,2.2c-5.3,0-8.1-1.2-10.5-2.2
		c-2.1-0.9-3.8-1.6-7.5-1.6v-7.7c5.3,0,8.1,1.2,10.5,2.2c2.1,0.9,3.8,1.6,7.5,1.6c3.7,0,5.4-0.7,7.5-1.6c2.5-1,5.2-2.2,10.5-2.2
		c5.3,0,8.1,1.2,10.5,2.2c2.1,0.9,3.8,1.6,7.5,1.6c3.7,0,5.4-0.7,7.5-1.6c2.5-1,5.2-2.2,10.5-2.2c5.3,0,8.1,1.2,10.5,2.2
		c2.1,0.9,3.8,1.6,7.5,1.6s5.4-0.7,7.5-1.6c2.5-1,5.2-2.2,10.5-2.2v7.7c-3.7,0-5.4,0.7-7.5,1.6C98.1,96,95.3,97.2,90,97.2z"/>
	<path class="st1" d="M90,107.9c-5.3,0-8.1-1.2-10.5-2.2c-2.1-0.9-3.8-1.6-7.5-1.6c-3.7,0-5.4,0.7-7.5,1.6c-2.5,1-5.2,2.2-10.5,2.2
		c-5.3,0-8.1-1.2-10.5-2.2c-2.1-0.9-3.8-1.6-7.5-1.6c-3.7,0-5.4,0.7-7.5,1.6c-2.5,1-5.2,2.2-10.5,2.2c-5.3,0-8.1-1.2-10.5-2.2
		c-2.1-0.9-3.8-1.6-7.5-1.6v-7.7c5.3,0,8.1,1.2,10.5,2.2c2.1,0.9,3.8,1.6,7.5,1.6c3.7,0,5.4-0.7,7.5-1.6c2.5-1,5.2-2.2,10.5-2.2
		c5.3,0,8.1,1.2,10.5,2.2c2.1,0.9,3.8,1.6,7.5,1.6c3.7,0,5.4-0.7,7.5-1.6c2.5-1,5.2-2.2,10.5-2.2c5.3,0,8.1,1.2,10.5,2.2
		c2.1,0.9,3.8,1.6,7.5,1.6s5.4-0.7,7.5-1.6c2.5-1,5.2-2.2,10.5-2.2v7.7c-3.7,0-5.4,0.7-7.5,1.6C98.1,106.7,95.3,107.9,90,107.9z"/>
</g>
</svg>
