<?xml version="1.0" encoding="utf-8"?>
<!-- Generator: Adobe Illustrator 23.1.1, SVG Export Plug-In . SVG Version: 6.00 Build 0)  -->
<svg version="1.1" id="Layer_3" xmlns="http://www.w3.org/2000/svg" xmlns:xlink="http://www.w3.org/1999/xlink" x="0px" y="0px"
	 viewBox="0 0 108 108" style="enable-background:new 0 0 108 108;" xml:space="preserve">
<style type="text/css">
	.st0{fill:#315124;}
	.st1{fill:#6C9A39;}
	.st2{fill:#50782F;}
	.st3{fill:#9CAD3B;}
	.st4{fill:#3D6029;}
</style>
<g>
	<path class="st0" d="M73.8,87.3c-0.9-0.8-2.5-1.4-3.1-1.4c-0.5,0-1.6,0.6-1.8-0.2s-1.1-0.5-2.1-0.8c-1-0.3,1.8,0.8-1.5,0.8
		c-3.4,0-3.8-0.7-7.4,0.2s-3.3,0.9-4.9,0.8c-1.6,0-0.7,2.3-0.7,2.3c-1.1,0.3-2.4,0.8-5.2,0.5c-2.8-0.3-3.5-3-4.4-3.1
		c-0.9-0.1,0.3-0.4-0.9-0.1s0.3-0.9-0.9-1.3c-1.2-0.5-3.9,0.6-4,0.9c-0.1,0.3-2.9-0.3-3,1.2c-0.1,1.5,1.6,0.9,3.5,2.6
		c1.9,1.7,1.8,4,4,4.1c2.3,0.1,3.6,0.3,4.9,0c1.3-0.3,6.7,0.2,7.3,0.2c1.7,0.4,5.5,2.1,6,1.5c0.4-0.6,1.9-0.1,2.7-1.5
		c0.8-1.3,1.5-3.3,1.9-3.5c0,0,0,0,0,0c0.2-0.2,1-0.4,1.6-0.5c0.9,0.1,2.4,0.1,3.2,0c0.8-0.1,1.3-0.4,1.9-0.8
		C71.6,88.7,74.7,88.1,73.8,87.3z"/>
	<path class="st1" d="M52.1,6.1c0.5,3.3,2.3,3.7,0,6.2s-3.3,0.6-2.8,3.8s1.8,1.8,0.9,4.6c-1,2.8,1,2.4-1,4.2c-2,1.7-1.1,2.1-2.6,1.1
		c-1.5-1-2.8-1.4-2,0.5c0.9,1.9,1.5,0.4,2.2,3.1c0.7,2.7,1.7,3.3,0.6,4.4s-2.5,3.4-3.1,5c-0.6,1.6-1.7,0.9-2.8,2.2
		c-1.1,1.3-2,1.3-2.1,3.3c-0.1,2-0.9,4-0.6,5.3c0.2,1.2,0.3,2.7,0,3.4c-0.3,0.7-0.5,0.9,0,2c0.5,1.1,1.4,1.3,1.3,2.8
		c-0.1,1.5-2.2,1.6-2.4,2.2c-0.2,0.6-0.5-0.5,0.5,2c1,2.5,1.2,2.6,0,4.2c-1.2,1.6-3.3,3.8-3.8,4.6s-0.7,2,0.7,3.7
		c1.5,1.7,0.7-0.1,2,2.2s-0.4,3.5,0.7,3.7s1.7,0.9,2,1.8c0.2,1-1.2,1.6-0.6,2.9c0.6,1.3,1.2,1,2.7,2.4c1.5,1.5,1.5,2.9,2.8,3.4
		c1.3,0.5,0.5-0.2,2.3,0c1.8,0.2,1.3,1.1,3.3,0.2c2-0.9,2.3-1.5,3-1c0.7,0.5,3.5,1.9,4.5,1.4s1,0.4,3.2-1.1c2.2-1.5,1.5-2.6,3.1-3.1
		c1.6-0.5,1.5-1.2,2.7-2.1s1.7-0.9,2.8-1.7c1.1-0.9,0.5-2.4,0-3.1c-0.5-0.6-1.7-1.7-0.6-2.6c1.1-0.9,2.1-1.7,1.2-2.2
		c-0.9-0.5-0.7-1.1-0.4-1.8c0.4-0.7,1.4-2,0.7-2.8s-1.3-1-2-2c-0.7-1,0.2-2.1,0.4-2.4s1.3,1.6,0.2-1.7c-1.1-3.3-1.1-4.2-0.1-4.4
		c1-0.2,2.6-0.5,1.8-1.3c-0.8-0.9-1.9-1.3-2.2-1.7c-0.2-0.4-1.6-1.1-1.2-2.4c0.4-1.3,0.1-2.8-0.5-3.8c-0.6-1-0.2-1.9,0.1-2.7
		c0.4-0.8-0.4-1.6-1-3.7c-0.6-2.1-1.7-3.7-2.2-4.5c-0.5-0.9-1.3-0.9-0.7-2.1s1.8-3.2,1-4c-0.9-0.9-2.8-0.4-3.2-1.6
		c-0.4-1.2,0.1-1.8-0.1-3.8c-0.2-2,0.5-2.1-0.1-3.4s-0.9-2.4-1.7-1.6c-0.9,0.9-1,1-1.6,0.2c-0.7-0.7-2.9-3.1-2.1-4.8
		c0.7-1.7,0.6-3.2,0.2-4.2c-0.4-1-0.1-2.1-0.1-3.1s0-1.3-0.4-2.3S52.1,6.1,52.1,6.1z"/>
	<path class="st2" d="M49.3,39.8c0.2,0.5,1,2.2,1,2.8s2.2,1.7,2.2,1.7s-0.5,1.2,0,0.9c0.5-0.4,0.5-2.5,1-2.7
		c0.5-0.2,0.9,0.2,1.5-0.9s2,0.5,0.6-1.8c-1.3-2.3-2.4-2.9-2.8-3.3s-1.7,0-1.7,0L49.3,39.8z"/>
	<path class="st2" d="M46.4,40.8l2.1,1.5c0,0,0.4,1.8,0,2.2c-0.4,0.4-0.3,2,0.2,2.1s0.6,1.3,0.6,1.3S49,49.5,48.4,49
		c-0.6-0.5-3.5-1.7-3.7-1.4s-0.5,1.7-0.9,1.4c-0.4-0.3-2.2-0.8-2.2-0.8v-3c0,0,1.1,1.5,1.7,1c0.6-0.5,1.7-0.5,1.1-1.3
		c-0.6-0.9-1.1-1-1.2-1.5c-0.1-0.5-1.6-0.2-1.6-0.2s0.6-1,1.2-1.1c0.6-0.1,2.3,0.2,2.6-0.2C45.7,41.4,46.4,40.8,46.4,40.8z"/>
	<path class="st2" d="M57.1,50c-0.1,0.4-0.7,1.5-0.6,2.3c0.1,0.9,1.5,2.1,1.5,2.1s1,0.7,1.7,0.6c0.7-0.1,2.3-1.6,2.8-2.5
		s0.1-1.3-0.5-2.5c-0.6-1.2-0.9-0.9-0.6-2.2c0.2-1.3-0.5-0.9-1.1,0c-0.6,0.9-1.7,0.4-1.8-0.1S58.2,49,58.2,49L57.1,50z"/>
	<path class="st2" d="M52.4,53.8c0.6,0.7,0.8,3.4,1.4,4.3s3.1,3.6,2.3,4.1c-0.8,0.5-4.1-0.2-4.6,0c-0.5,0.2,0,2,0,2s2.1,5.1,0.9,5.9
		c-1.2,0.7-1.9,2.6-1.2,2.3c0.7-0.2,2.3-1.7,2.4-0.5c0.1,1.2-0.6,2.9,0,3.3c0.6,0.4,1.5,0.4,1.7,1c0.1,0.6-2.4,4.5-2.6,5.5
		s-0.7,3.8-1.2,3.9s-3.3-0.2-2.7-1.7c0.6-1.5,1.9-4.3,2.2-5s0.2-1.8,0-2.2c-0.2-0.4-2,0.7-2.3,1.7c-0.3,1-0.3,2.2-0.6,2.9
		c-0.4,0.7-0.4,2.3-1.2,2c-0.9-0.4-1.7-0.7-2.4-0.5c-0.7,0.2-2.3,0.7-2.2-0.4s-0.7-4.4-0.5-4.9c0.2-0.5,1.1-1.1,2-1.5
		c0.9-0.4,2.4-2,1.1-2.1c-1.3-0.1-1.9,0.1-3.1,0c-1.2-0.1-1.2-1.7-1.2-1.7s1.8-1.1,1.2-2.6c-0.6-1.5-1.7-2.6-0.5-3.3
		c1.2-0.7,2.3-0.9,1.7-2.1c-0.6-1.2-1.8-2.6-1.2-2.9s0-2.6,0.7-2.7c0.7-0.1,2.7,2.2,3.8,1.7s2.1-1.5,3.1-2.3s0.9,0.5,1.7,0.4
		c0.8-0.1,1.7,0.4,1.5-0.5C52.2,57.1,52.4,53.8,52.4,53.8z"/>
	<path class="st2" d="M61.4,63.6c0.4,0.4,1.7,1.2,2.3,0.7c0.6-0.5,1.6-0.7,2.2-0.7c0.6,0,1.5,1.2,1.5,1.7c0,0.5-1.8,1.8-1.8,1.8
		s-1.9,0.6-2.7,0.6s-1.1,0.7-1.4,0C61,67,61.4,63.6,61.4,63.6z"/>
	<path class="st2" d="M64.3,73.5c0.6,0.6,3,2.2,3.1,2.3s-0.5,2-1,2.7c-0.5,0.7-1.1,2.7-2.1,2.2c-1-0.5-1.2,0.5-3.1-0.6
		c-1.9-1.1-3.1-4.6-2.5-4.4s6.3,2.9,5.6,1.4c-0.7-1.4-2.3-1.7-3.1-2.1c-0.8-0.4-1-0.1-1.5-1c-0.5-0.9,0.4-1.1,0-2.6
		c-0.4-1.5-2.2-3.9-1.2-3.5c1,0.4,2.8,1.6,2.7,2.2c-0.1,0.6,1.6,1,1.6,1L64.3,73.5z"/>
	<path class="st2" d="M58.2,81.4c0,0,2.6,1.3,3,2.1c0.4,0.7,2.2,1.9,0.9,2.1c-1.3,0.2-2.5-0.1-3.9-0.8c-1.4-0.6-3-0.6-3-2.4
		s0.2-3.4,0.8-3.7s1.7,0.2,1.6,0.6C57.6,79.7,58.2,81.4,58.2,81.4z"/>
	<path class="st2" d="M54.5,50.4C54,49.5,51.6,51,51.6,51s0.4,1.7-0.6,2.1c-1.1,0.4-2.9,0.6-3.2,0.7c-0.2,0.1-0.1,0.6-1.2,1.2
		c-1.1,0.6-3.1,1.5-3.1,0c0-1.5,0-4.9-0.7-4c-0.7,0.8-1,3.6-1.6,2.8c-0.6-0.9-0.9-0.7-0.7-1.7s0.1-2,0.7-2c0.6,0,2.3,0,2.3,0
		s0.5,0.1,0.6,0.9c0.1,0.8,0.4,2.5,0.7,2s0.2-2.6,1.3-2c1.1,0.6,0.1,1.1,1.1,0.6c1-0.5,0.6,0.4,2-0.6c1.3-1,1.3-1.7,1.7-2
		c0.4-0.3,0.1-0.5,0.9,0C52.6,49.5,54.5,50.4,54.5,50.4z"/>
	<path class="st2" d="M58.2,30.4c-0.4,0.7,0.1,3.2-1.1,2.3c-1.2-0.9-1.1-1.3-1.1-2.3c0-1,0-1,0.5-1.2S58.2,30.4,58.2,30.4z"/>
	<path class="st2" d="M52.7,16.9c0,0-1,1.1-0.3,2.1c0.8,1,0.3,2.4,0.3,2.4s-1,1.6-0.6,1.8c0.4,0.2-0.1,0.1,0.7-0.6
		c0.8-0.7,1.1-2.7,1.1-3.4c0-0.7,0.4-0.7,0-1.7C53.5,16.6,52.7,16.9,52.7,16.9z"/>
	<path class="st3" d="M50,27.9l2-1.3l0.7,1.3c0,0-0.7,0.9-0.7,1.7s0.9,1.3,0.7,2.1c-0.2,0.7-1.3,1.1-1.3,1.1s0,0.6-0.6-0.9
		c-0.6-1.5-1.1-2.3-1.5-2.2c-0.4,0.1-0.8,0.3-0.9-0.7c-0.1-0.9,0.9-1.5,0.9-1.5L50,27.9z"/>
	<path class="st3" d="M54.1,35.5c0.8,0.2,2.4,0.7,2.4,1.3s2.5,2.1,2.5,2.1s1.1,1.3,0.8,1.2c-0.3-0.1-1.3,0.1-1.5,0.6
		c-0.1,0.5-1.5,1.7-1.1,0.9c0.4-0.9,0.2-2.6-0.2-2.9c-0.4-0.3-0.4-0.8-0.8-1C55.6,37.5,54.1,35.5,54.1,35.5z"/>
	<path class="st3" d="M56.2,46.1c0,0,1.7-1.2,2-1.2c0.2,0-0.2,0.7,0,1.2s1.4,1.6,0.3,1.6c-1.1,0-1.9,1.2-2,1.8s-0.5,2.2-0.5,2.2
		s-0.5-2.3,0-3s0.5-0.9,0.5-1.3c0-0.4-1.8-0.5-2.1-0.5c-0.2,0-2.1-0.7-2.1-0.7S55.5,45.8,56.2,46.1z"/>
	<path class="st3" d="M62.8,56.4c0,0-1.1,1.1-1.6,1.5c-0.4,0.4,0.8,1.5,0.8,1.5s-0.6,1.7-0.8,2c-0.2,0.2-1.2,0.6-1.5,1.2
		c-0.3,0.6,0.8,1.5,0,2c-0.8,0.5-2.3-0.1-1.5,1.4s0.8,1.4,0.8,1.4s-2.6-1.8-2.1-2.6c0.4-0.7,1-0.8,1.3-1.1c0.3-0.4,0.6-1.5,0.7-1.8
		c0.1-0.3,0.5-0.7,0.8-1c0.3-0.4,0.2-0.2,0.1-1.1c-0.1-0.9-0.3-1-0.1-1.5c0.2-0.5,0.1-1.1,0.1-1.1L62.8,56.4z"/>
	<path class="st3" d="M54.5,65.8c0,0-0.9,0.6-0.4,1.4c0.4,0.9,0.7,2.1,0.4,2.4c-0.2,0.4-0.4,1.2-0.4,1.2l1.2,1.6
		c0,0-0.8,0.9-0.7,1.3c0.2,0.5,1.4,0.2,1.6,0c0.2-0.2,0.9-1.1,0.9-1.1s-0.1-1.5,0-1.2c0.1,0.2-1.1,1-1.1,1s-1.1-0.6-0.4-1
		c0.8-0.4,0.2-1.2-0.5-1.8c-0.6-0.6,0.4-0.8,0-1.7C54.9,67.1,54.5,65.8,54.5,65.8z"/>
	<path class="st3" d="M53.9,82.9l5,2.7l0.8,1.1c0,0-0.5,0.7-1.5,0c-1-0.7-4-1.8-4.1-2.3C53.9,83.9,53.9,82.9,53.9,82.9z"/>
	<path class="st3" d="M39,69c0,0-1.5,1.3-1.8,1.6c-0.4,0.2-1.1,0.7-1.2,1.1c-0.1,0.4,1.5,1.2,1.5,1.2l1,1.5l-1-2.7h-0.9L39,69z"/>
	<path class="st3" d="M55.7,23.4c0.2-0.3,1.4-2.7,1.4-2.7l0.4,2.7c0,0-1.2,0.2,0,0.5s0.8,0.8,0.6,0.9c-0.1,0.1-1.1,0.6-1.1,0.7
		s-0.3,1.1-0.3,1.1l-0.4-2.7l-1.2,1L55.7,23.4z"/>
	<path class="st3" d="M62.1,31l-1.5,0.6c0,0,0.6,0.4,0.1,1.4c-0.5,1-0.2,1.2-0.1,1.6c0.1,0.4,0,2.4,0.6,0.9c0.7-1.6,0.7-1.6,0.7-1.6
		l0.6-1.7L62.1,31z"/>
	<path class="st3" d="M65.1,41.9c0.1-0.7,0.6-1.2,0.6-1.2s0.7,0.6,0.9,1.2c0.1,0.6-0.2,1.1-0.7,1.5c-0.5,0.4-0.1,1.2-0.7,1.5
		c-0.6,0.2-1.1,0.9-1.5,0c-0.4-0.9-1.2-1-0.9-1.2C63.1,43.4,65.1,41.9,65.1,41.9z"/>
	<path class="st4" d="M48.3,61.8c-0.7,0.3-2.9,1.8-2.9,1.8s-0.6,2,0,2.8s2.7,1.6,1.3,2.6s-2,1.1-1.6,1.7c0.4,0.6,2.2,1.1,2.3,1.8
		c0.1,0.7-0.9,2.7-0.8,3.2c0.1,0.5-1,2.6,0.8,1.6c1.8-1,2.8-2.1,2.5-3.1c-0.2-1-1-2.2-0.7-3.1c0.2-0.9,1.5-1.8,0.8-3
		s-1.3-1.7-1.7-2.2C47.9,65.3,48.3,61.8,48.3,61.8z"/>
	<path class="st4" d="M50.5,55.9c0,0,1.8,0,2.2,0c0.4,0,0.3,0.2,1.4,0.5c1.1,0.4,1.2,1.2,0.4,1.5c-0.7,0.2-1.7-1.3-2.1,0.1
		c-0.5,1.4-0.9,2.4-1.1,2.2c-0.1-0.2-1.7-2.4-2.1-1.4s-1.5,2.1-1.6,0.8c-0.1-1.4,0.7-2.1,0.7-2.1l1.9-1"/>
	<path class="st4" d="M60.4,51l2.3-2c0,0,1.7,0.7,1.5,1c-0.2,0.2-0.8,1.1-1.5,1.3c-0.8,0.2-1.1-0.7-1.2,1c-0.1,1.7-1.1,1.5-1.1,1.5
		V51z"/>
	<path class="st4" d="M45.5,43.1c0.5,0.6,2,2,2,1.9c0-0.1,0.9,0.1,1.1-0.5c0.2-0.6,0-2.2,0-2.2s-0.9-0.6-1.5-1
		C46.4,40.8,45.5,43.1,45.5,43.1z"/>
	<path class="st4" d="M54.1,26.6c-0.2,0.2-0.1,2.5-0.1,2.5s0.5,0.8,0,1.4s0.6,2.5,0.6,2.5l2.1-0.8L55,29.8c0,0,0.5,0.5,0-0.7
		C54.5,27.9,54.1,26.6,54.1,26.6z"/>
	<path class="st4" d="M64.7,79.7c0,0,0.3,3.2,0,3.2s0.6,0.5,1.1,0c0.5-0.5,0.3-0.5,0.9-1.5c0.6-1-0.3-2.9-0.3-2.9s-0.3-1.2-0.6-0.9
		c-0.3,0.2-1.5,3.1-1.5,3.1"/>
	<path class="st4" d="M62.4,84l-0.9,1.7l1.3,0.8l1.5-0.8c0,0-1.4,0.6-1.4-0.6c0.1-1.2,0-1.6-0.5-2.1c-0.5-0.5-1.5-1.1-1.9-0.7
		c-0.4,0.3-0.6,1-0.6,1L62.4,84z"/>
	<path class="st4" d="M48.6,85.7c0,0-0.5,0.8-1.1,1.4c-0.7,0.5-1.8-0.4-2.4-0.6c-0.6-0.1-3-1.5-3.4-1.5c-0.4,0-0.1,1.3,0,2.1
		c0.1,0.8,3.4,2.6,3.4,2.6c1.8-0.9,2.6-1.5,2.6-1.5s2.1,0.7,1.6-0.2S48.6,85.7,48.6,85.7z"/>
	<path class="st4" d="M47,80.8c0,0-1,3.8-2,3.5s-0.9-0.4-1.9-1.1S42.1,81,42,80.8c0-0.3,2.5-1.4,2.5-1.4s0.1-0.5,0.5,0
		C45.5,79.8,47,80.8,47,80.8z"/>
</g>
</svg>
