<?xml version="1.0" encoding="utf-8"?>
<!-- Generator: Adobe Illustrator 23.1.1, SVG Export Plug-In . SVG Version: 6.00 Build 0)  -->
<svg version="1.1" id="Layer_1" xmlns="http://www.w3.org/2000/svg" xmlns:xlink="http://www.w3.org/1999/xlink" x="0px" y="0px"
	 viewBox="0 0 108 108" style="enable-background:new 0 0 108 108;" xml:space="preserve">
<style type="text/css">
	.st0{fill:#7BB542;}
	.st1{fill:#62AA45;}
	.st2{fill:#5B9B43;}
	.st3{fill:#5DA144;}
	.st4{fill:#4F9A44;}
	.st5{fill:#619C42;}
	.st6{fill:#6C9D40;}
	.st7{fill:#5E9F43;}
	.st8{fill:#F4A5C7;}
	.st9{fill:none;stroke:#FFFFFF;stroke-width:0.1577;stroke-miterlimit:10;}
	.st10{fill:#EF97C0;}
	.st11{fill:#F8BED7;}
	.st12{fill:#F59DBA;}
	.st13{fill:#F171A7;}
	.st14{fill:#F9C6DC;}
	.st15{fill:#79983D;}
	.st16{fill:#F2EF8A;}
	.st17{fill:none;stroke:#FFFFFF;stroke-width:0.1273;stroke-miterlimit:10;}
	.st18{fill:none;stroke:#FFFFFF;stroke-width:0.1719;stroke-miterlimit:10;}
</style>
<g>
	<path class="st0" d="M41.42,38.37c0,4.81-3.9,8.71-8.71,8.71c-4.81,0-8.71-3.9-8.71-8.71c0-4.81,3.9-8.71,8.71-8.71
		C37.52,29.66,41.42,33.56,41.42,38.37"/>
	<path class="st0" d="M49.03,30.23c0,4.81-3.9,8.71-8.71,8.71c-4.81,0-8.71-3.9-8.71-8.71c0-4.81,3.9-8.71,8.71-8.71
		C45.13,21.51,49.03,25.41,49.03,30.23"/>
	<path class="st0" d="M60.07,30.3c0,4.81-3.9,8.71-8.71,8.71c-4.81,0-8.71-3.9-8.71-8.71c0-4.81,3.9-8.71,8.71-8.71
		C56.17,21.59,60.07,25.49,60.07,30.3"/>
	<path class="st0" d="M72.69,34.19c0,4.81-3.9,8.71-8.71,8.71c-4.81,0-8.71-3.9-8.71-8.71c0-4.81,3.9-8.71,8.71-8.71
		C68.79,25.48,72.69,29.38,72.69,34.19"/>
	<path class="st0" d="M82.53,36c0,4.81-3.9,8.71-8.71,8.71c-4.81,0-8.71-3.9-8.71-8.71c0-4.81,3.9-8.71,8.71-8.71
		C78.63,27.28,82.53,31.18,82.53,36"/>
	<path class="st0" d="M91,55.53c0,4.81-3.9,8.71-8.71,8.71c-4.81,0-8.71-3.9-8.71-8.71c0-4.81,3.9-8.71,8.71-8.71
		C87.1,46.82,91,50.72,91,55.53"/>
	<path class="st0" d="M82.53,56.41c0,4.81-3.9,8.71-8.71,8.71c-4.81,0-8.71-3.9-8.71-8.71c0-4.81,3.9-8.71,8.71-8.71
		C78.63,47.7,82.53,51.6,82.53,56.41"/>
	<path class="st0" d="M89.41,65.49c0,4.81-3.9,8.71-8.71,8.71c-4.81,0-8.71-3.9-8.71-8.71c0-4.81,3.9-8.71,8.71-8.71
		C85.51,56.77,89.41,60.67,89.41,65.49"/>
	<path class="st0" d="M74.81,78.64c0,4.81-3.9,8.71-8.71,8.71c-4.81,0-8.71-3.9-8.71-8.71c0-4.81,3.9-8.71,8.71-8.71
		C70.9,69.92,74.81,73.82,74.81,78.64"/>
	<path class="st0" d="M59.97,80.21c0,4.81-3.9,8.71-8.71,8.71c-4.81,0-8.71-3.9-8.71-8.71c0-4.81,3.9-8.71,8.71-8.71
		C56.07,71.5,59.97,75.4,59.97,80.21"/>
	<path class="st0" d="M38.41,72.11c0,4.81-3.9,8.71-8.71,8.71c-4.81,0-8.71-3.9-8.71-8.71c0-4.81,3.9-8.71,8.71-8.71
		C34.51,63.4,38.41,67.3,38.41,72.11"/>
	<path class="st0" d="M35.19,60.12c0,4.81-3.9,8.71-8.71,8.71c-4.81,0-8.71-3.9-8.71-8.71c0-4.81,3.9-8.71,8.71-8.71
		C31.29,51.4,35.19,55.31,35.19,60.12"/>
	<path class="st0" d="M48.4,41.25c0,4.81-3.9,8.71-8.71,8.71c-4.81,0-8.71-3.9-8.71-8.71c0-4.81,3.9-8.71,8.71-8.71
		C44.5,32.54,48.4,36.44,48.4,41.25"/>
	<path class="st0" d="M62.08,44.15c0,4.81-3.9,8.71-8.71,8.71c-4.81,0-8.71-3.9-8.71-8.71c0-4.81,3.9-8.71,8.71-8.71
		C58.18,35.43,62.08,39.34,62.08,44.15"/>
	<path class="st0" d="M74.81,48.6c0,4.81-3.9,8.71-8.71,8.71c-4.81,0-8.71-3.9-8.71-8.71c0-4.81,3.9-8.71,8.71-8.71
		C70.9,39.89,74.81,43.79,74.81,48.6"/>
	<path class="st0" d="M74.81,60.12c0,4.81-3.9,8.71-8.71,8.71c-4.81,0-8.71-3.9-8.71-8.71c0-4.81,3.9-8.71,8.71-8.71
		C70.9,51.4,74.81,55.31,74.81,60.12"/>
	<path class="st0" d="M64.15,67.89c0,4.81-3.9,8.71-8.71,8.71c-4.81,0-8.71-3.9-8.71-8.71c0-4.81,3.9-8.71,8.71-8.71
		C60.25,59.18,64.15,63.08,64.15,67.89"/>
	<path class="st0" d="M49.24,66.93c0,4.81-3.9,8.71-8.71,8.71c-4.81,0-8.71-3.9-8.71-8.71c0-4.81,3.9-8.71,8.71-8.71
		C45.34,58.21,49.24,62.11,49.24,66.93"/>
	<path class="st0" d="M51.26,68.81c0,4.81-3.9,8.71-8.71,8.71c-4.81,0-8.71-3.9-8.71-8.71c0-4.81,3.9-8.71,8.71-8.71
		C47.35,60.09,51.26,64,51.26,68.81"/>
	<path class="st0" d="M46.94,54.99c0,4.81-3.9,8.71-8.71,8.71c-4.81,0-8.71-3.9-8.71-8.71c0-4.81,3.9-8.71,8.71-8.71
		C43.04,46.28,46.94,50.18,46.94,54.99"/>
	<path class="st1" d="M41.74,89.92c0.14-0.04,0.24-0.07,0.33-0.1c1.89-0.43,3.33-1.5,4.35-3.13c0.45-0.72,0.88-1.45,1.36-2.15
		c1.3-1.87,2.81-2.45,5.04-1.96c0.4,0.09,0.79,0.19,1.21,0.3c0.46-1.06,0.64-2.16,0.81-3.33c0.4,0.1,0.77,0.17,1.12,0.29
		c0.09,0.03,0.16,0.18,0.2,0.29c0.14,0.34,0.26,0.69,0.38,1.04c0.09,0.26,0.2,0.3,0.48,0.22c0.52-0.15,1.05-0.29,1.59-0.32
		c0.79-0.05,1.41,0.36,1.92,0.93c0.36,0.4,0.71,0.83,1.03,1.27c0.77,1.03,1.76,1.65,3.04,1.83c0.05,0.01,0.09,0.03,0.14,0.04
		c-0.01,0.05-0.01,0.1-0.03,0.11c-1.83,1.36-3.82,2.03-6.1,1.36c-1.37-0.4-2.29-1.51-2.41-2.83c-0.01-0.11,0-0.22-0.01-0.4
		c1.79,1.47,3.71,2.37,6.04,2.05c-2.87-0.19-5.07-1.48-6.57-4.06c-0.73,2.29-1.9,4.21-3.65,5.74c-1.75,1.53-3.81,2.43-6.09,2.82
		c1.8-0.01,3.48-0.48,5.06-1.31c1.58-0.84,2.87-2.02,3.93-3.57c0.22,1.02,0.22,1.94-0.07,2.85c-0.49,1.54-1.54,2.56-2.96,3.24
		c-1.11,0.53-2.29,0.8-3.52,0.8c-2.29-0.01-4.42-0.63-6.38-1.82C41.9,90.07,41.85,90.01,41.74,89.92"/>
	<path class="st2" d="M90.8,58.03c-0.59,0.58-1.2,1.15-1.78,1.75c-0.89,0.93-1.76,1.86-2.84,2.57c-1.35,0.88-3.44,1.48-4.89,1.33
		c0.08-0.63,0.12-1.27,0.25-1.9c0.41-1.9,1.54-3.3,3.16-4.33c1.63-1.03,3.43-1.59,5.31-1.85c1.38-0.19,2.77-0.24,4.16-0.35
		c0.13-0.01,0.27,0,0.4,0c0,0.08,0.02,0.11,0.01,0.12c-0.93,0.99-1.33,2.25-1.77,3.49c-0.48,1.35-0.91,2.72-1.53,4
		c-1.09,2.23-2.88,3.64-5.38,4c-1.25,0.18-2.48,0.04-3.61-0.58c-0.02-0.01-0.05-0.02-0.06-0.04c-0.6-0.74-1.4-0.61-2.2-0.54
		c-0.59,0.05-0.75-0.12-0.79-0.83c0.49,0,0.98,0.01,1.47,0c3.01-0.09,5.53-1.23,7.48-3.56c0.9-1.08,1.77-2.18,2.65-3.27
		C90.82,58.05,90.81,58.04,90.8,58.03"/>
	<path class="st2" d="M67.64,23.38c-0.2,0.81-0.43,1.61-0.61,2.42c-0.28,1.25-0.54,2.5-1.1,3.67c-0.69,1.45-2.18,3.05-3.48,3.67
		c-0.26-0.58-0.56-1.15-0.77-1.75c-0.64-1.84-0.4-3.62,0.46-5.34c0.86-1.72,2.11-3.13,3.58-4.33c1.08-0.88,2.25-1.65,3.37-2.46
		c0.11-0.08,0.23-0.14,0.34-0.21c0.04,0.06,0.07,0.08,0.07,0.1c-0.28,1.33,0.03,2.61,0.3,3.91c0.29,1.4,0.64,2.8,0.77,4.22
		c0.23,2.47-0.57,4.6-2.53,6.21c-0.98,0.81-2.1,1.32-3.39,1.38c-0.02,0-0.05,0.01-0.08,0c-0.9-0.33-1.52,0.2-2.17,0.68
		c-0.48,0.35-0.7,0.28-1.11-0.3c0.42-0.26,0.85-0.5,1.26-0.77c2.53-1.64,4.09-3.92,4.55-6.92c0.21-1.39,0.38-2.78,0.57-4.17
		C67.66,23.38,67.65,23.38,67.64,23.38"/>
	<path class="st1" d="M67.62,46.89c-0.59,0.58-1.2,1.15-1.78,1.75c-0.89,0.93-1.76,1.86-2.84,2.57c-1.35,0.88-3.44,1.48-4.89,1.33
		c0.08-0.63,0.12-1.27,0.25-1.9c0.41-1.9,1.54-3.3,3.16-4.33c1.63-1.03,3.43-1.59,5.31-1.85c1.38-0.19,2.77-0.24,4.16-0.35
		c0.13-0.01,0.27,0,0.4,0c0,0.08,0.02,0.11,0.01,0.12c-0.93,0.99-1.33,2.25-1.77,3.49c-0.48,1.35-0.91,2.72-1.53,4
		c-1.09,2.23-2.88,3.64-5.38,4c-1.25,0.18-2.48,0.04-3.61-0.58c-0.02-0.01-0.05-0.02-0.07-0.04c-0.6-0.74-1.4-0.61-2.2-0.54
		c-0.59,0.05-0.75-0.12-0.79-0.83c0.49,0,0.98,0.01,1.47,0c3.01-0.09,5.53-1.23,7.48-3.56c0.9-1.08,1.77-2.18,2.65-3.27
		C67.64,46.91,67.63,46.9,67.62,46.89"/>
	<path class="st3" d="M41.52,41.06c0.69,0.46,1.38,0.93,2.09,1.37c1.09,0.67,2.19,1.33,3.11,2.24c1.15,1.13,2.17,3.06,2.33,4.5
		c-0.64,0.05-1.27,0.15-1.91,0.15c-1.95,0-3.55-0.81-4.89-2.18c-1.34-1.37-2.27-3.02-2.92-4.8c-0.48-1.31-0.82-2.66-1.22-4
		c-0.04-0.13-0.06-0.26-0.08-0.39c0.07-0.02,0.1-0.04,0.12-0.03c1.17,0.7,2.48,0.83,3.79,1c1.42,0.19,2.85,0.32,4.23,0.66
		c2.41,0.59,4.16,2.05,5.04,4.42c0.44,1.19,0.56,2.41,0.19,3.66c-0.01,0.02-0.01,0.05-0.02,0.07c-0.6,0.74-0.3,1.5-0.07,2.27
		c0.17,0.57,0.04,0.76-0.65,0.95c-0.1-0.48-0.19-0.96-0.31-1.44c-0.72-2.93-2.36-5.15-5.04-6.57c-1.24-0.65-2.5-1.27-3.75-1.91
		C41.53,41.04,41.52,41.05,41.52,41.06"/>
	<path class="st4" d="M74.05,55.14c-0.59,0.58-1.2,1.15-1.78,1.75c-0.89,0.93-1.76,1.86-2.84,2.57c-1.35,0.88-3.44,1.48-4.89,1.33
		c0.08-0.63,0.12-1.27,0.25-1.9c0.41-1.9,1.54-3.3,3.16-4.33c1.63-1.03,3.43-1.59,5.31-1.85c1.38-0.19,2.77-0.24,4.16-0.35
		c0.13-0.01,0.27,0,0.4,0c0.01,0.08,0.02,0.11,0.01,0.12c-0.93,0.99-1.33,2.25-1.77,3.49c-0.48,1.35-0.91,2.72-1.53,4
		c-1.09,2.23-2.88,3.64-5.38,4c-1.25,0.18-2.48,0.04-3.61-0.58c-0.02-0.01-0.05-0.02-0.07-0.04c-0.6-0.74-1.4-0.61-2.2-0.54
		c-0.59,0.05-0.75-0.12-0.79-0.83c0.49,0,0.98,0.01,1.47,0c3.01-0.09,5.53-1.23,7.48-3.56c0.9-1.08,1.77-2.18,2.65-3.27
		C74.07,55.16,74.06,55.15,74.05,55.14"/>
	<path class="st5" d="M34.61,29.11c0.68,0.47,1.36,0.96,2.05,1.42c1.07,0.7,2.15,1.38,3.05,2.31c1.12,1.16,2.1,3.11,2.22,4.55
		c-0.64,0.04-1.27,0.12-1.91,0.11c-1.95-0.05-3.53-0.9-4.84-2.3c-1.31-1.4-2.2-3.07-2.81-4.87c-0.45-1.32-0.76-2.68-1.12-4.02
		c-0.04-0.13-0.05-0.26-0.08-0.39c0.07-0.02,0.1-0.04,0.12-0.03c1.15,0.73,2.46,0.89,3.76,1.09c1.41,0.22,2.85,0.38,4.22,0.76
		c2.39,0.65,4.11,2.15,4.93,4.54c0.41,1.2,0.5,2.43,0.1,3.66c-0.01,0.02-0.01,0.05-0.03,0.07c-0.62,0.73-0.34,1.49-0.12,2.27
		c0.16,0.57,0.02,0.76-0.67,0.93c-0.09-0.48-0.17-0.97-0.28-1.45c-0.65-2.94-2.24-5.21-4.89-6.68c-1.23-0.68-2.47-1.33-3.71-1.99
		C34.63,29.08,34.62,29.1,34.61,29.11"/>
	<path class="st6" d="M32.52,60.45c0.68,0.47,1.36,0.96,2.05,1.42c1.07,0.7,2.15,1.38,3.05,2.31c1.12,1.16,2.1,3.11,2.22,4.55
		c-0.64,0.04-1.27,0.12-1.91,0.11c-1.95-0.05-3.53-0.9-4.84-2.3c-1.31-1.4-2.2-3.07-2.81-4.87c-0.45-1.32-0.76-2.68-1.12-4.02
		c-0.04-0.13-0.05-0.26-0.08-0.39c0.07-0.02,0.1-0.04,0.12-0.03c1.15,0.73,2.46,0.89,3.76,1.09c1.41,0.22,2.85,0.38,4.22,0.76
		c2.39,0.65,4.11,2.15,4.93,4.54c0.41,1.2,0.5,2.43,0.1,3.66c-0.01,0.02-0.01,0.05-0.03,0.07c-0.62,0.73-0.34,1.49-0.12,2.27
		c0.16,0.57,0.02,0.76-0.67,0.93c-0.09-0.48-0.17-0.97-0.28-1.45c-0.65-2.94-2.24-5.21-4.89-6.68c-1.23-0.68-2.47-1.33-3.71-1.99
		C32.54,60.42,32.53,60.43,32.52,60.45"/>
	<path class="st1" d="M73.28,60.63c0.68,0.47,1.36,0.96,2.05,1.42c1.08,0.7,2.15,1.38,3.05,2.31c1.12,1.16,2.1,3.11,2.22,4.55
		c-0.64,0.04-1.27,0.12-1.91,0.11c-1.95-0.05-3.53-0.9-4.84-2.3c-1.31-1.4-2.2-3.07-2.81-4.87c-0.45-1.32-0.76-2.68-1.12-4.02
		c-0.04-0.13-0.05-0.26-0.08-0.39c0.07-0.02,0.1-0.04,0.12-0.03c1.15,0.73,2.46,0.89,3.76,1.09c1.41,0.22,2.85,0.38,4.22,0.76
		c2.39,0.65,4.11,2.15,4.93,4.54c0.41,1.2,0.5,2.43,0.1,3.66c-0.01,0.02-0.01,0.05-0.03,0.07c-0.62,0.73-0.34,1.49-0.12,2.27
		c0.16,0.57,0.02,0.76-0.67,0.93c-0.09-0.48-0.17-0.97-0.28-1.45c-0.65-2.94-2.24-5.21-4.89-6.68c-1.23-0.68-2.47-1.33-3.71-1.99
		C73.29,60.6,73.28,60.61,73.28,60.63"/>
	<path class="st1" d="M83.68,27.66c-0.12,0.05-0.25,0.09-0.37,0.14c-2.1,0.98-3.84,2.44-5.42,4.11c-0.36,0.38-0.69,0.77-1.04,1.16
		c-0.75,0.84-1.95,0.69-2.46-0.32c-0.35-0.7-0.28-1.4,0.04-2.09c0.47-0.99,1.24-1.73,2.12-2.34c2.54-1.77,5.37-2.55,8.47-2.39
		c0.34,0.02,0.5,0.13,0.51,0.49c0.1,3.5-0.89,6.63-3.24,9.26c-0.45,0.5-1.03,0.92-1.62,1.23c-1.15,0.61-2.18,0.32-2.97-0.73
		c-0.03-0.04-0.06-0.08-0.11-0.17c-0.31,0.56-0.6,1.06-0.88,1.57c-0.28,0.49-0.28,0.49-0.83,0.35c-0.18-0.05-0.35-0.11-0.56-0.17
		c2.15-3.93,4.65-7.5,8.43-10.01C83.73,27.72,83.7,27.69,83.68,27.66"/>
	<path class="st1" d="M42.4,18.52c0.23,0.26,0.46,0.53,0.69,0.79c2.76,3.21,5.04,6.72,6.57,10.69c0.08,0.21,0.16,0.43,0.23,0.64
		c0.08,0.22,0.03,0.35-0.24,0.31c-0.01,0-0.02-0.01-0.04-0.01c-0.96-0.08-0.96-0.09-1.24-1.02c-0.09-0.3-0.19-0.6-0.28-0.87
		c-0.51,0.03-0.99,0.12-1.46,0.07c-1.24-0.13-2.13-0.89-2.89-1.8c-1.21-1.44-1.97-3.12-2.57-4.88c-0.75-2.18-1.18-4.42-1.19-6.74
		c0-0.13,0.02-0.27,0.03-0.46c0.2,0.08,0.36,0.13,0.5,0.2c3.26,1.59,6.12,3.68,8.3,6.61c0.75,1.01,1.3,2.11,1.39,3.4
		c0.05,0.73-0.19,1.56-0.62,2.09c-1.92-3.4-4.17-6.52-7.09-9.12C42.46,18.47,42.43,18.5,42.4,18.52"/>
	<path class="st1" d="M35.43,34.15c-1.79-1.57-3.84-2.26-6.13-2.28c-1.99-0.01-3.8,0.62-5.48,1.68c0.13-0.05,0.26-0.1,0.38-0.15
		c1.87-0.77,3.8-1.23,5.82-0.96c3.35,0.43,5.58,2.27,6.67,5.47c0.02,0.07,0.05,0.15,0.06,0.22c0.01,0.03-0.01,0.07-0.04,0.17
		c-0.37-0.07-0.74-0.12-1.1-0.22c-0.1-0.03-0.17-0.2-0.23-0.32c-0.16-0.37-0.3-0.75-0.44-1.13c-0.08-0.23-0.2-0.25-0.43-0.22
		c-1.18,0.14-2.36,0.32-3.55,0.36c-1.45,0.06-2.83-0.39-4.2-0.79c-0.76-0.22-1.53-0.45-2.31-0.61c-1.34-0.29-2.59,0.04-3.76,0.71
		c-0.1,0.06-0.2,0.11-0.3,0.16c-0.02,0.01-0.05,0-0.14,0c0.19-0.46,0.36-0.9,0.56-1.33c0.8-1.73,1.85-3.26,3.5-4.31
		c1.78-1.13,3.71-1.33,5.74-0.88c1.64,0.36,3.04,1.16,4.13,2.45c0.45,0.53,0.8,1.16,1.19,1.75C35.41,33.96,35.4,34.03,35.43,34.15"
		/>
	<path class="st2" d="M15.31,63.19c2.37-1.21,4.9-1.73,7.55-1.72c1.48,0,2.92,0.21,4.34,0.62c-0.29,2.02-1.63,3.8-3.73,4.31
		c-1.78,0.43-3.52,0.23-5.25-0.27c-1.34-0.38-2.68-0.79-4.09-0.84c-0.63-0.02-1.26,0-1.95,0.01c0.16-0.3,0.3-0.59,0.47-0.86
		c1.23-2.03,2.58-3.95,4.43-5.47c1.37-1.12,2.87-1.96,4.69-2.04c2.65-0.11,4.73,1.79,5.35,3.92C22.9,60.21,18.91,60.73,15.31,63.19"
		/>
	<path class="st2" d="M27.42,70.72c0.15-0.25,0.31-0.5,0.45-0.76c0.84-1.65,1.12-3.33,0.29-5.07c-0.02-0.05-0.03-0.1-0.07-0.13
		c-0.44-0.47-0.36-0.95-0.15-1.51c0.22-0.61,0.3-1.27,0.45-1.95c0.09,0.04,0.24,0.1,0.37,0.18c1.02,0.63,1.86,1.44,2.35,2.54
		c0.88,1.99,0.69,3.89-0.61,5.66c-1.25,1.7-2.99,2.73-4.95,3.64c0.5-2.27-0.77-4.06-1.41-6.05c1.17-0.42,2.15-1.09,2.91-2.14
		c0.71,0.82,0.97,1.73,0.96,2.75c-0.01,0.99-0.28,1.91-0.67,2.81C27.36,70.69,27.39,70.71,27.42,70.72"/>
	<path class="st2" d="M23.98,50.7c2.37-1.21,4.9-1.73,7.55-1.72c1.48,0,2.92,0.21,4.34,0.62c-0.29,2.02-1.63,3.8-3.73,4.31
		c-1.78,0.43-3.52,0.23-5.25-0.27c-1.34-0.38-2.68-0.79-4.09-0.84c-0.63-0.02-1.26,0-1.95,0.01c0.16-0.3,0.3-0.59,0.47-0.86
		c1.23-2.03,2.58-3.95,4.43-5.47c1.37-1.12,2.87-1.96,4.69-2.04c2.65-0.11,4.73,1.79,5.35,3.92C31.56,47.72,27.58,48.24,23.98,50.7"
		/>
	<path class="st2" d="M36.09,58.22c0.15-0.25,0.31-0.5,0.45-0.76c0.84-1.65,1.12-3.33,0.29-5.07c-0.02-0.05-0.03-0.1-0.07-0.13
		c-0.44-0.47-0.36-0.95-0.15-1.51c0.22-0.61,0.3-1.27,0.45-1.95c0.09,0.04,0.24,0.1,0.37,0.18c1.02,0.63,1.86,1.44,2.35,2.54
		c0.88,1.99,0.69,3.89-0.61,5.66c-1.25,1.7-2.99,2.73-4.95,3.64c0.5-2.27-0.77-4.06-1.41-6.05c1.17-0.42,2.15-1.09,2.91-2.14
		c0.71,0.82,0.97,1.73,0.96,2.75c-0.01,0.99-0.28,1.91-0.67,2.81C36.03,58.2,36.06,58.21,36.09,58.22"/>
	<path class="st1" d="M66.4,86.24c0.99-2.46,2.57-4.51,4.58-6.24c1.12-0.96,2.35-1.75,3.69-2.37c1.1,1.72,1.26,3.94,0,5.7
		c-1.06,1.49-2.51,2.48-4.15,3.24c-1.26,0.59-2.54,1.15-3.64,2.04c-0.49,0.39-0.95,0.82-1.47,1.28c-0.07-0.33-0.15-0.64-0.21-0.96
		c-0.4-2.33-0.63-4.67-0.23-7.03c0.3-1.74,0.89-3.36,2.21-4.61c1.93-1.82,4.75-1.75,6.61-0.53C70.19,79.03,67.52,82.03,66.4,86.24"
		/>
	<path class="st1" d="M80.48,84.01c-0.05-0.29-0.09-0.58-0.16-0.87c-0.45-1.79-1.33-3.25-3.1-4.02c-0.05-0.02-0.09-0.05-0.14-0.06
		c-0.64-0.06-0.89-0.48-1.1-1.05c-0.23-0.6-0.6-1.15-0.94-1.76c0.09-0.03,0.24-0.08,0.39-0.11c1.18-0.19,2.35-0.13,3.44,0.38
		c1.97,0.93,3.07,2.49,3.24,4.68c0.17,2.1-0.47,4.02-1.36,5.99c-1.11-2.04-3.25-2.56-5.03-3.65c0.61-1.09,0.91-2.23,0.8-3.52
		c1.07,0.15,1.87,0.68,2.53,1.45c0.64,0.75,1.04,1.63,1.34,2.57C80.42,84.03,80.45,84.02,80.48,84.01"/>
	<path class="st3" d="M70.58,36.98c-1.44,2.24-3.37,3.95-5.67,5.28c-1.28,0.74-2.64,1.28-4.07,1.64c-0.76-1.9-0.5-4.11,1.06-5.6
		c1.32-1.27,2.93-1.97,4.68-2.41c1.35-0.34,2.71-0.66,3.95-1.32c0.55-0.3,1.09-0.63,1.69-0.98c0.01,0.34,0.03,0.66,0.02,0.98
		c-0.04,2.37-0.25,4.71-1.09,6.95c-0.62,1.66-1.5,3.13-3.04,4.12c-2.23,1.42-4.99,0.83-6.59-0.71
		C65.51,43.36,68.69,40.91,70.58,36.98"/>
	<path class="st3" d="M56.33,36.54c0,0.29-0.02,0.59-0.01,0.88c0.1,1.84,0.7,3.44,2.3,4.53c0.04,0.03,0.08,0.07,0.13,0.08
		c0.62,0.18,0.78,0.64,0.89,1.23c0.11,0.64,0.38,1.24,0.59,1.91c-0.1,0.01-0.25,0.04-0.41,0.03c-1.2-0.03-2.34-0.31-3.31-1.02
		c-1.76-1.28-2.55-3.02-2.31-5.2c0.23-2.09,1.22-3.86,2.45-5.63c0.71,2.21,2.71,3.13,4.26,4.53c-0.8,0.95-1.31,2.02-1.44,3.31
		c-1.02-0.35-1.71-1.01-2.21-1.89c-0.49-0.86-0.72-1.8-0.83-2.77C56.39,36.53,56.36,36.53,56.33,36.54"/>
	<path class="st7" d="M53.07,79.13c0.02-2.66,0.74-5.14,1.98-7.49c0.69-1.31,1.55-2.49,2.56-3.56c1.66,1.2,2.61,3.21,2.09,5.31
		c-0.44,1.78-1.43,3.23-2.67,4.53c-0.96,1.01-1.94,2.01-2.64,3.23c-0.31,0.55-0.58,1.11-0.9,1.73c-0.19-0.28-0.38-0.54-0.54-0.81
		c-1.23-2.03-2.3-4.12-2.79-6.46c-0.36-1.73-0.41-3.45,0.37-5.1c1.13-2.4,3.78-3.37,5.96-2.92C53.95,71.03,52.57,74.8,53.07,79.13"
		/>
	<path class="st7" d="M65.36,71.89c-0.15-0.25-0.3-0.51-0.47-0.75c-1.07-1.5-2.43-2.53-4.36-2.6c-0.05,0-0.1-0.02-0.15,0
		c-0.62,0.17-1.01-0.12-1.41-0.57c-0.43-0.48-0.98-0.85-1.52-1.3c0.08-0.06,0.19-0.16,0.33-0.24c1.03-0.61,2.14-0.98,3.34-0.91
		c2.17,0.14,3.77,1.19,4.73,3.16c0.92,1.89,1.03,3.91,0.93,6.07c-1.78-1.49-3.96-1.2-6.02-1.56c0.17-1.23,0.03-2.41-0.55-3.57
		c1.05-0.25,1.98-0.05,2.88,0.42c0.87,0.46,1.56,1.14,2.18,1.9C65.31,71.93,65.33,71.91,65.36,71.89"/>
	<path class="st8" d="M38.76,77.01c-0.34-0.69-0.62-1.29-0.62-1.29s-2.3-1.23-2.85-1.98c-0.41-0.57-0.14-1.41-0.03-2.15
		c0.04-0.25,0.06-0.48,0.03-0.69c-0.11-0.84,0.18-0.95-0.91-1.53c-0.49-0.26-0.78-0.58-0.95-0.93c-0.22-0.03-0.52-0.1-1.02-0.24
		c-1.53-0.44-3.29-0.29-3.29-0.29l-2.59,2.04c0,0-0.91,0.77-2.34,1.2c-1.42,0.44-1.93,0.99-1.93,0.99s-0.58,0.47-0.22,0.73
		c0.37,0.26,1.64,0.58,2.37,1.75c0.73,1.17-0.29,1.82,1.17,1.97c0.65,0.06,1.42,0.16,2.09,0.24c0.84,0.11,1.49,0.2,1.49,0.2
		l2.26,1.82c0,0,0.67,0.91,2.09,0.69c1.42-0.22,2.34-1.31,3.07-1.31c0.68,0,1.64-0.06,1.92,0.05c0.02,0.01,0.04,0.02,0.05,0.03
		c0.18,0.15,0.8,0.55,0.8,0.55s0.09-0.1,0.21-0.27C39.33,78.18,39.03,77.56,38.76,77.01"/>
	<path class="st9" d="M38.76,77.01c-0.34-0.69-0.62-1.29-0.62-1.29s-2.3-1.23-2.85-1.98c-0.41-0.57-0.14-1.41-0.03-2.15
		c0.04-0.25,0.06-0.48,0.03-0.69c-0.11-0.84,0.18-0.95-0.91-1.53c-0.49-0.26-0.78-0.58-0.95-0.93c-0.22-0.03-0.52-0.1-1.02-0.24
		c-1.53-0.44-3.29-0.29-3.29-0.29l-2.59,2.04c0,0-0.91,0.77-2.34,1.2c-1.42,0.44-1.93,0.99-1.93,0.99s-0.58,0.47-0.22,0.73
		c0.37,0.26,1.64,0.58,2.37,1.75c0.73,1.17-0.29,1.82,1.17,1.97c0.65,0.06,1.42,0.16,2.09,0.24c0.84,0.11,1.49,0.2,1.49,0.2
		l2.26,1.82c0,0,0.67,0.91,2.09,0.69c1.42-0.22,2.34-1.31,3.07-1.31c0.68,0,1.64-0.06,1.92,0.05c0.02,0.01,0.04,0.02,0.05,0.03
		c0.18,0.15,0.8,0.55,0.8,0.55s0.09-0.1,0.21-0.27C39.33,78.18,39.03,77.56,38.76,77.01z"/>
	<path class="st10" d="M48.07,85.43c-0.84-0.8-0.73-2.41-0.73-2.41s0.29-2.41,0.22-3.43c-0.01-0.1-0.03-0.19-0.08-0.27
		c-0.42-0.81-2.33-1.08-2.33-1.08L43,77.11l-0.33-0.15l-1.31-0.62c-0.17-0.08-0.52-0.03-0.89,0.07c-0.58,0.15-1.2,0.41-1.2,0.41
		l-1.14,1.41c0.15,0.01,0.28,0.03,0.35,0.06c0.48,0.79,1.02,1.81,1.04,2.33c0.03,0.91-1.5,1.93-1.5,1.93s-0.13-0.05-0.33-0.1
		c-0.5-0.12-1.45-0.26-2.06,0.22l0.09,0.94c0,0,0.8,1.68,1.02,2.37c0.22,0.69-0.13,1.75,0,2.37c0.13,0.62,1.5,0.73,1.5,0.73
		l2.92,0.55l2.23,0.91c0,0,1.39,1.33,2.41,0.73c1.02-0.6,0.69-2.77,0.69-2.77S48.91,86.23,48.07,85.43"/>
	<path class="st9" d="M48.07,85.43c-0.84-0.8-0.73-2.41-0.73-2.41s0.29-2.41,0.22-3.43c-0.01-0.1-0.03-0.19-0.08-0.27
		c-0.42-0.81-2.33-1.08-2.33-1.08L43,77.11l-0.33-0.15l-1.31-0.62c-0.17-0.08-0.52-0.03-0.89,0.07c-0.58,0.15-1.2,0.41-1.2,0.41
		l-1.14,1.41c0.15,0.01,0.28,0.03,0.35,0.06c0.48,0.79,1.02,1.81,1.04,2.33c0.03,0.91-1.5,1.93-1.5,1.93s-0.13-0.05-0.33-0.1
		c-0.5-0.12-1.45-0.26-2.06,0.22l0.09,0.94c0,0,0.8,1.68,1.02,2.37c0.22,0.69-0.13,1.75,0,2.37c0.13,0.62,1.5,0.73,1.5,0.73
		l2.92,0.55l2.23,0.91c0,0,1.39,1.33,2.41,0.73c1.02-0.6,0.69-2.77,0.69-2.77S48.91,86.23,48.07,85.43z"/>
	<path class="st11" d="M45.08,68.71c-0.44-0.69-0.8-0.77-1.13-1.13c-0.33-0.36-0.15-0.66-0.15-1.31c0-0.66-0.84-1.97-0.84-1.97
		l-2.85-1.06l-1.28-1.39l-2.52-0.55l0.07,1.31c0,0-0.84,1.82-1.42,2.52c-0.58,0.69-1.57,0.99-1.68,1.9
		c-0.06,0.5-0.05,0.98,0.15,1.41c0.16,0.35,0.46,0.67,0.95,0.93c1.1,0.58,0.8,0.69,0.91,1.53c0.11,0.84-0.55,2.08,0,2.83
		c0.55,0.75,2.85,1.98,2.85,1.98s0.92,1.94,1.41,2.87c0.16,0.3,0.28,0.5,0.3,0.49c0.12-0.07,0.25-0.17,0.38-0.29
		c0.5-0.45,1-1.13,1-1.13l0.86-0.97l-0.75-0.35c-0.17-0.08-0.52-0.03-0.89,0.07c-0.06-0.47-0.07-0.91,0.01-1.23
		c0.26-1.06,0.88-1.13,1.61-2.04c0.73-0.91,0.55-1.24,1.02-2.04c0.24-0.4,0.61-0.73,0.93-0.96c0.31-0.23,0.57-0.36,0.57-0.36
		l0.96-0.12C45.42,69.32,45.25,68.98,45.08,68.71"/>
	<path class="st9" d="M45.08,68.71c-0.44-0.69-0.8-0.77-1.13-1.13c-0.33-0.36-0.15-0.66-0.15-1.31c0-0.66-0.84-1.97-0.84-1.97
		l-2.85-1.06l-1.28-1.39l-2.52-0.55l0.07,1.31c0,0-0.84,1.82-1.42,2.52c-0.58,0.69-1.57,0.99-1.68,1.9
		c-0.06,0.5-0.05,0.98,0.15,1.41c0.16,0.35,0.46,0.67,0.95,0.93c1.1,0.58,0.8,0.69,0.91,1.53c0.11,0.84-0.55,2.08,0,2.83
		c0.55,0.75,2.85,1.98,2.85,1.98s0.92,1.94,1.41,2.87c0.16,0.3,0.28,0.5,0.3,0.49c0.12-0.07,0.25-0.17,0.38-0.29
		c0.5-0.45,1-1.13,1-1.13l0.86-0.97l-0.75-0.35c-0.17-0.08-0.52-0.03-0.89,0.07c-0.06-0.47-0.07-0.91,0.01-1.23
		c0.26-1.06,0.88-1.13,1.61-2.04c0.73-0.91,0.55-1.24,1.02-2.04c0.24-0.4,0.61-0.73,0.93-0.96c0.31-0.23,0.57-0.36,0.57-0.36
		l0.96-0.12C45.42,69.32,45.25,68.98,45.08,68.71z"/>
	<path class="st12" d="M53.07,72.29c0,0-0.26-3.03-0.48-3.58c-0.22-0.55-1.13,0.77-1.13,0.77s-0.66,0.11-1.64-0.33
		c-0.99-0.44-0.18-1.02-2.12-1.26c-1.94-0.24-1.39,1.67-1.39,1.67l-0.76,0.1l-0.96,0.12c0,0-1.02,0.51-1.5,1.31
		c-0.47,0.8-0.29,1.13-1.02,2.04c-0.69,0.86-1.28,0.98-1.56,1.88c-0.02,0.05-0.03,0.1-0.04,0.16c-0.08,0.32-0.06,0.76-0.01,1.23
		c0.36-0.1,0.71-0.15,0.89-0.07l0.75,0.35L43,77.1l2.15,1.13c0,0,0.21,0.03,0.51,0.1c0.6,0.14,1.54,0.44,1.82,0.98
		c0.42-0.15,0.89-0.38,1.43-0.75c1.39-0.95,1.79-1.39,1.79-1.39s1.5-0.26,2.08-1.64C53.36,74.15,53.07,72.29,53.07,72.29"/>
	<path class="st9" d="M53.07,72.29c0,0-0.26-3.03-0.48-3.58c-0.22-0.55-1.13,0.77-1.13,0.77s-0.66,0.11-1.64-0.33
		c-0.99-0.44-0.18-1.02-2.12-1.26c-1.94-0.24-1.39,1.67-1.39,1.67l-0.76,0.1l-0.96,0.12c0,0-1.02,0.51-1.5,1.31
		c-0.47,0.8-0.29,1.13-1.02,2.04c-0.69,0.86-1.28,0.98-1.56,1.88c-0.02,0.05-0.03,0.1-0.04,0.16c-0.08,0.32-0.06,0.76-0.01,1.23
		c0.36-0.1,0.71-0.15,0.89-0.07l0.75,0.35L43,77.1l2.15,1.13c0,0,0.21,0.03,0.51,0.1c0.6,0.14,1.54,0.44,1.82,0.98
		c0.42-0.15,0.89-0.38,1.43-0.75c1.39-0.95,1.79-1.39,1.79-1.39s1.5-0.26,2.08-1.64C53.36,74.15,53.07,72.29,53.07,72.29z"/>
	<path class="st13" d="M31.42,70.19c-1.49,0.68-2.04,1.3-2.04,1.3l-1.2,1.02c0,0-0.22,0.62,0,1.68c0.22,1.06-0.33,0.55,1.1,1.5
		c1.42,0.95,1.64,0.99,2.41,1.83c0.77,0.84,0.88,1.57,1.86,0.8c0.99-0.77,0.58-0.8,1.42-0.69c0.84,0.11,1.31,0.15,1.79,0.15
		c0.47,0,1.23,0.13,1.69,0.08c0.18-0.02,0.27-0.38,0.32-0.83c-0.34-0.69-0.62-1.29-0.62-1.29s-2.3-1.23-2.85-1.98
		c-0.41-0.57-0.14-1.41-0.03-2.15c-0.34-0.56-0.77-1.16-0.77-1.16S32.9,69.51,31.42,70.19"/>
	<path class="st13" d="M37.19,84.19c0,0,1.17-0.25,1.06,0.44c-0.11,0.69-1.01,1.17,0.01,1.27c1.01,0.11,1.28-0.15,1.15,0.62
		c-0.13,0.77-1.11,1.1,0,1.17c1.11,0.07,0.2-0.29,1.11,0.07c0.91,0.36,0.77,1.17,1.61,0.29c0.84-0.88,1.02-1.28,1.17-1.93
		c0.15-0.66,0.33,0.58,0.88-0.84c0.55-1.42,0.47-1.44,0.8-2.62c0.33-1.18,0.33-2.56,0.33-2.56s-1.24-1.61-1.75-2.01
		c-0.51-0.4-0.8-0.8-0.8-0.8l-0.07-0.34l-1.31-0.62c-0.17-0.08-0.52-0.03-0.89,0.07c-0.58,0.15-1.2,0.42-1.2,0.42l-1.13,1.41h0
		c0.15,0.01,0.28,0.03,0.36,0.06c0.48,0.8,1.02,1.81,1.04,2.33c0.03,0.91-1.5,1.94-1.5,1.94s-0.13-0.05-0.33-0.1l-0.21,0.79
		L37.19,84.19z"/>
	<path class="st13" d="M41.24,77.65l0.86-0.97l-0.75-0.35c-0.17-0.08-0.52-0.03-0.89,0.07c-0.06-0.47-0.07-0.91,0.01-1.23
		c0.26-1.06,0.88-1.13,1.61-2.04c0.73-0.91,0.55-1.24,1.02-2.04c0.24-0.4,0.61-0.73,0.93-0.96l-0.45-0.65c0,0,0.11-0.29-0.18-0.8
		c-0.29-0.51-1.17-0.79-1.17-0.79s-0.51-0.27-0.99-0.52c-0.48-0.26-0.11-0.15-0.26-0.47c-0.15-0.33-0.77-0.26-1.43-0.95
		c-0.67-0.69-0.65-0.36-0.79-0.36c-0.15,0-0.67,0.8-0.67,0.8s-0.57,0.47-0.9,0.8c-0.33,0.33-0.87,0.91-0.87,0.91l0.03,1.68
		c0,0-0.15,1.1,0.18,2.41c0.33,1.31,1.97,3.14,1.97,3.14s1.35,1.94,1.35,2.08l0.38,1.39C40.74,78.34,41.24,77.65,41.24,77.65"/>
	<path class="st13" d="M47.34,77.18l1.5-0.55l0.8-1.5c0,0,0.4-0.69,0.47-1.06c0.07-0.36-0.26-0.47-0.62-0.77
		c-0.36-0.29-0.4-0.62-1.79-1.17c-1.39-0.55-0.73-0.11-1.61,0c-0.88,0.11-0.58-0.15-1.57-0.22c-0.99-0.07-1.72,1.2-1.72,1.2
		l-1.57,1.5c0,0-0.37,0.2-0.72,0.39c-0.02,0.05-0.03,0.1-0.04,0.16c-0.08,0.32-0.06,0.76-0.01,1.23c0.36-0.1,0.71-0.15,0.89-0.07
		l0.75,0.35l0.89,0.42l2.15,1.13c0,0,0.21,0.03,0.51,0.1c0.24-0.05,0.48-0.1,0.66-0.13C46.99,78.07,47.34,77.18,47.34,77.18"/>
	<path class="st14" d="M38.49,78.28c-0.08-0.03-0.2-0.05-0.36-0.06c-0.42-0.02-1.07,0.01-1.57,0.01c-0.73,0-1.64,1.09-3.07,1.31
		c-1.42,0.22-2.09-0.69-2.09-0.69l-2.26-1.82c0,0-0.04-0.01-0.11-0.02c-0.22-0.03-0.75-0.1-1.38-0.18c-0.1,0.54,0.14,1.07,0.14,1.07
		s0.04-0.29,0.25,0.62c0.22,0.91-1.64,1.02-2.55,2.37c-0.91,1.35,1.2,2.88,1.2,2.88s-0.18,2.42,0,3.29
		c0.18,0.88,0.55,1.57,1.24,1.39c0.69-0.18,0.29-0.07,0.99-1.1c0.69-1.02,2.47-0.95,2.47-0.95s1.36-0.11,2.67-0.95
		c1.31-0.84,0.55-0.73,1.13-2.23c0.1-0.25,0.24-0.44,0.42-0.57c0.85-0.67,2.39-0.12,2.39-0.12s0.45-0.3,0.86-0.72
		c0.34-0.36,0.66-0.8,0.65-1.22C39.51,80.1,38.97,79.08,38.49,78.28"/>
	<path class="st9" d="M38.49,78.28c-0.08-0.03-0.2-0.05-0.36-0.06c-0.42-0.02-1.07,0.01-1.57,0.01c-0.73,0-1.64,1.09-3.07,1.31
		c-1.42,0.22-2.09-0.69-2.09-0.69l-2.26-1.82c0,0-0.04-0.01-0.11-0.02c-0.22-0.03-0.75-0.1-1.38-0.18c-0.1,0.54,0.14,1.07,0.14,1.07
		s0.04-0.29,0.25,0.62c0.22,0.91-1.64,1.02-2.55,2.37c-0.91,1.35,1.2,2.88,1.2,2.88s-0.18,2.42,0,3.29
		c0.18,0.88,0.55,1.57,1.24,1.39c0.69-0.18,0.29-0.07,0.99-1.1c0.69-1.02,2.47-0.95,2.47-0.95s1.36-0.11,2.67-0.95
		c1.31-0.84,0.55-0.73,1.13-2.23c0.1-0.25,0.24-0.44,0.42-0.57c0.85-0.67,2.39-0.12,2.39-0.12s0.45-0.3,0.86-0.72
		c0.34-0.36,0.66-0.8,0.65-1.22C39.51,80.1,38.97,79.08,38.49,78.28z"/>
	<path class="st13" d="M38.49,78.28c-0.08-0.03-0.2-0.05-0.36-0.06c-0.42-0.02-1.07,0.01-1.57,0.01c-0.73,0-1.64,1.09-3.07,1.31
		c-1.42,0.22-2.09-0.69-2.09-0.69l-2.26-1.82c0,0-0.04-0.01-0.11-0.02c-0.16,0.21-0.31,0.48-0.33,0.78c-0.04,0.58-0.84,0.99,0,1.28
		c0.84,0.29,1.2-0.08,0.95,0.51c-0.26,0.59-0.8,0.62-0.33,1.35c0.47,0.73,0.6,0.36,0.41,1.1c-0.19,0.73-0.92,0.55,0.09,1.13
		c1,0.58,0.31,0.11,1,0.58c0.69,0.47,0.48,0.55,1.06,0.73c0.58,0.18,0.91,0.15,0.91,0.15s1.17-1.59,1.61-1.96
		c0.44-0.37,1.68-0.7,1.68-0.7s1.06-0.15,1.46-0.15c0.18,0,0.74,0.01,1.33,0.01c0.34-0.36,0.66-0.8,0.65-1.22
		C39.51,80.1,38.97,79.08,38.49,78.28"/>
	<path class="st15" d="M33.28,76.09c-0.32,0.23,2.63,0.21,3.2,0.68c0.57,0.47,1.85,1.64,2.34,1.69c0.49,0.05,1.12-0.47,1.12-0.47
		s0.6-0.23,0.86-1.12c0.26-0.88,0.39-1.64,0.6-2.19c0.21-0.55,0.68-1.77,0.68-1.77s-1.41,2.47-1.51,2.89
		c-0.1,0.42-0.47,1.14-0.47,1.14l0.1-2.65l0.18-2.16l1.04-2.26c0,0-1.61,4.53-1.64,4.82c-0.03,0.29-0.08,1.4-0.08,1.69
		c0,0.29-0.94-3.23-0.94-3.23l-1.09-2.29l-0.75-1.22c0,0,2.03,6.09,2.05,6.17c0.03,0.08,0.26,1.48,0.26,1.48s-1.28-3.12-1.56-3.36
		c-0.29-0.23-1.69-2.27-1.69-2.27l2.39,4.51l0.42,1.2l-0.94-0.78l-1.64-1.48l-1.82-1.61c0,0,2.24,2.84,2.32,2.89
		c0.08,0.05,0.44,0.47,0.39,0.36c-0.05-0.1-1.25-0.91-1.74-0.99C34.86,75.67,33.56,75.88,33.28,76.09"/>
	<path class="st16" d="M34.93,69.13c-0.21,0.33-0.24,0.76-0.24,0.76s0.24,0.21,0.24,0.59c0,0.38-0.04,0.68,0,0.74
		c0.04,0.06,0.49,0.02,0.49,0.47c0,0.45,0.21,0.56,0.24,0.69c0.04,0.14-0.17,0.28,0.35,0.33c0.52,0.05,0.52,0.68,0.76,0
		c0.24-0.68,0.59-0.65,0.31-1.06c-0.28-0.42-0.03-0.61-0.49-0.98c-0.45-0.37-0.28-0.44-0.49-0.68c-0.21-0.24-0.45-0.28-0.45-0.28
		l-0.24-0.59C35.42,69.13,35.11,68.85,34.93,69.13"/>
	<path class="st8" d="M75.15,72.66c-0.27-0.56-0.5-1.04-0.5-1.04s-1.86-0.99-2.3-1.6c-0.33-0.46-0.12-1.14-0.02-1.73
		c0.03-0.2,0.05-0.39,0.02-0.56c-0.09-0.68,0.15-0.77-0.74-1.24c-0.4-0.21-0.63-0.47-0.76-0.75c-0.18-0.02-0.42-0.08-0.83-0.19
		c-1.24-0.35-2.65-0.24-2.65-0.24l-2.09,1.65c0,0-0.74,0.62-1.88,0.97c-1.15,0.35-1.56,0.8-1.56,0.8s-0.47,0.38-0.18,0.59
		c0.29,0.21,1.33,0.47,1.92,1.41c0.59,0.94-0.24,1.47,0.94,1.59c0.52,0.05,1.15,0.13,1.68,0.19c0.67,0.09,1.2,0.16,1.2,0.16
		l1.82,1.47c0,0,0.54,0.74,1.69,0.56c1.15-0.18,1.89-1.06,2.47-1.06c0.55,0,1.33-0.05,1.55,0.04c0.02,0.01,0.03,0.01,0.04,0.02
		c0.15,0.12,0.65,0.44,0.65,0.44s0.07-0.08,0.17-0.21C75.61,73.6,75.37,73.11,75.15,72.66"/>
	<path class="st17" d="M75.15,72.66c-0.27-0.56-0.5-1.04-0.5-1.04s-1.86-0.99-2.3-1.6c-0.33-0.46-0.12-1.14-0.02-1.73
		c0.03-0.2,0.05-0.39,0.02-0.56c-0.09-0.68,0.15-0.77-0.74-1.24c-0.4-0.21-0.63-0.47-0.76-0.75c-0.18-0.02-0.42-0.08-0.83-0.19
		c-1.24-0.35-2.65-0.24-2.65-0.24l-2.09,1.65c0,0-0.74,0.62-1.88,0.97c-1.15,0.35-1.56,0.8-1.56,0.8s-0.47,0.38-0.18,0.59
		c0.29,0.21,1.33,0.47,1.92,1.41c0.59,0.94-0.24,1.47,0.94,1.59c0.52,0.05,1.15,0.13,1.68,0.19c0.67,0.09,1.2,0.16,1.2,0.16
		l1.82,1.47c0,0,0.54,0.74,1.69,0.56c1.15-0.18,1.89-1.06,2.47-1.06c0.55,0,1.33-0.05,1.55,0.04c0.02,0.01,0.03,0.01,0.04,0.02
		c0.15,0.12,0.65,0.44,0.65,0.44s0.07-0.08,0.17-0.21C75.61,73.6,75.37,73.11,75.15,72.66z"/>
	<path class="st10" d="M82.66,79.46c-0.68-0.65-0.59-1.94-0.59-1.94s0.24-1.94,0.18-2.77c0-0.08-0.03-0.15-0.06-0.22
		c-0.34-0.65-1.88-0.87-1.88-0.87l-1.74-0.91l-0.26-0.13l-1.06-0.5c-0.14-0.07-0.42-0.02-0.72,0.05c-0.47,0.12-0.96,0.34-0.96,0.34
		l-0.92,1.14c0.12,0.01,0.23,0.02,0.29,0.04c0.38,0.64,0.83,1.46,0.84,1.88c0.03,0.74-1.21,1.56-1.21,1.56s-0.1-0.04-0.27-0.08
		c-0.4-0.1-1.17-0.21-1.66,0.17l0.08,0.76c0,0,0.65,1.35,0.82,1.91c0.18,0.56-0.11,1.41,0,1.91c0.11,0.5,1.21,0.59,1.21,0.59
		l2.36,0.44l1.8,0.74c0,0,1.13,1.07,1.95,0.59c0.82-0.48,0.55-2.24,0.55-2.24S83.34,80.1,82.66,79.46"/>
	<path class="st17" d="M82.66,79.46c-0.68-0.65-0.59-1.94-0.59-1.94s0.24-1.94,0.18-2.77c0-0.08-0.03-0.15-0.06-0.22
		c-0.34-0.65-1.88-0.87-1.88-0.87l-1.74-0.91l-0.26-0.13l-1.06-0.5c-0.14-0.07-0.42-0.02-0.72,0.05c-0.47,0.12-0.96,0.34-0.96,0.34
		l-0.92,1.14c0.12,0.01,0.23,0.02,0.29,0.04c0.38,0.64,0.83,1.46,0.84,1.88c0.03,0.74-1.21,1.56-1.21,1.56s-0.1-0.04-0.27-0.08
		c-0.4-0.1-1.17-0.21-1.66,0.17l0.08,0.76c0,0,0.65,1.35,0.82,1.91c0.18,0.56-0.11,1.41,0,1.91c0.11,0.5,1.21,0.59,1.21,0.59
		l2.36,0.44l1.8,0.74c0,0,1.13,1.07,1.95,0.59c0.82-0.48,0.55-2.24,0.55-2.24S83.34,80.1,82.66,79.46z"/>
	<path class="st11" d="M80.24,65.96c-0.35-0.56-0.65-0.62-0.91-0.91c-0.27-0.29-0.12-0.53-0.12-1.06c0-0.53-0.68-1.59-0.68-1.59
		l-2.3-0.85l-1.03-1.12l-2.03-0.44l0.06,1.06c0,0-0.68,1.47-1.15,2.03c-0.47,0.56-1.27,0.8-1.36,1.53c-0.05,0.4-0.04,0.79,0.12,1.14
		c0.13,0.28,0.37,0.54,0.77,0.75c0.88,0.47,0.65,0.56,0.74,1.24c0.09,0.68-0.44,1.68,0,2.29c0.44,0.61,2.3,1.6,2.3,1.6
		s0.74,1.57,1.14,2.32c0.13,0.24,0.22,0.4,0.24,0.39c0.1-0.06,0.2-0.14,0.31-0.23c0.4-0.36,0.81-0.92,0.81-0.92l0.69-0.78l-0.6-0.28
		c-0.14-0.07-0.42-0.02-0.72,0.05c-0.04-0.38-0.05-0.74,0.01-0.99c0.21-0.85,0.71-0.91,1.3-1.65c0.59-0.74,0.44-1,0.82-1.65
		c0.19-0.32,0.49-0.59,0.75-0.77c0.26-0.18,0.46-0.29,0.46-0.29l0.77-0.1C80.52,66.45,80.38,66.19,80.24,65.96"/>
	<path class="st17" d="M80.24,65.96c-0.35-0.56-0.65-0.62-0.91-0.91c-0.27-0.29-0.12-0.53-0.12-1.06c0-0.53-0.68-1.59-0.68-1.59
		l-2.3-0.85l-1.03-1.12l-2.03-0.44l0.06,1.06c0,0-0.68,1.47-1.15,2.03c-0.47,0.56-1.27,0.8-1.36,1.53c-0.05,0.4-0.04,0.79,0.12,1.14
		c0.13,0.28,0.37,0.54,0.77,0.75c0.88,0.47,0.65,0.56,0.74,1.24c0.09,0.68-0.44,1.68,0,2.29c0.44,0.61,2.3,1.6,2.3,1.6
		s0.74,1.57,1.14,2.32c0.13,0.24,0.22,0.4,0.24,0.39c0.1-0.06,0.2-0.14,0.31-0.23c0.4-0.36,0.81-0.92,0.81-0.92l0.69-0.78l-0.6-0.28
		c-0.14-0.07-0.42-0.02-0.72,0.05c-0.04-0.38-0.05-0.74,0.01-0.99c0.21-0.85,0.71-0.91,1.3-1.65c0.59-0.74,0.44-1,0.82-1.65
		c0.19-0.32,0.49-0.59,0.75-0.77c0.26-0.18,0.46-0.29,0.46-0.29l0.77-0.1C80.52,66.45,80.38,66.19,80.24,65.96z"/>
	<path class="st12" d="M86.69,68.85c0,0-0.21-2.45-0.38-2.89c-0.18-0.44-0.91,0.62-0.91,0.62s-0.53,0.09-1.33-0.27
		c-0.8-0.35-0.15-0.82-1.71-1.02c-1.56-0.2-1.12,1.34-1.12,1.34l-0.61,0.08l-0.77,0.1c0,0-0.83,0.41-1.21,1.06
		c-0.38,0.65-0.24,0.91-0.82,1.65c-0.56,0.7-1.04,0.79-1.26,1.52c-0.01,0.04-0.02,0.08-0.04,0.13c-0.06,0.25-0.05,0.61-0.01,0.99
		c0.29-0.08,0.57-0.12,0.72-0.05l0.6,0.28l0.72,0.34l1.74,0.91c0,0,0.17,0.02,0.41,0.08c0.48,0.11,1.25,0.35,1.47,0.79
		c0.34-0.12,0.71-0.3,1.15-0.6c1.12-0.77,1.44-1.12,1.44-1.12s1.21-0.21,1.68-1.33C86.93,70.35,86.69,68.85,86.69,68.85"/>
	<path class="st17" d="M86.69,68.85c0,0-0.21-2.45-0.38-2.89c-0.18-0.44-0.91,0.62-0.91,0.62s-0.53,0.09-1.33-0.27
		c-0.8-0.35-0.15-0.82-1.71-1.02c-1.56-0.2-1.12,1.34-1.12,1.34l-0.61,0.08l-0.77,0.1c0,0-0.83,0.41-1.21,1.06
		c-0.38,0.65-0.24,0.91-0.82,1.65c-0.56,0.7-1.04,0.79-1.26,1.52c-0.01,0.04-0.02,0.08-0.04,0.13c-0.06,0.25-0.05,0.61-0.01,0.99
		c0.29-0.08,0.57-0.12,0.72-0.05l0.6,0.28l0.72,0.34l1.74,0.91c0,0,0.17,0.02,0.41,0.08c0.48,0.11,1.25,0.35,1.47,0.79
		c0.34-0.12,0.71-0.3,1.15-0.6c1.12-0.77,1.44-1.12,1.44-1.12s1.21-0.21,1.68-1.33C86.93,70.35,86.69,68.85,86.69,68.85z"/>
	<path class="st13" d="M69.22,67.16c-1.2,0.54-1.64,1.05-1.64,1.05l-0.97,0.82c0,0-0.18,0.5,0,1.35c0.18,0.85-0.27,0.44,0.88,1.21
		c1.15,0.77,1.33,0.8,1.94,1.47c0.62,0.68,0.71,1.27,1.5,0.65c0.8-0.62,0.47-0.65,1.15-0.56c0.68,0.09,1.06,0.12,1.44,0.12
		c0.38,0,0.99,0.1,1.36,0.07c0.14-0.01,0.22-0.31,0.26-0.67c-0.27-0.56-0.5-1.04-0.5-1.04s-1.86-0.99-2.3-1.6
		c-0.33-0.46-0.11-1.14-0.02-1.73c-0.28-0.45-0.62-0.94-0.62-0.94S70.42,66.61,69.22,67.16"/>
	<path class="st13" d="M73.88,78.45c0,0,0.94-0.2,0.85,0.36c-0.09,0.56-0.81,0.94,0.01,1.03c0.82,0.09,1.03-0.12,0.93,0.5
		c-0.11,0.62-0.89,0.88,0,0.94c0.89,0.06,0.16-0.24,0.89,0.06c0.74,0.29,0.62,0.94,1.3,0.24c0.68-0.71,0.82-1.03,0.94-1.56
		c0.12-0.53,0.27,0.47,0.71-0.68c0.44-1.15,0.38-1.16,0.65-2.11c0.27-0.95,0.27-2.07,0.27-2.07s-1-1.3-1.41-1.62
		c-0.41-0.32-0.65-0.65-0.65-0.65l-0.06-0.27l-1.06-0.5c-0.14-0.07-0.42-0.02-0.72,0.05c-0.47,0.12-0.96,0.34-0.96,0.34l-0.92,1.14
		c0.12,0.01,0.23,0.02,0.29,0.04c0.38,0.64,0.83,1.46,0.84,1.88c0.03,0.74-1.21,1.56-1.21,1.56s-0.1-0.04-0.27-0.08l-0.17,0.64
		L73.88,78.45z"/>
	<path class="st13" d="M77.15,73.18l0.69-0.78l-0.6-0.28c-0.14-0.07-0.42-0.02-0.72,0.06c-0.04-0.38-0.05-0.74,0.01-0.99
		c0.21-0.85,0.71-0.91,1.3-1.65c0.59-0.74,0.44-1,0.82-1.65c0.19-0.32,0.49-0.59,0.75-0.77l-0.36-0.52c0,0,0.09-0.24-0.15-0.65
		c-0.24-0.41-0.94-0.64-0.94-0.64s-0.41-0.22-0.8-0.42c-0.38-0.21-0.09-0.12-0.21-0.38c-0.12-0.27-0.62-0.21-1.16-0.77
		c-0.54-0.56-0.52-0.29-0.64-0.29c-0.12,0-0.54,0.65-0.54,0.65s-0.46,0.38-0.72,0.65c-0.27,0.26-0.7,0.74-0.7,0.74l0.03,1.36
		c0,0-0.12,0.88,0.15,1.94c0.27,1.06,1.59,2.53,1.59,2.53s1.09,1.56,1.09,1.68l0.31,1.12C76.75,73.73,77.15,73.18,77.15,73.18"/>
	<path class="st13" d="M82.07,72.8l1.21-0.44l0.65-1.21c0,0,0.32-0.56,0.38-0.86c0.06-0.29-0.21-0.38-0.5-0.62
		c-0.29-0.24-0.32-0.5-1.44-0.94c-1.12-0.44-0.59-0.09-1.3,0c-0.71,0.09-0.47-0.12-1.27-0.18c-0.8-0.06-1.38,0.97-1.38,0.97
		l-1.27,1.21c0,0-0.3,0.16-0.58,0.31c-0.01,0.04-0.02,0.08-0.04,0.13c-0.06,0.26-0.05,0.61-0.01,0.99c0.29-0.08,0.57-0.12,0.71-0.05
		l0.6,0.28l0.72,0.34l1.74,0.91c0,0,0.17,0.02,0.41,0.08c0.2-0.04,0.38-0.08,0.53-0.11C81.79,73.52,82.07,72.8,82.07,72.8"/>
	<path class="st14" d="M74.93,73.69c-0.06-0.02-0.16-0.04-0.29-0.04c-0.34-0.02-0.86,0.01-1.26,0.01c-0.59,0-1.33,0.88-2.47,1.06
		c-1.15,0.18-1.69-0.56-1.69-0.56l-1.82-1.47c0,0-0.03,0-0.09-0.01c-0.18-0.02-0.61-0.08-1.12-0.15c-0.08,0.44,0.11,0.87,0.11,0.87
		s0.03-0.24,0.21,0.5c0.18,0.74-1.33,0.82-2.06,1.92c-0.74,1.09,0.97,2.32,0.97,2.32s-0.15,1.95,0,2.66c0.15,0.71,0.44,1.27,1,1.12
		c0.56-0.15,0.24-0.06,0.8-0.88c0.56-0.82,2-0.77,2-0.77s1.1-0.09,2.16-0.77c1.06-0.68,0.44-0.59,0.91-1.8
		c0.08-0.2,0.2-0.35,0.34-0.46c0.69-0.54,1.93-0.1,1.93-0.1s0.36-0.24,0.69-0.58c0.28-0.29,0.53-0.64,0.52-0.98
		C75.76,75.15,75.31,74.33,74.93,73.69"/>
	<path class="st17" d="M74.93,73.69c-0.06-0.02-0.16-0.04-0.29-0.04c-0.34-0.02-0.86,0.01-1.26,0.01c-0.59,0-1.33,0.88-2.47,1.06
		c-1.15,0.18-1.69-0.56-1.69-0.56l-1.82-1.47c0,0-0.03,0-0.09-0.01c-0.18-0.02-0.61-0.08-1.12-0.15c-0.08,0.44,0.11,0.87,0.11,0.87
		s0.03-0.24,0.21,0.5c0.18,0.74-1.33,0.82-2.06,1.92c-0.74,1.09,0.97,2.32,0.97,2.32s-0.15,1.95,0,2.66c0.15,0.71,0.44,1.27,1,1.12
		c0.56-0.15,0.24-0.06,0.8-0.88c0.56-0.82,2-0.77,2-0.77s1.1-0.09,2.16-0.77c1.06-0.68,0.44-0.59,0.91-1.8
		c0.08-0.2,0.2-0.35,0.34-0.46c0.69-0.54,1.93-0.1,1.93-0.1s0.36-0.24,0.69-0.58c0.28-0.29,0.53-0.64,0.52-0.98
		C75.76,75.15,75.31,74.33,74.93,73.69z"/>
	<path class="st13" d="M74.93,73.69c-0.06-0.02-0.16-0.04-0.29-0.04c-0.34-0.02-0.86,0.01-1.26,0.01c-0.59,0-1.33,0.88-2.47,1.06
		c-1.15,0.18-1.69-0.56-1.69-0.56l-1.82-1.47c0,0-0.03,0-0.09-0.01c-0.13,0.17-0.25,0.39-0.27,0.63c-0.03,0.47-0.68,0.8,0,1.03
		c0.68,0.23,0.97-0.06,0.77,0.41c-0.21,0.47-0.65,0.5-0.27,1.09c0.38,0.59,0.48,0.29,0.33,0.88c-0.15,0.59-0.74,0.44,0.07,0.91
		c0.81,0.47,0.25,0.09,0.81,0.47c0.56,0.38,0.38,0.44,0.85,0.59c0.47,0.15,0.74,0.12,0.74,0.12s0.94-1.28,1.3-1.58
		C72,76.92,73,76.66,73,76.66s0.85-0.12,1.18-0.12c0.14,0,0.6,0,1.07,0.01c0.28-0.29,0.53-0.64,0.52-0.98
		C75.76,75.15,75.31,74.33,74.93,73.69"/>
	<path class="st15" d="M70.72,71.92c-0.26,0.19,2.12,0.17,2.58,0.55c0.46,0.38,1.49,1.32,1.89,1.37c0.4,0.04,0.9-0.38,0.9-0.38
		s0.48-0.19,0.69-0.9c0.21-0.71,0.32-1.32,0.48-1.76c0.17-0.44,0.55-1.43,0.55-1.43s-1.13,1.99-1.22,2.33
		c-0.08,0.34-0.38,0.92-0.38,0.92l0.08-2.14l0.15-1.74l0.84-1.83c0,0-1.3,3.65-1.32,3.88c-0.02,0.23-0.06,1.13-0.06,1.37
		c0,0.23-0.76-2.6-0.76-2.6l-0.88-1.85l-0.61-0.99c0,0,1.64,4.91,1.66,4.98c0.02,0.06,0.21,1.2,0.21,1.2s-1.03-2.52-1.26-2.71
		c-0.23-0.19-1.37-1.83-1.37-1.83l1.93,3.63l0.34,0.97l-0.76-0.63l-1.32-1.2l-1.47-1.3c0,0,1.81,2.29,1.87,2.33
		c0.06,0.04,0.36,0.38,0.32,0.29c-0.04-0.08-1.01-0.74-1.41-0.8C72,71.58,70.95,71.75,70.72,71.92"/>
	<path class="st16" d="M72.06,66.3c-0.17,0.27-0.2,0.62-0.2,0.62s0.2,0.17,0.2,0.48c0,0.31-0.03,0.55,0,0.6
		c0.03,0.05,0.39,0.02,0.39,0.38s0.17,0.45,0.2,0.56c0.03,0.11-0.14,0.23,0.28,0.27c0.42,0.04,0.42,0.55,0.62,0
		c0.2-0.55,0.48-0.52,0.25-0.86c-0.22-0.34-0.03-0.49-0.39-0.79c-0.36-0.3-0.22-0.35-0.39-0.55c-0.17-0.2-0.36-0.22-0.36-0.22
		l-0.2-0.48C72.45,66.3,72.2,66.08,72.06,66.3"/>
	<path class="st8" d="M31.97,31.69c-0.07-0.62-0.13-1.15-0.13-1.15s-1.43-1.54-1.65-2.26c-0.16-0.54,0.26-1.11,0.54-1.64
		c0.09-0.18,0.17-0.35,0.21-0.52c0.14-0.67,0.39-0.68-0.29-1.41c-0.31-0.33-0.45-0.65-0.48-0.96c-0.16-0.08-0.37-0.21-0.72-0.45
		c-1.05-0.74-2.43-1.09-2.43-1.09l-2.52,0.87c0,0-0.9,0.34-2.1,0.3c-1.2-0.04-1.74,0.24-1.74,0.24s-0.57,0.21-0.36,0.5
		c0.21,0.29,1.1,0.88,1.35,1.96c0.25,1.08-0.7,1.31,0.37,1.81c0.48,0.22,1.04,0.49,1.53,0.73c0.61,0.3,1.09,0.54,1.09,0.54
		l1.24,1.99c0,0,0.27,0.87,1.41,1.08c1.14,0.21,2.13-0.39,2.68-0.19c0.52,0.18,1.27,0.38,1.45,0.54c0.01,0.01,0.02,0.02,0.03,0.03
		c0.1,0.16,0.47,0.63,0.47,0.63s0.1-0.05,0.23-0.15C32.1,32.73,32.03,32.18,31.97,31.69"/>
	<path class="st17" d="M31.97,31.69c-0.07-0.62-0.13-1.15-0.13-1.15s-1.43-1.54-1.65-2.26c-0.16-0.54,0.26-1.11,0.54-1.64
		c0.09-0.18,0.17-0.35,0.21-0.52c0.14-0.67,0.39-0.68-0.29-1.41c-0.31-0.33-0.45-0.65-0.48-0.96c-0.16-0.08-0.37-0.21-0.72-0.45
		c-1.05-0.74-2.43-1.09-2.43-1.09l-2.52,0.87c0,0-0.9,0.34-2.1,0.3c-1.2-0.04-1.74,0.24-1.74,0.24s-0.57,0.21-0.36,0.5
		c0.21,0.29,1.1,0.88,1.35,1.96c0.25,1.08-0.7,1.31,0.37,1.81c0.48,0.22,1.04,0.49,1.53,0.73c0.61,0.3,1.09,0.54,1.09,0.54
		l1.24,1.99c0,0,0.27,0.87,1.41,1.08c1.14,0.21,2.13-0.39,2.68-0.19c0.52,0.18,1.27,0.38,1.45,0.54c0.01,0.01,0.02,0.02,0.03,0.03
		c0.1,0.16,0.47,0.63,0.47,0.63s0.1-0.05,0.23-0.15C32.1,32.73,32.03,32.18,31.97,31.69z"/>
	<path class="st10" d="M36.85,40.56c-0.43-0.83,0.08-2.03,0.08-2.03s0.86-1.76,1.07-2.56c0.02-0.08,0.02-0.15,0.01-0.23
		c-0.1-0.73-1.49-1.43-1.49-1.43l-1.34-1.43l-0.21-0.2l-0.84-0.82c-0.11-0.11-0.39-0.16-0.69-0.18c-0.48-0.04-1.02,0-1.02,0
		l-1.24,0.78h0c0.12,0.05,0.21,0.09,0.26,0.14c0.15,0.73,0.3,1.65,0.18,2.05c-0.22,0.7-1.65,1.08-1.65,1.08s-0.09-0.07-0.23-0.16
		c-0.35-0.23-1.04-0.58-1.63-0.38l-0.18,0.74c0,0,0.17,1.49,0.15,2.08c-0.02,0.59-0.56,1.3-0.63,1.81
		c-0.06,0.51,0.95,0.95,0.95,0.95l2.08,1.19l1.46,1.28c0,0,0.71,1.38,1.65,1.19c0.94-0.19,1.26-1.94,1.26-1.94
		S37.28,41.4,36.85,40.56"/>
	<path class="st17" d="M36.85,40.56c-0.43-0.83,0.08-2.03,0.08-2.03s0.86-1.76,1.07-2.56c0.02-0.08,0.02-0.15,0.01-0.23
		c-0.1-0.73-1.49-1.43-1.49-1.43l-1.34-1.43l-0.21-0.2l-0.84-0.82c-0.11-0.11-0.39-0.16-0.69-0.18c-0.48-0.04-1.02,0-1.02,0
		l-1.24,0.78h0c0.12,0.05,0.21,0.09,0.26,0.14c0.15,0.73,0.3,1.65,0.18,2.05c-0.22,0.7-1.65,1.08-1.65,1.08s-0.09-0.07-0.23-0.16
		c-0.35-0.23-1.04-0.58-1.63-0.38l-0.18,0.74c0,0,0.17,1.49,0.15,2.08c-0.02,0.59-0.56,1.3-0.63,1.81
		c-0.06,0.51,0.95,0.95,0.95,0.95l2.08,1.19l1.46,1.28c0,0,0.71,1.38,1.65,1.19c0.94-0.19,1.26-1.94,1.26-1.94
		S37.28,41.4,36.85,40.56z"/>
	<path class="st11" d="M38.98,27.02c-0.15-0.64-0.41-0.8-0.56-1.16c-0.15-0.36,0.06-0.54,0.24-1.04c0.17-0.5-0.12-1.72-0.12-1.72
		l-1.89-1.56l-0.61-1.4l-1.78-1.08l-0.29,1.02c0,0-1.12,1.17-1.75,1.54c-0.63,0.38-1.46,0.34-1.78,1.01
		c-0.18,0.37-0.3,0.73-0.26,1.11c0.03,0.31,0.17,0.63,0.48,0.96c0.68,0.73,0.43,0.74,0.29,1.41c-0.14,0.67-0.97,1.44-0.75,2.16
		c0.22,0.72,1.65,2.26,1.65,2.26s0.19,1.73,0.32,2.56c0.04,0.27,0.08,0.45,0.1,0.45c0.11-0.02,0.24-0.06,0.37-0.12
		c0.5-0.21,1.06-0.6,1.06-0.6l0.91-0.51l-0.48-0.47c-0.11-0.11-0.39-0.16-0.69-0.18c0.08-0.37,0.19-0.71,0.33-0.93
		c0.47-0.74,0.97-0.63,1.76-1.14c0.8-0.5,0.74-0.8,1.32-1.29c0.29-0.24,0.66-0.4,0.96-0.49c0.3-0.09,0.53-0.12,0.53-0.12l0.76,0.16
		C39.08,27.58,39.04,27.28,38.98,27.02"/>
	<path class="st17" d="M38.98,27.02c-0.15-0.64-0.41-0.8-0.56-1.16c-0.15-0.36,0.06-0.54,0.24-1.04c0.17-0.5-0.12-1.72-0.12-1.72
		l-1.89-1.56l-0.61-1.4l-1.78-1.08l-0.29,1.02c0,0-1.12,1.17-1.75,1.54c-0.63,0.38-1.46,0.34-1.78,1.01
		c-0.18,0.37-0.3,0.73-0.26,1.11c0.03,0.31,0.17,0.63,0.48,0.96c0.68,0.73,0.43,0.74,0.29,1.41c-0.14,0.67-0.97,1.44-0.75,2.16
		c0.22,0.72,1.65,2.26,1.65,2.26s0.19,1.73,0.32,2.56c0.04,0.27,0.08,0.45,0.1,0.45c0.11-0.02,0.24-0.06,0.37-0.12
		c0.5-0.21,1.06-0.6,1.06-0.6l0.91-0.51l-0.48-0.47c-0.11-0.11-0.39-0.16-0.69-0.18c0.08-0.37,0.19-0.71,0.33-0.93
		c0.47-0.74,0.97-0.63,1.76-1.14c0.8-0.5,0.74-0.8,1.32-1.29c0.29-0.24,0.66-0.4,0.96-0.49c0.3-0.09,0.53-0.12,0.53-0.12l0.76,0.16
		C39.08,27.58,39.04,27.28,38.98,27.02z"/>
	<path class="st12" d="M44.13,31.86c0,0,0.6-2.38,0.58-2.85c-0.02-0.48-1.06,0.29-1.06,0.29s-0.53-0.09-1.17-0.68
		c-0.64-0.59,0.13-0.83-1.28-1.52c-1.41-0.7-1.5,0.9-1.5,0.9l-0.61-0.13l-0.76-0.16c0,0-0.91,0.12-1.49,0.61
		c-0.57,0.49-0.52,0.79-1.32,1.29c-0.76,0.48-1.24,0.41-1.69,1.03c-0.02,0.04-0.05,0.07-0.08,0.11c-0.14,0.22-0.25,0.56-0.33,0.93
		c0.3,0.02,0.58,0.07,0.69,0.18l0.48,0.47l0.57,0.56l1.34,1.43c0,0,0.15,0.08,0.36,0.21c0.42,0.26,1.06,0.74,1.13,1.23
		c0.36,0,0.77-0.05,1.29-0.19c1.31-0.36,1.73-0.59,1.73-0.59s1.21,0.2,2.02-0.7C43.86,33.36,44.13,31.86,44.13,31.86"/>
	<path class="st17" d="M44.13,31.86c0,0,0.6-2.38,0.58-2.85c-0.02-0.48-1.06,0.29-1.06,0.29s-0.53-0.09-1.17-0.68
		c-0.64-0.59,0.13-0.83-1.28-1.52c-1.41-0.7-1.5,0.9-1.5,0.9l-0.61-0.13l-0.76-0.16c0,0-0.91,0.12-1.49,0.61
		c-0.57,0.49-0.52,0.79-1.32,1.29c-0.76,0.48-1.24,0.41-1.69,1.03c-0.02,0.04-0.05,0.07-0.08,0.11c-0.14,0.22-0.25,0.56-0.33,0.93
		c0.3,0.02,0.58,0.07,0.69,0.18l0.48,0.47l0.57,0.56l1.34,1.43c0,0,0.15,0.08,0.36,0.21c0.42,0.26,1.06,0.74,1.13,1.23
		c0.36,0,0.77-0.05,1.29-0.19c1.31-0.36,1.73-0.59,1.73-0.59s1.21,0.2,2.02-0.7C43.86,33.36,44.13,31.86,44.13,31.86z"/>
	<path class="st13" d="M28.17,24.55C26.86,24.67,26.27,25,26.27,25l-1.19,0.46c0,0-0.33,0.42-0.44,1.28
		c-0.11,0.86-0.4,0.33,0.44,1.43c0.84,1.1,0.99,1.18,1.36,2.03c0.36,0.84,0.25,1.43,1.21,1.1c0.95-0.32,0.66-0.46,1.27-0.15
		c0.61,0.3,0.96,0.46,1.33,0.58c0.36,0.12,0.9,0.42,1.27,0.51c0.14,0.03,0.31-0.22,0.46-0.55c-0.07-0.62-0.13-1.15-0.13-1.15
		s-1.43-1.54-1.65-2.26c-0.16-0.54,0.26-1.11,0.54-1.64c-0.11-0.52-0.28-1.09-0.28-1.09S29.48,24.43,28.17,24.55"/>
	<path class="st13" d="M28.88,36.75c0,0,0.96,0.12,0.69,0.62c-0.27,0.5-1.08,0.62-0.33,0.97c0.75,0.35,1.02,0.23,0.71,0.78
		c-0.3,0.55-1.13,0.54-0.31,0.89c0.83,0.35,0.23-0.17,0.83,0.35c0.6,0.52,0.28,1.09,1.15,0.65c0.87-0.45,1.12-0.71,1.4-1.17
		c0.28-0.46,0.1,0.53,0.89-0.41c0.79-0.94,0.74-0.97,1.3-1.78c0.56-0.81,0.93-1.87,0.93-1.87s-0.52-1.55-0.81-1.99
		c-0.28-0.44-0.4-0.82-0.4-0.82l0.03-0.28l-0.84-0.82c-0.11-0.11-0.39-0.16-0.69-0.18c-0.48-0.04-1.02,0-1.02,0l-1.24,0.78h0
		c0.12,0.05,0.21,0.09,0.26,0.14c0.15,0.73,0.3,1.65,0.18,2.05c-0.22,0.7-1.65,1.08-1.65,1.08s-0.09-0.07-0.23-0.16l-0.37,0.55
		L28.88,36.75z"/>
	<path class="st13" d="M33.69,32.83l0.91-0.51l-0.48-0.47c-0.11-0.11-0.39-0.16-0.69-0.18c0.08-0.37,0.19-0.71,0.33-0.93
		c0.47-0.74,0.97-0.63,1.76-1.13c0.8-0.5,0.74-0.8,1.32-1.29c0.29-0.24,0.66-0.4,0.96-0.49l-0.17-0.61c0,0,0.16-0.19,0.07-0.66
		c-0.09-0.47-0.68-0.91-0.68-0.91s-0.32-0.34-0.61-0.66c-0.29-0.32-0.04-0.14-0.07-0.43c-0.03-0.29-0.52-0.4-0.84-1.1
		c-0.32-0.7-0.4-0.45-0.51-0.49c-0.11-0.04-0.72,0.43-0.72,0.43s-0.56,0.21-0.9,0.38c-0.34,0.16-0.91,0.47-0.91,0.47l-0.42,1.29
		c0,0-0.4,0.8-0.5,1.88c-0.1,1.09,0.68,2.91,0.68,2.91s0.52,1.83,0.48,1.94l-0.07,1.16C33.13,33.22,33.69,32.83,33.69,32.83"/>
	<path class="st13" d="M38.47,34.08l1.29-0.02l1.01-0.93c0,0,0.49-0.42,0.64-0.68c0.15-0.26-0.07-0.43-0.27-0.75
		s-0.14-0.58-1.06-1.36c-0.91-0.78-0.53-0.28-1.23-0.42c-0.7-0.15-0.41-0.27-1.14-0.58c-0.73-0.32-1.63,0.47-1.63,0.47l-1.59,0.73
		c0,0-0.33,0.06-0.65,0.11c-0.02,0.03-0.05,0.07-0.08,0.11c-0.14,0.22-0.25,0.56-0.33,0.93c0.3,0.02,0.58,0.07,0.69,0.18l0.48,0.47
		l0.57,0.56l1.34,1.43c0,0,0.15,0.08,0.36,0.21c0.2,0.03,0.39,0.05,0.54,0.07C37.97,34.66,38.47,34.08,38.47,34.08"/>
	<path class="st14" d="M31.43,32.59c-0.05-0.04-0.14-0.09-0.26-0.14c-0.31-0.13-0.82-0.27-1.2-0.41c-0.56-0.19-1.54,0.4-2.68,0.19
		c-1.14-0.21-1.41-1.08-1.41-1.08l-1.24-1.99c0,0-0.03-0.01-0.08-0.04c-0.16-0.08-0.55-0.28-1.01-0.5
		c-0.22,0.39-0.17,0.85-0.17,0.85s0.1-0.21,0.03,0.54c-0.07,0.75-1.52,0.35-2.57,1.14C19.79,31.95,21,33.67,21,33.67
		s-0.78,1.79-0.87,2.51c-0.09,0.72,0,1.34,0.58,1.39c0.58,0.04,0.24,0.02,1.04-0.57c0.8-0.6,2.14-0.07,2.14-0.07
		s1.06,0.27,2.29-0.02c1.22-0.29,0.61-0.41,1.45-1.4c0.14-0.17,0.3-0.27,0.47-0.33c0.83-0.29,1.86,0.54,1.86,0.54
		s0.42-0.11,0.84-0.32c0.36-0.18,0.71-0.43,0.81-0.76C31.73,34.24,31.58,33.32,31.43,32.59"/>
	<path class="st17" d="M31.43,32.59c-0.05-0.04-0.14-0.09-0.26-0.14c-0.31-0.13-0.82-0.27-1.2-0.41c-0.56-0.19-1.54,0.4-2.68,0.19
		c-1.14-0.21-1.41-1.08-1.41-1.08l-1.24-1.99c0,0-0.03-0.01-0.08-0.04c-0.16-0.08-0.55-0.28-1.01-0.5
		c-0.22,0.39-0.17,0.85-0.17,0.85s0.1-0.21,0.03,0.54c-0.07,0.75-1.52,0.35-2.57,1.14C19.79,31.95,21,33.67,21,33.67
		s-0.78,1.79-0.87,2.51c-0.09,0.72,0,1.34,0.58,1.39c0.58,0.04,0.24,0.02,1.04-0.57c0.8-0.6,2.14-0.07,2.14-0.07
		s1.06,0.27,2.29-0.02c1.22-0.29,0.61-0.41,1.45-1.4c0.14-0.17,0.3-0.27,0.47-0.33c0.83-0.29,1.86,0.54,1.86,0.54
		s0.42-0.11,0.84-0.32c0.36-0.18,0.71-0.43,0.81-0.76C31.73,34.24,31.58,33.32,31.43,32.59z"/>
	<path class="st13" d="M31.43,32.59c-0.05-0.04-0.14-0.09-0.26-0.14c-0.31-0.13-0.82-0.27-1.2-0.41c-0.56-0.19-1.54,0.4-2.68,0.19
		c-1.14-0.21-1.41-1.08-1.41-1.08l-1.24-1.99c0,0-0.03-0.01-0.08-0.04c-0.17,0.12-0.36,0.28-0.46,0.51
		c-0.18,0.44-0.9,0.53-0.34,0.98c0.56,0.44,0.94,0.26,0.59,0.64c-0.35,0.38-0.78,0.26-0.61,0.95c0.17,0.68,0.36,0.44,0.02,0.94
		c-0.34,0.51-0.84,0.18-0.23,0.89c0.61,0.71,0.21,0.16,0.61,0.71c0.4,0.54,0.22,0.54,0.61,0.84c0.4,0.29,0.66,0.35,0.66,0.35
		s1.31-0.9,1.74-1.07c0.43-0.17,1.47-0.09,1.47-0.09s0.85,0.17,1.15,0.27c0.13,0.05,0.57,0.2,1.01,0.36
		c0.36-0.18,0.71-0.43,0.81-0.76C31.73,34.24,31.58,33.32,31.43,32.59"/>
	<path class="st15" d="M28.03,29.54c-0.3,0.09,1.95,0.85,2.26,1.36c0.31,0.51,0.98,1.74,1.34,1.91c0.36,0.17,0.98-0.06,0.98-0.06
		s0.52-0.02,0.95-0.63c0.43-0.61,0.73-1.15,1.03-1.51c0.3-0.36,0.98-1.17,0.98-1.17s-1.72,1.52-1.91,1.81
		C33.47,31.53,33,31.99,33,31.99l0.78-2l0.71-1.6l1.39-1.45c0,0-2.42,3.03-2.52,3.24c-0.1,0.21-0.43,1.05-0.51,1.27
		c-0.08,0.22,0.14-2.71,0.14-2.71l-0.23-2.04l-0.25-1.13c0,0-0.06,5.18-0.06,5.24c0,0.07-0.19,1.2-0.19,1.2s-0.15-2.72-0.31-2.97
		c-0.16-0.25-0.69-2.18-0.69-2.18l0.64,4.07l0,1.02l-0.51-0.84l-0.86-1.56l-0.96-1.71c0,0,0.96,2.75,1,2.81
		c0.05,0.06,0.21,0.47,0.2,0.38c-0.01-0.09-0.71-1.02-1.07-1.21C29.35,29.64,28.3,29.46,28.03,29.54"/>
	<path class="st16" d="M31.13,24.67c-0.25,0.2-0.39,0.52-0.39,0.52s0.13,0.22,0.03,0.51c-0.1,0.29-0.21,0.51-0.2,0.57
		c0.01,0.05,0.37,0.14,0.25,0.49c-0.12,0.34,0.01,0.48,0,0.59c-0.01,0.11-0.21,0.17,0.18,0.34c0.38,0.17,0.22,0.66,0.58,0.2
		c0.36-0.45,0.62-0.34,0.52-0.73c-0.1-0.39,0.14-0.48-0.11-0.88c-0.25-0.4-0.1-0.41-0.19-0.65c-0.09-0.24-0.27-0.33-0.27-0.33
		L31.5,24.8C31.5,24.8,31.34,24.5,31.13,24.67"/>
	<path class="st8" d="M80.82,43.16c0.6-0.16,1.12-0.29,1.12-0.29s1.33-1.63,2.01-1.95c0.51-0.24,1.14,0.1,1.71,0.31
		c0.19,0.07,0.37,0.12,0.54,0.13c0.68,0.04,0.72,0.29,1.36-0.49c0.28-0.35,0.58-0.53,0.88-0.61c0.05-0.17,0.16-0.4,0.35-0.77
		c0.58-1.15,0.74-2.56,0.74-2.56l-1.22-2.37c0,0-0.47-0.84-0.59-2.04c-0.13-1.2-0.48-1.68-0.48-1.68s-0.29-0.54-0.54-0.29
		c-0.26,0.25-0.72,1.21-1.75,1.61c-1.04,0.4-1.4-0.51-1.74,0.62c-0.15,0.5-0.34,1.1-0.51,1.61c-0.21,0.65-0.39,1.15-0.39,1.15
		l-1.79,1.51c0,0-0.83,0.38-0.87,1.55c-0.05,1.16,0.68,2.05,0.57,2.63c-0.1,0.54-0.2,1.31-0.33,1.51c-0.01,0.02-0.02,0.03-0.03,0.04
		c-0.14,0.12-0.56,0.55-0.56,0.55s0.06,0.09,0.18,0.21C79.8,43.43,80.33,43.29,80.82,43.16"/>
	<path class="st17" d="M80.82,43.16c0.6-0.16,1.12-0.29,1.12-0.29s1.33-1.63,2.01-1.95c0.51-0.24,1.14,0.1,1.71,0.31
		c0.19,0.07,0.37,0.12,0.54,0.13c0.68,0.04,0.72,0.29,1.36-0.49c0.28-0.35,0.58-0.53,0.88-0.61c0.05-0.17,0.16-0.4,0.35-0.77
		c0.58-1.15,0.74-2.56,0.74-2.56l-1.22-2.37c0,0-0.47-0.84-0.59-2.04c-0.13-1.2-0.48-1.68-0.48-1.68s-0.29-0.54-0.54-0.29
		c-0.26,0.25-0.72,1.21-1.75,1.61c-1.04,0.4-1.4-0.51-1.74,0.62c-0.15,0.5-0.34,1.1-0.51,1.61c-0.21,0.65-0.39,1.15-0.39,1.15
		l-1.79,1.51c0,0-0.83,0.38-0.87,1.55c-0.05,1.16,0.68,2.05,0.57,2.63c-0.1,0.54-0.2,1.31-0.33,1.51c-0.01,0.02-0.02,0.03-0.03,0.04
		c-0.14,0.12-0.56,0.55-0.56,0.55s0.06,0.09,0.18,0.21C79.8,43.43,80.33,43.29,80.82,43.16z"/>
	<path class="st10" d="M72.71,49.23c0.76-0.55,2.02-0.21,2.02-0.21s1.86,0.6,2.69,0.7c0.08,0.01,0.15,0,0.23-0.02
		c0.71-0.21,1.21-1.68,1.21-1.68l1.23-1.53l0.17-0.24l0.69-0.95c0.09-0.12,0.1-0.41,0.08-0.71c-0.03-0.48-0.14-1.01-0.14-1.01
		l-0.95-1.12c-0.03,0.12-0.06,0.22-0.1,0.27c-0.7,0.25-1.6,0.53-2,0.47c-0.73-0.12-1.3-1.49-1.3-1.49s0.06-0.1,0.13-0.25
		c0.17-0.38,0.43-1.11,0.15-1.67l-0.76-0.07c0,0-1.45,0.38-2.04,0.44c-0.58,0.07-1.37-0.38-1.88-0.37
		c-0.51,0.01-0.81,1.07-0.81,1.07l-0.88,2.23l-1.07,1.62c0,0-1.27,0.9-0.95,1.8c0.32,0.9,2.09,0.97,2.09,0.97
		S71.95,49.78,72.71,49.23"/>
	<path class="st17" d="M72.71,49.23c0.76-0.55,2.02-0.21,2.02-0.21s1.86,0.6,2.69,0.7c0.08,0.01,0.15,0,0.23-0.02
		c0.71-0.21,1.21-1.68,1.21-1.68l1.23-1.53l0.17-0.24l0.69-0.95c0.09-0.12,0.1-0.41,0.08-0.71c-0.03-0.48-0.14-1.01-0.14-1.01
		l-0.95-1.12c-0.03,0.12-0.06,0.22-0.1,0.27c-0.7,0.25-1.6,0.53-2,0.47c-0.73-0.12-1.3-1.49-1.3-1.49s0.06-0.1,0.13-0.25
		c0.17-0.38,0.43-1.11,0.15-1.67l-0.76-0.07c0,0-1.45,0.38-2.04,0.44c-0.58,0.07-1.37-0.38-1.88-0.37
		c-0.51,0.01-0.81,1.07-0.81,1.07l-0.88,2.23l-1.07,1.62c0,0-1.27,0.9-0.95,1.8c0.32,0.9,2.09,0.97,2.09,0.97
		S71.95,49.78,72.71,49.23z"/>
	<path class="st11" d="M86.42,49.44c0.62-0.24,0.73-0.52,1.07-0.72c0.34-0.2,0.54-0.01,1.06,0.09c0.52,0.1,1.69-0.36,1.69-0.36
		l1.28-2.09l1.3-0.8l0.82-1.91l-1.05-0.14c0,0-1.32-0.95-1.77-1.52c-0.46-0.57-0.54-1.4-1.25-1.62c-0.39-0.13-0.77-0.19-1.14-0.1
		c-0.3,0.08-0.6,0.26-0.88,0.61c-0.63,0.78-0.67,0.53-1.35,0.49c-0.68-0.04-1.56-0.75-2.25-0.44c-0.68,0.32-2.01,1.95-2.01,1.95
		s-1.68,0.43-2.49,0.68c-0.26,0.08-0.44,0.14-0.43,0.16c0.04,0.11,0.1,0.23,0.17,0.35c0.28,0.46,0.74,0.97,0.74,0.97l0.64,0.83
		l0.4-0.54c0.09-0.12,0.1-0.41,0.08-0.71c0.38,0.03,0.73,0.09,0.97,0.2c0.8,0.37,0.76,0.87,1.37,1.59c0.61,0.72,0.9,0.62,1.46,1.12
		c0.28,0.25,0.48,0.6,0.62,0.88c0.13,0.29,0.19,0.51,0.19,0.51l-0.05,0.78C85.88,49.62,86.17,49.54,86.42,49.44"/>
	<path class="st17" d="M86.42,49.44c0.62-0.24,0.73-0.52,1.07-0.72c0.34-0.2,0.54-0.01,1.06,0.09c0.52,0.1,1.69-0.36,1.69-0.36
		l1.28-2.09l1.3-0.8l0.82-1.91l-1.05-0.14c0,0-1.32-0.95-1.77-1.52c-0.46-0.57-0.54-1.4-1.25-1.62c-0.39-0.13-0.77-0.19-1.14-0.1
		c-0.3,0.08-0.6,0.26-0.88,0.61c-0.63,0.78-0.67,0.53-1.35,0.49c-0.68-0.04-1.56-0.75-2.25-0.44c-0.68,0.32-2.01,1.95-2.01,1.95
		s-1.68,0.43-2.49,0.68c-0.26,0.08-0.44,0.14-0.43,0.16c0.04,0.11,0.1,0.23,0.17,0.35c0.28,0.46,0.74,0.97,0.74,0.97l0.64,0.83
		l0.4-0.54c0.09-0.12,0.1-0.41,0.08-0.71c0.38,0.03,0.73,0.09,0.97,0.2c0.8,0.37,0.76,0.87,1.37,1.59c0.61,0.72,0.9,0.62,1.46,1.12
		c0.28,0.25,0.48,0.6,0.62,0.88c0.13,0.29,0.19,0.51,0.19,0.51l-0.05,0.78C85.88,49.62,86.17,49.54,86.42,49.44z"/>
	<path class="st12" d="M82.35,55.22c0,0,2.44,0.27,2.91,0.18c0.47-0.09-0.43-1.01-0.43-1.01s0.02-0.54,0.51-1.25
		c0.5-0.71,0.84,0.01,1.33-1.48c0.49-1.5-1.11-1.36-1.11-1.36l0.04-0.62l0.05-0.78c0,0-0.25-0.89-0.81-1.39
		c-0.56-0.5-0.85-0.41-1.46-1.12c-0.58-0.68-0.57-1.17-1.25-1.53c-0.04-0.02-0.08-0.04-0.12-0.06c-0.24-0.11-0.59-0.17-0.97-0.2
		c0.02,0.3,0.01,0.59-0.08,0.71l-0.4,0.54l-0.47,0.64l-1.23,1.53c0,0-0.06,0.16-0.16,0.39c-0.2,0.45-0.58,1.16-1.05,1.29
		c0.05,0.35,0.16,0.76,0.37,1.25c0.54,1.24,0.82,1.63,0.82,1.63s-0.03,1.22,0.98,1.9C80.83,55.17,82.35,55.22,82.35,55.22"/>
	<path class="st17" d="M82.35,55.22c0,0,2.44,0.27,2.91,0.18c0.47-0.09-0.43-1.01-0.43-1.01s0.02-0.54,0.51-1.25
		c0.5-0.71,0.84,0.01,1.33-1.48c0.49-1.5-1.11-1.36-1.11-1.36l0.04-0.62l0.05-0.78c0,0-0.25-0.89-0.81-1.39
		c-0.56-0.5-0.85-0.41-1.46-1.12c-0.58-0.68-0.57-1.17-1.25-1.53c-0.04-0.02-0.08-0.04-0.12-0.06c-0.24-0.11-0.59-0.17-0.97-0.2
		c0.02,0.3,0.01,0.59-0.08,0.71l-0.4,0.54l-0.47,0.64l-1.23,1.53c0,0-0.06,0.16-0.16,0.39c-0.2,0.45-0.58,1.16-1.05,1.29
		c0.05,0.35,0.16,0.76,0.37,1.25c0.54,1.24,0.82,1.63,0.82,1.63s-0.03,1.22,0.98,1.9C80.83,55.17,82.35,55.22,82.35,55.22z"/>
	<path class="st13" d="M87.35,38.39c-0.3-1.28-0.71-1.81-0.71-1.81l-0.62-1.11c0,0-0.46-0.27-1.33-0.26
		c-0.87,0.01-0.38-0.34-1.35,0.64c-0.97,0.98-1.03,1.15-1.82,1.63c-0.78,0.48-1.38,0.45-0.92,1.35c0.46,0.9,0.55,0.59,0.33,1.23
		c-0.22,0.65-0.32,1.02-0.39,1.39c-0.07,0.38-0.29,0.95-0.32,1.33c-0.01,0.14,0.26,0.27,0.61,0.38c0.6-0.16,1.12-0.29,1.12-0.29
		s1.33-1.63,2.01-1.95c0.51-0.24,1.14,0.1,1.71,0.31c0.5-0.19,1.04-0.43,1.04-0.43S87.66,39.68,87.35,38.39"/>
	<path class="st13" d="M75.37,40.81c0,0,0.02,0.96-0.51,0.77c-0.53-0.19-0.77-0.98-1.01-0.19c-0.24,0.79-0.08,1.04-0.67,0.81
		c-0.59-0.22-0.7-1.05-0.93-0.18c-0.23,0.87,0.2,0.2-0.23,0.87c-0.43,0.67-1.04,0.43-0.48,1.23c0.56,0.8,0.85,1.01,1.35,1.22
		c0.5,0.22-0.51,0.17,0.53,0.82c1.04,0.65,1.07,0.6,1.95,1.04c0.88,0.44,1.98,0.66,1.98,0.66s1.46-0.74,1.86-1.08
		c0.4-0.34,0.76-0.51,0.76-0.51l0.28-0.01l0.69-0.95c0.09-0.12,0.1-0.41,0.08-0.71c-0.03-0.48-0.14-1.01-0.14-1.01l-0.95-1.12
		c-0.03,0.12-0.06,0.22-0.1,0.27c-0.7,0.26-1.59,0.53-2,0.47c-0.73-0.12-1.3-1.49-1.3-1.49s0.06-0.1,0.13-0.25l-0.59-0.29
		L75.37,40.81z"/>
	<path class="st13" d="M79.92,45.03l0.64,0.83l0.4-0.54c0.09-0.12,0.1-0.41,0.08-0.71c0.38,0.03,0.73,0.09,0.97,0.2
		c0.8,0.37,0.76,0.87,1.37,1.59c0.61,0.72,0.9,0.63,1.46,1.12c0.28,0.25,0.48,0.6,0.62,0.88l0.58-0.26c0,0,0.21,0.13,0.66-0.02
		c0.45-0.15,0.8-0.8,0.8-0.8s0.29-0.36,0.57-0.7c0.28-0.34,0.13-0.06,0.42-0.13c0.28-0.06,0.32-0.57,0.97-0.99
		c0.65-0.42,0.39-0.46,0.41-0.57c0.02-0.11-0.53-0.66-0.53-0.66s-0.29-0.52-0.5-0.83c-0.21-0.31-0.59-0.83-0.59-0.83l-1.33-0.23
		c0,0-0.84-0.28-1.94-0.23c-1.09,0.06-2.79,1.08-2.79,1.08s-1.74,0.77-1.86,0.75l-1.16,0.09C79.46,44.52,79.92,45.03,79.92,45.03"/>
	<path class="st13" d="M79.36,49.93l0.2,1.27l1.06,0.87c0,0,0.49,0.42,0.77,0.54c0.28,0.11,0.41-0.13,0.7-0.37
		c0.29-0.24,0.55-0.22,1.2-1.24c0.65-1.01,0.2-0.56,0.25-1.27c0.05-0.71,0.21-0.44,0.42-1.21c0.21-0.77-0.69-1.54-0.69-1.54
		l-0.94-1.47c0,0-0.1-0.32-0.2-0.63c-0.04-0.02-0.08-0.04-0.12-0.06c-0.24-0.11-0.59-0.17-0.97-0.2c0.02,0.3,0.01,0.59-0.08,0.71
		l-0.4,0.54l-0.47,0.64l-1.23,1.53c0,0-0.06,0.16-0.16,0.39c0,0.2,0,0.39,0,0.54C78.71,49.51,79.36,49.93,79.36,49.93"/>
	<path class="st14" d="M79.85,42.75c0.03-0.05,0.07-0.15,0.1-0.27c0.08-0.33,0.16-0.85,0.23-1.24c0.11-0.58-0.61-1.47-0.57-2.63
		c0.05-1.16,0.87-1.55,0.87-1.55l1.79-1.5c0,0,0.01-0.03,0.03-0.08c0.06-0.17,0.2-0.58,0.36-1.07c-0.41-0.16-0.87-0.05-0.87-0.05
		s0.23,0.07-0.53,0.11c-0.76,0.03-0.56-1.46-1.48-2.39c-0.93-0.93-2.47,0.51-2.47,0.51s-1.88-0.52-2.61-0.51
		c-0.72,0.01-1.33,0.19-1.29,0.77c0.04,0.58,0.01,0.24,0.71,0.95c0.7,0.71,0.37,2.11,0.37,2.11s-0.12,1.09,0.34,2.26
		c0.46,1.17,0.49,0.55,1.59,1.24c0.18,0.12,0.31,0.26,0.39,0.42c0.4,0.78-0.27,1.91-0.27,1.91s0.17,0.4,0.44,0.79
		c0.23,0.33,0.53,0.65,0.86,0.7C78.25,43.28,79.15,43,79.85,42.75"/>
	<path class="st17" d="M79.85,42.75c0.03-0.05,0.07-0.15,0.1-0.27c0.08-0.33,0.16-0.85,0.23-1.24c0.11-0.58-0.61-1.47-0.57-2.63
		c0.05-1.16,0.87-1.55,0.87-1.55l1.79-1.5c0,0,0.01-0.03,0.03-0.08c0.06-0.17,0.2-0.58,0.36-1.07c-0.41-0.16-0.87-0.05-0.87-0.05
		s0.23,0.07-0.53,0.11c-0.76,0.03-0.56-1.46-1.48-2.39c-0.93-0.93-2.47,0.51-2.47,0.51s-1.88-0.52-2.61-0.51
		c-0.72,0.01-1.33,0.19-1.29,0.77c0.04,0.58,0.01,0.24,0.71,0.95c0.7,0.71,0.37,2.11,0.37,2.11s-0.12,1.09,0.34,2.26
		c0.46,1.17,0.49,0.55,1.59,1.24c0.18,0.12,0.31,0.26,0.39,0.42c0.4,0.78-0.27,1.91-0.27,1.91s0.17,0.4,0.44,0.79
		c0.23,0.33,0.53,0.65,0.86,0.7C78.25,43.28,79.15,43,79.85,42.75z"/>
	<path class="st13" d="M79.85,42.75c0.03-0.05,0.07-0.15,0.1-0.27c0.08-0.33,0.16-0.85,0.23-1.24c0.11-0.58-0.61-1.47-0.57-2.63
		c0.05-1.16,0.87-1.55,0.87-1.55l1.79-1.5c0,0,0.01-0.03,0.03-0.08c-0.14-0.16-0.33-0.32-0.57-0.38c-0.46-0.12-0.65-0.82-1.01-0.2
		c-0.36,0.62-0.12,0.97-0.55,0.67c-0.43-0.29-0.37-0.73-1.02-0.47c-0.65,0.26-0.38,0.42-0.93,0.15c-0.55-0.26-0.29-0.81-0.91-0.11
		c-0.62,0.7-0.13,0.23-0.62,0.7c-0.48,0.48-0.51,0.29-0.74,0.73c-0.23,0.43-0.26,0.7-0.26,0.7s1.08,1.17,1.31,1.58
		c0.23,0.4,0.3,1.44,0.3,1.44s-0.05,0.86-0.11,1.18c-0.03,0.14-0.12,0.59-0.21,1.05c0.23,0.33,0.53,0.65,0.86,0.7
		C78.25,43.28,79.15,43,79.85,42.75"/>
	<path class="st15" d="M82.39,38.96c-0.13-0.28-0.57,2.05-1.03,2.43c-0.46,0.38-1.58,1.21-1.7,1.59c-0.12,0.38,0.2,0.96,0.2,0.96
		s0.09,0.51,0.75,0.85c0.66,0.34,1.24,0.56,1.64,0.81c0.4,0.25,1.3,0.81,1.3,0.81s-1.74-1.5-2.06-1.64
		c-0.31-0.15-0.84-0.55-0.84-0.55l2.09,0.49l1.68,0.48l1.63,1.17c0,0-3.34-1.98-3.56-2.04c-0.22-0.07-1.1-0.28-1.33-0.32
		c-0.23-0.04,2.7-0.24,2.7-0.24l1.98-0.51l1.08-0.41c0,0-5.14,0.67-5.2,0.67c-0.07,0.01-1.22-0.02-1.22-0.02s2.67-0.53,2.9-0.72
		c0.23-0.19,2.06-0.99,2.06-0.99l-3.94,1.2l-1.01,0.15l0.76-0.62l1.43-1.07l1.56-1.19c0,0-2.59,1.33-2.64,1.39
		c-0.05,0.05-0.44,0.28-0.35,0.25c0.09-0.02,0.91-0.85,1.05-1.23C82.47,40.28,82.51,39.21,82.39,38.96"/>
	<path class="st16" d="M87.65,41.34c-0.23-0.21-0.57-0.31-0.57-0.31s-0.2,0.16-0.5,0.1c-0.3-0.06-0.54-0.13-0.59-0.11
		s-0.09,0.38-0.45,0.31c-0.36-0.07-0.47,0.08-0.59,0.09c-0.12,0.01-0.2-0.18-0.32,0.22c-0.12,0.4-0.62,0.31-0.12,0.61
		c0.5,0.3,0.42,0.57,0.79,0.41c0.37-0.15,0.49,0.07,0.85-0.23c0.36-0.3,0.39-0.15,0.62-0.28c0.22-0.13,0.29-0.31,0.29-0.31l0.5-0.1
		C87.57,41.73,87.84,41.52,87.65,41.34"/>
	<path class="st8" d="M54.28,49.29c-0.67,0.51-1.24,0.95-1.24,0.95s-0.81,2.73-1.49,3.48c-0.51,0.56-1.47,0.46-2.28,0.51
		c-0.27,0.01-0.52,0.04-0.74,0.12c-0.87,0.3-1.05,0.01-1.44,1.31c-0.17,0.58-0.44,0.97-0.78,1.22c0.02,0.24,0.01,0.58-0.03,1.15
		c-0.13,1.73,0.41,3.57,0.41,3.57l2.75,2.32c0,0,1.02,0.81,1.8,2.23c0.78,1.42,1.48,1.85,1.48,1.85s0.64,0.52,0.83,0.07
		c0.19-0.45,0.26-1.88,1.35-2.92c1.09-1.04,2.01-0.09,1.85-1.68c-0.07-0.7-0.14-1.55-0.2-2.28c-0.07-0.91-0.12-1.64-0.12-1.64
		l1.45-2.81c0,0,0.83-0.91,0.28-2.38c-0.55-1.47-1.92-2.2-2.08-2.98c-0.15-0.72-0.43-1.74-0.37-2.06c0-0.02,0.01-0.04,0.02-0.06
		c0.11-0.23,0.41-0.98,0.41-0.98S56,48.19,55.8,48.1C55.4,48.42,54.81,48.88,54.28,49.29"/>
	<path class="st18" d="M54.28,49.29c-0.67,0.51-1.24,0.95-1.24,0.95s-0.81,2.73-1.49,3.48c-0.51,0.56-1.47,0.46-2.28,0.51
		c-0.27,0.01-0.52,0.04-0.74,0.12c-0.87,0.3-1.05,0.01-1.44,1.31c-0.17,0.58-0.44,0.97-0.78,1.22c0.02,0.24,0.01,0.58-0.03,1.15
		c-0.13,1.73,0.41,3.57,0.41,3.57l2.75,2.32c0,0,1.02,0.81,1.8,2.23c0.78,1.42,1.48,1.85,1.48,1.85s0.64,0.52,0.83,0.07
		c0.19-0.45,0.26-1.88,1.35-2.92c1.09-1.04,2.01-0.09,1.85-1.68c-0.07-0.7-0.14-1.55-0.2-2.28c-0.07-0.91-0.12-1.64-0.12-1.64
		l1.45-2.81c0,0,0.83-0.91,0.28-2.38c-0.55-1.47-1.92-2.2-2.08-2.98c-0.15-0.72-0.43-1.74-0.37-2.06c0-0.02,0.01-0.04,0.02-0.06
		c0.11-0.23,0.41-0.98,0.41-0.98S56,48.19,55.8,48.1C55.4,48.42,54.81,48.88,54.28,49.29z"/>
	<path class="st10" d="M61.22,37.5c-0.67,1.08-2.41,1.31-2.41,1.31s-2.64,0.22-3.71,0.52c-0.1,0.03-0.19,0.08-0.27,0.14
		c-0.77,0.62-0.63,2.73-0.63,2.73l-0.73,2.55l-0.09,0.38l-0.37,1.54c-0.05,0.2,0.08,0.56,0.27,0.93c0.29,0.58,0.71,1.18,0.71,1.18
		l1.76,0.9h0c-0.02-0.17-0.03-0.3-0.02-0.39c0.74-0.68,1.71-1.49,2.25-1.62c0.97-0.23,2.4,1.18,2.4,1.18s-0.02,0.15-0.03,0.38
		c-0.02,0.56,0.04,1.61,0.68,2.15l0.98-0.31c0,0,1.62-1.23,2.31-1.62c0.69-0.39,1.9-0.24,2.53-0.52c0.63-0.28,0.45-1.76,0.45-1.76
		l-0.06-3.24l0.48-2.58c0,0,1.11-1.78,0.25-2.74c-0.87-0.96-3.11-0.12-3.11-0.12S61.88,36.42,61.22,37.5"/>
	<path class="st18" d="M61.22,37.5c-0.67,1.08-2.41,1.31-2.41,1.31s-2.64,0.22-3.71,0.52c-0.1,0.03-0.19,0.08-0.27,0.14
		c-0.77,0.62-0.63,2.73-0.63,2.73l-0.73,2.55l-0.09,0.38l-0.37,1.54c-0.05,0.2,0.08,0.56,0.27,0.93c0.29,0.58,0.71,1.18,0.71,1.18
		l1.76,0.9h0c-0.02-0.17-0.03-0.3-0.02-0.39c0.74-0.68,1.71-1.49,2.25-1.62c0.97-0.23,2.4,1.18,2.4,1.18s-0.02,0.15-0.03,0.38
		c-0.02,0.56,0.04,1.61,0.68,2.15l0.98-0.31c0,0,1.62-1.23,2.31-1.62c0.69-0.39,1.9-0.24,2.53-0.52c0.63-0.28,0.45-1.76,0.45-1.76
		l-0.06-3.24l0.48-2.58c0,0,1.11-1.78,0.25-2.74c-0.87-0.96-3.11-0.12-3.11-0.12S61.88,36.42,61.22,37.5z"/>
	<path class="st11" d="M44.03,44.38c-0.64,0.62-0.64,1.03-0.96,1.46c-0.32,0.43-0.67,0.3-1.37,0.45c-0.7,0.15-1.92,1.33-1.92,1.33
		l-0.5,3.27l-1.2,1.67l-0.03,2.81L39.43,55c0,0,2.13,0.49,3,0.96c0.87,0.47,1.4,1.46,2.4,1.37c0.55-0.05,1.06-0.16,1.47-0.47
		c0.34-0.25,0.61-0.63,0.78-1.22c0.38-1.3,0.56-1.01,1.44-1.31c0.87-0.3,2.34,0.13,3.03-0.63c0.68-0.75,1.49-3.48,1.49-3.48
		s1.87-1.41,2.76-2.14c0.29-0.24,0.47-0.41,0.45-0.43c-0.1-0.11-0.24-0.23-0.39-0.35c-0.59-0.43-1.43-0.82-1.43-0.82l-1.22-0.7
		l-0.21,0.88c-0.05,0.2,0.08,0.56,0.27,0.93c-0.49,0.16-0.96,0.27-1.31,0.26c-1.19-0.04-1.4-0.68-2.54-1.26
		c-1.14-0.58-1.45-0.31-2.41-0.64c-0.48-0.17-0.91-0.49-1.23-0.78c-0.31-0.29-0.51-0.53-0.51-0.53l-0.34-0.99
		C44.6,43.88,44.28,44.14,44.03,44.38"/>
	<path class="st18" d="M44.03,44.38c-0.64,0.62-0.64,1.03-0.96,1.46c-0.32,0.43-0.67,0.3-1.37,0.45c-0.7,0.15-1.92,1.33-1.92,1.33
		l-0.5,3.27l-1.2,1.67l-0.03,2.81L39.43,55c0,0,2.13,0.49,3,0.96c0.87,0.47,1.4,1.46,2.4,1.37c0.55-0.05,1.06-0.16,1.47-0.47
		c0.34-0.25,0.61-0.63,0.78-1.22c0.38-1.3,0.56-1.01,1.44-1.31c0.87-0.3,2.34,0.13,3.03-0.63c0.68-0.75,1.49-3.48,1.49-3.48
		s1.87-1.41,2.76-2.14c0.29-0.24,0.47-0.41,0.45-0.43c-0.1-0.11-0.24-0.23-0.39-0.35c-0.59-0.43-1.43-0.82-1.43-0.82l-1.22-0.7
		l-0.21,0.88c-0.05,0.2,0.08,0.56,0.27,0.93c-0.49,0.16-0.96,0.27-1.31,0.26c-1.19-0.04-1.4-0.68-2.54-1.26
		c-1.14-0.58-1.45-0.31-2.41-0.64c-0.48-0.17-0.91-0.49-1.23-0.78c-0.31-0.29-0.51-0.53-0.51-0.53l-0.34-0.99
		C44.6,43.88,44.28,44.14,44.03,44.38z"/>
	<path class="st12" d="M46.08,35.06c0,0-3.18,0.94-3.71,1.29c-0.54,0.35,1.07,1.04,1.07,1.04s0.26,0.68,0.01,1.83
		c-0.25,1.15-1.05,0.42-0.88,2.54c0.17,2.12,2.08,1.11,2.08,1.11l0.27,0.79l0.34,0.99c0,0,0.77,0.98,1.73,1.31
		c0.96,0.33,1.27,0.06,2.41,0.64c1.08,0.55,1.33,1.16,2.36,1.25c0.06,0.01,0.12,0.01,0.18,0.01c0.35,0.01,0.82-0.1,1.31-0.26
		c-0.18-0.37-0.32-0.73-0.27-0.93l0.21-0.88l0.25-1.05l0.73-2.55c0,0-0.02-0.23-0.01-0.57c0.02-0.67,0.13-1.74,0.64-2.16
		c-0.25-0.41-0.6-0.86-1.11-1.36c-1.32-1.27-1.88-1.6-1.88-1.6s-0.6-1.54-2.21-1.86C48.01,34.34,46.08,35.06,46.08,35.06"/>
	<path class="st18" d="M46.08,35.06c0,0-3.18,0.94-3.71,1.29c-0.54,0.35,1.07,1.04,1.07,1.04s0.26,0.68,0.01,1.83
		c-0.25,1.15-1.05,0.42-0.88,2.54c0.17,2.12,2.08,1.11,2.08,1.11l0.27,0.79l0.34,0.99c0,0,0.77,0.98,1.73,1.31
		c0.96,0.33,1.27,0.06,2.41,0.64c1.08,0.55,1.33,1.16,2.36,1.25c0.06,0.01,0.12,0.01,0.18,0.01c0.35,0.01,0.82-0.1,1.31-0.26
		c-0.18-0.37-0.32-0.73-0.27-0.93l0.21-0.88l0.25-1.05l0.73-2.55c0,0-0.02-0.23-0.01-0.57c0.02-0.67,0.13-1.74,0.64-2.16
		c-0.25-0.41-0.6-0.86-1.11-1.36c-1.32-1.27-1.88-1.6-1.88-1.6s-0.6-1.54-2.21-1.86C48.01,34.34,46.08,35.06,46.08,35.06z"/>
	<path class="st13" d="M48.62,58.64c1.05,1.44,1.83,1.89,1.83,1.89l1.36,1.06c0,0,0.71,0.1,1.79-0.37c1.08-0.47,0.66,0.23,1.36-1.5
		c0.7-1.73,0.69-1.97,1.42-2.97c0.73-1,1.48-1.28,0.45-2.16c-1.04-0.88-0.99-0.45-1.05-1.37c-0.07-0.92-0.13-1.44-0.24-1.94
		c-0.1-0.51-0.13-1.34-0.28-1.82c-0.06-0.18-0.47-0.2-0.96-0.15c-0.66,0.51-1.24,0.95-1.24,0.95s-0.81,2.73-1.49,3.48
		c-0.51,0.56-1.47,0.46-2.28,0.51c-0.52,0.49-1.07,1.08-1.07,1.08S47.57,57.2,48.62,58.64"/>
	<path class="st13" d="M62.29,49.39c0,0-0.52-1.19,0.24-1.23c0.76-0.04,1.47,0.82,1.36-0.29c-0.11-1.11-0.44-1.33,0.41-1.36
		c0.85-0.03,1.41,0.94,1.25-0.26c-0.17-1.2-0.35-0.15-0.17-1.2c0.19-1.05,1.08-1.08-0.04-1.78c-1.12-0.7-1.59-0.81-2.32-0.82
		c-0.73-0.01,0.54-0.48-1.09-0.75c-1.64-0.27-1.64-0.19-2.97-0.28c-1.33-0.09-2.81,0.21-2.81,0.21s-1.44,1.68-1.76,2.31
		c-0.32,0.63-0.68,1.03-0.68,1.03l-0.34,0.15l-0.37,1.54c-0.05,0.2,0.08,0.56,0.27,0.93c0.29,0.59,0.71,1.18,0.71,1.18l1.76,0.9l0,0
		c-0.02-0.17-0.04-0.3-0.02-0.39c0.74-0.68,1.71-1.49,2.26-1.62c0.97-0.24,2.4,1.18,2.4,1.18s-0.02,0.15-0.03,0.38l0.89,0.06
		L62.29,49.39z"/>
	<path class="st13" d="M54.42,46.5l-1.22-0.7l-0.21,0.88c-0.05,0.2,0.08,0.56,0.27,0.93c-0.49,0.16-0.96,0.27-1.31,0.26
		c-1.19-0.04-1.4-0.68-2.54-1.26c-1.14-0.58-1.45-0.31-2.41-0.64c-0.48-0.17-0.91-0.49-1.23-0.78l-0.59,0.62
		c0,0-0.34-0.05-0.82,0.37c-0.48,0.42-0.59,1.42-0.59,1.42s-0.17,0.6-0.34,1.17c-0.17,0.56-0.13,0.15-0.45,0.38
		c-0.32,0.23-0.1,0.87-0.7,1.74c-0.59,0.86-0.25,0.77-0.21,0.93c0.03,0.16,1.01,0.54,1.01,0.54s0.63,0.5,1.06,0.78
		c0.42,0.28,1.17,0.73,1.17,0.73l1.79-0.4c0,0,1.2-0.09,2.53-0.73c1.33-0.64,2.92-2.8,2.92-2.8s1.77-1.87,1.92-1.9l1.4-0.72
		C55.26,46.89,54.42,46.5,54.42,46.5"/>
	<path class="st13" d="M52.57,40.1l-0.91-1.48l-1.78-0.53c0,0-0.83-0.28-1.23-0.27c-0.41,0-0.45,0.38-0.68,0.83
		c-0.23,0.45-0.57,0.57-0.85,2.17c-0.28,1.6,0.05,0.8,0.35,1.71c0.31,0.91-0.03,0.66,0.11,1.72c0.14,1.07,1.66,1.57,1.66,1.57
		l1.94,1.35c0,0,0.29,0.35,0.57,0.69c0.06,0,0.12,0.01,0.18,0.01c0.35,0.01,0.82-0.1,1.31-0.26c-0.18-0.37-0.32-0.73-0.27-0.93
		l0.21-0.88l0.25-1.05l0.73-2.55c0,0-0.02-0.23-0.01-0.57c-0.11-0.25-0.21-0.49-0.29-0.67C53.6,40.28,52.57,40.1,52.57,40.1"/>
	<path class="st14" d="M55.7,49.3c-0.02,0.09,0,0.22,0.02,0.39c0.07,0.46,0.24,1.14,0.35,1.67c0.16,0.78,1.53,1.51,2.08,2.98
		c0.55,1.47-0.28,2.38-0.28,2.38l-1.45,2.81c0,0,0,0.04,0.01,0.12c0.02,0.24,0.06,0.82,0.11,1.52c0.6-0.01,1.11-0.39,1.11-0.39
		s-0.32,0.03,0.61-0.41c0.93-0.44,1.45,1.53,3.1,2.2c1.64,0.68,2.81-1.92,2.81-1.92s2.62-0.34,3.51-0.73
		c0.89-0.39,1.56-0.93,1.21-1.63c-0.35-0.7-0.14-0.3-1.39-0.81c-1.24-0.51-1.56-2.43-1.56-2.43s-0.42-1.43-1.6-2.64
		c-1.19-1.22-0.9-0.42-2.63-0.72c-0.29-0.05-0.52-0.16-0.7-0.32c-0.91-0.76-0.65-2.53-0.65-2.53s-0.42-0.41-0.96-0.76
		c-0.46-0.29-1-0.53-1.44-0.42C57.41,47.81,56.44,48.62,55.7,49.3"/>
	<path class="st18" d="M55.7,49.3c-0.02,0.09,0,0.22,0.02,0.39c0.07,0.46,0.24,1.14,0.35,1.67c0.16,0.78,1.53,1.51,2.08,2.98
		c0.55,1.47-0.28,2.38-0.28,2.38l-1.45,2.81c0,0,0,0.04,0.01,0.12c0.02,0.24,0.06,0.82,0.11,1.52c0.6-0.01,1.11-0.39,1.11-0.39
		s-0.32,0.03,0.61-0.41c0.93-0.44,1.45,1.53,3.1,2.2c1.64,0.68,2.81-1.92,2.81-1.92s2.62-0.34,3.51-0.73
		c0.89-0.39,1.56-0.93,1.21-1.63c-0.35-0.7-0.14-0.3-1.39-0.81c-1.24-0.51-1.56-2.43-1.56-2.43s-0.42-1.43-1.6-2.64
		c-1.19-1.22-0.9-0.42-2.63-0.72c-0.29-0.05-0.52-0.16-0.7-0.32c-0.91-0.76-0.65-2.53-0.65-2.53s-0.42-0.41-0.96-0.76
		c-0.46-0.29-1-0.53-1.44-0.42C57.41,47.81,56.44,48.62,55.7,49.3z"/>
	<path class="st13" d="M55.7,49.3c-0.02,0.09,0,0.22,0.02,0.39c0.07,0.46,0.24,1.14,0.35,1.67c0.16,0.78,1.53,1.51,2.08,2.98
		c0.55,1.47-0.28,2.38-0.28,2.38l-1.45,2.81c0,0,0,0.04,0.01,0.12c0.26,0.12,0.58,0.23,0.91,0.18c0.63-0.09,1.24,0.68,1.36-0.28
		c0.13-0.96-0.35-1.27,0.33-1.13c0.68,0.14,0.84,0.72,1.52,0.05c0.68-0.67,0.26-0.72,1.08-0.68c0.82,0.04,0.79,0.86,1.19-0.34
		c0.4-1.2,0.05-0.35,0.4-1.2c0.35-0.85,0.48-0.63,0.55-1.29c0.07-0.66-0.05-1.01-0.05-1.01s-1.96-0.9-2.45-1.28
		c-0.49-0.39-1.12-1.64-1.12-1.64s-0.39-1.1-0.48-1.53c-0.04-0.19-0.16-0.8-0.28-1.42c-0.46-0.29-1-0.53-1.44-0.42
		C57.41,47.81,56.44,48.62,55.7,49.3"/>
	<path class="st15" d="M54.51,55.35c0.32,0.29-0.36-2.85,0.02-3.57c0.37-0.71,1.34-2.33,1.29-2.87c-0.05-0.54-0.75-1.09-0.75-1.09
		s-0.38-0.59-1.38-0.67c-1-0.08-1.84-0.05-2.47-0.16c-0.63-0.1-2.04-0.33-2.04-0.33s2.95,0.96,3.42,0.97
		c0.47,0.02,1.33,0.25,1.33,0.25l-2.86,0.47l-2.35,0.28l-2.65-0.61c0,0,5.19,0.72,5.5,0.69c0.31-0.04,1.52-0.23,1.82-0.29
		c0.31-0.06-3.24,1.71-3.24,1.71l-2.2,1.67l-1.14,1.07c0,0,6.06-3.51,6.13-3.55c0.08-0.05,1.53-0.61,1.53-0.61s-3.05,2.05-3.24,2.41
		c-0.19,0.36-2.05,2.31-2.05,2.31l4.28-3.55l1.19-0.71l-0.63,1.17l-1.22,2.08l-1.32,2.3c0,0,2.53-3.02,2.57-3.11
		c0.04-0.1,0.4-0.58,0.3-0.5c-0.1,0.08-0.7,1.53-0.67,2.08C53.72,53.75,54.22,55.09,54.51,55.35"/>
	<path class="st16" d="M46.71,55.12c0.4,0.15,0.87,0.09,0.87,0.09s0.17-0.31,0.58-0.39c0.41-0.08,0.74-0.11,0.79-0.16
		c0.05-0.05-0.08-0.52,0.4-0.62c0.48-0.1,0.55-0.34,0.69-0.41c0.14-0.07,0.34,0.12,0.28-0.44c-0.06-0.57,0.61-0.71-0.17-0.82
		c-0.78-0.11-0.82-0.49-1.2-0.1C48.56,52.65,48.29,52.43,48,53c-0.3,0.56-0.41,0.39-0.62,0.67c-0.21,0.28-0.2,0.54-0.2,0.54
		L46.6,54.6C46.6,54.6,46.38,55,46.71,55.12"/>
</g>
</svg>
