<?xml version="1.0" encoding="utf-8"?>
<svg version="1.1" id="Layer_1" x="0px" y="0px" viewBox="0 0 108 108" style="enable-background:new 0 0 108 108;" xmlns="http://www.w3.org/2000/svg">
  <style type="text/css">
	.st0{fill:none;stroke:#718537;stroke-width:0.4253;stroke-miterlimit:10;}
	.st1{fill:#7AB242;}
	.st2{fill:#4F9844;}
	.st3{fill:#6B9F41;}
	.st4{fill:#78B354;}
	.st5{fill:#68AD44;}
	.st6{fill:none;stroke:#718537;stroke-width:0.5312;stroke-miterlimit:10;}
	.st7{fill:#E2E98A;}
	.st8{fill:#C5CC7A;}
	.st9{fill:#72A642;}
	.st10{fill:none;stroke:#718537;stroke-width:0.4217;stroke-miterlimit:10;}
</style>
  <g>
    <path class="st0" d="M 70.03 57.73 C 69.03 57.9 67.28 58.55 66.04 59.01"/>
    <path class="st0" d="M 68.36 55.25 C 68.02 56.66 67.06 58.53 65.88 59.56"/>
    <path class="st0" d="M 65.68 55.17 C 66.62 56.58 67.65 57.71 66.28 58.97"/>
    <path class="st0" d="M 63.67 61.65 C 62.66 63.43 61.24 65.18 59.88 65.97"/>
    <path class="st0" d="M 65.32 64.76 C 63.21 64.88 60.09 65.9 59.44 66.07"/>
    <path class="st0" d="M 60.95 62.5 C 61.52 63.68 62.22 64.3 60.33 65.81"/>
    <ellipse transform="matrix(0.177099, -0.984193, 0.984193, 0.177099, 4.55915, 110.825588)" class="st1" cx="68.55" cy="52.69" rx="3.42" ry="1.34"/>
    <ellipse transform="matrix(0.978021, -0.208505, 0.208505, 0.978021, -10.31, 16.349013)" class="st2" cx="72.39" cy="57.06" rx="3.42" ry="1.34"/>
    <ellipse transform="matrix(0.999391, -0.0349, 0.0349, 0.999391, -2.215556, 2.406473)" class="st3" cx="67.72" cy="64.61" rx="3.42" ry="1.34"/>
    <ellipse transform="matrix(0.533195, -0.845992, 0.845992, 0.533195, -24.266244, 78.122746)" class="st4" cx="58.66" cy="61.05" rx="1.34" ry="3.42"/>
    <ellipse transform="matrix(0.559215, -0.829023, 0.829023, 0.559215, -21.198432, 79.930843)" class="st5" cx="64.57" cy="59.9" rx="3.42" ry="1.34"/>
    <ellipse transform="matrix(0.650717, -0.75932, 0.75932, 0.650717, -18.28836, 66.732954)" class="st1" cx="63.39" cy="53.24" rx="1.34" ry="3.42"/>
    <path class="st6" d="M 33.54 40.65 C 34.09 41.8 35.48 43.66 36.46 44.99"/>
    <path class="st6" d="M 31.15 43.52 C 32.96 43.45 35.54 43.95 37.18 45"/>
    <path class="st6" d="M 31.97 46.77 C 33.33 45.15 34.34 43.53 36.32 44.73"/>
    <path class="st6" d="M 40.45 46.93 C 42.93 47.52 45.53 48.63 46.95 49.98"/>
    <path class="st6" d="M 43.6 43.87 C 44.47 46.36 46.78 49.75 47.21 50.46"/>
    <path class="st6" d="M 42.41 49.89 C 43.63 48.8 44.13 47.75 46.6 49.48"/>
    <ellipse transform="matrix(0.994671, -0.103097, 0.103097, 0.994671, -4.404464, 3.123285)" class="st1" cx="28" cy="44.18" rx="4.27" ry="1.68"/>
    <ellipse transform="matrix(0.881704, -0.471802, 0.471802, 0.881704, -14.181929, 19.564908)" class="st2" cx="31.92" cy="38.06" rx="1.68" ry="4.27"/>
    <ellipse transform="matrix(0.950409, -0.311003, 0.311003, 0.950409, -10.653196, 15.28066)" class="st3" cx="42.59" cy="41.04" rx="1.68" ry="4.27"/>
    <ellipse transform="matrix(0.277388, -0.960758, 0.960758, 0.277388, -21.098959, 78.245803)" class="st4" cx="41.47" cy="53.15" rx="4.27" ry="1.68"/>
    <ellipse transform="matrix(0.307093, -0.951679, 0.951679, 0.307093, -17.857685, 68.383221)" class="st5" cx="38.03" cy="46.46" rx="1.68" ry="4.27"/>
    <ellipse transform="matrix(0.414315, -0.910133, 0.910133, 0.414315, -27.832137, 57.105154)" class="st1" cx="30.46" cy="50.18" rx="4.27" ry="1.68"/>
    <path class="st6" d="M 45.28 26.2 C 44.87 27.4 44.54 29.71 44.31 31.34"/>
    <path class="st6" d="M 41.56 26.57 C 42.9 27.79 44.38 29.96 44.81 31.86"/>
    <path class="st6" d="M 39.87 29.45 C 41.98 29.25 43.83 28.81 44.39 31.06"/>
    <path class="st6" d="M 45.79 35.52 C 47.14 37.69 48.21 40.3 48.27 42.26"/>
    <path class="st6" d="M 50.18 35.56 C 49.05 37.95 48.31 41.98 48.11 42.79"/>
    <path class="st6" d="M 45.1 39.01 C 46.74 39.1 47.83 38.69 48.37 41.66"/>
    <ellipse transform="matrix(0.625682, -0.780078, 0.780078, 0.625682, -4.813268, 39.608184)" class="st1" cx="38.87" cy="24.82" rx="1.68" ry="4.27"/>
    <ellipse transform="matrix(0.284007, -0.958822, 0.958822, 0.284007, 10.636283, 60.694566)" class="st2" cx="45.96" cy="23.22" rx="4.27" ry="1.68"/>
    <ellipse transform="matrix(0.446694, -0.894687, 0.894687, 0.446694, -0.917042, 64.202343)" class="st3" cx="51.45" cy="32.84" rx="4.27" ry="1.68"/>
    <ellipse transform="matrix(0.872549, -0.488527, 0.488527, 0.872549, -14.499858, 25.76967)" class="st4" cx="42.14" cy="40.67" rx="4.27" ry="1.68"/>
    <ellipse transform="matrix(0.887297, -0.461198, 0.461198, 0.887297, -10.442015, 24.251731)" class="st5" cx="44.4" cy="33.49" rx="1.68" ry="4.27"/>
    <ellipse transform="matrix(0.934375, -0.356291, 0.356291, 0.934375, -8.5883, 14.989222)" class="st1" cx="36.4" cy="30.81" rx="4.27" ry="1.68"/>
    <path class="st6" d="M 55.99 29.7 C 56.4 30.9 56.73 33.21 56.96 34.84"/>
    <path class="st6" d="M 59.71 30.06 C 58.37 31.28 56.89 33.45 56.46 35.35"/>
    <path class="st6" d="M 61.41 32.95 C 59.3 32.75 57.45 32.31 56.89 34.56"/>
    <path class="st6" d="M 55.49 39.02 C 54.14 41.19 53.07 43.8 53.01 45.76"/>
    <path class="st6" d="M 51.09 39.06 C 52.22 41.45 52.96 45.48 53.16 46.29"/>
    <path class="st6" d="M 56.18 42.5 C 54.54 42.59 53.45 42.18 52.91 45.15"/>
    <ellipse transform="matrix(0.780078, -0.625682, 0.625682, 0.780078, -3.987728, 45.27862)" class="st1" cx="62.41" cy="28.31" rx="4.27" ry="1.68"/>
    <ellipse transform="matrix(0.958822, -0.284007, 0.284007, 0.958822, -5.311204, 16.80997)" class="st2" cx="55.32" cy="26.72" rx="1.68" ry="4.27"/>
    <ellipse transform="matrix(0.894687, -0.446694, 0.446694, 0.894687, -10.982819, 26.085449)" class="st3" cx="49.83" cy="36.34" rx="1.68" ry="4.27"/>
    <ellipse transform="matrix(0.488527, -0.872549, 0.872549, 0.488527, -8.289459, 74.188671)" class="st4" cx="59.14" cy="44.16" rx="1.68" ry="4.27"/>
    <ellipse transform="matrix(0.461198, -0.887297, 0.887297, 0.461198, -2.172201, 70.394587)" class="st5" cx="56.87" cy="36.99" rx="4.27" ry="1.68"/>
    <ellipse transform="matrix(0.356291, -0.934375, 0.934375, 0.356291, 9.710872, 82.706511)" class="st1" cx="64.88" cy="34.31" rx="1.68" ry="4.27"/>
    <polygon class="st7" points="59.22 87.46 53.13 87.13 58.91 32.51 62.2 32.68"/>
    <polygon class="st8" points="59.22 87.46 57.12 87.35 61.06 32.62 62.2 32.68"/>
    <path class="st9" d="M 57.58 45.03 L 57.49 45.86 C 58.09 46.06 58.83 46.2 59.64 46.24 C 60.3 46.28 60.92 46.24 61.46 46.16 L 61.51 45.32 C 60.97 45.4 60.36 45.43 59.71 45.4 C 58.91 45.36 58.18 45.23 57.58 45.03 Z"/>
    <path class="st9" d="M 61.53 44.9 L 61.57 44.08 C 61.04 44.16 60.43 44.2 59.8 44.16 C 59.01 44.12 58.29 43.98 57.71 43.78 L 57.62 44.59 C 58.18 44.79 58.9 44.94 59.73 44.98 C 60.41 45.03 61.02 44.99 61.53 44.9 Z"/>
    <path class="st7" d="M 59.74 44.99 C 58.91 44.94 58.19 44.8 57.63 44.6 L 57.58 45.03 C 58.18 45.23 58.91 45.36 59.71 45.41 C 60.36 45.45 60.97 45.41 61.51 45.33 L 61.53 44.9 C 61.02 44.99 60.41 45.03 59.74 44.99 Z"/>
    <path class="st9" d="M 55.84 61.48 L 55.75 62.31 C 56.48 62.52 57.38 62.66 58.36 62.72 C 59.15 62.76 59.91 62.74 60.57 62.66 L 60.62 61.82 C 59.96 61.9 59.22 61.92 58.43 61.88 C 57.46 61.83 56.58 61.68 55.84 61.48 Z"/>
    <path class="st9" d="M 60.64 61.4 L 60.68 60.58 C 60.03 60.66 59.3 60.68 58.52 60.64 C 57.56 60.59 56.68 60.44 55.97 60.24 L 55.88 61.05 C 56.57 61.26 57.45 61.41 58.46 61.47 C 59.27 61.51 60.01 61.48 60.64 61.4 Z"/>
    <path class="st7" d="M 58.46 61.46 C 57.45 61.41 56.57 61.25 55.88 61.04 L 55.83 61.47 C 56.57 61.67 57.45 61.82 58.42 61.87 C 59.21 61.91 59.95 61.89 60.61 61.81 L 60.63 61.38 C 60.01 61.48 59.27 61.51 58.46 61.46 Z"/>
    <path class="st9" d="M 54.17 77.22 L 54.08 78.05 C 54.94 78.26 55.99 78.42 57.13 78.48 C 58.06 78.53 58.93 78.51 59.7 78.44 L 59.75 77.6 C 58.98 77.67 58.12 77.69 57.2 77.64 C 56.07 77.58 55.04 77.43 54.17 77.22 Z"/>
    <path class="st9" d="M 59.78 77.18 L 59.82 76.36 C 59.06 76.43 58.2 76.45 57.29 76.4 C 56.17 76.34 55.14 76.18 54.3 75.97 L 54.21 76.78 C 55.02 76.99 56.05 77.16 57.23 77.22 C 58.18 77.28 59.05 77.26 59.78 77.18 Z"/>
    <path class="st7" d="M 57.24 77.23 C 56.06 77.17 55.03 77 54.22 76.79 L 54.17 77.22 C 55.03 77.43 56.07 77.58 57.2 77.65 C 58.12 77.7 58.98 77.68 59.75 77.61 L 59.77 77.18 C 59.05 77.26 58.18 77.28 57.24 77.23 Z"/>
    <polygon class="st7" points="53.94 86.21 47.86 86.7 46.3 31.79 49.59 31.53"/>
    <polygon class="st8" points="53.94 86.21 51.84 86.38 48.45 31.62 49.59 31.53"/>
    <path class="st9" d="M 46.66 44.38 L 46.68 45.22 C 47.3 45.34 48.06 45.38 48.86 45.31 C 49.51 45.26 50.12 45.14 50.66 44.99 L 50.59 44.16 C 50.06 44.31 49.46 44.43 48.81 44.48 C 48.02 44.53 47.28 44.5 46.66 44.38 Z"/>
    <path class="st9" d="M 50.56 43.73 L 50.49 42.91 C 49.97 43.07 49.38 43.18 48.74 43.23 C 47.96 43.29 47.22 43.25 46.62 43.13 L 46.64 43.95 C 47.23 44.07 47.96 44.12 48.79 44.06 C 49.46 44 50.05 43.88 50.56 43.73 Z"/>
    <path class="st7" d="M 48.79 44.05 C 47.96 44.12 47.23 44.07 46.64 43.94 L 46.65 44.38 C 47.27 44.5 48.01 44.53 48.81 44.47 C 49.46 44.42 50.06 44.31 50.59 44.15 L 50.56 43.72 C 50.05 43.88 49.46 44 48.79 44.05 Z"/>
    <path class="st9" d="M 47.12 60.91 L 47.14 61.75 C 47.9 61.86 48.81 61.88 49.78 61.81 C 50.57 61.75 51.31 61.62 51.96 61.46 L 51.89 60.63 C 51.25 60.79 50.52 60.92 49.73 60.98 C 48.78 61.04 47.88 61.02 47.12 60.91 Z"/>
    <path class="st9" d="M 51.87 60.19 L 51.8 59.37 C 51.17 59.53 50.44 59.66 49.67 59.72 C 48.71 59.8 47.82 59.77 47.09 59.66 L 47.11 60.48 C 47.82 60.59 48.71 60.63 49.72 60.55 C 50.53 60.48 51.26 60.36 51.87 60.19 Z"/>
    <path class="st7" d="M 49.72 60.55 C 48.71 60.63 47.82 60.59 47.11 60.48 L 47.12 60.92 C 47.88 61.02 48.77 61.05 49.74 60.97 C 50.53 60.91 51.26 60.79 51.9 60.62 L 51.87 60.19 C 51.26 60.36 50.53 60.48 49.72 60.55 Z"/>
    <path class="st9" d="M 47.57 76.74 L 47.59 77.58 C 48.47 77.68 49.53 77.69 50.67 77.6 C 51.6 77.53 52.46 77.39 53.22 77.22 L 53.15 76.39 C 52.4 76.56 51.54 76.69 50.62 76.77 C 49.5 76.85 48.46 76.83 47.57 76.74 Z"/>
    <path class="st9" d="M 53.13 75.95 L 53.06 75.13 C 52.32 75.3 51.47 75.44 50.56 75.51 C 49.44 75.6 48.4 75.58 47.53 75.48 L 47.55 76.3 C 48.38 76.4 49.42 76.43 50.6 76.34 C 51.56 76.26 52.41 76.13 53.13 75.95 Z"/>
    <path class="st7" d="M 50.61 76.34 C 49.43 76.43 48.39 76.41 47.56 76.3 L 47.57 76.74 C 48.45 76.83 49.5 76.85 50.63 76.76 C 51.55 76.69 52.4 76.55 53.16 76.38 L 53.13 75.95 C 52.41 76.13 51.56 76.26 50.61 76.34 Z"/>
    <polygon class="st7" points="50.12 86.95 44.07 87.79 39.28 33.08 42.54 32.62"/>
    <polygon class="st8" points="50.12 86.95 48.03 87.24 41.42 32.78 42.54 32.62"/>
    <path class="st9" d="M 40.38 45.62 L 40.45 46.45 C 41.08 46.53 41.83 46.53 42.63 46.41 C 43.28 46.32 43.88 46.17 44.4 45.98 L 44.28 45.15 C 43.76 45.33 43.17 45.48 42.53 45.57 C 41.75 45.69 41.01 45.7 40.38 45.62 Z"/>
    <path class="st9" d="M 44.23 44.74 L 44.12 43.93 C 43.61 44.12 43.03 44.26 42.39 44.35 C 41.61 44.46 40.88 44.46 40.26 44.38 L 40.33 45.19 C 40.92 45.28 41.66 45.29 42.48 45.17 C 43.15 45.08 43.74 44.92 44.23 44.74 Z"/>
    <path class="st7" d="M 42.49 45.17 C 41.67 45.28 40.93 45.28 40.34 45.19 L 40.38 45.62 C 41.01 45.7 41.75 45.69 42.54 45.58 C 43.18 45.49 43.78 45.34 44.29 45.16 L 44.23 44.74 C 43.74 44.92 43.15 45.08 42.49 45.17 Z"/>
    <path class="st9" d="M 41.82 62.1 L 41.89 62.93 C 42.65 62.99 43.56 62.96 44.53 62.83 C 45.32 62.72 46.05 62.55 46.68 62.35 L 46.56 61.52 C 45.93 61.72 45.21 61.89 44.42 61.99 C 43.48 62.13 42.58 62.16 41.82 62.1 Z"/>
    <path class="st9" d="M 46.52 61.1 L 46.41 60.29 C 45.79 60.49 45.07 60.66 44.3 60.76 C 43.35 60.89 42.46 60.92 41.72 60.85 L 41.79 61.66 C 42.51 61.73 43.4 61.72 44.4 61.58 C 45.2 61.47 45.91 61.3 46.52 61.1 Z"/>
    <path class="st7" d="M 44.39 61.58 C 43.39 61.72 42.5 61.73 41.78 61.66 L 41.82 62.09 C 42.58 62.15 43.48 62.12 44.44 61.99 C 45.22 61.88 45.94 61.72 46.58 61.52 L 46.52 61.1 C 45.91 61.3 45.2 61.47 44.39 61.58 Z"/>
    <path class="st9" d="M 43.2 77.87 L 43.27 78.7 C 44.15 78.75 45.22 78.7 46.35 78.54 C 47.27 78.41 48.13 78.23 48.87 78.01 L 48.75 77.18 C 48.01 77.4 47.16 77.58 46.25 77.71 C 45.14 77.86 44.09 77.91 43.2 77.87 Z"/>
    <path class="st9" d="M 48.7 76.76 L 48.59 75.95 C 47.86 76.17 47.02 76.35 46.12 76.47 C 45.01 76.63 43.97 76.67 43.1 76.62 L 43.17 77.43 C 44.01 77.48 45.04 77.45 46.22 77.29 C 47.15 77.16 47.99 76.97 48.7 76.76 Z"/>
    <path class="st7" d="M 46.21 77.29 C 45.04 77.45 44 77.49 43.16 77.43 L 43.2 77.86 C 44.09 77.9 45.13 77.85 46.26 77.7 C 47.17 77.57 48.02 77.39 48.76 77.17 L 48.7 76.75 C 47.99 76.97 47.15 77.16 46.21 77.29 Z"/>
    <polygon class="st7" points="64.38 88.08 58.28 87.71 64.44 33.12 67.73 33.33"/>
    <polygon class="st8" points="64.38 88.08 62.27 87.95 66.59 33.26 67.73 33.33"/>
    <path class="st9" d="M 63.03 45.64 L 62.94 46.47 C 63.54 46.67 64.28 46.82 65.09 46.87 C 65.75 46.91 66.37 46.88 66.91 46.8 L 66.96 45.96 C 66.42 46.04 65.8 46.06 65.16 46.03 C 64.35 45.98 63.63 45.84 63.03 45.64 Z"/>
    <path class="st9" d="M 66.98 45.54 L 67.03 44.72 C 66.5 44.8 65.89 44.83 65.26 44.79 C 64.47 44.74 63.76 44.6 63.17 44.4 L 63.08 45.21 C 63.64 45.41 64.36 45.57 65.19 45.62 C 65.85 45.65 66.46 45.62 66.98 45.54 Z"/>
    <path class="st7" d="M 65.19 45.61 C 64.36 45.56 63.64 45.41 63.08 45.2 L 63.03 45.63 C 63.63 45.83 64.36 45.97 65.15 46.02 C 65.8 46.06 66.41 46.03 66.95 45.95 L 66.98 45.52 C 66.46 45.62 65.85 45.65 65.19 45.61 Z"/>
    <path class="st9" d="M 61.17 62.07 L 61.08 62.9 C 61.81 63.11 62.71 63.27 63.69 63.33 C 64.48 63.38 65.23 63.36 65.9 63.29 L 65.95 62.45 C 65.29 62.52 64.55 62.54 63.76 62.49 C 62.79 62.43 61.91 62.28 61.17 62.07 Z"/>
    <path class="st9" d="M 65.97 62.03 L 66.02 61.21 C 65.37 61.28 64.64 61.3 63.86 61.26 C 62.9 61.2 62.03 61.05 61.31 60.84 L 61.22 61.65 C 61.91 61.86 62.78 62.02 63.79 62.09 C 64.61 62.13 65.34 62.1 65.97 62.03 Z"/>
    <path class="st7" d="M 63.8 62.08 C 62.79 62.02 61.92 61.86 61.23 61.64 L 61.18 62.07 C 61.92 62.28 62.8 62.43 63.77 62.49 C 64.56 62.54 65.3 62.52 65.96 62.45 L 65.99 62.02 C 65.34 62.1 64.61 62.13 63.8 62.08 Z"/>
    <path class="st9" d="M 59.4 77.81 L 59.31 78.64 C 60.17 78.86 61.22 79.02 62.36 79.09 C 63.29 79.15 64.16 79.14 64.93 79.07 L 64.98 78.23 C 64.21 78.29 63.35 78.31 62.43 78.25 C 61.3 78.18 60.26 78.02 59.4 77.81 Z"/>
    <path class="st9" d="M 65.01 77.81 L 65.06 76.99 C 64.3 77.06 63.44 77.07 62.53 77.01 C 61.41 76.94 60.38 76.78 59.54 76.56 L 59.45 77.37 C 60.26 77.59 61.28 77.76 62.46 77.83 C 63.41 77.89 64.27 77.88 65.01 77.81 Z"/>
    <path class="st7" d="M 62.46 77.84 C 61.28 77.77 60.25 77.6 59.45 77.38 L 59.4 77.81 C 60.26 78.03 61.29 78.19 62.43 78.26 C 63.35 78.32 64.21 78.31 64.98 78.24 L 65.01 77.81 C 64.27 77.88 63.41 77.89 62.46 77.84 Z"/>
    <polygon class="st7" points="56.18 86.95 50.07 86.95 52.88 32.09 56.18 32.09"/>
    <polygon class="st8" points="56.18 86.95 54.07 86.95 55.04 32.09 56.18 32.09"/>
    <path class="st9" d="M 52.24 44.67 L 52.2 45.51 C 52.81 45.68 53.56 45.78 54.37 45.78 C 55.03 45.78 55.64 45.72 56.19 45.6 L 56.19 44.76 C 55.65 44.87 55.04 44.94 54.39 44.94 C 53.58 44.93 52.85 44.84 52.24 44.67 Z"/>
    <path class="st9" d="M 56.18 44.33 L 56.18 43.51 C 55.65 43.62 55.05 43.69 54.41 43.69 C 53.62 43.69 52.9 43.59 52.3 43.42 L 52.26 44.24 C 52.83 44.41 53.56 44.52 54.39 44.52 C 55.06 44.51 55.66 44.44 56.18 44.33 Z"/>
    <path class="st7" d="M 54.39 44.51 C 53.56 44.51 52.83 44.4 52.26 44.23 L 52.24 44.67 C 52.85 44.83 53.59 44.93 54.38 44.93 C 55.03 44.93 55.64 44.87 56.18 44.75 L 56.18 44.32 C 55.66 44.44 55.06 44.51 54.39 44.51 Z"/>
    <path class="st9" d="M 51.39 61.19 L 51.35 62.03 C 52.09 62.2 53 62.3 53.98 62.3 C 54.78 62.3 55.52 62.24 56.18 62.12 L 56.18 61.28 C 55.53 61.39 54.79 61.46 54 61.46 C 53.03 61.45 52.14 61.35 51.39 61.19 Z"/>
    <path class="st9" d="M 56.18 60.85 L 56.18 60.03 C 55.54 60.14 54.81 60.21 54.03 60.21 C 53.07 60.21 52.19 60.11 51.46 59.94 L 51.42 60.76 C 52.12 60.93 53 61.04 54.01 61.04 C 54.82 61.03 55.55 60.96 56.18 60.85 Z"/>
    <path class="st7" d="M 54.01 61.03 C 53 61.03 52.12 60.92 51.42 60.75 L 51.4 61.19 C 52.15 61.35 53.04 61.45 54.01 61.45 C 54.8 61.45 55.54 61.39 56.19 61.27 L 56.19 60.84 C 55.55 60.96 54.82 61.03 54.01 61.03 Z"/>
    <path class="st9" d="M 50.58 77 L 50.54 77.84 C 51.41 78.01 52.47 78.11 53.61 78.11 C 54.54 78.11 55.41 78.05 56.18 77.93 L 56.18 77.09 C 55.41 77.2 54.55 77.27 53.63 77.27 C 52.5 77.26 51.46 77.16 50.58 77 Z"/>
    <path class="st9" d="M 56.18 76.66 L 56.18 75.84 C 55.43 75.95 54.57 76.02 53.66 76.02 C 52.54 76.02 51.5 75.92 50.65 75.75 L 50.61 76.57 C 51.43 76.74 52.46 76.85 53.65 76.85 C 54.59 76.84 55.45 76.77 56.18 76.66 Z"/>
    <path class="st7" d="M 53.64 76.84 C 52.46 76.84 51.42 76.73 50.6 76.56 L 50.58 77 C 51.45 77.16 52.49 77.26 53.63 77.26 C 54.55 77.26 55.41 77.2 56.18 77.08 L 56.18 76.65 C 55.45 76.77 54.59 76.84 53.64 76.84 Z"/>
    <path class="st6" d="M 71.93 38.48 C 70.68 38.69 68.5 39.51 66.95 40.08"/>
    <path class="st6" d="M 69.84 35.39 C 69.41 37.14 68.21 39.49 66.74 40.77"/>
    <path class="st6" d="M 66.49 35.28 C 67.67 37.04 68.94 38.45 67.24 40.02"/>
    <path class="st6" d="M 63.99 43.38 C 62.73 45.6 60.95 47.79 59.25 48.78"/>
    <path class="st6" d="M 66.05 47.26 C 63.41 47.4 59.52 48.68 58.71 48.9"/>
    <path class="st6" d="M 60.59 44.44 C 61.3 45.92 62.17 46.69 59.82 48.57"/>
    <ellipse transform="matrix(0.177099, -0.984193, 0.984193, 0.177099, 25.99681, 95.460058)" class="st1" cx="70.08" cy="32.18" rx="4.27" ry="1.68"/>
    <ellipse transform="matrix(0.978021, -0.208505, 0.208505, 0.978021, -6.206965, 16.440738)" class="st2" cx="74.87" cy="37.65" rx="4.27" ry="1.68"/>
    <ellipse transform="matrix(0.999391, -0.0349, 0.0349, 0.999391, -1.60195, 2.441911)" class="st3" cx="69.05" cy="47.07" rx="4.27" ry="1.68"/>
    <ellipse transform="matrix(0.533195, -0.845992, 0.845992, 0.533195, -9.11719, 68.734961)" class="st4" cx="57.72" cy="42.63" rx="1.68" ry="4.27"/>
    <ellipse transform="matrix(0.559215, -0.829023, 0.829023, 0.559215, -5.451318, 72.132441)" class="st5" cx="65.11" cy="41.19" rx="4.27" ry="1.68"/>
    <ellipse transform="matrix(0.650717, -0.75932, 0.75932, 0.650717, -2.738956, 59.807513)" class="st1" cx="63.64" cy="32.88" rx="1.68" ry="4.27"/>
    <path class="st10" d="M 46.98 45.3 C 47.01 46.31 47.42 48.11 47.7 49.39"/>
    <path class="st10" d="M 44.32 46.62 C 45.65 47.15 47.37 48.34 48.22 49.64"/>
    <path class="st10" d="M 43.87 49.24 C 45.38 48.5 46.63 47.65 47.68 49.16"/>
    <path class="st10" d="M 49.97 52.08 C 51.58 53.31 53.11 54.95 53.7 56.39"/>
    <path class="st10" d="M 53.24 50.88 C 53.07 52.97 53.65 56.17 53.73 56.83"/>
    <path class="st10" d="M 50.43 54.87 C 51.67 54.47 52.37 53.87 53.6 55.92"/>
    <ellipse transform="matrix(0.30959, -0.95087, 0.95087, 0.30959, -14.936611, 71.579999)" class="st1" cx="41.82" cy="46.08" rx="1.33" ry="3.39"/>
    <ellipse transform="matrix(0.99731, -0.073301, 0.073301, 0.99731, -3.018491, 3.532211)" class="st2" cx="46.64" cy="42.9" rx="1.33" ry="3.39"/>
    <ellipse transform="matrix(0.101603, -0.994825, 0.994825, 0.101603, -0.264048, 96.719411)" class="st3" cx="53.42" cy="48.5" rx="3.39" ry="1.33"/>
    <ellipse transform="matrix(0.643523, -0.765427, 0.765427, 0.643523, -26.215837, 57.569923)" class="st4" cx="48.7" cy="56.93" rx="3.39" ry="1.33"/>
    <ellipse transform="matrix(0.667029, -0.745032, 0.745032, 0.667029, -21.867415, 53.006489)" class="st5" cx="48.37" cy="50.96" rx="1.33" ry="3.39"/>
    <ellipse transform="matrix(0.748143, -0.663538, 0.663538, 0.748143, -23.495209, 40.550494)" class="st1" cx="41.67" cy="51.22" rx="3.39" ry="1.33"/>
  </g>
</svg>