<?xml version="1.0" encoding="utf-8"?>
<!-- Generator: Adobe Illustrator 23.1.1, SVG Export Plug-In . SVG Version: 6.00 Build 0)  -->
<svg version="1.1" id="Layer_2" xmlns="http://www.w3.org/2000/svg" xmlns:xlink="http://www.w3.org/1999/xlink" x="0px" y="0px"
	 viewBox="0 0 108 108" style="enable-background:new 0 0 108 108;" xml:space="preserve">
<style type="text/css">
	.st0{fill:#D37E86;}
	.st1{fill:#BC7178;}
	.st2{fill:#D26764;}
	.st3{fill:#AD5452;}
	.st4{fill:#E2939C;}
</style>
<g>
	<path class="st0" d="M62.6,85.6c1.8,0.5,2.8,1.1,3.8,0c1-1.1,2.3-1.8,2.3-1.8s1.8-0.1,2.6-0.6c0.9-0.5,2.1-1.4,3-1.8s1.1-0.4,1.6,0
		s1.3,0.4,3.8,0.3c2.5-0.1,2.1,0.2,3.4-0.5c1.3-0.7,3-2.6,3.3-3.5c0.3-0.9,2.4-4.2,3.2-4.7c0.8-0.5,3.3-1,3.3-1l-2.4-0.8h-1.8
		c0,0,1-0.5,1.8-1.9c0.8-1.4,2-1.6,2.4-2.4c0.4-0.8,0.9-2.5,0.6-2s-2.4,1.1-2.8,1s-1.8-0.2-1-1.1c0.8-0.9,2.9-1,3.9-1.9
		c0.9-0.9,2.8-1.3,1.4-1.5c-1.4-0.3-2.9,1.3-3.5,0s0.3-1.1,2.3-2c2-0.9,3.5-0.8,4.1-1.8c0.7-1,2.5-2.1,0.7-2.1c-1.9,0-2.4,0.6-5,0
		c-2.6-0.6-4.2-0.8-4.2-0.8s1.9-1.4,4.4-1.4c2.5,0,2.6,0.4,3.2,0s2.5-1.6,2.5-1.6s1.2,0.1-0.9,0s-3.2,0.4-4.4,0
		c-1.3-0.4-2.1,0-2.1,0l2-2.9c0,0,2-1.8,2-2.9c0-1.1-1.1,0.3-2.4,0c-1.3-0.3-2-0.6-1.6-1.8c0.4-1.1-0.3-2-1.5-1.6
		c-1.3,0.4-3.3-0.2-4-0.1c-0.8,0.1-2.3,0.2-1.3-0.9s2.5-0.9,2.9-2.4c0.4-1.5,0.8-1.6-0.8-1.9c-1.5-0.3-2.6-0.5-1.8-1.4
		c0.9-0.9,0.5-2.4,0.6-3.3c0.1-0.9-0.1-2.4-0.9-2c-0.8,0.4-1.1,1-2.3,0.8c-1.1-0.3-2.9,0.4-3.2-1.5c-0.3-1.9-0.4-6.6-0.9-6.1
		c-0.5,0.5-1.6,2.1-2.3,3.2c-0.6,1,0,2.9-1.4,2.5c-1.4-0.4-2.1,0-2.6,0.5s0.6,3.4-1,2.6c-1.6-0.8-3,1.5-3.2-0.9s0.6-2.9-0.1-4.8
		c-0.8-1.9-2-2.7-2.4-3.2c-0.4-0.5-0.3,1.8-0.3,3.6s1.1,3.8-0.5,4.2c-1.6,0.4-2.3,1.5-3.7-0.1s-2.8-1.9-0.9-3.8
		c1.9-1.9,2.9-1.3,2-3.2c-0.9-1.9-2.9-3-2.9-2.5c-0.1,0.5,1.6,3.2,0,3.9s-2.4,0.6-2.7,1c-0.4,0.4-1.1-3.3-1.4-4.3
		c-0.3-1-1.5-2.8-0.7,0.1c0.7,2.9,0.4,6.7-1,5.9s-3.5-0.5-2.5-3.2c1-2.6,1.5-3.8,0.9-4.4c-0.6-0.6-0.6,3.1-2.3,3.9s-0.4,2.5-3.3,1.1
		c-2.9-1.4-3.5-1-3.8-3s-0.9-3.4-2.1-2.9c-1.3,0.5-0.5,3.2-0.8,3.9s1.1,2-1.9,1.3s-3.8-1-4.7-0.5c-0.9,0.5,1.1,3.3-1,4.4
		c-2.1,1.1-1.3,3.2-3.8,2.1c-2.5-1-2.8-1.3-3.3-0.8c-0.5,0.5,0.9,2.5,0,2.6s2.1,1.5-0.8,2.4c-2.9,0.9-5.6,0.1-5.8,1.1
		c-0.3,1,3.9,4.5,2.8,5.2c-1.1,0.6-3,0.6-3.8,1s-1.9,1.8-1.9,2.5c0,0.8,0.3,4.4,0.9,5.6c0.6,1.1,1,1.4,0,2.2c-1,0.7-4.7-1.1-4.4,0
		s2.1,2.9,1,3s-3.2-0.6-3.7,0.5c-0.5,1.1-1.3,3,1.1,3.4s3.9,0.9,4.3,2.1c0.4,1.3,1.1,4.4-0.9,5.4s-4.7-0.5-3.4,1.8
		c1.3,2.3,1.1,3,3.4,3.2s3.2,0.8,2.9,2.8c-0.3,2-1.6,2.8-0.3,3.5s2.8,1.3,5.4,0.1c2.6-1.1,2.3-1.9,4-1.9c1.8,0,4,0.6,3.7,1.4
		c-0.4,0.8,2.6,2.3,3.9,2.3c1.3,0,2.4,1.4,1.9,2.3c-0.5,0.9-2.3,2.3-1,2s2.3-0.6,3.4-2.5c1.1-1.9,2.1-2.4,3.3-2.3s1.3,1.1,2.9,1.3
		s1.9-0.8,3.2-1.3c1.3-0.5,2.3-0.3,2.9,0.1c0.6,0.4,0.9,0.5-0.6,1.6c-1.5,1.1,0.6,1.3,1.9,0.8c1.3-0.5,3,0.1,2.3,1.1
		c-0.8,0.9-1.5,2-2,2.5c-0.5,0.5,0,3.8,1.6,2.4c1.6-1.4,2-2.4,2.8-3.5c0.8-1.1,0.8-1.6,1.3-2c0.5-0.4,1,0.6,1,1.3s-0.6,2.4,0.8,1.8
		C60.7,85.4,62.6,85.6,62.6,85.6z"/>
	<path class="st1" d="M76.5,36c0.4-1,3.2-6.4,3.2-6.4s1.1-1.7,1.7-2.3c0.6-0.6,1.4-2.1,1.4-2.1s0,1,0,2.3c0,1.2-0.7,2.7-1.2,3.1
		c-0.6,0.4-0.8,1-2,2.7C78.5,35,78.3,35,77.9,36C77.5,37.1,76.5,36,76.5,36z"/>
	<path class="st1" d="M68.2,38.5c0.2-0.8-0.1-0.1,0-3.5s1.1-1.9,0.1-3.4s-0.4-2.3-1.6-3.4s-1.2-2.9-1.2-2.9c0,0-1.1,0.4-1.1,2.1
		c0,1.7,0.1,2.7,0.6,3.9s1.6,1,1.6,2.3C66.6,34.8,68.2,38.5,68.2,38.5z"/>
	<path class="st2" d="M73,46.2c0.8-0.6,1.7-1.2,3.5-1.9c1.9-0.6,3.1-0.8,4.1-1.2c1-0.4,1.9-0.4,2.3,0s2.7,2.5,0,2.3
		s-3.1,0.6-5.2,0.8s-2.1,0.2-2.1,0.2L73,46.2z"/>
	<path class="st1" d="M54.4,33.4c-0.2-1-2.7-3.3-3.7-3.9c-1-0.6-3.5-1.2-3.5-1.2s1,3.5,1.9,3.7c0.8,0.2,0.6,1.7,1.7,1.4
		s1.6-1.4,2.2,0C53.5,34.8,54.4,33.4,54.4,33.4z"/>
	<path class="st1" d="M39.9,31.9c-1.7-2.9-1.6-1.9-2.7-4.5s-2.3-2.6-4-2.7c-1.6-0.1-2.9,0.5-2.2,0.7c0.6,0.2,2.5,2,3.1,3
		c0.6,1,1.3,1.6,1.3,1.6L39.9,31.9z"/>
	<path class="st1" d="M38.7,42.8c-1.4-2.4-1.9-4.2-4.5-4.2s-3.3,0-3.3,0s-2.2-0.4-3.8-2S24.2,34,24.2,34s1,1.3,1.4,2.5s1,1.4,1.9,2
		c0.8,0.6,2.8,1.4,3.3,1.7c0.6,0.2,0.6,0.4,1.8,1C33.9,41.8,38.7,42.8,38.7,42.8z"/>
	<path class="st1" d="M57.5,48.8c0,0-0.6-5.4,0-5.2s2.5,1.9,3.7,2.6s0.8,0.4,2.5,1.1c1.7,0.7,2.6,2.7,3,3.5c0.3,0.8-1.5,1.7-2.1,2.4
		c-0.6,0.7-1.2,3-2.6,0S57.5,48.8,57.5,48.8z"/>
	<path class="st1" d="M59.1,58.5c0,0,1.9,1.9,2.8,1.7c0.9-0.2,4.8,1,4.7,1.9c-0.1,0.8,1-0.4-0.1,0.8c-1,1.2-3.5,2.1-3.5,2.1
		s-2.1,2.3,1.4,2.3c3.5,0,4.1-0.8,5.4,0s3.7,3.3,3.1,4.3c-0.6,1-1,2.3-1.7,1.7c-0.6-0.6-3.1-2.3-4.6-2.7s-1.6,0.2-2.2,1
		c-0.6,0.8-1,1.8-1.7,1.8c-0.6,0-1.4-0.4-2.7,0.9c-1.2,1.2-2,2.5-3,0c-1-2.5-1.8-4.3-2.8-3.3c-1,1-1.5,2.7-2.5,2.3s-2.2-1.9-1.1-3.7
		c1.1-1.9,1.9-1.9,3.6-2.4c1.7-0.5,2.8-1.5,2.8-2.5c0.1-1-0.1,0.2-1-1.7c-0.8-1.9-2.3-1.9-1.9-2.5C54.8,59.8,59.1,58.5,59.1,58.5z"
		/>
	<path class="st1" d="M33.3,67.1c-0.6-1.9-0.2-2.3-1.9-3.6s-2.1-2.1-3.1-2.7c-1-0.6-3.5-2.2-4.1-1.5c-0.6,0.7,0,1.5,0,2.5
		s0.6,2.1,1.9,2.5c1.2,0.4,0.2,2.2,1.9,2.7s1.7,1.5,3.5,0.8C33.3,67.1,33.3,67.1,33.3,67.1z"/>
	<path class="st1" d="M25.9,51.8h-7.2c0,0-2.9,2.4-3.9,0c-1-2.4,1.9-3.1,1.9-1s4.9,3.9,5.5,3.5C22.8,54,25.9,51.8,25.9,51.8z"/>
	<path class="st1" d="M20.2,65.4c-1.3,0.6-1.3,2.2-4.6,1.7c-3.3-0.5-3.3-0.5-3.3-0.5s-1,3.7,1.2,3.5c2.3-0.2,3.5,1.5,4.8,0
		C19.5,68.7,20.2,65.4,20.2,65.4z"/>
	<path class="st1" d="M25.9,72.8c-0.4,1.2-1.4,2-1.9,3.7c-0.5,1.7-1.7,1-1.8,2.4c0,1.4,1.5,3.4,1.8,1.2c0.2-2.3,2.2-2,2.3-3
		c0.1-1.1,1.1,0.9,0.1-1.1c-1-1.9-1-3.7-0.4-4.3"/>
	<path class="st1" d="M73.1,76.3c1.6,1.2,1.1,4.8,2.9,5.1c1.8,0.3,0.7,2.3,0.5,1.9c-0.2-0.4,0.4,0.5-2.2-1.9s-2.6-2.8-2.8-3.4
		C71.3,77.3,73.1,76.3,73.1,76.3z"/>
	<path class="st1" d="M80.6,75.7c1.4-0.8,2.9,0.6,4.3,0c1.4-0.6,4.3-0.3,4.3-0.3s1.2,1.9,0,1.7c-1.2-0.2-1.3,0-4.1,0
		S80.6,75.7,80.6,75.7z"/>
	<path class="st1" d="M76.5,58.5c1.7-1.6,5.2-3,6.4-4c1.2-1.1,1-0.5,2.3-1.1c1.4-0.6,1.8,2,1,2.6c-0.8,0.6-1.7,1.2-3.3,1.4
		s-0.2,0.7-2.3,1.2C78.5,59,76.5,58.5,76.5,58.5z"/>
	<path class="st1" d="M86.6,47.4c0.6-0.8,5.2-2.4,5.2-3.3c0.1-0.9,1.4-2.8,1-3.5c-0.4-0.6-2.6-2-3,0c-0.3,2-1.4,3.2-2,4
		C87.2,45.3,86.6,47.4,86.6,47.4z"/>
	<path class="st1" d="M71.5,34c-1.1-1.7-2.2-4.4-2.7-5.8c-0.6-1.4,3.3-4.1,2.7-2.1s0,5,0,5V34z"/>
	<path class="st1" d="M44.9,31.9c-1.7-2.5-0.6-5.3-2.1-7.3c-1.4-2-2.9-3.7-2.9-3.7c0,0-2.5,5.2-1.2,5.5s2.9,1.8,2.9,1.8L44.9,31.9z"
		/>
	<path class="st1" d="M44.9,28.3c-0.2-1.7,1.2-5,1-5.6c-0.2-0.6,1.9,0.7,1.3,2c-0.6,1.3-1.2-1-0.6,1.3S44.9,28.3,44.9,28.3z"/>
	<path class="st1" d="M46.1,76.2c0,0-2.4,5.2-3,6.3c-0.6,1-0.8,2.9-1.4,2.3c-0.7-0.6-0.2-4.6-0.2-4.6s0.9-4.2,2.3-3
		c1.4,1.2,3.5-1.5,3.5-1.5"/>
	<path class="st1" d="M33.3,76.3c0,0,2.2,3.1,0.5,4.3s-2,2.1-2.9,1.7s-4-1-2.2-2s4.7-5,4.7-5"/>
	<path class="st1" d="M61.7,82.4c-0.1,0.7,1,1,0.9,3.2c-0.1,2.1-1.5,4.4,0,3.4c1.5-1.1,0.1-0.8,1.9-2.1c1.8-1.3,2.7-3,1-3.5
		S61.7,82.4,61.7,82.4z"/>
	<path class="st1" d="M38.7,66.2c0,0-2.1,0.6-2.1,1.9s-1,2.2,0,2.6c1,0.4,2.9,1.2,3.3,0c0.4-1.2,3.9-0.8,1.3-2.7
		C38.7,66.2,38.7,66.2,38.7,66.2z"/>
	<path class="st1" d="M46.1,36.5c0,0-3.1-3.1-3.9-2.5c-0.8,0.6-3.7,1.8-2.2,1.2c1.4-0.6,4,1.7,4.3,2.1
		C44.5,37.7,46.1,36.5,46.1,36.5z"/>
	<path class="st2" d="M30,49.6c-1-1.2-1.4-1.2-3.3-2.2c-1.9-1-1.8,0.7-2.8-1c-1-1.7-0.1-1.2-1.8-2.7c-1.7-1.5-4.5,0.7-4.5-0.9
		c0-1.6-0.2-1.6-1.5-2.4c-1.4-0.8-1-2.3-1.4-0.8c-0.4,1.4-0.2,3.2,1.4,3.2c1.5,0,2.3,3.6,3.2,3.6c0.8,0,2.3,0.1,2.9,1
		c0.6,0.9,1.3,1.7,2.3,1.9c1,0.2-0.9-0.8,1,0.2S30,49.6,30,49.6z"/>
	<path class="st2" d="M33.3,43.7c-0.4-0.6,0.4-0.6-2.4-3.5c-2.8-2.9-6.3-4.8-5.2-3.7c1.9,2,2,1.3,2.4,3.4
		C28.6,42,33.3,43.7,33.3,43.7z"/>
	<path class="st2" d="M36.2,37.4c-2.8-2.8-3.8-2.3-4.7-4.4s-3.6-5.1-0.6-3.3s4.4,3.1,5.3,4.3c0.9,1.2,0.6,1,2.2,2.1
		c1.6,1.1,1.6,2.4,1.6,2.4L36.2,37.4z"/>
	<path class="st0" d="M57.2,34c0.5-2.9,0-4.9,0-4.9s-0.9-2.6-2.1-3.8C54,24.1,54,24.1,54,24.1l-0.2,4.3c0,0-0.2,1.7,0.6,2.7
		C55.2,32.1,57.2,34,57.2,34z"/>
	<path class="st0" d="M68,44.6c0.6-0.1,3.5-2.3,5-2.5s2.7-0.4,3.5-0.8c0.4-0.2,1.3,0,2.1,0c0.9,0,1.8-0.3,2-1.6
		c0.4-2.5,0.2-2.7,0.9-3.9c0.7-1.3,0.8-0.4,2.6-1.8c1.9-1.4,1.9-1.4,1.9-1.4l-1.9,4.9c0,0-1.2,1.9-2.6,2.5c-1.4,0.7-6,2.9-7.3,3.8
		c-1.3,0.8-7.5,0.9-7.5,0.9"/>
	<path class="st0" d="M74.8,63.6c1.1-0.1,3.2,1.7,3.8,2.6c0.6,0.8,4.3,1.9,4.3,1.9s0.2-0.2,0,0.7c-0.2,0.9,0.2,3-2.3,0.9
		c-2.5-2.1-4.2-3.5-4.2-3.5L74.8,63.6z"/>
	<path class="st2" d="M85.2,61.6c1-0.4,3,0.3,4.6,0s3.9,1.6,4.5,0.6s4.6-0.6,4.2-1.7c-0.4-1-4.8-1.3-4.8-1.3s-1.8-0.1-2.8,0
		c-1,0.1-0.8-0.9-2.5,0C86.8,60.2,85.2,61.6,85.2,61.6z"/>
	<path class="st2" d="M57.4,35.6c0,0,1.9-3,3-3.7c1.1-0.7,1.3-2.2,1.3-2.2l-0.3,1.5c0,0,1.1,4.3,0.3,4.5
		C60.8,35.8,57.4,35.6,57.4,35.6z"/>
	<path class="st2" d="M22.3,70.6c-0.7,0.6-2,2.4-3,3c-1,0.6-2.3,1.6-2.3,1.6s-4.7,3.8-2.5,3.6s2.7-2.4,4.5-2.6
		c1.9-0.2,3.6-0.9,3.1-1.6C21.7,74,22.3,70.6,22.3,70.6z"/>
	<path class="st2" d="M39.2,75.3c-0.1,1-1.1,3.7-0.8,5c0.3,1.3,1.8,3.3-0.1,4.6c-1.9,1.3-3.6,0-3.6,0s1-2.7,1.5-3.9
		c0.5-1.2,1.6-3.2,2.2-3.9C38.9,76.4,39.2,75.3,39.2,75.3z"/>
	<path class="st2" d="M30,54.8c0.6,0.4,3.8,3.4,4.7,3.6c0.9,0.3,2.5,1.5,1.9,2.2c-0.6,0.7-0.4,1.6-2.2,0c-1.8-1.6-4.6-1.6-4.4-2.5
		S30,54.8,30,54.8z"/>
	<path class="st2" d="M50.3,42.8c-1.1-2.2-1.8-4.5-3-5.4c-1.2-0.9-3.1-1.7-3.1-1.7v2.7l3.1,4.4H50.3z"/>
	<path class="st2" d="M30.9,52c0,0-0.3-0.1-0.8-0.2c-1.2-0.3-3.2-0.7-4.2,0c-1.4,1-3.7,0.3-3.7,1.4c0,1.1,1.3,1.4,2.3,1.2
		c1-0.2,1.1,0.9,2.3-0.1"/>
	<path class="st2" d="M65.3,42.8c0,0-0.2-1.4,1.4-2.8s1.7-0.9,3.5-2.5c1.7-1.7,1.3-0.5,2.8-1.7c1.5-1.2,4.5-4,4-1.8s-1.9,2-2.7,3.5
		c-0.9,1.6-2.2,1.9-3.1,2.5S65.3,42.8,65.3,42.8z"/>
	<path class="st2" d="M68.7,54.4c0.3,0.4,2,3.8,2,3.8s0.5,1.7,0.8,3.4c0.4,1.7,1.8,4.6,1.4,3.8s-3.7-4.2-4.2-5.4s0.5-1.8,0-2.7
		S68.7,54.4,68.7,54.4z"/>
	<path class="st2" d="M55.6,78.9c1.1,1.2,3.1,4.5,3,5.4c-0.1,1-1.8,4.4-1.1,4.6s3.5,0.9,2.3-1.9c-1.2-2.7-1.4-6.2-1.9-7.2
		c-0.5-1.1-2.2-2.7-2.2-2.7"/>
	<path class="st2" d="M76.4,70.7c0.1,0,5.2,3.1,5.2,3.1H86c0,0,1.4-0.6,0.6-1.6c-0.8-0.9-1.5-0.8-3.7-1.7s0.2-0.9-2.3-0.9
		c-2.5,0-5.8,0-5.8,0"/>
	<path class="st2" d="M79.7,63.6l5.5,1.7l4.6,2.7L86,67.1c0,0-4.2-0.3-4.5-0.9s-3-2.6-3-2.6"/>
	<path class="st2" d="M45.9,63.6c-2,0.9-2.1,1.9-3.1,2.6c-1,0.6,3.1,0.9,3.1,0.9s0.5-0.3,1.4-1.7c0.9-1.4,0-3.8,0-3.8"/>
	<path class="st1" d="M43.9,53.3c0-0.8-2.3-3.4-2.3-3.4s-2.2-1.7-3.3-1.5s-3,0-2.2,1.2c0.9,1.1,2.7,1.1,3.8,2.2c0,0,3.5-1.1,3.7-2.7
		c0.2-1.6,0.6-2.9,1.4,0c0.8,2.9,2.1,1.2,2.1,0.4s3.9-0.2,4.5,1.4c0.6,1.7-0.9,5.2-0.9,5.2s-2,2.4-3.6,3s-0.4-1,0-2.1
		s-5-3.5-6.2-4.1"/>
	<path class="st2" d="M54.4,53.1c1.1-0.8,5.5-1.9,5.4-1.1s0.3,4,0.3,4h-2.8L54.4,53.1z"/>
	<path class="st2" d="M66.7,78.9l1.8,6c0,0,2.3,1.7,1.6,2.4c-0.7,0.6,1.2-1,0.6-2.4c-0.6-1.4,1-0.9-0.6-2.5
		C68.6,80.9,66.7,78.9,66.7,78.9z"/>
	<path class="st2" d="M22.2,61.6c-0.6,0-2.8,1.4-5,0.9c-2.2-0.4-1.7-0.2-3.2,0.1s-3.2,0-3.2,0s1.7,0.8,3.2,1s0.6,1,2.5,0
		S22.2,61.6,22.2,61.6z"/>
	<path class="st3" d="M73,52c0.8-0.3,2.2-0.3,3.4-0.6c1.2-0.3,2.8-1.4,3.3-1.5c0.5-0.1,1.1-1.4,1.9,0c0.7,1.4,0.5,1.7,0,2.1
		s-3,0-3,0s-0.4,1.2-1.6,1.1C75.9,53,73,52,73,52z"/>
	<path class="st3" d="M79.7,37.8c1.4-1,3.2-2.2,3.2-2.2l2.3-1.1l-1.1,2.8L82,38.5L79.7,37.8z"/>
	<path class="st3" d="M61.7,68c0,0,1.9-0.2,2.4,1.7c0.5,1.9,2.8,1.7,2.4,2.9c-0.5,1.2-0.9,3.9-1.9,3.7c-1-0.2-0.6-1.1-2.5-1.6
		c-1.9-0.5,1.1-0.5-1.9-0.5s-2.2-1.6-3.5-2.5s0.5-3,0.5-3h1.5L61.7,68z"/>
	<path class="st3" d="M36.6,64.1c0,0-1,0.5-2.2,1.7c-1.1,1.2,1.1,1.8-3,2c-4.1,0.2-4.8-0.3-5.6,0.3c-0.8,0.5-2.4,1-1.4,1.6
		c1,0.6,2.3,1.9,3.6,1.9c1.3,0,1.7-0.4,3.4-0.8c1.7-0.4,1.3,0.6,3.2-1s0.9-0.1,1.9-1.6C37.7,66.6,36.6,64.1,36.6,64.1z"/>
	<polygon class="st3" points="37.1,54.8 33.3,53.1 30.9,53.3 36.6,56 	"/>
	<path class="st3" d="M44.2,43.5c-0.6-1-1.6-2.2-3-3.5c-1.3-1.4-0.9-3.1-2.6-1.5c-1.7,1.6-0.1,1.2-0.3,2.2s2.7,2.9,2.7,2.9H44.2z"/>
	<path class="st3" d="M54.4,35.6c0-2.3-0.6-2.7,0-4.5c0.6-1.9,0.4-0.4,1.2-2.9c0.8-2.5,1.6-4.1,1.6-4.1l0,5.1c0,0-1,1.3-1.9,2.8
		c-0.9,1.4-0.9,1.4-0.9,1.4"/>
	<path class="st3" d="M77.5,65.8c0,0,3.1,0.5,5.4,0s1.1,1.3,3.2,1.3c2.1-0.1,4.8,1.2,3.8,0.9c-1-0.2-4.3,1.5-5.6,0.7
		s0.3-0.2-2.7-1.4C78.6,66.2,77.5,65.8,77.5,65.8z"/>
	<path class="st3" d="M59.7,78.9c0,0,1.2,3.1,0,4.3S58,86,57.8,86.6c-0.2,0.6,2.4,1.5,1.9,0.5c-0.4-1,2-4.6,2-4.6L59.7,78.9z"/>
	<path class="st3" d="M44.9,73.8c0,0-2,0.8-1.2,3.3c0.8,2.6,3,5.5,2.4,6.2s-2.4,0.4-3-0.9c-0.6-1.2-1.9-5.2-1.8-6.2
		C41.4,75.3,44.9,73.8,44.9,73.8z"/>
	<path class="st3" d="M52.7,47.4c-0.4,0-5.2-1.6-5.1-1s0.1,0.6,0.1,0.6l3,2.6L52.7,47.4z"/>
	<path class="st3" d="M64.5,53.3l5.7,1.1L73,56c0,0,2.7,2.6,1.3,2.3s-4.1-1.1-4.1-1.1s-4.4-0.3-4.8-1.3
		C64.9,54.8,64.5,53.3,64.5,53.3z"/>
	<path class="st3" d="M73.1,40.7c1.6-0.8,3.2-1.7,4-1.6c0.7,0.1,2.7,3.8-0.7,3.3c-3.4-0.5-6.4,1-6.4,1L73.1,40.7z"/>
	<path class="st3" d="M22.2,47.4c-2.9-1-4.9-0.2-5.7-1.1s-1.9-1.7-1.9-1.7s1.4,3.4,1.4,3.3C15.9,47.8,22.2,47.4,22.2,47.4z"/>
	<path class="st3" d="M24.2,34c1.2,1,2.9,2.5,2.9,2.5l1,3.4c0,0-2.2,2-2.6,0.7c-0.4-1.3-1-1-1-3.1C24.4,35.5,24.2,34,24.2,34z"/>
	<path class="st3" d="M35.9,22.5c0.1,0.2,2.7,4,2.7,4s-1,1,0.5,2.6c1.5,1.6,1.8,2.5,2.4,2.1c0.6-0.4,0-2.8,0-2.8s1.4-1.3-1.7-2.9
		c-3.1-1.6-4.5-4.5-4.5-4.5"/>
	<path class="st3" d="M57.8,31.2c0.4-0.6,2.6-0.1,3.6-0.3c0.5-0.1,0.7-0.5,0.3-1.2c-1.1-2.3,2.4-4.4,2.4-4.4s2.6,1.6,1.5,1.8
		s-3.9,5.6-3.9,5.6L57.8,31.2z"/>
	<path class="st3" d="M76.5,75.3c0.8,1.4,2.4,7.1,2.4,7.1s-1.5,1.7,0,1c1.5-0.7,3.2,0.1,2.7-2.3c-0.5-2.5,1.8-1-0.5-2.5
		C78.7,77.1,76.5,75.3,76.5,75.3z"/>
	<path class="st3" d="M45.1,58.7c-1.7,0.1-3.2-0.5-3.9,0.6c-0.7,1.1-3.1,2.3-1.7,2.3c1.4,0,3.5,0.1,5.6,0s3.2,1.2,3.7,0
		c0.4-1.2,0.6-1.9,0-2.5C48.2,58.6,45.1,58.7,45.1,58.7z"/>
	<path class="st3" d="M57.8,47.9l-2.5,2c0,0-2.4,1.6,0,1.8c2.4,0.2,3.6,1,4.4,0.3c0.9-0.8,1.7-1.9,1.7-1.9L57.8,47.9z"/>
	<path class="st3" d="M86.9,49.3c1.2-0.8,4.6,1.2,5,0s1-1.4,1-1.4s1.9-0.5,1,0.8c-1,1.4-3.4,2.5-3.4,2.5L86.9,49.3z"/>
	<path class="st3" d="M90.9,59.3l1.9,4.3l3,2.6c0,0-6,0.1-6.2-1.4c-0.2-1.5,0.1-3.1,0.1-3.1L90.9,59.3z"/>
	<path class="st3" d="M20.2,64.4c0,0-2,2.6-2.6,2.7C17,67.2,14.8,69,14.8,69s-0.4,2,1.3,0.7s3.3-1.8,3.5-2.3
		C19.8,66.8,20.2,64.4,20.2,64.4z"/>
	<path class="st4" d="M65.9,46.4c0.9-0.2,2.6-0.1,4.9-0.1c2.2-0.1,7-0.1,7-0.1s0,0.6-1.4,1.7s-1.8,1.8-3.3,1.7
		c-1.5-0.1-1.6,0.1-2.9-0.3C68.8,48.8,65.9,46.4,65.9,46.4z"/>
	<path class="st4" d="M57.8,31.2c-0.6-2.1,0-5.9,0-5.9l0.9-1.2l1.8,3.3L57.8,31.2z"/>
	<path class="st4" d="M38.3,34c-0.9-1.1-2.5-4-5-4.1c-2.5-0.2-3.9-0.8-3.9-0.8s0.1,1.7,0.5,1.9c0.4,0.2,2.1,2,3.3,2.1
		C34.5,33.1,38.3,34,38.3,34z"/>
	<path class="st4" d="M61.4,38.5c0.4-0.6,1.8-1.4,2.7-2.4c0.9-0.9,0.4-0.5,2.4-1.6s2.1-2.5,2-1.1c-0.2,1.5,1.8,2.9,0.4,3
		c0,0,1.4-0.9,4.2-0.9s0.8-1.7,1.3-2.9c0.4-1.2,0.9-3.5,0-5.6s-0.7,2-1.3,3.7c-0.6,1.7-1.5,3.1-2.8,4.7s-1.9,2.9-3.5,3.3
		C65.2,39.4,61.4,38.5,61.4,38.5z"/>
	<path class="st4" d="M51.8,39.2c-0.8-1.2,0-1.1-1.1-3c-1.1-2-0.7-1-1.6-2.3s0.9-0.7-1.5-1.9s-3-1.8-2.4-1.2
		c0.5,0.6-0.3,2.2,0.9,3.3c1.2,1.1,1.5,1.7,1.5,1.7L51.8,39.2z"/>
	<path class="st4" d="M34.7,46.4c-0.2,0-0.4,0-0.7,0c-0.4-0.1-1.1-0.3-1.9-0.9c-1.5-1.1-1.5-0.9-2.7-1.8c-1.1-0.8-1.7-1.1-3.5-1.5
		c-1.8-0.4-2.4,0-2.4,0s1.7,0.9,2.4,1.5c0.7,0.6-0.5,0,0.9,0.9c1.3,0.9,2.7,1.2,3.3,1.8"/>
	<path class="st3" d="M21,60.4c0.2-0.4,0.6-0.9,1.2-1.1s1.7-0.9,2-1.1c0.4-0.2,2.4-0.6,1.7-0.8c-0.7-0.2-1.4-0.4-1.4-0.4
		c-0.9,0.1-1,0-2.3,0.4c-1.3,0.4-2,0.8-2.5,1.1c-0.4,0.2-1.1-0.7-1.4,0.4c-0.2,1-3.9,2.4-3.9,2.4S13,61.8,12,61.6
		c-1-0.2-2.5-1.9-1.3-1.7s3.8-1.7,3.8-1.7l4.8,1.1"/>
	<path class="st4" d="M16.1,56c-0.7,0.5-2.9,0.1-2.9,0.1l-3-0.2c0,0-0.1,0.9,1.2,1.2s1.1,0.6,2.5,0.4c1.5-0.2,3.5-1.5,3.5-1.5"/>
	<path class="st4" d="M29.5,33.9c-1-0.7-1.3-1.2-3.4-2s-3.8-0.7-3.8-0.7s3.3,2.6,3.6,2.6c0.3,0.1-0.4-0.1,0.9,0.2
		C27.9,34.3,29.5,33.9,29.5,33.9z"/>
	<path class="st4" d="M91.3,55.8c1-0.7,4.5-1.7,5-0.9c0.5,0.7,2.3,0.6,2.3,0.6L95.9,57c0,0-1.8,0.5-2.6,0c-0.8-0.5-2.6-2.2-2.6-2.2"
		/>
	<path class="st4" d="M82,47.9c1.6-0.3,2.7,0.3,3.2-0.5c0.5-0.8,1.3-2,1.7-1.8c0.3,0.1,1.6,1.4,1.5,1.8c-0.1,0.5-0.4,1.3-1.5,1.4
		s-1.4,0.9-2.7,0.5c-1.3-0.5-2.7-1.4-2.7-1.4"/>
	<path class="st4" d="M84.2,41.3c0.1-0.5,2.1-2.1,2.4-2.4c0.3-0.3,1.1-0.2,1.6-1.1c0.5-0.9,1.5-2.2,1.5-2.2s-0.8-1.5-1.4-0.8
		c-0.5,0.7-1.7,2.2-1.7,2.5c-0.1,0.3-1.4,1.7-1.4,1.7l-1.8,0.9"/>
	<path class="st4" d="M91.8,51.6c0.9-1.3,4.1-0.9,4.1-0.9s0.1,1.2-0.9,1c-1-0.1-3.2,0.6-3.2,0.6l-0.6-0.8"/>
	<path class="st4" d="M80.1,73.8c0.6,0.6,2.8,3.3,2.8,3.3l4.6,2.7c0,0-0.2,1.4-1,1.2s0.1,0.1-1.8-1.2c-1.9-1.3-2.3-1.2-3.2-2.7
		C80.6,75.7,80.1,73.8,80.1,73.8z"/>
	<path class="st4" d="M73.1,84.9c-0.2-0.2-1.5-4.3-2.3-5.5s-1.2-2-2-2c-0.8,0-0.8,0.4-1.4-0.3c-0.6-0.7-0.7,0.1-0.7,0.9
		s1.4,1.8,1.4,1.8L73.1,84.9z"/>
	<path class="st4" d="M53.7,79.8c0.1,0.7-1.1,2.5-1.9,3.3s-3.3,2.1-3.4,2.7c-0.1,0.6,0-0.6,0-1.4c0-0.8,0.6-2.1,1.2-2.5
		c0.6-0.5,1.1-1,1.1-1L53.7,79.8z"/>
	<path class="st4" d="M75.9,60.7c1.2,0.3,2.5,1.4,3.8,0.9c1.2-0.5,3.2-0.4,4.1-0.4s1.5,0.9,1.5,0.9s-2.6,0.3-3.7,0.4
		s-1.1,0.8-2.3,0.2C78.1,62.2,75.9,60.7,75.9,60.7z"/>
	<path class="st4" d="M50.3,64.8c0,0-1.5,1.7-1.9,2.3c-0.4,0.6-0.4,2.8-1.8,3.5c-1.4,0.7-3.8,1.6-3.8,1.6s0.7,1.7,1.4,1.7
		c0.7,0,1.5-0.9,2-2.1c0.5-1.2,2.7-1.5,3-2.8c0.4-1.3,1.7-0.4,1-1.9C49.5,65.7,50.3,64.8,50.3,64.8z"/>
	<path class="st4" d="M48.4,43.7c-1.7-0.2-1.3-0.2-3.5-0.2c-2.2,0-3.8,0-3.8,0s-3.7-0.3-4-0.7c-0.2-0.4-1.7,0.5-1.7,0.5
		s0.3,1.1,2.5,1c2.2-0.2,2.5,0.3,4,0.4c1.5,0.1,1.6,0,3,0C46.2,44.6,48.4,43.7,48.4,43.7z"/>
	<path class="st4" d="M69.6,64.4c0.8,0.3,4.1,1.5,4.1,1.5s1.9-1.4,3.8,0c1.9,1.4,3.3,2.3,3.3,2.3s0.3,1.4-1.6,0.8
		c-1.8-0.5-3.7-0.1-5-1.1c-1.3-1-1.4-0.8-2.7-1.7s-2.7-2.1-2.7-2.1"/>
	<path class="st4" d="M34.4,73.8c-0.5,0.5-3,2.4-3,2.4s-1.3,3-2.1,3.5c-0.8,0.5-1.8,1.8-1.8,1.8s0.1-1.7,1.5-3.2s1.6-1.7,2.2-3
		C31.8,74.1,34.4,73.8,34.4,73.8z"/>
	<path class="st4" d="M38.7,57c-0.8-0.4-3.5-1-4.7-1c-1.2-0.1-4-1.1-4-1.1s1.4,2.9,2.2,2.7s0.9,1.4,2.5,1s2.9,0.2,3.2-0.3
		C38.2,57.8,38.7,57,38.7,57z"/>
	<path class="st4" d="M53.2,56.6c0.3-0.9,1.9-2.8,1.9-2.8c0,0,0.2,1.9,0.2,1.9v2.4L53.2,56.6z"/>
	<path class="st2" d="M54.1,44.6c0.2-1.4-0.7-2.4-0.4-3.8l3.8,2.9l2.2-2.5c0,0-1.6-2.9-2.5-3.3s-2.4,1.7-2.8,2"/>
	<path class="st2" d="M54.4,37.8c0.9-0.7,1.5,0.6,1.5,0.6v5.1l-0.7,1.1l-1.4-1.9"/>
	<path class="st4" d="M61.8,42c0-0.3-0.9-2.6-1.3-3.5c-0.4-0.9-2.8-2-2.8-2s-1.3,1.6,0.1,1.9C59.3,38.8,61.8,42,61.8,42z"/>
	<path class="st4" d="M64,34c0,0,1.5-1.9,2.4-3.5c0.9-1.7,1.1-1.1,1.7-2.9c0.5-1.8,1.2-2.9,2.1-3s1.6,0.2,1.4,1.5
		c-0.2,1.3-1.9,4.1-1.9,4.1s-2.6,1.5-2.9,1.7c-0.3,0.2-2.2,1.1-2.2,1.1"/>
	<path class="st4" d="M54.4,76.3c0.5,0.4,3.4,1.9,3.4,1.9s1.6,0.6,3.6,0.7c2,0.1,4.9-1.1,4.5-1.2s0.7-0.2-1.8,0
		c-2.5,0.2-3.4,0.3-4.3,0s-0.8-0.5-2.5-0.5s-2.9-1.5-2.9-1.5"/>
	<path class="st4" d="M32.8,62.5c-0.9,0-1.5-0.2-3.3,0.4s-2.8,2.3-4,2.4c-1.2,0.1-1.8,0.8-2,0.4s2.2-1.5,3.2-2.1
		c1-0.7,3.2-1.5,3.2-1.5L32.8,62.5z"/>
	<path class="st4" d="M35.9,52.3c0.1-0.5-1.2-2.9-1.2-2.9s0.1-0.4-1.9-1.5c-1.9-1.1-3.4-1.5-3.4-1.5c1,1.2,2.4,2.8,3.3,3.2
		C33.6,50.1,35.9,52.3,35.9,52.3z"/>
	<path class="st4" d="M61.7,57.5c0.3,0.3,2.2-0.3,2.8,0c0.6,0.3,2,2.5,2,2.5s1,0.2,0.2,0.8s-2.2-0.2-3.2-0.4
		c-1.1-0.2-1.6-1.8-1.6-1.8L61.7,57.5z"/>
	<path class="st4" d="M85.2,52.3c0.9,0.2,1.3-0.3,2.4-0.3c1.1,0,2-0.2,2-0.2L86,54.5l-0.8-0.7V52.3z"/>
</g>
</svg>
