<?xml version="1.0" encoding="utf-8"?>
<!-- Generator: Adobe Illustrator 23.1.1, SVG Export Plug-In . SVG Version: 6.00 Build 0)  -->
<svg version="1.1" id="Layer_3" xmlns="http://www.w3.org/2000/svg" xmlns:xlink="http://www.w3.org/1999/xlink" x="0px" y="0px"
	 viewBox="0 0 108 108" style="enable-background:new 0 0 108 108;" xml:space="preserve">
<style type="text/css">
	.st0{fill:#182F1E;}
	.st1{fill:#2A4230;}
	.st2{fill:#567E39;}
	.st3{fill:#B2D27F;}
	.st4{fill:#619440;}
</style>
<g>
	<ellipse class="st0" cx="64.3" cy="23" rx="2.3" ry="4.5"/>
	<ellipse transform="matrix(0.9659 -0.2588 0.2588 0.9659 -3.8324 16.386)" class="st0" cx="60.3" cy="22.7" rx="2.3" ry="4.5"/>
	<ellipse transform="matrix(0.866 -0.5 0.5 0.866 -5.2922 28.4092)" class="st0" cx="50.4" cy="24.1" rx="2.3" ry="4.5"/>
	<ellipse transform="matrix(0.7071 -0.7071 0.7071 0.7071 -24.229 82.7298)" class="st0" cx="87.7" cy="70.6" rx="2.3" ry="4.5"/>
	<ellipse transform="matrix(0.5 -0.866 0.866 0.5 7.6404 59.3013)" class="st0" cx="55.2" cy="23" rx="2.3" ry="4.5"/>
	<ellipse transform="matrix(0.2588 -0.9659 0.9659 0.2588 24.0603 111.4886)" class="st0" cx="84.7" cy="40.1" rx="2.3" ry="4.5"/>
	<ellipse transform="matrix(0.9939 -0.1103 0.1103 0.9939 -8.8589 7.7656)" class="st0" cx="65.8" cy="83.9" rx="2.3" ry="4.5"/>
	<ellipse transform="matrix(0.3144 -0.9493 0.9493 0.3144 -32.3215 125.1263)" class="st0" cx="70.5" cy="84.9" rx="4.5" ry="2.3"/>
	<ellipse transform="matrix(0.866 -0.5 0.5 0.866 -5.6631 43.6623)" class="st0" cx="78.6" cy="32.4" rx="4.5" ry="2.3"/>
	<ellipse transform="matrix(0.866 -0.5 0.5 0.866 -31.2738 19.9075)" class="st0" cx="21.5" cy="68.3" rx="4.5" ry="2.3"/>
	<ellipse transform="matrix(0.7071 -0.7071 0.7071 0.7071 -5.1487 75.0958)" class="st0" cx="88.1" cy="43.8" rx="4.5" ry="2.3"/>
	<ellipse transform="matrix(0.7071 -0.7071 0.7071 0.7071 -41.3932 69.3947)" class="st0" cx="63.1" cy="84.7" rx="4.5" ry="2.3"/>
	<ellipse transform="matrix(0.7071 -0.7071 0.7071 0.7071 0.4387 45.0784)" class="st0" cx="54.6" cy="22" rx="4.5" ry="2.3"/>
	<ellipse transform="matrix(0.5 -0.866 0.866 0.5 11.2637 88.7245)" class="st0" cx="82.5" cy="34.6" rx="4.5" ry="2.3"/>
	<ellipse transform="matrix(0.2588 -0.9659 0.9659 0.2588 26.177 84.5893)" class="st0" cx="68.2" cy="25.2" rx="4.5" ry="2.3"/>
	<ellipse transform="matrix(0.2588 -0.9659 0.9659 0.2588 -38.9739 119.0892)" class="st0" cx="58.1" cy="84.9" rx="4.5" ry="2.3"/>
	<ellipse class="st0" cx="76.3" cy="30.1" rx="2.3" ry="4.5"/>
	<ellipse transform="matrix(0.9659 -0.2588 0.2588 0.9659 -17.6264 23.3211)" class="st0" cx="79.8" cy="78.6" rx="2.3" ry="4.5"/>
	<ellipse transform="matrix(0.866 -0.5 0.5 0.866 -4.5822 39.6283)" class="st0" cx="71.7" cy="28.4" rx="2.3" ry="4.5"/>
	<ellipse transform="matrix(0.992 -0.126 0.126 0.992 -10.015 10.2106)" class="st0" cx="75.7" cy="84.3" rx="2.3" ry="4.5"/>
	<ellipse transform="matrix(0.5 -0.866 0.866 0.5 -23.0884 109.4588)" class="st0" cx="83.2" cy="74.7" rx="2.3" ry="4.5"/>
	<ellipse transform="matrix(0.2588 -0.9659 0.9659 0.2588 -5.0954 135.0894)" class="st0" cx="85.5" cy="70.9" rx="2.3" ry="4.5"/>
	<ellipse class="st0" cx="89.9" cy="66" rx="4.5" ry="2.3"/>
	<ellipse transform="matrix(0.9659 -0.2588 0.2588 0.9659 -11.8587 25.4132)" class="st0" cx="90.6" cy="57.7" rx="4.5" ry="2.3"/>
	<ellipse transform="matrix(0.866 -0.5 0.5 0.866 -19.2218 54.2679)" class="st0" cx="91.7" cy="63" rx="4.5" ry="2.3"/>
	<ellipse transform="matrix(0.7071 -0.7071 0.7071 0.7071 -10.9578 79.5834)" class="st0" cx="90.6" cy="53" rx="4.5" ry="2.3"/>
	<ellipse transform="matrix(0.7071 -0.7071 0.7071 0.7071 1.9913 57.8582)" class="st0" cx="70.8" cy="26.5" rx="4.5" ry="2.3"/>
	<ellipse transform="matrix(0.5 -0.866 0.866 0.5 9.2417 93.366)" class="st0" cx="85.5" cy="38.7" rx="4.5" ry="2.3"/>
	<ellipse transform="matrix(0.2588 -0.9659 0.9659 0.2588 21.4113 122.5898)" class="st0" cx="90.6" cy="47.3" rx="4.5" ry="2.3"/>
	<ellipse class="st0" cx="47.8" cy="24" rx="2.3" ry="4.5"/>
	<ellipse transform="matrix(0.2588 -0.9659 0.9659 0.2588 15.4453 67.6161)" class="st0" cx="51.8" cy="23.7" rx="4.5" ry="2.3"/>
	<ellipse transform="matrix(0.5 -0.866 0.866 0.5 9.1496 65.9991)" class="st0" cx="61.7" cy="25.1" rx="4.5" ry="2.3"/>
	<ellipse transform="matrix(0.7071 -0.7071 0.7071 0.7071 -43.5026 38.1905)" class="st0" cx="24.3" cy="71.6" rx="4.5" ry="2.3"/>
	<ellipse transform="matrix(0.866 -0.5 0.5 0.866 -4.3888 31.6799)" class="st0" cx="56.9" cy="24" rx="4.5" ry="2.3"/>
	<ellipse transform="matrix(0.9659 -0.2588 0.2588 0.9659 -9.6933 8.496)" class="st0" cx="27.4" cy="41.1" rx="4.5" ry="2.3"/>
	<ellipse transform="matrix(0.1103 -0.9939 0.9939 0.1103 -43.1887 121.6336)" class="st0" cx="46.3" cy="84.9" rx="4.5" ry="2.3"/>
	<ellipse transform="matrix(0.9493 -0.3144 0.3144 0.9493 -24.3871 17.3643)" class="st0" cx="41.6" cy="84.3" rx="2.3" ry="4.5"/>
	<ellipse transform="matrix(0.5 -0.866 0.866 0.5 -12.193 45.6695)" class="st0" cx="33.5" cy="33.4" rx="2.3" ry="4.5"/>
	<ellipse transform="matrix(0.7071 -0.7071 0.7071 0.7071 -24.6129 30.0967)" class="st0" cx="24" cy="44.8" rx="2.3" ry="4.5"/>
	<ellipse transform="matrix(0.7071 -0.7071 0.7071 0.7071 -45.2297 59.3506)" class="st0" cx="49" cy="84.3" rx="2.3" ry="4.5"/>
	<ellipse transform="matrix(0.7071 -0.7071 0.7071 0.7071 0.5636 47.3713)" class="st0" cx="57.5" cy="23" rx="2.3" ry="4.5"/>
	<ellipse transform="matrix(0.866 -0.5 0.5 0.866 -13.8322 19.5841)" class="st0" cx="29.6" cy="35.6" rx="2.3" ry="4.5"/>
	<ellipse transform="matrix(0.9659 -0.2588 0.2588 0.9659 -4.89 12.2516)" class="st0" cx="44.1" cy="24.7" rx="2.3" ry="4.5"/>
	<ellipse transform="matrix(0.9659 -0.2588 0.2588 0.9659 -20.6061 17.2411)" class="st0" cx="55.2" cy="86.9" rx="2.3" ry="4.5"/>
	<ellipse class="st0" cx="35" cy="28.5" rx="2.3" ry="4.5"/>
	<ellipse transform="matrix(0.2588 -0.9659 0.9659 0.2588 -54.6429 90.9506)" class="st0" cx="31.9" cy="81.1" rx="4.5" ry="2.3"/>
	<ellipse transform="matrix(0.5 -0.866 0.866 0.5 -5.206 49.7035)" class="st0" cx="40.4" cy="29.4" rx="4.5" ry="2.3"/>
	<ellipse transform="matrix(0.126 -0.992 0.992 0.126 -50.0804 108.7938)" class="st0" cx="36.7" cy="82.8" rx="4.5" ry="2.3"/>
	<ellipse transform="matrix(0.866 -0.5 0.5 0.866 -34.8621 25.4355)" class="st0" cx="30" cy="77.8" rx="4.5" ry="2.3"/>
	<ellipse transform="matrix(0.9659 -0.2588 0.2588 0.9659 -18.6207 9.1217)" class="st0" cx="25.3" cy="75.3" rx="4.5" ry="2.3"/>
	<ellipse class="st0" cx="87" cy="60.7" rx="4.5" ry="2.3"/>
	<ellipse transform="matrix(0.2588 -0.9659 0.9659 0.2588 -40.7951 64.3153)" class="st0" cx="21.5" cy="58.7" rx="2.3" ry="4.5"/>
	<ellipse transform="matrix(0.5 -0.866 0.866 0.5 -45.2021 49.7035)" class="st0" cx="20.4" cy="64" rx="2.3" ry="4.5"/>
	<ellipse transform="matrix(0.7071 -0.7071 0.7071 0.7071 -31.8937 31.0312)" class="st0" cx="21.5" cy="54" rx="2.3" ry="4.5"/>
	<ellipse transform="matrix(0.7071 -0.7071 0.7071 0.7071 -6.6999 35.6065)" class="st0" cx="39.6" cy="25.9" rx="2.3" ry="4.5"/>
	<ellipse transform="matrix(0.866 -0.5 0.5 0.866 -16.2712 18.6253)" class="st0" cx="26.6" cy="39.7" rx="2.3" ry="4.5"/>
	<ellipse transform="matrix(0.9659 -0.2588 0.2588 0.9659 -11.778 7.2146)" class="st0" cx="21.5" cy="48.3" rx="2.3" ry="4.5"/>
	<path class="st1" d="M36.3,34.5c-3.9,2.4-14.5,3.6-13.8,15.6c0.8,12,4.1,18.2,6.3,21.6s23.4,9.6,30.2,7s9.4,2,15.5-1.3
		c6.1-3.3,10.9-7.4,12.3-14.1s7.3-4.5,2-18.4c-5.4-13.9-2.5-13.4-10.4-17.6s-12-8.1-15.9-7c-3.9,1.1-9.6,1.4-12,2.5
		C48,23.9,36.3,34.5,36.3,34.5z"/>
	<ellipse class="st1" cx="65.3" cy="19.4" rx="2.3" ry="4.5"/>
	<ellipse transform="matrix(0.9659 -0.2588 0.2588 0.9659 -2.8613 16.5263)" class="st1" cx="61.3" cy="19.1" rx="2.3" ry="4.5"/>
	<ellipse transform="matrix(0.866 -0.5 0.5 0.866 -3.3467 28.4338)" class="st1" cx="51.4" cy="20.5" rx="2.3" ry="4.5"/>
	<ellipse transform="matrix(0.7071 -0.7071 0.7071 0.7071 -21.3723 82.3904)" class="st1" cx="88.8" cy="67" rx="2.3" ry="4.5"/>
	<ellipse transform="matrix(0.5 -0.866 0.866 0.5 11.283 58.3745)" class="st1" cx="56.2" cy="19.4" rx="2.3" ry="4.5"/>
	<ellipse transform="matrix(0.2588 -0.9659 0.9659 0.2588 28.3101 109.7909)" class="st1" cx="85.7" cy="36.4" rx="2.3" ry="4.5"/>
	<ellipse transform="matrix(0.9939 -0.1103 0.1103 0.9939 -8.4535 7.8559)" class="st1" cx="66.8" cy="80.3" rx="2.3" ry="4.5"/>
	<ellipse transform="matrix(0.3144 -0.9493 0.9493 0.3144 -28.1886 123.613)" class="st1" cx="71.5" cy="81.3" rx="4.5" ry="2.3"/>
	<ellipse transform="matrix(0.866 -0.5 0.5 0.866 -3.7176 43.6869)" class="st2" cx="79.7" cy="28.8" rx="4.5" ry="2.3"/>
	<ellipse transform="matrix(0.866 -0.5 0.5 0.866 -29.3283 19.9321)" class="st3" cx="22.5" cy="64.7" rx="4.5" ry="2.3"/>
	<ellipse transform="matrix(0.866 -0.5 0.5 0.866 -19.9335 27.0079)" class="st3" cx="40.4" cy="50.7" rx="4.5" ry="2.3"/>
	<ellipse transform="matrix(0.866 -0.5 0.5 0.866 -25.7549 37.7714)" class="st3" cx="57.6" cy="66.9" rx="4.5" ry="2.3"/>
	<ellipse transform="matrix(0.7071 -0.7071 0.7071 0.7071 -2.2921 74.7564)" class="st4" cx="89.1" cy="40.1" rx="4.5" ry="2.3"/>
	<ellipse transform="matrix(0.7071 -0.7071 0.7071 0.7071 -14.0314 63.9431)" class="st4" cx="70.2" cy="48.9" rx="4.5" ry="2.3"/>
	<ellipse transform="matrix(0.7071 -0.7071 0.7071 0.7071 -38.5365 69.0553)" class="st4" cx="64.1" cy="81" rx="4.5" ry="2.3"/>
	<ellipse transform="matrix(0.7071 -0.7071 0.7071 0.7071 3.2954 44.739)" class="st1" cx="55.7" cy="18.4" rx="4.5" ry="2.3"/>
	<ellipse transform="matrix(0.5 -0.866 0.866 0.5 14.9063 87.7977)" class="st3" cx="83.5" cy="31" rx="4.5" ry="2.3"/>
	<ellipse transform="matrix(0.5 -0.866 0.866 0.5 -19.5565 87.7977)" class="st3" cx="66.3" cy="60.8" rx="4.5" ry="2.3"/>
	<ellipse transform="matrix(0.2588 -0.9659 0.9659 0.2588 30.4267 82.8917)" class="st1" cx="69.2" cy="21.6" rx="4.5" ry="2.3"/>
	<ellipse transform="matrix(0.2588 -0.9659 0.9659 0.2588 -34.7242 117.3916)" class="st1" cx="59.1" cy="81.3" rx="4.5" ry="2.3"/>
	<ellipse class="st4" cx="77.4" cy="26.5" rx="2.3" ry="4.5"/>
	<ellipse transform="matrix(0.9659 -0.2588 0.2588 0.9659 -16.6553 23.4615)" class="st1" cx="80.8" cy="75" rx="2.3" ry="4.5"/>
	<ellipse transform="matrix(0.866 -0.5 0.5 0.866 -2.6367 39.6529)" class="st1" cx="72.7" cy="24.7" rx="2.3" ry="4.5"/>
	<ellipse transform="matrix(0.992 -0.126 0.126 0.992 -9.551 10.3101)" class="st2" cx="76.7" cy="80.7" rx="2.3" ry="4.5"/>
	<ellipse transform="matrix(0.992 -0.126 0.126 0.992 -8.7351 10.1761)" class="st2" cx="76.1" cy="74.1" rx="2.3" ry="4.5"/>
	<ellipse transform="matrix(0.992 -0.126 0.126 0.992 -6.9586 9.5301)" class="st2" cx="71.9" cy="59.8" rx="2.3" ry="4.5"/>
	<ellipse transform="matrix(0.5 -0.866 0.866 0.5 -19.4458 108.532)" class="st4" cx="84.3" cy="71.1" rx="2.3" ry="4.5"/>
	<ellipse transform="matrix(0.2588 -0.9659 0.9659 0.2588 -0.8457 133.3917)" class="st3" cx="86.5" cy="67.2" rx="2.3" ry="4.5"/>
	<ellipse transform="matrix(0.2588 -0.9659 0.9659 0.2588 2.8053 112.1408)" class="st3" cx="74.5" cy="54.2" rx="2.3" ry="4.5"/>
	<ellipse class="st1" cx="91" cy="62.4" rx="4.5" ry="2.3"/>
	<ellipse transform="matrix(0.9659 -0.2588 0.2588 0.9659 -10.8876 25.5535)" class="st4" cx="91.6" cy="54.1" rx="4.5" ry="2.3"/>
	<ellipse transform="matrix(0.866 -0.5 0.5 0.866 -17.2763 54.2925)" class="st2" cx="92.7" cy="59.4" rx="4.5" ry="2.3"/>
	<ellipse transform="matrix(0.866 -0.5 0.5 0.866 -15.8336 32.4995)" class="st2" cx="52.7" cy="45.8" rx="4.5" ry="2.3"/>
	<ellipse transform="matrix(0.7071 -0.7071 0.7071 0.7071 -8.1012 79.244)" class="st1" cx="91.6" cy="49.4" rx="4.5" ry="2.3"/>
	<ellipse transform="matrix(0.7071 -0.7071 0.7071 0.7071 4.848 57.5188)" class="st4" cx="71.9" cy="22.9" rx="4.5" ry="2.3"/>
	<ellipse transform="matrix(0.5 -0.866 0.866 0.5 12.8844 92.4392)" class="st1" cx="86.5" cy="35.1" rx="4.5" ry="2.3"/>
	<ellipse transform="matrix(0.2588 -0.9659 0.9659 0.2588 25.661 120.8922)" class="st3" cx="91.6" cy="43.7" rx="4.5" ry="2.3"/>
	<ellipse transform="matrix(0.2588 -0.9659 0.9659 0.2588 -5.821 97.3843)" class="st3" cx="60.5" cy="52.5" rx="4.5" ry="2.3"/>
	<ellipse transform="matrix(0.2588 -0.9659 0.9659 0.2588 11.8011 105.7196)" class="st3" cx="74.8" cy="45.2" rx="4.5" ry="2.3"/>
	<ellipse class="st4" cx="48.8" cy="20.4" rx="2.3" ry="4.5"/>
	<ellipse transform="matrix(0.2588 -0.9659 0.9659 0.2588 19.695 65.9184)" class="st3" cx="52.8" cy="20.1" rx="4.5" ry="2.3"/>
	<ellipse transform="matrix(0.5 -0.866 0.866 0.5 12.7923 65.0723)" class="st4" cx="62.8" cy="21.5" rx="4.5" ry="2.3"/>
	<ellipse transform="matrix(0.7071 -0.7071 0.7071 0.7071 -40.646 37.8511)" class="st1" cx="25.4" cy="68" rx="4.5" ry="2.3"/>
	<ellipse transform="matrix(0.866 -0.5 0.5 0.866 -2.4433 31.7046)" class="st1" cx="57.9" cy="20.4" rx="4.5" ry="2.3"/>
	<ellipse transform="matrix(0.9659 -0.2588 0.2588 0.9659 -8.7222 8.6364)" class="st1" cx="28.4" cy="37.4" rx="4.5" ry="2.3"/>
	<ellipse transform="matrix(0.1103 -0.9939 0.9939 0.1103 -38.6865 119.4272)" class="st1" cx="47.4" cy="81.3" rx="4.5" ry="2.3"/>
	<ellipse transform="matrix(0.9493 -0.3144 0.3144 0.9493 -23.1978 17.5011)" class="st4" cx="42.6" cy="80.7" rx="2.3" ry="4.5"/>
	<ellipse transform="matrix(0.9493 -0.3144 0.3144 0.9493 -18.0215 16.5682)" class="st4" cx="42.3" cy="64.1" rx="2.3" ry="4.5"/>
	<ellipse transform="matrix(0.5 -0.866 0.866 0.5 -8.5504 44.7427)" class="st1" cx="34.5" cy="29.8" rx="2.3" ry="4.5"/>
	<ellipse transform="matrix(0.7071 -0.7071 0.7071 0.7071 -21.7562 29.7573)" class="st3" cx="25" cy="41.1" rx="2.3" ry="4.5"/>
	<ellipse transform="matrix(0.7071 -0.7071 0.7071 0.7071 -42.3731 59.0112)" class="st3" cx="50" cy="80.7" rx="2.3" ry="4.5"/>
	<ellipse transform="matrix(0.7071 -0.7071 0.7071 0.7071 3.4203 47.0319)" class="st2" cx="58.5" cy="19.4" rx="2.3" ry="4.5"/>
	<ellipse transform="matrix(0.7071 -0.7071 0.7071 0.7071 -9.1063 59.3655)" class="st2" cx="67.1" cy="40.7" rx="2.3" ry="4.5"/>
	<ellipse transform="matrix(0.866 -0.5 0.5 0.866 -11.8868 19.6087)" class="st4" cx="30.6" cy="32" rx="2.3" ry="4.5"/>
	<ellipse transform="matrix(0.866 -0.5 0.5 0.866 -11.184 30.9837)" class="st4" cx="52.2" cy="36.4" rx="2.3" ry="4.5"/>
	<ellipse transform="matrix(0.9659 -0.2588 0.2588 0.9659 -3.9189 12.3919)" class="st1" cx="45.1" cy="21.1" rx="2.3" ry="4.5"/>
	<ellipse transform="matrix(0.9659 -0.2588 0.2588 0.9659 -19.635 17.3815)" class="st1" cx="56.2" cy="83.3" rx="2.3" ry="4.5"/>
	<ellipse class="st2" cx="36.1" cy="24.9" rx="2.3" ry="4.5"/>
	<ellipse transform="matrix(0.2588 -0.9659 0.9659 0.2588 -50.3931 89.253)" class="st2" cx="33" cy="77.5" rx="4.5" ry="2.3"/>
	<ellipse transform="matrix(0.5 -0.866 0.866 0.5 -1.5634 48.7767)" class="st1" cx="41.5" cy="25.7" rx="4.5" ry="2.3"/>
	<ellipse transform="matrix(0.126 -0.992 0.992 0.126 -45.601 106.6422)" class="st2" cx="37.7" cy="79.2" rx="4.5" ry="2.3"/>
	<ellipse transform="matrix(0.866 -0.5 0.5 0.866 -32.9167 25.4601)" class="st1" cx="31.1" cy="74.2" rx="4.5" ry="2.3"/>
	<ellipse transform="matrix(0.9659 -0.2588 0.2588 0.9659 -17.6496 9.262)" class="st4" cx="26.4" cy="71.7" rx="4.5" ry="2.3"/>
	<ellipse transform="matrix(0.9659 -0.2588 0.2588 0.9659 -14.1403 16.4191)" class="st4" cx="55.3" cy="61.9" rx="4.5" ry="2.3"/>
	<ellipse class="st2" cx="88" cy="57.1" rx="4.5" ry="2.3"/>
	<ellipse transform="matrix(0.2588 -0.9659 0.9659 0.2588 -36.5454 62.6176)" class="st4" cx="22.5" cy="55.1" rx="2.3" ry="4.5"/>
	<ellipse transform="matrix(0.2588 -0.9659 0.9659 0.2588 -22.677 84.8702)" class="st4" cx="44" cy="57.2" rx="2.3" ry="4.5"/>
	<ellipse transform="matrix(0.5 -0.866 0.866 0.5 -41.5595 48.7767)" class="st1" cx="21.5" cy="60.4" rx="2.3" ry="4.5"/>
	<ellipse transform="matrix(0.7071 -0.7071 0.7071 0.7071 -29.037 30.6918)" class="st1" cx="22.5" cy="50.4" rx="2.3" ry="4.5"/>
	<ellipse transform="matrix(0.7071 -0.7071 0.7071 0.7071 -3.8432 35.2671)" class="st3" cx="40.6" cy="22.3" rx="2.3" ry="4.5"/>
	<ellipse transform="matrix(0.7071 -0.7071 0.7071 0.7071 -18.1194 41.49)" class="st3" cx="41" cy="42.6" rx="2.3" ry="4.5"/>
	<ellipse transform="matrix(0.866 -0.5 0.5 0.866 -14.3257 18.6499)" class="st1" cx="27.6" cy="36.1" rx="2.3" ry="4.5"/>
	<ellipse transform="matrix(0.9659 -0.2588 0.2588 0.9659 -10.8069 7.355)" class="st2" cx="22.5" cy="44.7" rx="2.3" ry="4.5"/>
	<ellipse transform="matrix(0.9659 -0.2588 0.2588 0.9659 -11.3307 14.0896)" class="st2" cx="47.8" cy="50.1" rx="2.3" ry="4.5"/>
	<ellipse transform="matrix(0.6939 -0.7201 0.7201 0.6939 -38.8056 43.7845)" class="st1" cx="32.1" cy="67.5" rx="3.9" ry="2"/>
	<ellipse transform="matrix(0.4839 -0.8751 0.8751 0.4839 -43.5821 66.2522)" class="st1" cx="34.4" cy="70.1" rx="3.9" ry="2"/>
	<ellipse transform="matrix(0.2409 -0.9706 0.9706 0.2409 -41.5957 97.2018)" class="st1" cx="41.3" cy="75.2" rx="3.9" ry="2"/>
	
		<ellipse transform="matrix(0.9998 -1.853503e-02 1.853503e-02 0.9998 -0.4373 0.856)" class="st1" cx="46" cy="24" rx="2" ry="3.9"/>
	<ellipse transform="matrix(0.961 -0.2767 0.2767 0.961 -18.7152 13.2882)" class="st1" cx="37.7" cy="73" rx="2" ry="3.9"/>
	<ellipse transform="matrix(0.8566 -0.516 0.516 0.8566 -18.8622 21.705)" class="st1" cx="29.6" cy="44.8" rx="2" ry="3.9"/>
	<ellipse transform="matrix(0.6102 -0.7922 0.7922 0.6102 3.4421 64.7854)" class="st1" cx="67.6" cy="28.9" rx="3.9" ry="2"/>
	<ellipse transform="matrix(0.8851 -0.4654 0.4654 0.8851 -4.3545 33.2818)" class="st1" cx="65.2" cy="25.5" rx="3.9" ry="2"/>
	<ellipse transform="matrix(0.2409 -0.9706 0.9706 0.2409 -29.733 68.2771)" class="st2" cx="28.8" cy="53.1" rx="2" ry="3.9"/>
	<ellipse transform="matrix(0.2409 -0.9706 0.9706 0.2409 1.9192 132.4722)" class="st3" cx="85.6" cy="65" rx="2" ry="3.9"/>
	
		<ellipse transform="matrix(0.9998 -1.853503e-02 1.853503e-02 0.9998 -0.745 0.5579)" class="st4" cx="29.7" cy="40.5" rx="3.9" ry="2"/>
	
		<ellipse transform="matrix(0.9998 -1.853503e-02 1.853503e-02 0.9998 -0.545 1.2961)" class="st4" cx="69.6" cy="30.1" rx="3.9" ry="2"/>
	
		<ellipse transform="matrix(0.9998 -1.853503e-02 1.853503e-02 0.9998 -1.3638 0.707)" class="st1" cx="37.5" cy="73.9" rx="3.9" ry="2"/>
	<ellipse transform="matrix(0.961 -0.2767 0.2767 0.961 -12.6106 9.6037)" class="st3" cx="27.7" cy="49.5" rx="3.9" ry="2"/>
	<ellipse transform="matrix(0.961 -0.2767 0.2767 0.961 -9.4495 15.308)" class="st3" cx="49.5" cy="41.1" rx="3.9" ry="2"/>
	<ellipse transform="matrix(0.8566 -0.516 0.516 0.8566 -28.4865 25.1309)" class="st1" cx="31" cy="63.8" rx="3.9" ry="2"/>
	<ellipse transform="matrix(0.8566 -0.516 0.516 0.8566 -6.4929 42.3167)" class="st1" cx="72.9" cy="32.8" rx="3.9" ry="2"/>
	<ellipse transform="matrix(0.6939 -0.7201 0.7201 0.6939 -31.4595 37.888)" class="st4" cx="28.8" cy="55.9" rx="3.9" ry="2"/>
	<ellipse transform="matrix(0.4839 -0.8751 0.8751 0.4839 7.8785 61.0389)" class="st1" cx="55.7" cy="23.8" rx="3.9" ry="2"/>
	<ellipse transform="matrix(0.2409 -0.9706 0.9706 0.2409 -34.7515 75.2081)" class="st1" cx="30.7" cy="59.8" rx="3.9" ry="2"/>
	<ellipse transform="matrix(0.5976 -0.8018 0.8018 0.5976 6.5429 58.5296)" class="st2" cx="61.6" cy="22.7" rx="3.9" ry="2"/>
	<ellipse transform="matrix(0.961 -0.2767 0.2767 0.961 -4.6852 15.1105)" class="st4" cx="51.2" cy="24.2" rx="2" ry="3.9"/>
	<ellipse transform="matrix(0.8566 -0.516 0.516 0.8566 -6.1989 28.1344)" class="st3" cx="47.5" cy="25.2" rx="2" ry="3.9"/>
	<ellipse transform="matrix(0.6939 -0.7201 0.7201 0.6939 -5.594 37.9592)" class="st1" cx="41.8" cy="25.6" rx="2" ry="3.9"/>
	<path class="st4" d="M37.5,28.6c1.9,1,3.4,4.1,2.4,3.6c-0.6-0.3-2.6-0.9-4.4-0.1c-2,0.9-3-2.7-2.4-3.6
		C33.6,27.5,35.6,27.5,37.5,28.6z"/>
	<ellipse transform="matrix(0.2409 -0.9706 0.9706 0.2409 3.9744 57.8908)" class="st2" cx="39" cy="26.4" rx="2" ry="3.9"/>
	<ellipse transform="matrix(0.2409 -0.9706 0.9706 0.2409 -12.1741 94.0688)" class="st2" cx="54" cy="54.8" rx="2" ry="3.9"/>
	
		<ellipse transform="matrix(0.9998 -1.853503e-02 1.853503e-02 0.9998 -0.6101 0.6302)" class="st1" cx="33.7" cy="33.2" rx="3.9" ry="2"/>
	
		<ellipse transform="matrix(0.9998 -1.853503e-02 1.853503e-02 0.9998 -1.1338 0.5687)" class="st4" cx="30.1" cy="61.4" rx="3.9" ry="2"/>
	
		<ellipse transform="matrix(0.9998 -1.853503e-02 1.853503e-02 0.9998 -1.0538 0.7271)" class="st4" cx="38.7" cy="57.2" rx="3.9" ry="2"/>
	<ellipse transform="matrix(0.961 -0.2767 0.2767 0.961 -11.393 9.5919)" class="st1" cx="28.3" cy="45.2" rx="3.9" ry="2"/>
	<ellipse transform="matrix(0.8566 -0.516 0.516 0.8566 -14.6159 20.9048)" class="st3" cx="30.3" cy="36.7" rx="3.9" ry="2"/>
	<ellipse transform="matrix(0.8273 -0.5617 0.5617 0.8273 -11.7654 40.728)" class="st3" cx="60.4" cy="39.5" rx="2" ry="3.9"/>
	<ellipse transform="matrix(0.6939 -0.7201 0.7201 0.6939 -42.1322 54.3721)" class="st4" cx="42.9" cy="76.7" rx="3.9" ry="2"/>
	<ellipse transform="matrix(0.6939 -0.7201 0.7201 0.6939 -32.5623 51.9931)" class="st4" cx="44.9" cy="64.3" rx="3.9" ry="2"/>
	<ellipse transform="matrix(0.6939 -0.7201 0.7201 0.6939 -27.9299 56.3737)" class="st4" cx="52.3" cy="61" rx="3.9" ry="2"/>
	<ellipse transform="matrix(0.8566 -0.516 0.516 0.8566 -32.6943 31.4634)" class="st3" cx="40.3" cy="74.6" rx="3.9" ry="2"/>
	<ellipse transform="matrix(0.961 -0.2767 0.2767 0.961 -17.3928 12.2992)" class="st4" cx="34.9" cy="67.8" rx="3.9" ry="2"/>
	
		<ellipse transform="matrix(0.9998 -1.853503e-02 1.853503e-02 0.9998 -1.1209 1.6018)" class="st1" cx="85.9" cy="61.3" rx="3.9" ry="2"/>
	<ellipse transform="matrix(0.2409 -0.9706 0.9706 0.2409 -40.9333 90.2807)" class="st1" cx="37.2" cy="71.3" rx="2" ry="3.9"/>
	<ellipse transform="matrix(0.4839 -0.8751 0.8751 0.4839 -34.6724 97.9512)" class="st1" cx="65.7" cy="78.4" rx="2" ry="3.9"/>
	<ellipse transform="matrix(0.7691 -0.6392 0.6392 0.7691 -6.9663 60.455)" class="st1" cx="80.2" cy="39.9" rx="3.9" ry="2"/>
	<ellipse transform="matrix(0.4323 -0.9017 0.9017 0.4323 8.0907 99.0503)" class="st4" cx="82.7" cy="43.1" rx="3.9" ry="2"/>
	<ellipse transform="matrix(0.961 -0.2767 0.2767 0.961 -19.761 18.9814)" class="st1" cx="57.4" cy="79.5" rx="2" ry="3.9"/>
	
		<ellipse transform="matrix(0.9998 -1.853503e-02 1.853503e-02 0.9998 -1.4357 1.3112)" class="st3" cx="70" cy="78.1" rx="2" ry="3.9"/>
	
		<ellipse transform="matrix(0.9998 -1.853503e-02 1.853503e-02 0.9998 -0.7035 1.4546)" class="st3" cx="78.1" cy="38.7" rx="2" ry="3.9"/>
	
		<ellipse transform="matrix(0.9998 -1.853503e-02 1.853503e-02 0.9998 -1.3212 0.6851)" class="st2" cx="36.3" cy="71.6" rx="2" ry="3.9"/>
	<ellipse transform="matrix(0.2409 -0.9706 0.9706 0.2409 -31.7021 120.3383)" class="st4" cx="61.1" cy="80.4" rx="3.9" ry="2"/>
	<ellipse transform="matrix(0.2409 -0.9706 0.9706 0.2409 -23.0019 121.1071)" class="st4" cx="65.9" cy="75.3" rx="3.9" ry="2"/>
	<ellipse transform="matrix(0.2409 -0.9706 0.9706 0.2409 -2.3369 92.2913)" class="st4" cx="57.8" cy="47.6" rx="3.9" ry="2"/>
	<ellipse transform="matrix(0.4839 -0.8751 0.8751 0.4839 -45.2151 80.4555)" class="st1" cx="45.6" cy="78.6" rx="3.9" ry="2"/>
	<ellipse transform="matrix(0.4839 -0.8751 0.8751 0.4839 9.9349 83.629)" class="st1" cx="75.9" cy="33.4" rx="3.9" ry="2"/>
	<ellipse transform="matrix(0.6939 -0.7201 0.7201 0.6939 -42.3694 63.5034)" class="st2" cx="53.5" cy="81.6" rx="3.9" ry="2"/>
	<ellipse transform="matrix(0.6939 -0.7201 0.7201 0.6939 -36.5779 64.34)" class="st2" cx="57.4" cy="75.2" rx="3.9" ry="2"/>
	<ellipse transform="matrix(0.8566 -0.516 0.516 0.8566 -13.7966 52.0814)" class="st2" cx="86.8" cy="50.9" rx="3.9" ry="2"/>
	<ellipse transform="matrix(0.961 -0.2767 0.2767 0.961 -19.5613 17.0512)" class="st1" cx="50.6" cy="77.8" rx="3.9" ry="2"/>
	<ellipse transform="matrix(0.7791 -0.6269 0.6269 0.7791 -10.6756 63.5914)" class="st2" cx="84.9" cy="46.9" rx="3.9" ry="2"/>
	<ellipse transform="matrix(0.2409 -0.9706 0.9706 0.2409 12.8296 124.515)" class="st1" cx="86" cy="54.1" rx="2" ry="3.9"/>
	<ellipse transform="matrix(0.4839 -0.8751 0.8751 0.4839 -5.9854 106.666)" class="st4" cx="87.4" cy="58.4" rx="2" ry="3.9"/>
	<ellipse transform="matrix(0.6939 -0.7201 0.7201 0.6939 -9.6223 38.5472)" class="st2" cx="40.5" cy="30.6" rx="2" ry="3.9"/>
	<ellipse transform="matrix(0.8566 -0.516 0.516 0.8566 -25.1428 51.4119)" class="st4" cx="79.9" cy="70.9" rx="2" ry="3.9"/>
	<ellipse transform="matrix(0.961 -0.2767 0.2767 0.961 -15.6343 25.833)" class="st1" cx="83.7" cy="68.3" rx="2" ry="3.9"/>
	
		<ellipse transform="matrix(0.9998 -1.853503e-02 1.853503e-02 0.9998 -1.356 1.4418)" class="st1" cx="77.1" cy="73.9" rx="2" ry="3.9"/>
	
		<ellipse transform="matrix(0.9998 -1.853503e-02 1.853503e-02 0.9998 -1.4833 0.9234)" class="st3" cx="49.1" cy="80.5" rx="2" ry="3.9"/>
	
		<ellipse transform="matrix(0.9998 -1.853503e-02 1.853503e-02 0.9998 -1.2309 0.9367)" class="st3" cx="49.9" cy="66.9" rx="2" ry="3.9"/>
	<ellipse transform="matrix(0.2409 -0.9706 0.9706 0.2409 -27.7347 123.9569)" class="st1" cx="65.4" cy="79.7" rx="3.9" ry="2"/>
	<ellipse transform="matrix(0.4839 -0.8751 0.8751 0.4839 -29.6801 104.4539)" class="st2" cx="73.7" cy="77.4" rx="3.9" ry="2"/>
	<ellipse transform="matrix(0.4839 -0.8751 0.8751 0.4839 -23.6998 94.3092)" class="st2" cx="68.1" cy="67.2" rx="3.9" ry="2"/>
	<ellipse transform="matrix(0.4839 -0.8751 0.8751 0.4839 -19.8752 85.1913)" class="st2" cx="62.3" cy="59.4" rx="3.9" ry="2"/>
	<ellipse class="st1" cx="64.6" cy="26.9" rx="1.7" ry="3.4"/>
	<ellipse transform="matrix(0.9659 -0.2588 0.2588 0.9659 -4.8126 16.8737)" class="st1" cx="61.7" cy="26.7" rx="1.7" ry="3.4"/>
	<ellipse transform="matrix(0.866 -0.5 0.5 0.866 -6.5909 30.8262)" class="st1" cx="54.2" cy="27.7" rx="1.7" ry="3.4"/>
	<ellipse transform="matrix(0.7071 -0.7071 0.7071 0.7071 -20.153 76.4624)" class="st1" cx="82.2" cy="62.6" rx="1.7" ry="3.4"/>
	<ellipse transform="matrix(0.5 -0.866 0.866 0.5 5.5939 63.546)" class="st1" cx="57.8" cy="26.9" rx="1.7" ry="3.4"/>
	<ellipse transform="matrix(0.2588 -0.9659 0.9659 0.2588 20.9051 106.611)" class="st1" cx="79.9" cy="39.7" rx="1.7" ry="3.4"/>
	<ellipse transform="matrix(0.9939 -0.1103 0.1103 0.9939 -7.6011 7.6956)" class="st1" cx="65.7" cy="72.5" rx="1.7" ry="3.4"/>
	<ellipse transform="matrix(0.3144 -0.9493 0.9493 0.3144 -22.0744 116.0106)" class="st1" cx="69.3" cy="73.3" rx="3.4" ry="1.7"/>
	<ellipse transform="matrix(0.866 -0.5 0.5 0.866 -6.8686 42.2487)" class="st2" cx="75.4" cy="33.9" rx="3.4" ry="1.7"/>
	<ellipse transform="matrix(0.866 -0.5 0.5 0.866 -26.0476 24.4596)" class="st3" cx="32.6" cy="60.8" rx="3.4" ry="1.7"/>
	<ellipse transform="matrix(0.7071 -0.7071 0.7071 0.7071 -5.8644 70.7457)" class="st4" cx="82.5" cy="42.5" rx="3.4" ry="1.7"/>
	<ellipse transform="matrix(0.7071 -0.7071 0.7071 0.7071 -13.0227 58.1377)" class="st4" cx="63.7" cy="44.8" rx="3.4" ry="1.7"/>
	<ellipse transform="matrix(0.7071 -0.7071 0.7071 0.7071 -33.0066 66.4763)" class="st4" cx="63.7" cy="73.1" rx="3.4" ry="1.7"/>
	<ellipse transform="matrix(0.7071 -0.7071 0.7071 0.7071 -1.6802 48.2667)" class="st1" cx="57.4" cy="26.2" rx="3.4" ry="1.7"/>
	<ellipse transform="matrix(0.5 -0.866 0.866 0.5 8.3073 85.58)" class="st3" cx="78.3" cy="35.6" rx="3.4" ry="1.7"/>
	<ellipse transform="matrix(0.5 -0.866 0.866 0.5 0.2238 72.6061)" class="st3" cx="63" cy="36.1" rx="3.4" ry="1.7"/>
	<ellipse transform="matrix(0.2588 -0.9659 0.9659 0.2588 22.4902 86.4671)" class="st1" cx="67.6" cy="28.6" rx="3.4" ry="1.7"/>
	<ellipse transform="matrix(0.2588 -0.9659 0.9659 0.2588 -26.2991 112.3028)" class="st1" cx="60" cy="73.3" rx="3.4" ry="1.7"/>
	<ellipse class="st4" cx="73.7" cy="32.2" rx="1.7" ry="3.4"/>
	<ellipse class="st4" cx="67.3" cy="37.4" rx="1.7" ry="3.4"/>
	<ellipse transform="matrix(0.9659 -0.2588 0.2588 0.9659 -15.1424 22.0672)" class="st1" cx="76.2" cy="68.5" rx="1.7" ry="3.4"/>
	<ellipse transform="matrix(0.866 -0.5 0.5 0.866 -6.0592 39.2278)" class="st1" cx="70.2" cy="30.9" rx="1.7" ry="3.4"/>
	<ellipse transform="matrix(0.992 -0.126 0.126 0.992 -8.5879 9.8037)" class="st2" cx="73.2" cy="72.8" rx="1.7" ry="3.4"/>
	<ellipse transform="matrix(0.992 -0.126 0.126 0.992 -8.1699 9.8419)" class="st2" cx="73.7" cy="69.5" rx="1.7" ry="3.4"/>
	<ellipse transform="matrix(0.5 -0.866 0.866 0.5 -17.4178 101.1072)" class="st4" cx="78.9" cy="65.6" rx="1.7" ry="3.4"/>
	<ellipse transform="matrix(0.2588 -0.9659 0.9659 0.2588 -0.9286 124.2848)" class="st3" cx="80.5" cy="62.7" rx="1.7" ry="3.4"/>
	<ellipse class="st1" cx="83.9" cy="59.1" rx="3.4" ry="1.7"/>
	<ellipse transform="matrix(0.9659 -0.2588 0.2588 0.9659 -10.8232 23.6338)" class="st4" cx="84.3" cy="52.9" rx="3.4" ry="1.7"/>
	<ellipse transform="matrix(0.866 -0.5 0.5 0.866 -17.0223 50.1909)" class="st2" cx="85.1" cy="56.9" rx="3.4" ry="1.7"/>
	<ellipse transform="matrix(0.866 -0.5 0.5 0.866 -18.0244 34.458)" class="st2" cx="55.3" cy="50.9" rx="3.4" ry="1.7"/>
	<ellipse transform="matrix(0.7071 -0.7071 0.7071 0.7071 -10.2147 74.1062)" class="st1" cx="84.3" cy="49.4" rx="3.4" ry="1.7"/>
	<ellipse transform="matrix(0.7071 -0.7071 0.7071 0.7071 -0.5175 57.837)" class="st4" cx="69.6" cy="29.5" rx="3.4" ry="1.7"/>
	<ellipse transform="matrix(0.5 -0.866 0.866 0.5 6.7931 89.0559)" class="st1" cx="80.5" cy="38.6" rx="3.4" ry="1.7"/>
	<ellipse transform="matrix(0.2588 -0.9659 0.9659 0.2588 18.9213 114.9243)" class="st3" cx="84.3" cy="45.1" rx="3.4" ry="1.7"/>
	<ellipse transform="matrix(0.2588 -0.9659 0.9659 0.2588 0.9861 99.5682)" class="st3" cx="65.4" cy="49.1" rx="3.4" ry="1.7"/>
	<ellipse class="st4" cx="52.3" cy="27.7" rx="1.7" ry="3.4"/>
	<ellipse transform="matrix(0.2588 -0.9659 0.9659 0.2588 14.4536 73.7564)" class="st3" cx="55.3" cy="27.5" rx="3.4" ry="1.7"/>
	<ellipse transform="matrix(0.5 -0.866 0.866 0.5 6.7241 68.5617)" class="st4" cx="62.7" cy="28.5" rx="3.4" ry="1.7"/>
	<ellipse transform="matrix(0.7071 -0.7071 0.7071 0.7071 -34.5863 43.1085)" class="st1" cx="34.7" cy="63.3" rx="3.4" ry="1.7"/>
	<ellipse transform="matrix(0.866 -0.5 0.5 0.866 -5.9144 33.2756)" class="st1" cx="59.1" cy="27.7" rx="3.4" ry="1.7"/>
	<ellipse transform="matrix(0.9659 -0.2588 0.2588 0.9659 -9.2016 10.9652)" class="st1" cx="37" cy="40.4" rx="3.4" ry="1.7"/>
	<ellipse transform="matrix(0.1103 -0.9939 0.9939 0.1103 -27.2743 116.1075)" class="st1" cx="51.2" cy="73.3" rx="3.4" ry="1.7"/>
	<ellipse transform="matrix(0.9493 -0.3144 0.3144 0.9493 -20.4688 18.6858)" class="st4" cx="47.7" cy="72.8" rx="1.7" ry="3.4"/>
	<ellipse transform="matrix(0.5 -0.866 0.866 0.5 -9.2586 53.3377)" class="st1" cx="41.6" cy="34.7" rx="1.7" ry="3.4"/>
	<ellipse transform="matrix(0.7071 -0.7071 0.7071 0.7071 -20.4404 37.0474)" class="st3" cx="34.5" cy="43.2" rx="1.7" ry="3.4"/>
	<ellipse transform="matrix(0.7071 -0.7071 0.7071 0.7071 -35.8797 58.9546)" class="st3" cx="53.2" cy="72.8" rx="1.7" ry="3.4"/>
	<ellipse transform="matrix(0.7071 -0.7071 0.7071 0.7071 -1.5867 49.9837)" class="st2" cx="59.5" cy="26.9" rx="1.7" ry="3.4"/>
	<ellipse transform="matrix(0.866 -0.5 0.5 0.866 -12.9862 24.2174)" class="st4" cx="38.7" cy="36.3" rx="1.7" ry="3.4"/>
	<ellipse transform="matrix(0.9659 -0.2588 0.2588 0.9659 -5.6046 13.7776)" class="st1" cx="49.5" cy="28.2" rx="1.7" ry="3.4"/>
	<ellipse transform="matrix(0.9659 -0.2588 0.2588 0.9659 -17.3738 17.5141)" class="st1" cx="57.8" cy="74.7" rx="1.7" ry="3.4"/>
	<ellipse class="st2" cx="42.7" cy="31.1" rx="1.7" ry="3.4"/>
	<ellipse transform="matrix(0.2588 -0.9659 0.9659 0.2588 -38.033 91.2309)" class="st2" cx="40.4" cy="70.4" rx="3.4" ry="1.7"/>
	<ellipse transform="matrix(0.5 -0.866 0.866 0.5 -4.0263 56.3586)" class="st1" cx="46.8" cy="31.7" rx="3.4" ry="1.7"/>
	<ellipse transform="matrix(0.126 -0.992 0.992 0.126 -32.6762 106.3095)" class="st2" cx="44" cy="71.7" rx="3.4" ry="1.7"/>
	<ellipse transform="matrix(0.866 -0.5 0.5 0.866 -28.7348 28.5993)" class="st1" cx="39" cy="67.9" rx="3.4" ry="1.7"/>
	<ellipse transform="matrix(0.9659 -0.2588 0.2588 0.9659 -15.887 11.4337)" class="st4" cx="35.5" cy="66.1" rx="3.4" ry="1.7"/>
	<ellipse class="st2" cx="81.7" cy="55.2" rx="3.4" ry="1.7"/>
	<ellipse transform="matrix(0.2588 -0.9659 0.9659 0.2588 -27.6629 71.2846)" class="st4" cx="32.6" cy="53.7" rx="1.7" ry="3.4"/>
	<ellipse transform="matrix(0.5 -0.866 0.866 0.5 -33.978 56.3586)" class="st1" cx="31.8" cy="57.6" rx="1.7" ry="3.4"/>
	<ellipse transform="matrix(0.7071 -0.7071 0.7071 0.7071 -25.8928 37.7472)" class="st1" cx="32.6" cy="50.1" rx="1.7" ry="3.4"/>
	<ellipse transform="matrix(0.7071 -0.7071 0.7071 0.7071 -7.0261 41.1735)" class="st3" cx="46.2" cy="29.1" rx="1.7" ry="3.4"/>
	<ellipse transform="matrix(0.866 -0.5 0.5 0.866 -14.8127 23.4994)" class="st1" cx="36.4" cy="39.4" rx="1.7" ry="3.4"/>
	<ellipse transform="matrix(0.9659 -0.2588 0.2588 0.9659 -10.7628 10.0056)" class="st2" cx="32.6" cy="45.9" rx="1.7" ry="3.4"/>
	<ellipse class="st1" cx="63" cy="29.9" rx="1.6" ry="3.1"/>
	<ellipse transform="matrix(0.9659 -0.2588 0.2588 0.9659 -5.6405 16.6239)" class="st1" cx="60.3" cy="29.7" rx="1.6" ry="3.1"/>
	<ellipse transform="matrix(0.866 -0.5 0.5 0.866 -8.159 30.8472)" class="st1" cx="53.5" cy="30.6" rx="1.6" ry="3.1"/>
	<ellipse transform="matrix(0.7071 -0.7071 0.7071 0.7071 -21.0845 74.3083)" class="st1" cx="79.2" cy="62.6" rx="1.6" ry="3.1"/>
	<ellipse transform="matrix(0.5 -0.866 0.866 0.5 2.4727 64.1431)" class="st1" cx="56.8" cy="29.9" rx="1.6" ry="3.1"/>
	<ellipse transform="matrix(0.2588 -0.9659 0.9659 0.2588 16.8962 105.2745)" class="st1" cx="77" cy="41.6" rx="1.6" ry="3.1"/>
	<ellipse transform="matrix(0.9939 -0.1103 0.1103 0.9939 -7.5253 7.5033)" class="st1" cx="64" cy="71.8" rx="1.6" ry="3.1"/>
	<ellipse transform="matrix(0.3144 -0.9493 0.9493 0.3144 -22.6411 113.5411)" class="st1" cx="67.3" cy="72.4" rx="3.1" ry="1.6"/>
	<ellipse transform="matrix(0.866 -0.5 0.5 0.866 -8.4137 41.3226)" class="st2" cx="72.9" cy="36.4" rx="3.1" ry="1.6"/>
	<ellipse transform="matrix(0.866 -0.5 0.5 0.866 -26.0024 25.0085)" class="st3" cx="33.7" cy="61" rx="3.1" ry="1.6"/>
	<ellipse transform="matrix(0.7071 -0.7071 0.7071 0.7071 -7.9806 69.0655)" class="st4" cx="79.4" cy="44.2" rx="3.1" ry="1.6"/>
	<ellipse transform="matrix(0.7071 -0.7071 0.7071 0.7071 -32.8724 65.1501)" class="st4" cx="62.2" cy="72.3" rx="3.1" ry="1.6"/>
	<ellipse transform="matrix(0.7071 -0.7071 0.7071 0.7071 -4.1433 48.4504)" class="st1" cx="56.4" cy="29.2" rx="3.1" ry="1.6"/>
	<ellipse transform="matrix(0.5 -0.866 0.866 0.5 4.9611 84.3501)" class="st3" cx="75.5" cy="37.9" rx="3.1" ry="1.6"/>
	<ellipse transform="matrix(0.2588 -0.9659 0.9659 0.2588 18.3499 86.8008)" class="st1" cx="65.7" cy="31.4" rx="3.1" ry="1.6"/>
	<ellipse transform="matrix(0.2588 -0.9659 0.9659 0.2588 -26.394 110.4944)" class="st1" cx="58.8" cy="72.4" rx="3.1" ry="1.6"/>
	<ellipse class="st4" cx="71.3" cy="34.8" rx="1.6" ry="3.1"/>
	<ellipse transform="matrix(0.9659 -0.2588 0.2588 0.9659 -15.1138 21.3868)" class="st1" cx="73.7" cy="68.1" rx="1.6" ry="3.1"/>
	<ellipse transform="matrix(0.866 -0.5 0.5 0.866 -7.6714 38.5522)" class="st1" cx="68.1" cy="33.6" rx="1.6" ry="3.1"/>
	<ellipse transform="matrix(0.992 -0.126 0.126 0.992 -8.5054 9.5052)" class="st2" cx="70.9" cy="72" rx="1.6" ry="3.1"/>
	<ellipse transform="matrix(0.5 -0.866 0.866 0.5 -18.631 98.5898)" class="st4" cx="76.1" cy="65.4" rx="1.6" ry="3.1"/>
	<ellipse transform="matrix(0.2588 -0.9659 0.9659 0.2588 -3.1271 121.4828)" class="st3" cx="77.6" cy="62.8" rx="1.6" ry="3.1"/>
	<ellipse class="st1" cx="80.7" cy="59.4" rx="3.1" ry="1.6"/>
	<ellipse transform="matrix(0.9659 -0.2588 0.2588 0.9659 -11.1527 22.8235)" class="st4" cx="81.1" cy="53.8" rx="3.1" ry="1.6"/>
	<ellipse transform="matrix(0.866 -0.5 0.5 0.866 -17.7254 48.6063)" class="st2" cx="81.8" cy="57.4" rx="3.1" ry="1.6"/>
	<ellipse transform="matrix(0.866 -0.5 0.5 0.866 -14.6688 45.4104)" class="st2" cx="77.4" cy="50.1" rx="3.1" ry="1.6"/>
	<ellipse transform="matrix(0.7071 -0.7071 0.7071 0.7071 -11.9702 72.1474)" class="st1" cx="81.1" cy="50.5" rx="3.1" ry="1.6"/>
	<ellipse transform="matrix(0.7071 -0.7071 0.7071 0.7071 -3.077 57.2272)" class="st4" cx="67.5" cy="32.3" rx="3.1" ry="1.6"/>
	<ellipse transform="matrix(0.5 -0.866 0.866 0.5 3.5725 87.5378)" class="st1" cx="77.6" cy="40.7" rx="3.1" ry="1.6"/>
	<ellipse transform="matrix(0.2588 -0.9659 0.9659 0.2588 15.0769 112.8985)" class="st3" cx="81.1" cy="46.6" rx="3.1" ry="1.6"/>
	<ellipse class="st4" cx="51.7" cy="30.6" rx="1.6" ry="3.1"/>
	<ellipse transform="matrix(0.2588 -0.9659 0.9659 0.2588 10.9797 75.144)" class="st3" cx="54.5" cy="30.4" rx="3.1" ry="1.6"/>
	<ellipse transform="matrix(0.5 -0.866 0.866 0.5 3.5093 68.7429)" class="st4" cx="61.3" cy="31.3" rx="3.1" ry="1.6"/>
	<ellipse transform="matrix(0.7071 -0.7071 0.7071 0.7071 -34.3211 43.7199)" class="st1" cx="35.6" cy="63.3" rx="3.1" ry="1.6"/>
	<ellipse transform="matrix(0.866 -0.5 0.5 0.866 -7.5386 33.0935)" class="st1" cx="58" cy="30.6" rx="3.1" ry="1.6"/>
	<ellipse transform="matrix(0.9659 -0.2588 0.2588 0.9659 -9.6656 11.2053)" class="st1" cx="37.7" cy="42.3" rx="3.1" ry="1.6"/>
	<ellipse transform="matrix(0.1103 -0.9939 0.9939 0.1103 -26.8777 114.8658)" class="st1" cx="50.7" cy="72.4" rx="3.1" ry="1.6"/>
	<ellipse transform="matrix(0.9493 -0.3144 0.3144 0.9493 -20.2272 18.5815)" class="st4" cx="47.5" cy="72" rx="1.6" ry="3.1"/>
	<ellipse transform="matrix(0.5 -0.866 0.866 0.5 -11.1483 54.7811)" class="st1" cx="41.9" cy="37" rx="1.6" ry="3.1"/>
	<ellipse transform="matrix(0.7071 -0.7071 0.7071 0.7071 -21.3481 38.1613)" class="st3" cx="35.4" cy="44.9" rx="1.6" ry="3.1"/>
	<ellipse transform="matrix(0.7071 -0.7071 0.7071 0.7071 -35.5072 58.2521)" class="st3" cx="52.6" cy="72" rx="1.6" ry="3.1"/>
	<ellipse transform="matrix(0.7071 -0.7071 0.7071 0.7071 -4.0576 50.025)" class="st2" cx="58.4" cy="29.9" rx="1.6" ry="3.1"/>
	<ellipse transform="matrix(0.866 -0.5 0.5 0.866 -14.0241 24.7864)" class="st4" cx="39.2" cy="38.6" rx="1.6" ry="3.1"/>
	<ellipse transform="matrix(0.9659 -0.2588 0.2588 0.9659 -6.3668 13.7845)" class="st1" cx="49.2" cy="31.1" rx="1.6" ry="3.1"/>
	<ellipse transform="matrix(0.9659 -0.2588 0.2588 0.9659 -17.1602 17.2112)" class="st1" cx="56.8" cy="73.8" rx="1.6" ry="3.1"/>
	<ellipse class="st2" cx="43" cy="33.7" rx="1.6" ry="3.1"/>
	<ellipse transform="matrix(0.2588 -0.9659 0.9659 0.2588 -37.155 91.1696)" class="st2" cx="40.8" cy="69.8" rx="3.1" ry="1.6"/>
	<ellipse transform="matrix(0.5 -0.866 0.866 0.5 -6.3498 57.5515)" class="st1" cx="46.7" cy="34.3" rx="3.1" ry="1.6"/>
	<ellipse transform="matrix(0.126 -0.992 0.992 0.126 -31.8808 105.7912)" class="st2" cx="44.1" cy="71" rx="3.1" ry="1.6"/>
	<ellipse transform="matrix(0.866 -0.5 0.5 0.866 -28.4668 28.8049)" class="st1" cx="39.5" cy="67.5" rx="3.1" ry="1.6"/>
	<ellipse transform="matrix(0.9659 -0.2588 0.2588 0.9659 -15.7966 11.635)" class="st4" cx="36.3" cy="65.8" rx="3.1" ry="1.6"/>
	<ellipse class="st2" cx="78.6" cy="55.8" rx="3.1" ry="1.6"/>
	<ellipse transform="matrix(0.2588 -0.9659 0.9659 0.2588 -27.6447 72.8772)" class="st4" cx="33.7" cy="54.5" rx="1.6" ry="3.1"/>
	<ellipse transform="matrix(0.2588 -0.9659 0.9659 0.2588 -2.9092 70.2992)" class="st4" cx="44.4" cy="37" rx="1.6" ry="3.1"/>
	<ellipse transform="matrix(0.2588 -0.9659 0.9659 0.2588 24.403 82.1767)" class="st4" cx="65.7" cy="25.2" rx="1.6" ry="3.1"/>
	<ellipse transform="matrix(0.5 -0.866 0.866 0.5 -33.8181 57.5515)" class="st1" cx="32.9" cy="58.1" rx="1.6" ry="3.1"/>
	<ellipse transform="matrix(0.7071 -0.7071 0.7071 0.7071 -26.3484 38.8031)" class="st1" cx="33.7" cy="51.2" rx="1.6" ry="3.1"/>
	<ellipse transform="matrix(0.7071 -0.7071 0.7071 0.7071 -9.046 41.9453)" class="st3" cx="46.1" cy="31.9" rx="1.6" ry="3.1"/>
	<ellipse transform="matrix(0.7071 -0.7071 0.7071 0.7071 -42.2947 65.9091)" class="st3" cx="58.4" cy="84" rx="1.6" ry="3.1"/>
	<ellipse transform="matrix(0.866 -0.5 0.5 0.866 -15.6991 24.1279)" class="st1" cx="37.2" cy="41.4" rx="1.6" ry="3.1"/>
	<ellipse transform="matrix(0.9659 -0.2588 0.2588 0.9659 -11.0973 10.3252)" class="st2" cx="33.7" cy="47.3" rx="1.6" ry="3.1"/>
	<ellipse transform="matrix(0.9659 -0.2588 0.2588 0.9659 -8.5835 9.9627)" class="st2" cx="33.5" cy="37.6" rx="1.6" ry="3.1"/>
	<ellipse transform="matrix(0.2588 -0.9659 0.9659 0.2588 -38.5985 80.9715)" class="st2" cx="33.5" cy="65.6" rx="4.5" ry="2.3"/>
</g>
</svg>
