<?xml version="1.0" encoding="utf-8"?>
<!-- Generator: Adobe Illustrator 23.1.1, SVG Export Plug-In . SVG Version: 6.00 Build 0)  -->
<svg version="1.1" id="Layer_1" xmlns="http://www.w3.org/2000/svg" xmlns:xlink="http://www.w3.org/1999/xlink" x="0px" y="0px"
	 viewBox="0 0 108 108" style="enable-background:new 0 0 108 108;" xml:space="preserve">
<style type="text/css">
	.st0{fill:#7CB442;}
	.st1{fill:#62A944;}
	.st2{fill:#5A9B43;}
	.st3{fill:#5DA044;}
	.st4{fill:#4F9A44;}
	.st5{fill:#609A42;}
	.st6{fill:#6D9D40;}
	.st7{fill:#5C9E43;}
	.st8{fill:#ED4193;}
	.st9{fill:#EB2227;}
	.st10{fill:#F59BB6;}
	.st11{fill:#F17FA7;}
	.st12{fill:#EF69A5;}
	.st13{fill:#E392AA;}
	.st14{fill:#F6ACCC;}
</style>
<g>
	<circle class="st0" cx="34.93" cy="41.39" r="7.86"/>
	<circle class="st0" cx="41.79" cy="34.03" r="7.86"/>
	<circle class="st0" cx="49.66" cy="29.49" r="7.86"/>
	<circle class="st0" cx="63.15" cy="37.61" r="7.86"/>
	<circle class="st0" cx="72.03" cy="39.24" r="7.86"/>
	<circle class="st0" cx="79.68" cy="56.88" r="7.86"/>
	<circle class="st0" cx="72.03" cy="57.67" r="7.86"/>
	<circle class="st0" cx="78.24" cy="65.86" r="7.86"/>
	<circle class="st0" cx="65.06" cy="77.73" r="7.86"/>
	<circle class="st0" cx="51.67" cy="79.15" r="7.86"/>
	<circle class="st0" cx="32.21" cy="71.84" r="7.86"/>
	<circle class="st0" cx="29.3" cy="61.01" r="7.86"/>
	<circle class="st0" cx="41.23" cy="43.99" r="7.86"/>
	<circle class="st0" cx="53.58" cy="46.6" r="7.86"/>
	<circle class="st0" cx="65.06" cy="50.62" r="7.86"/>
	<circle class="st0" cx="65.06" cy="61.01" r="7.86"/>
	<circle class="st0" cx="55.44" cy="68.03" r="7.86"/>
	<circle class="st0" cx="41.99" cy="67.16" r="7.86"/>
	<circle class="st0" cx="43.8" cy="68.86" r="7.86"/>
	<circle class="st0" cx="39.91" cy="56.39" r="7.86"/>
	<g>
		<path class="st1" d="M43.08,87.91c0.13-0.04,0.21-0.07,0.3-0.09c1.71-0.39,3-1.35,3.92-2.83c0.41-0.65,0.79-1.31,1.23-1.94
			c1.17-1.69,2.54-2.21,4.55-1.77c0.36,0.08,0.71,0.17,1.09,0.27c0.41-0.96,0.58-1.95,0.73-3.01c0.36,0.09,0.69,0.16,1.02,0.26
			c0.08,0.03,0.14,0.16,0.18,0.26c0.12,0.31,0.24,0.62,0.34,0.93c0.08,0.23,0.18,0.27,0.43,0.2c0.47-0.14,0.95-0.26,1.44-0.29
			c0.71-0.05,1.27,0.33,1.73,0.84c0.33,0.37,0.64,0.75,0.93,1.14c0.69,0.93,1.59,1.49,2.74,1.65c0.04,0.01,0.08,0.02,0.13,0.04
			c-0.01,0.04-0.01,0.09-0.03,0.1c-1.65,1.23-3.45,1.83-5.5,1.23c-1.24-0.37-2.07-1.36-2.18-2.55c-0.01-0.1,0-0.2-0.01-0.36
			c1.61,1.33,3.35,2.14,5.45,1.85c-2.59-0.17-4.57-1.34-5.93-3.67c-0.66,2.07-1.71,3.8-3.3,5.18c-1.58,1.38-3.44,2.19-5.5,2.54
			c1.62-0.01,3.14-0.43,4.56-1.18c1.43-0.75,2.59-1.82,3.55-3.22c0.2,0.92,0.2,1.75-0.07,2.58c-0.44,1.39-1.39,2.31-2.68,2.92
			c-1,0.47-2.07,0.72-3.18,0.72c-2.07-0.01-3.99-0.57-5.75-1.65C43.23,88.05,43.18,87.99,43.08,87.91z"/>
	</g>
	<path class="st2" d="M87.36,59.13c-0.54,0.53-1.08,1.04-1.6,1.58c-0.8,0.84-1.59,1.68-2.57,2.32c-1.22,0.8-3.11,1.34-4.41,1.2
		c0.07-0.57,0.1-1.15,0.23-1.71c0.37-1.72,1.39-2.98,2.85-3.91c1.47-0.93,3.09-1.43,4.79-1.67c1.24-0.17,2.5-0.22,3.76-0.32
		c0.12-0.01,0.24,0,0.36,0c0,0.07,0.02,0.1,0.01,0.11c-0.84,0.9-1.2,2.03-1.6,3.15c-0.43,1.22-0.82,2.46-1.38,3.61
		c-0.98,2.01-2.6,3.28-4.86,3.61c-1.13,0.16-2.24,0.03-3.26-0.53c-0.02-0.01-0.05-0.02-0.06-0.03c-0.54-0.67-1.27-0.55-1.99-0.49
		c-0.53,0.05-0.68-0.11-0.71-0.75c0.44,0,0.89,0.01,1.33,0c2.72-0.08,5-1.11,6.75-3.21c0.81-0.97,1.6-1.97,2.39-2.95
		C87.38,59.15,87.37,59.14,87.36,59.13z"/>
	<path class="st2" d="M66.45,27.85c-0.18,0.73-0.39,1.45-0.55,2.18c-0.25,1.13-0.49,2.26-0.99,3.31c-0.63,1.31-1.96,2.75-3.15,3.32
		c-0.23-0.53-0.51-1.04-0.69-1.58c-0.57-1.66-0.36-3.27,0.41-4.82c0.77-1.55,1.9-2.83,3.23-3.91c0.97-0.79,2.03-1.49,3.05-2.22
		c0.1-0.07,0.21-0.13,0.31-0.19c0.04,0.06,0.07,0.08,0.06,0.09c-0.25,1.2,0.03,2.36,0.27,3.53c0.26,1.26,0.57,2.53,0.69,3.81
		c0.21,2.23-0.51,4.15-2.28,5.61c-0.88,0.73-1.89,1.19-3.06,1.24c-0.02,0-0.05,0.01-0.07,0c-0.81-0.29-1.37,0.18-1.95,0.62
		c-0.43,0.32-0.64,0.26-1-0.27c0.38-0.23,0.76-0.45,1.14-0.69c2.28-1.48,3.7-3.54,4.1-6.25c0.19-1.25,0.34-2.51,0.51-3.76
		C66.48,27.86,66.47,27.85,66.45,27.85z"/>
	<path class="st1" d="M66.44,49.08c-0.54,0.53-1.08,1.04-1.6,1.58c-0.8,0.84-1.59,1.68-2.57,2.32c-1.22,0.8-3.11,1.34-4.41,1.2
		c0.07-0.57,0.1-1.15,0.23-1.71c0.37-1.72,1.39-2.98,2.85-3.91c1.47-0.93,3.09-1.43,4.79-1.67c1.24-0.17,2.5-0.22,3.76-0.32
		c0.12-0.01,0.24,0,0.36,0c0,0.07,0.02,0.1,0.01,0.11c-0.84,0.9-1.2,2.03-1.6,3.15c-0.43,1.22-0.82,2.46-1.38,3.61
		c-0.98,2.01-2.6,3.28-4.86,3.61c-1.13,0.16-2.24,0.03-3.26-0.53c-0.02-0.01-0.05-0.02-0.06-0.03c-0.54-0.67-1.27-0.55-1.99-0.49
		c-0.53,0.05-0.68-0.11-0.71-0.75c0.44,0,0.89,0.01,1.33,0c2.72-0.08,5-1.11,6.75-3.21c0.81-0.97,1.6-1.97,2.39-2.95
		C66.46,49.09,66.45,49.09,66.44,49.08z"/>
	<path class="st3" d="M42.88,43.81c0.63,0.41,1.24,0.84,1.88,1.23c0.98,0.61,1.97,1.2,2.8,2.02c1.03,1.02,1.96,2.76,2.1,4.06
		c-0.57,0.05-1.15,0.14-1.72,0.14c-1.76,0-3.21-0.73-4.42-1.97c-1.21-1.24-2.05-2.72-2.64-4.33c-0.43-1.18-0.74-2.4-1.1-3.61
		c-0.03-0.12-0.05-0.24-0.08-0.35c0.07-0.02,0.09-0.04,0.11-0.03c1.05,0.63,2.24,0.75,3.42,0.9c1.28,0.17,2.57,0.29,3.82,0.59
		c2.17,0.54,3.75,1.85,4.55,3.99c0.4,1.07,0.5,2.18,0.17,3.3c-0.01,0.02-0.01,0.05-0.02,0.06c-0.54,0.67-0.28,1.35-0.06,2.05
		c0.16,0.51,0.03,0.69-0.58,0.85c-0.09-0.43-0.17-0.87-0.28-1.3c-0.65-2.64-2.13-4.65-4.55-5.93c-1.12-0.59-2.26-1.15-3.39-1.72
		C42.89,43.79,42.88,43.8,42.88,43.81z"/>
	<path class="st4" d="M72.24,56.52c-0.54,0.53-1.08,1.04-1.6,1.58c-0.8,0.84-1.59,1.68-2.57,2.32c-1.22,0.8-3.11,1.34-4.41,1.2
		c0.07-0.57,0.1-1.15,0.23-1.71c0.37-1.72,1.39-2.98,2.85-3.91c1.47-0.93,3.09-1.43,4.79-1.67c1.24-0.17,2.5-0.22,3.76-0.32
		c0.12-0.01,0.24,0,0.36,0c0,0.07,0.02,0.1,0.01,0.11c-0.84,0.9-1.2,2.03-1.6,3.15c-0.43,1.22-0.82,2.46-1.38,3.61
		c-0.98,2.01-2.6,3.28-4.86,3.61c-1.13,0.16-2.24,0.03-3.26-0.53c-0.02-0.01-0.05-0.02-0.06-0.03c-0.54-0.67-1.27-0.55-1.99-0.49
		c-0.53,0.05-0.68-0.11-0.71-0.75c0.44,0,0.89,0.01,1.33,0c2.72-0.08,5-1.11,6.75-3.21c0.81-0.97,1.6-1.97,2.39-2.95
		C72.26,56.54,72.25,56.53,72.24,56.52z"/>
	<path class="st5" d="M36.65,33.02c0.62,0.43,1.22,0.87,1.85,1.28c0.97,0.63,1.94,1.25,2.76,2.09c1.01,1.05,1.89,2.8,2.01,4.11
		c-0.57,0.04-1.15,0.11-1.72,0.1c-1.76-0.04-3.19-0.81-4.37-2.07c-1.18-1.27-1.98-2.77-2.53-4.39c-0.4-1.19-0.68-2.42-1.01-3.63
		c-0.03-0.12-0.05-0.24-0.07-0.35c0.07-0.02,0.09-0.03,0.11-0.03c1.04,0.65,2.22,0.8,3.4,0.98c1.27,0.2,2.57,0.35,3.81,0.68
		c2.16,0.59,3.71,1.94,4.45,4.1c0.37,1.08,0.45,2.19,0.09,3.3c-0.01,0.02-0.01,0.05-0.02,0.06c-0.56,0.66-0.31,1.35-0.11,2.05
		c0.15,0.51,0.02,0.69-0.6,0.84c-0.08-0.44-0.15-0.87-0.25-1.31c-0.59-2.66-2.02-4.7-4.41-6.03c-1.11-0.62-2.23-1.2-3.35-1.8
		C36.66,33,36.65,33.01,36.65,33.02z"/>
	<path class="st6" d="M34.76,61.31c0.62,0.43,1.22,0.87,1.85,1.28c0.97,0.63,1.94,1.25,2.76,2.09c1.01,1.05,1.89,2.8,2.01,4.11
		c-0.57,0.04-1.15,0.11-1.72,0.1c-1.76-0.04-3.19-0.81-4.37-2.07c-1.18-1.27-1.98-2.77-2.53-4.39c-0.4-1.19-0.68-2.42-1.01-3.63
		c-0.03-0.12-0.05-0.24-0.07-0.35c0.07-0.02,0.09-0.03,0.11-0.03c1.04,0.65,2.22,0.8,3.4,0.98c1.27,0.2,2.57,0.35,3.81,0.68
		c2.16,0.59,3.71,1.94,4.45,4.1c0.37,1.08,0.45,2.19,0.09,3.3c-0.01,0.02-0.01,0.05-0.02,0.06c-0.56,0.66-0.31,1.35-0.11,2.05
		c0.15,0.51,0.02,0.69-0.6,0.84c-0.08-0.44-0.15-0.87-0.25-1.31c-0.59-2.66-2.02-4.7-4.41-6.03c-1.11-0.62-2.23-1.2-3.35-1.8
		C34.77,61.29,34.77,61.3,34.76,61.31z"/>
	<path class="st1" d="M71.54,61.47c0.62,0.43,1.22,0.87,1.85,1.28c0.97,0.63,1.94,1.25,2.76,2.09c1.01,1.05,1.89,2.8,2.01,4.11
		c-0.57,0.04-1.15,0.11-1.72,0.1c-1.76-0.04-3.19-0.81-4.37-2.07c-1.18-1.27-1.98-2.77-2.53-4.39c-0.4-1.19-0.68-2.42-1.01-3.63
		c-0.03-0.12-0.05-0.24-0.07-0.35c0.07-0.02,0.09-0.03,0.11-0.03c1.04,0.65,2.22,0.8,3.4,0.98c1.27,0.2,2.57,0.35,3.81,0.68
		c2.16,0.59,3.71,1.94,4.45,4.1c0.37,1.08,0.45,2.19,0.09,3.3c-0.01,0.02-0.01,0.05-0.02,0.06c-0.56,0.66-0.31,1.35-0.11,2.05
		c0.15,0.51,0.02,0.69-0.6,0.84c-0.08-0.44-0.15-0.87-0.25-1.31c-0.59-2.66-2.02-4.7-4.41-6.03c-1.11-0.62-2.23-1.2-3.35-1.8
		C71.55,61.45,71.55,61.46,71.54,61.47z"/>
	<path class="st1" d="M80.93,31.72c-0.11,0.04-0.23,0.08-0.33,0.13c-1.9,0.88-3.46,2.21-4.89,3.71c-0.32,0.34-0.63,0.7-0.94,1.05
		c-0.68,0.76-1.76,0.62-2.22-0.29c-0.32-0.63-0.25-1.26,0.04-1.88c0.42-0.9,1.12-1.56,1.92-2.11c2.3-1.6,4.85-2.3,7.64-2.16
		c0.31,0.02,0.45,0.12,0.46,0.44c0.09,3.16-0.8,5.98-2.92,8.36c-0.4,0.45-0.93,0.83-1.46,1.11c-1.04,0.55-1.97,0.29-2.68-0.66
		c-0.03-0.04-0.05-0.08-0.1-0.15c-0.28,0.5-0.54,0.96-0.8,1.42c-0.25,0.44-0.25,0.45-0.75,0.31c-0.16-0.04-0.32-0.1-0.5-0.16
		c1.94-3.55,4.2-6.77,7.61-9.04C80.98,31.78,80.95,31.75,80.93,31.72z"/>
	<path class="st1" d="M43.68,23.47c0.21,0.24,0.42,0.48,0.62,0.72c2.49,2.9,4.55,6.07,5.93,9.65c0.07,0.19,0.14,0.39,0.21,0.58
		c0.07,0.2,0.03,0.32-0.22,0.28c-0.01,0-0.02,0-0.03-0.01c-0.87-0.08-0.87-0.08-1.12-0.92c-0.08-0.27-0.17-0.54-0.25-0.78
		c-0.46,0.03-0.9,0.11-1.32,0.06c-1.12-0.12-1.92-0.8-2.61-1.63c-1.09-1.3-1.78-2.82-2.32-4.4c-0.67-1.97-1.06-3.99-1.07-6.08
		c0-0.12,0.01-0.24,0.02-0.41c0.18,0.08,0.32,0.12,0.45,0.19c2.94,1.43,5.52,3.32,7.49,5.97c0.68,0.91,1.17,1.91,1.25,3.07
		c0.05,0.66-0.17,1.41-0.56,1.88c-1.73-3.06-3.76-5.89-6.4-8.23C43.73,23.43,43.71,23.45,43.68,23.47z"/>
	<path class="st1" d="M37.38,37.58c-1.62-1.42-3.47-2.04-5.53-2.05c-1.8-0.01-3.43,0.56-4.95,1.51c0.12-0.04,0.23-0.09,0.35-0.13
		c1.68-0.7,3.43-1.11,5.26-0.87c3.03,0.39,5.03,2.05,6.02,4.94c0.02,0.06,0.04,0.13,0.05,0.2c0.01,0.03-0.01,0.07-0.03,0.16
		c-0.33-0.06-0.67-0.11-0.99-0.2c-0.09-0.03-0.16-0.18-0.2-0.29c-0.14-0.34-0.27-0.68-0.39-1.02c-0.07-0.21-0.18-0.22-0.39-0.2
		c-1.06,0.13-2.13,0.29-3.2,0.33c-1.31,0.05-2.55-0.35-3.79-0.71c-0.69-0.2-1.38-0.4-2.09-0.55c-1.21-0.26-2.34,0.04-3.4,0.64
		c-0.09,0.05-0.18,0.1-0.27,0.15c-0.02,0.01-0.04,0-0.13,0c0.17-0.42,0.32-0.81,0.5-1.2c0.72-1.56,1.67-2.95,3.15-3.89
		c1.61-1.02,3.35-1.2,5.18-0.79c1.48,0.33,2.74,1.05,3.73,2.21c0.41,0.48,0.72,1.05,1.07,1.58C37.36,37.41,37.36,37.47,37.38,37.58z
		"/>
	<g>
		<path class="st2" d="M19.23,63.79c2.13-1.09,4.42-1.56,6.81-1.55c1.33,0,2.64,0.19,3.92,0.56c-0.27,1.83-1.47,3.43-3.37,3.89
			c-1.6,0.39-3.18,0.21-4.74-0.24c-1.21-0.35-2.42-0.71-3.69-0.76c-0.57-0.02-1.13,0-1.76,0c0.15-0.27,0.27-0.53,0.42-0.77
			c1.11-1.83,2.33-3.56,4-4.93c1.23-1.01,2.59-1.77,4.23-1.84c2.39-0.1,4.27,1.61,4.83,3.54C26.07,61.1,22.48,61.57,19.23,63.79z"/>
		<path class="st2" d="M30.16,70.58c0.14-0.23,0.28-0.45,0.4-0.68c0.75-1.49,1.01-3,0.26-4.58c-0.02-0.04-0.03-0.09-0.06-0.12
			c-0.4-0.42-0.32-0.86-0.13-1.36c0.2-0.55,0.27-1.14,0.4-1.76c0.08,0.04,0.21,0.09,0.33,0.16c0.92,0.57,1.68,1.3,2.12,2.29
			c0.8,1.79,0.62,3.51-0.55,5.1c-1.13,1.53-2.7,2.46-4.47,3.29c0.45-2.05-0.7-3.67-1.27-5.46c1.06-0.38,1.94-0.98,2.62-1.93
			c0.64,0.74,0.87,1.56,0.87,2.48c0,0.89-0.25,1.73-0.6,2.54C30.1,70.56,30.13,70.57,30.16,70.58z"/>
	</g>
	<g>
		<path class="st1" d="M65.34,84.59c0.9-2.22,2.32-4.07,4.14-5.63c1.01-0.87,2.12-1.58,3.33-2.14c1,1.55,1.13,3.56,0,5.15
			c-0.96,1.35-2.27,2.24-3.74,2.92c-1.14,0.53-2.29,1.04-3.28,1.84c-0.44,0.36-0.86,0.74-1.33,1.16c-0.07-0.3-0.14-0.58-0.19-0.86
			c-0.36-2.11-0.57-4.22-0.2-6.35c0.27-1.57,0.8-3.03,2-4.16c1.74-1.64,4.29-1.58,5.97-0.48C68.75,78.08,66.35,80.79,65.34,84.59z"
			/>
		<path class="st1" d="M78.05,82.58c-0.05-0.26-0.08-0.53-0.14-0.78c-0.4-1.62-1.2-2.93-2.8-3.63c-0.04-0.02-0.08-0.05-0.13-0.05
			c-0.58-0.06-0.8-0.44-0.99-0.94c-0.21-0.55-0.55-1.04-0.84-1.59c0.09-0.02,0.22-0.07,0.36-0.1c1.07-0.17,2.12-0.12,3.11,0.35
			c1.78,0.84,2.77,2.25,2.92,4.22c0.15,1.9-0.43,3.63-1.23,5.41c-1-1.84-2.93-2.32-4.54-3.3c0.55-0.98,0.82-2.01,0.72-3.18
			c0.96,0.14,1.68,0.61,2.28,1.31c0.58,0.68,0.94,1.47,1.21,2.32C77.99,82.6,78.02,82.59,78.05,82.58z"/>
	</g>
	<g>
		<path class="st3" d="M69.11,40.13c-1.3,2.02-3.04,3.57-5.12,4.76c-1.15,0.66-2.38,1.16-3.67,1.48c-0.69-1.71-0.45-3.71,0.96-5.06
			c1.19-1.14,2.65-1.78,4.22-2.17c1.22-0.31,2.45-0.59,3.57-1.19c0.5-0.27,0.98-0.57,1.52-0.89c0.01,0.31,0.03,0.59,0.02,0.88
			c-0.04,2.14-0.23,4.25-0.99,6.27c-0.56,1.5-1.35,2.83-2.74,3.71c-2.02,1.29-4.51,0.75-5.95-0.64
			C64.53,45.89,67.41,43.67,69.11,40.13z"/>
		<path class="st3" d="M56.24,39.73c0,0.27-0.02,0.53-0.01,0.79c0.09,1.66,0.63,3.1,2.07,4.09c0.04,0.03,0.07,0.06,0.11,0.07
			c0.56,0.17,0.71,0.58,0.8,1.11c0.1,0.57,0.34,1.12,0.53,1.72c-0.09,0.01-0.23,0.03-0.37,0.03c-1.08-0.03-2.11-0.28-2.99-0.92
			c-1.59-1.15-2.3-2.72-2.08-4.69c0.21-1.89,1.1-3.48,2.22-5.08c0.64,2,2.44,2.82,3.84,4.09c-0.72,0.86-1.19,1.82-1.3,2.99
			c-0.92-0.32-1.54-0.91-1.99-1.71c-0.44-0.77-0.65-1.62-0.75-2.5C56.3,39.72,56.27,39.73,56.24,39.73z"/>
	</g>
	<g>
		<path class="st7" d="M53.31,78.17c0.02-2.4,0.67-4.64,1.78-6.76c0.62-1.18,1.39-2.25,2.31-3.21c1.5,1.08,2.36,2.89,1.89,4.79
			c-0.4,1.6-1.29,2.91-2.41,4.09C56.01,78,55.13,78.9,54.5,80c-0.28,0.49-0.52,1.01-0.81,1.56c-0.17-0.25-0.34-0.49-0.49-0.73
			C52.09,79,51.12,77.11,50.68,75c-0.33-1.56-0.37-3.11,0.33-4.6c1.02-2.16,3.41-3.04,5.38-2.64C54.1,70.86,52.85,74.27,53.31,78.17
			z"/>
		<path class="st7" d="M64.4,71.64c-0.14-0.23-0.27-0.46-0.42-0.68c-0.97-1.36-2.19-2.29-3.93-2.35c-0.05,0-0.09-0.01-0.14,0
			c-0.56,0.16-0.91-0.11-1.27-0.51c-0.39-0.43-0.89-0.77-1.37-1.17c0.07-0.05,0.18-0.15,0.3-0.22c0.93-0.55,1.93-0.89,3.02-0.82
			c1.96,0.13,3.4,1.08,4.27,2.86c0.83,1.71,0.93,3.53,0.84,5.48c-1.61-1.35-3.57-1.08-5.43-1.41c0.15-1.11,0.03-2.17-0.5-3.22
			c0.95-0.22,1.79-0.05,2.6,0.38c0.79,0.42,1.41,1.02,1.97,1.71C64.35,71.68,64.37,71.66,64.4,71.64z"/>
	</g>
	<g>
		<path class="st8" d="M52.85,28.59c-1.66-0.79-4.38,0.58-3.49,2.68c1.54,1.92,3.16,1.65,4.36,1.21
			C54.43,30.58,53.83,29.06,52.85,28.59z"/>
		<path class="st9" d="M52.39,24.41c-0.04-0.06-0.09-0.11-0.13-0.16c-0.06,0.05-0.11,0.1-0.17,0.14
			C52.19,24.39,52.29,24.4,52.39,24.41z"/>
		<path class="st9" d="M53.49,32.29c0.01,0,0.02-0.01,0.03-0.01c-0.01,0-0.01,0-0.02,0C53.49,32.28,53.49,32.29,53.49,32.29z"/>
		<path class="st9" d="M53.49,32.29c0.01,0,0.02-0.01,0.03-0.01c-0.01,0-0.01,0-0.02,0C53.49,32.28,53.49,32.29,53.49,32.29z"/>
		<path class="st10" d="M62.78,30.03c-0.09,0.57-0.25,1.13-0.49,1.65c-1.02,2.21-2.92,3.97-5.06,4.48c0,0,0.01,0,0.01,0.01
			c-2.84,1.65-5.1,1.92-6.83,1.37c-1.5,0.88-2.83,1.26-3.99,1.27c1.12,2.73,7.5,5.29,10.89,0.51
			C61.68,40.16,67.02,36.03,62.78,30.03z"/>
		<path class="st11" d="M49.76,37.28c-0.82-0.39-1.49-0.97-2.04-1.66c-3.49-1.47-4.87-4.11-4.92-6.68
			c-3.15,2.26-1.66,9.92,3.62,9.87c1.15-0.01,2.48-0.39,3.99-1.27C50.18,37.46,49.96,37.38,49.76,37.28z"/>
		<path class="st12" d="M57.23,36.16c-0.15,0.04-0.3,0.06-0.45,0.09c-2.46,0.38-5.16-0.92-7.18-5.05c0.03,0.01-0.03-0.01,0,0
			c-1.27-3,5.48-4.36,3.9,1.08c0.01,0,0.01,0,0.02,0c2.73-1.22,3.59-2.89,3.31-4.39c-0.32-1.77-2.22-3.28-4.44-3.48
			c-0.1-0.01-0.2-0.02-0.3-0.02c-1.8-0.07-3.76,0.74-5.25,2.96c-0.52,0.78-0.79,1.91-0.79,3.15c0,1.74,0.54,3.68,1.67,5.12
			c0.54,0.7,1.22,1.28,2.04,1.66c0.21,0.1,0.43,0.18,0.66,0.26c1.73,0.55,3.99,0.28,6.83-1.37C57.24,36.16,57.23,36.16,57.23,36.16z
			"/>
		<path class="st10" d="M52.25,24.25c1.46-1.22,2.82-1.87,4.06-2.07c-2.28-2.24-5.14-1.45-7.23-0.09
			C50.13,22.32,51.22,23,52.25,24.25z"/>
		<path class="st13" d="M49.08,22.08c-3.36-0.76-6.35,2.96-6.28,6.85c0.05,2.57,1.43,5.2,4.92,6.68c-1.12-1.44-1.66-3.38-1.67-5.12
			c0-1.23,0.27-2.36,0.79-3.15c0.79-1.18,1.71-1.96,2.68-2.42c0.85-0.41,1.73-0.57,2.57-0.54c0.06-0.05,0.11-0.1,0.17-0.14
			C51.22,23,50.13,22.32,49.08,22.08z"/>
		<path class="st14" d="M56.32,22.18c-1.24,0.2-2.61,0.85-4.06,2.07c0.04,0.05,0.09,0.11,0.13,0.16c1.75,0.16,3.29,1.13,4.03,2.4
			c0.2,0.34,0.34,0.71,0.41,1.08c0.27,1.49-0.58,3.17-3.31,4.39c-0.01,0-0.02,0.01-0.03,0.01c0,0,0-0.01,0-0.01
			c-0.99,0.37-2.43,0.65-3.74-0.92c-0.02-0.03-0.13-0.14-0.16-0.16c2.02,4.13,4.73,5.43,7.18,5.05c0.15-0.02,0.3-0.05,0.45-0.09
			c2.14-0.51,4.04-2.27,5.06-4.48c0.24-0.52,0.4-1.08,0.49-1.65C63.4,26.11,60.65,21.46,56.32,22.18z"/>
	</g>
	<g>
		<path class="st8" d="M26.09,44.82c-1.66-0.79-4.38,0.58-3.49,2.68c1.54,1.92,3.16,1.65,4.36,1.21
			C27.67,46.81,27.07,45.29,26.09,44.82z"/>
		<path class="st9" d="M25.63,40.64c-0.04-0.06-0.09-0.11-0.13-0.16c-0.06,0.05-0.11,0.1-0.17,0.14
			C25.43,40.62,25.53,40.63,25.63,40.64z"/>
		<path class="st9" d="M26.73,48.52c0.01,0,0.02-0.01,0.03-0.01c-0.01,0-0.01,0-0.02,0C26.74,48.51,26.74,48.51,26.73,48.52z"/>
		<path class="st9" d="M26.73,48.52c0.01,0,0.02-0.01,0.03-0.01c-0.01,0-0.01,0-0.02,0C26.74,48.51,26.74,48.51,26.73,48.52z"/>
		<path class="st10" d="M36.02,46.26c-0.09,0.57-0.25,1.13-0.49,1.65c-1.02,2.21-2.92,3.97-5.06,4.48c0,0,0.01,0,0.01,0.01
			c-2.84,1.65-5.1,1.92-6.83,1.37c-1.5,0.88-2.83,1.26-3.99,1.27c1.12,2.73,7.5,5.29,10.89,0.51
			C34.93,56.39,40.27,52.26,36.02,46.26z"/>
		<path class="st11" d="M23,53.5c-0.82-0.39-1.49-0.97-2.04-1.66c-3.49-1.47-4.87-4.11-4.92-6.68c-3.15,2.26-1.66,9.92,3.62,9.87
			c1.15-0.01,2.48-0.39,3.99-1.27C23.43,53.69,23.21,53.6,23,53.5z"/>
		<path class="st12" d="M30.47,52.39c-0.15,0.04-0.3,0.06-0.45,0.09c-2.46,0.38-5.16-0.92-7.18-5.05c0.03,0.01-0.03-0.01,0,0
			c-1.27-3,5.48-4.36,3.9,1.08c0.01,0,0.01,0,0.02,0c2.73-1.22,3.59-2.89,3.31-4.39c-0.32-1.77-2.22-3.28-4.44-3.48
			c-0.1-0.01-0.2-0.02-0.3-0.02c-1.8-0.07-3.76,0.74-5.25,2.96c-0.52,0.78-0.79,1.91-0.79,3.15c0,1.74,0.54,3.68,1.67,5.12
			c0.54,0.7,1.22,1.28,2.04,1.66c0.21,0.1,0.43,0.18,0.66,0.26c1.73,0.55,3.99,0.28,6.83-1.37C30.48,52.39,30.48,52.39,30.47,52.39z
			"/>
		<path class="st10" d="M25.5,40.47c1.46-1.22,2.82-1.87,4.06-2.07c-2.28-2.24-5.14-1.45-7.23-0.09
			C23.38,38.55,24.46,39.23,25.5,40.47z"/>
		<path class="st13" d="M22.33,38.31c-3.36-0.76-6.35,2.96-6.28,6.85c0.05,2.57,1.43,5.2,4.92,6.68c-1.12-1.44-1.66-3.38-1.67-5.12
			c0-1.23,0.27-2.36,0.79-3.15c0.79-1.18,1.71-1.96,2.68-2.42c0.85-0.41,1.73-0.57,2.57-0.54c0.06-0.05,0.11-0.1,0.17-0.14
			C24.46,39.23,23.38,38.55,22.33,38.31z"/>
		<path class="st14" d="M29.56,38.4c-1.24,0.2-2.61,0.85-4.06,2.07c0.04,0.05,0.09,0.11,0.13,0.16c1.75,0.16,3.29,1.13,4.03,2.4
			c0.2,0.34,0.34,0.71,0.41,1.08c0.27,1.49-0.58,3.17-3.31,4.39c-0.01,0-0.02,0.01-0.03,0.01c0,0,0-0.01,0-0.01
			c-0.99,0.37-2.43,0.65-3.74-0.92c-0.02-0.03-0.13-0.14-0.16-0.16c2.02,4.13,4.73,5.43,7.18,5.05c0.15-0.02,0.3-0.05,0.45-0.09
			c2.14-0.51,4.04-2.27,5.06-4.48c0.24-0.52,0.4-1.08,0.49-1.65C36.65,42.34,33.9,37.69,29.56,38.4z"/>
	</g>
	<g>
		<path class="st8" d="M42.09,78.78c-1.66-0.79-4.38,0.58-3.49,2.68c1.54,1.92,3.16,1.65,4.36,1.21
			C43.66,80.77,43.06,79.25,42.09,78.78z"/>
		<path class="st9" d="M41.62,74.6c-0.04-0.06-0.09-0.11-0.13-0.16c-0.06,0.05-0.11,0.1-0.17,0.14
			C41.42,74.58,41.52,74.59,41.62,74.6z"/>
		<path class="st9" d="M42.73,82.48c0.01,0,0.02-0.01,0.03-0.01c-0.01,0-0.01,0-0.02,0C42.73,82.47,42.73,82.47,42.73,82.48z"/>
		<path class="st9" d="M42.73,82.48c0.01,0,0.02-0.01,0.03-0.01c-0.01,0-0.01,0-0.02,0C42.73,82.47,42.73,82.47,42.73,82.48z"/>
		<path class="st10" d="M52.01,80.22c-0.09,0.57-0.25,1.13-0.49,1.65c-1.02,2.21-2.92,3.97-5.06,4.48c0,0,0.01,0,0.01,0.01
			c-2.84,1.65-5.1,1.92-6.83,1.37c-1.5,0.88-2.83,1.26-3.99,1.27c1.12,2.73,7.5,5.29,10.89,0.51
			C50.92,90.35,56.26,86.22,52.01,80.22z"/>
		<path class="st11" d="M38.99,87.47c-0.82-0.39-1.49-0.97-2.04-1.66c-3.49-1.47-4.87-4.11-4.92-6.68
			c-3.15,2.26-1.66,9.92,3.62,9.87c1.15-0.01,2.48-0.39,3.99-1.27C39.42,87.65,39.2,87.56,38.99,87.47z"/>
		<path class="st12" d="M46.47,86.35c-0.15,0.04-0.3,0.06-0.45,0.09c-2.46,0.38-5.16-0.92-7.18-5.05c0.03,0.01-0.03-0.01,0,0
			c-1.27-3,5.48-4.36,3.9,1.08c0.01,0,0.01,0,0.02,0c2.73-1.22,3.59-2.89,3.31-4.39c-0.32-1.77-2.22-3.28-4.44-3.48
			c-0.1-0.01-0.2-0.02-0.3-0.02c-1.8-0.07-3.76,0.74-5.25,2.96c-0.52,0.78-0.79,1.91-0.79,3.15c0,1.74,0.54,3.68,1.67,5.12
			c0.54,0.7,1.22,1.28,2.04,1.66c0.21,0.1,0.43,0.18,0.66,0.26c1.73,0.55,3.99,0.28,6.83-1.37C46.48,86.35,46.47,86.35,46.47,86.35z
			"/>
		<path class="st10" d="M41.49,74.43c1.46-1.22,2.82-1.87,4.06-2.07c-2.28-2.24-5.14-1.45-7.23-0.09
			C39.37,72.51,40.45,73.19,41.49,74.43z"/>
		<path class="st13" d="M38.32,72.27c-3.36-0.76-6.35,2.96-6.28,6.85c0.05,2.57,1.43,5.2,4.92,6.68c-1.12-1.44-1.66-3.38-1.67-5.12
			c0-1.23,0.27-2.36,0.79-3.15c0.79-1.18,1.71-1.96,2.68-2.42c0.85-0.41,1.73-0.57,2.57-0.54c0.06-0.05,0.11-0.1,0.17-0.14
			C40.45,73.19,39.37,72.51,38.32,72.27z"/>
		<path class="st14" d="M45.55,72.36c-1.24,0.2-2.61,0.85-4.06,2.07c0.04,0.05,0.09,0.11,0.13,0.16c1.75,0.16,3.29,1.13,4.03,2.4
			c0.2,0.34,0.34,0.71,0.41,1.08c0.27,1.49-0.58,3.17-3.31,4.39c-0.01,0-0.02,0.01-0.03,0.01c0,0,0-0.01,0-0.01
			c-0.99,0.37-2.43,0.65-3.74-0.92c-0.02-0.03-0.13-0.14-0.16-0.16c2.02,4.13,4.73,5.43,7.18,5.05c0.15-0.02,0.3-0.05,0.45-0.09
			c2.14-0.51,4.04-2.27,5.06-4.48c0.24-0.52,0.4-1.08,0.49-1.65C52.64,76.3,49.89,71.65,45.55,72.36z"/>
	</g>
	<g>
		<path class="st8" d="M72.44,71.44c-1.66-0.79-4.38,0.58-3.49,2.68c1.54,1.92,3.16,1.65,4.36,1.21
			C74.02,73.43,73.42,71.91,72.44,71.44z"/>
		<path class="st9" d="M71.98,67.26c-0.04-0.06-0.09-0.11-0.13-0.16c-0.06,0.05-0.11,0.1-0.17,0.14
			C71.78,67.25,71.88,67.25,71.98,67.26z"/>
		<path class="st9" d="M73.08,75.14c0.01,0,0.02-0.01,0.03-0.01c-0.01,0-0.01,0-0.02,0C73.08,75.14,73.08,75.14,73.08,75.14z"/>
		<path class="st9" d="M73.08,75.14c0.01,0,0.02-0.01,0.03-0.01c-0.01,0-0.01,0-0.02,0C73.08,75.14,73.08,75.14,73.08,75.14z"/>
		<path class="st10" d="M82.37,72.89c-0.09,0.57-0.25,1.13-0.49,1.65c-1.02,2.21-2.92,3.97-5.06,4.48c0,0,0.01,0,0.01,0.01
			c-2.84,1.65-5.1,1.92-6.83,1.37c-1.5,0.88-2.83,1.26-3.99,1.27c1.12,2.73,7.5,5.29,10.89,0.51
			C81.27,83.01,86.61,78.88,82.37,72.89z"/>
		<path class="st11" d="M69.35,80.13c-0.82-0.39-1.49-0.97-2.04-1.66c-3.49-1.47-4.87-4.11-4.92-6.68
			c-3.15,2.26-1.66,9.92,3.62,9.87c1.15-0.01,2.48-0.39,3.99-1.27C69.78,80.31,69.56,80.23,69.35,80.13z"/>
		<path class="st12" d="M76.82,79.01c-0.15,0.04-0.3,0.06-0.45,0.09c-2.46,0.38-5.16-0.92-7.18-5.05c0.03,0.01-0.03-0.01,0,0
			c-1.27-3,5.48-4.36,3.9,1.08c0.01,0,0.01,0,0.02,0c2.73-1.22,3.59-2.89,3.31-4.39c-0.32-1.77-2.22-3.28-4.44-3.48
			c-0.1-0.01-0.2-0.02-0.3-0.02c-1.8-0.07-3.76,0.74-5.25,2.96c-0.52,0.78-0.79,1.91-0.79,3.15c0,1.74,0.54,3.68,1.67,5.12
			c0.54,0.7,1.22,1.28,2.04,1.66c0.21,0.1,0.43,0.18,0.66,0.26c1.73,0.55,3.99,0.28,6.83-1.37C76.83,79.02,76.82,79.01,76.82,79.01z
			"/>
		<path class="st10" d="M71.84,67.1c1.46-1.22,2.82-1.87,4.06-2.07c-2.28-2.24-5.14-1.45-7.23-0.09
			C69.72,65.18,70.81,65.85,71.84,67.1z"/>
		<path class="st13" d="M68.67,64.94c-3.36-0.76-6.35,2.96-6.28,6.85c0.05,2.57,1.43,5.2,4.92,6.68c-1.12-1.44-1.66-3.38-1.67-5.12
			c0-1.23,0.27-2.36,0.79-3.15c0.79-1.18,1.71-1.96,2.68-2.42c0.85-0.41,1.73-0.57,2.57-0.54c0.06-0.05,0.11-0.1,0.17-0.14
			C70.81,65.85,69.72,65.18,68.67,64.94z"/>
		<path class="st14" d="M75.91,65.03c-1.24,0.2-2.61,0.85-4.06,2.07c0.04,0.05,0.09,0.11,0.13,0.16c1.75,0.16,3.29,1.13,4.03,2.4
			c0.2,0.34,0.34,0.71,0.41,1.08c0.27,1.49-0.58,3.17-3.31,4.39c-0.01,0-0.02,0.01-0.03,0.01c0,0,0-0.01,0-0.01
			c-0.99,0.37-2.43,0.65-3.74-0.92c-0.02-0.03-0.13-0.14-0.16-0.16c2.02,4.13,4.73,5.43,7.18,5.05c0.15-0.02,0.3-0.05,0.45-0.09
			c2.14-0.51,4.04-2.27,5.06-4.48c0.24-0.52,0.4-1.08,0.49-1.65C82.99,68.97,80.24,64.31,75.91,65.03z"/>
	</g>
	<g>
		<path class="st8" d="M81.54,47.83c-1.66-0.79-4.38,0.58-3.49,2.68c1.54,1.92,3.16,1.65,4.36,1.21
			C83.12,49.82,82.52,48.3,81.54,47.83z"/>
		<path class="st9" d="M81.08,43.65c-0.04-0.06-0.09-0.11-0.13-0.16c-0.06,0.05-0.11,0.1-0.17,0.14
			C80.88,43.64,80.98,43.64,81.08,43.65z"/>
		<path class="st9" d="M82.18,51.53c0.01,0,0.02-0.01,0.03-0.01c-0.01,0-0.01,0-0.02,0C82.18,51.53,82.18,51.53,82.18,51.53z"/>
		<path class="st9" d="M82.18,51.53c0.01,0,0.02-0.01,0.03-0.01c-0.01,0-0.01,0-0.02,0C82.18,51.53,82.18,51.53,82.18,51.53z"/>
		<path class="st10" d="M91.47,49.28c-0.09,0.57-0.25,1.13-0.49,1.65c-1.02,2.21-2.92,3.97-5.06,4.48c0,0,0.01,0,0.01,0.01
			c-2.84,1.65-5.1,1.92-6.83,1.37c-1.5,0.88-2.83,1.26-3.99,1.27c1.12,2.73,7.5,5.29,10.89,0.51
			C90.37,59.41,95.72,55.28,91.47,49.28z"/>
		<path class="st11" d="M78.45,56.52c-0.82-0.39-1.49-0.97-2.04-1.66c-3.49-1.47-4.87-4.11-4.92-6.68
			c-3.15,2.26-1.66,9.92,3.62,9.87c1.15-0.01,2.48-0.39,3.99-1.27C78.88,56.7,78.66,56.62,78.45,56.52z"/>
		<path class="st12" d="M85.92,55.4c-0.15,0.04-0.3,0.06-0.45,0.09c-2.46,0.38-5.16-0.92-7.18-5.05c0.03,0.01-0.03-0.01,0,0
			c-1.27-3,5.48-4.36,3.9,1.08c0.01,0,0.01,0,0.02,0c2.73-1.22,3.59-2.89,3.31-4.39c-0.32-1.77-2.22-3.28-4.44-3.48
			c-0.1-0.01-0.2-0.02-0.3-0.02c-1.8-0.07-3.76,0.74-5.25,2.96c-0.52,0.78-0.79,1.91-0.79,3.15c0,1.74,0.54,3.68,1.67,5.12
			c0.54,0.7,1.22,1.28,2.04,1.66c0.21,0.1,0.43,0.18,0.66,0.26c1.73,0.55,3.99,0.28,6.83-1.37C85.93,55.41,85.93,55.4,85.92,55.4z"
			/>
		<path class="st10" d="M80.95,43.49c1.46-1.22,2.82-1.87,4.06-2.07c-2.28-2.24-5.14-1.45-7.23-0.09
			C78.82,41.57,79.91,42.24,80.95,43.49z"/>
		<path class="st13" d="M77.77,41.33c-3.36-0.76-6.35,2.96-6.28,6.85c0.05,2.57,1.43,5.2,4.92,6.68c-1.12-1.44-1.66-3.38-1.67-5.12
			c0-1.23,0.27-2.36,0.79-3.15c0.79-1.18,1.71-1.96,2.68-2.42c0.85-0.41,1.73-0.57,2.57-0.54c0.06-0.05,0.11-0.1,0.17-0.14
			C79.91,42.24,78.82,41.57,77.77,41.33z"/>
		<path class="st14" d="M85.01,41.42c-1.24,0.2-2.61,0.85-4.06,2.07c0.04,0.05,0.09,0.11,0.13,0.16c1.75,0.16,3.29,1.13,4.03,2.4
			c0.2,0.34,0.34,0.71,0.41,1.08c0.27,1.49-0.58,3.17-3.31,4.39c-0.01,0-0.02,0.01-0.03,0.01c0,0,0-0.01,0-0.01
			c-0.99,0.37-2.43,0.65-3.74-0.92c-0.02-0.03-0.13-0.14-0.16-0.16c2.02,4.13,4.73,5.43,7.18,5.05c0.15-0.02,0.3-0.05,0.45-0.09
			c2.14-0.51,4.04-2.27,5.06-4.48c0.24-0.52,0.4-1.08,0.49-1.65C92.09,45.36,89.34,40.7,85.01,41.42z"/>
	</g>
	<g>
		<path class="st8" d="M52.08,52.8c-1.66-0.79-4.38,0.58-3.49,2.68c1.54,1.92,3.16,1.65,4.36,1.21
			C53.66,54.79,53.06,53.27,52.08,52.8z"/>
		<path class="st9" d="M51.62,48.62c-0.04-0.06-0.09-0.11-0.13-0.16c-0.06,0.05-0.11,0.1-0.17,0.14
			C51.42,48.61,51.52,48.61,51.62,48.62z"/>
		<path class="st9" d="M52.72,56.5c0.01,0,0.02-0.01,0.03-0.01c-0.01,0-0.01,0-0.02,0C52.72,56.5,52.72,56.5,52.72,56.5z"/>
		<path class="st9" d="M52.72,56.5c0.01,0,0.02-0.01,0.03-0.01c-0.01,0-0.01,0-0.02,0C52.72,56.5,52.72,56.5,52.72,56.5z"/>
		<path class="st10" d="M62.01,54.25c-0.09,0.57-0.25,1.13-0.49,1.65c-1.02,2.21-2.92,3.97-5.06,4.48c0,0,0.01,0,0.01,0.01
			c-2.84,1.65-5.1,1.92-6.83,1.37c-1.5,0.88-2.83,1.26-3.99,1.27c1.12,2.73,7.5,5.29,10.89,0.51
			C60.91,64.37,66.26,60.24,62.01,54.25z"/>
		<path class="st11" d="M48.99,61.49c-0.82-0.39-1.49-0.97-2.04-1.66c-3.49-1.47-4.87-4.11-4.92-6.68
			c-3.15,2.26-1.66,9.92,3.62,9.87c1.15-0.01,2.48-0.39,3.99-1.27C49.42,61.67,49.2,61.59,48.99,61.49z"/>
		<path class="st12" d="M56.46,60.37c-0.15,0.04-0.3,0.06-0.45,0.09c-2.46,0.38-5.16-0.92-7.18-5.05c0.03,0.01-0.03-0.01,0,0
			c-1.27-3,5.48-4.36,3.9,1.08c0.01,0,0.01,0,0.02,0c2.73-1.22,3.59-2.89,3.31-4.39c-0.32-1.77-2.22-3.28-4.44-3.48
			c-0.1-0.01-0.2-0.02-0.3-0.02c-1.8-0.07-3.76,0.74-5.25,2.96c-0.52,0.78-0.79,1.91-0.79,3.15c0,1.74,0.54,3.68,1.67,5.12
			c0.54,0.7,1.22,1.28,2.04,1.66c0.21,0.1,0.43,0.18,0.66,0.26c1.73,0.55,3.99,0.28,6.83-1.37C56.47,60.38,56.47,60.37,56.46,60.37z
			"/>
		<path class="st10" d="M51.49,48.46c1.46-1.22,2.82-1.87,4.06-2.07c-2.28-2.24-5.14-1.45-7.23-0.09
			C49.36,46.54,50.45,47.21,51.49,48.46z"/>
		<path class="st13" d="M48.31,46.3c-3.36-0.76-6.35,2.96-6.28,6.85c0.05,2.57,1.43,5.2,4.92,6.68c-1.12-1.44-1.66-3.38-1.67-5.12
			c0-1.23,0.27-2.36,0.79-3.15c0.79-1.18,1.71-1.96,2.68-2.42c0.85-0.41,1.73-0.57,2.57-0.54c0.06-0.05,0.11-0.1,0.17-0.14
			C50.45,47.21,49.36,46.54,48.31,46.3z"/>
		<path class="st14" d="M55.55,46.39c-1.24,0.2-2.61,0.85-4.06,2.07c0.04,0.05,0.09,0.11,0.13,0.16c1.75,0.16,3.29,1.13,4.03,2.4
			c0.2,0.34,0.34,0.71,0.41,1.08c0.27,1.49-0.58,3.17-3.31,4.39c-0.01,0-0.02,0.01-0.03,0.01c0,0,0-0.01,0-0.01
			c-0.99,0.37-2.43,0.65-3.74-0.92c-0.02-0.03-0.13-0.14-0.16-0.16c2.02,4.13,4.73,5.43,7.18,5.05c0.15-0.02,0.3-0.05,0.45-0.09
			c2.14-0.51,4.04-2.27,5.06-4.48c0.24-0.52,0.4-1.08,0.49-1.65C62.63,50.33,59.88,45.67,55.55,46.39z"/>
	</g>
</g>
</svg>
