<?xml version="1.0" encoding="utf-8"?>
<!-- Generator: Adobe Illustrator 27.3.1, SVG Export Plug-In . SVG Version: 6.00 Build 0)  -->
<svg version="1.1" id="Layer_1" xmlns="http://www.w3.org/2000/svg" xmlns:xlink="http://www.w3.org/1999/xlink" x="0px" y="0px"
	 viewBox="0 0 108 108" style="enable-background:new 0 0 108 108;" xml:space="preserve">
<style type="text/css">
	.st0{fill:#509643;}
	.st1{fill:#67BC45;}
	.st2{fill:#2A703C;}
	.st3{fill:#65BC46;}
	.st4{fill:#3D7F43;}
	.st5{fill:#50985B;}
	.st6{fill:#7CB57F;}
	.st7{fill:#F59097;}
	.st8{fill:#F48490;}
	.st9{fill:#F3849A;}
	.st10{fill:#F69CA0;}
	.st11{fill:#F38495;}
	.st12{fill:#F595A6;}
	.st13{fill:#F37578;}
	.st14{fill:#F3736D;}
	.st15{fill:#F27186;}
	.st16{fill:#FAAE6B;}
</style>
<g>
	<path class="st0" d="M59.2,64.7c-1.7-0.3-2.1-0.9-3.5-0.3c-1.3,0.5-3.4,3.1-3.4,3.1s-2.9,5.1,3,5.9c5.9,0.9,4.5,1.3,6.9,0.2
		c2.4-1.1,3-0.4,3.5-2.3c0.5-1.9,1.4-2.4,2.4-4.4c1-2,1.5-2.5,1.9-5c0.4-2.5,1-3.8,3.5-4.6c2.5-0.8,4.2-2.2,5-4
		c0.8-1.8,1.4-2.8,1.4-2.8l1.1-0.9c0,0-5.7-3.7-7.4-4c-1.7-0.3-4.6-1-4.6-1s-1.4,1.2-4.9,2.3c-3.4,1.1-5.2,1.7-5.2,1.7
		s-2.8,2.4-3.9,4.6c-1.1,2.2-2.2,4.2-2.6,5.3c-0.4,1.1-0.7,2.6,0,3.6c0.7,0.9,0,1.6,2.6,1.4c2.6-0.1,3-0.2,3.5,0.3
		C59.1,64.3,59.8,64.8,59.2,64.7"/>
	<path class="st1" d="M79.6,49.5c-0.3,0-0.5,0.1-0.7,0.1l-0.7,0.1l-0.7,0.1c-0.2,0-0.5,0.1-0.7,0.2c-0.6,0.2-1.1,0.4-1.6,0.6
		c0.1-0.1,0.1-0.3,0.2-0.4c0.1-0.3,0.3-0.5,0.4-0.7c0.1-0.2,0.3-0.5,0.5-0.7c0.2-0.2,0.3-0.4,0.6-0.5l0,0c0,0,0,0,0-0.1
		c0,0,0,0-0.1,0c-0.1,0-0.3,0.1-0.4,0.2c-0.1,0-0.1,0.1-0.2,0.1c-0.1,0-0.1,0.1-0.2,0.1c-0.2,0.2-0.4,0.4-0.6,0.6
		c-0.2,0.2-0.3,0.5-0.5,0.7c-0.2,0.2-0.3,0.5-0.5,0.7c0,0,0,0,0,0c0,0.1,0,0.1,0,0.2l0,0l0,0l0,0c0,0,0,0,0,0
		c-0.1,0-0.3,0.1-0.3,0.3c0,0-0.1,0-0.1,0.1c-0.2,0.1-0.4,0.2-0.7,0.3l-0.2,0.1c-0.1,0-0.1,0.1-0.2,0.1c0,0-0.1,0-0.1,0.1l-0.1,0.1
		c-0.1,0-0.1,0.1-0.2,0.1c-0.3,0.2-0.5,0.4-0.8,0.7c0,0,0,0,0-0.1l0.1-0.8c0.1-0.5,0.1-1,0.2-1.6c0.1-0.5,0.2-1,0.3-1.5
		c0.1-0.3,0.1-0.5,0.2-0.7c0.1-0.2,0.2-0.5,0.3-0.6l0,0c0,0,0,0,0-0.1c0,0,0,0-0.1,0c-0.2,0.2-0.3,0.4-0.4,0.6
		c-0.1,0.2-0.2,0.5-0.3,0.7c-0.2,0.5-0.3,1-0.4,1.5c-0.1,0.5-0.2,1-0.3,1.5l-0.1,0.8c0,0.2-0.1,0.5-0.1,0.7c0,0,0,0-0.1,0l0,0l0,0
		c-0.1,0-0.2,0-0.2,0.2c0,0.1,0,0.1,0,0.2c-0.6,0.6-1.2,1.2-1.8,1.7c-0.1,0.1-0.2,0.2-0.2,0.2c0-0.1,0-0.3,0.1-0.4
		c0.1-0.5,0.1-0.9,0.1-1.4c0-0.5,0-0.9,0-1.4c0-0.5,0-0.9,0-1.4c0.1-0.4,0.1-0.8,0.2-1.1c0.1-0.4,0.2-0.8,0.3-1.1
		c0.1-0.4,0.2-0.7,0.4-1.1c0.1-0.2,0.1-0.3,0.2-0.5c0.1-0.2,0.2-0.3,0.3-0.4v0c0,0,0,0,0-0.1c0,0,0,0-0.1,0
		c-0.1,0.1-0.3,0.2-0.4,0.4c-0.1,0.2-0.2,0.3-0.3,0.5c-0.2,0.3-0.3,0.7-0.4,1.1c-0.1,0.4-0.2,0.8-0.3,1.1c-0.1,0.4-0.2,0.8-0.2,1.2
		l0,0v0c0,0.5,0,0.9,0,1.4c0,0.5-0.1,0.9-0.1,1.4c0,0.4-0.1,0.9-0.2,1.3c-0.1,0.4-0.1,0.8-0.2,1.1c-0.7,0.7-1.5,1.5-2.2,2.2
		c0,0,0,0,0,0c0-0.2,0-0.5-0.1-0.7L66,56l-0.2-2.8c0-0.5-0.1-0.9-0.1-1.4c0-0.5-0.1-0.9-0.1-1.4c0-0.5,0-0.9,0-1.4
		c0-0.2,0-0.4,0.1-0.7c0-0.2,0.1-0.4,0.2-0.6c0,0,0-0.1,0-0.1c0,0,0,0-0.1,0c-0.1,0.2-0.2,0.4-0.2,0.6c-0.1,0.2-0.1,0.5-0.1,0.7
		c0,0.5-0.1,0.9-0.1,1.4c0,0.5,0,0.9,0,1.4c0,0.5,0,0.9,0,1.4l0.1,2.8l0,1.4c0,0.2,0,0.5,0,0.7c0,0.1,0,0.2,0,0.3c0,0.1,0,0.2,0,0.3
		l0,0v0c0,0,0,0,0,0c-0.2,0.2-0.5,0.5-0.7,0.7l-1,1.1c0-0.3-0.1-0.7-0.1-1c-0.1-0.5-0.2-1.1-0.3-1.6c0-0.3-0.1-0.5-0.1-0.8l-0.2-0.8
		c-0.1-0.5-0.2-1-0.3-1.5c-0.1-0.5-0.2-1-0.3-1.5c0-0.3-0.1-0.5-0.1-0.8l0-0.2l0-0.2c0-0.1,0-0.3,0-0.4c0-0.5,0-1,0.1-1.5
		c0-0.5,0.1-1,0.1-1.5v0c0,0,0,0,0-0.1c0,0,0,0,0,0c-0.1,0.5-0.2,1-0.2,1.5c-0.1,0.5-0.1,1-0.2,1.5c0,0.1,0,0.3,0,0.4l0,0.2l0,0.2
		c0,0.3,0,0.5,0.1,0.8c0.1,0.5,0.1,1,0.2,1.6c0.1,0.5,0.1,1,0.2,1.6l0.1,0.8c0,0.3,0.1,0.5,0.1,0.8c0.1,0.5,0.1,1,0.1,1.5
		c0,0.5,0.1,1,0,1.5v0c0,0,0,0,0,0c0,0.1,0,0.2,0.1,0.3L62,62.4l0,0l-0.3-0.6l-0.5-1.3c-0.3-0.8-0.7-1.6-1-2.5l-0.8-3.9l-0.2-1
		c-0.1-0.3-0.1-0.7-0.2-1c-0.1-0.7-0.2-1.3-0.3-2c0,0,0,0,0,0c0,0,0,0,0,0c0,0.7,0,1.3,0.1,2c0,0.3,0,0.7,0.1,1c0,0.3,0.1,0.7,0.1,1
		c0.1,0.7,0.2,1.3,0.3,2c0.1,0.7,0.2,1.3,0.3,2l0,0l0,0c0.3,0.8,0.7,1.7,1,2.5l0.5,1.3l0.3,0.6l0.1,0.2l-0.3,0.3L61,62.9l-0.3-0.5
		l-0.7-1.1c-0.4-0.7-0.9-1.4-1.3-2.2c-0.2-0.4-0.4-0.7-0.7-1.1c-0.2-0.4-0.4-0.7-0.6-1.1c-0.4-0.8-0.7-1.6-1-2.4c0,0,0,0-0.1,0
		c0,0,0,0,0,0.1l0,0c0.3,0.8,0.6,1.6,0.9,2.4c0.2,0.4,0.4,0.8,0.6,1.2c0.2,0.4,0.4,0.8,0.6,1.1c0.4,0.8,0.8,1.5,1.2,2.2l0.6,1.1
		l0.1,0.1c-0.3-0.2-0.5-0.5-0.8-0.7c-0.6-0.5-1.2-1-1.8-1.5c-0.3-0.3-0.6-0.5-0.9-0.8c-0.1-0.1-0.3-0.3-0.4-0.4
		c-0.1-0.1-0.1-0.1-0.2-0.2C56.1,59.1,56,59,56,58.9c-0.2-0.3-0.4-0.7-0.6-1.1c-0.2-0.4-0.4-0.7-0.6-1.1l0,0c0,0,0,0-0.1,0
		c0,0,0,0,0,0.1c0.1,0.4,0.3,0.8,0.5,1.2c0.2,0.4,0.4,0.8,0.6,1.2c0.1,0.1,0.1,0.2,0.2,0.3c0.1,0.1,0.1,0.2,0.2,0.3
		c0.1,0.2,0.3,0.3,0.4,0.5c0.3,0.3,0.6,0.6,0.9,0.9c0.6,0.6,1.2,1.1,1.8,1.7c0.2,0.2,0.4,0.4,0.6,0.5l-3.3-1.5l0,0l0,0
		c-0.4-0.1-0.9-0.3-1.3-0.5c-0.2-0.1-0.4-0.2-0.6-0.3c-0.1,0-0.2-0.1-0.3-0.2c-0.1,0-0.1-0.1-0.1-0.1c0,0,0,0-0.1-0.1c0,0,0,0,0-0.1
		l0,0c0,0,0,0-0.1,0c0,0,0,0,0,0.1c0,0.1,0,0.1,0.1,0.1c0,0,0,0,0.1,0.1c0,0,0.1,0.1,0.2,0.1c0.1,0.1,0.2,0.1,0.3,0.2
		c0.2,0.1,0.4,0.2,0.6,0.3c0.4,0.2,0.9,0.4,1.3,0.6l0,0l4,2.2c0,0.1,0,0.2,0,0.4c-0.1,0.1-0.1,0.1-0.1,0.2c-0.5,0.2-1.2,0.3-1.8,0.4
		c-0.3,0.1-0.6,0.2-1,0.3c-0.1,0-0.2,0.1-0.2,0.1c-0.1,0-0.1,0.1-0.2,0.1L56.6,66c-0.1,0.1-0.3,0.2-0.4,0.3
		c-0.1,0.1-0.3,0.2-0.4,0.3c-0.1,0.1-0.2,0.3-0.3,0.4c-0.1,0.1-0.2,0.3-0.3,0.4c-0.2,0.3-0.4,0.6-0.6,0.9c-0.2,0.3-0.4,0.6-0.5,1
		c0,0,0,0.1,0,0.1c0,0,0,0,0.1,0c0.1-0.4,0.3-0.7,0.5-0.9c0.2-0.3,0.4-0.6,0.6-0.9c0.1-0.1,0.2-0.3,0.3-0.4c0.1-0.1,0.2-0.3,0.3-0.4
		c0.2-0.2,0.5-0.4,0.8-0.5l0.5-0.2c0.1,0,0.2-0.1,0.2-0.1c0.1,0,0.1-0.1,0.2-0.1c0.1,0,0.2-0.1,0.3-0.1c0,0,0,0,0,0
		c-0.1,0.1-0.1,0.1-0.2,0.2c-0.1,0.1-0.1,0.1-0.2,0.2l-0.3,0.4c-0.2,0.3-0.4,0.6-0.6,0.9c-0.2,0.3-0.4,0.6-0.5,1
		c0,0.2-0.1,0.4-0.1,0.6c0,0.2,0,0.4,0,0.6c0,0.4,0,0.8,0,1.2v0l0,0c0.1,0.3,0.1,0.6,0.2,0.8c0,0.1,0.1,0.3,0.1,0.4
		c0,0.1,0,0.1,0.1,0.2c0,0,0,0.1,0,0.1c0,0,0,0,0,0.1c0,0,0,0,0,0c0,0,0,0,0.1,0c0,0,0,0,0-0.1c0,0,0,0,0,0c0,0,0,0,0,0c0,0,0,0,0,0
		c0,0,0-0.1,0-0.1c0-0.1,0-0.1-0.1-0.2c0-0.1-0.1-0.3-0.1-0.4c-0.1-0.3-0.1-0.6-0.2-0.8c0-0.4,0.1-0.8,0.1-1.1c0-0.2,0-0.4,0.1-0.6
		c0-0.2,0.1-0.4,0.1-0.5c0.2-0.7,0.7-1.2,1.1-1.7l0.3-0.4c0.1-0.1,0.1-0.1,0.2-0.2c0.1-0.1,0.1-0.1,0.2-0.2c0.2-0.2,0.5-0.3,0.8-0.4
		c0.3-0.1,0.6-0.2,0.9-0.3c0.2,0,0.3-0.1,0.5-0.1l0.1,0l0.5,2.1l0,0c0.2,0.5,0.4,1.1,0.6,1.6c0.1,0.3,0.2,0.5,0.4,0.8
		c0.1,0.3,0.3,0.5,0.4,0.7c0,0,0,0,0.1,0c0,0,0,0,0-0.1h0c-0.2-0.2-0.3-0.5-0.4-0.7c-0.1-0.2-0.2-0.5-0.4-0.8
		c-0.2-0.5-0.4-1-0.6-1.6l0.2-2.4c0,0,0-0.1,0-0.1c0,0,0.1,0,0.1-0.1l0.8-0.9l0.1,0.1c0.1,0.1,0.1,0.2,0.2,0.3
		c0.1,0.2,0.3,0.4,0.4,0.6c0.2,0.2,0.3,0.4,0.5,0.5c0.1,0.1,0.2,0.2,0.3,0.2c0,0,0.1,0.1,0.1,0.1c0,0,0.1,0.1,0.1,0.1l1.2,1.2
		l0.5,1.5c0,0,0,0,0.1,0c0,0,0,0,0-0.1L65,67.1l0,0l0,0l-1.1-1.4l0,0c0,0-0.1-0.1-0.1-0.1c0,0-0.1-0.1-0.1-0.1
		c-0.1-0.1-0.1-0.2-0.2-0.3c-0.1-0.2-0.3-0.4-0.4-0.6c-0.1-0.2-0.2-0.4-0.3-0.6c-0.1-0.1-0.1-0.2-0.2-0.3l-0.1-0.3l1.3-1.4
		c0,0.1,0.1,0.3,0.2,0.4l0.1,0.1l0.1,0l0.1,0.1l0.2,0.1l0.5,0.3l0.9,0.5l0,0l1.1,0.8c0.2,0.1,0.3,0.3,0.4,0.5
		c0.1,0.2,0.2,0.5,0.2,0.7v0c0,0,0,0,0,0c0,0,0,0,0,0c0-0.3,0-0.5-0.1-0.8c0-0.1-0.1-0.3-0.2-0.4c-0.1-0.1-0.1-0.2-0.2-0.3l-1-1l0,0
		l-0.9-0.6l-0.4-0.3l-0.2-0.2c0,0-0.1-0.1-0.1-0.1l0,0l0,0l0,0c0,0,0,0-0.1,0c0,0-0.1,0-0.1-0.1l1.2-1.3c0.2-0.3,0.5-0.5,0.7-0.8
		c0,0.1,0.1,0.1,0.2,0.1h0c0,0,0.1,0,0.2,0c0.1,0,0.1,0,0.2,0.1c0.1,0,0.3,0.1,0.4,0.1c0.3,0.1,0.5,0.2,0.8,0.3
		c0.3,0.1,0.5,0.2,0.7,0.4c0.1,0.1,0.2,0.2,0.3,0.3c0.1,0.1,0.2,0.2,0.3,0.3l0,0c0,0,0,0,0.1,0c0,0,0,0,0-0.1
		c-0.1-0.2-0.2-0.3-0.3-0.4c-0.1-0.1-0.2-0.2-0.3-0.3c-0.2-0.2-0.5-0.3-0.7-0.5c-0.2-0.1-0.5-0.3-0.8-0.4c-0.1-0.1-0.3-0.1-0.4-0.2
		c-0.1,0-0.1-0.1-0.2-0.1c0,0-0.1,0-0.1,0c0.7-0.8,1.4-1.6,2.2-2.4c0.1,0.1,0.2,0.2,0.3,0.2c0,0,0.1,0,0.2,0c0.1,0,0.1,0,0.2,0
		c0.1,0,0.3,0.1,0.4,0.1c0.1,0,0.3,0.1,0.4,0.2c0.1,0.1,0.3,0.1,0.4,0.2l0,0c0,0,0,0,0,0c0,0,0-0.1,0-0.1c-0.1-0.1-0.3-0.2-0.4-0.3
		c-0.1-0.1-0.3-0.2-0.4-0.3c-0.1-0.1-0.3-0.2-0.4-0.3c-0.1,0-0.1-0.1-0.2-0.1c-0.1,0-0.1-0.1-0.2-0.1c0.2-0.2,0.4-0.5,0.6-0.7
		c0.6-0.7,1.3-1.4,1.9-2c0.1,0,0.3,0.1,0.4,0.1c0.2,0,0.5,0.1,0.7,0.1c0.5,0.1,1,0.1,1.4,0.2l0,0h0c0.3,0,0.6,0,1,0
		c0.2,0,0.3,0,0.5,0c0.2,0,0.3,0,0.5-0.1c0,0,0,0,0-0.1c0,0,0,0-0.1,0h0c-0.1,0-0.3,0.1-0.5,0.1c-0.2,0-0.3,0-0.5,0
		c-0.3,0-0.6,0-0.9,0c-0.5-0.1-1-0.2-1.4-0.3c-0.2-0.1-0.5-0.1-0.7-0.2c0,0-0.1,0-0.1,0c0.3-0.3,0.7-0.7,1-1c0,0,0.1-0.1,0.1-0.1
		l0.1-0.1c0,0,0,0,0.1,0c0.1-0.1,0.2-0.1,0.3-0.2c0.2-0.1,0.5-0.2,0.7-0.3c0,0,0.1,0,0.1-0.1c0,0,0.1,0.1,0.2,0.1c0,0,0,0,0,0l0,0
		l0,0l0.1,0l0.1,0l0.2,0l0.5,0.1c0.3,0.1,0.6,0.1,0.9,0.2c0.3,0.1,0.6,0.1,0.9,0.1c0.2,0,0.3,0,0.5,0c0.1,0,0.2,0,0.2,0
		c0.1,0,0.2,0,0.2,0c0,0,0,0,0-0.1c0,0,0,0-0.1,0l0,0c-0.1,0-0.1,0-0.2,0c-0.1,0-0.1,0-0.2,0c-0.2,0-0.3-0.1-0.5-0.1
		c-0.3-0.1-0.6-0.2-0.9-0.3s-0.6-0.2-0.9-0.3L75,51c0.6-0.3,1.2-0.6,1.8-0.8c0.2-0.1,0.5-0.1,0.7-0.2l0.7-0.2l0.7-0.2
		C79.1,49.7,79.4,49.6,79.6,49.5C79.6,49.6,79.6,49.6,79.6,49.5C79.6,49.5,79.6,49.5,79.6,49.5 M56.5,72.5
		C56.5,72.5,56.5,72.5,56.5,72.5C56.5,72.5,56.5,72.5,56.5,72.5"/>
	<path class="st1" d="M74.4,51.5C74.4,51.5,74.4,51.5,74.4,51.5C74.4,51.5,74.4,51.5,74.4,51.5C74.4,51.5,74.4,51.5,74.4,51.5"/>
	<path class="st2" d="M52.8,57.5c0.3,1.3,2.4,1.6,4.4,1.1c2-0.5,3.1-1.3,2.7-3.8c-0.4-2.5-1.8-4.2-3.1-6.1c-1.3-1.9-0.3-2.3-3.9-5
		c-3.6-2.7-4.7-2.9-6.2-3.8c-1.5-0.9-1.5-1.4-2.3-1.7c-0.9-0.3-1.5-1.2-0.8,0.3c0.7,1.4,1.3,0.8,1.4,2.8c0.1,2,0.9,3.4,0.5,5.9
		c-0.3,2.6-0.2,2.4-0.6,5.1c-0.3,2.7-0.6,5.5-0.3,6.8c0.2,1.3,0.7,2.5,2.3,2.6c1.7,0.1,3.9,0.6,4.5-0.6c0.5-1.2,0.9-0.8,0.9-1.9
		c-0.1-1.1-0.2-1.4-0.1-2C52.4,56.6,52.7,56.9,52.8,57.5"/>
	<path class="st3" d="M49.7,60c0.1-0.2,0.1-0.4,0.2-0.6l0.1-0.6c0-0.2,0.1-0.4,0.2-0.6c0.1-0.2,0.2-0.4,0.3-0.6
		c0.1-0.2,0.2-0.4,0.4-0.5c0.1-0.1,0.1-0.2,0.2-0.2c0,0,0,0,0.1-0.1c0,0,0,0,0,0l0,0.1c0,0.2,0.2,0.3,0.4,0.2c0.2,0,0.3-0.2,0.3-0.4
		l0-0.1c0,0,0,0,0-0.1c0,0,0,0,0,0l0,0c0,0,0-0.1,0-0.1l0.3,0c0.3,0,0.6,0.1,0.9,0.2c0.1,0,0.1,0,0.2,0.1c0,0,0.1,0,0.1,0l0.1,0
		c0.1,0,0.2,0,0.2,0l0.1,0l0.1,0l0.2,0l0.2,0c0.1,0,0.3,0,0.4,0c0.6,0,1.2,0,1.8,0c0.3,0,0.6,0,0.9,0c0.3,0,0.6,0,0.9,0l0-0.1
		c-0.3,0-0.6,0-0.9,0c-0.3,0-0.6,0-0.9,0c-0.6,0-1.2-0.1-1.8-0.1c-0.1,0-0.3,0-0.4,0l-0.2,0l-0.2,0l-0.1,0l-0.1,0
		c-0.1,0-0.1,0-0.2,0l-0.1,0c0,0-0.1,0-0.1,0c-0.1,0-0.1,0-0.2-0.1c-0.3-0.1-0.6-0.1-0.9-0.2L51.7,56l0-0.1l0,0c0.1,0,0.2,0,0.3-0.1
		c0.2-0.1,0.5-0.1,0.7-0.2c0.5-0.1,0.9-0.3,1.4-0.4l0,0l0,0l2.1-1.4l1-0.7l0.5-0.4l0.3-0.2l0.1-0.1l0.1,0l0,0l0,0c0,0,0,0,0,0
		l-0.1,0c0,0,0,0,0,0l0,0l0,0l-0.1,0L58,52.4l-0.3,0.2L57.2,53l-1.1,0.7L54,55c-0.5,0.1-0.9,0.2-1.4,0.3c-0.2,0-0.5,0.1-0.7,0.1
		c-0.1,0-0.2,0-0.3,0l-0.1-0.3l-0.1-0.5c0.3,0,0.6-0.1,0.8-0.2c0.3-0.1,0.6-0.3,0.9-0.5c0.5-0.4,1-0.8,1.4-1.3
		c0.4-0.5,0.8-1,1.2-1.4c0.2-0.2,0.4-0.5,0.5-0.8c0.2-0.3,0.3-0.5,0.5-0.8l-0.1,0c-0.2,0.3-0.3,0.5-0.5,0.7
		c-0.2,0.2-0.4,0.5-0.6,0.7c-0.4,0.5-0.8,0.9-1.3,1.4c-0.4,0.4-0.9,0.8-1.5,1.2c-0.3,0.2-0.5,0.3-0.8,0.4c-0.2,0.1-0.5,0.1-0.7,0.1
		l-0.1-0.5l-0.2-0.8c0.3-0.1,0.6-0.2,0.8-0.4c0.3-0.2,0.5-0.3,0.8-0.5c0.2-0.2,0.5-0.4,0.7-0.6c0.2-0.2,0.3-0.5,0.5-0.7
		c0.3-0.5,0.5-1,0.7-1.5c0.2-0.5,0.4-1,0.6-1.6l-0.1,0c-0.2,0.5-0.5,1-0.7,1.5c-0.2,0.5-0.5,1-0.8,1.5c-0.1,0.2-0.3,0.5-0.5,0.7
		c-0.2,0.2-0.4,0.4-0.6,0.6c-0.2,0.2-0.5,0.3-0.8,0.5c-0.2,0.1-0.5,0.2-0.7,0.3L51,52.2l-0.1-0.4l0-0.2c0,0,0-0.1,0-0.1l0-0.1
		l-0.2-0.7l-0.3-1.1l0.1,0l0-0.1l0.1-0.1c0-0.1,0.1-0.2,0.1-0.3c0.1-0.2,0.2-0.4,0.3-0.6c0.2-0.4,0.4-0.8,0.6-1.2
		c0.4-0.8,0.8-1.5,1.2-2.3l-0.1,0c-0.4,0.7-0.9,1.5-1.3,2.2c-0.2,0.4-0.4,0.8-0.6,1.1c-0.1,0.2-0.2,0.4-0.3,0.6
		c0,0.1-0.1,0.1-0.1,0.2c-0.1-0.4-0.2-0.9-0.4-1.3l-0.3-0.9h0.1c0,0,0-0.1,0-0.1l0,0c0,0,0,0,0,0c0-0.1,0-0.2,0.1-0.3
		c0-0.1,0.1-0.3,0.1-0.4c0.1-0.3,0.2-0.6,0.4-0.8c0.3-0.6,0.5-1.1,0.9-1.6l-0.1,0c-0.4,0.5-0.7,1-1,1.6c-0.2,0.3-0.3,0.5-0.4,0.8
		c0,0.1-0.1,0.2-0.1,0.3L48.8,45l0,0l0,0l-0.5-1.3l0,0c0.1,0,0.1,0,0.1-0.1c0,0,0,0,0,0l0,0c0-0.1,0.1-0.1,0.1-0.2
		c0.1-0.1,0.2-0.3,0.3-0.4c0.1-0.1,0.2-0.3,0.3-0.4c0.1-0.1,0.2-0.3,0.3-0.4l0,0c-0.2,0.1-0.3,0.2-0.4,0.3c-0.1,0.1-0.3,0.2-0.4,0.4
		s-0.2,0.3-0.3,0.4c0,0,0,0.1-0.1,0.1L48,43c-0.1-0.2-0.2-0.4-0.3-0.7c-0.1-0.2-0.2-0.4-0.3-0.6c0,0,0.1-0.1,0.1-0.1
		c0,0,0-0.1,0.1-0.1c0-0.1,0.1-0.1,0.1-0.2c0-0.1,0.1-0.3,0.1-0.4l-0.1,0c-0.1,0.1-0.1,0.2-0.2,0.4c0,0.1-0.1,0.1-0.1,0.2
		c0,0,0,0-0.1,0.1c0,0,0,0,0,0c-0.1-0.2-0.2-0.3-0.3-0.5c-0.1-0.2-0.3-0.4-0.5-0.6c-0.1-0.1-0.2-0.2-0.3-0.3
		C46.2,40.1,46.1,40,46,40c0,0,0,0,0,0c0,0,0,0,0,0l0,0c0.1,0.1,0.2,0.2,0.3,0.2c0.1,0.1,0.2,0.2,0.2,0.3c0.2,0.2,0.3,0.4,0.4,0.6
		c0.1,0.2,0.2,0.3,0.3,0.5c-0.1,0-0.2,0-0.3,0c-0.2,0-0.3,0-0.5-0.1c-0.2,0-0.3-0.1-0.5-0.1l-0.2,0l-0.2,0l0,0l0.1,0l0.1,0l0.2,0.1
		c0.2,0.1,0.3,0.1,0.5,0.2c0.2,0.1,0.3,0.1,0.5,0.1c0.2,0,0.3,0.1,0.5,0.1c0.1,0.1,0.1,0.3,0.2,0.4c0.1,0.2,0.2,0.4,0.3,0.7l0.1,0.4
		c-0.1,0-0.1,0-0.2-0.1l-0.5-0.2c-0.3-0.1-0.7-0.2-1-0.4l0,0c0.3,0.2,0.6,0.3,0.9,0.5l0.5,0.2c0.1,0,0.2,0.1,0.2,0.1
		c0,0,0.1,0,0.1,0.1l0.1,0c0,0,0,0,0.1,0l0.4,1.2l0.4,1.5c-0.1,0-0.1,0-0.2,0c-0.2,0-0.5,0-0.7,0c-0.2,0-0.5,0-0.7,0
		c-0.2,0-0.4,0-0.7,0l0,0.1c0.2,0.1,0.4,0.1,0.7,0.1c0.2,0,0.4,0.1,0.7,0.1c0.2,0,0.4,0.1,0.7,0.1c0.1,0,0.2,0,0.3,0.1c0,0,0,0,0,0
		l0.8,3.1c0,0-0.1,0-0.1,0c-0.2,0-0.3,0-0.5,0c-0.3,0-0.6,0.1-0.9,0.1c-0.3,0.1-0.6,0.1-0.9,0.2c-0.3,0.1-0.6,0.2-0.8,0.3l0,0
		c0.3-0.1,0.6-0.2,0.9-0.2c0.3-0.1,0.6-0.1,0.9-0.1c0.3,0,0.6-0.1,0.9-0.1c0.1,0,0.3,0,0.4,0c0.1,0,0.1,0,0.2,0c0,0,0,0,0,0l0.1,0.5
		l0.2,0.7l0,0.1c0,0,0,0.1,0,0.1l0,0.2l0.1,0.4l0.1,0.5c0,0,0,0,0,0l0,0l-0.1,0L50.1,53l-0.3,0.1c-0.2,0.1-0.4,0.2-0.5,0.3
		c-0.4,0.2-0.7,0.4-1.1,0.5c-0.4,0.2-0.7,0.3-1.1,0.5c-0.2,0.1-0.4,0.1-0.6,0.2c-0.2,0-0.4,0.1-0.6,0.1l0,0.1c0.2,0,0.4,0,0.6-0.1
		c0.2,0,0.4-0.1,0.6-0.1c0.4-0.1,0.8-0.2,1.2-0.4c0.4-0.1,0.8-0.3,1.2-0.5c0.2-0.1,0.4-0.2,0.6-0.2l0.3-0.1l0.1-0.1l0.1,0.5
		c0,0.2,0.1,0.4,0.1,0.7c-0.3,0.3-0.7,0.6-1,0.9c-0.2,0.2-0.4,0.3-0.6,0.5l-0.3,0.3c0,0-0.1,0.1-0.1,0.1c0,0-0.1,0.1-0.1,0.1
		c-0.2,0.1-0.4,0.3-0.7,0.4c-0.2,0.1-0.5,0.2-0.7,0.3c-0.3,0.1-0.5,0.2-0.8,0.2c-0.3,0.1-0.5,0.1-0.8,0.1l0,0.1
		c0.3,0,0.6-0.1,0.8-0.1c0.3-0.1,0.5-0.1,0.8-0.2c0.5-0.2,1-0.3,1.5-0.6c0.1,0,0.1-0.1,0.2-0.1c0.1,0,0.1-0.1,0.2-0.1l0.3-0.2
		c0.2-0.2,0.4-0.3,0.6-0.5c0.3-0.2,0.6-0.5,0.8-0.7c0,0.1,0.1,0.3,0.1,0.4l0.1,0.4L50,56.4l0,0h0c-0.1,0.1-0.3,0.3-0.4,0.4
		c-0.1,0.1-0.3,0.3-0.4,0.4L48.5,58c-0.2,0.2-0.4,0.3-0.6,0.5c-0.2,0.2-0.4,0.3-0.7,0.5c-0.2,0.1-0.5,0.3-0.7,0.4
		c-0.1,0.1-0.2,0.1-0.4,0.2c-0.1,0.1-0.3,0.1-0.4,0.1l0,0.1c0.1,0,0.3-0.1,0.4-0.1c0.1,0,0.3-0.1,0.4-0.2c0.3-0.1,0.5-0.3,0.7-0.4
		c0.2-0.1,0.5-0.3,0.7-0.4c0.2-0.2,0.4-0.3,0.7-0.5l0,0l0,0l0.8-0.8c0.1-0.1,0.3-0.3,0.4-0.4c0.1-0.1,0.2-0.3,0.4-0.4l0.9-0.3
		c0,0,0,0,0,0.1l0,0c-0.1,0-0.1,0.1-0.1,0.1c0,0-0.1,0.1-0.1,0.1c-0.1,0.1-0.2,0.2-0.2,0.3c-0.1,0.2-0.3,0.4-0.4,0.6
		C50,57.6,50,57.8,49.9,58c-0.1,0.2-0.1,0.4-0.1,0.6l-0.1,0.6c0,0.2-0.1,0.4-0.1,0.6c-0.1,0.4-0.2,0.8-0.4,1.2l0.1,0
		C49.4,60.8,49.6,60.4,49.7,60"/>
	<path class="st0" d="M54.9,66.6c1.6,1.3,4-0.1,5.4-2.3c1.4-2.2,1.8-4.1-1.2-6.6c-2.9-2.5-6-3.3-9.1-4.4c-3.1-1.1-2.6-2.4-8.8-2.5
		c-6.2-0.1-7.5,0.5-9.8,0.7c-2.3,0.2-2.8-0.4-4,0c-1.2,0.4-2.6-0.1-0.5,0.9c2.1,1,2.1-0.2,4.2,2s4.2,3.1,6.5,6.3
		c2.2,3.2,2.2,2.9,4.6,6.3c2.4,3.4,5,6.7,6.5,8c1.5,1.3,3.2,2.3,4.9,1.1c1.7-1.2,4.5-2.5,3.8-4.3c-0.7-1.8,0.1-1.6-1-2.8
		c-1.1-1.2-1.6-1.4-2.1-2.2C53.6,66,54.3,66.1,54.9,66.6"/>
	<path class="st3" d="M54.4,72c-0.1-0.3-0.3-0.6-0.5-0.9l-0.5-0.8c-0.2-0.3-0.3-0.6-0.5-0.8c-0.1-0.3-0.2-0.6-0.3-0.9
		c-0.1-0.3-0.1-0.6-0.2-0.9c0-0.2,0-0.3,0-0.5c0,0,0-0.1,0-0.1c0,0,0,0,0,0l0.2,0.1c0.2,0.1,0.5,0.1,0.7-0.1
		c0.2-0.2,0.1-0.5-0.1-0.7l-0.1-0.1c0,0-0.1,0-0.1-0.1c0,0,0,0,0,0l-0.1,0c-0.1,0-0.1-0.1-0.2-0.1l0.3-0.2c0.3-0.2,0.7-0.4,1-0.5
		c0.1,0,0.2-0.1,0.3-0.1c0,0,0.1,0,0.1-0.1l0.1-0.1c0.1,0,0.2-0.1,0.3-0.1l0.1-0.1l0.1-0.1l0.2-0.2l0.2-0.2c0.2-0.1,0.3-0.2,0.5-0.3
		c0.6-0.5,1.2-0.9,1.8-1.4c0.3-0.2,0.6-0.5,0.9-0.7c0.3-0.2,0.6-0.5,0.9-0.7l-0.1-0.1c-0.3,0.2-0.6,0.5-0.9,0.7
		c-0.3,0.2-0.6,0.5-0.9,0.7c-0.6,0.5-1.2,0.9-1.8,1.3c-0.2,0.1-0.3,0.2-0.5,0.3l-0.2,0.2l-0.2,0.1l-0.1,0.1l-0.1,0.1
		c-0.1,0-0.2,0.1-0.2,0.1l-0.1,0.1c0,0-0.1,0-0.1,0.1c-0.1,0-0.2,0.1-0.3,0.1c-0.4,0.1-0.7,0.3-1,0.5l-0.5,0.3l-0.1-0.1l-0.1,0
		c0.1-0.1,0.2-0.2,0.2-0.3c0.2-0.3,0.4-0.5,0.5-0.8c0.3-0.5,0.6-1.1,1-1.6l0,0l0,0l0.6-3.3l0.3-1.7l0.1-0.8l0.1-0.4l0-0.2l0-0.1
		l0-0.1l0,0c0,0,0,0,0,0l-0.1,0c0,0,0,0,0,0l0,0l0,0.1l0,0.1l0,0.2l-0.1,0.4l-0.2,0.8l-0.4,1.7l-0.7,3.3c-0.3,0.5-0.7,1-1.1,1.5
		c-0.2,0.2-0.4,0.5-0.6,0.7c-0.1,0.1-0.2,0.2-0.3,0.3L51.4,65l-0.6-0.4c0.3-0.3,0.4-0.6,0.6-0.9c0.2-0.4,0.3-0.9,0.4-1.3
		c0.1-0.9,0.1-1.8,0.1-2.6c-0.1-0.9-0.2-1.7-0.3-2.6c-0.1-0.4-0.2-0.9-0.3-1.3c-0.1-0.4-0.2-0.8-0.3-1.3l-0.1,0
		c0.1,0.4,0.2,0.8,0.2,1.3c0.1,0.4,0.1,0.9,0.2,1.3c0.1,0.9,0.1,1.7,0.1,2.6c0,0.9-0.1,1.7-0.3,2.5c-0.1,0.4-0.2,0.8-0.4,1.2
		c-0.1,0.3-0.3,0.5-0.5,0.7l-0.6-0.5l-1-0.8c0.2-0.4,0.3-0.7,0.4-1.1c0.1-0.4,0.2-0.8,0.2-1.2c0-0.4,0-0.8,0-1.3
		c-0.1-0.4-0.2-0.8-0.3-1.2c-0.2-0.8-0.5-1.6-0.8-2.3c-0.3-0.8-0.6-1.5-1-2.3l-0.1,0c0.3,0.8,0.6,1.5,0.8,2.3
		c0.3,0.8,0.5,1.6,0.7,2.3c0.1,0.4,0.2,0.8,0.2,1.2c0,0.4,0,0.8-0.1,1.2c-0.1,0.4-0.2,0.8-0.3,1.1c-0.1,0.3-0.2,0.6-0.4,0.9
		l-0.3-0.3l-0.4-0.4l-0.2-0.2c0,0-0.1-0.1-0.1-0.1l-0.1-0.1L46,60.8l-1.5-1l0.1-0.1l-0.1-0.2l-0.1-0.2c-0.1-0.1-0.1-0.3-0.2-0.4
		c-0.1-0.3-0.2-0.6-0.3-0.9c-0.2-0.6-0.4-1.2-0.6-1.8c-0.4-1.2-0.8-2.4-1.2-3.6l-0.1,0c0.3,1.2,0.6,2.4,0.9,3.6
		c0.2,0.6,0.3,1.2,0.5,1.8c0.1,0.3,0.2,0.6,0.3,0.9c0,0.1,0.1,0.2,0.1,0.3c-0.6-0.4-1.1-0.8-1.7-1.2L41,57.4l0.1,0
		c0,0-0.1-0.1-0.1-0.1l0,0c0,0,0,0,0,0c-0.1-0.1-0.2-0.2-0.2-0.4c-0.1-0.2-0.2-0.4-0.3-0.6c-0.2-0.4-0.3-0.8-0.5-1.2
		c-0.3-0.8-0.6-1.7-0.8-2.6l-0.1,0c0.2,0.9,0.4,1.8,0.6,2.6c0.1,0.4,0.2,0.9,0.4,1.3c0.1,0.2,0.1,0.3,0.2,0.5l-1.8-1.2l0,0l0,0
		l-1.8-1.1l-0.1,0c0-0.1,0-0.1,0-0.1c0,0,0,0,0-0.1l0-0.1c0-0.1-0.1-0.2-0.1-0.3c-0.1-0.2-0.1-0.4-0.1-0.7c0-0.2-0.1-0.5-0.1-0.7
		c0-0.2-0.1-0.5-0.1-0.7l-0.1,0c-0.1,0.2-0.1,0.5-0.1,0.7c0,0.2,0,0.5,0,0.7c0,0.2,0,0.5,0.1,0.7c0,0,0,0.1,0,0.1L35.7,54
		c-0.3-0.2-0.6-0.3-0.9-0.5c-0.3-0.1-0.6-0.3-0.9-0.4c0-0.1,0-0.1,0-0.2c0-0.1,0-0.1,0-0.2c0-0.1-0.1-0.2-0.1-0.3
		c-0.1-0.2-0.2-0.4-0.3-0.5l-0.1,0c0.1,0.2,0.1,0.4,0.2,0.6c0,0.1,0,0.2,0,0.3c0,0,0,0.1,0,0.1c0,0,0,0,0,0
		c-0.2-0.1-0.5-0.2-0.7-0.3c-0.3-0.1-0.7-0.2-1-0.3c-0.2,0-0.4-0.1-0.5-0.1c-0.2,0-0.4,0-0.5,0c0,0,0,0,0,0c0,0,0,0,0,0h0
		c0.2,0,0.3,0,0.5,0.1c0.2,0,0.3,0.1,0.5,0.1c0.3,0.1,0.7,0.2,1,0.3c0.3,0.1,0.5,0.2,0.8,0.4c-0.1,0.1-0.2,0.2-0.3,0.2
		c-0.2,0.1-0.3,0.2-0.5,0.3c-0.2,0.1-0.4,0.2-0.6,0.3l-0.3,0.1l-0.3,0.1l0,0.1l0.2,0l0.2,0l0.3-0.1c0.2-0.1,0.4-0.1,0.6-0.2
		c0.2-0.1,0.4-0.1,0.6-0.2c0.2-0.1,0.4-0.2,0.6-0.3c0.2,0.1,0.4,0.2,0.6,0.3c0.3,0.2,0.6,0.3,0.9,0.5l0.6,0.4
		c-0.1,0-0.2,0.1-0.3,0.1L35.2,55c-0.5,0.1-0.9,0.3-1.4,0.4l0,0.1c0.5-0.1,0.9-0.1,1.4-0.2l0.7-0.1c0.1,0,0.2,0,0.4-0.1
		c0.1,0,0.1,0,0.2,0l0.1,0c0,0,0.1,0,0.1,0l1.5,1l1.9,1.4c-0.1,0-0.1,0.1-0.2,0.1c-0.2,0.2-0.5,0.4-0.7,0.5
		c-0.2,0.2-0.4,0.4-0.7,0.6c-0.2,0.2-0.4,0.4-0.7,0.5l0,0.1c0.3-0.1,0.5-0.3,0.8-0.4c0.3-0.1,0.5-0.3,0.7-0.4
		c0.2-0.1,0.5-0.3,0.7-0.4c0.1-0.1,0.2-0.1,0.4-0.2c0,0,0,0,0,0l3.9,2.9c0,0-0.1,0.1-0.1,0.1c-0.2,0.1-0.3,0.3-0.4,0.4
		c-0.3,0.3-0.5,0.6-0.8,0.9c-0.2,0.3-0.5,0.6-0.6,1c-0.2,0.3-0.4,0.7-0.5,1l0.1,0c0.2-0.3,0.4-0.7,0.6-1c0.2-0.3,0.5-0.6,0.7-0.9
		c0.3-0.3,0.5-0.6,0.8-0.8c0.1-0.1,0.3-0.2,0.4-0.3c0.1,0,0.2-0.1,0.2-0.1c0,0,0,0,0,0l0.6,0.5l0.9,0.7l0.1,0.1c0,0,0.1,0.1,0.1,0.1
		l0.2,0.2l0.4,0.4l0.6,0.5c0,0,0,0,0,0.1l0,0.1l0,0.1l-0.1,0.2l-0.1,0.4c-0.1,0.3-0.2,0.5-0.2,0.8c-0.2,0.5-0.4,1-0.5,1.5
		c-0.2,0.5-0.4,1-0.7,1.4c-0.1,0.2-0.3,0.5-0.4,0.7c-0.1,0.2-0.3,0.4-0.5,0.6l0.1,0.1c0.2-0.2,0.4-0.4,0.6-0.6
		c0.2-0.2,0.3-0.4,0.5-0.7c0.3-0.5,0.5-0.9,0.8-1.4c0.2-0.5,0.5-1,0.7-1.5c0.1-0.2,0.2-0.5,0.3-0.7l0.2-0.4l0.1-0.2l0.6,0.5
		c0.3,0.2,0.5,0.4,0.8,0.7c0,0.6,0,1.2,0,1.9c0,0.3,0,0.7,0,1l0,0.5c0,0.1,0,0.2,0,0.3c0,0.1,0,0.2,0,0.2c-0.1,0.3-0.2,0.7-0.3,1
		c-0.1,0.3-0.3,0.6-0.5,0.9c-0.2,0.3-0.3,0.6-0.5,0.9c-0.2,0.3-0.4,0.6-0.7,0.8l0.1,0.1c0.3-0.2,0.5-0.5,0.7-0.8
		c0.2-0.3,0.4-0.6,0.6-0.9c0.4-0.6,0.7-1.2,0.9-1.9c0-0.1,0-0.2,0.1-0.3c0-0.1,0-0.2,0-0.3l0-0.5c0-0.3,0.1-0.7,0.1-1
		c0-0.5,0.1-1,0.1-1.5c0.2,0.1,0.3,0.3,0.5,0.4l0.5,0.4l-0.2,1.5l0,0v0c0,0.3,0,0.5,0,0.8c0,0.3,0,0.5,0,0.8l0.1,1.5
		c0,0.4-0.1,0.7-0.1,1.1c-0.1,0.4-0.1,0.7-0.2,1.1c-0.1,0.4-0.2,0.7-0.3,1c-0.1,0.2-0.1,0.3-0.2,0.5c-0.1,0.2-0.1,0.3-0.3,0.5l0.1,0
		c0.1-0.1,0.2-0.3,0.3-0.5c0.1-0.2,0.1-0.3,0.2-0.5c0.1-0.3,0.2-0.7,0.3-1c0.1-0.4,0.2-0.7,0.2-1.1c0.1-0.4,0.1-0.7,0.2-1.1l0,0v0
		l0-1.5c0-0.3,0-0.5,0-0.8c0-0.2,0-0.5,0-0.7l0.5-1.1c0,0,0,0,0.1,0.1l-0.1,0c0,0.1,0,0.2,0,0.3c0,0.1,0,0.2,0,0.3
		c0,0.2,0,0.3,0.1,0.5c0.1,0.3,0.1,0.7,0.2,1c0.1,0.3,0.2,0.6,0.4,0.9c0.2,0.3,0.3,0.6,0.5,0.8l0.5,0.8c0.2,0.3,0.4,0.5,0.5,0.8
		c0.3,0.6,0.6,1.1,0.9,1.7l0.1,0C54.9,73.2,54.7,72.6,54.4,72"/>
	<path class="st2" d="M60.7,63.5c-2.3-0.8-2.3-3.8-0.9-6.5c1.4-2.7,3-4.1,7.3-2.8s6.9,3.7,9.8,6c3,2.3,3.9,1.1,7.8,6.9
		c3.8,5.9,4,7.5,5.1,9.8c1.2,2.3,2.1,2.4,2.5,3.8c0.4,1.4,1.7,2.4-0.6,1c-2.3-1.4-1-2.1-4.5-2.8c-3.5-0.7-5.7-2.1-10.2-2.4
		c-4.6-0.2-4.2-0.4-9.1-0.6c-4.8-0.3-9.7-0.7-11.9-1.4c-2.2-0.7-4.2-1.7-4-4s-0.1-5.7,2-6.2c2.2-0.4,1.6-1.1,3.5-0.7
		c1.9,0.4,2.4,0.6,3.5,0.7C62,64.4,61.6,63.9,60.7,63.5"/>
	<path class="st3" d="M55.6,67.3c0.4,0,0.8-0.1,1.2-0.1l1.1,0c0.4,0,0.8,0,1.1-0.1c0.4,0,0.7-0.1,1.1-0.2c0.4-0.1,0.7-0.2,1-0.4
		c0.2-0.1,0.3-0.2,0.5-0.2c0,0,0.1-0.1,0.1-0.1c0,0,0,0,0,0l-0.2-0.1c-0.3-0.1-0.4-0.4-0.3-0.7c0.1-0.3,0.4-0.4,0.7-0.3l0.1,0
		c0,0,0.1,0,0.1,0c0,0,0,0,0.1,0l0.1,0c0.1,0,0.2,0.1,0.2,0.1l0-0.4c0-0.4,0-0.8-0.1-1.3c0-0.1,0-0.2,0-0.3c0-0.1,0-0.1,0-0.2l0-0.2
		c0-0.1,0-0.2,0-0.3l0-0.2l0-0.2l0-0.3l0-0.3c0-0.2,0-0.4,0.1-0.6c0.1-0.8,0.2-1.7,0.3-2.5c0.1-0.4,0.1-0.8,0.2-1.3
		c0.1-0.4,0.1-0.8,0.2-1.3l0.1,0c-0.1,0.4-0.1,0.8-0.2,1.3c-0.1,0.4-0.1,0.8-0.2,1.3c-0.1,0.8-0.2,1.7-0.2,2.5c0,0.2,0,0.4,0,0.6
		l0,0.3l0,0.3v0.2l0,0.2c0,0.1,0,0.2,0,0.3l0,0.1c0,0,0,0.1,0,0.2c0,0.1,0,0.2,0.1,0.3c0.1,0.4,0.1,0.9,0.1,1.3l0,0.6l0.2,0.1l0.1,0
		c0.1-0.1,0.1-0.3,0.2-0.4c0.2-0.3,0.3-0.6,0.5-1c0.3-0.6,0.7-1.2,1.1-1.9l0,0l0,0l3-2.6l1.5-1.3l0.8-0.6l0.4-0.3l0.2-0.2l0.1-0.1
		l0.1,0l0,0c0,0,0,0,0,0l0,0.1c0,0,0,0,0,0l0,0l0,0l-0.1,0.1l-0.2,0.2l-0.4,0.3l-0.7,0.7l-1.5,1.3l-2.9,2.6
		c-0.3,0.6-0.6,1.3-0.9,1.9c-0.1,0.3-0.3,0.6-0.4,1c-0.1,0.1-0.1,0.3-0.1,0.4l0.5,0.2l0.8,0.3c0.1-0.4,0.3-0.8,0.6-1.1
		c0.3-0.4,0.7-0.8,1.1-1.1c0.8-0.7,1.7-1.2,2.6-1.7c0.9-0.5,1.9-0.9,2.8-1.3c0.5-0.2,1-0.4,1.4-0.5c0.5-0.2,1-0.3,1.5-0.4l0,0.1
		c-0.5,0.2-1,0.3-1.4,0.5c-0.5,0.2-0.9,0.4-1.4,0.6c-0.9,0.4-1.8,0.9-2.7,1.4c-0.9,0.5-1.7,1.1-2.4,1.7c-0.4,0.3-0.7,0.7-0.9,1.1
		c-0.2,0.3-0.3,0.6-0.4,0.9l0.9,0.3l1.4,0.5c0.3-0.4,0.6-0.7,0.9-1.1c0.3-0.4,0.7-0.7,1.1-1c0.4-0.3,0.8-0.6,1.3-0.7
		c0.5-0.2,0.9-0.3,1.4-0.4c0.9-0.2,1.9-0.4,2.8-0.6c1-0.2,1.9-0.3,2.9-0.4l0,0.1c-0.9,0.2-1.9,0.4-2.8,0.6c-0.9,0.2-1.9,0.4-2.8,0.7
		c-0.5,0.1-0.9,0.3-1.3,0.5c-0.4,0.2-0.8,0.5-1.1,0.7c-0.4,0.3-0.7,0.6-1,1c-0.2,0.3-0.5,0.6-0.7,0.9l0.4,0.1l0.6,0.2l0.3,0.1
		c0.1,0,0.1,0,0.2,0.1l0.2,0.1l1.2,0.5l1.9,0.8v-0.1l0.2,0l0.3,0c0.2,0,0.4-0.1,0.5-0.1c0.4-0.1,0.7-0.1,1.1-0.2
		c0.7-0.2,1.4-0.3,2.2-0.5c1.4-0.3,2.9-0.7,4.3-1l0,0.1c-1.4,0.4-2.8,0.9-4.2,1.3c-0.7,0.2-1.4,0.4-2.1,0.6
		c-0.4,0.1-0.7,0.2-1.1,0.3c-0.1,0-0.2,0.1-0.3,0.1c0.7,0.3,1.4,0.6,2.2,0.9l1.6,0.7l0-0.1c0.1,0,0.1,0,0.2,0l0,0c0,0,0,0,0,0
		c0.2,0,0.3,0,0.5,0c0.3,0,0.5,0,0.8-0.1c0.5-0.1,1-0.2,1.5-0.3c1-0.2,2-0.5,3.1-0.8l0,0.1c-1,0.4-2,0.7-3,1c-0.5,0.1-1,0.3-1.5,0.4
		c-0.2,0-0.4,0.1-0.6,0.1l2.3,1l0,0l0,0l2.2,1.1l0.1,0c0-0.1,0.1-0.1,0.1-0.1c0,0,0.1,0,0.1,0l0.1,0c0.1,0,0.2-0.1,0.4-0.1
		c0.3-0.1,0.5-0.2,0.8-0.3c0.3-0.1,0.5-0.2,0.8-0.3c0.3-0.1,0.5-0.2,0.8-0.3l0.1,0.1c-0.2,0.2-0.4,0.4-0.7,0.5
		c-0.2,0.2-0.5,0.3-0.7,0.4c-0.3,0.1-0.5,0.3-0.8,0.3c-0.1,0-0.1,0-0.2,0.1l0.3,0.2c0.4,0.2,0.7,0.4,1.1,0.6
		c0.3,0.2,0.6,0.4,0.9,0.6c0.1-0.1,0.1-0.1,0.2-0.1c0.1,0,0.1,0,0.2-0.1c0.1,0,0.3,0,0.4-0.1c0.2,0,0.5,0,0.7,0l0,0.1
		c-0.2,0.1-0.5,0.1-0.7,0.2c-0.1,0-0.2,0.1-0.3,0.1c0,0-0.1,0.1-0.1,0.1c0,0,0,0,0,0c0.2,0.2,0.5,0.3,0.7,0.5
		c0.3,0.2,0.6,0.5,0.9,0.8c0.1,0.1,0.3,0.3,0.4,0.4c0.1,0.2,0.3,0.3,0.4,0.5c0,0,0,0,0,0.1c0,0-0.1,0-0.1,0l0,0
		c-0.1-0.2-0.2-0.3-0.4-0.5c-0.1-0.1-0.3-0.3-0.4-0.4c-0.3-0.3-0.6-0.5-0.9-0.7c-0.3-0.2-0.5-0.4-0.8-0.5c0,0.1,0,0.3-0.1,0.4
		c0,0.2,0,0.5,0,0.7c0,0.2,0,0.5,0,0.7l0,0.4l0,0.3l-0.1,0l-0.1-0.2l0-0.2l-0.1-0.3c-0.1-0.2-0.1-0.5-0.2-0.7
		c-0.1-0.2-0.1-0.5-0.1-0.7c0-0.2-0.1-0.5,0-0.8c-0.2-0.1-0.4-0.3-0.7-0.4c-0.4-0.2-0.7-0.4-1.1-0.5l-0.7-0.3c0,0.1,0.1,0.2,0.1,0.3
		l0.2,0.8c0.1,0.5,0.3,1,0.4,1.5l-0.1,0c-0.2-0.5-0.4-1-0.6-1.5l-0.3-0.7c-0.1-0.1-0.1-0.2-0.2-0.4c0-0.1-0.1-0.1-0.1-0.2l0-0.1
		c0,0,0-0.1,0-0.1l-1.9-0.9l-2.6-1c0,0.1,0,0.2,0,0.2c0,0.3-0.1,0.7-0.1,1c-0.1,0.3-0.1,0.6-0.2,1c0,0.3-0.1,0.6-0.1,1l-0.1,0
		c-0.1-0.3-0.1-0.7-0.1-1c0-0.3,0-0.7,0-1c0-0.3,0-0.6,0-1c0-0.2,0-0.3-0.1-0.4c0,0,0,0,0,0l-5.2-2c0,0.1,0,0.1,0,0.2
		c0,0.2-0.1,0.5-0.2,0.7c-0.1,0.4-0.3,0.8-0.5,1.3c-0.2,0.4-0.4,0.8-0.6,1.2c-0.2,0.4-0.5,0.8-0.7,1.1l-0.1-0.1
		c0.3-0.4,0.4-0.7,0.6-1.1c0.2-0.4,0.3-0.8,0.5-1.2c0.1-0.4,0.3-0.8,0.3-1.2c0-0.2,0.1-0.4,0.1-0.6c0-0.1,0-0.2,0-0.3c0,0,0,0,0-0.1
		l-0.8-0.3l-1.2-0.5l-0.2-0.1c-0.1,0-0.1,0-0.1-0.1l-0.3-0.1l-0.6-0.2l-0.9-0.3c0,0,0,0,0,0l0,0L68,68.4l-0.2,0.2l-0.3,0.3
		c-0.2,0.2-0.4,0.5-0.6,0.7c-0.4,0.5-0.8,0.9-1.2,1.4c-0.4,0.5-0.7,1-1.1,1.5c-0.2,0.3-0.3,0.5-0.4,0.8c-0.1,0.3-0.2,0.6-0.3,0.8
		l-0.1,0c0-0.3,0.1-0.6,0.2-0.9c0.1-0.3,0.2-0.6,0.4-0.8c0.3-0.5,0.6-1.1,1-1.6c0.3-0.5,0.7-1,1.1-1.5c0.2-0.2,0.4-0.5,0.6-0.7
		l0.3-0.4l0.1-0.2l-0.9-0.3c-0.4-0.1-0.8-0.2-1.1-0.4c-0.6,0.4-1.3,0.8-1.9,1.1c-0.3,0.2-0.7,0.4-1,0.6L62,69.5
		c-0.1,0.1-0.2,0.1-0.2,0.2c-0.1,0.1-0.2,0.1-0.2,0.2c-0.3,0.3-0.6,0.6-0.8,0.9c-0.2,0.3-0.5,0.6-0.7,1c-0.2,0.3-0.4,0.7-0.6,1
		c-0.2,0.4-0.3,0.7-0.4,1.1l-0.1,0c0.1-0.4,0.2-0.8,0.4-1.1c0.2-0.4,0.3-0.7,0.5-1.1c0.4-0.7,0.8-1.4,1.4-2c0.1-0.1,0.2-0.1,0.2-0.2
		c0.1-0.1,0.2-0.1,0.2-0.2l0.5-0.4c0.3-0.2,0.7-0.5,1-0.7c0.5-0.3,1-0.7,1.4-1c-0.2-0.1-0.5-0.1-0.7-0.2l-0.7-0.2l-1.4,1.1l0,0l0,0
		c-0.3,0.2-0.5,0.3-0.8,0.5c-0.3,0.1-0.5,0.3-0.8,0.4l-1.6,0.8c-0.3,0.2-0.7,0.5-1,0.8c-0.3,0.3-0.6,0.5-1,0.8
		c-0.3,0.3-0.6,0.6-0.9,0.9c-0.1,0.2-0.3,0.3-0.4,0.5c-0.1,0.2-0.2,0.3-0.3,0.5l-0.1,0c0.1-0.2,0.2-0.4,0.3-0.6
		c0.1-0.2,0.3-0.3,0.4-0.5c0.3-0.3,0.6-0.6,0.9-0.9c0.3-0.3,0.6-0.6,0.9-0.8c0.3-0.3,0.6-0.5,1-0.8l0,0l0,0l1.6-0.9
		c0.3-0.1,0.5-0.3,0.8-0.4c0.3-0.1,0.5-0.3,0.8-0.4l0.8-1.2l-0.1,0l0,0c-0.1,0.1-0.2,0.1-0.3,0.2c-0.1,0.1-0.2,0.1-0.3,0.1
		c-0.2,0.1-0.4,0.2-0.5,0.2c-0.4,0.1-0.7,0.3-1.1,0.4c-0.4,0.1-0.8,0.2-1.2,0.2c-0.4,0-0.8,0-1.2,0l-1.1,0c-0.4,0-0.8,0-1.1,0
		c-0.8,0-1.5,0.1-2.3,0.2l0-0.1C54,67.5,54.8,67.4,55.6,67.3"/>
	<path class="st0" d="M48.7,81.4c0.2-1.4,3.2-2.2,6.2-2.1c3,0.1,6.1,1.1,4.6,3.3c-1.5,2.2-2,4.7-3.5,6.9c-1.5,2.2-0.1,2.4-4.9,6
		c-4.9,3.6-6.4,4.1-8.4,5.3c-2,1.2-1.9,1.8-3.2,2.3c-1.3,0.5-1.9,1.5-1.2-0.1c0.8-1.6,1.8-1.1,1.7-3.2c-0.2-2.1,0.7-3.7-0.2-6.2
		c-0.9-2.6-0.7-2.4-1.6-5.2c-0.9-2.7-1.7-5.5-1.5-6.9c0.2-1.4,0.6-2.7,3-3.2c2.4-0.5,5.6-1.5,6.6-0.4c1,1.1,1.5,0.6,1.6,1.7
		c0.1,1.1,0,1.5,0.2,2.1C48.2,82.4,48.6,82,48.7,81.4"/>
	<path class="st3" d="M43.7,79.6c0.1,0.2,0.2,0.4,0.3,0.6l0.3,0.6c0.1,0.2,0.2,0.4,0.4,0.6c0.1,0.2,0.3,0.4,0.5,0.5
		c0.2,0.2,0.4,0.3,0.6,0.5c0.1,0.1,0.2,0.1,0.4,0.2c0,0,0.1,0,0.1,0.1c0,0,0,0,0,0l0-0.1c0-0.2,0.3-0.3,0.6-0.3
		c0.3,0,0.5,0.1,0.5,0.3l0,0.1c0,0,0,0,0,0.1c0,0,0,0,0,0l0,0c0,0.1,0,0.1,0,0.2l0.4-0.1c0.4-0.1,0.8-0.2,1.2-0.4
		c0.1,0,0.2-0.1,0.3-0.1c0.1,0,0.1,0,0.1-0.1l0.2-0.1c0.1,0,0.2-0.1,0.3-0.1l0.2,0l0.2,0l0.3-0.1l0.3-0.1c0.2,0,0.4-0.1,0.6-0.1
		c0.9-0.2,1.7-0.3,2.6-0.4c0.4-0.1,0.9-0.1,1.3-0.2c0.4-0.1,0.9-0.1,1.3-0.2l0,0.1c-0.4,0.1-0.9,0.1-1.3,0.2
		c-0.4,0.1-0.9,0.2-1.3,0.2c-0.9,0.2-1.7,0.3-2.6,0.5c-0.2,0-0.4,0.1-0.6,0.1l-0.3,0.1l-0.3,0.1l-0.2,0l-0.2,0
		c-0.1,0-0.2,0.1-0.3,0.1l-0.1,0c0,0-0.1,0-0.1,0.1c-0.1,0-0.2,0.1-0.3,0.1c-0.4,0.1-0.8,0.3-1.2,0.4l-0.6,0.2l0,0.1l0,0
		c0.2,0,0.3,0,0.5,0c0.4,0,0.7,0,1.1,0c0.7,0,1.4,0.1,2.1,0.1l0,0l0,0l3.3,1l1.6,0.5l0.8,0.3l0.4,0.1l0.2,0.1l0.1,0l0.1,0l0,0
		c0,0,0,0,0,0l-0.1,0c0,0,0,0,0,0l0,0l0,0l-0.1,0l-0.2-0.1l-0.4-0.1l-0.8-0.2l-1.7-0.5l-3.3-0.9c-0.7,0-1.4,0-2.1,0
		c-0.4,0-0.7,0-1.1,0c-0.2,0-0.3,0-0.5,0l0,0.3l-0.1,0.5c0.4,0,0.9,0,1.2,0.1c0.5,0.1,1,0.2,1.4,0.3c0.9,0.3,1.6,0.6,2.3,1
		c0.7,0.4,1.3,0.8,1.9,1.2c0.3,0.2,0.6,0.4,0.9,0.7c0.3,0.2,0.6,0.5,0.8,0.7l-0.1,0c-0.3-0.2-0.6-0.4-0.9-0.7
		c-0.3-0.2-0.6-0.4-1-0.6c-0.6-0.4-1.3-0.8-2.1-1.1c-0.7-0.3-1.5-0.7-2.3-0.9c-0.4-0.1-0.8-0.2-1.3-0.2c-0.3,0-0.7,0-1,0L47,85.7
		l-0.1,0.9c0.5,0.1,0.9,0.1,1.3,0.2c0.4,0.1,0.9,0.2,1.2,0.4c0.4,0.1,0.8,0.3,1.1,0.5c0.3,0.2,0.6,0.4,0.8,0.7
		c0.5,0.5,0.9,0.9,1.3,1.4c0.4,0.5,0.8,1,1.1,1.5l-0.1,0c-0.4-0.5-0.8-1-1.3-1.4c-0.4-0.5-0.9-0.9-1.4-1.4c-0.3-0.2-0.5-0.4-0.8-0.6
		c-0.3-0.2-0.7-0.3-1-0.4c-0.4-0.1-0.8-0.2-1.2-0.3c-0.3-0.1-0.7-0.1-1.1-0.1l0,0.3l-0.1,0.4l0,0.2c0,0,0,0.1,0,0.1l0,0.1l-0.2,0.8
		l-0.3,1.2l0.1,0l0.1,0.1l0.1,0.1c0.1,0.1,0.1,0.2,0.2,0.3c0.2,0.2,0.3,0.4,0.5,0.5c0.3,0.4,0.7,0.7,1,1.1c0.7,0.7,1.4,1.4,2.1,2.1
		l-0.1,0c-0.8-0.7-1.5-1.3-2.3-2c-0.4-0.3-0.8-0.7-1.1-1c-0.2-0.2-0.4-0.3-0.5-0.5c-0.1-0.1-0.1-0.1-0.2-0.2
		c-0.1,0.5-0.2,0.9-0.3,1.4l-0.3,1l0.1,0c0,0,0,0.1,0,0.1l0,0c0,0,0,0,0,0c0,0.1,0.1,0.2,0.1,0.3c0.1,0.1,0.2,0.3,0.3,0.4
		c0.2,0.3,0.4,0.5,0.7,0.8c0.5,0.5,1,1,1.5,1.5l-0.1,0c-0.6-0.5-1.2-0.9-1.7-1.4c-0.3-0.2-0.5-0.5-0.8-0.8c-0.1-0.1-0.2-0.2-0.3-0.3
		l-0.4,1.5l0,0l0,0l-0.6,1.5l0,0c0.1,0,0.1,0,0.1,0c0,0,0,0,0,0l0,0c0.1,0.1,0.1,0.1,0.2,0.2c0.1,0.1,0.3,0.2,0.4,0.4
		c0.2,0.1,0.3,0.2,0.5,0.4c0.2,0.1,0.3,0.2,0.5,0.4l-0.1,0c-0.2-0.1-0.5-0.1-0.7-0.2c-0.2-0.1-0.4-0.2-0.6-0.3
		c-0.2-0.1-0.4-0.2-0.5-0.3c0,0-0.1-0.1-0.1-0.1L44,97.5c-0.1,0.2-0.2,0.5-0.3,0.7c-0.1,0.2-0.2,0.4-0.4,0.7c0.1,0,0.1,0,0.1,0.1
		c0,0,0.1,0.1,0.1,0.1c0.1,0.1,0.1,0.1,0.1,0.2c0.1,0.1,0.1,0.3,0.2,0.4l-0.1,0c-0.1-0.1-0.2-0.2-0.4-0.3c-0.1,0-0.1-0.1-0.2-0.1
		c0,0-0.1,0-0.1,0c0,0,0,0,0,0c-0.1,0.2-0.2,0.4-0.3,0.5c-0.2,0.2-0.4,0.5-0.6,0.7c-0.1,0.1-0.2,0.2-0.3,0.3
		c-0.1,0.1-0.2,0.2-0.4,0.3c0,0,0,0-0.1,0c0,0,0,0,0,0l0,0c0.1-0.1,0.3-0.2,0.4-0.3c0.1-0.1,0.2-0.2,0.3-0.3
		c0.2-0.2,0.4-0.5,0.5-0.7c0.1-0.2,0.2-0.4,0.3-0.6c-0.1,0-0.3,0-0.4,0.1c-0.2,0-0.5,0.1-0.7,0.2c-0.2,0.1-0.5,0.1-0.7,0.2l-0.3,0.1
		l-0.3,0.1l-0.1,0l0.2-0.1l0.2-0.1l0.3-0.1c0.2-0.1,0.4-0.2,0.7-0.3c0.2-0.1,0.5-0.2,0.7-0.3c0.2-0.1,0.5-0.2,0.8-0.2
		c0.1-0.2,0.1-0.3,0.2-0.5c0.1-0.2,0.2-0.5,0.3-0.7l0.1-0.5c-0.1,0-0.2,0.1-0.3,0.1l-0.7,0.3c-0.5,0.2-0.9,0.4-1.4,0.6l0,0
		c0.4-0.2,0.9-0.5,1.3-0.7l0.6-0.4c0.1-0.1,0.2-0.1,0.3-0.2c0.1,0,0.1-0.1,0.2-0.1l0.1,0c0,0,0.1,0,0.1,0l0.4-1.3l0.3-1.7
		c-0.1,0-0.2,0-0.2,0c-0.3,0.1-0.7,0.1-1,0.2c-0.3,0-0.7,0.1-1,0.1c-0.3,0.1-0.7,0.1-1,0.2l0-0.1c0.3-0.1,0.6-0.2,1-0.3
		c0.3-0.1,0.6-0.2,1-0.2c0.3-0.1,0.6-0.2,0.9-0.3c0.2,0,0.3-0.1,0.4-0.1c0,0,0,0,0,0l0.7-3.3c-0.1,0-0.1,0-0.2,0
		c-0.2,0-0.5,0.1-0.7,0.1C44,90,43.5,90,43.1,90c-0.4,0-0.9,0-1.3,0c-0.4,0-0.9-0.1-1.3-0.1l0-0.1c0.4,0.1,0.9,0.1,1.3,0.1
		c0.4,0,0.9,0,1.3,0c0.4,0,0.9-0.1,1.3-0.1c0.2,0,0.4-0.1,0.6-0.1c0.1,0,0.2,0,0.3-0.1c0,0,0,0,0.1,0l0.1-0.5l0.2-0.8l0-0.1
		c0,0,0-0.1,0-0.1l0-0.2l0-0.4l0.1-0.6c0,0,0,0-0.1,0l-0.1,0l-0.1,0l-0.2,0L45,86.6c-0.3-0.1-0.6-0.1-0.8-0.2
		c-0.6-0.1-1.1-0.2-1.7-0.3c-0.6-0.1-1.1-0.2-1.7-0.2c-0.3,0-0.6,0-0.9-0.1c-0.3,0-0.6,0-0.9,0l0-0.1c0.3-0.1,0.6-0.1,0.9-0.1
		c0.3,0,0.6,0,0.9,0c0.6,0,1.2,0.1,1.8,0.1c0.6,0.1,1.2,0.1,1.8,0.2c0.3,0,0.6,0.1,0.9,0.1l0.4,0.1l0.2,0l0.1-0.6
		c0-0.2,0-0.5,0.1-0.7c-0.5-0.3-1.1-0.5-1.6-0.8c-0.3-0.1-0.6-0.3-0.9-0.4l-0.4-0.2c-0.1,0-0.2-0.1-0.2-0.1c-0.1,0-0.1-0.1-0.2-0.1
		c-0.3-0.1-0.7-0.2-1.1-0.2c-0.4-0.1-0.8-0.1-1.1-0.1c-0.4,0-0.8,0-1.2-0.1c-0.4,0-0.8,0-1.2,0l0-0.1c0.4-0.1,0.8-0.1,1.2-0.1
		c0.4,0,0.8,0,1.2,0c0.8,0,1.6,0.1,2.3,0.3c0.1,0,0.2,0.1,0.3,0.1c0.1,0,0.2,0.1,0.2,0.1l0.5,0.2c0.3,0.1,0.6,0.3,0.9,0.4
		c0.4,0.2,0.9,0.4,1.3,0.6c0-0.1,0-0.3,0-0.4l0.1-0.5l-1.4-0.5l0,0h0c-0.2-0.1-0.4-0.2-0.6-0.3c-0.2-0.1-0.4-0.2-0.6-0.3l-1.2-0.7
		c-0.3-0.1-0.7-0.2-1-0.4c-0.3-0.1-0.7-0.2-1-0.3c-0.4-0.1-0.7-0.2-1.1-0.3c-0.2,0-0.4-0.1-0.6-0.1c-0.2,0-0.4,0-0.6,0l0-0.1
		c0.2,0,0.4,0,0.6,0c0.2,0,0.4,0.1,0.6,0.1c0.4,0.1,0.8,0.2,1.1,0.3c0.4,0.1,0.7,0.2,1.1,0.3c0.4,0.1,0.7,0.2,1,0.3l0,0l0,0l1.3,0.6
		c0.2,0.1,0.4,0.2,0.6,0.3c0.2,0.1,0.4,0.2,0.6,0.3l1.3,0.1c0,0,0,0,0-0.1l0,0c-0.1,0-0.2-0.1-0.2-0.1c-0.1,0-0.1-0.1-0.2-0.1
		c-0.1-0.1-0.3-0.2-0.4-0.2c-0.2-0.2-0.4-0.3-0.6-0.5c-0.2-0.2-0.3-0.4-0.5-0.6c-0.1-0.2-0.2-0.4-0.3-0.6l-0.2-0.6
		c-0.1-0.2-0.2-0.4-0.3-0.6c-0.2-0.4-0.5-0.8-0.8-1.2l0.1,0C43.1,78.8,43.4,79.2,43.7,79.6"/>
	<path class="st2" d="M62.5,77.3C60.5,78,60,79.4,60,81.2c0.1,1.8-0.5,2.1,0.7,3.5c1.2,1.3,4.6,3.1,7,3.5c2.3,0.3,6.2,1,7.3,1
		c1.1-0.1,6.8,0,7.3,0c0.5,0,0.8,0,0.7-0.2c-0.1-0.2-0.9-2.3-0.9-2.3s-1.3-2.1-1.6-3.3c-0.3-1.3-2.7-4.2-2.9-4.7
		c-0.2-0.5-3-4.2-3.8-5.2c-0.8-1.1-3.3-2.4-4.6-2.7c-1.3-0.3-3-0.5-3.9,0c-1,0.5-1.1,0.8-1.3,2.5c-0.2,1.7-0.3,1.4-0.2,1.8
		c0.2,0.4,0.5,1.3,0.5,1.3s0,0.8-0.1,0.8C64,77.2,62.5,77.3,62.5,77.3"/>
	<path class="st1" d="M65.9,71.8c0,0.1-0.1,0.3-0.1,0.4s0,0.3-0.1,0.4l0,0.2l0,0.1l0,0.1l-0.1,0.8c0,0.3-0.1,0.5-0.1,0.8
		c0,0,0,0.1,0,0.1l0,0.1c0,0,0,0,0,0c0,0,0,0.1,0,0.1c0,0,0,0.1,0,0.1c0,0.1,0,0.3-0.1,0.4c0,0.3-0.1,0.5-0.1,0.8
		c0,0.2-0.1,0.5-0.1,0.7c-0.1,0-0.2,0.1-0.3,0.2c-0.1,0.1-0.1,0.2-0.1,0.3c0,0,0,0,0,0c0,0,0,0,0,0l0,0l0,0l0,0l-0.1,0.1l-0.2,0.1
		l-0.3,0.3c-0.2,0.2-0.4,0.4-0.6,0.6c-0.4,0.4-0.8,0.8-1.2,1.2c-0.2,0.2-0.4,0.4-0.6,0.6c-0.1,0.1-0.2,0.2-0.3,0.3
		C61.1,81,61,81.1,61,81.3l0,0.1l0,0.1l0,0.1c0,0.1,0,0.1-0.1,0.2c0,0.1-0.1,0.3-0.1,0.4c-0.1,0.3-0.1,0.6-0.2,0.8l0,0
		c0.1-0.3,0.1-0.5,0.2-0.8c0-0.1,0.1-0.3,0.1-0.4c0-0.1,0.1-0.1,0.1-0.2l0-0.1l0,0l0,0c0.1-0.1,0.1-0.2,0.2-0.3
		c0.1-0.1,0.2-0.2,0.3-0.3c0.2-0.2,0.4-0.4,0.6-0.6c0.4-0.4,0.9-0.8,1.3-1.1c0.2-0.2,0.4-0.4,0.7-0.5l0.3-0.3l0.2-0.1l0.1-0.1l0,0
		c0,0,0,0,0,0l0.1,0.1l0,0c0,0.1-0.1,0.1-0.1,0.2c-0.1,0.1-0.1,0.3-0.2,0.4c-0.1,0.3-0.2,0.5-0.4,0.8c-0.1,0.3-0.2,0.5-0.4,0.8
		c-0.1,0.3-0.2,0.5-0.3,0.8l0,0l0,0c-0.1,0.2-0.1,0.4-0.2,0.6c-0.1,0.2-0.1,0.4-0.2,0.6c-0.1,0.2-0.1,0.4-0.1,0.6
		c0,0.2-0.1,0.4-0.1,0.6c0,0.2-0.1,0.4-0.1,0.6c0,0.2,0,0.4,0,0.6c0,0,0,0.1,0,0.1c0,0,0,0.1,0,0.1c0,0,0,0.1,0,0.1l0,0.1l0.1,0.3
		c0.1,0.2,0.1,0.4,0.2,0.6l0,0c0-0.2-0.1-0.4-0.1-0.6L63,84.8l0-0.1c0,0,0,0,0-0.1l0-0.1c0,0,0,0,0-0.1c0-0.2,0.1-0.4,0.1-0.6
		c0-0.2,0.1-0.4,0.2-0.6c0.1-0.4,0.2-0.7,0.4-1.1c0.1-0.4,0.3-0.7,0.4-1.1l0.8-1.5l0.4-0.8c0.1-0.1,0.1-0.3,0.2-0.4
		c0,0,0-0.1,0.1-0.1c0.1,0.1,0.2,0.1,0.3,0.2c0.3,0.2,0.5,0.3,0.8,0.5c0.1,0.1,0.3,0.2,0.4,0.3c0,0.1,0,0.1,0,0.2c0,0.1,0,0.1,0,0.2
		c0,0.1,0,0.3,0,0.4c0,0.3,0,0.5,0,0.8c0,0.5,0,1.1,0.1,1.6l0,0.2l0,0.1l0,0.1l0,0.4l0,0.8l0,1.6v0l0,0l0.3,1.3l0,0l-0.3-1.3
		l0.1-1.6l0.1-0.8l0-0.4l0-0.1l0-0.1l0-0.2c0-0.5,0-1.1,0.1-1.6c0-0.3,0-0.5,0-0.8c0-0.1,0-0.3,0-0.4c0,0,0,0,0,0
		c0.2,0.1,0.4,0.3,0.7,0.4c0.9,0.5,1.7,1.1,2.6,1.6c0,0,0,0.1,0,0.1c0,0.1,0,0.2,0,0.3c0,0.2,0,0.4,0,0.5c0,0.4,0,0.7,0,1.1
		c0,0.7,0,1.4,0,2.2v0l0,0c0.2,0.4,0.3,0.7,0.5,1.1c0.1,0.2,0.2,0.4,0.3,0.5c0,0.1,0.1,0.2,0.1,0.3c0,0,0,0.1,0.1,0.1
		c0,0,0.1,0.1,0.1,0.1l0,0c0,0,0-0.1-0.1-0.1c0,0,0-0.1-0.1-0.1c0-0.1-0.1-0.2-0.1-0.3c-0.1-0.2-0.1-0.4-0.2-0.6
		c-0.1-0.4-0.2-0.7-0.3-1.1c0.1-0.7,0.1-1.4,0.2-2.1c0-0.4,0.1-0.7,0.1-1.1c0-0.2,0-0.3,0-0.5l1.8,0.9c0,0,0,0,0,0.1
		c0,0.1,0,0.1,0,0.2c0,0.1,0,0.1,0,0.2c0.1,0.2,0.1,0.4,0.1,0.7c0.1,0.4,0.2,0.9,0.3,1.3l0,0l0,0l0.7,2l0,0l0,0l0.5,0.8l0,0
		l-0.5-0.8l-0.6-2c0-0.5-0.1-0.9-0.2-1.4c0-0.2-0.1-0.5-0.1-0.7c0,0,0-0.1,0-0.1l1.3,0.7l0,0c0.1,0.2,0.2,0.4,0.3,0.6
		c0.1,0.2,0.2,0.4,0.3,0.6c0.2,0.4,0.3,0.9,0.5,1.3l0,0l0,0c0.1,0.1,0.2,0.3,0.3,0.4c0.1,0.1,0.2,0.3,0.3,0.4c0,0.1,0.1,0.1,0.2,0.2
		c0.1,0.1,0.1,0.1,0.2,0.2l0.3,0.4l0,0l-0.3-0.4c-0.1-0.1-0.1-0.1-0.2-0.2c-0.1-0.1-0.1-0.1-0.2-0.2c-0.1-0.1-0.2-0.3-0.3-0.4
		c-0.1-0.1-0.2-0.3-0.3-0.4c-0.1-0.5-0.2-0.9-0.3-1.4c-0.1-0.2-0.1-0.5-0.2-0.7c0-0.1-0.1-0.2-0.1-0.3l1.7,0.8
		c0.1,0.3,0.3,0.7,0.4,1c0.1,0.2,0.2,0.3,0.2,0.5c0.1,0.2,0.2,0.3,0.2,0.5l0,0l0,0l1,1.1l0,0l0,0l0.7,0.5l0,0l-0.6-0.6l-0.9-1.2
		c-0.1-0.2-0.1-0.3-0.2-0.5c-0.1-0.2-0.1-0.3-0.2-0.5c-0.1-0.2-0.1-0.3-0.2-0.5l1.4,0.7l1.9,1.4l1,0.7c0.3,0.2,0.6,0.5,1,0.7l0,0
		c0,0,0,0,0,0c0,0,0,0,0,0c-0.3-0.3-0.6-0.5-0.9-0.7l-0.9-0.7l-1.8-1.4c0.1,0,0.1,0,0.2,0c0.1,0,0.2-0.1,0.3-0.1
		c0.1,0,0.2-0.1,0.3-0.1l0.7,0.2l0,0l-0.7-0.2l0,0c-0.1,0-0.2,0-0.4-0.1c-0.1,0-0.2,0-0.3,0c-0.1,0-0.2,0-0.3,0
		c-0.1,0-0.2,0-0.2,0.1l-1-0.5c0,0,0,0,0.1,0c0.1,0,0.1,0,0.2,0c0.1,0,0.1,0,0.2,0l0.1,0l0.1,0c0,0,0.1,0,0.1,0l0,0l0,0l0,0
		c0,0,0,0,0,0l0,0c0,0,0,0,0,0c0,0,0.1,0,0.1,0c0.1,0,0.2,0,0.3,0c0.1,0,0.2,0,0.3,0l0.2,0c0,0,0.1,0,0.1,0c0,0,0.1,0,0.1,0l0,0
		c0,0-0.1,0-0.1-0.1c0,0-0.1,0-0.1-0.1c-0.1,0-0.2-0.1-0.3-0.1c-0.1,0-0.2,0-0.4,0c-0.1,0-0.1,0-0.2,0.1c0,0,0,0,0,0l0,0
		c0,0,0,0,0,0l0,0c-0.1,0-0.2,0.1-0.3,0.1c-0.1,0-0.2,0-0.3,0.1c-0.1,0-0.2,0-0.3,0.1c0,0-0.1,0-0.1,0l0,0v0h0l-1.4-0.8
		c0,0,0.1,0,0.1,0c0.1,0,0.3-0.1,0.4-0.1c0.1-0.1,0.3-0.1,0.4-0.2l0,0c0.2-0.1,0.4-0.1,0.6-0.2c0.2-0.1,0.4-0.1,0.6-0.2
		c0,0,0,0,0.1,0l0,0l0,0l0.1,0l0.3,0l0.6,0l0,0l-0.6,0l-0.3,0l-0.1,0l0,0l0,0c0,0-0.1,0-0.1,0c-0.2,0-0.4,0.1-0.6,0.2
		c-0.2,0.1-0.4,0.1-0.6,0.2c-0.1-0.1-0.3-0.2-0.4-0.2c-0.1,0-0.3-0.1-0.4-0.1c-0.1,0-0.1,0-0.2,0c0,0-0.1,0-0.1,0c0,0-0.1,0-0.1,0
		c-0.1,0-0.1,0.1-0.2,0.1c-0.1,0-0.1,0.1-0.1,0.2l-1.8-1c0.2,0,0.4,0,0.7,0l0.1,0c0,0,0.1,0,0.1,0c0,0,0.1,0,0.1,0l0.1,0
		c0,0,0,0,0,0l0,0c0,0,0,0,0.1,0c0,0,0,0,0,0l0,0l0,0c0,0,0.1,0,0.1,0c0.1,0,0.1,0,0.2-0.1c0.2-0.1,0.4-0.2,0.6-0.3
		c0.2-0.1,0.4-0.2,0.7-0.2c0.2-0.1,0.4-0.2,0.7-0.2l0.1,0c0,0,0.1,0,0.1,0c0.1,0,0.1,0,0.2,0c0.1,0,0.2,0,0.3,0c0.1,0,0.2,0,0.4,0
		l0.4,0v0c-0.2,0-0.5,0-0.7,0c-0.1,0-0.2,0-0.4,0c-0.1,0-0.2,0-0.4,0c-0.1,0-0.1,0-0.2,0c-0.1,0-0.1,0-0.2,0c-0.1,0-0.2,0.1-0.4,0.1
		c-0.2,0.1-0.5,0.1-0.7,0.2c-0.2,0.1-0.5,0.2-0.7,0.2c-0.1,0-0.1,0-0.2,0.1c0,0-0.1,0-0.1,0l0,0l0,0c0,0,0,0,0,0c0,0,0,0,0,0l0,0
		c0,0,0,0,0,0l0,0c0,0,0,0-0.1,0c0,0-0.1,0-0.1,0l-0.1,0c-0.2,0-0.5,0-0.7,0c-0.1,0-0.2,0-0.4,0c-0.1,0-0.1,0-0.2,0l-1.4-0.8
		c-0.1-0.1-0.3-0.2-0.4-0.3c0,0,0.1,0,0.1,0c0.3-0.1,0.5-0.2,0.8-0.2l0,0c0,0,0,0,0,0l0,0l0,0l0.1,0l0.2-0.1l0.4-0.2
		c0.3-0.1,0.5-0.2,0.8-0.3c0.1-0.1,0.3-0.1,0.4-0.2c0.1,0,0.1-0.1,0.2-0.1l0.1,0c0,0,0.1,0,0.1,0c0.1-0.1,0.2-0.1,0.4-0.1
		c0.1,0,0.3-0.1,0.4-0.1l0.8-0.3c0,0,0.1,0,0.1,0l0,0c0,0,0,0,0,0c0.1,0,0.1,0,0.2,0c0.1,0,0.3,0,0.4,0l0,0c-0.1,0-0.3,0-0.4,0
		c-0.1,0-0.1,0-0.2,0c0,0,0,0-0.1,0L76,79c0,0-0.1,0-0.1,0c-0.3,0.1-0.5,0.1-0.8,0.2c-0.1,0-0.3,0.1-0.4,0.1c-0.1,0-0.3,0.1-0.4,0.1
		c0,0-0.1,0-0.1,0l-0.1,0.1c0,0-0.1,0.1-0.2,0.1c-0.1,0.1-0.2,0.1-0.4,0.1c-0.3,0.1-0.5,0.2-0.8,0.3l-0.4,0.1l-0.2,0.1l-0.1,0l0,0
		l0,0c0,0,0,0,0,0l-0.1,0c-0.3,0.1-0.5,0.2-0.8,0.2c-0.1,0-0.1,0-0.2,0.1c-0.1,0-0.1,0.1-0.2,0.1c0,0,0,0,0,0
		c-0.7-0.5-1.4-1-2.1-1.5c-0.4-0.3-0.7-0.5-1.1-0.8c0,0,0,0,0.1,0c0,0,0,0,0.1,0l0.1-0.1l0.6-0.3l0.6-0.3l0.6-0.3l0,0l0,0l0.9-0.6
		c0.3-0.2,0.6-0.4,0.9-0.6l0.5-0.3c0.2-0.1,0.3-0.2,0.5-0.3c0.3-0.2,0.7-0.3,1-0.4v0c0,0-0.1,0-0.1,0c0,0-0.1,0-0.1,0
		c-0.1,0-0.2,0-0.3,0c-0.2,0-0.4,0.1-0.6,0.2c-0.2,0.1-0.4,0.1-0.5,0.2l-0.3,0.1L71.4,76L71.3,76c-0.3,0.2-0.7,0.3-1,0.5
		c-0.3,0.2-0.6,0.4-1,0.5l-0.6,0.3l-0.6,0.3l-0.6,0.3l-0.1,0.1c0,0,0,0-0.1,0c0,0,0,0-0.1,0c0,0-0.1,0.1-0.1,0.1c0,0,0,0,0,0.1l0,0
		c-0.3-0.2-0.5-0.4-0.7-0.5c-0.1-0.1-0.2-0.2-0.4-0.3c0,0,0,0-0.1,0c0,0,0,0,0,0c0.1,0,0.2-0.1,0.2-0.1c0.1-0.1,0.2-0.2,0.3-0.4
		l0.3-0.4c0.1-0.1,0.2-0.3,0.2-0.4l0.2-0.3l0.3-0.3c0.2-0.2,0.3-0.4,0.5-0.6c0.2-0.2,0.3-0.4,0.5-0.6c0.1-0.1,0.2-0.2,0.2-0.3
		c0.1-0.1,0.2-0.2,0.2-0.3c0,0,0.1-0.1,0.1-0.1c0.1,0,0.1-0.1,0.2-0.1c0.1-0.1,0.2-0.2,0.4-0.3c0.1-0.1,0.2-0.2,0.4-0.2
		c0.1-0.1,0.3-0.1,0.4-0.1l0,0l-0.1,0c0,0-0.1,0-0.1,0c0,0-0.1,0-0.1,0l-0.1,0c0,0,0,0-0.1,0c-0.2,0-0.3,0.1-0.5,0.1
		c-0.1,0.1-0.3,0.1-0.4,0.2c-0.1,0-0.1,0.1-0.2,0.1c-0.1,0-0.1,0.1-0.2,0.1h0l0,0c-0.1,0.1-0.2,0.2-0.3,0.3
		c-0.1,0.1-0.2,0.2-0.3,0.3c-0.2,0.2-0.4,0.4-0.6,0.6c-0.2,0.2-0.4,0.4-0.6,0.6l-0.3,0.3l-0.3,0.3l0,0l0,0l-0.5,0.8
		c-0.1,0.1-0.1,0.2-0.1,0.2c0-0.1,0-0.3,0-0.4c0-0.3,0-0.5,0.1-0.8c0-0.1,0-0.3,0-0.4c0,0,0-0.1,0-0.1c0,0,0-0.1,0-0.1
		c0,0,0,0,0-0.1l0,0c0,0,0-0.1,0-0.1c0-0.3,0-0.5,0-0.8l0-0.8l0-0.1l0-0.1l0-0.2c0-0.1,0-0.3,0-0.4C65.9,72.1,65.9,72,65.9,71.8
		c0.1-0.1,0.1-0.3,0.2-0.4l0,0C65.9,71.5,65.9,71.7,65.9,71.8 M77,83.4"/>
	<path class="st0" d="M45.7,67.5c1.5-1.4,1.6-2.9,0.9-4.5c-0.7-1.7-0.3-2.2-1.9-3c-1.6-0.8-5.5-1.4-7.8-0.9
		c-2.3,0.5-6.2,1.1-7.2,1.5c-1,0.4-6.4,2.3-6.9,2.4c-0.5,0.1-0.7,0.3-0.6,0.4c0.1,0.1,1.7,1.8,1.7,1.8s1.9,1.5,2.7,2.6
		c0.7,1.1,4,3,4.4,3.5c0.4,0.4,4.3,2.9,5.4,3.6c1.1,0.7,4,1.2,5.3,1c1.3-0.1,3-0.6,3.7-1.4c0.7-0.8,0.8-1.2,0.3-2.8
		c-0.4-1.6-0.2-1.5-0.5-1.8c-0.3-0.3-0.9-1-0.9-1s-0.3-0.7-0.2-0.8C44.3,68.1,45.7,67.5,45.7,67.5"/>
	<path class="st1" d="M44.5,73.8c0-0.1,0-0.3-0.1-0.4c0-0.1,0-0.3-0.1-0.4l0-0.2l0-0.1l0-0.1L44,71.8c-0.1-0.3-0.1-0.5-0.2-0.8
		c0,0,0-0.1,0-0.1l0-0.1c0,0,0,0,0,0c0,0,0-0.1,0-0.1c0,0,0-0.1,0-0.1c0-0.1-0.1-0.3-0.1-0.4c-0.1-0.3-0.1-0.5-0.1-0.8
		c0-0.2-0.1-0.5-0.1-0.7c0.1-0.1,0.2-0.2,0.2-0.3c0-0.1,0-0.2,0-0.4c0,0,0,0,0,0c0,0,0,0,0,0l0,0l0,0l0-0.1l0.1-0.1l0.1-0.2l0.2-0.4
		c0.1-0.3,0.3-0.5,0.4-0.8c0.3-0.5,0.5-1,0.7-1.6c0.1-0.3,0.2-0.5,0.3-0.8c0-0.1,0.1-0.3,0.1-0.4c0-0.1,0.1-0.3,0.1-0.4l0-0.1l0-0.1
		l0-0.1c0-0.1,0-0.1,0-0.2c0-0.1,0-0.3,0-0.4c0-0.3-0.1-0.6-0.1-0.8l0,0c0,0.3,0.1,0.6,0.1,0.8c0,0.1,0,0.3,0,0.4c0,0.1,0,0.1,0,0.2
		l0,0.1l0,0.1l0,0c0,0.1-0.1,0.3-0.1,0.4c0,0.1-0.1,0.3-0.2,0.4c-0.1,0.3-0.2,0.5-0.4,0.8c-0.3,0.5-0.5,1-0.8,1.5
		c-0.1,0.2-0.3,0.5-0.4,0.7l-0.2,0.4l-0.1,0.2l-0.1,0.1l0,0c0,0,0,0,0,0l-0.1,0l0,0c0-0.1,0-0.1,0-0.2c0-0.1,0-0.3,0-0.4
		c0-0.3,0-0.6,0.1-0.9c0-0.3,0-0.6,0.1-0.9c0-0.3,0-0.6,0-0.9l0,0l0,0c0-0.2,0-0.4,0-0.6c0-0.2,0-0.4-0.1-0.6c0-0.2,0-0.4-0.1-0.6
		c0-0.2-0.1-0.4-0.1-0.6c0-0.2-0.1-0.4-0.1-0.6c0-0.2-0.1-0.4-0.2-0.6c0,0,0,0,0-0.1c0,0,0,0,0-0.1c0,0,0-0.1,0-0.1l0-0.1l-0.2-0.2
		c-0.1-0.2-0.3-0.3-0.4-0.5l0,0c0.1,0.2,0.2,0.3,0.3,0.5l0.2,0.3l0,0.1c0,0,0,0,0,0.1l0,0.1c0,0,0,0,0,0.1c0,0.2,0.1,0.4,0.1,0.6
		c0,0.2,0,0.4,0.1,0.6c0,0.4,0,0.8,0.1,1.2c0,0.4,0,0.8,0,1.2l-0.2,1.7l-0.1,0.8c0,0.1,0,0.3,0,0.4c0,0,0,0.1,0,0.1
		c-0.1,0-0.2-0.1-0.3-0.1c-0.3-0.1-0.6-0.1-0.9-0.2c-0.2,0-0.3-0.1-0.5-0.1c0,0-0.1-0.1-0.1-0.1c0-0.1-0.1-0.1-0.1-0.2
		c-0.1-0.1-0.1-0.2-0.2-0.4c-0.1-0.2-0.2-0.5-0.3-0.7c-0.2-0.5-0.4-1-0.6-1.5L39.4,64l0-0.1l0-0.1l-0.1-0.4L39,62.7l-0.5-1.5l0,0
		l0,0L37.6,60l0,0l0.8,1.1l0.4,1.5l0.2,0.8l0.1,0.4l0,0.1l0,0.1l0.1,0.2c0.2,0.5,0.3,1,0.5,1.5c0.1,0.3,0.2,0.5,0.3,0.8
		c0,0.1,0.1,0.3,0.2,0.4l0,0c-0.3-0.1-0.5-0.1-0.8-0.2c-1-0.2-2-0.4-3-0.6c0,0,0-0.1,0-0.1c0-0.1-0.1-0.2-0.1-0.2
		c-0.1-0.2-0.1-0.3-0.2-0.5c-0.1-0.3-0.3-0.7-0.4-1c-0.3-0.7-0.5-1.3-0.8-2l0,0l0,0c-0.3-0.3-0.6-0.6-0.8-0.9
		c-0.1-0.1-0.3-0.3-0.4-0.4c-0.1-0.1-0.1-0.1-0.2-0.2c0,0-0.1-0.1-0.1-0.1c0,0-0.1-0.1-0.1-0.1l0,0c0,0,0.1,0.1,0.1,0.1
		c0,0,0.1,0.1,0.1,0.1c0.1,0.1,0.1,0.1,0.2,0.2c0.1,0.1,0.3,0.3,0.4,0.5c0.2,0.3,0.5,0.6,0.7,0.9c0.2,0.7,0.4,1.4,0.6,2.1
		c0.1,0.3,0.2,0.7,0.3,1c0,0.2,0.1,0.3,0.1,0.5l-2-0.2c0,0,0,0,0-0.1c0,0-0.1-0.1-0.1-0.1c0,0-0.1-0.1-0.1-0.1
		c-0.1-0.2-0.3-0.4-0.4-0.6c-0.2-0.4-0.5-0.8-0.7-1.2l0,0l0,0L31,62.1l0,0l0,0l-0.8-0.6l0,0l0.7,0.6l1.2,1.7
		c0.2,0.4,0.4,0.8,0.6,1.2c0.1,0.2,0.2,0.4,0.3,0.6c0,0,0,0.1,0.1,0.1l-1.5-0.2l0,0c-0.2-0.2-0.3-0.3-0.5-0.5
		c-0.2-0.2-0.3-0.3-0.5-0.5c-0.3-0.4-0.6-0.7-0.9-1.1l0,0l0,0c-0.1-0.1-0.3-0.2-0.4-0.3c-0.1-0.1-0.3-0.2-0.4-0.3
		c-0.1,0-0.1-0.1-0.2-0.1c-0.1,0-0.2-0.1-0.2-0.1l-0.5-0.2l0,0l0.5,0.2c0.1,0,0.2,0.1,0.2,0.1c0.1,0,0.1,0.1,0.2,0.1
		c0.1,0.1,0.3,0.2,0.4,0.3c0.1,0.1,0.3,0.2,0.4,0.3c0.2,0.4,0.5,0.8,0.8,1.2c0.1,0.2,0.3,0.4,0.4,0.6c0.1,0.1,0.1,0.2,0.2,0.3
		l-1.9-0.2c-0.2-0.3-0.5-0.5-0.7-0.8c-0.1-0.1-0.3-0.2-0.4-0.4c-0.1-0.1-0.3-0.2-0.4-0.4l0,0l0,0l-1.4-0.7l0,0h0l-0.8-0.3l0,0
		l0.8,0.4l1.2,0.8c0.1,0.1,0.2,0.3,0.3,0.4c0.1,0.1,0.2,0.3,0.3,0.4c0.1,0.1,0.2,0.3,0.3,0.4L27,65l-2.3-0.6l-1.1-0.3
		c-0.4-0.1-0.8-0.2-1.1-0.3l0,0c0,0,0,0,0,0c0,0,0,0,0,0c0.4,0.1,0.7,0.3,1.1,0.4l1.1,0.4l2.2,0.7c-0.1,0-0.1,0.1-0.2,0.1
		c-0.1,0.1-0.2,0.1-0.3,0.2c-0.1,0.1-0.2,0.2-0.2,0.2l-0.7,0.1l0,0l0.7-0.1l0,0c0.1,0,0.2,0,0.3-0.1c0.1,0,0.2-0.1,0.3-0.1
		c0.1,0,0.2-0.1,0.3-0.1c0.1,0,0.1-0.1,0.2-0.2l1.1,0.2c0,0,0,0,0,0c0,0-0.1,0.1-0.1,0.1c0,0-0.1,0.1-0.1,0.1l-0.1,0L28,65.8
		c0,0,0,0-0.1,0.1l0,0l0,0l0,0c0,0,0,0,0,0l0,0c0,0,0,0,0,0c0,0,0,0-0.1,0.1c-0.1,0-0.2,0.1-0.2,0.1c-0.1,0-0.2,0.1-0.3,0.1l-0.2,0
		c0,0-0.1,0-0.1,0c0,0-0.1,0-0.1,0l0,0c0,0,0.1,0,0.2,0c0.1,0,0.1,0,0.2,0c0.1,0,0.2,0,0.3,0c0.1,0,0.2,0,0.3-0.1
		c0.1,0,0.1-0.1,0.2-0.1c0,0,0,0,0,0l0,0c0,0,0,0,0,0l0,0c0.1-0.1,0.1-0.1,0.2-0.2c0.1-0.1,0.2-0.1,0.3-0.1c0.1,0,0.2-0.1,0.3-0.2
		c0,0,0.1-0.1,0.1-0.1l0,0c0,0,0,0,0,0l0,0l1.6,0.3c0,0-0.1,0-0.1,0c-0.1,0.1-0.2,0.1-0.3,0.2c-0.1,0.1-0.2,0.2-0.3,0.4l0,0
		c-0.2,0.1-0.3,0.2-0.5,0.4c-0.2,0.1-0.3,0.2-0.5,0.3c0,0,0,0-0.1,0l0,0l0,0l-0.1,0.1l-0.3,0.1l-0.6,0.2l0,0l0.6-0.2l0.3-0.1
		l0.1-0.1l0,0l0,0c0,0,0,0,0.1,0c0.2-0.1,0.3-0.2,0.5-0.3c0.2-0.1,0.3-0.2,0.5-0.4c0.2,0,0.3,0,0.5,0c0.1,0,0.3,0,0.4-0.1
		c0.1,0,0.1,0,0.2-0.1c0,0,0.1,0,0.1,0c0,0,0.1,0,0.1-0.1c0.1,0,0.1-0.1,0.1-0.2c0-0.1,0.1-0.1,0.1-0.2l2.1,0.4
		c-0.2,0.1-0.4,0.2-0.6,0.2l-0.1,0c0,0-0.1,0-0.1,0c0,0-0.1,0-0.1,0.1l0,0c0,0,0,0,0,0l0,0c0,0,0,0,0,0c0,0,0,0,0,0l0,0l0,0
		c0,0,0,0-0.1,0.1c0,0-0.1,0.1-0.1,0.1c-0.2,0.2-0.3,0.3-0.5,0.5c-0.2,0.2-0.3,0.3-0.5,0.5c-0.2,0.1-0.4,0.3-0.5,0.4l-0.1,0
		c0,0,0,0-0.1,0c-0.1,0-0.1,0.1-0.2,0.1c-0.1,0.1-0.2,0.1-0.3,0.2c-0.1,0.1-0.2,0.1-0.3,0.2l-0.3,0.2l0,0c0.2-0.1,0.5-0.1,0.7-0.2
		c0.1,0,0.2-0.1,0.3-0.1c0.1,0,0.2-0.1,0.3-0.1c0.1,0,0.1-0.1,0.2-0.1c0.1,0,0.1-0.1,0.2-0.1c0.1-0.1,0.2-0.1,0.3-0.2
		c0.2-0.1,0.4-0.3,0.6-0.4c0.2-0.1,0.4-0.3,0.5-0.5c0,0,0.1-0.1,0.1-0.1c0,0,0,0,0.1-0.1l0,0l0,0c0,0,0,0,0,0c0,0,0,0,0,0l0,0
		c0,0,0,0,0,0l0,0c0,0,0,0,0.1,0c0,0,0,0,0.1,0l0.1,0c0.2-0.1,0.4-0.2,0.6-0.2c0.1,0,0.2-0.1,0.3-0.2c0,0,0.1-0.1,0.1-0.1l1.5,0.3
		c0.2,0,0.3,0.1,0.5,0.1c0,0-0.1,0-0.1,0.1c-0.2,0.2-0.4,0.3-0.7,0.5l0,0c0,0,0,0,0,0l0,0l0,0l-0.1,0.1l-0.2,0.1L34.7,68
		c-0.2,0.2-0.4,0.4-0.6,0.6c-0.1,0.1-0.2,0.2-0.3,0.3c0,0.1-0.1,0.1-0.1,0.2l-0.1,0.1c0,0,0,0-0.1,0.1c-0.1,0.1-0.2,0.2-0.3,0.3
		c-0.1,0.1-0.2,0.2-0.3,0.3l-0.6,0.5c0,0-0.1,0-0.1,0.1l0,0c0,0,0,0,0,0c-0.1,0-0.1,0.1-0.2,0.1c-0.1,0.1-0.2,0.1-0.4,0.2l0,0
		c0.1,0,0.3-0.1,0.4-0.1c0.1,0,0.1,0,0.2-0.1c0,0,0,0,0.1,0l0,0c0,0,0.1,0,0.1-0.1c0.2-0.1,0.5-0.3,0.7-0.4c0.1-0.1,0.2-0.2,0.3-0.2
		c0.1-0.1,0.2-0.2,0.3-0.3c0,0,0.1,0,0.1-0.1l0.1-0.1c0,0,0.1-0.1,0.1-0.1c0.1-0.1,0.2-0.2,0.3-0.3c0.2-0.2,0.4-0.4,0.6-0.5l0.3-0.3
		l0.2-0.1l0.1-0.1l0,0l0,0c0,0,0,0,0,0l0,0c0.2-0.2,0.4-0.3,0.7-0.5c0.1,0,0.1-0.1,0.2-0.1c0.1,0,0.1-0.1,0.1-0.1c0,0,0,0,0,0
		c0.8,0.2,1.7,0.4,2.5,0.7c0.4,0.1,0.9,0.2,1.3,0.3c0,0,0,0-0.1,0c0,0,0,0-0.1,0.1l-0.1,0.1l-0.5,0.5l-0.4,0.5L39,69.6l0,0l0,0
		l-0.7,0.9c-0.2,0.3-0.4,0.6-0.7,0.9l-0.4,0.4c-0.1,0.1-0.2,0.3-0.4,0.4c-0.2,0.3-0.5,0.5-0.8,0.7l0,0c0,0,0.1,0,0.1,0
		c0,0,0.1,0,0.1-0.1c0.1,0,0.2-0.1,0.3-0.1c0.2-0.1,0.3-0.2,0.5-0.3c0.1-0.1,0.3-0.2,0.4-0.4l0.2-0.2l0.1-0.1l0.1-0.1
		c0.3-0.3,0.5-0.5,0.8-0.8c0.2-0.3,0.5-0.5,0.7-0.8l0.5-0.4l0.5-0.4l0.5-0.4l0.1-0.1c0,0,0,0,0.1-0.1c0,0,0,0,0-0.1
		c0,0,0-0.1,0.1-0.2c0,0,0,0,0-0.1c0,0,0,0,0,0c0.3,0.1,0.6,0.2,0.9,0.3c0.1,0,0.3,0.1,0.4,0.1c0,0,0,0,0.1,0c0,0,0,0,0,0
		c-0.1,0.1-0.1,0.1-0.2,0.2c-0.1,0.1-0.1,0.3-0.2,0.5L42,69.8c0,0.1-0.1,0.3-0.1,0.4l-0.1,0.3l-0.1,0.4c-0.1,0.2-0.2,0.5-0.3,0.8
		c-0.1,0.3-0.2,0.5-0.3,0.8c0,0.1-0.1,0.3-0.1,0.4c0,0.1-0.1,0.3-0.1,0.4c0,0-0.1,0.1-0.1,0.2c0,0.1-0.1,0.1-0.1,0.2
		c-0.1,0.1-0.2,0.2-0.2,0.4c-0.1,0.1-0.2,0.2-0.3,0.3c-0.1,0.1-0.2,0.2-0.3,0.3l0,0l0.1,0c0,0,0.1,0,0.1,0c0,0,0.1,0,0.1-0.1l0.1,0
		c0,0,0,0,0.1,0c0.1-0.1,0.3-0.2,0.4-0.3c0.1-0.1,0.2-0.2,0.3-0.3c0.1-0.1,0.1-0.1,0.2-0.2c0.1-0.1,0.1-0.1,0.1-0.2h0l0,0
		c0.1-0.1,0.1-0.2,0.2-0.4c0.1-0.1,0.1-0.2,0.2-0.4c0.1-0.2,0.2-0.5,0.3-0.7c0.1-0.2,0.2-0.5,0.3-0.7l0.2-0.4l0.2-0.4l0,0l0,0
		l0.2-0.9c0-0.1,0-0.2,0-0.3c0,0.1,0.1,0.3,0.1,0.4c0.1,0.3,0.1,0.5,0.2,0.8c0,0.1,0.1,0.3,0.1,0.4c0,0,0,0.1,0,0.1c0,0,0,0.1,0,0.1
		c0,0,0,0,0,0.1l0,0c0,0,0,0.1,0,0.1c0.1,0.2,0.2,0.5,0.3,0.8l0.3,0.8l0,0.1l0,0.1l0.1,0.2c0,0.1,0.1,0.3,0.1,0.4
		C44.3,73.5,44.4,73.6,44.5,73.8c0,0.1,0,0.3,0,0.4l0,0C44.5,74,44.5,73.9,44.5,73.8 M29.9,66.6"/>
	<path class="st2" d="M48,65c-1.1-3.1-3.5-4.2-6.5-4.3c-3.1-0.1-3.6-0.9-6,0.8c-2.3,1.8-5.8,7-6.6,10.6c-0.8,3.6-2.3,9.6-2.3,11.3
		c0,1.7-0.7,10.8-0.8,11.6c-0.1,0.8,0,1.2,0.2,1.2c0.3-0.1,4-1.2,4-1.2s3.6-1.8,5.8-2.2c2.2-0.3,7.4-3.8,8.4-4.2
		c0.9-0.3,7.4-4.3,9.3-5.5c1.9-1.2,4.5-5,5.1-7c0.7-2,1.1-4.7,0.3-6.2c-0.8-1.5-1.3-1.8-4.2-2.3c-2.8-0.5-2.4-0.6-3.1-0.4
		c-0.7,0.2-2.2,0.7-2.2,0.7s-1.3,0-1.4-0.2C48.1,67.5,48,65,48,65"/>
	<path class="st1" d="M57,70.9c-0.2-0.1-0.4-0.1-0.7-0.2c-0.2-0.1-0.5-0.1-0.7-0.1l-0.3-0.1l-0.2,0l-0.2,0l-1.4-0.2
		c-0.5-0.1-0.9-0.1-1.4-0.2c-0.1,0-0.1,0-0.2,0L52,70c0,0,0,0-0.1,0c0,0-0.1,0-0.1,0c-0.1,0-0.1,0-0.2,0c-0.2,0-0.4-0.1-0.7-0.1
		c-0.4-0.1-0.9-0.2-1.3-0.3c-0.4-0.1-0.8-0.2-1.3-0.3c0-0.2-0.1-0.4-0.3-0.5c-0.2-0.1-0.4-0.2-0.6-0.3c0,0,0,0,0,0c0,0,0,0,0,0l0,0
		l0,0l-0.1-0.1l-0.1-0.1L47,67.8l-0.5-0.5c-0.3-0.4-0.6-0.7-0.9-1.1c-0.6-0.7-1.3-1.4-2-2.1c-0.3-0.3-0.7-0.7-1.1-1
		c-0.2-0.2-0.4-0.3-0.6-0.5c-0.2-0.1-0.4-0.3-0.6-0.4l-0.1,0l-0.1,0L41,62.2c-0.1,0-0.2-0.1-0.3-0.1c-0.2-0.1-0.5-0.2-0.7-0.2
		c-0.5-0.1-0.9-0.3-1.4-0.3l0,0.1c0.5,0.1,0.9,0.3,1.4,0.4c0.2,0.1,0.4,0.2,0.7,0.3c0.1,0,0.2,0.1,0.3,0.1l0.2,0.1l0.1,0l0.1,0
		c0.2,0.1,0.4,0.3,0.6,0.4c0.2,0.2,0.3,0.3,0.5,0.5c0.3,0.3,0.7,0.7,1,1c0.6,0.7,1.2,1.4,1.8,2.2c0.3,0.4,0.6,0.7,0.9,1.1l0.4,0.6
		l0.2,0.3l0.1,0.1l0,0c0,0,0,0,0,0l-0.1,0.1l0,0c-0.1-0.1-0.2-0.1-0.3-0.2c-0.2-0.1-0.4-0.2-0.6-0.3c-0.4-0.2-0.9-0.4-1.3-0.7
		c-0.4-0.2-0.9-0.4-1.3-0.6c-0.4-0.2-0.9-0.4-1.3-0.6l0,0l0,0c-0.3-0.1-0.6-0.2-1-0.3c-0.3-0.1-0.6-0.2-1-0.3
		c-0.3-0.1-0.6-0.2-1-0.3c-0.3-0.1-0.7-0.2-1-0.3c-0.3-0.1-0.7-0.2-1-0.2c-0.3-0.1-0.7-0.1-1-0.1c0,0-0.1,0-0.1,0c0,0-0.1,0-0.1,0
		c0,0-0.1,0-0.1,0l-0.1,0l-0.5,0.1c-0.3,0.1-0.7,0.2-1,0.2l0,0.1c0.3,0,0.7-0.1,1-0.1l0.5-0.1l0.1,0c0,0,0.1,0,0.1,0l0.1,0
		c0,0,0.1,0,0.1,0c0.3,0,0.6,0.1,1,0.2c0.3,0.1,0.6,0.2,1,0.3c0.6,0.2,1.3,0.4,1.9,0.7c0.6,0.2,1.2,0.5,1.8,0.7l2.5,1.3l1.3,0.7
		c0.2,0.1,0.4,0.2,0.6,0.3c0.1,0,0.1,0.1,0.2,0.1c-0.1,0.1-0.2,0.3-0.3,0.4c-0.3,0.4-0.6,0.8-0.9,1.2c-0.2,0.2-0.3,0.5-0.5,0.7
		c-0.1,0-0.2,0-0.3,0c-0.1,0-0.2,0-0.3,0c-0.2,0-0.4,0-0.7,0c-0.5,0-0.9,0-1.4,0c-0.9,0-1.8,0-2.7-0.1l-0.3,0l-0.2,0l-0.2,0l-0.7,0
		L36,71.6l-2.7-0.2l0,0l0,0l-2.3,0.4l0,0.1l2.3-0.4l2.7,0.4l1.4,0.2l0.7,0.1l0.2,0l0.2,0l0.3,0c0.9,0.1,1.8,0.2,2.7,0.2
		c0.5,0,0.9,0.1,1.4,0.1c0.2,0,0.5,0,0.7,0c0,0,0,0,0,0c-0.3,0.3-0.5,0.7-0.7,1c-1,1.3-2,2.6-2.9,4c-0.1,0-0.1,0-0.2,0
		c-0.1,0-0.3,0-0.5,0c-0.3,0-0.6,0-0.9,0c-0.6,0-1.2,0-1.8-0.1c-1.2-0.1-2.5-0.1-3.7-0.2l-0.1,0l0,0c-0.6,0.2-1.3,0.4-1.9,0.7
		c-0.3,0.1-0.6,0.2-0.9,0.4c-0.2,0.1-0.3,0.1-0.5,0.2c-0.1,0-0.2,0.1-0.2,0.1c-0.1,0-0.2,0.1-0.2,0.1l0,0.1c0.1,0,0.1-0.1,0.2-0.1
		c0.1,0,0.2-0.1,0.2-0.1c0.2,0,0.3-0.1,0.5-0.1c0.3-0.1,0.6-0.2,1-0.3c0.6-0.2,1.3-0.3,1.9-0.4c1.2,0.2,2.4,0.4,3.6,0.5
		c0.6,0.1,1.2,0.2,1.8,0.2c0.3,0,0.6,0.1,0.9,0.1l-1.7,2.7c0,0-0.1,0-0.1,0c-0.1,0-0.2,0-0.3,0.1c-0.1,0-0.2,0-0.3,0
		c-0.4,0.1-0.8,0.1-1.2,0.2c-0.8,0.1-1.6,0.2-2.3,0.3l0,0l0,0l-3.5,0.9h0l0,0l0,0l-1.4,0.7l0,0.1l1.4-0.7l3.5-0.7
		c0.8,0,1.6-0.1,2.4-0.1c0.4,0,0.8-0.1,1.2-0.1c0.1,0,0.1,0,0.2,0l-1.3,2l0-0.1c-0.4,0.1-0.7,0.3-1.1,0.4c-0.4,0.1-0.8,0.2-1.1,0.4
		c-0.8,0.2-1.5,0.4-2.3,0.6l0,0l0,0c-0.2,0.1-0.5,0.2-0.7,0.4c-0.2,0.1-0.5,0.3-0.7,0.4c-0.1,0.1-0.2,0.1-0.3,0.2
		c-0.1,0.1-0.2,0.2-0.3,0.3l-0.7,0.5l0,0.1l0.7-0.5c0.1-0.1,0.2-0.2,0.3-0.3c0.1-0.1,0.2-0.2,0.3-0.2c0.2-0.1,0.5-0.3,0.7-0.4
		c0.2-0.1,0.5-0.3,0.7-0.4c0.8-0.1,1.6-0.2,2.4-0.4c0.4-0.1,0.8-0.1,1.2-0.2c0.2,0,0.4-0.1,0.6-0.1l-1.6,2.6
		c-0.6,0.2-1.1,0.4-1.7,0.6c-0.3,0.1-0.6,0.2-0.8,0.3c-0.3,0.1-0.6,0.2-0.8,0.3l0,0l0,0l-2,1.5l0,0l0,0l-1,1l0,0l1.1-0.9l2.1-1.3
		c0.3-0.1,0.6-0.2,0.8-0.2c0.3-0.1,0.6-0.2,0.9-0.2c0.3-0.1,0.5-0.1,0.8-0.2l-1.4,2.2l-2.5,2.9l-1.3,1.5c-0.4,0.5-0.8,1-1.3,1.4l0,0
		c0,0,0,0,0,0c0,0,0,0,0,0c0.5-0.5,0.9-0.9,1.4-1.4l1.3-1.4l2.6-2.7c0,0.1,0,0.2,0.1,0.3c0,0.2,0.1,0.4,0.1,0.5
		c0.1,0.2,0.1,0.3,0.2,0.5l-0.4,1.1l0.1,0l0.4-1.1l0,0c0.1-0.2,0.1-0.4,0.1-0.6c0-0.2,0-0.4,0-0.5c0-0.2,0-0.4,0-0.5
		c0-0.1,0-0.3-0.2-0.4l1-1.5c0,0,0,0.1,0,0.1c0,0.1,0,0.2,0,0.3c0,0.1,0,0.2,0,0.3l0,0.1l0,0.1c0,0,0,0.1,0,0.1l0,0.1l0,0.1l0,0.1
		c0,0,0,0,0,0.1l0,0.1c0,0,0,0,0,0c0,0,0.1,0.1,0.1,0.1c0,0.1,0,0.3,0,0.4c0,0.2,0,0.3-0.1,0.5l0,0.2c0,0,0,0.1,0,0.1
		c0,0,0,0.1,0,0.1l0.1,0c0-0.1,0.1-0.1,0.1-0.2c0-0.1,0.1-0.1,0.1-0.2c0.1-0.2,0.1-0.3,0.2-0.5c0-0.2,0.1-0.4,0.1-0.6
		c0-0.1,0-0.2-0.1-0.3c0,0,0-0.1,0-0.1l0,0c0,0,0,0,0,0l0,0c0-0.1-0.1-0.3-0.1-0.4c0-0.2,0-0.3-0.1-0.5c0-0.2,0-0.3-0.1-0.5
		c0-0.1,0-0.1-0.1-0.2l0,0c0,0,0,0,0,0v0l1.5-2.2c0,0.1,0,0.1,0,0.2c0,0.2,0.1,0.4,0.2,0.6c0.1,0.2,0.2,0.4,0.4,0.6l0,0
		c0.1,0.3,0.2,0.6,0.3,0.9c0.1,0.3,0.2,0.6,0.2,0.9c0,0,0,0.1,0,0.1l0,0.1v0.1v0.2v0.5v0.9h0.1v-0.9v-0.5v-0.2v-0.1l0-0.1
		c0,0,0-0.1,0-0.1c-0.1-0.3-0.1-0.6-0.2-0.9c-0.1-0.3-0.2-0.6-0.3-0.9c0.2-0.2,0.3-0.4,0.4-0.6c0.1-0.2,0.1-0.4,0.2-0.6
		c0-0.1,0-0.2,0-0.3c0-0.1,0-0.1,0-0.2c0-0.1,0-0.1,0-0.2c0-0.1-0.1-0.2-0.2-0.3c-0.1-0.1-0.1-0.2-0.3-0.3l1.9-2.8c0,0.3,0,0.7,0,1
		l0,0.2c0,0,0,0.1,0,0.2c0,0.1,0,0.1,0,0.2l0,0.1c0,0,0,0,0,0l0,0c0,0,0,0.1,0,0.1c0,0,0,0,0,0l0,0l0,0c0,0,0,0.1,0.1,0.1
		c0,0.1,0.1,0.2,0.1,0.3c0.1,0.3,0.3,0.7,0.4,1c0.1,0.4,0.2,0.7,0.4,1.1c0.1,0.4,0.2,0.7,0.3,1.1l0,0.1c0,0,0,0.1,0,0.1
		c0,0.1,0,0.2,0,0.3c0,0.2,0,0.4,0,0.6c0,0.2,0,0.4,0,0.6l0,0.6l0.1,0c0.1-0.4,0.1-0.7,0.1-1.1c0-0.2,0-0.4,0-0.6c0-0.2,0-0.4,0-0.6
		c0-0.1,0-0.2,0-0.3c0-0.1,0-0.2,0-0.3c0-0.2-0.1-0.4-0.1-0.6c-0.1-0.4-0.2-0.7-0.3-1.1c-0.1-0.4-0.2-0.7-0.3-1.1
		c0-0.1-0.1-0.2-0.1-0.3c0,0,0-0.1-0.1-0.1l0,0l0,0c0,0,0,0,0,0c0,0,0,0,0,0l0,0c0,0,0,0,0,0l0-0.1c0,0,0-0.1,0-0.1s0-0.1,0-0.1
		l0-0.1c0-0.4,0-0.7,0-1.1c0-0.2,0-0.4,0-0.6c0-0.1,0-0.2-0.1-0.3l1.4-2.1c0.2-0.2,0.4-0.4,0.6-0.7c0,0.1,0,0.1,0,0.2
		c0.1,0.4,0.2,0.9,0.3,1.3l0,0.1c0,0,0,0,0,0l0,0l0,0l0.1,0.2l0.1,0.3l0.2,0.6c0.2,0.4,0.3,0.8,0.5,1.2c0.1,0.2,0.2,0.4,0.3,0.6
		c0.1,0.1,0.1,0.2,0.2,0.3l0.1,0.1c0,0,0,0.1,0.1,0.1c0.1,0.2,0.2,0.4,0.2,0.6c0.1,0.2,0.1,0.4,0.2,0.6l0.4,1.3c0,0.1,0,0.1,0.1,0.2
		l0,0.1c0,0,0,0,0,0.1c0,0.1,0,0.2,0,0.3c0,0.2,0,0.4,0,0.7l0.1,0c0-0.2,0.1-0.4,0.1-0.7c0-0.1,0-0.2,0-0.3c0,0,0-0.1,0-0.1l0-0.1
		c0,0,0-0.1,0-0.2c-0.1-0.4-0.1-0.9-0.2-1.3c0-0.2-0.1-0.4-0.1-0.7c-0.1-0.2-0.1-0.4-0.2-0.7c0-0.1,0-0.1-0.1-0.2l-0.1-0.2
		c0-0.1-0.1-0.2-0.1-0.3c-0.1-0.2-0.1-0.4-0.2-0.6c-0.1-0.4-0.3-0.8-0.4-1.2l-0.2-0.6L42,80L42,79.9l0,0l0,0c0,0,0,0,0,0l0-0.1
		c-0.1-0.4-0.2-0.8-0.3-1.3c0-0.1-0.1-0.2-0.1-0.3c0-0.1-0.1-0.2-0.1-0.3c0,0,0,0,0-0.1c0.9-1.1,1.8-2.2,2.7-3.2
		c0.5-0.6,0.9-1.1,1.4-1.6c0,0,0,0.1,0,0.1c0,0,0,0.1,0.1,0.1l0.1,0.2l0.4,0.9l0.4,0.9l0.4,0.9l0,0l0,0l0.9,1.5
		c0.3,0.5,0.6,1,0.9,1.5l0.4,0.8c0.1,0.3,0.3,0.5,0.4,0.8c0.3,0.5,0.5,1.1,0.5,1.7l0.1,0c0-0.1,0-0.2,0-0.2c0-0.1,0-0.2,0-0.2
		c0-0.2,0-0.3,0-0.5c0-0.3-0.1-0.6-0.2-0.9c-0.1-0.3-0.2-0.6-0.3-0.9l-0.2-0.4l-0.1-0.2l-0.1-0.2c-0.2-0.6-0.5-1.1-0.8-1.6
		c-0.3-0.5-0.5-1-0.8-1.6l-0.4-0.9l-0.4-1l-0.4-1l-0.1-0.2c0,0,0-0.1-0.1-0.1c0,0,0-0.1-0.1-0.1c-0.1-0.1-0.1-0.1-0.2-0.2
		c0,0-0.1,0-0.1-0.1c0,0,0,0,0.1-0.1c0.3-0.4,0.7-0.8,1-1.1c0.2-0.2,0.3-0.4,0.5-0.5c0,0,0.1-0.1,0.1-0.1c0,0,0,0,0,0
		c0.1,0.1,0.1,0.3,0.2,0.4c0.2,0.2,0.4,0.4,0.6,0.6l0.7,0.4c0.2,0.1,0.4,0.3,0.6,0.4l0.4,0.4l0.5,0.4c0.3,0.3,0.7,0.6,1,0.9
		c0.3,0.3,0.7,0.6,1,0.9c0.2,0.1,0.3,0.3,0.5,0.4c0.2,0.1,0.3,0.3,0.5,0.4c0.1,0.1,0.1,0.1,0.2,0.2c0.1,0.1,0.1,0.2,0.2,0.3
		c0.1,0.2,0.3,0.4,0.4,0.6c0.1,0.2,0.2,0.4,0.3,0.6c0.1,0.2,0.2,0.4,0.2,0.7l0.1,0l0-0.2c0-0.1,0-0.1,0-0.2c0-0.1,0-0.1,0-0.2l0-0.1
		c0,0,0-0.1,0-0.1c0-0.3-0.1-0.5-0.2-0.7c-0.1-0.2-0.2-0.5-0.3-0.7c-0.1-0.1-0.1-0.2-0.2-0.3c-0.1-0.1-0.1-0.2-0.2-0.3l0,0l0,0
		c-0.1-0.2-0.3-0.3-0.5-0.5c-0.2-0.2-0.3-0.3-0.5-0.5c-0.3-0.3-0.6-0.6-0.9-1c-0.3-0.3-0.6-0.6-0.9-0.9L51,71.9l-0.5-0.5l0,0l-0.1,0
		l-1.3-0.9c-0.1-0.1-0.3-0.2-0.4-0.2c0.2,0,0.5,0.1,0.7,0.1c0.5,0.1,0.9,0.1,1.4,0.2c0.2,0,0.5,0.1,0.7,0.1c0.1,0,0.1,0,0.2,0
		c0.1,0,0.1,0,0.2,0c0,0,0.1,0,0.1,0l0.1,0c0.1,0,0.1,0,0.2,0c0.5,0,0.9,0,1.4,0.1l1.4,0.1l0.2,0l0.2,0l0.3,0c0.2,0,0.5,0.1,0.7,0.1
		c0.2,0,0.5,0.1,0.7,0.1c0.2,0,0.5,0.1,0.7,0.1l0-0.1C57.5,71,57.3,70.9,57,70.9"/>
	<path class="st1" d="M66.9,94.2C66.9,94.1,66.9,94.1,66.9,94.2C66.9,94.1,66.9,94.1,66.9,94.2C66.9,94.1,66.9,94.1,66.9,94.2"/>
	<path class="st4" d="M39.2,38.2c0,0,0.6,5,3.5,8.6c2.9,3.6,6.2,11.5,6.6,12.3s6.6,10.6,6.6,10.6l-1.7-0.1c0,0-15.4-21-14.1-23.2
		s-0.5-2.3-0.5-2.3l-1.2-2.4L39.2,38.2z"/>
	<path class="st5" d="M59.3,13.2c0,0-1.3,15.9-1.7,18.3s0.6,24.4,0.4,24.6s-0.5,8.7-0.5,9.5c-0.1,0.8-1.4,5.3-1.4,5.3l-1.8-1.5
		c0,0,3.1-15.7,2-17.3s-0.5-13.4-0.7-14.7c-0.2-1.3-0.3-8.1,0.4-10.9c0.7-2.8,3.4-1.2,1.1-5c-2.3-3.8-0.8-9.9-0.8-9.9L59.3,13.2z"/>
	<path class="st6" d="M72.9,39.1c0,0-8.9,10-8.5,13c0.4,3,1.4,10.3,0.2,12.9c-1.3,2.6-0.8,4.9-0.8,4.9l-3.3,2c0,0,1.4-6.9,2.2-9.1
		c0.9-2.2-1-11.4,0.3-11.9c1.3-0.4-0.9-3.8,1.6-5.2s4.4-2.9,4.4-2.9L72.9,39.1z"/>
	<path class="st7" d="M38.4,28.1c0,0-0.3-4.2-1.9-5.4c-1.6-1.2-2.9-2.3-3.7-2.9c-0.9-0.6-1.2-0.9-1.6-0.8s-1,0.2-1.6,0.2
		c-0.6,0.1-0.7,0-1.1,0.8c-0.3,0.8-0.4,1.4-1,2.4c-0.6,0.9-0.7,0.9-0.9,1.9s-1.1,2.1,0.9,3.2s4.7,2,5.4,2.2c0.7,0.2,2.7,0.3,2.7,0.3
		s-0.1,0.9,1.2,0C38.1,29.1,38.4,28.1,38.4,28.1z"/>
	<path class="st8" d="M36.5,26.1c0,0-2.1-1.4,1.2-1.3c3.3,0.1,4.2-0.3,6,0.6c1.8,1,3.3,0.9,3.8,2.6s1.5,3.3,1.5,4.5s0.1,2,0,3
		c-0.1,0.9-0.1,4.8,0,5.9s0.5,4.6,0,5.9s-0.5,1.7-1.3,2.2c-0.9,0.5-1.4,0.8-2.3,1c-0.9,0.2-1,0.8-2,0s-3.3-2.1-3.6-2.5
		c-0.2-0.4-0.4-2.3-0.3-3.8c0.1-1.5-0.2-6.4-0.7-7.9c-0.6-1.5-0.6-2.1-1.3-4.1s-0.5-3.5-0.8-4.2C36.5,27.1,36.5,26.1,36.5,26.1z"/>
	<path class="st9" d="M41.3,35.6c0,0-1.5-3.1-1.8-4.5c-0.3-1.4-0.7-4.7,0.5-5.5c1.2-0.7,2.2-1.6,3.9-1c1.7,0.7,5.2,2.9,5.5,4.3
		s1.2,2.7,0.4,4.6c-0.7,1.9-1.1,3.5-1.8,4.5c-0.7,1-1.1,1.3-2,1.7c-0.9,0.4-1.1,0.8-1.9,0c-0.9-0.8-1.1-0.7-1.8-1.2
		C41.8,38,41.3,35.6,41.3,35.6z"/>
	<path class="st10" d="M40.4,36.3c-1.5-0.1-1.4-1.4-1.5-0.1c-0.2,1.3,0.5,1.4-0.5,1.9c-1,0.5-1.2,0.3-1.7,0.6
		c-0.5,0.3-0.5-0.3-0.6,1c-0.1,1.3,0.1,3.6,1.1,4.3s3.8,2.5,5.4,2.4c1.6-0.1,1.8,0.2,2.6-0.9s1-0.6,0.8-1.5s-0.5-1.6-0.5-1.6
		s0.5,0.4,1.2,0.2c0.7-0.2,0.7-1.2,0.6-2.4c-0.1-1.1-0.8-2.5-1.8-3.5s-1.7-1.4-2.4-1.7c-0.7-0.2-0.6-0.7-1.4-0.3
		c-0.7,0.4-0.5,0.9-0.5,0.9L40.4,36.3z"/>
	<path class="st11" d="M39.2,34.6c-0.8-2.4-1.4-4.6-3.7-6.1c-2.3-1.5-2.8-3-5.2-3.8c-2.3-0.7-3.8-1.3-5.2,0
		c-1.4,1.3-2.4,3.5-2.9,4.5s-0.5,1-0.9,2.6s-0.7,2.2-1.1,2.7c-0.3,0.5-0.8,0.3-0.5,1.3c0.3,1,0.5,2.1,1.2,2.4c0.7,0.3,0.7,0.7,2,0.7
		c1.2,0,3.9,0.1,4.5,0c0.6-0.1,1.5,0.2,2.9,0c1.4-0.1,3.7,0.1,4.5,0c0.8-0.1,1,0.4,1.8-0.4c0.9-0.8,1.3-0.7,1.7-1.3
		c0.4-0.5,0.1-0.1,0.5-1.2S39.2,34.6,39.2,34.6z"/>
	<path class="st7" d="M35.1,38.1c-0.6-0.1-1.6-0.9-3.9-0.9s-4.5-0.2-5.3,0.4s-0.9,2-0.7,3.9s0,5.7,0.5,6.4c0.5,0.8,1.5,1.7,1.5,2.9
		s-0.6,2.7,0.6,2.3c1.2-0.4,2.2-1.8,3.6-2.5c1.4-0.7,3-1,3.6-2.2c0.6-1.2,2.1-2.9,2.3-3.7c0.2-0.8,1.4-3.8,1.1-4.3
		c-0.3-0.4-0.7-1.7-1.4-1.8S35.1,38.1,35.1,38.1z"/>
	<path class="st12" d="M35.9,39.1c0,0,0.4,1.7-0.6,3.4c-1,1.7-0.7,2.8-1.8,3.5c-1.1,0.8-1.2,0.6-1.2,1.5c0,0.9,0.1,2,1.3,1.9
		s3.5,0.2,5.5-0.7c2-0.9,2.8-0.1,3.5-2c0.7-1.9,0.6-2.4,0-3.7c-0.6-1.3-0.2-1.4-1.4-2.4s-2.4-1.8-2.9-2.1c-0.5-0.3-1.2,0.4-1.7,0
		C36.2,38.2,35.9,39.1,35.9,39.1z"/>
	<path class="st13" d="M38.9,31.3c-1.7-0.5-0.1-0.5-3-0.7c-2.8-0.2-4.3-1.3-5.4,0c-1.1,1.3-2.4,1-1.1,2.8s0.5,1.9,2.4,2.9
		s1.8,1,3.3,1.1c1.5,0.1,1.3,1.2,2.5,0c1.2-1.2,1.1-1,1.5-1.7c0.5-0.7,0.6-0.3,0.6-1.5S38.9,31.3,38.9,31.3z"/>
	<path class="st14" d="M39.5,36.4c-0.9-0.7-1.4-1.2-2.8-1.6c-1.4-0.3-2-1.1-2.4-0.6c-0.4,0.6-0.6,0.9-0.8,1.9
		c-0.2,0.9-0.2,0.8-0.5,1.3c-0.3,0.5-1.5,0.7-0.3,0.5c1.2-0.2,1.3-0.4,2-0.3c0.7,0,0.7-0.3,1.5,0.2c0.8,0.5,0.8,0.8,1.5,0.6
		c0.6-0.3,0.8,0.1,1.4-0.1c0.6-0.2,1.1,0.1,0.9-0.7C40,36.8,39.5,36.4,39.5,36.4z"/>
	<path class="st15" d="M42.3,33.4c-0.2-1.1-1.4-2.5-0.6-3.8c0.8-1.3,1.8-3.5,3.2-2.6c1.3,0.8,2,1.4,2.1,2.9c0.2,1.5,1.2,3.8,1.3,5.2
		c0.1,1.4,0.3,6.2,0.3,7.9c0,1.7,0.8,4.5-1,5.3s-2.3,0.9-3.5,0.9c-1.2-0.1-2.3,0-1.5-0.6c0.8-0.6,2.8-1.4,3.4-2.5
		c0.6-1,1.6-3.9,1.7-4.4s0.8-3.9-0.4-4.8c-1.2-0.9-1.3-1.7-2.6-2.5C43.6,33.7,42.3,33.4,42.3,33.4z"/>
	<path class="st16" d="M37.1,35.8c-0.3,0.3,0.3,0.5,0,0.7c-0.3,0.3-0.5,0.1-0.6,0.4s0.3,0.7,0.7,0.6c0.4-0.1,0,0.3,0.4-0.1
		c0.4-0.4,0.6-0.2,0.5-0.5c-0.1-0.3,0-0.4-0.2-0.6S37.1,35.8,37.1,35.8z"/>
	<path class="st7" d="M64.9,37.5c0,0-2.4-2.1-2.3-3.5c0.1-1.4,0-2.7,0-3.4c0.1-0.7,0.1-1.1,0.3-1.3c0.2-0.2,0.5-0.5,0.9-0.8
		c0.3-0.3,0.3-0.4,1-0.2c0.6,0.2,1,0.4,1.8,0.6c0.8,0.1,0.9,0,1.5,0.4c0.6,0.4,1.7,0.4,1.5,1.9c-0.2,1.6-0.9,3.5-1.2,4
		c-0.2,0.5-1.1,1.7-1.1,1.7s0.6,0.4-0.5,0.7S64.9,37.5,64.9,37.5z"/>
	<path class="st8" d="M64.6,35.6c0,0,0.1-1.8-1.3,0.1s-2.1,2.2-2.4,3.6c-0.3,1.5-1,2.3-0.2,3.3c0.8,1,1.2,2.4,1.9,2.9
		c0.7,0.5,1.2,1,1.7,1.4c0.6,0.4,2.9,2.1,3.5,2.8c0.6,0.6,2.5,2.4,3.5,2.7c1,0.3,1.2,0.5,1.9,0.3s1.1-0.4,1.6-0.8
		c0.5-0.4,0.9-0.2,0.9-1.1c0-0.9,0.3-2.8,0.2-3.1c-0.2-0.3-1.2-1.3-2.1-1.9s-3.7-3.1-4.3-4.1c-0.6-1-1-1.3-1.8-2.6
		c-0.9-1.3-1.8-1.9-2.1-2.4C65.2,36,64.6,35.6,64.6,35.6z"/>
	<path class="st9" d="M68,42.6c0,0-1.1-2.2-1.8-3c-0.7-0.8-2.4-2.6-3.4-2.2s-2,0.5-2.4,1.7c-0.4,1.3-0.7,4.2,0,5
		c0.7,0.8,1,1.9,2.5,2.3c1.4,0.5,2.5,1,3.4,1.1s1.2,0,1.9-0.4s0.9-0.2,0.9-1.1c-0.1-0.8,0.1-1,0.1-1.5C69.2,44,68,42.6,68,42.6z"/>
	<path class="st10" d="M68.9,42.4c0.6-0.9-0.2-1.4,0.6-0.9c0.9,0.5,0.6,0.9,1.3,0.6s0.7-0.5,1.1-0.7s0-0.4,0.8,0.1
		c0.8,0.6,2.1,1.7,2,2.6c0,1-0.3,3.2-1.1,4.1c-0.8,0.9-0.7,1.1-1.7,1c-1,0-0.8,0.3-1.3-0.3c-0.5-0.6-0.7-1-0.7-1s0,0.5-0.5,0.7
		c-0.4,0.3-1-0.2-1.7-0.7c-0.7-0.6-1.1-1.6-1.2-2.6c-0.1-1-0.1-1.6,0.2-2.1c0.2-0.5-0.1-0.7,0.5-0.9c0.6-0.2,0.8,0.1,0.8,0.1
		L68.9,42.4z"/>
	<path class="st11" d="M68.4,40.9c-1.1-1.6-2-2.9-1.9-4.8c0.2-1.9-0.5-3,0.2-4.6s1-2.7,2.4-2.9c1.4-0.2,3.2,0.3,4,0.5
		s0.8,0.2,1.9,0.7c1.1,0.6,1.6,0.6,2.1,0.6c0.4,0,0.5-0.3,1,0.3s1,1.3,0.9,1.8c-0.2,0.5,0.1,0.7-0.5,1.4c-0.6,0.7-1.7,2.2-2.1,2.5
		c-0.4,0.3-0.6,0.9-1.3,1.6c-0.7,0.7-1.6,2.1-2,2.5c-0.4,0.4-0.2,0.7-1.1,0.8s-1,0.4-1.5,0.4c-0.5,0-0.1,0-0.9-0.3
		C68.7,41.2,68.4,40.9,68.4,40.9z"/>
	<path class="st7" d="M72.3,40.3c0.2-0.4,0.2-1.3,1.3-2.6s2-2.6,2.7-2.8c0.8-0.1,1.6,0.4,2.6,1.4c1.1,1,3.3,2.6,3.6,3.2
		s0.3,1.6,1,2.1c0.7,0.6,1.9,0.9,1.1,1.4c-0.8,0.5-2.1,0.4-3.1,0.8s-2,1.2-2.9,1c-0.9-0.2-2.7-0.2-3.2-0.4c-0.6-0.2-2.9-1-3-1.4
		s-0.7-1.2-0.4-1.6S72.3,40.3,72.3,40.3z"/>
	<path class="st12" d="M72.5,41.2c0,0,0.8,1,2.3,1.2c1.4,0.2,1.9,0.9,2.9,0.6c0.9-0.2,0.9-0.4,1.4,0.1s1.1,1,0.5,1.6
		s-1.5,2.1-2.9,2.7c-1.4,0.7-1.4,1.5-2.8,1c-1.4-0.5-1.7-0.8-2.2-1.7c-0.5-1-0.7-0.7-0.8-1.8c0-1.1,0.1-2.1,0.1-2.6
		c0-0.4,0.8-0.5,0.8-0.9S72.5,41.2,72.5,41.2z"/>
	<path class="st13" d="M66.6,39.3c0.5-1.2-0.2-0.3,1-2c1.2-1.7,1.2-3,2.5-3c1.3,0,1.7-0.9,2.1,0.6s0.9,1.1,0.6,2.7
		c-0.3,1.5-0.2,1.5-0.9,2.3c-0.7,0.9,0.1,1.2-1.1,1.4c-1.2,0.2-1.1,0.1-1.7,0.1c-0.7-0.1-0.5,0.2-1.1-0.3
		C67.2,40.6,66.6,39.3,66.6,39.3z"/>
	<path class="st14" d="M69.3,42c0-0.8-0.1-1.4,0.4-2.3c0.4-0.9,0.2-1.6,0.8-1.6c0.5,0,0.8,0.1,1.5,0.4c0.7,0.3,0.6,0.3,1,0.4
		c0.4,0.1,1.1-0.5,0.4,0.1s-0.8,0.5-1.1,0.9c-0.3,0.4-0.5,0.3-0.6,0.9s0.1,0.8-0.4,1.1s-0.3,0.5-0.7,0.7c-0.4,0.3-0.4,0.6-0.8,0.2
		C69.3,42.4,69.3,42,69.3,42z"/>
	<path class="st15" d="M66.2,42.2c-0.6-0.6-0.8-1.9-2-2.1c-1.1-0.2-2.9-0.6-3,0.5c-0.1,1.1-0.1,1.7,0.7,2.5c0.8,0.8,1.7,2.4,2.5,3.1
		s3.5,3,4.5,3.8c1,0.8,2.3,2.5,3.6,1.9c1.4-0.6,1.6-0.8,2.1-1.5c0.5-0.7,1.1-1.2,0.4-1.1s-2.1,0.9-3,0.8s-3.1-0.9-3.3-1.1
		c-0.3-0.1-2.7-1.4-2.7-2.4c0-1.1-0.4-1.5-0.3-2.5S66.2,42.2,66.2,42.2z"/>
	<path class="st16" d="M70,40.3c0.3-0.1,0.1,0.4,0.4,0.3s0.3-0.3,0.5-0.1c0.2,0.1,0.3,0.5,0,0.6c-0.2,0.2,0.1,0.1-0.2,0.2
		s-0.4,0.3-0.6,0.1c-0.1-0.2-0.3-0.2-0.2-0.4C70,40.8,70,40.3,70,40.3z"/>
	<path class="st7" d="M62.3,23c0,0,3.1,1.5,4.6,1c1.5-0.6,2.8-1,3.5-1.3c0.7-0.3,1.1-0.5,1.2-0.8s0.3-0.7,0.5-1.1
		c0.2-0.4,0.3-0.5-0.1-1c-0.4-0.6-0.8-0.8-1.3-1.6c-0.4-0.8-0.4-0.9-1-1.3c-0.6-0.5-1-1.6-2.6-0.7c-1.6,0.8-3.3,2.2-3.7,2.7
		S62,20.4,62,20.4s-0.6-0.5-0.5,0.8C61.7,22.4,62.3,23,62.3,23z"/>
	<path class="st8" d="M64.5,22.6c0,0,1.8-0.8,0.4,1.3c-1.4,2.1-1.5,2.9-2.9,3.7c-1.4,0.8-2,1.8-3.4,1.4c-1.4-0.4-2.9-0.3-3.8-0.8
		c-0.8-0.5-1.5-0.8-2.1-1.2s-3.3-2-4.2-2.4c-0.9-0.4-3.5-1.5-4.1-2.4c-0.7-0.9-1-1-1-1.8c0-0.8,0-1.3,0.2-1.9c0.2-0.7-0.1-1,0.8-1.3
		s2.8-1.4,3.2-1.3c0.4,0,1.8,0.7,2.8,1.3c1,0.6,4.6,2.5,5.9,2.7c1.3,0.2,1.7,0.5,3.4,0.8c1.7,0.3,2.6,1.1,3.3,1.2
		C63.8,22.2,64.5,22.6,64.5,22.6z"/>
	<path class="st9" d="M55.9,21.8c0,0,2.8,0.3,3.8,0.7c1.1,0.4,3.6,1.4,3.6,2.6c0,1.1,0.3,2.1-0.9,3c-1.2,0.8-4.1,2.3-5.2,1.9
		c-1.1-0.3-2.4-0.3-3.4-1.6c-1-1.3-2-2.1-2.4-3s-0.5-1.2-0.3-2c0.1-0.8-0.1-1,0.8-1.3c0.9-0.2,1-0.5,1.6-0.7S55.9,21.8,55.9,21.8z"
		/>
	<path class="st10" d="M55.7,21c0.7-1,1.6-0.3,0.7-1c-0.9-0.7-1.2-0.2-1.1-1.1s0.3-0.9,0.3-1.3c0-0.4,0.4-0.2-0.5-0.8
		s-2.5-1.4-3.5-1s-3.3,1.5-3.9,2.6c-0.6,1.1-0.9,1.1-0.4,2.1c0.4,1,0,0.9,0.7,1.2c0.8,0.3,1.3,0.3,1.3,0.3s-0.5,0.2-0.6,0.7
		c-0.1,0.5,0.6,0.9,1.4,1.4c0.8,0.4,2.1,0.5,3.2,0.2c1.1-0.3,1.7-0.5,2.2-0.9c0.5-0.4,0.7-0.1,0.7-0.8c0-0.7-0.4-0.7-0.4-0.7
		L55.7,21z"/>
	<path class="st11" d="M57.4,20.9c2,0.5,3.8,0.9,5.8,0c2-0.9,3.3-0.6,4.8-1.9c1.5-1.2,2.5-2,2.1-3.4s-1.5-3-2-3.8
		c-0.5-0.7-0.5-0.7-1.5-1.6c-1-0.9-1.3-1.4-1.5-1.8c-0.2-0.4,0.1-0.6-0.7-0.9c-0.8-0.2-1.7-0.5-2.2-0.2s-0.8,0.2-1.3,1
		s-1.7,2.5-1.9,3s-0.7,0.9-1.2,1.9s-1.6,2.4-1.8,3c-0.3,0.6-0.7,0.5-0.5,1.4s0,1.1,0.2,1.6c0.2,0.5,0,0.1,0.6,0.8
		C57,20.7,57.4,20.9,57.4,20.9z"/>
	<path class="st7" d="M56.6,16.7c0.3-0.3,1.3-0.7,2.2-2.2s2-2.9,1.9-3.7c-0.1-0.8-1-1.4-2.4-2.1c-1.4-0.7-4-2.3-4.7-2.3
		c-0.7,0-1.8,0.3-2.6-0.2c-0.8-0.5-1.6-1.5-1.8-0.6c-0.2,0.9,0.4,2.2,0.3,3.4s-0.5,2.4,0.1,3.3c0.6,0.8,1.2,2.6,1.6,3
		s2.1,2.5,2.6,2.5s1.5,0.2,1.9-0.2C56,17.2,56.6,16.7,56.6,16.7z"/>
	<path class="st12" d="M55.6,16.9c0,0-1.4-0.4-2.1-1.8c-0.7-1.3-1.7-1.6-1.8-2.6c-0.1-1,0.1-1-0.6-1.4c-0.7-0.4-1.4-0.8-1.9,0.1
		c-0.5,0.8-1.6,2.2-1.8,3.9s-1.1,1.9,0,3.1c1,1.2,1.4,1.4,2.6,1.5s1,0.4,2.2,0.1c1.2-0.4,2.2-0.9,2.6-1.1c0.4-0.2,0.2-1,0.7-1.1
		C56.1,17.4,55.6,16.9,55.6,16.9z"/>
	<path class="st13" d="M59.8,22c1.1-0.9,0.4,0.1,1.7-1.7c1.3-1.8,2.7-2.3,2.2-3.6s0.3-2-1.5-1.9c-1.8,0.1-1.5-0.5-3,0.4
		c-1.5,0.9-1.4,0.7-2.1,1.7s-1.3,0.4-1,1.6c0.3,1.3,0.2,1.1,0.6,1.7s-0.1,0.5,0.8,1C58.2,21.9,59.8,22,59.8,22z"/>
	<path class="st14" d="M56,20.4c0.8-0.3,1.4-0.4,2.2-1.2c0.8-0.8,1.6-0.8,1.4-1.3c-0.2-0.5-0.4-0.8-1-1.3c-0.6-0.5-0.5-0.4-0.7-0.8
		c-0.2-0.4,0.1-1.3-0.2-0.4c-0.3,0.9-0.3,1-0.6,1.4c-0.3,0.4-0.1,0.6-0.8,0.9c-0.7,0.3-0.9,0.2-1,0.8s-0.4,0.5-0.5,1
		s-0.5,0.7,0.1,0.9C55.5,20.5,56,20.4,56,20.4z"/>
	<path class="st15" d="M56.9,23.5c0.8,0.3,2.3,0.1,2.9,1.2c0.6,1,1.7,2.6,0.6,3.2c-1.1,0.6-1.8,0.7-2.9,0.3
		c-1.1-0.5-3.1-0.7-4.1-1.3c-1-0.5-4.4-2.3-5.6-3s-3.5-1.3-3.3-2.9s0.3-1.9,0.8-2.6c0.5-0.7,0.9-1.5,1-0.7c0.1,0.8-0.1,2.4,0.3,3.3
		c0.5,0.9,2.1,2.7,2.4,2.9c0.3,0.2,2.4,2.2,3.6,1.7s1.8-0.2,2.8-0.7C56.2,24.2,56.9,23.5,56.9,23.5z"/>
	<path class="st16" d="M57.5,19.1c0-0.3-0.5,0-0.5-0.3s0.2-0.4-0.1-0.5c-0.2-0.2-0.6-0.1-0.7,0.2s-0.2-0.1-0.1,0.3
		c0.1,0.4-0.1,0.5,0.1,0.6c0.3,0.1,0.3,0.2,0.5,0.1C57,19.3,57.5,19.1,57.5,19.1z"/>
	<path class="st0" d="M56.1,74.3c0.6-1.9,1.2-2.3,0.8-3.9c-0.3-1.6-2.6-4.5-2.6-4.5s-4.6-4.2-6.3,2.4c-1.7,6.6-1.9,5-1.2,7.9
		c0.7,2.9,0,3.5,1.8,4.5c1.8,0.9,2.2,2,4,3.5c1.8,1.5,2.3,2.2,4.7,3.1c2.4,1,3.6,1.8,4,4.8c0.4,3,1.5,5.3,3.2,6.5
		c1.7,1.2,2.5,2.1,2.5,2.1l0.7,1.5c0,0,4.5-5.9,5-7.8c0.5-1.9,1.7-5.1,1.7-5.1s-1-1.9-1.6-6c-0.6-4.2-1-6.3-1-6.3s-2-3.6-3.9-5.3
		c-2-1.6-3.8-3.3-4.9-4c-1.1-0.7-2.5-1.2-3.5-0.6c-1,0.6-1.6-0.3-1.8,2.7c-0.2,3-0.2,3.4-0.8,3.9C56.5,74.3,56,75,56.1,74.3"/>
	<path class="st1" d="M68.1,100.5c0-0.3,0-0.6,0-0.9l0-0.9l0-0.9c0-0.3,0-0.6-0.1-0.9c-0.1-0.7-0.2-1.3-0.4-2
		c0.1,0.1,0.3,0.2,0.4,0.3c0.2,0.2,0.5,0.4,0.7,0.6c0.2,0.2,0.4,0.4,0.6,0.7c0.2,0.2,0.4,0.5,0.5,0.7l0,0c0,0,0,0,0.1,0
		c0,0,0,0,0-0.1c0-0.2-0.1-0.3-0.1-0.4c0-0.1-0.1-0.1-0.1-0.2c0-0.1-0.1-0.1-0.1-0.2c-0.2-0.3-0.4-0.5-0.5-0.8
		c-0.2-0.2-0.4-0.5-0.6-0.7c-0.2-0.2-0.4-0.5-0.6-0.7c0,0,0,0,0,0c0,0-0.1-0.1-0.2-0.1l0,0l0,0l0,0c0,0,0,0,0-0.1
		c0-0.2-0.1-0.3-0.3-0.4c0-0.1,0-0.1,0-0.2c-0.1-0.3-0.1-0.6-0.2-0.8l0-0.2c0-0.1,0-0.1-0.1-0.2c0,0,0-0.1,0-0.1l0-0.1
		c0-0.1-0.1-0.1-0.1-0.2c-0.2-0.4-0.4-0.7-0.5-1c0,0,0,0,0.1,0l0.8,0.3c0.5,0.2,1,0.3,1.5,0.5c0.5,0.2,1,0.4,1.5,0.6
		c0.2,0.1,0.5,0.2,0.7,0.4c0.2,0.1,0.4,0.3,0.6,0.5l0,0c0,0,0,0,0.1,0c0,0,0,0,0-0.1c-0.2-0.2-0.4-0.4-0.6-0.6
		c-0.2-0.2-0.4-0.3-0.7-0.4c-0.5-0.3-0.9-0.5-1.4-0.7c-0.5-0.2-1-0.4-1.5-0.6l-0.7-0.3c-0.2-0.1-0.4-0.2-0.7-0.3c0,0,0,0,0-0.1l0,0
		c0,0,0,0,0,0c0-0.1,0-0.2-0.1-0.3c-0.1,0-0.1,0-0.2,0c-0.5-0.8-1-1.6-1.5-2.4c-0.1-0.1-0.1-0.2-0.2-0.3c0.1,0,0.3,0.1,0.4,0.1
		c0.4,0.1,0.9,0.3,1.3,0.4c0.4,0.1,0.9,0.2,1.3,0.3c0.4,0.1,0.9,0.2,1.3,0.2c0.4,0.1,0.7,0.3,1.1,0.4c0.4,0.2,0.7,0.3,1.1,0.5
		c0.4,0.2,0.7,0.4,1,0.6c0.2,0.1,0.3,0.2,0.5,0.4c0.1,0.1,0.3,0.3,0.3,0.5l0,0c0,0,0,0,0.1,0c0,0,0,0,0-0.1
		c-0.1-0.2-0.2-0.4-0.3-0.5c-0.1-0.1-0.3-0.3-0.5-0.4c-0.3-0.2-0.7-0.5-1-0.7c-0.3-0.2-0.7-0.4-1.1-0.6c-0.4-0.2-0.7-0.3-1.1-0.5
		l0,0l0,0c-0.4-0.1-0.9-0.2-1.3-0.3c-0.4-0.1-0.9-0.2-1.3-0.4c-0.4-0.1-0.9-0.3-1.3-0.4c-0.4-0.1-0.7-0.3-1.1-0.5
		c-0.6-1-1.2-1.9-1.9-2.9l0,0c0.2,0,0.5,0,0.7,0.1l1.4,0.1l2.8,0.2c0.5,0,0.9,0.1,1.4,0.1c0.5,0,0.9,0.1,1.4,0.2
		c0.5,0.1,0.9,0.1,1.3,0.2c0.2,0.1,0.4,0.1,0.6,0.2c0.2,0.1,0.4,0.2,0.6,0.3c0,0,0,0,0.1,0c0,0,0-0.1,0-0.1
		c-0.2-0.2-0.4-0.3-0.6-0.4c-0.2-0.1-0.4-0.2-0.7-0.2c-0.4-0.1-0.9-0.2-1.4-0.3c-0.5-0.1-0.9-0.2-1.4-0.2c-0.5-0.1-0.9-0.1-1.4-0.2
		L63.8,83l-1.4-0.2c-0.2,0-0.5-0.1-0.7-0.1c-0.1,0-0.2,0-0.3-0.1c-0.1,0-0.2,0-0.3-0.1l0,0c0,0,0,0,0,0c0,0,0,0,0,0
		c-0.2-0.3-0.4-0.6-0.6-0.9l-0.9-1.4c0.3,0,0.7,0,1,0.1c0.5,0,1.1,0,1.6,0c0.3,0,0.5,0,0.8,0l0.8,0c0.5,0,1-0.1,1.6-0.1
		c0.5,0,1,0,1.6-0.1c0.3,0,0.5,0,0.8,0l0.2,0l0.2,0c0.1,0,0.2,0,0.4,0.1c0.5,0.1,1,0.2,1.5,0.3c0.5,0.1,1,0.3,1.5,0.4l0,0
		c0,0,0.1,0,0.1,0c0,0,0-0.1,0-0.1c-0.5-0.2-1-0.4-1.5-0.5c-0.5-0.2-1-0.3-1.5-0.5c-0.1,0-0.3-0.1-0.4-0.1l-0.2,0l-0.2,0
		c-0.3,0-0.5,0-0.8-0.1c-0.5,0-1,0-1.6-0.1c-0.5,0-1,0-1.6,0l-0.8,0c-0.3,0-0.5,0-0.8,0c-0.5,0-1-0.1-1.5-0.1
		c-0.5-0.1-1-0.1-1.5-0.2l0,0c0,0,0,0,0,0c-0.1,0-0.2,0-0.3,0L58,78l0,0l0.7-0.2l1.3-0.4c0.9-0.2,1.7-0.5,2.6-0.8l4-0.2l1,0
		c0.3,0,0.7,0,1,0c0.7,0,1.3,0,2,0c0,0,0,0,0.1,0c0,0,0-0.1,0-0.1c-0.7-0.1-1.3-0.2-2-0.3c-0.3,0-0.7-0.1-1-0.1c-0.3,0-0.7,0-1,0
		c-0.7,0-1.3,0-2,0c-0.7,0-1.3,0-2,0l0,0l0,0c-0.9,0.2-1.8,0.5-2.6,0.7L58.4,77l-0.7,0.2l-0.3,0.1l-0.3-0.4l0.4-0.2l0.6-0.3l1.2-0.6
		c0.8-0.4,1.5-0.8,2.3-1.1c0.4-0.2,0.8-0.4,1.2-0.6c0.4-0.2,0.8-0.3,1.2-0.5c0.8-0.3,1.6-0.5,2.5-0.8c0,0,0,0,0-0.1c0,0,0,0-0.1,0h0
		c-0.8,0.2-1.7,0.4-2.5,0.6c-0.4,0.1-0.8,0.3-1.2,0.4c-0.4,0.2-0.8,0.3-1.2,0.5c-0.8,0.3-1.6,0.7-2.4,1L58,75.8l-0.1,0.1
		c0.3-0.3,0.5-0.5,0.8-0.8c0.6-0.6,1.2-1.2,1.7-1.8c0.3-0.3,0.6-0.6,0.9-0.9c0.2-0.1,0.3-0.3,0.5-0.4c0.1-0.1,0.2-0.1,0.3-0.2
		c0.1-0.1,0.2-0.1,0.3-0.2c0.4-0.2,0.8-0.4,1.1-0.6c0.4-0.2,0.8-0.3,1.2-0.5l0,0c0,0,0,0,0-0.1c0,0,0,0-0.1,0
		c-0.4,0.1-0.8,0.2-1.3,0.3c-0.4,0.1-0.8,0.3-1.2,0.5c-0.1,0-0.2,0.1-0.3,0.1c-0.1,0-0.2,0.1-0.3,0.2c-0.2,0.1-0.4,0.2-0.5,0.4
		c-0.3,0.3-0.7,0.5-1,0.8c-0.6,0.6-1.3,1.2-1.9,1.7c-0.2,0.2-0.4,0.4-0.6,0.6l2-3.5l0,0l0,0c0.2-0.5,0.4-1,0.7-1.4
		c0.1-0.2,0.2-0.5,0.4-0.7c0.1-0.1,0.1-0.2,0.2-0.3c0-0.1,0.1-0.1,0.1-0.2c0,0,0,0,0.1-0.1c0,0,0,0,0.1,0l0,0c0,0,0,0,0-0.1
		c0,0,0,0-0.1,0c-0.1,0-0.1,0-0.1,0.1c0,0-0.1,0-0.1,0.1c0,0-0.1,0.1-0.1,0.2c-0.1,0.1-0.2,0.2-0.2,0.3c-0.1,0.2-0.3,0.4-0.4,0.7
		c-0.3,0.5-0.5,0.9-0.8,1.4l0,0l-2.7,4.2c-0.1-0.1-0.2-0.1-0.3-0.1c-0.1-0.1-0.1-0.2-0.2-0.2c-0.1-0.7-0.1-1.4-0.2-2.1
		c0-0.4-0.1-0.8-0.1-1.2c0-0.1,0-0.2-0.1-0.3c0-0.1-0.1-0.2-0.1-0.3l-0.1-0.6c-0.1-0.2-0.1-0.4-0.2-0.6c-0.1-0.2-0.2-0.4-0.3-0.5
		c-0.1-0.2-0.2-0.3-0.4-0.5c-0.1-0.1-0.3-0.3-0.4-0.4c-0.3-0.3-0.5-0.6-0.8-0.8c-0.3-0.3-0.6-0.5-0.9-0.7c0,0-0.1,0-0.1,0
		c0,0,0,0.1,0,0.1c0.3,0.2,0.6,0.5,0.9,0.7c0.3,0.3,0.5,0.6,0.7,0.9c0.1,0.1,0.2,0.3,0.4,0.4c0.1,0.1,0.2,0.3,0.3,0.5
		c0.2,0.3,0.3,0.7,0.4,1l0.1,0.6c0,0.1,0,0.2,0.1,0.3c0,0.1,0,0.2,0.1,0.3c0,0.1,0,0.2,0,0.3c0,0,0,0,0-0.1c0-0.1-0.1-0.2-0.2-0.3
		c-0.1-0.1-0.1-0.2-0.2-0.2l-0.4-0.4c-0.2-0.3-0.5-0.6-0.7-0.9c-0.3-0.3-0.6-0.5-1-0.7c-0.2-0.1-0.4-0.1-0.6-0.2
		c-0.2-0.1-0.4-0.1-0.6-0.2c-0.4-0.1-0.8-0.2-1.1-0.2l0,0l0,0c-0.3,0-0.6,0.1-0.9,0.1c-0.1,0-0.3,0-0.4,0.1c-0.1,0-0.1,0-0.2,0
		c0,0-0.1,0-0.1,0c0,0,0,0-0.1,0c0,0,0,0,0,0c0,0,0,0,0,0.1c0,0,0,0,0.1,0c0,0,0,0,0,0c0,0,0,0,0,0c0,0,0,0,0,0c0,0,0.1,0,0.1,0
		c0.1,0,0.1,0,0.2,0c0.1,0,0.3,0,0.4-0.1c0.3,0,0.6-0.1,0.8-0.1c0.4,0.1,0.7,0.2,1.1,0.3c0.2,0.1,0.4,0.1,0.5,0.2
		c0.2,0.1,0.4,0.1,0.5,0.2c0.6,0.3,1,1,1.5,1.6l0.4,0.4c0.1,0.1,0.1,0.1,0.2,0.2c0,0.1,0.1,0.1,0.1,0.2c0.2,0.3,0.3,0.7,0.3,1
		c0.1,0.4,0.1,0.7,0.1,1.1c0,0.2,0,0.4,0,0.6l0,0.1l-2.1,0.2l0,0c-0.6,0.1-1.1,0.3-1.7,0.4c-0.3,0.1-0.5,0.2-0.8,0.3
		c-0.3,0.1-0.5,0.2-0.8,0.4c0,0,0,0,0,0.1c0,0,0,0,0.1,0c0.2-0.1,0.5-0.2,0.8-0.3c0.3-0.1,0.5-0.2,0.8-0.3c0.5-0.2,1.1-0.3,1.6-0.4
		l2.4,0.6c0,0,0.1,0,0.1,0c0,0,0,0.1,0.1,0.1l0.8,1.1l-0.1,0.1c-0.1,0.1-0.2,0.1-0.3,0.2c-0.2,0.1-0.4,0.3-0.6,0.4
		c-0.2,0.1-0.4,0.3-0.6,0.5c-0.1,0.1-0.2,0.2-0.3,0.3c0,0-0.1,0.1-0.1,0.1c0,0-0.1,0.1-0.1,0.2l-1.3,1.2l-1.5,0.4c0,0,0,0,0,0.1
		c0,0,0,0,0.1,0l1.5-0.4l0,0l0,0l1.5-1l0,0c0,0,0.1-0.1,0.1-0.1c0,0,0.1-0.1,0.1-0.1c0.1-0.1,0.2-0.1,0.3-0.2
		c0.2-0.1,0.4-0.2,0.6-0.3c0.2-0.1,0.4-0.2,0.6-0.3c0.1,0,0.2-0.1,0.3-0.1l0.3-0.1l1.2,1.7c-0.1,0-0.3,0.1-0.4,0.2l-0.1,0.1l0,0.1
		l-0.1,0.1l-0.2,0.2l-0.3,0.5l-0.6,1l0,0l-1,1.1c-0.1,0.2-0.3,0.3-0.6,0.4c-0.2,0.1-0.5,0.1-0.7,0.1h0c0,0,0,0-0.1,0
		c0,0,0,0.1,0,0.1c0.3,0.1,0.5,0.1,0.8,0c0.1,0,0.3-0.1,0.4-0.1c0.1-0.1,0.2-0.1,0.4-0.2l1.1-1l0,0l0.8-0.9l0.4-0.4l0.2-0.2
		c0,0,0.1-0.1,0.1-0.1l0,0l0,0l0,0c0,0,0,0,0-0.1c0,0,0.1-0.1,0.1-0.1l1.1,1.6c0.2,0.3,0.5,0.7,0.7,1c-0.1,0-0.1,0.1-0.1,0.2v0
		c0,0.1,0,0.1-0.1,0.2c0,0.1-0.1,0.1-0.1,0.2C60,83.8,60,84,59.9,84.1c-0.1,0.3-0.3,0.6-0.4,0.8c-0.2,0.3-0.3,0.5-0.5,0.8
		c-0.1,0.1-0.2,0.2-0.3,0.3c-0.1,0.1-0.2,0.2-0.4,0.3l0,0c0,0,0,0,0,0.1c0,0,0,0,0.1,0c0.2,0,0.3-0.1,0.4-0.2
		c0.1-0.1,0.2-0.2,0.3-0.3c0.2-0.2,0.4-0.5,0.6-0.7c0.2-0.3,0.3-0.5,0.5-0.8c0.1-0.1,0.2-0.3,0.2-0.4c0-0.1,0.1-0.1,0.1-0.2
		c0,0,0-0.1,0.1-0.1c0.7,1,1.4,2,2.1,2.9c-0.1,0-0.2,0.1-0.2,0.3c0,0.1,0,0.1-0.1,0.2c0,0.1-0.1,0.2-0.1,0.2
		c-0.1,0.2-0.1,0.3-0.2,0.5c-0.1,0.2-0.1,0.3-0.2,0.5c-0.1,0.2-0.2,0.3-0.3,0.4l0,0c0,0,0,0,0,0.1c0,0,0,0,0.1,0
		c0.1-0.1,0.3-0.2,0.4-0.4c0.1-0.1,0.2-0.3,0.3-0.4c0.1-0.1,0.2-0.3,0.3-0.4c0.1-0.1,0.1-0.1,0.2-0.2c0-0.1,0.1-0.1,0.1-0.2
		c0.2,0.3,0.4,0.6,0.6,0.9c0.6,0.9,1.2,1.7,1.7,2.6c0,0.1-0.1,0.3-0.1,0.4c-0.1,0.3-0.1,0.5-0.2,0.8c-0.1,0.5-0.3,1.1-0.4,1.6l0,0v0
		c-0.1,0.4-0.1,0.7-0.1,1.1c0,0.2,0,0.4,0,0.6c0,0.2,0,0.4,0,0.6c0,0,0,0,0.1,0c0,0,0,0,0-0.1l0,0c0-0.2,0-0.4,0-0.5
		c0-0.2,0-0.4,0.1-0.5c0-0.4,0.1-0.7,0.2-1.1c0.2-0.5,0.3-1.1,0.5-1.6c0.1-0.3,0.2-0.5,0.3-0.8c0,0,0-0.1,0-0.1
		c0.3,0.4,0.6,0.9,0.8,1.3c0,0.1,0.1,0.1,0.1,0.2l0,0.1c0,0,0,0.1,0,0.1c0,0.1,0.1,0.3,0.1,0.4c0.1,0.3,0.2,0.6,0.2,0.8
		c0,0.1,0,0.1,0.1,0.2c0,0-0.1,0.1-0.1,0.2c0,0,0,0,0,0l0,0l0,0l0,0.1l0,0.1l-0.1,0.3l-0.2,0.5c-0.1,0.3-0.2,0.7-0.3,1
		c-0.1,0.3-0.2,0.7-0.3,1c0,0.2-0.1,0.4-0.1,0.5c0,0.1,0,0.2,0,0.3c0,0.1,0,0.2,0,0.3c0,0,0,0,0.1,0c0,0,0,0,0-0.1l0,0
		c0-0.1,0-0.2,0-0.2c0-0.1,0-0.2,0.1-0.3c0.1-0.2,0.1-0.3,0.2-0.5c0.1-0.3,0.3-0.7,0.4-1c0.1-0.3,0.3-0.6,0.4-1l0.2-0.4
		c0.2,0.7,0.4,1.4,0.5,2.2c0,0.3,0.1,0.6,0.1,0.8l0.1,0.9l0.1,0.9C68,100,68,100.2,68.1,100.5C68,100.6,68.1,100.6,68.1,100.5
		C68.1,100.6,68.1,100.6,68.1,100.5 M48.9,69.7C48.9,69.7,48.9,69.7,48.9,69.7C48.9,69.7,48.9,69.7,48.9,69.7"/>
</g>
</svg>
