<?xml version="1.0" encoding="utf-8"?>
<!-- Generator: Adobe Illustrator 23.1.1, SVG Export Plug-In . SVG Version: 6.00 Build 0)  -->
<svg version="1.1" id="Layer_2" xmlns="http://www.w3.org/2000/svg" xmlns:xlink="http://www.w3.org/1999/xlink" x="0px" y="0px"
	 viewBox="0 0 108 108" style="enable-background:new 0 0 108 108;" xml:space="preserve">
<style type="text/css">
	.st0{fill:#69681B;}
	.st1{fill:#CDC63C;}
	.st2{fill:#A8A135;}
	.st3{fill:#DBD471;}
	.st4{fill:#F1D56D;}
</style>
<g>
	<path class="st0" d="M23.6,77.8c0,0-1-4.6-2.8-4.6c-0.2,0.8-0.3,1.5-0.4,1.9C20.1,77.1,23.6,77.8,23.6,77.8z"/>
	<path class="st0" d="M99.1,56.6c0,0-0.5-0.6-1.2-1.2c0.4-1.7,0.6-3-0.5-4.1c-1.1-1.2-1.3-2.5-1.4-3.7h2.1L96,46
		c0-0.4-0.2-0.8-0.3-1.1l2.6-0.6c0,0-1.4,0-3,0c-0.5-0.5-1.1-1-1.7-1.6c-1.1-1.2-0.2,1.5-2.9-4.2c-0.1-0.2-0.1-0.3-0.2-0.5
		c0.1-0.2,0.2-0.3,0.2-0.5c0-1-0.9-1.1-0.9-1.1c-0.4-1.1-0.8-2.1-1.1-3c0.9-0.7,2-2,2-2s-1.1-0.2-2.7,0c-0.6-1.5-1.3-2.5-2.6-2.6
		c0.1-0.3,0.2-0.6,0.4-0.9c0.6-0.8-2.1-0.1-2.1-0.1s-1.3,0.4-2.7,0.8c-0.7,0-1.3-0.1-1.6-0.2C80.2,27.6,81,27,81,27l2.3-2.6
		c0,0-3.9,0.9-4.8,1.2c-0.2,0.1-0.4,0.3-0.7,0.5c-1.3-0.8-2.9-1.5-2.9-1.5c-0.5,0.3-2.2,1.8-3.2,1.1c-0.2-0.1-0.4-0.2-0.6-0.3
		c0.4-0.9,0.8-2.1,1-2.7c0.3-1.2-1.7,0-1.7,0l-1.1,0.7c-0.2-0.7-0.5-1.4-0.9-1.5c1.1-1.4,2-2.7,2-2.7l-2,2.6c0,0-0.1,0-0.1,0
		c-0.6,0-1.3,0.5-1.9,0.8c-0.6,0.3-1,1.3-1.4,0.5c-0.5-0.8,0,1.3-0.5-0.8c-0.5-2.1-1.3-2.4-1.9-3c-0.6-0.6-1.1-1.3-1.3,0
		c-0.2,1.3,3,3.7,0,2.9c-3-0.8-1.3-1.5-3.2-2.1c-1.9-0.6-2.7-0.2-3.4,0.6c-0.2,0.3-0.5,0.5-0.8,0.7c0.4-0.9-1.4-5.2-1.4-5.2
		s-0.1,2.9-0.6,4.7c-0.8-0.6-2.2-1-3.1-0.9c-1.1,0.2,0,0.6-1.9,1l-3-2.5c0,0-2.1,1-0.8,2.1c0.4,0.4,0.9,0.7,1.4,1.1
		c-0.5,0.2-1,0.4-1.6,0.5c-1.4,0.3-2.4,1.6-3.5,0.8c-0.7-0.5-1.4-0.9-2.2-0.9c-1.8-0.7-3.9-1.4-3.9-1.4l0.4,1.6c0,0,0.3,0.3,0.8,0.7
		c-0.1,0.2-0.1,0.4-0.2,0.9c-0.3,1.3,1.3,1.6-1.3,2.1c-2.6,0.5-3,0.5-3.5,1.3c-0.1,0.2-0.2,0.4-0.2,0.6c-1.1-0.4-2.6-0.8-3.8-0.7
		c-2.2,0.2,2,0.8,3.7,1.4c-0.1,0.4-0.2,0.9-0.7,1.3c0,0,0,0-0.1,0.1c-0.9,0-1.8,0.1-1.8,0.1s-3.5-0.8-1.8,0c0.8,0.4,2.1,0.4,3.3,0.3
		c-0.3,0.5-0.2,0.9-1.6,1.3c-0.5,0-1.1,0-1.9-0.1c-2.4-0.2-4,0.6-4,0.6s2.5,1.4,3.9,1.8c-0.3,0.8-0.8,1.7-2.4,2.1
		c-2.4,0.7-4,1.4-4.9,2.3c-0.9,0.4-1.7,0.9-1.7,0.9s-3.9,1.2-2,1.2c0.6,0,1.3,0,2.1-0.1l-0.1,0.1l0.6,0.1c-0.6,1.1-1.6,2.2-2.7,4.6
		c-1.4,3-2.2,4.6-1.6,5.6c0.6,1,1.4,6.2,1.4,6.2S12,57.6,12.5,59c0.1,0.3,0.2,0.8,0.2,1.4c-0.6,0.6-1.2,1.1-1.2,1.3
		c-0.2,0.5,0,2.3,0,2.3s0.7-2.1,1.3-2.1l0,0c0,1.4-0.1,2.7-0.1,3.1c0,0.8-0.1,2.7,1.5,2.8c-0.4,1.9,0,3.2,0.2,3.8c0.2,0.6,1-1.6,1-3
		c0-0.2,0.1-0.6,0.3-1c0.9-0.3,1.5-0.6,1.5,0.2c0,1.3-0.3,2.2-0.6,3s-1.1,1.8-0.3,2.2c0.8,0.5,0,0.5,1.9,0.4
		c1.9-0.1,1.6-0.1,2.7-0.4c0,0,0,0,0,0c0,0,0,0,0,0c1.1-0.3,3.3,0.1,3.3,0.4c0,0.2,1.1,0.3,2.2,0.5l-0.2,2.7c0,0,1.2,1.9,1.7,0
		c0.2-0.7,0.4-1.3,0.6-1.8c0.3,0.2,0.6,0.4,0.9,0.7c-0.1,0.3-0.1,0.6-0.1,1c0.1-0.3,0.2-0.5,0.4-0.8c0.4,0.3,0.8,0.6,1.1,0.9
		c-0.3,0.8-1.1,1.6-1.4,2.2c-0.1-0.8-0.1-1.5-0.1-2.1c0-0.1,0-0.1,0-0.2c-0.6,1.4-1.2,2.9-1.4,3.6c-0.4,1.7-0.2,2.1,1.1,3.5
		c0.8,0.9,0.7-0.9,0.6-3c0.2,0.4,0.5,0.5,1.3,0c1.7-1.1,0.7-0.9,1.7-1.9c-0.2,0.8,0.3,2.7,0.6,3.7c0.3,1,0.2,2.4,1.6,2.1
		s2.2-0.7,2.6,0c0,0-1.9,2.1-2.6,2.2c-0.7,0.1,1.4,3.1,1.4,3.1l0.5-2.2c0,0,0.7-1,1.4-2c0,0,0,0.1,0.1,0.1c-0.5,2.7-0.8,5.8-0.3,6.3
		c0.7,0.8,1.5-1.6,1.4-3.1c0.1,0.1,0.2,0.3,0.4,0.4c1.3,0.9,1.4,1.7,3.5,1.3c2.1-0.5,2.3-1.4,3.4-1.3c0,0,0,0,0.1,0
		c-0.5,1.3-1.1,2.5-1.1,2.5s0.7,0.5,1.2,0c0.3-0.3,1-0.8,1.5-1.4c0.3,0.3,0.7,0.5,1.1,0.3c1-0.3-0.2,2.1,2.7,0
		c2.9-2.1,0.7-3.5,2.6-2.9c2,0.6,3-1,3.8-1.4c0.8-0.5,1.4,0.5,1.6,0.8c0.1,0.1,0.7,0.6,1.5,1.1c0.1,0.1-1.2,2.3,0,1.6
		c0.3-0.2,0.8-0.4,1.3-0.7c0.6,0.4,1.3,0.8,1.9,1.2c1.8,1.1,2.4,2.2,3.7,0.5s0.8-3,2.1-3.5c1.3-0.5,3.2,1.3,4.5,0.6
		c1.3-0.6,2.2,0.6,2.1-2.1c-0.2-2.7-0.6-3.8,0.8-4.3c0.6-0.2,1.2-0.7,1.9-1.3c-0.2,0.5-0.4,1-0.4,1.7c0,1.6,0.3,1.6,0.3,1.6
		s0.6-3.8,1.2-3.5c0.2,0.1,0.2-0.3,0.2-0.9c0.7-0.5,1.4-0.9,2.2-1.2c0.4-0.1,0.8-0.2,1.2-0.3c0.1,0.4,0.2,0.7,0.2,0.7
		s0.6,4.3,0.9,1.7c0.1-1.2,0.5-2.1,0.8-2.8c0.8-0.2,1.3-0.5,1.6-1.2c0.6-1.4,3.7-4.2,4.8-6.5c0.2-0.5,0.4-0.9,0.5-1.3
		c0,0,0-0.1,0-0.1c0,0,0-0.1,0-0.1c0.3-0.9,0.5-1.7,0.8-2.3c0.4,0.4,0.8,4.3,0.8,4.3s0.8-2.6,0.8-3.4c0-0.5-0.2-1.1-0.6-1.7
		c0,0,0.1,0,0.1-0.1c1.6-0.5,1.9-3.6,2.3-6.9c0.1-0.8,0.2-1.6,0.4-2.3C98.7,56.4,99.1,56.6,99.1,56.6z M53.5,21.6
		c-0.4,0.1-0.7,0.2-1,0C52.8,21.5,53.1,21.5,53.5,21.6z M39.2,87.5c0.1,0.3-0.1,0.6-0.2,0.9c-0.2-0.3-0.3-0.9-0.3-1.7
		C39,87,39.1,87.2,39.2,87.5z"/>
	<path class="st1" d="M74.6,22.4c-0.5,0.3-2.2,1.8-3.2,1.1c-1-0.6-1.9-0.2-2.1-1.1c-0.2-1-0.6-2.7-1.3-2.7c-0.6,0-1.3,0.5-1.9,0.8
		c-0.6,0.3-1,1.3-1.4,0.5s0,1.3-0.5-0.8s-1.3-2.4-1.9-3c-0.6-0.6-1.1-1.3-1.3,0s3,3.7,0,2.9s-1.3-1.5-3.2-2.1
		c-1.9-0.6-2.7-0.2-3.4,0.6c-0.7,0.8-1.8,1.4-2.5,0.6c-0.6-0.8-2.4-1.4-3.5-1.3s0,0.6-1.9,1c-1.9,0.3-2.6,0.9-4,1.2
		c-1.4,0.3-2.4,1.6-3.5,0.8s-2.1-1.2-3.5-0.8s-1.3,0.3-1.6,1.6c-0.3,1.3,1.3,1.6-1.3,2.1s-3,0.5-3.5,1.3c-0.5,0.8,0,1.8-1,2.6
		c-1,0.8-0.2,1.3-2.4,1.9s-0.5,3.4-4,4.3s-5.3,2.1-5.6,3.6c-0.3,1.5-1.6,2.5-3,5.6c-1.4,3-2.2,4.6-1.6,5.6c0.6,1,1.4,6.2,1.4,6.2
		s-1.1,0.8-0.6,2.2s0.2,5.3,0.2,6.1s-0.1,2.7,1.5,2.8s3-1.3,3,0s-0.3,2.2-0.6,3c-0.3,0.8-1.1,1.8-0.3,2.2c0.8,0.5,0,0.5,1.9,0.4
		c1.9-0.1,1.6-0.1,2.7-0.4c1.1-0.3,3.4,0.1,3.4,0.4s2.7,0.3,4.2,1.3c1.4,1,4.5,3.2,4.3,4s0.3,2.7,0.6,3.7c0.3,1,0.2,2.4,1.6,2.1
		s2.2-0.7,2.6,0c0.3,0.8,1.6,2,1.8,2.7s-0.8,1.2,0.5,2.1c1.3,0.9,1.4,1.7,3.5,1.3s2.3-1.4,3.4-1.3c1.1,0.1,1.8,1.7,2.7,1.4
		c1-0.3-0.2,2.1,2.7,0c2.9-2.1,0.7-3.5,2.6-2.9c2,0.6,3-1,3.8-1.4c0.8-0.5,1.4,0.5,1.6,0.8s2.9,2.1,4.6,3.2c1.8,1.1,2.4,2.2,3.7,0.5
		c1.3-1.8,0.8-3,2.1-3.5c1.3-0.5,3.2,1.3,4.5,0.6c1.3-0.6,2.2,0.6,2.1-2.1s-0.6-3.8,0.8-4.3c1.4-0.5,2.9-2.8,5.4-3.6
		c2.6-0.7,4-0.5,4.6-1.9s3.7-4.2,4.8-6.5c1.1-2.4,0.9-4.2,2.5-4.7s1.9-3.6,2.3-6.9c0.3-3.2,1.6-5.3,0-7c-1.6-1.7-1.3-3.7-1.4-5.2
		s-1.3-2-2.4-3.2c-1.1-1.2-0.2,1.5-2.9-4.2s-2.6-9.6-5.6-9.8s-5.8,0-6.1-0.5c-0.3-0.5,1-0.2-0.2-1.3C77.5,23.7,74.6,22.4,74.6,22.4z
		"/>
	<path class="st2" d="M48.7,40c-1-0.4-4.6-1.8-5-0.6c-0.4,1.2,2.7,4.7-0.9,4.3c-3.6-0.4-5.8,0-5.8,0s-1-0.1,0,1.6c1,1.8,2,2,3,2.6
		c1,0.6,3.3-1.4,3.7,0c0.4,1.4-2.2,1.8,0.4,1.4c2.6-0.4,4.7-2,4.7-2s0.7,0.2,2.3,0.6c1.6,0.4,1.8,0.6,2.3-0.8c0.5-1.4-1.8-2-1.4-2.9
		c0.4-0.9,1.8-1.8,1.4-2.2C52.9,41.7,48.7,40,48.7,40z"/>
	<path class="st2" d="M35.3,34.8c0,0-4.1-1.6-4.9,0c-0.8,1.6-0.8,2-1.8,2.4s-1.8-0.8-2.4,0c-0.6,0.8,0,1.7,0,1.7s1.2,1.5,2,0.9
		c0.8-0.6,1.8-0.4,2.4-0.9c0.6-0.5,0.8-1.9,1.6-1.9C33.1,37,35.3,34.8,35.3,34.8z"/>
	<path class="st2" d="M67.2,30.7c1.5-1,4-1.8,4.7-1.6c0.7,0.2,4.6,1.6,4.6,1.6s2.5,2,1.4,1.8c-1.1-0.2-0.9-1.2-2.8-0.8
		c-1.9,0.4-3.2,2.3-3.2,2.3s-0.2,0.5-1.3,0S69.7,33,68.5,33C67.3,33,67.2,30.7,67.2,30.7z"/>
	<path class="st2" d="M85.9,34.3c0,0,0.2-1.4,1.8-1.1c1.6,0.3,1.9,1.1,1.9,1.1s0.8,0.1,0.9,1.1s-2.5,1.9-3.1,1.6
		c-0.6-0.2-2.3,2.2-2.9,0.8C83.9,36.4,85.9,34.3,85.9,34.3z"/>
	<path class="st2" d="M35.3,70.4c0,0-5,2.3-4.7,3.4c0.3,1.1-1.8,2.8-1.6,3.4c0.2,0.6-0.1,2.5,1.6,1.4c1.7-1.1,0.7-0.9,1.7-1.9
		c1.1-1,1.8-0.6,3-0.6s3-1.1,2-1.6c-1-0.5-1.1-1.1-0.9-1.5c0.2-0.4,0.2-0.4,0.2-0.4L35.3,70.4z"/>
	<path class="st2" d="M29,65.1c-0.6,0.2-2.3,1.2-3.1,1.8c-0.7,0.6-1.6,3.4-1.6,3.4s-1,1.6-1,0c0-1.6,0-4.5,0-4.5l2.6-0.8H29z"/>
	<path class="st2" d="M23.4,51h-4l-1.4,1c0,0-1.1,3.1-0.8,2.5c0.6-1.5,1.6-4.9,1.6-4.9L23.4,51z"/>
	<path class="st2" d="M87.3,65.1l1.5,3v1.3c0,0-0.2,2.4-1.4,0s-2.2-4-3.1-4.3c-0.9-0.2-2.6,0.4-2.6,0c0-0.4,0-0.4,0-0.4L87.3,65.1z"
		/>
	<path class="st2" d="M91.2,54.5l5,2.7c0.7,1.7-0.7,2.7,0,2.2s0-5,0-5h-2.4H91.2z"/>
	<path class="st2" d="M91.9,63.7c0,0-0.5,2.1,0,3c0.5,0.9-0.2,2.1-0.2,2.1s1.2-2.4,1.2-2.6c0.1-0.2,0.2-0.7,0.4-1.2
		C93.5,64.7,91.9,63.7,91.9,63.7z"/>
	<path class="st2" d="M71.9,69.6l3.2,3.4c0,0,0.4,1.2,0.3,2.4c-0.2,1.2-1.8,2.4-1.8,2.4l-1.3,3c0,0-1.4,1-1.6,1.6s-0.6,1.2-0.3,0.6
		c0.3-0.6,3.1-0.1,2.9-2s2.3-2.2,1.9-3.2c-0.4-1.1,2.5-2.8,1.4-3.2c-1.1-0.4,0.9-1.1,0-2.1s-0.3-1.6-1.4-2.2
		C74,69.8,71.9,69.6,71.9,69.6z"/>
	<path class="st2" d="M20.9,40c0,0-5.5,5.7-5.9,6.7s-1.2,4.5-1.4,2.8c-0.2-1.8-1.4-2.8,0-4.5c1.4-1.7,4.5-4.7,5.1-5
		C19.3,39.6,20.9,40,20.9,40z"/>
	<path class="st2" d="M46.5,24.9c0,0,2.5,0.2,2.1,1.8c-0.4,1.6,0,2.4,0,2.4s-1.8-1.6-2.1-2.1c-0.3-0.5-0.3-0.5-0.3-0.5L46.5,24.9z"
		/>
	<path class="st2" d="M59.4,23.2c-0.2-0.6,0.8-2.6,0.8-2.6H63l-1.8,2.6c0,0-0.5,0.4-1,1.6C59.8,26.1,59.4,23.2,59.4,23.2z"/>
	<path class="st2" d="M42.7,57.9c-1.6,1-2.1,2.4-2.9,3.4c-0.7,1-1.3,3.4-1.3,3.4v2.9c0,0-0.4-3.1-0.9-3.9c-0.5-0.8-0.3-1.6,0-2.2
		s1.1-1.9,1.1-1.9L42.7,57.9z"/>
	<path class="st2" d="M46.2,73.9c0,0,0.6,4.7,0,5.2c-0.6,0.5,0.8,1.7,0,2.5c-0.8,0.8-2.4,1.8-2.6,0c-0.2-1.8,0.1-1.8-0.1-3.3
		c-0.1-1.5,0.1-3.5,0.1-3.5L46.2,73.9z"/>
	<path class="st2" d="M54.6,73.9c0.1,0.8,0,6.3,0,6.3l-1.2,3.3c0,0,1.6,0.2,2.2-0.8c0.6-1,2-2.2,1.4-3.5c-0.6-1.3-1.4-1.3-1.4-2.5
		C55.5,75.3,54.6,73.9,54.6,73.9z"/>
	<path class="st2" d="M75.5,45.4c0.5,0.2,5.2-0.8,5.7,0c0.5,0.8,2,1.4,1.8,2.2c-0.1,0.8,1.3,2,1.3,2s1.8,4.9,0.9,2.5
		c-0.9-2.5,0-4.2-0.8-5.6s0.1-1.1-1.4-2.1c-1.5-0.9-1.4-0.7-2.5-0.7C79.4,43.5,75.5,45.4,75.5,45.4z"/>
	<path class="st2" d="M32.5,52c0,0-3.6-0.4-4.5,1.2c-0.8,1.6-2,1.5-1.8,2.8c0.2,1.3-1.2,3.7-1.2,3.7s0-0.7,0-2.5
		c0-1.8,0.1-3.3,0.9-3.9S32.5,52,32.5,52z"/>
	<path class="st2" d="M43.6,31.7c-0.6-1.2-1-3-2.4-3.8s-2.6-1.2-3.6-0.9s-3.1,0-3.1,0s-2.8,2.5-2,2.1c0.8-0.4,3.4,0,4,0
		c0.7,0,1.5,1.4,1.5,1.4l4.9,1.2"/>
	<path class="st2" d="M53.2,57.1c0,0.6-0.9,4.4-1.3,4.8c-0.4,0.4-1.6,2.2-2.2,2.8c-0.6,0.6-0.6,0.6-0.6,0.6s3.3,0.8,4.1-0.6
		c0.8-1.4,2-1.8,2.1-2.8C55.3,60.9,53.2,57.1,53.2,57.1z"/>
	<path class="st2" d="M60.2,52l2.8,6.7l-1.4,2.7l-1.4,3.4c0,0,2.2-1.8,2.8-2.8c0.6-1,2.5-4,2.2-2.3s-1,5.5-1,5.5s0.2,2.3,1,1.2
		c0.8-1.2,3.4-4.2,3.2-5c-0.2-0.8-0.4-3.1-0.6-3.5c-0.2-0.4-0.5-4.5-0.8-4.7c-0.4-0.2-0.1-0.5-1-1.3C65.1,51.2,60.2,52,60.2,52z"/>
	<path class="st2" d="M62,39C63,38,68.5,37,68.5,37l3.4,1.9c0,0,1.5,2.9,0,2.3c-1.5-0.6-4.6,0.1-4.6,0.1h-2.9c0,0,2.6,1.7,4.2,2.1
		c1.6,0.4,3.5-0.5,3.3,0.8c-0.1,1.3,1.3,3.9,0,2.9c-1.3-1-3-2.4-4.8-2.9c-1.8-0.5-1.6-0.2-2.9-0.8c-1.3-0.6-2.7,0.5-2.9-1.3
		S58.4,40,58.4,40L62,39z"/>
	<path class="st2" d="M84.3,53.2c0,0,0.7,2.9,0,3.9c-0.7,1-0.6,2.5-1.3,2.1c-0.7-0.4-1.8-2.1-1.8-2.1L84.3,53.2z"/>
	<path class="st2" d="M35.3,56c0,0-2.8,2.6-3,3.7c-0.3,1.1,0.1,4.1,0.1,4.1s-1.2-0.6-1.8-1c-0.6-0.4,0.2-2.8,0-3.5
		C30.4,58.5,35.3,56,35.3,56z"/>
	<path class="st3" d="M49.1,20.6l-2.6-1.7l-3-2.5c0,0-2.1,1-0.8,2.1c1.3,1.1,3,2.1,3,2.1H49.1z"/>
	<path class="st3" d="M22.3,37c-0.6-0.2-5.3,0-5.3,0l-2,1.2l3.6,0.7l2.2-0.7L22.3,37z"/>
	<path class="st3" d="M15.1,56c0,0-3.7,3.2-3.9,3.7c-0.2,0.5,0,2.3,0,2.3s0.7-2.1,1.3-2.1s-0.3,1.7,0.6-0.6C14,56.9,15.1,56,15.1,56
		z"/>
	<path class="st3" d="M67,26.9c0-1.2,1.5-5.2,1.5-5.2l1.7-1c0,0,2-1.2,1.7,0c-0.3,1.2-1.7,4.3-1.7,4.3l-1.2,2H67z"/>
	<path class="st3" d="M81.5,31.7c0.3-0.5,2.2-2.2,3.1-2.4s1.5,0.2,3.1,0c1.6-0.2,2.7,0,2.7,0s-2.5,3-3.1,2.4
		c-0.6-0.5-2.1-0.1-2.7,0.1C84.1,32,81.5,31.7,81.5,31.7z"/>
	<path class="st3" d="M81.2,42.2c0.2-0.1,0.5-0.1,0.8,0c1.5,0.4,4,2,4,2h2.7c0,0,2.4-2.1,3.1-2s6.3,0,6.3,0l-5.5,1.3l3.2,0.4
		l2.2,1.5h-4.7c0,0-3.1,2.8-3.8,2c-0.6-0.8-0.2-0.9-1.9-2"/>
	<path class="st3" d="M89.6,58.9c1.4,0.1,3.2,1.9,4.3,3c1.1,1.1,1.6,2,1.6,2.8c0,0.8-0.8,3.4-0.8,3.4s-0.3-3.9-0.8-4.3s-1.5-1-2.7-2
		c-1.2-1-2.5-3-2.5-3"/>
	<path class="st3" d="M77.9,69.6c0.3,0,2.8,1.6,2.6,2.8c-0.3,1.2,0.6,6.1,0,5.8c-0.6-0.3-1.2,3.5-1.2,3.5s-0.4,0-0.3-1.6
		c0-1.6,1-1.8,0.3-4.5C78.6,73,79,74.3,78.6,73C78.2,71.8,77.9,69.6,77.9,69.6z"/>
	<path class="st3" d="M20.2,58.9c-1.5,0.1-5.1,6.3-5.1,7.7s-0.8,3.6-1,3c-0.2-0.6-0.6-1.9-0.2-3.8C14.2,63.9,20.2,58.9,20.2,58.9z"
		/>
	<path class="st3" d="M55.2,33.1c-0.5-1.6-2.6-4-3.1-6.3s-3.1-4.6-3.1-4.6s3.3,2.2,4.3,2.6c1,0.4,2,2,1.9,2.8
		C55.1,28.5,55.2,33.1,55.2,33.1z"/>
	<path class="st3" d="M35.3,41.1c-0.2,0-0.7,0-1.3,0c-1.6,0-4.2,0.2-5.1,1.1c-1.2,1.2-1.4,1.8-1.4,2.8c0,1,0,2.8,1.1,1.2
		c1.1-1.6,2.4-1.7,2.8-2.6S35.3,41.1,35.3,41.1z"/>
	<path class="st3" d="M37.3,52.7c0,0-3.3,0.4-2.6,1.9c0.7,1.4,0,3.5-0.1,4.4c-0.1,1,0.7,2.4,0.7,2.4s1.5-0.8,1.1-2.1
		c-0.4-1.3-0.2-2.1,0-3.3C36.7,54.8,37.3,52.7,37.3,52.7z"/>
	<path class="st3" d="M53.2,54.5c0.8-0.1,4,4.7,4,4.7s-1.4,1.8-1.9,2.7c-0.4,0.9-0.7,4.1,0,2.8c0.7-1.2,3.1-3.3,3.1-4.9
		s-1.3-3.7-1.3-3.7l-4-3"/>
	<path class="st3" d="M60.6,68.9c0.4,0.9,1.5,4.2,1.4,5c-0.2,0.8-0.9,1.3-1.4,2.7c-0.4,1.4-0.9,4.5,0.6,2.1c1.4-2.4,3.5-2.8,3.1-4.8
		c-0.4-2-0.6-2.2-1.2-3.4C62.4,69.2,60.6,68.9,60.6,68.9z"/>
	<path class="st3" d="M45,65.6c-0.4,1.2,0.8,1-0.1,3.3S43.6,73,43.6,73s-1-0.4-1.3-1.9c-0.3-1.5,0-2.5,0.4-3.5S45,65.6,45,65.6z"/>
	<path class="st3" d="M51.5,51.6c-1.2,0.2-2.4,2.4-2.8,2.9c-0.4,0.5-0.6,3.8-1.4,2.5c-0.8-1.2-1-3.7-1-3.9s1.2-1.2,1.2-1.2
		L51.5,51.6z"/>
	<path class="st3" d="M75.1,50c0.1-0.2,3.9,2.7,3.9,2.7l-1.1-3.1c0,0-0.9,0.4-1.4,0S73.5,50,73.5,50"/>
	<path class="st3" d="M58.4,46.8c0,0,0.8,2.9,0,3.2c-0.8,0.4,2.2-0.5,2.2-0.5s0.8-1.5,0.6-2.1C61,46.7,58.4,46.8,58.4,46.8z"/>
	<path class="st3" d="M47.5,35.7c-0.6-1.1-2.8-1.9-4.7-1.6c-2,0.3-1.3,0.6-2.9,0.8c-1.5,0.1-1.4,0.5,0.1,0.8s3.1,1.2,3.1,1.2
		L47.5,35.7z"/>
	<path class="st1" d="M80.7,24.9l2.3-2.6c0,0-3.9,0.9-4.8,1.2s-2.7,3.4-2.7,3.4s0.2,3.2,0.8,2.2S80.7,24.9,80.7,24.9z"/>
	<path class="st3" d="M26.2,71.1l-0.3,3.6c0,0,1.2,1.9,1.7,0c0.5-1.9,1.4-3.6,1.4-3.6H26.2z"/>
	<path class="st3" d="M39.9,81.7c-0.7,0-3.4,4-3.4,4L35.9,88c0,0-2.1-3-1.4-3.1c0.7-0.1,2.6-2.2,2.6-2.2L39.9,81.7z"/>
	<path class="st3" d="M22.3,63.5c-0.4,0.5-1.9,3.7-2.3,5.8c-0.2,1.1-0.2,1.8,0.5,1.8c1.8-0.1,2.8,4.6,2.8,4.6S19.9,75,20.2,73
		s1.7-9,1.7-9"/>
	<path class="st3" d="M67,78.2c-0.4,0.1-0.5,2-0.9,3.5c-0.2,0.7-0.5,1.4-0.9,1.7c-1.2,1-4.2,2.9-4.1,3c0.1,0.1-1.2,2.3,0,1.6
		c1.2-0.8,4.5-1.7,4.3-3.1s1.2-6.6,1.2-6.6"/>
	<path class="st3" d="M82.9,70.4c0.2,1.2,1.4,6.1,1.4,6.1s0.6,4.3,0.9,1.7s1.7-3.5,0.8-4.9C85.1,72,82.9,70.4,82.9,70.4z"/>
	<path class="st3" d="M79,37c0.9-0.8,2.6-0.8,4,0c1.4,0.8,2.2,3,2.2,3l-5.9-1L79,37z"/>
	<path class="st3" d="M28.7,30.5c-1.9-1.5-2.1-1.1-4.6-1.2s-4,0.6-4,0.6s4.2,2.3,4.8,1.8c0.6-0.5,0,0.1,1.2,0.1
		C27.4,31.8,28.7,30.5,28.7,30.5z"/>
	<path class="st3" d="M28.7,26.3c-1.7-0.6-6-1.2-3.7-1.4c2.2-0.2,5.4,1.4,5.4,1.4S30.4,26.9,28.7,26.3z"/>
	<path class="st3" d="M50.9,20.1c1-0.8,1.2-5.9,1.2-5.9s2.4,5.6,1.1,5.3C51.9,19.2,50.9,20.1,50.9,20.1z"/>
	<path class="st4" d="M49.1,79.5c0,0-1.6,4.1-1.8,5.4c-0.2,1.3-2,5.1-2,5.1s0.7,0.5,1.2,0c0.5-0.5,2.2-1.7,2.2-2.9
		c0-1.2-0.4-2.9,0.4-3.6C49.9,82.8,49.1,79.5,49.1,79.5z"/>
	<path class="st4" d="M29,27.7c-1-0.1-2.8,0-2.8,0s-3.5-0.8-1.8,0c1.6,0.8,6.1,0,6.1,0"/>
	<path class="st4" d="M20,45.4c-1.1,1.4-2.3,4.1-3,4.6s-1.9,2-1.9,2l2.8,0l0.8-2.5L20,45.4z"/>
	<path class="st4" d="M57.1,26.5c-0.1-1.7,1.6-2.7,0-4.3c-1.6-1.6-2.5-2.2-2.5-2.2s-0.2,5.1,0,5.6C54.7,26.2,57.1,26.5,57.1,26.5z"
		/>
	<path class="st4" d="M75.1,36.9c0.3-0.9,1.5-1.4,2.8-1.5s2.8,0.7,2.8,0.7s-2.1,2.1-2.5,1.7c-0.4-0.3-1.9,0-1.9,0L75.1,36.9z"/>
	<polyline class="st4" points="84.3,59.8 84.6,63.7 83,65.6 82.1,62.7 83,61.3 83,59.1 	"/>
	<path class="st4" d="M67.2,68.9c0.9,0.3,2.4,3.2,2.3,4.2s-1,3.5-1,3.5s1,0.8,1.7-0.8c0.7-1.6,0.3-4.7,0.4-5.2S67,67.6,67,67.6"/>
	<path class="st4" d="M48.9,69.6c0,1-0.2,3.6-0.2,5.1c0,1.6,0,5.4,0,3.5c0-1.9-2.4-4.4-2.4-4.4L48.9,69.6z"/>
	<path class="st4" d="M76.7,27.7c1.3-0.5,6.6-2,6.6-2s2.7-0.8,2.1,0.1c-0.6,0.8-0.3,2.2-0.9,2.3s-3.3-0.8-4.1-0.4
		S76.7,27.7,76.7,27.7z"/>
	<path class="st4" d="M92.5,49.4c0.5-0.1,2.3,1.3,2.9,1.6c0.6,0.3,3.4,3.4,3.4,3.4s-1.1-0.6-3.2-1.8c-2.1-1.3-3.4-0.9-3.6-1.6
		S92.5,49.4,92.5,49.4z"/>
	<path class="st4" d="M22.3,59.2L20,65c0,0-2,2.1-2.5-0.3c-0.4-2.4-0.3-3.2,1.2-4.5C20.2,58.9,22.3,59.2,22.3,59.2z"/>
	<path class="st4" d="M45.3,53.2c0,0-2.9,0.3-4.3,2.6c-1.4,2.3-2.1,3.3-2.2,2.1c0-1.2,0.2-2.7,1.1-3.4c0.9-0.7,3.8-1.3,3.8-1.3"/>
	<path class="st4" d="M30.6,71.1c0,0-1.6,1.1-1.6,3.6c0,2.6,1,8.4-0.3,7c-1.3-1.4-1.5-1.8-1.1-3.5C28,76.5,30.6,71.1,30.6,71.1z"/>
	<path class="st4" d="M22.3,38c0-1-2.5-2.1-3.6-2.3c-1.2-0.2-3.6,1.3-3.6,1.3s-3.9,1.2-2,1.2s5.6-0.3,5.6-0.3L22.3,38z"/>
	<path class="st4" d="M33.3,20.1c0,0,2.7,2.5,3.2,2.8c0.4,0.4,2.3,0.6,2.3,0.6s1-2.1,0.2-2.6c-0.9-0.5-6.1-2.3-6.1-2.3"/>
	<path class="st4" d="M65.3,23.5c0.4-0.2,4.9-6.4,4.9-6.4L65.3,23.5z"/>
	<path class="st4" d="M76.7,48.1c1.1,0.5,4.2,1.4,3.8,3s-1.3,4.3-1.2,3.4s-3.8-6-3.8-6"/>
	<path class="st4" d="M53.2,47.1l0.4,4.8c0,0-5.3,0.2-4.2-0.9C50.5,50,53.2,47.1,53.2,47.1z"/>
	<path class="st4" d="M53.4,37.9c-0.5-1.1-3.3-2.9-4.1-3.7c-0.8-0.7-3.6-1.2-3.6-1.2l3.8,3.3l2.1,2.5L53.4,37.9z"/>
	<path class="st3" d="M57.1,36.4c0.3-1.2-1.3-2.7,0-3.4l2.3-1.3l4.7,0.1c0,0-3.1,2.1-2.9,2.5"/>
	<path class="st3" d="M61.2,30.5c0.4-0.8-1.8,3.8-1.8,3.8l-3.2,3.7c0,0-1.7-1.2-0.6-2.5"/>
	<path class="st2" d="M65.3,46.8c0.8,0.4,4.9,2.7,4.9,2.7v1.4c0,0,3.1,3.8,3.3,4.9c0.2,1-0.4,0.8,0,2.2s1.2,6.1,1.5,3
		c0.3-3,0.6-5.7,0.3-6.4c-0.4-0.7-1.6,0.3-1.8-1.3C73.4,51.6,69,50,69,50"/>
	<path class="st2" d="M75.1,63.5c0,0,1.3,3.5,1.4,4.6s-0.2,2.3-0.2,2.3L75.1,63.5z"/>
	<path class="st2" d="M38.8,79.5c0,0.8-0.6,5.5,0,6.7s-0.3,4.9-1.2,4S38.8,79.5,38.8,79.5z"/>
	<path class="st0" d="M41,74.2c0,0-1.7,2-1.7,2.3c0.1,0.4,0,2.1,0,2.1s-1.2-0.5-1.1-0.9s-0.5-0.9,0-1.4S41,74.2,41,74.2z"/>
	<path class="st0" d="M38,49.5c-0.6,0.2-1.6-0.4-1.9,0.6C35.8,51,35.3,51.7,35,52c-0.3,0.3-1.5-0.4-1-1c0.5-0.6,0.4-0.8,1.4-1
		S38,49.5,38,49.5z"/>
	<path class="st0" d="M38.2,39c-0.1-0.3-2.2-1.2-2.9-1s-0.7,0.2-1.5,0.5c-0.8,0.2-1.6-0.2-1.6-0.2L32.3,37c0,0,1-0.3,1.6,0
		c0.6,0.3,2.9,0.9,2.9,0.9L38.2,39z"/>
	<path class="st0" d="M57.8,65.6c0,0-0.5,2.1-1.2,2.6s-1.7,0.8-1.3,1.2c0.3,0.4,0.6,0.7,1.3,0.4c0.7-0.3,1.3-1.2,1.8-1.6
		s1.4-0.7,1-1.2C58.9,66.5,57.8,65.6,57.8,65.6z"/>
	<path class="st0" d="M72.6,74.7c0,0.5-0.5,3-0.7,3s-1.2,0.9,0.2,0c1.3-0.9,1.9-1.8,1.9-2.1c0-0.3-1.5-1.5-1.5-1.5"/>
	<path class="st0" d="M77.9,56c0.2,0.3,2.5,2.2,1.9,3.1s-1.6,1.6-1.6,1.6S78,58.9,78,58.3C78,57.7,77.9,56,77.9,56z"/>
	<path class="st0" d="M63.4,38.3c0.6-0.2,2.5-2.1,2-2.2c-0.4-0.1-3.6-0.6-4.2,0c-0.6,0.6-2.6,1.2-1.9,1.9c0.7,0.7,0.5,0.8,1.8,1.2
		c1.3,0.4,2.9,0.1,3.2,0"/>
	<path class="st0" d="M88.2,37c0,0-1.1,0.5-1.4,1.2c-0.3,0.8-1.2,2.3-0.5,1.6c0.7-0.7,1.5-1.1,1.9-1.3S88.2,37,88.2,37z"/>
	<path class="st0" d="M59.2,28.1c0.1-0.7-1.4-2.7-1.4-2.7l-0.7,1.2L59.2,28.1z"/>
	<path class="st0" d="M63,77.3c0.4,0.4,1.5,2.5,0.8,3.1c-0.7,0.6-1.4,1.3-1.6,1.6c-0.2,0.3,1.4,0.9,1.8-0.2c0.5-1.1,1.4-1.2,1.2-2.2
		C65,78.4,63,77.3,63,77.3z"/>
	<path class="st0" d="M33.3,67c-0.1,0.2-1.8,1.2-1.8,1.9c0,0.7-0.8,1-0.8,0.4s-0.8-1.2,0-1.6C31.4,67.4,33.3,67,33.3,67z"/>
	<path class="st0" d="M17.5,57.1c-0.2,0.4-1.8,1.7-1.9,1.9c-0.1,0.2-0.6,1.3,0,0.9c0.6-0.4,0.6,0.2,1.3-0.7S17.5,57.1,17.5,57.1z"/>
	<path class="st0" d="M88.8,64.7c0,0,0.4,1.8,0.7,2.2c0.3,0.4,0.6,1.6,0.9,1.3c0.3-0.3,0.1-2,0-2.4C90.3,65.6,88.8,64.7,88.8,64.7z"
		/>
	<path class="st0" d="M92,48.1c0,0,1.1,0.4,1.8,0.6c0.7,0.3,2.5,1.4,1.6,0.4c-0.9-1-2.1-1.6-2.1-1.6L92,48.1z"/>
</g>
</svg>
