<?xml version="1.0" encoding="utf-8"?>
<!-- Generator: Adobe Illustrator 23.1.1, SVG Export Plug-In . SVG Version: 6.00 Build 0)  -->
<svg version="1.1" id="Layer_3" xmlns="http://www.w3.org/2000/svg" xmlns:xlink="http://www.w3.org/1999/xlink" x="0px" y="0px"
	 viewBox="0 0 108 108" style="enable-background:new 0 0 108 108;" xml:space="preserve">
<style type="text/css">
	.st0{fill:#364F00;}
	.st1{fill:#F5ED00;}
	.st2{fill:#67971D;}
	.st3{fill:#F0D81B;}
	.st4{fill:#7BA73D;}
	.st5{fill:#839E3B;}
	.st6{fill:#E3CC35;}
	.st7{fill:#F0EE86;}
	.st8{fill:#5C8A39;}
</style>
<g>
	<path class="st0" d="M43.3,23.4c0,0.7-2.7,6-7.7,7.3s-6,1.6-7,4.7c-1,3.1-2.3,6.9-3.5,11.9c-1.2,4.9,1.2,13.4,2.3,16
		c1.1,2.6,4.8,14.7,4.8,14.7s11.7,2,15.4,3.6c3.7,1.7,8.4,1.4,16.1-0.3c7.7-1.7,11.1-3.3,14.3-6.7s5.7-8.4,5.7-14.3
		s0.1-13.8-0.5-15.3c-0.6-1.5-3-6.7-7.4-9.6c-4.4-3-3.6-6.2-8.5-7.1s-4.4,1-9.3-1.9S43.3,23.4,43.3,23.4z"/>
	<path class="st1" d="M58.2,86.1c0.3-4-2.3-7.2-5.8-7.7c-3.5,0.7-5.9,4-5.6,7.9c0.4,3.9,2.9,7.2,5.8,7.7
		C55.5,93.4,58,90.1,58.2,86.1z"/>
	<path class="st2" d="M53.2,79.6c0.3,0.2,1.9,1.6,2.1,2c0.2,0.4,0.9,1.2,1,1.8c0,0.6,1.1,2.4,0.8,3.2c-0.3,0.8-0.5,0.9-0.8,1.8
		c-0.4,0.9-1.1,1.7-1.1,1.7s0.5-1.3,0.5-2.2s0.3-1.7-0.3-2.4c-0.6-0.7-1.8-2-1.8-2s0,1.1,0,2c0,0.8,0.1,1.3,0.2,2.1
		c0.1,0.8,0.5,2.2,0.4,2.6s-0.4,1.1-0.6,1.5c-0.2,0.5-0.8,1-0.8,1s-0.6-0.5-0.8-1.9c-0.2-1.4-0.3-4-0.4-4.8c0-0.8-0.2-2.8-0.2-2.8
		s-0.6,0.6-1,1.1c-0.4,0.5-0.6,1-0.6,1.2c0,0.2,0,1,0,1.8s0.4,2.4,0.4,2.4s-1.6-0.1-1.7-0.9c-0.1-0.7-0.5-3-0.2-4.4
		c0.3-1.4,0.5-2.2,1.2-3C50.2,80.9,53.2,79.6,53.2,79.6z"/>
	<path class="st3" d="M65.4,83.4c-1.8-3.6-5.6-5.2-8.9-3.8c-2.7,2.3-3.2,6.4-0.9,9.6c2.3,3.2,6.1,4.8,8.9,3.8
		C66.7,91.1,67.2,87,65.4,83.4z"/>
	<path class="st2" d="M57.7,80.2c0.3,0,2.4,0.5,2.9,0.7c0.4,0.2,1.4,0.6,1.7,1.1s2.1,1.6,2.3,2.4s0,1,0.2,2c0.1,1-0.1,2.1-0.1,2.1
		s-0.2-1.4-0.6-2.1c-0.4-0.8-0.6-1.6-1.5-1.9s-2.6-0.8-2.6-0.8s0.6,1,1,1.7c0.4,0.7,0.8,1,1.3,1.7s1.5,1.7,1.7,2.1
		c0.2,0.4,0.2,1.1,0.2,1.6S64,92,64,92s-0.8-0.1-1.7-1.2s-2.3-3.3-2.7-4c-0.4-0.6-1.6-2.4-1.6-2.4s-0.2,0.9-0.3,1.4
		c-0.1,0.6,0,1.2,0,1.3s0.5,0.9,0.9,1.6c0.4,0.7,1.5,1.9,1.5,1.9s-1.4,0.7-1.9,0.1s-1.9-2.3-2.4-3.7c-0.5-1.4-0.7-2.2-0.4-3.2
		C55.8,82.8,57.7,80.2,57.7,80.2z"/>
	<path class="st1" d="M62.2,75.9c-1.8-3.6-5.6-5.2-8.9-3.8c-2.7,2.3-3.2,6.4-0.9,9.6c2.3,3.2,6.1,4.8,8.9,3.8
		C63.5,83.6,63.9,79.5,62.2,75.9z"/>
	<path class="st4" d="M54.5,72.8c0.3,0,2.4,0.5,2.9,0.7c0.4,0.2,1.4,0.6,1.7,1.1s2.1,1.6,2.3,2.4c0.2,0.8,0,1,0.2,2
		c0.1,1-0.1,2.1-0.1,2.1s-0.2-1.4-0.6-2.1c-0.4-0.8-0.6-1.6-1.5-1.9c-0.9-0.3-2.6-0.8-2.6-0.8s0.6,1,1,1.7s0.8,1,1.3,1.7
		s1.5,1.7,1.7,2.1c0.2,0.4,0.2,1.1,0.2,1.6c0,0.5-0.2,1.3-0.2,1.3s-0.8-0.1-1.7-1.2s-2.3-3.3-2.7-4c-0.4-0.6-1.6-2.4-1.6-2.4
		s-0.2,0.9-0.3,1.4c-0.1,0.6,0,1.2,0,1.3c0,0.2,0.5,0.9,0.9,1.6c0.4,0.7,1.5,1.9,1.5,1.9s-1.4,0.7-1.9,0.1c-0.4-0.6-1.9-2.3-2.4-3.7
		c-0.5-1.4-0.7-2.2-0.4-3.2C52.6,75.3,54.5,72.8,54.5,72.8z"/>
	<path class="st1" d="M74.2,78.7c-1.8-3.6-5.6-5.2-8.9-3.8c-2.7,2.3-3.2,6.4-0.9,9.6c2.3,3.2,6.1,4.8,8.9,3.8
		C75.6,86.3,76,82.3,74.2,78.7z"/>
	<path class="st2" d="M66.6,75.5c0.3,0,2.4,0.5,2.9,0.7c0.4,0.2,1.4,0.6,1.7,1.1s2.1,1.6,2.3,2.4s0,1,0.2,2c0.1,1-0.1,2.1-0.1,2.1
		s-0.2-1.4-0.6-2.1c-0.4-0.8-0.6-1.6-1.5-1.9c-0.9-0.3-2.6-0.8-2.6-0.8s0.6,1,1,1.7c0.4,0.7,0.8,1,1.3,1.7c0.5,0.7,1.5,1.7,1.7,2.1
		c0.2,0.4,0.2,1.1,0.2,1.6s-0.2,1.3-0.2,1.3s-0.8-0.1-1.7-1.2c-0.9-1.1-2.3-3.3-2.7-4s-1.6-2.4-1.6-2.4s-0.2,0.9-0.3,1.4
		c-0.1,0.6,0,1.2,0,1.3s0.5,0.9,0.9,1.6c0.4,0.7,1.5,1.9,1.5,1.9s-1.4,0.7-1.9,0.1c-0.4-0.6-1.9-2.3-2.4-3.7
		c-0.5-1.4-0.7-2.2-0.4-3.2C64.7,78.1,66.6,75.5,66.6,75.5z"/>
	<path class="st1" d="M72.2,30.8c-3.9,0.8-6.4,4-6,7.6c1.5,3.2,5.4,4.7,9.1,3.4c3.7-1.4,6.2-4.7,6-7.6C79.9,31.5,76.1,30,72.2,30.8z
		"/>
	<path class="st2" d="M67.1,37.4c0.1-0.3,1.1-2.2,1.4-2.6c0.3-0.3,0.9-1.2,1.5-1.4s2.1-1.7,2.9-1.6s1,0.2,2,0.3c1,0.1,2,0.6,2,0.6
		s-1.4-0.2-2.2,0c-0.8,0.2-1.7,0.1-2.2,0.9C72,34.5,71,36,71,36s1.1-0.3,1.9-0.6c0.8-0.3,1.2-0.5,2-0.8c0.8-0.3,2-1,2.4-1.1
		s1.1,0.1,1.6,0.2s1.2,0.5,1.2,0.5s-0.3,0.7-1.6,1.3c-1.3,0.6-3.8,1.4-4.6,1.6c-0.7,0.2-2.7,0.9-2.7,0.9s0.8,0.4,1.3,0.6
		c0.5,0.2,1.1,0.3,1.3,0.3c0.2,0,1-0.2,1.8-0.5c0.7-0.2,2.2-1,2.2-1s0.3,1.6-0.4,1.8c-0.7,0.3-2.7,1.3-4.2,1.4
		C71.8,41,71,41,70.1,40.5S67.1,37.4,67.1,37.4z"/>
	<path class="st1" d="M74.7,63.4c-3.9,0.8-6.4,4-6,7.6c1.5,3.2,5.4,4.7,9.1,3.4c3.7-1.4,6.2-4.7,6-7.6
		C82.4,64.1,78.6,62.6,74.7,63.4z"/>
	<path class="st2" d="M69.7,70c0.1-0.3,1.1-2.2,1.4-2.6c0.3-0.3,0.9-1.2,1.5-1.4s2.1-1.7,2.9-1.6s1,0.2,2,0.3c1,0.1,2,0.6,2,0.6
		s-1.4-0.2-2.2,0c-0.8,0.2-1.7,0.1-2.2,0.9s-1.4,2.3-1.4,2.3s1.1-0.3,1.9-0.6s1.2-0.5,2-0.8c0.8-0.3,2-1,2.4-1.1
		c0.4-0.1,1.1,0.1,1.6,0.2c0.5,0.1,1.2,0.5,1.2,0.5s-0.3,0.7-1.6,1.3c-1.3,0.6-3.8,1.4-4.6,1.6s-2.7,0.9-2.7,0.9s0.8,0.4,1.3,0.6
		c0.5,0.2,1.1,0.3,1.3,0.3c0.2,0,1-0.2,1.8-0.5c0.7-0.2,2.2-1,2.2-1s0.3,1.6-0.4,1.8c-0.7,0.3-2.7,1.3-4.2,1.4
		c-1.5,0.1-2.3,0.1-3.2-0.4S69.7,70,69.7,70z"/>
	<path class="st3" d="M64.1,60.9c-3.6,1.8-5.2,5.6-3.8,8.9c2.3,2.7,6.4,3.2,9.6,0.9c3.2-2.3,4.8-6.1,3.8-8.9
		C71.8,59.6,67.7,59.1,64.1,60.9z"/>
	<path class="st4" d="M61,68.6c0-0.3,0.5-2.4,0.7-2.9s0.6-1.4,1.1-1.7c0.5-0.3,1.6-2.1,2.4-2.3c0.8-0.2,1,0,2-0.2
		c1-0.1,2.1,0.1,2.1,0.1s-1.4,0.2-2.1,0.6c-0.8,0.4-1.6,0.6-1.9,1.5c-0.3,0.9-0.8,2.6-0.8,2.6s1-0.6,1.7-1s1-0.8,1.7-1.3
		s1.7-1.5,2.1-1.7c0.4-0.2,1.1-0.2,1.6-0.2c0.5,0,1.3,0.2,1.3,0.2s-0.1,0.8-1.2,1.7c-1.1,0.9-3.3,2.3-4,2.7
		c-0.6,0.4-2.4,1.6-2.4,1.6s0.9,0.2,1.4,0.3c0.6,0.1,1.2,0,1.3,0s0.9-0.5,1.6-0.9c0.7-0.4,1.9-1.5,1.9-1.5s0.7,1.4,0.1,1.9
		c-0.6,0.4-2.3,1.9-3.7,2.4c-1.4,0.5-2.2,0.7-3.2,0.4C63.6,70.5,61,68.6,61,68.6z"/>
	<path class="st1" d="M56.3,38.4c-3.6,1.8-5.2,5.6-3.8,8.9c2.3,2.7,6.4,3.2,9.6,0.9s4.8-6.1,3.8-8.9C64,37.1,59.9,36.6,56.3,38.4z"
		/>
	<path class="st2" d="M53.2,46.1c0-0.3,0.5-2.4,0.7-2.9s0.6-1.4,1.1-1.7s1.6-2.1,2.4-2.3c0.8-0.2,1,0,2-0.2c1-0.1,2.1,0.1,2.1,0.1
		s-1.4,0.2-2.1,0.6s-1.6,0.6-1.9,1.5c-0.3,0.9-0.8,2.6-0.8,2.6s1-0.6,1.7-1c0.7-0.4,1-0.8,1.7-1.3s1.7-1.5,2.1-1.7
		c0.4-0.2,1.1-0.2,1.6-0.2s1.3,0.2,1.3,0.2s-0.1,0.8-1.2,1.7s-3.3,2.3-4,2.7c-0.6,0.4-2.4,1.6-2.4,1.6s0.9,0.2,1.4,0.3s1.2,0,1.3,0
		s0.9-0.5,1.6-0.9s1.9-1.5,1.9-1.5s0.7,1.4,0.1,1.9c-0.6,0.4-2.3,1.9-3.7,2.4c-1.4,0.5-2.2,0.7-3.2,0.4C55.8,48,53.2,46.1,53.2,46.1
		z"/>
	<path class="st1" d="M62,48.9c-3.6,1.8-5.2,5.6-3.8,8.9c2.3,2.7,6.4,3.2,9.6,0.9c3.2-2.3,4.8-6.1,3.8-8.9
		C69.6,47.6,65.5,47.1,62,48.9z"/>
	<path class="st5" d="M58.8,57.2c0-0.3,0.5-2.4,0.7-2.9c0.2-0.4,0.6-1.4,1.1-1.7s1.6-2.1,2.4-2.3c0.8-0.2,1,0,2-0.2
		c1-0.1,2.1,0.1,2.1,0.1s-1.4,0.2-2.1,0.6c-0.8,0.4-1.6,0.6-1.9,1.5c-0.3,0.9-0.8,2.6-0.8,2.6s1-0.6,1.7-1c0.7-0.4,1-0.8,1.7-1.3
		s1.7-1.5,2.1-1.7c0.4-0.2,1.1-0.2,1.6-0.2s1.3,0.2,1.3,0.2s-0.1,0.8-1.2,1.7c-1.1,0.9-3.3,2.3-4,2.7S63,56.9,63,56.9
		s0.9,0.2,1.4,0.3c0.6,0.1,1.2,0,1.3,0s0.9-0.5,1.6-0.9c0.7-0.4,1.9-1.5,1.9-1.5s0.7,1.4,0.1,1.9S67,58.5,65.6,59s-2.2,0.7-3.2,0.4
		S58.8,57.2,58.8,57.2z"/>
	<path class="st6" d="M76.5,53.3c-3.6,1.8-5.2,5.6-3.8,8.9c2.3,2.7,6.4,3.2,9.6,0.9c3.2-2.3,4.8-6.1,3.8-8.9
		C84.1,52,80.1,51.5,76.5,53.3z"/>
	<path class="st2" d="M73.3,61c0-0.3,0.5-2.4,0.7-2.9s0.6-1.4,1.1-1.7s1.6-2.1,2.4-2.3c0.8-0.2,1,0,2-0.2c1-0.1,2.1,0.1,2.1,0.1
		s-1.4,0.2-2.1,0.6c-0.8,0.4-1.6,0.6-1.9,1.5c-0.3,0.9-0.8,2.6-0.8,2.6s1-0.6,1.7-1c0.7-0.4,1-0.8,1.7-1.3s1.7-1.5,2.1-1.7
		c0.4-0.2,1.1-0.2,1.6-0.2c0.5,0,1.3,0.2,1.3,0.2s-0.1,0.8-1.2,1.7c-1.1,0.9-3.3,2.3-4,2.7s-2.4,1.6-2.4,1.6s0.9,0.2,1.4,0.3
		c0.6,0.1,1.2,0,1.3,0s0.9-0.5,1.6-0.9c0.7-0.4,1.9-1.5,1.9-1.5s0.7,1.4,0.1,1.9c-0.6,0.4-2.3,1.9-3.7,2.4c-1.4,0.5-2.2,0.7-3.2,0.4
		C75.9,62.9,73.3,61,73.3,61z"/>
	<path class="st1" d="M48.2,34.7c-1.8,2.7-1.4,6,0.9,7.8c2.7,1,5.8-0.4,7.1-3.3c1.3-2.9,0.9-6.2-0.9-7.8C53.1,30.6,50,32,48.2,34.7z
		"/>
	<path class="st2" d="M49.1,41.3c-0.1-0.2-0.7-1.9-0.7-2.3c0-0.4-0.2-1.2,0-1.7c0.2-0.4,0.2-2.1,0.8-2.6s0.7-0.4,1.3-0.9
		c0.6-0.5,1.5-0.8,1.5-0.8s-0.9,0.7-1.2,1.3c-0.4,0.6-0.9,1.1-0.7,1.8c0.2,0.7,0.5,2.1,0.5,2.1s0.5-0.8,0.8-1.4
		c0.3-0.6,0.4-0.9,0.7-1.6c0.3-0.6,0.6-1.7,0.8-2c0.2-0.3,0.7-0.6,1-0.8c0.3-0.2,1-0.4,1-0.4s0.2,0.6-0.2,1.7
		c-0.4,1.1-1.4,3-1.7,3.5c-0.3,0.6-1,2.1-1,2.1s0.7-0.2,1.1-0.4s0.8-0.5,0.9-0.6c0.1-0.1,0.5-0.7,0.7-1.3s0.7-1.8,0.7-1.8
		s1,0.7,0.8,1.3c-0.2,0.6-0.8,2.3-1.6,3.2c-0.8,0.9-1.3,1.3-2.1,1.6C51.7,41.6,49.1,41.3,49.1,41.3z"/>
	<path class="st1" d="M59.6,23.6c-1.3,3.8,0.3,7.6,3.6,9c3.6,0.3,6.8-2.3,7.4-6.2s-0.9-7.7-3.6-9C64.1,17.2,60.9,19.8,59.6,23.6z"/>
	<path class="st2" d="M62.8,31.2c-0.2-0.3-1.4-2.1-1.5-2.5s-0.6-1.4-0.5-2s-0.4-2.6,0.1-3.3c0.5-0.7,0.7-0.7,1.3-1.5
		c0.6-0.8,1.5-1.4,1.5-1.4s-0.8,1.1-1.1,2c-0.2,0.8-0.8,1.6-0.3,2.4c0.5,0.8,1.3,2.4,1.3,2.4s0.3-1.1,0.5-1.9
		c0.2-0.8,0.2-1.3,0.3-2.1s0.1-2.3,0.3-2.6c0.2-0.4,0.6-0.9,1-1.3c0.3-0.4,1.1-0.8,1.1-0.8s0.4,0.6,0.3,2c-0.1,1.4-0.7,4-0.9,4.7
		C65.9,26,65.5,28,65.5,28s0.7-0.5,1.2-0.8s0.8-0.8,0.9-1c0.1-0.1,0.3-1,0.5-1.8c0.2-0.8,0.3-2.4,0.3-2.4s1.5,0.5,1.4,1.3
		c-0.1,0.7-0.3,3-0.9,4.3c-0.6,1.3-1.1,2-2,2.5C66,30.7,62.8,31.2,62.8,31.2z"/>
	<path class="st6" d="M72.8,35.9c-3.8-1.3-7.6,0.3-9,3.6c-0.3,3.6,2.3,6.8,6.2,7.4s7.7-0.9,9-3.6C79.1,40.4,76.6,37.2,72.8,35.9z"/>
	<path class="st2" d="M65.1,39.1c0.3-0.2,2.1-1.4,2.5-1.5c0.5-0.1,1.4-0.6,2-0.5s2.6-0.4,3.3,0.1c0.7,0.5,0.7,0.7,1.5,1.3
		c0.8,0.6,1.4,1.5,1.4,1.5s-1.1-0.8-2-1.1c-0.8-0.2-1.6-0.8-2.4-0.3c-0.8,0.5-2.4,1.3-2.4,1.3s1.1,0.3,1.9,0.5
		c0.8,0.2,1.3,0.2,2.1,0.3c0.8,0.1,2.3,0.1,2.6,0.3s0.9,0.6,1.3,1c0.4,0.3,0.8,1.1,0.8,1.1s-0.6,0.4-2,0.3c-1.4-0.1-4-0.7-4.7-0.9
		c-0.8-0.2-2.8-0.6-2.8-0.6s0.5,0.7,0.8,1.2c0.4,0.5,0.8,0.8,1,0.9s1,0.3,1.8,0.5c0.8,0.2,2.4,0.3,2.4,0.3s-0.5,1.5-1.3,1.4
		s-3-0.3-4.3-0.9c-1.3-0.6-2-1.1-2.5-2C65.6,42.3,65.1,39.1,65.1,39.1z"/>
	<path class="st7" d="M68.5,23.1c-3,2.6-3.5,6.7-1.4,9.6c3,2,7,1.4,9.5-1.6c2.5-3,3-7.1,1.4-9.6C75.5,19.8,71.5,20.5,68.5,23.1z"/>
	<path class="st4" d="M67.4,31.3c-0.1-0.3-0.2-2.5-0.1-2.9s0.2-1.5,0.6-2c0.4-0.5,1-2.5,1.7-2.8c0.8-0.4,1-0.3,1.9-0.7
		c0.9-0.4,2-0.5,2-0.5s-1.3,0.5-1.9,1.2c-0.6,0.6-1.4,1-1.5,1.9c0,0.9-0.1,2.7-0.1,2.7s0.8-0.8,1.4-1.4c0.5-0.6,0.8-1,1.3-1.7
		c0.5-0.7,1.2-1.9,1.6-2.2c0.3-0.3,1-0.5,1.5-0.7s1.3-0.1,1.3-0.1s0.1,0.8-0.8,1.9c-0.8,1.1-2.6,3.1-3.1,3.7s-1.9,2.1-1.9,2.1
		s0.9,0,1.5-0.1c0.6-0.1,1.1-0.3,1.3-0.4s0.8-0.7,1.3-1.3c0.5-0.6,1.4-1.9,1.4-1.9s1,1.2,0.6,1.8c-0.5,0.6-1.7,2.4-2.9,3.3
		c-1.2,0.8-1.9,1.2-3,1.2C70.4,32.5,67.4,31.3,67.4,31.3z"/>
	<path class="st1" d="M54.2,29.2c0.8,3.9,4,6.4,7.6,6c3.2-1.5,4.7-5.4,3.4-9.1s-4.7-6.2-7.6-6C54.9,21.5,53.4,25.3,54.2,29.2z"/>
	<path class="st5" d="M60.8,34.8c-0.3-0.1-2.2-1.1-2.6-1.4c-0.3-0.3-1.2-0.9-1.4-1.5c-0.2-0.6-1.7-2.1-1.6-2.9c0.1-0.8,0.2-1,0.3-2
		c0.1-1,0.6-2,0.6-2s-0.2,1.4,0,2.2c0.2,0.8,0.1,1.7,0.9,2.2c0.8,0.5,2.3,1.4,2.3,1.4s-0.3-1.1-0.6-1.9c-0.3-0.8-0.5-1.2-0.8-2
		c-0.3-0.8-1-2-1.1-2.4s0.1-1.1,0.2-1.6c0.1-0.5,0.5-1.2,0.5-1.2s0.7,0.3,1.3,1.6c0.6,1.3,1.4,3.8,1.6,4.6c0.2,0.7,0.9,2.7,0.9,2.7
		s0.4-0.8,0.6-1.3c0.2-0.5,0.3-1.1,0.3-1.3c0-0.2-0.2-1-0.5-1.8s-1-2.2-1-2.2s1.6-0.3,1.8,0.4c0.3,0.7,1.3,2.7,1.4,4.2
		c0.1,1.5,0.1,2.3-0.4,3.2C63.3,32.8,60.8,34.8,60.8,34.8z"/>
	<path class="st1" d="M34.1,21.8c-1.2,2.3-0.6,4.9,1.4,6.1c2.3,0.6,4.6-0.7,5.4-3.2c0.8-2.4,0.2-5-1.4-6.1
		C37.7,18.2,35.4,19.5,34.1,21.8z"/>
	<path class="st2" d="M35.4,27.1c-0.1-0.2-0.7-1.5-0.7-1.8c0-0.3-0.2-1-0.1-1.3s0-1.7,0.4-2.1c0.4-0.4,0.5-0.4,1-0.8
		s1.1-0.7,1.1-0.7s-0.7,0.6-0.9,1.1c-0.2,0.5-0.7,0.9-0.4,1.5s0.6,1.7,0.6,1.7s0.3-0.7,0.5-1.2c0.2-0.5,0.3-0.8,0.4-1.3
		c0.2-0.5,0.3-1.4,0.5-1.7c0.1-0.2,0.5-0.5,0.8-0.7c0.3-0.2,0.8-0.4,0.8-0.4s0.2,0.5,0,1.3c-0.2,0.9-0.9,2.5-1.1,2.9
		c-0.2,0.5-0.7,1.7-0.7,1.7s0.5-0.2,0.9-0.4s0.6-0.4,0.7-0.5c0.1-0.1,0.3-0.6,0.5-1.1c0.2-0.5,0.4-1.5,0.4-1.5s0.9,0.5,0.7,1
		c-0.1,0.5-0.5,1.9-1,2.7c-0.5,0.8-0.9,1.2-1.5,1.4C37.5,27.1,35.4,27.1,35.4,27.1z"/>
	<path class="st7" d="M25.5,23.2c1.4,2.2,3.9,3,6,1.9c1.6-1.7,1.6-4.3,0-6.3c-1.7-1.9-4.2-2.7-6-1.9C24.1,18.3,24.1,21,25.5,23.2z"
		/>
	<path class="st2" d="M30.6,24.8c-0.2,0-1.6-0.1-1.9-0.3c-0.3-0.1-0.9-0.3-1.2-0.6c-0.3-0.3-1.5-0.9-1.6-1.4
		c-0.2-0.5-0.1-0.6-0.2-1.3c-0.2-0.6-0.1-1.3-0.1-1.3s0.2,0.9,0.5,1.3c0.3,0.5,0.5,1,1.1,1.1c0.6,0.1,1.7,0.3,1.7,0.3
		s-0.4-0.6-0.8-1c-0.3-0.4-0.6-0.6-0.9-1s-1.1-1-1.2-1.2c-0.1-0.2-0.2-0.7-0.3-1c-0.1-0.3,0.1-0.8,0.1-0.8s0.5,0,1.2,0.7
		s1.7,2,2,2.4c0.3,0.4,1.2,1.4,1.2,1.4s0.1-0.6,0.1-1c0-0.4-0.1-0.8-0.1-0.9c0-0.1-0.4-0.6-0.7-1s-1.1-1.1-1.1-1.1s0.9-0.5,1.2-0.2
		c0.3,0.4,1.4,1.4,1.8,2.2c0.4,0.9,0.6,1.4,0.5,2C31.7,23,30.6,24.8,30.6,24.8z"/>
	<path class="st1" d="M27.9,33c2.6-0.1,4.5-1.9,4.6-4.2c-0.6-2.2-2.9-3.6-5.4-3.1s-4.4,2.3-4.6,4.2C23,31.7,25.3,33.1,27.9,33z"/>
	<path class="st2" d="M31.8,29.3c-0.1,0.2-0.9,1.3-1.2,1.5c-0.3,0.2-0.7,0.7-1.1,0.7s-1.5,0.8-2,0.7c-0.5-0.1-0.6-0.2-1.2-0.4
		c-0.6-0.2-1.2-0.6-1.2-0.6s0.9,0.3,1.4,0.2c0.6-0.1,1.1,0.1,1.5-0.4c0.4-0.5,1.1-1.3,1.1-1.3s-0.7,0.1-1.3,0.2
		c-0.5,0.1-0.8,0.2-1.3,0.3c-0.5,0.1-1.4,0.4-1.7,0.4c-0.3,0-0.7-0.2-1-0.3c-0.3-0.1-0.7-0.5-0.7-0.5s0.3-0.4,1.2-0.7
		c0.9-0.2,2.6-0.5,3.1-0.5s1.8-0.3,1.8-0.3s-0.5-0.3-0.8-0.6c-0.3-0.2-0.7-0.3-0.8-0.3c-0.1,0-0.7,0-1.2,0.1C26,27.7,25,28,25,28
		s0-1,0.5-1.1c0.5-0.1,1.9-0.5,2.8-0.4c0.9,0.1,1.5,0.2,2,0.6C30.8,27.5,31.8,29.3,31.8,29.3z"/>
	<path class="st1" d="M37.8,35.1c1,3.9,4.3,6.2,7.9,5.7c3.2-1.7,4.5-5.6,3-9.2s-4.9-6-7.9-5.7C38.1,27.4,36.8,31.2,37.8,35.1z"/>
	<path class="st8" d="M44.6,39.9c-0.3-0.1-2.3-1-2.6-1.3c-0.3-0.3-1.2-0.9-1.5-1.4c-0.2-0.6-1.7-2-1.7-2.8c0-0.8,0.2-1,0.3-2
		s0.5-2,0.5-2s-0.1,1.4,0.1,2.2s0.2,1.7,1,2.2c0.8,0.4,2.3,1.3,2.3,1.3s-0.3-1.1-0.6-1.9s-0.5-1.2-0.8-1.9c-0.3-0.8-1.1-2-1.2-2.4
		s0-1.1,0.1-1.6C40.6,27.7,41,27,41,27s0.7,0.3,1.4,1.6c0.6,1.3,1.5,3.8,1.8,4.5c0.3,0.7,1,2.7,1,2.7s0.4-0.8,0.6-1.3
		c0.2-0.6,0.3-1.1,0.3-1.3s-0.3-1-0.5-1.7c-0.3-0.7-1.1-2.1-1.1-2.1s1.5-0.3,1.8,0.3c0.3,0.7,1.4,2.7,1.5,4.1
		c0.2,1.4,0.2,2.3-0.3,3.2C47,37.8,44.6,39.9,44.6,39.9z"/>
	<path class="st6" d="M29.3,45.6c3.8,1.1,7.6-0.6,8.8-4c0.1-3.6-2.6-6.7-6.5-7.2s-7.6,1.3-8.8,4C22.7,41.4,25.4,44.5,29.3,45.6z"/>
	<path class="st2" d="M36.8,42.1c-0.2,0.2-2,1.5-2.4,1.6c-0.5,0.1-1.4,0.6-2,0.6c-0.6-0.1-2.6,0.5-3.3,0.1c-0.7-0.4-0.8-0.6-1.6-1.2
		c-0.8-0.6-1.5-1.4-1.5-1.4s1.1,0.8,2,1c0.9,0.2,1.6,0.7,2.4,0.2c0.8-0.5,2.3-1.4,2.3-1.4s-1.1-0.3-1.9-0.4C30,41,29.5,41,28.7,40.9
		s-2.3,0-2.7-0.2c-0.4-0.1-1-0.6-1.4-0.9c-0.4-0.3-0.8-1-0.8-1s0.6-0.5,2-0.4s4,0.6,4.8,0.7s2.8,0.4,2.8,0.4s-0.5-0.7-0.9-1.2
		c-0.4-0.5-0.9-0.8-1-0.9c-0.2-0.1-1-0.3-1.8-0.4c-0.8-0.1-2.4-0.2-2.4-0.2s0.5-1.5,1.2-1.4c0.7,0.1,3,0.1,4.3,0.7
		c1.3,0.6,2.1,1,2.6,1.9S36.8,42.1,36.8,42.1z"/>
	<path class="st3" d="M42.1,54.4c2.9-2.8,3.2-6.9,1-9.6c-3-1.9-7.1-1.1-9.4,2s-2.7,7.2-1,9.6C35.1,58,39.2,57.2,42.1,54.4z"/>
	<path class="st5" d="M42.8,46.8c0.1,0.3,0.3,2.5,0.2,2.9s-0.1,1.5-0.5,2s-0.9,2.5-1.6,2.9c-0.7,0.4-0.9,0.3-1.8,0.8
		c-0.9,0.4-2,0.6-2,0.6s1.3-0.6,1.9-1.2s1.4-1,1.4-2s0-2.7,0-2.7s-0.8,0.8-1.3,1.5c-0.5,0.6-0.8,1-1.3,1.7c-0.5,0.7-1.2,1.9-1.5,2.2
		c-0.3,0.3-1,0.5-1.5,0.7s-1.3,0.2-1.3,0.2s-0.1-0.8,0.7-2c0.8-1.2,2.5-3.2,3-3.8c0.5-0.6,1.8-2.2,1.8-2.2s-0.9,0.1-1.5,0.2
		c-0.6,0.1-1.1,0.3-1.3,0.4s-0.7,0.7-1.2,1.3s-1.3,2-1.3,2s-1.1-1.2-0.6-1.8s1.6-2.5,2.8-3.4c1.2-0.9,1.9-1.3,2.9-1.3
		C39.7,45.7,42.8,46.8,42.8,46.8z"/>
	<path class="st1" d="M82.1,52.5c-0.9-3.3-3.7-5.2-6.7-4.7c-2.7,1.5-3.7,4.8-2.4,7.8c1.3,3.1,4.2,5,6.7,4.7
		C81.9,59.1,83,55.8,82.1,52.5z"/>
	<path class="st2" d="M76.3,48.6c0.3,0.1,2,0.8,2.2,1.1c0.3,0.3,1.1,0.7,1.3,1.2c0.2,0.5,1.5,1.7,1.5,2.4s-0.1,0.8-0.2,1.7
		s-0.4,1.7-0.4,1.7s0.1-1.2-0.2-1.9c-0.2-0.7-0.2-1.5-0.9-1.8s-2-1.1-2-1.1s0.3,0.9,0.6,1.6c0.3,0.6,0.5,1,0.7,1.6
		c0.3,0.6,1,1.7,1,2s0,1-0.1,1.4c-0.1,0.4-0.4,1-0.4,1s-0.6-0.2-1.2-1.3c-0.6-1-1.3-3.2-1.6-3.8s-0.9-2.2-0.9-2.2s-0.3,0.7-0.5,1.1
		c-0.2,0.5-0.2,1-0.2,1.1c0,0.1,0.2,0.8,0.5,1.5s0.9,1.8,0.9,1.8S75.3,58,75,57.4c-0.3-0.6-1.2-2.2-1.4-3.5s-0.2-1.9,0.2-2.7
		S76.3,48.6,76.3,48.6z"/>
	<path class="st1" d="M89.2,43.5c-3.3-0.9-6.4,0.6-7.4,3.5c-0.1,3,2.3,5.6,5.6,6c3.3,0.4,6.4-1.2,7.4-3.5
		C94.8,47,92.4,44.4,89.2,43.5z"/>
	<path class="st2" d="M82.9,46.6c0.2-0.2,1.7-1.3,2-1.4c0.4-0.1,1.2-0.6,1.7-0.5c0.5,0.1,2.2-0.5,2.8-0.1c0.6,0.4,0.7,0.5,1.4,1
		s1.3,1.2,1.3,1.2s-1-0.7-1.7-0.8c-0.7-0.1-1.4-0.6-2-0.1S86.3,47,86.3,47s1,0.2,1.6,0.3c0.7,0.1,1.1,0.1,1.8,0.2s1.9,0,2.3,0.1
		c0.3,0.1,0.8,0.5,1.2,0.8c0.3,0.3,0.7,0.9,0.7,0.9s-0.5,0.4-1.7,0.4c-1.2,0-3.4-0.4-4.1-0.5c-0.6-0.1-2.4-0.3-2.4-0.3
		s0.4,0.6,0.8,1c0.3,0.4,0.7,0.7,0.9,0.7s0.9,0.2,1.5,0.3c0.7,0.1,2,0.1,2,0.1s-0.4,1.3-1,1.2c-0.6,0-2.5-0.1-3.7-0.6
		c-1.1-0.5-1.7-0.8-2.2-1.5C83.4,49.3,82.9,46.6,82.9,46.6z"/>
	<path class="st1" d="M78.2,36.3c-2.4,2.4-2.6,5.8-0.7,8.2c2.6,1.6,6,0.8,8-1.9c2-2.7,2.2-6.2,0.7-8.2C84,33.2,80.6,33.9,78.2,36.3z
		"/>
	<path class="st4" d="M77.7,43.3c-0.1-0.3-0.3-2.1-0.2-2.5c0.1-0.4,0.1-1.3,0.4-1.7s0.7-2.1,1.3-2.5c0.6-0.3,0.8-0.3,1.5-0.7
		c0.7-0.4,1.7-0.5,1.7-0.5s-1.1,0.5-1.6,1.1s-1.2,0.9-1.1,1.7c0,0.8,0.1,2.3,0.1,2.3s0.6-0.7,1.1-1.3c0.4-0.5,0.6-0.9,1-1.5
		s1-1.7,1.2-1.9c0.3-0.2,0.8-0.5,1.2-0.6c0.4-0.2,1.1-0.2,1.1-0.2s0.1,0.7-0.5,1.7c-0.6,1-2.1,2.7-2.5,3.3c-0.4,0.5-1.5,1.9-1.5,1.9
		s0.7-0.1,1.2-0.2c0.5-0.1,0.9-0.3,1.1-0.4c0.1-0.1,0.6-0.6,1-1.2s1.1-1.7,1.1-1.7s0.9,1,0.6,1.5s-1.3,2.2-2.3,2.9
		c-1,0.7-1.6,1.1-2.4,1.2C80.3,44.1,77.7,43.3,77.7,43.3z"/>
	<path class="st1" d="M29.4,39.6c1.8,3.6,5.6,5.2,8.9,3.8c2.7-2.3,3.2-6.4,0.9-9.6c-2.3-3.2-6.1-4.8-8.9-3.8
		C28,32,27.6,36,29.4,39.6z"/>
	<path class="st2" d="M37,42.8c-0.3,0-2.4-0.5-2.9-0.7s-1.4-0.6-1.7-1.1s-2.1-1.6-2.3-2.4c-0.2-0.8,0-1-0.2-2
		c-0.1-1,0.1-2.1,0.1-2.1s0.2,1.4,0.6,2.1c0.4,0.8,0.6,1.6,1.5,1.9s2.6,0.8,2.6,0.8s-0.6-1-1-1.7c-0.4-0.7-0.8-1-1.3-1.7
		c-0.5-0.7-1.5-1.7-1.7-2.1s-0.2-1.1-0.2-1.6c0-0.5,0.2-1.3,0.2-1.3s0.8,0.1,1.7,1.2c0.9,1.1,2.3,3.3,2.7,4c0.4,0.6,1.6,2.4,1.6,2.4
		s0.2-0.9,0.3-1.4c0.1-0.6,0-1.2,0-1.3c0-0.2-0.5-0.9-0.9-1.6s-1.5-1.9-1.5-1.9s1.4-0.7,1.9-0.1c0.4,0.6,1.9,2.3,2.4,3.7
		c0.5,1.4,0.7,2.2,0.4,3.2S37,42.8,37,42.8z"/>
	<path class="st3" d="M42.4,22.6c1.8,3.6,5.6,5.2,8.9,3.8c2.7-2.3,3.2-6.4,0.9-9.6c-2.3-3.2-6.1-4.8-8.9-3.8
		C41,14.9,40.6,19,42.4,22.6z"/>
	<path class="st2" d="M50,25.7c-0.3,0-2.4-0.5-2.9-0.7c-0.4-0.2-1.4-0.6-1.7-1.1s-2.1-1.6-2.3-2.4c-0.2-0.8,0-1-0.2-2
		s0.1-2.1,0.1-2.1s0.2,1.4,0.6,2.1s0.6,1.6,1.5,1.9s2.6,0.8,2.6,0.8s-0.6-1-1-1.7s-0.8-1-1.3-1.7s-1.5-1.7-1.7-2.1
		c-0.2-0.4-0.2-1.1-0.2-1.6c0-0.5,0.2-1.3,0.2-1.3s0.8,0.1,1.7,1.2c0.9,1.1,2.3,3.3,2.7,4c0.4,0.6,1.6,2.4,1.6,2.4s0.2-0.9,0.3-1.4
		s0-1.2,0-1.3c0-0.2-0.5-0.9-0.9-1.6c-0.4-0.7-1.5-1.9-1.5-1.9s1.4-0.7,1.9-0.1c0.4,0.6,1.9,2.3,2.4,3.7s0.7,2.2,0.4,3.2
		C51.9,23.1,50,25.7,50,25.7z"/>
	<path class="st7" d="M48.3,55.7c2.4,2.7,6.1,3.2,8.7,1.3c1.9-2.7,1.3-6.4-1.5-8.7s-6.5-2.8-8.7-1.3C45.3,49.2,45.9,52.9,48.3,55.7z
		"/>
	<path class="st2" d="M55.8,56.6c-0.3,0.1-2.3,0.2-2.7,0.1c-0.4-0.1-1.4-0.2-1.8-0.5c-0.4-0.4-2.3-0.9-2.6-1.6
		c-0.3-0.7-0.3-0.9-0.6-1.7C47.8,52,47.7,51,47.7,51s0.5,1.2,1.1,1.7s0.9,1.3,1.7,1.3s2.5,0.1,2.5,0.1s-0.7-0.7-1.3-1.2
		c-0.6-0.5-0.9-0.7-1.5-1.2s-1.7-1.1-2-1.4c-0.2-0.3-0.4-0.9-0.6-1.4c-0.1-0.4-0.1-1.2-0.1-1.2s0.7-0.1,1.8,0.7s2.8,2.4,3.3,2.9
		s2,1.7,2,1.7s0-0.8-0.1-1.3s-0.3-1-0.3-1.2c-0.1-0.1-0.6-0.7-1.2-1.2s-1.8-1.3-1.8-1.3s1.1-0.9,1.6-0.5s2.2,1.6,3,2.7
		c0.7,1.1,1.1,1.8,1.1,2.7S55.8,56.6,55.8,56.6z"/>
	<path class="st1" d="M89,65.7c-0.9-2.8-3.5-4.3-6.1-3.7c-2.2,1.4-3,4.3-1.7,6.9c1.3,2.6,3.9,4.1,6.1,3.7C89.2,71.4,90,68.5,89,65.7
		z"/>
	<path class="st2" d="M83.8,62.6c0.2,0.1,1.7,0.6,2,0.8c0.3,0.2,1,0.6,1.1,1c0.2,0.4,1.4,1.4,1.4,2s-0.1,0.7-0.1,1.5
		S88,69.3,88,69.3s0-1-0.2-1.6s-0.2-1.3-0.9-1.5c-0.6-0.3-1.8-0.8-1.8-0.8s0.3,0.8,0.6,1.3c0.3,0.5,0.4,0.8,0.7,1.4
		c0.3,0.5,0.9,1.4,1,1.7c0.1,0.3,0,0.8,0,1.2c0,0.4-0.3,0.9-0.3,0.9s-0.5-0.2-1.1-1.1c-0.5-0.9-1.3-2.7-1.6-3.2
		c-0.2-0.5-0.9-1.9-0.9-1.9s-0.2,0.6-0.4,1c-0.1,0.4-0.1,0.9-0.1,1c0,0.1,0.3,0.7,0.5,1.2c0.2,0.5,0.9,1.5,0.9,1.5s-1.1,0.3-1.4-0.1
		c-0.3-0.5-1.1-1.9-1.3-2.9c-0.2-1-0.3-1.6,0-2.3C82.1,64.3,83.8,62.6,83.8,62.6z"/>
	<path class="st7" d="M92.8,55.7c-2.9-0.6-5.5,0.9-6.2,3.4c0.1,2.6,2.2,4.7,5.1,4.9c2.9,0.1,5.5-1.3,6.2-3.4
		C97.8,58.4,95.6,56.3,92.8,55.7z"/>
	<path class="st2" d="M87.5,58.7c0.2-0.2,1.4-1.2,1.7-1.3c0.3-0.1,1-0.5,1.4-0.5s1.9-0.5,2.4-0.2c0.5,0.3,0.6,0.4,1.2,0.8
		s1.2,1,1.2,1s-0.9-0.5-1.5-0.6c-0.6-0.1-1.2-0.4-1.8,0s-1.6,1.1-1.6,1.1s0.8,0.1,1.4,0.2c0.6,0.1,0.9,0,1.5,0.1c0.6,0,1.7-0.1,2,0
		c0.3,0.1,0.7,0.4,1,0.6s0.6,0.7,0.6,0.7s-0.4,0.4-1.5,0.4s-3-0.2-3.5-0.2c-0.6,0-2.1-0.2-2.1-0.2s0.4,0.5,0.7,0.8s0.7,0.5,0.8,0.6
		s0.8,0.1,1.3,0.2c0.6,0,1.7,0,1.7,0s-0.3,1.1-0.8,1.1c-0.5,0-2.2,0.1-3.2-0.3s-1.6-0.6-2-1.2C88.1,61,87.5,58.7,87.5,58.7z"/>
	<path class="st1" d="M81.9,49.5c-1.3,2.6-0.6,5.5,1.7,6.9c2.6,0.6,5.2-0.9,6-3.7c0.9-2.8,0.1-5.7-1.7-6.9
		C85.8,45.3,83.2,46.9,81.9,49.5z"/>
	<path class="st2" d="M83.4,55.4c-0.1-0.2-0.8-1.6-0.8-2c0-0.3-0.3-1.1-0.1-1.5s0-2,0.4-2.4c0.4-0.4,0.6-0.5,1.1-1
		c0.5-0.5,1.2-0.9,1.2-0.9s-0.7,0.7-1,1.3c-0.3,0.6-0.7,1.1-0.5,1.7c0.2,0.6,0.7,1.9,0.7,1.9s0.3-0.8,0.5-1.3s0.3-0.9,0.5-1.5
		c0.2-0.6,0.3-1.6,0.5-1.9c0.2-0.3,0.6-0.6,0.8-0.9c0.3-0.2,0.9-0.4,0.9-0.4s0.3,0.5,0,1.5c-0.2,1-1,2.8-1.1,3.3
		c-0.2,0.5-0.7,2-0.7,2s0.6-0.3,1-0.5c0.4-0.2,0.7-0.5,0.8-0.6s0.3-0.7,0.5-1.2s0.4-1.7,0.4-1.7s1,0.5,0.9,1.1
		c-0.2,0.5-0.5,2.1-1.1,3c-0.6,0.9-1,1.3-1.7,1.6C85.8,55.3,83.4,55.4,83.4,55.4z"/>
	<path class="st3" d="M19.5,70c2.2,2,5.2,2,7.1,0.2c1.2-2.3,0.4-5.2-2-6.8s-5.4-1.6-7.1-0.2C16.5,65.2,17.3,68.1,19.5,70z"/>
	<path class="st8" d="M25.6,70.1c-0.2,0.1-1.8,0.4-2.1,0.3c-0.3-0.1-1.1,0-1.5-0.3c-0.4-0.2-1.9-0.5-2.2-1c-0.3-0.5-0.3-0.7-0.7-1.3
		s-0.5-1.4-0.5-1.4s0.5,0.9,1,1.3s0.8,1,1.5,0.9c0.7-0.1,2-0.2,2-0.2s-0.7-0.5-1.2-0.9c-0.5-0.3-0.8-0.5-1.3-0.8s-1.5-0.7-1.7-1
		c-0.2-0.2-0.4-0.7-0.6-1s-0.2-0.9-0.2-0.9s0.6-0.1,1.5,0.4c0.9,0.5,2.5,1.6,2.9,2c0.5,0.3,1.7,1.2,1.7,1.2s-0.1-0.6-0.2-1.1
		c-0.1-0.4-0.3-0.8-0.4-0.9s-0.6-0.5-1.1-0.8c-0.5-0.3-1.5-0.9-1.5-0.9s0.8-0.8,1.3-0.6c0.5,0.3,1.9,1,2.6,1.8
		c0.7,0.8,1,1.3,1.1,2.1S25.6,70.1,25.6,70.1z"/>
	<path class="st1" d="M21.3,80.5c2.8-0.9,4.3-3.5,3.7-6.1c-1.4-2.2-4.3-3-6.9-1.6c-2.6,1.3-4.1,3.9-3.7,6.1
		C15.6,80.7,18.5,81.5,21.3,80.5z"/>
	<path class="st2" d="M24.4,75.3c0,0.2-0.6,1.7-0.8,2s-0.6,1-1,1.2c-0.4,0.2-1.4,1.4-2,1.4c-0.6,0-0.7-0.1-1.5-0.1
		c-0.7,0-1.5-0.3-1.5-0.3s1,0,1.6-0.2c0.6-0.2,1.3-0.2,1.5-0.9c0.3-0.6,0.8-1.8,0.8-1.8s-0.8,0.3-1.3,0.6c-0.5,0.3-0.8,0.4-1.4,0.7
		c-0.5,0.3-1.4,0.9-1.7,1c-0.3,0.1-0.8,0-1.2,0c-0.4,0-0.9-0.3-0.9-0.3s0.2-0.5,1.1-1.1c0.9-0.5,2.7-1.3,3.2-1.6s1.9-0.9,1.9-0.9
		s-0.6-0.2-1-0.4c-0.4-0.1-0.9-0.1-1-0.1s-0.7,0.3-1.2,0.5c-0.5,0.2-1.5,0.9-1.5,0.9s-0.3-1.1,0.1-1.4s1.9-1.2,2.9-1.4
		c1-0.2,1.6-0.3,2.3,0C22.7,73.7,24.4,75.3,24.4,75.3z"/>
	<path class="st1" d="M33.9,80.5c-0.2-2.9-2.3-5.1-4.9-5.1c-2.5,0.8-4,3.4-3.4,6.2c0.6,2.8,2.7,5,4.9,5.1C32.6,86,34,83.4,33.9,80.5
		z"/>
	<path class="st2" d="M29.6,76.2c0.2,0.1,1.5,1,1.7,1.3c0.2,0.3,0.8,0.8,0.9,1.2c0.1,0.4,1,1.7,0.9,2.3s-0.3,0.7-0.4,1.4
		S32,83.7,32,83.7s0.3-1,0.2-1.6c-0.1-0.6,0.1-1.3-0.4-1.7s-1.5-1.3-1.5-1.3s0.1,0.8,0.2,1.4c0.1,0.6,0.2,0.9,0.4,1.5
		c0.1,0.6,0.5,1.6,0.5,1.9c0,0.3-0.2,0.8-0.3,1.2s-0.5,0.8-0.5,0.8s-0.5-0.3-0.8-1.3c-0.3-1-0.6-2.9-0.7-3.5
		c-0.1-0.6-0.4-2.1-0.4-2.1S28.3,79.6,28,80c-0.2,0.4-0.3,0.8-0.4,0.9c0,0.1,0.1,0.8,0.2,1.3s0.5,1.7,0.5,1.7s-1.2,0-1.3-0.5
		c-0.1-0.5-0.6-2.1-0.6-3.2s0.2-1.7,0.6-2.3S29.6,76.2,29.6,76.2z"/>
	<path class="st1" d="M60.7,36.4c-1,2.9,0.2,5.7,2.7,6.8c2.7,0.2,5.1-1.7,5.6-4.6c0.5-2.9-0.7-5.8-2.7-6.8
		C64,31.6,61.6,33.5,60.7,36.4z"/>
	<path class="st2" d="M63.1,42.1c-0.2-0.2-1.1-1.5-1.1-1.9c-0.1-0.3-0.4-1.1-0.4-1.5c0.1-0.4-0.3-2,0.1-2.5s0.5-0.6,1-1.1
		s1.1-1.1,1.1-1.1s-0.6,0.8-0.8,1.5c-0.2,0.6-0.6,1.2-0.2,1.8c0.3,0.6,1,1.8,1,1.8s0.2-0.8,0.3-1.4c0.1-0.6,0.1-1,0.2-1.6
		c0.1-0.6,0.1-1.7,0.2-2s0.5-0.7,0.7-1c0.3-0.3,0.8-0.6,0.8-0.6s0.3,0.5,0.2,1.5c-0.1,1.1-0.6,3-0.7,3.6c-0.1,0.6-0.4,2.1-0.4,2.1
		s0.6-0.4,0.9-0.6c0.4-0.3,0.6-0.6,0.7-0.7c0.1-0.1,0.2-0.7,0.4-1.3c0.1-0.6,0.2-1.8,0.2-1.8s1.1,0.4,1,1c-0.1,0.6-0.2,2.2-0.7,3.2
		c-0.5,1-0.8,1.5-1.5,1.9C65.5,41.7,63.1,42.1,63.1,42.1z"/>
	<path class="st1" d="M27.9,72.2c-0.2,3,1.7,5.4,4.4,5.8c2.7-0.5,4.5-3,4.2-5.9c-0.3-3-2.2-5.4-4.4-5.8
		C29.9,66.7,28.1,69.2,27.9,72.2z"/>
	<path class="st2" d="M31.7,77.1c-0.2-0.1-1.4-1.2-1.6-1.5c-0.2-0.3-0.7-0.9-0.7-1.4s-0.8-1.8-0.6-2.4c0.2-0.6,0.3-0.7,0.6-1.4
		c0.3-0.7,0.8-1.3,0.8-1.3s-0.4,1-0.4,1.6s-0.2,1.3,0.2,1.8c0.5,0.5,1.4,1.5,1.4,1.5s0-0.9,0-1.5c0-0.6-0.1-1-0.2-1.6
		s-0.3-1.7-0.3-2s0.3-0.8,0.5-1.1c0.2-0.3,0.6-0.8,0.6-0.8s0.5,0.4,0.6,1.4c0.2,1,0.2,3,0.3,3.6s0.1,2.1,0.1,2.1s0.5-0.5,0.7-0.8
		s0.5-0.8,0.5-0.9s0-0.8,0-1.4S34,69.4,34,69.4s1.2,0.1,1.2,0.7s0.4,2.2,0.2,3.3S35,75,34.5,75.6C33.9,76.2,31.7,77.1,31.7,77.1z"/>
	<path class="st1" d="M51.4,63.4c0.6,3,3,4.8,5.7,4.5c2.4-1.2,3.6-4,2.5-6.8c-1-2.8-3.5-4.6-5.7-4.5C51.9,57.5,50.8,60.4,51.4,63.4z
		"/>
	<path class="st2" d="M56.4,67.1c-0.2-0.1-1.7-0.8-1.9-1.1c-0.2-0.3-0.9-0.7-1.1-1.1c-0.2-0.4-1.2-1.6-1.2-2.2
		c0-0.6,0.2-0.7,0.3-1.5s0.4-1.5,0.4-1.5s-0.1,1,0,1.7c0.2,0.6,0.1,1.3,0.7,1.7s1.7,1.1,1.7,1.1s-0.2-0.8-0.4-1.4
		c-0.2-0.6-0.3-0.9-0.6-1.5c-0.2-0.6-0.8-1.5-0.8-1.8c0-0.3,0.1-0.8,0.1-1.2s0.4-0.9,0.4-0.9s0.5,0.3,1,1.2c0.4,1,1,2.9,1.2,3.4
		c0.2,0.6,0.7,2,0.7,2s0.3-0.6,0.5-1c0.2-0.4,0.2-0.9,0.2-1c0-0.1-0.2-0.8-0.4-1.3c-0.2-0.6-0.7-1.6-0.7-1.6s1.2-0.2,1.4,0.3
		c0.2,0.5,0.9,2,1,3.1c0.1,1.1,0.1,1.7-0.3,2.4C58.3,65.6,56.4,67.1,56.4,67.1z"/>
	<path class="st1" d="M42.3,47.4c1.3,2.7,4.2,3.9,6.7,2.9c2.1-1.8,2.4-4.8,0.7-7.2c-1.7-2.4-4.6-3.6-6.7-2.9
		C41.3,41.6,40.9,44.7,42.3,47.4z"/>
	<path class="st2" d="M48,49.7c-0.2,0-1.8-0.3-2.1-0.5c-0.3-0.2-1.1-0.4-1.3-0.8s-1.6-1.2-1.7-1.8c-0.1-0.6,0-0.8-0.1-1.5
		c-0.1-0.7,0-1.5,0-1.5s0.1,1,0.5,1.6s0.4,1.2,1.1,1.4c0.7,0.2,1.9,0.6,1.9,0.6s-0.4-0.7-0.8-1.3c-0.3-0.5-0.6-0.8-0.9-1.3
		s-1.1-1.3-1.3-1.6c-0.1-0.3-0.2-0.8-0.2-1.2c0-0.4,0.2-1,0.2-1s0.6,0.1,1.3,0.9c0.7,0.8,1.7,2.5,2.1,3c0.3,0.5,1.2,1.8,1.2,1.8
		s0.1-0.6,0.2-1.1c0.1-0.4,0-0.9,0-1c0-0.1-0.4-0.7-0.7-1.2c-0.3-0.5-1.1-1.4-1.1-1.4s1.1-0.5,1.4-0.1s1.4,1.7,1.8,2.8
		c0.4,1,0.5,1.6,0.3,2.4C49.5,47.8,48,49.7,48,49.7z"/>
	<path class="st1" d="M23.5,55.2c4,0.3,7.2-2.3,7.7-5.8c-0.7-3.5-4-5.9-7.9-5.6s-7.2,2.9-7.7,5.8C16.2,52.5,19.5,54.9,23.5,55.2z"/>
	<path class="st5" d="M30,50.1c-0.2,0.3-1.6,1.9-2,2.1c-0.4,0.2-1.2,0.9-1.8,1S23.8,54.3,23,54c-0.8-0.3-0.9-0.5-1.8-0.8
		c-0.9-0.4-1.7-1.1-1.7-1.1s1.3,0.5,2.2,0.5s1.7,0.3,2.4-0.3c0.7-0.6,2-1.8,2-1.8s-1.1,0-2,0s-1.3,0.1-2.1,0.2s-2.2,0.5-2.6,0.4
		c-0.4,0-1.1-0.4-1.5-0.6c-0.5-0.2-1-0.8-1-0.8s0.5-0.6,1.9-0.8c1.4-0.2,4-0.3,4.8-0.4c0.8,0,2.8-0.2,2.8-0.2s-0.6-0.6-1.1-1
		c-0.5-0.4-1-0.6-1.2-0.6s-1,0-1.8,0s-2.4,0.4-2.4,0.4s0.1-1.6,0.9-1.7c0.7-0.1,3-0.5,4.4-0.2c1.4,0.3,2.2,0.5,3,1.2
		C28.8,47.2,30,50.1,30,50.1z"/>
	<path class="st7" d="M26.1,64.8c3.9-0.8,6.4-4,6-7.6c-1.5-3.2-5.4-4.7-9.1-3.4c-3.7,1.4-6.2,4.7-6,7.6C18.4,64,22.2,65.5,26.1,64.8
		z"/>
	<path class="st4" d="M31.2,58.2c-0.1,0.3-1.1,2.2-1.4,2.6c-0.3,0.3-0.9,1.2-1.5,1.4s-2.1,1.7-2.9,1.6c-0.8-0.1-1-0.2-2-0.3
		c-1-0.1-2-0.6-2-0.6s1.4,0.2,2.2,0c0.8-0.2,1.7-0.1,2.2-0.9c0.5-0.8,1.4-2.3,1.4-2.3s-1.1,0.3-1.9,0.6c-0.8,0.3-1.2,0.5-2,0.8
		c-0.8,0.3-2,1-2.4,1.1s-1.1-0.1-1.6-0.2c-0.5-0.1-1.2-0.5-1.2-0.5s0.3-0.7,1.6-1.3c1.3-0.6,3.8-1.4,4.6-1.6
		c0.7-0.2,2.7-0.9,2.7-0.9s-0.8-0.4-1.3-0.6c-0.5-0.2-1.1-0.3-1.3-0.3c-0.2,0-1,0.2-1.8,0.5s-2.2,1-2.2,1s-0.3-1.6,0.4-1.8
		c0.7-0.3,2.7-1.3,4.2-1.4s2.3-0.1,3.2,0.4C29.1,55.6,31.2,58.2,31.2,58.2z"/>
	<path class="st1" d="M29.4,73.6c3.6-1.8,5.2-5.6,3.8-8.9c-2.3-2.7-6.4-3.2-9.6-0.9c-3.2,2.3-4.8,6.1-3.8,8.9
		C21.7,74.9,25.8,75.3,29.4,73.6z"/>
	<path class="st2" d="M32.5,65.9c0,0.3-0.5,2.4-0.7,2.9s-0.6,1.4-1.1,1.7s-1.6,2.1-2.4,2.3c-0.8,0.2-1,0-2,0.2s-2.1-0.1-2.1-0.1
		s1.4-0.2,2.1-0.6c0.8-0.4,1.6-0.6,1.9-1.5c0.3-0.9,0.8-2.6,0.8-2.6s-1,0.6-1.7,1c-0.7,0.4-1,0.8-1.7,1.3C25.1,71,24,72,23.7,72.2
		c-0.4,0.2-1.1,0.2-1.6,0.2c-0.5,0-1.3-0.2-1.3-0.2s0.1-0.8,1.2-1.7c1.1-0.9,3.3-2.3,4-2.7c0.6-0.4,2.4-1.6,2.4-1.6
		s-0.9-0.2-1.4-0.3c-0.6-0.1-1.2,0-1.3,0c-0.2,0-0.9,0.5-1.6,0.9c-0.7,0.4-1.9,1.5-1.9,1.5s-0.7-1.4-0.1-1.9
		c0.6-0.4,2.3-1.9,3.7-2.4s2.2-0.7,3.2-0.4C29.9,64,32.5,65.9,32.5,65.9z"/>
	<path class="st3" d="M44.7,89c3-2.6,3.5-6.7,1.4-9.6c-3-2-7-1.4-9.5,1.6c-2.5,3-3,7.1-1.4,9.6C37.6,92.2,41.7,91.6,44.7,89z"/>
	<path class="st8" d="M45.7,80.8c0.1,0.3,0.2,2.5,0.1,2.9c-0.1,0.5-0.2,1.5-0.6,2c-0.4,0.5-1,2.5-1.7,2.8c-0.8,0.4-1,0.3-1.9,0.7
		c-0.9,0.4-2,0.5-2,0.5s1.3-0.5,1.9-1.2c0.6-0.6,1.4-1,1.5-1.9c0-0.9,0.1-2.7,0.1-2.7s-0.8,0.8-1.4,1.4c-0.5,0.6-0.8,1-1.3,1.7
		c-0.5,0.7-1.2,1.9-1.6,2.2c-0.3,0.3-1,0.5-1.5,0.7c-0.5,0.2-1.3,0.1-1.3,0.1s-0.1-0.8,0.8-1.9c0.8-1.1,2.6-3.1,3.1-3.7
		c0.5-0.6,1.9-2.1,1.9-2.1s-0.9,0-1.5,0.1c-0.6,0.1-1.1,0.3-1.3,0.4c-0.1,0.1-0.8,0.7-1.3,1.3c-0.5,0.6-1.4,1.9-1.4,1.9
		s-1-1.2-0.6-1.8c0.5-0.6,1.7-2.4,2.9-3.3c1.2-0.8,1.9-1.2,3-1.2S45.7,80.8,45.7,80.8z"/>
	<path class="st1" d="M46.3,66.3c2.2-3.3,1.7-7.4-1.2-9.6c-3.4-1.2-7.1,0.5-8.8,4c-1.6,3.6-1.1,7.7,1.2,9.6
		C40.3,71.3,44.1,69.6,46.3,66.3z"/>
	<path class="st2" d="M45.2,58.1c0.1,0.3,0.8,2.3,0.8,2.8c0,0.5,0.2,1.5-0.1,2c-0.3,0.5-0.3,2.6-0.9,3.2c-0.6,0.5-0.8,0.5-1.6,1.1
		c-0.8,0.6-1.8,1-1.8,1s1.1-0.9,1.5-1.6c0.4-0.8,1.1-1.3,0.9-2.2c-0.2-0.9-0.6-2.6-0.6-2.6s-0.6,1-0.9,1.7c-0.4,0.7-0.5,1.2-0.9,1.9
		s-0.7,2.1-1,2.5c-0.2,0.3-0.9,0.7-1.3,1c-0.4,0.3-1.2,0.5-1.2,0.5s-0.3-0.7,0.2-2.1c0.5-1.3,1.7-3.7,2.1-4.4
		c0.3-0.7,1.3-2.6,1.3-2.6s-0.8,0.3-1.4,0.5c-0.6,0.2-1,0.6-1.1,0.7c-0.1,0.1-0.6,0.9-0.9,1.6c-0.4,0.7-0.9,2.2-0.9,2.2
		s-1.3-0.9-1-1.6c0.3-0.7,1-2.8,2-3.9S40,58.2,41,58S45.2,58.1,45.2,58.1z"/>
	<path class="st1" d="M40.1,44c2.4-1.2,3.4-3.7,2.5-5.9c-1.5-1.8-4.2-2.1-6.3-0.6c-2.1,1.5-3.1,4-2.5,5.9
		C35.1,44.9,37.8,45.2,40.1,44z"/>
	<path class="st2" d="M42.2,38.9c0,0.2-0.3,1.6-0.5,1.9S41.4,41.7,41,42c-0.3,0.2-1,1.4-1.6,1.5c-0.5,0.1-0.7,0-1.3,0.1
		c-0.6,0.1-1.4,0-1.4,0s0.9-0.1,1.4-0.4c0.5-0.3,1.1-0.4,1.3-1c0.2-0.6,0.5-1.7,0.5-1.7s-0.7,0.4-1.1,0.7c-0.4,0.3-0.7,0.5-1.1,0.8
		s-1.1,1-1.4,1.1c-0.3,0.1-0.7,0.1-1.1,0.2s-0.9-0.1-0.9-0.1s0.1-0.5,0.8-1.1c0.7-0.6,2.2-1.5,2.6-1.8c0.4-0.3,1.6-1,1.6-1
		s-0.6-0.1-1-0.2c-0.4-0.1-0.8,0-0.9,0c-0.1,0-0.6,0.3-1,0.6s-1.2,1-1.2,1s-0.4-0.9,0-1.2c0.4-0.3,1.5-1.3,2.4-1.6
		c0.9-0.3,1.4-0.4,2.1-0.3C40.5,37.7,42.2,38.9,42.2,38.9z"/>
	<path class="st1" d="M62.3,72.2c0.8-2.5-0.2-5-2.4-5.9c-2.4-0.2-4.5,1.5-4.9,4.1c-0.4,2.6,0.6,5.1,2.4,5.9
		C59.4,76.4,61.5,74.7,62.3,72.2z"/>
	<path class="st2" d="M60.2,67.2c0.1,0.2,0.9,1.4,1,1.7c0.1,0.3,0.4,0.9,0.3,1.3c-0.1,0.4,0.3,1.7-0.1,2.2s-0.4,0.5-0.8,1
		c-0.4,0.5-1,0.9-1,0.9s0.6-0.7,0.7-1.3c0.1-0.6,0.5-1,0.2-1.6c-0.3-0.5-0.8-1.6-0.8-1.6s-0.2,0.7-0.3,1.3s-0.1,0.8-0.2,1.4
		C59.1,73,59.1,74,59,74.2s-0.4,0.6-0.6,0.9c-0.2,0.3-0.7,0.5-0.7,0.5s-0.3-0.4-0.2-1.3c0.1-0.9,0.5-2.6,0.6-3.1
		c0.1-0.5,0.4-1.8,0.4-1.8s-0.5,0.3-0.8,0.5c-0.3,0.2-0.6,0.5-0.6,0.6c-0.1,0.1-0.2,0.7-0.3,1.2c-0.1,0.5-0.2,1.6-0.2,1.6
		s-1-0.4-0.9-0.8s0.2-2,0.6-2.8s0.7-1.3,1.3-1.7S60.2,67.2,60.2,67.2z"/>
	<path class="st6" d="M54.7,70.5c1.3-3.8-0.3-7.6-3.6-9c-3.6-0.3-6.8,2.3-7.4,6.2c-0.7,3.9,0.9,7.7,3.6,9
		C50.2,76.8,53.4,74.2,54.7,70.5z"/>
	<path class="st2" d="M51.4,62.8c0.2,0.3,1.4,2.1,1.5,2.5c0.1,0.5,0.6,1.4,0.5,2s0.4,2.6-0.1,3.3c-0.5,0.7-0.7,0.7-1.3,1.5
		c-0.6,0.8-1.5,1.4-1.5,1.4s0.8-1.1,1.1-2c0.2-0.8,0.8-1.6,0.3-2.4c-0.5-0.8-1.3-2.4-1.3-2.4s-0.3,1.1-0.5,1.9
		c-0.2,0.8-0.2,1.3-0.3,2.1c-0.1,0.8-0.1,2.3-0.3,2.6c-0.2,0.4-0.6,0.9-1,1.3c-0.3,0.4-1.1,0.8-1.1,0.8s-0.4-0.6-0.3-2
		c0.1-1.4,0.7-4,0.9-4.7c0.2-0.8,0.6-2.8,0.6-2.8s-0.7,0.5-1.2,0.8c-0.5,0.4-0.8,0.8-0.9,1c-0.1,0.1-0.3,1-0.5,1.8
		c-0.2,0.8-0.3,2.4-0.3,2.4s-1.5-0.5-1.4-1.3s0.3-3,0.9-4.3c0.6-1.3,1.1-2,2-2.5C48.3,63.3,51.4,62.8,51.4,62.8z"/>
	<path class="st7" d="M46.8,73c-2.6-3-6.7-3.5-9.6-1.4c-2,3-1.4,7,1.6,9.5c3,2.5,7.1,3,9.6,1.4C50,80.1,49.4,76,46.8,73z"/>
	<path class="st5" d="M38.5,72.5c0.3-0.1,2.5-0.2,2.9-0.1c0.5,0.1,1.5,0.2,2,0.6c0.5,0.4,2.5,1,2.8,1.7c0.4,0.8,0.3,1,0.7,1.9
		c0.4,0.9,0.5,2,0.5,2s-0.5-1.3-1.2-1.9c-0.6-0.6-1-1.4-1.9-1.5c-0.9,0-2.7-0.1-2.7-0.1s0.8,0.8,1.4,1.4c0.6,0.5,1,0.8,1.7,1.3
		s1.9,1.2,2.2,1.6c0.3,0.3,0.5,1,0.7,1.5s0.1,1.3,0.1,1.3s-0.8,0.1-1.9-0.8c-1.1-0.8-3.1-2.6-3.7-3.1c-0.6-0.5-2.1-1.9-2.1-1.9
		s0,0.9,0.1,1.5c0.1,0.6,0.3,1.1,0.4,1.3s0.7,0.8,1.3,1.3c0.6,0.5,1.9,1.4,1.9,1.4s-1.2,1-1.8,0.6c-0.6-0.5-2.4-1.7-3.3-2.9
		c-0.8-1.2-1.2-1.9-1.2-3S38.5,72.5,38.5,72.5z"/>
	<path class="st1" d="M26.9,70.3c3.8,1.3,7.6-0.3,9-3.6c0.3-3.6-2.3-6.8-6.2-7.4s-7.7,0.9-9,3.6C20.5,65.8,23.1,69,26.9,70.3z"/>
	<path class="st5" d="M34.5,67.7c-0.3,0.2-2.1,1.4-2.5,1.5c-0.5,0.1-1.4,0.6-2,0.5c-0.6-0.1-2.6,0.4-3.3-0.1
		c-0.7-0.5-0.7-0.7-1.5-1.3s-1.4-1.5-1.4-1.5s1.1,0.8,2,1.1c0.8,0.2,1.6,0.8,2.4,0.3s2.4-1.3,2.4-1.3s-1.1-0.3-1.9-0.5
		c-0.8-0.2-1.3-0.2-2.1-0.3s-2.3-0.1-2.6-0.3c-0.4-0.2-0.9-0.6-1.3-1c-0.4-0.3-0.8-1.1-0.8-1.1s0.6-0.4,2-0.3c1.4,0.1,4,0.7,4.7,0.9
		c0.8,0.2,2.8,0.6,2.8,0.6s-0.5-0.7-0.8-1.2c-0.4-0.5-0.8-0.8-1-0.9c-0.1-0.1-1-0.3-1.8-0.5c-0.8-0.2-2.4-0.3-2.4-0.3
		s0.5-1.5,1.3-1.4c0.7,0.1,3,0.3,4.3,0.9s2,1.1,2.5,2C34.1,64.5,34.5,67.7,34.5,67.7z"/>
	<path class="st6" d="M34.8,80.2c1.3-3.8-0.3-7.6-3.6-9c-3.6-0.3-6.8,2.3-7.4,6.2c-0.7,3.9,0.9,7.7,3.6,9
		C30.3,86.6,33.5,84,34.8,80.2z"/>
	<path class="st2" d="M31.6,72.6c0.2,0.3,1.4,2.1,1.5,2.5c0.1,0.5,0.6,1.4,0.5,2c-0.1,0.6,0.4,2.6-0.1,3.3c-0.5,0.7-0.7,0.7-1.3,1.5
		c-0.6,0.8-1.5,1.4-1.5,1.4s0.8-1.1,1.1-2s0.8-1.6,0.3-2.4c-0.5-0.8-1.3-2.4-1.3-2.4s-0.3,1.1-0.5,1.9s-0.2,1.3-0.3,2.1
		c-0.1,0.8-0.1,2.3-0.3,2.6s-0.6,0.9-1,1.3s-1.1,0.8-1.1,0.8s-0.4-0.6-0.3-2s0.7-4,0.9-4.7c0.2-0.8,0.6-2.8,0.6-2.8
		s-0.7,0.5-1.2,0.8s-0.8,0.8-0.9,1c-0.1,0.1-0.3,1-0.5,1.8c-0.2,0.8-0.3,2.4-0.3,2.4s-1.5-0.5-1.4-1.3s0.3-3,0.9-4.3
		c0.6-1.3,1.1-2,2-2.5C28.4,73.1,31.6,72.6,31.6,72.6z"/>
	<path class="st1" d="M67.1,72.8c2.4-2.8,6.2-3.2,8.8-1.3c1.9,2.7,1.3,6.4-1.5,8.7c-2.8,2.3-6.5,2.8-8.8,1.3
		C64.1,79.3,64.7,75.6,67.1,72.8z"/>
	<path class="st5" d="M74.6,72.4c-0.3-0.1-2.3-0.2-2.7-0.1s-1.4,0.2-1.8,0.5c-0.4,0.4-2.3,0.9-2.6,1.6c-0.3,0.7-0.3,0.9-0.6,1.7
		C66.6,77,66.5,78,66.5,78s0.5-1.2,1.1-1.8s0.9-1.3,1.8-1.3c0.9,0,2.5-0.1,2.5-0.1s-0.7,0.7-1.3,1.2c-0.6,0.5-0.9,0.7-1.5,1.2
		s-1.7,1.1-2,1.4s-0.4,0.9-0.6,1.4c-0.1,0.4-0.1,1.2-0.1,1.2s0.7,0.1,1.8-0.7c1-0.7,2.8-2.4,3.4-2.9c0.5-0.5,2-1.7,2-1.7
		s0,0.8-0.1,1.3s-0.3,1-0.3,1.2s-0.6,0.7-1.2,1.2C71.2,80.2,70,81,70,81s1.1,0.9,1.6,0.5c0.5-0.4,2.2-1.6,3-2.7
		c0.7-1.1,1.1-1.8,1.1-2.7C75.7,75.2,74.6,72.4,74.6,72.4z"/>
	<path class="st1" d="M85.3,70.3c-3.5,1.2-7-0.3-8.2-3.3c-0.3-3.3,2.1-6.2,5.7-6.8c3.6-0.6,7,0.9,8.2,3.3
		C91.2,66.2,88.8,69.1,85.3,70.3z"/>
	<path class="st2" d="M78.3,67.4c0.2,0.2,1.9,1.3,2.3,1.4c0.4,0.1,1.3,0.5,1.8,0.4c0.5-0.1,2.4,0.4,3.1-0.1c0.6-0.4,0.7-0.6,1.4-1.2
		c0.7-0.5,1.3-1.4,1.3-1.4s-1,0.8-1.8,1c-0.8,0.2-1.4,0.7-2.2,0.3c-0.7-0.4-2.2-1.2-2.2-1.2s1-0.3,1.7-0.4s1.2-0.2,1.9-0.3
		s2.1-0.1,2.4-0.3s0.9-0.6,1.2-0.9c0.4-0.3,0.7-1,0.7-1s-0.6-0.4-1.9-0.3c-1.3,0.1-3.7,0.7-4.4,0.8c-0.7,0.1-2.6,0.5-2.6,0.5
		s0.4-0.7,0.8-1.1s0.8-0.8,0.9-0.9c0.1-0.1,0.9-0.3,1.6-0.4c0.7-0.1,2.2-0.2,2.2-0.2s-0.5-1.4-1.2-1.3s-2.7,0.3-3.9,0.8
		c-1.2,0.6-1.8,1-2.3,1.8S78.3,67.4,78.3,67.4z"/>
	<path class="st1" d="M78.1,79.4c-1.2-3.5,0.3-7,3.3-8.2c3.3-0.3,6.2,2.1,6.8,5.7c0.6,3.6-0.9,7-3.3,8.2
		C82.2,85.3,79.2,82.9,78.1,79.4z"/>
	<path class="st8" d="M81,72.4c-0.2,0.2-1.3,1.9-1.4,2.3c-0.1,0.4-0.5,1.3-0.4,1.8c0.1,0.5-0.4,2.4,0.1,3.1c0.4,0.6,0.6,0.7,1.2,1.4
		c0.5,0.7,1.4,1.3,1.4,1.3s-0.8-1-1-1.8c-0.2-0.8-0.7-1.4-0.3-2.2c0.4-0.7,1.2-2.2,1.2-2.2s0.3,1,0.4,1.7c0.2,0.7,0.2,1.2,0.3,1.9
		s0.1,2.1,0.3,2.4s0.6,0.9,0.9,1.2c0.3,0.4,1,0.7,1,0.7s0.4-0.6,0.3-1.9s-0.7-3.7-0.8-4.4s-0.5-2.6-0.5-2.6s0.7,0.4,1.1,0.8
		s0.8,0.8,0.9,0.9c0.1,0.1,0.3,0.9,0.4,1.6c0.1,0.7,0.2,2.2,0.2,2.2s1.4-0.5,1.3-1.2s-0.3-2.7-0.8-3.9c-0.6-1.2-1-1.8-1.8-2.3
		S81,72.4,81,72.4z"/>
	<path class="st1" d="M72.1,87c1.3-2.3,0.7-4.9-1.2-6.2c-2.3-0.6-4.6,0.7-5.5,3.1c-0.9,2.4-0.3,5,1.2,6.2
		C68.5,90.5,70.9,89.2,72.1,87z"/>
	<path class="st2" d="M71,81.7c0.1,0.2,0.7,1.5,0.7,1.8c0,0.3,0.2,1,0.1,1.3c-0.1,0.4-0.1,1.7-0.4,2.1s-0.5,0.4-1,0.8
		s-1.1,0.7-1.1,0.7s0.7-0.6,0.9-1.1s0.7-0.9,0.5-1.5s-0.5-1.7-0.5-1.7s-0.3,0.7-0.5,1.2s-0.3,0.8-0.5,1.3c-0.2,0.5-0.3,1.4-0.5,1.7
		c-0.1,0.2-0.5,0.5-0.8,0.7c-0.3,0.2-0.8,0.4-0.8,0.4s-0.2-0.5,0-1.3c0.3-0.9,0.9-2.5,1.1-2.9c0.2-0.5,0.7-1.7,0.7-1.7
		s-0.5,0.2-0.9,0.4c-0.3,0.2-0.6,0.4-0.7,0.5c-0.1,0.1-0.3,0.6-0.5,1.1s-0.4,1.5-0.4,1.5s-0.9-0.5-0.7-1c0.2-0.5,0.5-1.9,1.1-2.6
		c0.6-0.8,0.9-1.2,1.6-1.4C68.9,81.6,71,81.7,71,81.7z"/>
	<path class="st1" d="M80.8,85.7c-1.3-2.2-3.9-3-5.9-2c-1.6,1.6-1.7,4.3-0.1,6.3c1.6,2,4.2,2.8,5.9,2C82.1,90.6,82.2,88,80.8,85.7z"
		/>
	<path class="st2" d="M75.7,84.1c0.2,0,1.6,0.2,1.9,0.3c0.3,0.1,0.9,0.3,1.2,0.6s1.5,0.9,1.6,1.4c0.1,0.5,0.1,0.6,0.2,1.3
		s0.1,1.3,0.1,1.3s-0.2-0.9-0.5-1.4c-0.3-0.5-0.5-1-1-1.2c-0.6-0.1-1.7-0.4-1.7-0.4s0.4,0.6,0.7,1c0.3,0.4,0.5,0.6,0.9,1
		c0.4,0.4,1.1,1,1.2,1.3c0.1,0.2,0.2,0.7,0.2,1c0,0.3-0.1,0.8-0.1,0.8s-0.5-0.1-1.1-0.7c-0.6-0.7-1.7-2-2-2.4
		c-0.3-0.4-1.1-1.5-1.1-1.5S76,87.3,76,87.7c0,0.4,0.1,0.8,0.1,0.9c0,0.1,0.4,0.6,0.7,1c0.3,0.4,1.1,1.1,1.1,1.1s-0.9,0.5-1.2,0.1
		c-0.3-0.4-1.4-1.4-1.7-2.3s-0.5-1.4-0.4-2C74.6,85.9,75.7,84.1,75.7,84.1z"/>
	<path class="st7" d="M78.6,75.9c-2.6,0-4.6,1.8-4.7,4.1c0.6,2.3,2.9,3.6,5.4,3.2c2.5-0.4,4.5-2.2,4.7-4.1
		C83.5,77.3,81.2,75.8,78.6,75.9z"/>
	<path class="st2" d="M74.6,79.5c0.1-0.2,0.9-1.3,1.2-1.5c0.3-0.2,0.7-0.7,1.1-0.7s1.5-0.8,2.1-0.7c0.5,0.1,0.6,0.3,1.2,0.4
		c0.6,0.2,1.2,0.6,1.2,0.6s-0.9-0.3-1.4-0.2c-0.6,0-1.1-0.1-1.5,0.3c-0.4,0.5-1.2,1.3-1.2,1.3S78,79,78.5,79
		c0.5-0.1,0.8-0.2,1.3-0.3c0.5-0.1,1.4-0.4,1.7-0.4c0.3,0,0.7,0.2,1,0.3c0.3,0.1,0.7,0.5,0.7,0.5s-0.3,0.4-1.2,0.6
		c-0.9,0.2-2.6,0.4-3.1,0.5c-0.5,0.1-1.8,0.3-1.8,0.3s0.4,0.4,0.8,0.6c0.3,0.2,0.7,0.3,0.8,0.4c0.1,0,0.7,0,1.2-0.1
		c0.5-0.1,1.5-0.4,1.5-0.4s0,1-0.5,1.1c-0.5,0.1-1.9,0.5-2.8,0.4c-0.9-0.1-1.5-0.2-2-0.7C75.6,81.3,74.6,79.5,74.6,79.5z"/>
</g>
</svg>
