<?xml version="1.0" encoding="utf-8"?>
<!-- Generator: Adobe Illustrator 23.1.1, SVG Export Plug-In . SVG Version: 6.00 Build 0)  -->
<svg version="1.1" id="Layer_1" xmlns="http://www.w3.org/2000/svg" xmlns:xlink="http://www.w3.org/1999/xlink" x="0px" y="0px"
	 viewBox="0 0 108 108" style="enable-background:new 0 0 108 108;" xml:space="preserve">
<style type="text/css">
	.st0{fill:#97C03D;}
	.st1{fill:#89B03F;}
	.st2{fill:#ABC638;}
	.st3{fill:none;stroke:#7D8B37;stroke-width:0.5908;stroke-linecap:round;stroke-miterlimit:10;}
	.st4{fill:none;stroke:#7D8B37;stroke-width:0.3832;stroke-linecap:round;stroke-miterlimit:10;}
</style>
<g>
	<g>
		<path class="st0" d="M56.54,55.35c0,0,0.27-0.84,1.52-0.45c1.26,0.39,6.59,1.08,7.18,1.28s1.77,0.21,1.77,0.21s0.02,0.5-0.17,0.67
			s-5.66,1.33-6.3,1.36s-2.09-0.11-2.49-0.28c-0.4-0.18-0.85-0.22-1.15-0.66C56.6,57.05,56.21,55.75,56.54,55.35z"/>
		<path class="st1" d="M55.65,58.93c0,0,0.26-0.82,1.48-0.43c1.22,0.38,6.39,1.05,6.96,1.24c0.56,0.19,1.71,0.21,1.71,0.21
			s0.02,0.49-0.16,0.65s-5.49,1.29-6.11,1.32c-0.62,0.03-2.02-0.1-2.41-0.27S56.28,61.43,56,61S55.33,59.32,55.65,58.93z"/>
		<path class="st0" d="M54.89,61.71c0,0,0.25-0.79,1.43-0.42s6.19,1.02,6.73,1.2c0.55,0.18,1.66,0.2,1.66,0.2s0.02,0.47-0.16,0.63
			c-0.18,0.15-5.31,1.25-5.91,1.28c-0.6,0.03-1.96-0.1-2.34-0.27c-0.38-0.16-0.8-0.2-1.08-0.62C54.94,63.3,54.57,62.09,54.89,61.71z
			"/>
		<path class="st1" d="M55.24,65.17c0,0,0.24-0.76,1.38-0.41c1.14,0.36,5.98,0.98,6.51,1.16c0.53,0.17,1.6,0.19,1.6,0.19
			s0.02,0.46-0.15,0.61c-0.17,0.15-5.14,1.21-5.72,1.24c-0.58,0.03-1.89-0.1-2.26-0.26s-0.78-0.2-1.05-0.6
			C55.29,66.71,54.94,65.53,55.24,65.17z"/>
		<path class="st0" d="M54.55,67.54c0,0,0.23-0.74,1.33-0.39s5.78,0.95,6.29,1.12s1.55,0.19,1.55,0.19s0.02,0.44-0.15,0.59
			c-0.17,0.14-4.96,1.17-5.52,1.2c-0.56,0.03-1.83-0.09-2.18-0.25c-0.35-0.15-0.75-0.19-1.01-0.58
			C54.6,69.03,54.26,67.89,54.55,67.54z"/>
		<path class="st1" d="M54.64,71.82c0,0,0.23-0.71,1.29-0.38c1.06,0.33,5.57,0.92,6.06,1.08c0.49,0.16,1.49,0.18,1.49,0.18
			s0.02,0.43-0.14,0.57c-0.16,0.14-4.78,1.13-5.32,1.15c-0.54,0.03-1.77-0.09-2.1-0.24c-0.34-0.15-0.72-0.18-0.97-0.56
			C54.69,73.26,54.36,72.16,54.64,71.82z"/>
		<path class="st0" d="M54.66,75.16c0,0,0.22-0.69,1.24-0.37c1.02,0.32,5.37,0.88,5.84,1.04c0.47,0.16,1.44,0.17,1.44,0.17
			s0.02,0.41-0.14,0.54s-4.61,1.09-5.13,1.11c-0.52,0.02-1.7-0.09-2.03-0.23c-0.33-0.14-0.7-0.18-0.94-0.54
			C54.7,76.54,54.39,75.49,54.66,75.16z"/>
		<path class="st0" d="M54.14,77.88c0,0,0.21-0.66,1.19-0.35s5.16,0.85,5.62,1c0.46,0.15,1.38,0.17,1.38,0.17s0.02,0.4-0.13,0.52
			c-0.15,0.13-4.43,1.04-4.93,1.07s-1.64-0.08-1.95-0.22s-0.67-0.17-0.9-0.52C54.18,79.2,53.88,78.19,54.14,77.88z"/>
		<path class="st1" d="M54.46,80.63c0,0,0.19-0.61,1.1-0.32c0.91,0.28,4.75,0.78,5.17,0.92c0.42,0.14,1.27,0.15,1.27,0.15
			s0.02,0.36-0.12,0.48c-0.14,0.12-4.08,0.96-4.54,0.98c-0.46,0.02-1.51-0.08-1.8-0.2c-0.29-0.13-0.62-0.16-0.83-0.47
			S54.22,80.92,54.46,80.63z"/>
		<path class="st0" d="M54.73,69.84c0,0,0.18-0.58,1.05-0.31c0.87,0.27,4.55,0.75,4.95,0.88s1.22,0.15,1.22,0.15
			s0.01,0.35-0.12,0.46c-0.13,0.11-3.91,0.92-4.35,0.94s-1.44-0.07-1.72-0.19c-0.28-0.12-0.59-0.15-0.8-0.45
			C54.77,71.01,54.5,70.12,54.73,69.84z"/>
		<path class="st0" d="M54.62,83.78c0,0,0.17-0.53,0.96-0.28c0.79,0.25,4.14,0.68,4.51,0.8c0.37,0.12,1.11,0.13,1.11,0.13
			s0.01,0.32-0.11,0.42c-0.12,0.1-3.56,0.84-3.96,0.86c-0.4,0.02-1.31-0.07-1.56-0.18c-0.25-0.11-0.54-0.14-0.72-0.41
			S54.41,84.03,54.62,83.78z"/>
		<path class="st1" d="M55.32,87.18c0,0,0.14-0.45,0.81-0.24c0.67,0.21,3.53,0.58,3.84,0.68c0.31,0.1,0.94,0.11,0.94,0.11
			s0.01,0.27-0.09,0.36c-0.1,0.09-3.03,0.71-3.37,0.73c-0.34,0.02-1.12-0.06-1.33-0.15c-0.21-0.09-0.46-0.12-0.62-0.35
			C55.35,88.09,55.14,87.39,55.32,87.18z"/>
		<path class="st0" d="M56.28,89.36c0,0,0.33-0.3,0.78,0.19c0.45,0.49,2.6,2.14,2.81,2.37c0.21,0.23,0.72,0.54,0.72,0.54
			s-0.12,0.23-0.24,0.25c-0.12,0.02-2.81-0.85-3.09-0.99c-0.29-0.15-0.88-0.57-1.02-0.75s-0.32-0.31-0.34-0.58
			S56.03,89.45,56.28,89.36z"/>
		<path class="st2" d="M55.63,55.42c0,0-0.29-0.84-1.53-0.41c-1.25,0.42-6.57,1.25-7.14,1.45c-0.58,0.21-1.76,0.26-1.76,0.26
			s-0.01,0.5,0.18,0.66c0.19,0.16,5.69,1.19,6.33,1.21c0.64,0.01,2.09-0.16,2.48-0.34c0.4-0.19,0.85-0.24,1.14-0.69
			C55.61,57.12,55.97,55.81,55.63,55.42z"/>
		<path class="st0" d="M54.89,59.52c0,0-0.27-0.78-1.44-0.39s-6.16,1.17-6.7,1.36s-1.65,0.24-1.65,0.24s-0.01,0.47,0.17,0.62
			s5.34,1.12,5.94,1.13c0.6,0.01,1.96-0.15,2.33-0.32c0.37-0.17,0.8-0.22,1.07-0.64S55.21,59.89,54.89,59.52z"/>
		<path class="st2" d="M53.88,63.39c0,0-0.25-0.73-1.34-0.36s-5.75,1.09-6.26,1.27c-0.51,0.18-1.54,0.23-1.54,0.23
			s-0.01,0.44,0.16,0.58c0.17,0.14,4.99,1.04,5.55,1.06c0.56,0.01,1.83-0.14,2.17-0.3s0.74-0.21,0.99-0.6
			C53.87,64.87,54.18,63.73,53.88,63.39z"/>
		<path class="st0" d="M53.5,66.8c0,0-0.23-0.68-1.25-0.33c-1.01,0.35-5.34,1.02-5.81,1.18c-0.47,0.17-1.43,0.21-1.43,0.21
			S45,68.27,45.16,68.4c0.16,0.13,4.63,0.97,5.16,0.98c0.52,0.01,1.7-0.13,2.02-0.28c0.32-0.15,0.69-0.19,0.92-0.56
			C53.49,68.18,53.78,67.11,53.5,66.8z"/>
		<path class="st2" d="M53.9,70.23c0,0-0.23-0.65-1.2-0.32c-0.98,0.33-5.14,0.98-5.59,1.14s-1.38,0.2-1.38,0.2s-0.01,0.4,0.14,0.52
			c0.15,0.13,4.46,0.93,4.96,0.95c0.5,0.01,1.63-0.12,1.94-0.27c0.31-0.14,0.66-0.19,0.89-0.54C53.89,71.55,54.17,70.53,53.9,70.23z
			"/>
		<path class="st0" d="M53.99,73.93c0,0-0.21-0.6-1.11-0.3c-0.9,0.31-4.73,0.9-5.15,1.05c-0.42,0.15-1.27,0.19-1.27,0.19
			s-0.01,0.36,0.13,0.48c0.14,0.12,4.11,0.86,4.57,0.87c0.46,0.01,1.5-0.11,1.79-0.25s0.61-0.17,0.82-0.49
			C53.98,75.15,54.24,74.21,53.99,73.93z"/>
		<path class="st2" d="M53.36,77.48c0,0-0.2-0.58-1.06-0.28c-0.86,0.29-4.53,0.86-4.93,1c-0.4,0.14-1.21,0.18-1.21,0.18
			s-0.01,0.35,0.13,0.46c0.13,0.11,3.93,0.82,4.37,0.83s1.44-0.11,1.71-0.24c0.27-0.13,0.59-0.17,0.78-0.47
			C53.35,78.65,53.6,77.75,53.36,77.48z"/>
		<path class="st0" d="M53.23,80.27c0,0-0.19-0.55-1.01-0.27s-4.33,0.82-4.71,0.96c-0.38,0.14-1.16,0.17-1.16,0.17
			s-0.01,0.33,0.12,0.44c0.13,0.11,3.75,0.79,4.17,0.8c0.42,0.01,1.37-0.1,1.64-0.23s0.56-0.16,0.75-0.45S53.46,80.52,53.23,80.27z"
			/>
		<path class="st2" d="M54.65,82.65c0,0-0.18-0.52-0.96-0.26s-4.12,0.78-4.49,0.91s-1.1,0.16-1.1,0.16s-0.01,0.32,0.12,0.42
			c0.12,0.1,3.58,0.75,3.98,0.76c0.4,0.01,1.31-0.1,1.56-0.22c0.25-0.12,0.53-0.15,0.71-0.43C54.64,83.72,54.86,82.9,54.65,82.65z"
			/>
		<path class="st0" d="M54.09,84.91c0,0-0.17-0.5-0.92-0.25s-3.92,0.74-4.26,0.87c-0.34,0.12-1.05,0.15-1.05,0.15
			s-0.01,0.3,0.11,0.4c0.12,0.1,3.4,0.71,3.78,0.72c0.38,0.01,1.24-0.1,1.48-0.21c0.24-0.11,0.51-0.14,0.68-0.41
			C54.08,85.92,54.29,85.14,54.09,84.91z"/>
		<path class="st0" d="M54,86.97c0,0-0.15-0.45-0.82-0.22c-0.67,0.23-3.51,0.67-3.82,0.78c-0.31,0.11-0.94,0.14-0.94,0.14
			s0,0.27,0.1,0.36s3.05,0.64,3.39,0.65c0.34,0.01,1.12-0.09,1.33-0.18s0.45-0.13,0.61-0.37S54.18,87.18,54,86.97z"/>
		<path class="st0" d="M54.34,88.7c0,0-0.4-0.2-0.7,0.39s-1.93,2.76-2.07,3.03s-0.55,0.71-0.55,0.71s0.17,0.19,0.3,0.18
			c0.13-0.01,2.48-1.57,2.71-1.79c0.24-0.22,0.7-0.79,0.78-1c0.08-0.21,0.22-0.38,0.17-0.65C54.93,89.32,54.6,88.72,54.34,88.7z"/>
		<path class="st3" d="M56.14,53.85c-1.4,9.63-2.7,23.52-1.12,35.94"/>
	</g>
	<g>
		<g>
			<path class="st0" d="M58.4,53.21c0,0-0.05,0.88-1.36,0.82s-6.66,0.61-7.27,0.57c-0.61-0.04-1.76,0.24-1.76,0.24
				s-0.15-0.48-0.01-0.69c0.14-0.21,5.15-2.71,5.76-2.91c0.61-0.19,2.05-0.42,2.48-0.35s0.88,0,1.28,0.35
				C57.92,51.58,58.62,52.74,58.4,53.21z"/>
			<path class="st1" d="M58.42,49.32c0,0-0.05,0.86-1.32,0.79c-1.27-0.06-6.45,0.59-7.04,0.55c-0.59-0.04-1.71,0.23-1.71,0.23
				s-0.14-0.47-0.01-0.67s4.99-2.63,5.58-2.81c0.59-0.18,1.99-0.41,2.4-0.34c0.42,0.07,0.85,0,1.24,0.34
				C57.95,47.75,58.63,48.87,58.42,49.32z"/>
			<path class="st0" d="M58.3,45.08c0,0-0.04,0.83-1.28,0.77c-1.23-0.06-6.24,0.57-6.82,0.53c-0.57-0.04-1.65,0.22-1.65,0.22
				s-0.14-0.45-0.01-0.65s4.83-2.55,5.4-2.72c0.57-0.18,1.92-0.4,2.33-0.33c0.41,0.06,0.83,0,1.2,0.33
				C57.85,43.56,58.51,44.64,58.3,45.08z"/>
			<path class="st1" d="M58.02,39.83c0,0-0.04,0.8-1.24,0.74c-1.19-0.06-6.04,0.55-6.59,0.52c-0.56-0.04-1.6,0.22-1.6,0.22
				s-0.13-0.44,0-0.63c0.13-0.19,4.67-2.46,5.22-2.63c0.55-0.17,1.86-0.38,2.25-0.32c0.39,0.06,0.8,0,1.16,0.31
				C57.58,38.35,58.22,39.4,58.02,39.83z"/>
			<path class="st0" d="M55.82,36.05c0,0-0.04,0.77-1.19,0.72c-1.15-0.06-5.83,0.53-6.37,0.5c-0.54-0.03-1.54,0.21-1.54,0.21
				s-0.13-0.42,0-0.6c0.12-0.18,4.51-2.38,5.04-2.54s1.79-0.37,2.17-0.31c0.38,0.06,0.77,0,1.12,0.3S56.01,35.64,55.82,36.05z"/>
			<path class="st0" d="M55.06,32.97c0,0-0.03,0.61-0.94,0.56s-4.59,0.42-5.01,0.39c-0.42-0.03-1.22,0.16-1.22,0.16
				s-0.1-0.33,0-0.48c0.1-0.14,3.55-1.87,3.97-2s1.41-0.29,1.71-0.24c0.3,0.05,0.61,0,0.88,0.24
				C54.73,31.85,55.21,32.64,55.06,32.97z"/>
			<path class="st0" d="M54.27,30.4c0,0-0.03,0.55-0.86,0.51s-4.18,0.38-4.56,0.36c-0.38-0.02-1.11,0.15-1.11,0.15s-0.09-0.3,0-0.43
				c0.09-0.13,3.23-1.7,3.61-1.82c0.38-0.12,1.29-0.26,1.56-0.22c0.27,0.04,0.55,0,0.8,0.22C53.97,29.38,54.41,30.11,54.27,30.4z"/>
			<path class="st0" d="M52.43,27.73c0,0-0.24,0.37-0.8,0.01c-0.56-0.36-3.06-1.41-3.31-1.58c-0.26-0.17-0.83-0.34-0.83-0.34
				s0.06-0.25,0.17-0.3c0.11-0.05,2.93,0.11,3.24,0.18c0.31,0.07,1,0.33,1.17,0.47c0.17,0.14,0.39,0.22,0.47,0.47
				S52.65,27.58,52.43,27.73z"/>
			<path class="st2" d="M59.13,53.68c0,0,0.49,0.74,1.59,0.01c1.1-0.72,6.04-2.86,6.55-3.2c0.51-0.35,1.64-0.69,1.64-0.69
				s-0.12-0.49-0.35-0.6s-5.81,0.28-6.43,0.42c-0.62,0.15-1.98,0.68-2.32,0.96c-0.34,0.28-0.76,0.45-0.93,0.95
				S58.7,53.39,59.13,53.68z"/>
			<path class="st0" d="M59.16,49.77c0,0,0.46,0.69,1.49,0.01c1.03-0.68,5.67-2.68,6.14-3.01c0.48-0.32,1.54-0.65,1.54-0.65
				s-0.11-0.46-0.32-0.56c-0.21-0.1-5.45,0.26-6.03,0.4c-0.58,0.14-1.86,0.64-2.17,0.9c-0.32,0.26-0.71,0.42-0.87,0.89
				C58.77,48.23,58.75,49.5,59.16,49.77z"/>
			<path class="st2" d="M59.3,45.6c0,0,0.43,0.64,1.39,0.01c0.96-0.63,5.29-2.5,5.74-2.81c0.44-0.3,1.43-0.61,1.43-0.61
				s-0.1-0.43-0.3-0.52c-0.2-0.09-5.09,0.24-5.64,0.37c-0.55,0.13-1.73,0.59-2.03,0.84s-0.67,0.39-0.81,0.83S58.92,45.34,59.3,45.6z
				"/>
			<path class="st0" d="M58.17,42.34c0,0,0.4,0.6,1.29,0.01c0.89-0.59,4.92-2.33,5.33-2.61c0.41-0.28,1.33-0.56,1.33-0.56
				s-0.1-0.4-0.28-0.49s-4.73,0.23-5.24,0.34s-1.61,0.55-1.89,0.78c-0.27,0.23-0.62,0.36-0.75,0.77C57.84,41,57.82,42.1,58.17,42.34
				z"/>
			<path class="st2" d="M57.81,38.76c0,0,0.38,0.58,1.24,0.01c0.86-0.57,4.73-2.24,5.13-2.51c0.4-0.27,1.28-0.54,1.28-0.54
				s-0.09-0.38-0.27-0.47c-0.18-0.08-4.55,0.22-5.04,0.33s-1.55,0.53-1.81,0.75c-0.26,0.22-0.6,0.35-0.73,0.74
				C57.49,37.47,57.47,38.53,57.81,38.76z"/>
			<path class="st0" d="M56.13,35.62c0,0,0.35,0.53,1.15,0.01s4.36-2.06,4.72-2.31s1.18-0.5,1.18-0.5s-0.09-0.35-0.25-0.43
				c-0.16-0.08-4.19,0.2-4.64,0.31s-1.43,0.49-1.67,0.69c-0.24,0.2-0.55,0.32-0.67,0.68C55.83,34.43,55.82,35.4,56.13,35.62z"/>
			<path class="st2" d="M55.34,33.24c0,0,0.34,0.51,1.1,0.01c0.76-0.5,4.17-1.97,4.52-2.21c0.35-0.24,1.13-0.48,1.13-0.48
				s-0.08-0.34-0.24-0.41c-0.16-0.07-4.01,0.19-4.44,0.29s-1.37,0.47-1.6,0.66s-0.53,0.31-0.64,0.66
				C55.06,32.11,55.05,33.04,55.34,33.24z"/>
			<path class="st0" d="M53.36,27.89c0,0,0.32,0.49,1.05,0.01c0.72-0.48,3.98-1.88,4.32-2.11c0.33-0.23,1.08-0.46,1.08-0.46
				s-0.08-0.32-0.23-0.39c-0.15-0.07-3.83,0.18-4.24,0.28c-0.41,0.1-1.3,0.45-1.53,0.63s-0.5,0.29-0.61,0.63S53.07,27.7,53.36,27.89
				z"/>
			<path class="st0" d="M54.42,30.44c0,0,0.29,0.44,0.95,0.01c0.66-0.43,3.61-1.71,3.91-1.91s0.98-0.41,0.98-0.41
				s-0.07-0.29-0.21-0.36s-3.47,0.17-3.84,0.25c-0.37,0.09-1.18,0.41-1.38,0.57c-0.2,0.17-0.45,0.27-0.55,0.57
				S54.17,30.27,54.42,30.44z"/>
			<path class="st0" d="M53.45,25.64c0,0,0.44,0.09,0.58-0.55c0.14-0.65,1.18-3.15,1.24-3.46c0.06-0.3,0.35-0.83,0.35-0.83
				s-0.22-0.14-0.33-0.09c-0.12,0.04-2,2.14-2.18,2.41c-0.17,0.27-0.48,0.94-0.5,1.16c-0.02,0.22-0.12,0.43,0,0.67
				C52.72,25.19,53.19,25.69,53.45,25.64z"/>
		</g>
		<path class="st3" d="M58.17,54.92c1.36-4.9,1.72-12.23-5.76-29.29"/>
	</g>
	<g>
		<path class="st0" d="M58.27,57.48c0,0-0.79,0.4-0.2,1.58s2.11,6.34,2.39,6.89c0.28,0.54,0.49,1.71,0.49,1.71s0.5-0.06,0.63-0.27
			c0.13-0.21,0.42-5.8,0.35-6.44c-0.07-0.64-0.44-2.05-0.67-2.41c-0.24-0.37-0.35-0.81-0.83-1.03
			C59.95,57.26,58.61,57.08,58.27,57.48z"/>
		<path class="st1" d="M61.13,54.72c0,0-0.77,0.38-0.2,1.53s2.05,6.14,2.32,6.67c0.27,0.53,0.47,1.66,0.47,1.66s0.49-0.06,0.61-0.26
			c0.13-0.21,0.41-5.62,0.34-6.24c-0.07-0.62-0.42-1.98-0.65-2.34c-0.23-0.36-0.34-0.78-0.81-1C62.76,54.51,61.46,54.34,61.13,54.72
			z"/>
		<path class="st0" d="M64.13,53.3c0,0-0.74,0.37-0.19,1.48c0.55,1.11,1.98,5.95,2.25,6.46c0.26,0.51,0.46,1.6,0.46,1.6
			s0.47-0.05,0.59-0.25c0.12-0.2,0.4-5.44,0.33-6.04s-0.41-1.92-0.63-2.26c-0.22-0.35-0.33-0.76-0.78-0.97S64.45,52.93,64.13,53.3z"
			/>
		<path class="st1" d="M65.86,52.17c0,0-0.72,0.36-0.18,1.43c0.53,1.07,1.92,5.75,2.17,6.25s0.44,1.55,0.44,1.55
			s0.45-0.05,0.58-0.25c0.12-0.19,0.38-5.26,0.32-5.84c-0.06-0.58-0.4-1.86-0.61-2.19s-0.32-0.73-0.75-0.94
			C67.39,51.97,66.17,51.81,65.86,52.17z"/>
		<path class="st0" d="M68.42,51.68c0,0-0.69,0.35-0.18,1.38c0.51,1.03,1.85,5.55,2.1,6.03s0.43,1.5,0.43,1.5s0.44-0.05,0.56-0.24
			s0.37-5.08,0.31-5.64c-0.06-0.56-0.38-1.79-0.59-2.12s-0.31-0.71-0.73-0.91C69.9,51.49,68.72,51.33,68.42,51.68z"/>
		<path class="st1" d="M73.04,51.21c0,0-0.67,0.34-0.17,1.33c0.5,1,1.78,5.36,2.02,5.82c0.24,0.46,0.41,1.44,0.41,1.44
			s0.42-0.05,0.54-0.23s0.36-4.9,0.3-5.44c-0.06-0.54-0.37-1.73-0.57-2.04c-0.2-0.31-0.3-0.68-0.7-0.87
			C74.46,51.04,73.33,50.88,73.04,51.21z"/>
		<path class="st0" d="M75.9,51.56c0,0-0.64,0.32-0.16,1.28c0.48,0.96,1.72,5.16,1.95,5.6c0.23,0.44,0.4,1.39,0.4,1.39
			s0.41-0.05,0.52-0.22c0.11-0.17,0.34-4.72,0.29-5.24c-0.06-0.52-0.35-1.67-0.55-1.97c-0.19-0.3-0.29-0.66-0.68-0.84
			C77.27,51.39,76.18,51.24,75.9,51.56z"/>
		<path class="st0" d="M78.48,51.68c0,0-0.62,0.31-0.16,1.23c0.46,0.92,1.65,4.96,1.87,5.39c0.22,0.43,0.38,1.34,0.38,1.34
			s0.39-0.05,0.5-0.21c0.1-0.17,0.33-4.54,0.28-5.04c-0.06-0.5-0.34-1.6-0.53-1.89c-0.19-0.29-0.27-0.63-0.65-0.81
			S78.75,51.37,78.48,51.68z"/>
		<path class="st1" d="M81.47,52.29c0,0-0.57,0.29-0.15,1.14s1.52,4.57,1.73,4.96s0.35,1.23,0.35,1.23s0.36-0.04,0.46-0.2
			s0.3-4.18,0.25-4.64s-0.31-1.47-0.48-1.74c-0.17-0.27-0.25-0.58-0.6-0.75C82.68,52.14,81.71,52.01,81.47,52.29z"/>
		<path class="st0" d="M70.98,51.92c0,0-0.54,0.27-0.14,1.09c0.41,0.81,1.46,4.37,1.65,4.75c0.19,0.38,0.34,1.18,0.34,1.18
			s0.35-0.04,0.44-0.19c0.09-0.15,0.29-4,0.24-4.44c-0.05-0.44-0.3-1.41-0.46-1.67s-0.24-0.56-0.57-0.71
			C72.14,51.77,71.22,51.65,70.98,51.92z"/>
		<path class="st0" d="M83.98,51.71c0,0-0.5,0.25-0.13,0.99c0.37,0.74,1.33,3.98,1.5,4.32c0.18,0.34,0.31,1.07,0.31,1.07
			s0.31-0.04,0.4-0.17c0.08-0.13,0.27-3.64,0.22-4.04c-0.04-0.4-0.27-1.28-0.42-1.52s-0.22-0.51-0.52-0.65
			C85.04,51.58,84.2,51.47,83.98,51.71z"/>
		<path class="st0" d="M87.85,52.78c0,0-0.24,0.37,0.31,0.74c0.55,0.37,2.52,2.23,2.78,2.4c0.26,0.17,0.64,0.62,0.64,0.62
			s0.2-0.15,0.21-0.28s-1.28-2.64-1.47-2.9s-0.71-0.78-0.9-0.88c-0.2-0.1-0.36-0.26-0.62-0.24C88.53,52.27,87.9,52.53,87.85,52.78z"
			/>
		<path class="st2" d="M56.37,59.08c0,0-0.88,0.06-0.97-1.26s-1.37-6.54-1.4-7.15c-0.03-0.61-0.44-1.72-0.44-1.72
			s0.46-0.2,0.68-0.09c0.22,0.12,3.29,4.8,3.55,5.38c0.26,0.58,0.66,1.99,0.64,2.42c-0.02,0.44,0.11,0.88-0.2,1.31
			S56.87,59.25,56.37,59.08z"/>
		<path class="st0" d="M58.92,56.87c0,0-0.82-0.14-0.61-1.36c0.21-1.22,0.18-6.27,0.29-6.83c0.11-0.57-0.02-1.67-0.02-1.67
			s0.47-0.08,0.64,0.07c0.18,0.16,1.95,5.1,2.06,5.69s0.16,1.96,0.05,2.35c-0.11,0.4-0.1,0.82-0.47,1.15S59.33,57.13,58.92,56.87z"
			/>
		<path class="st2" d="M62.43,53.2c0,0-0.76-0.13-0.57-1.27c0.19-1.14,0.17-5.85,0.27-6.38S62.12,44,62.12,44s0.44-0.08,0.6,0.07
			c0.17,0.15,1.82,4.76,1.92,5.31c0.1,0.55,0.15,1.83,0.05,2.2c-0.11,0.37-0.09,0.77-0.44,1.08C63.9,52.96,62.82,53.45,62.43,53.2z"
			/>
		<path class="st0" d="M66.05,52.01c0,0-0.71-0.12-0.53-1.18s0.16-5.44,0.25-5.93c0.09-0.49-0.02-1.45-0.02-1.45s0.4-0.07,0.56,0.06
			c0.15,0.14,1.69,4.42,1.78,4.94c0.09,0.51,0.14,1.7,0.04,2.04c-0.1,0.34-0.08,0.71-0.41,1C67.41,51.78,66.41,52.23,66.05,52.01z"
			/>
		<path class="st2" d="M69.51,51.44c0,0-0.68-0.12-0.51-1.14c0.17-1.02,0.15-5.23,0.24-5.7c0.09-0.47-0.02-1.39-0.02-1.39
			s0.39-0.07,0.54,0.06c0.15,0.13,1.63,4.25,1.72,4.75c0.09,0.49,0.13,1.63,0.04,1.96s-0.08,0.69-0.39,0.96
			C70.82,51.22,69.86,51.66,69.51,51.44z"/>
		<path class="st0" d="M72.93,51.58c0,0-0.63-0.11-0.47-1.05c0.16-0.94,0.14-4.82,0.22-5.25S72.67,44,72.67,44s0.36-0.06,0.49,0.06
			c0.14,0.12,1.5,3.92,1.58,4.37s0.12,1.5,0.04,1.81c-0.09,0.3-0.07,0.63-0.36,0.89C74.14,51.38,73.25,51.78,72.93,51.58z"/>
		<path class="st2" d="M76.1,51.53c0,0-0.6-0.11-0.45-1s0.13-4.61,0.21-5.03c0.08-0.42-0.02-1.23-0.02-1.23s0.34-0.06,0.47,0.05
			c0.13,0.11,1.43,3.75,1.51,4.18c0.08,0.43,0.12,1.44,0.04,1.73c-0.08,0.29-0.07,0.6-0.34,0.85S76.4,51.72,76.1,51.53z"/>
		<path class="st0" d="M79.28,51.45c0,0-0.57-0.1-0.43-0.96c0.15-0.85,0.13-4.4,0.2-4.8s-0.02-1.17-0.02-1.17s0.33-0.06,0.45,0.05
			c0.12,0.11,1.37,3.58,1.44,4c0.08,0.41,0.11,1.37,0.03,1.65c-0.08,0.28-0.07,0.58-0.33,0.81C80.38,51.27,79.57,51.64,79.28,51.45z
			"/>
		<path class="st2" d="M81.59,52.27c0,0-0.55-0.1-0.41-0.91c0.14-0.81,0.12-4.2,0.19-4.57c0.07-0.38-0.01-1.12-0.01-1.12
			s0.31-0.06,0.43,0.05c0.12,0.1,1.3,3.41,1.38,3.81c0.07,0.39,0.11,1.31,0.03,1.57s-0.06,0.55-0.31,0.77S81.86,52.45,81.59,52.27z"
			/>
		<path class="st0" d="M84.03,51.56c0,0-0.52-0.09-0.39-0.87s0.12-3.99,0.18-4.35c0.07-0.36-0.01-1.06-0.01-1.06s0.3-0.05,0.41,0.05
			c0.11,0.1,1.24,3.24,1.31,3.62s0.1,1.24,0.03,1.5c-0.07,0.25-0.06,0.52-0.3,0.73C85.03,51.39,84.3,51.73,84.03,51.56z"/>
		<path class="st0" d="M85.68,51.61c0,0-0.47-0.08-0.35-0.78c0.12-0.69,0.1-3.57,0.16-3.9c0.06-0.32-0.01-0.95-0.01-0.95
			s0.27-0.05,0.37,0.04s1.11,2.91,1.17,3.24c0.06,0.34,0.09,1.12,0.03,1.34s-0.05,0.47-0.27,0.66
			C86.57,51.46,85.91,51.76,85.68,51.61z"/>
		<path class="st0" d="M87.21,51c0,0-0.26-0.36,0.28-0.75c0.54-0.39,2.42-2.35,2.67-2.52s0.62-0.65,0.62-0.65s0.21,0.14,0.22,0.27
			c0.01,0.13-1.16,2.69-1.34,2.96c-0.18,0.27-0.67,0.81-0.86,0.92c-0.19,0.11-0.34,0.28-0.61,0.27C87.91,51.49,87.27,51.26,87.21,51
			z"/>
		<path class="st3" d="M56.69,60.73c4.66-4.48,4.07-9.82,16.57-9.28s15.64,0.61,15.64,0.61"/>
	</g>
	<g>
		<g>
			<path class="st0" d="M54.65,56.5c0,0,0.35,0.81-0.86,1.33c-1.21,0.52-5.71,3.47-6.28,3.7c-0.57,0.23-1.48,0.99-1.48,0.99
				s-0.34-0.37-0.31-0.62c0.04-0.25,3.43-4.7,3.9-5.14c0.47-0.44,1.66-1.28,2.07-1.41c0.42-0.13,0.79-0.39,1.3-0.25
				C53.5,55.24,54.64,55.97,54.65,56.5z"/>
			<path class="st1" d="M52.99,53.2c0,0,0.33,0.79-0.84,1.29c-1.17,0.5-5.54,3.36-6.09,3.59c-0.55,0.23-1.43,0.96-1.43,0.96
				s-0.33-0.36-0.3-0.6c0.04-0.24,3.33-4.55,3.78-4.98s1.6-1.24,2.01-1.36s0.77-0.38,1.26-0.24C51.88,51.98,52.98,52.69,52.99,53.2z
				"/>
			<path class="st0" d="M51.76,50.59c0,0,0.32,0.76-0.81,1.25s-5.36,3.25-5.89,3.47c-0.53,0.22-1.39,0.93-1.39,0.93
				s-0.32-0.35-0.29-0.58s3.22-4.41,3.66-4.82c0.44-0.41,1.55-1.2,1.95-1.32s0.74-0.37,1.22-0.23
				C50.69,49.42,51.76,50.1,51.76,50.59z"/>
			<path class="st1" d="M49.25,48.19c0,0,0.31,0.74-0.78,1.21c-1.1,0.47-5.18,3.15-5.7,3.36c-0.51,0.21-1.34,0.89-1.34,0.89
				s-0.31-0.33-0.28-0.56s3.11-4.26,3.53-4.66s1.5-1.16,1.88-1.28s0.72-0.35,1.18-0.23S49.24,47.72,49.25,48.19z"/>
			<path class="st0" d="M48.22,45.94c0,0,0.3,0.71-0.76,1.17c-1.06,0.45-5,3.04-5.5,3.24c-0.5,0.2-1.3,0.86-1.3,0.86
				s-0.3-0.32-0.27-0.54s3.01-4.11,3.41-4.5c0.41-0.38,1.45-1.12,1.82-1.23c0.37-0.11,0.69-0.34,1.14-0.22
				C47.22,44.84,48.22,45.48,48.22,45.94z"/>
			<path class="st1" d="M45.37,42.75c0,0,0.29,0.69-0.73,1.13c-1.02,0.44-4.83,2.93-5.31,3.13c-0.48,0.2-1.25,0.83-1.25,0.83
				s-0.29-0.31-0.26-0.52c0.03-0.21,2.9-3.97,3.29-4.34s1.4-1.08,1.75-1.19s0.67-0.33,1.1-0.21C44.4,41.69,45.37,42.31,45.37,42.75z
				"/>
			<path class="st0" d="M43.18,40.22c0,0,0.28,0.66-0.7,1.08c-0.98,0.42-4.65,2.82-5.11,3.01s-1.2,0.8-1.2,0.8s-0.28-0.3-0.25-0.5
				c0.03-0.2,2.79-3.82,3.17-4.18c0.38-0.36,1.35-1.04,1.69-1.14c0.34-0.1,0.64-0.32,1.06-0.2S43.18,39.8,43.18,40.22z"/>
			<path class="st0" d="M41.81,37.83c0,0,0.27,0.64-0.68,1.04c-0.95,0.41-4.47,2.72-4.92,2.9c-0.44,0.18-1.16,0.77-1.16,0.77
				s-0.27-0.29-0.24-0.48c0.03-0.19,2.69-3.68,3.05-4.02c0.36-0.34,1.3-1,1.62-1.1c0.33-0.1,0.62-0.31,1.02-0.2
				S41.81,37.42,41.81,37.83z"/>
			<path class="st1" d="M39.78,35.95c0,0,0.25,0.59-0.62,0.96c-0.87,0.37-4.12,2.5-4.53,2.67c-0.41,0.17-1.07,0.71-1.07,0.71
				s-0.25-0.27-0.22-0.45c0.03-0.18,2.47-3.39,2.81-3.7s1.19-0.92,1.5-1.01c0.3-0.09,0.57-0.28,0.94-0.18
				C38.95,35.05,39.77,35.57,39.78,35.95z"/>
			<path class="st0" d="M46.59,44.31c0,0,0.24,0.56-0.6,0.92c-0.83,0.36-3.94,2.39-4.33,2.55c-0.39,0.16-1.02,0.68-1.02,0.68
				s-0.24-0.25-0.21-0.43c0.03-0.17,2.37-3.24,2.69-3.54c0.32-0.3,1.14-0.88,1.43-0.97s0.55-0.27,0.9-0.17S46.59,43.95,46.59,44.31z
				"/>
			<path class="st0" d="M37.61,33.66c0,0,0.22,0.51-0.54,0.84c-0.76,0.33-3.59,2.18-3.94,2.32c-0.36,0.15-0.93,0.62-0.93,0.62
				s-0.22-0.23-0.19-0.39c0.02-0.16,2.15-2.95,2.45-3.23c0.29-0.28,1.04-0.8,1.3-0.88c0.26-0.08,0.5-0.25,0.82-0.16
				C36.89,32.87,37.61,33.33,37.61,33.66z"/>
			<path class="st1" d="M34.86,31.53c0,0,0.18,0.44-0.46,0.71c-0.65,0.28-3.06,1.86-3.36,1.98c-0.3,0.12-0.79,0.53-0.79,0.53
				s-0.18-0.2-0.16-0.33c0.02-0.13,1.84-2.51,2.08-2.75c0.25-0.23,0.89-0.68,1.11-0.75s0.42-0.21,0.7-0.13S34.86,31.25,34.86,31.53z
				"/>
			<path class="st0" d="M32.72,30.5c0,0-0.05,0.44-0.71,0.36c-0.66-0.08-3.37,0.07-3.67,0.03c-0.31-0.04-0.89,0.06-0.89,0.06
				s-0.06-0.25,0.02-0.35c0.08-0.1,2.68-1.18,3-1.26s1.04-0.14,1.26-0.09c0.22,0.05,0.44,0.03,0.63,0.22
				C32.53,29.66,32.85,30.27,32.72,30.5z"/>
			<path class="st2" d="M55.3,55.85c0,0,0.76,0.45,1.43-0.69c0.67-1.13,4.17-5.22,4.48-5.75c0.3-0.53,1.17-1.34,1.17-1.34
				s-0.32-0.39-0.57-0.38c-0.25,0-5.1,2.8-5.59,3.2s-1.48,1.48-1.66,1.88s-0.49,0.73-0.42,1.26C54.2,54.55,54.78,55.77,55.3,55.85z"
				/>
			<path class="st0" d="M53.19,52.25c0,0,0.72,0.42,1.34-0.64c0.63-1.06,3.92-4.9,4.2-5.4s1.1-1.26,1.1-1.26s-0.3-0.37-0.54-0.36
				c-0.24,0-4.78,2.63-5.25,3.01c-0.46,0.38-1.39,1.39-1.56,1.76c-0.17,0.37-0.46,0.69-0.39,1.18
				C52.17,51.03,52.71,52.18,53.19,52.25z"/>
			<path class="st2" d="M51.44,48.66c0,0,0.67,0.39,1.25-0.6s3.66-4.57,3.92-5.04c0.27-0.47,1.02-1.17,1.02-1.17
				s-0.28-0.34-0.5-0.34s-4.47,2.45-4.9,2.81c-0.43,0.35-1.3,1.29-1.46,1.64c-0.16,0.35-0.43,0.64-0.36,1.1S50.98,48.6,51.44,48.66z
				"/>
			<path class="st0" d="M49.51,45.83c0,0,0.62,0.36,1.17-0.56c0.55-0.92,3.4-4.25,3.64-4.68c0.25-0.43,0.95-1.09,0.95-1.09
				s-0.26-0.32-0.47-0.31s-4.15,2.28-4.55,2.61c-0.4,0.33-1.2,1.2-1.35,1.53c-0.15,0.32-0.4,0.6-0.34,1.03
				C48.62,44.77,49.09,45.77,49.51,45.83z"/>
			<path class="st2" d="M46.98,43.48c0,0,0.6,0.35,1.12-0.54s3.27-4.09,3.51-4.5c0.24-0.42,0.91-1.05,0.91-1.05s-0.25-0.3-0.45-0.3
				s-3.99,2.19-4.38,2.51c-0.39,0.32-1.16,1.16-1.3,1.47c-0.14,0.31-0.38,0.57-0.33,0.99C46.12,42.46,46.57,43.42,46.98,43.48z"/>
			<path class="st0" d="M44.5,40.72c0,0,0.55,0.32,1.03-0.49s3.01-3.76,3.23-4.15s0.84-0.97,0.84-0.97s-0.23-0.28-0.41-0.28
				c-0.18,0-3.68,2.02-4.03,2.31c-0.36,0.29-1.07,1.07-1.2,1.35s-0.35,0.53-0.3,0.91C43.71,39.79,44.12,40.67,44.5,40.72z"/>
			<path class="st2" d="M42.66,37.63c0,0,0.53,0.31,0.99-0.47c0.46-0.78,2.88-3.6,3.09-3.97c0.21-0.37,0.81-0.92,0.81-0.92
				s-0.22-0.27-0.4-0.27c-0.17,0-3.52,1.93-3.86,2.21c-0.34,0.28-1.02,1.02-1.15,1.29s-0.34,0.51-0.29,0.87
				C41.91,36.73,42.31,37.57,42.66,37.63z"/>
			<path class="st0" d="M40.95,35.42c0,0,0.5,0.29,0.94-0.45c0.44-0.75,2.75-3.44,2.95-3.79c0.2-0.35,0.77-0.88,0.77-0.88
				s-0.21-0.26-0.38-0.25c-0.17,0-3.36,1.84-3.69,2.11c-0.33,0.27-0.98,0.97-1.09,1.24c-0.12,0.26-0.32,0.48-0.27,0.83
				C40.23,34.57,40.61,35.37,40.95,35.42z"/>
			<path class="st2" d="M38.32,34.53c0,0,0.48,0.28,0.9-0.43c0.42-0.71,2.62-3.28,2.81-3.61c0.19-0.33,0.73-0.84,0.73-0.84
				s-0.2-0.24-0.36-0.24s-3.2,1.76-3.51,2.01c-0.31,0.25-0.93,0.93-1.04,1.18c-0.11,0.25-0.31,0.46-0.26,0.79
				C37.63,33.71,38,34.48,38.32,34.53z"/>
			<path class="st0" d="M37.28,32.45c0,0,0.46,0.27,0.85-0.41s2.49-3.12,2.67-3.43c0.18-0.32,0.7-0.8,0.7-0.8s-0.19-0.23-0.34-0.23
				c-0.15,0-3.04,1.67-3.34,1.91s-0.88,0.88-0.99,1.12c-0.11,0.24-0.29,0.44-0.25,0.75C36.62,31.68,36.97,32.41,37.28,32.45z"/>
			<path class="st0" d="M36,30.83c0,0,0.41,0.24,0.77-0.37s2.23-2.79,2.4-3.08s0.63-0.72,0.63-0.72s-0.17-0.21-0.31-0.21
				s-2.73,1.5-2.99,1.71c-0.26,0.22-0.79,0.79-0.89,1c-0.1,0.21-0.26,0.39-0.22,0.67S35.73,30.79,36,30.83z"/>
			<path class="st0" d="M34.62,29.74c0,0,0.43-0.11,0.28-0.75s-0.32-3.35-0.4-3.65c-0.08-0.3-0.05-0.89-0.05-0.89
				s-0.25-0.03-0.34,0.06c-0.09,0.09-0.86,2.8-0.9,3.12c-0.04,0.32-0.02,1.05,0.06,1.26c0.07,0.21,0.08,0.44,0.29,0.6
				C33.77,29.65,34.41,29.89,34.62,29.74z"/>
		</g>
		<path class="st3" d="M54.86,56.33c0,0-7.61-15.8-21.66-26.63"/>
	</g>
	<g>
		<g>
			<path class="st0" d="M46.53,58.14c0,0,0.22,0.53-0.56,0.86c-0.78,0.34-3.71,2.25-4.07,2.4s-0.96,0.64-0.96,0.64
				s-0.22-0.24-0.2-0.4c0.02-0.16,2.23-3.05,2.53-3.33c0.3-0.28,1.07-0.83,1.35-0.91s0.51-0.25,0.85-0.16
				C45.78,57.33,46.52,57.8,46.53,58.14z"/>
			<path class="st1" d="M45.45,56c0,0,0.22,0.51-0.54,0.84s-3.59,2.18-3.95,2.33c-0.36,0.15-0.93,0.62-0.93,0.62
				s-0.22-0.23-0.19-0.39s2.16-2.95,2.45-3.23s1.04-0.8,1.3-0.88s0.5-0.25,0.82-0.16S45.45,55.67,45.45,56z"/>
			<path class="st0" d="M44.66,54.31c0,0,0.21,0.5-0.53,0.81c-0.74,0.32-3.48,2.11-3.82,2.25c-0.35,0.14-0.9,0.6-0.9,0.6
				s-0.21-0.22-0.19-0.38c0.02-0.15,2.09-2.86,2.37-3.13c0.28-0.27,1.01-0.78,1.26-0.86c0.25-0.08,0.48-0.24,0.79-0.15
				C43.96,53.55,44.65,53.99,44.66,54.31z"/>
			<path class="st1" d="M43.02,52.75c0,0,0.2,0.48-0.51,0.78s-3.36,2.04-3.7,2.18s-0.87,0.58-0.87,0.58s-0.2-0.22-0.18-0.36
				c0.02-0.15,2.02-2.76,2.29-3.02c0.27-0.26,0.97-0.75,1.22-0.83c0.25-0.08,0.47-0.23,0.77-0.15
				C42.35,52.02,43.02,52.45,43.02,52.75z"/>
			<path class="st0" d="M42.36,51.29c0,0,0.2,0.46-0.49,0.76c-0.69,0.29-3.25,1.97-3.57,2.1c-0.32,0.13-0.84,0.56-0.84,0.56
				s-0.2-0.21-0.17-0.35c0.02-0.14,1.95-2.67,2.21-2.92c0.26-0.25,0.94-0.73,1.18-0.8c0.24-0.07,0.45-0.22,0.74-0.14
				C41.71,50.58,42.36,51,42.36,51.29z"/>
			<path class="st1" d="M40.51,49.22c0,0,0.19,0.45-0.47,0.73s-3.13,1.9-3.44,2.03c-0.31,0.13-0.81,0.54-0.81,0.54
				s-0.19-0.2-0.17-0.34s1.88-2.57,2.14-2.82c0.25-0.24,0.91-0.7,1.14-0.77c0.23-0.07,0.43-0.21,0.71-0.14
				C39.88,48.54,40.51,48.94,40.51,49.22z"/>
			<path class="st0" d="M39.09,47.59c0,0,0.18,0.43-0.46,0.7c-0.64,0.27-3.02,1.83-3.32,1.95c-0.3,0.12-0.78,0.52-0.78,0.52
				s-0.18-0.19-0.16-0.33c0.02-0.13,1.81-2.48,2.06-2.71c0.25-0.23,0.87-0.67,1.1-0.74c0.22-0.07,0.42-0.21,0.69-0.13
				C38.49,46.93,39.09,47.31,39.09,47.59z"/>
			<path class="st0" d="M38.2,46.03c0,0,0.18,0.41-0.44,0.68c-0.61,0.26-2.9,1.76-3.19,1.88c-0.29,0.12-0.75,0.5-0.75,0.5
				s-0.18-0.19-0.16-0.31c0.02-0.13,1.74-2.39,1.98-2.61c0.24-0.22,0.84-0.65,1.05-0.71s0.4-0.2,0.66-0.13
				C37.62,45.4,38.2,45.77,38.2,46.03z"/>
			<path class="st1" d="M36.88,44.81c0,0,0.16,0.38-0.4,0.62c-0.57,0.24-2.67,1.62-2.94,1.73c-0.27,0.11-0.69,0.46-0.69,0.46
				s-0.16-0.17-0.14-0.29c0.02-0.12,1.6-2.2,1.82-2.4c0.22-0.21,0.77-0.6,0.97-0.66s0.37-0.18,0.61-0.12
				C36.35,44.23,36.88,44.57,36.88,44.81z"/>
			<path class="st0" d="M41.3,50.24c0,0,0.15,0.36-0.39,0.6c-0.54,0.23-2.56,1.55-2.81,1.66c-0.25,0.1-0.66,0.44-0.66,0.44
				s-0.15-0.17-0.14-0.28s1.54-2.1,1.74-2.3c0.21-0.2,0.74-0.57,0.93-0.63c0.19-0.06,0.35-0.17,0.58-0.11
				C40.79,49.68,41.3,50,41.3,50.24z"/>
			<path class="st0" d="M35.47,43.33c0,0,0.14,0.33-0.35,0.54c-0.49,0.21-2.33,1.41-2.56,1.51s-0.6,0.4-0.6,0.4
				s-0.14-0.15-0.13-0.25c0.02-0.1,1.4-1.91,1.59-2.09c0.19-0.18,0.67-0.52,0.85-0.57c0.17-0.05,0.32-0.16,0.53-0.1
				C35.01,42.82,35.47,43.12,35.47,43.33z"/>
			<path class="st1" d="M33.69,41.95c0,0,0.12,0.28-0.3,0.46s-1.98,1.2-2.18,1.28c-0.2,0.08-0.51,0.34-0.51,0.34
				s-0.12-0.13-0.11-0.21c0.01-0.09,1.19-1.63,1.35-1.78c0.16-0.15,0.57-0.44,0.72-0.49c0.15-0.04,0.27-0.14,0.45-0.09
				C33.3,41.51,33.69,41.77,33.69,41.95z"/>
			<path class="st0" d="M32.3,41.28c0,0-0.04,0.29-0.46,0.24s-2.18,0.05-2.38,0.02c-0.2-0.03-0.58,0.04-0.58,0.04
				s-0.04-0.16,0.01-0.23c0.05-0.06,1.74-0.77,1.94-0.82c0.2-0.05,0.68-0.09,0.82-0.06s0.29,0.02,0.41,0.14
				C32.18,40.74,32.39,41.13,32.3,41.28z"/>
			<path class="st2" d="M46.95,57.72c0,0,0.49,0.29,0.93-0.45c0.43-0.74,2.71-3.39,2.9-3.73c0.2-0.35,0.76-0.87,0.76-0.87
				s-0.21-0.25-0.37-0.25s-3.31,1.82-3.63,2.08c-0.32,0.26-0.96,0.96-1.08,1.22c-0.12,0.26-0.32,0.48-0.27,0.82
				S46.61,57.67,46.95,57.72z"/>
			<path class="st0" d="M45.58,55.39c0,0,0.46,0.27,0.87-0.42c0.41-0.69,2.54-3.18,2.72-3.5s0.71-0.82,0.71-0.82
				s-0.2-0.24-0.35-0.23c-0.15,0-3.1,1.7-3.4,1.95c-0.3,0.25-0.9,0.9-1.01,1.14c-0.11,0.24-0.3,0.45-0.25,0.77
				S45.27,55.34,45.58,55.39z"/>
			<path class="st2" d="M44.44,53.06c0,0,0.43,0.25,0.81-0.39c0.38-0.64,2.37-2.97,2.54-3.27c0.17-0.3,0.66-0.76,0.66-0.76
				s-0.18-0.22-0.33-0.22c-0.14,0-2.9,1.59-3.18,1.82s-0.84,0.84-0.94,1.07c-0.1,0.23-0.28,0.42-0.24,0.72
				C43.82,52.32,44.15,53.02,44.44,53.06z"/>
			<path class="st0" d="M43.19,51.22c0,0,0.4,0.24,0.76-0.36c0.35-0.6,2.2-2.76,2.36-3.04c0.16-0.28,0.62-0.71,0.62-0.71
				s-0.17-0.21-0.3-0.2c-0.13,0-2.69,1.48-2.95,1.69c-0.26,0.21-0.78,0.78-0.88,0.99c-0.1,0.21-0.26,0.39-0.22,0.67
				C42.61,50.54,42.92,51.18,43.19,51.22z"/>
			<path class="st2" d="M41.55,49.7c0,0,0.39,0.23,0.73-0.35c0.34-0.58,2.12-2.65,2.27-2.92s0.59-0.68,0.59-0.68s-0.16-0.2-0.29-0.2
				c-0.13,0-2.59,1.42-2.84,1.63c-0.25,0.21-0.75,0.75-0.84,0.95c-0.09,0.2-0.25,0.37-0.21,0.64S41.29,49.66,41.55,49.7z"/>
			<path class="st0" d="M39.94,47.91c0,0,0.36,0.21,0.67-0.32c0.31-0.53,1.95-2.44,2.09-2.69c0.14-0.25,0.55-0.63,0.55-0.63
				s-0.15-0.18-0.27-0.18s-2.39,1.31-2.62,1.5c-0.23,0.19-0.69,0.69-0.78,0.88c-0.08,0.19-0.23,0.34-0.19,0.59
				C39.43,47.31,39.7,47.88,39.94,47.91z"/>
			<path class="st2" d="M38.75,45.9c0,0,0.34,0.2,0.64-0.31c0.3-0.51,1.87-2.34,2-2.57c0.14-0.24,0.52-0.6,0.52-0.6
				s-0.14-0.17-0.26-0.17c-0.11,0-2.28,1.25-2.5,1.43s-0.66,0.66-0.74,0.84s-0.22,0.33-0.19,0.56S38.52,45.87,38.75,45.9z"/>
			<path class="st0" d="M37.64,44.47c0,0,0.33,0.19,0.61-0.29c0.29-0.48,1.78-2.23,1.91-2.46c0.13-0.23,0.5-0.57,0.5-0.57
				s-0.14-0.17-0.24-0.16c-0.11,0-2.18,1.2-2.39,1.37c-0.21,0.17-0.63,0.63-0.71,0.8c-0.08,0.17-0.21,0.31-0.18,0.54
				C37.17,43.92,37.42,44.44,37.64,44.47z"/>
			<path class="st2" d="M35.94,43.89c0,0,0.31,0.18,0.58-0.28c0.27-0.46,1.7-2.13,1.82-2.34s0.48-0.55,0.48-0.55
				s-0.13-0.16-0.23-0.16c-0.1,0-2.08,1.14-2.28,1.31s-0.6,0.6-0.68,0.76s-0.2,0.3-0.17,0.51C35.49,43.36,35.73,43.86,35.94,43.89z"
				/>
			<path class="st0" d="M35.26,42.55c0,0,0.3,0.17,0.55-0.27c0.26-0.44,1.62-2.02,1.73-2.23c0.12-0.21,0.45-0.52,0.45-0.52
				s-0.12-0.15-0.22-0.15c-0.1,0-1.97,1.08-2.17,1.24c-0.19,0.16-0.57,0.57-0.64,0.73c-0.07,0.15-0.19,0.28-0.16,0.49
				C34.84,42.04,35.06,42.52,35.26,42.55z"/>
			<path class="st0" d="M34.43,41.49c0,0,0.26,0.16,0.5-0.24c0.23-0.39,1.45-1.81,1.55-2c0.11-0.18,0.41-0.47,0.41-0.47
				s-0.11-0.14-0.2-0.13s-1.77,0.97-1.94,1.11s-0.51,0.51-0.58,0.65c-0.06,0.14-0.17,0.25-0.14,0.44
				C34.05,41.04,34.25,41.47,34.43,41.49z"/>
			<path class="st0" d="M33.54,40.78c0,0,0.28-0.07,0.18-0.49s-0.21-2.17-0.26-2.37c-0.05-0.19-0.03-0.58-0.03-0.58
				s-0.16-0.02-0.22,0.04c-0.06,0.06-0.56,1.82-0.58,2.03c-0.02,0.21-0.01,0.68,0.04,0.82c0.05,0.13,0.05,0.28,0.19,0.39
				C32.98,40.73,33.4,40.88,33.54,40.78z"/>
		</g>
		<path class="st4" d="M46.67,58.04c0,0-4.94-10.25-14.05-17.28"/>
	</g>
	<g>
		<g>
			<path class="st0" d="M57.69,58.04c0,0,0.01-0.57,0.87-0.56c0.85,0.01,4.3-0.53,4.7-0.52c0.4,0.01,1.14-0.19,1.14-0.19
				s0.11,0.31,0.02,0.45s-3.28,1.87-3.67,2c-0.39,0.14-1.32,0.32-1.6,0.28c-0.28-0.04-0.57,0.02-0.84-0.2
				C58.04,59.08,57.56,58.35,57.69,58.04z"/>
			<path class="st1" d="M57.79,60.43c0,0,0.01-0.56,0.84-0.54s4.17-0.52,4.55-0.51c0.39,0.01,1.1-0.18,1.1-0.18s0.1,0.3,0.02,0.43
				c-0.09,0.13-3.18,1.81-3.56,1.94c-0.38,0.13-1.28,0.31-1.55,0.27c-0.27-0.03-0.55,0.02-0.81-0.19S57.66,60.73,57.79,60.43z"/>
			<path class="st0" d="M57.83,62.3c0,0,0.01-0.54,0.81-0.52s4.04-0.5,4.41-0.49c0.37,0.01,1.07-0.18,1.07-0.18s0.1,0.29,0.02,0.42
				c-0.08,0.13-3.08,1.75-3.44,1.88c-0.37,0.13-1.24,0.3-1.5,0.26c-0.26-0.03-0.54,0.02-0.79-0.19
				C58.15,63.28,57.7,62.59,57.83,62.3z"/>
			<path class="st1" d="M58.68,64.39c0,0,0.01-0.52,0.79-0.51c0.77,0.01,3.9-0.48,4.26-0.47c0.36,0.01,1.03-0.17,1.03-0.17
				s0.1,0.28,0.02,0.41c-0.08,0.12-2.97,1.69-3.33,1.82c-0.36,0.12-1.2,0.29-1.45,0.25c-0.26-0.03-0.52,0.02-0.76-0.18
				C58.99,65.33,58.56,64.67,58.68,64.39z"/>
			<path class="st0" d="M58.69,65.99c0,0,0.01-0.5,0.76-0.49s3.77-0.47,4.12-0.46c0.35,0.01,1-0.17,1-0.17s0.09,0.27,0.02,0.39
				c-0.08,0.12-2.87,1.64-3.22,1.76c-0.34,0.12-1.16,0.28-1.4,0.25c-0.25-0.03-0.5,0.02-0.73-0.17
				C58.99,66.9,58.57,66.26,58.69,65.99z"/>
			<path class="st1" d="M59.53,68.64c0,0,0.01-0.48,0.73-0.47c0.72,0.01,3.64-0.45,3.97-0.44c0.34,0.01,0.96-0.16,0.96-0.16
				s0.09,0.26,0.02,0.38c-0.07,0.12-2.77,1.58-3.1,1.69c-0.33,0.12-1.11,0.27-1.35,0.24s-0.48,0.02-0.71-0.17
				C59.82,69.52,59.41,68.9,59.53,68.64z"/>
			<path class="st0" d="M60.15,70.71c0,0,0.01-0.47,0.7-0.45c0.69,0.01,3.5-0.43,3.83-0.42c0.32,0.01,0.93-0.16,0.93-0.16
				s0.09,0.25,0.01,0.36c-0.07,0.11-2.67,1.52-2.99,1.63s-1.07,0.26-1.3,0.23c-0.23-0.03-0.47,0.02-0.68-0.16
				S60.04,70.96,60.15,70.71z"/>
			<path class="st0" d="M60.32,72.49c0,0,0.01-0.45,0.68-0.44c0.67,0.01,3.37-0.42,3.68-0.41c0.31,0.01,0.89-0.15,0.89-0.15
				s0.08,0.24,0.01,0.35c-0.07,0.11-2.57,1.46-2.87,1.57c-0.31,0.11-1.03,0.25-1.25,0.22c-0.22-0.03-0.45,0.02-0.66-0.16
				C60.6,73.31,60.22,72.74,60.32,72.49z"/>
			<path class="st1" d="M61.03,74.15c0,0,0.01-0.41,0.62-0.4c0.62,0.01,3.1-0.39,3.39-0.38c0.29,0.01,0.82-0.14,0.82-0.14
				s0.08,0.22,0.01,0.32c-0.06,0.1-2.36,1.35-2.65,1.45s-0.95,0.23-1.15,0.2c-0.2-0.03-0.41,0.02-0.6-0.14
				C61.28,74.9,60.93,74.37,61.03,74.15z"/>
			<path class="st0" d="M59.22,67.39c0,0,0.01-0.4,0.6-0.39c0.59,0.01,2.97-0.37,3.24-0.36s0.78-0.13,0.78-0.13s0.07,0.21,0.01,0.31
				c-0.06,0.09-2.26,1.29-2.53,1.38c-0.27,0.09-0.91,0.22-1.1,0.19s-0.39,0.01-0.58-0.14C59.46,68.11,59.13,67.6,59.22,67.39z"/>
			<path class="st0" d="M61.71,76.08c0,0,0.01-0.36,0.54-0.35c0.54,0.01,2.7-0.34,2.95-0.33s0.71-0.12,0.71-0.12
				s0.07,0.19,0.01,0.28c-0.06,0.09-2.06,1.17-2.3,1.26c-0.25,0.09-0.83,0.2-1.01,0.18s-0.36,0.01-0.53-0.12
				C61.92,76.73,61.62,76.27,61.71,76.08z"/>
			<path class="st1" d="M62.77,78.07c0,0,0.01-0.31,0.46-0.3c0.46,0.01,2.3-0.29,2.51-0.28c0.21,0.01,0.61-0.1,0.61-0.1
				s0.06,0.17,0.01,0.24c-0.05,0.07-1.75,1-1.96,1.07s-0.71,0.17-0.86,0.15c-0.15-0.02-0.31,0.01-0.45-0.11S62.69,78.23,62.77,78.07
				z"/>
			<path class="st0" d="M63.76,79.25c0,0,0.15-0.25,0.52-0.03c0.37,0.22,2.01,0.85,2.18,0.96s0.54,0.2,0.54,0.2s-0.03,0.16-0.1,0.2
				s-1.9-0.01-2.11-0.05s-0.66-0.19-0.77-0.28c-0.11-0.09-0.25-0.14-0.32-0.3C63.65,79.79,63.62,79.35,63.76,79.25z"/>
			<path class="st2" d="M57.13,58.25c0,0-0.33-0.47-1.03,0.03c-0.7,0.49-3.86,1.98-4.18,2.21c-0.32,0.23-1.05,0.48-1.05,0.48
				s0.09,0.32,0.24,0.38c0.15,0.06,3.76-0.3,4.16-0.41c0.4-0.11,1.27-0.48,1.48-0.67c0.21-0.19,0.48-0.3,0.58-0.64
				C57.44,59.31,57.42,58.43,57.13,58.25z"/>
			<path class="st0" d="M57.42,60.93c0,0-0.31-0.44-0.97,0.02c-0.65,0.46-3.62,1.86-3.92,2.08c-0.3,0.22-0.98,0.45-0.98,0.45
				s0.08,0.3,0.22,0.36c0.14,0.06,3.53-0.28,3.9-0.38c0.38-0.1,1.19-0.45,1.39-0.63s0.45-0.29,0.54-0.6
				C57.71,61.93,57.69,61.1,57.42,60.93z"/>
			<path class="st2" d="M57.51,63.53c0,0-0.29-0.41-0.9,0.02c-0.61,0.43-3.38,1.73-3.66,1.94s-0.92,0.42-0.92,0.42
				s0.08,0.28,0.21,0.33c0.13,0.06,3.3-0.26,3.65-0.36c0.35-0.09,1.11-0.42,1.3-0.59c0.19-0.16,0.42-0.27,0.51-0.56
				S57.76,63.68,57.51,63.53z"/>
			<path class="st0" d="M57.9,65.71c0,0-0.27-0.38-0.84,0.02c-0.57,0.4-3.14,1.61-3.4,1.8c-0.26,0.19-0.85,0.39-0.85,0.39
				s0.07,0.26,0.19,0.31c0.12,0.05,3.06-0.25,3.39-0.33s1.03-0.39,1.21-0.54c0.17-0.15,0.39-0.25,0.47-0.52
				C58.14,66.58,58.13,65.86,57.9,65.71z"/>
			<path class="st2" d="M58.77,67.78c0,0-0.26-0.37-0.81,0.02s-3.02,1.55-3.27,1.73c-0.25,0.18-0.82,0.38-0.82,0.38
				s0.07,0.25,0.19,0.3c0.12,0.05,2.95-0.24,3.26-0.32s0.99-0.38,1.16-0.52c0.17-0.15,0.38-0.24,0.45-0.5
				C59.01,68.61,58.99,67.92,58.77,67.78z"/>
			<path class="st0" d="M59.51,70.07c0,0-0.24-0.34-0.74,0.02c-0.5,0.36-2.78,1.43-3.01,1.6S55,72.03,55,72.03s0.06,0.23,0.17,0.27
				s2.71-0.22,3-0.3s0.91-0.35,1.07-0.48c0.15-0.14,0.35-0.22,0.42-0.46S59.71,70.2,59.51,70.07z"/>
			<path class="st2" d="M59.77,72.39c0,0-0.23-0.32-0.71,0.02c-0.48,0.34-2.66,1.37-2.88,1.53c-0.22,0.16-0.72,0.33-0.72,0.33
				s0.06,0.22,0.16,0.26s2.6-0.21,2.87-0.28c0.28-0.07,0.88-0.33,1.02-0.46s0.33-0.21,0.4-0.44C59.98,73.12,59.97,72.51,59.77,72.39
				z"/>
			<path class="st0" d="M60.2,74.15c0,0-0.22-0.31-0.68,0.02c-0.46,0.32-2.54,1.3-2.75,1.46c-0.21,0.15-0.69,0.32-0.69,0.32
				s0.06,0.21,0.16,0.25s2.48-0.2,2.74-0.27s0.84-0.32,0.98-0.44c0.14-0.12,0.32-0.2,0.38-0.42C60.4,74.84,60.39,74.27,60.2,74.15z"
				/>
			<path class="st2" d="M61.52,75.37c0,0-0.21-0.29-0.65,0.02c-0.44,0.31-2.42,1.24-2.62,1.39s-0.66,0.3-0.66,0.3
				s0.05,0.2,0.15,0.24c0.09,0.04,2.36-0.19,2.61-0.26s0.8-0.3,0.93-0.42s0.3-0.19,0.36-0.4C61.71,76.04,61.7,75.49,61.52,75.37z"/>
			<path class="st0" d="M61.58,76.88c0,0-0.2-0.28-0.61,0.02c-0.42,0.29-2.3,1.18-2.49,1.32c-0.19,0.14-0.63,0.29-0.63,0.29
				s0.05,0.19,0.14,0.23c0.09,0.04,2.25-0.18,2.48-0.24s0.76-0.29,0.88-0.4c0.13-0.11,0.29-0.18,0.35-0.38
				C61.76,77.51,61.75,76.99,61.58,76.88z"/>
			<path class="st0" d="M61.9,78.18c0,0-0.18-0.25-0.55,0.01c-0.37,0.26-2.06,1.06-2.24,1.18c-0.17,0.13-0.56,0.26-0.56,0.26
				s0.05,0.17,0.13,0.2c0.08,0.03,2.01-0.16,2.23-0.22c0.21-0.06,0.68-0.26,0.79-0.36c0.11-0.1,0.26-0.16,0.31-0.34
				S62.06,78.28,61.9,78.18z"/>
			<path class="st0" d="M62.43,79.19c0,0-0.28-0.05-0.36,0.37s-0.7,2.07-0.73,2.27c-0.03,0.2-0.21,0.54-0.21,0.54
				s0.14,0.08,0.22,0.05c0.08-0.03,1.25-1.43,1.36-1.61c0.11-0.18,0.29-0.62,0.3-0.76s0.07-0.28-0.01-0.43
				C62.91,79.47,62.6,79.16,62.43,79.19z"/>
		</g>
		<path class="st4" d="M57.52,58.07c0,0,0.3,11.37,5.74,21.52"/>
	</g>
	<g>
		<g>
			<path class="st0" d="M55.27,63.55c0,0,0.44-0.36,0.99,0.3c0.54,0.66,3.19,2.93,3.44,3.24c0.25,0.31,0.88,0.74,0.88,0.74
				s-0.17,0.28-0.33,0.3c-0.16,0.02-3.55-1.29-3.9-1.5c-0.36-0.21-1.1-0.8-1.25-1.04c-0.16-0.24-0.39-0.42-0.39-0.77
				C54.7,64.49,54.95,63.64,55.27,63.55z"/>
			<path class="st1" d="M53.52,65.17c0,0,0.43-0.35,0.96,0.29c0.52,0.64,3.09,2.84,3.33,3.14c0.24,0.3,0.85,0.72,0.85,0.72
				s-0.16,0.27-0.32,0.29s-3.44-1.25-3.78-1.45c-0.35-0.2-1.06-0.78-1.21-1.01c-0.15-0.23-0.37-0.41-0.38-0.74
				S53.2,65.27,53.52,65.17z"/>
			<path class="st0" d="M52.11,66.41c0,0,0.42-0.34,0.93,0.28c0.51,0.62,3,2.75,3.23,3.04c0.23,0.29,0.83,0.7,0.83,0.7
				s-0.16,0.26-0.31,0.28c-0.15,0.02-3.33-1.21-3.66-1.41c-0.34-0.2-1.03-0.75-1.17-0.97c-0.15-0.22-0.36-0.4-0.37-0.72
				S51.81,66.5,52.11,66.41z"/>
			<path class="st1" d="M51.07,68.41c0,0,0.4-0.33,0.89,0.27c0.49,0.6,2.9,2.66,3.12,2.94c0.22,0.28,0.8,0.67,0.8,0.67
				s-0.15,0.26-0.3,0.28c-0.15,0.02-3.22-1.17-3.54-1.36c-0.32-0.19-0.99-0.73-1.13-0.94c-0.14-0.22-0.35-0.38-0.36-0.7
				C50.56,69.26,50.78,68.5,51.07,68.41z"/>
			<path class="st0" d="M49.86,69.45c0,0,0.39-0.32,0.86,0.26c0.47,0.58,2.8,2.57,3.01,2.84c0.22,0.27,0.77,0.65,0.77,0.65
				s-0.15,0.25-0.29,0.27c-0.14,0.02-3.11-1.13-3.42-1.31c-0.31-0.18-0.96-0.7-1.1-0.91c-0.14-0.21-0.34-0.37-0.34-0.67
				C49.36,70.28,49.57,69.54,49.86,69.45z"/>
			<path class="st1" d="M48.39,71.81c0,0,0.38-0.31,0.83,0.25c0.46,0.56,2.7,2.48,2.91,2.74c0.21,0.26,0.75,0.63,0.75,0.63
				s-0.14,0.24-0.28,0.26c-0.14,0.02-3-1.09-3.3-1.27s-0.93-0.68-1.06-0.88c-0.13-0.2-0.33-0.36-0.33-0.65
				C47.9,72.6,48.11,71.89,48.39,71.81z"/>
			<path class="st0" d="M47.21,73.63c0,0,0.36-0.29,0.8,0.24c0.44,0.54,2.6,2.39,2.8,2.64c0.2,0.25,0.72,0.61,0.72,0.61
				s-0.14,0.23-0.27,0.25s-2.89-1.05-3.18-1.22c-0.29-0.17-0.89-0.65-1.02-0.85c-0.13-0.19-0.31-0.34-0.32-0.62
				C46.74,74.39,46.94,73.71,47.21,73.63z"/>
			<path class="st0" d="M45.96,74.91c0,0,0.35-0.28,0.77,0.23c0.42,0.52,2.5,2.3,2.69,2.54c0.19,0.24,0.69,0.58,0.69,0.58
				s-0.13,0.22-0.26,0.24c-0.13,0.02-2.78-1.01-3.06-1.17s-0.86-0.63-0.98-0.81c-0.12-0.19-0.3-0.33-0.31-0.6
				C45.51,75.65,45.71,74.99,45.96,74.91z"/>
			<path class="st1" d="M45.16,76.52c0,0,0.32-0.26,0.71,0.21c0.39,0.48,2.3,2.11,2.48,2.34c0.18,0.22,0.64,0.54,0.64,0.54
				s-0.12,0.2-0.24,0.22c-0.12,0.02-2.56-0.93-2.81-1.08s-0.79-0.58-0.9-0.75c-0.11-0.17-0.28-0.3-0.28-0.55
				C44.75,77.2,44.93,76.59,45.16,76.52z"/>
			<path class="st0" d="M49.14,70.77c0,0,0.31-0.25,0.68,0.21s2.2,2.02,2.37,2.24c0.17,0.21,0.61,0.51,0.61,0.51
				s-0.12,0.19-0.23,0.21c-0.11,0.02-2.45-0.89-2.69-1.03c-0.25-0.15-0.76-0.55-0.86-0.72c-0.11-0.16-0.27-0.29-0.27-0.53
				C48.74,71.41,48.91,70.83,49.14,70.77z"/>
			<path class="st0" d="M44.12,78.29c0,0,0.28-0.23,0.62,0.19s2.01,1.84,2.16,2.04c0.16,0.2,0.55,0.47,0.55,0.47
				s-0.11,0.18-0.21,0.19c-0.1,0.01-2.23-0.81-2.45-0.94c-0.22-0.13-0.69-0.5-0.79-0.65c-0.1-0.15-0.24-0.27-0.25-0.48
				S43.92,78.35,44.12,78.29z"/>
			<path class="st1" d="M43.3,80.38c0,0,0.24-0.19,0.53,0.16c0.29,0.35,1.71,1.57,1.84,1.74s0.47,0.4,0.47,0.4s-0.09,0.15-0.18,0.16
				c-0.09,0.01-1.9-0.69-2.09-0.8c-0.19-0.11-0.59-0.43-0.67-0.56c-0.08-0.13-0.21-0.23-0.21-0.41
				C42.99,80.88,43.12,80.43,43.3,80.38z"/>
			<path class="st0" d="M43.04,81.9c0,0,0.29-0.05,0.36,0.38s0.65,2.08,0.68,2.28c0.03,0.2,0.2,0.55,0.2,0.55s-0.14,0.08-0.22,0.05
				s-1.22-1.46-1.33-1.64c-0.1-0.18-0.28-0.63-0.28-0.77c-0.01-0.14-0.06-0.28,0.02-0.43C42.55,82.17,42.87,81.87,43.04,81.9z"/>
			<path class="st2" d="M54.75,63.26c0,0,0.14-0.56-0.69-0.77c-0.83-0.21-4.01-1.66-4.39-1.75c-0.39-0.09-1.05-0.49-1.05-0.49
				s-0.18,0.27-0.14,0.43c0.05,0.16,2.67,2.67,3.01,2.91c0.34,0.24,1.19,0.65,1.47,0.7c0.28,0.04,0.55,0.17,0.86,0.03
				S54.8,63.59,54.75,63.26z"/>
			<path class="st0" d="M52.89,65.22c0,0,0.13-0.52-0.64-0.72c-0.78-0.2-3.76-1.55-4.12-1.64c-0.36-0.09-0.98-0.46-0.98-0.46
				s-0.17,0.25-0.13,0.4c0.05,0.15,2.5,2.51,2.82,2.73s1.11,0.61,1.38,0.65c0.26,0.04,0.51,0.16,0.81,0.03S52.94,65.53,52.89,65.22z
				"/>
			<path class="st2" d="M50.97,66.96c0,0,0.12-0.49-0.6-0.67s-3.51-1.45-3.85-1.53c-0.34-0.08-0.92-0.43-0.92-0.43
				s-0.16,0.24-0.12,0.37c0.04,0.14,2.33,2.34,2.63,2.55c0.3,0.21,1.04,0.57,1.29,0.61c0.25,0.04,0.48,0.15,0.75,0.03
				C50.44,67.76,51.01,67.25,50.97,66.96z"/>
			<path class="st0" d="M49.56,68.68c0,0,0.11-0.45-0.56-0.63c-0.67-0.17-3.26-1.35-3.58-1.42c-0.32-0.08-0.85-0.4-0.85-0.4
				s-0.15,0.22-0.11,0.35c0.04,0.13,2.17,2.17,2.45,2.37c0.28,0.19,0.97,0.53,1.2,0.57c0.23,0.03,0.44,0.14,0.7,0.03
				C49.06,69.42,49.6,68.95,49.56,68.68z"/>
			<path class="st2" d="M48.55,70.68c0,0,0.11-0.44-0.54-0.6c-0.65-0.17-3.14-1.3-3.44-1.37c-0.3-0.07-0.82-0.38-0.82-0.38
				s-0.14,0.21-0.11,0.33c0.04,0.12,2.09,2.09,2.35,2.28c0.27,0.18,0.93,0.51,1.15,0.54c0.22,0.03,0.43,0.13,0.67,0.02
				C48.07,71.39,48.59,70.94,48.55,70.68z"/>
			<path class="st0" d="M47.28,72.72c0,0,0.1-0.4-0.49-0.55c-0.6-0.15-2.89-1.19-3.17-1.26c-0.28-0.07-0.75-0.35-0.75-0.35
				s-0.13,0.2-0.1,0.31c0.03,0.11,1.92,1.93,2.17,2.1s0.86,0.47,1.06,0.5c0.2,0.03,0.39,0.12,0.62,0.02
				C46.84,73.38,47.32,72.96,47.28,72.72z"/>
			<path class="st2" d="M45.68,74.42c0,0,0.1-0.38-0.47-0.53c-0.57-0.15-2.76-1.14-3.03-1.21c-0.27-0.06-0.72-0.34-0.72-0.34
				s-0.13,0.19-0.09,0.29c0.03,0.11,1.84,1.84,2.07,2.01s0.82,0.45,1.01,0.48c0.19,0.03,0.38,0.12,0.59,0.02
				C45.26,75.05,45.72,74.65,45.68,74.42z"/>
			<path class="st0" d="M44.62,75.89c0,0,0.09-0.37-0.45-0.51c-0.54-0.14-2.64-1.09-2.9-1.15c-0.26-0.06-0.69-0.32-0.69-0.32
				s-0.12,0.18-0.09,0.28c0.03,0.1,1.76,1.76,1.98,1.92c0.23,0.16,0.78,0.43,0.97,0.46c0.19,0.03,0.36,0.11,0.57,0.02
				C44.22,76.49,44.65,76.11,44.62,75.89z"/>
			<path class="st2" d="M44.54,77.69c0,0,0.09-0.35-0.43-0.48c-0.52-0.13-2.52-1.04-2.76-1.1c-0.24-0.06-0.66-0.31-0.66-0.31
				s-0.12,0.17-0.09,0.27c0.03,0.1,1.67,1.68,1.89,1.83c0.21,0.15,0.75,0.41,0.92,0.44s0.34,0.11,0.54,0.02S44.57,77.9,44.54,77.69z
				"/>
			<path class="st0" d="M43.43,78.71c0,0,0.08-0.33-0.41-0.46s-2.39-0.99-2.62-1.04c-0.23-0.06-0.62-0.29-0.62-0.29
				s-0.11,0.16-0.08,0.25s1.59,1.59,1.8,1.74c0.2,0.14,0.71,0.39,0.88,0.42c0.17,0.02,0.33,0.1,0.51,0.02
				C43.07,79.26,43.46,78.91,43.43,78.71z"/>
			<path class="st0" d="M42.65,79.8c0,0,0.08-0.3-0.37-0.41c-0.44-0.11-2.14-0.89-2.35-0.94c-0.21-0.05-0.56-0.26-0.56-0.26
				s-0.1,0.14-0.07,0.23s1.43,1.43,1.61,1.55c0.18,0.13,0.64,0.35,0.79,0.37c0.15,0.02,0.29,0.09,0.46,0.02S42.68,79.98,42.65,79.8z
				"/>
			<path class="st0" d="M42.22,80.86c0,0-0.14-0.25-0.52-0.04c-0.37,0.21-2.03,0.81-2.2,0.91c-0.17,0.1-0.55,0.19-0.55,0.19
				s0.03,0.16,0.1,0.2c0.07,0.04,1.9,0.03,2.11-0.01c0.21-0.03,0.66-0.18,0.78-0.26c0.12-0.08,0.26-0.13,0.32-0.29
				S42.36,80.96,42.22,80.86z"/>
		</g>
		<path class="st4" d="M55.13,63.44c0,0-8.47,7.6-12.68,18.31"/>
	</g>
	<g>
		<g>
			<path class="st0" d="M61.75,54.97c0,0-0.35-0.45,0.32-0.98c0.67-0.52,3.01-3.12,3.33-3.36c0.32-0.24,0.77-0.86,0.77-0.86
				s0.28,0.17,0.29,0.34c0.02,0.16-1.38,3.51-1.6,3.87c-0.22,0.35-0.83,1.07-1.07,1.22s-0.43,0.38-0.78,0.37
				S61.84,55.29,61.75,54.97z"/>
			<path class="st1" d="M63.34,56.77c0,0-0.34-0.44,0.31-0.95c0.65-0.51,2.92-3.02,3.23-3.25c0.31-0.23,0.74-0.84,0.74-0.84
				s0.27,0.17,0.29,0.33c0.02,0.16-1.34,3.4-1.55,3.75c-0.21,0.34-0.8,1.04-1.04,1.19c-0.23,0.14-0.42,0.36-0.75,0.36
				C64.23,57.34,63.42,57.08,63.34,56.77z"/>
			<path class="st0" d="M64.53,58.2c0,0-0.33-0.43,0.3-0.92s2.83-2.92,3.12-3.15c0.3-0.22,0.72-0.81,0.72-0.81s0.26,0.16,0.28,0.32
				c0.02,0.15-1.29,3.3-1.5,3.63c-0.21,0.33-0.78,1.01-1,1.15c-0.23,0.14-0.41,0.35-0.73,0.35C65.4,58.76,64.62,58.51,64.53,58.2z"
				/>
			<path class="st1" d="M66.51,59.29c0,0-0.32-0.41,0.29-0.89c0.61-0.48,2.73-2.83,3.02-3.05c0.29-0.22,0.69-0.78,0.69-0.78
				s0.25,0.16,0.27,0.31s-1.25,3.19-1.45,3.51c-0.2,0.32-0.75,0.97-0.97,1.11c-0.22,0.14-0.39,0.34-0.7,0.34
				S66.59,59.59,66.51,59.29z"/>
			<path class="st0" d="M67.52,60.53c0,0-0.31-0.4,0.28-0.86c0.59-0.46,2.64-2.73,2.92-2.94s0.67-0.76,0.67-0.76
				s0.24,0.15,0.26,0.29s-1.21,3.08-1.4,3.39s-0.73,0.94-0.94,1.07s-0.38,0.33-0.68,0.33C68.33,61.05,67.6,60.82,67.52,60.53z"/>
			<path class="st1" d="M69.84,62.06c0,0-0.3-0.38,0.27-0.83s2.55-2.63,2.81-2.84s0.65-0.73,0.65-0.73s0.23,0.15,0.25,0.28
				c0.02,0.14-1.16,2.97-1.35,3.27c-0.19,0.3-0.7,0.91-0.9,1.03c-0.2,0.13-0.36,0.32-0.66,0.31S69.91,62.34,69.84,62.06z"/>
			<path class="st0" d="M71.63,63.29c0,0-0.29-0.37,0.26-0.8c0.55-0.43,2.45-2.54,2.71-2.73c0.26-0.2,0.62-0.7,0.62-0.7
				s0.23,0.14,0.24,0.27c0.01,0.13-1.12,2.86-1.3,3.15c-0.18,0.29-0.67,0.87-0.87,1s-0.35,0.31-0.63,0.3
				C72.38,63.77,71.7,63.55,71.63,63.29z"/>
			<path class="st0" d="M72.88,64.56c0,0-0.27-0.36,0.25-0.77c0.53-0.41,2.36-2.44,2.61-2.63s0.6-0.68,0.6-0.68s0.22,0.14,0.23,0.26
				c0.01,0.13-1.08,2.75-1.25,3.03c-0.17,0.28-0.65,0.84-0.84,0.96c-0.19,0.12-0.34,0.29-0.61,0.29
				C73.61,65.03,72.95,64.82,72.88,64.56z"/>
			<path class="st1" d="M74.47,65.41c0,0-0.25-0.33,0.23-0.71s2.17-2.25,2.4-2.42c0.23-0.17,0.55-0.62,0.55-0.62s0.2,0.13,0.21,0.24
				s-0.99,2.53-1.15,2.79c-0.16,0.25-0.6,0.77-0.77,0.88c-0.17,0.11-0.31,0.27-0.56,0.27C75.14,65.84,74.53,65.64,74.47,65.41z"/>
			<path class="st0" d="M68.81,61.29c0,0-0.24-0.31,0.22-0.68c0.46-0.36,2.08-2.15,2.3-2.32c0.22-0.17,0.53-0.6,0.53-0.6
				s0.19,0.12,0.2,0.23s-0.95,2.42-1.1,2.67c-0.15,0.24-0.57,0.74-0.74,0.84s-0.3,0.26-0.54,0.26
				C69.45,61.7,68.88,61.51,68.81,61.29z"/>
			<path class="st0" d="M76.21,66.49c0,0-0.22-0.28,0.2-0.61s1.89-1.96,2.09-2.11s0.48-0.54,0.48-0.54s0.17,0.11,0.19,0.21
				c0.01,0.1-0.87,2.21-1,2.43c-0.14,0.22-0.52,0.67-0.67,0.77c-0.15,0.09-0.27,0.24-0.49,0.23C76.79,66.86,76.26,66.69,76.21,66.49
				z"/>
			<path class="st1" d="M78.28,67.37c0,0-0.19-0.24,0.17-0.52s1.61-1.67,1.78-1.8c0.17-0.13,0.41-0.46,0.41-0.46
				s0.15,0.09,0.16,0.18c0.01,0.09-0.74,1.88-0.85,2.07s-0.44,0.57-0.57,0.65c-0.13,0.08-0.23,0.2-0.42,0.2
				C78.78,67.69,78.33,67.54,78.28,67.37z"/>
			<path class="st0" d="M79.8,67.66c0,0-0.04-0.29,0.39-0.35s2.1-0.6,2.3-0.63s0.55-0.18,0.55-0.18s0.08,0.15,0.04,0.22
				c-0.03,0.08-1.49,1.19-1.67,1.28c-0.18,0.1-0.63,0.26-0.78,0.26c-0.14,0-0.28,0.05-0.43-0.03C80.05,68.15,79.75,67.83,79.8,67.66
				z"/>
			<path class="st2" d="M61.45,55.48c0,0-0.55-0.15-0.79,0.67c-0.23,0.82-1.76,3.96-1.86,4.35c-0.1,0.38-0.51,1.03-0.51,1.03
				s0.27,0.19,0.42,0.15c0.16-0.04,2.74-2.6,2.98-2.93c0.24-0.34,0.68-1.17,0.73-1.45c0.05-0.28,0.19-0.54,0.05-0.86
				C62.35,56.12,61.79,55.44,61.45,55.48z"/>
			<path class="st0" d="M63.36,57.39c0,0-0.52-0.14-0.74,0.63s-1.65,3.72-1.74,4.08s-0.48,0.97-0.48,0.97s0.25,0.18,0.4,0.14
				c0.15-0.04,2.57-2.44,2.8-2.75c0.23-0.31,0.64-1.1,0.69-1.36s0.17-0.51,0.05-0.81C64.21,57.99,63.68,57.35,63.36,57.39z"/>
			<path class="st2" d="M65.06,59.35c0,0-0.48-0.14-0.69,0.58s-1.54,3.47-1.63,3.81c-0.09,0.34-0.45,0.91-0.45,0.91
				s0.23,0.17,0.37,0.13c0.14-0.04,2.4-2.28,2.61-2.57c0.21-0.29,0.6-1.03,0.64-1.27s0.16-0.47,0.05-0.75
				C65.85,59.91,65.35,59.32,65.06,59.35z"/>
			<path class="st0" d="M66.74,60.81c0,0-0.45-0.13-0.64,0.54c-0.19,0.67-1.43,3.23-1.51,3.54c-0.08,0.31-0.42,0.84-0.42,0.84
				s0.22,0.16,0.34,0.12c0.13-0.04,2.23-2.11,2.43-2.39c0.2-0.27,0.56-0.95,0.6-1.18s0.15-0.44,0.04-0.7
				C67.47,61.33,67.01,60.78,66.74,60.81z"/>
			<path class="st2" d="M68.71,61.87c0,0-0.43-0.12-0.61,0.52c-0.18,0.64-1.38,3.1-1.46,3.4c-0.08,0.3-0.4,0.81-0.4,0.81
				s0.21,0.15,0.33,0.11c0.12-0.03,2.14-2.03,2.33-2.3c0.19-0.26,0.54-0.92,0.57-1.14s0.15-0.42,0.04-0.67
				C69.41,62.37,68.97,61.84,68.71,61.87z"/>
			<path class="st0" d="M70.72,63.19c0,0-0.4-0.11-0.57,0.48c-0.17,0.59-1.27,2.86-1.34,3.13c-0.07,0.28-0.37,0.75-0.37,0.75
				s0.19,0.14,0.3,0.11c0.11-0.03,1.97-1.87,2.15-2.11c0.18-0.24,0.49-0.84,0.53-1.05s0.13-0.39,0.04-0.62
				C71.37,63.65,70.96,63.16,70.72,63.19z"/>
			<path class="st2" d="M72.38,64.83c0,0-0.38-0.11-0.54,0.46c-0.16,0.57-1.21,2.73-1.28,3S70.2,69,70.2,69s0.18,0.13,0.29,0.1
				c0.11-0.03,1.89-1.79,2.06-2.02c0.17-0.23,0.47-0.81,0.51-1s0.13-0.37,0.04-0.59S72.61,64.8,72.38,64.83z"/>
			<path class="st0" d="M73.82,65.93c0,0-0.36-0.1-0.52,0.44c-0.15,0.54-1.16,2.61-1.23,2.87c-0.07,0.25-0.34,0.68-0.34,0.68
				s0.18,0.13,0.28,0.1c0.1-0.03,1.8-1.71,1.96-1.93s0.45-0.77,0.48-0.96s0.12-0.36,0.03-0.57C74.41,66.35,74.04,65.91,73.82,65.93z
				"/>
			<path class="st2" d="M75.62,66.06c0,0-0.35-0.1-0.49,0.42c-0.15,0.52-1.1,2.49-1.17,2.73c-0.06,0.24-0.32,0.65-0.32,0.65
				s0.17,0.12,0.27,0.09c0.1-0.03,1.72-1.63,1.87-1.84s0.43-0.74,0.46-0.91c0.03-0.18,0.12-0.34,0.03-0.54
				C76.18,66.46,75.83,66.03,75.62,66.06z"/>
			<path class="st0" d="M76.61,67.19c0,0-0.33-0.09-0.47,0.4c-0.14,0.49-1.05,2.37-1.11,2.6c-0.06,0.23-0.31,0.62-0.31,0.62
				s0.16,0.11,0.25,0.09c0.09-0.03,1.63-1.55,1.78-1.75c0.15-0.2,0.41-0.7,0.44-0.87c0.03-0.17,0.11-0.32,0.03-0.51
				C77.15,67.57,76.82,67.16,76.61,67.19z"/>
			<path class="st0" d="M77.68,68c0,0-0.3-0.08-0.42,0.36c-0.12,0.44-0.94,2.12-1,2.33c-0.06,0.21-0.27,0.55-0.27,0.55
				s0.14,0.1,0.23,0.08c0.08-0.02,1.46-1.39,1.59-1.57c0.13-0.18,0.37-0.63,0.39-0.78c0.03-0.15,0.1-0.29,0.03-0.46
				C78.16,68.34,77.86,67.98,77.68,68z"/>
			<path class="st0" d="M78.73,68.45c0,0-0.25,0.14-0.05,0.52c0.2,0.38,0.76,2.05,0.85,2.22c0.1,0.18,0.18,0.55,0.18,0.55
				s0.16-0.02,0.2-0.1c0.04-0.07,0.08-1.9,0.05-2.11c-0.03-0.21-0.16-0.66-0.25-0.78s-0.12-0.26-0.28-0.33
				C79.28,68.37,78.84,68.32,78.73,68.45z"/>
		</g>
		<path class="st4" d="M61.64,55.11c0,0,7.38,8.66,17.98,13.14"/>
	</g>
	<g>
		<g>
			<path class="st0" d="M60.32,55.14c0,0-0.53,0.21-0.85-0.58s-2.16-3.76-2.3-4.13c-0.14-0.37-0.62-0.97-0.62-0.97
				s0.24-0.22,0.41-0.19c0.16,0.03,2.99,2.3,3.27,2.61s0.8,1.09,0.88,1.37c0.08,0.27,0.24,0.52,0.14,0.85
				C61.15,54.42,60.66,55.15,60.32,55.14z"/>
			<path class="st1" d="M62.49,54.12c0,0-0.52,0.2-0.82-0.56c-0.31-0.77-2.09-3.64-2.23-4c-0.14-0.36-0.6-0.94-0.6-0.94
				s0.24-0.21,0.39-0.18c0.16,0.03,2.9,2.23,3.17,2.53c0.27,0.3,0.78,1.06,0.85,1.33c0.07,0.27,0.23,0.5,0.14,0.82
				S62.81,54.13,62.49,54.12z"/>
			<path class="st0" d="M64.2,53.37c0,0-0.5,0.2-0.8-0.55c-0.3-0.74-2.02-3.53-2.16-3.88c-0.13-0.35-0.58-0.91-0.58-0.91
				s0.23-0.2,0.38-0.18c0.15,0.03,2.81,2.16,3.07,2.45c0.26,0.29,0.75,1.03,0.82,1.28s0.23,0.49,0.13,0.8
				C64.97,52.69,64.51,53.37,64.2,53.37z"/>
			<path class="st1" d="M65.79,51.77c0,0-0.48,0.19-0.77-0.53c-0.29-0.72-1.96-3.41-2.09-3.75c-0.13-0.34-0.56-0.88-0.56-0.88
				s0.22-0.2,0.37-0.17s2.71,2.09,2.97,2.37c0.25,0.28,0.73,0.99,0.8,1.24s0.22,0.47,0.13,0.77C66.54,51.12,66.1,51.78,65.79,51.77z
				"/>
			<path class="st0" d="M67.27,51.15c0,0-0.47,0.18-0.74-0.51c-0.28-0.69-1.89-3.29-2.02-3.62c-0.12-0.33-0.54-0.85-0.54-0.85
				s0.21-0.19,0.36-0.17s2.62,2.01,2.86,2.28c0.24,0.27,0.7,0.96,0.77,1.2s0.21,0.45,0.12,0.74C67.99,50.51,67.56,51.15,67.27,51.15
				z"/>
			<path class="st1" d="M69.38,49.35c0,0-0.45,0.18-0.72-0.49c-0.27-0.67-1.82-3.18-1.94-3.49c-0.12-0.31-0.52-0.82-0.52-0.82
				s0.21-0.18,0.34-0.16c0.14,0.02,2.53,1.94,2.76,2.2s0.68,0.92,0.74,1.16s0.2,0.44,0.12,0.72S69.67,49.35,69.38,49.35z"/>
			<path class="st0" d="M71.05,47.97c0,0-0.43,0.17-0.69-0.47c-0.26-0.65-1.76-3.06-1.87-3.36c-0.12-0.3-0.5-0.79-0.5-0.79
				s0.2-0.18,0.33-0.15c0.13,0.02,2.44,1.87,2.66,2.12c0.23,0.25,0.65,0.89,0.72,1.11c0.06,0.22,0.2,0.42,0.12,0.69
				C71.73,47.38,71.33,47.97,71.05,47.97z"/>
			<path class="st0" d="M72.63,47.12c0,0-0.42,0.17-0.67-0.46c-0.25-0.62-1.69-2.94-1.8-3.23c-0.11-0.29-0.48-0.76-0.48-0.76
				s0.19-0.17,0.32-0.15s2.34,1.8,2.56,2.04c0.22,0.24,0.63,0.86,0.69,1.07c0.06,0.21,0.19,0.41,0.11,0.66
				C73.28,46.55,72.89,47.12,72.63,47.12z"/>
			<path class="st1" d="M73.88,45.83c0,0-0.38,0.15-0.61-0.42c-0.23-0.57-1.56-2.71-1.66-2.98c-0.1-0.27-0.44-0.7-0.44-0.7
				s0.18-0.16,0.29-0.14c0.12,0.02,2.16,1.66,2.36,1.88s0.58,0.79,0.63,0.99c0.06,0.2,0.17,0.37,0.1,0.61
				C74.48,45.3,74.12,45.83,73.88,45.83z"/>
			<path class="st0" d="M68.35,50.11c0,0-0.37,0.15-0.59-0.4c-0.22-0.55-1.49-2.59-1.59-2.85s-0.43-0.67-0.43-0.67
				s0.17-0.15,0.28-0.13c0.11,0.02,2.06,1.59,2.26,1.8s0.55,0.75,0.61,0.94c0.05,0.19,0.17,0.36,0.1,0.59
				C68.92,49.61,68.58,50.12,68.35,50.11z"/>
			<path class="st0" d="M75.4,44.46c0,0-0.33,0.13-0.53-0.37s-1.36-2.36-1.44-2.59c-0.09-0.23-0.39-0.61-0.39-0.61
				s0.15-0.14,0.25-0.12c0.1,0.02,1.88,1.44,2.05,1.64c0.17,0.19,0.5,0.69,0.55,0.86c0.05,0.17,0.15,0.33,0.09,0.53
				C75.92,44,75.61,44.46,75.4,44.46z"/>
			<path class="st1" d="M76.82,42.71c0,0-0.29,0.11-0.45-0.31c-0.17-0.42-1.15-2.01-1.23-2.21s-0.33-0.52-0.33-0.52
				s0.13-0.12,0.22-0.1c0.09,0.01,1.6,1.23,1.75,1.4c0.15,0.17,0.43,0.59,0.47,0.73s0.13,0.28,0.08,0.45
				C77.26,42.32,77,42.71,76.82,42.71z"/>
			<path class="st0" d="M77.52,41.33c0,0-0.29-0.04-0.22-0.47c0.06-0.43,0.01-2.18,0.04-2.38c0.03-0.2-0.02-0.58-0.02-0.58
				s0.16-0.03,0.22,0.02s0.73,1.76,0.77,1.96c0.04,0.2,0.07,0.68,0.04,0.82c-0.04,0.14-0.03,0.29-0.15,0.41S77.67,41.42,77.52,41.33
				z"/>
			<path class="st2" d="M60.73,55.58c0,0-0.3,0.49,0.42,0.94c0.72,0.45,3.32,2.79,3.66,2.99c0.34,0.21,0.85,0.78,0.85,0.78
				s0.26-0.2,0.26-0.37c0-0.16-1.73-3.35-1.99-3.68c-0.25-0.33-0.94-0.98-1.19-1.11c-0.26-0.12-0.47-0.33-0.81-0.29
				S60.78,55.24,60.73,55.58z"/>
			<path class="st0" d="M63.09,54.27c0,0-0.28,0.46,0.4,0.88c0.68,0.42,3.11,2.62,3.43,2.81c0.32,0.19,0.8,0.73,0.8,0.73
				s0.24-0.19,0.24-0.34s-1.63-3.14-1.87-3.45c-0.24-0.31-0.88-0.92-1.12-1.04c-0.24-0.12-0.44-0.31-0.76-0.27
				C63.9,53.62,63.15,53.95,63.09,54.27z"/>
			<path class="st2" d="M65.45,53.19c0,0-0.26,0.43,0.37,0.82c0.63,0.4,2.91,2.44,3.21,2.62c0.3,0.18,0.75,0.68,0.75,0.68
				S70,57.14,70,56.99s-1.52-2.94-1.74-3.22c-0.22-0.29-0.82-0.86-1.04-0.97c-0.22-0.11-0.41-0.29-0.71-0.25
				C66.2,52.58,65.5,52.89,65.45,53.19z"/>
			<path class="st0" d="M67.32,51.98c0,0-0.25,0.4,0.34,0.76c0.59,0.37,2.7,2.27,2.98,2.44c0.28,0.17,0.69,0.63,0.69,0.63
				s0.21-0.16,0.21-0.3s-1.41-2.73-1.62-2.99c-0.21-0.27-0.76-0.8-0.97-0.9s-0.38-0.27-0.66-0.24S67.36,51.71,67.32,51.98z"/>
			<path class="st2" d="M68.88,50.38c0,0-0.24,0.38,0.33,0.74c0.57,0.35,2.6,2.18,2.87,2.34c0.27,0.16,0.67,0.61,0.67,0.61
				s0.2-0.16,0.2-0.29c0-0.13-1.36-2.62-1.56-2.88c-0.2-0.26-0.73-0.77-0.93-0.87s-0.37-0.26-0.63-0.23
				C69.55,49.84,68.93,50.11,68.88,50.38z"/>
			<path class="st0" d="M70.71,48.81c0,0-0.22,0.35,0.3,0.68c0.52,0.33,2.39,2.01,2.64,2.16c0.25,0.15,0.61,0.56,0.61,0.56
				s0.19-0.15,0.19-0.26c0-0.12-1.25-2.42-1.43-2.65c-0.18-0.24-0.67-0.71-0.86-0.8c-0.18-0.09-0.34-0.24-0.58-0.21
				S70.75,48.57,70.71,48.81z"/>
			<path class="st2" d="M72.75,47.67c0,0-0.21,0.34,0.29,0.65c0.5,0.31,2.29,1.92,2.53,2.07c0.24,0.14,0.59,0.54,0.59,0.54
				s0.18-0.14,0.18-0.25s-1.2-2.31-1.37-2.54c-0.18-0.23-0.65-0.68-0.82-0.76c-0.18-0.09-0.32-0.23-0.56-0.2
				C73.34,47.19,72.78,47.44,72.75,47.67z"/>
			<path class="st0" d="M74.2,46.59c0,0-0.2,0.32,0.28,0.62s2.19,1.84,2.41,1.97c0.22,0.14,0.56,0.51,0.56,0.51s0.17-0.13,0.17-0.24
				c0-0.11-1.14-2.21-1.31-2.42c-0.17-0.22-0.62-0.65-0.78-0.73c-0.17-0.08-0.31-0.22-0.53-0.19S74.24,46.37,74.2,46.59z"/>
			<path class="st2" d="M74.82,44.9c0,0-0.19,0.31,0.27,0.59c0.45,0.28,2.08,1.75,2.3,1.88c0.21,0.13,0.53,0.49,0.53,0.49
				s0.16-0.13,0.16-0.23s-1.09-2.1-1.25-2.31c-0.16-0.21-0.59-0.62-0.75-0.69s-0.29-0.21-0.51-0.18S74.86,44.69,74.82,44.9z"/>
			<path class="st0" d="M76.19,44.26c0,0-0.18,0.29,0.25,0.56c0.43,0.27,1.98,1.66,2.18,1.79s0.51,0.46,0.51,0.46
				s0.15-0.12,0.15-0.22c0-0.1-1.04-2-1.19-2.2s-0.56-0.59-0.71-0.66c-0.15-0.07-0.28-0.2-0.48-0.17
				C76.7,43.85,76.22,44.06,76.19,44.26z"/>
			<path class="st0" d="M77.26,43.46c0,0-0.16,0.26,0.23,0.5c0.39,0.24,1.78,1.49,1.96,1.6c0.18,0.11,0.46,0.42,0.46,0.42
				s0.14-0.11,0.14-0.2c0-0.09-0.93-1.79-1.06-1.97c-0.14-0.18-0.5-0.53-0.64-0.59s-0.25-0.18-0.43-0.15
				C77.72,43.09,77.29,43.28,77.26,43.46z"/>
			<path class="st0" d="M77.99,42.58c0,0,0.06,0.28,0.48,0.19c0.42-0.09,2.18-0.16,2.37-0.2c0.2-0.05,0.58-0.02,0.58-0.02
				s0.02-0.16-0.03-0.22c-0.06-0.06-1.8-0.6-2.01-0.63c-0.21-0.03-0.68-0.03-0.82,0.02c-0.14,0.05-0.28,0.05-0.39,0.18
				C78.06,42.03,77.89,42.44,77.99,42.58z"/>
		</g>
		<path class="st4" d="M60.42,55.29c0,0,10.37-4.69,17.61-13.63"/>
	</g>
	<g>
		<g>
			<g>
				<path class="st0" d="M58.4,56.25c0,0-0.35,0.81,0.86,1.33c1.21,0.52,5.71,3.47,6.28,3.7c0.57,0.23,1.48,0.99,1.48,0.99
					s0.34-0.37,0.31-0.62c-0.04-0.25-3.43-4.7-3.9-5.14c-0.47-0.44-1.66-1.28-2.07-1.41c-0.42-0.13-0.79-0.39-1.3-0.25
					C59.55,55,58.41,55.73,58.4,56.25z"/>
				<path class="st1" d="M60.06,52.95c0,0-0.33,0.79,0.84,1.29c1.17,0.5,5.54,3.36,6.09,3.59c0.55,0.23,1.43,0.96,1.43,0.96
					s0.33-0.36,0.3-0.6c-0.04-0.24-3.33-4.55-3.78-4.98s-1.6-1.24-2.01-1.36c-0.41-0.12-0.77-0.38-1.26-0.24
					C61.17,51.74,60.06,52.44,60.06,52.95z"/>
				<path class="st0" d="M61.28,50.34c0,0-0.32,0.76,0.81,1.25c1.13,0.49,5.36,3.25,5.89,3.47c0.53,0.22,1.39,0.93,1.39,0.93
					s0.32-0.35,0.29-0.58c-0.03-0.23-3.22-4.41-3.66-4.82c-0.44-0.41-1.55-1.2-1.95-1.32c-0.39-0.12-0.74-0.37-1.22-0.23
					S61.29,49.85,61.28,50.34z"/>
				<path class="st1" d="M62.74,47.48c0,0-0.31,0.74,0.78,1.21c1.1,0.47,5.18,3.15,5.7,3.36c0.51,0.21,1.34,0.89,1.34,0.89
					s0.31-0.33,0.28-0.56c-0.03-0.23-3.11-4.26-3.53-4.66c-0.42-0.4-1.5-1.16-1.88-1.28c-0.38-0.12-0.72-0.35-1.18-0.23
					S62.75,47,62.74,47.48z"/>
				<path class="st0" d="M64.62,45.43c0,0-0.3,0.71,0.76,1.17s5,3.04,5.5,3.24c0.5,0.2,1.3,0.86,1.3,0.86s0.3-0.32,0.27-0.54
					c-0.03-0.22-3.01-4.11-3.41-4.5c-0.41-0.38-1.45-1.12-1.82-1.23c-0.37-0.11-0.69-0.34-1.14-0.22
					C65.62,44.33,64.63,44.97,64.62,45.43z"/>
				<path class="st1" d="M66.97,41.73c0,0-0.29,0.69,0.73,1.13c1.02,0.44,4.83,2.93,5.31,3.13c0.48,0.2,1.25,0.83,1.25,0.83
					s0.29-0.31,0.26-0.52c-0.03-0.21-2.9-3.97-3.29-4.34c-0.39-0.37-1.4-1.08-1.75-1.19c-0.35-0.11-0.67-0.33-1.1-0.21
					C67.94,40.67,66.97,41.29,66.97,41.73z"/>
				<path class="st0" d="M69.06,39.39c0,0-0.28,0.66,0.7,1.08c0.98,0.42,4.65,2.82,5.11,3.01s1.2,0.8,1.2,0.8s0.28-0.3,0.25-0.5
					s-2.79-3.82-3.17-4.18c-0.38-0.36-1.35-1.04-1.69-1.14c-0.34-0.1-0.64-0.32-1.06-0.2S69.06,38.97,69.06,39.39z"/>
				<path class="st0" d="M71.23,37.58c0,0-0.27,0.64,0.68,1.04c0.95,0.41,4.47,2.72,4.92,2.9c0.44,0.18,1.16,0.77,1.16,0.77
					s0.27-0.29,0.24-0.48c-0.03-0.19-2.69-3.68-3.05-4.02c-0.36-0.34-1.3-1-1.62-1.1c-0.33-0.1-0.62-0.31-1.02-0.2
					C72.13,36.6,71.24,37.17,71.23,37.58z"/>
				<path class="st1" d="M73.27,35.7c0,0-0.25,0.59,0.62,0.96c0.87,0.37,4.12,2.5,4.53,2.67s1.07,0.71,1.07,0.71
					s0.25-0.27,0.22-0.45s-2.47-3.39-2.81-3.7s-1.19-0.92-1.5-1.01c-0.3-0.09-0.57-0.28-0.94-0.18
					C74.09,34.8,73.27,35.32,73.27,35.7z"/>
				<path class="st0" d="M65.45,43.29c0,0-0.24,0.56,0.6,0.92c0.83,0.36,3.94,2.39,4.33,2.55c0.39,0.16,1.02,0.68,1.02,0.68
					s0.24-0.25,0.21-0.43c-0.03-0.17-2.37-3.24-2.69-3.54s-1.14-0.88-1.43-0.97s-0.55-0.27-0.9-0.17
					C66.24,42.43,65.45,42.93,65.45,43.29z"/>
				<path class="st0" d="M75.44,33.41c0,0-0.22,0.51,0.54,0.84c0.76,0.33,3.59,2.18,3.94,2.32c0.36,0.15,0.93,0.62,0.93,0.62
					s0.22-0.23,0.19-0.39s-2.15-2.95-2.45-3.23c-0.29-0.28-1.04-0.8-1.3-0.88s-0.5-0.25-0.82-0.16S75.44,33.08,75.44,33.41z"/>
				<path class="st1" d="M78.67,32.22c0,0-0.18,0.44,0.46,0.71c0.65,0.28,3.06,1.86,3.36,1.98c0.3,0.12,0.79,0.53,0.79,0.53
					s0.18-0.2,0.16-0.33s-1.84-2.51-2.08-2.75c-0.25-0.23-0.89-0.68-1.11-0.75c-0.22-0.07-0.42-0.21-0.7-0.13
					C79.28,31.55,78.67,31.94,78.67,32.22z"/>
				<path class="st0" d="M81.69,32.66c0,0,0.05,0.44,0.71,0.36s3.37,0.07,3.67,0.03c0.31-0.04,0.89,0.06,0.89,0.06
					s0.06-0.25-0.02-0.35c-0.08-0.1-2.68-1.18-3-1.26c-0.31-0.07-1.04-0.14-1.26-0.09c-0.22,0.05-0.44,0.03-0.63,0.22
					C81.87,31.83,81.56,32.43,81.69,32.66z"/>
			</g>
			<path class="st2" d="M57.75,55.6c0,0-0.76,0.45-1.43-0.69c-0.67-1.13-4.17-5.22-4.48-5.75c-0.3-0.53-1.17-1.34-1.17-1.34
				s0.32-0.39,0.57-0.38c0.25,0,5.1,2.8,5.59,3.2c0.5,0.4,1.48,1.48,1.66,1.88c0.18,0.4,0.49,0.73,0.42,1.26
				C58.84,54.3,58.27,55.53,57.75,55.6z"/>
			<path class="st0" d="M59.86,52c0,0-0.72,0.42-1.34-0.64c-0.63-1.06-3.92-4.9-4.2-5.4s-1.1-1.26-1.1-1.26s0.3-0.37,0.54-0.36
				c0.24,0,4.78,2.63,5.25,3.01c0.46,0.38,1.39,1.39,1.56,1.76c0.17,0.37,0.46,0.69,0.39,1.18S60.34,51.94,59.86,52z"/>
			<path class="st2" d="M61.61,48.41c0,0-0.67,0.39-1.25-0.6c-0.59-0.99-3.66-4.57-3.92-5.04c-0.27-0.47-1.02-1.17-1.02-1.17
				s0.28-0.34,0.5-0.34c0.22,0,4.47,2.45,4.9,2.81c0.43,0.35,1.3,1.29,1.46,1.64c0.16,0.35,0.43,0.64,0.36,1.1
				S62.06,48.35,61.61,48.41z"/>
			<path class="st0" d="M63.54,45.58c0,0-0.62,0.36-1.17-0.56c-0.55-0.92-3.4-4.25-3.64-4.68c-0.25-0.43-0.95-1.09-0.95-1.09
				s0.26-0.32,0.47-0.31c0.2,0,4.15,2.28,4.55,2.61c0.4,0.33,1.2,1.2,1.35,1.53c0.15,0.32,0.4,0.6,0.34,1.03
				C64.43,44.52,63.96,45.52,63.54,45.58z"/>
			<path class="st2" d="M65.98,42.69c0,0-0.6,0.35-1.12-0.54c-0.52-0.89-3.27-4.09-3.51-4.5c-0.24-0.42-0.91-1.05-0.91-1.05
				s0.25-0.3,0.45-0.3c0.2,0,3.99,2.19,4.38,2.51c0.39,0.32,1.16,1.16,1.3,1.47c0.14,0.31,0.38,0.57,0.33,0.99
				C66.84,41.67,66.39,42.63,65.98,42.69z"/>
			<path class="st0" d="M68.55,39.37c0,0-0.55,0.32-1.03-0.49c-0.48-0.82-3.01-3.76-3.23-4.15c-0.22-0.38-0.84-0.97-0.84-0.97
				s0.23-0.28,0.41-0.28c0.18,0,3.68,2.02,4.03,2.31c0.36,0.29,1.07,1.07,1.2,1.35s0.35,0.53,0.3,0.91
				C69.34,38.44,68.93,39.32,68.55,39.37z"/>
			<path class="st2" d="M71.86,36.62c0,0-0.53,0.31-0.99-0.47c-0.46-0.78-2.88-3.6-3.09-3.97c-0.21-0.37-0.81-0.92-0.81-0.92
				s0.22-0.27,0.4-0.27c0.17,0,3.52,1.93,3.86,2.21s1.02,1.02,1.15,1.29c0.12,0.28,0.34,0.51,0.29,0.87
				C72.62,35.72,72.22,36.57,71.86,36.62z"/>
			<path class="st0" d="M73.85,34.41c0,0-0.5,0.29-0.94-0.45c-0.44-0.75-2.75-3.44-2.95-3.79c-0.2-0.35-0.77-0.88-0.77-0.88
				s0.21-0.26,0.38-0.25c0.17,0,3.36,1.84,3.69,2.11c0.33,0.27,0.98,0.97,1.09,1.24c0.12,0.26,0.32,0.48,0.27,0.83
				C74.57,33.55,74.19,34.36,73.85,34.41z"/>
			<path class="st2" d="M76.53,33.16c0,0-0.48,0.28-0.9-0.43c-0.42-0.71-2.62-3.28-2.81-3.61c-0.19-0.33-0.73-0.84-0.73-0.84
				s0.2-0.24,0.36-0.24c0.16,0,3.2,1.76,3.51,2.01c0.31,0.25,0.93,0.93,1.04,1.18s0.31,0.46,0.26,0.79
				C77.21,32.35,76.85,33.12,76.53,33.16z"/>
			<path class="st0" d="M78.9,32.2c0,0-0.46,0.27-0.85-0.41c-0.4-0.68-2.49-3.12-2.67-3.43s-0.7-0.8-0.7-0.8s0.19-0.23,0.34-0.23
				c0.15,0,3.04,1.67,3.34,1.91s0.88,0.88,0.99,1.12c0.11,0.24,0.29,0.44,0.25,0.75C79.55,31.43,79.21,32.16,78.9,32.2z"/>
			<path class="st0" d="M80.75,30.64c0,0-0.41,0.24-0.77-0.37c-0.36-0.61-2.23-2.79-2.4-3.08c-0.16-0.29-0.63-0.72-0.63-0.72
				s0.17-0.21,0.31-0.21c0.13,0,2.73,1.5,2.99,1.71c0.26,0.22,0.79,0.79,0.89,1s0.26,0.39,0.22,0.67
				C81.33,29.95,81.02,30.6,80.75,30.64z"/>
			<path class="st0" d="M82.35,30.58c0,0-0.43-0.11-0.28-0.75c0.16-0.64,0.32-3.35,0.4-3.65c0.08-0.3,0.05-0.89,0.05-0.89
				s0.25-0.03,0.34,0.06c0.09,0.09,0.86,2.8,0.9,3.12s0.02,1.05-0.06,1.26c-0.07,0.21-0.08,0.44-0.29,0.6S82.56,30.73,82.35,30.58z"
				/>
		</g>
		<path class="st3" d="M57.63,57.44c0,0,11.28-27.41,26.69-26.24"/>
	</g>
	<g>
		<g>
			<path class="st1" d="M76.92,62.51c0,0-0.52-0.19-0.81,0.57s-2.01,3.65-2.14,4.01c-0.13,0.36-0.57,0.95-0.57,0.95
				s0.24,0.2,0.39,0.18s2.83-2.26,3.09-2.56c0.26-0.3,0.75-1.06,0.82-1.33c0.07-0.26,0.22-0.5,0.12-0.82
				C77.73,63.19,77.24,62.5,76.92,62.51z"/>
			<path class="st0" d="M79.58,66.5c0,0-0.45-0.17-0.7,0.5c-0.25,0.67-1.75,3.18-1.86,3.49s-0.5,0.82-0.5,0.82s0.21,0.18,0.34,0.15
				s2.47-1.97,2.69-2.23c0.23-0.26,0.65-0.93,0.71-1.16c0.06-0.23,0.19-0.44,0.11-0.71C80.28,67.1,79.86,66.49,79.58,66.5z"/>
			<path class="st1" d="M78.61,64.79c0,0-0.38-0.14-0.6,0.43c-0.22,0.57-1.49,2.71-1.59,2.97c-0.1,0.27-0.43,0.7-0.43,0.7
				s0.18,0.15,0.29,0.13c0.11-0.02,2.1-1.68,2.3-1.9c0.19-0.22,0.56-0.79,0.61-0.99c0.05-0.2,0.16-0.37,0.09-0.61
				S78.85,64.78,78.61,64.79z"/>
			<path class="st0" d="M80.5,69.53c0,0-0.38,0.06-0.29,0.63c0.09,0.57,0.06,2.91,0.11,3.17c0.05,0.26-0.02,0.77-0.02,0.77
				s0.22,0.04,0.3-0.03c0.08-0.07,0.92-2.36,0.98-2.63c0.05-0.27,0.08-0.91,0.03-1.09c-0.05-0.18-0.04-0.38-0.21-0.54
				C81.22,69.66,80.69,69.41,80.5,69.53z"/>
			<path class="st0" d="M78.66,65.25c0,0-0.25-0.38,0.32-0.75c0.57-0.37,2.6-2.26,2.87-2.43c0.27-0.17,0.67-0.63,0.67-0.63
				s0.21,0.16,0.21,0.29c0,0.13-1.33,2.69-1.53,2.95c-0.2,0.26-0.73,0.79-0.93,0.9c-0.2,0.1-0.37,0.27-0.64,0.24
				C79.36,65.79,78.71,65.52,78.66,65.25z"/>
			<path class="st0" d="M80.65,67.58c0,0-0.22-0.34,0.29-0.67c0.51-0.33,2.33-2.03,2.57-2.18s0.6-0.57,0.6-0.57s0.19,0.14,0.19,0.26
				c0,0.12-1.19,2.41-1.37,2.65c-0.18,0.24-0.65,0.71-0.83,0.8c-0.18,0.09-0.33,0.24-0.57,0.22C81.27,68.06,80.7,67.82,80.65,67.58z
				"/>
			<path class="st0" d="M81.34,68.57c0,0,0.08-0.38,0.64-0.27c0.56,0.11,2.91,0.16,3.17,0.21c0.26,0.06,0.77,0.01,0.77,0.01
				s0.03,0.22-0.04,0.3s-2.39,0.84-2.66,0.89s-0.91,0.05-1.09,0c-0.18-0.06-0.38-0.05-0.53-0.23
				C81.45,69.31,81.22,68.76,81.34,68.57z"/>
		</g>
		<g>
			<path class="st0" d="M61.06,58.53c0,0-0.71-0.27-1.12,0.8c-0.4,1.06-2.78,5.06-2.96,5.56c-0.18,0.5-0.8,1.31-0.8,1.31
				s0.33,0.28,0.54,0.24c0.21-0.04,3.93-3.13,4.29-3.55c0.36-0.42,1.04-1.48,1.14-1.84c0.1-0.37,0.31-0.7,0.17-1.13
				C62.19,59.48,61.51,58.52,61.06,58.53z"/>
			<path class="st1" d="M64.47,57.46c0,0-0.69-0.26-1.08,0.77c-0.39,1.03-2.7,4.9-2.87,5.38c-0.17,0.48-0.77,1.27-0.77,1.27
				s0.32,0.28,0.53,0.24c0.21-0.04,3.81-3.04,4.16-3.44c0.35-0.4,1.01-1.43,1.1-1.79c0.09-0.35,0.3-0.68,0.16-1.1
				S64.91,57.44,64.47,57.46z"/>
			<path class="st0" d="M67.75,57.59c0,0-0.67-0.25-1.05,0.75c-0.38,1-2.61,4.74-2.78,5.21c-0.17,0.47-0.75,1.23-0.75,1.23
				s0.31,0.27,0.51,0.23c0.2-0.04,3.69-2.94,4.02-3.33c0.34-0.39,0.98-1.38,1.07-1.73c0.09-0.34,0.29-0.65,0.16-1.06
				C68.81,58.48,68.18,57.58,67.75,57.59z"/>
			<path class="st1" d="M71.36,58.66c0,0-0.65-0.24-1.01,0.72s-2.53,4.59-2.69,5.04c-0.16,0.45-0.72,1.19-0.72,1.19
				s0.3,0.26,0.49,0.22c0.19-0.04,3.56-2.84,3.89-3.22c0.33-0.38,0.95-1.34,1.03-1.67s0.28-0.63,0.15-1.03S71.77,58.65,71.36,58.66z
				"/>
			<path class="st0" d="M74.56,59.96c0,0-0.58-0.22-0.91,0.65c-0.33,0.87-2.27,4.12-2.41,4.52s-0.65,1.07-0.65,1.07
				s0.27,0.23,0.44,0.2c0.17-0.03,3.2-2.55,3.49-2.89s0.85-1.2,0.93-1.5c0.08-0.3,0.25-0.57,0.14-0.92S74.93,59.95,74.56,59.96z"/>
			<path class="st2" d="M60.44,59.5c0,0-0.76,0-0.77-1.13c-0.01-1.14-0.86-5.71-0.86-6.24c0-0.53-0.29-1.51-0.29-1.51
				s0.41-0.15,0.59-0.04c0.19,0.11,2.6,4.3,2.8,4.82c0.2,0.52,0.47,1.75,0.43,2.12c-0.04,0.38,0.05,0.76-0.23,1.12
				C61.82,59.01,60.86,59.67,60.44,59.5z"/>
			<path class="st0" d="M63.14,58.78c0,0-0.69-0.21-0.38-1.23c0.31-1.02,0.81-5.35,0.97-5.83c0.15-0.47,0.16-1.43,0.16-1.43
				s0.41-0.02,0.54,0.13s1.14,4.58,1.17,5.09s-0.07,1.69-0.21,2.02c-0.14,0.33-0.17,0.69-0.52,0.94S63.47,59.05,63.14,58.78z"/>
			<path class="st2" d="M68.06,58.51c0,0-0.64-0.19-0.35-1.15c0.29-0.95,0.76-5,0.9-5.44c0.14-0.44,0.15-1.34,0.15-1.34
				s0.38-0.02,0.51,0.12c0.13,0.14,1.06,4.27,1.09,4.76c0.03,0.48-0.06,1.58-0.19,1.89s-0.16,0.65-0.49,0.88
				C69.34,58.45,68.36,58.75,68.06,58.51z"/>
			<path class="st0" d="M71,58.23c0,0-0.59-0.18-0.33-1.07s0.71-4.65,0.84-5.06c0.13-0.41,0.14-1.24,0.14-1.24s0.35-0.02,0.47,0.11
				c0.12,0.13,0.99,3.97,1.01,4.42c0.03,0.45-0.06,1.47-0.18,1.75s-0.15,0.6-0.45,0.82C72.19,58.17,71.29,58.46,71,58.23z"/>
			<path class="st2" d="M73.39,59.65c0,0-0.57-0.17-0.32-1.03c0.26-0.85,0.68-4.47,0.81-4.86c0.13-0.4,0.13-1.2,0.13-1.2
				s0.34-0.02,0.45,0.11c0.11,0.13,0.95,3.82,0.97,4.25c0.03,0.43-0.06,1.41-0.17,1.69c-0.12,0.27-0.14,0.58-0.44,0.78
				C74.54,59.6,73.67,59.87,73.39,59.65z"/>
			<path class="st0" d="M75.23,60.6c0,0-0.3-0.46,0.39-0.91c0.69-0.45,3.14-2.73,3.46-2.94c0.32-0.2,0.8-0.76,0.8-0.76
				s0.25,0.19,0.25,0.35s-1.61,3.25-1.85,3.57c-0.24,0.32-0.88,0.96-1.12,1.08c-0.24,0.12-0.44,0.32-0.77,0.29
				C76.07,61.24,75.29,60.92,75.23,60.6z"/>
			<path class="st2" d="M77.36,62.95c0,0-0.29-0.44,0.37-0.87s3-2.62,3.31-2.81s0.77-0.73,0.77-0.73s0.24,0.18,0.24,0.33
				s-1.54,3.11-1.77,3.41c-0.23,0.31-0.84,0.92-1.08,1.04c-0.23,0.12-0.42,0.31-0.74,0.28C78.16,63.57,77.41,63.25,77.36,62.95z"/>
			<path class="st3" d="M59.13,59.53c3.76-2.15,14.49-7.9,22.89,11.8"/>
		</g>
	</g>
	<g>
		<g>
			<path class="st0" d="M58.87,60.32c0,0-0.63-0.62-1.56,0.3c-0.93,0.93-5.35,4-5.78,4.44s-1.47,1-1.47,1s0.21,0.46,0.46,0.52
				c0.24,0.06,5.64-1.42,6.22-1.69c0.58-0.27,1.8-1.06,2.08-1.4c0.28-0.34,0.66-0.59,0.72-1.11C59.6,61.85,59.35,60.52,58.87,60.32z
				"/>
			<path class="st1" d="M61.48,63.2c0,0-0.61-0.61-1.51,0.29c-0.9,0.9-5.19,3.88-5.6,4.3c-0.42,0.43-1.42,0.97-1.42,0.97
				s0.21,0.44,0.44,0.5c0.24,0.06,5.47-1.38,6.03-1.64c0.56-0.26,1.75-1.02,2.02-1.35s0.64-0.57,0.7-1.08
				C62.19,64.68,61.95,63.39,61.48,63.2z"/>
			<path class="st0" d="M64.23,66.43c0,0-0.59-0.59-1.46,0.28c-0.88,0.87-5.02,3.75-5.42,4.16c-0.4,0.41-1.38,0.94-1.38,0.94
				s0.2,0.43,0.43,0.48s5.29-1.34,5.84-1.59c0.55-0.25,1.69-0.99,1.95-1.31s0.62-0.55,0.68-1.05
				C64.92,67.86,64.68,66.61,64.23,66.43z"/>
			<path class="st1" d="M67.54,70.52c0,0-0.57-0.57-1.41,0.28s-4.86,3.63-5.24,4.03c-0.39,0.4-1.33,0.91-1.33,0.91
				s0.19,0.42,0.41,0.47c0.22,0.05,5.12-1.29,5.64-1.53c0.53-0.24,1.64-0.96,1.89-1.27c0.25-0.31,0.6-0.53,0.65-1.01
				C68.2,71.91,67.98,70.7,67.54,70.52z"/>
			<path class="st0" d="M68.43,74.8c0,0-0.55-0.55-1.37,0.27c-0.82,0.81-4.69,3.5-5.07,3.89c-0.38,0.38-1.29,0.88-1.29,0.88
				s0.19,0.4,0.4,0.45c0.21,0.05,4.94-1.25,5.45-1.48c0.51-0.23,1.58-0.93,1.82-1.22c0.24-0.3,0.58-0.51,0.63-0.98
				C69.07,76.14,68.85,74.98,68.43,74.8z"/>
			<path class="st0" d="M69.93,77.6c0,0-0.43-0.43-1.08,0.21s-3.69,2.76-3.99,3.06c-0.3,0.3-1.01,0.69-1.01,0.69
				s0.15,0.32,0.32,0.36c0.17,0.04,3.89-0.98,4.29-1.17c0.4-0.18,1.25-0.73,1.44-0.96c0.19-0.23,0.45-0.41,0.5-0.77
				C70.43,78.66,70.26,77.74,69.93,77.6z"/>
			<path class="st0" d="M71.06,80.04c0,0-0.39-0.39-0.98,0.19c-0.59,0.58-3.36,2.51-3.63,2.79c-0.27,0.28-0.92,0.63-0.92,0.63
				s0.13,0.29,0.29,0.32c0.15,0.04,3.54-0.89,3.91-1.06c0.36-0.17,1.13-0.66,1.31-0.88c0.17-0.21,0.41-0.37,0.45-0.7
				C71.52,81,71.36,80.16,71.06,80.04z"/>
			<path class="st0" d="M71.48,83.25c0,0-0.43-0.11-0.6,0.53c-0.17,0.64-1.33,3.1-1.4,3.39s-0.39,0.81-0.39,0.81
				s0.21,0.15,0.33,0.11c0.12-0.04,2.1-2.04,2.29-2.31c0.19-0.26,0.52-0.92,0.56-1.13c0.03-0.22,0.14-0.42,0.03-0.67
				C72.18,83.73,71.74,83.22,71.48,83.25z"/>
			<path class="st2" d="M59.1,59.48c0,0-0.13-0.87,1.17-1.07s6.4-1.92,7.01-2c0.61-0.08,1.68-0.58,1.68-0.58s0.24,0.44,0.14,0.68
				c-0.1,0.23-4.5,3.68-5.07,3.99s-1.92,0.82-2.36,0.84c-0.44,0.02-0.86,0.18-1.32-0.09C59.89,60.98,58.97,59.99,59.1,59.48z"/>
			<path class="st0" d="M61.74,62.37c0,0-0.12-0.82,1.1-1c1.22-0.18,6.01-1.8,6.58-1.88c0.57-0.08,1.58-0.55,1.58-0.55
				s0.23,0.42,0.13,0.63s-4.23,3.45-4.75,3.74c-0.53,0.29-1.81,0.77-2.22,0.79c-0.41,0.02-0.81,0.17-1.24-0.08
				C62.48,63.78,61.62,62.85,61.74,62.37z"/>
			<path class="st2" d="M64.63,65.38c0,0-0.11-0.77,1.03-0.94c1.14-0.17,5.61-1.68,6.14-1.75s1.47-0.51,1.47-0.51
				s0.21,0.39,0.12,0.59s-3.95,3.22-4.44,3.49c-0.49,0.27-1.69,0.72-2.07,0.73s-0.76,0.16-1.16-0.08
				C65.32,66.69,64.52,65.82,64.63,65.38z"/>
			<path class="st0" d="M65.97,68.55c0,0-0.1-0.71,0.95-0.87c1.06-0.16,5.21-1.56,5.71-1.63c0.49-0.07,1.37-0.47,1.37-0.47
				s0.2,0.36,0.12,0.55c-0.08,0.19-3.67,3-4.12,3.25s-1.57,0.67-1.92,0.68c-0.36,0.02-0.7,0.15-1.08-0.07
				C66.62,69.77,65.87,68.96,65.97,68.55z"/>
			<path class="st2" d="M68.1,71.46c0,0-0.1-0.68,0.92-0.84s5.01-1.5,5.49-1.57c0.48-0.06,1.32-0.46,1.32-0.46s0.19,0.35,0.11,0.53
				c-0.08,0.18-3.53,2.88-3.97,3.12s-1.51,0.64-1.85,0.66c-0.34,0.01-0.68,0.14-1.04-0.07S68,71.85,68.1,71.46z"/>
			<path class="st0" d="M68.96,74.92c0,0-0.09-0.63,0.85-0.77c0.94-0.14,4.62-1.38,5.05-1.44c0.44-0.06,1.21-0.42,1.21-0.42
				s0.17,0.32,0.1,0.49s-3.25,2.65-3.65,2.88c-0.4,0.22-1.39,0.59-1.7,0.6c-0.32,0.01-0.62,0.13-0.95-0.06S68.87,75.28,68.96,74.92z
				"/>
			<path class="st2" d="M69.96,77.21c0,0-0.09-0.6,0.81-0.74c0.9-0.14,4.42-1.32,4.84-1.38c0.42-0.06,1.16-0.4,1.16-0.4
				s0.17,0.31,0.1,0.47c-0.07,0.16-3.11,2.54-3.49,2.75c-0.39,0.21-1.33,0.57-1.63,0.58c-0.3,0.01-0.6,0.12-0.91-0.06
				C70.51,78.24,69.87,77.56,69.96,77.21z"/>
			<path class="st0" d="M72.06,82.51c0,0-0.08-0.58,0.77-0.71c0.86-0.13,4.22-1.26,4.62-1.32c0.4-0.05,1.11-0.38,1.11-0.38
				s0.16,0.29,0.09,0.44c-0.06,0.15-2.97,2.43-3.34,2.63c-0.37,0.2-1.27,0.54-1.56,0.55c-0.29,0.01-0.57,0.12-0.87-0.06
				C72.58,83.5,71.98,82.84,72.06,82.51z"/>
			<path class="st0" d="M71.15,79.9c0,0-0.08-0.52,0.7-0.64c0.78-0.12,3.82-1.14,4.19-1.19c0.36-0.05,1-0.35,1-0.35
				s0.14,0.27,0.08,0.4c-0.06,0.14-2.69,2.2-3.02,2.38c-0.33,0.18-1.15,0.49-1.41,0.5c-0.26,0.01-0.52,0.11-0.79-0.05
				S71.07,80.2,71.15,79.9z"/>
			<path class="st0" d="M73.63,84.12c0,0,0.26-0.36,0.8,0.02c0.54,0.39,2.99,1.56,3.24,1.74s0.81,0.38,0.81,0.38
				s-0.07,0.24-0.19,0.29s-2.92-0.25-3.23-0.34c-0.31-0.09-0.98-0.38-1.15-0.53c-0.16-0.15-0.37-0.24-0.45-0.5
				S73.41,84.26,73.63,84.12z"/>
		</g>
		<path class="st3" d="M57.55,59.21c4.29,2.73,9.46,7.94,15.32,25.63"/>
	</g>
	<g>
		<g>
			<path class="st1" d="M47.55,61.32c0,0,0.83,0.2,0.54,1.44c-0.29,1.24-0.58,6.45-0.73,7.03c-0.14,0.58-0.08,1.72-0.08,1.72
				s-0.49,0.06-0.66-0.12c-0.17-0.17-1.69-5.38-1.76-5.99c-0.07-0.62-0.04-2.03,0.1-2.43s0.15-0.84,0.55-1.16
				C45.91,61.5,47.14,61.03,47.55,61.32z"/>
			<path class="st0" d="M51.34,61.82c0,0,0.73,0.39,0.16,1.48c-0.57,1.09-2.09,5.91-2.37,6.41c-0.27,0.51-0.49,1.59-0.49,1.59
				s-0.47-0.06-0.59-0.27c-0.12-0.2-0.29-5.45-0.22-6.04c0.08-0.59,0.45-1.91,0.67-2.25s0.34-0.75,0.8-0.95
				C49.76,61.59,51.03,61.45,51.34,61.82z"/>
			<path class="st1" d="M41.97,61.45c0,0,0.78,0.19,0.51,1.35c-0.27,1.16-0.54,6.04-0.68,6.58c-0.14,0.54-0.08,1.61-0.08,1.61
				s-0.45,0.05-0.62-0.11s-1.58-5.03-1.65-5.61c-0.07-0.58-0.04-1.9,0.09-2.27s0.14-0.79,0.52-1.09
				C40.44,61.61,41.59,61.17,41.97,61.45z"/>
			<path class="st0" d="M44.35,61.88c0,0,0.75,0.18,0.49,1.3c-0.26,1.12-0.53,5.83-0.66,6.35c-0.13,0.52-0.07,1.56-0.07,1.56
				s-0.44,0.05-0.6-0.1c-0.16-0.16-1.53-4.86-1.6-5.42c-0.07-0.56-0.04-1.83,0.09-2.19c0.13-0.36,0.14-0.76,0.5-1.05
				C42.87,62.04,43.98,61.62,44.35,61.88z"/>
			<path class="st1" d="M34.56,62.61c0,0,0.72-0.21,1.04,0.85c0.32,1.06,2.39,5.12,2.53,5.62s0.69,1.33,0.69,1.33
				s-0.34,0.26-0.55,0.2c-0.21-0.05-3.63-3.32-3.95-3.75s-0.92-1.51-0.99-1.87s-0.25-0.7-0.09-1.12
				C33.4,63.46,34.12,62.57,34.56,62.61z"/>
			<path class="st0" d="M38.71,61.25c0,0,0.7,0.17,0.45,1.21c-0.24,1.04-0.49,5.42-0.61,5.9s-0.07,1.45-0.07,1.45
				s-0.41,0.05-0.55-0.1c-0.14-0.14-1.42-4.52-1.48-5.03s-0.04-1.7,0.08-2.04c0.12-0.34,0.13-0.71,0.47-0.97
				C37.34,61.4,38.37,61,38.71,61.25z"/>
			<path class="st1" d="M29.43,66.19c0,0,0.61-0.18,0.89,0.72c0.28,0.91,2.04,4.37,2.16,4.79s0.59,1.14,0.59,1.14
				s-0.29,0.22-0.47,0.17s-3.1-2.83-3.37-3.2c-0.28-0.37-0.79-1.29-0.84-1.6c-0.06-0.31-0.22-0.6-0.08-0.95
				C28.45,66.91,29.06,66.15,29.43,66.19z"/>
			<path class="st0" d="M31.54,63.81c0,0,0.58-0.18,0.85,0.69c0.26,0.87,1.95,4.18,2.06,4.59c0.12,0.41,0.56,1.09,0.56,1.09
				s-0.28,0.21-0.45,0.16s-2.96-2.71-3.23-3.06s-0.75-1.23-0.81-1.53c-0.06-0.3-0.21-0.57-0.07-0.91
				C30.59,64.5,31.18,63.77,31.54,63.81z"/>
			<path class="st0" d="M28.24,69.29c0,0,0.43,0.1,0.28,0.75s-0.3,3.36-0.37,3.66c-0.07,0.3-0.04,0.9-0.04,0.9s-0.25,0.03-0.34-0.06
				s-0.88-2.79-0.92-3.11c-0.04-0.32-0.03-1.05,0.05-1.26c0.07-0.21,0.08-0.44,0.29-0.6C27.39,69.39,28.03,69.14,28.24,69.29z"/>
			<path class="st2" d="M51.42,60.97c0,0,0.53-0.71-0.53-1.5c-1.05-0.79-4.73-4.72-5.23-5.08c-0.5-0.36-1.2-1.31-1.2-1.31
				s-0.42,0.28-0.44,0.53c-0.02,0.25,2.22,5.38,2.57,5.91c0.35,0.54,1.31,1.63,1.68,1.86c0.38,0.22,0.68,0.57,1.21,0.55
				S51.29,61.48,51.42,60.97z"/>
			<path class="st0" d="M46.36,61.61c0,0,0.49-0.67-0.49-1.41c-0.99-0.74-4.44-4.43-4.9-4.76c-0.47-0.34-1.13-1.23-1.13-1.23
				s-0.4,0.26-0.42,0.49c-0.02,0.23,2.09,5.04,2.41,5.54c0.33,0.5,1.23,1.53,1.58,1.74c0.35,0.21,0.63,0.53,1.13,0.52
				S46.24,62.08,46.36,61.61z"/>
			<path class="st0" d="M40.09,61.04c0,0,0.43-0.58-0.43-1.22c-0.86-0.64-3.85-3.84-4.26-4.13c-0.4-0.29-0.98-1.06-0.98-1.06
				s-0.34,0.23-0.36,0.43c-0.02,0.2,1.81,4.38,2.09,4.81c0.28,0.44,1.06,1.33,1.37,1.51c0.31,0.18,0.55,0.46,0.98,0.45
				C38.95,61.81,39.99,61.45,40.09,61.04z"/>
			<path class="st2" d="M35.89,61.82c0,0,0.41-0.56-0.41-1.17c-0.82-0.62-3.71-3.7-4.09-3.98c-0.39-0.28-0.94-1.02-0.94-1.02
				s-0.33,0.22-0.35,0.41c-0.02,0.2,1.74,4.21,2.01,4.63c0.27,0.42,1.02,1.28,1.32,1.45c0.29,0.17,0.53,0.44,0.95,0.43
				S35.79,62.21,35.89,61.82z"/>
			<path class="st2" d="M33.17,63.11c0,0,0.36-0.49-0.36-1.03c-0.73-0.54-3.27-3.26-3.61-3.5c-0.34-0.25-0.83-0.9-0.83-0.9
				s-0.29,0.19-0.31,0.36c-0.02,0.17,1.54,3.71,1.78,4.08c0.24,0.37,0.9,1.13,1.16,1.28c0.26,0.15,0.47,0.39,0.83,0.38
				C32.2,63.77,33.08,63.46,33.17,63.11z"/>
			<path class="st2" d="M29.61,65.2c0,0,0.33-0.45-0.33-0.94c-0.66-0.5-2.97-2.96-3.28-3.19c-0.31-0.23-0.76-0.82-0.76-0.82
				s-0.27,0.17-0.28,0.33s1.4,3.38,1.62,3.71c0.22,0.34,0.82,1.03,1.06,1.17s0.42,0.36,0.76,0.35C28.72,65.8,29.52,65.52,29.61,65.2
				z"/>
			<path class="st0" d="M28.04,67.56c0,0,0.31-0.42-0.31-0.89c-0.63-0.47-2.83-2.82-3.12-3.03c-0.3-0.22-0.72-0.78-0.72-0.78
				s-0.25,0.17-0.27,0.31c-0.01,0.15,1.33,3.21,1.54,3.53c0.21,0.32,0.78,0.97,1.01,1.11c0.22,0.13,0.4,0.34,0.72,0.33
				S27.96,67.86,28.04,67.56z"/>
			<path class="st0" d="M26.25,69.38c0,0-0.06-0.44-0.72-0.36c-0.66,0.08-3.37-0.04-3.67,0c-0.31,0.04-0.89-0.05-0.89-0.05
				s-0.06,0.25,0.02,0.35c0.08,0.1,2.69,1.16,3.01,1.23s1.05,0.13,1.26,0.08s0.44-0.03,0.63-0.22
				C26.07,70.22,26.38,69.61,26.25,69.38z"/>
		</g>
		<path class="st3" d="M49.77,62.07c0,0-18.73-3.99-23.9,9.18"/>
	</g>
	<g>
		<path class="st0" d="M52.05,60.46c0,0,0.67-0.57,1.53,0.43c0.85,1,5.01,4.43,5.4,4.9c0.39,0.47,1.38,1.12,1.38,1.12
			s-0.25,0.44-0.5,0.48s-5.5-1.88-6.06-2.2c-0.56-0.31-1.71-1.2-1.96-1.56s-0.61-0.64-0.63-1.17C51.2,61.92,51.56,60.62,52.05,60.46
			z"/>
		<path class="st1" d="M48.39,62.01c0,0,0.65-0.55,1.48,0.42c0.83,0.97,4.85,4.29,5.23,4.75c0.38,0.46,1.34,1.09,1.34,1.09
			s-0.24,0.43-0.48,0.46c-0.24,0.04-5.33-1.82-5.87-2.13s-1.66-1.17-1.9-1.52c-0.24-0.35-0.59-0.62-0.61-1.13
			C47.57,63.43,47.91,62.17,48.39,62.01z"/>
		<path class="st0" d="M45.92,64.21c0,0,0.63-0.54,1.43,0.4c0.8,0.94,4.7,4.15,5.06,4.6c0.37,0.44,1.3,1.05,1.3,1.05
			s-0.23,0.41-0.47,0.45c-0.23,0.04-5.16-1.77-5.69-2.06c-0.52-0.29-1.61-1.13-1.84-1.47c-0.23-0.34-0.57-0.6-0.59-1.1
			S45.46,64.36,45.92,64.21z"/>
		<path class="st1" d="M44.2,65.36c0,0,0.61-0.52,1.39,0.39c0.77,0.91,4.54,4.02,4.9,4.44c0.35,0.43,1.25,1.02,1.25,1.02
			s-0.23,0.4-0.45,0.43s-4.99-1.71-5.5-1.99c-0.51-0.28-1.55-1.09-1.78-1.42c-0.22-0.33-0.55-0.58-0.57-1.06
			C43.42,66.69,43.75,65.51,44.2,65.36z"/>
		<path class="st0" d="M42.75,67.53c0,0,0.59-0.5,1.34,0.38s4.39,3.88,4.73,4.29c0.34,0.41,1.21,0.98,1.21,0.98
			s-0.22,0.38-0.44,0.42s-4.82-1.65-5.31-1.92c-0.49-0.28-1.5-1.05-1.72-1.37c-0.22-0.32-0.53-0.56-0.55-1.02
			C42,68.81,42.31,67.67,42.75,67.53z"/>
		<path class="st1" d="M40.51,71.6c0,0,0.57-0.48,1.29,0.36s4.23,3.74,4.56,4.14c0.33,0.4,1.17,0.95,1.17,0.95s-0.21,0.37-0.42,0.4
			c-0.21,0.03-4.65-1.59-5.12-1.86s-1.45-1.02-1.65-1.32c-0.21-0.31-0.51-0.54-0.53-0.99S40.09,71.73,40.51,71.6z"/>
		<path class="st0" d="M39.71,74.36c0,0,0.55-0.46,1.24,0.35s4.08,3.6,4.39,3.99c0.32,0.38,1.12,0.91,1.12,0.91s-0.2,0.36-0.41,0.39
			s-4.48-1.53-4.93-1.79c-0.45-0.26-1.39-0.98-1.59-1.27c-0.2-0.29-0.49-0.52-0.51-0.95C39.02,75.56,39.31,74.49,39.71,74.36z"/>
		<path class="st0" d="M38.8,76.79c0,0,0.53-0.45,1.2,0.34c0.67,0.78,3.92,3.47,4.23,3.84c0.31,0.37,1.08,0.88,1.08,0.88
			s-0.2,0.34-0.39,0.37c-0.19,0.03-4.31-1.47-4.75-1.72s-1.34-0.94-1.53-1.22s-0.48-0.5-0.49-0.92
			C38.14,77.93,38.42,76.91,38.8,76.79z"/>
		<path class="st1" d="M38.2,79.77c0,0,0.49-0.41,1.1,0.31c0.62,0.72,3.61,3.19,3.89,3.53s1,0.81,1,0.81s-0.18,0.32-0.36,0.34
			c-0.18,0.03-3.97-1.36-4.37-1.58c-0.4-0.23-1.23-0.87-1.41-1.13c-0.18-0.26-0.44-0.46-0.45-0.84
			C37.59,80.83,37.85,79.89,38.2,79.77z"/>
		<path class="st0" d="M41.96,69.98c0,0,0.47-0.39,1.05,0.3s3.45,3.05,3.72,3.38s0.95,0.77,0.95,0.77s-0.17,0.3-0.34,0.33
			c-0.17,0.03-3.8-1.3-4.18-1.52c-0.38-0.22-1.18-0.83-1.35-1.08c-0.17-0.25-0.42-0.44-0.43-0.81
			C41.37,70.99,41.62,70.09,41.96,69.98z"/>
		<path class="st0" d="M36.68,81.86c0,0,0.42-0.36,0.96,0.27c0.54,0.63,3.14,2.78,3.39,3.08s0.87,0.7,0.87,0.7s-0.16,0.28-0.31,0.3
			s-3.46-1.18-3.81-1.38c-0.35-0.2-1.07-0.75-1.23-0.98s-0.38-0.4-0.39-0.73C36.15,82.78,36.37,81.96,36.68,81.86z"/>
		<path class="st0" d="M36.15,85.83c0,0,0.44-0.08,0.56,0.57c0.12,0.65,1.07,3.19,1.12,3.5c0.05,0.3,0.32,0.84,0.32,0.84
			s-0.22,0.13-0.34,0.08s-1.93-2.21-2.09-2.49s-0.44-0.96-0.46-1.18c-0.02-0.22-0.1-0.43,0.02-0.67
			C35.41,86.26,35.9,85.78,36.15,85.83z"/>
		<path class="st2" d="M54.28,59.34c0,0,0.4-0.79-0.78-1.38c-1.17-0.59-5.48-3.83-6.03-4.09c-0.55-0.27-1.41-1.08-1.41-1.08
			s-0.37,0.35-0.35,0.6c0.02,0.25,3.13,4.91,3.56,5.37c0.44,0.47,1.57,1.38,1.98,1.54c0.41,0.15,0.76,0.44,1.28,0.33
			C53.05,60.52,54.24,59.86,54.28,59.34z"/>
		<path class="st0" d="M51.24,60.82c0,0,0.19-0.81-1.01-1.09c-1.2-0.28-5.84-2.29-6.4-2.41c-0.56-0.12-1.53-0.67-1.53-0.67
			s-0.26,0.4-0.18,0.62c0.07,0.22,3.93,3.79,4.43,4.12c0.5,0.33,1.74,0.91,2.14,0.97c0.41,0.05,0.79,0.23,1.24,0.02
			C50.39,62.16,51.32,61.3,51.24,60.82z"/>
		<path class="st2" d="M46.49,62.62c0,0,0.18-0.75-0.95-1.02s-5.45-2.13-5.98-2.25c-0.52-0.12-1.42-0.63-1.42-0.63
			s-0.24,0.37-0.17,0.58s3.67,3.54,4.13,3.85c0.47,0.31,1.62,0.85,2,0.9c0.38,0.05,0.74,0.22,1.16,0.02
			C45.69,63.87,46.57,63.07,46.49,62.62z"/>
		<path class="st0" d="M43.97,65.48c0,0,0.16-0.7-0.88-0.95c-1.04-0.25-5.07-1.98-5.55-2.09s-1.32-0.58-1.32-0.58
			s-0.22,0.34-0.16,0.54c0.06,0.19,3.41,3.29,3.84,3.57c0.43,0.29,1.51,0.79,1.86,0.84c0.35,0.04,0.69,0.2,1.08,0.02
			S44.04,65.9,43.97,65.48z"/>
		<path class="st2" d="M42.1,68.44c0,0,0.16-0.67-0.85-0.91s-4.87-1.91-5.34-2.01s-1.27-0.56-1.27-0.56s-0.22,0.33-0.15,0.52
			c0.06,0.19,3.28,3.16,3.7,3.44s1.45,0.76,1.79,0.81c0.34,0.04,0.66,0.19,1.04,0.02C41.38,69.56,42.16,68.84,42.1,68.44z"/>
		<path class="st0" d="M40.89,71.64c0,0,0.14-0.62-0.78-0.84c-0.92-0.22-4.49-1.76-4.92-1.85s-1.17-0.52-1.17-0.52
			s-0.2,0.3-0.14,0.48s3.02,2.91,3.4,3.17c0.38,0.25,1.33,0.7,1.65,0.74c0.31,0.04,0.61,0.18,0.96,0.02S40.95,72.01,40.89,71.64z"/>
		<path class="st2" d="M39.6,74.53c0,0,0.14-0.59-0.75-0.8c-0.88-0.21-4.29-1.68-4.71-1.77s-1.12-0.5-1.12-0.5s-0.19,0.29-0.14,0.46
			c0.05,0.16,2.89,2.79,3.26,3.03c0.37,0.24,1.28,0.67,1.58,0.71c0.3,0.04,0.58,0.17,0.92,0.02C38.97,75.52,39.65,74.89,39.6,74.53z
			"/>
		<path class="st0" d="M38.29,77.43c0,0,0.13-0.57-0.71-0.77s-4.1-1.61-4.5-1.69c-0.39-0.09-1.07-0.47-1.07-0.47
			s-0.18,0.28-0.13,0.44s2.76,2.66,3.11,2.89c0.35,0.23,1.22,0.64,1.51,0.68s0.56,0.16,0.87,0.02
			C37.68,78.37,38.34,77.77,38.29,77.43z"/>
		<path class="st2" d="M38.13,79.87c0,0,0.13-0.54-0.68-0.73s-3.91-1.53-4.28-1.61c-0.38-0.08-1.02-0.45-1.02-0.45
			s-0.17,0.27-0.12,0.42c0.05,0.15,2.63,2.54,2.96,2.76c0.34,0.22,1.16,0.61,1.44,0.65c0.27,0.03,0.53,0.16,0.83,0.01
			S38.19,80.2,38.13,79.87z"/>
		<path class="st0" d="M36.52,81.85c0,0,0.12-0.51-0.64-0.69c-0.76-0.18-3.72-1.45-4.07-1.53c-0.36-0.08-0.97-0.43-0.97-0.43
			s-0.16,0.25-0.12,0.39c0.05,0.14,2.5,2.41,2.82,2.62c0.32,0.21,1.1,0.58,1.36,0.61c0.26,0.03,0.51,0.15,0.79,0.01
			C35.98,82.7,36.57,82.15,36.52,81.85z"/>
		<path class="st0" d="M35.92,83.38c0,0,0.11-0.46-0.58-0.62s-3.33-1.3-3.65-1.37C31.37,81.31,30.82,81,30.82,81
			s-0.15,0.23-0.11,0.35s2.24,2.16,2.52,2.35s0.99,0.52,1.22,0.55c0.23,0.03,0.45,0.13,0.71,0.01
			C35.43,84.14,35.96,83.65,35.92,83.38z"/>
		<path class="st0" d="M34.77,84.55c0,0-0.23-0.38-0.8-0.04c-0.57,0.34-3.1,1.3-3.37,1.47c-0.26,0.16-0.84,0.31-0.84,0.31
			s0.05,0.25,0.16,0.31c0.11,0.06,2.93-0.01,3.25-0.07s1.01-0.3,1.19-0.43c0.18-0.13,0.39-0.21,0.49-0.46
			C34.94,85.39,34.98,84.71,34.77,84.55z"/>
		<path class="st3" d="M55.67,60.28c-5.95,2.54-10.63-0.1-15.02,11.61s-5.56,14.63-5.56,14.63"/>
	</g>
	<g>
		<path class="st0" d="M48.27,62.48c0,0,0.6,0.65-0.37,1.55c-0.97,0.89-4.22,5.19-4.67,5.6c-0.46,0.41-1.06,1.43-1.06,1.43
			s-0.45-0.23-0.5-0.48c-0.05-0.25,1.65-5.58,1.94-6.15c0.29-0.57,1.13-1.76,1.48-2.02c0.35-0.26,0.61-0.63,1.14-0.67
			C46.77,61.69,48.09,62,48.27,62.48z"/>
		<path class="st1" d="M45.6,59.93c0,0,0.58,0.63-0.36,1.5c-0.94,0.87-4.09,5.02-4.53,5.42s-1.03,1.38-1.03,1.38
			s-0.43-0.22-0.48-0.46s1.6-5.4,1.88-5.96s1.1-1.71,1.44-1.96c0.34-0.25,0.59-0.61,1.11-0.65C44.15,59.16,45.42,59.46,45.6,59.93z"
			/>
		<path class="st0" d="M43.57,57.89c0,0,0.56,0.61-0.34,1.45s-3.95,4.86-4.38,5.25c-0.43,0.38-1,1.34-1,1.34s-0.42-0.22-0.47-0.45
			c-0.05-0.23,1.55-5.23,1.82-5.77c0.27-0.53,1.06-1.65,1.39-1.9s0.58-0.59,1.07-0.63C42.16,57.15,43.4,57.43,43.57,57.89z"/>
		<path class="st1" d="M40.39,56.47c0,0,0.54,0.59-0.33,1.4c-0.88,0.81-3.82,4.7-4.24,5.08c-0.41,0.37-0.96,1.29-0.96,1.29
			s-0.41-0.21-0.45-0.43c-0.04-0.22,1.5-5.06,1.76-5.58c0.26-0.52,1.03-1.6,1.34-1.83c0.32-0.24,0.56-0.57,1.04-0.61
			C39.03,55.76,40.23,56.03,40.39,56.47z"/>
		<path class="st0" d="M38.67,54.7c0,0,0.52,0.57-0.32,1.35c-0.85,0.78-3.69,4.54-4.09,4.9s-0.93,1.25-0.93,1.25
			s-0.39-0.2-0.44-0.42s1.45-4.89,1.7-5.38c0.25-0.5,0.99-1.54,1.3-1.77c0.31-0.23,0.54-0.55,1-0.59
			C37.36,54.01,38.52,54.27,38.67,54.7z"/>
		<path class="st1" d="M34.91,52.65c0,0,0.51,0.55-0.31,1.31s-3.56,4.38-3.95,4.73c-0.39,0.35-0.9,1.21-0.9,1.21s-0.38-0.2-0.42-0.4
			s1.4-4.71,1.64-5.19s0.96-1.49,1.25-1.71c0.3-0.22,0.52-0.54,0.97-0.57S34.76,52.24,34.91,52.65z"/>
		<path class="st0" d="M32.01,51.01c0,0,0.49,0.53-0.3,1.26c-0.79,0.73-3.43,4.22-3.8,4.55c-0.37,0.33-0.86,1.16-0.86,1.16
			s-0.37-0.19-0.4-0.39c-0.04-0.2,1.35-4.54,1.58-5s0.92-1.43,1.21-1.65s0.5-0.52,0.93-0.55C30.79,50.36,31.86,50.61,32.01,51.01z"
			/>
		<path class="st0" d="M29.91,49.21c0,0,0.47,0.51-0.29,1.21c-0.76,0.7-3.3,4.06-3.66,4.38s-0.83,1.12-0.83,1.12
			s-0.35-0.18-0.39-0.37c-0.04-0.19,1.3-4.37,1.52-4.81c0.23-0.45,0.89-1.38,1.16-1.58c0.28-0.2,0.48-0.5,0.9-0.53
			C28.74,48.59,29.77,48.83,29.91,49.21z"/>
		<path class="st1" d="M27.36,48.13c0,0,0.43,0.47-0.26,1.11c-0.7,0.65-3.04,3.74-3.37,4.03s-0.77,1.03-0.77,1.03
			s-0.32-0.17-0.36-0.34c-0.04-0.18,1.19-4.02,1.4-4.43c0.21-0.41,0.82-1.27,1.07-1.46c0.25-0.19,0.44-0.46,0.82-0.49
			C26.28,47.55,27.23,47.77,27.36,48.13z"/>
		<path class="st0" d="M36.59,53.71c0,0,0.41,0.45-0.25,1.07c-0.67,0.62-2.91,3.58-3.22,3.86c-0.31,0.28-0.73,0.98-0.73,0.98
			s-0.31-0.16-0.34-0.33c-0.03-0.17,1.14-3.85,1.34-4.24c0.2-0.39,0.78-1.21,1.02-1.39c0.24-0.18,0.42-0.44,0.79-0.46
			C35.56,53.17,36.47,53.38,36.59,53.71z"/>
		<path class="st0" d="M24.55,46.7c0,0,0.38,0.41-0.23,0.97s-2.65,3.26-2.93,3.51s-0.67,0.9-0.67,0.9s-0.28-0.15-0.31-0.3
			c-0.03-0.15,1.04-3.5,1.22-3.86s0.71-1.11,0.93-1.27c0.22-0.16,0.39-0.4,0.72-0.42C23.61,46.2,24.44,46.39,24.55,46.7z"/>
		<path class="st1" d="M21.25,45.62c0,0,0.32,0.35-0.2,0.83s-2.26,2.77-2.5,2.99s-0.57,0.76-0.57,0.76s-0.24-0.12-0.27-0.26
			c-0.03-0.13,0.88-2.98,1.04-3.29s0.6-0.94,0.79-1.08c0.19-0.14,0.33-0.34,0.61-0.36C20.45,45.19,21.15,45.36,21.25,45.62z"/>
		<path class="st0" d="M18.88,45.36c0,0,0.1,0.43-0.55,0.58c-0.65,0.15-3.15,1.2-3.45,1.26s-0.82,0.35-0.82,0.35
			s-0.14-0.21-0.1-0.33c0.04-0.12,2.13-2.02,2.4-2.19c0.27-0.18,0.94-0.48,1.16-0.51s0.43-0.12,0.67-0.01
			C18.43,44.64,18.93,45.11,18.88,45.36z"/>
		<path class="st2" d="M48.66,61.66c0,0,0.87,0.16,1.12-1.13c0.25-1.29,2.18-6.32,2.28-6.92c0.11-0.6,0.65-1.65,0.65-1.65
			s-0.43-0.26-0.67-0.17c-0.24,0.09-3.86,4.35-4.19,4.9c-0.33,0.55-0.9,1.89-0.93,2.33s-0.21,0.86,0.03,1.33
			C47.2,60.8,48.15,61.76,48.66,61.66z"/>
		<path class="st0" d="M45.47,58.98c0,0,0.81,0.15,1.05-1.06c0.23-1.21,2.04-5.93,2.14-6.49c0.1-0.57,0.61-1.55,0.61-1.55
			s-0.41-0.24-0.63-0.16c-0.22,0.08-3.62,4.08-3.93,4.59s-0.84,1.77-0.88,2.18s-0.2,0.8,0.03,1.24C44.1,58.17,45,59.07,45.47,58.98z
			"/>
		<path class="st2" d="M42.61,56.18c0,0,0.76,0.14,0.98-0.99c0.22-1.13,1.91-5.54,2-6.06s0.57-1.45,0.57-1.45s-0.38-0.23-0.59-0.15
			c-0.21,0.08-3.38,3.81-3.67,4.29c-0.29,0.48-0.79,1.66-0.82,2.04s-0.19,0.75,0.03,1.16C41.33,55.44,42.17,56.28,42.61,56.18z"/>
		<path class="st0" d="M39.84,54.16c0,0,0.71,0.13,0.91-0.92s1.77-5.14,1.86-5.64c0.09-0.49,0.53-1.35,0.53-1.35
			s-0.35-0.21-0.54-0.14c-0.19,0.07-3.14,3.54-3.41,3.99c-0.27,0.45-0.73,1.54-0.76,1.89s-0.17,0.7,0.03,1.08
			C38.65,53.47,39.43,54.25,39.84,54.16z"/>
		<path class="st2" d="M36.67,52.8c0,0,0.68,0.13,0.88-0.88c0.2-1.01,1.71-4.95,1.79-5.42c0.08-0.47,0.51-1.3,0.51-1.3
			s-0.34-0.2-0.52-0.13c-0.18,0.07-3.02,3.41-3.28,3.83c-0.26,0.43-0.7,1.48-0.73,1.82s-0.17,0.67,0.02,1.04
			C35.52,52.13,36.27,52.88,36.67,52.8z"/>
		<path class="st0" d="M33.41,51.04c0,0,0.63,0.12,0.81-0.81s1.57-4.56,1.65-4.99c0.08-0.44,0.47-1.19,0.47-1.19
			s-0.31-0.19-0.48-0.12s-2.79,3.14-3.02,3.53s-0.65,1.36-0.67,1.68s-0.15,0.62,0.02,0.96C32.35,50.42,33.04,51.12,33.41,51.04z"/>
		<path class="st2" d="M30.64,48.74c0,0,0.6,0.11,0.77-0.78c0.17-0.89,1.5-4.36,1.58-4.78c0.07-0.42,0.45-1.14,0.45-1.14
			s-0.3-0.18-0.46-0.12c-0.16,0.06-2.67,3-2.89,3.38c-0.23,0.38-0.62,1.3-0.64,1.6c-0.03,0.3-0.15,0.59,0.02,0.92
			C29.63,48.15,30.29,48.81,30.64,48.74z"/>
		<path class="st0" d="M28.29,47.24c0,0,0.57,0.11,0.74-0.74c0.16-0.85,1.43-4.16,1.51-4.56c0.07-0.4,0.43-1.09,0.43-1.09
			s-0.29-0.17-0.44-0.11s-2.55,2.87-2.76,3.23c-0.22,0.36-0.59,1.25-0.62,1.53s-0.14,0.56,0.02,0.87
			C27.32,46.67,27.95,47.31,28.29,47.24z"/>
		<path class="st2" d="M25.51,47.28c0,0,0.55,0.1,0.7-0.71c0.16-0.81,1.37-3.97,1.43-4.35c0.07-0.38,0.41-1.04,0.41-1.04
			s-0.27-0.16-0.42-0.11s-2.43,2.73-2.63,3.08s-0.56,1.19-0.59,1.46c-0.02,0.27-0.13,0.54,0.02,0.83
			C24.59,46.74,25.19,47.34,25.51,47.28z"/>
		<path class="st0" d="M23.83,45.67c0,0,0.52,0.1,0.67-0.67s1.3-3.77,1.36-4.13s0.39-0.99,0.39-0.99s-0.26-0.15-0.4-0.1
			c-0.14,0.05-2.31,2.6-2.5,2.92c-0.2,0.33-0.54,1.13-0.56,1.39s-0.13,0.51,0.02,0.79C22.96,45.16,23.53,45.74,23.83,45.67z"/>
		<path class="st0" d="M22.09,44.57c0,0,0.46,0.09,0.6-0.6c0.13-0.69,1.16-3.38,1.22-3.7c0.06-0.32,0.35-0.89,0.35-0.89
			s-0.23-0.14-0.36-0.09c-0.13,0.05-2.07,2.33-2.24,2.62s-0.48,1.01-0.5,1.24s-0.11,0.46,0.02,0.71
			C21.3,44.12,21.81,44.63,22.09,44.57z"/>
		<path class="st0" d="M20.42,44.01c0,0,0.37-0.25,0.01-0.8c-0.36-0.55-1.43-3.05-1.61-3.3c-0.17-0.26-0.35-0.83-0.35-0.83
			s-0.25,0.06-0.3,0.17c-0.05,0.11,0.13,2.93,0.2,3.24c0.07,0.31,0.34,1,0.48,1.17c0.14,0.17,0.22,0.38,0.48,0.47
			C19.59,44.21,20.27,44.23,20.42,44.01z"/>
		<path class="st3" d="M49.77,62.88c-7.66-6-19.08-14.02-30.64-18.82"/>
	</g>
</g>
</svg>
