<?xml version="1.0" encoding="utf-8"?>
<!-- Generator: Adobe Illustrator 27.3.1, SVG Export Plug-In . SVG Version: 6.00 Build 0)  -->
<svg version="1.1" id="Layer_1" xmlns="http://www.w3.org/2000/svg" xmlns:xlink="http://www.w3.org/1999/xlink" x="0px" y="0px"
	 viewBox="0 0 108 108" style="enable-background:new 0 0 108 108;" xml:space="preserve">
<style type="text/css">
	.st0{fill:#7BB442;}
	.st1{fill:#63AA43;}
	.st2{fill:#5A9B3C;}
	.st3{fill:#5DA13E;}
	.st4{fill:#4F9A3E;}
	.st5{fill:#619B3E;}
	.st6{fill:#6D9D3B;}
	.st7{fill:#5C9F3E;}
	.st8{fill:#ED1D24;}
	.st9{fill:none;stroke:#708430;stroke-width:0.7832;stroke-miterlimit:10;}
	.st10{fill:#A5C239;}
	.st11{fill:#83B43B;}
	.st12{fill:#90BB3A;}
	.st13{fill:#73AA3A;}
	.st14{fill:#91B73E;}
	.st15{fill:#A5BD39;}
	.st16{fill:#A4C839;}
	.st17{fill:#AFCB36;}
	.st18{fill:#FFFEF9;}
	.st19{fill:#E4E6E3;}
	.st20{fill:#E7EEEE;}
	.st21{fill:#F6F5F1;}
	.st22{fill:#FFFFFF;}
</style>
<g>
	<path class="st0" d="M43.3,38.9c0,4.5-3.6,8.1-8.1,8.1s-8.1-3.6-8.1-8.1c0-4.5,3.6-8.1,8.1-8.1S43.3,34.4,43.3,38.9"/>
	<path class="st0" d="M50.4,31.3c0,4.5-3.6,8.1-8.1,8.1s-8.1-3.6-8.1-8.1c0-4.5,3.6-8.1,8.1-8.1S50.4,26.8,50.4,31.3"/>
	<path class="st0" d="M58.4,26.6c0,4.5-3.6,8.1-8.1,8.1s-8.1-3.6-8.1-8.1c0-4.5,3.6-8.1,8.1-8.1S58.4,22.2,58.4,26.6"/>
	<path class="st0" d="M72.3,35c0,4.5-3.6,8.1-8.1,8.1s-8.1-3.6-8.1-8.1c0-4.5,3.6-8.1,8.1-8.1S72.3,30.5,72.3,35"/>
	<path class="st0" d="M81.5,36.7c0,4.5-3.6,8.1-8.1,8.1s-8.1-3.6-8.1-8.1c0-4.5,3.6-8.1,8.1-8.1S81.5,32.2,81.5,36.7"/>
	<path class="st0" d="M89.3,54.8c0,4.5-3.6,8.1-8.1,8.1s-8.1-3.6-8.1-8.1c0-4.5,3.6-8.1,8.1-8.1S89.3,50.4,89.3,54.8"/>
	<path class="st0" d="M81.5,55.6c0,4.5-3.6,8.1-8.1,8.1s-8.1-3.6-8.1-8.1c0-4.5,3.6-8.1,8.1-8.1S81.5,51.2,81.5,55.6"/>
	<path class="st0" d="M87.9,64.1c0,4.5-3.6,8.1-8.1,8.1s-8.1-3.6-8.1-8.1c0-4.5,3.6-8.1,8.1-8.1S87.9,59.6,87.9,64.1"/>
	<path class="st0" d="M74.3,76.3c0,4.5-3.6,8.1-8.1,8.1s-8.1-3.6-8.1-8.1c0-4.5,3.6-8.1,8.1-8.1S74.3,71.8,74.3,76.3"/>
	<path class="st0" d="M60.5,77.7c0,4.5-3.6,8.1-8.1,8.1s-8.1-3.6-8.1-8.1c0-4.5,3.6-8.1,8.1-8.1S60.5,73.3,60.5,77.7"/>
	<path class="st0" d="M40.5,70.2c0,4.5-3.6,8.1-8.1,8.1s-8.1-3.6-8.1-8.1c0-4.5,3.6-8.1,8.1-8.1S40.5,65.8,40.5,70.2"/>
	<path class="st0" d="M37.5,59.1c0,4.5-3.6,8.1-8.1,8.1s-8.1-3.6-8.1-8.1c0-4.5,3.6-8.1,8.1-8.1S37.5,54.6,37.5,59.1"/>
	<path class="st0" d="M49.8,41.6c0,4.5-3.6,8.1-8.1,8.1c-4.5,0-8.1-3.6-8.1-8.1c0-4.5,3.6-8.1,8.1-8.1
		C46.1,33.5,49.8,37.1,49.8,41.6"/>
	<path class="st0" d="M62.5,44.2c0,4.5-3.6,8.1-8.1,8.1s-8.1-3.6-8.1-8.1c0-4.5,3.6-8.1,8.1-8.1S62.5,39.8,62.5,44.2"/>
	<path class="st0" d="M74.3,48.4c0,4.5-3.6,8.1-8.1,8.1s-8.1-3.6-8.1-8.1c0-4.5,3.6-8.1,8.1-8.1S74.3,43.9,74.3,48.4"/>
	<path class="st0" d="M74.3,59.1c0,4.5-3.6,8.1-8.1,8.1s-8.1-3.6-8.1-8.1c0-4.5,3.6-8.1,8.1-8.1S74.3,54.6,74.3,59.1"/>
	<path class="st0" d="M64.4,66.3c0,4.5-3.6,8.1-8.1,8.1s-8.1-3.6-8.1-8.1c0-4.5,3.6-8.1,8.1-8.1S64.4,61.8,64.4,66.3"/>
	<path class="st0" d="M50.5,65.4c0,4.5-3.6,8.1-8.1,8.1s-8.1-3.6-8.1-8.1c0-4.5,3.6-8.1,8.1-8.1S50.5,60.9,50.5,65.4"/>
	<path class="st0" d="M52.4,67.2c0,4.5-3.6,8.1-8.1,8.1s-8.1-3.6-8.1-8.1c0-4.5,3.6-8.1,8.1-8.1S52.4,62.7,52.4,67.2"/>
	<path class="st0" d="M48.4,54.3c0,4.5-3.6,8.1-8.1,8.1s-8.1-3.6-8.1-8.1c0-4.5,3.6-8.1,8.1-8.1S48.4,49.9,48.4,54.3"/>
	<path class="st1" d="M43.6,86.8c0.1,0,0.2-0.1,0.3-0.1c1.8-0.4,3.1-1.4,4-2.9c0.4-0.7,0.8-1.3,1.3-2c1.2-1.7,2.6-2.3,4.7-1.8
		c0.4,0.1,0.7,0.2,1.1,0.3c0.4-1,0.6-2,0.8-3.1c0.4,0.1,0.7,0.2,1,0.3c0.1,0,0.1,0.2,0.2,0.3c0.1,0.3,0.2,0.6,0.4,1
		c0.1,0.2,0.2,0.3,0.4,0.2c0.5-0.1,1-0.3,1.5-0.3c0.7,0,1.3,0.3,1.8,0.9c0.3,0.4,0.7,0.8,1,1.2c0.7,1,1.6,1.5,2.8,1.7
		c0,0,0.1,0,0.1,0c0,0,0,0.1,0,0.1c-1.7,1.3-3.5,1.9-5.7,1.3c-1.3-0.4-2.1-1.4-2.2-2.6c0-0.1,0-0.2,0-0.4c1.7,1.4,3.4,2.2,5.6,1.9
		c-2.7-0.2-4.7-1.4-6.1-3.8c-0.7,2.1-1.8,3.9-3.4,5.3c-1.6,1.4-3.5,2.3-5.7,2.6c1.7,0,3.2-0.4,4.7-1.2c1.5-0.8,2.7-1.9,3.7-3.3
		c0.2,1,0.2,1.8-0.1,2.7c-0.5,1.4-1.4,2.4-2.8,3c-1,0.5-2.1,0.7-3.3,0.7c-2.1,0-4.1-0.6-5.9-1.7C43.7,86.9,43.7,86.8,43.6,86.8"/>
	<path class="st2" d="M89.1,57.1c-0.6,0.5-1.1,1.1-1.6,1.6c-0.8,0.9-1.6,1.7-2.6,2.4c-1.3,0.8-3.2,1.4-4.5,1.2
		c0.1-0.6,0.1-1.2,0.2-1.8c0.4-1.8,1.4-3.1,2.9-4c1.5-1,3.2-1.5,4.9-1.7c1.3-0.2,2.6-0.2,3.9-0.3c0.1,0,0.2,0,0.4,0
		c0,0.1,0,0.1,0,0.1c-0.9,0.9-1.2,2.1-1.6,3.2c-0.4,1.3-0.8,2.5-1.4,3.7c-1,2.1-2.7,3.4-5,3.7c-1.2,0.2-2.3,0-3.4-0.5c0,0,0,0-0.1,0
		c-0.6-0.7-1.3-0.6-2-0.5c-0.5,0-0.7-0.1-0.7-0.8c0.5,0,0.9,0,1.4,0c2.8-0.1,5.1-1.1,6.9-3.3C87.5,59.2,88.4,58.2,89.1,57.1
		C89.2,57.2,89.2,57.2,89.1,57.1"/>
	<path class="st2" d="M67.6,25c-0.2,0.7-0.4,1.5-0.6,2.2c-0.3,1.2-0.5,2.3-1,3.4c-0.6,1.4-2,2.8-3.2,3.4c-0.2-0.5-0.5-1.1-0.7-1.6
		c-0.6-1.7-0.4-3.4,0.4-5c0.8-1.6,2-2.9,3.3-4c1-0.8,2.1-1.5,3.1-2.3c0.1-0.1,0.2-0.1,0.3-0.2c0,0.1,0.1,0.1,0.1,0.1
		c-0.3,1.2,0,2.4,0.3,3.6c0.3,1.3,0.6,2.6,0.7,3.9c0.2,2.3-0.5,4.3-2.3,5.8c-0.9,0.7-2,1.2-3.2,1.3c0,0,0,0-0.1,0
		c-0.8-0.3-1.4,0.2-2,0.6c-0.4,0.3-0.7,0.3-1-0.3c0.4-0.2,0.8-0.5,1.2-0.7c2.3-1.5,3.8-3.6,4.2-6.4C67.3,27.5,67.5,26.3,67.6,25
		C67.7,25,67.6,25,67.6,25"/>
	<path class="st1" d="M67.6,46.8c-0.6,0.5-1.1,1.1-1.6,1.6c-0.8,0.9-1.6,1.7-2.6,2.4c-1.3,0.8-3.2,1.4-4.5,1.2
		c0.1-0.6,0.1-1.2,0.2-1.8c0.4-1.8,1.4-3.1,2.9-4c1.5-1,3.2-1.5,4.9-1.7c1.3-0.2,2.6-0.2,3.9-0.3c0.1,0,0.2,0,0.4,0
		c0,0.1,0,0.1,0,0.1c-0.9,0.9-1.2,2.1-1.6,3.2c-0.4,1.3-0.8,2.5-1.4,3.7c-1,2.1-2.7,3.4-5,3.7c-1.2,0.2-2.3,0-3.4-0.5c0,0,0,0-0.1,0
		c-0.6-0.7-1.3-0.6-2-0.5c-0.5,0-0.7-0.1-0.7-0.8c0.5,0,0.9,0,1.4,0c2.8-0.1,5.1-1.1,6.9-3.3C66,48.9,66.8,47.8,67.6,46.8
		C67.6,46.8,67.6,46.8,67.6,46.8"/>
	<path class="st3" d="M43.4,41.4c0.6,0.4,1.3,0.9,1.9,1.3c1,0.6,2,1.2,2.9,2.1c1.1,1.1,2,2.8,2.2,4.2c-0.6,0.1-1.2,0.1-1.8,0.1
		c-1.8,0-3.3-0.8-4.5-2c-1.2-1.3-2.1-2.8-2.7-4.5c-0.4-1.2-0.8-2.5-1.1-3.7c0-0.1-0.1-0.2-0.1-0.4c0.1,0,0.1,0,0.1,0
		c1.1,0.6,2.3,0.8,3.5,0.9c1.3,0.2,2.6,0.3,3.9,0.6c2.2,0.6,3.9,1.9,4.7,4.1c0.4,1.1,0.5,2.2,0.2,3.4c0,0,0,0,0,0.1
		c-0.6,0.7-0.3,1.4-0.1,2.1c0.2,0.5,0,0.7-0.6,0.9c-0.1-0.4-0.2-0.9-0.3-1.3c-0.7-2.7-2.2-4.8-4.7-6.1
		C45.7,42.5,44.6,41.9,43.4,41.4C43.4,41.4,43.4,41.4,43.4,41.4"/>
	<path class="st4" d="M73.6,54.5c-0.6,0.5-1.1,1.1-1.6,1.6c-0.8,0.9-1.6,1.7-2.6,2.4c-1.3,0.8-3.2,1.4-4.5,1.2
		c0.1-0.6,0.1-1.2,0.2-1.8c0.4-1.8,1.4-3.1,2.9-4c1.5-1,3.2-1.5,4.9-1.7c1.3-0.2,2.6-0.2,3.9-0.3c0.1,0,0.2,0,0.4,0
		c0,0.1,0,0.1,0,0.1c-0.9,0.9-1.2,2.1-1.6,3.2C75,56.5,74.6,57.8,74,59c-1,2.1-2.7,3.4-5,3.7c-1.2,0.2-2.3,0-3.4-0.5c0,0,0,0-0.1,0
		c-0.6-0.7-1.3-0.6-2-0.5c-0.5,0-0.7-0.1-0.7-0.8c0.5,0,0.9,0,1.4,0c2.8-0.1,5.1-1.1,6.9-3.3C72,56.5,72.8,55.5,73.6,54.5
		C73.6,54.5,73.6,54.5,73.6,54.5"/>
	<path class="st5" d="M37,30.3c0.6,0.4,1.3,0.9,1.9,1.3c1,0.6,2,1.3,2.8,2.1c1,1.1,1.9,2.9,2.1,4.2c-0.6,0-1.2,0.1-1.8,0.1
		c-1.8,0-3.3-0.8-4.5-2.1c-1.2-1.3-2-2.9-2.6-4.5c-0.4-1.2-0.7-2.5-1-3.7c0-0.1,0-0.2-0.1-0.4c0.1,0,0.1,0,0.1,0
		c1.1,0.7,2.3,0.8,3.5,1c1.3,0.2,2.6,0.4,3.9,0.7c2.2,0.6,3.8,2,4.6,4.2c0.4,1.1,0.5,2.3,0.1,3.4c0,0,0,0,0,0.1
		c-0.6,0.7-0.3,1.4-0.1,2.1c0.1,0.5,0,0.7-0.6,0.9c-0.1-0.4-0.2-0.9-0.3-1.3c-0.6-2.7-2.1-4.8-4.5-6.2C39.3,31.5,38.1,30.9,37,30.3
		C37,30.3,37,30.3,37,30.3"/>
	<path class="st6" d="M35,59.4c0.6,0.4,1.3,0.9,1.9,1.3c1,0.6,2,1.3,2.8,2.1c1,1.1,1.9,2.9,2.1,4.2c-0.6,0-1.2,0.1-1.8,0.1
		c-1.8,0-3.3-0.8-4.5-2.1c-1.2-1.3-2-2.9-2.6-4.5c-0.4-1.2-0.7-2.5-1-3.7c0-0.1,0-0.2-0.1-0.4c0.1,0,0.1,0,0.1,0
		c1.1,0.7,2.3,0.8,3.5,1c1.3,0.2,2.6,0.4,3.9,0.7c2.2,0.6,3.8,2,4.6,4.2c0.4,1.1,0.5,2.3,0.1,3.4c0,0,0,0,0,0.1
		c-0.6,0.7-0.3,1.4-0.1,2.1c0.2,0.5,0,0.7-0.6,0.9c-0.1-0.5-0.2-0.9-0.3-1.3c-0.6-2.7-2.1-4.8-4.5-6.2C37.3,60.6,36.2,60,35,59.4
		C35,59.4,35,59.4,35,59.4"/>
	<path class="st1" d="M72.9,59.6c0.6,0.4,1.3,0.9,1.9,1.3c1,0.6,2,1.3,2.8,2.1c1,1.1,1.9,2.9,2.1,4.2c-0.6,0-1.2,0.1-1.8,0.1
		c-1.8,0-3.3-0.8-4.5-2.1c-1.2-1.3-2-2.9-2.6-4.5c-0.4-1.2-0.7-2.5-1-3.7c0-0.1,0-0.2-0.1-0.4c0.1,0,0.1,0,0.1,0
		c1.1,0.7,2.3,0.8,3.5,1c1.3,0.2,2.6,0.4,3.9,0.7c2.2,0.6,3.8,2,4.6,4.2c0.4,1.1,0.5,2.3,0.1,3.4c0,0,0,0.1,0,0.1
		c-0.6,0.7-0.3,1.4-0.1,2.1c0.1,0.5,0,0.7-0.6,0.9C81,68.5,81,68,80.9,67.6c-0.6-2.7-2.1-4.8-4.5-6.2C75.2,60.7,74,60.1,72.9,59.6
		C72.9,59.5,72.9,59.5,72.9,59.6"/>
	<path class="st1" d="M82.5,28.9c-0.1,0-0.2,0.1-0.3,0.1c-2,0.9-3.6,2.3-5,3.8c-0.3,0.3-0.6,0.7-1,1.1c-0.7,0.8-1.8,0.6-2.3-0.3
		c-0.3-0.7-0.3-1.3,0-1.9c0.4-0.9,1.2-1.6,2-2.2c2.4-1.6,5-2.4,7.9-2.2c0.3,0,0.5,0.1,0.5,0.5c0.1,3.3-0.8,6.2-3,8.6
		c-0.4,0.5-1,0.9-1.5,1.1c-1.1,0.6-2,0.3-2.8-0.7c0,0-0.1-0.1-0.1-0.2c-0.3,0.5-0.6,1-0.8,1.5c-0.3,0.5-0.3,0.5-0.8,0.3
		c-0.2,0-0.3-0.1-0.5-0.2C76.8,34.7,79.1,31.4,82.5,28.9C82.6,29,82.6,29,82.5,28.9"/>
	<path class="st1" d="M44.2,20.4c0.2,0.2,0.4,0.5,0.6,0.7c2.6,3,4.7,6.2,6.1,9.9c0.1,0.2,0.1,0.4,0.2,0.6c0.1,0.2,0,0.3-0.2,0.3
		c0,0,0,0,0,0c-0.9-0.1-0.9-0.1-1.2-1c-0.1-0.3-0.2-0.6-0.3-0.8c-0.5,0-0.9,0.1-1.4,0.1c-1.2-0.1-2-0.8-2.7-1.7
		c-1.1-1.3-1.8-2.9-2.4-4.5c-0.7-2-1.1-4.1-1.1-6.3c0-0.1,0-0.2,0-0.4c0.2,0.1,0.3,0.1,0.5,0.2c3,1.5,5.7,3.4,7.7,6.1
		c0.7,0.9,1.2,2,1.3,3.2c0,0.7-0.2,1.5-0.6,1.9C49.1,25.7,47,22.8,44.2,20.4C44.3,20.4,44.2,20.4,44.2,20.4"/>
	<path class="st1" d="M37.7,35c-1.7-1.5-3.6-2.1-5.7-2.1c-1.8,0-3.5,0.6-5.1,1.6c0.1,0,0.2-0.1,0.4-0.1c1.7-0.7,3.5-1.1,5.4-0.9
		c3.1,0.4,5.2,2.1,6.2,5.1c0,0.1,0,0.1,0.1,0.2c0,0,0,0.1,0,0.2c-0.3-0.1-0.7-0.1-1-0.2c-0.1,0-0.2-0.2-0.2-0.3
		c-0.1-0.3-0.3-0.7-0.4-1.1c-0.1-0.2-0.2-0.2-0.4-0.2c-1.1,0.1-2.2,0.3-3.3,0.3c-1.3,0.1-2.6-0.4-3.9-0.7c-0.7-0.2-1.4-0.4-2.1-0.6
		c-1.2-0.3-2.4,0-3.5,0.7c-0.1,0.1-0.2,0.1-0.3,0.2c0,0,0,0-0.1,0c0.2-0.4,0.3-0.8,0.5-1.2c0.7-1.6,1.7-3,3.2-4
		c1.7-1,3.4-1.2,5.3-0.8c1.5,0.3,2.8,1.1,3.8,2.3c0.4,0.5,0.7,1.1,1.1,1.6C37.7,34.8,37.7,34.9,37.7,35"/>
	<path class="st2" d="M19,61.9c2.2-1.1,4.5-1.6,7-1.6c1.4,0,2.7,0.2,4,0.6c-0.3,1.9-1.5,3.5-3.5,4c-1.7,0.4-3.3,0.2-4.9-0.2
		c-1.2-0.4-2.5-0.7-3.8-0.8c-0.6,0-1.2,0-1.8,0c0.2-0.3,0.3-0.5,0.4-0.8c1.1-1.9,2.4-3.7,4.1-5.1c1.3-1,2.7-1.8,4.4-1.9
		c2.5-0.1,4.4,1.7,5,3.6C26.1,59.2,22.4,59.7,19,61.9"/>
	<path class="st2" d="M30.3,68.9c0.1-0.2,0.3-0.5,0.4-0.7c0.8-1.5,1-3.1,0.3-4.7c0,0,0-0.1-0.1-0.1c-0.4-0.4-0.3-0.9-0.1-1.4
		c0.2-0.6,0.3-1.2,0.4-1.8c0.1,0,0.2,0.1,0.3,0.2c0.9,0.6,1.7,1.3,2.2,2.4c0.8,1.8,0.6,3.6-0.6,5.3c-1.2,1.6-2.8,2.5-4.6,3.4
		c0.5-2.1-0.7-3.8-1.3-5.6c1.1-0.4,2-1,2.7-2c0.7,0.8,0.9,1.6,0.9,2.6C30.8,67.2,30.6,68.1,30.3,68.9C30.2,68.9,30.3,68.9,30.3,68.9
		"/>
	<path class="st1" d="M66.5,83.3c0.9-2.3,2.4-4.2,4.3-5.8c1-0.9,2.2-1.6,3.4-2.2c1,1.6,1.2,3.7,0,5.3c-1,1.4-2.3,2.3-3.9,3
		c-1.2,0.5-2.4,1.1-3.4,1.9c-0.5,0.4-0.9,0.8-1.4,1.2c-0.1-0.3-0.1-0.6-0.2-0.9c-0.4-2.2-0.6-4.3-0.2-6.5c0.3-1.6,0.8-3.1,2.1-4.3
		c1.8-1.7,4.4-1.6,6.1-0.5C70,76.6,67.5,79.4,66.5,83.3"/>
	<path class="st1" d="M79.6,81.3c0-0.3-0.1-0.5-0.1-0.8c-0.4-1.7-1.2-3-2.9-3.7c0,0-0.1,0-0.1-0.1c-0.6-0.1-0.8-0.5-1-1
		c-0.2-0.6-0.6-1.1-0.9-1.6c0.1,0,0.2-0.1,0.4-0.1c1.1-0.2,2.2-0.1,3.2,0.4c1.8,0.9,2.8,2.3,3,4.3c0.2,2-0.4,3.7-1.3,5.6
		c-1-1.9-3-2.4-4.7-3.4c0.6-1,0.8-2.1,0.7-3.3c1,0.1,1.7,0.6,2.3,1.3C78.8,79.6,79.2,80.4,79.6,81.3C79.5,81.3,79.5,81.3,79.6,81.3"
		/>
	<path class="st3" d="M70.4,37.6c-1.3,2.1-3.1,3.7-5.3,4.9c-1.2,0.7-2.4,1.2-3.8,1.5c-0.7-1.8-0.5-3.8,1-5.2
		c1.2-1.2,2.7-1.8,4.3-2.2c1.3-0.3,2.5-0.6,3.7-1.2c0.5-0.3,1-0.6,1.6-0.9c0,0.3,0,0.6,0,0.9c0,2.2-0.2,4.4-1,6.5
		c-0.6,1.5-1.4,2.9-2.8,3.8C66,46.9,63.4,46.4,62,45C65.7,43.5,68.6,41.2,70.4,37.6"/>
	<path class="st3" d="M57.1,37.2c0,0.3,0,0.5,0,0.8c0.1,1.7,0.7,3.2,2.1,4.2c0,0,0.1,0.1,0.1,0.1c0.6,0.2,0.7,0.6,0.8,1.1
		c0.1,0.6,0.4,1.2,0.5,1.8c-0.1,0-0.2,0-0.4,0c-1.1,0-2.2-0.3-3.1-0.9c-1.6-1.2-2.4-2.8-2.1-4.8c0.2-1.9,1.1-3.6,2.3-5.2
		c0.7,2.1,2.5,2.9,4,4.2c-0.7,0.9-1.2,1.9-1.3,3.1c-0.9-0.3-1.6-0.9-2.1-1.8C57.5,38.9,57.3,38.1,57.1,37.2
		C57.2,37.2,57.2,37.2,57.1,37.2"/>
	<path class="st7" d="M54.1,76.7c0-2.5,0.7-4.8,1.8-7c0.6-1.2,1.4-2.3,2.4-3.3c1.5,1.1,2.4,3,1.9,4.9c-0.4,1.7-1.3,3-2.5,4.2
		c-0.9,0.9-1.8,1.9-2.4,3c-0.3,0.5-0.5,1-0.8,1.6c-0.2-0.3-0.4-0.5-0.5-0.8c-1.1-1.9-2.1-3.8-2.6-6c-0.3-1.6-0.4-3.2,0.3-4.7
		c1-2.2,3.5-3.1,5.5-2.7C54.9,69.2,53.6,72.7,54.1,76.7"/>
	<path class="st7" d="M65.5,70c-0.1-0.2-0.3-0.5-0.4-0.7c-1-1.4-2.3-2.4-4-2.4c0,0-0.1,0-0.1,0c-0.6,0.2-0.9-0.1-1.3-0.5
		c-0.4-0.4-0.9-0.8-1.4-1.2c0.1-0.1,0.2-0.2,0.3-0.2c1-0.6,2-0.9,3.1-0.8c2,0.1,3.5,1.1,4.4,2.9c0.9,1.8,1,3.6,0.9,5.6
		c-1.7-1.4-3.7-1.1-5.6-1.4c0.2-1.1,0-2.2-0.5-3.3c1-0.2,1.8-0.1,2.7,0.4C64.2,68.7,64.9,69.4,65.5,70C65.5,70.1,65.5,70,65.5,70"/>
	<path class="st8" d="M55.1,22.9c0-0.1-0.1-0.1-0.1-0.2c-0.1,0-0.1,0.1-0.2,0.1C54.9,22.9,55,22.9,55.1,22.9"/>
	<path class="st8" d="M56.2,31C56.2,31,56.2,31,56.2,31L56.2,31C56.2,31,56.2,31,56.2,31"/>
	<path class="st8" d="M56.2,31C56.2,31,56.2,31,56.2,31L56.2,31C56.2,31,56.2,31,56.2,31"/>
	<path class="st8" d="M77.3,37.5c0-0.1-0.1-0.1-0.1-0.2c-0.1,0-0.1,0.1-0.2,0.1C77.1,37.5,77.2,37.5,77.3,37.5"/>
	<path class="st8" d="M78.4,45.6C78.4,45.6,78.4,45.6,78.4,45.6L78.4,45.6C78.4,45.6,78.4,45.6,78.4,45.6"/>
	<path class="st8" d="M78.4,45.6C78.4,45.6,78.4,45.6,78.4,45.6L78.4,45.6C78.4,45.6,78.4,45.6,78.4,45.6"/>
	<path class="st8" d="M53.2,48.5c0-0.1-0.1-0.1-0.1-0.2c-0.1,0-0.1,0.1-0.2,0.1C53,48.5,53.1,48.5,53.2,48.5"/>
	<path class="st8" d="M54.4,56.6C54.4,56.6,54.4,56.6,54.4,56.6L54.4,56.6C54.4,56.6,54.4,56.6,54.4,56.6"/>
	<path class="st8" d="M54.4,56.6C54.4,56.6,54.4,56.6,54.4,56.6L54.4,56.6C54.4,56.6,54.4,56.6,54.4,56.6"/>
	<path class="st8" d="M30.2,39.1c0-0.1-0.1-0.1-0.1-0.2c-0.1,0-0.1,0.1-0.2,0.1C30,39,30.1,39,30.2,39.1"/>
	<path class="st8" d="M31.3,47.2C31.3,47.2,31.3,47.2,31.3,47.2L31.3,47.2C31.3,47.2,31.3,47.2,31.3,47.2"/>
	<path class="st8" d="M31.3,47.2C31.3,47.2,31.3,47.2,31.3,47.2L31.3,47.2C31.3,47.2,31.3,47.2,31.3,47.2"/>
	<path class="st8" d="M38.8,69.1c0-0.1-0.1-0.1-0.1-0.2c-0.1,0-0.1,0.1-0.2,0.1C38.6,69.1,38.7,69.1,38.8,69.1"/>
	<path class="st8" d="M40,77.2C40,77.2,40,77.2,40,77.2L40,77.2C40,77.2,40,77.2,40,77.2"/>
	<path class="st8" d="M40,77.2C40,77.2,40,77.2,40,77.2L40,77.2C40,77.2,40,77.2,40,77.2"/>
	<path class="st8" d="M73.4,65.3c0-0.1-0.1-0.1-0.1-0.2c-0.1,0-0.1,0.1-0.2,0.1C73.2,65.3,73.3,65.3,73.4,65.3"/>
	<path class="st8" d="M74.5,73.4C74.5,73.4,74.5,73.4,74.5,73.4L74.5,73.4C74.5,73.4,74.5,73.4,74.5,73.4"/>
	<path class="st8" d="M74.5,73.4C74.5,73.4,74.5,73.4,74.5,73.4L74.5,73.4C74.5,73.4,74.5,73.4,74.5,73.4"/>
	<path class="st9" d="M38.7,28.4c1.4,1.2,3.6,3.8,5.2,5.7"/>
	<path class="st9" d="M43.6,26c-0.7,2.6-0.9,6.4,0,9.2"/>
	<path class="st9" d="M48,28.3c-2.8,1.4-5.5,2.3-4.4,5.5"/>
	<path class="st9" d="M45.2,40.5c0,3.8,0.7,7.9,2.1,10.4"/>
	<path class="st9" d="M39.7,43.9c3.3,2.1,7.3,6.6,8.2,7.5"/>
	<path class="st9" d="M48.8,44.3c-2,1.4-3.7,1.7-2,5.9"/>
	<path class="st10" d="M33.3,29.3c1,1.1,0.8,1.9,4.4,1.6c3.6-0.3,3.6-0.3,3.6-0.3s-0.1-0.7-0.3-1.6c-0.2-0.9-0.4-4.1-3-4.8
		c-2.7-0.7-4.4-0.8-4.9-0.7c-0.5,0.1-2.4-0.2-2.9-0.2"/>
	<path class="st11" d="M43.5,15c-0.5,1.9-3.4,2.9-3.5,5.6s2.1,6,2.6,7.1c0.5,1.1-0.4,1.5,0.9-0.1c1.3-1.6,1.9-1.3,2.7-3
		c0.8-1.7,0.2-5.3-0.6-6.1C44.8,17.8,43.5,15,43.5,15z"/>
	<path class="st12" d="M44.8,29.8c0.3-0.4,0.4-1.2,1.9-3.3c1.6-2.1,3.1-3.5,4.9-2.7c1.9,0.9,1.8,1.6,3.5,1.5s1.7-0.1,1.7-0.1
		s-1.3,1.8-3.3,4.2c-2,2.4-5.4,1.6-6.7,1.1C45.6,30.2,44.8,29.8,44.8,29.8z"/>
	<path class="st13" d="M43.9,30.9c0,0,0.3,1.8-1.2,3.7c-1.5,2-2.2,4.8-0.2,6.4c2.1,1.6,2.7,3.2,2.7,3.2s-0.3-0.2,1.1-1.8
		s2.2-4.9,1-6.9S43.9,30.9,43.9,30.9z"/>
	<path class="st14" d="M32.2,40.6c0,0,4.5-0.5,6.8,0c2.3,0.6,3.5,1.1,3.9,3.1c0.4,1.9,1.1,3.1,1.1,3.1s-3.2-0.2-4.4,0.3
		c-1.2,0.5-3.7,0.2-4.4-1.1C34.5,44.7,32.2,40.6,32.2,40.6z"/>
	<path class="st15" d="M46.8,45.7c0,0,0.5-2,1.7-4c1.2-2,1.9-2.9,3.4-2.9s2.7,0.2,4.2,0.6s1.9,0.6,2.3,0.2s-0.8,0.2-1.8,2.6
		s-1.2,3.7-2.5,4s-2.4-0.6-3.9-0.7C48.6,45.4,46.8,45.7,46.8,45.7z"/>
	<path class="st9" d="M21.2,54c1.5-1.1,4.6-2.6,6.8-3.6"/>
	<path class="st9" d="M20,48.6c2.3,1.3,6,2.5,8.9,2.2"/>
	<path class="st9" d="M23.3,45c0.7,3.1,0.9,5.9,4.3,5.7"/>
	<path class="st9" d="M34.5,50.6c3.6,0.9,7.8,1.3,10.6,0.5"/>
	<path class="st9" d="M36.5,56.8c2.9-2.7,8.2-5.5,9.3-6.1"/>
	<path class="st9" d="M39.1,48.1c0.8,2.3,0.8,4,5.2,3.4"/>
	<path class="st11" d="M20.8,59.5c1.3-0.7,2-0.3,2.6-3.9s0.6-3.6,0.6-3.6s-0.8,0-1.6-0.1c-0.9-0.1-4.1-0.7-5.4,1.8s-1.8,4-1.9,4.6
		c-0.1,0.5-0.7,2.3-0.9,2.7"/>
	<path class="st16" d="M9.4,46.1c1.7,1,2,4,4.6,4.8c2.6,0.8,6.4-0.6,7.5-0.8c1.2-0.3,1.4,0.7,0.1-0.9c-1.2-1.7-0.8-2.2-2.2-3.3
		c-1.4-1.2-5.1-1.5-6.1-0.9S9.4,46.1,9.4,46.1z"/>
	<path class="st12" d="M24.1,48.4c-0.3-0.4-1.1-0.6-2.7-2.7c-1.6-2-2.7-3.8-1.4-5.4s2-1.3,2.3-3c0.3-1.7,0.3-1.7,0.3-1.7
		s1.4,1.7,3.3,4.3s0.3,5.6-0.6,6.8C24.6,47.8,24.1,48.4,24.1,48.4z"/>
	<path class="st17" d="M24.9,49.6c0,0,1.8,0.1,3.3,2.1s4.1,3.3,6.2,1.7c2.1-1.6,3.7-1.8,3.7-1.8s-0.3,0.3-1.4-1.5
		c-1.2-1.8-4.2-3.3-6.4-2.7C28,48,24.9,49.6,24.9,49.6z"/>
	<path class="st13" d="M31.4,63.3c0,0,0.6-4.5,1.7-6.6c1.1-2.1,2-3.1,3.9-3c2,0.1,3.2-0.3,3.2-0.3s-1,3.1-0.8,4.4
		c0.2,1.3-0.7,3.7-2.1,4C35.9,62,31.4,63.3,31.4,63.3z"/>
	<path class="st15" d="M39.9,50.4c0,0-1.8-1-3.4-2.6c-1.6-1.6-2.3-2.6-2-4c0.3-1.4,0.9-2.6,1.6-3.9c0.6-1.3,1-1.7,0.8-2.2
		c-0.2-0.5,0,0.8,2.1,2.4c2,1.6,3.3,2.1,3.3,3.4c0,1.3-1.2,2.2-1.7,3.6C40.1,48.5,39.9,50.4,39.9,50.4z"/>
	<path class="st9" d="M49.7,69.4c-1-1.6-2.4-4.7-3.3-7"/>
	<path class="st9" d="M44.2,70.3c1.5-2.2,2.8-5.9,2.7-8.8"/>
	<path class="st9" d="M40.8,66.8c3.1-0.5,5.9-0.6,5.9-4"/>
	<path class="st9" d="M46.9,55.9c1.1-3.6,1.7-7.7,1-10.5"/>
	<path class="st9" d="M53.2,54.2c-2.5-3-5.1-8.5-5.6-9.5"/>
	<path class="st9" d="M44.7,51.2c2.3-0.7,4-0.6,3.7-5"/>
	<path class="st10" d="M55.1,70.1c-0.7-1.4-0.2-2-3.8-2.8c-3.6-0.7-3.6-0.7-3.6-0.7s-0.1,0.8-0.2,1.6c-0.1,0.9-0.9,4.1,1.5,5.5
		c2.4,1.4,3.9,2,4.5,2.1c0.5,0.1,2.2,0.9,2.7,1"/>
	<path class="st16" d="M41.2,80.8c1.1-1.7,4.1-1.8,5-4.3s-0.2-6.4-0.4-7.6c-0.2-1.2,0.8-1.3-0.9-0.2c-1.7,1.2-2.2,0.7-3.5,2
		c-1.2,1.4-1.7,5-1.2,6C40.7,77.8,41.2,80.8,41.2,80.8z"/>
	<path class="st12" d="M44.2,66.3c-0.4,0.3-0.7,1-2.8,2.6c-2.1,1.5-4,2.5-5.5,1.1c-1.5-1.4-1.2-2.1-2.9-2.5S31.4,67,31.4,67
		s1.8-1.3,4.4-3.1s5.6,0,6.7,0.9C43.6,65.7,44.2,66.3,44.2,66.3z"/>
	<path class="st17" d="M45.4,65.5c0,0,0.2-1.8,2.2-3.2c2-1.4,3.5-4,2-6.1c-1.5-2.1-1.6-3.8-1.6-3.8s0.3,0.3-1.6,1.4
		c-1.9,1.1-3.5,4.1-3,6.3S45.4,65.5,45.4,65.5z"/>
	<path class="st13" d="M59.5,59.7c0,0-4.4-0.8-6.5-2c-2-1.2-3-2.1-2.8-4.1c0.2-2-0.2-3.3-0.2-3.3s3,1.2,4.3,1
		c1.3-0.2,3.6,0.9,3.9,2.3S59.5,59.7,59.5,59.7z"/>
	<path class="st15" d="M47,50.5c0,0-1.1,1.8-2.8,3.3c-1.7,1.5-2.7,2.2-4.1,1.8c-1.4-0.4-2.6-1-3.8-1.8c-1.3-0.7-1.6-1.1-2.1-0.9
		c-0.5,0.2,0.8,0,2.5-1.9c1.7-1.9,2.3-3.2,3.6-3.1s2.2,1.3,3.5,1.8C45.1,50.2,47,50.5,47,50.5z"/>
	<path class="st9" d="M62.6,41.6c-1.4,1.3-4.3,3.1-6.4,4.3"/>
	<path class="st9" d="M64.3,46.8c-2.4-1.1-6.2-1.8-9.1-1.3"/>
	<path class="st9" d="M61.4,50.8c-1-3-1.5-5.7-4.8-5.2"/>
	<path class="st9" d="M49.7,46.4c-3.7-0.5-7.9-0.5-10.6,0.6"/>
	<path class="st9" d="M47,40.4c-2.6,2.9-7.6,6.3-8.6,7"/>
	<path class="st9" d="M45.4,49.4c-1.1-2.2-1.2-3.9-5.5-2.9"/>
	<path class="st10" d="M62.4,36.1c-1.2,0.9-2,0.5-2.2,4.2c-0.2,3.6-0.2,3.6-0.2,3.6s0.8,0,1.6-0.1c0.9,0,4.1,0.2,5.2-2.3
		c1.1-2.6,1.4-4.2,1.4-4.7c0-0.5,0.5-2.4,0.6-2.8"/>
	<path class="st16" d="M75.1,48.2c-1.8-0.8-2.4-3.8-5.1-4.3c-2.6-0.5-6.3,1.2-7.4,1.6s-1.4-0.6,0,0.9c1.4,1.5,1,2.1,2.5,3.1
		c1.6,1,5.2,0.9,6.2,0.3S75.1,48.2,75.1,48.2z"/>
	<path class="st11" d="M60.3,47.4c0.4,0.4,1.1,0.5,3,2.4c1.8,1.9,3.1,3.5,1.9,5.2c-1.1,1.7-1.9,1.5-2,3.2S63,60,63,60
		s-1.6-1.6-3.7-3.9c-2.1-2.3-0.8-5.6-0.2-6.8S60.3,47.4,60.3,47.4z"/>
	<path class="st17" d="M59.3,46.4c0,0-1.8,0.1-3.5-1.7c-1.7-1.8-4.5-2.9-6.4-1.1c-1.9,1.8-3.5,2.2-3.5,2.2s0.2-0.3,1.6,1.4
		c1.4,1.7,4.6,2.8,6.7,2C56.4,48.3,59.3,46.4,59.3,46.4z"/>
	<path class="st14" d="M51.4,33.4c0,0-0.1,4.5-1,6.7c-0.9,2.2-1.6,3.3-3.6,3.4c-2,0.2-3.2,0.7-3.2,0.7s0.7-3.1,0.3-4.4
		c-0.4-1.3,0.3-3.7,1.7-4.2C47,35.2,51.4,33.4,51.4,33.4z"/>
	<path class="st15" d="M44.3,47.2c0,0,1.9,0.8,3.7,2.2c1.8,1.4,2.6,2.3,2.4,3.8c-0.2,1.4-0.6,2.7-1.1,4.1s-0.8,1.8-0.6,2.3
		c0.3,0.5-0.1-0.8-2.3-2.2c-2.2-1.4-3.5-1.8-3.6-3.1c-0.1-1.3,1-2.3,1.3-3.8C44.3,49,44.3,47.2,44.3,47.2z"/>
	<path class="st9" d="M62.6,30.1c1.4,1.2,3.6,3.8,5.2,5.7"/>
	<path class="st9" d="M67.5,27.7c-0.7,2.6-0.9,6.4,0,9.2"/>
	<path class="st9" d="M71.9,30c-2.8,1.4-5.5,2.3-4.4,5.5"/>
	<path class="st9" d="M69.2,42.2c0,3.8,0.7,7.9,2.1,10.4"/>
	<path class="st9" d="M63.7,45.7c3.3,2.1,7.3,6.6,8.2,7.5"/>
	<path class="st9" d="M72.7,46.1c-2,1.4-3.7,1.7-2,5.9"/>
	<path class="st10" d="M57.2,31.1c1,1.1,0.8,1.9,4.4,1.6s3.6-0.3,3.6-0.3s-0.1-0.7-0.3-1.6c-0.2-0.9-0.4-4.1-3-4.8
		c-2.7-0.7-4.4-0.8-4.9-0.7S54.6,25,54.1,25"/>
	<path class="st11" d="M67.4,16.8c-0.5,1.9-3.4,2.9-3.5,5.6s2.1,6,2.6,7.1c0.5,1.1-0.4,1.5,0.9-0.1c1.3-1.6,1.9-1.3,2.7-3
		c0.8-1.7,0.2-5.3-0.6-6.1C68.7,19.5,67.4,16.8,67.4,16.8z"/>
	<path class="st12" d="M68.7,31.6c0.3-0.4,0.4-1.2,1.9-3.3c1.6-2.1,3.1-3.5,4.9-2.7s1.8,1.6,3.5,1.5c1.7-0.1,1.7-0.1,1.7-0.1
		s-1.3,1.8-3.3,4.2c-2,2.4-5.4,1.6-6.7,1.1C69.5,31.9,68.7,31.6,68.7,31.6z"/>
	<path class="st13" d="M67.8,32.7c0,0,0.3,1.8-1.2,3.7c-1.5,2-2.2,4.8-0.2,6.4s2.7,3.2,2.7,3.2s-0.3-0.2,1.1-1.8
		c1.5-1.6,2.2-4.9,1-6.9C70.1,35.3,67.8,32.7,67.8,32.7z"/>
	<path class="st14" d="M56.1,42.3c0,0,4.5-0.5,6.8,0c2.3,0.6,3.5,1.1,3.9,3.1c0.4,1.9,1.1,3.1,1.1,3.1s-3.2-0.2-4.4,0.3
		s-3.7,0.2-4.4-1.1S56.1,42.3,56.1,42.3z"/>
	<path class="st15" d="M70.7,47.4c0,0,0.5-2,1.7-4c1.2-2,1.9-2.9,3.4-2.9c1.4,0,2.7,0.2,4.2,0.6c1.4,0.3,1.9,0.6,2.3,0.2
		s-0.8,0.2-1.8,2.6c-1,2.4-1.2,3.7-2.5,4c-1.3,0.3-2.4-0.6-3.9-0.7C72.6,47.2,70.7,47.4,70.7,47.4z"/>
	<path class="st9" d="M45.1,55.8c1.5-1.1,4.6-2.6,6.8-3.6"/>
	<path class="st9" d="M44,50.4c2.3,1.3,6,2.5,8.9,2.2"/>
	<path class="st9" d="M47.3,46.7c0.7,3.1,0.9,5.9,4.3,5.7"/>
	<path class="st9" d="M58.4,52.4c3.6,0.9,7.8,1.3,10.6,0.5"/>
	<path class="st9" d="M60.4,58.5c2.9-2.7,8.2-5.5,9.3-6.1"/>
	<path class="st9" d="M63,49.9c0.8,2.3,0.8,4,5.2,3.4"/>
	<path class="st11" d="M44.7,61.2c1.3-0.7,2-0.3,2.6-3.9s0.6-3.6,0.6-3.6s-0.8,0-1.6-0.1c-0.9-0.1-4.1-0.7-5.4,1.8
		c-1.3,2.4-1.8,4-1.9,4.6c-0.1,0.5-0.7,2.3-0.9,2.7"/>
	<path class="st16" d="M33.3,47.9c1.7,1,2,4,4.6,4.8s6.4-0.6,7.5-0.8s1.4,0.7,0.1-0.9c-1.2-1.7-0.8-2.2-2.2-3.3s-5.1-1.5-6.1-0.9
		C36.3,47.2,33.3,47.9,33.3,47.9z"/>
	<path class="st12" d="M48,50.2c-0.3-0.4-1.1-0.6-2.7-2.7c-1.6-2-2.7-3.8-1.4-5.4s2-1.3,2.3-3s0.3-1.7,0.3-1.7s1.4,1.7,3.3,4.3
		c1.9,2.5,0.3,5.6-0.6,6.8C48.5,49.5,48,50.2,48,50.2z"/>
	<path class="st17" d="M48.8,51.3c0,0,1.8,0.1,3.3,2.1c1.5,1.9,4.1,3.3,6.2,1.7s3.7-1.8,3.7-1.8s-0.3,0.3-1.4-1.5
		c-1.2-1.8-4.2-3.3-6.4-2.7C52,49.7,48.8,51.3,48.8,51.3z"/>
	<path class="st13" d="M55.3,65.1c0,0,0.6-4.5,1.7-6.6c1.1-2.1,2-3.1,3.9-3c2,0.1,3.2-0.3,3.2-0.3s-1,3.1-0.8,4.4
		c0.2,1.3-0.7,3.7-2.1,4C59.9,63.8,55.3,65.1,55.3,65.1z"/>
	<path class="st15" d="M63.9,52.1c0,0-1.8-1-3.4-2.6c-1.6-1.6-2.3-2.6-2-4c0.3-1.4,0.9-2.6,1.6-3.9c0.6-1.3,1-1.7,0.8-2.2
		c-0.2-0.5,0,0.8,2.1,2.4c2,1.6,3.3,2.1,3.3,3.4c0,1.3-1.2,2.2-1.7,3.6C64.1,50.3,63.9,52.1,63.9,52.1z"/>
	<path class="st9" d="M73.6,71.2c-1-1.6-2.4-4.7-3.3-7"/>
	<path class="st9" d="M68.2,72c1.5-2.2,2.8-5.9,2.7-8.8"/>
	<path class="st9" d="M64.7,68.5c3.1-0.5,5.9-0.6,5.9-4"/>
	<path class="st9" d="M70.9,57.7c1.1-3.6,1.7-7.7,1-10.5"/>
	<path class="st9" d="M77.1,56c-2.5-3-5.1-8.5-5.6-9.5"/>
	<path class="st9" d="M68.6,53c2.3-0.7,4-0.6,3.7-5"/>
	<path class="st10" d="M79,71.8c-0.7-1.4-0.2-2-3.8-2.8s-3.6-0.7-3.6-0.7s-0.1,0.8-0.2,1.6c-0.1,0.9-0.9,4.1,1.5,5.5
		c2.4,1.4,3.9,2,4.5,2.1c0.5,0.1,2.2,0.9,2.7,1"/>
	<path class="st16" d="M65.1,82.5c1.1-1.7,4.1-1.8,5-4.3c0.9-2.5-0.2-6.4-0.4-7.6c-0.2-1.2,0.8-1.3-0.9-0.2c-1.7,1.2-2.2,0.7-3.5,2
		c-1.2,1.4-1.7,5-1.2,6C64.6,79.5,65.1,82.5,65.1,82.5z"/>
	<path class="st12" d="M68.2,68c-0.4,0.3-0.7,1-2.8,2.6c-2.1,1.5-4,2.5-5.5,1.1c-1.5-1.4-1.2-2.1-2.9-2.5s-1.7-0.4-1.7-0.4
		s1.8-1.3,4.4-3.1c2.6-1.7,5.6,0,6.7,0.9C67.5,67.4,68.2,68,68.2,68z"/>
	<path class="st17" d="M69.3,67.2c0,0,0.2-1.8,2.2-3.2c2-1.4,3.5-4,2-6.1c-1.5-2.1-1.6-3.8-1.6-3.8s0.3,0.3-1.6,1.4s-3.5,4.1-3,6.3
		S69.3,67.2,69.3,67.2z"/>
	<path class="st13" d="M83.4,61.4c0,0-4.4-0.8-6.5-2c-2-1.2-3-2.1-2.8-4.1s-0.2-3.3-0.2-3.3s3,1.2,4.3,1c1.3-0.2,3.6,0.9,3.9,2.3
		C82.3,56.8,83.4,61.4,83.4,61.4z"/>
	<path class="st15" d="M70.9,52.2c0,0-1.1,1.8-2.8,3.3c-1.7,1.5-2.7,2.2-4.1,1.8c-1.4-0.4-2.6-1-3.8-1.8c-1.3-0.7-1.6-1.1-2.1-0.9
		c-0.5,0.2,0.8,0,2.5-1.9c1.7-1.9,2.3-3.2,3.6-3.1c1.3,0.1,2.2,1.3,3.5,1.8C69.1,51.9,70.9,52.2,70.9,52.2z"/>
	<path class="st9" d="M86.5,43.3c-1.4,1.3-4.3,3.1-6.4,4.3"/>
	<path class="st9" d="M88.2,48.6c-2.4-1.1-6.2-1.8-9.1-1.3"/>
	<path class="st9" d="M85.3,52.5c-1-3-1.5-5.7-4.8-5.2"/>
	<path class="st9" d="M73.6,48.1c-3.7-0.5-7.9-0.5-10.6,0.6"/>
	<path class="st9" d="M71,42.2c-2.6,2.9-7.6,6.3-8.6,7"/>
	<path class="st9" d="M69.3,51.1c-1.1-2.2-1.2-3.9-5.5-2.9"/>
	<path class="st10" d="M86.3,37.9c-1.2,0.9-2,0.5-2.2,4.2C84,45.6,84,45.6,84,45.6s0.8,0,1.6-0.1s4.1,0.2,5.2-2.3
		c1.1-2.6,1.4-4.2,1.4-4.7c0-0.5,0.5-2.4,0.6-2.8"/>
	<path class="st16" d="M99,50c-1.8-0.8-2.4-3.8-5.1-4.3s-6.3,1.2-7.4,1.6c-1.2,0.4-1.4-0.6,0,0.9c1.4,1.5,1,2.1,2.5,3.1
		s5.2,0.9,6.2,0.3C96.1,50.9,99,50,99,50z"/>
	<path class="st11" d="M84.2,49.2c0.4,0.4,1.1,0.5,3,2.4c1.8,1.9,3.1,3.5,1.9,5.2c-1.1,1.7-1.9,1.5-2,3.2s-0.2,1.7-0.2,1.7
		s-1.6-1.6-3.7-3.9c-2.1-2.3-0.8-5.6-0.2-6.8C83.8,49.9,84.2,49.2,84.2,49.2z"/>
	<path class="st17" d="M83.3,48.1c0,0-1.8,0.1-3.5-1.7c-1.7-1.8-4.5-2.9-6.4-1.1c-1.9,1.8-3.5,2.2-3.5,2.2s0.2-0.3,1.6,1.4
		s4.6,2.8,6.7,2C80.3,50,83.3,48.1,83.3,48.1z"/>
	<path class="st14" d="M75.4,35.2c0,0-0.1,4.5-1,6.7c-0.9,2.2-1.6,3.3-3.6,3.4c-2,0.2-3.2,0.7-3.2,0.7s0.7-3.1,0.3-4.4
		s0.3-3.7,1.7-4.2C71,36.9,75.4,35.2,75.4,35.2z"/>
	<path class="st15" d="M68.2,48.9c0,0,1.9,0.8,3.7,2.2c1.8,1.4,2.6,2.3,2.4,3.8c-0.2,1.4-0.6,2.7-1.1,4.1c-0.5,1.4-0.8,1.8-0.6,2.3
		s-0.1-0.8-2.3-2.2s-3.5-1.8-3.6-3.1c-0.1-1.3,1-2.3,1.3-3.8C68.2,50.8,68.2,48.9,68.2,48.9z"/>
	<path class="st9" d="M55.8,42.1c1.4,1.2,3.6,3.8,5.2,5.7"/>
	<path class="st9" d="M60.7,39.7c-0.7,2.6-0.9,6.4,0,9.2"/>
	<path class="st9" d="M65.1,42c-2.8,1.4-5.5,2.3-4.4,5.5"/>
	<path class="st9" d="M62.4,54.2c0,3.8,0.7,7.9,2.1,10.4"/>
	<path class="st9" d="M56.9,57.7c3.3,2.1,7.3,6.6,8.2,7.5"/>
	<path class="st9" d="M65.9,58c-2,1.4-3.7,1.7-2,5.9"/>
	<path class="st10" d="M50.4,43.1c1,1.1,0.8,1.9,4.4,1.6c3.6-0.3,3.6-0.3,3.6-0.3s-0.1-0.7-0.3-1.6s-0.4-4.1-3-4.8
		c-2.7-0.7-4.4-0.8-4.9-0.7c-0.5,0.1-2.4-0.2-2.9-0.2"/>
	<path class="st11" d="M60.6,28.8c-0.5,1.9-3.4,2.9-3.5,5.6c-0.1,2.7,2.1,6,2.6,7.1c0.5,1.1-0.4,1.5,0.9-0.1c1.3-1.6,1.9-1.3,2.7-3
		c0.8-1.7,0.2-5.3-0.6-6.1C62,31.5,60.6,28.8,60.6,28.8z"/>
	<path class="st12" d="M61.9,43.5c0.3-0.4,0.4-1.2,1.9-3.3c1.6-2.1,3.1-3.5,4.9-2.7s1.8,1.6,3.5,1.5s1.7-0.1,1.7-0.1
		s-1.3,1.8-3.3,4.2c-2,2.4-5.4,1.6-6.7,1.1C62.7,43.9,61.9,43.5,61.9,43.5z"/>
	<path class="st13" d="M61,44.6c0,0,0.3,1.8-1.2,3.7c-1.5,2-2.2,4.8-0.2,6.4s2.7,3.2,2.7,3.2s-0.3-0.2,1.1-1.8
		c1.5-1.6,2.2-4.9,1-6.9C63.3,47.3,61,44.6,61,44.6z"/>
	<path class="st14" d="M49.3,54.3c0,0,4.5-0.5,6.8,0c2.3,0.6,3.5,1.1,3.9,3.1c0.4,1.9,1.1,3.1,1.1,3.1s-3.2-0.2-4.4,0.3
		c-1.2,0.5-3.7,0.2-4.4-1.1C51.7,58.4,49.3,54.3,49.3,54.3z"/>
	<path class="st15" d="M64,59.4c0,0,0.5-2,1.7-4c1.2-2,1.9-2.9,3.4-2.9c1.4,0,2.7,0.2,4.2,0.6c1.4,0.3,1.9,0.6,2.3,0.2
		s-0.8,0.2-1.8,2.6c-1,2.4-1.2,3.7-2.5,4c-1.3,0.3-2.4-0.6-3.9-0.7S64,59.4,64,59.4z"/>
	<path class="st9" d="M38.3,67.8c1.5-1.1,4.6-2.6,6.8-3.6"/>
	<path class="st9" d="M37.2,62.4c2.3,1.3,6,2.5,8.9,2.2"/>
	<path class="st9" d="M40.5,58.7c0.7,3.1,0.9,5.9,4.3,5.7"/>
	<path class="st9" d="M51.6,64.4c3.6,0.9,7.8,1.3,10.6,0.5"/>
	<path class="st9" d="M53.7,70.5c2.9-2.7,8.2-5.5,9.3-6.1"/>
	<path class="st9" d="M56.2,61.8c0.8,2.3,0.8,4,5.2,3.4"/>
	<path class="st11" d="M37.9,73.2c1.3-0.7,2-0.3,2.6-3.9c0.6-3.6,0.6-3.6,0.6-3.6s-0.8,0-1.6-0.1c-0.9-0.1-4.1-0.7-5.4,1.8
		c-1.3,2.4-1.8,4-1.9,4.6c-0.1,0.5-0.7,2.3-0.9,2.7"/>
	<path class="st16" d="M26.5,59.8c1.7,1,2,4,4.6,4.8c2.6,0.8,6.4-0.6,7.5-0.8c1.2-0.3,1.4,0.7,0.1-0.9c-1.2-1.7-0.8-2.2-2.2-3.3
		s-5.1-1.5-6.1-0.9C29.5,59.2,26.5,59.8,26.5,59.8z"/>
	<path class="st12" d="M41.2,62.2c-0.3-0.4-1.1-0.6-2.7-2.7c-1.6-2-2.7-3.8-1.4-5.4c1.3-1.6,2-1.3,2.3-3c0.3-1.7,0.3-1.7,0.3-1.7
		s1.4,1.7,3.3,4.3c1.9,2.5,0.3,5.6-0.6,6.8C41.7,61.5,41.2,62.2,41.2,62.2z"/>
	<path class="st17" d="M42,63.3c0,0,1.8,0.1,3.3,2.1c1.5,1.9,4.1,3.3,6.2,1.7c2.1-1.6,3.7-1.8,3.7-1.8s-0.3,0.3-1.4-1.5
		c-1.2-1.8-4.2-3.3-6.4-2.7C45.2,61.7,42,63.3,42,63.3z"/>
	<path class="st13" d="M48.5,77.1c0,0,0.6-4.5,1.7-6.6s2-3.1,3.9-3s3.2-0.3,3.2-0.3s-1,3.1-0.8,4.4c0.2,1.3-0.7,3.7-2.1,4
		C53.1,75.8,48.5,77.1,48.5,77.1z"/>
	<path class="st15" d="M57.1,64.1c0,0-1.8-1-3.4-2.6c-1.6-1.6-2.3-2.6-2-4c0.3-1.4,0.9-2.6,1.6-3.9c0.6-1.3,1-1.7,0.8-2.2
		c-0.2-0.5,0,0.8,2.1,2.4c2,1.6,3.3,2.1,3.3,3.4c0,1.3-1.2,2.2-1.7,3.6S57.1,64.1,57.1,64.1z"/>
	<path class="st9" d="M66.8,83.1c-1-1.6-2.4-4.7-3.3-7"/>
	<path class="st9" d="M61.4,84c1.5-2.2,2.8-5.9,2.7-8.8"/>
	<path class="st9" d="M57.9,80.5c3.1-0.5,5.9-0.6,5.9-4"/>
	<path class="st9" d="M64.1,69.7c1.1-3.6,1.7-7.7,1-10.5"/>
	<path class="st9" d="M70.3,68c-2.5-3-5.1-8.5-5.6-9.5"/>
	<path class="st9" d="M61.8,64.9c2.3-0.7,4-0.6,3.7-5"/>
	<path class="st10" d="M72.2,83.8c-0.7-1.4-0.2-2-3.8-2.8s-3.6-0.7-3.6-0.7s-0.1,0.8-0.2,1.6c-0.1,0.9-0.9,4.1,1.5,5.5
		c2.4,1.4,3.9,2,4.5,2.1c0.5,0.1,2.2,0.9,2.7,1"/>
	<path class="st16" d="M58.3,94.5c1.1-1.7,4.1-1.8,5-4.3c0.9-2.5-0.2-6.4-0.4-7.6c-0.2-1.2,0.8-1.3-0.9-0.2c-1.7,1.2-2.2,0.7-3.5,2
		s-1.7,5-1.2,6S58.3,94.5,58.3,94.5z"/>
	<path class="st12" d="M61.4,80c-0.4,0.3-0.7,1-2.8,2.6c-2.1,1.5-4,2.5-5.5,1.1c-1.5-1.4-1.2-2.1-2.9-2.5s-1.7-0.4-1.7-0.4
		s1.8-1.3,4.4-3.1s5.6,0,6.7,0.9C60.8,79.4,61.4,80,61.4,80z"/>
	<path class="st17" d="M62.6,79.2c0,0,0.2-1.8,2.2-3.2c2-1.4,3.5-4,2-6.1c-1.5-2.1-1.6-3.8-1.6-3.8s0.3,0.3-1.6,1.4
		c-1.9,1.1-3.5,4.1-3,6.3S62.6,79.2,62.6,79.2z"/>
	<path class="st13" d="M76.6,73.4c0,0-4.4-0.8-6.5-2c-2-1.2-3-2.1-2.8-4.1c0.2-2-0.2-3.3-0.2-3.3s3,1.2,4.3,1
		c1.3-0.2,3.6,0.9,3.9,2.3C75.6,68.8,76.6,73.4,76.6,73.4z"/>
	<path class="st15" d="M64.1,64.2c0,0-1.1,1.8-2.8,3.3c-1.7,1.5-2.7,2.2-4.1,1.8c-1.4-0.4-2.6-1-3.8-1.8c-1.3-0.7-1.6-1.1-2.1-0.9
		c-0.5,0.2,0.8,0,2.5-1.9c1.7-1.9,2.3-3.2,3.6-3.1c1.3,0.1,2.2,1.3,3.5,1.8C62.3,63.9,64.1,64.2,64.1,64.2z"/>
	<path class="st9" d="M79.7,55.3c-1.4,1.3-4.3,3.1-6.4,4.3"/>
	<path class="st9" d="M81.4,60.5c-2.4-1.1-6.2-1.8-9.1-1.3"/>
	<path class="st9" d="M78.5,64.5c-1-3-1.5-5.7-4.8-5.2"/>
	<path class="st9" d="M66.8,60.1c-3.7-0.5-7.9-0.5-10.6,0.6"/>
	<path class="st9" d="M64.2,54.2c-2.6,2.9-7.6,6.3-8.6,7"/>
	<path class="st9" d="M62.5,63.1c-1.1-2.2-1.2-3.9-5.5-2.9"/>
	<path class="st10" d="M79.6,49.8c-1.2,0.9-2,0.5-2.2,4.2c-0.2,3.6-0.2,3.6-0.2,3.6s0.8,0,1.6-0.1s4.1,0.2,5.2-2.3s1.4-4.2,1.4-4.7
		c0-0.5,0.5-2.4,0.6-2.8"/>
	<path class="st16" d="M92.3,61.9c-1.8-0.8-2.4-3.8-5.1-4.3c-2.6-0.5-6.3,1.2-7.4,1.6c-1.2,0.4-1.4-0.6,0,0.9c1.4,1.5,1,2.1,2.5,3.1
		c1.6,1,5.2,0.9,6.2,0.3C89.4,62.9,92.3,61.9,92.3,61.9z"/>
	<path class="st11" d="M77.4,61.2c0.4,0.4,1.1,0.5,3,2.4c1.8,1.9,3.1,3.5,1.9,5.2c-1.1,1.7-1.9,1.5-2,3.2c-0.2,1.7-0.2,1.7-0.2,1.7
		s-1.6-1.6-3.7-3.9s-0.8-5.6-0.2-6.8C77,61.9,77.4,61.2,77.4,61.2z"/>
	<path class="st17" d="M76.5,60.1c0,0-1.8,0.1-3.5-1.7c-1.7-1.8-4.5-2.9-6.4-1.1c-1.9,1.8-3.5,2.2-3.5,2.2s0.2-0.3,1.6,1.4
		s4.6,2.8,6.7,2C73.5,62,76.5,60.1,76.5,60.1z"/>
	<path class="st14" d="M68.6,47.1c0,0-0.1,4.5-1,6.7C66.7,56,66,57.1,64,57.3c-2,0.2-3.2,0.7-3.2,0.7s0.7-3.1,0.3-4.4
		c-0.4-1.3,0.3-3.7,1.7-4.2C64.2,48.9,68.6,47.1,68.6,47.1z"/>
	<path class="st15" d="M61.4,60.9c0,0,1.9,0.8,3.7,2.2c1.8,1.4,2.6,2.3,2.4,3.8c-0.2,1.4-0.6,2.7-1.1,4.1c-0.5,1.4-0.8,1.8-0.6,2.3
		s-0.1-0.8-2.3-2.2c-2.2-1.4-3.5-1.8-3.6-3.1c-0.1-1.3,1-2.3,1.3-3.8C61.4,62.8,61.4,60.9,61.4,60.9z"/>
	<path class="st9" d="M26.7,55.3c1.8-0.6,5.2-0.9,7.6-1.2"/>
	<path class="st9" d="M27.4,49.8c1.7,2,4.9,4.3,7.7,5"/>
	<path class="st9" d="M31.7,47.4c-0.4,3.1-1.1,5.8,2.2,6.7"/>
	<path class="st9" d="M40.4,56.4c3.1,2.1,6.9,3.8,9.8,3.9"/>
	<path class="st9" d="M40.3,62.9c3.6-1.6,9.5-2.5,10.7-2.8"/>
	<path class="st9" d="M45.6,55.5c0.1,2.4-0.6,4,3.8,4.9"/>
	<path class="st10" d="M24.5,60.3c1.5-0.3,2,0.4,3.7-2.8c1.7-3.2,1.7-3.2,1.7-3.2s-0.7-0.3-1.5-0.6c-0.8-0.3-3.7-2-5.7-0.1
		c-2,1.9-3,3.2-3.3,3.7c-0.3,0.5-1.4,1.9-1.7,2.3"/>
	<path class="st11" d="M18.2,43.9c1.3,1.5,0.6,4.5,2.8,6.1s6.2,1.5,7.4,1.7c1.2,0.1,1,1.1,0.4-0.8c-0.6-2,0-2.3-1-3.9
		c-1-1.6-4.3-3.1-5.5-2.9S18.2,43.9,18.2,43.9z"/>
	<path class="st12" d="M31.2,50.9c-0.2-0.5-0.8-0.9-1.7-3.4c-0.9-2.5-1.3-4.5,0.5-5.6c1.7-1.1,2.3-0.6,3.2-2.1
		c0.9-1.5,0.9-1.5,0.9-1.5s0.8,2.1,1.7,5.1c0.9,3-1.6,5.4-2.7,6.2C32,50.5,31.2,50.9,31.2,50.9z"/>
	<path class="st13" d="M31.7,52.3c0,0,1.7,0.7,2.5,3c0.8,2.3,2.8,4.5,5.3,3.7c2.5-0.8,4.1-0.5,4.1-0.5s-0.3,0.2-0.9-1.9
		s-2.9-4.5-5.2-4.6C35.2,51.8,31.7,52.3,31.7,52.3z"/>
	<path class="st14" d="M33.3,67.4c0,0,2-4,3.7-5.7s2.9-2.3,4.7-1.6c1.9,0.7,3.2,0.7,3.2,0.7s-1.9,2.6-2.2,3.9
		c-0.2,1.3-1.9,3.2-3.3,3.1C38,67.7,33.3,67.4,33.3,67.4z"/>
	<path class="st15" d="M45.6,57.9c0,0-1.4-1.5-2.4-3.6c-1-2.1-1.4-3.2-0.6-4.4c0.8-1.2,1.7-2.2,2.8-3.2c1-1,1.5-1.3,1.5-1.8
		c-0.1-0.5-0.2,0.8,1.2,2.9c1.4,2.2,2.4,3.1,2,4.3s-1.9,1.7-2.7,2.9C46.4,56.3,45.6,57.9,45.6,57.9z"/>
	<path class="st9" d="M38.6,84c-0.1-1.9,0.4-5.3,0.7-7.7"/>
	<path class="st9" d="M33.4,82c2.4-1.2,5.4-3.7,6.7-6.2"/>
	<path class="st9" d="M32.2,77.2c2.9,1.1,5.4,2.5,7.1-0.5"/>
	<path class="st9" d="M43,70.9c2.8-2.5,5.4-5.8,6.2-8.6"/>
	<path class="st9" d="M49.3,72.6c-0.7-3.8-0.1-9.9,0-11.1"/>
	<path class="st9" d="M43.4,65.7c2.4,0.5,3.7,1.5,5.7-2.5"/>
	<path class="st11" d="M42.9,87.3c0.1-1.5,0.8-1.9-1.8-4.3c-2.7-2.4-2.7-2.4-2.7-2.4s-0.4,0.6-1,1.3c-0.5,0.7-2.8,3.1-1.5,5.5
		s2.4,3.7,2.8,4.1c0.4,0.4,1.5,1.9,1.8,2.2"/>
	<path class="st16" d="M25.5,89.5c1.7-0.9,4.5,0.5,6.5-1.2s3-5.6,3.4-6.8c0.4-1.1,1.4-0.7-0.7-0.6c-2.1,0.1-2.2-0.6-4,0
		s-4,3.5-4.1,4.6C26.6,86.6,25.5,89.5,25.5,89.5z"/>
	<path class="st12" d="M35.5,78.5c-0.5,0-1.1,0.5-3.7,0.8s-4.7,0.1-5.3-1.8c-0.6-2,0-2.4-1.2-3.6S24,72.6,24,72.6s2.2-0.3,5.4-0.4
		c3.1-0.2,4.8,2.9,5.3,4.2C35.2,77.7,35.5,78.5,35.5,78.5z"/>
	<path class="st17" d="M36.9,78.4c0,0,1.1-1.4,3.6-1.6c2.5-0.2,5.1-1.6,4.8-4.2c-0.2-2.6,0.5-4.1,0.5-4.1s0.1,0.4-2.1,0.4
		c-2.2,0-5.1,1.7-5.8,3.9C37.3,74.9,36.9,78.4,36.9,78.4z"/>
	<path class="st13" d="M51.9,80.5c0,0-3.4-2.9-4.6-5c-1.1-2.1-1.5-3.3-0.4-5s1.5-2.9,1.5-2.9s2,2.5,3.2,3s2.7,2.6,2.2,3.9
		C53.3,76,51.9,80.5,51.9,80.5z"/>
	<path class="st15" d="M45.8,66.2c0,0-1.8,1-4.1,1.4c-2.2,0.5-3.5,0.5-4.4-0.5c-1-1.1-1.7-2.2-2.4-3.4c-0.7-1.3-0.9-1.8-1.4-1.9
		c-0.5-0.1,0.7,0.4,3.1-0.4c2.4-0.8,3.6-1.6,4.7-0.9c1.1,0.7,1.2,2.2,2.1,3.4S45.8,66.2,45.8,66.2z"/>
	<path class="st9" d="M67,68.5c-1.9,0-5.2-0.6-7.6-1.1"/>
	<path class="st9" d="M64.8,73.6c-1.1-2.4-3.4-5.5-5.9-7"/>
	<path class="st9" d="M60,74.6c1.3-2.9,2.8-5.2-0.1-7.1"/>
	<path class="st9" d="M54.3,63.4c-2.4-2.9-5.5-5.6-8.2-6.6"/>
	<path class="st9" d="M56.3,57.3c-3.9,0.5-9.8-0.4-11.1-0.5"/>
	<path class="st9" d="M49.1,62.8c0.7-2.3,1.7-3.7-2.2-5.8"/>
	<path class="st10" d="M70.6,64.4c-1.5-0.2-1.8-0.9-4.4,1.6c-2.6,2.6-2.6,2.6-2.6,2.6s0.6,0.5,1.3,1c0.7,0.6,2.9,2.9,5.4,1.8
		c2.5-1.2,3.8-2.2,4.2-2.6s1.9-1.4,2.3-1.7"/>
	<path class="st16" d="M71.9,81.9c-0.8-1.8,0.7-4.4-0.9-6.6c-1.6-2.2-5.5-3.3-6.6-3.8c-1.1-0.5-0.7-1.4-0.6,0.7c0,2.1-0.7,2.2-0.2,4
		c0.5,1.8,3.3,4.2,4.4,4.3C69.1,80.6,71.9,81.9,71.9,81.9z"/>
	<path class="st12" d="M61.4,71.4c0,0.5,0.5,1.1,0.6,3.7c0.1,2.6-0.1,4.7-2.1,5.2c-2,0.5-2.4-0.1-3.7,1C55,82.5,55,82.5,55,82.5
		s-0.1-2.2-0.2-5.4c0-3.1,3.1-4.7,4.4-5.1C60.6,71.6,61.4,71.4,61.4,71.4z"/>
	<path class="st17" d="M61.4,69.9c0,0-1.4-1.2-1.5-3.6c-0.1-2.5-1.4-5.1-4-5.1c-2.6,0.1-4.1-0.7-4.1-0.7s0.4-0.1,0.3,2.1
		c-0.1,2.2,1.5,5.2,3.6,6S61.4,69.9,61.4,69.9z"/>
	<path class="st13" d="M64.3,55c0,0-3.1,3.3-5.2,4.3s-3.4,1.3-5,0.1c-1.6-1.2-2.8-1.6-2.8-1.6s2.6-1.9,3.2-3.1c0.6-1.2,2.7-2.6,4-2
		C59.8,53.4,64.3,55,64.3,55z"/>
	<path class="st15" d="M49.7,60.4c0,0,0.9,1.9,1.2,4.1c0.3,2.3,0.4,3.5-0.7,4.4c-1.1,0.9-2.3,1.6-3.6,2.2c-1.3,0.7-1.8,0.8-1.9,1.3
		c-0.1,0.5,0.4-0.7-0.3-3.1s-1.4-3.7-0.6-4.7c0.8-1.1,2.3-1.1,3.5-2S49.7,60.4,49.7,60.4z"/>
	<path class="st9" d="M50.8,42.5c0.3,1.9,0.2,5.3,0.1,7.7"/>
	<path class="st9" d="M56.1,43.9c-2.2,1.4-4.9,4.2-6,6.9"/>
	<path class="st9" d="M57.9,48.6c-3-0.8-5.6-1.9-7,1.2"/>
	<path class="st9" d="M47.8,55.9c-2.5,2.8-4.7,6.3-5.3,9.2"/>
	<path class="st9" d="M41.4,54.9c1.1,3.8,1.1,9.8,1.2,11"/>
	<path class="st9" d="M47.9,61.1c-2.4-0.3-3.9-1.1-5.4,3"/>
	<path class="st10" d="M46.2,39.6c0,1.5-0.6,2,2.3,4.1c2.9,2.1,2.9,2.1,2.9,2.1s0.4-0.7,0.8-1.4s2.5-3.3,0.9-5.6
		c-1.6-2.3-2.8-3.5-3.2-3.8c-0.4-0.3-1.7-1.7-2-2"/>
	<path class="st16" d="M63.2,35.6c-1.6,1.1-4.5,0-6.4,1.9c-1.9,1.9-2.4,5.9-2.7,7.1c-0.3,1.2-1.3,0.9,0.8,0.5c2-0.3,2.3,0.3,4-0.4
		c1.7-0.8,3.6-3.9,3.6-5S63.2,35.6,63.2,35.6z"/>
	<path class="st11" d="M54.5,47.6c0.5-0.1,1-0.6,3.6-1.2c2.6-0.5,4.6-0.6,5.5,1.2c0.8,1.9,0.3,2.4,1.6,3.5c1.3,1.1,1.3,1.1,1.3,1.1
		s-2.2,0.5-5.3,1s-5.1-2.3-5.8-3.6C54.8,48.4,54.5,47.6,54.5,47.6z"/>
	<path class="st17" d="M53.1,47.8c0,0-0.9,1.5-3.4,2c-2.4,0.5-4.9,2.2-4.4,4.7c0.5,2.6-0.1,4.1-0.1,4.1s-0.1-0.4,2-0.6
		s4.9-2.3,5.3-4.5C53.1,51.4,53.1,47.8,53.1,47.8z"/>
	<path class="st14" d="M37.9,47.3c0,0,3.7,2.5,5.1,4.5c1.4,1.9,1.9,3.2,0.9,4.9c-1,1.7-1.2,3-1.2,3s-2.3-2.3-3.5-2.7
		c-1.3-0.4-3-2.3-2.6-3.7C37,52,37.9,47.3,37.9,47.3z"/>
	<path class="st15" d="M45.5,60.9c0,0,1.7-1.2,3.9-1.9c2.2-0.7,3.4-0.9,4.5,0c1.1,0.9,1.9,2,2.8,3.2c0.9,1.2,1,1.7,1.6,1.7
		c0.5,0-0.7-0.3-3.1,0.7c-2.3,1.1-3.4,2-4.6,1.4c-1.2-0.6-1.4-2.1-2.5-3.1C47.1,61.9,45.5,60.9,45.5,60.9z"/>
	<path class="st9" d="M79.4,75.8c-1.8-0.4-5-1.8-7.2-2.7"/>
	<path class="st9" d="M76.1,80.2c-0.5-2.6-2.1-6.2-4.2-8.2"/>
	<path class="st9" d="M71.2,80.1c1.9-2.5,3.8-4.5,1.5-6.9"/>
	<path class="st9" d="M68.1,68c-1.7-3.4-4.2-6.7-6.6-8.3"/>
	<path class="st9" d="M71.4,62.5c-3.9-0.4-9.5-2.6-10.7-2.9"/>
	<path class="st9" d="M63.2,66.2c1.1-2.1,2.5-3.2-0.8-6.1"/>
	<path class="st10" d="M83.8,72.5c-1.4-0.5-1.6-1.3-4.6,0.6c-3.1,1.9-3.1,1.9-3.1,1.9s0.5,0.6,1,1.3c0.5,0.7,2.2,3.5,4.9,2.9
		c2.7-0.6,4.2-1.3,4.7-1.6c0.5-0.3,2.2-1,2.6-1.1"/>
	<path class="st11" d="M81.2,89.9c-0.4-1.9,1.7-4.2,0.6-6.6c-1.1-2.5-4.6-4.4-5.6-5.1c-1-0.7-0.3-1.5-0.8,0.5c-0.4,2-1.1,2-1.1,3.9
		c0.1,1.9,2.2,4.8,3.3,5.2S81.2,89.9,81.2,89.9z"/>
	<path class="st12" d="M73.3,77.3c-0.1,0.5,0.2,1.2-0.2,3.8c-0.5,2.6-1.1,4.5-3.2,4.6c-2,0.1-2.3-0.6-3.8,0.2
		c-1.5,0.9-1.5,0.9-1.5,0.9s0.4-2.2,1-5.3c0.7-3.1,4.1-3.9,5.5-4C72.5,77.4,73.3,77.3,73.3,77.3z"/>
	<path class="st13" d="M73.6,75.9c0,0-1.1-1.4-0.6-3.9s-0.2-5.3-2.8-5.8s-3.8-1.6-3.8-1.6s0.4,0-0.2,2.1c-0.6,2.1,0.3,5.4,2.2,6.6
		C70.4,74.6,73.6,75.9,73.6,75.9z"/>
	<path class="st14" d="M79.7,62c0,0-3.7,2.5-6,3.1s-3.6,0.6-4.9-1c-1.3-1.5-2.4-2.2-2.4-2.2s3-1.3,3.8-2.3c0.8-1,3.2-1.9,4.4-1
		S79.7,62,79.7,62z"/>
	<path class="st15" d="M64.3,64.1c0,0,0.5,2,0.3,4.3s-0.4,3.5-1.7,4.1c-1.3,0.7-2.6,1-4,1.4s-2,0.3-2.2,0.8
		c-0.2,0.5,0.6-0.6,0.4-3.1c-0.1-2.6-0.6-3.9,0.4-4.7s2.5-0.5,3.8-1.1C62.8,65.2,64.3,64.1,64.3,64.1z"/>
	<path class="st9" d="M32,35c1.8-0.6,5.2-0.9,7.6-1.2"/>
	<path class="st9" d="M32.7,29.5c1.7,2,4.9,4.3,7.7,5"/>
	<path class="st9" d="M37,27.1c-0.4,3.1-1.1,5.8,2.2,6.7"/>
	<path class="st9" d="M45.7,36.1c3.1,2.1,6.9,3.8,9.8,3.9"/>
	<path class="st9" d="M45.6,42.6c3.6-1.6,9.5-2.5,10.7-2.8"/>
	<path class="st9" d="M50.9,35.2c0.1,2.4-0.6,4,3.8,4.9"/>
	<path class="st10" d="M29.9,40c1.5-0.3,2,0.4,3.7-2.8c1.7-3.2,1.7-3.2,1.7-3.2s-0.7-0.3-1.5-0.6s-3.7-2-5.7-0.1
		c-2,1.9-3,3.2-3.3,3.7c-0.3,0.5-1.4,1.9-1.7,2.3"/>
	<path class="st11" d="M23.5,23.7c1.3,1.5,0.6,4.5,2.8,6.1c2.2,1.6,6.2,1.5,7.4,1.7s1,1.1,0.4-0.8c-0.6-2,0-2.3-1-3.9
		s-4.3-3.1-5.5-2.9C26.5,24,23.5,23.7,23.5,23.7z"/>
	<path class="st12" d="M36.6,30.6c-0.2-0.5-0.8-0.9-1.7-3.4c-0.9-2.5-1.3-4.5,0.5-5.6s2.3-0.6,3.2-2.1c0.9-1.5,0.9-1.5,0.9-1.5
		s0.8,2.1,1.7,5.1c0.9,3-1.6,5.4-2.7,6.2C37.3,30.2,36.6,30.6,36.6,30.6z"/>
	<path class="st13" d="M37,32c0,0,1.7,0.7,2.5,3s2.8,4.5,5.3,3.7c2.5-0.8,4.1-0.5,4.1-0.5s-0.3,0.2-0.9-1.9s-2.9-4.5-5.2-4.6
		C40.5,31.5,37,32,37,32z"/>
	<path class="st14" d="M38.7,47.1c0,0,2-4,3.7-5.7s2.9-2.3,4.7-1.6c1.9,0.7,3.2,0.7,3.2,0.7s-1.9,2.6-2.2,3.9s-1.9,3.2-3.3,3.1
		C43.4,47.4,38.7,47.1,38.7,47.1z"/>
	<path class="st15" d="M51,37.6c0,0-1.4-1.5-2.4-3.6c-1-2.1-1.4-3.2-0.6-4.4s1.7-2.2,2.8-3.2c1-1,1.5-1.3,1.5-1.8
		c-0.1-0.5-0.2,0.8,1.2,2.9s2.4,3.1,2,4.3c-0.4,1.2-1.9,1.7-2.7,2.9S51,37.6,51,37.6z"/>
	<path class="st9" d="M43.9,63.7c-0.1-1.9,0.4-5.3,0.7-7.7"/>
	<path class="st9" d="M38.8,61.7c2.4-1.2,5.4-3.7,6.7-6.2"/>
	<path class="st9" d="M37.5,56.9c2.9,1.1,5.4,2.5,7.1-0.5"/>
	<path class="st9" d="M48.3,50.6c2.8-2.5,5.4-5.8,6.2-8.6"/>
	<path class="st9" d="M54.6,52.4c-0.7-3.8-0.1-9.9,0-11.1"/>
	<path class="st9" d="M48.8,45.4c2.4,0.5,3.7,1.5,5.7-2.5"/>
	<path class="st11" d="M48.2,67c0.1-1.5,0.8-1.9-1.8-4.3c-2.7-2.4-2.7-2.4-2.7-2.4s-0.4,0.6-1,1.3s-2.8,3.1-1.5,5.5s2.4,3.7,2.8,4.1
		s1.5,1.9,1.8,2.2"/>
	<path class="st16" d="M30.8,69.2c1.7-0.9,4.5,0.5,6.5-1.2c2.1-1.7,3-5.6,3.4-6.8c0.4-1.1,1.4-0.7-0.7-0.6s-2.2-0.6-4,0
		c-1.8,0.6-4,3.5-4.1,4.6C31.9,66.3,30.8,69.2,30.8,69.2z"/>
	<path class="st12" d="M40.8,58.2c-0.5,0-1.1,0.5-3.7,0.8c-2.6,0.3-4.7,0.1-5.3-1.8c-0.6-2,0-2.4-1.2-3.6s-1.2-1.2-1.2-1.2
		s2.2-0.3,5.4-0.4c3.1-0.2,4.8,2.9,5.3,4.2C40.5,57.4,40.8,58.2,40.8,58.2z"/>
	<path class="st17" d="M42.2,58.1c0,0,1.1-1.4,3.6-1.6c2.5-0.2,5.1-1.6,4.8-4.2c-0.2-2.6,0.5-4.1,0.5-4.1s0.1,0.4-2.1,0.4
		c-2.2,0-5.1,1.7-5.8,3.9C42.6,54.6,42.2,58.1,42.2,58.1z"/>
	<path class="st13" d="M57.3,60.2c0,0-3.4-2.9-4.6-5c-1.1-2.1-1.5-3.3-0.4-5c1.1-1.6,1.5-2.9,1.5-2.9s2,2.5,3.2,3
		c1.2,0.5,2.7,2.6,2.2,3.9C58.7,55.7,57.3,60.2,57.3,60.2z"/>
	<path class="st15" d="M51.1,46c0,0-1.8,1-4.1,1.4s-3.5,0.5-4.4-0.5c-1-1.1-1.7-2.2-2.4-3.4c-0.7-1.3-0.9-1.8-1.4-1.9
		c-0.5-0.1,0.7,0.4,3.1-0.4c2.4-0.8,3.6-1.6,4.7-0.9s1.2,2.2,2.1,3.4C49.7,44.8,51.1,46,51.1,46z"/>
	<path class="st9" d="M72.4,48.2c-1.9,0-5.2-0.6-7.6-1.1"/>
	<path class="st9" d="M70.1,53.3c-1.1-2.4-3.4-5.5-5.9-7"/>
	<path class="st9" d="M65.3,54.3c1.3-2.9,2.8-5.2-0.1-7.1"/>
	<path class="st9" d="M59.6,43.1c-2.4-2.9-5.5-5.6-8.2-6.6"/>
	<path class="st9" d="M61.6,37c-3.9,0.5-9.8-0.4-11.1-0.5"/>
	<path class="st9" d="M54.4,42.5c0.7-2.3,1.7-3.7-2.2-5.8"/>
	<path class="st10" d="M75.9,44.1c-1.5-0.2-1.8-0.9-4.4,1.6C69,48.3,69,48.3,69,48.3s0.6,0.5,1.3,1s2.9,2.9,5.4,1.8
		c2.5-1.2,3.8-2.2,4.2-2.6c0.4-0.4,1.9-1.4,2.3-1.7"/>
	<path class="st16" d="M77.2,61.6c-0.8-1.8,0.7-4.4-0.9-6.6c-1.6-2.2-5.5-3.3-6.6-3.8c-1.1-0.5-0.7-1.4-0.6,0.7c0,2.1-0.7,2.2-0.2,4
		c0.5,1.8,3.3,4.2,4.4,4.3C74.4,60.4,77.2,61.6,77.2,61.6z"/>
	<path class="st12" d="M66.8,51.1c0,0.5,0.5,1.1,0.6,3.7c0.1,2.6-0.1,4.7-2.1,5.2c-2,0.5-2.4-0.1-3.7,1c-1.3,1.2-1.3,1.2-1.3,1.2
		s-0.1-2.2-0.2-5.4s3.1-4.7,4.4-5.1C65.9,51.3,66.8,51.1,66.8,51.1z"/>
	<path class="st17" d="M66.7,49.7c0,0-1.4-1.2-1.5-3.6c-0.1-2.5-1.4-5.1-4-5.1c-2.6,0.1-4.1-0.7-4.1-0.7s0.4-0.1,0.3,2.1
		c-0.1,2.2,1.5,5.2,3.6,6C63.3,49.1,66.7,49.7,66.7,49.7z"/>
	<path class="st13" d="M69.6,34.7c0,0-3.1,3.3-5.2,4.3c-2.1,1-3.4,1.3-5,0.1s-2.8-1.6-2.8-1.6s2.6-1.9,3.2-3.1c0.6-1.2,2.7-2.6,4-2
		C65.2,33.1,69.6,34.7,69.6,34.7z"/>
	<path class="st15" d="M55.1,40.1c0,0,0.9,1.9,1.2,4.1c0.3,2.3,0.4,3.5-0.7,4.4c-1.1,0.9-2.3,1.6-3.6,2.2c-1.3,0.7-1.8,0.8-1.9,1.3
		s0.4-0.7-0.3-3.1c-0.7-2.5-1.4-3.7-0.6-4.7s2.3-1.1,3.5-2S55.1,40.1,55.1,40.1z"/>
	<path class="st9" d="M56.2,22.2c0.3,1.9,0.2,5.3,0.1,7.7"/>
	<path class="st9" d="M61.5,23.7c-2.2,1.4-4.9,4.2-6,6.9"/>
	<path class="st9" d="M63.2,28.3c-3-0.8-5.6-1.9-7,1.2"/>
	<path class="st9" d="M53.1,35.6c-2.5,2.8-4.7,6.3-5.3,9.2"/>
	<path class="st9" d="M46.7,34.6c1.1,3.8,1.1,9.8,1.2,11"/>
	<path class="st9" d="M53.2,40.9c-2.4-0.3-3.9-1.1-5.4,3"/>
	<path class="st10" d="M51.5,19.3c0,1.5-0.6,2,2.3,4.1s2.9,2.1,2.9,2.1s0.4-0.7,0.8-1.4c0.5-0.7,2.5-3.3,0.9-5.6s-2.8-3.5-3.2-3.8
		s-1.7-1.7-2-2"/>
	<path class="st16" d="M68.6,15.4c-1.6,1.1-4.5,0-6.4,1.9s-2.4,5.9-2.7,7.1c-0.3,1.2-1.3,0.9,0.8,0.5s2.3,0.3,4-0.4
		c1.7-0.8,3.6-3.9,3.6-5C67.8,18.3,68.6,15.4,68.6,15.4z"/>
	<path class="st11" d="M59.8,27.3c0.5-0.1,1-0.6,3.6-1.2c2.6-0.5,4.6-0.6,5.5,1.2c0.8,1.9,0.3,2.4,1.6,3.5c1.3,1.1,1.3,1.1,1.3,1.1
		s-2.2,0.5-5.3,1c-3.1,0.5-5.1-2.3-5.8-3.6C60.2,28.1,59.8,27.3,59.8,27.3z"/>
	<path class="st17" d="M58.4,27.6c0,0-0.9,1.5-3.4,2c-2.4,0.5-4.9,2.2-4.4,4.7s-0.1,4.1-0.1,4.1s-0.1-0.4,2-0.6
		c2.1-0.2,4.9-2.3,5.3-4.5C58.4,31.1,58.4,27.6,58.4,27.6z"/>
	<path class="st14" d="M43.2,27c0,0,3.7,2.5,5.1,4.5s1.9,3.2,0.9,4.9s-1.2,3-1.2,3s-2.3-2.3-3.5-2.7c-1.3-0.4-3-2.3-2.6-3.7
		C42.3,31.7,43.2,27,43.2,27z"/>
	<path class="st15" d="M50.8,40.6c0,0,1.7-1.2,3.9-1.9c2.2-0.7,3.4-0.9,4.5,0c1.1,0.9,1.9,2,2.8,3.2c0.9,1.2,1,1.7,1.6,1.7
		c0.5,0-0.7-0.3-3.1,0.7c-2.3,1.1-3.4,2-4.6,1.4c-1.2-0.6-1.4-2.1-2.5-3.1C52.4,41.6,50.8,40.6,50.8,40.6z"/>
	<path class="st18" d="M28,44.4c-1.8,1-2.3,4.4,0.2,4.9c2.8-0.2,3.5-1.8,3.9-3.2C30.9,44.2,29.1,43.8,28,44.4"/>
	<path class="st18" d="M23.9,42.2c-0.1,0-0.2,0-0.2,0c0,0.1,0,0.2,0,0.2C23.7,42.3,23.8,42.2,23.9,42.2"/>
	<path class="st18" d="M31.8,46.2C31.8,46.2,31.8,46.2,31.8,46.2L31.8,46.2C31.8,46.2,31.8,46.2,31.8,46.2"/>
	<path class="st18" d="M31.8,46.2C31.8,46.2,31.8,46.2,31.8,46.2L31.8,46.2C31.8,46.2,31.8,46.2,31.8,46.2"/>
	<path class="st19" d="M35.7,36.2c0.5,0.4,0.9,1,1.2,1.5c1.4,2.3,1.8,5.2,0.9,7.5c0,0,0,0,0,0c-0.3,3.7-1.5,5.9-3.1,7.2
		c-0.2,1.9-0.7,3.4-1.4,4.5c3.2,0.7,9.7-3.5,7.4-9.7C44.3,43.7,43.9,36.1,35.7,36.2"/>
	<path class="st18" d="M34,52.8c-0.9,0.5-1.8,0.8-2.8,0.8c-3.6,2.3-6.9,1.8-9.3,0.2c0.1,4.3,8.1,7.9,11.4,3c0.7-1.1,1.2-2.5,1.4-4.5
		C34.5,52.5,34.3,52.7,34,52.8"/>
	<path class="st20" d="M37.8,45.2c-0.1,0.2-0.1,0.3-0.2,0.5c-1.2,2.5-4.1,4.2-9.2,3.4c0,0,0,0,0,0c-3.6-0.8-0.5-7.8,3.5-2.9l0,0
		c0.6-3.3-0.4-5.1-1.9-5.9c-1.8-0.8-4.4-0.1-6,1.9c-0.1,0.1-0.1,0.2-0.2,0.3c-1.2,1.6-1.7,3.9-0.6,6.7c0.4,1,1.3,2,2.4,2.7
		c1.6,1.1,3.7,1.9,5.8,1.7c1-0.1,2-0.3,2.8-0.8c0.2-0.1,0.4-0.3,0.7-0.4C36.3,51.1,37.5,48.9,37.8,45.2
		C37.8,45.2,37.8,45.2,37.8,45.2"/>
	<path class="st18" d="M23.7,42.2c-0.2-2.1,0.1-3.8,0.7-5.1c-3.5,0.7-4.6,3.8-4.7,6.6C20.5,42.9,21.8,42.3,23.7,42.2"/>
	<path class="st21" d="M19.6,43.7c-2.8,2.6-1.3,7.7,2.3,10.2c2.4,1.6,5.7,2,9.3-0.2c-2,0.1-4.2-0.6-5.8-1.7c-1.1-0.8-2-1.8-2.4-2.7
		c-0.6-1.5-0.7-2.8-0.5-4c0.2-1,0.6-2,1.1-2.7c0-0.1,0-0.2,0-0.2C21.8,42.3,20.5,42.9,19.6,43.7"/>
	<path class="st22" d="M24.3,37.1c-0.6,1.3-0.9,2.9-0.7,5.1c0.1,0,0.2,0,0.2,0c1.3-1.5,3.1-2.3,4.8-2.2c0.4,0,0.9,0.1,1.3,0.3
		c1.5,0.7,2.5,2.6,1.9,5.9c0,0,0,0,0,0c0,0,0,0,0,0c-0.3,1.1-1,2.6-3.2,2.8c0,0-0.2,0-0.2,0c5.1,0.8,8-0.9,9.2-3.4
		c0.1-0.2,0.1-0.3,0.2-0.5c0.9-2.3,0.5-5.2-0.9-7.5c-0.3-0.6-0.7-1.1-1.2-1.5C32.5,33.1,26.5,32.7,24.3,37.1"/>
	<path class="st18" d="M55,26.7c-1.9-0.9-5,0.7-4,3c1.8,2.2,3.6,1.9,5,1.4C56.8,28.9,56.1,27.2,55,26.7"/>
	<path class="st18" d="M54.5,21.9c0-0.1-0.1-0.1-0.2-0.2c-0.1,0.1-0.1,0.1-0.2,0.2C54.3,21.9,54.4,21.9,54.5,21.9"/>
	<path class="st18" d="M55.8,30.9C55.8,30.9,55.8,30.9,55.8,30.9L55.8,30.9C55.8,30.9,55.8,30.9,55.8,30.9"/>
	<path class="st18" d="M55.8,30.9C55.8,30.9,55.8,30.9,55.8,30.9L55.8,30.9C55.8,30.9,55.8,30.9,55.8,30.9"/>
	<path class="st19" d="M66.3,28.3c-0.1,0.7-0.3,1.3-0.6,1.9c-1.2,2.5-3.3,4.5-5.7,5.1c0,0,0,0,0,0c-3.2,1.9-5.8,2.2-7.8,1.6
		c-1.7,1-3.2,1.4-4.5,1.4c1.3,3.1,8.5,6,12.4,0.6C65.1,39.8,71.1,35.1,66.3,28.3"/>
	<path class="st18" d="M51.5,36.6c-0.9-0.4-1.7-1.1-2.3-1.9c-4-1.7-5.5-4.7-5.6-7.6c-3.6,2.6-1.9,11.3,4.1,11.2
		c1.3,0,2.8-0.4,4.5-1.4C52,36.8,51.7,36.7,51.5,36.6"/>
	<path class="st20" d="M60,35.3c-0.2,0-0.3,0.1-0.5,0.1c-2.8,0.4-5.9-1-8.2-5.7c0,0,0,0,0,0c-1.4-3.4,6.2-5,4.4,1.2h0
		c3.1-1.4,4.1-3.3,3.8-5c-0.4-2-2.5-3.7-5-4c-0.1,0-0.2,0-0.3,0c-2-0.1-4.3,0.8-6,3.4c-0.6,0.9-0.9,2.2-0.9,3.6c0,2,0.6,4.2,1.9,5.8
		c0.6,0.8,1.4,1.5,2.3,1.9c0.2,0.1,0.5,0.2,0.7,0.3C54.2,37.5,56.8,37.2,60,35.3C60,35.3,60,35.3,60,35.3"/>
	<path class="st18" d="M54.3,21.7c1.7-1.4,3.2-2.1,4.6-2.4c-2.6-2.6-5.8-1.7-8.2-0.1C51.9,19.6,53.2,20.3,54.3,21.7"/>
	<path class="st21" d="M50.7,19.3c-3.8-0.9-7.2,3.4-7.1,7.8c0.1,2.9,1.6,5.9,5.6,7.6c-1.3-1.6-1.9-3.8-1.9-5.8
		c0-1.4,0.3-2.7,0.9-3.6c0.9-1.3,2-2.2,3-2.7c1-0.5,2-0.6,2.9-0.6c0.1-0.1,0.1-0.1,0.2-0.2C53.2,20.3,51.9,19.6,50.7,19.3"/>
	<path class="st22" d="M59,19.4c-1.4,0.2-3,1-4.6,2.4c0,0.1,0.1,0.1,0.2,0.2c2,0.2,3.7,1.3,4.6,2.7c0.2,0.4,0.4,0.8,0.5,1.2
		c0.3,1.7-0.7,3.6-3.8,5c0,0,0,0,0,0c0,0,0,0,0,0c-1.1,0.4-2.8,0.7-4.2-1.1c0,0-0.1-0.2-0.2-0.2c2.3,4.7,5.4,6.2,8.2,5.7
		c0.2,0,0.3-0.1,0.5-0.1c2.4-0.6,4.6-2.6,5.7-5.1c0.3-0.6,0.5-1.2,0.6-1.9C67,23.9,63.9,18.6,59,19.4"/>
	<path class="st18" d="M51.9,51.3c-1.5-0.7-4.1,0.5-3.3,2.5c1.4,1.8,3,1.5,4.1,1.1C53.3,53.1,52.8,51.7,51.9,51.3"/>
	<path class="st18" d="M51.4,47.3c0-0.1-0.1-0.1-0.1-0.2c-0.1,0-0.1,0.1-0.2,0.1C51.2,47.3,51.3,47.3,51.4,47.3"/>
	<path class="st18" d="M52.4,54.7C52.5,54.7,52.5,54.7,52.4,54.7L52.4,54.7C52.5,54.7,52.4,54.7,52.4,54.7"/>
	<path class="st18" d="M52.4,54.7C52.5,54.7,52.5,54.7,52.4,54.7L52.4,54.7C52.5,54.7,52.4,54.7,52.4,54.7"/>
	<path class="st19" d="M61.1,52.6c-0.1,0.5-0.2,1.1-0.5,1.5c-0.9,2.1-2.7,3.7-4.7,4.2c0,0,0,0,0,0c-2.6,1.5-4.8,1.8-6.4,1.3
		c-1.4,0.8-2.6,1.2-3.7,1.2c1,2.5,7,4.9,10.2,0.5C60.1,62.1,65.1,58.2,61.1,52.6"/>
	<path class="st18" d="M49,59.4c-0.8-0.4-1.4-0.9-1.9-1.6c-3.3-1.4-4.5-3.8-4.6-6.2c-2.9,2.1-1.5,9.3,3.4,9.2c1.1,0,2.3-0.4,3.7-1.2
		C49.4,59.5,49.2,59.5,49,59.4"/>
	<path class="st20" d="M55.9,58.3c-0.1,0-0.3,0.1-0.4,0.1c-2.3,0.4-4.8-0.9-6.7-4.7c0,0,0,0,0,0c-1.2-2.8,5.1-4.1,3.6,1h0
		c2.6-1.1,3.3-2.7,3.1-4.1c-0.3-1.7-2.1-3.1-4.1-3.3c-0.1,0-0.2,0-0.3,0c-1.7-0.1-3.5,0.7-4.9,2.8c-0.5,0.7-0.7,1.8-0.7,2.9
		c0,1.6,0.5,3.4,1.6,4.8c0.5,0.7,1.1,1.2,1.9,1.6c0.2,0.1,0.4,0.2,0.6,0.2C51.2,60.1,53.3,59.9,55.9,58.3
		C55.9,58.3,55.9,58.3,55.9,58.3"/>
	<path class="st18" d="M51.3,47.2c1.4-1.1,2.6-1.7,3.8-1.9c-2.1-2.1-4.8-1.4-6.8-0.1C49.3,45.4,50.3,46,51.3,47.2"/>
	<path class="st21" d="M48.3,45.2c-3.1-0.7-5.9,2.8-5.9,6.4c0,2.4,1.3,4.9,4.6,6.2c-1-1.3-1.6-3.2-1.6-4.8c0-1.2,0.2-2.2,0.7-2.9
		c0.7-1.1,1.6-1.8,2.5-2.3c0.8-0.4,1.6-0.5,2.4-0.5c0.1,0,0.1-0.1,0.2-0.1C50.3,46,49.3,45.4,48.3,45.2"/>
	<path class="st22" d="M55.1,45.3c-1.2,0.2-2.4,0.8-3.8,1.9c0,0,0.1,0.1,0.1,0.2c1.6,0.1,3.1,1.1,3.8,2.2c0.2,0.3,0.3,0.7,0.4,1
		c0.3,1.4-0.5,3-3.1,4.1c0,0,0,0,0,0c0,0,0,0,0,0c-0.9,0.3-2.3,0.6-3.5-0.9c0,0-0.1-0.1-0.1-0.1c1.9,3.9,4.4,5.1,6.7,4.7
		c0.1,0,0.3,0,0.4-0.1c2-0.5,3.8-2.1,4.7-4.2c0.2-0.5,0.4-1,0.5-1.5C61.7,48.9,59.1,44.6,55.1,45.3"/>
	<path class="st18" d="M81.6,42.5c0.1-1.9-2.2-4-3.9-2.3c-1.2,2.2-0.4,3.7,0.5,4.6C80.3,44.8,81.6,43.6,81.6,42.5"/>
	<path class="st18" d="M85.5,40.5c0-0.1,0.1-0.1,0.1-0.2c-0.1,0-0.1-0.1-0.2-0.1C85.4,40.3,85.4,40.4,85.5,40.5"/>
	<path class="st18" d="M78.4,44.6C78.4,44.6,78.4,44.6,78.4,44.6L78.4,44.6C78.4,44.6,78.4,44.6,78.4,44.6"/>
	<path class="st18" d="M78.4,44.6C78.4,44.6,78.4,44.6,78.4,44.6L78.4,44.6C78.4,44.6,78.4,44.6,78.4,44.6"/>
	<path class="st19" d="M84.1,52.6c-0.6,0.1-1.2,0.2-1.8,0.2c-2.5-0.1-4.9-1.3-6.2-3.1c0,0,0,0,0,0c-2.7-2.1-3.8-4.1-3.9-6
		c-1.4-1.1-2.3-2.2-2.7-3.3c-2.2,2.1-2.2,9.2,3.7,10.6C74,55.4,80,58.9,84.1,52.6"/>
	<path class="st18" d="M72.2,42.9c0.1-0.9,0.3-1.8,0.8-2.6c0.1-3.9,2.1-6.2,4.5-7.3c-3.4-2.1-10.1,2.2-8,7.3
		c0.5,1.1,1.3,2.2,2.7,3.3C72.1,43.4,72.1,43.1,72.2,42.9"/>
	<path class="st20" d="M76.1,49.6c-0.1-0.1-0.2-0.3-0.3-0.4c-1.3-2.2-1.1-5.3,2.1-8.8c0,0,0,0,0,0c2.4-2.4,6.3,3.6,0.5,4.1l0,0
		c2.2,2.1,4.1,2.3,5.5,1.5c1.6-1,2.3-3.4,1.6-5.6c0-0.1-0.1-0.2-0.1-0.3c-0.6-1.7-2.2-3.3-4.8-3.9c-0.9-0.2-2.1,0-3.3,0.5
		c-1.7,0.7-3.3,1.9-4.2,3.6c-0.5,0.8-0.8,1.7-0.8,2.6c0,0.2,0,0.5,0,0.7C72.3,45.5,73.4,47.6,76.1,49.6
		C76.1,49.6,76.1,49.6,76.1,49.6"/>
	<path class="st18" d="M85.6,40.3c1.7,0.9,2.9,2,3.5,3.1c1.3-3-0.6-5.5-2.7-6.9C86.6,37.5,86.3,38.8,85.6,40.3"/>
	<path class="st21" d="M86.4,36.4c-0.6-3.5-5.3-4.9-9-3.4c-2.4,1-4.4,3.4-4.5,7.3c0.9-1.6,2.6-2.9,4.2-3.6c1.2-0.5,2.4-0.7,3.3-0.5
		c1.4,0.3,2.5,0.9,3.3,1.6c0.7,0.7,1.2,1.4,1.5,2.2c0.1,0,0.1,0.1,0.2,0.1C86.3,38.8,86.6,37.5,86.4,36.4"/>
	<path class="st22" d="M89.1,43.4c-0.7-1.1-1.8-2.2-3.5-3.1c0,0.1-0.1,0.1-0.1,0.2c0.5,1.7,0.2,3.6-0.7,4.8
		c-0.3,0.3-0.5,0.6-0.9,0.8c-1.3,0.8-3.2,0.7-5.5-1.5c0,0,0,0,0,0c0,0,0,0,0,0c-0.7-0.8-1.6-2.1-0.6-3.9c0,0,0.1-0.2,0.1-0.2
		c-3.2,3.5-3.4,6.6-2.1,8.8c0.1,0.1,0.2,0.3,0.3,0.4c1.3,1.8,3.7,3,6.2,3.1c0.6,0,1.2,0,1.8-0.2C88.1,51.6,91.4,47.2,89.1,43.4"/>
	<path class="st18" d="M73.4,72.7c2-0.8,3-4.2,0.5-5.1C71,67.4,70,69,69.4,70.3C70.5,72.5,72.2,73.2,73.4,72.7"/>
	<path class="st18" d="M77.4,75.7c0.1,0,0.2,0,0.2,0c0-0.1,0-0.2,0-0.3C77.5,75.5,77.4,75.6,77.4,75.7"/>
	<path class="st18" d="M69.7,70.3C69.7,70.3,69.7,70.3,69.7,70.3L69.7,70.3C69.7,70.3,69.7,70.3,69.7,70.3"/>
	<path class="st18" d="M69.7,70.3C69.7,70.3,69.7,70.3,69.7,70.3L69.7,70.3C69.7,70.3,69.7,70.3,69.7,70.3"/>
	<path class="st19" d="M64.2,80c-0.4-0.5-0.8-1.1-1-1.7c-1.1-2.6-1.1-5.7,0.2-7.9c0,0,0,0,0,0c0.9-3.7,2.4-5.9,4.3-6.9
		c0.4-2,1.2-3.4,2.1-4.4c-3.2-1.2-10.5,2.2-9.2,8.9C56.5,71,55.7,78.9,64.2,80"/>
	<path class="st18" d="M68.5,63.1c1-0.4,2-0.5,3.1-0.4c4-1.8,7.4-0.9,9.6,1.1c0.6-4.5-7.2-9.4-11.3-4.8c-0.9,1-1.7,2.4-2.1,4.4
		C68,63.3,68.2,63.2,68.5,63.1"/>
	<path class="st20" d="M63.4,70.4c0.1-0.2,0.2-0.3,0.3-0.5c1.6-2.4,4.9-3.7,10.1-2.1c0,0,0,0,0,0c3.6,1.3-0.7,8.2-4,2.5l0,0
		c-1.1,3.3-0.4,5.4,1.1,6.3c1.8,1.1,4.6,0.7,6.5-1c0.1-0.1,0.2-0.2,0.3-0.2c1.5-1.5,2.4-3.8,1.7-6.8c-0.2-1.1-1-2.2-2.1-3.2
		c-1.5-1.4-3.6-2.5-5.7-2.7c-1-0.1-2.1,0-3.1,0.4c-0.3,0.1-0.5,0.2-0.7,0.4C65.9,64.5,64.3,66.7,63.4,70.4
		C63.4,70.4,63.4,70.4,63.4,70.4"/>
	<path class="st18" d="M77.6,75.7c-0.1,2.2-0.7,3.9-1.5,5.1c3.7-0.1,5.4-3.2,5.9-6.1C80.9,75.4,79.5,75.8,77.6,75.7"/>
	<path class="st21" d="M82,74.7c3.3-2.3,2.6-7.8-0.8-10.8c-2.2-2-5.6-2.9-9.6-1.1c2.1,0.2,4.2,1.3,5.7,2.7c1.1,1,1.8,2.1,2.1,3.2
		c0.4,1.6,0.3,3-0.1,4.2c-0.3,1.1-0.9,1.9-1.6,2.6c0,0.1,0,0.2,0,0.3C79.5,75.8,80.9,75.4,82,74.7"/>
	<path class="st22" d="M76.1,80.8c0.8-1.2,1.4-2.9,1.5-5.1c-0.1,0-0.2,0-0.2,0c-1.5,1.4-3.6,1.9-5.3,1.5c-0.5-0.1-0.9-0.3-1.3-0.5
		c-1.5-1-2.2-3-1.1-6.3c0,0,0,0,0,0c0,0,0,0,0,0c0.5-1.1,1.4-2.6,3.8-2.5c0,0,0.2,0,0.3,0c-5.1-1.6-8.4-0.3-10.1,2.1
		c-0.1,0.1-0.2,0.3-0.3,0.5c-1.3,2.2-1.3,5.3-0.2,7.9c0.3,0.6,0.6,1.2,1,1.7C67.1,83.7,73.3,85.1,76.1,80.8"/>
	<path class="st18" d="M38.3,77.2c0.9,1.7,3.9,2.3,4.5,0c-0.1-2.5-1.6-3.3-2.8-3.7C38.3,74.6,37.8,76.2,38.3,77.2"/>
	<path class="st18" d="M36.1,80.9c0,0.1,0,0.1,0,0.2c0.1,0,0.1,0,0.2,0C36.2,81.1,36.1,81,36.1,80.9"/>
	<path class="st18" d="M40.1,73.8C40.1,73.8,40.1,73.8,40.1,73.8L40.1,73.8C40.1,73.8,40.1,73.8,40.1,73.8"/>
	<path class="st18" d="M40.1,73.8C40.1,73.8,40.1,73.8,40.1,73.8L40.1,73.8C40.1,73.8,40.1,73.8,40.1,73.8"/>
	<path class="st19" d="M31.1,69.8c0.4-0.4,0.9-0.8,1.4-1c2.2-1.2,4.9-1.4,6.9-0.5c0,0,0,0,0,0c3.4,0.4,5.4,1.6,6.4,3.1
		c1.8,0.2,3.1,0.7,4.1,1.4c0.8-2.9-2.8-9-8.6-7.2C38.3,62.2,31.4,62.3,31.1,69.8"/>
	<path class="st18" d="M46.3,72c0.4,0.8,0.6,1.7,0.6,2.6c1.9,3.4,1.4,6.4-0.2,8.5c4,0.1,7.6-7.1,3.2-10.3c-0.9-0.7-2.3-1.2-4.1-1.4
		C46,71.6,46.1,71.8,46.3,72"/>
	<path class="st20" d="M39.4,68.3c0.1,0.1,0.3,0.1,0.4,0.2c2.2,1.2,3.6,4,2.7,8.6c0,0,0,0,0,0c-0.8,3.2-7.2,0.1-2.5-3.3l0,0
		c-3-0.7-4.7,0.1-5.5,1.5c-0.8,1.6-0.2,4.1,1.5,5.6c0.1,0.1,0.2,0.1,0.2,0.2c1.4,1.2,3.5,1.7,6.1,0.9c0.9-0.3,1.8-1.1,2.6-2.1
		c1.1-1.4,1.9-3.3,1.8-5.2c0-0.9-0.2-1.8-0.6-2.6c-0.1-0.2-0.2-0.4-0.4-0.6C44.8,69.9,42.8,68.7,39.4,68.3
		C39.4,68.3,39.4,68.3,39.4,68.3"/>
	<path class="st18" d="M36.1,81.1c-2,0.1-3.5-0.2-4.6-0.8c0.5,3.3,3.3,4.4,5.9,4.6C36.6,84,36.1,82.8,36.1,81.1"/>
	<path class="st21" d="M37.3,84.9c2.3,2.7,7,1.5,9.4-1.7c1.6-2.1,2.1-5.1,0.2-8.5c0,1.9-0.8,3.8-1.8,5.2c-0.8,1-1.7,1.8-2.6,2.1
		c-1.4,0.5-2.6,0.5-3.7,0.3c-0.9-0.2-1.8-0.6-2.4-1.2c-0.1,0-0.2,0-0.2,0C36.1,82.8,36.6,84,37.3,84.9"/>
	<path class="st22" d="M31.5,80.3c1.1,0.6,2.7,0.9,4.6,0.8c0-0.1,0-0.1,0-0.2c-1.3-1.2-2-3-1.8-4.5c0.1-0.4,0.2-0.8,0.3-1.1
		c0.7-1.4,2.5-2.2,5.5-1.5c0,0,0,0,0,0c0,0,0,0,0,0c1,0.3,2.4,1,2.5,3.1c0,0,0,0.2,0,0.2c0.9-4.6-0.5-7.4-2.7-8.6
		c-0.1-0.1-0.3-0.1-0.4-0.2c-2.1-0.9-4.7-0.7-6.9,0.5c-0.5,0.3-1,0.6-1.4,1C28.1,72.6,27.5,78.2,31.5,80.3"/>
</g>
</svg>
