<?xml version="1.0" encoding="utf-8"?>
<!-- Generator: Adobe Illustrator 23.1.1, SVG Export Plug-In . SVG Version: 6.00 Build 0)  -->
<svg version="1.1" id="Layer_1" xmlns="http://www.w3.org/2000/svg" xmlns:xlink="http://www.w3.org/1999/xlink" x="0px" y="0px"
	 viewBox="0 0 108 108" style="enable-background:new 0 0 108 108;" xml:space="preserve">
<style type="text/css">
	.st0{fill:#5C7643;}
	.st1{fill:#9ABB3D;}
	.st2{fill:#6E9C40;}
	.st3{fill:#E83727;}
	.st4{fill:#242626;}
</style>
<g>
	<path class="st0" d="M35.4,38.28c1.71,0.24,1.33,2.23,0.99,2.83c1.58-0.21,2.15,0.7,1.68,2.38c0.74-0.48,2.44-0.62,1.64,1.1
		c1.48-1.01,3.32-0.61,4.12,1.15c1.5-1.62,6.52-1.33,7.44-0.76c-0.02-0.03-0.03-0.07-0.05-0.1c-3.88-2.96-12.61-9.83-15.82-12.39
		C35.95,34.03,36.52,36.54,35.4,38.28"/>
	<path class="st0" d="M49.88,38.47c-2.09-0.9-1.83-2.57-1.04-3.21c-2.1,0.34-3.29-0.89-2.88-2.57c-1.7,1.31-2.92,0.27-2.76-1.09
		c-1.81,1.04-2.04,0.35-2.51-0.66c-1.74,0.67-4.13,1.56-5.29,1.53c0,0,0,0,0,0c3.21,2.56,11.94,9.42,15.82,12.39
		C50.02,42.51,49.18,39.46,49.88,38.47"/>
	<path class="st0" d="M46.95,53.8c1.71,0.24,1.33,2.23,0.99,2.83c1.58-0.21,2.15,0.7,1.68,2.38c0.74-0.48,2.44-0.62,1.64,1.1
		c1.48-1.01,3.32-0.61,4.12,1.15c1.5-1.62,6.52-1.32,7.44-0.76c-0.02-0.03-0.03-0.07-0.05-0.1c-3.88-2.96-12.61-9.83-15.82-12.39
		C47.49,49.55,48.07,52.07,46.95,53.8"/>
	<path class="st0" d="M61.43,53.99c-2.09-0.9-1.83-2.57-1.04-3.21c-2.1,0.34-3.29-0.89-2.88-2.57c-1.7,1.31-2.92,0.27-2.76-1.09
		c-1.81,1.04-2.04,0.35-2.51-0.66c-1.74,0.67-4.13,1.56-5.29,1.54c0,0,0,0,0,0c3.21,2.56,11.94,9.42,15.82,12.39
		C61.57,58.04,60.72,54.99,61.43,53.99"/>
	<path class="st0" d="M53.99,44.91c0.97-1.12,2.39-0.27,2.75,0.13c0.51-1.14,1.46-1.25,2.69-0.48c-0.1-0.63,0.43-1.78,1.57-0.79
		c-0.28-1.25,0.73-2.33,2.45-2.35c-0.81-1.42,1.11-4.48,1.8-4.85l-0.1,0c-3.39,1.44-12.01,5.06-15.6,6.58
		C50.95,43.26,53.11,43.64,53.99,44.91"/>
	<path class="st0" d="M59.92,35.43c-1.39,1.03-2.51,0.33-2.64-0.39c-0.54,1.45-1.89,1.84-2.88,1c0.22,1.56-1.01,2.02-1.89,1.46
		c-0.06,1.56-0.65,1.5-1.55,1.47c-0.32,1.42-0.82,3.37-1.42,4.19c0,0,0,0,0,0c3.6-1.51,12.21-5.14,15.6-6.58
		C62.94,36.61,60.38,36.19,59.92,35.43"/>
	<path class="st0" d="M25.93,57.09c0.97-1.12,2.39-0.27,2.75,0.13c0.51-1.14,1.46-1.25,2.69-0.48c-0.1-0.63,0.43-1.78,1.57-0.79
		c-0.28-1.25,0.73-2.33,2.45-2.35c-0.81-1.42,1.11-4.48,1.8-4.85c-0.03,0-0.06,0-0.1,0c-3.39,1.44-12.01,5.06-15.6,6.58
		C22.89,55.43,25.05,55.81,25.93,57.09"/>
	<path class="st0" d="M31.86,47.6c-1.39,1.03-2.51,0.33-2.64-0.39c-0.54,1.45-1.89,1.84-2.88,1c0.22,1.56-1.01,2.02-1.89,1.46
		c-0.06,1.56-0.65,1.5-1.55,1.47c-0.32,1.42-0.82,3.37-1.42,4.19c0,0,0,0,0,0c3.6-1.51,12.21-5.14,15.6-6.58
		C34.88,48.79,32.32,48.37,31.86,47.6"/>
	<path class="st0" d="M29.8,48.05c0.97-1.12,2.39-0.27,2.75,0.13c0.51-1.14,1.46-1.25,2.69-0.48c-0.1-0.63,0.43-1.78,1.57-0.79
		c-0.28-1.25,0.73-2.33,2.45-2.35c-0.81-1.42,1.11-4.48,1.8-4.85c-0.03,0-0.06,0-0.1,0c-3.39,1.44-12.01,5.06-15.6,6.58
		C26.76,46.4,28.92,46.78,29.8,48.05"/>
	<path class="st0" d="M35.73,38.57c-1.39,1.03-2.51,0.33-2.64-0.39c-0.54,1.45-1.89,1.84-2.88,1c0.22,1.56-1.01,2.02-1.89,1.46
		c-0.06,1.56-0.65,1.5-1.55,1.47c-0.32,1.42-0.82,3.37-1.42,4.19c0,0,0,0,0,0c3.6-1.51,12.21-5.14,15.6-6.58
		C38.75,39.75,36.19,39.34,35.73,38.57"/>
	<path class="st0" d="M53.28,46.55c-0.78-1.78,1.02-2.99,1.7-3.2c-1.06-1.25-0.65-2.44,0.95-3.47c-0.8-0.24-1.88-1.51-0.05-2.31
		c-1.64-0.37-2.36-2.18-1.41-4.23c-2.14,0.16-4.69-3.84-4.75-4.87c-0.02,0.04-0.03,0.08-0.05,0.11c-0.2,4.84-0.75,17.11-0.98,22.24
		C49.6,49.23,51.27,46.87,53.28,46.55"/>
	<path class="st0" d="M45.36,34.16c0.44,2.23-1.02,3.16-1.95,2.92c1.42,1.46,1.12,3.28-0.44,3.98c1.97,0.61,1.83,2.34,0.67,3.06
		c1.83,0.95,1.41,1.61,0.87,2.67c1.5,1.18,3.54,2.87,4.18,4.05c0,0,0,0,0,0c0.23-5.13,0.78-17.4,0.98-22.24
		C48.46,31.24,46.53,34.05,45.36,34.16"/>
	<path class="st0" d="M46.89,41.05c-1.45,1.12-2.88-0.51-3.14-1.17c-0.97,1.32-2.17,1.12-3.26-0.35c-0.13,0.87-1.24,2.23-2.14,0.48
		c-0.21,1.78-1.9,2.88-3.98,2.29c0.3,2.2-3.61,5.74-4.76,6.04c0.04,0.01,0.08,0.02,0.13,0.03c5.36-0.89,17.6-2.77,22.13-3.43
		C50.13,44.31,47.56,43.05,46.89,41.05"/>
	<path class="st0" d="M36.19,51.68c2.3-0.95,3.54,0.37,3.51,1.38c1.24-1.79,3.16-1.85,4.3-0.42c0.12-2.15,1.89-2.35,2.95-1.32
		c0.42-2.04,1.19-1.75,2.39-1.42c0.69-1.75,1.67-4.12,2.54-4.96c0,0,0,0,0,0c-4.53,0.66-16.77,2.54-22.13,3.43
		C32.62,49.07,35.85,50.49,36.19,51.68"/>
	<path class="st0" d="M43.66,51.33c-1.45,1.12-2.88-0.51-3.14-1.17c-0.97,1.32-2.17,1.12-3.26-0.35c-0.13,0.87-1.24,2.23-2.13,0.48
		c-0.22,1.78-1.9,2.88-3.98,2.29c0.3,2.2-3.61,5.74-4.76,6.04c0.04,0.01,0.08,0.02,0.13,0.03c5.36-0.89,17.6-2.77,22.13-3.43
		C46.9,54.58,44.33,53.32,43.66,51.33"/>
	<path class="st0" d="M32.96,61.96c2.3-0.95,3.54,0.37,3.51,1.38c1.24-1.79,3.16-1.85,4.3-0.42c0.12-2.15,1.89-2.35,2.95-1.32
		c0.42-2.04,1.19-1.75,2.39-1.42c0.69-1.75,1.67-4.12,2.54-4.96c0,0,0,0,0,0c-4.53,0.66-16.77,2.54-22.13,3.43
		C29.39,59.34,32.62,60.77,32.96,61.96"/>
	<path class="st0" d="M42.34,48.89c1.35,1.08,0,2.6-0.61,2.93c1.46,0.63,1.48,1.71,0.21,2.9c0.88-0.03,2.41,0.72,0.84,1.79
		c1.79-0.1,3.16,1.19,2.94,3.1c2.12-0.62,6.27,2.22,6.77,3.17l0.01-0.11c-1.8-4.54-5.76-14.92-7.19-18.76
		C44.99,45.53,44.19,47.98,42.34,48.89"/>
	<path class="st0" d="M54.65,56.5c-1.33-1.85-0.25-3.15,0.76-3.29c-1.98-0.8-2.37-2.46-1.15-3.68c-2.13,0.25-2.64-1.27-1.81-2.36
		c-2.09-0.04-1.93-0.75-1.81-1.86c-1.84-0.32-4.34-0.79-5.33-1.41c0,0,0,0,0,0c1.43,3.85,5.39,14.23,7.19,18.76
		C52.69,60.04,53.54,56.99,54.65,56.5"/>
	<path class="st0" d="M52.14,50.51c1.25-0.43,1.79,1.13,1.74,1.66c1.01-0.61,1.76-0.07,1.93,1.33c0.37-0.54,1.56-1.04,1.47,0.51
		c0.76-1.1,2.23-1.17,3.27,0.29c0.66-1.68,4.42-2.1,5.28-1.54c-0.02-0.03-0.04-0.07-0.07-0.1c-1.81-1.39-5.05-3.27-8.28-4.34
		c-3.23-1.14-6.46-1.47-8.13-1.53C50.56,47.47,52.2,48.94,52.14,50.51"/>
	<path class="st0" d="M62.36,46.6c-1.95-0.38-2.62-1.84-2.44-2.62c-1.32,0.87-2.79,0.25-3.56-1.19c-0.37,1.6-1.79,1.23-2.55,0.22
		c-0.54,1.44-1.11,1.03-2.05,0.57c-0.68,1.18-1.68,2.74-2.41,3.23l0,0c1.66,0.07,4.9,0.39,8.13,1.53c3.24,1.06,6.47,2.95,8.28,4.34
		C64.27,50.33,62.35,47.67,62.36,46.6"/>
	<path class="st1" d="M52.27,44.04c0.28-1.92,2.44-2,3.13-1.82c-0.24-1.62,0.73-2.42,2.63-2.45c-0.55-0.62-0.8-2.28,1.17-1.99
		c-1.2-1.18-0.86-3.09,1.03-4.34c-1.9-0.99-1.97-5.74-1.47-6.64c-0.03,0.02-0.07,0.05-0.1,0.07C55.93,30.88,49,41.02,46.1,45.26
		C47.73,44.38,50.39,43.26,52.27,44.04"/>
	<path class="st2" d="M52.06,29.33c-0.8,2.13-2.53,2.15-3.2,1.45c0.44,1.99-0.78,3.38-2.47,3.15c1.35,1.56,0.32,2.96-1.05,2.95
		c1.05,1.77,0.35,2.11-0.67,2.73c0.66,1.79,1.5,4.3,1.42,5.64c0,0,0,0,0,0c2.9-4.24,9.83-14.38,12.55-18.39
		C56.24,28.49,53.11,29.85,52.06,29.33"/>
	<path class="st1" d="M41.16,40.81c-1.88-0.5-1.44-2.76-1.05-3.41c-1.74,0.03-2.35-1.1-1.81-2.98c-0.82,0.45-2.69,0.4-1.79-1.49
		c-1.64,0.97-3.66,0.26-4.51-1.88c-1.67,1.68-7.19,0.66-8.19-0.11c0.02,0.04,0.04,0.08,0.06,0.12c4.22,3.95,13.73,13.07,17.22,16.47
		C40.51,45.65,39.91,42.66,41.16,40.81"/>
	<path class="st2" d="M25.26,38.65c2.29,1.32,1.98,3.22,1.1,3.86c2.32-0.11,3.61,1.47,3.13,3.36c1.89-1.29,3.21,0.07,3.02,1.63
		c2-0.97,2.25-0.13,2.75,1.1c1.92-0.55,4.56-1.26,5.84-1.07c0,0,0,0,0,0c-3.49-3.39-13-12.51-17.22-16.47
		C25.15,33.95,26.04,37.59,25.26,38.65"/>
	<path class="st1" d="M34.73,49.03c-0.33,1.65-2.34,1.75-2.93,1.57c0.13,1.42-0.83,2.16-2.51,2.11c0.44,0.58,0.5,2.12-1.21,1.78
		c0.95,1.14,0.44,2.94-1.39,4.09c1.57,1.01,1,5.75,0.38,6.73c0.04-0.02,0.07-0.05,0.11-0.07c3.22-4.29,10.67-13.99,13.44-17.56
		C39.02,48.54,36.43,49.66,34.73,49.03"/>
	<path class="st2" d="M33.77,62.51c1.03-2.15,2.71-2.3,3.32-1.71c-0.23-1.88,1.08-3.27,2.76-3.27c-1.24-1.28-0.12-2.64,1.26-2.82
		c-0.97-1.44-0.25-1.81,0.8-2.48c-0.59-1.46-1.37-3.47-1.28-4.56c0,0,0,0,0,0c-2.77,3.57-10.22,13.28-13.45,17.56
		C29.64,63.58,32.79,62.09,33.77,62.51"/>
	<path class="st1" d="M41.26,52.24c1.06,1.68-1.01,2.74-1.81,2.86c1.36,1.25,0.96,2.4-0.89,3.15c0.97,0.32,2.36,1.73,0.23,2.22
		c2,0.61,3,2.52,2.01,4.45c2.56,0.19,6.01,4.85,6.19,6.06c0.02-0.04,0.04-0.08,0.05-0.12c-0.21-5.51-0.51-18.07-0.58-22.7
		C45.47,49.74,43.64,52.02,41.26,52.24"/>
	<path class="st2" d="M51.78,65.2c-0.74-2.49,0.95-3.43,2.11-3.17c-1.86-1.63-1.64-3.54,0.17-4.35c-2.43-0.59-2.4-2.39-1.06-3.21
		c-2.27-0.87-1.82-1.56-1.26-2.68c-1.89-1.07-4.45-2.56-5.29-3.61c0,0,0,0,0,0c0.07,4.64,0.38,17.19,0.58,22.7
		C48.26,68.16,50.37,65.27,51.78,65.2"/>
	<path class="st1" d="M54.09,53.58c1.25-0.43,1.79,1.13,1.74,1.66c1.01-0.61,1.76-0.07,1.93,1.33c0.37-0.54,1.56-1.04,1.47,0.51
		c0.76-1.1,2.24-1.17,3.27,0.29c0.66-1.68,4.42-2.1,5.28-1.54c-0.02-0.03-0.04-0.07-0.07-0.1c-1.81-1.39-5.05-3.27-8.28-4.34
		c-3.23-1.14-6.46-1.47-8.13-1.53C52.51,50.54,54.14,52.01,54.09,53.58"/>
	<path class="st2" d="M64.31,49.67c-1.95-0.38-2.62-1.84-2.44-2.62c-1.32,0.87-2.79,0.25-3.56-1.19c-0.37,1.6-1.79,1.23-2.55,0.22
		c-0.54,1.44-1.11,1.03-2.04,0.57c-0.68,1.18-1.68,2.74-2.41,3.23l0,0c1.66,0.07,4.9,0.39,8.13,1.53c3.24,1.06,6.47,2.95,8.28,4.34
		C66.22,53.41,64.3,50.74,64.31,49.67"/>
	<path class="st3" d="M35.12,50.48c-0.55-0.67-0.45-1.65,0.22-2.2c0.67-0.55,1.65-0.45,2.2,0.22c0.55,0.67,0.45,1.65-0.22,2.2
		C36.65,51.24,35.67,51.14,35.12,50.48"/>
	<path class="st3" d="M38.35,52.91c-0.55-0.67-0.45-1.65,0.22-2.2c0.67-0.55,1.65-0.45,2.2,0.22c0.55,0.67,0.45,1.65-0.22,2.2
		C39.89,53.67,38.9,53.58,38.35,52.91"/>
	<path class="st3" d="M48.47,47.57c-0.55-0.67-0.45-1.65,0.22-2.2c0.67-0.55,1.65-0.45,2.2,0.22c0.55,0.67,0.45,1.65-0.22,2.2
		C50.01,48.33,49.02,48.23,48.47,47.57"/>
	<path class="st3" d="M45.95,46.96c-0.55-0.67-0.45-1.65,0.22-2.2c0.67-0.55,1.65-0.45,2.2,0.22c0.55,0.67,0.45,1.65-0.22,2.2
		C47.48,47.72,46.5,47.63,45.95,46.96"/>
	<path class="st3" d="M49.79,45.11c-0.55-0.67-0.45-1.65,0.22-2.2c0.67-0.55,1.65-0.45,2.2,0.22c0.55,0.67,0.45,1.65-0.22,2.2
		C51.33,45.87,50.34,45.78,49.79,45.11"/>
	<path class="st3" d="M49.39,42.74c-0.55-0.67-0.45-1.65,0.22-2.2c0.67-0.55,1.65-0.45,2.2,0.22c0.55,0.67,0.45,1.65-0.22,2.2
		C50.92,43.5,49.93,43.41,49.39,42.74"/>
	<path class="st3" d="M43.88,44.45c-0.55-0.67-0.45-1.65,0.22-2.2c0.67-0.55,1.65-0.45,2.2,0.22c0.55,0.67,0.45,1.65-0.22,2.2
		C45.42,45.21,44.43,45.11,43.88,44.45"/>
	<path class="st3" d="M42.46,45.65c-0.55-0.67-0.45-1.65,0.22-2.2c0.67-0.55,1.65-0.45,2.2,0.22c0.55,0.67,0.45,1.65-0.22,2.2
		C44,46.41,43.01,46.32,42.46,45.65"/>
	<path class="st3" d="M46.14,43.93c-0.55-0.67-0.45-1.65,0.22-2.2c0.67-0.55,1.65-0.45,2.2,0.22c0.55,0.67,0.45,1.65-0.22,2.2
		C47.67,44.7,46.69,44.6,46.14,43.93"/>
	<path class="st3" d="M45.73,41.76c-0.55-0.67-0.45-1.65,0.22-2.2c0.67-0.55,1.65-0.45,2.2,0.22c0.55,0.67,0.45,1.65-0.22,2.2
		S46.28,42.43,45.73,41.76"/>
	<path class="st3" d="M44.66,48.67c-0.55-0.67-0.45-1.65,0.22-2.2c0.67-0.55,1.65-0.45,2.2,0.22c0.55,0.67,0.45,1.65-0.22,2.2
		C46.2,49.43,45.21,49.34,44.66,48.67"/>
	<path class="st3" d="M42.61,48.76c-0.55-0.67-0.45-1.65,0.22-2.2c0.67-0.55,1.65-0.45,2.2,0.22c0.55,0.67,0.45,1.65-0.22,2.2
		C44.14,49.52,43.15,49.42,42.61,48.76"/>
	<path class="st3" d="M42.85,53.06c-0.55-0.67-0.45-1.65,0.22-2.2c0.67-0.55,1.65-0.45,2.2,0.22c0.55,0.67,0.45,1.65-0.22,2.2
		C44.38,53.82,43.4,53.73,42.85,53.06"/>
	<path class="st3" d="M43.11,49.95c-0.55-0.67-0.45-1.65,0.22-2.2c0.67-0.55,1.65-0.45,2.2,0.22c0.55,0.67,0.45,1.65-0.22,2.2
		C44.64,50.71,43.66,50.61,43.11,49.95"/>
	<path class="st3" d="M41.62,51.06c-0.55-0.67-0.45-1.65,0.22-2.2c0.67-0.55,1.65-0.45,2.2,0.22c0.55,0.67,0.45,1.65-0.22,2.2
		C43.15,51.83,42.17,51.73,41.62,51.06"/>
	<path class="st3" d="M41.71,52.34c-0.55-0.67-0.45-1.65,0.22-2.2c0.67-0.55,1.65-0.45,2.2,0.22c0.55,0.67,0.45,1.65-0.22,2.2
		C43.25,53.11,42.26,53.01,41.71,52.34"/>
	<path class="st3" d="M45.37,53.51c-0.55-0.67-0.45-1.65,0.22-2.2c0.67-0.55,1.65-0.45,2.2,0.22c0.55,0.67,0.45,1.65-0.22,2.2
		C46.91,54.27,45.92,54.17,45.37,53.51"/>
	<path class="st3" d="M43.21,56.3c-0.55-0.67-0.45-1.65,0.22-2.2c0.67-0.55,1.65-0.45,2.2,0.22c0.55,0.67,0.45,1.65-0.22,2.2
		C44.74,57.06,43.75,56.97,43.21,56.3"/>
	<path class="st3" d="M47.72,56.37c-0.55-0.67-0.45-1.65,0.22-2.2c0.67-0.55,1.65-0.45,2.2,0.22c0.55,0.67,0.45,1.65-0.22,2.2
		C49.26,57.13,48.27,57.04,47.72,56.37"/>
	<path class="st3" d="M48.12,52.87c-0.55-0.67-0.45-1.65,0.22-2.2c0.67-0.55,1.65-0.45,2.2,0.22c0.55,0.67,0.45,1.65-0.22,2.2
		C49.65,53.64,48.67,53.54,48.12,52.87"/>
	<path class="st3" d="M36.6,43.13c-0.55-0.67-0.45-1.65,0.22-2.2c0.67-0.55,1.65-0.45,2.2,0.22c0.55,0.67,0.45,1.65-0.22,2.2
		C38.13,43.9,37.14,43.8,36.6,43.13"/>
	<path class="st3" d="M37.5,43.58c-0.55-0.67-0.45-1.65,0.22-2.2c0.67-0.55,1.65-0.45,2.2,0.22c0.55,0.67,0.45,1.65-0.22,2.2
		C39.03,44.35,38.05,44.25,37.5,43.58"/>
	<path class="st3" d="M34.99,45.84c-0.55-0.67-0.45-1.65,0.22-2.2c0.67-0.55,1.65-0.45,2.2,0.22c0.55,0.67,0.45,1.65-0.22,2.2
		C36.52,46.6,35.53,46.5,34.99,45.84"/>
	<path class="st3" d="M34.63,48.38c-0.55-0.67-0.45-1.65,0.22-2.2c0.67-0.55,1.65-0.45,2.2,0.22c0.55,0.67,0.45,1.65-0.22,2.2
		C36.17,49.14,35.18,49.04,34.63,48.38"/>
	<path class="st3" d="M40.48,43.04c-0.55-0.67-0.45-1.65,0.22-2.2c0.67-0.55,1.65-0.45,2.2,0.22c0.55,0.67,0.45,1.65-0.22,2.2
		C42.01,43.8,41.02,43.7,40.48,43.04"/>
	<path class="st3" d="M37.33,48.18c-0.55-0.67-0.45-1.65,0.22-2.2c0.67-0.55,1.65-0.45,2.2,0.22c0.55,0.67,0.45,1.65-0.22,2.2
		C38.87,48.95,37.88,48.85,37.33,48.18"/>
	<path class="st3" d="M39.78,46.07c-0.55-0.67-0.45-1.65,0.22-2.2c0.67-0.55,1.65-0.45,2.2,0.22c0.55,0.67,0.45,1.65-0.22,2.2
		C41.31,46.83,40.33,46.73,39.78,46.07"/>
	<path class="st3" d="M39.12,48.87c-0.55-0.67-0.45-1.65,0.22-2.2c0.67-0.55,1.65-0.45,2.2,0.22c0.55,0.67,0.45,1.65-0.22,2.2
		S39.67,49.53,39.12,48.87"/>
	<path class="st4" d="M38.03,41.77c-0.13-0.16-0.11-0.39,0.05-0.51c0.16-0.13,0.39-0.11,0.51,0.05c0.13,0.16,0.11,0.39-0.05,0.51
		C38.39,41.95,38.16,41.92,38.03,41.77"/>
	<path class="st4" d="M44.01,44.09c-0.13-0.16-0.11-0.39,0.05-0.51c0.16-0.13,0.39-0.11,0.51,0.05c0.13,0.16,0.11,0.39-0.05,0.51
		C44.36,44.27,44.13,44.25,44.01,44.09"/>
	<path class="st4" d="M46.24,42.96c-0.13-0.16-0.11-0.39,0.05-0.51c0.16-0.13,0.39-0.11,0.51,0.05c0.13,0.16,0.11,0.39-0.05,0.51
		C46.6,43.13,46.37,43.11,46.24,42.96"/>
	<path class="st4" d="M41.13,45.54c-0.13-0.16-0.11-0.39,0.05-0.51c0.16-0.13,0.39-0.11,0.51,0.05c0.13,0.16,0.11,0.39-0.05,0.51
		C41.49,45.72,41.26,45.7,41.13,45.54"/>
	<path class="st4" d="M44.32,47.82c-0.13-0.16-0.11-0.39,0.05-0.51c0.16-0.13,0.39-0.11,0.51,0.05c0.13,0.16,0.11,0.39-0.05,0.51
		C44.68,48,44.45,47.98,44.32,47.82"/>
	<path class="st4" d="M46.76,47.94c-0.13-0.16-0.11-0.39,0.05-0.51c0.16-0.13,0.39-0.11,0.51,0.05c0.13,0.16,0.11,0.39-0.05,0.51
		C47.12,48.11,46.89,48.09,46.76,47.94"/>
	<path class="st4" d="M43.07,51.53c-0.13-0.16-0.11-0.39,0.05-0.51c0.16-0.13,0.39-0.11,0.52,0.05c0.13,0.16,0.1,0.39-0.05,0.51
		C43.43,51.71,43.2,51.69,43.07,51.53"/>
	<path class="st4" d="M42.1,49.51c-0.13-0.16-0.11-0.39,0.05-0.51c0.16-0.13,0.39-0.11,0.51,0.05c0.13,0.16,0.11,0.39-0.05,0.51
		C42.46,49.69,42.23,49.66,42.1,49.51"/>
	<path class="st4" d="M40.87,47.43c-0.13-0.16-0.11-0.39,0.05-0.51c0.16-0.13,0.39-0.11,0.51,0.05c0.13,0.16,0.11,0.39-0.05,0.51
		C41.23,47.61,41,47.59,40.87,47.43"/>
	<path class="st4" d="M39.35,53.48c-0.13-0.16-0.11-0.39,0.05-0.51c0.16-0.13,0.39-0.11,0.51,0.05c0.13,0.16,0.11,0.39-0.05,0.51
		C39.71,53.66,39.48,53.64,39.35,53.48"/>
	<path class="st4" d="M42.7,52.86c-0.13-0.16-0.11-0.39,0.05-0.51c0.16-0.13,0.39-0.11,0.51,0.05c0.13,0.16,0.11,0.39-0.05,0.51
		C43.06,53.04,42.83,53.02,42.7,52.86"/>
	<path class="st4" d="M50.2,47.49c-0.13-0.16-0.11-0.39,0.05-0.51c0.16-0.13,0.39-0.11,0.51,0.05c0.13,0.16,0.11,0.39-0.05,0.51
		C50.56,47.67,50.33,47.65,50.2,47.49"/>
	<path class="st4" d="M46.57,52.27c-0.13-0.16-0.11-0.39,0.05-0.51c0.16-0.13,0.39-0.11,0.51,0.05c0.13,0.16,0.11,0.39-0.05,0.51
		C46.93,52.44,46.7,52.42,46.57,52.27"/>
	<path class="st4" d="M49.54,56.69c-0.13-0.16-0.11-0.39,0.05-0.51c0.16-0.13,0.39-0.11,0.51,0.05c0.13,0.16,0.11,0.39-0.05,0.51
		C49.89,56.87,49.66,56.84,49.54,56.69"/>
	<path class="st4" d="M50.02,52.19c-0.13-0.16-0.11-0.39,0.05-0.51c0.16-0.13,0.39-0.11,0.51,0.05c0.13,0.16,0.11,0.39-0.05,0.51
		C50.38,52.37,50.15,52.34,50.02,52.19"/>
	<path class="st4" d="M43.37,56.17c-0.13-0.16-0.11-0.39,0.05-0.51c0.16-0.13,0.39-0.11,0.51,0.05c0.13,0.16,0.11,0.39-0.05,0.51
		C43.73,56.35,43.5,56.32,43.37,56.17"/>
	<path class="st4" d="M51.53,44.75c-0.13-0.16-0.11-0.39,0.05-0.51c0.16-0.13,0.39-0.11,0.51,0.05c0.13,0.16,0.11,0.39-0.05,0.51
		C51.89,44.93,51.66,44.91,51.53,44.75"/>
	<path class="st4" d="M37.68,47.9c-0.13-0.16-0.11-0.39,0.05-0.51c0.16-0.13,0.39-0.11,0.51,0.05c0.13,0.16,0.11,0.39-0.05,0.51
		C38.03,48.08,37.8,48.06,37.68,47.9"/>
	<path class="st4" d="M41.46,40.99c-0.13-0.16-0.11-0.39,0.05-0.51c0.16-0.13,0.39-0.11,0.51,0.05c0.13,0.16,0.11,0.39-0.05,0.51
		C41.82,41.17,41.59,41.15,41.46,40.99"/>
	<path class="st4" d="M46.56,39.59c-0.13-0.16-0.11-0.39,0.05-0.51c0.16-0.13,0.39-0.11,0.51,0.05c0.13,0.16,0.11,0.39-0.05,0.51
		C46.92,39.77,46.69,39.74,46.56,39.59"/>
	<path class="st4" d="M44.23,42.99c-0.13-0.16-0.11-0.39,0.05-0.51c0.16-0.13,0.39-0.11,0.51,0.05c0.13,0.16,0.11,0.39-0.05,0.51
		C44.59,43.17,44.36,43.14,44.23,42.99"/>
	<path class="st4" d="M36.76,41.45c-0.13-0.16-0.11-0.39,0.05-0.51c0.16-0.13,0.39-0.11,0.51,0.05c0.13,0.16,0.11,0.39-0.05,0.51
		C37.12,41.63,36.89,41.61,36.76,41.45"/>
	<path class="st4" d="M34.63,45.35c-0.13-0.16-0.11-0.39,0.05-0.51c0.16-0.13,0.39-0.11,0.51,0.05c0.13,0.16,0.11,0.39-0.05,0.51
		C34.99,45.53,34.76,45.5,34.63,45.35"/>
	<path class="st4" d="M34.84,50.6c-0.13-0.16-0.11-0.39,0.05-0.51c0.16-0.13,0.39-0.11,0.51,0.05c0.13,0.16,0.11,0.39-0.05,0.51
		C35.2,50.78,34.97,50.75,34.84,50.6"/>
	<path class="st4" d="M34.15,47.16c-0.13-0.16-0.11-0.39,0.05-0.51c0.16-0.13,0.39-0.11,0.51,0.05c0.13,0.16,0.11,0.39-0.05,0.51
		C34.51,47.34,34.28,47.32,34.15,47.16"/>
	<path class="st0" d="M75.75,53.72c-0.38-1.69-2.33-1.14-2.9-0.74c0.07-1.59-0.88-2.08-2.51-1.47c0.41-0.78,0.41-2.48-1.23-1.54
		c0.88-1.56,0.32-3.36-1.5-4c1.49-1.63,0.76-6.61,0.13-7.48c0.04,0.01,0.07,0.03,0.11,0.04c3.28,3.61,10.86,11.73,13.69,14.71
		C79.94,52.82,77.38,52.46,75.75,53.72"/>
	<path class="st0" d="M74.33,39.32c1.08,2.01,2.72,1.61,3.28,0.77c-0.16,2.12,1.16,3.21,2.8,2.65c-1.16,1.81-0.03,2.93,1.32,2.66
		c-0.89,1.89-0.17,2.06,0.87,2.44c-0.52,1.79-1.2,4.24-1.08,5.4c0,0,0,0,0,0c-2.82-2.98-10.4-11.1-13.69-14.71
		C70.29,39.52,73.4,40.1,74.33,39.32"/>
	<path class="st0" d="M59.3,43.53c-0.38-1.69-2.33-1.14-2.9-0.74c0.07-1.59-0.88-2.08-2.51-1.47c0.41-0.78,0.41-2.48-1.23-1.54
		c0.88-1.56,0.32-3.36-1.5-4c1.49-1.63,0.76-6.61,0.13-7.48c0.04,0.01,0.07,0.03,0.11,0.04c3.28,3.61,10.86,11.73,13.69,14.71
		C63.49,42.63,60.93,42.27,59.3,43.53"/>
	<path class="st0" d="M57.88,29.13c1.08,2.01,2.72,1.61,3.28,0.77c-0.16,2.12,1.16,3.21,2.8,2.65c-1.16,1.81-0.03,2.93,1.32,2.66
		c-0.88,1.89-0.17,2.06,0.87,2.44c-0.52,1.79-1.2,4.24-1.08,5.4c0,0,0,0,0,0c-2.82-2.98-10.4-11.1-13.69-14.71
		C53.84,29.33,56.95,29.91,57.88,29.13"/>
	<path class="st0" d="M67.56,35.77c1.03-1.06,0.07-2.4-0.36-2.73c1.09-0.61,1.12-1.57,0.25-2.72c0.63,0.04,1.74-0.58,0.65-1.63
		c1.27,0.17,2.26-0.92,2.13-2.64c1.48,0.68,4.37-1.49,4.68-2.2c0,0.03,0,0.06,0.01,0.1c-1.14,3.5-4.03,12.39-5.23,16.11
		C69.47,38.66,68.91,36.54,67.56,35.77"/>
	<path class="st0" d="M76.51,29.06c-0.91,1.47-0.12,2.52,0.61,2.6c-1.4,0.66-1.67,2.04-0.75,2.95c-1.57-0.09-1.93,1.18-1.29,2
		c-1.55,0.19-1.43,0.77-1.33,1.67c-1.39,0.44-3.29,1.1-4.05,1.77c0,0,0,0,0,0c1.2-3.71,4.08-12.6,5.23-16.11
		C75.07,26.15,75.71,28.66,76.51,29.06"/>
	<path class="st0" d="M57.81,64.76c1.03-1.06,0.07-2.4-0.36-2.73c1.09-0.61,1.12-1.57,0.25-2.72c0.63,0.04,1.74-0.58,0.65-1.63
		c1.27,0.17,2.26-0.92,2.13-2.64c1.48,0.68,4.37-1.49,4.68-2.2c0,0.03,0,0.06,0.01,0.1c-1.14,3.5-4.03,12.39-5.23,16.11
		C59.72,67.65,59.16,65.53,57.81,64.76"/>
	<path class="st0" d="M66.76,58.05c-0.91,1.47-0.12,2.52,0.61,2.6c-1.4,0.66-1.67,2.04-0.75,2.95c-1.57-0.09-1.93,1.18-1.29,2
		c-1.55,0.19-1.44,0.77-1.33,1.67c-1.39,0.44-3.29,1.1-4.05,1.77c0,0,0,0,0,0c1.2-3.71,4.08-12.6,5.23-16.11
		C65.32,55.14,65.96,57.66,66.76,58.05"/>
	<path class="st0" d="M66.49,60.14c1.03-1.06,0.07-2.4-0.36-2.73c1.09-0.61,1.12-1.57,0.25-2.72c0.63,0.04,1.74-0.58,0.65-1.63
		c1.27,0.17,2.26-0.92,2.13-2.64c1.48,0.68,4.37-1.49,4.68-2.2c0,0.03,0,0.06,0.01,0.1c-1.14,3.5-4.02,12.39-5.23,16.11
		C68.39,63.03,67.83,60.9,66.49,60.14"/>
	<path class="st0" d="M75.43,53.42c-0.91,1.47-0.12,2.52,0.61,2.6c-1.4,0.66-1.67,2.04-0.75,2.95c-1.57-0.09-1.93,1.18-1.29,2
		c-1.55,0.19-1.43,0.77-1.33,1.67c-1.39,0.44-3.29,1.1-4.05,1.77c0,0,0,0,0,0c1.2-3.71,4.08-12.6,5.23-16.11
		C74,50.51,74.63,53.03,75.43,53.42"/>
	<path class="st0" d="M65.99,36.61c1.84,0.63,2.89-1.27,3.04-1.96c1.34,0.95,2.49,0.44,3.38-1.24c0.3,0.78,1.67,1.74,2.31-0.15
		c0.51,1.6,2.37,2.16,4.33,1.05c0.02,2.14,4.22,4.35,5.25,4.32c-0.04,0.02-0.07,0.04-0.11,0.06c-4.8,0.61-16.99,2.2-22.08,2.86
		C63.63,40.51,65.84,38.64,65.99,36.61"/>
	<path class="st0" d="M79.01,43.46c-2.26-0.25-3.06,1.28-2.74,2.19c-1.57-1.29-3.37-0.84-3.93,0.77c-0.78-1.91-2.49-1.63-3.1-0.4
		c-1.1-1.74-1.73-1.27-2.74-0.64c-1.3-1.4-3.16-3.28-4.39-3.82c0,0,0,0,0,0c5.09-0.66,17.27-2.25,22.08-2.86
		C81.65,40.11,79.02,42.28,79.01,43.46"/>
	<path class="st0" d="M72.01,42.52c-0.99,1.54,0.75,2.83,1.43,3.03c-1.23,1.08-0.94,2.26,0.63,3.22c-0.85,0.21-2.12,1.43-0.3,2.17
		c-1.75,0.36-2.7,2.14-1.94,4.16c-2.22-0.11-5.41,4.09-5.62,5.26c-0.01-0.04-0.03-0.08-0.04-0.12c0.43-5.42,1.26-17.78,1.54-22.34
		C68.49,39.56,69.96,42.02,72.01,42.52"/>
	<path class="st0" d="M62.33,54.08c0.75-2.37-0.67-3.49-1.67-3.38c1.68-1.39,1.58-3.3,0.05-4.32c2.13-0.3,2.18-2.08,1.06-3.05
		c2-0.59,1.64-1.33,1.21-2.5c1.68-0.84,3.96-2.01,4.73-2.95c0,0,0,0,0,0c-0.28,4.57-1.11,16.92-1.54,22.34
		C65.23,57.42,63.54,54.32,62.33,54.08"/>
	<path class="st0" d="M62.05,46.61c-0.99,1.54,0.75,2.83,1.43,3.03c-1.23,1.08-0.94,2.26,0.63,3.22c-0.85,0.21-2.12,1.43-0.3,2.17
		c-1.75,0.36-2.7,2.14-1.94,4.16c-2.22-0.11-5.41,4.09-5.62,5.26c-0.01-0.04-0.03-0.08-0.04-0.12c0.43-5.42,1.26-17.78,1.54-22.34
		C58.53,43.65,60,46.11,62.05,46.61"/>
	<path class="st0" d="M52.37,58.17c0.75-2.37-0.67-3.49-1.67-3.38c1.68-1.39,1.58-3.3,0.05-4.32c2.13-0.3,2.18-2.08,1.06-3.05
		c2-0.59,1.64-1.33,1.21-2.5c1.68-0.84,3.96-2.01,4.73-2.95c0,0,0,0,0,0c-0.28,4.57-1.11,16.92-1.54,22.34
		C55.27,61.51,53.58,58.41,52.37,58.17"/>
	<path class="st0" d="M64.59,47.71c-1.2-1.25-2.59,0.22-2.87,0.86c-0.76-1.41-1.83-1.33-2.91,0.03c-0.05-0.88-0.93-2.34-1.85-0.68
		c-0.05-1.79-1.46-3.05-3.34-2.66c0.44-2.17-2.75-6.06-3.74-6.48c0.04-0.01,0.08-0.01,0.11-0.02c4.67,1.41,15.35,4.47,19.31,5.57
		C67.71,44.79,65.34,45.79,64.59,47.71"/>
	<path class="st0" d="M55.96,36.09c1.96,1.17,3.16-0.02,3.21-1.03c0.96,1.9,2.65,2.15,3.77,0.83c-0.06,2.15,1.49,2.52,2.5,1.6
		c0.21,2.07,0.91,1.86,2,1.65c0.47,1.81,1.15,4.26,1.85,5.19c0,0,0,0,0,0c-3.95-1.1-14.63-4.16-19.31-5.57
		C52.6,38.35,55.56,37.25,55.96,36.09"/>
	<path class="st0" d="M62.14,38.08c0.32-1.29-1.28-1.69-1.81-1.59c0.52-1.05-0.08-1.76-1.49-1.81c0.51-0.41,0.91-1.64-0.64-1.43
		c1.03-0.85,0.98-2.33-0.57-3.23c1.62-0.8,1.72-4.58,1.08-5.39c0.04,0.02,0.07,0.04,0.11,0.06c1.54,1.69,3.69,4.75,5.03,7.89
		c1.41,3.12,2.01,6.32,2.22,7.97C65.3,39.4,63.7,37.9,62.14,38.08"/>
	<path class="st0" d="M65.17,27.57c0.54,1.91,2.05,2.46,2.82,2.21c-0.76,1.39-0.01,2.8,1.48,3.44c-1.56,0.5-1.08,1.89,0,2.56
		c-1.39,0.66-0.93,1.2-0.39,2.09c-1.12,0.78-2.58,1.91-3.01,2.68c0,0,0,0,0,0c-0.21-1.65-0.8-4.85-2.22-7.97
		c-1.34-3.13-3.49-6.19-5.03-7.88C61.29,25.98,64.1,27.67,65.17,27.57"/>
	<path class="st1" d="M68.58,37.41c1.89-0.44,1.79-2.6,1.55-3.27c1.64,0.1,2.35-0.93,2.22-2.83c0.67,0.5,2.34,0.6,1.88-1.34
		c1.28,1.1,3.15,0.59,4.23-1.4c1.15,1.81,5.88,1.47,6.74,0.9c-0.02,0.04-0.04,0.07-0.06,0.11c-3.76,3.05-13.28,10.82-17.25,14.07
		C68.63,41.96,69.52,39.22,68.58,37.41"/>
	<path class="st2" d="M83.25,36.37c-2.06,0.98-1.93,2.7-1.18,3.31c-2.02-0.27-3.3,1.06-2.93,2.73c-1.67-1.22-2.98-0.07-2.85,1.29
		c-1.85-0.9-2.14-0.17-2.66,0.9c-1.84-0.5-4.42-1.13-5.74-0.93c0,0,0,0,0,0c3.98-3.25,13.49-11.02,17.25-14.07
		C83.74,32.13,82.64,35.36,83.25,36.37"/>
	<path class="st1" d="M72.74,48.2c0.66,1.83,2.87,1.2,3.49,0.75c0.12,1.74,1.3,2.25,3.12,1.55c-0.38,0.86-0.17,2.72,1.64,1.65
		c-0.83,1.72,0.05,3.67,2.26,4.33c-1.53,1.8-0.05,7.22,0.8,8.15c-0.04-0.02-0.09-0.03-0.13-0.04c-4.3-3.87-14.19-12.57-17.87-15.76
		C67.97,49.26,71,49.61,72.74,48.2"/>
	<path class="st2" d="M76.24,63.87c-1.51-2.17-3.38-1.7-3.93-0.77c-0.09-2.32-1.77-3.47-3.61-2.84c1.12-1.99-0.35-3.19-1.88-2.87
		c0.79-2.07-0.06-2.25-1.33-2.64c0.38-1.96,0.86-4.65,0.57-5.91c0,0,0,0,0,0c3.68,3.19,13.57,11.89,17.87,15.76
		C80.94,63.57,77.23,62.99,76.24,63.87"/>
	<path class="st1" d="M65.1,55.31c-1.61,0.47-1.55,2.48-1.32,3.06c-1.43-0.01-2.08,1.01-1.89,2.68c-0.61-0.39-2.16-0.32-1.67,1.35
		c-1.22-0.85-2.97-0.19-3.96,1.73c-1.14-1.48-5.81-0.51-6.74,0.19c0.02-0.04,0.04-0.07,0.06-0.11c4-3.57,13.03-11.82,16.36-14.89
		C65.21,50.99,64.32,53.67,65.1,55.31"/>
	<path class="st2" d="M51.74,57.41c2.06-1.21,2.06-2.9,1.43-3.45c1.89,0.07,3.16-1.35,3.02-3.03c1.38,1.13,2.65-0.1,2.7-1.49
		c1.51,0.84,1.83,0.09,2.4-1.01c1.51,0.47,3.57,1.07,4.65,0.89c0,0,0,0,0,0c-3.32,3.07-12.36,11.31-16.36,14.89
		C51.03,61.61,52.25,58.35,51.74,57.41"/>
	<path class="st1" d="M61.34,49.08c-1.77-0.91-2.65,1.24-2.7,2.05c-1.36-1.25-2.47-0.75-3.07,1.16c-0.4-0.94-1.92-2.21-2.23-0.04
		c-0.77-1.94-2.77-2.77-4.61-1.63c-0.41-2.54-5.34-5.58-6.56-5.65c0.04-0.02,0.08-0.04,0.11-0.06c5.51-0.26,18.05-1.03,22.67-1.35
		C63.47,44.67,61.36,46.69,61.34,49.08"/>
	<path class="st2" d="M47.53,39.69c2.54,0.53,3.34-1.24,2.98-2.37c1.78,1.71,3.67,1.33,4.32-0.54c0.8,2.37,2.59,2.19,3.29,0.79
		c1.06,2.19,1.71,1.68,2.78,1.03c1.23,1.79,2.93,4.22,4.05,4.96c0,0,0,0,0,0c-4.63,0.32-17.16,1.09-22.67,1.35
		C44.88,43.45,47.58,41.1,47.53,39.69"/>
	<path class="st1" d="M58.91,36.41c0.32-1.29-1.28-1.69-1.81-1.59c0.52-1.05-0.08-1.76-1.49-1.81c0.51-0.41,0.91-1.64-0.64-1.43
		c1.04-0.85,0.98-2.33-0.56-3.23c1.62-0.8,1.72-4.58,1.08-5.39c0.04,0.02,0.07,0.04,0.11,0.06c1.54,1.69,3.69,4.75,5.03,7.89
		c1.41,3.12,2.01,6.32,2.22,7.97C62.07,37.73,60.47,36.22,58.91,36.41"/>
	<path class="st2" d="M61.94,25.89c0.54,1.91,2.05,2.46,2.82,2.21c-0.76,1.39-0.01,2.8,1.48,3.44c-1.56,0.5-1.08,1.89,0,2.56
		c-1.39,0.66-0.93,1.2-0.39,2.09c-1.12,0.78-2.58,1.91-3.01,2.68c0,0,0,0,0,0c-0.21-1.65-0.8-4.85-2.22-7.97
		c-1.34-3.13-3.49-6.19-5.03-7.88C58.06,24.31,60.88,25.99,61.94,25.89"/>
	<path class="st3" d="M63.62,55.04c0.71,0.49,1.69,0.31,2.17-0.4c0.49-0.71,0.31-1.69-0.4-2.18c-0.71-0.49-1.69-0.31-2.18,0.4
		C62.73,53.58,62.91,54.56,63.62,55.04"/>
	<path class="st3" d="M60.92,52.03c0.71,0.49,1.69,0.31,2.18-0.4c0.49-0.71,0.31-1.69-0.4-2.18c-0.71-0.49-1.69-0.31-2.18,0.4
		C60.03,50.56,60.21,51.54,60.92,52.03"/>
	<path class="st3" d="M65.39,41.49c0.71,0.49,1.69,0.31,2.18-0.4c0.49-0.71,0.31-1.69-0.4-2.18c-0.71-0.49-1.69-0.31-2.17,0.4
		C64.49,40.03,64.67,41,65.39,41.49"/>
	<path class="st3" d="M66.2,43.95c0.71,0.49,1.69,0.31,2.18-0.4c0.49-0.71,0.31-1.69-0.4-2.18c-0.71-0.49-1.69-0.31-2.18,0.4
		C65.31,42.49,65.49,43.46,66.2,43.95"/>
	<path class="st3" d="M67.72,39.97c0.71,0.49,1.69,0.31,2.18-0.4c0.49-0.71,0.31-1.69-0.4-2.18c-0.71-0.49-1.69-0.31-2.18,0.4
		C66.83,38.5,67.01,39.48,67.72,39.97"/>
	<path class="st3" d="M70.12,40.17c0.71,0.49,1.68,0.31,2.17-0.4c0.49-0.71,0.31-1.69-0.4-2.18c-0.71-0.49-1.69-0.31-2.18,0.4
		C69.23,38.71,69.41,39.68,70.12,40.17"/>
	<path class="st3" d="M68.88,45.8c0.71,0.49,1.68,0.31,2.17-0.4c0.49-0.71,0.31-1.69-0.4-2.18c-0.71-0.49-1.69-0.31-2.18,0.4
		C67.99,44.34,68.17,45.31,68.88,45.8"/>
	<path class="st3" d="M67.81,47.31c0.71,0.49,1.69,0.31,2.17-0.4c0.49-0.71,0.31-1.69-0.4-2.18c-0.71-0.49-1.69-0.31-2.18,0.4
		C66.91,45.85,67.09,46.82,67.81,47.31"/>
	<path class="st3" d="M69.2,43.51c0.71,0.49,1.69,0.31,2.18-0.4c0.49-0.71,0.31-1.69-0.4-2.18c-0.71-0.49-1.69-0.31-2.18,0.4
		C68.31,42.04,68.49,43.02,69.2,43.51"/>
	<path class="st3" d="M71.4,43.73c0.71,0.49,1.68,0.31,2.17-0.4c0.49-0.71,0.31-1.69-0.4-2.18c-0.71-0.49-1.69-0.31-2.18,0.4
		C70.51,42.27,70.69,43.24,71.4,43.73"/>
	<path class="st3" d="M64.61,45.38c0.71,0.49,1.69,0.31,2.18-0.4c0.49-0.71,0.31-1.69-0.4-2.18c-0.71-0.49-1.69-0.31-2.18,0.4
		C63.72,43.91,63.9,44.89,64.61,45.38"/>
	<path class="st3" d="M64.7,47.44c0.71,0.49,1.69,0.31,2.18-0.4c0.49-0.71,0.31-1.69-0.4-2.18c-0.71-0.49-1.69-0.31-2.17,0.4
		C63.81,45.97,63.98,46.95,64.7,47.44"/>
	<path class="st3" d="M60.39,47.56c0.71,0.49,1.68,0.31,2.17-0.4c0.49-0.71,0.31-1.69-0.4-2.18c-0.71-0.49-1.69-0.31-2.18,0.4
		C59.5,46.1,59.68,47.07,60.39,47.56"/>
	<path class="st3" d="M63.47,47.04c0.71,0.49,1.69,0.31,2.18-0.4c0.49-0.71,0.31-1.69-0.4-2.18c-0.71-0.49-1.69-0.31-2.18,0.4
		C62.58,45.57,62.76,46.55,63.47,47.04"/>
	<path class="st3" d="M62.48,48.62c0.71,0.49,1.69,0.31,2.18-0.4c0.49-0.71,0.31-1.69-0.4-2.18c-0.71-0.49-1.68-0.31-2.17,0.4
		C61.59,47.15,61.77,48.13,62.48,48.62"/>
	<path class="st3" d="M61.2,48.63c0.71,0.49,1.69,0.31,2.18-0.4c0.49-0.71,0.31-1.69-0.4-2.18c-0.71-0.49-1.69-0.31-2.18,0.4
		C60.31,47.17,60.49,48.14,61.2,48.63"/>
	<path class="st3" d="M59.73,45.09c0.71,0.49,1.69,0.31,2.18-0.4c0.49-0.71,0.31-1.69-0.4-2.18c-0.71-0.49-1.68-0.31-2.17,0.4
		C58.84,43.62,59.02,44.6,59.73,45.09"/>
	<path class="st3" d="M57.13,47.48c0.71,0.49,1.69,0.31,2.18-0.4c0.49-0.71,0.31-1.69-0.4-2.18c-0.71-0.49-1.69-0.31-2.17,0.4
		C56.24,46.02,56.42,46.99,57.13,47.48"/>
	<path class="st3" d="M56.68,42.99c0.71,0.49,1.69,0.31,2.18-0.4c0.49-0.71,0.31-1.69-0.4-2.18c-0.71-0.49-1.69-0.31-2.18,0.4
		C55.79,41.52,55.97,42.5,56.68,42.99"/>
	<path class="st3" d="M60.13,42.29c0.71,0.49,1.69,0.31,2.17-0.4c0.49-0.71,0.31-1.69-0.4-2.18c-0.71-0.49-1.69-0.31-2.18,0.4
		C59.24,40.83,59.41,41.81,60.13,42.29"/>
	<path class="st3" d="M70.81,52.95c0.71,0.49,1.69,0.31,2.18-0.4c0.49-0.71,0.31-1.69-0.4-2.18c-0.71-0.49-1.69-0.31-2.18,0.4
		C69.92,51.49,70.1,52.46,70.81,52.95"/>
	<path class="st3" d="M70.28,52.09c0.71,0.49,1.69,0.31,2.18-0.4c0.49-0.71,0.31-1.69-0.4-2.18c-0.71-0.49-1.69-0.31-2.17,0.4
		C69.39,50.62,69.57,51.6,70.28,52.09"/>
	<path class="st3" d="M68.25,54.78c0.71,0.49,1.69,0.31,2.18-0.4c0.49-0.71,0.31-1.69-0.4-2.18c-0.71-0.49-1.69-0.31-2.18,0.4
		C67.36,53.32,67.54,54.29,68.25,54.78"/>
	<path class="st3" d="M65.75,55.35c0.71,0.49,1.69,0.31,2.18-0.4c0.49-0.71,0.31-1.69-0.4-2.18c-0.71-0.49-1.69-0.31-2.18,0.4
		C64.86,53.89,65.04,54.86,65.75,55.35"/>
	<path class="st3" d="M70.58,49.07c0.71,0.49,1.69,0.31,2.18-0.4c0.49-0.71,0.31-1.69-0.4-2.18c-0.71-0.49-1.69-0.31-2.18,0.4
		C69.69,47.61,69.87,48.58,70.58,49.07"/>
	<path class="st3" d="M65.72,52.64c0.71,0.49,1.69,0.31,2.18-0.4c0.49-0.71,0.31-1.69-0.4-2.18c-0.71-0.49-1.69-0.31-2.18,0.4
		C64.82,51.18,65,52.15,65.72,52.64"/>
	<path class="st3" d="M67.62,50.03c0.71,0.49,1.69,0.31,2.18-0.4c0.49-0.71,0.31-1.69-0.4-2.18c-0.71-0.49-1.69-0.31-2.17,0.4
		C66.73,48.56,66.91,49.54,67.62,50.03"/>
	<path class="st3" d="M64.88,50.92c0.71,0.49,1.69,0.31,2.18-0.4c0.49-0.71,0.31-1.69-0.4-2.18c-0.71-0.49-1.69-0.31-2.17,0.4
		C63.99,49.45,64.17,50.43,64.88,50.92"/>
	<path class="st4" d="M72.05,51.4c0.17,0.11,0.4,0.07,0.51-0.09c0.11-0.17,0.07-0.39-0.09-0.51c-0.17-0.11-0.39-0.07-0.51,0.09
		C71.84,51.06,71.88,51.29,72.05,51.4"/>
	<path class="st4" d="M69.23,45.65c0.17,0.11,0.39,0.07,0.51-0.09c0.11-0.17,0.07-0.39-0.09-0.51c-0.17-0.11-0.4-0.07-0.51,0.09
		C69.02,45.3,69.06,45.53,69.23,45.65"/>
	<path class="st4" d="M70.17,43.33c0.17,0.11,0.39,0.07,0.51-0.09c0.11-0.17,0.07-0.39-0.09-0.51c-0.17-0.11-0.4-0.07-0.51,0.09
		C69.96,42.98,70,43.21,70.17,43.33"/>
	<path class="st4" d="M68.03,48.64c0.17,0.11,0.39,0.07,0.51-0.09c0.11-0.17,0.07-0.39-0.09-0.51c-0.17-0.11-0.39-0.07-0.51,0.09
		C67.82,48.29,67.86,48.52,68.03,48.64"/>
	<path class="st4" d="M65.48,45.65c0.17,0.11,0.39,0.07,0.51-0.09c0.11-0.17,0.07-0.39-0.09-0.51c-0.17-0.11-0.4-0.07-0.51,0.09
		C65.27,45.31,65.32,45.53,65.48,45.65"/>
	<path class="st4" d="M65.16,43.23c0.17,0.11,0.39,0.07,0.51-0.09c0.11-0.17,0.07-0.39-0.09-0.51c-0.17-0.11-0.4-0.07-0.51,0.09
		C64.95,42.88,64.99,43.11,65.16,43.23"/>
	<path class="st4" d="M61.89,47.21c0.17,0.11,0.39,0.07,0.51-0.09c0.11-0.17,0.07-0.39-0.09-0.51c-0.17-0.11-0.4-0.07-0.51,0.09
		C61.68,46.87,61.73,47.1,61.89,47.21"/>
	<path class="st4" d="M63.99,48c0.17,0.11,0.39,0.07,0.51-0.09c0.11-0.17,0.07-0.39-0.09-0.51c-0.17-0.11-0.4-0.07-0.51,0.09
		C63.78,47.66,63.82,47.89,63.99,48"/>
	<path class="st4" d="M66.16,49.05c0.17,0.11,0.39,0.07,0.51-0.09c0.11-0.17,0.07-0.39-0.09-0.51c-0.17-0.11-0.4-0.07-0.51,0.09
		C65.96,48.71,66,48.94,66.16,49.05"/>
	<path class="st4" d="M60.26,51.09c0.17,0.11,0.39,0.07,0.51-0.09c0.11-0.17,0.07-0.39-0.09-0.51c-0.17-0.11-0.4-0.07-0.51,0.09
		C60.05,50.74,60.1,50.97,60.26,51.09"/>
	<path class="st4" d="M60.6,47.69c0.17,0.11,0.39,0.07,0.51-0.09c0.11-0.17,0.07-0.39-0.09-0.51c-0.17-0.11-0.4-0.07-0.51,0.09
		C60.39,47.35,60.43,47.58,60.6,47.69"/>
	<path class="st4" d="M65.31,39.76c0.17,0.11,0.39,0.07,0.51-0.09c0.11-0.17,0.07-0.39-0.09-0.51c-0.17-0.11-0.4-0.07-0.51,0.09
		C65.1,39.42,65.14,39.65,65.31,39.76"/>
	<path class="st4" d="M60.86,43.79c0.17,0.11,0.39,0.07,0.51-0.09c0.11-0.17,0.07-0.39-0.09-0.51c-0.17-0.11-0.39-0.07-0.51,0.09
		C60.65,43.45,60.7,43.67,60.86,43.79"/>
	<path class="st4" d="M56.21,41.21c0.17,0.11,0.39,0.07,0.51-0.09c0.11-0.17,0.07-0.39-0.09-0.51c-0.17-0.11-0.4-0.07-0.51,0.09
		C56,40.86,56.04,41.09,56.21,41.21"/>
	<path class="st4" d="M60.65,40.34c0.17,0.11,0.39,0.07,0.51-0.09c0.11-0.17,0.07-0.39-0.09-0.51c-0.17-0.11-0.4-0.07-0.51,0.09
		C60.44,40,60.48,40.23,60.65,40.34"/>
	<path class="st4" d="M57.25,47.31c0.17,0.11,0.39,0.07,0.51-0.09c0.11-0.17,0.07-0.39-0.09-0.51c-0.17-0.11-0.4-0.07-0.51,0.09
		C57.04,46.97,57.08,47.19,57.25,47.31"/>
	<path class="st4" d="M67.93,38.21c0.17,0.11,0.39,0.07,0.51-0.09c0.11-0.17,0.07-0.39-0.09-0.51c-0.17-0.11-0.4-0.07-0.51,0.09
		C67.72,37.87,67.76,38.1,67.93,38.21"/>
	<path class="st4" d="M65.97,52.28c0.17,0.11,0.39,0.07,0.51-0.09c0.11-0.17,0.07-0.39-0.09-0.51c-0.17-0.11-0.4-0.07-0.51,0.09
		C65.76,51.93,65.8,52.16,65.97,52.28"/>
	<path class="st4" d="M72.53,47.92c0.17,0.11,0.39,0.07,0.51-0.09c0.11-0.17,0.07-0.39-0.09-0.51c-0.17-0.11-0.4-0.07-0.51,0.09
		C72.32,47.58,72.36,47.81,72.53,47.92"/>
	<path class="st4" d="M73.5,42.72c0.17,0.11,0.39,0.07,0.51-0.09c0.11-0.17,0.07-0.39-0.09-0.51c-0.17-0.11-0.4-0.07-0.51,0.09
		C73.29,42.38,73.33,42.6,73.5,42.72"/>
	<path class="st4" d="M70.31,45.33c0.17,0.11,0.39,0.07,0.51-0.09c0.11-0.17,0.07-0.39-0.09-0.51c-0.17-0.11-0.4-0.07-0.51,0.09
		C70.1,44.98,70.14,45.21,70.31,45.33"/>
	<path class="st4" d="M72.48,52.64c0.17,0.11,0.39,0.07,0.51-0.09c0.11-0.17,0.07-0.39-0.09-0.51c-0.17-0.11-0.4-0.07-0.51,0.09
		C72.27,52.3,72.31,52.53,72.48,52.64"/>
	<path class="st4" d="M68.77,55.09c0.17,0.11,0.39,0.07,0.51-0.09c0.11-0.17,0.07-0.39-0.09-0.51c-0.17-0.11-0.4-0.07-0.51,0.09
		C68.56,54.75,68.6,54.98,68.77,55.09"/>
	<path class="st4" d="M63.52,55.33c0.17,0.11,0.39,0.07,0.51-0.09c0.11-0.17,0.07-0.39-0.09-0.51c-0.17-0.11-0.4-0.07-0.51,0.09
		C63.31,54.99,63.36,55.22,63.52,55.33"/>
	<path class="st4" d="M67,55.72c0.17,0.11,0.39,0.07,0.51-0.09c0.11-0.17,0.07-0.39-0.09-0.51c-0.17-0.11-0.39-0.07-0.51,0.09
		C66.79,55.38,66.84,55.61,67,55.72"/>
	<path class="st0" d="M54.54,80.5c-1.18-1.27,0.38-2.57,1.03-2.81c-1.35-0.84-1.21-1.91,0.21-2.9c-0.87-0.1-2.28-1.07-0.57-1.89
		c-1.78-0.16-2.95-1.64-2.45-3.5c-2.19,0.3-5.88-3.12-6.24-4.13c-0.01,0.04-0.02,0.07-0.02,0.11c1.11,4.75,3.51,15.6,4.36,19.61
		C51.43,83.44,52.58,81.13,54.54,80.5"/>
	<path class="st0" d="M43.48,71.17c1.04,2.03-0.22,3.15-1.23,3.14c1.84,1.08,1.98,2.78,0.6,3.81c2.15,0.07,2.43,1.64,1.44,2.6
		c2.06,0.34,1.8,1.03,1.52,2.1c1.77,0.58,4.18,1.41,5.06,2.17c0,0,0,0,0,0c-0.85-4.01-3.25-14.86-4.36-19.61
		C45.94,67.95,44.65,70.84,43.48,71.17"/>
	<path class="st0" d="M55.47,61.17c-1.17-1.27,0.38-2.57,1.04-2.81c-1.35-0.84-1.21-1.91,0.21-2.9c-0.87-0.1-2.28-1.07-0.57-1.89
		c-1.78-0.16-2.95-1.64-2.45-3.5c-2.19,0.3-5.88-3.12-6.24-4.13c-0.01,0.04-0.02,0.07-0.02,0.11c1.11,4.75,3.51,15.6,4.36,19.61
		C52.36,64.11,53.51,61.8,55.47,61.17"/>
	<path class="st0" d="M44.41,51.84c1.05,2.03-0.22,3.15-1.23,3.14c1.84,1.07,1.98,2.78,0.6,3.81c2.15,0.07,2.43,1.64,1.44,2.6
		c2.06,0.34,1.8,1.03,1.52,2.1c1.77,0.59,4.18,1.41,5.06,2.17c0,0,0,0,0,0c-0.85-4.01-3.25-14.86-4.36-19.61
		C46.87,48.62,45.58,51.52,44.41,51.84"/>
	<path class="st0" d="M44.39,63.58c-1.46,0.25-2.02-1.31-2.05-1.84c-1.12,0.55-1.92,0.03-2.39-1.34c-0.32,0.55-1.46,1.11-1.71-0.39
		c-0.57,1.14-2.04,1.34-3.38,0.26c-0.28,1.61-3.7,2.75-4.47,2.61c0.02,0.02,0.05,0.04,0.07,0.06c3.53,1.04,12.49,3.71,16.23,4.82
		C45.69,66.79,44.26,65.12,44.39,63.58"/>
	<path class="st0" d="M33.79,67.14c1.73,0.09,2.15,1.33,1.79,1.98c1.34-0.78,2.63-0.22,2.85,1.06c0.82-1.34,2.07-0.92,2.38,0.07
		c1.04-1.17,1.45-0.74,2.13-0.15c1.15-0.89,2.77-2.08,3.76-2.33c0,0,0,0,0,0c-3.74-1.11-12.7-3.78-16.23-4.82
		C32.21,64.31,33.92,66.26,33.79,67.14"/>
	<path class="st0" d="M73.81,71.98c-1.46,0.25-2.02-1.31-2.05-1.84c-1.12,0.55-1.92,0.03-2.38-1.34c-0.32,0.55-1.46,1.11-1.71-0.39
		c-0.57,1.14-2.04,1.34-3.38,0.26c-0.28,1.61-3.7,2.75-4.47,2.61c0.02,0.02,0.05,0.04,0.08,0.06c3.53,1.04,12.49,3.71,16.23,4.82
		C75.1,75.19,73.67,73.53,73.81,71.98"/>
	<path class="st0" d="M63.2,75.54c1.73,0.09,2.15,1.33,1.79,1.98c1.34-0.78,2.63-0.22,2.85,1.06c0.81-1.34,2.07-0.92,2.38,0.07
		c1.04-1.17,1.45-0.74,2.13-0.15c1.15-0.89,2.77-2.08,3.76-2.33c0,0,0,0,0,0c-3.74-1.11-12.7-3.78-16.23-4.82
		C61.62,72.71,63.33,74.66,63.2,75.54"/>
	<path class="st0" d="M65.08,76.5c-1.46,0.25-2.02-1.31-2.05-1.84c-1.12,0.55-1.92,0.03-2.39-1.34c-0.32,0.55-1.46,1.11-1.71-0.39
		c-0.57,1.14-2.04,1.34-3.38,0.26c-0.28,1.61-3.7,2.75-4.47,2.61c0.02,0.02,0.05,0.04,0.07,0.06c3.53,1.04,12.49,3.71,16.23,4.82
		C66.38,79.71,64.95,78.05,65.08,76.5"/>
	<path class="st0" d="M54.48,80.07c1.73,0.09,2.15,1.33,1.79,1.98c1.34-0.78,2.63-0.22,2.85,1.06c0.82-1.34,2.07-0.92,2.38,0.07
		c1.04-1.17,1.45-0.74,2.13-0.15c1.15-0.89,2.77-2.08,3.76-2.33l0,0c-3.74-1.11-12.7-3.78-16.23-4.82
		C52.89,77.24,54.61,79.18,54.48,80.07"/>
	<path class="st0" d="M45.98,62.76c-0.53,1.87-2.69,1.66-3.34,1.39c0.03,1.64-1.05,2.3-2.93,2.08c0.47,0.69,0.49,2.36-1.43,1.82
		c1.03,1.33,0.44,3.18-1.6,4.16c1.75,1.23,1.19,5.95,0.58,6.78c0.04-0.02,0.08-0.04,0.11-0.06c3.23-3.61,11.44-12.75,14.87-16.57
		C50.52,63.03,47.74,63.79,45.98,62.76"/>
	<path class="st0" d="M44.24,77.36c1.08-2.01,2.79-1.8,3.36-1.02c-0.17-2.03,1.22-3.25,2.86-2.8c-1.14-1.73,0.07-2.98,1.43-2.79
		c-0.81-1.89-0.07-2.14,1.02-2.62c-0.41-1.86-0.91-4.46-0.66-5.78c0,0,0,0,0,0c-3.43,3.82-11.65,12.95-14.87,16.57
		C39.98,77.65,43.26,76.71,44.24,77.36"/>
	<path class="st0" d="M47.43,71.06c1.83,0.06,1.9,2.22,1.69,2.9c1.59-0.4,2.39,0.51,2.3,2.34c0.65-0.59,2.38-0.94,1.95,0.99
		c1.29-1.24,3.29-1.02,4.53,0.76c1.17-1.89,6.44-2.14,7.52-1.65c-0.03-0.03-0.05-0.07-0.08-0.1c-4.71-2.72-15.36-9.04-19.28-11.4
		C46.99,66.49,48.18,69.1,47.43,71.06"/>
	<path class="st0" d="M62.45,69.64c-2.38-0.72-2.5-2.53-1.83-3.29c-2.1,0.59-3.62-0.57-3.58-2.41c-1.45,1.58-2.95,0.62-3.11-0.85
		c-1.62,1.31-2.03,0.6-2.75-0.42c-1.64,0.91-3.9,2.12-5.11,2.23c0,0,0,0,0,0c3.92,2.36,14.57,8.68,19.28,11.4
		C63.55,73.93,61.96,70.78,62.45,69.64"/>
	<path class="st0" d="M56.44,65.18c1.83,0.06,1.9,2.22,1.69,2.9c1.59-0.4,2.39,0.51,2.3,2.34c0.65-0.59,2.38-0.94,1.95,0.99
		c1.29-1.24,3.29-1.02,4.53,0.76c1.17-1.89,6.44-2.14,7.52-1.65c-0.03-0.03-0.05-0.07-0.08-0.1c-4.71-2.72-15.36-9.04-19.28-11.4
		C56.01,60.6,57.2,63.21,56.44,65.18"/>
	<path class="st0" d="M71.46,63.76c-2.38-0.72-2.5-2.53-1.83-3.29c-2.1,0.59-3.62-0.57-3.58-2.41c-1.45,1.58-2.95,0.62-3.11-0.85
		c-1.62,1.31-2.03,0.6-2.75-0.42c-1.64,0.91-3.9,2.12-5.11,2.23c0,0,0,0,0,0c3.92,2.36,14.57,8.68,19.28,11.4
		C72.56,68.04,70.97,64.89,71.46,63.76"/>
	<path class="st0" d="M55.92,67.9c-0.35-1.69,1.65-2,2.34-1.88c-0.73-1.42-0.06-2.26,1.68-2.38c-0.7-0.54-1.41-2.09,0.49-1.91
		c-1.44-1.06-1.69-2.93-0.3-4.26c-2.03-0.87-3.44-5.7-3.22-6.75c-0.03,0.03-0.05,0.06-0.08,0.08c-1.49,4.65-5.02,15.18-6.36,19.06
		C51.74,68.81,53.91,67.42,55.92,67.9"/>
	<path class="st0" d="M51.24,54.2c-0.15,2.28-1.81,2.59-2.67,2.06c1.02,1.87,0.27,3.4-1.45,3.58c1.8,1.16,1.24,2.66-0.1,2.97
		c1.59,1.35,1.01,1.8,0.22,2.58c1.22,1.41,2.85,3.36,3.22,4.47c0,0,0,0,0,0c1.33-3.88,4.86-14.41,6.36-19.06
		C55,52.71,52.41,54.53,51.24,54.2"/>
	<path class="st0" d="M49.37,60.42c-1.24-0.46-0.66-2.01-0.29-2.39c-1.16-0.17-1.41-1.07-0.65-2.26c-0.63,0.18-1.86-0.18-0.81-1.33
		c-1.29,0.37-2.47-0.51-2.34-2.3c-1.58,0.88-4.75-1.18-5.05-2.16c0,0.04-0.01,0.08-0.01,0.12c0.52,2.23,1.82,5.73,3.65,8.61
		c1.77,2.93,4.06,5.24,5.31,6.34C48.67,63.77,48.34,61.6,49.37,60.42"/>
	<path class="st0" d="M39,56.96c1.26,1.53,0.86,3.09,0.22,3.58c1.58,0.16,2.31,1.58,2,3.18c1.3-1,2.17,0.18,2.11,1.45
		c1.33-0.77,1.52-0.09,1.94,0.86c1.27-0.48,3.04-1.05,3.91-0.96c0,0,0,0,0,0c-1.24-1.11-3.54-3.41-5.31-6.34
		c-1.82-2.88-3.13-6.38-3.65-8.61C39.89,52.86,39.68,56.14,39,56.96"/>
	<path class="st1" d="M45.17,65.35c-1.43,1.31-3.16,0-3.57-0.58c-0.84,1.41-2.1,1.41-3.59,0.22c0.03,0.83-0.83,2.26-2.17,0.79
		c0.18,1.67-1.3,2.93-3.55,2.7c0.84,1.97-2.12,5.68-3.08,6.07c0.04,0,0.08,0.01,0.12,0.01c4.65-1.37,16.44-4.81,21.37-6.24
		C48.89,67.96,46.12,67.14,45.17,65.35"/>
	<path class="st2" d="M36,76.84c1.97-1.14,3.32-0.06,3.39,0.91c0.92-1.81,2.75-2.12,3.91-0.87c-0.06-2.06,1.63-2.49,2.68-1.62
		c0.31-2.03,1.07-1.86,2.25-1.69c0.63-1.8,1.58-4.28,2.49-5.26c0,0,0,0,0,0c-4.93,1.44-16.72,4.87-21.37,6.24
		C32.23,74.84,35.51,75.77,36,76.84"/>
	<path class="st1" d="M51.7,74.89c1.13,1.58-0.64,3.04-1.36,3.3c1.37,1.08,1.12,2.34-0.49,3.45c0.92,0.17,2.33,1.4,0.43,2.29
		c1.88,0.29,2.99,2.12,2.29,4.32c2.35-0.24,5.97,4.05,6.26,5.28c0.01-0.04,0.02-0.09,0.04-0.13c-0.75-5.74-2.31-18.82-2.86-23.66
		C55.28,71.56,53.85,74.26,51.7,74.89"/>
	<path class="st2" d="M62.62,86.65c-0.93-2.48,0.52-3.75,1.59-3.68c-1.86-1.39-1.86-3.42-0.29-4.58c-2.28-0.2-2.43-2.09-1.3-3.18
		c-2.16-0.52-1.82-1.33-1.42-2.59c-1.83-0.8-4.32-1.92-5.19-2.88c0,0,0,0,0,0c0.54,4.84,2.1,17.92,2.86,23.66
		C59.72,90.35,61.34,86.97,62.62,86.65"/>
	<path class="st1" d="M61.89,72.62c1.3-1.06,2.92,0.13,3.27,0.65c0.8-1.18,2.01-1.14,3.28-0.04c0.02-0.73,0.96-1.96,2.06-0.61
		c-0.01-1.48,1.53-2.55,3.67-2.28c-0.57-1.78,2.88-5.08,3.98-5.45c-0.04,0-0.08-0.01-0.13-0.01c-5.21,1.27-17.13,4.04-21.54,5.04
		C58.26,70.27,60.98,71.05,61.89,72.62"/>
	<path class="st2" d="M71.19,62.82c-2.16,1.01-3.56,0.05-3.65-0.78c-1.01,1.6-2.9,1.84-4.21,0.77c0.15,1.77-1.58,2.12-2.76,1.38
		c-0.17,1.72-0.96,1.56-2.2,1.41c-0.47,1.51-1.15,3.55-1.9,4.33c0,0,0,0,0,0c4.41-1,16.32-3.77,21.54-5.04
		C75.05,64.61,71.68,63.76,71.19,62.82"/>
	<path class="st1" d="M58.88,66c0.25-1.97,2.53-1.48,3.21-1.06c-0.25-1.83,0.78-2.46,2.69-1.87c-0.55-0.87-0.73-2.83,1.24-1.86
		c-1.16-1.74-0.72-3.85,1.27-4.72c-1.86-1.77-1.57-7.56-0.93-8.61c-0.04,0.02-0.08,0.04-0.12,0.06
		c-3.34,4.39-11.08,14.28-13.96,17.91C54.04,65.26,56.9,64.66,58.88,66"/>
	<path class="st2" d="M58.97,49.3c-1.01,2.39-2.91,2.04-3.64,1.12c0.4,2.44-0.98,3.78-2.9,3.25c1.5,2,0.34,3.37-1.22,3.16
		c1.2,2.11,0.42,2.36-0.73,2.88c0.78,2.03,1.81,4.81,1.79,6.15c0,0,0,0,0,0c2.89-3.63,10.62-13.52,13.96-17.91
		C63.58,49.25,60.11,50.14,58.97,49.3"/>
	<path class="st1" d="M49.82,56.81c-1.24-0.46-0.66-2.01-0.29-2.39c-1.16-0.17-1.41-1.07-0.65-2.26c-0.63,0.18-1.86-0.18-0.81-1.33
		c-1.29,0.37-2.47-0.51-2.34-2.3c-1.58,0.88-4.75-1.18-5.05-2.16c0,0.04-0.01,0.08-0.01,0.12c0.52,2.23,1.82,5.73,3.65,8.61
		c1.77,2.93,4.06,5.24,5.31,6.34C49.12,60.17,48.78,57.99,49.82,56.81"/>
	<path class="st2" d="M39.44,53.35c1.26,1.53,0.86,3.09,0.22,3.58c1.58,0.16,2.31,1.58,2,3.18c1.3-1,2.17,0.18,2.11,1.45
		c1.33-0.77,1.52-0.09,1.94,0.86c1.27-0.48,3.04-1.05,3.91-0.96c0,0,0,0,0,0c-1.24-1.11-3.54-3.41-5.31-6.34
		c-1.82-2.88-3.13-6.38-3.65-8.61C40.34,49.25,40.13,52.53,39.44,53.35"/>
	<path class="st3" d="M62.51,71.26c0,0.86-0.7,1.56-1.56,1.56c-0.86,0-1.56-0.7-1.56-1.56c0-0.86,0.7-1.56,1.56-1.56
		C61.81,69.69,62.51,70.39,62.51,71.26"/>
	<path class="st3" d="M61.55,67.32c0,0.86-0.7,1.56-1.56,1.56c-0.86,0-1.56-0.7-1.56-1.56c0-0.86,0.7-1.56,1.56-1.56
		C60.85,65.76,61.55,66.46,61.55,67.32"/>
	<path class="st3" d="M50.34,65.03c0,0.86-0.7,1.56-1.56,1.56c-0.86,0-1.56-0.7-1.56-1.56c0-0.86,0.7-1.56,1.56-1.56
		C49.64,63.46,50.34,64.16,50.34,65.03"/>
	<path class="st3" d="M51.9,67.1c0,0.86-0.7,1.56-1.56,1.56c-0.86,0-1.56-0.7-1.56-1.56c0-0.86,0.7-1.56,1.56-1.56
		C51.2,65.53,51.9,66.23,51.9,67.1"/>
	<path class="st3" d="M47.76,66.09c0,0.86-0.7,1.56-1.56,1.56c-0.86,0-1.56-0.7-1.56-1.56c0-0.86,0.7-1.56,1.56-1.56
		C47.06,64.52,47.76,65.22,47.76,66.09"/>
	<path class="st3" d="M46.57,68.18c0,0.86-0.7,1.56-1.56,1.56c-0.86,0-1.56-0.7-1.56-1.56c0-0.86,0.7-1.56,1.56-1.56
		C45.87,66.61,46.57,67.31,46.57,68.18"/>
	<path class="st3" d="M51.91,70.35c0,0.86-0.7,1.56-1.56,1.56c-0.86,0-1.56-0.7-1.56-1.56c0-0.86,0.7-1.56,1.56-1.56
		C51.21,68.79,51.91,69.49,51.91,70.35"/>
	<path class="st3" d="M53.77,70.32c0,0.86-0.7,1.56-1.56,1.56c-0.86,0-1.56-0.7-1.56-1.56c0-0.86,0.7-1.56,1.56-1.56
		C53.07,68.76,53.77,69.46,53.77,70.32"/>
	<path class="st3" d="M49.84,69.32c0,0.86-0.7,1.56-1.56,1.56c-0.86,0-1.56-0.7-1.56-1.56c0-0.86,0.7-1.56,1.56-1.56
		C49.14,67.75,49.84,68.45,49.84,69.32"/>
	<path class="st3" d="M48.78,71.26c0,0.86-0.7,1.56-1.56,1.56c-0.86,0-1.56-0.7-1.56-1.56c0-0.86,0.7-1.56,1.56-1.56
		C48.08,69.69,48.78,70.39,48.78,71.26"/>
	<path class="st3" d="M53.98,66.59c0,0.86-0.7,1.56-1.56,1.56c-0.86,0-1.56-0.7-1.56-1.56c0-0.86,0.7-1.56,1.56-1.56
		C53.28,65.03,53.98,65.73,53.98,66.59"/>
	<path class="st3" d="M55.63,67.83c0,0.86-0.7,1.56-1.56,1.56c-0.86,0-1.56-0.7-1.56-1.56c0-0.86,0.7-1.56,1.56-1.56
		C54.93,66.27,55.63,66.97,55.63,67.83"/>
	<path class="st3" d="M58.17,64.35c0,0.86-0.7,1.56-1.56,1.56c-0.86,0-1.56-0.7-1.56-1.56c0-0.86,0.7-1.56,1.56-1.56
		C57.47,62.79,58.17,63.49,58.17,64.35"/>
	<path class="st3" d="M56,66.59c0,0.86-0.7,1.56-1.56,1.56c-0.86,0-1.56-0.7-1.56-1.56c0-0.86,0.7-1.56,1.56-1.56
		C55.3,65.03,56,65.73,56,66.59"/>
	<path class="st3" d="M57.86,66.68c0,0.86-0.7,1.56-1.56,1.56c-0.86,0-1.56-0.7-1.56-1.56c0-0.86,0.7-1.56,1.56-1.56
		C57.16,65.11,57.86,65.81,57.86,66.68"/>
	<path class="st3" d="M58.6,65.63c0,0.86-0.7,1.56-1.56,1.56c-0.86,0-1.56-0.7-1.56-1.56c0-0.86,0.7-1.56,1.56-1.56
		C57.9,64.06,58.6,64.76,58.6,65.63"/>
	<path class="st3" d="M56.51,62.41c0,0.86-0.7,1.56-1.56,1.56c-0.86,0-1.56-0.7-1.56-1.56c0-0.86,0.7-1.56,1.56-1.56
		C55.81,60.84,56.51,61.54,56.51,62.41"/>
	<path class="st3" d="M59.96,61.62c0,0.86-0.7,1.56-1.56,1.56c-0.86,0-1.56-0.7-1.56-1.56c0-0.86,0.7-1.56,1.56-1.56
		C59.26,60.06,59.96,60.76,59.96,61.62"/>
	<path class="st3" d="M56.51,58.7c0,0.86-0.7,1.56-1.56,1.56c-0.86,0-1.56-0.7-1.56-1.56c0-0.86,0.7-1.56,1.56-1.56
		C55.81,57.14,56.51,57.84,56.51,58.7"/>
	<path class="st3" d="M53.98,61.15c0,0.86-0.7,1.56-1.56,1.56c-0.86,0-1.56-0.7-1.56-1.56c0-0.86,0.7-1.56,1.56-1.56
		C53.28,59.59,53.98,60.29,53.98,61.15"/>
	<path class="st3" d="M56.71,75.99c0,0.86-0.7,1.56-1.56,1.56c-0.86,0-1.56-0.7-1.56-1.56c0-0.86,0.7-1.56,1.56-1.56
		C56.01,74.43,56.71,75.13,56.71,75.99"/>
	<path class="st3" d="M56.29,75.07c0,0.86-0.7,1.56-1.56,1.56c-0.87,0-1.56-0.7-1.56-1.56c0-0.86,0.7-1.56,1.56-1.56
		C55.59,73.51,56.29,74.21,56.29,75.07"/>
	<path class="st3" d="M59.66,74.92c0,0.86-0.7,1.56-1.56,1.56c-0.86,0-1.56-0.7-1.56-1.56c0-0.86,0.7-1.56,1.56-1.56
		C58.96,73.36,59.66,74.06,59.66,74.92"/>
	<path class="st3" d="M61.55,73.19c0,0.86-0.7,1.56-1.56,1.56c-0.86,0-1.56-0.7-1.56-1.56c0-0.86,0.7-1.56,1.56-1.56
		C60.85,71.62,61.55,72.32,61.55,73.19"/>
	<path class="st3" d="M53.64,73.6c0,0.86-0.7,1.56-1.56,1.56c-0.86,0-1.56-0.7-1.56-1.56c0-0.86,0.7-1.56,1.56-1.56
		C52.94,72.04,53.64,72.74,53.64,73.6"/>
	<path class="st3" d="M59.34,71.62c0,0.86-0.7,1.56-1.56,1.56c-0.86,0-1.56-0.7-1.56-1.56c0-0.86,0.7-1.56,1.56-1.56
		C58.64,70.06,59.34,70.76,59.34,71.62"/>
	<path class="st3" d="M56.11,71.7c0,0.86-0.7,1.56-1.56,1.56c-0.87,0-1.57-0.7-1.57-1.56c0-0.86,0.7-1.56,1.57-1.56
		C55.41,70.14,56.11,70.84,56.11,71.7"/>
	<path class="st3" d="M58.39,69.96c0,0.86-0.7,1.56-1.56,1.56c-0.86,0-1.56-0.7-1.56-1.56c0-0.86,0.7-1.56,1.56-1.56
		C57.69,68.39,58.39,69.09,58.39,69.96"/>
	<path class="st4" d="M54.73,76.13c0,0.2-0.16,0.37-0.37,0.37S54,76.34,54,76.13c0-0.2,0.16-0.37,0.37-0.37S54.73,75.93,54.73,76.13
		"/>
	<path class="st4" d="M51.59,70.55c0,0.2-0.16,0.37-0.37,0.37c-0.2,0-0.37-0.16-0.37-0.37c0-0.2,0.16-0.37,0.37-0.37
		C51.42,70.18,51.59,70.35,51.59,70.55"/>
	<path class="st4" d="M49.14,70.01c0,0.2-0.16,0.37-0.37,0.37s-0.37-0.16-0.37-0.37c0-0.2,0.16-0.37,0.37-0.37
		S49.14,69.81,49.14,70.01"/>
	<path class="st4" d="M54.73,71.26c0,0.2-0.16,0.37-0.37,0.37S54,71.46,54,71.26c0-0.2,0.16-0.37,0.37-0.37S54.73,71.05,54.73,71.26
		"/>
	<path class="st4" d="M53.71,67.46c0,0.2-0.16,0.37-0.37,0.37c-0.2,0-0.37-0.16-0.37-0.37c0-0.2,0.16-0.37,0.37-0.37
		C53.55,67.1,53.71,67.26,53.71,67.46"/>
	<path class="st4" d="M51.9,65.83c0,0.2-0.16,0.37-0.37,0.37c-0.2,0-0.37-0.16-0.37-0.37c0-0.2,0.16-0.37,0.37-0.37
		C51.73,65.46,51.9,65.62,51.9,65.83"/>
	<path class="st4" d="M57.03,65.39c0,0.2-0.16,0.37-0.37,0.37c-0.2,0-0.37-0.16-0.37-0.37c0-0.2,0.16-0.37,0.37-0.37
		C56.87,65.03,57.03,65.19,57.03,65.39"/>
	<path class="st4" d="M56.5,67.57c0,0.2-0.16,0.37-0.37,0.37c-0.2,0-0.37-0.16-0.37-0.37c0-0.2,0.16-0.37,0.37-0.37
		C56.33,67.2,56.5,67.37,56.5,67.57"/>
	<path class="st4" d="M56.13,69.96c0,0.2-0.16,0.37-0.37,0.37c-0.2,0-0.37-0.16-0.37-0.37c0-0.2,0.16-0.37,0.37-0.37
		C55.97,69.59,56.13,69.76,56.13,69.96"/>
	<path class="st4" d="M61.15,66.25c0,0.2-0.16,0.37-0.37,0.37c-0.2,0-0.37-0.16-0.37-0.37c0-0.2,0.16-0.37,0.37-0.37
		C60.99,65.88,61.15,66.05,61.15,66.25"/>
	<path class="st4" d="M58.16,64.6c0,0.2-0.16,0.37-0.37,0.37c-0.2,0-0.37-0.16-0.37-0.37c0-0.2,0.16-0.37,0.37-0.37
		C58,64.23,58.16,64.4,58.16,64.6"/>
	<path class="st4" d="M48.96,63.99c0,0.2-0.16,0.37-0.37,0.37c-0.2,0-0.37-0.16-0.37-0.37c0-0.2,0.16-0.37,0.37-0.37
		C48.79,63.62,48.96,63.78,48.96,63.99"/>
	<path class="st4" d="M54.8,62.6c0,0.2-0.16,0.37-0.37,0.37c-0.2,0-0.37-0.16-0.37-0.37c0-0.2,0.16-0.37,0.37-0.37
		C54.63,62.24,54.8,62.4,54.8,62.6"/>
	<path class="st4" d="M55.31,57.3c0,0.2-0.16,0.37-0.37,0.37c-0.2,0-0.37-0.16-0.37-0.37c0-0.2,0.16-0.37,0.37-0.37
		C55.15,56.94,55.31,57.1,55.31,57.3"/>
	<path class="st4" d="M52.08,60.48c0,0.2-0.16,0.37-0.37,0.37c-0.2,0-0.37-0.16-0.37-0.37c0-0.2,0.16-0.37,0.37-0.37
		C51.92,60.11,52.08,60.27,52.08,60.48"/>
	<path class="st4" d="M59.74,61.62c0,0.2-0.16,0.37-0.37,0.37s-0.37-0.16-0.37-0.37c0-0.2,0.16-0.37,0.37-0.37
		S59.74,61.42,59.74,61.62"/>
	<path class="st4" d="M46.2,65.26c0,0.2-0.16,0.37-0.37,0.37c-0.2,0-0.37-0.16-0.37-0.37c0-0.2,0.16-0.37,0.37-0.37
		C46.03,64.9,46.2,65.06,46.2,65.26"/>
	<path class="st4" d="M58.9,71.62c0,0.2-0.16,0.37-0.37,0.37c-0.2,0-0.37-0.16-0.37-0.37c0-0.2,0.16-0.37,0.37-0.37
		C58.73,71.26,58.9,71.42,58.9,71.62"/>
	<path class="st4" d="M51.59,74.56c0,0.2-0.16,0.37-0.37,0.37c-0.2,0-0.37-0.16-0.37-0.37c0-0.2,0.16-0.37,0.37-0.37
		C51.42,74.19,51.59,74.36,51.59,74.56"/>
	<path class="st4" d="M46.75,72.41c0,0.2-0.16,0.37-0.37,0.37s-0.37-0.16-0.37-0.37c0-0.2,0.16-0.37,0.37-0.37
		S46.75,72.2,46.75,72.41"/>
	<path class="st4" d="M50.71,71.26c0,0.2-0.16,0.37-0.37,0.37c-0.2,0-0.37-0.16-0.37-0.37c0-0.2,0.16-0.37,0.37-0.37
		C50.55,70.89,50.71,71.05,50.71,71.26"/>
	<path class="st4" d="M55.51,77.19c0,0.2-0.16,0.37-0.37,0.37c-0.2,0-0.37-0.16-0.37-0.37c0-0.2,0.16-0.37,0.37-0.37
		C55.34,76.82,55.51,76.99,55.51,77.19"/>
	<path class="st4" d="M59.63,75.53c0,0.2-0.16,0.37-0.37,0.37c-0.2,0-0.37-0.16-0.37-0.37c0-0.2,0.16-0.37,0.37-0.37
		C59.46,75.16,59.63,75.33,59.63,75.53"/>
	<path class="st4" d="M62.8,71.34c0,0.2-0.16,0.37-0.37,0.37c-0.2,0-0.37-0.16-0.37-0.37c0-0.2,0.16-0.37,0.37-0.37
		C62.63,70.97,62.8,71.14,62.8,71.34"/>
	<path class="st4" d="M61.15,74.43c0,0.2-0.16,0.37-0.37,0.37c-0.2,0-0.37-0.16-0.37-0.37c0-0.2,0.16-0.37,0.37-0.37
		C60.99,74.06,61.15,74.22,61.15,74.43"/>
</g>
</svg>
