<?xml version="1.0" encoding="utf-8"?>
<!-- Generator: Adobe Illustrator 23.1.1, SVG Export Plug-In . SVG Version: 6.00 Build 0)  -->
<svg version="1.1" id="Layer_1" xmlns="http://www.w3.org/2000/svg" xmlns:xlink="http://www.w3.org/1999/xlink" x="0px" y="0px"
	 viewBox="0 0 108 108" style="enable-background:new 0 0 108 108;" xml:space="preserve">
<style type="text/css">
	.st0{fill:#E0E5E1;}
	.st1{fill:#459544;}
</style>
<g>
	<g>
		<path class="st0" d="M53.03,88.57c-1.07-2.83-5.65-4.02-6.26-8.11c-0.6-4.09,2.34-9.54,3.01-11.29c0.68-1.75-0.81-2.25,1.43,0.03
			c2.24,2.28,3.15,1.67,4.58,4.14c1.43,2.47,1.06,8.11-0.01,9.48C54.72,84.19,53.03,88.57,53.03,88.57z"/>
		<path class="st1" d="M52.68,86.14c-0.82-2.17-4.34-3.09-4.81-6.23c-0.46-3.14,1.8-7.33,2.32-8.68c0.52-1.35-0.62-1.73,1.1,0.02
			c1.72,1.75,2.42,1.28,3.52,3.18c1.1,1.9,0.81,6.23-0.01,7.28C53.97,82.77,52.68,86.14,52.68,86.14z"/>
	</g>
	<g>
		<path class="st0" d="M72.35,83.54c-2.53-1.65-6.93,0.1-9.84-2.85c-2.9-2.95-3.74-9.08-4.23-10.89c-0.49-1.81-1.98-1.34,1.17-0.82
			c3.16,0.52,3.53-0.51,6.14,0.64c2.61,1.15,5.64,5.92,5.59,7.66S72.35,83.54,72.35,83.54z"/>
		<path class="st1" d="M70.64,81.79c-1.95-1.27-5.33,0.07-7.56-2.19c-2.23-2.26-2.88-6.98-3.25-8.37c-0.37-1.39-1.52-1.03,0.9-0.63
			c2.43,0.4,2.71-0.39,4.72,0.49c2.01,0.89,4.33,4.55,4.29,5.88C69.69,78.31,70.64,81.79,70.64,81.79z"/>
	</g>
	<g>
		<path class="st0" d="M85.7,67.35c-3.02,0.17-5.54,4.17-9.62,3.51c-4.08-0.66-8.38-5.12-9.84-6.29c-1.46-1.18-2.39,0.09,0.46-1.36
			c2.85-1.45,2.54-2.5,5.33-3.11c2.79-0.61,8.05,1.45,9.03,2.88S85.7,67.35,85.7,67.35z"/>
		<path class="st1" d="M83.28,66.96c-2.32,0.13-4.26,3.2-7.4,2.69c-3.14-0.51-6.44-3.93-7.57-4.84c-1.12-0.9-1.84,0.07,0.35-1.04
			c2.19-1.11,1.95-1.92,4.1-2.39c2.14-0.47,6.19,1.12,6.94,2.22C80.46,64.7,83.28,66.96,83.28,66.96z"/>
	</g>
	<g>
		<path class="st0" d="M86.87,46.2c-2.34,1.92-2.01,6.64-5.7,8.51s-9.78,0.82-11.66,0.73s-1.88,1.48-0.43-1.37
			c1.45-2.85,0.58-3.52,2.47-5.66s7.36-3.58,8.99-3C82.18,45.99,86.87,46.2,86.87,46.2z"/>
		<path class="st1" d="M84.68,47.3c-1.8,1.47-1.55,5.1-4.38,6.54s-7.52,0.63-8.96,0.56s-1.44,1.14-0.33-1.05
			c1.11-2.19,0.45-2.7,1.9-4.35c1.45-1.64,5.65-2.75,6.91-2.31C81.08,47.14,84.68,47.3,84.68,47.3z"/>
	</g>
	<g>
		<path class="st0" d="M74.57,29.65c-0.76,2.93,2.29,6.54,0.42,10.23s-7.42,6.44-8.98,7.47c-1.56,1.04-0.64,2.31-1.15-0.85
			c-0.51-3.16-1.61-3.18-1.34-6.02c0.26-2.84,3.82-7.23,5.48-7.73C70.66,32.25,74.57,29.65,74.57,29.65z"/>
		<path class="st1" d="M73.46,31.83c-0.58,2.25,1.76,5.03,0.33,7.86s-5.7,4.95-6.9,5.74c-1.2,0.8-0.49,1.77-0.89-0.65
			c-0.39-2.43-1.24-2.44-1.03-4.63c0.2-2.19,2.94-5.56,4.21-5.94C70.45,33.83,73.46,31.83,73.46,31.83z"/>
	</g>
	<g>
		<path class="st0" d="M53.09,24.3c1.03,2.84,5.59,4.1,6.13,8.2c0.54,4.1-2.48,9.5-3.19,11.24c-0.7,1.74,0.78,2.27-1.43-0.05
			c-2.21-2.32-3.12-1.72-4.51-4.21c-1.39-2.5-0.93-8.13,0.16-9.48S53.09,24.3,53.09,24.3z"/>
		<path class="st1" d="M53.4,26.73c0.79,2.19,4.3,3.15,4.71,6.31c0.42,3.15-1.91,7.3-2.45,8.64c-0.54,1.34,0.6,1.74-1.1-0.04
			c-1.7-1.78-2.4-1.32-3.47-3.24c-1.07-1.92-0.71-6.25,0.12-7.28C52.06,30.08,53.4,26.73,53.4,26.73z"/>
	</g>
	<g>
		<path class="st0" d="M33.58,29.99c2.51,1.69,6.93,0.01,9.79,3c2.86,2.99,3.6,9.13,4.06,10.95c0.46,1.82,1.96,1.37-1.18,0.8
			c-3.15-0.57-3.53,0.46-6.13-0.74s-5.55-6.01-5.47-7.74C34.74,34.54,33.58,29.99,33.58,29.99z"/>
		<path class="st1" d="M35.27,31.76c1.93,1.3,5.33,0.01,7.53,2.31c2.2,2.3,2.77,7.02,3.12,8.42c0.35,1.4,1.51,1.05-0.91,0.62
			c-2.42-0.44-2.72,0.35-4.71-0.57c-1.99-0.92-4.26-4.62-4.2-5.95C36.16,35.26,35.27,31.76,35.27,31.76z"/>
	</g>
	<g>
		<path class="st0" d="M22.49,46.08c3.02-0.12,5.61-4.08,9.68-3.36s8.3,5.25,9.74,6.45c1.44,1.2,2.39-0.05-0.48,1.35
			c-2.88,1.4-2.58,2.46-5.38,3.02s-8.03-1.58-8.98-3.02C26.11,49.07,22.49,46.08,22.49,46.08z"/>
		<path class="st1" d="M24.9,46.52c2.32-0.09,4.31-3.14,7.44-2.58c3.13,0.56,6.38,4.03,7.49,4.95s1.84-0.04-0.37,1.04
			c-2.21,1.08-1.98,1.89-4.14,2.32c-2.15,0.44-6.17-1.21-6.9-2.32C27.68,48.82,24.9,46.52,24.9,46.52z"/>
	</g>
	<g>
		<path class="st0" d="M19.61,67.22c2.37-1.88,2.11-6.6,5.83-8.42s9.8-0.66,11.67-0.55c1.87,0.11,1.9-1.46,0.41,1.37
			c-1.49,2.83-0.63,3.51-2.56,5.62c-1.92,2.11-7.41,3.46-9.04,2.86S19.61,67.22,19.61,67.22z"/>
		<path class="st1" d="M21.82,66.15c1.82-1.44,1.62-5.08,4.48-6.47c2.86-1.4,7.53-0.51,8.97-0.42c1.44,0.09,1.46-1.12,0.31,1.05
			c-1.15,2.17-0.49,2.69-1.97,4.32c-1.48,1.62-5.69,2.66-6.94,2.2C25.42,66.36,21.82,66.15,21.82,66.15z"/>
	</g>
	<g>
		<path class="st0" d="M36.04,81.78c0.8-2.92-2.19-6.58-0.26-10.24c1.93-3.66,7.52-6.32,9.1-7.33c1.58-1.01,0.68-2.3,1.14,0.87
			c0.46,3.16,1.56,3.2,1.25,6.04s-3.94,7.17-5.6,7.64C39.99,79.24,36.04,81.78,36.04,81.78z"/>
		<path class="st1" d="M37.18,79.61c0.62-2.24-1.68-5.06-0.2-7.87s5.78-4.86,6.99-5.64c1.21-0.78,0.52-1.77,0.88,0.67
			c0.36,2.43,1.2,2.46,0.96,4.65c-0.24,2.18-3.03,5.51-4.31,5.87C40.22,77.66,37.18,79.61,37.18,79.61z"/>
	</g>
	<g>
		<path class="st0" d="M65.02,25.56c-0.33,3.91,4.37,7.87,2.78,13c-1.59,5.13-8.08,9.85-9.86,11.52s-0.31,3.09-1.66-0.84
			c-1.35-3.93-2.75-3.72-3.04-7.41c-0.28-3.7,3.31-10.09,5.33-11.09C60.59,29.74,65.02,25.56,65.02,25.56z"/>
		<path class="st1" d="M64.07,28.59c-0.25,3.01,3.36,6.05,2.14,9.99s-6.21,7.57-7.57,8.86s-0.24,2.38-1.28-0.64s-2.11-2.86-2.33-5.7
			c-0.22-2.84,2.55-7.75,4.09-8.52C60.67,31.81,64.07,28.59,64.07,28.59z"/>
	</g>
	<g>
		<path class="st0" d="M81.57,38.06c-2.57,2.96-1.12,8.93-5.43,12.13c-4.31,3.2-12.34,3.18-14.76,3.48
			c-2.42,0.3-2.08,2.31-0.85-1.65c1.23-3.96-0.03-4.62,1.92-7.78c1.95-3.15,8.63-6.19,10.84-5.8
			C75.52,38.83,81.57,38.06,81.57,38.06z"/>
		<path class="st1" d="M79.01,39.96c-1.98,2.28-0.86,6.86-4.17,9.32c-3.31,2.46-9.48,2.45-11.34,2.68c-1.86,0.23-1.6,1.78-0.65-1.27
			s-0.02-3.55,1.48-5.98c1.5-2.42,6.63-4.75,8.33-4.46S79.01,39.96,79.01,39.96z"/>
	</g>
	<g>
		<path class="st0" d="M87.51,56.81c-3.74,1.18-5.62,7.03-10.97,7.51c-5.35,0.48-12.19-3.73-14.41-4.73
			c-2.22-1.01-2.98,0.88,0.14-1.85s2.39-3.96,5.7-5.63s10.59-0.77,12.28,0.71C81.96,54.3,87.51,56.81,87.51,56.81z"/>
		<path class="st1" d="M84.34,57.09c-2.88,0.91-4.32,5.4-8.43,5.77c-4.11,0.37-9.37-2.86-11.07-3.64c-1.71-0.77-2.29,0.68,0.11-1.42
			s1.84-3.04,4.38-4.32c2.54-1.28,8.14-0.59,9.44,0.55S84.34,57.09,84.34,57.09z"/>
	</g>
	<g>
		<path class="st0" d="M80.65,77.5c-3.6-1.56-8.85,1.64-13.21-1.5s-6.77-10.79-7.79-13.01c-1.02-2.21-2.83-1.28,1.32-1.31
			s4.4-1.43,7.99-0.52c3.59,0.9,8.51,6.35,8.82,8.57C78.09,71.96,80.65,77.5,80.65,77.5z"/>
		<path class="st1" d="M78.07,75.63c-2.77-1.2-6.8,1.26-10.15-1.15c-3.35-2.41-5.21-8.3-5.99-10c-0.78-1.7-2.18-0.98,1.01-1.01
			c3.19-0.02,3.38-1.1,6.14-0.4c2.76,0.7,6.54,4.88,6.78,6.59C76.1,71.38,78.07,75.63,78.07,75.63z"/>
	</g>
	<g>
		<path class="st0" d="M64.86,88.75c-2.33-3.16-8.47-3.04-10.66-7.94c-2.19-4.9-0.42-12.74-0.19-15.16c0.23-2.43-1.8-2.53,1.8-0.47
			c3.6,2.07,4.52,0.98,7.17,3.57s4.16,9.77,3.3,11.85C65.43,82.68,64.86,88.75,64.86,88.75z"/>
		<path class="st1" d="M63.56,85.84c-1.79-2.43-6.51-2.34-8.19-6.1c-1.68-3.77-0.32-9.79-0.14-11.65c0.18-1.86-1.38-1.95,1.38-0.36
			c2.77,1.59,3.47,0.75,5.51,2.74c2.04,1.99,3.2,7.51,2.54,9.11C64,81.18,63.56,85.84,63.56,85.84z"/>
	</g>
	<g>
		<path class="st0" d="M42.25,88.36c0.55-3.89-3.91-8.11-2.03-13.14c1.88-5.03,8.63-9.38,10.5-10.94c1.87-1.57,0.49-3.07,1.61,0.93
			c1.12,4,2.54,3.87,2.61,7.57c0.07,3.71-3.88,9.88-5.95,10.76S42.25,88.36,42.25,88.36z"/>
		<path class="st1" d="M43.37,85.39c0.42-2.99-3-6.23-1.56-10.1c1.44-3.87,6.63-7.21,8.07-8.41s0.38-2.36,1.24,0.71
			c0.86,3.07,1.95,2.97,2,5.82s-2.98,7.59-4.57,8.27C46.95,82.37,43.37,85.39,43.37,85.39z"/>
	</g>
	<g>
		<path class="st0" d="M25.76,74.78c2.87-2.68,2.05-8.76,6.67-11.5c4.62-2.74,12.6-1.88,15.04-1.93c2.44-0.05,2.31-2.08,0.67,1.73
			c-1.64,3.81-0.46,4.6-2.73,7.53s-9.23,5.25-11.39,4.64C31.86,74.65,25.76,74.78,25.76,74.78z"/>
		<path class="st1" d="M28.5,73.16c2.21-2.06,1.57-6.74,5.12-8.84s9.69-1.44,11.56-1.48c1.87-0.04,1.77-1.6,0.51,1.33
			c-1.26,2.93-0.35,3.54-2.09,5.79c-1.74,2.25-7.09,4.04-8.75,3.57C33.19,73.07,28.5,73.16,28.5,73.16z"/>
	</g>
	<g>
		<path class="st0" d="M20.76,55.84c3.84-0.81,6.28-6.45,11.65-6.41c5.37,0.04,11.76,4.9,13.88,6.12c2.11,1.22,3.05-0.59-0.32,1.83
			c-3.37,2.42-2.77,3.71-6.22,5.04s-10.61-0.26-12.15-1.91C26.05,58.88,20.76,55.84,20.76,55.84z"/>
		<path class="st1" d="M23.95,55.87c2.95-0.62,4.83-4.96,8.95-4.92s9.04,3.76,10.66,4.7c1.62,0.94,2.34-0.45-0.25,1.41
			c-2.59,1.86-2.13,2.85-4.78,3.88c-2.66,1.03-8.16-0.2-9.34-1.46C28.01,58.21,23.95,55.87,23.95,55.87z"/>
	</g>
	<g>
		<path class="st0" d="M26.99,36.62c3.49,1.79,8.94-1.05,13.08,2.37c4.14,3.42,6.04,11.22,6.91,13.49c0.87,2.28,2.74,1.47-1.4,1.22
			c-4.14-0.25-4.48,1.13-8.01-0.01c-3.53-1.14-8.07-6.9-8.23-9.14C29.18,42.31,26.99,36.62,26.99,36.62z"/>
		<path class="st1" d="M29.44,38.65c2.68,1.38,6.87-0.81,10.05,1.82s4.65,8.62,5.31,10.37s2.11,1.13-1.08,0.94s-3.45,0.87-6.16-0.01
			s-6.2-5.3-6.33-7.02C31.12,43.03,29.44,38.65,29.44,38.65z"/>
	</g>
	<g>
		<path class="st0" d="M44.44,24.89c1.85,3.46,7.95,4.22,9.41,9.39c1.46,5.17-1.41,12.67-1.99,15.03s1.42,2.76-1.85,0.2
			c-3.27-2.56-4.33-1.62-6.58-4.56c-2.25-2.94-2.72-10.26-1.57-12.2C43,30.81,44.44,24.89,44.44,24.89z"/>
		<path class="st1" d="M45.3,27.95c1.43,2.66,6.11,3.24,7.23,7.21c1.12,3.97-1.08,9.73-1.53,11.55c-0.44,1.82,1.09,2.12-1.42,0.16
			c-2.51-1.97-3.33-1.24-5.06-3.51s-2.09-7.89-1.21-9.38C44.2,32.5,45.3,27.95,45.3,27.95z"/>
	</g>
	<g>
		<path class="st0" d="M66.51,34.55c-0.76,2.93,2.29,6.54,0.42,10.23c-1.87,3.69-7.42,6.44-8.98,7.47
			c-1.56,1.04-0.64,2.31-1.15-0.85s-1.61-3.18-1.34-6.02c0.26-2.84,3.82-7.23,5.48-7.73C62.6,37.15,66.51,34.55,66.51,34.55z"/>
		<path class="st1" d="M65.4,36.73c-0.58,2.25,1.76,5.03,0.33,7.86s-5.7,4.95-6.9,5.74s-0.49,1.77-0.89-0.65
			c-0.39-2.43-1.24-2.44-1.03-4.63c0.2-2.19,2.94-5.56,4.21-5.94C62.39,38.73,65.4,36.73,65.4,36.73z"/>
	</g>
	<g>
		<path class="st0" d="M60.82,41.52c-0.76,2.93,2.29,6.54,0.42,10.23c-1.87,3.69-7.42,6.44-8.98,7.47
			c-1.56,1.04-0.64,2.31-1.15-0.85c-0.51-3.16-1.61-3.18-1.34-6.02c0.26-2.84,3.82-7.23,5.48-7.73
			C56.91,44.12,60.82,41.52,60.82,41.52z"/>
		<path class="st1" d="M59.71,43.7c-0.58,2.25,1.76,5.03,0.33,7.86c-1.44,2.84-5.7,4.95-6.9,5.74c-1.2,0.8-0.49,1.77-0.89-0.65
			c-0.39-2.43-1.24-2.44-1.03-4.63s2.94-5.56,4.21-5.94C56.71,45.71,59.71,43.7,59.71,43.7z"/>
	</g>
	<g>
		<path class="st0" d="M77.46,46.2c-2.34,1.92-2.01,6.64-5.7,8.51c-3.69,1.87-9.78,0.82-11.66,0.73c-1.88-0.09-1.88,1.48-0.43-1.37
			c1.45-2.85,0.58-3.52,2.47-5.66c1.89-2.14,7.36-3.58,8.99-3C72.77,45.99,77.46,46.2,77.46,46.2z"/>
		<path class="st1" d="M75.27,47.3c-1.8,1.47-1.55,5.1-4.38,6.54s-7.52,0.63-8.96,0.56s-1.44,1.14-0.33-1.05
			c1.11-2.19,0.45-2.7,1.9-4.35c1.45-1.64,5.65-2.75,6.91-2.31C71.66,47.14,75.27,47.3,75.27,47.3z"/>
	</g>
	<g>
		<path class="st0" d="M79.42,62.06c-3.02,0.17-5.54,4.17-9.62,3.51c-4.08-0.66-8.38-5.12-9.84-6.29c-1.46-1.18-2.39,0.09,0.46-1.36
			s2.54-2.5,5.33-3.11c2.79-0.61,8.05,1.45,9.03,2.88S79.42,62.06,79.42,62.06z"/>
		<path class="st1" d="M77,61.66c-2.32,0.13-4.26,3.2-7.4,2.69c-3.14-0.51-6.44-3.93-7.57-4.84c-1.12-0.9-1.84,0.07,0.35-1.04
			c2.19-1.11,1.95-1.92,4.1-2.39c2.14-0.47,6.19,1.12,6.94,2.22C74.18,59.41,77,61.66,77,61.66z"/>
	</g>
	<g>
		<path class="st0" d="M69.54,68.58c-2.53-1.65-6.93,0.1-9.84-2.85s-3.74-9.08-4.23-10.89s-1.98-1.34,1.17-0.82
			c3.16,0.52,3.53-0.51,6.14,0.64c2.61,1.15,5.64,5.92,5.59,7.66S69.54,68.58,69.54,68.58z"/>
		<path class="st1" d="M67.82,66.83c-1.95-1.27-5.33,0.07-7.56-2.19c-2.23-2.26-2.88-6.98-3.25-8.37c-0.37-1.39-1.52-1.03,0.9-0.63
			s2.71-0.39,4.72,0.49c2.01,0.89,4.33,4.55,4.29,5.88S67.82,66.83,67.82,66.83z"/>
	</g>
	<g>
		<path class="st0" d="M57.12,82.7c-1.07-2.83-5.65-4.02-6.26-8.11s2.34-9.54,3.01-11.29c0.68-1.75-0.81-2.25,1.43,0.03
			c2.24,2.28,3.15,1.67,4.58,4.14c1.43,2.47,1.06,8.11-0.01,9.48C58.8,78.32,57.12,82.7,57.12,82.7z"/>
		<path class="st1" d="M56.76,80.28c-0.82-2.17-4.34-3.09-4.81-6.23s1.8-7.33,2.32-8.68c0.52-1.35-0.62-1.73,1.1,0.02
			c1.72,1.75,2.42,1.28,3.52,3.18c1.1,1.9,0.81,6.23-0.01,7.28C58.06,76.91,56.76,80.28,56.76,80.28z"/>
	</g>
	<g>
		<path class="st0" d="M58.81,72.23c-1.36-2.7-6.04-3.41-7.06-7.42s1.33-9.73,1.83-11.54c0.49-1.81-1.04-2.16,1.43-0.12
			s3.31,1.33,4.98,3.64c1.68,2.31,1.89,7.96,0.97,9.43C60.03,67.7,58.81,72.23,58.81,72.23z"/>
		<path class="st1" d="M58.2,69.86c-1.05-2.08-4.64-2.62-5.43-5.7c-0.79-3.08,1.03-7.48,1.4-8.87c0.38-1.39-0.8-1.66,1.1-0.09
			c1.9,1.57,2.54,1.02,3.83,2.8s1.45,6.12,0.75,7.25C59.14,66.37,58.2,69.86,58.2,69.86z"/>
	</g>
	<g>
		<path class="st0" d="M41.45,79.52c0.8-2.92-2.19-6.58-0.26-10.24c1.93-3.66,7.52-6.32,9.1-7.33s0.68-2.3,1.14,0.87
			c0.46,3.16,1.56,3.2,1.25,6.04c-0.31,2.84-3.94,7.17-5.6,7.64C45.4,76.98,41.45,79.52,41.45,79.52z"/>
		<path class="st1" d="M42.6,77.35c0.62-2.24-1.68-5.06-0.2-7.87c1.48-2.81,5.78-4.86,6.99-5.64c1.21-0.78,0.52-1.77,0.88,0.67
			s1.2,2.46,0.96,4.65c-0.24,2.18-3.03,5.51-4.31,5.87C45.63,75.4,42.6,77.35,42.6,77.35z"/>
	</g>
	<g>
		<path class="st0" d="M44.83,72.75c0.8-2.92-2.19-6.58-0.26-10.24c1.93-3.66,7.52-6.32,9.1-7.33s0.68-2.3,1.14,0.87
			c0.46,3.16,1.56,3.2,1.25,6.04c-0.31,2.84-3.94,7.17-5.6,7.64C48.78,70.21,44.83,72.75,44.83,72.75z"/>
		<path class="st1" d="M45.97,70.59c0.62-2.24-1.68-5.06-0.2-7.87c1.48-2.81,5.78-4.86,6.99-5.64c1.21-0.78,0.52-1.77,0.88,0.67
			c0.36,2.43,1.2,2.46,0.96,4.65c-0.24,2.18-3.03,5.51-4.31,5.87C49.01,68.63,45.97,70.59,45.97,70.59z"/>
	</g>
	<g>
		<path class="st0" d="M31.14,68.61c2.18-2.1,1.46-6.78,4.98-8.95c3.52-2.17,9.69-1.61,11.56-1.68c1.88-0.07,1.75-1.63,0.54,1.33
			c-1.21,2.96-0.29,3.55-2,5.84c-1.71,2.29-7.04,4.17-8.71,3.73C35.83,68.43,31.14,68.61,31.14,68.61z"/>
		<path class="st1" d="M33.23,67.32c1.67-1.61,1.12-5.21,3.83-6.88c2.71-1.67,7.44-1.24,8.89-1.29c1.44-0.05,1.35-1.26,0.41,1.02
			s-0.22,2.73-1.54,4.49c-1.31,1.76-5.41,3.2-6.7,2.86S33.23,67.32,33.23,67.32z"/>
	</g>
	<g>
		<path class="st0" d="M28.97,51.81c3.02-0.12,5.61-4.08,9.68-3.36s8.3,5.25,9.74,6.45c1.44,1.2,2.39-0.05-0.48,1.35
			s-2.58,2.46-5.38,3.02s-8.03-1.58-8.98-3.02C32.59,54.8,28.97,51.81,28.97,51.81z"/>
		<path class="st1" d="M31.38,52.25c2.32-0.09,4.31-3.14,7.44-2.58c3.13,0.56,6.38,4.03,7.49,4.95s1.84-0.04-0.37,1.04
			c-2.21,1.08-1.98,1.89-4.14,2.32c-2.15,0.44-6.17-1.21-6.9-2.32C34.16,54.55,31.38,52.25,31.38,52.25z"/>
	</g>
	<g>
		<path class="st0" d="M37.32,53.76c3.02-0.12,5.61-4.08,9.68-3.36s8.3,5.25,9.74,6.45c1.44,1.2,2.39-0.05-0.48,1.35
			c-2.88,1.4-2.58,2.46-5.38,3.02c-2.8,0.57-8.03-1.58-8.98-3.02C40.95,56.75,37.32,53.76,37.32,53.76z"/>
		<path class="st1" d="M39.74,54.19c2.32-0.09,4.31-3.14,7.44-2.58s6.38,4.03,7.49,4.95c1.11,0.92,1.84-0.04-0.37,1.04
			s-1.98,1.89-4.14,2.32c-2.15,0.44-6.17-1.21-6.9-2.32C42.52,56.49,39.74,54.19,39.74,54.19z"/>
	</g>
	<g>
		<path class="st0" d="M37.96,36.35c2.51,1.69,6.93,0.01,9.79,3s3.6,9.13,4.06,10.95c0.46,1.82,1.96,1.37-1.18,0.8
			c-3.15-0.57-3.53,0.46-6.13-0.74c-2.59-1.19-5.55-6.01-5.47-7.74C39.11,40.9,37.96,36.35,37.96,36.35z"/>
		<path class="st1" d="M39.65,38.13c1.93,1.3,5.33,0.01,7.53,2.31s2.77,7.02,3.12,8.42c0.35,1.4,1.51,1.05-0.91,0.62
			s-2.72,0.35-4.71-0.57s-4.26-4.62-4.2-5.95S39.65,38.13,39.65,38.13z"/>
	</g>
	<g>
		<path class="st0" d="M51.59,31.52c1.03,2.84,5.59,4.1,6.13,8.2c0.54,4.1-2.48,9.5-3.19,11.24c-0.7,1.74,0.78,2.27-1.43-0.05
			c-2.21-2.32-3.12-1.72-4.51-4.21s-0.93-8.13,0.16-9.48C49.84,35.87,51.59,31.52,51.59,31.52z"/>
		<path class="st1" d="M51.91,33.95c0.79,2.19,4.3,3.15,4.71,6.31c0.42,3.15-1.91,7.3-2.45,8.64c-0.54,1.34,0.6,1.74-1.1-0.04
			c-1.7-1.78-2.4-1.32-3.47-3.24s-0.71-6.25,0.12-7.28S51.91,33.95,51.91,33.95z"/>
	</g>
</g>
</svg>
