<?xml version="1.0" encoding="utf-8"?>
<!-- Generator: Adobe Illustrator 23.1.1, SVG Export Plug-In . SVG Version: 6.00 Build 0)  -->
<svg version="1.1" id="Layer_1" xmlns="http://www.w3.org/2000/svg" xmlns:xlink="http://www.w3.org/1999/xlink" x="0px" y="0px"
	 viewBox="0 0 108 108" style="enable-background:new 0 0 108 108;" xml:space="preserve">
<style type="text/css">
	.st0{fill:#529643;}
	.st1{fill:#568A41;}
	.st2{fill:#498B40;}
	.st3{fill:#4E9141;}
	.st4{fill:#578E4D;}
	.st5{fill:#699B40;}
	.st6{fill:#329345;}
	.st7{fill:#6E9C40;}
	.st8{fill:#578A41;}
	.st9{fill:#759D3F;}
	.st10{fill:#46873F;}
	.st11{fill:#4E8E40;}
	.st12{fill:#E4C0D3;}
	.st13{fill:#E0AAC6;}
	.st14{fill:#E2B1B9;}
	.st15{fill:#F4D1DC;}
	.st16{fill:#F5DAE0;}
</style>
<g>
	<path class="st0" d="M45.95,61.43c-0.4-1.21-0.63-2.42-0.83-3.64c-0.21-1.22-0.34-2.44-0.41-3.66c-0.08-1.22-0.08-2.44-0.06-3.65
		c0-1.22,0.04-2.43,0.09-3.64c0.1-2.42,0.3-4.83,0.62-7.23c0.35-2.39,0.82-4.75,1.6-7.07l0.6,0.08c0.59,2.49,0.87,4.93,1.03,7.35
		c0.13,2.41,0.14,4.81,0.05,7.2c-0.05,1.19-0.1,2.38-0.19,3.57c-0.08,1.19-0.17,2.38-0.35,3.56c-0.17,1.18-0.4,2.37-0.7,3.55
		c-0.29,1.19-0.62,2.38-1.11,3.58H45.95z"/>
	<path class="st0" d="M45.96,59.72c-0.9-2.28-1.62-4.61-2.29-6.95c-0.68-2.34-1.25-4.7-1.83-7.07c-0.57-2.36-1.12-4.74-1.64-7.12
		c-0.5-2.38-1-4.77-1.4-7.17l0.33-0.08c0.79,2.31,1.49,4.64,2.18,6.98c0.68,2.34,1.32,4.68,1.94,7.04c0.61,2.36,1.23,4.71,1.75,7.09
		c0.52,2.38,0.99,4.77,1.29,7.2L45.96,59.72z"/>
	<path class="st0" d="M45.97,59.75c-1.61-1.9-2.96-3.93-4.24-6c-1.29-2.07-2.43-4.22-3.56-6.37c-1.12-2.16-2.2-4.34-3.23-6.55
		c-1.01-2.22-2-4.45-2.84-6.76l0.3-0.16c1.47,1.97,2.79,4.02,4.1,6.08c1.29,2.07,2.52,4.17,3.71,6.29c1.18,2.13,2.35,4.26,3.38,6.47
		c1.03,2.21,1.99,4.46,2.7,6.84L45.97,59.75z"/>
	<path class="st1" d="M46.84,61.15c-1.47-2.53-3.13-4.87-5.03-7.01c-0.24-0.27-0.47-0.54-0.72-0.8c-0.25-0.25-0.5-0.51-0.75-0.77
		c-0.25-0.25-0.48-0.53-0.75-0.76l-0.79-0.73c-0.51-0.5-1.07-0.95-1.61-1.41c-0.54-0.48-1.12-0.88-1.69-1.32
		c-2.31-1.7-4.79-3.15-7.41-4.36c-2.61-1.22-5.35-2.19-8.16-2.98l0.07-0.33c2.92,0.39,5.79,1.15,8.56,2.22
		c2.76,1.08,5.41,2.49,7.84,4.22c0.6,0.44,1.22,0.86,1.78,1.35c0.57,0.48,1.17,0.93,1.7,1.46l0.81,0.77
		c0.28,0.25,0.51,0.54,0.77,0.81c0.26,0.27,0.51,0.55,0.76,0.83c0.24,0.28,0.47,0.58,0.7,0.87c1.85,2.34,3.37,4.97,4.24,7.8
		L46.84,61.15z"/>
	<path class="st0" d="M46.03,59.82c-2.24-1.03-4.35-2.24-6.46-3.47c-2.09-1.24-4.14-2.57-6.16-3.92c-1.01-0.67-2.01-1.37-3.01-2.06
		c-1.01-0.68-1.99-1.4-2.98-2.11c-1.97-1.43-3.93-2.89-5.81-4.44l0.19-0.28c2.18,1.11,4.3,2.32,6.4,3.55
		c1.05,0.62,2.09,1.24,3.12,1.89c1.04,0.64,2.07,1.28,3.09,1.94c2.05,1.31,4.08,2.66,6.05,4.08c1.97,1.43,3.92,2.89,5.76,4.53
		L46.03,59.82z"/>
	<path class="st2" d="M51.84,61.45c-2.24-1.03-4.35-2.24-6.45-3.47c-2.09-1.24-4.14-2.57-6.16-3.92c-1.01-0.67-2.01-1.36-3.01-2.06
		c-1.01-0.69-1.99-1.4-2.98-2.11c-1.97-1.43-3.93-2.89-5.81-4.45l0.19-0.28c2.18,1.11,4.3,2.32,6.4,3.55
		c1.04,0.62,2.09,1.24,3.12,1.89c1.04,0.64,2.07,1.28,3.09,1.94c2.05,1.31,4.08,2.66,6.05,4.08c1.97,1.43,3.92,2.89,5.76,4.53
		L51.84,61.45z"/>
	<path class="st3" d="M48,62.07c-2.15-1.68-4.62-2.93-7.16-3.84l-0.96-0.33c-0.16-0.05-0.32-0.11-0.48-0.16
		c-0.16-0.05-0.32-0.1-0.52-0.07c-0.38,0.03-0.83,0.25-1.16,0.19c-0.17-0.02-0.31-0.12-0.46-0.17L36.8,57.5
		c-0.6-0.26-1.21-0.53-1.82-0.75c-0.61-0.24-1.23-0.48-1.86-0.68c-0.63-0.22-1.25-0.44-1.89-0.61c-0.64-0.19-1.27-0.38-1.92-0.53
		c-0.65-0.16-1.29-0.35-1.95-0.47c-0.65-0.13-1.31-0.29-1.97-0.39c-2.64-0.49-5.34-0.76-8.09-0.92l-0.03-0.34
		c2.71-0.59,5.51-0.83,8.32-0.79c0.71-0.01,1.4,0.06,2.11,0.09c0.7,0.03,1.41,0.12,2.11,0.2c0.7,0.07,1.4,0.2,2.1,0.32
		c0.7,0.11,1.39,0.26,2.09,0.42c0.7,0.15,1.38,0.34,2.06,0.54c0.69,0.18,1.36,0.42,2.03,0.65l0.51,0.17
		c0.17,0.06,0.34,0.1,0.49,0.22c0.3,0.22,0.47,0.71,0.72,1.01c0.12,0.16,0.27,0.25,0.42,0.34c0.15,0.09,0.3,0.19,0.45,0.29
		l0.88,0.58c2.34,1.56,4.52,3.25,6.68,4.96L48,62.07z"/>
	<path class="st0" d="M46.11,59.84c-2.44,0.03-4.88-0.06-7.31-0.18c-1.22-0.05-2.43-0.15-3.64-0.22l-3.64-0.29
		c-2.42-0.22-4.85-0.45-7.26-0.74c-2.42-0.29-4.83-0.61-7.24-1.04l0.03-0.34c2.44-0.02,4.88,0.07,7.31,0.19
		c2.43,0.12,4.86,0.3,7.28,0.49l3.63,0.33c1.21,0.13,2.42,0.25,3.63,0.4c2.42,0.28,4.83,0.61,7.24,1.05L46.11,59.84z"/>
	<path class="st0" d="M46.15,59.84c-2.33,0.8-4.7,1.42-7.07,1.98c-2.37,0.56-4.76,1.03-7.16,1.44c-2.4,0.42-4.81,0.77-7.23,1.01
		c-2.43,0.23-4.87,0.4-7.35,0.32l-0.06-0.34c2.32-0.87,4.68-1.5,7.06-2.06c2.38-0.55,4.77-0.99,7.17-1.37
		c2.4-0.38,4.82-0.69,7.24-0.93c2.43-0.23,4.86-0.4,7.33-0.39L46.15,59.84z"/>
	<path class="st0" d="M46.19,59.83c-2.14,1.19-4.32,2.27-6.51,3.33c-2.19,1.06-4.41,2.06-6.64,3.04c-1.11,0.49-2.24,0.96-3.35,1.44
		c-1.13,0.46-2.25,0.93-3.38,1.37c-2.26,0.89-4.55,1.74-6.88,2.48l-0.13-0.31c2.13-1.21,4.31-2.3,6.5-3.35
		c1.1-0.53,2.2-1.03,3.31-1.54c1.11-0.49,2.22-1,3.34-1.48c2.24-0.96,4.48-1.9,6.75-2.79c2.27-0.89,4.55-1.75,6.87-2.51L46.19,59.83
		z"/>
	<path class="st4" d="M52.19,60.9c-2.82,0.68-5.58,1.45-8.25,2.42c-2.67,0.98-5.25,2.14-7.71,3.52c-2.46,1.38-4.79,2.98-6.98,4.77
		c-2.18,1.81-4.19,3.82-6.08,6.03l-0.28-0.19c1.3-2.63,3.12-5.02,5.23-7.09c2.11-2.09,4.52-3.87,7.11-5.31
		c2.59-1.44,5.36-2.57,8.22-3.32c2.85-0.76,5.79-1.18,8.71-1.17L52.19,60.9z"/>
	<path class="st5" d="M46.26,59.78c-1.29,2.08-2.67,4.09-4.12,6.07c-0.72,1-1.47,1.97-2.21,2.95c-0.76,0.97-1.53,1.93-2.3,2.9
		c-1.57,1.91-3.17,3.81-4.85,5.65c-1.67,1.85-3.4,3.67-5.23,5.42c-0.1-0.07-0.19-0.15-0.28-0.22c1.52-1.98,3.1-3.92,4.66-5.85
		c1.56-1.93,3.13-3.85,4.69-5.77c0.79-0.95,1.56-1.91,2.33-2.87c0.79-0.95,1.55-1.91,2.34-2.85c1.55-1.9,3.11-3.79,4.7-5.63
		C46.08,59.64,46.17,59.71,46.26,59.78"/>
	<path class="st0" d="M48.59,53.22c-1.29,2.08-2.67,4.09-4.12,6.07c-0.72,1-1.47,1.97-2.21,2.95c-0.76,0.97-1.53,1.94-2.3,2.9
		c-1.57,1.91-3.17,3.81-4.85,5.65c-1.67,1.85-3.4,3.67-5.23,5.42c-0.09-0.07-0.19-0.15-0.28-0.22c1.52-1.98,3.1-3.92,4.66-5.85
		c1.56-1.93,3.13-3.85,4.69-5.77c0.79-0.95,1.56-1.91,2.34-2.87c0.79-0.95,1.55-1.91,2.34-2.85c1.56-1.9,3.11-3.78,4.71-5.63
		C48.41,53.09,48.5,53.15,48.59,53.22"/>
	<path class="st0" d="M46.28,59.74c-0.7,2.35-1.53,4.64-2.42,6.91c-0.89,2.26-1.83,4.51-2.83,6.73c-0.5,1.11-1,2.22-1.53,3.32
		c-0.52,1.1-1.04,2.2-1.59,3.29c-1.08,2.18-2.2,4.35-3.45,6.46l-0.31-0.14c0.73-2.34,1.58-4.62,2.46-6.89
		c0.44-1.14,0.9-2.26,1.37-3.39c0.46-1.13,0.94-2.25,1.43-3.36c0.97-2.23,2-4.44,3.07-6.62c1.08-2.18,2.21-4.34,3.49-6.44
		L46.28,59.74z"/>
	<path class="st0" d="M54.76,41.49c-0.7,2.35-1.53,4.64-2.42,6.91c-0.89,2.26-1.83,4.51-2.83,6.73c-0.5,1.11-1,2.22-1.53,3.32
		c-0.52,1.1-1.04,2.2-1.59,3.29c-1.08,2.18-2.2,4.35-3.45,6.46l-0.31-0.14c0.73-2.34,1.58-4.62,2.46-6.89
		c0.44-1.14,0.9-2.26,1.37-3.39c0.46-1.13,0.94-2.25,1.43-3.36c0.97-2.23,2-4.44,3.07-6.62c1.08-2.18,2.21-4.34,3.49-6.44
		L54.76,41.49z"/>
	<path class="st6" d="M46.76,58.47c0.15,1.25,0.17,2.48,0.15,3.71c-0.03,1.22-0.12,2.44-0.27,3.65c-0.14,1.21-0.36,2.41-0.57,3.62
		c-0.22,1.2-0.45,2.4-0.71,3.6c-0.51,2.4-1.12,4.78-1.81,7.15c-0.7,2.37-1.5,4.73-2.49,7.05c-0.15-0.02-0.3-0.05-0.45-0.07
		c0.24-2.44,0.62-4.86,1.01-7.27c0.41-2.41,0.83-4.82,1.28-7.22c0.22-1.2,0.45-2.4,0.68-3.6c0.23-1.2,0.44-2.4,0.71-3.59
		c0.27-1.19,0.57-2.38,0.91-3.56c0.35-1.18,0.73-2.35,1.22-3.51C46.54,58.44,46.65,58.46,46.76,58.47"/>
	<path class="st1" d="M46.29,59.66c0.39,1.19,0.67,2.39,0.9,3.59c0.23,1.2,0.4,2.41,0.54,3.62c0.14,1.21,0.22,2.42,0.31,3.64
		c0.09,1.21,0.17,2.43,0.24,3.64c0.15,2.43,0.24,4.86,0.31,7.3c0.06,2.44,0.08,4.87,0,7.32l-0.34,0.03
		c-0.47-2.4-0.83-4.82-1.15-7.23c-0.32-2.42-0.61-4.83-0.84-7.26c-0.12-1.21-0.23-2.42-0.34-3.63c-0.1-1.21-0.21-2.42-0.26-3.64
		c-0.05-1.22-0.07-2.44-0.03-3.66c0.04-1.22,0.12-2.45,0.32-3.69L46.29,59.66z"/>
	<path class="st0" d="M46.28,59.63c1,2.24,1.87,4.52,2.71,6.82c0.84,2.3,1.63,4.62,2.48,6.92c0.41,1.16,0.83,2.31,1.26,3.46
		c0.42,1.16,0.84,2.31,1.27,3.47c0.84,2.31,1.7,4.63,2.52,6.96c-0.12,0.04-0.25,0.08-0.38,0.12c-1.17-2.22-2.22-4.47-3.22-6.74
		c-0.49-1.14-0.97-2.28-1.44-3.42c-0.46-1.15-0.91-2.29-1.35-3.44c-0.86-2.3-1.69-4.61-2.42-6.94c-0.72-2.34-1.34-4.7-1.76-7.11
		C46.06,59.7,46.17,59.66,46.28,59.63"/>
	<path class="st7" d="M46.26,59.59c0.52,0.39,1.01,0.81,1.47,1.25c0.46,0.43,0.9,0.88,1.33,1.33c0.85,0.91,1.64,1.86,2.4,2.83
		c1.51,1.95,2.81,4.02,4.15,6.09c1.32,2.08,2.62,4.18,3.85,6.33c1.22,2.16,2.43,4.34,3.44,6.66c-0.1,0.07-0.2,0.13-0.31,0.19
		c-2.02-1.68-3.77-3.52-5.45-5.4c-1.66-1.89-3.2-3.85-4.65-5.86c-1.44-2.02-2.84-4.05-3.97-6.22c-0.57-1.09-1.08-2.21-1.52-3.37
		c-0.22-0.58-0.42-1.17-0.59-1.78c-0.18-0.61-0.33-1.23-0.43-1.87C46.07,59.71,46.17,59.65,46.26,59.59"/>
	<path class="st0" d="M39.42,60.68c0.74,0.03,1.47,0.08,2.21,0.14c0.74,0.07,1.46,0.2,2.2,0.33c0.74,0.11,1.45,0.3,2.17,0.47
		c0.36,0.09,0.72,0.17,1.08,0.28l1.06,0.34c2.83,0.93,5.53,2.27,8.02,3.91c2.49,1.64,4.78,3.6,6.75,5.83
		c1.96,2.24,3.62,4.75,4.75,7.47l-0.3,0.16c-1.62-2.42-3.46-4.63-5.53-6.6c-2.05-1.98-4.31-3.73-6.72-5.24
		c-2.41-1.52-4.96-2.77-7.59-3.88l-0.99-0.42c-0.33-0.14-0.67-0.25-1-0.38c-0.67-0.24-1.34-0.53-2.02-0.74
		c-0.69-0.21-1.36-0.49-2.06-0.69c-0.69-0.21-1.39-0.43-2.09-0.67L39.42,60.68z"/>
	<path class="st8" d="M46.2,59.52c1.16,0.41,2.28,0.9,3.4,1.38c1.11,0.5,2.23,1,3.32,1.54c2.19,1.06,4.34,2.2,6.47,3.39
		c2.12,1.19,4.24,2.4,6.31,3.68c2.07,1.28,4.13,2.59,6.12,4.03l-0.16,0.3c-2.28-0.9-4.5-1.92-6.69-2.98
		c-2.2-1.05-4.36-2.18-6.5-3.33c-2.14-1.15-4.26-2.35-6.34-3.63c-1.04-0.63-2.06-1.3-3.08-1.97c-1.01-0.68-2.02-1.37-3-2.12
		L46.2,59.52z"/>
	<path class="st0" d="M42.38,58.56c1.23-0.09,2.45-0.09,3.67-0.1c1.22,0.01,2.44,0.02,3.66,0.08c2.43,0.1,4.86,0.28,7.28,0.51
		c2.42,0.23,4.84,0.5,7.25,0.84c2.41,0.34,4.82,0.72,7.22,1.24l-0.03,0.34c-2.45,0.09-4.89,0.04-7.32-0.05
		c-2.43-0.08-4.86-0.25-7.29-0.44c-2.43-0.2-4.85-0.45-7.26-0.78c-1.21-0.16-2.41-0.36-3.61-0.56c-1.2-0.22-2.4-0.44-3.6-0.74
		L42.38,58.56z"/>
	<path class="st0" d="M46.16,59.51c2.39,0.5,4.76,1.07,7.13,1.66c2.37,0.59,4.74,1.19,7.11,1.81c2.37,0.62,4.75,1.23,7.12,1.87
		c2.38,0.64,4.76,1.27,7.13,1.97c-0.02,0.11-0.05,0.22-0.08,0.33c-2.45-0.37-4.88-0.84-7.29-1.35c-2.41-0.51-4.81-1.07-7.19-1.68
		c-2.38-0.6-4.74-1.25-7.09-1.96c-2.34-0.71-4.66-1.47-6.95-2.34C46.1,59.73,46.13,59.62,46.16,59.51"/>
	<path class="st0" d="M46.01,59.52c2.31-0.97,4.73-1.68,7.2-2.15c2.47-0.46,4.99-0.68,7.5-0.65l1.88,0.06l1.88,0.15l1.87,0.24
		l1.85,0.33c2.46,0.49,4.87,1.21,7.18,2.18L75.26,60c-2.36-0.74-4.77-1.33-7.2-1.72l-1.83-0.25l-1.84-0.19l-1.84-0.11l-1.84-0.04
		c-2.46,0-4.92,0.19-7.35,0.56c-2.43,0.37-4.85,0.9-7.23,1.59L46.01,59.52z"/>
	<path class="st9" d="M46.08,59.51c2.32-0.77,4.65-1.46,7-2.12c1.17-0.33,2.35-0.65,3.52-0.96c1.18-0.32,2.35-0.62,3.53-0.91
		c2.36-0.6,4.73-1.15,7.11-1.67c2.38-0.51,4.77-0.98,7.19-1.34l0.08,0.33c-2.31,0.81-4.64,1.5-6.98,2.16
		c-2.35,0.65-4.7,1.26-7.07,1.83c-1.18,0.28-2.36,0.57-3.55,0.84c-1.18,0.28-2.37,0.54-3.56,0.79c-2.38,0.51-4.77,0.99-7.18,1.38
		L46.08,59.51z"/>
	<path class="st0" d="M44.93,61.09c1.91-1.58,3.96-2.92,6.04-4.18c2.08-1.27,4.24-2.4,6.4-3.51c2.16-1.11,4.35-2.18,6.56-3.2
		c2.22-1,4.45-1.99,6.76-2.84l0.16,0.3c-1.99,1.44-4.05,2.75-6.12,4.03c-2.08,1.27-4.19,2.49-6.32,3.67
		c-2.13,1.17-4.27,2.33-6.48,3.35c-2.21,1.03-4.46,1.98-6.84,2.69L44.93,61.09z"/>
	<path class="st0" d="M39.23,61.09c1.91-1.58,3.96-2.92,6.04-4.18c2.08-1.27,4.24-2.4,6.4-3.51c2.16-1.11,4.35-2.18,6.56-3.2
		c2.22-1,4.45-1.99,6.76-2.84l0.16,0.3c-1.99,1.44-4.05,2.75-6.12,4.03c-2.08,1.27-4.19,2.49-6.32,3.67
		c-2.13,1.17-4.27,2.33-6.48,3.35c-2.21,1.03-4.46,1.98-6.84,2.69L39.23,61.09z"/>
	<path class="st10" d="M44.84,60.68c1.11-2.74,2.81-5.23,4.81-7.44c2-2.2,4.34-4.1,6.88-5.66c0.62-0.41,1.27-0.77,1.92-1.12
		c0.65-0.37,1.32-0.68,1.99-0.99c0.34-0.15,0.67-0.32,1.01-0.47c0.34-0.14,0.69-0.28,1.03-0.41l1.03-0.4l1.06-0.35
		c2.81-0.91,5.72-1.51,8.65-1.72l0.05,0.34c-2.83,0.71-5.59,1.55-8.24,2.64l-1,0.4l-0.97,0.46c-0.32,0.15-0.65,0.3-0.98,0.45
		c-0.32,0.15-0.64,0.33-0.95,0.49c-0.63,0.33-1.27,0.65-1.88,1.03c-0.61,0.36-1.24,0.7-1.83,1.11c-2.39,1.55-4.63,3.32-6.68,5.29
		c-2.07,1.97-3.91,4.16-5.61,6.53L44.84,60.68z"/>
	<path class="st0" d="M45.98,59.58c1.08-2.2,2.32-4.3,3.58-6.38c1.27-2.08,2.59-4.12,3.97-6.13l1.02-1.51l1.04-1.5
		c0.69-1,1.4-1.99,2.11-2.98c1.43-1.97,2.88-3.93,4.42-5.83l0.28,0.19c-1.15,2.16-2.39,4.26-3.65,6.34
		c-0.64,1.04-1.27,2.08-1.92,3.1l-0.97,1.54l-1,1.53c-1.32,2.05-2.68,4.06-4.1,6.04c-1.43,1.97-2.88,3.93-4.49,5.78L45.98,59.58z"/>
	<path class="st11" d="M45.96,59.62c-0.05-1.31,0.14-2.53,0.39-3.73c0.25-1.2,0.62-2.36,1.04-3.5c0.81-2.3,1.65-4.58,2.52-6.85
		c0.87-2.27,1.77-4.54,2.73-6.78c0.94-2.25,1.93-4.48,3.01-6.68l0.32,0.11c-0.53,2.39-1.16,4.75-1.83,7.09
		c-0.66,2.35-1.37,4.68-2.11,6.99c-0.74,2.32-1.51,4.63-2.32,6.92c-0.39,1.15-0.83,2.29-1.38,3.38c-0.55,1.09-1.18,2.17-2.03,3.15
		L45.96,59.62z"/>
	<path class="st0" d="M52.19,59.59c0,3.26-2.64,5.91-5.91,5.91c-3.26,0-5.91-2.64-5.91-5.91c0-3.26,2.65-5.91,5.91-5.91
		C49.55,53.68,52.19,56.33,52.19,59.59"/>
	<path class="st0" d="M47.37,48.35c-0.4-1.21-0.63-2.42-0.83-3.64c-0.21-1.22-0.34-2.44-0.41-3.66c-0.08-1.22-0.08-2.44-0.06-3.65
		c0-1.22,0.04-2.43,0.09-3.64c0.1-2.42,0.3-4.83,0.62-7.23c0.35-2.39,0.82-4.75,1.6-7.07l0.6,0.08c0.59,2.49,0.88,4.93,1.03,7.35
		c0.13,2.41,0.14,4.81,0.05,7.2c-0.05,1.19-0.1,2.38-0.19,3.57c-0.08,1.19-0.17,2.38-0.35,3.56c-0.17,1.18-0.4,2.37-0.7,3.55
		c-0.29,1.19-0.62,2.38-1.11,3.58H47.37z"/>
	<path class="st0" d="M47.38,46.64c-0.9-2.28-1.62-4.61-2.29-6.95c-0.68-2.34-1.25-4.7-1.83-7.07c-0.57-2.36-1.12-4.74-1.63-7.12
		c-0.5-2.38-1-4.77-1.4-7.17l0.33-0.08c0.79,2.31,1.49,4.64,2.18,6.98c0.67,2.34,1.32,4.68,1.94,7.04c0.61,2.36,1.23,4.71,1.75,7.09
		c0.52,2.38,0.99,4.77,1.29,7.2L47.38,46.64z"/>
	<path class="st0" d="M47.39,46.68c-1.61-1.9-2.96-3.93-4.24-6c-1.29-2.07-2.43-4.22-3.56-6.37c-1.12-2.16-2.21-4.34-3.23-6.55
		c-1.01-2.22-2-4.45-2.84-6.76l0.3-0.16c1.47,1.97,2.79,4.02,4.1,6.08c1.29,2.07,2.52,4.17,3.71,6.29c1.18,2.13,2.35,4.26,3.38,6.47
		c1.03,2.21,1.99,4.46,2.7,6.84L47.39,46.68z"/>
	<path class="st1" d="M48.26,48.07c-1.47-2.53-3.13-4.87-5.04-7.01c-0.24-0.27-0.47-0.54-0.72-0.8c-0.25-0.25-0.5-0.51-0.75-0.77
		c-0.25-0.25-0.49-0.53-0.75-0.76l-0.79-0.73c-0.51-0.5-1.07-0.95-1.61-1.41c-0.54-0.47-1.12-0.88-1.69-1.32
		c-2.31-1.7-4.8-3.15-7.41-4.36c-2.61-1.22-5.35-2.19-8.16-2.98l0.07-0.33c2.92,0.39,5.79,1.15,8.56,2.22
		c2.76,1.08,5.41,2.49,7.84,4.22c0.6,0.44,1.22,0.86,1.78,1.35c0.57,0.48,1.17,0.93,1.7,1.46l0.81,0.77
		c0.28,0.25,0.51,0.54,0.77,0.81c0.26,0.27,0.51,0.55,0.76,0.83c0.25,0.28,0.47,0.58,0.7,0.87c1.85,2.34,3.37,4.97,4.24,7.8
		L48.26,48.07z"/>
	<path class="st0" d="M47.45,46.74c-2.24-1.03-4.35-2.24-6.45-3.47c-2.09-1.24-4.14-2.57-6.16-3.92c-1.01-0.67-2.01-1.37-3.01-2.06
		c-1.01-0.69-1.99-1.4-2.98-2.11c-1.97-1.43-3.93-2.89-5.81-4.45l0.19-0.28c2.18,1.11,4.3,2.32,6.4,3.55
		c1.04,0.62,2.09,1.24,3.12,1.89c1.04,0.64,2.07,1.28,3.09,1.94c2.05,1.31,4.08,2.66,6.05,4.08c1.97,1.43,3.92,2.89,5.76,4.53
		L47.45,46.74z"/>
	<path class="st2" d="M53.26,48.38c-2.24-1.03-4.35-2.24-6.46-3.47c-2.09-1.24-4.14-2.57-6.16-3.92c-1.01-0.67-2.01-1.36-3.01-2.06
		c-1.01-0.69-1.99-1.4-2.98-2.11c-1.97-1.43-3.93-2.89-5.81-4.45l0.19-0.28c2.18,1.11,4.3,2.32,6.4,3.55
		c1.05,0.62,2.09,1.24,3.12,1.89c1.04,0.64,2.07,1.28,3.09,1.94c2.05,1.31,4.08,2.66,6.05,4.08c1.97,1.43,3.92,2.89,5.76,4.53
		L53.26,48.38z"/>
	<path class="st3" d="M49.42,48.99c-2.15-1.68-4.62-2.93-7.16-3.84l-0.96-0.33c-0.16-0.05-0.32-0.11-0.48-0.16
		c-0.16-0.05-0.32-0.09-0.52-0.07c-0.38,0.03-0.83,0.25-1.16,0.19c-0.17-0.02-0.31-0.11-0.46-0.17l-0.45-0.19
		c-0.6-0.26-1.21-0.53-1.83-0.75c-0.61-0.24-1.23-0.48-1.86-0.68c-0.62-0.22-1.25-0.44-1.89-0.61c-0.64-0.19-1.27-0.38-1.92-0.53
		c-0.65-0.16-1.29-0.35-1.95-0.47c-0.65-0.13-1.31-0.29-1.97-0.39c-2.64-0.49-5.34-0.76-8.09-0.92l-0.03-0.34
		c2.71-0.59,5.51-0.83,8.32-0.79c0.7-0.01,1.4,0.06,2.11,0.09c0.7,0.03,1.4,0.12,2.11,0.2c0.7,0.07,1.4,0.2,2.1,0.32
		c0.7,0.11,1.39,0.27,2.08,0.42c0.7,0.15,1.38,0.34,2.06,0.54c0.69,0.18,1.36,0.42,2.04,0.65L40,41.32c0.17,0.06,0.34,0.1,0.49,0.22
		c0.3,0.22,0.47,0.71,0.72,1.01c0.12,0.16,0.27,0.25,0.42,0.34c0.15,0.09,0.3,0.19,0.45,0.29l0.88,0.58
		c2.34,1.56,4.52,3.25,6.67,4.96L49.42,48.99z"/>
	<path class="st0" d="M47.53,46.77c-2.44,0.03-4.88-0.06-7.31-0.18c-1.22-0.05-2.43-0.15-3.64-0.22l-3.64-0.29
		c-2.42-0.22-4.85-0.45-7.26-0.74c-2.42-0.29-4.83-0.61-7.24-1.04l0.03-0.34c2.44-0.02,4.88,0.07,7.31,0.19
		c2.43,0.12,4.86,0.3,7.28,0.49l3.63,0.33c1.21,0.13,2.42,0.25,3.63,0.4c2.42,0.28,4.83,0.61,7.24,1.05L47.53,46.77z"/>
	<path class="st0" d="M47.57,46.77c-2.33,0.8-4.7,1.42-7.07,1.98c-2.37,0.56-4.76,1.03-7.16,1.44c-2.4,0.42-4.81,0.77-7.23,1.01
		c-2.43,0.23-4.87,0.4-7.35,0.32l-0.06-0.34c2.32-0.87,4.69-1.5,7.06-2.06c2.38-0.55,4.77-0.99,7.17-1.37
		c2.4-0.38,4.82-0.69,7.24-0.93c2.43-0.23,4.87-0.4,7.33-0.39L47.57,46.77z"/>
	<path class="st0" d="M47.61,46.75c-2.14,1.19-4.32,2.27-6.51,3.33c-2.19,1.06-4.41,2.06-6.64,3.04c-1.11,0.49-2.24,0.96-3.35,1.44
		c-1.13,0.46-2.25,0.93-3.38,1.37c-2.26,0.89-4.55,1.74-6.88,2.48l-0.14-0.31c2.13-1.21,4.31-2.3,6.5-3.35
		c1.1-0.53,2.2-1.03,3.31-1.54c1.11-0.49,2.22-1,3.34-1.47c2.24-0.96,4.48-1.9,6.75-2.79c2.27-0.89,4.55-1.75,6.87-2.51L47.61,46.75
		z"/>
	<path class="st4" d="M53.62,47.82c-2.83,0.68-5.58,1.45-8.25,2.42c-2.67,0.98-5.25,2.14-7.71,3.52c-2.46,1.38-4.79,2.98-6.98,4.77
		c-2.18,1.81-4.19,3.82-6.08,6.03l-0.28-0.19c1.3-2.63,3.12-5.02,5.23-7.09c2.11-2.09,4.52-3.87,7.11-5.31
		c2.59-1.44,5.36-2.57,8.22-3.32c2.85-0.76,5.79-1.18,8.71-1.17L53.62,47.82z"/>
	<path class="st5" d="M47.68,46.7c-1.29,2.08-2.67,4.09-4.12,6.07c-0.72,1-1.47,1.97-2.21,2.95c-0.76,0.97-1.53,1.93-2.3,2.9
		c-1.57,1.91-3.17,3.8-4.85,5.65c-1.67,1.85-3.4,3.67-5.23,5.42c-0.09-0.07-0.19-0.15-0.28-0.22c1.52-1.98,3.1-3.92,4.66-5.85
		c1.56-1.93,3.13-3.85,4.69-5.77c0.79-0.95,1.56-1.91,2.34-2.87c0.79-0.95,1.55-1.91,2.34-2.85c1.56-1.9,3.11-3.79,4.71-5.63
		C47.5,46.57,47.59,46.64,47.68,46.7"/>
	<path class="st0" d="M50.01,40.14c-1.29,2.08-2.67,4.09-4.12,6.07c-0.72,1-1.47,1.97-2.21,2.95c-0.76,0.97-1.53,1.94-2.3,2.9
		c-1.57,1.91-3.17,3.81-4.85,5.65c-1.67,1.85-3.4,3.67-5.23,5.42c-0.1-0.07-0.19-0.15-0.28-0.22c1.53-1.98,3.1-3.92,4.66-5.85
		c1.56-1.93,3.13-3.85,4.69-5.77c0.79-0.95,1.56-1.91,2.34-2.87c0.79-0.95,1.55-1.91,2.34-2.85c1.56-1.9,3.11-3.78,4.7-5.63
		C49.83,40.01,49.92,40.08,50.01,40.14"/>
	<path class="st0" d="M47.7,46.67c-0.69,2.35-1.53,4.64-2.42,6.91c-0.89,2.26-1.83,4.51-2.83,6.73c-0.5,1.11-1,2.22-1.53,3.32
		c-0.52,1.1-1.04,2.2-1.59,3.29c-1.08,2.18-2.2,4.35-3.45,6.46l-0.31-0.14c0.73-2.34,1.58-4.62,2.46-6.89
		c0.44-1.14,0.9-2.26,1.37-3.39c0.46-1.13,0.94-2.25,1.43-3.36c0.97-2.23,2-4.44,3.07-6.62c1.08-2.18,2.21-4.34,3.49-6.44
		L47.7,46.67z"/>
	<path class="st0" d="M56.18,28.42c-0.69,2.35-1.53,4.64-2.42,6.91c-0.89,2.26-1.83,4.51-2.83,6.73c-0.5,1.11-1,2.22-1.53,3.32
		c-0.52,1.1-1.04,2.2-1.59,3.29c-1.08,2.18-2.2,4.35-3.45,6.46l-0.31-0.14c0.73-2.34,1.58-4.62,2.46-6.89
		c0.44-1.14,0.9-2.26,1.37-3.39c0.46-1.13,0.94-2.24,1.43-3.36c0.97-2.23,2-4.44,3.07-6.62c1.08-2.18,2.21-4.34,3.49-6.44
		L56.18,28.42z"/>
	<path class="st6" d="M48.18,45.4c0.15,1.25,0.17,2.48,0.15,3.71c-0.03,1.22-0.12,2.44-0.27,3.65c-0.14,1.21-0.36,2.41-0.57,3.62
		c-0.22,1.2-0.45,2.4-0.71,3.6c-0.51,2.4-1.12,4.78-1.81,7.15c-0.7,2.37-1.5,4.73-2.49,7.05c-0.15-0.02-0.3-0.05-0.45-0.07
		c0.24-2.44,0.62-4.86,1.01-7.27c0.41-2.41,0.83-4.82,1.28-7.22c0.22-1.2,0.45-2.4,0.68-3.6c0.23-1.2,0.44-2.4,0.71-3.59
		c0.27-1.19,0.57-2.38,0.91-3.56c0.35-1.18,0.73-2.35,1.22-3.51C47.96,45.37,48.07,45.38,48.18,45.4"/>
	<path class="st1" d="M47.71,46.58c0.39,1.19,0.67,2.39,0.9,3.59c0.23,1.2,0.4,2.41,0.54,3.62c0.14,1.21,0.22,2.42,0.31,3.64
		c0.09,1.21,0.17,2.43,0.24,3.64c0.15,2.43,0.24,4.86,0.31,7.3c0.06,2.44,0.08,4.87,0,7.32l-0.34,0.03
		c-0.47-2.4-0.83-4.82-1.15-7.23c-0.32-2.42-0.61-4.83-0.84-7.26c-0.12-1.21-0.23-2.42-0.34-3.63c-0.1-1.21-0.21-2.42-0.26-3.64
		c-0.05-1.22-0.07-2.44-0.03-3.66c0.04-1.22,0.12-2.45,0.32-3.69L47.71,46.58z"/>
	<path class="st0" d="M47.7,46.55c1,2.24,1.87,4.52,2.71,6.82c0.84,2.3,1.63,4.62,2.48,6.92c0.41,1.16,0.83,2.31,1.26,3.46
		c0.41,1.16,0.84,2.31,1.27,3.47c0.84,2.31,1.7,4.63,2.52,6.96c-0.12,0.04-0.25,0.08-0.38,0.12c-1.17-2.22-2.22-4.47-3.22-6.74
		c-0.49-1.14-0.97-2.28-1.44-3.42C52.44,63,52,61.86,51.56,60.71c-0.86-2.3-1.69-4.61-2.42-6.94c-0.72-2.34-1.34-4.7-1.76-7.11
		C47.49,46.62,47.6,46.59,47.7,46.55"/>
	<path class="st7" d="M47.69,46.51c0.52,0.39,1.01,0.81,1.46,1.25c0.46,0.43,0.9,0.88,1.33,1.33c0.85,0.91,1.64,1.86,2.4,2.83
		c1.5,1.95,2.81,4.02,4.15,6.09c1.33,2.08,2.62,4.18,3.86,6.33c1.22,2.16,2.43,4.34,3.44,6.66c-0.1,0.07-0.21,0.13-0.31,0.19
		c-2.02-1.68-3.77-3.52-5.45-5.4c-1.66-1.89-3.21-3.85-4.65-5.86c-1.44-2.01-2.84-4.05-3.97-6.22c-0.57-1.09-1.08-2.21-1.52-3.37
		c-0.22-0.58-0.42-1.17-0.59-1.78c-0.18-0.61-0.33-1.22-0.43-1.87C47.49,46.63,47.59,46.57,47.69,46.51"/>
	<path class="st0" d="M40.84,47.6c0.74,0.03,1.47,0.08,2.21,0.14c0.74,0.07,1.46,0.2,2.2,0.33c0.74,0.11,1.45,0.3,2.17,0.47
		c0.36,0.09,0.72,0.17,1.08,0.28l1.06,0.34c2.83,0.93,5.53,2.27,8.02,3.91c2.49,1.64,4.78,3.6,6.75,5.83
		c1.96,2.24,3.62,4.75,4.75,7.47l-0.3,0.16c-1.62-2.42-3.46-4.63-5.53-6.6c-2.05-1.98-4.31-3.73-6.72-5.24
		c-2.41-1.52-4.96-2.77-7.59-3.88l-0.99-0.42c-0.33-0.14-0.67-0.25-1-0.38c-0.67-0.24-1.34-0.53-2.02-0.74
		c-0.69-0.21-1.36-0.49-2.06-0.69c-0.69-0.21-1.39-0.43-2.08-0.67L40.84,47.6z"/>
	<path class="st8" d="M47.63,46.45c1.16,0.41,2.28,0.9,3.4,1.38c1.11,0.5,2.23,1,3.32,1.54c2.19,1.06,4.34,2.2,6.47,3.39
		c2.12,1.19,4.23,2.4,6.31,3.68c2.07,1.28,4.13,2.59,6.11,4.03l-0.16,0.3c-2.28-0.9-4.49-1.92-6.69-2.98
		c-2.2-1.05-4.36-2.18-6.5-3.33c-2.14-1.15-4.26-2.35-6.34-3.63c-1.04-0.63-2.06-1.3-3.08-1.97c-1.01-0.68-2.02-1.37-3-2.12
		L47.63,46.45z"/>
	<path class="st0" d="M43.8,45.49c1.23-0.09,2.45-0.09,3.67-0.1c1.22,0.01,2.44,0.02,3.66,0.08c2.43,0.1,4.86,0.28,7.28,0.51
		c2.42,0.23,4.84,0.5,7.25,0.84c2.41,0.34,4.82,0.72,7.22,1.24l-0.03,0.34c-2.45,0.09-4.89,0.04-7.32-0.05
		c-2.43-0.08-4.86-0.25-7.29-0.44c-2.43-0.2-4.85-0.45-7.26-0.78c-1.21-0.16-2.41-0.36-3.61-0.56c-1.2-0.22-2.4-0.44-3.6-0.74
		L43.8,45.49z"/>
	<path class="st0" d="M47.59,46.44c2.39,0.5,4.76,1.07,7.13,1.66c2.37,0.59,4.74,1.19,7.11,1.81c2.37,0.62,4.75,1.23,7.12,1.87
		c2.38,0.64,4.76,1.27,7.13,1.97c-0.02,0.11-0.05,0.22-0.08,0.33c-2.45-0.37-4.88-0.84-7.29-1.35c-2.41-0.51-4.81-1.07-7.19-1.68
		c-2.38-0.6-4.74-1.25-7.09-1.96c-2.34-0.71-4.66-1.47-6.95-2.33C47.52,46.65,47.55,46.54,47.59,46.44"/>
	<path class="st0" d="M47.43,46.45c2.31-0.97,4.73-1.68,7.2-2.15c2.47-0.46,4.99-0.68,7.5-0.65l1.88,0.06l1.88,0.15l1.87,0.24
		l1.85,0.33c2.46,0.49,4.87,1.21,7.18,2.18l-0.12,0.32c-2.36-0.74-4.77-1.33-7.2-1.72l-1.83-0.25l-1.84-0.19l-1.84-0.11l-1.84-0.04
		c-2.46,0-4.92,0.19-7.35,0.56c-2.43,0.37-4.85,0.9-7.23,1.59L47.43,46.45z"/>
	<path class="st9" d="M47.5,46.43c2.32-0.77,4.65-1.46,7-2.12c1.17-0.33,2.35-0.65,3.52-0.96c1.18-0.32,2.36-0.62,3.53-0.91
		c2.36-0.6,4.73-1.15,7.11-1.67c2.38-0.51,4.77-0.98,7.19-1.34l0.08,0.33c-2.31,0.81-4.64,1.5-6.98,2.16
		c-2.35,0.65-4.7,1.26-7.07,1.83c-1.18,0.28-2.36,0.57-3.55,0.84c-1.18,0.28-2.37,0.54-3.56,0.79c-2.38,0.51-4.77,0.99-7.18,1.38
		L47.5,46.43z"/>
	<path class="st0" d="M46.35,48.02c1.92-1.58,3.96-2.92,6.04-4.18c2.08-1.27,4.24-2.4,6.4-3.51c2.16-1.11,4.35-2.18,6.56-3.2
		c2.22-1,4.45-1.99,6.76-2.84l0.16,0.3c-1.99,1.44-4.05,2.75-6.12,4.03c-2.08,1.27-4.19,2.49-6.32,3.67
		c-2.13,1.17-4.27,2.33-6.48,3.35c-2.21,1.03-4.46,1.98-6.84,2.69L46.35,48.02z"/>
	<path class="st0" d="M40.65,48.02c1.92-1.58,3.96-2.92,6.04-4.18c2.08-1.27,4.24-2.4,6.4-3.51c2.16-1.11,4.35-2.18,6.56-3.2
		c2.22-1,4.45-1.99,6.76-2.84l0.16,0.3c-1.99,1.44-4.05,2.75-6.12,4.03c-2.08,1.27-4.19,2.49-6.32,3.67
		c-2.13,1.17-4.27,2.33-6.48,3.35c-2.21,1.03-4.46,1.98-6.84,2.69L40.65,48.02z"/>
	<path class="st10" d="M46.27,47.61c1.11-2.74,2.81-5.23,4.81-7.44c2-2.2,4.34-4.1,6.87-5.66c0.62-0.41,1.27-0.77,1.93-1.12
		c0.65-0.37,1.32-0.68,1.99-0.99c0.34-0.15,0.67-0.32,1.01-0.47c0.34-0.14,0.69-0.28,1.03-0.41l1.04-0.4L66,30.76
		c2.81-0.91,5.72-1.51,8.65-1.72l0.05,0.34c-2.83,0.71-5.59,1.55-8.24,2.64l-1,0.4l-0.97,0.46c-0.32,0.15-0.65,0.3-0.97,0.45
		c-0.32,0.15-0.64,0.33-0.95,0.49c-0.63,0.33-1.27,0.65-1.88,1.03c-0.61,0.36-1.24,0.7-1.83,1.11c-2.39,1.55-4.63,3.32-6.68,5.29
		c-2.07,1.97-3.91,4.16-5.61,6.53L46.27,47.61z"/>
	<path class="st0" d="M47.4,46.5c1.08-2.2,2.32-4.3,3.58-6.38c1.27-2.08,2.59-4.12,3.97-6.13l1.02-1.51l1.04-1.5
		c0.69-1,1.4-1.99,2.11-2.98c1.43-1.97,2.88-3.93,4.42-5.83l0.28,0.19c-1.15,2.16-2.39,4.26-3.65,6.34
		c-0.64,1.04-1.27,2.08-1.92,3.1l-0.98,1.54l-1,1.53c-1.32,2.05-2.68,4.06-4.1,6.04c-1.43,1.97-2.88,3.93-4.49,5.78L47.4,46.5z"/>
	<path class="st11" d="M47.38,46.54c-0.05-1.31,0.14-2.53,0.39-3.73c0.25-1.2,0.62-2.36,1.04-3.5c0.81-2.3,1.65-4.58,2.52-6.85
		c0.87-2.27,1.77-4.54,2.73-6.78c0.94-2.25,1.93-4.48,3.01-6.68l0.32,0.11c-0.53,2.39-1.16,4.75-1.83,7.09
		c-0.66,2.35-1.37,4.68-2.11,6.99c-0.74,2.32-1.51,4.63-2.32,6.92c-0.39,1.15-0.83,2.29-1.38,3.38c-0.56,1.1-1.18,2.17-2.03,3.16
		L47.38,46.54z"/>
	<path class="st0" d="M53.62,46.51c0,3.26-2.65,5.91-5.91,5.91c-3.26,0-5.91-2.64-5.91-5.91c0-3.26,2.64-5.91,5.91-5.91
		C50.97,40.61,53.62,43.25,53.62,46.51"/>
	<path class="st0" d="M58.27,66.22c-0.4-1.21-0.63-2.42-0.83-3.64c-0.21-1.22-0.34-2.44-0.41-3.66c-0.08-1.22-0.08-2.44-0.06-3.65
		c0-1.22,0.04-2.43,0.09-3.64c0.1-2.42,0.3-4.83,0.62-7.23c0.35-2.39,0.82-4.75,1.6-7.07l0.6,0.08c0.59,2.49,0.87,4.93,1.03,7.35
		c0.13,2.41,0.14,4.81,0.05,7.2c-0.05,1.19-0.1,2.38-0.19,3.57c-0.08,1.19-0.17,2.38-0.35,3.56c-0.17,1.18-0.4,2.37-0.7,3.55
		c-0.29,1.19-0.62,2.38-1.11,3.58H58.27z"/>
	<path class="st0" d="M58.28,64.51c-0.9-2.28-1.62-4.61-2.29-6.95c-0.68-2.34-1.25-4.7-1.83-7.07c-0.57-2.36-1.12-4.74-1.64-7.12
		c-0.5-2.38-1-4.77-1.4-7.17l0.33-0.08c0.79,2.31,1.49,4.64,2.18,6.98c0.67,2.34,1.32,4.69,1.94,7.04c0.61,2.36,1.23,4.71,1.75,7.09
		c0.52,2.38,0.99,4.77,1.29,7.2L58.28,64.51z"/>
	<path class="st0" d="M58.29,64.55c-1.61-1.9-2.96-3.93-4.24-6c-1.29-2.07-2.43-4.22-3.56-6.37c-1.12-2.16-2.21-4.34-3.23-6.55
		c-1.01-2.22-2-4.45-2.84-6.76l0.3-0.16c1.47,1.97,2.79,4.02,4.1,6.08c1.29,2.07,2.52,4.17,3.71,6.29c1.18,2.13,2.35,4.26,3.38,6.47
		c1.03,2.21,1.99,4.46,2.7,6.84L58.29,64.55z"/>
	<path class="st1" d="M59.16,65.94c-1.47-2.53-3.13-4.87-5.04-7.01c-0.24-0.27-0.47-0.54-0.72-0.8c-0.25-0.25-0.5-0.51-0.75-0.77
		c-0.25-0.25-0.49-0.53-0.75-0.76l-0.79-0.73c-0.51-0.5-1.07-0.95-1.61-1.41c-0.54-0.48-1.12-0.88-1.69-1.32
		c-2.31-1.7-4.8-3.15-7.41-4.36c-2.61-1.22-5.35-2.19-8.15-2.98l0.07-0.33c2.92,0.39,5.79,1.15,8.56,2.22
		c2.76,1.08,5.41,2.49,7.84,4.22c0.6,0.44,1.22,0.86,1.78,1.35c0.57,0.48,1.17,0.93,1.7,1.46L53,55.5c0.28,0.25,0.51,0.54,0.77,0.81
		c0.26,0.27,0.51,0.55,0.76,0.83c0.25,0.28,0.47,0.58,0.7,0.87c1.85,2.34,3.37,4.97,4.24,7.8L59.16,65.94z"/>
	<path class="st0" d="M58.35,64.61c-2.24-1.03-4.35-2.24-6.46-3.47c-2.09-1.24-4.13-2.57-6.16-3.92c-1.01-0.67-2.01-1.37-3.01-2.06
		c-1.01-0.69-1.99-1.4-2.98-2.11c-1.97-1.43-3.93-2.89-5.81-4.45l0.19-0.28c2.18,1.11,4.3,2.32,6.4,3.55
		c1.04,0.62,2.09,1.24,3.12,1.89c1.04,0.64,2.07,1.28,3.09,1.94c2.05,1.31,4.08,2.66,6.05,4.08c1.97,1.43,3.92,2.89,5.76,4.53
		L58.35,64.61z"/>
	<path class="st2" d="M64.16,66.25c-2.24-1.03-4.35-2.24-6.46-3.47c-2.09-1.24-4.14-2.57-6.16-3.92c-1.01-0.67-2.01-1.36-3.01-2.06
		c-1.01-0.68-1.99-1.4-2.98-2.11c-1.97-1.43-3.93-2.89-5.81-4.45l0.19-0.28c2.18,1.11,4.3,2.32,6.4,3.55
		c1.05,0.62,2.09,1.24,3.12,1.89c1.04,0.64,2.07,1.28,3.09,1.94c2.05,1.31,4.08,2.66,6.05,4.08c1.97,1.43,3.92,2.89,5.76,4.53
		L64.16,66.25z"/>
	<path class="st3" d="M60.32,66.86c-2.15-1.68-4.62-2.93-7.16-3.84l-0.96-0.33c-0.16-0.05-0.32-0.11-0.48-0.16
		c-0.16-0.05-0.32-0.09-0.52-0.07c-0.38,0.03-0.83,0.25-1.16,0.19c-0.17-0.02-0.31-0.11-0.46-0.17l-0.45-0.19
		c-0.6-0.26-1.21-0.53-1.83-0.75c-0.61-0.24-1.23-0.48-1.86-0.68c-0.62-0.22-1.25-0.44-1.89-0.61c-0.64-0.19-1.27-0.38-1.92-0.53
		c-0.65-0.16-1.29-0.35-1.95-0.47c-0.65-0.13-1.31-0.29-1.97-0.39c-2.64-0.49-5.34-0.76-8.09-0.92l-0.03-0.34
		c2.71-0.59,5.51-0.83,8.32-0.79c0.7-0.01,1.4,0.06,2.11,0.09c0.7,0.03,1.4,0.12,2.11,0.2c0.7,0.07,1.4,0.2,2.1,0.32
		c0.7,0.11,1.39,0.27,2.08,0.42c0.7,0.15,1.38,0.34,2.06,0.54c0.69,0.18,1.36,0.42,2.04,0.65l0.51,0.17
		c0.17,0.06,0.34,0.1,0.49,0.22c0.3,0.22,0.47,0.71,0.72,1.01c0.12,0.16,0.27,0.25,0.42,0.34c0.15,0.09,0.3,0.19,0.45,0.29
		l0.88,0.58c2.34,1.56,4.52,3.25,6.67,4.96L60.32,66.86z"/>
	<path class="st0" d="M58.43,64.64c-2.44,0.03-4.88-0.05-7.31-0.18c-1.22-0.05-2.43-0.15-3.65-0.22l-3.64-0.29
		c-2.42-0.22-4.85-0.45-7.26-0.74c-2.42-0.29-4.83-0.61-7.24-1.04l0.03-0.34c2.44-0.02,4.88,0.07,7.31,0.19
		c2.43,0.12,4.86,0.3,7.28,0.49l3.63,0.33c1.21,0.13,2.42,0.25,3.63,0.4c2.42,0.28,4.83,0.61,7.24,1.05L58.43,64.64z"/>
	<path class="st0" d="M58.47,64.64c-2.33,0.8-4.7,1.42-7.07,1.98c-2.38,0.56-4.76,1.03-7.16,1.44c-2.4,0.42-4.81,0.77-7.23,1.01
		c-2.43,0.23-4.87,0.4-7.35,0.32l-0.06-0.34c2.32-0.87,4.69-1.5,7.06-2.06c2.37-0.55,4.77-0.99,7.17-1.37
		c2.4-0.38,4.82-0.69,7.24-0.93c2.43-0.23,4.87-0.4,7.33-0.39L58.47,64.64z"/>
	<path class="st0" d="M58.51,64.62c-2.14,1.19-4.32,2.27-6.51,3.33c-2.19,1.06-4.41,2.06-6.64,3.04c-1.11,0.49-2.24,0.96-3.35,1.44
		c-1.13,0.46-2.25,0.93-3.38,1.37c-2.26,0.89-4.55,1.74-6.88,2.48l-0.14-0.31c2.13-1.21,4.31-2.3,6.5-3.35
		c1.1-0.53,2.2-1.03,3.31-1.54c1.11-0.49,2.22-1,3.34-1.47c2.24-0.96,4.48-1.9,6.75-2.79c2.27-0.89,4.55-1.75,6.87-2.51L58.51,64.62
		z"/>
	<path class="st4" d="M64.51,65.69c-2.82,0.68-5.58,1.45-8.25,2.42c-2.67,0.98-5.25,2.14-7.71,3.52c-2.46,1.38-4.79,2.98-6.98,4.77
		c-2.18,1.81-4.19,3.82-6.08,6.03l-0.29-0.19c1.3-2.63,3.12-5.02,5.23-7.09c2.1-2.09,4.52-3.87,7.11-5.31
		c2.59-1.44,5.36-2.57,8.22-3.32c2.85-0.76,5.79-1.18,8.71-1.17L64.51,65.69z"/>
	<path class="st5" d="M58.58,64.57c-1.29,2.08-2.67,4.09-4.12,6.07c-0.72,1-1.47,1.97-2.21,2.95c-0.76,0.97-1.53,1.93-2.3,2.9
		c-1.57,1.91-3.17,3.81-4.85,5.65c-1.67,1.85-3.4,3.67-5.23,5.42c-0.09-0.07-0.19-0.15-0.28-0.22c1.52-1.98,3.1-3.92,4.66-5.85
		c1.56-1.93,3.13-3.85,4.69-5.77c0.79-0.95,1.56-1.91,2.34-2.87c0.79-0.95,1.55-1.91,2.34-2.85c1.56-1.9,3.11-3.79,4.7-5.63
		C58.4,64.44,58.49,64.51,58.58,64.57"/>
	<path class="st0" d="M60.91,58.01c-1.29,2.08-2.67,4.09-4.12,6.07c-0.72,1-1.47,1.97-2.21,2.95c-0.76,0.97-1.53,1.94-2.3,2.9
		c-1.57,1.91-3.17,3.81-4.85,5.65c-1.67,1.85-3.4,3.67-5.23,5.42c-0.1-0.07-0.19-0.15-0.28-0.22c1.52-1.98,3.1-3.92,4.66-5.85
		c1.56-1.93,3.13-3.85,4.69-5.77c0.79-0.95,1.56-1.91,2.33-2.87c0.79-0.95,1.55-1.91,2.34-2.85c1.56-1.9,3.11-3.78,4.7-5.63
		C60.73,57.88,60.82,57.95,60.91,58.01"/>
	<path class="st0" d="M58.6,64.54c-0.69,2.35-1.53,4.64-2.42,6.91c-0.89,2.26-1.83,4.51-2.83,6.73c-0.5,1.11-1,2.22-1.53,3.32
		c-0.52,1.1-1.04,2.2-1.59,3.29c-1.08,2.18-2.2,4.35-3.45,6.46l-0.31-0.14c0.73-2.34,1.58-4.62,2.46-6.89
		c0.44-1.14,0.9-2.26,1.37-3.39c0.46-1.13,0.94-2.25,1.43-3.36c0.97-2.23,2-4.44,3.07-6.62c1.08-2.18,2.21-4.34,3.49-6.44
		L58.6,64.54z"/>
	<path class="st0" d="M67.08,46.29c-0.69,2.35-1.53,4.64-2.42,6.91c-0.89,2.26-1.83,4.51-2.83,6.73c-0.5,1.11-1,2.22-1.53,3.32
		c-0.52,1.1-1.04,2.2-1.59,3.29c-1.08,2.18-2.2,4.35-3.45,6.46l-0.31-0.14c0.73-2.34,1.58-4.62,2.46-6.89
		c0.44-1.14,0.9-2.26,1.37-3.39c0.46-1.13,0.94-2.24,1.43-3.36c0.97-2.23,2-4.44,3.07-6.62c1.08-2.18,2.21-4.34,3.49-6.44
		L67.08,46.29z"/>
	<path class="st6" d="M59.08,63.27c0.15,1.25,0.17,2.48,0.15,3.71c-0.03,1.22-0.12,2.44-0.27,3.65c-0.14,1.21-0.36,2.41-0.57,3.62
		c-0.22,1.2-0.45,2.4-0.71,3.6c-0.51,2.4-1.12,4.78-1.81,7.15c-0.7,2.37-1.5,4.73-2.49,7.05c-0.15-0.02-0.3-0.05-0.45-0.07
		c0.24-2.44,0.62-4.86,1.01-7.27c0.41-2.41,0.83-4.82,1.28-7.22c0.22-1.2,0.45-2.4,0.68-3.6c0.23-1.2,0.44-2.4,0.71-3.59
		c0.27-1.19,0.57-2.38,0.91-3.56c0.35-1.18,0.73-2.35,1.22-3.51C58.86,63.24,58.97,63.25,59.08,63.27"/>
	<path class="st1" d="M58.61,64.46c0.39,1.19,0.67,2.39,0.9,3.59c0.23,1.2,0.4,2.41,0.54,3.62c0.14,1.21,0.22,2.42,0.31,3.64
		c0.09,1.21,0.17,2.43,0.24,3.64c0.15,2.43,0.24,4.86,0.31,7.3c0.06,2.44,0.08,4.87,0,7.32l-0.34,0.03
		c-0.47-2.4-0.83-4.82-1.15-7.23c-0.32-2.42-0.61-4.83-0.84-7.26c-0.12-1.21-0.23-2.42-0.34-3.63c-0.1-1.21-0.21-2.42-0.26-3.64
		c-0.05-1.22-0.07-2.44-0.03-3.66c0.04-1.22,0.12-2.45,0.32-3.69L58.61,64.46z"/>
	<path class="st0" d="M58.6,64.42c1,2.24,1.87,4.52,2.71,6.82c0.84,2.3,1.63,4.62,2.48,6.92c0.41,1.16,0.83,2.31,1.26,3.46
		c0.41,1.16,0.84,2.31,1.27,3.47c0.84,2.31,1.7,4.63,2.52,6.96c-0.12,0.04-0.25,0.08-0.38,0.12c-1.17-2.22-2.22-4.47-3.22-6.74
		c-0.49-1.14-0.97-2.28-1.44-3.42c-0.46-1.14-0.91-2.29-1.35-3.44c-0.86-2.3-1.69-4.61-2.42-6.94c-0.72-2.34-1.34-4.7-1.76-7.11
		C58.39,64.49,58.5,64.46,58.6,64.42"/>
	<path class="st7" d="M58.58,64.39c0.53,0.39,1.01,0.81,1.47,1.25c0.46,0.43,0.9,0.88,1.33,1.33c0.85,0.91,1.64,1.86,2.4,2.83
		c1.51,1.95,2.81,4.02,4.15,6.09c1.33,2.08,2.62,4.18,3.86,6.33c1.22,2.16,2.43,4.34,3.44,6.66c-0.1,0.07-0.21,0.13-0.31,0.19
		c-2.02-1.68-3.77-3.52-5.45-5.4c-1.66-1.89-3.21-3.85-4.65-5.86c-1.44-2.02-2.84-4.05-3.97-6.22c-0.57-1.09-1.08-2.21-1.52-3.37
		c-0.22-0.58-0.42-1.17-0.59-1.78c-0.18-0.61-0.33-1.23-0.43-1.87C58.39,64.5,58.49,64.44,58.58,64.39"/>
	<path class="st0" d="M51.74,65.48c0.74,0.03,1.47,0.08,2.21,0.14c0.74,0.07,1.46,0.2,2.2,0.33c0.74,0.11,1.45,0.3,2.17,0.48
		c0.36,0.09,0.72,0.17,1.08,0.28l1.06,0.34c2.83,0.93,5.52,2.27,8.02,3.91c2.49,1.64,4.78,3.6,6.75,5.83
		c1.96,2.24,3.62,4.75,4.75,7.47l-0.3,0.16c-1.62-2.42-3.46-4.63-5.53-6.6c-2.05-1.98-4.31-3.73-6.72-5.24
		c-2.41-1.52-4.96-2.77-7.59-3.88l-0.99-0.42c-0.33-0.14-0.67-0.25-1-0.38c-0.67-0.24-1.34-0.53-2.02-0.74
		c-0.69-0.21-1.36-0.49-2.06-0.69c-0.69-0.21-1.39-0.42-2.09-0.67L51.74,65.48z"/>
	<path class="st8" d="M58.52,64.32c1.16,0.41,2.28,0.9,3.4,1.38c1.11,0.5,2.23,1,3.32,1.54c2.19,1.06,4.34,2.2,6.47,3.39
		c2.13,1.19,4.24,2.4,6.31,3.68c2.07,1.28,4.13,2.59,6.11,4.03l-0.16,0.3c-2.28-0.9-4.5-1.92-6.69-2.98
		c-2.2-1.05-4.36-2.18-6.5-3.33c-2.14-1.15-4.26-2.35-6.34-3.63c-1.04-0.63-2.06-1.3-3.08-1.97c-1.01-0.68-2.02-1.37-3-2.12
		L58.52,64.32z"/>
	<path class="st0" d="M54.7,63.36c1.23-0.09,2.45-0.09,3.67-0.1c1.22,0.01,2.44,0.02,3.66,0.08c2.43,0.1,4.86,0.28,7.28,0.51
		c2.42,0.23,4.84,0.5,7.25,0.84c2.41,0.34,4.82,0.72,7.22,1.24l-0.03,0.34c-2.45,0.09-4.89,0.04-7.32-0.05
		c-2.43-0.08-4.86-0.25-7.29-0.44c-2.43-0.2-4.85-0.45-7.26-0.78c-1.21-0.16-2.41-0.36-3.61-0.56c-1.2-0.22-2.4-0.44-3.6-0.74
		L54.7,63.36z"/>
	<path class="st0" d="M58.48,64.31c2.39,0.5,4.76,1.07,7.13,1.66c2.37,0.59,4.74,1.19,7.11,1.81c2.37,0.62,4.75,1.23,7.12,1.87
		c2.38,0.64,4.76,1.27,7.13,1.97c-0.03,0.11-0.05,0.22-0.08,0.33c-2.45-0.37-4.88-0.84-7.29-1.35c-2.41-0.51-4.81-1.07-7.19-1.68
		c-2.38-0.6-4.74-1.25-7.09-1.96c-2.34-0.71-4.66-1.47-6.95-2.33C58.42,64.52,58.45,64.42,58.48,64.31"/>
	<path class="st0" d="M58.33,64.32c2.31-0.97,4.73-1.68,7.2-2.15c2.47-0.46,4.99-0.68,7.5-0.65l1.88,0.06l1.88,0.15l1.87,0.24
		l1.85,0.33c2.46,0.49,4.87,1.21,7.18,2.18l-0.12,0.32c-2.36-0.74-4.77-1.33-7.2-1.72l-1.83-0.25l-1.84-0.19l-1.84-0.11l-1.84-0.04
		c-2.46,0-4.92,0.19-7.35,0.56c-2.43,0.37-4.85,0.9-7.23,1.59L58.33,64.32z"/>
	<path class="st9" d="M58.4,64.3c2.32-0.77,4.65-1.46,7-2.12c1.17-0.33,2.34-0.65,3.52-0.96c1.18-0.32,2.36-0.62,3.53-0.91
		c2.36-0.6,4.73-1.15,7.11-1.67c2.38-0.51,4.77-0.98,7.19-1.34l0.08,0.33c-2.31,0.81-4.64,1.5-6.99,2.16
		c-2.35,0.65-4.7,1.26-7.07,1.83c-1.18,0.28-2.36,0.57-3.55,0.84c-1.19,0.28-2.37,0.54-3.56,0.79c-2.38,0.51-4.77,0.99-7.18,1.38
		L58.4,64.3z"/>
	<path class="st0" d="M57.25,65.89c1.92-1.58,3.96-2.92,6.04-4.18c2.08-1.27,4.24-2.4,6.4-3.51c2.16-1.11,4.35-2.18,6.56-3.2
		c2.22-1,4.45-1.99,6.76-2.84l0.16,0.3c-1.99,1.44-4.05,2.75-6.12,4.03c-2.08,1.27-4.19,2.49-6.32,3.67
		c-2.13,1.17-4.27,2.33-6.48,3.35c-2.21,1.03-4.46,1.98-6.84,2.69L57.25,65.89z"/>
	<path class="st0" d="M51.55,65.89c1.91-1.58,3.96-2.92,6.04-4.18c2.08-1.27,4.24-2.4,6.4-3.51c2.16-1.11,4.35-2.18,6.56-3.2
		c2.22-1,4.45-1.99,6.76-2.84l0.16,0.3c-1.99,1.44-4.05,2.75-6.12,4.03c-2.08,1.27-4.19,2.49-6.32,3.67
		c-2.13,1.17-4.27,2.33-6.48,3.35c-2.21,1.03-4.46,1.98-6.84,2.69L51.55,65.89z"/>
	<path class="st10" d="M57.16,65.48c1.11-2.74,2.81-5.23,4.81-7.44c2-2.2,4.34-4.1,6.87-5.66c0.62-0.41,1.27-0.77,1.93-1.12
		c0.65-0.37,1.32-0.68,1.99-0.99c0.34-0.15,0.67-0.32,1.01-0.47c0.34-0.14,0.69-0.28,1.03-0.41l1.04-0.4l1.06-0.35
		c2.81-0.91,5.72-1.51,8.65-1.72l0.05,0.34c-2.83,0.71-5.59,1.55-8.24,2.64l-1,0.4l-0.97,0.45c-0.32,0.15-0.65,0.3-0.97,0.45
		c-0.32,0.15-0.64,0.33-0.95,0.49c-0.63,0.33-1.27,0.65-1.88,1.03c-0.61,0.36-1.24,0.7-1.83,1.11c-2.39,1.55-4.63,3.32-6.68,5.29
		c-2.07,1.97-3.91,4.16-5.61,6.53L57.16,65.48z"/>
	<path class="st0" d="M58.3,64.37c1.08-2.2,2.32-4.3,3.58-6.38c1.27-2.08,2.59-4.12,3.97-6.13l1.02-1.51l1.04-1.5
		c0.69-1,1.4-1.99,2.11-2.98c1.43-1.97,2.88-3.93,4.42-5.83l0.28,0.19c-1.15,2.16-2.39,4.26-3.65,6.34
		c-0.64,1.04-1.27,2.08-1.92,3.1l-0.98,1.54l-1,1.53c-1.32,2.05-2.68,4.06-4.1,6.04c-1.43,1.97-2.88,3.93-4.49,5.78L58.3,64.37z"/>
	<path class="st11" d="M58.28,64.41c-0.05-1.31,0.14-2.53,0.39-3.73c0.25-1.2,0.62-2.36,1.04-3.5c0.81-2.3,1.65-4.58,2.52-6.85
		c0.87-2.27,1.77-4.54,2.73-6.78c0.94-2.25,1.93-4.48,3.01-6.68l0.32,0.11c-0.53,2.39-1.16,4.75-1.83,7.09
		c-0.66,2.35-1.37,4.68-2.11,6.99c-0.74,2.32-1.51,4.63-2.32,6.92c-0.39,1.15-0.83,2.29-1.38,3.38c-0.55,1.1-1.18,2.17-2.03,3.16
		L58.28,64.41z"/>
	<path class="st0" d="M64.51,64.38c0,3.26-2.64,5.91-5.91,5.91c-3.26,0-5.91-2.64-5.91-5.91c0-3.26,2.65-5.91,5.91-5.91
		C61.87,58.48,64.51,61.12,64.51,64.38"/>
	<path class="st0" d="M62.36,51.08c-0.4-1.21-0.63-2.42-0.83-3.64c-0.21-1.22-0.34-2.44-0.41-3.66c-0.08-1.22-0.08-2.44-0.06-3.65
		c0-1.22,0.04-2.43,0.09-3.64c0.1-2.42,0.3-4.83,0.62-7.23c0.35-2.39,0.82-4.75,1.6-7.07l0.6,0.08c0.59,2.49,0.87,4.93,1.03,7.35
		c0.13,2.41,0.14,4.81,0.05,7.2c-0.05,1.19-0.1,2.38-0.19,3.57c-0.08,1.19-0.17,2.38-0.35,3.56c-0.17,1.19-0.4,2.37-0.7,3.55
		c-0.29,1.19-0.62,2.38-1.11,3.58H62.36z"/>
	<path class="st0" d="M62.36,49.36c-0.9-2.28-1.62-4.61-2.29-6.95c-0.68-2.34-1.25-4.7-1.83-7.07c-0.57-2.36-1.12-4.74-1.64-7.12
		c-0.5-2.38-1-4.77-1.4-7.17l0.33-0.08c0.79,2.31,1.49,4.64,2.18,6.98c0.67,2.34,1.32,4.69,1.94,7.04c0.61,2.36,1.23,4.71,1.75,7.09
		c0.52,2.38,0.99,4.77,1.29,7.2L62.36,49.36z"/>
	<path class="st0" d="M62.38,49.4c-1.61-1.9-2.96-3.93-4.24-6s-2.43-4.22-3.56-6.37c-1.12-2.16-2.2-4.34-3.23-6.55
		c-1.01-2.22-2-4.45-2.84-6.76l0.3-0.16c1.47,1.97,2.79,4.02,4.1,6.08c1.29,2.07,2.52,4.17,3.71,6.29c1.18,2.13,2.35,4.26,3.38,6.47
		c1.03,2.21,1.99,4.46,2.7,6.84L62.38,49.4z"/>
	<path class="st1" d="M63.25,50.8c-1.47-2.53-3.13-4.87-5.04-7.01c-0.24-0.27-0.47-0.54-0.72-0.8c-0.25-0.25-0.5-0.51-0.75-0.77
		c-0.25-0.25-0.49-0.53-0.75-0.76l-0.79-0.73c-0.51-0.5-1.07-0.95-1.61-1.41c-0.54-0.47-1.12-0.88-1.69-1.32
		c-2.31-1.7-4.8-3.15-7.41-4.36c-2.61-1.22-5.35-2.19-8.15-2.98l0.07-0.33c2.92,0.39,5.79,1.15,8.56,2.22
		c2.76,1.08,5.41,2.49,7.84,4.22c0.6,0.44,1.22,0.86,1.78,1.35c0.57,0.48,1.17,0.93,1.7,1.46l0.81,0.77
		c0.28,0.25,0.51,0.54,0.77,0.81c0.26,0.27,0.51,0.55,0.76,0.83c0.25,0.28,0.47,0.58,0.7,0.87c1.85,2.34,3.37,4.97,4.24,7.8
		L63.25,50.8z"/>
	<path class="st0" d="M62.43,49.47c-2.24-1.03-4.35-2.24-6.46-3.47c-2.09-1.24-4.14-2.57-6.16-3.92c-1.01-0.67-2.01-1.36-3.01-2.06
		c-1.01-0.69-1.99-1.4-2.98-2.11c-1.97-1.43-3.93-2.89-5.81-4.45l0.19-0.28c2.18,1.11,4.3,2.32,6.4,3.55
		c1.04,0.62,2.09,1.24,3.12,1.89c1.04,0.64,2.07,1.28,3.09,1.94c2.05,1.31,4.08,2.66,6.05,4.08c1.97,1.43,3.92,2.89,5.76,4.53
		L62.43,49.47z"/>
	<path class="st2" d="M68.24,51.1c-2.24-1.03-4.35-2.24-6.46-3.47c-2.09-1.24-4.14-2.57-6.16-3.92c-1.01-0.67-2.01-1.37-3.01-2.06
		c-1.01-0.69-1.99-1.4-2.98-2.11c-1.97-1.43-3.93-2.89-5.81-4.45l0.19-0.28c2.18,1.11,4.3,2.32,6.4,3.55
		c1.05,0.62,2.09,1.24,3.12,1.89c1.04,0.64,2.07,1.28,3.09,1.94c2.05,1.31,4.08,2.66,6.05,4.08c1.97,1.43,3.92,2.89,5.76,4.53
		L68.24,51.1z"/>
	<path class="st3" d="M64.41,51.72c-2.15-1.68-4.62-2.93-7.16-3.84l-0.96-0.33c-0.16-0.05-0.32-0.11-0.48-0.16
		c-0.16-0.05-0.32-0.09-0.52-0.07c-0.38,0.03-0.83,0.25-1.16,0.19c-0.17-0.02-0.31-0.11-0.46-0.17l-0.45-0.19
		c-0.6-0.26-1.21-0.53-1.83-0.75c-0.61-0.24-1.23-0.48-1.86-0.68c-0.63-0.22-1.25-0.44-1.89-0.61c-0.64-0.19-1.27-0.38-1.92-0.53
		c-0.65-0.16-1.29-0.35-1.95-0.47c-0.65-0.13-1.31-0.29-1.97-0.39c-2.64-0.49-5.34-0.76-8.09-0.92l-0.03-0.34
		c2.71-0.59,5.51-0.83,8.32-0.79c0.7-0.01,1.4,0.06,2.11,0.09c0.7,0.03,1.41,0.12,2.11,0.2c0.7,0.07,1.4,0.2,2.1,0.32
		c0.7,0.11,1.39,0.27,2.09,0.42c0.7,0.15,1.38,0.34,2.06,0.54c0.69,0.18,1.36,0.42,2.04,0.65l0.51,0.17
		c0.17,0.06,0.34,0.1,0.49,0.22c0.3,0.22,0.47,0.71,0.72,1.01c0.12,0.16,0.27,0.25,0.42,0.34c0.15,0.09,0.3,0.19,0.45,0.29
		l0.88,0.58c2.34,1.56,4.52,3.25,6.68,4.96L64.41,51.72z"/>
	<path class="st0" d="M62.51,49.49c-2.44,0.03-4.88-0.06-7.31-0.18c-1.22-0.05-2.43-0.15-3.64-0.22l-3.64-0.29
		c-2.42-0.22-4.85-0.45-7.26-0.74c-2.42-0.29-4.83-0.61-7.24-1.04l0.03-0.34c2.44-0.02,4.88,0.07,7.31,0.19
		c2.43,0.12,4.86,0.3,7.28,0.49l3.63,0.33c1.21,0.13,2.42,0.25,3.63,0.4c2.42,0.28,4.83,0.61,7.24,1.05L62.51,49.49z"/>
	<path class="st0" d="M62.56,49.49c-2.33,0.8-4.7,1.42-7.07,1.98c-2.37,0.56-4.76,1.03-7.16,1.44c-2.4,0.42-4.81,0.77-7.23,1
		c-2.43,0.23-4.87,0.4-7.34,0.32l-0.06-0.34c2.32-0.87,4.68-1.5,7.06-2.06c2.38-0.55,4.77-0.99,7.17-1.37
		c2.4-0.37,4.82-0.69,7.24-0.93c2.43-0.23,4.87-0.4,7.33-0.39L62.56,49.49z"/>
	<path class="st0" d="M62.6,49.48c-2.14,1.19-4.32,2.27-6.51,3.33c-2.19,1.06-4.41,2.06-6.64,3.04c-1.11,0.5-2.24,0.96-3.35,1.44
		c-1.13,0.46-2.25,0.93-3.38,1.37c-2.26,0.89-4.55,1.74-6.88,2.48l-0.13-0.31c2.13-1.21,4.31-2.3,6.5-3.35
		c1.1-0.53,2.2-1.03,3.31-1.54c1.11-0.49,2.22-1,3.34-1.48c2.24-0.96,4.48-1.9,6.75-2.79c2.27-0.89,4.55-1.75,6.87-2.51L62.6,49.48z
		"/>
	<path class="st4" d="M68.6,50.55c-2.82,0.68-5.58,1.45-8.25,2.42c-2.67,0.98-5.25,2.14-7.71,3.52c-2.46,1.38-4.79,2.98-6.98,4.77
		c-2.18,1.81-4.19,3.82-6.08,6.03L39.3,67.1c1.3-2.63,3.12-5.02,5.23-7.09c2.1-2.09,4.52-3.87,7.11-5.31
		c2.59-1.44,5.36-2.57,8.22-3.32c2.85-0.76,5.79-1.18,8.71-1.17L68.6,50.55z"/>
	<path class="st5" d="M62.67,49.43c-1.29,2.08-2.67,4.09-4.12,6.07c-0.72,1-1.47,1.97-2.21,2.95c-0.76,0.97-1.53,1.94-2.3,2.9
		c-1.57,1.91-3.17,3.81-4.85,5.65c-1.67,1.85-3.4,3.67-5.23,5.42c-0.1-0.07-0.19-0.15-0.28-0.22c1.52-1.98,3.09-3.92,4.66-5.85
		c1.56-1.93,3.13-3.85,4.69-5.77c0.79-0.95,1.56-1.91,2.34-2.87c0.79-0.95,1.55-1.91,2.34-2.85c1.56-1.9,3.11-3.79,4.7-5.63
		C62.49,49.29,62.58,49.36,62.67,49.43"/>
	<path class="st0" d="M65,42.87c-1.29,2.08-2.67,4.09-4.12,6.07c-0.72,1-1.47,1.97-2.21,2.95c-0.76,0.97-1.53,1.93-2.3,2.9
		c-1.57,1.91-3.17,3.81-4.85,5.65c-1.67,1.85-3.4,3.67-5.23,5.42c-0.09-0.07-0.19-0.15-0.28-0.22c1.52-1.98,3.1-3.92,4.66-5.85
		c1.56-1.93,3.13-3.85,4.69-5.77c0.78-0.95,1.56-1.91,2.33-2.87c0.79-0.95,1.55-1.91,2.34-2.85c1.56-1.9,3.11-3.79,4.71-5.63
		C64.82,42.74,64.91,42.8,65,42.87"/>
	<path class="st0" d="M62.68,49.39c-0.7,2.35-1.53,4.64-2.42,6.91c-0.89,2.26-1.83,4.51-2.83,6.73c-0.5,1.11-1,2.22-1.53,3.32
		c-0.52,1.1-1.04,2.2-1.59,3.29c-1.08,2.18-2.2,4.35-3.45,6.46l-0.31-0.14c0.73-2.34,1.58-4.62,2.46-6.89
		c0.44-1.14,0.9-2.26,1.37-3.39c0.46-1.13,0.94-2.24,1.43-3.36c0.97-2.23,2-4.44,3.07-6.62c1.08-2.18,2.21-4.34,3.49-6.44
		L62.68,49.39z"/>
	<path class="st0" d="M71.17,31.14c-0.7,2.35-1.53,4.64-2.42,6.91c-0.89,2.26-1.83,4.51-2.83,6.73c-0.5,1.11-1,2.22-1.53,3.32
		c-0.52,1.1-1.04,2.2-1.59,3.29c-1.08,2.18-2.2,4.35-3.45,6.46l-0.31-0.14c0.73-2.34,1.58-4.62,2.46-6.89
		c0.44-1.14,0.9-2.26,1.37-3.39c0.46-1.13,0.94-2.24,1.43-3.36c0.97-2.23,2-4.44,3.07-6.62c1.08-2.18,2.21-4.34,3.49-6.44
		L71.17,31.14z"/>
	<path class="st6" d="M63.17,48.12c0.15,1.25,0.17,2.48,0.15,3.71c-0.03,1.22-0.12,2.44-0.27,3.65c-0.14,1.21-0.36,2.41-0.57,3.62
		c-0.22,1.2-0.45,2.4-0.71,3.6c-0.51,2.4-1.12,4.78-1.81,7.15c-0.7,2.37-1.5,4.73-2.49,7.05c-0.15-0.02-0.3-0.05-0.45-0.07
		c0.24-2.44,0.62-4.86,1.01-7.27c0.41-2.41,0.83-4.82,1.28-7.22c0.22-1.2,0.45-2.4,0.68-3.6c0.23-1.2,0.44-2.4,0.71-3.59
		c0.27-1.19,0.57-2.38,0.91-3.56c0.35-1.18,0.73-2.35,1.22-3.51C62.94,48.09,63.05,48.11,63.17,48.12"/>
	<path class="st1" d="M62.7,49.31c0.39,1.19,0.67,2.39,0.9,3.59c0.23,1.2,0.4,2.41,0.54,3.62c0.14,1.21,0.22,2.42,0.31,3.64
		c0.09,1.21,0.17,2.43,0.24,3.64c0.15,2.43,0.24,4.86,0.31,7.3c0.06,2.44,0.08,4.87,0,7.32l-0.34,0.03
		c-0.47-2.4-0.83-4.82-1.15-7.23c-0.32-2.42-0.61-4.83-0.84-7.26c-0.12-1.21-0.23-2.42-0.34-3.63c-0.1-1.21-0.21-2.42-0.26-3.64
		c-0.05-1.22-0.07-2.43-0.03-3.66c0.04-1.22,0.12-2.45,0.32-3.69L62.7,49.31z"/>
	<path class="st0" d="M62.69,49.28c1,2.24,1.87,4.52,2.71,6.82c0.84,2.3,1.63,4.62,2.48,6.92c0.41,1.16,0.83,2.31,1.26,3.46
		c0.42,1.16,0.84,2.31,1.27,3.47c0.84,2.31,1.7,4.63,2.52,6.96c-0.13,0.04-0.25,0.08-0.38,0.12c-1.17-2.22-2.22-4.47-3.22-6.74
		c-0.49-1.14-0.97-2.27-1.44-3.42c-0.46-1.14-0.91-2.29-1.35-3.44c-0.86-2.3-1.69-4.61-2.42-6.94c-0.72-2.34-1.34-4.7-1.76-7.11
		C62.47,49.34,62.58,49.31,62.69,49.28"/>
	<path class="st7" d="M62.67,49.24c0.52,0.39,1.01,0.81,1.47,1.25c0.46,0.43,0.9,0.88,1.33,1.33c0.85,0.91,1.64,1.86,2.4,2.83
		c1.51,1.95,2.81,4.02,4.15,6.09c1.32,2.08,2.62,4.18,3.85,6.34c1.22,2.16,2.43,4.34,3.44,6.66c-0.1,0.06-0.2,0.13-0.31,0.19
		c-2.02-1.68-3.77-3.52-5.45-5.4c-1.66-1.89-3.2-3.85-4.65-5.86c-1.44-2.02-2.84-4.05-3.97-6.22c-0.57-1.09-1.08-2.21-1.52-3.37
		c-0.22-0.58-0.42-1.17-0.59-1.78c-0.18-0.61-0.33-1.22-0.43-1.87C62.48,49.36,62.57,49.3,62.67,49.24"/>
	<path class="st0" d="M55.82,50.33c0.74,0.03,1.47,0.08,2.21,0.14c0.74,0.07,1.46,0.2,2.2,0.33c0.74,0.11,1.45,0.3,2.17,0.48
		c0.36,0.09,0.72,0.17,1.08,0.28l1.06,0.34c2.83,0.93,5.53,2.27,8.02,3.91c2.49,1.64,4.78,3.6,6.75,5.83
		c1.96,2.24,3.62,4.75,4.75,7.47l-0.3,0.16c-1.62-2.42-3.46-4.63-5.53-6.6c-2.05-1.98-4.31-3.73-6.72-5.24
		c-2.41-1.52-4.96-2.77-7.59-3.88l-0.99-0.42c-0.33-0.14-0.67-0.25-1-0.38c-0.67-0.24-1.34-0.53-2.02-0.74
		c-0.69-0.21-1.36-0.49-2.06-0.69c-0.69-0.21-1.39-0.43-2.09-0.67L55.82,50.33z"/>
	<path class="st8" d="M62.61,49.17c1.16,0.41,2.28,0.9,3.4,1.39c1.11,0.5,2.23,1,3.32,1.54c2.19,1.06,4.34,2.2,6.47,3.39
		c2.13,1.19,4.24,2.4,6.31,3.68c2.07,1.28,4.13,2.59,6.12,4.03l-0.16,0.3c-2.28-0.9-4.5-1.92-6.69-2.98
		c-2.2-1.05-4.36-2.18-6.5-3.33c-2.14-1.15-4.26-2.35-6.34-3.62c-1.04-0.63-2.06-1.3-3.08-1.97c-1.01-0.68-2.02-1.37-3-2.12
		L62.61,49.17z"/>
	<path class="st0" d="M58.79,48.21c1.23-0.09,2.45-0.09,3.67-0.1c1.22,0.01,2.44,0.02,3.66,0.08c2.43,0.1,4.86,0.28,7.28,0.51
		c2.42,0.23,4.84,0.5,7.25,0.84c2.41,0.34,4.82,0.72,7.22,1.24l-0.03,0.34c-2.45,0.09-4.89,0.04-7.32-0.05
		c-2.43-0.08-4.86-0.25-7.29-0.44c-2.43-0.2-4.85-0.45-7.26-0.78c-1.21-0.16-2.41-0.36-3.61-0.56c-1.2-0.22-2.4-0.44-3.6-0.74
		L58.79,48.21z"/>
	<path class="st0" d="M62.57,49.16c2.39,0.5,4.76,1.07,7.13,1.66c2.37,0.59,4.74,1.19,7.11,1.81c2.37,0.62,4.75,1.23,7.12,1.87
		c2.38,0.63,4.76,1.27,7.13,1.97c-0.03,0.11-0.05,0.22-0.08,0.33c-2.45-0.37-4.88-0.84-7.29-1.35c-2.41-0.51-4.81-1.07-7.19-1.67
		c-2.38-0.6-4.74-1.25-7.09-1.96c-2.34-0.71-4.66-1.46-6.95-2.33C62.51,49.38,62.54,49.27,62.57,49.16"/>
	<path class="st0" d="M62.42,49.17c2.31-0.97,4.73-1.68,7.2-2.15c2.47-0.46,4.99-0.68,7.5-0.65L79,46.43l1.88,0.15l1.87,0.24
		l1.85,0.33c2.46,0.49,4.88,1.21,7.18,2.18l-0.12,0.32c-2.36-0.74-4.77-1.33-7.2-1.72l-1.83-0.25l-1.84-0.19l-1.84-0.11l-1.84-0.04
		c-2.46,0-4.92,0.19-7.35,0.56c-2.43,0.37-4.85,0.9-7.23,1.59L62.42,49.17z"/>
	<path class="st9" d="M62.49,49.16c2.32-0.77,4.65-1.46,7-2.12c1.17-0.33,2.35-0.65,3.52-0.96c1.18-0.32,2.36-0.61,3.53-0.91
		c2.36-0.6,4.73-1.15,7.11-1.67c2.38-0.51,4.77-0.98,7.19-1.34l0.08,0.33c-2.31,0.81-4.64,1.5-6.99,2.16
		c-2.35,0.65-4.7,1.26-7.07,1.82c-1.18,0.29-2.36,0.57-3.55,0.84c-1.19,0.27-2.37,0.54-3.56,0.79c-2.38,0.51-4.77,0.99-7.18,1.38
		L62.49,49.16z"/>
	<path class="st0" d="M61.34,50.74c1.91-1.58,3.96-2.92,6.04-4.18c2.08-1.27,4.24-2.4,6.4-3.51c2.16-1.11,4.35-2.18,6.56-3.2
		c2.22-1.01,4.45-1.99,6.76-2.84l0.16,0.3c-1.99,1.44-4.05,2.75-6.12,4.03c-2.08,1.27-4.19,2.49-6.32,3.67
		c-2.13,1.17-4.27,2.33-6.48,3.36c-2.21,1.03-4.46,1.98-6.84,2.68L61.34,50.74z"/>
	<path class="st0" d="M55.64,50.74c1.91-1.58,3.96-2.92,6.04-4.18c2.08-1.27,4.24-2.4,6.4-3.51c2.16-1.11,4.35-2.18,6.56-3.2
		c2.22-1.01,4.45-1.99,6.76-2.84l0.16,0.3c-1.99,1.44-4.05,2.75-6.12,4.03c-2.08,1.27-4.19,2.49-6.32,3.67
		c-2.13,1.17-4.27,2.33-6.48,3.36c-2.21,1.03-4.46,1.98-6.84,2.68L55.64,50.74z"/>
	<path class="st10" d="M61.25,50.33c1.11-2.74,2.81-5.23,4.81-7.44c2-2.2,4.34-4.1,6.88-5.66c0.62-0.41,1.27-0.77,1.93-1.12
		c0.65-0.37,1.32-0.68,1.99-0.99c0.34-0.15,0.67-0.32,1.01-0.47c0.34-0.14,0.69-0.28,1.03-0.41l1.04-0.4l1.05-0.35
		c2.81-0.91,5.72-1.51,8.65-1.72l0.05,0.34c-2.83,0.71-5.59,1.55-8.24,2.64l-1,0.4l-0.97,0.46c-0.32,0.15-0.65,0.3-0.97,0.45
		c-0.32,0.15-0.64,0.33-0.95,0.49c-0.63,0.33-1.27,0.65-1.88,1.03c-0.61,0.36-1.24,0.7-1.83,1.11c-2.39,1.55-4.63,3.32-6.68,5.29
		c-2.07,1.97-3.91,4.16-5.61,6.53L61.25,50.33z"/>
	<path class="st0" d="M62.39,49.23c1.08-2.2,2.32-4.3,3.58-6.38c1.27-2.07,2.59-4.12,3.97-6.13l1.02-1.51l1.04-1.5
		c0.69-1,1.4-1.99,2.11-2.98c1.43-1.97,2.88-3.93,4.42-5.83l0.28,0.19c-1.15,2.16-2.39,4.26-3.65,6.34
		c-0.64,1.04-1.27,2.08-1.93,3.1l-0.97,1.54l-1,1.53c-1.32,2.05-2.68,4.06-4.1,6.04c-1.43,1.97-2.88,3.93-4.49,5.78L62.39,49.23z"/>
	<path class="st11" d="M62.37,49.27c-0.05-1.31,0.14-2.53,0.39-3.73c0.25-1.2,0.62-2.36,1.04-3.5c0.81-2.3,1.65-4.58,2.52-6.85
		c0.87-2.27,1.77-4.54,2.73-6.78c0.94-2.25,1.93-4.48,3.01-6.68l0.32,0.11c-0.53,2.39-1.16,4.75-1.83,7.09
		c-0.66,2.35-1.37,4.68-2.11,6.99c-0.75,2.32-1.51,4.63-2.32,6.92c-0.39,1.15-0.83,2.29-1.38,3.38c-0.55,1.09-1.18,2.17-2.03,3.15
		L62.37,49.27z"/>
	<path class="st0" d="M68.6,49.24c0,3.26-2.64,5.91-5.91,5.91c-3.26,0-5.91-2.64-5.91-5.91c0-3.26,2.65-5.91,5.91-5.91
		C65.96,43.33,68.6,45.98,68.6,49.24"/>
	<path class="st12" d="M64.41,68.33c0-0.24,0.72-1.44-0.96-2.64c-1.68-1.2-3.86-1.28-3.49-3.04c0.37-1.76,1.81-3.76,3.49-5.12
		c1.68-1.36,3.28-2.4,4.8-1.92c1.52,0.48,2.64,1.12,2.88,3.04c0.24,1.92,1.92,3.36,0,5.44c-1.92,2.08-2.8,1.28-3.04,3.52
		c-0.24,2.24,0.24,3.36-1.28,3.6c-1.52,0.24-1.52,1.6-2.24,0C63.85,69.61,64.41,68.33,64.41,68.33"/>
	<path class="st13" d="M67.53,69.69c1.04-1.04,2-1.52,2.88-2.96c0.88-1.44,1.36-3.04,2.48-4.64c1.12-1.6,2.64-3.12,4.8-3.04
		c2.16,0.08,3.76,0,4.4,1.92s1.12,4.88,0,7.28c-1.12,2.4-2,3.68-4.64,4.08c-2.64,0.4-4.48,0.93-5.92,0.9c-1.44-0.02-2.32,0.19-3.2,0
		c-0.88-0.18-2.33-0.8-2.35-1.26c-0.02-0.46,0-1.57,0-1.57L67.53,69.69z"/>
	<path class="st14" d="M68.09,71.98c0.48,0.51,3.36,2.59,5.52,2.59c2.16,0,4.88-0.24,5.76,0.64c0.88,0.88,2.56,4.32,1.6,5.6
		c-0.96,1.28-4.19,3.36-6.3,3.92c-2.1,0.56-5.3,0.08-6.18-1.36c-0.88-1.44-2.72-3-3.28-4.9c-0.56-1.9-1.12-5.05-0.96-5.16
		c0.16-0.1,0.9-1.21,1.73-1.33C66.81,71.85,68.09,71.98,68.09,71.98"/>
	<path class="st12" d="M62.97,70.97c-1.04,0.48-3.2,0.88-4.16,3.04c-0.96,2.16-3.28,5.68-3.04,7.76c0.24,2.08,0.96,4.8,2.08,5.6
		c1.12,0.8,4,2.32,6,1.44c2-0.88,4.16-2.88,3.52-4.88c-0.64-2-1.18-4.16-1.39-5.84c-0.21-1.68-1.62-4.8-1.76-5.44
		C64.09,72.01,62.97,70.97,62.97,70.97"/>
	<path class="st13" d="M65.98,69.05c-0.13-0.48-3.25-2.56-5.01-3.44c-1.76-0.88-2.83-2.23-5.22-1.88c-2.38,0.36-3.5,0.92-3.82,3.08
		c-0.32,2.16-1.68,4.92-1.52,6.5c0.16,1.58-0.88,2.62,1.12,2.46c2-0.16-0.16,1.84,2.64,0.48c2.8-1.36,3.52-1.28,5.28-2.24
		c1.76-0.96,1.77-1.88,3.04-2.03C63.76,71.82,65.98,69.05,65.98,69.05"/>
	<path class="st15" d="M65.04,68.54c0,0-2.08-0.96-2.48-0.72c-0.4,0.24-0.96,0.56-1.28,1.28c-0.32,0.72-0.8,1.36-0.8,1.36
		s-0.4,1.09,0.48,0.51l0.88-0.59l-0.48,0.76l1.35-1.32l1.45,0.24L65.04,68.54z"/>
	<path class="st16" d="M65.84,64.38c-0.08,0.32,0.24,2.4-0.56,3.12c-0.8,0.72-1.76,0.64-2.08,1.92c-0.32,1.28-0.88,2.16-1.04,2.64
		c-0.16,0.48-0.64,1.04,0,2.4c0.64,1.36,0.16,2.16,1.28,2.64c1.12,0.48,1.76,0.72,1.2,0c-0.56-0.72-0.64-1.04-0.8-1.68
		c-0.16-0.64-0.72-2.16,0-1.12c0.72,1.04,0.4,1.28,1.12,1.68c0.72,0.4,1.44,0.56,0.88-0.24c-0.56-0.8-0.88-2.7-0.88-2.7
		s0.24,1.25,1.6,1.98c1.36,0.72,1.76,0.8,2.24,0.8c0.48,0,2.24-0.24,0.64-0.88c-1.6-0.64-0.04-1.04,0.66-0.64
		c0.7,0.4,2.94,0.64,1.42-0.16c-1.52-0.8-1.6-1.31-2.72-1.1c-1.12,0.22-1.86-0.5-1.86-0.5s0.34-0.16,1.38-0.16
		c1.04,0,1.58-0.4,2.03-0.16c0.45,0.24,1.73,0.32,0.69-0.32c-0.95-0.58-0.9-1.12-2.15-0.99c-0.12,0.01-0.26,0.03-0.41,0.06
		c-1.68,0.29,2.08-0.67,2.56-0.83c0.48-0.16,1-1.12,1-1.12s-0.14,0.72-1.69,0.56c-1.55-0.16-1.63-0.48-2.11-0.4
		c-0.48,0.08,0.16,0.48,0-0.56c-0.16-1.04-0.32-1.76-0.32-1.76s-0.32-0.08-0.08-0.48c0.24-0.4,0.96-0.88,0.96-0.88s-1.28-0.4-1.36,0
		c-0.08,0.4-0.16,1.52-0.16,2c0,0.48-1.12,1.92-1.12,1.52C66.16,68.62,65.84,64.38,65.84,64.38"/>
	<path class="st12" d="M33.28,66.51c-0.08,0.23-1.17,1.1-0.01,2.81c1.16,1.71,3.18,2.54,2.22,4.06c-0.96,1.52-3,2.9-5.05,3.6
		c-2.05,0.69-3.91,1.12-5.17,0.14c-1.26-0.98-2.09-1.96-1.65-3.85c0.44-1.88-0.64-3.82,1.88-5.1c2.52-1.29,3.07-0.23,4.07-2.25
		c1-2.02,0.94-3.24,2.45-2.93c1.51,0.3,1.98-0.98,2.1,0.78C34.25,65.5,33.28,66.51,33.28,66.51"/>
	<path class="st13" d="M30.82,64.16c-1.33,0.62-2.4,0.73-3.73,1.78c-1.32,1.05-2.33,2.38-3.93,3.5c-1.6,1.11-3.56,2.01-5.56,1.19
		c-2-0.82-3.53-1.3-3.46-3.32c0.06-2.02,0.64-4.97,2.52-6.83c1.88-1.86,3.15-2.76,5.77-2.22c2.62,0.54,4.52,0.68,5.87,1.2
		c1.34,0.52,2.24,0.63,3,1.11c0.76,0.48,1.91,1.55,1.77,1.99c-0.14,0.44-0.54,1.47-0.54,1.47L30.82,64.16z"/>
	<path class="st14" d="M31.09,61.82c-0.27-0.65-2.26-3.59-4.28-4.34c-2.03-0.75-4.66-1.46-5.18-2.59c-0.52-1.13-0.91-4.94,0.44-5.81
		c1.34-0.87,5.1-1.7,7.26-1.5c2.17,0.2,5,1.76,5.33,3.42s1.51,3.76,1.38,5.74c-0.13,1.97-0.7,5.13-0.88,5.17
		c-0.18,0.04-1.26,0.82-2.08,0.65C32.25,62.38,31.09,61.82,31.09,61.82"/>
	<path class="st12" d="M35.55,64.53c1.14-0.09,3.31,0.28,4.96-1.41c1.65-1.69,5.04-4.19,5.54-6.23c0.49-2.04,0.76-4.84-0.01-5.97
		c-0.77-1.14-2.95-3.56-5.13-3.43c-2.18,0.13-4.9,1.26-4.99,3.36c-0.09,2.1-0.33,4.31-0.72,5.96c-0.38,1.65-0.14,5.07-0.23,5.71
		C34.85,63.17,35.55,64.53,35.55,64.53"/>
	<path class="st13" d="M32.06,65.29c-0.05,0.5,2.16,3.53,3.51,4.96c1.35,1.43,1.89,3.07,4.25,3.57c2.36,0.49,3.6,0.35,4.65-1.56
		c1.05-1.92,3.28-4.04,3.68-5.57c0.4-1.54,1.73-2.15-0.2-2.69c-1.93-0.54,0.79-1.67-2.31-1.36c-3.1,0.31-3.74-0.02-5.73,0.27
		c-1.98,0.29-2.31,1.15-3.55,0.86C35.1,63.46,32.06,65.29,32.06,65.29"/>
	<path class="st15" d="M32.76,66.09c0,0,1.62,1.62,2.08,1.53c0.46-0.09,1.09-0.19,1.64-0.76c0.55-0.56,1.22-1,1.22-1
		s0.75-0.89-0.27-0.64l-1.03,0.25l0.71-0.55l-1.73,0.77l-1.27-0.73L32.76,66.09z"/>
	<path class="st16" d="M30.57,69.72c0.19-0.27,0.61-2.34,1.6-2.73c1-0.4,1.87,0.01,2.62-1.08c0.74-1.09,1.57-1.72,1.89-2.12
		c0.32-0.4,0.96-0.75,0.83-2.25c-0.13-1.5,0.6-2.08-0.29-2.92c-0.88-0.84-1.4-1.29-1.13-0.42c0.28,0.87,0.24,1.2,0.17,1.85
		c-0.07,0.66-0.07,2.28-0.39,1.05c-0.32-1.23,0.07-1.34-0.47-1.96c-0.54-0.62-1.16-1.02-0.91-0.08c0.25,0.94-0.11,2.83-0.11,2.83
		s0.21-1.26-0.82-2.41c-1.03-1.15-1.37-1.36-1.82-1.52c-0.45-0.17-2.18-0.55-0.9,0.6c1.28,1.15-0.32,0.99-0.84,0.37
		c-0.52-0.62-2.54-1.62-1.39-0.34c1.15,1.28,1.05,1.78,2.17,1.97c1.13,0.19,1.57,1.12,1.57,1.12s-0.38,0.03-1.35-0.33
		c-0.98-0.36-1.62-0.17-1.96-0.55c-0.34-0.38-1.51-0.9-0.76,0.06c0.69,0.87,0.46,1.36,1.68,1.67c0.12,0.03,0.25,0.06,0.4,0.09
		c1.68,0.31-2.18-0.09-2.69-0.11c-0.51-0.02-1.32,0.71-1.32,0.71s0.38-0.63,1.78,0.06c1.4,0.69,1.36,1.01,1.84,1.1
		c0.48,0.09,0.02-0.51-0.19,0.53c-0.21,1.03-0.31,1.76-0.31,1.76s0.27,0.19-0.09,0.48c-0.36,0.29-1.21,0.49-1.21,0.49
		s1.06,0.82,1.28,0.47c0.21-0.35,0.68-1.37,0.84-1.82c0.17-0.45,1.72-1.41,1.58-1.04C31.74,65.63,30.57,69.72,30.57,69.72"/>
	<path class="st12" d="M53.7,38.85c-0.24-0.01-1.4-0.8-2.69,0.8c-1.3,1.61-1.5,3.78-3.24,3.31c-1.74-0.47-3.65-2.03-4.91-3.78
		c-1.26-1.76-2.2-3.42-1.64-4.9c0.57-1.49,1.27-2.57,3.2-2.7c1.93-0.13,3.47-1.72,5.43,0.32c1.96,2.04,1.11,2.87,3.34,3.24
		c2.22,0.37,3.37-0.04,3.52,1.49c0.15,1.53,1.51,1.61-0.13,2.24C54.94,39.48,53.7,38.85,53.7,38.85"/>
	<path class="st13" d="M55.24,35.81c-0.98-1.1-1.4-2.09-2.79-3.05c-1.39-0.96-2.95-1.54-4.49-2.75c-1.53-1.21-2.96-2.82-2.76-4.97
		c0.21-2.15,0.22-3.75,2.17-4.28c1.96-0.53,4.94-0.83,7.27,0.43c2.33,1.26,3.56,2.21,3.8,4.87c0.25,2.66,0.67,4.53,0.56,5.96
		c-0.11,1.44,0.05,2.33-0.19,3.19c-0.24,0.87-0.93,2.28-1.39,2.27c-0.46,0-1.57-0.09-1.57-0.09L55.24,35.81z"/>
	<path class="st14" d="M57.56,35.39c0.54-0.45,2.79-3.2,2.91-5.36c0.13-2.16,0.05-4.89,0.98-5.71c0.93-0.83,4.46-2.3,5.68-1.27
		c1.22,1.03,3.11,4.38,3.54,6.52c0.44,2.13-0.23,5.3-1.72,6.09c-1.49,0.79-3.16,2.54-5.09,2.99c-1.93,0.45-5.11,0.82-5.2,0.66
		c-0.09-0.17-1.15-0.97-1.23-1.8C57.35,36.66,57.56,35.39,57.56,35.39"/>
	<path class="st12" d="M56.25,40.44c0.42,1.07,0.69,3.25,2.79,4.33c2.1,1.08,5.48,3.61,7.57,3.49c2.09-0.12,4.85-0.68,5.71-1.75
		c0.86-1.07,2.55-3.86,1.79-5.91c-0.76-2.05-2.63-4.32-4.67-3.8c-2.03,0.52-4.22,0.94-5.91,1.05c-1.69,0.11-4.89,1.34-5.53,1.44
		C57.35,39.38,56.25,40.44,56.25,40.44"/>
	<path class="st13" d="M54.51,37.32c-0.49,0.1-2.75,3.09-3.73,4.8c-0.98,1.71-2.39,2.7-2.18,5.1c0.22,2.4,0.71,3.55,2.85,4
		c2.14,0.45,4.82,1.97,6.4,1.9c1.59-0.07,2.56,1.03,2.52-0.97c-0.04-2.01,1.83,0.27,0.63-2.61c-1.19-2.87-1.07-3.59-1.93-5.4
		c-0.86-1.81-1.78-1.88-1.85-3.15C57.15,39.7,54.51,37.32,54.51,37.32"/>
	<path class="st15" d="M53.95,38.23c0,0-1.08,2.02-0.86,2.43c0.22,0.41,0.5,0.99,1.2,1.35c0.7,0.36,1.31,0.88,1.31,0.88
		s1.07,0.46,0.53-0.45l-0.53-0.91l0.73,0.52l-1.24-1.43l0.32-1.43L53.95,38.23z"/>
	<path class="st16" d="M49.84,37.19c0.31,0.1,2.41-0.1,3.08,0.74c0.67,0.84,0.54,1.79,1.79,2.19c1.26,0.39,2.11,1.01,2.58,1.19
		c0.47,0.19,1,0.7,2.39,0.14c1.4-0.56,2.17-0.03,2.71-1.12c0.54-1.09,0.82-1.71,0.07-1.2c-0.75,0.52-1.08,0.58-1.72,0.7
		c-0.65,0.12-2.2,0.59-1.12-0.07c1.08-0.66,1.3-0.33,1.74-1.02c0.44-0.7,0.64-1.41-0.19-0.89c-0.83,0.51-2.74,0.72-2.74,0.72
		s1.27-0.17,2.07-1.48c0.8-1.31,0.9-1.71,0.93-2.19c0.03-0.48-0.11-2.25-0.84-0.69c-0.73,1.56-1.04-0.02-0.6-0.69
		c0.44-0.68,0.81-2.9-0.08-1.43c-0.89,1.47-1.4,1.52-1.25,2.65c0.15,1.13-0.61,1.83-0.61,1.83s-0.14-0.35-0.08-1.39
		c0.06-1.04-0.31-1.6-0.04-2.03c0.27-0.44,0.42-1.71-0.28-0.71c-0.64,0.91-1.17,0.83-1.12,2.09c0.01,0.12,0.02,0.26,0.03,0.41
		c0.19,1.69-0.54-2.12-0.68-2.6c-0.13-0.49-1.06-1.06-1.06-1.06s0.71,0.18,0.46,1.72c-0.25,1.54-0.57,1.6-0.52,2.08
		c0.05,0.48,0.49-0.13-0.56-0.03c-1.05,0.1-1.78,0.22-1.78,0.22s-0.1,0.31-0.48,0.05c-0.39-0.26-0.82-1.01-0.82-1.01
		s-0.47,1.25-0.08,1.36c0.39,0.1,1.51,0.25,1.99,0.28c0.48,0.03,1.85,1.23,1.45,1.21C54.09,37.12,49.84,37.19,49.84,37.19"/>
</g>
</svg>
