<?xml version="1.0" encoding="utf-8"?>
<!-- Generator: Adobe Illustrator 23.1.1, SVG Export Plug-In . SVG Version: 6.00 Build 0)  -->
<svg version="1.1" id="Layer_1" xmlns="http://www.w3.org/2000/svg" xmlns:xlink="http://www.w3.org/1999/xlink" x="0px" y="0px"
	 viewBox="0 0 108 108" style="enable-background:new 0 0 108 108;" xml:space="preserve">
<style type="text/css">
	.st0{fill:none;stroke:#718638;stroke-width:1.0127;stroke-miterlimit:10;}
	.st1{fill:#A6C339;}
	.st2{fill:#85B541;}
	.st3{fill:#91BC3E;}
	.st4{fill:#B0CC37;}
	.st5{fill:#93B93F;}
	.st6{fill:#A6BD3A;}
	.st7{fill:#A5C939;}
	.st8{fill:#72AA42;}
	.st9{fill:#DCADD0;}
	.st10{fill:#C6A5CE;}
	.st11{fill:#CA67A8;}
	.st12{fill:#CC7BB3;}
	.st13{fill:#D096C3;}
	.st14{fill:#D3A9CF;}
	.st15{fill:#CE77AA;}
	.st16{fill:#C581AF;}
	.st17{fill:#BD5F8B;}
	.st18{fill:#DCC4DF;}
	.st19{fill:#BE83A6;}
	.st20{fill:#C9ABD1;}
	.st21{fill:#E8DFEE;}
	.st22{fill:#E3D8EB;}
	.st23{fill:#C594AF;}
	.st24{fill:#D7C6E1;}
</style>
<g>
	<path class="st0" d="M33.55,38.22c0.35,2.4,1.83,6.59,2.86,9.56"/>
	<path class="st0" d="M27.57,42.09c3.33,0.89,7.75,3.26,10.14,6.12"/>
	<path class="st0" d="M27.23,48.47c3.39-2.18,6.14-4.55,9.06-1.24"/>
	<path class="st0" d="M42.57,53.56c4.18,2.49,8.29,5.97,10.11,9.24"/>
	<path class="st0" d="M50.05,49.78c0.17,5.04,2.46,12.5,2.84,14.05"/>
	<path class="st0" d="M44.46,60.07c2.84-1.29,4.34-2.93,7.85,1.63"/>
	<path class="st1" d="M38.16,32.89c0.54,1.88,1.56,2.15-1.22,5.93l-2.78,3.78c0,0-0.72-0.66-1.57-1.4
		c-0.85-0.74-4.34-3.15-3.31-6.58c1.03-3.43,2.03-5.35,2.46-5.91c0.42-0.57,1.43-2.77,1.72-3.3"/>
	<path class="st2" d="M15.55,34.66c2.45,0.69,5.54-1.81,8.6-0.18c3.07,1.63,5.28,6.34,6.12,7.67c0.85,1.33,1.93,0.58-0.73,0.95
		c-2.66,0.38-2.7,1.3-5.08,1.03c-2.38-0.27-6.01-3.34-6.4-4.74C17.67,37.99,15.55,34.66,15.55,34.66"/>
	<path class="st3" d="M31.05,45.97c-0.69,0.09-1.54-0.39-4.9-0.03c-3.36,0.36-5.96,1.04-6.23,3.67c-0.27,2.63,0.61,3.04-0.62,4.9
		l-1.23,1.86c0,0,2.9-0.26,6.91-0.86c4.01-0.6,5.4-4.9,5.68-6.67C30.93,47.06,31.05,45.97,31.05,45.97"/>
	<path class="st4" d="M32.86,45.71c0,0,1.76,1.52,4.93,1.15c3.17-0.37,6.84,0.77,7.24,4.12c0.41,3.35,1.72,5.07,1.72,5.07
		s0.01-0.49-2.72,0.07c-2.73,0.55-6.88-0.86-8.32-3.47C34.27,50.04,32.86,45.71,32.86,45.71"/>
	<path class="st5" d="M51.39,39.12c0,0-3.58,4.59-4.49,7.51c-0.91,2.92-1.06,4.61,0.8,6.38c1.86,1.77,2.65,3.28,2.65,3.28
		s1.88-3.71,3.29-4.69c1.41-0.98,2.74-3.99,1.72-5.55C54.34,44.48,51.39,39.12,51.39,39.12"/>
	<path class="st6" d="M47.3,58.78c-0.01-0.05-2.57-0.77-5.52-0.76c-2.95,0.01-4.52,0.21-5.48,1.8c-0.97,1.59-1.55,3.21-2.16,5
		c-0.61,1.79-0.63,2.49-1.27,2.73c-0.65,0.24,0.77-0.69,4.07-0.29c3.3,0.41,4.94,1.09,6.15-0.11c1.2-1.21,0.92-3.14,1.82-4.82
		C45.8,60.64,47.3,58.78,47.3,58.78"/>
	<path class="st0" d="M75.59,34.77c-2.24,0.93-5.94,3.38-8.57,5.12"/>
	<path class="st0" d="M70.37,29.92c-0.04,3.45-1.26,8.31-3.44,11.33"/>
	<path class="st0" d="M64.11,31.15c2.95,2.76,5.92,4.84,3.43,8.48"/>
	<path class="st0" d="M62.94,47.28c-1.39,4.66-3.75,9.5-6.48,12.07"/>
	<path class="st0" d="M68.44,53.6c-4.84,1.4-11.52,5.45-12.93,6.2"/>
	<path class="st0" d="M57.09,50.7c1.95,2.44,3.91,3.49,0.35,8.01"/>
	<path class="st2" d="M81.9,37.93c-1.69,0.98-1.7,2.04-6.05,0.27l-4.35-1.77c0,0,0.46-0.86,0.97-1.87c0.51-1,1.99-4.98,5.56-4.82
		c3.57,0.15,5.68,0.66,6.34,0.93c0.65,0.27,3.03,0.7,3.62,0.86"/>
	<path class="st7" d="M74.63,16.44c-0.07,2.54,3.12,4.92,2.28,8.3c-0.83,3.37-4.85,6.67-5.94,7.82c-1.08,1.15-0.09,2.01-1.1-0.48
		c-1.02-2.49-1.92-2.3-2.24-4.68c-0.32-2.38,1.76-6.64,3.02-7.37C71.93,19.31,74.63,16.44,74.63,16.44"/>
	<path class="st3" d="M67.47,34.24c-0.25-0.65,0-1.59-1.17-4.76c-1.17-3.17-2.47-5.52-5.09-5.14c-2.62,0.38-2.8,1.34-4.9,0.6
		l-2.11-0.74c0,0,0.97,2.74,2.53,6.49c1.56,3.74,6.07,4.03,7.86,3.87C66.38,34.4,67.47,34.24,67.47,34.24"/>
	<path class="st4" d="M68.17,35.93c0,0-1.05,2.08,0.09,5.06c1.14,2.98,0.93,6.82-2.22,8.03c-3.15,1.22-4.5,2.91-4.5,2.91
		s0.47-0.11-0.73-2.62c-1.2-2.51-0.85-6.88,1.33-8.92C64.32,38.36,68.17,35.93,68.17,35.93"/>
	<path class="st5" d="M79.09,52.28c0,0-5.32-2.35-8.38-2.52c-3.06-0.17-4.73,0.11-5.99,2.35c-1.26,2.24-2.53,3.37-2.53,3.37
		s4.05,0.91,5.35,2.04c1.3,1.13,4.54,1.67,5.81,0.31C74.63,56.46,79.09,52.28,79.09,52.28"/>
	<path class="st6" d="M59.03,53.14c0.05-0.02,0.12-2.68-0.61-5.54c-0.73-2.86-1.31-4.33-3.09-4.88c-1.78-0.55-3.49-0.72-5.37-0.87
		c-1.88-0.15-2.57,0-2.95-0.57c-0.39-0.57,0.86,0.58,1.28,3.88c0.42,3.3,0.15,5.06,1.62,5.93c1.47,0.87,3.27,0.13,5.12,0.58
		C56.86,52.14,59.03,53.14,59.03,53.14"/>
	<path class="st0" d="M73.66,76.62c-1.04-2.19-3.68-5.76-5.54-8.3"/>
	<path class="st0" d="M78.25,71.16c-3.44,0.13-8.36-0.84-11.49-2.87"/>
	<path class="st0" d="M76.7,64.97c-2.61,3.08-4.53,6.16-8.3,3.85"/>
	<path class="st0" d="M60.54,64.6c-4.73-1.15-9.67-3.27-12.37-5.87"/>
	<path class="st0" d="M54.5,70.41c-1.64-4.76-6.02-11.23-6.84-12.6"/>
	<path class="st0" d="M56.82,58.93c-2.34,2.07-3.29,4.08-7.98,0.75"/>
	<path class="st1" d="M70.82,83.07c-1.07-1.64-2.12-1.6-0.58-6.03l1.55-4.43c0,0,0.88,0.42,1.91,0.88c1.03,0.46,5.07,1.74,5.1,5.31
		c0.03,3.58-0.37,5.71-0.61,6.38c-0.24,0.67-0.55,3.06-0.68,3.66"/>
	<path class="st2" d="M91.92,74.74c-2.54,0.06-4.76,3.36-8.17,2.7c-3.41-0.66-6.91-4.51-8.11-5.54c-1.2-1.03-2.01,0.01,0.42-1.13
		c2.43-1.14,2.2-2.03,4.56-2.47c2.36-0.44,6.72,1.43,7.51,2.65C88.91,72.18,91.92,74.74,91.92,74.74"/>
	<path class="st3" d="M73.78,68.48c0.64-0.29,1.59-0.08,4.7-1.41c3.11-1.33,5.39-2.75,4.88-5.34c-0.51-2.6-1.48-2.73-0.85-4.87
		l0.63-2.14c0,0-2.69,1.1-6.35,2.85c-3.66,1.75-3.72,6.27-3.47,8.05C73.57,67.4,73.78,68.48,73.78,68.48"/>
	<path class="st4" d="M72.13,69.26c0,0-2.13-0.94-5.05,0.34c-2.92,1.29-6.76,1.27-8.13-1.81c-1.37-3.08-3.13-4.34-3.13-4.34
		s0.13,0.47,2.58-0.86c2.45-1.33,6.83-1.19,8.97,0.88C69.51,65.53,72.13,69.26,72.13,69.26"/>
	<path class="st5" d="M56.35,80.99c0,0,2.08-5.44,2.09-8.5c0.02-3.06-0.35-4.72-2.64-5.87c-2.3-1.15-3.49-2.36-3.49-2.36
		s-0.71,4.1-1.77,5.45c-1.06,1.35-1.45,4.61-0.02,5.81C51.95,76.73,56.35,80.99,56.35,80.99"/>
	<path class="st6" d="M54.48,61c0.03,0.05,2.68-0.02,5.5-0.89c2.82-0.87,4.26-1.53,4.71-3.33c0.46-1.8,0.54-3.53,0.6-5.41
		c0.05-1.88-0.13-2.56,0.42-2.98c0.55-0.42-0.53,0.89-3.81,1.47c-3.28,0.58-5.05,0.4-5.84,1.91c-0.8,1.51,0.04,3.27-0.32,5.14
		C55.37,58.78,54.48,61,54.48,61"/>
	<path class="st0" d="M30.51,76.25c2.32-0.69,6.26-2.74,9.06-4.18"/>
	<path class="st0" d="M35.19,81.62c0.41-3.42,2.13-8.13,4.62-10.91"/>
	<path class="st0" d="M41.54,81.06c-2.64-3.05-5.38-5.44-2.51-8.8"/>
	<path class="st0" d="M44.42,65.15c1.87-4.49,4.73-9.05,7.72-11.31"/>
	<path class="st0" d="M39.61,58.28c4.96-0.88,12.03-4.2,13.51-4.8"/>
	<path class="st0" d="M50.59,62.36c-1.68-2.63-3.51-3.88,0.5-8"/>
	<path class="st1" d="M24.57,72.44c1.78-0.8,1.91-1.85,6.05,0.37l4.14,2.22c0,0-0.55,0.81-1.16,1.75c-0.61,0.94-2.5,4.74-6.04,4.21
		c-3.54-0.53-5.58-1.26-6.2-1.59c-0.62-0.34-2.94-1.02-3.51-1.24"/>
	<path class="st7" d="M29.52,94.57c0.33-2.52-2.58-5.22-1.39-8.49c1.18-3.27,5.53-6.12,6.73-7.15c1.2-1.03,0.3-1.99,1.05,0.59
		s1.66,2.49,1.73,4.89c0.07,2.4-2.45,6.42-3.79,7C32.52,92,29.52,94.57,29.52,94.57"/>
	<path class="st2" d="M38.52,77.63c0.18,0.67-0.17,1.58,0.66,4.86c0.83,3.28,1.88,5.75,4.52,5.65c2.64-0.1,2.92-1.04,4.94-0.08
		l2.01,0.96c0,0-0.67-2.83-1.83-6.72c-1.16-3.89-5.61-4.65-7.41-4.68C39.63,77.59,38.52,77.63,38.52,77.63"/>
	<path class="st4" d="M38.01,75.88c0,0,1.26-1.95,0.44-5.04c-0.82-3.09-0.21-6.88,3.05-7.75c3.26-0.88,4.78-2.42,4.78-2.42
		s-0.48,0.06,0.45,2.69c0.93,2.63,0.12,6.94-2.26,8.73C42.1,73.87,38.01,75.88,38.01,75.88"/>
	<path class="st5" d="M28.88,58.47c0,0,5.05,2.9,8.07,3.39c3.02,0.49,4.72,0.39,6.21-1.7c1.49-2.09,2.87-3.08,2.87-3.08
		s-3.94-1.34-5.11-2.6c-1.17-1.26-4.33-2.15-5.74-0.92C33.76,54.78,28.88,58.47,28.88,58.47"/>
	<path class="st6" d="M48.91,59.73c-0.05,0.02-0.4,2.65,0.02,5.57c0.42,2.92,0.85,4.44,2.56,5.17c1.71,0.73,3.4,1.08,5.25,1.43
		c1.85,0.35,2.55,0.27,2.88,0.88c0.33,0.61-0.79-0.67-0.86-3.99c-0.06-3.33,0.38-5.05-0.98-6.07c-1.37-1.02-3.24-0.47-5.03-1.12
		C50.97,60.95,48.91,59.73,48.91,59.73"/>
	<path class="st8" d="M50.76,46.89c0.35,2.4,1.83,6.59,2.86,9.56"/>
	<path class="st8" d="M44.78,50.76c3.33,0.89,7.75,3.26,10.14,6.12"/>
	<path class="st8" d="M44.44,57.13c3.4-2.18,6.14-4.56,9.06-1.25"/>
	<path class="st8" d="M59.78,62.23c4.18,2.49,8.29,5.97,10.11,9.24"/>
	<path class="st8" d="M67.26,58.44c0.17,5.04,2.46,12.5,2.84,14.05"/>
	<path class="st8" d="M61.67,68.74c2.84-1.29,4.34-2.93,7.85,1.63"/>
	<path class="st8" d="M55.37,41.55c0.54,1.88,1.56,2.15-1.22,5.93l-2.78,3.78c0,0-0.72-0.66-1.57-1.4
		c-0.85-0.74-4.34-3.15-3.31-6.58c1.03-3.43,2.03-5.35,2.45-5.91c0.42-0.57,1.43-2.77,1.72-3.3"/>
	<path class="st8" d="M32.76,43.32c2.45,0.69,5.54-1.82,8.6-0.18c3.07,1.63,5.28,6.34,6.12,7.67c0.85,1.33,1.93,0.58-0.73,0.95
		c-2.66,0.38-2.7,1.3-5.08,1.03c-2.38-0.27-6.01-3.34-6.4-4.74C34.88,46.65,32.76,43.32,32.76,43.32"/>
	<path class="st8" d="M48.25,54.63c-0.69,0.09-1.54-0.39-4.9-0.03c-3.36,0.36-5.96,1.04-6.23,3.67c-0.27,2.63,0.61,3.04-0.62,4.9
		l-1.23,1.86c0,0,2.9-0.26,6.91-0.86c4.01-0.59,5.4-4.9,5.68-6.67C48.14,55.73,48.25,54.63,48.25,54.63"/>
	<path class="st8" d="M50.07,54.37c0,0,1.76,1.52,4.93,1.15c3.17-0.37,6.84,0.77,7.24,4.12c0.41,3.35,1.72,5.07,1.72,5.07
		s0.01-0.48-2.72,0.07c-2.73,0.55-6.88-0.86-8.32-3.47C51.48,58.7,50.07,54.37,50.07,54.37"/>
	<path class="st8" d="M68.59,47.79c0,0-3.58,4.59-4.49,7.51c-0.91,2.92-1.05,4.61,0.81,6.38c1.86,1.77,2.65,3.28,2.65,3.28
		s1.88-3.71,3.29-4.69c1.41-0.98,2.74-3.99,1.72-5.55C71.55,53.15,68.59,47.79,68.59,47.79"/>
	<path class="st8" d="M64.51,67.45c-0.01-0.05-2.57-0.77-5.52-0.76c-2.95,0.01-4.52,0.21-5.48,1.81c-0.97,1.59-1.55,3.21-2.16,5
		c-0.61,1.79-0.63,2.49-1.27,2.73c-0.65,0.24,0.77-0.69,4.07-0.29c3.3,0.41,4.94,1.1,6.15-0.11c1.2-1.21,0.92-3.14,1.82-4.82
		C63.01,69.31,64.51,67.45,64.51,67.45"/>
	<path class="st9" d="M58.86,63.62c0.21-0.6,0.73-1.73,0.73-1.73l4.07-2.45c0,0,0.75-0.68,1.05-0.38c0.3,0.3,0.83,0.41,0.83,0.41
		s-0.3-1.16,0.98-1c1.28,0.17,1.32,0.36,1.88,0.69c0.57,0.34,1.39,0.53,1.66,0.75c0.26,0.23,0.57,0.87,0.57,0.87l-0.34,1.36
		l-1.58,1.81l-2.56,1.09l-4.93,0.3h-1.88L58.86,63.62z"/>
	<path class="st10" d="M55.42,69.53l-2.45,2.94c0,0-0.72,3.24-0.45,4.14c0.26,0.9,0.83,1.17,0.83,1.17s1.24-0.08,2.07-0.53
		c0.83-0.45,1.88-2.33,1.88-2.33l0.68-2.6L55.42,69.53z"/>
	<path class="st11" d="M61.78,64.34c-0.98-0.34-1.24-0.83-2.56-0.98c-1.32-0.15-2.26-0.9-3.16-0.15c-0.9,0.75-0.9,0.34-0.57,1.47
		c0.34,1.13,0.68,1.77,0.34,2.26c-0.34,0.49-1.02,0.98-1.13,1.24c-0.11,0.26-0.34,3.05-0.34,3.05s0.11,1.05,0.57,1.54
		c0.45,0.49,0.15,1.09,1.02,0.53c0.87-0.57,4.63,1.09,4.63,1.09l2.37-4.71l0.41-2.71L61.78,64.34z"/>
	<path class="st12" d="M66.6,63.21c0.08-0.11,1.43-2.11,1.43-2.11l2.11-0.72l1.66,1.21l2.03,0.94l1.21,1.02l0.49,1.06l-0.45,0.9
		l-3.65-0.45l-1.91-0.45L67.09,64L66.6,63.21z"/>
	<path class="st13" d="M71.42,64.37c0.11-0.08,2.07-0.19,2.07-0.19s2.56,0.94,4.07,1.84c1.51,0.9,2.34,0.57,2.71,1.47
		c0.38,0.9,0.42,1.47,0.31,2.03c-0.12,0.56-0.12,0.72-0.27,1.2c-0.15,0.49-0.71,0.87-0.71,0.87l-2.9-0.9l-1.51-1.51l-3.16-2.11
		l-0.96-1.2L71.42,64.37z"/>
	<path class="st14" d="M80.84,70.44c0,0,1.05,0.45,1.28,1.47c0.23,1.02,0.41,2.79,0.34,3.31c-0.08,0.53,0.45,1.62,0.02,2.41
		c-0.43,0.79-1.07,2.67-1.64,3.28c-0.56,0.6-1.67,0.87-1.66,1.24c0,0.38,0,1.02,0,1.02s-0.11,0.79-0.67,1.21
		c-0.57,0.42-0.9,0.9-0.9,0.9l-0.9,0.45l-1.17,1.02c0,0-0.3,0.64-0.94,1.02c-0.64,0.38-1.13,0.19-2.11,0.79
		c-0.98,0.6-0.83,0.79-1.84,0.72c-1.02-0.08-1.66-0.3-1.66-0.3l-1.51-0.53l-1.09-0.15l-1.63,0.15l-1.8-0.34l-1.47-0.53
		c0,0-0.75-0.94-0.87-1.02c-0.11-0.08-0.68,0.38-0.68,0.38l-1.96-0.15c0,0-1.47,0.04-2.11-1.13c-0.64-1.17-0.47-1.32-0.65-1.69
		c-0.18-0.38-0.86-0.94-0.86-0.94s-0.19-0.9-0.26-1.54c-0.08-0.64-0.11-1.23-0.53-1.61c-0.41-0.38-0.26-1.55-0.26-1.55
		s-0.08-1.09,0.42-1.66c0.49-0.57,1.05-1.24,1.05-1.24s0.44-1.06,0.44-1.58c0-0.52-0.1-1.24,0.39-1.77c0.49-0.53,1.24-1.24,1.92-2
		c0.68-0.75,1.62-1.17,1.62-1.17s1.54-0.23,2.3-0.79c0.75-0.57,0.69-0.54,1.85-0.67c1.16-0.13,1.99-0.54,1.99-0.54s2-1.05,2.34-1.02
		c0.34,0.04,1.73-0.45,2.34-0.53c0.6-0.08,3.01-0.08,4.1,0.6c1.09,0.68,2.03,1.54,2.03,1.54s1.43,0.45,1.77,0.87
		s0.79,1.05,0.87,1.17c0.08,0.11-0.41-0.04,0.19,0.3C79.52,70.17,80.84,70.44,80.84,70.44"/>
	<path class="st15" d="M60.8,69.27c-0.87-1.02-1.88-1.51-2.3-2.6c-0.41-1.09,0.36-1.62,0.36-1.62s1.81-0.18,2.25-1.01
		c0.44-0.83,1.57-1.93,1.57-1.93l2.6-0.21l1.5,1.03l1.18-0.19l2.48,0.38l1.13,0.45c0,0,0.26,0.04,0.83,0.6
		c0.57,0.57,1.03,1.49,1.03,1.49l-1.15,2.22l-2.98,1.19l-3.4,0.87h-2.13L60.8,69.27z"/>
	<path class="st16" d="M75.07,70.32c0.41,0,2.9-0.15,3.8,0.15c0.9,0.3,1.92,1.36,1.92,1.36s0.16,1.43-0.16,2.18
		c-0.33,0.75,0.17,0.6-0.57,1.28c-0.74,0.68-1.72,0.75-1.72,0.75l-2-0.15l-1.28-2.24l-0.57-1.37L75.07,70.32z"/>
	<path class="st17" d="M62.57,72.28c-1.43,0.15-3.88,0.3-3.88,0.3l-2.37,1.81c0,0-0.51,1.05-0.79,2c-0.28,0.95-1.45-0.27-0.31,1.73
		c1.14,2,0.27,1.66,0.8,2.52c0.53,0.87,0.38,0.56,0.53,1.54c0.15,0.98-0.34,1.13,0.53,1.39c0.87,0.26,0.73,0.56,1.31,0.15
		c0.57-0.41,1.18-0.6,1.18-0.6s1.21-0.53,1.17,0.26c-0.04,0.79-0.04,1.62,0.41,2.15c0.45,0.53,0.15,0.75,1.43,0.9
		c1.28,0.15,2.17,0.41,2.17,0.41s1.29,0.6,2.12,0.57c0.83-0.04,0.64-0.08,1.51-0.15c0.87-0.08,1.14-0.11,1.14-0.11
		s0.33,0.34,0.89-0.45c0.56-0.79,1.58-2.11,1.58-2.11l1.45-1.58c0,0,0.32-1.05,2.09-1.54c1.77-0.49,2.15-1.02,3.09-1.05
		c0.94-0.04,1.89,0.3,1.45-0.75c-0.44-1.05-0.36-1.54-0.36-1.54l0.36-1.54l-0.89-1.66l-1.16-1.75c0,0-1.32-1.79-1.62-2.43
		c-0.3-0.64-0.53-2.15-1.88-2.84c-1.35-0.7-1.96-1.41-3.45-0.96c-1.49,0.45-2.73,0.42-2.73,0.42s-1.16-0.23-2.42,0.15
		c-1.27,0.38-2.55,0.87-2.55,0.87l-1.09,1.58c0,0,0.19,1.17,0.19,1.66C62.46,72.09,62.57,72.28,62.57,72.28"/>
	<path class="st18" d="M61.89,74.2c-1.21,0.64-3.69,1.51-3.69,1.51l-1.73,2.94l0.26,1.88c0,0,1.11,0.04,1.65,0.83
		c0.54,0.79,0.99,0.94,0.99,0.94s1.24-0.68,2.15,0c0.9,0.68-0.53,0.94,2.07,2.03c2.6,1.09,2.11,1.21,2.75,1.05
		c0.64-0.15,2.22-1.13,2.22-1.13s1.05-1.51,1.69-1.54c0.64-0.04,1.43-0.19,1.43-0.19l2.18-1.51l3.05-1.2c0,0,0.68-0.5,0.75-1.59
		c0.07-1.09,0.34-1.43,0.34-1.43s-0.34-1.02-0.83-2.41c-0.49-1.39-0.52-2.3-1.33-3.28c-0.81-0.98-0.56-0.98-2.41-1.96
		c-1.85-0.98-1.03-0.94-2.8-0.94c-1.77,0-1.92-0.6-3.65,0.23c-1.73,0.83-2.02-0.87-2.23,1.51c-0.22,2.37,2.16,0.9-0.22,2.37
		c-2.37,1.47-2.22,1.5-2.22,1.5L61.89,74.2z"/>
	<path class="st19" d="M61.68,76.39c-1.58,0.71-2.67,0.71-1.84,2.11c0.83,1.39,1.62,1.69,1.62,1.69l1.28,1.36
		c0,0-1.43,1.24,1.06,1.43c2.49,0.19,2.07,0.38,2.07,0.38l2.53-1.21c0,0,1.54-0.26,2.14-0.71c0.6-0.45,0.79-1.21,2-1.32
		c1.21-0.11,2.6-0.64,2.6-0.64l1.51-2.17c0,0,0.26-0.12-0.9-1.67c-1.17-1.54-0.94-0.68-1.58-1.98c-0.64-1.3,0.34-1.15-0.83-2.05
		c-1.17-0.9-0.45-0.75-1.58-0.68c-1.13,0.08-1.28,0.22-1.92-0.06c-0.64-0.28-0.97-0.69-1.71-0.43c-0.74,0.26-0.93,0.6-0.93,0.6
		l-0.34,1.24l1.04,1.81l-1.31,0.3l-1.69-0.41l-0.49,0.72c0,0-0.45-0.23-1.39,0.83C62.06,76.57,61.68,76.39,61.68,76.39"/>
	<path class="st20" d="M63.36,75.63c-0.3,0.72,0.15,0.92-0.75,1.67c-0.9,0.74-1.96,0.48-1.21,1.08c0.75,0.6,0.38,0.75,1.02,0.53
		c0.64-0.23,0.83-0.55,1.28,0.1c0.45,0.65,0.72,0.54,0.45,1.37c-0.26,0.83-1.07,0.79,0.11,0.9c1.18,0.11,0.09,0.15,1.65,0.15
		c1.56,0,2.42-0.23,2.42-0.23l1.36-1.43l1.58-1.05c0,0,0.15-0.23,0.53-1.24c0.38-1.02,0.04-1.35,0.6-1.09
		c0.56,0.26,1.32,0.91,1.32,0.91s0.34,1.2,0.64,0.25c0.3-0.94,0.15-1.92,0.15-1.92s-0.9-0.19-1.54-1.47
		c-0.64-1.28-0.68-1.43-1.09-1.81c-0.42-0.38-0.49-1.47-1.24-0.56c-0.75,0.9-0.32,1.05-1.12,1.37c-0.8,0.32-0.88-0.36-1.06,0.49
		c-0.19,0.85-0.77,1.26-0.77,1.26s-2.28-0.53-2.32-0.19c-0.04,0.34,0.53-0.3,0.98,1.09c0.45,1.39,0.83,1.21-0.23,1.77
		c-1.05,0.56-1.54,0.75-1.96,0.49c-0.41-0.26-0.6-0.78-0.6-0.78L63.36,75.63z"/>
	<path class="st21" d="M64.45,78.76c0.11,0.45,0.83,1.54,0.83,1.54l1.13,0.57l1.04-0.6v-1.51l-0.48-0.79l-1.02,0.15l-0.67,0.57
		L64.45,78.76z"/>
	<path class="st22" d="M67.24,76.44c1.47,0.74,1.73,0.67,1.73,0.67l1.28-0.39l0.23,0.58l0.58-0.86c0,0,1.38-0.43,0-1.22
		c-1.37-0.79-0.78-1.39-1.61-0.83c-0.82,0.56-1.24,1.05-1.24,1.05l-0.98,0.29V76.44z"/>
	<path class="st23" d="M71.87,73.17c-0.19,0.66-0.81,1-0.81,1l-0.17,0.45l1.13,0.9l1.02-0.26l-0.6-1.09l-0.76-1"/>
	<path class="st24" d="M69.51,84.78l-1.25,1.28l-1.32,0.41l-0.83-0.45c0,0-1.05,0.08-0.72-0.08c0.34-0.15,0.64-0.08,1.69-0.32
		c1.05-0.25,1.47-0.62,1.47-0.62L69.51,84.78z"/>
	<path class="st9" d="M27.26,49.4c0.21-0.6,0.73-1.73,0.73-1.73l4.07-2.45c0,0,0.75-0.68,1.05-0.38c0.3,0.3,0.83,0.41,0.83,0.41
		s-0.3-1.16,0.98-1c1.28,0.17,1.32,0.36,1.88,0.69c0.57,0.34,1.39,0.53,1.66,0.75c0.26,0.23,0.57,0.87,0.57,0.87l-0.34,1.36
		l-1.58,1.81l-2.56,1.09l-4.93,0.3h-1.88L27.26,49.4z"/>
	<path class="st10" d="M23.81,55.31l-2.45,2.94c0,0-0.72,3.24-0.45,4.14c0.26,0.9,0.83,1.17,0.83,1.17s1.24-0.08,2.07-0.53
		c0.83-0.45,1.88-2.33,1.88-2.33l0.68-2.6L23.81,55.31z"/>
	<path class="st11" d="M30.18,50.12c-0.98-0.34-1.24-0.83-2.56-0.98c-1.32-0.15-2.26-0.9-3.16-0.15c-0.9,0.75-0.9,0.34-0.57,1.47
		c0.34,1.13,0.68,1.77,0.34,2.26c-0.34,0.49-1.02,0.98-1.13,1.24c-0.11,0.26-0.34,3.05-0.34,3.05s0.11,1.05,0.57,1.54
		c0.45,0.49,0.15,1.09,1.02,0.53c0.87-0.57,4.63,1.09,4.63,1.09l2.37-4.71l0.41-2.71L30.18,50.12z"/>
	<path class="st12" d="M35,48.99c0.08-0.11,1.43-2.11,1.43-2.11l2.11-0.72l1.66,1.21l2.03,0.94l1.21,1.02l0.49,1.06l-0.45,0.9
		l-3.65-0.45l-1.91-0.45l-2.42-0.6L35,48.99z"/>
	<path class="st13" d="M39.82,50.16c0.11-0.08,2.07-0.19,2.07-0.19s2.56,0.94,4.07,1.84c1.51,0.9,2.34,0.57,2.71,1.47
		c0.38,0.9,0.42,1.47,0.31,2.03c-0.12,0.56-0.12,0.72-0.27,1.2c-0.15,0.49-0.71,0.87-0.71,0.87l-2.9-0.9l-1.51-1.51l-3.16-2.11
		l-0.96-1.2L39.82,50.16z"/>
	<path class="st14" d="M49.23,56.22c0,0,1.05,0.45,1.28,1.47c0.23,1.02,0.41,2.79,0.34,3.31c-0.08,0.53,0.45,1.62,0.02,2.41
		c-0.43,0.79-1.07,2.67-1.64,3.28c-0.56,0.6-1.67,0.87-1.66,1.24c0,0.38,0,1.02,0,1.02s-0.11,0.79-0.67,1.21
		c-0.57,0.42-0.9,0.9-0.9,0.9l-0.9,0.45l-1.17,1.02c0,0-0.3,0.64-0.94,1.02c-0.64,0.38-1.13,0.19-2.11,0.79
		c-0.98,0.6-0.83,0.79-1.84,0.72c-1.02-0.08-1.66-0.3-1.66-0.3l-1.51-0.53l-1.09-0.15l-1.63,0.15l-1.8-0.34l-1.47-0.53
		c0,0-0.75-0.94-0.87-1.02c-0.11-0.08-0.68,0.38-0.68,0.38l-1.96-0.15c0,0-1.47,0.04-2.11-1.13c-0.64-1.17-0.47-1.32-0.65-1.69
		c-0.18-0.38-0.86-0.94-0.86-0.94s-0.19-0.9-0.26-1.54c-0.08-0.64-0.11-1.23-0.53-1.61c-0.41-0.38-0.26-1.55-0.26-1.55
		s-0.08-1.09,0.42-1.66c0.49-0.57,1.05-1.24,1.05-1.24s0.44-1.06,0.44-1.58c0-0.52-0.1-1.24,0.39-1.77c0.49-0.53,1.24-1.24,1.92-2
		c0.68-0.75,1.62-1.17,1.62-1.17s1.54-0.23,2.3-0.79c0.75-0.57,0.69-0.54,1.85-0.67c1.16-0.13,1.99-0.54,1.99-0.54s2-1.05,2.34-1.02
		c0.34,0.04,1.73-0.45,2.34-0.53c0.6-0.08,3.01-0.08,4.1,0.6c1.09,0.68,2.03,1.54,2.03,1.54s1.43,0.45,1.77,0.87
		c0.34,0.41,0.79,1.05,0.87,1.17c0.08,0.11-0.41-0.04,0.19,0.3C47.91,55.96,49.23,56.22,49.23,56.22"/>
	<path class="st15" d="M29.2,55.05c-0.87-1.02-1.88-1.51-2.3-2.6c-0.41-1.09,0.36-1.62,0.36-1.62s1.81-0.18,2.25-1.01
		c0.44-0.83,1.57-1.93,1.57-1.93l2.6-0.2l1.5,1.03l1.18-0.19l2.48,0.38l1.13,0.45c0,0,0.26,0.04,0.83,0.6
		c0.57,0.57,1.03,1.49,1.03,1.49l-1.15,2.22l-2.98,1.19l-3.4,0.87h-2.13L29.2,55.05z"/>
	<path class="st16" d="M43.47,56.11c0.41,0,2.9-0.15,3.8,0.15c0.9,0.3,1.92,1.36,1.92,1.36s0.16,1.43-0.16,2.18
		c-0.33,0.75,0.17,0.6-0.57,1.28c-0.74,0.68-1.72,0.75-1.72,0.75l-1.99-0.15l-1.28-2.24l-0.57-1.37L43.47,56.11z"/>
	<path class="st17" d="M30.97,58.06c-1.43,0.15-3.88,0.3-3.88,0.3l-2.37,1.81c0,0-0.51,1.05-0.79,2c-0.28,0.95-1.45-0.27-0.31,1.73
		c1.14,2,0.27,1.66,0.8,2.52c0.53,0.87,0.38,0.57,0.53,1.54c0.15,0.98-0.34,1.13,0.53,1.39c0.87,0.26,0.73,0.56,1.31,0.15
		c0.57-0.42,1.18-0.6,1.18-0.6s1.21-0.53,1.17,0.26c-0.04,0.79-0.04,1.62,0.41,2.15c0.45,0.53,0.15,0.75,1.43,0.9
		c1.28,0.15,2.17,0.41,2.17,0.41s1.29,0.6,2.12,0.57c0.83-0.04,0.64-0.08,1.51-0.15c0.87-0.08,1.14-0.11,1.14-0.11
		s0.33,0.34,0.89-0.45c0.56-0.79,1.58-2.11,1.58-2.11l1.45-1.58c0,0,0.32-1.05,2.09-1.54c1.77-0.49,2.15-1.02,3.09-1.05
		c0.94-0.04,1.89,0.3,1.45-0.75c-0.44-1.05-0.36-1.54-0.36-1.54l0.36-1.54l-0.89-1.66l-1.16-1.75c0,0-1.32-1.79-1.62-2.43
		c-0.3-0.64-0.53-2.15-1.88-2.84c-1.35-0.7-1.96-1.41-3.45-0.96c-1.49,0.45-2.73,0.42-2.73,0.42s-1.16-0.23-2.42,0.15
		c-1.27,0.38-2.55,0.87-2.55,0.87l-1.09,1.58c0,0,0.19,1.17,0.19,1.66C30.86,57.88,30.97,58.06,30.97,58.06"/>
	<path class="st18" d="M30.29,59.98c-1.21,0.64-3.69,1.51-3.69,1.51l-1.73,2.94l0.26,1.88c0,0,1.11,0.04,1.65,0.83
		c0.54,0.79,0.99,0.94,0.99,0.94s1.24-0.68,2.15,0c0.9,0.68-0.53,0.94,2.07,2.03c2.6,1.09,2.11,1.21,2.75,1.05
		c0.64-0.15,2.22-1.13,2.22-1.13s1.05-1.51,1.69-1.54c0.64-0.04,1.43-0.19,1.43-0.19l2.18-1.51l3.05-1.2c0,0,0.68-0.5,0.75-1.59
		c0.07-1.09,0.34-1.43,0.34-1.43s-0.34-1.02-0.83-2.41c-0.49-1.39-0.52-2.3-1.33-3.28c-0.81-0.98-0.56-0.98-2.41-1.96
		C39.98,53.96,40.8,54,39.03,54c-1.77,0-1.92-0.6-3.65,0.23c-1.73,0.83-2.02-0.87-2.23,1.51c-0.22,2.37,2.16,0.9-0.22,2.37
		c-2.37,1.47-2.22,1.5-2.22,1.5L30.29,59.98z"/>
	<path class="st19" d="M30.08,62.17c-1.58,0.71-2.67,0.71-1.84,2.11c0.83,1.39,1.62,1.69,1.62,1.69l1.28,1.36
		c0,0-1.43,1.24,1.06,1.43c2.49,0.19,2.07,0.38,2.07,0.38l2.53-1.21c0,0,1.54-0.26,2.14-0.71c0.6-0.45,0.79-1.21,2-1.32
		c1.21-0.11,2.6-0.64,2.6-0.64l1.51-2.17c0,0,0.26-0.12-0.9-1.67c-1.17-1.54-0.94-0.68-1.58-1.98c-0.64-1.3,0.34-1.15-0.83-2.05
		c-1.17-0.9-0.45-0.75-1.58-0.68c-1.13,0.08-1.28,0.22-1.92-0.06c-0.64-0.28-0.97-0.69-1.71-0.43c-0.74,0.26-0.93,0.6-0.93,0.6
		l-0.34,1.24l1.04,1.81l-1.3,0.3l-1.69-0.41l-0.49,0.72c0,0-0.45-0.23-1.39,0.83C30.45,62.36,30.08,62.17,30.08,62.17"/>
	<path class="st20" d="M31.76,61.42c-0.3,0.72,0.15,0.92-0.75,1.67c-0.9,0.74-1.96,0.48-1.21,1.08c0.75,0.6,0.38,0.75,1.02,0.53
		c0.64-0.23,0.83-0.55,1.28,0.1c0.45,0.65,0.72,0.54,0.45,1.37c-0.26,0.83-1.07,0.79,0.11,0.9c1.18,0.11,0.09,0.15,1.65,0.15
		c1.56,0,2.42-0.23,2.42-0.23l1.36-1.43l1.58-1.05c0,0,0.15-0.23,0.53-1.24c0.38-1.02,0.04-1.35,0.6-1.09
		c0.56,0.26,1.32,0.91,1.32,0.91s0.34,1.2,0.64,0.25c0.3-0.94,0.15-1.92,0.15-1.92s-0.9-0.19-1.54-1.47
		c-0.64-1.28-0.68-1.43-1.09-1.81c-0.42-0.38-0.49-1.47-1.24-0.57c-0.75,0.9-0.32,1.05-1.12,1.37c-0.8,0.32-0.88-0.36-1.06,0.49
		c-0.19,0.85-0.77,1.26-0.77,1.26s-2.28-0.53-2.32-0.19c-0.04,0.34,0.53-0.3,0.98,1.09c0.45,1.39,0.83,1.21-0.23,1.77
		c-1.05,0.56-1.54,0.75-1.96,0.49c-0.41-0.26-0.6-0.78-0.6-0.78L31.76,61.42z"/>
	<path class="st21" d="M32.85,64.54c0.11,0.45,0.83,1.54,0.83,1.54l1.13,0.57l1.04-0.6v-1.51l-0.48-0.79l-1.02,0.15l-0.67,0.57
		L32.85,64.54z"/>
	<path class="st22" d="M35.64,62.22c1.47,0.74,1.73,0.67,1.73,0.67l1.28-0.39l0.23,0.58l0.58-0.86c0,0,1.38-0.43,0-1.22
		c-1.37-0.79-0.78-1.39-1.61-0.83c-0.82,0.56-1.24,1.05-1.24,1.05l-0.98,0.29V62.22z"/>
	<path class="st23" d="M40.27,58.95c-0.19,0.66-0.81,1-0.81,1l-0.17,0.45l1.13,0.9l1.02-0.26l-0.6-1.09l-0.76-1"/>
	<path class="st24" d="M37.91,70.57l-1.25,1.28l-1.32,0.41l-0.83-0.45c0,0-1.05,0.08-0.72-0.08c0.34-0.15,0.64-0.08,1.69-0.32
		c1.05-0.25,1.47-0.62,1.47-0.62L37.91,70.57z"/>
	<path class="st9" d="M51.06,28.27c0.21-0.6,0.73-1.73,0.73-1.73l4.07-2.45c0,0,0.75-0.68,1.05-0.38c0.3,0.3,0.83,0.42,0.83,0.42
		s-0.3-1.16,0.98-1c1.28,0.17,1.32,0.36,1.88,0.69c0.57,0.34,1.39,0.53,1.66,0.75c0.26,0.23,0.57,0.87,0.57,0.87l-0.34,1.36
		l-1.58,1.81l-2.56,1.09l-4.93,0.3h-1.88L51.06,28.27z"/>
	<path class="st10" d="M47.61,34.19l-2.45,2.94c0,0-0.72,3.24-0.45,4.14c0.26,0.9,0.83,1.17,0.83,1.17s1.24-0.08,2.07-0.53
		c0.83-0.45,1.88-2.34,1.88-2.34l0.68-2.6L47.61,34.19z"/>
	<path class="st11" d="M53.98,28.99c-0.98-0.34-1.24-0.83-2.56-0.98c-1.32-0.15-2.26-0.9-3.16-0.15c-0.9,0.75-0.9,0.34-0.56,1.47
		c0.34,1.13,0.68,1.77,0.34,2.26c-0.34,0.49-1.02,0.98-1.13,1.24c-0.11,0.26-0.34,3.05-0.34,3.05s0.11,1.05,0.57,1.54
		c0.45,0.49,0.15,1.09,1.02,0.53c0.87-0.57,4.63,1.09,4.63,1.09l2.37-4.71l0.41-2.71L53.98,28.99z"/>
	<path class="st12" d="M58.8,27.86c0.08-0.11,1.43-2.11,1.43-2.11l2.11-0.72L64,26.24l2.03,0.94l1.21,1.02l0.49,1.05l-0.45,0.9
		l-3.65-0.45l-1.91-0.45l-2.42-0.6L58.8,27.86z"/>
	<path class="st13" d="M63.62,29.03c0.11-0.08,2.07-0.19,2.07-0.19s2.56,0.94,4.07,1.84s2.34,0.57,2.71,1.47
		c0.38,0.9,0.42,1.47,0.31,2.03c-0.12,0.56-0.12,0.72-0.27,1.2c-0.15,0.49-0.71,0.87-0.71,0.87l-2.9-0.9l-1.51-1.51l-3.16-2.11
		l-0.96-1.2L63.62,29.03z"/>
	<path class="st14" d="M73.03,35.09c0,0,1.05,0.45,1.28,1.47c0.23,1.02,0.41,2.79,0.34,3.31c-0.08,0.53,0.45,1.62,0.02,2.41
		c-0.43,0.79-1.07,2.67-1.64,3.28c-0.57,0.6-1.67,0.87-1.66,1.24c0,0.38,0,1.02,0,1.02s-0.11,0.79-0.67,1.21
		c-0.57,0.41-0.9,0.9-0.9,0.9l-0.9,0.45l-1.17,1.02c0,0-0.3,0.64-0.94,1.02c-0.64,0.38-1.13,0.19-2.11,0.79
		c-0.98,0.6-0.83,0.79-1.84,0.72c-1.02-0.08-1.66-0.3-1.66-0.3l-1.51-0.53l-1.09-0.15l-1.63,0.15l-1.8-0.34l-1.47-0.53
		c0,0-0.75-0.94-0.87-1.02c-0.11-0.08-0.68,0.38-0.68,0.38l-1.96-0.15c0,0-1.47,0.04-2.11-1.13c-0.64-1.17-0.47-1.32-0.65-1.7
		c-0.18-0.38-0.85-0.94-0.85-0.94s-0.19-0.9-0.26-1.54c-0.08-0.64-0.11-1.23-0.53-1.61c-0.41-0.38-0.26-1.55-0.26-1.55
		s-0.08-1.09,0.42-1.66c0.49-0.57,1.05-1.24,1.05-1.24s0.44-1.06,0.44-1.58c0-0.52-0.1-1.24,0.39-1.77c0.49-0.53,1.24-1.24,1.92-2
		c0.68-0.75,1.62-1.17,1.62-1.17s1.54-0.23,2.3-0.79c0.75-0.56,0.69-0.54,1.85-0.67c1.16-0.13,1.99-0.54,1.99-0.54s2-1.05,2.34-1.02
		c0.34,0.04,1.73-0.45,2.34-0.53c0.6-0.08,3.01-0.08,4.1,0.6c1.09,0.68,2.03,1.54,2.03,1.54s1.43,0.45,1.77,0.87
		c0.34,0.41,0.79,1.05,0.87,1.17c0.08,0.11-0.41-0.04,0.19,0.3C71.72,34.83,73.03,35.09,73.03,35.09"/>
	<path class="st15" d="M53,33.92c-0.87-1.02-1.88-1.51-2.3-2.6c-0.41-1.09,0.36-1.62,0.36-1.62s1.81-0.18,2.25-1.01
		c0.44-0.83,1.57-1.93,1.57-1.93l2.6-0.2l1.5,1.03l1.18-0.19l2.48,0.38l1.13,0.45c0,0,0.26,0.04,0.83,0.6
		c0.57,0.57,1.03,1.49,1.03,1.49l-1.15,2.22l-2.97,1.19l-3.4,0.87h-2.13L53,33.92z"/>
	<path class="st16" d="M67.27,34.98c0.42,0,2.9-0.15,3.8,0.15c0.9,0.3,1.92,1.36,1.92,1.36s0.16,1.43-0.16,2.18s0.17,0.6-0.57,1.28
		c-0.74,0.68-1.72,0.75-1.72,0.75l-2-0.15l-1.28-2.24l-0.57-1.37L67.27,34.98z"/>
	<path class="st17" d="M54.77,36.93c-1.43,0.15-3.88,0.3-3.88,0.3l-2.37,1.81c0,0-0.51,1.05-0.79,2c-0.28,0.95-1.45-0.27-0.31,1.73
		c1.14,2,0.27,1.66,0.8,2.52c0.53,0.87,0.38,0.57,0.53,1.54c0.15,0.98-0.34,1.13,0.53,1.39c0.87,0.26,0.73,0.56,1.31,0.15
		c0.57-0.42,1.18-0.6,1.18-0.6s1.21-0.53,1.17,0.26c-0.04,0.79-0.04,1.62,0.41,2.15c0.45,0.53,0.15,0.75,1.43,0.9
		c1.28,0.15,2.17,0.42,2.17,0.42s1.29,0.6,2.12,0.57c0.83-0.04,0.64-0.08,1.51-0.15c0.87-0.08,1.14-0.11,1.14-0.11
		s0.33,0.34,0.89-0.45c0.57-0.79,1.58-2.11,1.58-2.11l1.45-1.58c0,0,0.32-1.05,2.09-1.54c1.77-0.49,2.15-1.02,3.09-1.05
		c0.94-0.04,1.89,0.3,1.45-0.75c-0.44-1.06-0.36-1.54-0.36-1.54l0.36-1.54l-0.89-1.66l-1.16-1.75c0,0-1.32-1.79-1.62-2.43
		c-0.3-0.64-0.53-2.15-1.88-2.84c-1.35-0.7-1.96-1.41-3.45-0.96C61.77,32.04,60.53,32,60.53,32s-1.16-0.23-2.42,0.15
		c-1.27,0.38-2.55,0.87-2.55,0.87l-1.09,1.58c0,0,0.19,1.17,0.19,1.66C54.66,36.75,54.77,36.93,54.77,36.93"/>
	<path class="st18" d="M54.09,38.86c-1.21,0.64-3.69,1.51-3.69,1.51l-1.73,2.94l0.26,1.88c0,0,1.11,0.04,1.65,0.83
		c0.54,0.79,0.99,0.94,0.99,0.94s1.24-0.68,2.15,0c0.9,0.68-0.53,0.94,2.07,2.03c2.6,1.09,2.11,1.21,2.75,1.05
		c0.64-0.15,2.22-1.13,2.22-1.13s1.05-1.51,1.69-1.54c0.64-0.04,1.43-0.19,1.43-0.19l2.18-1.51l3.05-1.2c0,0,0.68-0.5,0.75-1.59
		c0.07-1.09,0.34-1.43,0.34-1.43s-0.34-1.02-0.83-2.41c-0.49-1.39-0.52-2.3-1.33-3.28c-0.81-0.98-0.56-0.98-2.41-1.96
		c-1.85-0.98-1.03-0.94-2.8-0.94c-1.77,0-1.92-0.6-3.65,0.23c-1.73,0.83-2.02-0.87-2.23,1.51c-0.22,2.37,2.16,0.9-0.22,2.37
		c-2.37,1.47-2.22,1.5-2.22,1.5L54.09,38.86z"/>
	<path class="st19" d="M53.88,41.04c-1.58,0.71-2.67,0.71-1.84,2.11c0.83,1.39,1.62,1.69,1.62,1.69l1.28,1.36
		c0,0-1.43,1.24,1.06,1.43c2.49,0.19,2.07,0.38,2.07,0.38l2.53-1.21c0,0,1.54-0.26,2.14-0.71c0.6-0.45,0.79-1.21,2-1.32
		c1.21-0.11,2.6-0.64,2.6-0.64l1.51-2.17c0,0,0.27-0.12-0.9-1.67c-1.17-1.54-0.94-0.68-1.58-1.98c-0.64-1.3,0.34-1.15-0.83-2.05
		c-1.17-0.9-0.45-0.75-1.58-0.68c-1.13,0.08-1.28,0.22-1.92-0.06c-0.64-0.28-0.97-0.69-1.71-0.43c-0.74,0.26-0.93,0.6-0.93,0.6
		l-0.34,1.24l1.04,1.81l-1.3,0.3l-1.69-0.41l-0.49,0.72c0,0-0.45-0.23-1.39,0.83C54.25,41.23,53.88,41.04,53.88,41.04"/>
	<path class="st20" d="M55.56,40.29c-0.3,0.72,0.15,0.92-0.75,1.67c-0.9,0.74-1.96,0.48-1.21,1.08c0.75,0.6,0.38,0.75,1.02,0.53
		c0.64-0.23,0.83-0.55,1.28,0.1c0.45,0.65,0.72,0.54,0.45,1.37c-0.26,0.83-1.07,0.79,0.1,0.9c1.18,0.11,0.09,0.15,1.65,0.15
		c1.56,0,2.42-0.23,2.42-0.23l1.36-1.43l1.58-1.05c0,0,0.15-0.23,0.53-1.24c0.38-1.02,0.04-1.35,0.6-1.09
		c0.56,0.26,1.32,0.91,1.32,0.91s0.34,1.2,0.64,0.25c0.3-0.94,0.15-1.92,0.15-1.92s-0.9-0.19-1.54-1.47
		c-0.64-1.28-0.68-1.43-1.09-1.81c-0.42-0.38-0.49-1.47-1.24-0.57c-0.75,0.9-0.32,1.05-1.12,1.37c-0.8,0.32-0.88-0.36-1.06,0.49
		c-0.19,0.85-0.77,1.26-0.77,1.26s-2.28-0.53-2.32-0.19c-0.04,0.34,0.53-0.3,0.98,1.09c0.45,1.39,0.83,1.21-0.23,1.77
		c-1.05,0.56-1.54,0.75-1.96,0.49c-0.42-0.26-0.6-0.78-0.6-0.78L55.56,40.29z"/>
	<path class="st21" d="M56.65,43.41c0.11,0.45,0.83,1.54,0.83,1.54l1.13,0.57l1.04-0.6v-1.51l-0.48-0.79l-1.02,0.15l-0.67,0.57
		L56.65,43.41z"/>
	<path class="st22" d="M59.44,41.09c1.47,0.74,1.73,0.67,1.73,0.67l1.28-0.39l0.23,0.58l0.58-0.86c0,0,1.38-0.43,0-1.22
		c-1.37-0.79-0.78-1.39-1.61-0.83c-0.82,0.56-1.24,1.05-1.24,1.05l-0.98,0.29V41.09z"/>
	<path class="st23" d="M64.07,37.82c-0.19,0.66-0.81,1-0.81,1l-0.17,0.45l1.13,0.9l1.02-0.26l-0.6-1.09l-0.76-1"/>
	<path class="st24" d="M61.71,49.44l-1.25,1.28l-1.32,0.41l-0.83-0.45c0,0-1.05,0.08-0.72-0.08c0.34-0.15,0.64-0.08,1.69-0.32
		c1.05-0.25,1.47-0.62,1.47-0.62L61.71,49.44z"/>
</g>
</svg>
