<?xml version="1.0" encoding="utf-8"?>
<!-- Generator: Adobe Illustrator 23.1.1, SVG Export Plug-In . SVG Version: 6.00 Build 0)  -->
<svg version="1.1" id="Layer_1" xmlns="http://www.w3.org/2000/svg" xmlns:xlink="http://www.w3.org/1999/xlink" x="0px" y="0px"
	 viewBox="0 0 108 108" style="enable-background:new 0 0 108 108;" xml:space="preserve">
<style type="text/css">
	.st0{fill:none;stroke:#718638;stroke-width:1.0127;stroke-miterlimit:10;}
	.st1{fill:#A6C339;}
	.st2{fill:#85B541;}
	.st3{fill:#91BC3E;}
	.st4{fill:#B0CC37;}
	.st5{fill:#93B93F;}
	.st6{fill:#A6BD3A;}
	.st7{fill:#A5C939;}
	.st8{fill:#72AA42;}
	.st9{fill:#D0B2C9;}
	.st10{fill:#F1D5E5;}
	.st11{fill:#E1B1C3;}
	.st12{fill:#DA90A8;}
	.st13{fill:#E4B9CC;}
	.st14{fill:#D19EB9;}
	.st15{fill:#ECD4E4;}
	.st16{fill:#F7ADB5;}
	.st17{fill:#EEE1EF;}
	.st18{fill:#D3B6D7;}
	.st19{clip-path:url(#SVGID_2_);fill:#F06AA7;}
	.st20{clip-path:url(#SVGID_4_);fill:#F06AA7;}
	.st21{clip-path:url(#SVGID_6_);fill:#F06AA7;}
	.st22{clip-path:url(#SVGID_8_);fill:#F06AA7;}
	.st23{clip-path:url(#SVGID_10_);fill:#F06AA7;}
	.st24{fill:none;stroke:#CE2127;stroke-width:0.2907;stroke-miterlimit:10;}
	.st25{fill:#F9DB02;}
	.st26{fill:#FBDDEA;}
	.st27{clip-path:url(#SVGID_12_);fill:#F06AA7;}
	.st28{clip-path:url(#SVGID_14_);fill:#F06AA7;}
	.st29{clip-path:url(#SVGID_16_);fill:#F06AA7;}
	.st30{clip-path:url(#SVGID_18_);fill:#F06AA7;}
	.st31{clip-path:url(#SVGID_20_);fill:#F06AA7;}
	.st32{clip-path:url(#SVGID_22_);fill:#F06AA7;}
	.st33{fill:none;stroke:#CE2127;stroke-width:0.2603;stroke-miterlimit:10;}
	.st34{clip-path:url(#SVGID_24_);fill:#F06AA7;}
	.st35{clip-path:url(#SVGID_26_);fill:#F06AA7;}
	.st36{clip-path:url(#SVGID_28_);fill:#F06AA7;}
	.st37{clip-path:url(#SVGID_30_);fill:#F06AA7;}
	.st38{clip-path:url(#SVGID_32_);fill:#F06AA7;}
	.st39{clip-path:url(#SVGID_34_);fill:#F06AA7;}
	.st40{fill:none;stroke:#CE2127;stroke-width:0.2261;stroke-miterlimit:10;}
	.st41{clip-path:url(#SVGID_36_);fill:#F06AA7;}
	.st42{clip-path:url(#SVGID_38_);fill:#F06AA7;}
	.st43{clip-path:url(#SVGID_40_);fill:#F06AA7;}
	.st44{clip-path:url(#SVGID_42_);fill:#F06AA7;}
	.st45{clip-path:url(#SVGID_44_);fill:#F06AA7;}
	.st46{clip-path:url(#SVGID_46_);fill:#F06AA7;}
	.st47{clip-path:url(#SVGID_48_);fill:#F06AA7;}
	.st48{clip-path:url(#SVGID_50_);fill:#F06AA7;}
	.st49{clip-path:url(#SVGID_52_);fill:#F06AA7;}
	.st50{clip-path:url(#SVGID_54_);fill:#F06AA7;}
	.st51{clip-path:url(#SVGID_56_);fill:#F06AA7;}
	.st52{clip-path:url(#SVGID_58_);fill:#F06AA7;}
	.st53{clip-path:url(#SVGID_60_);fill:#F06AA7;}
	.st54{clip-path:url(#SVGID_62_);fill:#F06AA7;}
	.st55{clip-path:url(#SVGID_64_);fill:#F06AA7;}
	.st56{clip-path:url(#SVGID_66_);fill:#F06AA7;}
	.st57{clip-path:url(#SVGID_68_);fill:#F06AA7;}
	.st58{clip-path:url(#SVGID_70_);fill:#F06AA7;}
	.st59{fill:none;stroke:#CE2127;stroke-width:0.2461;stroke-miterlimit:10;}
	.st60{clip-path:url(#SVGID_72_);fill:#F06AA7;}
</style>
<g>
	<path class="st0" d="M34.94,37.88c0.35,2.4,1.83,6.59,2.86,9.56"/>
	<path class="st0" d="M28.96,41.75c3.33,0.89,7.75,3.26,10.14,6.12"/>
	<path class="st0" d="M28.62,48.13c3.4-2.18,6.14-4.56,9.06-1.25"/>
	<path class="st0" d="M43.96,53.22c4.18,2.49,8.29,5.97,10.11,9.24"/>
	<path class="st0" d="M51.44,49.44c0.17,5.04,2.46,12.5,2.84,14.05"/>
	<path class="st0" d="M45.85,59.73c2.84-1.29,4.34-2.93,7.85,1.63"/>
	<path class="st1" d="M39.55,32.54c0.54,1.88,1.56,2.15-1.22,5.93l-2.78,3.78c0,0-0.72-0.66-1.57-1.4
		c-0.85-0.74-4.34-3.15-3.31-6.58c1.03-3.43,2.03-5.35,2.45-5.91c0.42-0.57,1.43-2.77,1.72-3.3"/>
	<path class="st2" d="M16.94,34.32c2.45,0.69,5.54-1.82,8.6-0.18c3.07,1.63,5.28,6.34,6.12,7.67c0.85,1.33,1.93,0.58-0.73,0.95
		c-2.66,0.38-2.7,1.3-5.08,1.03c-2.38-0.27-6.01-3.34-6.4-4.74C19.06,37.64,16.94,34.32,16.94,34.32"/>
	<path class="st3" d="M32.44,45.62c-0.69,0.09-1.54-0.39-4.9-0.03c-3.36,0.36-5.96,1.04-6.23,3.67c-0.27,2.63,0.61,3.04-0.62,4.9
		l-1.23,1.86c0,0,2.9-0.26,6.91-0.86c4.01-0.59,5.4-4.9,5.68-6.67C32.32,46.72,32.44,45.62,32.44,45.62"/>
	<path class="st4" d="M34.25,45.37c0,0,1.76,1.52,4.93,1.15c3.17-0.37,6.84,0.77,7.24,4.12c0.41,3.35,1.72,5.07,1.72,5.07
		s0.01-0.48-2.72,0.07c-2.73,0.55-6.88-0.86-8.32-3.47C35.66,49.7,34.25,45.37,34.25,45.37"/>
	<path class="st5" d="M52.77,38.78c0,0-3.58,4.59-4.49,7.51c-0.91,2.92-1.05,4.61,0.81,6.38c1.86,1.77,2.65,3.28,2.65,3.28
		s1.88-3.71,3.29-4.69c1.41-0.98,2.74-3.99,1.72-5.55C55.73,44.14,52.77,38.78,52.77,38.78"/>
	<path class="st6" d="M48.69,58.44c-0.01-0.05-2.57-0.77-5.52-0.76c-2.95,0-4.52,0.21-5.49,1.8c-0.97,1.59-1.55,3.21-2.16,5
		c-0.61,1.79-0.63,2.49-1.27,2.73c-0.65,0.24,0.77-0.69,4.07-0.29c3.3,0.41,4.94,1.09,6.15-0.11c1.21-1.21,0.92-3.14,1.82-4.82
		C47.19,60.3,48.69,58.44,48.69,58.44"/>
	<path class="st0" d="M76.98,34.42c-2.24,0.93-5.94,3.38-8.57,5.12"/>
	<path class="st0" d="M71.76,29.58c-0.04,3.44-1.26,8.31-3.44,11.33"/>
	<path class="st0" d="M65.5,30.81c2.95,2.76,5.92,4.84,3.43,8.48"/>
	<path class="st0" d="M64.32,46.93c-1.39,4.66-3.75,9.5-6.48,12.07"/>
	<path class="st0" d="M69.83,53.26c-4.84,1.4-11.52,5.45-12.93,6.2"/>
	<path class="st0" d="M58.48,50.36c1.95,2.44,3.91,3.49,0.35,8.01"/>
	<path class="st2" d="M83.29,37.58c-1.69,0.98-1.7,2.04-6.05,0.28l-4.35-1.77c0,0,0.46-0.86,0.97-1.87c0.51-1,1.99-4.98,5.56-4.82
		c3.57,0.15,5.68,0.66,6.34,0.93c0.65,0.27,3.03,0.7,3.62,0.86"/>
	<path class="st7" d="M76.02,16.1c-0.07,2.54,3.12,4.92,2.28,8.3c-0.83,3.37-4.85,6.67-5.94,7.82c-1.08,1.15-0.09,2.01-1.1-0.48
		c-1.02-2.49-1.92-2.3-2.24-4.68c-0.32-2.38,1.76-6.64,3.03-7.37C73.32,18.97,76.02,16.1,76.02,16.1"/>
	<path class="st3" d="M68.86,33.9c-0.25-0.65,0-1.59-1.17-4.76c-1.17-3.17-2.47-5.52-5.09-5.14c-2.62,0.38-2.8,1.34-4.9,0.6
		l-2.11-0.74c0,0,0.97,2.75,2.53,6.49c1.56,3.74,6.07,4.03,7.86,3.87C67.77,34.05,68.86,33.9,68.86,33.9"/>
	<path class="st4" d="M69.56,35.59c0,0-1.05,2.08,0.09,5.06c1.14,2.98,0.93,6.82-2.22,8.03c-3.15,1.22-4.5,2.91-4.5,2.91
		s0.47-0.11-0.73-2.62c-1.21-2.51-0.85-6.88,1.33-8.92C65.71,38.02,69.56,35.59,69.56,35.59"/>
	<path class="st5" d="M80.48,51.94c0,0-5.32-2.35-8.38-2.52c-3.06-0.17-4.73,0.11-5.99,2.35c-1.26,2.24-2.53,3.37-2.53,3.37
		s4.05,0.91,5.35,2.04c1.3,1.13,4.54,1.67,5.81,0.31C76.01,56.12,80.48,51.94,80.48,51.94"/>
	<path class="st6" d="M60.42,52.8c0.05-0.02,0.11-2.68-0.61-5.54c-0.73-2.86-1.32-4.33-3.09-4.87c-1.78-0.55-3.49-0.72-5.37-0.87
		c-1.88-0.15-2.56,0-2.95-0.57c-0.39-0.57,0.86,0.58,1.28,3.88c0.42,3.3,0.15,5.06,1.62,5.93c1.47,0.87,3.27,0.12,5.12,0.58
		C58.25,51.8,60.42,52.8,60.42,52.8"/>
	<path class="st0" d="M75.05,76.27c-1.04-2.19-3.68-5.76-5.54-8.3"/>
	<path class="st0" d="M79.63,70.82c-3.44,0.13-8.36-0.84-11.49-2.87"/>
	<path class="st0" d="M78.09,64.62c-2.61,3.08-4.53,6.16-8.3,3.85"/>
	<path class="st0" d="M61.93,64.26c-4.72-1.15-9.67-3.27-12.37-5.87"/>
	<path class="st0" d="M55.89,70.07c-1.64-4.76-6.02-11.23-6.84-12.6"/>
	<path class="st0" d="M58.21,58.59c-2.34,2.07-3.29,4.08-7.98,0.75"/>
	<path class="st1" d="M72.21,82.73c-1.07-1.63-2.13-1.6-0.58-6.03l1.55-4.43c0,0,0.88,0.42,1.91,0.88c1.03,0.46,5.07,1.74,5.1,5.31
		c0.03,3.58-0.37,5.71-0.61,6.38c-0.24,0.67-0.55,3.06-0.68,3.66"/>
	<path class="st2" d="M93.31,74.4c-2.54,0.06-4.76,3.36-8.17,2.7c-3.41-0.66-6.91-4.51-8.11-5.54c-1.2-1.03-2.01,0.01,0.42-1.13
		c2.43-1.14,2.2-2.03,4.56-2.47c2.36-0.44,6.72,1.43,7.51,2.65C90.3,71.84,93.31,74.4,93.31,74.4"/>
	<path class="st3" d="M75.17,68.14c0.64-0.29,1.59-0.08,4.7-1.41c3.11-1.33,5.39-2.75,4.88-5.34c-0.51-2.6-1.48-2.73-0.85-4.87
		l0.63-2.14c0,0-2.69,1.1-6.35,2.85c-3.66,1.75-3.72,6.27-3.47,8.05C74.96,67.05,75.17,68.14,75.17,68.14"/>
	<path class="st4" d="M73.52,68.92c0,0-2.13-0.94-5.05,0.34c-2.92,1.29-6.76,1.27-8.13-1.81c-1.37-3.08-3.13-4.34-3.13-4.34
		s0.13,0.47,2.58-0.86c2.45-1.33,6.83-1.19,8.97,0.88C70.9,65.19,73.52,68.92,73.52,68.92"/>
	<path class="st5" d="M57.74,80.65c0,0,2.08-5.44,2.09-8.5c0.02-3.06-0.35-4.72-2.64-5.87c-2.3-1.15-3.49-2.36-3.49-2.36
		s-0.71,4.1-1.77,5.45c-1.06,1.35-1.45,4.61-0.02,5.81C53.34,76.39,57.74,80.65,57.74,80.65"/>
	<path class="st6" d="M55.87,60.66c0.03,0.05,2.68-0.02,5.5-0.89c2.82-0.87,4.26-1.53,4.71-3.34c0.46-1.8,0.54-3.52,0.6-5.41
		c0.06-1.88-0.13-2.56,0.42-2.98c0.55-0.42-0.54,0.89-3.81,1.47c-3.28,0.58-5.05,0.4-5.84,1.91c-0.8,1.51,0.04,3.27-0.32,5.14
		C56.76,58.44,55.87,60.66,55.87,60.66"/>
	<path class="st0" d="M31.9,75.91c2.32-0.69,6.26-2.74,9.06-4.18"/>
	<path class="st0" d="M36.57,81.28c0.41-3.42,2.13-8.13,4.62-10.91"/>
	<path class="st0" d="M42.93,80.71c-2.64-3.05-5.38-5.44-2.51-8.8"/>
	<path class="st0" d="M45.81,64.81c1.87-4.49,4.73-9.05,7.72-11.31"/>
	<path class="st0" d="M41,57.94c4.96-0.88,12.03-4.2,13.51-4.79"/>
	<path class="st0" d="M51.98,62.02c-1.68-2.63-3.52-3.88,0.5-8"/>
	<path class="st1" d="M25.96,72.1c1.78-0.8,1.91-1.85,6.05,0.37l4.14,2.22c0,0-0.55,0.81-1.16,1.75c-0.61,0.94-2.5,4.74-6.04,4.21
		c-3.54-0.53-5.58-1.26-6.2-1.59c-0.62-0.34-2.94-1.02-3.51-1.24"/>
	<path class="st7" d="M30.91,94.23c0.33-2.52-2.58-5.22-1.39-8.49c1.18-3.27,5.53-6.12,6.73-7.15c1.2-1.03,0.3-1.99,1.05,0.59
		c0.75,2.58,1.66,2.49,1.73,4.89c0.07,2.4-2.45,6.42-3.79,7C33.91,91.66,30.91,94.23,30.91,94.23"/>
	<path class="st2" d="M39.91,77.29c0.18,0.68-0.16,1.58,0.66,4.86c0.83,3.28,1.87,5.75,4.52,5.65c2.64-0.1,2.93-1.04,4.94-0.08
		l2.01,0.96c0,0-0.67-2.83-1.83-6.72c-1.16-3.89-5.61-4.65-7.41-4.68C41.02,77.25,39.91,77.29,39.91,77.29"/>
	<path class="st4" d="M39.4,75.53c0,0,1.26-1.95,0.44-5.04c-0.82-3.09-0.21-6.88,3.05-7.75c3.26-0.88,4.78-2.42,4.78-2.42
		s-0.48,0.06,0.45,2.69c0.93,2.63,0.12,6.93-2.26,8.73C43.49,73.53,39.4,75.53,39.4,75.53"/>
	<path class="st5" d="M30.27,58.13c0,0,5.05,2.9,8.07,3.39c3.02,0.49,4.72,0.39,6.21-1.7c1.49-2.09,2.87-3.08,2.87-3.08
		s-3.93-1.34-5.11-2.6c-1.17-1.26-4.33-2.15-5.74-0.92C35.15,54.44,30.27,58.13,30.27,58.13"/>
	<path class="st6" d="M50.3,59.39c-0.05,0.02-0.4,2.65,0.02,5.57c0.42,2.92,0.85,4.44,2.56,5.17c1.71,0.73,3.4,1.08,5.25,1.43
		c1.85,0.35,2.55,0.27,2.88,0.88c0.33,0.61-0.8-0.67-0.86-3.99c-0.06-3.33,0.38-5.05-0.98-6.07c-1.37-1.02-3.24-0.47-5.03-1.12
		C52.36,60.61,50.3,59.39,50.3,59.39"/>
	<path class="st8" d="M52.15,46.55c0.35,2.4,1.83,6.59,2.86,9.56"/>
	<path class="st8" d="M46.17,50.42c3.33,0.89,7.75,3.26,10.14,6.12"/>
	<path class="st8" d="M45.83,56.79c3.4-2.18,6.14-4.56,9.06-1.24"/>
	<path class="st8" d="M61.17,61.89c4.18,2.49,8.29,5.97,10.11,9.24"/>
	<path class="st8" d="M68.65,58.1c0.17,5.04,2.46,12.5,2.84,14.05"/>
	<path class="st8" d="M63.06,68.4c2.84-1.29,4.34-2.93,7.85,1.63"/>
	<path class="st8" d="M56.76,41.21c0.54,1.88,1.56,2.15-1.22,5.93l-2.78,3.78c0,0-0.72-0.66-1.57-1.4
		c-0.85-0.74-4.34-3.15-3.31-6.58c1.03-3.43,2.03-5.35,2.45-5.91c0.42-0.57,1.43-2.77,1.72-3.3"/>
	<path class="st8" d="M34.15,42.98c2.45,0.69,5.54-1.81,8.6-0.18c3.07,1.63,5.28,6.34,6.12,7.67c0.85,1.33,1.93,0.58-0.73,0.95
		c-2.66,0.38-2.7,1.3-5.08,1.03c-2.38-0.27-6.01-3.34-6.4-4.74C36.27,46.31,34.15,42.98,34.15,42.98"/>
	<path class="st8" d="M49.64,54.29c-0.69,0.09-1.54-0.39-4.9-0.03c-3.36,0.36-5.96,1.04-6.23,3.67c-0.27,2.63,0.61,3.04-0.62,4.9
		l-1.23,1.86c0,0,2.9-0.26,6.91-0.86c4.01-0.6,5.4-4.9,5.68-6.67C49.53,55.39,49.64,54.29,49.64,54.29"/>
	<path class="st8" d="M51.46,54.03c0,0,1.76,1.52,4.93,1.15c3.17-0.37,6.84,0.77,7.24,4.12c0.41,3.35,1.72,5.07,1.72,5.07
		s0.01-0.49-2.72,0.07c-2.73,0.55-6.88-0.86-8.32-3.47C52.87,58.36,51.46,54.03,51.46,54.03"/>
	<path class="st8" d="M69.98,47.45c0,0-3.58,4.59-4.49,7.51c-0.91,2.92-1.05,4.61,0.81,6.38c1.86,1.77,2.65,3.28,2.65,3.28
		s1.88-3.71,3.29-4.69c1.41-0.98,2.74-3.99,1.72-5.55C72.94,52.81,69.98,47.45,69.98,47.45"/>
	<path class="st8" d="M65.9,67.11c-0.01-0.05-2.57-0.77-5.52-0.76c-2.95,0-4.52,0.21-5.48,1.8s-1.55,3.21-2.16,5
		c-0.61,1.79-0.63,2.49-1.27,2.73c-0.65,0.24,0.77-0.69,4.07-0.29c3.3,0.41,4.94,1.09,6.15-0.11c1.2-1.21,0.92-3.14,1.82-4.82
		C64.4,68.97,65.9,67.11,65.9,67.11"/>
	<path class="st9" d="M36.28,67.94c-0.04-0.07-0.51-0.67-1.05-0.99c-0.54-0.31-1.61-0.49-1.61-0.49l-1.76,0.9
		c0,0-1.13,1.77-1.42,2.55c-0.29,0.78-0.49,2.02-0.49,2.02l0.11,1.35l0.65,1.28h1.84l2.04-1.82l1.12-2.49L36.28,67.94z"/>
	<path class="st10" d="M38.07,68.52c0.85-0.43,2.73-0.83,2.73-0.83h2.35l1.01,1.46l0.4,1.86c0,0-0.11,1.19-0.22,1.68
		c-0.11,0.49-1.12,1.1-1.12,1.1l-3.68,0.34l-0.99-1.93l-0.49-1.95V68.52z"/>
	<path class="st11" d="M41.53,81.09c0.65,0.54,1.21,2.11,1.21,2.11l-0.78,3.21c0,0-1.5,1.14-1.88,1.48
		c-0.38,0.34-0.04,0.31-0.38,0.34c-0.34,0.02-0.07,0-0.78-0.16c-0.72-0.16-0.72-0.09-0.96-0.47c-0.25-0.38-0.58-1.28-0.58-1.28
		l1.44-2.91l1.57-1.52L41.53,81.09z"/>
	<path class="st12" d="M28.71,78.96c-0.31,0.27-1.32,1.39-1.32,1.39l-0.47,1.28l-0.2,0.54l0.47,0.49l1.9,0.81l1.59,0.29l1.39-0.96
		l0.65-1.7L32,79.9l-1.73-0.81L28.71,78.96z"/>
	<path class="st13" d="M33.59,79.7c-0.34,0.22-2.58,2.38-2.58,2.38s-0.22,2.49-0.29,2.87c-0.07,0.38,0.47,2.73,0.47,2.73l1.17,1.3
		l0.49,0.27l1.79-1.02c0,0,2.04-0.88,2.33-1.13c0.29-0.25,0.76-1.95,0.76-1.95s0.65-4.26,0.71-4.73c0.07-0.47,0-1.46,0-1.46
		l-0.71-0.99l-1.08,0.22L35,78.87L33.59,79.7z"/>
	<path class="st14" d="M38.46,78.96c-0.11,0.07-1.1,1.17-1.1,1.17l-1.86,1.66c0,0-0.7,1.01-0.45,1.97c0.25,0.96,1.39,2.29,1.39,2.29
		s0.16,0.83,0.54,1.05c0.38,0.23,1.08,0.32,1.34,0.23c0.27-0.09,1.32-1.97,1.32-1.97l1.68-2.76c0,0,0.67-0.81,0.69-1.23
		c0.02-0.43,0.13-0.81,0-1.23c-0.13-0.43-0.81-0.63-1.48-1.01c-0.67-0.38-0.94-0.49-0.94-0.49L38.46,78.96z"/>
	<path class="st15" d="M33.26,73.4l-2.38-0.27l-2,0.83l-1.46,1.77l-1.12,0.96l-0.29,1.1l0.83,1.66l1.93,1.64l2.76,0.83
		c0,0,1.61-0.02,2.26-0.31c0.65-0.29,1.2-0.87,1.2-0.87l0.99-0.76c0,0,0.74-0.38,1.08-0.49c0.34-0.11,0.68-0.52,0.68-0.52
		s0.75-0.56,0.74-0.7c-0.01-0.13,0-0.96,0-0.96l-1.69-1.68L35,74.55L33.26,73.4z"/>
	<path class="st16" d="M40.85,80.8c0.11,0.05,0.85,1.12,1.55,0.83c0.69-0.29,3.21-1.75,3.21-1.75s1.32-0.96,1.34-1.91
		c0.02-0.94,0.58-1.01-0.13-1.46c-0.72-0.45-1.84-0.47-1.84-0.47l-2.24,0.87l-1.28,1.7l-0.38,1.19L40.85,80.8z"/>
	<path class="st17" d="M38.79,78.86l1.68,1.4c0,0,1.25,0.31,1.84,0.18c0.58-0.13,1.84-0.77,1.84-0.77l1.79-1.69
		c0,0,0.92-1,1.03-1.35c0.11-0.35,0.88-0.42,0.81-1.16c-0.07-0.74-0.61-1.52-1.08-1.86c-0.47-0.34-1.91-0.83-2.13-0.87
		c-0.22-0.04-1.41-0.16-1.41-0.16l-1.93,0.25l-0.87,0.54l-0.9,1.66l-0.67,1.93V78.86z"/>
	<path class="st18" d="M35.88,77.1c-0.29-0.06-1.82-1.05-1.82-1.05s-0.98-0.97-1.21-1.78c-0.23-0.82-0.6-1.94-0.6-1.94l0.62-2.71
		l1.37-1.23c0,0,0.63-0.61,1.55-0.69c0.92-0.09,0.78-0.36,1.57,0c0.78,0.36,1.05,0.4,1.43,0.72c0.38,0.31,0.36,0.29,0.54,0.81
		c0.18,0.51,0.61,1.28,0.72,1.69c0.11,0.42,0.29,0.17,0.13,1.15c-0.16,0.99-0.22,1.59-0.96,2.49c-0.74,0.9,0.43-0.11-1.01,1.17
		C36.78,76.99,35.88,77.1,35.88,77.1"/>
	<g>
		<defs>
			<rect id="SVGID_1_" x="34.26" y="69.97" width="3.82" height="3.28"/>
		</defs>
		<clipPath id="SVGID_2_">
			<use xlink:href="#SVGID_1_"  style="overflow:visible;"/>
		</clipPath>
		<path class="st19" d="M34.85,73.25c0.38-0.3,1.2-0.83,1.2-0.83l1.49-0.88l0.55-0.92l-1.62-0.65l-0.71,1.41l-0.7-0.04l-0.79,0.27
			c0,0,0.09,1.64,0.34,1.64"/>
	</g>
	<g>
		<defs>
			<rect id="SVGID_3_" x="41.22" y="74.12" width="3.84" height="2.22"/>
		</defs>
		<clipPath id="SVGID_4_">
			<use xlink:href="#SVGID_3_"  style="overflow:visible;"/>
		</clipPath>
		<path class="st20" d="M41.33,76.32c0.48,0.23,3.73-1.21,3.73-1.21s0.1,0-0.48-0.23c-0.58-0.23-0.89-0.75-0.89-0.75
			s-0.52,0.07-0.95,0.43c-0.42,0.36-0.65,0-0.65,0h-0.32C41.76,74.55,40.93,76.12,41.33,76.32"/>
	</g>
	<g>
		<defs>
			<rect id="SVGID_5_" x="40.43" y="76.04" width="3.19" height="2.92"/>
		</defs>
		<clipPath id="SVGID_6_">
			<use xlink:href="#SVGID_5_"  style="overflow:visible;"/>
		</clipPath>
		<path class="st21" d="M41.33,76.94c0.2-0.04,2.12-1.01,2.24-0.89c0.12,0.11,0,0.74,0,0.74s-0.09,0.27-0.83,1
			c-0.74,0.73-1.39,1.18-1.39,1.18l-0.5-0.1l-0.42-0.35l0.42-0.73L41.33,76.94z"/>
	</g>
	<g>
		<defs>
			<rect id="SVGID_7_" x="38.79" y="80" width="1.31" height="1.82"/>
		</defs>
		<clipPath id="SVGID_8_">
			<use xlink:href="#SVGID_7_"  style="overflow:visible;"/>
		</clipPath>
		<path class="st22" d="M38.79,80.66l0.61,1.01c0,0,0.54,0.31,0.65,0c0.11-0.31,0.01-1.2,0.01-1.2L39.45,80L38.79,80.66z"/>
	</g>
	<g>
		<defs>
			<rect id="SVGID_9_" x="33.46" y="76.55" width="2.45" height="3.21"/>
		</defs>
		<clipPath id="SVGID_10_">
			<use xlink:href="#SVGID_9_"  style="overflow:visible;"/>
		</clipPath>
		<path class="st23" d="M34.26,77.1c-0.84-0.11,0.42,0.15,0.34,0.43c-0.08,0.28,0.16,0.38,0,0.72c-0.16,0.34,0,1.36,0,1.36L35,79.76
			l0.76-0.46c0,0,0.34-0.69,0-0.9c-0.34-0.21-0.91-0.67-0.91-0.67s0.22-0.71-0.58-0.94l-0.8-0.23"/>
	</g>
	<path class="st24" d="M37.95,77.73c0,0-5.3,3.14-4.24,0.56"/>
	<path class="st25" d="M34.26,78.25c0,0.15-0.23,0.27-0.51,0.27c-0.29,0-0.52-0.12-0.52-0.27c0-0.15,0.23-0.27,0.52-0.27
		C34.03,77.98,34.26,78.1,34.26,78.25"/>
	<path class="st26" d="M36.25,73.14c-0.59,0.36-1,0.01-1.25,0.63c-0.25,0.62-0.1,2.49-0.1,2.49l0.66,1.41l1.52,0.63
		c0,0,0.51-0.14,0.68,0.2c0.17,0.34,0.53,0.64,0.53,0.64s0.68,0.13,0.84,0c0.17-0.13,0.21-0.06,0.62-0.27
		c0.4-0.21,0.76-0.75,0.76-0.75l0.25-1.48c0,0,0.38-0.92,0.29-1.48c-0.09-0.56-0.16-0.47-0.18-1.03c-0.02-0.56,0.29-0.76,0-1.21
		c-0.29-0.45,0.29-0.23-0.38-0.61c-0.67-0.38-0.45-0.56-1.1-0.6c-0.65-0.05-0.49-0.18-0.93,0c-0.44,0.18-0.48-0.02-0.95,0.31
		c-0.47,0.34-0.25-0.02-0.7,0.47C36.35,72.98,36.25,73.14,36.25,73.14"/>
	<g>
		<defs>
			<rect id="SVGID_11_" x="36.78" y="73.92" width="2.6" height="3.87"/>
		</defs>
		<clipPath id="SVGID_12_">
			<use xlink:href="#SVGID_11_"  style="overflow:visible;"/>
		</clipPath>
		<path class="st27" d="M36.83,76.75c0-0.63-0.27-1.21,0.53-1.84c0.8-0.63,1.04-1.49,1.43-0.63c0.39,0.86,0.76,0.87,0.52,1.77
			c-0.24,0.89-0.77,1.48-0.77,1.48s-0.89,0.4-1.18,0.2C37.06,77.53,36.83,76.75,36.83,76.75"/>
	</g>
	<path class="st9" d="M41.38,48.36c-0.04-0.06-0.46-0.6-0.94-0.88c-0.48-0.28-1.44-0.44-1.44-0.44l-1.58,0.8
		c0,0-1.01,1.58-1.27,2.29c-0.26,0.7-0.44,1.8-0.44,1.8l0.1,1.2l0.58,1.14h1.64l1.82-1.62l1-2.23L41.38,48.36z"/>
	<path class="st10" d="M42.98,48.88c0.76-0.38,2.45-0.74,2.45-0.74h2.11l0.9,1.3l0.36,1.66c0,0-0.1,1.06-0.2,1.5
		c-0.1,0.44-1,0.98-1,0.98l-3.29,0.3l-0.88-1.72l-0.44-1.74V48.88z"/>
	<path class="st11" d="M46.07,60.13c0.58,0.48,1.08,1.88,1.08,1.88l-0.7,2.87c0,0-1.34,1.02-1.68,1.32c-0.34,0.3-0.04,0.28-0.34,0.3
		c-0.3,0.02-0.06,0-0.7-0.14c-0.64-0.14-0.64-0.08-0.86-0.42c-0.22-0.34-0.52-1.14-0.52-1.14l1.28-2.61l1.4-1.36L46.07,60.13z"/>
	<path class="st12" d="M34.6,58.22c-0.28,0.24-1.18,1.24-1.18,1.24L33,60.61l-0.18,0.48l0.42,0.44l1.7,0.72l1.42,0.26l1.24-0.86
		l0.58-1.52l-0.64-1.06L36,58.34L34.6,58.22z"/>
	<path class="st13" d="M38.97,58.88c-0.3,0.2-2.31,2.13-2.31,2.13s-0.2,2.23-0.26,2.57c-0.06,0.34,0.42,2.45,0.42,2.45l1.04,1.16
		l0.44,0.24l1.6-0.92c0,0,1.82-0.79,2.09-1.01c0.26-0.22,0.68-1.74,0.68-1.74s0.58-3.81,0.64-4.23c0.06-0.42,0-1.3,0-1.3l-0.64-0.88
		l-0.97,0.2l-1.48,0.6L38.97,58.88z"/>
	<path class="st14" d="M43.32,58.22c-0.1,0.06-0.98,1.04-0.98,1.04l-1.66,1.48c0,0-0.62,0.9-0.4,1.77c0.22,0.86,1.24,2.04,1.24,2.04
		S41.66,65.3,42,65.5c0.34,0.2,0.96,0.28,1.2,0.2c0.24-0.08,1.18-1.76,1.18-1.76l1.5-2.47c0,0,0.6-0.72,0.62-1.1
		c0.02-0.38,0.12-0.72,0-1.1c-0.12-0.38-0.72-0.56-1.32-0.9c-0.6-0.34-0.84-0.44-0.84-0.44L43.32,58.22z"/>
	<path class="st15" d="M38.67,53.25l-2.13-0.24l-1.79,0.74l-1.3,1.58l-1,0.86l-0.26,0.98l0.74,1.48l1.72,1.46l2.47,0.74
		c0,0,1.44-0.02,2.02-0.28c0.58-0.26,1.08-0.78,1.08-0.78l0.89-0.68c0,0,0.66-0.34,0.96-0.44c0.3-0.1,0.61-0.46,0.61-0.46
		s0.67-0.5,0.66-0.62c-0.01-0.12,0-0.86,0-0.86l-1.51-1.5l-1.61-0.96L38.67,53.25z"/>
	<path class="st16" d="M45.47,59.87c0.1,0.04,0.76,1,1.38,0.74c0.62-0.26,2.87-1.56,2.87-1.56s1.18-0.86,1.2-1.7
		c0.02-0.84,0.52-0.9-0.12-1.3c-0.64-0.4-1.64-0.42-1.64-0.42l-2.01,0.78l-1.14,1.52l-0.34,1.06L45.47,59.87z"/>
	<path class="st17" d="M43.62,58.13l1.51,1.25c0,0,1.12,0.28,1.64,0.16c0.52-0.12,1.64-0.69,1.64-0.69l1.6-1.52
		c0,0,0.82-0.89,0.92-1.21c0.1-0.32,0.78-0.38,0.72-1.04c-0.06-0.66-0.54-1.36-0.96-1.66c-0.42-0.3-1.7-0.74-1.9-0.78
		c-0.2-0.04-1.26-0.14-1.26-0.14l-1.72,0.22l-0.78,0.48l-0.8,1.48l-0.6,1.72V58.13z"/>
	<path class="st18" d="M41.02,56.55c-0.26-0.06-1.62-0.94-1.62-0.94s-0.88-0.87-1.08-1.6c-0.2-0.73-0.54-1.73-0.54-1.73l0.56-2.43
		l1.22-1.1c0,0,0.56-0.54,1.38-0.62c0.82-0.08,0.7-0.32,1.4,0c0.7,0.32,0.94,0.36,1.28,0.64c0.34,0.28,0.32,0.26,0.48,0.72
		c0.16,0.46,0.54,1.14,0.64,1.51c0.1,0.37,0.26,0.15,0.12,1.03c-0.14,0.88-0.2,1.42-0.86,2.23c-0.66,0.8,0.38-0.1-0.9,1.04
		C41.82,56.46,41.02,56.55,41.02,56.55"/>
	<g>
		<defs>
			<rect id="SVGID_13_" x="39.57" y="50.18" width="3.42" height="2.93"/>
		</defs>
		<clipPath id="SVGID_14_">
			<use xlink:href="#SVGID_13_"  style="overflow:visible;"/>
		</clipPath>
		<path class="st28" d="M40.1,53.11c0.34-0.27,1.07-0.75,1.07-0.75l1.33-0.79l0.49-0.82l-1.45-0.58l-0.63,1.26l-0.63-0.04l-0.7,0.24
			c0,0,0.08,1.47,0.3,1.47"/>
	</g>
	<g>
		<defs>
			<rect id="SVGID_15_" x="45.79" y="53.89" width="3.44" height="1.99"/>
		</defs>
		<clipPath id="SVGID_16_">
			<use xlink:href="#SVGID_15_"  style="overflow:visible;"/>
		</clipPath>
		<path class="st29" d="M45.89,55.86c0.43,0.21,3.34-1.09,3.34-1.09s0.09,0-0.43-0.21c-0.52-0.21-0.8-0.67-0.8-0.67
			s-0.47,0.06-0.85,0.38c-0.38,0.32-0.58,0-0.58,0h-0.29C46.28,54.27,45.53,55.68,45.89,55.86"/>
	</g>
	<g>
		<defs>
			<rect id="SVGID_17_" x="45.09" y="55.61" width="2.85" height="2.61"/>
		</defs>
		<clipPath id="SVGID_18_">
			<use xlink:href="#SVGID_17_"  style="overflow:visible;"/>
		</clipPath>
		<path class="st30" d="M45.89,56.42c0.18-0.04,1.9-0.9,2-0.8c0.1,0.1,0,0.66,0,0.66s-0.08,0.24-0.74,0.89
			c-0.66,0.65-1.24,1.05-1.24,1.05l-0.44-0.09l-0.38-0.31l0.38-0.66L45.89,56.42z"/>
	</g>
	<g>
		<defs>
			<rect id="SVGID_19_" x="43.62" y="59.15" width="1.17" height="1.63"/>
		</defs>
		<clipPath id="SVGID_20_">
			<use xlink:href="#SVGID_19_"  style="overflow:visible;"/>
		</clipPath>
		<path class="st31" d="M43.62,59.75l0.54,0.91c0,0,0.48,0.28,0.58,0c0.1-0.28,0.01-1.08,0.01-1.08l-0.55-0.43L43.62,59.75z"/>
	</g>
	<g>
		<defs>
			<rect id="SVGID_21_" x="38.85" y="56.07" width="2.19" height="2.87"/>
		</defs>
		<clipPath id="SVGID_22_">
			<use xlink:href="#SVGID_21_"  style="overflow:visible;"/>
		</clipPath>
		<path class="st32" d="M39.57,56.55c-0.75-0.1,0.38,0.14,0.3,0.39c-0.07,0.25,0.14,0.34,0,0.64c-0.14,0.31,0,1.22,0,1.22l0.35,0.14
			l0.68-0.41c0,0,0.3-0.62,0-0.81c-0.3-0.19-0.81-0.6-0.81-0.6s0.2-0.63-0.52-0.84l-0.72-0.21"/>
	</g>
	<path class="st33" d="M42.87,57.12c0,0-4.74,2.81-3.8,0.5"/>
	<path class="st25" d="M39.57,57.58c0,0.13-0.21,0.24-0.46,0.24c-0.25,0-0.46-0.11-0.46-0.24c0-0.13,0.21-0.24,0.46-0.24
		C39.37,57.34,39.57,57.45,39.57,57.58"/>
	<path class="st26" d="M41.35,53.01c-0.53,0.32-0.89,0.01-1.12,0.56c-0.23,0.55-0.09,2.23-0.09,2.23l0.59,1.26l1.36,0.56
		c0,0,0.46-0.13,0.61,0.18c0.15,0.31,0.48,0.58,0.48,0.58s0.61,0.11,0.76,0c0.15-0.11,0.19-0.05,0.55-0.24
		c0.36-0.19,0.68-0.67,0.68-0.67l0.22-1.32c0,0,0.34-0.82,0.26-1.32c-0.08-0.5-0.14-0.42-0.16-0.92c-0.02-0.5,0.26-0.68,0-1.08
		c-0.26-0.4,0.26-0.21-0.34-0.55c-0.6-0.34-0.4-0.5-0.98-0.54c-0.58-0.04-0.44-0.16-0.83,0c-0.39,0.16-0.43-0.02-0.85,0.28
		c-0.42,0.3-0.22-0.02-0.62,0.42C41.44,52.87,41.35,53.01,41.35,53.01"/>
	<g>
		<defs>
			<rect id="SVGID_23_" x="41.83" y="53.71" width="2.33" height="3.46"/>
		</defs>
		<clipPath id="SVGID_24_">
			<use xlink:href="#SVGID_23_"  style="overflow:visible;"/>
		</clipPath>
		<path class="st34" d="M41.87,56.24c0-0.56-0.25-1.09,0.47-1.65c0.72-0.56,0.93-1.33,1.28-0.56c0.35,0.77,0.68,0.78,0.46,1.58
			c-0.22,0.8-0.68,1.32-0.68,1.32s-0.8,0.36-1.06,0.18C42.08,56.94,41.87,56.24,41.87,56.24"/>
	</g>
	<path class="st9" d="M61.97,69.92c0.02-0.06,0.2-0.63,0.16-1.11c-0.04-0.48-0.4-1.25-0.4-1.25l-1.36-0.73c0,0-1.63,0.07-2.26,0.23
		c-0.63,0.16-1.51,0.58-1.51,0.58l-0.81,0.67l-0.53,0.98l0.82,1.17l2.07,0.5l2.09-0.39L61.97,69.92z"/>
	<path class="st10" d="M62.39,71.32c0.65,0.35,1.75,1.38,1.75,1.38l1.05,1.5L64.7,75.5l-1.01,1.09c0,0-0.81,0.46-1.18,0.61
		c-0.36,0.15-1.2-0.23-1.2-0.23l-1.85-2.2l0.79-1.49l1.03-1.18L62.39,71.32z"/>
	<path class="st11" d="M55.89,79.13c-0.06,0.65-0.81,1.71-0.81,1.71l-2.4,0.92c0,0-1.4-0.45-1.78-0.55
		c-0.38-0.09-0.22,0.11-0.38-0.09c-0.16-0.21-0.03-0.04-0.25-0.57c-0.22-0.53-0.26-0.5-0.13-0.83c0.13-0.33,0.56-0.94,0.56-0.94
		l2.5-0.38l1.67,0.32L55.89,79.13z"/>
	<path class="st12" d="M51.54,69.98c-0.31-0.08-1.48-0.23-1.48-0.23l-1.03,0.27l-0.43,0.11l-0.11,0.52l0.33,1.58l0.52,1.15
		l1.23,0.46l1.38-0.34l0.44-0.99l-0.25-1.46L51.54,69.98z"/>
	<path class="st13" d="M53.24,73.43c-0.29-0.11-2.67-0.59-2.67-0.59s-1.69,0.96-1.96,1.09c-0.27,0.13-1.54,1.52-1.54,1.52
		l-0.31,1.32l0.05,0.44l1.45,0.69c0,0,1.47,0.91,1.76,0.99c0.29,0.08,1.59-0.38,1.59-0.38s3.01-1.48,3.34-1.65
		c0.33-0.17,0.93-0.65,0.93-0.65l0.31-0.9l-0.62-0.59l-1.17-0.76L53.24,73.43z"/>
	<path class="st14" d="M55.88,76.22c-0.09-0.04-1.23-0.18-1.23-0.18l-1.89-0.45c0,0-0.95,0-1.46,0.59
		c-0.51,0.59-0.84,1.91-0.84,1.91s-0.46,0.47-0.43,0.81c0.03,0.34,0.28,0.83,0.46,0.96c0.18,0.13,1.85-0.03,1.85-0.03l2.51-0.15
		c0,0,0.82,0.07,1.1-0.1c0.28-0.17,0.58-0.27,0.79-0.55c0.21-0.28,0.04-0.8-0.01-1.39c-0.06-0.6-0.1-0.82-0.1-0.82L55.88,76.22z"/>
	<path class="st15" d="M57.12,70.42l-0.89-1.64l-1.42-0.91l-1.78-0.14l-1.12-0.29l-0.83,0.3l-0.69,1.27l-0.19,1.96l0.7,2.13
		c0,0,0.73,1.02,1.21,1.31c0.48,0.29,1.09,0.38,1.09,0.38l0.93,0.3c0,0,0.57,0.3,0.79,0.47c0.22,0.17,0.63,0.2,0.63,0.2
		s0.69,0.23,0.78,0.17c0.08-0.07,0.62-0.43,0.62-0.43l0.32-1.83l-0.11-1.63L57.12,70.42z"/>
	<path class="st16" d="M55.77,78.57c0.02,0.09-0.34,1.04,0.16,1.36c0.49,0.31,2.54,1.27,2.54,1.27s1.21,0.42,1.82,0.01
		c0.61-0.4,0.9-0.08,0.87-0.73c-0.03-0.66-0.52-1.38-0.52-1.38l-1.56-1.04l-1.66-0.06l-0.93,0.28L55.77,78.57z"/>
	<path class="st17" d="M56.09,76.38l-0.15,1.7c0,0,0.36,0.94,0.7,1.25c0.35,0.31,1.31,0.83,1.31,0.83l1.88,0.39
		c0,0,1.04,0.14,1.32,0.06c0.28-0.08,0.66,0.37,1.1,0c0.44-0.37,0.71-1.06,0.71-1.52c0.01-0.45-0.32-1.59-0.39-1.75
		c-0.07-0.16-0.53-0.97-0.53-0.97l-1.02-1.12l-0.73-0.32l-1.46,0.16l-1.53,0.43L56.09,76.38z"/>
	<path class="st18" d="M55.93,73.74c-0.09-0.21-0.14-1.63-0.14-1.63s0.18-1.06,0.6-1.56c0.42-0.51,0.97-1.25,0.97-1.25l2.01-0.81
		l1.4,0.32c0,0,0.67,0.13,1.13,0.68c0.47,0.55,0.58,0.34,0.7,1c0.12,0.66,0.21,0.85,0.18,1.24c-0.03,0.38-0.03,0.36-0.28,0.7
		c-0.25,0.34-0.55,0.96-0.76,1.21c-0.22,0.26,0.02,0.26-0.68,0.6c-0.7,0.34-1.12,0.57-2.02,0.49c-0.9-0.07,0.26,0.22-1.19-0.13
		C56.4,74.26,55.93,73.74,55.93,73.74"/>
	<g>
		<defs>
			<rect id="SVGID_25_" x="57.81" y="70.26" width="3.24" height="2.06"/>
		</defs>
		<clipPath id="SVGID_26_">
			<use xlink:href="#SVGID_25_"  style="overflow:visible;"/>
		</clipPath>
		<path class="st35" d="M57.93,71.37c0.36,0.11,1.07,0.4,1.07,0.4l1.22,0.56l0.83-0.06l-0.31-1.32l-1.22,0.17l-0.29-0.47l-0.52-0.38
			c0,0-1.01,0.79-0.9,0.95"/>
	</g>
	<g>
		<defs>
			<rect id="SVGID_27_" x="58.85" y="76.36" width="2.45" height="2.35"/>
		</defs>
		<clipPath id="SVGID_28_">
			<use xlink:href="#SVGID_27_"  style="overflow:visible;"/>
		</clipPath>
		<path class="st36" d="M58.85,76.87c0.06,0.41,2.43,1.84,2.43,1.84s0.05,0.07-0.06-0.41c-0.11-0.47,0.08-0.9,0.08-0.9
			s-0.27-0.3-0.69-0.42c-0.42-0.11-0.29-0.42-0.29-0.42l-0.14-0.21C60.18,76.36,58.8,76.53,58.85,76.87"/>
	</g>
	<g>
		<defs>
			<rect id="SVGID_29_" x="57.01" y="77.15" width="3.01" height="1.38"/>
		</defs>
		<clipPath id="SVGID_30_">
			<use xlink:href="#SVGID_29_"  style="overflow:visible;"/>
		</clipPath>
		<path class="st37" d="M58.45,77.15c0.12,0.11,1.59,0.91,1.57,1.03c-0.02,0.13-0.47,0.33-0.47,0.33s-0.21,0.06-1.01-0.09
			c-0.79-0.15-1.37-0.36-1.37-0.36l-0.16-0.36l0.03-0.42l0.66-0.06L58.45,77.15z"/>
	</g>
	<g>
		<defs>
			<rect id="SVGID_31_" x="54.56" y="77.19" width="1.09" height="1.26"/>
		</defs>
		<clipPath id="SVGID_32_">
			<use xlink:href="#SVGID_31_"  style="overflow:visible;"/>
		</clipPath>
		<path class="st38" d="M54.94,77.19l-0.38,0.84c0,0,0.04,0.48,0.29,0.41s0.78-0.53,0.78-0.53l0.03-0.61L54.94,77.19z"/>
	</g>
	<g>
		<defs>
			<rect id="SVGID_33_" x="53.75" y="71.95" width="1.7" height="2.69"/>
		</defs>
		<clipPath id="SVGID_34_">
			<use xlink:href="#SVGID_33_"  style="overflow:visible;"/>
		</clipPath>
		<path class="st39" d="M55.21,72.7c-0.3-0.59,0.09,0.34-0.13,0.41c-0.21,0.07-0.17,0.27-0.46,0.32c-0.29,0.05-0.87,0.61-0.87,0.61
			l0.08,0.32l0.63,0.28c0,0,0.59-0.09,0.58-0.4c-0.02-0.31,0.03-0.88,0.03-0.88s0.55-0.17,0.34-0.79l-0.21-0.62"/>
	</g>
	<path class="st40" d="M56.44,75.34c0,0-4.36-1.99-2.25-2.46"/>
	<path class="st25" d="M54.47,73.22c-0.1,0.07-0.28-0.03-0.4-0.21c-0.13-0.18-0.15-0.38-0.06-0.45c0.1-0.07,0.28,0.03,0.4,0.21
		C54.54,72.95,54.57,73.15,54.47,73.22"/>
	<path class="st26" d="M58.63,72.21c-0.49-0.22-0.45-0.63-0.96-0.52c-0.51,0.11-1.64,1.04-1.64,1.04l-0.61,1.05l0.27,1.25
		c0,0,0.32,0.26,0.17,0.52c-0.15,0.26-0.18,0.63-0.18,0.63s0.22,0.49,0.38,0.54c0.16,0.05,0.13,0.11,0.45,0.27
		c0.32,0.16,0.82,0.15,0.82,0.15l1.06-0.5c0,0,0.76-0.17,1.08-0.47c0.32-0.31,0.23-0.31,0.58-0.57c0.35-0.26,0.62-0.15,0.77-0.54
		c0.16-0.38,0.28,0.08,0.22-0.51c-0.06-0.6,0.16-0.53-0.1-0.97c-0.26-0.44-0.11-0.4-0.42-0.6c-0.31-0.2-0.2-0.32-0.62-0.47
		c-0.42-0.15-0.09-0.17-0.61-0.23C58.77,72.2,58.63,72.21,58.63,72.21"/>
	<g>
		<defs>
			<rect id="SVGID_35_" x="56.18" y="73.64" width="2.95" height="2"/>
		</defs>
		<clipPath id="SVGID_36_">
			<use xlink:href="#SVGID_35_"  style="overflow:visible;"/>
		</clipPath>
		<path class="st41" d="M56.57,74.19c0.4-0.28,0.65-0.72,1.41-0.48c0.76,0.23,1.42,0,1.04,0.64c-0.38,0.63-0.22,0.87-0.9,1.12
			c-0.68,0.24-1.29,0.17-1.29,0.17s-0.65-0.39-0.66-0.67C56.18,74.69,56.57,74.19,56.57,74.19"/>
	</g>
	<path class="st9" d="M72.08,20.34c-0.04-0.07-0.52-0.67-1.05-0.99c-0.54-0.31-1.61-0.49-1.61-0.49l-1.76,0.9
		c0,0-1.13,1.77-1.42,2.55c-0.29,0.78-0.49,2.02-0.49,2.02l0.11,1.35l0.65,1.28h1.84l2.04-1.82l1.12-2.49L72.08,20.34z"/>
	<path class="st10" d="M73.87,20.93c0.85-0.43,2.73-0.83,2.73-0.83h2.35l1.01,1.46l0.4,1.86c0,0-0.11,1.19-0.22,1.68
		c-0.11,0.49-1.12,1.1-1.12,1.1l-3.68,0.34l-0.99-1.93l-0.49-1.95V20.93z"/>
	<path class="st11" d="M77.33,33.5c0.65,0.54,1.21,2.11,1.21,2.11l-0.78,3.2c0,0-1.5,1.14-1.88,1.48c-0.38,0.34-0.04,0.31-0.38,0.34
		c-0.34,0.02-0.07,0-0.78-0.16c-0.72-0.16-0.72-0.09-0.96-0.47c-0.25-0.38-0.58-1.28-0.58-1.28l1.44-2.91l1.57-1.52L77.33,33.5z"/>
	<path class="st12" d="M64.5,31.37c-0.31,0.27-1.32,1.39-1.32,1.39l-0.47,1.28l-0.2,0.54l0.47,0.49l1.9,0.81l1.59,0.29l1.39-0.96
		l0.65-1.7l-0.72-1.19l-1.73-0.81L64.5,31.37z"/>
	<path class="st13" d="M69.39,32.11c-0.34,0.22-2.58,2.38-2.58,2.38s-0.22,2.49-0.29,2.87c-0.07,0.38,0.47,2.73,0.47,2.73l1.17,1.3
		l0.49,0.27l1.79-1.02c0,0,2.04-0.88,2.33-1.13c0.29-0.25,0.76-1.95,0.76-1.95s0.65-4.26,0.71-4.73c0.07-0.47,0-1.46,0-1.46
		l-0.71-0.99l-1.08,0.22l-1.66,0.67L69.39,32.11z"/>
	<path class="st14" d="M74.25,31.37c-0.11,0.07-1.1,1.17-1.1,1.17l-1.86,1.66c0,0-0.7,1.01-0.45,1.97c0.25,0.96,1.39,2.29,1.39,2.29
		s0.16,0.83,0.54,1.05c0.38,0.23,1.08,0.32,1.34,0.23c0.27-0.09,1.32-1.97,1.32-1.97L77.12,35c0,0,0.67-0.81,0.69-1.23
		c0.02-0.43,0.13-0.81,0-1.23c-0.13-0.43-0.81-0.63-1.48-1.01c-0.67-0.38-0.94-0.49-0.94-0.49L74.25,31.37z"/>
	<path class="st15" d="M69.05,25.81l-2.38-0.27l-2,0.83l-1.46,1.77l-1.12,0.96l-0.29,1.1l0.83,1.66l1.93,1.64l2.76,0.83
		c0,0,1.61-0.02,2.26-0.31c0.65-0.29,1.2-0.87,1.2-0.87l0.99-0.76c0,0,0.74-0.38,1.08-0.49c0.34-0.11,0.68-0.52,0.68-0.52
		s0.75-0.56,0.74-0.7c-0.01-0.13,0-0.96,0-0.96l-1.69-1.68l-1.8-1.08L69.05,25.81z"/>
	<path class="st16" d="M76.65,33.21c0.11,0.05,0.85,1.12,1.55,0.83c0.69-0.29,3.21-1.75,3.21-1.75s1.32-0.96,1.34-1.91
		c0.02-0.94,0.58-1.01-0.13-1.46c-0.72-0.45-1.84-0.47-1.84-0.47l-2.24,0.87l-1.28,1.7l-0.38,1.19L76.65,33.21z"/>
	<path class="st17" d="M74.59,31.27l1.68,1.4c0,0,1.25,0.31,1.84,0.18c0.58-0.13,1.84-0.77,1.84-0.77l1.79-1.69
		c0,0,0.92-1,1.03-1.35c0.11-0.35,0.88-0.42,0.81-1.16c-0.07-0.74-0.61-1.52-1.08-1.86c-0.47-0.34-1.91-0.83-2.13-0.87
		c-0.22-0.04-1.41-0.16-1.41-0.16l-1.93,0.25l-0.87,0.54l-0.9,1.66l-0.67,1.93V31.27z"/>
	<path class="st18" d="M71.68,29.5c-0.29-0.06-1.82-1.05-1.82-1.05s-0.98-0.97-1.21-1.78c-0.23-0.82-0.6-1.94-0.6-1.94l0.62-2.71
		l1.37-1.23c0,0,0.63-0.61,1.55-0.69c0.92-0.09,0.78-0.36,1.57,0c0.78,0.36,1.05,0.4,1.43,0.72c0.38,0.31,0.36,0.29,0.54,0.81
		c0.18,0.52,0.61,1.28,0.72,1.69c0.11,0.42,0.29,0.17,0.13,1.15c-0.16,0.99-0.22,1.59-0.96,2.49c-0.74,0.9,0.43-0.11-1.01,1.17
		C72.57,29.4,71.68,29.5,71.68,29.5"/>
	<g>
		<defs>
			<rect id="SVGID_37_" x="70.06" y="22.38" width="3.82" height="3.28"/>
		</defs>
		<clipPath id="SVGID_38_">
			<use xlink:href="#SVGID_37_"  style="overflow:visible;"/>
		</clipPath>
		<path class="st42" d="M70.65,25.66c0.38-0.3,1.2-0.83,1.2-0.83l1.49-0.88l0.55-0.92l-1.62-0.65l-0.71,1.41l-0.7-0.04l-0.79,0.27
			c0,0,0.09,1.64,0.34,1.64"/>
	</g>
	<g>
		<defs>
			<rect id="SVGID_39_" x="77.02" y="26.53" width="3.84" height="2.22"/>
		</defs>
		<clipPath id="SVGID_40_">
			<use xlink:href="#SVGID_39_"  style="overflow:visible;"/>
		</clipPath>
		<path class="st43" d="M77.12,28.73c0.48,0.23,3.73-1.21,3.73-1.21s0.1,0-0.48-0.23s-0.89-0.75-0.89-0.75s-0.52,0.07-0.95,0.43
			c-0.42,0.36-0.65,0-0.65,0h-0.32C77.56,26.96,76.72,28.53,77.12,28.73"/>
	</g>
	<g>
		<defs>
			<rect id="SVGID_41_" x="76.23" y="28.45" width="3.19" height="2.92"/>
		</defs>
		<clipPath id="SVGID_42_">
			<use xlink:href="#SVGID_41_"  style="overflow:visible;"/>
		</clipPath>
		<path class="st44" d="M77.12,29.35c0.2-0.04,2.12-1.01,2.24-0.89c0.12,0.11,0,0.74,0,0.74s-0.09,0.27-0.83,1
			c-0.74,0.73-1.39,1.18-1.39,1.18l-0.5-0.1l-0.42-0.35l0.42-0.73L77.12,29.35z"/>
	</g>
	<g>
		<defs>
			<rect id="SVGID_43_" x="74.59" y="32.41" width="1.31" height="1.82"/>
		</defs>
		<clipPath id="SVGID_44_">
			<use xlink:href="#SVGID_43_"  style="overflow:visible;"/>
		</clipPath>
		<path class="st45" d="M74.59,33.07l0.61,1.01c0,0,0.54,0.31,0.65,0c0.11-0.31,0.01-1.2,0.01-1.2l-0.62-0.48L74.59,33.07z"/>
	</g>
	<g>
		<defs>
			<rect id="SVGID_45_" x="69.26" y="28.96" width="2.45" height="3.21"/>
		</defs>
		<clipPath id="SVGID_46_">
			<use xlink:href="#SVGID_45_"  style="overflow:visible;"/>
		</clipPath>
		<path class="st46" d="M70.06,29.5c-0.84-0.11,0.42,0.15,0.34,0.43c-0.08,0.28,0.16,0.38,0,0.72c-0.16,0.34,0,1.36,0,1.36
			l0.39,0.16l0.76-0.46c0,0,0.34-0.69,0-0.9c-0.34-0.21-0.91-0.67-0.91-0.67s0.22-0.71-0.58-0.94l-0.8-0.23"/>
	</g>
	<path class="st24" d="M73.75,30.14c0,0-5.3,3.14-4.24,0.56"/>
	<path class="st25" d="M70.06,30.66c0,0.15-0.23,0.27-0.51,0.27c-0.29,0-0.52-0.12-0.52-0.27c0-0.15,0.23-0.27,0.52-0.27
		C69.83,30.38,70.06,30.51,70.06,30.66"/>
	<path class="st26" d="M72.05,25.54c-0.59,0.36-1,0.01-1.25,0.63c-0.25,0.62-0.1,2.49-0.1,2.49l0.66,1.41l1.52,0.63
		c0,0,0.51-0.14,0.68,0.2c0.17,0.34,0.53,0.64,0.53,0.64s0.68,0.13,0.84,0c0.17-0.13,0.21-0.06,0.62-0.27
		c0.4-0.21,0.76-0.75,0.76-0.75l0.25-1.48c0,0,0.38-0.92,0.29-1.48c-0.09-0.56-0.16-0.47-0.18-1.03c-0.02-0.56,0.29-0.76,0-1.21
		c-0.29-0.45,0.29-0.23-0.38-0.61c-0.67-0.38-0.45-0.56-1.1-0.6c-0.65-0.05-0.49-0.18-0.93,0c-0.44,0.18-0.48-0.02-0.95,0.31
		c-0.47,0.34-0.25-0.02-0.7,0.47C72.15,25.39,72.05,25.54,72.05,25.54"/>
	<g>
		<defs>
			<rect id="SVGID_47_" x="72.58" y="26.33" width="2.6" height="3.87"/>
		</defs>
		<clipPath id="SVGID_48_">
			<use xlink:href="#SVGID_47_"  style="overflow:visible;"/>
		</clipPath>
		<path class="st47" d="M72.63,29.16c0-0.63-0.27-1.21,0.53-1.84c0.8-0.63,1.04-1.49,1.43-0.63c0.39,0.86,0.76,0.87,0.52,1.77
			c-0.24,0.89-0.77,1.48-0.77,1.48s-0.89,0.4-1.18,0.2C72.86,29.94,72.63,29.16,72.63,29.16"/>
	</g>
	<path class="st9" d="M79.02,61.32c-0.04-0.07-0.52-0.67-1.05-0.99c-0.54-0.31-1.61-0.49-1.61-0.49l-1.76,0.9
		c0,0-1.13,1.77-1.42,2.55c-0.29,0.78-0.49,2.02-0.49,2.02l0.11,1.34l0.65,1.28h1.84l2.04-1.82l1.12-2.49L79.02,61.32z"/>
	<path class="st10" d="M80.81,61.9c0.85-0.43,2.73-0.83,2.73-0.83h2.35l1.01,1.46l0.4,1.86c0,0-0.11,1.19-0.22,1.68
		c-0.11,0.49-1.12,1.1-1.12,1.1l-3.68,0.34l-0.99-1.93l-0.49-1.95V61.9z"/>
	<path class="st11" d="M84.26,74.48c0.65,0.54,1.21,2.11,1.21,2.11l-0.78,3.21c0,0-1.5,1.14-1.88,1.48
		c-0.38,0.34-0.05,0.31-0.38,0.34c-0.34,0.02-0.07,0-0.78-0.16c-0.72-0.16-0.72-0.09-0.96-0.47c-0.25-0.38-0.58-1.28-0.58-1.28
		l1.43-2.91l1.57-1.52L84.26,74.48z"/>
	<path class="st12" d="M71.44,72.35c-0.31,0.27-1.32,1.39-1.32,1.39l-0.47,1.28l-0.2,0.54l0.47,0.49l1.9,0.81l1.59,0.29l1.39-0.96
		l0.65-1.7l-0.72-1.19l-1.73-0.81L71.44,72.35z"/>
	<path class="st13" d="M76.33,73.09c-0.34,0.22-2.58,2.38-2.58,2.38s-0.22,2.49-0.29,2.87c-0.07,0.38,0.47,2.73,0.47,2.73l1.17,1.3
		l0.49,0.27l1.79-1.02c0,0,2.04-0.88,2.33-1.13c0.29-0.25,0.76-1.95,0.76-1.95s0.65-4.26,0.71-4.73c0.07-0.47,0-1.46,0-1.46
		l-0.71-0.99l-1.08,0.22l-1.66,0.67L76.33,73.09z"/>
	<path class="st14" d="M81.19,72.35c-0.11,0.07-1.1,1.17-1.1,1.17l-1.86,1.66c0,0-0.69,1.01-0.45,1.97
		c0.25,0.96,1.39,2.29,1.39,2.29s0.16,0.83,0.54,1.05c0.38,0.22,1.08,0.31,1.35,0.22c0.27-0.09,1.32-1.97,1.32-1.97l1.68-2.76
		c0,0,0.67-0.81,0.69-1.23c0.02-0.43,0.13-0.81,0-1.23c-0.13-0.43-0.81-0.63-1.48-1.01c-0.67-0.38-0.94-0.49-0.94-0.49L81.19,72.35z
		"/>
	<path class="st15" d="M75.99,66.79l-2.38-0.27l-2,0.83l-1.46,1.77l-1.12,0.96l-0.29,1.1l0.83,1.66l1.93,1.64l2.76,0.83
		c0,0,1.61-0.02,2.26-0.31c0.65-0.29,1.2-0.87,1.2-0.87l0.99-0.76c0,0,0.74-0.38,1.08-0.49c0.34-0.11,0.68-0.52,0.68-0.52
		s0.75-0.56,0.74-0.7c-0.01-0.13,0-0.96,0-0.96l-1.69-1.68l-1.8-1.08L75.99,66.79z"/>
	<path class="st16" d="M83.59,74.19c0.11,0.04,0.85,1.12,1.55,0.83c0.69-0.29,3.2-1.75,3.2-1.75s1.32-0.96,1.35-1.9
		c0.02-0.94,0.58-1.01-0.13-1.46c-0.72-0.45-1.84-0.47-1.84-0.47l-2.24,0.87l-1.28,1.7l-0.38,1.19L83.59,74.19z"/>
	<path class="st17" d="M81.52,72.25l1.68,1.4c0,0,1.26,0.31,1.84,0.18c0.58-0.13,1.84-0.77,1.84-0.77l1.79-1.69
		c0,0,0.92-1,1.03-1.35c0.11-0.35,0.88-0.42,0.81-1.16c-0.07-0.74-0.61-1.52-1.08-1.86c-0.47-0.34-1.91-0.83-2.13-0.87
		c-0.22-0.04-1.41-0.16-1.41-0.16l-1.93,0.25l-0.87,0.54l-0.9,1.66l-0.67,1.93V72.25z"/>
	<path class="st18" d="M78.61,70.48c-0.29-0.06-1.82-1.05-1.82-1.05s-0.98-0.97-1.21-1.78c-0.23-0.82-0.6-1.94-0.6-1.94L75.61,63
		l1.37-1.23c0,0,0.63-0.61,1.55-0.69c0.92-0.09,0.78-0.36,1.57,0c0.78,0.36,1.05,0.4,1.43,0.72c0.38,0.31,0.36,0.29,0.54,0.81
		c0.18,0.52,0.61,1.28,0.72,1.69c0.11,0.42,0.29,0.17,0.13,1.16c-0.16,0.99-0.22,1.59-0.96,2.49c-0.74,0.9,0.43-0.11-1.01,1.17
		C79.51,70.38,78.61,70.48,78.61,70.48"/>
	<g>
		<defs>
			<rect id="SVGID_49_" x="77" y="63.36" width="3.82" height="3.28"/>
		</defs>
		<clipPath id="SVGID_50_">
			<use xlink:href="#SVGID_49_"  style="overflow:visible;"/>
		</clipPath>
		<path class="st48" d="M77.58,66.63c0.38-0.3,1.2-0.83,1.2-0.83l1.49-0.88L80.82,64l-1.62-0.65l-0.71,1.41l-0.7-0.04L77,64.99
			c0,0,0.09,1.64,0.34,1.64"/>
	</g>
	<g>
		<defs>
			<rect id="SVGID_51_" x="83.95" y="67.51" width="3.84" height="2.22"/>
		</defs>
		<clipPath id="SVGID_52_">
			<use xlink:href="#SVGID_51_"  style="overflow:visible;"/>
		</clipPath>
		<path class="st49" d="M84.06,69.7c0.48,0.23,3.73-1.21,3.73-1.21s0.1,0-0.48-0.24c-0.58-0.23-0.89-0.75-0.89-0.75
			s-0.52,0.07-0.95,0.43c-0.43,0.36-0.65,0-0.65,0H84.5C84.5,67.93,83.66,69.51,84.06,69.7"/>
	</g>
	<g>
		<defs>
			<rect id="SVGID_53_" x="83.17" y="69.42" width="3.19" height="2.92"/>
		</defs>
		<clipPath id="SVGID_54_">
			<use xlink:href="#SVGID_53_"  style="overflow:visible;"/>
		</clipPath>
		<path class="st50" d="M84.06,70.33c0.2-0.04,2.12-1.01,2.24-0.9c0.12,0.11,0,0.74,0,0.74s-0.09,0.27-0.83,1
			c-0.74,0.73-1.39,1.18-1.39,1.18l-0.5-0.1l-0.42-0.35l0.42-0.73L84.06,70.33z"/>
	</g>
	<g>
		<defs>
			<rect id="SVGID_55_" x="81.53" y="73.38" width="1.31" height="1.82"/>
		</defs>
		<clipPath id="SVGID_56_">
			<use xlink:href="#SVGID_55_"  style="overflow:visible;"/>
		</clipPath>
		<path class="st51" d="M81.52,74.05l0.61,1.01c0,0,0.54,0.31,0.65,0c0.11-0.31,0.01-1.2,0.01-1.2l-0.62-0.48L81.52,74.05z"/>
	</g>
	<g>
		<defs>
			<rect id="SVGID_57_" x="76.2" y="69.94" width="2.45" height="3.21"/>
		</defs>
		<clipPath id="SVGID_58_">
			<use xlink:href="#SVGID_57_"  style="overflow:visible;"/>
		</clipPath>
		<path class="st52" d="M77,70.48c-0.84-0.11,0.42,0.15,0.34,0.43c-0.08,0.28,0.16,0.38,0,0.72c-0.16,0.34,0,1.36,0,1.36l0.4,0.16
			l0.76-0.46c0,0,0.34-0.69,0-0.9c-0.34-0.21-0.91-0.68-0.91-0.68s0.22-0.71-0.58-0.94l-0.8-0.23"/>
	</g>
	<path class="st24" d="M80.68,71.11c0,0-5.3,3.14-4.24,0.56"/>
	<path class="st25" d="M77,71.63c0,0.15-0.23,0.27-0.52,0.27c-0.28,0-0.51-0.12-0.51-0.27c0-0.15,0.23-0.27,0.51-0.27
		C76.77,71.36,77,71.48,77,71.63"/>
	<path class="st26" d="M78.98,66.52c-0.59,0.36-1,0.01-1.25,0.63c-0.25,0.62-0.1,2.49-0.1,2.49l0.66,1.41l1.52,0.63
		c0,0,0.51-0.14,0.68,0.2c0.17,0.34,0.53,0.64,0.53,0.64s0.68,0.13,0.84,0c0.17-0.13,0.21-0.06,0.62-0.27
		c0.4-0.21,0.76-0.75,0.76-0.75l0.25-1.48c0,0,0.38-0.92,0.29-1.48c-0.09-0.56-0.16-0.47-0.18-1.03c-0.02-0.56,0.29-0.76,0-1.21
		c-0.29-0.45,0.29-0.23-0.38-0.61c-0.67-0.38-0.45-0.56-1.1-0.6c-0.65-0.04-0.49-0.18-0.93,0c-0.44,0.18-0.48-0.02-0.95,0.31
		c-0.47,0.34-0.25-0.02-0.7,0.47C79.08,66.36,78.98,66.52,78.98,66.52"/>
	<g>
		<defs>
			<rect id="SVGID_59_" x="79.52" y="67.3" width="2.6" height="3.87"/>
		</defs>
		<clipPath id="SVGID_60_">
			<use xlink:href="#SVGID_59_"  style="overflow:visible;"/>
		</clipPath>
		<path class="st53" d="M79.56,70.13c0-0.63-0.27-1.21,0.53-1.84c0.8-0.63,1.04-1.49,1.43-0.63c0.39,0.86,0.76,0.87,0.52,1.77
			c-0.25,0.9-0.77,1.48-0.77,1.48s-0.89,0.4-1.18,0.2C79.8,70.92,79.56,70.13,79.56,70.13"/>
	</g>
	<path class="st9" d="M60.49,57.01c0.03,0.06,0.4,0.6,0.83,0.89c0.44,0.29,1.33,0.51,1.33,0.51l1.54-0.66c0,0,1.05-1.43,1.34-2.08
		c0.29-0.65,0.53-1.68,0.53-1.68l-0.02-1.14l-0.48-1.11l-1.55-0.1l-1.82,1.42l-1.08,2.04L60.49,57.01z"/>
	<path class="st10" d="M59.01,56.42c-0.74,0.31-2.35,0.55-2.35,0.55l-1.99-0.13l-0.77-1.29l-0.24-1.59c0,0,0.16-1,0.28-1.41
		c0.12-0.41,1.01-0.86,1.01-0.86l3.12-0.08l0.72,1.68l0.31,1.67L59.01,56.42z"/>
	<path class="st11" d="M56.79,45.62c-0.52-0.49-0.9-1.85-0.9-1.85l0.84-2.66c0,0,1.33-0.88,1.67-1.14c0.34-0.26,0.06-0.26,0.34-0.26
		c0.29,0,0.06,0,0.65,0.18c0.6,0.17,0.6,0.12,0.79,0.45c0.19,0.34,0.42,1.11,0.42,1.11l-1.37,2.38l-1.41,1.2L56.79,45.62z"/>
	<path class="st12" d="M67.49,48.13c0.28-0.21,1.19-1.1,1.19-1.1l0.47-1.05l0.2-0.44l-0.37-0.44l-1.56-0.79l-1.33-0.34l-1.23,0.74
		l-0.64,1.4l0.54,1.04l1.41,0.78L67.49,48.13z"/>
	<path class="st13" d="M63.41,47.23c0.3-0.17,2.31-1.86,2.31-1.86s0.33-2.09,0.41-2.4c0.08-0.32-0.24-2.33-0.24-2.33l-0.91-1.16
		l-0.4-0.25L63,39.98c0,0-1.77,0.63-2.03,0.82c-0.26,0.19-0.75,1.6-0.75,1.6s-0.78,3.56-0.87,3.95c-0.08,0.39-0.08,1.23-0.08,1.23
		l0.55,0.87l0.92-0.13l1.44-0.47L63.41,47.23z"/>
	<path class="st14" d="M59.27,47.58c0.1-0.05,0.99-0.92,0.99-0.92l1.66-1.3c0,0,0.64-0.81,0.49-1.64c-0.15-0.83-1.05-2.01-1.05-2.01
		s-0.09-0.71-0.4-0.92c-0.31-0.21-0.89-0.32-1.12-0.26c-0.23,0.06-1.23,1.59-1.23,1.59l-1.57,2.23c0,0-0.61,0.64-0.66,1
		c-0.04,0.36-0.16,0.67-0.07,1.04c0.09,0.37,0.65,0.57,1.19,0.93c0.55,0.36,0.77,0.47,0.77,0.47L59.27,47.58z"/>
	<path class="st15" d="M63.34,52.57l1.99,0.36l1.73-0.59l1.33-1.41l1-0.75l0.31-0.91l-0.61-1.45l-1.54-1.49l-2.28-0.85
		c0,0-1.36-0.07-1.93,0.14c-0.56,0.21-1.06,0.67-1.06,0.67l-0.88,0.59c0,0-0.65,0.28-0.94,0.36c-0.29,0.08-0.6,0.4-0.6,0.4
		s-0.66,0.43-0.67,0.55c0,0.11-0.05,0.81-0.05,0.81l1.33,1.51l1.46,1.01L63.34,52.57z"/>
	<path class="st16" d="M57.35,45.9c-0.09-0.04-0.66-0.99-1.26-0.79c-0.6,0.21-2.8,1.3-2.8,1.3s-1.17,0.74-1.24,1.53
		c-0.07,0.79-0.55,0.82,0.03,1.24c0.58,0.42,1.52,0.5,1.52,0.5l1.94-0.61l1.17-1.37l0.39-0.98L57.35,45.9z"/>
	<path class="st17" d="M58.98,47.65l-1.34-1.27c0,0-1.04-0.33-1.54-0.25c-0.5,0.08-1.59,0.55-1.59,0.55L52.89,48
		c0,0-0.83,0.79-0.94,1.08c-0.11,0.29-0.76,0.3-0.75,0.93c0.02,0.63,0.43,1.32,0.8,1.63c0.38,0.31,1.56,0.81,1.75,0.86
		c0.19,0.05,1.18,0.21,1.18,0.21l1.64-0.1l0.77-0.41l0.85-1.35l0.68-1.59L58.98,47.65z"/>
	<path class="st18" d="M61.34,49.3c0.24,0.07,1.47,0.98,1.47,0.98s0.77,0.87,0.92,1.57c0.15,0.7,0.4,1.67,0.4,1.67l-0.68,2.25
		l-1.22,0.96c0,0-0.56,0.48-1.34,0.5c-0.78,0.02-0.68,0.26-1.32-0.09c-0.64-0.35-0.86-0.4-1.17-0.69c-0.31-0.29-0.29-0.27-0.41-0.71
		c-0.12-0.44-0.44-1.11-0.51-1.47c-0.07-0.36-0.24-0.16-0.05-0.98c0.19-0.82,0.28-1.33,0.95-2.05c0.67-0.72-0.36,0.07,0.92-0.93
		C60.57,49.34,61.34,49.3,61.34,49.3"/>
	<g>
		<defs>
			<rect id="SVGID_61_" x="59.11" y="52.61" width="3.28" height="2.68"/>
		</defs>
		<clipPath id="SVGID_62_">
			<use xlink:href="#SVGID_61_"  style="overflow:visible;"/>
		</clipPath>
		<path class="st54" d="M61.99,52.61c-0.33,0.23-1.06,0.64-1.06,0.64l-1.31,0.66l-0.52,0.75l1.33,0.63l0.68-1.15l0.59,0.07
			l0.68-0.18c0,0,0.01-1.39-0.19-1.4"/>
	</g>
	<g>
		<defs>
			<rect id="SVGID_63_" x="53.48" y="49.62" width="3.3" height="1.75"/>
		</defs>
		<clipPath id="SVGID_64_">
			<use xlink:href="#SVGID_63_"  style="overflow:visible;"/>
		</clipPath>
		<path class="st55" d="M56.7,49.66c-0.39-0.22-3.21,0.82-3.21,0.82s-0.09,0,0.39,0.23c0.47,0.23,0.71,0.68,0.71,0.68
			s0.44-0.02,0.82-0.31c0.38-0.28,0.55,0.04,0.55,0.04l0.27,0.02C56.23,51.13,57.02,49.84,56.7,49.66"/>
	</g>
	<g>
		<defs>
			<rect id="SVGID_65_" x="54.76" y="47.42" width="2.81" height="2.35"/>
		</defs>
		<clipPath id="SVGID_66_">
			<use xlink:href="#SVGID_65_"  style="overflow:visible;"/>
		</clipPath>
		<path class="st56" d="M56.73,49.13c-0.17,0.02-1.85,0.73-1.94,0.63c-0.09-0.1,0.04-0.62,0.04-0.62s0.09-0.22,0.75-0.8
			c0.66-0.57,1.23-0.92,1.23-0.92l0.41,0.11l0.34,0.32l-0.4,0.6L56.73,49.13z"/>
	</g>
	<g>
		<defs>
			<rect id="SVGID_67_" x="57.99" y="45.1" width="1.09" height="1.56"/>
		</defs>
		<clipPath id="SVGID_68_">
			<use xlink:href="#SVGID_67_"  style="overflow:visible;"/>
		</clipPath>
		<path class="st57" d="M59.08,46.13l-0.46-0.89c0,0-0.44-0.29-0.55-0.04C57.96,45.46,58,46.22,58,46.22l0.49,0.44L59.08,46.13z"/>
	</g>
	<g>
		<defs>
			<rect id="SVGID_69_" x="61.4" y="47.1" width="1.94" height="2.8"/>
		</defs>
		<clipPath id="SVGID_70_">
			<use xlink:href="#SVGID_69_"  style="overflow:visible;"/>
		</clipPath>
		<path class="st58" d="M62.7,49.39c0.7,0.14-0.35-0.15-0.26-0.38c0.09-0.23-0.11-0.33,0.04-0.61c0.15-0.28,0.08-1.15,0.08-1.15
			l-0.32-0.15l-0.67,0.34c0,0-0.32,0.57-0.05,0.76c0.27,0.19,0.73,0.62,0.73,0.62s-0.23,0.59,0.44,0.83l0.66,0.24"/>
	</g>
	<path class="st59" d="M59.63,48.65c0,0,4.65-2.35,3.61-0.24"/>
	<path class="st25" d="M62.76,48.42c0.01-0.13,0.21-0.22,0.45-0.2c0.24,0.02,0.43,0.13,0.42,0.26c-0.01,0.13-0.21,0.22-0.45,0.2
		C62.94,48.66,62.76,48.55,62.76,48.42"/>
	<path class="st26" d="M60.81,52.63c0.52-0.27,0.84,0.05,1.09-0.46c0.25-0.51,0.23-2.09,0.23-2.09l-0.47-1.23l-1.25-0.61
		c0,0-0.44,0.09-0.56-0.21c-0.12-0.3-0.41-0.57-0.41-0.57s-0.56-0.15-0.71-0.05c-0.15,0.1-0.18,0.04-0.53,0.19
		c-0.35,0.16-0.68,0.59-0.68,0.59l-0.29,1.23c0,0-0.37,0.75-0.33,1.23c0.04,0.48,0.11,0.41,0.09,0.88
		c-0.01,0.47-0.29,0.63-0.07,1.02c0.22,0.4-0.26,0.18,0.29,0.54c0.55,0.36,0.35,0.49,0.89,0.57c0.55,0.07,0.41,0.18,0.79,0.05
		c0.38-0.13,0.4,0.05,0.82-0.21c0.42-0.26,0.21,0.03,0.61-0.36C60.71,52.75,60.81,52.63,60.81,52.63"/>
	<g>
		<defs>
			<rect id="SVGID_71_" x="58.29" y="48.62" width="2.23" height="3.22"/>
		</defs>
		<clipPath id="SVGID_72_">
			<use xlink:href="#SVGID_71_"  style="overflow:visible;"/>
		</clipPath>
		<path class="st60" d="M60.52,49.54c-0.04,0.53,0.16,1.04-0.55,1.52c-0.71,0.48-0.96,1.2-1.24,0.45c-0.28-0.75-0.59-0.78-0.34-1.52
			c0.26-0.74,0.73-1.21,0.73-1.21s0.77-0.29,1.01-0.1C60.36,48.87,60.52,49.54,60.52,49.54"/>
	</g>
</g>
</svg>
