<?xml version="1.0" encoding="utf-8"?>
<!-- Generator: Adobe Illustrator 23.1.1, SVG Export Plug-In . SVG Version: 6.00 Build 0)  -->
<svg version="1.1" id="Layer_2" xmlns="http://www.w3.org/2000/svg" xmlns:xlink="http://www.w3.org/1999/xlink" x="0px" y="0px"
	 viewBox="0 0 108 108" style="enable-background:new 0 0 108 108;" xml:space="preserve">
<style type="text/css">
	.st0{fill:#567E39;}
	.st1{fill:none;stroke:#718537;stroke-width:0.6775;stroke-miterlimit:10;}
	.st2{fill:#A5C239;}
	.st3{fill:#84B541;}
	.st4{fill:#91BB3E;}
	.st5{fill:#AFCB36;}
	.st6{fill:#92B83F;}
	.st7{fill:#A5BE3B;}
	.st8{fill:#6A963F;}
	.st9{fill:#7CAE41;}
	.st10{fill:#9BAC3A;}
	.st11{fill:#A4C839;}
	.st12{fill:#4E9B44;}
	.st13{fill:#72AA42;}
	.st14{fill:#619440;}
	.st15{fill:#568541;}
</style>
<g>
	<path class="st0" d="M37.5,31.6c-2.7,2.8-2.7,7.2-8.4,11s-6.6,7.7-7.2,11.4c-0.6,3.7-4.7,1.5-0.4,8.3s6.9,14.8,14.4,20.3
		s11.1,6.6,16.8,6.5c5.7-0.1,13.3-4.8,18.2-8.4c4.8-3.6,9.1-5.8,11.6-11.9c2.5-6.1,6.2-9.2,2.2-16.9c-4-7.7,0.1-5.8-7.4-12.4
		s-11-8.9-14.7-11.7c-3.7-2.8-8.3-6.6-11.5-6c-3.3,0.5-6.1,1-6.7,2.4C43.7,25.6,37.5,31.6,37.5,31.6z"/>
	<path class="st1" d="M61.3,71.8c-1.6-0.2-4.6,0-6.7,0.1"/>
	<path class="st1" d="M59.9,67.2c-1.2,2-3.5,4.4-5.8,5.4"/>
	<path class="st1" d="M55.8,65.9c0.8,2.6,1.8,4.8-0.8,6.1"/>
	<path class="st1" d="M49.8,74.8c-2.4,2.2-5.3,4.2-7.8,4.8"/>
	<path class="st1" d="M50.8,80.3c-3.3-0.8-8.5-0.7-9.6-0.7"/>
	<path class="st1" d="M45.2,74.9c0.3,2.1,1.1,3.3-2.5,4.8"/>
	<path class="st2" d="M63.9,75.7c-1.3,0-1.7,0.6-3.6-1.9c-1.9-2.5-1.9-2.5-1.9-2.5s0.6-0.3,1.2-0.8c0.6-0.4,2.8-2.2,4.8-0.9
		s3.1,2.3,3.4,2.7c0.3,0.4,1.5,1.4,1.8,1.7"/>
	<path class="st3" d="M66.8,60.9c-0.9,1.5,0.2,3.9-1.4,5.6c-1.6,1.7-5,2.2-6.1,2.6c-1,0.3-0.7,1.1-0.5-0.6s-0.3-2,0.3-3.5
		c0.6-1.5,3.2-3.3,4.2-3.3C64.3,61.6,66.8,60.9,66.8,60.9z"/>
	<path class="st4" d="M56.7,68.8c0.1-0.5,0.5-0.9,0.9-3.1c0.4-2.2,0.4-4-1.2-4.7c-1.6-0.7-2.1-0.2-3-1.3c-1-1.1-1-1.1-1-1.1
		s-0.4,1.9-0.7,4.6c-0.3,2.7,2.2,4.4,3.3,4.9C56,68.5,56.7,68.8,56.7,68.8z"/>
	<path class="st5" d="M56.6,70c0,0-1.3,0.9-1.6,3c-0.3,2.1-1.7,4.3-4,3.9c-2.2-0.3-3.6,0.2-3.6,0.2s0.3,0.1,0.5-1.8s1.8-4.3,3.7-4.7
		C53.5,70.1,56.6,70,56.6,70z"/>
	<path class="st6" d="M57.5,83.1c0,0-2.3-3.1-4-4.3s-2.8-1.5-4.3-0.6c-1.5,0.9-2.6,1.1-2.6,1.1s2,1.9,2.4,3c0.4,1.1,2.1,2.5,3.3,2.1
		C53.5,84,57.5,83.1,57.5,83.1z"/>
	<path class="st7" d="M45.5,76.9c0,0,1-1.5,1.5-3.4c0.5-1.9,0.7-2.9-0.2-3.9c-0.8-0.9-1.8-1.6-2.8-2.3c-1-0.7-1.5-0.9-1.5-1.3
		s0.3,0.6-0.6,2.7c-0.9,2.1-1.6,3-1,4c0.6,1,1.9,1.2,2.8,2C44.6,75.6,45.5,76.9,45.5,76.9z"/>
	<path class="st1" d="M26.6,75.7c1.6,0.3,4.6,0.4,6.7,0.4"/>
	<path class="st1" d="M27.6,80.3c1.3-1.9,3.8-4.1,6.2-5"/>
	<path class="st1" d="M31.6,82c-0.6-2.6-1.5-4.9,1.3-6"/>
	<path class="st1" d="M38.3,73.5c2.5-2.1,5.6-3.8,8.1-4.2"/>
	<path class="st1" d="M37.6,67.9c3.2,1,8.4,1.3,9.5,1.4"/>
	<path class="st1" d="M42.8,73.8c-0.2-2.1-0.8-3.4,2.8-4.6"/>
	<path class="st8" d="M24.3,71.6c1.3,0.1,1.7-0.5,3.4,2.1c1.7,2.6,1.7,2.6,1.7,2.6s-0.6,0.3-1.2,0.7c-0.7,0.4-3,2-4.9,0.6
		c-1.9-1.4-2.9-2.5-3.2-2.9c-0.3-0.4-1.4-1.5-1.7-1.8"/>
	<path class="st9" d="M20.2,86.2c1-1.4,0.1-3.9,1.9-5.4c1.7-1.6,5.2-1.9,6.2-2.1c1-0.2,0.8-1.1,0.4,0.7c-0.4,1.8,0.2,2-0.5,3.4
		c-0.7,1.4-3.5,3-4.4,2.9C22.8,85.6,20.2,86.2,20.2,86.2z"/>
	<path class="st4" d="M30.9,79c-0.1,0.5-0.6,0.9-1.1,3.1s-0.7,4,0.9,4.8c1.6,0.8,2.1,0.3,2.9,1.5c0.9,1.2,0.9,1.2,0.9,1.2
		s0.5-1.9,1-4.5c0.5-2.7-1.8-4.5-2.9-5.1C31.5,79.4,30.9,79,30.9,79z"/>
	<path class="st10" d="M31.1,77.8c0,0,1.4-0.8,1.9-2.8c0.5-2.1,2-4.1,4.2-3.6c2.2,0.5,3.6,0.1,3.6,0.1s-0.3-0.1-0.6,1.7
		s-2.1,4.1-4.1,4.4C34.2,77.9,31.1,77.8,31.1,77.8z"/>
	<path class="st6" d="M31.2,64.7c0,0,2.1,3.3,3.7,4.5c1.6,1.2,2.7,1.7,4.2,1c1.5-0.8,2.7-0.9,2.7-0.9s-1.9-2-2.2-3.1
		c-0.3-1.1-1.9-2.6-3.1-2.4C35.3,64,31.2,64.7,31.2,64.7z"/>
	<path class="st7" d="M42.6,71.7c0,0-1.1,1.4-1.7,3.3s-0.9,2.9-0.1,3.9c0.8,1,1.7,1.7,2.6,2.5c1,0.8,1.4,1,1.4,1.4
		c0,0.5-0.3-0.6,0.8-2.6c1-2,1.8-2.9,1.3-3.9c-0.5-1-1.8-1.3-2.6-2.2C43.5,73.1,42.6,71.7,42.6,71.7z"/>
	<path class="st1" d="M23.4,64.8c0.5,1.5,2,4.1,3,6"/>
	<path class="st1" d="M19.9,68c2.3,0.2,5.5,1.2,7.4,2.8"/>
	<path class="st1" d="M20.4,72.3c2-1.8,3.5-3.7,5.8-1.9"/>
	<path class="st1" d="M31.1,73.8c3,1.1,6.2,3,7.7,4.9"/>
	<path class="st1" d="M35.6,70.5c0.7,3.3,3.1,7.9,3.5,8.9"/>
	<path class="st1" d="M33.1,77.9c1.7-1.2,2.5-2.4,5.4,0.1"/>
	<path class="st2" d="M25.8,60.7c0.6,1.2,1.3,1.2-0.1,4.1s-1.4,2.8-1.4,2.8s-0.6-0.4-1.2-0.7c-0.6-0.4-3.2-1.6-3-3.9
		c0.3-2.4,0.7-3.8,0.9-4.2c0.2-0.4,0.6-2,0.7-2.4"/>
	<path class="st0" d="M11.1,64.6c1.7,0.2,3.4-1.8,5.6-1.1s4.2,3.6,4.9,4.3s1.3,0.2-0.4,0.7c-1.7,0.6-1.6,1.2-3.2,1.3
		c-1.6,0.1-4.3-1.5-4.8-2.4C12.9,66.5,11.1,64.6,11.1,64.6z"/>
	<path class="st4" d="M22.7,70.2c-0.5,0.1-1.1-0.1-3.2,0.6c-2.2,0.6-3.8,1.4-3.7,3.2c0.1,1.8,0.8,1.9,0.2,3.3
		c-0.6,1.4-0.6,1.4-0.6,1.4s1.9-0.5,4.5-1.4c2.6-0.9,3-3.9,3-5.1C22.7,70.9,22.7,70.2,22.7,70.2z"/>
	<path class="st5" d="M23.8,69.8c0,0,1.3,0.8,3.4,0.2c2-0.6,4.6-0.3,5.3,1.9c0.7,2.2,1.7,3.1,1.7,3.1s0-0.3-1.8,0.4
		c-1.7,0.7-4.6,0.2-5.9-1.3C25.3,72.5,23.8,69.8,23.8,69.8z"/>
	<path class="st6" d="M35.3,63.3c0,0-1.8,3.4-2.1,5.5c-0.3,2-0.2,3.2,1.3,4.1c1.4,0.9,2.1,1.8,2.1,1.8s0.8-2.7,1.6-3.5
		c0.8-0.8,1.3-2.9,0.5-3.9C37.8,66.5,35.3,63.3,35.3,63.3z"/>
	<path class="st7" d="M34.9,76.7c0,0-1.8-0.2-3.7,0.1c-1.9,0.4-2.9,0.7-3.4,1.8c-0.5,1.2-0.6,2.3-0.8,3.5c-0.2,1.2-0.1,1.7-0.5,1.9
		c-0.4,0.2,0.4-0.5,2.7-0.7c2.2-0.1,3.4,0.1,4-0.8s0.2-2.2,0.6-3.4C34.1,78.1,34.9,76.7,34.9,76.7z"/>
	<path class="st1" d="M34.3,58.4c-0.5,1.6-0.8,4.5-1,6.6"/>
	<path class="st1" d="M29.6,59c1.8,1.5,3.8,4.2,4.4,6.6"/>
	<path class="st1" d="M27.6,62.8c2.7-0.4,5-1,5.8,1.8"/>
	<path class="st1" d="M35.4,70.2c1.8,2.7,3.3,6,3.5,8.5"/>
	<path class="st1" d="M41,70.1c-1.3,3.1-2.1,8.3-2.3,9.3"/>
	<path class="st1" d="M34.7,74.7c2.1,0,3.5-0.5,4.3,3.2"/>
	<path class="st2" d="M38.6,56.5c-0.2,1.3,0.3,1.8-2.4,3.2c-2.8,1.5-2.8,1.5-2.8,1.5s-0.2-0.6-0.5-1.3c-0.3-0.7-1.7-3.1-0.1-4.9
		s2.8-2.7,3.2-2.9c0.4-0.2,1.7-1.3,2-1.5"/>
	<path class="st0" d="M24.4,51.1c1.3,1.1,3.9,0.5,5.3,2.3c1.4,1.9,1.4,5.3,1.5,6.4c0.1,1,1,0.9-0.7,0.4c-1.7-0.5-2,0-3.4-0.8
		c-1.4-0.8-2.7-3.7-2.5-4.7C24.8,53.7,24.4,51.1,24.4,51.1z"/>
	<path class="st4" d="M30.6,62.4c-0.4-0.1-0.8-0.7-3-1.4c-2.1-0.7-3.9-1.1-4.8,0.4c-0.9,1.5-0.5,2-1.8,2.8c-1.3,0.8-1.3,0.8-1.3,0.8
		s1.8,0.7,4.4,1.5c2.6,0.8,4.7-1.4,5.3-2.4C30.2,63,30.6,62.4,30.6,62.4z"/>
	<path class="st5" d="M31.8,62.7c0,0,0.6,1.4,2.7,2.1c2,0.7,3.9,2.4,3.2,4.6c-0.7,2.1-0.4,3.6-0.4,3.6s0.1-0.3-1.7-0.7
		c-1.8-0.4-3.9-2.5-4-4.5C31.4,65.7,31.8,62.7,31.8,62.7z"/>
	<path class="st6" d="M44.9,64c0,0-3.5,1.8-4.9,3.3c-1.4,1.5-2,2.5-1.3,4.1c0.6,1.6,0.7,2.7,0.7,2.7s2.2-1.7,3.3-1.9
		c1.1-0.2,2.8-1.6,2.6-2.9C45.1,68.1,44.9,64,44.9,64z"/>
	<path class="st7" d="M36.8,74.8c0,0-1.3-1.2-3.1-2c-1.8-0.8-2.8-1.2-3.8-0.5c-1,0.7-1.9,1.5-2.7,2.4c-0.9,0.9-1.1,1.3-1.5,1.3
		c-0.5,0,0.7-0.2,2.5,1c1.9,1.2,2.7,2.1,3.8,1.7c1.1-0.4,1.5-1.6,2.5-2.4C35.3,75.5,36.8,74.8,36.8,74.8z"/>
	<path class="st1" d="M44.9,58.8c-1.2,1.1-2.9,3.5-4.1,5.3"/>
	<path class="st1" d="M40.5,57c0.8,2.2,1.2,5.5,0.6,7.9"/>
	<path class="st1" d="M36.9,59.3c2.5,1,4.9,1.6,4.2,4.5"/>
	<path class="st1" d="M40,69.6c0.3,3.2,0,6.8-1.1,9.1"/>
	<path class="st1" d="M45,72.2c-2.7,2-5.9,6.2-6.6,7"/>
	<path class="st1" d="M37.2,73.2c1.8,1.1,3.3,1.2,2.2,4.9"/>
	<path class="st2" d="M49.6,59.2c-0.8,1-0.6,1.7-3.7,1.6s-3.1-0.1-3.1-0.1s0.1-0.7,0.2-1.4c0.1-0.7,0-3.6,2.3-4.4
		c2.3-0.8,3.7-1,4.2-1c0.5,0,2.1-0.3,2.5-0.3"/>
	<path class="st0" d="M39.9,47.6c0.6,1.6,3.1,2.3,3.4,4.6c0.3,2.3-1.4,5.3-1.8,6.3c-0.4,1,0.4,1.3-0.8,0c-1.2-1.3-1.7-1-2.5-2.4
		c-0.8-1.4-0.5-4.6,0.1-5.3C38.9,50,39.9,47.6,39.9,47.6z"/>
	<path class="st4" d="M39.7,60.4c-0.3-0.3-0.4-1-1.9-2.7c-1.5-1.7-2.9-2.9-4.4-2c-1.5,0.9-1.4,1.5-2.9,1.6c-1.5,0-1.5,0-1.5,0
		s1.3,1.5,3.1,3.4c1.9,2,4.8,1,5.8,0.5C39.1,60.8,39.7,60.4,39.7,60.4z"/>
	<path class="st5" d="M40.5,61.3c0,0-0.1,1.5,1.3,3.1c1.4,1.6,2.2,4,0.6,5.5s-2.1,2.9-2.1,2.9s0.3-0.2-1.1-1.5
		c-1.4-1.3-2.2-4.1-1.3-5.9C38.7,63.7,40.5,61.3,40.5,61.3z"/>
	<path class="st6" d="M51.3,68.8c0,0-3.9-0.2-5.8,0.5c-1.9,0.6-2.9,1.2-3.2,2.9s-0.8,2.7-0.8,2.7s2.7-0.4,3.8,0s3.2,0,3.7-1.2
		C49.5,72.5,51.3,68.8,51.3,68.8z"/>
	<path class="st7" d="M39,74.2c0,0-0.6-1.7-1.7-3.3c-1.1-1.6-1.9-2.4-3.1-2.3s-2.4,0.4-3.6,0.8c-1.2,0.4-1.6,0.6-2,0.4
		c-0.4-0.3,0.7,0.2,1.7,2.1c1.1,2,1.3,3.1,2.4,3.3c1.1,0.2,2.1-0.7,3.3-0.9C37.4,74.1,39,74.2,39,74.2z"/>
	<path class="st1" d="M52.6,62.7c-1.5,0.6-4.1,2.1-5.9,3.2"/>
	<path class="st1" d="M49.2,59.4c-0.1,2.3-1.1,5.5-2.6,7.5"/>
	<path class="st1" d="M45,60c1.9,1.9,3.8,3.4,2.1,5.8"/>
	<path class="st1" d="M43.8,70.8c-1,3.1-2.7,6.3-4.6,7.9"/>
	<path class="st1" d="M47.3,75.1c-3.3,0.8-7.8,3.4-8.8,3.8"/>
	<path class="st1" d="M39.8,72.9c1.2,1.7,2.5,2.4,0,5.4"/>
	<path class="st2" d="M56.7,65c-1.2,0.6-1.2,1.3-4.1,0c-2.9-1.3-2.9-1.3-2.9-1.3s0.3-0.6,0.7-1.2s1.5-3.3,3.8-3.1
		c2.4,0.2,3.8,0.6,4.2,0.8c0.4,0.2,2,0.5,2.4,0.7"/>
	<path class="st0" d="M52.4,50.4c-0.1,1.7,2,3.4,1.3,5.6c-0.6,2.2-3.4,4.3-4.2,5.1c-0.8,0.7-0.1,1.3-0.7-0.3
		c-0.6-1.7-1.2-1.6-1.4-3.2c-0.2-1.6,1.3-4.4,2.2-4.8C50.5,52.3,52.4,50.4,52.4,50.4z"/>
	<path class="st4" d="M47.2,62.2c-0.2-0.4,0-1.1-0.7-3.2c-0.7-2.2-1.5-3.8-3.3-3.6c-1.8,0.2-1.9,0.8-3.3,0.3
		c-1.4-0.6-1.4-0.6-1.4-0.6s0.6,1.9,1.5,4.4s4,2.8,5.2,2.8C46.4,62.2,47.2,62.2,47.2,62.2z"/>
	<path class="st5" d="M47.6,63.3c0,0-0.7,1.4-0.1,3.4c0.7,2,0.5,4.6-1.7,5.3c-2.1,0.7-3.1,1.8-3.1,1.8s0.3-0.1-0.4-1.8
		c-0.7-1.7-0.4-4.6,1.1-5.9C44.9,64.8,47.6,63.3,47.6,63.3z"/>
	<path class="st6" d="M54.5,74.5c0,0-3.5-1.7-5.5-1.9s-3.2,0-4.1,1.4c-0.9,1.5-1.8,2.2-1.8,2.2s2.7,0.7,3.5,1.5
		c0.8,0.8,3,1.2,3.9,0.4C51.4,77.2,54.5,74.5,54.5,74.5z"/>
	<path class="st7" d="M41,74.6c0,0,0.1-1.8-0.3-3.7c-0.4-1.9-0.8-2.9-1.9-3.3c-1.2-0.4-2.3-0.6-3.6-0.7c-1.3-0.1-1.7-0.1-2-0.5
		C33,66,33.9,66.8,34,69c0.2,2.2,0,3.4,0.9,4c1,0.6,2.2,0.2,3.4,0.5C39.6,73.9,41,74.6,41,74.6z"/>
	<path class="st1" d="M59.3,73.7c-1.6-0.4-4.5-0.6-6.6-0.7"/>
	<path class="st1" d="M58.5,69c-1.4,1.8-4,3.9-6.4,4.6"/>
	<path class="st1" d="M54.7,67.2c0.5,2.7,1.2,5-1.6,5.9"/>
	<path class="st1" d="M47.5,75.3c-2.6,1.9-5.8,3.5-8.3,3.8"/>
	<path class="st1" d="M47.9,80.9c-3.1-1.2-8.3-1.8-9.4-1.9"/>
	<path class="st1" d="M43,74.7c0,2.1,0.7,3.4-3.1,4.4"/>
	<path class="st2" d="M61.4,78c-1.3-0.2-1.7,0.4-3.3-2.3S56.5,73,56.5,73s0.6-0.3,1.3-0.6c0.7-0.3,3.1-1.9,4.9-0.3s2.8,2.7,3,3.1
		s1.3,1.6,1.6,1.9"/>
	<path class="st0" d="M66.2,63.6c-1.1,1.3-0.3,3.9-2.1,5.3c-1.8,1.5-5.3,1.6-6.3,1.8c-1,0.2-0.9,1-0.4-0.7c0.5-1.7-0.1-2,0.7-3.4
		c0.8-1.4,3.6-2.8,4.6-2.7C63.6,64,66.2,63.6,66.2,63.6z"/>
	<path class="st4" d="M55.2,70.2c0.1-0.5,0.6-0.9,1.3-3c0.7-2.2,0.9-3.9-0.6-4.8c-1.6-0.9-2-0.4-2.9-1.7c-0.8-1.3-0.8-1.3-0.8-1.3
		s-0.6,1.9-1.3,4.5c-0.7,2.6,1.6,4.6,2.6,5.2C54.6,69.8,55.2,70.2,55.2,70.2z"/>
	<path class="st5" d="M54.9,71.4c0,0-1.4,0.7-2,2.7c-0.6,2.1-2.3,4-4.4,3.4c-2.2-0.6-3.6-0.3-3.6-0.3s0.3,0.1,0.7-1.7
		c0.4-1.8,2.3-4,4.3-4.2C51.9,71.1,54.9,71.4,54.9,71.4z"/>
	<path class="st6" d="M54.1,84.5c0,0-1.9-3.4-3.5-4.7c-1.6-1.3-2.6-1.9-4.1-1.2s-2.7,0.8-2.7,0.8s1.8,2.1,2,3.3
		c0.2,1.1,1.7,2.7,3,2.5C50.1,84.9,54.1,84.5,54.1,84.5z"/>
	<path class="st7" d="M43.1,76.8c0,0,1.1-1.4,1.9-3.2c0.8-1.8,1.1-2.8,0.3-3.8c-0.7-1-1.6-1.8-2.5-2.6c-0.9-0.8-1.4-1-1.3-1.5
		c0-0.5,0.2,0.7-0.9,2.6c-1.1,1.9-2,2.8-1.5,3.8s1.7,1.4,2.5,2.4C42.3,75.4,43.1,76.8,43.1,76.8z"/>
	<path class="st1" d="M54.8,66.8c-1.6,0.3-4.4,1.3-6.4,2"/>
	<path class="st1" d="M52.1,62.9c-0.5,2.2-2.1,5.2-4,6.9"/>
	<path class="st1" d="M47.8,62.8c1.5,2.2,3.1,4,1,6"/>
	<path class="st1" d="M44.6,73.1c-1.6,2.8-3.9,5.6-6,6.9"/>
	<path class="st1" d="M47.3,78c-3.4,0.2-8.3,1.8-9.4,2.1"/>
	<path class="st1" d="M40.3,74.4c0.9,1.9,2,2.9-1,5.3"/>
	<path class="st2" d="M58.4,69.8c-1.2,0.4-1.4,1.1-4-0.7c-2.6-1.8-2.6-1.8-2.6-1.8s0.4-0.5,0.9-1.1s2-2.9,4.4-2.3
		c2.3,0.6,3.6,1.3,4,1.6c0.4,0.3,1.9,0.9,2.2,1.1"/>
	<path class="st11" d="M56.9,54.8c-0.4,1.6,1.3,3.7,0.2,5.8s-4.2,3.6-5,4.2c-0.9,0.6-0.4,1.3-0.6-0.5c-0.3-1.8-0.9-1.8-0.8-3.4
		c0.1-1.6,2.2-4.1,3.1-4.3S56.9,54.8,56.9,54.8z"/>
	<path class="st12" d="M49.6,65.3c-0.1-0.5,0.2-1,0-3.3c-0.3-2.2-0.8-4-2.5-4.1c-1.8-0.1-2,0.5-3.3-0.3c-1.3-0.8-1.3-0.8-1.3-0.8
		s0.2,1.9,0.7,4.6c0.5,2.7,3.3,3.5,4.5,3.7C48.8,65.2,49.6,65.3,49.6,65.3z"/>
	<path class="st5" d="M49.8,66.5c0,0-1,1.2-0.7,3.3c0.3,2.1-0.4,4.6-2.7,4.9C44.2,75,43,75.9,43,75.9s0.3,0-0.1-1.8s0.5-4.6,2.2-5.6
		C46.9,67.5,49.8,66.5,49.8,66.5z"/>
	<path class="st6" d="M54.4,78.8c0,0-3.1-2.3-5.1-2.9c-2-0.6-3.1-0.6-4.3,0.6s-2.2,1.8-2.2,1.8s2.5,1.2,3.2,2.1s2.7,1.8,3.7,1.1
		C50.9,80.8,54.4,78.8,54.4,78.8z"/>
	<path class="st7" d="M41.2,76.3c0,0,0.5-1.7,0.4-3.7c0-2-0.2-3-1.3-3.6c-1.1-0.6-2.2-1-3.4-1.4c-1.2-0.4-1.7-0.4-1.8-0.8
		s0.5,0.5,0.2,2.7c-0.2,2.2-0.7,3.3,0.2,4.1c0.8,0.8,2.1,0.6,3.2,1.1C39.9,75.3,41.2,76.3,41.2,76.3z"/>
	<path class="st13" d="M33.3,62.9c-0.3,1.6-0.2,4.6-0.2,6.7"/>
	<path class="st13" d="M28.7,64.1c1.9,1.3,4.3,3.7,5.2,6"/>
	<path class="st13" d="M27.2,68.1c2.6-0.7,4.8-1.6,6,1.1"/>
	<path class="st13" d="M35.9,74.5c2.1,2.4,4,5.5,4.5,8"/>
	<path class="st13" d="M41.4,73.6c-0.9,3.2-1,8.5-1.1,9.5"/>
	<path class="st13" d="M35.7,79c2.1-0.2,3.4-1,4.7,2.7"/>
	<path class="st14" d="M37.4,60.4c0,1.3,0.6,1.7-2,3.5s-2.6,1.8-2.6,1.8s-0.3-0.6-0.7-1.2c-0.4-0.6-2.1-2.9-0.7-4.9
		c1.4-2,2.4-3,2.8-3.3c0.4-0.3,1.5-1.5,1.8-1.7"/>
	<path class="st14" d="M22.6,56.9c1.4,0.9,3.9,0,5.5,1.7c1.6,1.7,2,5.1,2.3,6.2c0.3,1,1.1,0.8-0.7,0.5c-1.8-0.3-2,0.3-3.4-0.4
		c-1.5-0.7-3.1-3.4-3.1-4.3C23.3,59.4,22.6,56.9,22.6,56.9z"/>
	<path class="st14" d="M30.1,67.3c-0.5-0.1-0.9-0.6-3.1-1s-4-0.6-4.7,1c-0.7,1.6-0.2,2.1-1.4,3c-1.2,0.9-1.2,0.9-1.2,0.9
		s1.9,0.4,4.6,0.9c2.7,0.5,4.4-2,5-3.1S30.1,67.3,30.1,67.3z"/>
	<path class="st14" d="M31.3,67.5c0,0,0.8,1.3,2.9,1.8c2.1,0.4,4.2,1.9,3.8,4.1c-0.4,2.2,0,3.6,0,3.6s0.1-0.3-1.7-0.5
		c-1.8-0.2-4.2-2-4.6-3.9C31.3,70.5,31.3,67.5,31.3,67.5z"/>
	<path class="st13" d="M44.5,67.1c0,0-3.2,2.2-4.4,3.8c-1.2,1.7-1.6,2.7-0.8,4.2c0.8,1.5,1,2.6,1,2.6s2-2,3.1-2.3
		c1.1-0.3,2.6-2,2.2-3.2C45.3,71.2,44.5,67.1,44.5,67.1z"/>
	<path class="st13" d="M37.8,78.8c0,0-1.5-1-3.4-1.6c-1.9-0.6-2.9-0.8-3.9,0c-0.9,0.8-1.6,1.7-2.4,2.7c-0.8,1-0.9,1.5-1.4,1.5
		s0.6-0.3,2.7,0.7c2,0.9,2.9,1.7,3.9,1.2s1.2-1.8,2.2-2.7C36.5,79.7,37.8,78.8,37.8,78.8z"/>
	<path class="st1" d="M58.6,38.6c-1.5,0.6-4,2.2-5.8,3.3"/>
	<path class="st1" d="M55.2,35.3c-0.1,2.3-1,5.5-2.5,7.5"/>
	<path class="st1" d="M51,36c1.9,1.9,3.9,3.3,2.2,5.7"/>
	<path class="st1" d="M49.9,46.8c-1,3.1-2.7,6.3-4.5,8"/>
	<path class="st1" d="M53.5,51.1c-3.3,0.9-7.8,3.5-8.7,3.9"/>
	<path class="st1" d="M46,49c1.3,1.7,2.6,2.4,0.1,5.4"/>
	<path class="st2" d="M62.7,40.8c-1.1,0.6-1.2,1.3-4,0.1c-2.9-1.2-2.9-1.2-2.9-1.2s0.3-0.6,0.7-1.2c0.4-0.7,1.4-3.3,3.8-3.1
		c2.4,0.2,3.8,0.5,4.2,0.7c0.4,0.2,2,0.5,2.4,0.6"/>
	<path class="st3" d="M58.2,26.3c-0.1,1.7,2,3.3,1.4,5.6c-0.6,2.2-3.3,4.4-4.1,5.1c-0.7,0.7-0.1,1.3-0.7-0.3
		c-0.6-1.7-1.2-1.6-1.4-3.2c-0.2-1.6,1.3-4.4,2.1-4.9C56.4,28.2,58.2,26.3,58.2,26.3z"/>
	<path class="st4" d="M53.2,38.1c-0.2-0.4,0-1.1-0.7-3.2c-0.7-2.1-1.6-3.7-3.3-3.5c-1.8,0.2-1.9,0.9-3.3,0.3
		c-1.4-0.5-1.4-0.5-1.4-0.5s0.6,1.9,1.6,4.4c1,2.5,4,2.8,5.2,2.7C52.4,38.2,53.2,38.1,53.2,38.1z"/>
	<path class="st5" d="M53.6,39.3c0,0-0.7,1.4,0,3.4c0.7,2,0.5,4.6-1.6,5.3s-3.1,1.9-3.1,1.9s0.3-0.1-0.5-1.8s-0.5-4.6,1-5.9
		C51,40.8,53.6,39.3,53.6,39.3z"/>
	<path class="st6" d="M60.7,50.4c0,0-3.5-1.7-5.6-1.8c-2-0.2-3.2,0-4,1.5c-0.9,1.5-1.7,2.2-1.7,2.2s2.7,0.7,3.6,1.4
		c0.8,0.8,3,1.2,3.9,0.3C57.6,53.1,60.7,50.4,60.7,50.4z"/>
	<path class="st7" d="M47.2,50.6c0,0,0.1-1.8-0.3-3.7c-0.4-1.9-0.8-2.9-2-3.3c-1.2-0.4-2.3-0.5-3.6-0.7s-1.7,0-2-0.4
		c-0.3-0.4,0.6,0.4,0.8,2.6c0.2,2.2,0,3.4,1,4c1,0.6,2.2,0.1,3.4,0.5C45.8,49.9,47.2,50.6,47.2,50.6z"/>
	<path class="st1" d="M30,58.6c1.6-0.5,4.2-1.9,6-2.8"/>
	<path class="st1" d="M33.2,62.2c0.3-2.3,1.4-5.5,3-7.3"/>
	<path class="st1" d="M37.4,61.8c-1.8-2-3.6-3.6-1.7-5.9"/>
	<path class="st1" d="M39.2,51.1c1.2-3,3.1-6.1,5.1-7.6"/>
	<path class="st1" d="M36,46.6c3.3-0.6,8-2.9,9-3.3"/>
	<path class="st1" d="M43.3,49.2c-1.1-1.8-2.4-2.6,0.3-5.4"/>
	<path class="st0" d="M26,56.1c1.2-0.5,1.3-1.2,4,0.2c2.8,1.5,2.8,1.5,2.8,1.5s-0.4,0.5-0.8,1.2c-0.4,0.6-1.6,3.2-4,2.8
		c-2.4-0.3-3.7-0.8-4.2-1c-0.4-0.2-2-0.7-2.4-0.8"/>
	<path class="st9" d="M29.4,70.9c0.2-1.7-1.8-3.5-1-5.7c0.8-2.2,3.7-4.1,4.5-4.8c0.8-0.7,0.2-1.3,0.7,0.4c0.5,1.7,1.1,1.7,1.2,3.3
		c0.1,1.6-1.6,4.3-2.5,4.7C31.4,69.2,29.4,70.9,29.4,70.9z"/>
	<path class="st4" d="M35.4,59.5c0.1,0.4-0.1,1.1,0.5,3.2c0.6,2.2,1.3,3.8,3.1,3.8s2-0.7,3.3-0.1c1.4,0.6,1.4,0.6,1.4,0.6
		s-0.5-1.9-1.3-4.5c-0.8-2.6-3.8-3.1-5-3.1C36.1,59.5,35.4,59.5,35.4,59.5z"/>
	<path class="st10" d="M35,58.3c0,0,0.8-1.3,0.3-3.4c-0.6-2.1-0.2-4.6,2-5.2c2.2-0.6,3.2-1.6,3.2-1.6s-0.3,0,0.3,1.8
		c0.6,1.8,0.1,4.6-1.5,5.9C37.7,57,35,58.3,35,58.3z"/>
	<path class="st6" d="M28.8,46.7c0,0,3.4,1.9,5.4,2.2c2,0.3,3.2,0.2,4.1-1.2c1-1.4,1.9-2.1,1.9-2.1s-2.6-0.9-3.4-1.7
		c-0.8-0.8-2.9-1.4-3.8-0.6C32.1,44.2,28.8,46.7,28.8,46.7z"/>
	<path class="st7" d="M42.2,47.5c0,0-0.3,1.8,0,3.7c0.3,1.9,0.6,3,1.7,3.4c1.2,0.5,2.3,0.7,3.5,0.9c1.2,0.2,1.7,0.2,1.9,0.6
		c0.2,0.4-0.5-0.4-0.6-2.7c-0.1-2.2,0.2-3.4-0.7-4.1c-0.9-0.7-2.2-0.3-3.4-0.7C43.6,48.3,42.2,47.5,42.2,47.5z"/>
	<path class="st1" d="M22,50.6c1.2,1.1,3.7,2.7,5.5,3.8"/>
	<path class="st1" d="M20.5,55.1c2.1-0.9,5.4-1.5,7.9-1.1"/>
	<path class="st1" d="M23,58.6c0.9-2.6,1.3-4.9,4.2-4.4"/>
	<path class="st1" d="M33.1,54.8c3.2-0.5,6.8-0.4,9.1,0.6"/>
	<path class="st1" d="M35.4,49.7c2.2,2.6,6.5,5.5,7.4,6.1"/>
	<path class="st1" d="M36.8,57.4c0.9-1.9,1-3.3,4.8-2.4"/>
	<path class="st2" d="M22.2,45.9c1.1,0.8,1.7,0.5,1.8,3.6s0.1,3.1,0.1,3.1s-0.7,0-1.4-0.1c-0.7,0-3.6,0.2-4.5-2
		c-0.9-2.2-1.2-3.6-1.2-4.1c0-0.5-0.4-2-0.5-2.4"/>
	<path class="st0" d="M11.1,56.3c1.6-0.7,2.1-3.3,4.4-3.7c2.3-0.4,5.4,1.1,6.4,1.4c1,0.3,1.2-0.5,0,0.8c-1.2,1.3-0.9,1.8-2.2,2.7
		c-1.4,0.9-4.5,0.8-5.3,0.2C13.6,57.1,11.1,56.3,11.1,56.3z"/>
	<path class="st4" d="M23.9,55.7c-0.3,0.3-1,0.4-2.6,2c-1.6,1.6-2.7,3-1.7,4.5c1,1.5,1.6,1.3,1.7,2.8c0.1,1.5,0.1,1.5,0.1,1.5
		s1.4-1.4,3.2-3.3s0.8-4.8,0.2-5.9C24.3,56.3,23.9,55.7,23.9,55.7z"/>
	<path class="st5" d="M24.8,54.8c0,0,1.6,0.1,3.1-1.5c1.5-1.5,3.9-2.5,5.5-0.9c1.6,1.6,3,1.9,3,1.9s-0.2-0.3-1.4,1.2
		c-1.2,1.4-4,2.4-5.8,1.7C27.3,56.5,24.8,54.8,24.8,54.8z"/>
	<path class="st6" d="M31.7,43.6c0,0,0,3.9,0.8,5.8c0.8,1.9,1.4,2.8,3.1,3c1.7,0.1,2.7,0.6,2.7,0.6s-0.6-2.7-0.2-3.8
		s-0.2-3.2-1.4-3.6C35.5,45.2,31.7,43.6,31.7,43.6z"/>
	<path class="st7" d="M37.8,55.6c0,0-1.7,0.7-3.2,1.9c-1.5,1.2-2.3,2-2.1,3.2c0.2,1.2,0.5,2.3,1,3.5c0.4,1.2,0.7,1.6,0.5,2
		c-0.2,0.4,0.1-0.7,2-1.9c1.9-1.2,3-1.5,3.2-2.6c0.1-1.1-0.8-2-1.1-3.3C37.8,57.2,37.8,55.6,37.8,55.6z"/>
	<path class="st1" d="M28.5,39.7c0.3,1.6,1.5,4.3,2.3,6.3"/>
	<path class="st1" d="M24.7,42.6c2.3,0.5,5.3,1.9,7,3.7"/>
	<path class="st1" d="M24.7,46.8c2.2-1.6,3.9-3.3,6-1.2"/>
	<path class="st1" d="M35.1,49.6c2.9,1.5,5.8,3.7,7.1,5.8"/>
	<path class="st1" d="M40,46.8c0.3,3.4,2.1,8.3,2.4,9.3"/>
	<path class="st1" d="M36.7,53.9c1.9-1,2.8-2.1,5.3,0.8"/>
	<path class="st2" d="M31.4,36c0.4,1.2,1.1,1.4-0.6,4s-1.7,2.6-1.7,2.6s-0.5-0.4-1.1-0.9c-0.6-0.5-3-1.9-2.5-4.3s1.1-3.7,1.4-4
		s0.8-1.9,1-2.3"/>
	<path class="st0" d="M16.3,38.1c1.7,0.4,3.6-1.4,5.7-0.5s3.8,4,4.4,4.9c0.6,0.9,1.3,0.3-0.5,0.7c-1.8,0.4-1.8,1-3.4,0.9
		s-4.1-2-4.5-2.9C17.9,40.2,16.3,38.1,16.3,38.1z"/>
	<path class="st4" d="M27.1,45c-0.5,0.1-1-0.2-3.3,0.2c-2.2,0.4-3.9,0.9-4,2.7c-0.1,1.8,0.5,2-0.2,3.3c-0.8,1.3-0.8,1.3-0.8,1.3
		s1.9-0.3,4.6-0.8s3.4-3.5,3.5-4.7C27.1,45.7,27.1,45,27.1,45z"/>
	<path class="st5" d="M28.3,44.8c0,0,1.2,0.9,3.3,0.6c2.1-0.4,4.6,0.2,5,2.5c0.4,2.2,1.4,3.3,1.4,3.3s0-0.3-1.8,0.2
		c-1.8,0.5-4.6-0.3-5.7-2C29.5,47.6,28.3,44.8,28.3,44.8z"/>
	<path class="st6" d="M40.5,39.6c0,0-2.2,3.2-2.7,5.2c-0.5,2-0.5,3.1,0.8,4.2s1.9,2.1,1.9,2.1s1.1-2.5,2-3.3
		c0.9-0.7,1.7-2.8,0.9-3.8C42.6,43.1,40.5,39.6,40.5,39.6z"/>
	<path class="st0" d="M38.5,52.9c0,0-1.7-0.4-3.7-0.3c-2,0.1-3,0.3-3.6,1.4c-0.6,1.1-0.9,2.2-1.2,3.4c-0.3,1.2-0.3,1.7-0.7,1.9
		c-0.4,0.2,0.5-0.5,2.7-0.4s3.3,0.5,4.1-0.3c0.8-0.9,0.5-2.1,1-3.3C37.6,54.2,38.5,52.9,38.5,52.9z"/>
	<path class="st1" d="M38,35c-0.5,1.5-0.8,4.5-1.1,6.6"/>
	<path class="st1" d="M33.2,35.6c1.7,1.5,3.7,4.2,4.3,6.7"/>
	<path class="st1" d="M31.2,39.3c2.7-0.3,5-0.9,5.8,1.9"/>
	<path class="st1" d="M38.9,46.9c1.8,2.7,3.2,6,3.4,8.5"/>
	<path class="st1" d="M44.5,46.8c-1.4,3.1-2.2,8.2-2.4,9.3"/>
	<path class="st1" d="M38.1,51.3c2.1,0.1,3.5-0.5,4.2,3.3"/>
	<path class="st2" d="M42.3,33.2c-0.2,1.3,0.3,1.8-2.5,3.2S37,37.8,37,37.8s-0.2-0.6-0.5-1.3c-0.3-0.7-1.7-3.2-0.1-4.9
		s2.8-2.6,3.2-2.8s1.7-1.2,2-1.5"/>
	<path class="st0" d="M28.2,27.6c1.3,1.1,3.9,0.5,5.2,2.4c1.4,1.9,1.3,5.4,1.4,6.4c0.1,1,1,0.9-0.7,0.4c-1.7-0.6-2,0-3.4-0.9
		c-1.4-0.9-2.6-3.8-2.5-4.7C28.5,30.2,28.2,27.6,28.2,27.6z"/>
	<path class="st4" d="M34.2,38.9c-0.4-0.2-0.8-0.7-2.9-1.5c-2.1-0.8-3.9-1.1-4.8,0.4s-0.5,2-1.8,2.8c-1.3,0.8-1.3,0.8-1.3,0.8
		s1.8,0.7,4.4,1.5c2.6,0.8,4.7-1.4,5.4-2.3C33.8,39.6,34.2,38.9,34.2,38.9z"/>
	<path class="st5" d="M35.3,39.3c0,0,0.6,1.4,2.6,2.1c2,0.7,3.9,2.5,3.1,4.6s-0.5,3.6-0.5,3.6s0.2-0.3-1.7-0.8
		c-1.8-0.5-3.9-2.5-4-4.5C34.9,42.3,35.3,39.3,35.3,39.3z"/>
	<path class="st6" d="M48.4,40.8c0,0-3.5,1.7-4.9,3.2c-1.4,1.5-2,2.5-1.4,4.1c0.6,1.6,0.6,2.7,0.6,2.7s2.2-1.7,3.4-1.9
		c1.1-0.2,2.8-1.6,2.7-2.8C48.6,44.9,48.4,40.8,48.4,40.8z"/>
	<path class="st7" d="M40.2,51.4c0,0-1.3-1.2-3.1-2.1c-1.8-0.9-2.8-1.2-3.8-0.5c-1.1,0.7-1.9,1.5-2.8,2.4c-0.9,0.9-1.1,1.3-1.6,1.3
		c-0.5,0,0.7-0.2,2.5,1c1.9,1.2,2.6,2.1,3.7,1.7c1.1-0.4,1.5-1.6,2.5-2.4C38.7,52.1,40.2,51.4,40.2,51.4z"/>
	<path class="st1" d="M46.6,34.8c-1.1,1.2-2.5,3.8-3.6,5.6"/>
	<path class="st1" d="M42,33.5c1,2.1,1.7,5.4,1.3,7.8"/>
	<path class="st1" d="M38.7,36.1c2.6,0.8,5,1.1,4.6,4.1"/>
	<path class="st1" d="M42.8,46.1c0.6,3.2,0.6,6.8-0.3,9.2"/>
	<path class="st1" d="M47.9,48.2c-2.5,2.3-5.3,6.7-5.9,7.6"/>
	<path class="st1" d="M40.3,49.9c1.9,0.9,3.4,0.9,2.6,4.7"/>
	<path class="st2" d="M51.3,34.8c-0.7,1.1-0.4,1.7-3.5,2C44.7,37,44.7,37,44.7,37s0-0.7,0-1.4c0-0.7-0.3-3.6,1.9-4.5
		c2.2-1,3.6-1.3,4.1-1.3c0.5,0,2-0.5,2.4-0.6"/>
	<path class="st0" d="M40.6,24.1c0.7,1.5,3.3,2,3.8,4.3s-0.9,5.4-1.2,6.4s0.5,1.2-0.8,0c-1.4-1.2-1.8-0.8-2.7-2.1
		c-0.9-1.3-0.9-4.5-0.4-5.3C39.8,26.6,40.6,24.1,40.6,24.1z"/>
	<path class="st4" d="M41.6,36.9c-0.3-0.3-0.5-1-2.1-2.5c-1.7-1.5-3.1-2.6-4.6-1.6c-1.5,1-1.3,1.6-2.8,1.8c-1.5,0.2-1.5,0.2-1.5,0.2
		s1.4,1.4,3.5,3.1c2.1,1.8,4.8,0.6,5.9,0C41,37.3,41.6,36.9,41.6,36.9z"/>
	<path class="st5" d="M42.5,37.7c0,0,0,1.6,1.6,3c1.6,1.4,2.6,3.8,1.1,5.5c-1.5,1.7-1.8,3.1-1.8,3.1s0.3-0.2-1.2-1.4
		c-1.5-1.1-2.6-3.9-1.9-5.7C40.9,40.3,42.5,37.7,42.5,37.7z"/>
	<path class="st6" d="M53.9,44.2c0,0-3.9,0.2-5.8,1c-1.9,0.8-2.8,1.5-2.9,3.2c-0.1,1.7-0.5,2.8-0.5,2.8s2.7-0.7,3.8-0.4
		c1.1,0.3,3.2-0.3,3.6-1.5C52.5,48.1,53.9,44.2,53.9,44.2z"/>
	<path class="st7" d="M42.2,50.7c0,0-0.7-1.6-2-3.1c-1.3-1.5-2.1-2.2-3.3-2c-1.2,0.2-2.3,0.6-3.5,1.1s-1.5,0.8-1.9,0.5
		s0.7,0.1,1.9,1.9c1.2,1.9,1.6,3,2.7,3.1s2-0.9,3.2-1.2C40.6,50.8,42.2,50.7,42.2,50.7z"/>
	<path class="st1" d="M57.8,41.2c-1.6,0.4-4.3,1.6-6.2,2.5"/>
	<path class="st1" d="M54.9,37.5c-0.4,2.3-1.7,5.4-3.4,7.2"/>
	<path class="st1" d="M50.6,37.7c1.7,2.1,3.4,3.8,1.4,6"/>
	<path class="st1" d="M48.2,48.2c-1.4,2.9-3.4,5.9-5.5,7.3"/>
	<path class="st1" d="M51.2,53c-3.3,0.4-8.2,2.5-9.2,2.8"/>
	<path class="st1" d="M44,49.9c1,1.8,2.2,2.7-0.6,5.3"/>
	<path class="st2" d="M61.7,43.9c-1.2,0.5-1.3,1.2-4-0.4c-2.7-1.6-2.7-1.6-2.7-1.6s0.4-0.5,0.8-1.1c0.4-0.6,1.8-3.1,4.2-2.6
		c2.3,0.5,3.7,1,4.1,1.2c0.4,0.2,1.9,0.8,2.3,0.9"/>
	<path class="st0" d="M59,29c-0.3,1.7,1.6,3.6,0.7,5.7c-0.9,2.1-3.9,3.9-4.7,4.6s-0.3,1.3-0.7-0.4c-0.4-1.7-1-1.7-1-3.3
		c0-1.6,1.8-4.2,2.7-4.6C56.9,30.6,59,29,59,29z"/>
	<path class="st4" d="M52.5,40.1c-0.1-0.5,0.2-1.1-0.3-3.3c-0.5-2.2-1.1-3.9-2.9-3.9c-1.8,0-2,0.6-3.3-0.1c-1.3-0.7-1.3-0.7-1.3-0.7
		s0.4,1.9,1,4.5c0.7,2.6,3.6,3.3,4.8,3.3C51.8,40.1,52.5,40.1,52.5,40.1z"/>
	<path class="st5" d="M52.8,41.3c0,0-0.9,1.3-0.4,3.4c0.5,2.1-0.1,4.6-2.3,5.1c-2.2,0.5-3.3,1.5-3.3,1.5s0.3,0-0.2-1.8
		c-0.5-1.8,0.1-4.6,1.8-5.8C50,42.5,52.8,41.3,52.8,41.3z"/>
	<path class="st6" d="M58.4,53.2c0,0-3.3-2.1-5.3-2.5c-2-0.4-3.1-0.4-4.2,1c-1.1,1.4-2,2-2,2s2.6,1,3.3,1.9s2.8,1.6,3.8,0.8
		C55,55.5,58.4,53.2,58.4,53.2z"/>
	<path class="st7" d="M45,51.7c0,0,0.3-1.8,0.1-3.7c-0.2-2-0.4-3-1.6-3.5c-1.1-0.5-2.2-0.8-3.5-1.1c-1.2-0.3-1.7-0.3-1.9-0.7
		c-0.2-0.4,0.5,0.5,0.5,2.7c-0.1,2.2-0.4,3.4,0.5,4.1c0.9,0.7,2.1,0.4,3.3,0.9C43.7,50.8,45,51.7,45,51.7z"/>
	<path class="st1" d="M50.5,37.4c-1.3,1-3.2,3.2-4.6,4.8"/>
	<path class="st1" d="M46.3,35.2c0.6,2.2,0.7,5.6-0.2,7.9"/>
	<path class="st1" d="M42.5,37.1c2.4,1.2,4.7,2.1,3.7,4.8"/>
	<path class="st1" d="M44.6,47.7c-0.1,3.3-0.7,6.8-2,8.9"/>
	<path class="st1" d="M49.3,50.8c-2.9,1.8-6.4,5.6-7.2,6.3"/>
	<path class="st1" d="M41.4,51c1.7,1.2,3.1,1.5,1.7,5.1"/>
	<path class="st2" d="M55.1,38.3c-0.9,0.9-0.7,1.6-3.8,1.3c-3.1-0.4-3.1-0.4-3.1-0.4s0.1-0.6,0.3-1.4s0.4-3.6,2.7-4.1
		c2.3-0.5,3.8-0.6,4.2-0.5c0.5,0.1,2.1-0.1,2.5-0.1"/>
	<path class="st11" d="M46.6,25.7c0.4,1.7,2.9,2.6,3,4.9s-1.9,5.2-2.4,6.1c-0.5,0.9,0.3,1.3-0.8-0.1c-1.1-1.4-1.6-1.1-2.3-2.6
		c-0.6-1.5-0.1-4.6,0.6-5.3S46.6,25.7,46.6,25.7z"/>
	<path class="st12" d="M45.2,38.5c-0.3-0.4-0.3-1-1.6-2.9c-1.3-1.8-2.6-3.1-4.2-2.4c-1.6,0.7-1.6,1.4-3,1.3
		c-1.5-0.1-1.5-0.1-1.5-0.1s1.1,1.6,2.8,3.7c1.7,2.1,4.6,1.5,5.8,1.1C44.5,38.8,45.2,38.5,45.2,38.5z"/>
	<path class="st5" d="M45.9,39.4c0,0-0.3,1.5,1,3.2c1.3,1.7,1.8,4.2,0,5.6c-1.8,1.3-2.4,2.7-2.4,2.7s0.3-0.2-0.9-1.6
		c-1.2-1.4-1.8-4.3-0.7-6C43.9,41.7,45.9,39.4,45.9,39.4z"/>
	<path class="st6" d="M55.9,48c0,0-3.9-0.6-5.8-0.1c-2,0.4-3,0.9-3.4,2.6c-0.4,1.7-1,2.6-1,2.6s2.8-0.1,3.8,0.4
		c1,0.5,3.2,0.3,3.8-0.8C53.8,51.5,55.9,48,55.9,48z"/>
	<path class="st7" d="M43.1,52.2c0,0-0.4-1.7-1.4-3.5c-1-1.7-1.6-2.6-2.9-2.6c-1.2,0-2.4,0.2-3.6,0.4c-1.2,0.2-1.7,0.5-2,0.2
		c-0.4-0.3,0.7,0.2,1.5,2.3c0.9,2.1,1,3.2,2.1,3.5C38,52.8,39,52,40.3,52C41.6,51.9,43.1,52.2,43.1,52.2z"/>
	<path class="st13" d="M29.8,44.2c0.5,1.5,2,4.1,3.1,5.9"/>
	<path class="st13" d="M26.3,47.4c2.3,0.2,5.5,1.2,7.4,2.8"/>
	<path class="st13" d="M26.9,51.7c2-1.9,3.5-3.7,5.8-1.9"/>
	<path class="st13" d="M37.6,53.1c3.1,1.1,6.2,2.9,7.8,4.8"/>
	<path class="st13" d="M42.1,49.7c0.7,3.3,3.2,7.9,3.6,8.9"/>
	<path class="st13" d="M39.6,57.2c1.7-1.2,2.5-2.5,5.4,0.1"/>
	<path class="st14" d="M32.2,40.1c0.6,1.2,1.3,1.2-0.1,4C30.7,47,30.7,47,30.7,47s-0.6-0.3-1.2-0.7c-0.6-0.4-3.2-1.5-3-3.9
		c0.3-2.4,0.7-3.8,0.9-4.2c0.2-0.4,0.6-2,0.7-2.4"/>
	<path class="st14" d="M17.5,44c1.7,0.2,3.4-1.9,5.6-1.2c2.2,0.7,4.2,3.5,5,4.3c0.7,0.8,1.3,0.1-0.4,0.7c-1.7,0.6-1.6,1.2-3.2,1.3
		c-1.6,0.1-4.4-1.5-4.8-2.3C19.3,45.9,17.5,44,17.5,44z"/>
	<path class="st14" d="M29.1,49.6c-0.4,0.1-1.1-0.1-3.2,0.6c-2.2,0.6-3.8,1.4-3.6,3.2c0.1,1.8,0.8,1.9,0.2,3.3
		C21.8,58,21.8,58,21.8,58s1.9-0.5,4.4-1.4c2.6-0.9,2.9-3.9,2.9-5.1S29.1,49.6,29.1,49.6z"/>
	<path class="st14" d="M30.3,49.2c0,0,1.3,0.8,3.4,0.1c2-0.6,4.6-0.3,5.3,1.8c0.7,2.2,1.8,3.1,1.8,3.1s-0.1-0.3-1.8,0.4
		c-1.7,0.7-4.6,0.3-5.9-1.3C31.7,51.8,30.3,49.2,30.3,49.2z"/>
	<path class="st13" d="M41.6,42.6c0,0-1.8,3.5-2,5.5c-0.2,2-0.1,3.2,1.3,4.1c1.4,0.9,2.1,1.8,2.1,1.8s0.8-2.7,1.6-3.5
		c0.8-0.8,1.3-3,0.5-3.9C44.2,45.7,41.6,42.6,41.6,42.6z"/>
	<path class="st13" d="M41.4,56c0,0-1.8-0.2-3.7,0.2c-1.9,0.4-2.9,0.7-3.4,1.9s-0.6,2.3-0.8,3.6c-0.2,1.3-0.1,1.7-0.5,2
		s0.4-0.5,2.6-0.7c2.2-0.1,3.4,0.1,4-0.8c0.6-0.9,0.2-2.2,0.6-3.4C40.6,57.4,41.4,56,41.4,56z"/>
	<path class="st1" d="M84.4,55.3c-1.4-0.7-4.3-1.6-6.3-2.2"/>
	<path class="st1" d="M84.6,50.5c-1.8,1.5-4.8,3-7.3,3.1"/>
	<path class="st1" d="M81.3,47.9c-0.1,2.7,0.1,5.1-2.8,5.4"/>
	<path class="st1" d="M72.6,54.2c-3,1.3-6.5,2.2-9,1.9"/>
	<path class="st1" d="M71.7,59.8c-2.8-1.9-7.8-3.5-8.8-3.9"/>
	<path class="st1" d="M68.3,52.7c-0.4,2-0.1,3.5-3.9,3.6"/>
	<path class="st2" d="M85.5,59.9c-1.2-0.4-1.8,0-2.8-3c-1-3-1-3-1-3s0.6-0.1,1.4-0.3c0.7-0.2,3.4-1.1,4.9,0.8
		c1.5,1.9,2.1,3.2,2.3,3.6c0.1,0.4,1,1.8,1.1,2.2"/>
	<path class="st3" d="M93.4,46.9c-1.3,1.1-1.2,3.7-3.2,4.8c-2.1,1-5.5,0.4-6.6,0.4c-1-0.1-1.1,0.8-0.2-0.8s0.3-2,1.4-3.2
		c1.1-1.2,4.2-2,5.1-1.6S93.4,46.9,93.4,46.9z"/>
	<path class="st4" d="M81.2,50.9c0.2-0.4,0.8-0.7,1.9-2.7c1.1-2,1.7-3.7,0.4-4.8c-1.3-1.2-1.9-0.8-2.4-2.2c-0.5-1.4-0.5-1.4-0.5-1.4
		s-1,1.7-2.2,4.1c-1.2,2.4,0.6,4.8,1.4,5.7C80.6,50.4,81.2,50.9,81.2,50.9z"/>
	<path class="st5" d="M80.6,52c0,0-1.5,0.4-2.5,2.2c-1,1.9-3.1,3.4-5.1,2.3c-2-1.1-3.4-1-3.4-1s0.3,0.2,1-1.5
		c0.8-1.7,3.1-3.4,5.1-3.2C77.7,51.1,80.6,52,80.6,52z"/>
	<path class="st6" d="M77,64.6c0,0-1.1-3.7-2.3-5.4c-1.2-1.6-2.1-2.4-3.8-2c-1.7,0.3-2.8,0.2-2.8,0.2s1.3,2.5,1.3,3.6
		c0,1.2,1.1,3,2.4,3.1C72.9,64.2,77,64.6,77,64.6z"/>
	<path class="st7" d="M67.9,54.8c0,0,1.4-1.1,2.6-2.7c1.1-1.6,1.6-2.5,1.2-3.7c-0.5-1.1-1.1-2.1-1.9-3.1c-0.7-1-1.1-1.3-1-1.8
		s0.1,0.7-1.4,2.3s-2.5,2.3-2.3,3.4c0.2,1.1,1.4,1.7,1.9,2.9C67.5,53.2,67.9,54.8,67.9,54.8z"/>
	<path class="st1" d="M50.5,47.2c1.4,0.8,4.2,1.9,6.1,2.6"/>
	<path class="st1" d="M49.9,51.9c1.9-1.3,5-2.6,7.5-2.6"/>
	<path class="st1" d="M53,54.8c0.3-2.7,0.3-5.1,3.2-5.2"/>
	<path class="st1" d="M62.2,49.1c3.1-1.1,6.6-1.7,9.1-1.2"/>
	<path class="st1" d="M63.5,43.7c2.7,2.1,7.5,4.1,8.4,4.6"/>
	<path class="st1" d="M66.4,50.9c0.6-2,0.4-3.5,4.2-3.3"/>
	<path class="st8" d="M49.7,42.5c1.2,0.5,1.8,0.1,2.5,3.2c0.8,3,0.8,3,0.8,3s-0.6,0.1-1.4,0.2c-0.7,0.1-3.5,0.9-4.8-1.1
		c-1.3-2-1.9-3.3-2-3.8s-0.8-1.9-1-2.3"/>
	<path class="st9" d="M40.9,54.9c1.4-1,1.4-3.6,3.6-4.5c2.2-0.9,5.5,0,6.6,0.1c1.1,0.1,1.1-0.7,0.2,0.8c-0.9,1.5-0.5,1.9-1.6,3.1
		c-1.2,1.1-4.3,1.7-5.2,1.3C43.6,55.3,40.9,54.9,40.9,54.9z"/>
	<path class="st0" d="M53.4,51.8c-0.3,0.4-0.9,0.6-2.1,2.5c-1.3,1.9-2,3.5-0.8,4.8c1.2,1.3,1.8,1,2.3,2.4c0.4,1.4,0.4,1.4,0.4,1.4
		s1.1-1.6,2.5-3.9c1.4-2.3-0.2-4.9-1-5.8C53.9,52.3,53.4,51.8,53.4,51.8z"/>
	<path class="st10" d="M54,50.8c0,0,1.5-0.2,2.7-2c1.2-1.8,3.3-3.2,5.2-2c1.9,1.2,3.3,1.3,3.3,1.3s-0.2-0.2-1.1,1.4
		c-0.9,1.6-3.4,3.2-5.3,2.8S54,50.8,54,50.8z"/>
	<path class="st6" d="M58.6,38.4c0,0,0.8,3.8,1.9,5.5c1.1,1.7,1.9,2.5,3.6,2.3c1.7-0.2,2.8,0,2.8,0s-1.1-2.6-1-3.7s-0.9-3.1-2.1-3.3
		S58.6,38.4,58.6,38.4z"/>
	<path class="st7" d="M66.9,48.9c0,0-1.5,1-2.8,2.5c-1.3,1.5-1.8,2.4-1.4,3.6c0.4,1.2,1,2.2,1.6,3.2c0.7,1.1,1,1.4,0.9,1.8
		c-0.2,0.4,0-0.7,1.6-2.2s2.7-2.1,2.6-3.2c-0.1-1.1-1.2-1.8-1.7-3C67.2,50.5,66.9,48.9,66.9,48.9z"/>
	<path class="st1" d="M51.2,35.9c0,1.6,0.5,4.5,0.8,6.6"/>
	<path class="st1" d="M46.8,37.7c2.1,1,4.7,3,6,5.2"/>
	<path class="st1" d="M45.9,41.9c2.5-1.1,4.6-2.3,6.1,0.2"/>
	<path class="st1" d="M55.4,47c2.5,2.1,4.8,4.9,5.6,7.2"/>
	<path class="st1" d="M60.8,45.3c-0.5,3.3,0.2,8.5,0.3,9.6"/>
	<path class="st1" d="M55.9,51.5c2-0.5,3.2-1.4,5,2"/>
	<path class="st2" d="M54.8,32.9c0.1,1.3,0.8,1.6-1.5,3.8c-2.3,2.2-2.3,2.2-2.3,2.2s-0.4-0.5-0.9-1.1s-2.5-2.6-1.4-4.7
		c1.1-2.1,1.9-3.3,2.3-3.6c0.3-0.3,1.2-1.7,1.5-2"/>
	<path class="st0" d="M39.7,31.5c1.5,0.7,3.9-0.6,5.7,0.8c1.8,1.4,2.8,4.8,3.2,5.7s1.2,0.6-0.6,0.5c-1.8,0-1.9,0.5-3.5,0.1
		s-3.6-2.9-3.7-3.8C40.7,33.9,39.7,31.5,39.7,31.5z"/>
	<path class="st4" d="M48.7,40.7c-0.5,0-1-0.4-3.2-0.6c-2.3-0.1-4,0-4.5,1.7c-0.5,1.7,0.1,2.1-1,3.2c-1,1.1-1,1.1-1,1.1
		s1.9,0.2,4.7,0.2s4.1-2.6,4.5-3.8C48.5,41.4,48.7,40.7,48.7,40.7z"/>
	<path class="st5" d="M49.9,40.7c0,0,1,1.2,3.1,1.3c2.1,0.1,4.4,1.3,4.3,3.5c-0.1,2.3,0.6,3.5,0.6,3.5s0.1-0.3-1.8-0.3
		c-1.9,0.1-4.4-1.3-5.1-3.2C50.3,43.7,49.9,40.7,49.9,40.7z"/>
	<path class="st6" d="M62.8,38.5c0,0-2.9,2.6-3.8,4.4c-0.9,1.8-1.2,2.9-0.2,4.3c1,1.4,1.4,2.5,1.4,2.5s1.7-2.2,2.7-2.7
		s2.3-2.3,1.8-3.5C64.2,42.3,62.8,38.5,62.8,38.5z"/>
	<path class="st7" d="M57.9,51c0,0-1.6-0.8-3.6-1.1c-1.9-0.3-3-0.4-3.8,0.6c-0.8,0.9-1.4,1.9-2,3.1c-0.6,1.1-0.7,1.6-1.1,1.7
		c-0.5,0.1,0.6-0.4,2.7,0.3c2.1,0.6,3.1,1.3,4.1,0.6c0.9-0.7,1-2,1.7-3C56.7,52,57.9,51,57.9,51z"/>
	<path class="st1" d="M63.6,33.5c-1,1.3-2.3,4-3.2,5.9"/>
	<path class="st1" d="M59,32.6c1.1,2,2.1,5.2,1.9,7.7"/>
	<path class="st1" d="M55.8,35.4c2.6,0.6,5.1,0.8,4.9,3.7"/>
	<path class="st1" d="M60.6,45.1c0.8,3.2,1.1,6.7,0.4,9.2"/>
	<path class="st1" d="M65.9,46.8c-2.3,2.5-4.8,7.1-5.3,8"/>
	<path class="st1" d="M58.4,49c2,0.7,3.4,0.7,2.9,4.5"/>
	<path class="st2" d="M68.3,33.2c-0.6,1.1-0.3,1.8-3.4,2.2c-3.1,0.5-3.1,0.5-3.1,0.5s0-0.7-0.1-1.4c0-0.7-0.6-3.5,1.5-4.7
		c2.1-1.1,3.5-1.6,4-1.6c0.5-0.1,2-0.6,2.4-0.7"/>
	<path class="st0" d="M56.8,23.3c0.8,1.5,3.5,1.8,4.1,4c0.7,2.2-0.5,5.5-0.7,6.5c-0.2,1,0.6,1.2-0.8,0.1c-1.4-1.1-1.9-0.7-2.9-1.9
		c-1-1.3-1.3-4.4-0.8-5.3C56.2,25.9,56.8,23.3,56.8,23.3z"/>
	<path class="st4" d="M58.8,36c-0.4-0.3-0.5-0.9-2.3-2.3c-1.8-1.4-3.3-2.3-4.7-1.2c-1.4,1.1-1.2,1.7-2.6,2c-1.5,0.3-1.5,0.3-1.5,0.3
		s1.5,1.2,3.7,2.9c2.2,1.6,4.9,0.2,5.8-0.5C58.2,36.5,58.8,36,58.8,36z"/>
	<path class="st5" d="M59.7,36.8c0,0,0.1,1.6,1.8,2.9c1.7,1.3,2.9,3.6,1.5,5.4c-1.4,1.8-1.6,3.2-1.6,3.2s0.2-0.2-1.3-1.3
		c-1.6-1-2.8-3.7-2.3-5.6C58.4,39.5,59.7,36.8,59.7,36.8z"/>
	<path class="st6" d="M71.6,42.4c0,0-3.9,0.5-5.7,1.4c-1.8,1-2.7,1.7-2.6,3.4C63.3,49,63,50,63,50s2.6-0.9,3.8-0.7
		c1.1,0.2,3.2-0.6,3.4-1.8C70.5,46.3,71.6,42.4,71.6,42.4z"/>
	<path class="st0" d="M60.4,49.8c0,0-0.8-1.6-2.3-3c-1.4-1.4-2.2-2-3.4-1.7c-1.2,0.3-2.3,0.8-3.4,1.3s-1.5,0.9-1.9,0.7
		c-0.4-0.2,0.7,0,2.1,1.8c1.4,1.8,1.8,2.9,3,2.9c1.1,0,1.9-1,3.1-1.4C58.8,49.9,60.4,49.8,60.4,49.8z"/>
	<path class="st1" d="M73.4,37.5c-1.5,0.7-3.9,2.4-5.7,3.6"/>
	<path class="st1" d="M69.9,34.3c0,2.3-0.7,5.6-2.1,7.6"/>
	<path class="st1" d="M65.7,35.2c2,1.8,4,3.1,2.4,5.6"/>
	<path class="st1" d="M65.2,46c-0.9,3.1-2.4,6.4-4.1,8.2"/>
	<path class="st1" d="M68.9,50.2c-3.2,1-7.6,3.8-8.5,4.4"/>
	<path class="st1" d="M61.3,48.4c1.3,1.6,2.7,2.3,0.4,5.3"/>
	<path class="st2" d="M77.7,39.5c-1.1,0.7-1.1,1.4-4,0.3c-2.9-1.1-2.9-1.1-2.9-1.1s0.3-0.6,0.6-1.3s1.2-3.4,3.6-3.3
		c2.4,0,3.8,0.3,4.3,0.5c0.4,0.2,2,0.4,2.4,0.5"/>
	<path class="st0" d="M72.5,25.2c0,1.7,2.2,3.2,1.7,5.5c-0.5,2.3-3.1,4.5-3.8,5.3c-0.7,0.8,0,1.3-0.7-0.3c-0.7-1.6-1.3-1.5-1.6-3.1
		c-0.3-1.6,1.1-4.5,1.9-5C70.7,27.2,72.5,25.2,72.5,25.2z"/>
	<path class="st4" d="M68,37.3c-0.2-0.4,0-1.1-0.9-3.2c-0.8-2.1-1.7-3.7-3.5-3.4c-1.7,0.3-1.9,0.9-3.3,0.5C59,30.8,59,30.8,59,30.8
		s0.7,1.8,1.8,4.3c1.1,2.5,4.1,2.6,5.3,2.5C67.3,37.4,68,37.3,68,37.3z"/>
	<path class="st5" d="M68.5,38.4c0,0-0.7,1.4,0.1,3.4c0.8,2,0.7,4.5-1.4,5.4c-2.1,0.9-3,2-3,2s0.3-0.1-0.5-1.7
		c-0.8-1.7-0.7-4.6,0.7-6C65.9,40.1,68.5,38.4,68.5,38.4z"/>
	<path class="st6" d="M76.1,49.1c0,0-3.6-1.5-5.6-1.5c-2-0.1-3.2,0.1-4,1.7c-0.8,1.5-1.6,2.3-1.6,2.3s2.7,0.5,3.6,1.3s3.1,1,3.9,0.1
		C73.1,52,76.1,49.1,76.1,49.1z"/>
	<path class="st7" d="M62.6,50c0,0,0-1.8-0.5-3.7c-0.5-1.9-0.9-2.9-2.2-3.2c-1.2-0.3-2.4-0.4-3.6-0.5c-1.3-0.1-1.7,0-2-0.3
		c-0.3-0.4,0.6,0.4,0.9,2.6c0.3,2.2,0.2,3.4,1.2,3.9c1,0.6,2.2,0,3.4,0.3C61.2,49.4,62.6,50,62.6,50z"/>
	<path class="st1" d="M79.3,43.8c-1.6,0-4.5,0.6-6.6,1"/>
	<path class="st1" d="M77.3,39.5c-0.9,2.1-2.9,4.8-5,6.2"/>
	<path class="st1" d="M73.1,38.7c1.1,2.4,2.5,4.5,0,6.1"/>
	<path class="st1" d="M68.3,48.4c-2,2.5-4.7,5-7,5.9"/>
	<path class="st1" d="M70.2,53.7c-3.4-0.3-8.5,0.5-9.6,0.6"/>
	<path class="st1" d="M63.9,49.1c0.6,2,1.6,3.1-1.8,5.1"/>
	<path class="st2" d="M82.4,47.3c-1.3,0.2-1.6,0.8-3.8-1.3s-2.3-2.2-2.3-2.2s0.5-0.4,1.1-0.9s2.5-2.6,4.7-1.6c2.2,1,3.4,1.8,3.7,2.2
		s1.7,1.2,2,1.4"/>
	<path class="st0" d="M83.3,32.2c-0.7,1.6,0.7,3.8-0.7,5.7S78,40.8,77,41.3s-0.6,1.2-0.6-0.6c0-1.8-0.6-1.9-0.2-3.5
		c0.4-1.6,2.8-3.7,3.7-3.8C80.9,33.3,83.3,32.2,83.3,32.2z"/>
	<path class="st4" d="M74.4,41.4c0-0.5,0.4-1,0.5-3.3c0.1-2.3-0.2-4-1.9-4.5c-1.7-0.4-2.1,0.1-3.2-0.9c-1.1-1-1.1-1-1.1-1
		s-0.1,1.9-0.1,4.7c0,2.7,2.8,4,3.9,4.4C73.7,41.3,74.4,41.4,74.4,41.4z"/>
	<path class="st5" d="M74.4,42.7c0,0-1.2,1-1.2,3.2c0,2.1-1.1,4.5-3.4,4.4c-2.3,0-3.5,0.7-3.5,0.7s0.3,0.1,0.2-1.8
		c-0.1-1.9,1.2-4.5,3-5.2C71.4,43.2,74.4,42.7,74.4,42.7z"/>
	<path class="st6" d="M77.1,55.5c0,0-2.7-2.8-4.6-3.7c-1.9-0.9-3-1.1-4.3,0s-2.4,1.5-2.4,1.5s2.3,1.6,2.8,2.6c0.5,1,2.4,2.2,3.5,1.6
		C73.3,57,77.1,55.5,77.1,55.5z"/>
	<path class="st7" d="M64.5,51.1c0,0,0.7-1.6,1-3.6c0.3-2,0.3-3-0.7-3.8c-1-0.8-2-1.3-3.1-1.9c-1.1-0.6-1.6-0.6-1.7-1.1
		c-0.1-0.5,0.4,0.6-0.2,2.7s-1.2,3.2-0.5,4.1c0.7,0.9,2,0.9,3,1.6C63.4,49.9,64.5,51.1,64.5,51.1z"/>
	<path class="st1" d="M82,56.5c-1.3-0.9-4.1-2.1-6-2.9"/>
	<path class="st1" d="M82.8,51.8c-1.9,1.2-5.1,2.3-7.6,2.2"/>
	<path class="st1" d="M79.8,48.7c-0.5,2.7-0.6,5.1-3.5,5"/>
	<path class="st1" d="M70.3,53.9c-3.1,0.9-6.7,1.4-9.1,0.8"/>
	<path class="st1" d="M68.8,59.3c-2.6-2.2-7.3-4.5-8.2-5"/>
	<path class="st1" d="M66.3,51.9c-0.7,2-0.5,3.5-4.4,3.1"/>
	<path class="st2" d="M82.5,61.1c-1.2-0.6-1.8-0.2-2.4-3.3c-0.6-3.1-0.6-3.1-0.6-3.1s0.7-0.1,1.4-0.1c0.7-0.1,3.5-0.7,4.7,1.4
		s1.7,3.4,1.8,3.9c0.1,0.5,0.7,2,0.8,2.3"/>
	<path class="st0" d="M91.9,49.2c-1.4,0.9-1.6,3.5-3.8,4.3c-2.2,0.8-5.5-0.3-6.5-0.5c-1-0.2-1.2,0.7-0.1-0.8c1-1.5,0.6-1.9,1.8-3
		s4.4-1.4,5.2-1C89.3,48.8,91.9,49.2,91.9,49.2z"/>
	<path class="st4" d="M79.3,51.7c0.3-0.4,0.9-0.6,2.2-2.4c1.4-1.8,2.2-3.4,1-4.7c-1.2-1.3-1.8-1.1-2.1-2.5c-0.4-1.5-0.4-1.5-0.4-1.5
		s-1.2,1.5-2.7,3.8c-1.5,2.2,0,4.9,0.7,5.8C78.8,51.2,79.3,51.7,79.3,51.7z"/>
	<path class="st5" d="M78.6,52.7c0,0-1.5,0.2-2.8,1.9c-1.3,1.7-3.5,3-5.3,1.7c-1.8-1.3-3.3-1.5-3.3-1.5s0.2,0.2,1.2-1.4
		c1-1.6,3.6-3,5.5-2.5C75.8,51.4,78.6,52.7,78.6,52.7z"/>
	<path class="st6" d="M73.4,64.8c0,0-0.6-3.8-1.6-5.6c-1-1.8-1.8-2.6-3.5-2.5c-1.7,0.1-2.8-0.2-2.8-0.2s1,2.6,0.8,3.7
		s0.7,3.2,1.9,3.4C69.4,63.8,73.4,64.8,73.4,64.8z"/>
	<path class="st7" d="M65.6,53.9c0,0,1.5-0.9,2.9-2.4c1.3-1.5,1.9-2.3,1.6-3.5c-0.3-1.2-0.9-2.2-1.5-3.3c-0.6-1.1-0.9-1.4-0.8-1.9
		c0.2-0.4,0,0.7-1.7,2.1c-1.7,1.4-2.8,1.9-2.7,3.1c0,1.1,1.1,1.9,1.5,3.1C65.4,52.3,65.6,53.9,65.6,53.9z"/>
	<path class="st1" d="M80,48.4c-1.6-0.3-4.6-0.3-6.7-0.2"/>
	<path class="st1" d="M78.8,43.8c-1.3,1.9-3.7,4.2-6,5.1"/>
	<path class="st1" d="M74.8,42.2c0.7,2.6,1.6,4.9-1.1,6"/>
	<path class="st1" d="M68.3,50.9c-2.5,2.1-5.5,4-8,4.4"/>
	<path class="st1" d="M69.1,56.4c-3.2-1-8.5-1.1-9.5-1.2"/>
	<path class="st1" d="M63.8,50.7c0.2,2.1,0.9,3.4-2.7,4.6"/>
	<path class="st2" d="M82.4,52.5c-1.3-0.1-1.7,0.5-3.5-2c-1.8-2.6-1.8-2.6-1.8-2.6s0.6-0.3,1.2-0.7s2.9-2.1,4.9-0.7
		c2,1.4,3,2.4,3.2,2.8s1.5,1.5,1.7,1.8"/>
	<path class="st11" d="M86.1,37.8c-1,1.4,0,3.9-1.7,5.5s-5.1,2-6.2,2.2c-1,0.3-0.8,1.1-0.4-0.7c0.3-1.8-0.2-2,0.4-3.4
		c0.7-1.5,3.4-3.1,4.4-3C83.5,38.4,86.1,37.8,86.1,37.8z"/>
	<path class="st12" d="M75.6,45.2c0.1-0.5,0.6-0.9,1.1-3.1c0.5-2.2,0.6-4-1-4.7c-1.6-0.7-2.1-0.3-3-1.4c-0.9-1.2-0.9-1.2-0.9-1.2
		s-0.4,1.9-0.9,4.6c-0.5,2.7,2,4.5,3,5C74.9,44.9,75.6,45.2,75.6,45.2z"/>
	<path class="st5" d="M75.4,46.4c0,0-1.3,0.8-1.8,2.9c-0.4,2.1-1.9,4.2-4.2,3.7c-2.2-0.5-3.6,0-3.6,0s0.3,0.1,0.5-1.7
		c0.2-1.9,2-4.2,4-4.5C72.3,46.4,75.4,46.4,75.4,46.4z"/>
	<path class="st6" d="M75.6,59.5c0,0-2.1-3.3-3.8-4.5c-1.7-1.2-2.7-1.7-4.2-0.9c-1.5,0.8-2.6,1-2.6,1s1.9,2,2.3,3.1
		c0.3,1.1,1.9,2.6,3.2,2.3C71.6,60.3,75.6,59.5,75.6,59.5z"/>
	<path class="st7" d="M64,52.7c0,0,1-1.5,1.7-3.3c0.6-1.9,0.8-2.9,0-3.9c-0.8-1-1.7-1.7-2.7-2.4s-1.4-0.9-1.5-1.4s0.3,0.6-0.7,2.6
		c-1,2-1.7,2.9-1.2,3.9c0.5,1,1.8,1.3,2.7,2.2C63.2,51.4,64,52.7,64,52.7z"/>
	<path class="st13" d="M61.2,37.4c-0.8,1.4-1.7,4.2-2.4,6.2"/>
	<path class="st13" d="M56.4,37c1.4,1.8,2.8,4.9,2.9,7.4"/>
	<path class="st13" d="M53.6,40.3c2.7,0.2,5.1,0.1,5.3,3.1"/>
	<path class="st13" d="M59.6,49.2c1.2,3,1.9,6.6,1.6,9"/>
	<path class="st13" d="M65.1,50.3c-2,2.7-3.8,7.6-4.3,8.6"/>
	<path class="st13" d="M58,53.5c2,0.5,3.5,0.2,3.5,4.1"/>
	<path class="st14" d="M65.8,36.5c-0.5,1.2-0.1,1.8-3.1,2.6s-3,0.9-3,0.9s-0.1-0.6-0.3-1.4c-0.1-0.7-1-3.4,0.9-4.8
		c1.9-1.4,3.3-2,3.7-2.1c0.5-0.1,1.9-0.9,2.3-1"/>
	<path class="st14" d="M53.1,28.2c1,1.4,3.7,1.3,4.6,3.4c1,2.1,0.2,5.5,0.1,6.6c-0.1,1,0.8,1.1-0.8,0.2c-1.6-0.9-2-0.4-3.1-1.5
		c-1.1-1.1-1.8-4.2-1.4-5.1C52.9,30.8,53.1,28.2,53.1,28.2z"/>
	<path class="st14" d="M56.7,40.5c-0.4-0.2-0.7-0.8-2.6-2c-1.9-1.2-3.6-1.9-4.8-0.6c-1.2,1.3-0.9,1.9-2.3,2.3
		c-1.4,0.5-1.4,0.5-1.4,0.5s1.6,1.1,4,2.4c2.4,1.3,4.9-0.4,5.7-1.2C56.2,41,56.7,40.5,56.7,40.5z"/>
	<path class="st14" d="M57.7,41.1c0,0,0.3,1.5,2.1,2.6c1.8,1.1,3.3,3.2,2.1,5.1c-1.2,1.9-1.2,3.4-1.2,3.4s0.2-0.3-1.5-1.1
		s-3.3-3.3-3-5.2C56.7,44,57.7,41.1,57.7,41.1z"/>
	<path class="st13" d="M70.2,45.2c0,0-3.8,1-5.5,2.1c-1.7,1.2-2.5,2-2.2,3.7c0.3,1.7,0.1,2.8,0.1,2.8s2.5-1.2,3.7-1.1
		c1.1,0.1,3.1-1,3.2-2.2C69.6,49.3,70.2,45.2,70.2,45.2z"/>
	<path class="st13" d="M60,53.9c0,0-1-1.5-2.6-2.7c-1.6-1.2-2.5-1.7-3.6-1.3c-1.2,0.4-2.1,1.1-3.2,1.8c-1.1,0.7-1.4,1.1-1.8,0.9
		c-0.4-0.1,0.7,0,2.3,1.5c1.6,1.6,2.2,2.6,3.3,2.5c1.1-0.1,1.8-1.3,2.9-1.8C58.4,54.3,60,53.9,60,53.9z"/>
	<path class="st1" d="M69.7,82.4c0.2-1.6,0.1-4.6,0-6.7"/>
	<path class="st1" d="M74.2,81.1c-2-1.2-4.3-3.6-5.3-5.9"/>
	<path class="st1" d="M75.7,77.1c-2.6,0.7-4.8,1.7-6-1"/>
	<path class="st1" d="M66.8,70.8c-2.2-2.4-4.2-5.4-4.7-7.9"/>
	<path class="st1" d="M61.3,71.8c0.9-3.3,0.8-8.5,0.9-9.5"/>
	<path class="st1" d="M66.9,66.3c-2.1,0.3-3.3,1-4.7-2.6"/>
	<path class="st2" d="M65.7,84.9c0-1.3-0.6-1.7,1.9-3.6s2.5-1.9,2.5-1.9s0.3,0.6,0.7,1.2c0.4,0.6,2.2,2.9,0.9,4.9s-2.3,3-2.7,3.3
		c-0.4,0.3-1.4,1.5-1.7,1.8"/>
	<path class="st3" d="M80.5,88.2c-1.4-0.9-3.9,0.1-5.5-1.5c-1.7-1.6-2.2-5.1-2.4-6.1c-0.3-1-1.1-0.7,0.7-0.5c1.8,0.3,2-0.3,3.5,0.3
		c1.5,0.6,3.2,3.3,3.2,4.3C79.8,85.6,80.5,88.2,80.5,88.2z"/>
	<path class="st4" d="M72.8,77.9c0.5,0.1,0.9,0.5,3.1,1c2.2,0.4,4,0.5,4.7-1.1c0.7-1.6,0.2-2.1,1.3-3s1.1-1,1.1-1s-1.9-0.4-4.6-0.8
		c-2.7-0.4-4.4,2.1-4.9,3.2C73,77.3,72.8,77.9,72.8,77.9z"/>
	<path class="st5" d="M71.5,77.8c0,0-0.8-1.3-2.9-1.7c-2.1-0.4-4.2-1.8-3.8-4c0.4-2.2-0.1-3.6-0.1-3.6s-0.1,0.3,1.8,0.5
		c1.9,0.2,4.2,1.9,4.7,3.8C71.5,74.7,71.5,77.8,71.5,77.8z"/>
	<path class="st6" d="M58.4,78.4c0,0,3.2-2.2,4.3-3.9c1.1-1.7,1.6-2.7,0.7-4.2s-1.1-2.6-1.1-2.6s-1.9,2-3,2.4
		c-1.1,0.4-2.5,2-2.2,3.2C57.6,74.4,58.4,78.4,58.4,78.4z"/>
	<path class="st7" d="M64.8,66.6c0,0,1.5,1,3.4,1.6c1.9,0.6,2.9,0.7,3.9-0.1s1.6-1.8,2.3-2.8s0.9-1.5,1.3-1.5c0.5,0-0.6,0.3-2.7-0.6
		c-2-0.9-3-1.7-4-1.1c-1,0.5-1.2,1.8-2.1,2.7C66.1,65.7,64.8,66.6,64.8,66.6z"/>
	<path class="st1" d="M66.4,47.7c-0.4,1.6-0.4,4.5-0.5,6.7"/>
	<path class="st1" d="M61.7,48.6c1.9,1.4,4.1,3.9,4.9,6.3"/>
	<path class="st1" d="M60,52.5c2.6-0.5,4.9-1.4,6,1.4"/>
	<path class="st1" d="M68.3,59.4c2,2.6,3.7,5.7,4.1,8.2"/>
	<path class="st1" d="M73.9,58.8c-1.1,3.2-1.5,8.4-1.6,9.5"/>
	<path class="st1" d="M68,63.9c2.1-0.1,3.4-0.8,4.5,2.9"/>
	<path class="st8" d="M70.6,45.4c-0.1,1.3,0.5,1.7-2.2,3.4s-2.6,1.7-2.6,1.7s-0.3-0.6-0.6-1.2c-0.4-0.7-2-3-0.5-4.9s2.6-2.9,3-3.1
		c0.4-0.2,1.6-1.4,1.9-1.6"/>
	<path class="st9" d="M56,41.1c1.4,1,3.9,0.2,5.4,2c1.5,1.8,1.8,5.2,2,6.3c0.2,1,1.1,0.8-0.7,0.4c-1.7-0.4-2,0.2-3.4-0.6
		c-1.4-0.7-3-3.5-2.9-4.5C56.5,43.7,56,41.1,56,41.1z"/>
	<path class="st4" d="M63,51.9c-0.4-0.1-0.9-0.6-3.1-1.2s-4-0.8-4.8,0.8s-0.3,2-1.6,2.9s-1.2,0.9-1.2,0.9s1.9,0.5,4.5,1.1
		c2.6,0.6,4.5-1.8,5.1-2.8C62.6,52.5,63,51.9,63,51.9z"/>
	<path class="st10" d="M64.2,52.2c0,0,0.7,1.4,2.8,1.9c2.1,0.5,4.1,2.1,3.5,4.3C70,60.6,70.4,62,70.4,62s0.1-0.3-1.7-0.6
		s-4.1-2.2-4.4-4.2C64,55.2,64.2,52.2,64.2,52.2z"/>
	<path class="st6" d="M77.3,52.5c0,0-3.3,2-4.6,3.6c-1.3,1.6-1.8,2.6-1,4.2c0.7,1.6,0.9,2.7,0.9,2.7s2.1-1.9,3.2-2.1
		c1.1-0.3,2.7-1.8,2.4-3.1C77.9,56.6,77.3,52.5,77.3,52.5z"/>
	<path class="st7" d="M70,63.8c0,0-1.4-1.1-3.3-1.8c-1.8-0.7-2.9-1-3.9-0.2c-1,0.8-1.7,1.6-2.5,2.6c-0.8,1-1,1.4-1.5,1.4
		c-0.5,0,0.7-0.2,2.6,0.8c2,1,2.8,1.9,3.9,1.4c1-0.5,1.3-1.7,2.3-2.6C68.7,64.6,70,63.8,70,63.8z"/>
	<path class="st1" d="M77.3,44.7c-1.5,0.5-4.2,1.9-6,2.9"/>
	<path class="st1" d="M74.2,41.1c-0.2,2.3-1.3,5.5-3,7.3"/>
	<path class="st1" d="M69.9,41.6c1.8,2,3.7,3.6,1.8,5.9"/>
	<path class="st1" d="M68.2,52.3c-1.2,3-3.1,6.1-5,7.7"/>
	<path class="st1" d="M71.5,56.8c-3.3,0.6-8,2.9-9,3.4"/>
	<path class="st1" d="M64.1,54.2c1.2,1.7,2.4,2.6-0.2,5.4"/>
	<path class="st2" d="M81.4,47.2c-1.2,0.6-1.3,1.3-4-0.2c-2.8-1.4-2.8-1.4-2.8-1.4s0.4-0.5,0.8-1.2c0.4-0.6,1.6-3.2,4-2.9
		c2.4,0.3,3.7,0.8,4.2,1c0.4,0.2,2,0.6,2.4,0.8"/>
	<path class="st0" d="M77.8,32.4c-0.2,1.7,1.8,3.5,1,5.7s-3.6,4.2-4.4,4.9c-0.8,0.7-0.2,1.3-0.7-0.4c-0.5-1.7-1.1-1.6-1.2-3.3
		c-0.1-1.6,1.6-4.3,2.5-4.7C75.8,34.2,77.8,32.4,77.8,32.4z"/>
	<path class="st4" d="M72,43.8c-0.1-0.5,0.1-1.1-0.5-3.2c-0.6-2.2-1.3-3.8-3.1-3.7c-1.8,0.1-1.9,0.7-3.3,0.1
		c-1.4-0.6-1.4-0.6-1.4-0.6s0.5,1.9,1.3,4.5c0.8,2.6,3.8,3,5,3.1C71.2,43.9,72,43.8,72,43.8z"/>
	<path class="st5" d="M72.3,45c0,0-0.8,1.3-0.2,3.4c0.6,2.1,0.2,4.6-2,5.2C68,54.2,67,55.3,67,55.3s0.3,0-0.3-1.8
		c-0.7-1.7-0.2-4.6,1.4-5.9C69.6,46.4,72.3,45,72.3,45z"/>
	<path class="st6" d="M78.6,56.6c0,0-3.4-1.9-5.4-2.2c-2-0.3-3.2-0.2-4.1,1.2c-1,1.4-1.9,2.1-1.9,2.1s2.6,0.8,3.4,1.7
		c0.8,0.8,2.9,1.4,3.9,0.6C75.4,59.1,78.6,56.6,78.6,56.6z"/>
	<path class="st7" d="M65.2,55.9c0,0,0.2-1.8-0.1-3.7c-0.3-1.9-0.6-3-1.8-3.4s-2.3-0.7-3.5-0.9s-1.7-0.2-1.9-0.6
		c-0.2-0.4,0.5,0.4,0.6,2.7c0.1,2.2-0.2,3.4,0.7,4.1s2.2,0.3,3.4,0.7C63.8,55.1,65.2,55.9,65.2,55.9z"/>
	<path class="st1" d="M83.5,55.7c-1.5-0.5-4.5-0.9-6.6-1.1"/>
	<path class="st1" d="M83,51c-1.5,1.7-4.3,3.7-6.7,4.3"/>
	<path class="st1" d="M79.3,48.9c0.3,2.7,0.9,5-1.9,5.8"/>
	<path class="st1" d="M71.7,56.6c-2.7,1.8-6,3.2-8.5,3.3"/>
	<path class="st1" d="M71.7,62.2c-3.1-1.4-8.2-2.2-9.3-2.5"/>
	<path class="st1" d="M67.2,55.8c-0.1,2.1,0.5,3.5-3.3,4.2"/>
	<path class="st2" d="M85.4,60.1c-1.3-0.2-1.8,0.3-3.2-2.5c-1.4-2.8-1.4-2.8-1.4-2.8s0.6-0.2,1.3-0.5c0.7-0.3,3.2-1.7,4.9,0
		c1.8,1.6,2.6,2.8,2.8,3.2c0.2,0.4,1.2,1.7,1.5,2"/>
	<path class="st0" d="M91,46c-1.1,1.3-0.6,3.9-2.4,5.2c-1.9,1.4-5.4,1.3-6.4,1.4c-1.1,0.1-0.9,1-0.4-0.7c0.6-1.7,0-2,0.9-3.4
		s3.8-2.6,4.7-2.4C88.4,46.3,91,46,91,46z"/>
	<path class="st4" d="M79.6,51.9c0.2-0.4,0.7-0.8,1.5-2.9c0.8-2.1,1.1-3.9-0.4-4.8c-1.5-0.9-2-0.5-2.8-1.8C77.3,41,77.3,41,77.3,41
		s-0.7,1.8-1.5,4.4c-0.8,2.6,1.3,4.7,2.3,5.4C79,51.5,79.6,51.9,79.6,51.9z"/>
	<path class="st5" d="M79.3,53.1c0,0-1.4,0.6-2.2,2.6c-0.7,2-2.5,3.9-4.6,3.1c-2.1-0.7-3.6-0.5-3.6-0.5s0.3,0.2,0.8-1.7
		c0.5-1.8,2.6-3.9,4.5-4C76.2,52.6,79.3,53.1,79.3,53.1z"/>
	<path class="st6" d="M77.7,66.1c0,0-1.7-3.5-3.2-4.9c-1.5-1.4-2.5-2-4.1-1.4c-1.6,0.6-2.7,0.6-2.7,0.6s1.7,2.2,1.8,3.4
		c0.2,1.1,1.6,2.8,2.8,2.7C73.6,66.3,77.7,66.1,77.7,66.1z"/>
	<path class="st7" d="M67.1,57.9c0,0,1.2-1.3,2.1-3.1c0.9-1.8,1.2-2.8,0.5-3.8s-1.5-1.9-2.4-2.8s-1.3-1.1-1.3-1.6
		c0.1-0.5,0.2,0.7-1,2.5c-1.2,1.9-2.1,2.6-1.8,3.7c0.4,1.1,1.6,1.5,2.4,2.5C66.5,56.4,67.1,57.9,67.1,57.9z"/>
	<path class="st1" d="M83,66.3c-1.1-1.2-3.5-2.9-5.2-4.2"/>
	<path class="st1" d="M84.8,61.9c-2.2,0.8-5.5,1.1-7.9,0.4"/>
	<path class="st1" d="M82.6,58.2c-1,2.5-1.7,4.8-4.5,4.1"/>
	<path class="st1" d="M72.2,61.2c-3.2,0.2-6.8-0.2-9.1-1.3"/>
	<path class="st1" d="M69.5,66.1c-2-2.7-6.1-6-6.9-6.7"/>
	<path class="st1" d="M68.7,58.3c-1.1,1.8-1.3,3.3-4.9,2.1"/>
	<path class="st2" d="M82.4,71c-1-0.8-1.7-0.6-1.6-3.7c0.1-3.1,0.1-3.1,0.1-3.1s0.7,0.1,1.4,0.2c0.7,0.1,3.6,0.1,4.3,2.4
		c0.7,2.3,0.9,3.7,0.9,4.2s0.3,2.1,0.3,2.5"/>
	<path class="st0" d="M94.3,61.4c-1.6,0.5-2.4,3.1-4.7,3.3c-2.3,0.3-5.3-1.5-6.3-1.9s-1.3,0.4,0-0.8c1.3-1.2,1-1.7,2.4-2.5
		c1.4-0.8,4.6-0.4,5.3,0.2C91.8,60.4,94.3,61.4,94.3,61.4z"/>
	<path class="st4" d="M81.4,61c0.4-0.3,1-0.4,2.7-1.8c1.7-1.5,2.9-2.8,2.1-4.4c-0.8-1.6-1.5-1.5-1.5-2.9c0-1.5,0-1.5,0-1.5
		s-1.5,1.2-3.5,3.1s-1.1,4.7-0.6,5.8C81.1,60.4,81.4,61,81.4,61z"/>
	<path class="st5" d="M80.5,61.9c0,0-1.5-0.2-3.2,1.2c-1.6,1.4-4.1,2.2-5.6,0.5S69,61.4,69,61.4s0.2,0.3,1.5-1.1
		c1.3-1.3,4.1-2.1,5.9-1.2C78.1,60,80.5,61.9,80.5,61.9z"/>
	<path class="st6" d="M72.8,72.5c0,0,0.3-3.9-0.4-5.8s-1.2-2.9-2.9-3.2c-1.7-0.3-2.7-0.8-2.7-0.8s0.4,2.8-0.1,3.8
		c-0.4,1.1,0,3.2,1.1,3.7C69.1,70.7,72.8,72.5,72.8,72.5z"/>
	<path class="st7" d="M67.6,60.1c0,0,1.7-0.5,3.3-1.7c1.6-1.1,2.4-1.8,2.3-3.1c-0.1-1.2-0.4-2.4-0.7-3.6c-0.3-1.2-0.6-1.6-0.3-2
		c0.3-0.4-0.2,0.7-2.1,1.7c-2,1-3.1,1.3-3.4,2.4c-0.2,1.1,0.7,2.1,0.8,3.4C67.8,58.5,67.6,60.1,67.6,60.1z"/>
	<path class="st1" d="M78.9,73.9c-0.5-1.5-2-4.1-3.1-5.9"/>
	<path class="st1" d="M82.3,70.6c-2.3-0.2-5.5-1.2-7.4-2.7"/>
	<path class="st1" d="M81.7,66.4c-1.9,1.9-3.5,3.8-5.8,2"/>
	<path class="st1" d="M71,65c-3.1-1.1-6.2-2.9-7.8-4.8"/>
	<path class="st1" d="M66.6,68.4c-0.8-3.3-3.2-7.9-3.7-8.9"/>
	<path class="st1" d="M68.9,60.9c-1.7,1.2-2.5,2.5-5.4-0.1"/>
	<path class="st2" d="M76.5,78c-0.6-1.2-1.3-1.2,0-4.1c1.3-2.8,1.3-2.8,1.3-2.8s0.6,0.3,1.2,0.7s3.3,1.5,3,3.9s-0.7,3.8-0.9,4.2
		c-0.2,0.4-0.6,2-0.7,2.4"/>
	<path class="st0" d="M91.2,73.9c-1.7-0.1-3.4,1.9-5.6,1.2c-2.2-0.7-4.3-3.5-5-4.3s-1.3-0.1,0.4-0.7c1.7-0.6,1.6-1.2,3.2-1.3
		c1.6-0.1,4.4,1.4,4.8,2.3C89.3,72,91.2,73.9,91.2,73.9z"/>
	<path class="st4" d="M79.5,68.5c0.4-0.1,1.1,0.1,3.2-0.6c2.2-0.7,3.8-1.4,3.6-3.2c-0.2-1.8-0.8-1.9-0.2-3.3
		c0.6-1.4,0.6-1.4,0.6-1.4s-1.9,0.5-4.4,1.4c-2.6,0.9-2.9,3.9-2.9,5.1C79.5,67.7,79.5,68.5,79.5,68.5z"/>
	<path class="st5" d="M78.4,68.9c0,0-1.3-0.8-3.4-0.1c-2,0.7-4.6,0.4-5.3-1.8c-0.7-2.1-1.8-3.1-1.8-3.1s0.1,0.3,1.8-0.4
		c1.7-0.7,4.6-0.3,5.9,1.2C76.9,66.2,78.4,68.9,78.4,68.9z"/>
	<path class="st6" d="M67.1,75.6c0,0,1.8-3.5,2-5.5c0.2-2,0.1-3.2-1.3-4.1c-1.4-0.9-2.2-1.8-2.2-1.8s-0.8,2.7-1.6,3.5
		c-0.8,0.8-1.3,3-0.4,3.9C64.4,72.4,67.1,75.6,67.1,75.6z"/>
	<path class="st7" d="M67.2,62.1c0,0,1.8,0.2,3.7-0.2c1.9-0.4,2.9-0.7,3.4-1.9s0.6-2.3,0.8-3.6s0.1-1.7,0.5-1.9
		c0.4-0.2-0.4,0.6-2.6,0.7c-2.2,0.2-3.4-0.1-4,0.9c-0.6,0.9-0.2,2.2-0.6,3.4C68,60.7,67.2,62.1,67.2,62.1z"/>
	<path class="st1" d="M67.8,80.5c0.4-1.6,0.7-4.5,0.9-6.6"/>
	<path class="st1" d="M72.5,79.7c-1.8-1.5-3.8-4.1-4.5-6.5"/>
	<path class="st1" d="M74.4,75.9c-2.7,0.4-5,1.1-5.9-1.7"/>
	<path class="st1" d="M66.4,68.6c-1.9-2.7-3.4-5.9-3.7-8.4"/>
	<path class="st1" d="M60.8,68.9c1.3-3.1,1.9-8.3,2.1-9.4"/>
	<path class="st1" d="M67,64.1c-2.1,0-3.5,0.6-4.4-3.1"/>
	<path class="st2" d="M63.5,82.5c0.2-1.3-0.4-1.7,2.4-3.3c2.7-1.6,2.7-1.6,2.7-1.6s0.3,0.6,0.6,1.3c0.3,0.7,1.8,3.1,0.2,4.9
		c-1.6,1.8-2.7,2.7-3.1,2.9s-1.6,1.3-2,1.5"/>
	<path class="st0" d="M77.8,87.5c-1.3-1.1-3.9-0.4-5.3-2.2c-1.4-1.8-1.5-5.3-1.6-6.4s-1-0.9,0.7-0.4c1.7,0.5,2-0.1,3.4,0.8
		c1.4,0.8,2.8,3.7,2.6,4.6C77.4,84.9,77.8,87.5,77.8,87.5z"/>
	<path class="st4" d="M71.4,76.4c0.5,0.1,0.8,0.7,3,1.4c2.2,0.7,3.9,1,4.8-0.5c0.9-1.5,0.5-2,1.7-2.8c1.3-0.8,1.3-0.8,1.3-0.8
		s-1.8-0.6-4.5-1.4c-2.6-0.7-4.6,1.5-5.3,2.5C71.8,75.8,71.4,76.4,71.4,76.4z"/>
	<path class="st5" d="M70.2,76.1c0,0-0.7-1.4-2.7-2.1c-2-0.6-4-2.3-3.3-4.5c0.7-2.2,0.3-3.6,0.3-3.6s-0.1,0.3,1.7,0.7
		c1.8,0.4,4,2.4,4.1,4.4C70.5,73,70.2,76.1,70.2,76.1z"/>
	<path class="st6" d="M57.1,75c0,0,3.4-1.8,4.8-3.4s1.9-2.5,1.2-4.1c-0.7-1.6-0.7-2.7-0.7-2.7s-2.2,1.8-3.3,2s-2.8,1.7-2.6,2.9
		C56.8,71,57.1,75,57.1,75z"/>
	<path class="st7" d="M65,64.1c0,0,1.4,1.2,3.2,2c1.8,0.8,2.8,1.1,3.8,0.4c1-0.7,1.8-1.5,2.7-2.5c0.9-0.9,1.1-1.3,1.5-1.3
		c0.5,0-0.7,0.2-2.6-0.9c-1.9-1.1-2.7-2-3.8-1.6c-1.1,0.4-1.4,1.7-2.4,2.5C66.4,63.4,65,64.1,65,64.1z"/>
	<path class="st1" d="M74.7,76c-0.2-1.6-1.2-4.4-1.9-6.4"/>
	<path class="st1" d="M78.7,73.4c-2.2-0.6-5.2-2.2-6.8-4.1"/>
	<path class="st1" d="M78.9,69.1c-2.3,1.5-4.1,3.1-6.1,0.8"/>
	<path class="st1" d="M68.7,65.8c-2.8-1.7-5.5-4-6.8-6.2"/>
	<path class="st1" d="M63.7,68.3c-0.1-3.4-1.7-8.4-1.9-9.4"/>
	<path class="st1" d="M67.4,61.4c-1.9,0.9-2.9,2-5.3-1.1"/>
	<path class="st2" d="M71.7,79.6c-0.4-1.3-1.1-1.4,0.8-4c1.9-2.5,1.9-2.5,1.9-2.5s0.5,0.4,1.1,0.9s2.9,2.1,2.2,4.4
		c-0.7,2.3-1.4,3.6-1.6,4c-0.3,0.4-0.9,1.9-1.1,2.2"/>
	<path class="st14" d="M86.8,78.4c-1.6-0.5-3.7,1.2-5.8,0.1c-2.1-1.1-3.5-4.2-4.1-5.1s-1.3-0.4,0.5-0.6c1.8-0.3,1.8-0.9,3.4-0.7
		s4,2.2,4.3,3.2C85.4,76.1,86.8,78.4,86.8,78.4z"/>
	<path class="st12" d="M76.4,70.8c0.5-0.1,1,0.3,3.3,0c2.2-0.2,4-0.7,4.2-2.5c0.2-1.8-0.4-2,0.4-3.3c0.8-1.2,0.8-1.2,0.8-1.2
		s-1.9,0.2-4.6,0.6c-2.7,0.4-3.6,3.3-3.8,4.5C76.5,70.1,76.4,70.8,76.4,70.8z"/>
	<path class="st5" d="M75.2,71c0,0-1.2-1-3.3-0.8c-2.1,0.3-4.6-0.5-4.9-2.7c-0.3-2.2-1.2-3.4-1.2-3.4s0,0.3,1.8-0.1
		c1.8-0.4,4.6,0.6,5.6,2.3C74.2,68.1,75.2,71,75.2,71z"/>
	<path class="st6" d="M62.8,75.4c0,0,2.4-3.1,3-5s0.7-3.1-0.5-4.3C64,65,63.5,64,63.5,64s-1.3,2.5-2.2,3.1c-0.9,0.7-1.8,2.7-1.1,3.7
		S62.8,75.4,62.8,75.4z"/>
	<path class="st0" d="M65.5,62.3c0,0,1.7,0.5,3.7,0.5s3-0.1,3.7-1.2c0.6-1.1,1-2.1,1.4-3.3c0.4-1.2,0.4-1.7,0.8-1.8
		c0.4-0.2-0.5,0.5-2.7,0.2s-3.3-0.7-4.1,0.1c-0.8,0.8-0.6,2.1-1.2,3.2C66.5,61,65.5,62.3,65.5,62.3z"/>
	<path class="st13" d="M79.1,54.6c-1.6-0.3-4.6-0.3-6.7-0.3"/>
	<path class="st13" d="M77.9,50c-1.3,1.9-3.8,4.2-6.1,5.1"/>
	<path class="st13" d="M74,48.4c0.6,2.6,1.5,4.9-1.2,6"/>
	<path class="st13" d="M67.4,57c-2.5,2.1-5.6,3.9-8.1,4.4"/>
	<path class="st13" d="M68.2,62.6c-3.2-1-8.4-1.2-9.5-1.3"/>
	<path class="st13" d="M62.9,56.8c0.2,2.1,0.9,3.4-2.7,4.6"/>
	<path class="st14" d="M81.4,58.7c-1.3-0.1-1.7,0.5-3.5-2.1c-1.8-2.6-1.8-2.6-1.8-2.6s0.6-0.3,1.2-0.7c0.7-0.4,2.9-2.1,4.9-0.7
		c1.9,1.4,2.9,2.5,3.2,2.8c0.3,0.4,1.4,1.5,1.7,1.8"/>
	<path class="st14" d="M85.3,44c-1,1.4-0.1,3.9-1.8,5.5c-1.7,1.6-5.2,1.9-6.2,2.2c-1,0.2-0.8,1.1-0.4-0.7s-0.2-2,0.5-3.4
		c0.7-1.4,3.4-3.1,4.4-3C82.7,44.7,85.3,44,85.3,44z"/>
	<path class="st14" d="M74.7,51.4c0.1-0.5,0.6-0.9,1.1-3.1c0.5-2.2,0.6-4-1-4.7c-1.6-0.7-2.1-0.3-3-1.5C71,40.9,71,40.9,71,40.9
		s-0.5,1.9-1,4.6c-0.5,2.7,1.9,4.5,3,5C74.1,51.1,74.7,51.4,74.7,51.4z"/>
	<path class="st14" d="M74.5,52.6c0,0-1.3,0.8-1.8,2.9c-0.5,2.1-2,4.2-4.2,3.7c-2.2-0.5-3.6,0-3.6,0s0.3,0.1,0.6-1.7
		c0.3-1.8,2.1-4.2,4-4.5C71.4,52.5,74.5,52.6,74.5,52.6z"/>
	<path class="st13" d="M74.6,65.7c0,0-2.1-3.3-3.8-4.5c-1.6-1.2-2.7-1.7-4.2-0.9c-1.5,0.8-2.7,1-2.7,1s1.9,2,2.2,3.1
		c0.3,1.1,1.9,2.6,3.1,2.3C70.6,66.4,74.6,65.7,74.6,65.7z"/>
	<path class="st13" d="M63.1,58.8c0,0,1-1.5,1.7-3.3c0.6-1.9,0.9-2.9,0.1-3.9c-0.8-1-1.7-1.7-2.7-2.5c-1-0.8-1.4-0.9-1.4-1.4
		s0.3,0.6-0.7,2.6c-1,2-1.8,2.9-1.3,3.9s1.8,1.3,2.6,2.2C62.2,57.5,63.1,58.8,63.1,58.8z"/>
	<path class="st1" d="M30.1,72.6c1.6,0.3,4.6,0.2,6.7,0.1"/>
	<path class="st1" d="M31.4,77.2c1.2-1.9,3.7-4.3,6-5.2"/>
	<path class="st1" d="M35.4,78.7c-0.7-2.6-1.7-4.8,1-6"/>
	<path class="st1" d="M41.7,70c2.4-2.2,5.5-4.1,7.9-4.6"/>
	<path class="st1" d="M40.8,64.4c3.2,0.9,8.5,1,9.5,1"/>
	<path class="st1" d="M46.3,70.1c-0.2-2.1-1-3.4,2.6-4.7"/>
	<path class="st2" d="M27.7,68.6c1.3,0,1.7-0.6,3.5,2c1.8,2.5,1.8,2.5,1.8,2.5s-0.6,0.3-1.2,0.7c-0.6,0.4-2.9,2.1-4.9,0.8
		c-2-1.3-3-2.4-3.3-2.8c-0.3-0.4-1.5-1.5-1.8-1.8"/>
	<path class="st3" d="M24.2,83.3c0.9-1.4,0-3.9,1.6-5.5c1.7-1.6,5.1-2.1,6.1-2.3c1-0.3,0.8-1.1,0.5,0.7c-0.3,1.8,0.3,2-0.4,3.4
		c-0.7,1.5-3.3,3.2-4.3,3.1C26.7,82.7,24.2,83.3,24.2,83.3z"/>
	<path class="st4" d="M34.5,75.8c-0.1,0.5-0.6,0.9-1,3.1c-0.5,2.2-0.5,4,1.1,4.7s2.1,0.2,3,1.4c0.9,1.2,0.9,1.2,0.9,1.2
		s0.4-1.9,0.9-4.6c0.4-2.7-2-4.4-3.1-5C35.2,76.1,34.5,75.8,34.5,75.8z"/>
	<path class="st5" d="M34.7,74.6c0,0,1.3-0.8,1.7-2.9c0.4-2.1,1.9-4.2,4.1-3.8s3.6-0.1,3.6-0.1s-0.3-0.1-0.5,1.8
		c-0.2,1.9-2,4.2-3.9,4.6C37.8,74.5,34.7,74.6,34.7,74.6z"/>
	<path class="st0" d="M34.3,61.4c0,0,2.2,3.2,3.9,4.4c1.7,1.2,2.7,1.6,4.2,0.8s2.6-1,2.6-1s-2-1.9-2.3-3.1c-0.3-1.1-2-2.6-3.2-2.2
		C38.3,60.6,34.3,61.4,34.3,61.4z"/>
	<path class="st7" d="M46,68c0,0-1,1.5-1.6,3.4c-0.6,1.9-0.8,2.9,0,3.9c0.8,0.9,1.7,1.6,2.7,2.4c1,0.8,1.5,0.9,1.5,1.4
		c0,0.5-0.3-0.6,0.6-2.7c0.9-2,1.7-2.9,1.2-3.9c-0.5-1-1.8-1.2-2.7-2.1C46.9,69.3,46,68,46,68z"/>
	<path class="st1" d="M64.9,69.9c-1.6-0.4-4.5-0.5-6.6-0.6"/>
	<path class="st1" d="M64,65.2c-1.4,1.8-4,4-6.3,4.8"/>
	<path class="st1" d="M60.1,63.4c0.5,2.6,1.3,4.9-1.5,5.9"/>
	<path class="st1" d="M53.1,71.7c-2.6,2-5.8,3.6-8.3,4"/>
	<path class="st1" d="M53.6,77.2c-3.2-1.1-8.4-1.6-9.4-1.8"/>
	<path class="st1" d="M48.6,71.2c0.1,2.1,0.7,3.4-3,4.5"/>
	<path class="st8" d="M67.1,74.1c-1.3-0.1-1.7,0.4-3.4-2.2c-1.7-2.7-1.7-2.7-1.7-2.7s0.6-0.3,1.3-0.6s3-1.9,4.9-0.4
		c1.9,1.5,2.8,2.6,3.1,3c0.2,0.4,1.4,1.6,1.6,1.9"/>
	<path class="st9" d="M71.6,59.6c-1,1.3-0.3,3.9-2,5.4c-1.8,1.5-5.3,1.7-6.3,1.9c-1,0.2-0.8,1.1-0.4-0.7c0.4-1.7-0.1-2,0.6-3.4
		c0.8-1.4,3.6-2.9,4.5-2.8C69,60.1,71.6,59.6,71.6,59.6z"/>
	<path class="st4" d="M60.7,66.4c0.1-0.4,0.6-0.9,1.2-3c0.6-2.2,0.8-4-0.7-4.8c-1.6-0.8-2-0.4-2.9-1.6c-0.8-1.2-0.8-1.2-0.8-1.2
		s-0.6,1.9-1.2,4.5c-0.6,2.6,1.7,4.6,2.7,5.2C60.1,66.1,60.7,66.4,60.7,66.4z"/>
	<path class="st10" d="M60.4,67.6c0,0-1.4,0.7-1.9,2.8c-0.6,2.1-2.2,4.1-4.4,3.5c-2.2-0.6-3.6-0.2-3.6-0.2s0.3,0.1,0.6-1.7
		c0.3-1.8,2.3-4.1,4.2-4.3S60.4,67.6,60.4,67.6z"/>
	<path class="st6" d="M59.9,80.7c0,0-2-3.4-3.5-4.7c-1.6-1.3-2.6-1.8-4.2-1.1c-1.6,0.7-2.7,0.8-2.7,0.8s1.8,2.1,2.1,3.2
		c0.3,1.1,1.8,2.7,3,2.5C55.8,81.2,59.9,80.7,59.9,80.7z"/>
	<path class="st7" d="M48.7,73.3c0,0,1.1-1.4,1.9-3.2c0.7-1.8,1-2.9,0.3-3.9c-0.7-1-1.6-1.8-2.6-2.6c-1-0.8-1.4-1-1.4-1.5
		c0-0.5,0.2,0.7-0.8,2.6s-1.9,2.8-1.5,3.8c0.4,1,1.7,1.4,2.5,2.3C47.9,71.9,48.7,73.3,48.7,73.3z"/>
	<path class="st1" d="M67.7,80.9c-0.5-1.6-1.8-4.2-2.8-6.1"/>
	<path class="st1" d="M71.3,77.8c-2.3-0.3-5.4-1.4-7.3-3.1"/>
	<path class="st1" d="M70.9,73.5c-2,1.8-3.6,3.6-5.9,1.7"/>
	<path class="st1" d="M60.3,71.6c-3-1.2-6.1-3.2-7.6-5.2"/>
	<path class="st1" d="M55.7,74.8c-0.6-3.3-2.8-8-3.2-9"/>
	<path class="st1" d="M58.4,67.5c-1.8,1.1-2.6,2.4-5.4-0.3"/>
	<path class="st2" d="M65.2,84.9c-0.5-1.2-1.2-1.3,0.2-4c1.5-2.8,1.5-2.8,1.5-2.8s0.5,0.4,1.2,0.8s3.2,1.7,2.8,4
		c-0.4,2.4-0.8,3.7-1.1,4.2c-0.2,0.4-0.7,2-0.8,2.4"/>
	<path class="st0" d="M80,81.5c-1.7-0.2-3.5,1.7-5.7,0.9s-4.1-3.7-4.8-4.5c-0.7-0.8-1.3-0.2,0.4-0.7c1.7-0.5,1.7-1.1,3.3-1.2
		c1.6-0.1,4.3,1.6,4.7,2.5C78.3,79.5,80,81.5,80,81.5z"/>
	<path class="st0" d="M68.6,75.5c0.5-0.1,1.1,0.1,3.3-0.4c2.2-0.6,3.9-1.3,3.8-3c-0.1-1.8-0.7-2-0.1-3.3c0.6-1.4,0.6-1.4,0.6-1.4
		s-1.9,0.4-4.5,1.2c-2.6,0.8-3.1,3.8-3.1,5C68.6,74.8,68.6,75.5,68.6,75.5z"/>
	<path class="st5" d="M67.5,75.9c0,0-1.3-0.8-3.4-0.3c-2.1,0.5-4.6,0.1-5.2-2s-1.6-3.2-1.6-3.2s0,0.3,1.8-0.3
		c1.8-0.6,4.6-0.1,5.8,1.5C66.1,73.1,67.5,75.9,67.5,75.9z"/>
	<path class="st6" d="M55.8,82c0,0,1.9-3.4,2.3-5.4c0.3-2,0.3-3.2-1.1-4.1c-1.4-1-2.1-1.9-2.1-1.9s-0.9,2.6-1.7,3.4
		c-0.8,0.8-1.4,2.9-0.6,3.8C53.4,78.7,55.8,82,55.8,82z"/>
	<path class="st7" d="M56.7,68.6c0,0,1.8,0.3,3.7,0c2-0.3,3-0.6,3.5-1.7c0.5-1.2,0.7-2.3,1-3.5c0.2-1.2,0.2-1.7,0.6-1.9
		c0.4-0.2-0.4,0.5-2.7,0.6s-3.4-0.3-4.1,0.7c-0.7,0.9-0.3,2.2-0.7,3.4C57.5,67.2,56.7,68.6,56.7,68.6z"/>
	<path class="st1" d="M56.6,86.9c0.5-1.5,0.9-4.5,1.2-6.6"/>
	<path class="st1" d="M61.3,86.4c-1.7-1.5-3.6-4.3-4.2-6.7"/>
	<path class="st1" d="M63.5,82.7c-2.7,0.3-5,0.8-5.8-2"/>
	<path class="st1" d="M55.9,75c-1.7-2.8-3.1-6.1-3.2-8.6"/>
	<path class="st1" d="M50.3,75c1.4-3.1,2.4-8.2,2.6-9.2"/>
	<path class="st1" d="M56.8,70.6c-2.1-0.1-3.5,0.4-4.2-3.4"/>
	<path class="st2" d="M52.2,88.7c0.3-1.3-0.3-1.8,2.5-3.2s2.8-1.4,2.8-1.4s0.2,0.6,0.5,1.3c0.3,0.7,1.6,3.2,0,4.9
		c-1.7,1.7-2.8,2.6-3.3,2.8c-0.4,0.2-1.7,1.2-2,1.4"/>
	<path class="st0" d="M66.2,94.5C65,93.4,62.4,93.9,61,92s-1.2-5.4-1.3-6.4c-0.1-1.1-1-0.9,0.7-0.3c1.7,0.6,2,0.1,3.3,0.9
		c1.3,0.9,2.6,3.8,2.4,4.8C66,91.9,66.2,94.5,66.2,94.5z"/>
	<path class="st4" d="M60.4,83.1c0.4,0.2,0.8,0.7,2.9,1.5c2.1,0.8,3.9,1.2,4.8-0.3c1-1.5,0.6-2,1.9-2.7c1.3-0.7,1.3-0.7,1.3-0.7
		s-1.8-0.7-4.4-1.6c-2.6-0.9-4.7,1.3-5.4,2.2C60.8,82.4,60.4,83.1,60.4,83.1z"/>
	<path class="st5" d="M59.3,82.7c0,0-0.6-1.4-2.6-2.2c-2-0.7-3.8-2.5-3-4.7s0.5-3.5,0.5-3.5S54,72.5,55.8,73
		c1.8,0.5,3.8,2.6,3.9,4.6C59.8,79.7,59.3,82.7,59.3,82.7z"/>
	<path class="st6" d="M46.3,80.9c0,0,3.5-1.6,5-3.1c1.4-1.5,2-2.4,1.5-4c-0.6-1.6-0.6-2.8-0.6-2.8s-2.2,1.6-3.4,1.8
		s-2.8,1.5-2.7,2.8C46.1,76.8,46.3,80.9,46.3,80.9z"/>
	<path class="st0" d="M54.7,70.5c0,0,1.3,1.2,3.1,2.1c1.8,0.9,2.7,1.3,3.8,0.6c1.1-0.7,1.9-1.4,2.8-2.3c0.9-0.9,1.1-1.3,1.6-1.2
		c0.5,0.1-0.7,0.2-2.5-1.1c-1.8-1.3-2.6-2.2-3.7-1.8c-1.1,0.3-1.5,1.6-2.6,2.3C56.2,69.8,54.7,70.5,54.7,70.5z"/>
	<path class="st1" d="M46,86.2c1.2-1.1,3-3.4,4.3-5.1"/>
	<path class="st1" d="M50.4,88.1c-0.7-2.2-1-5.5-0.3-7.9"/>
	<path class="st1" d="M54.1,85.9c-2.5-1.1-4.8-1.8-4-4.6"/>
	<path class="st1" d="M51.3,75.5c-0.2-3.3,0.3-6.8,1.4-9"/>
	<path class="st1" d="M46.4,72.7c2.8-2,6.1-6,6.8-6.8"/>
	<path class="st1" d="M54.2,72c-1.8-1.1-3.2-1.3-2-5"/>
	<path class="st2" d="M41.4,85.6c0.9-1,0.6-1.7,3.8-1.5s3.1,0.2,3.1,0.2s-0.1,0.6-0.2,1.4c-0.1,0.7-0.2,3.6-2.4,4.3
		c-2.3,0.7-3.7,0.8-4.2,0.8c-0.5,0-2.1,0.2-2.5,0.3"/>
	<path class="st0" d="M50.7,97.5c-0.5-1.6-3.1-2.4-3.3-4.7c-0.2-2.3,1.6-5.3,2-6.2c0.4-1-0.4-1.3,0.8,0.1c1.2,1.3,1.7,1,2.4,2.5
		c0.7,1.4,0.3,4.6-0.3,5.3C51.8,95.1,50.7,97.5,50.7,97.5z"/>
	<path class="st4" d="M51.3,84.7c0.3,0.4,0.4,1,1.8,2.8c1.4,1.7,2.8,2.9,4.3,2.1c1.6-0.8,1.5-1.5,3-1.5c1.5,0,1.5,0,1.5,0
		s-1.2-1.5-3-3.5c-1.8-2-4.7-1.2-5.8-0.7C51.9,84.4,51.3,84.7,51.3,84.7z"/>
	<path class="st14" d="M50.5,83.8c0,0,0.2-1.5-1.2-3.2c-1.4-1.6-2.1-4.1-0.4-5.6s2.2-2.8,2.2-2.8s-0.3,0.2,1,1.5
		c1.3,1.3,2.1,4.2,1.1,5.9C52.4,81.4,50.5,83.8,50.5,83.8z"/>
	<path class="st6" d="M40,75.9c0,0,3.9,0.3,5.8-0.3c2-0.6,3-1.1,3.3-2.8s0.9-2.7,0.9-2.7s-2.8,0.3-3.8-0.1c-1.1-0.4-3.2-0.1-3.7,1.1
		C41.9,72.3,40,75.9,40,75.9z"/>
	<path class="st7" d="M52.5,70.9c0,0,0.5,1.7,1.6,3.4c1.1,1.6,1.8,2.4,3,2.4c1.3,0,2.4-0.3,3.6-0.6s1.6-0.6,2-0.3S62,75.6,61,73.6
		c-1-2-1.2-3.2-2.3-3.4c-1.1-0.2-2.1,0.6-3.4,0.8C54,71.1,52.5,70.9,52.5,70.9z"/>
	<path class="st1" d="M38.5,82c1.5-0.5,4.1-2,6-3"/>
	<path class="st1" d="M41.7,85.4c0.2-2.3,1.2-5.5,2.8-7.4"/>
	<path class="st1" d="M46,84.9c-1.8-2-3.7-3.5-1.9-5.8"/>
	<path class="st1" d="M47.5,74.2c1.1-3,3-6.2,4.9-7.7"/>
	<path class="st1" d="M44.2,69.7c3.3-0.7,7.9-3.1,8.9-3.5"/>
	<path class="st1" d="M51.6,72.2c-1.2-1.7-2.4-2.5,0.1-5.4"/>
	<path class="st2" d="M34.4,79.5c1.2-0.6,1.2-1.3,4.1,0.1c2.8,1.4,2.8,1.4,2.8,1.4s-0.4,0.6-0.7,1.2c-0.4,0.6-1.6,3.2-3.9,3
		c-2.4-0.3-3.8-0.7-4.2-0.9c-0.4-0.2-2-0.6-2.4-0.7"/>
	<path class="st0" d="M38.3,94.2c0.2-1.7-1.8-3.4-1.1-5.6s3.6-4.2,4.3-4.9c0.8-0.7,0.2-1.3,0.7,0.4c0.6,1.7,1.2,1.6,1.3,3.2
		S42,91.6,41.1,92C40.2,92.4,38.3,94.2,38.3,94.2z"/>
	<path class="st4" d="M43.9,82.7c0.1,0.5-0.1,1.1,0.6,3.2c0.6,2.2,1.4,3.8,3.2,3.7s1.9-0.8,3.3-0.2c1.4,0.6,1.4,0.6,1.4,0.6
		s-0.5-1.9-1.4-4.5c-0.9-2.6-3.9-3-5.1-3C44.6,82.6,43.9,82.7,43.9,82.7z"/>
	<path class="st5" d="M43.5,81.5c0,0,0.8-1.3,0.2-3.4c-0.6-2-0.3-4.6,1.9-5.3c2.2-0.7,3.1-1.7,3.1-1.7s-0.3,0,0.4,1.8
		c0.7,1.7,0.2,4.6-1.3,5.9C46.2,80.1,43.5,81.5,43.5,81.5z"/>
	<path class="st6" d="M37,70.1c0,0,3.4,1.8,5.5,2.1c2,0.3,3.2,0.2,4.1-1.3c1-1.4,1.8-2.1,1.8-2.1s-2.7-0.8-3.5-1.6s-2.9-1.3-3.9-0.5
		C40.2,67.5,37,70.1,37,70.1z"/>
	<path class="st7" d="M50.4,70.5c0,0-0.2,1.8,0.1,3.7c0.4,1.9,0.7,2.9,1.8,3.4c1.2,0.5,2.3,0.6,3.5,0.8c1.2,0.2,1.7,0.1,1.9,0.5
		c0.2,0.4-0.5-0.4-0.7-2.7c-0.1-2.2,0.1-3.4-0.8-4S54.3,72,53,71.6C51.8,71.3,50.4,70.5,50.4,70.5z"/>
	<path class="st1" d="M32.1,70.7c1.6,0.5,4.5,0.7,6.6,1"/>
	<path class="st1" d="M32.8,75.4c1.5-1.8,4.2-3.8,6.6-4.4"/>
	<path class="st1" d="M36.5,77.4c-0.4-2.7-1-5,1.8-5.9"/>
	<path class="st1" d="M44,69.6c2.7-1.8,6-3.3,8.5-3.5"/>
	<path class="st1" d="M43.8,64c3.1,1.3,8.3,2,9.3,2.2"/>
	<path class="st1" d="M48.4,70.3c0-2.1-0.6-3.5,3.2-4.3"/>
	<path class="st0" d="M30.2,66.4c1.3,0.2,1.7-0.3,3.3,2.4c1.5,2.8,1.5,2.8,1.5,2.8s-0.6,0.3-1.3,0.6c-0.7,0.3-3.1,1.7-4.9,0.2
		c-1.8-1.6-2.7-2.7-2.9-3.2c-0.2-0.4-1.3-1.6-1.5-2"/>
	<path class="st0" d="M24.9,80.6c1.1-1.3,0.5-3.9,2.3-5.3c1.9-1.4,5.3-1.4,6.4-1.5c1-0.1,0.9-1,0.4,0.7c-0.5,1.7,0,2-0.8,3.4
		c-0.8,1.4-3.7,2.7-4.7,2.5C27.5,80.3,24.9,80.6,24.9,80.6z"/>
	<path class="st4" d="M36.1,74.4c-0.1,0.4-0.7,0.8-1.4,3c-0.7,2.1-1.1,3.9,0.5,4.8s2,0.5,2.8,1.8c0.8,1.3,0.8,1.3,0.8,1.3
		s0.7-1.8,1.4-4.4c0.8-2.6-1.5-4.7-2.4-5.3C36.7,74.8,36.1,74.4,36.1,74.4z"/>
	<path class="st14" d="M36.1,72.6c0,0,1.4-0.6,2.1-2.7c0.7-2,2.4-3.9,4.5-3.2s3.6,0.4,3.6,0.4S46,67,45.6,68.8
		c-0.4,1.8-2.5,3.9-4.5,4.1C39.1,73,36.1,72.6,36.1,72.6z"/>
	<path class="st6" d="M37.7,60.2c0,0,1.8,3.5,3.3,4.8c1.5,1.4,2.5,1.9,4.1,1.3c1.6-0.6,2.7-0.7,2.7-0.7s-1.7-2.2-1.9-3.3
		c-0.2-1.1-1.6-2.8-2.9-2.6C41.8,59.9,37.7,60.2,37.7,60.2z"/>
	<path class="st7" d="M48.5,68.2c0,0-1.2,1.3-2,3.1c-0.8,1.8-1.1,2.8-0.4,3.8c0.7,1,1.5,1.9,2.4,2.7c0.9,0.9,1.3,1.1,1.3,1.5
		c0,0.5-0.2-0.7,1-2.6c1.2-1.9,2.1-2.7,1.7-3.8c-0.4-1.1-1.6-1.4-2.4-2.5C49.2,69.6,48.5,68.2,48.5,68.2z"/>
	<path class="st1" d="M36.4,77.8c1.6-0.2,4.4-1.2,6.4-1.8"/>
	<path class="st1" d="M39,81.8c0.6-2.2,2.3-5.2,4.2-6.7"/>
	<path class="st1" d="M43.2,82.1c-1.4-2.3-3-4.1-0.8-6.1"/>
	<path class="st1" d="M46.8,71.9c1.7-2.8,4.1-5.5,6.3-6.7"/>
	<path class="st1" d="M44.3,66.8c3.4-0.1,8.4-1.5,9.4-1.8"/>
	<path class="st1" d="M51.2,70.7c-0.8-1.9-1.9-2.9,1.2-5.2"/>
	<path class="st2" d="M32.9,74.6c1.3-0.3,1.5-1,4,0.9c2.5,1.9,2.5,1.9,2.5,1.9s-0.4,0.5-1,1c-0.5,0.6-2.1,2.9-4.4,2.2
		c-2.3-0.7-3.6-1.4-3.9-1.7c-0.4-0.3-1.8-1-2.2-1.2"/>
	<path class="st14" d="M33.9,89.8c0.5-1.6-1.2-3.7,0-5.8s4.3-3.5,5.2-4c0.9-0.6,0.4-1.3,0.6,0.5c0.2,1.8,0.8,1.8,0.6,3.4
		c-0.2,1.6-2.3,4-3.2,4.2C36.1,88.4,33.9,89.8,33.9,89.8z"/>
	<path class="st12" d="M41.6,79.5c0.1,0.5-0.3,1-0.1,3.3c0.2,2.3,0.6,4,2.4,4.2c1.8,0.2,2-0.4,3.3,0.5c1.2,0.8,1.2,0.8,1.2,0.8
		s-0.2-1.9-0.5-4.6s-3.2-3.7-4.4-3.9C42.3,79.6,41.6,79.5,41.6,79.5z"/>
	<path class="st0" d="M41.4,78.3c0,0,1-1.2,0.8-3.3c-0.2-2.1,0.6-4.6,2.8-4.8c2.2-0.2,3.4-1.1,3.4-1.1s-0.3,0,0,1.8
		c0.3,1.8-0.6,4.6-2.4,5.5C44.4,77.4,41.4,78.3,41.4,78.3z"/>
	<path class="st15" d="M37.2,65.8c0,0,3,2.4,5,3.1c1.9,0.6,3.1,0.7,4.3-0.5s2.2-1.7,2.2-1.7s-2.5-1.3-3.1-2.2
		c-0.6-1-2.6-1.9-3.7-1.2C40.8,63.9,37.2,65.8,37.2,65.8z"/>
	<path class="st7" d="M50.3,68.8c0,0-0.5,1.7-0.6,3.7c0,2,0.1,3,1.2,3.7c1.1,0.7,2.1,1.1,3.3,1.5c1.2,0.4,1.7,0.4,1.8,0.9
		s-0.5-0.5-0.2-2.7c0.3-2.2,0.8-3.3,0-4.1c-0.8-0.8-2.1-0.6-3.2-1.3C51.6,69.8,50.3,68.8,50.3,68.8z"/>
	<path class="st13" d="M57.7,82.5c0.3-1.6,0.4-4.6,0.4-6.7"/>
	<path class="st13" d="M62.4,81.4c-1.9-1.3-4.1-3.8-5-6.2"/>
	<path class="st13" d="M64,77.5c-2.6,0.6-4.9,1.5-6-1.3"/>
	<path class="st13" d="M55.6,70.7c-2.1-2.5-3.8-5.6-4.2-8.1"/>
	<path class="st13" d="M50,71.4c1-3.2,1.3-8.4,1.4-9.5"/>
	<path class="st13" d="M55.9,66.2c-2.1,0.2-3.4,0.9-4.6-2.8"/>
	<path class="st14" d="M53.6,84.8c0.1-1.3-0.5-1.7,2.1-3.5c2.6-1.7,2.6-1.7,2.6-1.7s0.3,0.6,0.7,1.2c0.4,0.7,2,3,0.6,4.9
		s-2.5,2.9-2.9,3.2c-0.4,0.3-1.5,1.4-1.8,1.7"/>
	<path class="st14" d="M68.2,88.8c-1.4-1-3.9-0.1-5.4-1.9c-1.6-1.7-1.9-5.2-2.1-6.2c-0.2-1-1.1-0.8,0.7-0.4c1.8,0.4,2-0.2,3.4,0.5
		c1.4,0.7,3,3.5,2.9,4.4C67.7,86.2,68.2,88.8,68.2,88.8z"/>
	<path class="st14" d="M61.1,78.2c0.5,0.1,0.9,0.6,3.1,1.1c2.2,0.5,4,0.7,4.8-0.9c0.8-1.6,0.3-2.1,1.5-2.9c1.2-0.9,1.2-0.9,1.2-0.9
		s-1.9-0.5-4.5-1c-2.7-0.5-4.5,1.8-5.1,2.9C61.4,77.5,61.1,78.2,61.1,78.2z"/>
	<path class="st14" d="M59.9,77.9c0,0-0.8-1.4-2.8-1.8c-2.1-0.5-4.1-2-3.6-4.2c0.5-2.2,0.1-3.6,0.1-3.6s-0.1,0.3,1.7,0.6
		c1.8,0.3,4.1,2.1,4.4,4.1C60,74.9,59.9,77.9,59.9,77.9z"/>
	<path class="st13" d="M46.7,77.8c0,0,3.3-2.1,4.5-3.7s1.7-2.7,1-4.2c-0.8-1.5-0.9-2.7-0.9-2.7s-2,1.9-3.1,2.2
		c-1.1,0.3-2.6,1.9-2.4,3.1C46.1,73.8,46.7,77.8,46.7,77.8z"/>
	<path class="st0" d="M53.8,66.4c0,0,1.4,1.1,3.3,1.7c1.9,0.7,2.9,0.9,3.9,0.1c1-0.8,1.7-1.7,2.5-2.6c0.8-1,1-1.4,1.4-1.4
		c0.5,0-0.6,0.3-2.6-0.8c-2-1-2.9-1.8-3.9-1.3c-1,0.5-1.3,1.8-2.2,2.6C55.2,65.6,53.8,66.4,53.8,66.4z"/>
	<path class="st1" d="M71.4,39.1c-1.6-0.3-4.6-0.3-6.7-0.3"/>
	<path class="st1" d="M70.2,34.5c-1.3,1.9-3.8,4.2-6.1,5.1"/>
	<path class="st1" d="M66.3,32.9c0.6,2.6,1.5,4.9-1.2,6"/>
	<path class="st1" d="M59.7,41.4c-2.5,2.1-5.6,3.9-8.1,4.4"/>
	<path class="st1" d="M60.5,47c-3.2-1-8.4-1.2-9.5-1.3"/>
	<path class="st1" d="M55.2,41.2c0.2,2.1,0.9,3.4-2.7,4.6"/>
	<path class="st2" d="M73.8,43.2c-1.3-0.1-1.7,0.5-3.5-2.1c-1.8-2.6-1.8-2.6-1.8-2.6s0.6-0.3,1.2-0.7c0.7-0.4,2.9-2.1,4.9-0.7
		c1.9,1.4,2.9,2.4,3.2,2.8c0.3,0.4,1.4,1.5,1.7,1.8"/>
	<path class="st3" d="M77.6,28.5c-1,1.4-0.1,3.9-1.8,5.5c-1.7,1.6-5.2,2-6.2,2.2c-1,0.2-0.8,1.1-0.4-0.7c0.3-1.8-0.2-2,0.5-3.4
		c0.7-1.4,3.4-3.1,4.4-3C75,29.1,77.6,28.5,77.6,28.5z"/>
	<path class="st4" d="M67,35.8c0.1-0.5,0.6-0.9,1.1-3.1c0.5-2.2,0.6-4-1-4.7c-1.6-0.7-2.1-0.3-3-1.5c-0.9-1.2-0.9-1.2-0.9-1.2
		s-0.5,1.9-1,4.6c-0.5,2.7,1.9,4.5,3,5C66.4,35.5,67,35.8,67,35.8z"/>
	<path class="st5" d="M66.8,37c0,0-1.3,0.8-1.8,2.9c-0.5,2.1-2,4.2-4.2,3.7s-3.6,0-3.6,0s0.3,0.1,0.6-1.7c0.2-1.8,2-4.2,4-4.5
		C63.8,37,66.8,37,66.8,37z"/>
	<path class="st0" d="M66.9,50.2c0,0-2.1-3.3-3.8-4.5c-1.6-1.2-2.7-1.7-4.2-0.9c-1.5,0.8-2.7,1-2.7,1s1.9,2,2.2,3.1
		c0.3,1.1,1.9,2.6,3.1,2.3C62.9,50.9,66.9,50.2,66.9,50.2z"/>
	<path class="st7" d="M55.4,43.3c0,0,1-1.5,1.7-3.3c0.6-1.9,0.9-2.9,0.1-3.9c-0.8-1-1.7-1.7-2.7-2.5S53,32.7,53,32.3
		c0-0.5,0.3,0.6-0.7,2.6c-1,2-1.8,2.9-1.3,3.9c0.5,1,1.8,1.3,2.7,2.2C54.5,41.9,55.4,43.3,55.4,43.3z"/>
	<path class="st1" d="M36.5,41c1.6,0.4,4.5,0.6,6.6,0.8"/>
	<path class="st1" d="M37.3,45.7c1.4-1.8,4.1-3.9,6.4-4.6"/>
	<path class="st1" d="M41.2,47.6c-0.4-2.7-1.2-5,1.6-5.9"/>
	<path class="st1" d="M48.3,39.5c2.6-1.9,5.9-3.5,8.3-3.8"/>
	<path class="st1" d="M48,33.9c3.1,1.2,8.3,1.8,9.4,2"/>
	<path class="st1" d="M52.8,40c0-2.1-0.7-3.4,3.1-4.4"/>
	<path class="st8" d="M34.5,36.7c1.3,0.2,1.7-0.4,3.3,2.3c1.6,2.7,1.6,2.7,1.6,2.7s-0.6,0.3-1.3,0.6s-3.1,1.8-4.9,0.3
		c-1.8-1.5-2.7-2.7-3-3.1c-0.2-0.4-1.3-1.6-1.6-1.9"/>
	<path class="st9" d="M29.6,51.1c1.1-1.3,0.3-3.9,2.2-5.3c1.8-1.5,5.3-1.6,6.3-1.7c1-0.2,0.9-1,0.4,0.7c-0.5,1.7,0.1,2-0.7,3.4
		c-0.8,1.4-3.6,2.8-4.6,2.7C32.2,50.7,29.6,51.1,29.6,51.1z"/>
	<path class="st14" d="M40.8,44.9c-0.1,0.4-0.6,0.8-1.3,3c-0.7,2.2-0.9,3.9,0.6,4.8s2,0.4,2.8,1.7c0.8,1.2,0.8,1.2,0.8,1.2
		s0.6-1.9,1.3-4.5c0.7-2.6-1.6-4.6-2.6-5.3C41.4,45.3,40.8,44.9,40.8,44.9z"/>
	<path class="st10" d="M40.9,43.4c0,0,1.4-0.7,2-2.7c0.6-2,2.3-4,4.4-3.4c2.2,0.6,3.6,0.3,3.6,0.3s-0.3-0.1-0.7,1.7
		c-0.4,1.8-2.4,4-4.3,4.2C44,43.7,40.9,43.4,40.9,43.4z"/>
	<path class="st6" d="M41.8,30.2c0,0,1.9,3.4,3.4,4.7c1.6,1.3,2.6,1.9,4.1,1.2c1.6-0.7,2.7-0.8,2.7-0.8s-1.8-2.1-2-3.3
		c-0.2-1.1-1.7-2.7-3-2.5C45.9,29.9,41.8,30.2,41.8,30.2z"/>
	<path class="st7" d="M52.8,38c0,0-1.2,1.4-1.9,3.2S49.8,44,50.5,45c0.7,1,1.6,1.8,2.5,2.6c0.9,0.8,1.4,1,1.3,1.5
		c0,0.5-0.2-0.7,0.9-2.6c1.1-1.9,2-2.7,1.6-3.8c-0.4-1.1-1.7-1.4-2.5-2.4C53.5,39.4,52.8,38,52.8,38z"/>
	<path class="st1" d="M34,29.9c0.4,1.6,1.7,4.2,2.7,6.1"/>
	<path class="st1" d="M30.3,33c2.3,0.3,5.4,1.6,7.2,3.3"/>
	<path class="st1" d="M30.6,37.2c2.1-1.7,3.7-3.5,5.9-1.5"/>
	<path class="st1" d="M41.2,39.4c3,1.3,6,3.3,7.4,5.3"/>
	<path class="st1" d="M45.9,36.3c0.5,3.3,2.6,8.1,3,9.1"/>
	<path class="st1" d="M43,43.6c1.8-1.1,2.7-2.3,5.3,0.5"/>
	<path class="st2" d="M36.6,26c0.5,1.2,1.2,1.3-0.3,4s-1.5,2.7-1.5,2.7s-0.5-0.4-1.2-0.8c-0.6-0.4-3.1-1.7-2.7-4.1s0.9-3.7,1.2-4.1
		c0.2-0.4,0.7-2,0.9-2.3"/>
	<path class="st0" d="M21.7,29c1.7,0.3,3.5-1.6,5.7-0.8s4,3.8,4.7,4.6c0.7,0.8,1.3,0.2-0.4,0.7c-1.7,0.5-1.7,1.1-3.3,1.1
		c-1.6,0-4.3-1.7-4.6-2.6C23.4,31,21.7,29,21.7,29z"/>
	<path class="st14" d="M32.9,35.2c-0.5,0.1-1.1-0.1-3.3,0.4c-2.2,0.5-3.9,1.2-3.8,2.9c0,1.8,0.6,2,0,3.3c-0.7,1.3-0.7,1.3-0.7,1.3
		s1.9-0.4,4.5-1.1s3.2-3.7,3.2-4.9C33,36,32.9,35.2,32.9,35.2z"/>
	<path class="st5" d="M34.1,34.9c0,0,1.3,0.9,3.4,0.4c2.1-0.5,4.6,0,5.1,2.2c0.5,2.2,1.5,3.2,1.5,3.2s0-0.3-1.8,0.3
		c-1.8,0.6-4.6,0-5.8-1.6C35.4,37.7,34.1,34.9,34.1,34.9z"/>
	<path class="st6" d="M45.9,29.1c0,0-2,3.3-2.4,5.3c-0.4,2-0.3,3.1,1,4.2c1.4,1,2,2,2,2s1-2.6,1.8-3.4c0.9-0.8,1.5-2.9,0.7-3.8
		C48.3,32.4,45.9,29.1,45.9,29.1z"/>
	<path class="st7" d="M44.8,42.5c0,0-1.8-0.3-3.7-0.1c-2,0.2-3,0.5-3.5,1.6c-0.5,1.1-0.8,2.3-1,3.5c-0.3,1.2-0.2,1.7-0.6,1.9
		c-0.4,0.2,0.5-0.5,2.7-0.5c2.2,0,3.4,0.3,4.1-0.6c0.7-0.9,0.4-2.2,0.8-3.3C43.9,43.8,44.8,42.5,44.8,42.5z"/>
	<path class="st1" d="M45.3,24.2c-0.6,1.5-1,4.5-1.4,6.5"/>
	<path class="st1" d="M40.5,24.5c1.7,1.6,3.5,4.4,4,6.8"/>
	<path class="st1" d="M38.3,28.2c2.7-0.2,5.1-0.7,5.7,2.2"/>
	<path class="st1" d="M45.7,36.1c1.7,2.8,3,6.2,3,8.7"/>
	<path class="st1" d="M51.3,36.2c-1.5,3-2.6,8.1-2.8,9.2"/>
	<path class="st1" d="M44.7,40.5c2.1,0.2,3.5-0.3,4.1,3.5"/>
	<path class="st2" d="M49.7,22.5c-0.3,1.3,0.2,1.8-2.6,3.1s-2.8,1.3-2.8,1.3s-0.2-0.6-0.5-1.3c-0.3-0.7-1.5-3.2,0.2-4.9
		c1.7-1.7,2.9-2.5,3.3-2.7c0.4-0.2,1.7-1.2,2.1-1.4"/>
	<path class="st0" d="M35.8,16.3c1.2,1.2,3.8,0.7,5.1,2.6c1.3,1.9,1.1,5.4,1.1,6.5c0.1,1.1,0.9,1-0.7,0.3c-1.7-0.6-2-0.1-3.3-1
		c-1.3-0.9-2.5-3.9-2.2-4.8C36,18.9,35.8,16.3,35.8,16.3z"/>
	<path class="st4" d="M41.3,27.9c-0.4-0.2-0.8-0.7-2.9-1.6c-2.1-0.9-3.8-1.3-4.8,0.2c-1,1.5-0.6,2-1.9,2.7c-1.3,0.7-1.3,0.7-1.3,0.7
		s1.8,0.8,4.3,1.7c2.6,0.9,4.7-1.2,5.5-2.1C40.9,28.5,41.3,27.9,41.3,27.9z"/>
	<path class="st0" d="M42.5,28.3c0,0,0.5,1.5,2.5,2.3c2,0.8,3.8,2.6,2.9,4.7c-0.8,2.1-0.6,3.5-0.6,3.5s0.2-0.3-1.6-0.8
		c-1.8-0.6-3.8-2.7-3.8-4.7C41.9,31.3,42.5,28.3,42.5,28.3z"/>
	<path class="st6" d="M55.5,30.4c0,0-3.6,1.5-5,3c-1.5,1.4-2.1,2.4-1.6,4c0.5,1.6,0.5,2.8,0.5,2.8s2.3-1.6,3.4-1.7
		c1.1-0.1,2.9-1.5,2.8-2.7C55.5,34.5,55.5,30.4,55.5,30.4z"/>
	<path class="st0" d="M46.8,40.6c0,0-1.3-1.3-3-2.2C42,37.5,41,37.1,40,37.7c-1.1,0.6-1.9,1.4-2.9,2.2c-0.9,0.9-1.2,1.3-1.6,1.2
		C35,41.1,36.2,41,38,42.3c1.8,1.3,2.6,2.2,3.6,1.9s1.5-1.5,2.6-2.3C45.3,41.2,46.8,40.6,46.8,40.6z"/>
	<path class="st1" d="M55.8,25.1c-1.2,1.1-3.1,3.4-4.4,5"/>
	<path class="st1" d="M51.5,23.1c0.7,2.2,0.9,5.6,0.1,7.9"/>
	<path class="st1" d="M47.7,25.2c2.4,1.1,4.8,1.9,3.9,4.7"/>
	<path class="st1" d="M50.3,35.7c0.1,3.3-0.4,6.8-1.6,9"/>
	<path class="st1" d="M55.1,38.6c-2.8,1.9-6.2,5.8-7,6.6"/>
	<path class="st1" d="M47.3,39.1c1.7,1.2,3.2,1.4,1.9,5"/>
	<path class="st2" d="M60.4,25.9c-0.9,1-0.7,1.7-3.8,1.4C53.5,27,53.5,27,53.5,27s0.1-0.6,0.2-1.4c0.1-0.7,0.2-3.6,2.5-4.2
		s3.8-0.7,4.2-0.7c0.5,0,2.1-0.2,2.5-0.2"/>
	<path class="st0" d="M51.4,13.7c0.5,1.6,3,2.5,3.2,4.8c0.2,2.3-1.7,5.2-2.2,6.2s0.4,1.3-0.8-0.1c-1.2-1.4-1.7-1.1-2.4-2.5
		c-0.7-1.4-0.2-4.6,0.4-5.3C50.3,16.1,51.4,13.7,51.4,13.7z"/>
	<path class="st4" d="M50.5,26.5c-0.3-0.4-0.3-1-1.7-2.8c-1.4-1.8-2.7-3-4.3-2.2c-1.6,0.8-1.5,1.4-3,1.4c-1.5,0-1.5,0-1.5,0
		s1.2,1.6,2.9,3.6c1.8,2.1,4.7,1.3,5.8,0.9C49.8,26.8,50.5,26.5,50.5,26.5z"/>
	<path class="st5" d="M51.3,27.4c0,0-0.2,1.5,1.1,3.2c1.3,1.7,2,4.2,0.2,5.6S50.4,39,50.4,39s0.3-0.2-1-1.5c-1.3-1.4-2-4.2-1-5.9
		C49.3,29.7,51.3,27.4,51.3,27.4z"/>
	<path class="st6" d="M61.6,35.6c0,0-3.9-0.4-5.9,0.1c-2,0.5-3,1-3.3,2.7c-0.3,1.7-0.9,2.7-0.9,2.7s2.8-0.2,3.8,0.2
		c1.1,0.5,3.2,0.1,3.8-1C59.6,39.2,61.6,35.6,61.6,35.6z"/>
	<path class="st7" d="M49,40.2c0,0-0.5-1.7-1.5-3.4c-1.1-1.7-1.7-2.5-3-2.5c-1.3,0-2.4,0.3-3.6,0.5c-1.2,0.3-1.6,0.5-2,0.2
		c-0.4-0.3,0.7,0.2,1.6,2.2s1.1,3.2,2.2,3.4c1.1,0.3,2.1-0.6,3.4-0.7C47.4,40,49,40.2,49,40.2z"/>
	<path class="st1" d="M63.2,29.5c-1.6,0.5-4.2,1.9-6,2.9"/>
	<path class="st1" d="M60.1,26c-0.3,2.3-1.4,5.5-3,7.3"/>
	<path class="st1" d="M55.8,26.4c1.8,2,3.6,3.6,1.7,5.9"/>
	<path class="st1" d="M54,37.1c-1.2,3-3.1,6.1-5.1,7.6"/>
	<path class="st1" d="M57.3,41.6c-3.3,0.6-8,2.9-9,3.3"/>
	<path class="st1" d="M49.9,39c1.1,1.8,2.4,2.6-0.3,5.4"/>
	<path class="st2" d="M67.2,32c-1.2,0.5-1.3,1.3-4-0.2c-2.8-1.5-2.8-1.5-2.8-1.5s0.4-0.5,0.8-1.2c0.4-0.6,1.6-3.2,4-2.9
		c2.4,0.3,3.7,0.8,4.2,1c0.4,0.2,2,0.7,2.4,0.8"/>
	<path class="st0" d="M63.8,17.3c-0.2,1.7,1.8,3.5,1,5.7c-0.8,2.2-3.7,4.1-4.4,4.8c-0.8,0.7-0.2,1.3-0.7-0.4
		c-0.5-1.7-1.1-1.7-1.2-3.3s1.6-4.3,2.5-4.7C61.8,19,63.8,17.3,63.8,17.3z"/>
	<path class="st4" d="M57.9,28.7c-0.1-0.5,0.1-1.1-0.5-3.2c-0.6-2.2-1.3-3.8-3.1-3.7c-1.8,0.1-2,0.7-3.3,0.1
		c-1.4-0.6-1.4-0.6-1.4-0.6s0.5,1.9,1.3,4.5c0.8,2.6,3.8,3.1,5,3.1C57.1,28.7,57.9,28.7,57.9,28.7z"/>
	<path class="st5" d="M58.2,29.8c0,0-0.8,1.3-0.3,3.4c0.6,2.1,0.2,4.6-2,5.2c-2.2,0.6-3.2,1.7-3.2,1.7s0.3,0-0.3-1.8
		c-0.6-1.8-0.1-4.6,1.4-5.9C55.5,31.2,58.2,29.8,58.2,29.8z"/>
	<path class="st6" d="M64.5,41.4c0,0-3.4-1.9-5.4-2.2c-2-0.3-3.2-0.2-4.1,1.2c-1,1.4-1.9,2.1-1.9,2.1s2.6,0.9,3.4,1.7
		c0.8,0.8,2.9,1.4,3.8,0.6C61.2,43.9,64.5,41.4,64.5,41.4z"/>
	<path class="st7" d="M51,40.7c0,0,0.2-1.8-0.1-3.7c-0.3-1.9-0.6-3-1.8-3.4c-1.2-0.5-2.3-0.7-3.5-0.9c-1.2-0.2-1.7-0.2-1.9-0.6
		c-0.2-0.4,0.5,0.4,0.6,2.7c0.1,2.2-0.2,3.4,0.7,4.1c0.9,0.7,2.2,0.3,3.4,0.7C49.7,39.9,51,40.7,51,40.7z"/>
	<path class="st1" d="M69.4,40.9c-1.5-0.5-4.5-0.9-6.6-1.1"/>
	<path class="st1" d="M68.8,36.2c-1.5,1.7-4.3,3.7-6.7,4.3"/>
	<path class="st1" d="M65.1,34.1c0.3,2.7,0.9,5-1.9,5.8"/>
	<path class="st1" d="M57.5,41.8c-2.7,1.8-6,3.2-8.5,3.3"/>
	<path class="st1" d="M57.5,47.4c-3.1-1.4-8.2-2.2-9.3-2.5"/>
	<path class="st1" d="M53,41c-0.1,2.1,0.5,3.5-3.3,4.2"/>
	<path class="st14" d="M70.7,45.4c-1.3-0.2-1.8,0.3-3.2-2.5C66,40.1,66,40.1,66,40.1s0.6-0.2,1.3-0.5c0.7-0.3,3.2-1.7,4.9,0
		c1.8,1.6,2.6,2.8,2.8,3.2s1.2,1.7,1.5,2"/>
	<path class="st0" d="M76.8,31.2c-1.1,1.3-0.6,3.9-2.4,5.2S69,37.7,68,37.8c-1.1,0.1-0.9,1-0.4-0.7c0.6-1.7,0-2,0.9-3.4
		c0.9-1.4,3.8-2.6,4.7-2.4C74.2,31.5,76.8,31.2,76.8,31.2z"/>
	<path class="st4" d="M65.5,37.1c0.2-0.4,0.7-0.8,1.5-2.9c0.8-2.1,1.1-3.9-0.4-4.8c-1.5-0.9-2-0.5-2.8-1.8c-0.7-1.3-0.7-1.3-0.7-1.3
		s-0.7,1.8-1.5,4.4c-0.8,2.6,1.3,4.7,2.3,5.4C64.8,36.7,65.5,37.1,65.5,37.1z"/>
	<path class="st0" d="M65.1,38.3c0,0-1.4,0.6-2.2,2.6c-0.7,2-2.5,3.9-4.6,3.1c-2.1-0.7-3.6-0.5-3.6-0.5s0.3,0.2,0.8-1.7
		c0.5-1.8,2.6-3.9,4.5-4C62.1,37.8,65.1,38.3,65.1,38.3z"/>
	<path class="st15" d="M63.5,51.3c0,0-1.7-3.5-3.2-4.9c-1.5-1.4-2.4-2-4.1-1.4s-2.7,0.6-2.7,0.6s1.7,2.2,1.8,3.4
		c0.2,1.1,1.6,2.8,2.8,2.7C59.4,51.5,63.5,51.3,63.5,51.3z"/>
	<path class="st7" d="M52.9,43.1c0,0,1.2-1.3,2.1-3.1c0.9-1.8,1.2-2.8,0.5-3.8c-0.7-1.1-1.5-1.9-2.4-2.8c-0.9-0.9-1.3-1.1-1.3-1.6
		c0.1-0.5,0.2,0.7-1,2.5c-1.2,1.9-2.1,2.6-1.8,3.7c0.4,1.1,1.6,1.5,2.4,2.5C52.3,41.6,52.9,43.1,52.9,43.1z"/>
	<path class="st1" d="M65.2,33.8c-1.6,0.2-4.5,1.1-6.5,1.7"/>
	<path class="st1" d="M62.7,29.7c-0.7,2.2-2.4,5.1-4.3,6.6"/>
	<path class="st1" d="M58.5,29.3c1.4,2.3,2.9,4.2,0.6,6.1"/>
	<path class="st1" d="M54.7,39.4c-1.8,2.7-4.2,5.4-6.4,6.5"/>
	<path class="st1" d="M57,44.5c-3.4,0-8.4,1.3-9.5,1.5"/>
	<path class="st1" d="M50.3,40.5c0.8,1.9,1.9,3-1.3,5.2"/>
	<path class="st2" d="M68.6,37c-1.3,0.3-1.5,1-3.9-1c-2.5-2-2.5-2-2.5-2s0.5-0.5,1-1c0.5-0.5,2.2-2.8,4.5-2.1s3.5,1.5,3.9,1.8
		c0.4,0.3,1.8,1,2.2,1.2"/>
	<path class="st14" d="M68,21.8c-0.5,1.6,1.1,3.7-0.1,5.8s-4.4,3.4-5.3,3.9C61.7,32,62.2,32.8,62,31c-0.2-1.8-0.8-1.8-0.6-3.4
		c0.2-1.6,2.4-3.9,3.3-4.2C65.7,23.2,68,21.8,68,21.8z"/>
	<path class="st12" d="M60.1,31.9c0-0.5,0.3-1,0.1-3.3c-0.2-2.3-0.6-4-2.3-4.3s-2,0.3-3.3-0.5C53.4,23,53.4,23,53.4,23
		s0.1,1.9,0.4,4.6s3.1,3.7,4.3,4C59.3,31.8,60.1,31.9,60.1,31.9z"/>
	<path class="st14" d="M60.2,33.1c0,0-1.1,1.1-0.9,3.3c0.2,2.1-0.7,4.5-2.9,4.7c-2.3,0.2-3.4,1-3.4,1s0.3,0,0-1.8
		c-0.3-1.8,0.8-4.6,2.5-5.5C57.3,34,60.2,33.1,60.2,33.1z"/>
	<path class="st6" d="M64.1,45.7c0,0-3-2.5-4.9-3.2c-1.9-0.7-3.1-0.8-4.3,0.4c-1.2,1.2-2.3,1.7-2.3,1.7s2.4,1.4,3.1,2.3
		c0.6,1,2.6,1.9,3.7,1.3C60.5,47.5,64.1,45.7,64.1,45.7z"/>
	<path class="st7" d="M51.1,42.4c0,0,0.6-1.7,0.6-3.7s0-3-1.1-3.7c-1-0.7-2.1-1.1-3.3-1.6c-1.2-0.4-1.6-0.5-1.8-0.9
		c-0.1-0.4,0.4,0.5,0.1,2.7c-0.4,2.2-0.9,3.3-0.1,4.1s2.1,0.7,3.2,1.3C49.9,41.4,51.1,42.4,51.1,42.4z"/>
	<path class="st13" d="M44,28.6c-0.4,1.6-0.5,4.5-0.5,6.7"/>
	<path class="st13" d="M39.3,29.5c1.9,1.4,4,3.9,4.8,6.3"/>
	<path class="st13" d="M37.6,33.4c2.6-0.5,4.9-1.3,6,1.4"/>
	<path class="st13" d="M45.9,40.3c2,2.6,3.7,5.7,4,8.2"/>
	<path class="st13" d="M51.5,39.8c-1.1,3.2-1.5,8.4-1.7,9.4"/>
	<path class="st13" d="M45.5,44.8c2.1-0.1,3.4-0.8,4.5,2.9"/>
	<path class="st14" d="M48.2,26.4c-0.1,1.3,0.5,1.7-2.2,3.4s-2.7,1.7-2.7,1.7s-0.3-0.6-0.6-1.3c-0.3-0.7-1.9-3-0.5-4.9
		c1.5-1.9,2.6-2.8,3-3.1c0.4-0.3,1.6-1.4,1.9-1.6"/>
	<path class="st14" d="M33.7,22c1.4,1,3.9,0.2,5.4,2s1.7,5.2,1.9,6.3c0.2,1,1.1,0.8-0.7,0.4c-1.7-0.4-2,0.1-3.4-0.6
		c-1.4-0.7-2.9-3.5-2.8-4.5C34.2,24.6,33.7,22,33.7,22z"/>
	<path class="st14" d="M40.6,32.8c-0.5-0.1-0.9-0.6-3-1.2c-2.2-0.6-4-0.8-4.8,0.8c-0.8,1.6-0.4,2-1.6,2.9c-1.2,0.9-1.2,0.9-1.2,0.9
		s1.9,0.5,4.5,1.2c2.6,0.6,4.6-1.7,5.2-2.8C40.2,33.4,40.6,32.8,40.6,32.8z"/>
	<path class="st14" d="M41.8,33.1c0,0,0.7,1.4,2.8,1.9s4.1,2.1,3.5,4.3s-0.2,3.6-0.2,3.6s0.1-0.3-1.7-0.6c-1.8-0.3-4.1-2.2-4.3-4.2
		C41.6,36.1,41.8,33.1,41.8,33.1z"/>
	<path class="st0" d="M54.9,33.5c0,0-3.3,2-4.6,3.6c-1.3,1.6-1.8,2.6-1,4.2c0.7,1.6,0.9,2.7,0.9,2.7s2.1-1.9,3.2-2.1
		c1.1-0.3,2.7-1.8,2.4-3C55.4,37.5,54.9,33.5,54.9,33.5z"/>
	<path class="st13" d="M47.6,44.7c0,0-1.4-1.1-3.3-1.8c-1.8-0.7-2.9-1-3.9-0.2c-1,0.8-1.7,1.6-2.6,2.6c-0.8,1-1,1.4-1.5,1.4
		s0.6-0.2,2.6,0.8c2,1.1,2.8,1.9,3.9,1.4c1-0.5,1.3-1.7,2.3-2.6C46.2,45.5,47.6,44.7,47.6,44.7z"/>
</g>
</svg>
