<?xml version="1.0" encoding="utf-8"?>
<!-- Generator: Adobe Illustrator 23.1.1, SVG Export Plug-In . SVG Version: 6.00 Build 0)  -->
<svg version="1.1" id="Layer_1" xmlns="http://www.w3.org/2000/svg" xmlns:xlink="http://www.w3.org/1999/xlink" x="0px" y="0px"
	 viewBox="0 0 108 108" style="enable-background:new 0 0 108 108;" xml:space="preserve">
<style type="text/css">
	.st0{fill-rule:evenodd;clip-rule:evenodd;fill:#7E9D3D;}
	.st1{fill:#59883D;}
	.st2{fill:#76AF42;}
</style>
<g>
	<path class="st0" d="M28.05,57c0.08-0.02,0.1,0,0.16,0.02c0,0,0,0-0.02,0C28.14,56.99,28.08,57.02,28.05,57
		c-3.52,0.09-4.63,7.54,0.74,6.07c0.18-0.17,0.47-0.28,0.78-0.27l0,0c-0.28,0.09-0.51,0.17-0.78,0.27
		c-0.39,0.28-0.59,0.77-0.63,1.23c-0.81,0.47-1.21,1.81,0.43,2.29c-1.21,0.6-0.35,1.65,0.51,1.93c-1.75,1.58-2.13,3.81-1.07,5.77
		c1.17,2.22,4.33,4.36,6.84,3.21c0.1,0.04,0.15,0.09,0.2,0.11c-1.07,1.14-0.87,2.52,0.86,2.77c-1.04,1.26,0.72,3.14,1.97,0.27
		c-1.69,2.07,0.65,4.95,2.56,4.65c0.46,0.62,1.01,1.12,1.64,1.41c1.49,0.75,3.43,0.49,4.9-0.52c0.92,1.34,2.9,1.23,3.81-0.07
		c0.83,0.34,1.76,0.43,2.59,0.2c0.72,1.95,4.29,1.37,3.97-1.28c0.53,0.85,1.42,0.97,2.17,0.71c1.09,0.62,2.02,0.03,2.61-0.91
		c0.16-0.01,0.3-0.07,0.47-0.1c1.45,1.55,3.75,2.17,5.5,1.45c2.18-0.84,3.51-3.73,2.69-6.11c0.2-0.13,0.4-0.23,0.54-0.39
		c2.94,0.75,6.94-3.73,2.26-5.63c-0.22-0.01-0.45-0.12-0.66-0.21c0,0,0,0-0.02,0c0.25,0.09,0.45,0.13,0.68,0.22
		c1.31,0.02,2.36-1.84,1.23-2.65c0.57-0.49,0.96-1.16,1.04-1.84c2.79,0.21,4.76-1.5,5.16-3.97c0.44-2.75-1.07-6.99-4.5-6.86
		c2.19,0.24,3.37-1.28,1.9-2.78c1.61-0.39,1.32-2.94-1.39-1.41c3.34-0.83,2.26-6.8-1.1-5.28c1.98-1.83-0.72-4.86-3.07-3.58
		c1.01-1.87-0.45-3.44-2.01-3.45c-0.22-0.56-0.73-0.97-1.81-0.57c0.49-0.92-0.17-1.32-0.87-1.34c0.25-1.85-2.67-3.28-3.94-1.11
		c0.07-0.96-0.55-1.62-1.33-1.86c-0.51-1.16-1.6-1.28-2.61-0.89c-0.67-0.48-1.28-0.5-1.93-0.13c-0.25-0.2-0.69-0.27-1.26-0.2
		c-0.9-0.61-1.78-0.48-2.01,0.2c0.04,0.12,0.07,0.27,0.07,0.42c-0.02,0.02-0.09,0.03-0.11,0.07c0-0.18-0.01-0.35,0.05-0.49
		c-0.4-1.2-2.16-1.32-3.46-0.79c-0.37-0.45-0.9-0.58-1.49-0.55c-1.18-0.95-2.7-1.44-4.02-1.13c-2.34,0.47-4.19,3.09-3.75,5.61
		c-0.07,0.11-0.21,0.16-0.28,0.27c-0.07-0.01-0.17,0.01-0.25,0.01c-2.06-1.01-5.35,0.87-4.94,3.05c-0.89,0.34-1.64,1.12-1.95,2.05
		c-0.39,0.45-0.55,1.09-0.32,1.74c-1.35-0.98-2.57,0.9-1.26,2.16c-0.03,0-0.06,0.02-0.07,0.05c-2.55-1.87-6.23-0.96-7.56,1.23
		C24.42,52.31,25.4,55.88,28.05,57z"/>
	<path class="st1" d="M32.01,58.97c0,0.07,0.04,0.16,0.05,0.23c-2.4,0.4-3.09,5.53,0.8,4.47c-0.9,0.66-0.51,2.6,0.92,1.99
		c-0.17,0.49-0.21,1.02-0.09,1.57c-1.87,1.13-2.3,3.13-1.38,4.81c0.97,1.82,3.79,3.63,5.72,2.03c-1.36,0.85-1.38,2.28,0.13,2.49
		c-0.76,0.99,0.56,2.31,1.49,0.2c-1.62,2,1.7,5.07,3.03,2.64c-0.34,1.99,2.62,2.54,3.42,0.72c0.34,2.03,2.9,1.91,3.43,0.27
		c-0.61-0.29-1.03-0.84-0.9-1.64c-1.02,1.93-3.33,0.36-3.43-1.36c0.88,0.45,2.19,0.21,2.67-0.89c0.33,2.05,2.92,1.93,3.4,0.27
		c-0.56-0.29-1.02-0.87-0.85-1.66c-1.3,2.44-4.67-0.63-3.04-2.63c-0.92,2.12-2.23,0.77-1.46-0.21c-1.51-0.2-1.53-1.64-0.14-2.49
		c-1.94,1.61-4.78-0.22-5.72-2.02c-0.23-0.38-0.34-0.77-0.42-1.19c0.27-0.15,0.54-0.3,0.84-0.42c-0.55-0.03-0.59-0.92-0.27-1.4
		c-0.17,0.11-0.31,0.18-0.45,0.25c0.31-1.03,1.15-1.93,2.5-2.47c-0.57-0.05-0.61-0.89-0.27-1.42c-1.8,1.35-2.36-1.01-1.36-1.74
		c-1.44,0.39-2.23-0.06-2.58-0.81c0.08-0.01,0.13-0.07,0.23-0.08c-0.11-0.02-0.22-0.11-0.33-0.18c-0.4-1.35,0.53-3.37,2.12-3.43
		c-1.18-0.5-1.87-1.61-2.08-2.75c1.33-0.7,3.14-0.68,4.44,0.39c-1.43-1.04,0.01-2.99,1.22-1.3c-0.55-0.9-0.34-1.85,0.23-2.51
		c0.07,0.07,0.22,0.12,0.29,0.19c-0.09-0.08-0.19-0.16-0.26-0.29c0.87-0.93,2.4-1.28,3.25,0.1c0.05-0.38,0.16-0.7,0.26-1.03
		c-0.01-0.01-0.01-0.03-0.02-0.06c0-0.02,0.02-0.03,0.05-0.04c0.15-0.4,0.39-0.75,0.67-1.03c-0.08-0.1-0.14-0.19-0.33-0.28
		c1.41-0.65-0.51-2.81-1.33-0.92c-0.13-0.44-0.4-0.51-0.66-0.45c0.85-0.88,2.32-1.14,3.14,0.18c0.03-0.4,0.16-0.7,0.28-1
		c-0.02-0.02-0.01-0.06-0.08-0.08c0.07-0.03,0.07-0.03,0.08-0.04c0.15-0.4,0.39-0.74,0.68-1.02c-0.07-0.09-0.18-0.21-0.34-0.28
		c1.42-0.64-0.54-2.82-1.32-0.91c-0.54-1.48-2.3,0.77-1.24,1.11c-2.51-0.35-3.83,0.7-4.05,2.9c-1.45-2.36-4.93,0.22-3.52,2.49
		c-1.1-1.53-2.41-0.03-1.51,1.05c0,0.02-0.04,0.05-0.05,0.06c-1.86-1.26-4.55-0.59-5.47,1.03c-0.43,0.7-0.54,1.58-0.4,2.39
		c-0.58,0.3-1.09,0.68-1.38,1.24C29.66,55.54,30.29,57.98,32.01,58.97z M37.05,62.92L37.05,62.92c0,0,0,0,0.04-0.01L37.05,62.92z
		 M44.89,77.11c-0.57,0.34-1.07-0.15-0.96-0.72c0.2-0.15,0.37-0.34,0.49-0.62C44.35,76.36,44.53,76.82,44.89,77.11z M41.1,73.77
		c-0.02,0-0.05,0.02-0.06,0.01c0.14-0.18,0.25-0.37,0.36-0.63C41.25,73.33,41.17,73.59,41.1,73.77z M39.94,72.95
		c-0.03,0.02-0.07,0.09-0.11,0.17c-0.22-0.16-0.4-0.31-0.57-0.49C39.43,72.76,39.64,72.89,39.94,72.95z M38.97,72.33
		c-0.28-0.31-0.55-0.65-0.71-0.96c-0.04-0.09-0.1-0.22-0.12-0.32c0.57-0.01,1.15-0.19,1.68-0.63
		C38.91,70.99,38.64,71.77,38.97,72.33z M45.22,46.45c-0.01,0.01-0.05,0-0.08,0.01c-0.01-0.03-0.01-0.06-0.01-0.08
		C45.17,46.4,45.19,46.42,45.22,46.45z M41.52,48.01c-0.16,0.39-0.28,0.83-0.31,1.35c-0.39-0.61-0.85-0.87-1.38-0.92
		C40.36,48.18,40.95,48.04,41.52,48.01z"/>
	<path class="st2" d="M44.6,66.66c0.16,0.19,0.35,0.51,0.78,0.67c0.23,0.12,0.45,0.24,0.69,0.29c0.2,0.45,0.7,0.81,1.23,0.76
		c0.04,0.15,0.09,0.33,0.23,0.47c0.01,0.01,0.02,0.06,0.04,0.06c0.2,0.24,0.46,0.43,0.71,0.51c-0.34,0.95-0.02,2.05,0.67,2.51
		c0.26,0.07,0.58,0.22,1.04,0.1c0.88-0.1,1.59-0.55,1.8-1.25c-0.28,1.32,2.15,1.87,2.37,0.55c0.7-0.22,1.32-0.67,1.39-1.4
		c0.01-0.01,0.06,0,0.07-0.01c0.12,0.46,0.38,0.71,0.73,0.6c0.61,0.6,1.44,0.71,2.16,0.31c0.5-0.27,1.01-0.8,1.23-1.4
		c0.66,0.14,1.36-0.69,0.98-1.42c0.02-0.01,0.03-0.02,0.03-0.05c0.76,0.33,1.36-0.29,1.27-0.95c0.73-0.33,1.21-1.31,0.29-1.72
		c0.61,0.1,0.96-0.41,0.96-0.94c0.1-0.06,0.23-0.15,0.29-0.33c1.22-0.23,0.55-1.53-0.01-1.94c0.71,0.35,0.94-0.28,0.33-1.36
		c0.64-0.23,0.56-0.69-0.04-1.06c1.28-0.11,0.78-1.95-0.44-1.49c0.52-0.52,0.16-1.33-0.41-1.34c0.13-0.85-0.16-1.14-0.81-1.16
		c-0.06-0.61-0.44-0.94-0.73-0.74c-0.04,0.11-0.1,0.22-0.22,0.32c0.06-0.16,0.14-0.26,0.22-0.32c0.22-0.57-0.53-1.21-1.16-1.22
		c-0.16-0.13-0.38-0.21-0.64-0.17c-0.23-0.7-1.4-1.22-1.78-0.49c-0.36-0.6-0.74-0.69-1.2-0.41c-0.08-0.16-0.23-0.19-0.4-0.2
		c-0.18-0.1-0.34-0.16-0.46-0.14c-0.08-0.43-0.52-0.5-0.84-0.3c-0.45-0.1-1,0.05-1.22,0.39c-0.2-0.11-0.41-0.14-0.63-0.06
		c-0.61-0.25-1.5-0.02-1.55,0.58c-0.36-0.35-1.13-0.04-1.42,0.54c-0.24,0.03-0.49,0.22-0.47,0.53c0-0.01-0.03,0.01-0.03-0.01
		c-0.37-0.71-1.05-0.36-1.08,0.27c-1.03-0.19-1.8,0.47-1.23,0.18c-0.38,0.31-0.36,0.74-0.08,1c-0.12,0.3-0.08,0.66,0.29,1.01
		c-0.33-0.2-0.65,0.09-0.62,0.49c-0.04-0.03-0.12-0.03-0.21-0.03c-0.06-0.05-0.11-0.08-0.17-0.11c-0.11-0.68-1.35-0.51-0.8,0.37
		c0,0,0,0-0.01,0c-0.62-0.17-0.44,0.75-0.13,0.91c0.01,0.07,0.02,0.19,0.08,0.25c-0.14,0.16-0.27,0.33-0.33,0.5
		c-0.21,0.13-0.3,0.3-0.14,0.51c0.01,0.04-0.01,0.09-0.03,0.12c-1.26,0.36-1.63,1.65-1.27,1.02c-0.23,0.66,0.47,1.05,0.96,0.79
		c-0.27,0.68,0.05,1.65,1.01,1.69c-0.26-0.01-0.42,0.08-0.51,0.17c-0.11-0.49-0.48-0.54-0.62-0.16c-0.47-0.76-1.56,0.25-0.52,0.66
		c-0.79,0.27,0.47,1.18,0.6,0.69c-0.02,0.22,0.02,0.39,0.04,0.58C44.56,65.43,44.42,66.12,44.6,66.66z M47.06,57.19
		c0.03,0.08,0.03,0.16,0.13,0.24c-0.07-0.07-0.12-0.13-0.16-0.19C47.04,57.23,47.04,57.21,47.06,57.19z M45.3,60.8c0,0,0,0,0.02,0
		c-0.03,0.01-0.03,0.02-0.05,0.02C45.27,60.8,45.3,60.8,45.3,60.8z"/>
</g>
</svg>
