<?xml version="1.0" encoding="utf-8"?>
<!-- Generator: Adobe Illustrator 23.1.1, SVG Export Plug-In . SVG Version: 6.00 Build 0)  -->
<svg version="1.1" id="Layer_1" xmlns="http://www.w3.org/2000/svg" xmlns:xlink="http://www.w3.org/1999/xlink" x="0px" y="0px"
	 viewBox="0 0 55.2 55.6" style="enable-background:new 0 0 55.2 55.6;" xml:space="preserve">
<style type="text/css">
	.st0{fill-rule:evenodd;clip-rule:evenodd;fill:#759669;}
	.st1{opacity:0.57;fill:#4B613D;enable-background:new    ;}
	.st2{fill-rule:evenodd;clip-rule:evenodd;fill:#8AA27B;}
	.st3{fill:#76935E;}
	.st4{opacity:0.67;fill:#68431A;enable-background:new    ;}
</style>
<g>
	<path class="st0" d="M44.7,47.6c-0.1,0-0.1-0.1-0.1-0.1C44.6,47.5,44.6,47.5,44.7,47.6C44.6,47.6,44.7,47.6,44.7,47.6
		c2.9,2.1,8.2-3.2,3.1-5.3c-0.2,0-0.6-0.1-0.8-0.2l0,0c0.3,0.1,0.5,0.2,0.8,0.2c0.5,0,0.9-0.2,1.2-0.6c0.9,0.1,2.1-0.7,1-2.1
		c1.3,0.2,1.3-1.1,0.8-1.8c2.3-0.2,4-1.8,4.3-4c0.4-2.5-0.8-6.1-3.5-6.7c-0.1-0.1-0.1-0.2-0.1-0.2c1.5-0.3,2.2-1.5,1-2.7
		c1.6-0.4,1.3-2.9-1.4-1.4c2.6-0.6,2.5-4.3,0.8-5.2c0-0.8-0.1-1.5-0.5-2.1c-0.7-1.5-2.4-2.5-4.2-2.5c0.1-1.6-1.6-2.7-3.1-2.2
		c-0.5-0.8-1.2-1.4-1.9-1.7c0.6-2-2.6-3.7-3.9-1.4c0.1-1-0.5-1.6-1.3-1.9c-0.5-1.2-1.6-1.2-2.6-0.8c-0.1-0.1-0.3-0.1-0.4-0.2
		c-0.2-2.1-1.7-4-3.5-4.5c-2.2-0.6-5,0.9-5.8,3.2c-0.2,0-0.5-0.1-0.7,0C22,1,16.1,2.2,18.7,6.5c0.2,0.1,0.3,0.4,0.4,0.6c0,0,0,0,0,0
		c-0.2-0.2-0.3-0.4-0.4-0.6c-1-0.8-3,0-2.6,1.4c-0.8,0-1.5,0.3-1.9,0.8c-2.1-1.8-4.7-1.7-6.5,0c-2,1.9-3.4,6.2-0.5,8.2
		c-1.6-1.5-3.5-1-3.2,1.1c-1.5-0.7-2.8,1.5,0.3,2c-3.2-1.4-5.9,4-2.3,4.9c-2.7,0.3-2.4,4.3,0.3,4.7c-1.9,0.9-1.7,3-0.5,4
		c-0.2,0.6,0,1.2,1.1,1.5c-1,0.4-0.7,1.2-0.1,1.6c-1.3,1.3,0.1,4.2,2.5,3.3c-0.6,0.7-0.5,1.6-0.1,2.3c-0.3,1.2,0.5,2,1.5,2.3
		c0.2,0.8,0.7,1.2,1.5,1.3c0.1,0.3,0.4,0.6,0.9,0.9c0.3,1,1.1,1.4,1.7,1.1c0-0.1,0.1-0.2,0.2-0.4c0,0,0.1,0,0.1,0
		c-0.1,0.1-0.2,0.3-0.3,0.4c-0.4,1.2,0.9,2.3,2.3,2.7c0,0.6,0.4,1,0.8,1.3c0.4,1.5,1.3,2.8,2.5,3.3c2.2,1,5.2,0.1,6.4-2.2
		c0.1-0.1,0.3,0,0.4-0.1c0,0.1,0.2,0.1,0.2,0.1c1,2.1,4.8,2.5,5.8,0.6c0.9,0.3,2,0.1,2.8-0.5c0.6-0.1,1.1-0.5,1.3-1.2
		c0.5,1.6,2.6,0.8,2.3-1c0,0,0.1,0,0.1,0c0.9,3,4.4,4.5,6.8,3.6C44.8,53.5,46.1,50.1,44.7,47.6z"/>
	<path class="st1" d="M42.7,43.7c0-0.1,0.1-0.2,0.1-0.2c2.2,1.1,5.8-2.5,2.1-4.1c1.1,0,2-1.8,0.5-2.1c0.4-0.3,0.8-0.7,1-1.2
		c2.2,0.2,3.7-1.1,4-3c0.3-2-0.8-5.2-3.3-5.1c1.6,0.1,2.5-1,1.4-2.1c1.2-0.3,0.9-2.2-1.1-1.1c2.5-0.6,1.7-5.1-0.8-3.9
		c1.5-1.4-0.6-3.6-2.3-2.6c0.9-1.8-1.2-3.3-2.6-2.3c0.3,0.6,0.3,1.3-0.3,1.8c2-0.9,2.9,1.7,1.9,3.2c-0.4-0.9-1.6-1.5-2.7-0.9
		c1-1.8-1.2-3.3-2.6-2.3c0.3,0.6,0.3,1.3-0.3,1.8c2.5-1.2,3.3,3.3,0.8,3.9c2-1.1,2.2,0.7,1,1c1.1,1.1,0.2,2.2-1.4,2.1
		c2.5-0.1,3.7,3.1,3.3,5.1c-0.1,0.4-0.2,0.8-0.4,1.2c-0.3,0-0.6-0.1-0.9-0.2c0.4,0.4-0.1,1.1-0.6,1.3c0.2,0,0.4,0,0.5,0.1
		c-0.9,0.6-2.1,0.9-3.5,0.5c0.4,0.4,0,1.1-0.6,1.3c2.3,0,1.3,2.2,0,2.2c1.4,0.6,1.7,1.4,1.6,2.2c-0.1,0-0.2,0-0.2-0.1
		c0.1,0.1,0.1,0.2,0.2,0.3c-0.5,1.3-2.5,2.4-3.8,1.4c0.6,1.1,0.5,2.4,0,3.4c-1.5-0.2-2.9-1.3-3.3-3c0.5,1.7-1.8,2.4-1.8,0.3
		c-0.1,1.1-0.8,1.7-1.7,1.9c0-0.1-0.1-0.2-0.1-0.3c0,0.1,0,0.2,0,0.4c-1.2,0.2-2.7-0.4-2.5-2c-0.3,0.3-0.5,0.5-0.8,0.7
		c0,0,0,0,0,0.1c0,0,0,0-0.1,0c-0.4,0.2-0.8,0.4-1.2,0.4c0,0.1,0,0.2,0.1,0.4C21,44,21.2,46.8,23,45.8c-0.2,0.4,0,0.7,0.2,0.8
		c-1.2,0.2-2.5-0.5-2.4-2c-0.3,0.3-0.5,0.5-0.8,0.6c0,0,0,0.1,0,0.1c-0.1,0-0.1,0-0.1,0c-0.4,0.2-0.8,0.4-1.2,0.4
		c0,0.1,0,0.3,0.1,0.4c-1.5-0.3-1.3,2.6,0.5,1.5c-0.5,1.5,2.3,0.8,1.7-0.1c1.8,1.8,3.5,1.8,5,0.1c-0.3,2.8,4.1,2.8,4.3,0.1
		c0,1.9,1.9,1.5,1.8,0.1c0,0,0.1,0,0.1,0c0.7,2.1,3.3,3.2,5,2.5c0.8-0.3,1.4-0.9,1.8-1.7c0.7,0.1,1.3,0.1,1.8-0.2
		C42.5,47.8,43.5,45.5,42.7,43.7z M41.1,37.5L41.1,37.5C41.1,37.5,41.1,37.5,41.1,37.5L41.1,37.5z M43.4,21.4
		c0.7,0.1,0.8,0.8,0.3,1.2c-0.2,0-0.5,0-0.8,0.2C43.4,22.3,43.5,21.9,43.4,21.4z M44.4,26.4C44.4,26.4,44.5,26.4,44.4,26.4
		c-0.2,0.1-0.4,0.2-0.6,0.3C44,26.6,44.3,26.5,44.4,26.4z M44.9,27.7c0,0,0.1,0,0.2-0.1c0.1,0.3,0.1,0.5,0.2,0.7
		C45.1,28.2,45.1,27.9,44.9,27.7z M45.2,28.8c0,0.4,0,0.8,0,1.2c0,0.1-0.1,0.2-0.1,0.3c-0.5-0.3-1-0.5-1.7-0.5
		C44.5,29.9,45.2,29.4,45.2,28.8z M24.6,45.7C24.7,45.7,24.7,45.7,24.6,45.7c0.1,0.1,0,0.1,0,0.1C24.7,45.7,24.7,45.7,24.6,45.7z
		 M28.5,46.7c0.4-0.2,0.7-0.5,1.1-0.9c-0.1,0.7,0.2,1.2,0.5,1.6C29.6,47.2,29,47,28.5,46.7z"/>
	<path class="st2" d="M34.1,35.3c0.6-0.4,0.2-1.1-0.3-1.2c0.6-0.4,1-1.3,0.2-2c0.2,0.2,0.4,0.2,0.5,0.2c-0.2,0.5,0,0.7,0.4,0.5
		c-0.1,0.9,1.4,0.8,0.8-0.2c0.8,0.3,0.3-1.2-0.1-0.9c0.2-0.2,0.2-0.3,0.3-0.5c0.6-0.2,1.1-0.7,1.3-1.2c0-0.2,0-0.6-0.2-1
		c-0.1-0.2-0.2-0.5-0.4-0.7c0.1-0.5-0.1-1.1-0.5-1.3c0.1-0.2,0.1-0.3,0.1-0.5c0,0,0-0.1,0-0.1c0-0.3-0.1-0.6-0.3-0.8
		c0.9-0.5,1.2-1.6,1-2.4c-0.2-0.2-0.3-0.5-0.8-0.7c-0.8-0.5-1.6-0.5-2.2-0.1l0,0c1-0.9-0.6-2.8-1.6-1.9c-0.7-0.2-1.5-0.3-2,0.3
		c0,0,0,0-0.1,0c0.2-0.4,0.1-0.8-0.2-0.9c-0.1-0.8-0.7-1.4-1.5-1.6c-0.6-0.1-1.3,0-1.8,0.4c-0.5-0.5-1.5-0.3-1.6,0.5c0,0,0,0,0,0
		c-0.4-0.7-1.3-0.6-1.6,0c-0.8-0.2-1.8,0.3-1.3,1.2c-0.4-0.5-1-0.2-1.3,0.2c-0.1,0-0.3,0-0.4,0.1c-1.3-0.6-1.4,1.3-1.1,1.8
		c-0.3-1-1-0.7-1.2,0.7c-0.7-0.2-0.9,0.2-0.6,0.9c-1.1-0.7-1.8,1.1-0.5,1.5c-0.7,0.1-0.9,1-0.5,1.3c-0.6,0.6-0.6,1,0,1.4
		c-0.4,0.7-0.1,1.3,0.5,0.9c-1,0-0.8,1.3-0.2,1.8c0,0.2,0.2,0.4,0.4,0.5c-0.2,0.7,0.4,1.8,1.1,1.5c-0.1,0.7,0.2,1,0.7,1
		c0,0.2,0.1,0.3,0.2,0.4c0.1,0.2,0.2,0.3,0.3,0.4c-0.2,0.4,0.1,0.7,0.5,0.8c0.3,0.3,0.8,0.6,1.2,0.4c0.1,0.2,0.2,0.4,0.5,0.4
		c0.3,0.6,1.2,0.9,1.6,0.5c0.1,0.5,0.9,0.7,1.5,0.4c0.2,0.1,0.5,0.1,0.7-0.1c0,0,0,0,0,0c-0.1,0.8,0.6,0.9,1,0.4
		c0.7,0.8,1.7,0.7,1.1,0.6c0.5,0,0.7-0.4,0.7-0.8c0.3-0.2,0.5-0.5,0.4-1c0.1,0.4,0.6,0.3,0.8,0c0,0.1,0.1,0.1,0.2,0.2
		c0,0.1,0,0.1,0.1,0.2c-0.3,0.6,0.8,1.2,0.9,0.2c0,0,0,0,0,0c0.4,0.5,0.8-0.3,0.7-0.7c0-0.1,0.1-0.2,0.1-0.2c0.2,0,0.4-0.1,0.6-0.2
		c0.3,0,0.4-0.1,0.4-0.3c0,0,0.1-0.1,0.1-0.1C33.7,35.8,34.8,35,34.1,35.3z M33.2,34.2C33.2,34.2,33.2,34.2,33.2,34.2
		C33.3,34.2,33.3,34.2,33.2,34.2C33.3,34.2,33.2,34.2,33.2,34.2z M23.7,36L23.7,36C23.7,36,23.7,36,23.7,36L23.7,36z M29.7,36
		C29.7,36,29.7,36,29.7,36c0-0.1,0-0.1,0-0.2C29.7,35.8,29.7,35.9,29.7,36z"/>
	<path class="st3" d="M21.5,29.7c0.2,0.1,0.4,0.1,0.2-0.5c0.1,0.4,0.7,0.1,0.6-0.2c0.2,0.1,0.4,0,0.6-0.1c-0.5,0.4-0.3,1,0.2,1.1
		c-0.1,0.1-0.5,0.1-0.5,0.4c0.1,0,0.2-0.1,0.3-0.2c-0.1,0.8,1.2,0.9,1.3,0c0,0.6,0.7,0.4,0.5-0.1c0.2,0.7,1,1.1,1.6,0.8
		c0.5-0.2,0.8-1,0.5-1.6c-0.1,0-0.2-0.1-0.2-0.2c0.1,0.1,0.1,0.2,0.2,0.2c0.7,0.5,1.9-0.7,0.7-1.2c-0.1,0-0.2,0-0.2-0.1
		c0.1,0,0.1,0,0.2,0.1c0.4,0,0.6-0.7-0.1-0.7c0.2,0,0.3-0.3,0.2-0.4c-0.1,0-0.1,0-0.2-0.1c0.1,0,0.2,0,0.2,0.1
		c0.8,0.2,1.4-0.2,1.5-0.8c0.1-0.6-0.3-1.6-1-1.6c0.5,0,0.7-0.3,0.4-0.6c0.4-0.1,0.3-0.7-0.3-0.3c0.8-0.2,0.5-1.6-0.2-1.2
		c0.2-0.2,0.2-0.4,0.1-0.6c-0.1,0.1-0.2,0.2-0.2,0.3c-0.2-0.7-1.1-0.1-0.9,0.4c0,0,0,0.1,0,0.1c0,0,0-0.1,0-0.1
		c-0.1-0.2-0.3-0.1-0.3,0.2c0,0.1,0,0.1,0,0.2c0-0.1,0-0.1,0-0.2c-0.1-0.1-0.3-0.2-0.5-0.2c0.5-0.1,0.7-0.8,0.2-1
		c0.5,0.1,0.7-0.6,0.2-0.8c0,0,0,0,0,0c-0.1,0.1-0.2,0.2-0.3,0.4c-0.2-0.7-1.1-0.2-0.9,0.4c0,0,0,0.1,0.1,0.1c0,0,0-0.1-0.1-0.1
		c-0.2-0.2-0.3-0.1-0.3,0.2c0,0,0.1,0.1,0,0.2c0-0.1,0-0.1,0-0.2c-0.1-0.2-0.3-0.2-0.5-0.2c0.5-0.1,0.7-0.8,0.2-1
		c0.2,0,0.4-0.1,0.5-0.3c-0.1,0-0.3,0.1-0.5,0.2c-0.1-0.3-0.3-0.4-0.6,0c0-0.8-1.1-0.5-0.9,0.2c-0.2-0.3-0.7-0.1-0.7,0.2
		c-0.5-0.1-0.7,0.1-0.7,0.5c-0.4,0-0.6,0.2-0.5,0.4c0.1,0,0.1,0.1,0.2,0.2c-0.1,0-0.1-0.1-0.2-0.2c-0.4-0.2-1,0.8-0.4,1
		c-0.6-0.3-1.3,0.8-0.6,1c0.1,0,0.1,0,0.2,0c-0.1,0-0.1,0-0.2,0c-0.3,0-0.5,0.4-0.1,0.6c-0.4-0.2-0.5,0.3-0.3,0.5
		c-0.6-0.1-0.5,0.6,0,0.7c0,0,0,0,0.1,0c0,0-0.1,0-0.1,0c-0.2,0-0.3,0.4,0.1,0.3c-0.6,0-0.5,1,0.2,0.8c-0.2,0.1-0.2,0.4,0.1,0.5
		c0.1,0,0.1,0,0.2,0c-0.1,0-0.1,0-0.2,0c-0.6,0-0.6,0.5-0.2,0.8c0,0,0-0.1,0-0.2c0.1,0.4,0.7,0.1,0.6-0.2c0.2,0.1,0.4,0,0.6-0.2
		c-0.5,0.4-0.4,1,0.2,1.1c-0.1,0.1-0.5,0-0.6,0.4c-0.1,0-0.2,0-0.3,0c-0.1,0.6,0.2,1.1,0.1,0.7c0.2,0.2,0.4,0.2,0.5,0.1
		c0,0,0-0.1,0-0.2c0,0,0.1,0.1,0.1,0.1C21.6,30.2,21.7,29.9,21.5,29.7z"/>
	<path class="st4" d="M49.7,33l-1.6-0.3l-3.3-0.7h0l-0.1,0c-0.9-0.1-1.9-0.1-2.8,0c-0.9,0-1.8,0.1-2.6,0.3c-0.2-0.4-0.6-0.4-0.9-0.6
		l-1.1-0.5l-2.1-0.9c-0.8-0.3-1.6-0.7-2.3-1c0.2-0.9,0.3-1.7,0.2-2.3c0.9-0.4,1.7-0.9,2.5-1.4c0.3-0.2,0.6-0.4,0.9-0.6
		c0.2,0.1,0.3,0.1,0.5,0.1l0.9,0.2l1.8,0.3l3.6,0.5c1.2,0.2,2.4,0.3,3.6,0.5c1.2,0.1,2.4,0.3,3.6,0.4l0.2-1
		c-1.2-0.3-2.4-0.6-3.5-0.9c-1.2-0.3-2.4-0.5-3.6-0.8L40,23.6l-1.7-0.3c0.6-0.6,1.1-1.2,1.5-1.8c0.6-0.8,1.1-1.8,1.5-2.7l6.3-0.6
		l0-1l-5.7,0c0.1-0.3,0.2-0.6,0.3-0.9c0.5-1.8,0.6-3.7,0.7-5.6l-1,0c-0.2,1.8-0.4,3.6-1,5.3c-0.5,1.7-1.3,3.3-2.4,4.7
		c-1.1,1.4-2.4,2.5-3.9,3.3c-0.9,0.5-1.9,1-2.9,1.3c-0.5-0.3-0.9-0.5-1.2-0.6c-0.3-0.2-0.7-0.6-1.2-0.9l-0.7-10.4
		c0,0,0.1-0.1,0.2-0.1l0.5-0.4l1.1-0.8l2.3-1.6L37.4,7l-0.5-0.8l-4.8,3l-2.4,1.5l-1.1,0.8l-0.4-6.8l-1,0l0.1,7.8c0,0,0,0,0,0l0,0
		l0,3.9c0,0,0,0-0.1-0.1c-0.5-0.5-1-0.9-1.5-1.3c-0.1-0.1-0.2-0.1-0.2-0.2L23,6l-1,0.2l1.7,7.2c-0.4-0.3-0.8-0.6-1.3-0.9
		c-1.1-0.7-2.3-1.4-3.5-2c-1.2-0.6-2.4-1.2-3.6-1.7l-0.4,0.9c1.2,0.6,2.4,1.2,3.5,1.8c1.2,0.6,2.3,1.3,3.4,2s2.1,1.5,3.1,2.3
		c0.5,0.4,1,0.8,1.4,1.3c0.2,0.2,0.5,0.5,0.7,0.7c0.1,0.1,0.2,0.2,0.2,0.3l0,5c-0.7,0.3-1.2,0.8-1.2,0.8s-0.3,0.3-0.8,0.7L17,20.2
		c-0.3-0.5-0.7-1-1-1.5l-1.5-2.1c-1-1.4-2-2.8-3-4.2l-0.8,0.5c0.9,1.5,1.8,2.9,2.7,4.4l1.4,2.2c0.2,0.3,0.5,0.7,0.7,1.1
		c-0.5,0-1.1,0.1-1.6,0.1L11,20.7C9,20.9,7.1,21,5.1,21.2l0,1c2,0,3.9,0,5.8-0.1l2.9-0.1c0.7,0,1.5,0,2.2-0.2l2.2,1.4l-5.4,3.2
		l-9,1.5l0.2,1l9.1-1.5l0,0l0.1,0l7.1-2.9l3.4,2.1c-0.1,0.2-0.1,0.3-0.2,0.4c-0.1,0.9,0.3,1.8,0.5,2.8l-3.8,3.1L4,31.9l-0.1,1l9.7,1
		l-7.5,5.8l0.6,0.8l9.7-6.3l3.2,0.3l-0.4,3.3c-0.1,0.8-0.2,1.6-0.3,2.3l-9.9,3.4l0.3,0.9l9.3-2.5c0,0,0,0,0,0.1l-1.6,8.5l1,0.2
		l2-8.4c0.4-1.4,0.5-2.8,0.8-4.3l0.7-3.9l3.2-1.9c0.1,0.2,0.4,0.3,0.8,0.4c0.5,0.1,0.9,0.2,1.2,0.2l1.7,10.1l-3.4,9.9l0.9,0.3
		l3.3-8.5l5.4,7.8l0.8-0.5l-5.6-9.4l-0.6-10c0.5-0.2,1-0.3,1-0.3s1-0.5,1.8-1.3c0.9,0.3,1.7,0.6,2.6,0.9l2.2,0.7l1.1,0.3
		c0.2,0,0.3,0.1,0.5,0.2l0.6,3.2l0.4,1.8l0.2,0.9l0.1,0.5c0,0.1,0.1,0.2,0.2,0.4l0.1,0.2c0.7,1.1,1.3,2.1,2,3.1l2,3l0.8-0.5
		l-1.8-3.1c-0.6-1-1.2-2.1-1.8-3.1L41,39.3c0,0,0,0,0-0.1l-0.1-0.4l-0.1-0.9l-0.2-1.8l-0.4-2.8c0.6,0,1.2,0,1.8-0.1
		c0.5,0,1-0.1,1.6-0.2l3.9,9.4l0.9-0.3l-3-9.1l2.5,0.6l1.7,0.3c0.6,0.1,1.1,0.2,1.8,0.3v-1C50.9,33.2,50.3,33.1,49.7,33z"/>
</g>
</svg>
